0, 0, Header, 1, 2, 360
1, 0, Start_track
1, 0, Title_t, "MELODIYA Op.21 No.9"
1, 0, Copyright_t, "Copyright (C) "
1, 0, Text_t, "Rachmaninoff/Volodos\012"
1, 0, Time_signature, 4, 2, 24, 8
1, 0, Key_signature, -2, "major"
1, 0, Tempo, 800000
1, 1560, Tempo, 800000
1, 1590, Tempo, 811798
1, 1622, Tempo, 823949
1, 1652, Tempo, 836470
1, 1683, Tempo, 849257
1, 1714, Tempo, 862565
1, 1745, Tempo, 876296
1, 1776, Tempo, 890472
1, 1807, Tempo, 905114
1, 1838, Tempo, 920245
1, 1869, Tempo, 935891
1, 1900, Tempo, 951928
1, 1931, Tempo, 968679
1, 1962, Tempo, 986031
1, 1993, Tempo, 1004016
1, 2024, Tempo, 1022669
1, 2055, Tempo, 1042028
1, 2100, Tempo, 1071429
1, 2160, Tempo, 800000
1, 6960, Tempo, 1071429
1, 6982, Tempo, 1142857
1, 7005, Tempo, 1224490
1, 7027, Tempo, 1318681
1, 7050, Tempo, 1428571
1, 7200, Tempo, 800000
1, 12420, Tempo, 800000
1, 12444, Tempo, 811688
1, 12468, Tempo, 823836
1, 12492, Tempo, 836237
1, 12516, Tempo, 849137
1, 12540, Tempo, 862317
1, 12564, Tempo, 875912
1, 12587, Tempo, 890076
1, 12611, Tempo, 904568
1, 12635, Tempo, 919681
1, 12659, Tempo, 935162
1, 12683, Tempo, 951173
1, 12707, Tempo, 967898
1, 12731, Tempo, 985060
1, 12755, Tempo, 1002841
1, 12779, Tempo, 1021450
1, 12803, Tempo, 1040583
1, 12839, Tempo, 1071429
1, 12960, Tempo, 800000
1, 15480, Tempo, 800000
1, 15503, Tempo, 820232
1, 15525, Tempo, 841633
1, 15548, Tempo, 864055
1, 15570, Tempo, 887705
1, 15593, Tempo, 912825
1, 15615, Tempo, 939261
1, 15638, Tempo, 967430
1, 15660, Tempo, 997175
1, 15683, Tempo, 1028807
1, 15711, Tempo, 1071429
1, 15840, Tempo, 800000
1, 18360, Tempo, 800000
1, 18383, Tempo, 826105
1, 18405, Tempo, 854093
1, 18428, Tempo, 883913
1, 18450, Tempo, 916031
1, 18473, Tempo, 950420
1, 18495, Tempo, 987654
1, 18518, Tempo, 1027749
1, 18540, Tempo, 1071429
1, 18720, Tempo, 800000
1, 24179, Tempo, 800000
1, 24202, Tempo, 826105
1, 24224, Tempo, 854093
1, 24247, Tempo, 883913
1, 24269, Tempo, 916031
1, 24292, Tempo, 950420
1, 24314, Tempo, 987654
1, 24337, Tempo, 1027749
1, 24359, Tempo, 1071429
1, 24480, Tempo, 800000
1, 34200, Tempo, 800000
1, 34223, Tempo, 826105
1, 34245, Tempo, 854093
1, 34268, Tempo, 883913
1, 34290, Tempo, 916031
1, 34313, Tempo, 950420
1, 34335, Tempo, 987654
1, 34358, Tempo, 1027749
1, 34380, Tempo, 1071429
1, 34560, Tempo, 800000
1, 36000, Time_signature, 2, 2, 24, 8
1, 36720, Time_signature, 4, 2, 24, 8
1, 37800, Tempo, 800000
1, 37823, Tempo, 819560
1, 37845, Tempo, 840101
1, 37868, Tempo, 861574
1, 37890, Tempo, 884304
1, 37913, Tempo, 908265
1, 37935, Tempo, 933562
1, 37958, Tempo, 960307
1, 37980, Tempo, 988631
1, 38003, Tempo, 1018503
1, 38039, Tempo, 1071429
1, 38160, Tempo, 800000
1, 39240, Tempo, 857143
1, 39600, Tempo, 800000
1, 39624, Tempo, 811688
1, 39648, Tempo, 823836
1, 39672, Tempo, 836237
1, 39696, Tempo, 849137
1, 39720, Tempo, 862317
1, 39744, Tempo, 875912
1, 39767, Tempo, 890076
1, 39791, Tempo, 904568
1, 39815, Tempo, 919681
1, 39839, Tempo, 935162
1, 39863, Tempo, 951173
1, 39887, Tempo, 967898
1, 39911, Tempo, 985060
1, 39935, Tempo, 1002841
1, 39959, Tempo, 1021450
1, 39983, Tempo, 1040583
1, 40019, Tempo, 1071429
1, 40320, Tempo, 857143
1, 40500, Tempo, 800000
1, 51660, Tempo, 833333
1, 51840, Tempo, 869565
1, 52020, Tempo, 923077
1, 52200, Tempo, 1000000
1, 52380, Tempo, 1111111
1, 52560, Tempo, 800000
1, 57600, Tempo, 821918
1, 57780, Tempo, 845070
1, 57960, Tempo, 869565
1, 58140, Tempo, 895522
1, 58320, Tempo, 800000
1, 64080, Tempo, 800000
1, 64162, Tempo, 811908
1, 64243, Tempo, 824176
1, 64325, Tempo, 836937
1, 64406, Tempo, 849979
1, 64488, Tempo, 863434
1, 64569, Tempo, 877321
1, 64651, Tempo, 891663
1, 64733, Tempo, 906618
1, 64814, Tempo, 921942
1, 64896, Tempo, 937793
1, 64977, Tempo, 954198
1, 65059, Tempo, 971188
1, 65141, Tempo, 988957
1, 65222, Tempo, 1007218
1, 65304, Tempo, 1026167
1, 65385, Tempo, 1045843
1, 65486, Tempo, 1071429
1, 65520, Tempo, 1200000
1, 65880, Tempo, 1200000
1, 65910, Tempo, 1218522
1, 65939, Tempo, 1237624
1, 65969, Tempo, 1257071
1, 65998, Tempo, 1277411
1, 66028, Tempo, 1298420
1, 66057, Tempo, 1320132
1, 66087, Tempo, 1342582
1, 66116, Tempo, 1365809
1, 66146, Tempo, 1389532
1, 66176, Tempo, 1414427
1, 66205, Tempo, 1440230
1, 66234, Tempo, 1466993
1, 66264, Tempo, 1494768
1, 66294, Tempo, 1523616
1, 66323, Tempo, 1553197
1, 66353, Tempo, 1584368
1, 66386, Tempo, 1621622
1, 66403, Tempo, 1621622
1, 66426, Tempo, 1673173
1, 66448, Tempo, 1728608
1, 66471, Tempo, 1787310
1, 66493, Tempo, 1850139
1, 66516, Tempo, 1917546
1, 66538, Tempo, 1990710
1, 66561, Tempo, 2068966
1, 66600, Tempo, 2222222
1, 66870, Tempo, 5000000
1, 66960, Tempo, 2222222
1, 66960, End_track
2, 0, Start_track
2, 0, Title_t, "Piano"
2, 0, Program_c, 0, 0
2, 0, Control_c, 0, 7, 105
2, 0, Control_c, 0, 10, 64
2, 0, Control_c, 0, 91, 48
2, 0, Control_c, 0, 121, 0
2, 0, Control_c, 0, 64, 0
2, 0, Control_c, 0, 121, 0
2, 0, Control_c, 0, 64, 0
2, 0, Control_c, 0, 91, 48
2, 0, Control_c, 0, 10, 51
2, 0, Control_c, 0, 7, 100
2, 0, Control_c, 0, 121, 0
2, 0, Control_c, 0, 64, 0
2, 0, Control_c, 0, 91, 48
2, 0, Control_c, 0, 10, 51
2, 0, Control_c, 0, 7, 100
2, 0, Note_on_c, 0, 74, 66
2, 0, Control_c, 0, 64, 127
2, 0, Note_on_c, 0, 47, 66
2, 35, Note_on_c, 0, 54, 66
2, 59, Note_on_c, 0, 74, 0
2, 59, Note_on_c, 0, 62, 55
2, 71, Note_on_c, 0, 59, 66
2, 105, Note_on_c, 0, 62, 66
2, 120, Note_on_c, 0, 62, 0
2, 120, Note_on_c, 0, 71, 87
2, 141, Note_on_c, 0, 66, 66
2, 180, Note_on_c, 0, 66, 0
2, 180, Note_on_c, 0, 54, 0
2, 180, Note_on_c, 0, 62, 0
2, 180, Note_on_c, 0, 47, 0
2, 180, Note_on_c, 0, 71, 0
2, 180, Note_on_c, 0, 59, 0
2, 180, Note_on_c, 0, 74, 78
2, 180, Note_on_c, 0, 54, 59
2, 239, Note_on_c, 0, 74, 0
2, 239, Note_on_c, 0, 71, 66
2, 300, Note_on_c, 0, 71, 0
2, 300, Note_on_c, 0, 74, 78
2, 360, Note_on_c, 0, 74, 0
2, 360, Note_on_c, 0, 54, 0
2, 360, Note_on_c, 0, 83, 90
2, 360, Note_on_c, 0, 62, 91
2, 360, Note_on_c, 0, 66, 91
2, 419, Note_on_c, 0, 83, 0
2, 419, Note_on_c, 0, 74, 61
2, 480, Note_on_c, 0, 74, 0
2, 480, Note_on_c, 0, 71, 59
2, 540, Note_on_c, 0, 71, 0
2, 540, Note_on_c, 0, 66, 0
2, 540, Note_on_c, 0, 62, 0
2, 540, Note_on_c, 0, 74, 73
2, 540, Control_c, 0, 64, 0
2, 540, Note_on_c, 0, 54, 68
2, 599, Note_on_c, 0, 74, 0
2, 599, Note_on_c, 0, 71, 65
2, 660, Note_on_c, 0, 71, 0
2, 660, Note_on_c, 0, 62, 57
2, 720, Note_on_c, 0, 62, 0
2, 720, Note_on_c, 0, 54, 0
2, 720, Note_on_c, 0, 74, 91
2, 720, Control_c, 0, 64, 127
2, 720, Note_on_c, 0, 43, 91
2, 755, Note_on_c, 0, 50, 91
2, 779, Note_on_c, 0, 74, 0
2, 779, Note_on_c, 0, 62, 57
2, 791, Note_on_c, 0, 58, 91
2, 825, Note_on_c, 0, 62, 91
2, 840, Note_on_c, 0, 62, 0
2, 840, Note_on_c, 0, 70, 77
2, 861, Note_on_c, 0, 67, 91
2, 900, Note_on_c, 0, 67, 0
2, 900, Note_on_c, 0, 50, 0
2, 900, Note_on_c, 0, 62, 0
2, 900, Note_on_c, 0, 43, 0
2, 900, Note_on_c, 0, 70, 0
2, 900, Note_on_c, 0, 58, 0
2, 900, Note_on_c, 0, 74, 80
2, 900, Note_on_c, 0, 50, 63
2, 959, Note_on_c, 0, 74, 0
2, 959, Note_on_c, 0, 70, 67
2, 1020, Note_on_c, 0, 70, 0
2, 1020, Note_on_c, 0, 74, 78
2, 1080, Note_on_c, 0, 74, 0
2, 1080, Note_on_c, 0, 50, 0
2, 1080, Note_on_c, 0, 82, 83
2, 1080, Note_on_c, 0, 58, 94
2, 1080, Note_on_c, 0, 62, 94
2, 1139, Note_on_c, 0, 82, 0
2, 1139, Note_on_c, 0, 74, 56
2, 1200, Note_on_c, 0, 74, 0
2, 1200, Note_on_c, 0, 70, 63
2, 1260, Note_on_c, 0, 70, 0
2, 1260, Note_on_c, 0, 62, 0
2, 1260, Note_on_c, 0, 58, 0
2, 1260, Note_on_c, 0, 74, 76
2, 1260, Note_on_c, 0, 50, 66
2, 1319, Note_on_c, 0, 74, 0
2, 1319, Note_on_c, 0, 70, 64
2, 1380, Note_on_c, 0, 70, 0
2, 1380, Note_on_c, 0, 62, 52
2, 1440, Note_on_c, 0, 62, 0
2, 1440, Note_on_c, 0, 50, 0
2, 1440, Note_on_c, 0, 74, 87
2, 1440, Note_on_c, 0, 65, 65
2, 1440, Control_c, 0, 64, 0
2, 1440, Control_c, 0, 64, 127
2, 1440, Note_on_c, 0, 39, 74
2, 1440, Note_on_c, 0, 46, 74
2, 1440, Note_on_c, 0, 54, 74
2, 1499, Note_on_c, 0, 74, 0
2, 1499, Note_on_c, 0, 62, 55
2, 1560, Note_on_c, 0, 62, 0
2, 1560, Note_on_c, 0, 70, 85
2, 1620, Note_on_c, 0, 70, 0
2, 1620, Note_on_c, 0, 46, 0
2, 1620, Note_on_c, 0, 54, 0
2, 1620, Note_on_c, 0, 39, 0
2, 1620, Note_on_c, 0, 74, 76
2, 1620, Note_on_c, 0, 51, 67
2, 1679, Note_on_c, 0, 74, 0
2, 1679, Note_on_c, 0, 70, 61
2, 1740, Note_on_c, 0, 70, 0
2, 1740, Note_on_c, 0, 74, 75
2, 1800, Note_on_c, 0, 74, 0
2, 1800, Note_on_c, 0, 51, 0
2, 1800, Note_on_c, 0, 65, 0
2, 1800, Note_on_c, 0, 82, 85
2, 1800, Note_on_c, 0, 63, 69
2, 1800, Note_on_c, 0, 54, 73
2, 1800, Note_on_c, 0, 58, 73
2, 1859, Note_on_c, 0, 82, 0
2, 1859, Note_on_c, 0, 72, 59
2, 1920, Note_on_c, 0, 72, 0
2, 1920, Note_on_c, 0, 70, 65
2, 1980, Note_on_c, 0, 70, 0
2, 1980, Note_on_c, 0, 58, 0
2, 1980, Note_on_c, 0, 54, 0
2, 1980, Note_on_c, 0, 72, 68
2, 1980, Note_on_c, 0, 51, 68
2, 2039, Note_on_c, 0, 72, 0
2, 2039, Note_on_c, 0, 70, 66
2, 2100, Note_on_c, 0, 70, 0
2, 2100, Note_on_c, 0, 60, 55
2, 2160, Note_on_c, 0, 60, 0
2, 2160, Note_on_c, 0, 51, 0
2, 2160, Note_on_c, 0, 63, 0
2, 2160, Note_on_c, 0, 62, 75
2, 2160, Control_c, 0, 64, 0
2, 2160, Control_c, 0, 64, 127
2, 2160, Note_on_c, 0, 46, 64
2, 2219, Note_on_c, 0, 46, 0
2, 2219, Note_on_c, 0, 53, 79
2, 2280, Note_on_c, 0, 53, 0
2, 2280, Note_on_c, 0, 62, 0
2, 2280, Note_on_c, 0, 70, 90
2, 2280, Note_on_c, 0, 58, 79
2, 2340, Note_on_c, 0, 70, 0
2, 2340, Note_on_c, 0, 74, 74
2, 2340, Note_on_c, 0, 65, 67
2, 2399, Note_on_c, 0, 65, 0
2, 2399, Note_on_c, 0, 58, 0
2, 2399, Note_on_c, 0, 70, 86
2, 2399, Note_on_c, 0, 58, 68
2, 2460, Note_on_c, 0, 58, 0
2, 2460, Note_on_c, 0, 70, 0
2, 2460, Note_on_c, 0, 65, 68
2, 2460, Note_on_c, 0, 53, 66
2, 2498, Note_on_c, 0, 74, 0
2, 2520, Note_on_c, 0, 65, 0
2, 2520, Note_on_c, 0, 75, 92
2, 2520, Note_on_c, 0, 66, 78
2, 2579, Note_on_c, 0, 66, 0
2, 2579, Note_on_c, 0, 53, 0
2, 2579, Note_on_c, 0, 70, 88
2, 2579, Note_on_c, 0, 60, 82
2, 2640, Note_on_c, 0, 70, 0
2, 2640, Note_on_c, 0, 65, 68
2, 2678, Note_on_c, 0, 75, 0
2, 2700, Note_on_c, 0, 65, 0
2, 2700, Note_on_c, 0, 77, 89
2, 2700, Note_on_c, 0, 68, 83
2, 2700, Control_c, 0, 64, 0
2, 2759, Note_on_c, 0, 68, 0
2, 2759, Note_on_c, 0, 60, 0
2, 2759, Note_on_c, 0, 70, 82
2, 2759, Note_on_c, 0, 62, 76
2, 2820, Note_on_c, 0, 70, 0
2, 2820, Note_on_c, 0, 65, 68
2, 2858, Note_on_c, 0, 77, 0
2, 2880, Note_on_c, 0, 65, 0
2, 2880, Note_on_c, 0, 62, 0
2, 2880, Note_on_c, 0, 78, 93
2, 2880, Note_on_c, 0, 69, 83
2, 2880, Control_c, 0, 64, 127
2, 2880, Note_on_c, 0, 46, 61
2, 2939, Note_on_c, 0, 46, 0
2, 2939, Note_on_c, 0, 69, 0
2, 2939, Note_on_c, 0, 72, 86
2, 2939, Note_on_c, 0, 54, 74
2, 3000, Note_on_c, 0, 54, 0
2, 3000, Note_on_c, 0, 72, 0
2, 3000, Note_on_c, 0, 63, 60
2, 3000, Note_on_c, 0, 60, 76
2, 3038, Note_on_c, 0, 78, 0
2, 3060, Note_on_c, 0, 63, 0
2, 3060, Note_on_c, 0, 74, 79
2, 3060, Note_on_c, 0, 68, 82
2, 3119, Note_on_c, 0, 68, 0
2, 3119, Note_on_c, 0, 60, 0
2, 3119, Note_on_c, 0, 72, 88
2, 3119, Note_on_c, 0, 63, 74
2, 3180, Note_on_c, 0, 63, 0
2, 3180, Note_on_c, 0, 72, 0
2, 3180, Note_on_c, 0, 66, 67
2, 3180, Note_on_c, 0, 60, 66
2, 3218, Note_on_c, 0, 74, 0
2, 3240, Note_on_c, 0, 66, 0
2, 3240, Note_on_c, 0, 75, 83
2, 3240, Note_on_c, 0, 69, 79
2, 3299, Note_on_c, 0, 69, 0
2, 3299, Note_on_c, 0, 60, 0
2, 3299, Note_on_c, 0, 72, 82
2, 3299, Note_on_c, 0, 63, 77
2, 3360, Note_on_c, 0, 63, 0
2, 3360, Note_on_c, 0, 72, 0
2, 3360, Note_on_c, 0, 66, 64
2, 3360, Note_on_c, 0, 60, 66
2, 3398, Note_on_c, 0, 75, 0
2, 3420, Note_on_c, 0, 66, 0
2, 3420, Note_on_c, 0, 77, 90
2, 3420, Note_on_c, 0, 70, 84
2, 3479, Note_on_c, 0, 70, 0
2, 3479, Note_on_c, 0, 60, 0
2, 3479, Note_on_c, 0, 72, 81
2, 3479, Note_on_c, 0, 63, 78
2, 3540, Note_on_c, 0, 63, 0
2, 3540, Note_on_c, 0, 72, 0
2, 3540, Note_on_c, 0, 66, 60
2, 3540, Control_c, 0, 64, 0
2, 3540, Note_on_c, 0, 60, 64
2, 3578, Note_on_c, 0, 77, 0
2, 3600, Note_on_c, 0, 60, 0
2, 3600, Note_on_c, 0, 66, 0
2, 3600, Note_on_c, 0, 78, 86
2, 3600, Control_c, 0, 64, 127
2, 3600, Note_on_c, 0, 57, 75
2, 3600, Note_on_c, 0, 59, 75
2, 3600, Note_on_c, 0, 63, 75
2, 3600, Note_on_c, 0, 54, 68
2, 3659, Note_on_c, 0, 54, 0
2, 3659, Note_on_c, 0, 46, 66
2, 3690, Note_on_c, 0, 72, 70
2, 3720, Note_on_c, 0, 46, 0
2, 3720, Note_on_c, 0, 54, 83
2, 3758, Note_on_c, 0, 78, 0
2, 3780, Note_on_c, 0, 54, 0
2, 3780, Note_on_c, 0, 81, 89
2, 3780, Note_on_c, 0, 60, 88
2, 3839, Note_on_c, 0, 60, 0
2, 3839, Note_on_c, 0, 63, 83
2, 3870, Note_on_c, 0, 72, 0
2, 3870, Note_on_c, 0, 75, 79
2, 3900, Note_on_c, 0, 63, 0
2, 3900, Note_on_c, 0, 66, 86
2, 3938, Note_on_c, 0, 81, 0
2, 3960, Note_on_c, 0, 63, 0
2, 3960, Note_on_c, 0, 59, 0
2, 3960, Note_on_c, 0, 57, 0
2, 3960, Note_on_c, 0, 66, 0
2, 3960, Note_on_c, 0, 82, 87
2, 3960, Note_on_c, 0, 72, 88
2, 4019, Note_on_c, 0, 72, 0
2, 4019, Note_on_c, 0, 66, 67
2, 4050, Note_on_c, 0, 75, 0
2, 4050, Note_on_c, 0, 77, 81
2, 4080, Note_on_c, 0, 66, 0
2, 4080, Note_on_c, 0, 63, 66
2, 4118, Note_on_c, 0, 82, 0
2, 4140, Note_on_c, 0, 63, 0
2, 4140, Note_on_c, 0, 84, 86
2, 4140, Control_c, 0, 64, 0
2, 4140, Note_on_c, 0, 60, 69
2, 4230, Note_on_c, 0, 60, 0
2, 4230, Note_on_c, 0, 77, 0
2, 4230, Note_on_c, 0, 78, 75
2, 4230, Note_on_c, 0, 51, 69
2, 4298, Note_on_c, 0, 84, 0
2, 4320, Note_on_c, 0, 51, 0
2, 4320, Note_on_c, 0, 78, 0
2, 4320, Note_on_c, 0, 86, 87
2, 4320, Note_on_c, 0, 74, 74
2, 4320, Control_c, 0, 64, 127
2, 4320, Note_on_c, 0, 41, 65
2, 4320, Note_on_c, 0, 34, 66
2, 4320, Note_on_c, 0, 41, 66
2, 4347, Note_on_c, 0, 77, 74
2, 4410, Note_on_c, 0, 41, 0
2, 4410, Note_on_c, 0, 50, 76
2, 4440, Note_on_c, 0, 74, 0
2, 4440, Note_on_c, 0, 77, 0
2, 4440, Note_on_c, 0, 75, 69
2, 4500, Note_on_c, 0, 75, 0
2, 4500, Note_on_c, 0, 77, 84
2, 4559, Note_on_c, 0, 77, 0
2, 4559, Note_on_c, 0, 79, 80
2, 4590, Note_on_c, 0, 50, 0
2, 4590, Note_on_c, 0, 50, 73
2, 4620, Note_on_c, 0, 79, 0
2, 4620, Note_on_c, 0, 74, 65
2, 4680, Note_on_c, 0, 74, 0
2, 4680, Note_on_c, 0, 50, 0
2, 4680, Note_on_c, 0, 86, 0
2, 4680, Note_on_c, 0, 34, 0
2, 4680, Note_on_c, 0, 41, 0
2, 4680, Note_on_c, 0, 86, 82
2, 4680, Note_on_c, 0, 86, 90
2, 4680, Note_on_c, 0, 53, 71
2, 4739, Note_on_c, 0, 86, 0
2, 4739, Note_on_c, 0, 79, 64
2, 4770, Note_on_c, 0, 53, 0
2, 4770, Note_on_c, 0, 53, 71
2, 4800, Note_on_c, 0, 79, 0
2, 4800, Note_on_c, 0, 72, 61
2, 4838, Note_on_c, 0, 86, 0
2, 4860, Note_on_c, 0, 72, 0
2, 4860, Note_on_c, 0, 82, 73
2, 4860, Note_on_c, 0, 77, 88
2, 4919, Note_on_c, 0, 77, 0
2, 4919, Note_on_c, 0, 79, 88
2, 4950, Note_on_c, 0, 53, 0
2, 4950, Note_on_c, 0, 53, 68
2, 4980, Note_on_c, 0, 79, 0
2, 4980, Note_on_c, 0, 70, 60
2, 5018, Note_on_c, 0, 82, 0
2, 5040, Note_on_c, 0, 70, 0
2, 5040, Note_on_c, 0, 53, 0
2, 5040, Note_on_c, 0, 82, 83
2, 5040, Note_on_c, 0, 75, 77
2, 5040, Control_c, 0, 64, 0
2, 5040, Control_c, 0, 64, 127
2, 5040, Note_on_c, 0, 46, 68
2, 5099, Note_on_c, 0, 46, 0
2, 5099, Note_on_c, 0, 51, 76
2, 5130, Note_on_c, 0, 75, 0
2, 5130, Note_on_c, 0, 74, 73
2, 5160, Note_on_c, 0, 51, 0
2, 5160, Note_on_c, 0, 54, 70
2, 5198, Note_on_c, 0, 82, 0
2, 5220, Note_on_c, 0, 54, 0
2, 5220, Note_on_c, 0, 74, 0
2, 5220, Note_on_c, 0, 81, 80
2, 5220, Note_on_c, 0, 74, 76
2, 5220, Note_on_c, 0, 60, 81
2, 5279, Note_on_c, 0, 60, 0
2, 5279, Note_on_c, 0, 63, 76
2, 5310, Note_on_c, 0, 74, 0
2, 5310, Note_on_c, 0, 72, 73
2, 5340, Note_on_c, 0, 63, 0
2, 5340, Note_on_c, 0, 66, 75
2, 5378, Note_on_c, 0, 81, 0
2, 5400, Note_on_c, 0, 66, 0
2, 5400, Note_on_c, 0, 72, 0
2, 5400, Note_on_c, 0, 78, 74
2, 5400, Note_on_c, 0, 70, 74
2, 5400, Note_on_c, 0, 69, 76
2, 5459, Note_on_c, 0, 69, 0
2, 5459, Note_on_c, 0, 66, 65
2, 5490, Note_on_c, 0, 70, 0
2, 5490, Note_on_c, 0, 72, 77
2, 5520, Note_on_c, 0, 66, 0
2, 5520, Note_on_c, 0, 63, 58
2, 5558, Note_on_c, 0, 78, 0
2, 5580, Note_on_c, 0, 63, 0
2, 5580, Note_on_c, 0, 81, 85
2, 5580, Note_on_c, 0, 60, 67
2, 5639, Note_on_c, 0, 60, 0
2, 5639, Control_c, 0, 64, 0
2, 5639, Note_on_c, 0, 54, 61
2, 5670, Note_on_c, 0, 72, 0
2, 5670, Note_on_c, 0, 74, 82
2, 5700, Note_on_c, 0, 54, 0
2, 5700, Note_on_c, 0, 51, 69
2, 5738, Note_on_c, 0, 81, 0
2, 5760, Note_on_c, 0, 51, 0
2, 5760, Note_on_c, 0, 74, 0
2, 5760, Note_on_c, 0, 74, 85
2, 5760, Note_on_c, 0, 82, 85
2, 5760, Control_c, 0, 64, 127
2, 5760, Note_on_c, 0, 46, 74
2, 5760, Note_on_c, 0, 55, 74
2, 5850, Note_on_c, 0, 55, 0
2, 5850, Note_on_c, 0, 46, 0
2, 5850, Note_on_c, 0, 61, 68
2, 5850, Note_on_c, 0, 58, 74
2, 5940, Note_on_c, 0, 61, 0
2, 5940, Note_on_c, 0, 62, 78
2, 6030, Note_on_c, 0, 62, 0
2, 6030, Note_on_c, 0, 58, 0
2, 6030, Note_on_c, 0, 66, 85
2, 6030, Note_on_c, 0, 58, 66
2, 6120, Note_on_c, 0, 66, 0
2, 6120, Note_on_c, 0, 67, 98
2, 6120, Note_on_c, 0, 79, 98
2, 6210, Note_on_c, 0, 79, 0
2, 6210, Note_on_c, 0, 58, 0
2, 6210, Note_on_c, 0, 67, 0
2, 6210, Note_on_c, 0, 69, 66
2, 6210, Note_on_c, 0, 62, 78
2, 6234, Note_on_c, 0, 82, 0
2, 6234, Note_on_c, 0, 74, 0
2, 6300, Note_on_c, 0, 69, 0
2, 6300, Note_on_c, 0, 82, 83
2, 6300, Note_on_c, 0, 70, 76
2, 6390, Note_on_c, 0, 70, 0
2, 6390, Note_on_c, 0, 62, 0
2, 6390, Note_on_c, 0, 72, 84
2, 6390, Control_c, 0, 64, 0
2, 6390, Note_on_c, 0, 62, 69
2, 6458, Note_on_c, 0, 82, 0
2, 6480, Note_on_c, 0, 62, 0
2, 6480, Note_on_c, 0, 72, 0
2, 6480, Note_on_c, 0, 82, 84
2, 6480, Note_on_c, 0, 75, 85
2, 6480, Control_c, 0, 64, 127
2, 6480, Note_on_c, 0, 46, 61
2, 6539, Note_on_c, 0, 46, 0
2, 6539, Note_on_c, 0, 51, 78
2, 6570, Note_on_c, 0, 75, 0
2, 6570, Note_on_c, 0, 74, 77
2, 6600, Note_on_c, 0, 51, 0
2, 6600, Note_on_c, 0, 54, 70
2, 6638, Note_on_c, 0, 82, 0
2, 6660, Note_on_c, 0, 54, 0
2, 6660, Note_on_c, 0, 74, 0
2, 6660, Note_on_c, 0, 81, 79
2, 6660, Note_on_c, 0, 74, 73
2, 6660, Note_on_c, 0, 60, 85
2, 6719, Note_on_c, 0, 60, 0
2, 6719, Note_on_c, 0, 63, 82
2, 6750, Note_on_c, 0, 74, 0
2, 6750, Note_on_c, 0, 74, 77
2, 6780, Note_on_c, 0, 63, 0
2, 6780, Note_on_c, 0, 66, 76
2, 6818, Note_on_c, 0, 81, 0
2, 6840, Note_on_c, 0, 66, 0
2, 6840, Note_on_c, 0, 74, 0
2, 6840, Note_on_c, 0, 82, 84
2, 6840, Note_on_c, 0, 75, 82
2, 6840, Note_on_c, 0, 72, 82
2, 6899, Note_on_c, 0, 72, 0
2, 6899, Note_on_c, 0, 66, 63
2, 6930, Note_on_c, 0, 75, 0
2, 6930, Note_on_c, 0, 76, 81
2, 6960, Note_on_c, 0, 66, 0
2, 6960, Note_on_c, 0, 63, 60
2, 6998, Note_on_c, 0, 82, 0
2, 7020, Note_on_c, 0, 63, 0
2, 7020, Note_on_c, 0, 76, 0
2, 7020, Note_on_c, 0, 86, 89
2, 7020, Note_on_c, 0, 77, 80
2, 7020, Note_on_c, 0, 60, 67
2, 7079, Note_on_c, 0, 60, 0
2, 7079, Note_on_c, 0, 54, 62
2, 7110, Note_on_c, 0, 77, 0
2, 7110, Note_on_c, 0, 78, 78
2, 7140, Note_on_c, 0, 54, 0
2, 7140, Control_c, 0, 64, 0
2, 7140, Note_on_c, 0, 51, 63
2, 7178, Note_on_c, 0, 86, 0
2, 7200, Note_on_c, 0, 51, 0
2, 7200, Note_on_c, 0, 78, 0
2, 7200, Note_on_c, 0, 82, 74
2, 7200, Note_on_c, 0, 70, 80
2, 7200, Note_on_c, 0, 46, 66
2, 7200, Note_on_c, 0, 39, 77
2, 7200, Note_on_c, 0, 46, 77
2, 7235, Note_on_c, 0, 79, 80
2, 7259, Note_on_c, 0, 46, 0
2, 7259, Note_on_c, 0, 55, 77
2, 7320, Note_on_c, 0, 70, 0
2, 7320, Note_on_c, 0, 79, 0
2, 7320, Note_on_c, 0, 75, 72
2, 7380, Note_on_c, 0, 75, 0
2, 7380, Note_on_c, 0, 72, 81
2, 7380, Note_on_c, 0, 77, 81
2, 7439, Note_on_c, 0, 77, 0
2, 7439, Note_on_c, 0, 72, 0
2, 7439, Note_on_c, 0, 70, 66
2, 7500, Note_on_c, 0, 70, 0
2, 7500, Note_on_c, 0, 72, 82
2, 7500, Note_on_c, 0, 75, 82
2, 7560, Note_on_c, 0, 75, 0
2, 7560, Note_on_c, 0, 55, 0
2, 7560, Note_on_c, 0, 39, 0
2, 7560, Note_on_c, 0, 46, 0
2, 7560, Note_on_c, 0, 72, 0
2, 7560, Note_on_c, 0, 74, 68
2, 7560, Note_on_c, 0, 60, 82
2, 7619, Note_on_c, 0, 74, 0
2, 7619, Note_on_c, 0, 67, 74
2, 7619, Note_on_c, 0, 72, 74
2, 7680, Note_on_c, 0, 72, 0
2, 7680, Note_on_c, 0, 67, 0
2, 7680, Note_on_c, 0, 65, 60
2, 7740, Note_on_c, 0, 65, 0
2, 7740, Note_on_c, 0, 60, 0
2, 7740, Note_on_c, 0, 67, 81
2, 7740, Note_on_c, 0, 70, 81
2, 7740, Note_on_c, 0, 60, 72
2, 7799, Note_on_c, 0, 70, 0
2, 7799, Note_on_c, 0, 67, 0
2, 7799, Note_on_c, 0, 63, 62
2, 7860, Note_on_c, 0, 63, 0
2, 7860, Note_on_c, 0, 65, 79
2, 7920, Note_on_c, 0, 65, 0
2, 7920, Note_on_c, 0, 82, 0
2, 7920, Note_on_c, 0, 60, 0
2, 7920, Note_on_c, 0, 63, 79
2, 7920, Note_on_c, 0, 66, 79
2, 7920, Control_c, 0, 64, 127
2, 7920, Note_on_c, 0, 51, 64
2, 7979, Note_on_c, 0, 66, 0
2, 7979, Note_on_c, 0, 63, 0
2, 7979, Note_on_c, 0, 58, 70
2, 8040, Note_on_c, 0, 58, 0
2, 8040, Note_on_c, 0, 63, 81
2, 8100, Note_on_c, 0, 63, 0
2, 8100, Note_on_c, 0, 82, 76
2, 8100, Note_on_c, 0, 74, 97
2, 8159, Note_on_c, 0, 74, 0
2, 8159, Note_on_c, 0, 51, 0
2, 8159, Note_on_c, 0, 75, 85
2, 8159, Note_on_c, 0, 66, 92
2, 8220, Note_on_c, 0, 66, 0
2, 8220, Note_on_c, 0, 75, 0
2, 8220, Note_on_c, 0, 70, 71
2, 8220, Note_on_c, 0, 63, 70
2, 8258, Note_on_c, 0, 82, 0
2, 8280, Note_on_c, 0, 70, 0
2, 8280, Note_on_c, 0, 80, 76
2, 8280, Note_on_c, 0, 72, 81
2, 8339, Note_on_c, 0, 72, 0
2, 8339, Note_on_c, 0, 63, 0
2, 8339, Note_on_c, 0, 74, 81
2, 8339, Note_on_c, 0, 66, 72
2, 8400, Note_on_c, 0, 66, 0
2, 8400, Note_on_c, 0, 74, 0
2, 8400, Note_on_c, 0, 68, 64
2, 8400, Control_c, 0, 64, 0
2, 8400, Note_on_c, 0, 63, 66
2, 8438, Note_on_c, 0, 80, 0
2, 8460, Note_on_c, 0, 68, 0
2, 8460, Note_on_c, 0, 78, 75
2, 8460, Note_on_c, 0, 70, 78
2, 8519, Note_on_c, 0, 70, 0
2, 8519, Note_on_c, 0, 72, 81
2, 8580, Note_on_c, 0, 72, 0
2, 8580, Note_on_c, 0, 66, 67
2, 8618, Note_on_c, 0, 78, 0
2, 8640, Note_on_c, 0, 66, 0
2, 8640, Note_on_c, 0, 63, 0
2, 8640, Note_on_c, 0, 80, 81
2, 8640, Note_on_c, 0, 77, 95
2, 8640, Control_c, 0, 64, 127
2, 8640, Note_on_c, 0, 38, 58
2, 8699, Note_on_c, 0, 38, 0
2, 8699, Note_on_c, 0, 77, 0
2, 8699, Note_on_c, 0, 74, 71
2, 8699, Note_on_c, 0, 46, 76
2, 8760, Note_on_c, 0, 46, 0
2, 8760, Note_on_c, 0, 74, 0
2, 8760, Note_on_c, 0, 68, 61
2, 8760, Note_on_c, 0, 53, 84
2, 8798, Note_on_c, 0, 80, 0
2, 8820, Note_on_c, 0, 53, 0
2, 8820, Note_on_c, 0, 68, 0
2, 8820, Note_on_c, 0, 82, 89
2, 8820, Note_on_c, 0, 77, 90
2, 8820, Note_on_c, 0, 56, 77
2, 8879, Note_on_c, 0, 56, 0
2, 8879, Note_on_c, 0, 77, 0
2, 8879, Note_on_c, 0, 74, 71
2, 8879, Note_on_c, 0, 62, 81
2, 8940, Note_on_c, 0, 62, 0
2, 8940, Note_on_c, 0, 74, 0
2, 8940, Note_on_c, 0, 70, 64
2, 8940, Note_on_c, 0, 65, 83
2, 8978, Note_on_c, 0, 82, 0
2, 9000, Note_on_c, 0, 65, 0
2, 9000, Note_on_c, 0, 70, 0
2, 9000, Note_on_c, 0, 74, 73
2, 9000, Note_on_c, 0, 78, 73
2, 9000, Note_on_c, 0, 71, 79
2, 9000, Control_c, 0, 64, 0
2, 9000, Note_on_c, 0, 65, 69
2, 9059, Note_on_c, 0, 71, 0
2, 9059, Note_on_c, 0, 70, 70
2, 9090, Note_on_c, 0, 65, 0
2, 9090, Note_on_c, 0, 62, 68
2, 9120, Note_on_c, 0, 70, 0
2, 9120, Note_on_c, 0, 66, 66
2, 9158, Note_on_c, 0, 74, 0
2, 9158, Note_on_c, 0, 78, 0
2, 9180, Note_on_c, 0, 66, 0
2, 9180, Note_on_c, 0, 77, 74
2, 9180, Note_on_c, 0, 74, 86
2, 9239, Note_on_c, 0, 74, 0
2, 9239, Note_on_c, 0, 70, 69
2, 9300, Note_on_c, 0, 70, 0
2, 9300, Note_on_c, 0, 65, 63
2, 9338, Note_on_c, 0, 77, 0
2, 9360, Note_on_c, 0, 65, 0
2, 9360, Note_on_c, 0, 62, 0
2, 9360, Note_on_c, 0, 77, 76
2, 9360, Note_on_c, 0, 66, 91
2, 9360, Note_on_c, 0, 74, 91
2, 9360, Control_c, 0, 64, 127
2, 9360, Note_on_c, 0, 58, 76
2, 9390, Note_on_c, 0, 63, 76
2, 9419, Note_on_c, 0, 63, 0
2, 9419, Note_on_c, 0, 58, 0
2, 9419, Note_on_c, 0, 39, 63
2, 9450, Note_on_c, 0, 74, 0
2, 9450, Note_on_c, 0, 66, 0
2, 9450, Note_on_c, 0, 72, 72
2, 9480, Note_on_c, 0, 39, 0
2, 9480, Note_on_c, 0, 46, 80
2, 9518, Note_on_c, 0, 77, 0
2, 9540, Note_on_c, 0, 46, 0
2, 9540, Note_on_c, 0, 72, 0
2, 9540, Note_on_c, 0, 75, 80
2, 9540, Note_on_c, 0, 72, 80
2, 9540, Note_on_c, 0, 51, 80
2, 9599, Note_on_c, 0, 51, 0
2, 9599, Note_on_c, 0, 54, 79
2, 9630, Note_on_c, 0, 72, 0
2, 9630, Note_on_c, 0, 70, 70
2, 9660, Note_on_c, 0, 54, 0
2, 9660, Note_on_c, 0, 58, 73
2, 9698, Note_on_c, 0, 75, 0
2, 9720, Note_on_c, 0, 58, 0
2, 9720, Note_on_c, 0, 70, 0
2, 9720, Note_on_c, 0, 74, 77
2, 9720, Note_on_c, 0, 70, 78
2, 9720, Note_on_c, 0, 60, 73
2, 9779, Note_on_c, 0, 60, 0
2, 9779, Note_on_c, 0, 58, 68
2, 9810, Note_on_c, 0, 70, 0
2, 9810, Note_on_c, 0, 68, 70
2, 9878, Note_on_c, 0, 74, 0
2, 9900, Note_on_c, 0, 68, 0
2, 9900, Note_on_c, 0, 75, 80
2, 9900, Note_on_c, 0, 70, 77
2, 9959, Note_on_c, 0, 58, 0
2, 9959, Note_on_c, 0, 46, 65
2, 9990, Note_on_c, 0, 70, 0
2, 9990, Note_on_c, 0, 66, 64
2, 10020, Note_on_c, 0, 46, 0
2, 10020, Control_c, 0, 64, 0
2, 10020, Note_on_c, 0, 39, 61
2, 10058, Note_on_c, 0, 75, 0
2, 10080, Note_on_c, 0, 39, 0
2, 10080, Note_on_c, 0, 66, 0
2, 10080, Note_on_c, 0, 74, 81
2, 10080, Note_on_c, 0, 70, 83
2, 10080, Note_on_c, 0, 41, 78
2, 10080, Note_on_c, 0, 50, 78
2, 10139, Note_on_c, 0, 70, 0
2, 10139, Note_on_c, 0, 65, 62
2, 10200, Note_on_c, 0, 65, 0
2, 10200, Note_on_c, 0, 67, 80
2, 10260, Note_on_c, 0, 67, 0
2, 10260, Note_on_c, 0, 62, 60
2, 10319, Note_on_c, 0, 62, 0
2, 10319, Note_on_c, 0, 58, 67
2, 10380, Note_on_c, 0, 58, 0
2, 10380, Note_on_c, 0, 60, 83
2, 10397, Note_on_c, 0, 74, 0
2, 10440, Note_on_c, 0, 74, 87
2, 10440, Note_on_c, 0, 77, 87
2, 10499, Note_on_c, 0, 60, 0
2, 10499, Note_on_c, 0, 70, 92
2, 10560, Note_on_c, 0, 70, 0
2, 10560, Note_on_c, 0, 72, 83
2, 10620, Note_on_c, 0, 72, 0
2, 10620, Note_on_c, 0, 67, 67
2, 10679, Note_on_c, 0, 67, 0
2, 10679, Note_on_c, 0, 62, 63
2, 10740, Note_on_c, 0, 62, 0
2, 10740, Note_on_c, 0, 65, 83
2, 10757, Note_on_c, 0, 74, 0
2, 10757, Note_on_c, 0, 77, 0
2, 10800, Note_on_c, 0, 50, 0
2, 10800, Note_on_c, 0, 41, 0
2, 10800, Note_on_c, 0, 65, 0
2, 10800, Note_on_c, 0, 59, 87
2, 10800, Note_on_c, 0, 63, 87
2, 10800, Note_on_c, 0, 66, 87
2, 10800, Control_c, 0, 64, 127
2, 10800, Note_on_c, 0, 41, 61
2, 10859, Note_on_c, 0, 41, 0
2, 10859, Note_on_c, 0, 51, 75
2, 10920, Note_on_c, 0, 51, 0
2, 10920, Note_on_c, 0, 54, 74
2, 10980, Note_on_c, 0, 54, 0
2, 10980, Note_on_c, 0, 59, 0
2, 10980, Note_on_c, 0, 63, 0
2, 10980, Note_on_c, 0, 66, 0
2, 10980, Note_on_c, 0, 75, 78
2, 10980, Note_on_c, 0, 71, 84
2, 10980, Control_c, 0, 64, 0
2, 10980, Note_on_c, 0, 59, 77
2, 11039, Note_on_c, 0, 71, 0
2, 11039, Note_on_c, 0, 66, 68
2, 11100, Note_on_c, 0, 66, 0
2, 11100, Note_on_c, 0, 63, 68
2, 11138, Note_on_c, 0, 75, 0
2, 11160, Note_on_c, 0, 63, 0
2, 11160, Note_on_c, 0, 59, 0
2, 11160, Note_on_c, 0, 78, 85
2, 11160, Note_on_c, 0, 75, 97
2, 11160, Note_on_c, 0, 63, 81
2, 11219, Note_on_c, 0, 75, 0
2, 11219, Note_on_c, 0, 70, 68
2, 11219, Note_on_c, 0, 58, 65
2, 11280, Note_on_c, 0, 58, 0
2, 11280, Note_on_c, 0, 70, 0
2, 11280, Note_on_c, 0, 66, 68
2, 11280, Note_on_c, 0, 54, 68
2, 11318, Note_on_c, 0, 78, 0
2, 11340, Note_on_c, 0, 54, 0
2, 11340, Note_on_c, 0, 66, 0
2, 11340, Note_on_c, 0, 80, 84
2, 11340, Note_on_c, 0, 75, 93
2, 11340, Control_c, 0, 64, 127
2, 11340, Note_on_c, 0, 48, 68
2, 11399, Note_on_c, 0, 75, 0
2, 11399, Note_on_c, 0, 72, 73
2, 11460, Note_on_c, 0, 72, 0
2, 11460, Note_on_c, 0, 68, 65
2, 11498, Note_on_c, 0, 80, 0
2, 11520, Note_on_c, 0, 48, 0
2, 11520, Note_on_c, 0, 63, 0
2, 11520, Note_on_c, 0, 68, 0
2, 11520, Note_on_c, 0, 77, 78
2, 11520, Note_on_c, 0, 74, 86
2, 11520, Control_c, 0, 64, 0
2, 11520, Control_c, 0, 64, 127
2, 11520, Note_on_c, 0, 62, 66
2, 11579, Note_on_c, 0, 74, 0
2, 11579, Note_on_c, 0, 70, 76
2, 11610, Note_on_c, 0, 53, 67
2, 11640, Note_on_c, 0, 70, 0
2, 11640, Note_on_c, 0, 65, 64
2, 11678, Note_on_c, 0, 77, 0
2, 11700, Note_on_c, 0, 53, 0
2, 11700, Note_on_c, 0, 62, 0
2, 11700, Note_on_c, 0, 65, 0
2, 11700, Note_on_c, 0, 75, 80
2, 11700, Note_on_c, 0, 72, 85
2, 11700, Note_on_c, 0, 62, 68
2, 11700, Note_on_c, 0, 50, 71
2, 11759, Note_on_c, 0, 62, 0
2, 11759, Note_on_c, 0, 72, 0
2, 11759, Note_on_c, 0, 70, 72
2, 11759, Control_c, 0, 64, 0
2, 11759, Note_on_c, 0, 60, 65
2, 11820, Note_on_c, 0, 70, 0
2, 11820, Note_on_c, 0, 63, 64
2, 11858, Note_on_c, 0, 75, 0
2, 11880, Note_on_c, 0, 60, 0
2, 11880, Note_on_c, 0, 50, 0
2, 11880, Note_on_c, 0, 63, 0
2, 11880, Note_on_c, 0, 77, 83
2, 11880, Note_on_c, 0, 74, 95
2, 11880, Control_c, 0, 64, 127
2, 11880, Note_on_c, 0, 59, 67
2, 11939, Note_on_c, 0, 74, 0
2, 11939, Note_on_c, 0, 71, 79
2, 11939, Note_on_c, 0, 53, 68
2, 12000, Note_on_c, 0, 53, 0
2, 12000, Note_on_c, 0, 71, 0
2, 12000, Note_on_c, 0, 65, 63
2, 12000, Control_c, 0, 64, 0
2, 12000, Note_on_c, 0, 50, 70
2, 12060, Note_on_c, 0, 50, 0
2, 12060, Note_on_c, 0, 65, 0
2, 12060, Note_on_c, 0, 68, 86
2, 12060, Note_on_c, 0, 43, 66
2, 12119, Note_on_c, 0, 43, 0
2, 12119, Note_on_c, 0, 68, 0
2, 12119, Note_on_c, 0, 67, 75
2, 12119, Note_on_c, 0, 50, 82
2, 12180, Note_on_c, 0, 50, 0
2, 12180, Note_on_c, 0, 67, 0
2, 12180, Note_on_c, 0, 77, 0
2, 12180, Note_on_c, 0, 79, 93
2, 12180, Note_on_c, 0, 74, 92
2, 12180, Control_c, 0, 64, 127
2, 12180, Note_on_c, 0, 53, 79
2, 12232, Note_on_c, 0, 79, 0
2, 12240, Note_on_c, 0, 59, 0
2, 12240, Note_on_c, 0, 74, 0
2, 12240, Note_on_c, 0, 53, 0
2, 12240, Note_on_c, 0, 75, 88
2, 12240, Note_on_c, 0, 79, 88
2, 12240, Note_on_c, 0, 58, 74
2, 12299, Note_on_c, 0, 51, 70
2, 12330, Note_on_c, 0, 72, 71
2, 12330, Note_on_c, 0, 75, 71
2, 12360, Note_on_c, 0, 51, 0
2, 12360, Note_on_c, 0, 48, 72
2, 12398, Note_on_c, 0, 79, 0
2, 12398, Note_on_c, 0, 75, 0
2, 12420, Note_on_c, 0, 72, 0
2, 12420, Note_on_c, 0, 75, 0
2, 12420, Note_on_c, 0, 48, 0
2, 12420, Note_on_c, 0, 70, 72
2, 12420, Note_on_c, 0, 74, 72
2, 12420, Note_on_c, 0, 41, 65
2, 12479, Note_on_c, 0, 41, 0
2, 12479, Note_on_c, 0, 48, 82
2, 12510, Note_on_c, 0, 67, 68
2, 12510, Note_on_c, 0, 70, 68
2, 12540, Note_on_c, 0, 48, 0
2, 12540, Control_c, 0, 64, 0
2, 12540, Note_on_c, 0, 51, 81
2, 12578, Note_on_c, 0, 74, 0
2, 12578, Note_on_c, 0, 70, 0
2, 12600, Note_on_c, 0, 67, 0
2, 12600, Note_on_c, 0, 58, 0
2, 12600, Note_on_c, 0, 51, 0
2, 12600, Note_on_c, 0, 70, 0
2, 12600, Note_on_c, 0, 72, 83
2, 12600, Note_on_c, 0, 75, 83
2, 12600, Control_c, 0, 64, 127
2, 12600, Note_on_c, 0, 57, 66
2, 12659, Note_on_c, 0, 51, 68
2, 12690, Note_on_c, 0, 69, 69
2, 12690, Note_on_c, 0, 72, 69
2, 12720, Note_on_c, 0, 51, 0
2, 12720, Note_on_c, 0, 48, 76
2, 12758, Note_on_c, 0, 75, 0
2, 12758, Note_on_c, 0, 72, 0
2, 12780, Note_on_c, 0, 69, 0
2, 12780, Note_on_c, 0, 72, 0
2, 12780, Note_on_c, 0, 48, 0
2, 12780, Note_on_c, 0, 72, 87
2, 12780, Note_on_c, 0, 77, 87
2, 12780, Note_on_c, 0, 41, 68
2, 12839, Note_on_c, 0, 41, 0
2, 12839, Note_on_c, 0, 48, 81
2, 12870, Note_on_c, 0, 65, 67
2, 12870, Note_on_c, 0, 69, 67
2, 12900, Note_on_c, 0, 48, 0
2, 12900, Control_c, 0, 64, 0
2, 12900, Note_on_c, 0, 51, 81
2, 12938, Note_on_c, 0, 77, 0
2, 12938, Note_on_c, 0, 72, 0
2, 12960, Note_on_c, 0, 65, 0
2, 12960, Note_on_c, 0, 57, 0
2, 12960, Note_on_c, 0, 51, 0
2, 12960, Note_on_c, 0, 69, 0
2, 12960, Note_on_c, 0, 74, 74
2, 12960, Note_on_c, 0, 70, 82
2, 12960, Control_c, 0, 64, 127
2, 12960, Note_on_c, 0, 58, 74
2, 13019, Note_on_c, 0, 70, 0
2, 13019, Note_on_c, 0, 62, 60
2, 13080, Note_on_c, 0, 62, 0
2, 13080, Note_on_c, 0, 70, 89
2, 13140, Note_on_c, 0, 70, 0
2, 13140, Note_on_c, 0, 58, 0
2, 13140, Note_on_c, 0, 74, 87
2, 13140, Note_on_c, 0, 34, 56
2, 13140, Note_on_c, 0, 46, 56
2, 13199, Note_on_c, 0, 74, 0
2, 13199, Note_on_c, 0, 70, 68
2, 13260, Note_on_c, 0, 70, 0
2, 13260, Note_on_c, 0, 74, 84
2, 13277, Note_on_c, 0, 74, 0
2, 13320, Note_on_c, 0, 46, 0
2, 13320, Note_on_c, 0, 34, 0
2, 13320, Note_on_c, 0, 74, 0
2, 13320, Note_on_c, 0, 82, 88
2, 13320, Note_on_c, 0, 50, 73
2, 13379, Note_on_c, 0, 82, 0
2, 13379, Note_on_c, 0, 74, 67
2, 13440, Note_on_c, 0, 74, 0
2, 13440, Note_on_c, 0, 70, 70
2, 13500, Note_on_c, 0, 70, 0
2, 13500, Note_on_c, 0, 50, 0
2, 13500, Note_on_c, 0, 74, 80
2, 13500, Note_on_c, 0, 58, 75
2, 13559, Note_on_c, 0, 74, 0
2, 13559, Note_on_c, 0, 70, 65
2, 13620, Note_on_c, 0, 70, 0
2, 13620, Note_on_c, 0, 62, 61
2, 13680, Note_on_c, 0, 62, 0
2, 13680, Note_on_c, 0, 58, 0
2, 13680, Note_on_c, 0, 46, 50
2, 13680, Control_c, 0, 64, 0
2, 13706, Note_on_c, 0, 46, 0
2, 13706, Note_on_c, 0, 53, 63
2, 13731, Note_on_c, 0, 53, 0
2, 13731, Note_on_c, 0, 58, 66
2, 13756, Note_on_c, 0, 58, 0
2, 13756, Note_on_c, 0, 62, 64
2, 13783, Note_on_c, 0, 62, 0
2, 13783, Note_on_c, 0, 65, 65
2, 13808, Note_on_c, 0, 65, 0
2, 13808, Note_on_c, 0, 67, 64
2, 13833, Note_on_c, 0, 67, 0
2, 13833, Note_on_c, 0, 70, 65
2, 13860, Note_on_c, 0, 70, 0
2, 13860, Note_on_c, 0, 74, 103
2, 13886, Note_on_c, 0, 77, 52
2, 13911, Note_on_c, 0, 77, 0
2, 13911, Note_on_c, 0, 79, 65
2, 13936, Note_on_c, 0, 79, 0
2, 13936, Note_on_c, 0, 82, 64
2, 13963, Note_on_c, 0, 82, 0
2, 13963, Note_on_c, 0, 86, 68
2, 13988, Note_on_c, 0, 86, 0
2, 13988, Note_on_c, 0, 82, 54
2, 14013, Note_on_c, 0, 82, 0
2, 14013, Note_on_c, 0, 79, 53
2, 14040, Note_on_c, 0, 79, 0
2, 14040, Note_on_c, 0, 74, 0
2, 14040, Note_on_c, 0, 75, 107
2, 14040, Note_on_c, 0, 65, 41
2, 14066, Note_on_c, 0, 65, 0
2, 14066, Note_on_c, 0, 58, 49
2, 14091, Note_on_c, 0, 58, 0
2, 14091, Note_on_c, 0, 62, 71
2, 14116, Note_on_c, 0, 62, 0
2, 14116, Note_on_c, 0, 65, 66
2, 14143, Note_on_c, 0, 65, 0
2, 14143, Note_on_c, 0, 67, 66
2, 14168, Note_on_c, 0, 67, 0
2, 14168, Note_on_c, 0, 70, 69
2, 14193, Note_on_c, 0, 70, 0
2, 14193, Note_on_c, 0, 72, 65
2, 14220, Note_on_c, 0, 72, 0
2, 14220, Note_on_c, 0, 75, 0
2, 14220, Note_on_c, 0, 77, 110
2, 14246, Note_on_c, 0, 79, 59
2, 14271, Note_on_c, 0, 79, 0
2, 14271, Note_on_c, 0, 82, 63
2, 14296, Note_on_c, 0, 82, 0
2, 14296, Note_on_c, 0, 84, 60
2, 14323, Note_on_c, 0, 84, 0
2, 14323, Note_on_c, 0, 89, 70
2, 14348, Note_on_c, 0, 89, 0
2, 14348, Note_on_c, 0, 84, 54
2, 14373, Note_on_c, 0, 84, 0
2, 14373, Note_on_c, 0, 82, 55
2, 14400, Note_on_c, 0, 82, 0
2, 14400, Note_on_c, 0, 77, 0
2, 14400, Note_on_c, 0, 78, 116
2, 14400, Note_on_c, 0, 45, 52
2, 14426, Note_on_c, 0, 45, 0
2, 14426, Note_on_c, 0, 50, 63
2, 14451, Note_on_c, 0, 50, 0
2, 14451, Note_on_c, 0, 54, 62
2, 14476, Note_on_c, 0, 54, 0
2, 14476, Note_on_c, 0, 60, 70
2, 14503, Note_on_c, 0, 60, 0
2, 14503, Note_on_c, 0, 65, 71
2, 14528, Note_on_c, 0, 65, 0
2, 14528, Note_on_c, 0, 66, 61
2, 14553, Note_on_c, 0, 66, 0
2, 14553, Note_on_c, 0, 69, 71
2, 14580, Note_on_c, 0, 69, 0
2, 14580, Note_on_c, 0, 78, 0
2, 14580, Note_on_c, 0, 74, 101
2, 14606, Note_on_c, 0, 77, 53
2, 14631, Note_on_c, 0, 77, 0
2, 14631, Note_on_c, 0, 78, 66
2, 14656, Note_on_c, 0, 78, 0
2, 14656, Note_on_c, 0, 81, 66
2, 14683, Note_on_c, 0, 81, 0
2, 14683, Note_on_c, 0, 86, 72
2, 14708, Note_on_c, 0, 86, 0
2, 14708, Note_on_c, 0, 81, 56
2, 14733, Note_on_c, 0, 81, 0
2, 14733, Note_on_c, 0, 78, 55
2, 14760, Note_on_c, 0, 78, 0
2, 14760, Note_on_c, 0, 74, 0
2, 14760, Note_on_c, 0, 76, 107
2, 14760, Note_on_c, 0, 54, 51
2, 14786, Note_on_c, 0, 54, 0
2, 14786, Note_on_c, 0, 57, 66
2, 14811, Note_on_c, 0, 57, 0
2, 14811, Note_on_c, 0, 60, 67
2, 14836, Note_on_c, 0, 60, 0
2, 14836, Note_on_c, 0, 62, 65
2, 14863, Note_on_c, 0, 62, 0
2, 14863, Note_on_c, 0, 69, 75
2, 14888, Note_on_c, 0, 69, 0
2, 14888, Note_on_c, 0, 72, 67
2, 14913, Note_on_c, 0, 72, 0
2, 14913, Note_on_c, 0, 74, 64
2, 14940, Note_on_c, 0, 74, 0
2, 14940, Note_on_c, 0, 76, 0
2, 14940, Note_on_c, 0, 78, 114
2, 14966, Note_on_c, 0, 81, 50
2, 14991, Note_on_c, 0, 81, 0
2, 14991, Note_on_c, 0, 84, 62
2, 15016, Note_on_c, 0, 84, 0
2, 15016, Note_on_c, 0, 86, 64
2, 15043, Note_on_c, 0, 86, 0
2, 15043, Note_on_c, 0, 90, 64
2, 15068, Note_on_c, 0, 90, 0
2, 15068, Note_on_c, 0, 86, 57
2, 15093, Note_on_c, 0, 86, 0
2, 15093, Note_on_c, 0, 84, 55
2, 15120, Note_on_c, 0, 84, 0
2, 15120, Note_on_c, 0, 78, 0
2, 15120, Note_on_c, 0, 79, 108
2, 15120, Note_on_c, 0, 55, 53
2, 15146, Note_on_c, 0, 55, 0
2, 15146, Note_on_c, 0, 58, 60
2, 15171, Note_on_c, 0, 58, 0
2, 15171, Note_on_c, 0, 62, 71
2, 15196, Note_on_c, 0, 62, 0
2, 15196, Note_on_c, 0, 64, 68
2, 15223, Note_on_c, 0, 64, 0
2, 15223, Note_on_c, 0, 70, 70
2, 15248, Note_on_c, 0, 70, 0
2, 15248, Note_on_c, 0, 74, 70
2, 15273, Note_on_c, 0, 74, 0
2, 15273, Note_on_c, 0, 77, 68
2, 15300, Note_on_c, 0, 77, 0
2, 15300, Note_on_c, 0, 79, 0
2, 15300, Note_on_c, 0, 81, 115
2, 15326, Note_on_c, 0, 82, 54
2, 15351, Note_on_c, 0, 82, 0
2, 15351, Note_on_c, 0, 84, 66
2, 15376, Note_on_c, 0, 84, 0
2, 15376, Note_on_c, 0, 88, 71
2, 15403, Note_on_c, 0, 88, 0
2, 15403, Note_on_c, 0, 93, 68
2, 15428, Note_on_c, 0, 93, 0
2, 15428, Note_on_c, 0, 88, 51
2, 15453, Note_on_c, 0, 88, 0
2, 15453, Note_on_c, 0, 86, 52
2, 15480, Note_on_c, 0, 86, 0
2, 15480, Note_on_c, 0, 81, 0
2, 15480, Note_on_c, 0, 82, 105
2, 15480, Note_on_c, 0, 62, 42
2, 15506, Note_on_c, 0, 62, 0
2, 15506, Note_on_c, 0, 64, 62
2, 15531, Note_on_c, 0, 64, 0
2, 15531, Note_on_c, 0, 67, 63
2, 15556, Note_on_c, 0, 67, 0
2, 15556, Note_on_c, 0, 70, 69
2, 15583, Note_on_c, 0, 70, 0
2, 15583, Note_on_c, 0, 74, 70
2, 15608, Note_on_c, 0, 74, 0
2, 15608, Note_on_c, 0, 77, 66
2, 15633, Note_on_c, 0, 77, 0
2, 15633, Note_on_c, 0, 79, 63
2, 15660, Note_on_c, 0, 79, 0
2, 15660, Note_on_c, 0, 82, 0
2, 15660, Note_on_c, 0, 84, 118
2, 15686, Note_on_c, 0, 88, 52
2, 15711, Note_on_c, 0, 88, 0
2, 15711, Note_on_c, 0, 91, 61
2, 15736, Note_on_c, 0, 91, 0
2, 15736, Note_on_c, 0, 94, 68
2, 15763, Note_on_c, 0, 94, 0
2, 15763, Note_on_c, 0, 96, 65
2, 15788, Note_on_c, 0, 96, 0
2, 15788, Note_on_c, 0, 94, 57
2, 15813, Note_on_c, 0, 94, 0
2, 15813, Note_on_c, 0, 91, 58
2, 15840, Note_on_c, 0, 91, 0
2, 15840, Note_on_c, 0, 84, 0
2, 15840, Note_on_c, 0, 86, 110
2, 15840, Control_c, 0, 64, 127
2, 15840, Note_on_c, 0, 38, 65
2, 15899, Note_on_c, 0, 38, 0
2, 15899, Note_on_c, 0, 45, 73
2, 15960, Note_on_c, 0, 45, 0
2, 15960, Note_on_c, 0, 50, 78
2, 16020, Note_on_c, 0, 50, 0
2, 16020, Note_on_c, 0, 86, 52
2, 16020, Note_on_c, 0, 93, 52
2, 16020, Control_c, 0, 64, 0
2, 16020, Note_on_c, 0, 54, 89
2, 16020, Note_on_c, 0, 60, 89
2, 16020, Note_on_c, 0, 62, 89
2, 16020, Note_on_c, 0, 69, 89
2, 16050, Note_on_c, 0, 93, 0
2, 16050, Note_on_c, 0, 86, 0
2, 16050, Note_on_c, 0, 87, 49
2, 16079, Note_on_c, 0, 87, 0
2, 16079, Note_on_c, 0, 86, 52
2, 16110, Note_on_c, 0, 86, 0
2, 16110, Note_on_c, 0, 84, 55
2, 16140, Note_on_c, 0, 84, 0
2, 16140, Note_on_c, 0, 81, 53
2, 16169, Note_on_c, 0, 81, 0
2, 16169, Note_on_c, 0, 78, 51
2, 16200, Note_on_c, 0, 78, 0
2, 16200, Note_on_c, 0, 86, 0
2, 16200, Note_on_c, 0, 86, 97
2, 16200, Note_on_c, 0, 81, 63
2, 16230, Note_on_c, 0, 81, 0
2, 16230, Note_on_c, 0, 82, 65
2, 16259, Note_on_c, 0, 82, 0
2, 16259, Note_on_c, 0, 81, 58
2, 16290, Note_on_c, 0, 81, 0
2, 16290, Note_on_c, 0, 78, 55
2, 16320, Note_on_c, 0, 78, 0
2, 16320, Note_on_c, 0, 74, 53
2, 16349, Note_on_c, 0, 74, 0
2, 16349, Note_on_c, 0, 78, 63
2, 16358, Note_on_c, 0, 86, 0
2, 16380, Note_on_c, 0, 78, 0
2, 16380, Note_on_c, 0, 86, 93
2, 16380, Note_on_c, 0, 81, 64
2, 16410, Note_on_c, 0, 81, 0
2, 16410, Note_on_c, 0, 82, 67
2, 16439, Note_on_c, 0, 82, 0
2, 16439, Note_on_c, 0, 81, 60
2, 16470, Note_on_c, 0, 81, 0
2, 16470, Note_on_c, 0, 78, 53
2, 16500, Note_on_c, 0, 78, 0
2, 16500, Note_on_c, 0, 72, 53
2, 16529, Note_on_c, 0, 72, 0
2, 16529, Note_on_c, 0, 74, 62
2, 16538, Note_on_c, 0, 74, 0
2, 16538, Note_on_c, 0, 86, 0
2, 16538, Note_on_c, 0, 78, 71
2, 16560, Note_on_c, 0, 60, 0
2, 16560, Note_on_c, 0, 62, 0
2, 16560, Note_on_c, 0, 54, 0
2, 16560, Note_on_c, 0, 69, 0
2, 16560, Note_on_c, 0, 86, 95
2, 16560, Note_on_c, 0, 69, 70
2, 16619, Note_on_c, 0, 69, 0
2, 16619, Note_on_c, 0, 66, 63
2, 16650, Note_on_c, 0, 78, 0
2, 16650, Note_on_c, 0, 78, 0
2, 16650, Note_on_c, 0, 78, 0
2, 16650, Note_on_c, 0, 77, 56
2, 16680, Note_on_c, 0, 66, 0
2, 16680, Note_on_c, 0, 62, 59
2, 16718, Note_on_c, 0, 86, 0
2, 16740, Note_on_c, 0, 62, 0
2, 16740, Note_on_c, 0, 77, 0
2, 16740, Note_on_c, 0, 85, 91
2, 16740, Note_on_c, 0, 76, 56
2, 16740, Note_on_c, 0, 66, 76
2, 16799, Note_on_c, 0, 66, 0
2, 16799, Note_on_c, 0, 62, 67
2, 16830, Note_on_c, 0, 76, 0
2, 16830, Note_on_c, 0, 75, 57
2, 16860, Note_on_c, 0, 62, 0
2, 16860, Note_on_c, 0, 58, 67
2, 16898, Note_on_c, 0, 85, 0
2, 16920, Note_on_c, 0, 58, 0
2, 16920, Note_on_c, 0, 75, 0
2, 16920, Note_on_c, 0, 82, 87
2, 16920, Note_on_c, 0, 74, 56
2, 16920, Note_on_c, 0, 62, 78
2, 16979, Note_on_c, 0, 62, 0
2, 16979, Note_on_c, 0, 58, 67
2, 17010, Note_on_c, 0, 74, 0
2, 17010, Note_on_c, 0, 75, 61
2, 17040, Note_on_c, 0, 58, 0
2, 17040, Note_on_c, 0, 54, 69
2, 17078, Note_on_c, 0, 82, 0
2, 17100, Note_on_c, 0, 54, 0
2, 17100, Note_on_c, 0, 75, 0
2, 17100, Note_on_c, 0, 85, 98
2, 17100, Note_on_c, 0, 76, 57
2, 17100, Note_on_c, 0, 58, 75
2, 17159, Note_on_c, 0, 58, 0
2, 17159, Note_on_c, 0, 54, 63
2, 17190, Note_on_c, 0, 76, 0
2, 17190, Note_on_c, 0, 77, 65
2, 17220, Note_on_c, 0, 54, 0
2, 17220, Note_on_c, 0, 50, 67
2, 17258, Note_on_c, 0, 85, 0
2, 17280, Note_on_c, 0, 50, 0
2, 17280, Note_on_c, 0, 77, 0
2, 17280, Note_on_c, 0, 86, 119
2, 17280, Note_on_c, 0, 78, 64
2, 17280, Note_on_c, 0, 54, 83
2, 17339, Note_on_c, 0, 54, 0
2, 17339, Note_on_c, 0, 59, 83
2, 17370, Note_on_c, 0, 78, 0
2, 17370, Note_on_c, 0, 74, 51
2, 17400, Note_on_c, 0, 59, 0
2, 17400, Note_on_c, 0, 62, 87
2, 17460, Note_on_c, 0, 62, 0
2, 17460, Note_on_c, 0, 74, 0
2, 17460, Note_on_c, 0, 88, 76
2, 17460, Note_on_c, 0, 90, 76
2, 17460, Note_on_c, 0, 95, 76
2, 17460, Note_on_c, 0, 74, 61
2, 17519, Note_on_c, 0, 66, 63
2, 17550, Note_on_c, 0, 95, 0
2, 17550, Note_on_c, 0, 90, 0
2, 17550, Note_on_c, 0, 88, 0
2, 17550, Note_on_c, 0, 86, 48
2, 17580, Note_on_c, 0, 66, 0
2, 17580, Note_on_c, 0, 62, 67
2, 17640, Note_on_c, 0, 62, 0
2, 17640, Note_on_c, 0, 86, 0
2, 17640, Note_on_c, 0, 74, 0
2, 17640, Note_on_c, 0, 85, 62
2, 17640, Note_on_c, 0, 86, 62
2, 17640, Note_on_c, 0, 90, 62
2, 17640, Note_on_c, 0, 73, 65
2, 17699, Note_on_c, 0, 66, 69
2, 17730, Note_on_c, 0, 90, 0
2, 17730, Note_on_c, 0, 85, 0
2, 17730, Note_on_c, 0, 86, 0
2, 17730, Note_on_c, 0, 83, 47
2, 17754, Note_on_c, 0, 86, 0
2, 17760, Note_on_c, 0, 66, 0
2, 17760, Note_on_c, 0, 62, 69
2, 17820, Note_on_c, 0, 62, 0
2, 17820, Note_on_c, 0, 73, 0
2, 17820, Note_on_c, 0, 83, 0
2, 17820, Note_on_c, 0, 86, 112
2, 17820, Note_on_c, 0, 78, 57
2, 17820, Note_on_c, 0, 83, 57
2, 17820, Note_on_c, 0, 71, 66
2, 17879, Note_on_c, 0, 66, 68
2, 17910, Note_on_c, 0, 83, 0
2, 17910, Note_on_c, 0, 78, 0
2, 17910, Note_on_c, 0, 74, 49
2, 17940, Note_on_c, 0, 66, 0
2, 17940, Note_on_c, 0, 62, 69
2, 17978, Note_on_c, 0, 86, 0
2, 18000, Note_on_c, 0, 74, 0
2, 18000, Note_on_c, 0, 71, 0
2, 18000, Note_on_c, 0, 62, 0
2, 18000, Note_on_c, 0, 86, 111
2, 18000, Note_on_c, 0, 78, 65
2, 18000, Note_on_c, 0, 72, 74
2, 18059, Note_on_c, 0, 45, 66
2, 18090, Note_on_c, 0, 78, 0
2, 18090, Note_on_c, 0, 77, 57
2, 18120, Note_on_c, 0, 45, 0
2, 18120, Note_on_c, 0, 54, 81
2, 18158, Note_on_c, 0, 86, 0
2, 18180, Note_on_c, 0, 77, 0
2, 18180, Note_on_c, 0, 54, 0
2, 18180, Note_on_c, 0, 84, 100
2, 18180, Note_on_c, 0, 76, 60
2, 18180, Note_on_c, 0, 60, 90
2, 18239, Note_on_c, 0, 60, 0
2, 18239, Note_on_c, 0, 62, 80
2, 18270, Note_on_c, 0, 76, 0
2, 18270, Note_on_c, 0, 77, 69
2, 18300, Note_on_c, 0, 62, 0
2, 18300, Note_on_c, 0, 66, 87
2, 18338, Note_on_c, 0, 84, 0
2, 18360, Note_on_c, 0, 77, 0
2, 18360, Note_on_c, 0, 72, 0
2, 18360, Note_on_c, 0, 66, 0
2, 18360, Note_on_c, 0, 86, 111
2, 18360, Note_on_c, 0, 78, 63
2, 18360, Note_on_c, 0, 72, 71
2, 18419, Note_on_c, 0, 66, 67
2, 18450, Note_on_c, 0, 78, 0
2, 18450, Note_on_c, 0, 79, 64
2, 18480, Note_on_c, 0, 66, 0
2, 18480, Note_on_c, 0, 62, 64
2, 18518, Note_on_c, 0, 86, 0
2, 18540, Note_on_c, 0, 79, 0
2, 18540, Note_on_c, 0, 62, 0
2, 18540, Note_on_c, 0, 90, 121
2, 18540, Note_on_c, 0, 81, 64
2, 18540, Note_on_c, 0, 60, 72
2, 18599, Note_on_c, 0, 60, 0
2, 18599, Note_on_c, 0, 54, 70
2, 18630, Note_on_c, 0, 81, 0
2, 18630, Note_on_c, 0, 82, 62
2, 18660, Note_on_c, 0, 54, 0
2, 18660, Note_on_c, 0, 50, 74
2, 18698, Note_on_c, 0, 90, 0
2, 18720, Note_on_c, 0, 82, 0
2, 18720, Note_on_c, 0, 72, 0
2, 18720, Note_on_c, 0, 50, 0
2, 18720, Note_on_c, 0, 86, 89
2, 18720, Note_on_c, 0, 83, 63
2, 18720, Control_c, 0, 64, 127
2, 18720, Note_on_c, 0, 43, 62
2, 18720, Note_on_c, 0, 50, 62
2, 18720, Note_on_c, 0, 59, 62
2, 18840, Note_on_c, 0, 83, 0
2, 18840, Note_on_c, 0, 79, 53
2, 18900, Note_on_c, 0, 79, 0
2, 18900, Note_on_c, 0, 59, 0
2, 18900, Note_on_c, 0, 50, 0
2, 18900, Note_on_c, 0, 43, 0
2, 18900, Note_on_c, 0, 81, 62
2, 18900, Note_on_c, 0, 67, 84
2, 18900, Note_on_c, 0, 72, 84
2, 18959, Note_on_c, 0, 81, 0
2, 18959, Note_on_c, 0, 76, 52
2, 19020, Note_on_c, 0, 76, 0
2, 19020, Note_on_c, 0, 81, 73
2, 19080, Note_on_c, 0, 81, 0
2, 19080, Note_on_c, 0, 72, 0
2, 19080, Note_on_c, 0, 67, 0
2, 19080, Note_on_c, 0, 74, 48
2, 19080, Note_on_c, 0, 62, 71
2, 19080, Note_on_c, 0, 71, 71
2, 19139, Note_on_c, 0, 74, 0
2, 19139, Note_on_c, 0, 76, 60
2, 19200, Note_on_c, 0, 76, 0
2, 19200, Note_on_c, 0, 71, 53
2, 19260, Note_on_c, 0, 71, 0
2, 19260, Note_on_c, 0, 71, 0
2, 19260, Note_on_c, 0, 62, 0
2, 19260, Note_on_c, 0, 74, 63
2, 19260, Control_c, 0, 64, 0
2, 19260, Note_on_c, 0, 59, 60
2, 19260, Note_on_c, 0, 67, 60
2, 19319, Note_on_c, 0, 74, 0
2, 19319, Note_on_c, 0, 67, 54
2, 19380, Note_on_c, 0, 67, 0
2, 19380, Note_on_c, 0, 69, 63
2, 19440, Note_on_c, 0, 69, 0
2, 19440, Note_on_c, 0, 67, 0
2, 19440, Note_on_c, 0, 59, 0
2, 19440, Note_on_c, 0, 86, 0
2, 19440, Note_on_c, 0, 70, 63
2, 19440, Note_on_c, 0, 55, 62
2, 19440, Note_on_c, 0, 62, 62
2, 19499, Note_on_c, 0, 70, 0
2, 19499, Note_on_c, 0, 62, 51
2, 19560, Note_on_c, 0, 62, 0
2, 19560, Note_on_c, 0, 67, 66
2, 19620, Note_on_c, 0, 67, 0
2, 19620, Note_on_c, 0, 62, 0
2, 19620, Note_on_c, 0, 55, 0
2, 19620, Note_on_c, 0, 86, 102
2, 19620, Note_on_c, 0, 82, 78
2, 19620, Control_c, 0, 64, 127
2, 19620, Note_on_c, 0, 70, 85
2, 19679, Note_on_c, 0, 82, 0
2, 19679, Note_on_c, 0, 79, 59
2, 19679, Note_on_c, 0, 62, 65
2, 19740, Note_on_c, 0, 62, 0
2, 19740, Note_on_c, 0, 79, 0
2, 19740, Note_on_c, 0, 74, 54
2, 19740, Note_on_c, 0, 58, 70
2, 19778, Note_on_c, 0, 86, 0
2, 19800, Note_on_c, 0, 70, 0
2, 19800, Note_on_c, 0, 74, 0
2, 19800, Note_on_c, 0, 58, 0
2, 19800, Note_on_c, 0, 84, 101
2, 19800, Note_on_c, 0, 81, 70
2, 19800, Note_on_c, 0, 69, 73
2, 19859, Note_on_c, 0, 81, 0
2, 19859, Note_on_c, 0, 78, 60
2, 19859, Note_on_c, 0, 62, 66
2, 19920, Note_on_c, 0, 62, 0
2, 19920, Note_on_c, 0, 78, 0
2, 19920, Note_on_c, 0, 72, 50
2, 19920, Note_on_c, 0, 58, 68
2, 19958, Note_on_c, 0, 84, 0
2, 19980, Note_on_c, 0, 69, 0
2, 19980, Note_on_c, 0, 72, 0
2, 19980, Note_on_c, 0, 58, 0
2, 19980, Note_on_c, 0, 82, 100
2, 19980, Note_on_c, 0, 79, 76
2, 19980, Note_on_c, 0, 67, 63
2, 20039, Note_on_c, 0, 79, 0
2, 20039, Note_on_c, 0, 74, 52
2, 20039, Control_c, 0, 64, 0
2, 20039, Note_on_c, 0, 62, 66
2, 20100, Note_on_c, 0, 62, 0
2, 20100, Note_on_c, 0, 74, 0
2, 20100, Note_on_c, 0, 70, 52
2, 20100, Note_on_c, 0, 58, 70
2, 20138, Note_on_c, 0, 82, 0
2, 20160, Note_on_c, 0, 67, 0
2, 20160, Note_on_c, 0, 70, 0
2, 20160, Note_on_c, 0, 58, 0
2, 20160, Note_on_c, 0, 84, 116
2, 20160, Note_on_c, 0, 81, 74
2, 20160, Control_c, 0, 64, 127
2, 20160, Note_on_c, 0, 42, 61
2, 20219, Note_on_c, 0, 42, 0
2, 20219, Note_on_c, 0, 81, 0
2, 20219, Note_on_c, 0, 78, 57
2, 20219, Note_on_c, 0, 50, 77
2, 20280, Note_on_c, 0, 50, 0
2, 20280, Note_on_c, 0, 78, 0
2, 20280, Note_on_c, 0, 72, 45
2, 20280, Note_on_c, 0, 57, 80
2, 20318, Note_on_c, 0, 84, 0
2, 20340, Note_on_c, 0, 57, 0
2, 20340, Note_on_c, 0, 72, 0
2, 20340, Note_on_c, 0, 86, 116
2, 20340, Note_on_c, 0, 82, 70
2, 20340, Note_on_c, 0, 60, 75
2, 20399, Note_on_c, 0, 60, 0
2, 20399, Note_on_c, 0, 82, 0
2, 20399, Note_on_c, 0, 78, 55
2, 20399, Note_on_c, 0, 66, 80
2, 20460, Note_on_c, 0, 66, 0
2, 20460, Note_on_c, 0, 78, 0
2, 20460, Note_on_c, 0, 74, 53
2, 20460, Note_on_c, 0, 69, 77
2, 20498, Note_on_c, 0, 86, 0
2, 20520, Note_on_c, 0, 74, 0
2, 20520, Note_on_c, 0, 79, 100
2, 20520, Note_on_c, 0, 82, 100
2, 20520, Note_on_c, 0, 75, 63
2, 20579, Note_on_c, 0, 75, 0
2, 20579, Note_on_c, 0, 69, 0
2, 20579, Note_on_c, 0, 74, 59
2, 20579, Note_on_c, 0, 66, 65
2, 20640, Note_on_c, 0, 74, 0
2, 20640, Note_on_c, 0, 70, 53
2, 20678, Note_on_c, 0, 79, 0
2, 20678, Note_on_c, 0, 82, 0
2, 20700, Note_on_c, 0, 70, 0
2, 20700, Note_on_c, 0, 78, 102
2, 20700, Note_on_c, 0, 81, 102
2, 20700, Note_on_c, 0, 73, 69
2, 20700, Control_c, 0, 64, 0
2, 20759, Note_on_c, 0, 73, 0
2, 20759, Note_on_c, 0, 74, 65
2, 20820, Note_on_c, 0, 74, 0
2, 20820, Note_on_c, 0, 69, 52
2, 20858, Note_on_c, 0, 81, 0
2, 20858, Note_on_c, 0, 78, 0
2, 20880, Note_on_c, 0, 66, 0
2, 20880, Note_on_c, 0, 69, 0
2, 20880, Note_on_c, 0, 81, 110
2, 20880, Note_on_c, 0, 78, 75
2, 20880, Note_on_c, 0, 43, 70
2, 20915, Note_on_c, 0, 50, 70
2, 20939, Note_on_c, 0, 78, 0
2, 20939, Note_on_c, 0, 74, 57
2, 20951, Note_on_c, 0, 52, 70
2, 20985, Note_on_c, 0, 58, 70
2, 21000, Note_on_c, 0, 74, 0
2, 21000, Note_on_c, 0, 69, 52
2, 21021, Note_on_c, 0, 66, 70
2, 21038, Note_on_c, 0, 81, 0
2, 21060, Note_on_c, 0, 69, 0
2, 21060, Note_on_c, 0, 58, 0
2, 21060, Note_on_c, 0, 52, 0
2, 21060, Note_on_c, 0, 50, 0
2, 21060, Note_on_c, 0, 66, 0
2, 21060, Note_on_c, 0, 43, 0
2, 21060, Note_on_c, 0, 79, 98
2, 21060, Note_on_c, 0, 76, 72
2, 21060, Note_on_c, 0, 64, 68
2, 21119, Note_on_c, 0, 76, 0
2, 21119, Note_on_c, 0, 70, 50
2, 21180, Note_on_c, 0, 70, 0
2, 21180, Note_on_c, 0, 67, 57
2, 21218, Note_on_c, 0, 79, 0
2, 21240, Note_on_c, 0, 67, 0
2, 21240, Note_on_c, 0, 64, 0
2, 21240, Note_on_c, 0, 78, 99
2, 21240, Note_on_c, 0, 74, 69
2, 21240, Note_on_c, 0, 62, 62
2, 21299, Note_on_c, 0, 74, 0
2, 21299, Note_on_c, 0, 70, 55
2, 21360, Note_on_c, 0, 70, 0
2, 21360, Note_on_c, 0, 65, 53
2, 21398, Note_on_c, 0, 78, 0
2, 21420, Note_on_c, 0, 65, 0
2, 21420, Note_on_c, 0, 62, 0
2, 21420, Note_on_c, 0, 79, 108
2, 21420, Note_on_c, 0, 76, 73
2, 21420, Note_on_c, 0, 58, 66
2, 21479, Note_on_c, 0, 76, 0
2, 21479, Note_on_c, 0, 70, 54
2, 21540, Note_on_c, 0, 70, 0
2, 21540, Note_on_c, 0, 67, 51
2, 21578, Note_on_c, 0, 79, 0
2, 21600, Note_on_c, 0, 67, 0
2, 21600, Note_on_c, 0, 58, 0
2, 21600, Note_on_c, 0, 78, 106
2, 21600, Note_on_c, 0, 74, 69
2, 21600, Note_on_c, 0, 57, 68
2, 21600, Note_on_c, 0, 45, 70
2, 21600, Note_on_c, 0, 50, 70
2, 21600, Note_on_c, 0, 54, 70
2, 21659, Note_on_c, 0, 74, 0
2, 21659, Note_on_c, 0, 69, 57
2, 21720, Note_on_c, 0, 69, 0
2, 21720, Note_on_c, 0, 71, 66
2, 21780, Note_on_c, 0, 71, 0
2, 21780, Note_on_c, 0, 66, 55
2, 21839, Note_on_c, 0, 66, 0
2, 21839, Note_on_c, 0, 62, 50
2, 21900, Note_on_c, 0, 62, 0
2, 21900, Note_on_c, 0, 64, 63
2, 21917, Note_on_c, 0, 78, 0
2, 21960, Note_on_c, 0, 57, 0
2, 21960, Note_on_c, 0, 64, 0
2, 21960, Note_on_c, 0, 81, 114
2, 21960, Note_on_c, 0, 78, 74
2, 21960, Note_on_c, 0, 57, 71
2, 22019, Note_on_c, 0, 78, 0
2, 22019, Note_on_c, 0, 74, 55
2, 22080, Note_on_c, 0, 74, 0
2, 22080, Note_on_c, 0, 76, 65
2, 22140, Note_on_c, 0, 76, 0
2, 22140, Note_on_c, 0, 71, 49
2, 22199, Note_on_c, 0, 71, 0
2, 22199, Note_on_c, 0, 69, 52
2, 22260, Note_on_c, 0, 69, 0
2, 22260, Note_on_c, 0, 66, 56
2, 22277, Note_on_c, 0, 81, 0
2, 22320, Note_on_c, 0, 57, 0
2, 22320, Note_on_c, 0, 45, 0
2, 22320, Note_on_c, 0, 54, 0
2, 22320, Note_on_c, 0, 66, 0
2, 22320, Note_on_c, 0, 50, 0
2, 22320, Control_c, 0, 64, 127
2, 22320, Note_on_c, 0, 64, 84
2, 22320, Note_on_c, 0, 45, 82
2, 22320, Note_on_c, 0, 55, 82
2, 22320, Note_on_c, 0, 59, 82
2, 22379, Note_on_c, 0, 64, 0
2, 22379, Note_on_c, 0, 55, 59
2, 22440, Note_on_c, 0, 55, 0
2, 22440, Note_on_c, 0, 59, 74
2, 22500, Note_on_c, 0, 59, 0
2, 22500, Note_on_c, 0, 79, 102
2, 22500, Note_on_c, 0, 76, 53
2, 22500, Note_on_c, 0, 64, 77
2, 22559, Note_on_c, 0, 76, 0
2, 22559, Note_on_c, 0, 71, 51
2, 22620, Note_on_c, 0, 71, 0
2, 22620, Note_on_c, 0, 67, 55
2, 22658, Note_on_c, 0, 79, 0
2, 22680, Note_on_c, 0, 45, 0
2, 22680, Note_on_c, 0, 55, 0
2, 22680, Note_on_c, 0, 59, 0
2, 22680, Note_on_c, 0, 67, 0
2, 22680, Note_on_c, 0, 74, 103
2, 22680, Note_on_c, 0, 78, 103
2, 22680, Note_on_c, 0, 67, 55
2, 22680, Control_c, 0, 64, 0
2, 22739, Note_on_c, 0, 67, 0
2, 22739, Note_on_c, 0, 64, 0
2, 22739, Note_on_c, 0, 70, 63
2, 22739, Note_on_c, 0, 64, 67
2, 22800, Note_on_c, 0, 64, 0
2, 22800, Note_on_c, 0, 70, 0
2, 22800, Note_on_c, 0, 66, 51
2, 22800, Note_on_c, 0, 62, 68
2, 22838, Note_on_c, 0, 78, 0
2, 22838, Note_on_c, 0, 74, 0
2, 22860, Note_on_c, 0, 66, 0
2, 22860, Note_on_c, 0, 62, 0
2, 22860, Note_on_c, 0, 74, 113
2, 22860, Note_on_c, 0, 79, 113
2, 22860, Note_on_c, 0, 74, 73
2, 22860, Note_on_c, 0, 58, 69
2, 22919, Note_on_c, 0, 58, 0
2, 22919, Note_on_c, 0, 74, 0
2, 22919, Note_on_c, 0, 70, 54
2, 22919, Note_on_c, 0, 62, 75
2, 22980, Note_on_c, 0, 62, 0
2, 22980, Note_on_c, 0, 70, 0
2, 22980, Note_on_c, 0, 67, 56
2, 22980, Note_on_c, 0, 64, 75
2, 23018, Note_on_c, 0, 74, 0
2, 23018, Note_on_c, 0, 79, 0
2, 23040, Note_on_c, 0, 67, 0
2, 23040, Note_on_c, 0, 64, 0
2, 23040, Note_on_c, 0, 81, 116
2, 23040, Note_on_c, 0, 78, 75
2, 23040, Control_c, 0, 64, 127
2, 23040, Note_on_c, 0, 66, 76
2, 23040, Note_on_c, 0, 66, 91
2, 23099, Note_on_c, 0, 66, 0
2, 23099, Note_on_c, 0, 78, 0
2, 23099, Note_on_c, 0, 74, 61
2, 23099, Note_on_c, 0, 62, 68
2, 23160, Note_on_c, 0, 62, 0
2, 23160, Note_on_c, 0, 74, 0
2, 23160, Note_on_c, 0, 69, 48
2, 23160, Note_on_c, 0, 59, 69
2, 23198, Note_on_c, 0, 81, 0
2, 23220, Note_on_c, 0, 59, 0
2, 23220, Note_on_c, 0, 69, 0
2, 23220, Note_on_c, 0, 78, 101
2, 23220, Note_on_c, 0, 74, 66
2, 23220, Note_on_c, 0, 57, 72
2, 23279, Note_on_c, 0, 74, 0
2, 23279, Note_on_c, 0, 69, 59
2, 23310, Note_on_c, 0, 66, 0
2, 23310, Control_c, 0, 64, 0
2, 23310, Note_on_c, 0, 64, 65
2, 23340, Note_on_c, 0, 69, 0
2, 23340, Note_on_c, 0, 66, 57
2, 23378, Note_on_c, 0, 78, 0
2, 23400, Note_on_c, 0, 64, 0
2, 23400, Note_on_c, 0, 57, 0
2, 23400, Note_on_c, 0, 66, 0
2, 23400, Note_on_c, 0, 81, 114
2, 23400, Note_on_c, 0, 78, 79
2, 23400, Control_c, 0, 64, 127
2, 23400, Note_on_c, 0, 63, 67
2, 23459, Note_on_c, 0, 78, 0
2, 23459, Note_on_c, 0, 75, 56
2, 23459, Note_on_c, 0, 57, 65
2, 23520, Note_on_c, 0, 57, 0
2, 23520, Note_on_c, 0, 75, 0
2, 23520, Note_on_c, 0, 69, 52
2, 23520, Note_on_c, 0, 54, 75
2, 23558, Note_on_c, 0, 81, 0
2, 23580, Note_on_c, 0, 54, 0
2, 23580, Note_on_c, 0, 69, 0
2, 23580, Note_on_c, 0, 78, 114
2, 23580, Note_on_c, 0, 83, 114
2, 23580, Note_on_c, 0, 78, 68
2, 23580, Note_on_c, 0, 47, 67
2, 23639, Note_on_c, 0, 47, 0
2, 23639, Note_on_c, 0, 78, 0
2, 23639, Note_on_c, 0, 75, 61
2, 23639, Note_on_c, 0, 54, 82
2, 23700, Note_on_c, 0, 54, 0
2, 23700, Note_on_c, 0, 75, 0
2, 23700, Note_on_c, 0, 71, 51
2, 23700, Note_on_c, 0, 57, 80
2, 23738, Note_on_c, 0, 78, 0
2, 23738, Note_on_c, 0, 83, 0
2, 23760, Note_on_c, 0, 63, 0
2, 23760, Note_on_c, 0, 71, 0
2, 23760, Note_on_c, 0, 57, 0
2, 23760, Note_on_c, 0, 79, 110
2, 23760, Note_on_c, 0, 83, 110
2, 23760, Control_c, 0, 64, 0
2, 23760, Control_c, 0, 64, 127
2, 23760, Note_on_c, 0, 63, 71
2, 23760, Note_on_c, 0, 63, 90
2, 23819, Note_on_c, 0, 63, 0
2, 23819, Note_on_c, 0, 55, 72
2, 23850, Note_on_c, 0, 67, 57
2, 23850, Note_on_c, 0, 71, 57
2, 23880, Note_on_c, 0, 55, 0
2, 23880, Note_on_c, 0, 52, 70
2, 23918, Note_on_c, 0, 79, 0
2, 23918, Note_on_c, 0, 83, 0
2, 23940, Note_on_c, 0, 52, 0
2, 23940, Note_on_c, 0, 76, 93
2, 23940, Note_on_c, 0, 45, 70
2, 23999, Note_on_c, 0, 45, 0
2, 23999, Note_on_c, 0, 52, 81
2, 24030, Note_on_c, 0, 71, 0
2, 24030, Note_on_c, 0, 63, 0
2, 24030, Note_on_c, 0, 67, 0
2, 24030, Note_on_c, 0, 67, 60
2, 24030, Note_on_c, 0, 71, 60
2, 24030, Control_c, 0, 64, 0
2, 24030, Note_on_c, 0, 64, 74
2, 24060, Note_on_c, 0, 52, 0
2, 24060, Note_on_c, 0, 55, 79
2, 24098, Note_on_c, 0, 76, 0
2, 24120, Note_on_c, 0, 64, 0
2, 24120, Note_on_c, 0, 55, 0
2, 24120, Note_on_c, 0, 76, 114
2, 24120, Note_on_c, 0, 79, 114
2, 24120, Control_c, 0, 64, 127
2, 24120, Note_on_c, 0, 61, 60
2, 24179, Note_on_c, 0, 55, 65
2, 24210, Note_on_c, 0, 67, 0
2, 24210, Note_on_c, 0, 71, 0
2, 24210, Note_on_c, 0, 67, 59
2, 24210, Note_on_c, 0, 71, 59
2, 24240, Note_on_c, 0, 55, 0
2, 24240, Note_on_c, 0, 52, 74
2, 24278, Note_on_c, 0, 76, 0
2, 24278, Note_on_c, 0, 79, 0
2, 24300, Note_on_c, 0, 52, 0
2, 24300, Note_on_c, 0, 76, 115
2, 24300, Note_on_c, 0, 79, 115
2, 24300, Note_on_c, 0, 81, 115
2, 24300, Note_on_c, 0, 45, 66
2, 24359, Note_on_c, 0, 45, 0
2, 24359, Note_on_c, 0, 52, 83
2, 24390, Note_on_c, 0, 67, 0
2, 24390, Note_on_c, 0, 71, 0
2, 24390, Note_on_c, 0, 64, 53
2, 24390, Note_on_c, 0, 67, 53
2, 24390, Note_on_c, 0, 69, 53
2, 24420, Note_on_c, 0, 52, 0
2, 24420, Control_c, 0, 64, 0
2, 24420, Note_on_c, 0, 55, 79
2, 24458, Note_on_c, 0, 79, 0
2, 24458, Note_on_c, 0, 76, 0
2, 24458, Note_on_c, 0, 81, 0
2, 24480, Note_on_c, 0, 64, 0
2, 24480, Note_on_c, 0, 61, 0
2, 24480, Note_on_c, 0, 55, 0
2, 24480, Note_on_c, 0, 67, 0
2, 24480, Note_on_c, 0, 69, 0
2, 24480, Note_on_c, 0, 78, 101
2, 24480, Note_on_c, 0, 74, 73
2, 24480, Control_c, 0, 64, 127
2, 24480, Note_on_c, 0, 62, 70
2, 24539, Note_on_c, 0, 74, 0
2, 24539, Note_on_c, 0, 66, 44
2, 24600, Note_on_c, 0, 66, 0
2, 24600, Note_on_c, 0, 74, 67
2, 24660, Note_on_c, 0, 74, 0
2, 24660, Note_on_c, 0, 78, 73
2, 24660, Note_on_c, 0, 38, 68
2, 24660, Note_on_c, 0, 45, 68
2, 24719, Note_on_c, 0, 78, 0
2, 24719, Note_on_c, 0, 74, 56
2, 24780, Note_on_c, 0, 74, 0
2, 24780, Note_on_c, 0, 78, 65
2, 24797, Note_on_c, 0, 78, 0
2, 24840, Note_on_c, 0, 45, 0
2, 24840, Note_on_c, 0, 78, 0
2, 24840, Note_on_c, 0, 38, 0
2, 24840, Note_on_c, 0, 86, 73
2, 24840, Note_on_c, 0, 54, 79
2, 24899, Note_on_c, 0, 86, 0
2, 24899, Note_on_c, 0, 78, 51
2, 24960, Note_on_c, 0, 78, 0
2, 24960, Note_on_c, 0, 74, 52
2, 25020, Note_on_c, 0, 74, 0
2, 25020, Note_on_c, 0, 54, 0
2, 25020, Note_on_c, 0, 62, 0
2, 25020, Note_on_c, 0, 78, 66
2, 25020, Control_c, 0, 64, 0
2, 25020, Note_on_c, 0, 61, 68
2, 25079, Note_on_c, 0, 78, 0
2, 25079, Note_on_c, 0, 74, 53
2, 25140, Note_on_c, 0, 74, 0
2, 25140, Note_on_c, 0, 66, 46
2, 25200, Note_on_c, 0, 66, 0
2, 25200, Note_on_c, 0, 61, 0
2, 25200, Control_c, 0, 64, 127
2, 25200, Note_on_c, 0, 62, 78
2, 25259, Note_on_c, 0, 66, 56
2, 25320, Note_on_c, 0, 66, 0
2, 25320, Note_on_c, 0, 74, 73
2, 25380, Note_on_c, 0, 74, 0
2, 25380, Note_on_c, 0, 62, 0
2, 25380, Note_on_c, 0, 78, 71
2, 25380, Note_on_c, 0, 61, 71
2, 25439, Note_on_c, 0, 78, 0
2, 25439, Note_on_c, 0, 74, 50
2, 25500, Note_on_c, 0, 74, 0
2, 25500, Note_on_c, 0, 78, 70
2, 25560, Note_on_c, 0, 78, 0
2, 25560, Note_on_c, 0, 61, 0
2, 25560, Note_on_c, 0, 86, 72
2, 25560, Note_on_c, 0, 62, 74
2, 25619, Note_on_c, 0, 86, 0
2, 25619, Note_on_c, 0, 78, 50
2, 25680, Note_on_c, 0, 78, 0
2, 25680, Note_on_c, 0, 74, 55
2, 25740, Note_on_c, 0, 74, 0
2, 25740, Note_on_c, 0, 62, 0
2, 25740, Note_on_c, 0, 78, 70
2, 25740, Control_c, 0, 64, 0
2, 25740, Note_on_c, 0, 64, 76
2, 25799, Note_on_c, 0, 78, 0
2, 25799, Note_on_c, 0, 74, 55
2, 25860, Note_on_c, 0, 74, 0
2, 25860, Note_on_c, 0, 66, 44
2, 25920, Note_on_c, 0, 66, 0
2, 25920, Note_on_c, 0, 64, 0
2, 25920, Note_on_c, 0, 77, 88
2, 25920, Note_on_c, 0, 74, 73
2, 25920, Note_on_c, 0, 65, 85
2, 25920, Note_on_c, 0, 65, 65
2, 25979, Note_on_c, 0, 65, 0
2, 25979, Note_on_c, 0, 74, 0
2, 25979, Note_on_c, 0, 70, 46
2, 25979, Note_on_c, 0, 62, 67
2, 26040, Note_on_c, 0, 62, 0
2, 26040, Note_on_c, 0, 70, 0
2, 26040, Note_on_c, 0, 71, 63
2, 26040, Note_on_c, 0, 56, 67
2, 26100, Note_on_c, 0, 56, 0
2, 26100, Note_on_c, 0, 71, 0
2, 26100, Note_on_c, 0, 77, 0
2, 26100, Note_on_c, 0, 77, 106
2, 26100, Note_on_c, 0, 80, 106
2, 26100, Note_on_c, 0, 71, 58
2, 26100, Note_on_c, 0, 62, 89
2, 26159, Note_on_c, 0, 62, 0
2, 26159, Note_on_c, 0, 56, 65
2, 26220, Note_on_c, 0, 56, 0
2, 26220, Note_on_c, 0, 53, 72
2, 26280, Note_on_c, 0, 53, 0
2, 26280, Note_on_c, 0, 80, 0
2, 26280, Note_on_c, 0, 71, 0
2, 26280, Note_on_c, 0, 77, 0
2, 26280, Note_on_c, 0, 80, 112
2, 26280, Note_on_c, 0, 83, 112
2, 26280, Note_on_c, 0, 74, 67
2, 26280, Note_on_c, 0, 46, 64
2, 26339, Note_on_c, 0, 74, 0
2, 26339, Note_on_c, 0, 76, 68
2, 26394, Note_on_c, 0, 65, 0
2, 26400, Note_on_c, 0, 76, 0
2, 26400, Note_on_c, 0, 77, 64
2, 26460, Note_on_c, 0, 77, 0
2, 26460, Note_on_c, 0, 46, 0
2, 26460, Note_on_c, 0, 83, 0
2, 26460, Note_on_c, 0, 80, 0
2, 26460, Note_on_c, 0, 83, 106
2, 26460, Note_on_c, 0, 86, 106
2, 26460, Note_on_c, 0, 77, 59
2, 26460, Note_on_c, 0, 62, 85
2, 26460, Note_on_c, 0, 67, 85
2, 26460, Note_on_c, 0, 62, 96
2, 26519, Note_on_c, 0, 77, 0
2, 26519, Note_on_c, 0, 79, 67
2, 26580, Note_on_c, 0, 79, 0
2, 26580, Note_on_c, 0, 80, 65
2, 26618, Note_on_c, 0, 62, 0
2, 26618, Note_on_c, 0, 67, 0
2, 26640, Note_on_c, 0, 86, 0
2, 26640, Note_on_c, 0, 83, 0
2, 26640, Note_on_c, 0, 80, 0
2, 26640, Note_on_c, 0, 62, 0
2, 26640, Note_on_c, 0, 80, 64
2, 26640, Note_on_c, 0, 83, 64
2, 26640, Note_on_c, 0, 53, 85
2, 26675, Note_on_c, 0, 59, 85
2, 26699, Note_on_c, 0, 83, 0
2, 26699, Note_on_c, 0, 80, 0
2, 26699, Note_on_c, 0, 75, 47
2, 26711, Note_on_c, 0, 63, 85
2, 26745, Note_on_c, 0, 68, 85
2, 26760, Note_on_c, 0, 75, 0
2, 26760, Note_on_c, 0, 82, 70
2, 26760, Note_on_c, 0, 85, 70
2, 26820, Note_on_c, 0, 85, 0
2, 26820, Note_on_c, 0, 53, 0
2, 26820, Note_on_c, 0, 68, 0
2, 26820, Note_on_c, 0, 59, 0
2, 26820, Note_on_c, 0, 82, 0
2, 26820, Note_on_c, 0, 63, 0
2, 26820, Note_on_c, 0, 80, 60
2, 26820, Note_on_c, 0, 83, 60
2, 26820, Note_on_c, 0, 63, 74
2, 26879, Note_on_c, 0, 83, 0
2, 26879, Note_on_c, 0, 80, 0
2, 26879, Note_on_c, 0, 75, 44
2, 26940, Note_on_c, 0, 75, 0
2, 26940, Note_on_c, 0, 79, 70
2, 26940, Note_on_c, 0, 82, 70
2, 26978, Note_on_c, 0, 63, 0
2, 27000, Note_on_c, 0, 82, 0
2, 27000, Note_on_c, 0, 79, 0
2, 27000, Note_on_c, 0, 77, 60
2, 27000, Note_on_c, 0, 80, 60
2, 27000, Note_on_c, 0, 62, 80
2, 27059, Note_on_c, 0, 80, 0
2, 27059, Note_on_c, 0, 77, 0
2, 27059, Note_on_c, 0, 71, 52
2, 27120, Note_on_c, 0, 71, 0
2, 27120, Note_on_c, 0, 79, 76
2, 27120, Note_on_c, 0, 82, 76
2, 27158, Note_on_c, 0, 62, 0
2, 27180, Note_on_c, 0, 82, 0
2, 27180, Note_on_c, 0, 79, 0
2, 27180, Note_on_c, 0, 77, 61
2, 27180, Note_on_c, 0, 80, 61
2, 27180, Note_on_c, 0, 63, 83
2, 27239, Note_on_c, 0, 80, 0
2, 27239, Note_on_c, 0, 77, 0
2, 27239, Note_on_c, 0, 71, 47
2, 27300, Note_on_c, 0, 71, 0
2, 27300, Note_on_c, 0, 77, 69
2, 27300, Note_on_c, 0, 80, 69
2, 27338, Note_on_c, 0, 63, 0
2, 27360, Note_on_c, 0, 80, 0
2, 27360, Note_on_c, 0, 77, 0
2, 27360, Note_on_c, 0, 77, 86
2, 27360, Note_on_c, 0, 74, 53
2, 27360, Control_c, 0, 64, 127
2, 27360, Note_on_c, 0, 65, 86
2, 27419, Note_on_c, 0, 74, 0
2, 27419, Note_on_c, 0, 70, 52
2, 27419, Note_on_c, 0, 62, 66
2, 27480, Note_on_c, 0, 62, 0
2, 27480, Note_on_c, 0, 70, 0
2, 27480, Note_on_c, 0, 71, 61
2, 27480, Note_on_c, 0, 56, 70
2, 27540, Note_on_c, 0, 56, 0
2, 27540, Note_on_c, 0, 71, 0
2, 27540, Note_on_c, 0, 77, 0
2, 27540, Note_on_c, 0, 77, 104
2, 27540, Note_on_c, 0, 80, 104
2, 27540, Note_on_c, 0, 71, 63
2, 27540, Note_on_c, 0, 56, 73
2, 27599, Note_on_c, 0, 56, 0
2, 27599, Note_on_c, 0, 71, 0
2, 27599, Note_on_c, 0, 73, 69
2, 27599, Note_on_c, 0, 53, 72
2, 27660, Note_on_c, 0, 53, 0
2, 27660, Note_on_c, 0, 73, 0
2, 27660, Note_on_c, 0, 74, 60
2, 27660, Note_on_c, 0, 46, 70
2, 27677, Note_on_c, 0, 65, 0
2, 27720, Note_on_c, 0, 74, 0
2, 27720, Note_on_c, 0, 77, 0
2, 27720, Note_on_c, 0, 80, 0
2, 27720, Note_on_c, 0, 80, 106
2, 27720, Note_on_c, 0, 83, 106
2, 27720, Note_on_c, 0, 74, 63
2, 27720, Control_c, 0, 64, 0
2, 27720, Note_on_c, 0, 62, 87
2, 27720, Note_on_c, 0, 67, 87
2, 27779, Note_on_c, 0, 74, 0
2, 27779, Note_on_c, 0, 76, 63
2, 27840, Note_on_c, 0, 76, 0
2, 27840, Note_on_c, 0, 77, 66
2, 27878, Note_on_c, 0, 67, 0
2, 27878, Note_on_c, 0, 62, 0
2, 27900, Note_on_c, 0, 83, 0
2, 27900, Note_on_c, 0, 80, 0
2, 27900, Note_on_c, 0, 77, 0
2, 27900, Note_on_c, 0, 83, 107
2, 27900, Note_on_c, 0, 86, 107
2, 27900, Note_on_c, 0, 77, 61
2, 27900, Note_on_c, 0, 62, 86
2, 27900, Note_on_c, 0, 68, 86
2, 27959, Note_on_c, 0, 77, 0
2, 27959, Note_on_c, 0, 79, 64
2, 28020, Note_on_c, 0, 79, 0
2, 28020, Note_on_c, 0, 80, 62
2, 28058, Note_on_c, 0, 68, 0
2, 28058, Note_on_c, 0, 62, 0
2, 28080, Note_on_c, 0, 86, 0
2, 28080, Note_on_c, 0, 46, 0
2, 28080, Note_on_c, 0, 80, 0
2, 28080, Note_on_c, 0, 83, 0
2, 28080, Note_on_c, 0, 79, 70
2, 28080, Note_on_c, 0, 83, 70
2, 28080, Control_c, 0, 64, 127
2, 28080, Note_on_c, 0, 56, 75
2, 28115, Note_on_c, 0, 59, 75
2, 28139, Note_on_c, 0, 83, 0
2, 28139, Note_on_c, 0, 79, 0
2, 28139, Note_on_c, 0, 74, 47
2, 28151, Note_on_c, 0, 62, 75
2, 28185, Note_on_c, 0, 67, 75
2, 28200, Note_on_c, 0, 74, 0
2, 28200, Note_on_c, 0, 81, 72
2, 28200, Note_on_c, 0, 84, 72
2, 28260, Note_on_c, 0, 84, 0
2, 28260, Note_on_c, 0, 56, 0
2, 28260, Note_on_c, 0, 67, 0
2, 28260, Note_on_c, 0, 59, 0
2, 28260, Note_on_c, 0, 81, 0
2, 28260, Note_on_c, 0, 62, 0
2, 28260, Note_on_c, 0, 79, 58
2, 28260, Note_on_c, 0, 83, 58
2, 28260, Note_on_c, 0, 62, 68
2, 28319, Note_on_c, 0, 83, 0
2, 28319, Note_on_c, 0, 79, 0
2, 28319, Note_on_c, 0, 74, 45
2, 28380, Note_on_c, 0, 74, 0
2, 28380, Note_on_c, 0, 77, 69
2, 28380, Note_on_c, 0, 81, 69
2, 28418, Note_on_c, 0, 62, 0
2, 28440, Note_on_c, 0, 81, 0
2, 28440, Note_on_c, 0, 77, 0
2, 28440, Note_on_c, 0, 75, 60
2, 28440, Note_on_c, 0, 79, 60
2, 28440, Note_on_c, 0, 63, 83
2, 28499, Note_on_c, 0, 79, 0
2, 28499, Note_on_c, 0, 75, 0
2, 28499, Note_on_c, 0, 71, 47
2, 28560, Note_on_c, 0, 71, 0
2, 28560, Note_on_c, 0, 77, 76
2, 28560, Note_on_c, 0, 81, 76
2, 28598, Note_on_c, 0, 63, 0
2, 28620, Note_on_c, 0, 81, 0
2, 28620, Note_on_c, 0, 77, 0
2, 28620, Note_on_c, 0, 75, 55
2, 28620, Note_on_c, 0, 79, 55
2, 28620, Control_c, 0, 64, 0
2, 28620, Note_on_c, 0, 65, 85
2, 28679, Note_on_c, 0, 79, 0
2, 28679, Note_on_c, 0, 75, 0
2, 28679, Note_on_c, 0, 71, 52
2, 28740, Note_on_c, 0, 71, 0
2, 28740, Note_on_c, 0, 74, 69
2, 28740, Note_on_c, 0, 77, 69
2, 28778, Note_on_c, 0, 65, 0
2, 28800, Note_on_c, 0, 77, 0
2, 28800, Note_on_c, 0, 74, 0
2, 28800, Note_on_c, 0, 70, 50
2, 28800, Control_c, 0, 64, 127
2, 28800, Note_on_c, 0, 67, 89
2, 28800, Note_on_c, 0, 63, 65
2, 28859, Note_on_c, 0, 63, 0
2, 28859, Note_on_c, 0, 70, 0
2, 28859, Note_on_c, 0, 72, 62
2, 28859, Note_on_c, 0, 64, 75
2, 28920, Note_on_c, 0, 64, 0
2, 28920, Note_on_c, 0, 72, 0
2, 28920, Note_on_c, 0, 73, 59
2, 28920, Note_on_c, 0, 58, 68
2, 28980, Note_on_c, 0, 58, 0
2, 28980, Note_on_c, 0, 73, 0
2, 28980, Note_on_c, 0, 79, 92
2, 28980, Note_on_c, 0, 82, 92
2, 28980, Note_on_c, 0, 73, 63
2, 28980, Note_on_c, 0, 64, 90
2, 29039, Note_on_c, 0, 64, 0
2, 29039, Note_on_c, 0, 73, 0
2, 29039, Note_on_c, 0, 75, 66
2, 29039, Note_on_c, 0, 58, 78
2, 29100, Note_on_c, 0, 58, 0
2, 29100, Note_on_c, 0, 75, 0
2, 29100, Note_on_c, 0, 76, 66
2, 29100, Note_on_c, 0, 55, 72
2, 29160, Note_on_c, 0, 55, 0
2, 29160, Note_on_c, 0, 82, 0
2, 29160, Note_on_c, 0, 76, 0
2, 29160, Note_on_c, 0, 79, 0
2, 29160, Note_on_c, 0, 82, 106
2, 29160, Note_on_c, 0, 85, 106
2, 29160, Note_on_c, 0, 76, 56
2, 29160, Note_on_c, 0, 48, 71
2, 29219, Note_on_c, 0, 76, 0
2, 29219, Note_on_c, 0, 78, 65
2, 29274, Note_on_c, 0, 67, 0
2, 29280, Note_on_c, 0, 78, 0
2, 29280, Note_on_c, 0, 79, 63
2, 29340, Note_on_c, 0, 79, 0
2, 29340, Note_on_c, 0, 48, 0
2, 29340, Note_on_c, 0, 85, 0
2, 29340, Note_on_c, 0, 82, 0
2, 29340, Note_on_c, 0, 85, 105
2, 29340, Note_on_c, 0, 88, 105
2, 29340, Note_on_c, 0, 79, 61
2, 29340, Control_c, 0, 64, 0
2, 29340, Note_on_c, 0, 64, 85
2, 29340, Note_on_c, 0, 69, 85
2, 29340, Note_on_c, 0, 58, 98
2, 29340, Note_on_c, 0, 61, 98
2, 29399, Note_on_c, 0, 79, 0
2, 29399, Note_on_c, 0, 81, 65
2, 29460, Note_on_c, 0, 81, 0
2, 29460, Note_on_c, 0, 82, 67
2, 29498, Note_on_c, 0, 64, 0
2, 29498, Note_on_c, 0, 69, 0
2, 29520, Note_on_c, 0, 88, 0
2, 29520, Note_on_c, 0, 58, 0
2, 29520, Note_on_c, 0, 85, 0
2, 29520, Note_on_c, 0, 82, 0
2, 29520, Note_on_c, 0, 61, 0
2, 29520, Note_on_c, 0, 82, 63
2, 29520, Note_on_c, 0, 85, 63
2, 29520, Control_c, 0, 64, 127
2, 29520, Note_on_c, 0, 55, 87
2, 29555, Note_on_c, 0, 61, 87
2, 29579, Note_on_c, 0, 85, 0
2, 29579, Note_on_c, 0, 82, 0
2, 29579, Note_on_c, 0, 78, 48
2, 29591, Note_on_c, 0, 65, 87
2, 29625, Note_on_c, 0, 70, 87
2, 29640, Note_on_c, 0, 78, 0
2, 29640, Note_on_c, 0, 84, 71
2, 29640, Note_on_c, 0, 87, 71
2, 29700, Note_on_c, 0, 87, 0
2, 29700, Note_on_c, 0, 55, 0
2, 29700, Note_on_c, 0, 70, 0
2, 29700, Note_on_c, 0, 61, 0
2, 29700, Note_on_c, 0, 84, 0
2, 29700, Note_on_c, 0, 65, 0
2, 29700, Note_on_c, 0, 82, 59
2, 29700, Note_on_c, 0, 85, 59
2, 29700, Note_on_c, 0, 65, 78
2, 29759, Note_on_c, 0, 85, 0
2, 29759, Note_on_c, 0, 82, 0
2, 29759, Note_on_c, 0, 78, 47
2, 29820, Note_on_c, 0, 78, 0
2, 29820, Note_on_c, 0, 81, 65
2, 29820, Note_on_c, 0, 84, 65
2, 29858, Note_on_c, 0, 65, 0
2, 29880, Note_on_c, 0, 84, 0
2, 29880, Note_on_c, 0, 81, 0
2, 29880, Note_on_c, 0, 79, 60
2, 29880, Note_on_c, 0, 82, 60
2, 29880, Note_on_c, 0, 64, 77
2, 29939, Note_on_c, 0, 82, 0
2, 29939, Note_on_c, 0, 79, 0
2, 29939, Note_on_c, 0, 73, 45
2, 30000, Note_on_c, 0, 73, 0
2, 30000, Note_on_c, 0, 81, 75
2, 30000, Note_on_c, 0, 84, 75
2, 30038, Note_on_c, 0, 64, 0
2, 30060, Note_on_c, 0, 84, 0
2, 30060, Note_on_c, 0, 81, 0
2, 30060, Note_on_c, 0, 79, 61
2, 30060, Note_on_c, 0, 82, 61
2, 30060, Control_c, 0, 64, 0
2, 30060, Note_on_c, 0, 65, 85
2, 30119, Note_on_c, 0, 82, 0
2, 30119, Note_on_c, 0, 79, 0
2, 30119, Note_on_c, 0, 73, 45
2, 30180, Note_on_c, 0, 73, 0
2, 30180, Note_on_c, 0, 78, 66
2, 30180, Note_on_c, 0, 81, 66
2, 30218, Note_on_c, 0, 65, 0
2, 30240, Note_on_c, 0, 81, 0
2, 30240, Note_on_c, 0, 78, 0
2, 30240, Note_on_c, 0, 76, 91
2, 30240, Note_on_c, 0, 79, 91
2, 30240, Note_on_c, 0, 70, 49
2, 30240, Control_c, 0, 64, 127
2, 30240, Note_on_c, 0, 67, 88
2, 30240, Note_on_c, 0, 67, 62
2, 30299, Note_on_c, 0, 67, 0
2, 30299, Note_on_c, 0, 70, 0
2, 30299, Note_on_c, 0, 72, 61
2, 30299, Note_on_c, 0, 64, 65
2, 30360, Note_on_c, 0, 64, 0
2, 30360, Note_on_c, 0, 72, 0
2, 30360, Note_on_c, 0, 74, 60
2, 30360, Note_on_c, 0, 58, 70
2, 30420, Note_on_c, 0, 58, 0
2, 30420, Note_on_c, 0, 76, 0
2, 30420, Note_on_c, 0, 74, 0
2, 30420, Note_on_c, 0, 79, 0
2, 30420, Note_on_c, 0, 79, 104
2, 30420, Note_on_c, 0, 82, 104
2, 30420, Note_on_c, 0, 74, 63
2, 30420, Note_on_c, 0, 64, 84
2, 30479, Note_on_c, 0, 64, 0
2, 30479, Note_on_c, 0, 74, 0
2, 30479, Note_on_c, 0, 75, 63
2, 30479, Note_on_c, 0, 58, 75
2, 30540, Note_on_c, 0, 58, 0
2, 30540, Note_on_c, 0, 75, 0
2, 30540, Note_on_c, 0, 76, 64
2, 30540, Note_on_c, 0, 55, 70
2, 30600, Note_on_c, 0, 55, 0
2, 30600, Note_on_c, 0, 82, 0
2, 30600, Note_on_c, 0, 76, 0
2, 30600, Note_on_c, 0, 79, 0
2, 30600, Note_on_c, 0, 82, 105
2, 30600, Note_on_c, 0, 85, 105
2, 30600, Note_on_c, 0, 76, 63
2, 30600, Note_on_c, 0, 48, 72
2, 30659, Note_on_c, 0, 76, 0
2, 30659, Note_on_c, 0, 78, 70
2, 30714, Note_on_c, 0, 67, 0
2, 30720, Note_on_c, 0, 78, 0
2, 30720, Note_on_c, 0, 79, 64
2, 30780, Note_on_c, 0, 79, 0
2, 30780, Note_on_c, 0, 82, 0
2, 30780, Note_on_c, 0, 85, 0
2, 30780, Note_on_c, 0, 85, 105
2, 30780, Note_on_c, 0, 88, 105
2, 30780, Note_on_c, 0, 79, 63
2, 30780, Control_c, 0, 64, 0
2, 30780, Note_on_c, 0, 70, 77
2, 30839, Note_on_c, 0, 79, 0
2, 30839, Note_on_c, 0, 81, 70
2, 30900, Note_on_c, 0, 81, 0
2, 30900, Note_on_c, 0, 82, 63
2, 30960, Note_on_c, 0, 82, 0
2, 30960, Note_on_c, 0, 88, 0
2, 30960, Note_on_c, 0, 48, 0
2, 30960, Note_on_c, 0, 85, 0
2, 30960, Note_on_c, 0, 70, 0
2, 30960, Note_on_c, 0, 85, 88
2, 30960, Note_on_c, 0, 82, 58
2, 30960, Control_c, 0, 64, 127
2, 30960, Note_on_c, 0, 58, 68
2, 30960, Note_on_c, 0, 61, 68
2, 30960, Note_on_c, 0, 64, 68
2, 30960, Note_on_c, 0, 69, 68
2, 31019, Note_on_c, 0, 82, 0
2, 31019, Note_on_c, 0, 81, 57
2, 31080, Note_on_c, 0, 81, 0
2, 31080, Note_on_c, 0, 79, 59
2, 31140, Note_on_c, 0, 79, 0
2, 31140, Note_on_c, 0, 85, 0
2, 31140, Note_on_c, 0, 81, 87
2, 31140, Note_on_c, 0, 79, 62
2, 31140, Note_on_c, 0, 37, 67
2, 31199, Note_on_c, 0, 37, 0
2, 31199, Note_on_c, 0, 79, 0
2, 31199, Note_on_c, 0, 77, 57
2, 31199, Note_on_c, 0, 45, 84
2, 31260, Note_on_c, 0, 45, 0
2, 31260, Note_on_c, 0, 77, 0
2, 31260, Note_on_c, 0, 76, 59
2, 31260, Note_on_c, 0, 52, 81
2, 31320, Note_on_c, 0, 52, 0
2, 31320, Note_on_c, 0, 81, 0
2, 31320, Note_on_c, 0, 69, 0
2, 31320, Note_on_c, 0, 58, 0
2, 31320, Note_on_c, 0, 61, 0
2, 31320, Note_on_c, 0, 76, 0
2, 31320, Note_on_c, 0, 64, 0
2, 31320, Note_on_c, 0, 73, 75
2, 31320, Note_on_c, 0, 70, 49
2, 31320, Control_c, 0, 64, 0
2, 31320, Note_on_c, 0, 57, 59
2, 31379, Note_on_c, 0, 70, 0
2, 31379, Note_on_c, 0, 69, 58
2, 31440, Note_on_c, 0, 69, 0
2, 31440, Note_on_c, 0, 67, 56
2, 31500, Note_on_c, 0, 67, 0
2, 31500, Note_on_c, 0, 73, 0
2, 31500, Note_on_c, 0, 69, 83
2, 31500, Note_on_c, 0, 67, 62
2, 31559, Note_on_c, 0, 67, 0
2, 31559, Note_on_c, 0, 65, 58
2, 31620, Note_on_c, 0, 65, 0
2, 31620, Note_on_c, 0, 64, 54
2, 31680, Note_on_c, 0, 64, 0
2, 31680, Note_on_c, 0, 69, 0
2, 31680, Note_on_c, 0, 57, 0
2, 31680, Control_c, 0, 64, 127
2, 31680, Note_on_c, 0, 58, 79
2, 31680, Note_on_c, 0, 38, 69
2, 31770, Note_on_c, 0, 38, 0
2, 31770, Note_on_c, 0, 46, 82
2, 31838, Note_on_c, 0, 58, 0
2, 31860, Note_on_c, 0, 77, 85
2, 31860, Note_on_c, 0, 74, 75
2, 31860, Note_on_c, 0, 53, 82
2, 31919, Note_on_c, 0, 74, 0
2, 31919, Note_on_c, 0, 70, 62
2, 31980, Note_on_c, 0, 70, 0
2, 31980, Note_on_c, 0, 65, 50
2, 32018, Note_on_c, 0, 53, 0
2, 32040, Note_on_c, 0, 46, 0
2, 32040, Note_on_c, 0, 77, 0
2, 32040, Note_on_c, 0, 65, 0
2, 32040, Note_on_c, 0, 78, 96
2, 32040, Note_on_c, 0, 75, 74
2, 32040, Note_on_c, 0, 54, 82
2, 32040, Note_on_c, 0, 39, 72
2, 32099, Note_on_c, 0, 75, 0
2, 32099, Note_on_c, 0, 70, 59
2, 32130, Note_on_c, 0, 39, 0
2, 32130, Note_on_c, 0, 46, 77
2, 32160, Note_on_c, 0, 70, 0
2, 32160, Note_on_c, 0, 66, 53
2, 32198, Note_on_c, 0, 54, 0
2, 32220, Note_on_c, 0, 78, 0
2, 32220, Note_on_c, 0, 66, 0
2, 32220, Note_on_c, 0, 80, 100
2, 32220, Note_on_c, 0, 77, 78
2, 32220, Control_c, 0, 64, 0
2, 32220, Note_on_c, 0, 56, 88
2, 32279, Note_on_c, 0, 77, 0
2, 32279, Note_on_c, 0, 74, 56
2, 32340, Note_on_c, 0, 74, 0
2, 32340, Note_on_c, 0, 68, 53
2, 32378, Note_on_c, 0, 56, 0
2, 32400, Note_on_c, 0, 46, 0
2, 32400, Note_on_c, 0, 80, 0
2, 32400, Note_on_c, 0, 68, 0
2, 32400, Note_on_c, 0, 82, 107
2, 32400, Note_on_c, 0, 77, 70
2, 32400, Control_c, 0, 64, 127
2, 32400, Note_on_c, 0, 58, 84
2, 32459, Note_on_c, 0, 77, 0
2, 32459, Note_on_c, 0, 74, 60
2, 32520, Note_on_c, 0, 74, 0
2, 32520, Note_on_c, 0, 70, 49
2, 32580, Note_on_c, 0, 70, 0
2, 32580, Note_on_c, 0, 82, 0
2, 32580, Note_on_c, 0, 84, 101
2, 32580, Note_on_c, 0, 80, 71
2, 32580, Note_on_c, 0, 41, 64
2, 32639, Note_on_c, 0, 41, 0
2, 32639, Note_on_c, 0, 80, 0
2, 32639, Note_on_c, 0, 77, 59
2, 32639, Note_on_c, 0, 46, 80
2, 32700, Note_on_c, 0, 46, 0
2, 32700, Note_on_c, 0, 77, 0
2, 32700, Note_on_c, 0, 72, 51
2, 32700, Note_on_c, 0, 50, 82
2, 32760, Note_on_c, 0, 50, 0
2, 32760, Note_on_c, 0, 72, 0
2, 32760, Note_on_c, 0, 84, 0
2, 32760, Note_on_c, 0, 86, 104
2, 32760, Note_on_c, 0, 82, 73
2, 32760, Note_on_c, 0, 56, 81
2, 32819, Note_on_c, 0, 82, 0
2, 32819, Note_on_c, 0, 77, 53
2, 32874, Note_on_c, 0, 58, 0
2, 32880, Note_on_c, 0, 77, 0
2, 32880, Note_on_c, 0, 74, 51
2, 32940, Note_on_c, 0, 74, 0
2, 32940, Note_on_c, 0, 86, 0
2, 32940, Note_on_c, 0, 87, 99
2, 32940, Note_on_c, 0, 84, 68
2, 32940, Control_c, 0, 64, 0
2, 32940, Note_on_c, 0, 60, 83
2, 32999, Note_on_c, 0, 84, 0
2, 32999, Note_on_c, 0, 82, 61
2, 33060, Note_on_c, 0, 82, 0
2, 33060, Note_on_c, 0, 75, 52
2, 33098, Note_on_c, 0, 60, 0
2, 33120, Note_on_c, 0, 56, 0
2, 33120, Note_on_c, 0, 87, 0
2, 33120, Note_on_c, 0, 75, 0
2, 33120, Note_on_c, 0, 89, 104
2, 33120, Note_on_c, 0, 86, 75
2, 33120, Control_c, 0, 64, 127
2, 33120, Note_on_c, 0, 62, 86
2, 33179, Note_on_c, 0, 86, 0
2, 33179, Note_on_c, 0, 82, 57
2, 33240, Note_on_c, 0, 82, 0
2, 33240, Note_on_c, 0, 77, 52
2, 33300, Note_on_c, 0, 77, 0
2, 33300, Note_on_c, 0, 89, 0
2, 33300, Note_on_c, 0, 87, 92
2, 33300, Note_on_c, 0, 84, 70
2, 33300, Note_on_c, 0, 44, 70
2, 33359, Note_on_c, 0, 44, 0
2, 33359, Note_on_c, 0, 84, 0
2, 33359, Note_on_c, 0, 82, 62
2, 33359, Note_on_c, 0, 50, 82
2, 33420, Note_on_c, 0, 50, 0
2, 33420, Note_on_c, 0, 82, 0
2, 33420, Note_on_c, 0, 75, 48
2, 33420, Note_on_c, 0, 53, 79
2, 33480, Note_on_c, 0, 53, 0
2, 33480, Note_on_c, 0, 75, 0
2, 33480, Note_on_c, 0, 87, 0
2, 33480, Note_on_c, 0, 86, 88
2, 33480, Note_on_c, 0, 82, 68
2, 33480, Note_on_c, 0, 58, 81
2, 33539, Note_on_c, 0, 82, 0
2, 33539, Note_on_c, 0, 77, 56
2, 33594, Note_on_c, 0, 62, 0
2, 33600, Note_on_c, 0, 77, 0
2, 33600, Note_on_c, 0, 74, 50
2, 33660, Note_on_c, 0, 74, 0
2, 33660, Note_on_c, 0, 86, 0
2, 33660, Note_on_c, 0, 87, 103
2, 33660, Note_on_c, 0, 84, 70
2, 33660, Control_c, 0, 64, 0
2, 33660, Note_on_c, 0, 63, 89
2, 33719, Note_on_c, 0, 84, 0
2, 33719, Note_on_c, 0, 82, 63
2, 33780, Note_on_c, 0, 82, 0
2, 33780, Note_on_c, 0, 75, 51
2, 33818, Note_on_c, 0, 63, 0
2, 33840, Note_on_c, 0, 58, 0
2, 33840, Note_on_c, 0, 87, 0
2, 33840, Note_on_c, 0, 75, 0
2, 33840, Note_on_c, 0, 86, 91
2, 33840, Note_on_c, 0, 82, 71
2, 33840, Control_c, 0, 64, 127
2, 33840, Note_on_c, 0, 65, 92
2, 33899, Note_on_c, 0, 82, 0
2, 33899, Note_on_c, 0, 77, 52
2, 33960, Note_on_c, 0, 77, 0
2, 33960, Note_on_c, 0, 74, 53
2, 34020, Note_on_c, 0, 74, 0
2, 34020, Note_on_c, 0, 86, 0
2, 34020, Note_on_c, 0, 90, 105
2, 34020, Note_on_c, 0, 87, 74
2, 34020, Note_on_c, 0, 46, 70
2, 34079, Note_on_c, 0, 46, 0
2, 34079, Note_on_c, 0, 87, 0
2, 34079, Note_on_c, 0, 82, 53
2, 34079, Note_on_c, 0, 56, 80
2, 34140, Note_on_c, 0, 56, 0
2, 34140, Note_on_c, 0, 82, 0
2, 34140, Note_on_c, 0, 78, 50
2, 34140, Note_on_c, 0, 62, 88
2, 34157, Note_on_c, 0, 65, 0
2, 34200, Note_on_c, 0, 90, 0
2, 34200, Note_on_c, 0, 78, 0
2, 34200, Note_on_c, 0, 62, 0
2, 34200, Note_on_c, 0, 92, 105
2, 34200, Note_on_c, 0, 89, 76
2, 34200, Control_c, 0, 64, 0
2, 34200, Note_on_c, 0, 70, 92
2, 34259, Note_on_c, 0, 89, 0
2, 34259, Note_on_c, 0, 86, 58
2, 34320, Note_on_c, 0, 86, 0
2, 34320, Note_on_c, 0, 80, 58
2, 34380, Note_on_c, 0, 80, 0
2, 34380, Note_on_c, 0, 92, 0
2, 34380, Note_on_c, 0, 94, 103
2, 34380, Note_on_c, 0, 90, 76
2, 34380, Note_on_c, 0, 66, 67
2, 34439, Note_on_c, 0, 90, 0
2, 34439, Note_on_c, 0, 86, 55
2, 34500, Note_on_c, 0, 86, 0
2, 34500, Note_on_c, 0, 82, 51
2, 34517, Note_on_c, 0, 70, 0
2, 34560, Note_on_c, 0, 66, 0
2, 34560, Note_on_c, 0, 94, 0
2, 34560, Note_on_c, 0, 82, 0
2, 34560, Note_on_c, 0, 82, 70
2, 34560, Note_on_c, 0, 87, 70
2, 34560, Note_on_c, 0, 91, 70
2, 34560, Note_on_c, 0, 94, 70
2, 34560, Control_c, 0, 64, 127
2, 34560, Note_on_c, 0, 63, 85
2, 34595, Note_on_c, 0, 67, 85
2, 34631, Note_on_c, 0, 70, 85
2, 34740, Note_on_c, 0, 94, 0
2, 34740, Note_on_c, 0, 91, 0
2, 34740, Note_on_c, 0, 82, 0
2, 34740, Note_on_c, 0, 87, 0
2, 34740, Note_on_c, 0, 75, 49
2, 34740, Note_on_c, 0, 79, 49
2, 34740, Note_on_c, 0, 82, 49
2, 34740, Note_on_c, 0, 27, 70
2, 34740, Note_on_c, 0, 39, 70
2, 34799, Note_on_c, 0, 82, 0
2, 34799, Note_on_c, 0, 75, 0
2, 34799, Note_on_c, 0, 79, 0
2, 34799, Note_on_c, 0, 70, 43
2, 34860, Note_on_c, 0, 70, 0
2, 34860, Note_on_c, 0, 75, 74
2, 34860, Note_on_c, 0, 79, 74
2, 34860, Note_on_c, 0, 82, 74
2, 34920, Note_on_c, 0, 82, 0
2, 34920, Note_on_c, 0, 79, 0
2, 34920, Note_on_c, 0, 39, 0
2, 34920, Note_on_c, 0, 27, 0
2, 34920, Note_on_c, 0, 75, 0
2, 34920, Note_on_c, 0, 75, 66
2, 34920, Note_on_c, 0, 79, 66
2, 34920, Note_on_c, 0, 84, 66
2, 34920, Note_on_c, 0, 51, 81
2, 34979, Note_on_c, 0, 84, 0
2, 34979, Note_on_c, 0, 75, 0
2, 34979, Note_on_c, 0, 79, 0
2, 34979, Note_on_c, 0, 72, 44
2, 35040, Note_on_c, 0, 72, 0
2, 35040, Note_on_c, 0, 75, 72
2, 35040, Note_on_c, 0, 79, 72
2, 35040, Note_on_c, 0, 84, 72
2, 35100, Note_on_c, 0, 84, 0
2, 35100, Note_on_c, 0, 75, 0
2, 35100, Note_on_c, 0, 51, 0
2, 35100, Note_on_c, 0, 79, 0
2, 35100, Note_on_c, 0, 79, 63
2, 35100, Note_on_c, 0, 82, 63
2, 35100, Note_on_c, 0, 86, 63
2, 35100, Note_on_c, 0, 55, 79
2, 35159, Note_on_c, 0, 86, 0
2, 35159, Note_on_c, 0, 79, 0
2, 35159, Note_on_c, 0, 82, 0
2, 35159, Note_on_c, 0, 74, 48
2, 35220, Note_on_c, 0, 74, 0
2, 35220, Note_on_c, 0, 79, 71
2, 35220, Note_on_c, 0, 82, 71
2, 35220, Note_on_c, 0, 86, 71
2, 35280, Note_on_c, 0, 86, 0
2, 35280, Note_on_c, 0, 79, 0
2, 35280, Note_on_c, 0, 70, 0
2, 35280, Note_on_c, 0, 63, 0
2, 35280, Note_on_c, 0, 67, 0
2, 35280, Note_on_c, 0, 82, 0
2, 35280, Note_on_c, 0, 55, 0
2, 35280, Note_on_c, 0, 79, 43
2, 35280, Note_on_c, 0, 84, 43
2, 35280, Note_on_c, 0, 87, 43
2, 35280, Note_on_c, 0, 58, 80
2, 35339, Note_on_c, 0, 87, 0
2, 35339, Note_on_c, 0, 79, 0
2, 35339, Note_on_c, 0, 84, 0
2, 35339, Note_on_c, 0, 75, 45
2, 35400, Note_on_c, 0, 75, 0
2, 35400, Note_on_c, 0, 79, 76
2, 35400, Note_on_c, 0, 84, 76
2, 35400, Note_on_c, 0, 87, 76
2, 35460, Note_on_c, 0, 87, 0
2, 35460, Note_on_c, 0, 84, 0
2, 35460, Note_on_c, 0, 79, 0
2, 35460, Note_on_c, 0, 82, 66
2, 35460, Note_on_c, 0, 86, 66
2, 35460, Note_on_c, 0, 89, 66
2, 35460, Note_on_c, 0, 39, 67
2, 35519, Note_on_c, 0, 89, 0
2, 35519, Note_on_c, 0, 86, 0
2, 35519, Note_on_c, 0, 82, 0
2, 35519, Note_on_c, 0, 77, 43
2, 35580, Note_on_c, 0, 77, 0
2, 35580, Note_on_c, 0, 82, 75
2, 35580, Note_on_c, 0, 86, 75
2, 35580, Note_on_c, 0, 89, 75
2, 35640, Note_on_c, 0, 89, 0
2, 35640, Note_on_c, 0, 82, 0
2, 35640, Note_on_c, 0, 86, 0
2, 35640, Note_on_c, 0, 39, 0
2, 35640, Note_on_c, 0, 82, 71
2, 35640, Note_on_c, 0, 87, 71
2, 35640, Note_on_c, 0, 91, 71
2, 35640, Note_on_c, 0, 55, 83
2, 35699, Note_on_c, 0, 91, 0
2, 35699, Note_on_c, 0, 87, 0
2, 35699, Note_on_c, 0, 82, 0
2, 35699, Note_on_c, 0, 79, 50
2, 35754, Note_on_c, 0, 58, 0
2, 35760, Note_on_c, 0, 79, 0
2, 35760, Note_on_c, 0, 82, 74
2, 35760, Note_on_c, 0, 87, 74
2, 35760, Note_on_c, 0, 91, 74
2, 35820, Note_on_c, 0, 91, 0
2, 35820, Note_on_c, 0, 87, 0
2, 35820, Note_on_c, 0, 82, 0
2, 35820, Note_on_c, 0, 84, 66
2, 35820, Note_on_c, 0, 89, 66
2, 35820, Note_on_c, 0, 93, 66
2, 35820, Note_on_c, 0, 60, 88
2, 35879, Note_on_c, 0, 93, 0
2, 35879, Note_on_c, 0, 89, 0
2, 35879, Note_on_c, 0, 84, 0
2, 35879, Note_on_c, 0, 81, 48
2, 35940, Note_on_c, 0, 81, 0
2, 35940, Note_on_c, 0, 84, 72
2, 35940, Note_on_c, 0, 89, 72
2, 35940, Note_on_c, 0, 93, 72
2, 35978, Note_on_c, 0, 60, 0
2, 36000, Note_on_c, 0, 89, 0
2, 36000, Note_on_c, 0, 55, 0
2, 36000, Note_on_c, 0, 84, 0
2, 36000, Note_on_c, 0, 93, 0
2, 36000, Note_on_c, 0, 86, 65
2, 36000, Note_on_c, 0, 91, 65
2, 36000, Note_on_c, 0, 94, 65
2, 36000, Control_c, 0, 64, 0
2, 36000, Control_c, 0, 64, 127
2, 36000, Note_on_c, 0, 55, 87
2, 36035, Note_on_c, 0, 58, 87
2, 36059, Note_on_c, 0, 94, 0
2, 36059, Note_on_c, 0, 86, 0
2, 36059, Note_on_c, 0, 91, 0
2, 36059, Note_on_c, 0, 82, 45
2, 36071, Note_on_c, 0, 62, 87
2, 36120, Note_on_c, 0, 82, 0
2, 36120, Note_on_c, 0, 86, 72
2, 36120, Note_on_c, 0, 91, 72
2, 36120, Note_on_c, 0, 94, 72
2, 36180, Note_on_c, 0, 94, 0
2, 36180, Note_on_c, 0, 86, 0
2, 36180, Note_on_c, 0, 91, 0
2, 36180, Note_on_c, 0, 86, 58
2, 36180, Note_on_c, 0, 90, 58
2, 36180, Note_on_c, 0, 93, 58
2, 36180, Note_on_c, 0, 31, 68
2, 36180, Note_on_c, 0, 43, 68
2, 36239, Note_on_c, 0, 93, 0
2, 36239, Note_on_c, 0, 86, 0
2, 36239, Note_on_c, 0, 90, 0
2, 36239, Note_on_c, 0, 81, 46
2, 36300, Note_on_c, 0, 81, 0
2, 36300, Note_on_c, 0, 86, 75
2, 36300, Note_on_c, 0, 90, 75
2, 36300, Note_on_c, 0, 93, 75
2, 36360, Note_on_c, 0, 93, 0
2, 36360, Note_on_c, 0, 90, 0
2, 36360, Note_on_c, 0, 31, 0
2, 36360, Note_on_c, 0, 43, 0
2, 36360, Note_on_c, 0, 86, 0
2, 36360, Note_on_c, 0, 86, 62
2, 36360, Note_on_c, 0, 91, 62
2, 36360, Note_on_c, 0, 94, 62
2, 36360, Note_on_c, 0, 58, 84
2, 36419, Note_on_c, 0, 94, 0
2, 36419, Note_on_c, 0, 86, 0
2, 36419, Note_on_c, 0, 91, 0
2, 36419, Note_on_c, 0, 82, 44
2, 36480, Note_on_c, 0, 82, 0
2, 36480, Note_on_c, 0, 86, 75
2, 36480, Note_on_c, 0, 91, 75
2, 36480, Note_on_c, 0, 94, 75
2, 36540, Note_on_c, 0, 94, 0
2, 36540, Note_on_c, 0, 86, 0
2, 36540, Note_on_c, 0, 62, 0
2, 36540, Note_on_c, 0, 58, 0
2, 36540, Note_on_c, 0, 55, 0
2, 36540, Note_on_c, 0, 91, 0
2, 36540, Note_on_c, 0, 87, 68
2, 36540, Note_on_c, 0, 94, 68
2, 36540, Note_on_c, 0, 96, 68
2, 36540, Control_c, 0, 64, 0
2, 36540, Note_on_c, 0, 63, 84
2, 36599, Note_on_c, 0, 96, 0
2, 36599, Note_on_c, 0, 94, 0
2, 36599, Note_on_c, 0, 87, 0
2, 36599, Note_on_c, 0, 84, 50
2, 36660, Note_on_c, 0, 84, 0
2, 36660, Note_on_c, 0, 87, 75
2, 36660, Note_on_c, 0, 94, 75
2, 36660, Note_on_c, 0, 96, 75
2, 36698, Note_on_c, 0, 63, 0
2, 36720, Note_on_c, 0, 94, 0
2, 36720, Note_on_c, 0, 58, 0
2, 36720, Note_on_c, 0, 87, 0
2, 36720, Note_on_c, 0, 96, 0
2, 36720, Note_on_c, 0, 89, 69
2, 36720, Note_on_c, 0, 94, 69
2, 36720, Note_on_c, 0, 98, 69
2, 36720, Control_c, 0, 64, 127
2, 36720, Note_on_c, 0, 53, 86
2, 36747, Note_on_c, 0, 58, 86
2, 36774, Note_on_c, 0, 62, 86
2, 36779, Note_on_c, 0, 98, 0
2, 36779, Note_on_c, 0, 89, 0
2, 36779, Note_on_c, 0, 94, 0
2, 36779, Note_on_c, 0, 86, 42
2, 36800, Note_on_c, 0, 65, 86
2, 36840, Note_on_c, 0, 86, 0
2, 36840, Note_on_c, 0, 89, 74
2, 36840, Note_on_c, 0, 94, 74
2, 36840, Note_on_c, 0, 98, 74
2, 36900, Note_on_c, 0, 98, 0
2, 36900, Note_on_c, 0, 89, 0
2, 36900, Note_on_c, 0, 58, 0
2, 36900, Note_on_c, 0, 65, 0
2, 36900, Note_on_c, 0, 62, 0
2, 36900, Note_on_c, 0, 94, 0
2, 36900, Note_on_c, 0, 53, 0
2, 36900, Note_on_c, 0, 77, 47
2, 36900, Note_on_c, 0, 82, 47
2, 36900, Note_on_c, 0, 86, 47
2, 36900, Note_on_c, 0, 65, 85
2, 36959, Note_on_c, 0, 86, 0
2, 36959, Note_on_c, 0, 77, 0
2, 36959, Note_on_c, 0, 82, 0
2, 36959, Note_on_c, 0, 74, 47
2, 37020, Note_on_c, 0, 74, 0
2, 37020, Note_on_c, 0, 77, 75
2, 37020, Note_on_c, 0, 82, 75
2, 37020, Note_on_c, 0, 86, 75
2, 37058, Note_on_c, 0, 65, 0
2, 37080, Note_on_c, 0, 77, 0
2, 37080, Note_on_c, 0, 82, 0
2, 37080, Note_on_c, 0, 86, 0
2, 37080, Note_on_c, 0, 79, 72
2, 37080, Note_on_c, 0, 82, 72
2, 37080, Note_on_c, 0, 87, 72
2, 37080, Note_on_c, 0, 67, 84
2, 37139, Note_on_c, 0, 87, 0
2, 37139, Note_on_c, 0, 79, 0
2, 37139, Note_on_c, 0, 82, 0
2, 37139, Note_on_c, 0, 75, 43
2, 37200, Note_on_c, 0, 75, 0
2, 37200, Note_on_c, 0, 79, 74
2, 37200, Note_on_c, 0, 82, 74
2, 37200, Note_on_c, 0, 87, 74
2, 37238, Note_on_c, 0, 67, 0
2, 37260, Note_on_c, 0, 79, 0
2, 37260, Note_on_c, 0, 82, 0
2, 37260, Note_on_c, 0, 87, 0
2, 37260, Note_on_c, 0, 82, 67
2, 37260, Note_on_c, 0, 86, 67
2, 37260, Note_on_c, 0, 89, 67
2, 37260, Note_on_c, 0, 69, 83
2, 37319, Note_on_c, 0, 89, 0
2, 37319, Note_on_c, 0, 82, 0
2, 37319, Note_on_c, 0, 86, 0
2, 37319, Note_on_c, 0, 77, 50
2, 37380, Note_on_c, 0, 77, 0
2, 37380, Note_on_c, 0, 82, 77
2, 37380, Note_on_c, 0, 86, 77
2, 37380, Note_on_c, 0, 89, 77
2, 37380, Control_c, 0, 64, 0
2, 37418, Note_on_c, 0, 69, 0
2, 37440, Note_on_c, 0, 82, 0
2, 37440, Note_on_c, 0, 86, 0
2, 37440, Note_on_c, 0, 89, 0
2, 37440, Note_on_c, 0, 82, 66
2, 37440, Note_on_c, 0, 87, 66
2, 37440, Note_on_c, 0, 91, 66
2, 37440, Control_c, 0, 64, 127
2, 37440, Note_on_c, 0, 63, 83
2, 37467, Note_on_c, 0, 67, 83
2, 37494, Note_on_c, 0, 70, 83
2, 37499, Note_on_c, 0, 91, 0
2, 37499, Note_on_c, 0, 82, 0
2, 37499, Note_on_c, 0, 87, 0
2, 37499, Note_on_c, 0, 79, 45
2, 37560, Note_on_c, 0, 79, 0
2, 37560, Note_on_c, 0, 82, 77
2, 37560, Note_on_c, 0, 87, 77
2, 37560, Note_on_c, 0, 91, 77
2, 37620, Note_on_c, 0, 91, 0
2, 37620, Note_on_c, 0, 67, 0
2, 37620, Note_on_c, 0, 70, 0
2, 37620, Note_on_c, 0, 63, 0
2, 37620, Note_on_c, 0, 87, 0
2, 37620, Note_on_c, 0, 82, 0
2, 37620, Note_on_c, 0, 82, 61
2, 37620, Note_on_c, 0, 86, 61
2, 37620, Note_on_c, 0, 89, 61
2, 37620, Note_on_c, 0, 69, 79
2, 37679, Note_on_c, 0, 89, 0
2, 37679, Note_on_c, 0, 82, 0
2, 37679, Note_on_c, 0, 86, 0
2, 37679, Note_on_c, 0, 77, 44
2, 37740, Note_on_c, 0, 77, 0
2, 37740, Note_on_c, 0, 82, 71
2, 37740, Note_on_c, 0, 86, 71
2, 37740, Note_on_c, 0, 89, 71
2, 37778, Note_on_c, 0, 69, 0
2, 37800, Note_on_c, 0, 82, 0
2, 37800, Note_on_c, 0, 86, 0
2, 37800, Note_on_c, 0, 89, 0
2, 37800, Note_on_c, 0, 82, 70
2, 37800, Note_on_c, 0, 87, 70
2, 37800, Note_on_c, 0, 91, 70
2, 37800, Note_on_c, 0, 70, 83
2, 37859, Note_on_c, 0, 91, 0
2, 37859, Note_on_c, 0, 82, 0
2, 37859, Note_on_c, 0, 87, 0
2, 37859, Note_on_c, 0, 79, 41
2, 37920, Note_on_c, 0, 79, 0
2, 37920, Note_on_c, 0, 82, 75
2, 37920, Note_on_c, 0, 87, 75
2, 37920, Note_on_c, 0, 91, 75
2, 37958, Note_on_c, 0, 70, 0
2, 37980, Note_on_c, 0, 82, 0
2, 37980, Note_on_c, 0, 87, 0
2, 37980, Note_on_c, 0, 91, 0
2, 37980, Note_on_c, 0, 84, 65
2, 37980, Note_on_c, 0, 87, 65
2, 37980, Note_on_c, 0, 93, 65
2, 37980, Control_c, 0, 64, 0
2, 37980, Note_on_c, 0, 72, 86
2, 38039, Note_on_c, 0, 93, 0
2, 38039, Note_on_c, 0, 84, 0
2, 38039, Note_on_c, 0, 87, 0
2, 38039, Note_on_c, 0, 81, 44
2, 38100, Note_on_c, 0, 81, 0
2, 38100, Note_on_c, 0, 84, 74
2, 38100, Note_on_c, 0, 87, 74
2, 38100, Note_on_c, 0, 93, 74
2, 38138, Note_on_c, 0, 72, 0
2, 38160, Note_on_c, 0, 84, 0
2, 38160, Note_on_c, 0, 87, 0
2, 38160, Note_on_c, 0, 93, 0
2, 38160, Note_on_c, 0, 81, 64
2, 38160, Note_on_c, 0, 86, 64
2, 38160, Note_on_c, 0, 90, 64
2, 38160, Note_on_c, 0, 93, 64
2, 38160, Note_on_c, 0, 62, 89
2, 38192, Note_on_c, 0, 66, 89
2, 38219, Note_on_c, 0, 93, 0
2, 38219, Note_on_c, 0, 90, 0
2, 38219, Note_on_c, 0, 81, 0
2, 38219, Note_on_c, 0, 86, 0
2, 38219, Note_on_c, 0, 95, 67
2, 38219, Note_on_c, 0, 100, 67
2, 38225, Note_on_c, 0, 69, 89
2, 38257, Note_on_c, 0, 74, 89
2, 38280, Note_on_c, 0, 100, 0
2, 38280, Note_on_c, 0, 95, 0
2, 38280, Note_on_c, 0, 93, 60
2, 38280, Note_on_c, 0, 98, 60
2, 38340, Note_on_c, 0, 98, 0
2, 38340, Note_on_c, 0, 93, 0
2, 38340, Note_on_c, 0, 95, 66
2, 38340, Note_on_c, 0, 100, 66
2, 38340, Note_on_c, 0, 38, 70
2, 38340, Note_on_c, 0, 45, 70
2, 38399, Note_on_c, 0, 100, 0
2, 38399, Note_on_c, 0, 95, 0
2, 38399, Note_on_c, 0, 88, 55
2, 38399, Note_on_c, 0, 93, 55
2, 38460, Note_on_c, 0, 93, 0
2, 38460, Note_on_c, 0, 88, 0
2, 38460, Note_on_c, 0, 90, 62
2, 38460, Note_on_c, 0, 95, 62
2, 38520, Note_on_c, 0, 95, 0
2, 38520, Note_on_c, 0, 90, 0
2, 38520, Note_on_c, 0, 45, 0
2, 38520, Note_on_c, 0, 38, 0
2, 38520, Note_on_c, 0, 83, 47
2, 38520, Note_on_c, 0, 88, 47
2, 38520, Note_on_c, 0, 54, 80
2, 38520, Note_on_c, 0, 57, 80
2, 38579, Note_on_c, 0, 88, 0
2, 38579, Note_on_c, 0, 83, 0
2, 38579, Note_on_c, 0, 86, 71
2, 38579, Note_on_c, 0, 93, 71
2, 38640, Note_on_c, 0, 93, 0
2, 38640, Note_on_c, 0, 86, 0
2, 38640, Note_on_c, 0, 81, 47
2, 38640, Note_on_c, 0, 86, 47
2, 38700, Note_on_c, 0, 86, 0
2, 38700, Note_on_c, 0, 81, 0
2, 38700, Note_on_c, 0, 57, 0
2, 38700, Note_on_c, 0, 54, 0
2, 38700, Note_on_c, 0, 83, 76
2, 38700, Note_on_c, 0, 88, 76
2, 38700, Note_on_c, 0, 62, 95
2, 38700, Note_on_c, 0, 66, 95
2, 38759, Note_on_c, 0, 88, 0
2, 38759, Note_on_c, 0, 83, 0
2, 38759, Note_on_c, 0, 76, 52
2, 38759, Note_on_c, 0, 81, 52
2, 38820, Note_on_c, 0, 81, 0
2, 38820, Note_on_c, 0, 76, 0
2, 38820, Note_on_c, 0, 78, 59
2, 38820, Note_on_c, 0, 83, 59
2, 38880, Note_on_c, 0, 83, 0
2, 38880, Note_on_c, 0, 66, 0
2, 38880, Note_on_c, 0, 62, 0
2, 38880, Note_on_c, 0, 74, 0
2, 38880, Note_on_c, 0, 66, 0
2, 38880, Note_on_c, 0, 62, 0
2, 38880, Note_on_c, 0, 69, 0
2, 38880, Note_on_c, 0, 78, 0
2, 38880, Note_on_c, 0, 71, 47
2, 38880, Note_on_c, 0, 76, 47
2, 38880, Control_c, 0, 64, 127
2, 38880, Note_on_c, 0, 62, 52
2, 38880, Note_on_c, 0, 54, 76
2, 38880, Note_on_c, 0, 57, 76
2, 38939, Note_on_c, 0, 62, 0
2, 38939, Note_on_c, 0, 61, 66
2, 38970, Note_on_c, 0, 71, 0
2, 38970, Note_on_c, 0, 76, 0
2, 38970, Note_on_c, 0, 74, 65
2, 38970, Note_on_c, 0, 81, 65
2, 39000, Note_on_c, 0, 61, 0
2, 39000, Note_on_c, 0, 62, 71
2, 39060, Note_on_c, 0, 62, 0
2, 39060, Note_on_c, 0, 81, 0
2, 39060, Note_on_c, 0, 74, 0
2, 39060, Note_on_c, 0, 69, 52
2, 39060, Note_on_c, 0, 74, 52
2, 39060, Note_on_c, 0, 61, 67
2, 39119, Note_on_c, 0, 61, 0
2, 39119, Note_on_c, 0, 62, 77
2, 39150, Note_on_c, 0, 69, 0
2, 39150, Note_on_c, 0, 74, 0
2, 39150, Note_on_c, 0, 71, 65
2, 39150, Note_on_c, 0, 78, 65
2, 39180, Note_on_c, 0, 62, 0
2, 39180, Note_on_c, 0, 61, 68
2, 39240, Note_on_c, 0, 61, 0
2, 39240, Note_on_c, 0, 78, 0
2, 39240, Note_on_c, 0, 54, 0
2, 39240, Note_on_c, 0, 57, 0
2, 39240, Note_on_c, 0, 71, 0
2, 39240, Note_on_c, 0, 66, 48
2, 39240, Note_on_c, 0, 71, 48
2, 39240, Note_on_c, 0, 62, 71
2, 39299, Note_on_c, 0, 62, 0
2, 39299, Note_on_c, 0, 61, 67
2, 39330, Note_on_c, 0, 71, 0
2, 39330, Note_on_c, 0, 66, 0
2, 39330, Note_on_c, 0, 69, 69
2, 39330, Note_on_c, 0, 76, 69
2, 39360, Note_on_c, 0, 61, 0
2, 39360, Note_on_c, 0, 62, 71
2, 39420, Note_on_c, 0, 62, 0
2, 39420, Note_on_c, 0, 76, 0
2, 39420, Note_on_c, 0, 69, 0
2, 39420, Note_on_c, 0, 64, 49
2, 39420, Note_on_c, 0, 69, 49
2, 39420, Control_c, 0, 64, 0
2, 39420, Note_on_c, 0, 61, 71
2, 39479, Note_on_c, 0, 61, 0
2, 39479, Note_on_c, 0, 62, 71
2, 39510, Note_on_c, 0, 69, 0
2, 39510, Note_on_c, 0, 64, 0
2, 39510, Note_on_c, 0, 66, 61
2, 39510, Note_on_c, 0, 71, 61
2, 39540, Note_on_c, 0, 62, 0
2, 39540, Note_on_c, 0, 61, 67
2, 39600, Note_on_c, 0, 61, 0
2, 39600, Note_on_c, 0, 71, 0
2, 39600, Note_on_c, 0, 66, 0
2, 39600, Note_on_c, 0, 64, 53
2, 39600, Note_on_c, 0, 67, 53
2, 39600, Note_on_c, 0, 62, 69
2, 39659, Note_on_c, 0, 62, 0
2, 39659, Note_on_c, 0, 61, 68
2, 39720, Note_on_c, 0, 61, 0
2, 39720, Note_on_c, 0, 62, 70
2, 39780, Note_on_c, 0, 62, 0
2, 39780, Control_c, 0, 64, 127
2, 39780, Note_on_c, 0, 61, 64
2, 39780, Note_on_c, 0, 46, 67
2, 39780, Note_on_c, 0, 50, 67
2, 39780, Note_on_c, 0, 52, 67
2, 39780, Note_on_c, 0, 55, 67
2, 39839, Note_on_c, 0, 61, 0
2, 39839, Note_on_c, 0, 62, 74
2, 39900, Note_on_c, 0, 62, 0
2, 39900, Note_on_c, 0, 61, 71
2, 39960, Note_on_c, 0, 61, 0
2, 39960, Note_on_c, 0, 52, 0
2, 39960, Note_on_c, 0, 67, 0
2, 39960, Note_on_c, 0, 46, 0
2, 39960, Note_on_c, 0, 64, 0
2, 39960, Note_on_c, 0, 55, 0
2, 39960, Note_on_c, 0, 50, 0
2, 39960, Note_on_c, 0, 66, 66
2, 39960, Note_on_c, 0, 69, 66
2, 39960, Note_on_c, 0, 62, 74
2, 40019, Note_on_c, 0, 62, 0
2, 40019, Note_on_c, 0, 61, 75
2, 40080, Note_on_c, 0, 61, 0
2, 40080, Note_on_c, 0, 62, 70
2, 40140, Note_on_c, 0, 62, 0
2, 40140, Note_on_c, 0, 61, 68
2, 40140, Note_on_c, 0, 45, 69
2, 40140, Note_on_c, 0, 50, 69
2, 40140, Note_on_c, 0, 54, 69
2, 40199, Note_on_c, 0, 61, 0
2, 40199, Control_c, 0, 64, 0
2, 40199, Note_on_c, 0, 62, 73
2, 40260, Note_on_c, 0, 62, 0
2, 40260, Note_on_c, 0, 61, 68
2, 40320, Note_on_c, 0, 61, 0
2, 40320, Note_on_c, 0, 69, 0
2, 40320, Note_on_c, 0, 45, 0
2, 40320, Note_on_c, 0, 66, 0
2, 40320, Note_on_c, 0, 54, 0
2, 40320, Note_on_c, 0, 50, 0
2, 40320, Note_on_c, 0, 58, 93
2, 40320, Control_c, 0, 64, 127
2, 40320, Note_on_c, 0, 34, 62
2, 40320, Note_on_c, 0, 41, 62
2, 40320, Note_on_c, 0, 46, 62
2, 40320, Note_on_c, 0, 53, 62
2, 40347, Note_on_c, 0, 62, 93
2, 40374, Note_on_c, 0, 70, 93
2, 40379, Note_on_c, 0, 53, 0
2, 40379, Note_on_c, 0, 46, 0
2, 40379, Note_on_c, 0, 41, 0
2, 40379, Note_on_c, 0, 34, 0
2, 40379, Note_on_c, 0, 53, 71
2, 40410, Note_on_c, 0, 58, 0
2, 40410, Note_on_c, 0, 62, 0
2, 40410, Note_on_c, 0, 70, 0
2, 40440, Note_on_c, 0, 53, 0
2, 40440, Note_on_c, 0, 58, 75
2, 40500, Note_on_c, 0, 58, 0
2, 40500, Note_on_c, 0, 74, 76
2, 40500, Note_on_c, 0, 77, 76
2, 40500, Note_on_c, 0, 86, 76
2, 40500, Note_on_c, 0, 62, 80
2, 40559, Note_on_c, 0, 58, 70
2, 40620, Note_on_c, 0, 58, 0
2, 40620, Note_on_c, 0, 53, 74
2, 40680, Note_on_c, 0, 53, 0
2, 40680, Note_on_c, 0, 62, 0
2, 40680, Note_on_c, 0, 74, 0
2, 40680, Note_on_c, 0, 77, 0
2, 40680, Note_on_c, 0, 86, 0
2, 40680, Note_on_c, 0, 75, 81
2, 40680, Note_on_c, 0, 79, 81
2, 40680, Note_on_c, 0, 87, 81
2, 40680, Note_on_c, 0, 63, 78
2, 40739, Note_on_c, 0, 58, 70
2, 40800, Note_on_c, 0, 58, 0
2, 40800, Note_on_c, 0, 53, 69
2, 40860, Note_on_c, 0, 53, 0
2, 40860, Note_on_c, 0, 63, 0
2, 40860, Note_on_c, 0, 75, 0
2, 40860, Note_on_c, 0, 79, 0
2, 40860, Note_on_c, 0, 87, 0
2, 40860, Note_on_c, 0, 74, 78
2, 40860, Note_on_c, 0, 77, 78
2, 40860, Note_on_c, 0, 86, 78
2, 40860, Control_c, 0, 64, 0
2, 40860, Note_on_c, 0, 65, 73
2, 40919, Note_on_c, 0, 58, 68
2, 40980, Note_on_c, 0, 58, 0
2, 40980, Note_on_c, 0, 53, 69
2, 41040, Note_on_c, 0, 53, 0
2, 41040, Note_on_c, 0, 65, 0
2, 41040, Note_on_c, 0, 74, 0
2, 41040, Note_on_c, 0, 77, 0
2, 41040, Note_on_c, 0, 86, 0
2, 41040, Note_on_c, 0, 72, 75
2, 41040, Note_on_c, 0, 75, 75
2, 41040, Note_on_c, 0, 84, 75
2, 41040, Control_c, 0, 64, 127
2, 41040, Note_on_c, 0, 66, 74
2, 41040, Note_on_c, 0, 57, 100
2, 41060, Note_on_c, 0, 60, 100
2, 41079, Note_on_c, 0, 63, 100
2, 41099, Note_on_c, 0, 63, 0
2, 41099, Note_on_c, 0, 57, 0
2, 41099, Note_on_c, 0, 60, 0
2, 41099, Note_on_c, 0, 46, 71
2, 41160, Note_on_c, 0, 46, 0
2, 41160, Note_on_c, 0, 54, 76
2, 41220, Note_on_c, 0, 54, 0
2, 41220, Note_on_c, 0, 84, 0
2, 41220, Note_on_c, 0, 72, 0
2, 41220, Note_on_c, 0, 75, 0
2, 41220, Note_on_c, 0, 66, 0
2, 41220, Note_on_c, 0, 74, 89
2, 41220, Note_on_c, 0, 78, 89
2, 41220, Note_on_c, 0, 86, 89
2, 41220, Note_on_c, 0, 62, 63
2, 41279, Note_on_c, 0, 57, 67
2, 41340, Note_on_c, 0, 57, 0
2, 41340, Control_c, 0, 64, 0
2, 41340, Note_on_c, 0, 54, 75
2, 41400, Note_on_c, 0, 54, 0
2, 41400, Note_on_c, 0, 62, 0
2, 41400, Note_on_c, 0, 74, 0
2, 41400, Note_on_c, 0, 78, 0
2, 41400, Note_on_c, 0, 86, 0
2, 41400, Note_on_c, 0, 72, 75
2, 41400, Note_on_c, 0, 75, 75
2, 41400, Note_on_c, 0, 84, 75
2, 41400, Note_on_c, 0, 63, 73
2, 41459, Note_on_c, 0, 57, 64
2, 41520, Note_on_c, 0, 57, 0
2, 41520, Note_on_c, 0, 54, 71
2, 41580, Note_on_c, 0, 54, 0
2, 41580, Note_on_c, 0, 63, 0
2, 41580, Note_on_c, 0, 72, 0
2, 41580, Note_on_c, 0, 75, 0
2, 41580, Note_on_c, 0, 84, 0
2, 41580, Note_on_c, 0, 70, 80
2, 41580, Note_on_c, 0, 75, 80
2, 41580, Note_on_c, 0, 82, 80
2, 41580, Note_on_c, 0, 65, 72
2, 41639, Note_on_c, 0, 57, 66
2, 41700, Note_on_c, 0, 57, 0
2, 41700, Note_on_c, 0, 54, 73
2, 41760, Note_on_c, 0, 54, 0
2, 41760, Note_on_c, 0, 65, 0
2, 41760, Note_on_c, 0, 70, 0
2, 41760, Note_on_c, 0, 75, 0
2, 41760, Note_on_c, 0, 82, 0
2, 41760, Note_on_c, 0, 70, 87
2, 41760, Note_on_c, 0, 75, 87
2, 41760, Note_on_c, 0, 82, 87
2, 41760, Note_on_c, 0, 67, 79
2, 41819, Note_on_c, 0, 63, 70
2, 41880, Note_on_c, 0, 63, 0
2, 41880, Note_on_c, 0, 60, 70
2, 41940, Note_on_c, 0, 60, 0
2, 41940, Note_on_c, 0, 67, 0
2, 41940, Note_on_c, 0, 70, 0
2, 41940, Note_on_c, 0, 75, 0
2, 41940, Note_on_c, 0, 82, 0
2, 41940, Note_on_c, 0, 72, 90
2, 41940, Note_on_c, 0, 75, 90
2, 41940, Note_on_c, 0, 84, 90
2, 41940, Note_on_c, 0, 69, 78
2, 41999, Note_on_c, 0, 63, 68
2, 42060, Note_on_c, 0, 63, 0
2, 42060, Note_on_c, 0, 60, 71
2, 42120, Note_on_c, 0, 60, 0
2, 42120, Note_on_c, 0, 69, 0
2, 42120, Note_on_c, 0, 72, 0
2, 42120, Note_on_c, 0, 75, 0
2, 42120, Note_on_c, 0, 84, 0
2, 42120, Note_on_c, 0, 75, 75
2, 42120, Note_on_c, 0, 82, 75
2, 42120, Note_on_c, 0, 70, 70
2, 42179, Note_on_c, 0, 63, 71
2, 42240, Note_on_c, 0, 63, 0
2, 42240, Note_on_c, 0, 60, 68
2, 42300, Note_on_c, 0, 60, 0
2, 42300, Note_on_c, 0, 70, 0
2, 42300, Note_on_c, 0, 82, 0
2, 42300, Note_on_c, 0, 75, 0
2, 42300, Note_on_c, 0, 69, 77
2, 42300, Note_on_c, 0, 81, 77
2, 42300, Note_on_c, 0, 72, 76
2, 42359, Note_on_c, 0, 63, 67
2, 42420, Note_on_c, 0, 63, 0
2, 42420, Note_on_c, 0, 60, 63
2, 42480, Note_on_c, 0, 60, 0
2, 42480, Note_on_c, 0, 72, 0
2, 42480, Note_on_c, 0, 81, 0
2, 42480, Note_on_c, 0, 69, 0
2, 42480, Note_on_c, 0, 69, 82
2, 42480, Note_on_c, 0, 81, 82
2, 42480, Note_on_c, 0, 74, 46
2, 42480, Control_c, 0, 64, 127
2, 42480, Note_on_c, 0, 46, 61
2, 42539, Note_on_c, 0, 46, 0
2, 42539, Note_on_c, 0, 54, 80
2, 42600, Note_on_c, 0, 54, 0
2, 42600, Note_on_c, 0, 62, 88
2, 42660, Note_on_c, 0, 62, 0
2, 42660, Note_on_c, 0, 60, 65
2, 42719, Note_on_c, 0, 60, 0
2, 42719, Note_on_c, 0, 66, 82
2, 42780, Note_on_c, 0, 66, 0
2, 42780, Note_on_c, 0, 69, 77
2, 42840, Note_on_c, 0, 69, 0
2, 42840, Note_on_c, 0, 74, 0
2, 42840, Note_on_c, 0, 81, 0
2, 42840, Note_on_c, 0, 69, 0
2, 42840, Note_on_c, 0, 74, 78
2, 42840, Note_on_c, 0, 79, 78
2, 42840, Control_c, 0, 64, 0
2, 42840, Control_c, 0, 64, 127
2, 42840, Note_on_c, 0, 70, 74
2, 42899, Note_on_c, 0, 70, 0
2, 42899, Note_on_c, 0, 67, 61
2, 42960, Note_on_c, 0, 67, 0
2, 42960, Note_on_c, 0, 62, 62
2, 43020, Note_on_c, 0, 62, 0
2, 43020, Note_on_c, 0, 79, 0
2, 43020, Note_on_c, 0, 74, 0
2, 43020, Note_on_c, 0, 74, 91
2, 43020, Note_on_c, 0, 82, 91
2, 43020, Note_on_c, 0, 58, 67
2, 43079, Note_on_c, 0, 58, 0
2, 43079, Note_on_c, 0, 55, 69
2, 43140, Note_on_c, 0, 55, 0
2, 43140, Control_c, 0, 64, 0
2, 43140, Note_on_c, 0, 50, 66
2, 43200, Note_on_c, 0, 50, 0
2, 43200, Note_on_c, 0, 82, 0
2, 43200, Note_on_c, 0, 74, 0
2, 43200, Note_on_c, 0, 82, 83
2, 43200, Note_on_c, 0, 74, 58
2, 43200, Control_c, 0, 64, 127
2, 43200, Note_on_c, 0, 46, 65
2, 43259, Note_on_c, 0, 46, 0
2, 43259, Note_on_c, 0, 54, 75
2, 43320, Note_on_c, 0, 54, 0
2, 43320, Note_on_c, 0, 62, 81
2, 43380, Note_on_c, 0, 62, 0
2, 43380, Note_on_c, 0, 74, 0
2, 43380, Note_on_c, 0, 82, 0
2, 43380, Note_on_c, 0, 81, 81
2, 43380, Note_on_c, 0, 72, 56
2, 43439, Note_on_c, 0, 62, 65
2, 43500, Note_on_c, 0, 62, 0
2, 43500, Note_on_c, 0, 54, 60
2, 43560, Note_on_c, 0, 54, 0
2, 43560, Note_on_c, 0, 72, 0
2, 43560, Note_on_c, 0, 81, 0
2, 43560, Note_on_c, 0, 78, 78
2, 43560, Note_on_c, 0, 69, 57
2, 43619, Note_on_c, 0, 54, 67
2, 43680, Note_on_c, 0, 54, 0
2, 43680, Note_on_c, 0, 62, 82
2, 43740, Note_on_c, 0, 62, 0
2, 43740, Note_on_c, 0, 69, 0
2, 43740, Note_on_c, 0, 78, 0
2, 43740, Note_on_c, 0, 81, 85
2, 43740, Note_on_c, 0, 72, 69
2, 43799, Note_on_c, 0, 62, 61
2, 43860, Note_on_c, 0, 62, 0
2, 43860, Control_c, 0, 64, 0
2, 43860, Note_on_c, 0, 54, 61
2, 43920, Note_on_c, 0, 54, 0
2, 43920, Note_on_c, 0, 72, 0
2, 43920, Note_on_c, 0, 81, 0
2, 43920, Note_on_c, 0, 79, 79
2, 43920, Note_on_c, 0, 70, 63
2, 43920, Control_c, 0, 64, 127
2, 43920, Note_on_c, 0, 46, 62
2, 43979, Note_on_c, 0, 46, 0
2, 43979, Note_on_c, 0, 55, 76
2, 44040, Note_on_c, 0, 55, 0
2, 44040, Note_on_c, 0, 58, 76
2, 44100, Note_on_c, 0, 58, 0
2, 44100, Note_on_c, 0, 70, 0
2, 44100, Note_on_c, 0, 62, 46
2, 44159, Note_on_c, 0, 58, 66
2, 44220, Note_on_c, 0, 58, 0
2, 44220, Note_on_c, 0, 55, 65
2, 44280, Note_on_c, 0, 55, 0
2, 44280, Note_on_c, 0, 62, 0
2, 44280, Note_on_c, 0, 79, 0
2, 44280, Note_on_c, 0, 63, 62
2, 44339, Note_on_c, 0, 58, 65
2, 44400, Note_on_c, 0, 58, 0
2, 44400, Note_on_c, 0, 55, 66
2, 44460, Note_on_c, 0, 55, 0
2, 44460, Note_on_c, 0, 63, 0
2, 44460, Note_on_c, 0, 65, 63
2, 44460, Control_c, 0, 64, 0
2, 44519, Note_on_c, 0, 58, 62
2, 44580, Note_on_c, 0, 58, 0
2, 44580, Note_on_c, 0, 55, 70
2, 44640, Note_on_c, 0, 55, 0
2, 44640, Note_on_c, 0, 65, 0
2, 44640, Note_on_c, 0, 56, 68
2, 44640, Note_on_c, 0, 60, 68
2, 44640, Note_on_c, 0, 62, 68
2, 44640, Note_on_c, 0, 67, 68
2, 44640, Control_c, 0, 64, 127
2, 44640, Note_on_c, 0, 34, 62
2, 44654, Note_on_c, 0, 41, 62
2, 44668, Note_on_c, 0, 46, 62
2, 44682, Note_on_c, 0, 50, 62
2, 44699, Note_on_c, 0, 50, 0
2, 44699, Note_on_c, 0, 46, 0
2, 44699, Note_on_c, 0, 34, 0
2, 44699, Note_on_c, 0, 41, 0
2, 44699, Note_on_c, 0, 56, 76
2, 44760, Note_on_c, 0, 56, 0
2, 44760, Note_on_c, 0, 62, 77
2, 44820, Note_on_c, 0, 62, 0
2, 44820, Note_on_c, 0, 56, 0
2, 44820, Note_on_c, 0, 60, 0
2, 44820, Note_on_c, 0, 62, 0
2, 44820, Note_on_c, 0, 67, 0
2, 44820, Note_on_c, 0, 82, 81
2, 44820, Note_on_c, 0, 70, 72
2, 44820, Note_on_c, 0, 74, 72
2, 44879, Note_on_c, 0, 62, 65
2, 44940, Note_on_c, 0, 62, 0
2, 44940, Note_on_c, 0, 56, 63
2, 45000, Note_on_c, 0, 56, 0
2, 45000, Note_on_c, 0, 74, 0
2, 45000, Note_on_c, 0, 70, 0
2, 45000, Note_on_c, 0, 82, 0
2, 45000, Note_on_c, 0, 79, 77
2, 45000, Note_on_c, 0, 70, 56
2, 45000, Control_c, 0, 64, 0
2, 45059, Note_on_c, 0, 62, 62
2, 45120, Note_on_c, 0, 62, 0
2, 45120, Note_on_c, 0, 56, 63
2, 45180, Note_on_c, 0, 56, 0
2, 45180, Note_on_c, 0, 70, 0
2, 45180, Note_on_c, 0, 72, 65
2, 45239, Note_on_c, 0, 62, 68
2, 45270, Note_on_c, 0, 79, 0
2, 45270, Note_on_c, 0, 77, 78
2, 45300, Note_on_c, 0, 62, 0
2, 45300, Note_on_c, 0, 56, 62
2, 45360, Note_on_c, 0, 56, 0
2, 45360, Note_on_c, 0, 77, 0
2, 45360, Note_on_c, 0, 72, 0
2, 45360, Note_on_c, 0, 77, 80
2, 45360, Note_on_c, 0, 74, 64
2, 45360, Control_c, 0, 64, 127
2, 45360, Note_on_c, 0, 65, 86
2, 45360, Note_on_c, 0, 67, 86
2, 45360, Note_on_c, 0, 70, 86
2, 45360, Note_on_c, 0, 39, 65
2, 45480, Note_on_c, 0, 39, 0
2, 45480, Note_on_c, 0, 46, 83
2, 45540, Note_on_c, 0, 46, 0
2, 45540, Note_on_c, 0, 74, 0
2, 45540, Note_on_c, 0, 72, 61
2, 45540, Note_on_c, 0, 55, 87
2, 45599, Note_on_c, 0, 55, 0
2, 45599, Note_on_c, 0, 46, 70
2, 45630, Note_on_c, 0, 77, 0
2, 45630, Note_on_c, 0, 75, 77
2, 45660, Note_on_c, 0, 46, 0
2, 45660, Note_on_c, 0, 55, 82
2, 45720, Note_on_c, 0, 55, 0
2, 45720, Note_on_c, 0, 75, 0
2, 45720, Note_on_c, 0, 70, 0
2, 45720, Note_on_c, 0, 67, 0
2, 45720, Note_on_c, 0, 65, 0
2, 45720, Note_on_c, 0, 72, 0
2, 45720, Note_on_c, 0, 63, 82
2, 45720, Note_on_c, 0, 75, 82
2, 45720, Note_on_c, 0, 67, 50
2, 45720, Note_on_c, 0, 70, 50
2, 45720, Note_on_c, 0, 58, 79
2, 45779, Note_on_c, 0, 58, 0
2, 45779, Note_on_c, 0, 46, 65
2, 45840, Note_on_c, 0, 46, 0
2, 45840, Note_on_c, 0, 55, 83
2, 45900, Note_on_c, 0, 55, 0
2, 45900, Note_on_c, 0, 67, 0
2, 45900, Note_on_c, 0, 70, 0
2, 45900, Note_on_c, 0, 68, 57
2, 45900, Note_on_c, 0, 46, 67
2, 45959, Note_on_c, 0, 46, 0
2, 45959, Control_c, 0, 64, 0
2, 45959, Note_on_c, 0, 55, 80
2, 46020, Note_on_c, 0, 55, 0
2, 46020, Note_on_c, 0, 46, 70
2, 46080, Note_on_c, 0, 46, 0
2, 46080, Note_on_c, 0, 63, 0
2, 46080, Note_on_c, 0, 75, 0
2, 46080, Note_on_c, 0, 68, 0
2, 46080, Note_on_c, 0, 67, 53
2, 46080, Control_c, 0, 64, 127
2, 46080, Note_on_c, 0, 39, 69
2, 46139, Note_on_c, 0, 39, 0
2, 46139, Note_on_c, 0, 46, 84
2, 46200, Note_on_c, 0, 46, 0
2, 46200, Note_on_c, 0, 55, 86
2, 46260, Note_on_c, 0, 55, 0
2, 46260, Note_on_c, 0, 75, 79
2, 46260, Note_on_c, 0, 63, 54
2, 46260, Note_on_c, 0, 46, 68
2, 46319, Note_on_c, 0, 46, 0
2, 46319, Note_on_c, 0, 55, 86
2, 46380, Note_on_c, 0, 55, 0
2, 46380, Note_on_c, 0, 46, 69
2, 46440, Note_on_c, 0, 46, 0
2, 46440, Note_on_c, 0, 67, 0
2, 46440, Note_on_c, 0, 75, 0
2, 46440, Note_on_c, 0, 63, 0
2, 46440, Note_on_c, 0, 75, 81
2, 46440, Note_on_c, 0, 67, 60
2, 46499, Note_on_c, 0, 58, 68
2, 46560, Note_on_c, 0, 58, 0
2, 46560, Note_on_c, 0, 46, 71
2, 46620, Note_on_c, 0, 46, 0
2, 46620, Note_on_c, 0, 67, 0
2, 46620, Note_on_c, 0, 75, 0
2, 46620, Note_on_c, 0, 74, 78
2, 46620, Note_on_c, 0, 68, 64
2, 46620, Control_c, 0, 64, 0
2, 46620, Note_on_c, 0, 58, 85
2, 46679, Note_on_c, 0, 58, 0
2, 46679, Note_on_c, 0, 46, 66
2, 46740, Note_on_c, 0, 46, 0
2, 46740, Note_on_c, 0, 58, 89
2, 46800, Note_on_c, 0, 58, 0
2, 46800, Note_on_c, 0, 68, 0
2, 46800, Note_on_c, 0, 74, 0
2, 46800, Note_on_c, 0, 73, 77
2, 46800, Note_on_c, 0, 69, 62
2, 46800, Control_c, 0, 64, 127
2, 46800, Note_on_c, 0, 40, 67
2, 46859, Note_on_c, 0, 40, 0
2, 46859, Note_on_c, 0, 49, 75
2, 46920, Note_on_c, 0, 49, 0
2, 46920, Note_on_c, 0, 55, 80
2, 46980, Note_on_c, 0, 55, 0
2, 46980, Note_on_c, 0, 57, 77
2, 47039, Note_on_c, 0, 57, 0
2, 47039, Note_on_c, 0, 61, 75
2, 47100, Note_on_c, 0, 61, 0
2, 47100, Note_on_c, 0, 67, 84
2, 47160, Note_on_c, 0, 67, 0
2, 47160, Note_on_c, 0, 69, 0
2, 47160, Note_on_c, 0, 73, 80
2, 47160, Note_on_c, 0, 76, 80
2, 47160, Note_on_c, 0, 81, 80
2, 47160, Control_c, 0, 64, 0
2, 47160, Control_c, 0, 64, 127
2, 47160, Note_on_c, 0, 69, 76
2, 47219, Note_on_c, 0, 69, 0
2, 47219, Note_on_c, 0, 67, 68
2, 47280, Note_on_c, 0, 67, 0
2, 47280, Note_on_c, 0, 61, 54
2, 47340, Note_on_c, 0, 61, 0
2, 47340, Note_on_c, 0, 76, 0
2, 47340, Note_on_c, 0, 81, 0
2, 47340, Note_on_c, 0, 73, 0
2, 47340, Note_on_c, 0, 68, 48
2, 47340, Note_on_c, 0, 57, 67
2, 47399, Note_on_c, 0, 57, 0
2, 47399, Note_on_c, 0, 55, 75
2, 47460, Note_on_c, 0, 55, 0
2, 47460, Control_c, 0, 64, 0
2, 47460, Note_on_c, 0, 49, 64
2, 47520, Note_on_c, 0, 49, 0
2, 47520, Note_on_c, 0, 68, 0
2, 47520, Note_on_c, 0, 73, 0
2, 47520, Note_on_c, 0, 69, 62
2, 47520, Control_c, 0, 64, 127
2, 47520, Note_on_c, 0, 41, 64
2, 47579, Note_on_c, 0, 41, 0
2, 47579, Note_on_c, 0, 51, 78
2, 47640, Note_on_c, 0, 51, 0
2, 47640, Note_on_c, 0, 57, 77
2, 47700, Note_on_c, 0, 57, 0
2, 47700, Note_on_c, 0, 60, 78
2, 47759, Note_on_c, 0, 60, 0
2, 47759, Note_on_c, 0, 63, 75
2, 47820, Note_on_c, 0, 63, 0
2, 47820, Control_c, 0, 64, 0
2, 47820, Note_on_c, 0, 69, 81
2, 47880, Note_on_c, 0, 69, 0
2, 47880, Note_on_c, 0, 69, 0
2, 47880, Note_on_c, 0, 72, 76
2, 47880, Control_c, 0, 64, 127
2, 47880, Note_on_c, 0, 72, 76
2, 47939, Note_on_c, 0, 72, 0
2, 47939, Note_on_c, 0, 69, 65
2, 48000, Note_on_c, 0, 69, 0
2, 48000, Note_on_c, 0, 63, 57
2, 48060, Note_on_c, 0, 63, 0
2, 48060, Note_on_c, 0, 60, 65
2, 48119, Note_on_c, 0, 60, 0
2, 48119, Note_on_c, 0, 57, 68
2, 48180, Note_on_c, 0, 57, 0
2, 48180, Control_c, 0, 64, 0
2, 48180, Note_on_c, 0, 51, 62
2, 48240, Note_on_c, 0, 51, 0
2, 48240, Note_on_c, 0, 72, 0
2, 48240, Note_on_c, 0, 71, 76
2, 48240, Note_on_c, 0, 63, 63
2, 48240, Note_on_c, 0, 69, 63
2, 48240, Control_c, 0, 64, 127
2, 48240, Note_on_c, 0, 42, 63
2, 48299, Note_on_c, 0, 42, 0
2, 48299, Note_on_c, 0, 51, 74
2, 48360, Note_on_c, 0, 51, 0
2, 48360, Note_on_c, 0, 57, 74
2, 48420, Note_on_c, 0, 57, 0
2, 48420, Note_on_c, 0, 59, 74
2, 48479, Note_on_c, 0, 59, 0
2, 48479, Note_on_c, 0, 63, 80
2, 48540, Note_on_c, 0, 63, 0
2, 48540, Note_on_c, 0, 69, 80
2, 48600, Note_on_c, 0, 69, 0
2, 48600, Note_on_c, 0, 63, 0
2, 48600, Note_on_c, 0, 69, 0
2, 48600, Note_on_c, 0, 81, 77
2, 48600, Control_c, 0, 64, 0
2, 48600, Control_c, 0, 64, 127
2, 48600, Note_on_c, 0, 71, 79
2, 48659, Note_on_c, 0, 71, 0
2, 48659, Note_on_c, 0, 69, 66
2, 48720, Note_on_c, 0, 69, 0
2, 48720, Note_on_c, 0, 63, 57
2, 48780, Note_on_c, 0, 63, 0
2, 48780, Note_on_c, 0, 71, 0
2, 48780, Note_on_c, 0, 81, 0
2, 48780, Note_on_c, 0, 71, 82
2, 48780, Note_on_c, 0, 59, 68
2, 48839, Note_on_c, 0, 59, 0
2, 48839, Note_on_c, 0, 57, 70
2, 48900, Note_on_c, 0, 57, 0
2, 48900, Control_c, 0, 64, 0
2, 48900, Note_on_c, 0, 51, 63
2, 48960, Note_on_c, 0, 51, 0
2, 48960, Note_on_c, 0, 71, 0
2, 48960, Note_on_c, 0, 70, 79
2, 48960, Note_on_c, 0, 63, 57
2, 48960, Control_c, 0, 64, 127
2, 48960, Note_on_c, 0, 43, 62
2, 49019, Note_on_c, 0, 43, 0
2, 49019, Note_on_c, 0, 51, 75
2, 49080, Note_on_c, 0, 51, 0
2, 49080, Note_on_c, 0, 58, 79
2, 49140, Note_on_c, 0, 58, 0
2, 49140, Note_on_c, 0, 63, 0
2, 49140, Note_on_c, 0, 70, 0
2, 49140, Note_on_c, 0, 72, 88
2, 49140, Note_on_c, 0, 67, 71
2, 49140, Note_on_c, 0, 70, 71
2, 49140, Note_on_c, 0, 60, 78
2, 49199, Note_on_c, 0, 60, 0
2, 49199, Note_on_c, 0, 61, 77
2, 49260, Note_on_c, 0, 61, 0
2, 49260, Control_c, 0, 64, 0
2, 49260, Note_on_c, 0, 63, 76
2, 49320, Note_on_c, 0, 63, 0
2, 49320, Note_on_c, 0, 72, 0
2, 49320, Note_on_c, 0, 67, 0
2, 49320, Note_on_c, 0, 70, 0
2, 49320, Note_on_c, 0, 73, 93
2, 49320, Note_on_c, 0, 64, 61
2, 49320, Note_on_c, 0, 70, 61
2, 49320, Control_c, 0, 64, 127
2, 49320, Note_on_c, 0, 42, 64
2, 49379, Note_on_c, 0, 42, 0
2, 49379, Note_on_c, 0, 52, 76
2, 49440, Note_on_c, 0, 52, 0
2, 49440, Note_on_c, 0, 58, 79
2, 49500, Note_on_c, 0, 58, 0
2, 49500, Note_on_c, 0, 73, 0
2, 49500, Note_on_c, 0, 64, 0
2, 49500, Note_on_c, 0, 70, 0
2, 49500, Note_on_c, 0, 76, 94
2, 49500, Note_on_c, 0, 70, 66
2, 49500, Note_on_c, 0, 60, 78
2, 49559, Note_on_c, 0, 60, 0
2, 49559, Note_on_c, 0, 61, 72
2, 49620, Note_on_c, 0, 61, 0
2, 49620, Control_c, 0, 64, 0
2, 49620, Note_on_c, 0, 64, 73
2, 49680, Note_on_c, 0, 64, 0
2, 49680, Note_on_c, 0, 70, 0
2, 49680, Note_on_c, 0, 76, 0
2, 49680, Note_on_c, 0, 77, 90
2, 49680, Note_on_c, 0, 70, 68
2, 49680, Note_on_c, 0, 74, 68
2, 49680, Control_c, 0, 64, 127
2, 49680, Note_on_c, 0, 41, 63
2, 49739, Note_on_c, 0, 41, 0
2, 49739, Note_on_c, 0, 50, 78
2, 49800, Note_on_c, 0, 50, 0
2, 49800, Note_on_c, 0, 53, 73
2, 49860, Note_on_c, 0, 53, 0
2, 49860, Note_on_c, 0, 58, 79
2, 49919, Note_on_c, 0, 58, 0
2, 49919, Note_on_c, 0, 62, 83
2, 49980, Note_on_c, 0, 62, 0
2, 49980, Note_on_c, 0, 65, 75
2, 50040, Note_on_c, 0, 65, 0
2, 50040, Note_on_c, 0, 74, 0
2, 50040, Note_on_c, 0, 70, 0
2, 50040, Note_on_c, 0, 77, 0
2, 50040, Note_on_c, 0, 74, 75
2, 50040, Note_on_c, 0, 70, 55
2, 50040, Note_on_c, 0, 67, 80
2, 50099, Note_on_c, 0, 67, 0
2, 50099, Note_on_c, 0, 65, 65
2, 50160, Note_on_c, 0, 65, 0
2, 50160, Note_on_c, 0, 62, 62
2, 50220, Note_on_c, 0, 62, 0
2, 50220, Note_on_c, 0, 70, 0
2, 50220, Note_on_c, 0, 74, 0
2, 50220, Note_on_c, 0, 77, 90
2, 50220, Note_on_c, 0, 70, 66
2, 50220, Note_on_c, 0, 74, 66
2, 50220, Note_on_c, 0, 58, 66
2, 50279, Note_on_c, 0, 58, 0
2, 50279, Note_on_c, 0, 53, 65
2, 50340, Note_on_c, 0, 53, 0
2, 50340, Control_c, 0, 64, 0
2, 50340, Note_on_c, 0, 50, 69
2, 50400, Note_on_c, 0, 50, 0
2, 50400, Note_on_c, 0, 77, 0
2, 50400, Note_on_c, 0, 70, 0
2, 50400, Note_on_c, 0, 74, 0
2, 50400, Note_on_c, 0, 79, 90
2, 50400, Note_on_c, 0, 70, 63
2, 50400, Note_on_c, 0, 74, 63
2, 50400, Control_c, 0, 64, 127
2, 50400, Note_on_c, 0, 41, 61
2, 50459, Note_on_c, 0, 41, 0
2, 50459, Note_on_c, 0, 50, 81
2, 50520, Note_on_c, 0, 50, 0
2, 50520, Note_on_c, 0, 53, 71
2, 50580, Note_on_c, 0, 53, 0
2, 50580, Note_on_c, 0, 79, 0
2, 50580, Note_on_c, 0, 70, 0
2, 50580, Note_on_c, 0, 74, 0
2, 50580, Note_on_c, 0, 77, 82
2, 50580, Note_on_c, 0, 70, 58
2, 50580, Note_on_c, 0, 74, 58
2, 50580, Note_on_c, 0, 58, 74
2, 50639, Note_on_c, 0, 58, 0
2, 50639, Note_on_c, 0, 62, 77
2, 50700, Note_on_c, 0, 62, 0
2, 50700, Note_on_c, 0, 65, 77
2, 50760, Note_on_c, 0, 65, 0
2, 50760, Note_on_c, 0, 77, 0
2, 50760, Note_on_c, 0, 70, 0
2, 50760, Note_on_c, 0, 74, 0
2, 50760, Note_on_c, 0, 79, 90
2, 50760, Note_on_c, 0, 70, 61
2, 50760, Note_on_c, 0, 74, 61
2, 50760, Note_on_c, 0, 67, 79
2, 50819, Note_on_c, 0, 67, 0
2, 50819, Note_on_c, 0, 65, 70
2, 50880, Note_on_c, 0, 65, 0
2, 50880, Note_on_c, 0, 62, 60
2, 50940, Note_on_c, 0, 62, 0
2, 50940, Note_on_c, 0, 79, 0
2, 50940, Note_on_c, 0, 70, 0
2, 50940, Note_on_c, 0, 74, 0
2, 50940, Note_on_c, 0, 82, 92
2, 50940, Note_on_c, 0, 74, 64
2, 50940, Note_on_c, 0, 77, 64
2, 50940, Note_on_c, 0, 58, 70
2, 50999, Note_on_c, 0, 58, 0
2, 50999, Note_on_c, 0, 53, 67
2, 51060, Note_on_c, 0, 53, 0
2, 51060, Control_c, 0, 64, 0
2, 51060, Note_on_c, 0, 50, 68
2, 51120, Note_on_c, 0, 50, 0
2, 51120, Note_on_c, 0, 82, 0
2, 51120, Note_on_c, 0, 74, 0
2, 51120, Note_on_c, 0, 77, 0
2, 51120, Note_on_c, 0, 70, 84
2, 51120, Note_on_c, 0, 82, 84
2, 51120, Note_on_c, 0, 75, 61
2, 51120, Note_on_c, 0, 79, 61
2, 51120, Control_c, 0, 64, 127
2, 51120, Note_on_c, 0, 41, 59
2, 51179, Note_on_c, 0, 41, 0
2, 51179, Note_on_c, 0, 48, 77
2, 51240, Note_on_c, 0, 48, 0
2, 51240, Note_on_c, 0, 51, 78
2, 51300, Note_on_c, 0, 51, 0
2, 51300, Note_on_c, 0, 75, 0
2, 51300, Note_on_c, 0, 79, 0
2, 51300, Note_on_c, 0, 65, 46
2, 51300, Note_on_c, 0, 69, 46
2, 51300, Note_on_c, 0, 55, 77
2, 51359, Note_on_c, 0, 55, 0
2, 51359, Note_on_c, 0, 60, 83
2, 51420, Note_on_c, 0, 60, 0
2, 51420, Note_on_c, 0, 63, 79
2, 51480, Note_on_c, 0, 63, 0
2, 51480, Note_on_c, 0, 65, 0
2, 51480, Note_on_c, 0, 69, 0
2, 51480, Note_on_c, 0, 67, 57
2, 51539, Note_on_c, 0, 63, 65
2, 51600, Note_on_c, 0, 63, 0
2, 51600, Note_on_c, 0, 60, 59
2, 51660, Note_on_c, 0, 60, 0
2, 51660, Note_on_c, 0, 67, 0
2, 51660, Note_on_c, 0, 82, 0
2, 51660, Note_on_c, 0, 70, 0
2, 51660, Note_on_c, 0, 72, 88
2, 51660, Note_on_c, 0, 84, 88
2, 51660, Note_on_c, 0, 75, 76
2, 51660, Note_on_c, 0, 79, 76
2, 51660, Note_on_c, 0, 55, 67
2, 51719, Note_on_c, 0, 55, 0
2, 51719, Note_on_c, 0, 51, 68
2, 51780, Note_on_c, 0, 51, 0
2, 51780, Note_on_c, 0, 48, 63
2, 51840, Note_on_c, 0, 48, 0
2, 51840, Note_on_c, 0, 75, 0
2, 51840, Note_on_c, 0, 72, 0
2, 51840, Note_on_c, 0, 84, 0
2, 51840, Note_on_c, 0, 79, 0
2, 51840, Note_on_c, 0, 74, 89
2, 51840, Note_on_c, 0, 86, 89
2, 51840, Note_on_c, 0, 77, 66
2, 51840, Note_on_c, 0, 81, 66
2, 51840, Control_c, 0, 64, 0
2, 51840, Control_c, 0, 64, 127
2, 51840, Note_on_c, 0, 41, 68
2, 51899, Note_on_c, 0, 41, 0
2, 51899, Note_on_c, 0, 48, 73
2, 51960, Note_on_c, 0, 48, 0
2, 51960, Note_on_c, 0, 51, 78
2, 52020, Note_on_c, 0, 51, 0
2, 52020, Note_on_c, 0, 77, 0
2, 52020, Note_on_c, 0, 74, 0
2, 52020, Note_on_c, 0, 86, 0
2, 52020, Note_on_c, 0, 81, 0
2, 52020, Note_on_c, 0, 72, 80
2, 52020, Note_on_c, 0, 84, 80
2, 52020, Note_on_c, 0, 75, 54
2, 52020, Note_on_c, 0, 79, 54
2, 52020, Note_on_c, 0, 57, 77
2, 52079, Note_on_c, 0, 57, 0
2, 52079, Note_on_c, 0, 60, 80
2, 52140, Note_on_c, 0, 60, 0
2, 52140, Note_on_c, 0, 63, 73
2, 52200, Note_on_c, 0, 63, 0
2, 52200, Note_on_c, 0, 75, 0
2, 52200, Note_on_c, 0, 72, 0
2, 52200, Note_on_c, 0, 84, 0
2, 52200, Note_on_c, 0, 79, 0
2, 52200, Note_on_c, 0, 74, 87
2, 52200, Note_on_c, 0, 86, 87
2, 52200, Note_on_c, 0, 77, 64
2, 52200, Note_on_c, 0, 81, 64
2, 52200, Note_on_c, 0, 69, 82
2, 52259, Note_on_c, 0, 69, 0
2, 52259, Note_on_c, 0, 63, 60
2, 52320, Note_on_c, 0, 63, 0
2, 52320, Note_on_c, 0, 60, 61
2, 52380, Note_on_c, 0, 60, 0
2, 52380, Note_on_c, 0, 77, 0
2, 52380, Note_on_c, 0, 74, 0
2, 52380, Note_on_c, 0, 86, 0
2, 52380, Note_on_c, 0, 81, 0
2, 52380, Note_on_c, 0, 77, 91
2, 52380, Note_on_c, 0, 89, 91
2, 52380, Note_on_c, 0, 81, 70
2, 52380, Note_on_c, 0, 84, 70
2, 52380, Note_on_c, 0, 53, 63
2, 52439, Note_on_c, 0, 53, 0
2, 52439, Note_on_c, 0, 60, 82
2, 52500, Note_on_c, 0, 60, 0
2, 52500, Control_c, 0, 64, 0
2, 52500, Note_on_c, 0, 63, 76
2, 52560, Note_on_c, 0, 63, 0
2, 52560, Note_on_c, 0, 81, 0
2, 52560, Note_on_c, 0, 77, 0
2, 52560, Note_on_c, 0, 89, 0
2, 52560, Note_on_c, 0, 84, 0
2, 52560, Note_on_c, 0, 94, 69
2, 52560, Note_on_c, 0, 82, 43
2, 52560, Note_on_c, 0, 74, 77
2, 52560, Note_on_c, 0, 53, 86
2, 52560, Note_on_c, 0, 62, 86
2, 52560, Note_on_c, 0, 65, 86
2, 52560, Note_on_c, 0, 70, 86
2, 52619, Note_on_c, 0, 82, 0
2, 52619, Note_on_c, 0, 89, 73
2, 52680, Note_on_c, 0, 89, 0
2, 52680, Note_on_c, 0, 86, 59
2, 52740, Note_on_c, 0, 86, 0
2, 52740, Note_on_c, 0, 65, 0
2, 52740, Note_on_c, 0, 62, 0
2, 52740, Note_on_c, 0, 53, 0
2, 52740, Note_on_c, 0, 94, 0
2, 52740, Note_on_c, 0, 70, 0
2, 52740, Note_on_c, 0, 93, 76
2, 52740, Note_on_c, 0, 81, 50
2, 52740, Control_c, 0, 64, 127
2, 52740, Note_on_c, 0, 34, 57
2, 52799, Note_on_c, 0, 81, 0
2, 52799, Note_on_c, 0, 89, 70
2, 52830, Note_on_c, 0, 34, 0
2, 52830, Note_on_c, 0, 41, 74
2, 52860, Note_on_c, 0, 89, 0
2, 52860, Note_on_c, 0, 86, 57
2, 52920, Note_on_c, 0, 86, 0
2, 52920, Note_on_c, 0, 41, 0
2, 52920, Note_on_c, 0, 93, 0
2, 52920, Note_on_c, 0, 91, 76
2, 52920, Note_on_c, 0, 79, 51
2, 52920, Note_on_c, 0, 50, 79
2, 52979, Note_on_c, 0, 79, 0
2, 52979, Note_on_c, 0, 89, 74
2, 53010, Note_on_c, 0, 50, 0
2, 53010, Note_on_c, 0, 53, 76
2, 53040, Note_on_c, 0, 89, 0
2, 53040, Note_on_c, 0, 86, 58
2, 53100, Note_on_c, 0, 86, 0
2, 53100, Note_on_c, 0, 53, 0
2, 53100, Note_on_c, 0, 91, 0
2, 53100, Note_on_c, 0, 93, 89
2, 53100, Note_on_c, 0, 81, 46
2, 53100, Control_c, 0, 64, 0
2, 53100, Note_on_c, 0, 62, 82
2, 53159, Note_on_c, 0, 81, 0
2, 53159, Note_on_c, 0, 89, 67
2, 53220, Note_on_c, 0, 89, 0
2, 53220, Note_on_c, 0, 86, 56
2, 53280, Note_on_c, 0, 86, 0
2, 53280, Note_on_c, 0, 74, 0
2, 53280, Note_on_c, 0, 93, 0
2, 53280, Note_on_c, 0, 62, 0
2, 53280, Note_on_c, 0, 91, 79
2, 53280, Note_on_c, 0, 79, 46
2, 53280, Note_on_c, 0, 72, 74
2, 53339, Note_on_c, 0, 79, 0
2, 53339, Note_on_c, 0, 86, 69
2, 53370, Note_on_c, 0, 65, 56
2, 53400, Note_on_c, 0, 86, 0
2, 53400, Note_on_c, 0, 82, 59
2, 53460, Note_on_c, 0, 82, 0
2, 53460, Note_on_c, 0, 65, 0
2, 53460, Note_on_c, 0, 91, 0
2, 53460, Note_on_c, 0, 89, 77
2, 53460, Note_on_c, 0, 77, 51
2, 53460, Note_on_c, 0, 62, 55
2, 53519, Note_on_c, 0, 77, 0
2, 53519, Note_on_c, 0, 86, 71
2, 53550, Note_on_c, 0, 62, 0
2, 53550, Note_on_c, 0, 65, 67
2, 53580, Note_on_c, 0, 86, 0
2, 53580, Note_on_c, 0, 82, 61
2, 53640, Note_on_c, 0, 82, 0
2, 53640, Note_on_c, 0, 65, 0
2, 53640, Note_on_c, 0, 89, 0
2, 53640, Note_on_c, 0, 72, 0
2, 53640, Note_on_c, 0, 86, 74
2, 53640, Note_on_c, 0, 74, 50
2, 53640, Note_on_c, 0, 70, 80
2, 53699, Note_on_c, 0, 74, 0
2, 53699, Note_on_c, 0, 82, 70
2, 53730, Note_on_c, 0, 65, 55
2, 53760, Note_on_c, 0, 82, 0
2, 53760, Note_on_c, 0, 77, 50
2, 53820, Note_on_c, 0, 77, 0
2, 53820, Note_on_c, 0, 65, 0
2, 53820, Note_on_c, 0, 86, 0
2, 53820, Note_on_c, 0, 89, 92
2, 53820, Note_on_c, 0, 77, 59
2, 53820, Note_on_c, 0, 62, 54
2, 53879, Note_on_c, 0, 77, 0
2, 53879, Note_on_c, 0, 86, 73
2, 53910, Note_on_c, 0, 62, 0
2, 53910, Note_on_c, 0, 65, 62
2, 53940, Note_on_c, 0, 86, 0
2, 53940, Note_on_c, 0, 82, 52
2, 54000, Note_on_c, 0, 82, 0
2, 54000, Note_on_c, 0, 65, 0
2, 54000, Note_on_c, 0, 89, 0
2, 54000, Note_on_c, 0, 70, 0
2, 54000, Note_on_c, 0, 91, 88
2, 54000, Note_on_c, 0, 79, 57
2, 54000, Control_c, 0, 64, 127
2, 54000, Note_on_c, 0, 69, 78
2, 54000, Note_on_c, 0, 69, 70
2, 54059, Note_on_c, 0, 79, 0
2, 54059, Note_on_c, 0, 86, 74
2, 54090, Note_on_c, 0, 69, 0
2, 54090, Note_on_c, 0, 62, 51
2, 54120, Note_on_c, 0, 86, 0
2, 54120, Note_on_c, 0, 81, 57
2, 54180, Note_on_c, 0, 81, 0
2, 54180, Note_on_c, 0, 62, 0
2, 54180, Note_on_c, 0, 91, 0
2, 54180, Note_on_c, 0, 89, 77
2, 54180, Note_on_c, 0, 77, 54
2, 54180, Note_on_c, 0, 58, 56
2, 54239, Note_on_c, 0, 77, 0
2, 54239, Note_on_c, 0, 86, 70
2, 54270, Note_on_c, 0, 58, 0
2, 54270, Control_c, 0, 64, 0
2, 54270, Note_on_c, 0, 46, 51
2, 54300, Note_on_c, 0, 86, 0
2, 54300, Note_on_c, 0, 81, 51
2, 54360, Note_on_c, 0, 81, 0
2, 54360, Note_on_c, 0, 46, 0
2, 54360, Note_on_c, 0, 89, 0
2, 54360, Note_on_c, 0, 86, 74
2, 54360, Note_on_c, 0, 74, 48
2, 54360, Control_c, 0, 64, 127
2, 54360, Note_on_c, 0, 34, 49
2, 54419, Note_on_c, 0, 74, 0
2, 54419, Note_on_c, 0, 81, 70
2, 54450, Note_on_c, 0, 34, 0
2, 54450, Note_on_c, 0, 41, 66
2, 54480, Note_on_c, 0, 81, 0
2, 54480, Note_on_c, 0, 77, 54
2, 54540, Note_on_c, 0, 77, 0
2, 54540, Note_on_c, 0, 41, 0
2, 54540, Note_on_c, 0, 86, 0
2, 54540, Note_on_c, 0, 89, 84
2, 54540, Note_on_c, 0, 77, 61
2, 54540, Note_on_c, 0, 50, 66
2, 54599, Note_on_c, 0, 77, 0
2, 54599, Note_on_c, 0, 86, 77
2, 54630, Note_on_c, 0, 50, 0
2, 54630, Note_on_c, 0, 53, 62
2, 54660, Note_on_c, 0, 86, 0
2, 54660, Note_on_c, 0, 81, 51
2, 54720, Note_on_c, 0, 81, 0
2, 54720, Note_on_c, 0, 53, 0
2, 54720, Note_on_c, 0, 89, 0
2, 54720, Note_on_c, 0, 69, 0
2, 54720, Note_on_c, 0, 86, 98
2, 54720, Note_on_c, 0, 74, 67
2, 54720, Control_c, 0, 64, 0
2, 54720, Control_c, 0, 64, 127
2, 54720, Note_on_c, 0, 65, 70
2, 54779, Note_on_c, 0, 74, 0
2, 54779, Note_on_c, 0, 81, 72
2, 54810, Note_on_c, 0, 62, 56
2, 54840, Note_on_c, 0, 81, 0
2, 54840, Note_on_c, 0, 77, 60
2, 54900, Note_on_c, 0, 77, 0
2, 54900, Note_on_c, 0, 62, 0
2, 54900, Note_on_c, 0, 86, 0
2, 54900, Note_on_c, 0, 84, 85
2, 54900, Note_on_c, 0, 72, 51
2, 54900, Note_on_c, 0, 58, 56
2, 54959, Note_on_c, 0, 72, 0
2, 54959, Note_on_c, 0, 81, 75
2, 54990, Note_on_c, 0, 58, 0
2, 54990, Control_c, 0, 64, 0
2, 54990, Note_on_c, 0, 62, 65
2, 55020, Note_on_c, 0, 81, 0
2, 55020, Note_on_c, 0, 77, 54
2, 55080, Note_on_c, 0, 77, 0
2, 55080, Note_on_c, 0, 62, 0
2, 55080, Note_on_c, 0, 84, 0
2, 55080, Note_on_c, 0, 65, 0
2, 55080, Note_on_c, 0, 81, 76
2, 55080, Note_on_c, 0, 69, 50
2, 55080, Control_c, 0, 64, 127
2, 55080, Note_on_c, 0, 67, 85
2, 55139, Note_on_c, 0, 69, 0
2, 55139, Note_on_c, 0, 77, 70
2, 55170, Note_on_c, 0, 62, 56
2, 55200, Note_on_c, 0, 77, 0
2, 55200, Note_on_c, 0, 74, 56
2, 55260, Note_on_c, 0, 74, 0
2, 55260, Note_on_c, 0, 62, 0
2, 55260, Note_on_c, 0, 81, 0
2, 55260, Note_on_c, 0, 84, 84
2, 55260, Note_on_c, 0, 72, 56
2, 55260, Note_on_c, 0, 58, 56
2, 55319, Note_on_c, 0, 72, 0
2, 55319, Note_on_c, 0, 81, 78
2, 55350, Note_on_c, 0, 58, 0
2, 55350, Note_on_c, 0, 62, 67
2, 55380, Note_on_c, 0, 81, 0
2, 55380, Note_on_c, 0, 77, 61
2, 55440, Note_on_c, 0, 77, 0
2, 55440, Note_on_c, 0, 62, 0
2, 55440, Note_on_c, 0, 84, 0
2, 55440, Note_on_c, 0, 67, 0
2, 55440, Note_on_c, 0, 86, 86
2, 55440, Note_on_c, 0, 74, 50
2, 55440, Control_c, 0, 64, 0
2, 55440, Control_c, 0, 64, 127
2, 55440, Note_on_c, 0, 68, 82
2, 55440, Note_on_c, 0, 68, 68
2, 55499, Note_on_c, 0, 74, 0
2, 55499, Note_on_c, 0, 80, 69
2, 55530, Note_on_c, 0, 68, 0
2, 55530, Note_on_c, 0, 62, 56
2, 55560, Note_on_c, 0, 80, 0
2, 55560, Note_on_c, 0, 77, 55
2, 55620, Note_on_c, 0, 77, 0
2, 55620, Note_on_c, 0, 62, 0
2, 55620, Note_on_c, 0, 86, 0
2, 55620, Note_on_c, 0, 84, 80
2, 55620, Note_on_c, 0, 72, 52
2, 55620, Note_on_c, 0, 58, 55
2, 55679, Note_on_c, 0, 72, 0
2, 55679, Note_on_c, 0, 80, 68
2, 55710, Note_on_c, 0, 58, 0
2, 55710, Note_on_c, 0, 46, 51
2, 55740, Note_on_c, 0, 80, 0
2, 55740, Note_on_c, 0, 77, 57
2, 55800, Note_on_c, 0, 77, 0
2, 55800, Note_on_c, 0, 46, 0
2, 55800, Note_on_c, 0, 84, 0
2, 55800, Note_on_c, 0, 80, 76
2, 55800, Note_on_c, 0, 68, 43
2, 55800, Control_c, 0, 64, 0
2, 55800, Control_c, 0, 64, 127
2, 55800, Note_on_c, 0, 34, 54
2, 55859, Note_on_c, 0, 68, 0
2, 55859, Note_on_c, 0, 77, 71
2, 55890, Note_on_c, 0, 34, 0
2, 55890, Note_on_c, 0, 41, 65
2, 55920, Note_on_c, 0, 77, 0
2, 55920, Note_on_c, 0, 74, 56
2, 55980, Note_on_c, 0, 74, 0
2, 55980, Note_on_c, 0, 41, 0
2, 55980, Note_on_c, 0, 80, 0
2, 55980, Note_on_c, 0, 84, 92
2, 55980, Note_on_c, 0, 72, 54
2, 55980, Note_on_c, 0, 50, 66
2, 56039, Note_on_c, 0, 72, 0
2, 56039, Note_on_c, 0, 80, 70
2, 56070, Note_on_c, 0, 50, 0
2, 56070, Note_on_c, 0, 53, 63
2, 56100, Note_on_c, 0, 80, 0
2, 56100, Note_on_c, 0, 77, 60
2, 56160, Note_on_c, 0, 77, 0
2, 56160, Note_on_c, 0, 53, 0
2, 56160, Note_on_c, 0, 84, 0
2, 56160, Note_on_c, 0, 68, 0
2, 56160, Note_on_c, 0, 79, 79
2, 56160, Note_on_c, 0, 67, 45
2, 56160, Control_c, 0, 64, 0
2, 56160, Control_c, 0, 64, 127
2, 56160, Note_on_c, 0, 62, 70
2, 56219, Note_on_c, 0, 67, 0
2, 56219, Note_on_c, 0, 72, 65
2, 56250, Note_on_c, 0, 53, 55
2, 56280, Note_on_c, 0, 72, 0
2, 56280, Note_on_c, 0, 68, 56
2, 56340, Note_on_c, 0, 68, 0
2, 56340, Note_on_c, 0, 53, 0
2, 56340, Note_on_c, 0, 79, 0
2, 56340, Note_on_c, 0, 77, 78
2, 56340, Note_on_c, 0, 65, 55
2, 56340, Note_on_c, 0, 46, 56
2, 56399, Note_on_c, 0, 65, 0
2, 56399, Note_on_c, 0, 72, 72
2, 56430, Note_on_c, 0, 46, 0
2, 56430, Note_on_c, 0, 53, 65
2, 56460, Note_on_c, 0, 72, 0
2, 56460, Note_on_c, 0, 68, 58
2, 56520, Note_on_c, 0, 68, 0
2, 56520, Note_on_c, 0, 53, 0
2, 56520, Note_on_c, 0, 77, 0
2, 56520, Note_on_c, 0, 62, 0
2, 56520, Note_on_c, 0, 74, 75
2, 56520, Note_on_c, 0, 62, 48
2, 56520, Control_c, 0, 64, 0
2, 56520, Control_c, 0, 64, 127
2, 56520, Note_on_c, 0, 60, 81
2, 56579, Note_on_c, 0, 62, 0
2, 56579, Note_on_c, 0, 70, 69
2, 56610, Note_on_c, 0, 53, 53
2, 56640, Note_on_c, 0, 70, 0
2, 56640, Note_on_c, 0, 68, 57
2, 56700, Note_on_c, 0, 68, 0
2, 56700, Note_on_c, 0, 53, 0
2, 56700, Note_on_c, 0, 74, 0
2, 56700, Note_on_c, 0, 77, 89
2, 56700, Note_on_c, 0, 65, 56
2, 56700, Note_on_c, 0, 46, 54
2, 56759, Note_on_c, 0, 65, 0
2, 56759, Note_on_c, 0, 74, 73
2, 56790, Note_on_c, 0, 46, 0
2, 56790, Control_c, 0, 64, 0
2, 56790, Note_on_c, 0, 53, 63
2, 56820, Note_on_c, 0, 74, 0
2, 56820, Note_on_c, 0, 70, 53
2, 56880, Note_on_c, 0, 70, 0
2, 56880, Note_on_c, 0, 53, 0
2, 56880, Note_on_c, 0, 77, 0
2, 56880, Note_on_c, 0, 60, 0
2, 56880, Note_on_c, 0, 77, 81
2, 56880, Note_on_c, 0, 65, 51
2, 56880, Control_c, 0, 64, 127
2, 56880, Note_on_c, 0, 58, 63
2, 56939, Note_on_c, 0, 65, 0
2, 56939, Note_on_c, 0, 70, 68
2, 56970, Note_on_c, 0, 55, 67
2, 57000, Note_on_c, 0, 70, 0
2, 57000, Note_on_c, 0, 67, 58
2, 57060, Note_on_c, 0, 67, 0
2, 57060, Note_on_c, 0, 55, 0
2, 57060, Note_on_c, 0, 77, 0
2, 57060, Note_on_c, 0, 75, 77
2, 57060, Note_on_c, 0, 63, 52
2, 57060, Note_on_c, 0, 46, 66
2, 57119, Note_on_c, 0, 63, 0
2, 57119, Note_on_c, 0, 70, 68
2, 57150, Note_on_c, 0, 46, 0
2, 57150, Control_c, 0, 64, 0
2, 57150, Note_on_c, 0, 55, 81
2, 57180, Note_on_c, 0, 70, 0
2, 57180, Note_on_c, 0, 67, 54
2, 57240, Note_on_c, 0, 67, 0
2, 57240, Note_on_c, 0, 55, 0
2, 57240, Note_on_c, 0, 75, 0
2, 57240, Note_on_c, 0, 58, 0
2, 57240, Note_on_c, 0, 79, 88
2, 57240, Note_on_c, 0, 67, 60
2, 57240, Control_c, 0, 64, 127
2, 57240, Note_on_c, 0, 60, 74
2, 57299, Note_on_c, 0, 67, 0
2, 57299, Note_on_c, 0, 75, 74
2, 57330, Note_on_c, 0, 55, 63
2, 57360, Note_on_c, 0, 75, 0
2, 57360, Note_on_c, 0, 70, 56
2, 57420, Note_on_c, 0, 70, 0
2, 57420, Note_on_c, 0, 55, 0
2, 57420, Note_on_c, 0, 79, 0
2, 57420, Note_on_c, 0, 82, 91
2, 57420, Note_on_c, 0, 70, 59
2, 57420, Note_on_c, 0, 48, 66
2, 57479, Note_on_c, 0, 70, 0
2, 57479, Note_on_c, 0, 79, 75
2, 57510, Note_on_c, 0, 48, 0
2, 57510, Control_c, 0, 64, 0
2, 57510, Note_on_c, 0, 55, 88
2, 57540, Note_on_c, 0, 79, 0
2, 57540, Note_on_c, 0, 75, 59
2, 57600, Note_on_c, 0, 75, 0
2, 57600, Note_on_c, 0, 55, 0
2, 57600, Note_on_c, 0, 82, 0
2, 57600, Note_on_c, 0, 60, 0
2, 57600, Note_on_c, 0, 77, 75
2, 57600, Note_on_c, 0, 65, 48
2, 57600, Control_c, 0, 64, 127
2, 57600, Note_on_c, 0, 62, 77
2, 57659, Note_on_c, 0, 65, 0
2, 57659, Note_on_c, 0, 70, 66
2, 57690, Note_on_c, 0, 54, 69
2, 57720, Note_on_c, 0, 70, 0
2, 57720, Note_on_c, 0, 66, 53
2, 57780, Note_on_c, 0, 66, 0
2, 57780, Note_on_c, 0, 54, 0
2, 57780, Note_on_c, 0, 77, 0
2, 57780, Note_on_c, 0, 75, 79
2, 57780, Note_on_c, 0, 63, 53
2, 57780, Note_on_c, 0, 46, 65
2, 57839, Note_on_c, 0, 63, 0
2, 57839, Note_on_c, 0, 70, 72
2, 57870, Note_on_c, 0, 46, 0
2, 57870, Control_c, 0, 64, 0
2, 57870, Note_on_c, 0, 54, 89
2, 57900, Note_on_c, 0, 70, 0
2, 57900, Note_on_c, 0, 66, 53
2, 57960, Note_on_c, 0, 66, 0
2, 57960, Note_on_c, 0, 54, 0
2, 57960, Note_on_c, 0, 75, 0
2, 57960, Note_on_c, 0, 62, 0
2, 57960, Note_on_c, 0, 78, 85
2, 57960, Note_on_c, 0, 66, 64
2, 57960, Control_c, 0, 64, 127
2, 57960, Note_on_c, 0, 60, 66
2, 58019, Note_on_c, 0, 66, 0
2, 58019, Note_on_c, 0, 75, 75
2, 58050, Note_on_c, 0, 54, 67
2, 58080, Note_on_c, 0, 75, 0
2, 58080, Note_on_c, 0, 70, 53
2, 58140, Note_on_c, 0, 70, 0
2, 58140, Note_on_c, 0, 54, 0
2, 58140, Note_on_c, 0, 78, 0
2, 58140, Note_on_c, 0, 82, 89
2, 58140, Note_on_c, 0, 70, 58
2, 58140, Note_on_c, 0, 46, 70
2, 58199, Note_on_c, 0, 70, 0
2, 58199, Note_on_c, 0, 78, 73
2, 58230, Note_on_c, 0, 46, 0
2, 58230, Control_c, 0, 64, 0
2, 58230, Note_on_c, 0, 54, 80
2, 58260, Note_on_c, 0, 78, 0
2, 58260, Note_on_c, 0, 75, 55
2, 58320, Note_on_c, 0, 75, 0
2, 58320, Note_on_c, 0, 54, 0
2, 58320, Note_on_c, 0, 82, 0
2, 58320, Note_on_c, 0, 60, 0
2, 58320, Note_on_c, 0, 62, 67
2, 58320, Note_on_c, 0, 74, 67
2, 58320, Note_on_c, 0, 62, 42
2, 58320, Control_c, 0, 64, 127
2, 58320, Note_on_c, 0, 46, 58
2, 58410, Note_on_c, 0, 46, 0
2, 58410, Note_on_c, 0, 62, 0
2, 58410, Note_on_c, 0, 74, 0
2, 58410, Note_on_c, 0, 65, 67
2, 58410, Note_on_c, 0, 70, 67
2, 58410, Note_on_c, 0, 53, 72
2, 58500, Note_on_c, 0, 53, 0
2, 58500, Note_on_c, 0, 62, 0
2, 58500, Note_on_c, 0, 65, 0
2, 58500, Note_on_c, 0, 70, 0
2, 58500, Note_on_c, 0, 65, 96
2, 58500, Note_on_c, 0, 77, 96
2, 58500, Note_on_c, 0, 65, 58
2, 58500, Note_on_c, 0, 57, 72
2, 58590, Note_on_c, 0, 57, 0
2, 58590, Note_on_c, 0, 65, 0
2, 58590, Note_on_c, 0, 77, 0
2, 58590, Note_on_c, 0, 70, 78
2, 58590, Note_on_c, 0, 74, 78
2, 58590, Note_on_c, 0, 58, 74
2, 58680, Note_on_c, 0, 58, 0
2, 58680, Note_on_c, 0, 65, 0
2, 58680, Note_on_c, 0, 70, 0
2, 58680, Note_on_c, 0, 74, 0
2, 58680, Note_on_c, 0, 70, 98
2, 58680, Note_on_c, 0, 82, 98
2, 58680, Note_on_c, 0, 70, 71
2, 58680, Control_c, 0, 64, 0
2, 58680, Note_on_c, 0, 62, 79
2, 58770, Note_on_c, 0, 82, 0
2, 58770, Note_on_c, 0, 70, 0
2, 58770, Note_on_c, 0, 74, 79
2, 58770, Note_on_c, 0, 77, 79
2, 58860, Note_on_c, 0, 77, 0
2, 58860, Note_on_c, 0, 74, 0
2, 58860, Note_on_c, 0, 70, 0
2, 58860, Note_on_c, 0, 74, 102
2, 58860, Note_on_c, 0, 86, 102
2, 58860, Note_on_c, 0, 74, 66
2, 58950, Note_on_c, 0, 86, 0
2, 58950, Note_on_c, 0, 74, 0
2, 58950, Note_on_c, 0, 77, 75
2, 58950, Note_on_c, 0, 82, 75
2, 59040, Note_on_c, 0, 82, 0
2, 59040, Note_on_c, 0, 74, 0
2, 59040, Note_on_c, 0, 62, 0
2, 59040, Note_on_c, 0, 77, 0
2, 59040, Note_on_c, 0, 62, 66
2, 59040, Note_on_c, 0, 74, 66
2, 59040, Note_on_c, 0, 62, 47
2, 59040, Control_c, 0, 64, 127
2, 59040, Note_on_c, 0, 42, 63
2, 59130, Note_on_c, 0, 42, 0
2, 59130, Note_on_c, 0, 62, 0
2, 59130, Note_on_c, 0, 74, 0
2, 59130, Note_on_c, 0, 66, 70
2, 59130, Note_on_c, 0, 69, 70
2, 59130, Note_on_c, 0, 50, 77
2, 59220, Note_on_c, 0, 50, 0
2, 59220, Note_on_c, 0, 62, 0
2, 59220, Note_on_c, 0, 66, 0
2, 59220, Note_on_c, 0, 69, 0
2, 59220, Note_on_c, 0, 69, 99
2, 59220, Note_on_c, 0, 81, 99
2, 59220, Note_on_c, 0, 69, 68
2, 59220, Note_on_c, 0, 57, 73
2, 59310, Note_on_c, 0, 57, 0
2, 59310, Note_on_c, 0, 69, 0
2, 59310, Note_on_c, 0, 81, 0
2, 59310, Note_on_c, 0, 74, 83
2, 59310, Note_on_c, 0, 78, 83
2, 59310, Note_on_c, 0, 58, 74
2, 59400, Note_on_c, 0, 58, 0
2, 59400, Note_on_c, 0, 69, 0
2, 59400, Note_on_c, 0, 74, 0
2, 59400, Note_on_c, 0, 78, 0
2, 59400, Note_on_c, 0, 70, 97
2, 59400, Note_on_c, 0, 82, 97
2, 59400, Note_on_c, 0, 70, 64
2, 59400, Control_c, 0, 64, 0
2, 59400, Note_on_c, 0, 62, 83
2, 59490, Note_on_c, 0, 82, 0
2, 59490, Note_on_c, 0, 70, 0
2, 59490, Note_on_c, 0, 74, 73
2, 59490, Note_on_c, 0, 78, 73
2, 59580, Note_on_c, 0, 78, 0
2, 59580, Note_on_c, 0, 74, 0
2, 59580, Note_on_c, 0, 70, 0
2, 59580, Note_on_c, 0, 74, 95
2, 59580, Note_on_c, 0, 86, 95
2, 59580, Note_on_c, 0, 74, 69
2, 59670, Note_on_c, 0, 86, 0
2, 59670, Note_on_c, 0, 74, 0
2, 59670, Note_on_c, 0, 78, 76
2, 59670, Note_on_c, 0, 82, 76
2, 59760, Note_on_c, 0, 82, 0
2, 59760, Note_on_c, 0, 74, 0
2, 59760, Note_on_c, 0, 62, 0
2, 59760, Note_on_c, 0, 78, 0
2, 59760, Note_on_c, 0, 62, 66
2, 59760, Note_on_c, 0, 74, 66
2, 59760, Note_on_c, 0, 62, 41
2, 59760, Control_c, 0, 64, 127
2, 59760, Note_on_c, 0, 41, 63
2, 59850, Note_on_c, 0, 41, 0
2, 59850, Note_on_c, 0, 62, 0
2, 59850, Note_on_c, 0, 74, 0
2, 59850, Note_on_c, 0, 68, 71
2, 59850, Note_on_c, 0, 70, 71
2, 59850, Note_on_c, 0, 50, 72
2, 59940, Note_on_c, 0, 50, 0
2, 59940, Note_on_c, 0, 62, 0
2, 59940, Note_on_c, 0, 68, 0
2, 59940, Note_on_c, 0, 70, 0
2, 59940, Note_on_c, 0, 67, 96
2, 59940, Note_on_c, 0, 79, 96
2, 59940, Note_on_c, 0, 67, 67
2, 59940, Note_on_c, 0, 55, 74
2, 60030, Note_on_c, 0, 55, 0
2, 60030, Note_on_c, 0, 67, 0
2, 60030, Note_on_c, 0, 79, 0
2, 60030, Note_on_c, 0, 70, 78
2, 60030, Note_on_c, 0, 74, 78
2, 60030, Note_on_c, 0, 56, 71
2, 60120, Note_on_c, 0, 56, 0
2, 60120, Note_on_c, 0, 67, 0
2, 60120, Note_on_c, 0, 70, 0
2, 60120, Note_on_c, 0, 74, 0
2, 60120, Note_on_c, 0, 68, 92
2, 60120, Note_on_c, 0, 80, 92
2, 60120, Note_on_c, 0, 68, 63
2, 60120, Control_c, 0, 64, 0
2, 60120, Note_on_c, 0, 62, 83
2, 60210, Note_on_c, 0, 80, 0
2, 60210, Note_on_c, 0, 68, 0
2, 60210, Note_on_c, 0, 74, 77
2, 60210, Note_on_c, 0, 77, 77
2, 60300, Note_on_c, 0, 77, 0
2, 60300, Note_on_c, 0, 74, 0
2, 60300, Note_on_c, 0, 68, 0
2, 60300, Note_on_c, 0, 74, 99
2, 60300, Note_on_c, 0, 86, 99
2, 60300, Note_on_c, 0, 74, 68
2, 60390, Note_on_c, 0, 86, 0
2, 60390, Note_on_c, 0, 74, 0
2, 60390, Note_on_c, 0, 80, 76
2, 60390, Note_on_c, 0, 82, 76
2, 60480, Note_on_c, 0, 82, 0
2, 60480, Note_on_c, 0, 74, 0
2, 60480, Note_on_c, 0, 62, 0
2, 60480, Note_on_c, 0, 80, 0
2, 60480, Note_on_c, 0, 62, 62
2, 60480, Note_on_c, 0, 74, 62
2, 60480, Note_on_c, 0, 62, 44
2, 60480, Control_c, 0, 64, 127
2, 60480, Note_on_c, 0, 40, 66
2, 60570, Note_on_c, 0, 40, 0
2, 60570, Note_on_c, 0, 62, 0
2, 60570, Note_on_c, 0, 74, 0
2, 60570, Note_on_c, 0, 67, 75
2, 60570, Note_on_c, 0, 70, 75
2, 60570, Note_on_c, 0, 50, 79
2, 60660, Note_on_c, 0, 50, 0
2, 60660, Note_on_c, 0, 62, 0
2, 60660, Note_on_c, 0, 67, 0
2, 60660, Note_on_c, 0, 70, 0
2, 60660, Note_on_c, 0, 66, 101
2, 60660, Note_on_c, 0, 78, 101
2, 60660, Note_on_c, 0, 66, 68
2, 60660, Note_on_c, 0, 54, 77
2, 60750, Note_on_c, 0, 54, 0
2, 60750, Note_on_c, 0, 66, 0
2, 60750, Note_on_c, 0, 78, 0
2, 60750, Note_on_c, 0, 70, 75
2, 60750, Note_on_c, 0, 74, 75
2, 60750, Note_on_c, 0, 55, 72
2, 60840, Note_on_c, 0, 55, 0
2, 60840, Note_on_c, 0, 66, 0
2, 60840, Note_on_c, 0, 70, 0
2, 60840, Note_on_c, 0, 74, 0
2, 60840, Note_on_c, 0, 67, 97
2, 60840, Note_on_c, 0, 79, 97
2, 60840, Note_on_c, 0, 67, 66
2, 60840, Control_c, 0, 64, 0
2, 60840, Note_on_c, 0, 62, 84
2, 60930, Note_on_c, 0, 79, 0
2, 60930, Note_on_c, 0, 67, 0
2, 60930, Note_on_c, 0, 70, 72
2, 60930, Note_on_c, 0, 74, 72
2, 61020, Note_on_c, 0, 74, 0
2, 61020, Note_on_c, 0, 70, 0
2, 61020, Note_on_c, 0, 67, 0
2, 61020, Note_on_c, 0, 74, 105
2, 61020, Note_on_c, 0, 86, 105
2, 61020, Note_on_c, 0, 74, 67
2, 61110, Note_on_c, 0, 86, 0
2, 61110, Note_on_c, 0, 74, 0
2, 61110, Note_on_c, 0, 79, 78
2, 61110, Note_on_c, 0, 82, 78
2, 61200, Note_on_c, 0, 82, 0
2, 61200, Note_on_c, 0, 74, 0
2, 61200, Note_on_c, 0, 62, 0
2, 61200, Note_on_c, 0, 79, 0
2, 61200, Note_on_c, 0, 62, 43
2, 61200, Control_c, 0, 64, 127
2, 61200, Note_on_c, 0, 34, 64
2, 61259, Note_on_c, 0, 53, 74
2, 61320, Note_on_c, 0, 53, 0
2, 61320, Note_on_c, 0, 58, 88
2, 61380, Note_on_c, 0, 58, 0
2, 61380, Note_on_c, 0, 34, 0
2, 61380, Note_on_c, 0, 62, 0
2, 61380, Note_on_c, 0, 65, 64
2, 61380, Note_on_c, 0, 41, 74
2, 61439, Note_on_c, 0, 58, 69
2, 61500, Note_on_c, 0, 58, 0
2, 61500, Note_on_c, 0, 62, 88
2, 61560, Note_on_c, 0, 62, 0
2, 61560, Note_on_c, 0, 41, 0
2, 61560, Note_on_c, 0, 65, 0
2, 61560, Note_on_c, 0, 70, 67
2, 61560, Note_on_c, 0, 50, 76
2, 61619, Note_on_c, 0, 62, 76
2, 61680, Note_on_c, 0, 62, 0
2, 61680, Note_on_c, 0, 65, 89
2, 61740, Note_on_c, 0, 65, 0
2, 61740, Note_on_c, 0, 70, 0
2, 61740, Note_on_c, 0, 74, 67
2, 61740, Control_c, 0, 64, 0
2, 61860, Note_on_c, 0, 50, 0
2, 61860, Note_on_c, 0, 43, 59
2, 61920, Note_on_c, 0, 43, 0
2, 61920, Note_on_c, 0, 74, 0
2, 61920, Note_on_c, 0, 62, 41
2, 61920, Control_c, 0, 64, 127
2, 61920, Note_on_c, 0, 42, 69
2, 61979, Note_on_c, 0, 54, 78
2, 62040, Note_on_c, 0, 54, 0
2, 62040, Note_on_c, 0, 57, 87
2, 62100, Note_on_c, 0, 57, 0
2, 62100, Note_on_c, 0, 42, 0
2, 62100, Note_on_c, 0, 62, 0
2, 62100, Note_on_c, 0, 69, 69
2, 62100, Note_on_c, 0, 50, 71
2, 62159, Note_on_c, 0, 62, 71
2, 62220, Note_on_c, 0, 62, 0
2, 62220, Note_on_c, 0, 66, 91
2, 62280, Note_on_c, 0, 66, 0
2, 62280, Note_on_c, 0, 50, 0
2, 62280, Note_on_c, 0, 69, 0
2, 62280, Note_on_c, 0, 70, 64
2, 62280, Note_on_c, 0, 58, 78
2, 62339, Note_on_c, 0, 62, 75
2, 62400, Note_on_c, 0, 62, 0
2, 62400, Note_on_c, 0, 66, 89
2, 62460, Note_on_c, 0, 66, 0
2, 62460, Note_on_c, 0, 70, 0
2, 62460, Note_on_c, 0, 74, 65
2, 62460, Control_c, 0, 64, 0
2, 62580, Note_on_c, 0, 58, 0
2, 62580, Note_on_c, 0, 42, 58
2, 62640, Note_on_c, 0, 42, 0
2, 62640, Note_on_c, 0, 74, 0
2, 62640, Note_on_c, 0, 62, 46
2, 62640, Control_c, 0, 64, 127
2, 62640, Note_on_c, 0, 41, 65
2, 62699, Note_on_c, 0, 56, 72
2, 62760, Note_on_c, 0, 56, 0
2, 62760, Note_on_c, 0, 58, 88
2, 62820, Note_on_c, 0, 58, 0
2, 62820, Note_on_c, 0, 41, 0
2, 62820, Note_on_c, 0, 62, 0
2, 62820, Note_on_c, 0, 67, 63
2, 62820, Note_on_c, 0, 50, 77
2, 62879, Note_on_c, 0, 58, 76
2, 62940, Note_on_c, 0, 58, 0
2, 62940, Note_on_c, 0, 62, 90
2, 63000, Note_on_c, 0, 62, 0
2, 63000, Note_on_c, 0, 50, 0
2, 63000, Note_on_c, 0, 67, 0
2, 63000, Note_on_c, 0, 68, 64
2, 63000, Note_on_c, 0, 56, 80
2, 63059, Note_on_c, 0, 58, 78
2, 63120, Note_on_c, 0, 58, 0
2, 63120, Note_on_c, 0, 62, 94
2, 63180, Note_on_c, 0, 62, 0
2, 63180, Note_on_c, 0, 68, 0
2, 63180, Note_on_c, 0, 74, 75
2, 63180, Control_c, 0, 64, 0
2, 63300, Note_on_c, 0, 56, 0
2, 63300, Note_on_c, 0, 41, 63
2, 63360, Note_on_c, 0, 41, 0
2, 63360, Note_on_c, 0, 74, 0
2, 63360, Note_on_c, 0, 62, 48
2, 63360, Control_c, 0, 64, 127
2, 63360, Note_on_c, 0, 40, 70
2, 63419, Note_on_c, 0, 55, 73
2, 63480, Note_on_c, 0, 55, 0
2, 63480, Note_on_c, 0, 58, 85
2, 63540, Note_on_c, 0, 58, 0
2, 63540, Note_on_c, 0, 40, 0
2, 63540, Note_on_c, 0, 62, 0
2, 63540, Note_on_c, 0, 66, 70
2, 63540, Note_on_c, 0, 50, 80
2, 63599, Note_on_c, 0, 58, 71
2, 63660, Note_on_c, 0, 58, 0
2, 63660, Note_on_c, 0, 62, 97
2, 63720, Note_on_c, 0, 62, 0
2, 63720, Note_on_c, 0, 50, 0
2, 63720, Note_on_c, 0, 66, 0
2, 63720, Note_on_c, 0, 67, 63
2, 63720, Note_on_c, 0, 55, 70
2, 63779, Note_on_c, 0, 58, 75
2, 63840, Note_on_c, 0, 58, 0
2, 63840, Note_on_c, 0, 62, 90
2, 63900, Note_on_c, 0, 62, 0
2, 63900, Note_on_c, 0, 67, 0
2, 63900, Note_on_c, 0, 74, 66
2, 63900, Control_c, 0, 64, 0
2, 63959, Note_on_c, 0, 55, 0
2, 63959, Note_on_c, 0, 50, 70
2, 64020, Note_on_c, 0, 50, 0
2, 64020, Note_on_c, 0, 40, 59
2, 64080, Note_on_c, 0, 40, 0
2, 64080, Note_on_c, 0, 74, 0
2, 64080, Note_on_c, 0, 62, 77
2, 64080, Control_c, 0, 64, 127
2, 64080, Note_on_c, 0, 39, 73
2, 64080, Note_on_c, 0, 46, 73
2, 64139, Note_on_c, 0, 62, 0
2, 64139, Note_on_c, 0, 50, 71
2, 64200, Note_on_c, 0, 50, 0
2, 64200, Note_on_c, 0, 58, 96
2, 64260, Note_on_c, 0, 58, 0
2, 64260, Note_on_c, 0, 46, 0
2, 64260, Note_on_c, 0, 39, 0
2, 64260, Note_on_c, 0, 62, 97
2, 64260, Note_on_c, 0, 48, 69
2, 64319, Note_on_c, 0, 62, 0
2, 64319, Note_on_c, 0, 58, 83
2, 64380, Note_on_c, 0, 58, 0
2, 64380, Note_on_c, 0, 50, 76
2, 64440, Note_on_c, 0, 48, 0
2, 64440, Note_on_c, 0, 45, 67
2, 64499, Note_on_c, 0, 50, 0
2, 64499, Note_on_c, 0, 50, 82
2, 64560, Note_on_c, 0, 50, 0
2, 64560, Note_on_c, 0, 58, 90
2, 64620, Note_on_c, 0, 58, 0
2, 64620, Note_on_c, 0, 45, 0
2, 64620, Note_on_c, 0, 62, 99
2, 64620, Control_c, 0, 64, 0
2, 64620, Note_on_c, 0, 46, 75
2, 64679, Note_on_c, 0, 62, 0
2, 64679, Note_on_c, 0, 58, 80
2, 64740, Note_on_c, 0, 58, 0
2, 64740, Note_on_c, 0, 50, 74
2, 64800, Note_on_c, 0, 46, 0
2, 64800, Control_c, 0, 64, 127
2, 64800, Note_on_c, 0, 42, 68
2, 64859, Note_on_c, 0, 50, 0
2, 64859, Note_on_c, 0, 50, 87
2, 64920, Note_on_c, 0, 50, 0
2, 64920, Note_on_c, 0, 58, 94
2, 64980, Note_on_c, 0, 58, 0
2, 64980, Note_on_c, 0, 42, 0
2, 64980, Note_on_c, 0, 62, 94
2, 64980, Note_on_c, 0, 43, 71
2, 65039, Note_on_c, 0, 62, 0
2, 65039, Note_on_c, 0, 58, 80
2, 65100, Note_on_c, 0, 58, 0
2, 65100, Note_on_c, 0, 50, 80
2, 65160, Note_on_c, 0, 43, 0
2, 65160, Note_on_c, 0, 40, 68
2, 65219, Note_on_c, 0, 50, 0
2, 65219, Note_on_c, 0, 50, 82
2, 65280, Note_on_c, 0, 50, 0
2, 65280, Note_on_c, 0, 58, 93
2, 65340, Note_on_c, 0, 58, 0
2, 65340, Note_on_c, 0, 40, 0
2, 65340, Note_on_c, 0, 62, 90
2, 65340, Note_on_c, 0, 41, 72
2, 65399, Note_on_c, 0, 62, 0
2, 65399, Note_on_c, 0, 58, 84
2, 65460, Note_on_c, 0, 58, 0
2, 65460, Note_on_c, 0, 50, 75
2, 65520, Note_on_c, 0, 50, 0
2, 65520, Note_on_c, 0, 41, 0
2, 65520, Control_c, 0, 64, 0
2, 65520, Control_c, 0, 64, 127
2, 65520, Note_on_c, 0, 34, 79
2, 65520, Note_on_c, 0, 46, 79
2, 65880, Note_on_c, 0, 50, 78
2, 65895, Note_on_c, 0, 50, 0
2, 65895, Note_on_c, 0, 53, 82
2, 65912, Note_on_c, 0, 53, 0
2, 65912, Note_on_c, 0, 58, 83
2, 65928, Note_on_c, 0, 58, 0
2, 65928, Note_on_c, 0, 60, 93
2, 65945, Note_on_c, 0, 60, 0
2, 65945, Note_on_c, 0, 65, 92
2, 65962, Note_on_c, 0, 65, 0
2, 65962, Note_on_c, 0, 62, 78
2, 65977, Note_on_c, 0, 62, 0
2, 65977, Note_on_c, 0, 65, 90
2, 65994, Note_on_c, 0, 65, 0
2, 65994, Note_on_c, 0, 67, 87
2, 66011, Note_on_c, 0, 67, 0
2, 66011, Note_on_c, 0, 70, 93
2, 66026, Note_on_c, 0, 70, 0
2, 66026, Note_on_c, 0, 72, 88
2, 66043, Note_on_c, 0, 72, 0
2, 66043, Note_on_c, 0, 77, 97
2, 66060, Note_on_c, 0, 77, 0
2, 66060, Note_on_c, 0, 72, 71
2, 66075, Note_on_c, 0, 72, 0
2, 66075, Note_on_c, 0, 70, 77
2, 66092, Note_on_c, 0, 70, 0
2, 66092, Note_on_c, 0, 67, 73
2, 66108, Note_on_c, 0, 67, 0
2, 66108, Note_on_c, 0, 65, 77
2, 66125, Note_on_c, 0, 65, 0
2, 66125, Note_on_c, 0, 62, 77
2, 66142, Note_on_c, 0, 62, 0
2, 66142, Note_on_c, 0, 65, 95
2, 66157, Note_on_c, 0, 65, 0
2, 66157, Note_on_c, 0, 67, 90
2, 66174, Note_on_c, 0, 67, 0
2, 66174, Note_on_c, 0, 70, 92
2, 66191, Note_on_c, 0, 70, 0
2, 66191, Note_on_c, 0, 72, 87
2, 66206, Note_on_c, 0, 72, 0
2, 66206, Note_on_c, 0, 77, 94
2, 66223, Note_on_c, 0, 77, 0
2, 66223, Note_on_c, 0, 74, 76
2, 66240, Note_on_c, 0, 74, 0
2, 66240, Note_on_c, 0, 46, 0
2, 66240, Note_on_c, 0, 34, 0
2, 66240, Note_on_c, 0, 77, 93
2, 66240, Control_c, 0, 64, 0
2, 66255, Note_on_c, 0, 77, 0
2, 66255, Note_on_c, 0, 79, 89
2, 66272, Note_on_c, 0, 79, 0
2, 66272, Note_on_c, 0, 82, 93
2, 66288, Note_on_c, 0, 82, 0
2, 66288, Note_on_c, 0, 84, 90
2, 66305, Note_on_c, 0, 84, 0
2, 66305, Note_on_c, 0, 89, 92
2, 66322, Note_on_c, 0, 89, 0
2, 66322, Note_on_c, 0, 84, 78
2, 66337, Note_on_c, 0, 84, 0
2, 66337, Note_on_c, 0, 82, 75
2, 66354, Note_on_c, 0, 82, 0
2, 66354, Note_on_c, 0, 79, 74
2, 66371, Note_on_c, 0, 79, 0
2, 66371, Note_on_c, 0, 77, 80
2, 66386, Note_on_c, 0, 77, 0
2, 66386, Note_on_c, 0, 74, 74
2, 66403, Note_on_c, 0, 74, 0
2, 66403, Note_on_c, 0, 77, 89
2, 66420, Note_on_c, 0, 77, 0
2, 66420, Note_on_c, 0, 79, 92
2, 66435, Note_on_c, 0, 79, 0
2, 66435, Note_on_c, 0, 82, 87
2, 66452, Note_on_c, 0, 82, 0
2, 66452, Note_on_c, 0, 84, 87
2, 66468, Note_on_c, 0, 84, 0
2, 66468, Note_on_c, 0, 89, 92
2, 66485, Note_on_c, 0, 89, 0
2, 66485, Note_on_c, 0, 86, 65
2, 66502, Note_on_c, 0, 86, 0
2, 66502, Note_on_c, 0, 89, 90
2, 66517, Note_on_c, 0, 89, 0
2, 66517, Note_on_c, 0, 91, 92
2, 66534, Note_on_c, 0, 91, 0
2, 66534, Note_on_c, 0, 94, 90
2, 66551, Note_on_c, 0, 94, 0
2, 66551, Note_on_c, 0, 96, 93
2, 66566, Note_on_c, 0, 96, 0
2, 66566, Note_on_c, 0, 101, 97
2, 66583, Note_on_c, 0, 101, 0
2, 66583, Note_on_c, 0, 103, 92
2, 66600, Note_on_c, 0, 103, 0
2, 66600, Note_on_c, 0, 94, 89
2, 66613, Note_on_c, 0, 98, 89
2, 66626, Note_on_c, 0, 101, 89
2, 66638, Note_on_c, 0, 105, 89
2, 66960, Note_on_c, 0, 105, 0
2, 66960, Note_on_c, 0, 94, 0
2, 66960, Note_on_c, 0, 98, 0
2, 66960, Note_on_c, 0, 101, 0
2, 66960, End_track
0, 0, End_of_file
