0, 0, Header, 1, 2, 360
1, 0, Start_track
1, 0, Title_t, "untitled"
1, 0, Time_signature, 6, 3, 12, 8
1, 0, Key_signature, -2, "major"
1, 0, Tempo, 413793
1, 24418, Tempo, 3750000
1, 24463, Tempo, 413793
1, 24463, End_track
2, 0, Start_track
2, 0, Title_t, "Piano"
2, 0, Control_c, 0, 0, 0
2, 0, Control_c, 0, 32, 0
2, 0, Program_c, 0, 0
2, 0, Control_c, 0, 7, 105
2, 0, Control_c, 0, 10, 64
2, 0, Control_c, 0, 91, 60
2, 0, Control_c, 0, 91, 60
2, 0, Control_c, 0, 10, 52
2, 0, Control_c, 0, 64, 127
2, 0, Note_on_c, 0, 43, 73
2, 180, Note_on_c, 0, 58, 45
2, 180, Note_on_c, 0, 58, 44
2, 262, Note_on_c, 0, 58, 0
2, 270, Note_on_c, 0, 62, 52
2, 325, Note_on_c, 0, 43, 0
2, 343, Note_on_c, 0, 58, 0
2, 352, Note_on_c, 0, 62, 0
2, 360, Note_on_c, 0, 60, 47
2, 360, Note_on_c, 0, 60, 50
2, 360, Note_on_c, 0, 50, 90
2, 442, Note_on_c, 0, 60, 0
2, 450, Note_on_c, 0, 64, 53
2, 523, Note_on_c, 0, 50, 0
2, 523, Note_on_c, 0, 60, 0
2, 532, Note_on_c, 0, 64, 0
2, 540, Note_on_c, 0, 62, 49
2, 540, Note_on_c, 0, 62, 53
2, 540, Note_on_c, 0, 57, 96
2, 540, Note_on_c, 0, 60, 97
2, 622, Note_on_c, 0, 62, 0
2, 630, Note_on_c, 0, 66, 63
2, 703, Note_on_c, 0, 62, 0
2, 712, Note_on_c, 0, 66, 0
2, 720, Note_on_c, 0, 64, 64
2, 720, Note_on_c, 0, 64, 72
2, 802, Note_on_c, 0, 64, 0
2, 810, Note_on_c, 0, 67, 81
2, 865, Note_on_c, 0, 60, 0
2, 865, Note_on_c, 0, 57, 0
2, 883, Note_on_c, 0, 64, 0
2, 892, Note_on_c, 0, 67, 0
2, 900, Note_on_c, 0, 66, 83
2, 900, Note_on_c, 0, 66, 91
2, 900, Control_c, 0, 64, 0
2, 900, Note_on_c, 0, 50, 61
2, 982, Note_on_c, 0, 66, 0
2, 990, Note_on_c, 0, 69, 104
2, 1063, Note_on_c, 0, 50, 0
2, 1063, Note_on_c, 0, 66, 0
2, 1072, Note_on_c, 0, 69, 0
2, 1080, Note_on_c, 0, 70, 105
2, 1080, Note_on_c, 0, 67, 115
2, 1080, Control_c, 0, 64, 127
2, 1080, Note_on_c, 0, 43, 63
2, 1243, Note_on_c, 0, 67, 0
2, 1243, Note_on_c, 0, 70, 0
2, 1260, Note_on_c, 0, 58, 36
2, 1260, Note_on_c, 0, 58, 38
2, 1342, Note_on_c, 0, 58, 0
2, 1350, Note_on_c, 0, 62, 51
2, 1405, Note_on_c, 0, 43, 0
2, 1423, Note_on_c, 0, 58, 0
2, 1432, Note_on_c, 0, 62, 0
2, 1440, Note_on_c, 0, 60, 44
2, 1440, Note_on_c, 0, 60, 50
2, 1440, Note_on_c, 0, 50, 86
2, 1522, Note_on_c, 0, 60, 0
2, 1530, Note_on_c, 0, 64, 53
2, 1603, Note_on_c, 0, 50, 0
2, 1603, Note_on_c, 0, 60, 0
2, 1612, Note_on_c, 0, 64, 0
2, 1620, Note_on_c, 0, 62, 46
2, 1620, Note_on_c, 0, 62, 53
2, 1620, Note_on_c, 0, 57, 96
2, 1620, Note_on_c, 0, 60, 94
2, 1702, Note_on_c, 0, 62, 0
2, 1710, Note_on_c, 0, 66, 55
2, 1783, Note_on_c, 0, 62, 0
2, 1792, Note_on_c, 0, 66, 0
2, 1800, Note_on_c, 0, 64, 52
2, 1800, Note_on_c, 0, 64, 59
2, 1882, Note_on_c, 0, 64, 0
2, 1890, Note_on_c, 0, 67, 60
2, 1945, Note_on_c, 0, 60, 0
2, 1945, Note_on_c, 0, 57, 0
2, 1963, Note_on_c, 0, 64, 0
2, 1972, Note_on_c, 0, 67, 0
2, 1980, Note_on_c, 0, 66, 56
2, 1980, Note_on_c, 0, 66, 63
2, 1980, Control_c, 0, 64, 0
2, 1980, Note_on_c, 0, 50, 62
2, 2062, Note_on_c, 0, 66, 0
2, 2070, Note_on_c, 0, 69, 67
2, 2143, Note_on_c, 0, 50, 0
2, 2143, Note_on_c, 0, 66, 0
2, 2152, Note_on_c, 0, 69, 0
2, 2160, Note_on_c, 0, 67, 63
2, 2160, Note_on_c, 0, 67, 73
2, 2160, Control_c, 0, 64, 127
2, 2160, Note_on_c, 0, 43, 61
2, 2242, Note_on_c, 0, 67, 0
2, 2250, Note_on_c, 0, 70, 72
2, 2323, Note_on_c, 0, 67, 0
2, 2332, Note_on_c, 0, 70, 0
2, 2340, Note_on_c, 0, 69, 69
2, 2340, Note_on_c, 0, 69, 76
2, 2422, Note_on_c, 0, 69, 0
2, 2430, Note_on_c, 0, 72, 81
2, 2485, Note_on_c, 0, 43, 0
2, 2503, Note_on_c, 0, 69, 0
2, 2512, Note_on_c, 0, 72, 0
2, 2520, Note_on_c, 0, 70, 75
2, 2520, Note_on_c, 0, 70, 83
2, 2520, Note_on_c, 0, 55, 91
2, 2602, Note_on_c, 0, 70, 0
2, 2610, Note_on_c, 0, 74, 87
2, 2683, Note_on_c, 0, 55, 0
2, 2683, Note_on_c, 0, 70, 0
2, 2692, Note_on_c, 0, 74, 0
2, 2700, Note_on_c, 0, 75, 93
2, 2700, Note_on_c, 0, 75, 98
2, 2700, Control_c, 0, 64, 127
2, 2700, Control_c, 0, 64, 0
2, 2700, Note_on_c, 0, 65, 100
2, 2700, Note_on_c, 0, 67, 97
2, 2782, Note_on_c, 0, 75, 0
2, 2790, Note_on_c, 0, 79, 97
2, 2863, Note_on_c, 0, 75, 0
2, 2863, Note_on_c, 0, 67, 0
2, 2863, Note_on_c, 0, 65, 0
2, 2872, Note_on_c, 0, 79, 0
2, 2880, Note_on_c, 0, 74, 80
2, 2880, Note_on_c, 0, 74, 87
2, 2880, Note_on_c, 0, 55, 60
2, 2880, Control_c, 0, 64, 0
2, 2962, Note_on_c, 0, 74, 0
2, 2970, Note_on_c, 0, 79, 103
2, 3043, Note_on_c, 0, 74, 0
2, 3052, Note_on_c, 0, 79, 0
2, 3060, Note_on_c, 0, 75, 88
2, 3060, Note_on_c, 0, 75, 99
2, 3142, Note_on_c, 0, 75, 0
2, 3150, Note_on_c, 0, 79, 105
2, 3205, Note_on_c, 0, 55, 0
2, 3223, Note_on_c, 0, 75, 0
2, 3232, Note_on_c, 0, 79, 0
2, 3240, Note_on_c, 0, 74, 85
2, 3240, Note_on_c, 0, 74, 93
2, 3240, Control_c, 0, 64, 127
2, 3240, Note_on_c, 0, 63, 96
2, 3240, Note_on_c, 0, 67, 95
2, 3322, Note_on_c, 0, 74, 0
2, 3330, Note_on_c, 0, 77, 103
2, 3403, Note_on_c, 0, 74, 0
2, 3403, Note_on_c, 0, 67, 0
2, 3403, Note_on_c, 0, 63, 0
2, 3412, Note_on_c, 0, 77, 0
2, 3420, Note_on_c, 0, 72, 84
2, 3420, Note_on_c, 0, 72, 89
2, 3420, Note_on_c, 0, 55, 57
2, 3502, Note_on_c, 0, 72, 0
2, 3510, Note_on_c, 0, 75, 104
2, 3583, Note_on_c, 0, 72, 0
2, 3592, Note_on_c, 0, 75, 0
2, 3600, Note_on_c, 0, 65, 74
2, 3600, Note_on_c, 0, 65, 80
2, 3682, Note_on_c, 0, 65, 0
2, 3690, Note_on_c, 0, 71, 98
2, 3745, Note_on_c, 0, 55, 0
2, 3763, Note_on_c, 0, 65, 0
2, 3772, Note_on_c, 0, 71, 0
2, 3780, Note_on_c, 0, 72, 91
2, 3780, Note_on_c, 0, 72, 99
2, 3780, Control_c, 0, 64, 0
2, 3780, Note_on_c, 0, 62, 94
2, 3780, Note_on_c, 0, 67, 92
2, 3862, Note_on_c, 0, 72, 0
2, 3870, Note_on_c, 0, 75, 81
2, 3943, Note_on_c, 0, 72, 0
2, 3952, Note_on_c, 0, 75, 0
2, 3960, Note_on_c, 0, 70, 59
2, 3960, Note_on_c, 0, 70, 66
2, 4042, Note_on_c, 0, 70, 0
2, 4050, Note_on_c, 0, 74, 67
2, 4105, Note_on_c, 0, 67, 0
2, 4105, Note_on_c, 0, 62, 0
2, 4123, Note_on_c, 0, 70, 0
2, 4132, Note_on_c, 0, 74, 0
2, 4140, Note_on_c, 0, 62, 41
2, 4140, Note_on_c, 0, 62, 44
2, 4140, Note_on_c, 0, 55, 56
2, 4222, Note_on_c, 0, 62, 0
2, 4230, Note_on_c, 0, 70, 56
2, 4303, Note_on_c, 0, 55, 0
2, 4303, Note_on_c, 0, 62, 0
2, 4312, Note_on_c, 0, 70, 0
2, 4320, Control_c, 0, 64, 127
2, 4320, Note_on_c, 0, 43, 37
2, 4500, Note_on_c, 0, 58, 43
2, 4500, Note_on_c, 0, 58, 35
2, 4582, Note_on_c, 0, 58, 0
2, 4590, Note_on_c, 0, 62, 51
2, 4645, Note_on_c, 0, 43, 0
2, 4663, Note_on_c, 0, 58, 0
2, 4672, Note_on_c, 0, 62, 0
2, 4680, Note_on_c, 0, 60, 46
2, 4680, Note_on_c, 0, 60, 40
2, 4680, Note_on_c, 0, 50, 53
2, 4762, Note_on_c, 0, 60, 0
2, 4770, Note_on_c, 0, 64, 52
2, 4843, Note_on_c, 0, 50, 0
2, 4843, Note_on_c, 0, 60, 0
2, 4852, Note_on_c, 0, 64, 0
2, 4860, Note_on_c, 0, 62, 47
2, 4860, Note_on_c, 0, 62, 46
2, 4860, Note_on_c, 0, 57, 60
2, 4860, Note_on_c, 0, 60, 60
2, 4942, Note_on_c, 0, 62, 0
2, 4950, Note_on_c, 0, 66, 50
2, 5023, Note_on_c, 0, 62, 0
2, 5032, Note_on_c, 0, 66, 0
2, 5040, Note_on_c, 0, 64, 46
2, 5040, Note_on_c, 0, 64, 42
2, 5122, Note_on_c, 0, 64, 0
2, 5130, Note_on_c, 0, 67, 50
2, 5185, Note_on_c, 0, 60, 0
2, 5185, Note_on_c, 0, 57, 0
2, 5203, Note_on_c, 0, 64, 0
2, 5212, Note_on_c, 0, 67, 0
2, 5220, Note_on_c, 0, 66, 45
2, 5220, Note_on_c, 0, 66, 45
2, 5220, Control_c, 0, 64, 0
2, 5220, Note_on_c, 0, 50, 37
2, 5302, Note_on_c, 0, 66, 0
2, 5310, Note_on_c, 0, 69, 51
2, 5383, Note_on_c, 0, 50, 0
2, 5383, Note_on_c, 0, 66, 0
2, 5392, Note_on_c, 0, 69, 0
2, 5400, Note_on_c, 0, 70, 55
2, 5400, Note_on_c, 0, 67, 44
2, 5400, Control_c, 0, 64, 127
2, 5400, Note_on_c, 0, 43, 41
2, 5563, Note_on_c, 0, 67, 0
2, 5563, Note_on_c, 0, 70, 0
2, 5580, Note_on_c, 0, 58, 34
2, 5580, Note_on_c, 0, 58, 32
2, 5662, Note_on_c, 0, 58, 0
2, 5670, Note_on_c, 0, 62, 54
2, 5725, Note_on_c, 0, 43, 0
2, 5743, Note_on_c, 0, 58, 0
2, 5752, Note_on_c, 0, 62, 0
2, 5760, Note_on_c, 0, 60, 55
2, 5760, Note_on_c, 0, 60, 51
2, 5760, Note_on_c, 0, 55, 60
2, 5842, Note_on_c, 0, 60, 0
2, 5850, Note_on_c, 0, 63, 68
2, 5923, Note_on_c, 0, 55, 0
2, 5923, Note_on_c, 0, 60, 0
2, 5932, Note_on_c, 0, 63, 0
2, 5940, Note_on_c, 0, 62, 70
2, 5940, Note_on_c, 0, 62, 70
2, 5940, Note_on_c, 0, 57, 50
2, 6022, Note_on_c, 0, 62, 0
2, 6030, Note_on_c, 0, 65, 82
2, 6103, Note_on_c, 0, 62, 0
2, 6112, Note_on_c, 0, 65, 0
2, 6120, Note_on_c, 0, 63, 75
2, 6120, Note_on_c, 0, 63, 75
2, 6202, Note_on_c, 0, 63, 0
2, 6210, Note_on_c, 0, 67, 95
2, 6265, Note_on_c, 0, 57, 0
2, 6283, Note_on_c, 0, 63, 0
2, 6292, Note_on_c, 0, 67, 0
2, 6300, Note_on_c, 0, 65, 87
2, 6300, Note_on_c, 0, 65, 88
2, 6300, Control_c, 0, 64, 0
2, 6300, Note_on_c, 0, 41, 35
2, 6382, Note_on_c, 0, 65, 0
2, 6390, Note_on_c, 0, 69, 105
2, 6463, Note_on_c, 0, 41, 0
2, 6463, Note_on_c, 0, 65, 0
2, 6472, Note_on_c, 0, 69, 0
2, 6480, Note_on_c, 0, 62, 88
2, 6480, Note_on_c, 0, 70, 86
2, 6480, Control_c, 0, 64, 127
2, 6480, Note_on_c, 0, 34, 53
2, 6480, Note_on_c, 0, 46, 55
2, 6562, Note_on_c, 0, 70, 0
2, 6562, Note_on_c, 0, 62, 0
2, 6570, Note_on_c, 0, 74, 89
2, 6652, Note_on_c, 0, 74, 0
2, 6660, Note_on_c, 0, 72, 77
2, 6660, Note_on_c, 0, 72, 95
2, 6742, Note_on_c, 0, 72, 0
2, 6750, Note_on_c, 0, 75, 86
2, 6805, Note_on_c, 0, 46, 0
2, 6805, Note_on_c, 0, 34, 0
2, 6823, Note_on_c, 0, 72, 0
2, 6832, Note_on_c, 0, 75, 0
2, 6840, Note_on_c, 0, 74, 76
2, 6840, Note_on_c, 0, 74, 85
2, 6840, Note_on_c, 0, 58, 59
2, 6922, Note_on_c, 0, 74, 0
2, 6930, Note_on_c, 0, 77, 86
2, 7003, Note_on_c, 0, 58, 0
2, 7003, Note_on_c, 0, 74, 0
2, 7012, Note_on_c, 0, 77, 0
2, 7020, Note_on_c, 0, 78, 88
2, 7020, Note_on_c, 0, 78, 94
2, 7020, Note_on_c, 0, 68, 65
2, 7020, Note_on_c, 0, 70, 61
2, 7102, Note_on_c, 0, 78, 0
2, 7110, Note_on_c, 0, 82, 87
2, 7183, Note_on_c, 0, 78, 0
2, 7183, Note_on_c, 0, 70, 0
2, 7183, Note_on_c, 0, 68, 0
2, 7192, Note_on_c, 0, 82, 0
2, 7200, Note_on_c, 0, 77, 69
2, 7200, Note_on_c, 0, 77, 78
2, 7200, Control_c, 0, 64, 127
2, 7200, Control_c, 0, 64, 0
2, 7200, Note_on_c, 0, 58, 35
2, 7200, Control_c, 0, 64, 0
2, 7282, Note_on_c, 0, 77, 0
2, 7290, Note_on_c, 0, 80, 84
2, 7363, Note_on_c, 0, 77, 0
2, 7372, Note_on_c, 0, 80, 0
2, 7380, Note_on_c, 0, 78, 76
2, 7380, Note_on_c, 0, 78, 82
2, 7462, Note_on_c, 0, 78, 0
2, 7470, Note_on_c, 0, 82, 87
2, 7525, Note_on_c, 0, 58, 0
2, 7543, Note_on_c, 0, 78, 0
2, 7552, Note_on_c, 0, 82, 0
2, 7560, Note_on_c, 0, 77, 72
2, 7560, Note_on_c, 0, 77, 79
2, 7560, Control_c, 0, 64, 127
2, 7560, Note_on_c, 0, 66, 61
2, 7560, Note_on_c, 0, 70, 60
2, 7642, Note_on_c, 0, 77, 0
2, 7650, Note_on_c, 0, 80, 84
2, 7723, Note_on_c, 0, 77, 0
2, 7723, Note_on_c, 0, 70, 0
2, 7723, Note_on_c, 0, 66, 0
2, 7732, Note_on_c, 0, 80, 0
2, 7740, Note_on_c, 0, 75, 72
2, 7740, Note_on_c, 0, 75, 74
2, 7740, Note_on_c, 0, 58, 35
2, 7822, Note_on_c, 0, 75, 0
2, 7830, Note_on_c, 0, 78, 87
2, 7903, Note_on_c, 0, 75, 0
2, 7912, Note_on_c, 0, 78, 0
2, 7920, Note_on_c, 0, 66, 58
2, 7920, Note_on_c, 0, 66, 61
2, 8002, Note_on_c, 0, 66, 0
2, 8010, Note_on_c, 0, 74, 84
2, 8065, Note_on_c, 0, 58, 0
2, 8083, Note_on_c, 0, 66, 0
2, 8092, Note_on_c, 0, 74, 0
2, 8100, Note_on_c, 0, 75, 79
2, 8100, Note_on_c, 0, 75, 84
2, 8100, Control_c, 0, 64, 0
2, 8100, Note_on_c, 0, 65, 58
2, 8100, Note_on_c, 0, 70, 60
2, 8182, Note_on_c, 0, 75, 0
2, 8190, Note_on_c, 0, 78, 73
2, 8263, Note_on_c, 0, 75, 0
2, 8272, Note_on_c, 0, 78, 0
2, 8280, Note_on_c, 0, 74, 55
2, 8280, Note_on_c, 0, 74, 58
2, 8362, Note_on_c, 0, 74, 0
2, 8370, Note_on_c, 0, 77, 61
2, 8425, Note_on_c, 0, 70, 0
2, 8425, Note_on_c, 0, 65, 0
2, 8443, Note_on_c, 0, 74, 0
2, 8452, Note_on_c, 0, 77, 0
2, 8460, Note_on_c, 0, 65, 37
2, 8460, Note_on_c, 0, 65, 40
2, 8460, Note_on_c, 0, 58, 38
2, 8542, Note_on_c, 0, 65, 0
2, 8550, Note_on_c, 0, 74, 57
2, 8623, Note_on_c, 0, 58, 0
2, 8623, Note_on_c, 0, 65, 0
2, 8632, Note_on_c, 0, 74, 0
2, 8640, Control_c, 0, 64, 127
2, 8640, Note_on_c, 0, 31, 37
2, 8803, Note_on_c, 0, 31, 0
2, 8820, Note_on_c, 0, 75, 55
2, 8820, Note_on_c, 0, 75, 55
2, 8820, Note_on_c, 0, 43, 59
2, 8902, Note_on_c, 0, 75, 0
2, 8910, Note_on_c, 0, 79, 66
2, 8983, Note_on_c, 0, 43, 0
2, 8983, Note_on_c, 0, 75, 0
2, 8992, Note_on_c, 0, 79, 0
2, 9000, Note_on_c, 0, 74, 53
2, 9000, Note_on_c, 0, 74, 59
2, 9000, Note_on_c, 0, 53, 59
2, 9082, Note_on_c, 0, 74, 0
2, 9090, Note_on_c, 0, 77, 65
2, 9163, Note_on_c, 0, 53, 0
2, 9163, Note_on_c, 0, 74, 0
2, 9172, Note_on_c, 0, 77, 0
2, 9180, Note_on_c, 0, 75, 62
2, 9180, Note_on_c, 0, 75, 66
2, 9180, Note_on_c, 0, 59, 64
2, 9180, Note_on_c, 0, 65, 62
2, 9262, Note_on_c, 0, 75, 0
2, 9270, Note_on_c, 0, 79, 77
2, 9343, Note_on_c, 0, 75, 0
2, 9352, Note_on_c, 0, 79, 0
2, 9360, Note_on_c, 0, 71, 63
2, 9360, Note_on_c, 0, 71, 67
2, 9442, Note_on_c, 0, 71, 0
2, 9450, Note_on_c, 0, 74, 88
2, 9523, Note_on_c, 0, 71, 0
2, 9532, Note_on_c, 0, 74, 0
2, 9540, Note_on_c, 0, 72, 82
2, 9540, Note_on_c, 0, 72, 91
2, 9622, Note_on_c, 0, 72, 0
2, 9630, Note_on_c, 0, 75, 105
2, 9667, Note_on_c, 0, 65, 0
2, 9667, Note_on_c, 0, 59, 0
2, 9703, Note_on_c, 0, 72, 0
2, 9712, Note_on_c, 0, 75, 0
2, 9720, Note_on_c, 0, 75, 98
2, 9720, Note_on_c, 0, 75, 116
2, 9802, Note_on_c, 0, 75, 0
2, 9810, Note_on_c, 0, 79, 107
2, 9892, Note_on_c, 0, 79, 0
2, 9900, Note_on_c, 0, 77, 90
2, 9982, Note_on_c, 0, 77, 0
2, 9990, Note_on_c, 0, 75, 90
2, 9990, Control_c, 0, 64, 0
2, 9990, Note_on_c, 0, 55, 44
2, 10045, Note_on_c, 0, 75, 0
2, 10072, Note_on_c, 0, 75, 0
2, 10080, Note_on_c, 0, 74, 90
2, 10080, Note_on_c, 0, 74, 99
2, 10162, Note_on_c, 0, 74, 0
2, 10170, Note_on_c, 0, 77, 104
2, 10233, Note_on_c, 0, 55, 0
2, 10243, Note_on_c, 0, 74, 0
2, 10252, Note_on_c, 0, 77, 0
2, 10260, Note_on_c, 0, 75, 92
2, 10260, Note_on_c, 0, 75, 110
2, 10260, Control_c, 0, 64, 127
2, 10260, Note_on_c, 0, 59, 58
2, 10260, Note_on_c, 0, 65, 56
2, 10260, Control_c, 0, 64, 0
2, 10342, Note_on_c, 0, 75, 0
2, 10350, Note_on_c, 0, 79, 104
2, 10423, Note_on_c, 0, 75, 0
2, 10432, Note_on_c, 0, 79, 0
2, 10440, Note_on_c, 0, 77, 90
2, 10440, Note_on_c, 0, 77, 111
2, 10522, Note_on_c, 0, 77, 0
2, 10530, Note_on_c, 0, 80, 104
2, 10603, Note_on_c, 0, 77, 0
2, 10612, Note_on_c, 0, 80, 0
2, 10620, Note_on_c, 0, 75, 86
2, 10620, Note_on_c, 0, 75, 98
2, 10702, Note_on_c, 0, 75, 0
2, 10710, Note_on_c, 0, 79, 105
2, 10747, Note_on_c, 0, 65, 0
2, 10747, Note_on_c, 0, 59, 0
2, 10783, Note_on_c, 0, 75, 0
2, 10792, Note_on_c, 0, 79, 0
2, 10800, Note_on_c, 0, 75, 89
2, 10800, Note_on_c, 0, 75, 104
2, 10800, Control_c, 0, 64, 127
2, 10800, Note_on_c, 0, 31, 38
2, 10882, Note_on_c, 0, 75, 0
2, 10890, Note_on_c, 0, 79, 106
2, 10963, Note_on_c, 0, 31, 0
2, 10963, Note_on_c, 0, 75, 0
2, 10972, Note_on_c, 0, 79, 0
2, 10980, Note_on_c, 0, 70, 77
2, 10980, Note_on_c, 0, 70, 88
2, 10980, Note_on_c, 0, 43, 58
2, 11062, Note_on_c, 0, 70, 0
2, 11070, Note_on_c, 0, 74, 104
2, 11143, Note_on_c, 0, 43, 0
2, 11143, Note_on_c, 0, 70, 0
2, 11152, Note_on_c, 0, 74, 0
2, 11160, Note_on_c, 0, 72, 89
2, 11160, Note_on_c, 0, 72, 105
2, 11160, Note_on_c, 0, 51, 60
2, 11242, Note_on_c, 0, 72, 0
2, 11250, Note_on_c, 0, 75, 102
2, 11323, Note_on_c, 0, 51, 0
2, 11323, Note_on_c, 0, 72, 0
2, 11332, Note_on_c, 0, 75, 0
2, 11340, Note_on_c, 0, 74, 94
2, 11340, Note_on_c, 0, 74, 112
2, 11340, Note_on_c, 0, 58, 60
2, 11422, Note_on_c, 0, 74, 0
2, 11430, Note_on_c, 0, 77, 104
2, 11503, Note_on_c, 0, 58, 0
2, 11503, Note_on_c, 0, 74, 0
2, 11512, Note_on_c, 0, 77, 0
2, 11520, Note_on_c, 0, 75, 92
2, 11520, Note_on_c, 0, 75, 110
2, 11520, Note_on_c, 0, 63, 56
2, 11602, Note_on_c, 0, 75, 0
2, 11610, Note_on_c, 0, 79, 108
2, 11683, Note_on_c, 0, 63, 0
2, 11683, Note_on_c, 0, 75, 0
2, 11692, Note_on_c, 0, 79, 0
2, 11700, Note_on_c, 0, 77, 93
2, 11700, Note_on_c, 0, 77, 111
2, 11700, Note_on_c, 0, 67, 53
2, 11700, Control_c, 0, 64, 0
2, 11782, Note_on_c, 0, 77, 0
2, 11790, Note_on_c, 0, 80, 105
2, 11863, Note_on_c, 0, 67, 0
2, 11863, Note_on_c, 0, 77, 0
2, 11872, Note_on_c, 0, 80, 0
2, 11880, Note_on_c, 0, 79, 96
2, 11880, Note_on_c, 0, 79, 116
2, 11880, Note_on_c, 0, 70, 57
2, 11962, Note_on_c, 0, 79, 0
2, 11970, Note_on_c, 0, 82, 106
2, 12043, Note_on_c, 0, 79, 0
2, 12052, Note_on_c, 0, 82, 0
2, 12060, Note_on_c, 0, 78, 86
2, 12060, Note_on_c, 0, 78, 97
2, 12142, Note_on_c, 0, 78, 0
2, 12150, Note_on_c, 0, 81, 103
2, 12223, Note_on_c, 0, 78, 0
2, 12232, Note_on_c, 0, 81, 0
2, 12240, Note_on_c, 0, 79, 90
2, 12240, Note_on_c, 0, 79, 107
2, 12322, Note_on_c, 0, 79, 0
2, 12330, Note_on_c, 0, 82, 105
2, 12403, Note_on_c, 0, 79, 0
2, 12412, Note_on_c, 0, 82, 0
2, 12420, Note_on_c, 0, 79, 92
2, 12420, Note_on_c, 0, 79, 107
2, 12502, Note_on_c, 0, 79, 0
2, 12510, Note_on_c, 0, 82, 94
2, 12583, Note_on_c, 0, 79, 0
2, 12592, Note_on_c, 0, 82, 0
2, 12600, Note_on_c, 0, 78, 70
2, 12600, Note_on_c, 0, 78, 79
2, 12682, Note_on_c, 0, 78, 0
2, 12690, Note_on_c, 0, 81, 72
2, 12763, Note_on_c, 0, 78, 0
2, 12772, Note_on_c, 0, 81, 0
2, 12780, Note_on_c, 0, 79, 56
2, 12780, Note_on_c, 0, 79, 67
2, 12862, Note_on_c, 0, 79, 0
2, 12870, Note_on_c, 0, 82, 52
2, 12890, Note_on_c, 0, 70, 0
2, 12943, Note_on_c, 0, 79, 0
2, 12952, Note_on_c, 0, 82, 0
2, 12960, Control_c, 0, 64, 127
2, 12960, Note_on_c, 0, 31, 63
2, 13123, Note_on_c, 0, 31, 0
2, 13140, Note_on_c, 0, 72, 72
2, 13140, Note_on_c, 0, 72, 70
2, 13140, Note_on_c, 0, 43, 99
2, 13222, Note_on_c, 0, 72, 0
2, 13230, Note_on_c, 0, 75, 84
2, 13303, Note_on_c, 0, 43, 0
2, 13303, Note_on_c, 0, 72, 0
2, 13312, Note_on_c, 0, 75, 0
2, 13320, Note_on_c, 0, 71, 70
2, 13320, Note_on_c, 0, 71, 76
2, 13320, Note_on_c, 0, 51, 98
2, 13402, Note_on_c, 0, 71, 0
2, 13410, Note_on_c, 0, 74, 84
2, 13483, Note_on_c, 0, 51, 0
2, 13483, Note_on_c, 0, 71, 0
2, 13492, Note_on_c, 0, 74, 0
2, 13500, Note_on_c, 0, 72, 78
2, 13500, Note_on_c, 0, 72, 84
2, 13500, Note_on_c, 0, 60, 106
2, 13500, Note_on_c, 0, 66, 105
2, 13582, Note_on_c, 0, 72, 0
2, 13590, Note_on_c, 0, 75, 86
2, 13663, Note_on_c, 0, 72, 0
2, 13672, Note_on_c, 0, 75, 0
2, 13680, Note_on_c, 0, 68, 65
2, 13680, Note_on_c, 0, 68, 72
2, 13762, Note_on_c, 0, 68, 0
2, 13770, Note_on_c, 0, 71, 86
2, 13843, Note_on_c, 0, 68, 0
2, 13852, Note_on_c, 0, 71, 0
2, 13860, Note_on_c, 0, 69, 74
2, 13860, Note_on_c, 0, 69, 84
2, 13942, Note_on_c, 0, 69, 0
2, 13950, Note_on_c, 0, 72, 87
2, 13987, Note_on_c, 0, 66, 0
2, 13987, Note_on_c, 0, 60, 0
2, 14023, Note_on_c, 0, 69, 0
2, 14032, Note_on_c, 0, 72, 0
2, 14040, Note_on_c, 0, 72, 83
2, 14040, Note_on_c, 0, 72, 87
2, 14122, Note_on_c, 0, 72, 0
2, 14130, Note_on_c, 0, 75, 87
2, 14212, Note_on_c, 0, 75, 0
2, 14220, Note_on_c, 0, 74, 77
2, 14302, Note_on_c, 0, 74, 0
2, 14310, Note_on_c, 0, 72, 74
2, 14310, Control_c, 0, 64, 0
2, 14310, Note_on_c, 0, 56, 69
2, 14365, Note_on_c, 0, 72, 0
2, 14392, Note_on_c, 0, 72, 0
2, 14400, Note_on_c, 0, 71, 75
2, 14400, Note_on_c, 0, 71, 78
2, 14482, Note_on_c, 0, 71, 0
2, 14490, Note_on_c, 0, 74, 86
2, 14553, Note_on_c, 0, 56, 0
2, 14563, Note_on_c, 0, 71, 0
2, 14572, Note_on_c, 0, 74, 0
2, 14580, Note_on_c, 0, 72, 77
2, 14580, Note_on_c, 0, 72, 84
2, 14580, Control_c, 0, 64, 127
2, 14580, Note_on_c, 0, 60, 97
2, 14580, Note_on_c, 0, 66, 97
2, 14580, Control_c, 0, 64, 0
2, 14662, Note_on_c, 0, 72, 0
2, 14670, Note_on_c, 0, 75, 85
2, 14743, Note_on_c, 0, 72, 0
2, 14752, Note_on_c, 0, 75, 0
2, 14760, Note_on_c, 0, 74, 76
2, 14760, Note_on_c, 0, 74, 85
2, 14842, Note_on_c, 0, 74, 0
2, 14850, Note_on_c, 0, 77, 87
2, 14923, Note_on_c, 0, 74, 0
2, 14932, Note_on_c, 0, 77, 0
2, 14940, Note_on_c, 0, 72, 68
2, 14940, Note_on_c, 0, 72, 76
2, 15022, Note_on_c, 0, 72, 0
2, 15030, Note_on_c, 0, 75, 85
2, 15067, Note_on_c, 0, 66, 0
2, 15067, Note_on_c, 0, 60, 0
2, 15103, Note_on_c, 0, 72, 0
2, 15112, Note_on_c, 0, 75, 0
2, 15120, Note_on_c, 0, 72, 76
2, 15120, Note_on_c, 0, 72, 82
2, 15120, Note_on_c, 0, 31, 63
2, 15202, Note_on_c, 0, 72, 0
2, 15210, Note_on_c, 0, 75, 86
2, 15283, Note_on_c, 0, 31, 0
2, 15283, Note_on_c, 0, 72, 0
2, 15292, Note_on_c, 0, 75, 0
2, 15300, Note_on_c, 0, 67, 66
2, 15300, Note_on_c, 0, 67, 71
2, 15300, Note_on_c, 0, 43, 97
2, 15382, Note_on_c, 0, 67, 0
2, 15390, Note_on_c, 0, 71, 90
2, 15463, Note_on_c, 0, 43, 0
2, 15463, Note_on_c, 0, 67, 0
2, 15472, Note_on_c, 0, 71, 0
2, 15480, Note_on_c, 0, 69, 79
2, 15480, Note_on_c, 0, 69, 87
2, 15480, Note_on_c, 0, 51, 99
2, 15562, Note_on_c, 0, 69, 0
2, 15570, Note_on_c, 0, 72, 91
2, 15643, Note_on_c, 0, 51, 0
2, 15643, Note_on_c, 0, 69, 0
2, 15652, Note_on_c, 0, 72, 0
2, 15660, Note_on_c, 0, 71, 85
2, 15660, Note_on_c, 0, 71, 92
2, 15660, Note_on_c, 0, 55, 94
2, 15742, Note_on_c, 0, 71, 0
2, 15750, Note_on_c, 0, 74, 96
2, 15823, Note_on_c, 0, 55, 0
2, 15823, Note_on_c, 0, 71, 0
2, 15832, Note_on_c, 0, 74, 0
2, 15840, Note_on_c, 0, 72, 88
2, 15840, Note_on_c, 0, 72, 95
2, 15840, Note_on_c, 0, 60, 90
2, 15922, Note_on_c, 0, 72, 0
2, 15930, Note_on_c, 0, 75, 101
2, 16003, Note_on_c, 0, 60, 0
2, 16003, Note_on_c, 0, 72, 0
2, 16012, Note_on_c, 0, 75, 0
2, 16020, Note_on_c, 0, 74, 91
2, 16020, Note_on_c, 0, 74, 101
2, 16020, Note_on_c, 0, 65, 93
2, 16102, Note_on_c, 0, 74, 0
2, 16110, Note_on_c, 0, 77, 104
2, 16183, Note_on_c, 0, 65, 0
2, 16183, Note_on_c, 0, 74, 0
2, 16192, Note_on_c, 0, 77, 0
2, 16200, Note_on_c, 0, 75, 96
2, 16200, Note_on_c, 0, 75, 104
2, 16200, Control_c, 0, 64, 127
2, 16200, Note_on_c, 0, 67, 87
2, 16200, Control_c, 0, 64, 0
2, 16282, Note_on_c, 0, 75, 0
2, 16290, Note_on_c, 0, 79, 103
2, 16363, Note_on_c, 0, 75, 0
2, 16372, Note_on_c, 0, 79, 0
2, 16380, Note_on_c, 0, 74, 84
2, 16380, Note_on_c, 0, 74, 94
2, 16462, Note_on_c, 0, 74, 0
2, 16470, Note_on_c, 0, 78, 104
2, 16543, Note_on_c, 0, 74, 0
2, 16552, Note_on_c, 0, 78, 0
2, 16560, Note_on_c, 0, 75, 91
2, 16560, Note_on_c, 0, 75, 101
2, 16642, Note_on_c, 0, 75, 0
2, 16650, Note_on_c, 0, 79, 103
2, 16723, Note_on_c, 0, 75, 0
2, 16732, Note_on_c, 0, 79, 0
2, 16740, Note_on_c, 0, 75, 91
2, 16740, Note_on_c, 0, 75, 97
2, 16822, Note_on_c, 0, 75, 0
2, 16830, Note_on_c, 0, 79, 107
2, 16903, Note_on_c, 0, 75, 0
2, 16912, Note_on_c, 0, 79, 0
2, 16920, Note_on_c, 0, 74, 84
2, 16920, Note_on_c, 0, 74, 92
2, 17002, Note_on_c, 0, 74, 0
2, 17010, Note_on_c, 0, 78, 105
2, 17083, Note_on_c, 0, 74, 0
2, 17092, Note_on_c, 0, 78, 0
2, 17100, Note_on_c, 0, 75, 90
2, 17100, Note_on_c, 0, 75, 100
2, 17182, Note_on_c, 0, 75, 0
2, 17190, Note_on_c, 0, 79, 106
2, 17210, Note_on_c, 0, 67, 0
2, 17263, Note_on_c, 0, 75, 0
2, 17272, Note_on_c, 0, 79, 0
2, 17280, Control_c, 0, 64, 127
2, 17280, Note_on_c, 0, 45, 67
2, 17460, Note_on_c, 0, 45, 0
2, 17460, Note_on_c, 0, 75, 42
2, 17460, Note_on_c, 0, 55, 93
2, 17542, Note_on_c, 0, 75, 0
2, 17550, Note_on_c, 0, 79, 52
2, 17623, Note_on_c, 0, 55, 0
2, 17632, Note_on_c, 0, 79, 0
2, 17640, Note_on_c, 0, 74, 42
2, 17640, Control_c, 0, 64, 0
2, 17640, Note_on_c, 0, 63, 99
2, 17722, Note_on_c, 0, 74, 0
2, 17730, Note_on_c, 0, 78, 53
2, 17803, Note_on_c, 0, 63, 0
2, 17812, Note_on_c, 0, 78, 0
2, 17820, Note_on_c, 0, 75, 46
2, 17820, Control_c, 0, 64, 127
2, 17820, Note_on_c, 0, 46, 69
2, 17902, Note_on_c, 0, 75, 0
2, 17910, Note_on_c, 0, 79, 53
2, 17992, Note_on_c, 0, 79, 0
2, 18000, Note_on_c, 0, 46, 0
2, 18000, Note_on_c, 0, 67, 37
2, 18000, Note_on_c, 0, 55, 92
2, 18082, Note_on_c, 0, 67, 0
2, 18090, Note_on_c, 0, 74, 56
2, 18163, Note_on_c, 0, 55, 0
2, 18172, Note_on_c, 0, 74, 0
2, 18180, Note_on_c, 0, 72, 45
2, 18180, Note_on_c, 0, 63, 97
2, 18180, Control_c, 0, 64, 0
2, 18262, Note_on_c, 0, 72, 0
2, 18270, Note_on_c, 0, 75, 53
2, 18343, Note_on_c, 0, 63, 0
2, 18352, Note_on_c, 0, 75, 0
2, 18360, Control_c, 0, 64, 127
2, 18360, Note_on_c, 0, 75, 50
2, 18360, Control_c, 0, 64, 127
2, 18360, Note_on_c, 0, 47, 68
2, 18442, Note_on_c, 0, 75, 0
2, 18450, Note_on_c, 0, 79, 55
2, 18532, Note_on_c, 0, 79, 0
2, 18540, Note_on_c, 0, 47, 0
2, 18540, Note_on_c, 0, 74, 44
2, 18540, Note_on_c, 0, 55, 91
2, 18622, Note_on_c, 0, 74, 0
2, 18630, Note_on_c, 0, 75, 53
2, 18703, Note_on_c, 0, 55, 0
2, 18712, Note_on_c, 0, 75, 0
2, 18720, Note_on_c, 0, 78, 57
2, 18720, Note_on_c, 0, 63, 97
2, 18802, Note_on_c, 0, 78, 0
2, 18810, Note_on_c, 0, 79, 56
2, 18883, Note_on_c, 0, 63, 0
2, 18892, Note_on_c, 0, 79, 0
2, 18900, Note_on_c, 0, 75, 52
2, 18900, Control_c, 0, 64, 127
2, 18900, Control_c, 0, 64, 0
2, 18900, Note_on_c, 0, 48, 69
2, 18982, Note_on_c, 0, 75, 0
2, 18990, Note_on_c, 0, 78, 56
2, 19072, Note_on_c, 0, 78, 0
2, 19080, Note_on_c, 0, 48, 0
2, 19080, Note_on_c, 0, 79, 59
2, 19080, Note_on_c, 0, 55, 91
2, 19162, Note_on_c, 0, 79, 0
2, 19170, Note_on_c, 0, 80, 58
2, 19243, Note_on_c, 0, 55, 0
2, 19252, Note_on_c, 0, 80, 0
2, 19260, Control_c, 0, 64, 0
2, 19260, Note_on_c, 0, 78, 54
2, 19260, Control_c, 0, 64, 0
2, 19260, Note_on_c, 0, 63, 95
2, 19342, Note_on_c, 0, 78, 0
2, 19350, Note_on_c, 0, 79, 61
2, 19423, Note_on_c, 0, 63, 0
2, 19432, Note_on_c, 0, 79, 0
2, 19440, Note_on_c, 0, 80, 66
2, 19440, Control_c, 0, 64, 127
2, 19440, Note_on_c, 0, 49, 67
2, 19522, Note_on_c, 0, 80, 0
2, 19530, Note_on_c, 0, 81, 65
2, 19612, Note_on_c, 0, 81, 0
2, 19620, Note_on_c, 0, 49, 0
2, 19620, Note_on_c, 0, 82, 67
2, 19620, Note_on_c, 0, 58, 95
2, 19702, Note_on_c, 0, 82, 0
2, 19710, Note_on_c, 0, 78, 58
2, 19783, Note_on_c, 0, 58, 0
2, 19792, Note_on_c, 0, 78, 0
2, 19800, Note_on_c, 0, 81, 69
2, 19800, Note_on_c, 0, 63, 92
2, 19882, Note_on_c, 0, 81, 0
2, 19890, Note_on_c, 0, 79, 61
2, 19963, Note_on_c, 0, 63, 0
2, 19972, Note_on_c, 0, 79, 0
2, 19980, Note_on_c, 0, 82, 75
2, 19980, Control_c, 0, 64, 127
2, 19980, Control_c, 0, 64, 0
2, 19980, Note_on_c, 0, 48, 66
2, 20062, Note_on_c, 0, 82, 0
2, 20070, Note_on_c, 0, 75, 57
2, 20152, Note_on_c, 0, 75, 0
2, 20160, Note_on_c, 0, 48, 0
2, 20160, Note_on_c, 0, 78, 73
2, 20160, Note_on_c, 0, 58, 93
2, 20242, Note_on_c, 0, 78, 0
2, 20250, Note_on_c, 0, 76, 63
2, 20323, Note_on_c, 0, 58, 0
2, 20332, Note_on_c, 0, 76, 0
2, 20340, Note_on_c, 0, 79, 73
2, 20340, Note_on_c, 0, 64, 93
2, 20340, Control_c, 0, 64, 0
2, 20422, Note_on_c, 0, 79, 0
2, 20430, Note_on_c, 0, 78, 66
2, 20503, Note_on_c, 0, 64, 0
2, 20512, Note_on_c, 0, 78, 0
2, 20520, Note_on_c, 0, 81, 81
2, 20520, Control_c, 0, 64, 127
2, 20520, Note_on_c, 0, 49, 67
2, 20602, Note_on_c, 0, 81, 0
2, 20610, Note_on_c, 0, 78, 67
2, 20692, Note_on_c, 0, 78, 0
2, 20700, Note_on_c, 0, 49, 0
2, 20700, Note_on_c, 0, 79, 76
2, 20700, Note_on_c, 0, 58, 95
2, 20782, Note_on_c, 0, 79, 0
2, 20790, Note_on_c, 0, 81, 79
2, 20863, Note_on_c, 0, 58, 0
2, 20872, Note_on_c, 0, 81, 0
2, 20880, Note_on_c, 0, 82, 81
2, 20880, Note_on_c, 0, 63, 94
2, 20962, Note_on_c, 0, 82, 0
2, 20970, Note_on_c, 0, 79, 70
2, 21043, Note_on_c, 0, 63, 0
2, 21052, Note_on_c, 0, 79, 0
2, 21060, Note_on_c, 0, 81, 86
2, 21060, Control_c, 0, 64, 127
2, 21060, Control_c, 0, 64, 0
2, 21060, Note_on_c, 0, 50, 68
2, 21142, Note_on_c, 0, 81, 0
2, 21150, Note_on_c, 0, 82, 86
2, 21232, Note_on_c, 0, 82, 0
2, 21240, Note_on_c, 0, 50, 0
2, 21240, Note_on_c, 0, 85, 88
2, 21240, Note_on_c, 0, 58, 93
2, 21322, Note_on_c, 0, 85, 0
2, 21330, Note_on_c, 0, 86, 87
2, 21403, Note_on_c, 0, 58, 0
2, 21412, Note_on_c, 0, 86, 0
2, 21420, Note_on_c, 0, 81, 71
2, 21420, Note_on_c, 0, 67, 98
2, 21502, Note_on_c, 0, 81, 0
2, 21510, Note_on_c, 0, 82, 84
2, 21583, Note_on_c, 0, 67, 0
2, 21592, Note_on_c, 0, 82, 0
2, 21599, Control_c, 0, 64, 127
2, 21599, Control_c, 0, 64, 0
2, 21600, Note_on_c, 0, 53, 68
2, 21690, Note_on_c, 0, 69, 78
2, 21772, Note_on_c, 0, 69, 0
2, 21780, Note_on_c, 0, 53, 0
2, 21780, Note_on_c, 0, 70, 88
2, 21780, Note_on_c, 0, 61, 93
2, 21862, Note_on_c, 0, 70, 0
2, 21870, Note_on_c, 0, 72, 93
2, 21943, Note_on_c, 0, 61, 0
2, 21952, Note_on_c, 0, 72, 0
2, 21960, Note_on_c, 0, 73, 93
2, 21960, Note_on_c, 0, 67, 95
2, 22042, Note_on_c, 0, 73, 0
2, 22050, Note_on_c, 0, 78, 100
2, 22123, Note_on_c, 0, 67, 0
2, 22132, Note_on_c, 0, 78, 0
2, 22140, Note_on_c, 0, 79, 99
2, 22140, Control_c, 0, 64, 127
2, 22140, Control_c, 0, 64, 0
2, 22140, Note_on_c, 0, 52, 70
2, 22222, Note_on_c, 0, 79, 0
2, 22230, Note_on_c, 0, 81, 99
2, 22312, Note_on_c, 0, 81, 0
2, 22320, Note_on_c, 0, 52, 0
2, 22320, Note_on_c, 0, 82, 100
2, 22320, Note_on_c, 0, 61, 93
2, 22402, Note_on_c, 0, 82, 0
2, 22410, Note_on_c, 0, 84, 101
2, 22483, Note_on_c, 0, 61, 0
2, 22492, Note_on_c, 0, 84, 0
2, 22500, Note_on_c, 0, 85, 101
2, 22500, Note_on_c, 0, 67, 93
2, 22582, Note_on_c, 0, 85, 0
2, 22590, Note_on_c, 0, 90, 108
2, 22663, Note_on_c, 0, 67, 0
2, 22672, Note_on_c, 0, 90, 0
2, 22680, Note_on_c, 0, 79, 106
2, 22680, Note_on_c, 0, 84, 107
2, 22680, Note_on_c, 0, 91, 105
2, 22680, Note_on_c, 0, 27, 62
2, 22680, Note_on_c, 0, 39, 62
2, 22843, Note_on_c, 0, 39, 0
2, 22843, Note_on_c, 0, 27, 0
2, 22860, Control_c, 0, 64, 0
2, 22860, Note_on_c, 0, 48, 94
2, 22942, Note_on_c, 0, 48, 0
2, 22950, Control_c, 0, 64, 127
2, 22950, Note_on_c, 0, 55, 94
2, 23005, Note_on_c, 0, 91, 0
2, 23005, Note_on_c, 0, 79, 0
2, 23005, Note_on_c, 0, 84, 0
2, 23032, Note_on_c, 0, 55, 0
2, 23040, Note_on_c, 0, 60, 95
2, 23122, Note_on_c, 0, 60, 0
2, 23130, Note_on_c, 0, 62, 88
2, 23212, Note_on_c, 0, 62, 0
2, 23220, Note_on_c, 0, 63, 89
2, 23302, Note_on_c, 0, 63, 0
2, 23310, Note_on_c, 0, 67, 89
2, 23392, Note_on_c, 0, 67, 0
2, 23400, Note_on_c, 0, 72, 91
2, 23482, Note_on_c, 0, 72, 0
2, 23490, Note_on_c, 0, 75, 89
2, 23572, Note_on_c, 0, 75, 0
2, 23580, Note_on_c, 0, 78, 90
2, 23662, Note_on_c, 0, 78, 0
2, 23670, Note_on_c, 0, 79, 91
2, 23752, Note_on_c, 0, 79, 0
2, 23760, Note_on_c, 0, 83, 79
2, 23842, Note_on_c, 0, 83, 0
2, 23850, Note_on_c, 0, 84, 99
2, 23932, Note_on_c, 0, 84, 0
2, 23940, Note_on_c, 0, 86, 103
2, 24022, Note_on_c, 0, 86, 0
2, 24030, Note_on_c, 0, 87, 101
2, 24112, Note_on_c, 0, 87, 0
2, 24120, Note_on_c, 0, 90, 104
2, 24202, Note_on_c, 0, 90, 0
2, 24210, Note_on_c, 0, 91, 103
2, 24292, Note_on_c, 0, 91, 0
2, 24300, Note_on_c, 0, 96, 95
2, 24300, Note_on_c, 0, 103, 95
2, 24463, Note_on_c, 0, 103, 0
2, 24463, Note_on_c, 0, 96, 0
2, 24480, Note_on_c, 0, 67, 78
2, 24480, Note_on_c, 0, 79, 81
2, 24480, Control_c, 0, 64, 127
2, 24643, Note_on_c, 0, 79, 0
2, 24643, Note_on_c, 0, 67, 0
2, 24660, Note_on_c, 0, 79, 127
2, 24660, Note_on_c, 0, 91, 126
2, 24823, Note_on_c, 0, 91, 0
2, 24823, Note_on_c, 0, 79, 0
2, 24839, Control_c, 0, 64, 0
2, 24839, Control_c, 0, 64, 0
2, 24840, Note_on_c, 0, 79, 118
2, 24840, Note_on_c, 0, 82, 119
2, 24840, Note_on_c, 0, 86, 117
2, 24840, Note_on_c, 0, 91, 120
2, 24840, Note_on_c, 0, 26, 74
2, 24840, Note_on_c, 0, 38, 72
2, 25003, Note_on_c, 0, 38, 0
2, 25003, Note_on_c, 0, 26, 0
2, 25020, Note_on_c, 0, 55, 98
2, 25102, Note_on_c, 0, 55, 0
2, 25110, Note_on_c, 0, 58, 90
2, 25192, Note_on_c, 0, 58, 0
2, 25200, Note_on_c, 0, 57, 78
2, 25282, Note_on_c, 0, 57, 0
2, 25290, Note_on_c, 0, 60, 87
2, 25327, Note_on_c, 0, 91, 0
2, 25327, Note_on_c, 0, 86, 0
2, 25327, Note_on_c, 0, 79, 0
2, 25327, Note_on_c, 0, 82, 0
2, 25372, Note_on_c, 0, 60, 0
2, 25380, Note_on_c, 0, 77, 104
2, 25380, Note_on_c, 0, 86, 103
2, 25380, Note_on_c, 0, 89, 105
2, 25380, Control_c, 0, 64, 127
2, 25380, Note_on_c, 0, 58, 80
2, 25462, Note_on_c, 0, 58, 0
2, 25470, Note_on_c, 0, 62, 90
2, 25552, Note_on_c, 0, 62, 0
2, 25560, Note_on_c, 0, 60, 76
2, 25642, Note_on_c, 0, 60, 0
2, 25650, Note_on_c, 0, 63, 87
2, 25732, Note_on_c, 0, 63, 0
2, 25740, Note_on_c, 0, 62, 74
2, 25822, Note_on_c, 0, 62, 0
2, 25830, Control_c, 0, 64, 0
2, 25830, Note_on_c, 0, 65, 87
2, 25867, Note_on_c, 0, 77, 0
2, 25867, Note_on_c, 0, 89, 0
2, 25867, Note_on_c, 0, 86, 0
2, 25912, Note_on_c, 0, 65, 0
2, 25920, Note_on_c, 0, 74, 104
2, 25920, Note_on_c, 0, 79, 104
2, 25920, Note_on_c, 0, 86, 104
2, 25920, Note_on_c, 0, 63, 78
2, 26002, Note_on_c, 0, 63, 0
2, 26010, Note_on_c, 0, 67, 86
2, 26092, Note_on_c, 0, 67, 0
2, 26100, Control_c, 0, 64, 127
2, 26100, Note_on_c, 0, 58, 65
2, 26182, Note_on_c, 0, 58, 0
2, 26190, Note_on_c, 0, 62, 88
2, 26272, Note_on_c, 0, 62, 0
2, 26280, Note_on_c, 0, 60, 74
2, 26362, Note_on_c, 0, 60, 0
2, 26370, Note_on_c, 0, 63, 87
2, 26452, Note_on_c, 0, 63, 0
2, 26460, Note_on_c, 0, 62, 79
2, 26542, Note_on_c, 0, 62, 0
2, 26550, Control_c, 0, 64, 0
2, 26550, Note_on_c, 0, 65, 87
2, 26623, Note_on_c, 0, 74, 0
2, 26623, Note_on_c, 0, 86, 0
2, 26623, Note_on_c, 0, 79, 0
2, 26632, Note_on_c, 0, 65, 0
2, 26640, Note_on_c, 0, 75, 99
2, 26640, Note_on_c, 0, 79, 101
2, 26640, Note_on_c, 0, 87, 99
2, 26640, Control_c, 0, 64, 127
2, 26640, Note_on_c, 0, 63, 75
2, 26722, Note_on_c, 0, 63, 0
2, 26730, Note_on_c, 0, 67, 87
2, 26812, Note_on_c, 0, 67, 0
2, 26820, Note_on_c, 0, 65, 75
2, 26902, Note_on_c, 0, 65, 0
2, 26910, Note_on_c, 0, 69, 89
2, 26965, Note_on_c, 0, 75, 0
2, 26965, Note_on_c, 0, 87, 0
2, 26965, Note_on_c, 0, 79, 0
2, 26992, Note_on_c, 0, 69, 0
2, 27000, Note_on_c, 0, 72, 84
2, 27000, Note_on_c, 0, 75, 86
2, 27000, Note_on_c, 0, 84, 85
2, 27000, Note_on_c, 0, 67, 80
2, 27082, Note_on_c, 0, 67, 0
2, 27090, Note_on_c, 0, 70, 87
2, 27172, Note_on_c, 0, 70, 0
2, 27180, Control_c, 0, 64, 127
2, 27180, Control_c, 0, 64, 0
2, 27180, Note_on_c, 0, 60, 62
2, 27262, Note_on_c, 0, 60, 0
2, 27270, Note_on_c, 0, 63, 84
2, 27352, Note_on_c, 0, 63, 0
2, 27360, Note_on_c, 0, 62, 76
2, 27442, Note_on_c, 0, 62, 0
2, 27450, Note_on_c, 0, 65, 88
2, 27532, Note_on_c, 0, 65, 0
2, 27540, Note_on_c, 0, 63, 80
2, 27622, Note_on_c, 0, 63, 0
2, 27630, Control_c, 0, 64, 0
2, 27630, Note_on_c, 0, 67, 88
2, 27703, Note_on_c, 0, 72, 0
2, 27703, Note_on_c, 0, 84, 0
2, 27703, Note_on_c, 0, 75, 0
2, 27712, Note_on_c, 0, 67, 0
2, 27720, Note_on_c, 0, 74, 78
2, 27720, Note_on_c, 0, 77, 78
2, 27720, Note_on_c, 0, 86, 78
2, 27720, Control_c, 0, 64, 127
2, 27720, Note_on_c, 0, 65, 77
2, 27802, Note_on_c, 0, 65, 0
2, 27810, Note_on_c, 0, 69, 89
2, 27892, Note_on_c, 0, 69, 0
2, 27900, Note_on_c, 0, 67, 76
2, 27982, Note_on_c, 0, 67, 0
2, 27990, Note_on_c, 0, 70, 86
2, 28045, Note_on_c, 0, 74, 0
2, 28045, Note_on_c, 0, 86, 0
2, 28045, Note_on_c, 0, 77, 0
2, 28072, Note_on_c, 0, 70, 0
2, 28080, Control_c, 0, 64, 127
2, 28080, Note_on_c, 0, 75, 60
2, 28080, Note_on_c, 0, 79, 59
2, 28080, Note_on_c, 0, 81, 58
2, 28080, Note_on_c, 0, 69, 78
2, 28162, Note_on_c, 0, 69, 0
2, 28170, Note_on_c, 0, 72, 84
2, 28252, Note_on_c, 0, 72, 0
2, 28260, Control_c, 0, 64, 127
2, 28260, Control_c, 0, 64, 0
2, 28260, Note_on_c, 0, 70, 75
2, 28342, Note_on_c, 0, 70, 0
2, 28350, Note_on_c, 0, 74, 89
2, 28405, Note_on_c, 0, 75, 0
2, 28405, Note_on_c, 0, 81, 0
2, 28405, Note_on_c, 0, 79, 0
2, 28432, Note_on_c, 0, 74, 0
2, 28440, Note_on_c, 0, 72, 74
2, 28522, Note_on_c, 0, 72, 0
2, 28530, Note_on_c, 0, 75, 86
2, 28612, Note_on_c, 0, 75, 0
2, 28620, Control_c, 0, 64, 0
2, 28620, Note_on_c, 0, 82, 60
2, 28620, Note_on_c, 0, 74, 107
2, 28620, Note_on_c, 0, 62, 57
2, 28702, Note_on_c, 0, 74, 0
2, 28710, Note_on_c, 0, 78, 119
2, 28710, Control_c, 0, 64, 127
2, 28792, Note_on_c, 0, 78, 0
2, 28800, Note_on_c, 0, 76, 103
2, 28882, Note_on_c, 0, 76, 0
2, 28890, Note_on_c, 0, 79, 113
2, 28972, Note_on_c, 0, 79, 0
2, 28980, Note_on_c, 0, 78, 99
2, 29062, Note_on_c, 0, 78, 0
2, 29070, Note_on_c, 0, 81, 110
2, 29070, Control_c, 0, 64, 0
2, 29107, Note_on_c, 0, 62, 0
2, 29107, Note_on_c, 0, 82, 0
2, 29152, Note_on_c, 0, 81, 0
2, 29160, Note_on_c, 0, 70, 46
2, 29160, Note_on_c, 0, 79, 47
2, 29160, Control_c, 0, 64, 127
2, 29160, Control_c, 0, 64, 0
2, 29160, Note_on_c, 0, 31, 61
2, 29160, Note_on_c, 0, 43, 58
2, 29323, Note_on_c, 0, 79, 0
2, 29323, Note_on_c, 0, 70, 0
2, 29340, Note_on_c, 0, 58, 34
2, 29340, Note_on_c, 0, 58, 34
2, 29422, Note_on_c, 0, 58, 0
2, 29430, Note_on_c, 0, 62, 52
2, 29485, Note_on_c, 0, 43, 0
2, 29485, Note_on_c, 0, 31, 0
2, 29503, Note_on_c, 0, 58, 0
2, 29512, Note_on_c, 0, 62, 0
2, 29520, Note_on_c, 0, 60, 45
2, 29520, Note_on_c, 0, 60, 47
2, 29520, Note_on_c, 0, 50, 91
2, 29602, Note_on_c, 0, 60, 0
2, 29610, Note_on_c, 0, 63, 51
2, 29610, Control_c, 0, 64, 127
2, 29683, Note_on_c, 0, 50, 0
2, 29683, Note_on_c, 0, 60, 0
2, 29692, Note_on_c, 0, 63, 0
2, 29700, Note_on_c, 0, 62, 50
2, 29700, Note_on_c, 0, 62, 53
2, 29700, Control_c, 0, 64, 0
2, 29700, Note_on_c, 0, 57, 99
2, 29700, Note_on_c, 0, 60, 101
2, 29782, Note_on_c, 0, 62, 0
2, 29790, Note_on_c, 0, 66, 53
2, 29863, Note_on_c, 0, 62, 0
2, 29872, Note_on_c, 0, 66, 0
2, 29880, Note_on_c, 0, 64, 47
2, 29880, Note_on_c, 0, 64, 49
2, 29962, Note_on_c, 0, 64, 0
2, 29970, Note_on_c, 0, 67, 51
2, 30025, Note_on_c, 0, 60, 0
2, 30025, Note_on_c, 0, 57, 0
2, 30043, Note_on_c, 0, 64, 0
2, 30052, Note_on_c, 0, 67, 0
2, 30060, Note_on_c, 0, 66, 49
2, 30060, Note_on_c, 0, 66, 54
2, 30060, Note_on_c, 0, 50, 67
2, 30060, Control_c, 0, 64, 0
2, 30142, Note_on_c, 0, 66, 0
2, 30150, Note_on_c, 0, 69, 55
2, 30223, Note_on_c, 0, 50, 0
2, 30223, Note_on_c, 0, 66, 0
2, 30232, Note_on_c, 0, 69, 0
2, 30240, Note_on_c, 0, 67, 56
2, 30240, Note_on_c, 0, 67, 59
2, 30240, Control_c, 0, 64, 127
2, 30240, Note_on_c, 0, 43, 65
2, 30322, Note_on_c, 0, 67, 0
2, 30330, Note_on_c, 0, 70, 60
2, 30403, Note_on_c, 0, 43, 0
2, 30403, Note_on_c, 0, 67, 0
2, 30412, Note_on_c, 0, 70, 0
2, 30420, Note_on_c, 0, 69, 54
2, 30420, Note_on_c, 0, 69, 63
2, 30420, Note_on_c, 0, 50, 92
2, 30502, Note_on_c, 0, 69, 0
2, 30510, Note_on_c, 0, 72, 62
2, 30583, Note_on_c, 0, 50, 0
2, 30583, Note_on_c, 0, 69, 0
2, 30592, Note_on_c, 0, 72, 0
2, 30600, Note_on_c, 0, 70, 55
2, 30600, Note_on_c, 0, 70, 61
2, 30600, Note_on_c, 0, 58, 98
2, 30682, Note_on_c, 0, 70, 0
2, 30690, Note_on_c, 0, 74, 68
2, 30763, Note_on_c, 0, 58, 0
2, 30763, Note_on_c, 0, 70, 0
2, 30772, Note_on_c, 0, 74, 0
2, 30780, Note_on_c, 0, 75, 69
2, 30780, Note_on_c, 0, 75, 71
2, 30780, Control_c, 0, 64, 127
2, 30780, Control_c, 0, 64, 0
2, 30780, Note_on_c, 0, 59, 96
2, 30780, Note_on_c, 0, 65, 98
2, 30862, Note_on_c, 0, 75, 0
2, 30870, Note_on_c, 0, 79, 71
2, 30952, Note_on_c, 0, 79, 0
2, 30960, Note_on_c, 0, 75, 58
2, 31042, Note_on_c, 0, 75, 0
2, 31050, Note_on_c, 0, 67, 54
2, 31105, Note_on_c, 0, 65, 0
2, 31105, Note_on_c, 0, 75, 0
2, 31105, Note_on_c, 0, 59, 0
2, 31132, Note_on_c, 0, 67, 0
2, 31140, Note_on_c, 0, 74, 75
2, 31140, Note_on_c, 0, 74, 65
2, 31140, Note_on_c, 0, 55, 63
2, 31140, Control_c, 0, 64, 0
2, 31222, Note_on_c, 0, 74, 0
2, 31230, Note_on_c, 0, 79, 81
2, 31303, Note_on_c, 0, 55, 0
2, 31303, Note_on_c, 0, 74, 0
2, 31312, Note_on_c, 0, 79, 0
2, 31320, Control_c, 0, 64, 127
2, 31320, Note_on_c, 0, 36, 64
2, 31320, Note_on_c, 0, 48, 66
2, 31500, Note_on_c, 0, 63, 56
2, 31500, Note_on_c, 0, 63, 71
2, 31582, Note_on_c, 0, 63, 0
2, 31590, Note_on_c, 0, 67, 76
2, 31645, Note_on_c, 0, 36, 0
2, 31645, Note_on_c, 0, 48, 0
2, 31663, Note_on_c, 0, 63, 0
2, 31672, Note_on_c, 0, 67, 0
2, 31680, Note_on_c, 0, 65, 71
2, 31680, Note_on_c, 0, 65, 81
2, 31680, Note_on_c, 0, 55, 90
2, 31762, Note_on_c, 0, 65, 0
2, 31770, Note_on_c, 0, 69, 81
2, 31843, Note_on_c, 0, 55, 0
2, 31843, Note_on_c, 0, 65, 0
2, 31852, Note_on_c, 0, 69, 0
2, 31860, Note_on_c, 0, 67, 77
2, 31860, Note_on_c, 0, 67, 87
2, 31860, Control_c, 0, 64, 127
2, 31860, Control_c, 0, 64, 0
2, 31860, Note_on_c, 0, 62, 103
2, 31860, Note_on_c, 0, 65, 102
2, 31942, Note_on_c, 0, 67, 0
2, 31950, Note_on_c, 0, 71, 85
2, 32023, Note_on_c, 0, 67, 0
2, 32032, Note_on_c, 0, 71, 0
2, 32040, Note_on_c, 0, 69, 74
2, 32040, Note_on_c, 0, 69, 87
2, 32122, Note_on_c, 0, 69, 0
2, 32130, Note_on_c, 0, 72, 87
2, 32185, Note_on_c, 0, 65, 0
2, 32185, Note_on_c, 0, 62, 0
2, 32203, Note_on_c, 0, 69, 0
2, 32212, Note_on_c, 0, 72, 0
2, 32220, Note_on_c, 0, 71, 80
2, 32220, Note_on_c, 0, 71, 92
2, 32220, Note_on_c, 0, 55, 65
2, 32220, Control_c, 0, 64, 0
2, 32302, Note_on_c, 0, 71, 0
2, 32310, Note_on_c, 0, 74, 90
2, 32383, Note_on_c, 0, 55, 0
2, 32383, Note_on_c, 0, 71, 0
2, 32392, Note_on_c, 0, 74, 0
2, 32400, Note_on_c, 0, 72, 85
2, 32400, Note_on_c, 0, 72, 95
2, 32400, Control_c, 0, 64, 127
2, 32400, Note_on_c, 0, 48, 67
2, 32482, Note_on_c, 0, 72, 0
2, 32490, Note_on_c, 0, 75, 92
2, 32563, Note_on_c, 0, 48, 0
2, 32563, Note_on_c, 0, 72, 0
2, 32572, Note_on_c, 0, 75, 0
2, 32580, Note_on_c, 0, 74, 86
2, 32580, Note_on_c, 0, 74, 96
2, 32580, Note_on_c, 0, 55, 92
2, 32662, Note_on_c, 0, 74, 0
2, 32670, Note_on_c, 0, 77, 96
2, 32743, Note_on_c, 0, 55, 0
2, 32743, Note_on_c, 0, 74, 0
2, 32752, Note_on_c, 0, 77, 0
2, 32760, Note_on_c, 0, 75, 89
2, 32760, Note_on_c, 0, 75, 99
2, 32760, Note_on_c, 0, 63, 97
2, 32842, Note_on_c, 0, 75, 0
2, 32850, Note_on_c, 0, 79, 100
2, 32923, Note_on_c, 0, 63, 0
2, 32923, Note_on_c, 0, 75, 0
2, 32932, Note_on_c, 0, 79, 0
2, 32940, Note_on_c, 0, 77, 95
2, 32940, Note_on_c, 0, 77, 100
2, 32940, Control_c, 0, 64, 127
2, 32940, Control_c, 0, 64, 0
2, 32940, Note_on_c, 0, 67, 92
2, 32940, Note_on_c, 0, 61, 69
2, 33022, Note_on_c, 0, 77, 0
2, 33030, Note_on_c, 0, 82, 107
2, 33112, Note_on_c, 0, 82, 0
2, 33120, Note_on_c, 0, 77, 86
2, 33202, Note_on_c, 0, 77, 0
2, 33210, Note_on_c, 0, 70, 75
2, 33265, Note_on_c, 0, 77, 0
2, 33265, Note_on_c, 0, 67, 0
2, 33292, Note_on_c, 0, 70, 0
2, 33300, Note_on_c, 0, 75, 104
2, 33300, Note_on_c, 0, 75, 90
2, 33300, Note_on_c, 0, 63, 73
2, 33300, Control_c, 0, 64, 0
2, 33382, Note_on_c, 0, 75, 0
2, 33390, Note_on_c, 0, 82, 115
2, 33427, Note_on_c, 0, 61, 0
2, 33463, Note_on_c, 0, 63, 0
2, 33463, Note_on_c, 0, 75, 0
2, 33472, Note_on_c, 0, 82, 0
2, 33480, Note_on_c, 0, 81, 98
2, 33480, Note_on_c, 0, 81, 113
2, 33480, Control_c, 0, 64, 127
2, 33480, Note_on_c, 0, 70, 94
2, 33480, Note_on_c, 0, 62, 87
2, 33562, Note_on_c, 0, 81, 0
2, 33570, Note_on_c, 0, 86, 109
2, 33652, Note_on_c, 0, 86, 0
2, 33660, Note_on_c, 0, 81, 84
2, 33742, Note_on_c, 0, 81, 0
2, 33750, Note_on_c, 0, 74, 76
2, 33805, Note_on_c, 0, 81, 0
2, 33805, Note_on_c, 0, 70, 0
2, 33832, Note_on_c, 0, 74, 0
2, 33840, Note_on_c, 0, 79, 105
2, 33840, Note_on_c, 0, 79, 93
2, 33840, Note_on_c, 0, 67, 78
2, 33922, Note_on_c, 0, 79, 0
2, 33930, Note_on_c, 0, 86, 113
2, 33967, Note_on_c, 0, 62, 0
2, 34003, Note_on_c, 0, 67, 0
2, 34003, Note_on_c, 0, 79, 0
2, 34012, Note_on_c, 0, 86, 0
2, 34020, Note_on_c, 0, 81, 89
2, 34020, Note_on_c, 0, 81, 100
2, 34020, Control_c, 0, 64, 127
2, 34020, Control_c, 0, 64, 0
2, 34020, Note_on_c, 0, 70, 92
2, 34020, Note_on_c, 0, 63, 85
2, 34102, Note_on_c, 0, 81, 0
2, 34110, Note_on_c, 0, 86, 106
2, 34192, Note_on_c, 0, 86, 0
2, 34200, Note_on_c, 0, 81, 84
2, 34282, Note_on_c, 0, 81, 0
2, 34290, Note_on_c, 0, 74, 76
2, 34345, Note_on_c, 0, 81, 0
2, 34345, Note_on_c, 0, 70, 0
2, 34372, Note_on_c, 0, 74, 0
2, 34380, Note_on_c, 0, 79, 105
2, 34380, Note_on_c, 0, 79, 89
2, 34380, Note_on_c, 0, 67, 81
2, 34380, Control_c, 0, 64, 0
2, 34462, Note_on_c, 0, 79, 0
2, 34470, Note_on_c, 0, 86, 113
2, 34507, Note_on_c, 0, 63, 0
2, 34543, Note_on_c, 0, 67, 0
2, 34543, Note_on_c, 0, 79, 0
2, 34552, Note_on_c, 0, 86, 0
2, 34560, Note_on_c, 0, 82, 93
2, 34560, Note_on_c, 0, 82, 106
2, 34560, Control_c, 0, 64, 127
2, 34560, Note_on_c, 0, 74, 105
2, 34560, Note_on_c, 0, 64, 106
2, 34560, Note_on_c, 0, 66, 107
2, 34560, Note_on_c, 0, 70, 106
2, 34642, Note_on_c, 0, 82, 0
2, 34650, Note_on_c, 0, 90, 116
2, 34732, Note_on_c, 0, 90, 0
2, 34740, Note_on_c, 0, 82, 81
2, 34822, Note_on_c, 0, 82, 0
2, 34830, Note_on_c, 0, 78, 83
2, 34885, Note_on_c, 0, 74, 0
2, 34885, Note_on_c, 0, 82, 0
2, 34912, Note_on_c, 0, 78, 0
2, 34920, Note_on_c, 0, 82, 104
2, 34920, Note_on_c, 0, 82, 96
2, 34920, Note_on_c, 0, 73, 90
2, 35002, Note_on_c, 0, 82, 0
2, 35010, Note_on_c, 0, 90, 114
2, 35010, Control_c, 0, 64, 127
2, 35047, Note_on_c, 0, 64, 0
2, 35047, Note_on_c, 0, 70, 0
2, 35047, Note_on_c, 0, 66, 0
2, 35083, Note_on_c, 0, 73, 0
2, 35083, Note_on_c, 0, 82, 0
2, 35092, Note_on_c, 0, 90, 0
2, 35100, Note_on_c, 0, 86, 91
2, 35100, Note_on_c, 0, 86, 105
2, 35100, Control_c, 0, 64, 0
2, 35100, Note_on_c, 0, 74, 95
2, 35100, Note_on_c, 0, 63, 84
2, 35100, Note_on_c, 0, 67, 88
2, 35182, Note_on_c, 0, 86, 0
2, 35190, Note_on_c, 0, 91, 109
2, 35272, Note_on_c, 0, 91, 0
2, 35280, Note_on_c, 0, 86, 85
2, 35362, Note_on_c, 0, 86, 0
2, 35370, Note_on_c, 0, 79, 75
2, 35425, Note_on_c, 0, 86, 0
2, 35425, Note_on_c, 0, 74, 0
2, 35452, Note_on_c, 0, 79, 0
2, 35460, Note_on_c, 0, 84, 104
2, 35460, Note_on_c, 0, 84, 90
2, 35460, Note_on_c, 0, 72, 90
2, 35542, Note_on_c, 0, 84, 0
2, 35550, Note_on_c, 0, 91, 114
2, 35587, Note_on_c, 0, 63, 0
2, 35587, Note_on_c, 0, 67, 0
2, 35623, Note_on_c, 0, 84, 0
2, 35623, Note_on_c, 0, 72, 0
2, 35632, Note_on_c, 0, 91, 0
2, 35640, Note_on_c, 0, 82, 127
2, 35640, Note_on_c, 0, 86, 126
2, 35640, Note_on_c, 0, 91, 126
2, 35640, Note_on_c, 0, 94, 127
2, 35640, Control_c, 0, 64, 127
2, 35640, Control_c, 0, 64, 0
2, 35640, Note_on_c, 0, 62, 119
2, 35640, Note_on_c, 0, 67, 121
2, 35640, Note_on_c, 0, 70, 119
2, 35640, Note_on_c, 0, 74, 121
2, 36127, Note_on_c, 0, 74, 0
2, 36127, Note_on_c, 0, 82, 0
2, 36127, Note_on_c, 0, 62, 0
2, 36127, Note_on_c, 0, 86, 0
2, 36127, Note_on_c, 0, 91, 0
2, 36127, Note_on_c, 0, 94, 0
2, 36127, Note_on_c, 0, 67, 0
2, 36127, Note_on_c, 0, 70, 0
2, 36180, Note_on_c, 0, 79, 84
2, 36180, Note_on_c, 0, 82, 83
2, 36667, Note_on_c, 0, 82, 0
2, 36667, Note_on_c, 0, 79, 0
2, 36720, Note_on_c, 0, 67, 102
2, 36720, Note_on_c, 0, 70, 100
2, 37207, Note_on_c, 0, 70, 0
2, 37207, Note_on_c, 0, 67, 0
2, 37260, Note_on_c, 0, 54, 99
2, 37260, Note_on_c, 0, 60, 100
2, 37260, Note_on_c, 0, 62, 100
2, 37260, Control_c, 0, 64, 127
2, 37260, Control_c, 0, 64, 0
2, 37260, Note_on_c, 0, 38, 78
2, 37260, Note_on_c, 0, 50, 77
2, 37260, Control_c, 0, 64, 0
2, 37747, Note_on_c, 0, 50, 0
2, 37747, Note_on_c, 0, 62, 0
2, 37747, Note_on_c, 0, 54, 0
2, 37747, Note_on_c, 0, 60, 0
2, 37747, Note_on_c, 0, 38, 0
2, 37800, Control_c, 0, 64, 127
2, 37800, Note_on_c, 0, 31, 88
2, 37800, Note_on_c, 0, 43, 89
2, 38287, Note_on_c, 0, 43, 0
2, 38287, Note_on_c, 0, 31, 0
2, 38340, Note_on_c, 0, 67, 98
2, 38340, Note_on_c, 0, 70, 97
2, 38340, Note_on_c, 0, 79, 98
2, 38340, Note_on_c, 0, 50, 127
2, 38340, Note_on_c, 0, 58, 127
2, 38340, Note_on_c, 0, 62, 127
2, 38340, Control_c, 0, 64, 0
2, 38827, Note_on_c, 0, 62, 0
2, 38827, Note_on_c, 0, 70, 0
2, 38827, Note_on_c, 0, 79, 0
2, 38827, Note_on_c, 0, 67, 0
2, 38827, Note_on_c, 0, 58, 0
2, 38827, Note_on_c, 0, 50, 0
2, 38827, End_track
0, 0, End_of_file
