0, 0, Header, 1, 2, 360
1, 0, Start_track
1, 0, Title_t, "Mélodie Op 3 No 3"
1, 0, Copyright_t, "Copyright (C) "
1, 0, Text_t, "Rachmaninoff\012"
1, 0, Time_signature, 4, 2, 24, 8
1, 0, Key_signature, 4, "major"
1, 0, Tempo, 1090909
1, 6120, Tempo, 1090909
1, 6143, Tempo, 1117735
1, 6165, Tempo, 1145913
1, 6188, Tempo, 1175318
1, 6210, Tempo, 1206515
1, 6233, Tempo, 1239413
1, 6255, Tempo, 1274156
1, 6278, Tempo, 1310616
1, 6300, Tempo, 1349528
1, 6323, Tempo, 1390821
1, 6359, Tempo, 1463415
1, 6480, Tempo, 1090909
1, 12600, Tempo, 1200000
1, 12960, Tempo, 1090909
1, 22680, Tempo, 1090909
1, 22703, Tempo, 1117735
1, 22725, Tempo, 1145913
1, 22748, Tempo, 1175318
1, 22770, Tempo, 1206515
1, 22793, Tempo, 1239413
1, 22815, Tempo, 1274156
1, 22838, Tempo, 1310616
1, 22860, Tempo, 1349528
1, 22883, Tempo, 1390821
1, 22919, Tempo, 1463415
1, 23040, Tempo, 1090909
1, 53640, Tempo, 1090909
1, 53700, Tempo, 1107420
1, 53761, Tempo, 1124438
1, 53822, Tempo, 1141987
1, 53882, Tempo, 1160093
1, 53942, Tempo, 1178782
1, 54003, Tempo, 1197844
1, 54063, Tempo, 1217780
1, 54124, Tempo, 1238390
1, 54184, Tempo, 1259710
1, 54245, Tempo, 1281777
1, 54305, Tempo, 1304631
1, 54366, Tempo, 1328315
1, 54426, Tempo, 1352875
1, 54487, Tempo, 1378360
1, 54547, Tempo, 1404823
1, 54608, Tempo, 1431981
1, 54674, Tempo, 1463415
1, 54720, Tempo, 1090909
1, 63720, Tempo, 1200000
1, 63959, Tempo, 1090909
1, 70200, Tempo, 1200000
1, 70560, Tempo, 1090909
1, 82080, Tempo, 1090909
1, 82160, Tempo, 1107215
1, 82241, Tempo, 1124227
1, 82320, Tempo, 1141553
1, 82401, Tempo, 1159420
1, 82481, Tempo, 1178088
1, 82561, Tempo, 1197127
1, 82641, Tempo, 1216792
1, 82721, Tempo, 1237369
1, 82802, Tempo, 1258389
1, 82882, Tempo, 1280137
1, 82962, Tempo, 1302932
1, 83042, Tempo, 1326260
1, 83122, Tempo, 1350439
1, 83202, Tempo, 1375831
1, 83282, Tempo, 1401869
1, 83363, Tempo, 1429252
1, 83460, Tempo, 1463415
1, 83520, Time_signature, 7, 2, 24, 8
1, 85680, Tempo, 1463415
1, 85703, Tempo, 1488464
1, 85725, Tempo, 1514387
1, 85748, Tempo, 1541228
1, 85770, Tempo, 1569038
1, 85793, Tempo, 1597870
1, 85815, Tempo, 1627781
1, 85838, Tempo, 1658833
1, 85860, Tempo, 1691094
1, 85883, Tempo, 1724634
1, 85905, Tempo, 1759531
1, 85928, Tempo, 1795870
1, 85950, Tempo, 1833741
1, 85973, Tempo, 1873244
1, 85995, Tempo, 1914486
1, 86039, Tempo, 2000000
1, 86670, Tempo, 5000000
1, 86760, Tempo, 2000000
1, 86760, End_track
2, 0, Start_track
2, 0, Title_t, "Piano"
2, 0, Program_c, 0, 0
2, 0, Control_c, 0, 7, 105
2, 0, Control_c, 0, 10, 64
2, 0, Control_c, 0, 91, 48
2, 0, Control_c, 0, 121, 0
2, 0, Control_c, 0, 64, 0
2, 0, Control_c, 0, 121, 0
2, 0, Control_c, 0, 64, 0
2, 0, Control_c, 0, 91, 48
2, 0, Control_c, 0, 10, 51
2, 0, Control_c, 0, 7, 100
2, 120, Control_c, 0, 64, 127
2, 120, Note_on_c, 0, 59, 60
2, 120, Note_on_c, 0, 64, 60
2, 120, Note_on_c, 0, 68, 60
2, 120, Note_on_c, 0, 71, 60
2, 224, Note_on_c, 0, 71, 0
2, 224, Note_on_c, 0, 59, 0
2, 224, Note_on_c, 0, 64, 0
2, 224, Note_on_c, 0, 68, 0
2, 239, Note_on_c, 0, 59, 63
2, 239, Note_on_c, 0, 64, 63
2, 239, Note_on_c, 0, 68, 63
2, 239, Note_on_c, 0, 71, 63
2, 345, Note_on_c, 0, 71, 0
2, 345, Note_on_c, 0, 59, 0
2, 345, Note_on_c, 0, 64, 0
2, 345, Note_on_c, 0, 68, 0
2, 360, Control_c, 0, 64, 0
2, 480, Control_c, 0, 64, 127
2, 480, Note_on_c, 0, 59, 55
2, 480, Note_on_c, 0, 64, 55
2, 480, Note_on_c, 0, 68, 55
2, 480, Note_on_c, 0, 71, 55
2, 584, Note_on_c, 0, 71, 0
2, 584, Note_on_c, 0, 59, 0
2, 584, Note_on_c, 0, 64, 0
2, 584, Note_on_c, 0, 68, 0
2, 599, Note_on_c, 0, 59, 69
2, 599, Note_on_c, 0, 64, 69
2, 599, Note_on_c, 0, 68, 69
2, 599, Note_on_c, 0, 71, 69
2, 705, Note_on_c, 0, 71, 0
2, 705, Note_on_c, 0, 59, 0
2, 705, Note_on_c, 0, 64, 0
2, 705, Note_on_c, 0, 68, 0
2, 720, Control_c, 0, 64, 0
2, 840, Note_on_c, 0, 59, 60
2, 840, Note_on_c, 0, 64, 60
2, 840, Note_on_c, 0, 68, 60
2, 840, Note_on_c, 0, 71, 60
2, 944, Note_on_c, 0, 71, 0
2, 944, Note_on_c, 0, 59, 0
2, 944, Note_on_c, 0, 64, 0
2, 944, Note_on_c, 0, 68, 0
2, 959, Note_on_c, 0, 59, 65
2, 959, Note_on_c, 0, 64, 65
2, 959, Note_on_c, 0, 68, 65
2, 959, Note_on_c, 0, 71, 65
2, 1065, Note_on_c, 0, 71, 0
2, 1065, Note_on_c, 0, 59, 0
2, 1065, Note_on_c, 0, 64, 0
2, 1065, Note_on_c, 0, 68, 0
2, 1080, Note_on_c, 0, 52, 79
2, 1200, Note_on_c, 0, 59, 62
2, 1200, Note_on_c, 0, 64, 62
2, 1200, Note_on_c, 0, 68, 62
2, 1200, Note_on_c, 0, 71, 62
2, 1304, Note_on_c, 0, 71, 0
2, 1304, Note_on_c, 0, 64, 0
2, 1304, Note_on_c, 0, 68, 0
2, 1304, Note_on_c, 0, 59, 0
2, 1319, Note_on_c, 0, 59, 70
2, 1319, Note_on_c, 0, 64, 70
2, 1319, Note_on_c, 0, 68, 70
2, 1319, Note_on_c, 0, 71, 70
2, 1425, Note_on_c, 0, 71, 0
2, 1425, Note_on_c, 0, 64, 0
2, 1425, Note_on_c, 0, 68, 0
2, 1425, Note_on_c, 0, 59, 0
2, 1440, Note_on_c, 0, 52, 0
2, 1440, Control_c, 0, 64, 127
2, 1440, Note_on_c, 0, 54, 89
2, 1560, Note_on_c, 0, 59, 61
2, 1560, Note_on_c, 0, 63, 61
2, 1560, Note_on_c, 0, 69, 61
2, 1560, Note_on_c, 0, 71, 61
2, 1664, Note_on_c, 0, 71, 0
2, 1664, Note_on_c, 0, 63, 0
2, 1664, Note_on_c, 0, 69, 0
2, 1664, Note_on_c, 0, 59, 0
2, 1679, Note_on_c, 0, 59, 63
2, 1679, Note_on_c, 0, 63, 63
2, 1679, Note_on_c, 0, 69, 63
2, 1679, Note_on_c, 0, 71, 63
2, 1785, Note_on_c, 0, 71, 0
2, 1785, Note_on_c, 0, 63, 0
2, 1785, Note_on_c, 0, 69, 0
2, 1785, Note_on_c, 0, 59, 0
2, 1920, Note_on_c, 0, 59, 65
2, 1920, Note_on_c, 0, 63, 65
2, 1920, Note_on_c, 0, 69, 65
2, 1920, Note_on_c, 0, 71, 65
2, 2024, Note_on_c, 0, 71, 0
2, 2024, Note_on_c, 0, 63, 0
2, 2024, Note_on_c, 0, 69, 0
2, 2024, Note_on_c, 0, 59, 0
2, 2039, Note_on_c, 0, 59, 66
2, 2039, Note_on_c, 0, 63, 66
2, 2039, Note_on_c, 0, 69, 66
2, 2039, Note_on_c, 0, 71, 66
2, 2145, Note_on_c, 0, 71, 0
2, 2145, Note_on_c, 0, 63, 0
2, 2145, Note_on_c, 0, 69, 0
2, 2145, Note_on_c, 0, 59, 0
2, 2280, Note_on_c, 0, 59, 62
2, 2280, Note_on_c, 0, 63, 62
2, 2280, Note_on_c, 0, 69, 62
2, 2280, Note_on_c, 0, 71, 62
2, 2384, Note_on_c, 0, 71, 0
2, 2384, Note_on_c, 0, 63, 0
2, 2384, Note_on_c, 0, 69, 0
2, 2384, Note_on_c, 0, 59, 0
2, 2399, Note_on_c, 0, 59, 66
2, 2399, Note_on_c, 0, 63, 66
2, 2399, Note_on_c, 0, 69, 66
2, 2399, Note_on_c, 0, 71, 66
2, 2505, Note_on_c, 0, 71, 0
2, 2505, Note_on_c, 0, 63, 0
2, 2505, Note_on_c, 0, 69, 0
2, 2505, Note_on_c, 0, 59, 0
2, 2520, Note_on_c, 0, 54, 0
2, 2520, Control_c, 0, 64, 0
2, 2520, Note_on_c, 0, 57, 87
2, 2640, Note_on_c, 0, 59, 64
2, 2640, Note_on_c, 0, 63, 64
2, 2640, Note_on_c, 0, 66, 64
2, 2640, Note_on_c, 0, 71, 64
2, 2744, Note_on_c, 0, 71, 0
2, 2744, Note_on_c, 0, 63, 0
2, 2744, Note_on_c, 0, 66, 0
2, 2744, Note_on_c, 0, 59, 0
2, 2759, Note_on_c, 0, 59, 64
2, 2759, Note_on_c, 0, 63, 64
2, 2759, Note_on_c, 0, 66, 64
2, 2759, Note_on_c, 0, 71, 64
2, 2790, Note_on_c, 0, 57, 0
2, 2790, Note_on_c, 0, 56, 90
2, 2865, Note_on_c, 0, 66, 0
2, 2865, Note_on_c, 0, 71, 0
2, 2865, Note_on_c, 0, 59, 0
2, 2865, Note_on_c, 0, 63, 0
2, 2880, Note_on_c, 0, 56, 0
2, 2880, Control_c, 0, 64, 127
2, 2880, Note_on_c, 0, 56, 84
2, 3000, Note_on_c, 0, 59, 57
2, 3000, Note_on_c, 0, 66, 57
2, 3000, Note_on_c, 0, 71, 57
2, 3104, Note_on_c, 0, 71, 0
2, 3104, Note_on_c, 0, 66, 0
2, 3104, Note_on_c, 0, 59, 0
2, 3119, Note_on_c, 0, 59, 67
2, 3119, Note_on_c, 0, 66, 67
2, 3119, Note_on_c, 0, 71, 67
2, 3225, Note_on_c, 0, 71, 0
2, 3225, Note_on_c, 0, 66, 0
2, 3225, Note_on_c, 0, 59, 0
2, 3360, Note_on_c, 0, 59, 61
2, 3360, Note_on_c, 0, 66, 61
2, 3360, Note_on_c, 0, 71, 61
2, 3464, Note_on_c, 0, 71, 0
2, 3464, Note_on_c, 0, 66, 0
2, 3464, Note_on_c, 0, 59, 0
2, 3479, Note_on_c, 0, 59, 66
2, 3479, Note_on_c, 0, 66, 66
2, 3479, Note_on_c, 0, 71, 66
2, 3585, Note_on_c, 0, 71, 0
2, 3585, Note_on_c, 0, 66, 0
2, 3585, Note_on_c, 0, 59, 0
2, 3600, Note_on_c, 0, 64, 73
2, 3600, Note_on_c, 0, 71, 73
2, 3600, Note_on_c, 0, 76, 73
2, 3600, Control_c, 0, 64, 0
2, 3704, Note_on_c, 0, 76, 0
2, 3704, Note_on_c, 0, 71, 0
2, 3704, Note_on_c, 0, 64, 0
2, 3720, Note_on_c, 0, 64, 65
2, 3720, Note_on_c, 0, 71, 65
2, 3720, Note_on_c, 0, 76, 65
2, 3824, Note_on_c, 0, 76, 0
2, 3824, Note_on_c, 0, 71, 0
2, 3824, Note_on_c, 0, 64, 0
2, 3839, Note_on_c, 0, 56, 0
2, 3839, Note_on_c, 0, 64, 66
2, 3839, Note_on_c, 0, 71, 66
2, 3839, Note_on_c, 0, 76, 66
2, 3839, Note_on_c, 0, 56, 90
2, 3945, Note_on_c, 0, 76, 0
2, 3945, Note_on_c, 0, 64, 0
2, 3945, Note_on_c, 0, 71, 0
2, 3960, Note_on_c, 0, 56, 0
2, 3960, Control_c, 0, 64, 127
2, 3960, Note_on_c, 0, 57, 92
2, 4080, Note_on_c, 0, 65, 59
2, 4080, Note_on_c, 0, 71, 59
2, 4080, Note_on_c, 0, 74, 59
2, 4184, Note_on_c, 0, 74, 0
2, 4184, Note_on_c, 0, 71, 0
2, 4184, Note_on_c, 0, 65, 0
2, 4199, Note_on_c, 0, 57, 0
2, 4199, Note_on_c, 0, 65, 64
2, 4199, Note_on_c, 0, 71, 64
2, 4199, Note_on_c, 0, 74, 64
2, 4199, Control_c, 0, 64, 0
2, 4199, Note_on_c, 0, 59, 92
2, 4305, Note_on_c, 0, 74, 0
2, 4305, Note_on_c, 0, 65, 0
2, 4305, Note_on_c, 0, 71, 0
2, 4320, Note_on_c, 0, 59, 0
2, 4320, Control_c, 0, 64, 127
2, 4320, Note_on_c, 0, 61, 93
2, 4440, Note_on_c, 0, 65, 62
2, 4440, Note_on_c, 0, 71, 62
2, 4440, Note_on_c, 0, 73, 62
2, 4544, Note_on_c, 0, 73, 0
2, 4544, Note_on_c, 0, 71, 0
2, 4544, Note_on_c, 0, 65, 0
2, 4559, Note_on_c, 0, 65, 70
2, 4559, Note_on_c, 0, 71, 70
2, 4559, Note_on_c, 0, 73, 70
2, 4665, Note_on_c, 0, 73, 0
2, 4665, Note_on_c, 0, 71, 0
2, 4665, Note_on_c, 0, 65, 0
2, 4800, Note_on_c, 0, 65, 63
2, 4800, Note_on_c, 0, 71, 63
2, 4800, Note_on_c, 0, 73, 63
2, 4904, Note_on_c, 0, 73, 0
2, 4904, Note_on_c, 0, 71, 0
2, 4904, Note_on_c, 0, 65, 0
2, 4919, Note_on_c, 0, 65, 70
2, 4919, Note_on_c, 0, 71, 70
2, 4919, Note_on_c, 0, 73, 70
2, 5025, Note_on_c, 0, 73, 0
2, 5025, Note_on_c, 0, 71, 0
2, 5025, Note_on_c, 0, 65, 0
2, 5040, Note_on_c, 0, 61, 0
2, 5040, Note_on_c, 0, 73, 85
2, 5040, Note_on_c, 0, 78, 85
2, 5040, Note_on_c, 0, 81, 85
2, 5040, Note_on_c, 0, 85, 85
2, 5040, Control_c, 0, 64, 0
2, 5040, Note_on_c, 0, 61, 87
2, 5144, Note_on_c, 0, 85, 0
2, 5144, Note_on_c, 0, 81, 0
2, 5144, Note_on_c, 0, 73, 0
2, 5144, Note_on_c, 0, 78, 0
2, 5160, Note_on_c, 0, 73, 72
2, 5160, Note_on_c, 0, 78, 72
2, 5160, Note_on_c, 0, 81, 72
2, 5160, Note_on_c, 0, 85, 72
2, 5264, Note_on_c, 0, 85, 0
2, 5264, Note_on_c, 0, 78, 0
2, 5264, Note_on_c, 0, 81, 0
2, 5264, Note_on_c, 0, 73, 0
2, 5279, Note_on_c, 0, 73, 67
2, 5279, Note_on_c, 0, 78, 67
2, 5279, Note_on_c, 0, 81, 67
2, 5279, Note_on_c, 0, 85, 67
2, 5385, Note_on_c, 0, 85, 0
2, 5385, Note_on_c, 0, 78, 0
2, 5385, Note_on_c, 0, 81, 0
2, 5385, Note_on_c, 0, 73, 0
2, 5400, Note_on_c, 0, 61, 0
2, 5400, Note_on_c, 0, 63, 91
2, 5520, Note_on_c, 0, 73, 60
2, 5520, Note_on_c, 0, 78, 60
2, 5520, Note_on_c, 0, 81, 60
2, 5520, Note_on_c, 0, 85, 60
2, 5580, Note_on_c, 0, 63, 0
2, 5580, Note_on_c, 0, 64, 96
2, 5624, Note_on_c, 0, 81, 0
2, 5624, Note_on_c, 0, 85, 0
2, 5624, Note_on_c, 0, 73, 0
2, 5624, Note_on_c, 0, 78, 0
2, 5639, Note_on_c, 0, 73, 62
2, 5639, Note_on_c, 0, 78, 62
2, 5639, Note_on_c, 0, 81, 62
2, 5639, Note_on_c, 0, 85, 62
2, 5745, Note_on_c, 0, 85, 0
2, 5745, Note_on_c, 0, 78, 0
2, 5745, Note_on_c, 0, 81, 0
2, 5745, Note_on_c, 0, 73, 0
2, 5760, Note_on_c, 0, 64, 0
2, 5760, Control_c, 0, 64, 127
2, 5760, Note_on_c, 0, 66, 92
2, 5880, Note_on_c, 0, 72, 65
2, 5880, Note_on_c, 0, 75, 65
2, 5880, Note_on_c, 0, 80, 65
2, 5880, Note_on_c, 0, 84, 65
2, 5984, Note_on_c, 0, 84, 0
2, 5984, Note_on_c, 0, 75, 0
2, 5984, Note_on_c, 0, 80, 0
2, 5984, Note_on_c, 0, 72, 0
2, 5999, Note_on_c, 0, 72, 65
2, 5999, Note_on_c, 0, 75, 65
2, 5999, Note_on_c, 0, 80, 65
2, 5999, Note_on_c, 0, 84, 65
2, 6105, Note_on_c, 0, 84, 0
2, 6105, Note_on_c, 0, 75, 0
2, 6105, Note_on_c, 0, 80, 0
2, 6105, Note_on_c, 0, 72, 0
2, 6120, Note_on_c, 0, 66, 0
2, 6120, Control_c, 0, 64, 0
2, 6120, Control_c, 0, 64, 127
2, 6120, Note_on_c, 0, 68, 106
2, 6240, Note_on_c, 0, 72, 59
2, 6240, Note_on_c, 0, 75, 59
2, 6240, Note_on_c, 0, 80, 59
2, 6240, Note_on_c, 0, 84, 59
2, 6344, Note_on_c, 0, 84, 0
2, 6344, Note_on_c, 0, 75, 0
2, 6344, Note_on_c, 0, 80, 0
2, 6344, Note_on_c, 0, 72, 0
2, 6359, Note_on_c, 0, 72, 66
2, 6359, Note_on_c, 0, 75, 66
2, 6359, Note_on_c, 0, 80, 66
2, 6359, Note_on_c, 0, 84, 66
2, 6465, Note_on_c, 0, 84, 0
2, 6465, Note_on_c, 0, 75, 0
2, 6465, Note_on_c, 0, 80, 0
2, 6465, Note_on_c, 0, 72, 0
2, 6480, Note_on_c, 0, 71, 69
2, 6480, Note_on_c, 0, 76, 69
2, 6480, Note_on_c, 0, 80, 69
2, 6480, Note_on_c, 0, 83, 69
2, 6584, Note_on_c, 0, 83, 0
2, 6584, Note_on_c, 0, 76, 0
2, 6584, Note_on_c, 0, 80, 0
2, 6584, Note_on_c, 0, 71, 0
2, 6600, Note_on_c, 0, 71, 66
2, 6600, Note_on_c, 0, 76, 66
2, 6600, Note_on_c, 0, 80, 66
2, 6600, Note_on_c, 0, 83, 66
2, 6704, Note_on_c, 0, 83, 0
2, 6704, Note_on_c, 0, 76, 0
2, 6704, Note_on_c, 0, 80, 0
2, 6704, Note_on_c, 0, 71, 0
2, 6719, Note_on_c, 0, 71, 70
2, 6719, Note_on_c, 0, 76, 70
2, 6719, Note_on_c, 0, 80, 70
2, 6719, Note_on_c, 0, 83, 70
2, 6753, Note_on_c, 0, 68, 0
2, 6825, Note_on_c, 0, 80, 0
2, 6825, Note_on_c, 0, 71, 0
2, 6825, Note_on_c, 0, 76, 0
2, 6825, Note_on_c, 0, 83, 0
2, 6840, Control_c, 0, 64, 0
2, 6840, Note_on_c, 0, 66, 87
2, 6960, Note_on_c, 0, 71, 62
2, 6960, Note_on_c, 0, 76, 62
2, 6960, Note_on_c, 0, 80, 62
2, 6960, Note_on_c, 0, 83, 62
2, 7064, Note_on_c, 0, 83, 0
2, 7064, Note_on_c, 0, 76, 0
2, 7064, Note_on_c, 0, 80, 0
2, 7064, Note_on_c, 0, 71, 0
2, 7079, Note_on_c, 0, 66, 0
2, 7079, Note_on_c, 0, 71, 74
2, 7079, Note_on_c, 0, 76, 74
2, 7079, Note_on_c, 0, 80, 74
2, 7079, Note_on_c, 0, 83, 74
2, 7079, Note_on_c, 0, 64, 83
2, 7185, Note_on_c, 0, 83, 0
2, 7185, Note_on_c, 0, 80, 0
2, 7185, Note_on_c, 0, 71, 0
2, 7185, Note_on_c, 0, 76, 0
2, 7200, Note_on_c, 0, 64, 0
2, 7200, Note_on_c, 0, 64, 87
2, 7320, Note_on_c, 0, 70, 63
2, 7320, Note_on_c, 0, 73, 63
2, 7320, Note_on_c, 0, 80, 63
2, 7320, Note_on_c, 0, 82, 63
2, 7424, Note_on_c, 0, 82, 0
2, 7424, Note_on_c, 0, 73, 0
2, 7424, Note_on_c, 0, 80, 0
2, 7424, Note_on_c, 0, 70, 0
2, 7439, Note_on_c, 0, 70, 67
2, 7439, Note_on_c, 0, 73, 67
2, 7439, Note_on_c, 0, 80, 67
2, 7439, Note_on_c, 0, 82, 67
2, 7545, Note_on_c, 0, 82, 0
2, 7545, Note_on_c, 0, 73, 0
2, 7545, Note_on_c, 0, 80, 0
2, 7545, Note_on_c, 0, 70, 0
2, 7680, Note_on_c, 0, 70, 60
2, 7680, Note_on_c, 0, 73, 60
2, 7680, Note_on_c, 0, 80, 60
2, 7680, Note_on_c, 0, 82, 60
2, 7784, Note_on_c, 0, 82, 0
2, 7784, Note_on_c, 0, 73, 0
2, 7784, Note_on_c, 0, 80, 0
2, 7784, Note_on_c, 0, 70, 0
2, 7799, Note_on_c, 0, 70, 65
2, 7799, Note_on_c, 0, 73, 65
2, 7799, Note_on_c, 0, 80, 65
2, 7799, Note_on_c, 0, 82, 65
2, 7905, Note_on_c, 0, 82, 0
2, 7905, Note_on_c, 0, 73, 0
2, 7905, Note_on_c, 0, 80, 0
2, 7905, Note_on_c, 0, 70, 0
2, 7920, Note_on_c, 0, 69, 67
2, 7920, Note_on_c, 0, 73, 67
2, 7920, Note_on_c, 0, 76, 67
2, 7920, Note_on_c, 0, 81, 67
2, 8024, Note_on_c, 0, 81, 0
2, 8024, Note_on_c, 0, 73, 0
2, 8024, Note_on_c, 0, 76, 0
2, 8024, Note_on_c, 0, 69, 0
2, 8040, Note_on_c, 0, 69, 72
2, 8040, Note_on_c, 0, 73, 72
2, 8040, Note_on_c, 0, 76, 72
2, 8040, Note_on_c, 0, 81, 72
2, 8100, Note_on_c, 0, 64, 0
2, 8100, Note_on_c, 0, 64, 89
2, 8144, Note_on_c, 0, 76, 0
2, 8144, Note_on_c, 0, 81, 0
2, 8144, Note_on_c, 0, 69, 0
2, 8144, Note_on_c, 0, 73, 0
2, 8159, Note_on_c, 0, 69, 72
2, 8159, Note_on_c, 0, 73, 72
2, 8159, Note_on_c, 0, 76, 72
2, 8159, Note_on_c, 0, 81, 72
2, 8265, Note_on_c, 0, 81, 0
2, 8265, Note_on_c, 0, 73, 0
2, 8265, Note_on_c, 0, 76, 0
2, 8265, Note_on_c, 0, 69, 0
2, 8280, Note_on_c, 0, 64, 0
2, 8280, Note_on_c, 0, 63, 84
2, 8400, Note_on_c, 0, 69, 61
2, 8400, Note_on_c, 0, 73, 61
2, 8400, Note_on_c, 0, 76, 61
2, 8400, Note_on_c, 0, 81, 61
2, 8504, Note_on_c, 0, 81, 0
2, 8504, Note_on_c, 0, 73, 0
2, 8504, Note_on_c, 0, 76, 0
2, 8504, Note_on_c, 0, 69, 0
2, 8519, Note_on_c, 0, 69, 68
2, 8519, Note_on_c, 0, 73, 68
2, 8519, Note_on_c, 0, 76, 68
2, 8519, Note_on_c, 0, 81, 68
2, 8550, Note_on_c, 0, 63, 0
2, 8550, Note_on_c, 0, 61, 84
2, 8625, Note_on_c, 0, 76, 0
2, 8625, Note_on_c, 0, 81, 0
2, 8625, Note_on_c, 0, 69, 0
2, 8625, Note_on_c, 0, 73, 0
2, 8640, Note_on_c, 0, 61, 0
2, 8640, Control_c, 0, 64, 127
2, 8640, Note_on_c, 0, 61, 90
2, 8760, Note_on_c, 0, 68, 64
2, 8760, Note_on_c, 0, 73, 64
2, 8760, Note_on_c, 0, 76, 64
2, 8760, Note_on_c, 0, 80, 64
2, 8864, Note_on_c, 0, 80, 0
2, 8864, Note_on_c, 0, 73, 0
2, 8864, Note_on_c, 0, 76, 0
2, 8864, Note_on_c, 0, 68, 0
2, 8879, Note_on_c, 0, 68, 67
2, 8879, Note_on_c, 0, 73, 67
2, 8879, Note_on_c, 0, 76, 67
2, 8879, Note_on_c, 0, 80, 67
2, 8985, Note_on_c, 0, 80, 0
2, 8985, Note_on_c, 0, 73, 0
2, 8985, Note_on_c, 0, 76, 0
2, 8985, Note_on_c, 0, 68, 0
2, 9120, Note_on_c, 0, 68, 67
2, 9120, Note_on_c, 0, 73, 67
2, 9120, Note_on_c, 0, 76, 67
2, 9120, Note_on_c, 0, 80, 67
2, 9224, Note_on_c, 0, 80, 0
2, 9224, Note_on_c, 0, 73, 0
2, 9224, Note_on_c, 0, 76, 0
2, 9224, Note_on_c, 0, 68, 0
2, 9239, Note_on_c, 0, 68, 68
2, 9239, Note_on_c, 0, 73, 68
2, 9239, Note_on_c, 0, 76, 68
2, 9239, Note_on_c, 0, 80, 68
2, 9345, Note_on_c, 0, 80, 0
2, 9345, Note_on_c, 0, 73, 0
2, 9345, Note_on_c, 0, 76, 0
2, 9345, Note_on_c, 0, 68, 0
2, 9360, Note_on_c, 0, 67, 67
2, 9360, Note_on_c, 0, 71, 67
2, 9360, Note_on_c, 0, 76, 67
2, 9360, Note_on_c, 0, 79, 67
2, 9464, Note_on_c, 0, 79, 0
2, 9464, Note_on_c, 0, 71, 0
2, 9464, Note_on_c, 0, 76, 0
2, 9464, Note_on_c, 0, 67, 0
2, 9480, Note_on_c, 0, 67, 66
2, 9480, Note_on_c, 0, 71, 66
2, 9480, Note_on_c, 0, 76, 66
2, 9480, Note_on_c, 0, 79, 66
2, 9584, Note_on_c, 0, 79, 0
2, 9584, Note_on_c, 0, 71, 0
2, 9584, Note_on_c, 0, 76, 0
2, 9584, Note_on_c, 0, 67, 0
2, 9599, Note_on_c, 0, 67, 66
2, 9599, Note_on_c, 0, 71, 66
2, 9599, Note_on_c, 0, 76, 66
2, 9599, Note_on_c, 0, 79, 66
2, 9705, Note_on_c, 0, 79, 0
2, 9705, Note_on_c, 0, 71, 0
2, 9705, Note_on_c, 0, 76, 0
2, 9705, Note_on_c, 0, 67, 0
2, 9720, Note_on_c, 0, 61, 0
2, 9720, Control_c, 0, 64, 0
2, 9720, Note_on_c, 0, 59, 84
2, 9840, Note_on_c, 0, 67, 65
2, 9840, Note_on_c, 0, 71, 65
2, 9840, Note_on_c, 0, 76, 65
2, 9840, Note_on_c, 0, 79, 65
2, 9944, Note_on_c, 0, 79, 0
2, 9944, Note_on_c, 0, 71, 0
2, 9944, Note_on_c, 0, 76, 0
2, 9944, Note_on_c, 0, 67, 0
2, 9959, Note_on_c, 0, 67, 63
2, 9959, Note_on_c, 0, 71, 63
2, 9959, Note_on_c, 0, 76, 63
2, 9959, Note_on_c, 0, 79, 63
2, 10065, Note_on_c, 0, 79, 0
2, 10065, Note_on_c, 0, 71, 0
2, 10065, Note_on_c, 0, 76, 0
2, 10065, Note_on_c, 0, 67, 0
2, 10080, Note_on_c, 0, 59, 0
2, 10080, Note_on_c, 0, 59, 86
2, 10200, Note_on_c, 0, 66, 61
2, 10200, Note_on_c, 0, 73, 61
2, 10200, Note_on_c, 0, 76, 61
2, 10200, Note_on_c, 0, 78, 61
2, 10304, Note_on_c, 0, 78, 0
2, 10304, Note_on_c, 0, 73, 0
2, 10304, Note_on_c, 0, 76, 0
2, 10304, Note_on_c, 0, 66, 0
2, 10319, Note_on_c, 0, 66, 70
2, 10319, Note_on_c, 0, 73, 70
2, 10319, Note_on_c, 0, 76, 70
2, 10319, Note_on_c, 0, 78, 70
2, 10425, Note_on_c, 0, 78, 0
2, 10425, Note_on_c, 0, 73, 0
2, 10425, Note_on_c, 0, 76, 0
2, 10425, Note_on_c, 0, 66, 0
2, 10440, Note_on_c, 0, 59, 0
2, 10440, Note_on_c, 0, 58, 86
2, 10560, Note_on_c, 0, 66, 63
2, 10560, Note_on_c, 0, 73, 63
2, 10560, Note_on_c, 0, 76, 63
2, 10560, Note_on_c, 0, 78, 63
2, 10664, Note_on_c, 0, 78, 0
2, 10664, Note_on_c, 0, 73, 0
2, 10664, Note_on_c, 0, 76, 0
2, 10664, Note_on_c, 0, 66, 0
2, 10679, Note_on_c, 0, 66, 61
2, 10679, Note_on_c, 0, 73, 61
2, 10679, Note_on_c, 0, 76, 61
2, 10679, Note_on_c, 0, 78, 61
2, 10785, Note_on_c, 0, 78, 0
2, 10785, Note_on_c, 0, 73, 0
2, 10785, Note_on_c, 0, 76, 0
2, 10785, Note_on_c, 0, 66, 0
2, 10800, Note_on_c, 0, 58, 0
2, 10800, Note_on_c, 0, 57, 86
2, 10920, Note_on_c, 0, 64, 57
2, 10920, Note_on_c, 0, 72, 57
2, 10920, Note_on_c, 0, 76, 57
2, 11024, Note_on_c, 0, 76, 0
2, 11024, Note_on_c, 0, 72, 0
2, 11024, Note_on_c, 0, 64, 0
2, 11039, Note_on_c, 0, 64, 69
2, 11039, Note_on_c, 0, 72, 69
2, 11039, Note_on_c, 0, 76, 69
2, 11145, Note_on_c, 0, 76, 0
2, 11145, Note_on_c, 0, 72, 0
2, 11145, Note_on_c, 0, 64, 0
2, 11160, Note_on_c, 0, 57, 0
2, 11160, Note_on_c, 0, 56, 88
2, 11280, Note_on_c, 0, 64, 60
2, 11280, Note_on_c, 0, 71, 60
2, 11280, Note_on_c, 0, 76, 60
2, 11384, Note_on_c, 0, 76, 0
2, 11384, Note_on_c, 0, 71, 0
2, 11384, Note_on_c, 0, 64, 0
2, 11399, Note_on_c, 0, 56, 0
2, 11399, Note_on_c, 0, 64, 65
2, 11399, Note_on_c, 0, 69, 65
2, 11399, Note_on_c, 0, 76, 65
2, 11399, Note_on_c, 0, 54, 86
2, 11505, Note_on_c, 0, 76, 0
2, 11505, Note_on_c, 0, 64, 0
2, 11505, Note_on_c, 0, 69, 0
2, 11520, Note_on_c, 0, 54, 0
2, 11520, Note_on_c, 0, 54, 87
2, 11640, Note_on_c, 0, 64, 62
2, 11640, Note_on_c, 0, 69, 62
2, 11640, Note_on_c, 0, 76, 62
2, 11744, Note_on_c, 0, 76, 0
2, 11744, Note_on_c, 0, 69, 0
2, 11744, Note_on_c, 0, 64, 0
2, 11759, Note_on_c, 0, 64, 67
2, 11759, Note_on_c, 0, 69, 67
2, 11759, Note_on_c, 0, 76, 67
2, 11865, Note_on_c, 0, 76, 0
2, 11865, Note_on_c, 0, 69, 0
2, 11865, Note_on_c, 0, 64, 0
2, 11880, Note_on_c, 0, 54, 0
2, 11880, Note_on_c, 0, 56, 92
2, 12000, Note_on_c, 0, 64, 58
2, 12000, Note_on_c, 0, 71, 58
2, 12000, Note_on_c, 0, 76, 58
2, 12104, Note_on_c, 0, 76, 0
2, 12104, Note_on_c, 0, 71, 0
2, 12104, Note_on_c, 0, 64, 0
2, 12119, Note_on_c, 0, 64, 61
2, 12119, Note_on_c, 0, 71, 61
2, 12119, Note_on_c, 0, 76, 61
2, 12225, Note_on_c, 0, 76, 0
2, 12225, Note_on_c, 0, 71, 0
2, 12225, Note_on_c, 0, 64, 0
2, 12360, Note_on_c, 0, 64, 62
2, 12360, Note_on_c, 0, 71, 62
2, 12464, Note_on_c, 0, 71, 0
2, 12464, Note_on_c, 0, 64, 0
2, 12479, Note_on_c, 0, 64, 71
2, 12479, Note_on_c, 0, 71, 71
2, 12585, Note_on_c, 0, 71, 0
2, 12585, Note_on_c, 0, 64, 0
2, 12600, Note_on_c, 0, 56, 0
2, 12600, Note_on_c, 0, 64, 49
2, 12600, Note_on_c, 0, 52, 83
2, 12720, Note_on_c, 0, 56, 51
2, 12720, Note_on_c, 0, 59, 51
2, 12720, Note_on_c, 0, 40, 61
2, 12720, Note_on_c, 0, 47, 61
2, 12824, Note_on_c, 0, 47, 0
2, 12824, Note_on_c, 0, 40, 0
2, 12839, Note_on_c, 0, 56, 0
2, 12839, Note_on_c, 0, 59, 0
2, 12839, Note_on_c, 0, 56, 55
2, 12839, Note_on_c, 0, 59, 55
2, 12839, Note_on_c, 0, 40, 66
2, 12839, Note_on_c, 0, 47, 66
2, 12945, Note_on_c, 0, 47, 0
2, 12945, Note_on_c, 0, 40, 0
2, 12960, Note_on_c, 0, 56, 0
2, 12960, Note_on_c, 0, 64, 0
2, 12960, Note_on_c, 0, 52, 0
2, 12960, Note_on_c, 0, 59, 0
2, 12960, Note_on_c, 0, 66, 57
2, 12960, Control_c, 0, 64, 127
2, 12960, Note_on_c, 0, 54, 91
2, 13080, Note_on_c, 0, 57, 61
2, 13080, Note_on_c, 0, 59, 61
2, 13080, Note_on_c, 0, 63, 61
2, 13080, Note_on_c, 0, 40, 64
2, 13080, Note_on_c, 0, 47, 64
2, 13184, Note_on_c, 0, 47, 0
2, 13184, Note_on_c, 0, 63, 0
2, 13184, Note_on_c, 0, 59, 0
2, 13184, Note_on_c, 0, 57, 0
2, 13184, Note_on_c, 0, 40, 0
2, 13199, Note_on_c, 0, 57, 67
2, 13199, Note_on_c, 0, 59, 67
2, 13199, Note_on_c, 0, 63, 67
2, 13199, Control_c, 0, 64, 0
2, 13199, Note_on_c, 0, 40, 69
2, 13199, Note_on_c, 0, 47, 69
2, 13305, Note_on_c, 0, 47, 0
2, 13305, Note_on_c, 0, 63, 0
2, 13305, Note_on_c, 0, 59, 0
2, 13305, Note_on_c, 0, 57, 0
2, 13305, Note_on_c, 0, 40, 0
2, 13320, Control_c, 0, 64, 127
2, 13440, Note_on_c, 0, 57, 59
2, 13440, Note_on_c, 0, 59, 59
2, 13440, Note_on_c, 0, 63, 59
2, 13440, Note_on_c, 0, 40, 67
2, 13440, Note_on_c, 0, 47, 67
2, 13544, Note_on_c, 0, 47, 0
2, 13544, Note_on_c, 0, 63, 0
2, 13544, Note_on_c, 0, 59, 0
2, 13544, Note_on_c, 0, 57, 0
2, 13544, Note_on_c, 0, 40, 0
2, 13559, Note_on_c, 0, 57, 68
2, 13559, Note_on_c, 0, 59, 68
2, 13559, Note_on_c, 0, 63, 68
2, 13559, Control_c, 0, 64, 0
2, 13559, Note_on_c, 0, 40, 66
2, 13559, Note_on_c, 0, 47, 66
2, 13665, Note_on_c, 0, 47, 0
2, 13665, Note_on_c, 0, 63, 0
2, 13665, Note_on_c, 0, 59, 0
2, 13665, Note_on_c, 0, 57, 0
2, 13665, Note_on_c, 0, 40, 0
2, 13860, Note_on_c, 0, 54, 0
2, 13860, Note_on_c, 0, 66, 0
2, 13860, Note_on_c, 0, 66, 53
2, 13860, Note_on_c, 0, 54, 89
2, 14040, Note_on_c, 0, 54, 0
2, 14040, Note_on_c, 0, 66, 0
2, 14040, Note_on_c, 0, 68, 57
2, 14040, Note_on_c, 0, 56, 93
2, 14310, Note_on_c, 0, 56, 0
2, 14310, Note_on_c, 0, 68, 0
2, 14310, Note_on_c, 0, 69, 60
2, 14310, Note_on_c, 0, 57, 88
2, 14400, Note_on_c, 0, 57, 0
2, 14400, Note_on_c, 0, 69, 0
2, 14400, Note_on_c, 0, 68, 52
2, 14400, Control_c, 0, 64, 127
2, 14400, Note_on_c, 0, 56, 88
2, 14520, Note_on_c, 0, 59, 60
2, 14520, Note_on_c, 0, 64, 60
2, 14520, Note_on_c, 0, 40, 61
2, 14520, Note_on_c, 0, 47, 61
2, 14624, Note_on_c, 0, 47, 0
2, 14624, Note_on_c, 0, 64, 0
2, 14624, Note_on_c, 0, 59, 0
2, 14624, Note_on_c, 0, 40, 0
2, 14639, Note_on_c, 0, 59, 67
2, 14639, Note_on_c, 0, 64, 67
2, 14639, Control_c, 0, 64, 0
2, 14639, Note_on_c, 0, 40, 65
2, 14639, Note_on_c, 0, 47, 65
2, 14745, Note_on_c, 0, 47, 0
2, 14745, Note_on_c, 0, 64, 0
2, 14745, Note_on_c, 0, 59, 0
2, 14745, Note_on_c, 0, 40, 0
2, 14760, Control_c, 0, 64, 127
2, 14880, Note_on_c, 0, 59, 62
2, 14880, Note_on_c, 0, 64, 62
2, 14880, Note_on_c, 0, 40, 62
2, 14880, Note_on_c, 0, 47, 62
2, 14984, Note_on_c, 0, 47, 0
2, 14984, Note_on_c, 0, 64, 0
2, 14984, Note_on_c, 0, 59, 0
2, 14984, Note_on_c, 0, 40, 0
2, 14999, Note_on_c, 0, 59, 69
2, 14999, Note_on_c, 0, 64, 69
2, 14999, Control_c, 0, 64, 0
2, 14999, Note_on_c, 0, 40, 59
2, 14999, Note_on_c, 0, 47, 59
2, 15105, Note_on_c, 0, 47, 0
2, 15105, Note_on_c, 0, 64, 0
2, 15105, Note_on_c, 0, 59, 0
2, 15105, Note_on_c, 0, 40, 0
2, 15300, Note_on_c, 0, 56, 0
2, 15300, Note_on_c, 0, 68, 0
2, 15300, Note_on_c, 0, 68, 66
2, 15300, Note_on_c, 0, 56, 96
2, 15458, Note_on_c, 0, 56, 0
2, 15458, Note_on_c, 0, 68, 0
2, 15480, Note_on_c, 0, 69, 70
2, 15480, Note_on_c, 0, 57, 97
2, 15716, Note_on_c, 0, 57, 0
2, 15716, Note_on_c, 0, 69, 0
2, 15750, Note_on_c, 0, 71, 70
2, 15750, Note_on_c, 0, 59, 103
2, 15829, Note_on_c, 0, 59, 0
2, 15829, Note_on_c, 0, 71, 0
2, 15840, Note_on_c, 0, 73, 73
2, 15840, Control_c, 0, 64, 127
2, 15840, Note_on_c, 0, 61, 106
2, 15960, Note_on_c, 0, 65, 63
2, 15960, Note_on_c, 0, 71, 63
2, 15960, Note_on_c, 0, 49, 65
2, 15960, Note_on_c, 0, 56, 65
2, 16064, Note_on_c, 0, 56, 0
2, 16064, Note_on_c, 0, 71, 0
2, 16064, Note_on_c, 0, 65, 0
2, 16064, Note_on_c, 0, 49, 0
2, 16079, Note_on_c, 0, 65, 67
2, 16079, Note_on_c, 0, 71, 67
2, 16079, Control_c, 0, 64, 0
2, 16079, Note_on_c, 0, 49, 66
2, 16079, Note_on_c, 0, 56, 66
2, 16185, Note_on_c, 0, 56, 0
2, 16185, Note_on_c, 0, 71, 0
2, 16185, Note_on_c, 0, 65, 0
2, 16185, Note_on_c, 0, 49, 0
2, 16200, Control_c, 0, 64, 127
2, 16320, Note_on_c, 0, 65, 62
2, 16320, Note_on_c, 0, 71, 62
2, 16320, Note_on_c, 0, 49, 63
2, 16320, Note_on_c, 0, 56, 63
2, 16424, Note_on_c, 0, 56, 0
2, 16424, Note_on_c, 0, 71, 0
2, 16424, Note_on_c, 0, 65, 0
2, 16424, Note_on_c, 0, 49, 0
2, 16439, Note_on_c, 0, 65, 71
2, 16439, Note_on_c, 0, 71, 71
2, 16439, Control_c, 0, 64, 0
2, 16439, Note_on_c, 0, 49, 64
2, 16439, Note_on_c, 0, 56, 64
2, 16473, Note_on_c, 0, 73, 0
2, 16473, Note_on_c, 0, 61, 0
2, 16545, Note_on_c, 0, 49, 0
2, 16545, Note_on_c, 0, 71, 0
2, 16545, Note_on_c, 0, 56, 0
2, 16545, Note_on_c, 0, 65, 0
2, 16560, Note_on_c, 0, 73, 66
2, 16560, Note_on_c, 0, 61, 103
2, 16680, Note_on_c, 0, 66, 53
2, 16680, Note_on_c, 0, 69, 53
2, 16680, Note_on_c, 0, 42, 63
2, 16680, Note_on_c, 0, 49, 63
2, 16680, Note_on_c, 0, 57, 63
2, 16784, Note_on_c, 0, 57, 0
2, 16784, Note_on_c, 0, 42, 0
2, 16784, Note_on_c, 0, 49, 0
2, 16799, Note_on_c, 0, 66, 0
2, 16799, Note_on_c, 0, 69, 0
2, 16799, Note_on_c, 0, 66, 53
2, 16799, Note_on_c, 0, 69, 53
2, 16799, Note_on_c, 0, 42, 61
2, 16799, Note_on_c, 0, 49, 61
2, 16799, Note_on_c, 0, 57, 61
2, 16877, Note_on_c, 0, 61, 0
2, 16877, Note_on_c, 0, 73, 0
2, 16905, Note_on_c, 0, 49, 0
2, 16905, Note_on_c, 0, 42, 0
2, 16905, Note_on_c, 0, 57, 0
2, 16920, Note_on_c, 0, 69, 0
2, 16920, Note_on_c, 0, 66, 0
2, 16920, Note_on_c, 0, 75, 72
2, 16920, Note_on_c, 0, 63, 109
2, 17130, Note_on_c, 0, 63, 0
2, 17130, Note_on_c, 0, 75, 0
2, 17159, Note_on_c, 0, 76, 67
2, 17159, Note_on_c, 0, 64, 106
2, 17265, Note_on_c, 0, 64, 0
2, 17265, Note_on_c, 0, 76, 0
2, 17280, Note_on_c, 0, 78, 71
2, 17280, Control_c, 0, 64, 127
2, 17280, Note_on_c, 0, 66, 104
2, 17400, Note_on_c, 0, 69, 65
2, 17400, Note_on_c, 0, 76, 65
2, 17400, Note_on_c, 0, 60, 61
2, 17400, Note_on_c, 0, 64, 61
2, 17504, Note_on_c, 0, 64, 0
2, 17504, Note_on_c, 0, 76, 0
2, 17504, Note_on_c, 0, 69, 0
2, 17504, Note_on_c, 0, 60, 0
2, 17519, Note_on_c, 0, 69, 66
2, 17519, Note_on_c, 0, 76, 66
2, 17519, Control_c, 0, 64, 0
2, 17519, Note_on_c, 0, 60, 68
2, 17519, Note_on_c, 0, 64, 68
2, 17597, Note_on_c, 0, 78, 0
2, 17597, Note_on_c, 0, 66, 0
2, 17625, Note_on_c, 0, 60, 0
2, 17625, Note_on_c, 0, 76, 0
2, 17625, Note_on_c, 0, 64, 0
2, 17625, Note_on_c, 0, 69, 0
2, 17640, Note_on_c, 0, 80, 72
2, 17640, Control_c, 0, 64, 127
2, 17640, Note_on_c, 0, 68, 106
2, 17760, Note_on_c, 0, 66, 49
2, 17760, Note_on_c, 0, 75, 49
2, 17760, Note_on_c, 0, 60, 47
2, 17760, Note_on_c, 0, 63, 47
2, 17879, Note_on_c, 0, 63, 0
2, 17879, Note_on_c, 0, 75, 0
2, 17879, Note_on_c, 0, 66, 0
2, 17879, Note_on_c, 0, 60, 0
2, 17879, Note_on_c, 0, 66, 55
2, 17879, Note_on_c, 0, 75, 55
2, 17879, Control_c, 0, 64, 0
2, 17879, Note_on_c, 0, 60, 56
2, 17879, Note_on_c, 0, 63, 56
2, 18000, Note_on_c, 0, 63, 0
2, 18000, Note_on_c, 0, 75, 0
2, 18000, Note_on_c, 0, 66, 0
2, 18000, Note_on_c, 0, 60, 0
2, 18000, Note_on_c, 0, 68, 60
2, 18000, Note_on_c, 0, 71, 60
2, 18000, Note_on_c, 0, 40, 64
2, 18000, Note_on_c, 0, 47, 64
2, 18104, Note_on_c, 0, 47, 0
2, 18104, Note_on_c, 0, 71, 0
2, 18104, Note_on_c, 0, 68, 0
2, 18104, Note_on_c, 0, 40, 0
2, 18120, Note_on_c, 0, 68, 63
2, 18120, Note_on_c, 0, 71, 63
2, 18120, Note_on_c, 0, 52, 71
2, 18120, Note_on_c, 0, 59, 71
2, 18224, Note_on_c, 0, 59, 0
2, 18224, Note_on_c, 0, 71, 0
2, 18224, Note_on_c, 0, 68, 0
2, 18224, Note_on_c, 0, 52, 0
2, 18239, Note_on_c, 0, 68, 67
2, 18239, Note_on_c, 0, 71, 67
2, 18239, Note_on_c, 0, 52, 70
2, 18239, Note_on_c, 0, 59, 70
2, 18273, Note_on_c, 0, 80, 0
2, 18273, Note_on_c, 0, 68, 0
2, 18345, Note_on_c, 0, 52, 0
2, 18345, Note_on_c, 0, 71, 0
2, 18345, Note_on_c, 0, 59, 0
2, 18345, Note_on_c, 0, 68, 0
2, 18360, Note_on_c, 0, 78, 67
2, 18360, Note_on_c, 0, 66, 97
2, 18480, Note_on_c, 0, 68, 62
2, 18480, Note_on_c, 0, 71, 62
2, 18480, Note_on_c, 0, 56, 58
2, 18480, Note_on_c, 0, 59, 58
2, 18570, Note_on_c, 0, 66, 0
2, 18570, Note_on_c, 0, 78, 0
2, 18584, Note_on_c, 0, 56, 0
2, 18584, Note_on_c, 0, 71, 0
2, 18584, Note_on_c, 0, 59, 0
2, 18584, Note_on_c, 0, 68, 0
2, 18599, Note_on_c, 0, 76, 63
2, 18599, Note_on_c, 0, 68, 68
2, 18599, Note_on_c, 0, 71, 68
2, 18599, Note_on_c, 0, 64, 97
2, 18599, Note_on_c, 0, 56, 68
2, 18599, Note_on_c, 0, 59, 68
2, 18705, Note_on_c, 0, 59, 0
2, 18705, Note_on_c, 0, 68, 0
2, 18705, Note_on_c, 0, 71, 0
2, 18705, Note_on_c, 0, 76, 0
2, 18705, Note_on_c, 0, 56, 0
2, 18705, Note_on_c, 0, 64, 0
2, 18720, Note_on_c, 0, 64, 100
2, 18720, Note_on_c, 0, 76, 100
2, 18720, Note_on_c, 0, 39, 47
2, 18720, Note_on_c, 0, 51, 47
2, 18840, Note_on_c, 0, 68, 63
2, 18840, Note_on_c, 0, 72, 63
2, 18840, Note_on_c, 0, 56, 61
2, 18840, Note_on_c, 0, 60, 61
2, 18944, Note_on_c, 0, 60, 0
2, 18944, Note_on_c, 0, 56, 0
2, 18944, Note_on_c, 0, 68, 0
2, 18944, Note_on_c, 0, 72, 0
2, 18959, Note_on_c, 0, 68, 61
2, 18959, Note_on_c, 0, 72, 61
2, 18959, Note_on_c, 0, 56, 64
2, 18959, Note_on_c, 0, 60, 64
2, 19037, Note_on_c, 0, 64, 0
2, 19037, Note_on_c, 0, 76, 0
2, 19065, Note_on_c, 0, 72, 0
2, 19065, Note_on_c, 0, 60, 0
2, 19065, Note_on_c, 0, 68, 0
2, 19065, Note_on_c, 0, 56, 0
2, 19080, Note_on_c, 0, 63, 97
2, 19080, Note_on_c, 0, 75, 97
2, 19080, Control_c, 0, 64, 127
2, 19200, Note_on_c, 0, 68, 66
2, 19200, Note_on_c, 0, 72, 66
2, 19200, Note_on_c, 0, 56, 57
2, 19200, Note_on_c, 0, 60, 57
2, 19304, Note_on_c, 0, 60, 0
2, 19304, Note_on_c, 0, 56, 0
2, 19304, Note_on_c, 0, 68, 0
2, 19304, Note_on_c, 0, 72, 0
2, 19319, Note_on_c, 0, 68, 66
2, 19319, Note_on_c, 0, 72, 66
2, 19319, Control_c, 0, 64, 0
2, 19319, Note_on_c, 0, 56, 67
2, 19319, Note_on_c, 0, 60, 67
2, 19425, Note_on_c, 0, 60, 0
2, 19425, Note_on_c, 0, 56, 0
2, 19425, Note_on_c, 0, 68, 0
2, 19425, Note_on_c, 0, 72, 0
2, 19440, Control_c, 0, 64, 127
2, 19560, Note_on_c, 0, 68, 62
2, 19560, Note_on_c, 0, 56, 64
2, 19560, Note_on_c, 0, 65, 64
2, 19620, Note_on_c, 0, 75, 0
2, 19620, Note_on_c, 0, 63, 0
2, 19620, Note_on_c, 0, 63, 101
2, 19620, Note_on_c, 0, 75, 101
2, 19664, Note_on_c, 0, 56, 0
2, 19664, Note_on_c, 0, 68, 0
2, 19664, Note_on_c, 0, 65, 0
2, 19679, Note_on_c, 0, 68, 67
2, 19679, Control_c, 0, 64, 0
2, 19679, Note_on_c, 0, 56, 68
2, 19679, Note_on_c, 0, 65, 68
2, 19778, Note_on_c, 0, 75, 0
2, 19778, Note_on_c, 0, 63, 0
2, 19785, Note_on_c, 0, 56, 0
2, 19785, Note_on_c, 0, 68, 0
2, 19785, Note_on_c, 0, 65, 0
2, 19800, Note_on_c, 0, 61, 96
2, 19800, Note_on_c, 0, 73, 96
2, 19800, Control_c, 0, 64, 127
2, 19920, Note_on_c, 0, 68, 68
2, 19920, Note_on_c, 0, 56, 61
2, 19920, Note_on_c, 0, 65, 61
2, 20010, Note_on_c, 0, 73, 0
2, 20010, Note_on_c, 0, 61, 0
2, 20024, Note_on_c, 0, 56, 0
2, 20024, Note_on_c, 0, 68, 0
2, 20024, Note_on_c, 0, 65, 0
2, 20039, Note_on_c, 0, 60, 96
2, 20039, Note_on_c, 0, 72, 96
2, 20039, Note_on_c, 0, 68, 66
2, 20039, Control_c, 0, 64, 0
2, 20039, Note_on_c, 0, 56, 65
2, 20039, Note_on_c, 0, 65, 65
2, 20145, Note_on_c, 0, 65, 0
2, 20145, Note_on_c, 0, 68, 0
2, 20145, Note_on_c, 0, 72, 0
2, 20145, Note_on_c, 0, 60, 0
2, 20145, Note_on_c, 0, 56, 0
2, 20160, Note_on_c, 0, 39, 0
2, 20160, Note_on_c, 0, 51, 0
2, 20160, Note_on_c, 0, 60, 87
2, 20160, Note_on_c, 0, 72, 87
2, 20160, Note_on_c, 0, 39, 53
2, 20160, Note_on_c, 0, 51, 53
2, 20280, Note_on_c, 0, 65, 63
2, 20280, Note_on_c, 0, 68, 63
2, 20280, Note_on_c, 0, 56, 63
2, 20280, Note_on_c, 0, 62, 63
2, 20384, Note_on_c, 0, 62, 0
2, 20384, Note_on_c, 0, 56, 0
2, 20384, Note_on_c, 0, 65, 0
2, 20384, Note_on_c, 0, 68, 0
2, 20399, Note_on_c, 0, 65, 64
2, 20399, Note_on_c, 0, 68, 64
2, 20399, Note_on_c, 0, 56, 67
2, 20399, Note_on_c, 0, 62, 67
2, 20505, Note_on_c, 0, 62, 0
2, 20505, Note_on_c, 0, 56, 0
2, 20505, Note_on_c, 0, 65, 0
2, 20505, Note_on_c, 0, 68, 0
2, 20520, Control_c, 0, 64, 127
2, 20640, Note_on_c, 0, 65, 62
2, 20640, Note_on_c, 0, 68, 62
2, 20640, Note_on_c, 0, 56, 56
2, 20640, Note_on_c, 0, 62, 56
2, 20744, Note_on_c, 0, 62, 0
2, 20744, Note_on_c, 0, 56, 0
2, 20744, Note_on_c, 0, 65, 0
2, 20744, Note_on_c, 0, 68, 0
2, 20759, Note_on_c, 0, 65, 70
2, 20759, Note_on_c, 0, 68, 70
2, 20759, Control_c, 0, 64, 0
2, 20759, Note_on_c, 0, 56, 70
2, 20759, Note_on_c, 0, 62, 70
2, 20865, Note_on_c, 0, 62, 0
2, 20865, Note_on_c, 0, 56, 0
2, 20865, Note_on_c, 0, 65, 0
2, 20865, Note_on_c, 0, 68, 0
2, 20880, Control_c, 0, 64, 127
2, 21000, Note_on_c, 0, 65, 63
2, 21000, Note_on_c, 0, 68, 63
2, 21000, Note_on_c, 0, 56, 59
2, 21000, Note_on_c, 0, 62, 59
2, 21104, Note_on_c, 0, 62, 0
2, 21104, Note_on_c, 0, 56, 0
2, 21104, Note_on_c, 0, 65, 0
2, 21104, Note_on_c, 0, 68, 0
2, 21119, Note_on_c, 0, 65, 66
2, 21119, Note_on_c, 0, 68, 66
2, 21119, Control_c, 0, 64, 0
2, 21119, Note_on_c, 0, 56, 67
2, 21119, Note_on_c, 0, 62, 67
2, 21225, Note_on_c, 0, 62, 0
2, 21225, Note_on_c, 0, 56, 0
2, 21225, Note_on_c, 0, 65, 0
2, 21225, Note_on_c, 0, 68, 0
2, 21240, Note_on_c, 0, 72, 0
2, 21240, Note_on_c, 0, 60, 0
2, 21240, Note_on_c, 0, 58, 86
2, 21240, Note_on_c, 0, 70, 86
2, 21240, Control_c, 0, 64, 127
2, 21360, Note_on_c, 0, 65, 59
2, 21360, Note_on_c, 0, 56, 61
2, 21360, Note_on_c, 0, 62, 61
2, 21464, Note_on_c, 0, 62, 0
2, 21464, Note_on_c, 0, 65, 0
2, 21464, Note_on_c, 0, 56, 0
2, 21479, Note_on_c, 0, 58, 0
2, 21479, Note_on_c, 0, 70, 0
2, 21479, Note_on_c, 0, 56, 85
2, 21479, Note_on_c, 0, 68, 85
2, 21479, Note_on_c, 0, 65, 70
2, 21479, Control_c, 0, 64, 0
2, 21479, Note_on_c, 0, 56, 65
2, 21479, Note_on_c, 0, 62, 65
2, 21585, Note_on_c, 0, 62, 0
2, 21585, Note_on_c, 0, 56, 0
2, 21585, Note_on_c, 0, 65, 0
2, 21600, Note_on_c, 0, 68, 0
2, 21600, Note_on_c, 0, 51, 0
2, 21600, Note_on_c, 0, 39, 0
2, 21600, Note_on_c, 0, 56, 0
2, 21600, Note_on_c, 0, 56, 81
2, 21600, Note_on_c, 0, 68, 81
2, 21720, Note_on_c, 0, 61, 69
2, 21720, Note_on_c, 0, 63, 69
2, 21720, Note_on_c, 0, 51, 65
2, 21720, Note_on_c, 0, 58, 65
2, 21824, Note_on_c, 0, 58, 0
2, 21824, Note_on_c, 0, 63, 0
2, 21824, Note_on_c, 0, 61, 0
2, 21824, Note_on_c, 0, 51, 0
2, 21839, Note_on_c, 0, 61, 66
2, 21839, Note_on_c, 0, 63, 66
2, 21839, Note_on_c, 0, 51, 64
2, 21839, Note_on_c, 0, 58, 64
2, 21945, Note_on_c, 0, 58, 0
2, 21945, Note_on_c, 0, 63, 0
2, 21945, Note_on_c, 0, 61, 0
2, 21945, Note_on_c, 0, 51, 0
2, 21960, Note_on_c, 0, 68, 0
2, 21960, Note_on_c, 0, 56, 0
2, 21960, Note_on_c, 0, 55, 82
2, 21960, Note_on_c, 0, 67, 82
2, 22080, Note_on_c, 0, 61, 59
2, 22080, Note_on_c, 0, 63, 59
2, 22080, Note_on_c, 0, 51, 59
2, 22080, Note_on_c, 0, 58, 59
2, 22184, Note_on_c, 0, 58, 0
2, 22184, Note_on_c, 0, 63, 0
2, 22184, Note_on_c, 0, 61, 0
2, 22184, Note_on_c, 0, 51, 0
2, 22199, Note_on_c, 0, 61, 64
2, 22199, Note_on_c, 0, 63, 64
2, 22199, Note_on_c, 0, 51, 70
2, 22199, Note_on_c, 0, 58, 70
2, 22305, Note_on_c, 0, 58, 0
2, 22305, Note_on_c, 0, 63, 0
2, 22305, Note_on_c, 0, 61, 0
2, 22305, Note_on_c, 0, 51, 0
2, 22320, Note_on_c, 0, 67, 0
2, 22320, Note_on_c, 0, 55, 0
2, 22320, Note_on_c, 0, 56, 93
2, 22320, Note_on_c, 0, 68, 93
2, 22320, Note_on_c, 0, 53, 53
2, 22440, Note_on_c, 0, 61, 61
2, 22440, Note_on_c, 0, 63, 61
2, 22544, Note_on_c, 0, 63, 0
2, 22544, Note_on_c, 0, 61, 0
2, 22559, Note_on_c, 0, 61, 68
2, 22559, Note_on_c, 0, 63, 68
2, 22665, Note_on_c, 0, 63, 0
2, 22665, Note_on_c, 0, 61, 0
2, 22680, Note_on_c, 0, 53, 0
2, 22680, Note_on_c, 0, 68, 0
2, 22680, Note_on_c, 0, 56, 0
2, 22680, Note_on_c, 0, 58, 90
2, 22680, Note_on_c, 0, 70, 90
2, 22680, Note_on_c, 0, 55, 56
2, 22800, Note_on_c, 0, 61, 61
2, 22800, Note_on_c, 0, 63, 61
2, 22904, Note_on_c, 0, 63, 0
2, 22904, Note_on_c, 0, 61, 0
2, 22919, Note_on_c, 0, 61, 60
2, 22919, Note_on_c, 0, 63, 60
2, 23025, Note_on_c, 0, 63, 0
2, 23025, Note_on_c, 0, 61, 0
2, 23040, Note_on_c, 0, 55, 0
2, 23040, Note_on_c, 0, 70, 0
2, 23040, Note_on_c, 0, 58, 0
2, 23040, Note_on_c, 0, 59, 94
2, 23040, Note_on_c, 0, 71, 94
2, 23040, Note_on_c, 0, 50, 55
2, 23040, Note_on_c, 0, 44, 52
2, 23160, Note_on_c, 0, 65, 59
2, 23160, Note_on_c, 0, 68, 59
2, 23264, Note_on_c, 0, 68, 0
2, 23264, Note_on_c, 0, 65, 0
2, 23279, Note_on_c, 0, 65, 69
2, 23279, Note_on_c, 0, 68, 69
2, 23385, Note_on_c, 0, 68, 0
2, 23385, Note_on_c, 0, 65, 0
2, 23400, Note_on_c, 0, 50, 0
2, 23400, Note_on_c, 0, 59, 0
2, 23400, Note_on_c, 0, 71, 0
2, 23400, Note_on_c, 0, 60, 95
2, 23400, Note_on_c, 0, 72, 95
2, 23400, Note_on_c, 0, 51, 55
2, 23520, Note_on_c, 0, 63, 62
2, 23520, Note_on_c, 0, 68, 62
2, 23624, Note_on_c, 0, 68, 0
2, 23624, Note_on_c, 0, 63, 0
2, 23639, Note_on_c, 0, 63, 65
2, 23639, Note_on_c, 0, 68, 65
2, 23745, Note_on_c, 0, 68, 0
2, 23745, Note_on_c, 0, 63, 0
2, 23880, Note_on_c, 0, 63, 64
2, 23880, Note_on_c, 0, 68, 64
2, 23984, Note_on_c, 0, 68, 0
2, 23984, Note_on_c, 0, 63, 0
2, 23999, Note_on_c, 0, 63, 65
2, 23999, Note_on_c, 0, 68, 65
2, 24105, Note_on_c, 0, 68, 0
2, 24105, Note_on_c, 0, 63, 0
2, 24120, Note_on_c, 0, 51, 0
2, 24120, Note_on_c, 0, 56, 107
2, 24240, Note_on_c, 0, 60, 64
2, 24240, Note_on_c, 0, 63, 64
2, 24344, Note_on_c, 0, 63, 0
2, 24344, Note_on_c, 0, 60, 0
2, 24359, Note_on_c, 0, 60, 67
2, 24359, Note_on_c, 0, 63, 67
2, 24465, Note_on_c, 0, 63, 0
2, 24465, Note_on_c, 0, 60, 0
2, 24480, Note_on_c, 0, 56, 0
2, 24480, Note_on_c, 0, 44, 0
2, 24480, Note_on_c, 0, 72, 0
2, 24480, Note_on_c, 0, 60, 0
2, 24480, Note_on_c, 0, 58, 104
2, 24719, Note_on_c, 0, 55, 52
2, 24719, Note_on_c, 0, 61, 52
2, 24719, Note_on_c, 0, 63, 52
2, 24778, Note_on_c, 0, 63, 0
2, 24778, Note_on_c, 0, 61, 0
2, 24778, Note_on_c, 0, 55, 0
2, 24840, Note_on_c, 0, 55, 54
2, 24840, Note_on_c, 0, 61, 54
2, 24840, Note_on_c, 0, 63, 54
2, 24840, Note_on_c, 0, 39, 57
2, 24840, Note_on_c, 0, 46, 57
2, 24899, Note_on_c, 0, 63, 0
2, 24899, Note_on_c, 0, 61, 0
2, 24899, Note_on_c, 0, 55, 0
2, 24960, Note_on_c, 0, 55, 56
2, 24960, Note_on_c, 0, 61, 56
2, 24960, Note_on_c, 0, 64, 56
2, 25019, Note_on_c, 0, 64, 0
2, 25019, Note_on_c, 0, 55, 0
2, 25019, Note_on_c, 0, 61, 0
2, 25079, Note_on_c, 0, 55, 61
2, 25079, Note_on_c, 0, 61, 61
2, 25079, Note_on_c, 0, 65, 61
2, 25138, Note_on_c, 0, 65, 0
2, 25138, Note_on_c, 0, 55, 0
2, 25138, Note_on_c, 0, 61, 0
2, 25200, Note_on_c, 0, 55, 60
2, 25200, Note_on_c, 0, 61, 60
2, 25200, Note_on_c, 0, 66, 60
2, 25259, Note_on_c, 0, 66, 0
2, 25259, Note_on_c, 0, 55, 0
2, 25259, Note_on_c, 0, 61, 0
2, 25320, Note_on_c, 0, 55, 56
2, 25320, Note_on_c, 0, 61, 56
2, 25320, Note_on_c, 0, 67, 56
2, 25379, Note_on_c, 0, 67, 0
2, 25379, Note_on_c, 0, 55, 0
2, 25379, Note_on_c, 0, 61, 0
2, 25380, Note_on_c, 0, 58, 0
2, 25380, Note_on_c, 0, 58, 102
2, 25439, Note_on_c, 0, 55, 57
2, 25439, Note_on_c, 0, 61, 57
2, 25439, Note_on_c, 0, 68, 57
2, 25498, Note_on_c, 0, 68, 0
2, 25498, Note_on_c, 0, 55, 0
2, 25498, Note_on_c, 0, 61, 0
2, 25560, Note_on_c, 0, 58, 0
2, 25560, Note_on_c, 0, 63, 57
2, 25560, Note_on_c, 0, 67, 57
2, 25560, Note_on_c, 0, 69, 57
2, 25560, Note_on_c, 0, 60, 110
2, 25619, Note_on_c, 0, 69, 0
2, 25619, Note_on_c, 0, 67, 0
2, 25619, Note_on_c, 0, 63, 0
2, 25680, Note_on_c, 0, 63, 61
2, 25680, Note_on_c, 0, 67, 61
2, 25680, Note_on_c, 0, 70, 61
2, 25739, Note_on_c, 0, 70, 0
2, 25739, Note_on_c, 0, 63, 0
2, 25739, Note_on_c, 0, 67, 0
2, 25799, Note_on_c, 0, 60, 0
2, 25799, Note_on_c, 0, 63, 58
2, 25799, Note_on_c, 0, 67, 58
2, 25799, Note_on_c, 0, 71, 58
2, 25799, Note_on_c, 0, 61, 106
2, 25858, Note_on_c, 0, 71, 0
2, 25858, Note_on_c, 0, 67, 0
2, 25858, Note_on_c, 0, 63, 0
2, 25920, Note_on_c, 0, 39, 0
2, 25920, Note_on_c, 0, 61, 0
2, 25920, Note_on_c, 0, 46, 0
2, 25920, Note_on_c, 0, 63, 58
2, 25920, Note_on_c, 0, 68, 58
2, 25920, Note_on_c, 0, 72, 58
2, 25920, Note_on_c, 0, 60, 96
2, 25979, Note_on_c, 0, 72, 0
2, 25979, Note_on_c, 0, 63, 0
2, 25979, Note_on_c, 0, 68, 0
2, 26040, Note_on_c, 0, 63, 58
2, 26040, Note_on_c, 0, 68, 58
2, 26040, Note_on_c, 0, 73, 58
2, 26099, Note_on_c, 0, 73, 0
2, 26099, Note_on_c, 0, 68, 0
2, 26099, Note_on_c, 0, 63, 0
2, 26159, Note_on_c, 0, 63, 63
2, 26159, Note_on_c, 0, 68, 63
2, 26159, Note_on_c, 0, 74, 63
2, 26218, Note_on_c, 0, 74, 0
2, 26218, Note_on_c, 0, 68, 0
2, 26218, Note_on_c, 0, 63, 0
2, 26280, Note_on_c, 0, 60, 0
2, 26280, Note_on_c, 0, 68, 60
2, 26280, Note_on_c, 0, 72, 60
2, 26280, Note_on_c, 0, 75, 60
2, 26280, Note_on_c, 0, 63, 109
2, 26339, Note_on_c, 0, 75, 0
2, 26339, Note_on_c, 0, 68, 0
2, 26339, Note_on_c, 0, 72, 0
2, 26400, Note_on_c, 0, 68, 60
2, 26400, Note_on_c, 0, 72, 60
2, 26400, Note_on_c, 0, 76, 60
2, 26459, Note_on_c, 0, 76, 0
2, 26459, Note_on_c, 0, 72, 0
2, 26459, Note_on_c, 0, 68, 0
2, 26519, Note_on_c, 0, 68, 55
2, 26519, Note_on_c, 0, 72, 55
2, 26519, Note_on_c, 0, 77, 55
2, 26578, Note_on_c, 0, 77, 0
2, 26578, Note_on_c, 0, 72, 0
2, 26578, Note_on_c, 0, 68, 0
2, 26640, Note_on_c, 0, 68, 53
2, 26640, Note_on_c, 0, 72, 53
2, 26640, Note_on_c, 0, 77, 53
2, 26640, Note_on_c, 0, 39, 59
2, 26640, Note_on_c, 0, 51, 59
2, 26699, Note_on_c, 0, 77, 0
2, 26699, Note_on_c, 0, 72, 0
2, 26699, Note_on_c, 0, 68, 0
2, 26760, Note_on_c, 0, 68, 55
2, 26760, Note_on_c, 0, 72, 55
2, 26760, Note_on_c, 0, 76, 55
2, 26819, Note_on_c, 0, 76, 0
2, 26819, Note_on_c, 0, 68, 0
2, 26819, Note_on_c, 0, 72, 0
2, 26879, Note_on_c, 0, 68, 53
2, 26879, Note_on_c, 0, 72, 53
2, 26879, Note_on_c, 0, 75, 53
2, 26938, Note_on_c, 0, 75, 0
2, 26938, Note_on_c, 0, 68, 0
2, 26938, Note_on_c, 0, 72, 0
2, 27000, Note_on_c, 0, 63, 0
2, 27000, Note_on_c, 0, 68, 53
2, 27000, Note_on_c, 0, 72, 53
2, 27000, Note_on_c, 0, 75, 53
2, 27000, Note_on_c, 0, 56, 98
2, 27059, Note_on_c, 0, 75, 0
2, 27059, Note_on_c, 0, 72, 0
2, 27059, Note_on_c, 0, 68, 0
2, 27120, Note_on_c, 0, 68, 55
2, 27120, Note_on_c, 0, 72, 55
2, 27120, Note_on_c, 0, 74, 55
2, 27179, Note_on_c, 0, 74, 0
2, 27179, Note_on_c, 0, 68, 0
2, 27179, Note_on_c, 0, 72, 0
2, 27239, Note_on_c, 0, 68, 56
2, 27239, Note_on_c, 0, 72, 56
2, 27239, Note_on_c, 0, 75, 56
2, 27298, Note_on_c, 0, 75, 0
2, 27298, Note_on_c, 0, 68, 0
2, 27298, Note_on_c, 0, 72, 0
2, 27360, Note_on_c, 0, 56, 0
2, 27360, Note_on_c, 0, 39, 0
2, 27360, Note_on_c, 0, 51, 0
2, 27360, Note_on_c, 0, 58, 104
2, 27360, Note_on_c, 0, 44, 61
2, 27599, Note_on_c, 0, 55, 49
2, 27599, Note_on_c, 0, 61, 49
2, 27599, Note_on_c, 0, 63, 49
2, 27658, Note_on_c, 0, 63, 0
2, 27658, Note_on_c, 0, 55, 0
2, 27658, Note_on_c, 0, 61, 0
2, 27720, Note_on_c, 0, 44, 0
2, 27720, Note_on_c, 0, 55, 51
2, 27720, Note_on_c, 0, 61, 51
2, 27720, Note_on_c, 0, 63, 51
2, 27720, Note_on_c, 0, 39, 66
2, 27720, Note_on_c, 0, 46, 66
2, 27779, Note_on_c, 0, 63, 0
2, 27779, Note_on_c, 0, 61, 0
2, 27779, Note_on_c, 0, 55, 0
2, 27840, Note_on_c, 0, 55, 58
2, 27840, Note_on_c, 0, 61, 58
2, 27840, Note_on_c, 0, 64, 58
2, 27899, Note_on_c, 0, 64, 0
2, 27899, Note_on_c, 0, 55, 0
2, 27899, Note_on_c, 0, 61, 0
2, 27959, Note_on_c, 0, 55, 61
2, 27959, Note_on_c, 0, 61, 61
2, 27959, Note_on_c, 0, 65, 61
2, 28018, Note_on_c, 0, 65, 0
2, 28018, Note_on_c, 0, 55, 0
2, 28018, Note_on_c, 0, 61, 0
2, 28080, Note_on_c, 0, 55, 53
2, 28080, Note_on_c, 0, 61, 53
2, 28080, Note_on_c, 0, 66, 53
2, 28139, Note_on_c, 0, 66, 0
2, 28139, Note_on_c, 0, 55, 0
2, 28139, Note_on_c, 0, 61, 0
2, 28200, Note_on_c, 0, 55, 57
2, 28200, Note_on_c, 0, 61, 57
2, 28200, Note_on_c, 0, 67, 57
2, 28259, Note_on_c, 0, 67, 0
2, 28259, Note_on_c, 0, 55, 0
2, 28259, Note_on_c, 0, 61, 0
2, 28260, Note_on_c, 0, 58, 0
2, 28260, Note_on_c, 0, 58, 106
2, 28319, Note_on_c, 0, 55, 59
2, 28319, Note_on_c, 0, 61, 59
2, 28319, Note_on_c, 0, 68, 59
2, 28378, Note_on_c, 0, 68, 0
2, 28378, Note_on_c, 0, 55, 0
2, 28378, Note_on_c, 0, 61, 0
2, 28440, Note_on_c, 0, 58, 0
2, 28440, Note_on_c, 0, 63, 64
2, 28440, Note_on_c, 0, 67, 64
2, 28440, Note_on_c, 0, 69, 64
2, 28440, Note_on_c, 0, 60, 108
2, 28499, Note_on_c, 0, 69, 0
2, 28499, Note_on_c, 0, 67, 0
2, 28499, Note_on_c, 0, 63, 0
2, 28560, Note_on_c, 0, 63, 56
2, 28560, Note_on_c, 0, 67, 56
2, 28560, Note_on_c, 0, 70, 56
2, 28619, Note_on_c, 0, 70, 0
2, 28619, Note_on_c, 0, 63, 0
2, 28619, Note_on_c, 0, 67, 0
2, 28679, Note_on_c, 0, 60, 0
2, 28679, Note_on_c, 0, 63, 60
2, 28679, Note_on_c, 0, 67, 60
2, 28679, Note_on_c, 0, 71, 60
2, 28679, Note_on_c, 0, 61, 108
2, 28738, Note_on_c, 0, 71, 0
2, 28738, Note_on_c, 0, 67, 0
2, 28738, Note_on_c, 0, 63, 0
2, 28800, Note_on_c, 0, 39, 0
2, 28800, Note_on_c, 0, 61, 0
2, 28800, Note_on_c, 0, 46, 0
2, 28800, Note_on_c, 0, 63, 58
2, 28800, Note_on_c, 0, 68, 58
2, 28800, Note_on_c, 0, 72, 58
2, 28800, Note_on_c, 0, 60, 99
2, 28859, Note_on_c, 0, 72, 0
2, 28859, Note_on_c, 0, 63, 0
2, 28859, Note_on_c, 0, 68, 0
2, 28920, Note_on_c, 0, 63, 60
2, 28920, Note_on_c, 0, 68, 60
2, 28920, Note_on_c, 0, 73, 60
2, 28979, Note_on_c, 0, 73, 0
2, 28979, Note_on_c, 0, 68, 0
2, 28979, Note_on_c, 0, 63, 0
2, 29039, Note_on_c, 0, 63, 56
2, 29039, Note_on_c, 0, 68, 56
2, 29039, Note_on_c, 0, 74, 56
2, 29098, Note_on_c, 0, 74, 0
2, 29098, Note_on_c, 0, 68, 0
2, 29098, Note_on_c, 0, 63, 0
2, 29160, Note_on_c, 0, 68, 61
2, 29160, Note_on_c, 0, 72, 61
2, 29160, Note_on_c, 0, 75, 61
2, 29160, Note_on_c, 0, 39, 58
2, 29160, Note_on_c, 0, 51, 58
2, 29219, Note_on_c, 0, 75, 0
2, 29219, Note_on_c, 0, 72, 0
2, 29219, Note_on_c, 0, 68, 0
2, 29280, Note_on_c, 0, 68, 59
2, 29280, Note_on_c, 0, 72, 59
2, 29280, Note_on_c, 0, 76, 59
2, 29339, Note_on_c, 0, 76, 0
2, 29339, Note_on_c, 0, 68, 0
2, 29339, Note_on_c, 0, 72, 0
2, 29399, Note_on_c, 0, 68, 60
2, 29399, Note_on_c, 0, 72, 60
2, 29399, Note_on_c, 0, 77, 60
2, 29458, Note_on_c, 0, 77, 0
2, 29458, Note_on_c, 0, 68, 0
2, 29458, Note_on_c, 0, 72, 0
2, 29520, Note_on_c, 0, 68, 56
2, 29520, Note_on_c, 0, 72, 56
2, 29520, Note_on_c, 0, 77, 56
2, 29579, Note_on_c, 0, 77, 0
2, 29579, Note_on_c, 0, 68, 0
2, 29579, Note_on_c, 0, 72, 0
2, 29640, Note_on_c, 0, 68, 51
2, 29640, Note_on_c, 0, 72, 51
2, 29640, Note_on_c, 0, 76, 51
2, 29699, Note_on_c, 0, 76, 0
2, 29699, Note_on_c, 0, 68, 0
2, 29699, Note_on_c, 0, 72, 0
2, 29759, Note_on_c, 0, 68, 50
2, 29759, Note_on_c, 0, 72, 50
2, 29759, Note_on_c, 0, 75, 50
2, 29818, Note_on_c, 0, 75, 0
2, 29818, Note_on_c, 0, 68, 0
2, 29818, Note_on_c, 0, 72, 0
2, 29880, Note_on_c, 0, 60, 0
2, 29880, Note_on_c, 0, 68, 51
2, 29880, Note_on_c, 0, 72, 51
2, 29880, Note_on_c, 0, 75, 51
2, 29880, Note_on_c, 0, 60, 106
2, 29939, Note_on_c, 0, 75, 0
2, 29939, Note_on_c, 0, 72, 0
2, 29939, Note_on_c, 0, 68, 0
2, 30000, Note_on_c, 0, 68, 48
2, 30000, Note_on_c, 0, 72, 48
2, 30000, Note_on_c, 0, 74, 48
2, 30059, Note_on_c, 0, 74, 0
2, 30059, Note_on_c, 0, 68, 0
2, 30059, Note_on_c, 0, 72, 0
2, 30119, Note_on_c, 0, 68, 62
2, 30119, Note_on_c, 0, 72, 62
2, 30119, Note_on_c, 0, 75, 62
2, 30178, Note_on_c, 0, 75, 0
2, 30178, Note_on_c, 0, 68, 0
2, 30178, Note_on_c, 0, 72, 0
2, 30240, Note_on_c, 0, 60, 0
2, 30240, Note_on_c, 0, 39, 0
2, 30240, Note_on_c, 0, 51, 0
2, 30240, Note_on_c, 0, 61, 105
2, 30479, Note_on_c, 0, 58, 48
2, 30479, Note_on_c, 0, 64, 48
2, 30479, Note_on_c, 0, 66, 48
2, 30538, Note_on_c, 0, 66, 0
2, 30538, Note_on_c, 0, 64, 0
2, 30538, Note_on_c, 0, 58, 0
2, 30600, Note_on_c, 0, 58, 54
2, 30600, Note_on_c, 0, 64, 54
2, 30600, Note_on_c, 0, 66, 54
2, 30600, Note_on_c, 0, 42, 62
2, 30600, Note_on_c, 0, 49, 62
2, 30659, Note_on_c, 0, 66, 0
2, 30659, Note_on_c, 0, 64, 0
2, 30659, Note_on_c, 0, 58, 0
2, 30720, Note_on_c, 0, 58, 56
2, 30720, Note_on_c, 0, 64, 56
2, 30720, Note_on_c, 0, 67, 56
2, 30779, Note_on_c, 0, 67, 0
2, 30779, Note_on_c, 0, 58, 0
2, 30779, Note_on_c, 0, 64, 0
2, 30839, Note_on_c, 0, 58, 57
2, 30839, Note_on_c, 0, 64, 57
2, 30839, Note_on_c, 0, 68, 57
2, 30898, Note_on_c, 0, 68, 0
2, 30898, Note_on_c, 0, 58, 0
2, 30898, Note_on_c, 0, 64, 0
2, 30960, Note_on_c, 0, 58, 56
2, 30960, Note_on_c, 0, 64, 56
2, 30960, Note_on_c, 0, 69, 56
2, 31019, Note_on_c, 0, 69, 0
2, 31019, Note_on_c, 0, 58, 0
2, 31019, Note_on_c, 0, 64, 0
2, 31080, Note_on_c, 0, 58, 60
2, 31080, Note_on_c, 0, 64, 60
2, 31080, Note_on_c, 0, 70, 60
2, 31139, Note_on_c, 0, 70, 0
2, 31139, Note_on_c, 0, 58, 0
2, 31139, Note_on_c, 0, 64, 0
2, 31140, Note_on_c, 0, 61, 0
2, 31140, Note_on_c, 0, 61, 101
2, 31199, Note_on_c, 0, 58, 61
2, 31199, Note_on_c, 0, 64, 61
2, 31199, Note_on_c, 0, 71, 61
2, 31258, Note_on_c, 0, 71, 0
2, 31258, Note_on_c, 0, 58, 0
2, 31258, Note_on_c, 0, 64, 0
2, 31320, Note_on_c, 0, 61, 0
2, 31320, Note_on_c, 0, 66, 57
2, 31320, Note_on_c, 0, 70, 57
2, 31320, Note_on_c, 0, 72, 57
2, 31320, Note_on_c, 0, 63, 109
2, 31379, Note_on_c, 0, 72, 0
2, 31379, Note_on_c, 0, 70, 0
2, 31379, Note_on_c, 0, 66, 0
2, 31440, Note_on_c, 0, 66, 57
2, 31440, Note_on_c, 0, 70, 57
2, 31440, Note_on_c, 0, 73, 57
2, 31499, Note_on_c, 0, 73, 0
2, 31499, Note_on_c, 0, 66, 0
2, 31499, Note_on_c, 0, 70, 0
2, 31559, Note_on_c, 0, 63, 0
2, 31559, Note_on_c, 0, 66, 59
2, 31559, Note_on_c, 0, 70, 59
2, 31559, Note_on_c, 0, 74, 59
2, 31559, Note_on_c, 0, 64, 108
2, 31618, Note_on_c, 0, 74, 0
2, 31618, Note_on_c, 0, 70, 0
2, 31618, Note_on_c, 0, 66, 0
2, 31680, Note_on_c, 0, 42, 0
2, 31680, Note_on_c, 0, 64, 0
2, 31680, Note_on_c, 0, 49, 0
2, 31680, Note_on_c, 0, 66, 59
2, 31680, Note_on_c, 0, 71, 59
2, 31680, Note_on_c, 0, 75, 59
2, 31680, Note_on_c, 0, 63, 96
2, 31739, Note_on_c, 0, 75, 0
2, 31739, Note_on_c, 0, 66, 0
2, 31739, Note_on_c, 0, 71, 0
2, 31800, Note_on_c, 0, 66, 53
2, 31800, Note_on_c, 0, 71, 53
2, 31800, Note_on_c, 0, 76, 53
2, 31859, Note_on_c, 0, 76, 0
2, 31859, Note_on_c, 0, 71, 0
2, 31859, Note_on_c, 0, 66, 0
2, 31919, Note_on_c, 0, 66, 59
2, 31919, Note_on_c, 0, 71, 59
2, 31919, Note_on_c, 0, 77, 59
2, 31978, Note_on_c, 0, 77, 0
2, 31978, Note_on_c, 0, 71, 0
2, 31978, Note_on_c, 0, 66, 0
2, 32040, Note_on_c, 0, 63, 0
2, 32040, Note_on_c, 0, 71, 59
2, 32040, Note_on_c, 0, 75, 59
2, 32040, Note_on_c, 0, 78, 59
2, 32040, Note_on_c, 0, 66, 116
2, 32099, Note_on_c, 0, 78, 0
2, 32099, Note_on_c, 0, 71, 0
2, 32099, Note_on_c, 0, 75, 0
2, 32160, Note_on_c, 0, 71, 57
2, 32160, Note_on_c, 0, 75, 57
2, 32160, Note_on_c, 0, 79, 57
2, 32219, Note_on_c, 0, 79, 0
2, 32219, Note_on_c, 0, 75, 0
2, 32219, Note_on_c, 0, 71, 0
2, 32279, Note_on_c, 0, 71, 54
2, 32279, Note_on_c, 0, 75, 54
2, 32279, Note_on_c, 0, 80, 54
2, 32338, Note_on_c, 0, 80, 0
2, 32338, Note_on_c, 0, 75, 0
2, 32338, Note_on_c, 0, 71, 0
2, 32400, Note_on_c, 0, 71, 56
2, 32400, Note_on_c, 0, 75, 56
2, 32400, Note_on_c, 0, 80, 56
2, 32400, Note_on_c, 0, 42, 62
2, 32400, Note_on_c, 0, 51, 62
2, 32459, Note_on_c, 0, 80, 0
2, 32459, Note_on_c, 0, 75, 0
2, 32459, Note_on_c, 0, 71, 0
2, 32520, Note_on_c, 0, 71, 48
2, 32520, Note_on_c, 0, 75, 48
2, 32520, Note_on_c, 0, 79, 48
2, 32579, Note_on_c, 0, 79, 0
2, 32579, Note_on_c, 0, 71, 0
2, 32579, Note_on_c, 0, 75, 0
2, 32639, Note_on_c, 0, 71, 53
2, 32639, Note_on_c, 0, 75, 53
2, 32639, Note_on_c, 0, 78, 53
2, 32698, Note_on_c, 0, 78, 0
2, 32698, Note_on_c, 0, 71, 0
2, 32698, Note_on_c, 0, 75, 0
2, 32760, Note_on_c, 0, 66, 0
2, 32760, Note_on_c, 0, 71, 58
2, 32760, Note_on_c, 0, 75, 58
2, 32760, Note_on_c, 0, 78, 58
2, 32760, Note_on_c, 0, 59, 101
2, 32819, Note_on_c, 0, 78, 0
2, 32819, Note_on_c, 0, 75, 0
2, 32819, Note_on_c, 0, 71, 0
2, 32880, Note_on_c, 0, 71, 51
2, 32880, Note_on_c, 0, 75, 51
2, 32880, Note_on_c, 0, 77, 51
2, 32939, Note_on_c, 0, 77, 0
2, 32939, Note_on_c, 0, 71, 0
2, 32939, Note_on_c, 0, 75, 0
2, 32999, Note_on_c, 0, 71, 59
2, 32999, Note_on_c, 0, 75, 59
2, 32999, Note_on_c, 0, 78, 59
2, 33058, Note_on_c, 0, 78, 0
2, 33058, Note_on_c, 0, 71, 0
2, 33058, Note_on_c, 0, 75, 0
2, 33120, Note_on_c, 0, 59, 0
2, 33120, Note_on_c, 0, 42, 0
2, 33120, Note_on_c, 0, 51, 0
2, 33120, Note_on_c, 0, 61, 107
2, 33359, Note_on_c, 0, 58, 53
2, 33359, Note_on_c, 0, 64, 53
2, 33359, Note_on_c, 0, 66, 53
2, 33418, Note_on_c, 0, 66, 0
2, 33418, Note_on_c, 0, 64, 0
2, 33418, Note_on_c, 0, 58, 0
2, 33480, Note_on_c, 0, 58, 54
2, 33480, Note_on_c, 0, 64, 54
2, 33480, Note_on_c, 0, 66, 54
2, 33480, Note_on_c, 0, 42, 57
2, 33480, Note_on_c, 0, 49, 57
2, 33539, Note_on_c, 0, 66, 0
2, 33539, Note_on_c, 0, 64, 0
2, 33539, Note_on_c, 0, 58, 0
2, 33600, Note_on_c, 0, 58, 61
2, 33600, Note_on_c, 0, 64, 61
2, 33600, Note_on_c, 0, 67, 61
2, 33659, Note_on_c, 0, 67, 0
2, 33659, Note_on_c, 0, 58, 0
2, 33659, Note_on_c, 0, 64, 0
2, 33719, Note_on_c, 0, 58, 58
2, 33719, Note_on_c, 0, 64, 58
2, 33719, Note_on_c, 0, 68, 58
2, 33778, Note_on_c, 0, 68, 0
2, 33778, Note_on_c, 0, 58, 0
2, 33778, Note_on_c, 0, 64, 0
2, 33840, Note_on_c, 0, 58, 56
2, 33840, Note_on_c, 0, 64, 56
2, 33840, Note_on_c, 0, 69, 56
2, 33899, Note_on_c, 0, 69, 0
2, 33899, Note_on_c, 0, 58, 0
2, 33899, Note_on_c, 0, 64, 0
2, 33960, Note_on_c, 0, 58, 55
2, 33960, Note_on_c, 0, 64, 55
2, 33960, Note_on_c, 0, 70, 55
2, 34019, Note_on_c, 0, 70, 0
2, 34019, Note_on_c, 0, 58, 0
2, 34019, Note_on_c, 0, 64, 0
2, 34020, Note_on_c, 0, 61, 0
2, 34020, Note_on_c, 0, 61, 98
2, 34079, Note_on_c, 0, 58, 61
2, 34079, Note_on_c, 0, 64, 61
2, 34079, Note_on_c, 0, 71, 61
2, 34138, Note_on_c, 0, 71, 0
2, 34138, Note_on_c, 0, 58, 0
2, 34138, Note_on_c, 0, 64, 0
2, 34200, Note_on_c, 0, 61, 0
2, 34200, Note_on_c, 0, 66, 55
2, 34200, Note_on_c, 0, 70, 55
2, 34200, Note_on_c, 0, 72, 55
2, 34200, Note_on_c, 0, 63, 109
2, 34259, Note_on_c, 0, 72, 0
2, 34259, Note_on_c, 0, 70, 0
2, 34259, Note_on_c, 0, 66, 0
2, 34320, Note_on_c, 0, 66, 59
2, 34320, Note_on_c, 0, 70, 59
2, 34320, Note_on_c, 0, 73, 59
2, 34379, Note_on_c, 0, 73, 0
2, 34379, Note_on_c, 0, 66, 0
2, 34379, Note_on_c, 0, 70, 0
2, 34439, Note_on_c, 0, 63, 0
2, 34439, Note_on_c, 0, 66, 57
2, 34439, Note_on_c, 0, 70, 57
2, 34439, Note_on_c, 0, 74, 57
2, 34439, Note_on_c, 0, 64, 109
2, 34498, Note_on_c, 0, 74, 0
2, 34498, Note_on_c, 0, 70, 0
2, 34498, Note_on_c, 0, 66, 0
2, 34560, Note_on_c, 0, 42, 0
2, 34560, Note_on_c, 0, 64, 0
2, 34560, Note_on_c, 0, 49, 0
2, 34560, Note_on_c, 0, 66, 59
2, 34560, Note_on_c, 0, 71, 59
2, 34560, Note_on_c, 0, 75, 59
2, 34560, Note_on_c, 0, 63, 99
2, 34619, Note_on_c, 0, 75, 0
2, 34619, Note_on_c, 0, 66, 0
2, 34619, Note_on_c, 0, 71, 0
2, 34680, Note_on_c, 0, 66, 57
2, 34680, Note_on_c, 0, 71, 57
2, 34680, Note_on_c, 0, 76, 57
2, 34739, Note_on_c, 0, 76, 0
2, 34739, Note_on_c, 0, 71, 0
2, 34739, Note_on_c, 0, 66, 0
2, 34799, Note_on_c, 0, 66, 61
2, 34799, Note_on_c, 0, 71, 61
2, 34799, Note_on_c, 0, 77, 61
2, 34858, Note_on_c, 0, 77, 0
2, 34858, Note_on_c, 0, 71, 0
2, 34858, Note_on_c, 0, 66, 0
2, 34920, Note_on_c, 0, 71, 52
2, 34920, Note_on_c, 0, 75, 52
2, 34920, Note_on_c, 0, 78, 52
2, 34920, Note_on_c, 0, 42, 60
2, 34920, Note_on_c, 0, 51, 60
2, 34979, Note_on_c, 0, 78, 0
2, 34979, Note_on_c, 0, 75, 0
2, 34979, Note_on_c, 0, 71, 0
2, 35040, Note_on_c, 0, 71, 59
2, 35040, Note_on_c, 0, 75, 59
2, 35040, Note_on_c, 0, 79, 59
2, 35099, Note_on_c, 0, 79, 0
2, 35099, Note_on_c, 0, 71, 0
2, 35099, Note_on_c, 0, 75, 0
2, 35159, Note_on_c, 0, 71, 56
2, 35159, Note_on_c, 0, 75, 56
2, 35159, Note_on_c, 0, 80, 56
2, 35218, Note_on_c, 0, 80, 0
2, 35218, Note_on_c, 0, 71, 0
2, 35218, Note_on_c, 0, 75, 0
2, 35280, Note_on_c, 0, 71, 55
2, 35280, Note_on_c, 0, 75, 55
2, 35280, Note_on_c, 0, 80, 55
2, 35339, Note_on_c, 0, 80, 0
2, 35339, Note_on_c, 0, 71, 0
2, 35339, Note_on_c, 0, 75, 0
2, 35400, Note_on_c, 0, 71, 48
2, 35400, Note_on_c, 0, 75, 48
2, 35400, Note_on_c, 0, 79, 48
2, 35459, Note_on_c, 0, 79, 0
2, 35459, Note_on_c, 0, 71, 0
2, 35459, Note_on_c, 0, 75, 0
2, 35519, Note_on_c, 0, 71, 51
2, 35519, Note_on_c, 0, 75, 51
2, 35519, Note_on_c, 0, 78, 51
2, 35578, Note_on_c, 0, 78, 0
2, 35578, Note_on_c, 0, 71, 0
2, 35578, Note_on_c, 0, 75, 0
2, 35640, Note_on_c, 0, 63, 0
2, 35640, Note_on_c, 0, 71, 59
2, 35640, Note_on_c, 0, 75, 59
2, 35640, Note_on_c, 0, 78, 59
2, 35640, Note_on_c, 0, 66, 111
2, 35699, Note_on_c, 0, 78, 0
2, 35699, Note_on_c, 0, 75, 0
2, 35699, Note_on_c, 0, 71, 0
2, 35760, Note_on_c, 0, 71, 51
2, 35760, Note_on_c, 0, 75, 51
2, 35760, Note_on_c, 0, 77, 51
2, 35819, Note_on_c, 0, 77, 0
2, 35819, Note_on_c, 0, 71, 0
2, 35819, Note_on_c, 0, 75, 0
2, 35879, Note_on_c, 0, 71, 55
2, 35879, Note_on_c, 0, 75, 55
2, 35879, Note_on_c, 0, 78, 55
2, 35938, Note_on_c, 0, 78, 0
2, 35938, Note_on_c, 0, 71, 0
2, 35938, Note_on_c, 0, 75, 0
2, 36000, Note_on_c, 0, 66, 0
2, 36000, Note_on_c, 0, 42, 0
2, 36000, Note_on_c, 0, 51, 0
2, 36000, Note_on_c, 0, 67, 78
2, 36000, Note_on_c, 0, 63, 55
2, 36000, Note_on_c, 0, 34, 72
2, 36000, Note_on_c, 0, 46, 72
2, 36239, Note_on_c, 0, 58, 70
2, 36360, Note_on_c, 0, 58, 0
2, 36360, Note_on_c, 0, 67, 0
2, 36360, Note_on_c, 0, 70, 101
2, 36360, Note_on_c, 0, 58, 73
2, 36360, Note_on_c, 0, 55, 57
2, 36480, Note_on_c, 0, 58, 0
2, 36480, Note_on_c, 0, 60, 80
2, 36599, Note_on_c, 0, 60, 0
2, 36599, Note_on_c, 0, 62, 78
2, 36720, Note_on_c, 0, 62, 0
2, 36720, Note_on_c, 0, 63, 82
2, 36840, Note_on_c, 0, 63, 0
2, 36840, Note_on_c, 0, 62, 74
2, 36959, Note_on_c, 0, 62, 0
2, 36959, Note_on_c, 0, 63, 80
2, 37080, Note_on_c, 0, 63, 0
2, 37080, Note_on_c, 0, 55, 0
2, 37080, Note_on_c, 0, 70, 0
2, 37080, Note_on_c, 0, 63, 0
2, 37080, Note_on_c, 0, 65, 90
2, 37080, Note_on_c, 0, 65, 59
2, 37080, Note_on_c, 0, 62, 73
2, 37080, Note_on_c, 0, 53, 64
2, 37080, Note_on_c, 0, 56, 64
2, 37200, Note_on_c, 0, 62, 0
2, 37200, Note_on_c, 0, 60, 74
2, 37319, Note_on_c, 0, 60, 0
2, 37319, Note_on_c, 0, 65, 0
2, 37319, Note_on_c, 0, 68, 107
2, 37319, Note_on_c, 0, 62, 80
2, 37440, Note_on_c, 0, 62, 0
2, 37440, Note_on_c, 0, 46, 0
2, 37440, Note_on_c, 0, 56, 0
2, 37440, Note_on_c, 0, 65, 0
2, 37440, Note_on_c, 0, 34, 0
2, 37440, Note_on_c, 0, 68, 0
2, 37440, Note_on_c, 0, 53, 0
2, 37440, Note_on_c, 0, 67, 99
2, 37440, Note_on_c, 0, 63, 56
2, 37440, Note_on_c, 0, 60, 73
2, 37440, Note_on_c, 0, 51, 66
2, 37440, Note_on_c, 0, 55, 66
2, 37560, Note_on_c, 0, 60, 0
2, 37560, Note_on_c, 0, 59, 75
2, 37679, Note_on_c, 0, 59, 0
2, 37679, Note_on_c, 0, 60, 77
2, 37800, Note_on_c, 0, 60, 0
2, 37800, Note_on_c, 0, 59, 76
2, 37920, Note_on_c, 0, 59, 0
2, 37920, Note_on_c, 0, 58, 79
2, 38039, Note_on_c, 0, 58, 0
2, 38039, Note_on_c, 0, 59, 76
2, 38160, Note_on_c, 0, 59, 0
2, 38160, Note_on_c, 0, 58, 76
2, 38340, Note_on_c, 0, 58, 0
2, 38340, Note_on_c, 0, 51, 0
2, 38340, Note_on_c, 0, 67, 0
2, 38340, Note_on_c, 0, 63, 0
2, 38340, Note_on_c, 0, 55, 0
2, 38340, Note_on_c, 0, 67, 102
2, 38520, Note_on_c, 0, 67, 0
2, 38520, Note_on_c, 0, 68, 107
2, 38759, Note_on_c, 0, 68, 0
2, 38759, Note_on_c, 0, 69, 109
2, 38880, Note_on_c, 0, 69, 0
2, 38880, Note_on_c, 0, 70, 105
2, 38880, Note_on_c, 0, 66, 50
2, 38880, Note_on_c, 0, 37, 84
2, 38880, Note_on_c, 0, 49, 84
2, 39119, Note_on_c, 0, 61, 70
2, 39240, Note_on_c, 0, 61, 0
2, 39240, Note_on_c, 0, 70, 0
2, 39240, Note_on_c, 0, 73, 114
2, 39240, Note_on_c, 0, 61, 76
2, 39240, Note_on_c, 0, 58, 64
2, 39360, Note_on_c, 0, 61, 0
2, 39360, Note_on_c, 0, 63, 79
2, 39479, Note_on_c, 0, 63, 0
2, 39479, Note_on_c, 0, 65, 81
2, 39600, Note_on_c, 0, 65, 0
2, 39600, Note_on_c, 0, 66, 78
2, 39720, Note_on_c, 0, 66, 0
2, 39720, Note_on_c, 0, 65, 75
2, 39839, Note_on_c, 0, 65, 0
2, 39839, Note_on_c, 0, 66, 77
2, 39960, Note_on_c, 0, 66, 0
2, 39960, Note_on_c, 0, 58, 0
2, 39960, Note_on_c, 0, 73, 0
2, 39960, Note_on_c, 0, 66, 0
2, 39960, Note_on_c, 0, 68, 91
2, 39960, Note_on_c, 0, 68, 59
2, 39960, Note_on_c, 0, 65, 74
2, 39960, Note_on_c, 0, 56, 67
2, 39960, Note_on_c, 0, 60, 67
2, 40080, Note_on_c, 0, 65, 0
2, 40080, Note_on_c, 0, 63, 70
2, 40199, Note_on_c, 0, 63, 0
2, 40199, Note_on_c, 0, 68, 0
2, 40199, Note_on_c, 0, 71, 112
2, 40199, Note_on_c, 0, 65, 80
2, 40320, Note_on_c, 0, 65, 0
2, 40320, Note_on_c, 0, 49, 0
2, 40320, Note_on_c, 0, 60, 0
2, 40320, Note_on_c, 0, 68, 0
2, 40320, Note_on_c, 0, 37, 0
2, 40320, Note_on_c, 0, 71, 0
2, 40320, Note_on_c, 0, 56, 0
2, 40320, Note_on_c, 0, 70, 99
2, 40320, Note_on_c, 0, 66, 55
2, 40320, Note_on_c, 0, 63, 75
2, 40320, Note_on_c, 0, 54, 61
2, 40320, Note_on_c, 0, 58, 61
2, 40440, Note_on_c, 0, 63, 0
2, 40440, Note_on_c, 0, 62, 72
2, 40559, Note_on_c, 0, 62, 0
2, 40559, Note_on_c, 0, 63, 80
2, 40680, Note_on_c, 0, 63, 0
2, 40680, Note_on_c, 0, 62, 72
2, 40800, Note_on_c, 0, 62, 0
2, 40800, Note_on_c, 0, 61, 70
2, 40919, Note_on_c, 0, 61, 0
2, 40919, Note_on_c, 0, 62, 78
2, 41040, Note_on_c, 0, 62, 0
2, 41040, Note_on_c, 0, 61, 71
2, 41220, Note_on_c, 0, 61, 0
2, 41220, Note_on_c, 0, 54, 0
2, 41220, Note_on_c, 0, 70, 0
2, 41220, Note_on_c, 0, 66, 0
2, 41220, Note_on_c, 0, 58, 0
2, 41220, Note_on_c, 0, 70, 105
2, 41400, Note_on_c, 0, 70, 0
2, 41400, Note_on_c, 0, 71, 107
2, 41520, Note_on_c, 0, 71, 0
2, 41520, Note_on_c, 0, 72, 110
2, 41639, Note_on_c, 0, 72, 0
2, 41639, Note_on_c, 0, 73, 107
2, 41760, Note_on_c, 0, 73, 0
2, 41760, Note_on_c, 0, 74, 102
2, 41760, Note_on_c, 0, 70, 55
2, 41760, Note_on_c, 0, 41, 81
2, 41760, Note_on_c, 0, 53, 81
2, 41999, Note_on_c, 0, 65, 78
2, 42120, Note_on_c, 0, 65, 0
2, 42120, Note_on_c, 0, 74, 0
2, 42120, Note_on_c, 0, 77, 105
2, 42120, Note_on_c, 0, 65, 79
2, 42120, Note_on_c, 0, 62, 69
2, 42240, Note_on_c, 0, 65, 0
2, 42240, Note_on_c, 0, 67, 80
2, 42359, Note_on_c, 0, 67, 0
2, 42359, Note_on_c, 0, 69, 81
2, 42480, Note_on_c, 0, 69, 0
2, 42480, Note_on_c, 0, 70, 82
2, 42600, Note_on_c, 0, 70, 0
2, 42600, Note_on_c, 0, 69, 83
2, 42719, Note_on_c, 0, 69, 0
2, 42719, Note_on_c, 0, 70, 84
2, 42840, Note_on_c, 0, 70, 0
2, 42840, Note_on_c, 0, 62, 0
2, 42840, Note_on_c, 0, 77, 0
2, 42840, Note_on_c, 0, 70, 0
2, 42840, Note_on_c, 0, 72, 112
2, 42840, Note_on_c, 0, 72, 65
2, 42840, Note_on_c, 0, 69, 85
2, 42840, Note_on_c, 0, 60, 75
2, 42840, Note_on_c, 0, 64, 75
2, 42960, Note_on_c, 0, 69, 0
2, 42960, Note_on_c, 0, 72, 0
2, 42960, Note_on_c, 0, 74, 113
2, 42960, Note_on_c, 0, 67, 86
2, 43079, Note_on_c, 0, 67, 0
2, 43079, Note_on_c, 0, 74, 0
2, 43079, Note_on_c, 0, 75, 114
2, 43079, Note_on_c, 0, 69, 87
2, 43200, Note_on_c, 0, 69, 0
2, 43200, Note_on_c, 0, 64, 0
2, 43200, Note_on_c, 0, 53, 0
2, 43200, Note_on_c, 0, 72, 0
2, 43200, Note_on_c, 0, 41, 0
2, 43200, Note_on_c, 0, 75, 0
2, 43200, Note_on_c, 0, 60, 0
2, 43200, Note_on_c, 0, 74, 115
2, 43200, Note_on_c, 0, 70, 68
2, 43200, Note_on_c, 0, 67, 88
2, 43200, Note_on_c, 0, 58, 78
2, 43200, Note_on_c, 0, 62, 78
2, 43320, Note_on_c, 0, 67, 0
2, 43320, Note_on_c, 0, 66, 88
2, 43439, Note_on_c, 0, 66, 0
2, 43439, Note_on_c, 0, 67, 93
2, 43560, Note_on_c, 0, 67, 0
2, 43560, Note_on_c, 0, 66, 85
2, 43680, Note_on_c, 0, 66, 0
2, 43680, Note_on_c, 0, 65, 86
2, 43799, Note_on_c, 0, 65, 0
2, 43799, Note_on_c, 0, 66, 92
2, 43920, Note_on_c, 0, 66, 0
2, 43920, Note_on_c, 0, 65, 81
2, 44100, Note_on_c, 0, 65, 0
2, 44100, Note_on_c, 0, 58, 0
2, 44100, Note_on_c, 0, 74, 0
2, 44100, Note_on_c, 0, 70, 0
2, 44100, Note_on_c, 0, 62, 0
2, 44100, Note_on_c, 0, 62, 115
2, 44100, Note_on_c, 0, 74, 115
2, 44280, Note_on_c, 0, 74, 0
2, 44280, Note_on_c, 0, 62, 0
2, 44280, Note_on_c, 0, 64, 111
2, 44280, Note_on_c, 0, 76, 111
2, 44519, Note_on_c, 0, 76, 0
2, 44519, Note_on_c, 0, 64, 0
2, 44519, Note_on_c, 0, 65, 105
2, 44519, Note_on_c, 0, 77, 105
2, 44640, Note_on_c, 0, 77, 0
2, 44640, Note_on_c, 0, 65, 0
2, 44640, Note_on_c, 0, 66, 70
2, 44640, Note_on_c, 0, 74, 70
2, 44640, Note_on_c, 0, 78, 70
2, 44640, Note_on_c, 0, 33, 57
2, 44640, Note_on_c, 0, 45, 57
2, 44760, Note_on_c, 0, 54, 59
2, 44760, Note_on_c, 0, 57, 59
2, 44864, Note_on_c, 0, 57, 0
2, 44864, Note_on_c, 0, 54, 0
2, 44879, Note_on_c, 0, 54, 66
2, 44879, Note_on_c, 0, 57, 66
2, 44957, Note_on_c, 0, 74, 0
2, 44957, Note_on_c, 0, 66, 0
2, 44957, Note_on_c, 0, 78, 0
2, 44985, Note_on_c, 0, 57, 0
2, 44985, Note_on_c, 0, 54, 0
2, 45000, Note_on_c, 0, 69, 68
2, 45000, Note_on_c, 0, 74, 68
2, 45000, Note_on_c, 0, 78, 68
2, 45000, Note_on_c, 0, 81, 68
2, 45000, Note_on_c, 0, 54, 70
2, 45000, Note_on_c, 0, 57, 70
2, 45104, Note_on_c, 0, 57, 0
2, 45104, Note_on_c, 0, 54, 0
2, 45120, Note_on_c, 0, 54, 71
2, 45120, Note_on_c, 0, 57, 71
2, 45120, Note_on_c, 0, 59, 71
2, 45224, Note_on_c, 0, 59, 0
2, 45224, Note_on_c, 0, 57, 0
2, 45224, Note_on_c, 0, 54, 0
2, 45239, Note_on_c, 0, 54, 69
2, 45239, Note_on_c, 0, 57, 69
2, 45239, Note_on_c, 0, 59, 69
2, 45345, Note_on_c, 0, 59, 0
2, 45345, Note_on_c, 0, 57, 0
2, 45345, Note_on_c, 0, 54, 0
2, 45360, Note_on_c, 0, 45, 0
2, 45360, Note_on_c, 0, 33, 0
2, 45360, Note_on_c, 0, 35, 67
2, 45360, Note_on_c, 0, 47, 67
2, 45480, Note_on_c, 0, 54, 65
2, 45480, Note_on_c, 0, 57, 65
2, 45480, Note_on_c, 0, 61, 65
2, 45540, Note_on_c, 0, 78, 0
2, 45540, Note_on_c, 0, 81, 0
2, 45540, Note_on_c, 0, 74, 0
2, 45540, Note_on_c, 0, 69, 0
2, 45540, Note_on_c, 0, 68, 63
2, 45540, Note_on_c, 0, 80, 63
2, 45584, Note_on_c, 0, 57, 0
2, 45584, Note_on_c, 0, 61, 0
2, 45584, Note_on_c, 0, 54, 0
2, 45599, Note_on_c, 0, 54, 62
2, 45599, Note_on_c, 0, 57, 62
2, 45599, Note_on_c, 0, 61, 62
2, 45698, Note_on_c, 0, 80, 0
2, 45698, Note_on_c, 0, 68, 0
2, 45705, Note_on_c, 0, 57, 0
2, 45705, Note_on_c, 0, 54, 0
2, 45705, Note_on_c, 0, 61, 0
2, 45720, Note_on_c, 0, 66, 55
2, 45720, Note_on_c, 0, 74, 55
2, 45720, Note_on_c, 0, 78, 55
2, 45720, Note_on_c, 0, 54, 55
2, 45720, Note_on_c, 0, 57, 55
2, 45720, Note_on_c, 0, 62, 55
2, 45824, Note_on_c, 0, 62, 0
2, 45824, Note_on_c, 0, 57, 0
2, 45824, Note_on_c, 0, 78, 0
2, 45824, Note_on_c, 0, 74, 0
2, 45824, Note_on_c, 0, 66, 0
2, 45824, Note_on_c, 0, 54, 0
2, 45840, Note_on_c, 0, 64, 60
2, 45840, Note_on_c, 0, 76, 60
2, 45840, Note_on_c, 0, 54, 60
2, 45840, Note_on_c, 0, 57, 60
2, 45840, Note_on_c, 0, 64, 60
2, 45944, Note_on_c, 0, 57, 0
2, 45944, Note_on_c, 0, 64, 0
2, 45944, Note_on_c, 0, 54, 0
2, 45997, Note_on_c, 0, 76, 0
2, 45997, Note_on_c, 0, 64, 0
2, 46020, Note_on_c, 0, 62, 66
2, 46020, Note_on_c, 0, 74, 66
2, 46072, Note_on_c, 0, 74, 0
2, 46072, Note_on_c, 0, 62, 0
2, 46080, Note_on_c, 0, 35, 0
2, 46080, Note_on_c, 0, 47, 0
2, 46080, Note_on_c, 0, 62, 74
2, 46080, Note_on_c, 0, 74, 74
2, 46080, Note_on_c, 0, 36, 79
2, 46080, Note_on_c, 0, 48, 79
2, 46200, Note_on_c, 0, 57, 55
2, 46200, Note_on_c, 0, 64, 55
2, 46304, Note_on_c, 0, 64, 0
2, 46304, Note_on_c, 0, 57, 0
2, 46319, Note_on_c, 0, 57, 57
2, 46319, Note_on_c, 0, 64, 57
2, 46425, Note_on_c, 0, 64, 0
2, 46425, Note_on_c, 0, 57, 0
2, 46440, Note_on_c, 0, 57, 58
2, 46440, Note_on_c, 0, 64, 58
2, 46544, Note_on_c, 0, 64, 0
2, 46544, Note_on_c, 0, 57, 0
2, 46560, Note_on_c, 0, 57, 59
2, 46560, Note_on_c, 0, 65, 59
2, 46664, Note_on_c, 0, 65, 0
2, 46664, Note_on_c, 0, 57, 0
2, 46679, Note_on_c, 0, 57, 60
2, 46679, Note_on_c, 0, 65, 60
2, 46713, Note_on_c, 0, 74, 0
2, 46713, Note_on_c, 0, 62, 0
2, 46785, Note_on_c, 0, 57, 0
2, 46785, Note_on_c, 0, 65, 0
2, 46800, Note_on_c, 0, 60, 75
2, 46800, Note_on_c, 0, 72, 75
2, 46800, Note_on_c, 0, 57, 62
2, 46800, Note_on_c, 0, 65, 62
2, 46904, Note_on_c, 0, 65, 0
2, 46904, Note_on_c, 0, 57, 0
2, 46920, Note_on_c, 0, 57, 63
2, 46920, Note_on_c, 0, 66, 63
2, 47024, Note_on_c, 0, 66, 0
2, 47024, Note_on_c, 0, 57, 0
2, 47039, Note_on_c, 0, 57, 64
2, 47039, Note_on_c, 0, 66, 64
2, 47117, Note_on_c, 0, 72, 0
2, 47117, Note_on_c, 0, 60, 0
2, 47145, Note_on_c, 0, 57, 0
2, 47145, Note_on_c, 0, 66, 0
2, 47160, Note_on_c, 0, 62, 81
2, 47160, Note_on_c, 0, 74, 81
2, 47160, Note_on_c, 0, 57, 65
2, 47160, Note_on_c, 0, 66, 65
2, 47264, Note_on_c, 0, 66, 0
2, 47264, Note_on_c, 0, 57, 0
2, 47280, Note_on_c, 0, 57, 67
2, 47280, Note_on_c, 0, 65, 67
2, 47370, Note_on_c, 0, 62, 0
2, 47370, Note_on_c, 0, 74, 0
2, 47384, Note_on_c, 0, 57, 0
2, 47384, Note_on_c, 0, 65, 0
2, 47399, Note_on_c, 0, 64, 85
2, 47399, Note_on_c, 0, 76, 85
2, 47505, Note_on_c, 0, 76, 0
2, 47505, Note_on_c, 0, 64, 0
2, 47520, Note_on_c, 0, 48, 0
2, 47520, Note_on_c, 0, 36, 0
2, 47520, Note_on_c, 0, 65, 84
2, 47520, Note_on_c, 0, 73, 84
2, 47520, Note_on_c, 0, 77, 84
2, 47520, Note_on_c, 0, 32, 86
2, 47520, Note_on_c, 0, 44, 86
2, 47640, Note_on_c, 0, 53, 72
2, 47640, Note_on_c, 0, 56, 72
2, 47744, Note_on_c, 0, 56, 0
2, 47744, Note_on_c, 0, 53, 0
2, 47759, Note_on_c, 0, 53, 82
2, 47759, Note_on_c, 0, 56, 82
2, 47837, Note_on_c, 0, 73, 0
2, 47837, Note_on_c, 0, 65, 0
2, 47837, Note_on_c, 0, 77, 0
2, 47865, Note_on_c, 0, 56, 0
2, 47865, Note_on_c, 0, 53, 0
2, 47880, Note_on_c, 0, 68, 89
2, 47880, Note_on_c, 0, 73, 89
2, 47880, Note_on_c, 0, 77, 89
2, 47880, Note_on_c, 0, 80, 89
2, 47880, Note_on_c, 0, 53, 83
2, 47880, Note_on_c, 0, 56, 83
2, 47984, Note_on_c, 0, 56, 0
2, 47984, Note_on_c, 0, 53, 0
2, 48000, Note_on_c, 0, 53, 81
2, 48000, Note_on_c, 0, 56, 81
2, 48000, Note_on_c, 0, 58, 81
2, 48104, Note_on_c, 0, 58, 0
2, 48104, Note_on_c, 0, 56, 0
2, 48104, Note_on_c, 0, 53, 0
2, 48119, Note_on_c, 0, 53, 86
2, 48119, Note_on_c, 0, 56, 86
2, 48119, Note_on_c, 0, 58, 86
2, 48225, Note_on_c, 0, 58, 0
2, 48225, Note_on_c, 0, 56, 0
2, 48225, Note_on_c, 0, 53, 0
2, 48240, Note_on_c, 0, 44, 0
2, 48240, Note_on_c, 0, 32, 0
2, 48240, Note_on_c, 0, 34, 95
2, 48240, Note_on_c, 0, 46, 95
2, 48360, Note_on_c, 0, 53, 72
2, 48360, Note_on_c, 0, 56, 72
2, 48360, Note_on_c, 0, 61, 72
2, 48420, Note_on_c, 0, 77, 0
2, 48420, Note_on_c, 0, 80, 0
2, 48420, Note_on_c, 0, 73, 0
2, 48420, Note_on_c, 0, 68, 0
2, 48420, Note_on_c, 0, 67, 81
2, 48420, Note_on_c, 0, 79, 81
2, 48464, Note_on_c, 0, 56, 0
2, 48464, Note_on_c, 0, 61, 0
2, 48464, Note_on_c, 0, 53, 0
2, 48479, Note_on_c, 0, 53, 83
2, 48479, Note_on_c, 0, 56, 83
2, 48479, Note_on_c, 0, 61, 83
2, 48578, Note_on_c, 0, 79, 0
2, 48578, Note_on_c, 0, 67, 0
2, 48585, Note_on_c, 0, 56, 0
2, 48585, Note_on_c, 0, 53, 0
2, 48585, Note_on_c, 0, 61, 0
2, 48600, Note_on_c, 0, 65, 71
2, 48600, Note_on_c, 0, 73, 71
2, 48600, Note_on_c, 0, 77, 71
2, 48600, Note_on_c, 0, 53, 86
2, 48600, Note_on_c, 0, 56, 86
2, 48600, Note_on_c, 0, 61, 86
2, 48704, Note_on_c, 0, 61, 0
2, 48704, Note_on_c, 0, 56, 0
2, 48704, Note_on_c, 0, 77, 0
2, 48704, Note_on_c, 0, 73, 0
2, 48704, Note_on_c, 0, 65, 0
2, 48704, Note_on_c, 0, 53, 0
2, 48720, Note_on_c, 0, 63, 72
2, 48720, Note_on_c, 0, 75, 72
2, 48720, Note_on_c, 0, 53, 86
2, 48720, Note_on_c, 0, 56, 86
2, 48720, Note_on_c, 0, 63, 86
2, 48824, Note_on_c, 0, 56, 0
2, 48824, Note_on_c, 0, 63, 0
2, 48824, Note_on_c, 0, 53, 0
2, 48877, Note_on_c, 0, 75, 0
2, 48877, Note_on_c, 0, 63, 0
2, 48900, Note_on_c, 0, 61, 76
2, 48900, Note_on_c, 0, 73, 76
2, 48952, Note_on_c, 0, 73, 0
2, 48952, Note_on_c, 0, 61, 0
2, 48960, Note_on_c, 0, 34, 0
2, 48960, Note_on_c, 0, 46, 0
2, 48960, Note_on_c, 0, 61, 81
2, 48960, Note_on_c, 0, 73, 81
2, 48960, Note_on_c, 0, 68, 59
2, 48960, Note_on_c, 0, 35, 93
2, 48960, Note_on_c, 0, 47, 93
2, 49080, Note_on_c, 0, 56, 68
2, 49080, Note_on_c, 0, 63, 68
2, 49184, Note_on_c, 0, 63, 0
2, 49184, Note_on_c, 0, 56, 0
2, 49199, Note_on_c, 0, 56, 69
2, 49199, Note_on_c, 0, 63, 69
2, 49305, Note_on_c, 0, 63, 0
2, 49305, Note_on_c, 0, 56, 0
2, 49320, Note_on_c, 0, 56, 71
2, 49320, Note_on_c, 0, 63, 71
2, 49424, Note_on_c, 0, 63, 0
2, 49424, Note_on_c, 0, 56, 0
2, 49440, Note_on_c, 0, 56, 72
2, 49440, Note_on_c, 0, 64, 72
2, 49544, Note_on_c, 0, 64, 0
2, 49544, Note_on_c, 0, 56, 0
2, 49559, Note_on_c, 0, 56, 73
2, 49559, Note_on_c, 0, 64, 73
2, 49593, Note_on_c, 0, 73, 0
2, 49593, Note_on_c, 0, 61, 0
2, 49665, Note_on_c, 0, 56, 0
2, 49665, Note_on_c, 0, 64, 0
2, 49680, Note_on_c, 0, 59, 77
2, 49680, Note_on_c, 0, 71, 77
2, 49680, Note_on_c, 0, 56, 74
2, 49680, Note_on_c, 0, 64, 74
2, 49784, Note_on_c, 0, 64, 0
2, 49784, Note_on_c, 0, 56, 0
2, 49800, Note_on_c, 0, 56, 76
2, 49800, Note_on_c, 0, 65, 76
2, 49904, Note_on_c, 0, 65, 0
2, 49904, Note_on_c, 0, 56, 0
2, 49919, Note_on_c, 0, 56, 77
2, 49919, Note_on_c, 0, 65, 77
2, 49997, Note_on_c, 0, 71, 0
2, 49997, Note_on_c, 0, 59, 0
2, 50025, Note_on_c, 0, 56, 0
2, 50025, Note_on_c, 0, 65, 0
2, 50040, Note_on_c, 0, 68, 0
2, 50040, Note_on_c, 0, 61, 83
2, 50040, Note_on_c, 0, 73, 83
2, 50040, Note_on_c, 0, 56, 78
2, 50040, Note_on_c, 0, 65, 78
2, 50144, Note_on_c, 0, 65, 0
2, 50144, Note_on_c, 0, 56, 0
2, 50160, Note_on_c, 0, 56, 79
2, 50160, Note_on_c, 0, 64, 79
2, 50250, Note_on_c, 0, 61, 0
2, 50250, Note_on_c, 0, 73, 0
2, 50264, Note_on_c, 0, 56, 0
2, 50264, Note_on_c, 0, 64, 0
2, 50279, Note_on_c, 0, 63, 83
2, 50279, Note_on_c, 0, 75, 83
2, 50385, Note_on_c, 0, 75, 0
2, 50385, Note_on_c, 0, 63, 0
2, 50400, Note_on_c, 0, 35, 0
2, 50400, Note_on_c, 0, 47, 0
2, 50400, Note_on_c, 0, 64, 118
2, 50400, Note_on_c, 0, 72, 118
2, 50400, Note_on_c, 0, 76, 118
2, 50400, Note_on_c, 0, 31, 100
2, 50400, Note_on_c, 0, 43, 100
2, 50520, Note_on_c, 0, 52, 79
2, 50520, Note_on_c, 0, 55, 79
2, 50624, Note_on_c, 0, 55, 0
2, 50624, Note_on_c, 0, 52, 0
2, 50639, Note_on_c, 0, 52, 90
2, 50639, Note_on_c, 0, 55, 90
2, 50717, Note_on_c, 0, 72, 0
2, 50717, Note_on_c, 0, 64, 0
2, 50717, Note_on_c, 0, 76, 0
2, 50745, Note_on_c, 0, 55, 0
2, 50745, Note_on_c, 0, 52, 0
2, 50760, Note_on_c, 0, 67, 123
2, 50760, Note_on_c, 0, 72, 123
2, 50760, Note_on_c, 0, 76, 123
2, 50760, Note_on_c, 0, 79, 123
2, 50760, Note_on_c, 0, 52, 87
2, 50760, Note_on_c, 0, 55, 87
2, 50864, Note_on_c, 0, 55, 0
2, 50864, Note_on_c, 0, 52, 0
2, 50880, Note_on_c, 0, 52, 89
2, 50880, Note_on_c, 0, 55, 89
2, 50880, Note_on_c, 0, 57, 89
2, 50984, Note_on_c, 0, 57, 0
2, 50984, Note_on_c, 0, 55, 0
2, 50984, Note_on_c, 0, 52, 0
2, 50999, Note_on_c, 0, 52, 87
2, 50999, Note_on_c, 0, 55, 87
2, 50999, Note_on_c, 0, 57, 87
2, 51105, Note_on_c, 0, 57, 0
2, 51105, Note_on_c, 0, 55, 0
2, 51105, Note_on_c, 0, 52, 0
2, 51120, Note_on_c, 0, 52, 86
2, 51120, Note_on_c, 0, 55, 86
2, 51120, Note_on_c, 0, 57, 86
2, 51224, Note_on_c, 0, 57, 0
2, 51224, Note_on_c, 0, 55, 0
2, 51224, Note_on_c, 0, 52, 0
2, 51240, Note_on_c, 0, 52, 93
2, 51240, Note_on_c, 0, 55, 93
2, 51240, Note_on_c, 0, 59, 93
2, 51300, Note_on_c, 0, 79, 0
2, 51300, Note_on_c, 0, 72, 0
2, 51300, Note_on_c, 0, 67, 0
2, 51300, Note_on_c, 0, 76, 0
2, 51300, Note_on_c, 0, 66, 108
2, 51300, Note_on_c, 0, 78, 108
2, 51344, Note_on_c, 0, 59, 0
2, 51344, Note_on_c, 0, 55, 0
2, 51344, Note_on_c, 0, 52, 0
2, 51359, Note_on_c, 0, 52, 95
2, 51359, Note_on_c, 0, 55, 95
2, 51359, Note_on_c, 0, 59, 95
2, 51458, Note_on_c, 0, 78, 0
2, 51458, Note_on_c, 0, 66, 0
2, 51465, Note_on_c, 0, 55, 0
2, 51465, Note_on_c, 0, 52, 0
2, 51465, Note_on_c, 0, 59, 0
2, 51480, Note_on_c, 0, 64, 108
2, 51480, Note_on_c, 0, 76, 108
2, 51480, Note_on_c, 0, 52, 90
2, 51480, Note_on_c, 0, 55, 90
2, 51480, Note_on_c, 0, 60, 90
2, 51584, Note_on_c, 0, 60, 0
2, 51584, Note_on_c, 0, 52, 0
2, 51584, Note_on_c, 0, 76, 0
2, 51584, Note_on_c, 0, 64, 0
2, 51584, Note_on_c, 0, 55, 0
2, 51600, Note_on_c, 0, 74, 106
2, 51600, Note_on_c, 0, 62, 95
2, 51757, Note_on_c, 0, 62, 0
2, 51757, Note_on_c, 0, 74, 0
2, 51780, Note_on_c, 0, 72, 105
2, 51780, Note_on_c, 0, 60, 83
2, 51832, Note_on_c, 0, 60, 0
2, 51832, Note_on_c, 0, 72, 0
2, 51840, Note_on_c, 0, 31, 0
2, 51840, Note_on_c, 0, 43, 0
2, 51840, Note_on_c, 0, 69, 114
2, 51840, Note_on_c, 0, 57, 127
2, 51960, Note_on_c, 0, 72, 106
2, 51960, Note_on_c, 0, 76, 106
2, 51960, Note_on_c, 0, 60, 81
2, 51960, Note_on_c, 0, 64, 81
2, 52064, Note_on_c, 0, 64, 0
2, 52064, Note_on_c, 0, 76, 0
2, 52064, Note_on_c, 0, 72, 0
2, 52064, Note_on_c, 0, 60, 0
2, 52079, Note_on_c, 0, 72, 110
2, 52079, Note_on_c, 0, 76, 110
2, 52079, Note_on_c, 0, 60, 84
2, 52079, Note_on_c, 0, 64, 84
2, 52157, Note_on_c, 0, 69, 0
2, 52157, Note_on_c, 0, 57, 0
2, 52185, Note_on_c, 0, 60, 0
2, 52185, Note_on_c, 0, 76, 0
2, 52185, Note_on_c, 0, 64, 0
2, 52185, Note_on_c, 0, 72, 0
2, 52200, Note_on_c, 0, 67, 109
2, 52200, Note_on_c, 0, 55, 117
2, 52304, Note_on_c, 0, 55, 0
2, 52304, Note_on_c, 0, 67, 0
2, 52320, Note_on_c, 0, 64, 105
2, 52320, Note_on_c, 0, 52, 106
2, 52477, Note_on_c, 0, 52, 0
2, 52477, Note_on_c, 0, 64, 0
2, 52500, Note_on_c, 0, 62, 106
2, 52500, Note_on_c, 0, 50, 111
2, 52552, Note_on_c, 0, 50, 0
2, 52552, Note_on_c, 0, 62, 0
2, 52560, Note_on_c, 0, 62, 114
2, 52560, Note_on_c, 0, 50, 115
2, 52680, Note_on_c, 0, 64, 107
2, 52680, Note_on_c, 0, 67, 107
2, 52680, Note_on_c, 0, 52, 77
2, 52680, Note_on_c, 0, 55, 77
2, 52784, Note_on_c, 0, 55, 0
2, 52784, Note_on_c, 0, 67, 0
2, 52784, Note_on_c, 0, 64, 0
2, 52784, Note_on_c, 0, 52, 0
2, 52799, Note_on_c, 0, 64, 109
2, 52799, Note_on_c, 0, 67, 109
2, 52799, Note_on_c, 0, 52, 88
2, 52799, Note_on_c, 0, 55, 88
2, 52877, Note_on_c, 0, 62, 0
2, 52877, Note_on_c, 0, 50, 0
2, 52905, Note_on_c, 0, 52, 0
2, 52905, Note_on_c, 0, 67, 0
2, 52905, Note_on_c, 0, 55, 0
2, 52905, Note_on_c, 0, 64, 0
2, 52920, Note_on_c, 0, 60, 111
2, 52920, Note_on_c, 0, 48, 108
2, 53024, Note_on_c, 0, 48, 0
2, 53024, Note_on_c, 0, 60, 0
2, 53040, Note_on_c, 0, 57, 110
2, 53040, Note_on_c, 0, 45, 108
2, 53197, Note_on_c, 0, 45, 0
2, 53197, Note_on_c, 0, 57, 0
2, 53220, Note_on_c, 0, 55, 112
2, 53220, Note_on_c, 0, 43, 114
2, 53272, Note_on_c, 0, 43, 0
2, 53272, Note_on_c, 0, 55, 0
2, 53280, Note_on_c, 0, 55, 113
2, 53280, Note_on_c, 0, 43, 115
2, 53400, Note_on_c, 0, 60, 100
2, 53400, Note_on_c, 0, 64, 100
2, 53400, Note_on_c, 0, 48, 77
2, 53400, Note_on_c, 0, 52, 77
2, 53504, Note_on_c, 0, 52, 0
2, 53504, Note_on_c, 0, 64, 0
2, 53504, Note_on_c, 0, 60, 0
2, 53504, Note_on_c, 0, 48, 0
2, 53519, Note_on_c, 0, 60, 111
2, 53519, Note_on_c, 0, 64, 111
2, 53519, Note_on_c, 0, 48, 88
2, 53519, Note_on_c, 0, 52, 88
2, 53597, Note_on_c, 0, 55, 0
2, 53597, Note_on_c, 0, 43, 0
2, 53625, Note_on_c, 0, 48, 0
2, 53625, Note_on_c, 0, 64, 0
2, 53625, Note_on_c, 0, 52, 0
2, 53625, Note_on_c, 0, 60, 0
2, 53640, Note_on_c, 0, 52, 102
2, 53760, Note_on_c, 0, 52, 0
2, 53760, Note_on_c, 0, 50, 104
2, 53879, Note_on_c, 0, 50, 0
2, 53879, Note_on_c, 0, 48, 105
2, 54000, Note_on_c, 0, 48, 0
2, 54000, Note_on_c, 0, 48, 107
2, 54120, Note_on_c, 0, 48, 0
2, 54120, Note_on_c, 0, 45, 108
2, 54239, Note_on_c, 0, 45, 0
2, 54239, Note_on_c, 0, 43, 109
2, 54360, Note_on_c, 0, 43, 0
2, 54360, Note_on_c, 0, 43, 111
2, 54450, Note_on_c, 0, 43, 0
2, 54450, Note_on_c, 0, 40, 112
2, 54540, Note_on_c, 0, 40, 0
2, 54540, Note_on_c, 0, 38, 113
2, 54675, Note_on_c, 0, 38, 0
2, 54675, Note_on_c, 0, 36, 114
2, 54720, Note_on_c, 0, 36, 0
2, 54720, Note_on_c, 0, 36, 113
2, 55440, Note_on_c, 0, 53, 88
2, 55440, Note_on_c, 0, 57, 88
2, 55440, Note_on_c, 0, 63, 88
2, 55440, Note_on_c, 0, 65, 88
2, 56160, Note_on_c, 0, 65, 0
2, 56160, Note_on_c, 0, 57, 0
2, 56160, Note_on_c, 0, 36, 0
2, 56160, Note_on_c, 0, 53, 0
2, 56160, Note_on_c, 0, 63, 0
2, 56160, Note_on_c, 0, 35, 84
2, 56520, Note_on_c, 0, 54, 81
2, 56520, Note_on_c, 0, 57, 81
2, 56520, Note_on_c, 0, 64, 81
2, 56520, Note_on_c, 0, 66, 81
2, 57240, Note_on_c, 0, 66, 0
2, 57240, Note_on_c, 0, 57, 0
2, 57240, Note_on_c, 0, 64, 0
2, 57240, Note_on_c, 0, 54, 0
2, 57240, Note_on_c, 0, 59, 77
2, 57240, Note_on_c, 0, 63, 77
2, 57240, Note_on_c, 0, 69, 77
2, 57240, Note_on_c, 0, 71, 77
2, 57600, Note_on_c, 0, 71, 0
2, 57600, Note_on_c, 0, 63, 0
2, 57600, Note_on_c, 0, 35, 0
2, 57600, Note_on_c, 0, 59, 0
2, 57600, Note_on_c, 0, 69, 0
2, 57600, Note_on_c, 0, 59, 64
2, 57600, Note_on_c, 0, 64, 64
2, 57600, Note_on_c, 0, 68, 64
2, 57600, Note_on_c, 0, 71, 64
2, 57600, Note_on_c, 0, 28, 62
2, 57600, Note_on_c, 0, 40, 62
2, 57704, Note_on_c, 0, 71, 0
2, 57704, Note_on_c, 0, 68, 0
2, 57704, Note_on_c, 0, 59, 0
2, 57704, Note_on_c, 0, 64, 0
2, 57720, Note_on_c, 0, 59, 68
2, 57720, Note_on_c, 0, 64, 68
2, 57720, Note_on_c, 0, 68, 68
2, 57720, Note_on_c, 0, 71, 68
2, 57824, Note_on_c, 0, 71, 0
2, 57824, Note_on_c, 0, 64, 0
2, 57824, Note_on_c, 0, 59, 0
2, 57824, Note_on_c, 0, 68, 0
2, 57839, Note_on_c, 0, 59, 74
2, 57839, Note_on_c, 0, 64, 74
2, 57839, Note_on_c, 0, 68, 74
2, 57839, Note_on_c, 0, 71, 74
2, 57945, Note_on_c, 0, 71, 0
2, 57945, Note_on_c, 0, 64, 0
2, 57945, Note_on_c, 0, 59, 0
2, 57945, Note_on_c, 0, 68, 0
2, 57960, Control_c, 0, 64, 127
2, 58080, Note_on_c, 0, 59, 52
2, 58080, Note_on_c, 0, 64, 52
2, 58080, Note_on_c, 0, 68, 52
2, 58080, Note_on_c, 0, 71, 52
2, 58184, Note_on_c, 0, 71, 0
2, 58184, Note_on_c, 0, 64, 0
2, 58184, Note_on_c, 0, 59, 0
2, 58184, Note_on_c, 0, 68, 0
2, 58199, Control_c, 0, 64, 0
2, 58199, Note_on_c, 0, 59, 48
2, 58199, Note_on_c, 0, 64, 48
2, 58199, Note_on_c, 0, 68, 48
2, 58199, Note_on_c, 0, 71, 48
2, 58305, Note_on_c, 0, 71, 0
2, 58305, Note_on_c, 0, 64, 0
2, 58305, Note_on_c, 0, 59, 0
2, 58305, Note_on_c, 0, 68, 0
2, 58320, Control_c, 0, 64, 127
2, 58440, Note_on_c, 0, 59, 43
2, 58440, Note_on_c, 0, 68, 43
2, 58440, Note_on_c, 0, 71, 43
2, 58544, Note_on_c, 0, 71, 0
2, 58544, Note_on_c, 0, 59, 0
2, 58544, Note_on_c, 0, 68, 0
2, 58559, Control_c, 0, 64, 0
2, 58559, Note_on_c, 0, 59, 41
2, 58559, Note_on_c, 0, 68, 41
2, 58559, Note_on_c, 0, 71, 41
2, 58665, Note_on_c, 0, 71, 0
2, 58665, Note_on_c, 0, 59, 0
2, 58665, Note_on_c, 0, 68, 0
2, 58680, Note_on_c, 0, 52, 59
2, 58680, Note_on_c, 0, 64, 59
2, 58680, Control_c, 0, 64, 127
2, 58800, Note_on_c, 0, 59, 37
2, 58800, Note_on_c, 0, 68, 37
2, 58800, Note_on_c, 0, 71, 37
2, 58904, Note_on_c, 0, 71, 0
2, 58904, Note_on_c, 0, 59, 0
2, 58904, Note_on_c, 0, 68, 0
2, 58919, Control_c, 0, 64, 0
2, 58919, Note_on_c, 0, 59, 49
2, 58919, Note_on_c, 0, 68, 49
2, 58919, Note_on_c, 0, 71, 49
2, 59025, Note_on_c, 0, 71, 0
2, 59025, Note_on_c, 0, 59, 0
2, 59025, Note_on_c, 0, 68, 0
2, 59040, Note_on_c, 0, 64, 0
2, 59040, Note_on_c, 0, 28, 0
2, 59040, Note_on_c, 0, 40, 0
2, 59040, Note_on_c, 0, 52, 0
2, 59040, Note_on_c, 0, 54, 69
2, 59040, Note_on_c, 0, 66, 69
2, 59040, Control_c, 0, 64, 127
2, 59160, Note_on_c, 0, 59, 50
2, 59160, Note_on_c, 0, 63, 50
2, 59160, Note_on_c, 0, 69, 50
2, 59160, Note_on_c, 0, 71, 50
2, 59264, Note_on_c, 0, 71, 0
2, 59264, Note_on_c, 0, 63, 0
2, 59264, Note_on_c, 0, 59, 0
2, 59264, Note_on_c, 0, 69, 0
2, 59279, Control_c, 0, 64, 0
2, 59279, Note_on_c, 0, 59, 61
2, 59279, Note_on_c, 0, 63, 61
2, 59279, Note_on_c, 0, 69, 61
2, 59279, Note_on_c, 0, 71, 61
2, 59385, Note_on_c, 0, 71, 0
2, 59385, Note_on_c, 0, 63, 0
2, 59385, Note_on_c, 0, 59, 0
2, 59385, Note_on_c, 0, 69, 0
2, 59400, Note_on_c, 0, 40, 46
2, 59400, Note_on_c, 0, 47, 46
2, 59400, Control_c, 0, 64, 127
2, 59520, Note_on_c, 0, 59, 55
2, 59520, Note_on_c, 0, 63, 55
2, 59520, Note_on_c, 0, 69, 55
2, 59520, Note_on_c, 0, 71, 55
2, 59624, Note_on_c, 0, 71, 0
2, 59624, Note_on_c, 0, 69, 0
2, 59624, Note_on_c, 0, 59, 0
2, 59624, Note_on_c, 0, 63, 0
2, 59639, Control_c, 0, 64, 0
2, 59639, Note_on_c, 0, 59, 54
2, 59639, Note_on_c, 0, 63, 54
2, 59639, Note_on_c, 0, 69, 54
2, 59639, Note_on_c, 0, 71, 54
2, 59745, Note_on_c, 0, 71, 0
2, 59745, Note_on_c, 0, 69, 0
2, 59745, Note_on_c, 0, 59, 0
2, 59745, Note_on_c, 0, 63, 0
2, 59760, Control_c, 0, 64, 127
2, 59880, Note_on_c, 0, 59, 55
2, 59880, Note_on_c, 0, 63, 55
2, 59880, Note_on_c, 0, 69, 55
2, 59880, Note_on_c, 0, 71, 55
2, 59940, Note_on_c, 0, 66, 0
2, 59940, Note_on_c, 0, 54, 0
2, 59940, Note_on_c, 0, 54, 65
2, 59940, Note_on_c, 0, 66, 65
2, 59984, Note_on_c, 0, 63, 0
2, 59984, Note_on_c, 0, 71, 0
2, 59984, Note_on_c, 0, 59, 0
2, 59984, Note_on_c, 0, 69, 0
2, 59999, Control_c, 0, 64, 0
2, 59999, Note_on_c, 0, 59, 60
2, 59999, Note_on_c, 0, 63, 60
2, 59999, Note_on_c, 0, 69, 60
2, 59999, Note_on_c, 0, 71, 60
2, 60105, Note_on_c, 0, 71, 0
2, 60105, Note_on_c, 0, 69, 0
2, 60105, Note_on_c, 0, 59, 0
2, 60105, Note_on_c, 0, 63, 0
2, 60120, Note_on_c, 0, 66, 0
2, 60120, Note_on_c, 0, 54, 0
2, 60120, Note_on_c, 0, 56, 70
2, 60120, Note_on_c, 0, 68, 70
2, 60120, Control_c, 0, 64, 127
2, 60240, Note_on_c, 0, 59, 52
2, 60240, Note_on_c, 0, 63, 52
2, 60240, Note_on_c, 0, 71, 52
2, 60344, Note_on_c, 0, 71, 0
2, 60344, Note_on_c, 0, 59, 0
2, 60344, Note_on_c, 0, 63, 0
2, 60359, Note_on_c, 0, 56, 0
2, 60359, Note_on_c, 0, 68, 0
2, 60359, Note_on_c, 0, 57, 74
2, 60359, Note_on_c, 0, 69, 74
2, 60359, Control_c, 0, 64, 0
2, 60359, Note_on_c, 0, 59, 62
2, 60359, Note_on_c, 0, 63, 62
2, 60359, Note_on_c, 0, 71, 62
2, 60465, Note_on_c, 0, 71, 0
2, 60465, Note_on_c, 0, 59, 0
2, 60465, Note_on_c, 0, 63, 0
2, 60480, Note_on_c, 0, 57, 0
2, 60480, Note_on_c, 0, 47, 0
2, 60480, Note_on_c, 0, 40, 0
2, 60480, Note_on_c, 0, 69, 0
2, 60480, Note_on_c, 0, 56, 61
2, 60480, Note_on_c, 0, 68, 61
2, 60480, Control_c, 0, 64, 127
2, 60600, Note_on_c, 0, 59, 53
2, 60600, Note_on_c, 0, 64, 53
2, 60600, Note_on_c, 0, 71, 53
2, 60704, Note_on_c, 0, 71, 0
2, 60704, Note_on_c, 0, 59, 0
2, 60704, Note_on_c, 0, 64, 0
2, 60719, Control_c, 0, 64, 0
2, 60719, Note_on_c, 0, 59, 57
2, 60719, Note_on_c, 0, 64, 57
2, 60719, Note_on_c, 0, 71, 57
2, 60825, Note_on_c, 0, 71, 0
2, 60825, Note_on_c, 0, 59, 0
2, 60825, Note_on_c, 0, 64, 0
2, 60840, Note_on_c, 0, 40, 49
2, 60840, Note_on_c, 0, 47, 49
2, 60840, Control_c, 0, 64, 127
2, 60960, Note_on_c, 0, 59, 55
2, 60960, Note_on_c, 0, 64, 55
2, 60960, Note_on_c, 0, 71, 55
2, 61064, Note_on_c, 0, 71, 0
2, 61064, Note_on_c, 0, 59, 0
2, 61064, Note_on_c, 0, 64, 0
2, 61079, Control_c, 0, 64, 0
2, 61079, Note_on_c, 0, 59, 57
2, 61079, Note_on_c, 0, 64, 57
2, 61079, Note_on_c, 0, 71, 57
2, 61185, Note_on_c, 0, 71, 0
2, 61185, Note_on_c, 0, 59, 0
2, 61185, Note_on_c, 0, 64, 0
2, 61200, Control_c, 0, 64, 127
2, 61320, Note_on_c, 0, 59, 50
2, 61320, Note_on_c, 0, 64, 50
2, 61320, Note_on_c, 0, 71, 50
2, 61424, Note_on_c, 0, 71, 0
2, 61424, Note_on_c, 0, 59, 0
2, 61424, Note_on_c, 0, 64, 0
2, 61439, Note_on_c, 0, 56, 0
2, 61439, Note_on_c, 0, 68, 0
2, 61439, Note_on_c, 0, 56, 66
2, 61439, Note_on_c, 0, 68, 66
2, 61439, Control_c, 0, 64, 0
2, 61439, Note_on_c, 0, 59, 60
2, 61439, Note_on_c, 0, 64, 60
2, 61439, Note_on_c, 0, 71, 60
2, 61545, Note_on_c, 0, 71, 0
2, 61545, Note_on_c, 0, 59, 0
2, 61545, Note_on_c, 0, 64, 0
2, 61560, Note_on_c, 0, 56, 0
2, 61560, Note_on_c, 0, 68, 0
2, 61560, Note_on_c, 0, 57, 65
2, 61560, Note_on_c, 0, 69, 65
2, 61560, Control_c, 0, 64, 127
2, 61680, Note_on_c, 0, 64, 53
2, 61680, Note_on_c, 0, 68, 53
2, 61784, Note_on_c, 0, 68, 0
2, 61784, Note_on_c, 0, 64, 0
2, 61799, Note_on_c, 0, 57, 0
2, 61799, Note_on_c, 0, 69, 0
2, 61799, Note_on_c, 0, 59, 71
2, 61799, Note_on_c, 0, 71, 71
2, 61799, Control_c, 0, 64, 0
2, 61799, Note_on_c, 0, 64, 57
2, 61799, Note_on_c, 0, 68, 57
2, 61905, Note_on_c, 0, 68, 0
2, 61905, Note_on_c, 0, 64, 0
2, 61920, Note_on_c, 0, 59, 0
2, 61920, Note_on_c, 0, 47, 0
2, 61920, Note_on_c, 0, 40, 0
2, 61920, Note_on_c, 0, 71, 0
2, 61920, Note_on_c, 0, 61, 70
2, 61920, Note_on_c, 0, 73, 70
2, 61920, Control_c, 0, 64, 127
2, 62040, Note_on_c, 0, 59, 54
2, 62040, Note_on_c, 0, 65, 54
2, 62040, Note_on_c, 0, 71, 54
2, 62144, Note_on_c, 0, 71, 0
2, 62144, Note_on_c, 0, 59, 0
2, 62144, Note_on_c, 0, 65, 0
2, 62159, Control_c, 0, 64, 0
2, 62159, Note_on_c, 0, 59, 59
2, 62159, Note_on_c, 0, 65, 59
2, 62159, Note_on_c, 0, 71, 59
2, 62265, Note_on_c, 0, 71, 0
2, 62265, Note_on_c, 0, 59, 0
2, 62265, Note_on_c, 0, 65, 0
2, 62280, Note_on_c, 0, 49, 47
2, 62280, Control_c, 0, 64, 127
2, 62400, Note_on_c, 0, 59, 54
2, 62400, Note_on_c, 0, 65, 54
2, 62400, Note_on_c, 0, 71, 54
2, 62504, Note_on_c, 0, 71, 0
2, 62504, Note_on_c, 0, 59, 0
2, 62504, Note_on_c, 0, 65, 0
2, 62519, Control_c, 0, 64, 0
2, 62519, Note_on_c, 0, 59, 54
2, 62519, Note_on_c, 0, 65, 54
2, 62519, Note_on_c, 0, 71, 54
2, 62625, Note_on_c, 0, 71, 0
2, 62625, Note_on_c, 0, 59, 0
2, 62625, Note_on_c, 0, 65, 0
2, 62640, Note_on_c, 0, 49, 0
2, 62640, Note_on_c, 0, 42, 51
2, 62640, Note_on_c, 0, 57, 56
2, 62640, Note_on_c, 0, 66, 56
2, 62640, Note_on_c, 0, 69, 56
2, 62744, Note_on_c, 0, 69, 0
2, 62744, Note_on_c, 0, 57, 0
2, 62744, Note_on_c, 0, 66, 0
2, 62760, Note_on_c, 0, 57, 60
2, 62760, Note_on_c, 0, 66, 60
2, 62760, Note_on_c, 0, 69, 60
2, 62864, Note_on_c, 0, 69, 0
2, 62864, Note_on_c, 0, 57, 0
2, 62864, Note_on_c, 0, 66, 0
2, 62879, Note_on_c, 0, 57, 55
2, 62879, Note_on_c, 0, 66, 55
2, 62879, Note_on_c, 0, 69, 55
2, 62985, Note_on_c, 0, 69, 0
2, 62985, Note_on_c, 0, 57, 0
2, 62985, Note_on_c, 0, 66, 0
2, 63000, Note_on_c, 0, 61, 0
2, 63000, Note_on_c, 0, 73, 0
2, 63000, Note_on_c, 0, 63, 80
2, 63000, Note_on_c, 0, 75, 80
2, 63000, Control_c, 0, 64, 127
2, 63120, Note_on_c, 0, 57, 57
2, 63120, Note_on_c, 0, 61, 57
2, 63120, Note_on_c, 0, 69, 57
2, 63210, Note_on_c, 0, 75, 0
2, 63210, Note_on_c, 0, 63, 0
2, 63224, Note_on_c, 0, 57, 0
2, 63224, Note_on_c, 0, 61, 0
2, 63224, Note_on_c, 0, 69, 0
2, 63239, Note_on_c, 0, 64, 84
2, 63239, Note_on_c, 0, 76, 84
2, 63239, Control_c, 0, 64, 0
2, 63239, Note_on_c, 0, 57, 62
2, 63239, Note_on_c, 0, 61, 62
2, 63239, Note_on_c, 0, 69, 62
2, 63345, Note_on_c, 0, 69, 0
2, 63345, Note_on_c, 0, 64, 0
2, 63345, Note_on_c, 0, 76, 0
2, 63345, Note_on_c, 0, 57, 0
2, 63345, Note_on_c, 0, 61, 0
2, 63360, Note_on_c, 0, 42, 0
2, 63360, Note_on_c, 0, 66, 82
2, 63360, Note_on_c, 0, 78, 82
2, 63360, Control_c, 0, 64, 127
2, 63480, Note_on_c, 0, 60, 52
2, 63480, Note_on_c, 0, 64, 52
2, 63480, Note_on_c, 0, 69, 52
2, 63480, Note_on_c, 0, 72, 52
2, 63584, Note_on_c, 0, 72, 0
2, 63584, Note_on_c, 0, 64, 0
2, 63584, Note_on_c, 0, 60, 0
2, 63584, Note_on_c, 0, 69, 0
2, 63599, Control_c, 0, 64, 0
2, 63599, Note_on_c, 0, 60, 57
2, 63599, Note_on_c, 0, 64, 57
2, 63599, Note_on_c, 0, 69, 57
2, 63599, Note_on_c, 0, 72, 57
2, 63677, Note_on_c, 0, 66, 0
2, 63677, Note_on_c, 0, 78, 0
2, 63705, Note_on_c, 0, 69, 0
2, 63705, Note_on_c, 0, 64, 0
2, 63705, Note_on_c, 0, 72, 0
2, 63705, Note_on_c, 0, 60, 0
2, 63720, Note_on_c, 0, 68, 78
2, 63720, Note_on_c, 0, 80, 78
2, 63720, Control_c, 0, 64, 127
2, 63840, Note_on_c, 0, 60, 61
2, 63840, Note_on_c, 0, 63, 61
2, 63840, Note_on_c, 0, 66, 61
2, 63840, Note_on_c, 0, 72, 61
2, 63944, Note_on_c, 0, 72, 0
2, 63944, Note_on_c, 0, 63, 0
2, 63944, Note_on_c, 0, 60, 0
2, 63944, Note_on_c, 0, 66, 0
2, 63959, Control_c, 0, 64, 0
2, 63959, Note_on_c, 0, 60, 63
2, 63959, Note_on_c, 0, 63, 63
2, 63959, Note_on_c, 0, 66, 63
2, 63959, Note_on_c, 0, 72, 63
2, 64065, Note_on_c, 0, 72, 0
2, 64065, Note_on_c, 0, 63, 0
2, 64065, Note_on_c, 0, 60, 0
2, 64065, Note_on_c, 0, 66, 0
2, 64080, Note_on_c, 0, 59, 54
2, 64080, Note_on_c, 0, 64, 54
2, 64080, Note_on_c, 0, 71, 54
2, 64184, Note_on_c, 0, 71, 0
2, 64184, Note_on_c, 0, 59, 0
2, 64184, Note_on_c, 0, 64, 0
2, 64200, Note_on_c, 0, 59, 62
2, 64200, Note_on_c, 0, 64, 62
2, 64200, Note_on_c, 0, 71, 62
2, 64260, Note_on_c, 0, 40, 49
2, 64260, Note_on_c, 0, 47, 49
2, 64304, Note_on_c, 0, 71, 0
2, 64304, Note_on_c, 0, 64, 0
2, 64304, Note_on_c, 0, 59, 0
2, 64319, Note_on_c, 0, 59, 61
2, 64319, Note_on_c, 0, 64, 61
2, 64319, Note_on_c, 0, 71, 61
2, 64353, Note_on_c, 0, 68, 0
2, 64353, Note_on_c, 0, 80, 0
2, 64425, Note_on_c, 0, 64, 0
2, 64425, Note_on_c, 0, 59, 0
2, 64425, Note_on_c, 0, 71, 0
2, 64440, Note_on_c, 0, 66, 73
2, 64440, Note_on_c, 0, 78, 73
2, 64440, Control_c, 0, 64, 127
2, 64560, Note_on_c, 0, 59, 58
2, 64560, Note_on_c, 0, 68, 58
2, 64560, Note_on_c, 0, 71, 58
2, 64650, Note_on_c, 0, 78, 0
2, 64650, Note_on_c, 0, 66, 0
2, 64664, Note_on_c, 0, 68, 0
2, 64664, Note_on_c, 0, 59, 0
2, 64664, Note_on_c, 0, 71, 0
2, 64679, Note_on_c, 0, 64, 71
2, 64679, Note_on_c, 0, 76, 71
2, 64679, Control_c, 0, 64, 0
2, 64679, Note_on_c, 0, 59, 59
2, 64679, Note_on_c, 0, 68, 59
2, 64679, Note_on_c, 0, 71, 59
2, 64785, Note_on_c, 0, 71, 0
2, 64785, Note_on_c, 0, 59, 0
2, 64785, Note_on_c, 0, 76, 0
2, 64785, Note_on_c, 0, 64, 0
2, 64785, Note_on_c, 0, 68, 0
2, 64800, Note_on_c, 0, 40, 0
2, 64800, Note_on_c, 0, 47, 0
2, 64800, Note_on_c, 0, 64, 79
2, 64800, Note_on_c, 0, 76, 79
2, 64800, Control_c, 0, 64, 127
2, 64920, Note_on_c, 0, 58, 54
2, 64920, Note_on_c, 0, 61, 54
2, 64920, Note_on_c, 0, 68, 54
2, 64920, Note_on_c, 0, 70, 54
2, 65024, Note_on_c, 0, 70, 0
2, 65024, Note_on_c, 0, 61, 0
2, 65024, Note_on_c, 0, 58, 0
2, 65024, Note_on_c, 0, 68, 0
2, 65039, Control_c, 0, 64, 0
2, 65039, Note_on_c, 0, 58, 55
2, 65039, Note_on_c, 0, 61, 55
2, 65039, Note_on_c, 0, 68, 55
2, 65039, Note_on_c, 0, 70, 55
2, 65145, Note_on_c, 0, 70, 0
2, 65145, Note_on_c, 0, 61, 0
2, 65145, Note_on_c, 0, 58, 0
2, 65145, Note_on_c, 0, 68, 0
2, 65160, Control_c, 0, 64, 127
2, 65280, Note_on_c, 0, 58, 51
2, 65280, Note_on_c, 0, 61, 51
2, 65280, Note_on_c, 0, 68, 51
2, 65280, Note_on_c, 0, 70, 51
2, 65384, Note_on_c, 0, 70, 0
2, 65384, Note_on_c, 0, 61, 0
2, 65384, Note_on_c, 0, 58, 0
2, 65384, Note_on_c, 0, 68, 0
2, 65399, Control_c, 0, 64, 0
2, 65399, Note_on_c, 0, 58, 59
2, 65399, Note_on_c, 0, 61, 59
2, 65399, Note_on_c, 0, 68, 59
2, 65399, Note_on_c, 0, 70, 59
2, 65505, Note_on_c, 0, 70, 0
2, 65505, Note_on_c, 0, 61, 0
2, 65505, Note_on_c, 0, 58, 0
2, 65505, Note_on_c, 0, 68, 0
2, 65520, Note_on_c, 0, 37, 48
2, 65520, Note_on_c, 0, 57, 59
2, 65520, Note_on_c, 0, 61, 59
2, 65520, Note_on_c, 0, 64, 59
2, 65520, Note_on_c, 0, 69, 59
2, 65624, Note_on_c, 0, 69, 0
2, 65624, Note_on_c, 0, 57, 0
2, 65624, Note_on_c, 0, 64, 0
2, 65624, Note_on_c, 0, 61, 0
2, 65640, Note_on_c, 0, 57, 55
2, 65640, Note_on_c, 0, 61, 55
2, 65640, Note_on_c, 0, 64, 55
2, 65640, Note_on_c, 0, 69, 55
2, 65744, Note_on_c, 0, 69, 0
2, 65744, Note_on_c, 0, 57, 0
2, 65744, Note_on_c, 0, 64, 0
2, 65744, Note_on_c, 0, 61, 0
2, 65749, Note_on_c, 0, 76, 0
2, 65749, Note_on_c, 0, 64, 0
2, 65759, Note_on_c, 0, 57, 60
2, 65759, Note_on_c, 0, 61, 60
2, 65759, Note_on_c, 0, 64, 60
2, 65759, Note_on_c, 0, 69, 60
2, 65865, Note_on_c, 0, 69, 0
2, 65865, Note_on_c, 0, 61, 0
2, 65865, Note_on_c, 0, 64, 0
2, 65865, Note_on_c, 0, 57, 0
2, 65880, Note_on_c, 0, 63, 71
2, 65880, Note_on_c, 0, 75, 71
2, 65880, Control_c, 0, 64, 127
2, 66000, Note_on_c, 0, 57, 60
2, 66000, Note_on_c, 0, 64, 60
2, 66000, Note_on_c, 0, 69, 60
2, 66090, Note_on_c, 0, 75, 0
2, 66090, Note_on_c, 0, 63, 0
2, 66104, Note_on_c, 0, 57, 0
2, 66104, Note_on_c, 0, 64, 0
2, 66104, Note_on_c, 0, 69, 0
2, 66119, Note_on_c, 0, 61, 70
2, 66119, Note_on_c, 0, 73, 70
2, 66119, Control_c, 0, 64, 0
2, 66119, Note_on_c, 0, 57, 59
2, 66119, Note_on_c, 0, 64, 59
2, 66119, Note_on_c, 0, 69, 59
2, 66225, Note_on_c, 0, 69, 0
2, 66225, Note_on_c, 0, 61, 0
2, 66225, Note_on_c, 0, 73, 0
2, 66225, Note_on_c, 0, 57, 0
2, 66225, Note_on_c, 0, 64, 0
2, 66240, Note_on_c, 0, 37, 0
2, 66240, Note_on_c, 0, 61, 78
2, 66240, Note_on_c, 0, 73, 78
2, 66240, Control_c, 0, 64, 127
2, 66360, Note_on_c, 0, 56, 59
2, 66360, Note_on_c, 0, 64, 59
2, 66360, Note_on_c, 0, 68, 59
2, 66464, Note_on_c, 0, 68, 0
2, 66464, Note_on_c, 0, 56, 0
2, 66464, Note_on_c, 0, 64, 0
2, 66479, Control_c, 0, 64, 0
2, 66479, Note_on_c, 0, 56, 58
2, 66479, Note_on_c, 0, 64, 58
2, 66479, Note_on_c, 0, 68, 58
2, 66585, Note_on_c, 0, 68, 0
2, 66585, Note_on_c, 0, 56, 0
2, 66585, Note_on_c, 0, 64, 0
2, 66600, Control_c, 0, 64, 127
2, 66720, Note_on_c, 0, 56, 57
2, 66720, Note_on_c, 0, 64, 57
2, 66720, Note_on_c, 0, 68, 57
2, 66824, Note_on_c, 0, 68, 0
2, 66824, Note_on_c, 0, 56, 0
2, 66824, Note_on_c, 0, 64, 0
2, 66839, Control_c, 0, 64, 0
2, 66839, Note_on_c, 0, 56, 60
2, 66839, Note_on_c, 0, 64, 60
2, 66839, Note_on_c, 0, 68, 60
2, 66945, Note_on_c, 0, 68, 0
2, 66945, Note_on_c, 0, 56, 0
2, 66945, Note_on_c, 0, 64, 0
2, 66960, Note_on_c, 0, 40, 51
2, 66960, Note_on_c, 0, 55, 56
2, 66960, Note_on_c, 0, 59, 56
2, 66960, Note_on_c, 0, 64, 56
2, 66960, Note_on_c, 0, 67, 56
2, 67064, Note_on_c, 0, 67, 0
2, 67064, Note_on_c, 0, 59, 0
2, 67064, Note_on_c, 0, 55, 0
2, 67064, Note_on_c, 0, 64, 0
2, 67080, Note_on_c, 0, 55, 59
2, 67080, Note_on_c, 0, 59, 59
2, 67080, Note_on_c, 0, 64, 59
2, 67080, Note_on_c, 0, 67, 59
2, 67184, Note_on_c, 0, 67, 0
2, 67184, Note_on_c, 0, 59, 0
2, 67184, Note_on_c, 0, 55, 0
2, 67184, Note_on_c, 0, 64, 0
2, 67189, Note_on_c, 0, 73, 0
2, 67189, Note_on_c, 0, 61, 0
2, 67199, Note_on_c, 0, 55, 58
2, 67199, Note_on_c, 0, 59, 58
2, 67199, Note_on_c, 0, 64, 58
2, 67199, Note_on_c, 0, 67, 58
2, 67305, Note_on_c, 0, 67, 0
2, 67305, Note_on_c, 0, 59, 0
2, 67305, Note_on_c, 0, 64, 0
2, 67305, Note_on_c, 0, 55, 0
2, 67320, Note_on_c, 0, 59, 63
2, 67320, Note_on_c, 0, 71, 63
2, 67320, Control_c, 0, 64, 127
2, 67440, Note_on_c, 0, 55, 54
2, 67440, Note_on_c, 0, 61, 54
2, 67440, Note_on_c, 0, 64, 54
2, 67440, Note_on_c, 0, 67, 54
2, 67544, Note_on_c, 0, 67, 0
2, 67544, Note_on_c, 0, 61, 0
2, 67544, Note_on_c, 0, 55, 0
2, 67544, Note_on_c, 0, 64, 0
2, 67559, Control_c, 0, 64, 0
2, 67559, Note_on_c, 0, 55, 69
2, 67559, Note_on_c, 0, 61, 69
2, 67559, Note_on_c, 0, 64, 69
2, 67559, Note_on_c, 0, 67, 69
2, 67665, Note_on_c, 0, 67, 0
2, 67665, Note_on_c, 0, 61, 0
2, 67665, Note_on_c, 0, 55, 0
2, 67665, Note_on_c, 0, 64, 0
2, 67680, Note_on_c, 0, 59, 0
2, 67680, Note_on_c, 0, 40, 0
2, 67680, Note_on_c, 0, 71, 0
2, 67680, Note_on_c, 0, 59, 68
2, 67680, Note_on_c, 0, 71, 68
2, 67680, Control_c, 0, 64, 127
2, 67800, Note_on_c, 0, 54, 55
2, 67800, Note_on_c, 0, 61, 55
2, 67800, Note_on_c, 0, 64, 55
2, 67800, Note_on_c, 0, 66, 55
2, 67904, Note_on_c, 0, 66, 0
2, 67904, Note_on_c, 0, 61, 0
2, 67904, Note_on_c, 0, 54, 0
2, 67904, Note_on_c, 0, 64, 0
2, 67919, Control_c, 0, 64, 0
2, 67919, Note_on_c, 0, 54, 64
2, 67919, Note_on_c, 0, 61, 64
2, 67919, Note_on_c, 0, 64, 64
2, 67919, Note_on_c, 0, 66, 64
2, 68025, Note_on_c, 0, 66, 0
2, 68025, Note_on_c, 0, 61, 0
2, 68025, Note_on_c, 0, 54, 0
2, 68025, Note_on_c, 0, 64, 0
2, 68040, Note_on_c, 0, 71, 0
2, 68040, Note_on_c, 0, 59, 0
2, 68040, Note_on_c, 0, 58, 60
2, 68040, Note_on_c, 0, 70, 60
2, 68040, Control_c, 0, 64, 127
2, 68160, Note_on_c, 0, 54, 55
2, 68160, Note_on_c, 0, 61, 55
2, 68160, Note_on_c, 0, 64, 55
2, 68160, Note_on_c, 0, 66, 55
2, 68264, Note_on_c, 0, 66, 0
2, 68264, Note_on_c, 0, 61, 0
2, 68264, Note_on_c, 0, 54, 0
2, 68264, Note_on_c, 0, 64, 0
2, 68279, Control_c, 0, 64, 0
2, 68279, Note_on_c, 0, 54, 59
2, 68279, Note_on_c, 0, 61, 59
2, 68279, Note_on_c, 0, 64, 59
2, 68279, Note_on_c, 0, 66, 59
2, 68385, Note_on_c, 0, 66, 0
2, 68385, Note_on_c, 0, 61, 0
2, 68385, Note_on_c, 0, 54, 0
2, 68385, Note_on_c, 0, 64, 0
2, 68400, Note_on_c, 0, 70, 0
2, 68400, Note_on_c, 0, 58, 0
2, 68400, Note_on_c, 0, 57, 64
2, 68400, Note_on_c, 0, 69, 64
2, 68400, Control_c, 0, 64, 127
2, 68520, Note_on_c, 0, 54, 62
2, 68520, Note_on_c, 0, 60, 62
2, 68520, Note_on_c, 0, 64, 62
2, 68520, Note_on_c, 0, 66, 62
2, 68624, Note_on_c, 0, 66, 0
2, 68624, Note_on_c, 0, 60, 0
2, 68624, Note_on_c, 0, 54, 0
2, 68624, Note_on_c, 0, 64, 0
2, 68639, Control_c, 0, 64, 0
2, 68639, Note_on_c, 0, 54, 60
2, 68639, Note_on_c, 0, 60, 60
2, 68639, Note_on_c, 0, 64, 60
2, 68639, Note_on_c, 0, 66, 60
2, 68745, Note_on_c, 0, 66, 0
2, 68745, Note_on_c, 0, 60, 0
2, 68745, Note_on_c, 0, 54, 0
2, 68745, Note_on_c, 0, 64, 0
2, 68760, Note_on_c, 0, 69, 0
2, 68760, Note_on_c, 0, 57, 0
2, 68760, Note_on_c, 0, 56, 62
2, 68760, Note_on_c, 0, 68, 62
2, 68760, Note_on_c, 0, 47, 39
2, 68880, Note_on_c, 0, 59, 65
2, 68880, Note_on_c, 0, 63, 65
2, 68984, Note_on_c, 0, 63, 0
2, 68984, Note_on_c, 0, 59, 0
2, 68999, Note_on_c, 0, 56, 0
2, 68999, Note_on_c, 0, 68, 0
2, 68999, Note_on_c, 0, 55, 60
2, 68999, Note_on_c, 0, 67, 60
2, 68999, Note_on_c, 0, 59, 66
2, 68999, Note_on_c, 0, 63, 66
2, 69105, Note_on_c, 0, 63, 0
2, 69105, Note_on_c, 0, 59, 0
2, 69120, Note_on_c, 0, 67, 0
2, 69120, Note_on_c, 0, 55, 0
2, 69120, Note_on_c, 0, 55, 68
2, 69120, Note_on_c, 0, 67, 68
2, 69120, Note_on_c, 0, 40, 56
2, 69240, Note_on_c, 0, 59, 65
2, 69240, Note_on_c, 0, 63, 65
2, 69344, Note_on_c, 0, 63, 0
2, 69344, Note_on_c, 0, 59, 0
2, 69359, Note_on_c, 0, 59, 62
2, 69359, Note_on_c, 0, 63, 62
2, 69465, Note_on_c, 0, 63, 0
2, 69465, Note_on_c, 0, 59, 0
2, 69480, Note_on_c, 0, 67, 0
2, 69480, Note_on_c, 0, 55, 0
2, 69480, Note_on_c, 0, 56, 69
2, 69480, Note_on_c, 0, 68, 69
2, 69600, Note_on_c, 0, 59, 58
2, 69600, Note_on_c, 0, 64, 58
2, 69704, Note_on_c, 0, 64, 0
2, 69704, Note_on_c, 0, 59, 0
2, 69719, Note_on_c, 0, 59, 61
2, 69719, Note_on_c, 0, 64, 61
2, 69825, Note_on_c, 0, 64, 0
2, 69825, Note_on_c, 0, 59, 0
2, 69960, Note_on_c, 0, 59, 60
2, 69960, Note_on_c, 0, 64, 60
2, 70064, Note_on_c, 0, 64, 0
2, 70064, Note_on_c, 0, 59, 0
2, 70079, Note_on_c, 0, 59, 68
2, 70079, Note_on_c, 0, 64, 68
2, 70185, Note_on_c, 0, 64, 0
2, 70185, Note_on_c, 0, 59, 0
2, 70200, Note_on_c, 0, 68, 0
2, 70200, Note_on_c, 0, 40, 0
2, 70200, Note_on_c, 0, 47, 0
2, 70200, Note_on_c, 0, 56, 0
2, 70200, Note_on_c, 0, 64, 113
2, 70320, Note_on_c, 0, 68, 60
2, 70320, Note_on_c, 0, 71, 60
2, 70424, Note_on_c, 0, 71, 0
2, 70424, Note_on_c, 0, 68, 0
2, 70439, Note_on_c, 0, 68, 69
2, 70439, Note_on_c, 0, 71, 69
2, 70545, Note_on_c, 0, 71, 0
2, 70545, Note_on_c, 0, 68, 0
2, 70560, Note_on_c, 0, 64, 0
2, 70560, Note_on_c, 0, 66, 101
2, 70799, Note_on_c, 0, 63, 50
2, 70799, Note_on_c, 0, 69, 50
2, 70799, Note_on_c, 0, 71, 50
2, 70858, Note_on_c, 0, 71, 0
2, 70858, Note_on_c, 0, 69, 0
2, 70858, Note_on_c, 0, 63, 0
2, 70920, Note_on_c, 0, 63, 56
2, 70920, Note_on_c, 0, 69, 56
2, 70920, Note_on_c, 0, 71, 56
2, 70920, Note_on_c, 0, 52, 50
2, 70920, Note_on_c, 0, 59, 50
2, 70979, Note_on_c, 0, 71, 0
2, 70979, Note_on_c, 0, 69, 0
2, 70979, Note_on_c, 0, 63, 0
2, 71040, Note_on_c, 0, 63, 51
2, 71040, Note_on_c, 0, 69, 51
2, 71040, Note_on_c, 0, 72, 51
2, 71099, Note_on_c, 0, 72, 0
2, 71099, Note_on_c, 0, 63, 0
2, 71099, Note_on_c, 0, 69, 0
2, 71159, Note_on_c, 0, 63, 58
2, 71159, Note_on_c, 0, 69, 58
2, 71159, Note_on_c, 0, 73, 58
2, 71218, Note_on_c, 0, 73, 0
2, 71218, Note_on_c, 0, 63, 0
2, 71218, Note_on_c, 0, 69, 0
2, 71280, Note_on_c, 0, 63, 62
2, 71280, Note_on_c, 0, 69, 62
2, 71280, Note_on_c, 0, 74, 62
2, 71339, Note_on_c, 0, 74, 0
2, 71339, Note_on_c, 0, 63, 0
2, 71339, Note_on_c, 0, 69, 0
2, 71400, Note_on_c, 0, 63, 61
2, 71400, Note_on_c, 0, 69, 61
2, 71400, Note_on_c, 0, 75, 61
2, 71459, Note_on_c, 0, 75, 0
2, 71459, Note_on_c, 0, 63, 0
2, 71459, Note_on_c, 0, 69, 0
2, 71460, Note_on_c, 0, 66, 0
2, 71460, Note_on_c, 0, 66, 62
2, 71519, Note_on_c, 0, 63, 57
2, 71519, Note_on_c, 0, 69, 57
2, 71519, Note_on_c, 0, 76, 57
2, 71578, Note_on_c, 0, 76, 0
2, 71578, Note_on_c, 0, 63, 0
2, 71578, Note_on_c, 0, 69, 0
2, 71640, Note_on_c, 0, 66, 0
2, 71640, Note_on_c, 0, 71, 55
2, 71640, Note_on_c, 0, 75, 55
2, 71640, Note_on_c, 0, 77, 55
2, 71640, Note_on_c, 0, 68, 55
2, 71699, Note_on_c, 0, 77, 0
2, 71699, Note_on_c, 0, 75, 0
2, 71699, Note_on_c, 0, 71, 0
2, 71760, Note_on_c, 0, 71, 59
2, 71760, Note_on_c, 0, 75, 59
2, 71760, Note_on_c, 0, 78, 59
2, 71819, Note_on_c, 0, 78, 0
2, 71819, Note_on_c, 0, 71, 0
2, 71819, Note_on_c, 0, 75, 0
2, 71879, Note_on_c, 0, 68, 0
2, 71879, Note_on_c, 0, 71, 57
2, 71879, Note_on_c, 0, 75, 57
2, 71879, Note_on_c, 0, 79, 57
2, 71879, Note_on_c, 0, 69, 54
2, 71938, Note_on_c, 0, 79, 0
2, 71938, Note_on_c, 0, 75, 0
2, 71938, Note_on_c, 0, 71, 0
2, 72000, Note_on_c, 0, 52, 0
2, 72000, Note_on_c, 0, 69, 0
2, 72000, Note_on_c, 0, 59, 0
2, 72000, Note_on_c, 0, 71, 62
2, 72000, Note_on_c, 0, 76, 62
2, 72000, Note_on_c, 0, 80, 62
2, 72000, Note_on_c, 0, 68, 55
2, 72059, Note_on_c, 0, 80, 0
2, 72059, Note_on_c, 0, 71, 0
2, 72059, Note_on_c, 0, 76, 0
2, 72120, Note_on_c, 0, 71, 53
2, 72120, Note_on_c, 0, 76, 53
2, 72120, Note_on_c, 0, 81, 53
2, 72179, Note_on_c, 0, 81, 0
2, 72179, Note_on_c, 0, 76, 0
2, 72179, Note_on_c, 0, 71, 0
2, 72239, Note_on_c, 0, 71, 59
2, 72239, Note_on_c, 0, 76, 59
2, 72239, Note_on_c, 0, 82, 59
2, 72298, Note_on_c, 0, 82, 0
2, 72298, Note_on_c, 0, 76, 0
2, 72298, Note_on_c, 0, 71, 0
2, 72360, Note_on_c, 0, 68, 0
2, 72360, Note_on_c, 0, 76, 58
2, 72360, Note_on_c, 0, 80, 58
2, 72360, Note_on_c, 0, 83, 58
2, 72360, Note_on_c, 0, 71, 60
2, 72419, Note_on_c, 0, 83, 0
2, 72419, Note_on_c, 0, 76, 0
2, 72419, Note_on_c, 0, 80, 0
2, 72480, Note_on_c, 0, 76, 58
2, 72480, Note_on_c, 0, 80, 58
2, 72480, Note_on_c, 0, 84, 58
2, 72539, Note_on_c, 0, 84, 0
2, 72539, Note_on_c, 0, 80, 0
2, 72539, Note_on_c, 0, 76, 0
2, 72599, Note_on_c, 0, 76, 63
2, 72599, Note_on_c, 0, 80, 63
2, 72599, Note_on_c, 0, 85, 63
2, 72658, Note_on_c, 0, 85, 0
2, 72658, Note_on_c, 0, 80, 0
2, 72658, Note_on_c, 0, 76, 0
2, 72720, Note_on_c, 0, 76, 49
2, 72720, Note_on_c, 0, 80, 49
2, 72720, Note_on_c, 0, 85, 49
2, 72720, Note_on_c, 0, 52, 49
2, 72720, Note_on_c, 0, 59, 49
2, 72779, Note_on_c, 0, 85, 0
2, 72779, Note_on_c, 0, 80, 0
2, 72779, Note_on_c, 0, 76, 0
2, 72840, Note_on_c, 0, 76, 56
2, 72840, Note_on_c, 0, 80, 56
2, 72840, Note_on_c, 0, 84, 56
2, 72899, Note_on_c, 0, 84, 0
2, 72899, Note_on_c, 0, 76, 0
2, 72899, Note_on_c, 0, 80, 0
2, 72959, Note_on_c, 0, 76, 54
2, 72959, Note_on_c, 0, 80, 54
2, 72959, Note_on_c, 0, 83, 54
2, 73018, Note_on_c, 0, 83, 0
2, 73018, Note_on_c, 0, 76, 0
2, 73018, Note_on_c, 0, 80, 0
2, 73080, Note_on_c, 0, 71, 0
2, 73080, Note_on_c, 0, 76, 56
2, 73080, Note_on_c, 0, 80, 56
2, 73080, Note_on_c, 0, 83, 56
2, 73080, Note_on_c, 0, 64, 43
2, 73139, Note_on_c, 0, 83, 0
2, 73139, Note_on_c, 0, 80, 0
2, 73139, Note_on_c, 0, 76, 0
2, 73200, Note_on_c, 0, 76, 50
2, 73200, Note_on_c, 0, 80, 50
2, 73200, Note_on_c, 0, 82, 50
2, 73259, Note_on_c, 0, 82, 0
2, 73259, Note_on_c, 0, 76, 0
2, 73259, Note_on_c, 0, 80, 0
2, 73319, Note_on_c, 0, 76, 52
2, 73319, Note_on_c, 0, 80, 52
2, 73319, Note_on_c, 0, 83, 52
2, 73378, Note_on_c, 0, 83, 0
2, 73378, Note_on_c, 0, 76, 0
2, 73378, Note_on_c, 0, 80, 0
2, 73440, Note_on_c, 0, 64, 0
2, 73440, Note_on_c, 0, 52, 0
2, 73440, Note_on_c, 0, 59, 0
2, 73440, Note_on_c, 0, 66, 60
2, 73679, Note_on_c, 0, 63, 45
2, 73679, Note_on_c, 0, 69, 45
2, 73679, Note_on_c, 0, 71, 45
2, 73738, Note_on_c, 0, 71, 0
2, 73738, Note_on_c, 0, 69, 0
2, 73738, Note_on_c, 0, 63, 0
2, 73800, Note_on_c, 0, 63, 58
2, 73800, Note_on_c, 0, 69, 58
2, 73800, Note_on_c, 0, 71, 58
2, 73800, Note_on_c, 0, 52, 50
2, 73800, Note_on_c, 0, 59, 50
2, 73859, Note_on_c, 0, 71, 0
2, 73859, Note_on_c, 0, 69, 0
2, 73859, Note_on_c, 0, 63, 0
2, 73920, Note_on_c, 0, 63, 55
2, 73920, Note_on_c, 0, 69, 55
2, 73920, Note_on_c, 0, 72, 55
2, 73979, Note_on_c, 0, 72, 0
2, 73979, Note_on_c, 0, 63, 0
2, 73979, Note_on_c, 0, 69, 0
2, 74039, Note_on_c, 0, 63, 58
2, 74039, Note_on_c, 0, 69, 58
2, 74039, Note_on_c, 0, 73, 58
2, 74098, Note_on_c, 0, 73, 0
2, 74098, Note_on_c, 0, 63, 0
2, 74098, Note_on_c, 0, 69, 0
2, 74160, Note_on_c, 0, 63, 51
2, 74160, Note_on_c, 0, 69, 51
2, 74160, Note_on_c, 0, 74, 51
2, 74219, Note_on_c, 0, 74, 0
2, 74219, Note_on_c, 0, 63, 0
2, 74219, Note_on_c, 0, 69, 0
2, 74280, Note_on_c, 0, 63, 57
2, 74280, Note_on_c, 0, 69, 57
2, 74280, Note_on_c, 0, 75, 57
2, 74339, Note_on_c, 0, 75, 0
2, 74339, Note_on_c, 0, 63, 0
2, 74339, Note_on_c, 0, 69, 0
2, 74340, Note_on_c, 0, 66, 0
2, 74340, Note_on_c, 0, 66, 58
2, 74399, Note_on_c, 0, 63, 58
2, 74399, Note_on_c, 0, 69, 58
2, 74399, Note_on_c, 0, 76, 58
2, 74458, Note_on_c, 0, 76, 0
2, 74458, Note_on_c, 0, 63, 0
2, 74458, Note_on_c, 0, 69, 0
2, 74520, Note_on_c, 0, 66, 0
2, 74520, Note_on_c, 0, 71, 62
2, 74520, Note_on_c, 0, 75, 62
2, 74520, Note_on_c, 0, 77, 62
2, 74520, Note_on_c, 0, 68, 58
2, 74579, Note_on_c, 0, 77, 0
2, 74579, Note_on_c, 0, 75, 0
2, 74579, Note_on_c, 0, 71, 0
2, 74640, Note_on_c, 0, 71, 59
2, 74640, Note_on_c, 0, 75, 59
2, 74640, Note_on_c, 0, 78, 59
2, 74699, Note_on_c, 0, 78, 0
2, 74699, Note_on_c, 0, 71, 0
2, 74699, Note_on_c, 0, 75, 0
2, 74759, Note_on_c, 0, 68, 0
2, 74759, Note_on_c, 0, 71, 58
2, 74759, Note_on_c, 0, 75, 58
2, 74759, Note_on_c, 0, 79, 58
2, 74759, Note_on_c, 0, 69, 62
2, 74818, Note_on_c, 0, 79, 0
2, 74818, Note_on_c, 0, 75, 0
2, 74818, Note_on_c, 0, 71, 0
2, 74880, Note_on_c, 0, 52, 0
2, 74880, Note_on_c, 0, 69, 0
2, 74880, Note_on_c, 0, 59, 0
2, 74880, Note_on_c, 0, 71, 60
2, 74880, Note_on_c, 0, 76, 60
2, 74880, Note_on_c, 0, 80, 60
2, 74880, Note_on_c, 0, 68, 69
2, 74939, Note_on_c, 0, 80, 0
2, 74939, Note_on_c, 0, 71, 0
2, 74939, Note_on_c, 0, 76, 0
2, 75000, Note_on_c, 0, 71, 55
2, 75000, Note_on_c, 0, 76, 55
2, 75000, Note_on_c, 0, 81, 55
2, 75059, Note_on_c, 0, 81, 0
2, 75059, Note_on_c, 0, 76, 0
2, 75059, Note_on_c, 0, 71, 0
2, 75119, Note_on_c, 0, 71, 56
2, 75119, Note_on_c, 0, 76, 56
2, 75119, Note_on_c, 0, 82, 56
2, 75178, Note_on_c, 0, 82, 0
2, 75178, Note_on_c, 0, 76, 0
2, 75178, Note_on_c, 0, 71, 0
2, 75197, Note_on_c, 0, 68, 0
2, 75240, Note_on_c, 0, 76, 53
2, 75240, Note_on_c, 0, 80, 53
2, 75240, Note_on_c, 0, 83, 53
2, 75240, Note_on_c, 0, 68, 67
2, 75299, Note_on_c, 0, 83, 0
2, 75299, Note_on_c, 0, 76, 0
2, 75299, Note_on_c, 0, 80, 0
2, 75360, Note_on_c, 0, 76, 51
2, 75360, Note_on_c, 0, 80, 51
2, 75360, Note_on_c, 0, 82, 51
2, 75419, Note_on_c, 0, 82, 0
2, 75419, Note_on_c, 0, 80, 0
2, 75419, Note_on_c, 0, 76, 0
2, 75479, Note_on_c, 0, 76, 61
2, 75479, Note_on_c, 0, 80, 61
2, 75479, Note_on_c, 0, 83, 61
2, 75538, Note_on_c, 0, 83, 0
2, 75538, Note_on_c, 0, 80, 0
2, 75538, Note_on_c, 0, 76, 0
2, 75600, Note_on_c, 0, 75, 54
2, 75600, Note_on_c, 0, 84, 54
2, 75659, Note_on_c, 0, 84, 0
2, 75659, Note_on_c, 0, 75, 0
2, 75714, Note_on_c, 0, 68, 0
2, 75720, Note_on_c, 0, 72, 47
2, 75720, Note_on_c, 0, 80, 47
2, 75779, Note_on_c, 0, 80, 0
2, 75779, Note_on_c, 0, 72, 0
2, 75780, Note_on_c, 0, 68, 67
2, 75839, Note_on_c, 0, 75, 55
2, 75839, Note_on_c, 0, 84, 55
2, 75898, Note_on_c, 0, 84, 0
2, 75898, Note_on_c, 0, 75, 0
2, 75960, Note_on_c, 0, 75, 57
2, 75960, Note_on_c, 0, 84, 57
2, 76019, Note_on_c, 0, 84, 0
2, 76019, Note_on_c, 0, 75, 0
2, 76080, Note_on_c, 0, 72, 51
2, 76080, Note_on_c, 0, 80, 51
2, 76097, Note_on_c, 0, 68, 0
2, 76139, Note_on_c, 0, 80, 0
2, 76139, Note_on_c, 0, 72, 0
2, 76140, Note_on_c, 0, 66, 63
2, 76199, Note_on_c, 0, 75, 58
2, 76199, Note_on_c, 0, 84, 58
2, 76258, Note_on_c, 0, 84, 0
2, 76258, Note_on_c, 0, 75, 0
2, 76298, Note_on_c, 0, 66, 0
2, 76320, Note_on_c, 0, 76, 52
2, 76320, Note_on_c, 0, 83, 52
2, 76320, Note_on_c, 0, 68, 73
2, 76440, Note_on_c, 0, 83, 0
2, 76440, Note_on_c, 0, 76, 0
2, 76440, Note_on_c, 0, 71, 52
2, 76440, Note_on_c, 0, 80, 52
2, 76559, Note_on_c, 0, 80, 0
2, 76559, Note_on_c, 0, 71, 0
2, 76559, Note_on_c, 0, 76, 56
2, 76559, Note_on_c, 0, 83, 56
2, 76680, Note_on_c, 0, 83, 0
2, 76680, Note_on_c, 0, 76, 0
2, 76680, Note_on_c, 0, 76, 56
2, 76680, Note_on_c, 0, 83, 56
2, 76800, Note_on_c, 0, 83, 0
2, 76800, Note_on_c, 0, 76, 0
2, 76800, Note_on_c, 0, 71, 47
2, 76800, Note_on_c, 0, 80, 47
2, 76919, Note_on_c, 0, 80, 0
2, 76919, Note_on_c, 0, 71, 0
2, 76919, Note_on_c, 0, 76, 58
2, 76919, Note_on_c, 0, 83, 58
2, 77040, Note_on_c, 0, 83, 0
2, 77040, Note_on_c, 0, 76, 0
2, 77040, Note_on_c, 0, 76, 54
2, 77040, Note_on_c, 0, 83, 54
2, 77160, Note_on_c, 0, 83, 0
2, 77160, Note_on_c, 0, 76, 0
2, 77160, Note_on_c, 0, 71, 50
2, 77160, Note_on_c, 0, 80, 50
2, 77198, Note_on_c, 0, 68, 0
2, 77220, Note_on_c, 0, 66, 68
2, 77279, Note_on_c, 0, 80, 0
2, 77279, Note_on_c, 0, 71, 0
2, 77279, Note_on_c, 0, 76, 59
2, 77279, Note_on_c, 0, 83, 59
2, 77378, Note_on_c, 0, 66, 0
2, 77400, Note_on_c, 0, 83, 0
2, 77400, Note_on_c, 0, 76, 0
2, 77400, Note_on_c, 0, 72, 50
2, 77400, Note_on_c, 0, 80, 50
2, 77400, Note_on_c, 0, 64, 64
2, 77520, Note_on_c, 0, 80, 0
2, 77520, Note_on_c, 0, 72, 0
2, 77520, Note_on_c, 0, 66, 50
2, 77520, Note_on_c, 0, 78, 50
2, 77610, Note_on_c, 0, 64, 0
2, 77639, Note_on_c, 0, 78, 0
2, 77639, Note_on_c, 0, 66, 0
2, 77639, Note_on_c, 0, 72, 57
2, 77639, Note_on_c, 0, 80, 57
2, 77639, Note_on_c, 0, 63, 65
2, 77745, Note_on_c, 0, 63, 0
2, 77760, Note_on_c, 0, 80, 0
2, 77760, Note_on_c, 0, 72, 0
2, 77760, Note_on_c, 0, 71, 57
2, 77760, Note_on_c, 0, 80, 57
2, 77760, Note_on_c, 0, 64, 61
2, 77880, Note_on_c, 0, 80, 0
2, 77880, Note_on_c, 0, 71, 0
2, 77880, Note_on_c, 0, 68, 53
2, 77880, Note_on_c, 0, 76, 53
2, 77999, Note_on_c, 0, 76, 0
2, 77999, Note_on_c, 0, 68, 0
2, 77999, Note_on_c, 0, 71, 56
2, 77999, Note_on_c, 0, 80, 56
2, 78120, Note_on_c, 0, 80, 0
2, 78120, Note_on_c, 0, 71, 0
2, 78120, Note_on_c, 0, 71, 57
2, 78120, Note_on_c, 0, 80, 57
2, 78240, Note_on_c, 0, 80, 0
2, 78240, Note_on_c, 0, 71, 0
2, 78240, Note_on_c, 0, 68, 48
2, 78240, Note_on_c, 0, 76, 48
2, 78359, Note_on_c, 0, 76, 0
2, 78359, Note_on_c, 0, 68, 0
2, 78359, Note_on_c, 0, 71, 62
2, 78359, Note_on_c, 0, 80, 62
2, 78480, Note_on_c, 0, 80, 0
2, 78480, Note_on_c, 0, 71, 0
2, 78480, Note_on_c, 0, 64, 0
2, 78480, Note_on_c, 0, 68, 46
2, 78480, Note_on_c, 0, 76, 46
2, 78480, Note_on_c, 0, 64, 56
2, 78600, Note_on_c, 0, 76, 0
2, 78600, Note_on_c, 0, 68, 0
2, 78600, Note_on_c, 0, 64, 44
2, 78600, Note_on_c, 0, 71, 44
2, 78660, Note_on_c, 0, 64, 0
2, 78660, Note_on_c, 0, 59, 55
2, 78719, Note_on_c, 0, 71, 0
2, 78719, Note_on_c, 0, 64, 0
2, 78719, Note_on_c, 0, 68, 59
2, 78719, Note_on_c, 0, 76, 59
2, 78840, Note_on_c, 0, 76, 0
2, 78840, Note_on_c, 0, 68, 0
2, 78840, Note_on_c, 0, 59, 0
2, 78840, Note_on_c, 0, 63, 50
2, 78840, Note_on_c, 0, 72, 50
2, 78840, Note_on_c, 0, 56, 54
2, 78960, Note_on_c, 0, 72, 0
2, 78960, Note_on_c, 0, 63, 0
2, 78960, Note_on_c, 0, 60, 51
2, 78960, Note_on_c, 0, 68, 51
2, 79020, Note_on_c, 0, 56, 0
2, 79020, Note_on_c, 0, 54, 55
2, 79079, Note_on_c, 0, 68, 0
2, 79079, Note_on_c, 0, 60, 0
2, 79079, Note_on_c, 0, 63, 56
2, 79079, Note_on_c, 0, 72, 56
2, 79200, Note_on_c, 0, 72, 0
2, 79200, Note_on_c, 0, 63, 0
2, 79200, Note_on_c, 0, 54, 0
2, 79200, Note_on_c, 0, 64, 58
2, 79200, Note_on_c, 0, 71, 58
2, 79200, Note_on_c, 0, 56, 56
2, 79320, Note_on_c, 0, 71, 0
2, 79320, Note_on_c, 0, 64, 0
2, 79320, Note_on_c, 0, 59, 48
2, 79320, Note_on_c, 0, 68, 48
2, 79439, Note_on_c, 0, 68, 0
2, 79439, Note_on_c, 0, 59, 0
2, 79439, Note_on_c, 0, 64, 59
2, 79439, Note_on_c, 0, 71, 59
2, 79560, Note_on_c, 0, 71, 0
2, 79560, Note_on_c, 0, 64, 0
2, 79560, Note_on_c, 0, 64, 56
2, 79560, Note_on_c, 0, 71, 56
2, 79680, Note_on_c, 0, 71, 0
2, 79680, Note_on_c, 0, 64, 0
2, 79680, Note_on_c, 0, 59, 52
2, 79680, Note_on_c, 0, 68, 52
2, 79799, Note_on_c, 0, 68, 0
2, 79799, Note_on_c, 0, 59, 0
2, 79799, Note_on_c, 0, 64, 59
2, 79799, Note_on_c, 0, 71, 59
2, 79920, Note_on_c, 0, 71, 0
2, 79920, Note_on_c, 0, 64, 0
2, 79920, Note_on_c, 0, 64, 54
2, 79920, Note_on_c, 0, 71, 54
2, 80040, Note_on_c, 0, 71, 0
2, 80040, Note_on_c, 0, 64, 0
2, 80040, Note_on_c, 0, 59, 48
2, 80040, Note_on_c, 0, 68, 48
2, 80100, Note_on_c, 0, 56, 0
2, 80100, Note_on_c, 0, 54, 53
2, 80159, Note_on_c, 0, 68, 0
2, 80159, Note_on_c, 0, 59, 0
2, 80159, Note_on_c, 0, 64, 56
2, 80159, Note_on_c, 0, 71, 56
2, 80280, Note_on_c, 0, 71, 0
2, 80280, Note_on_c, 0, 64, 0
2, 80280, Note_on_c, 0, 54, 0
2, 80280, Note_on_c, 0, 60, 53
2, 80280, Note_on_c, 0, 68, 53
2, 80280, Note_on_c, 0, 52, 49
2, 80400, Note_on_c, 0, 68, 0
2, 80400, Note_on_c, 0, 60, 0
2, 80400, Note_on_c, 0, 54, 56
2, 80400, Note_on_c, 0, 66, 56
2, 80519, Note_on_c, 0, 66, 0
2, 80519, Note_on_c, 0, 54, 0
2, 80519, Note_on_c, 0, 52, 0
2, 80519, Note_on_c, 0, 60, 54
2, 80519, Note_on_c, 0, 68, 54
2, 80519, Note_on_c, 0, 51, 55
2, 80640, Note_on_c, 0, 51, 0
2, 80640, Note_on_c, 0, 68, 0
2, 80640, Note_on_c, 0, 60, 0
2, 80640, Note_on_c, 0, 59, 53
2, 80640, Note_on_c, 0, 68, 53
2, 80640, Note_on_c, 0, 52, 56
2, 80760, Note_on_c, 0, 68, 0
2, 80760, Note_on_c, 0, 59, 0
2, 80760, Note_on_c, 0, 56, 52
2, 80760, Note_on_c, 0, 64, 52
2, 80879, Note_on_c, 0, 64, 0
2, 80879, Note_on_c, 0, 56, 0
2, 80879, Note_on_c, 0, 59, 63
2, 80879, Note_on_c, 0, 68, 63
2, 81000, Note_on_c, 0, 68, 0
2, 81000, Note_on_c, 0, 59, 0
2, 81000, Note_on_c, 0, 59, 58
2, 81000, Note_on_c, 0, 68, 58
2, 81120, Note_on_c, 0, 68, 0
2, 81120, Note_on_c, 0, 59, 0
2, 81120, Note_on_c, 0, 56, 49
2, 81120, Note_on_c, 0, 64, 49
2, 81239, Note_on_c, 0, 64, 0
2, 81239, Note_on_c, 0, 56, 0
2, 81239, Note_on_c, 0, 59, 61
2, 81239, Note_on_c, 0, 68, 61
2, 81360, Note_on_c, 0, 68, 0
2, 81360, Note_on_c, 0, 59, 0
2, 81360, Note_on_c, 0, 59, 59
2, 81360, Note_on_c, 0, 68, 59
2, 81480, Note_on_c, 0, 68, 0
2, 81480, Note_on_c, 0, 59, 0
2, 81480, Note_on_c, 0, 56, 45
2, 81480, Note_on_c, 0, 64, 45
2, 81540, Note_on_c, 0, 52, 0
2, 81540, Note_on_c, 0, 47, 50
2, 81599, Note_on_c, 0, 64, 0
2, 81599, Note_on_c, 0, 56, 0
2, 81599, Note_on_c, 0, 59, 57
2, 81599, Note_on_c, 0, 68, 57
2, 81720, Note_on_c, 0, 68, 0
2, 81720, Note_on_c, 0, 59, 0
2, 81720, Note_on_c, 0, 47, 0
2, 81720, Note_on_c, 0, 56, 57
2, 81720, Note_on_c, 0, 60, 57
2, 81720, Note_on_c, 0, 68, 57
2, 81720, Note_on_c, 0, 44, 53
2, 81959, Note_on_c, 0, 44, 0
2, 81959, Note_on_c, 0, 42, 53
2, 82080, Note_on_c, 0, 42, 0
2, 82080, Note_on_c, 0, 68, 0
2, 82080, Note_on_c, 0, 60, 0
2, 82080, Note_on_c, 0, 56, 0
2, 82080, Note_on_c, 0, 59, 54
2, 82080, Note_on_c, 0, 68, 54
2, 82080, Note_on_c, 0, 40, 56
2, 82200, Note_on_c, 0, 68, 0
2, 82200, Note_on_c, 0, 59, 0
2, 82200, Note_on_c, 0, 56, 50
2, 82200, Note_on_c, 0, 64, 50
2, 82319, Note_on_c, 0, 64, 0
2, 82319, Note_on_c, 0, 56, 0
2, 82319, Note_on_c, 0, 59, 60
2, 82319, Note_on_c, 0, 68, 60
2, 82440, Note_on_c, 0, 68, 0
2, 82440, Note_on_c, 0, 59, 0
2, 82440, Note_on_c, 0, 59, 55
2, 82440, Note_on_c, 0, 68, 55
2, 82560, Note_on_c, 0, 68, 0
2, 82560, Note_on_c, 0, 59, 0
2, 82560, Note_on_c, 0, 56, 54
2, 82560, Note_on_c, 0, 64, 54
2, 82679, Note_on_c, 0, 64, 0
2, 82679, Note_on_c, 0, 56, 0
2, 82679, Note_on_c, 0, 59, 59
2, 82679, Note_on_c, 0, 68, 59
2, 82800, Note_on_c, 0, 68, 0
2, 82800, Note_on_c, 0, 59, 0
2, 82800, Note_on_c, 0, 59, 58
2, 82800, Note_on_c, 0, 68, 58
2, 82920, Note_on_c, 0, 68, 0
2, 82920, Note_on_c, 0, 59, 0
2, 82920, Note_on_c, 0, 56, 46
2, 82920, Note_on_c, 0, 64, 46
2, 82980, Note_on_c, 0, 40, 0
2, 82980, Note_on_c, 0, 35, 75
2, 82980, Note_on_c, 0, 47, 75
2, 83039, Note_on_c, 0, 64, 0
2, 83039, Note_on_c, 0, 56, 0
2, 83039, Note_on_c, 0, 59, 58
2, 83039, Note_on_c, 0, 68, 58
2, 83138, Note_on_c, 0, 35, 0
2, 83138, Note_on_c, 0, 47, 0
2, 83160, Note_on_c, 0, 59, 0
2, 83160, Note_on_c, 0, 68, 0
2, 83160, Note_on_c, 0, 56, 58
2, 83160, Note_on_c, 0, 60, 58
2, 83160, Note_on_c, 0, 68, 58
2, 83160, Note_on_c, 0, 32, 67
2, 83160, Note_on_c, 0, 44, 67
2, 83264, Note_on_c, 0, 44, 0
2, 83264, Note_on_c, 0, 32, 0
2, 83280, Note_on_c, 0, 30, 60
2, 83280, Note_on_c, 0, 42, 60
2, 83437, Note_on_c, 0, 42, 0
2, 83437, Note_on_c, 0, 30, 0
2, 83460, Note_on_c, 0, 28, 69
2, 83460, Note_on_c, 0, 40, 69
2, 83512, Note_on_c, 0, 40, 0
2, 83512, Note_on_c, 0, 28, 0
2, 83520, Note_on_c, 0, 56, 0
2, 83520, Note_on_c, 0, 60, 0
2, 83520, Note_on_c, 0, 68, 0
2, 83520, Note_on_c, 0, 28, 86
2, 83520, Note_on_c, 0, 40, 86
2, 83880, Note_on_c, 0, 47, 53
2, 84197, Note_on_c, 0, 47, 0
2, 84240, Note_on_c, 0, 56, 65
2, 84557, Note_on_c, 0, 56, 0
2, 84600, Note_on_c, 0, 64, 69
2, 84917, Note_on_c, 0, 64, 0
2, 84960, Note_on_c, 0, 71, 67
2, 85277, Note_on_c, 0, 71, 0
2, 85320, Note_on_c, 0, 76, 64
2, 85637, Note_on_c, 0, 76, 0
2, 85680, Note_on_c, 0, 83, 68
2, 85997, Note_on_c, 0, 83, 0
2, 86040, Note_on_c, 0, 40, 0
2, 86040, Note_on_c, 0, 28, 0
2, 86040, Note_on_c, 0, 92, 48
2, 86760, Note_on_c, 0, 92, 0
2, 86760, End_track
0, 0, End_of_file
