0, 0, Header, 1, 2, 360
1, 0, Start_track
1, 0, Title_t, "untitled"
1, 0, Time_signature, 2, 1, 48, 8
1, 0, Key_signature, -1, "major"
1, 0, Tempo, 300000
1, 36000, Tempo, 300000
1, 36125, Tempo, 303030
1, 36251, Tempo, 306122
1, 36375, Tempo, 309278
1, 36501, Tempo, 312500
1, 36626, Tempo, 315789
1, 36751, Tempo, 319149
1, 36876, Tempo, 322581
1, 37001, Tempo, 326087
1, 37127, Tempo, 329670
1, 37252, Tempo, 333333
1, 37440, Tempo, 300000
1, 37565, Tempo, 300000
1, 37691, Tempo, 300000
1, 37815, Tempo, 300000
1, 37941, Tempo, 300000
1, 38066, Tempo, 300000
1, 38191, Tempo, 300000
1, 38316, Tempo, 300000
1, 38441, Tempo, 300000
1, 38567, Tempo, 300000
1, 38692, Tempo, 300000
1, 112320, Tempo, 300000
1, 112500, Tempo, 305064
1, 112680, Tempo, 310302
1, 112860, Tempo, 315126
1, 113040, Tempo, 321337
1, 113220, Tempo, 327154
1, 113400, Tempo, 331858
1, 113580, Tempo, 339443
1, 113760, Tempo, 345941
1, 113940, Tempo, 350467
1, 114120, Tempo, 359712
1, 114300, Tempo, 367017
1, 114480, Tempo, 375000
1, 115200, Tempo, 340909
1, 120960, Time_signature, 3, 1, 48, 8
1, 151200, Time_signature, 2, 1, 48, 8
1, 171360, Time_signature, 3, 1, 48, 8
1, 177840, Tempo, 340909
1, 178020, Tempo, 347343
1, 178200, Tempo, 354024
1, 178380, Tempo, 360967
1, 178560, Tempo, 368189
1, 178740, Tempo, 375704
1, 178920, Tempo, 383534
1, 179100, Tempo, 391696
1, 179280, Tempo, 400213
1, 179460, Tempo, 409110
1, 179640, Tempo, 418410
1, 179820, Tempo, 428571
1, 180000, Time_signature, 2, 1, 48, 8
1, 180000, Tempo, 375000
1, 180131, Tempo, 375000
1, 180262, Tempo, 375000
1, 180392, Tempo, 375000
1, 180523, Tempo, 375000
1, 180654, Tempo, 375000
1, 180785, Tempo, 375000
1, 180915, Tempo, 375000
1, 181046, Tempo, 375000
1, 181177, Tempo, 375000
1, 181308, Tempo, 375000
1, 207360, Tempo, 375000
1, 207467, Tempo, 379747
1, 207574, Tempo, 384615
1, 207681, Tempo, 389610
1, 207788, Tempo, 394737
1, 207894, Tempo, 400000
1, 208001, Tempo, 405405
1, 208108, Tempo, 410959
1, 208215, Tempo, 416667
1, 208322, Tempo, 422535
1, 208429, Tempo, 428571
1, 208800, Tempo, 375000
1, 208907, Tempo, 375000
1, 209014, Tempo, 375000
1, 209121, Tempo, 375000
1, 209228, Tempo, 375000
1, 209334, Tempo, 375000
1, 209441, Tempo, 375000
1, 209548, Tempo, 375000
1, 209655, Tempo, 375000
1, 209762, Tempo, 375000
1, 209869, Tempo, 375000
1, 240480, Time_signature, 3, 1, 48, 8
1, 244800, Time_signature, 2, 1, 48, 8
1, 247680, Tempo, 375000
1, 247860, Tempo, 374205
1, 248040, Tempo, 373413
1, 248220, Tempo, 372625
1, 248400, Tempo, 371839
1, 248580, Tempo, 371058
1, 248760, Tempo, 369458
1, 248940, Tempo, 369504
1, 249120, Tempo, 368732
1, 249300, Tempo, 367963
1, 249480, Tempo, 367197
1, 249660, Tempo, 366435
1, 249840, Tempo, 364078
1, 250020, Tempo, 364919
1, 250200, Tempo, 364166
1, 250380, Tempo, 363416
1, 250560, Tempo, 362669
1, 250740, Tempo, 361925
1, 250920, Tempo, 358852
1, 251100, Tempo, 360447
1, 251280, Tempo, 359712
1, 251460, Tempo, 358980
1, 251640, Tempo, 358252
1, 251820, Tempo, 357526
1, 252000, Tempo, 353774
1, 252180, Tempo, 356083
1, 252360, Tempo, 355366
1, 252540, Tempo, 354652
1, 252720, Tempo, 353941
1, 252900, Tempo, 353232
1, 253080, Tempo, 352526
1, 253260, Tempo, 351824
1, 253440, Tempo, 351124
1, 253620, Tempo, 350426
1, 253800, Tempo, 349732
1, 253980, Tempo, 349040
1, 254160, Tempo, 348351
1, 254340, Tempo, 347665
1, 254520, Tempo, 346981
1, 254700, Tempo, 346300
1, 254880, Tempo, 345622
1, 255060, Tempo, 344947
1, 255240, Tempo, 344274
1, 255420, Tempo, 343603
1, 255600, Tempo, 342936
1, 255780, Tempo, 342270
1, 255960, Tempo, 341608
1, 256140, Tempo, 340948
1, 256320, Tempo, 340290
1, 256500, Tempo, 339635
1, 256680, Tempo, 338983
1, 256860, Tempo, 338333
1, 257040, Tempo, 337686
1, 257220, Tempo, 336700
1, 257400, Tempo, 336398
1, 257580, Tempo, 335758
1, 257760, Tempo, 335121
1, 257940, Tempo, 334485
1, 258120, Tempo, 333853
1, 258300, Tempo, 332226
1, 258480, Tempo, 332594
1, 258660, Tempo, 331969
1, 258840, Tempo, 331345
1, 259020, Tempo, 330724
1, 259200, Tempo, 330106
1, 259380, Tempo, 327869
1, 259560, Tempo, 328875
1, 259740, Tempo, 328263
1, 259920, Tempo, 327654
1, 260100, Tempo, 327047
1, 260280, Tempo, 326442
1, 260460, Tempo, 323625
1, 260640, Tempo, 325239
1, 260820, Tempo, 324640
1, 261000, Tempo, 324044
1, 261180, Tempo, 323450
1, 261360, Tempo, 322858
1, 261540, Tempo, 319489
1, 261720, Tempo, 321681
1, 261900, Tempo, 319149
1, 262080, Tempo, 340909
1, 262211, Tempo, 340909
1, 262342, Tempo, 340909
1, 262472, Tempo, 340909
1, 262603, Tempo, 340909
1, 262734, Tempo, 340909
1, 262865, Tempo, 340909
1, 262995, Tempo, 340909
1, 263126, Tempo, 340909
1, 263257, Tempo, 340909
1, 263388, Tempo, 340909
1, 266400, Tempo, 340909
1, 266531, Tempo, 348837
1, 266662, Tempo, 357143
1, 266792, Tempo, 365854
1, 266923, Tempo, 375000
1, 267054, Tempo, 384615
1, 267185, Tempo, 394737
1, 267315, Tempo, 405405
1, 267446, Tempo, 416667
1, 267577, Tempo, 428571
1, 267708, Tempo, 441176
1, 267840, Tempo, 441176
1, 280800, Tempo, 441176
1, 280980, Tempo, 448565
1, 281160, Tempo, 456204
1, 281340, Tempo, 464109
1, 281520, Tempo, 472292
1, 281700, Tempo, 480769
1, 281880, Tempo, 489556
1, 282060, Tempo, 498670
1, 282240, Tempo, 505051
1, 282420, Tempo, 517956
1, 282600, Tempo, 528169
1, 282780, Tempo, 538793
1, 282960, Tempo, 549853
1, 283140, Tempo, 561377
1, 283320, Tempo, 573394
1, 283500, Tempo, 585938
1, 283680, Tempo, 600000
1, 285119, Tempo, 517241
1, 298080, Tempo, 434783
1, 298211, Tempo, 434783
1, 298342, Tempo, 434783
1, 298472, Tempo, 434783
1, 298603, Tempo, 434783
1, 298734, Tempo, 434783
1, 298865, Tempo, 434783
1, 298995, Tempo, 434783
1, 299126, Tempo, 434783
1, 299257, Tempo, 434783
1, 299388, Tempo, 434783
1, 313920, Tempo, 434783
1, 314051, Tempo, 440529
1, 314182, Tempo, 446429
1, 314312, Tempo, 452489
1, 314443, Tempo, 458716
1, 314574, Tempo, 465116
1, 314705, Tempo, 471698
1, 314835, Tempo, 478469
1, 314966, Tempo, 485437
1, 315097, Tempo, 492611
1, 315228, Tempo, 500000
1, 315360, Tempo, 434783
1, 315491, Tempo, 434783
1, 315622, Tempo, 434783
1, 315752, Tempo, 434783
1, 315883, Tempo, 434783
1, 316014, Tempo, 434783
1, 316145, Tempo, 434783
1, 316275, Tempo, 434783
1, 316406, Tempo, 434783
1, 316537, Tempo, 434783
1, 316668, Tempo, 434783
1, 325440, Tempo, 434783
1, 325571, Tempo, 423131
1, 325702, Tempo, 412088
1, 325832, Tempo, 401606
1, 325963, Tempo, 391645
1, 326094, Tempo, 382166
1, 326225, Tempo, 373134
1, 326355, Tempo, 364520
1, 326486, Tempo, 356295
1, 326617, Tempo, 348432
1, 326748, Tempo, 340909
1, 326879, Tempo, 340909
1, 326880, Time_signature, 3, 1, 48, 8
1, 333360, Time_signature, 2, 1, 48, 8
1, 333360, Tempo, 434783
1, 333491, Tempo, 434783
1, 333622, Tempo, 434783
1, 333752, Tempo, 434783
1, 333883, Tempo, 434783
1, 334014, Tempo, 434783
1, 334145, Tempo, 434783
1, 334275, Tempo, 434783
1, 334406, Tempo, 434783
1, 334537, Tempo, 434783
1, 334668, Tempo, 434783
1, 349200, Tempo, 434783
1, 349331, Tempo, 440529
1, 349462, Tempo, 446429
1, 349592, Tempo, 452489
1, 349723, Tempo, 458716
1, 349854, Tempo, 465116
1, 349985, Tempo, 471698
1, 350115, Tempo, 478469
1, 350246, Tempo, 485437
1, 350377, Tempo, 492611
1, 350508, Tempo, 500000
1, 350640, Tempo, 434783
1, 350771, Tempo, 434783
1, 350902, Tempo, 434783
1, 351032, Tempo, 434783
1, 351163, Tempo, 434783
1, 351294, Tempo, 434783
1, 351425, Tempo, 434783
1, 351555, Tempo, 434783
1, 351686, Tempo, 434783
1, 351817, Tempo, 434783
1, 351948, Tempo, 434783
1, 360720, Tempo, 434783
1, 360851, Tempo, 423131
1, 360982, Tempo, 412088
1, 361112, Tempo, 401606
1, 361243, Tempo, 391645
1, 361374, Tempo, 382166
1, 361505, Tempo, 373134
1, 361635, Tempo, 364520
1, 361766, Tempo, 356295
1, 361897, Tempo, 348432
1, 362028, Tempo, 340909
1, 362160, Time_signature, 3, 1, 48, 8
1, 362160, Tempo, 340909
1, 362232, Tempo, 340909
1, 362304, Tempo, 340909
1, 362375, Tempo, 340909
1, 362447, Tempo, 340909
1, 362519, Tempo, 340909
1, 362591, Tempo, 340909
1, 362662, Tempo, 340909
1, 362734, Tempo, 340909
1, 362805, Tempo, 340909
1, 362877, Tempo, 340909
1, 364320, Time_signature, 2, 1, 48, 8
1, 367200, Time_signature, 3, 1, 48, 8
1, 371520, Time_signature, 2, 1, 48, 8
1, 374400, Time_signature, 3, 1, 48, 8
1, 378720, Time_signature, 2, 1, 48, 8
1, 387360, Tempo, 340909
1, 387540, Tempo, 340059
1, 387720, Tempo, 339213
1, 387900, Tempo, 338371
1, 388080, Tempo, 337534
1, 388260, Tempo, 336700
1, 388440, Tempo, 335871
1, 388620, Tempo, 335046
1, 388800, Tempo, 334225
1, 388980, Tempo, 333407
1, 389160, Tempo, 332594
1, 389340, Tempo, 331785
1, 389520, Tempo, 330980
1, 389700, Tempo, 330178
1, 389880, Tempo, 326797
1, 390060, Tempo, 328587
1, 390240, Tempo, 327797
1, 390420, Tempo, 327011
1, 390600, Tempo, 326229
1, 390780, Tempo, 325450
1, 390960, Tempo, 324675
1, 391140, Tempo, 323904
1, 391320, Tempo, 323137
1, 391500, Tempo, 320513
1, 391680, Tempo, 321612
1, 391860, Tempo, 320856
1, 392040, Tempo, 320102
1, 392220, Tempo, 319353
1, 392400, Tempo, 318607
1, 392580, Tempo, 317864
1, 392760, Tempo, 317125
1, 392940, Tempo, 315789
1, 393120, Tempo, 300000
1, 393251, Tempo, 300000
1, 393382, Tempo, 300000
1, 393512, Tempo, 300000
1, 393643, Tempo, 300000
1, 393774, Tempo, 300000
1, 393905, Tempo, 300000
1, 394035, Tempo, 300000
1, 394166, Tempo, 300000
1, 394297, Tempo, 300000
1, 394428, Tempo, 300000
1, 398880, Tempo, 300000
1, 399060, Tempo, 300963
1, 399240, Tempo, 301932
1, 399420, Tempo, 301811
1, 399600, Tempo, 303890
1, 399780, Tempo, 304878
1, 399960, Tempo, 303644
1, 400140, Tempo, 306874
1, 400320, Tempo, 307882
1, 400500, Tempo, 308896
1, 400680, Tempo, 309917
1, 400860, Tempo, 310945
1, 401040, Tempo, 311980
1, 401220, Tempo, 313022
1, 401400, Tempo, 314070
1, 401580, Tempo, 315126
1, 401760, Tempo, 316189
1, 401940, Tempo, 317259
1, 402120, Tempo, 318336
1, 402300, Tempo, 319421
1, 402480, Tempo, 320513
1, 402660, Tempo, 321612
1, 402840, Tempo, 322719
1, 403020, Tempo, 323834
1, 403200, Tempo, 324957
1, 403380, Tempo, 326087
1, 403560, Tempo, 327225
1, 403740, Tempo, 328371
1, 403920, Tempo, 328228
1, 404100, Tempo, 330688
1, 404280, Tempo, 331858
1, 404460, Tempo, 333333
1, 404640, Tempo, 300000
1, 404765, Tempo, 300000
1, 404891, Tempo, 300000
1, 405015, Tempo, 300000
1, 405141, Tempo, 300000
1, 405266, Tempo, 300000
1, 405391, Tempo, 300000
1, 405516, Tempo, 300000
1, 405641, Tempo, 300000
1, 405767, Tempo, 300000
1, 405892, Tempo, 300000
1, 437760, Tempo, 300000
1, 437940, Tempo, 301963
1, 438120, Tempo, 303951
1, 438300, Tempo, 304569
1, 438480, Tempo, 308008
1, 438660, Tempo, 310078
1, 438840, Tempo, 312175
1, 439020, Tempo, 314301
1, 439200, Tempo, 316456
1, 439380, Tempo, 318640
1, 439560, Tempo, 320856
1, 439740, Tempo, 323102
1, 439920, Tempo, 325380
1, 440100, Tempo, 327690
1, 440280, Tempo, 330033
1, 440460, Tempo, 332410
1, 440640, Tempo, 334821
1, 440820, Tempo, 337268
1, 441000, Tempo, 339751
1, 441180, Tempo, 342270
1, 441360, Tempo, 344828
1, 441540, Tempo, 347423
1, 441720, Tempo, 350058
1, 441900, Tempo, 352941
1, 442080, Tempo, 300000
1, 442211, Tempo, 300000
1, 442342, Tempo, 300000
1, 442472, Tempo, 300000
1, 442603, Tempo, 300000
1, 442734, Tempo, 300000
1, 442865, Tempo, 300000
1, 442995, Tempo, 300000
1, 443126, Tempo, 300000
1, 443257, Tempo, 300000
1, 443388, Tempo, 300000
1, 468000, Tempo, 300000
1, 468180, Tempo, 306560
1, 468360, Tempo, 313414
1, 468540, Tempo, 320581
1, 468720, Tempo, 328084
1, 468900, Tempo, 335946
1, 469080, Tempo, 344195
1, 469260, Tempo, 352113
1, 469440, Tempo, 361969
1, 469620, Tempo, 371563
1, 469800, Tempo, 381679
1, 469980, Tempo, 392362
1, 470160, Tempo, 403660
1, 470340, Tempo, 415628
1, 470520, Tempo, 428571
1, 470880, Time_signature, 3, 1, 48, 8
1, 470880, Tempo, 340909
1, 471060, Tempo, 340909
1, 471240, Tempo, 340909
1, 471420, Tempo, 340909
1, 471600, Tempo, 340909
1, 471780, Tempo, 340909
1, 471960, Tempo, 340909
1, 472140, Tempo, 340909
1, 472320, Tempo, 340909
1, 472500, Tempo, 340909
1, 472680, Tempo, 340909
1, 472860, Tempo, 340909
1, 492480, Time_signature, 2, 1, 48, 8
1, 512640, Time_signature, 3, 1, 48, 8
1, 519120, Tempo, 340909
1, 519264, Tempo, 344037
1, 519407, Tempo, 347222
1, 519551, Tempo, 350467
1, 519694, Tempo, 353774
1, 519837, Tempo, 357143
1, 519981, Tempo, 360577
1, 520124, Tempo, 364078
1, 520268, Tempo, 367647
1, 520411, Tempo, 371287
1, 520554, Tempo, 375000
1, 520920, Tempo, 340909
1, 521087, Tempo, 340909
1, 521255, Tempo, 340909
1, 521280, Time_signature, 2, 1, 48, 8
1, 521422, Tempo, 340909
1, 521589, Tempo, 340909
1, 521757, Tempo, 340909
1, 521924, Tempo, 340909
1, 522092, Tempo, 340909
1, 522259, Tempo, 340909
1, 522426, Tempo, 340909
1, 522594, Tempo, 340909
1, 548640, Tempo, 340909
1, 548747, Tempo, 344037
1, 548854, Tempo, 347222
1, 548961, Tempo, 350467
1, 549068, Tempo, 353774
1, 549174, Tempo, 357143
1, 549281, Tempo, 360577
1, 549388, Tempo, 364078
1, 549495, Tempo, 367647
1, 549602, Tempo, 371287
1, 549709, Tempo, 375000
1, 581760, Time_signature, 3, 1, 48, 8
1, 586080, Time_signature, 2, 1, 48, 8
1, 590400, Tempo, 375000
1, 590580, Tempo, 374111
1, 590760, Tempo, 373227
1, 590940, Tempo, 372347
1, 591120, Tempo, 371471
1, 591300, Tempo, 370599
1, 591480, Tempo, 369731
1, 591660, Tempo, 368868
1, 591840, Tempo, 368008
1, 592020, Tempo, 367152
1, 592200, Tempo, 366300
1, 592380, Tempo, 361882
1, 592560, Tempo, 364609
1, 592740, Tempo, 363769
1, 592920, Tempo, 362932
1, 593100, Tempo, 362100
1, 593280, Tempo, 359712
1, 593460, Tempo, 360447
1, 593640, Tempo, 359626
1, 593820, Tempo, 358809
1, 594000, Tempo, 357995
1, 594180, Tempo, 357185
1, 594360, Tempo, 356379
1, 594540, Tempo, 355577
1, 594720, Tempo, 354778
1, 594900, Tempo, 353982
1, 595080, Tempo, 353190
1, 595260, Tempo, 352402
1, 595440, Tempo, 351617
1, 595620, Tempo, 350836
1, 595800, Tempo, 350058
1, 595980, Tempo, 349284
1, 596160, Tempo, 345622
1, 596340, Tempo, 347745
1, 596520, Tempo, 346981
1, 596700, Tempo, 346220
1, 596880, Tempo, 345463
1, 597060, Tempo, 343643
1, 597240, Tempo, 343958
1, 597420, Tempo, 343210
1, 597600, Tempo, 342466
1, 597780, Tempo, 341725
1, 597960, Tempo, 340987
1, 598140, Tempo, 340252
1, 598320, Tempo, 339520
1, 598500, Tempo, 338792
1, 598680, Tempo, 338066
1, 598860, Tempo, 337344
1, 599040, Tempo, 336625
1, 599220, Tempo, 335909
1, 599400, Tempo, 335196
1, 599580, Tempo, 334485
1, 599760, Tempo, 333778
1, 599940, Tempo, 330761
1, 600120, Tempo, 332373
1, 600300, Tempo, 331675
1, 600480, Tempo, 330980
1, 600660, Tempo, 330287
1, 600840, Tempo, 328947
1, 601020, Tempo, 328911
1, 601200, Tempo, 328228
1, 601380, Tempo, 327547
1, 601560, Tempo, 326869
1, 601740, Tempo, 326193
1, 601920, Tempo, 325521
1, 602100, Tempo, 324851
1, 602280, Tempo, 324184
1, 602460, Tempo, 323520
1, 602640, Tempo, 322858
1, 602820, Tempo, 322200
1, 603000, Tempo, 321543
1, 603180, Tempo, 319149
1, 603360, Tempo, 340909
1, 603491, Tempo, 340909
1, 603622, Tempo, 340909
1, 603752, Tempo, 340909
1, 603883, Tempo, 340909
1, 604014, Tempo, 340909
1, 604145, Tempo, 340909
1, 604275, Tempo, 340909
1, 604406, Tempo, 340909
1, 604537, Tempo, 340909
1, 604668, Tempo, 340909
1, 607680, Tempo, 340909
1, 607811, Tempo, 348837
1, 607942, Tempo, 357143
1, 608072, Tempo, 365854
1, 608203, Tempo, 375000
1, 608334, Tempo, 384615
1, 608465, Tempo, 394737
1, 608595, Tempo, 405405
1, 608726, Tempo, 416667
1, 608857, Tempo, 428571
1, 608988, Tempo, 441176
1, 617760, Tempo, 441176
1, 617904, Tempo, 453172
1, 618047, Tempo, 465839
1, 618191, Tempo, 479233
1, 618334, Tempo, 493421
1, 618477, Tempo, 508475
1, 618621, Tempo, 524476
1, 618764, Tempo, 541516
1, 618908, Tempo, 559701
1, 619051, Tempo, 579151
1, 619194, Tempo, 600000
1, 620640, Tempo, 517241
1, 620712, Tempo, 517241
1, 620784, Tempo, 517241
1, 620855, Tempo, 517241
1, 620927, Tempo, 517241
1, 620999, Tempo, 517241
1, 621071, Tempo, 517241
1, 621142, Tempo, 517241
1, 621214, Tempo, 517241
1, 621285, Tempo, 517241
1, 621357, Tempo, 517241
1, 633600, Tempo, 434783
1, 633731, Tempo, 434783
1, 633862, Tempo, 434783
1, 633992, Tempo, 434783
1, 634123, Tempo, 434783
1, 634254, Tempo, 434783
1, 634385, Tempo, 434783
1, 634515, Tempo, 434783
1, 634646, Tempo, 434783
1, 634777, Tempo, 434783
1, 634908, Tempo, 434783
1, 669600, Tempo, 434783
1, 669707, Tempo, 440529
1, 669814, Tempo, 446429
1, 669921, Tempo, 452489
1, 670028, Tempo, 458716
1, 670134, Tempo, 465116
1, 670241, Tempo, 471698
1, 670348, Tempo, 478469
1, 670455, Tempo, 485437
1, 670562, Tempo, 492611
1, 670669, Tempo, 500000
1, 671040, Tempo, 384615
1, 671220, Tempo, 384123
1, 671400, Tempo, 383632
1, 671580, Tempo, 383142
1, 671760, Tempo, 382653
1, 671940, Tempo, 382166
1, 672120, Tempo, 381679
1, 672300, Tempo, 381194
1, 672480, Tempo, 380711
1, 672660, Tempo, 380228
1, 672840, Tempo, 379747
1, 673020, Tempo, 379267
1, 673200, Tempo, 378788
1, 673380, Tempo, 378310
1, 673560, Tempo, 377834
1, 673740, Tempo, 377358
1, 673920, Tempo, 376884
1, 674100, Tempo, 376412
1, 674280, Tempo, 375940
1, 674460, Tempo, 375469
1, 674640, Tempo, 375000
1, 674820, Tempo, 374532
1, 675000, Tempo, 374065
1, 675180, Tempo, 373599
1, 675360, Tempo, 373134
1, 675540, Tempo, 372671
1, 675720, Tempo, 372208
1, 675900, Tempo, 371747
1, 676080, Tempo, 371287
1, 676260, Tempo, 370828
1, 676440, Tempo, 370370
1, 676620, Tempo, 369914
1, 676800, Tempo, 369458
1, 676980, Tempo, 369004
1, 677160, Tempo, 368550
1, 677340, Tempo, 368098
1, 677520, Tempo, 367647
1, 677700, Tempo, 367197
1, 677880, Tempo, 366748
1, 678060, Tempo, 366300
1, 678240, Tempo, 365854
1, 678420, Tempo, 365408
1, 678600, Tempo, 364964
1, 678780, Tempo, 364520
1, 678960, Tempo, 364078
1, 679140, Tempo, 363636
1, 679320, Tempo, 363196
1, 679500, Tempo, 362757
1, 679680, Tempo, 362319
1, 679860, Tempo, 361882
1, 680040, Tempo, 361446
1, 680220, Tempo, 361011
1, 680400, Tempo, 360577
1, 680580, Tempo, 360144
1, 680760, Tempo, 359712
1, 680940, Tempo, 359281
1, 681120, Tempo, 358852
1, 681300, Tempo, 358423
1, 681480, Tempo, 357995
1, 681660, Tempo, 357569
1, 681840, Tempo, 357143
1, 682020, Tempo, 356718
1, 682200, Tempo, 356295
1, 682380, Tempo, 355872
1, 682560, Tempo, 355450
1, 682740, Tempo, 355030
1, 682920, Tempo, 354610
1, 683100, Tempo, 354191
1, 683280, Tempo, 353774
1, 683460, Tempo, 353357
1, 683640, Tempo, 352941
1, 683820, Tempo, 352526
1, 684000, Tempo, 352113
1, 684180, Tempo, 351700
1, 684360, Tempo, 351288
1, 684540, Tempo, 350877
1, 684720, Tempo, 350467
1, 684900, Tempo, 350058
1, 685080, Tempo, 349650
1, 685260, Tempo, 349243
1, 685440, Tempo, 348837
1, 685620, Tempo, 348432
1, 685800, Tempo, 348028
1, 685980, Tempo, 347625
1, 686160, Tempo, 347222
1, 686340, Tempo, 346821
1, 686520, Tempo, 346420
1, 686700, Tempo, 346021
1, 686880, Tempo, 345622
1, 687060, Tempo, 345224
1, 687240, Tempo, 344828
1, 687420, Tempo, 344432
1, 687600, Tempo, 344037
1, 687780, Tempo, 343643
1, 687960, Tempo, 343249
1, 688140, Tempo, 340909
1, 702720, Time_signature, 3, 1, 48, 8
1, 707040, Time_signature, 2, 1, 48, 8
1, 741600, Tempo, 500000
1, 741672, Tempo, 500000
1, 741744, Tempo, 500000
1, 741815, Tempo, 500000
1, 741887, Tempo, 500000
1, 741959, Tempo, 500000
1, 742031, Tempo, 500000
1, 742102, Tempo, 500000
1, 742174, Tempo, 500000
1, 742245, Tempo, 500000
1, 742317, Tempo, 500000
1, 750240, Tempo, 340909
1, 750371, Tempo, 340909
1, 750502, Tempo, 340909
1, 750632, Tempo, 340909
1, 750763, Tempo, 340909
1, 750894, Tempo, 340909
1, 751025, Tempo, 340909
1, 751155, Tempo, 340909
1, 751286, Tempo, 340909
1, 751417, Tempo, 340909
1, 751548, Tempo, 340909
1, 760205, Tempo, 3750000
1, 760250, Tempo, 340909
1, 760250, End_track
2, 0, Start_track
2, 0, Title_t, "Piano"
2, 0, Control_c, 0, 0, 0
2, 0, Control_c, 0, 32, 0
2, 0, Program_c, 0, 0
2, 0, Control_c, 0, 7, 100
2, 0, Control_c, 0, 10, 63
2, 0, Control_c, 0, 91, 58
2, 0, Control_c, 0, 91, 58
2, 0, Control_c, 0, 10, 59
2, 0, Note_on_c, 0, 88, 94
2, 0, Note_on_c, 0, 64, 64
2, 44, Note_on_c, 0, 64, 0
2, 44, Note_on_c, 0, 88, 0
2, 44, Note_on_c, 0, 89, 109
2, 44, Note_on_c, 0, 65, 73
2, 87, Note_on_c, 0, 65, 0
2, 87, Note_on_c, 0, 89, 0
2, 87, Note_on_c, 0, 91, 111
2, 87, Note_on_c, 0, 67, 75
2, 129, Note_on_c, 0, 67, 0
2, 129, Note_on_c, 0, 91, 0
2, 129, Note_on_c, 0, 81, 112
2, 129, Note_on_c, 0, 93, 112
2, 129, Note_on_c, 0, 57, 75
2, 129, Note_on_c, 0, 69, 77
2, 650, Note_on_c, 0, 69, 0
2, 650, Note_on_c, 0, 81, 0
2, 650, Note_on_c, 0, 93, 0
2, 650, Note_on_c, 0, 57, 0
2, 720, Note_on_c, 0, 77, 96
2, 720, Note_on_c, 0, 89, 93
2, 720, Note_on_c, 0, 53, 61
2, 720, Note_on_c, 0, 65, 64
2, 1370, Note_on_c, 0, 65, 0
2, 1370, Note_on_c, 0, 77, 0
2, 1370, Note_on_c, 0, 89, 0
2, 1370, Note_on_c, 0, 53, 0
2, 1440, Note_on_c, 0, 69, 83
2, 1440, Note_on_c, 0, 81, 84
2, 1440, Note_on_c, 0, 45, 57
2, 1440, Note_on_c, 0, 57, 58
2, 1765, Note_on_c, 0, 57, 0
2, 1765, Note_on_c, 0, 69, 0
2, 1765, Note_on_c, 0, 81, 0
2, 1765, Note_on_c, 0, 45, 0
2, 1800, Note_on_c, 0, 64, 86
2, 1800, Note_on_c, 0, 76, 85
2, 1800, Note_on_c, 0, 40, 57
2, 1800, Note_on_c, 0, 52, 59
2, 2450, Note_on_c, 0, 52, 0
2, 2450, Note_on_c, 0, 64, 0
2, 2450, Note_on_c, 0, 76, 0
2, 2450, Note_on_c, 0, 40, 0
2, 2520, Note_on_c, 0, 57, 81
2, 2520, Note_on_c, 0, 69, 83
2, 2520, Note_on_c, 0, 33, 54
2, 2520, Note_on_c, 0, 45, 54
2, 2845, Note_on_c, 0, 45, 0
2, 2845, Note_on_c, 0, 57, 0
2, 2845, Note_on_c, 0, 69, 0
2, 2845, Note_on_c, 0, 33, 0
2, 2880, Note_on_c, 0, 50, 96
2, 2880, Note_on_c, 0, 62, 96
2, 2880, Control_c, 0, 64, 127
2, 2880, Note_on_c, 0, 26, 56
2, 2880, Note_on_c, 0, 38, 56
2, 3240, Note_on_c, 0, 57, 97
2, 3240, Note_on_c, 0, 65, 99
2, 3240, Note_on_c, 0, 60, 107
2, 3403, Note_on_c, 0, 65, 0
2, 3403, Note_on_c, 0, 57, 0
2, 3420, Note_on_c, 0, 53, 73
2, 3530, Note_on_c, 0, 38, 0
2, 3530, Note_on_c, 0, 50, 0
2, 3530, Note_on_c, 0, 26, 0
2, 3530, Note_on_c, 0, 62, 0
2, 3565, Note_on_c, 0, 60, 0
2, 3583, Note_on_c, 0, 53, 0
2, 3600, Note_on_c, 0, 33, 94
2, 3600, Note_on_c, 0, 38, 93
2, 3708, Note_on_c, 0, 38, 0
2, 3708, Note_on_c, 0, 33, 0
2, 3720, Note_on_c, 0, 45, 83
2, 3780, Note_on_c, 0, 53, 93
2, 3828, Note_on_c, 0, 45, 0
2, 3839, Note_on_c, 0, 38, 60
2, 3943, Note_on_c, 0, 53, 0
2, 3949, Note_on_c, 0, 38, 0
2, 3960, Note_on_c, 0, 57, 121
2, 3960, Note_on_c, 0, 65, 121
2, 3960, Note_on_c, 0, 62, 109
2, 3960, Note_on_c, 0, 33, 57
2, 3960, Control_c, 0, 64, 0
2, 4123, Note_on_c, 0, 65, 0
2, 4123, Note_on_c, 0, 57, 0
2, 4140, Note_on_c, 0, 53, 80
2, 4285, Note_on_c, 0, 62, 0
2, 4285, Note_on_c, 0, 33, 0
2, 4303, Note_on_c, 0, 53, 0
2, 4320, Control_c, 0, 64, 127
2, 4320, Note_on_c, 0, 45, 122
2, 4320, Note_on_c, 0, 50, 122
2, 4428, Note_on_c, 0, 50, 0
2, 4428, Note_on_c, 0, 45, 0
2, 4440, Note_on_c, 0, 57, 89
2, 4548, Note_on_c, 0, 57, 0
2, 4559, Note_on_c, 0, 50, 61
2, 4669, Note_on_c, 0, 50, 0
2, 4680, Note_on_c, 0, 62, 98
2, 4680, Note_on_c, 0, 69, 96
2, 4680, Note_on_c, 0, 64, 108
2, 4680, Note_on_c, 0, 45, 59
2, 4843, Note_on_c, 0, 69, 0
2, 4843, Note_on_c, 0, 62, 0
2, 4860, Note_on_c, 0, 57, 74
2, 5005, Note_on_c, 0, 64, 0
2, 5005, Note_on_c, 0, 45, 0
2, 5023, Note_on_c, 0, 57, 0
2, 5040, Note_on_c, 0, 38, 96
2, 5040, Note_on_c, 0, 45, 96
2, 5148, Note_on_c, 0, 45, 0
2, 5148, Note_on_c, 0, 38, 0
2, 5160, Note_on_c, 0, 50, 79
2, 5220, Note_on_c, 0, 57, 94
2, 5268, Note_on_c, 0, 50, 0
2, 5279, Note_on_c, 0, 45, 63
2, 5383, Note_on_c, 0, 57, 0
2, 5389, Note_on_c, 0, 45, 0
2, 5400, Note_on_c, 0, 62, 122
2, 5400, Note_on_c, 0, 69, 121
2, 5400, Note_on_c, 0, 65, 107
2, 5400, Note_on_c, 0, 38, 55
2, 5400, Control_c, 0, 64, 0
2, 5563, Note_on_c, 0, 69, 0
2, 5563, Note_on_c, 0, 62, 0
2, 5580, Note_on_c, 0, 57, 78
2, 5725, Note_on_c, 0, 65, 0
2, 5725, Note_on_c, 0, 38, 0
2, 5743, Note_on_c, 0, 57, 0
2, 5760, Control_c, 0, 64, 127
2, 5760, Note_on_c, 0, 38, 114
2, 5760, Note_on_c, 0, 45, 115
2, 5868, Note_on_c, 0, 45, 0
2, 5868, Note_on_c, 0, 38, 0
2, 5880, Note_on_c, 0, 50, 83
2, 5940, Note_on_c, 0, 53, 94
2, 5988, Note_on_c, 0, 50, 0
2, 5999, Note_on_c, 0, 45, 62
2, 6103, Note_on_c, 0, 53, 0
2, 6109, Note_on_c, 0, 45, 0
2, 6120, Note_on_c, 0, 57, 122
2, 6120, Note_on_c, 0, 65, 120
2, 6120, Note_on_c, 0, 60, 109
2, 6120, Note_on_c, 0, 38, 56
2, 6283, Note_on_c, 0, 65, 0
2, 6283, Note_on_c, 0, 57, 0
2, 6300, Note_on_c, 0, 53, 79
2, 6445, Note_on_c, 0, 60, 0
2, 6445, Note_on_c, 0, 38, 0
2, 6463, Note_on_c, 0, 53, 0
2, 6480, Note_on_c, 0, 33, 93
2, 6480, Note_on_c, 0, 38, 96
2, 6588, Note_on_c, 0, 38, 0
2, 6588, Note_on_c, 0, 33, 0
2, 6600, Note_on_c, 0, 45, 82
2, 6660, Note_on_c, 0, 53, 95
2, 6708, Note_on_c, 0, 45, 0
2, 6719, Note_on_c, 0, 38, 58
2, 6823, Note_on_c, 0, 53, 0
2, 6829, Note_on_c, 0, 38, 0
2, 6840, Note_on_c, 0, 57, 122
2, 6840, Note_on_c, 0, 65, 122
2, 6840, Note_on_c, 0, 62, 109
2, 6840, Note_on_c, 0, 33, 58
2, 6840, Control_c, 0, 64, 0
2, 7003, Note_on_c, 0, 65, 0
2, 7003, Note_on_c, 0, 57, 0
2, 7020, Note_on_c, 0, 53, 78
2, 7165, Note_on_c, 0, 62, 0
2, 7165, Note_on_c, 0, 33, 0
2, 7183, Note_on_c, 0, 53, 0
2, 7200, Control_c, 0, 64, 127
2, 7200, Note_on_c, 0, 45, 122
2, 7200, Note_on_c, 0, 50, 122
2, 7308, Note_on_c, 0, 50, 0
2, 7308, Note_on_c, 0, 45, 0
2, 7320, Note_on_c, 0, 57, 89
2, 7428, Note_on_c, 0, 57, 0
2, 7439, Note_on_c, 0, 50, 61
2, 7549, Note_on_c, 0, 50, 0
2, 7560, Note_on_c, 0, 62, 95
2, 7560, Note_on_c, 0, 69, 95
2, 7560, Note_on_c, 0, 64, 108
2, 7560, Note_on_c, 0, 45, 60
2, 7723, Note_on_c, 0, 69, 0
2, 7723, Note_on_c, 0, 62, 0
2, 7740, Note_on_c, 0, 57, 75
2, 7885, Note_on_c, 0, 64, 0
2, 7885, Note_on_c, 0, 45, 0
2, 7903, Note_on_c, 0, 57, 0
2, 7920, Note_on_c, 0, 38, 94
2, 7920, Note_on_c, 0, 45, 96
2, 8028, Note_on_c, 0, 45, 0
2, 8028, Note_on_c, 0, 38, 0
2, 8040, Note_on_c, 0, 50, 82
2, 8100, Note_on_c, 0, 57, 93
2, 8148, Note_on_c, 0, 50, 0
2, 8159, Note_on_c, 0, 45, 63
2, 8263, Note_on_c, 0, 57, 0
2, 8269, Note_on_c, 0, 45, 0
2, 8280, Note_on_c, 0, 62, 122
2, 8280, Note_on_c, 0, 69, 122
2, 8280, Note_on_c, 0, 65, 109
2, 8280, Note_on_c, 0, 38, 57
2, 8280, Control_c, 0, 64, 0
2, 8443, Note_on_c, 0, 69, 0
2, 8443, Note_on_c, 0, 62, 0
2, 8460, Note_on_c, 0, 57, 81
2, 8605, Note_on_c, 0, 65, 0
2, 8605, Note_on_c, 0, 38, 0
2, 8623, Note_on_c, 0, 57, 0
2, 8640, Control_c, 0, 64, 127
2, 8640, Note_on_c, 0, 48, 91
2, 8640, Note_on_c, 0, 57, 92
2, 8748, Note_on_c, 0, 57, 0
2, 8748, Note_on_c, 0, 48, 0
2, 8760, Note_on_c, 0, 60, 80
2, 8868, Note_on_c, 0, 60, 0
2, 8879, Note_on_c, 0, 57, 64
2, 8989, Note_on_c, 0, 57, 0
2, 9000, Note_on_c, 0, 65, 97
2, 9000, Note_on_c, 0, 72, 96
2, 9000, Note_on_c, 0, 67, 108
2, 9000, Note_on_c, 0, 48, 53
2, 9163, Note_on_c, 0, 72, 0
2, 9163, Note_on_c, 0, 65, 0
2, 9180, Note_on_c, 0, 60, 73
2, 9325, Note_on_c, 0, 67, 0
2, 9325, Note_on_c, 0, 48, 0
2, 9343, Note_on_c, 0, 60, 0
2, 9360, Note_on_c, 0, 41, 71
2, 9360, Note_on_c, 0, 48, 71
2, 9468, Note_on_c, 0, 48, 0
2, 9468, Note_on_c, 0, 41, 0
2, 9480, Note_on_c, 0, 53, 82
2, 9540, Note_on_c, 0, 60, 94
2, 9588, Note_on_c, 0, 53, 0
2, 9599, Note_on_c, 0, 48, 61
2, 9703, Note_on_c, 0, 60, 0
2, 9709, Note_on_c, 0, 48, 0
2, 9720, Note_on_c, 0, 65, 122
2, 9720, Note_on_c, 0, 72, 121
2, 9720, Note_on_c, 0, 69, 107
2, 9720, Note_on_c, 0, 41, 58
2, 9720, Control_c, 0, 64, 0
2, 9883, Note_on_c, 0, 72, 0
2, 9883, Note_on_c, 0, 65, 0
2, 9900, Note_on_c, 0, 60, 82
2, 10045, Note_on_c, 0, 69, 0
2, 10045, Note_on_c, 0, 41, 0
2, 10063, Note_on_c, 0, 60, 0
2, 10080, Control_c, 0, 64, 127
2, 10080, Note_on_c, 0, 45, 122
2, 10080, Note_on_c, 0, 53, 122
2, 10188, Note_on_c, 0, 53, 0
2, 10188, Note_on_c, 0, 45, 0
2, 10200, Note_on_c, 0, 57, 81
2, 10260, Note_on_c, 0, 65, 94
2, 10308, Note_on_c, 0, 57, 0
2, 10319, Note_on_c, 0, 53, 64
2, 10423, Note_on_c, 0, 65, 0
2, 10429, Note_on_c, 0, 53, 0
2, 10440, Note_on_c, 0, 69, 120
2, 10440, Note_on_c, 0, 77, 122
2, 10440, Note_on_c, 0, 72, 106
2, 10440, Note_on_c, 0, 45, 53
2, 10603, Note_on_c, 0, 77, 0
2, 10603, Note_on_c, 0, 69, 0
2, 10620, Note_on_c, 0, 65, 80
2, 10765, Note_on_c, 0, 72, 0
2, 10765, Note_on_c, 0, 45, 0
2, 10783, Note_on_c, 0, 65, 0
2, 10800, Note_on_c, 0, 26, 95
2, 10800, Note_on_c, 0, 33, 96
2, 10908, Note_on_c, 0, 33, 0
2, 10908, Note_on_c, 0, 26, 0
2, 10920, Note_on_c, 0, 38, 82
2, 10980, Note_on_c, 0, 69, 92
2, 11028, Note_on_c, 0, 38, 0
2, 11039, Note_on_c, 0, 33, 63
2, 11143, Note_on_c, 0, 69, 0
2, 11149, Note_on_c, 0, 33, 0
2, 11160, Note_on_c, 0, 77, 122
2, 11160, Note_on_c, 0, 81, 122
2, 11160, Note_on_c, 0, 74, 108
2, 11160, Note_on_c, 0, 26, 55
2, 11160, Control_c, 0, 64, 0
2, 11323, Note_on_c, 0, 81, 0
2, 11323, Note_on_c, 0, 77, 0
2, 11340, Note_on_c, 0, 69, 81
2, 11485, Note_on_c, 0, 74, 0
2, 11485, Note_on_c, 0, 26, 0
2, 11503, Note_on_c, 0, 69, 0
2, 11520, Control_c, 0, 64, 127
2, 11520, Note_on_c, 0, 48, 90
2, 11520, Note_on_c, 0, 57, 91
2, 11628, Note_on_c, 0, 57, 0
2, 11628, Note_on_c, 0, 48, 0
2, 11640, Note_on_c, 0, 60, 78
2, 11748, Note_on_c, 0, 60, 0
2, 11759, Note_on_c, 0, 57, 65
2, 11869, Note_on_c, 0, 57, 0
2, 11880, Note_on_c, 0, 65, 97
2, 11880, Note_on_c, 0, 72, 99
2, 11880, Note_on_c, 0, 67, 110
2, 11880, Note_on_c, 0, 48, 53
2, 12043, Note_on_c, 0, 72, 0
2, 12043, Note_on_c, 0, 65, 0
2, 12060, Note_on_c, 0, 60, 74
2, 12205, Note_on_c, 0, 67, 0
2, 12205, Note_on_c, 0, 48, 0
2, 12223, Note_on_c, 0, 60, 0
2, 12240, Note_on_c, 0, 41, 70
2, 12240, Note_on_c, 0, 48, 71
2, 12348, Note_on_c, 0, 48, 0
2, 12348, Note_on_c, 0, 41, 0
2, 12360, Note_on_c, 0, 53, 81
2, 12420, Note_on_c, 0, 60, 93
2, 12468, Note_on_c, 0, 53, 0
2, 12479, Note_on_c, 0, 48, 60
2, 12583, Note_on_c, 0, 60, 0
2, 12589, Note_on_c, 0, 48, 0
2, 12600, Note_on_c, 0, 65, 122
2, 12600, Note_on_c, 0, 72, 121
2, 12600, Note_on_c, 0, 69, 107
2, 12600, Note_on_c, 0, 41, 56
2, 12600, Control_c, 0, 64, 0
2, 12763, Note_on_c, 0, 72, 0
2, 12763, Note_on_c, 0, 65, 0
2, 12780, Note_on_c, 0, 60, 79
2, 12925, Note_on_c, 0, 69, 0
2, 12925, Note_on_c, 0, 41, 0
2, 12943, Note_on_c, 0, 60, 0
2, 12960, Control_c, 0, 64, 127
2, 12960, Note_on_c, 0, 45, 122
2, 12960, Note_on_c, 0, 53, 122
2, 13068, Note_on_c, 0, 53, 0
2, 13068, Note_on_c, 0, 45, 0
2, 13080, Note_on_c, 0, 57, 81
2, 13140, Note_on_c, 0, 65, 94
2, 13188, Note_on_c, 0, 57, 0
2, 13199, Note_on_c, 0, 53, 64
2, 13303, Note_on_c, 0, 65, 0
2, 13309, Note_on_c, 0, 53, 0
2, 13320, Note_on_c, 0, 69, 122
2, 13320, Note_on_c, 0, 77, 120
2, 13320, Note_on_c, 0, 72, 109
2, 13320, Note_on_c, 0, 45, 53
2, 13483, Note_on_c, 0, 77, 0
2, 13483, Note_on_c, 0, 69, 0
2, 13500, Note_on_c, 0, 65, 81
2, 13645, Note_on_c, 0, 72, 0
2, 13645, Note_on_c, 0, 45, 0
2, 13663, Note_on_c, 0, 65, 0
2, 13680, Note_on_c, 0, 26, 94
2, 13680, Note_on_c, 0, 33, 95
2, 13788, Note_on_c, 0, 33, 0
2, 13788, Note_on_c, 0, 26, 0
2, 13800, Note_on_c, 0, 38, 82
2, 13860, Note_on_c, 0, 69, 96
2, 13908, Note_on_c, 0, 38, 0
2, 13919, Note_on_c, 0, 33, 61
2, 14023, Note_on_c, 0, 69, 0
2, 14029, Note_on_c, 0, 33, 0
2, 14040, Note_on_c, 0, 77, 122
2, 14040, Note_on_c, 0, 81, 121
2, 14040, Note_on_c, 0, 74, 106
2, 14040, Note_on_c, 0, 26, 57
2, 14040, Control_c, 0, 64, 0
2, 14203, Note_on_c, 0, 81, 0
2, 14203, Note_on_c, 0, 77, 0
2, 14220, Note_on_c, 0, 69, 80
2, 14365, Note_on_c, 0, 74, 0
2, 14365, Note_on_c, 0, 26, 0
2, 14383, Note_on_c, 0, 69, 0
2, 14400, Note_on_c, 0, 57, 122
2, 14400, Note_on_c, 0, 65, 122
2, 14508, Note_on_c, 0, 65, 0
2, 14508, Note_on_c, 0, 57, 0
2, 14520, Note_on_c, 0, 69, 82
2, 14597, Control_c, 0, 64, 127
2, 14628, Note_on_c, 0, 69, 0
2, 14639, Note_on_c, 0, 74, 94
2, 14639, Note_on_c, 0, 74, 106
2, 14639, Note_on_c, 0, 65, 65
2, 14749, Note_on_c, 0, 65, 0
2, 14749, Note_on_c, 0, 74, 0
2, 14760, Note_on_c, 0, 81, 122
2, 14760, Note_on_c, 0, 57, 55
2, 14868, Note_on_c, 0, 81, 0
2, 14880, Note_on_c, 0, 74, 88
2, 14988, Note_on_c, 0, 74, 0
2, 14999, Note_on_c, 0, 69, 87
2, 15085, Note_on_c, 0, 74, 0
2, 15085, Note_on_c, 0, 57, 0
2, 15109, Note_on_c, 0, 69, 0
2, 15120, Note_on_c, 0, 57, 114
2, 15120, Note_on_c, 0, 65, 114
2, 15228, Note_on_c, 0, 65, 0
2, 15228, Note_on_c, 0, 57, 0
2, 15240, Note_on_c, 0, 69, 83
2, 15348, Note_on_c, 0, 69, 0
2, 15359, Note_on_c, 0, 74, 93
2, 15359, Note_on_c, 0, 74, 109
2, 15359, Note_on_c, 0, 65, 63
2, 15469, Note_on_c, 0, 65, 0
2, 15469, Note_on_c, 0, 74, 0
2, 15480, Note_on_c, 0, 81, 122
2, 15480, Note_on_c, 0, 57, 54
2, 15480, Control_c, 0, 64, 0
2, 15588, Note_on_c, 0, 81, 0
2, 15600, Note_on_c, 0, 74, 88
2, 15708, Note_on_c, 0, 74, 0
2, 15719, Note_on_c, 0, 69, 88
2, 15805, Note_on_c, 0, 74, 0
2, 15805, Note_on_c, 0, 57, 0
2, 15829, Note_on_c, 0, 69, 0
2, 15840, Control_c, 0, 64, 127
2, 15840, Note_on_c, 0, 57, 84
2, 15840, Note_on_c, 0, 64, 85
2, 15948, Note_on_c, 0, 64, 0
2, 15948, Note_on_c, 0, 57, 0
2, 15960, Note_on_c, 0, 69, 80
2, 16068, Note_on_c, 0, 69, 0
2, 16079, Note_on_c, 0, 73, 92
2, 16079, Note_on_c, 0, 73, 95
2, 16079, Note_on_c, 0, 64, 63
2, 16189, Note_on_c, 0, 64, 0
2, 16189, Note_on_c, 0, 73, 0
2, 16200, Note_on_c, 0, 77, 121
2, 16200, Note_on_c, 0, 57, 54
2, 16308, Note_on_c, 0, 77, 0
2, 16320, Note_on_c, 0, 74, 96
2, 16428, Note_on_c, 0, 74, 0
2, 16439, Note_on_c, 0, 69, 90
2, 16525, Note_on_c, 0, 57, 0
2, 16525, Note_on_c, 0, 73, 0
2, 16549, Note_on_c, 0, 69, 0
2, 16560, Note_on_c, 0, 57, 84
2, 16560, Note_on_c, 0, 63, 82
2, 16668, Note_on_c, 0, 63, 0
2, 16668, Note_on_c, 0, 57, 0
2, 16680, Note_on_c, 0, 69, 82
2, 16788, Note_on_c, 0, 69, 0
2, 16799, Note_on_c, 0, 72, 96
2, 16799, Note_on_c, 0, 72, 94
2, 16799, Note_on_c, 0, 63, 60
2, 16909, Note_on_c, 0, 63, 0
2, 16909, Note_on_c, 0, 72, 0
2, 16920, Note_on_c, 0, 81, 122
2, 16920, Note_on_c, 0, 57, 55
2, 16920, Control_c, 0, 64, 0
2, 17028, Note_on_c, 0, 81, 0
2, 17040, Note_on_c, 0, 74, 88
2, 17148, Note_on_c, 0, 74, 0
2, 17159, Note_on_c, 0, 69, 86
2, 17245, Note_on_c, 0, 57, 0
2, 17245, Note_on_c, 0, 72, 0
2, 17269, Note_on_c, 0, 69, 0
2, 17280, Note_on_c, 0, 57, 79
2, 17280, Note_on_c, 0, 62, 82
2, 17388, Note_on_c, 0, 62, 0
2, 17388, Note_on_c, 0, 57, 0
2, 17400, Note_on_c, 0, 65, 78
2, 17477, Control_c, 0, 64, 127
2, 17508, Note_on_c, 0, 65, 0
2, 17519, Note_on_c, 0, 71, 93
2, 17519, Note_on_c, 0, 71, 95
2, 17519, Note_on_c, 0, 62, 65
2, 17629, Note_on_c, 0, 62, 0
2, 17629, Note_on_c, 0, 71, 0
2, 17640, Note_on_c, 0, 77, 122
2, 17640, Note_on_c, 0, 57, 61
2, 17748, Note_on_c, 0, 77, 0
2, 17760, Note_on_c, 0, 71, 93
2, 17868, Note_on_c, 0, 71, 0
2, 17879, Note_on_c, 0, 65, 84
2, 17965, Note_on_c, 0, 71, 0
2, 17965, Note_on_c, 0, 57, 0
2, 17989, Note_on_c, 0, 65, 0
2, 18000, Note_on_c, 0, 57, 78
2, 18000, Note_on_c, 0, 61, 82
2, 18108, Note_on_c, 0, 61, 0
2, 18108, Note_on_c, 0, 57, 0
2, 18120, Note_on_c, 0, 65, 79
2, 18228, Note_on_c, 0, 65, 0
2, 18239, Note_on_c, 0, 70, 95
2, 18239, Note_on_c, 0, 70, 95
2, 18239, Note_on_c, 0, 61, 62
2, 18349, Note_on_c, 0, 61, 0
2, 18349, Note_on_c, 0, 70, 0
2, 18360, Note_on_c, 0, 81, 122
2, 18360, Note_on_c, 0, 57, 62
2, 18360, Control_c, 0, 64, 0
2, 18468, Note_on_c, 0, 81, 0
2, 18480, Note_on_c, 0, 70, 79
2, 18588, Note_on_c, 0, 70, 0
2, 18599, Note_on_c, 0, 69, 96
2, 18685, Note_on_c, 0, 70, 0
2, 18685, Note_on_c, 0, 57, 0
2, 18709, Note_on_c, 0, 69, 0
2, 18720, Control_c, 0, 64, 127
2, 18720, Note_on_c, 0, 57, 80
2, 18720, Note_on_c, 0, 60, 77
2, 18828, Note_on_c, 0, 60, 0
2, 18828, Note_on_c, 0, 57, 0
2, 18840, Note_on_c, 0, 65, 77
2, 18948, Note_on_c, 0, 65, 0
2, 18959, Note_on_c, 0, 69, 95
2, 18959, Note_on_c, 0, 69, 92
2, 18959, Note_on_c, 0, 60, 55
2, 19069, Note_on_c, 0, 60, 0
2, 19069, Note_on_c, 0, 69, 0
2, 19080, Note_on_c, 0, 74, 122
2, 19080, Note_on_c, 0, 57, 52
2, 19188, Note_on_c, 0, 74, 0
2, 19200, Note_on_c, 0, 69, 91
2, 19308, Note_on_c, 0, 69, 0
2, 19319, Note_on_c, 0, 62, 82
2, 19405, Note_on_c, 0, 69, 0
2, 19405, Note_on_c, 0, 57, 0
2, 19429, Note_on_c, 0, 62, 0
2, 19440, Note_on_c, 0, 52, 58
2, 19440, Note_on_c, 0, 59, 59
2, 19548, Note_on_c, 0, 59, 0
2, 19548, Note_on_c, 0, 52, 0
2, 19560, Note_on_c, 0, 64, 59
2, 19668, Note_on_c, 0, 64, 0
2, 19679, Note_on_c, 0, 68, 93
2, 19679, Note_on_c, 0, 68, 95
2, 19679, Note_on_c, 0, 59, 39
2, 19789, Note_on_c, 0, 59, 0
2, 19789, Note_on_c, 0, 68, 0
2, 19800, Note_on_c, 0, 76, 122
2, 19800, Note_on_c, 0, 52, 34
2, 19908, Note_on_c, 0, 76, 0
2, 19920, Note_on_c, 0, 68, 87
2, 20028, Note_on_c, 0, 68, 0
2, 20039, Note_on_c, 0, 62, 88
2, 20125, Note_on_c, 0, 68, 0
2, 20125, Note_on_c, 0, 52, 0
2, 20149, Note_on_c, 0, 62, 0
2, 20160, Control_c, 0, 64, 127
2, 20160, Control_c, 0, 64, 0
2, 20160, Note_on_c, 0, 45, 101
2, 20160, Note_on_c, 0, 52, 98
2, 20268, Note_on_c, 0, 52, 0
2, 20268, Note_on_c, 0, 45, 0
2, 20280, Note_on_c, 0, 57, 87
2, 20340, Note_on_c, 0, 55, 94
2, 20388, Note_on_c, 0, 57, 0
2, 20399, Note_on_c, 0, 52, 67
2, 20503, Note_on_c, 0, 55, 0
2, 20509, Note_on_c, 0, 52, 0
2, 20520, Note_on_c, 0, 61, 121
2, 20520, Note_on_c, 0, 64, 122
2, 20520, Note_on_c, 0, 67, 121
2, 20520, Note_on_c, 0, 45, 59
2, 20683, Note_on_c, 0, 67, 0
2, 20683, Note_on_c, 0, 61, 0
2, 20683, Note_on_c, 0, 64, 0
2, 20700, Note_on_c, 0, 55, 81
2, 20845, Note_on_c, 0, 45, 0
2, 20863, Note_on_c, 0, 55, 0
2, 20880, Note_on_c, 0, 40, 99
2, 20880, Note_on_c, 0, 45, 98
2, 20988, Note_on_c, 0, 45, 0
2, 20988, Note_on_c, 0, 40, 0
2, 21000, Note_on_c, 0, 52, 89
2, 21060, Note_on_c, 0, 57, 95
2, 21108, Note_on_c, 0, 52, 0
2, 21119, Note_on_c, 0, 45, 65
2, 21223, Note_on_c, 0, 57, 0
2, 21229, Note_on_c, 0, 45, 0
2, 21240, Note_on_c, 0, 61, 121
2, 21240, Note_on_c, 0, 64, 122
2, 21240, Note_on_c, 0, 69, 122
2, 21240, Note_on_c, 0, 40, 60
2, 21240, Control_c, 0, 64, 0
2, 21403, Note_on_c, 0, 69, 0
2, 21403, Note_on_c, 0, 61, 0
2, 21403, Note_on_c, 0, 64, 0
2, 21420, Note_on_c, 0, 57, 79
2, 21565, Note_on_c, 0, 40, 0
2, 21583, Note_on_c, 0, 57, 0
2, 21600, Control_c, 0, 64, 127
2, 21600, Note_on_c, 0, 52, 122
2, 21600, Note_on_c, 0, 57, 122
2, 21708, Note_on_c, 0, 57, 0
2, 21708, Note_on_c, 0, 52, 0
2, 21720, Note_on_c, 0, 64, 93
2, 21828, Note_on_c, 0, 64, 0
2, 21839, Note_on_c, 0, 57, 65
2, 21949, Note_on_c, 0, 57, 0
2, 21960, Note_on_c, 0, 69, 88
2, 21960, Note_on_c, 0, 76, 88
2, 21960, Note_on_c, 0, 71, 108
2, 21960, Note_on_c, 0, 52, 61
2, 22123, Note_on_c, 0, 76, 0
2, 22123, Note_on_c, 0, 69, 0
2, 22140, Note_on_c, 0, 64, 62
2, 22285, Note_on_c, 0, 71, 0
2, 22285, Note_on_c, 0, 52, 0
2, 22303, Note_on_c, 0, 64, 0
2, 22320, Note_on_c, 0, 33, 72
2, 22320, Note_on_c, 0, 40, 74
2, 22428, Note_on_c, 0, 40, 0
2, 22428, Note_on_c, 0, 33, 0
2, 22440, Note_on_c, 0, 45, 80
2, 22500, Note_on_c, 0, 64, 81
2, 22548, Note_on_c, 0, 45, 0
2, 22559, Note_on_c, 0, 40, 64
2, 22663, Note_on_c, 0, 64, 0
2, 22669, Note_on_c, 0, 40, 0
2, 22680, Note_on_c, 0, 69, 115
2, 22680, Note_on_c, 0, 76, 117
2, 22680, Note_on_c, 0, 73, 102
2, 22680, Note_on_c, 0, 33, 58
2, 22680, Control_c, 0, 64, 0
2, 22843, Note_on_c, 0, 76, 0
2, 22843, Note_on_c, 0, 69, 0
2, 22860, Note_on_c, 0, 64, 70
2, 23005, Note_on_c, 0, 73, 0
2, 23005, Note_on_c, 0, 33, 0
2, 23023, Note_on_c, 0, 64, 0
2, 23040, Control_c, 0, 64, 127
2, 23040, Note_on_c, 0, 45, 122
2, 23040, Note_on_c, 0, 52, 122
2, 23148, Note_on_c, 0, 52, 0
2, 23148, Note_on_c, 0, 45, 0
2, 23160, Note_on_c, 0, 57, 87
2, 23220, Note_on_c, 0, 55, 79
2, 23268, Note_on_c, 0, 57, 0
2, 23279, Note_on_c, 0, 52, 67
2, 23383, Note_on_c, 0, 55, 0
2, 23389, Note_on_c, 0, 52, 0
2, 23400, Note_on_c, 0, 61, 121
2, 23400, Note_on_c, 0, 64, 121
2, 23400, Note_on_c, 0, 67, 122
2, 23400, Note_on_c, 0, 45, 59
2, 23563, Note_on_c, 0, 67, 0
2, 23563, Note_on_c, 0, 61, 0
2, 23563, Note_on_c, 0, 64, 0
2, 23580, Note_on_c, 0, 55, 68
2, 23725, Note_on_c, 0, 45, 0
2, 23743, Note_on_c, 0, 55, 0
2, 23760, Note_on_c, 0, 40, 98
2, 23760, Note_on_c, 0, 45, 100
2, 23868, Note_on_c, 0, 45, 0
2, 23868, Note_on_c, 0, 40, 0
2, 23880, Note_on_c, 0, 52, 87
2, 23940, Note_on_c, 0, 57, 82
2, 23988, Note_on_c, 0, 52, 0
2, 23999, Note_on_c, 0, 45, 61
2, 24103, Note_on_c, 0, 57, 0
2, 24109, Note_on_c, 0, 45, 0
2, 24120, Note_on_c, 0, 61, 121
2, 24120, Note_on_c, 0, 64, 121
2, 24120, Note_on_c, 0, 69, 122
2, 24120, Note_on_c, 0, 40, 62
2, 24120, Control_c, 0, 64, 0
2, 24283, Note_on_c, 0, 69, 0
2, 24283, Note_on_c, 0, 61, 0
2, 24283, Note_on_c, 0, 64, 0
2, 24300, Note_on_c, 0, 57, 67
2, 24445, Note_on_c, 0, 40, 0
2, 24463, Note_on_c, 0, 57, 0
2, 24480, Control_c, 0, 64, 127
2, 24480, Note_on_c, 0, 52, 122
2, 24480, Note_on_c, 0, 57, 122
2, 24588, Note_on_c, 0, 57, 0
2, 24588, Note_on_c, 0, 52, 0
2, 24600, Note_on_c, 0, 64, 95
2, 24708, Note_on_c, 0, 64, 0
2, 24719, Note_on_c, 0, 57, 61
2, 24829, Note_on_c, 0, 57, 0
2, 24840, Note_on_c, 0, 69, 84
2, 24840, Note_on_c, 0, 76, 86
2, 24840, Note_on_c, 0, 71, 101
2, 24840, Note_on_c, 0, 52, 64
2, 25003, Note_on_c, 0, 76, 0
2, 25003, Note_on_c, 0, 69, 0
2, 25020, Note_on_c, 0, 64, 65
2, 25165, Note_on_c, 0, 71, 0
2, 25165, Note_on_c, 0, 52, 0
2, 25183, Note_on_c, 0, 64, 0
2, 25200, Note_on_c, 0, 33, 71
2, 25200, Note_on_c, 0, 40, 70
2, 25308, Note_on_c, 0, 40, 0
2, 25308, Note_on_c, 0, 33, 0
2, 25320, Note_on_c, 0, 45, 81
2, 25380, Note_on_c, 0, 64, 80
2, 25428, Note_on_c, 0, 45, 0
2, 25439, Note_on_c, 0, 40, 65
2, 25543, Note_on_c, 0, 64, 0
2, 25549, Note_on_c, 0, 40, 0
2, 25560, Note_on_c, 0, 69, 114
2, 25560, Note_on_c, 0, 76, 116
2, 25560, Note_on_c, 0, 73, 102
2, 25560, Note_on_c, 0, 33, 58
2, 25560, Control_c, 0, 64, 0
2, 25723, Note_on_c, 0, 76, 0
2, 25723, Note_on_c, 0, 69, 0
2, 25740, Note_on_c, 0, 64, 70
2, 25885, Note_on_c, 0, 73, 0
2, 25885, Note_on_c, 0, 33, 0
2, 25903, Note_on_c, 0, 64, 0
2, 25920, Control_c, 0, 64, 127
2, 25920, Note_on_c, 0, 64, 95
2, 25920, Note_on_c, 0, 69, 96
2, 26028, Note_on_c, 0, 69, 0
2, 26028, Note_on_c, 0, 64, 0
2, 26040, Note_on_c, 0, 76, 91
2, 26148, Note_on_c, 0, 76, 0
2, 26159, Note_on_c, 0, 69, 64
2, 26269, Note_on_c, 0, 69, 0
2, 26280, Note_on_c, 0, 81, 104
2, 26280, Note_on_c, 0, 83, 102
2, 26280, Note_on_c, 0, 88, 102
2, 26280, Note_on_c, 0, 64, 62
2, 26443, Note_on_c, 0, 88, 0
2, 26443, Note_on_c, 0, 81, 0
2, 26443, Note_on_c, 0, 83, 0
2, 26460, Note_on_c, 0, 76, 64
2, 26605, Note_on_c, 0, 64, 0
2, 26623, Note_on_c, 0, 76, 0
2, 26640, Note_on_c, 0, 57, 78
2, 26640, Note_on_c, 0, 64, 76
2, 26748, Note_on_c, 0, 64, 0
2, 26748, Note_on_c, 0, 57, 0
2, 26760, Note_on_c, 0, 69, 83
2, 26820, Note_on_c, 0, 81, 81
2, 26868, Note_on_c, 0, 69, 0
2, 26879, Note_on_c, 0, 64, 65
2, 26983, Note_on_c, 0, 81, 0
2, 26989, Note_on_c, 0, 64, 0
2, 27000, Note_on_c, 0, 85, 122
2, 27000, Note_on_c, 0, 93, 120
2, 27000, Note_on_c, 0, 57, 61
2, 27000, Control_c, 0, 64, 0
2, 27163, Note_on_c, 0, 93, 0
2, 27163, Note_on_c, 0, 85, 0
2, 27180, Note_on_c, 0, 76, 68
2, 27325, Note_on_c, 0, 57, 0
2, 27343, Note_on_c, 0, 76, 0
2, 27360, Control_c, 0, 64, 127
2, 27360, Note_on_c, 0, 52, 76
2, 27360, Note_on_c, 0, 57, 76
2, 27468, Note_on_c, 0, 57, 0
2, 27468, Note_on_c, 0, 52, 0
2, 27480, Note_on_c, 0, 64, 89
2, 27588, Note_on_c, 0, 64, 0
2, 27599, Note_on_c, 0, 57, 62
2, 27709, Note_on_c, 0, 57, 0
2, 27720, Note_on_c, 0, 69, 103
2, 27720, Note_on_c, 0, 71, 103
2, 27720, Note_on_c, 0, 76, 104
2, 27720, Note_on_c, 0, 52, 60
2, 27883, Note_on_c, 0, 76, 0
2, 27883, Note_on_c, 0, 69, 0
2, 27883, Note_on_c, 0, 71, 0
2, 27900, Note_on_c, 0, 64, 64
2, 28045, Note_on_c, 0, 52, 0
2, 28063, Note_on_c, 0, 64, 0
2, 28080, Note_on_c, 0, 45, 75
2, 28080, Note_on_c, 0, 52, 75
2, 28188, Note_on_c, 0, 52, 0
2, 28188, Note_on_c, 0, 45, 0
2, 28200, Note_on_c, 0, 57, 86
2, 28260, Note_on_c, 0, 69, 82
2, 28308, Note_on_c, 0, 57, 0
2, 28319, Note_on_c, 0, 52, 67
2, 28423, Note_on_c, 0, 69, 0
2, 28429, Note_on_c, 0, 52, 0
2, 28440, Note_on_c, 0, 73, 120
2, 28440, Note_on_c, 0, 81, 121
2, 28440, Note_on_c, 0, 45, 59
2, 28440, Control_c, 0, 64, 0
2, 28603, Note_on_c, 0, 81, 0
2, 28603, Note_on_c, 0, 73, 0
2, 28620, Note_on_c, 0, 64, 68
2, 28765, Note_on_c, 0, 45, 0
2, 28783, Note_on_c, 0, 64, 0
2, 28800, Control_c, 0, 64, 127
2, 28800, Note_on_c, 0, 57, 95
2, 28800, Note_on_c, 0, 57, 68
2, 28908, Note_on_c, 0, 57, 0
2, 28920, Note_on_c, 0, 64, 94
2, 29028, Note_on_c, 0, 64, 0
2, 29039, Note_on_c, 0, 69, 83
2, 29039, Note_on_c, 0, 69, 103
2, 29039, Note_on_c, 0, 57, 64
2, 29149, Note_on_c, 0, 69, 0
2, 29149, Note_on_c, 0, 57, 0
2, 29160, Note_on_c, 0, 76, 122
2, 29160, Note_on_c, 0, 52, 62
2, 29268, Note_on_c, 0, 76, 0
2, 29280, Note_on_c, 0, 69, 78
2, 29388, Note_on_c, 0, 69, 0
2, 29399, Note_on_c, 0, 61, 72
2, 29450, Note_on_c, 0, 57, 0
2, 29485, Note_on_c, 0, 69, 0
2, 29485, Note_on_c, 0, 52, 0
2, 29509, Note_on_c, 0, 61, 0
2, 29520, Note_on_c, 0, 55, 84
2, 29520, Note_on_c, 0, 55, 68
2, 29628, Note_on_c, 0, 55, 0
2, 29640, Note_on_c, 0, 64, 95
2, 29748, Note_on_c, 0, 64, 0
2, 29759, Note_on_c, 0, 70, 80
2, 29759, Note_on_c, 0, 70, 102
2, 29759, Note_on_c, 0, 52, 58
2, 29869, Note_on_c, 0, 52, 0
2, 29869, Note_on_c, 0, 70, 0
2, 29880, Note_on_c, 0, 76, 122
2, 29880, Note_on_c, 0, 45, 56
2, 29880, Control_c, 0, 64, 0
2, 29988, Note_on_c, 0, 76, 0
2, 30000, Note_on_c, 0, 70, 78
2, 30108, Note_on_c, 0, 70, 0
2, 30119, Note_on_c, 0, 61, 66
2, 30170, Note_on_c, 0, 55, 0
2, 30205, Note_on_c, 0, 70, 0
2, 30205, Note_on_c, 0, 45, 0
2, 30229, Note_on_c, 0, 61, 0
2, 30240, Control_c, 0, 64, 127
2, 30240, Note_on_c, 0, 57, 96
2, 30240, Note_on_c, 0, 57, 81
2, 30348, Note_on_c, 0, 57, 0
2, 30360, Note_on_c, 0, 64, 93
2, 30468, Note_on_c, 0, 64, 0
2, 30479, Note_on_c, 0, 69, 83
2, 30479, Note_on_c, 0, 69, 104
2, 30479, Note_on_c, 0, 57, 63
2, 30589, Note_on_c, 0, 69, 0
2, 30589, Note_on_c, 0, 57, 0
2, 30600, Note_on_c, 0, 76, 122
2, 30600, Note_on_c, 0, 52, 62
2, 30708, Note_on_c, 0, 76, 0
2, 30720, Note_on_c, 0, 69, 78
2, 30828, Note_on_c, 0, 69, 0
2, 30839, Note_on_c, 0, 61, 72
2, 30890, Note_on_c, 0, 57, 0
2, 30925, Note_on_c, 0, 69, 0
2, 30925, Note_on_c, 0, 52, 0
2, 30949, Note_on_c, 0, 61, 0
2, 30960, Note_on_c, 0, 55, 84
2, 30960, Note_on_c, 0, 55, 71
2, 31068, Note_on_c, 0, 55, 0
2, 31080, Note_on_c, 0, 64, 93
2, 31188, Note_on_c, 0, 64, 0
2, 31199, Note_on_c, 0, 70, 80
2, 31199, Note_on_c, 0, 70, 102
2, 31199, Note_on_c, 0, 52, 57
2, 31309, Note_on_c, 0, 52, 0
2, 31309, Note_on_c, 0, 70, 0
2, 31320, Note_on_c, 0, 76, 122
2, 31320, Note_on_c, 0, 45, 56
2, 31320, Control_c, 0, 64, 0
2, 31428, Note_on_c, 0, 76, 0
2, 31440, Note_on_c, 0, 70, 77
2, 31548, Note_on_c, 0, 70, 0
2, 31559, Note_on_c, 0, 61, 65
2, 31610, Note_on_c, 0, 55, 0
2, 31645, Note_on_c, 0, 70, 0
2, 31645, Note_on_c, 0, 45, 0
2, 31669, Note_on_c, 0, 61, 0
2, 31680, Control_c, 0, 64, 127
2, 31680, Note_on_c, 0, 45, 89
2, 31680, Note_on_c, 0, 52, 90
2, 31788, Note_on_c, 0, 52, 0
2, 31788, Note_on_c, 0, 45, 0
2, 31800, Note_on_c, 0, 57, 86
2, 31860, Note_on_c, 0, 55, 83
2, 31908, Note_on_c, 0, 57, 0
2, 31919, Note_on_c, 0, 52, 66
2, 32023, Note_on_c, 0, 55, 0
2, 32029, Note_on_c, 0, 52, 0
2, 32040, Note_on_c, 0, 61, 122
2, 32040, Note_on_c, 0, 64, 120
2, 32040, Note_on_c, 0, 67, 122
2, 32040, Note_on_c, 0, 45, 57
2, 32203, Note_on_c, 0, 67, 0
2, 32203, Note_on_c, 0, 61, 0
2, 32203, Note_on_c, 0, 64, 0
2, 32220, Note_on_c, 0, 55, 71
2, 32365, Note_on_c, 0, 45, 0
2, 32383, Note_on_c, 0, 55, 0
2, 32400, Note_on_c, 0, 40, 76
2, 32400, Note_on_c, 0, 45, 76
2, 32508, Note_on_c, 0, 45, 0
2, 32508, Note_on_c, 0, 40, 0
2, 32520, Note_on_c, 0, 52, 90
2, 32580, Note_on_c, 0, 57, 82
2, 32628, Note_on_c, 0, 52, 0
2, 32639, Note_on_c, 0, 45, 62
2, 32743, Note_on_c, 0, 57, 0
2, 32749, Note_on_c, 0, 45, 0
2, 32760, Note_on_c, 0, 61, 122
2, 32760, Note_on_c, 0, 64, 121
2, 32760, Note_on_c, 0, 69, 122
2, 32760, Note_on_c, 0, 40, 61
2, 32760, Control_c, 0, 64, 0
2, 32923, Note_on_c, 0, 69, 0
2, 32923, Note_on_c, 0, 61, 0
2, 32923, Note_on_c, 0, 64, 0
2, 32940, Note_on_c, 0, 57, 68
2, 33085, Note_on_c, 0, 40, 0
2, 33103, Note_on_c, 0, 57, 0
2, 33120, Control_c, 0, 64, 127
2, 33120, Note_on_c, 0, 43, 97
2, 33120, Note_on_c, 0, 51, 95
2, 33228, Note_on_c, 0, 51, 0
2, 33228, Note_on_c, 0, 43, 0
2, 33240, Note_on_c, 0, 55, 85
2, 33300, Note_on_c, 0, 55, 80
2, 33348, Note_on_c, 0, 55, 0
2, 33359, Note_on_c, 0, 51, 68
2, 33463, Note_on_c, 0, 55, 0
2, 33469, Note_on_c, 0, 51, 0
2, 33480, Note_on_c, 0, 60, 122
2, 33480, Note_on_c, 0, 63, 122
2, 33480, Note_on_c, 0, 67, 122
2, 33480, Note_on_c, 0, 43, 57
2, 33643, Note_on_c, 0, 67, 0
2, 33643, Note_on_c, 0, 60, 0
2, 33643, Note_on_c, 0, 63, 0
2, 33660, Note_on_c, 0, 55, 68
2, 33805, Note_on_c, 0, 43, 0
2, 33823, Note_on_c, 0, 55, 0
2, 33840, Note_on_c, 0, 36, 72
2, 33840, Note_on_c, 0, 43, 73
2, 33948, Note_on_c, 0, 43, 0
2, 33948, Note_on_c, 0, 36, 0
2, 33960, Note_on_c, 0, 51, 90
2, 34020, Note_on_c, 0, 57, 80
2, 34068, Note_on_c, 0, 51, 0
2, 34079, Note_on_c, 0, 43, 60
2, 34183, Note_on_c, 0, 57, 0
2, 34189, Note_on_c, 0, 43, 0
2, 34200, Note_on_c, 0, 60, 122
2, 34200, Note_on_c, 0, 63, 122
2, 34200, Note_on_c, 0, 69, 122
2, 34200, Note_on_c, 0, 36, 57
2, 34200, Control_c, 0, 64, 0
2, 34363, Note_on_c, 0, 69, 0
2, 34363, Note_on_c, 0, 60, 0
2, 34363, Note_on_c, 0, 63, 0
2, 34380, Note_on_c, 0, 57, 68
2, 34525, Note_on_c, 0, 36, 0
2, 34543, Note_on_c, 0, 57, 0
2, 34560, Control_c, 0, 64, 127
2, 34560, Note_on_c, 0, 41, 99
2, 34560, Note_on_c, 0, 50, 96
2, 34668, Note_on_c, 0, 50, 0
2, 34668, Note_on_c, 0, 41, 0
2, 34680, Note_on_c, 0, 53, 84
2, 34740, Note_on_c, 0, 55, 80
2, 34788, Note_on_c, 0, 53, 0
2, 34799, Note_on_c, 0, 50, 69
2, 34903, Note_on_c, 0, 55, 0
2, 34909, Note_on_c, 0, 50, 0
2, 34920, Note_on_c, 0, 58, 122
2, 34920, Note_on_c, 0, 62, 122
2, 34920, Note_on_c, 0, 67, 122
2, 34920, Note_on_c, 0, 41, 55
2, 35083, Note_on_c, 0, 67, 0
2, 35083, Note_on_c, 0, 58, 0
2, 35083, Note_on_c, 0, 62, 0
2, 35100, Note_on_c, 0, 55, 68
2, 35245, Note_on_c, 0, 41, 0
2, 35263, Note_on_c, 0, 55, 0
2, 35280, Note_on_c, 0, 34, 73
2, 35280, Note_on_c, 0, 41, 76
2, 35388, Note_on_c, 0, 41, 0
2, 35388, Note_on_c, 0, 34, 0
2, 35400, Note_on_c, 0, 50, 93
2, 35460, Note_on_c, 0, 57, 81
2, 35508, Note_on_c, 0, 50, 0
2, 35519, Note_on_c, 0, 41, 61
2, 35623, Note_on_c, 0, 57, 0
2, 35629, Note_on_c, 0, 41, 0
2, 35640, Note_on_c, 0, 58, 122
2, 35640, Note_on_c, 0, 62, 120
2, 35640, Note_on_c, 0, 69, 122
2, 35640, Note_on_c, 0, 34, 56
2, 35640, Control_c, 0, 64, 0
2, 35803, Note_on_c, 0, 69, 0
2, 35803, Note_on_c, 0, 58, 0
2, 35803, Note_on_c, 0, 62, 0
2, 35820, Note_on_c, 0, 57, 70
2, 35965, Note_on_c, 0, 34, 0
2, 35983, Note_on_c, 0, 57, 0
2, 36000, Control_c, 0, 64, 127
2, 36000, Note_on_c, 0, 40, 96
2, 36000, Note_on_c, 0, 49, 98
2, 36108, Note_on_c, 0, 49, 0
2, 36108, Note_on_c, 0, 40, 0
2, 36120, Note_on_c, 0, 52, 84
2, 36180, Note_on_c, 0, 55, 83
2, 36228, Note_on_c, 0, 52, 0
2, 36239, Note_on_c, 0, 49, 71
2, 36343, Note_on_c, 0, 55, 0
2, 36349, Note_on_c, 0, 49, 0
2, 36360, Note_on_c, 0, 57, 122
2, 36360, Note_on_c, 0, 61, 122
2, 36360, Note_on_c, 0, 67, 121
2, 36360, Note_on_c, 0, 40, 56
2, 36523, Note_on_c, 0, 67, 0
2, 36523, Note_on_c, 0, 57, 0
2, 36523, Note_on_c, 0, 61, 0
2, 36540, Note_on_c, 0, 55, 67
2, 36685, Note_on_c, 0, 40, 0
2, 36703, Note_on_c, 0, 55, 0
2, 36720, Note_on_c, 0, 33, 70
2, 36720, Note_on_c, 0, 40, 70
2, 36828, Note_on_c, 0, 40, 0
2, 36828, Note_on_c, 0, 33, 0
2, 36840, Note_on_c, 0, 49, 93
2, 36900, Note_on_c, 0, 57, 81
2, 36948, Note_on_c, 0, 49, 0
2, 36959, Note_on_c, 0, 40, 62
2, 37063, Note_on_c, 0, 57, 0
2, 37069, Note_on_c, 0, 40, 0
2, 37080, Note_on_c, 0, 61, 122
2, 37080, Note_on_c, 0, 69, 122
2, 37080, Note_on_c, 0, 33, 59
2, 37080, Control_c, 0, 64, 0
2, 37243, Note_on_c, 0, 69, 0
2, 37243, Note_on_c, 0, 61, 0
2, 37260, Note_on_c, 0, 55, 70
2, 37405, Note_on_c, 0, 33, 0
2, 37423, Note_on_c, 0, 55, 0
2, 37440, Control_c, 0, 64, 127
2, 37440, Note_on_c, 0, 26, 122
2, 37440, Note_on_c, 0, 33, 122
2, 37548, Note_on_c, 0, 33, 0
2, 37548, Note_on_c, 0, 26, 0
2, 37560, Note_on_c, 0, 38, 89
2, 37620, Note_on_c, 0, 53, 92
2, 37668, Note_on_c, 0, 38, 0
2, 37679, Note_on_c, 0, 33, 64
2, 37783, Note_on_c, 0, 53, 0
2, 37789, Note_on_c, 0, 33, 0
2, 37800, Note_on_c, 0, 57, 122
2, 37800, Note_on_c, 0, 65, 120
2, 37800, Note_on_c, 0, 60, 108
2, 37800, Note_on_c, 0, 26, 58
2, 37963, Note_on_c, 0, 65, 0
2, 37963, Note_on_c, 0, 57, 0
2, 37980, Note_on_c, 0, 53, 78
2, 38125, Note_on_c, 0, 60, 0
2, 38125, Note_on_c, 0, 26, 0
2, 38143, Note_on_c, 0, 53, 0
2, 38160, Note_on_c, 0, 21, 101
2, 38160, Note_on_c, 0, 26, 99
2, 38268, Note_on_c, 0, 26, 0
2, 38268, Note_on_c, 0, 21, 0
2, 38280, Note_on_c, 0, 33, 90
2, 38340, Note_on_c, 0, 53, 95
2, 38388, Note_on_c, 0, 33, 0
2, 38399, Note_on_c, 0, 26, 63
2, 38503, Note_on_c, 0, 53, 0
2, 38509, Note_on_c, 0, 26, 0
2, 38520, Note_on_c, 0, 57, 120
2, 38520, Note_on_c, 0, 65, 122
2, 38520, Note_on_c, 0, 62, 108
2, 38520, Note_on_c, 0, 21, 62
2, 38683, Note_on_c, 0, 65, 0
2, 38683, Note_on_c, 0, 57, 0
2, 38700, Note_on_c, 0, 53, 79
2, 38845, Note_on_c, 0, 62, 0
2, 38845, Note_on_c, 0, 21, 0
2, 38863, Note_on_c, 0, 53, 0
2, 38880, Control_c, 0, 64, 127
2, 38880, Control_c, 0, 64, 0
2, 38880, Note_on_c, 0, 45, 122
2, 38880, Note_on_c, 0, 50, 122
2, 38988, Note_on_c, 0, 50, 0
2, 38988, Note_on_c, 0, 45, 0
2, 39000, Note_on_c, 0, 57, 93
2, 39108, Note_on_c, 0, 57, 0
2, 39119, Note_on_c, 0, 50, 64
2, 39229, Note_on_c, 0, 50, 0
2, 39240, Note_on_c, 0, 62, 99
2, 39240, Note_on_c, 0, 69, 98
2, 39240, Note_on_c, 0, 64, 108
2, 39240, Note_on_c, 0, 45, 61
2, 39403, Note_on_c, 0, 69, 0
2, 39403, Note_on_c, 0, 62, 0
2, 39420, Note_on_c, 0, 57, 73
2, 39565, Note_on_c, 0, 64, 0
2, 39565, Note_on_c, 0, 45, 0
2, 39583, Note_on_c, 0, 57, 0
2, 39600, Note_on_c, 0, 38, 101
2, 39600, Note_on_c, 0, 45, 101
2, 39708, Note_on_c, 0, 45, 0
2, 39708, Note_on_c, 0, 38, 0
2, 39720, Note_on_c, 0, 50, 86
2, 39780, Note_on_c, 0, 57, 96
2, 39828, Note_on_c, 0, 50, 0
2, 39839, Note_on_c, 0, 45, 65
2, 39943, Note_on_c, 0, 57, 0
2, 39949, Note_on_c, 0, 45, 0
2, 39960, Note_on_c, 0, 62, 120
2, 39960, Note_on_c, 0, 69, 121
2, 39960, Note_on_c, 0, 65, 107
2, 39960, Note_on_c, 0, 38, 59
2, 39960, Control_c, 0, 64, 0
2, 40123, Note_on_c, 0, 69, 0
2, 40123, Note_on_c, 0, 62, 0
2, 40140, Note_on_c, 0, 57, 79
2, 40285, Note_on_c, 0, 65, 0
2, 40285, Note_on_c, 0, 38, 0
2, 40303, Note_on_c, 0, 57, 0
2, 40320, Control_c, 0, 64, 127
2, 40320, Note_on_c, 0, 26, 116
2, 40320, Note_on_c, 0, 33, 117
2, 40428, Note_on_c, 0, 33, 0
2, 40428, Note_on_c, 0, 26, 0
2, 40440, Note_on_c, 0, 38, 87
2, 40500, Note_on_c, 0, 53, 95
2, 40548, Note_on_c, 0, 38, 0
2, 40559, Note_on_c, 0, 33, 65
2, 40663, Note_on_c, 0, 53, 0
2, 40669, Note_on_c, 0, 33, 0
2, 40680, Note_on_c, 0, 57, 122
2, 40680, Note_on_c, 0, 65, 122
2, 40680, Note_on_c, 0, 60, 109
2, 40680, Note_on_c, 0, 26, 57
2, 40843, Note_on_c, 0, 65, 0
2, 40843, Note_on_c, 0, 57, 0
2, 40860, Note_on_c, 0, 53, 79
2, 41005, Note_on_c, 0, 60, 0
2, 41005, Note_on_c, 0, 26, 0
2, 41023, Note_on_c, 0, 53, 0
2, 41040, Note_on_c, 0, 21, 99
2, 41040, Note_on_c, 0, 26, 101
2, 41148, Note_on_c, 0, 26, 0
2, 41148, Note_on_c, 0, 21, 0
2, 41160, Note_on_c, 0, 33, 90
2, 41220, Note_on_c, 0, 53, 93
2, 41268, Note_on_c, 0, 33, 0
2, 41279, Note_on_c, 0, 26, 62
2, 41383, Note_on_c, 0, 53, 0
2, 41389, Note_on_c, 0, 26, 0
2, 41400, Note_on_c, 0, 57, 121
2, 41400, Note_on_c, 0, 65, 122
2, 41400, Note_on_c, 0, 62, 110
2, 41400, Note_on_c, 0, 21, 61
2, 41563, Note_on_c, 0, 65, 0
2, 41563, Note_on_c, 0, 57, 0
2, 41580, Note_on_c, 0, 53, 81
2, 41725, Note_on_c, 0, 62, 0
2, 41725, Note_on_c, 0, 21, 0
2, 41743, Note_on_c, 0, 53, 0
2, 41760, Control_c, 0, 64, 127
2, 41760, Control_c, 0, 64, 0
2, 41760, Note_on_c, 0, 45, 122
2, 41760, Note_on_c, 0, 50, 122
2, 41868, Note_on_c, 0, 50, 0
2, 41868, Note_on_c, 0, 45, 0
2, 41880, Note_on_c, 0, 57, 92
2, 41988, Note_on_c, 0, 57, 0
2, 41999, Note_on_c, 0, 50, 63
2, 42109, Note_on_c, 0, 50, 0
2, 42120, Note_on_c, 0, 62, 98
2, 42120, Note_on_c, 0, 69, 98
2, 42120, Note_on_c, 0, 64, 107
2, 42120, Note_on_c, 0, 45, 63
2, 42283, Note_on_c, 0, 69, 0
2, 42283, Note_on_c, 0, 62, 0
2, 42300, Note_on_c, 0, 57, 73
2, 42445, Note_on_c, 0, 64, 0
2, 42445, Note_on_c, 0, 45, 0
2, 42463, Note_on_c, 0, 57, 0
2, 42480, Note_on_c, 0, 38, 102
2, 42480, Note_on_c, 0, 45, 98
2, 42588, Note_on_c, 0, 45, 0
2, 42588, Note_on_c, 0, 38, 0
2, 42600, Note_on_c, 0, 50, 85
2, 42660, Note_on_c, 0, 57, 93
2, 42708, Note_on_c, 0, 50, 0
2, 42719, Note_on_c, 0, 45, 68
2, 42823, Note_on_c, 0, 57, 0
2, 42829, Note_on_c, 0, 45, 0
2, 42840, Note_on_c, 0, 62, 122
2, 42840, Note_on_c, 0, 69, 122
2, 42840, Note_on_c, 0, 65, 106
2, 42840, Note_on_c, 0, 38, 59
2, 42840, Control_c, 0, 64, 0
2, 43003, Note_on_c, 0, 69, 0
2, 43003, Note_on_c, 0, 62, 0
2, 43020, Note_on_c, 0, 57, 81
2, 43165, Note_on_c, 0, 65, 0
2, 43165, Note_on_c, 0, 38, 0
2, 43183, Note_on_c, 0, 57, 0
2, 43200, Control_c, 0, 64, 127
2, 43200, Note_on_c, 0, 48, 96
2, 43200, Note_on_c, 0, 57, 96
2, 43308, Note_on_c, 0, 57, 0
2, 43308, Note_on_c, 0, 48, 0
2, 43320, Note_on_c, 0, 60, 85
2, 43428, Note_on_c, 0, 60, 0
2, 43439, Note_on_c, 0, 57, 69
2, 43549, Note_on_c, 0, 57, 0
2, 43560, Note_on_c, 0, 65, 96
2, 43560, Note_on_c, 0, 72, 97
2, 43560, Note_on_c, 0, 67, 106
2, 43560, Note_on_c, 0, 48, 58
2, 43723, Note_on_c, 0, 72, 0
2, 43723, Note_on_c, 0, 65, 0
2, 43740, Note_on_c, 0, 60, 71
2, 43885, Note_on_c, 0, 67, 0
2, 43885, Note_on_c, 0, 48, 0
2, 43903, Note_on_c, 0, 60, 0
2, 43920, Note_on_c, 0, 41, 75
2, 43920, Note_on_c, 0, 48, 74
2, 44028, Note_on_c, 0, 48, 0
2, 44028, Note_on_c, 0, 41, 0
2, 44040, Note_on_c, 0, 53, 86
2, 44100, Note_on_c, 0, 60, 92
2, 44148, Note_on_c, 0, 53, 0
2, 44159, Note_on_c, 0, 48, 68
2, 44263, Note_on_c, 0, 60, 0
2, 44269, Note_on_c, 0, 48, 0
2, 44280, Note_on_c, 0, 65, 122
2, 44280, Note_on_c, 0, 72, 122
2, 44280, Note_on_c, 0, 69, 108
2, 44280, Note_on_c, 0, 41, 59
2, 44280, Control_c, 0, 64, 0
2, 44443, Note_on_c, 0, 72, 0
2, 44443, Note_on_c, 0, 65, 0
2, 44460, Note_on_c, 0, 60, 81
2, 44605, Note_on_c, 0, 69, 0
2, 44605, Note_on_c, 0, 41, 0
2, 44623, Note_on_c, 0, 60, 0
2, 44640, Control_c, 0, 64, 127
2, 44640, Note_on_c, 0, 45, 122
2, 44640, Note_on_c, 0, 53, 122
2, 44748, Note_on_c, 0, 53, 0
2, 44748, Note_on_c, 0, 45, 0
2, 44760, Note_on_c, 0, 57, 88
2, 44820, Note_on_c, 0, 65, 94
2, 44868, Note_on_c, 0, 57, 0
2, 44879, Note_on_c, 0, 53, 66
2, 44983, Note_on_c, 0, 65, 0
2, 44989, Note_on_c, 0, 53, 0
2, 45000, Note_on_c, 0, 69, 122
2, 45000, Note_on_c, 0, 77, 122
2, 45000, Note_on_c, 0, 72, 109
2, 45000, Note_on_c, 0, 45, 60
2, 45163, Note_on_c, 0, 77, 0
2, 45163, Note_on_c, 0, 69, 0
2, 45180, Note_on_c, 0, 65, 81
2, 45325, Note_on_c, 0, 72, 0
2, 45325, Note_on_c, 0, 45, 0
2, 45343, Note_on_c, 0, 65, 0
2, 45360, Note_on_c, 0, 26, 98
2, 45360, Note_on_c, 0, 33, 99
2, 45468, Note_on_c, 0, 33, 0
2, 45468, Note_on_c, 0, 26, 0
2, 45480, Note_on_c, 0, 38, 86
2, 45540, Note_on_c, 0, 69, 95
2, 45588, Note_on_c, 0, 38, 0
2, 45599, Note_on_c, 0, 33, 66
2, 45703, Note_on_c, 0, 69, 0
2, 45709, Note_on_c, 0, 33, 0
2, 45720, Note_on_c, 0, 77, 122
2, 45720, Note_on_c, 0, 81, 122
2, 45720, Note_on_c, 0, 74, 108
2, 45720, Note_on_c, 0, 26, 59
2, 45720, Control_c, 0, 64, 0
2, 45883, Note_on_c, 0, 81, 0
2, 45883, Note_on_c, 0, 77, 0
2, 45900, Note_on_c, 0, 69, 79
2, 46045, Note_on_c, 0, 74, 0
2, 46045, Note_on_c, 0, 26, 0
2, 46063, Note_on_c, 0, 69, 0
2, 46080, Control_c, 0, 64, 127
2, 46080, Note_on_c, 0, 48, 96
2, 46080, Note_on_c, 0, 57, 99
2, 46188, Note_on_c, 0, 57, 0
2, 46188, Note_on_c, 0, 48, 0
2, 46200, Note_on_c, 0, 60, 87
2, 46308, Note_on_c, 0, 60, 0
2, 46319, Note_on_c, 0, 57, 70
2, 46429, Note_on_c, 0, 57, 0
2, 46440, Note_on_c, 0, 65, 97
2, 46440, Note_on_c, 0, 72, 98
2, 46440, Note_on_c, 0, 67, 108
2, 46440, Note_on_c, 0, 48, 57
2, 46603, Note_on_c, 0, 72, 0
2, 46603, Note_on_c, 0, 65, 0
2, 46620, Note_on_c, 0, 60, 74
2, 46765, Note_on_c, 0, 67, 0
2, 46765, Note_on_c, 0, 48, 0
2, 46783, Note_on_c, 0, 60, 0
2, 46800, Note_on_c, 0, 41, 72
2, 46800, Note_on_c, 0, 48, 74
2, 46908, Note_on_c, 0, 48, 0
2, 46908, Note_on_c, 0, 41, 0
2, 46920, Note_on_c, 0, 53, 86
2, 46980, Note_on_c, 0, 60, 95
2, 47028, Note_on_c, 0, 53, 0
2, 47039, Note_on_c, 0, 48, 67
2, 47143, Note_on_c, 0, 60, 0
2, 47149, Note_on_c, 0, 48, 0
2, 47160, Note_on_c, 0, 65, 122
2, 47160, Note_on_c, 0, 72, 122
2, 47160, Note_on_c, 0, 69, 107
2, 47160, Note_on_c, 0, 41, 58
2, 47160, Control_c, 0, 64, 0
2, 47323, Note_on_c, 0, 72, 0
2, 47323, Note_on_c, 0, 65, 0
2, 47340, Note_on_c, 0, 60, 79
2, 47485, Note_on_c, 0, 69, 0
2, 47485, Note_on_c, 0, 41, 0
2, 47503, Note_on_c, 0, 60, 0
2, 47520, Control_c, 0, 64, 127
2, 47520, Note_on_c, 0, 45, 122
2, 47520, Note_on_c, 0, 53, 122
2, 47628, Note_on_c, 0, 53, 0
2, 47628, Note_on_c, 0, 45, 0
2, 47640, Note_on_c, 0, 57, 86
2, 47700, Note_on_c, 0, 65, 93
2, 47748, Note_on_c, 0, 57, 0
2, 47759, Note_on_c, 0, 53, 69
2, 47863, Note_on_c, 0, 65, 0
2, 47869, Note_on_c, 0, 53, 0
2, 47880, Note_on_c, 0, 69, 122
2, 47880, Note_on_c, 0, 77, 122
2, 47880, Note_on_c, 0, 72, 106
2, 47880, Note_on_c, 0, 45, 60
2, 48043, Note_on_c, 0, 77, 0
2, 48043, Note_on_c, 0, 69, 0
2, 48060, Note_on_c, 0, 65, 78
2, 48205, Note_on_c, 0, 72, 0
2, 48205, Note_on_c, 0, 45, 0
2, 48223, Note_on_c, 0, 65, 0
2, 48240, Note_on_c, 0, 26, 98
2, 48240, Note_on_c, 0, 33, 99
2, 48348, Note_on_c, 0, 33, 0
2, 48348, Note_on_c, 0, 26, 0
2, 48360, Note_on_c, 0, 38, 86
2, 48420, Note_on_c, 0, 69, 93
2, 48468, Note_on_c, 0, 38, 0
2, 48479, Note_on_c, 0, 33, 65
2, 48583, Note_on_c, 0, 69, 0
2, 48589, Note_on_c, 0, 33, 0
2, 48600, Note_on_c, 0, 77, 122
2, 48600, Note_on_c, 0, 81, 122
2, 48600, Note_on_c, 0, 74, 106
2, 48600, Note_on_c, 0, 26, 60
2, 48600, Control_c, 0, 64, 0
2, 48763, Note_on_c, 0, 81, 0
2, 48763, Note_on_c, 0, 77, 0
2, 48780, Note_on_c, 0, 69, 79
2, 48925, Note_on_c, 0, 74, 0
2, 48925, Note_on_c, 0, 26, 0
2, 48943, Note_on_c, 0, 69, 0
2, 48960, Control_c, 0, 64, 127
2, 48960, Note_on_c, 0, 43, 96
2, 48960, Note_on_c, 0, 50, 96
2, 49068, Note_on_c, 0, 50, 0
2, 49068, Note_on_c, 0, 43, 0
2, 49080, Note_on_c, 0, 55, 89
2, 49140, Note_on_c, 0, 58, 79
2, 49188, Note_on_c, 0, 55, 0
2, 49199, Note_on_c, 0, 50, 64
2, 49303, Note_on_c, 0, 58, 0
2, 49309, Note_on_c, 0, 50, 0
2, 49320, Note_on_c, 0, 62, 116
2, 49320, Note_on_c, 0, 70, 114
2, 49320, Note_on_c, 0, 65, 101
2, 49320, Note_on_c, 0, 43, 59
2, 49483, Note_on_c, 0, 70, 0
2, 49483, Note_on_c, 0, 62, 0
2, 49500, Note_on_c, 0, 58, 71
2, 49645, Note_on_c, 0, 65, 0
2, 49645, Note_on_c, 0, 43, 0
2, 49663, Note_on_c, 0, 58, 0
2, 49680, Note_on_c, 0, 38, 74
2, 49680, Note_on_c, 0, 43, 75
2, 49788, Note_on_c, 0, 43, 0
2, 49788, Note_on_c, 0, 38, 0
2, 49800, Note_on_c, 0, 50, 90
2, 49860, Note_on_c, 0, 58, 81
2, 49908, Note_on_c, 0, 50, 0
2, 49919, Note_on_c, 0, 43, 65
2, 50023, Note_on_c, 0, 58, 0
2, 50029, Note_on_c, 0, 43, 0
2, 50040, Note_on_c, 0, 62, 113
2, 50040, Note_on_c, 0, 70, 115
2, 50040, Note_on_c, 0, 67, 101
2, 50040, Note_on_c, 0, 38, 61
2, 50040, Control_c, 0, 64, 0
2, 50203, Note_on_c, 0, 70, 0
2, 50203, Note_on_c, 0, 62, 0
2, 50220, Note_on_c, 0, 58, 69
2, 50365, Note_on_c, 0, 67, 0
2, 50365, Note_on_c, 0, 38, 0
2, 50383, Note_on_c, 0, 58, 0
2, 50400, Control_c, 0, 64, 127
2, 50400, Note_on_c, 0, 50, 99
2, 50400, Note_on_c, 0, 55, 99
2, 50508, Note_on_c, 0, 55, 0
2, 50508, Note_on_c, 0, 50, 0
2, 50520, Note_on_c, 0, 62, 93
2, 50628, Note_on_c, 0, 62, 0
2, 50639, Note_on_c, 0, 55, 63
2, 50749, Note_on_c, 0, 55, 0
2, 50760, Note_on_c, 0, 67, 82
2, 50760, Note_on_c, 0, 74, 80
2, 50760, Note_on_c, 0, 69, 104
2, 50760, Note_on_c, 0, 50, 62
2, 50923, Note_on_c, 0, 74, 0
2, 50923, Note_on_c, 0, 67, 0
2, 50940, Note_on_c, 0, 62, 62
2, 51085, Note_on_c, 0, 69, 0
2, 51085, Note_on_c, 0, 50, 0
2, 51103, Note_on_c, 0, 62, 0
2, 51120, Note_on_c, 0, 43, 75
2, 51120, Note_on_c, 0, 50, 75
2, 51228, Note_on_c, 0, 50, 0
2, 51228, Note_on_c, 0, 43, 0
2, 51240, Note_on_c, 0, 55, 85
2, 51300, Note_on_c, 0, 62, 81
2, 51348, Note_on_c, 0, 55, 0
2, 51359, Note_on_c, 0, 50, 68
2, 51463, Note_on_c, 0, 62, 0
2, 51469, Note_on_c, 0, 50, 0
2, 51480, Note_on_c, 0, 67, 114
2, 51480, Note_on_c, 0, 74, 114
2, 51480, Note_on_c, 0, 70, 103
2, 51480, Note_on_c, 0, 43, 61
2, 51480, Control_c, 0, 64, 0
2, 51643, Note_on_c, 0, 74, 0
2, 51643, Note_on_c, 0, 67, 0
2, 51660, Note_on_c, 0, 62, 67
2, 51805, Note_on_c, 0, 70, 0
2, 51805, Note_on_c, 0, 43, 0
2, 51823, Note_on_c, 0, 62, 0
2, 51840, Control_c, 0, 64, 127
2, 51840, Note_on_c, 0, 53, 95
2, 51840, Note_on_c, 0, 62, 97
2, 51948, Note_on_c, 0, 62, 0
2, 51948, Note_on_c, 0, 53, 0
2, 51960, Note_on_c, 0, 65, 83
2, 52068, Note_on_c, 0, 65, 0
2, 52079, Note_on_c, 0, 62, 70
2, 52189, Note_on_c, 0, 62, 0
2, 52200, Note_on_c, 0, 70, 81
2, 52200, Note_on_c, 0, 77, 80
2, 52200, Note_on_c, 0, 72, 105
2, 52200, Note_on_c, 0, 53, 56
2, 52363, Note_on_c, 0, 77, 0
2, 52363, Note_on_c, 0, 70, 0
2, 52380, Note_on_c, 0, 65, 63
2, 52525, Note_on_c, 0, 72, 0
2, 52525, Note_on_c, 0, 53, 0
2, 52543, Note_on_c, 0, 65, 0
2, 52560, Note_on_c, 0, 46, 72
2, 52560, Note_on_c, 0, 53, 73
2, 52668, Note_on_c, 0, 53, 0
2, 52668, Note_on_c, 0, 46, 0
2, 52680, Note_on_c, 0, 58, 85
2, 52740, Note_on_c, 0, 67, 81
2, 52788, Note_on_c, 0, 58, 0
2, 52799, Note_on_c, 0, 53, 68
2, 52903, Note_on_c, 0, 67, 0
2, 52909, Note_on_c, 0, 53, 0
2, 52920, Note_on_c, 0, 70, 113
2, 52920, Note_on_c, 0, 79, 117
2, 52920, Note_on_c, 0, 74, 103
2, 52920, Note_on_c, 0, 46, 58
2, 52920, Control_c, 0, 64, 0
2, 53083, Note_on_c, 0, 79, 0
2, 53083, Note_on_c, 0, 70, 0
2, 53100, Note_on_c, 0, 67, 69
2, 53245, Note_on_c, 0, 74, 0
2, 53245, Note_on_c, 0, 46, 0
2, 53263, Note_on_c, 0, 67, 0
2, 53280, Control_c, 0, 64, 127
2, 53280, Note_on_c, 0, 50, 98
2, 53280, Note_on_c, 0, 58, 97
2, 53388, Note_on_c, 0, 58, 0
2, 53388, Note_on_c, 0, 50, 0
2, 53400, Note_on_c, 0, 62, 85
2, 53460, Note_on_c, 0, 70, 80
2, 53508, Note_on_c, 0, 62, 0
2, 53519, Note_on_c, 0, 58, 67
2, 53623, Note_on_c, 0, 70, 0
2, 53629, Note_on_c, 0, 58, 0
2, 53640, Note_on_c, 0, 74, 115
2, 53640, Note_on_c, 0, 82, 116
2, 53640, Note_on_c, 0, 77, 104
2, 53640, Note_on_c, 0, 50, 56
2, 53803, Note_on_c, 0, 82, 0
2, 53803, Note_on_c, 0, 74, 0
2, 53820, Note_on_c, 0, 70, 69
2, 53965, Note_on_c, 0, 77, 0
2, 53965, Note_on_c, 0, 50, 0
2, 53983, Note_on_c, 0, 70, 0
2, 54000, Control_c, 0, 64, 0
2, 54000, Note_on_c, 0, 31, 54
2, 54000, Note_on_c, 0, 38, 52
2, 54108, Note_on_c, 0, 38, 0
2, 54108, Note_on_c, 0, 31, 0
2, 54120, Note_on_c, 0, 43, 80
2, 54180, Note_on_c, 0, 74, 81
2, 54228, Note_on_c, 0, 43, 0
2, 54239, Note_on_c, 0, 38, 64
2, 54343, Note_on_c, 0, 74, 0
2, 54349, Note_on_c, 0, 38, 0
2, 54360, Note_on_c, 0, 82, 114
2, 54360, Note_on_c, 0, 86, 113
2, 54360, Note_on_c, 0, 79, 104
2, 54360, Note_on_c, 0, 31, 58
2, 54523, Note_on_c, 0, 86, 0
2, 54523, Note_on_c, 0, 82, 0
2, 54540, Note_on_c, 0, 74, 70
2, 54685, Note_on_c, 0, 79, 0
2, 54685, Note_on_c, 0, 31, 0
2, 54703, Note_on_c, 0, 74, 0
2, 54720, Control_c, 0, 64, 127
2, 54720, Note_on_c, 0, 62, 122
2, 54720, Note_on_c, 0, 70, 122
2, 54828, Note_on_c, 0, 70, 0
2, 54828, Note_on_c, 0, 62, 0
2, 54840, Note_on_c, 0, 74, 87
2, 54948, Note_on_c, 0, 74, 0
2, 54959, Note_on_c, 0, 79, 93
2, 54959, Note_on_c, 0, 79, 109
2, 54959, Note_on_c, 0, 70, 67
2, 55069, Note_on_c, 0, 70, 0
2, 55069, Note_on_c, 0, 79, 0
2, 55080, Note_on_c, 0, 86, 122
2, 55080, Note_on_c, 0, 62, 59
2, 55188, Note_on_c, 0, 86, 0
2, 55200, Note_on_c, 0, 79, 86
2, 55308, Note_on_c, 0, 79, 0
2, 55319, Note_on_c, 0, 74, 86
2, 55405, Note_on_c, 0, 79, 0
2, 55405, Note_on_c, 0, 62, 0
2, 55429, Note_on_c, 0, 74, 0
2, 55440, Note_on_c, 0, 62, 120
2, 55440, Note_on_c, 0, 70, 119
2, 55548, Note_on_c, 0, 70, 0
2, 55548, Note_on_c, 0, 62, 0
2, 55560, Note_on_c, 0, 74, 84
2, 55668, Note_on_c, 0, 74, 0
2, 55679, Note_on_c, 0, 86, 94
2, 55679, Note_on_c, 0, 86, 107
2, 55679, Note_on_c, 0, 70, 69
2, 55789, Note_on_c, 0, 70, 0
2, 55789, Note_on_c, 0, 86, 0
2, 55800, Note_on_c, 0, 91, 122
2, 55800, Note_on_c, 0, 62, 56
2, 55800, Control_c, 0, 64, 0
2, 55908, Note_on_c, 0, 91, 0
2, 55920, Note_on_c, 0, 86, 93
2, 56028, Note_on_c, 0, 86, 0
2, 56039, Note_on_c, 0, 79, 82
2, 56125, Note_on_c, 0, 86, 0
2, 56125, Note_on_c, 0, 62, 0
2, 56149, Note_on_c, 0, 79, 0
2, 56160, Control_c, 0, 64, 127
2, 56160, Note_on_c, 0, 62, 117
2, 56160, Note_on_c, 0, 69, 115
2, 56268, Note_on_c, 0, 69, 0
2, 56268, Note_on_c, 0, 62, 0
2, 56280, Note_on_c, 0, 74, 88
2, 56388, Note_on_c, 0, 74, 0
2, 56399, Note_on_c, 0, 78, 93
2, 56399, Note_on_c, 0, 78, 107
2, 56399, Note_on_c, 0, 69, 65
2, 56509, Note_on_c, 0, 69, 0
2, 56509, Note_on_c, 0, 78, 0
2, 56520, Note_on_c, 0, 82, 122
2, 56520, Note_on_c, 0, 62, 61
2, 56628, Note_on_c, 0, 82, 0
2, 56640, Note_on_c, 0, 78, 94
2, 56748, Note_on_c, 0, 78, 0
2, 56759, Note_on_c, 0, 70, 83
2, 56845, Note_on_c, 0, 78, 0
2, 56845, Note_on_c, 0, 62, 0
2, 56869, Note_on_c, 0, 70, 0
2, 56880, Note_on_c, 0, 62, 117
2, 56880, Note_on_c, 0, 68, 117
2, 56988, Note_on_c, 0, 68, 0
2, 56988, Note_on_c, 0, 62, 0
2, 57000, Note_on_c, 0, 74, 90
2, 57108, Note_on_c, 0, 74, 0
2, 57119, Note_on_c, 0, 77, 95
2, 57119, Note_on_c, 0, 77, 109
2, 57119, Note_on_c, 0, 68, 64
2, 57229, Note_on_c, 0, 68, 0
2, 57229, Note_on_c, 0, 77, 0
2, 57240, Note_on_c, 0, 86, 122
2, 57240, Note_on_c, 0, 62, 61
2, 57240, Control_c, 0, 64, 0
2, 57348, Note_on_c, 0, 86, 0
2, 57360, Note_on_c, 0, 77, 84
2, 57468, Note_on_c, 0, 77, 0
2, 57479, Note_on_c, 0, 74, 91
2, 57565, Note_on_c, 0, 77, 0
2, 57565, Note_on_c, 0, 62, 0
2, 57589, Note_on_c, 0, 74, 0
2, 57600, Control_c, 0, 64, 127
2, 57600, Note_on_c, 0, 62, 113
2, 57600, Note_on_c, 0, 67, 114
2, 57708, Note_on_c, 0, 67, 0
2, 57708, Note_on_c, 0, 62, 0
2, 57720, Note_on_c, 0, 70, 82
2, 57828, Note_on_c, 0, 70, 0
2, 57839, Note_on_c, 0, 76, 95
2, 57839, Note_on_c, 0, 76, 110
2, 57839, Note_on_c, 0, 67, 70
2, 57949, Note_on_c, 0, 67, 0
2, 57949, Note_on_c, 0, 76, 0
2, 57960, Note_on_c, 0, 79, 122
2, 57960, Note_on_c, 0, 62, 64
2, 58068, Note_on_c, 0, 79, 0
2, 58080, Note_on_c, 0, 76, 98
2, 58188, Note_on_c, 0, 76, 0
2, 58199, Note_on_c, 0, 67, 82
2, 58285, Note_on_c, 0, 76, 0
2, 58285, Note_on_c, 0, 62, 0
2, 58309, Note_on_c, 0, 67, 0
2, 58320, Note_on_c, 0, 62, 110
2, 58320, Note_on_c, 0, 66, 114
2, 58428, Note_on_c, 0, 66, 0
2, 58428, Note_on_c, 0, 62, 0
2, 58440, Note_on_c, 0, 70, 84
2, 58548, Note_on_c, 0, 70, 0
2, 58559, Note_on_c, 0, 75, 96
2, 58559, Note_on_c, 0, 75, 107
2, 58559, Note_on_c, 0, 66, 66
2, 58669, Note_on_c, 0, 66, 0
2, 58669, Note_on_c, 0, 75, 0
2, 58680, Note_on_c, 0, 82, 122
2, 58680, Note_on_c, 0, 62, 66
2, 58680, Control_c, 0, 64, 0
2, 58788, Note_on_c, 0, 82, 0
2, 58800, Note_on_c, 0, 75, 89
2, 58908, Note_on_c, 0, 75, 0
2, 58919, Note_on_c, 0, 70, 87
2, 59005, Note_on_c, 0, 75, 0
2, 59005, Note_on_c, 0, 62, 0
2, 59029, Note_on_c, 0, 70, 0
2, 59040, Control_c, 0, 64, 127
2, 59040, Note_on_c, 0, 65, 88
2, 59160, Note_on_c, 0, 65, 0
2, 59160, Note_on_c, 0, 70, 87
2, 59268, Note_on_c, 0, 70, 0
2, 59279, Note_on_c, 0, 67, 81
2, 59279, Note_on_c, 0, 67, 102
2, 59279, Note_on_c, 0, 65, 64
2, 59389, Note_on_c, 0, 65, 0
2, 59389, Note_on_c, 0, 67, 0
2, 59400, Note_on_c, 0, 74, 104
2, 59400, Note_on_c, 0, 62, 64
2, 59520, Note_on_c, 0, 74, 0
2, 59520, Note_on_c, 0, 67, 58
2, 59628, Note_on_c, 0, 67, 0
2, 59639, Note_on_c, 0, 62, 53
2, 59725, Note_on_c, 0, 67, 0
2, 59725, Note_on_c, 0, 62, 0
2, 59749, Note_on_c, 0, 62, 0
2, 59760, Control_c, 0, 64, 0
2, 59760, Note_on_c, 0, 64, 88
2, 59880, Note_on_c, 0, 64, 0
2, 59880, Note_on_c, 0, 70, 89
2, 59988, Note_on_c, 0, 70, 0
2, 59999, Note_on_c, 0, 74, 32
2, 59999, Note_on_c, 0, 74, 63
2, 59999, Note_on_c, 0, 64, 63
2, 60109, Note_on_c, 0, 64, 0
2, 60109, Note_on_c, 0, 74, 0
2, 60120, Note_on_c, 0, 79, 42
2, 60120, Note_on_c, 0, 55, 55
2, 60240, Note_on_c, 0, 79, 0
2, 60240, Note_on_c, 0, 74, 16
2, 60348, Note_on_c, 0, 74, 0
2, 60359, Note_on_c, 0, 67, 9
2, 60445, Note_on_c, 0, 74, 0
2, 60445, Note_on_c, 0, 55, 0
2, 60469, Note_on_c, 0, 67, 0
2, 60480, Note_on_c, 0, 33, 64
2, 60480, Note_on_c, 0, 45, 64
2, 61200, Note_on_c, 0, 55, 71
2, 61200, Note_on_c, 0, 61, 72
2, 61200, Note_on_c, 0, 64, 71
2, 61200, Note_on_c, 0, 67, 70
2, 61320, Note_on_c, 0, 73, 45
2, 61320, Note_on_c, 0, 76, 43
2, 61320, Note_on_c, 0, 79, 45
2, 61439, Note_on_c, 0, 79, 0
2, 61439, Note_on_c, 0, 76, 0
2, 61439, Note_on_c, 0, 73, 0
2, 61439, Note_on_c, 0, 67, 27
2, 61549, Note_on_c, 0, 67, 0
2, 61560, Note_on_c, 0, 69, 44
2, 61668, Note_on_c, 0, 69, 0
2, 61680, Note_on_c, 0, 70, 46
2, 61788, Note_on_c, 0, 70, 0
2, 61799, Note_on_c, 0, 67, 39
2, 61909, Note_on_c, 0, 67, 0
2, 61920, Note_on_c, 0, 64, 0
2, 61920, Note_on_c, 0, 45, 0
2, 61920, Note_on_c, 0, 55, 0
2, 61920, Note_on_c, 0, 61, 0
2, 61920, Note_on_c, 0, 67, 0
2, 61920, Note_on_c, 0, 33, 0
2, 61920, Note_on_c, 0, 53, 76
2, 61920, Note_on_c, 0, 57, 78
2, 61920, Note_on_c, 0, 61, 78
2, 61920, Note_on_c, 0, 65, 78
2, 62040, Note_on_c, 0, 73, 43
2, 62040, Note_on_c, 0, 77, 42
2, 62159, Note_on_c, 0, 77, 0
2, 62159, Note_on_c, 0, 73, 0
2, 62159, Note_on_c, 0, 67, 31
2, 62269, Note_on_c, 0, 67, 0
2, 62280, Note_on_c, 0, 69, 42
2, 62388, Note_on_c, 0, 69, 0
2, 62400, Note_on_c, 0, 70, 43
2, 62508, Note_on_c, 0, 70, 0
2, 62519, Note_on_c, 0, 67, 39
2, 62629, Note_on_c, 0, 67, 0
2, 62640, Note_on_c, 0, 61, 0
2, 62640, Note_on_c, 0, 53, 0
2, 62640, Note_on_c, 0, 57, 0
2, 62640, Note_on_c, 0, 65, 0
2, 62640, Note_on_c, 0, 55, 80
2, 62640, Note_on_c, 0, 61, 77
2, 62640, Note_on_c, 0, 64, 78
2, 62640, Note_on_c, 0, 67, 79
2, 62760, Note_on_c, 0, 73, 44
2, 62760, Note_on_c, 0, 76, 44
2, 62760, Note_on_c, 0, 79, 42
2, 62817, Note_on_c, 0, 67, 0
2, 62817, Note_on_c, 0, 64, 0
2, 62817, Note_on_c, 0, 55, 0
2, 62817, Note_on_c, 0, 61, 0
2, 62879, Note_on_c, 0, 79, 0
2, 62879, Note_on_c, 0, 73, 0
2, 62879, Note_on_c, 0, 76, 0
2, 62879, Note_on_c, 0, 67, 54
2, 62989, Note_on_c, 0, 67, 0
2, 63000, Note_on_c, 0, 57, 79
2, 63000, Note_on_c, 0, 61, 80
2, 63000, Note_on_c, 0, 65, 80
2, 63000, Note_on_c, 0, 69, 79
2, 63120, Note_on_c, 0, 73, 87
2, 63120, Note_on_c, 0, 77, 86
2, 63120, Note_on_c, 0, 81, 85
2, 63177, Note_on_c, 0, 69, 0
2, 63177, Note_on_c, 0, 65, 0
2, 63177, Note_on_c, 0, 57, 0
2, 63177, Note_on_c, 0, 61, 0
2, 63239, Note_on_c, 0, 81, 0
2, 63239, Note_on_c, 0, 73, 0
2, 63239, Note_on_c, 0, 77, 0
2, 63239, Note_on_c, 0, 69, 61
2, 63349, Note_on_c, 0, 69, 0
2, 63360, Note_on_c, 0, 33, 79
2, 63360, Note_on_c, 0, 45, 82
2, 64080, Note_on_c, 0, 53, 73
2, 64080, Note_on_c, 0, 57, 73
2, 64080, Note_on_c, 0, 61, 71
2, 64080, Note_on_c, 0, 65, 74
2, 64200, Note_on_c, 0, 73, 43
2, 64200, Note_on_c, 0, 77, 43
2, 64319, Note_on_c, 0, 77, 0
2, 64319, Note_on_c, 0, 73, 0
2, 64319, Note_on_c, 0, 67, 31
2, 64429, Note_on_c, 0, 67, 0
2, 64440, Note_on_c, 0, 69, 42
2, 64548, Note_on_c, 0, 69, 0
2, 64560, Note_on_c, 0, 70, 43
2, 64668, Note_on_c, 0, 70, 0
2, 64679, Note_on_c, 0, 67, 41
2, 64789, Note_on_c, 0, 67, 0
2, 64800, Note_on_c, 0, 61, 0
2, 64800, Note_on_c, 0, 45, 0
2, 64800, Note_on_c, 0, 53, 0
2, 64800, Note_on_c, 0, 57, 0
2, 64800, Note_on_c, 0, 65, 0
2, 64800, Note_on_c, 0, 33, 0
2, 64800, Note_on_c, 0, 52, 76
2, 64800, Note_on_c, 0, 57, 76
2, 64800, Note_on_c, 0, 61, 80
2, 64800, Note_on_c, 0, 64, 79
2, 64920, Note_on_c, 0, 73, 41
2, 64920, Note_on_c, 0, 76, 42
2, 65039, Note_on_c, 0, 76, 0
2, 65039, Note_on_c, 0, 73, 0
2, 65039, Note_on_c, 0, 67, 30
2, 65149, Note_on_c, 0, 67, 0
2, 65160, Note_on_c, 0, 69, 44
2, 65268, Note_on_c, 0, 69, 0
2, 65280, Note_on_c, 0, 70, 47
2, 65388, Note_on_c, 0, 70, 0
2, 65399, Note_on_c, 0, 67, 40
2, 65509, Note_on_c, 0, 67, 0
2, 65520, Note_on_c, 0, 61, 0
2, 65520, Note_on_c, 0, 52, 0
2, 65520, Note_on_c, 0, 57, 0
2, 65520, Note_on_c, 0, 64, 0
2, 65520, Note_on_c, 0, 53, 80
2, 65520, Note_on_c, 0, 57, 80
2, 65520, Note_on_c, 0, 61, 78
2, 65520, Note_on_c, 0, 65, 78
2, 65640, Note_on_c, 0, 69, 43
2, 65640, Note_on_c, 0, 73, 41
2, 65640, Note_on_c, 0, 77, 45
2, 65697, Note_on_c, 0, 65, 0
2, 65697, Note_on_c, 0, 61, 0
2, 65697, Note_on_c, 0, 53, 0
2, 65697, Note_on_c, 0, 57, 0
2, 65759, Note_on_c, 0, 77, 0
2, 65759, Note_on_c, 0, 69, 0
2, 65759, Note_on_c, 0, 73, 0
2, 65759, Note_on_c, 0, 67, 66
2, 65869, Note_on_c, 0, 67, 0
2, 65880, Note_on_c, 0, 55, 82
2, 65880, Note_on_c, 0, 57, 81
2, 65880, Note_on_c, 0, 61, 81
2, 65880, Note_on_c, 0, 67, 80
2, 66000, Note_on_c, 0, 69, 85
2, 66000, Note_on_c, 0, 73, 84
2, 66000, Note_on_c, 0, 79, 84
2, 66057, Note_on_c, 0, 67, 0
2, 66057, Note_on_c, 0, 61, 0
2, 66057, Note_on_c, 0, 55, 0
2, 66057, Note_on_c, 0, 57, 0
2, 66119, Note_on_c, 0, 79, 0
2, 66119, Note_on_c, 0, 69, 0
2, 66119, Note_on_c, 0, 73, 0
2, 66119, Note_on_c, 0, 67, 63
2, 66229, Note_on_c, 0, 67, 0
2, 66240, Note_on_c, 0, 33, 84
2, 66240, Note_on_c, 0, 45, 83
2, 66960, Note_on_c, 0, 52, 66
2, 66960, Note_on_c, 0, 57, 68
2, 66960, Note_on_c, 0, 60, 65
2, 66960, Note_on_c, 0, 64, 66
2, 67080, Note_on_c, 0, 69, 44
2, 67080, Note_on_c, 0, 72, 42
2, 67080, Note_on_c, 0, 76, 43
2, 67199, Note_on_c, 0, 76, 0
2, 67199, Note_on_c, 0, 72, 0
2, 67199, Note_on_c, 0, 69, 0
2, 67199, Note_on_c, 0, 65, 28
2, 67309, Note_on_c, 0, 65, 0
2, 67320, Note_on_c, 0, 67, 44
2, 67428, Note_on_c, 0, 67, 0
2, 67440, Note_on_c, 0, 69, 44
2, 67548, Note_on_c, 0, 69, 0
2, 67559, Note_on_c, 0, 65, 37
2, 67610, Note_on_c, 0, 64, 0
2, 67610, Note_on_c, 0, 57, 0
2, 67610, Note_on_c, 0, 52, 0
2, 67610, Note_on_c, 0, 60, 0
2, 67669, Note_on_c, 0, 65, 0
2, 67680, Note_on_c, 0, 45, 0
2, 67680, Note_on_c, 0, 33, 0
2, 67680, Note_on_c, 0, 50, 78
2, 67680, Note_on_c, 0, 57, 76
2, 67680, Note_on_c, 0, 59, 79
2, 67680, Note_on_c, 0, 62, 78
2, 67800, Note_on_c, 0, 69, 41
2, 67800, Note_on_c, 0, 71, 44
2, 67800, Note_on_c, 0, 74, 42
2, 67919, Note_on_c, 0, 74, 0
2, 67919, Note_on_c, 0, 69, 0
2, 67919, Note_on_c, 0, 71, 0
2, 67919, Note_on_c, 0, 65, 29
2, 68029, Note_on_c, 0, 65, 0
2, 68040, Note_on_c, 0, 67, 44
2, 68148, Note_on_c, 0, 67, 0
2, 68160, Note_on_c, 0, 69, 45
2, 68268, Note_on_c, 0, 69, 0
2, 68279, Note_on_c, 0, 65, 37
2, 68389, Note_on_c, 0, 65, 0
2, 68400, Note_on_c, 0, 59, 0
2, 68400, Note_on_c, 0, 50, 0
2, 68400, Note_on_c, 0, 57, 0
2, 68400, Note_on_c, 0, 62, 0
2, 68400, Note_on_c, 0, 52, 81
2, 68400, Note_on_c, 0, 57, 77
2, 68400, Note_on_c, 0, 60, 78
2, 68400, Note_on_c, 0, 64, 80
2, 68520, Note_on_c, 0, 69, 44
2, 68520, Note_on_c, 0, 72, 44
2, 68520, Note_on_c, 0, 76, 41
2, 68577, Note_on_c, 0, 64, 0
2, 68577, Note_on_c, 0, 60, 0
2, 68577, Note_on_c, 0, 52, 0
2, 68577, Note_on_c, 0, 57, 0
2, 68639, Note_on_c, 0, 76, 0
2, 68639, Note_on_c, 0, 69, 0
2, 68639, Note_on_c, 0, 72, 0
2, 68639, Note_on_c, 0, 64, 63
2, 68749, Note_on_c, 0, 64, 0
2, 68760, Note_on_c, 0, 53, 80
2, 68760, Note_on_c, 0, 57, 80
2, 68760, Note_on_c, 0, 62, 80
2, 68760, Note_on_c, 0, 65, 81
2, 68880, Note_on_c, 0, 69, 87
2, 68880, Note_on_c, 0, 74, 84
2, 68880, Note_on_c, 0, 77, 87
2, 68937, Note_on_c, 0, 65, 0
2, 68937, Note_on_c, 0, 62, 0
2, 68937, Note_on_c, 0, 53, 0
2, 68937, Note_on_c, 0, 57, 0
2, 68999, Note_on_c, 0, 77, 0
2, 68999, Note_on_c, 0, 69, 0
2, 68999, Note_on_c, 0, 74, 0
2, 68999, Note_on_c, 0, 65, 63
2, 69109, Note_on_c, 0, 65, 0
2, 69120, Note_on_c, 0, 33, 83
2, 69120, Note_on_c, 0, 45, 82
2, 69840, Note_on_c, 0, 53, 65
2, 69840, Note_on_c, 0, 57, 66
2, 69840, Note_on_c, 0, 59, 65
2, 69840, Note_on_c, 0, 62, 67
2, 69960, Note_on_c, 0, 69, 85
2, 69960, Note_on_c, 0, 71, 84
2, 69960, Note_on_c, 0, 74, 86
2, 70017, Note_on_c, 0, 62, 0
2, 70017, Note_on_c, 0, 57, 0
2, 70017, Note_on_c, 0, 53, 0
2, 70017, Note_on_c, 0, 59, 0
2, 70079, Note_on_c, 0, 74, 0
2, 70079, Note_on_c, 0, 71, 0
2, 70079, Note_on_c, 0, 69, 0
2, 70079, Note_on_c, 0, 65, 68
2, 70189, Note_on_c, 0, 65, 0
2, 70200, Note_on_c, 0, 52, 79
2, 70200, Note_on_c, 0, 57, 79
2, 70200, Note_on_c, 0, 60, 77
2, 70200, Note_on_c, 0, 64, 78
2, 70320, Note_on_c, 0, 69, 84
2, 70320, Note_on_c, 0, 72, 87
2, 70320, Note_on_c, 0, 76, 88
2, 70377, Note_on_c, 0, 64, 0
2, 70377, Note_on_c, 0, 57, 0
2, 70377, Note_on_c, 0, 52, 0
2, 70377, Note_on_c, 0, 60, 0
2, 70439, Note_on_c, 0, 76, 0
2, 70439, Note_on_c, 0, 72, 0
2, 70439, Note_on_c, 0, 69, 0
2, 70439, Note_on_c, 0, 64, 61
2, 70549, Note_on_c, 0, 64, 0
2, 70560, Note_on_c, 0, 45, 0
2, 70560, Note_on_c, 0, 33, 0
2, 70560, Note_on_c, 0, 33, 85
2, 70560, Note_on_c, 0, 45, 85
2, 71280, Note_on_c, 0, 52, 65
2, 71280, Note_on_c, 0, 55, 65
2, 71280, Note_on_c, 0, 57, 64
2, 71280, Note_on_c, 0, 60, 65
2, 71400, Note_on_c, 0, 67, 84
2, 71400, Note_on_c, 0, 69, 87
2, 71400, Note_on_c, 0, 72, 86
2, 71457, Note_on_c, 0, 60, 0
2, 71457, Note_on_c, 0, 55, 0
2, 71457, Note_on_c, 0, 52, 0
2, 71457, Note_on_c, 0, 57, 0
2, 71519, Note_on_c, 0, 72, 0
2, 71519, Note_on_c, 0, 69, 0
2, 71519, Note_on_c, 0, 67, 0
2, 71519, Note_on_c, 0, 64, 70
2, 71629, Note_on_c, 0, 64, 0
2, 71640, Note_on_c, 0, 50, 78
2, 71640, Note_on_c, 0, 53, 78
2, 71640, Note_on_c, 0, 57, 79
2, 71640, Note_on_c, 0, 62, 77
2, 71760, Note_on_c, 0, 65, 84
2, 71760, Note_on_c, 0, 69, 87
2, 71760, Note_on_c, 0, 74, 84
2, 71817, Note_on_c, 0, 62, 0
2, 71817, Note_on_c, 0, 53, 0
2, 71817, Note_on_c, 0, 50, 0
2, 71817, Note_on_c, 0, 57, 0
2, 71879, Note_on_c, 0, 74, 0
2, 71879, Note_on_c, 0, 69, 0
2, 71879, Note_on_c, 0, 65, 0
2, 71879, Note_on_c, 0, 62, 63
2, 71989, Note_on_c, 0, 62, 0
2, 72000, Note_on_c, 0, 45, 0
2, 72000, Note_on_c, 0, 33, 0
2, 72000, Note_on_c, 0, 28, 74
2, 72000, Note_on_c, 0, 40, 74
2, 72720, Note_on_c, 0, 50, 74
2, 72720, Note_on_c, 0, 56, 70
2, 72720, Note_on_c, 0, 59, 72
2, 72720, Note_on_c, 0, 62, 71
2, 72840, Note_on_c, 0, 68, 43
2, 72840, Note_on_c, 0, 71, 43
2, 72840, Note_on_c, 0, 74, 42
2, 72959, Note_on_c, 0, 74, 0
2, 72959, Note_on_c, 0, 71, 0
2, 72959, Note_on_c, 0, 68, 0
2, 72959, Note_on_c, 0, 62, 28
2, 73069, Note_on_c, 0, 62, 0
2, 73080, Note_on_c, 0, 64, 43
2, 73188, Note_on_c, 0, 64, 0
2, 73200, Note_on_c, 0, 65, 45
2, 73308, Note_on_c, 0, 65, 0
2, 73319, Note_on_c, 0, 62, 38
2, 73429, Note_on_c, 0, 62, 0
2, 73440, Note_on_c, 0, 59, 0
2, 73440, Note_on_c, 0, 40, 0
2, 73440, Note_on_c, 0, 50, 0
2, 73440, Note_on_c, 0, 56, 0
2, 73440, Note_on_c, 0, 62, 0
2, 73440, Note_on_c, 0, 28, 0
2, 73440, Note_on_c, 0, 48, 77
2, 73440, Note_on_c, 0, 52, 78
2, 73440, Note_on_c, 0, 56, 78
2, 73440, Note_on_c, 0, 60, 78
2, 73560, Note_on_c, 0, 68, 42
2, 73560, Note_on_c, 0, 72, 43
2, 73679, Note_on_c, 0, 72, 0
2, 73679, Note_on_c, 0, 68, 0
2, 73679, Note_on_c, 0, 62, 32
2, 73789, Note_on_c, 0, 62, 0
2, 73800, Note_on_c, 0, 64, 43
2, 73908, Note_on_c, 0, 64, 0
2, 73920, Note_on_c, 0, 65, 43
2, 74028, Note_on_c, 0, 65, 0
2, 74039, Note_on_c, 0, 62, 41
2, 74149, Note_on_c, 0, 62, 0
2, 74160, Note_on_c, 0, 56, 0
2, 74160, Note_on_c, 0, 48, 0
2, 74160, Note_on_c, 0, 52, 0
2, 74160, Note_on_c, 0, 60, 0
2, 74160, Note_on_c, 0, 50, 80
2, 74160, Note_on_c, 0, 56, 79
2, 74160, Note_on_c, 0, 59, 78
2, 74160, Note_on_c, 0, 62, 81
2, 74280, Note_on_c, 0, 68, 42
2, 74280, Note_on_c, 0, 71, 41
2, 74280, Note_on_c, 0, 74, 43
2, 74337, Note_on_c, 0, 62, 0
2, 74337, Note_on_c, 0, 59, 0
2, 74337, Note_on_c, 0, 50, 0
2, 74337, Note_on_c, 0, 56, 0
2, 74399, Note_on_c, 0, 74, 0
2, 74399, Note_on_c, 0, 68, 0
2, 74399, Note_on_c, 0, 71, 0
2, 74399, Note_on_c, 0, 62, 29
2, 74509, Note_on_c, 0, 62, 0
2, 74520, Note_on_c, 0, 52, 81
2, 74520, Note_on_c, 0, 56, 79
2, 74520, Note_on_c, 0, 60, 79
2, 74520, Note_on_c, 0, 64, 78
2, 74640, Note_on_c, 0, 68, 45
2, 74640, Note_on_c, 0, 72, 41
2, 74640, Note_on_c, 0, 76, 42
2, 74697, Note_on_c, 0, 64, 0
2, 74697, Note_on_c, 0, 60, 0
2, 74697, Note_on_c, 0, 52, 0
2, 74697, Note_on_c, 0, 56, 0
2, 74759, Note_on_c, 0, 76, 0
2, 74759, Note_on_c, 0, 68, 0
2, 74759, Note_on_c, 0, 72, 0
2, 74759, Note_on_c, 0, 64, 28
2, 74869, Note_on_c, 0, 64, 0
2, 74880, Note_on_c, 0, 28, 80
2, 74880, Note_on_c, 0, 40, 79
2, 75600, Note_on_c, 0, 48, 72
2, 75600, Note_on_c, 0, 52, 74
2, 75600, Note_on_c, 0, 56, 70
2, 75600, Note_on_c, 0, 60, 72
2, 75720, Note_on_c, 0, 68, 44
2, 75720, Note_on_c, 0, 72, 43
2, 75839, Note_on_c, 0, 72, 0
2, 75839, Note_on_c, 0, 68, 0
2, 75839, Note_on_c, 0, 62, 30
2, 75949, Note_on_c, 0, 62, 0
2, 75960, Note_on_c, 0, 64, 44
2, 76068, Note_on_c, 0, 64, 0
2, 76080, Note_on_c, 0, 65, 45
2, 76188, Note_on_c, 0, 65, 0
2, 76199, Note_on_c, 0, 62, 41
2, 76309, Note_on_c, 0, 62, 0
2, 76320, Note_on_c, 0, 56, 0
2, 76320, Note_on_c, 0, 40, 0
2, 76320, Note_on_c, 0, 48, 0
2, 76320, Note_on_c, 0, 52, 0
2, 76320, Note_on_c, 0, 60, 0
2, 76320, Note_on_c, 0, 28, 0
2, 76320, Note_on_c, 0, 47, 79
2, 76320, Note_on_c, 0, 52, 79
2, 76320, Note_on_c, 0, 56, 78
2, 76320, Note_on_c, 0, 59, 77
2, 76440, Note_on_c, 0, 68, 44
2, 76440, Note_on_c, 0, 71, 44
2, 76559, Note_on_c, 0, 71, 0
2, 76559, Note_on_c, 0, 68, 0
2, 76559, Note_on_c, 0, 62, 33
2, 76669, Note_on_c, 0, 62, 0
2, 76680, Note_on_c, 0, 64, 45
2, 76788, Note_on_c, 0, 64, 0
2, 76800, Note_on_c, 0, 65, 46
2, 76908, Note_on_c, 0, 65, 0
2, 76919, Note_on_c, 0, 62, 39
2, 77029, Note_on_c, 0, 62, 0
2, 77040, Note_on_c, 0, 56, 0
2, 77040, Note_on_c, 0, 47, 0
2, 77040, Note_on_c, 0, 52, 0
2, 77040, Note_on_c, 0, 59, 0
2, 77040, Note_on_c, 0, 48, 79
2, 77040, Note_on_c, 0, 52, 79
2, 77040, Note_on_c, 0, 56, 80
2, 77040, Note_on_c, 0, 60, 80
2, 77160, Note_on_c, 0, 64, 45
2, 77160, Note_on_c, 0, 68, 44
2, 77160, Note_on_c, 0, 72, 44
2, 77217, Note_on_c, 0, 60, 0
2, 77217, Note_on_c, 0, 56, 0
2, 77217, Note_on_c, 0, 48, 0
2, 77217, Note_on_c, 0, 52, 0
2, 77279, Note_on_c, 0, 72, 0
2, 77279, Note_on_c, 0, 64, 0
2, 77279, Note_on_c, 0, 68, 0
2, 77279, Note_on_c, 0, 62, 69
2, 77389, Note_on_c, 0, 62, 0
2, 77400, Note_on_c, 0, 50, 81
2, 77400, Note_on_c, 0, 52, 82
2, 77400, Note_on_c, 0, 56, 79
2, 77400, Note_on_c, 0, 62, 78
2, 77520, Note_on_c, 0, 64, 87
2, 77520, Note_on_c, 0, 68, 85
2, 77520, Note_on_c, 0, 74, 86
2, 77577, Note_on_c, 0, 62, 0
2, 77577, Note_on_c, 0, 56, 0
2, 77577, Note_on_c, 0, 50, 0
2, 77577, Note_on_c, 0, 52, 0
2, 77639, Note_on_c, 0, 74, 0
2, 77639, Note_on_c, 0, 64, 0
2, 77639, Note_on_c, 0, 68, 0
2, 77639, Note_on_c, 0, 62, 62
2, 77749, Note_on_c, 0, 62, 0
2, 77760, Note_on_c, 0, 28, 84
2, 77760, Note_on_c, 0, 40, 86
2, 78480, Note_on_c, 0, 47, 65
2, 78480, Note_on_c, 0, 52, 66
2, 78480, Note_on_c, 0, 55, 65
2, 78480, Note_on_c, 0, 59, 66
2, 78600, Note_on_c, 0, 64, 43
2, 78600, Note_on_c, 0, 67, 44
2, 78600, Note_on_c, 0, 71, 43
2, 78719, Note_on_c, 0, 71, 0
2, 78719, Note_on_c, 0, 67, 0
2, 78719, Note_on_c, 0, 64, 0
2, 78719, Note_on_c, 0, 60, 28
2, 78829, Note_on_c, 0, 60, 0
2, 78840, Note_on_c, 0, 62, 43
2, 78948, Note_on_c, 0, 62, 0
2, 78960, Note_on_c, 0, 64, 48
2, 79068, Note_on_c, 0, 64, 0
2, 79079, Note_on_c, 0, 60, 40
2, 79130, Note_on_c, 0, 59, 0
2, 79130, Note_on_c, 0, 52, 0
2, 79130, Note_on_c, 0, 47, 0
2, 79130, Note_on_c, 0, 55, 0
2, 79189, Note_on_c, 0, 60, 0
2, 79200, Note_on_c, 0, 40, 0
2, 79200, Note_on_c, 0, 28, 0
2, 79200, Note_on_c, 0, 45, 76
2, 79200, Note_on_c, 0, 52, 78
2, 79200, Note_on_c, 0, 54, 76
2, 79200, Note_on_c, 0, 57, 78
2, 79320, Note_on_c, 0, 64, 41
2, 79320, Note_on_c, 0, 66, 45
2, 79320, Note_on_c, 0, 69, 42
2, 79439, Note_on_c, 0, 69, 0
2, 79439, Note_on_c, 0, 64, 0
2, 79439, Note_on_c, 0, 66, 0
2, 79439, Note_on_c, 0, 60, 31
2, 79549, Note_on_c, 0, 60, 0
2, 79560, Note_on_c, 0, 62, 43
2, 79668, Note_on_c, 0, 62, 0
2, 79680, Note_on_c, 0, 64, 46
2, 79788, Note_on_c, 0, 64, 0
2, 79799, Note_on_c, 0, 60, 39
2, 79909, Note_on_c, 0, 60, 0
2, 79920, Note_on_c, 0, 54, 0
2, 79920, Note_on_c, 0, 45, 0
2, 79920, Note_on_c, 0, 52, 0
2, 79920, Note_on_c, 0, 57, 0
2, 79920, Note_on_c, 0, 47, 77
2, 79920, Note_on_c, 0, 52, 79
2, 79920, Note_on_c, 0, 55, 79
2, 79920, Note_on_c, 0, 59, 77
2, 80040, Note_on_c, 0, 64, 42
2, 80040, Note_on_c, 0, 67, 45
2, 80040, Note_on_c, 0, 71, 42
2, 80097, Note_on_c, 0, 59, 0
2, 80097, Note_on_c, 0, 55, 0
2, 80097, Note_on_c, 0, 47, 0
2, 80097, Note_on_c, 0, 52, 0
2, 80159, Note_on_c, 0, 71, 0
2, 80159, Note_on_c, 0, 64, 0
2, 80159, Note_on_c, 0, 67, 0
2, 80159, Note_on_c, 0, 59, 64
2, 80269, Note_on_c, 0, 59, 0
2, 80280, Note_on_c, 0, 48, 78
2, 80280, Note_on_c, 0, 52, 78
2, 80280, Note_on_c, 0, 57, 80
2, 80280, Note_on_c, 0, 60, 81
2, 80400, Note_on_c, 0, 64, 86
2, 80400, Note_on_c, 0, 69, 85
2, 80400, Note_on_c, 0, 72, 86
2, 80457, Note_on_c, 0, 60, 0
2, 80457, Note_on_c, 0, 57, 0
2, 80457, Note_on_c, 0, 48, 0
2, 80457, Note_on_c, 0, 52, 0
2, 80519, Note_on_c, 0, 72, 0
2, 80519, Note_on_c, 0, 64, 0
2, 80519, Note_on_c, 0, 69, 0
2, 80519, Note_on_c, 0, 60, 62
2, 80629, Note_on_c, 0, 60, 0
2, 80640, Note_on_c, 0, 28, 83
2, 80640, Note_on_c, 0, 40, 83
2, 81360, Note_on_c, 0, 48, 66
2, 81360, Note_on_c, 0, 52, 67
2, 81360, Note_on_c, 0, 54, 66
2, 81360, Note_on_c, 0, 57, 65
2, 81480, Note_on_c, 0, 64, 86
2, 81480, Note_on_c, 0, 66, 84
2, 81480, Note_on_c, 0, 69, 85
2, 81537, Note_on_c, 0, 57, 0
2, 81537, Note_on_c, 0, 52, 0
2, 81537, Note_on_c, 0, 48, 0
2, 81537, Note_on_c, 0, 54, 0
2, 81599, Note_on_c, 0, 69, 0
2, 81599, Note_on_c, 0, 66, 0
2, 81599, Note_on_c, 0, 64, 0
2, 81599, Note_on_c, 0, 60, 68
2, 81709, Note_on_c, 0, 60, 0
2, 81720, Note_on_c, 0, 47, 78
2, 81720, Note_on_c, 0, 52, 78
2, 81720, Note_on_c, 0, 55, 77
2, 81720, Note_on_c, 0, 59, 79
2, 81840, Note_on_c, 0, 64, 86
2, 81840, Note_on_c, 0, 67, 86
2, 81840, Note_on_c, 0, 71, 85
2, 81897, Note_on_c, 0, 59, 0
2, 81897, Note_on_c, 0, 52, 0
2, 81897, Note_on_c, 0, 47, 0
2, 81897, Note_on_c, 0, 55, 0
2, 81959, Note_on_c, 0, 71, 0
2, 81959, Note_on_c, 0, 67, 0
2, 81959, Note_on_c, 0, 64, 0
2, 81959, Note_on_c, 0, 59, 64
2, 82069, Note_on_c, 0, 59, 0
2, 82080, Note_on_c, 0, 40, 0
2, 82080, Note_on_c, 0, 28, 0
2, 82080, Note_on_c, 0, 28, 85
2, 82080, Note_on_c, 0, 40, 86
2, 82800, Note_on_c, 0, 46, 66
2, 82800, Note_on_c, 0, 50, 64
2, 82800, Note_on_c, 0, 52, 66
2, 82800, Note_on_c, 0, 55, 64
2, 82920, Note_on_c, 0, 62, 86
2, 82920, Note_on_c, 0, 64, 87
2, 82920, Note_on_c, 0, 67, 84
2, 82977, Note_on_c, 0, 55, 0
2, 82977, Note_on_c, 0, 50, 0
2, 82977, Note_on_c, 0, 46, 0
2, 82977, Note_on_c, 0, 52, 0
2, 83039, Note_on_c, 0, 67, 0
2, 83039, Note_on_c, 0, 64, 0
2, 83039, Note_on_c, 0, 62, 0
2, 83039, Note_on_c, 0, 58, 70
2, 83149, Note_on_c, 0, 58, 0
2, 83160, Note_on_c, 0, 45, 78
2, 83160, Note_on_c, 0, 49, 77
2, 83160, Note_on_c, 0, 52, 78
2, 83160, Note_on_c, 0, 57, 77
2, 83280, Note_on_c, 0, 61, 88
2, 83280, Note_on_c, 0, 64, 85
2, 83280, Note_on_c, 0, 69, 88
2, 83337, Note_on_c, 0, 57, 0
2, 83337, Note_on_c, 0, 49, 0
2, 83337, Note_on_c, 0, 45, 0
2, 83337, Note_on_c, 0, 52, 0
2, 83399, Note_on_c, 0, 69, 0
2, 83399, Note_on_c, 0, 64, 0
2, 83399, Note_on_c, 0, 61, 0
2, 83399, Note_on_c, 0, 57, 63
2, 83509, Note_on_c, 0, 57, 0
2, 83520, Note_on_c, 0, 40, 0
2, 83520, Note_on_c, 0, 28, 0
2, 83520, Control_c, 0, 64, 127
2, 83520, Note_on_c, 0, 38, 57
2, 83520, Note_on_c, 0, 45, 56
2, 83628, Note_on_c, 0, 45, 0
2, 83628, Note_on_c, 0, 38, 0
2, 83640, Note_on_c, 0, 50, 83
2, 83700, Note_on_c, 0, 53, 37
2, 83748, Note_on_c, 0, 50, 0
2, 83759, Note_on_c, 0, 45, 64
2, 83863, Note_on_c, 0, 53, 0
2, 83869, Note_on_c, 0, 45, 0
2, 83880, Note_on_c, 0, 57, 56
2, 83880, Note_on_c, 0, 65, 55
2, 83880, Note_on_c, 0, 60, 58
2, 83880, Note_on_c, 0, 38, 60
2, 84043, Note_on_c, 0, 65, 0
2, 84043, Note_on_c, 0, 57, 0
2, 84060, Note_on_c, 0, 53, 32
2, 84205, Note_on_c, 0, 60, 0
2, 84205, Note_on_c, 0, 38, 0
2, 84223, Note_on_c, 0, 53, 0
2, 84240, Note_on_c, 0, 33, 77
2, 84240, Note_on_c, 0, 38, 77
2, 84348, Note_on_c, 0, 38, 0
2, 84348, Note_on_c, 0, 33, 0
2, 84360, Note_on_c, 0, 45, 90
2, 84420, Note_on_c, 0, 53, 38
2, 84468, Note_on_c, 0, 45, 0
2, 84479, Note_on_c, 0, 38, 65
2, 84583, Note_on_c, 0, 53, 0
2, 84589, Note_on_c, 0, 38, 0
2, 84600, Note_on_c, 0, 57, 55
2, 84600, Note_on_c, 0, 65, 56
2, 84600, Note_on_c, 0, 62, 62
2, 84600, Note_on_c, 0, 33, 60
2, 84600, Control_c, 0, 64, 0
2, 84763, Note_on_c, 0, 65, 0
2, 84763, Note_on_c, 0, 57, 0
2, 84780, Note_on_c, 0, 53, 34
2, 84925, Note_on_c, 0, 62, 0
2, 84925, Note_on_c, 0, 33, 0
2, 84943, Note_on_c, 0, 53, 0
2, 84960, Control_c, 0, 64, 127
2, 84960, Note_on_c, 0, 45, 96
2, 84960, Note_on_c, 0, 50, 100
2, 85068, Note_on_c, 0, 50, 0
2, 85068, Note_on_c, 0, 45, 0
2, 85080, Note_on_c, 0, 57, 92
2, 85188, Note_on_c, 0, 57, 0
2, 85199, Note_on_c, 0, 50, 63
2, 85309, Note_on_c, 0, 50, 0
2, 85320, Note_on_c, 0, 62, 42
2, 85320, Note_on_c, 0, 69, 45
2, 85320, Note_on_c, 0, 64, 67
2, 85320, Note_on_c, 0, 45, 61
2, 85483, Note_on_c, 0, 69, 0
2, 85483, Note_on_c, 0, 62, 0
2, 85500, Note_on_c, 0, 57, 38
2, 85645, Note_on_c, 0, 64, 0
2, 85645, Note_on_c, 0, 45, 0
2, 85663, Note_on_c, 0, 57, 0
2, 85680, Note_on_c, 0, 38, 76
2, 85680, Note_on_c, 0, 45, 77
2, 85788, Note_on_c, 0, 45, 0
2, 85788, Note_on_c, 0, 38, 0
2, 85800, Note_on_c, 0, 50, 86
2, 85860, Note_on_c, 0, 57, 51
2, 85908, Note_on_c, 0, 50, 0
2, 85919, Note_on_c, 0, 45, 66
2, 86023, Note_on_c, 0, 57, 0
2, 86029, Note_on_c, 0, 45, 0
2, 86040, Note_on_c, 0, 62, 81
2, 86040, Note_on_c, 0, 69, 81
2, 86040, Note_on_c, 0, 65, 78
2, 86040, Note_on_c, 0, 38, 60
2, 86040, Control_c, 0, 64, 0
2, 86203, Note_on_c, 0, 69, 0
2, 86203, Note_on_c, 0, 62, 0
2, 86220, Note_on_c, 0, 57, 49
2, 86365, Note_on_c, 0, 65, 0
2, 86365, Note_on_c, 0, 38, 0
2, 86383, Note_on_c, 0, 57, 0
2, 86400, Control_c, 0, 64, 127
2, 86400, Note_on_c, 0, 48, 99
2, 86400, Note_on_c, 0, 55, 97
2, 86508, Note_on_c, 0, 55, 0
2, 86508, Note_on_c, 0, 48, 0
2, 86520, Note_on_c, 0, 60, 88
2, 86580, Note_on_c, 0, 63, 64
2, 86628, Note_on_c, 0, 60, 0
2, 86639, Note_on_c, 0, 55, 66
2, 86743, Note_on_c, 0, 63, 0
2, 86749, Note_on_c, 0, 55, 0
2, 86760, Note_on_c, 0, 67, 97
2, 86760, Note_on_c, 0, 77, 100
2, 86760, Note_on_c, 0, 70, 91
2, 86760, Note_on_c, 0, 48, 61
2, 86923, Note_on_c, 0, 77, 0
2, 86923, Note_on_c, 0, 67, 0
2, 86940, Note_on_c, 0, 63, 62
2, 87085, Note_on_c, 0, 70, 0
2, 87085, Note_on_c, 0, 48, 0
2, 87103, Note_on_c, 0, 63, 0
2, 87120, Note_on_c, 0, 41, 75
2, 87120, Note_on_c, 0, 48, 74
2, 87228, Note_on_c, 0, 48, 0
2, 87228, Note_on_c, 0, 41, 0
2, 87240, Note_on_c, 0, 57, 91
2, 87300, Note_on_c, 0, 63, 79
2, 87348, Note_on_c, 0, 57, 0
2, 87359, Note_on_c, 0, 48, 58
2, 87463, Note_on_c, 0, 63, 0
2, 87469, Note_on_c, 0, 48, 0
2, 87480, Note_on_c, 0, 69, 115
2, 87480, Note_on_c, 0, 77, 114
2, 87480, Note_on_c, 0, 72, 102
2, 87480, Note_on_c, 0, 41, 59
2, 87480, Control_c, 0, 64, 0
2, 87643, Note_on_c, 0, 77, 0
2, 87643, Note_on_c, 0, 69, 0
2, 87660, Note_on_c, 0, 63, 67
2, 87805, Note_on_c, 0, 72, 0
2, 87805, Note_on_c, 0, 41, 0
2, 87823, Note_on_c, 0, 63, 0
2, 87840, Control_c, 0, 64, 127
2, 87840, Note_on_c, 0, 46, 95
2, 87840, Note_on_c, 0, 53, 98
2, 87948, Note_on_c, 0, 53, 0
2, 87948, Note_on_c, 0, 46, 0
2, 87960, Note_on_c, 0, 58, 88
2, 88020, Note_on_c, 0, 62, 64
2, 88068, Note_on_c, 0, 58, 0
2, 88079, Note_on_c, 0, 53, 65
2, 88183, Note_on_c, 0, 62, 0
2, 88189, Note_on_c, 0, 53, 0
2, 88200, Note_on_c, 0, 65, 95
2, 88200, Note_on_c, 0, 74, 93
2, 88200, Note_on_c, 0, 69, 87
2, 88200, Note_on_c, 0, 46, 57
2, 88363, Note_on_c, 0, 74, 0
2, 88363, Note_on_c, 0, 65, 0
2, 88380, Note_on_c, 0, 62, 58
2, 88525, Note_on_c, 0, 69, 0
2, 88525, Note_on_c, 0, 46, 0
2, 88543, Note_on_c, 0, 62, 0
2, 88560, Note_on_c, 0, 41, 74
2, 88560, Note_on_c, 0, 46, 75
2, 88668, Note_on_c, 0, 46, 0
2, 88668, Note_on_c, 0, 41, 0
2, 88680, Note_on_c, 0, 53, 89
2, 88740, Note_on_c, 0, 62, 67
2, 88788, Note_on_c, 0, 53, 0
2, 88799, Note_on_c, 0, 46, 63
2, 88903, Note_on_c, 0, 62, 0
2, 88909, Note_on_c, 0, 46, 0
2, 88920, Note_on_c, 0, 65, 95
2, 88920, Note_on_c, 0, 74, 96
2, 88920, Note_on_c, 0, 70, 88
2, 88920, Note_on_c, 0, 41, 61
2, 88920, Control_c, 0, 64, 0
2, 89083, Note_on_c, 0, 74, 0
2, 89083, Note_on_c, 0, 65, 0
2, 89100, Note_on_c, 0, 62, 57
2, 89245, Note_on_c, 0, 70, 0
2, 89245, Note_on_c, 0, 41, 0
2, 89263, Note_on_c, 0, 62, 0
2, 89280, Control_c, 0, 64, 127
2, 89280, Note_on_c, 0, 53, 98
2, 89280, Note_on_c, 0, 62, 97
2, 89388, Note_on_c, 0, 62, 0
2, 89388, Note_on_c, 0, 53, 0
2, 89400, Note_on_c, 0, 65, 85
2, 89508, Note_on_c, 0, 65, 0
2, 89519, Note_on_c, 0, 62, 71
2, 89629, Note_on_c, 0, 62, 0
2, 89640, Note_on_c, 0, 70, 68
2, 89640, Note_on_c, 0, 77, 68
2, 89640, Note_on_c, 0, 72, 93
2, 89640, Note_on_c, 0, 53, 54
2, 89803, Note_on_c, 0, 77, 0
2, 89803, Note_on_c, 0, 70, 0
2, 89820, Note_on_c, 0, 65, 54
2, 89965, Note_on_c, 0, 72, 0
2, 89965, Note_on_c, 0, 53, 0
2, 89983, Note_on_c, 0, 65, 0
2, 90000, Note_on_c, 0, 46, 74
2, 90000, Note_on_c, 0, 53, 72
2, 90108, Note_on_c, 0, 53, 0
2, 90108, Note_on_c, 0, 46, 0
2, 90120, Note_on_c, 0, 60, 91
2, 90180, Note_on_c, 0, 65, 74
2, 90228, Note_on_c, 0, 60, 0
2, 90239, Note_on_c, 0, 53, 62
2, 90343, Note_on_c, 0, 65, 0
2, 90349, Note_on_c, 0, 53, 0
2, 90360, Note_on_c, 0, 70, 105
2, 90360, Note_on_c, 0, 77, 105
2, 90360, Note_on_c, 0, 74, 98
2, 90360, Control_c, 0, 64, 0
2, 90360, Note_on_c, 0, 46, 60
2, 90523, Note_on_c, 0, 77, 0
2, 90523, Note_on_c, 0, 70, 0
2, 90540, Note_on_c, 0, 65, 66
2, 90685, Note_on_c, 0, 74, 0
2, 90685, Note_on_c, 0, 46, 0
2, 90703, Note_on_c, 0, 65, 0
2, 90720, Control_c, 0, 64, 127
2, 90720, Note_on_c, 0, 60, 96
2, 90720, Note_on_c, 0, 65, 97
2, 90828, Note_on_c, 0, 65, 0
2, 90828, Note_on_c, 0, 60, 0
2, 90840, Note_on_c, 0, 72, 92
2, 90900, Note_on_c, 0, 68, 80
2, 90948, Note_on_c, 0, 72, 0
2, 90959, Note_on_c, 0, 65, 63
2, 91063, Note_on_c, 0, 68, 0
2, 91069, Note_on_c, 0, 65, 0
2, 91080, Note_on_c, 0, 72, 117
2, 91080, Note_on_c, 0, 82, 115
2, 91080, Note_on_c, 0, 75, 103
2, 91080, Note_on_c, 0, 60, 63
2, 91243, Note_on_c, 0, 82, 0
2, 91243, Note_on_c, 0, 72, 0
2, 91260, Note_on_c, 0, 68, 68
2, 91405, Note_on_c, 0, 75, 0
2, 91405, Note_on_c, 0, 60, 0
2, 91423, Note_on_c, 0, 68, 0
2, 91440, Control_c, 0, 64, 0
2, 91440, Note_on_c, 0, 53, 83
2, 91440, Note_on_c, 0, 62, 83
2, 91548, Note_on_c, 0, 62, 0
2, 91548, Note_on_c, 0, 53, 0
2, 91560, Note_on_c, 0, 65, 80
2, 91620, Note_on_c, 0, 68, 81
2, 91668, Note_on_c, 0, 65, 0
2, 91679, Note_on_c, 0, 62, 68
2, 91783, Note_on_c, 0, 68, 0
2, 91789, Note_on_c, 0, 62, 0
2, 91800, Note_on_c, 0, 74, 114
2, 91800, Note_on_c, 0, 82, 115
2, 91800, Note_on_c, 0, 77, 102
2, 91800, Note_on_c, 0, 53, 57
2, 91963, Note_on_c, 0, 82, 0
2, 91963, Note_on_c, 0, 74, 0
2, 91980, Note_on_c, 0, 68, 69
2, 92125, Note_on_c, 0, 77, 0
2, 92125, Note_on_c, 0, 53, 0
2, 92143, Note_on_c, 0, 68, 0
2, 92160, Control_c, 0, 64, 127
2, 92160, Note_on_c, 0, 39, 61
2, 92160, Note_on_c, 0, 46, 60
2, 92268, Note_on_c, 0, 46, 0
2, 92268, Note_on_c, 0, 39, 0
2, 92280, Note_on_c, 0, 51, 84
2, 92340, Note_on_c, 0, 55, 81
2, 92388, Note_on_c, 0, 51, 0
2, 92399, Note_on_c, 0, 46, 66
2, 92503, Note_on_c, 0, 55, 0
2, 92509, Note_on_c, 0, 46, 0
2, 92520, Note_on_c, 0, 58, 114
2, 92520, Note_on_c, 0, 67, 115
2, 92520, Note_on_c, 0, 62, 102
2, 92520, Note_on_c, 0, 39, 61
2, 92683, Note_on_c, 0, 67, 0
2, 92683, Note_on_c, 0, 58, 0
2, 92700, Note_on_c, 0, 55, 67
2, 92845, Note_on_c, 0, 62, 0
2, 92845, Note_on_c, 0, 39, 0
2, 92863, Note_on_c, 0, 55, 0
2, 92880, Note_on_c, 0, 34, 75
2, 92880, Note_on_c, 0, 39, 76
2, 92988, Note_on_c, 0, 39, 0
2, 92988, Note_on_c, 0, 34, 0
2, 93000, Note_on_c, 0, 46, 87
2, 93060, Note_on_c, 0, 55, 80
2, 93108, Note_on_c, 0, 46, 0
2, 93119, Note_on_c, 0, 39, 62
2, 93223, Note_on_c, 0, 55, 0
2, 93229, Note_on_c, 0, 39, 0
2, 93240, Note_on_c, 0, 58, 114
2, 93240, Note_on_c, 0, 70, 114
2, 93240, Note_on_c, 0, 63, 105
2, 93240, Note_on_c, 0, 34, 61
2, 93240, Control_c, 0, 64, 0
2, 93403, Note_on_c, 0, 70, 0
2, 93403, Note_on_c, 0, 58, 0
2, 93420, Note_on_c, 0, 55, 69
2, 93565, Note_on_c, 0, 63, 0
2, 93565, Note_on_c, 0, 34, 0
2, 93583, Note_on_c, 0, 55, 0
2, 93600, Control_c, 0, 64, 127
2, 93600, Note_on_c, 0, 46, 100
2, 93600, Note_on_c, 0, 55, 97
2, 93708, Note_on_c, 0, 55, 0
2, 93708, Note_on_c, 0, 46, 0
2, 93720, Note_on_c, 0, 58, 85
2, 93828, Note_on_c, 0, 58, 0
2, 93839, Note_on_c, 0, 55, 70
2, 93949, Note_on_c, 0, 55, 0
2, 93960, Note_on_c, 0, 63, 81
2, 93960, Note_on_c, 0, 70, 82
2, 93960, Note_on_c, 0, 65, 102
2, 93960, Note_on_c, 0, 46, 57
2, 94123, Note_on_c, 0, 70, 0
2, 94123, Note_on_c, 0, 63, 0
2, 94140, Note_on_c, 0, 58, 63
2, 94285, Note_on_c, 0, 65, 0
2, 94285, Note_on_c, 0, 46, 0
2, 94303, Note_on_c, 0, 58, 0
2, 94320, Control_c, 0, 64, 0
2, 94320, Note_on_c, 0, 39, 73
2, 94320, Note_on_c, 0, 46, 75
2, 94428, Note_on_c, 0, 46, 0
2, 94428, Note_on_c, 0, 39, 0
2, 94440, Note_on_c, 0, 51, 87
2, 94500, Note_on_c, 0, 63, 80
2, 94548, Note_on_c, 0, 51, 0
2, 94559, Note_on_c, 0, 46, 65
2, 94663, Note_on_c, 0, 63, 0
2, 94669, Note_on_c, 0, 46, 0
2, 94680, Note_on_c, 0, 75, 115
2, 94680, Note_on_c, 0, 67, 102
2, 94680, Note_on_c, 0, 39, 59
2, 94843, Note_on_c, 0, 75, 0
2, 94860, Note_on_c, 0, 58, 70
2, 95005, Note_on_c, 0, 39, 0
2, 95005, Note_on_c, 0, 67, 0
2, 95023, Note_on_c, 0, 58, 0
2, 95040, Control_c, 0, 64, 127
2, 95040, Note_on_c, 0, 55, 95
2, 95040, Note_on_c, 0, 63, 97
2, 95148, Note_on_c, 0, 63, 0
2, 95148, Note_on_c, 0, 55, 0
2, 95160, Note_on_c, 0, 67, 85
2, 95268, Note_on_c, 0, 67, 0
2, 95279, Note_on_c, 0, 63, 67
2, 95389, Note_on_c, 0, 63, 0
2, 95400, Note_on_c, 0, 70, 80
2, 95400, Note_on_c, 0, 79, 81
2, 95400, Note_on_c, 0, 74, 104
2, 95400, Note_on_c, 0, 55, 56
2, 95563, Note_on_c, 0, 79, 0
2, 95563, Note_on_c, 0, 70, 0
2, 95580, Note_on_c, 0, 67, 63
2, 95725, Note_on_c, 0, 74, 0
2, 95725, Note_on_c, 0, 55, 0
2, 95743, Note_on_c, 0, 67, 0
2, 95760, Control_c, 0, 64, 0
2, 95760, Note_on_c, 0, 46, 76
2, 95760, Note_on_c, 0, 55, 74
2, 95868, Note_on_c, 0, 55, 0
2, 95868, Note_on_c, 0, 46, 0
2, 95880, Note_on_c, 0, 58, 80
2, 95940, Note_on_c, 0, 67, 82
2, 95988, Note_on_c, 0, 58, 0
2, 95999, Note_on_c, 0, 55, 68
2, 96103, Note_on_c, 0, 67, 0
2, 96109, Note_on_c, 0, 55, 0
2, 96120, Note_on_c, 0, 70, 116
2, 96120, Note_on_c, 0, 82, 113
2, 96120, Note_on_c, 0, 75, 103
2, 96120, Note_on_c, 0, 46, 55
2, 96283, Note_on_c, 0, 82, 0
2, 96283, Note_on_c, 0, 70, 0
2, 96300, Note_on_c, 0, 67, 68
2, 96445, Note_on_c, 0, 75, 0
2, 96445, Note_on_c, 0, 46, 0
2, 96463, Note_on_c, 0, 67, 0
2, 96480, Control_c, 0, 64, 127
2, 96480, Note_on_c, 0, 58, 95
2, 96480, Note_on_c, 0, 67, 96
2, 96588, Note_on_c, 0, 67, 0
2, 96588, Note_on_c, 0, 58, 0
2, 96600, Note_on_c, 0, 70, 84
2, 96708, Note_on_c, 0, 70, 0
2, 96719, Note_on_c, 0, 67, 69
2, 96829, Note_on_c, 0, 67, 0
2, 96840, Note_on_c, 0, 75, 81
2, 96840, Note_on_c, 0, 82, 80
2, 96840, Note_on_c, 0, 77, 101
2, 96840, Note_on_c, 0, 58, 57
2, 97003, Note_on_c, 0, 82, 0
2, 97003, Note_on_c, 0, 75, 0
2, 97020, Note_on_c, 0, 70, 63
2, 97165, Note_on_c, 0, 77, 0
2, 97165, Note_on_c, 0, 58, 0
2, 97183, Note_on_c, 0, 70, 0
2, 97200, Note_on_c, 0, 55, 85
2, 97200, Note_on_c, 0, 63, 83
2, 97308, Note_on_c, 0, 63, 0
2, 97308, Note_on_c, 0, 55, 0
2, 97320, Note_on_c, 0, 67, 84
2, 97380, Note_on_c, 0, 75, 79
2, 97428, Note_on_c, 0, 67, 0
2, 97439, Note_on_c, 0, 63, 69
2, 97543, Note_on_c, 0, 75, 0
2, 97549, Note_on_c, 0, 63, 0
2, 97560, Note_on_c, 0, 87, 114
2, 97560, Note_on_c, 0, 79, 102
2, 97560, Note_on_c, 0, 55, 58
2, 97560, Control_c, 0, 64, 0
2, 97723, Note_on_c, 0, 87, 0
2, 97740, Note_on_c, 0, 75, 70
2, 97885, Note_on_c, 0, 55, 0
2, 97885, Note_on_c, 0, 79, 0
2, 97903, Note_on_c, 0, 75, 0
2, 97920, Note_on_c, 0, 94, 122
2, 97920, Note_on_c, 0, 63, 95
2, 97920, Note_on_c, 0, 70, 97
2, 98028, Note_on_c, 0, 94, 0
2, 98040, Note_on_c, 0, 87, 88
2, 98148, Note_on_c, 0, 87, 0
2, 98159, Note_on_c, 0, 94, 122
2, 98269, Note_on_c, 0, 94, 0
2, 98280, Note_on_c, 0, 82, 78
2, 98495, Note_on_c, 0, 82, 0
2, 98495, Note_on_c, 0, 70, 0
2, 98495, Note_on_c, 0, 63, 0
2, 98519, Note_on_c, 0, 75, 79
2, 98519, Note_on_c, 0, 65, 71
2, 98519, Note_on_c, 0, 68, 70
2, 98629, Note_on_c, 0, 68, 0
2, 98629, Note_on_c, 0, 65, 0
2, 98629, Note_on_c, 0, 75, 0
2, 98640, Note_on_c, 0, 82, 119
2, 98640, Note_on_c, 0, 63, 103
2, 98640, Note_on_c, 0, 70, 106
2, 98748, Note_on_c, 0, 82, 0
2, 98760, Note_on_c, 0, 70, 77
2, 98868, Note_on_c, 0, 70, 0
2, 98879, Note_on_c, 0, 82, 122
2, 98989, Note_on_c, 0, 82, 0
2, 99000, Note_on_c, 0, 75, 89
2, 99108, Note_on_c, 0, 75, 0
2, 99120, Note_on_c, 0, 82, 122
2, 99228, Note_on_c, 0, 82, 0
2, 99239, Note_on_c, 0, 82, 107
2, 99349, Note_on_c, 0, 82, 0
2, 99360, Note_on_c, 0, 94, 122
2, 99468, Note_on_c, 0, 94, 0
2, 99480, Note_on_c, 0, 87, 90
2, 99588, Note_on_c, 0, 87, 0
2, 99599, Note_on_c, 0, 94, 120
2, 99709, Note_on_c, 0, 94, 0
2, 99720, Note_on_c, 0, 82, 76
2, 99935, Note_on_c, 0, 82, 0
2, 99935, Note_on_c, 0, 70, 0
2, 99935, Note_on_c, 0, 63, 0
2, 99959, Note_on_c, 0, 75, 80
2, 99959, Note_on_c, 0, 65, 68
2, 99959, Note_on_c, 0, 68, 71
2, 100069, Note_on_c, 0, 68, 0
2, 100069, Note_on_c, 0, 65, 0
2, 100069, Note_on_c, 0, 75, 0
2, 100080, Note_on_c, 0, 82, 121
2, 100080, Note_on_c, 0, 63, 105
2, 100080, Note_on_c, 0, 70, 107
2, 100188, Note_on_c, 0, 82, 0
2, 100200, Note_on_c, 0, 70, 78
2, 100308, Note_on_c, 0, 70, 0
2, 100319, Note_on_c, 0, 82, 122
2, 100429, Note_on_c, 0, 82, 0
2, 100440, Note_on_c, 0, 75, 92
2, 100548, Note_on_c, 0, 75, 0
2, 100560, Note_on_c, 0, 82, 122
2, 100668, Note_on_c, 0, 82, 0
2, 100679, Note_on_c, 0, 82, 107
2, 100789, Note_on_c, 0, 82, 0
2, 100800, Note_on_c, 0, 94, 122
2, 100908, Note_on_c, 0, 94, 0
2, 100920, Note_on_c, 0, 87, 89
2, 101028, Note_on_c, 0, 87, 0
2, 101039, Note_on_c, 0, 94, 122
2, 101149, Note_on_c, 0, 94, 0
2, 101160, Note_on_c, 0, 82, 77
2, 101268, Note_on_c, 0, 82, 0
2, 101280, Note_on_c, 0, 82, 99
2, 101375, Note_on_c, 0, 70, 0
2, 101375, Note_on_c, 0, 63, 0
2, 101388, Note_on_c, 0, 82, 0
2, 101399, Note_on_c, 0, 75, 87
2, 101399, Note_on_c, 0, 65, 69
2, 101399, Note_on_c, 0, 68, 69
2, 101509, Note_on_c, 0, 68, 0
2, 101509, Note_on_c, 0, 65, 0
2, 101509, Note_on_c, 0, 75, 0
2, 101520, Note_on_c, 0, 82, 122
2, 101520, Note_on_c, 0, 63, 105
2, 101520, Note_on_c, 0, 70, 104
2, 101628, Note_on_c, 0, 82, 0
2, 101640, Note_on_c, 0, 70, 79
2, 101748, Note_on_c, 0, 70, 0
2, 101759, Note_on_c, 0, 82, 122
2, 101869, Note_on_c, 0, 82, 0
2, 101880, Note_on_c, 0, 75, 90
2, 101988, Note_on_c, 0, 75, 0
2, 102000, Note_on_c, 0, 82, 122
2, 102095, Note_on_c, 0, 70, 0
2, 102095, Note_on_c, 0, 63, 0
2, 102108, Note_on_c, 0, 82, 0
2, 102119, Note_on_c, 0, 82, 107
2, 102119, Note_on_c, 0, 53, 52
2, 102119, Note_on_c, 0, 56, 54
2, 102229, Note_on_c, 0, 56, 0
2, 102229, Note_on_c, 0, 53, 0
2, 102229, Note_on_c, 0, 82, 0
2, 102240, Note_on_c, 0, 94, 122
2, 102240, Note_on_c, 0, 51, 105
2, 102240, Note_on_c, 0, 58, 106
2, 102348, Note_on_c, 0, 94, 0
2, 102360, Note_on_c, 0, 87, 90
2, 102468, Note_on_c, 0, 87, 0
2, 102479, Note_on_c, 0, 94, 121
2, 102589, Note_on_c, 0, 94, 0
2, 102600, Note_on_c, 0, 82, 79
2, 102708, Note_on_c, 0, 82, 0
2, 102720, Note_on_c, 0, 94, 122
2, 102815, Note_on_c, 0, 58, 0
2, 102815, Note_on_c, 0, 51, 0
2, 102828, Note_on_c, 0, 94, 0
2, 102839, Note_on_c, 0, 87, 89
2, 102839, Note_on_c, 0, 41, 51
2, 102839, Note_on_c, 0, 44, 52
2, 102949, Note_on_c, 0, 44, 0
2, 102949, Note_on_c, 0, 41, 0
2, 102949, Note_on_c, 0, 87, 0
2, 102960, Note_on_c, 0, 94, 122
2, 102960, Note_on_c, 0, 39, 101
2, 102960, Note_on_c, 0, 46, 99
2, 103068, Note_on_c, 0, 94, 0
2, 103080, Note_on_c, 0, 82, 78
2, 103188, Note_on_c, 0, 82, 0
2, 103199, Note_on_c, 0, 94, 122
2, 103309, Note_on_c, 0, 94, 0
2, 103320, Note_on_c, 0, 87, 91
2, 103428, Note_on_c, 0, 87, 0
2, 103440, Note_on_c, 0, 94, 122
2, 103535, Note_on_c, 0, 46, 0
2, 103535, Note_on_c, 0, 39, 0
2, 103548, Note_on_c, 0, 94, 0
2, 103559, Note_on_c, 0, 82, 80
2, 103559, Note_on_c, 0, 39, 69
2, 103559, Note_on_c, 0, 43, 69
2, 103669, Note_on_c, 0, 43, 0
2, 103669, Note_on_c, 0, 39, 0
2, 103669, Note_on_c, 0, 82, 0
2, 103680, Note_on_c, 0, 33, 89
2, 103680, Note_on_c, 0, 45, 89
2, 104040, Note_on_c, 0, 52, 65
2, 104040, Note_on_c, 0, 57, 66
2, 104040, Note_on_c, 0, 59, 66
2, 104040, Note_on_c, 0, 62, 64
2, 104160, Note_on_c, 0, 81, 94
2, 104160, Note_on_c, 0, 83, 93
2, 104160, Note_on_c, 0, 86, 94
2, 104268, Note_on_c, 0, 86, 0
2, 104268, Note_on_c, 0, 83, 0
2, 104268, Note_on_c, 0, 81, 0
2, 104279, Note_on_c, 0, 74, 74
2, 104365, Note_on_c, 0, 59, 0
2, 104365, Note_on_c, 0, 57, 0
2, 104365, Note_on_c, 0, 52, 0
2, 104365, Note_on_c, 0, 62, 0
2, 104389, Note_on_c, 0, 74, 0
2, 104400, Note_on_c, 0, 52, 77
2, 104400, Note_on_c, 0, 57, 78
2, 104400, Note_on_c, 0, 61, 77
2, 104400, Note_on_c, 0, 64, 79
2, 104520, Note_on_c, 0, 81, 93
2, 104520, Note_on_c, 0, 85, 93
2, 104520, Note_on_c, 0, 88, 95
2, 104628, Note_on_c, 0, 88, 0
2, 104628, Note_on_c, 0, 85, 0
2, 104628, Note_on_c, 0, 81, 0
2, 104639, Note_on_c, 0, 76, 73
2, 104725, Note_on_c, 0, 61, 0
2, 104725, Note_on_c, 0, 57, 0
2, 104725, Note_on_c, 0, 52, 0
2, 104725, Note_on_c, 0, 64, 0
2, 104749, Note_on_c, 0, 76, 0
2, 104760, Note_on_c, 0, 53, 74
2, 104760, Note_on_c, 0, 57, 73
2, 104760, Note_on_c, 0, 61, 75
2, 104760, Note_on_c, 0, 64, 76
2, 104880, Note_on_c, 0, 85, 93
2, 104880, Note_on_c, 0, 88, 94
2, 104880, Note_on_c, 0, 91, 96
2, 104988, Note_on_c, 0, 91, 0
2, 104988, Note_on_c, 0, 88, 0
2, 104988, Note_on_c, 0, 85, 0
2, 104999, Note_on_c, 0, 79, 73
2, 105050, Note_on_c, 0, 33, 0
2, 105050, Note_on_c, 0, 45, 0
2, 105085, Note_on_c, 0, 64, 0
2, 105085, Note_on_c, 0, 61, 0
2, 105085, Note_on_c, 0, 57, 0
2, 105085, Note_on_c, 0, 53, 0
2, 105109, Note_on_c, 0, 79, 0
2, 105120, Note_on_c, 0, 57, 87
2, 105120, Note_on_c, 0, 61, 90
2, 105120, Note_on_c, 0, 65, 89
2, 105120, Note_on_c, 0, 69, 88
2, 105240, Note_on_c, 0, 85, 94
2, 105240, Note_on_c, 0, 89, 92
2, 105240, Note_on_c, 0, 93, 94
2, 105348, Note_on_c, 0, 93, 0
2, 105348, Note_on_c, 0, 85, 0
2, 105348, Note_on_c, 0, 89, 0
2, 105359, Note_on_c, 0, 81, 73
2, 105445, Note_on_c, 0, 65, 0
2, 105445, Note_on_c, 0, 69, 0
2, 105445, Note_on_c, 0, 57, 0
2, 105445, Note_on_c, 0, 61, 0
2, 105469, Note_on_c, 0, 81, 0
2, 105480, Note_on_c, 0, 52, 62
2, 105480, Note_on_c, 0, 57, 63
2, 105480, Note_on_c, 0, 59, 61
2, 105480, Note_on_c, 0, 62, 62
2, 105600, Note_on_c, 0, 81, 95
2, 105600, Note_on_c, 0, 83, 95
2, 105600, Note_on_c, 0, 86, 94
2, 105708, Note_on_c, 0, 86, 0
2, 105708, Note_on_c, 0, 81, 0
2, 105708, Note_on_c, 0, 83, 0
2, 105719, Note_on_c, 0, 74, 74
2, 105805, Note_on_c, 0, 59, 0
2, 105805, Note_on_c, 0, 62, 0
2, 105805, Note_on_c, 0, 52, 0
2, 105805, Note_on_c, 0, 57, 0
2, 105829, Note_on_c, 0, 74, 0
2, 105840, Note_on_c, 0, 52, 79
2, 105840, Note_on_c, 0, 57, 78
2, 105840, Note_on_c, 0, 61, 79
2, 105840, Note_on_c, 0, 64, 77
2, 105960, Note_on_c, 0, 81, 94
2, 105960, Note_on_c, 0, 85, 92
2, 105960, Note_on_c, 0, 88, 92
2, 106068, Note_on_c, 0, 88, 0
2, 106068, Note_on_c, 0, 81, 0
2, 106068, Note_on_c, 0, 85, 0
2, 106079, Note_on_c, 0, 76, 72
2, 106165, Note_on_c, 0, 61, 0
2, 106165, Note_on_c, 0, 64, 0
2, 106165, Note_on_c, 0, 52, 0
2, 106165, Note_on_c, 0, 57, 0
2, 106189, Note_on_c, 0, 76, 0
2, 106200, Note_on_c, 0, 52, 67
2, 106200, Note_on_c, 0, 55, 70
2, 106200, Note_on_c, 0, 61, 69
2, 106320, Note_on_c, 0, 73, 92
2, 106320, Note_on_c, 0, 76, 95
2, 106320, Note_on_c, 0, 79, 92
2, 106428, Note_on_c, 0, 79, 0
2, 106428, Note_on_c, 0, 73, 0
2, 106428, Note_on_c, 0, 76, 0
2, 106439, Note_on_c, 0, 67, 74
2, 106525, Note_on_c, 0, 52, 0
2, 106525, Note_on_c, 0, 55, 0
2, 106525, Note_on_c, 0, 61, 0
2, 106549, Note_on_c, 0, 67, 0
2, 106560, Note_on_c, 0, 53, 75
2, 106560, Note_on_c, 0, 57, 75
2, 106560, Note_on_c, 0, 61, 77
2, 106680, Note_on_c, 0, 73, 92
2, 106680, Note_on_c, 0, 77, 96
2, 106680, Note_on_c, 0, 81, 92
2, 106788, Note_on_c, 0, 81, 0
2, 106788, Note_on_c, 0, 73, 0
2, 106788, Note_on_c, 0, 77, 0
2, 106799, Note_on_c, 0, 69, 74
2, 106885, Note_on_c, 0, 53, 0
2, 106885, Note_on_c, 0, 57, 0
2, 106885, Note_on_c, 0, 61, 0
2, 106909, Note_on_c, 0, 69, 0
2, 106920, Note_on_c, 0, 47, 65
2, 106920, Note_on_c, 0, 50, 66
2, 106920, Note_on_c, 0, 57, 64
2, 107040, Note_on_c, 0, 69, 95
2, 107040, Note_on_c, 0, 71, 94
2, 107040, Note_on_c, 0, 74, 95
2, 107148, Note_on_c, 0, 74, 0
2, 107148, Note_on_c, 0, 69, 0
2, 107148, Note_on_c, 0, 71, 0
2, 107159, Note_on_c, 0, 62, 72
2, 107245, Note_on_c, 0, 47, 0
2, 107245, Note_on_c, 0, 50, 0
2, 107245, Note_on_c, 0, 57, 0
2, 107269, Note_on_c, 0, 62, 0
2, 107280, Note_on_c, 0, 49, 75
2, 107280, Note_on_c, 0, 52, 72
2, 107280, Note_on_c, 0, 57, 72
2, 107400, Note_on_c, 0, 69, 93
2, 107400, Note_on_c, 0, 73, 95
2, 107400, Note_on_c, 0, 76, 95
2, 107508, Note_on_c, 0, 76, 0
2, 107508, Note_on_c, 0, 69, 0
2, 107508, Note_on_c, 0, 73, 0
2, 107519, Note_on_c, 0, 64, 72
2, 107605, Note_on_c, 0, 49, 0
2, 107605, Note_on_c, 0, 52, 0
2, 107605, Note_on_c, 0, 57, 0
2, 107629, Note_on_c, 0, 64, 0
2, 107640, Note_on_c, 0, 45, 66
2, 107640, Note_on_c, 0, 49, 62
2, 107640, Note_on_c, 0, 52, 66
2, 107760, Note_on_c, 0, 61, 94
2, 107760, Note_on_c, 0, 64, 93
2, 107760, Note_on_c, 0, 67, 94
2, 107868, Note_on_c, 0, 67, 0
2, 107868, Note_on_c, 0, 61, 0
2, 107868, Note_on_c, 0, 64, 0
2, 107879, Note_on_c, 0, 55, 74
2, 107965, Note_on_c, 0, 45, 0
2, 107965, Note_on_c, 0, 49, 0
2, 107965, Note_on_c, 0, 52, 0
2, 107989, Note_on_c, 0, 55, 0
2, 108000, Note_on_c, 0, 49, 79
2, 108000, Note_on_c, 0, 53, 81
2, 108120, Note_on_c, 0, 61, 93
2, 108120, Note_on_c, 0, 65, 95
2, 108120, Note_on_c, 0, 69, 95
2, 108228, Note_on_c, 0, 69, 0
2, 108228, Note_on_c, 0, 61, 0
2, 108228, Note_on_c, 0, 65, 0
2, 108239, Note_on_c, 0, 57, 72
2, 108325, Note_on_c, 0, 53, 0
2, 108325, Note_on_c, 0, 49, 0
2, 108349, Note_on_c, 0, 57, 0
2, 108360, Note_on_c, 0, 41, 59
2, 108360, Note_on_c, 0, 45, 58
2, 108480, Note_on_c, 0, 57, 92
2, 108480, Note_on_c, 0, 59, 94
2, 108480, Note_on_c, 0, 62, 92
2, 108588, Note_on_c, 0, 62, 0
2, 108588, Note_on_c, 0, 57, 0
2, 108588, Note_on_c, 0, 59, 0
2, 108599, Note_on_c, 0, 50, 75
2, 108685, Note_on_c, 0, 45, 0
2, 108685, Note_on_c, 0, 41, 0
2, 108709, Note_on_c, 0, 50, 0
2, 108720, Note_on_c, 0, 40, 82
2, 108720, Note_on_c, 0, 49, 81
2, 108840, Note_on_c, 0, 57, 95
2, 108840, Note_on_c, 0, 61, 95
2, 108840, Note_on_c, 0, 64, 92
2, 108948, Note_on_c, 0, 64, 0
2, 108948, Note_on_c, 0, 57, 0
2, 108948, Note_on_c, 0, 61, 0
2, 108959, Note_on_c, 0, 52, 74
2, 109045, Note_on_c, 0, 49, 0
2, 109045, Note_on_c, 0, 40, 0
2, 109069, Note_on_c, 0, 52, 0
2, 109080, Note_on_c, 0, 40, 56
2, 109200, Note_on_c, 0, 52, 94
2, 109308, Note_on_c, 0, 52, 0
2, 109319, Note_on_c, 0, 45, 83
2, 109405, Note_on_c, 0, 40, 0
2, 109429, Note_on_c, 0, 45, 0
2, 109440, Note_on_c, 0, 57, 87
2, 109440, Note_on_c, 0, 33, 106
2, 109440, Note_on_c, 0, 45, 106
2, 109800, Note_on_c, 0, 52, 92
2, 109800, Note_on_c, 0, 40, 66
2, 109908, Note_on_c, 0, 40, 0
2, 109908, Note_on_c, 0, 52, 0
2, 109920, Note_on_c, 0, 43, 79
2, 109920, Note_on_c, 0, 31, 55
2, 110028, Note_on_c, 0, 31, 0
2, 110028, Note_on_c, 0, 43, 0
2, 110039, Note_on_c, 0, 52, 122
2, 110039, Note_on_c, 0, 40, 90
2, 110149, Note_on_c, 0, 40, 0
2, 110149, Note_on_c, 0, 52, 0
2, 110160, Note_on_c, 0, 57, 122
2, 110160, Note_on_c, 0, 45, 90
2, 110268, Note_on_c, 0, 45, 0
2, 110268, Note_on_c, 0, 57, 0
2, 110280, Note_on_c, 0, 52, 93
2, 110280, Note_on_c, 0, 40, 68
2, 110388, Note_on_c, 0, 40, 0
2, 110388, Note_on_c, 0, 52, 0
2, 110399, Note_on_c, 0, 57, 119
2, 110399, Note_on_c, 0, 45, 83
2, 110450, Note_on_c, 0, 45, 0
2, 110450, Note_on_c, 0, 33, 0
2, 110450, Note_on_c, 0, 57, 0
2, 110509, Note_on_c, 0, 57, 0
2, 110509, Note_on_c, 0, 45, 0
2, 110520, Note_on_c, 0, 64, 122
2, 110520, Note_on_c, 0, 64, 122
2, 110520, Note_on_c, 0, 52, 94
2, 110520, Note_on_c, 0, 52, 119
2, 110628, Note_on_c, 0, 52, 0
2, 110628, Note_on_c, 0, 64, 0
2, 110640, Note_on_c, 0, 57, 88
2, 110640, Note_on_c, 0, 45, 62
2, 110748, Note_on_c, 0, 45, 0
2, 110748, Note_on_c, 0, 57, 0
2, 110759, Note_on_c, 0, 52, 90
2, 110759, Note_on_c, 0, 40, 64
2, 110845, Note_on_c, 0, 64, 0
2, 110845, Note_on_c, 0, 52, 0
2, 110869, Note_on_c, 0, 52, 0
2, 110869, Note_on_c, 0, 40, 0
2, 110880, Note_on_c, 0, 57, 105
2, 110880, Note_on_c, 0, 33, 86
2, 110880, Note_on_c, 0, 45, 87
2, 111240, Note_on_c, 0, 52, 96
2, 111240, Note_on_c, 0, 40, 65
2, 111348, Note_on_c, 0, 40, 0
2, 111348, Note_on_c, 0, 52, 0
2, 111360, Note_on_c, 0, 43, 79
2, 111360, Note_on_c, 0, 31, 57
2, 111468, Note_on_c, 0, 31, 0
2, 111468, Note_on_c, 0, 43, 0
2, 111479, Note_on_c, 0, 52, 122
2, 111479, Note_on_c, 0, 40, 91
2, 111589, Note_on_c, 0, 40, 0
2, 111589, Note_on_c, 0, 52, 0
2, 111600, Note_on_c, 0, 57, 122
2, 111600, Note_on_c, 0, 45, 86
2, 111708, Note_on_c, 0, 45, 0
2, 111708, Note_on_c, 0, 57, 0
2, 111720, Note_on_c, 0, 52, 92
2, 111720, Note_on_c, 0, 40, 67
2, 111828, Note_on_c, 0, 40, 0
2, 111828, Note_on_c, 0, 52, 0
2, 111839, Note_on_c, 0, 57, 118
2, 111839, Note_on_c, 0, 45, 84
2, 111890, Note_on_c, 0, 45, 0
2, 111890, Note_on_c, 0, 33, 0
2, 111890, Note_on_c, 0, 57, 0
2, 111949, Note_on_c, 0, 57, 0
2, 111949, Note_on_c, 0, 45, 0
2, 111960, Note_on_c, 0, 64, 122
2, 111960, Note_on_c, 0, 64, 120
2, 111960, Note_on_c, 0, 52, 95
2, 111960, Note_on_c, 0, 52, 117
2, 112068, Note_on_c, 0, 52, 0
2, 112068, Note_on_c, 0, 64, 0
2, 112080, Note_on_c, 0, 57, 88
2, 112080, Note_on_c, 0, 45, 65
2, 112188, Note_on_c, 0, 45, 0
2, 112188, Note_on_c, 0, 57, 0
2, 112199, Note_on_c, 0, 52, 89
2, 112199, Note_on_c, 0, 40, 60
2, 112285, Note_on_c, 0, 64, 0
2, 112285, Note_on_c, 0, 52, 0
2, 112309, Note_on_c, 0, 52, 0
2, 112309, Note_on_c, 0, 40, 0
2, 112320, Note_on_c, 0, 57, 122
2, 112320, Note_on_c, 0, 33, 113
2, 112320, Note_on_c, 0, 45, 115
2, 112970, Note_on_c, 0, 45, 0
2, 112970, Note_on_c, 0, 33, 0
2, 112970, Note_on_c, 0, 57, 0
2, 113040, Note_on_c, 0, 57, 120
2, 113040, Note_on_c, 0, 33, 102
2, 113040, Note_on_c, 0, 45, 100
2, 113690, Note_on_c, 0, 45, 0
2, 113690, Note_on_c, 0, 33, 0
2, 113690, Note_on_c, 0, 57, 0
2, 113760, Note_on_c, 0, 57, 122
2, 113760, Note_on_c, 0, 33, 104
2, 113760, Note_on_c, 0, 45, 101
2, 114410, Note_on_c, 0, 45, 0
2, 114410, Note_on_c, 0, 33, 0
2, 114410, Note_on_c, 0, 57, 0
2, 114480, Note_on_c, 0, 57, 122
2, 114480, Note_on_c, 0, 33, 102
2, 114480, Note_on_c, 0, 45, 102
2, 115130, Note_on_c, 0, 45, 0
2, 115130, Note_on_c, 0, 33, 0
2, 115130, Note_on_c, 0, 57, 0
2, 115200, Note_on_c, 0, 45, 121
2, 115200, Note_on_c, 0, 57, 117
2, 115200, Note_on_c, 0, 33, 54
2, 115525, Note_on_c, 0, 33, 0
2, 115560, Note_on_c, 0, 43, 88
2, 115649, Note_on_c, 0, 43, 0
2, 115830, Note_on_c, 0, 43, 64
2, 115912, Note_on_c, 0, 43, 0
2, 115920, Note_on_c, 0, 45, 77
2, 116183, Note_on_c, 0, 45, 0
2, 116280, Note_on_c, 0, 41, 61
2, 116369, Note_on_c, 0, 41, 0
2, 116550, Note_on_c, 0, 41, 53
2, 116632, Note_on_c, 0, 41, 0
2, 116640, Note_on_c, 0, 43, 73
2, 116903, Note_on_c, 0, 43, 0
2, 117000, Note_on_c, 0, 40, 51
2, 117089, Note_on_c, 0, 40, 0
2, 117270, Note_on_c, 0, 40, 45
2, 117352, Note_on_c, 0, 40, 0
2, 117360, Note_on_c, 0, 41, 58
2, 117623, Note_on_c, 0, 41, 0
2, 117720, Note_on_c, 0, 38, 44
2, 117809, Note_on_c, 0, 38, 0
2, 117990, Note_on_c, 0, 38, 36
2, 118072, Note_on_c, 0, 38, 0
2, 118080, Note_on_c, 0, 40, 53
2, 118343, Note_on_c, 0, 40, 0
2, 118440, Note_on_c, 0, 36, 42
2, 118440, Note_on_c, 0, 40, 43
2, 118529, Note_on_c, 0, 40, 0
2, 118529, Note_on_c, 0, 36, 0
2, 118710, Note_on_c, 0, 36, 38
2, 118710, Note_on_c, 0, 40, 38
2, 118792, Note_on_c, 0, 40, 0
2, 118792, Note_on_c, 0, 36, 0
2, 118800, Note_on_c, 0, 38, 44
2, 118800, Note_on_c, 0, 41, 45
2, 118977, Note_on_c, 0, 41, 0
2, 118977, Note_on_c, 0, 38, 0
2, 119160, Note_on_c, 0, 34, 40
2, 119160, Note_on_c, 0, 38, 42
2, 119249, Note_on_c, 0, 38, 0
2, 119249, Note_on_c, 0, 34, 0
2, 119430, Note_on_c, 0, 34, 39
2, 119430, Note_on_c, 0, 38, 37
2, 119512, Note_on_c, 0, 38, 0
2, 119512, Note_on_c, 0, 34, 0
2, 119520, Note_on_c, 0, 36, 49
2, 119520, Note_on_c, 0, 40, 49
2, 119697, Note_on_c, 0, 40, 0
2, 119697, Note_on_c, 0, 36, 0
2, 119880, Note_on_c, 0, 33, 37
2, 119880, Note_on_c, 0, 36, 38
2, 119969, Note_on_c, 0, 36, 0
2, 119969, Note_on_c, 0, 33, 0
2, 120150, Note_on_c, 0, 33, 37
2, 120150, Note_on_c, 0, 36, 37
2, 120232, Note_on_c, 0, 36, 0
2, 120232, Note_on_c, 0, 33, 0
2, 120240, Note_on_c, 0, 34, 45
2, 120240, Note_on_c, 0, 38, 45
2, 120417, Note_on_c, 0, 38, 0
2, 120417, Note_on_c, 0, 34, 0
2, 120600, Note_on_c, 0, 33, 39
2, 120689, Note_on_c, 0, 33, 0
2, 120870, Note_on_c, 0, 33, 39
2, 120890, Note_on_c, 0, 45, 0
2, 120890, Note_on_c, 0, 57, 0
2, 120952, Note_on_c, 0, 33, 0
2, 120960, Note_on_c, 0, 58, 122
2, 120960, Note_on_c, 0, 34, 57
2, 120960, Note_on_c, 0, 46, 58
2, 121285, Note_on_c, 0, 46, 0
2, 121285, Note_on_c, 0, 34, 0
2, 121285, Note_on_c, 0, 58, 0
2, 121320, Note_on_c, 0, 56, 84
2, 121483, Note_on_c, 0, 56, 0
2, 121590, Note_on_c, 0, 56, 80
2, 121672, Note_on_c, 0, 56, 0
2, 121680, Note_on_c, 0, 58, 121
2, 122005, Note_on_c, 0, 58, 0
2, 122040, Note_on_c, 0, 54, 85
2, 122203, Note_on_c, 0, 54, 0
2, 122310, Note_on_c, 0, 54, 80
2, 122392, Note_on_c, 0, 54, 0
2, 122400, Note_on_c, 0, 56, 121
2, 122725, Note_on_c, 0, 56, 0
2, 122760, Note_on_c, 0, 53, 84
2, 122923, Note_on_c, 0, 53, 0
2, 123030, Note_on_c, 0, 53, 83
2, 123112, Note_on_c, 0, 53, 0
2, 123120, Note_on_c, 0, 58, 122
2, 123120, Note_on_c, 0, 54, 74
2, 123120, Note_on_c, 0, 34, 53
2, 123445, Note_on_c, 0, 34, 0
2, 123445, Note_on_c, 0, 54, 0
2, 123445, Note_on_c, 0, 58, 0
2, 123480, Note_on_c, 0, 56, 85
2, 123480, Note_on_c, 0, 53, 45
2, 123643, Note_on_c, 0, 56, 0
2, 123750, Note_on_c, 0, 56, 82
2, 123832, Note_on_c, 0, 56, 0
2, 123840, Note_on_c, 0, 58, 121
2, 124165, Note_on_c, 0, 58, 0
2, 124200, Note_on_c, 0, 53, 0
2, 124200, Note_on_c, 0, 54, 85
2, 124200, Note_on_c, 0, 51, 45
2, 124363, Note_on_c, 0, 54, 0
2, 124470, Note_on_c, 0, 54, 79
2, 124552, Note_on_c, 0, 54, 0
2, 124560, Note_on_c, 0, 56, 122
2, 124885, Note_on_c, 0, 56, 0
2, 124920, Note_on_c, 0, 51, 0
2, 124920, Note_on_c, 0, 53, 85
2, 124920, Note_on_c, 0, 49, 46
2, 125083, Note_on_c, 0, 53, 0
2, 125190, Note_on_c, 0, 53, 81
2, 125272, Note_on_c, 0, 53, 0
2, 125280, Note_on_c, 0, 58, 122
2, 125280, Note_on_c, 0, 54, 83
2, 125280, Note_on_c, 0, 34, 61
2, 125605, Note_on_c, 0, 34, 0
2, 125605, Note_on_c, 0, 49, 0
2, 125605, Note_on_c, 0, 58, 0
2, 125605, Note_on_c, 0, 54, 0
2, 125640, Note_on_c, 0, 56, 87
2, 125640, Note_on_c, 0, 53, 84
2, 125640, Note_on_c, 0, 47, 39
2, 125803, Note_on_c, 0, 47, 0
2, 125803, Note_on_c, 0, 56, 0
2, 125910, Note_on_c, 0, 56, 80
2, 125910, Note_on_c, 0, 47, 40
2, 125992, Note_on_c, 0, 47, 0
2, 125992, Note_on_c, 0, 56, 0
2, 126000, Note_on_c, 0, 58, 122
2, 126000, Note_on_c, 0, 49, 70
2, 126290, Note_on_c, 0, 53, 0
2, 126325, Note_on_c, 0, 49, 0
2, 126325, Note_on_c, 0, 58, 0
2, 126360, Note_on_c, 0, 54, 84
2, 126360, Note_on_c, 0, 51, 85
2, 126360, Note_on_c, 0, 46, 41
2, 126523, Note_on_c, 0, 46, 0
2, 126523, Note_on_c, 0, 54, 0
2, 126630, Note_on_c, 0, 54, 82
2, 126630, Note_on_c, 0, 46, 38
2, 126712, Note_on_c, 0, 46, 0
2, 126712, Note_on_c, 0, 54, 0
2, 126720, Note_on_c, 0, 56, 122
2, 126720, Note_on_c, 0, 47, 72
2, 127010, Note_on_c, 0, 51, 0
2, 127045, Note_on_c, 0, 47, 0
2, 127045, Note_on_c, 0, 56, 0
2, 127080, Note_on_c, 0, 53, 88
2, 127080, Note_on_c, 0, 49, 82
2, 127080, Note_on_c, 0, 44, 41
2, 127243, Note_on_c, 0, 44, 0
2, 127243, Note_on_c, 0, 53, 0
2, 127350, Note_on_c, 0, 53, 82
2, 127350, Note_on_c, 0, 44, 37
2, 127432, Note_on_c, 0, 44, 0
2, 127432, Note_on_c, 0, 53, 0
2, 127440, Note_on_c, 0, 54, 122
2, 127440, Note_on_c, 0, 46, 48
2, 127765, Note_on_c, 0, 46, 0
2, 127765, Note_on_c, 0, 54, 0
2, 127765, Note_on_c, 0, 49, 0
2, 127800, Note_on_c, 0, 58, 109
2, 127800, Note_on_c, 0, 53, 103
2, 127800, Note_on_c, 0, 44, 39
2, 127800, Note_on_c, 0, 34, 60
2, 127963, Note_on_c, 0, 44, 0
2, 127963, Note_on_c, 0, 53, 0
2, 128070, Note_on_c, 0, 53, 80
2, 128070, Note_on_c, 0, 44, 40
2, 128152, Note_on_c, 0, 44, 0
2, 128152, Note_on_c, 0, 53, 0
2, 128160, Note_on_c, 0, 54, 95
2, 128160, Note_on_c, 0, 46, 73
2, 128485, Note_on_c, 0, 46, 0
2, 128485, Note_on_c, 0, 54, 0
2, 128520, Note_on_c, 0, 58, 0
2, 128520, Note_on_c, 0, 58, 97
2, 128520, Note_on_c, 0, 51, 81
2, 128520, Note_on_c, 0, 42, 42
2, 128683, Note_on_c, 0, 42, 0
2, 128683, Note_on_c, 0, 51, 0
2, 128790, Note_on_c, 0, 51, 79
2, 128790, Note_on_c, 0, 42, 37
2, 128872, Note_on_c, 0, 42, 0
2, 128872, Note_on_c, 0, 51, 0
2, 128880, Note_on_c, 0, 53, 94
2, 128880, Note_on_c, 0, 44, 70
2, 129205, Note_on_c, 0, 44, 0
2, 129205, Note_on_c, 0, 53, 0
2, 129240, Note_on_c, 0, 58, 0
2, 129240, Note_on_c, 0, 58, 97
2, 129240, Note_on_c, 0, 50, 84
2, 129240, Note_on_c, 0, 41, 43
2, 129403, Note_on_c, 0, 41, 0
2, 129403, Note_on_c, 0, 50, 0
2, 129510, Note_on_c, 0, 50, 79
2, 129510, Note_on_c, 0, 41, 39
2, 129592, Note_on_c, 0, 41, 0
2, 129592, Note_on_c, 0, 50, 0
2, 129600, Note_on_c, 0, 51, 122
2, 129600, Note_on_c, 0, 42, 72
2, 129925, Note_on_c, 0, 42, 0
2, 129925, Note_on_c, 0, 34, 0
2, 129925, Note_on_c, 0, 58, 0
2, 129925, Note_on_c, 0, 51, 0
2, 129960, Note_on_c, 0, 56, 86
2, 129960, Note_on_c, 0, 50, 92
2, 129960, Note_on_c, 0, 34, 45
2, 129960, Note_on_c, 0, 41, 45
2, 130123, Note_on_c, 0, 56, 0
2, 130230, Note_on_c, 0, 56, 77
2, 130312, Note_on_c, 0, 56, 0
2, 130320, Note_on_c, 0, 58, 90
2, 130497, Note_on_c, 0, 58, 0
2, 130680, Note_on_c, 0, 50, 0
2, 130680, Note_on_c, 0, 34, 0
2, 130680, Note_on_c, 0, 41, 0
2, 130680, Note_on_c, 0, 54, 75
2, 130680, Note_on_c, 0, 49, 81
2, 130680, Note_on_c, 0, 34, 45
2, 130680, Note_on_c, 0, 40, 48
2, 130843, Note_on_c, 0, 54, 0
2, 130950, Note_on_c, 0, 54, 71
2, 131032, Note_on_c, 0, 54, 0
2, 131040, Note_on_c, 0, 56, 81
2, 131217, Note_on_c, 0, 56, 0
2, 131400, Note_on_c, 0, 49, 0
2, 131400, Note_on_c, 0, 34, 0
2, 131400, Note_on_c, 0, 40, 0
2, 131400, Note_on_c, 0, 53, 69
2, 131400, Note_on_c, 0, 48, 74
2, 131400, Note_on_c, 0, 34, 47
2, 131400, Note_on_c, 0, 39, 46
2, 131563, Note_on_c, 0, 53, 0
2, 131670, Note_on_c, 0, 53, 61
2, 131752, Note_on_c, 0, 53, 0
2, 131760, Note_on_c, 0, 54, 97
2, 132085, Note_on_c, 0, 54, 0
2, 132085, Note_on_c, 0, 48, 0
2, 132120, Note_on_c, 0, 34, 0
2, 132120, Note_on_c, 0, 39, 0
2, 132120, Note_on_c, 0, 56, 71
2, 132120, Note_on_c, 0, 50, 68
2, 132120, Note_on_c, 0, 41, 45
2, 132283, Note_on_c, 0, 41, 0
2, 132283, Note_on_c, 0, 50, 0
2, 132390, Note_on_c, 0, 50, 51
2, 132390, Note_on_c, 0, 41, 39
2, 132472, Note_on_c, 0, 41, 0
2, 132472, Note_on_c, 0, 50, 0
2, 132480, Note_on_c, 0, 51, 57
2, 132480, Note_on_c, 0, 42, 70
2, 132805, Note_on_c, 0, 42, 0
2, 132805, Note_on_c, 0, 51, 0
2, 132840, Note_on_c, 0, 56, 0
2, 132840, Note_on_c, 0, 57, 64
2, 132840, Note_on_c, 0, 48, 47
2, 132840, Note_on_c, 0, 39, 43
2, 132840, Note_on_c, 0, 34, 44
2, 133003, Note_on_c, 0, 39, 0
2, 133003, Note_on_c, 0, 48, 0
2, 133110, Note_on_c, 0, 48, 42
2, 133110, Note_on_c, 0, 39, 39
2, 133192, Note_on_c, 0, 39, 0
2, 133192, Note_on_c, 0, 48, 0
2, 133200, Note_on_c, 0, 50, 51
2, 133200, Note_on_c, 0, 41, 72
2, 133525, Note_on_c, 0, 41, 0
2, 133525, Note_on_c, 0, 50, 0
2, 133560, Note_on_c, 0, 57, 0
2, 133560, Note_on_c, 0, 58, 51
2, 133560, Note_on_c, 0, 46, 41
2, 133560, Note_on_c, 0, 38, 41
2, 133723, Note_on_c, 0, 38, 0
2, 133830, Note_on_c, 0, 38, 39
2, 133912, Note_on_c, 0, 38, 0
2, 133920, Note_on_c, 0, 46, 62
2, 134245, Note_on_c, 0, 46, 0
2, 134245, Note_on_c, 0, 58, 0
2, 134280, Note_on_c, 0, 46, 0
2, 134280, Note_on_c, 0, 50, 48
2, 134280, Note_on_c, 0, 58, 49
2, 134280, Note_on_c, 0, 62, 48
2, 134280, Note_on_c, 0, 44, 41
2, 134443, Note_on_c, 0, 44, 0
2, 134550, Note_on_c, 0, 44, 37
2, 134632, Note_on_c, 0, 44, 0
2, 134640, Note_on_c, 0, 46, 70
2, 134930, Note_on_c, 0, 62, 0
2, 134930, Note_on_c, 0, 58, 0
2, 134930, Note_on_c, 0, 50, 0
2, 134965, Note_on_c, 0, 46, 0
2, 135000, Note_on_c, 0, 51, 48
2, 135000, Note_on_c, 0, 60, 46
2, 135000, Note_on_c, 0, 63, 47
2, 135000, Note_on_c, 0, 42, 42
2, 135163, Note_on_c, 0, 42, 0
2, 135270, Note_on_c, 0, 42, 39
2, 135352, Note_on_c, 0, 42, 0
2, 135360, Note_on_c, 0, 44, 72
2, 135650, Note_on_c, 0, 63, 0
2, 135650, Note_on_c, 0, 60, 0
2, 135650, Note_on_c, 0, 51, 0
2, 135685, Note_on_c, 0, 34, 0
2, 135685, Note_on_c, 0, 44, 0
2, 135720, Note_on_c, 0, 58, 53
2, 135720, Note_on_c, 0, 62, 53
2, 135720, Note_on_c, 0, 70, 54
2, 135720, Note_on_c, 0, 41, 43
2, 135720, Note_on_c, 0, 34, 44
2, 135883, Note_on_c, 0, 41, 0
2, 135990, Note_on_c, 0, 41, 39
2, 136072, Note_on_c, 0, 41, 0
2, 136080, Note_on_c, 0, 42, 54
2, 136405, Note_on_c, 0, 58, 0
2, 136405, Note_on_c, 0, 70, 0
2, 136405, Note_on_c, 0, 62, 0
2, 136440, Note_on_c, 0, 42, 0
2, 136440, Note_on_c, 0, 48, 31
2, 136440, Note_on_c, 0, 58, 31
2, 136440, Note_on_c, 0, 60, 32
2, 136440, Note_on_c, 0, 42, 43
2, 136603, Note_on_c, 0, 42, 0
2, 136710, Note_on_c, 0, 42, 37
2, 136792, Note_on_c, 0, 42, 0
2, 136800, Note_on_c, 0, 44, 70
2, 137090, Note_on_c, 0, 60, 0
2, 137090, Note_on_c, 0, 58, 0
2, 137090, Note_on_c, 0, 48, 0
2, 137125, Note_on_c, 0, 44, 0
2, 137160, Note_on_c, 0, 50, 46
2, 137160, Note_on_c, 0, 58, 42
2, 137160, Note_on_c, 0, 62, 44
2, 137160, Note_on_c, 0, 41, 44
2, 137323, Note_on_c, 0, 41, 0
2, 137430, Note_on_c, 0, 41, 38
2, 137512, Note_on_c, 0, 41, 0
2, 137520, Note_on_c, 0, 42, 71
2, 137810, Note_on_c, 0, 62, 0
2, 137810, Note_on_c, 0, 58, 0
2, 137810, Note_on_c, 0, 50, 0
2, 137845, Note_on_c, 0, 34, 0
2, 137845, Note_on_c, 0, 42, 0
2, 137880, Note_on_c, 0, 58, 52
2, 137880, Note_on_c, 0, 62, 51
2, 137880, Note_on_c, 0, 70, 51
2, 137880, Note_on_c, 0, 40, 43
2, 137880, Note_on_c, 0, 34, 41
2, 138043, Note_on_c, 0, 40, 0
2, 138150, Note_on_c, 0, 40, 36
2, 138232, Note_on_c, 0, 40, 0
2, 138240, Note_on_c, 0, 41, 53
2, 138565, Note_on_c, 0, 58, 0
2, 138565, Note_on_c, 0, 70, 0
2, 138565, Note_on_c, 0, 62, 0
2, 138600, Note_on_c, 0, 41, 0
2, 138600, Note_on_c, 0, 46, 28
2, 138600, Note_on_c, 0, 50, 29
2, 138600, Note_on_c, 0, 58, 30
2, 138600, Note_on_c, 0, 41, 43
2, 138763, Note_on_c, 0, 41, 0
2, 138870, Note_on_c, 0, 41, 39
2, 138952, Note_on_c, 0, 41, 0
2, 138960, Note_on_c, 0, 42, 69
2, 139250, Note_on_c, 0, 58, 0
2, 139250, Note_on_c, 0, 50, 0
2, 139250, Note_on_c, 0, 46, 0
2, 139285, Note_on_c, 0, 42, 0
2, 139320, Note_on_c, 0, 48, 43
2, 139320, Note_on_c, 0, 58, 44
2, 139320, Note_on_c, 0, 60, 44
2, 139320, Note_on_c, 0, 39, 41
2, 139483, Note_on_c, 0, 39, 0
2, 139590, Note_on_c, 0, 39, 38
2, 139672, Note_on_c, 0, 39, 0
2, 139680, Note_on_c, 0, 41, 69
2, 139970, Note_on_c, 0, 60, 0
2, 139970, Note_on_c, 0, 58, 0
2, 139970, Note_on_c, 0, 48, 0
2, 140005, Note_on_c, 0, 41, 0
2, 140040, Note_on_c, 0, 53, 48
2, 140040, Note_on_c, 0, 58, 50
2, 140040, Note_on_c, 0, 65, 48
2, 140040, Note_on_c, 0, 38, 44
2, 140203, Note_on_c, 0, 38, 0
2, 140310, Note_on_c, 0, 38, 38
2, 140330, Note_on_c, 0, 34, 0
2, 140392, Note_on_c, 0, 38, 0
2, 140400, Note_on_c, 0, 39, 55
2, 140400, Note_on_c, 0, 34, 44
2, 140760, Note_on_c, 0, 39, 0
2, 140760, Note_on_c, 0, 37, 39
2, 140923, Note_on_c, 0, 37, 0
2, 141030, Note_on_c, 0, 37, 39
2, 141050, Note_on_c, 0, 65, 0
2, 141050, Note_on_c, 0, 53, 0
2, 141050, Note_on_c, 0, 58, 0
2, 141112, Note_on_c, 0, 37, 0
2, 141120, Note_on_c, 0, 58, 34
2, 141120, Note_on_c, 0, 38, 69
2, 141445, Note_on_c, 0, 38, 0
2, 141445, Note_on_c, 0, 58, 0
2, 141445, Note_on_c, 0, 34, 0
2, 141480, Note_on_c, 0, 57, 38
2, 141480, Note_on_c, 0, 35, 40
2, 141643, Note_on_c, 0, 35, 0
2, 141750, Note_on_c, 0, 35, 37
2, 141832, Note_on_c, 0, 35, 0
2, 141840, Note_on_c, 0, 37, 72
2, 142165, Note_on_c, 0, 37, 0
2, 142165, Note_on_c, 0, 57, 0
2, 142200, Note_on_c, 0, 58, 47
2, 142200, Note_on_c, 0, 34, 42
2, 142363, Note_on_c, 0, 34, 0
2, 142470, Note_on_c, 0, 34, 38
2, 142525, Note_on_c, 0, 58, 0
2, 142552, Note_on_c, 0, 34, 0
2, 142560, Note_on_c, 0, 82, 42
2, 142560, Note_on_c, 0, 46, 57
2, 142737, Note_on_c, 0, 82, 0
2, 142885, Note_on_c, 0, 46, 0
2, 142920, Note_on_c, 0, 80, 28
2, 142920, Note_on_c, 0, 77, 28
2, 143083, Note_on_c, 0, 80, 0
2, 143190, Note_on_c, 0, 80, 26
2, 143272, Note_on_c, 0, 80, 0
2, 143280, Note_on_c, 0, 82, 31
2, 143457, Note_on_c, 0, 82, 0
2, 143570, Note_on_c, 0, 77, 0
2, 143640, Note_on_c, 0, 78, 31
2, 143640, Note_on_c, 0, 75, 28
2, 143640, Note_on_c, 0, 70, 39
2, 143803, Note_on_c, 0, 78, 0
2, 143817, Note_on_c, 0, 70, 0
2, 143910, Note_on_c, 0, 78, 25
2, 143992, Note_on_c, 0, 78, 0
2, 144000, Note_on_c, 0, 80, 31
2, 144000, Note_on_c, 0, 68, 39
2, 144163, Note_on_c, 0, 68, 0
2, 144177, Note_on_c, 0, 80, 0
2, 144270, Note_on_c, 0, 68, 39
2, 144290, Note_on_c, 0, 75, 0
2, 144352, Note_on_c, 0, 68, 0
2, 144360, Note_on_c, 0, 77, 32
2, 144360, Note_on_c, 0, 73, 26
2, 144360, Note_on_c, 0, 70, 44
2, 144523, Note_on_c, 0, 77, 0
2, 144537, Note_on_c, 0, 70, 0
2, 144630, Note_on_c, 0, 77, 25
2, 144712, Note_on_c, 0, 77, 0
2, 144720, Note_on_c, 0, 78, 33
2, 144720, Note_on_c, 0, 66, 43
2, 144883, Note_on_c, 0, 66, 0
2, 144897, Note_on_c, 0, 78, 0
2, 144990, Note_on_c, 0, 66, 39
2, 145045, Note_on_c, 0, 73, 0
2, 145072, Note_on_c, 0, 66, 0
2, 145080, Note_on_c, 0, 75, 25
2, 145080, Note_on_c, 0, 71, 26
2, 145080, Note_on_c, 0, 68, 47
2, 145243, Note_on_c, 0, 75, 0
2, 145257, Note_on_c, 0, 68, 0
2, 145350, Note_on_c, 0, 75, 26
2, 145405, Note_on_c, 0, 71, 0
2, 145432, Note_on_c, 0, 75, 0
2, 145440, Note_on_c, 0, 77, 32
2, 145440, Note_on_c, 0, 70, 29
2, 145440, Note_on_c, 0, 65, 42
2, 145440, Note_on_c, 0, 58, 36
2, 145603, Note_on_c, 0, 65, 0
2, 145617, Note_on_c, 0, 77, 0
2, 145710, Note_on_c, 0, 65, 37
2, 145765, Note_on_c, 0, 70, 0
2, 145765, Note_on_c, 0, 58, 0
2, 145792, Note_on_c, 0, 65, 0
2, 145800, Note_on_c, 0, 70, 27
2, 145800, Note_on_c, 0, 62, 21
2, 145800, Note_on_c, 0, 66, 46
2, 145800, Note_on_c, 0, 56, 39
2, 145963, Note_on_c, 0, 56, 0
2, 145977, Note_on_c, 0, 66, 0
2, 146070, Note_on_c, 0, 56, 38
2, 146125, Note_on_c, 0, 62, 0
2, 146152, Note_on_c, 0, 56, 0
2, 146160, Note_on_c, 0, 58, 31
2, 146160, Note_on_c, 0, 63, 28
2, 146160, Note_on_c, 0, 54, 31
2, 146160, Note_on_c, 0, 46, 31
2, 146323, Note_on_c, 0, 63, 0
2, 146323, Note_on_c, 0, 58, 0
2, 146337, Note_on_c, 0, 46, 0
2, 146430, Note_on_c, 0, 63, 28
2, 146485, Note_on_c, 0, 54, 0
2, 146512, Note_on_c, 0, 63, 0
2, 146520, Note_on_c, 0, 70, 0
2, 146520, Note_on_c, 0, 58, 35
2, 146520, Note_on_c, 0, 70, 32
2, 146520, Note_on_c, 0, 65, 32
2, 146520, Note_on_c, 0, 44, 36
2, 146683, Note_on_c, 0, 44, 0
2, 146790, Note_on_c, 0, 44, 38
2, 146845, Note_on_c, 0, 65, 0
2, 146872, Note_on_c, 0, 44, 0
2, 146880, Note_on_c, 0, 70, 0
2, 146880, Note_on_c, 0, 58, 0
2, 146880, Note_on_c, 0, 61, 27
2, 146880, Note_on_c, 0, 46, 50
2, 147043, Note_on_c, 0, 61, 0
2, 147057, Note_on_c, 0, 46, 0
2, 147150, Note_on_c, 0, 61, 26
2, 147232, Note_on_c, 0, 61, 0
2, 147240, Note_on_c, 0, 70, 26
2, 147240, Note_on_c, 0, 58, 30
2, 147240, Note_on_c, 0, 63, 31
2, 147240, Note_on_c, 0, 42, 38
2, 147403, Note_on_c, 0, 42, 0
2, 147417, Note_on_c, 0, 70, 0
2, 147510, Note_on_c, 0, 42, 36
2, 147565, Note_on_c, 0, 63, 0
2, 147565, Note_on_c, 0, 58, 0
2, 147592, Note_on_c, 0, 42, 0
2, 147600, Note_on_c, 0, 68, 27
2, 147600, Note_on_c, 0, 59, 27
2, 147600, Note_on_c, 0, 44, 47
2, 147689, Note_on_c, 0, 68, 0
2, 147763, Note_on_c, 0, 59, 0
2, 147777, Note_on_c, 0, 44, 0
2, 147870, Note_on_c, 0, 68, 25
2, 147870, Note_on_c, 0, 59, 26
2, 147952, Note_on_c, 0, 59, 0
2, 147952, Note_on_c, 0, 68, 0
2, 147960, Note_on_c, 0, 70, 29
2, 147960, Note_on_c, 0, 61, 31
2, 147960, Note_on_c, 0, 41, 38
2, 148123, Note_on_c, 0, 41, 0
2, 148137, Note_on_c, 0, 70, 0
2, 148230, Note_on_c, 0, 41, 40
2, 148285, Note_on_c, 0, 61, 0
2, 148312, Note_on_c, 0, 41, 0
2, 148320, Note_on_c, 0, 66, 27
2, 148320, Note_on_c, 0, 58, 26
2, 148320, Note_on_c, 0, 46, 61
2, 148320, Note_on_c, 0, 42, 47
2, 148483, Note_on_c, 0, 58, 0
2, 148483, Note_on_c, 0, 66, 0
2, 148497, Note_on_c, 0, 42, 0
2, 148590, Note_on_c, 0, 66, 24
2, 148590, Note_on_c, 0, 58, 26
2, 148645, Note_on_c, 0, 46, 0
2, 148672, Note_on_c, 0, 58, 0
2, 148672, Note_on_c, 0, 66, 0
2, 148680, Note_on_c, 0, 68, 31
2, 148680, Note_on_c, 0, 60, 33
2, 148680, Note_on_c, 0, 44, 39
2, 148680, Note_on_c, 0, 39, 39
2, 148843, Note_on_c, 0, 39, 0
2, 148843, Note_on_c, 0, 44, 0
2, 148857, Note_on_c, 0, 68, 0
2, 148950, Note_on_c, 0, 44, 40
2, 148950, Note_on_c, 0, 41, 36
2, 149005, Note_on_c, 0, 60, 0
2, 149032, Note_on_c, 0, 41, 0
2, 149032, Note_on_c, 0, 44, 0
2, 149040, Note_on_c, 0, 58, 45
2, 149040, Note_on_c, 0, 34, 48
2, 149040, Note_on_c, 0, 46, 49
2, 149217, Note_on_c, 0, 58, 0
2, 149365, Note_on_c, 0, 46, 0
2, 149365, Note_on_c, 0, 34, 0
2, 149400, Note_on_c, 0, 33, 28
2, 149563, Note_on_c, 0, 33, 0
2, 149670, Note_on_c, 0, 33, 40
2, 149752, Note_on_c, 0, 33, 0
2, 149760, Note_on_c, 0, 34, 43
2, 149937, Note_on_c, 0, 34, 0
2, 150120, Note_on_c, 0, 32, 42
2, 150283, Note_on_c, 0, 32, 0
2, 150390, Note_on_c, 0, 32, 38
2, 150472, Note_on_c, 0, 32, 0
2, 150480, Note_on_c, 0, 33, 42
2, 150657, Note_on_c, 0, 33, 0
2, 150840, Note_on_c, 0, 31, 44
2, 151003, Note_on_c, 0, 31, 0
2, 151110, Note_on_c, 0, 31, 39
2, 151192, Note_on_c, 0, 31, 0
2, 151200, Note_on_c, 0, 56, 70
2, 151200, Note_on_c, 0, 59, 69
2, 151200, Note_on_c, 0, 63, 69
2, 151200, Note_on_c, 0, 33, 46
2, 151308, Note_on_c, 0, 33, 0
2, 151308, Note_on_c, 0, 56, 0
2, 151308, Note_on_c, 0, 59, 0
2, 151308, Note_on_c, 0, 63, 0
2, 151439, Note_on_c, 0, 58, 64
2, 151439, Note_on_c, 0, 61, 67
2, 151439, Note_on_c, 0, 67, 67
2, 151439, Note_on_c, 0, 39, 36
2, 151439, Note_on_c, 0, 51, 37
2, 151549, Note_on_c, 0, 51, 0
2, 151549, Note_on_c, 0, 67, 0
2, 151549, Note_on_c, 0, 58, 0
2, 151549, Note_on_c, 0, 61, 0
2, 151549, Note_on_c, 0, 39, 0
2, 151560, Note_on_c, 0, 59, 85
2, 151560, Note_on_c, 0, 68, 85
2, 151560, Note_on_c, 0, 44, 48
2, 151560, Note_on_c, 0, 51, 48
2, 152280, Note_on_c, 0, 51, 0
2, 152280, Note_on_c, 0, 59, 0
2, 152280, Note_on_c, 0, 68, 0
2, 152280, Note_on_c, 0, 44, 0
2, 152280, Note_on_c, 0, 58, 62
2, 152280, Note_on_c, 0, 61, 64
2, 152280, Note_on_c, 0, 63, 64
2, 152280, Note_on_c, 0, 51, 48
2, 152280, Note_on_c, 0, 55, 47
2, 152457, Note_on_c, 0, 55, 0
2, 152457, Note_on_c, 0, 63, 0
2, 152457, Note_on_c, 0, 58, 0
2, 152457, Note_on_c, 0, 61, 0
2, 152457, Note_on_c, 0, 51, 0
2, 152640, Note_on_c, 0, 59, 45
2, 152640, Note_on_c, 0, 63, 43
2, 152640, Note_on_c, 0, 44, 49
2, 152640, Note_on_c, 0, 51, 51
2, 152640, Note_on_c, 0, 56, 50
2, 152817, Note_on_c, 0, 63, 0
2, 152817, Note_on_c, 0, 59, 0
2, 152965, Note_on_c, 0, 51, 0
2, 152965, Note_on_c, 0, 44, 0
2, 152965, Note_on_c, 0, 56, 0
2, 153000, Note_on_c, 0, 40, 23
2, 153000, Note_on_c, 0, 49, 24
2, 153108, Note_on_c, 0, 49, 0
2, 153108, Note_on_c, 0, 40, 0
2, 153239, Note_on_c, 0, 40, 25
2, 153239, Note_on_c, 0, 49, 27
2, 153349, Note_on_c, 0, 49, 0
2, 153349, Note_on_c, 0, 40, 0
2, 153360, Note_on_c, 0, 44, 32
2, 153360, Note_on_c, 0, 51, 31
2, 153685, Note_on_c, 0, 51, 0
2, 153685, Note_on_c, 0, 44, 0
2, 153720, Note_on_c, 0, 61, 39
2, 153720, Note_on_c, 0, 63, 37
2, 153720, Note_on_c, 0, 55, 67
2, 153720, Note_on_c, 0, 39, 21
2, 153828, Note_on_c, 0, 55, 0
2, 153840, Note_on_c, 0, 56, 75
2, 153897, Note_on_c, 0, 39, 0
2, 153948, Note_on_c, 0, 56, 0
2, 153959, Note_on_c, 0, 58, 80
2, 154045, Note_on_c, 0, 63, 0
2, 154045, Note_on_c, 0, 61, 0
2, 154069, Note_on_c, 0, 58, 0
2, 154080, Note_on_c, 0, 63, 46
2, 154080, Note_on_c, 0, 59, 81
2, 154080, Note_on_c, 0, 44, 34
2, 154257, Note_on_c, 0, 59, 0
2, 154257, Note_on_c, 0, 63, 0
2, 154405, Note_on_c, 0, 44, 0
2, 154440, Note_on_c, 0, 52, 38
2, 154440, Note_on_c, 0, 61, 40
2, 154548, Note_on_c, 0, 61, 0
2, 154548, Note_on_c, 0, 52, 0
2, 154679, Note_on_c, 0, 52, 28
2, 154679, Note_on_c, 0, 61, 24
2, 154789, Note_on_c, 0, 61, 0
2, 154789, Note_on_c, 0, 52, 0
2, 154800, Note_on_c, 0, 56, 29
2, 154800, Note_on_c, 0, 63, 32
2, 155125, Note_on_c, 0, 63, 0
2, 155125, Note_on_c, 0, 56, 0
2, 155160, Note_on_c, 0, 61, 40
2, 155160, Note_on_c, 0, 63, 36
2, 155160, Note_on_c, 0, 55, 71
2, 155160, Note_on_c, 0, 49, 23
2, 155268, Note_on_c, 0, 49, 0
2, 155268, Note_on_c, 0, 55, 0
2, 155280, Note_on_c, 0, 56, 79
2, 155280, Note_on_c, 0, 53, 31
2, 155388, Note_on_c, 0, 53, 0
2, 155388, Note_on_c, 0, 56, 0
2, 155399, Note_on_c, 0, 58, 80
2, 155399, Note_on_c, 0, 55, 33
2, 155485, Note_on_c, 0, 63, 0
2, 155485, Note_on_c, 0, 61, 0
2, 155509, Note_on_c, 0, 58, 0
2, 155509, Note_on_c, 0, 55, 0
2, 155520, Note_on_c, 0, 63, 45
2, 155520, Note_on_c, 0, 59, 82
2, 155520, Note_on_c, 0, 44, 23
2, 155845, Note_on_c, 0, 44, 0
2, 155845, Note_on_c, 0, 59, 0
2, 155845, Note_on_c, 0, 63, 0
2, 155880, Note_on_c, 0, 75, 94
2, 155880, Note_on_c, 0, 63, 37
2, 155880, Note_on_c, 0, 71, 37
2, 155939, Note_on_c, 0, 71, 0
2, 155939, Note_on_c, 0, 63, 0
2, 155988, Note_on_c, 0, 75, 0
2, 156000, Note_on_c, 0, 68, 62
2, 156108, Note_on_c, 0, 68, 0
2, 156119, Note_on_c, 0, 75, 86
2, 156119, Note_on_c, 0, 63, 24
2, 156119, Note_on_c, 0, 71, 25
2, 156180, Note_on_c, 0, 71, 0
2, 156180, Note_on_c, 0, 63, 0
2, 156229, Note_on_c, 0, 75, 0
2, 156240, Note_on_c, 0, 68, 61
2, 156240, Note_on_c, 0, 63, 31
2, 156240, Note_on_c, 0, 71, 29
2, 156348, Note_on_c, 0, 68, 0
2, 156360, Note_on_c, 0, 75, 87
2, 156468, Note_on_c, 0, 75, 0
2, 156479, Note_on_c, 0, 68, 61
2, 156565, Note_on_c, 0, 71, 0
2, 156565, Note_on_c, 0, 63, 0
2, 156589, Note_on_c, 0, 68, 0
2, 156600, Note_on_c, 0, 63, 65
2, 156600, Note_on_c, 0, 51, 21
2, 156600, Note_on_c, 0, 59, 21
2, 156659, Note_on_c, 0, 59, 0
2, 156659, Note_on_c, 0, 51, 0
2, 156708, Note_on_c, 0, 63, 0
2, 156720, Note_on_c, 0, 56, 51
2, 156828, Note_on_c, 0, 56, 0
2, 156839, Note_on_c, 0, 63, 63
2, 156839, Note_on_c, 0, 51, 27
2, 156839, Note_on_c, 0, 59, 24
2, 156900, Note_on_c, 0, 59, 0
2, 156900, Note_on_c, 0, 51, 0
2, 156949, Note_on_c, 0, 63, 0
2, 156960, Note_on_c, 0, 56, 43
2, 156960, Note_on_c, 0, 51, 31
2, 156960, Note_on_c, 0, 59, 30
2, 157068, Note_on_c, 0, 56, 0
2, 157080, Note_on_c, 0, 63, 45
2, 157137, Note_on_c, 0, 59, 0
2, 157137, Note_on_c, 0, 51, 0
2, 157188, Note_on_c, 0, 63, 0
2, 157199, Note_on_c, 0, 56, 22
2, 157309, Note_on_c, 0, 56, 0
2, 157320, Note_on_c, 0, 59, 89
2, 157320, Note_on_c, 0, 63, 91
2, 157320, Note_on_c, 0, 44, 22
2, 157320, Note_on_c, 0, 51, 21
2, 157428, Note_on_c, 0, 63, 0
2, 157428, Note_on_c, 0, 59, 0
2, 157440, Note_on_c, 0, 61, 72
2, 157497, Note_on_c, 0, 44, 0
2, 157497, Note_on_c, 0, 51, 0
2, 157548, Note_on_c, 0, 61, 0
2, 157559, Note_on_c, 0, 59, 71
2, 157669, Note_on_c, 0, 59, 0
2, 157680, Note_on_c, 0, 52, 74
2, 157680, Note_on_c, 0, 59, 74
2, 157680, Note_on_c, 0, 37, 24
2, 157680, Note_on_c, 0, 44, 22
2, 157857, Note_on_c, 0, 44, 0
2, 157857, Note_on_c, 0, 52, 0
2, 157857, Note_on_c, 0, 59, 0
2, 157857, Note_on_c, 0, 37, 0
2, 158040, Note_on_c, 0, 52, 71
2, 158040, Note_on_c, 0, 54, 71
2, 158040, Note_on_c, 0, 58, 71
2, 158040, Note_on_c, 0, 42, 26
2, 158217, Note_on_c, 0, 42, 0
2, 158217, Note_on_c, 0, 52, 0
2, 158217, Note_on_c, 0, 54, 0
2, 158217, Note_on_c, 0, 58, 0
2, 158400, Note_on_c, 0, 51, 82
2, 158400, Note_on_c, 0, 54, 81
2, 158400, Note_on_c, 0, 59, 80
2, 158400, Note_on_c, 0, 35, 31
2, 158400, Note_on_c, 0, 42, 31
2, 158577, Note_on_c, 0, 42, 0
2, 158577, Note_on_c, 0, 59, 0
2, 158577, Note_on_c, 0, 51, 0
2, 158577, Note_on_c, 0, 54, 0
2, 158577, Note_on_c, 0, 35, 0
2, 158760, Note_on_c, 0, 54, 69
2, 158760, Note_on_c, 0, 49, 63
2, 158760, Note_on_c, 0, 52, 61
2, 158760, Note_on_c, 0, 42, 35
2, 158760, Note_on_c, 0, 30, 19
2, 158937, Note_on_c, 0, 30, 0
2, 159085, Note_on_c, 0, 52, 0
2, 159085, Note_on_c, 0, 49, 0
2, 159120, Note_on_c, 0, 47, 38
2, 159120, Note_on_c, 0, 51, 41
2, 159120, Note_on_c, 0, 35, 33
2, 159445, Note_on_c, 0, 35, 0
2, 159445, Note_on_c, 0, 47, 0
2, 159445, Note_on_c, 0, 51, 0
2, 159480, Note_on_c, 0, 54, 0
2, 159480, Note_on_c, 0, 42, 0
2, 159480, Note_on_c, 0, 55, 47
2, 159480, Note_on_c, 0, 40, 35
2, 159480, Note_on_c, 0, 49, 35
2, 159588, Note_on_c, 0, 49, 0
2, 159588, Note_on_c, 0, 40, 0
2, 159588, Note_on_c, 0, 55, 0
2, 159600, Note_on_c, 0, 56, 45
2, 159708, Note_on_c, 0, 56, 0
2, 159719, Note_on_c, 0, 58, 45
2, 159719, Note_on_c, 0, 40, 25
2, 159719, Note_on_c, 0, 49, 25
2, 159829, Note_on_c, 0, 49, 0
2, 159829, Note_on_c, 0, 40, 0
2, 159829, Note_on_c, 0, 58, 0
2, 159840, Note_on_c, 0, 56, 48
2, 159840, Note_on_c, 0, 59, 48
2, 159840, Note_on_c, 0, 44, 33
2, 159840, Note_on_c, 0, 51, 36
2, 160165, Note_on_c, 0, 51, 0
2, 160165, Note_on_c, 0, 56, 0
2, 160165, Note_on_c, 0, 59, 0
2, 160165, Note_on_c, 0, 44, 0
2, 160200, Note_on_c, 0, 75, 96
2, 160200, Note_on_c, 0, 63, 39
2, 160200, Note_on_c, 0, 71, 40
2, 160259, Note_on_c, 0, 71, 0
2, 160259, Note_on_c, 0, 63, 0
2, 160308, Note_on_c, 0, 75, 0
2, 160320, Note_on_c, 0, 68, 64
2, 160428, Note_on_c, 0, 68, 0
2, 160439, Note_on_c, 0, 75, 87
2, 160439, Note_on_c, 0, 63, 25
2, 160439, Note_on_c, 0, 71, 26
2, 160500, Note_on_c, 0, 71, 0
2, 160500, Note_on_c, 0, 63, 0
2, 160549, Note_on_c, 0, 75, 0
2, 160560, Note_on_c, 0, 68, 62
2, 160560, Note_on_c, 0, 63, 27
2, 160560, Note_on_c, 0, 71, 31
2, 160668, Note_on_c, 0, 68, 0
2, 160680, Note_on_c, 0, 75, 86
2, 160788, Note_on_c, 0, 75, 0
2, 160799, Note_on_c, 0, 68, 62
2, 160885, Note_on_c, 0, 71, 0
2, 160885, Note_on_c, 0, 63, 0
2, 160909, Note_on_c, 0, 68, 0
2, 160920, Note_on_c, 0, 63, 66
2, 160920, Note_on_c, 0, 51, 18
2, 160920, Note_on_c, 0, 59, 22
2, 160979, Note_on_c, 0, 59, 0
2, 160979, Note_on_c, 0, 51, 0
2, 161028, Note_on_c, 0, 63, 0
2, 161040, Note_on_c, 0, 56, 57
2, 161148, Note_on_c, 0, 56, 0
2, 161159, Note_on_c, 0, 63, 87
2, 161159, Note_on_c, 0, 51, 27
2, 161220, Note_on_c, 0, 51, 0
2, 161269, Note_on_c, 0, 63, 0
2, 161280, Note_on_c, 0, 52, 85
2, 161280, Note_on_c, 0, 56, 86
2, 161280, Note_on_c, 0, 59, 86
2, 161280, Note_on_c, 0, 40, 30
2, 161280, Note_on_c, 0, 47, 27
2, 161388, Note_on_c, 0, 47, 0
2, 161388, Note_on_c, 0, 59, 0
2, 161388, Note_on_c, 0, 52, 0
2, 161388, Note_on_c, 0, 56, 0
2, 161388, Note_on_c, 0, 40, 0
2, 161519, Note_on_c, 0, 54, 82
2, 161519, Note_on_c, 0, 57, 82
2, 161519, Note_on_c, 0, 63, 80
2, 161519, Note_on_c, 0, 35, 26
2, 161519, Note_on_c, 0, 47, 24
2, 161629, Note_on_c, 0, 47, 0
2, 161629, Note_on_c, 0, 63, 0
2, 161629, Note_on_c, 0, 54, 0
2, 161629, Note_on_c, 0, 57, 0
2, 161629, Note_on_c, 0, 35, 0
2, 161640, Note_on_c, 0, 56, 102
2, 161640, Note_on_c, 0, 59, 101
2, 161640, Note_on_c, 0, 64, 101
2, 161640, Note_on_c, 0, 40, 36
2, 161640, Note_on_c, 0, 47, 34
2, 162360, Note_on_c, 0, 47, 0
2, 162360, Note_on_c, 0, 64, 0
2, 162360, Note_on_c, 0, 56, 0
2, 162360, Note_on_c, 0, 59, 0
2, 162360, Note_on_c, 0, 40, 0
2, 162360, Note_on_c, 0, 54, 78
2, 162360, Note_on_c, 0, 57, 77
2, 162360, Note_on_c, 0, 59, 80
2, 162360, Note_on_c, 0, 47, 33
2, 162360, Note_on_c, 0, 51, 33
2, 162537, Note_on_c, 0, 51, 0
2, 162537, Note_on_c, 0, 59, 0
2, 162537, Note_on_c, 0, 54, 0
2, 162537, Note_on_c, 0, 57, 0
2, 162537, Note_on_c, 0, 47, 0
2, 162720, Note_on_c, 0, 56, 44
2, 162720, Note_on_c, 0, 59, 43
2, 162720, Note_on_c, 0, 40, 36
2, 162720, Note_on_c, 0, 47, 34
2, 162720, Note_on_c, 0, 52, 35
2, 162897, Note_on_c, 0, 52, 0
2, 162897, Note_on_c, 0, 40, 0
2, 162897, Note_on_c, 0, 56, 0
2, 162897, Note_on_c, 0, 59, 0
2, 162897, Note_on_c, 0, 47, 0
2, 163080, Note_on_c, 0, 40, 28
2, 163080, Note_on_c, 0, 49, 29
2, 163188, Note_on_c, 0, 49, 0
2, 163188, Note_on_c, 0, 40, 0
2, 163319, Note_on_c, 0, 40, 26
2, 163319, Note_on_c, 0, 49, 28
2, 163429, Note_on_c, 0, 49, 0
2, 163429, Note_on_c, 0, 40, 0
2, 163440, Note_on_c, 0, 44, 29
2, 163440, Note_on_c, 0, 51, 32
2, 163765, Note_on_c, 0, 51, 0
2, 163765, Note_on_c, 0, 44, 0
2, 163800, Note_on_c, 0, 57, 37
2, 163800, Note_on_c, 0, 59, 40
2, 163800, Note_on_c, 0, 51, 42
2, 163800, Note_on_c, 0, 35, 18
2, 163908, Note_on_c, 0, 51, 0
2, 163920, Note_on_c, 0, 52, 44
2, 163977, Note_on_c, 0, 35, 0
2, 164028, Note_on_c, 0, 52, 0
2, 164039, Note_on_c, 0, 54, 46
2, 164125, Note_on_c, 0, 59, 0
2, 164125, Note_on_c, 0, 57, 0
2, 164149, Note_on_c, 0, 54, 0
2, 164160, Note_on_c, 0, 59, 45
2, 164160, Note_on_c, 0, 56, 48
2, 164160, Note_on_c, 0, 40, 37
2, 164337, Note_on_c, 0, 40, 0
2, 164337, Note_on_c, 0, 56, 0
2, 164337, Note_on_c, 0, 59, 0
2, 164520, Note_on_c, 0, 52, 40
2, 164520, Note_on_c, 0, 61, 40
2, 164628, Note_on_c, 0, 61, 0
2, 164628, Note_on_c, 0, 52, 0
2, 164759, Note_on_c, 0, 52, 28
2, 164759, Note_on_c, 0, 61, 26
2, 164869, Note_on_c, 0, 61, 0
2, 164869, Note_on_c, 0, 52, 0
2, 164880, Note_on_c, 0, 56, 30
2, 164880, Note_on_c, 0, 63, 31
2, 165205, Note_on_c, 0, 63, 0
2, 165205, Note_on_c, 0, 56, 0
2, 165240, Note_on_c, 0, 69, 38
2, 165240, Note_on_c, 0, 71, 37
2, 165240, Note_on_c, 0, 63, 57
2, 165240, Note_on_c, 0, 59, 29
2, 165348, Note_on_c, 0, 59, 0
2, 165348, Note_on_c, 0, 63, 0
2, 165360, Note_on_c, 0, 64, 47
2, 165360, Note_on_c, 0, 61, 32
2, 165468, Note_on_c, 0, 61, 0
2, 165468, Note_on_c, 0, 64, 0
2, 165479, Note_on_c, 0, 66, 44
2, 165479, Note_on_c, 0, 63, 34
2, 165565, Note_on_c, 0, 71, 0
2, 165565, Note_on_c, 0, 69, 0
2, 165589, Note_on_c, 0, 66, 0
2, 165589, Note_on_c, 0, 63, 0
2, 165600, Note_on_c, 0, 71, 46
2, 165600, Note_on_c, 0, 68, 51
2, 165600, Note_on_c, 0, 52, 31
2, 165600, Note_on_c, 0, 59, 30
2, 165925, Note_on_c, 0, 59, 0
2, 165925, Note_on_c, 0, 71, 0
2, 165925, Note_on_c, 0, 68, 0
2, 165925, Note_on_c, 0, 52, 0
2, 165960, Note_on_c, 0, 75, 46
2, 165960, Note_on_c, 0, 63, 38
2, 165960, Note_on_c, 0, 71, 38
2, 166019, Note_on_c, 0, 71, 0
2, 166019, Note_on_c, 0, 63, 0
2, 166068, Note_on_c, 0, 75, 0
2, 166080, Note_on_c, 0, 68, 35
2, 166188, Note_on_c, 0, 68, 0
2, 166199, Note_on_c, 0, 75, 51
2, 166199, Note_on_c, 0, 63, 24
2, 166199, Note_on_c, 0, 71, 25
2, 166260, Note_on_c, 0, 71, 0
2, 166260, Note_on_c, 0, 63, 0
2, 166309, Note_on_c, 0, 75, 0
2, 166320, Note_on_c, 0, 68, 35
2, 166320, Note_on_c, 0, 63, 27
2, 166320, Note_on_c, 0, 71, 31
2, 166428, Note_on_c, 0, 68, 0
2, 166440, Note_on_c, 0, 75, 48
2, 166548, Note_on_c, 0, 75, 0
2, 166559, Note_on_c, 0, 63, 33
2, 166645, Note_on_c, 0, 71, 0
2, 166645, Note_on_c, 0, 63, 0
2, 166669, Note_on_c, 0, 63, 0
2, 166680, Note_on_c, 0, 63, 45
2, 166680, Note_on_c, 0, 51, 20
2, 166680, Note_on_c, 0, 59, 22
2, 166739, Note_on_c, 0, 59, 0
2, 166739, Note_on_c, 0, 51, 0
2, 166788, Note_on_c, 0, 63, 0
2, 166800, Note_on_c, 0, 56, 35
2, 166908, Note_on_c, 0, 56, 0
2, 166919, Note_on_c, 0, 63, 48
2, 166919, Note_on_c, 0, 51, 27
2, 166919, Note_on_c, 0, 59, 28
2, 166980, Note_on_c, 0, 59, 0
2, 166980, Note_on_c, 0, 51, 0
2, 167029, Note_on_c, 0, 63, 0
2, 167040, Note_on_c, 0, 56, 38
2, 167040, Note_on_c, 0, 51, 34
2, 167040, Note_on_c, 0, 59, 33
2, 167148, Note_on_c, 0, 56, 0
2, 167160, Note_on_c, 0, 63, 49
2, 167217, Note_on_c, 0, 59, 0
2, 167217, Note_on_c, 0, 51, 0
2, 167268, Note_on_c, 0, 63, 0
2, 167279, Note_on_c, 0, 56, 34
2, 167389, Note_on_c, 0, 56, 0
2, 167400, Note_on_c, 0, 59, 89
2, 167400, Note_on_c, 0, 63, 90
2, 167400, Note_on_c, 0, 44, 22
2, 167400, Note_on_c, 0, 51, 23
2, 167508, Note_on_c, 0, 63, 0
2, 167508, Note_on_c, 0, 59, 0
2, 167520, Note_on_c, 0, 61, 70
2, 167577, Note_on_c, 0, 44, 0
2, 167577, Note_on_c, 0, 51, 0
2, 167628, Note_on_c, 0, 61, 0
2, 167639, Note_on_c, 0, 59, 70
2, 167749, Note_on_c, 0, 59, 0
2, 167760, Note_on_c, 0, 52, 72
2, 167760, Note_on_c, 0, 59, 74
2, 167760, Note_on_c, 0, 37, 22
2, 167760, Note_on_c, 0, 44, 23
2, 167937, Note_on_c, 0, 44, 0
2, 167937, Note_on_c, 0, 52, 0
2, 167937, Note_on_c, 0, 59, 0
2, 167937, Note_on_c, 0, 37, 0
2, 168120, Note_on_c, 0, 55, 71
2, 168120, Note_on_c, 0, 58, 71
2, 168120, Note_on_c, 0, 39, 33
2, 168120, Note_on_c, 0, 49, 33
2, 168297, Note_on_c, 0, 49, 0
2, 168297, Note_on_c, 0, 55, 0
2, 168297, Note_on_c, 0, 58, 0
2, 168297, Note_on_c, 0, 39, 0
2, 168480, Note_on_c, 0, 51, 47
2, 168480, Note_on_c, 0, 56, 48
2, 168480, Note_on_c, 0, 59, 45
2, 168480, Note_on_c, 0, 32, 29
2, 168480, Note_on_c, 0, 44, 28
2, 168657, Note_on_c, 0, 44, 0
2, 168657, Note_on_c, 0, 59, 0
2, 168657, Note_on_c, 0, 51, 0
2, 168657, Note_on_c, 0, 56, 0
2, 168657, Note_on_c, 0, 32, 0
2, 168840, Note_on_c, 0, 56, 46
2, 168840, Note_on_c, 0, 52, 37
2, 168840, Note_on_c, 0, 44, 34
2, 168840, Note_on_c, 0, 37, 30
2, 169017, Note_on_c, 0, 37, 0
2, 169165, Note_on_c, 0, 52, 0
2, 169200, Note_on_c, 0, 51, 38
2, 169200, Note_on_c, 0, 35, 30
2, 169525, Note_on_c, 0, 35, 0
2, 169525, Note_on_c, 0, 51, 0
2, 169560, Note_on_c, 0, 44, 0
2, 169560, Note_on_c, 0, 56, 0
2, 169560, Note_on_c, 0, 40, 33
2, 169560, Note_on_c, 0, 49, 32
2, 169668, Note_on_c, 0, 49, 0
2, 169668, Note_on_c, 0, 40, 0
2, 169799, Note_on_c, 0, 40, 27
2, 169799, Note_on_c, 0, 49, 26
2, 169909, Note_on_c, 0, 49, 0
2, 169909, Note_on_c, 0, 40, 0
2, 169920, Note_on_c, 0, 44, 36
2, 169920, Note_on_c, 0, 51, 36
2, 170097, Note_on_c, 0, 51, 0
2, 170097, Note_on_c, 0, 44, 0
2, 170280, Note_on_c, 0, 56, 43
2, 170280, Note_on_c, 0, 49, 38
2, 170280, Note_on_c, 0, 44, 36
2, 170280, Note_on_c, 0, 34, 27
2, 170457, Note_on_c, 0, 34, 0
2, 170605, Note_on_c, 0, 49, 0
2, 170640, Note_on_c, 0, 47, 38
2, 170640, Note_on_c, 0, 32, 30
2, 170965, Note_on_c, 0, 32, 0
2, 170965, Note_on_c, 0, 47, 0
2, 171000, Note_on_c, 0, 44, 0
2, 171000, Note_on_c, 0, 56, 0
2, 171000, Note_on_c, 0, 41, 40
2, 171000, Note_on_c, 0, 44, 40
2, 171108, Note_on_c, 0, 44, 0
2, 171108, Note_on_c, 0, 41, 0
2, 171239, Note_on_c, 0, 41, 40
2, 171239, Note_on_c, 0, 44, 37
2, 171349, Note_on_c, 0, 44, 0
2, 171349, Note_on_c, 0, 41, 0
2, 171360, Note_on_c, 0, 46, 49
2, 171685, Note_on_c, 0, 46, 0
2, 171720, Note_on_c, 0, 50, 72
2, 171720, Note_on_c, 0, 58, 72
2, 171720, Note_on_c, 0, 62, 72
2, 171720, Note_on_c, 0, 44, 43
2, 171883, Note_on_c, 0, 44, 0
2, 171990, Note_on_c, 0, 44, 44
2, 172072, Note_on_c, 0, 44, 0
2, 172080, Note_on_c, 0, 46, 52
2, 172257, Note_on_c, 0, 46, 0
2, 172440, Note_on_c, 0, 50, 0
2, 172440, Note_on_c, 0, 58, 0
2, 172440, Note_on_c, 0, 62, 0
2, 172440, Note_on_c, 0, 51, 85
2, 172440, Note_on_c, 0, 58, 85
2, 172440, Note_on_c, 0, 60, 84
2, 172440, Note_on_c, 0, 63, 84
2, 172440, Note_on_c, 0, 42, 49
2, 172603, Note_on_c, 0, 42, 0
2, 172710, Note_on_c, 0, 42, 46
2, 172792, Note_on_c, 0, 42, 0
2, 172800, Note_on_c, 0, 44, 54
2, 172977, Note_on_c, 0, 44, 0
2, 173160, Note_on_c, 0, 60, 0
2, 173160, Note_on_c, 0, 51, 0
2, 173160, Note_on_c, 0, 58, 0
2, 173160, Note_on_c, 0, 63, 0
2, 173160, Note_on_c, 0, 53, 90
2, 173160, Note_on_c, 0, 58, 87
2, 173160, Note_on_c, 0, 62, 87
2, 173160, Note_on_c, 0, 65, 89
2, 173160, Note_on_c, 0, 41, 53
2, 173323, Note_on_c, 0, 41, 0
2, 173430, Note_on_c, 0, 41, 51
2, 173512, Note_on_c, 0, 41, 0
2, 173520, Note_on_c, 0, 46, 68
2, 173845, Note_on_c, 0, 46, 0
2, 173845, Note_on_c, 0, 62, 0
2, 173845, Note_on_c, 0, 53, 0
2, 173845, Note_on_c, 0, 58, 0
2, 173845, Note_on_c, 0, 65, 0
2, 173880, Note_on_c, 0, 54, 88
2, 173880, Note_on_c, 0, 58, 91
2, 173880, Note_on_c, 0, 60, 88
2, 173880, Note_on_c, 0, 66, 87
2, 173880, Note_on_c, 0, 39, 47
2, 174043, Note_on_c, 0, 39, 0
2, 174150, Note_on_c, 0, 39, 55
2, 174232, Note_on_c, 0, 39, 0
2, 174240, Note_on_c, 0, 41, 63
2, 174417, Note_on_c, 0, 41, 0
2, 174600, Note_on_c, 0, 60, 0
2, 174600, Note_on_c, 0, 54, 0
2, 174600, Note_on_c, 0, 58, 0
2, 174600, Note_on_c, 0, 66, 0
2, 174600, Note_on_c, 0, 56, 95
2, 174600, Note_on_c, 0, 58, 91
2, 174600, Note_on_c, 0, 65, 94
2, 174600, Note_on_c, 0, 68, 93
2, 174600, Note_on_c, 0, 38, 58
2, 174763, Note_on_c, 0, 38, 0
2, 174870, Note_on_c, 0, 38, 57
2, 174952, Note_on_c, 0, 38, 0
2, 174960, Note_on_c, 0, 46, 79
2, 175137, Note_on_c, 0, 46, 0
2, 175320, Note_on_c, 0, 65, 0
2, 175320, Note_on_c, 0, 56, 0
2, 175320, Note_on_c, 0, 58, 0
2, 175320, Note_on_c, 0, 68, 0
2, 175320, Note_on_c, 0, 57, 94
2, 175320, Note_on_c, 0, 63, 92
2, 175320, Note_on_c, 0, 65, 93
2, 175320, Note_on_c, 0, 69, 92
2, 175320, Note_on_c, 0, 36, 55
2, 175483, Note_on_c, 0, 36, 0
2, 175590, Note_on_c, 0, 36, 61
2, 175672, Note_on_c, 0, 36, 0
2, 175680, Note_on_c, 0, 69, 0
2, 175680, Note_on_c, 0, 57, 0
2, 175680, Note_on_c, 0, 63, 0
2, 175680, Note_on_c, 0, 65, 0
2, 175680, Note_on_c, 0, 58, 98
2, 175680, Note_on_c, 0, 62, 97
2, 175680, Note_on_c, 0, 65, 96
2, 175680, Note_on_c, 0, 70, 98
2, 175680, Note_on_c, 0, 34, 89
2, 175680, Note_on_c, 0, 46, 90
2, 176005, Note_on_c, 0, 46, 0
2, 176005, Note_on_c, 0, 34, 0
2, 176040, Note_on_c, 0, 65, 0
2, 176040, Note_on_c, 0, 58, 0
2, 176040, Note_on_c, 0, 62, 0
2, 176040, Note_on_c, 0, 70, 0
2, 176040, Note_on_c, 0, 60, 89
2, 176040, Note_on_c, 0, 70, 90
2, 176040, Note_on_c, 0, 72, 90
2, 176040, Note_on_c, 0, 32, 70
2, 176040, Note_on_c, 0, 44, 70
2, 176203, Note_on_c, 0, 44, 0
2, 176203, Note_on_c, 0, 32, 0
2, 176310, Note_on_c, 0, 32, 66
2, 176310, Note_on_c, 0, 44, 64
2, 176365, Note_on_c, 0, 60, 0
2, 176365, Note_on_c, 0, 72, 0
2, 176365, Note_on_c, 0, 70, 0
2, 176392, Note_on_c, 0, 32, 0
2, 176392, Note_on_c, 0, 44, 0
2, 176400, Note_on_c, 0, 62, 92
2, 176400, Note_on_c, 0, 70, 90
2, 176400, Note_on_c, 0, 74, 90
2, 176400, Note_on_c, 0, 34, 103
2, 176400, Note_on_c, 0, 46, 105
2, 176725, Note_on_c, 0, 46, 0
2, 176725, Note_on_c, 0, 74, 0
2, 176725, Note_on_c, 0, 62, 0
2, 176725, Note_on_c, 0, 70, 0
2, 176725, Note_on_c, 0, 34, 0
2, 176760, Note_on_c, 0, 63, 88
2, 176760, Note_on_c, 0, 70, 87
2, 176760, Note_on_c, 0, 72, 89
2, 176760, Note_on_c, 0, 75, 89
2, 176760, Note_on_c, 0, 30, 68
2, 176760, Note_on_c, 0, 42, 72
2, 176923, Note_on_c, 0, 42, 0
2, 176923, Note_on_c, 0, 30, 0
2, 177030, Note_on_c, 0, 30, 66
2, 177030, Note_on_c, 0, 42, 67
2, 177112, Note_on_c, 0, 42, 0
2, 177112, Note_on_c, 0, 30, 0
2, 177120, Note_on_c, 0, 32, 106
2, 177120, Note_on_c, 0, 44, 108
2, 177410, Note_on_c, 0, 75, 0
2, 177410, Note_on_c, 0, 72, 0
2, 177410, Note_on_c, 0, 63, 0
2, 177410, Note_on_c, 0, 70, 0
2, 177445, Note_on_c, 0, 44, 0
2, 177445, Note_on_c, 0, 32, 0
2, 177480, Note_on_c, 0, 65, 91
2, 177480, Note_on_c, 0, 70, 93
2, 177480, Note_on_c, 0, 74, 93
2, 177480, Note_on_c, 0, 77, 93
2, 177480, Note_on_c, 0, 29, 76
2, 177480, Note_on_c, 0, 41, 78
2, 177643, Note_on_c, 0, 41, 0
2, 177643, Note_on_c, 0, 29, 0
2, 177750, Note_on_c, 0, 41, 73
2, 177805, Note_on_c, 0, 74, 0
2, 177805, Note_on_c, 0, 77, 0
2, 177805, Note_on_c, 0, 65, 0
2, 177805, Note_on_c, 0, 70, 0
2, 177832, Note_on_c, 0, 41, 0
2, 177840, Note_on_c, 0, 66, 95
2, 177840, Note_on_c, 0, 70, 96
2, 177840, Note_on_c, 0, 75, 94
2, 177840, Note_on_c, 0, 78, 96
2, 177840, Note_on_c, 0, 34, 122
2, 177840, Note_on_c, 0, 46, 122
2, 178165, Note_on_c, 0, 46, 0
2, 178165, Note_on_c, 0, 70, 0
2, 178165, Note_on_c, 0, 75, 0
2, 178165, Note_on_c, 0, 66, 0
2, 178165, Note_on_c, 0, 34, 0
2, 178165, Note_on_c, 0, 78, 0
2, 178200, Note_on_c, 0, 68, 93
2, 178200, Note_on_c, 0, 70, 96
2, 178200, Note_on_c, 0, 77, 94
2, 178200, Note_on_c, 0, 80, 95
2, 178200, Note_on_c, 0, 27, 68
2, 178200, Note_on_c, 0, 39, 69
2, 178363, Note_on_c, 0, 39, 0
2, 178363, Note_on_c, 0, 27, 0
2, 178470, Note_on_c, 0, 27, 74
2, 178470, Note_on_c, 0, 39, 75
2, 178552, Note_on_c, 0, 39, 0
2, 178552, Note_on_c, 0, 27, 0
2, 178560, Note_on_c, 0, 29, 115
2, 178560, Note_on_c, 0, 41, 115
2, 178850, Note_on_c, 0, 80, 0
2, 178850, Note_on_c, 0, 77, 0
2, 178850, Note_on_c, 0, 68, 0
2, 178850, Note_on_c, 0, 70, 0
2, 178885, Note_on_c, 0, 41, 0
2, 178885, Note_on_c, 0, 29, 0
2, 178920, Note_on_c, 0, 69, 94
2, 178920, Note_on_c, 0, 75, 94
2, 178920, Note_on_c, 0, 77, 93
2, 178920, Note_on_c, 0, 81, 93
2, 178920, Note_on_c, 0, 24, 79
2, 178920, Note_on_c, 0, 36, 80
2, 179083, Note_on_c, 0, 36, 0
2, 179083, Note_on_c, 0, 24, 0
2, 179190, Note_on_c, 0, 36, 80
2, 179245, Note_on_c, 0, 77, 0
2, 179245, Note_on_c, 0, 81, 0
2, 179245, Note_on_c, 0, 69, 0
2, 179245, Note_on_c, 0, 75, 0
2, 179272, Note_on_c, 0, 36, 0
2, 179280, Note_on_c, 0, 70, 93
2, 179280, Note_on_c, 0, 74, 95
2, 179280, Note_on_c, 0, 77, 97
2, 179280, Note_on_c, 0, 82, 97
2, 179280, Note_on_c, 0, 34, 122
2, 179280, Note_on_c, 0, 46, 120
2, 179605, Note_on_c, 0, 46, 0
2, 179605, Note_on_c, 0, 74, 0
2, 179605, Note_on_c, 0, 77, 0
2, 179605, Note_on_c, 0, 70, 0
2, 179605, Note_on_c, 0, 34, 0
2, 179605, Note_on_c, 0, 82, 0
2, 179640, Note_on_c, 0, 58, 67
2, 179640, Note_on_c, 0, 34, 71
2, 179748, Note_on_c, 0, 34, 0
2, 179748, Note_on_c, 0, 58, 0
2, 179760, Note_on_c, 0, 51, 68
2, 179760, Note_on_c, 0, 27, 68
2, 179868, Note_on_c, 0, 27, 0
2, 179868, Note_on_c, 0, 51, 0
2, 179879, Note_on_c, 0, 58, 103
2, 179879, Note_on_c, 0, 34, 104
2, 179989, Note_on_c, 0, 34, 0
2, 179989, Note_on_c, 0, 58, 0
2, 180000, Note_on_c, 0, 51, 95
2, 180000, Note_on_c, 0, 27, 46
2, 180000, Note_on_c, 0, 39, 46
2, 180239, Note_on_c, 0, 63, 92
2, 180239, Note_on_c, 0, 67, 94
2, 180239, Note_on_c, 0, 72, 95
2, 180239, Note_on_c, 0, 48, 83
2, 180239, Note_on_c, 0, 51, 81
2, 180239, Note_on_c, 0, 55, 80
2, 180239, Note_on_c, 0, 60, 80
2, 180325, Note_on_c, 0, 39, 0
2, 180325, Note_on_c, 0, 51, 0
2, 180325, Note_on_c, 0, 27, 0
2, 180349, Note_on_c, 0, 63, 0
2, 180349, Note_on_c, 0, 48, 0
2, 180349, Note_on_c, 0, 72, 0
2, 180349, Note_on_c, 0, 60, 0
2, 180349, Note_on_c, 0, 55, 0
2, 180349, Note_on_c, 0, 51, 0
2, 180349, Note_on_c, 0, 67, 0
2, 180360, Note_on_c, 0, 63, 112
2, 180360, Note_on_c, 0, 67, 115
2, 180360, Note_on_c, 0, 70, 113
2, 180360, Note_on_c, 0, 46, 110
2, 180360, Note_on_c, 0, 51, 109
2, 180360, Note_on_c, 0, 55, 110
2, 180360, Note_on_c, 0, 58, 110
2, 180935, Note_on_c, 0, 58, 0
2, 180935, Note_on_c, 0, 51, 0
2, 180935, Note_on_c, 0, 67, 0
2, 180935, Note_on_c, 0, 70, 0
2, 180935, Note_on_c, 0, 63, 0
2, 180935, Note_on_c, 0, 55, 0
2, 180935, Note_on_c, 0, 46, 0
2, 180959, Note_on_c, 0, 56, 93
2, 180959, Note_on_c, 0, 63, 90
2, 180959, Note_on_c, 0, 65, 91
2, 180959, Note_on_c, 0, 48, 67
2, 181069, Note_on_c, 0, 48, 0
2, 181069, Note_on_c, 0, 56, 0
2, 181069, Note_on_c, 0, 63, 0
2, 181069, Note_on_c, 0, 65, 0
2, 181080, Note_on_c, 0, 55, 122
2, 181080, Note_on_c, 0, 63, 122
2, 181080, Note_on_c, 0, 67, 122
2, 181080, Note_on_c, 0, 46, 105
2, 181295, Note_on_c, 0, 46, 0
2, 181295, Note_on_c, 0, 55, 0
2, 181295, Note_on_c, 0, 63, 0
2, 181295, Note_on_c, 0, 67, 0
2, 181319, Note_on_c, 0, 53, 91
2, 181319, Note_on_c, 0, 56, 91
2, 181319, Note_on_c, 0, 62, 91
2, 181319, Note_on_c, 0, 34, 88
2, 181319, Note_on_c, 0, 46, 91
2, 181429, Note_on_c, 0, 46, 0
2, 181429, Note_on_c, 0, 62, 0
2, 181429, Note_on_c, 0, 53, 0
2, 181429, Note_on_c, 0, 56, 0
2, 181429, Note_on_c, 0, 34, 0
2, 181440, Note_on_c, 0, 55, 105
2, 181440, Note_on_c, 0, 58, 103
2, 181440, Note_on_c, 0, 63, 103
2, 181440, Note_on_c, 0, 39, 118
2, 181440, Note_on_c, 0, 46, 122
2, 181548, Note_on_c, 0, 46, 0
2, 181548, Note_on_c, 0, 63, 0
2, 181548, Note_on_c, 0, 55, 0
2, 181548, Note_on_c, 0, 58, 0
2, 181548, Note_on_c, 0, 39, 0
2, 181679, Note_on_c, 0, 55, 67
2, 181679, Note_on_c, 0, 62, 65
2, 181679, Note_on_c, 0, 63, 64
2, 181679, Note_on_c, 0, 50, 82
2, 181789, Note_on_c, 0, 50, 0
2, 181789, Note_on_c, 0, 55, 0
2, 181789, Note_on_c, 0, 62, 0
2, 181789, Note_on_c, 0, 63, 0
2, 181800, Note_on_c, 0, 55, 75
2, 181800, Note_on_c, 0, 62, 75
2, 181800, Note_on_c, 0, 63, 77
2, 181800, Note_on_c, 0, 50, 92
2, 181859, Note_on_c, 0, 50, 0
2, 181859, Note_on_c, 0, 55, 0
2, 181859, Note_on_c, 0, 62, 0
2, 181859, Note_on_c, 0, 63, 0
2, 181920, Note_on_c, 0, 39, 67
2, 182028, Note_on_c, 0, 39, 0
2, 182039, Note_on_c, 0, 55, 65
2, 182039, Note_on_c, 0, 61, 65
2, 182039, Note_on_c, 0, 63, 67
2, 182039, Note_on_c, 0, 49, 111
2, 182149, Note_on_c, 0, 49, 0
2, 182149, Note_on_c, 0, 55, 0
2, 182149, Note_on_c, 0, 61, 0
2, 182149, Note_on_c, 0, 63, 0
2, 182160, Note_on_c, 0, 55, 75
2, 182160, Note_on_c, 0, 61, 77
2, 182160, Note_on_c, 0, 63, 75
2, 182160, Note_on_c, 0, 49, 98
2, 182219, Note_on_c, 0, 49, 0
2, 182219, Note_on_c, 0, 55, 0
2, 182219, Note_on_c, 0, 61, 0
2, 182219, Note_on_c, 0, 63, 0
2, 182280, Note_on_c, 0, 39, 70
2, 182388, Note_on_c, 0, 39, 0
2, 182399, Note_on_c, 0, 55, 68
2, 182399, Note_on_c, 0, 60, 65
2, 182399, Note_on_c, 0, 63, 66
2, 182399, Note_on_c, 0, 48, 107
2, 182509, Note_on_c, 0, 48, 0
2, 182509, Note_on_c, 0, 55, 0
2, 182509, Note_on_c, 0, 60, 0
2, 182509, Note_on_c, 0, 63, 0
2, 182520, Note_on_c, 0, 55, 76
2, 182520, Note_on_c, 0, 60, 78
2, 182520, Note_on_c, 0, 63, 77
2, 182520, Note_on_c, 0, 48, 99
2, 182579, Note_on_c, 0, 48, 0
2, 182579, Note_on_c, 0, 55, 0
2, 182579, Note_on_c, 0, 60, 0
2, 182579, Note_on_c, 0, 63, 0
2, 182640, Note_on_c, 0, 39, 71
2, 182748, Note_on_c, 0, 39, 0
2, 182759, Note_on_c, 0, 55, 87
2, 182759, Note_on_c, 0, 59, 88
2, 182759, Note_on_c, 0, 63, 88
2, 182759, Note_on_c, 0, 67, 88
2, 182759, Note_on_c, 0, 47, 122
2, 182820, Note_on_c, 0, 47, 0
2, 182869, Note_on_c, 0, 63, 0
2, 182869, Note_on_c, 0, 55, 0
2, 182869, Note_on_c, 0, 59, 0
2, 182869, Note_on_c, 0, 67, 0
2, 182880, Note_on_c, 0, 55, 91
2, 182880, Note_on_c, 0, 58, 89
2, 182880, Note_on_c, 0, 63, 88
2, 182880, Note_on_c, 0, 46, 115
2, 182988, Note_on_c, 0, 46, 0
2, 182988, Note_on_c, 0, 55, 0
2, 182988, Note_on_c, 0, 58, 0
2, 182988, Note_on_c, 0, 63, 0
2, 183000, Note_on_c, 0, 39, 72
2, 183108, Note_on_c, 0, 39, 0
2, 183119, Note_on_c, 0, 55, 65
2, 183119, Note_on_c, 0, 62, 67
2, 183119, Note_on_c, 0, 63, 66
2, 183119, Note_on_c, 0, 50, 112
2, 183229, Note_on_c, 0, 50, 0
2, 183229, Note_on_c, 0, 55, 0
2, 183229, Note_on_c, 0, 62, 0
2, 183229, Note_on_c, 0, 63, 0
2, 183240, Note_on_c, 0, 55, 77
2, 183240, Note_on_c, 0, 62, 74
2, 183240, Note_on_c, 0, 63, 74
2, 183240, Note_on_c, 0, 50, 97
2, 183299, Note_on_c, 0, 50, 0
2, 183299, Note_on_c, 0, 55, 0
2, 183299, Note_on_c, 0, 62, 0
2, 183299, Note_on_c, 0, 63, 0
2, 183360, Note_on_c, 0, 39, 66
2, 183468, Note_on_c, 0, 39, 0
2, 183479, Note_on_c, 0, 55, 68
2, 183479, Note_on_c, 0, 61, 68
2, 183479, Note_on_c, 0, 63, 66
2, 183479, Note_on_c, 0, 49, 111
2, 183589, Note_on_c, 0, 49, 0
2, 183589, Note_on_c, 0, 55, 0
2, 183589, Note_on_c, 0, 61, 0
2, 183589, Note_on_c, 0, 63, 0
2, 183600, Note_on_c, 0, 55, 77
2, 183600, Note_on_c, 0, 61, 75
2, 183600, Note_on_c, 0, 63, 78
2, 183600, Note_on_c, 0, 49, 99
2, 183659, Note_on_c, 0, 49, 0
2, 183659, Note_on_c, 0, 55, 0
2, 183659, Note_on_c, 0, 61, 0
2, 183659, Note_on_c, 0, 63, 0
2, 183720, Note_on_c, 0, 39, 69
2, 183828, Note_on_c, 0, 39, 0
2, 183839, Note_on_c, 0, 55, 66
2, 183839, Note_on_c, 0, 60, 65
2, 183839, Note_on_c, 0, 63, 67
2, 183839, Note_on_c, 0, 48, 110
2, 183949, Note_on_c, 0, 48, 0
2, 183949, Note_on_c, 0, 55, 0
2, 183949, Note_on_c, 0, 60, 0
2, 183949, Note_on_c, 0, 63, 0
2, 183960, Note_on_c, 0, 55, 75
2, 183960, Note_on_c, 0, 60, 77
2, 183960, Note_on_c, 0, 63, 77
2, 183960, Note_on_c, 0, 48, 98
2, 184019, Note_on_c, 0, 48, 0
2, 184019, Note_on_c, 0, 55, 0
2, 184019, Note_on_c, 0, 60, 0
2, 184019, Note_on_c, 0, 63, 0
2, 184080, Note_on_c, 0, 39, 71
2, 184188, Note_on_c, 0, 39, 0
2, 184199, Note_on_c, 0, 55, 91
2, 184199, Note_on_c, 0, 59, 87
2, 184199, Note_on_c, 0, 63, 87
2, 184199, Note_on_c, 0, 67, 91
2, 184199, Note_on_c, 0, 47, 122
2, 184260, Note_on_c, 0, 47, 0
2, 184309, Note_on_c, 0, 63, 0
2, 184309, Note_on_c, 0, 55, 0
2, 184309, Note_on_c, 0, 59, 0
2, 184309, Note_on_c, 0, 67, 0
2, 184320, Note_on_c, 0, 55, 89
2, 184320, Note_on_c, 0, 58, 90
2, 184320, Note_on_c, 0, 63, 88
2, 184320, Note_on_c, 0, 46, 116
2, 184428, Note_on_c, 0, 46, 0
2, 184428, Note_on_c, 0, 55, 0
2, 184428, Note_on_c, 0, 58, 0
2, 184428, Note_on_c, 0, 63, 0
2, 184440, Note_on_c, 0, 39, 75
2, 184548, Note_on_c, 0, 39, 0
2, 184559, Note_on_c, 0, 60, 65
2, 184559, Note_on_c, 0, 64, 68
2, 184559, Note_on_c, 0, 68, 66
2, 184559, Note_on_c, 0, 52, 116
2, 184559, Note_on_c, 0, 56, 116
2, 184669, Note_on_c, 0, 56, 0
2, 184669, Note_on_c, 0, 68, 0
2, 184669, Note_on_c, 0, 60, 0
2, 184669, Note_on_c, 0, 64, 0
2, 184669, Note_on_c, 0, 52, 0
2, 184680, Note_on_c, 0, 60, 75
2, 184680, Note_on_c, 0, 64, 77
2, 184680, Note_on_c, 0, 68, 78
2, 184680, Note_on_c, 0, 52, 100
2, 184680, Note_on_c, 0, 56, 99
2, 184739, Note_on_c, 0, 56, 0
2, 184739, Note_on_c, 0, 68, 0
2, 184739, Note_on_c, 0, 60, 0
2, 184739, Note_on_c, 0, 64, 0
2, 184739, Note_on_c, 0, 52, 0
2, 184800, Note_on_c, 0, 39, 66
2, 184908, Note_on_c, 0, 39, 0
2, 184919, Note_on_c, 0, 59, 68
2, 184919, Note_on_c, 0, 63, 67
2, 184919, Note_on_c, 0, 68, 66
2, 184919, Note_on_c, 0, 51, 114
2, 184919, Note_on_c, 0, 56, 114
2, 185029, Note_on_c, 0, 56, 0
2, 185029, Note_on_c, 0, 68, 0
2, 185029, Note_on_c, 0, 59, 0
2, 185029, Note_on_c, 0, 63, 0
2, 185029, Note_on_c, 0, 51, 0
2, 185040, Note_on_c, 0, 59, 77
2, 185040, Note_on_c, 0, 63, 77
2, 185040, Note_on_c, 0, 68, 77
2, 185040, Note_on_c, 0, 51, 100
2, 185040, Note_on_c, 0, 56, 98
2, 185099, Note_on_c, 0, 56, 0
2, 185099, Note_on_c, 0, 68, 0
2, 185099, Note_on_c, 0, 59, 0
2, 185099, Note_on_c, 0, 63, 0
2, 185099, Note_on_c, 0, 51, 0
2, 185160, Note_on_c, 0, 39, 64
2, 185268, Note_on_c, 0, 39, 0
2, 185279, Note_on_c, 0, 58, 64
2, 185279, Note_on_c, 0, 62, 66
2, 185279, Note_on_c, 0, 68, 67
2, 185279, Note_on_c, 0, 50, 113
2, 185279, Note_on_c, 0, 56, 112
2, 185389, Note_on_c, 0, 56, 0
2, 185389, Note_on_c, 0, 68, 0
2, 185389, Note_on_c, 0, 58, 0
2, 185389, Note_on_c, 0, 62, 0
2, 185389, Note_on_c, 0, 50, 0
2, 185400, Note_on_c, 0, 58, 78
2, 185400, Note_on_c, 0, 62, 76
2, 185400, Note_on_c, 0, 68, 78
2, 185400, Note_on_c, 0, 50, 97
2, 185400, Note_on_c, 0, 56, 96
2, 185459, Note_on_c, 0, 56, 0
2, 185459, Note_on_c, 0, 68, 0
2, 185459, Note_on_c, 0, 58, 0
2, 185459, Note_on_c, 0, 62, 0
2, 185459, Note_on_c, 0, 50, 0
2, 185520, Note_on_c, 0, 39, 63
2, 185628, Note_on_c, 0, 39, 0
2, 185639, Note_on_c, 0, 59, 90
2, 185639, Note_on_c, 0, 62, 89
2, 185639, Note_on_c, 0, 66, 88
2, 185639, Note_on_c, 0, 71, 90
2, 185639, Note_on_c, 0, 50, 122
2, 185639, Note_on_c, 0, 54, 122
2, 185700, Note_on_c, 0, 54, 0
2, 185700, Note_on_c, 0, 50, 0
2, 185749, Note_on_c, 0, 66, 0
2, 185749, Note_on_c, 0, 59, 0
2, 185749, Note_on_c, 0, 62, 0
2, 185749, Note_on_c, 0, 71, 0
2, 185760, Note_on_c, 0, 58, 87
2, 185760, Note_on_c, 0, 63, 88
2, 185760, Note_on_c, 0, 67, 90
2, 185760, Note_on_c, 0, 51, 122
2, 185760, Note_on_c, 0, 55, 122
2, 185868, Note_on_c, 0, 55, 0
2, 185868, Note_on_c, 0, 67, 0
2, 185868, Note_on_c, 0, 58, 0
2, 185868, Note_on_c, 0, 63, 0
2, 185868, Note_on_c, 0, 51, 0
2, 185880, Note_on_c, 0, 39, 66
2, 185988, Note_on_c, 0, 39, 0
2, 185999, Note_on_c, 0, 60, 65
2, 185999, Note_on_c, 0, 64, 67
2, 185999, Note_on_c, 0, 68, 64
2, 185999, Note_on_c, 0, 52, 113
2, 185999, Note_on_c, 0, 56, 112
2, 186109, Note_on_c, 0, 56, 0
2, 186109, Note_on_c, 0, 68, 0
2, 186109, Note_on_c, 0, 60, 0
2, 186109, Note_on_c, 0, 64, 0
2, 186109, Note_on_c, 0, 52, 0
2, 186120, Note_on_c, 0, 60, 76
2, 186120, Note_on_c, 0, 64, 77
2, 186120, Note_on_c, 0, 68, 76
2, 186120, Note_on_c, 0, 52, 96
2, 186120, Note_on_c, 0, 56, 98
2, 186179, Note_on_c, 0, 56, 0
2, 186179, Note_on_c, 0, 68, 0
2, 186179, Note_on_c, 0, 60, 0
2, 186179, Note_on_c, 0, 64, 0
2, 186179, Note_on_c, 0, 52, 0
2, 186240, Note_on_c, 0, 39, 66
2, 186348, Note_on_c, 0, 39, 0
2, 186359, Note_on_c, 0, 59, 66
2, 186359, Note_on_c, 0, 63, 67
2, 186359, Note_on_c, 0, 68, 66
2, 186359, Note_on_c, 0, 51, 113
2, 186359, Note_on_c, 0, 56, 113
2, 186469, Note_on_c, 0, 56, 0
2, 186469, Note_on_c, 0, 68, 0
2, 186469, Note_on_c, 0, 59, 0
2, 186469, Note_on_c, 0, 63, 0
2, 186469, Note_on_c, 0, 51, 0
2, 186480, Note_on_c, 0, 59, 78
2, 186480, Note_on_c, 0, 63, 75
2, 186480, Note_on_c, 0, 68, 77
2, 186480, Note_on_c, 0, 51, 98
2, 186480, Note_on_c, 0, 56, 97
2, 186539, Note_on_c, 0, 56, 0
2, 186539, Note_on_c, 0, 68, 0
2, 186539, Note_on_c, 0, 59, 0
2, 186539, Note_on_c, 0, 63, 0
2, 186539, Note_on_c, 0, 51, 0
2, 186600, Note_on_c, 0, 39, 66
2, 186708, Note_on_c, 0, 39, 0
2, 186719, Note_on_c, 0, 58, 67
2, 186719, Note_on_c, 0, 62, 67
2, 186719, Note_on_c, 0, 68, 67
2, 186719, Note_on_c, 0, 50, 111
2, 186719, Note_on_c, 0, 56, 112
2, 186829, Note_on_c, 0, 56, 0
2, 186829, Note_on_c, 0, 68, 0
2, 186829, Note_on_c, 0, 58, 0
2, 186829, Note_on_c, 0, 62, 0
2, 186829, Note_on_c, 0, 50, 0
2, 186840, Note_on_c, 0, 58, 78
2, 186840, Note_on_c, 0, 62, 75
2, 186840, Note_on_c, 0, 68, 74
2, 186840, Note_on_c, 0, 50, 100
2, 186840, Note_on_c, 0, 56, 96
2, 186899, Note_on_c, 0, 56, 0
2, 186899, Note_on_c, 0, 68, 0
2, 186899, Note_on_c, 0, 58, 0
2, 186899, Note_on_c, 0, 62, 0
2, 186899, Note_on_c, 0, 50, 0
2, 186960, Note_on_c, 0, 39, 63
2, 187068, Note_on_c, 0, 39, 0
2, 187079, Note_on_c, 0, 59, 89
2, 187079, Note_on_c, 0, 62, 91
2, 187079, Note_on_c, 0, 66, 90
2, 187079, Note_on_c, 0, 71, 89
2, 187079, Note_on_c, 0, 50, 122
2, 187079, Note_on_c, 0, 54, 122
2, 187140, Note_on_c, 0, 54, 0
2, 187140, Note_on_c, 0, 50, 0
2, 187189, Note_on_c, 0, 66, 0
2, 187189, Note_on_c, 0, 59, 0
2, 187189, Note_on_c, 0, 62, 0
2, 187189, Note_on_c, 0, 71, 0
2, 187200, Note_on_c, 0, 58, 91
2, 187200, Note_on_c, 0, 63, 90
2, 187200, Note_on_c, 0, 67, 88
2, 187200, Note_on_c, 0, 51, 122
2, 187200, Note_on_c, 0, 55, 122
2, 187415, Note_on_c, 0, 55, 0
2, 187415, Note_on_c, 0, 51, 0
2, 187439, Note_on_c, 0, 46, 70
2, 187525, Note_on_c, 0, 58, 0
2, 187525, Note_on_c, 0, 67, 0
2, 187525, Note_on_c, 0, 63, 0
2, 187549, Note_on_c, 0, 46, 0
2, 187560, Note_on_c, 0, 66, 72
2, 187560, Note_on_c, 0, 66, 89
2, 187560, Note_on_c, 0, 54, 122
2, 187560, Note_on_c, 0, 59, 120
2, 187642, Note_on_c, 0, 66, 0
2, 187650, Note_on_c, 0, 62, 65
2, 187732, Note_on_c, 0, 62, 0
2, 187740, Note_on_c, 0, 63, 77
2, 187822, Note_on_c, 0, 63, 0
2, 187830, Note_on_c, 0, 71, 93
2, 187885, Note_on_c, 0, 66, 0
2, 187885, Note_on_c, 0, 59, 0
2, 187885, Note_on_c, 0, 54, 0
2, 187912, Note_on_c, 0, 71, 0
2, 187920, Note_on_c, 0, 63, 70
2, 187920, Note_on_c, 0, 67, 70
2, 187920, Note_on_c, 0, 55, 91
2, 187920, Note_on_c, 0, 58, 93
2, 188135, Note_on_c, 0, 58, 0
2, 188135, Note_on_c, 0, 55, 0
2, 188159, Note_on_c, 0, 51, 73
2, 188245, Note_on_c, 0, 67, 0
2, 188245, Note_on_c, 0, 63, 0
2, 188269, Note_on_c, 0, 51, 0
2, 188280, Note_on_c, 0, 69, 89
2, 188280, Note_on_c, 0, 69, 112
2, 188280, Note_on_c, 0, 57, 122
2, 188280, Note_on_c, 0, 63, 122
2, 188362, Note_on_c, 0, 69, 0
2, 188370, Note_on_c, 0, 65, 72
2, 188452, Note_on_c, 0, 65, 0
2, 188460, Note_on_c, 0, 66, 83
2, 188542, Note_on_c, 0, 66, 0
2, 188550, Note_on_c, 0, 75, 102
2, 188605, Note_on_c, 0, 69, 0
2, 188605, Note_on_c, 0, 57, 0
2, 188632, Note_on_c, 0, 75, 0
2, 188640, Note_on_c, 0, 67, 79
2, 188640, Note_on_c, 0, 70, 77
2, 188640, Note_on_c, 0, 58, 98
2, 188855, Note_on_c, 0, 58, 0
2, 188855, Note_on_c, 0, 63, 0
2, 188879, Note_on_c, 0, 55, 72
2, 188965, Note_on_c, 0, 70, 0
2, 188965, Note_on_c, 0, 67, 0
2, 188989, Note_on_c, 0, 55, 0
2, 189000, Note_on_c, 0, 74, 100
2, 189000, Note_on_c, 0, 74, 122
2, 189000, Note_on_c, 0, 62, 121
2, 189000, Note_on_c, 0, 67, 122
2, 189082, Note_on_c, 0, 74, 0
2, 189090, Note_on_c, 0, 67, 72
2, 189172, Note_on_c, 0, 67, 0
2, 189180, Note_on_c, 0, 70, 94
2, 189262, Note_on_c, 0, 70, 0
2, 189270, Note_on_c, 0, 79, 113
2, 189325, Note_on_c, 0, 74, 0
2, 189325, Note_on_c, 0, 62, 0
2, 189352, Note_on_c, 0, 79, 0
2, 189360, Note_on_c, 0, 70, 86
2, 189360, Note_on_c, 0, 75, 85
2, 189360, Note_on_c, 0, 63, 95
2, 189575, Note_on_c, 0, 63, 0
2, 189575, Note_on_c, 0, 67, 0
2, 189575, Note_on_c, 0, 70, 0
2, 189575, Note_on_c, 0, 75, 0
2, 189599, Note_on_c, 0, 67, 118
2, 189599, Note_on_c, 0, 70, 116
2, 189599, Note_on_c, 0, 75, 118
2, 189599, Note_on_c, 0, 79, 115
2, 189599, Note_on_c, 0, 55, 92
2, 189599, Note_on_c, 0, 58, 91
2, 189599, Note_on_c, 0, 63, 90
2, 189599, Note_on_c, 0, 67, 94
2, 189709, Note_on_c, 0, 67, 0
2, 189709, Note_on_c, 0, 67, 0
2, 189709, Note_on_c, 0, 55, 0
2, 189709, Note_on_c, 0, 70, 0
2, 189709, Note_on_c, 0, 75, 0
2, 189709, Note_on_c, 0, 79, 0
2, 189709, Note_on_c, 0, 58, 0
2, 189709, Note_on_c, 0, 63, 0
2, 189720, Note_on_c, 0, 67, 117
2, 189720, Note_on_c, 0, 70, 119
2, 189720, Note_on_c, 0, 74, 119
2, 189720, Note_on_c, 0, 77, 120
2, 189720, Note_on_c, 0, 55, 111
2, 189720, Note_on_c, 0, 58, 110
2, 189720, Note_on_c, 0, 62, 113
2, 189720, Note_on_c, 0, 65, 112
2, 189935, Note_on_c, 0, 65, 0
2, 189935, Note_on_c, 0, 67, 0
2, 189935, Note_on_c, 0, 55, 0
2, 189935, Note_on_c, 0, 70, 0
2, 189935, Note_on_c, 0, 74, 0
2, 189935, Note_on_c, 0, 77, 0
2, 189935, Note_on_c, 0, 58, 0
2, 189935, Note_on_c, 0, 62, 0
2, 189959, Note_on_c, 0, 55, 75
2, 189959, Note_on_c, 0, 58, 75
2, 189959, Note_on_c, 0, 62, 75
2, 189959, Note_on_c, 0, 65, 75
2, 189959, Note_on_c, 0, 50, 64
2, 189959, Note_on_c, 0, 53, 64
2, 190069, Note_on_c, 0, 53, 0
2, 190069, Note_on_c, 0, 58, 0
2, 190069, Note_on_c, 0, 62, 0
2, 190069, Note_on_c, 0, 55, 0
2, 190069, Note_on_c, 0, 50, 0
2, 190069, Note_on_c, 0, 65, 0
2, 190080, Note_on_c, 0, 55, 111
2, 190080, Note_on_c, 0, 60, 111
2, 190080, Note_on_c, 0, 63, 110
2, 190080, Note_on_c, 0, 67, 110
2, 190080, Note_on_c, 0, 39, 83
2, 190080, Note_on_c, 0, 48, 86
2, 190080, Note_on_c, 0, 51, 86
2, 190319, Note_on_c, 0, 72, 94
2, 190319, Note_on_c, 0, 75, 95
2, 190319, Note_on_c, 0, 79, 92
2, 190319, Note_on_c, 0, 60, 83
2, 190319, Note_on_c, 0, 63, 83
2, 190319, Note_on_c, 0, 67, 82
2, 190429, Note_on_c, 0, 79, 0
2, 190429, Note_on_c, 0, 75, 0
2, 190429, Note_on_c, 0, 67, 0
2, 190429, Note_on_c, 0, 63, 0
2, 190429, Note_on_c, 0, 72, 0
2, 190429, Note_on_c, 0, 60, 0
2, 190440, Note_on_c, 0, 72, 122
2, 190440, Note_on_c, 0, 75, 122
2, 190440, Note_on_c, 0, 79, 122
2, 190440, Note_on_c, 0, 84, 122
2, 190440, Note_on_c, 0, 60, 122
2, 190440, Note_on_c, 0, 63, 122
2, 190440, Note_on_c, 0, 67, 122
2, 190440, Note_on_c, 0, 72, 122
2, 190730, Note_on_c, 0, 55, 0
2, 190730, Note_on_c, 0, 39, 0
2, 190730, Note_on_c, 0, 48, 0
2, 190730, Note_on_c, 0, 60, 0
2, 190730, Note_on_c, 0, 63, 0
2, 190730, Note_on_c, 0, 67, 0
2, 190730, Note_on_c, 0, 51, 0
2, 191015, Note_on_c, 0, 75, 0
2, 191015, Note_on_c, 0, 72, 0
2, 191015, Note_on_c, 0, 84, 0
2, 191015, Note_on_c, 0, 60, 0
2, 191015, Note_on_c, 0, 67, 0
2, 191015, Note_on_c, 0, 72, 0
2, 191015, Note_on_c, 0, 79, 0
2, 191015, Note_on_c, 0, 63, 0
2, 191039, Note_on_c, 0, 67, 80
2, 191039, Note_on_c, 0, 72, 83
2, 191039, Note_on_c, 0, 75, 82
2, 191039, Note_on_c, 0, 55, 71
2, 191039, Note_on_c, 0, 60, 69
2, 191039, Note_on_c, 0, 63, 71
2, 191149, Note_on_c, 0, 63, 0
2, 191149, Note_on_c, 0, 72, 0
2, 191149, Note_on_c, 0, 75, 0
2, 191149, Note_on_c, 0, 67, 0
2, 191149, Note_on_c, 0, 60, 0
2, 191149, Note_on_c, 0, 55, 0
2, 191160, Note_on_c, 0, 67, 113
2, 191160, Note_on_c, 0, 70, 114
2, 191160, Note_on_c, 0, 74, 114
2, 191160, Note_on_c, 0, 53, 107
2, 191160, Note_on_c, 0, 55, 109
2, 191160, Note_on_c, 0, 58, 111
2, 191160, Note_on_c, 0, 62, 110
2, 191375, Note_on_c, 0, 62, 0
2, 191375, Note_on_c, 0, 55, 0
2, 191375, Note_on_c, 0, 70, 0
2, 191375, Note_on_c, 0, 74, 0
2, 191375, Note_on_c, 0, 67, 0
2, 191375, Note_on_c, 0, 58, 0
2, 191375, Note_on_c, 0, 53, 0
2, 191399, Note_on_c, 0, 55, 72
2, 191399, Note_on_c, 0, 58, 73
2, 191399, Note_on_c, 0, 62, 75
2, 191399, Note_on_c, 0, 50, 63
2, 191509, Note_on_c, 0, 50, 0
2, 191509, Note_on_c, 0, 55, 0
2, 191509, Note_on_c, 0, 58, 0
2, 191509, Note_on_c, 0, 62, 0
2, 191520, Note_on_c, 0, 55, 112
2, 191520, Note_on_c, 0, 60, 109
2, 191520, Note_on_c, 0, 63, 113
2, 191520, Note_on_c, 0, 39, 59
2, 191520, Note_on_c, 0, 48, 57
2, 191759, Note_on_c, 0, 67, 94
2, 191759, Note_on_c, 0, 72, 94
2, 191759, Note_on_c, 0, 75, 94
2, 191759, Note_on_c, 0, 55, 84
2, 191759, Note_on_c, 0, 60, 83
2, 191759, Note_on_c, 0, 63, 83
2, 191869, Note_on_c, 0, 75, 0
2, 191869, Note_on_c, 0, 72, 0
2, 191869, Note_on_c, 0, 55, 0
2, 191869, Note_on_c, 0, 67, 0
2, 191869, Note_on_c, 0, 60, 0
2, 191869, Note_on_c, 0, 63, 0
2, 191880, Note_on_c, 0, 67, 122
2, 191880, Note_on_c, 0, 72, 122
2, 191880, Note_on_c, 0, 75, 122
2, 191880, Note_on_c, 0, 79, 122
2, 191880, Note_on_c, 0, 51, 119
2, 191880, Note_on_c, 0, 55, 120
2, 191880, Note_on_c, 0, 60, 119
2, 191880, Note_on_c, 0, 63, 119
2, 192170, Note_on_c, 0, 55, 0
2, 192170, Note_on_c, 0, 48, 0
2, 192170, Note_on_c, 0, 60, 0
2, 192170, Note_on_c, 0, 63, 0
2, 192170, Note_on_c, 0, 39, 0
2, 192455, Note_on_c, 0, 79, 0
2, 192455, Note_on_c, 0, 75, 0
2, 192455, Note_on_c, 0, 72, 0
2, 192455, Note_on_c, 0, 63, 0
2, 192455, Note_on_c, 0, 67, 0
2, 192455, Note_on_c, 0, 60, 0
2, 192455, Note_on_c, 0, 51, 0
2, 192455, Note_on_c, 0, 55, 0
2, 192479, Note_on_c, 0, 63, 85
2, 192479, Note_on_c, 0, 67, 87
2, 192479, Note_on_c, 0, 72, 85
2, 192479, Note_on_c, 0, 51, 83
2, 192479, Note_on_c, 0, 55, 82
2, 192479, Note_on_c, 0, 60, 83
2, 192589, Note_on_c, 0, 60, 0
2, 192589, Note_on_c, 0, 67, 0
2, 192589, Note_on_c, 0, 72, 0
2, 192589, Note_on_c, 0, 63, 0
2, 192589, Note_on_c, 0, 55, 0
2, 192589, Note_on_c, 0, 51, 0
2, 192600, Note_on_c, 0, 63, 113
2, 192600, Note_on_c, 0, 67, 114
2, 192600, Note_on_c, 0, 70, 111
2, 192600, Note_on_c, 0, 50, 112
2, 192600, Note_on_c, 0, 55, 109
2, 192600, Note_on_c, 0, 58, 108
2, 192815, Note_on_c, 0, 58, 0
2, 192815, Note_on_c, 0, 67, 0
2, 192815, Note_on_c, 0, 70, 0
2, 192815, Note_on_c, 0, 63, 0
2, 192815, Note_on_c, 0, 55, 0
2, 192815, Note_on_c, 0, 50, 0
2, 192839, Note_on_c, 0, 51, 71
2, 192839, Note_on_c, 0, 55, 75
2, 192839, Note_on_c, 0, 58, 73
2, 192839, Note_on_c, 0, 46, 71
2, 192839, Note_on_c, 0, 50, 73
2, 192949, Note_on_c, 0, 50, 0
2, 192949, Note_on_c, 0, 58, 0
2, 192949, Note_on_c, 0, 51, 0
2, 192949, Note_on_c, 0, 55, 0
2, 192949, Note_on_c, 0, 46, 0
2, 192960, Note_on_c, 0, 51, 122
2, 192960, Note_on_c, 0, 55, 122
2, 192960, Note_on_c, 0, 60, 122
2, 192960, Note_on_c, 0, 39, 108
2, 192960, Note_on_c, 0, 43, 108
2, 192960, Note_on_c, 0, 48, 107
2, 193175, Note_on_c, 0, 48, 0
2, 193175, Note_on_c, 0, 55, 0
2, 193175, Note_on_c, 0, 60, 0
2, 193175, Note_on_c, 0, 51, 0
2, 193175, Note_on_c, 0, 43, 0
2, 193175, Note_on_c, 0, 39, 0
2, 193199, Note_on_c, 0, 63, 122
2, 193199, Note_on_c, 0, 67, 122
2, 193199, Note_on_c, 0, 72, 122
2, 193199, Note_on_c, 0, 51, 116
2, 193199, Note_on_c, 0, 55, 118
2, 193199, Note_on_c, 0, 60, 119
2, 193309, Note_on_c, 0, 60, 0
2, 193309, Note_on_c, 0, 67, 0
2, 193309, Note_on_c, 0, 72, 0
2, 193309, Note_on_c, 0, 63, 0
2, 193309, Note_on_c, 0, 55, 0
2, 193309, Note_on_c, 0, 51, 0
2, 193320, Note_on_c, 0, 63, 119
2, 193320, Note_on_c, 0, 67, 121
2, 193320, Note_on_c, 0, 70, 118
2, 193320, Note_on_c, 0, 75, 121
2, 193320, Note_on_c, 0, 46, 89
2, 193320, Note_on_c, 0, 51, 90
2, 193320, Note_on_c, 0, 55, 88
2, 193320, Note_on_c, 0, 58, 88
2, 193497, Note_on_c, 0, 58, 0
2, 193497, Note_on_c, 0, 63, 0
2, 193497, Note_on_c, 0, 46, 0
2, 193497, Note_on_c, 0, 67, 0
2, 193497, Note_on_c, 0, 70, 0
2, 193497, Note_on_c, 0, 75, 0
2, 193497, Note_on_c, 0, 51, 0
2, 193497, Note_on_c, 0, 55, 0
2, 193680, Note_on_c, 0, 63, 108
2, 193680, Note_on_c, 0, 68, 110
2, 193680, Note_on_c, 0, 72, 110
2, 193680, Note_on_c, 0, 75, 110
2, 193680, Note_on_c, 0, 44, 83
2, 193680, Note_on_c, 0, 48, 85
2, 193680, Note_on_c, 0, 51, 84
2, 193680, Note_on_c, 0, 56, 86
2, 193857, Note_on_c, 0, 56, 0
2, 193857, Note_on_c, 0, 63, 0
2, 193857, Note_on_c, 0, 44, 0
2, 193857, Note_on_c, 0, 68, 0
2, 193857, Note_on_c, 0, 72, 0
2, 193857, Note_on_c, 0, 75, 0
2, 193857, Note_on_c, 0, 48, 0
2, 193857, Note_on_c, 0, 51, 0
2, 194040, Note_on_c, 0, 63, 107
2, 194040, Note_on_c, 0, 70, 108
2, 194040, Note_on_c, 0, 75, 107
2, 194040, Note_on_c, 0, 43, 85
2, 194040, Note_on_c, 0, 46, 86
2, 194040, Note_on_c, 0, 51, 87
2, 194040, Note_on_c, 0, 55, 85
2, 194217, Note_on_c, 0, 55, 0
2, 194217, Note_on_c, 0, 46, 0
2, 194217, Note_on_c, 0, 70, 0
2, 194217, Note_on_c, 0, 75, 0
2, 194217, Note_on_c, 0, 63, 0
2, 194217, Note_on_c, 0, 51, 0
2, 194217, Note_on_c, 0, 43, 0
2, 194400, Note_on_c, 0, 51, 111
2, 194400, Note_on_c, 0, 27, 111
2, 194400, Note_on_c, 0, 39, 111
2, 194639, Note_on_c, 0, 68, 96
2, 194639, Note_on_c, 0, 72, 92
2, 194639, Note_on_c, 0, 74, 95
2, 194639, Note_on_c, 0, 53, 94
2, 194639, Note_on_c, 0, 56, 92
2, 194639, Note_on_c, 0, 60, 92
2, 194639, Note_on_c, 0, 65, 93
2, 194749, Note_on_c, 0, 65, 0
2, 194749, Note_on_c, 0, 60, 0
2, 194749, Note_on_c, 0, 53, 0
2, 194749, Note_on_c, 0, 68, 0
2, 194749, Note_on_c, 0, 72, 0
2, 194749, Note_on_c, 0, 56, 0
2, 194749, Note_on_c, 0, 74, 0
2, 194760, Note_on_c, 0, 68, 122
2, 194760, Note_on_c, 0, 72, 122
2, 194760, Note_on_c, 0, 75, 122
2, 194760, Note_on_c, 0, 51, 114
2, 194760, Note_on_c, 0, 56, 115
2, 194760, Note_on_c, 0, 60, 115
2, 194760, Note_on_c, 0, 63, 116
2, 195335, Note_on_c, 0, 63, 0
2, 195335, Note_on_c, 0, 51, 0
2, 195335, Note_on_c, 0, 68, 0
2, 195335, Note_on_c, 0, 60, 0
2, 195335, Note_on_c, 0, 75, 0
2, 195335, Note_on_c, 0, 56, 0
2, 195335, Note_on_c, 0, 72, 0
2, 195359, Note_on_c, 0, 61, 91
2, 195359, Note_on_c, 0, 68, 92
2, 195359, Note_on_c, 0, 70, 90
2, 195359, Note_on_c, 0, 53, 80
2, 195469, Note_on_c, 0, 53, 0
2, 195469, Note_on_c, 0, 68, 0
2, 195469, Note_on_c, 0, 61, 0
2, 195469, Note_on_c, 0, 70, 0
2, 195480, Note_on_c, 0, 60, 122
2, 195480, Note_on_c, 0, 68, 122
2, 195480, Note_on_c, 0, 72, 122
2, 195480, Note_on_c, 0, 51, 111
2, 195695, Note_on_c, 0, 72, 0
2, 195695, Note_on_c, 0, 60, 0
2, 195695, Note_on_c, 0, 51, 0
2, 195695, Note_on_c, 0, 68, 0
2, 195719, Note_on_c, 0, 58, 91
2, 195719, Note_on_c, 0, 61, 90
2, 195719, Note_on_c, 0, 67, 89
2, 195719, Note_on_c, 0, 39, 106
2, 195719, Note_on_c, 0, 51, 102
2, 195770, Note_on_c, 0, 39, 0
2, 195770, Note_on_c, 0, 27, 0
2, 195770, Note_on_c, 0, 51, 0
2, 195829, Note_on_c, 0, 67, 0
2, 195829, Note_on_c, 0, 61, 0
2, 195829, Note_on_c, 0, 51, 0
2, 195829, Note_on_c, 0, 39, 0
2, 195829, Note_on_c, 0, 58, 0
2, 195840, Note_on_c, 0, 60, 122
2, 195840, Note_on_c, 0, 63, 122
2, 195840, Note_on_c, 0, 68, 122
2, 195840, Note_on_c, 0, 44, 122
2, 195840, Note_on_c, 0, 51, 122
2, 195948, Note_on_c, 0, 51, 0
2, 195948, Note_on_c, 0, 68, 0
2, 195948, Note_on_c, 0, 60, 0
2, 195948, Note_on_c, 0, 63, 0
2, 195948, Note_on_c, 0, 44, 0
2, 196079, Note_on_c, 0, 60, 66
2, 196079, Note_on_c, 0, 67, 65
2, 196079, Note_on_c, 0, 68, 67
2, 196079, Note_on_c, 0, 55, 93
2, 196189, Note_on_c, 0, 55, 0
2, 196189, Note_on_c, 0, 60, 0
2, 196189, Note_on_c, 0, 67, 0
2, 196189, Note_on_c, 0, 68, 0
2, 196200, Note_on_c, 0, 60, 75
2, 196200, Note_on_c, 0, 67, 76
2, 196200, Note_on_c, 0, 68, 74
2, 196200, Note_on_c, 0, 55, 107
2, 196259, Note_on_c, 0, 55, 0
2, 196259, Note_on_c, 0, 60, 0
2, 196259, Note_on_c, 0, 67, 0
2, 196259, Note_on_c, 0, 68, 0
2, 196320, Note_on_c, 0, 39, 75
2, 196428, Note_on_c, 0, 39, 0
2, 196439, Note_on_c, 0, 60, 64
2, 196439, Note_on_c, 0, 66, 67
2, 196439, Note_on_c, 0, 68, 68
2, 196439, Note_on_c, 0, 54, 122
2, 196549, Note_on_c, 0, 54, 0
2, 196549, Note_on_c, 0, 60, 0
2, 196549, Note_on_c, 0, 66, 0
2, 196549, Note_on_c, 0, 68, 0
2, 196560, Note_on_c, 0, 60, 75
2, 196560, Note_on_c, 0, 66, 76
2, 196560, Note_on_c, 0, 68, 77
2, 196560, Note_on_c, 0, 54, 113
2, 196619, Note_on_c, 0, 54, 0
2, 196619, Note_on_c, 0, 60, 0
2, 196619, Note_on_c, 0, 66, 0
2, 196619, Note_on_c, 0, 68, 0
2, 196680, Note_on_c, 0, 39, 75
2, 196788, Note_on_c, 0, 39, 0
2, 196799, Note_on_c, 0, 60, 68
2, 196799, Note_on_c, 0, 65, 66
2, 196799, Note_on_c, 0, 68, 66
2, 196799, Note_on_c, 0, 53, 121
2, 196909, Note_on_c, 0, 53, 0
2, 196909, Note_on_c, 0, 60, 0
2, 196909, Note_on_c, 0, 65, 0
2, 196909, Note_on_c, 0, 68, 0
2, 196920, Note_on_c, 0, 60, 75
2, 196920, Note_on_c, 0, 65, 76
2, 196920, Note_on_c, 0, 68, 75
2, 196920, Note_on_c, 0, 53, 115
2, 196979, Note_on_c, 0, 53, 0
2, 196979, Note_on_c, 0, 60, 0
2, 196979, Note_on_c, 0, 65, 0
2, 196979, Note_on_c, 0, 68, 0
2, 197040, Note_on_c, 0, 39, 73
2, 197148, Note_on_c, 0, 39, 0
2, 197159, Note_on_c, 0, 60, 88
2, 197159, Note_on_c, 0, 64, 90
2, 197159, Note_on_c, 0, 68, 90
2, 197159, Note_on_c, 0, 72, 90
2, 197159, Note_on_c, 0, 52, 122
2, 197220, Note_on_c, 0, 52, 0
2, 197269, Note_on_c, 0, 68, 0
2, 197269, Note_on_c, 0, 60, 0
2, 197269, Note_on_c, 0, 64, 0
2, 197269, Note_on_c, 0, 72, 0
2, 197280, Note_on_c, 0, 60, 88
2, 197280, Note_on_c, 0, 63, 87
2, 197280, Note_on_c, 0, 68, 88
2, 197280, Note_on_c, 0, 51, 122
2, 197388, Note_on_c, 0, 51, 0
2, 197388, Note_on_c, 0, 60, 0
2, 197388, Note_on_c, 0, 63, 0
2, 197388, Note_on_c, 0, 68, 0
2, 197400, Note_on_c, 0, 39, 74
2, 197508, Note_on_c, 0, 39, 0
2, 197519, Note_on_c, 0, 60, 66
2, 197519, Note_on_c, 0, 67, 66
2, 197519, Note_on_c, 0, 68, 64
2, 197519, Note_on_c, 0, 55, 121
2, 197629, Note_on_c, 0, 55, 0
2, 197629, Note_on_c, 0, 60, 0
2, 197629, Note_on_c, 0, 67, 0
2, 197629, Note_on_c, 0, 68, 0
2, 197640, Note_on_c, 0, 60, 78
2, 197640, Note_on_c, 0, 67, 76
2, 197640, Note_on_c, 0, 68, 78
2, 197640, Note_on_c, 0, 55, 113
2, 197699, Note_on_c, 0, 55, 0
2, 197699, Note_on_c, 0, 60, 0
2, 197699, Note_on_c, 0, 67, 0
2, 197699, Note_on_c, 0, 68, 0
2, 197760, Note_on_c, 0, 39, 75
2, 197868, Note_on_c, 0, 39, 0
2, 197879, Note_on_c, 0, 60, 65
2, 197879, Note_on_c, 0, 66, 68
2, 197879, Note_on_c, 0, 68, 65
2, 197879, Note_on_c, 0, 54, 122
2, 197989, Note_on_c, 0, 54, 0
2, 197989, Note_on_c, 0, 60, 0
2, 197989, Note_on_c, 0, 66, 0
2, 197989, Note_on_c, 0, 68, 0
2, 198000, Note_on_c, 0, 60, 78
2, 198000, Note_on_c, 0, 66, 75
2, 198000, Note_on_c, 0, 68, 75
2, 198000, Note_on_c, 0, 54, 115
2, 198059, Note_on_c, 0, 54, 0
2, 198059, Note_on_c, 0, 60, 0
2, 198059, Note_on_c, 0, 66, 0
2, 198059, Note_on_c, 0, 68, 0
2, 198120, Note_on_c, 0, 39, 74
2, 198228, Note_on_c, 0, 39, 0
2, 198239, Note_on_c, 0, 60, 68
2, 198239, Note_on_c, 0, 65, 65
2, 198239, Note_on_c, 0, 68, 67
2, 198239, Note_on_c, 0, 53, 121
2, 198349, Note_on_c, 0, 53, 0
2, 198349, Note_on_c, 0, 60, 0
2, 198349, Note_on_c, 0, 65, 0
2, 198349, Note_on_c, 0, 68, 0
2, 198360, Note_on_c, 0, 60, 78
2, 198360, Note_on_c, 0, 65, 76
2, 198360, Note_on_c, 0, 68, 76
2, 198360, Note_on_c, 0, 53, 113
2, 198419, Note_on_c, 0, 53, 0
2, 198419, Note_on_c, 0, 60, 0
2, 198419, Note_on_c, 0, 65, 0
2, 198419, Note_on_c, 0, 68, 0
2, 198480, Note_on_c, 0, 39, 76
2, 198588, Note_on_c, 0, 39, 0
2, 198599, Note_on_c, 0, 60, 89
2, 198599, Note_on_c, 0, 64, 88
2, 198599, Note_on_c, 0, 68, 89
2, 198599, Note_on_c, 0, 72, 90
2, 198599, Note_on_c, 0, 52, 121
2, 198660, Note_on_c, 0, 52, 0
2, 198709, Note_on_c, 0, 68, 0
2, 198709, Note_on_c, 0, 60, 0
2, 198709, Note_on_c, 0, 64, 0
2, 198709, Note_on_c, 0, 72, 0
2, 198720, Note_on_c, 0, 60, 89
2, 198720, Note_on_c, 0, 63, 89
2, 198720, Note_on_c, 0, 68, 89
2, 198720, Note_on_c, 0, 51, 122
2, 198828, Note_on_c, 0, 51, 0
2, 198828, Note_on_c, 0, 60, 0
2, 198828, Note_on_c, 0, 63, 0
2, 198828, Note_on_c, 0, 68, 0
2, 198840, Note_on_c, 0, 39, 75
2, 198948, Note_on_c, 0, 39, 0
2, 198959, Note_on_c, 0, 65, 65
2, 198959, Note_on_c, 0, 69, 67
2, 198959, Note_on_c, 0, 73, 66
2, 198959, Note_on_c, 0, 57, 122
2, 198959, Note_on_c, 0, 61, 121
2, 199069, Note_on_c, 0, 61, 0
2, 199069, Note_on_c, 0, 73, 0
2, 199069, Note_on_c, 0, 65, 0
2, 199069, Note_on_c, 0, 69, 0
2, 199069, Note_on_c, 0, 57, 0
2, 199080, Note_on_c, 0, 65, 75
2, 199080, Note_on_c, 0, 69, 74
2, 199080, Note_on_c, 0, 73, 77
2, 199080, Note_on_c, 0, 57, 114
2, 199080, Note_on_c, 0, 61, 113
2, 199139, Note_on_c, 0, 61, 0
2, 199139, Note_on_c, 0, 73, 0
2, 199139, Note_on_c, 0, 65, 0
2, 199139, Note_on_c, 0, 69, 0
2, 199139, Note_on_c, 0, 57, 0
2, 199200, Note_on_c, 0, 51, 80
2, 199308, Note_on_c, 0, 51, 0
2, 199319, Note_on_c, 0, 64, 66
2, 199319, Note_on_c, 0, 68, 67
2, 199319, Note_on_c, 0, 73, 65
2, 199319, Note_on_c, 0, 56, 120
2, 199319, Note_on_c, 0, 61, 122
2, 199429, Note_on_c, 0, 61, 0
2, 199429, Note_on_c, 0, 73, 0
2, 199429, Note_on_c, 0, 64, 0
2, 199429, Note_on_c, 0, 68, 0
2, 199429, Note_on_c, 0, 56, 0
2, 199440, Note_on_c, 0, 64, 76
2, 199440, Note_on_c, 0, 68, 78
2, 199440, Note_on_c, 0, 73, 78
2, 199440, Note_on_c, 0, 56, 111
2, 199440, Note_on_c, 0, 61, 111
2, 199499, Note_on_c, 0, 61, 0
2, 199499, Note_on_c, 0, 73, 0
2, 199499, Note_on_c, 0, 64, 0
2, 199499, Note_on_c, 0, 68, 0
2, 199499, Note_on_c, 0, 56, 0
2, 199560, Note_on_c, 0, 51, 77
2, 199668, Note_on_c, 0, 51, 0
2, 199679, Note_on_c, 0, 63, 67
2, 199679, Note_on_c, 0, 67, 66
2, 199679, Note_on_c, 0, 73, 66
2, 199679, Note_on_c, 0, 55, 122
2, 199679, Note_on_c, 0, 61, 122
2, 199789, Note_on_c, 0, 61, 0
2, 199789, Note_on_c, 0, 73, 0
2, 199789, Note_on_c, 0, 63, 0
2, 199789, Note_on_c, 0, 67, 0
2, 199789, Note_on_c, 0, 55, 0
2, 199800, Note_on_c, 0, 63, 78
2, 199800, Note_on_c, 0, 67, 75
2, 199800, Note_on_c, 0, 73, 74
2, 199800, Note_on_c, 0, 55, 111
2, 199800, Note_on_c, 0, 61, 113
2, 199859, Note_on_c, 0, 61, 0
2, 199859, Note_on_c, 0, 73, 0
2, 199859, Note_on_c, 0, 63, 0
2, 199859, Note_on_c, 0, 67, 0
2, 199859, Note_on_c, 0, 55, 0
2, 199920, Note_on_c, 0, 39, 74
2, 200028, Note_on_c, 0, 39, 0
2, 200039, Note_on_c, 0, 64, 90
2, 200039, Note_on_c, 0, 67, 91
2, 200039, Note_on_c, 0, 71, 91
2, 200039, Note_on_c, 0, 76, 88
2, 200039, Note_on_c, 0, 55, 122
2, 200039, Note_on_c, 0, 59, 121
2, 200100, Note_on_c, 0, 59, 0
2, 200100, Note_on_c, 0, 55, 0
2, 200149, Note_on_c, 0, 71, 0
2, 200149, Note_on_c, 0, 64, 0
2, 200149, Note_on_c, 0, 67, 0
2, 200149, Note_on_c, 0, 76, 0
2, 200160, Note_on_c, 0, 63, 89
2, 200160, Note_on_c, 0, 68, 90
2, 200160, Note_on_c, 0, 72, 87
2, 200160, Note_on_c, 0, 56, 122
2, 200160, Note_on_c, 0, 60, 122
2, 200268, Note_on_c, 0, 60, 0
2, 200268, Note_on_c, 0, 72, 0
2, 200268, Note_on_c, 0, 63, 0
2, 200268, Note_on_c, 0, 68, 0
2, 200268, Note_on_c, 0, 56, 0
2, 200280, Note_on_c, 0, 51, 81
2, 200388, Note_on_c, 0, 51, 0
2, 200399, Note_on_c, 0, 65, 67
2, 200399, Note_on_c, 0, 69, 64
2, 200399, Note_on_c, 0, 73, 66
2, 200399, Note_on_c, 0, 57, 120
2, 200399, Note_on_c, 0, 61, 122
2, 200509, Note_on_c, 0, 61, 0
2, 200509, Note_on_c, 0, 73, 0
2, 200509, Note_on_c, 0, 65, 0
2, 200509, Note_on_c, 0, 69, 0
2, 200509, Note_on_c, 0, 57, 0
2, 200520, Note_on_c, 0, 65, 76
2, 200520, Note_on_c, 0, 69, 78
2, 200520, Note_on_c, 0, 73, 75
2, 200520, Note_on_c, 0, 57, 111
2, 200520, Note_on_c, 0, 61, 111
2, 200579, Note_on_c, 0, 61, 0
2, 200579, Note_on_c, 0, 73, 0
2, 200579, Note_on_c, 0, 65, 0
2, 200579, Note_on_c, 0, 69, 0
2, 200579, Note_on_c, 0, 57, 0
2, 200640, Note_on_c, 0, 51, 80
2, 200748, Note_on_c, 0, 51, 0
2, 200759, Note_on_c, 0, 64, 66
2, 200759, Note_on_c, 0, 68, 65
2, 200759, Note_on_c, 0, 73, 67
2, 200759, Note_on_c, 0, 56, 122
2, 200759, Note_on_c, 0, 61, 122
2, 200869, Note_on_c, 0, 61, 0
2, 200869, Note_on_c, 0, 73, 0
2, 200869, Note_on_c, 0, 64, 0
2, 200869, Note_on_c, 0, 68, 0
2, 200869, Note_on_c, 0, 56, 0
2, 200880, Note_on_c, 0, 64, 77
2, 200880, Note_on_c, 0, 68, 74
2, 200880, Note_on_c, 0, 73, 77
2, 200880, Note_on_c, 0, 56, 110
2, 200880, Note_on_c, 0, 61, 111
2, 200939, Note_on_c, 0, 61, 0
2, 200939, Note_on_c, 0, 73, 0
2, 200939, Note_on_c, 0, 64, 0
2, 200939, Note_on_c, 0, 68, 0
2, 200939, Note_on_c, 0, 56, 0
2, 201000, Note_on_c, 0, 51, 79
2, 201108, Note_on_c, 0, 51, 0
2, 201119, Note_on_c, 0, 63, 66
2, 201119, Note_on_c, 0, 67, 66
2, 201119, Note_on_c, 0, 73, 65
2, 201119, Note_on_c, 0, 55, 121
2, 201119, Note_on_c, 0, 61, 122
2, 201229, Note_on_c, 0, 61, 0
2, 201229, Note_on_c, 0, 73, 0
2, 201229, Note_on_c, 0, 63, 0
2, 201229, Note_on_c, 0, 67, 0
2, 201229, Note_on_c, 0, 55, 0
2, 201240, Note_on_c, 0, 63, 75
2, 201240, Note_on_c, 0, 67, 77
2, 201240, Note_on_c, 0, 73, 78
2, 201240, Note_on_c, 0, 55, 112
2, 201240, Note_on_c, 0, 61, 111
2, 201299, Note_on_c, 0, 61, 0
2, 201299, Note_on_c, 0, 73, 0
2, 201299, Note_on_c, 0, 63, 0
2, 201299, Note_on_c, 0, 67, 0
2, 201299, Note_on_c, 0, 55, 0
2, 201360, Note_on_c, 0, 39, 76
2, 201468, Note_on_c, 0, 39, 0
2, 201479, Note_on_c, 0, 64, 90
2, 201479, Note_on_c, 0, 67, 91
2, 201479, Note_on_c, 0, 71, 90
2, 201479, Note_on_c, 0, 76, 87
2, 201479, Note_on_c, 0, 55, 122
2, 201479, Note_on_c, 0, 59, 121
2, 201540, Note_on_c, 0, 59, 0
2, 201540, Note_on_c, 0, 55, 0
2, 201589, Note_on_c, 0, 71, 0
2, 201589, Note_on_c, 0, 64, 0
2, 201589, Note_on_c, 0, 67, 0
2, 201589, Note_on_c, 0, 76, 0
2, 201600, Note_on_c, 0, 63, 88
2, 201600, Note_on_c, 0, 68, 88
2, 201600, Note_on_c, 0, 72, 90
2, 201600, Note_on_c, 0, 56, 122
2, 201600, Note_on_c, 0, 60, 122
2, 201815, Note_on_c, 0, 60, 0
2, 201815, Note_on_c, 0, 56, 0
2, 201839, Note_on_c, 0, 51, 85
2, 201925, Note_on_c, 0, 63, 0
2, 201925, Note_on_c, 0, 72, 0
2, 201925, Note_on_c, 0, 68, 0
2, 201949, Note_on_c, 0, 51, 0
2, 201960, Note_on_c, 0, 71, 72
2, 201960, Note_on_c, 0, 71, 121
2, 201960, Note_on_c, 0, 59, 121
2, 201960, Note_on_c, 0, 65, 122
2, 202042, Note_on_c, 0, 71, 0
2, 202050, Note_on_c, 0, 67, 63
2, 202132, Note_on_c, 0, 67, 0
2, 202140, Note_on_c, 0, 68, 78
2, 202222, Note_on_c, 0, 68, 0
2, 202230, Note_on_c, 0, 76, 95
2, 202285, Note_on_c, 0, 71, 0
2, 202285, Note_on_c, 0, 65, 0
2, 202285, Note_on_c, 0, 59, 0
2, 202312, Note_on_c, 0, 76, 0
2, 202320, Note_on_c, 0, 68, 71
2, 202320, Note_on_c, 0, 72, 70
2, 202320, Note_on_c, 0, 60, 104
2, 202320, Note_on_c, 0, 63, 101
2, 202535, Note_on_c, 0, 63, 0
2, 202535, Note_on_c, 0, 60, 0
2, 202559, Note_on_c, 0, 57, 88
2, 202645, Note_on_c, 0, 72, 0
2, 202645, Note_on_c, 0, 68, 0
2, 202669, Note_on_c, 0, 57, 0
2, 202680, Note_on_c, 0, 74, 87
2, 202680, Note_on_c, 0, 74, 119
2, 202680, Note_on_c, 0, 62, 121
2, 202680, Note_on_c, 0, 68, 121
2, 202762, Note_on_c, 0, 74, 0
2, 202770, Note_on_c, 0, 70, 72
2, 202852, Note_on_c, 0, 70, 0
2, 202860, Note_on_c, 0, 71, 86
2, 202942, Note_on_c, 0, 71, 0
2, 202950, Note_on_c, 0, 80, 104
2, 203005, Note_on_c, 0, 74, 0
2, 203005, Note_on_c, 0, 62, 0
2, 203032, Note_on_c, 0, 80, 0
2, 203040, Note_on_c, 0, 72, 77
2, 203040, Note_on_c, 0, 75, 80
2, 203040, Note_on_c, 0, 63, 112
2, 203255, Note_on_c, 0, 63, 0
2, 203255, Note_on_c, 0, 68, 0
2, 203279, Note_on_c, 0, 60, 83
2, 203365, Note_on_c, 0, 75, 0
2, 203365, Note_on_c, 0, 72, 0
2, 203389, Note_on_c, 0, 60, 0
2, 203400, Note_on_c, 0, 79, 98
2, 203400, Note_on_c, 0, 79, 96
2, 203400, Note_on_c, 0, 67, 121
2, 203400, Note_on_c, 0, 72, 122
2, 203482, Note_on_c, 0, 79, 0
2, 203490, Note_on_c, 0, 72, 71
2, 203572, Note_on_c, 0, 72, 0
2, 203580, Note_on_c, 0, 75, 94
2, 203662, Note_on_c, 0, 75, 0
2, 203670, Note_on_c, 0, 84, 112
2, 203725, Note_on_c, 0, 79, 0
2, 203725, Note_on_c, 0, 67, 0
2, 203752, Note_on_c, 0, 84, 0
2, 203760, Note_on_c, 0, 75, 88
2, 203760, Note_on_c, 0, 80, 87
2, 203760, Note_on_c, 0, 68, 109
2, 203975, Note_on_c, 0, 68, 0
2, 203975, Note_on_c, 0, 72, 0
2, 203975, Note_on_c, 0, 75, 0
2, 203975, Note_on_c, 0, 80, 0
2, 203999, Note_on_c, 0, 72, 118
2, 203999, Note_on_c, 0, 75, 115
2, 203999, Note_on_c, 0, 80, 117
2, 203999, Note_on_c, 0, 84, 115
2, 203999, Note_on_c, 0, 60, 108
2, 203999, Note_on_c, 0, 63, 104
2, 203999, Note_on_c, 0, 68, 108
2, 203999, Note_on_c, 0, 72, 107
2, 204109, Note_on_c, 0, 72, 0
2, 204109, Note_on_c, 0, 72, 0
2, 204109, Note_on_c, 0, 60, 0
2, 204109, Note_on_c, 0, 75, 0
2, 204109, Note_on_c, 0, 80, 0
2, 204109, Note_on_c, 0, 84, 0
2, 204109, Note_on_c, 0, 63, 0
2, 204109, Note_on_c, 0, 68, 0
2, 204120, Note_on_c, 0, 72, 119
2, 204120, Note_on_c, 0, 75, 117
2, 204120, Note_on_c, 0, 79, 119
2, 204120, Note_on_c, 0, 82, 117
2, 204120, Note_on_c, 0, 60, 114
2, 204120, Note_on_c, 0, 63, 118
2, 204120, Note_on_c, 0, 67, 117
2, 204120, Note_on_c, 0, 70, 115
2, 204335, Note_on_c, 0, 70, 0
2, 204335, Note_on_c, 0, 72, 0
2, 204335, Note_on_c, 0, 60, 0
2, 204335, Note_on_c, 0, 75, 0
2, 204335, Note_on_c, 0, 79, 0
2, 204335, Note_on_c, 0, 82, 0
2, 204335, Note_on_c, 0, 63, 0
2, 204335, Note_on_c, 0, 67, 0
2, 204359, Note_on_c, 0, 60, 73
2, 204359, Note_on_c, 0, 63, 75
2, 204359, Note_on_c, 0, 67, 76
2, 204359, Note_on_c, 0, 70, 73
2, 204359, Note_on_c, 0, 48, 73
2, 204359, Note_on_c, 0, 55, 75
2, 204469, Note_on_c, 0, 55, 0
2, 204469, Note_on_c, 0, 63, 0
2, 204469, Note_on_c, 0, 67, 0
2, 204469, Note_on_c, 0, 60, 0
2, 204469, Note_on_c, 0, 48, 0
2, 204469, Note_on_c, 0, 70, 0
2, 204480, Note_on_c, 0, 60, 110
2, 204480, Note_on_c, 0, 65, 111
2, 204480, Note_on_c, 0, 68, 110
2, 204480, Note_on_c, 0, 72, 111
2, 204480, Note_on_c, 0, 39, 122
2, 204480, Note_on_c, 0, 48, 122
2, 204480, Note_on_c, 0, 56, 122
2, 204719, Note_on_c, 0, 77, 93
2, 204719, Note_on_c, 0, 80, 92
2, 204719, Note_on_c, 0, 84, 93
2, 204719, Note_on_c, 0, 65, 92
2, 204719, Note_on_c, 0, 68, 94
2, 204719, Note_on_c, 0, 72, 94
2, 204829, Note_on_c, 0, 84, 0
2, 204829, Note_on_c, 0, 80, 0
2, 204829, Note_on_c, 0, 72, 0
2, 204829, Note_on_c, 0, 68, 0
2, 204829, Note_on_c, 0, 77, 0
2, 204829, Note_on_c, 0, 65, 0
2, 204840, Note_on_c, 0, 77, 122
2, 204840, Note_on_c, 0, 80, 122
2, 204840, Note_on_c, 0, 84, 122
2, 204840, Note_on_c, 0, 89, 122
2, 204840, Note_on_c, 0, 60, 122
2, 204840, Note_on_c, 0, 65, 122
2, 204840, Note_on_c, 0, 68, 121
2, 204840, Note_on_c, 0, 72, 122
2, 205130, Note_on_c, 0, 60, 0
2, 205130, Note_on_c, 0, 39, 0
2, 205130, Note_on_c, 0, 48, 0
2, 205130, Note_on_c, 0, 65, 0
2, 205130, Note_on_c, 0, 68, 0
2, 205130, Note_on_c, 0, 72, 0
2, 205130, Note_on_c, 0, 56, 0
2, 205415, Note_on_c, 0, 80, 0
2, 205415, Note_on_c, 0, 77, 0
2, 205415, Note_on_c, 0, 89, 0
2, 205415, Note_on_c, 0, 60, 0
2, 205415, Note_on_c, 0, 68, 0
2, 205415, Note_on_c, 0, 72, 0
2, 205415, Note_on_c, 0, 84, 0
2, 205415, Note_on_c, 0, 65, 0
2, 205439, Note_on_c, 0, 72, 80
2, 205439, Note_on_c, 0, 77, 79
2, 205439, Note_on_c, 0, 80, 80
2, 205439, Note_on_c, 0, 56, 93
2, 205439, Note_on_c, 0, 60, 94
2, 205439, Note_on_c, 0, 65, 92
2, 205439, Note_on_c, 0, 68, 94
2, 205549, Note_on_c, 0, 68, 0
2, 205549, Note_on_c, 0, 60, 0
2, 205549, Note_on_c, 0, 77, 0
2, 205549, Note_on_c, 0, 80, 0
2, 205549, Note_on_c, 0, 72, 0
2, 205549, Note_on_c, 0, 65, 0
2, 205549, Note_on_c, 0, 56, 0
2, 205560, Note_on_c, 0, 72, 112
2, 205560, Note_on_c, 0, 75, 111
2, 205560, Note_on_c, 0, 79, 112
2, 205560, Note_on_c, 0, 56, 116
2, 205560, Note_on_c, 0, 60, 115
2, 205560, Note_on_c, 0, 63, 115
2, 205560, Note_on_c, 0, 67, 117
2, 205775, Note_on_c, 0, 67, 0
2, 205775, Note_on_c, 0, 60, 0
2, 205775, Note_on_c, 0, 75, 0
2, 205775, Note_on_c, 0, 79, 0
2, 205775, Note_on_c, 0, 72, 0
2, 205775, Note_on_c, 0, 63, 0
2, 205775, Note_on_c, 0, 56, 0
2, 205799, Note_on_c, 0, 60, 74
2, 205799, Note_on_c, 0, 63, 75
2, 205799, Note_on_c, 0, 67, 74
2, 205799, Note_on_c, 0, 48, 75
2, 205799, Note_on_c, 0, 55, 74
2, 205909, Note_on_c, 0, 55, 0
2, 205909, Note_on_c, 0, 67, 0
2, 205909, Note_on_c, 0, 60, 0
2, 205909, Note_on_c, 0, 63, 0
2, 205909, Note_on_c, 0, 48, 0
2, 205920, Note_on_c, 0, 60, 111
2, 205920, Note_on_c, 0, 65, 110
2, 205920, Note_on_c, 0, 68, 110
2, 205920, Note_on_c, 0, 39, 110
2, 205920, Note_on_c, 0, 48, 109
2, 205920, Note_on_c, 0, 53, 112
2, 206159, Note_on_c, 0, 72, 93
2, 206159, Note_on_c, 0, 77, 95
2, 206159, Note_on_c, 0, 80, 95
2, 206159, Note_on_c, 0, 60, 93
2, 206159, Note_on_c, 0, 65, 94
2, 206159, Note_on_c, 0, 68, 92
2, 206269, Note_on_c, 0, 80, 0
2, 206269, Note_on_c, 0, 77, 0
2, 206269, Note_on_c, 0, 72, 0
2, 206269, Note_on_c, 0, 60, 0
2, 206269, Note_on_c, 0, 68, 0
2, 206269, Note_on_c, 0, 65, 0
2, 206280, Note_on_c, 0, 72, 122
2, 206280, Note_on_c, 0, 77, 122
2, 206280, Note_on_c, 0, 80, 122
2, 206280, Note_on_c, 0, 84, 122
2, 206280, Note_on_c, 0, 56, 121
2, 206280, Note_on_c, 0, 60, 122
2, 206280, Note_on_c, 0, 65, 121
2, 206280, Note_on_c, 0, 68, 120
2, 206570, Note_on_c, 0, 53, 0
2, 206570, Note_on_c, 0, 48, 0
2, 206570, Note_on_c, 0, 60, 0
2, 206570, Note_on_c, 0, 65, 0
2, 206570, Note_on_c, 0, 39, 0
2, 206570, Note_on_c, 0, 68, 0
2, 206855, Note_on_c, 0, 80, 0
2, 206855, Note_on_c, 0, 77, 0
2, 206855, Note_on_c, 0, 68, 0
2, 206855, Note_on_c, 0, 56, 0
2, 206855, Note_on_c, 0, 65, 0
2, 206855, Note_on_c, 0, 72, 0
2, 206855, Note_on_c, 0, 84, 0
2, 206855, Note_on_c, 0, 60, 0
2, 206879, Note_on_c, 0, 68, 85
2, 206879, Note_on_c, 0, 72, 88
2, 206879, Note_on_c, 0, 77, 85
2, 206879, Note_on_c, 0, 56, 94
2, 206879, Note_on_c, 0, 60, 94
2, 206879, Note_on_c, 0, 65, 97
2, 206989, Note_on_c, 0, 65, 0
2, 206989, Note_on_c, 0, 72, 0
2, 206989, Note_on_c, 0, 77, 0
2, 206989, Note_on_c, 0, 68, 0
2, 206989, Note_on_c, 0, 60, 0
2, 206989, Note_on_c, 0, 56, 0
2, 207000, Note_on_c, 0, 68, 110
2, 207000, Note_on_c, 0, 72, 112
2, 207000, Note_on_c, 0, 75, 113
2, 207000, Note_on_c, 0, 55, 116
2, 207000, Note_on_c, 0, 60, 113
2, 207000, Note_on_c, 0, 63, 116
2, 207215, Note_on_c, 0, 63, 0
2, 207215, Note_on_c, 0, 72, 0
2, 207215, Note_on_c, 0, 75, 0
2, 207215, Note_on_c, 0, 68, 0
2, 207215, Note_on_c, 0, 60, 0
2, 207215, Note_on_c, 0, 55, 0
2, 207239, Note_on_c, 0, 56, 74
2, 207239, Note_on_c, 0, 60, 71
2, 207239, Note_on_c, 0, 63, 73
2, 207239, Note_on_c, 0, 48, 75
2, 207239, Note_on_c, 0, 51, 72
2, 207349, Note_on_c, 0, 51, 0
2, 207349, Note_on_c, 0, 63, 0
2, 207349, Note_on_c, 0, 56, 0
2, 207349, Note_on_c, 0, 60, 0
2, 207349, Note_on_c, 0, 48, 0
2, 207360, Note_on_c, 0, 53, 122
2, 207360, Note_on_c, 0, 56, 122
2, 207360, Note_on_c, 0, 60, 122
2, 207360, Note_on_c, 0, 65, 122
2, 207360, Note_on_c, 0, 39, 107
2, 207360, Note_on_c, 0, 44, 108
2, 207360, Note_on_c, 0, 48, 106
2, 207575, Note_on_c, 0, 48, 0
2, 207575, Note_on_c, 0, 39, 0
2, 207575, Note_on_c, 0, 56, 0
2, 207575, Note_on_c, 0, 60, 0
2, 207575, Note_on_c, 0, 53, 0
2, 207575, Note_on_c, 0, 44, 0
2, 207575, Note_on_c, 0, 65, 0
2, 207599, Note_on_c, 0, 68, 121
2, 207599, Note_on_c, 0, 72, 122
2, 207599, Note_on_c, 0, 77, 122
2, 207599, Note_on_c, 0, 56, 122
2, 207599, Note_on_c, 0, 60, 121
2, 207599, Note_on_c, 0, 65, 121
2, 207709, Note_on_c, 0, 65, 0
2, 207709, Note_on_c, 0, 72, 0
2, 207709, Note_on_c, 0, 77, 0
2, 207709, Note_on_c, 0, 68, 0
2, 207709, Note_on_c, 0, 60, 0
2, 207709, Note_on_c, 0, 56, 0
2, 207720, Note_on_c, 0, 68, 119
2, 207720, Note_on_c, 0, 72, 122
2, 207720, Note_on_c, 0, 75, 118
2, 207720, Note_on_c, 0, 80, 119
2, 207720, Note_on_c, 0, 51, 105
2, 207720, Note_on_c, 0, 56, 106
2, 207720, Note_on_c, 0, 60, 102
2, 207720, Note_on_c, 0, 63, 104
2, 207897, Note_on_c, 0, 63, 0
2, 207897, Note_on_c, 0, 68, 0
2, 207897, Note_on_c, 0, 51, 0
2, 207897, Note_on_c, 0, 72, 0
2, 207897, Note_on_c, 0, 75, 0
2, 207897, Note_on_c, 0, 80, 0
2, 207897, Note_on_c, 0, 56, 0
2, 207897, Note_on_c, 0, 60, 0
2, 208080, Note_on_c, 0, 68, 109
2, 208080, Note_on_c, 0, 70, 109
2, 208080, Note_on_c, 0, 77, 107
2, 208080, Note_on_c, 0, 80, 109
2, 208080, Note_on_c, 0, 49, 101
2, 208080, Note_on_c, 0, 53, 101
2, 208080, Note_on_c, 0, 58, 99
2, 208080, Note_on_c, 0, 61, 97
2, 208257, Note_on_c, 0, 61, 0
2, 208257, Note_on_c, 0, 68, 0
2, 208257, Note_on_c, 0, 49, 0
2, 208257, Note_on_c, 0, 70, 0
2, 208257, Note_on_c, 0, 77, 0
2, 208257, Note_on_c, 0, 80, 0
2, 208257, Note_on_c, 0, 53, 0
2, 208257, Note_on_c, 0, 58, 0
2, 208440, Note_on_c, 0, 68, 105
2, 208440, Note_on_c, 0, 75, 107
2, 208440, Note_on_c, 0, 80, 104
2, 208440, Note_on_c, 0, 48, 97
2, 208440, Note_on_c, 0, 51, 100
2, 208440, Note_on_c, 0, 56, 101
2, 208440, Note_on_c, 0, 60, 99
2, 208617, Note_on_c, 0, 60, 0
2, 208617, Note_on_c, 0, 51, 0
2, 208617, Note_on_c, 0, 75, 0
2, 208617, Note_on_c, 0, 80, 0
2, 208617, Note_on_c, 0, 68, 0
2, 208617, Note_on_c, 0, 56, 0
2, 208617, Note_on_c, 0, 48, 0
2, 208800, Note_on_c, 0, 53, 77
2, 208800, Note_on_c, 0, 56, 80
2, 208800, Note_on_c, 0, 62, 78
2, 208800, Note_on_c, 0, 34, 78
2, 208800, Note_on_c, 0, 46, 75
2, 208977, Note_on_c, 0, 46, 0
2, 208977, Note_on_c, 0, 62, 0
2, 208977, Note_on_c, 0, 53, 0
2, 208977, Note_on_c, 0, 56, 0
2, 208977, Note_on_c, 0, 34, 0
2, 209160, Note_on_c, 0, 80, 102
2, 209160, Control_c, 0, 64, 127
2, 209280, Note_on_c, 0, 58, 39
2, 209280, Note_on_c, 0, 58, 39
2, 209388, Note_on_c, 0, 58, 0
2, 209399, Note_on_c, 0, 62, 45
2, 209509, Note_on_c, 0, 62, 0
2, 209520, Note_on_c, 0, 68, 51
2, 209628, Note_on_c, 0, 68, 0
2, 209640, Note_on_c, 0, 62, 35
2, 209683, Note_on_c, 0, 80, 0
2, 209700, Note_on_c, 0, 79, 72
2, 209735, Note_on_c, 0, 58, 0
2, 209748, Note_on_c, 0, 62, 0
2, 209759, Note_on_c, 0, 53, 31
2, 209863, Note_on_c, 0, 79, 0
2, 209869, Note_on_c, 0, 53, 0
2, 209880, Note_on_c, 0, 77, 74
2, 209880, Control_c, 0, 64, 127
2, 210000, Control_c, 0, 64, 0
2, 210000, Note_on_c, 0, 60, 38
2, 210000, Note_on_c, 0, 60, 46
2, 210108, Note_on_c, 0, 60, 0
2, 210119, Note_on_c, 0, 63, 46
2, 210229, Note_on_c, 0, 63, 0
2, 210240, Note_on_c, 0, 68, 51
2, 210348, Note_on_c, 0, 68, 0
2, 210360, Note_on_c, 0, 63, 38
2, 210403, Note_on_c, 0, 77, 0
2, 210420, Note_on_c, 0, 75, 69
2, 210468, Note_on_c, 0, 63, 0
2, 210479, Note_on_c, 0, 53, 30
2, 210565, Note_on_c, 0, 60, 0
2, 210583, Note_on_c, 0, 75, 0
2, 210589, Note_on_c, 0, 53, 0
2, 210600, Note_on_c, 0, 74, 76
2, 210720, Control_c, 0, 64, 127
2, 210720, Control_c, 0, 64, 0
2, 210720, Note_on_c, 0, 62, 37
2, 210720, Note_on_c, 0, 62, 45
2, 210828, Note_on_c, 0, 62, 0
2, 210839, Note_on_c, 0, 65, 47
2, 210949, Note_on_c, 0, 65, 0
2, 210960, Note_on_c, 0, 68, 49
2, 211068, Note_on_c, 0, 68, 0
2, 211080, Note_on_c, 0, 65, 40
2, 211175, Note_on_c, 0, 62, 0
2, 211188, Note_on_c, 0, 65, 0
2, 211199, Note_on_c, 0, 58, 34
2, 211309, Note_on_c, 0, 58, 0
2, 211320, Note_on_c, 0, 74, 0
2, 211320, Note_on_c, 0, 72, 74
2, 211320, Control_c, 0, 64, 0
2, 211320, Note_on_c, 0, 67, 54
2, 211320, Note_on_c, 0, 67, 51
2, 211428, Note_on_c, 0, 67, 0
2, 211440, Note_on_c, 0, 68, 44
2, 211483, Note_on_c, 0, 72, 0
2, 211500, Note_on_c, 0, 75, 79
2, 211535, Note_on_c, 0, 67, 0
2, 211548, Note_on_c, 0, 68, 0
2, 211559, Note_on_c, 0, 63, 37
2, 211663, Note_on_c, 0, 75, 0
2, 211669, Note_on_c, 0, 63, 0
2, 211680, Note_on_c, 0, 74, 75
2, 211680, Note_on_c, 0, 65, 45
2, 211680, Note_on_c, 0, 65, 44
2, 211788, Note_on_c, 0, 65, 0
2, 211800, Note_on_c, 0, 68, 45
2, 211843, Note_on_c, 0, 74, 0
2, 211860, Note_on_c, 0, 72, 71
2, 211908, Note_on_c, 0, 68, 0
2, 211919, Note_on_c, 0, 63, 37
2, 212005, Note_on_c, 0, 65, 0
2, 212023, Note_on_c, 0, 72, 0
2, 212029, Note_on_c, 0, 63, 0
2, 212040, Note_on_c, 0, 74, 86
2, 212040, Note_on_c, 0, 65, 64
2, 212040, Note_on_c, 0, 68, 68
2, 212040, Note_on_c, 0, 62, 41
2, 212040, Note_on_c, 0, 62, 37
2, 212148, Note_on_c, 0, 62, 0
2, 212160, Note_on_c, 0, 56, 34
2, 212268, Note_on_c, 0, 56, 0
2, 212279, Note_on_c, 0, 55, 37
2, 212389, Note_on_c, 0, 55, 0
2, 212400, Note_on_c, 0, 56, 43
2, 212472, Note_on_c, 0, 62, 0
2, 212508, Note_on_c, 0, 56, 0
2, 212520, Note_on_c, 0, 53, 39
2, 212628, Note_on_c, 0, 53, 0
2, 212639, Note_on_c, 0, 46, 32
2, 212690, Note_on_c, 0, 68, 0
2, 212690, Note_on_c, 0, 65, 0
2, 212749, Note_on_c, 0, 46, 0
2, 212760, Note_on_c, 0, 74, 0
2, 212760, Note_on_c, 0, 72, 42
2, 212760, Note_on_c, 0, 63, 43
2, 212760, Note_on_c, 0, 68, 44
2, 212760, Note_on_c, 0, 60, 57
2, 212760, Note_on_c, 0, 60, 41
2, 212868, Note_on_c, 0, 60, 0
2, 212880, Note_on_c, 0, 55, 36
2, 212923, Note_on_c, 0, 72, 0
2, 212940, Note_on_c, 0, 74, 45
2, 212975, Note_on_c, 0, 60, 0
2, 212988, Note_on_c, 0, 55, 0
2, 212999, Note_on_c, 0, 53, 39
2, 213085, Note_on_c, 0, 63, 0
2, 213103, Note_on_c, 0, 74, 0
2, 213109, Note_on_c, 0, 53, 0
2, 213120, Note_on_c, 0, 70, 40
2, 213120, Note_on_c, 0, 62, 46
2, 213120, Note_on_c, 0, 56, 50
2, 213228, Note_on_c, 0, 56, 0
2, 213240, Note_on_c, 0, 53, 40
2, 213348, Note_on_c, 0, 53, 0
2, 213359, Note_on_c, 0, 46, 34
2, 213445, Note_on_c, 0, 62, 0
2, 213445, Note_on_c, 0, 68, 0
2, 213445, Note_on_c, 0, 70, 0
2, 213469, Note_on_c, 0, 46, 0
2, 213480, Note_on_c, 0, 80, 59
2, 213480, Control_c, 0, 64, 127
2, 213600, Note_on_c, 0, 58, 39
2, 213600, Note_on_c, 0, 58, 38
2, 213708, Note_on_c, 0, 58, 0
2, 213719, Note_on_c, 0, 62, 47
2, 213829, Note_on_c, 0, 62, 0
2, 213840, Note_on_c, 0, 68, 52
2, 213948, Note_on_c, 0, 68, 0
2, 213960, Note_on_c, 0, 62, 38
2, 214003, Note_on_c, 0, 80, 0
2, 214020, Note_on_c, 0, 79, 39
2, 214055, Note_on_c, 0, 58, 0
2, 214068, Note_on_c, 0, 62, 0
2, 214079, Note_on_c, 0, 53, 33
2, 214183, Note_on_c, 0, 79, 0
2, 214189, Note_on_c, 0, 53, 0
2, 214200, Note_on_c, 0, 77, 44
2, 214200, Control_c, 0, 64, 0
2, 214320, Control_c, 0, 64, 127
2, 214320, Note_on_c, 0, 60, 39
2, 214320, Note_on_c, 0, 60, 47
2, 214428, Note_on_c, 0, 60, 0
2, 214439, Note_on_c, 0, 63, 47
2, 214549, Note_on_c, 0, 63, 0
2, 214560, Note_on_c, 0, 68, 51
2, 214668, Note_on_c, 0, 68, 0
2, 214680, Note_on_c, 0, 63, 36
2, 214723, Note_on_c, 0, 77, 0
2, 214740, Note_on_c, 0, 75, 42
2, 214788, Note_on_c, 0, 63, 0
2, 214799, Note_on_c, 0, 53, 32
2, 214885, Note_on_c, 0, 60, 0
2, 214903, Note_on_c, 0, 75, 0
2, 214909, Note_on_c, 0, 53, 0
2, 214920, Note_on_c, 0, 74, 45
2, 215040, Control_c, 0, 64, 127
2, 215040, Control_c, 0, 64, 0
2, 215040, Note_on_c, 0, 62, 39
2, 215040, Note_on_c, 0, 62, 48
2, 215148, Note_on_c, 0, 62, 0
2, 215159, Note_on_c, 0, 65, 47
2, 215269, Note_on_c, 0, 65, 0
2, 215280, Note_on_c, 0, 68, 48
2, 215388, Note_on_c, 0, 68, 0
2, 215400, Note_on_c, 0, 65, 41
2, 215443, Note_on_c, 0, 74, 0
2, 215460, Note_on_c, 0, 77, 49
2, 215495, Note_on_c, 0, 62, 0
2, 215508, Note_on_c, 0, 65, 0
2, 215519, Note_on_c, 0, 58, 34
2, 215623, Note_on_c, 0, 77, 0
2, 215629, Note_on_c, 0, 58, 0
2, 215640, Note_on_c, 0, 72, 40
2, 215640, Control_c, 0, 64, 0
2, 215640, Note_on_c, 0, 67, 54
2, 215640, Note_on_c, 0, 67, 49
2, 215748, Note_on_c, 0, 67, 0
2, 215760, Note_on_c, 0, 68, 48
2, 215803, Note_on_c, 0, 72, 0
2, 215820, Note_on_c, 0, 75, 46
2, 215855, Note_on_c, 0, 67, 0
2, 215868, Note_on_c, 0, 68, 0
2, 215879, Note_on_c, 0, 63, 37
2, 215983, Note_on_c, 0, 75, 0
2, 215989, Note_on_c, 0, 63, 0
2, 216000, Note_on_c, 0, 74, 45
2, 216000, Note_on_c, 0, 65, 46
2, 216000, Note_on_c, 0, 65, 44
2, 216108, Note_on_c, 0, 65, 0
2, 216120, Note_on_c, 0, 68, 46
2, 216163, Note_on_c, 0, 74, 0
2, 216180, Note_on_c, 0, 72, 40
2, 216228, Note_on_c, 0, 68, 0
2, 216239, Note_on_c, 0, 63, 39
2, 216325, Note_on_c, 0, 65, 0
2, 216343, Note_on_c, 0, 72, 0
2, 216349, Note_on_c, 0, 63, 0
2, 216360, Note_on_c, 0, 74, 49
2, 216360, Note_on_c, 0, 65, 37
2, 216360, Note_on_c, 0, 68, 39
2, 216360, Note_on_c, 0, 62, 42
2, 216360, Note_on_c, 0, 62, 39
2, 216468, Note_on_c, 0, 62, 0
2, 216480, Note_on_c, 0, 56, 33
2, 216588, Note_on_c, 0, 56, 0
2, 216599, Note_on_c, 0, 55, 38
2, 216709, Note_on_c, 0, 55, 0
2, 216720, Note_on_c, 0, 56, 43
2, 216792, Note_on_c, 0, 62, 0
2, 216828, Note_on_c, 0, 56, 0
2, 216840, Note_on_c, 0, 53, 38
2, 216948, Note_on_c, 0, 53, 0
2, 216959, Note_on_c, 0, 46, 34
2, 217010, Note_on_c, 0, 68, 0
2, 217010, Note_on_c, 0, 65, 0
2, 217069, Note_on_c, 0, 46, 0
2, 217080, Note_on_c, 0, 74, 0
2, 217080, Note_on_c, 0, 72, 42
2, 217080, Note_on_c, 0, 68, 42
2, 217080, Note_on_c, 0, 63, 57
2, 217080, Note_on_c, 0, 63, 43
2, 217188, Note_on_c, 0, 63, 0
2, 217200, Note_on_c, 0, 56, 36
2, 217243, Note_on_c, 0, 72, 0
2, 217260, Note_on_c, 0, 74, 44
2, 217295, Note_on_c, 0, 63, 0
2, 217308, Note_on_c, 0, 56, 0
2, 217319, Note_on_c, 0, 53, 35
2, 217405, Note_on_c, 0, 68, 0
2, 217423, Note_on_c, 0, 74, 0
2, 217429, Note_on_c, 0, 53, 0
2, 217440, Note_on_c, 0, 70, 41
2, 217440, Note_on_c, 0, 68, 48
2, 217440, Note_on_c, 0, 62, 55
2, 217440, Note_on_c, 0, 62, 45
2, 217548, Note_on_c, 0, 62, 0
2, 217560, Note_on_c, 0, 53, 34
2, 217603, Note_on_c, 0, 70, 0
2, 217620, Note_on_c, 0, 72, 44
2, 217655, Note_on_c, 0, 62, 0
2, 217668, Note_on_c, 0, 53, 0
2, 217679, Note_on_c, 0, 46, 33
2, 217783, Note_on_c, 0, 72, 0
2, 217789, Note_on_c, 0, 46, 0
2, 217800, Note_on_c, 0, 74, 54
2, 217920, Note_on_c, 0, 56, 39
2, 218028, Note_on_c, 0, 56, 0
2, 218039, Note_on_c, 0, 62, 50
2, 218090, Note_on_c, 0, 68, 0
2, 218149, Note_on_c, 0, 62, 0
2, 218160, Note_on_c, 0, 68, 47
2, 218160, Note_on_c, 0, 70, 48
2, 218160, Note_on_c, 0, 65, 51
2, 218268, Note_on_c, 0, 65, 0
2, 218280, Note_on_c, 0, 56, 32
2, 218323, Note_on_c, 0, 74, 0
2, 218340, Note_on_c, 0, 75, 68
2, 218388, Note_on_c, 0, 56, 0
2, 218399, Note_on_c, 0, 58, 42
2, 218503, Note_on_c, 0, 75, 0
2, 218509, Note_on_c, 0, 58, 0
2, 218520, Note_on_c, 0, 77, 78
2, 218520, Note_on_c, 0, 62, 47
2, 218628, Note_on_c, 0, 62, 0
2, 218640, Note_on_c, 0, 65, 45
2, 218748, Note_on_c, 0, 65, 0
2, 218759, Note_on_c, 0, 67, 45
2, 218810, Note_on_c, 0, 70, 0
2, 218810, Note_on_c, 0, 68, 0
2, 218869, Note_on_c, 0, 67, 0
2, 218880, Note_on_c, 0, 70, 77
2, 218880, Note_on_c, 0, 73, 78
2, 218880, Note_on_c, 0, 68, 49
2, 219043, Note_on_c, 0, 77, 0
2, 219060, Note_on_c, 0, 79, 95
2, 219095, Note_on_c, 0, 68, 0
2, 219119, Note_on_c, 0, 51, 33
2, 219119, Note_on_c, 0, 58, 32
2, 219223, Note_on_c, 0, 79, 0
2, 219229, Note_on_c, 0, 51, 0
2, 219229, Note_on_c, 0, 58, 0
2, 219240, Note_on_c, 0, 80, 107
2, 219240, Note_on_c, 0, 61, 46
2, 219348, Note_on_c, 0, 61, 0
2, 219360, Note_on_c, 0, 65, 47
2, 219468, Note_on_c, 0, 65, 0
2, 219479, Note_on_c, 0, 68, 47
2, 219530, Note_on_c, 0, 73, 0
2, 219530, Note_on_c, 0, 70, 0
2, 219589, Note_on_c, 0, 68, 0
2, 219600, Note_on_c, 0, 73, 102
2, 219600, Note_on_c, 0, 77, 104
2, 219600, Note_on_c, 0, 72, 54
2, 219708, Note_on_c, 0, 72, 0
2, 219720, Note_on_c, 0, 68, 39
2, 219763, Note_on_c, 0, 80, 0
2, 219780, Note_on_c, 0, 84, 102
2, 219828, Note_on_c, 0, 68, 0
2, 219839, Note_on_c, 0, 70, 47
2, 219925, Note_on_c, 0, 73, 0
2, 219925, Note_on_c, 0, 77, 0
2, 219943, Note_on_c, 0, 84, 0
2, 219949, Note_on_c, 0, 70, 0
2, 219960, Note_on_c, 0, 79, 80
2, 219960, Note_on_c, 0, 73, 86
2, 219960, Note_on_c, 0, 75, 86
2, 219960, Note_on_c, 0, 67, 37
2, 220068, Note_on_c, 0, 67, 0
2, 220080, Note_on_c, 0, 68, 42
2, 220123, Note_on_c, 0, 79, 0
2, 220140, Note_on_c, 0, 82, 97
2, 220188, Note_on_c, 0, 68, 0
2, 220199, Note_on_c, 0, 65, 36
2, 220285, Note_on_c, 0, 73, 0
2, 220285, Note_on_c, 0, 75, 0
2, 220303, Note_on_c, 0, 82, 0
2, 220309, Note_on_c, 0, 65, 0
2, 220320, Note_on_c, 0, 79, 87
2, 220320, Note_on_c, 0, 72, 96
2, 220320, Note_on_c, 0, 75, 96
2, 220320, Note_on_c, 0, 67, 46
2, 220428, Note_on_c, 0, 67, 0
2, 220440, Note_on_c, 0, 63, 39
2, 220483, Note_on_c, 0, 79, 0
2, 220500, Note_on_c, 0, 82, 97
2, 220548, Note_on_c, 0, 63, 0
2, 220559, Note_on_c, 0, 65, 45
2, 220645, Note_on_c, 0, 72, 0
2, 220645, Note_on_c, 0, 75, 0
2, 220663, Note_on_c, 0, 82, 0
2, 220669, Note_on_c, 0, 65, 0
2, 220680, Note_on_c, 0, 77, 83
2, 220680, Note_on_c, 0, 68, 83
2, 220680, Note_on_c, 0, 72, 84
2, 220680, Note_on_c, 0, 62, 43
2, 220788, Note_on_c, 0, 62, 0
2, 220800, Note_on_c, 0, 63, 43
2, 220908, Note_on_c, 0, 63, 0
2, 220919, Note_on_c, 0, 60, 37
2, 221029, Note_on_c, 0, 60, 0
2, 221040, Note_on_c, 0, 63, 48
2, 221148, Note_on_c, 0, 63, 0
2, 221160, Note_on_c, 0, 56, 34
2, 221203, Note_on_c, 0, 77, 0
2, 221220, Note_on_c, 0, 80, 89
2, 221268, Note_on_c, 0, 56, 0
2, 221279, Note_on_c, 0, 60, 44
2, 221330, Note_on_c, 0, 68, 0
2, 221330, Note_on_c, 0, 72, 0
2, 221383, Note_on_c, 0, 80, 0
2, 221389, Note_on_c, 0, 60, 0
2, 221400, Note_on_c, 0, 77, 70
2, 221400, Note_on_c, 0, 67, 85
2, 221400, Note_on_c, 0, 71, 85
2, 221400, Note_on_c, 0, 55, 36
2, 221508, Note_on_c, 0, 55, 0
2, 221520, Note_on_c, 0, 56, 45
2, 221563, Note_on_c, 0, 77, 0
2, 221580, Note_on_c, 0, 79, 71
2, 221628, Note_on_c, 0, 56, 0
2, 221639, Note_on_c, 0, 53, 37
2, 221743, Note_on_c, 0, 79, 0
2, 221749, Note_on_c, 0, 53, 0
2, 221760, Note_on_c, 0, 77, 58
2, 221760, Note_on_c, 0, 55, 46
2, 221760, Note_on_c, 0, 44, 42
2, 221868, Note_on_c, 0, 55, 0
2, 221880, Note_on_c, 0, 50, 39
2, 221923, Note_on_c, 0, 77, 0
2, 221940, Note_on_c, 0, 79, 55
2, 221988, Note_on_c, 0, 50, 0
2, 221999, Note_on_c, 0, 53, 44
2, 222085, Note_on_c, 0, 67, 0
2, 222085, Note_on_c, 0, 71, 0
2, 222103, Note_on_c, 0, 79, 0
2, 222109, Note_on_c, 0, 53, 0
2, 222120, Note_on_c, 0, 75, 36
2, 222120, Note_on_c, 0, 68, 60
2, 222120, Note_on_c, 0, 72, 62
2, 222120, Note_on_c, 0, 51, 43
2, 222228, Note_on_c, 0, 51, 0
2, 222240, Note_on_c, 0, 56, 50
2, 222348, Note_on_c, 0, 56, 0
2, 222359, Note_on_c, 0, 60, 49
2, 222410, Note_on_c, 0, 44, 0
2, 222469, Note_on_c, 0, 60, 0
2, 222480, Note_on_c, 0, 63, 50
2, 222643, Note_on_c, 0, 75, 0
2, 222660, Note_on_c, 0, 79, 48
2, 222695, Note_on_c, 0, 63, 0
2, 222719, Note_on_c, 0, 53, 30
2, 222770, Note_on_c, 0, 72, 0
2, 222770, Note_on_c, 0, 68, 0
2, 222823, Note_on_c, 0, 79, 0
2, 222829, Note_on_c, 0, 53, 0
2, 222840, Note_on_c, 0, 77, 45
2, 222840, Note_on_c, 0, 70, 39
2, 222840, Note_on_c, 0, 55, 46
2, 222840, Note_on_c, 0, 55, 39
2, 222948, Note_on_c, 0, 55, 0
2, 222960, Note_on_c, 0, 58, 45
2, 223003, Note_on_c, 0, 77, 0
2, 223020, Note_on_c, 0, 79, 43
2, 223055, Note_on_c, 0, 55, 0
2, 223068, Note_on_c, 0, 58, 0
2, 223079, Note_on_c, 0, 63, 49
2, 223165, Note_on_c, 0, 70, 0
2, 223183, Note_on_c, 0, 79, 0
2, 223189, Note_on_c, 0, 63, 0
2, 223200, Note_on_c, 0, 69, 42
2, 223200, Note_on_c, 0, 75, 39
2, 223200, Note_on_c, 0, 53, 44
2, 223200, Note_on_c, 0, 60, 44
2, 223415, Note_on_c, 0, 60, 0
2, 223415, Note_on_c, 0, 53, 0
2, 223439, Note_on_c, 0, 41, 29
2, 223439, Note_on_c, 0, 48, 30
2, 223525, Note_on_c, 0, 75, 0
2, 223525, Note_on_c, 0, 69, 0
2, 223549, Note_on_c, 0, 41, 0
2, 223549, Note_on_c, 0, 48, 0
2, 223560, Note_on_c, 0, 87, 120
2, 223560, Note_on_c, 0, 57, 51
2, 223668, Note_on_c, 0, 57, 0
2, 223680, Control_c, 0, 64, 127
2, 223680, Note_on_c, 0, 65, 55
2, 223680, Note_on_c, 0, 65, 38
2, 223788, Note_on_c, 0, 65, 0
2, 223799, Note_on_c, 0, 69, 50
2, 223909, Note_on_c, 0, 69, 0
2, 223920, Note_on_c, 0, 75, 52
2, 224028, Note_on_c, 0, 75, 0
2, 224040, Note_on_c, 0, 69, 39
2, 224083, Note_on_c, 0, 87, 0
2, 224100, Note_on_c, 0, 86, 88
2, 224135, Note_on_c, 0, 65, 0
2, 224148, Note_on_c, 0, 69, 0
2, 224159, Note_on_c, 0, 60, 31
2, 224263, Note_on_c, 0, 86, 0
2, 224269, Note_on_c, 0, 60, 0
2, 224280, Note_on_c, 0, 84, 88
2, 224280, Control_c, 0, 64, 0
2, 224400, Control_c, 0, 64, 127
2, 224400, Note_on_c, 0, 67, 39
2, 224400, Note_on_c, 0, 67, 47
2, 224508, Note_on_c, 0, 67, 0
2, 224519, Note_on_c, 0, 70, 47
2, 224629, Note_on_c, 0, 70, 0
2, 224640, Note_on_c, 0, 75, 53
2, 224748, Note_on_c, 0, 75, 0
2, 224760, Note_on_c, 0, 70, 36
2, 224803, Note_on_c, 0, 84, 0
2, 224820, Note_on_c, 0, 82, 83
2, 224868, Note_on_c, 0, 70, 0
2, 224879, Note_on_c, 0, 60, 30
2, 224965, Note_on_c, 0, 67, 0
2, 224983, Note_on_c, 0, 82, 0
2, 224989, Note_on_c, 0, 60, 0
2, 225000, Note_on_c, 0, 81, 93
2, 225000, Control_c, 0, 64, 0
2, 225120, Control_c, 0, 64, 127
2, 225120, Note_on_c, 0, 69, 38
2, 225120, Note_on_c, 0, 69, 46
2, 225228, Note_on_c, 0, 69, 0
2, 225239, Note_on_c, 0, 72, 46
2, 225349, Note_on_c, 0, 72, 0
2, 225360, Note_on_c, 0, 75, 46
2, 225468, Note_on_c, 0, 75, 0
2, 225480, Note_on_c, 0, 72, 38
2, 225575, Note_on_c, 0, 69, 0
2, 225588, Note_on_c, 0, 72, 0
2, 225599, Note_on_c, 0, 65, 33
2, 225709, Note_on_c, 0, 65, 0
2, 225720, Note_on_c, 0, 81, 0
2, 225720, Note_on_c, 0, 79, 86
2, 225720, Note_on_c, 0, 75, 83
2, 225720, Control_c, 0, 64, 0
2, 225720, Note_on_c, 0, 70, 49
2, 225720, Note_on_c, 0, 70, 47
2, 225828, Note_on_c, 0, 70, 0
2, 225840, Note_on_c, 0, 63, 35
2, 225883, Note_on_c, 0, 79, 0
2, 225900, Note_on_c, 0, 82, 97
2, 225935, Note_on_c, 0, 70, 0
2, 225948, Note_on_c, 0, 63, 0
2, 225959, Note_on_c, 0, 62, 40
2, 226063, Note_on_c, 0, 82, 0
2, 226069, Note_on_c, 0, 62, 0
2, 226080, Note_on_c, 0, 81, 89
2, 226080, Note_on_c, 0, 72, 55
2, 226080, Note_on_c, 0, 72, 48
2, 226188, Note_on_c, 0, 72, 0
2, 226200, Note_on_c, 0, 63, 33
2, 226243, Note_on_c, 0, 81, 0
2, 226260, Note_on_c, 0, 79, 83
2, 226308, Note_on_c, 0, 63, 0
2, 226319, Note_on_c, 0, 60, 38
2, 226405, Note_on_c, 0, 72, 0
2, 226405, Note_on_c, 0, 75, 0
2, 226423, Note_on_c, 0, 79, 0
2, 226440, Note_on_c, 0, 69, 104
2, 226440, Note_on_c, 0, 81, 100
2, 226440, Note_on_c, 0, 75, 90
2, 226548, Note_on_c, 0, 60, 0
2, 226560, Note_on_c, 0, 62, 44
2, 226668, Note_on_c, 0, 62, 0
2, 226679, Note_on_c, 0, 60, 41
2, 226789, Note_on_c, 0, 60, 0
2, 226800, Note_on_c, 0, 63, 46
2, 226908, Note_on_c, 0, 63, 0
2, 226920, Note_on_c, 0, 60, 37
2, 227028, Note_on_c, 0, 60, 0
2, 227039, Note_on_c, 0, 53, 35
2, 227090, Note_on_c, 0, 75, 0
2, 227149, Note_on_c, 0, 53, 0
2, 227160, Note_on_c, 0, 81, 0
2, 227160, Note_on_c, 0, 69, 0
2, 227160, Note_on_c, 0, 67, 61
2, 227160, Note_on_c, 0, 79, 59
2, 227160, Note_on_c, 0, 75, 60
2, 227160, Note_on_c, 0, 58, 51
2, 227160, Note_on_c, 0, 58, 32
2, 227268, Note_on_c, 0, 58, 0
2, 227280, Note_on_c, 0, 51, 33
2, 227323, Note_on_c, 0, 79, 0
2, 227323, Note_on_c, 0, 67, 0
2, 227340, Note_on_c, 0, 81, 60
2, 227375, Note_on_c, 0, 58, 0
2, 227388, Note_on_c, 0, 51, 0
2, 227399, Note_on_c, 0, 48, 38
2, 227485, Note_on_c, 0, 75, 0
2, 227503, Note_on_c, 0, 81, 0
2, 227509, Note_on_c, 0, 48, 0
2, 227520, Note_on_c, 0, 65, 44
2, 227520, Note_on_c, 0, 77, 45
2, 227520, Note_on_c, 0, 75, 50
2, 227520, Note_on_c, 0, 57, 55
2, 227520, Note_on_c, 0, 57, 42
2, 227628, Note_on_c, 0, 57, 0
2, 227640, Note_on_c, 0, 48, 34
2, 227748, Note_on_c, 0, 48, 0
2, 227759, Note_on_c, 0, 41, 32
2, 227845, Note_on_c, 0, 57, 0
2, 227845, Note_on_c, 0, 75, 0
2, 227845, Note_on_c, 0, 65, 0
2, 227845, Note_on_c, 0, 77, 0
2, 227869, Note_on_c, 0, 41, 0
2, 227880, Note_on_c, 0, 87, 119
2, 228000, Control_c, 0, 64, 127
2, 228000, Note_on_c, 0, 65, 39
2, 228000, Note_on_c, 0, 65, 52
2, 228108, Note_on_c, 0, 65, 0
2, 228119, Note_on_c, 0, 69, 49
2, 228229, Note_on_c, 0, 69, 0
2, 228240, Note_on_c, 0, 75, 49
2, 228348, Note_on_c, 0, 75, 0
2, 228360, Note_on_c, 0, 69, 35
2, 228403, Note_on_c, 0, 87, 0
2, 228420, Note_on_c, 0, 86, 85
2, 228455, Note_on_c, 0, 65, 0
2, 228468, Note_on_c, 0, 69, 0
2, 228479, Note_on_c, 0, 60, 30
2, 228583, Note_on_c, 0, 86, 0
2, 228589, Note_on_c, 0, 60, 0
2, 228600, Note_on_c, 0, 84, 88
2, 228600, Control_c, 0, 64, 0
2, 228720, Control_c, 0, 64, 127
2, 228720, Note_on_c, 0, 67, 37
2, 228720, Note_on_c, 0, 67, 39
2, 228828, Note_on_c, 0, 67, 0
2, 228839, Note_on_c, 0, 70, 46
2, 228949, Note_on_c, 0, 70, 0
2, 228960, Note_on_c, 0, 75, 52
2, 229068, Note_on_c, 0, 75, 0
2, 229080, Note_on_c, 0, 70, 37
2, 229123, Note_on_c, 0, 84, 0
2, 229140, Note_on_c, 0, 82, 83
2, 229188, Note_on_c, 0, 70, 0
2, 229199, Note_on_c, 0, 60, 32
2, 229285, Note_on_c, 0, 67, 0
2, 229303, Note_on_c, 0, 82, 0
2, 229309, Note_on_c, 0, 60, 0
2, 229320, Note_on_c, 0, 81, 93
2, 229320, Control_c, 0, 64, 0
2, 229440, Control_c, 0, 64, 127
2, 229440, Note_on_c, 0, 69, 38
2, 229440, Note_on_c, 0, 69, 44
2, 229548, Note_on_c, 0, 69, 0
2, 229559, Note_on_c, 0, 72, 46
2, 229669, Note_on_c, 0, 72, 0
2, 229680, Note_on_c, 0, 75, 49
2, 229788, Note_on_c, 0, 75, 0
2, 229800, Note_on_c, 0, 72, 37
2, 229843, Note_on_c, 0, 81, 0
2, 229860, Note_on_c, 0, 84, 100
2, 229895, Note_on_c, 0, 69, 0
2, 229908, Note_on_c, 0, 72, 0
2, 229919, Note_on_c, 0, 65, 33
2, 230023, Note_on_c, 0, 84, 0
2, 230029, Note_on_c, 0, 65, 0
2, 230040, Note_on_c, 0, 79, 82
2, 230040, Note_on_c, 0, 75, 81
2, 230040, Control_c, 0, 64, 0
2, 230040, Note_on_c, 0, 74, 56
2, 230040, Note_on_c, 0, 74, 48
2, 230148, Note_on_c, 0, 74, 0
2, 230160, Note_on_c, 0, 67, 35
2, 230203, Note_on_c, 0, 79, 0
2, 230220, Note_on_c, 0, 82, 97
2, 230255, Note_on_c, 0, 74, 0
2, 230268, Note_on_c, 0, 67, 0
2, 230279, Note_on_c, 0, 63, 35
2, 230383, Note_on_c, 0, 82, 0
2, 230389, Note_on_c, 0, 63, 0
2, 230400, Note_on_c, 0, 81, 92
2, 230400, Note_on_c, 0, 72, 54
2, 230400, Note_on_c, 0, 72, 43
2, 230508, Note_on_c, 0, 72, 0
2, 230520, Note_on_c, 0, 63, 36
2, 230563, Note_on_c, 0, 81, 0
2, 230580, Note_on_c, 0, 79, 84
2, 230628, Note_on_c, 0, 63, 0
2, 230639, Note_on_c, 0, 60, 38
2, 230725, Note_on_c, 0, 72, 0
2, 230725, Note_on_c, 0, 75, 0
2, 230743, Note_on_c, 0, 79, 0
2, 230760, Note_on_c, 0, 69, 104
2, 230760, Note_on_c, 0, 81, 101
2, 230760, Note_on_c, 0, 75, 91
2, 230868, Note_on_c, 0, 60, 0
2, 230880, Note_on_c, 0, 62, 46
2, 230988, Note_on_c, 0, 62, 0
2, 230999, Note_on_c, 0, 60, 41
2, 231109, Note_on_c, 0, 60, 0
2, 231120, Note_on_c, 0, 63, 45
2, 231228, Note_on_c, 0, 63, 0
2, 231240, Note_on_c, 0, 60, 40
2, 231348, Note_on_c, 0, 60, 0
2, 231359, Note_on_c, 0, 53, 35
2, 231410, Note_on_c, 0, 75, 0
2, 231469, Note_on_c, 0, 53, 0
2, 231480, Note_on_c, 0, 81, 0
2, 231480, Note_on_c, 0, 69, 0
2, 231480, Note_on_c, 0, 79, 41
2, 231480, Note_on_c, 0, 75, 43
2, 231480, Note_on_c, 0, 70, 57
2, 231480, Note_on_c, 0, 70, 38
2, 231588, Note_on_c, 0, 70, 0
2, 231600, Note_on_c, 0, 63, 35
2, 231643, Note_on_c, 0, 79, 0
2, 231660, Note_on_c, 0, 81, 45
2, 231695, Note_on_c, 0, 70, 0
2, 231708, Note_on_c, 0, 63, 0
2, 231719, Note_on_c, 0, 60, 38
2, 231823, Note_on_c, 0, 81, 0
2, 231829, Note_on_c, 0, 60, 0
2, 231840, Note_on_c, 0, 77, 41
2, 231840, Note_on_c, 0, 69, 53
2, 231840, Note_on_c, 0, 69, 44
2, 231948, Note_on_c, 0, 69, 0
2, 231960, Note_on_c, 0, 60, 33
2, 232003, Note_on_c, 0, 77, 0
2, 232020, Note_on_c, 0, 79, 43
2, 232068, Note_on_c, 0, 60, 0
2, 232079, Note_on_c, 0, 53, 33
2, 232165, Note_on_c, 0, 69, 0
2, 232165, Note_on_c, 0, 75, 0
2, 232183, Note_on_c, 0, 79, 0
2, 232189, Note_on_c, 0, 53, 0
2, 232200, Note_on_c, 0, 80, 50
2, 232200, Note_on_c, 0, 71, 44
2, 232200, Note_on_c, 0, 75, 44
2, 232200, Note_on_c, 0, 68, 58
2, 232200, Note_on_c, 0, 68, 42
2, 232308, Note_on_c, 0, 68, 0
2, 232320, Note_on_c, 0, 63, 38
2, 232428, Note_on_c, 0, 63, 0
2, 232439, Note_on_c, 0, 59, 38
2, 232525, Note_on_c, 0, 68, 0
2, 232549, Note_on_c, 0, 59, 0
2, 232560, Note_on_c, 0, 67, 54
2, 232560, Note_on_c, 0, 67, 41
2, 232668, Note_on_c, 0, 67, 0
2, 232680, Note_on_c, 0, 59, 36
2, 232723, Note_on_c, 0, 80, 0
2, 232740, Note_on_c, 0, 79, 77
2, 232788, Note_on_c, 0, 59, 0
2, 232799, Note_on_c, 0, 56, 36
2, 232850, Note_on_c, 0, 71, 0
2, 232850, Note_on_c, 0, 75, 0
2, 232885, Note_on_c, 0, 67, 0
2, 232903, Note_on_c, 0, 79, 0
2, 232909, Note_on_c, 0, 56, 0
2, 232920, Note_on_c, 0, 68, 98
2, 232920, Note_on_c, 0, 80, 97
2, 232920, Note_on_c, 0, 71, 79
2, 232920, Note_on_c, 0, 65, 54
2, 232920, Note_on_c, 0, 65, 40
2, 233028, Note_on_c, 0, 65, 0
2, 233040, Note_on_c, 0, 56, 35
2, 233148, Note_on_c, 0, 56, 0
2, 233159, Note_on_c, 0, 46, 29
2, 233245, Note_on_c, 0, 65, 0
2, 233245, Note_on_c, 0, 71, 0
2, 233269, Note_on_c, 0, 46, 0
2, 233280, Note_on_c, 0, 70, 72
2, 233280, Note_on_c, 0, 63, 57
2, 233280, Note_on_c, 0, 63, 41
2, 233388, Note_on_c, 0, 63, 0
2, 233400, Note_on_c, 0, 58, 39
2, 233443, Note_on_c, 0, 80, 0
2, 233443, Note_on_c, 0, 68, 0
2, 233460, Note_on_c, 0, 67, 73
2, 233460, Note_on_c, 0, 79, 71
2, 233508, Note_on_c, 0, 58, 0
2, 233519, Note_on_c, 0, 56, 40
2, 233605, Note_on_c, 0, 63, 0
2, 233605, Note_on_c, 0, 70, 0
2, 233623, Note_on_c, 0, 67, 0
2, 233623, Note_on_c, 0, 79, 0
2, 233629, Note_on_c, 0, 56, 0
2, 233640, Note_on_c, 0, 68, 88
2, 233640, Note_on_c, 0, 80, 87
2, 233640, Note_on_c, 0, 71, 77
2, 233640, Note_on_c, 0, 62, 54
2, 233640, Note_on_c, 0, 62, 39
2, 233748, Note_on_c, 0, 62, 0
2, 233760, Note_on_c, 0, 56, 38
2, 233868, Note_on_c, 0, 56, 0
2, 233879, Note_on_c, 0, 53, 37
2, 233965, Note_on_c, 0, 62, 0
2, 233965, Note_on_c, 0, 71, 0
2, 233989, Note_on_c, 0, 53, 0
2, 234000, Note_on_c, 0, 72, 79
2, 234000, Note_on_c, 0, 60, 53
2, 234000, Note_on_c, 0, 60, 37
2, 234108, Note_on_c, 0, 60, 0
2, 234120, Note_on_c, 0, 56, 40
2, 234163, Note_on_c, 0, 80, 0
2, 234163, Note_on_c, 0, 68, 0
2, 234180, Note_on_c, 0, 67, 61
2, 234180, Note_on_c, 0, 79, 62
2, 234228, Note_on_c, 0, 56, 0
2, 234239, Note_on_c, 0, 51, 34
2, 234325, Note_on_c, 0, 60, 0
2, 234325, Note_on_c, 0, 72, 0
2, 234343, Note_on_c, 0, 67, 0
2, 234343, Note_on_c, 0, 79, 0
2, 234349, Note_on_c, 0, 51, 0
2, 234360, Note_on_c, 0, 68, 60
2, 234360, Note_on_c, 0, 80, 61
2, 234360, Note_on_c, 0, 74, 58
2, 234360, Note_on_c, 0, 58, 54
2, 234360, Note_on_c, 0, 58, 38
2, 234468, Note_on_c, 0, 58, 0
2, 234480, Note_on_c, 0, 50, 32
2, 234523, Note_on_c, 0, 80, 0
2, 234523, Note_on_c, 0, 68, 0
2, 234540, Note_on_c, 0, 70, 51
2, 234540, Note_on_c, 0, 82, 50
2, 234588, Note_on_c, 0, 50, 0
2, 234599, Note_on_c, 0, 46, 35
2, 234685, Note_on_c, 0, 58, 0
2, 234685, Note_on_c, 0, 74, 0
2, 234703, Note_on_c, 0, 70, 0
2, 234703, Note_on_c, 0, 82, 0
2, 234709, Note_on_c, 0, 46, 0
2, 234720, Note_on_c, 0, 67, 43
2, 234720, Note_on_c, 0, 79, 41
2, 234720, Note_on_c, 0, 75, 50
2, 234720, Note_on_c, 0, 39, 37
2, 234828, Note_on_c, 0, 39, 0
2, 234840, Note_on_c, 0, 46, 51
2, 234883, Note_on_c, 0, 67, 0
2, 234883, Note_on_c, 0, 79, 0
2, 234900, Note_on_c, 0, 68, 45
2, 234900, Note_on_c, 0, 80, 45
2, 234948, Note_on_c, 0, 46, 0
2, 234959, Note_on_c, 0, 55, 55
2, 235045, Note_on_c, 0, 75, 0
2, 235063, Note_on_c, 0, 80, 0
2, 235063, Note_on_c, 0, 68, 0
2, 235069, Note_on_c, 0, 55, 0
2, 235080, Note_on_c, 0, 82, 52
2, 235080, Note_on_c, 0, 79, 51
2, 235080, Note_on_c, 0, 67, 56
2, 235080, Note_on_c, 0, 58, 49
2, 235080, Note_on_c, 0, 63, 49
2, 235188, Note_on_c, 0, 79, 0
2, 235200, Note_on_c, 0, 70, 33
2, 235308, Note_on_c, 0, 70, 0
2, 235319, Note_on_c, 0, 79, 51
2, 235405, Note_on_c, 0, 67, 0
2, 235429, Note_on_c, 0, 79, 0
2, 235440, Note_on_c, 0, 78, 45
2, 235440, Note_on_c, 0, 57, 45
2, 235440, Note_on_c, 0, 66, 44
2, 235548, Note_on_c, 0, 78, 0
2, 235560, Note_on_c, 0, 70, 32
2, 235655, Note_on_c, 0, 82, 0
2, 235668, Note_on_c, 0, 70, 0
2, 235679, Note_on_c, 0, 81, 41
2, 235679, Note_on_c, 0, 81, 53
2, 235730, Note_on_c, 0, 58, 0
2, 235730, Note_on_c, 0, 63, 0
2, 235765, Note_on_c, 0, 57, 0
2, 235765, Note_on_c, 0, 66, 0
2, 235789, Note_on_c, 0, 81, 0
2, 235789, Note_on_c, 0, 81, 0
2, 235800, Note_on_c, 0, 82, 50
2, 235800, Note_on_c, 0, 77, 44
2, 235800, Note_on_c, 0, 56, 42
2, 235800, Note_on_c, 0, 65, 42
2, 235800, Note_on_c, 0, 58, 37
2, 235908, Note_on_c, 0, 77, 0
2, 235920, Note_on_c, 0, 70, 34
2, 236028, Note_on_c, 0, 70, 0
2, 236039, Note_on_c, 0, 76, 48
2, 236125, Note_on_c, 0, 58, 0
2, 236125, Note_on_c, 0, 65, 0
2, 236125, Note_on_c, 0, 56, 0
2, 236149, Note_on_c, 0, 76, 0
2, 236160, Note_on_c, 0, 77, 50
2, 236160, Note_on_c, 0, 51, 31
2, 236268, Note_on_c, 0, 51, 0
2, 236268, Note_on_c, 0, 77, 0
2, 236280, Note_on_c, 0, 70, 34
2, 236280, Note_on_c, 0, 56, 49
2, 236375, Note_on_c, 0, 82, 0
2, 236388, Note_on_c, 0, 56, 0
2, 236388, Note_on_c, 0, 70, 0
2, 236399, Note_on_c, 0, 81, 41
2, 236399, Note_on_c, 0, 81, 54
2, 236399, Note_on_c, 0, 65, 53
2, 236509, Note_on_c, 0, 65, 0
2, 236509, Note_on_c, 0, 81, 0
2, 236509, Note_on_c, 0, 81, 0
2, 236520, Note_on_c, 0, 82, 52
2, 236520, Note_on_c, 0, 76, 40
2, 236520, Note_on_c, 0, 56, 41
2, 236520, Note_on_c, 0, 64, 42
2, 236520, Note_on_c, 0, 58, 42
2, 236628, Note_on_c, 0, 76, 0
2, 236640, Note_on_c, 0, 70, 34
2, 236748, Note_on_c, 0, 70, 0
2, 236759, Note_on_c, 0, 76, 49
2, 236845, Note_on_c, 0, 64, 0
2, 236845, Note_on_c, 0, 56, 0
2, 236869, Note_on_c, 0, 76, 0
2, 236880, Note_on_c, 0, 75, 44
2, 236880, Note_on_c, 0, 55, 38
2, 236880, Note_on_c, 0, 63, 39
2, 236988, Note_on_c, 0, 75, 0
2, 237000, Note_on_c, 0, 70, 36
2, 237095, Note_on_c, 0, 82, 0
2, 237119, Note_on_c, 0, 81, 41
2, 237119, Note_on_c, 0, 81, 54
2, 237170, Note_on_c, 0, 58, 0
2, 237205, Note_on_c, 0, 55, 0
2, 237205, Note_on_c, 0, 63, 0
2, 237229, Note_on_c, 0, 81, 0
2, 237229, Note_on_c, 0, 81, 0
2, 237240, Note_on_c, 0, 73, 47
2, 237240, Note_on_c, 0, 82, 46
2, 237240, Note_on_c, 0, 61, 39
2, 237240, Note_on_c, 0, 53, 39
2, 237348, Note_on_c, 0, 53, 0
2, 237360, Note_on_c, 0, 52, 38
2, 237403, Note_on_c, 0, 70, 0
2, 237403, Note_on_c, 0, 82, 0
2, 237403, Note_on_c, 0, 73, 0
2, 237420, Note_on_c, 0, 84, 47
2, 237420, Note_on_c, 0, 72, 43
2, 237468, Note_on_c, 0, 52, 0
2, 237479, Note_on_c, 0, 51, 40
2, 237565, Note_on_c, 0, 61, 0
2, 237583, Note_on_c, 0, 72, 0
2, 237583, Note_on_c, 0, 84, 0
2, 237589, Note_on_c, 0, 51, 0
2, 237600, Note_on_c, 0, 68, 40
2, 237600, Note_on_c, 0, 80, 40
2, 237600, Note_on_c, 0, 72, 45
2, 237600, Note_on_c, 0, 51, 42
2, 237600, Note_on_c, 0, 56, 42
2, 237600, Note_on_c, 0, 60, 44
2, 237763, Note_on_c, 0, 60, 0
2, 237763, Note_on_c, 0, 51, 0
2, 237763, Note_on_c, 0, 80, 0
2, 237763, Note_on_c, 0, 68, 0
2, 237763, Note_on_c, 0, 56, 0
2, 237780, Note_on_c, 0, 70, 44
2, 237780, Note_on_c, 0, 82, 44
2, 237780, Note_on_c, 0, 39, 29
2, 237925, Note_on_c, 0, 72, 0
2, 237943, Note_on_c, 0, 70, 0
2, 237943, Note_on_c, 0, 82, 0
2, 237943, Note_on_c, 0, 39, 0
2, 237960, Note_on_c, 0, 84, 54
2, 237960, Note_on_c, 0, 80, 56
2, 237960, Note_on_c, 0, 68, 52
2, 237960, Note_on_c, 0, 60, 55
2, 237960, Note_on_c, 0, 63, 54
2, 238068, Note_on_c, 0, 80, 0
2, 238080, Note_on_c, 0, 72, 35
2, 238188, Note_on_c, 0, 72, 0
2, 238199, Note_on_c, 0, 80, 51
2, 238285, Note_on_c, 0, 68, 0
2, 238309, Note_on_c, 0, 80, 0
2, 238320, Note_on_c, 0, 79, 43
2, 238320, Note_on_c, 0, 59, 43
2, 238320, Note_on_c, 0, 67, 42
2, 238428, Note_on_c, 0, 79, 0
2, 238440, Note_on_c, 0, 72, 35
2, 238535, Note_on_c, 0, 84, 0
2, 238548, Note_on_c, 0, 72, 0
2, 238559, Note_on_c, 0, 83, 42
2, 238559, Note_on_c, 0, 83, 55
2, 238610, Note_on_c, 0, 60, 0
2, 238610, Note_on_c, 0, 63, 0
2, 238645, Note_on_c, 0, 59, 0
2, 238645, Note_on_c, 0, 67, 0
2, 238669, Note_on_c, 0, 83, 0
2, 238669, Note_on_c, 0, 83, 0
2, 238680, Note_on_c, 0, 84, 49
2, 238680, Note_on_c, 0, 78, 41
2, 238680, Note_on_c, 0, 58, 40
2, 238680, Note_on_c, 0, 66, 42
2, 238680, Note_on_c, 0, 60, 43
2, 238680, Note_on_c, 0, 63, 46
2, 238788, Note_on_c, 0, 78, 0
2, 238800, Note_on_c, 0, 72, 35
2, 238908, Note_on_c, 0, 72, 0
2, 238919, Note_on_c, 0, 77, 46
2, 239005, Note_on_c, 0, 63, 0
2, 239005, Note_on_c, 0, 60, 0
2, 239005, Note_on_c, 0, 66, 0
2, 239005, Note_on_c, 0, 58, 0
2, 239029, Note_on_c, 0, 77, 0
2, 239040, Note_on_c, 0, 78, 49
2, 239040, Note_on_c, 0, 51, 31
2, 239148, Note_on_c, 0, 51, 0
2, 239148, Note_on_c, 0, 78, 0
2, 239160, Note_on_c, 0, 72, 36
2, 239160, Note_on_c, 0, 58, 49
2, 239255, Note_on_c, 0, 84, 0
2, 239268, Note_on_c, 0, 58, 0
2, 239268, Note_on_c, 0, 72, 0
2, 239279, Note_on_c, 0, 83, 41
2, 239279, Note_on_c, 0, 83, 52
2, 239279, Note_on_c, 0, 66, 55
2, 239389, Note_on_c, 0, 66, 0
2, 239389, Note_on_c, 0, 83, 0
2, 239389, Note_on_c, 0, 83, 0
2, 239400, Note_on_c, 0, 84, 50
2, 239400, Note_on_c, 0, 77, 41
2, 239400, Note_on_c, 0, 57, 41
2, 239400, Note_on_c, 0, 65, 44
2, 239400, Note_on_c, 0, 60, 37
2, 239508, Note_on_c, 0, 77, 0
2, 239520, Note_on_c, 0, 72, 36
2, 239628, Note_on_c, 0, 72, 0
2, 239639, Note_on_c, 0, 77, 48
2, 239725, Note_on_c, 0, 65, 0
2, 239725, Note_on_c, 0, 57, 0
2, 239749, Note_on_c, 0, 77, 0
2, 239760, Note_on_c, 0, 76, 44
2, 239760, Note_on_c, 0, 56, 44
2, 239760, Note_on_c, 0, 65, 42
2, 239868, Note_on_c, 0, 76, 0
2, 239880, Note_on_c, 0, 72, 37
2, 239937, Note_on_c, 0, 56, 0
2, 239937, Note_on_c, 0, 65, 0
2, 239975, Note_on_c, 0, 84, 0
2, 239999, Note_on_c, 0, 82, 40
2, 239999, Note_on_c, 0, 82, 53
2, 240050, Note_on_c, 0, 60, 0
2, 240109, Note_on_c, 0, 82, 0
2, 240109, Note_on_c, 0, 82, 0
2, 240120, Note_on_c, 0, 75, 48
2, 240120, Note_on_c, 0, 84, 47
2, 240120, Note_on_c, 0, 63, 41
2, 240120, Note_on_c, 0, 55, 37
2, 240228, Note_on_c, 0, 55, 0
2, 240240, Note_on_c, 0, 54, 40
2, 240283, Note_on_c, 0, 72, 0
2, 240283, Note_on_c, 0, 84, 0
2, 240283, Note_on_c, 0, 75, 0
2, 240300, Note_on_c, 0, 86, 48
2, 240300, Note_on_c, 0, 74, 46
2, 240348, Note_on_c, 0, 54, 0
2, 240359, Note_on_c, 0, 53, 41
2, 240445, Note_on_c, 0, 63, 0
2, 240463, Note_on_c, 0, 74, 0
2, 240463, Note_on_c, 0, 86, 0
2, 240480, Note_on_c, 0, 70, 39
2, 240480, Note_on_c, 0, 82, 39
2, 240480, Note_on_c, 0, 74, 46
2, 240480, Note_on_c, 0, 56, 57
2, 240480, Note_on_c, 0, 62, 57
2, 240643, Note_on_c, 0, 62, 0
2, 240643, Note_on_c, 0, 70, 0
2, 240643, Note_on_c, 0, 53, 0
2, 240643, Note_on_c, 0, 82, 0
2, 240643, Note_on_c, 0, 56, 0
2, 240660, Note_on_c, 0, 72, 45
2, 240660, Note_on_c, 0, 84, 43
2, 240660, Note_on_c, 0, 39, 33
2, 240660, Note_on_c, 0, 46, 30
2, 240805, Note_on_c, 0, 74, 0
2, 240823, Note_on_c, 0, 39, 0
2, 240823, Note_on_c, 0, 72, 0
2, 240823, Note_on_c, 0, 84, 0
2, 240823, Note_on_c, 0, 46, 0
2, 240840, Note_on_c, 0, 86, 51
2, 240840, Note_on_c, 0, 82, 55
2, 240840, Note_on_c, 0, 70, 52
2, 240840, Note_on_c, 0, 62, 56
2, 240840, Note_on_c, 0, 65, 53
2, 240948, Note_on_c, 0, 82, 0
2, 240960, Note_on_c, 0, 74, 34
2, 241068, Note_on_c, 0, 74, 0
2, 241079, Note_on_c, 0, 82, 51
2, 241165, Note_on_c, 0, 70, 0
2, 241189, Note_on_c, 0, 82, 0
2, 241200, Note_on_c, 0, 81, 46
2, 241200, Note_on_c, 0, 61, 44
2, 241200, Note_on_c, 0, 69, 42
2, 241308, Note_on_c, 0, 81, 0
2, 241320, Note_on_c, 0, 74, 35
2, 241415, Note_on_c, 0, 86, 0
2, 241428, Note_on_c, 0, 74, 0
2, 241439, Note_on_c, 0, 85, 39
2, 241439, Note_on_c, 0, 85, 54
2, 241490, Note_on_c, 0, 62, 0
2, 241490, Note_on_c, 0, 65, 0
2, 241525, Note_on_c, 0, 61, 0
2, 241525, Note_on_c, 0, 69, 0
2, 241549, Note_on_c, 0, 85, 0
2, 241549, Note_on_c, 0, 85, 0
2, 241560, Note_on_c, 0, 86, 51
2, 241560, Note_on_c, 0, 80, 43
2, 241560, Note_on_c, 0, 60, 39
2, 241560, Note_on_c, 0, 68, 39
2, 241560, Note_on_c, 0, 62, 42
2, 241560, Note_on_c, 0, 65, 44
2, 241668, Note_on_c, 0, 80, 0
2, 241680, Note_on_c, 0, 74, 35
2, 241788, Note_on_c, 0, 74, 0
2, 241799, Note_on_c, 0, 79, 46
2, 241885, Note_on_c, 0, 60, 0
2, 241885, Note_on_c, 0, 68, 0
2, 241909, Note_on_c, 0, 79, 0
2, 241920, Note_on_c, 0, 80, 48
2, 241920, Note_on_c, 0, 68, 42
2, 241920, Note_on_c, 0, 59, 42
2, 242028, Note_on_c, 0, 80, 0
2, 242040, Note_on_c, 0, 74, 34
2, 242135, Note_on_c, 0, 86, 0
2, 242148, Note_on_c, 0, 74, 0
2, 242159, Note_on_c, 0, 85, 39
2, 242159, Note_on_c, 0, 85, 56
2, 242245, Note_on_c, 0, 68, 0
2, 242269, Note_on_c, 0, 85, 0
2, 242269, Note_on_c, 0, 85, 0
2, 242280, Note_on_c, 0, 86, 52
2, 242280, Note_on_c, 0, 79, 38
2, 242280, Note_on_c, 0, 67, 40
2, 242388, Note_on_c, 0, 79, 0
2, 242400, Note_on_c, 0, 74, 33
2, 242508, Note_on_c, 0, 74, 0
2, 242519, Note_on_c, 0, 79, 47
2, 242570, Note_on_c, 0, 62, 0
2, 242570, Note_on_c, 0, 59, 0
2, 242570, Note_on_c, 0, 65, 0
2, 242605, Note_on_c, 0, 67, 0
2, 242629, Note_on_c, 0, 79, 0
2, 242640, Note_on_c, 0, 86, 0
2, 242640, Note_on_c, 0, 85, 88
2, 242640, Note_on_c, 0, 73, 78
2, 242640, Note_on_c, 0, 51, 50
2, 242640, Note_on_c, 0, 58, 47
2, 242640, Note_on_c, 0, 61, 48
2, 242640, Note_on_c, 0, 67, 50
2, 242748, Note_on_c, 0, 73, 0
2, 242760, Note_on_c, 0, 79, 105
2, 242855, Note_on_c, 0, 85, 0
2, 242868, Note_on_c, 0, 79, 0
2, 242879, Note_on_c, 0, 86, 95
2, 242879, Note_on_c, 0, 74, 81
2, 242965, Note_on_c, 0, 61, 0
2, 242965, Note_on_c, 0, 51, 0
2, 242965, Note_on_c, 0, 58, 0
2, 242965, Note_on_c, 0, 67, 0
2, 242989, Note_on_c, 0, 74, 0
2, 242989, Note_on_c, 0, 86, 0
2, 243000, Note_on_c, 0, 87, 102
2, 243000, Note_on_c, 0, 85, 118
2, 243000, Note_on_c, 0, 65, 50
2, 243000, Note_on_c, 0, 73, 50
2, 243000, Note_on_c, 0, 67, 44
2, 243108, Note_on_c, 0, 85, 0
2, 243120, Note_on_c, 0, 75, 72
2, 243228, Note_on_c, 0, 75, 0
2, 243239, Note_on_c, 0, 85, 109
2, 243325, Note_on_c, 0, 73, 0
2, 243325, Note_on_c, 0, 65, 0
2, 243349, Note_on_c, 0, 85, 0
2, 243360, Note_on_c, 0, 84, 91
2, 243360, Note_on_c, 0, 63, 40
2, 243360, Note_on_c, 0, 72, 41
2, 243468, Note_on_c, 0, 84, 0
2, 243480, Note_on_c, 0, 75, 71
2, 243575, Note_on_c, 0, 87, 0
2, 243588, Note_on_c, 0, 75, 0
2, 243599, Note_on_c, 0, 85, 85
2, 243599, Note_on_c, 0, 85, 108
2, 243650, Note_on_c, 0, 67, 0
2, 243685, Note_on_c, 0, 63, 0
2, 243685, Note_on_c, 0, 72, 0
2, 243709, Note_on_c, 0, 85, 0
2, 243709, Note_on_c, 0, 85, 0
2, 243720, Note_on_c, 0, 87, 104
2, 243720, Note_on_c, 0, 83, 89
2, 243720, Note_on_c, 0, 62, 42
2, 243720, Note_on_c, 0, 71, 39
2, 243720, Note_on_c, 0, 63, 42
2, 243720, Note_on_c, 0, 67, 41
2, 243828, Note_on_c, 0, 83, 0
2, 243840, Note_on_c, 0, 75, 73
2, 243948, Note_on_c, 0, 75, 0
2, 243959, Note_on_c, 0, 82, 105
2, 244045, Note_on_c, 0, 62, 0
2, 244069, Note_on_c, 0, 82, 0
2, 244080, Note_on_c, 0, 83, 100
2, 244080, Note_on_c, 0, 61, 43
2, 244188, Note_on_c, 0, 83, 0
2, 244200, Note_on_c, 0, 75, 72
2, 244295, Note_on_c, 0, 87, 0
2, 244308, Note_on_c, 0, 75, 0
2, 244319, Note_on_c, 0, 85, 87
2, 244319, Note_on_c, 0, 85, 108
2, 244405, Note_on_c, 0, 71, 0
2, 244429, Note_on_c, 0, 85, 0
2, 244429, Note_on_c, 0, 85, 0
2, 244440, Note_on_c, 0, 87, 103
2, 244440, Note_on_c, 0, 82, 90
2, 244440, Note_on_c, 0, 70, 41
2, 244548, Note_on_c, 0, 82, 0
2, 244560, Note_on_c, 0, 75, 32
2, 244668, Note_on_c, 0, 75, 0
2, 244679, Note_on_c, 0, 82, 49
2, 244730, Note_on_c, 0, 67, 0
2, 244730, Note_on_c, 0, 61, 0
2, 244730, Note_on_c, 0, 63, 0
2, 244765, Note_on_c, 0, 70, 0
2, 244789, Note_on_c, 0, 82, 0
2, 244800, Note_on_c, 0, 87, 0
2, 244800, Note_on_c, 0, 70, 36
2, 244800, Note_on_c, 0, 58, 34
2, 244800, Note_on_c, 0, 58, 35
2, 244908, Note_on_c, 0, 58, 0
2, 244920, Note_on_c, 0, 51, 30
2, 245028, Note_on_c, 0, 51, 0
2, 245039, Note_on_c, 0, 44, 33
2, 245149, Note_on_c, 0, 44, 0
2, 245160, Note_on_c, 0, 74, 34
2, 245160, Note_on_c, 0, 74, 44
2, 245268, Note_on_c, 0, 74, 0
2, 245280, Note_on_c, 0, 62, 30
2, 245388, Note_on_c, 0, 62, 0
2, 245399, Note_on_c, 0, 70, 50
2, 245509, Note_on_c, 0, 70, 0
2, 245520, Note_on_c, 0, 74, 0
2, 245520, Note_on_c, 0, 58, 0
2, 245520, Note_on_c, 0, 70, 0
2, 245520, Note_on_c, 0, 71, 49
2, 245520, Note_on_c, 0, 59, 51
2, 245520, Note_on_c, 0, 59, 41
2, 245628, Note_on_c, 0, 59, 0
2, 245640, Note_on_c, 0, 51, 31
2, 245748, Note_on_c, 0, 51, 0
2, 245759, Note_on_c, 0, 56, 47
2, 245869, Note_on_c, 0, 56, 0
2, 245880, Note_on_c, 0, 75, 51
2, 245880, Note_on_c, 0, 75, 49
2, 245988, Note_on_c, 0, 75, 0
2, 246000, Note_on_c, 0, 63, 30
2, 246108, Note_on_c, 0, 63, 0
2, 246119, Note_on_c, 0, 68, 47
2, 246229, Note_on_c, 0, 68, 0
2, 246240, Note_on_c, 0, 71, 0
2, 246240, Note_on_c, 0, 59, 0
2, 246240, Note_on_c, 0, 75, 0
2, 246240, Note_on_c, 0, 72, 57
2, 246240, Note_on_c, 0, 60, 52
2, 246240, Note_on_c, 0, 60, 42
2, 246348, Note_on_c, 0, 60, 0
2, 246360, Note_on_c, 0, 52, 34
2, 246468, Note_on_c, 0, 52, 0
2, 246479, Note_on_c, 0, 56, 46
2, 246589, Note_on_c, 0, 56, 0
2, 246600, Note_on_c, 0, 76, 60
2, 246600, Note_on_c, 0, 76, 55
2, 246708, Note_on_c, 0, 76, 0
2, 246720, Note_on_c, 0, 64, 35
2, 246828, Note_on_c, 0, 64, 0
2, 246839, Note_on_c, 0, 68, 49
2, 246949, Note_on_c, 0, 68, 0
2, 246960, Note_on_c, 0, 72, 0
2, 246960, Note_on_c, 0, 60, 0
2, 246960, Note_on_c, 0, 76, 0
2, 246960, Note_on_c, 0, 73, 59
2, 246960, Note_on_c, 0, 61, 51
2, 246960, Note_on_c, 0, 61, 43
2, 247068, Note_on_c, 0, 61, 0
2, 247080, Note_on_c, 0, 53, 31
2, 247188, Note_on_c, 0, 53, 0
2, 247199, Note_on_c, 0, 56, 47
2, 247309, Note_on_c, 0, 56, 0
2, 247320, Note_on_c, 0, 77, 65
2, 247320, Note_on_c, 0, 77, 55
2, 247428, Note_on_c, 0, 77, 0
2, 247440, Note_on_c, 0, 65, 38
2, 247548, Note_on_c, 0, 65, 0
2, 247559, Note_on_c, 0, 68, 50
2, 247669, Note_on_c, 0, 68, 0
2, 247680, Note_on_c, 0, 73, 0
2, 247680, Note_on_c, 0, 61, 0
2, 247680, Note_on_c, 0, 77, 0
2, 247680, Note_on_c, 0, 74, 67
2, 247680, Note_on_c, 0, 62, 53
2, 247680, Note_on_c, 0, 62, 43
2, 247788, Note_on_c, 0, 62, 0
2, 247800, Note_on_c, 0, 54, 33
2, 247908, Note_on_c, 0, 54, 0
2, 247919, Note_on_c, 0, 58, 45
2, 248029, Note_on_c, 0, 58, 0
2, 248040, Note_on_c, 0, 78, 67
2, 248040, Note_on_c, 0, 78, 59
2, 248148, Note_on_c, 0, 78, 0
2, 248160, Note_on_c, 0, 66, 38
2, 248268, Note_on_c, 0, 66, 0
2, 248279, Note_on_c, 0, 68, 51
2, 248389, Note_on_c, 0, 68, 0
2, 248400, Note_on_c, 0, 74, 0
2, 248400, Note_on_c, 0, 62, 0
2, 248400, Note_on_c, 0, 78, 0
2, 248400, Note_on_c, 0, 73, 59
2, 248400, Note_on_c, 0, 61, 44
2, 248400, Note_on_c, 0, 61, 43
2, 248508, Note_on_c, 0, 61, 0
2, 248520, Note_on_c, 0, 53, 30
2, 248628, Note_on_c, 0, 53, 0
2, 248639, Note_on_c, 0, 55, 43
2, 248749, Note_on_c, 0, 55, 0
2, 248760, Note_on_c, 0, 77, 68
2, 248760, Note_on_c, 0, 77, 53
2, 248868, Note_on_c, 0, 77, 0
2, 248880, Note_on_c, 0, 65, 40
2, 248988, Note_on_c, 0, 65, 0
2, 248999, Note_on_c, 0, 68, 56
2, 249109, Note_on_c, 0, 68, 0
2, 249120, Note_on_c, 0, 73, 0
2, 249120, Note_on_c, 0, 61, 0
2, 249120, Note_on_c, 0, 77, 0
2, 249120, Note_on_c, 0, 74, 73
2, 249120, Note_on_c, 0, 62, 52
2, 249120, Note_on_c, 0, 62, 41
2, 249228, Note_on_c, 0, 62, 0
2, 249240, Note_on_c, 0, 54, 34
2, 249348, Note_on_c, 0, 54, 0
2, 249359, Note_on_c, 0, 56, 46
2, 249469, Note_on_c, 0, 56, 0
2, 249480, Note_on_c, 0, 78, 73
2, 249480, Note_on_c, 0, 78, 58
2, 249588, Note_on_c, 0, 78, 0
2, 249600, Note_on_c, 0, 66, 41
2, 249708, Note_on_c, 0, 66, 0
2, 249719, Note_on_c, 0, 68, 57
2, 249829, Note_on_c, 0, 68, 0
2, 249840, Note_on_c, 0, 74, 0
2, 249840, Note_on_c, 0, 62, 0
2, 249840, Note_on_c, 0, 78, 0
2, 249840, Note_on_c, 0, 75, 71
2, 249840, Note_on_c, 0, 63, 53
2, 249840, Note_on_c, 0, 63, 41
2, 249948, Note_on_c, 0, 63, 0
2, 249960, Note_on_c, 0, 56, 35
2, 250068, Note_on_c, 0, 56, 0
2, 250079, Note_on_c, 0, 59, 43
2, 250189, Note_on_c, 0, 59, 0
2, 250200, Note_on_c, 0, 79, 79
2, 250200, Note_on_c, 0, 79, 63
2, 250308, Note_on_c, 0, 79, 0
2, 250320, Note_on_c, 0, 67, 42
2, 250428, Note_on_c, 0, 67, 0
2, 250439, Note_on_c, 0, 71, 61
2, 250549, Note_on_c, 0, 71, 0
2, 250560, Note_on_c, 0, 75, 0
2, 250560, Note_on_c, 0, 63, 0
2, 250560, Note_on_c, 0, 79, 0
2, 250560, Note_on_c, 0, 76, 81
2, 250560, Note_on_c, 0, 64, 53
2, 250560, Note_on_c, 0, 64, 40
2, 250668, Note_on_c, 0, 64, 0
2, 250680, Note_on_c, 0, 56, 31
2, 250788, Note_on_c, 0, 56, 0
2, 250799, Note_on_c, 0, 59, 46
2, 250909, Note_on_c, 0, 59, 0
2, 250920, Note_on_c, 0, 80, 78
2, 250920, Note_on_c, 0, 80, 65
2, 251028, Note_on_c, 0, 80, 0
2, 251040, Note_on_c, 0, 68, 44
2, 251148, Note_on_c, 0, 68, 0
2, 251159, Note_on_c, 0, 71, 64
2, 251269, Note_on_c, 0, 71, 0
2, 251280, Note_on_c, 0, 76, 0
2, 251280, Note_on_c, 0, 64, 0
2, 251280, Note_on_c, 0, 80, 0
2, 251280, Note_on_c, 0, 75, 70
2, 251280, Note_on_c, 0, 63, 46
2, 251280, Note_on_c, 0, 63, 41
2, 251388, Note_on_c, 0, 63, 0
2, 251400, Note_on_c, 0, 55, 34
2, 251508, Note_on_c, 0, 55, 0
2, 251519, Note_on_c, 0, 59, 48
2, 251629, Note_on_c, 0, 59, 0
2, 251640, Note_on_c, 0, 79, 80
2, 251640, Note_on_c, 0, 79, 60
2, 251748, Note_on_c, 0, 79, 0
2, 251760, Note_on_c, 0, 67, 45
2, 251868, Note_on_c, 0, 67, 0
2, 251879, Note_on_c, 0, 71, 70
2, 251989, Note_on_c, 0, 71, 0
2, 252000, Note_on_c, 0, 75, 0
2, 252000, Note_on_c, 0, 63, 0
2, 252000, Note_on_c, 0, 79, 0
2, 252000, Note_on_c, 0, 76, 85
2, 252000, Note_on_c, 0, 64, 54
2, 252000, Note_on_c, 0, 64, 39
2, 252108, Note_on_c, 0, 64, 0
2, 252120, Note_on_c, 0, 56, 34
2, 252228, Note_on_c, 0, 56, 0
2, 252239, Note_on_c, 0, 59, 45
2, 252349, Note_on_c, 0, 59, 0
2, 252360, Note_on_c, 0, 80, 82
2, 252360, Note_on_c, 0, 80, 65
2, 252468, Note_on_c, 0, 80, 0
2, 252480, Note_on_c, 0, 68, 49
2, 252588, Note_on_c, 0, 68, 0
2, 252599, Note_on_c, 0, 71, 69
2, 252709, Note_on_c, 0, 71, 0
2, 252720, Note_on_c, 0, 76, 0
2, 252720, Note_on_c, 0, 64, 0
2, 252720, Note_on_c, 0, 80, 0
2, 252720, Note_on_c, 0, 77, 85
2, 252720, Note_on_c, 0, 65, 53
2, 252720, Note_on_c, 0, 65, 41
2, 252828, Note_on_c, 0, 65, 0
2, 252840, Note_on_c, 0, 57, 32
2, 252948, Note_on_c, 0, 57, 0
2, 252959, Note_on_c, 0, 63, 47
2, 253069, Note_on_c, 0, 63, 0
2, 253080, Note_on_c, 0, 81, 86
2, 253080, Note_on_c, 0, 81, 70
2, 253188, Note_on_c, 0, 81, 0
2, 253200, Note_on_c, 0, 69, 48
2, 253308, Note_on_c, 0, 69, 0
2, 253319, Note_on_c, 0, 75, 78
2, 253429, Note_on_c, 0, 75, 0
2, 253440, Note_on_c, 0, 77, 0
2, 253440, Note_on_c, 0, 65, 0
2, 253440, Note_on_c, 0, 81, 0
2, 253440, Note_on_c, 0, 78, 91
2, 253440, Note_on_c, 0, 66, 55
2, 253440, Note_on_c, 0, 66, 42
2, 253548, Note_on_c, 0, 66, 0
2, 253560, Note_on_c, 0, 58, 31
2, 253668, Note_on_c, 0, 58, 0
2, 253679, Note_on_c, 0, 63, 48
2, 253789, Note_on_c, 0, 63, 0
2, 253800, Note_on_c, 0, 82, 88
2, 253800, Note_on_c, 0, 82, 70
2, 253908, Note_on_c, 0, 82, 0
2, 253920, Note_on_c, 0, 70, 53
2, 254028, Note_on_c, 0, 70, 0
2, 254039, Note_on_c, 0, 75, 78
2, 254149, Note_on_c, 0, 75, 0
2, 254160, Note_on_c, 0, 78, 0
2, 254160, Note_on_c, 0, 66, 0
2, 254160, Note_on_c, 0, 82, 0
2, 254160, Note_on_c, 0, 79, 95
2, 254160, Note_on_c, 0, 67, 53
2, 254160, Note_on_c, 0, 67, 40
2, 254268, Note_on_c, 0, 67, 0
2, 254280, Note_on_c, 0, 59, 31
2, 254388, Note_on_c, 0, 59, 0
2, 254399, Note_on_c, 0, 63, 45
2, 254509, Note_on_c, 0, 63, 0
2, 254520, Note_on_c, 0, 83, 91
2, 254520, Note_on_c, 0, 83, 75
2, 254628, Note_on_c, 0, 83, 0
2, 254640, Note_on_c, 0, 71, 53
2, 254748, Note_on_c, 0, 71, 0
2, 254759, Note_on_c, 0, 75, 79
2, 254869, Note_on_c, 0, 75, 0
2, 254880, Note_on_c, 0, 79, 0
2, 254880, Note_on_c, 0, 67, 0
2, 254880, Note_on_c, 0, 83, 0
2, 254880, Note_on_c, 0, 80, 102
2, 254880, Note_on_c, 0, 68, 56
2, 254880, Note_on_c, 0, 68, 40
2, 254988, Note_on_c, 0, 68, 0
2, 255000, Note_on_c, 0, 58, 32
2, 255108, Note_on_c, 0, 58, 0
2, 255119, Note_on_c, 0, 63, 47
2, 255229, Note_on_c, 0, 63, 0
2, 255240, Note_on_c, 0, 83, 93
2, 255240, Note_on_c, 0, 83, 69
2, 255348, Note_on_c, 0, 83, 0
2, 255360, Note_on_c, 0, 71, 55
2, 255468, Note_on_c, 0, 71, 0
2, 255479, Note_on_c, 0, 75, 81
2, 255589, Note_on_c, 0, 75, 0
2, 255600, Note_on_c, 0, 80, 0
2, 255600, Note_on_c, 0, 68, 0
2, 255600, Note_on_c, 0, 83, 0
2, 255600, Note_on_c, 0, 81, 100
2, 255600, Note_on_c, 0, 69, 53
2, 255600, Note_on_c, 0, 69, 40
2, 255708, Note_on_c, 0, 69, 0
2, 255720, Note_on_c, 0, 57, 29
2, 255828, Note_on_c, 0, 57, 0
2, 255839, Note_on_c, 0, 63, 46
2, 255949, Note_on_c, 0, 63, 0
2, 255960, Note_on_c, 0, 83, 95
2, 255960, Note_on_c, 0, 83, 71
2, 256068, Note_on_c, 0, 83, 0
2, 256080, Note_on_c, 0, 71, 59
2, 256188, Note_on_c, 0, 71, 0
2, 256199, Note_on_c, 0, 75, 84
2, 256309, Note_on_c, 0, 75, 0
2, 256320, Note_on_c, 0, 81, 0
2, 256320, Note_on_c, 0, 69, 0
2, 256320, Note_on_c, 0, 83, 0
2, 256320, Note_on_c, 0, 46, 70
2, 256320, Note_on_c, 0, 51, 70
2, 256320, Note_on_c, 0, 55, 71
2, 256320, Note_on_c, 0, 58, 71
2, 256645, Note_on_c, 0, 58, 0
2, 256645, Note_on_c, 0, 46, 0
2, 256645, Note_on_c, 0, 51, 0
2, 256645, Note_on_c, 0, 55, 0
2, 256680, Note_on_c, 0, 63, 73
2, 256680, Note_on_c, 0, 58, 108
2, 256680, Note_on_c, 0, 67, 107
2, 256788, Note_on_c, 0, 63, 0
2, 256800, Note_on_c, 0, 70, 91
2, 256908, Note_on_c, 0, 70, 0
2, 256919, Note_on_c, 0, 63, 66
2, 257029, Note_on_c, 0, 63, 0
2, 257040, Note_on_c, 0, 75, 103
2, 257148, Note_on_c, 0, 75, 0
2, 257160, Note_on_c, 0, 70, 69
2, 257255, Note_on_c, 0, 67, 0
2, 257255, Note_on_c, 0, 58, 0
2, 257268, Note_on_c, 0, 70, 0
2, 257279, Note_on_c, 0, 75, 87
2, 257279, Note_on_c, 0, 56, 83
2, 257279, Note_on_c, 0, 65, 84
2, 257389, Note_on_c, 0, 65, 0
2, 257389, Note_on_c, 0, 56, 0
2, 257389, Note_on_c, 0, 75, 0
2, 257400, Note_on_c, 0, 70, 72
2, 257400, Note_on_c, 0, 55, 87
2, 257400, Note_on_c, 0, 58, 87
2, 257400, Note_on_c, 0, 63, 86
2, 257508, Note_on_c, 0, 70, 0
2, 257520, Note_on_c, 0, 75, 87
2, 257628, Note_on_c, 0, 75, 0
2, 257639, Note_on_c, 0, 70, 67
2, 257749, Note_on_c, 0, 70, 0
2, 257760, Note_on_c, 0, 82, 102
2, 257868, Note_on_c, 0, 82, 0
2, 257868, Note_on_c, 0, 63, 0
2, 257868, Note_on_c, 0, 58, 0
2, 257868, Note_on_c, 0, 55, 0
2, 257880, Note_on_c, 0, 75, 65
2, 257988, Note_on_c, 0, 75, 0
2, 257999, Note_on_c, 0, 82, 92
2, 257999, Note_on_c, 0, 53, 80
2, 257999, Note_on_c, 0, 62, 81
2, 258109, Note_on_c, 0, 62, 0
2, 258109, Note_on_c, 0, 53, 0
2, 258109, Note_on_c, 0, 82, 0
2, 258120, Note_on_c, 0, 67, 58
2, 258120, Note_on_c, 0, 51, 84
2, 258120, Note_on_c, 0, 55, 82
2, 258120, Note_on_c, 0, 60, 81
2, 258228, Note_on_c, 0, 67, 0
2, 258240, Note_on_c, 0, 72, 83
2, 258348, Note_on_c, 0, 72, 0
2, 258359, Note_on_c, 0, 67, 69
2, 258469, Note_on_c, 0, 67, 0
2, 258480, Note_on_c, 0, 79, 103
2, 258588, Note_on_c, 0, 79, 0
2, 258600, Note_on_c, 0, 72, 66
2, 258695, Note_on_c, 0, 60, 0
2, 258695, Note_on_c, 0, 51, 0
2, 258695, Note_on_c, 0, 55, 0
2, 258708, Note_on_c, 0, 72, 0
2, 258719, Note_on_c, 0, 79, 90
2, 258719, Note_on_c, 0, 50, 85
2, 258719, Note_on_c, 0, 58, 83
2, 258829, Note_on_c, 0, 58, 0
2, 258829, Note_on_c, 0, 50, 0
2, 258829, Note_on_c, 0, 79, 0
2, 258840, Note_on_c, 0, 75, 74
2, 258840, Note_on_c, 0, 48, 88
2, 258840, Note_on_c, 0, 51, 88
2, 258840, Note_on_c, 0, 56, 89
2, 258948, Note_on_c, 0, 75, 0
2, 258960, Note_on_c, 0, 80, 88
2, 259068, Note_on_c, 0, 80, 0
2, 259079, Note_on_c, 0, 75, 68
2, 259189, Note_on_c, 0, 75, 0
2, 259200, Note_on_c, 0, 87, 101
2, 259308, Note_on_c, 0, 87, 0
2, 259320, Note_on_c, 0, 80, 68
2, 259415, Note_on_c, 0, 56, 0
2, 259415, Note_on_c, 0, 48, 0
2, 259415, Note_on_c, 0, 51, 0
2, 259428, Note_on_c, 0, 80, 0
2, 259439, Note_on_c, 0, 87, 90
2, 259439, Note_on_c, 0, 46, 88
2, 259439, Note_on_c, 0, 55, 86
2, 259549, Note_on_c, 0, 55, 0
2, 259549, Note_on_c, 0, 46, 0
2, 259549, Note_on_c, 0, 87, 0
2, 259560, Note_on_c, 0, 72, 60
2, 259560, Note_on_c, 0, 44, 83
2, 259560, Note_on_c, 0, 48, 82
2, 259560, Note_on_c, 0, 53, 84
2, 259668, Note_on_c, 0, 72, 0
2, 259680, Note_on_c, 0, 77, 86
2, 259788, Note_on_c, 0, 77, 0
2, 259799, Note_on_c, 0, 72, 68
2, 259909, Note_on_c, 0, 72, 0
2, 259920, Note_on_c, 0, 84, 103
2, 260028, Note_on_c, 0, 84, 0
2, 260040, Note_on_c, 0, 77, 65
2, 260135, Note_on_c, 0, 53, 0
2, 260135, Note_on_c, 0, 44, 0
2, 260135, Note_on_c, 0, 48, 0
2, 260148, Note_on_c, 0, 77, 0
2, 260159, Note_on_c, 0, 84, 91
2, 260159, Note_on_c, 0, 43, 88
2, 260159, Note_on_c, 0, 52, 86
2, 260269, Note_on_c, 0, 52, 0
2, 260269, Note_on_c, 0, 43, 0
2, 260269, Note_on_c, 0, 84, 0
2, 260280, Note_on_c, 0, 79, 71
2, 260280, Note_on_c, 0, 41, 82
2, 260280, Note_on_c, 0, 50, 83
2, 260388, Note_on_c, 0, 79, 0
2, 260400, Note_on_c, 0, 82, 82
2, 260495, Note_on_c, 0, 50, 0
2, 260495, Note_on_c, 0, 41, 0
2, 260508, Note_on_c, 0, 82, 0
2, 260519, Note_on_c, 0, 79, 72
2, 260519, Note_on_c, 0, 39, 83
2, 260519, Note_on_c, 0, 48, 83
2, 260629, Note_on_c, 0, 48, 0
2, 260629, Note_on_c, 0, 39, 0
2, 260629, Note_on_c, 0, 79, 0
2, 260640, Note_on_c, 0, 91, 102
2, 260640, Note_on_c, 0, 38, 87
2, 260640, Note_on_c, 0, 46, 88
2, 260748, Note_on_c, 0, 91, 0
2, 260760, Note_on_c, 0, 82, 63
2, 260868, Note_on_c, 0, 82, 0
2, 260879, Note_on_c, 0, 91, 91
2, 260965, Note_on_c, 0, 46, 0
2, 260965, Note_on_c, 0, 38, 0
2, 260989, Note_on_c, 0, 91, 0
2, 261000, Note_on_c, 0, 82, 62
2, 261000, Note_on_c, 0, 36, 85
2, 261000, Note_on_c, 0, 44, 83
2, 261108, Note_on_c, 0, 82, 0
2, 261120, Note_on_c, 0, 87, 86
2, 261177, Note_on_c, 0, 44, 0
2, 261177, Note_on_c, 0, 36, 0
2, 261228, Note_on_c, 0, 87, 0
2, 261239, Note_on_c, 0, 82, 70
2, 261349, Note_on_c, 0, 82, 0
2, 261360, Note_on_c, 0, 94, 101
2, 261360, Note_on_c, 0, 34, 85
2, 261360, Note_on_c, 0, 43, 85
2, 261468, Note_on_c, 0, 94, 0
2, 261480, Note_on_c, 0, 87, 68
2, 261537, Note_on_c, 0, 43, 0
2, 261537, Note_on_c, 0, 34, 0
2, 261588, Note_on_c, 0, 87, 0
2, 261599, Note_on_c, 0, 94, 90
2, 261709, Note_on_c, 0, 94, 0
2, 261720, Note_on_c, 0, 82, 59
2, 261720, Note_on_c, 0, 32, 85
2, 261720, Note_on_c, 0, 41, 84
2, 261828, Note_on_c, 0, 82, 0
2, 261840, Note_on_c, 0, 94, 97
2, 261897, Note_on_c, 0, 41, 0
2, 261897, Note_on_c, 0, 32, 0
2, 261948, Note_on_c, 0, 94, 0
2, 261959, Note_on_c, 0, 82, 58
2, 262069, Note_on_c, 0, 82, 0
2, 262080, Note_on_c, 0, 27, 84
2, 262080, Note_on_c, 0, 39, 83
2, 262319, Note_on_c, 0, 81, 95
2, 262319, Note_on_c, 0, 87, 96
2, 262319, Note_on_c, 0, 91, 95
2, 262319, Note_on_c, 0, 93, 94
2, 262319, Note_on_c, 0, 63, 80
2, 262319, Note_on_c, 0, 67, 83
2, 262319, Note_on_c, 0, 72, 81
2, 262429, Note_on_c, 0, 72, 0
2, 262429, Note_on_c, 0, 87, 0
2, 262429, Note_on_c, 0, 67, 0
2, 262429, Note_on_c, 0, 91, 0
2, 262429, Note_on_c, 0, 63, 0
2, 262429, Note_on_c, 0, 81, 0
2, 262429, Note_on_c, 0, 93, 0
2, 262440, Note_on_c, 0, 82, 108
2, 262440, Note_on_c, 0, 87, 110
2, 262440, Note_on_c, 0, 91, 108
2, 262440, Note_on_c, 0, 94, 109
2, 262440, Note_on_c, 0, 62, 82
2, 262440, Note_on_c, 0, 63, 83
2, 262440, Note_on_c, 0, 67, 83
2, 262440, Note_on_c, 0, 70, 84
2, 263015, Note_on_c, 0, 70, 0
2, 263015, Note_on_c, 0, 82, 0
2, 263015, Note_on_c, 0, 87, 0
2, 263015, Note_on_c, 0, 67, 0
2, 263015, Note_on_c, 0, 91, 0
2, 263015, Note_on_c, 0, 62, 0
2, 263015, Note_on_c, 0, 63, 0
2, 263015, Note_on_c, 0, 94, 0
2, 263039, Note_on_c, 0, 77, 90
2, 263039, Note_on_c, 0, 84, 89
2, 263039, Note_on_c, 0, 87, 90
2, 263039, Note_on_c, 0, 89, 91
2, 263039, Note_on_c, 0, 60, 85
2, 263039, Note_on_c, 0, 63, 85
2, 263039, Note_on_c, 0, 68, 83
2, 263149, Note_on_c, 0, 68, 0
2, 263149, Note_on_c, 0, 84, 0
2, 263149, Note_on_c, 0, 63, 0
2, 263149, Note_on_c, 0, 87, 0
2, 263149, Note_on_c, 0, 60, 0
2, 263149, Note_on_c, 0, 77, 0
2, 263149, Note_on_c, 0, 89, 0
2, 263160, Note_on_c, 0, 79, 112
2, 263160, Note_on_c, 0, 82, 112
2, 263160, Note_on_c, 0, 87, 112
2, 263160, Note_on_c, 0, 91, 114
2, 263160, Note_on_c, 0, 58, 87
2, 263160, Note_on_c, 0, 63, 89
2, 263160, Note_on_c, 0, 67, 90
2, 263375, Note_on_c, 0, 67, 0
2, 263375, Note_on_c, 0, 82, 0
2, 263375, Note_on_c, 0, 63, 0
2, 263375, Note_on_c, 0, 87, 0
2, 263375, Note_on_c, 0, 58, 0
2, 263375, Note_on_c, 0, 79, 0
2, 263375, Note_on_c, 0, 91, 0
2, 263399, Note_on_c, 0, 74, 120
2, 263399, Note_on_c, 0, 82, 122
2, 263399, Note_on_c, 0, 86, 122
2, 263399, Note_on_c, 0, 56, 86
2, 263399, Note_on_c, 0, 65, 85
2, 263450, Note_on_c, 0, 39, 0
2, 263450, Note_on_c, 0, 27, 0
2, 263509, Note_on_c, 0, 74, 0
2, 263509, Note_on_c, 0, 86, 0
2, 263509, Note_on_c, 0, 82, 0
2, 263509, Note_on_c, 0, 65, 0
2, 263509, Note_on_c, 0, 56, 0
2, 263520, Note_on_c, 0, 75, 115
2, 263520, Note_on_c, 0, 82, 118
2, 263520, Note_on_c, 0, 87, 118
2, 263520, Note_on_c, 0, 55, 86
2, 263520, Note_on_c, 0, 58, 86
2, 263520, Note_on_c, 0, 63, 86
2, 263735, Note_on_c, 0, 63, 0
2, 263735, Note_on_c, 0, 82, 0
2, 263735, Note_on_c, 0, 87, 0
2, 263735, Note_on_c, 0, 75, 0
2, 263735, Note_on_c, 0, 58, 0
2, 263735, Note_on_c, 0, 55, 0
2, 263759, Note_on_c, 0, 69, 87
2, 263759, Note_on_c, 0, 75, 89
2, 263759, Note_on_c, 0, 79, 87
2, 263759, Note_on_c, 0, 81, 88
2, 263759, Note_on_c, 0, 51, 83
2, 263759, Note_on_c, 0, 55, 83
2, 263759, Note_on_c, 0, 60, 84
2, 263869, Note_on_c, 0, 60, 0
2, 263869, Note_on_c, 0, 51, 0
2, 263869, Note_on_c, 0, 75, 0
2, 263869, Note_on_c, 0, 79, 0
2, 263869, Note_on_c, 0, 69, 0
2, 263869, Note_on_c, 0, 55, 0
2, 263869, Note_on_c, 0, 81, 0
2, 263880, Note_on_c, 0, 70, 107
2, 263880, Note_on_c, 0, 75, 107
2, 263880, Note_on_c, 0, 79, 110
2, 263880, Note_on_c, 0, 82, 108
2, 263880, Note_on_c, 0, 50, 85
2, 263880, Note_on_c, 0, 51, 82
2, 263880, Note_on_c, 0, 55, 82
2, 263880, Note_on_c, 0, 58, 85
2, 264455, Note_on_c, 0, 58, 0
2, 264455, Note_on_c, 0, 70, 0
2, 264455, Note_on_c, 0, 50, 0
2, 264455, Note_on_c, 0, 75, 0
2, 264455, Note_on_c, 0, 79, 0
2, 264455, Note_on_c, 0, 82, 0
2, 264455, Note_on_c, 0, 51, 0
2, 264455, Note_on_c, 0, 55, 0
2, 264479, Note_on_c, 0, 65, 91
2, 264479, Note_on_c, 0, 75, 92
2, 264479, Note_on_c, 0, 77, 90
2, 264479, Note_on_c, 0, 48, 84
2, 264479, Note_on_c, 0, 51, 84
2, 264479, Note_on_c, 0, 56, 86
2, 264589, Note_on_c, 0, 56, 0
2, 264589, Note_on_c, 0, 75, 0
2, 264589, Note_on_c, 0, 77, 0
2, 264589, Note_on_c, 0, 65, 0
2, 264589, Note_on_c, 0, 51, 0
2, 264589, Note_on_c, 0, 48, 0
2, 264600, Note_on_c, 0, 67, 111
2, 264600, Note_on_c, 0, 75, 114
2, 264600, Note_on_c, 0, 79, 113
2, 264600, Note_on_c, 0, 46, 87
2, 264600, Note_on_c, 0, 51, 88
2, 264600, Note_on_c, 0, 55, 87
2, 264815, Note_on_c, 0, 55, 0
2, 264815, Note_on_c, 0, 75, 0
2, 264815, Note_on_c, 0, 79, 0
2, 264815, Note_on_c, 0, 67, 0
2, 264815, Note_on_c, 0, 51, 0
2, 264815, Note_on_c, 0, 46, 0
2, 264839, Note_on_c, 0, 62, 90
2, 264839, Note_on_c, 0, 70, 93
2, 264839, Note_on_c, 0, 74, 92
2, 264839, Note_on_c, 0, 44, 84
2, 264839, Note_on_c, 0, 46, 84
2, 264839, Note_on_c, 0, 53, 85
2, 264949, Note_on_c, 0, 53, 0
2, 264949, Note_on_c, 0, 70, 0
2, 264949, Note_on_c, 0, 74, 0
2, 264949, Note_on_c, 0, 62, 0
2, 264949, Note_on_c, 0, 46, 0
2, 264949, Note_on_c, 0, 44, 0
2, 264960, Note_on_c, 0, 63, 109
2, 264960, Note_on_c, 0, 70, 110
2, 264960, Note_on_c, 0, 75, 111
2, 264960, Note_on_c, 0, 43, 88
2, 264960, Note_on_c, 0, 46, 88
2, 264960, Note_on_c, 0, 51, 87
2, 265175, Note_on_c, 0, 51, 0
2, 265175, Note_on_c, 0, 70, 0
2, 265175, Note_on_c, 0, 75, 0
2, 265175, Note_on_c, 0, 63, 0
2, 265175, Note_on_c, 0, 46, 0
2, 265175, Note_on_c, 0, 43, 0
2, 265199, Note_on_c, 0, 60, 87
2, 265199, Note_on_c, 0, 63, 87
2, 265199, Note_on_c, 0, 67, 88
2, 265199, Note_on_c, 0, 69, 89
2, 265199, Note_on_c, 0, 27, 62
2, 265199, Note_on_c, 0, 39, 63
2, 265309, Note_on_c, 0, 39, 0
2, 265309, Note_on_c, 0, 63, 0
2, 265309, Note_on_c, 0, 67, 0
2, 265309, Note_on_c, 0, 60, 0
2, 265309, Note_on_c, 0, 27, 0
2, 265309, Note_on_c, 0, 69, 0
2, 265320, Note_on_c, 0, 58, 107
2, 265320, Note_on_c, 0, 63, 108
2, 265320, Note_on_c, 0, 67, 110
2, 265320, Note_on_c, 0, 70, 108
2, 265320, Note_on_c, 0, 46, 112
2, 265320, Note_on_c, 0, 51, 111
2, 265320, Note_on_c, 0, 55, 112
2, 265895, Note_on_c, 0, 55, 0
2, 265895, Note_on_c, 0, 46, 0
2, 265895, Note_on_c, 0, 63, 0
2, 265895, Note_on_c, 0, 67, 0
2, 265895, Note_on_c, 0, 58, 0
2, 265895, Note_on_c, 0, 51, 0
2, 265895, Note_on_c, 0, 70, 0
2, 265919, Note_on_c, 0, 60, 91
2, 265919, Note_on_c, 0, 63, 90
2, 265919, Note_on_c, 0, 65, 91
2, 265919, Note_on_c, 0, 45, 84
2, 265919, Note_on_c, 0, 53, 84
2, 266029, Note_on_c, 0, 53, 0
2, 266029, Note_on_c, 0, 65, 0
2, 266029, Note_on_c, 0, 60, 0
2, 266029, Note_on_c, 0, 63, 0
2, 266029, Note_on_c, 0, 45, 0
2, 266040, Note_on_c, 0, 58, 113
2, 266040, Note_on_c, 0, 63, 113
2, 266040, Note_on_c, 0, 67, 114
2, 266040, Note_on_c, 0, 43, 87
2, 266040, Note_on_c, 0, 51, 89
2, 266255, Note_on_c, 0, 51, 0
2, 266255, Note_on_c, 0, 67, 0
2, 266255, Note_on_c, 0, 58, 0
2, 266255, Note_on_c, 0, 63, 0
2, 266255, Note_on_c, 0, 43, 0
2, 266279, Note_on_c, 0, 56, 92
2, 266279, Note_on_c, 0, 62, 92
2, 266279, Note_on_c, 0, 41, 76
2, 266279, Note_on_c, 0, 46, 76
2, 266389, Note_on_c, 0, 46, 0
2, 266389, Note_on_c, 0, 56, 0
2, 266389, Note_on_c, 0, 62, 0
2, 266389, Note_on_c, 0, 41, 0
2, 266400, Note_on_c, 0, 55, 110
2, 266400, Note_on_c, 0, 63, 112
2, 266400, Note_on_c, 0, 39, 91
2, 266400, Note_on_c, 0, 46, 92
2, 266615, Note_on_c, 0, 46, 0
2, 266615, Note_on_c, 0, 55, 0
2, 266615, Note_on_c, 0, 63, 0
2, 266615, Note_on_c, 0, 39, 0
2, 266639, Note_on_c, 0, 53, 91
2, 266639, Note_on_c, 0, 58, 92
2, 266639, Note_on_c, 0, 38, 82
2, 266639, Note_on_c, 0, 43, 82
2, 266749, Note_on_c, 0, 43, 0
2, 266749, Note_on_c, 0, 53, 0
2, 266749, Note_on_c, 0, 58, 0
2, 266749, Note_on_c, 0, 38, 0
2, 266760, Note_on_c, 0, 51, 109
2, 266760, Note_on_c, 0, 60, 110
2, 266760, Note_on_c, 0, 36, 90
2, 266760, Note_on_c, 0, 43, 89
2, 266975, Note_on_c, 0, 43, 0
2, 266975, Note_on_c, 0, 51, 0
2, 266975, Note_on_c, 0, 60, 0
2, 266975, Note_on_c, 0, 36, 0
2, 266999, Note_on_c, 0, 57, 97
2, 266999, Note_on_c, 0, 33, 96
2, 266999, Note_on_c, 0, 45, 99
2, 267109, Note_on_c, 0, 45, 0
2, 267109, Note_on_c, 0, 33, 0
2, 267109, Note_on_c, 0, 57, 0
2, 267120, Note_on_c, 0, 58, 111
2, 267120, Note_on_c, 0, 34, 96
2, 267120, Note_on_c, 0, 46, 97
2, 267335, Note_on_c, 0, 46, 0
2, 267335, Note_on_c, 0, 34, 0
2, 267335, Note_on_c, 0, 58, 0
2, 267359, Note_on_c, 0, 53, 92
2, 267359, Note_on_c, 0, 29, 78
2, 267359, Note_on_c, 0, 41, 77
2, 267469, Note_on_c, 0, 41, 0
2, 267469, Note_on_c, 0, 29, 0
2, 267469, Note_on_c, 0, 53, 0
2, 267480, Note_on_c, 0, 55, 112
2, 267480, Note_on_c, 0, 31, 94
2, 267480, Note_on_c, 0, 43, 92
2, 267695, Note_on_c, 0, 43, 0
2, 267695, Note_on_c, 0, 31, 0
2, 267695, Note_on_c, 0, 55, 0
2, 267719, Note_on_c, 0, 26, 78
2, 267719, Note_on_c, 0, 38, 78
2, 267829, Note_on_c, 0, 38, 0
2, 267829, Note_on_c, 0, 26, 0
2, 267840, Note_on_c, 0, 55, 92
2, 267840, Note_on_c, 0, 60, 91
2, 267840, Note_on_c, 0, 63, 90
2, 267840, Note_on_c, 0, 67, 91
2, 267840, Note_on_c, 0, 27, 94
2, 267840, Note_on_c, 0, 39, 98
2, 268083, Note_on_c, 0, 39, 0
2, 268083, Note_on_c, 0, 27, 0
2, 268110, Note_on_c, 0, 55, 117
2, 268192, Note_on_c, 0, 55, 0
2, 268200, Note_on_c, 0, 39, 67
2, 268803, Note_on_c, 0, 39, 0
2, 268830, Note_on_c, 0, 51, 119
2, 268912, Note_on_c, 0, 51, 0
2, 268920, Note_on_c, 0, 39, 72
2, 269163, Note_on_c, 0, 39, 0
2, 269190, Note_on_c, 0, 48, 107
2, 269272, Note_on_c, 0, 48, 0
2, 269280, Note_on_c, 0, 39, 74
2, 269523, Note_on_c, 0, 39, 0
2, 269550, Note_on_c, 0, 55, 115
2, 269632, Note_on_c, 0, 55, 0
2, 269640, Note_on_c, 0, 39, 69
2, 270243, Note_on_c, 0, 39, 0
2, 270270, Note_on_c, 0, 48, 113
2, 270352, Note_on_c, 0, 48, 0
2, 270360, Note_on_c, 0, 39, 76
2, 270603, Note_on_c, 0, 39, 0
2, 270630, Note_on_c, 0, 43, 97
2, 270712, Note_on_c, 0, 43, 0
2, 270720, Note_on_c, 0, 39, 85
2, 270963, Note_on_c, 0, 39, 0
2, 270990, Note_on_c, 0, 48, 111
2, 271072, Note_on_c, 0, 48, 0
2, 271080, Note_on_c, 0, 39, 73
2, 271683, Note_on_c, 0, 39, 0
2, 271710, Note_on_c, 0, 43, 101
2, 271792, Note_on_c, 0, 43, 0
2, 271800, Note_on_c, 0, 39, 84
2, 272043, Note_on_c, 0, 39, 0
2, 272070, Note_on_c, 0, 41, 94
2, 272090, Note_on_c, 0, 67, 0
2, 272152, Note_on_c, 0, 41, 0
2, 272160, Note_on_c, 0, 39, 87
2, 272403, Note_on_c, 0, 39, 0
2, 272430, Note_on_c, 0, 43, 101
2, 272512, Note_on_c, 0, 43, 0
2, 272520, Note_on_c, 0, 39, 80
2, 272880, Note_on_c, 0, 70, 101
2, 273123, Note_on_c, 0, 39, 0
2, 273150, Note_on_c, 0, 41, 98
2, 273232, Note_on_c, 0, 41, 0
2, 273240, Note_on_c, 0, 39, 89
2, 273483, Note_on_c, 0, 39, 0
2, 273510, Note_on_c, 0, 70, 0
2, 273510, Note_on_c, 0, 68, 101
2, 273510, Note_on_c, 0, 40, 94
2, 273530, Note_on_c, 0, 55, 0
2, 273530, Note_on_c, 0, 60, 0
2, 273530, Note_on_c, 0, 63, 0
2, 273592, Note_on_c, 0, 40, 0
2, 273600, Note_on_c, 0, 68, 0
2, 273600, Note_on_c, 0, 68, 109
2, 273600, Note_on_c, 0, 56, 108
2, 273600, Note_on_c, 0, 63, 106
2, 273600, Note_on_c, 0, 47, 113
2, 273600, Note_on_c, 0, 39, 91
2, 273843, Note_on_c, 0, 39, 0
2, 273870, Note_on_c, 0, 56, 118
2, 273952, Note_on_c, 0, 56, 0
2, 273960, Note_on_c, 0, 39, 69
2, 274250, Note_on_c, 0, 68, 0
2, 274285, Note_on_c, 0, 39, 0
2, 274320, Note_on_c, 0, 75, 121
2, 274320, Note_on_c, 0, 39, 89
2, 274563, Note_on_c, 0, 39, 0
2, 274590, Note_on_c, 0, 51, 118
2, 274672, Note_on_c, 0, 51, 0
2, 274680, Note_on_c, 0, 39, 74
2, 274923, Note_on_c, 0, 39, 0
2, 274950, Note_on_c, 0, 47, 106
2, 275032, Note_on_c, 0, 47, 0
2, 275040, Note_on_c, 0, 39, 79
2, 275283, Note_on_c, 0, 39, 0
2, 275310, Note_on_c, 0, 51, 113
2, 275392, Note_on_c, 0, 51, 0
2, 275400, Note_on_c, 0, 39, 67
2, 275725, Note_on_c, 0, 39, 0
2, 275760, Note_on_c, 0, 39, 92
2, 276003, Note_on_c, 0, 39, 0
2, 276030, Note_on_c, 0, 47, 108
2, 276112, Note_on_c, 0, 47, 0
2, 276120, Note_on_c, 0, 39, 79
2, 276363, Note_on_c, 0, 39, 0
2, 276390, Note_on_c, 0, 44, 102
2, 276472, Note_on_c, 0, 44, 0
2, 276480, Note_on_c, 0, 39, 81
2, 276723, Note_on_c, 0, 39, 0
2, 276750, Note_on_c, 0, 47, 110
2, 276832, Note_on_c, 0, 47, 0
2, 276840, Note_on_c, 0, 39, 73
2, 277165, Note_on_c, 0, 39, 0
2, 277200, Note_on_c, 0, 39, 91
2, 277443, Note_on_c, 0, 39, 0
2, 277470, Note_on_c, 0, 44, 104
2, 277552, Note_on_c, 0, 44, 0
2, 277560, Note_on_c, 0, 39, 83
2, 277803, Note_on_c, 0, 39, 0
2, 277830, Note_on_c, 0, 42, 97
2, 277850, Note_on_c, 0, 75, 0
2, 277850, Note_on_c, 0, 47, 0
2, 277850, Note_on_c, 0, 56, 0
2, 277850, Note_on_c, 0, 63, 0
2, 277912, Note_on_c, 0, 42, 0
2, 277920, Note_on_c, 0, 69, 96
2, 277920, Note_on_c, 0, 54, 111
2, 277920, Note_on_c, 0, 47, 93
2, 277920, Note_on_c, 0, 39, 88
2, 278004, Note_on_c, 0, 57, 105
2, 278089, Note_on_c, 0, 63, 107
2, 278163, Note_on_c, 0, 39, 0
2, 278190, Note_on_c, 0, 47, 110
2, 278272, Note_on_c, 0, 47, 0
2, 278280, Note_on_c, 0, 39, 74
2, 278605, Note_on_c, 0, 39, 0
2, 278640, Note_on_c, 0, 39, 93
2, 278883, Note_on_c, 0, 39, 0
2, 278910, Note_on_c, 0, 42, 98
2, 278992, Note_on_c, 0, 42, 0
2, 279000, Note_on_c, 0, 39, 87
2, 279243, Note_on_c, 0, 39, 0
2, 279270, Note_on_c, 0, 69, 0
2, 279270, Note_on_c, 0, 70, 115
2, 279270, Note_on_c, 0, 41, 94
2, 279290, Note_on_c, 0, 57, 0
2, 279290, Note_on_c, 0, 63, 0
2, 279290, Note_on_c, 0, 54, 0
2, 279290, Note_on_c, 0, 47, 0
2, 279352, Note_on_c, 0, 41, 0
2, 279360, Note_on_c, 0, 70, 0
2, 279360, Note_on_c, 0, 70, 85
2, 279360, Note_on_c, 0, 54, 77
2, 279360, Note_on_c, 0, 46, 97
2, 279360, Note_on_c, 0, 39, 88
2, 279444, Note_on_c, 0, 58, 73
2, 279529, Note_on_c, 0, 63, 75
2, 279603, Note_on_c, 0, 39, 0
2, 279630, Note_on_c, 0, 41, 95
2, 279712, Note_on_c, 0, 41, 0
2, 279720, Note_on_c, 0, 39, 85
2, 280045, Note_on_c, 0, 39, 0
2, 280080, Note_on_c, 0, 39, 93
2, 280323, Note_on_c, 0, 39, 0
2, 280350, Note_on_c, 0, 46, 110
2, 280432, Note_on_c, 0, 46, 0
2, 280440, Note_on_c, 0, 39, 79
2, 280683, Note_on_c, 0, 39, 0
2, 280710, Note_on_c, 0, 54, 113
2, 280792, Note_on_c, 0, 54, 0
2, 280800, Note_on_c, 0, 46, 0
2, 280800, Note_on_c, 0, 39, 72
2, 281043, Note_on_c, 0, 39, 0
2, 281070, Note_on_c, 0, 47, 105
2, 281152, Note_on_c, 0, 47, 0
2, 281160, Note_on_c, 0, 46, 87
2, 281763, Note_on_c, 0, 46, 0
2, 281790, Note_on_c, 0, 54, 110
2, 281872, Note_on_c, 0, 54, 0
2, 281880, Note_on_c, 0, 46, 79
2, 282123, Note_on_c, 0, 46, 0
2, 282150, Note_on_c, 0, 63, 117
2, 282232, Note_on_c, 0, 63, 0
2, 282240, Note_on_c, 0, 46, 73
2, 282483, Note_on_c, 0, 46, 0
2, 282510, Note_on_c, 0, 53, 104
2, 282592, Note_on_c, 0, 53, 0
2, 282600, Note_on_c, 0, 51, 88
2, 283203, Note_on_c, 0, 51, 0
2, 283230, Note_on_c, 0, 58, 107
2, 283312, Note_on_c, 0, 58, 0
2, 283320, Note_on_c, 0, 51, 81
2, 283563, Note_on_c, 0, 51, 0
2, 283590, Note_on_c, 0, 66, 113
2, 283672, Note_on_c, 0, 66, 0
2, 283680, Note_on_c, 0, 51, 73
2, 283923, Note_on_c, 0, 51, 0
2, 283950, Note_on_c, 0, 66, 114
2, 284032, Note_on_c, 0, 66, 0
2, 284040, Note_on_c, 0, 58, 78
2, 284643, Note_on_c, 0, 58, 0
2, 284670, Note_on_c, 0, 70, 119
2, 284752, Note_on_c, 0, 70, 0
2, 284760, Note_on_c, 0, 63, 82
2, 285050, Note_on_c, 0, 58, 0
2, 285050, Note_on_c, 0, 70, 0
2, 285050, Note_on_c, 0, 54, 0
2, 285050, Note_on_c, 0, 63, 0
2, 285085, Note_on_c, 0, 63, 0
2, 285480, Note_on_c, 0, 75, 95
2, 285480, Note_on_c, 0, 66, 68
2, 285480, Note_on_c, 0, 70, 66
2, 285480, Note_on_c, 0, 54, 82
2, 285480, Note_on_c, 0, 58, 81
2, 285480, Note_on_c, 0, 63, 80
2, 285805, Note_on_c, 0, 63, 0
2, 285805, Note_on_c, 0, 66, 0
2, 285805, Note_on_c, 0, 70, 0
2, 285805, Note_on_c, 0, 54, 0
2, 285805, Note_on_c, 0, 58, 0
2, 285840, Note_on_c, 0, 75, 0
2, 285840, Note_on_c, 0, 73, 99
2, 285840, Note_on_c, 0, 66, 72
2, 285840, Note_on_c, 0, 70, 73
2, 285840, Note_on_c, 0, 53, 84
2, 285840, Note_on_c, 0, 54, 81
2, 285840, Note_on_c, 0, 58, 83
2, 285840, Note_on_c, 0, 61, 84
2, 286490, Note_on_c, 0, 61, 0
2, 286490, Note_on_c, 0, 54, 0
2, 286490, Note_on_c, 0, 66, 0
2, 286490, Note_on_c, 0, 70, 0
2, 286490, Note_on_c, 0, 53, 0
2, 286490, Note_on_c, 0, 58, 0
2, 286560, Note_on_c, 0, 73, 0
2, 286560, Note_on_c, 0, 75, 114
2, 286560, Note_on_c, 0, 66, 88
2, 286560, Note_on_c, 0, 71, 90
2, 286560, Note_on_c, 0, 75, 88
2, 286560, Note_on_c, 0, 51, 101
2, 286560, Note_on_c, 0, 54, 98
2, 286560, Note_on_c, 0, 59, 100
2, 286560, Note_on_c, 0, 63, 100
2, 286920, Note_on_c, 0, 75, 0
2, 286920, Note_on_c, 0, 78, 115
2, 286920, Note_on_c, 0, 39, 80
2, 287930, Note_on_c, 0, 39, 0
2, 288163, Note_on_c, 0, 63, 0
2, 288163, Note_on_c, 0, 51, 0
2, 288163, Note_on_c, 0, 54, 0
2, 288163, Note_on_c, 0, 71, 0
2, 288163, Note_on_c, 0, 75, 0
2, 288163, Note_on_c, 0, 66, 0
2, 288163, Note_on_c, 0, 59, 0
2, 288163, Note_on_c, 0, 78, 0
2, 288360, Note_on_c, 0, 70, 93
2, 288360, Note_on_c, 0, 63, 65
2, 288360, Note_on_c, 0, 66, 64
2, 288360, Note_on_c, 0, 49, 80
2, 288360, Note_on_c, 0, 51, 80
2, 288360, Note_on_c, 0, 54, 80
2, 288360, Note_on_c, 0, 58, 82
2, 288685, Note_on_c, 0, 58, 0
2, 288685, Note_on_c, 0, 51, 0
2, 288685, Note_on_c, 0, 63, 0
2, 288685, Note_on_c, 0, 66, 0
2, 288685, Note_on_c, 0, 49, 0
2, 288685, Note_on_c, 0, 54, 0
2, 288720, Note_on_c, 0, 70, 0
2, 288720, Note_on_c, 0, 68, 70
2, 288720, Note_on_c, 0, 63, 39
2, 288720, Note_on_c, 0, 65, 38
2, 288720, Note_on_c, 0, 47, 84
2, 288720, Note_on_c, 0, 51, 83
2, 288720, Note_on_c, 0, 53, 82
2, 288720, Note_on_c, 0, 56, 85
2, 289370, Note_on_c, 0, 56, 0
2, 289370, Note_on_c, 0, 51, 0
2, 289370, Note_on_c, 0, 63, 0
2, 289370, Note_on_c, 0, 65, 0
2, 289370, Note_on_c, 0, 47, 0
2, 289370, Note_on_c, 0, 53, 0
2, 289440, Note_on_c, 0, 68, 0
2, 289440, Note_on_c, 0, 70, 82
2, 289440, Note_on_c, 0, 63, 51
2, 289440, Note_on_c, 0, 66, 51
2, 289440, Note_on_c, 0, 70, 53
2, 289440, Note_on_c, 0, 46, 98
2, 289440, Note_on_c, 0, 51, 99
2, 289440, Note_on_c, 0, 54, 101
2, 289440, Note_on_c, 0, 58, 98
2, 289800, Note_on_c, 0, 70, 0
2, 289800, Note_on_c, 0, 75, 87
2, 289800, Note_on_c, 0, 39, 79
2, 290810, Note_on_c, 0, 39, 0
2, 291043, Note_on_c, 0, 58, 0
2, 291043, Note_on_c, 0, 46, 0
2, 291043, Note_on_c, 0, 51, 0
2, 291043, Note_on_c, 0, 66, 0
2, 291043, Note_on_c, 0, 70, 0
2, 291043, Note_on_c, 0, 63, 0
2, 291043, Note_on_c, 0, 54, 0
2, 291043, Note_on_c, 0, 75, 0
2, 291240, Note_on_c, 0, 63, 61
2, 291240, Note_on_c, 0, 66, 59
2, 291240, Note_on_c, 0, 58, 36
2, 291240, Note_on_c, 0, 46, 81
2, 291240, Note_on_c, 0, 51, 81
2, 291240, Note_on_c, 0, 54, 81
2, 291565, Note_on_c, 0, 54, 0
2, 291565, Note_on_c, 0, 66, 0
2, 291565, Note_on_c, 0, 58, 0
2, 291565, Note_on_c, 0, 63, 0
2, 291565, Note_on_c, 0, 51, 0
2, 291565, Note_on_c, 0, 46, 0
2, 291600, Note_on_c, 0, 63, 114
2, 291600, Note_on_c, 0, 65, 113
2, 291600, Note_on_c, 0, 57, 86
2, 291600, Note_on_c, 0, 48, 83
2, 291600, Note_on_c, 0, 53, 86
2, 292087, Note_on_c, 0, 57, 0
2, 292140, Note_on_c, 0, 56, 86
2, 292250, Note_on_c, 0, 48, 0
2, 292250, Note_on_c, 0, 53, 0
2, 292303, Note_on_c, 0, 56, 0
2, 292320, Note_on_c, 0, 65, 0
2, 292320, Note_on_c, 0, 63, 0
2, 292320, Note_on_c, 0, 55, 73
2, 292320, Note_on_c, 0, 59, 71
2, 292320, Note_on_c, 0, 64, 73
2, 292320, Note_on_c, 0, 40, 95
2, 292320, Note_on_c, 0, 47, 94
2, 292320, Note_on_c, 0, 52, 94
2, 293563, Note_on_c, 0, 52, 0
2, 293563, Note_on_c, 0, 40, 0
2, 293563, Note_on_c, 0, 47, 0
2, 293580, Note_on_c, 0, 55, 0
2, 293580, Note_on_c, 0, 64, 0
2, 293580, Note_on_c, 0, 59, 0
2, 293580, Note_on_c, 0, 57, 58
2, 293580, Note_on_c, 0, 63, 59
2, 293580, Note_on_c, 0, 71, 59
2, 293580, Note_on_c, 0, 35, 84
2, 293580, Note_on_c, 0, 47, 84
2, 293760, Note_on_c, 0, 35, 0
2, 293760, Note_on_c, 0, 71, 0
2, 293760, Note_on_c, 0, 57, 0
2, 293760, Note_on_c, 0, 63, 0
2, 293760, Note_on_c, 0, 55, 47
2, 293760, Note_on_c, 0, 64, 45
2, 293760, Note_on_c, 0, 67, 48
2, 293760, Note_on_c, 0, 40, 96
2, 295920, Note_on_c, 0, 63, 41
2, 296640, Note_on_c, 0, 63, 0
2, 296640, Note_on_c, 0, 55, 0
2, 296640, Note_on_c, 0, 64, 0
2, 296640, Note_on_c, 0, 67, 0
2, 296640, Note_on_c, 0, 40, 0
2, 296640, Note_on_c, 0, 56, 52
2, 296640, Note_on_c, 0, 63, 52
2, 296640, Note_on_c, 0, 68, 52
2, 297360, Note_on_c, 0, 41, 88
2, 298080, Note_on_c, 0, 41, 0
2, 298080, Note_on_c, 0, 63, 0
2, 298080, Note_on_c, 0, 47, 0
2, 298080, Note_on_c, 0, 56, 21
2, 298080, Note_on_c, 0, 62, 25
2, 298080, Note_on_c, 0, 68, 23
2, 298080, Note_on_c, 0, 34, 38
2, 298080, Note_on_c, 0, 46, 39
2, 298319, Note_on_c, 0, 62, 26
2, 298429, Note_on_c, 0, 62, 0
2, 298440, Note_on_c, 0, 68, 33
2, 298548, Note_on_c, 0, 68, 0
2, 298560, Note_on_c, 0, 65, 26
2, 298655, Note_on_c, 0, 68, 0
2, 298668, Note_on_c, 0, 65, 0
2, 298679, Note_on_c, 0, 62, 26
2, 298789, Note_on_c, 0, 62, 0
2, 298800, Note_on_c, 0, 46, 25
2, 298920, Note_on_c, 0, 62, 25
2, 299028, Note_on_c, 0, 62, 0
2, 299039, Note_on_c, 0, 65, 31
2, 299149, Note_on_c, 0, 65, 0
2, 299160, Note_on_c, 0, 70, 32
2, 299160, Note_on_c, 0, 70, 32
2, 299268, Note_on_c, 0, 70, 0
2, 299280, Note_on_c, 0, 65, 27
2, 299375, Note_on_c, 0, 70, 0
2, 299388, Note_on_c, 0, 65, 0
2, 299399, Note_on_c, 0, 62, 26
2, 299450, Note_on_c, 0, 62, 0
2, 299450, Note_on_c, 0, 34, 0
2, 299450, Note_on_c, 0, 46, 0
2, 299450, Note_on_c, 0, 68, 0
2, 299450, Note_on_c, 0, 56, 0
2, 299450, Note_on_c, 0, 46, 0
2, 299509, Note_on_c, 0, 62, 0
2, 299520, Note_on_c, 0, 56, 50
2, 299640, Note_on_c, 0, 62, 24
2, 299748, Note_on_c, 0, 62, 0
2, 299759, Note_on_c, 0, 65, 31
2, 299869, Note_on_c, 0, 65, 0
2, 299880, Note_on_c, 0, 68, 29
2, 299880, Note_on_c, 0, 68, 31
2, 299988, Note_on_c, 0, 68, 0
2, 300000, Note_on_c, 0, 65, 28
2, 300095, Note_on_c, 0, 68, 0
2, 300108, Note_on_c, 0, 65, 0
2, 300119, Note_on_c, 0, 62, 25
2, 300229, Note_on_c, 0, 62, 0
2, 300240, Note_on_c, 0, 46, 26
2, 300360, Note_on_c, 0, 62, 25
2, 300468, Note_on_c, 0, 62, 0
2, 300479, Note_on_c, 0, 65, 33
2, 300589, Note_on_c, 0, 65, 0
2, 300600, Note_on_c, 0, 70, 29
2, 300600, Note_on_c, 0, 70, 33
2, 300708, Note_on_c, 0, 70, 0
2, 300720, Note_on_c, 0, 65, 24
2, 300815, Note_on_c, 0, 70, 0
2, 300828, Note_on_c, 0, 65, 0
2, 300839, Note_on_c, 0, 62, 26
2, 300890, Note_on_c, 0, 46, 0
2, 300949, Note_on_c, 0, 62, 0
2, 300960, Note_on_c, 0, 56, 0
2, 300960, Note_on_c, 0, 56, 39
2, 301080, Note_on_c, 0, 62, 25
2, 301188, Note_on_c, 0, 62, 0
2, 301199, Note_on_c, 0, 65, 34
2, 301309, Note_on_c, 0, 65, 0
2, 301320, Note_on_c, 0, 68, 29
2, 301320, Note_on_c, 0, 68, 32
2, 301428, Note_on_c, 0, 68, 0
2, 301440, Note_on_c, 0, 65, 28
2, 301535, Note_on_c, 0, 68, 0
2, 301548, Note_on_c, 0, 65, 0
2, 301559, Note_on_c, 0, 62, 24
2, 301669, Note_on_c, 0, 62, 0
2, 301680, Note_on_c, 0, 46, 27
2, 301800, Note_on_c, 0, 62, 26
2, 301908, Note_on_c, 0, 62, 0
2, 301919, Note_on_c, 0, 65, 31
2, 302029, Note_on_c, 0, 65, 0
2, 302040, Note_on_c, 0, 70, 30
2, 302040, Note_on_c, 0, 70, 33
2, 302148, Note_on_c, 0, 70, 0
2, 302160, Note_on_c, 0, 65, 27
2, 302255, Note_on_c, 0, 70, 0
2, 302268, Note_on_c, 0, 65, 0
2, 302279, Note_on_c, 0, 62, 26
2, 302330, Note_on_c, 0, 46, 0
2, 302389, Note_on_c, 0, 62, 0
2, 302400, Note_on_c, 0, 56, 0
2, 302400, Note_on_c, 0, 77, 75
2, 302400, Note_on_c, 0, 56, 39
2, 302520, Note_on_c, 0, 62, 28
2, 302628, Note_on_c, 0, 62, 0
2, 302639, Note_on_c, 0, 65, 32
2, 302749, Note_on_c, 0, 65, 0
2, 302760, Note_on_c, 0, 68, 29
2, 302760, Note_on_c, 0, 68, 33
2, 302868, Note_on_c, 0, 68, 0
2, 302880, Note_on_c, 0, 65, 28
2, 302975, Note_on_c, 0, 68, 0
2, 302988, Note_on_c, 0, 65, 0
2, 302999, Note_on_c, 0, 62, 25
2, 303109, Note_on_c, 0, 62, 0
2, 303120, Note_on_c, 0, 46, 25
2, 303240, Note_on_c, 0, 62, 28
2, 303348, Note_on_c, 0, 62, 0
2, 303359, Note_on_c, 0, 65, 31
2, 303469, Note_on_c, 0, 65, 0
2, 303480, Note_on_c, 0, 70, 32
2, 303480, Note_on_c, 0, 70, 33
2, 303588, Note_on_c, 0, 70, 0
2, 303600, Note_on_c, 0, 65, 24
2, 303643, Note_on_c, 0, 77, 0
2, 303660, Note_on_c, 0, 78, 64
2, 303695, Note_on_c, 0, 70, 0
2, 303708, Note_on_c, 0, 65, 0
2, 303719, Note_on_c, 0, 62, 25
2, 303770, Note_on_c, 0, 46, 0
2, 303829, Note_on_c, 0, 62, 0
2, 303840, Note_on_c, 0, 56, 0
2, 303840, Note_on_c, 0, 78, 0
2, 303840, Note_on_c, 0, 78, 66
2, 303840, Note_on_c, 0, 54, 37
2, 303960, Note_on_c, 0, 58, 27
2, 304068, Note_on_c, 0, 58, 0
2, 304079, Note_on_c, 0, 61, 31
2, 304189, Note_on_c, 0, 61, 0
2, 304200, Note_on_c, 0, 68, 27
2, 304200, Note_on_c, 0, 68, 38
2, 304308, Note_on_c, 0, 68, 0
2, 304320, Note_on_c, 0, 61, 24
2, 304415, Note_on_c, 0, 68, 0
2, 304428, Note_on_c, 0, 61, 0
2, 304439, Note_on_c, 0, 58, 26
2, 304549, Note_on_c, 0, 58, 0
2, 304560, Note_on_c, 0, 46, 25
2, 304680, Note_on_c, 0, 58, 26
2, 304788, Note_on_c, 0, 58, 0
2, 304799, Note_on_c, 0, 61, 31
2, 304909, Note_on_c, 0, 61, 0
2, 304920, Note_on_c, 0, 70, 31
2, 304920, Note_on_c, 0, 70, 38
2, 305028, Note_on_c, 0, 70, 0
2, 305040, Note_on_c, 0, 61, 24
2, 305135, Note_on_c, 0, 70, 0
2, 305148, Note_on_c, 0, 61, 0
2, 305159, Note_on_c, 0, 58, 26
2, 305210, Note_on_c, 0, 46, 0
2, 305269, Note_on_c, 0, 58, 0
2, 305280, Note_on_c, 0, 54, 0
2, 305280, Note_on_c, 0, 78, 0
2, 305280, Note_on_c, 0, 82, 73
2, 305280, Note_on_c, 0, 54, 38
2, 305400, Note_on_c, 0, 58, 27
2, 305508, Note_on_c, 0, 58, 0
2, 305519, Note_on_c, 0, 61, 33
2, 305629, Note_on_c, 0, 61, 0
2, 305640, Note_on_c, 0, 68, 26
2, 305640, Note_on_c, 0, 68, 38
2, 305748, Note_on_c, 0, 68, 0
2, 305760, Note_on_c, 0, 61, 25
2, 305855, Note_on_c, 0, 68, 0
2, 305868, Note_on_c, 0, 61, 0
2, 305879, Note_on_c, 0, 58, 27
2, 305989, Note_on_c, 0, 58, 0
2, 306000, Note_on_c, 0, 46, 27
2, 306120, Note_on_c, 0, 58, 28
2, 306228, Note_on_c, 0, 58, 0
2, 306239, Note_on_c, 0, 61, 30
2, 306349, Note_on_c, 0, 61, 0
2, 306360, Note_on_c, 0, 70, 31
2, 306360, Note_on_c, 0, 70, 35
2, 306468, Note_on_c, 0, 70, 0
2, 306480, Note_on_c, 0, 61, 23
2, 306575, Note_on_c, 0, 70, 0
2, 306588, Note_on_c, 0, 61, 0
2, 306599, Note_on_c, 0, 58, 24
2, 306650, Note_on_c, 0, 46, 0
2, 306709, Note_on_c, 0, 58, 0
2, 306720, Note_on_c, 0, 54, 0
2, 306720, Note_on_c, 0, 82, 0
2, 306720, Note_on_c, 0, 54, 37
2, 306840, Note_on_c, 0, 59, 25
2, 306948, Note_on_c, 0, 59, 0
2, 306959, Note_on_c, 0, 63, 34
2, 307069, Note_on_c, 0, 63, 0
2, 307080, Note_on_c, 0, 68, 27
2, 307080, Note_on_c, 0, 68, 35
2, 307188, Note_on_c, 0, 68, 0
2, 307200, Note_on_c, 0, 63, 27
2, 307295, Note_on_c, 0, 68, 0
2, 307308, Note_on_c, 0, 63, 0
2, 307319, Note_on_c, 0, 59, 25
2, 307429, Note_on_c, 0, 59, 0
2, 307440, Note_on_c, 0, 46, 27
2, 307560, Note_on_c, 0, 59, 26
2, 307668, Note_on_c, 0, 59, 0
2, 307679, Note_on_c, 0, 63, 32
2, 307789, Note_on_c, 0, 63, 0
2, 307800, Note_on_c, 0, 70, 30
2, 307800, Note_on_c, 0, 70, 36
2, 307908, Note_on_c, 0, 70, 0
2, 307920, Note_on_c, 0, 63, 24
2, 308015, Note_on_c, 0, 70, 0
2, 308028, Note_on_c, 0, 63, 0
2, 308039, Note_on_c, 0, 59, 23
2, 308090, Note_on_c, 0, 46, 0
2, 308149, Note_on_c, 0, 59, 0
2, 308160, Note_on_c, 0, 54, 0
2, 308160, Note_on_c, 0, 75, 55
2, 308160, Note_on_c, 0, 54, 38
2, 308280, Note_on_c, 0, 59, 27
2, 308388, Note_on_c, 0, 59, 0
2, 308399, Note_on_c, 0, 63, 31
2, 308509, Note_on_c, 0, 63, 0
2, 308520, Note_on_c, 0, 68, 30
2, 308520, Note_on_c, 0, 68, 33
2, 308628, Note_on_c, 0, 68, 0
2, 308640, Note_on_c, 0, 63, 25
2, 308735, Note_on_c, 0, 68, 0
2, 308748, Note_on_c, 0, 63, 0
2, 308759, Note_on_c, 0, 59, 26
2, 308869, Note_on_c, 0, 59, 0
2, 308880, Note_on_c, 0, 46, 25
2, 309000, Note_on_c, 0, 59, 27
2, 309108, Note_on_c, 0, 59, 0
2, 309119, Note_on_c, 0, 63, 34
2, 309229, Note_on_c, 0, 63, 0
2, 309240, Note_on_c, 0, 70, 32
2, 309240, Note_on_c, 0, 70, 37
2, 309348, Note_on_c, 0, 70, 0
2, 309360, Note_on_c, 0, 63, 24
2, 309403, Note_on_c, 0, 75, 0
2, 309420, Note_on_c, 0, 77, 64
2, 309455, Note_on_c, 0, 70, 0
2, 309468, Note_on_c, 0, 63, 0
2, 309479, Note_on_c, 0, 59, 24
2, 309530, Note_on_c, 0, 46, 0
2, 309589, Note_on_c, 0, 59, 0
2, 309600, Note_on_c, 0, 54, 0
2, 309600, Note_on_c, 0, 77, 0
2, 309600, Note_on_c, 0, 77, 64
2, 309600, Note_on_c, 0, 53, 35
2, 309720, Note_on_c, 0, 61, 27
2, 309828, Note_on_c, 0, 61, 0
2, 309839, Note_on_c, 0, 65, 34
2, 309949, Note_on_c, 0, 65, 0
2, 309960, Note_on_c, 0, 68, 30
2, 309960, Note_on_c, 0, 68, 34
2, 310068, Note_on_c, 0, 68, 0
2, 310080, Note_on_c, 0, 65, 26
2, 310175, Note_on_c, 0, 68, 0
2, 310188, Note_on_c, 0, 65, 0
2, 310199, Note_on_c, 0, 61, 23
2, 310309, Note_on_c, 0, 61, 0
2, 310320, Note_on_c, 0, 46, 25
2, 310440, Note_on_c, 0, 61, 25
2, 310548, Note_on_c, 0, 61, 0
2, 310559, Note_on_c, 0, 65, 33
2, 310669, Note_on_c, 0, 65, 0
2, 310680, Note_on_c, 0, 70, 33
2, 310680, Note_on_c, 0, 70, 35
2, 310788, Note_on_c, 0, 70, 0
2, 310800, Note_on_c, 0, 65, 26
2, 310895, Note_on_c, 0, 70, 0
2, 310908, Note_on_c, 0, 65, 0
2, 310919, Note_on_c, 0, 61, 24
2, 310970, Note_on_c, 0, 46, 0
2, 311029, Note_on_c, 0, 61, 0
2, 311040, Note_on_c, 0, 53, 0
2, 311040, Note_on_c, 0, 77, 0
2, 311040, Note_on_c, 0, 82, 72
2, 311040, Note_on_c, 0, 53, 38
2, 311160, Note_on_c, 0, 61, 25
2, 311268, Note_on_c, 0, 61, 0
2, 311279, Note_on_c, 0, 65, 35
2, 311389, Note_on_c, 0, 65, 0
2, 311400, Note_on_c, 0, 68, 26
2, 311400, Note_on_c, 0, 68, 32
2, 311508, Note_on_c, 0, 68, 0
2, 311520, Note_on_c, 0, 65, 26
2, 311615, Note_on_c, 0, 68, 0
2, 311628, Note_on_c, 0, 65, 0
2, 311639, Note_on_c, 0, 61, 25
2, 311749, Note_on_c, 0, 61, 0
2, 311760, Note_on_c, 0, 46, 25
2, 311880, Note_on_c, 0, 61, 26
2, 311988, Note_on_c, 0, 61, 0
2, 311999, Note_on_c, 0, 65, 33
2, 312109, Note_on_c, 0, 65, 0
2, 312120, Note_on_c, 0, 70, 32
2, 312120, Note_on_c, 0, 70, 34
2, 312228, Note_on_c, 0, 70, 0
2, 312240, Note_on_c, 0, 65, 27
2, 312335, Note_on_c, 0, 70, 0
2, 312348, Note_on_c, 0, 65, 0
2, 312359, Note_on_c, 0, 61, 24
2, 312410, Note_on_c, 0, 46, 0
2, 312469, Note_on_c, 0, 61, 0
2, 312480, Note_on_c, 0, 53, 0
2, 312480, Note_on_c, 0, 82, 0
2, 312480, Note_on_c, 0, 52, 38
2, 312600, Note_on_c, 0, 58, 25
2, 312708, Note_on_c, 0, 58, 0
2, 312719, Note_on_c, 0, 61, 31
2, 312829, Note_on_c, 0, 61, 0
2, 312840, Note_on_c, 0, 68, 29
2, 312840, Note_on_c, 0, 68, 35
2, 312840, Note_on_c, 0, 82, 55
2, 312948, Note_on_c, 0, 68, 0
2, 312960, Note_on_c, 0, 61, 24
2, 313055, Note_on_c, 0, 68, 0
2, 313068, Note_on_c, 0, 61, 0
2, 313079, Note_on_c, 0, 58, 27
2, 313189, Note_on_c, 0, 58, 0
2, 313200, Note_on_c, 0, 46, 26
2, 313320, Note_on_c, 0, 58, 24
2, 313428, Note_on_c, 0, 58, 0
2, 313439, Note_on_c, 0, 61, 33
2, 313549, Note_on_c, 0, 61, 0
2, 313560, Note_on_c, 0, 82, 0
2, 313560, Note_on_c, 0, 70, 43
2, 313560, Note_on_c, 0, 70, 55
2, 313560, Note_on_c, 0, 80, 62
2, 313668, Note_on_c, 0, 70, 0
2, 313680, Note_on_c, 0, 61, 35
2, 313775, Note_on_c, 0, 70, 0
2, 313788, Note_on_c, 0, 61, 0
2, 313799, Note_on_c, 0, 58, 36
2, 313850, Note_on_c, 0, 46, 0
2, 313885, Note_on_c, 0, 80, 0
2, 313909, Note_on_c, 0, 58, 0
2, 313920, Note_on_c, 0, 52, 0
2, 313920, Note_on_c, 0, 82, 73
2, 313920, Note_on_c, 0, 52, 36
2, 314040, Note_on_c, 0, 58, 37
2, 314148, Note_on_c, 0, 58, 0
2, 314159, Note_on_c, 0, 61, 45
2, 314269, Note_on_c, 0, 61, 0
2, 314280, Note_on_c, 0, 68, 38
2, 314280, Note_on_c, 0, 68, 54
2, 314388, Note_on_c, 0, 68, 0
2, 314400, Note_on_c, 0, 61, 35
2, 314495, Note_on_c, 0, 68, 0
2, 314508, Note_on_c, 0, 61, 0
2, 314519, Note_on_c, 0, 58, 36
2, 314629, Note_on_c, 0, 58, 0
2, 314640, Note_on_c, 0, 46, 25
2, 314760, Note_on_c, 0, 58, 37
2, 314868, Note_on_c, 0, 58, 0
2, 314879, Note_on_c, 0, 61, 46
2, 314930, Note_on_c, 0, 82, 0
2, 314989, Note_on_c, 0, 61, 0
2, 315000, Note_on_c, 0, 70, 46
2, 315000, Note_on_c, 0, 70, 54
2, 315000, Note_on_c, 0, 85, 76
2, 315108, Note_on_c, 0, 70, 0
2, 315120, Note_on_c, 0, 61, 33
2, 315215, Note_on_c, 0, 70, 0
2, 315228, Note_on_c, 0, 61, 0
2, 315239, Note_on_c, 0, 58, 36
2, 315290, Note_on_c, 0, 46, 0
2, 315325, Note_on_c, 0, 85, 0
2, 315349, Note_on_c, 0, 58, 0
2, 315360, Note_on_c, 0, 52, 0
2, 315360, Note_on_c, 0, 94, 80
2, 315360, Note_on_c, 0, 51, 39
2, 315480, Note_on_c, 0, 58, 25
2, 315588, Note_on_c, 0, 58, 0
2, 315599, Note_on_c, 0, 61, 33
2, 315709, Note_on_c, 0, 61, 0
2, 315720, Note_on_c, 0, 67, 26
2, 315720, Note_on_c, 0, 67, 36
2, 315828, Note_on_c, 0, 67, 0
2, 315840, Note_on_c, 0, 61, 26
2, 315935, Note_on_c, 0, 67, 0
2, 315948, Note_on_c, 0, 61, 0
2, 315959, Note_on_c, 0, 58, 27
2, 316069, Note_on_c, 0, 58, 0
2, 316080, Note_on_c, 0, 46, 27
2, 316200, Note_on_c, 0, 58, 24
2, 316308, Note_on_c, 0, 58, 0
2, 316319, Note_on_c, 0, 61, 30
2, 316429, Note_on_c, 0, 61, 0
2, 316440, Note_on_c, 0, 70, 30
2, 316440, Note_on_c, 0, 70, 38
2, 316548, Note_on_c, 0, 70, 0
2, 316560, Note_on_c, 0, 61, 23
2, 316655, Note_on_c, 0, 70, 0
2, 316668, Note_on_c, 0, 61, 0
2, 316679, Note_on_c, 0, 58, 25
2, 316730, Note_on_c, 0, 46, 0
2, 316789, Note_on_c, 0, 58, 0
2, 316800, Note_on_c, 0, 51, 0
2, 316800, Note_on_c, 0, 94, 0
2, 316800, Note_on_c, 0, 87, 54
2, 316800, Note_on_c, 0, 51, 39
2, 316920, Note_on_c, 0, 58, 25
2, 317028, Note_on_c, 0, 58, 0
2, 317039, Note_on_c, 0, 61, 32
2, 317149, Note_on_c, 0, 61, 0
2, 317160, Note_on_c, 0, 67, 25
2, 317160, Note_on_c, 0, 67, 34
2, 317268, Note_on_c, 0, 67, 0
2, 317280, Note_on_c, 0, 61, 26
2, 317375, Note_on_c, 0, 67, 0
2, 317388, Note_on_c, 0, 61, 0
2, 317399, Note_on_c, 0, 58, 28
2, 317509, Note_on_c, 0, 58, 0
2, 317520, Note_on_c, 0, 46, 27
2, 317640, Note_on_c, 0, 58, 27
2, 317748, Note_on_c, 0, 58, 0
2, 317759, Note_on_c, 0, 61, 33
2, 317869, Note_on_c, 0, 61, 0
2, 317880, Note_on_c, 0, 70, 32
2, 317880, Note_on_c, 0, 70, 38
2, 317988, Note_on_c, 0, 70, 0
2, 318000, Note_on_c, 0, 61, 24
2, 318095, Note_on_c, 0, 70, 0
2, 318108, Note_on_c, 0, 61, 0
2, 318119, Note_on_c, 0, 58, 26
2, 318170, Note_on_c, 0, 46, 0
2, 318229, Note_on_c, 0, 58, 0
2, 318240, Note_on_c, 0, 51, 0
2, 318240, Note_on_c, 0, 87, 0
2, 318240, Note_on_c, 0, 51, 41
2, 318360, Note_on_c, 0, 58, 26
2, 318468, Note_on_c, 0, 58, 0
2, 318479, Note_on_c, 0, 61, 31
2, 318589, Note_on_c, 0, 61, 0
2, 318600, Note_on_c, 0, 66, 25
2, 318600, Note_on_c, 0, 66, 33
2, 318708, Note_on_c, 0, 66, 0
2, 318720, Note_on_c, 0, 61, 27
2, 318815, Note_on_c, 0, 66, 0
2, 318828, Note_on_c, 0, 61, 0
2, 318839, Note_on_c, 0, 58, 27
2, 318949, Note_on_c, 0, 58, 0
2, 318960, Note_on_c, 0, 46, 26
2, 319080, Note_on_c, 0, 58, 26
2, 319188, Note_on_c, 0, 58, 0
2, 319199, Note_on_c, 0, 61, 32
2, 319309, Note_on_c, 0, 61, 0
2, 319320, Note_on_c, 0, 70, 32
2, 319320, Note_on_c, 0, 70, 36
2, 319428, Note_on_c, 0, 70, 0
2, 319440, Note_on_c, 0, 61, 21
2, 319535, Note_on_c, 0, 70, 0
2, 319548, Note_on_c, 0, 61, 0
2, 319559, Note_on_c, 0, 58, 24
2, 319610, Note_on_c, 0, 46, 0
2, 319669, Note_on_c, 0, 58, 0
2, 319680, Note_on_c, 0, 51, 0
2, 319680, Note_on_c, 0, 82, 52
2, 319680, Note_on_c, 0, 52, 40
2, 319800, Note_on_c, 0, 58, 26
2, 319908, Note_on_c, 0, 58, 0
2, 319919, Note_on_c, 0, 60, 29
2, 320029, Note_on_c, 0, 60, 0
2, 320040, Note_on_c, 0, 66, 26
2, 320040, Note_on_c, 0, 66, 37
2, 320148, Note_on_c, 0, 66, 0
2, 320160, Note_on_c, 0, 60, 24
2, 320255, Note_on_c, 0, 66, 0
2, 320268, Note_on_c, 0, 60, 0
2, 320279, Note_on_c, 0, 58, 26
2, 320389, Note_on_c, 0, 58, 0
2, 320400, Note_on_c, 0, 46, 24
2, 320520, Note_on_c, 0, 58, 25
2, 320628, Note_on_c, 0, 58, 0
2, 320639, Note_on_c, 0, 60, 32
2, 320749, Note_on_c, 0, 60, 0
2, 320760, Note_on_c, 0, 82, 0
2, 320760, Note_on_c, 0, 70, 32
2, 320760, Note_on_c, 0, 70, 37
2, 320760, Note_on_c, 0, 82, 61
2, 320868, Note_on_c, 0, 70, 0
2, 320880, Note_on_c, 0, 60, 24
2, 320975, Note_on_c, 0, 70, 0
2, 320988, Note_on_c, 0, 60, 0
2, 320999, Note_on_c, 0, 58, 25
2, 321050, Note_on_c, 0, 46, 0
2, 321109, Note_on_c, 0, 58, 0
2, 321120, Note_on_c, 0, 52, 0
2, 321120, Note_on_c, 0, 82, 0
2, 321120, Note_on_c, 0, 82, 65
2, 321120, Note_on_c, 0, 53, 42
2, 321240, Note_on_c, 0, 58, 26
2, 321348, Note_on_c, 0, 58, 0
2, 321359, Note_on_c, 0, 61, 31
2, 321469, Note_on_c, 0, 61, 0
2, 321480, Note_on_c, 0, 68, 30
2, 321480, Note_on_c, 0, 68, 36
2, 321588, Note_on_c, 0, 68, 0
2, 321600, Note_on_c, 0, 61, 22
2, 321695, Note_on_c, 0, 68, 0
2, 321708, Note_on_c, 0, 61, 0
2, 321719, Note_on_c, 0, 58, 27
2, 321829, Note_on_c, 0, 58, 0
2, 321840, Note_on_c, 0, 46, 26
2, 321960, Note_on_c, 0, 58, 27
2, 322068, Note_on_c, 0, 58, 0
2, 322079, Note_on_c, 0, 61, 33
2, 322189, Note_on_c, 0, 61, 0
2, 322200, Note_on_c, 0, 70, 33
2, 322200, Note_on_c, 0, 70, 35
2, 322308, Note_on_c, 0, 70, 0
2, 322320, Note_on_c, 0, 61, 23
2, 322415, Note_on_c, 0, 70, 0
2, 322428, Note_on_c, 0, 61, 0
2, 322439, Note_on_c, 0, 58, 26
2, 322490, Note_on_c, 0, 46, 0
2, 322549, Note_on_c, 0, 58, 0
2, 322560, Note_on_c, 0, 53, 0
2, 322560, Note_on_c, 0, 82, 0
2, 322560, Note_on_c, 0, 85, 69
2, 322560, Note_on_c, 0, 53, 41
2, 322680, Note_on_c, 0, 58, 25
2, 322788, Note_on_c, 0, 58, 0
2, 322799, Note_on_c, 0, 61, 33
2, 322909, Note_on_c, 0, 61, 0
2, 322920, Note_on_c, 0, 68, 26
2, 322920, Note_on_c, 0, 68, 34
2, 323028, Note_on_c, 0, 68, 0
2, 323040, Note_on_c, 0, 61, 24
2, 323135, Note_on_c, 0, 68, 0
2, 323148, Note_on_c, 0, 61, 0
2, 323159, Note_on_c, 0, 58, 26
2, 323269, Note_on_c, 0, 58, 0
2, 323280, Note_on_c, 0, 46, 27
2, 323400, Note_on_c, 0, 58, 27
2, 323508, Note_on_c, 0, 58, 0
2, 323519, Note_on_c, 0, 61, 32
2, 323629, Note_on_c, 0, 61, 0
2, 323640, Note_on_c, 0, 70, 31
2, 323640, Note_on_c, 0, 70, 38
2, 323748, Note_on_c, 0, 70, 0
2, 323760, Note_on_c, 0, 61, 24
2, 323855, Note_on_c, 0, 70, 0
2, 323868, Note_on_c, 0, 61, 0
2, 323879, Note_on_c, 0, 58, 25
2, 323930, Note_on_c, 0, 46, 0
2, 323989, Note_on_c, 0, 58, 0
2, 324000, Note_on_c, 0, 53, 0
2, 324000, Note_on_c, 0, 53, 38
2, 324120, Note_on_c, 0, 58, 25
2, 324228, Note_on_c, 0, 58, 0
2, 324239, Note_on_c, 0, 61, 32
2, 324349, Note_on_c, 0, 61, 0
2, 324360, Note_on_c, 0, 68, 28
2, 324360, Note_on_c, 0, 68, 36
2, 324468, Note_on_c, 0, 68, 0
2, 324480, Note_on_c, 0, 61, 25
2, 324575, Note_on_c, 0, 68, 0
2, 324588, Note_on_c, 0, 61, 0
2, 324599, Note_on_c, 0, 58, 26
2, 324709, Note_on_c, 0, 58, 0
2, 324720, Note_on_c, 0, 46, 27
2, 324840, Note_on_c, 0, 58, 27
2, 324948, Note_on_c, 0, 58, 0
2, 324959, Note_on_c, 0, 61, 34
2, 325069, Note_on_c, 0, 61, 0
2, 325080, Note_on_c, 0, 70, 30
2, 325080, Note_on_c, 0, 70, 36
2, 325188, Note_on_c, 0, 70, 0
2, 325200, Note_on_c, 0, 61, 23
2, 325295, Note_on_c, 0, 70, 0
2, 325308, Note_on_c, 0, 61, 0
2, 325319, Note_on_c, 0, 58, 26
2, 325370, Note_on_c, 0, 85, 0
2, 325370, Note_on_c, 0, 46, 0
2, 325429, Note_on_c, 0, 58, 0
2, 325440, Note_on_c, 0, 53, 0
2, 325440, Note_on_c, 0, 54, 40
2, 325560, Note_on_c, 0, 58, 27
2, 325668, Note_on_c, 0, 58, 0
2, 325679, Note_on_c, 0, 61, 31
2, 325789, Note_on_c, 0, 61, 0
2, 325800, Note_on_c, 0, 68, 28
2, 325800, Note_on_c, 0, 68, 36
2, 325908, Note_on_c, 0, 68, 0
2, 325920, Note_on_c, 0, 61, 23
2, 326015, Note_on_c, 0, 68, 0
2, 326028, Note_on_c, 0, 61, 0
2, 326039, Note_on_c, 0, 58, 27
2, 326149, Note_on_c, 0, 58, 0
2, 326160, Note_on_c, 0, 46, 26
2, 326280, Note_on_c, 0, 58, 26
2, 326388, Note_on_c, 0, 58, 0
2, 326399, Note_on_c, 0, 61, 30
2, 326485, Note_on_c, 0, 46, 0
2, 326509, Note_on_c, 0, 61, 0
2, 326520, Note_on_c, 0, 70, 29
2, 326520, Note_on_c, 0, 70, 36
2, 326520, Note_on_c, 0, 46, 33
2, 326628, Note_on_c, 0, 46, 0
2, 326628, Note_on_c, 0, 70, 0
2, 326640, Note_on_c, 0, 61, 49
2, 326640, Note_on_c, 0, 47, 32
2, 326735, Note_on_c, 0, 70, 0
2, 326748, Note_on_c, 0, 61, 0
2, 326748, Note_on_c, 0, 47, 0
2, 326759, Note_on_c, 0, 58, 80
2, 326759, Note_on_c, 0, 48, 30
2, 326869, Note_on_c, 0, 48, 0
2, 326869, Note_on_c, 0, 58, 0
2, 326880, Note_on_c, 0, 54, 0
2, 326880, Note_on_c, 0, 56, 0
2, 326880, Note_on_c, 0, 49, 100
2, 326880, Note_on_c, 0, 36, 67
2, 327205, Note_on_c, 0, 49, 0
2, 327240, Note_on_c, 0, 48, 88
2, 327403, Note_on_c, 0, 48, 0
2, 327510, Note_on_c, 0, 48, 70
2, 327592, Note_on_c, 0, 48, 0
2, 327600, Note_on_c, 0, 49, 74
2, 327925, Note_on_c, 0, 49, 0
2, 327960, Note_on_c, 0, 46, 45
2, 328123, Note_on_c, 0, 46, 0
2, 328230, Note_on_c, 0, 46, 38
2, 328312, Note_on_c, 0, 46, 0
2, 328320, Note_on_c, 0, 73, 73
2, 328320, Note_on_c, 0, 48, 79
2, 328645, Note_on_c, 0, 48, 0
2, 328680, Note_on_c, 0, 44, 67
2, 328843, Note_on_c, 0, 44, 0
2, 328950, Note_on_c, 0, 44, 65
2, 329032, Note_on_c, 0, 44, 0
2, 329040, Note_on_c, 0, 46, 80
2, 329365, Note_on_c, 0, 46, 0
2, 329400, Note_on_c, 0, 44, 70
2, 329563, Note_on_c, 0, 44, 0
2, 329670, Note_on_c, 0, 44, 65
2, 329752, Note_on_c, 0, 44, 0
2, 329760, Note_on_c, 0, 46, 78
2, 330085, Note_on_c, 0, 46, 0
2, 330120, Note_on_c, 0, 43, 66
2, 330283, Note_on_c, 0, 43, 0
2, 330390, Note_on_c, 0, 43, 64
2, 330410, Note_on_c, 0, 73, 0
2, 330472, Note_on_c, 0, 43, 0
2, 330480, Note_on_c, 0, 70, 74
2, 330480, Note_on_c, 0, 44, 78
2, 330805, Note_on_c, 0, 44, 0
2, 330840, Note_on_c, 0, 41, 64
2, 331003, Note_on_c, 0, 41, 0
2, 331110, Note_on_c, 0, 41, 58
2, 331192, Note_on_c, 0, 41, 0
2, 331200, Note_on_c, 0, 43, 69
2, 331525, Note_on_c, 0, 43, 0
2, 331560, Note_on_c, 0, 40, 53
2, 331723, Note_on_c, 0, 40, 0
2, 331830, Note_on_c, 0, 40, 47
2, 331850, Note_on_c, 0, 70, 0
2, 331912, Note_on_c, 0, 40, 0
2, 331920, Note_on_c, 0, 67, 54
2, 331920, Note_on_c, 0, 41, 55
2, 332245, Note_on_c, 0, 41, 0
2, 332280, Note_on_c, 0, 38, 43
2, 332443, Note_on_c, 0, 38, 0
2, 332550, Note_on_c, 0, 38, 37
2, 332570, Note_on_c, 0, 36, 0
2, 332632, Note_on_c, 0, 38, 0
2, 332640, Note_on_c, 0, 40, 43
2, 332640, Note_on_c, 0, 36, 52
2, 332965, Note_on_c, 0, 36, 0
2, 332965, Note_on_c, 0, 40, 0
2, 333000, Note_on_c, 0, 35, 38
2, 333163, Note_on_c, 0, 35, 0
2, 333270, Note_on_c, 0, 35, 39
2, 333352, Note_on_c, 0, 35, 0
2, 333360, Note_on_c, 0, 67, 0
2, 333360, Note_on_c, 0, 64, 23
2, 333360, Note_on_c, 0, 36, 46
2, 333599, Note_on_c, 0, 67, 25
2, 333685, Note_on_c, 0, 36, 0
2, 333709, Note_on_c, 0, 67, 0
2, 333720, Note_on_c, 0, 70, 24
2, 333720, Note_on_c, 0, 70, 31
2, 333828, Note_on_c, 0, 70, 0
2, 333840, Note_on_c, 0, 67, 28
2, 333935, Note_on_c, 0, 70, 0
2, 333948, Note_on_c, 0, 67, 0
2, 333959, Note_on_c, 0, 64, 25
2, 334069, Note_on_c, 0, 64, 0
2, 334080, Note_on_c, 0, 48, 37
2, 334200, Note_on_c, 0, 64, 26
2, 334308, Note_on_c, 0, 64, 0
2, 334319, Note_on_c, 0, 67, 33
2, 334429, Note_on_c, 0, 67, 0
2, 334440, Note_on_c, 0, 72, 26
2, 334440, Note_on_c, 0, 72, 34
2, 334548, Note_on_c, 0, 72, 0
2, 334560, Note_on_c, 0, 67, 27
2, 334655, Note_on_c, 0, 72, 0
2, 334668, Note_on_c, 0, 67, 0
2, 334679, Note_on_c, 0, 64, 25
2, 334730, Note_on_c, 0, 64, 0
2, 334730, Note_on_c, 0, 48, 0
2, 334789, Note_on_c, 0, 64, 0
2, 334800, Note_on_c, 0, 58, 53
2, 334920, Note_on_c, 0, 64, 28
2, 335028, Note_on_c, 0, 64, 0
2, 335039, Note_on_c, 0, 67, 34
2, 335149, Note_on_c, 0, 67, 0
2, 335160, Note_on_c, 0, 70, 28
2, 335160, Note_on_c, 0, 70, 35
2, 335268, Note_on_c, 0, 70, 0
2, 335280, Note_on_c, 0, 67, 28
2, 335375, Note_on_c, 0, 70, 0
2, 335388, Note_on_c, 0, 67, 0
2, 335399, Note_on_c, 0, 64, 26
2, 335509, Note_on_c, 0, 64, 0
2, 335520, Note_on_c, 0, 48, 36
2, 335640, Note_on_c, 0, 64, 26
2, 335748, Note_on_c, 0, 64, 0
2, 335759, Note_on_c, 0, 67, 31
2, 335869, Note_on_c, 0, 67, 0
2, 335880, Note_on_c, 0, 72, 24
2, 335880, Note_on_c, 0, 72, 34
2, 335988, Note_on_c, 0, 72, 0
2, 336000, Note_on_c, 0, 67, 27
2, 336095, Note_on_c, 0, 72, 0
2, 336108, Note_on_c, 0, 67, 0
2, 336119, Note_on_c, 0, 64, 24
2, 336170, Note_on_c, 0, 48, 0
2, 336229, Note_on_c, 0, 64, 0
2, 336240, Note_on_c, 0, 58, 0
2, 336240, Note_on_c, 0, 58, 59
2, 336360, Note_on_c, 0, 64, 27
2, 336468, Note_on_c, 0, 64, 0
2, 336479, Note_on_c, 0, 67, 31
2, 336589, Note_on_c, 0, 67, 0
2, 336600, Note_on_c, 0, 70, 26
2, 336600, Note_on_c, 0, 70, 32
2, 336708, Note_on_c, 0, 70, 0
2, 336720, Note_on_c, 0, 67, 29
2, 336815, Note_on_c, 0, 70, 0
2, 336828, Note_on_c, 0, 67, 0
2, 336839, Note_on_c, 0, 64, 27
2, 336949, Note_on_c, 0, 64, 0
2, 336960, Note_on_c, 0, 48, 37
2, 337080, Note_on_c, 0, 64, 25
2, 337188, Note_on_c, 0, 64, 0
2, 337199, Note_on_c, 0, 67, 33
2, 337309, Note_on_c, 0, 67, 0
2, 337320, Note_on_c, 0, 72, 27
2, 337320, Note_on_c, 0, 72, 32
2, 337428, Note_on_c, 0, 72, 0
2, 337440, Note_on_c, 0, 67, 27
2, 337535, Note_on_c, 0, 72, 0
2, 337548, Note_on_c, 0, 67, 0
2, 337559, Note_on_c, 0, 64, 25
2, 337610, Note_on_c, 0, 48, 0
2, 337669, Note_on_c, 0, 64, 0
2, 337680, Note_on_c, 0, 58, 0
2, 337680, Note_on_c, 0, 79, 105
2, 337680, Note_on_c, 0, 58, 63
2, 337800, Note_on_c, 0, 64, 26
2, 337908, Note_on_c, 0, 64, 0
2, 337919, Note_on_c, 0, 67, 34
2, 338029, Note_on_c, 0, 67, 0
2, 338040, Note_on_c, 0, 70, 24
2, 338040, Note_on_c, 0, 70, 34
2, 338148, Note_on_c, 0, 70, 0
2, 338160, Note_on_c, 0, 67, 28
2, 338255, Note_on_c, 0, 70, 0
2, 338268, Note_on_c, 0, 67, 0
2, 338279, Note_on_c, 0, 64, 25
2, 338389, Note_on_c, 0, 64, 0
2, 338400, Note_on_c, 0, 48, 40
2, 338520, Note_on_c, 0, 64, 25
2, 338628, Note_on_c, 0, 64, 0
2, 338639, Note_on_c, 0, 67, 32
2, 338749, Note_on_c, 0, 67, 0
2, 338760, Note_on_c, 0, 72, 26
2, 338760, Note_on_c, 0, 72, 36
2, 338868, Note_on_c, 0, 72, 0
2, 338880, Note_on_c, 0, 67, 26
2, 338923, Note_on_c, 0, 79, 0
2, 338940, Note_on_c, 0, 80, 64
2, 338975, Note_on_c, 0, 72, 0
2, 338988, Note_on_c, 0, 67, 0
2, 338999, Note_on_c, 0, 64, 26
2, 339050, Note_on_c, 0, 48, 0
2, 339109, Note_on_c, 0, 64, 0
2, 339120, Note_on_c, 0, 58, 0
2, 339120, Note_on_c, 0, 80, 0
2, 339120, Note_on_c, 0, 80, 64
2, 339120, Note_on_c, 0, 56, 60
2, 339240, Note_on_c, 0, 60, 27
2, 339348, Note_on_c, 0, 60, 0
2, 339359, Note_on_c, 0, 63, 32
2, 339469, Note_on_c, 0, 63, 0
2, 339480, Note_on_c, 0, 70, 27
2, 339480, Note_on_c, 0, 70, 36
2, 339588, Note_on_c, 0, 70, 0
2, 339600, Note_on_c, 0, 63, 26
2, 339695, Note_on_c, 0, 70, 0
2, 339708, Note_on_c, 0, 63, 0
2, 339719, Note_on_c, 0, 60, 25
2, 339829, Note_on_c, 0, 60, 0
2, 339840, Note_on_c, 0, 48, 39
2, 339960, Note_on_c, 0, 60, 25
2, 340068, Note_on_c, 0, 60, 0
2, 340079, Note_on_c, 0, 63, 33
2, 340189, Note_on_c, 0, 63, 0
2, 340200, Note_on_c, 0, 72, 27
2, 340200, Note_on_c, 0, 72, 35
2, 340308, Note_on_c, 0, 72, 0
2, 340320, Note_on_c, 0, 63, 24
2, 340415, Note_on_c, 0, 72, 0
2, 340428, Note_on_c, 0, 63, 0
2, 340439, Note_on_c, 0, 60, 27
2, 340490, Note_on_c, 0, 48, 0
2, 340549, Note_on_c, 0, 60, 0
2, 340560, Note_on_c, 0, 56, 0
2, 340560, Note_on_c, 0, 80, 0
2, 340560, Note_on_c, 0, 84, 71
2, 340560, Note_on_c, 0, 56, 62
2, 340680, Note_on_c, 0, 60, 26
2, 340788, Note_on_c, 0, 60, 0
2, 340799, Note_on_c, 0, 63, 30
2, 340909, Note_on_c, 0, 63, 0
2, 340920, Note_on_c, 0, 70, 25
2, 340920, Note_on_c, 0, 70, 35
2, 341028, Note_on_c, 0, 70, 0
2, 341040, Note_on_c, 0, 63, 25
2, 341135, Note_on_c, 0, 70, 0
2, 341148, Note_on_c, 0, 63, 0
2, 341159, Note_on_c, 0, 60, 26
2, 341269, Note_on_c, 0, 60, 0
2, 341280, Note_on_c, 0, 48, 38
2, 341400, Note_on_c, 0, 60, 26
2, 341508, Note_on_c, 0, 60, 0
2, 341519, Note_on_c, 0, 63, 33
2, 341629, Note_on_c, 0, 63, 0
2, 341640, Note_on_c, 0, 72, 28
2, 341640, Note_on_c, 0, 72, 37
2, 341748, Note_on_c, 0, 72, 0
2, 341760, Note_on_c, 0, 63, 22
2, 341855, Note_on_c, 0, 72, 0
2, 341868, Note_on_c, 0, 63, 0
2, 341879, Note_on_c, 0, 60, 24
2, 341930, Note_on_c, 0, 48, 0
2, 341989, Note_on_c, 0, 60, 0
2, 342000, Note_on_c, 0, 56, 0
2, 342000, Note_on_c, 0, 84, 0
2, 342000, Note_on_c, 0, 56, 63
2, 342120, Note_on_c, 0, 61, 25
2, 342228, Note_on_c, 0, 61, 0
2, 342239, Note_on_c, 0, 65, 32
2, 342349, Note_on_c, 0, 65, 0
2, 342360, Note_on_c, 0, 70, 26
2, 342360, Note_on_c, 0, 70, 35
2, 342468, Note_on_c, 0, 70, 0
2, 342480, Note_on_c, 0, 65, 26
2, 342575, Note_on_c, 0, 70, 0
2, 342588, Note_on_c, 0, 65, 0
2, 342599, Note_on_c, 0, 61, 27
2, 342709, Note_on_c, 0, 61, 0
2, 342720, Note_on_c, 0, 48, 39
2, 342840, Note_on_c, 0, 61, 26
2, 342948, Note_on_c, 0, 61, 0
2, 342959, Note_on_c, 0, 65, 33
2, 343069, Note_on_c, 0, 65, 0
2, 343080, Note_on_c, 0, 72, 28
2, 343080, Note_on_c, 0, 72, 36
2, 343188, Note_on_c, 0, 72, 0
2, 343200, Note_on_c, 0, 65, 24
2, 343295, Note_on_c, 0, 72, 0
2, 343308, Note_on_c, 0, 65, 0
2, 343319, Note_on_c, 0, 61, 27
2, 343370, Note_on_c, 0, 48, 0
2, 343429, Note_on_c, 0, 61, 0
2, 343440, Note_on_c, 0, 56, 0
2, 343440, Note_on_c, 0, 77, 56
2, 343440, Note_on_c, 0, 56, 62
2, 343560, Note_on_c, 0, 62, 25
2, 343668, Note_on_c, 0, 62, 0
2, 343679, Note_on_c, 0, 65, 31
2, 343789, Note_on_c, 0, 65, 0
2, 343800, Note_on_c, 0, 70, 26
2, 343800, Note_on_c, 0, 70, 34
2, 343908, Note_on_c, 0, 70, 0
2, 343920, Note_on_c, 0, 65, 25
2, 344015, Note_on_c, 0, 70, 0
2, 344028, Note_on_c, 0, 65, 0
2, 344039, Note_on_c, 0, 62, 28
2, 344149, Note_on_c, 0, 62, 0
2, 344160, Note_on_c, 0, 48, 38
2, 344280, Note_on_c, 0, 62, 27
2, 344388, Note_on_c, 0, 62, 0
2, 344399, Note_on_c, 0, 65, 33
2, 344509, Note_on_c, 0, 65, 0
2, 344520, Note_on_c, 0, 72, 26
2, 344520, Note_on_c, 0, 72, 34
2, 344628, Note_on_c, 0, 72, 0
2, 344640, Note_on_c, 0, 65, 26
2, 344683, Note_on_c, 0, 77, 0
2, 344700, Note_on_c, 0, 79, 65
2, 344735, Note_on_c, 0, 72, 0
2, 344748, Note_on_c, 0, 65, 0
2, 344759, Note_on_c, 0, 62, 25
2, 344810, Note_on_c, 0, 48, 0
2, 344869, Note_on_c, 0, 62, 0
2, 344880, Note_on_c, 0, 56, 0
2, 344880, Note_on_c, 0, 79, 0
2, 344880, Note_on_c, 0, 79, 65
2, 344880, Note_on_c, 0, 55, 58
2, 345000, Note_on_c, 0, 63, 25
2, 345108, Note_on_c, 0, 63, 0
2, 345119, Note_on_c, 0, 67, 32
2, 345229, Note_on_c, 0, 67, 0
2, 345240, Note_on_c, 0, 70, 26
2, 345240, Note_on_c, 0, 70, 33
2, 345348, Note_on_c, 0, 70, 0
2, 345360, Note_on_c, 0, 67, 26
2, 345455, Note_on_c, 0, 70, 0
2, 345468, Note_on_c, 0, 67, 0
2, 345479, Note_on_c, 0, 63, 24
2, 345589, Note_on_c, 0, 63, 0
2, 345600, Note_on_c, 0, 48, 39
2, 345720, Note_on_c, 0, 63, 28
2, 345828, Note_on_c, 0, 63, 0
2, 345839, Note_on_c, 0, 67, 35
2, 345949, Note_on_c, 0, 67, 0
2, 345960, Note_on_c, 0, 72, 26
2, 345960, Note_on_c, 0, 72, 35
2, 346068, Note_on_c, 0, 72, 0
2, 346080, Note_on_c, 0, 67, 26
2, 346175, Note_on_c, 0, 72, 0
2, 346188, Note_on_c, 0, 67, 0
2, 346199, Note_on_c, 0, 63, 25
2, 346250, Note_on_c, 0, 48, 0
2, 346309, Note_on_c, 0, 63, 0
2, 346320, Note_on_c, 0, 55, 0
2, 346320, Note_on_c, 0, 79, 0
2, 346320, Note_on_c, 0, 84, 73
2, 346320, Note_on_c, 0, 55, 60
2, 346440, Note_on_c, 0, 63, 28
2, 346548, Note_on_c, 0, 63, 0
2, 346559, Note_on_c, 0, 67, 34
2, 346669, Note_on_c, 0, 67, 0
2, 346680, Note_on_c, 0, 70, 27
2, 346680, Note_on_c, 0, 70, 34
2, 346788, Note_on_c, 0, 70, 0
2, 346800, Note_on_c, 0, 67, 26
2, 346895, Note_on_c, 0, 70, 0
2, 346908, Note_on_c, 0, 67, 0
2, 346919, Note_on_c, 0, 63, 26
2, 347029, Note_on_c, 0, 63, 0
2, 347040, Note_on_c, 0, 48, 38
2, 347160, Note_on_c, 0, 63, 25
2, 347268, Note_on_c, 0, 63, 0
2, 347279, Note_on_c, 0, 67, 33
2, 347389, Note_on_c, 0, 67, 0
2, 347400, Note_on_c, 0, 72, 28
2, 347400, Note_on_c, 0, 72, 34
2, 347508, Note_on_c, 0, 72, 0
2, 347520, Note_on_c, 0, 67, 27
2, 347615, Note_on_c, 0, 72, 0
2, 347628, Note_on_c, 0, 67, 0
2, 347639, Note_on_c, 0, 63, 25
2, 347690, Note_on_c, 0, 48, 0
2, 347749, Note_on_c, 0, 63, 0
2, 347760, Note_on_c, 0, 55, 0
2, 347760, Note_on_c, 0, 84, 0
2, 347760, Note_on_c, 0, 54, 60
2, 347880, Note_on_c, 0, 60, 26
2, 347988, Note_on_c, 0, 60, 0
2, 347999, Note_on_c, 0, 63, 31
2, 348109, Note_on_c, 0, 63, 0
2, 348120, Note_on_c, 0, 70, 27
2, 348120, Note_on_c, 0, 70, 37
2, 348120, Note_on_c, 0, 84, 55
2, 348228, Note_on_c, 0, 70, 0
2, 348240, Note_on_c, 0, 63, 23
2, 348335, Note_on_c, 0, 70, 0
2, 348348, Note_on_c, 0, 63, 0
2, 348359, Note_on_c, 0, 60, 27
2, 348469, Note_on_c, 0, 60, 0
2, 348480, Note_on_c, 0, 48, 39
2, 348600, Note_on_c, 0, 60, 28
2, 348708, Note_on_c, 0, 60, 0
2, 348719, Note_on_c, 0, 63, 31
2, 348829, Note_on_c, 0, 63, 0
2, 348840, Note_on_c, 0, 84, 0
2, 348840, Note_on_c, 0, 72, 39
2, 348840, Note_on_c, 0, 72, 51
2, 348840, Note_on_c, 0, 82, 62
2, 348948, Note_on_c, 0, 72, 0
2, 348960, Note_on_c, 0, 63, 35
2, 349055, Note_on_c, 0, 72, 0
2, 349068, Note_on_c, 0, 63, 0
2, 349079, Note_on_c, 0, 60, 38
2, 349130, Note_on_c, 0, 48, 0
2, 349165, Note_on_c, 0, 82, 0
2, 349189, Note_on_c, 0, 60, 0
2, 349200, Note_on_c, 0, 54, 0
2, 349200, Note_on_c, 0, 84, 76
2, 349200, Note_on_c, 0, 54, 63
2, 349320, Note_on_c, 0, 60, 38
2, 349428, Note_on_c, 0, 60, 0
2, 349439, Note_on_c, 0, 63, 47
2, 349549, Note_on_c, 0, 63, 0
2, 349560, Note_on_c, 0, 70, 38
2, 349560, Note_on_c, 0, 70, 51
2, 349668, Note_on_c, 0, 70, 0
2, 349680, Note_on_c, 0, 63, 34
2, 349775, Note_on_c, 0, 70, 0
2, 349788, Note_on_c, 0, 63, 0
2, 349799, Note_on_c, 0, 60, 36
2, 349909, Note_on_c, 0, 60, 0
2, 349920, Note_on_c, 0, 48, 38
2, 350040, Note_on_c, 0, 60, 39
2, 350148, Note_on_c, 0, 60, 0
2, 350159, Note_on_c, 0, 63, 45
2, 350210, Note_on_c, 0, 84, 0
2, 350269, Note_on_c, 0, 63, 0
2, 350280, Note_on_c, 0, 72, 39
2, 350280, Note_on_c, 0, 72, 52
2, 350280, Note_on_c, 0, 87, 75
2, 350388, Note_on_c, 0, 72, 0
2, 350400, Note_on_c, 0, 63, 35
2, 350495, Note_on_c, 0, 72, 0
2, 350508, Note_on_c, 0, 63, 0
2, 350519, Note_on_c, 0, 60, 37
2, 350570, Note_on_c, 0, 48, 0
2, 350605, Note_on_c, 0, 87, 0
2, 350629, Note_on_c, 0, 60, 0
2, 350640, Note_on_c, 0, 54, 0
2, 350640, Note_on_c, 0, 96, 96
2, 350640, Note_on_c, 0, 53, 60
2, 350760, Note_on_c, 0, 60, 38
2, 350868, Note_on_c, 0, 60, 0
2, 350879, Note_on_c, 0, 63, 46
2, 350989, Note_on_c, 0, 63, 0
2, 351000, Note_on_c, 0, 69, 37
2, 351000, Note_on_c, 0, 69, 49
2, 351108, Note_on_c, 0, 69, 0
2, 351120, Note_on_c, 0, 63, 37
2, 351215, Note_on_c, 0, 69, 0
2, 351228, Note_on_c, 0, 63, 0
2, 351239, Note_on_c, 0, 60, 35
2, 351349, Note_on_c, 0, 60, 0
2, 351360, Note_on_c, 0, 48, 37
2, 351480, Note_on_c, 0, 60, 38
2, 351588, Note_on_c, 0, 60, 0
2, 351599, Note_on_c, 0, 63, 46
2, 351709, Note_on_c, 0, 63, 0
2, 351720, Note_on_c, 0, 72, 38
2, 351720, Note_on_c, 0, 72, 54
2, 351828, Note_on_c, 0, 72, 0
2, 351840, Note_on_c, 0, 63, 34
2, 351935, Note_on_c, 0, 72, 0
2, 351948, Note_on_c, 0, 63, 0
2, 351959, Note_on_c, 0, 60, 38
2, 352010, Note_on_c, 0, 48, 0
2, 352069, Note_on_c, 0, 60, 0
2, 352080, Note_on_c, 0, 53, 0
2, 352080, Note_on_c, 0, 96, 0
2, 352080, Note_on_c, 0, 89, 45
2, 352080, Note_on_c, 0, 53, 63
2, 352200, Note_on_c, 0, 60, 38
2, 352308, Note_on_c, 0, 60, 0
2, 352319, Note_on_c, 0, 63, 46
2, 352429, Note_on_c, 0, 63, 0
2, 352440, Note_on_c, 0, 69, 38
2, 352440, Note_on_c, 0, 69, 51
2, 352548, Note_on_c, 0, 69, 0
2, 352560, Note_on_c, 0, 63, 36
2, 352655, Note_on_c, 0, 69, 0
2, 352668, Note_on_c, 0, 63, 0
2, 352679, Note_on_c, 0, 60, 38
2, 352789, Note_on_c, 0, 60, 0
2, 352800, Note_on_c, 0, 48, 39
2, 352920, Note_on_c, 0, 60, 39
2, 353028, Note_on_c, 0, 60, 0
2, 353039, Note_on_c, 0, 63, 45
2, 353149, Note_on_c, 0, 63, 0
2, 353160, Note_on_c, 0, 72, 39
2, 353160, Note_on_c, 0, 72, 51
2, 353268, Note_on_c, 0, 72, 0
2, 353280, Note_on_c, 0, 63, 35
2, 353375, Note_on_c, 0, 72, 0
2, 353388, Note_on_c, 0, 63, 0
2, 353399, Note_on_c, 0, 60, 38
2, 353450, Note_on_c, 0, 48, 0
2, 353509, Note_on_c, 0, 60, 0
2, 353520, Note_on_c, 0, 53, 0
2, 353520, Note_on_c, 0, 89, 0
2, 353520, Note_on_c, 0, 53, 61
2, 353640, Note_on_c, 0, 60, 38
2, 353748, Note_on_c, 0, 60, 0
2, 353759, Note_on_c, 0, 63, 45
2, 353869, Note_on_c, 0, 63, 0
2, 353880, Note_on_c, 0, 68, 36
2, 353880, Note_on_c, 0, 68, 48
2, 353988, Note_on_c, 0, 68, 0
2, 354000, Note_on_c, 0, 63, 37
2, 354095, Note_on_c, 0, 68, 0
2, 354108, Note_on_c, 0, 63, 0
2, 354119, Note_on_c, 0, 60, 38
2, 354229, Note_on_c, 0, 60, 0
2, 354240, Note_on_c, 0, 48, 38
2, 354360, Note_on_c, 0, 60, 38
2, 354468, Note_on_c, 0, 60, 0
2, 354479, Note_on_c, 0, 63, 47
2, 354589, Note_on_c, 0, 63, 0
2, 354600, Note_on_c, 0, 72, 37
2, 354600, Note_on_c, 0, 72, 52
2, 354708, Note_on_c, 0, 72, 0
2, 354720, Note_on_c, 0, 63, 34
2, 354815, Note_on_c, 0, 72, 0
2, 354828, Note_on_c, 0, 63, 0
2, 354839, Note_on_c, 0, 60, 38
2, 354890, Note_on_c, 0, 48, 0
2, 354949, Note_on_c, 0, 60, 0
2, 354960, Note_on_c, 0, 53, 0
2, 354960, Note_on_c, 0, 84, 64
2, 354960, Note_on_c, 0, 54, 64
2, 355080, Note_on_c, 0, 60, 39
2, 355188, Note_on_c, 0, 60, 0
2, 355199, Note_on_c, 0, 62, 43
2, 355309, Note_on_c, 0, 62, 0
2, 355320, Note_on_c, 0, 68, 39
2, 355320, Note_on_c, 0, 68, 50
2, 355428, Note_on_c, 0, 68, 0
2, 355440, Note_on_c, 0, 62, 36
2, 355535, Note_on_c, 0, 68, 0
2, 355548, Note_on_c, 0, 62, 0
2, 355559, Note_on_c, 0, 60, 36
2, 355669, Note_on_c, 0, 60, 0
2, 355680, Note_on_c, 0, 48, 37
2, 355800, Note_on_c, 0, 60, 37
2, 355908, Note_on_c, 0, 60, 0
2, 355919, Note_on_c, 0, 62, 47
2, 356029, Note_on_c, 0, 62, 0
2, 356040, Note_on_c, 0, 84, 0
2, 356040, Note_on_c, 0, 72, 39
2, 356040, Note_on_c, 0, 72, 56
2, 356040, Note_on_c, 0, 84, 72
2, 356148, Note_on_c, 0, 72, 0
2, 356160, Note_on_c, 0, 62, 34
2, 356255, Note_on_c, 0, 72, 0
2, 356268, Note_on_c, 0, 62, 0
2, 356279, Note_on_c, 0, 60, 39
2, 356330, Note_on_c, 0, 48, 0
2, 356389, Note_on_c, 0, 60, 0
2, 356400, Note_on_c, 0, 54, 0
2, 356400, Note_on_c, 0, 84, 0
2, 356400, Note_on_c, 0, 84, 77
2, 356400, Note_on_c, 0, 55, 67
2, 356520, Note_on_c, 0, 60, 38
2, 356628, Note_on_c, 0, 60, 0
2, 356639, Note_on_c, 0, 63, 47
2, 356749, Note_on_c, 0, 63, 0
2, 356760, Note_on_c, 0, 70, 40
2, 356760, Note_on_c, 0, 70, 52
2, 356868, Note_on_c, 0, 70, 0
2, 356880, Note_on_c, 0, 63, 36
2, 356975, Note_on_c, 0, 70, 0
2, 356988, Note_on_c, 0, 63, 0
2, 356999, Note_on_c, 0, 60, 38
2, 357109, Note_on_c, 0, 60, 0
2, 357120, Note_on_c, 0, 48, 37
2, 357240, Note_on_c, 0, 60, 38
2, 357348, Note_on_c, 0, 60, 0
2, 357359, Note_on_c, 0, 63, 45
2, 357469, Note_on_c, 0, 63, 0
2, 357480, Note_on_c, 0, 72, 38
2, 357480, Note_on_c, 0, 72, 53
2, 357588, Note_on_c, 0, 72, 0
2, 357600, Note_on_c, 0, 63, 35
2, 357695, Note_on_c, 0, 72, 0
2, 357708, Note_on_c, 0, 63, 0
2, 357719, Note_on_c, 0, 60, 38
2, 357770, Note_on_c, 0, 48, 0
2, 357829, Note_on_c, 0, 60, 0
2, 357840, Note_on_c, 0, 55, 0
2, 357840, Note_on_c, 0, 84, 0
2, 357840, Note_on_c, 0, 87, 85
2, 357840, Note_on_c, 0, 55, 61
2, 357960, Note_on_c, 0, 60, 39
2, 358068, Note_on_c, 0, 60, 0
2, 358079, Note_on_c, 0, 63, 46
2, 358189, Note_on_c, 0, 63, 0
2, 358200, Note_on_c, 0, 70, 36
2, 358200, Note_on_c, 0, 70, 54
2, 358308, Note_on_c, 0, 70, 0
2, 358320, Note_on_c, 0, 63, 36
2, 358415, Note_on_c, 0, 70, 0
2, 358428, Note_on_c, 0, 63, 0
2, 358439, Note_on_c, 0, 60, 37
2, 358549, Note_on_c, 0, 60, 0
2, 358560, Note_on_c, 0, 48, 39
2, 358680, Note_on_c, 0, 60, 38
2, 358788, Note_on_c, 0, 60, 0
2, 358799, Note_on_c, 0, 63, 45
2, 358909, Note_on_c, 0, 63, 0
2, 358920, Note_on_c, 0, 72, 37
2, 358920, Note_on_c, 0, 72, 54
2, 359028, Note_on_c, 0, 72, 0
2, 359040, Note_on_c, 0, 63, 34
2, 359135, Note_on_c, 0, 72, 0
2, 359148, Note_on_c, 0, 63, 0
2, 359159, Note_on_c, 0, 60, 38
2, 359210, Note_on_c, 0, 48, 0
2, 359269, Note_on_c, 0, 60, 0
2, 359280, Note_on_c, 0, 55, 0
2, 359280, Note_on_c, 0, 55, 63
2, 359400, Note_on_c, 0, 60, 40
2, 359508, Note_on_c, 0, 60, 0
2, 359519, Note_on_c, 0, 63, 46
2, 359629, Note_on_c, 0, 63, 0
2, 359640, Note_on_c, 0, 70, 39
2, 359640, Note_on_c, 0, 70, 53
2, 359748, Note_on_c, 0, 70, 0
2, 359760, Note_on_c, 0, 63, 36
2, 359855, Note_on_c, 0, 70, 0
2, 359868, Note_on_c, 0, 63, 0
2, 359879, Note_on_c, 0, 60, 36
2, 359989, Note_on_c, 0, 60, 0
2, 360000, Note_on_c, 0, 48, 38
2, 360120, Note_on_c, 0, 60, 39
2, 360228, Note_on_c, 0, 60, 0
2, 360239, Note_on_c, 0, 63, 47
2, 360349, Note_on_c, 0, 63, 0
2, 360360, Note_on_c, 0, 72, 38
2, 360360, Note_on_c, 0, 72, 53
2, 360468, Note_on_c, 0, 72, 0
2, 360480, Note_on_c, 0, 63, 33
2, 360575, Note_on_c, 0, 72, 0
2, 360588, Note_on_c, 0, 63, 0
2, 360599, Note_on_c, 0, 60, 35
2, 360650, Note_on_c, 0, 48, 0
2, 360650, Note_on_c, 0, 87, 0
2, 360709, Note_on_c, 0, 60, 0
2, 360720, Note_on_c, 0, 55, 0
2, 360720, Note_on_c, 0, 56, 65
2, 360840, Note_on_c, 0, 60, 36
2, 360948, Note_on_c, 0, 60, 0
2, 360959, Note_on_c, 0, 63, 48
2, 361069, Note_on_c, 0, 63, 0
2, 361080, Note_on_c, 0, 70, 40
2, 361080, Note_on_c, 0, 70, 51
2, 361188, Note_on_c, 0, 70, 0
2, 361200, Note_on_c, 0, 63, 36
2, 361295, Note_on_c, 0, 70, 0
2, 361308, Note_on_c, 0, 63, 0
2, 361319, Note_on_c, 0, 60, 36
2, 361429, Note_on_c, 0, 60, 0
2, 361440, Note_on_c, 0, 48, 39
2, 361560, Note_on_c, 0, 60, 37
2, 361668, Note_on_c, 0, 60, 0
2, 361679, Note_on_c, 0, 63, 46
2, 361765, Note_on_c, 0, 48, 0
2, 361789, Note_on_c, 0, 63, 0
2, 361800, Note_on_c, 0, 72, 37
2, 361800, Note_on_c, 0, 72, 53
2, 361800, Note_on_c, 0, 48, 46
2, 361908, Note_on_c, 0, 48, 0
2, 361908, Note_on_c, 0, 72, 0
2, 361920, Note_on_c, 0, 63, 74
2, 361920, Note_on_c, 0, 49, 46
2, 362015, Note_on_c, 0, 72, 0
2, 362028, Note_on_c, 0, 49, 0
2, 362028, Note_on_c, 0, 63, 0
2, 362039, Note_on_c, 0, 60, 79
2, 362039, Note_on_c, 0, 50, 45
2, 362149, Note_on_c, 0, 50, 0
2, 362149, Note_on_c, 0, 60, 0
2, 362160, Note_on_c, 0, 56, 0
2, 362160, Note_on_c, 0, 51, 122
2, 362160, Note_on_c, 0, 38, 67
2, 362485, Note_on_c, 0, 51, 0
2, 362520, Note_on_c, 0, 48, 83
2, 362683, Note_on_c, 0, 48, 0
2, 362790, Note_on_c, 0, 48, 80
2, 362872, Note_on_c, 0, 48, 0
2, 362880, Note_on_c, 0, 63, 68
2, 362880, Note_on_c, 0, 50, 78
2, 363205, Note_on_c, 0, 50, 0
2, 363240, Note_on_c, 0, 46, 65
2, 363403, Note_on_c, 0, 46, 0
2, 363510, Note_on_c, 0, 46, 68
2, 363592, Note_on_c, 0, 46, 0
2, 363600, Note_on_c, 0, 48, 76
2, 363925, Note_on_c, 0, 48, 0
2, 363960, Note_on_c, 0, 45, 69
2, 364123, Note_on_c, 0, 45, 0
2, 364230, Note_on_c, 0, 45, 65
2, 364250, Note_on_c, 0, 63, 0
2, 364312, Note_on_c, 0, 45, 0
2, 364320, Note_on_c, 0, 62, 75
2, 364320, Note_on_c, 0, 46, 82
2, 364645, Note_on_c, 0, 46, 0
2, 364680, Note_on_c, 0, 43, 70
2, 364843, Note_on_c, 0, 43, 0
2, 364950, Note_on_c, 0, 43, 66
2, 364970, Note_on_c, 0, 62, 0
2, 365032, Note_on_c, 0, 43, 0
2, 365040, Note_on_c, 0, 60, 68
2, 365040, Note_on_c, 0, 45, 79
2, 365365, Note_on_c, 0, 45, 0
2, 365400, Note_on_c, 0, 42, 67
2, 365563, Note_on_c, 0, 42, 0
2, 365670, Note_on_c, 0, 42, 67
2, 365690, Note_on_c, 0, 60, 0
2, 365752, Note_on_c, 0, 42, 0
2, 365760, Note_on_c, 0, 58, 70
2, 365760, Note_on_c, 0, 43, 80
2, 366085, Note_on_c, 0, 43, 0
2, 366120, Note_on_c, 0, 40, 66
2, 366283, Note_on_c, 0, 40, 0
2, 366390, Note_on_c, 0, 40, 65
2, 366410, Note_on_c, 0, 58, 0
2, 366472, Note_on_c, 0, 40, 0
2, 366480, Note_on_c, 0, 57, 72
2, 366480, Note_on_c, 0, 42, 78
2, 366770, Note_on_c, 0, 38, 0
2, 366805, Note_on_c, 0, 42, 0
2, 366840, Note_on_c, 0, 62, 70
2, 366840, Note_on_c, 0, 38, 64
2, 366948, Note_on_c, 0, 62, 0
2, 366960, Note_on_c, 0, 63, 76
2, 367003, Note_on_c, 0, 38, 0
2, 367068, Note_on_c, 0, 63, 0
2, 367079, Note_on_c, 0, 64, 77
2, 367110, Note_on_c, 0, 38, 65
2, 367130, Note_on_c, 0, 57, 0
2, 367189, Note_on_c, 0, 64, 0
2, 367192, Note_on_c, 0, 38, 0
2, 367200, Note_on_c, 0, 65, 73
2, 367200, Note_on_c, 0, 56, 51
2, 367200, Note_on_c, 0, 62, 52
2, 367200, Note_on_c, 0, 28, 48
2, 367200, Note_on_c, 0, 40, 49
2, 367525, Note_on_c, 0, 40, 0
2, 367525, Note_on_c, 0, 62, 0
2, 367525, Note_on_c, 0, 65, 0
2, 367525, Note_on_c, 0, 56, 0
2, 367525, Note_on_c, 0, 28, 0
2, 367560, Note_on_c, 0, 64, 42
2, 367668, Note_on_c, 0, 64, 0
2, 367799, Note_on_c, 0, 64, 38
2, 367909, Note_on_c, 0, 64, 0
2, 367920, Note_on_c, 0, 65, 44
2, 367920, Note_on_c, 0, 59, 37
2, 367920, Note_on_c, 0, 50, 37
2, 367920, Note_on_c, 0, 56, 36
2, 367979, Note_on_c, 0, 56, 0
2, 367979, Note_on_c, 0, 50, 0
2, 368097, Note_on_c, 0, 65, 0
2, 368159, Note_on_c, 0, 40, 37
2, 368245, Note_on_c, 0, 59, 0
2, 368269, Note_on_c, 0, 40, 0
2, 368280, Note_on_c, 0, 62, 36
2, 368280, Note_on_c, 0, 58, 41
2, 368280, Note_on_c, 0, 50, 59
2, 368280, Note_on_c, 0, 55, 58
2, 368339, Note_on_c, 0, 55, 0
2, 368339, Note_on_c, 0, 50, 0
2, 368388, Note_on_c, 0, 62, 0
2, 368519, Note_on_c, 0, 62, 40
2, 368519, Note_on_c, 0, 40, 38
2, 368605, Note_on_c, 0, 58, 0
2, 368629, Note_on_c, 0, 40, 0
2, 368629, Note_on_c, 0, 62, 0
2, 368640, Note_on_c, 0, 64, 43
2, 368640, Note_on_c, 0, 57, 39
2, 368640, Note_on_c, 0, 49, 57
2, 368640, Note_on_c, 0, 54, 58
2, 368699, Note_on_c, 0, 54, 0
2, 368699, Note_on_c, 0, 49, 0
2, 368817, Note_on_c, 0, 64, 0
2, 368879, Note_on_c, 0, 40, 39
2, 368965, Note_on_c, 0, 57, 0
2, 368989, Note_on_c, 0, 40, 0
2, 369000, Note_on_c, 0, 61, 40
2, 369000, Note_on_c, 0, 56, 42
2, 369000, Note_on_c, 0, 48, 57
2, 369000, Note_on_c, 0, 53, 57
2, 369059, Note_on_c, 0, 53, 0
2, 369059, Note_on_c, 0, 48, 0
2, 369108, Note_on_c, 0, 61, 0
2, 369120, Note_on_c, 0, 62, 46
2, 369228, Note_on_c, 0, 62, 0
2, 369239, Note_on_c, 0, 64, 45
2, 369239, Note_on_c, 0, 40, 39
2, 369325, Note_on_c, 0, 56, 0
2, 369349, Note_on_c, 0, 40, 0
2, 369349, Note_on_c, 0, 64, 0
2, 369360, Note_on_c, 0, 65, 74
2, 369360, Note_on_c, 0, 55, 43
2, 369360, Note_on_c, 0, 47, 58
2, 369360, Note_on_c, 0, 53, 56
2, 369419, Note_on_c, 0, 53, 0
2, 369419, Note_on_c, 0, 47, 0
2, 369599, Note_on_c, 0, 40, 37
2, 369685, Note_on_c, 0, 55, 0
2, 369685, Note_on_c, 0, 65, 0
2, 369709, Note_on_c, 0, 40, 0
2, 369720, Note_on_c, 0, 64, 39
2, 369720, Note_on_c, 0, 57, 45
2, 369720, Note_on_c, 0, 48, 54
2, 369720, Note_on_c, 0, 48, 39
2, 369828, Note_on_c, 0, 48, 0
2, 369828, Note_on_c, 0, 64, 0
2, 369840, Note_on_c, 0, 53, 51
2, 369897, Note_on_c, 0, 48, 0
2, 369948, Note_on_c, 0, 53, 0
2, 369959, Note_on_c, 0, 64, 37
2, 369959, Note_on_c, 0, 40, 32
2, 370045, Note_on_c, 0, 57, 0
2, 370069, Note_on_c, 0, 40, 0
2, 370069, Note_on_c, 0, 64, 0
2, 370080, Note_on_c, 0, 65, 45
2, 370080, Note_on_c, 0, 56, 41
2, 370080, Note_on_c, 0, 47, 50
2, 370080, Note_on_c, 0, 47, 41
2, 370188, Note_on_c, 0, 47, 0
2, 370200, Note_on_c, 0, 53, 50
2, 370257, Note_on_c, 0, 47, 0
2, 370257, Note_on_c, 0, 65, 0
2, 370308, Note_on_c, 0, 53, 0
2, 370319, Note_on_c, 0, 40, 29
2, 370405, Note_on_c, 0, 56, 0
2, 370429, Note_on_c, 0, 40, 0
2, 370440, Note_on_c, 0, 62, 39
2, 370440, Note_on_c, 0, 55, 41
2, 370440, Note_on_c, 0, 46, 53
2, 370440, Note_on_c, 0, 46, 39
2, 370548, Note_on_c, 0, 46, 0
2, 370548, Note_on_c, 0, 62, 0
2, 370560, Note_on_c, 0, 52, 51
2, 370617, Note_on_c, 0, 46, 0
2, 370668, Note_on_c, 0, 52, 0
2, 370679, Note_on_c, 0, 62, 37
2, 370679, Note_on_c, 0, 40, 32
2, 370765, Note_on_c, 0, 55, 0
2, 370789, Note_on_c, 0, 40, 0
2, 370789, Note_on_c, 0, 62, 0
2, 370800, Note_on_c, 0, 64, 47
2, 370800, Note_on_c, 0, 54, 41
2, 370800, Note_on_c, 0, 45, 49
2, 370800, Note_on_c, 0, 45, 38
2, 370908, Note_on_c, 0, 45, 0
2, 370908, Note_on_c, 0, 64, 0
2, 370920, Note_on_c, 0, 52, 52
2, 370977, Note_on_c, 0, 45, 0
2, 371028, Note_on_c, 0, 52, 0
2, 371039, Note_on_c, 0, 61, 39
2, 371039, Note_on_c, 0, 40, 31
2, 371125, Note_on_c, 0, 54, 0
2, 371149, Note_on_c, 0, 40, 0
2, 371149, Note_on_c, 0, 61, 0
2, 371160, Note_on_c, 0, 62, 46
2, 371160, Note_on_c, 0, 53, 40
2, 371160, Note_on_c, 0, 44, 48
2, 371160, Note_on_c, 0, 44, 38
2, 371268, Note_on_c, 0, 44, 0
2, 371268, Note_on_c, 0, 62, 0
2, 371280, Note_on_c, 0, 64, 46
2, 371280, Note_on_c, 0, 52, 51
2, 371337, Note_on_c, 0, 44, 0
2, 371388, Note_on_c, 0, 52, 0
2, 371388, Note_on_c, 0, 64, 0
2, 371399, Note_on_c, 0, 65, 44
2, 371399, Note_on_c, 0, 40, 33
2, 371485, Note_on_c, 0, 53, 0
2, 371509, Note_on_c, 0, 40, 0
2, 371509, Note_on_c, 0, 65, 0
2, 371520, Note_on_c, 0, 67, 49
2, 371520, Note_on_c, 0, 55, 53
2, 371520, Note_on_c, 0, 60, 54
2, 371520, Note_on_c, 0, 43, 88
2, 371520, Note_on_c, 0, 52, 89
2, 371697, Note_on_c, 0, 67, 0
2, 371845, Note_on_c, 0, 43, 0
2, 371845, Note_on_c, 0, 55, 0
2, 371845, Note_on_c, 0, 60, 0
2, 371845, Note_on_c, 0, 52, 0
2, 371880, Note_on_c, 0, 65, 42
2, 371880, Note_on_c, 0, 60, 45
2, 371880, Note_on_c, 0, 56, 53
2, 371880, Note_on_c, 0, 56, 57
2, 371988, Note_on_c, 0, 56, 0
2, 371988, Note_on_c, 0, 65, 0
2, 372000, Note_on_c, 0, 48, 35
2, 372057, Note_on_c, 0, 60, 0
2, 372108, Note_on_c, 0, 48, 0
2, 372119, Note_on_c, 0, 65, 45
2, 372119, Note_on_c, 0, 40, 33
2, 372205, Note_on_c, 0, 56, 0
2, 372229, Note_on_c, 0, 40, 0
2, 372229, Note_on_c, 0, 65, 0
2, 372240, Note_on_c, 0, 67, 59
2, 372240, Note_on_c, 0, 60, 56
2, 372240, Note_on_c, 0, 64, 57
2, 372240, Note_on_c, 0, 55, 56
2, 372240, Note_on_c, 0, 55, 41
2, 372348, Note_on_c, 0, 55, 0
2, 372360, Note_on_c, 0, 48, 35
2, 372417, Note_on_c, 0, 64, 0
2, 372417, Note_on_c, 0, 67, 0
2, 372417, Note_on_c, 0, 60, 0
2, 372468, Note_on_c, 0, 48, 0
2, 372479, Note_on_c, 0, 40, 33
2, 372565, Note_on_c, 0, 55, 0
2, 372589, Note_on_c, 0, 40, 0
2, 372600, Note_on_c, 0, 64, 61
2, 372600, Note_on_c, 0, 57, 53
2, 372600, Note_on_c, 0, 60, 55
2, 372600, Note_on_c, 0, 53, 55
2, 372600, Note_on_c, 0, 53, 39
2, 372708, Note_on_c, 0, 53, 0
2, 372708, Note_on_c, 0, 64, 0
2, 372720, Note_on_c, 0, 65, 70
2, 372720, Note_on_c, 0, 48, 37
2, 372777, Note_on_c, 0, 57, 0
2, 372777, Note_on_c, 0, 60, 0
2, 372828, Note_on_c, 0, 48, 0
2, 372828, Note_on_c, 0, 65, 0
2, 372839, Note_on_c, 0, 67, 76
2, 372839, Note_on_c, 0, 40, 34
2, 372925, Note_on_c, 0, 53, 0
2, 372949, Note_on_c, 0, 40, 0
2, 372949, Note_on_c, 0, 67, 0
2, 372960, Note_on_c, 0, 69, 84
2, 372960, Note_on_c, 0, 57, 68
2, 372960, Note_on_c, 0, 60, 67
2, 372960, Note_on_c, 0, 48, 88
2, 372960, Note_on_c, 0, 52, 88
2, 373137, Note_on_c, 0, 69, 0
2, 373285, Note_on_c, 0, 48, 0
2, 373285, Note_on_c, 0, 57, 0
2, 373285, Note_on_c, 0, 60, 0
2, 373285, Note_on_c, 0, 52, 0
2, 373320, Note_on_c, 0, 67, 81
2, 373320, Note_on_c, 0, 60, 84
2, 373320, Note_on_c, 0, 64, 82
2, 373320, Note_on_c, 0, 59, 57
2, 373320, Note_on_c, 0, 59, 50
2, 373428, Note_on_c, 0, 59, 0
2, 373428, Note_on_c, 0, 67, 0
2, 373440, Note_on_c, 0, 48, 31
2, 373497, Note_on_c, 0, 60, 0
2, 373497, Note_on_c, 0, 64, 0
2, 373548, Note_on_c, 0, 48, 0
2, 373559, Note_on_c, 0, 67, 80
2, 373559, Note_on_c, 0, 40, 32
2, 373645, Note_on_c, 0, 59, 0
2, 373669, Note_on_c, 0, 40, 0
2, 373669, Note_on_c, 0, 67, 0
2, 373680, Note_on_c, 0, 69, 99
2, 373680, Note_on_c, 0, 60, 83
2, 373680, Note_on_c, 0, 64, 83
2, 373680, Note_on_c, 0, 58, 57
2, 373680, Note_on_c, 0, 58, 40
2, 373788, Note_on_c, 0, 58, 0
2, 373800, Note_on_c, 0, 48, 31
2, 373857, Note_on_c, 0, 64, 0
2, 373857, Note_on_c, 0, 69, 0
2, 373857, Note_on_c, 0, 60, 0
2, 373908, Note_on_c, 0, 48, 0
2, 373919, Note_on_c, 0, 40, 32
2, 374005, Note_on_c, 0, 58, 0
2, 374029, Note_on_c, 0, 40, 0
2, 374040, Note_on_c, 0, 66, 96
2, 374040, Note_on_c, 0, 60, 87
2, 374040, Note_on_c, 0, 63, 85
2, 374040, Note_on_c, 0, 57, 58
2, 374040, Note_on_c, 0, 57, 39
2, 374148, Note_on_c, 0, 57, 0
2, 374148, Note_on_c, 0, 66, 0
2, 374160, Note_on_c, 0, 67, 105
2, 374160, Note_on_c, 0, 48, 35
2, 374217, Note_on_c, 0, 60, 0
2, 374217, Note_on_c, 0, 63, 0
2, 374268, Note_on_c, 0, 48, 0
2, 374268, Note_on_c, 0, 67, 0
2, 374279, Note_on_c, 0, 69, 107
2, 374279, Note_on_c, 0, 40, 30
2, 374365, Note_on_c, 0, 57, 0
2, 374389, Note_on_c, 0, 40, 0
2, 374389, Note_on_c, 0, 69, 0
2, 374400, Note_on_c, 0, 71, 122
2, 374400, Note_on_c, 0, 59, 98
2, 374400, Note_on_c, 0, 64, 95
2, 374400, Note_on_c, 0, 47, 88
2, 374400, Note_on_c, 0, 55, 87
2, 374725, Note_on_c, 0, 55, 0
2, 374725, Note_on_c, 0, 64, 0
2, 374725, Note_on_c, 0, 71, 0
2, 374725, Note_on_c, 0, 59, 0
2, 374725, Note_on_c, 0, 47, 0
2, 374760, Note_on_c, 0, 69, 40
2, 374760, Note_on_c, 0, 60, 41
2, 374760, Note_on_c, 0, 64, 41
2, 374760, Note_on_c, 0, 48, 48
2, 374760, Note_on_c, 0, 57, 49
2, 374868, Note_on_c, 0, 57, 0
2, 374868, Note_on_c, 0, 69, 0
2, 374868, Note_on_c, 0, 48, 0
2, 374999, Note_on_c, 0, 69, 37
2, 374999, Note_on_c, 0, 40, 37
2, 375085, Note_on_c, 0, 64, 0
2, 375085, Note_on_c, 0, 60, 0
2, 375109, Note_on_c, 0, 69, 0
2, 375109, Note_on_c, 0, 40, 0
2, 375120, Note_on_c, 0, 71, 45
2, 375120, Note_on_c, 0, 59, 44
2, 375120, Note_on_c, 0, 64, 45
2, 375120, Note_on_c, 0, 47, 55
2, 375120, Note_on_c, 0, 55, 56
2, 375228, Note_on_c, 0, 55, 0
2, 375228, Note_on_c, 0, 47, 0
2, 375297, Note_on_c, 0, 71, 0
2, 375359, Note_on_c, 0, 40, 38
2, 375445, Note_on_c, 0, 64, 0
2, 375445, Note_on_c, 0, 59, 0
2, 375469, Note_on_c, 0, 40, 0
2, 375480, Note_on_c, 0, 67, 39
2, 375480, Note_on_c, 0, 58, 40
2, 375480, Note_on_c, 0, 62, 39
2, 375480, Note_on_c, 0, 50, 58
2, 375480, Note_on_c, 0, 53, 58
2, 375588, Note_on_c, 0, 53, 0
2, 375588, Note_on_c, 0, 67, 0
2, 375588, Note_on_c, 0, 50, 0
2, 375719, Note_on_c, 0, 67, 37
2, 375719, Note_on_c, 0, 40, 37
2, 375805, Note_on_c, 0, 62, 0
2, 375805, Note_on_c, 0, 58, 0
2, 375829, Note_on_c, 0, 67, 0
2, 375829, Note_on_c, 0, 40, 0
2, 375840, Note_on_c, 0, 69, 45
2, 375840, Note_on_c, 0, 57, 40
2, 375840, Note_on_c, 0, 61, 39
2, 375840, Note_on_c, 0, 49, 56
2, 375840, Note_on_c, 0, 52, 58
2, 375948, Note_on_c, 0, 52, 0
2, 375948, Note_on_c, 0, 49, 0
2, 376017, Note_on_c, 0, 69, 0
2, 376079, Note_on_c, 0, 40, 39
2, 376165, Note_on_c, 0, 61, 0
2, 376165, Note_on_c, 0, 57, 0
2, 376189, Note_on_c, 0, 40, 0
2, 376200, Note_on_c, 0, 66, 42
2, 376200, Note_on_c, 0, 60, 39
2, 376200, Note_on_c, 0, 51, 57
2, 376308, Note_on_c, 0, 51, 0
2, 376308, Note_on_c, 0, 66, 0
2, 376320, Note_on_c, 0, 67, 43
2, 376428, Note_on_c, 0, 67, 0
2, 376439, Note_on_c, 0, 69, 44
2, 376439, Note_on_c, 0, 40, 39
2, 376525, Note_on_c, 0, 60, 0
2, 376549, Note_on_c, 0, 40, 0
2, 376549, Note_on_c, 0, 69, 0
2, 376560, Note_on_c, 0, 71, 76
2, 376560, Note_on_c, 0, 59, 49
2, 376560, Note_on_c, 0, 64, 50
2, 376560, Note_on_c, 0, 50, 54
2, 376560, Note_on_c, 0, 50, 39
2, 376668, Note_on_c, 0, 50, 0
2, 376680, Note_on_c, 0, 56, 51
2, 376737, Note_on_c, 0, 50, 0
2, 376788, Note_on_c, 0, 56, 0
2, 376799, Note_on_c, 0, 40, 31
2, 376885, Note_on_c, 0, 71, 0
2, 376885, Note_on_c, 0, 64, 0
2, 376885, Note_on_c, 0, 59, 0
2, 376909, Note_on_c, 0, 40, 0
2, 376920, Note_on_c, 0, 69, 38
2, 376920, Note_on_c, 0, 57, 42
2, 376920, Note_on_c, 0, 64, 44
2, 376920, Note_on_c, 0, 48, 53
2, 376920, Note_on_c, 0, 48, 39
2, 377028, Note_on_c, 0, 48, 0
2, 377028, Note_on_c, 0, 69, 0
2, 377040, Note_on_c, 0, 55, 53
2, 377097, Note_on_c, 0, 48, 0
2, 377148, Note_on_c, 0, 55, 0
2, 377159, Note_on_c, 0, 69, 37
2, 377159, Note_on_c, 0, 40, 32
2, 377245, Note_on_c, 0, 64, 0
2, 377245, Note_on_c, 0, 57, 0
2, 377269, Note_on_c, 0, 69, 0
2, 377269, Note_on_c, 0, 40, 0
2, 377280, Note_on_c, 0, 71, 46
2, 377280, Note_on_c, 0, 57, 39
2, 377280, Note_on_c, 0, 63, 41
2, 377280, Note_on_c, 0, 47, 53
2, 377280, Note_on_c, 0, 47, 40
2, 377388, Note_on_c, 0, 47, 0
2, 377400, Note_on_c, 0, 54, 52
2, 377457, Note_on_c, 0, 71, 0
2, 377457, Note_on_c, 0, 47, 0
2, 377508, Note_on_c, 0, 54, 0
2, 377519, Note_on_c, 0, 40, 30
2, 377605, Note_on_c, 0, 63, 0
2, 377605, Note_on_c, 0, 57, 0
2, 377629, Note_on_c, 0, 40, 0
2, 377640, Note_on_c, 0, 67, 39
2, 377640, Note_on_c, 0, 55, 40
2, 377640, Note_on_c, 0, 62, 42
2, 377640, Note_on_c, 0, 46, 49
2, 377640, Note_on_c, 0, 46, 38
2, 377748, Note_on_c, 0, 46, 0
2, 377748, Note_on_c, 0, 67, 0
2, 377760, Note_on_c, 0, 53, 51
2, 377817, Note_on_c, 0, 46, 0
2, 377868, Note_on_c, 0, 53, 0
2, 377879, Note_on_c, 0, 67, 40
2, 377879, Note_on_c, 0, 40, 32
2, 377965, Note_on_c, 0, 62, 0
2, 377965, Note_on_c, 0, 55, 0
2, 377989, Note_on_c, 0, 67, 0
2, 377989, Note_on_c, 0, 40, 0
2, 378000, Note_on_c, 0, 69, 49
2, 378000, Note_on_c, 0, 55, 39
2, 378000, Note_on_c, 0, 61, 40
2, 378000, Note_on_c, 0, 45, 50
2, 378000, Note_on_c, 0, 45, 40
2, 378059, Note_on_c, 0, 69, 0
2, 378108, Note_on_c, 0, 45, 0
2, 378120, Note_on_c, 0, 52, 50
2, 378177, Note_on_c, 0, 45, 0
2, 378228, Note_on_c, 0, 52, 0
2, 378239, Note_on_c, 0, 66, 37
2, 378239, Note_on_c, 0, 40, 30
2, 378325, Note_on_c, 0, 61, 0
2, 378325, Note_on_c, 0, 55, 0
2, 378349, Note_on_c, 0, 66, 0
2, 378349, Note_on_c, 0, 40, 0
2, 378360, Note_on_c, 0, 67, 46
2, 378360, Note_on_c, 0, 60, 40
2, 378360, Note_on_c, 0, 45, 50
2, 378360, Note_on_c, 0, 45, 44
2, 378468, Note_on_c, 0, 45, 0
2, 378468, Note_on_c, 0, 67, 0
2, 378480, Note_on_c, 0, 69, 45
2, 378480, Note_on_c, 0, 51, 50
2, 378537, Note_on_c, 0, 45, 0
2, 378588, Note_on_c, 0, 51, 0
2, 378588, Note_on_c, 0, 69, 0
2, 378599, Note_on_c, 0, 71, 45
2, 378599, Note_on_c, 0, 40, 33
2, 378685, Note_on_c, 0, 60, 0
2, 378709, Note_on_c, 0, 40, 0
2, 378709, Note_on_c, 0, 71, 0
2, 378720, Note_on_c, 0, 72, 46
2, 378720, Note_on_c, 0, 60, 52
2, 378720, Note_on_c, 0, 64, 51
2, 378720, Note_on_c, 0, 48, 88
2, 378720, Note_on_c, 0, 52, 87
2, 378897, Note_on_c, 0, 72, 0
2, 379045, Note_on_c, 0, 48, 0
2, 379045, Note_on_c, 0, 60, 0
2, 379045, Note_on_c, 0, 64, 0
2, 379045, Note_on_c, 0, 52, 0
2, 379080, Note_on_c, 0, 71, 45
2, 379080, Note_on_c, 0, 64, 46
2, 379080, Note_on_c, 0, 67, 48
2, 379080, Note_on_c, 0, 62, 58
2, 379080, Note_on_c, 0, 62, 54
2, 379188, Note_on_c, 0, 62, 0
2, 379188, Note_on_c, 0, 71, 0
2, 379200, Note_on_c, 0, 55, 36
2, 379257, Note_on_c, 0, 64, 0
2, 379257, Note_on_c, 0, 67, 0
2, 379308, Note_on_c, 0, 55, 0
2, 379319, Note_on_c, 0, 71, 39
2, 379319, Note_on_c, 0, 52, 39
2, 379405, Note_on_c, 0, 62, 0
2, 379429, Note_on_c, 0, 52, 0
2, 379429, Note_on_c, 0, 71, 0
2, 379440, Note_on_c, 0, 72, 46
2, 379440, Note_on_c, 0, 64, 44
2, 379440, Note_on_c, 0, 67, 43
2, 379440, Note_on_c, 0, 60, 56
2, 379440, Note_on_c, 0, 60, 41
2, 379548, Note_on_c, 0, 60, 0
2, 379560, Note_on_c, 0, 55, 38
2, 379617, Note_on_c, 0, 67, 0
2, 379617, Note_on_c, 0, 72, 0
2, 379617, Note_on_c, 0, 64, 0
2, 379668, Note_on_c, 0, 55, 0
2, 379679, Note_on_c, 0, 48, 32
2, 379765, Note_on_c, 0, 60, 0
2, 379789, Note_on_c, 0, 48, 0
2, 379800, Note_on_c, 0, 69, 44
2, 379800, Note_on_c, 0, 64, 44
2, 379800, Note_on_c, 0, 67, 47
2, 379800, Note_on_c, 0, 59, 57
2, 379800, Note_on_c, 0, 59, 41
2, 379908, Note_on_c, 0, 59, 0
2, 379908, Note_on_c, 0, 69, 0
2, 379920, Note_on_c, 0, 71, 51
2, 379920, Note_on_c, 0, 48, 32
2, 379977, Note_on_c, 0, 64, 0
2, 379977, Note_on_c, 0, 67, 0
2, 380028, Note_on_c, 0, 48, 0
2, 380028, Note_on_c, 0, 71, 0
2, 380039, Note_on_c, 0, 72, 49
2, 380039, Note_on_c, 0, 40, 33
2, 380125, Note_on_c, 0, 59, 0
2, 380149, Note_on_c, 0, 40, 0
2, 380149, Note_on_c, 0, 72, 0
2, 380160, Note_on_c, 0, 74, 53
2, 380160, Note_on_c, 0, 62, 47
2, 380160, Note_on_c, 0, 65, 47
2, 380160, Note_on_c, 0, 50, 59
2, 380160, Note_on_c, 0, 57, 57
2, 380337, Note_on_c, 0, 65, 0
2, 380337, Note_on_c, 0, 74, 0
2, 380337, Note_on_c, 0, 62, 0
2, 380485, Note_on_c, 0, 50, 0
2, 380485, Note_on_c, 0, 57, 0
2, 380520, Note_on_c, 0, 72, 48
2, 380520, Note_on_c, 0, 65, 52
2, 380520, Note_on_c, 0, 69, 55
2, 380520, Note_on_c, 0, 64, 56
2, 380520, Note_on_c, 0, 64, 50
2, 380628, Note_on_c, 0, 64, 0
2, 380628, Note_on_c, 0, 72, 0
2, 380640, Note_on_c, 0, 57, 38
2, 380697, Note_on_c, 0, 65, 0
2, 380697, Note_on_c, 0, 69, 0
2, 380748, Note_on_c, 0, 57, 0
2, 380759, Note_on_c, 0, 72, 42
2, 380759, Note_on_c, 0, 53, 34
2, 380845, Note_on_c, 0, 64, 0
2, 380869, Note_on_c, 0, 53, 0
2, 380869, Note_on_c, 0, 72, 0
2, 380880, Note_on_c, 0, 74, 52
2, 380880, Note_on_c, 0, 65, 48
2, 380880, Note_on_c, 0, 69, 48
2, 380880, Note_on_c, 0, 62, 54
2, 380880, Note_on_c, 0, 62, 40
2, 380988, Note_on_c, 0, 62, 0
2, 381000, Note_on_c, 0, 57, 36
2, 381057, Note_on_c, 0, 69, 0
2, 381057, Note_on_c, 0, 74, 0
2, 381057, Note_on_c, 0, 65, 0
2, 381108, Note_on_c, 0, 57, 0
2, 381119, Note_on_c, 0, 50, 32
2, 381205, Note_on_c, 0, 62, 0
2, 381229, Note_on_c, 0, 50, 0
2, 381240, Note_on_c, 0, 71, 52
2, 381240, Note_on_c, 0, 65, 45
2, 381240, Note_on_c, 0, 62, 57
2, 381348, Note_on_c, 0, 62, 0
2, 381348, Note_on_c, 0, 71, 0
2, 381360, Note_on_c, 0, 72, 56
2, 381360, Note_on_c, 0, 60, 42
2, 381468, Note_on_c, 0, 60, 0
2, 381468, Note_on_c, 0, 72, 0
2, 381479, Note_on_c, 0, 74, 58
2, 381479, Note_on_c, 0, 59, 42
2, 381565, Note_on_c, 0, 65, 0
2, 381589, Note_on_c, 0, 59, 0
2, 381589, Note_on_c, 0, 74, 0
2, 381600, Note_on_c, 0, 76, 61
2, 381600, Note_on_c, 0, 72, 63
2, 381600, Note_on_c, 0, 57, 52
2, 381600, Note_on_c, 0, 60, 53
2, 381600, Note_on_c, 0, 64, 53
2, 381708, Note_on_c, 0, 72, 0
2, 381720, Note_on_c, 0, 68, 46
2, 381777, Note_on_c, 0, 76, 0
2, 381828, Note_on_c, 0, 68, 0
2, 381839, Note_on_c, 0, 69, 52
2, 381925, Note_on_c, 0, 60, 0
2, 381925, Note_on_c, 0, 64, 0
2, 381925, Note_on_c, 0, 57, 0
2, 381949, Note_on_c, 0, 69, 0
2, 381960, Note_on_c, 0, 74, 53
2, 381960, Note_on_c, 0, 71, 59
2, 381960, Note_on_c, 0, 53, 44
2, 381960, Note_on_c, 0, 59, 43
2, 381960, Note_on_c, 0, 62, 45
2, 382068, Note_on_c, 0, 62, 0
2, 382068, Note_on_c, 0, 53, 0
2, 382068, Note_on_c, 0, 59, 0
2, 382068, Note_on_c, 0, 71, 0
2, 382080, Note_on_c, 0, 67, 46
2, 382137, Note_on_c, 0, 74, 0
2, 382188, Note_on_c, 0, 67, 0
2, 382199, Note_on_c, 0, 68, 57
2, 382199, Note_on_c, 0, 53, 38
2, 382199, Note_on_c, 0, 59, 39
2, 382199, Note_on_c, 0, 62, 37
2, 382309, Note_on_c, 0, 62, 0
2, 382309, Note_on_c, 0, 68, 0
2, 382309, Note_on_c, 0, 53, 0
2, 382309, Note_on_c, 0, 59, 0
2, 382320, Note_on_c, 0, 76, 57
2, 382320, Note_on_c, 0, 72, 63
2, 382320, Note_on_c, 0, 52, 45
2, 382320, Note_on_c, 0, 60, 43
2, 382320, Note_on_c, 0, 64, 46
2, 382428, Note_on_c, 0, 72, 0
2, 382440, Note_on_c, 0, 66, 46
2, 382497, Note_on_c, 0, 76, 0
2, 382548, Note_on_c, 0, 66, 0
2, 382559, Note_on_c, 0, 67, 55
2, 382645, Note_on_c, 0, 60, 0
2, 382645, Note_on_c, 0, 64, 0
2, 382645, Note_on_c, 0, 52, 0
2, 382669, Note_on_c, 0, 67, 0
2, 382680, Note_on_c, 0, 69, 46
2, 382680, Note_on_c, 0, 65, 55
2, 382680, Note_on_c, 0, 40, 28
2, 382788, Note_on_c, 0, 65, 0
2, 382800, Note_on_c, 0, 64, 56
2, 382857, Note_on_c, 0, 69, 0
2, 382908, Note_on_c, 0, 64, 0
2, 382919, Note_on_c, 0, 65, 61
2, 383005, Note_on_c, 0, 40, 0
2, 383029, Note_on_c, 0, 65, 0
2, 383040, Note_on_c, 0, 76, 73
2, 383040, Note_on_c, 0, 72, 75
2, 383040, Note_on_c, 0, 57, 57
2, 383040, Note_on_c, 0, 60, 57
2, 383040, Note_on_c, 0, 64, 58
2, 383148, Note_on_c, 0, 72, 0
2, 383160, Note_on_c, 0, 68, 53
2, 383217, Note_on_c, 0, 76, 0
2, 383268, Note_on_c, 0, 68, 0
2, 383279, Note_on_c, 0, 69, 62
2, 383365, Note_on_c, 0, 60, 0
2, 383365, Note_on_c, 0, 64, 0
2, 383365, Note_on_c, 0, 57, 0
2, 383389, Note_on_c, 0, 69, 0
2, 383400, Note_on_c, 0, 77, 64
2, 383400, Note_on_c, 0, 74, 72
2, 383400, Note_on_c, 0, 56, 51
2, 383400, Note_on_c, 0, 62, 51
2, 383400, Note_on_c, 0, 65, 49
2, 383508, Note_on_c, 0, 65, 0
2, 383508, Note_on_c, 0, 56, 0
2, 383508, Note_on_c, 0, 62, 0
2, 383508, Note_on_c, 0, 74, 0
2, 383520, Note_on_c, 0, 70, 53
2, 383577, Note_on_c, 0, 77, 0
2, 383628, Note_on_c, 0, 70, 0
2, 383639, Note_on_c, 0, 71, 65
2, 383639, Note_on_c, 0, 56, 37
2, 383639, Note_on_c, 0, 62, 38
2, 383639, Note_on_c, 0, 65, 39
2, 383749, Note_on_c, 0, 65, 0
2, 383749, Note_on_c, 0, 71, 0
2, 383749, Note_on_c, 0, 56, 0
2, 383749, Note_on_c, 0, 62, 0
2, 383760, Note_on_c, 0, 79, 66
2, 383760, Note_on_c, 0, 76, 75
2, 383760, Note_on_c, 0, 55, 44
2, 383760, Note_on_c, 0, 64, 45
2, 383760, Note_on_c, 0, 67, 46
2, 383868, Note_on_c, 0, 76, 0
2, 383880, Note_on_c, 0, 71, 56
2, 383937, Note_on_c, 0, 79, 0
2, 383988, Note_on_c, 0, 71, 0
2, 383999, Note_on_c, 0, 72, 67
2, 384085, Note_on_c, 0, 64, 0
2, 384085, Note_on_c, 0, 67, 0
2, 384085, Note_on_c, 0, 55, 0
2, 384109, Note_on_c, 0, 72, 0
2, 384120, Note_on_c, 0, 77, 60
2, 384120, Note_on_c, 0, 73, 72
2, 384120, Note_on_c, 0, 57, 43
2, 384120, Note_on_c, 0, 61, 44
2, 384120, Note_on_c, 0, 65, 42
2, 384228, Note_on_c, 0, 65, 0
2, 384228, Note_on_c, 0, 57, 0
2, 384228, Note_on_c, 0, 77, 0
2, 384228, Note_on_c, 0, 73, 0
2, 384228, Note_on_c, 0, 61, 0
2, 384240, Note_on_c, 0, 73, 66
2, 384348, Note_on_c, 0, 73, 0
2, 384359, Note_on_c, 0, 79, 54
2, 384359, Note_on_c, 0, 73, 65
2, 384359, Note_on_c, 0, 57, 36
2, 384359, Note_on_c, 0, 61, 40
2, 384359, Note_on_c, 0, 67, 37
2, 384469, Note_on_c, 0, 67, 0
2, 384469, Note_on_c, 0, 57, 0
2, 384469, Note_on_c, 0, 79, 0
2, 384469, Note_on_c, 0, 73, 0
2, 384469, Note_on_c, 0, 61, 0
2, 384480, Note_on_c, 0, 81, 72
2, 384480, Note_on_c, 0, 77, 77
2, 384480, Note_on_c, 0, 62, 48
2, 384480, Note_on_c, 0, 65, 49
2, 384480, Note_on_c, 0, 69, 47
2, 384588, Note_on_c, 0, 77, 0
2, 384600, Note_on_c, 0, 73, 61
2, 384657, Note_on_c, 0, 81, 0
2, 384708, Note_on_c, 0, 73, 0
2, 384719, Note_on_c, 0, 74, 70
2, 384805, Note_on_c, 0, 65, 0
2, 384805, Note_on_c, 0, 69, 0
2, 384805, Note_on_c, 0, 62, 0
2, 384829, Note_on_c, 0, 74, 0
2, 384840, Note_on_c, 0, 79, 60
2, 384840, Note_on_c, 0, 76, 74
2, 384840, Note_on_c, 0, 58, 44
2, 384840, Note_on_c, 0, 64, 43
2, 384840, Note_on_c, 0, 67, 44
2, 384948, Note_on_c, 0, 67, 0
2, 384948, Note_on_c, 0, 58, 0
2, 384948, Note_on_c, 0, 64, 0
2, 384948, Note_on_c, 0, 76, 0
2, 384960, Note_on_c, 0, 72, 62
2, 385017, Note_on_c, 0, 79, 0
2, 385068, Note_on_c, 0, 72, 0
2, 385079, Note_on_c, 0, 73, 74
2, 385079, Note_on_c, 0, 58, 38
2, 385079, Note_on_c, 0, 64, 37
2, 385079, Note_on_c, 0, 67, 37
2, 385189, Note_on_c, 0, 67, 0
2, 385189, Note_on_c, 0, 73, 0
2, 385189, Note_on_c, 0, 58, 0
2, 385189, Note_on_c, 0, 64, 0
2, 385200, Note_on_c, 0, 81, 68
2, 385200, Note_on_c, 0, 77, 79
2, 385200, Note_on_c, 0, 57, 44
2, 385200, Note_on_c, 0, 65, 45
2, 385200, Note_on_c, 0, 69, 46
2, 385308, Note_on_c, 0, 77, 0
2, 385320, Note_on_c, 0, 71, 59
2, 385377, Note_on_c, 0, 81, 0
2, 385428, Note_on_c, 0, 71, 0
2, 385439, Note_on_c, 0, 72, 70
2, 385525, Note_on_c, 0, 65, 0
2, 385525, Note_on_c, 0, 69, 0
2, 385525, Note_on_c, 0, 57, 0
2, 385549, Note_on_c, 0, 72, 0
2, 385560, Note_on_c, 0, 72, 53
2, 385560, Note_on_c, 0, 69, 69
2, 385560, Note_on_c, 0, 40, 49
2, 385668, Note_on_c, 0, 69, 0
2, 385680, Note_on_c, 0, 68, 66
2, 385737, Note_on_c, 0, 72, 0
2, 385788, Note_on_c, 0, 68, 0
2, 385799, Note_on_c, 0, 69, 75
2, 385885, Note_on_c, 0, 40, 0
2, 385909, Note_on_c, 0, 69, 0
2, 385920, Note_on_c, 0, 81, 88
2, 385920, Note_on_c, 0, 77, 92
2, 385920, Note_on_c, 0, 62, 56
2, 385920, Note_on_c, 0, 65, 54
2, 385920, Note_on_c, 0, 69, 54
2, 386028, Note_on_c, 0, 77, 0
2, 386040, Note_on_c, 0, 73, 67
2, 386097, Note_on_c, 0, 81, 0
2, 386148, Note_on_c, 0, 73, 0
2, 386159, Note_on_c, 0, 74, 79
2, 386245, Note_on_c, 0, 65, 0
2, 386245, Note_on_c, 0, 69, 0
2, 386245, Note_on_c, 0, 62, 0
2, 386269, Note_on_c, 0, 74, 0
2, 386280, Note_on_c, 0, 82, 76
2, 386280, Note_on_c, 0, 79, 90
2, 386280, Note_on_c, 0, 61, 50
2, 386280, Note_on_c, 0, 67, 49
2, 386280, Note_on_c, 0, 71, 49
2, 386388, Note_on_c, 0, 71, 0
2, 386388, Note_on_c, 0, 61, 0
2, 386388, Note_on_c, 0, 67, 0
2, 386388, Note_on_c, 0, 79, 0
2, 386400, Note_on_c, 0, 76, 70
2, 386457, Note_on_c, 0, 82, 0
2, 386508, Note_on_c, 0, 76, 0
2, 386519, Note_on_c, 0, 77, 79
2, 386519, Note_on_c, 0, 61, 39
2, 386519, Note_on_c, 0, 67, 38
2, 386519, Note_on_c, 0, 71, 38
2, 386629, Note_on_c, 0, 71, 0
2, 386629, Note_on_c, 0, 77, 0
2, 386629, Note_on_c, 0, 61, 0
2, 386629, Note_on_c, 0, 67, 0
2, 386640, Note_on_c, 0, 84, 77
2, 386640, Note_on_c, 0, 81, 92
2, 386640, Note_on_c, 0, 60, 46
2, 386640, Note_on_c, 0, 69, 43
2, 386640, Note_on_c, 0, 72, 45
2, 386748, Note_on_c, 0, 81, 0
2, 386760, Note_on_c, 0, 77, 68
2, 386817, Note_on_c, 0, 84, 0
2, 386868, Note_on_c, 0, 77, 0
2, 386879, Note_on_c, 0, 77, 76
2, 386965, Note_on_c, 0, 69, 0
2, 386965, Note_on_c, 0, 72, 0
2, 386965, Note_on_c, 0, 60, 0
2, 386989, Note_on_c, 0, 77, 0
2, 387000, Note_on_c, 0, 82, 70
2, 387000, Note_on_c, 0, 80, 92
2, 387000, Note_on_c, 0, 65, 47
2, 387000, Note_on_c, 0, 68, 51
2, 387000, Note_on_c, 0, 74, 50
2, 387108, Note_on_c, 0, 74, 0
2, 387108, Note_on_c, 0, 65, 0
2, 387108, Note_on_c, 0, 82, 0
2, 387108, Note_on_c, 0, 80, 0
2, 387108, Note_on_c, 0, 68, 0
2, 387120, Note_on_c, 0, 79, 76
2, 387228, Note_on_c, 0, 79, 0
2, 387239, Note_on_c, 0, 84, 66
2, 387239, Note_on_c, 0, 80, 84
2, 387239, Note_on_c, 0, 65, 38
2, 387239, Note_on_c, 0, 68, 36
2, 387239, Note_on_c, 0, 76, 36
2, 387349, Note_on_c, 0, 76, 0
2, 387349, Note_on_c, 0, 65, 0
2, 387349, Note_on_c, 0, 84, 0
2, 387349, Note_on_c, 0, 80, 0
2, 387349, Note_on_c, 0, 68, 0
2, 387360, Note_on_c, 0, 86, 80
2, 387360, Note_on_c, 0, 81, 89
2, 387360, Note_on_c, 0, 65, 47
2, 387360, Note_on_c, 0, 69, 46
2, 387360, Note_on_c, 0, 77, 46
2, 387468, Note_on_c, 0, 81, 0
2, 387480, Note_on_c, 0, 80, 79
2, 387537, Note_on_c, 0, 86, 0
2, 387588, Note_on_c, 0, 80, 0
2, 387599, Note_on_c, 0, 81, 88
2, 387685, Note_on_c, 0, 69, 0
2, 387685, Note_on_c, 0, 77, 0
2, 387685, Note_on_c, 0, 65, 0
2, 387709, Note_on_c, 0, 81, 0
2, 387720, Note_on_c, 0, 84, 73
2, 387720, Note_on_c, 0, 76, 77
2, 387720, Note_on_c, 0, 53, 30
2, 387720, Note_on_c, 0, 56, 27
2, 387720, Note_on_c, 0, 60, 30
2, 387720, Note_on_c, 0, 64, 28
2, 387828, Note_on_c, 0, 76, 0
2, 387840, Note_on_c, 0, 75, 76
2, 387897, Note_on_c, 0, 84, 0
2, 387948, Note_on_c, 0, 75, 0
2, 387959, Note_on_c, 0, 76, 87
2, 388045, Note_on_c, 0, 60, 0
2, 388045, Note_on_c, 0, 53, 0
2, 388045, Note_on_c, 0, 56, 0
2, 388045, Note_on_c, 0, 64, 0
2, 388069, Note_on_c, 0, 76, 0
2, 388080, Note_on_c, 0, 86, 81
2, 388080, Note_on_c, 0, 77, 92
2, 388080, Note_on_c, 0, 53, 66
2, 388080, Note_on_c, 0, 57, 68
2, 388080, Note_on_c, 0, 62, 68
2, 388080, Note_on_c, 0, 65, 67
2, 388188, Note_on_c, 0, 77, 0
2, 388200, Note_on_c, 0, 76, 83
2, 388257, Note_on_c, 0, 86, 0
2, 388308, Note_on_c, 0, 76, 0
2, 388319, Note_on_c, 0, 77, 92
2, 388429, Note_on_c, 0, 77, 0
2, 388440, Note_on_c, 0, 81, 70
2, 388440, Note_on_c, 0, 74, 81
2, 388440, Note_on_c, 0, 28, 38
2, 388440, Note_on_c, 0, 40, 37
2, 388548, Note_on_c, 0, 74, 0
2, 388560, Note_on_c, 0, 73, 81
2, 388617, Note_on_c, 0, 81, 0
2, 388668, Note_on_c, 0, 73, 0
2, 388679, Note_on_c, 0, 74, 89
2, 388730, Note_on_c, 0, 57, 0
2, 388730, Note_on_c, 0, 53, 0
2, 388730, Note_on_c, 0, 62, 0
2, 388730, Note_on_c, 0, 65, 0
2, 388765, Note_on_c, 0, 28, 0
2, 388765, Note_on_c, 0, 40, 0
2, 388789, Note_on_c, 0, 74, 0
2, 388800, Note_on_c, 0, 89, 99
2, 388800, Note_on_c, 0, 82, 109
2, 388800, Note_on_c, 0, 53, 45
2, 388800, Note_on_c, 0, 58, 44
2, 388800, Note_on_c, 0, 62, 46
2, 388800, Note_on_c, 0, 65, 45
2, 388908, Note_on_c, 0, 82, 0
2, 388920, Note_on_c, 0, 81, 89
2, 388977, Note_on_c, 0, 89, 0
2, 389028, Note_on_c, 0, 81, 0
2, 389039, Note_on_c, 0, 82, 93
2, 389125, Note_on_c, 0, 62, 0
2, 389125, Note_on_c, 0, 53, 0
2, 389125, Note_on_c, 0, 58, 0
2, 389125, Note_on_c, 0, 65, 0
2, 389149, Note_on_c, 0, 82, 0
2, 389160, Note_on_c, 0, 85, 73
2, 389160, Note_on_c, 0, 81, 90
2, 389160, Note_on_c, 0, 53, 42
2, 389160, Note_on_c, 0, 57, 42
2, 389160, Note_on_c, 0, 61, 39
2, 389160, Note_on_c, 0, 64, 41
2, 389268, Note_on_c, 0, 81, 0
2, 389280, Note_on_c, 0, 80, 87
2, 389337, Note_on_c, 0, 85, 0
2, 389388, Note_on_c, 0, 80, 0
2, 389399, Note_on_c, 0, 81, 94
2, 389485, Note_on_c, 0, 61, 0
2, 389485, Note_on_c, 0, 53, 0
2, 389485, Note_on_c, 0, 57, 0
2, 389485, Note_on_c, 0, 64, 0
2, 389509, Note_on_c, 0, 81, 0
2, 389520, Note_on_c, 0, 86, 85
2, 389520, Note_on_c, 0, 82, 100
2, 389520, Note_on_c, 0, 53, 69
2, 389520, Note_on_c, 0, 58, 69
2, 389520, Note_on_c, 0, 62, 71
2, 389520, Note_on_c, 0, 65, 69
2, 389628, Note_on_c, 0, 82, 0
2, 389640, Note_on_c, 0, 81, 90
2, 389697, Note_on_c, 0, 86, 0
2, 389748, Note_on_c, 0, 81, 0
2, 389759, Note_on_c, 0, 82, 97
2, 389869, Note_on_c, 0, 82, 0
2, 389880, Note_on_c, 0, 82, 75
2, 389880, Note_on_c, 0, 77, 85
2, 389880, Note_on_c, 0, 28, 42
2, 389880, Note_on_c, 0, 40, 40
2, 389988, Note_on_c, 0, 77, 0
2, 390000, Note_on_c, 0, 76, 86
2, 390057, Note_on_c, 0, 82, 0
2, 390108, Note_on_c, 0, 76, 0
2, 390119, Note_on_c, 0, 77, 99
2, 390170, Note_on_c, 0, 58, 0
2, 390170, Note_on_c, 0, 53, 0
2, 390170, Note_on_c, 0, 62, 0
2, 390170, Note_on_c, 0, 65, 0
2, 390205, Note_on_c, 0, 28, 0
2, 390205, Note_on_c, 0, 40, 0
2, 390229, Note_on_c, 0, 77, 0
2, 390240, Note_on_c, 0, 93, 108
2, 390240, Note_on_c, 0, 86, 122
2, 390240, Note_on_c, 0, 53, 46
2, 390240, Note_on_c, 0, 58, 47
2, 390240, Note_on_c, 0, 62, 47
2, 390240, Note_on_c, 0, 65, 45
2, 390348, Note_on_c, 0, 86, 0
2, 390360, Note_on_c, 0, 85, 94
2, 390417, Note_on_c, 0, 93, 0
2, 390468, Note_on_c, 0, 85, 0
2, 390479, Note_on_c, 0, 86, 100
2, 390565, Note_on_c, 0, 62, 0
2, 390565, Note_on_c, 0, 53, 0
2, 390565, Note_on_c, 0, 58, 0
2, 390565, Note_on_c, 0, 65, 0
2, 390589, Note_on_c, 0, 86, 0
2, 390600, Note_on_c, 0, 88, 75
2, 390600, Note_on_c, 0, 85, 97
2, 390600, Note_on_c, 0, 53, 39
2, 390600, Note_on_c, 0, 58, 42
2, 390600, Note_on_c, 0, 61, 40
2, 390600, Note_on_c, 0, 64, 41
2, 390708, Note_on_c, 0, 85, 0
2, 390720, Note_on_c, 0, 84, 92
2, 390777, Note_on_c, 0, 88, 0
2, 390828, Note_on_c, 0, 84, 0
2, 390839, Note_on_c, 0, 85, 102
2, 390925, Note_on_c, 0, 61, 0
2, 390925, Note_on_c, 0, 53, 0
2, 390925, Note_on_c, 0, 58, 0
2, 390925, Note_on_c, 0, 64, 0
2, 390949, Note_on_c, 0, 85, 0
2, 390960, Note_on_c, 0, 89, 92
2, 390960, Note_on_c, 0, 86, 107
2, 390960, Note_on_c, 0, 53, 70
2, 390960, Note_on_c, 0, 59, 70
2, 390960, Note_on_c, 0, 62, 70
2, 390960, Note_on_c, 0, 65, 72
2, 391068, Note_on_c, 0, 86, 0
2, 391080, Note_on_c, 0, 85, 96
2, 391137, Note_on_c, 0, 89, 0
2, 391188, Note_on_c, 0, 85, 0
2, 391199, Note_on_c, 0, 86, 106
2, 391309, Note_on_c, 0, 86, 0
2, 391320, Note_on_c, 0, 86, 78
2, 391320, Note_on_c, 0, 81, 92
2, 391320, Note_on_c, 0, 28, 37
2, 391320, Note_on_c, 0, 40, 36
2, 391428, Note_on_c, 0, 81, 0
2, 391440, Note_on_c, 0, 80, 95
2, 391497, Note_on_c, 0, 86, 0
2, 391548, Note_on_c, 0, 80, 0
2, 391559, Note_on_c, 0, 81, 107
2, 391610, Note_on_c, 0, 59, 0
2, 391610, Note_on_c, 0, 53, 0
2, 391610, Note_on_c, 0, 62, 0
2, 391610, Note_on_c, 0, 65, 0
2, 391645, Note_on_c, 0, 28, 0
2, 391645, Note_on_c, 0, 40, 0
2, 391669, Note_on_c, 0, 81, 0
2, 391680, Note_on_c, 0, 89, 78
2, 391680, Note_on_c, 0, 93, 78
2, 391680, Note_on_c, 0, 53, 46
2, 391680, Note_on_c, 0, 60, 45
2, 391680, Note_on_c, 0, 62, 47
2, 391680, Note_on_c, 0, 65, 47
2, 391788, Note_on_c, 0, 93, 0
2, 391788, Note_on_c, 0, 89, 0
2, 391800, Note_on_c, 0, 88, 78
2, 391908, Note_on_c, 0, 88, 0
2, 391919, Note_on_c, 0, 89, 92
2, 392005, Note_on_c, 0, 53, 0
2, 392005, Note_on_c, 0, 62, 0
2, 392005, Note_on_c, 0, 60, 0
2, 392005, Note_on_c, 0, 65, 0
2, 392029, Note_on_c, 0, 89, 0
2, 392040, Note_on_c, 0, 81, 75
2, 392040, Note_on_c, 0, 53, 42
2, 392040, Note_on_c, 0, 59, 41
2, 392040, Note_on_c, 0, 62, 43
2, 392040, Note_on_c, 0, 65, 43
2, 392148, Note_on_c, 0, 65, 0
2, 392148, Note_on_c, 0, 59, 0
2, 392148, Note_on_c, 0, 81, 0
2, 392148, Note_on_c, 0, 53, 0
2, 392148, Note_on_c, 0, 62, 0
2, 392160, Note_on_c, 0, 89, 110
2, 392268, Note_on_c, 0, 89, 0
2, 392279, Note_on_c, 0, 88, 89
2, 392279, Note_on_c, 0, 53, 37
2, 392279, Note_on_c, 0, 59, 39
2, 392279, Note_on_c, 0, 62, 39
2, 392279, Note_on_c, 0, 65, 36
2, 392389, Note_on_c, 0, 65, 0
2, 392389, Note_on_c, 0, 59, 0
2, 392389, Note_on_c, 0, 88, 0
2, 392389, Note_on_c, 0, 53, 0
2, 392389, Note_on_c, 0, 62, 0
2, 392400, Note_on_c, 0, 89, 112
2, 392400, Note_on_c, 0, 93, 110
2, 392400, Note_on_c, 0, 53, 43
2, 392400, Note_on_c, 0, 60, 42
2, 392400, Note_on_c, 0, 62, 41
2, 392400, Note_on_c, 0, 65, 44
2, 392508, Note_on_c, 0, 93, 0
2, 392508, Note_on_c, 0, 89, 0
2, 392520, Note_on_c, 0, 88, 84
2, 392628, Note_on_c, 0, 88, 0
2, 392639, Note_on_c, 0, 89, 98
2, 392725, Note_on_c, 0, 53, 0
2, 392725, Note_on_c, 0, 62, 0
2, 392725, Note_on_c, 0, 60, 0
2, 392725, Note_on_c, 0, 65, 0
2, 392749, Note_on_c, 0, 89, 0
2, 392760, Note_on_c, 0, 81, 74
2, 392760, Note_on_c, 0, 53, 41
2, 392760, Note_on_c, 0, 61, 42
2, 392760, Note_on_c, 0, 65, 43
2, 392868, Note_on_c, 0, 81, 0
2, 392880, Note_on_c, 0, 89, 114
2, 392988, Note_on_c, 0, 89, 0
2, 392999, Note_on_c, 0, 93, 112
2, 393039, Note_on_c, 0, 31, 46
2, 393039, Note_on_c, 0, 43, 44
2, 393085, Note_on_c, 0, 65, 0
2, 393085, Note_on_c, 0, 53, 0
2, 393085, Note_on_c, 0, 61, 0
2, 393109, Note_on_c, 0, 93, 0
2, 393120, Note_on_c, 0, 86, 122
2, 393120, Note_on_c, 0, 94, 122
2, 393120, Note_on_c, 0, 98, 122
2, 393120, Note_on_c, 0, 50, 40
2, 393120, Note_on_c, 0, 58, 40
2, 393120, Note_on_c, 0, 62, 39
2, 393445, Note_on_c, 0, 62, 0
2, 393445, Note_on_c, 0, 58, 0
2, 393445, Note_on_c, 0, 98, 0
2, 393445, Note_on_c, 0, 94, 0
2, 393445, Note_on_c, 0, 86, 0
2, 393445, Note_on_c, 0, 50, 0
2, 393480, Note_on_c, 0, 93, 104
2, 393480, Note_on_c, 0, 96, 104
2, 393480, Note_on_c, 0, 62, 53
2, 393480, Note_on_c, 0, 69, 53
2, 393480, Note_on_c, 0, 72, 55
2, 393588, Note_on_c, 0, 72, 0
2, 393588, Note_on_c, 0, 62, 0
2, 393588, Note_on_c, 0, 96, 0
2, 393588, Note_on_c, 0, 93, 0
2, 393588, Note_on_c, 0, 69, 0
2, 393600, Note_on_c, 0, 86, 77
2, 393708, Note_on_c, 0, 86, 0
2, 393719, Note_on_c, 0, 93, 122
2, 393719, Note_on_c, 0, 96, 122
2, 393719, Note_on_c, 0, 69, 39
2, 393719, Note_on_c, 0, 72, 36
2, 393829, Note_on_c, 0, 72, 0
2, 393829, Note_on_c, 0, 96, 0
2, 393829, Note_on_c, 0, 93, 0
2, 393829, Note_on_c, 0, 69, 0
2, 393840, Note_on_c, 0, 94, 119
2, 393840, Note_on_c, 0, 98, 118
2, 393840, Note_on_c, 0, 62, 45
2, 393840, Note_on_c, 0, 70, 45
2, 393840, Note_on_c, 0, 74, 45
2, 393948, Note_on_c, 0, 98, 0
2, 393948, Note_on_c, 0, 94, 0
2, 393960, Note_on_c, 0, 86, 75
2, 394068, Note_on_c, 0, 86, 0
2, 394079, Note_on_c, 0, 94, 121
2, 394079, Note_on_c, 0, 98, 121
2, 394165, Note_on_c, 0, 74, 0
2, 394165, Note_on_c, 0, 62, 0
2, 394165, Note_on_c, 0, 70, 0
2, 394189, Note_on_c, 0, 98, 0
2, 394189, Note_on_c, 0, 94, 0
2, 394200, Note_on_c, 0, 69, 51
2, 394200, Note_on_c, 0, 78, 51
2, 394308, Note_on_c, 0, 78, 0
2, 394308, Note_on_c, 0, 69, 0
2, 394320, Note_on_c, 0, 90, 96
2, 394320, Note_on_c, 0, 93, 95
2, 394428, Note_on_c, 0, 93, 0
2, 394428, Note_on_c, 0, 90, 0
2, 394439, Note_on_c, 0, 84, 80
2, 394439, Note_on_c, 0, 78, 39
2, 394490, Note_on_c, 0, 31, 0
2, 394490, Note_on_c, 0, 43, 0
2, 394549, Note_on_c, 0, 84, 0
2, 394549, Note_on_c, 0, 78, 0
2, 394560, Note_on_c, 0, 70, 46
2, 394560, Note_on_c, 0, 79, 48
2, 394680, Note_on_c, 0, 91, 92
2, 394680, Note_on_c, 0, 94, 93
2, 394788, Note_on_c, 0, 94, 0
2, 394788, Note_on_c, 0, 91, 0
2, 394799, Note_on_c, 0, 82, 74
2, 394885, Note_on_c, 0, 79, 0
2, 394885, Note_on_c, 0, 70, 0
2, 394909, Note_on_c, 0, 82, 0
2, 394920, Note_on_c, 0, 60, 30
2, 394920, Note_on_c, 0, 69, 31
2, 395028, Note_on_c, 0, 69, 0
2, 395028, Note_on_c, 0, 60, 0
2, 395040, Note_on_c, 0, 81, 92
2, 395040, Note_on_c, 0, 84, 92
2, 395148, Note_on_c, 0, 84, 0
2, 395148, Note_on_c, 0, 81, 0
2, 395159, Note_on_c, 0, 72, 72
2, 395159, Note_on_c, 0, 69, 36
2, 395269, Note_on_c, 0, 69, 0
2, 395269, Note_on_c, 0, 72, 0
2, 395280, Note_on_c, 0, 62, 42
2, 395280, Note_on_c, 0, 70, 44
2, 395400, Note_on_c, 0, 82, 95
2, 395400, Note_on_c, 0, 86, 92
2, 395508, Note_on_c, 0, 86, 0
2, 395508, Note_on_c, 0, 82, 0
2, 395519, Note_on_c, 0, 74, 75
2, 395605, Note_on_c, 0, 70, 0
2, 395605, Note_on_c, 0, 62, 0
2, 395629, Note_on_c, 0, 74, 0
2, 395640, Note_on_c, 0, 57, 37
2, 395640, Note_on_c, 0, 66, 39
2, 395748, Note_on_c, 0, 66, 0
2, 395748, Note_on_c, 0, 57, 0
2, 395760, Note_on_c, 0, 78, 93
2, 395760, Note_on_c, 0, 81, 94
2, 395868, Note_on_c, 0, 81, 0
2, 395868, Note_on_c, 0, 78, 0
2, 395879, Note_on_c, 0, 69, 74
2, 395879, Note_on_c, 0, 66, 37
2, 395989, Note_on_c, 0, 66, 0
2, 395989, Note_on_c, 0, 69, 0
2, 396000, Note_on_c, 0, 58, 46
2, 396000, Note_on_c, 0, 67, 46
2, 396120, Note_on_c, 0, 79, 93
2, 396120, Note_on_c, 0, 82, 92
2, 396228, Note_on_c, 0, 82, 0
2, 396228, Note_on_c, 0, 79, 0
2, 396239, Note_on_c, 0, 70, 74
2, 396325, Note_on_c, 0, 67, 0
2, 396325, Note_on_c, 0, 58, 0
2, 396349, Note_on_c, 0, 70, 0
2, 396360, Note_on_c, 0, 48, 32
2, 396360, Note_on_c, 0, 57, 33
2, 396468, Note_on_c, 0, 57, 0
2, 396468, Note_on_c, 0, 48, 0
2, 396480, Note_on_c, 0, 69, 93
2, 396480, Note_on_c, 0, 72, 95
2, 396588, Note_on_c, 0, 72, 0
2, 396588, Note_on_c, 0, 69, 0
2, 396599, Note_on_c, 0, 60, 73
2, 396599, Note_on_c, 0, 57, 38
2, 396709, Note_on_c, 0, 57, 0
2, 396709, Note_on_c, 0, 60, 0
2, 396720, Note_on_c, 0, 50, 44
2, 396720, Note_on_c, 0, 58, 46
2, 396840, Note_on_c, 0, 70, 94
2, 396840, Note_on_c, 0, 74, 94
2, 396948, Note_on_c, 0, 74, 0
2, 396948, Note_on_c, 0, 70, 0
2, 396959, Note_on_c, 0, 62, 72
2, 397045, Note_on_c, 0, 58, 0
2, 397045, Note_on_c, 0, 50, 0
2, 397069, Note_on_c, 0, 62, 0
2, 397080, Note_on_c, 0, 45, 36
2, 397080, Note_on_c, 0, 54, 36
2, 397188, Note_on_c, 0, 54, 0
2, 397188, Note_on_c, 0, 45, 0
2, 397200, Note_on_c, 0, 66, 92
2, 397200, Note_on_c, 0, 69, 93
2, 397308, Note_on_c, 0, 69, 0
2, 397308, Note_on_c, 0, 66, 0
2, 397319, Note_on_c, 0, 57, 74
2, 397319, Note_on_c, 0, 54, 37
2, 397429, Note_on_c, 0, 54, 0
2, 397429, Note_on_c, 0, 57, 0
2, 397440, Note_on_c, 0, 46, 46
2, 397440, Note_on_c, 0, 55, 46
2, 397560, Note_on_c, 0, 67, 93
2, 397560, Note_on_c, 0, 70, 94
2, 397668, Note_on_c, 0, 70, 0
2, 397668, Note_on_c, 0, 67, 0
2, 397679, Note_on_c, 0, 58, 71
2, 397765, Note_on_c, 0, 55, 0
2, 397765, Note_on_c, 0, 46, 0
2, 397789, Note_on_c, 0, 58, 0
2, 397800, Note_on_c, 0, 36, 29
2, 397800, Note_on_c, 0, 45, 33
2, 397908, Note_on_c, 0, 45, 0
2, 397908, Note_on_c, 0, 36, 0
2, 397920, Note_on_c, 0, 57, 96
2, 397920, Note_on_c, 0, 60, 94
2, 398028, Note_on_c, 0, 60, 0
2, 398028, Note_on_c, 0, 57, 0
2, 398039, Note_on_c, 0, 48, 75
2, 398039, Note_on_c, 0, 45, 37
2, 398149, Note_on_c, 0, 45, 0
2, 398149, Note_on_c, 0, 48, 0
2, 398160, Note_on_c, 0, 38, 43
2, 398160, Note_on_c, 0, 46, 45
2, 398280, Note_on_c, 0, 58, 94
2, 398280, Note_on_c, 0, 62, 96
2, 398388, Note_on_c, 0, 62, 0
2, 398388, Note_on_c, 0, 58, 0
2, 398399, Note_on_c, 0, 50, 75
2, 398485, Note_on_c, 0, 46, 0
2, 398485, Note_on_c, 0, 38, 0
2, 398509, Note_on_c, 0, 50, 0
2, 398520, Note_on_c, 0, 31, 40
2, 398520, Note_on_c, 0, 43, 36
2, 398628, Note_on_c, 0, 43, 0
2, 398628, Note_on_c, 0, 31, 0
2, 398759, Note_on_c, 0, 31, 37
2, 398759, Note_on_c, 0, 43, 38
2, 398869, Note_on_c, 0, 43, 0
2, 398869, Note_on_c, 0, 31, 0
2, 398880, Note_on_c, 0, 31, 1
2, 398880, Note_on_c, 0, 31, 0
2, 398880, Note_on_c, 0, 33, 76
2, 398880, Note_on_c, 0, 45, 74
2, 399000, Note_on_c, 0, 52, 39
2, 399108, Note_on_c, 0, 52, 0
2, 399119, Note_on_c, 0, 57, 49
2, 399229, Note_on_c, 0, 57, 0
2, 399240, Note_on_c, 0, 61, 53
2, 399348, Note_on_c, 0, 61, 0
2, 399360, Note_on_c, 0, 57, 38
2, 399468, Note_on_c, 0, 57, 0
2, 399479, Note_on_c, 0, 52, 35
2, 399530, Note_on_c, 0, 45, 0
2, 399530, Note_on_c, 0, 33, 0
2, 399589, Note_on_c, 0, 52, 0
2, 399600, Note_on_c, 0, 43, 1
2, 399600, Note_on_c, 0, 43, 0
2, 399600, Note_on_c, 0, 31, 63
2, 399600, Note_on_c, 0, 43, 64
2, 399839, Note_on_c, 0, 57, 39
2, 399949, Note_on_c, 0, 57, 0
2, 399960, Note_on_c, 0, 64, 95
2, 399960, Note_on_c, 0, 73, 97
2, 399960, Note_on_c, 0, 76, 96
2, 399960, Note_on_c, 0, 61, 52
2, 400068, Note_on_c, 0, 61, 0
2, 400068, Note_on_c, 0, 73, 0
2, 400068, Note_on_c, 0, 64, 0
2, 400068, Note_on_c, 0, 76, 0
2, 400080, Note_on_c, 0, 57, 38
2, 400188, Note_on_c, 0, 57, 0
2, 400199, Note_on_c, 0, 62, 93
2, 400199, Note_on_c, 0, 70, 93
2, 400199, Note_on_c, 0, 74, 94
2, 400199, Note_on_c, 0, 52, 35
2, 400250, Note_on_c, 0, 31, 0
2, 400250, Note_on_c, 0, 43, 0
2, 400309, Note_on_c, 0, 74, 0
2, 400309, Note_on_c, 0, 70, 0
2, 400309, Note_on_c, 0, 52, 0
2, 400309, Note_on_c, 0, 62, 0
2, 400320, Note_on_c, 0, 64, 122
2, 400320, Note_on_c, 0, 73, 122
2, 400320, Note_on_c, 0, 76, 122
2, 400320, Note_on_c, 0, 33, 76
2, 400320, Note_on_c, 0, 45, 73
2, 400559, Note_on_c, 0, 57, 39
2, 400645, Note_on_c, 0, 76, 0
2, 400645, Note_on_c, 0, 64, 0
2, 400645, Note_on_c, 0, 73, 0
2, 400669, Note_on_c, 0, 57, 0
2, 400680, Note_on_c, 0, 61, 49
2, 400788, Note_on_c, 0, 61, 0
2, 400800, Note_on_c, 0, 57, 38
2, 400908, Note_on_c, 0, 57, 0
2, 400919, Note_on_c, 0, 52, 34
2, 400970, Note_on_c, 0, 45, 0
2, 400970, Note_on_c, 0, 33, 0
2, 401029, Note_on_c, 0, 52, 0
2, 401040, Note_on_c, 0, 29, 60
2, 401040, Note_on_c, 0, 41, 61
2, 401279, Note_on_c, 0, 57, 38
2, 401389, Note_on_c, 0, 57, 0
2, 401400, Note_on_c, 0, 65, 95
2, 401400, Note_on_c, 0, 73, 99
2, 401400, Note_on_c, 0, 77, 98
2, 401400, Note_on_c, 0, 61, 51
2, 401508, Note_on_c, 0, 61, 0
2, 401508, Note_on_c, 0, 73, 0
2, 401508, Note_on_c, 0, 65, 0
2, 401508, Note_on_c, 0, 77, 0
2, 401520, Note_on_c, 0, 57, 38
2, 401628, Note_on_c, 0, 57, 0
2, 401639, Note_on_c, 0, 64, 94
2, 401639, Note_on_c, 0, 73, 95
2, 401639, Note_on_c, 0, 76, 94
2, 401639, Note_on_c, 0, 52, 35
2, 401690, Note_on_c, 0, 29, 0
2, 401690, Note_on_c, 0, 41, 0
2, 401749, Note_on_c, 0, 76, 0
2, 401749, Note_on_c, 0, 73, 0
2, 401749, Note_on_c, 0, 52, 0
2, 401749, Note_on_c, 0, 64, 0
2, 401760, Note_on_c, 0, 65, 122
2, 401760, Note_on_c, 0, 73, 122
2, 401760, Note_on_c, 0, 77, 122
2, 401760, Note_on_c, 0, 31, 74
2, 401760, Note_on_c, 0, 43, 75
2, 401999, Note_on_c, 0, 57, 37
2, 402085, Note_on_c, 0, 77, 0
2, 402085, Note_on_c, 0, 65, 0
2, 402085, Note_on_c, 0, 73, 0
2, 402109, Note_on_c, 0, 57, 0
2, 402120, Note_on_c, 0, 61, 52
2, 402228, Note_on_c, 0, 61, 0
2, 402240, Note_on_c, 0, 57, 39
2, 402348, Note_on_c, 0, 57, 0
2, 402359, Note_on_c, 0, 49, 33
2, 402410, Note_on_c, 0, 43, 0
2, 402410, Note_on_c, 0, 31, 0
2, 402469, Note_on_c, 0, 49, 0
2, 402480, Note_on_c, 0, 28, 62
2, 402480, Note_on_c, 0, 40, 62
2, 402719, Note_on_c, 0, 57, 39
2, 402829, Note_on_c, 0, 57, 0
2, 402840, Note_on_c, 0, 67, 99
2, 402840, Note_on_c, 0, 69, 97
2, 402840, Note_on_c, 0, 73, 95
2, 402840, Note_on_c, 0, 79, 99
2, 402840, Note_on_c, 0, 61, 50
2, 402948, Note_on_c, 0, 61, 0
2, 402948, Note_on_c, 0, 73, 0
2, 402948, Note_on_c, 0, 69, 0
2, 402948, Note_on_c, 0, 67, 0
2, 402948, Note_on_c, 0, 79, 0
2, 402960, Note_on_c, 0, 57, 36
2, 403068, Note_on_c, 0, 57, 0
2, 403079, Note_on_c, 0, 65, 94
2, 403079, Note_on_c, 0, 69, 94
2, 403079, Note_on_c, 0, 73, 96
2, 403079, Note_on_c, 0, 77, 93
2, 403079, Note_on_c, 0, 49, 31
2, 403130, Note_on_c, 0, 28, 0
2, 403130, Note_on_c, 0, 40, 0
2, 403189, Note_on_c, 0, 65, 0
2, 403189, Note_on_c, 0, 73, 0
2, 403189, Note_on_c, 0, 69, 0
2, 403189, Note_on_c, 0, 49, 0
2, 403189, Note_on_c, 0, 77, 0
2, 403200, Note_on_c, 0, 67, 122
2, 403200, Note_on_c, 0, 69, 122
2, 403200, Note_on_c, 0, 73, 122
2, 403200, Note_on_c, 0, 79, 122
2, 403200, Note_on_c, 0, 29, 73
2, 403200, Note_on_c, 0, 41, 73
2, 403439, Note_on_c, 0, 57, 40
2, 403525, Note_on_c, 0, 79, 0
2, 403525, Note_on_c, 0, 73, 0
2, 403525, Note_on_c, 0, 67, 0
2, 403525, Note_on_c, 0, 69, 0
2, 403549, Note_on_c, 0, 57, 0
2, 403560, Note_on_c, 0, 61, 52
2, 403668, Note_on_c, 0, 61, 0
2, 403680, Note_on_c, 0, 57, 38
2, 403788, Note_on_c, 0, 57, 0
2, 403799, Note_on_c, 0, 55, 38
2, 403850, Note_on_c, 0, 29, 0
2, 403850, Note_on_c, 0, 41, 0
2, 403909, Note_on_c, 0, 55, 0
2, 403920, Note_on_c, 0, 21, 77
2, 403920, Note_on_c, 0, 33, 74
2, 404159, Note_on_c, 0, 57, 39
2, 404269, Note_on_c, 0, 57, 0
2, 404280, Note_on_c, 0, 69, 96
2, 404280, Note_on_c, 0, 73, 97
2, 404280, Note_on_c, 0, 77, 95
2, 404280, Note_on_c, 0, 81, 98
2, 404280, Note_on_c, 0, 61, 54
2, 404280, Note_on_c, 0, 65, 52
2, 404388, Note_on_c, 0, 65, 0
2, 404388, Note_on_c, 0, 61, 0
2, 404388, Note_on_c, 0, 77, 0
2, 404388, Note_on_c, 0, 73, 0
2, 404388, Note_on_c, 0, 69, 0
2, 404388, Note_on_c, 0, 81, 0
2, 404400, Note_on_c, 0, 57, 37
2, 404508, Note_on_c, 0, 57, 0
2, 404519, Note_on_c, 0, 67, 93
2, 404519, Note_on_c, 0, 73, 92
2, 404519, Note_on_c, 0, 76, 92
2, 404519, Note_on_c, 0, 79, 94
2, 404519, Note_on_c, 0, 55, 38
2, 404570, Note_on_c, 0, 21, 0
2, 404570, Note_on_c, 0, 33, 0
2, 404629, Note_on_c, 0, 67, 0
2, 404629, Note_on_c, 0, 76, 0
2, 404629, Note_on_c, 0, 73, 0
2, 404629, Note_on_c, 0, 55, 0
2, 404629, Note_on_c, 0, 79, 0
2, 404640, Note_on_c, 0, 69, 112
2, 404640, Note_on_c, 0, 74, 114
2, 404640, Note_on_c, 0, 77, 114
2, 404640, Note_on_c, 0, 81, 114
2, 404640, Control_c, 0, 64, 127
2, 404640, Note_on_c, 0, 38, 54
2, 404640, Note_on_c, 0, 45, 53
2, 404748, Note_on_c, 0, 45, 0
2, 404748, Note_on_c, 0, 38, 0
2, 404760, Note_on_c, 0, 50, 45
2, 404868, Note_on_c, 0, 50, 0
2, 404879, Note_on_c, 0, 45, 37
2, 404965, Note_on_c, 0, 81, 0
2, 404965, Note_on_c, 0, 77, 0
2, 404965, Note_on_c, 0, 69, 0
2, 404965, Note_on_c, 0, 74, 0
2, 404989, Note_on_c, 0, 45, 0
2, 405000, Note_on_c, 0, 57, 89
2, 405000, Note_on_c, 0, 60, 89
2, 405000, Note_on_c, 0, 65, 89
2, 405000, Note_on_c, 0, 38, 35
2, 405163, Note_on_c, 0, 65, 0
2, 405163, Note_on_c, 0, 57, 0
2, 405163, Note_on_c, 0, 60, 0
2, 405180, Note_on_c, 0, 53, 75
2, 405325, Note_on_c, 0, 38, 0
2, 405343, Note_on_c, 0, 53, 0
2, 405360, Note_on_c, 0, 33, 69
2, 405360, Note_on_c, 0, 38, 69
2, 405468, Note_on_c, 0, 38, 0
2, 405468, Note_on_c, 0, 33, 0
2, 405480, Note_on_c, 0, 45, 52
2, 405540, Note_on_c, 0, 53, 92
2, 405588, Note_on_c, 0, 45, 0
2, 405599, Note_on_c, 0, 38, 37
2, 405703, Note_on_c, 0, 53, 0
2, 405709, Note_on_c, 0, 38, 0
2, 405720, Note_on_c, 0, 57, 122
2, 405720, Note_on_c, 0, 62, 121
2, 405720, Note_on_c, 0, 65, 122
2, 405720, Note_on_c, 0, 33, 37
2, 405720, Control_c, 0, 64, 0
2, 405883, Note_on_c, 0, 65, 0
2, 405883, Note_on_c, 0, 57, 0
2, 405883, Note_on_c, 0, 62, 0
2, 405900, Note_on_c, 0, 53, 79
2, 406045, Note_on_c, 0, 33, 0
2, 406063, Note_on_c, 0, 53, 0
2, 406080, Control_c, 0, 64, 127
2, 406080, Note_on_c, 0, 45, 57
2, 406080, Note_on_c, 0, 50, 58
2, 406188, Note_on_c, 0, 50, 0
2, 406188, Note_on_c, 0, 45, 0
2, 406200, Note_on_c, 0, 57, 54
2, 406308, Note_on_c, 0, 57, 0
2, 406319, Note_on_c, 0, 50, 37
2, 406429, Note_on_c, 0, 50, 0
2, 406440, Note_on_c, 0, 62, 111
2, 406440, Note_on_c, 0, 64, 109
2, 406440, Note_on_c, 0, 69, 112
2, 406440, Note_on_c, 0, 45, 34
2, 406603, Note_on_c, 0, 69, 0
2, 406603, Note_on_c, 0, 62, 0
2, 406603, Note_on_c, 0, 64, 0
2, 406620, Note_on_c, 0, 57, 74
2, 406765, Note_on_c, 0, 45, 0
2, 406783, Note_on_c, 0, 57, 0
2, 406800, Note_on_c, 0, 38, 43
2, 406800, Note_on_c, 0, 45, 46
2, 406908, Note_on_c, 0, 45, 0
2, 406908, Note_on_c, 0, 38, 0
2, 406920, Note_on_c, 0, 50, 48
2, 406980, Note_on_c, 0, 57, 93
2, 407028, Note_on_c, 0, 50, 0
2, 407039, Note_on_c, 0, 45, 39
2, 407143, Note_on_c, 0, 57, 0
2, 407149, Note_on_c, 0, 45, 0
2, 407160, Note_on_c, 0, 62, 121
2, 407160, Note_on_c, 0, 65, 121
2, 407160, Note_on_c, 0, 69, 122
2, 407160, Note_on_c, 0, 38, 34
2, 407160, Control_c, 0, 64, 0
2, 407268, Note_on_c, 0, 69, 0
2, 407268, Note_on_c, 0, 62, 0
2, 407268, Note_on_c, 0, 65, 0
2, 407399, Note_on_c, 0, 64, 110
2, 407399, Note_on_c, 0, 67, 109
2, 407485, Note_on_c, 0, 38, 0
2, 407509, Note_on_c, 0, 67, 0
2, 407509, Note_on_c, 0, 64, 0
2, 407520, Note_on_c, 0, 65, 122
2, 407520, Note_on_c, 0, 69, 122
2, 407520, Control_c, 0, 64, 127
2, 407520, Note_on_c, 0, 38, 81
2, 407520, Note_on_c, 0, 45, 83
2, 407628, Note_on_c, 0, 45, 0
2, 407628, Note_on_c, 0, 38, 0
2, 407640, Note_on_c, 0, 50, 52
2, 407748, Note_on_c, 0, 50, 0
2, 407759, Note_on_c, 0, 45, 35
2, 407845, Note_on_c, 0, 69, 0
2, 407845, Note_on_c, 0, 65, 0
2, 407869, Note_on_c, 0, 45, 0
2, 407880, Note_on_c, 0, 57, 98
2, 407880, Note_on_c, 0, 60, 95
2, 407880, Note_on_c, 0, 65, 97
2, 407880, Note_on_c, 0, 38, 33
2, 408043, Note_on_c, 0, 65, 0
2, 408043, Note_on_c, 0, 57, 0
2, 408043, Note_on_c, 0, 60, 0
2, 408060, Note_on_c, 0, 53, 74
2, 408205, Note_on_c, 0, 38, 0
2, 408223, Note_on_c, 0, 53, 0
2, 408240, Note_on_c, 0, 33, 70
2, 408240, Note_on_c, 0, 38, 68
2, 408348, Note_on_c, 0, 38, 0
2, 408348, Note_on_c, 0, 33, 0
2, 408360, Note_on_c, 0, 45, 53
2, 408420, Note_on_c, 0, 53, 93
2, 408468, Note_on_c, 0, 45, 0
2, 408479, Note_on_c, 0, 38, 33
2, 408583, Note_on_c, 0, 53, 0
2, 408589, Note_on_c, 0, 38, 0
2, 408600, Note_on_c, 0, 57, 122
2, 408600, Note_on_c, 0, 62, 121
2, 408600, Note_on_c, 0, 65, 122
2, 408600, Note_on_c, 0, 33, 34
2, 408600, Control_c, 0, 64, 0
2, 408763, Note_on_c, 0, 65, 0
2, 408763, Note_on_c, 0, 57, 0
2, 408763, Note_on_c, 0, 62, 0
2, 408780, Note_on_c, 0, 53, 82
2, 408925, Note_on_c, 0, 33, 0
2, 408943, Note_on_c, 0, 53, 0
2, 408960, Control_c, 0, 64, 127
2, 408960, Note_on_c, 0, 45, 59
2, 408960, Note_on_c, 0, 50, 57
2, 409068, Note_on_c, 0, 50, 0
2, 409068, Note_on_c, 0, 45, 0
2, 409080, Note_on_c, 0, 57, 54
2, 409188, Note_on_c, 0, 57, 0
2, 409199, Note_on_c, 0, 50, 36
2, 409309, Note_on_c, 0, 50, 0
2, 409320, Note_on_c, 0, 62, 98
2, 409320, Note_on_c, 0, 64, 96
2, 409320, Note_on_c, 0, 69, 98
2, 409320, Note_on_c, 0, 45, 37
2, 409483, Note_on_c, 0, 69, 0
2, 409483, Note_on_c, 0, 62, 0
2, 409483, Note_on_c, 0, 64, 0
2, 409500, Note_on_c, 0, 57, 74
2, 409645, Note_on_c, 0, 45, 0
2, 409663, Note_on_c, 0, 57, 0
2, 409680, Note_on_c, 0, 38, 43
2, 409680, Note_on_c, 0, 45, 46
2, 409788, Note_on_c, 0, 45, 0
2, 409788, Note_on_c, 0, 38, 0
2, 409800, Note_on_c, 0, 50, 50
2, 409860, Note_on_c, 0, 57, 94
2, 409908, Note_on_c, 0, 50, 0
2, 409919, Note_on_c, 0, 45, 37
2, 410023, Note_on_c, 0, 57, 0
2, 410029, Note_on_c, 0, 45, 0
2, 410040, Note_on_c, 0, 62, 122
2, 410040, Note_on_c, 0, 65, 122
2, 410040, Note_on_c, 0, 69, 120
2, 410040, Note_on_c, 0, 38, 34
2, 410040, Control_c, 0, 64, 0
2, 410148, Note_on_c, 0, 69, 0
2, 410148, Note_on_c, 0, 62, 0
2, 410148, Note_on_c, 0, 65, 0
2, 410279, Note_on_c, 0, 64, 106
2, 410279, Note_on_c, 0, 67, 108
2, 410365, Note_on_c, 0, 38, 0
2, 410389, Note_on_c, 0, 67, 0
2, 410389, Note_on_c, 0, 64, 0
2, 410400, Note_on_c, 0, 65, 122
2, 410400, Note_on_c, 0, 69, 122
2, 410400, Control_c, 0, 64, 127
2, 410400, Note_on_c, 0, 48, 58
2, 410400, Note_on_c, 0, 57, 56
2, 410508, Note_on_c, 0, 57, 0
2, 410508, Note_on_c, 0, 48, 0
2, 410520, Note_on_c, 0, 60, 51
2, 410628, Note_on_c, 0, 60, 0
2, 410639, Note_on_c, 0, 57, 39
2, 410725, Note_on_c, 0, 69, 0
2, 410725, Note_on_c, 0, 65, 0
2, 410749, Note_on_c, 0, 57, 0
2, 410760, Note_on_c, 0, 65, 117
2, 410760, Note_on_c, 0, 67, 117
2, 410760, Note_on_c, 0, 72, 121
2, 410760, Note_on_c, 0, 48, 34
2, 410923, Note_on_c, 0, 72, 0
2, 410923, Note_on_c, 0, 65, 0
2, 410923, Note_on_c, 0, 67, 0
2, 410940, Note_on_c, 0, 60, 76
2, 411085, Note_on_c, 0, 48, 0
2, 411103, Note_on_c, 0, 60, 0
2, 411120, Note_on_c, 0, 41, 46
2, 411120, Note_on_c, 0, 48, 45
2, 411228, Note_on_c, 0, 48, 0
2, 411228, Note_on_c, 0, 41, 0
2, 411240, Note_on_c, 0, 53, 49
2, 411300, Note_on_c, 0, 60, 96
2, 411348, Note_on_c, 0, 53, 0
2, 411359, Note_on_c, 0, 48, 37
2, 411463, Note_on_c, 0, 60, 0
2, 411469, Note_on_c, 0, 48, 0
2, 411480, Note_on_c, 0, 65, 122
2, 411480, Note_on_c, 0, 69, 122
2, 411480, Note_on_c, 0, 72, 122
2, 411480, Note_on_c, 0, 41, 33
2, 411480, Control_c, 0, 64, 0
2, 411643, Note_on_c, 0, 72, 0
2, 411643, Note_on_c, 0, 65, 0
2, 411643, Note_on_c, 0, 69, 0
2, 411660, Note_on_c, 0, 60, 78
2, 411805, Note_on_c, 0, 41, 0
2, 411823, Note_on_c, 0, 60, 0
2, 411840, Control_c, 0, 64, 127
2, 411840, Note_on_c, 0, 45, 57
2, 411840, Note_on_c, 0, 53, 56
2, 411948, Note_on_c, 0, 53, 0
2, 411948, Note_on_c, 0, 45, 0
2, 411960, Note_on_c, 0, 57, 49
2, 412020, Note_on_c, 0, 65, 94
2, 412068, Note_on_c, 0, 57, 0
2, 412079, Note_on_c, 0, 53, 39
2, 412183, Note_on_c, 0, 65, 0
2, 412189, Note_on_c, 0, 53, 0
2, 412200, Note_on_c, 0, 69, 121
2, 412200, Note_on_c, 0, 72, 122
2, 412200, Note_on_c, 0, 77, 122
2, 412200, Note_on_c, 0, 45, 34
2, 412363, Note_on_c, 0, 77, 0
2, 412363, Note_on_c, 0, 69, 0
2, 412363, Note_on_c, 0, 72, 0
2, 412380, Note_on_c, 0, 65, 81
2, 412525, Note_on_c, 0, 45, 0
2, 412543, Note_on_c, 0, 65, 0
2, 412560, Note_on_c, 0, 26, 34
2, 412560, Note_on_c, 0, 33, 32
2, 412668, Note_on_c, 0, 33, 0
2, 412668, Note_on_c, 0, 26, 0
2, 412680, Note_on_c, 0, 38, 45
2, 412740, Note_on_c, 0, 69, 94
2, 412788, Note_on_c, 0, 38, 0
2, 412799, Note_on_c, 0, 33, 37
2, 412903, Note_on_c, 0, 69, 0
2, 412909, Note_on_c, 0, 33, 0
2, 412920, Note_on_c, 0, 74, 121
2, 412920, Note_on_c, 0, 77, 122
2, 412920, Note_on_c, 0, 81, 120
2, 412920, Note_on_c, 0, 26, 31
2, 412920, Control_c, 0, 64, 0
2, 413028, Note_on_c, 0, 81, 0
2, 413028, Note_on_c, 0, 74, 0
2, 413028, Note_on_c, 0, 77, 0
2, 413159, Note_on_c, 0, 76, 110
2, 413159, Note_on_c, 0, 79, 107
2, 413245, Note_on_c, 0, 26, 0
2, 413269, Note_on_c, 0, 79, 0
2, 413269, Note_on_c, 0, 76, 0
2, 413280, Note_on_c, 0, 69, 122
2, 413280, Note_on_c, 0, 77, 122
2, 413280, Note_on_c, 0, 81, 122
2, 413280, Control_c, 0, 64, 127
2, 413280, Note_on_c, 0, 48, 59
2, 413280, Note_on_c, 0, 57, 59
2, 413388, Note_on_c, 0, 57, 0
2, 413388, Note_on_c, 0, 48, 0
2, 413400, Note_on_c, 0, 60, 48
2, 413508, Note_on_c, 0, 60, 0
2, 413519, Note_on_c, 0, 57, 39
2, 413605, Note_on_c, 0, 81, 0
2, 413605, Note_on_c, 0, 69, 0
2, 413605, Note_on_c, 0, 77, 0
2, 413629, Note_on_c, 0, 57, 0
2, 413640, Note_on_c, 0, 65, 86
2, 413640, Note_on_c, 0, 67, 86
2, 413640, Note_on_c, 0, 72, 86
2, 413640, Note_on_c, 0, 48, 32
2, 413803, Note_on_c, 0, 72, 0
2, 413803, Note_on_c, 0, 65, 0
2, 413803, Note_on_c, 0, 67, 0
2, 413820, Note_on_c, 0, 60, 74
2, 413965, Note_on_c, 0, 48, 0
2, 413983, Note_on_c, 0, 60, 0
2, 414000, Note_on_c, 0, 41, 45
2, 414000, Note_on_c, 0, 48, 45
2, 414108, Note_on_c, 0, 48, 0
2, 414108, Note_on_c, 0, 41, 0
2, 414120, Note_on_c, 0, 53, 49
2, 414180, Note_on_c, 0, 60, 93
2, 414228, Note_on_c, 0, 53, 0
2, 414239, Note_on_c, 0, 48, 39
2, 414343, Note_on_c, 0, 60, 0
2, 414349, Note_on_c, 0, 48, 0
2, 414360, Note_on_c, 0, 65, 122
2, 414360, Note_on_c, 0, 69, 122
2, 414360, Note_on_c, 0, 72, 122
2, 414360, Note_on_c, 0, 41, 33
2, 414360, Control_c, 0, 64, 0
2, 414523, Note_on_c, 0, 72, 0
2, 414523, Note_on_c, 0, 65, 0
2, 414523, Note_on_c, 0, 69, 0
2, 414540, Note_on_c, 0, 60, 80
2, 414685, Note_on_c, 0, 41, 0
2, 414703, Note_on_c, 0, 60, 0
2, 414720, Control_c, 0, 64, 127
2, 414720, Note_on_c, 0, 45, 58
2, 414720, Note_on_c, 0, 53, 55
2, 414828, Note_on_c, 0, 53, 0
2, 414828, Note_on_c, 0, 45, 0
2, 414840, Note_on_c, 0, 57, 50
2, 414900, Note_on_c, 0, 65, 94
2, 414948, Note_on_c, 0, 57, 0
2, 414959, Note_on_c, 0, 53, 38
2, 415063, Note_on_c, 0, 65, 0
2, 415069, Note_on_c, 0, 53, 0
2, 415080, Note_on_c, 0, 69, 122
2, 415080, Note_on_c, 0, 72, 122
2, 415080, Note_on_c, 0, 77, 121
2, 415080, Note_on_c, 0, 45, 31
2, 415243, Note_on_c, 0, 77, 0
2, 415243, Note_on_c, 0, 69, 0
2, 415243, Note_on_c, 0, 72, 0
2, 415260, Note_on_c, 0, 65, 79
2, 415405, Note_on_c, 0, 45, 0
2, 415423, Note_on_c, 0, 65, 0
2, 415440, Note_on_c, 0, 26, 30
2, 415440, Note_on_c, 0, 33, 32
2, 415548, Note_on_c, 0, 33, 0
2, 415548, Note_on_c, 0, 26, 0
2, 415560, Note_on_c, 0, 38, 49
2, 415620, Note_on_c, 0, 69, 94
2, 415668, Note_on_c, 0, 38, 0
2, 415679, Note_on_c, 0, 33, 37
2, 415783, Note_on_c, 0, 69, 0
2, 415789, Note_on_c, 0, 33, 0
2, 415800, Note_on_c, 0, 74, 122
2, 415800, Note_on_c, 0, 77, 122
2, 415800, Note_on_c, 0, 81, 121
2, 415800, Note_on_c, 0, 26, 32
2, 415800, Control_c, 0, 64, 0
2, 415908, Note_on_c, 0, 81, 0
2, 415908, Note_on_c, 0, 74, 0
2, 415908, Note_on_c, 0, 77, 0
2, 416039, Note_on_c, 0, 76, 109
2, 416039, Note_on_c, 0, 79, 108
2, 416125, Note_on_c, 0, 26, 0
2, 416149, Note_on_c, 0, 79, 0
2, 416149, Note_on_c, 0, 76, 0
2, 416160, Note_on_c, 0, 77, 122
2, 416160, Note_on_c, 0, 81, 122
2, 416160, Note_on_c, 0, 57, 89
2, 416160, Note_on_c, 0, 65, 87
2, 416268, Note_on_c, 0, 65, 0
2, 416268, Note_on_c, 0, 57, 0
2, 416280, Note_on_c, 0, 69, 49
2, 416357, Control_c, 0, 64, 127
2, 416375, Note_on_c, 0, 81, 0
2, 416375, Note_on_c, 0, 77, 0
2, 416388, Note_on_c, 0, 69, 0
2, 416399, Note_on_c, 0, 74, 88
2, 416399, Note_on_c, 0, 74, 108
2, 416399, Note_on_c, 0, 65, 38
2, 416509, Note_on_c, 0, 65, 0
2, 416509, Note_on_c, 0, 74, 0
2, 416520, Note_on_c, 0, 81, 122
2, 416520, Note_on_c, 0, 57, 32
2, 416628, Note_on_c, 0, 81, 0
2, 416640, Note_on_c, 0, 74, 86
2, 416748, Note_on_c, 0, 74, 0
2, 416759, Note_on_c, 0, 69, 89
2, 416845, Note_on_c, 0, 74, 0
2, 416845, Note_on_c, 0, 57, 0
2, 416869, Note_on_c, 0, 69, 0
2, 416880, Note_on_c, 0, 57, 80
2, 416880, Note_on_c, 0, 65, 81
2, 416988, Note_on_c, 0, 65, 0
2, 416988, Note_on_c, 0, 57, 0
2, 417000, Note_on_c, 0, 69, 48
2, 417108, Note_on_c, 0, 69, 0
2, 417119, Note_on_c, 0, 74, 94
2, 417119, Note_on_c, 0, 74, 109
2, 417119, Note_on_c, 0, 65, 38
2, 417229, Note_on_c, 0, 65, 0
2, 417229, Note_on_c, 0, 74, 0
2, 417240, Note_on_c, 0, 81, 122
2, 417240, Note_on_c, 0, 57, 32
2, 417240, Control_c, 0, 64, 0
2, 417348, Note_on_c, 0, 81, 0
2, 417360, Note_on_c, 0, 74, 86
2, 417468, Note_on_c, 0, 74, 0
2, 417479, Note_on_c, 0, 69, 88
2, 417565, Note_on_c, 0, 74, 0
2, 417565, Note_on_c, 0, 57, 0
2, 417589, Note_on_c, 0, 69, 0
2, 417600, Control_c, 0, 64, 127
2, 417600, Note_on_c, 0, 57, 50
2, 417600, Note_on_c, 0, 64, 53
2, 417708, Note_on_c, 0, 64, 0
2, 417708, Note_on_c, 0, 57, 0
2, 417720, Note_on_c, 0, 69, 51
2, 417828, Note_on_c, 0, 69, 0
2, 417839, Note_on_c, 0, 73, 95
2, 417839, Note_on_c, 0, 73, 94
2, 417839, Note_on_c, 0, 64, 38
2, 417949, Note_on_c, 0, 64, 0
2, 417949, Note_on_c, 0, 73, 0
2, 417960, Note_on_c, 0, 77, 117
2, 417960, Note_on_c, 0, 57, 31
2, 418068, Note_on_c, 0, 77, 0
2, 418080, Note_on_c, 0, 74, 98
2, 418188, Note_on_c, 0, 74, 0
2, 418199, Note_on_c, 0, 69, 92
2, 418285, Note_on_c, 0, 57, 0
2, 418285, Note_on_c, 0, 73, 0
2, 418309, Note_on_c, 0, 69, 0
2, 418320, Note_on_c, 0, 57, 51
2, 418320, Note_on_c, 0, 63, 54
2, 418428, Note_on_c, 0, 63, 0
2, 418428, Note_on_c, 0, 57, 0
2, 418440, Note_on_c, 0, 69, 53
2, 418548, Note_on_c, 0, 69, 0
2, 418559, Note_on_c, 0, 72, 95
2, 418559, Note_on_c, 0, 72, 93
2, 418559, Note_on_c, 0, 63, 35
2, 418669, Note_on_c, 0, 63, 0
2, 418669, Note_on_c, 0, 72, 0
2, 418680, Note_on_c, 0, 81, 122
2, 418680, Note_on_c, 0, 57, 32
2, 418680, Control_c, 0, 64, 0
2, 418788, Note_on_c, 0, 81, 0
2, 418800, Note_on_c, 0, 74, 87
2, 418908, Note_on_c, 0, 74, 0
2, 418919, Note_on_c, 0, 69, 87
2, 419005, Note_on_c, 0, 57, 0
2, 419005, Note_on_c, 0, 72, 0
2, 419029, Note_on_c, 0, 69, 0
2, 419040, Note_on_c, 0, 57, 51
2, 419040, Note_on_c, 0, 62, 51
2, 419148, Note_on_c, 0, 62, 0
2, 419148, Note_on_c, 0, 57, 0
2, 419160, Note_on_c, 0, 65, 48
2, 419237, Control_c, 0, 64, 127
2, 419268, Note_on_c, 0, 65, 0
2, 419279, Note_on_c, 0, 71, 94
2, 419279, Note_on_c, 0, 71, 93
2, 419279, Note_on_c, 0, 62, 39
2, 419389, Note_on_c, 0, 62, 0
2, 419389, Note_on_c, 0, 71, 0
2, 419400, Note_on_c, 0, 77, 122
2, 419400, Note_on_c, 0, 57, 36
2, 419508, Note_on_c, 0, 77, 0
2, 419520, Note_on_c, 0, 71, 93
2, 419628, Note_on_c, 0, 71, 0
2, 419639, Note_on_c, 0, 65, 87
2, 419725, Note_on_c, 0, 71, 0
2, 419725, Note_on_c, 0, 57, 0
2, 419749, Note_on_c, 0, 65, 0
2, 419760, Note_on_c, 0, 57, 50
2, 419760, Note_on_c, 0, 61, 49
2, 419868, Note_on_c, 0, 61, 0
2, 419868, Note_on_c, 0, 57, 0
2, 419880, Note_on_c, 0, 65, 47
2, 419988, Note_on_c, 0, 65, 0
2, 419999, Note_on_c, 0, 70, 96
2, 419999, Note_on_c, 0, 70, 94
2, 419999, Note_on_c, 0, 61, 38
2, 420109, Note_on_c, 0, 61, 0
2, 420109, Note_on_c, 0, 70, 0
2, 420120, Note_on_c, 0, 81, 122
2, 420120, Note_on_c, 0, 57, 37
2, 420120, Control_c, 0, 64, 0
2, 420228, Note_on_c, 0, 81, 0
2, 420240, Note_on_c, 0, 70, 80
2, 420348, Note_on_c, 0, 70, 0
2, 420359, Note_on_c, 0, 69, 97
2, 420445, Note_on_c, 0, 70, 0
2, 420445, Note_on_c, 0, 57, 0
2, 420469, Note_on_c, 0, 69, 0
2, 420480, Control_c, 0, 64, 127
2, 420480, Note_on_c, 0, 57, 47
2, 420480, Note_on_c, 0, 60, 47
2, 420588, Note_on_c, 0, 60, 0
2, 420588, Note_on_c, 0, 57, 0
2, 420600, Note_on_c, 0, 65, 47
2, 420708, Note_on_c, 0, 65, 0
2, 420719, Note_on_c, 0, 69, 96
2, 420719, Note_on_c, 0, 69, 93
2, 420719, Note_on_c, 0, 60, 36
2, 420829, Note_on_c, 0, 60, 0
2, 420829, Note_on_c, 0, 69, 0
2, 420840, Note_on_c, 0, 74, 122
2, 420840, Note_on_c, 0, 57, 39
2, 420948, Note_on_c, 0, 74, 0
2, 420960, Note_on_c, 0, 69, 93
2, 421068, Note_on_c, 0, 69, 0
2, 421079, Note_on_c, 0, 62, 83
2, 421165, Note_on_c, 0, 69, 0
2, 421165, Note_on_c, 0, 57, 0
2, 421189, Note_on_c, 0, 62, 0
2, 421200, Note_on_c, 0, 52, 47
2, 421200, Note_on_c, 0, 59, 46
2, 421308, Note_on_c, 0, 59, 0
2, 421308, Note_on_c, 0, 52, 0
2, 421320, Note_on_c, 0, 64, 49
2, 421428, Note_on_c, 0, 64, 0
2, 421439, Note_on_c, 0, 68, 94
2, 421439, Note_on_c, 0, 68, 95
2, 421439, Note_on_c, 0, 59, 35
2, 421549, Note_on_c, 0, 59, 0
2, 421549, Note_on_c, 0, 68, 0
2, 421560, Note_on_c, 0, 76, 122
2, 421560, Note_on_c, 0, 52, 32
2, 421668, Note_on_c, 0, 76, 0
2, 421680, Note_on_c, 0, 68, 87
2, 421788, Note_on_c, 0, 68, 0
2, 421799, Note_on_c, 0, 62, 85
2, 421885, Note_on_c, 0, 68, 0
2, 421885, Note_on_c, 0, 52, 0
2, 421909, Note_on_c, 0, 62, 0
2, 421920, Control_c, 0, 64, 127
2, 421920, Control_c, 0, 64, 0
2, 421920, Note_on_c, 0, 45, 43
2, 421920, Note_on_c, 0, 52, 45
2, 422028, Note_on_c, 0, 52, 0
2, 422028, Note_on_c, 0, 45, 0
2, 422040, Note_on_c, 0, 57, 51
2, 422100, Note_on_c, 0, 55, 67
2, 422148, Note_on_c, 0, 57, 0
2, 422159, Note_on_c, 0, 52, 37
2, 422263, Note_on_c, 0, 55, 0
2, 422269, Note_on_c, 0, 52, 0
2, 422280, Note_on_c, 0, 61, 94
2, 422280, Note_on_c, 0, 64, 94
2, 422280, Note_on_c, 0, 67, 94
2, 422280, Note_on_c, 0, 45, 33
2, 422443, Note_on_c, 0, 67, 0
2, 422443, Note_on_c, 0, 61, 0
2, 422443, Note_on_c, 0, 64, 0
2, 422460, Note_on_c, 0, 55, 55
2, 422605, Note_on_c, 0, 45, 0
2, 422623, Note_on_c, 0, 55, 0
2, 422640, Note_on_c, 0, 40, 43
2, 422640, Note_on_c, 0, 45, 44
2, 422748, Note_on_c, 0, 45, 0
2, 422748, Note_on_c, 0, 40, 0
2, 422760, Note_on_c, 0, 52, 53
2, 422820, Note_on_c, 0, 57, 66
2, 422868, Note_on_c, 0, 52, 0
2, 422879, Note_on_c, 0, 45, 35
2, 422983, Note_on_c, 0, 57, 0
2, 422989, Note_on_c, 0, 45, 0
2, 423000, Note_on_c, 0, 61, 96
2, 423000, Note_on_c, 0, 64, 99
2, 423000, Note_on_c, 0, 69, 97
2, 423000, Note_on_c, 0, 40, 37
2, 423000, Control_c, 0, 64, 0
2, 423163, Note_on_c, 0, 69, 0
2, 423163, Note_on_c, 0, 61, 0
2, 423163, Note_on_c, 0, 64, 0
2, 423180, Note_on_c, 0, 57, 61
2, 423325, Note_on_c, 0, 40, 0
2, 423343, Note_on_c, 0, 57, 0
2, 423360, Control_c, 0, 64, 127
2, 423360, Note_on_c, 0, 52, 57
2, 423360, Note_on_c, 0, 57, 57
2, 423468, Note_on_c, 0, 57, 0
2, 423468, Note_on_c, 0, 52, 0
2, 423480, Note_on_c, 0, 64, 52
2, 423588, Note_on_c, 0, 64, 0
2, 423599, Note_on_c, 0, 57, 38
2, 423709, Note_on_c, 0, 57, 0
2, 423720, Note_on_c, 0, 69, 81
2, 423720, Note_on_c, 0, 71, 81
2, 423720, Note_on_c, 0, 76, 81
2, 423720, Note_on_c, 0, 52, 33
2, 423883, Note_on_c, 0, 76, 0
2, 423883, Note_on_c, 0, 69, 0
2, 423883, Note_on_c, 0, 71, 0
2, 423900, Note_on_c, 0, 64, 64
2, 424045, Note_on_c, 0, 52, 0
2, 424063, Note_on_c, 0, 64, 0
2, 424080, Note_on_c, 0, 33, 32
2, 424080, Note_on_c, 0, 40, 34
2, 424188, Note_on_c, 0, 40, 0
2, 424188, Note_on_c, 0, 33, 0
2, 424200, Note_on_c, 0, 45, 46
2, 424260, Note_on_c, 0, 73, 81
2, 424308, Note_on_c, 0, 45, 0
2, 424319, Note_on_c, 0, 40, 37
2, 424423, Note_on_c, 0, 73, 0
2, 424429, Note_on_c, 0, 40, 0
2, 424440, Note_on_c, 0, 76, 120
2, 424440, Note_on_c, 0, 85, 121
2, 424440, Note_on_c, 0, 88, 122
2, 424440, Note_on_c, 0, 33, 32
2, 424440, Control_c, 0, 64, 0
2, 424548, Note_on_c, 0, 88, 0
2, 424548, Note_on_c, 0, 76, 0
2, 424548, Note_on_c, 0, 85, 0
2, 424679, Note_on_c, 0, 83, 105
2, 424679, Note_on_c, 0, 86, 105
2, 424765, Note_on_c, 0, 33, 0
2, 424789, Note_on_c, 0, 86, 0
2, 424789, Note_on_c, 0, 83, 0
2, 424800, Note_on_c, 0, 76, 107
2, 424800, Note_on_c, 0, 85, 105
2, 424800, Note_on_c, 0, 88, 108
2, 424800, Control_c, 0, 64, 127
2, 424800, Note_on_c, 0, 45, 55
2, 424800, Note_on_c, 0, 52, 57
2, 424908, Note_on_c, 0, 52, 0
2, 424908, Note_on_c, 0, 45, 0
2, 424920, Note_on_c, 0, 57, 50
2, 425028, Note_on_c, 0, 57, 0
2, 425039, Note_on_c, 0, 52, 36
2, 425125, Note_on_c, 0, 88, 0
2, 425125, Note_on_c, 0, 76, 0
2, 425125, Note_on_c, 0, 85, 0
2, 425149, Note_on_c, 0, 52, 0
2, 425160, Note_on_c, 0, 61, 52
2, 425160, Note_on_c, 0, 64, 55
2, 425160, Note_on_c, 0, 67, 53
2, 425160, Note_on_c, 0, 45, 31
2, 425323, Note_on_c, 0, 67, 0
2, 425323, Note_on_c, 0, 61, 0
2, 425323, Note_on_c, 0, 64, 0
2, 425340, Note_on_c, 0, 55, 51
2, 425485, Note_on_c, 0, 45, 0
2, 425503, Note_on_c, 0, 55, 0
2, 425520, Control_c, 0, 64, 0
2, 425520, Note_on_c, 0, 40, 45
2, 425520, Note_on_c, 0, 45, 45
2, 425628, Note_on_c, 0, 45, 0
2, 425628, Note_on_c, 0, 40, 0
2, 425640, Note_on_c, 0, 52, 51
2, 425700, Note_on_c, 0, 57, 64
2, 425748, Note_on_c, 0, 52, 0
2, 425759, Note_on_c, 0, 45, 35
2, 425863, Note_on_c, 0, 57, 0
2, 425869, Note_on_c, 0, 45, 0
2, 425880, Note_on_c, 0, 61, 98
2, 425880, Note_on_c, 0, 64, 97
2, 425880, Note_on_c, 0, 69, 99
2, 425880, Note_on_c, 0, 40, 36
2, 426043, Note_on_c, 0, 69, 0
2, 426043, Note_on_c, 0, 61, 0
2, 426043, Note_on_c, 0, 64, 0
2, 426060, Note_on_c, 0, 57, 61
2, 426205, Note_on_c, 0, 40, 0
2, 426223, Note_on_c, 0, 57, 0
2, 426240, Control_c, 0, 64, 127
2, 426240, Note_on_c, 0, 52, 58
2, 426240, Note_on_c, 0, 57, 59
2, 426348, Note_on_c, 0, 57, 0
2, 426348, Note_on_c, 0, 52, 0
2, 426360, Note_on_c, 0, 64, 54
2, 426468, Note_on_c, 0, 64, 0
2, 426479, Note_on_c, 0, 57, 38
2, 426589, Note_on_c, 0, 57, 0
2, 426600, Note_on_c, 0, 69, 80
2, 426600, Note_on_c, 0, 71, 80
2, 426600, Note_on_c, 0, 76, 83
2, 426600, Note_on_c, 0, 52, 34
2, 426763, Note_on_c, 0, 76, 0
2, 426763, Note_on_c, 0, 69, 0
2, 426763, Note_on_c, 0, 71, 0
2, 426780, Note_on_c, 0, 64, 65
2, 426925, Note_on_c, 0, 52, 0
2, 426943, Note_on_c, 0, 64, 0
2, 426960, Control_c, 0, 64, 0
2, 426960, Note_on_c, 0, 33, 31
2, 426960, Note_on_c, 0, 40, 32
2, 427068, Note_on_c, 0, 40, 0
2, 427068, Note_on_c, 0, 33, 0
2, 427080, Note_on_c, 0, 45, 46
2, 427140, Note_on_c, 0, 73, 80
2, 427188, Note_on_c, 0, 45, 0
2, 427199, Note_on_c, 0, 40, 36
2, 427303, Note_on_c, 0, 73, 0
2, 427309, Note_on_c, 0, 40, 0
2, 427320, Note_on_c, 0, 76, 122
2, 427320, Note_on_c, 0, 85, 122
2, 427320, Note_on_c, 0, 88, 120
2, 427320, Note_on_c, 0, 33, 32
2, 427428, Note_on_c, 0, 88, 0
2, 427428, Note_on_c, 0, 76, 0
2, 427428, Note_on_c, 0, 85, 0
2, 427559, Note_on_c, 0, 83, 101
2, 427559, Note_on_c, 0, 86, 104
2, 427645, Note_on_c, 0, 33, 0
2, 427669, Note_on_c, 0, 86, 0
2, 427669, Note_on_c, 0, 83, 0
2, 427680, Note_on_c, 0, 85, 122
2, 427680, Note_on_c, 0, 88, 122
2, 427680, Control_c, 0, 64, 127
2, 427680, Note_on_c, 0, 64, 58
2, 427680, Note_on_c, 0, 69, 57
2, 427788, Note_on_c, 0, 69, 0
2, 427788, Note_on_c, 0, 64, 0
2, 427800, Note_on_c, 0, 76, 55
2, 427908, Note_on_c, 0, 76, 0
2, 427919, Note_on_c, 0, 69, 34
2, 428005, Note_on_c, 0, 88, 0
2, 428005, Note_on_c, 0, 85, 0
2, 428029, Note_on_c, 0, 69, 0
2, 428040, Note_on_c, 0, 81, 92
2, 428040, Note_on_c, 0, 83, 91
2, 428040, Note_on_c, 0, 88, 91
2, 428040, Note_on_c, 0, 64, 37
2, 428203, Note_on_c, 0, 88, 0
2, 428203, Note_on_c, 0, 81, 0
2, 428203, Note_on_c, 0, 83, 0
2, 428220, Note_on_c, 0, 76, 63
2, 428365, Note_on_c, 0, 64, 0
2, 428383, Note_on_c, 0, 76, 0
2, 428400, Control_c, 0, 64, 0
2, 428400, Note_on_c, 0, 57, 42
2, 428400, Note_on_c, 0, 64, 45
2, 428508, Note_on_c, 0, 64, 0
2, 428508, Note_on_c, 0, 57, 0
2, 428520, Note_on_c, 0, 69, 48
2, 428580, Note_on_c, 0, 81, 81
2, 428628, Note_on_c, 0, 69, 0
2, 428639, Note_on_c, 0, 64, 38
2, 428743, Note_on_c, 0, 81, 0
2, 428749, Note_on_c, 0, 64, 0
2, 428760, Note_on_c, 0, 85, 116
2, 428760, Note_on_c, 0, 93, 115
2, 428760, Note_on_c, 0, 57, 32
2, 428923, Note_on_c, 0, 93, 0
2, 428923, Note_on_c, 0, 85, 0
2, 428940, Note_on_c, 0, 76, 68
2, 429085, Note_on_c, 0, 57, 0
2, 429103, Note_on_c, 0, 76, 0
2, 429120, Control_c, 0, 64, 127
2, 429120, Note_on_c, 0, 52, 46
2, 429120, Note_on_c, 0, 57, 46
2, 429228, Note_on_c, 0, 57, 0
2, 429228, Note_on_c, 0, 52, 0
2, 429240, Note_on_c, 0, 64, 52
2, 429348, Note_on_c, 0, 64, 0
2, 429359, Note_on_c, 0, 57, 36
2, 429469, Note_on_c, 0, 57, 0
2, 429480, Note_on_c, 0, 69, 102
2, 429480, Note_on_c, 0, 71, 103
2, 429480, Note_on_c, 0, 76, 104
2, 429480, Note_on_c, 0, 52, 37
2, 429643, Note_on_c, 0, 76, 0
2, 429643, Note_on_c, 0, 69, 0
2, 429643, Note_on_c, 0, 71, 0
2, 429660, Note_on_c, 0, 64, 64
2, 429805, Note_on_c, 0, 52, 0
2, 429823, Note_on_c, 0, 64, 0
2, 429840, Note_on_c, 0, 45, 45
2, 429840, Note_on_c, 0, 52, 46
2, 429948, Note_on_c, 0, 52, 0
2, 429948, Note_on_c, 0, 45, 0
2, 429960, Note_on_c, 0, 57, 48
2, 430020, Note_on_c, 0, 69, 80
2, 430068, Note_on_c, 0, 57, 0
2, 430079, Note_on_c, 0, 52, 36
2, 430183, Note_on_c, 0, 69, 0
2, 430189, Note_on_c, 0, 52, 0
2, 430200, Note_on_c, 0, 73, 120
2, 430200, Note_on_c, 0, 81, 122
2, 430200, Note_on_c, 0, 45, 34
2, 430200, Control_c, 0, 64, 0
2, 430363, Note_on_c, 0, 81, 0
2, 430363, Note_on_c, 0, 73, 0
2, 430380, Note_on_c, 0, 64, 69
2, 430525, Note_on_c, 0, 45, 0
2, 430543, Note_on_c, 0, 64, 0
2, 430560, Control_c, 0, 64, 127
2, 430560, Note_on_c, 0, 57, 57
2, 430560, Note_on_c, 0, 57, 60
2, 430668, Note_on_c, 0, 57, 0
2, 430680, Note_on_c, 0, 64, 51
2, 430788, Note_on_c, 0, 64, 0
2, 430799, Note_on_c, 0, 69, 79
2, 430799, Note_on_c, 0, 69, 103
2, 430799, Note_on_c, 0, 57, 37
2, 430909, Note_on_c, 0, 69, 0
2, 430909, Note_on_c, 0, 57, 0
2, 430920, Note_on_c, 0, 76, 122
2, 430920, Note_on_c, 0, 52, 36
2, 431028, Note_on_c, 0, 76, 0
2, 431040, Note_on_c, 0, 69, 78
2, 431148, Note_on_c, 0, 69, 0
2, 431159, Note_on_c, 0, 61, 70
2, 431210, Note_on_c, 0, 57, 0
2, 431245, Note_on_c, 0, 69, 0
2, 431245, Note_on_c, 0, 52, 0
2, 431269, Note_on_c, 0, 61, 0
2, 431280, Note_on_c, 0, 55, 48
2, 431280, Note_on_c, 0, 55, 43
2, 431388, Note_on_c, 0, 55, 0
2, 431400, Note_on_c, 0, 64, 53
2, 431508, Note_on_c, 0, 64, 0
2, 431519, Note_on_c, 0, 70, 81
2, 431519, Note_on_c, 0, 70, 102
2, 431519, Note_on_c, 0, 52, 31
2, 431629, Note_on_c, 0, 52, 0
2, 431629, Note_on_c, 0, 70, 0
2, 431640, Note_on_c, 0, 76, 122
2, 431640, Note_on_c, 0, 45, 31
2, 431640, Control_c, 0, 64, 0
2, 431748, Note_on_c, 0, 76, 0
2, 431760, Note_on_c, 0, 70, 77
2, 431868, Note_on_c, 0, 70, 0
2, 431879, Note_on_c, 0, 61, 67
2, 431930, Note_on_c, 0, 55, 0
2, 431965, Note_on_c, 0, 70, 0
2, 431965, Note_on_c, 0, 45, 0
2, 431989, Note_on_c, 0, 61, 0
2, 432000, Control_c, 0, 64, 127
2, 432000, Note_on_c, 0, 57, 56
2, 432000, Note_on_c, 0, 57, 48
2, 432108, Note_on_c, 0, 57, 0
2, 432120, Note_on_c, 0, 64, 53
2, 432228, Note_on_c, 0, 64, 0
2, 432239, Note_on_c, 0, 69, 79
2, 432239, Note_on_c, 0, 69, 102
2, 432239, Note_on_c, 0, 57, 35
2, 432349, Note_on_c, 0, 69, 0
2, 432349, Note_on_c, 0, 57, 0
2, 432360, Note_on_c, 0, 76, 122
2, 432360, Note_on_c, 0, 52, 37
2, 432468, Note_on_c, 0, 76, 0
2, 432480, Note_on_c, 0, 69, 74
2, 432588, Note_on_c, 0, 69, 0
2, 432599, Note_on_c, 0, 61, 68
2, 432650, Note_on_c, 0, 57, 0
2, 432685, Note_on_c, 0, 69, 0
2, 432685, Note_on_c, 0, 52, 0
2, 432709, Note_on_c, 0, 61, 0
2, 432720, Note_on_c, 0, 55, 48
2, 432720, Note_on_c, 0, 55, 42
2, 432828, Note_on_c, 0, 55, 0
2, 432840, Note_on_c, 0, 64, 53
2, 432948, Note_on_c, 0, 64, 0
2, 432959, Note_on_c, 0, 70, 80
2, 432959, Note_on_c, 0, 70, 104
2, 432959, Note_on_c, 0, 52, 30
2, 433069, Note_on_c, 0, 52, 0
2, 433069, Note_on_c, 0, 70, 0
2, 433080, Note_on_c, 0, 76, 122
2, 433080, Note_on_c, 0, 45, 32
2, 433080, Control_c, 0, 64, 0
2, 433188, Note_on_c, 0, 76, 0
2, 433200, Note_on_c, 0, 70, 78
2, 433308, Note_on_c, 0, 70, 0
2, 433319, Note_on_c, 0, 61, 69
2, 433370, Note_on_c, 0, 55, 0
2, 433405, Note_on_c, 0, 70, 0
2, 433405, Note_on_c, 0, 45, 0
2, 433429, Note_on_c, 0, 61, 0
2, 433440, Control_c, 0, 64, 127
2, 433440, Note_on_c, 0, 57, 56
2, 433440, Note_on_c, 0, 57, 46
2, 433548, Note_on_c, 0, 57, 0
2, 433560, Note_on_c, 0, 66, 56
2, 433668, Note_on_c, 0, 66, 0
2, 433679, Note_on_c, 0, 69, 82
2, 433679, Note_on_c, 0, 69, 102
2, 433679, Note_on_c, 0, 60, 38
2, 433789, Note_on_c, 0, 60, 0
2, 433789, Note_on_c, 0, 69, 0
2, 433800, Note_on_c, 0, 74, 122
2, 433800, Note_on_c, 0, 50, 30
2, 433908, Note_on_c, 0, 74, 0
2, 433920, Note_on_c, 0, 66, 72
2, 434028, Note_on_c, 0, 66, 0
2, 434039, Note_on_c, 0, 62, 76
2, 434090, Note_on_c, 0, 57, 0
2, 434125, Note_on_c, 0, 50, 0
2, 434125, Note_on_c, 0, 69, 0
2, 434149, Note_on_c, 0, 62, 0
2, 434160, Note_on_c, 0, 55, 50
2, 434160, Note_on_c, 0, 55, 39
2, 434268, Note_on_c, 0, 55, 0
2, 434280, Note_on_c, 0, 67, 56
2, 434388, Note_on_c, 0, 67, 0
2, 434399, Note_on_c, 0, 75, 82
2, 434399, Note_on_c, 0, 75, 105
2, 434399, Note_on_c, 0, 60, 36
2, 434509, Note_on_c, 0, 60, 0
2, 434509, Note_on_c, 0, 75, 0
2, 434520, Note_on_c, 0, 81, 122
2, 434520, Note_on_c, 0, 50, 32
2, 434520, Control_c, 0, 64, 0
2, 434628, Note_on_c, 0, 81, 0
2, 434640, Note_on_c, 0, 72, 70
2, 434748, Note_on_c, 0, 72, 0
2, 434759, Note_on_c, 0, 69, 79
2, 434810, Note_on_c, 0, 55, 0
2, 434845, Note_on_c, 0, 50, 0
2, 434845, Note_on_c, 0, 75, 0
2, 434869, Note_on_c, 0, 69, 0
2, 434880, Control_c, 0, 64, 127
2, 434880, Note_on_c, 0, 57, 50
2, 434880, Note_on_c, 0, 57, 46
2, 434988, Note_on_c, 0, 57, 0
2, 435000, Note_on_c, 0, 66, 55
2, 435108, Note_on_c, 0, 66, 0
2, 435119, Note_on_c, 0, 69, 81
2, 435119, Note_on_c, 0, 69, 103
2, 435119, Note_on_c, 0, 60, 35
2, 435229, Note_on_c, 0, 60, 0
2, 435229, Note_on_c, 0, 69, 0
2, 435240, Note_on_c, 0, 74, 122
2, 435240, Note_on_c, 0, 50, 33
2, 435348, Note_on_c, 0, 74, 0
2, 435360, Note_on_c, 0, 66, 72
2, 435468, Note_on_c, 0, 66, 0
2, 435479, Note_on_c, 0, 62, 75
2, 435530, Note_on_c, 0, 57, 0
2, 435565, Note_on_c, 0, 50, 0
2, 435565, Note_on_c, 0, 69, 0
2, 435589, Note_on_c, 0, 62, 0
2, 435600, Note_on_c, 0, 55, 51
2, 435600, Note_on_c, 0, 55, 39
2, 435708, Note_on_c, 0, 55, 0
2, 435720, Note_on_c, 0, 67, 54
2, 435828, Note_on_c, 0, 67, 0
2, 435839, Note_on_c, 0, 75, 83
2, 435839, Note_on_c, 0, 75, 105
2, 435839, Note_on_c, 0, 60, 35
2, 435949, Note_on_c, 0, 60, 0
2, 435949, Note_on_c, 0, 75, 0
2, 435960, Note_on_c, 0, 81, 122
2, 435960, Note_on_c, 0, 50, 30
2, 435960, Control_c, 0, 64, 0
2, 436068, Note_on_c, 0, 81, 0
2, 436080, Note_on_c, 0, 72, 74
2, 436188, Note_on_c, 0, 72, 0
2, 436199, Note_on_c, 0, 69, 79
2, 436250, Note_on_c, 0, 55, 0
2, 436285, Note_on_c, 0, 50, 0
2, 436285, Note_on_c, 0, 75, 0
2, 436309, Note_on_c, 0, 69, 0
2, 436320, Control_c, 0, 64, 127
2, 436320, Note_on_c, 0, 50, 54
2, 436320, Note_on_c, 0, 57, 51
2, 436428, Note_on_c, 0, 57, 0
2, 436428, Note_on_c, 0, 50, 0
2, 436440, Note_on_c, 0, 62, 51
2, 436500, Note_on_c, 0, 60, 79
2, 436548, Note_on_c, 0, 62, 0
2, 436559, Note_on_c, 0, 57, 38
2, 436663, Note_on_c, 0, 60, 0
2, 436669, Note_on_c, 0, 57, 0
2, 436680, Note_on_c, 0, 66, 114
2, 436680, Note_on_c, 0, 69, 115
2, 436680, Note_on_c, 0, 72, 117
2, 436680, Note_on_c, 0, 50, 31
2, 436843, Note_on_c, 0, 72, 0
2, 436843, Note_on_c, 0, 66, 0
2, 436843, Note_on_c, 0, 69, 0
2, 436860, Note_on_c, 0, 60, 69
2, 437005, Note_on_c, 0, 50, 0
2, 437023, Note_on_c, 0, 60, 0
2, 437040, Note_on_c, 0, 45, 45
2, 437040, Note_on_c, 0, 50, 44
2, 437148, Note_on_c, 0, 50, 0
2, 437148, Note_on_c, 0, 45, 0
2, 437160, Note_on_c, 0, 57, 51
2, 437220, Note_on_c, 0, 62, 82
2, 437268, Note_on_c, 0, 57, 0
2, 437279, Note_on_c, 0, 50, 36
2, 437383, Note_on_c, 0, 62, 0
2, 437389, Note_on_c, 0, 50, 0
2, 437400, Note_on_c, 0, 66, 114
2, 437400, Note_on_c, 0, 69, 115
2, 437400, Note_on_c, 0, 74, 117
2, 437400, Note_on_c, 0, 45, 35
2, 437400, Control_c, 0, 64, 0
2, 437563, Note_on_c, 0, 74, 0
2, 437563, Note_on_c, 0, 66, 0
2, 437563, Note_on_c, 0, 69, 0
2, 437580, Note_on_c, 0, 62, 68
2, 437725, Note_on_c, 0, 45, 0
2, 437743, Note_on_c, 0, 62, 0
2, 437760, Control_c, 0, 64, 127
2, 437760, Note_on_c, 0, 48, 56
2, 437760, Note_on_c, 0, 56, 55
2, 437868, Note_on_c, 0, 56, 0
2, 437868, Note_on_c, 0, 48, 0
2, 437880, Note_on_c, 0, 60, 50
2, 437940, Note_on_c, 0, 60, 82
2, 437988, Note_on_c, 0, 60, 0
2, 437999, Note_on_c, 0, 56, 37
2, 438103, Note_on_c, 0, 60, 0
2, 438109, Note_on_c, 0, 56, 0
2, 438120, Note_on_c, 0, 65, 116
2, 438120, Note_on_c, 0, 68, 115
2, 438120, Note_on_c, 0, 72, 115
2, 438120, Note_on_c, 0, 48, 32
2, 438283, Note_on_c, 0, 72, 0
2, 438283, Note_on_c, 0, 65, 0
2, 438283, Note_on_c, 0, 68, 0
2, 438300, Note_on_c, 0, 60, 70
2, 438445, Note_on_c, 0, 48, 0
2, 438463, Note_on_c, 0, 60, 0
2, 438480, Note_on_c, 0, 41, 40
2, 438480, Note_on_c, 0, 48, 40
2, 438588, Note_on_c, 0, 48, 0
2, 438588, Note_on_c, 0, 41, 0
2, 438600, Note_on_c, 0, 56, 52
2, 438660, Note_on_c, 0, 62, 80
2, 438708, Note_on_c, 0, 56, 0
2, 438719, Note_on_c, 0, 48, 35
2, 438823, Note_on_c, 0, 62, 0
2, 438829, Note_on_c, 0, 48, 0
2, 438840, Note_on_c, 0, 65, 116
2, 438840, Note_on_c, 0, 68, 114
2, 438840, Note_on_c, 0, 74, 113
2, 438840, Note_on_c, 0, 41, 34
2, 438840, Control_c, 0, 64, 0
2, 439003, Note_on_c, 0, 74, 0
2, 439003, Note_on_c, 0, 65, 0
2, 439003, Note_on_c, 0, 68, 0
2, 439020, Note_on_c, 0, 62, 70
2, 439165, Note_on_c, 0, 41, 0
2, 439183, Note_on_c, 0, 62, 0
2, 439200, Control_c, 0, 64, 127
2, 439200, Note_on_c, 0, 46, 58
2, 439200, Note_on_c, 0, 55, 56
2, 439308, Note_on_c, 0, 55, 0
2, 439308, Note_on_c, 0, 46, 0
2, 439320, Note_on_c, 0, 58, 47
2, 439380, Note_on_c, 0, 60, 81
2, 439428, Note_on_c, 0, 58, 0
2, 439439, Note_on_c, 0, 55, 38
2, 439543, Note_on_c, 0, 60, 0
2, 439549, Note_on_c, 0, 55, 0
2, 439560, Note_on_c, 0, 63, 116
2, 439560, Note_on_c, 0, 67, 114
2, 439560, Note_on_c, 0, 72, 114
2, 439560, Note_on_c, 0, 46, 33
2, 439723, Note_on_c, 0, 72, 0
2, 439723, Note_on_c, 0, 63, 0
2, 439723, Note_on_c, 0, 67, 0
2, 439740, Note_on_c, 0, 60, 69
2, 439885, Note_on_c, 0, 46, 0
2, 439903, Note_on_c, 0, 60, 0
2, 439920, Note_on_c, 0, 39, 42
2, 439920, Note_on_c, 0, 46, 42
2, 440028, Note_on_c, 0, 46, 0
2, 440028, Note_on_c, 0, 39, 0
2, 440040, Note_on_c, 0, 55, 53
2, 440100, Note_on_c, 0, 62, 83
2, 440148, Note_on_c, 0, 55, 0
2, 440159, Note_on_c, 0, 46, 35
2, 440263, Note_on_c, 0, 62, 0
2, 440269, Note_on_c, 0, 46, 0
2, 440280, Note_on_c, 0, 63, 115
2, 440280, Note_on_c, 0, 67, 114
2, 440280, Note_on_c, 0, 74, 114
2, 440280, Note_on_c, 0, 39, 33
2, 440280, Control_c, 0, 64, 0
2, 440443, Note_on_c, 0, 74, 0
2, 440443, Note_on_c, 0, 63, 0
2, 440443, Note_on_c, 0, 67, 0
2, 440460, Note_on_c, 0, 62, 68
2, 440605, Note_on_c, 0, 39, 0
2, 440623, Note_on_c, 0, 62, 0
2, 440640, Control_c, 0, 64, 127
2, 440640, Note_on_c, 0, 45, 57
2, 440640, Note_on_c, 0, 54, 58
2, 440748, Note_on_c, 0, 54, 0
2, 440748, Note_on_c, 0, 45, 0
2, 440760, Note_on_c, 0, 57, 48
2, 440820, Note_on_c, 0, 60, 82
2, 440868, Note_on_c, 0, 57, 0
2, 440879, Note_on_c, 0, 54, 39
2, 440983, Note_on_c, 0, 60, 0
2, 440989, Note_on_c, 0, 54, 0
2, 441000, Note_on_c, 0, 62, 116
2, 441000, Note_on_c, 0, 66, 114
2, 441000, Note_on_c, 0, 72, 115
2, 441000, Note_on_c, 0, 45, 33
2, 441163, Note_on_c, 0, 72, 0
2, 441163, Note_on_c, 0, 62, 0
2, 441163, Note_on_c, 0, 66, 0
2, 441180, Note_on_c, 0, 60, 68
2, 441325, Note_on_c, 0, 45, 0
2, 441343, Note_on_c, 0, 60, 0
2, 441360, Note_on_c, 0, 38, 44
2, 441360, Note_on_c, 0, 45, 42
2, 441468, Note_on_c, 0, 45, 0
2, 441468, Note_on_c, 0, 38, 0
2, 441480, Note_on_c, 0, 54, 53
2, 441540, Note_on_c, 0, 74, 82
2, 441588, Note_on_c, 0, 54, 0
2, 441599, Note_on_c, 0, 54, 43
2, 441720, Note_on_c, 0, 82, 122
2, 441720, Note_on_c, 0, 86, 122
2, 441720, Note_on_c, 0, 60, 53
2, 441720, Note_on_c, 0, 62, 54
2, 441720, Control_c, 0, 64, 0
2, 441828, Note_on_c, 0, 86, 0
2, 441828, Note_on_c, 0, 82, 0
2, 441828, Note_on_c, 0, 74, 0
2, 441959, Note_on_c, 0, 72, 102
2, 441959, Note_on_c, 0, 81, 104
2, 441959, Note_on_c, 0, 84, 104
2, 442045, Note_on_c, 0, 54, 0
2, 442045, Note_on_c, 0, 62, 0
2, 442045, Note_on_c, 0, 60, 0
2, 442069, Note_on_c, 0, 72, 0
2, 442069, Note_on_c, 0, 81, 0
2, 442069, Note_on_c, 0, 84, 0
2, 442080, Note_on_c, 0, 74, 122
2, 442080, Note_on_c, 0, 82, 122
2, 442080, Note_on_c, 0, 86, 122
2, 442080, Control_c, 0, 64, 127
2, 442080, Note_on_c, 0, 43, 33
2, 442080, Note_on_c, 0, 50, 35
2, 442188, Note_on_c, 0, 50, 0
2, 442188, Note_on_c, 0, 43, 0
2, 442200, Note_on_c, 0, 55, 48
2, 442308, Note_on_c, 0, 55, 0
2, 442319, Note_on_c, 0, 50, 38
2, 442405, Note_on_c, 0, 86, 0
2, 442405, Note_on_c, 0, 74, 0
2, 442405, Note_on_c, 0, 82, 0
2, 442429, Note_on_c, 0, 50, 0
2, 442440, Note_on_c, 0, 62, 76
2, 442440, Note_on_c, 0, 65, 76
2, 442440, Note_on_c, 0, 70, 75
2, 442440, Note_on_c, 0, 43, 33
2, 442603, Note_on_c, 0, 70, 0
2, 442603, Note_on_c, 0, 62, 0
2, 442603, Note_on_c, 0, 65, 0
2, 442620, Note_on_c, 0, 58, 73
2, 442765, Note_on_c, 0, 43, 0
2, 442783, Note_on_c, 0, 58, 0
2, 442800, Note_on_c, 0, 38, 44
2, 442800, Note_on_c, 0, 43, 44
2, 442908, Note_on_c, 0, 43, 0
2, 442908, Note_on_c, 0, 38, 0
2, 442920, Note_on_c, 0, 50, 50
2, 442980, Note_on_c, 0, 62, 92
2, 443028, Note_on_c, 0, 50, 0
2, 443039, Note_on_c, 0, 43, 36
2, 443143, Note_on_c, 0, 62, 0
2, 443149, Note_on_c, 0, 43, 0
2, 443160, Note_on_c, 0, 67, 121
2, 443160, Note_on_c, 0, 70, 122
2, 443160, Note_on_c, 0, 74, 122
2, 443160, Note_on_c, 0, 38, 37
2, 443160, Control_c, 0, 64, 0
2, 443268, Note_on_c, 0, 74, 0
2, 443268, Note_on_c, 0, 67, 0
2, 443268, Note_on_c, 0, 70, 0
2, 443399, Note_on_c, 0, 69, 106
2, 443399, Note_on_c, 0, 72, 108
2, 443485, Note_on_c, 0, 38, 0
2, 443509, Note_on_c, 0, 72, 0
2, 443509, Note_on_c, 0, 69, 0
2, 443520, Note_on_c, 0, 70, 122
2, 443520, Note_on_c, 0, 74, 122
2, 443520, Control_c, 0, 64, 127
2, 443520, Note_on_c, 0, 50, 60
2, 443520, Note_on_c, 0, 55, 60
2, 443628, Note_on_c, 0, 55, 0
2, 443628, Note_on_c, 0, 50, 0
2, 443640, Note_on_c, 0, 62, 53
2, 443748, Note_on_c, 0, 62, 0
2, 443759, Note_on_c, 0, 55, 36
2, 443845, Note_on_c, 0, 74, 0
2, 443845, Note_on_c, 0, 70, 0
2, 443869, Note_on_c, 0, 55, 0
2, 443880, Note_on_c, 0, 69, 107
2, 443880, Note_on_c, 0, 70, 104
2, 443880, Note_on_c, 0, 74, 108
2, 443880, Note_on_c, 0, 50, 36
2, 444043, Note_on_c, 0, 74, 0
2, 444043, Note_on_c, 0, 69, 0
2, 444043, Note_on_c, 0, 70, 0
2, 444060, Note_on_c, 0, 62, 76
2, 444205, Note_on_c, 0, 50, 0
2, 444223, Note_on_c, 0, 62, 0
2, 444240, Note_on_c, 0, 31, 34
2, 444240, Note_on_c, 0, 38, 30
2, 444348, Note_on_c, 0, 38, 0
2, 444348, Note_on_c, 0, 31, 0
2, 444360, Note_on_c, 0, 43, 45
2, 444420, Note_on_c, 0, 70, 95
2, 444468, Note_on_c, 0, 43, 0
2, 444479, Note_on_c, 0, 38, 38
2, 444583, Note_on_c, 0, 70, 0
2, 444589, Note_on_c, 0, 38, 0
2, 444600, Note_on_c, 0, 74, 121
2, 444600, Note_on_c, 0, 82, 122
2, 444600, Note_on_c, 0, 86, 120
2, 444600, Note_on_c, 0, 31, 33
2, 444600, Control_c, 0, 64, 0
2, 444708, Note_on_c, 0, 86, 0
2, 444708, Note_on_c, 0, 74, 0
2, 444708, Note_on_c, 0, 82, 0
2, 444839, Note_on_c, 0, 81, 106
2, 444839, Note_on_c, 0, 84, 108
2, 444925, Note_on_c, 0, 31, 0
2, 444949, Note_on_c, 0, 84, 0
2, 444949, Note_on_c, 0, 81, 0
2, 444960, Note_on_c, 0, 74, 122
2, 444960, Note_on_c, 0, 82, 122
2, 444960, Note_on_c, 0, 86, 122
2, 444960, Control_c, 0, 64, 127
2, 444960, Note_on_c, 0, 43, 59
2, 444960, Note_on_c, 0, 50, 58
2, 445068, Note_on_c, 0, 50, 0
2, 445068, Note_on_c, 0, 43, 0
2, 445080, Note_on_c, 0, 55, 52
2, 445188, Note_on_c, 0, 55, 0
2, 445199, Note_on_c, 0, 50, 37
2, 445285, Note_on_c, 0, 86, 0
2, 445285, Note_on_c, 0, 74, 0
2, 445285, Note_on_c, 0, 82, 0
2, 445309, Note_on_c, 0, 50, 0
2, 445320, Note_on_c, 0, 62, 76
2, 445320, Note_on_c, 0, 65, 76
2, 445320, Note_on_c, 0, 70, 77
2, 445320, Note_on_c, 0, 43, 34
2, 445483, Note_on_c, 0, 70, 0
2, 445483, Note_on_c, 0, 62, 0
2, 445483, Note_on_c, 0, 65, 0
2, 445500, Note_on_c, 0, 58, 75
2, 445645, Note_on_c, 0, 43, 0
2, 445663, Note_on_c, 0, 58, 0
2, 445680, Note_on_c, 0, 38, 43
2, 445680, Note_on_c, 0, 43, 43
2, 445788, Note_on_c, 0, 43, 0
2, 445788, Note_on_c, 0, 38, 0
2, 445800, Note_on_c, 0, 50, 50
2, 445860, Note_on_c, 0, 62, 92
2, 445908, Note_on_c, 0, 50, 0
2, 445919, Note_on_c, 0, 43, 36
2, 446023, Note_on_c, 0, 62, 0
2, 446029, Note_on_c, 0, 43, 0
2, 446040, Note_on_c, 0, 67, 121
2, 446040, Note_on_c, 0, 70, 122
2, 446040, Note_on_c, 0, 74, 122
2, 446040, Note_on_c, 0, 38, 35
2, 446040, Control_c, 0, 64, 0
2, 446148, Note_on_c, 0, 74, 0
2, 446148, Note_on_c, 0, 67, 0
2, 446148, Note_on_c, 0, 70, 0
2, 446279, Note_on_c, 0, 69, 110
2, 446279, Note_on_c, 0, 72, 108
2, 446365, Note_on_c, 0, 38, 0
2, 446389, Note_on_c, 0, 72, 0
2, 446389, Note_on_c, 0, 69, 0
2, 446400, Note_on_c, 0, 70, 122
2, 446400, Note_on_c, 0, 74, 122
2, 446400, Control_c, 0, 64, 127
2, 446400, Note_on_c, 0, 50, 58
2, 446400, Note_on_c, 0, 55, 60
2, 446508, Note_on_c, 0, 55, 0
2, 446508, Note_on_c, 0, 50, 0
2, 446520, Note_on_c, 0, 62, 52
2, 446628, Note_on_c, 0, 62, 0
2, 446639, Note_on_c, 0, 55, 38
2, 446725, Note_on_c, 0, 74, 0
2, 446725, Note_on_c, 0, 70, 0
2, 446749, Note_on_c, 0, 55, 0
2, 446760, Note_on_c, 0, 69, 106
2, 446760, Note_on_c, 0, 70, 107
2, 446760, Note_on_c, 0, 74, 108
2, 446760, Note_on_c, 0, 50, 33
2, 446923, Note_on_c, 0, 74, 0
2, 446923, Note_on_c, 0, 69, 0
2, 446923, Note_on_c, 0, 70, 0
2, 446940, Note_on_c, 0, 62, 76
2, 447085, Note_on_c, 0, 50, 0
2, 447103, Note_on_c, 0, 62, 0
2, 447120, Note_on_c, 0, 31, 31
2, 447120, Note_on_c, 0, 38, 32
2, 447228, Note_on_c, 0, 38, 0
2, 447228, Note_on_c, 0, 31, 0
2, 447240, Note_on_c, 0, 43, 47
2, 447300, Note_on_c, 0, 70, 94
2, 447348, Note_on_c, 0, 43, 0
2, 447359, Note_on_c, 0, 38, 37
2, 447463, Note_on_c, 0, 70, 0
2, 447469, Note_on_c, 0, 38, 0
2, 447480, Note_on_c, 0, 74, 122
2, 447480, Note_on_c, 0, 82, 121
2, 447480, Note_on_c, 0, 86, 121
2, 447480, Note_on_c, 0, 31, 33
2, 447480, Control_c, 0, 64, 0
2, 447588, Note_on_c, 0, 86, 0
2, 447588, Note_on_c, 0, 74, 0
2, 447588, Note_on_c, 0, 82, 0
2, 447719, Note_on_c, 0, 81, 107
2, 447719, Note_on_c, 0, 84, 107
2, 447805, Note_on_c, 0, 31, 0
2, 447829, Note_on_c, 0, 84, 0
2, 447829, Note_on_c, 0, 81, 0
2, 447840, Note_on_c, 0, 74, 122
2, 447840, Note_on_c, 0, 82, 122
2, 447840, Note_on_c, 0, 86, 122
2, 447840, Control_c, 0, 64, 127
2, 447840, Note_on_c, 0, 53, 59
2, 447840, Note_on_c, 0, 62, 55
2, 447948, Note_on_c, 0, 62, 0
2, 447948, Note_on_c, 0, 53, 0
2, 447960, Note_on_c, 0, 65, 48
2, 448068, Note_on_c, 0, 65, 0
2, 448079, Note_on_c, 0, 62, 40
2, 448165, Note_on_c, 0, 86, 0
2, 448165, Note_on_c, 0, 74, 0
2, 448165, Note_on_c, 0, 82, 0
2, 448189, Note_on_c, 0, 62, 0
2, 448200, Note_on_c, 0, 70, 84
2, 448200, Note_on_c, 0, 72, 85
2, 448200, Note_on_c, 0, 77, 86
2, 448200, Note_on_c, 0, 53, 33
2, 448363, Note_on_c, 0, 77, 0
2, 448363, Note_on_c, 0, 70, 0
2, 448363, Note_on_c, 0, 72, 0
2, 448380, Note_on_c, 0, 65, 74
2, 448525, Note_on_c, 0, 53, 0
2, 448543, Note_on_c, 0, 65, 0
2, 448560, Note_on_c, 0, 46, 43
2, 448560, Note_on_c, 0, 53, 43
2, 448668, Note_on_c, 0, 53, 0
2, 448668, Note_on_c, 0, 46, 0
2, 448680, Note_on_c, 0, 58, 49
2, 448740, Note_on_c, 0, 67, 92
2, 448788, Note_on_c, 0, 58, 0
2, 448799, Note_on_c, 0, 53, 36
2, 448903, Note_on_c, 0, 67, 0
2, 448909, Note_on_c, 0, 53, 0
2, 448920, Note_on_c, 0, 70, 122
2, 448920, Note_on_c, 0, 74, 121
2, 448920, Note_on_c, 0, 79, 120
2, 448920, Note_on_c, 0, 46, 34
2, 448920, Control_c, 0, 64, 0
2, 449083, Note_on_c, 0, 79, 0
2, 449083, Note_on_c, 0, 70, 0
2, 449083, Note_on_c, 0, 74, 0
2, 449100, Note_on_c, 0, 67, 81
2, 449245, Note_on_c, 0, 46, 0
2, 449263, Note_on_c, 0, 67, 0
2, 449280, Control_c, 0, 64, 127
2, 449280, Note_on_c, 0, 50, 58
2, 449280, Note_on_c, 0, 58, 58
2, 449388, Note_on_c, 0, 58, 0
2, 449388, Note_on_c, 0, 50, 0
2, 449400, Note_on_c, 0, 62, 51
2, 449460, Note_on_c, 0, 70, 93
2, 449508, Note_on_c, 0, 62, 0
2, 449519, Note_on_c, 0, 58, 40
2, 449623, Note_on_c, 0, 70, 0
2, 449629, Note_on_c, 0, 58, 0
2, 449640, Note_on_c, 0, 74, 122
2, 449640, Note_on_c, 0, 77, 122
2, 449640, Note_on_c, 0, 82, 122
2, 449640, Note_on_c, 0, 50, 31
2, 449803, Note_on_c, 0, 82, 0
2, 449803, Note_on_c, 0, 74, 0
2, 449803, Note_on_c, 0, 77, 0
2, 449820, Note_on_c, 0, 70, 79
2, 449965, Note_on_c, 0, 50, 0
2, 449983, Note_on_c, 0, 70, 0
2, 450000, Note_on_c, 0, 31, 30
2, 450000, Note_on_c, 0, 38, 33
2, 450108, Note_on_c, 0, 38, 0
2, 450108, Note_on_c, 0, 31, 0
2, 450120, Note_on_c, 0, 43, 46
2, 450180, Note_on_c, 0, 74, 95
2, 450228, Note_on_c, 0, 43, 0
2, 450239, Note_on_c, 0, 38, 35
2, 450343, Note_on_c, 0, 74, 0
2, 450349, Note_on_c, 0, 38, 0
2, 450360, Note_on_c, 0, 77, 122
2, 450360, Note_on_c, 0, 86, 122
2, 450360, Note_on_c, 0, 89, 122
2, 450360, Note_on_c, 0, 31, 34
2, 450360, Control_c, 0, 64, 0
2, 450468, Note_on_c, 0, 89, 0
2, 450468, Note_on_c, 0, 77, 0
2, 450468, Note_on_c, 0, 86, 0
2, 450599, Note_on_c, 0, 84, 107
2, 450599, Note_on_c, 0, 87, 109
2, 450685, Note_on_c, 0, 31, 0
2, 450709, Note_on_c, 0, 87, 0
2, 450709, Note_on_c, 0, 84, 0
2, 450720, Note_on_c, 0, 77, 122
2, 450720, Note_on_c, 0, 86, 122
2, 450720, Note_on_c, 0, 89, 122
2, 450720, Control_c, 0, 64, 127
2, 450720, Note_on_c, 0, 53, 57
2, 450720, Note_on_c, 0, 62, 57
2, 450828, Note_on_c, 0, 62, 0
2, 450828, Note_on_c, 0, 53, 0
2, 450840, Note_on_c, 0, 65, 50
2, 450948, Note_on_c, 0, 65, 0
2, 450959, Note_on_c, 0, 62, 40
2, 451045, Note_on_c, 0, 89, 0
2, 451045, Note_on_c, 0, 77, 0
2, 451045, Note_on_c, 0, 86, 0
2, 451069, Note_on_c, 0, 62, 0
2, 451080, Note_on_c, 0, 70, 85
2, 451080, Note_on_c, 0, 74, 83
2, 451080, Note_on_c, 0, 79, 85
2, 451080, Note_on_c, 0, 53, 32
2, 451243, Note_on_c, 0, 79, 0
2, 451243, Note_on_c, 0, 70, 0
2, 451243, Note_on_c, 0, 74, 0
2, 451260, Note_on_c, 0, 67, 75
2, 451405, Note_on_c, 0, 53, 0
2, 451423, Note_on_c, 0, 67, 0
2, 451440, Note_on_c, 0, 46, 46
2, 451440, Note_on_c, 0, 53, 45
2, 451548, Note_on_c, 0, 53, 0
2, 451548, Note_on_c, 0, 46, 0
2, 451560, Note_on_c, 0, 58, 47
2, 451620, Note_on_c, 0, 70, 96
2, 451668, Note_on_c, 0, 58, 0
2, 451679, Note_on_c, 0, 53, 36
2, 451783, Note_on_c, 0, 70, 0
2, 451789, Note_on_c, 0, 53, 0
2, 451800, Note_on_c, 0, 74, 122
2, 451800, Note_on_c, 0, 77, 122
2, 451800, Note_on_c, 0, 82, 122
2, 451800, Note_on_c, 0, 46, 34
2, 451800, Control_c, 0, 64, 0
2, 451963, Note_on_c, 0, 82, 0
2, 451963, Note_on_c, 0, 74, 0
2, 451963, Note_on_c, 0, 77, 0
2, 451980, Note_on_c, 0, 70, 80
2, 452125, Note_on_c, 0, 46, 0
2, 452143, Note_on_c, 0, 70, 0
2, 452160, Control_c, 0, 64, 127
2, 452160, Note_on_c, 0, 50, 57
2, 452160, Note_on_c, 0, 58, 56
2, 452268, Note_on_c, 0, 58, 0
2, 452268, Note_on_c, 0, 50, 0
2, 452280, Note_on_c, 0, 62, 52
2, 452340, Note_on_c, 0, 74, 96
2, 452388, Note_on_c, 0, 62, 0
2, 452399, Note_on_c, 0, 58, 37
2, 452503, Note_on_c, 0, 74, 0
2, 452509, Note_on_c, 0, 58, 0
2, 452520, Note_on_c, 0, 79, 122
2, 452520, Note_on_c, 0, 82, 121
2, 452520, Note_on_c, 0, 86, 122
2, 452520, Note_on_c, 0, 50, 30
2, 452683, Note_on_c, 0, 86, 0
2, 452683, Note_on_c, 0, 79, 0
2, 452683, Note_on_c, 0, 82, 0
2, 452700, Note_on_c, 0, 74, 81
2, 452845, Note_on_c, 0, 50, 0
2, 452863, Note_on_c, 0, 74, 0
2, 452880, Note_on_c, 0, 31, 30
2, 452880, Note_on_c, 0, 38, 33
2, 452988, Note_on_c, 0, 38, 0
2, 452988, Note_on_c, 0, 31, 0
2, 453000, Note_on_c, 0, 43, 46
2, 453060, Note_on_c, 0, 86, 94
2, 453108, Note_on_c, 0, 43, 0
2, 453119, Note_on_c, 0, 38, 37
2, 453223, Note_on_c, 0, 86, 0
2, 453229, Note_on_c, 0, 38, 0
2, 453240, Note_on_c, 0, 86, 121
2, 453240, Note_on_c, 0, 91, 121
2, 453240, Note_on_c, 0, 94, 122
2, 453240, Note_on_c, 0, 31, 31
2, 453240, Control_c, 0, 64, 0
2, 453348, Note_on_c, 0, 94, 0
2, 453348, Note_on_c, 0, 86, 0
2, 453348, Note_on_c, 0, 91, 0
2, 453479, Note_on_c, 0, 89, 106
2, 453479, Note_on_c, 0, 92, 109
2, 453565, Note_on_c, 0, 31, 0
2, 453589, Note_on_c, 0, 92, 0
2, 453589, Note_on_c, 0, 89, 0
2, 453600, Note_on_c, 0, 82, 122
2, 453600, Note_on_c, 0, 91, 122
2, 453600, Note_on_c, 0, 94, 122
2, 453600, Control_c, 0, 64, 127
2, 453600, Note_on_c, 0, 39, 57
2, 453600, Note_on_c, 0, 46, 56
2, 453708, Note_on_c, 0, 46, 0
2, 453708, Note_on_c, 0, 39, 0
2, 453720, Note_on_c, 0, 51, 50
2, 453828, Note_on_c, 0, 51, 0
2, 453839, Note_on_c, 0, 46, 38
2, 453925, Note_on_c, 0, 94, 0
2, 453925, Note_on_c, 0, 82, 0
2, 453925, Note_on_c, 0, 91, 0
2, 453949, Note_on_c, 0, 46, 0
2, 453960, Note_on_c, 0, 58, 54
2, 453960, Note_on_c, 0, 62, 51
2, 453960, Note_on_c, 0, 39, 35
2, 454123, Note_on_c, 0, 62, 0
2, 454123, Note_on_c, 0, 58, 0
2, 454140, Note_on_c, 0, 55, 57
2, 454285, Note_on_c, 0, 39, 0
2, 454303, Note_on_c, 0, 55, 0
2, 454320, Note_on_c, 0, 34, 44
2, 454320, Note_on_c, 0, 39, 42
2, 454428, Note_on_c, 0, 39, 0
2, 454428, Note_on_c, 0, 34, 0
2, 454440, Note_on_c, 0, 46, 49
2, 454500, Note_on_c, 0, 58, 67
2, 454548, Note_on_c, 0, 46, 0
2, 454559, Note_on_c, 0, 39, 33
2, 454663, Note_on_c, 0, 58, 0
2, 454669, Note_on_c, 0, 39, 0
2, 454680, Note_on_c, 0, 63, 121
2, 454680, Note_on_c, 0, 67, 121
2, 454680, Note_on_c, 0, 70, 120
2, 454680, Note_on_c, 0, 34, 35
2, 454680, Control_c, 0, 64, 0
2, 454788, Note_on_c, 0, 70, 0
2, 454788, Note_on_c, 0, 63, 0
2, 454788, Note_on_c, 0, 67, 0
2, 454919, Note_on_c, 0, 65, 88
2, 454919, Note_on_c, 0, 68, 88
2, 455005, Note_on_c, 0, 34, 0
2, 455029, Note_on_c, 0, 68, 0
2, 455029, Note_on_c, 0, 65, 0
2, 455040, Note_on_c, 0, 67, 107
2, 455040, Note_on_c, 0, 70, 106
2, 455040, Control_c, 0, 64, 127
2, 455040, Note_on_c, 0, 46, 57
2, 455040, Note_on_c, 0, 51, 57
2, 455148, Note_on_c, 0, 51, 0
2, 455148, Note_on_c, 0, 46, 0
2, 455160, Note_on_c, 0, 58, 52
2, 455268, Note_on_c, 0, 58, 0
2, 455279, Note_on_c, 0, 51, 37
2, 455365, Note_on_c, 0, 70, 0
2, 455365, Note_on_c, 0, 67, 0
2, 455389, Note_on_c, 0, 51, 0
2, 455400, Note_on_c, 0, 58, 65
2, 455400, Note_on_c, 0, 65, 64
2, 455400, Note_on_c, 0, 46, 34
2, 455563, Note_on_c, 0, 65, 0
2, 455563, Note_on_c, 0, 58, 0
2, 455580, Note_on_c, 0, 55, 58
2, 455725, Note_on_c, 0, 46, 0
2, 455743, Note_on_c, 0, 55, 0
2, 455760, Control_c, 0, 64, 0
2, 455760, Note_on_c, 0, 39, 44
2, 455760, Note_on_c, 0, 46, 45
2, 455868, Note_on_c, 0, 46, 0
2, 455868, Note_on_c, 0, 39, 0
2, 455880, Note_on_c, 0, 55, 55
2, 455940, Note_on_c, 0, 67, 71
2, 455988, Note_on_c, 0, 55, 0
2, 455999, Note_on_c, 0, 46, 33
2, 456103, Note_on_c, 0, 67, 0
2, 456109, Note_on_c, 0, 46, 0
2, 456120, Note_on_c, 0, 70, 122
2, 456120, Note_on_c, 0, 75, 122
2, 456120, Note_on_c, 0, 79, 120
2, 456120, Note_on_c, 0, 39, 34
2, 456228, Note_on_c, 0, 79, 0
2, 456228, Note_on_c, 0, 70, 0
2, 456228, Note_on_c, 0, 75, 0
2, 456359, Note_on_c, 0, 74, 99
2, 456359, Note_on_c, 0, 77, 98
2, 456445, Note_on_c, 0, 39, 0
2, 456469, Note_on_c, 0, 77, 0
2, 456469, Note_on_c, 0, 74, 0
2, 456480, Note_on_c, 0, 75, 117
2, 456480, Note_on_c, 0, 79, 118
2, 456480, Control_c, 0, 64, 127
2, 456480, Note_on_c, 0, 55, 56
2, 456480, Note_on_c, 0, 63, 59
2, 456588, Note_on_c, 0, 63, 0
2, 456588, Note_on_c, 0, 55, 0
2, 456600, Note_on_c, 0, 67, 52
2, 456708, Note_on_c, 0, 67, 0
2, 456719, Note_on_c, 0, 63, 39
2, 456805, Note_on_c, 0, 79, 0
2, 456805, Note_on_c, 0, 75, 0
2, 456829, Note_on_c, 0, 63, 0
2, 456840, Note_on_c, 0, 67, 75
2, 456840, Note_on_c, 0, 70, 75
2, 456840, Note_on_c, 0, 74, 76
2, 456840, Note_on_c, 0, 55, 31
2, 457003, Note_on_c, 0, 74, 0
2, 457003, Note_on_c, 0, 67, 0
2, 457003, Note_on_c, 0, 70, 0
2, 457020, Note_on_c, 0, 62, 60
2, 457165, Note_on_c, 0, 55, 0
2, 457183, Note_on_c, 0, 62, 0
2, 457200, Control_c, 0, 64, 0
2, 457200, Note_on_c, 0, 46, 42
2, 457200, Note_on_c, 0, 55, 45
2, 457308, Note_on_c, 0, 55, 0
2, 457308, Note_on_c, 0, 46, 0
2, 457320, Note_on_c, 0, 58, 45
2, 457380, Note_on_c, 0, 70, 80
2, 457428, Note_on_c, 0, 58, 0
2, 457439, Note_on_c, 0, 55, 38
2, 457543, Note_on_c, 0, 70, 0
2, 457549, Note_on_c, 0, 55, 0
2, 457560, Note_on_c, 0, 75, 122
2, 457560, Note_on_c, 0, 79, 121
2, 457560, Note_on_c, 0, 82, 122
2, 457560, Note_on_c, 0, 46, 33
2, 457668, Note_on_c, 0, 82, 0
2, 457668, Note_on_c, 0, 75, 0
2, 457668, Note_on_c, 0, 79, 0
2, 457799, Note_on_c, 0, 77, 104
2, 457799, Note_on_c, 0, 80, 107
2, 457885, Note_on_c, 0, 46, 0
2, 457909, Note_on_c, 0, 80, 0
2, 457909, Note_on_c, 0, 77, 0
2, 457920, Note_on_c, 0, 79, 122
2, 457920, Note_on_c, 0, 82, 122
2, 457920, Control_c, 0, 64, 127
2, 457920, Note_on_c, 0, 58, 55
2, 457920, Note_on_c, 0, 67, 59
2, 458028, Note_on_c, 0, 67, 0
2, 458028, Note_on_c, 0, 58, 0
2, 458040, Note_on_c, 0, 70, 51
2, 458148, Note_on_c, 0, 70, 0
2, 458159, Note_on_c, 0, 67, 39
2, 458245, Note_on_c, 0, 82, 0
2, 458245, Note_on_c, 0, 79, 0
2, 458269, Note_on_c, 0, 67, 0
2, 458280, Note_on_c, 0, 70, 79
2, 458280, Note_on_c, 0, 77, 81
2, 458280, Note_on_c, 0, 58, 32
2, 458443, Note_on_c, 0, 77, 0
2, 458443, Note_on_c, 0, 70, 0
2, 458460, Note_on_c, 0, 67, 66
2, 458605, Note_on_c, 0, 58, 0
2, 458623, Note_on_c, 0, 67, 0
2, 458640, Note_on_c, 0, 55, 49
2, 458640, Note_on_c, 0, 63, 49
2, 458748, Note_on_c, 0, 63, 0
2, 458748, Note_on_c, 0, 55, 0
2, 458760, Note_on_c, 0, 67, 49
2, 458820, Note_on_c, 0, 75, 84
2, 458868, Note_on_c, 0, 67, 0
2, 458879, Note_on_c, 0, 63, 38
2, 458983, Note_on_c, 0, 75, 0
2, 458989, Note_on_c, 0, 63, 0
2, 459000, Note_on_c, 0, 79, 119
2, 459000, Note_on_c, 0, 87, 119
2, 459000, Note_on_c, 0, 55, 31
2, 459000, Control_c, 0, 64, 0
2, 459163, Note_on_c, 0, 87, 0
2, 459163, Note_on_c, 0, 79, 0
2, 459180, Note_on_c, 0, 75, 69
2, 459325, Note_on_c, 0, 55, 0
2, 459343, Note_on_c, 0, 75, 0
2, 459360, Note_on_c, 0, 94, 122
2, 459360, Note_on_c, 0, 75, 87
2, 459360, Note_on_c, 0, 79, 88
2, 459360, Note_on_c, 0, 82, 87
2, 459468, Note_on_c, 0, 94, 0
2, 459480, Note_on_c, 0, 87, 91
2, 459588, Note_on_c, 0, 87, 0
2, 459599, Note_on_c, 0, 94, 122
2, 459709, Note_on_c, 0, 94, 0
2, 459720, Note_on_c, 0, 82, 79
2, 459935, Note_on_c, 0, 82, 0
2, 459935, Note_on_c, 0, 82, 0
2, 459935, Note_on_c, 0, 79, 0
2, 459935, Note_on_c, 0, 75, 0
2, 459959, Note_on_c, 0, 75, 81
2, 459959, Note_on_c, 0, 65, 29
2, 459959, Note_on_c, 0, 68, 30
2, 460069, Note_on_c, 0, 68, 0
2, 460069, Note_on_c, 0, 65, 0
2, 460069, Note_on_c, 0, 75, 0
2, 460080, Note_on_c, 0, 82, 122
2, 460080, Note_on_c, 0, 63, 70
2, 460080, Note_on_c, 0, 67, 70
2, 460080, Note_on_c, 0, 70, 71
2, 460188, Note_on_c, 0, 82, 0
2, 460200, Note_on_c, 0, 70, 78
2, 460308, Note_on_c, 0, 70, 0
2, 460319, Note_on_c, 0, 82, 122
2, 460429, Note_on_c, 0, 82, 0
2, 460440, Note_on_c, 0, 75, 91
2, 460548, Note_on_c, 0, 75, 0
2, 460560, Note_on_c, 0, 82, 122
2, 460655, Note_on_c, 0, 63, 0
2, 460655, Note_on_c, 0, 70, 0
2, 460655, Note_on_c, 0, 67, 0
2, 460668, Note_on_c, 0, 82, 0
2, 460679, Note_on_c, 0, 82, 108
2, 460679, Note_on_c, 0, 77, 55
2, 460679, Note_on_c, 0, 80, 53
2, 460789, Note_on_c, 0, 80, 0
2, 460789, Note_on_c, 0, 77, 0
2, 460789, Note_on_c, 0, 82, 0
2, 460800, Note_on_c, 0, 94, 122
2, 460800, Note_on_c, 0, 75, 77
2, 460800, Note_on_c, 0, 79, 78
2, 460800, Note_on_c, 0, 82, 78
2, 460908, Note_on_c, 0, 94, 0
2, 460920, Note_on_c, 0, 87, 92
2, 461028, Note_on_c, 0, 87, 0
2, 461039, Note_on_c, 0, 94, 122
2, 461149, Note_on_c, 0, 94, 0
2, 461160, Note_on_c, 0, 82, 80
2, 461375, Note_on_c, 0, 82, 0
2, 461375, Note_on_c, 0, 82, 0
2, 461375, Note_on_c, 0, 79, 0
2, 461375, Note_on_c, 0, 75, 0
2, 461399, Note_on_c, 0, 75, 78
2, 461399, Note_on_c, 0, 65, 28
2, 461399, Note_on_c, 0, 68, 28
2, 461509, Note_on_c, 0, 68, 0
2, 461509, Note_on_c, 0, 65, 0
2, 461509, Note_on_c, 0, 75, 0
2, 461520, Note_on_c, 0, 82, 119
2, 461520, Note_on_c, 0, 63, 71
2, 461520, Note_on_c, 0, 67, 67
2, 461520, Note_on_c, 0, 70, 71
2, 461628, Note_on_c, 0, 82, 0
2, 461640, Note_on_c, 0, 70, 79
2, 461748, Note_on_c, 0, 70, 0
2, 461759, Note_on_c, 0, 82, 122
2, 461869, Note_on_c, 0, 82, 0
2, 461880, Note_on_c, 0, 75, 88
2, 461988, Note_on_c, 0, 75, 0
2, 462000, Note_on_c, 0, 82, 121
2, 462095, Note_on_c, 0, 63, 0
2, 462095, Note_on_c, 0, 70, 0
2, 462095, Note_on_c, 0, 67, 0
2, 462108, Note_on_c, 0, 82, 0
2, 462119, Note_on_c, 0, 82, 109
2, 462119, Note_on_c, 0, 77, 53
2, 462119, Note_on_c, 0, 80, 52
2, 462229, Note_on_c, 0, 80, 0
2, 462229, Note_on_c, 0, 77, 0
2, 462229, Note_on_c, 0, 82, 0
2, 462240, Note_on_c, 0, 94, 122
2, 462240, Note_on_c, 0, 75, 78
2, 462240, Note_on_c, 0, 79, 77
2, 462240, Note_on_c, 0, 82, 77
2, 462348, Note_on_c, 0, 94, 0
2, 462360, Note_on_c, 0, 87, 91
2, 462468, Note_on_c, 0, 87, 0
2, 462479, Note_on_c, 0, 94, 122
2, 462589, Note_on_c, 0, 94, 0
2, 462600, Note_on_c, 0, 82, 79
2, 462708, Note_on_c, 0, 82, 0
2, 462720, Note_on_c, 0, 82, 102
2, 462815, Note_on_c, 0, 75, 0
2, 462815, Note_on_c, 0, 82, 0
2, 462815, Note_on_c, 0, 79, 0
2, 462828, Note_on_c, 0, 82, 0
2, 462839, Note_on_c, 0, 75, 83
2, 462839, Note_on_c, 0, 65, 30
2, 462839, Note_on_c, 0, 68, 30
2, 462949, Note_on_c, 0, 68, 0
2, 462949, Note_on_c, 0, 65, 0
2, 462949, Note_on_c, 0, 75, 0
2, 462960, Note_on_c, 0, 82, 122
2, 462960, Note_on_c, 0, 63, 68
2, 462960, Note_on_c, 0, 67, 70
2, 462960, Note_on_c, 0, 70, 69
2, 463068, Note_on_c, 0, 82, 0
2, 463080, Note_on_c, 0, 70, 79
2, 463188, Note_on_c, 0, 70, 0
2, 463199, Note_on_c, 0, 82, 122
2, 463309, Note_on_c, 0, 82, 0
2, 463320, Note_on_c, 0, 75, 89
2, 463428, Note_on_c, 0, 75, 0
2, 463440, Note_on_c, 0, 82, 122
2, 463535, Note_on_c, 0, 63, 0
2, 463535, Note_on_c, 0, 70, 0
2, 463535, Note_on_c, 0, 67, 0
2, 463548, Note_on_c, 0, 82, 0
2, 463559, Note_on_c, 0, 70, 77
2, 463559, Note_on_c, 0, 53, 29
2, 463559, Note_on_c, 0, 56, 27
2, 463669, Note_on_c, 0, 56, 0
2, 463669, Note_on_c, 0, 53, 0
2, 463669, Note_on_c, 0, 70, 0
2, 463680, Note_on_c, 0, 82, 122
2, 463680, Note_on_c, 0, 51, 45
2, 463680, Note_on_c, 0, 55, 46
2, 463680, Note_on_c, 0, 58, 46
2, 463788, Note_on_c, 0, 82, 0
2, 463800, Note_on_c, 0, 75, 92
2, 463908, Note_on_c, 0, 75, 0
2, 463919, Note_on_c, 0, 82, 122
2, 464029, Note_on_c, 0, 82, 0
2, 464040, Note_on_c, 0, 70, 76
2, 464148, Note_on_c, 0, 70, 0
2, 464160, Note_on_c, 0, 70, 101
2, 464255, Note_on_c, 0, 58, 0
2, 464255, Note_on_c, 0, 51, 0
2, 464255, Note_on_c, 0, 55, 0
2, 464268, Note_on_c, 0, 70, 0
2, 464279, Note_on_c, 0, 63, 87
2, 464279, Note_on_c, 0, 41, 31
2, 464279, Note_on_c, 0, 44, 29
2, 464389, Note_on_c, 0, 44, 0
2, 464389, Note_on_c, 0, 41, 0
2, 464389, Note_on_c, 0, 63, 0
2, 464400, Note_on_c, 0, 70, 122
2, 464400, Note_on_c, 0, 39, 67
2, 464400, Note_on_c, 0, 43, 69
2, 464400, Note_on_c, 0, 46, 69
2, 464508, Note_on_c, 0, 70, 0
2, 464520, Note_on_c, 0, 58, 79
2, 464628, Note_on_c, 0, 58, 0
2, 464639, Note_on_c, 0, 58, 101
2, 464749, Note_on_c, 0, 58, 0
2, 464760, Note_on_c, 0, 51, 85
2, 464868, Note_on_c, 0, 51, 0
2, 464880, Note_on_c, 0, 58, 120
2, 464988, Note_on_c, 0, 58, 0
2, 464999, Note_on_c, 0, 46, 77
2, 465050, Note_on_c, 0, 39, 0
2, 465050, Note_on_c, 0, 46, 0
2, 465050, Note_on_c, 0, 43, 0
2, 465109, Note_on_c, 0, 46, 0
2, 465120, Note_on_c, 0, 51, 122
2, 465120, Note_on_c, 0, 27, 51
2, 465120, Note_on_c, 0, 39, 50
2, 465480, Note_on_c, 0, 58, 98
2, 465480, Note_on_c, 0, 46, 37
2, 465588, Note_on_c, 0, 46, 0
2, 465588, Note_on_c, 0, 58, 0
2, 465600, Note_on_c, 0, 51, 85
2, 465600, Note_on_c, 0, 39, 31
2, 465708, Note_on_c, 0, 39, 0
2, 465708, Note_on_c, 0, 51, 0
2, 465719, Note_on_c, 0, 58, 122
2, 465719, Note_on_c, 0, 46, 48
2, 465829, Note_on_c, 0, 46, 0
2, 465829, Note_on_c, 0, 58, 0
2, 465840, Note_on_c, 0, 63, 122
2, 465840, Note_on_c, 0, 51, 51
2, 465948, Note_on_c, 0, 63, 0
2, 465948, Note_on_c, 0, 51, 0
2, 465960, Note_on_c, 0, 58, 91
2, 465960, Note_on_c, 0, 46, 35
2, 466068, Note_on_c, 0, 46, 0
2, 466068, Note_on_c, 0, 58, 0
2, 466079, Note_on_c, 0, 63, 118
2, 466079, Note_on_c, 0, 39, 35
2, 466130, Note_on_c, 0, 51, 0
2, 466130, Note_on_c, 0, 27, 0
2, 466130, Note_on_c, 0, 39, 0
2, 466189, Note_on_c, 0, 63, 0
2, 466189, Note_on_c, 0, 39, 0
2, 466200, Note_on_c, 0, 70, 122
2, 466200, Note_on_c, 0, 58, 95
2, 466200, Note_on_c, 0, 46, 51
2, 466200, Note_on_c, 0, 46, 76
2, 466308, Note_on_c, 0, 46, 0
2, 466308, Note_on_c, 0, 58, 0
2, 466320, Note_on_c, 0, 63, 120
2, 466320, Note_on_c, 0, 39, 37
2, 466428, Note_on_c, 0, 39, 0
2, 466428, Note_on_c, 0, 63, 0
2, 466439, Note_on_c, 0, 58, 92
2, 466439, Note_on_c, 0, 34, 33
2, 466525, Note_on_c, 0, 70, 0
2, 466525, Note_on_c, 0, 46, 0
2, 466549, Note_on_c, 0, 58, 0
2, 466549, Note_on_c, 0, 34, 0
2, 466560, Note_on_c, 0, 51, 107
2, 466560, Note_on_c, 0, 63, 107
2, 466560, Note_on_c, 0, 27, 61
2, 466560, Note_on_c, 0, 39, 59
2, 466920, Note_on_c, 0, 58, 96
2, 466920, Note_on_c, 0, 46, 36
2, 467028, Note_on_c, 0, 46, 0
2, 467028, Note_on_c, 0, 58, 0
2, 467040, Note_on_c, 0, 51, 82
2, 467040, Note_on_c, 0, 39, 35
2, 467148, Note_on_c, 0, 51, 0
2, 467148, Note_on_c, 0, 39, 0
2, 467159, Note_on_c, 0, 58, 122
2, 467159, Note_on_c, 0, 46, 52
2, 467269, Note_on_c, 0, 46, 0
2, 467269, Note_on_c, 0, 58, 0
2, 467280, Note_on_c, 0, 63, 122
2, 467280, Note_on_c, 0, 51, 50
2, 467388, Note_on_c, 0, 63, 0
2, 467388, Note_on_c, 0, 51, 0
2, 467400, Note_on_c, 0, 58, 94
2, 467400, Note_on_c, 0, 46, 38
2, 467508, Note_on_c, 0, 46, 0
2, 467508, Note_on_c, 0, 58, 0
2, 467519, Note_on_c, 0, 63, 121
2, 467519, Note_on_c, 0, 39, 35
2, 467570, Note_on_c, 0, 39, 0
2, 467570, Note_on_c, 0, 63, 0
2, 467570, Note_on_c, 0, 27, 0
2, 467570, Note_on_c, 0, 51, 0
2, 467629, Note_on_c, 0, 39, 0
2, 467629, Note_on_c, 0, 63, 0
2, 467640, Note_on_c, 0, 70, 122
2, 467640, Note_on_c, 0, 58, 95
2, 467640, Note_on_c, 0, 46, 52
2, 467640, Note_on_c, 0, 46, 80
2, 467748, Note_on_c, 0, 46, 0
2, 467748, Note_on_c, 0, 58, 0
2, 467760, Note_on_c, 0, 63, 120
2, 467760, Note_on_c, 0, 39, 35
2, 467868, Note_on_c, 0, 39, 0
2, 467868, Note_on_c, 0, 63, 0
2, 467879, Note_on_c, 0, 58, 92
2, 467879, Note_on_c, 0, 34, 36
2, 467965, Note_on_c, 0, 70, 0
2, 467965, Note_on_c, 0, 46, 0
2, 467989, Note_on_c, 0, 58, 0
2, 467989, Note_on_c, 0, 34, 0
2, 468000, Note_on_c, 0, 51, 91
2, 468000, Note_on_c, 0, 63, 93
2, 468000, Note_on_c, 0, 27, 50
2, 468000, Note_on_c, 0, 39, 50
2, 468325, Note_on_c, 0, 39, 0
2, 468325, Note_on_c, 0, 51, 0
2, 468325, Note_on_c, 0, 63, 0
2, 468325, Note_on_c, 0, 27, 0
2, 468360, Note_on_c, 0, 82, 120
2, 468360, Note_on_c, 0, 94, 121
2, 468360, Note_on_c, 0, 70, 57
2, 468685, Note_on_c, 0, 70, 0
2, 468685, Note_on_c, 0, 94, 0
2, 468685, Note_on_c, 0, 82, 0
2, 468720, Note_on_c, 0, 75, 91
2, 468720, Note_on_c, 0, 87, 91
2, 468720, Note_on_c, 0, 63, 37
2, 469045, Note_on_c, 0, 63, 0
2, 469045, Note_on_c, 0, 87, 0
2, 469045, Note_on_c, 0, 75, 0
2, 469080, Note_on_c, 0, 70, 88
2, 469080, Note_on_c, 0, 82, 88
2, 469080, Note_on_c, 0, 58, 35
2, 469405, Note_on_c, 0, 58, 0
2, 469405, Note_on_c, 0, 82, 0
2, 469405, Note_on_c, 0, 70, 0
2, 469440, Note_on_c, 0, 63, 85
2, 469440, Note_on_c, 0, 75, 87
2, 469440, Note_on_c, 0, 51, 35
2, 469765, Note_on_c, 0, 51, 0
2, 469765, Note_on_c, 0, 75, 0
2, 469765, Note_on_c, 0, 63, 0
2, 469800, Note_on_c, 0, 63, 71
2, 469800, Note_on_c, 0, 39, 41
2, 469800, Note_on_c, 0, 51, 39
2, 470125, Note_on_c, 0, 51, 0
2, 470125, Note_on_c, 0, 39, 0
2, 470125, Note_on_c, 0, 63, 0
2, 470160, Note_on_c, 0, 57, 83
2, 470160, Note_on_c, 0, 33, 34
2, 470160, Note_on_c, 0, 45, 36
2, 470485, Note_on_c, 0, 45, 0
2, 470485, Note_on_c, 0, 33, 0
2, 470485, Note_on_c, 0, 57, 0
2, 470520, Note_on_c, 0, 45, 72
2, 470520, Note_on_c, 0, 33, 29
2, 470845, Note_on_c, 0, 33, 0
2, 470845, Note_on_c, 0, 45, 0
2, 470880, Note_on_c, 0, 50, 122
2, 470880, Note_on_c, 0, 62, 122
2, 470880, Note_on_c, 0, 26, 49
2, 470880, Note_on_c, 0, 38, 49
2, 471205, Note_on_c, 0, 38, 0
2, 471205, Note_on_c, 0, 50, 0
2, 471205, Note_on_c, 0, 62, 0
2, 471205, Note_on_c, 0, 26, 0
2, 471240, Note_on_c, 0, 60, 88
2, 471403, Note_on_c, 0, 60, 0
2, 471510, Note_on_c, 0, 60, 80
2, 471592, Note_on_c, 0, 60, 0
2, 471600, Note_on_c, 0, 62, 119
2, 471925, Note_on_c, 0, 62, 0
2, 471960, Note_on_c, 0, 58, 84
2, 472123, Note_on_c, 0, 58, 0
2, 472230, Note_on_c, 0, 58, 82
2, 472312, Note_on_c, 0, 58, 0
2, 472320, Note_on_c, 0, 60, 122
2, 472645, Note_on_c, 0, 60, 0
2, 472680, Note_on_c, 0, 57, 88
2, 472843, Note_on_c, 0, 57, 0
2, 472950, Note_on_c, 0, 57, 81
2, 473032, Note_on_c, 0, 57, 0
2, 473040, Note_on_c, 0, 62, 122
2, 473040, Note_on_c, 0, 58, 93
2, 473040, Note_on_c, 0, 38, 58
2, 473365, Note_on_c, 0, 38, 0
2, 473365, Note_on_c, 0, 58, 0
2, 473365, Note_on_c, 0, 62, 0
2, 473400, Note_on_c, 0, 60, 86
2, 473400, Note_on_c, 0, 57, 41
2, 473563, Note_on_c, 0, 60, 0
2, 473670, Note_on_c, 0, 60, 81
2, 473752, Note_on_c, 0, 60, 0
2, 473760, Note_on_c, 0, 62, 121
2, 474085, Note_on_c, 0, 62, 0
2, 474120, Note_on_c, 0, 57, 0
2, 474120, Note_on_c, 0, 58, 85
2, 474120, Note_on_c, 0, 55, 46
2, 474283, Note_on_c, 0, 58, 0
2, 474390, Note_on_c, 0, 58, 80
2, 474472, Note_on_c, 0, 58, 0
2, 474480, Note_on_c, 0, 60, 122
2, 474805, Note_on_c, 0, 60, 0
2, 474840, Note_on_c, 0, 55, 0
2, 474840, Note_on_c, 0, 57, 84
2, 474840, Note_on_c, 0, 53, 47
2, 475003, Note_on_c, 0, 57, 0
2, 475110, Note_on_c, 0, 57, 80
2, 475192, Note_on_c, 0, 57, 0
2, 475200, Note_on_c, 0, 62, 122
2, 475200, Note_on_c, 0, 58, 82
2, 475200, Note_on_c, 0, 38, 65
2, 475525, Note_on_c, 0, 38, 0
2, 475525, Note_on_c, 0, 53, 0
2, 475525, Note_on_c, 0, 62, 0
2, 475525, Note_on_c, 0, 58, 0
2, 475560, Note_on_c, 0, 60, 84
2, 475560, Note_on_c, 0, 57, 84
2, 475560, Note_on_c, 0, 51, 40
2, 475723, Note_on_c, 0, 51, 0
2, 475723, Note_on_c, 0, 60, 0
2, 475830, Note_on_c, 0, 60, 83
2, 475830, Note_on_c, 0, 51, 37
2, 475912, Note_on_c, 0, 51, 0
2, 475912, Note_on_c, 0, 60, 0
2, 475920, Note_on_c, 0, 62, 120
2, 475920, Note_on_c, 0, 53, 71
2, 476210, Note_on_c, 0, 57, 0
2, 476245, Note_on_c, 0, 53, 0
2, 476245, Note_on_c, 0, 62, 0
2, 476280, Note_on_c, 0, 58, 85
2, 476280, Note_on_c, 0, 55, 85
2, 476280, Note_on_c, 0, 50, 41
2, 476443, Note_on_c, 0, 50, 0
2, 476443, Note_on_c, 0, 58, 0
2, 476550, Note_on_c, 0, 58, 79
2, 476550, Note_on_c, 0, 50, 39
2, 476632, Note_on_c, 0, 50, 0
2, 476632, Note_on_c, 0, 58, 0
2, 476640, Note_on_c, 0, 60, 122
2, 476640, Note_on_c, 0, 51, 69
2, 476930, Note_on_c, 0, 55, 0
2, 476965, Note_on_c, 0, 51, 0
2, 476965, Note_on_c, 0, 60, 0
2, 477000, Note_on_c, 0, 57, 87
2, 477000, Note_on_c, 0, 53, 82
2, 477000, Note_on_c, 0, 48, 41
2, 477163, Note_on_c, 0, 48, 0
2, 477163, Note_on_c, 0, 57, 0
2, 477270, Note_on_c, 0, 57, 83
2, 477270, Note_on_c, 0, 48, 37
2, 477352, Note_on_c, 0, 48, 0
2, 477352, Note_on_c, 0, 57, 0
2, 477360, Note_on_c, 0, 58, 121
2, 477360, Note_on_c, 0, 50, 49
2, 477685, Note_on_c, 0, 50, 0
2, 477685, Note_on_c, 0, 58, 0
2, 477685, Note_on_c, 0, 53, 0
2, 477720, Note_on_c, 0, 62, 109
2, 477720, Note_on_c, 0, 57, 99
2, 477720, Note_on_c, 0, 48, 42
2, 477720, Note_on_c, 0, 38, 62
2, 477883, Note_on_c, 0, 48, 0
2, 477883, Note_on_c, 0, 57, 0
2, 477990, Note_on_c, 0, 57, 82
2, 477990, Note_on_c, 0, 48, 40
2, 478072, Note_on_c, 0, 48, 0
2, 478072, Note_on_c, 0, 57, 0
2, 478080, Note_on_c, 0, 58, 93
2, 478080, Note_on_c, 0, 50, 73
2, 478405, Note_on_c, 0, 50, 0
2, 478405, Note_on_c, 0, 58, 0
2, 478440, Note_on_c, 0, 62, 0
2, 478440, Note_on_c, 0, 62, 98
2, 478440, Note_on_c, 0, 55, 81
2, 478440, Note_on_c, 0, 46, 42
2, 478603, Note_on_c, 0, 46, 0
2, 478603, Note_on_c, 0, 55, 0
2, 478710, Note_on_c, 0, 55, 82
2, 478710, Note_on_c, 0, 46, 38
2, 478792, Note_on_c, 0, 46, 0
2, 478792, Note_on_c, 0, 55, 0
2, 478800, Note_on_c, 0, 57, 94
2, 478800, Note_on_c, 0, 48, 71
2, 479125, Note_on_c, 0, 48, 0
2, 479125, Note_on_c, 0, 57, 0
2, 479160, Note_on_c, 0, 62, 0
2, 479160, Note_on_c, 0, 62, 96
2, 479160, Note_on_c, 0, 53, 82
2, 479160, Note_on_c, 0, 45, 43
2, 479323, Note_on_c, 0, 45, 0
2, 479323, Note_on_c, 0, 53, 0
2, 479430, Note_on_c, 0, 53, 83
2, 479430, Note_on_c, 0, 45, 37
2, 479512, Note_on_c, 0, 45, 0
2, 479512, Note_on_c, 0, 53, 0
2, 479520, Note_on_c, 0, 55, 122
2, 479520, Note_on_c, 0, 46, 72
2, 479845, Note_on_c, 0, 46, 0
2, 479845, Note_on_c, 0, 38, 0
2, 479845, Note_on_c, 0, 62, 0
2, 479845, Note_on_c, 0, 55, 0
2, 479880, Note_on_c, 0, 60, 84
2, 479880, Note_on_c, 0, 54, 93
2, 479880, Note_on_c, 0, 38, 47
2, 479880, Note_on_c, 0, 45, 45
2, 480043, Note_on_c, 0, 60, 0
2, 480150, Note_on_c, 0, 60, 78
2, 480232, Note_on_c, 0, 60, 0
2, 480240, Note_on_c, 0, 62, 91
2, 480417, Note_on_c, 0, 62, 0
2, 480600, Note_on_c, 0, 54, 0
2, 480600, Note_on_c, 0, 38, 0
2, 480600, Note_on_c, 0, 45, 0
2, 480600, Note_on_c, 0, 58, 75
2, 480600, Note_on_c, 0, 53, 82
2, 480600, Note_on_c, 0, 38, 44
2, 480600, Note_on_c, 0, 44, 47
2, 480763, Note_on_c, 0, 58, 0
2, 480870, Note_on_c, 0, 58, 68
2, 480952, Note_on_c, 0, 58, 0
2, 480960, Note_on_c, 0, 60, 80
2, 481137, Note_on_c, 0, 60, 0
2, 481320, Note_on_c, 0, 53, 0
2, 481320, Note_on_c, 0, 38, 0
2, 481320, Note_on_c, 0, 44, 0
2, 481320, Note_on_c, 0, 57, 68
2, 481320, Note_on_c, 0, 52, 73
2, 481320, Note_on_c, 0, 38, 45
2, 481320, Note_on_c, 0, 43, 44
2, 481483, Note_on_c, 0, 57, 0
2, 481590, Note_on_c, 0, 57, 60
2, 481672, Note_on_c, 0, 57, 0
2, 481680, Note_on_c, 0, 58, 73
2, 481857, Note_on_c, 0, 58, 0
2, 482005, Note_on_c, 0, 52, 0
2, 482040, Note_on_c, 0, 38, 0
2, 482040, Note_on_c, 0, 43, 0
2, 482040, Note_on_c, 0, 60, 76
2, 482040, Note_on_c, 0, 54, 65
2, 482040, Note_on_c, 0, 45, 47
2, 482203, Note_on_c, 0, 45, 0
2, 482203, Note_on_c, 0, 54, 0
2, 482310, Note_on_c, 0, 54, 53
2, 482310, Note_on_c, 0, 45, 37
2, 482392, Note_on_c, 0, 45, 0
2, 482392, Note_on_c, 0, 54, 0
2, 482400, Note_on_c, 0, 55, 63
2, 482400, Note_on_c, 0, 46, 46
2, 482577, Note_on_c, 0, 46, 0
2, 482577, Note_on_c, 0, 55, 0
2, 482760, Note_on_c, 0, 60, 0
2, 482760, Note_on_c, 0, 61, 64
2, 482760, Note_on_c, 0, 52, 48
2, 482760, Note_on_c, 0, 43, 39
2, 482760, Note_on_c, 0, 38, 39
2, 482923, Note_on_c, 0, 43, 0
2, 482923, Note_on_c, 0, 52, 0
2, 483030, Note_on_c, 0, 52, 44
2, 483030, Note_on_c, 0, 43, 36
2, 483112, Note_on_c, 0, 43, 0
2, 483112, Note_on_c, 0, 52, 0
2, 483120, Note_on_c, 0, 54, 50
2, 483120, Note_on_c, 0, 45, 47
2, 483297, Note_on_c, 0, 45, 0
2, 483297, Note_on_c, 0, 54, 0
2, 483480, Note_on_c, 0, 61, 0
2, 483480, Note_on_c, 0, 62, 54
2, 483480, Note_on_c, 0, 50, 45
2, 483480, Note_on_c, 0, 42, 40
2, 483643, Note_on_c, 0, 42, 0
2, 483750, Note_on_c, 0, 42, 37
2, 483832, Note_on_c, 0, 42, 0
2, 483840, Note_on_c, 0, 50, 0
2, 483840, Note_on_c, 0, 62, 0
2, 483840, Note_on_c, 0, 86, 42
2, 483840, Note_on_c, 0, 50, 54
2, 484017, Note_on_c, 0, 86, 0
2, 484165, Note_on_c, 0, 50, 0
2, 484200, Note_on_c, 0, 84, 31
2, 484200, Note_on_c, 0, 81, 27
2, 484363, Note_on_c, 0, 84, 0
2, 484470, Note_on_c, 0, 84, 28
2, 484552, Note_on_c, 0, 84, 0
2, 484560, Note_on_c, 0, 86, 31
2, 484737, Note_on_c, 0, 86, 0
2, 484850, Note_on_c, 0, 81, 0
2, 484920, Note_on_c, 0, 82, 29
2, 484920, Note_on_c, 0, 79, 25
2, 484920, Note_on_c, 0, 74, 39
2, 485083, Note_on_c, 0, 82, 0
2, 485097, Note_on_c, 0, 74, 0
2, 485190, Note_on_c, 0, 82, 27
2, 485272, Note_on_c, 0, 82, 0
2, 485280, Note_on_c, 0, 84, 32
2, 485280, Note_on_c, 0, 72, 40
2, 485443, Note_on_c, 0, 72, 0
2, 485457, Note_on_c, 0, 84, 0
2, 485550, Note_on_c, 0, 72, 36
2, 485570, Note_on_c, 0, 79, 0
2, 485632, Note_on_c, 0, 72, 0
2, 485640, Note_on_c, 0, 81, 30
2, 485640, Note_on_c, 0, 77, 27
2, 485640, Note_on_c, 0, 74, 45
2, 485803, Note_on_c, 0, 81, 0
2, 485817, Note_on_c, 0, 74, 0
2, 485910, Note_on_c, 0, 81, 27
2, 485992, Note_on_c, 0, 81, 0
2, 486000, Note_on_c, 0, 38, 0
2, 486000, Note_on_c, 0, 82, 35
2, 486000, Note_on_c, 0, 70, 42
2, 486163, Note_on_c, 0, 70, 0
2, 486177, Note_on_c, 0, 82, 0
2, 486270, Note_on_c, 0, 70, 38
2, 486325, Note_on_c, 0, 77, 0
2, 486352, Note_on_c, 0, 70, 0
2, 486360, Note_on_c, 0, 79, 25
2, 486360, Note_on_c, 0, 75, 27
2, 486360, Note_on_c, 0, 72, 45
2, 486523, Note_on_c, 0, 79, 0
2, 486537, Note_on_c, 0, 72, 0
2, 486630, Note_on_c, 0, 79, 25
2, 486685, Note_on_c, 0, 75, 0
2, 486712, Note_on_c, 0, 79, 0
2, 486720, Note_on_c, 0, 81, 31
2, 486720, Note_on_c, 0, 74, 27
2, 486720, Note_on_c, 0, 69, 43
2, 486720, Note_on_c, 0, 62, 36
2, 486883, Note_on_c, 0, 69, 0
2, 486897, Note_on_c, 0, 81, 0
2, 486990, Note_on_c, 0, 69, 37
2, 487045, Note_on_c, 0, 74, 0
2, 487045, Note_on_c, 0, 62, 0
2, 487072, Note_on_c, 0, 69, 0
2, 487080, Note_on_c, 0, 74, 30
2, 487080, Note_on_c, 0, 70, 27
2, 487080, Note_on_c, 0, 66, 37
2, 487080, Note_on_c, 0, 60, 39
2, 487243, Note_on_c, 0, 60, 0
2, 487257, Note_on_c, 0, 66, 0
2, 487350, Note_on_c, 0, 60, 39
2, 487405, Note_on_c, 0, 70, 0
2, 487432, Note_on_c, 0, 60, 0
2, 487440, Note_on_c, 0, 62, 27
2, 487440, Note_on_c, 0, 67, 24
2, 487440, Note_on_c, 0, 58, 32
2, 487440, Note_on_c, 0, 50, 32
2, 487603, Note_on_c, 0, 67, 0
2, 487603, Note_on_c, 0, 62, 0
2, 487710, Note_on_c, 0, 67, 25
2, 487765, Note_on_c, 0, 50, 0
2, 487765, Note_on_c, 0, 58, 0
2, 487792, Note_on_c, 0, 67, 0
2, 487800, Note_on_c, 0, 74, 0
2, 487800, Note_on_c, 0, 62, 35
2, 487800, Note_on_c, 0, 74, 33
2, 487800, Note_on_c, 0, 69, 32
2, 487800, Note_on_c, 0, 48, 37
2, 487963, Note_on_c, 0, 48, 0
2, 488070, Note_on_c, 0, 48, 37
2, 488125, Note_on_c, 0, 69, 0
2, 488152, Note_on_c, 0, 48, 0
2, 488160, Note_on_c, 0, 74, 0
2, 488160, Note_on_c, 0, 62, 0
2, 488160, Note_on_c, 0, 65, 29
2, 488160, Note_on_c, 0, 50, 48
2, 488323, Note_on_c, 0, 65, 0
2, 488337, Note_on_c, 0, 50, 0
2, 488430, Note_on_c, 0, 65, 27
2, 488512, Note_on_c, 0, 65, 0
2, 488520, Note_on_c, 0, 74, 27
2, 488520, Note_on_c, 0, 62, 31
2, 488520, Note_on_c, 0, 67, 31
2, 488520, Note_on_c, 0, 46, 37
2, 488683, Note_on_c, 0, 46, 0
2, 488697, Note_on_c, 0, 74, 0
2, 488790, Note_on_c, 0, 46, 37
2, 488845, Note_on_c, 0, 67, 0
2, 488845, Note_on_c, 0, 62, 0
2, 488872, Note_on_c, 0, 46, 0
2, 488880, Note_on_c, 0, 72, 28
2, 488880, Note_on_c, 0, 63, 28
2, 488880, Note_on_c, 0, 48, 49
2, 488969, Note_on_c, 0, 72, 0
2, 489043, Note_on_c, 0, 63, 0
2, 489057, Note_on_c, 0, 48, 0
2, 489150, Note_on_c, 0, 72, 27
2, 489150, Note_on_c, 0, 63, 30
2, 489232, Note_on_c, 0, 63, 0
2, 489232, Note_on_c, 0, 72, 0
2, 489240, Note_on_c, 0, 74, 30
2, 489240, Note_on_c, 0, 65, 32
2, 489240, Note_on_c, 0, 45, 37
2, 489403, Note_on_c, 0, 45, 0
2, 489417, Note_on_c, 0, 74, 0
2, 489510, Note_on_c, 0, 45, 38
2, 489565, Note_on_c, 0, 65, 0
2, 489592, Note_on_c, 0, 45, 0
2, 489600, Note_on_c, 0, 70, 25
2, 489600, Note_on_c, 0, 62, 26
2, 489600, Note_on_c, 0, 50, 61
2, 489600, Note_on_c, 0, 46, 47
2, 489763, Note_on_c, 0, 62, 0
2, 489763, Note_on_c, 0, 70, 0
2, 489777, Note_on_c, 0, 46, 0
2, 489870, Note_on_c, 0, 70, 26
2, 489870, Note_on_c, 0, 62, 25
2, 489925, Note_on_c, 0, 50, 0
2, 489952, Note_on_c, 0, 62, 0
2, 489952, Note_on_c, 0, 70, 0
2, 489960, Note_on_c, 0, 72, 32
2, 489960, Note_on_c, 0, 64, 29
2, 489960, Note_on_c, 0, 48, 38
2, 489960, Note_on_c, 0, 43, 36
2, 490123, Note_on_c, 0, 43, 0
2, 490123, Note_on_c, 0, 48, 0
2, 490137, Note_on_c, 0, 72, 0
2, 490230, Note_on_c, 0, 48, 38
2, 490230, Note_on_c, 0, 45, 39
2, 490285, Note_on_c, 0, 64, 0
2, 490312, Note_on_c, 0, 45, 0
2, 490312, Note_on_c, 0, 48, 0
2, 490320, Note_on_c, 0, 62, 43
2, 490320, Note_on_c, 0, 38, 49
2, 490320, Note_on_c, 0, 50, 48
2, 490497, Note_on_c, 0, 62, 0
2, 490645, Note_on_c, 0, 50, 0
2, 490645, Note_on_c, 0, 38, 0
2, 490680, Note_on_c, 0, 61, 28
2, 490680, Note_on_c, 0, 37, 31
2, 490769, Note_on_c, 0, 61, 0
2, 490843, Note_on_c, 0, 37, 0
2, 490950, Note_on_c, 0, 61, 25
2, 490950, Note_on_c, 0, 37, 40
2, 491032, Note_on_c, 0, 37, 0
2, 491032, Note_on_c, 0, 61, 0
2, 491040, Note_on_c, 0, 62, 30
2, 491040, Note_on_c, 0, 38, 42
2, 491365, Note_on_c, 0, 38, 0
2, 491365, Note_on_c, 0, 62, 0
2, 491400, Note_on_c, 0, 48, 23
2, 491400, Note_on_c, 0, 36, 44
2, 491563, Note_on_c, 0, 36, 0
2, 491563, Note_on_c, 0, 48, 0
2, 491670, Note_on_c, 0, 48, 24
2, 491670, Note_on_c, 0, 36, 38
2, 491752, Note_on_c, 0, 36, 0
2, 491752, Note_on_c, 0, 48, 0
2, 491760, Note_on_c, 0, 49, 31
2, 491760, Note_on_c, 0, 37, 44
2, 492085, Note_on_c, 0, 37, 0
2, 492085, Note_on_c, 0, 49, 0
2, 492120, Note_on_c, 0, 35, 42
2, 492283, Note_on_c, 0, 35, 0
2, 492390, Note_on_c, 0, 35, 37
2, 492472, Note_on_c, 0, 35, 0
2, 492480, Note_on_c, 0, 60, 70
2, 492480, Note_on_c, 0, 63, 70
2, 492480, Note_on_c, 0, 67, 69
2, 492480, Note_on_c, 0, 36, 47
2, 492588, Note_on_c, 0, 36, 0
2, 492588, Note_on_c, 0, 60, 0
2, 492588, Note_on_c, 0, 63, 0
2, 492588, Note_on_c, 0, 67, 0
2, 492719, Note_on_c, 0, 62, 68
2, 492719, Note_on_c, 0, 65, 67
2, 492719, Note_on_c, 0, 71, 65
2, 492719, Note_on_c, 0, 43, 39
2, 492719, Note_on_c, 0, 55, 39
2, 492829, Note_on_c, 0, 55, 0
2, 492829, Note_on_c, 0, 71, 0
2, 492829, Note_on_c, 0, 62, 0
2, 492829, Note_on_c, 0, 65, 0
2, 492829, Note_on_c, 0, 43, 0
2, 492840, Note_on_c, 0, 63, 84
2, 492840, Note_on_c, 0, 72, 85
2, 492840, Note_on_c, 0, 48, 50
2, 492840, Note_on_c, 0, 55, 47
2, 493560, Note_on_c, 0, 55, 0
2, 493560, Note_on_c, 0, 63, 0
2, 493560, Note_on_c, 0, 72, 0
2, 493560, Note_on_c, 0, 48, 0
2, 493560, Note_on_c, 0, 62, 64
2, 493560, Note_on_c, 0, 65, 65
2, 493560, Note_on_c, 0, 67, 63
2, 493560, Note_on_c, 0, 55, 48
2, 493560, Note_on_c, 0, 59, 46
2, 493737, Note_on_c, 0, 59, 0
2, 493737, Note_on_c, 0, 67, 0
2, 493737, Note_on_c, 0, 62, 0
2, 493737, Note_on_c, 0, 65, 0
2, 493737, Note_on_c, 0, 55, 0
2, 493920, Note_on_c, 0, 63, 45
2, 493920, Note_on_c, 0, 67, 45
2, 493920, Note_on_c, 0, 48, 49
2, 493920, Note_on_c, 0, 55, 48
2, 493920, Note_on_c, 0, 60, 49
2, 494097, Note_on_c, 0, 60, 0
2, 494097, Note_on_c, 0, 48, 0
2, 494097, Note_on_c, 0, 63, 0
2, 494097, Note_on_c, 0, 67, 0
2, 494097, Note_on_c, 0, 55, 0
2, 494280, Note_on_c, 0, 44, 32
2, 494280, Note_on_c, 0, 53, 33
2, 494388, Note_on_c, 0, 53, 0
2, 494388, Note_on_c, 0, 44, 0
2, 494519, Note_on_c, 0, 44, 40
2, 494519, Note_on_c, 0, 53, 36
2, 494629, Note_on_c, 0, 53, 0
2, 494629, Note_on_c, 0, 44, 0
2, 494640, Note_on_c, 0, 48, 46
2, 494640, Note_on_c, 0, 55, 45
2, 494965, Note_on_c, 0, 55, 0
2, 494965, Note_on_c, 0, 48, 0
2, 495000, Note_on_c, 0, 55, 39
2, 495000, Note_on_c, 0, 53, 42
2, 495000, Note_on_c, 0, 43, 38
2, 495000, Note_on_c, 0, 47, 36
2, 495000, Note_on_c, 0, 50, 36
2, 495108, Note_on_c, 0, 53, 0
2, 495120, Note_on_c, 0, 51, 40
2, 495177, Note_on_c, 0, 47, 0
2, 495177, Note_on_c, 0, 50, 0
2, 495177, Note_on_c, 0, 43, 0
2, 495228, Note_on_c, 0, 51, 0
2, 495239, Note_on_c, 0, 53, 46
2, 495325, Note_on_c, 0, 55, 0
2, 495349, Note_on_c, 0, 53, 0
2, 495360, Note_on_c, 0, 55, 43
2, 495360, Note_on_c, 0, 51, 44
2, 495360, Note_on_c, 0, 36, 40
2, 495360, Note_on_c, 0, 43, 41
2, 495360, Note_on_c, 0, 48, 41
2, 495537, Note_on_c, 0, 48, 0
2, 495537, Note_on_c, 0, 36, 0
2, 495537, Note_on_c, 0, 55, 0
2, 495537, Note_on_c, 0, 51, 0
2, 495537, Note_on_c, 0, 43, 0
2, 495720, Note_on_c, 0, 44, 47
2, 495720, Note_on_c, 0, 53, 49
2, 495828, Note_on_c, 0, 53, 0
2, 495828, Note_on_c, 0, 44, 0
2, 495959, Note_on_c, 0, 44, 39
2, 495959, Note_on_c, 0, 53, 39
2, 496069, Note_on_c, 0, 53, 0
2, 496069, Note_on_c, 0, 44, 0
2, 496080, Note_on_c, 0, 48, 43
2, 496080, Note_on_c, 0, 55, 46
2, 496257, Note_on_c, 0, 55, 0
2, 496257, Note_on_c, 0, 48, 0
2, 496440, Note_on_c, 0, 65, 38
2, 496440, Note_on_c, 0, 67, 40
2, 496440, Note_on_c, 0, 59, 39
2, 496440, Note_on_c, 0, 55, 48
2, 496548, Note_on_c, 0, 55, 0
2, 496548, Note_on_c, 0, 59, 0
2, 496560, Note_on_c, 0, 60, 43
2, 496560, Note_on_c, 0, 57, 46
2, 496617, Note_on_c, 0, 67, 0
2, 496617, Note_on_c, 0, 65, 0
2, 496668, Note_on_c, 0, 60, 0
2, 496668, Note_on_c, 0, 57, 0
2, 496679, Note_on_c, 0, 62, 47
2, 496679, Note_on_c, 0, 59, 48
2, 496789, Note_on_c, 0, 59, 0
2, 496789, Note_on_c, 0, 62, 0
2, 496800, Note_on_c, 0, 60, 41
2, 496800, Note_on_c, 0, 63, 38
2, 496800, Note_on_c, 0, 48, 41
2, 496800, Note_on_c, 0, 55, 42
2, 497125, Note_on_c, 0, 55, 0
2, 497125, Note_on_c, 0, 60, 0
2, 497125, Note_on_c, 0, 63, 0
2, 497125, Note_on_c, 0, 48, 0
2, 497160, Note_on_c, 0, 79, 94
2, 497160, Note_on_c, 0, 67, 54
2, 497160, Note_on_c, 0, 75, 55
2, 497219, Note_on_c, 0, 75, 0
2, 497219, Note_on_c, 0, 67, 0
2, 497268, Note_on_c, 0, 79, 0
2, 497280, Note_on_c, 0, 72, 63
2, 497388, Note_on_c, 0, 72, 0
2, 497399, Note_on_c, 0, 79, 86
2, 497399, Note_on_c, 0, 67, 38
2, 497399, Note_on_c, 0, 75, 36
2, 497460, Note_on_c, 0, 75, 0
2, 497460, Note_on_c, 0, 67, 0
2, 497509, Note_on_c, 0, 79, 0
2, 497520, Note_on_c, 0, 72, 62
2, 497520, Note_on_c, 0, 67, 41
2, 497520, Note_on_c, 0, 75, 41
2, 497628, Note_on_c, 0, 72, 0
2, 497640, Note_on_c, 0, 79, 87
2, 497697, Note_on_c, 0, 75, 0
2, 497697, Note_on_c, 0, 67, 0
2, 497748, Note_on_c, 0, 79, 0
2, 497759, Note_on_c, 0, 72, 62
2, 497869, Note_on_c, 0, 72, 0
2, 497880, Note_on_c, 0, 67, 64
2, 497880, Note_on_c, 0, 55, 30
2, 497880, Note_on_c, 0, 63, 27
2, 497939, Note_on_c, 0, 63, 0
2, 497939, Note_on_c, 0, 55, 0
2, 497988, Note_on_c, 0, 67, 0
2, 498000, Note_on_c, 0, 60, 50
2, 498108, Note_on_c, 0, 60, 0
2, 498119, Note_on_c, 0, 67, 61
2, 498119, Note_on_c, 0, 55, 38
2, 498119, Note_on_c, 0, 63, 36
2, 498180, Note_on_c, 0, 63, 0
2, 498180, Note_on_c, 0, 55, 0
2, 498229, Note_on_c, 0, 67, 0
2, 498240, Note_on_c, 0, 60, 39
2, 498240, Note_on_c, 0, 55, 46
2, 498240, Note_on_c, 0, 63, 43
2, 498348, Note_on_c, 0, 60, 0
2, 498360, Note_on_c, 0, 67, 43
2, 498417, Note_on_c, 0, 63, 0
2, 498417, Note_on_c, 0, 55, 0
2, 498468, Note_on_c, 0, 67, 0
2, 498479, Note_on_c, 0, 60, 23
2, 498589, Note_on_c, 0, 60, 0
2, 498600, Note_on_c, 0, 63, 92
2, 498600, Note_on_c, 0, 67, 89
2, 498600, Note_on_c, 0, 48, 32
2, 498600, Note_on_c, 0, 55, 32
2, 498708, Note_on_c, 0, 67, 0
2, 498708, Note_on_c, 0, 63, 0
2, 498720, Note_on_c, 0, 65, 73
2, 498777, Note_on_c, 0, 48, 0
2, 498777, Note_on_c, 0, 55, 0
2, 498828, Note_on_c, 0, 65, 0
2, 498839, Note_on_c, 0, 63, 70
2, 498949, Note_on_c, 0, 63, 0
2, 498960, Note_on_c, 0, 56, 73
2, 498960, Note_on_c, 0, 63, 75
2, 498960, Note_on_c, 0, 41, 32
2, 498960, Note_on_c, 0, 48, 33
2, 499137, Note_on_c, 0, 48, 0
2, 499137, Note_on_c, 0, 56, 0
2, 499137, Note_on_c, 0, 63, 0
2, 499137, Note_on_c, 0, 41, 0
2, 499320, Note_on_c, 0, 56, 70
2, 499320, Note_on_c, 0, 58, 72
2, 499320, Note_on_c, 0, 62, 71
2, 499320, Note_on_c, 0, 46, 39
2, 499497, Note_on_c, 0, 46, 0
2, 499497, Note_on_c, 0, 56, 0
2, 499497, Note_on_c, 0, 58, 0
2, 499497, Note_on_c, 0, 62, 0
2, 499680, Note_on_c, 0, 55, 81
2, 499680, Note_on_c, 0, 58, 82
2, 499680, Note_on_c, 0, 63, 80
2, 499680, Note_on_c, 0, 39, 45
2, 499680, Note_on_c, 0, 46, 43
2, 499857, Note_on_c, 0, 46, 0
2, 499857, Note_on_c, 0, 63, 0
2, 499857, Note_on_c, 0, 55, 0
2, 499857, Note_on_c, 0, 58, 0
2, 499857, Note_on_c, 0, 39, 0
2, 500040, Note_on_c, 0, 58, 68
2, 500040, Note_on_c, 0, 53, 63
2, 500040, Note_on_c, 0, 56, 62
2, 500040, Note_on_c, 0, 46, 50
2, 500040, Note_on_c, 0, 34, 31
2, 500217, Note_on_c, 0, 34, 0
2, 500365, Note_on_c, 0, 56, 0
2, 500365, Note_on_c, 0, 53, 0
2, 500400, Note_on_c, 0, 51, 39
2, 500400, Note_on_c, 0, 55, 40
2, 500400, Note_on_c, 0, 39, 48
2, 500725, Note_on_c, 0, 39, 0
2, 500725, Note_on_c, 0, 51, 0
2, 500725, Note_on_c, 0, 55, 0
2, 500760, Note_on_c, 0, 58, 0
2, 500760, Note_on_c, 0, 46, 0
2, 500760, Note_on_c, 0, 59, 48
2, 500760, Note_on_c, 0, 44, 49
2, 500760, Note_on_c, 0, 53, 50
2, 500868, Note_on_c, 0, 53, 0
2, 500868, Note_on_c, 0, 44, 0
2, 500868, Note_on_c, 0, 59, 0
2, 500880, Note_on_c, 0, 60, 44
2, 500988, Note_on_c, 0, 60, 0
2, 500999, Note_on_c, 0, 62, 45
2, 500999, Note_on_c, 0, 44, 40
2, 500999, Note_on_c, 0, 53, 37
2, 501109, Note_on_c, 0, 53, 0
2, 501109, Note_on_c, 0, 44, 0
2, 501109, Note_on_c, 0, 62, 0
2, 501120, Note_on_c, 0, 60, 46
2, 501120, Note_on_c, 0, 63, 50
2, 501120, Note_on_c, 0, 48, 47
2, 501120, Note_on_c, 0, 55, 47
2, 501445, Note_on_c, 0, 55, 0
2, 501445, Note_on_c, 0, 60, 0
2, 501445, Note_on_c, 0, 63, 0
2, 501445, Note_on_c, 0, 48, 0
2, 501480, Note_on_c, 0, 79, 97
2, 501480, Note_on_c, 0, 67, 57
2, 501480, Note_on_c, 0, 75, 57
2, 501539, Note_on_c, 0, 75, 0
2, 501539, Note_on_c, 0, 67, 0
2, 501588, Note_on_c, 0, 79, 0
2, 501600, Note_on_c, 0, 72, 64
2, 501708, Note_on_c, 0, 72, 0
2, 501719, Note_on_c, 0, 79, 87
2, 501719, Note_on_c, 0, 67, 37
2, 501719, Note_on_c, 0, 75, 40
2, 501780, Note_on_c, 0, 75, 0
2, 501780, Note_on_c, 0, 67, 0
2, 501829, Note_on_c, 0, 79, 0
2, 501840, Note_on_c, 0, 72, 62
2, 501840, Note_on_c, 0, 67, 40
2, 501840, Note_on_c, 0, 75, 44
2, 501948, Note_on_c, 0, 72, 0
2, 501960, Note_on_c, 0, 79, 88
2, 502068, Note_on_c, 0, 79, 0
2, 502079, Note_on_c, 0, 72, 64
2, 502165, Note_on_c, 0, 75, 0
2, 502165, Note_on_c, 0, 67, 0
2, 502189, Note_on_c, 0, 72, 0
2, 502200, Note_on_c, 0, 67, 67
2, 502200, Note_on_c, 0, 55, 30
2, 502200, Note_on_c, 0, 63, 30
2, 502259, Note_on_c, 0, 63, 0
2, 502259, Note_on_c, 0, 55, 0
2, 502308, Note_on_c, 0, 67, 0
2, 502320, Note_on_c, 0, 60, 58
2, 502428, Note_on_c, 0, 60, 0
2, 502439, Note_on_c, 0, 67, 85
2, 502439, Note_on_c, 0, 55, 37
2, 502500, Note_on_c, 0, 55, 0
2, 502549, Note_on_c, 0, 67, 0
2, 502560, Note_on_c, 0, 56, 86
2, 502560, Note_on_c, 0, 60, 86
2, 502560, Note_on_c, 0, 63, 86
2, 502560, Note_on_c, 0, 44, 40
2, 502560, Note_on_c, 0, 51, 39
2, 502668, Note_on_c, 0, 51, 0
2, 502668, Note_on_c, 0, 63, 0
2, 502668, Note_on_c, 0, 56, 0
2, 502668, Note_on_c, 0, 60, 0
2, 502668, Note_on_c, 0, 44, 0
2, 502799, Note_on_c, 0, 58, 83
2, 502799, Note_on_c, 0, 61, 81
2, 502799, Note_on_c, 0, 67, 80
2, 502799, Note_on_c, 0, 39, 39
2, 502799, Note_on_c, 0, 51, 37
2, 502909, Note_on_c, 0, 51, 0
2, 502909, Note_on_c, 0, 67, 0
2, 502909, Note_on_c, 0, 58, 0
2, 502909, Note_on_c, 0, 61, 0
2, 502909, Note_on_c, 0, 39, 0
2, 502920, Note_on_c, 0, 60, 101
2, 502920, Note_on_c, 0, 63, 102
2, 502920, Note_on_c, 0, 68, 99
2, 502920, Note_on_c, 0, 44, 47
2, 502920, Note_on_c, 0, 51, 46
2, 503640, Note_on_c, 0, 51, 0
2, 503640, Note_on_c, 0, 68, 0
2, 503640, Note_on_c, 0, 60, 0
2, 503640, Note_on_c, 0, 63, 0
2, 503640, Note_on_c, 0, 44, 0
2, 503640, Note_on_c, 0, 58, 78
2, 503640, Note_on_c, 0, 61, 78
2, 503640, Note_on_c, 0, 63, 78
2, 503640, Note_on_c, 0, 51, 49
2, 503640, Note_on_c, 0, 55, 50
2, 503817, Note_on_c, 0, 55, 0
2, 503817, Note_on_c, 0, 63, 0
2, 503817, Note_on_c, 0, 58, 0
2, 503817, Note_on_c, 0, 61, 0
2, 503817, Note_on_c, 0, 51, 0
2, 504000, Note_on_c, 0, 60, 44
2, 504000, Note_on_c, 0, 63, 42
2, 504000, Note_on_c, 0, 44, 50
2, 504000, Note_on_c, 0, 51, 49
2, 504000, Note_on_c, 0, 56, 49
2, 504177, Note_on_c, 0, 56, 0
2, 504177, Note_on_c, 0, 44, 0
2, 504177, Note_on_c, 0, 60, 0
2, 504177, Note_on_c, 0, 63, 0
2, 504177, Note_on_c, 0, 51, 0
2, 504360, Note_on_c, 0, 44, 38
2, 504360, Note_on_c, 0, 53, 37
2, 504468, Note_on_c, 0, 53, 0
2, 504468, Note_on_c, 0, 44, 0
2, 504599, Note_on_c, 0, 44, 38
2, 504599, Note_on_c, 0, 53, 37
2, 504709, Note_on_c, 0, 53, 0
2, 504709, Note_on_c, 0, 44, 0
2, 504720, Note_on_c, 0, 48, 43
2, 504720, Note_on_c, 0, 55, 44
2, 505045, Note_on_c, 0, 55, 0
2, 505045, Note_on_c, 0, 48, 0
2, 505080, Note_on_c, 0, 61, 37
2, 505080, Note_on_c, 0, 63, 39
2, 505080, Note_on_c, 0, 55, 84
2, 505080, Note_on_c, 0, 39, 31
2, 505188, Note_on_c, 0, 55, 0
2, 505200, Note_on_c, 0, 56, 92
2, 505257, Note_on_c, 0, 39, 0
2, 505308, Note_on_c, 0, 56, 0
2, 505319, Note_on_c, 0, 58, 98
2, 505405, Note_on_c, 0, 63, 0
2, 505405, Note_on_c, 0, 61, 0
2, 505429, Note_on_c, 0, 58, 0
2, 505440, Note_on_c, 0, 63, 45
2, 505440, Note_on_c, 0, 60, 99
2, 505440, Note_on_c, 0, 44, 48
2, 505617, Note_on_c, 0, 44, 0
2, 505617, Note_on_c, 0, 60, 0
2, 505617, Note_on_c, 0, 63, 0
2, 505800, Note_on_c, 0, 56, 54
2, 505800, Note_on_c, 0, 65, 57
2, 505908, Note_on_c, 0, 65, 0
2, 505908, Note_on_c, 0, 56, 0
2, 506039, Note_on_c, 0, 56, 37
2, 506039, Note_on_c, 0, 65, 38
2, 506149, Note_on_c, 0, 65, 0
2, 506149, Note_on_c, 0, 56, 0
2, 506160, Note_on_c, 0, 60, 46
2, 506160, Note_on_c, 0, 67, 46
2, 506485, Note_on_c, 0, 67, 0
2, 506485, Note_on_c, 0, 60, 0
2, 506520, Note_on_c, 0, 73, 38
2, 506520, Note_on_c, 0, 75, 37
2, 506520, Note_on_c, 0, 67, 83
2, 506520, Note_on_c, 0, 63, 40
2, 506628, Note_on_c, 0, 63, 0
2, 506628, Note_on_c, 0, 67, 0
2, 506640, Note_on_c, 0, 68, 95
2, 506640, Note_on_c, 0, 65, 45
2, 506748, Note_on_c, 0, 65, 0
2, 506748, Note_on_c, 0, 68, 0
2, 506759, Note_on_c, 0, 70, 97
2, 506759, Note_on_c, 0, 67, 44
2, 506845, Note_on_c, 0, 75, 0
2, 506845, Note_on_c, 0, 73, 0
2, 506869, Note_on_c, 0, 70, 0
2, 506869, Note_on_c, 0, 67, 0
2, 506880, Note_on_c, 0, 75, 45
2, 506880, Note_on_c, 0, 72, 98
2, 506880, Note_on_c, 0, 56, 42
2, 506880, Note_on_c, 0, 63, 43
2, 507205, Note_on_c, 0, 63, 0
2, 507205, Note_on_c, 0, 75, 0
2, 507205, Note_on_c, 0, 72, 0
2, 507205, Note_on_c, 0, 56, 0
2, 507240, Note_on_c, 0, 79, 46
2, 507240, Note_on_c, 0, 67, 55
2, 507240, Note_on_c, 0, 75, 54
2, 507299, Note_on_c, 0, 75, 0
2, 507299, Note_on_c, 0, 67, 0
2, 507348, Note_on_c, 0, 79, 0
2, 507360, Note_on_c, 0, 72, 36
2, 507468, Note_on_c, 0, 72, 0
2, 507479, Note_on_c, 0, 79, 51
2, 507479, Note_on_c, 0, 67, 38
2, 507479, Note_on_c, 0, 75, 38
2, 507540, Note_on_c, 0, 75, 0
2, 507540, Note_on_c, 0, 67, 0
2, 507589, Note_on_c, 0, 79, 0
2, 507600, Note_on_c, 0, 72, 35
2, 507600, Note_on_c, 0, 67, 44
2, 507600, Note_on_c, 0, 75, 43
2, 507708, Note_on_c, 0, 72, 0
2, 507720, Note_on_c, 0, 79, 49
2, 507828, Note_on_c, 0, 79, 0
2, 507839, Note_on_c, 0, 72, 35
2, 507925, Note_on_c, 0, 75, 0
2, 507925, Note_on_c, 0, 67, 0
2, 507949, Note_on_c, 0, 72, 0
2, 507960, Note_on_c, 0, 67, 37
2, 507960, Note_on_c, 0, 55, 28
2, 507960, Note_on_c, 0, 63, 31
2, 508019, Note_on_c, 0, 63, 0
2, 508019, Note_on_c, 0, 55, 0
2, 508068, Note_on_c, 0, 67, 0
2, 508080, Note_on_c, 0, 60, 32
2, 508188, Note_on_c, 0, 60, 0
2, 508199, Note_on_c, 0, 67, 50
2, 508199, Note_on_c, 0, 55, 36
2, 508199, Note_on_c, 0, 63, 37
2, 508260, Note_on_c, 0, 63, 0
2, 508260, Note_on_c, 0, 55, 0
2, 508309, Note_on_c, 0, 67, 0
2, 508320, Note_on_c, 0, 60, 39
2, 508320, Note_on_c, 0, 55, 46
2, 508320, Note_on_c, 0, 63, 45
2, 508428, Note_on_c, 0, 60, 0
2, 508440, Note_on_c, 0, 67, 51
2, 508497, Note_on_c, 0, 63, 0
2, 508497, Note_on_c, 0, 55, 0
2, 508548, Note_on_c, 0, 67, 0
2, 508559, Note_on_c, 0, 60, 33
2, 508669, Note_on_c, 0, 60, 0
2, 508680, Note_on_c, 0, 63, 90
2, 508680, Note_on_c, 0, 67, 89
2, 508680, Note_on_c, 0, 48, 32
2, 508680, Note_on_c, 0, 55, 31
2, 508788, Note_on_c, 0, 67, 0
2, 508788, Note_on_c, 0, 63, 0
2, 508800, Note_on_c, 0, 65, 72
2, 508857, Note_on_c, 0, 48, 0
2, 508857, Note_on_c, 0, 55, 0
2, 508908, Note_on_c, 0, 65, 0
2, 508919, Note_on_c, 0, 63, 68
2, 509029, Note_on_c, 0, 63, 0
2, 509040, Note_on_c, 0, 56, 75
2, 509040, Note_on_c, 0, 63, 73
2, 509040, Note_on_c, 0, 41, 31
2, 509040, Note_on_c, 0, 48, 31
2, 509217, Note_on_c, 0, 48, 0
2, 509217, Note_on_c, 0, 56, 0
2, 509217, Note_on_c, 0, 63, 0
2, 509217, Note_on_c, 0, 41, 0
2, 509400, Note_on_c, 0, 59, 54
2, 509400, Note_on_c, 0, 62, 57
2, 509400, Note_on_c, 0, 43, 47
2, 509400, Note_on_c, 0, 53, 45
2, 509577, Note_on_c, 0, 62, 0
2, 509577, Note_on_c, 0, 59, 0
2, 509725, Note_on_c, 0, 43, 0
2, 509725, Note_on_c, 0, 53, 0
2, 509760, Note_on_c, 0, 55, 48
2, 509760, Note_on_c, 0, 60, 46
2, 509760, Note_on_c, 0, 63, 47
2, 509760, Note_on_c, 0, 36, 40
2, 509760, Note_on_c, 0, 48, 39
2, 509937, Note_on_c, 0, 48, 0
2, 509937, Note_on_c, 0, 63, 0
2, 509937, Note_on_c, 0, 55, 0
2, 509937, Note_on_c, 0, 60, 0
2, 509937, Note_on_c, 0, 36, 0
2, 510120, Note_on_c, 0, 60, 43
2, 510120, Note_on_c, 0, 56, 36
2, 510120, Note_on_c, 0, 48, 49
2, 510120, Note_on_c, 0, 41, 47
2, 510297, Note_on_c, 0, 41, 0
2, 510445, Note_on_c, 0, 56, 0
2, 510480, Note_on_c, 0, 55, 44
2, 510480, Note_on_c, 0, 39, 38
2, 510805, Note_on_c, 0, 39, 0
2, 510840, Note_on_c, 0, 60, 0
2, 510840, Note_on_c, 0, 48, 0
2, 510840, Note_on_c, 0, 55, 0
2, 510840, Note_on_c, 0, 44, 47
2, 510840, Note_on_c, 0, 53, 48
2, 510948, Note_on_c, 0, 53, 0
2, 510948, Note_on_c, 0, 44, 0
2, 511079, Note_on_c, 0, 44, 38
2, 511079, Note_on_c, 0, 53, 39
2, 511189, Note_on_c, 0, 53, 0
2, 511189, Note_on_c, 0, 44, 0
2, 511200, Note_on_c, 0, 48, 50
2, 511200, Note_on_c, 0, 55, 49
2, 511377, Note_on_c, 0, 55, 0
2, 511377, Note_on_c, 0, 48, 0
2, 511560, Note_on_c, 0, 60, 41
2, 511560, Note_on_c, 0, 53, 38
2, 511560, Note_on_c, 0, 48, 40
2, 511560, Note_on_c, 0, 38, 41
2, 511737, Note_on_c, 0, 38, 0
2, 511885, Note_on_c, 0, 53, 0
2, 511920, Note_on_c, 0, 51, 38
2, 511920, Note_on_c, 0, 36, 40
2, 512245, Note_on_c, 0, 36, 0
2, 512245, Note_on_c, 0, 51, 0
2, 512280, Note_on_c, 0, 48, 0
2, 512280, Note_on_c, 0, 60, 0
2, 512280, Note_on_c, 0, 45, 42
2, 512280, Note_on_c, 0, 48, 40
2, 512388, Note_on_c, 0, 48, 0
2, 512388, Note_on_c, 0, 45, 0
2, 512519, Note_on_c, 0, 45, 40
2, 512519, Note_on_c, 0, 48, 37
2, 512629, Note_on_c, 0, 48, 0
2, 512629, Note_on_c, 0, 45, 0
2, 512640, Note_on_c, 0, 50, 46
2, 512640, Note_on_c, 0, 38, 47
2, 512965, Note_on_c, 0, 50, 0
2, 513000, Note_on_c, 0, 54, 73
2, 513000, Note_on_c, 0, 62, 72
2, 513000, Note_on_c, 0, 66, 72
2, 513000, Note_on_c, 0, 48, 43
2, 513163, Note_on_c, 0, 48, 0
2, 513270, Note_on_c, 0, 48, 38
2, 513352, Note_on_c, 0, 48, 0
2, 513360, Note_on_c, 0, 50, 47
2, 513685, Note_on_c, 0, 50, 0
2, 513720, Note_on_c, 0, 62, 0
2, 513720, Note_on_c, 0, 66, 0
2, 513720, Note_on_c, 0, 54, 0
2, 513720, Note_on_c, 0, 55, 84
2, 513720, Note_on_c, 0, 62, 84
2, 513720, Note_on_c, 0, 64, 84
2, 513720, Note_on_c, 0, 67, 82
2, 513720, Note_on_c, 0, 46, 41
2, 513883, Note_on_c, 0, 46, 0
2, 513990, Note_on_c, 0, 46, 40
2, 514072, Note_on_c, 0, 46, 0
2, 514080, Note_on_c, 0, 48, 44
2, 514405, Note_on_c, 0, 48, 0
2, 514440, Note_on_c, 0, 55, 0
2, 514440, Note_on_c, 0, 62, 0
2, 514440, Note_on_c, 0, 64, 0
2, 514440, Note_on_c, 0, 67, 0
2, 514440, Note_on_c, 0, 57, 89
2, 514440, Note_on_c, 0, 62, 87
2, 514440, Note_on_c, 0, 66, 89
2, 514440, Note_on_c, 0, 69, 90
2, 514440, Note_on_c, 0, 45, 43
2, 514603, Note_on_c, 0, 45, 0
2, 514710, Note_on_c, 0, 45, 36
2, 514792, Note_on_c, 0, 45, 0
2, 514800, Note_on_c, 0, 50, 52
2, 515125, Note_on_c, 0, 50, 0
2, 515125, Note_on_c, 0, 57, 0
2, 515125, Note_on_c, 0, 62, 0
2, 515125, Note_on_c, 0, 66, 0
2, 515125, Note_on_c, 0, 69, 0
2, 515160, Note_on_c, 0, 58, 91
2, 515160, Note_on_c, 0, 62, 91
2, 515160, Note_on_c, 0, 64, 88
2, 515160, Note_on_c, 0, 70, 91
2, 515160, Note_on_c, 0, 43, 36
2, 515323, Note_on_c, 0, 43, 0
2, 515430, Note_on_c, 0, 43, 39
2, 515512, Note_on_c, 0, 43, 0
2, 515520, Note_on_c, 0, 45, 45
2, 515845, Note_on_c, 0, 45, 0
2, 515880, Note_on_c, 0, 58, 0
2, 515880, Note_on_c, 0, 62, 0
2, 515880, Note_on_c, 0, 64, 0
2, 515880, Note_on_c, 0, 70, 0
2, 515880, Note_on_c, 0, 60, 93
2, 515880, Note_on_c, 0, 62, 94
2, 515880, Note_on_c, 0, 69, 93
2, 515880, Note_on_c, 0, 72, 92
2, 515880, Note_on_c, 0, 42, 41
2, 516043, Note_on_c, 0, 42, 0
2, 516150, Note_on_c, 0, 42, 40
2, 516232, Note_on_c, 0, 42, 0
2, 516240, Note_on_c, 0, 50, 50
2, 516565, Note_on_c, 0, 50, 0
2, 516600, Note_on_c, 0, 60, 0
2, 516600, Note_on_c, 0, 62, 0
2, 516600, Note_on_c, 0, 69, 0
2, 516600, Note_on_c, 0, 72, 0
2, 516600, Note_on_c, 0, 61, 91
2, 516600, Note_on_c, 0, 67, 92
2, 516600, Note_on_c, 0, 69, 92
2, 516600, Note_on_c, 0, 73, 92
2, 516600, Note_on_c, 0, 40, 34
2, 516763, Note_on_c, 0, 40, 0
2, 516870, Note_on_c, 0, 40, 37
2, 516890, Note_on_c, 0, 38, 0
2, 516952, Note_on_c, 0, 40, 0
2, 516960, Note_on_c, 0, 69, 0
2, 516960, Note_on_c, 0, 61, 0
2, 516960, Note_on_c, 0, 67, 0
2, 516960, Note_on_c, 0, 73, 0
2, 516960, Note_on_c, 0, 62, 95
2, 516960, Note_on_c, 0, 66, 97
2, 516960, Note_on_c, 0, 69, 96
2, 516960, Note_on_c, 0, 74, 97
2, 516960, Note_on_c, 0, 38, 58
2, 516960, Note_on_c, 0, 50, 57
2, 517285, Note_on_c, 0, 50, 0
2, 517285, Note_on_c, 0, 38, 0
2, 517320, Note_on_c, 0, 69, 0
2, 517320, Note_on_c, 0, 62, 0
2, 517320, Note_on_c, 0, 66, 0
2, 517320, Note_on_c, 0, 74, 0
2, 517320, Note_on_c, 0, 64, 91
2, 517320, Note_on_c, 0, 74, 91
2, 517320, Note_on_c, 0, 76, 89
2, 517320, Note_on_c, 0, 36, 44
2, 517320, Note_on_c, 0, 48, 46
2, 517483, Note_on_c, 0, 48, 0
2, 517483, Note_on_c, 0, 36, 0
2, 517590, Note_on_c, 0, 36, 38
2, 517590, Note_on_c, 0, 48, 37
2, 517645, Note_on_c, 0, 64, 0
2, 517645, Note_on_c, 0, 76, 0
2, 517645, Note_on_c, 0, 74, 0
2, 517672, Note_on_c, 0, 36, 0
2, 517672, Note_on_c, 0, 48, 0
2, 517680, Note_on_c, 0, 66, 89
2, 517680, Note_on_c, 0, 74, 88
2, 517680, Note_on_c, 0, 78, 91
2, 517680, Note_on_c, 0, 38, 70
2, 517680, Note_on_c, 0, 50, 72
2, 518005, Note_on_c, 0, 50, 0
2, 518005, Note_on_c, 0, 78, 0
2, 518005, Note_on_c, 0, 66, 0
2, 518005, Note_on_c, 0, 74, 0
2, 518005, Note_on_c, 0, 38, 0
2, 518040, Note_on_c, 0, 67, 88
2, 518040, Note_on_c, 0, 74, 89
2, 518040, Note_on_c, 0, 76, 88
2, 518040, Note_on_c, 0, 79, 89
2, 518040, Note_on_c, 0, 34, 39
2, 518040, Note_on_c, 0, 46, 41
2, 518203, Note_on_c, 0, 46, 0
2, 518203, Note_on_c, 0, 34, 0
2, 518310, Note_on_c, 0, 34, 40
2, 518310, Note_on_c, 0, 46, 38
2, 518392, Note_on_c, 0, 46, 0
2, 518392, Note_on_c, 0, 34, 0
2, 518400, Note_on_c, 0, 36, 70
2, 518400, Note_on_c, 0, 48, 70
2, 518690, Note_on_c, 0, 79, 0
2, 518690, Note_on_c, 0, 76, 0
2, 518690, Note_on_c, 0, 67, 0
2, 518690, Note_on_c, 0, 74, 0
2, 518725, Note_on_c, 0, 48, 0
2, 518725, Note_on_c, 0, 36, 0
2, 518760, Note_on_c, 0, 69, 95
2, 518760, Note_on_c, 0, 74, 93
2, 518760, Note_on_c, 0, 78, 94
2, 518760, Note_on_c, 0, 81, 94
2, 518760, Note_on_c, 0, 33, 41
2, 518760, Note_on_c, 0, 45, 42
2, 518923, Note_on_c, 0, 45, 0
2, 518923, Note_on_c, 0, 33, 0
2, 519030, Note_on_c, 0, 45, 40
2, 519085, Note_on_c, 0, 78, 0
2, 519085, Note_on_c, 0, 81, 0
2, 519085, Note_on_c, 0, 69, 0
2, 519085, Note_on_c, 0, 74, 0
2, 519112, Note_on_c, 0, 45, 0
2, 519120, Note_on_c, 0, 70, 94
2, 519120, Note_on_c, 0, 74, 94
2, 519120, Note_on_c, 0, 79, 94
2, 519120, Note_on_c, 0, 82, 95
2, 519120, Note_on_c, 0, 38, 81
2, 519120, Note_on_c, 0, 50, 80
2, 519445, Note_on_c, 0, 50, 0
2, 519445, Note_on_c, 0, 74, 0
2, 519445, Note_on_c, 0, 79, 0
2, 519445, Note_on_c, 0, 70, 0
2, 519445, Note_on_c, 0, 38, 0
2, 519445, Note_on_c, 0, 82, 0
2, 519480, Note_on_c, 0, 72, 92
2, 519480, Note_on_c, 0, 74, 96
2, 519480, Note_on_c, 0, 81, 95
2, 519480, Note_on_c, 0, 84, 94
2, 519480, Note_on_c, 0, 31, 39
2, 519480, Note_on_c, 0, 43, 36
2, 519643, Note_on_c, 0, 43, 0
2, 519643, Note_on_c, 0, 31, 0
2, 519750, Note_on_c, 0, 31, 37
2, 519750, Note_on_c, 0, 43, 40
2, 519832, Note_on_c, 0, 43, 0
2, 519832, Note_on_c, 0, 31, 0
2, 519840, Note_on_c, 0, 33, 69
2, 519840, Note_on_c, 0, 45, 70
2, 520130, Note_on_c, 0, 84, 0
2, 520130, Note_on_c, 0, 81, 0
2, 520130, Note_on_c, 0, 72, 0
2, 520130, Note_on_c, 0, 74, 0
2, 520165, Note_on_c, 0, 45, 0
2, 520165, Note_on_c, 0, 33, 0
2, 520200, Note_on_c, 0, 73, 95
2, 520200, Note_on_c, 0, 79, 94
2, 520200, Note_on_c, 0, 81, 97
2, 520200, Note_on_c, 0, 85, 96
2, 520200, Note_on_c, 0, 28, 41
2, 520200, Note_on_c, 0, 40, 42
2, 520363, Note_on_c, 0, 40, 0
2, 520363, Note_on_c, 0, 28, 0
2, 520470, Note_on_c, 0, 40, 40
2, 520525, Note_on_c, 0, 81, 0
2, 520525, Note_on_c, 0, 85, 0
2, 520525, Note_on_c, 0, 73, 0
2, 520525, Note_on_c, 0, 79, 0
2, 520552, Note_on_c, 0, 40, 0
2, 520560, Note_on_c, 0, 74, 94
2, 520560, Note_on_c, 0, 78, 93
2, 520560, Note_on_c, 0, 81, 93
2, 520560, Note_on_c, 0, 86, 97
2, 520560, Note_on_c, 0, 38, 83
2, 520560, Note_on_c, 0, 50, 83
2, 520885, Note_on_c, 0, 50, 0
2, 520885, Note_on_c, 0, 78, 0
2, 520885, Note_on_c, 0, 81, 0
2, 520885, Note_on_c, 0, 74, 0
2, 520885, Note_on_c, 0, 38, 0
2, 520885, Note_on_c, 0, 86, 0
2, 520920, Note_on_c, 0, 62, 69
2, 520920, Note_on_c, 0, 38, 34
2, 521028, Note_on_c, 0, 38, 0
2, 521028, Note_on_c, 0, 62, 0
2, 521040, Note_on_c, 0, 55, 70
2, 521040, Note_on_c, 0, 31, 31
2, 521148, Note_on_c, 0, 31, 0
2, 521148, Note_on_c, 0, 55, 0
2, 521159, Note_on_c, 0, 62, 105
2, 521159, Note_on_c, 0, 38, 50
2, 521269, Note_on_c, 0, 38, 0
2, 521269, Note_on_c, 0, 62, 0
2, 521280, Note_on_c, 0, 55, 119
2, 521280, Note_on_c, 0, 31, 51
2, 521280, Note_on_c, 0, 43, 53
2, 521519, Note_on_c, 0, 67, 95
2, 521519, Note_on_c, 0, 71, 95
2, 521519, Note_on_c, 0, 76, 95
2, 521519, Note_on_c, 0, 52, 36
2, 521519, Note_on_c, 0, 55, 39
2, 521519, Note_on_c, 0, 59, 39
2, 521519, Note_on_c, 0, 64, 39
2, 521605, Note_on_c, 0, 43, 0
2, 521605, Note_on_c, 0, 55, 0
2, 521605, Note_on_c, 0, 31, 0
2, 521629, Note_on_c, 0, 67, 0
2, 521629, Note_on_c, 0, 52, 0
2, 521629, Note_on_c, 0, 76, 0
2, 521629, Note_on_c, 0, 64, 0
2, 521629, Note_on_c, 0, 59, 0
2, 521629, Note_on_c, 0, 55, 0
2, 521629, Note_on_c, 0, 71, 0
2, 521640, Note_on_c, 0, 67, 112
2, 521640, Note_on_c, 0, 71, 111
2, 521640, Note_on_c, 0, 74, 112
2, 521640, Note_on_c, 0, 50, 61
2, 521640, Note_on_c, 0, 55, 63
2, 521640, Note_on_c, 0, 59, 61
2, 521640, Note_on_c, 0, 62, 64
2, 522215, Note_on_c, 0, 62, 0
2, 522215, Note_on_c, 0, 55, 0
2, 522215, Note_on_c, 0, 71, 0
2, 522215, Note_on_c, 0, 74, 0
2, 522215, Note_on_c, 0, 67, 0
2, 522215, Note_on_c, 0, 59, 0
2, 522215, Note_on_c, 0, 50, 0
2, 522239, Note_on_c, 0, 60, 91
2, 522239, Note_on_c, 0, 67, 89
2, 522239, Note_on_c, 0, 69, 92
2, 522239, Note_on_c, 0, 52, 34
2, 522239, Note_on_c, 0, 55, 36
2, 522349, Note_on_c, 0, 55, 0
2, 522349, Note_on_c, 0, 69, 0
2, 522349, Note_on_c, 0, 60, 0
2, 522349, Note_on_c, 0, 67, 0
2, 522349, Note_on_c, 0, 52, 0
2, 522360, Note_on_c, 0, 59, 122
2, 522360, Note_on_c, 0, 67, 122
2, 522360, Note_on_c, 0, 71, 121
2, 522360, Note_on_c, 0, 50, 66
2, 522360, Note_on_c, 0, 55, 64
2, 522575, Note_on_c, 0, 55, 0
2, 522575, Note_on_c, 0, 71, 0
2, 522575, Note_on_c, 0, 59, 0
2, 522575, Note_on_c, 0, 67, 0
2, 522575, Note_on_c, 0, 50, 0
2, 522599, Note_on_c, 0, 57, 91
2, 522599, Note_on_c, 0, 60, 92
2, 522599, Note_on_c, 0, 66, 89
2, 522599, Note_on_c, 0, 38, 36
2, 522599, Note_on_c, 0, 50, 38
2, 522709, Note_on_c, 0, 50, 0
2, 522709, Note_on_c, 0, 66, 0
2, 522709, Note_on_c, 0, 57, 0
2, 522709, Note_on_c, 0, 60, 0
2, 522709, Note_on_c, 0, 38, 0
2, 522720, Note_on_c, 0, 59, 105
2, 522720, Note_on_c, 0, 62, 107
2, 522720, Note_on_c, 0, 67, 105
2, 522720, Note_on_c, 0, 41, 70
2, 522720, Note_on_c, 0, 50, 71
2, 522828, Note_on_c, 0, 50, 0
2, 522828, Note_on_c, 0, 41, 0
2, 522935, Note_on_c, 0, 59, 0
2, 522935, Note_on_c, 0, 62, 0
2, 522935, Note_on_c, 0, 67, 0
2, 522959, Note_on_c, 0, 67, 75
2, 522959, Note_on_c, 0, 67, 96
2, 522959, Note_on_c, 0, 55, 36
2, 522959, Note_on_c, 0, 55, 56
2, 523069, Note_on_c, 0, 55, 0
2, 523069, Note_on_c, 0, 67, 0
2, 523069, Note_on_c, 0, 67, 0
2, 523069, Note_on_c, 0, 55, 0
2, 523080, Note_on_c, 0, 66, 73
2, 523080, Note_on_c, 0, 66, 73
2, 523080, Note_on_c, 0, 54, 45
2, 523080, Note_on_c, 0, 54, 42
2, 523188, Note_on_c, 0, 54, 0
2, 523188, Note_on_c, 0, 66, 0
2, 523200, Note_on_c, 0, 59, 59
2, 523200, Note_on_c, 0, 43, 28
2, 523295, Note_on_c, 0, 66, 0
2, 523295, Note_on_c, 0, 54, 0
2, 523308, Note_on_c, 0, 59, 0
2, 523308, Note_on_c, 0, 43, 0
2, 523319, Note_on_c, 0, 71, 92
2, 523319, Note_on_c, 0, 71, 85
2, 523319, Note_on_c, 0, 55, 53
2, 523319, Note_on_c, 0, 55, 44
2, 523429, Note_on_c, 0, 55, 0
2, 523429, Note_on_c, 0, 71, 0
2, 523429, Note_on_c, 0, 71, 0
2, 523429, Note_on_c, 0, 55, 0
2, 523440, Note_on_c, 0, 65, 68
2, 523440, Note_on_c, 0, 65, 64
2, 523440, Note_on_c, 0, 53, 42
2, 523440, Note_on_c, 0, 53, 39
2, 523548, Note_on_c, 0, 53, 0
2, 523548, Note_on_c, 0, 65, 0
2, 523560, Note_on_c, 0, 59, 63
2, 523560, Note_on_c, 0, 43, 32
2, 523655, Note_on_c, 0, 65, 0
2, 523655, Note_on_c, 0, 53, 0
2, 523668, Note_on_c, 0, 59, 0
2, 523668, Note_on_c, 0, 43, 0
2, 523679, Note_on_c, 0, 67, 88
2, 523679, Note_on_c, 0, 67, 78
2, 523679, Note_on_c, 0, 55, 53
2, 523679, Note_on_c, 0, 55, 45
2, 523789, Note_on_c, 0, 55, 0
2, 523789, Note_on_c, 0, 67, 0
2, 523789, Note_on_c, 0, 67, 0
2, 523789, Note_on_c, 0, 55, 0
2, 523800, Note_on_c, 0, 64, 74
2, 523800, Note_on_c, 0, 64, 68
2, 523800, Note_on_c, 0, 52, 43
2, 523800, Note_on_c, 0, 52, 41
2, 523908, Note_on_c, 0, 52, 0
2, 523908, Note_on_c, 0, 64, 0
2, 523920, Note_on_c, 0, 59, 63
2, 523920, Note_on_c, 0, 43, 34
2, 524028, Note_on_c, 0, 43, 0
2, 524028, Note_on_c, 0, 59, 0
2, 524039, Note_on_c, 0, 59, 122
2, 524039, Note_on_c, 0, 63, 120
2, 524039, Note_on_c, 0, 67, 120
2, 524039, Note_on_c, 0, 71, 122
2, 524039, Note_on_c, 0, 51, 87
2, 524039, Note_on_c, 0, 55, 87
2, 524125, Note_on_c, 0, 64, 0
2, 524125, Note_on_c, 0, 52, 0
2, 524149, Note_on_c, 0, 71, 0
2, 524149, Note_on_c, 0, 59, 0
2, 524149, Note_on_c, 0, 67, 0
2, 524149, Note_on_c, 0, 55, 0
2, 524149, Note_on_c, 0, 51, 0
2, 524149, Note_on_c, 0, 63, 0
2, 524160, Note_on_c, 0, 59, 98
2, 524160, Note_on_c, 0, 62, 96
2, 524160, Note_on_c, 0, 67, 96
2, 524160, Note_on_c, 0, 41, 62
2, 524160, Note_on_c, 0, 50, 63
2, 524268, Note_on_c, 0, 50, 0
2, 524268, Note_on_c, 0, 41, 0
2, 524375, Note_on_c, 0, 59, 0
2, 524375, Note_on_c, 0, 62, 0
2, 524375, Note_on_c, 0, 67, 0
2, 524399, Note_on_c, 0, 67, 75
2, 524399, Note_on_c, 0, 67, 79
2, 524399, Note_on_c, 0, 55, 38
2, 524399, Note_on_c, 0, 55, 44
2, 524509, Note_on_c, 0, 55, 0
2, 524509, Note_on_c, 0, 67, 0
2, 524509, Note_on_c, 0, 67, 0
2, 524509, Note_on_c, 0, 55, 0
2, 524520, Note_on_c, 0, 66, 74
2, 524520, Note_on_c, 0, 66, 71
2, 524520, Note_on_c, 0, 54, 42
2, 524520, Note_on_c, 0, 54, 43
2, 524628, Note_on_c, 0, 54, 0
2, 524628, Note_on_c, 0, 66, 0
2, 524640, Note_on_c, 0, 59, 61
2, 524640, Note_on_c, 0, 43, 29
2, 524735, Note_on_c, 0, 66, 0
2, 524735, Note_on_c, 0, 54, 0
2, 524748, Note_on_c, 0, 59, 0
2, 524748, Note_on_c, 0, 43, 0
2, 524759, Note_on_c, 0, 71, 95
2, 524759, Note_on_c, 0, 71, 87
2, 524759, Note_on_c, 0, 55, 53
2, 524759, Note_on_c, 0, 55, 46
2, 524869, Note_on_c, 0, 55, 0
2, 524869, Note_on_c, 0, 71, 0
2, 524869, Note_on_c, 0, 71, 0
2, 524869, Note_on_c, 0, 55, 0
2, 524880, Note_on_c, 0, 65, 69
2, 524880, Note_on_c, 0, 65, 66
2, 524880, Note_on_c, 0, 53, 43
2, 524880, Note_on_c, 0, 53, 39
2, 524988, Note_on_c, 0, 53, 0
2, 524988, Note_on_c, 0, 65, 0
2, 525000, Note_on_c, 0, 59, 59
2, 525000, Note_on_c, 0, 43, 33
2, 525095, Note_on_c, 0, 65, 0
2, 525095, Note_on_c, 0, 53, 0
2, 525108, Note_on_c, 0, 59, 0
2, 525108, Note_on_c, 0, 43, 0
2, 525119, Note_on_c, 0, 67, 87
2, 525119, Note_on_c, 0, 67, 78
2, 525119, Note_on_c, 0, 55, 55
2, 525119, Note_on_c, 0, 55, 43
2, 525229, Note_on_c, 0, 55, 0
2, 525229, Note_on_c, 0, 67, 0
2, 525229, Note_on_c, 0, 67, 0
2, 525229, Note_on_c, 0, 55, 0
2, 525240, Note_on_c, 0, 64, 71
2, 525240, Note_on_c, 0, 64, 67
2, 525240, Note_on_c, 0, 52, 42
2, 525240, Note_on_c, 0, 52, 37
2, 525348, Note_on_c, 0, 52, 0
2, 525348, Note_on_c, 0, 64, 0
2, 525360, Note_on_c, 0, 59, 61
2, 525360, Note_on_c, 0, 43, 33
2, 525468, Note_on_c, 0, 43, 0
2, 525468, Note_on_c, 0, 59, 0
2, 525479, Note_on_c, 0, 59, 121
2, 525479, Note_on_c, 0, 63, 120
2, 525479, Note_on_c, 0, 67, 121
2, 525479, Note_on_c, 0, 71, 122
2, 525479, Note_on_c, 0, 51, 83
2, 525479, Note_on_c, 0, 55, 83
2, 525565, Note_on_c, 0, 64, 0
2, 525565, Note_on_c, 0, 52, 0
2, 525589, Note_on_c, 0, 71, 0
2, 525589, Note_on_c, 0, 59, 0
2, 525589, Note_on_c, 0, 67, 0
2, 525589, Note_on_c, 0, 55, 0
2, 525589, Note_on_c, 0, 51, 0
2, 525589, Note_on_c, 0, 63, 0
2, 525600, Note_on_c, 0, 59, 96
2, 525600, Note_on_c, 0, 62, 94
2, 525600, Note_on_c, 0, 67, 95
2, 525600, Note_on_c, 0, 50, 73
2, 525600, Note_on_c, 0, 55, 74
2, 525708, Note_on_c, 0, 55, 0
2, 525708, Note_on_c, 0, 50, 0
2, 525720, Note_on_c, 0, 43, 29
2, 525815, Note_on_c, 0, 59, 0
2, 525815, Note_on_c, 0, 67, 0
2, 525815, Note_on_c, 0, 62, 0
2, 525828, Note_on_c, 0, 43, 0
2, 525839, Note_on_c, 0, 72, 86
2, 525839, Note_on_c, 0, 72, 91
2, 525949, Note_on_c, 0, 72, 0
2, 525949, Note_on_c, 0, 72, 0
2, 525960, Note_on_c, 0, 71, 77
2, 525960, Note_on_c, 0, 64, 60
2, 525960, Note_on_c, 0, 56, 41
2, 525960, Note_on_c, 0, 56, 38
2, 526068, Note_on_c, 0, 56, 0
2, 526068, Note_on_c, 0, 71, 0
2, 526080, Note_on_c, 0, 60, 54
2, 526080, Note_on_c, 0, 52, 36
2, 526175, Note_on_c, 0, 64, 0
2, 526175, Note_on_c, 0, 56, 0
2, 526188, Note_on_c, 0, 60, 0
2, 526188, Note_on_c, 0, 52, 0
2, 526199, Note_on_c, 0, 72, 94
2, 526199, Note_on_c, 0, 43, 32
2, 526309, Note_on_c, 0, 43, 0
2, 526309, Note_on_c, 0, 72, 0
2, 526320, Note_on_c, 0, 71, 75
2, 526320, Note_on_c, 0, 63, 70
2, 526320, Note_on_c, 0, 55, 56
2, 526320, Note_on_c, 0, 55, 41
2, 526428, Note_on_c, 0, 55, 0
2, 526428, Note_on_c, 0, 71, 0
2, 526440, Note_on_c, 0, 60, 54
2, 526440, Note_on_c, 0, 51, 39
2, 526535, Note_on_c, 0, 63, 0
2, 526535, Note_on_c, 0, 55, 0
2, 526548, Note_on_c, 0, 60, 0
2, 526548, Note_on_c, 0, 51, 0
2, 526559, Note_on_c, 0, 72, 95
2, 526559, Note_on_c, 0, 43, 32
2, 526669, Note_on_c, 0, 43, 0
2, 526669, Note_on_c, 0, 72, 0
2, 526680, Note_on_c, 0, 71, 79
2, 526680, Note_on_c, 0, 62, 71
2, 526680, Note_on_c, 0, 54, 56
2, 526680, Note_on_c, 0, 54, 41
2, 526788, Note_on_c, 0, 54, 0
2, 526788, Note_on_c, 0, 71, 0
2, 526800, Note_on_c, 0, 60, 55
2, 526800, Note_on_c, 0, 50, 40
2, 526908, Note_on_c, 0, 50, 0
2, 526908, Note_on_c, 0, 60, 0
2, 526919, Note_on_c, 0, 63, 122
2, 526919, Note_on_c, 0, 66, 121
2, 526919, Note_on_c, 0, 70, 122
2, 526919, Note_on_c, 0, 75, 122
2, 526919, Note_on_c, 0, 54, 80
2, 526919, Note_on_c, 0, 58, 82
2, 527005, Note_on_c, 0, 62, 0
2, 527005, Note_on_c, 0, 54, 0
2, 527029, Note_on_c, 0, 75, 0
2, 527029, Note_on_c, 0, 63, 0
2, 527029, Note_on_c, 0, 70, 0
2, 527029, Note_on_c, 0, 58, 0
2, 527029, Note_on_c, 0, 54, 0
2, 527029, Note_on_c, 0, 66, 0
2, 527040, Note_on_c, 0, 59, 87
2, 527040, Note_on_c, 0, 62, 87
2, 527040, Note_on_c, 0, 67, 87
2, 527040, Note_on_c, 0, 50, 67
2, 527040, Note_on_c, 0, 55, 69
2, 527148, Note_on_c, 0, 55, 0
2, 527148, Note_on_c, 0, 50, 0
2, 527160, Note_on_c, 0, 43, 30
2, 527255, Note_on_c, 0, 59, 0
2, 527255, Note_on_c, 0, 67, 0
2, 527255, Note_on_c, 0, 62, 0
2, 527268, Note_on_c, 0, 43, 0
2, 527279, Note_on_c, 0, 72, 81
2, 527279, Note_on_c, 0, 72, 66
2, 527389, Note_on_c, 0, 72, 0
2, 527389, Note_on_c, 0, 72, 0
2, 527400, Note_on_c, 0, 71, 75
2, 527400, Note_on_c, 0, 64, 58
2, 527400, Note_on_c, 0, 56, 40
2, 527400, Note_on_c, 0, 56, 36
2, 527508, Note_on_c, 0, 56, 0
2, 527508, Note_on_c, 0, 71, 0
2, 527520, Note_on_c, 0, 60, 54
2, 527520, Note_on_c, 0, 52, 37
2, 527615, Note_on_c, 0, 64, 0
2, 527615, Note_on_c, 0, 56, 0
2, 527628, Note_on_c, 0, 60, 0
2, 527628, Note_on_c, 0, 52, 0
2, 527639, Note_on_c, 0, 72, 94
2, 527639, Note_on_c, 0, 43, 30
2, 527749, Note_on_c, 0, 43, 0
2, 527749, Note_on_c, 0, 72, 0
2, 527760, Note_on_c, 0, 71, 78
2, 527760, Note_on_c, 0, 63, 67
2, 527760, Note_on_c, 0, 55, 55
2, 527760, Note_on_c, 0, 55, 38
2, 527868, Note_on_c, 0, 55, 0
2, 527868, Note_on_c, 0, 71, 0
2, 527880, Note_on_c, 0, 60, 54
2, 527880, Note_on_c, 0, 51, 41
2, 527975, Note_on_c, 0, 63, 0
2, 527975, Note_on_c, 0, 55, 0
2, 527988, Note_on_c, 0, 60, 0
2, 527988, Note_on_c, 0, 51, 0
2, 527999, Note_on_c, 0, 72, 94
2, 527999, Note_on_c, 0, 43, 34
2, 528109, Note_on_c, 0, 43, 0
2, 528109, Note_on_c, 0, 72, 0
2, 528120, Note_on_c, 0, 71, 79
2, 528120, Note_on_c, 0, 62, 65
2, 528120, Note_on_c, 0, 54, 57
2, 528120, Note_on_c, 0, 54, 39
2, 528228, Note_on_c, 0, 54, 0
2, 528228, Note_on_c, 0, 71, 0
2, 528240, Note_on_c, 0, 60, 54
2, 528240, Note_on_c, 0, 50, 38
2, 528348, Note_on_c, 0, 50, 0
2, 528348, Note_on_c, 0, 60, 0
2, 528359, Note_on_c, 0, 63, 121
2, 528359, Note_on_c, 0, 66, 122
2, 528359, Note_on_c, 0, 70, 122
2, 528359, Note_on_c, 0, 75, 122
2, 528359, Note_on_c, 0, 54, 80
2, 528359, Note_on_c, 0, 58, 79
2, 528445, Note_on_c, 0, 62, 0
2, 528445, Note_on_c, 0, 54, 0
2, 528469, Note_on_c, 0, 75, 0
2, 528469, Note_on_c, 0, 63, 0
2, 528469, Note_on_c, 0, 70, 0
2, 528469, Note_on_c, 0, 58, 0
2, 528469, Note_on_c, 0, 54, 0
2, 528469, Note_on_c, 0, 66, 0
2, 528480, Note_on_c, 0, 62, 96
2, 528480, Note_on_c, 0, 67, 96
2, 528480, Note_on_c, 0, 71, 97
2, 528480, Note_on_c, 0, 55, 78
2, 528480, Note_on_c, 0, 59, 76
2, 528695, Note_on_c, 0, 59, 0
2, 528695, Note_on_c, 0, 55, 0
2, 528719, Note_on_c, 0, 50, 34
2, 528805, Note_on_c, 0, 62, 0
2, 528805, Note_on_c, 0, 71, 0
2, 528805, Note_on_c, 0, 67, 0
2, 528829, Note_on_c, 0, 50, 0
2, 528840, Note_on_c, 0, 70, 75
2, 528840, Note_on_c, 0, 70, 116
2, 528840, Note_on_c, 0, 58, 87
2, 528840, Note_on_c, 0, 63, 85
2, 528922, Note_on_c, 0, 70, 0
2, 528930, Note_on_c, 0, 65, 62
2, 529012, Note_on_c, 0, 65, 0
2, 529020, Note_on_c, 0, 66, 76
2, 529102, Note_on_c, 0, 66, 0
2, 529110, Note_on_c, 0, 75, 93
2, 529165, Note_on_c, 0, 70, 0
2, 529165, Note_on_c, 0, 63, 0
2, 529165, Note_on_c, 0, 58, 0
2, 529192, Note_on_c, 0, 75, 0
2, 529200, Note_on_c, 0, 67, 72
2, 529200, Note_on_c, 0, 71, 73
2, 529200, Note_on_c, 0, 59, 42
2, 529200, Note_on_c, 0, 62, 43
2, 529415, Note_on_c, 0, 62, 0
2, 529415, Note_on_c, 0, 59, 0
2, 529439, Note_on_c, 0, 55, 33
2, 529525, Note_on_c, 0, 71, 0
2, 529525, Note_on_c, 0, 67, 0
2, 529549, Note_on_c, 0, 55, 0
2, 529560, Note_on_c, 0, 73, 89
2, 529560, Note_on_c, 0, 73, 113
2, 529560, Note_on_c, 0, 61, 87
2, 529560, Note_on_c, 0, 67, 86
2, 529642, Note_on_c, 0, 73, 0
2, 529650, Note_on_c, 0, 69, 74
2, 529732, Note_on_c, 0, 69, 0
2, 529740, Note_on_c, 0, 70, 83
2, 529822, Note_on_c, 0, 70, 0
2, 529830, Note_on_c, 0, 79, 105
2, 529885, Note_on_c, 0, 73, 0
2, 529885, Note_on_c, 0, 61, 0
2, 529912, Note_on_c, 0, 79, 0
2, 529920, Note_on_c, 0, 71, 78
2, 529920, Note_on_c, 0, 74, 80
2, 529920, Note_on_c, 0, 62, 46
2, 530135, Note_on_c, 0, 62, 0
2, 530135, Note_on_c, 0, 67, 0
2, 530159, Note_on_c, 0, 59, 31
2, 530245, Note_on_c, 0, 74, 0
2, 530245, Note_on_c, 0, 71, 0
2, 530280, Note_on_c, 0, 78, 98
2, 530280, Note_on_c, 0, 78, 99
2, 530280, Note_on_c, 0, 62, 80
2, 530280, Note_on_c, 0, 66, 76
2, 530362, Note_on_c, 0, 78, 0
2, 530370, Note_on_c, 0, 71, 72
2, 530452, Note_on_c, 0, 71, 0
2, 530460, Note_on_c, 0, 74, 92
2, 530542, Note_on_c, 0, 74, 0
2, 530550, Note_on_c, 0, 83, 111
2, 530605, Note_on_c, 0, 66, 0
2, 530605, Note_on_c, 0, 78, 0
2, 530632, Note_on_c, 0, 83, 0
2, 530640, Note_on_c, 0, 74, 86
2, 530640, Note_on_c, 0, 79, 85
2, 530640, Note_on_c, 0, 67, 46
2, 530855, Note_on_c, 0, 67, 0
2, 530855, Note_on_c, 0, 74, 0
2, 530855, Note_on_c, 0, 59, 0
2, 530855, Note_on_c, 0, 62, 0
2, 530855, Note_on_c, 0, 79, 0
2, 530879, Note_on_c, 0, 71, 116
2, 530879, Note_on_c, 0, 74, 119
2, 530879, Note_on_c, 0, 79, 118
2, 530879, Note_on_c, 0, 83, 117
2, 530879, Note_on_c, 0, 59, 48
2, 530879, Note_on_c, 0, 62, 48
2, 530879, Note_on_c, 0, 67, 48
2, 530879, Note_on_c, 0, 71, 47
2, 530989, Note_on_c, 0, 71, 0
2, 530989, Note_on_c, 0, 71, 0
2, 530989, Note_on_c, 0, 59, 0
2, 530989, Note_on_c, 0, 74, 0
2, 530989, Note_on_c, 0, 79, 0
2, 530989, Note_on_c, 0, 83, 0
2, 530989, Note_on_c, 0, 62, 0
2, 530989, Note_on_c, 0, 67, 0
2, 531000, Note_on_c, 0, 71, 113
2, 531000, Note_on_c, 0, 74, 115
2, 531000, Note_on_c, 0, 78, 115
2, 531000, Note_on_c, 0, 81, 115
2, 531000, Note_on_c, 0, 59, 65
2, 531000, Note_on_c, 0, 62, 64
2, 531000, Note_on_c, 0, 66, 65
2, 531000, Note_on_c, 0, 69, 64
2, 531215, Note_on_c, 0, 69, 0
2, 531215, Note_on_c, 0, 71, 0
2, 531215, Note_on_c, 0, 59, 0
2, 531215, Note_on_c, 0, 74, 0
2, 531215, Note_on_c, 0, 78, 0
2, 531215, Note_on_c, 0, 81, 0
2, 531215, Note_on_c, 0, 62, 0
2, 531215, Note_on_c, 0, 66, 0
2, 531239, Note_on_c, 0, 59, 74
2, 531239, Note_on_c, 0, 62, 75
2, 531239, Note_on_c, 0, 66, 75
2, 531239, Note_on_c, 0, 69, 73
2, 531239, Note_on_c, 0, 54, 27
2, 531239, Note_on_c, 0, 57, 31
2, 531349, Note_on_c, 0, 57, 0
2, 531349, Note_on_c, 0, 62, 0
2, 531349, Note_on_c, 0, 66, 0
2, 531349, Note_on_c, 0, 59, 0
2, 531349, Note_on_c, 0, 54, 0
2, 531349, Note_on_c, 0, 69, 0
2, 531360, Note_on_c, 0, 59, 109
2, 531360, Note_on_c, 0, 64, 109
2, 531360, Note_on_c, 0, 67, 111
2, 531360, Note_on_c, 0, 71, 112
2, 531360, Note_on_c, 0, 43, 73
2, 531360, Note_on_c, 0, 52, 72
2, 531360, Note_on_c, 0, 55, 74
2, 531599, Note_on_c, 0, 76, 93
2, 531599, Note_on_c, 0, 79, 93
2, 531599, Note_on_c, 0, 83, 94
2, 531599, Note_on_c, 0, 64, 39
2, 531599, Note_on_c, 0, 67, 38
2, 531599, Note_on_c, 0, 71, 36
2, 531709, Note_on_c, 0, 83, 0
2, 531709, Note_on_c, 0, 79, 0
2, 531709, Note_on_c, 0, 71, 0
2, 531709, Note_on_c, 0, 67, 0
2, 531709, Note_on_c, 0, 76, 0
2, 531709, Note_on_c, 0, 64, 0
2, 531720, Note_on_c, 0, 76, 122
2, 531720, Note_on_c, 0, 79, 122
2, 531720, Note_on_c, 0, 83, 121
2, 531720, Note_on_c, 0, 88, 121
2, 531720, Note_on_c, 0, 59, 68
2, 531720, Note_on_c, 0, 64, 67
2, 531720, Note_on_c, 0, 67, 65
2, 531720, Note_on_c, 0, 71, 67
2, 532010, Note_on_c, 0, 59, 0
2, 532010, Note_on_c, 0, 43, 0
2, 532010, Note_on_c, 0, 52, 0
2, 532010, Note_on_c, 0, 64, 0
2, 532010, Note_on_c, 0, 67, 0
2, 532010, Note_on_c, 0, 71, 0
2, 532010, Note_on_c, 0, 55, 0
2, 532295, Note_on_c, 0, 79, 0
2, 532295, Note_on_c, 0, 76, 0
2, 532295, Note_on_c, 0, 88, 0
2, 532295, Note_on_c, 0, 59, 0
2, 532295, Note_on_c, 0, 67, 0
2, 532295, Note_on_c, 0, 71, 0
2, 532295, Note_on_c, 0, 83, 0
2, 532295, Note_on_c, 0, 64, 0
2, 532319, Note_on_c, 0, 71, 80
2, 532319, Note_on_c, 0, 76, 80
2, 532319, Note_on_c, 0, 79, 81
2, 532319, Note_on_c, 0, 59, 36
2, 532319, Note_on_c, 0, 64, 36
2, 532319, Note_on_c, 0, 67, 36
2, 532429, Note_on_c, 0, 67, 0
2, 532429, Note_on_c, 0, 76, 0
2, 532429, Note_on_c, 0, 79, 0
2, 532429, Note_on_c, 0, 71, 0
2, 532429, Note_on_c, 0, 64, 0
2, 532429, Note_on_c, 0, 59, 0
2, 532440, Note_on_c, 0, 71, 112
2, 532440, Note_on_c, 0, 74, 109
2, 532440, Note_on_c, 0, 78, 111
2, 532440, Note_on_c, 0, 57, 62
2, 532440, Note_on_c, 0, 62, 64
2, 532440, Note_on_c, 0, 66, 63
2, 532655, Note_on_c, 0, 66, 0
2, 532655, Note_on_c, 0, 74, 0
2, 532655, Note_on_c, 0, 78, 0
2, 532655, Note_on_c, 0, 71, 0
2, 532655, Note_on_c, 0, 62, 0
2, 532655, Note_on_c, 0, 57, 0
2, 532679, Note_on_c, 0, 59, 72
2, 532679, Note_on_c, 0, 62, 71
2, 532679, Note_on_c, 0, 66, 73
2, 532679, Note_on_c, 0, 54, 33
2, 532679, Note_on_c, 0, 57, 31
2, 532789, Note_on_c, 0, 57, 0
2, 532789, Note_on_c, 0, 66, 0
2, 532789, Note_on_c, 0, 59, 0
2, 532789, Note_on_c, 0, 62, 0
2, 532789, Note_on_c, 0, 54, 0
2, 532800, Note_on_c, 0, 59, 111
2, 532800, Note_on_c, 0, 64, 109
2, 532800, Note_on_c, 0, 67, 113
2, 532800, Note_on_c, 0, 43, 65
2, 532800, Note_on_c, 0, 52, 62
2, 532800, Note_on_c, 0, 55, 63
2, 533039, Note_on_c, 0, 71, 92
2, 533039, Note_on_c, 0, 76, 95
2, 533039, Note_on_c, 0, 79, 93
2, 533039, Note_on_c, 0, 59, 38
2, 533039, Note_on_c, 0, 64, 39
2, 533039, Note_on_c, 0, 67, 38
2, 533149, Note_on_c, 0, 79, 0
2, 533149, Note_on_c, 0, 76, 0
2, 533149, Note_on_c, 0, 71, 0
2, 533149, Note_on_c, 0, 59, 0
2, 533149, Note_on_c, 0, 67, 0
2, 533149, Note_on_c, 0, 64, 0
2, 533160, Note_on_c, 0, 71, 122
2, 533160, Note_on_c, 0, 76, 121
2, 533160, Note_on_c, 0, 79, 120
2, 533160, Note_on_c, 0, 83, 122
2, 533160, Note_on_c, 0, 55, 67
2, 533160, Note_on_c, 0, 59, 65
2, 533160, Note_on_c, 0, 64, 66
2, 533160, Note_on_c, 0, 67, 66
2, 533450, Note_on_c, 0, 55, 0
2, 533450, Note_on_c, 0, 52, 0
2, 533450, Note_on_c, 0, 59, 0
2, 533450, Note_on_c, 0, 64, 0
2, 533450, Note_on_c, 0, 43, 0
2, 533450, Note_on_c, 0, 67, 0
2, 533735, Note_on_c, 0, 79, 0
2, 533735, Note_on_c, 0, 76, 0
2, 533735, Note_on_c, 0, 67, 0
2, 533735, Note_on_c, 0, 55, 0
2, 533735, Note_on_c, 0, 64, 0
2, 533735, Note_on_c, 0, 71, 0
2, 533735, Note_on_c, 0, 83, 0
2, 533735, Note_on_c, 0, 59, 0
2, 533759, Note_on_c, 0, 67, 85
2, 533759, Note_on_c, 0, 71, 87
2, 533759, Note_on_c, 0, 76, 88
2, 533759, Note_on_c, 0, 55, 40
2, 533759, Note_on_c, 0, 59, 39
2, 533759, Note_on_c, 0, 64, 40
2, 533869, Note_on_c, 0, 64, 0
2, 533869, Note_on_c, 0, 71, 0
2, 533869, Note_on_c, 0, 76, 0
2, 533869, Note_on_c, 0, 67, 0
2, 533869, Note_on_c, 0, 59, 0
2, 533869, Note_on_c, 0, 55, 0
2, 533880, Note_on_c, 0, 67, 109
2, 533880, Note_on_c, 0, 71, 107
2, 533880, Note_on_c, 0, 74, 109
2, 533880, Note_on_c, 0, 54, 60
2, 533880, Note_on_c, 0, 59, 64
2, 533880, Note_on_c, 0, 62, 64
2, 534095, Note_on_c, 0, 62, 0
2, 534095, Note_on_c, 0, 71, 0
2, 534095, Note_on_c, 0, 74, 0
2, 534095, Note_on_c, 0, 67, 0
2, 534095, Note_on_c, 0, 59, 0
2, 534095, Note_on_c, 0, 54, 0
2, 534119, Note_on_c, 0, 55, 75
2, 534119, Note_on_c, 0, 59, 74
2, 534119, Note_on_c, 0, 62, 71
2, 534119, Note_on_c, 0, 50, 32
2, 534119, Note_on_c, 0, 54, 31
2, 534229, Note_on_c, 0, 54, 0
2, 534229, Note_on_c, 0, 62, 0
2, 534229, Note_on_c, 0, 55, 0
2, 534229, Note_on_c, 0, 59, 0
2, 534229, Note_on_c, 0, 50, 0
2, 534240, Note_on_c, 0, 55, 122
2, 534240, Note_on_c, 0, 59, 122
2, 534240, Note_on_c, 0, 64, 122
2, 534240, Note_on_c, 0, 43, 66
2, 534240, Note_on_c, 0, 47, 62
2, 534240, Note_on_c, 0, 52, 63
2, 534455, Note_on_c, 0, 52, 0
2, 534455, Note_on_c, 0, 59, 0
2, 534455, Note_on_c, 0, 64, 0
2, 534455, Note_on_c, 0, 55, 0
2, 534455, Note_on_c, 0, 47, 0
2, 534455, Note_on_c, 0, 43, 0
2, 534479, Note_on_c, 0, 67, 122
2, 534479, Note_on_c, 0, 71, 122
2, 534479, Note_on_c, 0, 76, 122
2, 534479, Note_on_c, 0, 55, 55
2, 534479, Note_on_c, 0, 59, 56
2, 534479, Note_on_c, 0, 64, 53
2, 534589, Note_on_c, 0, 64, 0
2, 534589, Note_on_c, 0, 71, 0
2, 534589, Note_on_c, 0, 76, 0
2, 534589, Note_on_c, 0, 67, 0
2, 534589, Note_on_c, 0, 59, 0
2, 534589, Note_on_c, 0, 55, 0
2, 534600, Note_on_c, 0, 67, 118
2, 534600, Note_on_c, 0, 71, 121
2, 534600, Note_on_c, 0, 74, 120
2, 534600, Note_on_c, 0, 79, 122
2, 534600, Note_on_c, 0, 50, 43
2, 534600, Note_on_c, 0, 55, 40
2, 534600, Note_on_c, 0, 59, 42
2, 534600, Note_on_c, 0, 62, 42
2, 534777, Note_on_c, 0, 62, 0
2, 534777, Note_on_c, 0, 67, 0
2, 534777, Note_on_c, 0, 50, 0
2, 534777, Note_on_c, 0, 71, 0
2, 534777, Note_on_c, 0, 74, 0
2, 534777, Note_on_c, 0, 79, 0
2, 534777, Note_on_c, 0, 55, 0
2, 534777, Note_on_c, 0, 59, 0
2, 534960, Note_on_c, 0, 67, 106
2, 534960, Note_on_c, 0, 72, 106
2, 534960, Note_on_c, 0, 76, 108
2, 534960, Note_on_c, 0, 79, 109
2, 534960, Note_on_c, 0, 48, 39
2, 534960, Note_on_c, 0, 52, 38
2, 534960, Note_on_c, 0, 55, 41
2, 534960, Note_on_c, 0, 60, 42
2, 535137, Note_on_c, 0, 60, 0
2, 535137, Note_on_c, 0, 67, 0
2, 535137, Note_on_c, 0, 48, 0
2, 535137, Note_on_c, 0, 72, 0
2, 535137, Note_on_c, 0, 76, 0
2, 535137, Note_on_c, 0, 79, 0
2, 535137, Note_on_c, 0, 52, 0
2, 535137, Note_on_c, 0, 55, 0
2, 535320, Note_on_c, 0, 67, 107
2, 535320, Note_on_c, 0, 74, 107
2, 535320, Note_on_c, 0, 79, 107
2, 535320, Note_on_c, 0, 47, 42
2, 535320, Note_on_c, 0, 50, 42
2, 535320, Note_on_c, 0, 55, 39
2, 535320, Note_on_c, 0, 59, 39
2, 535497, Note_on_c, 0, 59, 0
2, 535497, Note_on_c, 0, 50, 0
2, 535497, Note_on_c, 0, 74, 0
2, 535497, Note_on_c, 0, 79, 0
2, 535497, Note_on_c, 0, 67, 0
2, 535497, Note_on_c, 0, 55, 0
2, 535497, Note_on_c, 0, 47, 0
2, 535680, Note_on_c, 0, 55, 111
2, 535680, Note_on_c, 0, 31, 62
2, 535680, Note_on_c, 0, 43, 61
2, 535919, Note_on_c, 0, 72, 92
2, 535919, Note_on_c, 0, 76, 94
2, 535919, Note_on_c, 0, 78, 93
2, 535919, Note_on_c, 0, 57, 39
2, 535919, Note_on_c, 0, 60, 39
2, 535919, Note_on_c, 0, 64, 37
2, 535919, Note_on_c, 0, 69, 40
2, 536029, Note_on_c, 0, 69, 0
2, 536029, Note_on_c, 0, 64, 0
2, 536029, Note_on_c, 0, 57, 0
2, 536029, Note_on_c, 0, 72, 0
2, 536029, Note_on_c, 0, 76, 0
2, 536029, Note_on_c, 0, 60, 0
2, 536029, Note_on_c, 0, 78, 0
2, 536040, Note_on_c, 0, 72, 122
2, 536040, Note_on_c, 0, 76, 122
2, 536040, Note_on_c, 0, 79, 122
2, 536040, Note_on_c, 0, 55, 61
2, 536040, Note_on_c, 0, 60, 64
2, 536040, Note_on_c, 0, 64, 63
2, 536040, Note_on_c, 0, 67, 62
2, 536330, Note_on_c, 0, 43, 0
2, 536330, Note_on_c, 0, 31, 0
2, 536330, Note_on_c, 0, 55, 0
2, 536615, Note_on_c, 0, 72, 0
2, 536615, Note_on_c, 0, 55, 0
2, 536615, Note_on_c, 0, 79, 0
2, 536615, Note_on_c, 0, 67, 0
2, 536615, Note_on_c, 0, 64, 0
2, 536615, Note_on_c, 0, 60, 0
2, 536615, Note_on_c, 0, 76, 0
2, 536639, Note_on_c, 0, 65, 93
2, 536639, Note_on_c, 0, 72, 91
2, 536639, Note_on_c, 0, 74, 90
2, 536639, Note_on_c, 0, 57, 34
2, 536639, Note_on_c, 0, 60, 36
2, 536749, Note_on_c, 0, 60, 0
2, 536749, Note_on_c, 0, 74, 0
2, 536749, Note_on_c, 0, 65, 0
2, 536749, Note_on_c, 0, 72, 0
2, 536749, Note_on_c, 0, 57, 0
2, 536760, Note_on_c, 0, 64, 122
2, 536760, Note_on_c, 0, 72, 122
2, 536760, Note_on_c, 0, 76, 121
2, 536760, Note_on_c, 0, 55, 65
2, 536760, Note_on_c, 0, 60, 66
2, 536975, Note_on_c, 0, 60, 0
2, 536975, Note_on_c, 0, 76, 0
2, 536975, Note_on_c, 0, 64, 0
2, 536975, Note_on_c, 0, 72, 0
2, 536975, Note_on_c, 0, 55, 0
2, 536999, Note_on_c, 0, 62, 91
2, 536999, Note_on_c, 0, 65, 93
2, 536999, Note_on_c, 0, 71, 93
2, 536999, Note_on_c, 0, 43, 38
2, 536999, Note_on_c, 0, 55, 36
2, 537109, Note_on_c, 0, 55, 0
2, 537109, Note_on_c, 0, 71, 0
2, 537109, Note_on_c, 0, 62, 0
2, 537109, Note_on_c, 0, 65, 0
2, 537109, Note_on_c, 0, 43, 0
2, 537120, Note_on_c, 0, 64, 103
2, 537120, Note_on_c, 0, 67, 104
2, 537120, Note_on_c, 0, 72, 104
2, 537120, Note_on_c, 0, 48, 70
2, 537120, Note_on_c, 0, 55, 68
2, 537335, Note_on_c, 0, 55, 0
2, 537335, Note_on_c, 0, 72, 0
2, 537335, Note_on_c, 0, 64, 0
2, 537335, Note_on_c, 0, 67, 0
2, 537335, Note_on_c, 0, 48, 0
2, 537359, Note_on_c, 0, 72, 76
2, 537469, Note_on_c, 0, 72, 0
2, 537480, Note_on_c, 0, 64, 72
2, 537480, Note_on_c, 0, 71, 75
2, 537480, Note_on_c, 0, 59, 42
2, 537480, Note_on_c, 0, 59, 38
2, 537588, Note_on_c, 0, 59, 0
2, 537588, Note_on_c, 0, 64, 0
2, 537588, Note_on_c, 0, 71, 0
2, 537600, Note_on_c, 0, 60, 52
2, 537600, Note_on_c, 0, 52, 31
2, 537695, Note_on_c, 0, 59, 0
2, 537708, Note_on_c, 0, 52, 0
2, 537708, Note_on_c, 0, 60, 0
2, 537719, Note_on_c, 0, 72, 91
2, 537719, Note_on_c, 0, 43, 29
2, 537829, Note_on_c, 0, 43, 0
2, 537829, Note_on_c, 0, 72, 0
2, 537840, Note_on_c, 0, 64, 77
2, 537840, Note_on_c, 0, 70, 77
2, 537840, Note_on_c, 0, 58, 56
2, 537840, Note_on_c, 0, 58, 42
2, 537948, Note_on_c, 0, 58, 0
2, 537948, Note_on_c, 0, 64, 0
2, 537948, Note_on_c, 0, 70, 0
2, 537960, Note_on_c, 0, 60, 55
2, 537960, Note_on_c, 0, 52, 37
2, 538055, Note_on_c, 0, 58, 0
2, 538068, Note_on_c, 0, 52, 0
2, 538068, Note_on_c, 0, 60, 0
2, 538079, Note_on_c, 0, 72, 91
2, 538079, Note_on_c, 0, 43, 32
2, 538189, Note_on_c, 0, 43, 0
2, 538189, Note_on_c, 0, 72, 0
2, 538200, Note_on_c, 0, 64, 72
2, 538200, Note_on_c, 0, 69, 75
2, 538200, Note_on_c, 0, 57, 58
2, 538200, Note_on_c, 0, 57, 40
2, 538308, Note_on_c, 0, 57, 0
2, 538308, Note_on_c, 0, 64, 0
2, 538308, Note_on_c, 0, 69, 0
2, 538320, Note_on_c, 0, 60, 56
2, 538320, Note_on_c, 0, 52, 39
2, 538428, Note_on_c, 0, 52, 0
2, 538428, Note_on_c, 0, 60, 0
2, 538439, Note_on_c, 0, 64, 122
2, 538439, Note_on_c, 0, 68, 122
2, 538439, Note_on_c, 0, 72, 122
2, 538439, Note_on_c, 0, 76, 122
2, 538439, Note_on_c, 0, 43, 73
2, 538439, Note_on_c, 0, 56, 72
2, 538525, Note_on_c, 0, 57, 0
2, 538549, Note_on_c, 0, 68, 0
2, 538549, Note_on_c, 0, 76, 0
2, 538549, Note_on_c, 0, 72, 0
2, 538549, Note_on_c, 0, 64, 0
2, 538549, Note_on_c, 0, 56, 0
2, 538560, Note_on_c, 0, 64, 93
2, 538560, Note_on_c, 0, 67, 94
2, 538560, Note_on_c, 0, 72, 95
2, 538560, Note_on_c, 0, 55, 66
2, 538668, Note_on_c, 0, 55, 0
2, 538668, Note_on_c, 0, 43, 0
2, 538680, Note_on_c, 0, 52, 38
2, 538775, Note_on_c, 0, 64, 0
2, 538775, Note_on_c, 0, 72, 0
2, 538775, Note_on_c, 0, 67, 0
2, 538788, Note_on_c, 0, 52, 0
2, 538799, Note_on_c, 0, 72, 74
2, 538799, Note_on_c, 0, 43, 29
2, 538909, Note_on_c, 0, 43, 0
2, 538909, Note_on_c, 0, 72, 0
2, 538920, Note_on_c, 0, 64, 75
2, 538920, Note_on_c, 0, 71, 74
2, 538920, Note_on_c, 0, 59, 58
2, 538920, Note_on_c, 0, 59, 46
2, 539028, Note_on_c, 0, 59, 0
2, 539028, Note_on_c, 0, 64, 0
2, 539028, Note_on_c, 0, 71, 0
2, 539040, Note_on_c, 0, 60, 51
2, 539040, Note_on_c, 0, 52, 35
2, 539135, Note_on_c, 0, 59, 0
2, 539148, Note_on_c, 0, 52, 0
2, 539148, Note_on_c, 0, 60, 0
2, 539159, Note_on_c, 0, 72, 92
2, 539159, Note_on_c, 0, 43, 31
2, 539269, Note_on_c, 0, 43, 0
2, 539269, Note_on_c, 0, 72, 0
2, 539280, Note_on_c, 0, 64, 75
2, 539280, Note_on_c, 0, 70, 77
2, 539280, Note_on_c, 0, 58, 58
2, 539280, Note_on_c, 0, 58, 42
2, 539388, Note_on_c, 0, 58, 0
2, 539388, Note_on_c, 0, 64, 0
2, 539388, Note_on_c, 0, 70, 0
2, 539400, Note_on_c, 0, 60, 58
2, 539400, Note_on_c, 0, 52, 36
2, 539495, Note_on_c, 0, 58, 0
2, 539508, Note_on_c, 0, 52, 0
2, 539508, Note_on_c, 0, 60, 0
2, 539519, Note_on_c, 0, 72, 93
2, 539519, Note_on_c, 0, 43, 33
2, 539629, Note_on_c, 0, 43, 0
2, 539629, Note_on_c, 0, 72, 0
2, 539640, Note_on_c, 0, 64, 74
2, 539640, Note_on_c, 0, 69, 74
2, 539640, Note_on_c, 0, 57, 56
2, 539640, Note_on_c, 0, 57, 40
2, 539748, Note_on_c, 0, 57, 0
2, 539748, Note_on_c, 0, 64, 0
2, 539748, Note_on_c, 0, 69, 0
2, 539760, Note_on_c, 0, 60, 58
2, 539760, Note_on_c, 0, 52, 36
2, 539868, Note_on_c, 0, 52, 0
2, 539868, Note_on_c, 0, 60, 0
2, 539879, Note_on_c, 0, 64, 122
2, 539879, Note_on_c, 0, 68, 122
2, 539879, Note_on_c, 0, 72, 122
2, 539879, Note_on_c, 0, 76, 122
2, 539879, Note_on_c, 0, 43, 74
2, 539879, Note_on_c, 0, 56, 72
2, 539965, Note_on_c, 0, 57, 0
2, 539989, Note_on_c, 0, 68, 0
2, 539989, Note_on_c, 0, 76, 0
2, 539989, Note_on_c, 0, 72, 0
2, 539989, Note_on_c, 0, 64, 0
2, 539989, Note_on_c, 0, 56, 0
2, 540000, Note_on_c, 0, 64, 96
2, 540000, Note_on_c, 0, 67, 95
2, 540000, Note_on_c, 0, 72, 95
2, 540000, Note_on_c, 0, 55, 68
2, 540108, Note_on_c, 0, 55, 0
2, 540108, Note_on_c, 0, 43, 0
2, 540120, Note_on_c, 0, 52, 38
2, 540215, Note_on_c, 0, 64, 0
2, 540215, Note_on_c, 0, 72, 0
2, 540215, Note_on_c, 0, 67, 0
2, 540228, Note_on_c, 0, 52, 0
2, 540239, Note_on_c, 0, 77, 85
2, 540239, Note_on_c, 0, 77, 67
2, 540239, Note_on_c, 0, 43, 33
2, 540349, Note_on_c, 0, 43, 0
2, 540349, Note_on_c, 0, 77, 0
2, 540349, Note_on_c, 0, 77, 0
2, 540360, Note_on_c, 0, 76, 75
2, 540360, Note_on_c, 0, 69, 57
2, 540360, Note_on_c, 0, 61, 56
2, 540360, Note_on_c, 0, 61, 47
2, 540468, Note_on_c, 0, 61, 0
2, 540468, Note_on_c, 0, 76, 0
2, 540480, Note_on_c, 0, 65, 52
2, 540480, Note_on_c, 0, 53, 36
2, 540575, Note_on_c, 0, 69, 0
2, 540575, Note_on_c, 0, 61, 0
2, 540588, Note_on_c, 0, 65, 0
2, 540588, Note_on_c, 0, 53, 0
2, 540599, Note_on_c, 0, 77, 94
2, 540599, Note_on_c, 0, 43, 29
2, 540709, Note_on_c, 0, 43, 0
2, 540709, Note_on_c, 0, 77, 0
2, 540720, Note_on_c, 0, 76, 79
2, 540720, Note_on_c, 0, 68, 67
2, 540720, Note_on_c, 0, 60, 55
2, 540720, Note_on_c, 0, 60, 41
2, 540828, Note_on_c, 0, 60, 0
2, 540828, Note_on_c, 0, 76, 0
2, 540840, Note_on_c, 0, 65, 55
2, 540840, Note_on_c, 0, 53, 34
2, 540935, Note_on_c, 0, 68, 0
2, 540935, Note_on_c, 0, 60, 0
2, 540948, Note_on_c, 0, 65, 0
2, 540948, Note_on_c, 0, 53, 0
2, 540959, Note_on_c, 0, 77, 91
2, 540959, Note_on_c, 0, 43, 29
2, 541069, Note_on_c, 0, 43, 0
2, 541069, Note_on_c, 0, 77, 0
2, 541080, Note_on_c, 0, 76, 78
2, 541080, Note_on_c, 0, 67, 69
2, 541080, Note_on_c, 0, 59, 56
2, 541080, Note_on_c, 0, 59, 39
2, 541188, Note_on_c, 0, 59, 0
2, 541188, Note_on_c, 0, 76, 0
2, 541200, Note_on_c, 0, 65, 53
2, 541200, Note_on_c, 0, 43, 31
2, 541308, Note_on_c, 0, 43, 0
2, 541308, Note_on_c, 0, 65, 0
2, 541319, Note_on_c, 0, 68, 121
2, 541319, Note_on_c, 0, 71, 121
2, 541319, Note_on_c, 0, 75, 122
2, 541319, Note_on_c, 0, 80, 120
2, 541319, Note_on_c, 0, 53, 85
2, 541319, Note_on_c, 0, 59, 87
2, 541405, Note_on_c, 0, 67, 0
2, 541405, Note_on_c, 0, 59, 0
2, 541429, Note_on_c, 0, 80, 0
2, 541429, Note_on_c, 0, 68, 0
2, 541429, Note_on_c, 0, 75, 0
2, 541429, Note_on_c, 0, 59, 0
2, 541429, Note_on_c, 0, 53, 0
2, 541429, Note_on_c, 0, 71, 0
2, 541440, Note_on_c, 0, 64, 84
2, 541440, Note_on_c, 0, 67, 87
2, 541440, Note_on_c, 0, 72, 87
2, 541440, Note_on_c, 0, 52, 77
2, 541440, Note_on_c, 0, 60, 76
2, 541548, Note_on_c, 0, 60, 0
2, 541548, Note_on_c, 0, 52, 0
2, 541560, Note_on_c, 0, 43, 31
2, 541655, Note_on_c, 0, 64, 0
2, 541655, Note_on_c, 0, 72, 0
2, 541655, Note_on_c, 0, 67, 0
2, 541668, Note_on_c, 0, 43, 0
2, 541679, Note_on_c, 0, 77, 82
2, 541679, Note_on_c, 0, 77, 93
2, 541789, Note_on_c, 0, 77, 0
2, 541789, Note_on_c, 0, 77, 0
2, 541800, Note_on_c, 0, 76, 77
2, 541800, Note_on_c, 0, 69, 62
2, 541800, Note_on_c, 0, 61, 42
2, 541800, Note_on_c, 0, 61, 44
2, 541908, Note_on_c, 0, 61, 0
2, 541908, Note_on_c, 0, 76, 0
2, 541920, Note_on_c, 0, 65, 55
2, 541920, Note_on_c, 0, 53, 31
2, 542015, Note_on_c, 0, 69, 0
2, 542015, Note_on_c, 0, 61, 0
2, 542028, Note_on_c, 0, 65, 0
2, 542028, Note_on_c, 0, 53, 0
2, 542039, Note_on_c, 0, 77, 93
2, 542039, Note_on_c, 0, 43, 30
2, 542149, Note_on_c, 0, 43, 0
2, 542149, Note_on_c, 0, 77, 0
2, 542160, Note_on_c, 0, 76, 76
2, 542160, Note_on_c, 0, 68, 67
2, 542160, Note_on_c, 0, 60, 57
2, 542160, Note_on_c, 0, 60, 43
2, 542268, Note_on_c, 0, 60, 0
2, 542268, Note_on_c, 0, 76, 0
2, 542280, Note_on_c, 0, 65, 54
2, 542280, Note_on_c, 0, 53, 37
2, 542375, Note_on_c, 0, 68, 0
2, 542375, Note_on_c, 0, 60, 0
2, 542388, Note_on_c, 0, 65, 0
2, 542388, Note_on_c, 0, 53, 0
2, 542399, Note_on_c, 0, 77, 92
2, 542399, Note_on_c, 0, 43, 32
2, 542509, Note_on_c, 0, 43, 0
2, 542509, Note_on_c, 0, 77, 0
2, 542520, Note_on_c, 0, 76, 78
2, 542520, Note_on_c, 0, 67, 67
2, 542520, Note_on_c, 0, 59, 55
2, 542520, Note_on_c, 0, 59, 39
2, 542628, Note_on_c, 0, 59, 0
2, 542628, Note_on_c, 0, 76, 0
2, 542640, Note_on_c, 0, 65, 56
2, 542640, Note_on_c, 0, 43, 32
2, 542748, Note_on_c, 0, 43, 0
2, 542748, Note_on_c, 0, 65, 0
2, 542759, Note_on_c, 0, 68, 122
2, 542759, Note_on_c, 0, 71, 122
2, 542759, Note_on_c, 0, 75, 122
2, 542759, Note_on_c, 0, 80, 122
2, 542759, Note_on_c, 0, 53, 84
2, 542759, Note_on_c, 0, 59, 86
2, 542845, Note_on_c, 0, 67, 0
2, 542845, Note_on_c, 0, 59, 0
2, 542869, Note_on_c, 0, 80, 0
2, 542869, Note_on_c, 0, 68, 0
2, 542869, Note_on_c, 0, 75, 0
2, 542869, Note_on_c, 0, 59, 0
2, 542869, Note_on_c, 0, 53, 0
2, 542869, Note_on_c, 0, 71, 0
2, 542880, Note_on_c, 0, 67, 96
2, 542880, Note_on_c, 0, 72, 94
2, 542880, Note_on_c, 0, 76, 94
2, 542880, Note_on_c, 0, 52, 76
2, 542880, Note_on_c, 0, 60, 77
2, 543095, Note_on_c, 0, 60, 0
2, 543095, Note_on_c, 0, 52, 0
2, 543119, Note_on_c, 0, 55, 39
2, 543205, Note_on_c, 0, 67, 0
2, 543205, Note_on_c, 0, 76, 0
2, 543205, Note_on_c, 0, 72, 0
2, 543229, Note_on_c, 0, 55, 0
2, 543240, Note_on_c, 0, 75, 72
2, 543240, Note_on_c, 0, 75, 119
2, 543240, Note_on_c, 0, 63, 85
2, 543240, Note_on_c, 0, 68, 85
2, 543322, Note_on_c, 0, 75, 0
2, 543330, Note_on_c, 0, 70, 63
2, 543412, Note_on_c, 0, 70, 0
2, 543420, Note_on_c, 0, 71, 77
2, 543502, Note_on_c, 0, 71, 0
2, 543510, Note_on_c, 0, 80, 93
2, 543565, Note_on_c, 0, 75, 0
2, 543565, Note_on_c, 0, 68, 0
2, 543565, Note_on_c, 0, 63, 0
2, 543592, Note_on_c, 0, 80, 0
2, 543600, Note_on_c, 0, 72, 74
2, 543600, Note_on_c, 0, 76, 74
2, 543600, Note_on_c, 0, 64, 43
2, 543600, Note_on_c, 0, 67, 43
2, 543815, Note_on_c, 0, 67, 0
2, 543815, Note_on_c, 0, 64, 0
2, 543839, Note_on_c, 0, 60, 36
2, 543925, Note_on_c, 0, 76, 0
2, 543925, Note_on_c, 0, 72, 0
2, 543949, Note_on_c, 0, 60, 0
2, 543960, Note_on_c, 0, 78, 86
2, 543960, Note_on_c, 0, 78, 114
2, 543960, Note_on_c, 0, 66, 87
2, 543960, Note_on_c, 0, 72, 87
2, 544042, Note_on_c, 0, 78, 0
2, 544050, Note_on_c, 0, 74, 71
2, 544132, Note_on_c, 0, 74, 0
2, 544140, Note_on_c, 0, 75, 85
2, 544222, Note_on_c, 0, 75, 0
2, 544230, Note_on_c, 0, 84, 101
2, 544285, Note_on_c, 0, 78, 0
2, 544285, Note_on_c, 0, 66, 0
2, 544312, Note_on_c, 0, 84, 0
2, 544320, Note_on_c, 0, 76, 78
2, 544320, Note_on_c, 0, 79, 80
2, 544320, Note_on_c, 0, 67, 48
2, 544535, Note_on_c, 0, 67, 0
2, 544535, Note_on_c, 0, 72, 0
2, 544559, Note_on_c, 0, 64, 34
2, 544645, Note_on_c, 0, 79, 0
2, 544645, Note_on_c, 0, 76, 0
2, 544669, Note_on_c, 0, 64, 0
2, 544680, Note_on_c, 0, 83, 101
2, 544680, Note_on_c, 0, 83, 121
2, 544680, Note_on_c, 0, 64, 77
2, 544680, Note_on_c, 0, 67, 78
2, 544680, Note_on_c, 0, 71, 79
2, 544762, Note_on_c, 0, 83, 0
2, 544770, Note_on_c, 0, 76, 75
2, 544852, Note_on_c, 0, 76, 0
2, 544860, Note_on_c, 0, 79, 96
2, 544942, Note_on_c, 0, 79, 0
2, 544950, Note_on_c, 0, 88, 111
2, 545005, Note_on_c, 0, 67, 0
2, 545005, Note_on_c, 0, 71, 0
2, 545005, Note_on_c, 0, 83, 0
2, 545032, Note_on_c, 0, 88, 0
2, 545040, Note_on_c, 0, 79, 85
2, 545040, Note_on_c, 0, 84, 83
2, 545040, Note_on_c, 0, 67, 46
2, 545040, Note_on_c, 0, 72, 46
2, 545255, Note_on_c, 0, 72, 0
2, 545255, Note_on_c, 0, 84, 0
2, 545255, Note_on_c, 0, 64, 0
2, 545255, Note_on_c, 0, 79, 0
2, 545255, Note_on_c, 0, 67, 0
2, 545279, Note_on_c, 0, 76, 118
2, 545279, Note_on_c, 0, 79, 119
2, 545279, Note_on_c, 0, 84, 116
2, 545279, Note_on_c, 0, 88, 115
2, 545279, Note_on_c, 0, 52, 36
2, 545279, Note_on_c, 0, 55, 35
2, 545279, Note_on_c, 0, 60, 32
2, 545279, Note_on_c, 0, 64, 32
2, 545389, Note_on_c, 0, 64, 0
2, 545389, Note_on_c, 0, 76, 0
2, 545389, Note_on_c, 0, 52, 0
2, 545389, Note_on_c, 0, 79, 0
2, 545389, Note_on_c, 0, 84, 0
2, 545389, Note_on_c, 0, 88, 0
2, 545389, Note_on_c, 0, 55, 0
2, 545389, Note_on_c, 0, 60, 0
2, 545400, Note_on_c, 0, 74, 115
2, 545400, Note_on_c, 0, 79, 114
2, 545400, Note_on_c, 0, 83, 115
2, 545400, Note_on_c, 0, 86, 116
2, 545400, Note_on_c, 0, 52, 62
2, 545400, Note_on_c, 0, 55, 62
2, 545400, Note_on_c, 0, 59, 61
2, 545400, Note_on_c, 0, 62, 59
2, 545615, Note_on_c, 0, 62, 0
2, 545615, Note_on_c, 0, 74, 0
2, 545615, Note_on_c, 0, 52, 0
2, 545615, Note_on_c, 0, 79, 0
2, 545615, Note_on_c, 0, 83, 0
2, 545615, Note_on_c, 0, 86, 0
2, 545615, Note_on_c, 0, 55, 0
2, 545615, Note_on_c, 0, 59, 0
2, 545639, Note_on_c, 0, 64, 74
2, 545639, Note_on_c, 0, 67, 73
2, 545639, Note_on_c, 0, 71, 76
2, 545639, Note_on_c, 0, 74, 73
2, 545639, Note_on_c, 0, 31, 29
2, 545639, Note_on_c, 0, 43, 27
2, 545749, Note_on_c, 0, 43, 0
2, 545749, Note_on_c, 0, 67, 0
2, 545749, Note_on_c, 0, 71, 0
2, 545749, Note_on_c, 0, 64, 0
2, 545749, Note_on_c, 0, 31, 0
2, 545749, Note_on_c, 0, 74, 0
2, 545760, Note_on_c, 0, 64, 102
2, 545760, Note_on_c, 0, 69, 106
2, 545760, Note_on_c, 0, 72, 104
2, 545760, Note_on_c, 0, 76, 105
2, 545760, Note_on_c, 0, 52, 73
2, 545760, Note_on_c, 0, 57, 71
2, 545760, Note_on_c, 0, 60, 73
2, 545999, Note_on_c, 0, 81, 95
2, 545999, Note_on_c, 0, 84, 96
2, 545999, Note_on_c, 0, 88, 94
2, 545999, Note_on_c, 0, 64, 39
2, 545999, Note_on_c, 0, 69, 37
2, 545999, Note_on_c, 0, 72, 36
2, 546109, Note_on_c, 0, 88, 0
2, 546109, Note_on_c, 0, 84, 0
2, 546109, Note_on_c, 0, 72, 0
2, 546109, Note_on_c, 0, 64, 0
2, 546109, Note_on_c, 0, 81, 0
2, 546109, Note_on_c, 0, 69, 0
2, 546120, Note_on_c, 0, 81, 122
2, 546120, Note_on_c, 0, 84, 122
2, 546120, Note_on_c, 0, 88, 122
2, 546120, Note_on_c, 0, 93, 122
2, 546120, Note_on_c, 0, 60, 68
2, 546120, Note_on_c, 0, 64, 66
2, 546120, Note_on_c, 0, 69, 65
2, 546120, Note_on_c, 0, 72, 68
2, 546410, Note_on_c, 0, 76, 0
2, 546410, Note_on_c, 0, 52, 0
2, 546410, Note_on_c, 0, 57, 0
2, 546410, Note_on_c, 0, 64, 0
2, 546410, Note_on_c, 0, 69, 0
2, 546410, Note_on_c, 0, 72, 0
2, 546410, Note_on_c, 0, 60, 0
2, 546695, Note_on_c, 0, 84, 0
2, 546695, Note_on_c, 0, 81, 0
2, 546695, Note_on_c, 0, 93, 0
2, 546695, Note_on_c, 0, 60, 0
2, 546695, Note_on_c, 0, 69, 0
2, 546695, Note_on_c, 0, 72, 0
2, 546695, Note_on_c, 0, 88, 0
2, 546695, Note_on_c, 0, 64, 0
2, 546719, Note_on_c, 0, 72, 81
2, 546719, Note_on_c, 0, 76, 82
2, 546719, Note_on_c, 0, 81, 80
2, 546719, Note_on_c, 0, 84, 82
2, 546719, Note_on_c, 0, 52, 30
2, 546719, Note_on_c, 0, 57, 29
2, 546719, Note_on_c, 0, 60, 28
2, 546829, Note_on_c, 0, 60, 0
2, 546829, Note_on_c, 0, 52, 0
2, 546829, Note_on_c, 0, 76, 0
2, 546829, Note_on_c, 0, 81, 0
2, 546829, Note_on_c, 0, 72, 0
2, 546829, Note_on_c, 0, 57, 0
2, 546829, Note_on_c, 0, 84, 0
2, 546840, Note_on_c, 0, 71, 108
2, 546840, Note_on_c, 0, 76, 108
2, 546840, Note_on_c, 0, 79, 109
2, 546840, Note_on_c, 0, 83, 111
2, 546840, Note_on_c, 0, 52, 59
2, 546840, Note_on_c, 0, 55, 62
2, 546840, Note_on_c, 0, 59, 60
2, 547055, Note_on_c, 0, 59, 0
2, 547055, Note_on_c, 0, 52, 0
2, 547055, Note_on_c, 0, 76, 0
2, 547055, Note_on_c, 0, 79, 0
2, 547055, Note_on_c, 0, 71, 0
2, 547055, Note_on_c, 0, 55, 0
2, 547055, Note_on_c, 0, 83, 0
2, 547079, Note_on_c, 0, 60, 72
2, 547079, Note_on_c, 0, 64, 72
2, 547079, Note_on_c, 0, 67, 72
2, 547079, Note_on_c, 0, 71, 73
2, 547079, Note_on_c, 0, 31, 31
2, 547079, Note_on_c, 0, 43, 29
2, 547189, Note_on_c, 0, 43, 0
2, 547189, Note_on_c, 0, 64, 0
2, 547189, Note_on_c, 0, 67, 0
2, 547189, Note_on_c, 0, 60, 0
2, 547189, Note_on_c, 0, 31, 0
2, 547189, Note_on_c, 0, 71, 0
2, 547200, Note_on_c, 0, 60, 111
2, 547200, Note_on_c, 0, 64, 112
2, 547200, Note_on_c, 0, 69, 111
2, 547200, Note_on_c, 0, 72, 112
2, 547200, Note_on_c, 0, 52, 63
2, 547200, Note_on_c, 0, 57, 64
2, 547439, Note_on_c, 0, 76, 95
2, 547439, Note_on_c, 0, 81, 93
2, 547439, Note_on_c, 0, 84, 95
2, 547439, Note_on_c, 0, 60, 38
2, 547439, Note_on_c, 0, 64, 36
2, 547439, Note_on_c, 0, 69, 37
2, 547549, Note_on_c, 0, 84, 0
2, 547549, Note_on_c, 0, 81, 0
2, 547549, Note_on_c, 0, 76, 0
2, 547549, Note_on_c, 0, 60, 0
2, 547549, Note_on_c, 0, 69, 0
2, 547549, Note_on_c, 0, 64, 0
2, 547560, Note_on_c, 0, 76, 122
2, 547560, Note_on_c, 0, 81, 121
2, 547560, Note_on_c, 0, 84, 121
2, 547560, Note_on_c, 0, 88, 122
2, 547560, Note_on_c, 0, 57, 67
2, 547560, Note_on_c, 0, 60, 65
2, 547560, Note_on_c, 0, 64, 67
2, 547560, Note_on_c, 0, 69, 67
2, 547850, Note_on_c, 0, 57, 0
2, 547850, Note_on_c, 0, 52, 0
2, 547850, Note_on_c, 0, 60, 0
2, 547850, Note_on_c, 0, 64, 0
2, 547850, Note_on_c, 0, 72, 0
2, 547850, Note_on_c, 0, 69, 0
2, 548135, Note_on_c, 0, 84, 0
2, 548135, Note_on_c, 0, 81, 0
2, 548135, Note_on_c, 0, 69, 0
2, 548135, Note_on_c, 0, 57, 0
2, 548135, Note_on_c, 0, 64, 0
2, 548135, Note_on_c, 0, 76, 0
2, 548135, Note_on_c, 0, 88, 0
2, 548135, Note_on_c, 0, 60, 0
2, 548159, Note_on_c, 0, 72, 85
2, 548159, Note_on_c, 0, 76, 86
2, 548159, Note_on_c, 0, 81, 84
2, 548159, Note_on_c, 0, 60, 44
2, 548159, Note_on_c, 0, 64, 43
2, 548159, Note_on_c, 0, 69, 44
2, 548269, Note_on_c, 0, 69, 0
2, 548269, Note_on_c, 0, 76, 0
2, 548269, Note_on_c, 0, 81, 0
2, 548269, Note_on_c, 0, 72, 0
2, 548269, Note_on_c, 0, 64, 0
2, 548269, Note_on_c, 0, 60, 0
2, 548280, Note_on_c, 0, 72, 110
2, 548280, Note_on_c, 0, 76, 107
2, 548280, Note_on_c, 0, 79, 108
2, 548280, Note_on_c, 0, 59, 62
2, 548280, Note_on_c, 0, 64, 65
2, 548280, Note_on_c, 0, 67, 62
2, 548495, Note_on_c, 0, 67, 0
2, 548495, Note_on_c, 0, 76, 0
2, 548495, Note_on_c, 0, 79, 0
2, 548495, Note_on_c, 0, 72, 0
2, 548495, Note_on_c, 0, 64, 0
2, 548495, Note_on_c, 0, 59, 0
2, 548519, Note_on_c, 0, 60, 74
2, 548519, Note_on_c, 0, 64, 75
2, 548519, Note_on_c, 0, 67, 74
2, 548519, Note_on_c, 0, 52, 28
2, 548519, Note_on_c, 0, 55, 30
2, 548629, Note_on_c, 0, 55, 0
2, 548629, Note_on_c, 0, 67, 0
2, 548629, Note_on_c, 0, 60, 0
2, 548629, Note_on_c, 0, 64, 0
2, 548629, Note_on_c, 0, 52, 0
2, 548640, Note_on_c, 0, 57, 122
2, 548640, Note_on_c, 0, 60, 122
2, 548640, Note_on_c, 0, 64, 122
2, 548640, Note_on_c, 0, 69, 122
2, 548640, Note_on_c, 0, 43, 60
2, 548640, Note_on_c, 0, 48, 63
2, 548640, Note_on_c, 0, 52, 61
2, 548855, Note_on_c, 0, 52, 0
2, 548855, Note_on_c, 0, 43, 0
2, 548855, Note_on_c, 0, 60, 0
2, 548855, Note_on_c, 0, 64, 0
2, 548855, Note_on_c, 0, 57, 0
2, 548855, Note_on_c, 0, 48, 0
2, 548855, Note_on_c, 0, 69, 0
2, 548879, Note_on_c, 0, 72, 122
2, 548879, Note_on_c, 0, 76, 122
2, 548879, Note_on_c, 0, 81, 122
2, 548879, Note_on_c, 0, 60, 57
2, 548879, Note_on_c, 0, 64, 55
2, 548879, Note_on_c, 0, 69, 56
2, 548989, Note_on_c, 0, 69, 0
2, 548989, Note_on_c, 0, 76, 0
2, 548989, Note_on_c, 0, 81, 0
2, 548989, Note_on_c, 0, 72, 0
2, 548989, Note_on_c, 0, 64, 0
2, 548989, Note_on_c, 0, 60, 0
2, 549000, Note_on_c, 0, 72, 119
2, 549000, Note_on_c, 0, 76, 121
2, 549000, Note_on_c, 0, 79, 121
2, 549000, Note_on_c, 0, 84, 121
2, 549000, Note_on_c, 0, 55, 44
2, 549000, Note_on_c, 0, 60, 41
2, 549000, Note_on_c, 0, 64, 42
2, 549000, Note_on_c, 0, 67, 43
2, 549177, Note_on_c, 0, 67, 0
2, 549177, Note_on_c, 0, 72, 0
2, 549177, Note_on_c, 0, 55, 0
2, 549177, Note_on_c, 0, 76, 0
2, 549177, Note_on_c, 0, 79, 0
2, 549177, Note_on_c, 0, 84, 0
2, 549177, Note_on_c, 0, 60, 0
2, 549177, Note_on_c, 0, 64, 0
2, 549360, Note_on_c, 0, 72, 107
2, 549360, Note_on_c, 0, 74, 107
2, 549360, Note_on_c, 0, 81, 110
2, 549360, Note_on_c, 0, 84, 107
2, 549360, Note_on_c, 0, 54, 41
2, 549360, Note_on_c, 0, 57, 41
2, 549360, Note_on_c, 0, 62, 39
2, 549360, Note_on_c, 0, 66, 39
2, 549537, Note_on_c, 0, 66, 0
2, 549537, Note_on_c, 0, 72, 0
2, 549537, Note_on_c, 0, 54, 0
2, 549537, Note_on_c, 0, 74, 0
2, 549537, Note_on_c, 0, 81, 0
2, 549537, Note_on_c, 0, 84, 0
2, 549537, Note_on_c, 0, 57, 0
2, 549537, Note_on_c, 0, 62, 0
2, 549720, Note_on_c, 0, 72, 105
2, 549720, Note_on_c, 0, 79, 105
2, 549720, Note_on_c, 0, 84, 107
2, 549720, Note_on_c, 0, 52, 40
2, 549720, Note_on_c, 0, 55, 38
2, 549720, Note_on_c, 0, 60, 40
2, 549720, Note_on_c, 0, 64, 38
2, 549897, Note_on_c, 0, 64, 0
2, 549897, Note_on_c, 0, 55, 0
2, 549897, Note_on_c, 0, 79, 0
2, 549897, Note_on_c, 0, 84, 0
2, 549897, Note_on_c, 0, 72, 0
2, 549897, Note_on_c, 0, 60, 0
2, 549897, Note_on_c, 0, 52, 0
2, 550080, Note_on_c, 0, 54, 88
2, 550080, Note_on_c, 0, 60, 89
2, 550080, Note_on_c, 0, 62, 87
2, 550080, Note_on_c, 0, 38, 51
2, 550080, Note_on_c, 0, 45, 49
2, 550405, Note_on_c, 0, 45, 0
2, 550405, Note_on_c, 0, 62, 0
2, 550405, Note_on_c, 0, 54, 0
2, 550405, Note_on_c, 0, 60, 0
2, 550405, Note_on_c, 0, 38, 0
2, 550440, Note_on_c, 0, 72, 121
2, 550440, Note_on_c, 0, 84, 120
2, 550440, Note_on_c, 0, 74, 81
2, 550440, Note_on_c, 0, 78, 82
2, 550679, Note_on_c, 0, 54, 39
2, 550679, Note_on_c, 0, 54, 37
2, 550789, Note_on_c, 0, 54, 0
2, 550800, Note_on_c, 0, 72, 0
2, 550800, Note_on_c, 0, 72, 94
2, 550800, Note_on_c, 0, 62, 54
2, 550908, Note_on_c, 0, 62, 0
2, 550920, Note_on_c, 0, 60, 43
2, 550963, Note_on_c, 0, 84, 0
2, 550963, Note_on_c, 0, 72, 0
2, 550980, Note_on_c, 0, 71, 87
2, 550980, Note_on_c, 0, 83, 85
2, 551028, Note_on_c, 0, 60, 0
2, 551039, Note_on_c, 0, 50, 32
2, 551090, Note_on_c, 0, 74, 0
2, 551090, Note_on_c, 0, 78, 0
2, 551125, Note_on_c, 0, 54, 0
2, 551143, Note_on_c, 0, 83, 0
2, 551143, Note_on_c, 0, 71, 0
2, 551149, Note_on_c, 0, 50, 0
2, 551160, Note_on_c, 0, 69, 87
2, 551160, Note_on_c, 0, 81, 89
2, 551160, Note_on_c, 0, 72, 82
2, 551160, Note_on_c, 0, 76, 85
2, 551280, Note_on_c, 0, 55, 36
2, 551280, Note_on_c, 0, 55, 38
2, 551388, Note_on_c, 0, 55, 0
2, 551399, Note_on_c, 0, 60, 46
2, 551509, Note_on_c, 0, 60, 0
2, 551520, Note_on_c, 0, 69, 0
2, 551520, Note_on_c, 0, 69, 92
2, 551520, Note_on_c, 0, 64, 52
2, 551628, Note_on_c, 0, 64, 0
2, 551640, Note_on_c, 0, 60, 37
2, 551683, Note_on_c, 0, 81, 0
2, 551683, Note_on_c, 0, 69, 0
2, 551700, Note_on_c, 0, 67, 84
2, 551700, Note_on_c, 0, 79, 86
2, 551748, Note_on_c, 0, 60, 0
2, 551759, Note_on_c, 0, 50, 33
2, 551845, Note_on_c, 0, 55, 0
2, 551845, Note_on_c, 0, 76, 0
2, 551845, Note_on_c, 0, 72, 0
2, 551863, Note_on_c, 0, 79, 0
2, 551863, Note_on_c, 0, 67, 0
2, 551869, Note_on_c, 0, 50, 0
2, 551880, Note_on_c, 0, 66, 93
2, 551880, Note_on_c, 0, 78, 92
2, 551880, Note_on_c, 0, 72, 79
2, 552000, Note_on_c, 0, 57, 38
2, 552000, Note_on_c, 0, 57, 39
2, 552108, Note_on_c, 0, 57, 0
2, 552119, Note_on_c, 0, 60, 45
2, 552229, Note_on_c, 0, 60, 0
2, 552240, Note_on_c, 0, 66, 51
2, 552348, Note_on_c, 0, 66, 0
2, 552360, Note_on_c, 0, 60, 36
2, 552468, Note_on_c, 0, 60, 0
2, 552479, Note_on_c, 0, 50, 28
2, 552530, Note_on_c, 0, 72, 0
2, 552565, Note_on_c, 0, 57, 0
2, 552589, Note_on_c, 0, 50, 0
2, 552600, Note_on_c, 0, 66, 0
2, 552600, Note_on_c, 0, 78, 0
2, 552600, Note_on_c, 0, 76, 87
2, 552600, Note_on_c, 0, 72, 87
2, 552600, Note_on_c, 0, 67, 57
2, 552600, Note_on_c, 0, 67, 56
2, 552708, Note_on_c, 0, 67, 0
2, 552720, Note_on_c, 0, 60, 36
2, 552763, Note_on_c, 0, 76, 0
2, 552780, Note_on_c, 0, 79, 92
2, 552815, Note_on_c, 0, 67, 0
2, 552828, Note_on_c, 0, 60, 0
2, 552839, Note_on_c, 0, 59, 37
2, 552943, Note_on_c, 0, 79, 0
2, 552949, Note_on_c, 0, 59, 0
2, 552960, Note_on_c, 0, 78, 77
2, 552960, Note_on_c, 0, 66, 52
2, 552960, Note_on_c, 0, 66, 41
2, 553068, Note_on_c, 0, 66, 0
2, 553080, Note_on_c, 0, 60, 37
2, 553123, Note_on_c, 0, 78, 0
2, 553140, Note_on_c, 0, 76, 67
2, 553175, Note_on_c, 0, 66, 0
2, 553188, Note_on_c, 0, 60, 0
2, 553199, Note_on_c, 0, 57, 39
2, 553285, Note_on_c, 0, 72, 0
2, 553303, Note_on_c, 0, 76, 0
2, 553320, Note_on_c, 0, 66, 70
2, 553320, Note_on_c, 0, 78, 72
2, 553320, Note_on_c, 0, 72, 65
2, 553428, Note_on_c, 0, 57, 0
2, 553440, Note_on_c, 0, 59, 44
2, 553548, Note_on_c, 0, 59, 0
2, 553559, Note_on_c, 0, 57, 41
2, 553669, Note_on_c, 0, 57, 0
2, 553680, Note_on_c, 0, 60, 50
2, 553788, Note_on_c, 0, 60, 0
2, 553800, Note_on_c, 0, 57, 37
2, 553908, Note_on_c, 0, 57, 0
2, 553919, Note_on_c, 0, 50, 32
2, 553970, Note_on_c, 0, 66, 0
2, 553970, Note_on_c, 0, 72, 0
2, 553970, Note_on_c, 0, 78, 0
2, 554029, Note_on_c, 0, 50, 0
2, 554040, Note_on_c, 0, 76, 42
2, 554040, Note_on_c, 0, 64, 45
2, 554040, Note_on_c, 0, 72, 42
2, 554040, Note_on_c, 0, 55, 52
2, 554040, Note_on_c, 0, 55, 38
2, 554148, Note_on_c, 0, 55, 0
2, 554160, Note_on_c, 0, 45, 31
2, 554203, Note_on_c, 0, 76, 0
2, 554220, Note_on_c, 0, 78, 43
2, 554268, Note_on_c, 0, 45, 0
2, 554279, Note_on_c, 0, 38, 33
2, 554365, Note_on_c, 0, 55, 0
2, 554365, Note_on_c, 0, 64, 0
2, 554365, Note_on_c, 0, 72, 0
2, 554383, Note_on_c, 0, 78, 0
2, 554389, Note_on_c, 0, 38, 0
2, 554400, Note_on_c, 0, 74, 41
2, 554400, Note_on_c, 0, 62, 47
2, 554400, Note_on_c, 0, 72, 48
2, 554400, Note_on_c, 0, 54, 58
2, 554400, Note_on_c, 0, 54, 44
2, 554508, Note_on_c, 0, 54, 0
2, 554520, Note_on_c, 0, 45, 36
2, 554628, Note_on_c, 0, 45, 0
2, 554639, Note_on_c, 0, 38, 32
2, 554725, Note_on_c, 0, 54, 0
2, 554725, Note_on_c, 0, 72, 0
2, 554725, Note_on_c, 0, 74, 0
2, 554725, Note_on_c, 0, 62, 0
2, 554749, Note_on_c, 0, 38, 0
2, 554760, Note_on_c, 0, 72, 120
2, 554760, Note_on_c, 0, 84, 119
2, 554760, Note_on_c, 0, 74, 104
2, 554760, Note_on_c, 0, 78, 106
2, 554880, Note_on_c, 0, 54, 36
2, 554880, Note_on_c, 0, 54, 40
2, 554988, Note_on_c, 0, 54, 0
2, 554999, Note_on_c, 0, 60, 49
2, 555109, Note_on_c, 0, 60, 0
2, 555120, Note_on_c, 0, 72, 0
2, 555120, Note_on_c, 0, 72, 92
2, 555120, Note_on_c, 0, 62, 50
2, 555228, Note_on_c, 0, 62, 0
2, 555240, Note_on_c, 0, 60, 41
2, 555283, Note_on_c, 0, 84, 0
2, 555283, Note_on_c, 0, 72, 0
2, 555300, Note_on_c, 0, 71, 85
2, 555300, Note_on_c, 0, 83, 84
2, 555348, Note_on_c, 0, 60, 0
2, 555359, Note_on_c, 0, 50, 31
2, 555410, Note_on_c, 0, 74, 0
2, 555410, Note_on_c, 0, 78, 0
2, 555445, Note_on_c, 0, 54, 0
2, 555463, Note_on_c, 0, 83, 0
2, 555463, Note_on_c, 0, 71, 0
2, 555469, Note_on_c, 0, 50, 0
2, 555480, Note_on_c, 0, 69, 91
2, 555480, Note_on_c, 0, 81, 89
2, 555480, Note_on_c, 0, 72, 88
2, 555480, Note_on_c, 0, 76, 86
2, 555600, Note_on_c, 0, 55, 38
2, 555600, Note_on_c, 0, 55, 38
2, 555708, Note_on_c, 0, 55, 0
2, 555719, Note_on_c, 0, 60, 47
2, 555829, Note_on_c, 0, 60, 0
2, 555840, Note_on_c, 0, 69, 0
2, 555840, Note_on_c, 0, 69, 91
2, 555840, Note_on_c, 0, 64, 52
2, 555948, Note_on_c, 0, 64, 0
2, 555960, Note_on_c, 0, 60, 37
2, 556003, Note_on_c, 0, 81, 0
2, 556003, Note_on_c, 0, 69, 0
2, 556020, Note_on_c, 0, 67, 84
2, 556020, Note_on_c, 0, 79, 85
2, 556068, Note_on_c, 0, 60, 0
2, 556079, Note_on_c, 0, 50, 30
2, 556165, Note_on_c, 0, 55, 0
2, 556165, Note_on_c, 0, 76, 0
2, 556165, Note_on_c, 0, 72, 0
2, 556183, Note_on_c, 0, 79, 0
2, 556183, Note_on_c, 0, 67, 0
2, 556189, Note_on_c, 0, 50, 0
2, 556200, Note_on_c, 0, 78, 92
2, 556200, Note_on_c, 0, 66, 78
2, 556200, Note_on_c, 0, 72, 80
2, 556320, Note_on_c, 0, 57, 37
2, 556320, Note_on_c, 0, 57, 36
2, 556428, Note_on_c, 0, 57, 0
2, 556439, Note_on_c, 0, 60, 48
2, 556549, Note_on_c, 0, 60, 0
2, 556560, Note_on_c, 0, 66, 53
2, 556668, Note_on_c, 0, 66, 0
2, 556680, Note_on_c, 0, 60, 36
2, 556723, Note_on_c, 0, 78, 0
2, 556740, Note_on_c, 0, 81, 99
2, 556788, Note_on_c, 0, 60, 0
2, 556799, Note_on_c, 0, 50, 29
2, 556850, Note_on_c, 0, 66, 0
2, 556850, Note_on_c, 0, 72, 0
2, 556885, Note_on_c, 0, 57, 0
2, 556903, Note_on_c, 0, 81, 0
2, 556909, Note_on_c, 0, 50, 0
2, 556920, Note_on_c, 0, 76, 82
2, 556920, Note_on_c, 0, 72, 90
2, 556920, Note_on_c, 0, 71, 57
2, 556920, Note_on_c, 0, 71, 55
2, 557028, Note_on_c, 0, 71, 0
2, 557040, Note_on_c, 0, 64, 36
2, 557083, Note_on_c, 0, 76, 0
2, 557100, Note_on_c, 0, 79, 93
2, 557135, Note_on_c, 0, 71, 0
2, 557148, Note_on_c, 0, 64, 0
2, 557159, Note_on_c, 0, 60, 38
2, 557263, Note_on_c, 0, 79, 0
2, 557269, Note_on_c, 0, 60, 0
2, 557280, Note_on_c, 0, 78, 103
2, 557280, Note_on_c, 0, 69, 53
2, 557280, Note_on_c, 0, 69, 41
2, 557388, Note_on_c, 0, 69, 0
2, 557400, Note_on_c, 0, 62, 35
2, 557443, Note_on_c, 0, 78, 0
2, 557460, Note_on_c, 0, 76, 70
2, 557495, Note_on_c, 0, 69, 0
2, 557508, Note_on_c, 0, 62, 0
2, 557519, Note_on_c, 0, 60, 37
2, 557605, Note_on_c, 0, 72, 0
2, 557623, Note_on_c, 0, 76, 0
2, 557640, Note_on_c, 0, 66, 73
2, 557640, Note_on_c, 0, 78, 73
2, 557640, Note_on_c, 0, 72, 71
2, 557748, Note_on_c, 0, 60, 0
2, 557760, Note_on_c, 0, 59, 39
2, 557868, Note_on_c, 0, 59, 0
2, 557879, Note_on_c, 0, 57, 40
2, 557989, Note_on_c, 0, 57, 0
2, 558000, Note_on_c, 0, 60, 47
2, 558108, Note_on_c, 0, 60, 0
2, 558120, Note_on_c, 0, 57, 40
2, 558228, Note_on_c, 0, 57, 0
2, 558239, Note_on_c, 0, 50, 33
2, 558290, Note_on_c, 0, 66, 0
2, 558290, Note_on_c, 0, 72, 0
2, 558290, Note_on_c, 0, 78, 0
2, 558349, Note_on_c, 0, 50, 0
2, 558360, Note_on_c, 0, 76, 48
2, 558360, Note_on_c, 0, 64, 46
2, 558360, Note_on_c, 0, 72, 50
2, 558360, Note_on_c, 0, 55, 49
2, 558360, Note_on_c, 0, 55, 36
2, 558468, Note_on_c, 0, 55, 0
2, 558480, Note_on_c, 0, 45, 31
2, 558523, Note_on_c, 0, 76, 0
2, 558540, Note_on_c, 0, 78, 43
2, 558588, Note_on_c, 0, 45, 0
2, 558599, Note_on_c, 0, 38, 31
2, 558685, Note_on_c, 0, 55, 0
2, 558685, Note_on_c, 0, 64, 0
2, 558685, Note_on_c, 0, 72, 0
2, 558703, Note_on_c, 0, 78, 0
2, 558709, Note_on_c, 0, 38, 0
2, 558720, Note_on_c, 0, 74, 42
2, 558720, Note_on_c, 0, 62, 48
2, 558720, Note_on_c, 0, 72, 48
2, 558720, Note_on_c, 0, 54, 57
2, 558720, Note_on_c, 0, 54, 44
2, 558828, Note_on_c, 0, 54, 0
2, 558840, Note_on_c, 0, 45, 34
2, 558883, Note_on_c, 0, 74, 0
2, 558900, Note_on_c, 0, 76, 46
2, 558948, Note_on_c, 0, 45, 0
2, 558959, Note_on_c, 0, 38, 33
2, 559045, Note_on_c, 0, 54, 0
2, 559045, Note_on_c, 0, 62, 0
2, 559045, Note_on_c, 0, 72, 0
2, 559063, Note_on_c, 0, 76, 0
2, 559069, Note_on_c, 0, 38, 0
2, 559080, Note_on_c, 0, 66, 60
2, 559080, Note_on_c, 0, 78, 60
2, 559080, Note_on_c, 0, 72, 48
2, 559080, Note_on_c, 0, 74, 44
2, 559200, Note_on_c, 0, 54, 38
2, 559308, Note_on_c, 0, 54, 0
2, 559319, Note_on_c, 0, 60, 47
2, 559429, Note_on_c, 0, 60, 0
2, 559440, Note_on_c, 0, 62, 52
2, 559548, Note_on_c, 0, 62, 0
2, 559560, Note_on_c, 0, 50, 31
2, 559603, Note_on_c, 0, 66, 0
2, 559603, Note_on_c, 0, 78, 0
2, 559620, Note_on_c, 0, 67, 69
2, 559620, Note_on_c, 0, 79, 69
2, 559668, Note_on_c, 0, 50, 0
2, 559679, Note_on_c, 0, 54, 47
2, 559730, Note_on_c, 0, 74, 0
2, 559730, Note_on_c, 0, 72, 0
2, 559783, Note_on_c, 0, 67, 0
2, 559783, Note_on_c, 0, 79, 0
2, 559789, Note_on_c, 0, 54, 0
2, 559800, Note_on_c, 0, 69, 85
2, 559800, Note_on_c, 0, 81, 88
2, 559800, Note_on_c, 0, 72, 67
2, 559800, Note_on_c, 0, 74, 64
2, 559800, Note_on_c, 0, 60, 54
2, 559908, Note_on_c, 0, 60, 0
2, 559920, Note_on_c, 0, 62, 45
2, 560028, Note_on_c, 0, 62, 0
2, 560039, Note_on_c, 0, 64, 45
2, 560125, Note_on_c, 0, 74, 0
2, 560125, Note_on_c, 0, 72, 0
2, 560149, Note_on_c, 0, 64, 0
2, 560160, Note_on_c, 0, 74, 87
2, 560160, Note_on_c, 0, 77, 89
2, 560160, Note_on_c, 0, 62, 47
2, 560160, Note_on_c, 0, 65, 49
2, 560323, Note_on_c, 0, 81, 0
2, 560323, Note_on_c, 0, 69, 0
2, 560340, Note_on_c, 0, 71, 97
2, 560340, Note_on_c, 0, 83, 93
2, 560340, Note_on_c, 0, 43, 40
2, 560340, Note_on_c, 0, 50, 38
2, 560485, Note_on_c, 0, 77, 0
2, 560485, Note_on_c, 0, 74, 0
2, 560503, Note_on_c, 0, 43, 0
2, 560503, Note_on_c, 0, 50, 0
2, 560503, Note_on_c, 0, 71, 0
2, 560503, Note_on_c, 0, 83, 0
2, 560520, Note_on_c, 0, 72, 101
2, 560520, Note_on_c, 0, 84, 100
2, 560520, Note_on_c, 0, 77, 103
2, 560520, Note_on_c, 0, 81, 104
2, 560520, Note_on_c, 0, 53, 51
2, 560628, Note_on_c, 0, 53, 0
2, 560640, Note_on_c, 0, 57, 48
2, 560748, Note_on_c, 0, 57, 0
2, 560759, Note_on_c, 0, 60, 48
2, 560880, Note_on_c, 0, 64, 43
2, 560988, Note_on_c, 0, 64, 0
2, 561000, Note_on_c, 0, 65, 45
2, 561043, Note_on_c, 0, 84, 0
2, 561043, Note_on_c, 0, 72, 0
2, 561060, Note_on_c, 0, 76, 100
2, 561060, Note_on_c, 0, 88, 102
2, 561108, Note_on_c, 0, 65, 0
2, 561119, Note_on_c, 0, 69, 46
2, 561170, Note_on_c, 0, 77, 0
2, 561170, Note_on_c, 0, 81, 0
2, 561205, Note_on_c, 0, 60, 0
2, 561223, Note_on_c, 0, 88, 0
2, 561223, Note_on_c, 0, 76, 0
2, 561229, Note_on_c, 0, 69, 0
2, 561240, Note_on_c, 0, 71, 81
2, 561240, Note_on_c, 0, 83, 83
2, 561240, Note_on_c, 0, 77, 87
2, 561240, Note_on_c, 0, 79, 89
2, 561240, Note_on_c, 0, 59, 39
2, 561240, Note_on_c, 0, 65, 43
2, 561348, Note_on_c, 0, 65, 0
2, 561360, Note_on_c, 0, 67, 46
2, 561403, Note_on_c, 0, 83, 0
2, 561403, Note_on_c, 0, 71, 0
2, 561420, Note_on_c, 0, 74, 96
2, 561420, Note_on_c, 0, 86, 97
2, 561468, Note_on_c, 0, 67, 0
2, 561479, Note_on_c, 0, 55, 29
2, 561530, Note_on_c, 0, 62, 0
2, 561530, Note_on_c, 0, 65, 0
2, 561565, Note_on_c, 0, 59, 0
2, 561565, Note_on_c, 0, 77, 0
2, 561565, Note_on_c, 0, 79, 0
2, 561583, Note_on_c, 0, 86, 0
2, 561583, Note_on_c, 0, 74, 0
2, 561589, Note_on_c, 0, 55, 0
2, 561600, Note_on_c, 0, 71, 86
2, 561600, Note_on_c, 0, 83, 84
2, 561600, Note_on_c, 0, 76, 85
2, 561720, Note_on_c, 0, 36, 38
2, 561720, Note_on_c, 0, 43, 38
2, 561763, Note_on_c, 0, 83, 0
2, 561763, Note_on_c, 0, 71, 0
2, 561780, Note_on_c, 0, 74, 98
2, 561780, Note_on_c, 0, 86, 100
2, 561828, Note_on_c, 0, 36, 0
2, 561828, Note_on_c, 0, 43, 0
2, 561839, Note_on_c, 0, 52, 53
2, 561925, Note_on_c, 0, 76, 0
2, 561943, Note_on_c, 0, 86, 0
2, 561943, Note_on_c, 0, 74, 0
2, 561949, Note_on_c, 0, 52, 0
2, 561960, Note_on_c, 0, 69, 83
2, 561960, Note_on_c, 0, 81, 82
2, 561960, Note_on_c, 0, 72, 90
2, 561960, Note_on_c, 0, 76, 89
2, 561960, Note_on_c, 0, 55, 51
2, 562068, Note_on_c, 0, 55, 0
2, 562080, Note_on_c, 0, 60, 52
2, 562188, Note_on_c, 0, 60, 0
2, 562199, Note_on_c, 0, 64, 51
2, 562309, Note_on_c, 0, 64, 0
2, 562320, Note_on_c, 0, 66, 51
2, 562428, Note_on_c, 0, 66, 0
2, 562440, Note_on_c, 0, 67, 46
2, 562483, Note_on_c, 0, 81, 0
2, 562483, Note_on_c, 0, 69, 0
2, 562500, Note_on_c, 0, 72, 99
2, 562500, Note_on_c, 0, 84, 99
2, 562548, Note_on_c, 0, 67, 0
2, 562559, Note_on_c, 0, 64, 41
2, 562610, Note_on_c, 0, 76, 0
2, 562610, Note_on_c, 0, 72, 0
2, 562663, Note_on_c, 0, 72, 0
2, 562663, Note_on_c, 0, 84, 0
2, 562669, Note_on_c, 0, 64, 0
2, 562680, Note_on_c, 0, 69, 85
2, 562680, Note_on_c, 0, 81, 87
2, 562680, Note_on_c, 0, 75, 86
2, 562680, Note_on_c, 0, 59, 39
2, 562788, Note_on_c, 0, 59, 0
2, 562800, Note_on_c, 0, 60, 45
2, 562843, Note_on_c, 0, 69, 0
2, 562843, Note_on_c, 0, 81, 0
2, 562860, Note_on_c, 0, 71, 90
2, 562860, Note_on_c, 0, 83, 92
2, 562908, Note_on_c, 0, 60, 0
2, 562919, Note_on_c, 0, 57, 36
2, 563005, Note_on_c, 0, 75, 0
2, 563023, Note_on_c, 0, 83, 0
2, 563023, Note_on_c, 0, 71, 0
2, 563029, Note_on_c, 0, 57, 0
2, 563040, Note_on_c, 0, 69, 78
2, 563040, Note_on_c, 0, 81, 77
2, 563040, Note_on_c, 0, 75, 82
2, 563040, Note_on_c, 0, 53, 42
2, 563040, Note_on_c, 0, 48, 31
2, 563148, Note_on_c, 0, 53, 0
2, 563160, Note_on_c, 0, 55, 45
2, 563203, Note_on_c, 0, 81, 0
2, 563203, Note_on_c, 0, 69, 0
2, 563220, Note_on_c, 0, 71, 77
2, 563220, Note_on_c, 0, 83, 81
2, 563268, Note_on_c, 0, 55, 0
2, 563279, Note_on_c, 0, 57, 46
2, 563365, Note_on_c, 0, 75, 0
2, 563383, Note_on_c, 0, 83, 0
2, 563383, Note_on_c, 0, 71, 0
2, 563389, Note_on_c, 0, 57, 0
2, 563400, Note_on_c, 0, 67, 67
2, 563400, Note_on_c, 0, 79, 68
2, 563400, Note_on_c, 0, 76, 73
2, 563400, Note_on_c, 0, 55, 41
2, 563508, Note_on_c, 0, 55, 0
2, 563520, Note_on_c, 0, 60, 49
2, 563628, Note_on_c, 0, 60, 0
2, 563639, Note_on_c, 0, 64, 50
2, 563749, Note_on_c, 0, 64, 0
2, 563760, Note_on_c, 0, 67, 52
2, 563868, Note_on_c, 0, 67, 0
2, 563923, Note_on_c, 0, 67, 0
2, 563923, Note_on_c, 0, 79, 0
2, 563940, Note_on_c, 0, 71, 57
2, 563940, Note_on_c, 0, 83, 61
2, 563999, Note_on_c, 0, 48, 36
2, 564050, Note_on_c, 0, 76, 0
2, 564085, Note_on_c, 0, 48, 0
2, 564103, Note_on_c, 0, 83, 0
2, 564103, Note_on_c, 0, 71, 0
2, 564109, Note_on_c, 0, 48, 0
2, 564120, Note_on_c, 0, 69, 46
2, 564120, Note_on_c, 0, 81, 48
2, 564120, Note_on_c, 0, 74, 47
2, 564120, Note_on_c, 0, 47, 43
2, 564120, Note_on_c, 0, 47, 38
2, 564228, Note_on_c, 0, 47, 0
2, 564240, Note_on_c, 0, 55, 50
2, 564283, Note_on_c, 0, 81, 0
2, 564283, Note_on_c, 0, 69, 0
2, 564300, Note_on_c, 0, 71, 44
2, 564300, Note_on_c, 0, 83, 43
2, 564348, Note_on_c, 0, 55, 0
2, 564359, Note_on_c, 0, 62, 51
2, 564445, Note_on_c, 0, 47, 0
2, 564445, Note_on_c, 0, 74, 0
2, 564463, Note_on_c, 0, 71, 0
2, 564463, Note_on_c, 0, 83, 0
2, 564469, Note_on_c, 0, 62, 0
2, 564480, Note_on_c, 0, 67, 64
2, 564480, Note_on_c, 0, 79, 64
2, 564480, Note_on_c, 0, 73, 36
2, 564480, Note_on_c, 0, 45, 71
2, 564480, Note_on_c, 0, 52, 68
2, 564480, Note_on_c, 0, 61, 72
2, 564805, Note_on_c, 0, 61, 0
2, 564805, Note_on_c, 0, 79, 0
2, 564805, Note_on_c, 0, 73, 0
2, 564805, Note_on_c, 0, 67, 0
2, 564805, Note_on_c, 0, 52, 0
2, 564805, Note_on_c, 0, 45, 0
2, 564840, Note_on_c, 0, 79, 121
2, 564840, Note_on_c, 0, 85, 122
2, 564840, Note_on_c, 0, 91, 122
2, 564960, Note_on_c, 0, 57, 39
2, 564960, Note_on_c, 0, 57, 36
2, 565068, Note_on_c, 0, 57, 0
2, 565079, Note_on_c, 0, 61, 48
2, 565189, Note_on_c, 0, 61, 0
2, 565200, Note_on_c, 0, 79, 0
2, 565200, Note_on_c, 0, 79, 94
2, 565200, Note_on_c, 0, 67, 53
2, 565308, Note_on_c, 0, 67, 0
2, 565320, Note_on_c, 0, 61, 36
2, 565363, Note_on_c, 0, 85, 0
2, 565363, Note_on_c, 0, 79, 0
2, 565363, Note_on_c, 0, 91, 0
2, 565380, Note_on_c, 0, 78, 88
2, 565380, Note_on_c, 0, 90, 87
2, 565428, Note_on_c, 0, 61, 0
2, 565439, Note_on_c, 0, 52, 31
2, 565525, Note_on_c, 0, 57, 0
2, 565543, Note_on_c, 0, 90, 0
2, 565543, Note_on_c, 0, 78, 0
2, 565549, Note_on_c, 0, 52, 0
2, 565560, Note_on_c, 0, 76, 91
2, 565560, Note_on_c, 0, 79, 91
2, 565560, Note_on_c, 0, 83, 91
2, 565560, Note_on_c, 0, 88, 90
2, 565680, Note_on_c, 0, 59, 40
2, 565680, Note_on_c, 0, 59, 37
2, 565788, Note_on_c, 0, 59, 0
2, 565799, Note_on_c, 0, 62, 44
2, 565909, Note_on_c, 0, 62, 0
2, 565920, Note_on_c, 0, 67, 51
2, 566028, Note_on_c, 0, 67, 0
2, 566040, Note_on_c, 0, 62, 38
2, 566083, Note_on_c, 0, 88, 0
2, 566083, Note_on_c, 0, 76, 0
2, 566083, Note_on_c, 0, 83, 0
2, 566083, Note_on_c, 0, 79, 0
2, 566100, Note_on_c, 0, 74, 84
2, 566100, Note_on_c, 0, 86, 84
2, 566148, Note_on_c, 0, 62, 0
2, 566159, Note_on_c, 0, 52, 29
2, 566245, Note_on_c, 0, 59, 0
2, 566263, Note_on_c, 0, 86, 0
2, 566263, Note_on_c, 0, 74, 0
2, 566269, Note_on_c, 0, 52, 0
2, 566280, Note_on_c, 0, 73, 91
2, 566280, Note_on_c, 0, 79, 93
2, 566280, Note_on_c, 0, 85, 93
2, 566400, Note_on_c, 0, 61, 39
2, 566400, Note_on_c, 0, 61, 39
2, 566508, Note_on_c, 0, 61, 0
2, 566519, Note_on_c, 0, 64, 45
2, 566629, Note_on_c, 0, 64, 0
2, 566640, Note_on_c, 0, 67, 51
2, 566748, Note_on_c, 0, 67, 0
2, 566760, Note_on_c, 0, 64, 40
2, 566868, Note_on_c, 0, 64, 0
2, 566879, Note_on_c, 0, 57, 34
2, 566965, Note_on_c, 0, 61, 0
2, 566989, Note_on_c, 0, 57, 0
2, 567000, Note_on_c, 0, 73, 0
2, 567000, Note_on_c, 0, 79, 0
2, 567000, Note_on_c, 0, 85, 0
2, 567000, Note_on_c, 0, 71, 85
2, 567000, Note_on_c, 0, 79, 88
2, 567000, Note_on_c, 0, 83, 88
2, 567000, Note_on_c, 0, 66, 53
2, 567000, Note_on_c, 0, 66, 47
2, 567108, Note_on_c, 0, 66, 0
2, 567120, Note_on_c, 0, 67, 44
2, 567163, Note_on_c, 0, 83, 0
2, 567163, Note_on_c, 0, 71, 0
2, 567163, Note_on_c, 0, 79, 0
2, 567180, Note_on_c, 0, 74, 97
2, 567180, Note_on_c, 0, 86, 97
2, 567215, Note_on_c, 0, 66, 0
2, 567228, Note_on_c, 0, 67, 0
2, 567239, Note_on_c, 0, 62, 36
2, 567343, Note_on_c, 0, 74, 0
2, 567343, Note_on_c, 0, 86, 0
2, 567349, Note_on_c, 0, 62, 0
2, 567360, Note_on_c, 0, 73, 92
2, 567360, Note_on_c, 0, 85, 91
2, 567360, Note_on_c, 0, 79, 85
2, 567360, Note_on_c, 0, 64, 49
2, 567360, Note_on_c, 0, 64, 42
2, 567468, Note_on_c, 0, 64, 0
2, 567480, Note_on_c, 0, 67, 47
2, 567523, Note_on_c, 0, 85, 0
2, 567523, Note_on_c, 0, 73, 0
2, 567540, Note_on_c, 0, 71, 84
2, 567540, Note_on_c, 0, 83, 86
2, 567575, Note_on_c, 0, 64, 0
2, 567588, Note_on_c, 0, 67, 0
2, 567599, Note_on_c, 0, 62, 35
2, 567703, Note_on_c, 0, 71, 0
2, 567703, Note_on_c, 0, 83, 0
2, 567709, Note_on_c, 0, 62, 0
2, 567720, Note_on_c, 0, 73, 104
2, 567720, Note_on_c, 0, 85, 103
2, 567720, Note_on_c, 0, 61, 43
2, 567720, Note_on_c, 0, 61, 37
2, 567828, Note_on_c, 0, 61, 0
2, 567840, Note_on_c, 0, 55, 34
2, 567948, Note_on_c, 0, 55, 0
2, 567959, Note_on_c, 0, 54, 38
2, 568069, Note_on_c, 0, 54, 0
2, 568080, Note_on_c, 0, 55, 45
2, 568188, Note_on_c, 0, 55, 0
2, 568200, Note_on_c, 0, 52, 38
2, 568308, Note_on_c, 0, 52, 0
2, 568319, Note_on_c, 0, 45, 35
2, 568370, Note_on_c, 0, 79, 0
2, 568370, Note_on_c, 0, 61, 0
2, 568429, Note_on_c, 0, 45, 0
2, 568440, Note_on_c, 0, 85, 0
2, 568440, Note_on_c, 0, 73, 0
2, 568440, Note_on_c, 0, 71, 44
2, 568440, Note_on_c, 0, 83, 42
2, 568440, Note_on_c, 0, 79, 91
2, 568440, Note_on_c, 0, 59, 58
2, 568440, Note_on_c, 0, 59, 37
2, 568548, Note_on_c, 0, 59, 0
2, 568560, Note_on_c, 0, 54, 38
2, 568603, Note_on_c, 0, 83, 0
2, 568603, Note_on_c, 0, 71, 0
2, 568620, Note_on_c, 0, 73, 43
2, 568620, Note_on_c, 0, 85, 45
2, 568668, Note_on_c, 0, 54, 0
2, 568679, Note_on_c, 0, 52, 40
2, 568765, Note_on_c, 0, 59, 0
2, 568765, Note_on_c, 0, 79, 0
2, 568783, Note_on_c, 0, 73, 0
2, 568783, Note_on_c, 0, 85, 0
2, 568789, Note_on_c, 0, 52, 0
2, 568800, Note_on_c, 0, 69, 68
2, 568800, Note_on_c, 0, 73, 70
2, 568800, Note_on_c, 0, 79, 70
2, 568800, Note_on_c, 0, 81, 68
2, 568800, Note_on_c, 0, 61, 55
2, 568800, Note_on_c, 0, 61, 49
2, 568908, Note_on_c, 0, 61, 0
2, 568920, Note_on_c, 0, 52, 34
2, 568963, Note_on_c, 0, 81, 0
2, 568963, Note_on_c, 0, 69, 0
2, 568963, Note_on_c, 0, 79, 0
2, 568963, Note_on_c, 0, 73, 0
2, 569028, Note_on_c, 0, 52, 0
2, 569039, Note_on_c, 0, 45, 32
2, 569125, Note_on_c, 0, 61, 0
2, 569149, Note_on_c, 0, 45, 0
2, 569160, Note_on_c, 0, 79, 86
2, 569160, Note_on_c, 0, 81, 86
2, 569160, Note_on_c, 0, 85, 85
2, 569160, Note_on_c, 0, 91, 87
2, 569160, Note_on_c, 0, 33, 30
2, 569375, Note_on_c, 0, 33, 0
2, 569399, Note_on_c, 0, 57, 40
2, 569399, Note_on_c, 0, 57, 53
2, 569509, Note_on_c, 0, 57, 0
2, 569520, Note_on_c, 0, 79, 0
2, 569520, Note_on_c, 0, 81, 0
2, 569520, Note_on_c, 0, 79, 90
2, 569520, Note_on_c, 0, 81, 90
2, 569520, Note_on_c, 0, 67, 57
2, 569628, Note_on_c, 0, 67, 0
2, 569640, Note_on_c, 0, 61, 36
2, 569683, Note_on_c, 0, 85, 0
2, 569683, Note_on_c, 0, 79, 0
2, 569683, Note_on_c, 0, 91, 0
2, 569683, Note_on_c, 0, 81, 0
2, 569700, Note_on_c, 0, 78, 87
2, 569700, Note_on_c, 0, 90, 87
2, 569748, Note_on_c, 0, 61, 0
2, 569759, Note_on_c, 0, 52, 30
2, 569845, Note_on_c, 0, 57, 0
2, 569863, Note_on_c, 0, 90, 0
2, 569863, Note_on_c, 0, 78, 0
2, 569869, Note_on_c, 0, 52, 0
2, 569880, Note_on_c, 0, 76, 88
2, 569880, Note_on_c, 0, 79, 91
2, 569880, Note_on_c, 0, 83, 90
2, 569880, Note_on_c, 0, 88, 88
2, 570000, Note_on_c, 0, 59, 37
2, 570000, Note_on_c, 0, 59, 36
2, 570108, Note_on_c, 0, 59, 0
2, 570119, Note_on_c, 0, 62, 45
2, 570229, Note_on_c, 0, 62, 0
2, 570240, Note_on_c, 0, 67, 51
2, 570348, Note_on_c, 0, 67, 0
2, 570360, Note_on_c, 0, 62, 36
2, 570403, Note_on_c, 0, 88, 0
2, 570403, Note_on_c, 0, 76, 0
2, 570403, Note_on_c, 0, 83, 0
2, 570403, Note_on_c, 0, 79, 0
2, 570420, Note_on_c, 0, 74, 87
2, 570420, Note_on_c, 0, 86, 86
2, 570468, Note_on_c, 0, 62, 0
2, 570479, Note_on_c, 0, 52, 29
2, 570565, Note_on_c, 0, 59, 0
2, 570583, Note_on_c, 0, 86, 0
2, 570583, Note_on_c, 0, 74, 0
2, 570589, Note_on_c, 0, 52, 0
2, 570600, Note_on_c, 0, 73, 91
2, 570600, Note_on_c, 0, 79, 90
2, 570600, Note_on_c, 0, 85, 93
2, 570720, Note_on_c, 0, 61, 40
2, 570720, Note_on_c, 0, 61, 37
2, 570828, Note_on_c, 0, 61, 0
2, 570839, Note_on_c, 0, 64, 48
2, 570949, Note_on_c, 0, 64, 0
2, 570960, Note_on_c, 0, 67, 48
2, 571068, Note_on_c, 0, 67, 0
2, 571080, Note_on_c, 0, 64, 41
2, 571140, Note_on_c, 0, 85, 0
2, 571140, Note_on_c, 0, 73, 0
2, 571140, Note_on_c, 0, 79, 0
2, 571140, Note_on_c, 0, 76, 105
2, 571140, Note_on_c, 0, 88, 104
2, 571188, Note_on_c, 0, 64, 0
2, 571199, Note_on_c, 0, 57, 33
2, 571285, Note_on_c, 0, 61, 0
2, 571309, Note_on_c, 0, 57, 0
2, 571320, Note_on_c, 0, 76, 0
2, 571320, Note_on_c, 0, 88, 0
2, 571320, Note_on_c, 0, 71, 83
2, 571320, Note_on_c, 0, 79, 81
2, 571320, Note_on_c, 0, 83, 83
2, 571320, Note_on_c, 0, 66, 56
2, 571320, Note_on_c, 0, 66, 51
2, 571428, Note_on_c, 0, 66, 0
2, 571440, Note_on_c, 0, 67, 46
2, 571483, Note_on_c, 0, 83, 0
2, 571483, Note_on_c, 0, 71, 0
2, 571483, Note_on_c, 0, 79, 0
2, 571500, Note_on_c, 0, 74, 99
2, 571500, Note_on_c, 0, 86, 97
2, 571535, Note_on_c, 0, 66, 0
2, 571548, Note_on_c, 0, 67, 0
2, 571559, Note_on_c, 0, 62, 36
2, 571663, Note_on_c, 0, 74, 0
2, 571663, Note_on_c, 0, 86, 0
2, 571669, Note_on_c, 0, 62, 0
2, 571680, Note_on_c, 0, 73, 90
2, 571680, Note_on_c, 0, 85, 91
2, 571680, Note_on_c, 0, 79, 93
2, 571680, Note_on_c, 0, 64, 48
2, 571680, Note_on_c, 0, 64, 44
2, 571788, Note_on_c, 0, 64, 0
2, 571800, Note_on_c, 0, 67, 48
2, 571843, Note_on_c, 0, 85, 0
2, 571843, Note_on_c, 0, 73, 0
2, 571860, Note_on_c, 0, 71, 84
2, 571860, Note_on_c, 0, 83, 86
2, 571908, Note_on_c, 0, 67, 0
2, 571919, Note_on_c, 0, 57, 32
2, 572023, Note_on_c, 0, 71, 0
2, 572023, Note_on_c, 0, 83, 0
2, 572040, Note_on_c, 0, 73, 103
2, 572040, Note_on_c, 0, 85, 101
2, 572255, Note_on_c, 0, 57, 0
2, 572279, Note_on_c, 0, 52, 35
2, 572389, Note_on_c, 0, 52, 0
2, 572400, Note_on_c, 0, 45, 35
2, 572508, Note_on_c, 0, 45, 0
2, 572520, Note_on_c, 0, 52, 48
2, 572628, Note_on_c, 0, 52, 0
2, 572639, Note_on_c, 0, 55, 47
2, 572690, Note_on_c, 0, 64, 0
2, 572690, Note_on_c, 0, 79, 0
2, 572749, Note_on_c, 0, 55, 0
2, 572760, Note_on_c, 0, 85, 0
2, 572760, Note_on_c, 0, 73, 0
2, 572760, Note_on_c, 0, 71, 45
2, 572760, Note_on_c, 0, 83, 44
2, 572760, Note_on_c, 0, 79, 90
2, 572760, Note_on_c, 0, 62, 55
2, 572760, Note_on_c, 0, 62, 40
2, 572868, Note_on_c, 0, 62, 0
2, 572880, Note_on_c, 0, 67, 51
2, 572923, Note_on_c, 0, 83, 0
2, 572923, Note_on_c, 0, 71, 0
2, 572940, Note_on_c, 0, 73, 46
2, 572940, Note_on_c, 0, 85, 44
2, 572975, Note_on_c, 0, 62, 0
2, 572988, Note_on_c, 0, 67, 0
2, 572999, Note_on_c, 0, 57, 31
2, 573085, Note_on_c, 0, 79, 0
2, 573103, Note_on_c, 0, 85, 0
2, 573103, Note_on_c, 0, 73, 0
2, 573109, Note_on_c, 0, 57, 0
2, 573120, Note_on_c, 0, 69, 39
2, 573120, Note_on_c, 0, 81, 39
2, 573120, Note_on_c, 0, 79, 45
2, 573120, Note_on_c, 0, 61, 49
2, 573120, Note_on_c, 0, 61, 43
2, 573228, Note_on_c, 0, 61, 0
2, 573240, Note_on_c, 0, 67, 48
2, 573283, Note_on_c, 0, 81, 0
2, 573283, Note_on_c, 0, 69, 0
2, 573300, Note_on_c, 0, 71, 45
2, 573300, Note_on_c, 0, 83, 43
2, 573348, Note_on_c, 0, 67, 0
2, 573359, Note_on_c, 0, 57, 32
2, 573445, Note_on_c, 0, 61, 0
2, 573445, Note_on_c, 0, 79, 0
2, 573463, Note_on_c, 0, 71, 0
2, 573463, Note_on_c, 0, 83, 0
2, 573469, Note_on_c, 0, 57, 0
2, 573480, Note_on_c, 0, 72, 77
2, 573480, Note_on_c, 0, 84, 81
2, 573480, Note_on_c, 0, 75, 37
2, 573480, Note_on_c, 0, 60, 49
2, 573480, Note_on_c, 0, 60, 39
2, 573588, Note_on_c, 0, 60, 0
2, 573600, Note_on_c, 0, 67, 53
2, 573708, Note_on_c, 0, 67, 0
2, 573719, Note_on_c, 0, 57, 32
2, 573805, Note_on_c, 0, 60, 0
2, 573829, Note_on_c, 0, 57, 0
2, 573840, Note_on_c, 0, 71, 58
2, 573840, Note_on_c, 0, 71, 56
2, 573948, Note_on_c, 0, 71, 0
2, 573960, Note_on_c, 0, 63, 37
2, 574003, Note_on_c, 0, 72, 0
2, 574003, Note_on_c, 0, 84, 0
2, 574020, Note_on_c, 0, 71, 71
2, 574020, Note_on_c, 0, 83, 71
2, 574068, Note_on_c, 0, 63, 0
2, 574079, Note_on_c, 0, 60, 38
2, 574130, Note_on_c, 0, 75, 0
2, 574165, Note_on_c, 0, 71, 0
2, 574183, Note_on_c, 0, 71, 0
2, 574183, Note_on_c, 0, 83, 0
2, 574189, Note_on_c, 0, 60, 0
2, 574200, Note_on_c, 0, 72, 96
2, 574200, Note_on_c, 0, 84, 96
2, 574200, Note_on_c, 0, 75, 82
2, 574200, Note_on_c, 0, 69, 57
2, 574200, Note_on_c, 0, 69, 40
2, 574308, Note_on_c, 0, 69, 0
2, 574320, Note_on_c, 0, 60, 35
2, 574428, Note_on_c, 0, 60, 0
2, 574439, Note_on_c, 0, 50, 28
2, 574525, Note_on_c, 0, 69, 0
2, 574525, Note_on_c, 0, 75, 0
2, 574549, Note_on_c, 0, 50, 0
2, 574560, Note_on_c, 0, 74, 74
2, 574560, Note_on_c, 0, 67, 56
2, 574560, Note_on_c, 0, 67, 43
2, 574668, Note_on_c, 0, 67, 0
2, 574680, Note_on_c, 0, 62, 39
2, 574723, Note_on_c, 0, 84, 0
2, 574723, Note_on_c, 0, 72, 0
2, 574740, Note_on_c, 0, 71, 72
2, 574740, Note_on_c, 0, 83, 72
2, 574788, Note_on_c, 0, 62, 0
2, 574799, Note_on_c, 0, 60, 38
2, 574885, Note_on_c, 0, 67, 0
2, 574885, Note_on_c, 0, 74, 0
2, 574903, Note_on_c, 0, 71, 0
2, 574903, Note_on_c, 0, 83, 0
2, 574909, Note_on_c, 0, 60, 0
2, 574920, Note_on_c, 0, 72, 84
2, 574920, Note_on_c, 0, 84, 84
2, 574920, Note_on_c, 0, 75, 77
2, 574920, Note_on_c, 0, 66, 52
2, 574920, Note_on_c, 0, 66, 42
2, 575028, Note_on_c, 0, 66, 0
2, 575040, Note_on_c, 0, 60, 36
2, 575148, Note_on_c, 0, 60, 0
2, 575159, Note_on_c, 0, 57, 35
2, 575245, Note_on_c, 0, 66, 0
2, 575245, Note_on_c, 0, 75, 0
2, 575269, Note_on_c, 0, 57, 0
2, 575280, Note_on_c, 0, 76, 78
2, 575280, Note_on_c, 0, 64, 53
2, 575280, Note_on_c, 0, 64, 38
2, 575388, Note_on_c, 0, 64, 0
2, 575400, Note_on_c, 0, 60, 40
2, 575443, Note_on_c, 0, 84, 0
2, 575443, Note_on_c, 0, 72, 0
2, 575460, Note_on_c, 0, 71, 70
2, 575460, Note_on_c, 0, 83, 72
2, 575508, Note_on_c, 0, 60, 0
2, 575519, Note_on_c, 0, 55, 35
2, 575605, Note_on_c, 0, 64, 0
2, 575605, Note_on_c, 0, 76, 0
2, 575623, Note_on_c, 0, 71, 0
2, 575623, Note_on_c, 0, 83, 0
2, 575629, Note_on_c, 0, 55, 0
2, 575640, Note_on_c, 0, 72, 65
2, 575640, Note_on_c, 0, 84, 65
2, 575640, Note_on_c, 0, 78, 80
2, 575640, Note_on_c, 0, 62, 54
2, 575640, Note_on_c, 0, 62, 37
2, 575748, Note_on_c, 0, 62, 0
2, 575760, Note_on_c, 0, 54, 34
2, 575803, Note_on_c, 0, 84, 0
2, 575803, Note_on_c, 0, 72, 0
2, 575820, Note_on_c, 0, 74, 45
2, 575820, Note_on_c, 0, 86, 46
2, 575868, Note_on_c, 0, 54, 0
2, 575879, Note_on_c, 0, 50, 36
2, 575965, Note_on_c, 0, 62, 0
2, 575965, Note_on_c, 0, 78, 0
2, 575983, Note_on_c, 0, 74, 0
2, 575983, Note_on_c, 0, 86, 0
2, 575989, Note_on_c, 0, 50, 0
2, 576000, Note_on_c, 0, 71, 43
2, 576000, Note_on_c, 0, 83, 41
2, 576000, Note_on_c, 0, 79, 49
2, 576000, Note_on_c, 0, 43, 36
2, 576108, Note_on_c, 0, 43, 0
2, 576120, Note_on_c, 0, 50, 49
2, 576163, Note_on_c, 0, 71, 0
2, 576163, Note_on_c, 0, 83, 0
2, 576180, Note_on_c, 0, 72, 31
2, 576228, Note_on_c, 0, 50, 0
2, 576239, Note_on_c, 0, 60, 53
2, 576325, Note_on_c, 0, 79, 0
2, 576343, Note_on_c, 0, 72, 0
2, 576349, Note_on_c, 0, 60, 0
2, 576360, Note_on_c, 0, 74, 45
2, 576360, Note_on_c, 0, 71, 36
2, 576360, Note_on_c, 0, 59, 47
2, 576360, Note_on_c, 0, 62, 49
2, 576468, Note_on_c, 0, 71, 0
2, 576480, Note_on_c, 0, 62, 31
2, 576588, Note_on_c, 0, 62, 0
2, 576599, Note_on_c, 0, 71, 53
2, 576685, Note_on_c, 0, 62, 0
2, 576685, Note_on_c, 0, 59, 0
2, 576709, Note_on_c, 0, 71, 0
2, 576720, Note_on_c, 0, 70, 49
2, 576720, Note_on_c, 0, 58, 39
2, 576720, Note_on_c, 0, 61, 43
2, 576828, Note_on_c, 0, 70, 0
2, 576840, Note_on_c, 0, 62, 36
2, 576935, Note_on_c, 0, 74, 0
2, 576948, Note_on_c, 0, 62, 0
2, 576959, Note_on_c, 0, 73, 47
2, 576959, Note_on_c, 0, 73, 64
2, 577045, Note_on_c, 0, 58, 0
2, 577045, Note_on_c, 0, 61, 0
2, 577069, Note_on_c, 0, 73, 0
2, 577069, Note_on_c, 0, 73, 0
2, 577080, Note_on_c, 0, 74, 54
2, 577080, Note_on_c, 0, 69, 52
2, 577080, Note_on_c, 0, 57, 39
2, 577080, Note_on_c, 0, 60, 40
2, 577188, Note_on_c, 0, 69, 0
2, 577200, Note_on_c, 0, 62, 41
2, 577308, Note_on_c, 0, 62, 0
2, 577319, Note_on_c, 0, 68, 63
2, 577405, Note_on_c, 0, 60, 0
2, 577405, Note_on_c, 0, 57, 0
2, 577429, Note_on_c, 0, 68, 0
2, 577440, Note_on_c, 0, 69, 64
2, 577440, Note_on_c, 0, 43, 33
2, 577548, Note_on_c, 0, 43, 0
2, 577548, Note_on_c, 0, 69, 0
2, 577560, Note_on_c, 0, 62, 47
2, 577560, Note_on_c, 0, 50, 49
2, 577655, Note_on_c, 0, 74, 0
2, 577668, Note_on_c, 0, 50, 0
2, 577668, Note_on_c, 0, 62, 0
2, 577679, Note_on_c, 0, 73, 54
2, 577679, Note_on_c, 0, 73, 73
2, 577679, Note_on_c, 0, 61, 55
2, 577789, Note_on_c, 0, 61, 0
2, 577789, Note_on_c, 0, 73, 0
2, 577789, Note_on_c, 0, 73, 0
2, 577800, Note_on_c, 0, 74, 61
2, 577800, Note_on_c, 0, 68, 59
2, 577800, Note_on_c, 0, 56, 43
2, 577800, Note_on_c, 0, 60, 43
2, 577908, Note_on_c, 0, 68, 0
2, 577920, Note_on_c, 0, 62, 52
2, 578028, Note_on_c, 0, 62, 0
2, 578039, Note_on_c, 0, 68, 73
2, 578125, Note_on_c, 0, 60, 0
2, 578125, Note_on_c, 0, 56, 0
2, 578149, Note_on_c, 0, 68, 0
2, 578160, Note_on_c, 0, 67, 66
2, 578160, Note_on_c, 0, 55, 39
2, 578160, Note_on_c, 0, 59, 41
2, 578268, Note_on_c, 0, 67, 0
2, 578280, Note_on_c, 0, 62, 57
2, 578375, Note_on_c, 0, 74, 0
2, 578399, Note_on_c, 0, 73, 64
2, 578399, Note_on_c, 0, 73, 89
2, 578485, Note_on_c, 0, 59, 0
2, 578485, Note_on_c, 0, 55, 0
2, 578509, Note_on_c, 0, 73, 0
2, 578509, Note_on_c, 0, 73, 0
2, 578520, Note_on_c, 0, 74, 70
2, 578520, Note_on_c, 0, 65, 63
2, 578520, Note_on_c, 0, 57, 43
2, 578520, Note_on_c, 0, 53, 37
2, 578628, Note_on_c, 0, 57, 0
2, 578640, Note_on_c, 0, 56, 38
2, 578683, Note_on_c, 0, 65, 0
2, 578683, Note_on_c, 0, 62, 0
2, 578683, Note_on_c, 0, 74, 0
2, 578700, Note_on_c, 0, 76, 74
2, 578700, Note_on_c, 0, 64, 69
2, 578748, Note_on_c, 0, 56, 0
2, 578759, Note_on_c, 0, 55, 42
2, 578845, Note_on_c, 0, 53, 0
2, 578863, Note_on_c, 0, 64, 0
2, 578863, Note_on_c, 0, 76, 0
2, 578869, Note_on_c, 0, 55, 0
2, 578880, Note_on_c, 0, 60, 64
2, 578880, Note_on_c, 0, 72, 67
2, 578880, Note_on_c, 0, 64, 77
2, 578880, Note_on_c, 0, 43, 39
2, 578880, Note_on_c, 0, 52, 39
2, 578988, Note_on_c, 0, 52, 0
2, 578988, Note_on_c, 0, 43, 0
2, 579000, Note_on_c, 0, 55, 46
2, 579043, Note_on_c, 0, 60, 0
2, 579043, Note_on_c, 0, 72, 0
2, 579060, Note_on_c, 0, 74, 75
2, 579108, Note_on_c, 0, 55, 0
2, 579119, Note_on_c, 0, 62, 51
2, 579205, Note_on_c, 0, 64, 0
2, 579223, Note_on_c, 0, 74, 0
2, 579229, Note_on_c, 0, 62, 0
2, 579240, Note_on_c, 0, 76, 79
2, 579240, Note_on_c, 0, 72, 99
2, 579240, Note_on_c, 0, 60, 49
2, 579240, Note_on_c, 0, 64, 46
2, 579348, Note_on_c, 0, 72, 0
2, 579360, Note_on_c, 0, 64, 66
2, 579468, Note_on_c, 0, 64, 0
2, 579479, Note_on_c, 0, 72, 97
2, 579565, Note_on_c, 0, 64, 0
2, 579565, Note_on_c, 0, 60, 0
2, 579589, Note_on_c, 0, 72, 0
2, 579600, Note_on_c, 0, 71, 86
2, 579600, Note_on_c, 0, 59, 42
2, 579600, Note_on_c, 0, 63, 40
2, 579708, Note_on_c, 0, 71, 0
2, 579720, Note_on_c, 0, 64, 70
2, 579815, Note_on_c, 0, 76, 0
2, 579828, Note_on_c, 0, 64, 0
2, 579839, Note_on_c, 0, 75, 76
2, 579839, Note_on_c, 0, 75, 109
2, 579925, Note_on_c, 0, 59, 0
2, 579925, Note_on_c, 0, 63, 0
2, 579949, Note_on_c, 0, 75, 0
2, 579949, Note_on_c, 0, 75, 0
2, 579960, Note_on_c, 0, 76, 83
2, 579960, Note_on_c, 0, 70, 83
2, 579960, Note_on_c, 0, 58, 38
2, 579960, Note_on_c, 0, 62, 40
2, 580068, Note_on_c, 0, 70, 0
2, 580080, Note_on_c, 0, 64, 74
2, 580188, Note_on_c, 0, 64, 0
2, 580199, Note_on_c, 0, 69, 100
2, 580285, Note_on_c, 0, 62, 0
2, 580285, Note_on_c, 0, 58, 0
2, 580309, Note_on_c, 0, 69, 0
2, 580320, Note_on_c, 0, 70, 104
2, 580320, Note_on_c, 0, 43, 33
2, 580428, Note_on_c, 0, 43, 0
2, 580428, Note_on_c, 0, 70, 0
2, 580440, Note_on_c, 0, 64, 81
2, 580440, Note_on_c, 0, 52, 52
2, 580535, Note_on_c, 0, 76, 0
2, 580548, Note_on_c, 0, 52, 0
2, 580548, Note_on_c, 0, 64, 0
2, 580559, Note_on_c, 0, 75, 85
2, 580559, Note_on_c, 0, 75, 119
2, 580559, Note_on_c, 0, 62, 55
2, 580669, Note_on_c, 0, 62, 0
2, 580669, Note_on_c, 0, 75, 0
2, 580669, Note_on_c, 0, 75, 0
2, 580680, Note_on_c, 0, 76, 94
2, 580680, Note_on_c, 0, 69, 88
2, 580680, Note_on_c, 0, 57, 42
2, 580680, Note_on_c, 0, 61, 45
2, 580788, Note_on_c, 0, 69, 0
2, 580800, Note_on_c, 0, 64, 84
2, 580908, Note_on_c, 0, 64, 0
2, 580919, Note_on_c, 0, 69, 112
2, 581005, Note_on_c, 0, 61, 0
2, 581005, Note_on_c, 0, 57, 0
2, 581029, Note_on_c, 0, 69, 0
2, 581040, Note_on_c, 0, 68, 103
2, 581040, Note_on_c, 0, 56, 41
2, 581040, Note_on_c, 0, 60, 42
2, 581148, Note_on_c, 0, 68, 0
2, 581160, Note_on_c, 0, 64, 91
2, 581255, Note_on_c, 0, 76, 0
2, 581279, Note_on_c, 0, 74, 88
2, 581279, Note_on_c, 0, 74, 122
2, 581365, Note_on_c, 0, 60, 0
2, 581365, Note_on_c, 0, 56, 0
2, 581389, Note_on_c, 0, 74, 0
2, 581389, Note_on_c, 0, 74, 0
2, 581400, Note_on_c, 0, 76, 109
2, 581400, Note_on_c, 0, 67, 94
2, 581400, Note_on_c, 0, 59, 42
2, 581400, Note_on_c, 0, 55, 39
2, 581508, Note_on_c, 0, 59, 0
2, 581520, Note_on_c, 0, 58, 39
2, 581563, Note_on_c, 0, 67, 0
2, 581563, Note_on_c, 0, 64, 0
2, 581563, Note_on_c, 0, 76, 0
2, 581580, Note_on_c, 0, 78, 108
2, 581580, Note_on_c, 0, 66, 103
2, 581628, Note_on_c, 0, 58, 0
2, 581639, Note_on_c, 0, 57, 41
2, 581725, Note_on_c, 0, 55, 0
2, 581743, Note_on_c, 0, 66, 0
2, 581743, Note_on_c, 0, 78, 0
2, 581749, Note_on_c, 0, 57, 0
2, 581760, Note_on_c, 0, 62, 84
2, 581760, Note_on_c, 0, 74, 84
2, 581760, Note_on_c, 0, 66, 108
2, 581760, Note_on_c, 0, 72, 108
2, 581760, Note_on_c, 0, 43, 36
2, 581760, Note_on_c, 0, 50, 36
2, 581868, Note_on_c, 0, 50, 0
2, 581868, Note_on_c, 0, 43, 0
2, 581880, Note_on_c, 0, 54, 46
2, 581923, Note_on_c, 0, 62, 0
2, 581923, Note_on_c, 0, 74, 0
2, 581940, Note_on_c, 0, 76, 94
2, 581988, Note_on_c, 0, 54, 0
2, 581999, Note_on_c, 0, 60, 51
2, 582085, Note_on_c, 0, 72, 0
2, 582085, Note_on_c, 0, 66, 0
2, 582103, Note_on_c, 0, 76, 0
2, 582109, Note_on_c, 0, 60, 0
2, 582120, Note_on_c, 0, 78, 98
2, 582120, Note_on_c, 0, 74, 103
2, 582120, Note_on_c, 0, 66, 50
2, 582120, Note_on_c, 0, 62, 49
2, 582228, Note_on_c, 0, 74, 0
2, 582240, Note_on_c, 0, 66, 74
2, 582348, Note_on_c, 0, 66, 0
2, 582359, Note_on_c, 0, 74, 105
2, 582445, Note_on_c, 0, 62, 0
2, 582445, Note_on_c, 0, 66, 0
2, 582469, Note_on_c, 0, 74, 0
2, 582480, Note_on_c, 0, 73, 90
2, 582480, Note_on_c, 0, 65, 42
2, 582480, Note_on_c, 0, 61, 42
2, 582588, Note_on_c, 0, 73, 0
2, 582600, Note_on_c, 0, 66, 72
2, 582695, Note_on_c, 0, 78, 0
2, 582708, Note_on_c, 0, 66, 0
2, 582719, Note_on_c, 0, 77, 85
2, 582719, Note_on_c, 0, 77, 112
2, 582805, Note_on_c, 0, 65, 0
2, 582805, Note_on_c, 0, 61, 0
2, 582829, Note_on_c, 0, 77, 0
2, 582829, Note_on_c, 0, 77, 0
2, 582840, Note_on_c, 0, 78, 95
2, 582840, Note_on_c, 0, 72, 84
2, 582840, Note_on_c, 0, 60, 41
2, 582840, Note_on_c, 0, 64, 39
2, 582840, Note_on_c, 0, 54, 36
2, 582948, Note_on_c, 0, 72, 0
2, 582960, Note_on_c, 0, 66, 75
2, 583068, Note_on_c, 0, 66, 0
2, 583079, Note_on_c, 0, 71, 101
2, 583165, Note_on_c, 0, 64, 0
2, 583165, Note_on_c, 0, 60, 0
2, 583189, Note_on_c, 0, 71, 0
2, 583200, Note_on_c, 0, 72, 100
2, 583200, Note_on_c, 0, 63, 39
2, 583308, Note_on_c, 0, 72, 0
2, 583320, Note_on_c, 0, 66, 76
2, 583415, Note_on_c, 0, 78, 0
2, 583428, Note_on_c, 0, 66, 0
2, 583439, Note_on_c, 0, 77, 88
2, 583439, Note_on_c, 0, 77, 111
2, 583549, Note_on_c, 0, 77, 0
2, 583549, Note_on_c, 0, 77, 0
2, 583560, Note_on_c, 0, 78, 92
2, 583560, Note_on_c, 0, 71, 81
2, 583560, Note_on_c, 0, 59, 38
2, 583668, Note_on_c, 0, 71, 0
2, 583680, Note_on_c, 0, 66, 75
2, 583788, Note_on_c, 0, 66, 0
2, 583799, Note_on_c, 0, 71, 102
2, 583850, Note_on_c, 0, 63, 0
2, 583850, Note_on_c, 0, 54, 0
2, 583885, Note_on_c, 0, 59, 0
2, 583885, Note_on_c, 0, 78, 0
2, 583909, Note_on_c, 0, 71, 0
2, 583920, Note_on_c, 0, 77, 91
2, 583920, Note_on_c, 0, 65, 80
2, 583920, Note_on_c, 0, 43, 35
2, 583920, Note_on_c, 0, 53, 35
2, 584028, Note_on_c, 0, 53, 0
2, 584028, Note_on_c, 0, 43, 0
2, 584028, Note_on_c, 0, 65, 0
2, 584040, Note_on_c, 0, 71, 103
2, 584040, Note_on_c, 0, 59, 49
2, 584135, Note_on_c, 0, 77, 0
2, 584148, Note_on_c, 0, 59, 0
2, 584148, Note_on_c, 0, 71, 0
2, 584159, Note_on_c, 0, 78, 95
2, 584159, Note_on_c, 0, 78, 111
2, 584159, Note_on_c, 0, 66, 51
2, 584269, Note_on_c, 0, 66, 0
2, 584269, Note_on_c, 0, 78, 0
2, 584269, Note_on_c, 0, 78, 0
2, 584280, Note_on_c, 0, 79, 97
2, 584280, Note_on_c, 0, 77, 92
2, 584280, Note_on_c, 0, 69, 47
2, 584280, Note_on_c, 0, 65, 53
2, 584388, Note_on_c, 0, 77, 0
2, 584400, Note_on_c, 0, 67, 70
2, 584508, Note_on_c, 0, 67, 0
2, 584519, Note_on_c, 0, 77, 108
2, 584605, Note_on_c, 0, 65, 0
2, 584605, Note_on_c, 0, 69, 0
2, 584629, Note_on_c, 0, 77, 0
2, 584640, Note_on_c, 0, 76, 92
2, 584640, Note_on_c, 0, 67, 38
2, 584640, Note_on_c, 0, 64, 40
2, 584748, Note_on_c, 0, 76, 0
2, 584760, Note_on_c, 0, 67, 69
2, 584855, Note_on_c, 0, 79, 0
2, 584868, Note_on_c, 0, 67, 0
2, 584879, Note_on_c, 0, 78, 87
2, 584879, Note_on_c, 0, 78, 113
2, 584965, Note_on_c, 0, 64, 0
2, 584965, Note_on_c, 0, 67, 0
2, 584989, Note_on_c, 0, 78, 0
2, 584989, Note_on_c, 0, 78, 0
2, 585000, Note_on_c, 0, 79, 94
2, 585000, Note_on_c, 0, 75, 87
2, 585000, Note_on_c, 0, 63, 40
2, 585000, Note_on_c, 0, 66, 41
2, 585000, Note_on_c, 0, 59, 37
2, 585108, Note_on_c, 0, 75, 0
2, 585120, Note_on_c, 0, 67, 71
2, 585228, Note_on_c, 0, 67, 0
2, 585239, Note_on_c, 0, 74, 104
2, 585325, Note_on_c, 0, 66, 0
2, 585325, Note_on_c, 0, 63, 0
2, 585349, Note_on_c, 0, 74, 0
2, 585360, Note_on_c, 0, 75, 101
2, 585360, Note_on_c, 0, 65, 41
2, 585468, Note_on_c, 0, 75, 0
2, 585480, Note_on_c, 0, 67, 75
2, 585575, Note_on_c, 0, 79, 0
2, 585588, Note_on_c, 0, 67, 0
2, 585599, Note_on_c, 0, 78, 87
2, 585599, Note_on_c, 0, 78, 114
2, 585709, Note_on_c, 0, 78, 0
2, 585709, Note_on_c, 0, 78, 0
2, 585720, Note_on_c, 0, 79, 95
2, 585720, Note_on_c, 0, 74, 86
2, 585720, Note_on_c, 0, 62, 47
2, 585828, Note_on_c, 0, 74, 0
2, 585840, Note_on_c, 0, 67, 33
2, 585948, Note_on_c, 0, 67, 0
2, 585959, Note_on_c, 0, 74, 52
2, 586010, Note_on_c, 0, 65, 0
2, 586010, Note_on_c, 0, 59, 0
2, 586045, Note_on_c, 0, 62, 0
2, 586045, Note_on_c, 0, 79, 0
2, 586069, Note_on_c, 0, 74, 0
2, 586080, Note_on_c, 0, 74, 51
2, 586080, Note_on_c, 0, 62, 47
2, 586080, Note_on_c, 0, 62, 49
2, 586188, Note_on_c, 0, 62, 0
2, 586200, Note_on_c, 0, 55, 34
2, 586308, Note_on_c, 0, 55, 0
2, 586319, Note_on_c, 0, 48, 33
2, 586429, Note_on_c, 0, 48, 0
2, 586440, Note_on_c, 0, 78, 39
2, 586440, Note_on_c, 0, 78, 44
2, 586548, Note_on_c, 0, 78, 0
2, 586560, Note_on_c, 0, 66, 29
2, 586668, Note_on_c, 0, 66, 0
2, 586679, Note_on_c, 0, 74, 48
2, 586789, Note_on_c, 0, 74, 0
2, 586800, Note_on_c, 0, 78, 0
2, 586800, Note_on_c, 0, 62, 0
2, 586800, Note_on_c, 0, 74, 0
2, 586800, Note_on_c, 0, 75, 50
2, 586800, Note_on_c, 0, 63, 51
2, 586800, Note_on_c, 0, 63, 41
2, 586908, Note_on_c, 0, 63, 0
2, 586920, Note_on_c, 0, 55, 31
2, 587028, Note_on_c, 0, 55, 0
2, 587039, Note_on_c, 0, 60, 47
2, 587149, Note_on_c, 0, 60, 0
2, 587160, Note_on_c, 0, 79, 44
2, 587160, Note_on_c, 0, 79, 46
2, 587268, Note_on_c, 0, 79, 0
2, 587280, Note_on_c, 0, 67, 29
2, 587388, Note_on_c, 0, 67, 0
2, 587399, Note_on_c, 0, 72, 49
2, 587509, Note_on_c, 0, 72, 0
2, 587520, Note_on_c, 0, 75, 0
2, 587520, Note_on_c, 0, 63, 0
2, 587520, Note_on_c, 0, 79, 0
2, 587520, Note_on_c, 0, 76, 57
2, 587520, Note_on_c, 0, 64, 56
2, 587520, Note_on_c, 0, 64, 42
2, 587628, Note_on_c, 0, 64, 0
2, 587640, Note_on_c, 0, 56, 32
2, 587748, Note_on_c, 0, 56, 0
2, 587759, Note_on_c, 0, 60, 47
2, 587869, Note_on_c, 0, 60, 0
2, 587880, Note_on_c, 0, 80, 47
2, 587880, Note_on_c, 0, 80, 48
2, 587988, Note_on_c, 0, 80, 0
2, 588000, Note_on_c, 0, 68, 31
2, 588108, Note_on_c, 0, 68, 0
2, 588119, Note_on_c, 0, 72, 53
2, 588229, Note_on_c, 0, 72, 0
2, 588240, Note_on_c, 0, 76, 0
2, 588240, Note_on_c, 0, 64, 0
2, 588240, Note_on_c, 0, 80, 0
2, 588240, Note_on_c, 0, 77, 58
2, 588240, Note_on_c, 0, 65, 50
2, 588240, Note_on_c, 0, 65, 43
2, 588348, Note_on_c, 0, 65, 0
2, 588360, Note_on_c, 0, 57, 31
2, 588468, Note_on_c, 0, 57, 0
2, 588479, Note_on_c, 0, 60, 47
2, 588589, Note_on_c, 0, 60, 0
2, 588600, Note_on_c, 0, 81, 50
2, 588600, Note_on_c, 0, 81, 49
2, 588708, Note_on_c, 0, 81, 0
2, 588720, Note_on_c, 0, 69, 35
2, 588828, Note_on_c, 0, 69, 0
2, 588839, Note_on_c, 0, 72, 56
2, 588949, Note_on_c, 0, 72, 0
2, 588960, Note_on_c, 0, 77, 0
2, 588960, Note_on_c, 0, 65, 0
2, 588960, Note_on_c, 0, 81, 0
2, 588960, Note_on_c, 0, 78, 63
2, 588960, Note_on_c, 0, 44, 31
2, 588960, Note_on_c, 0, 51, 31
2, 588960, Note_on_c, 0, 66, 40
2, 589068, Note_on_c, 0, 66, 0
2, 589080, Note_on_c, 0, 58, 32
2, 589116, Note_on_c, 0, 44, 0
2, 589116, Note_on_c, 0, 66, 60
2, 589188, Note_on_c, 0, 58, 0
2, 589199, Note_on_c, 0, 60, 45
2, 589309, Note_on_c, 0, 60, 0
2, 589320, Note_on_c, 0, 82, 54
2, 589320, Note_on_c, 0, 82, 54
2, 589428, Note_on_c, 0, 82, 0
2, 589440, Note_on_c, 0, 70, 41
2, 589548, Note_on_c, 0, 70, 0
2, 589559, Note_on_c, 0, 72, 57
2, 589669, Note_on_c, 0, 72, 0
2, 589680, Note_on_c, 0, 66, 0
2, 589680, Note_on_c, 0, 78, 0
2, 589680, Note_on_c, 0, 51, 0
2, 589680, Note_on_c, 0, 82, 0
2, 589680, Note_on_c, 0, 77, 57
2, 589680, Note_on_c, 0, 65, 47
2, 589680, Note_on_c, 0, 65, 43
2, 589788, Note_on_c, 0, 65, 0
2, 589800, Note_on_c, 0, 57, 32
2, 589908, Note_on_c, 0, 57, 0
2, 589919, Note_on_c, 0, 60, 43
2, 590029, Note_on_c, 0, 60, 0
2, 590040, Note_on_c, 0, 81, 58
2, 590040, Note_on_c, 0, 81, 57
2, 590148, Note_on_c, 0, 81, 0
2, 590160, Note_on_c, 0, 69, 42
2, 590268, Note_on_c, 0, 69, 0
2, 590279, Note_on_c, 0, 72, 66
2, 590389, Note_on_c, 0, 72, 0
2, 590400, Note_on_c, 0, 77, 0
2, 590400, Note_on_c, 0, 65, 0
2, 590400, Note_on_c, 0, 81, 0
2, 590400, Note_on_c, 0, 78, 72
2, 590400, Note_on_c, 0, 66, 53
2, 590400, Note_on_c, 0, 66, 41
2, 590508, Note_on_c, 0, 66, 0
2, 590520, Note_on_c, 0, 58, 32
2, 590628, Note_on_c, 0, 58, 0
2, 590639, Note_on_c, 0, 60, 44
2, 590749, Note_on_c, 0, 60, 0
2, 590760, Note_on_c, 0, 82, 58
2, 590760, Note_on_c, 0, 82, 58
2, 590868, Note_on_c, 0, 82, 0
2, 590880, Note_on_c, 0, 70, 44
2, 590988, Note_on_c, 0, 70, 0
2, 590999, Note_on_c, 0, 72, 66
2, 591109, Note_on_c, 0, 72, 0
2, 591120, Note_on_c, 0, 78, 0
2, 591120, Note_on_c, 0, 66, 0
2, 591120, Note_on_c, 0, 82, 0
2, 591120, Note_on_c, 0, 79, 73
2, 591120, Note_on_c, 0, 67, 52
2, 591120, Note_on_c, 0, 67, 42
2, 591228, Note_on_c, 0, 67, 0
2, 591240, Note_on_c, 0, 59, 30
2, 591348, Note_on_c, 0, 59, 0
2, 591359, Note_on_c, 0, 63, 45
2, 591469, Note_on_c, 0, 63, 0
2, 591480, Note_on_c, 0, 83, 62
2, 591480, Note_on_c, 0, 83, 63
2, 591588, Note_on_c, 0, 83, 0
2, 591600, Note_on_c, 0, 71, 47
2, 591708, Note_on_c, 0, 71, 0
2, 591719, Note_on_c, 0, 75, 75
2, 591829, Note_on_c, 0, 75, 0
2, 591840, Note_on_c, 0, 79, 0
2, 591840, Note_on_c, 0, 67, 0
2, 591840, Note_on_c, 0, 83, 0
2, 591840, Note_on_c, 0, 80, 79
2, 591840, Note_on_c, 0, 48, 32
2, 591840, Note_on_c, 0, 56, 31
2, 591840, Note_on_c, 0, 68, 42
2, 591940, Note_on_c, 0, 48, 0
2, 591940, Note_on_c, 0, 68, 61
2, 591948, Note_on_c, 0, 68, 0
2, 591960, Note_on_c, 0, 60, 32
2, 592068, Note_on_c, 0, 60, 0
2, 592079, Note_on_c, 0, 63, 45
2, 592189, Note_on_c, 0, 63, 0
2, 592200, Note_on_c, 0, 84, 68
2, 592200, Note_on_c, 0, 84, 65
2, 592308, Note_on_c, 0, 84, 0
2, 592320, Note_on_c, 0, 72, 51
2, 592428, Note_on_c, 0, 72, 0
2, 592439, Note_on_c, 0, 75, 79
2, 592549, Note_on_c, 0, 75, 0
2, 592560, Note_on_c, 0, 80, 0
2, 592560, Note_on_c, 0, 68, 0
2, 592560, Note_on_c, 0, 56, 0
2, 592560, Note_on_c, 0, 84, 0
2, 592560, Note_on_c, 0, 79, 72
2, 592560, Note_on_c, 0, 67, 48
2, 592560, Note_on_c, 0, 67, 40
2, 592668, Note_on_c, 0, 67, 0
2, 592680, Note_on_c, 0, 59, 33
2, 592788, Note_on_c, 0, 59, 0
2, 592799, Note_on_c, 0, 63, 48
2, 592909, Note_on_c, 0, 63, 0
2, 592920, Note_on_c, 0, 83, 92
2, 592920, Note_on_c, 0, 83, 68
2, 593028, Note_on_c, 0, 83, 0
2, 593040, Note_on_c, 0, 71, 56
2, 593148, Note_on_c, 0, 71, 0
2, 593159, Note_on_c, 0, 75, 81
2, 593269, Note_on_c, 0, 75, 0
2, 593280, Note_on_c, 0, 79, 0
2, 593280, Note_on_c, 0, 67, 0
2, 593280, Note_on_c, 0, 83, 0
2, 593280, Note_on_c, 0, 80, 82
2, 593280, Note_on_c, 0, 68, 56
2, 593280, Note_on_c, 0, 68, 40
2, 593388, Note_on_c, 0, 68, 0
2, 593400, Note_on_c, 0, 60, 32
2, 593508, Note_on_c, 0, 60, 0
2, 593519, Note_on_c, 0, 63, 46
2, 593629, Note_on_c, 0, 63, 0
2, 593640, Note_on_c, 0, 84, 74
2, 593640, Note_on_c, 0, 84, 73
2, 593748, Note_on_c, 0, 84, 0
2, 593760, Note_on_c, 0, 72, 56
2, 593868, Note_on_c, 0, 72, 0
2, 593879, Note_on_c, 0, 75, 84
2, 593989, Note_on_c, 0, 75, 0
2, 594000, Note_on_c, 0, 80, 0
2, 594000, Note_on_c, 0, 68, 0
2, 594000, Note_on_c, 0, 84, 0
2, 594000, Note_on_c, 0, 81, 85
2, 594000, Note_on_c, 0, 69, 52
2, 594000, Note_on_c, 0, 69, 40
2, 594108, Note_on_c, 0, 69, 0
2, 594120, Note_on_c, 0, 61, 31
2, 594228, Note_on_c, 0, 61, 0
2, 594239, Note_on_c, 0, 67, 47
2, 594349, Note_on_c, 0, 67, 0
2, 594360, Note_on_c, 0, 85, 76
2, 594360, Note_on_c, 0, 85, 72
2, 594468, Note_on_c, 0, 85, 0
2, 594480, Note_on_c, 0, 73, 58
2, 594588, Note_on_c, 0, 73, 0
2, 594599, Note_on_c, 0, 79, 95
2, 594709, Note_on_c, 0, 79, 0
2, 594720, Note_on_c, 0, 81, 0
2, 594720, Note_on_c, 0, 69, 0
2, 594720, Note_on_c, 0, 85, 0
2, 594720, Note_on_c, 0, 82, 93
2, 594720, Note_on_c, 0, 54, 35
2, 594720, Note_on_c, 0, 62, 32
2, 594720, Note_on_c, 0, 70, 40
2, 594762, Note_on_c, 0, 54, 0
2, 594762, Note_on_c, 0, 70, 56
2, 594828, Note_on_c, 0, 70, 0
2, 594840, Note_on_c, 0, 62, 33
2, 594948, Note_on_c, 0, 62, 0
2, 594959, Note_on_c, 0, 67, 45
2, 595069, Note_on_c, 0, 67, 0
2, 595080, Note_on_c, 0, 86, 79
2, 595080, Note_on_c, 0, 86, 75
2, 595188, Note_on_c, 0, 86, 0
2, 595200, Note_on_c, 0, 74, 61
2, 595308, Note_on_c, 0, 74, 0
2, 595319, Note_on_c, 0, 79, 99
2, 595429, Note_on_c, 0, 79, 0
2, 595440, Note_on_c, 0, 62, 0
2, 595440, Note_on_c, 0, 70, 0
2, 595440, Note_on_c, 0, 82, 0
2, 595440, Note_on_c, 0, 86, 0
2, 595440, Note_on_c, 0, 83, 93
2, 595440, Note_on_c, 0, 71, 51
2, 595440, Note_on_c, 0, 71, 40
2, 595548, Note_on_c, 0, 71, 0
2, 595560, Note_on_c, 0, 63, 34
2, 595668, Note_on_c, 0, 63, 0
2, 595679, Note_on_c, 0, 67, 45
2, 595789, Note_on_c, 0, 67, 0
2, 595800, Note_on_c, 0, 87, 84
2, 595800, Note_on_c, 0, 87, 80
2, 595908, Note_on_c, 0, 87, 0
2, 595920, Note_on_c, 0, 75, 64
2, 596028, Note_on_c, 0, 75, 0
2, 596039, Note_on_c, 0, 79, 100
2, 596149, Note_on_c, 0, 79, 0
2, 596160, Note_on_c, 0, 83, 0
2, 596160, Note_on_c, 0, 71, 0
2, 596160, Note_on_c, 0, 87, 0
2, 596160, Note_on_c, 0, 84, 98
2, 596160, Note_on_c, 0, 72, 54
2, 596160, Note_on_c, 0, 72, 41
2, 596268, Note_on_c, 0, 72, 0
2, 596280, Note_on_c, 0, 62, 30
2, 596388, Note_on_c, 0, 62, 0
2, 596399, Note_on_c, 0, 67, 46
2, 596509, Note_on_c, 0, 67, 0
2, 596520, Note_on_c, 0, 87, 89
2, 596520, Note_on_c, 0, 87, 81
2, 596628, Note_on_c, 0, 87, 0
2, 596640, Note_on_c, 0, 75, 65
2, 596748, Note_on_c, 0, 75, 0
2, 596759, Note_on_c, 0, 79, 104
2, 596869, Note_on_c, 0, 79, 0
2, 596880, Note_on_c, 0, 84, 0
2, 596880, Note_on_c, 0, 72, 0
2, 596880, Note_on_c, 0, 87, 0
2, 596880, Note_on_c, 0, 85, 101
2, 596880, Note_on_c, 0, 73, 51
2, 596880, Note_on_c, 0, 73, 41
2, 596988, Note_on_c, 0, 73, 0
2, 597000, Note_on_c, 0, 61, 27
2, 597108, Note_on_c, 0, 61, 0
2, 597119, Note_on_c, 0, 67, 50
2, 597229, Note_on_c, 0, 67, 0
2, 597240, Note_on_c, 0, 87, 94
2, 597240, Note_on_c, 0, 87, 85
2, 597348, Note_on_c, 0, 87, 0
2, 597360, Note_on_c, 0, 75, 71
2, 597468, Note_on_c, 0, 75, 0
2, 597479, Note_on_c, 0, 79, 106
2, 597589, Note_on_c, 0, 79, 0
2, 597600, Note_on_c, 0, 85, 0
2, 597600, Note_on_c, 0, 73, 0
2, 597600, Note_on_c, 0, 87, 0
2, 597600, Note_on_c, 0, 50, 34
2, 597600, Note_on_c, 0, 55, 34
2, 597600, Note_on_c, 0, 59, 36
2, 597600, Note_on_c, 0, 62, 34
2, 597925, Note_on_c, 0, 62, 0
2, 597925, Note_on_c, 0, 50, 0
2, 597925, Note_on_c, 0, 55, 0
2, 597925, Note_on_c, 0, 59, 0
2, 597960, Note_on_c, 0, 67, 82
2, 597960, Note_on_c, 0, 62, 51
2, 597960, Note_on_c, 0, 71, 52
2, 598068, Note_on_c, 0, 67, 0
2, 598080, Note_on_c, 0, 74, 108
2, 598188, Note_on_c, 0, 74, 0
2, 598199, Note_on_c, 0, 67, 76
2, 598309, Note_on_c, 0, 67, 0
2, 598320, Note_on_c, 0, 79, 118
2, 598428, Note_on_c, 0, 79, 0
2, 598440, Note_on_c, 0, 74, 83
2, 598535, Note_on_c, 0, 71, 0
2, 598535, Note_on_c, 0, 62, 0
2, 598548, Note_on_c, 0, 74, 0
2, 598559, Note_on_c, 0, 79, 104
2, 598559, Note_on_c, 0, 60, 39
2, 598559, Note_on_c, 0, 69, 41
2, 598669, Note_on_c, 0, 69, 0
2, 598669, Note_on_c, 0, 60, 0
2, 598669, Note_on_c, 0, 79, 0
2, 598680, Note_on_c, 0, 74, 84
2, 598680, Note_on_c, 0, 59, 44
2, 598680, Note_on_c, 0, 62, 42
2, 598680, Note_on_c, 0, 67, 41
2, 598788, Note_on_c, 0, 74, 0
2, 598800, Note_on_c, 0, 79, 101
2, 598908, Note_on_c, 0, 79, 0
2, 598919, Note_on_c, 0, 74, 77
2, 599029, Note_on_c, 0, 74, 0
2, 599040, Note_on_c, 0, 86, 120
2, 599148, Note_on_c, 0, 86, 0
2, 599160, Note_on_c, 0, 79, 79
2, 599255, Note_on_c, 0, 67, 0
2, 599255, Note_on_c, 0, 59, 0
2, 599255, Note_on_c, 0, 62, 0
2, 599268, Note_on_c, 0, 79, 0
2, 599279, Note_on_c, 0, 86, 105
2, 599279, Note_on_c, 0, 57, 40
2, 599279, Note_on_c, 0, 66, 39
2, 599389, Note_on_c, 0, 66, 0
2, 599389, Note_on_c, 0, 57, 0
2, 599389, Note_on_c, 0, 86, 0
2, 599400, Note_on_c, 0, 71, 70
2, 599400, Note_on_c, 0, 55, 39
2, 599400, Note_on_c, 0, 59, 41
2, 599400, Note_on_c, 0, 64, 37
2, 599508, Note_on_c, 0, 71, 0
2, 599520, Note_on_c, 0, 76, 97
2, 599628, Note_on_c, 0, 76, 0
2, 599639, Note_on_c, 0, 71, 78
2, 599749, Note_on_c, 0, 71, 0
2, 599760, Note_on_c, 0, 83, 116
2, 599868, Note_on_c, 0, 83, 0
2, 599880, Note_on_c, 0, 76, 79
2, 599975, Note_on_c, 0, 64, 0
2, 599975, Note_on_c, 0, 55, 0
2, 599975, Note_on_c, 0, 59, 0
2, 599988, Note_on_c, 0, 76, 0
2, 599999, Note_on_c, 0, 83, 107
2, 599999, Note_on_c, 0, 54, 41
2, 599999, Note_on_c, 0, 62, 40
2, 600109, Note_on_c, 0, 62, 0
2, 600109, Note_on_c, 0, 54, 0
2, 600109, Note_on_c, 0, 83, 0
2, 600120, Note_on_c, 0, 79, 84
2, 600120, Note_on_c, 0, 52, 41
2, 600120, Note_on_c, 0, 55, 40
2, 600120, Note_on_c, 0, 60, 43
2, 600228, Note_on_c, 0, 79, 0
2, 600240, Note_on_c, 0, 84, 104
2, 600348, Note_on_c, 0, 84, 0
2, 600359, Note_on_c, 0, 79, 77
2, 600469, Note_on_c, 0, 79, 0
2, 600480, Note_on_c, 0, 91, 117
2, 600588, Note_on_c, 0, 91, 0
2, 600600, Note_on_c, 0, 84, 78
2, 600695, Note_on_c, 0, 60, 0
2, 600695, Note_on_c, 0, 52, 0
2, 600695, Note_on_c, 0, 55, 0
2, 600708, Note_on_c, 0, 84, 0
2, 600719, Note_on_c, 0, 91, 106
2, 600719, Note_on_c, 0, 50, 39
2, 600719, Note_on_c, 0, 59, 39
2, 600829, Note_on_c, 0, 59, 0
2, 600829, Note_on_c, 0, 50, 0
2, 600829, Note_on_c, 0, 91, 0
2, 600840, Note_on_c, 0, 76, 72
2, 600840, Note_on_c, 0, 48, 40
2, 600840, Note_on_c, 0, 52, 39
2, 600840, Note_on_c, 0, 57, 37
2, 600948, Note_on_c, 0, 76, 0
2, 600960, Note_on_c, 0, 81, 99
2, 601068, Note_on_c, 0, 81, 0
2, 601079, Note_on_c, 0, 76, 77
2, 601189, Note_on_c, 0, 76, 0
2, 601200, Note_on_c, 0, 88, 116
2, 601308, Note_on_c, 0, 88, 0
2, 601320, Note_on_c, 0, 81, 76
2, 601415, Note_on_c, 0, 57, 0
2, 601415, Note_on_c, 0, 48, 0
2, 601415, Note_on_c, 0, 52, 0
2, 601428, Note_on_c, 0, 81, 0
2, 601439, Note_on_c, 0, 88, 105
2, 601439, Note_on_c, 0, 47, 40
2, 601439, Note_on_c, 0, 55, 41
2, 601549, Note_on_c, 0, 55, 0
2, 601549, Note_on_c, 0, 47, 0
2, 601549, Note_on_c, 0, 88, 0
2, 601560, Note_on_c, 0, 83, 71
2, 601560, Note_on_c, 0, 45, 41
2, 601560, Note_on_c, 0, 54, 41
2, 601668, Note_on_c, 0, 83, 0
2, 601680, Note_on_c, 0, 86, 94
2, 601775, Note_on_c, 0, 54, 0
2, 601775, Note_on_c, 0, 45, 0
2, 601788, Note_on_c, 0, 86, 0
2, 601799, Note_on_c, 0, 83, 81
2, 601799, Note_on_c, 0, 43, 40
2, 601799, Note_on_c, 0, 52, 38
2, 601909, Note_on_c, 0, 52, 0
2, 601909, Note_on_c, 0, 43, 0
2, 601909, Note_on_c, 0, 83, 0
2, 601920, Note_on_c, 0, 95, 118
2, 601920, Note_on_c, 0, 42, 43
2, 601920, Note_on_c, 0, 50, 42
2, 602028, Note_on_c, 0, 95, 0
2, 602040, Note_on_c, 0, 86, 73
2, 602148, Note_on_c, 0, 86, 0
2, 602159, Note_on_c, 0, 95, 107
2, 602245, Note_on_c, 0, 50, 0
2, 602245, Note_on_c, 0, 42, 0
2, 602269, Note_on_c, 0, 95, 0
2, 602280, Note_on_c, 0, 86, 75
2, 602280, Note_on_c, 0, 40, 40
2, 602280, Note_on_c, 0, 48, 38
2, 602388, Note_on_c, 0, 86, 0
2, 602400, Note_on_c, 0, 91, 100
2, 602457, Note_on_c, 0, 48, 0
2, 602457, Note_on_c, 0, 40, 0
2, 602508, Note_on_c, 0, 91, 0
2, 602519, Note_on_c, 0, 86, 78
2, 602629, Note_on_c, 0, 86, 0
2, 602640, Note_on_c, 0, 98, 119
2, 602640, Note_on_c, 0, 38, 40
2, 602640, Note_on_c, 0, 47, 42
2, 602748, Note_on_c, 0, 98, 0
2, 602760, Note_on_c, 0, 91, 79
2, 602817, Note_on_c, 0, 47, 0
2, 602817, Note_on_c, 0, 38, 0
2, 602868, Note_on_c, 0, 91, 0
2, 602879, Note_on_c, 0, 98, 106
2, 602989, Note_on_c, 0, 98, 0
2, 603000, Note_on_c, 0, 86, 70
2, 603000, Note_on_c, 0, 36, 40
2, 603000, Note_on_c, 0, 45, 39
2, 603108, Note_on_c, 0, 86, 0
2, 603120, Note_on_c, 0, 98, 114
2, 603228, Note_on_c, 0, 98, 0
2, 603239, Note_on_c, 0, 86, 69
2, 603325, Note_on_c, 0, 45, 0
2, 603325, Note_on_c, 0, 36, 0
2, 603349, Note_on_c, 0, 86, 0
2, 603360, Note_on_c, 0, 31, 43
2, 603360, Note_on_c, 0, 43, 39
2, 603599, Note_on_c, 0, 85, 94
2, 603599, Note_on_c, 0, 91, 96
2, 603599, Note_on_c, 0, 95, 93
2, 603599, Note_on_c, 0, 97, 94
2, 603599, Note_on_c, 0, 64, 39
2, 603599, Note_on_c, 0, 67, 37
2, 603599, Note_on_c, 0, 71, 37
2, 603599, Note_on_c, 0, 76, 38
2, 603709, Note_on_c, 0, 76, 0
2, 603709, Note_on_c, 0, 85, 0
2, 603709, Note_on_c, 0, 91, 0
2, 603709, Note_on_c, 0, 71, 0
2, 603709, Note_on_c, 0, 95, 0
2, 603709, Note_on_c, 0, 64, 0
2, 603709, Note_on_c, 0, 67, 0
2, 603709, Note_on_c, 0, 97, 0
2, 603720, Note_on_c, 0, 86, 109
2, 603720, Note_on_c, 0, 91, 108
2, 603720, Note_on_c, 0, 95, 110
2, 603720, Note_on_c, 0, 98, 109
2, 603720, Note_on_c, 0, 62, 40
2, 603720, Note_on_c, 0, 66, 40
2, 603720, Note_on_c, 0, 71, 39
2, 603720, Note_on_c, 0, 74, 38
2, 604295, Note_on_c, 0, 74, 0
2, 604295, Note_on_c, 0, 86, 0
2, 604295, Note_on_c, 0, 91, 0
2, 604295, Note_on_c, 0, 71, 0
2, 604295, Note_on_c, 0, 95, 0
2, 604295, Note_on_c, 0, 62, 0
2, 604295, Note_on_c, 0, 66, 0
2, 604295, Note_on_c, 0, 98, 0
2, 604319, Note_on_c, 0, 81, 92
2, 604319, Note_on_c, 0, 88, 90
2, 604319, Note_on_c, 0, 91, 92
2, 604319, Note_on_c, 0, 93, 90
2, 604319, Note_on_c, 0, 60, 40
2, 604319, Note_on_c, 0, 64, 41
2, 604319, Note_on_c, 0, 67, 39
2, 604319, Note_on_c, 0, 72, 38
2, 604429, Note_on_c, 0, 72, 0
2, 604429, Note_on_c, 0, 81, 0
2, 604429, Note_on_c, 0, 88, 0
2, 604429, Note_on_c, 0, 67, 0
2, 604429, Note_on_c, 0, 91, 0
2, 604429, Note_on_c, 0, 60, 0
2, 604429, Note_on_c, 0, 64, 0
2, 604429, Note_on_c, 0, 93, 0
2, 604440, Note_on_c, 0, 83, 113
2, 604440, Note_on_c, 0, 86, 112
2, 604440, Note_on_c, 0, 91, 114
2, 604440, Note_on_c, 0, 95, 112
2, 604440, Note_on_c, 0, 59, 42
2, 604440, Note_on_c, 0, 62, 42
2, 604440, Note_on_c, 0, 67, 43
2, 604440, Note_on_c, 0, 71, 41
2, 604655, Note_on_c, 0, 71, 0
2, 604655, Note_on_c, 0, 83, 0
2, 604655, Note_on_c, 0, 86, 0
2, 604655, Note_on_c, 0, 67, 0
2, 604655, Note_on_c, 0, 91, 0
2, 604655, Note_on_c, 0, 59, 0
2, 604655, Note_on_c, 0, 62, 0
2, 604655, Note_on_c, 0, 95, 0
2, 604679, Note_on_c, 0, 78, 90
2, 604679, Note_on_c, 0, 86, 89
2, 604679, Note_on_c, 0, 90, 90
2, 604679, Note_on_c, 0, 57, 40
2, 604679, Note_on_c, 0, 60, 39
2, 604679, Note_on_c, 0, 62, 40
2, 604679, Note_on_c, 0, 69, 40
2, 604730, Note_on_c, 0, 43, 0
2, 604730, Note_on_c, 0, 31, 0
2, 604789, Note_on_c, 0, 86, 0
2, 604789, Note_on_c, 0, 57, 0
2, 604789, Note_on_c, 0, 78, 0
2, 604789, Note_on_c, 0, 90, 0
2, 604789, Note_on_c, 0, 69, 0
2, 604789, Note_on_c, 0, 60, 0
2, 604789, Note_on_c, 0, 62, 0
2, 604800, Note_on_c, 0, 79, 111
2, 604800, Note_on_c, 0, 86, 111
2, 604800, Note_on_c, 0, 91, 112
2, 604800, Note_on_c, 0, 55, 40
2, 604800, Note_on_c, 0, 59, 43
2, 604800, Note_on_c, 0, 62, 41
2, 604800, Note_on_c, 0, 67, 41
2, 605015, Note_on_c, 0, 67, 0
2, 605015, Note_on_c, 0, 59, 0
2, 605015, Note_on_c, 0, 86, 0
2, 605015, Note_on_c, 0, 91, 0
2, 605015, Note_on_c, 0, 79, 0
2, 605015, Note_on_c, 0, 62, 0
2, 605015, Note_on_c, 0, 55, 0
2, 605039, Note_on_c, 0, 73, 121
2, 605039, Note_on_c, 0, 79, 122
2, 605039, Note_on_c, 0, 83, 121
2, 605039, Note_on_c, 0, 85, 122
2, 605039, Note_on_c, 0, 55, 40
2, 605039, Note_on_c, 0, 59, 39
2, 605039, Note_on_c, 0, 64, 38
2, 605149, Note_on_c, 0, 64, 0
2, 605149, Note_on_c, 0, 55, 0
2, 605149, Note_on_c, 0, 79, 0
2, 605149, Note_on_c, 0, 83, 0
2, 605149, Note_on_c, 0, 73, 0
2, 605149, Note_on_c, 0, 59, 0
2, 605149, Note_on_c, 0, 85, 0
2, 605160, Note_on_c, 0, 74, 111
2, 605160, Note_on_c, 0, 79, 115
2, 605160, Note_on_c, 0, 83, 113
2, 605160, Note_on_c, 0, 86, 114
2, 605160, Note_on_c, 0, 54, 38
2, 605160, Note_on_c, 0, 55, 38
2, 605160, Note_on_c, 0, 59, 40
2, 605160, Note_on_c, 0, 62, 37
2, 605735, Note_on_c, 0, 62, 0
2, 605735, Note_on_c, 0, 74, 0
2, 605735, Note_on_c, 0, 54, 0
2, 605735, Note_on_c, 0, 79, 0
2, 605735, Note_on_c, 0, 83, 0
2, 605735, Note_on_c, 0, 86, 0
2, 605735, Note_on_c, 0, 55, 0
2, 605735, Note_on_c, 0, 59, 0
2, 605759, Note_on_c, 0, 69, 92
2, 605759, Note_on_c, 0, 79, 91
2, 605759, Note_on_c, 0, 81, 91
2, 605759, Note_on_c, 0, 52, 40
2, 605759, Note_on_c, 0, 55, 41
2, 605759, Note_on_c, 0, 60, 41
2, 605869, Note_on_c, 0, 60, 0
2, 605869, Note_on_c, 0, 79, 0
2, 605869, Note_on_c, 0, 81, 0
2, 605869, Note_on_c, 0, 69, 0
2, 605869, Note_on_c, 0, 55, 0
2, 605869, Note_on_c, 0, 52, 0
2, 605880, Note_on_c, 0, 71, 115
2, 605880, Note_on_c, 0, 79, 114
2, 605880, Note_on_c, 0, 83, 113
2, 605880, Note_on_c, 0, 50, 43
2, 605880, Note_on_c, 0, 55, 41
2, 605880, Note_on_c, 0, 59, 43
2, 606095, Note_on_c, 0, 59, 0
2, 606095, Note_on_c, 0, 79, 0
2, 606095, Note_on_c, 0, 83, 0
2, 606095, Note_on_c, 0, 71, 0
2, 606095, Note_on_c, 0, 55, 0
2, 606095, Note_on_c, 0, 50, 0
2, 606119, Note_on_c, 0, 66, 91
2, 606119, Note_on_c, 0, 74, 91
2, 606119, Note_on_c, 0, 78, 91
2, 606119, Note_on_c, 0, 48, 39
2, 606119, Note_on_c, 0, 50, 40
2, 606119, Note_on_c, 0, 57, 40
2, 606229, Note_on_c, 0, 57, 0
2, 606229, Note_on_c, 0, 74, 0
2, 606229, Note_on_c, 0, 78, 0
2, 606229, Note_on_c, 0, 66, 0
2, 606229, Note_on_c, 0, 50, 0
2, 606229, Note_on_c, 0, 48, 0
2, 606240, Note_on_c, 0, 67, 112
2, 606240, Note_on_c, 0, 74, 111
2, 606240, Note_on_c, 0, 79, 110
2, 606240, Note_on_c, 0, 47, 44
2, 606240, Note_on_c, 0, 50, 44
2, 606240, Note_on_c, 0, 55, 41
2, 606455, Note_on_c, 0, 55, 0
2, 606455, Note_on_c, 0, 74, 0
2, 606455, Note_on_c, 0, 79, 0
2, 606455, Note_on_c, 0, 67, 0
2, 606455, Note_on_c, 0, 50, 0
2, 606455, Note_on_c, 0, 47, 0
2, 606479, Note_on_c, 0, 61, 88
2, 606479, Note_on_c, 0, 67, 86
2, 606479, Note_on_c, 0, 71, 89
2, 606479, Note_on_c, 0, 73, 90
2, 606479, Note_on_c, 0, 31, 27
2, 606479, Note_on_c, 0, 43, 30
2, 606589, Note_on_c, 0, 43, 0
2, 606589, Note_on_c, 0, 67, 0
2, 606589, Note_on_c, 0, 71, 0
2, 606589, Note_on_c, 0, 61, 0
2, 606589, Note_on_c, 0, 31, 0
2, 606589, Note_on_c, 0, 73, 0
2, 606600, Note_on_c, 0, 62, 106
2, 606600, Note_on_c, 0, 67, 107
2, 606600, Note_on_c, 0, 71, 107
2, 606600, Note_on_c, 0, 74, 108
2, 606600, Note_on_c, 0, 50, 54
2, 606600, Note_on_c, 0, 55, 53
2, 606600, Note_on_c, 0, 59, 54
2, 607175, Note_on_c, 0, 59, 0
2, 607175, Note_on_c, 0, 50, 0
2, 607175, Note_on_c, 0, 67, 0
2, 607175, Note_on_c, 0, 71, 0
2, 607175, Note_on_c, 0, 62, 0
2, 607175, Note_on_c, 0, 55, 0
2, 607175, Note_on_c, 0, 74, 0
2, 607199, Note_on_c, 0, 64, 89
2, 607199, Note_on_c, 0, 67, 91
2, 607199, Note_on_c, 0, 69, 90
2, 607199, Note_on_c, 0, 48, 40
2, 607199, Note_on_c, 0, 57, 41
2, 607309, Note_on_c, 0, 57, 0
2, 607309, Note_on_c, 0, 69, 0
2, 607309, Note_on_c, 0, 64, 0
2, 607309, Note_on_c, 0, 67, 0
2, 607309, Note_on_c, 0, 48, 0
2, 607320, Note_on_c, 0, 62, 114
2, 607320, Note_on_c, 0, 67, 114
2, 607320, Note_on_c, 0, 71, 112
2, 607320, Note_on_c, 0, 47, 41
2, 607320, Note_on_c, 0, 55, 44
2, 607535, Note_on_c, 0, 55, 0
2, 607535, Note_on_c, 0, 71, 0
2, 607535, Note_on_c, 0, 62, 0
2, 607535, Note_on_c, 0, 67, 0
2, 607535, Note_on_c, 0, 47, 0
2, 607559, Note_on_c, 0, 61, 92
2, 607559, Note_on_c, 0, 66, 92
2, 607559, Note_on_c, 0, 45, 36
2, 607559, Note_on_c, 0, 50, 37
2, 607669, Note_on_c, 0, 50, 0
2, 607669, Note_on_c, 0, 61, 0
2, 607669, Note_on_c, 0, 66, 0
2, 607669, Note_on_c, 0, 45, 0
2, 607680, Note_on_c, 0, 59, 110
2, 607680, Note_on_c, 0, 67, 110
2, 607680, Note_on_c, 0, 43, 46
2, 607680, Note_on_c, 0, 50, 42
2, 607895, Note_on_c, 0, 50, 0
2, 607895, Note_on_c, 0, 59, 0
2, 607895, Note_on_c, 0, 67, 0
2, 607895, Note_on_c, 0, 43, 0
2, 607919, Note_on_c, 0, 57, 91
2, 607919, Note_on_c, 0, 62, 90
2, 607919, Note_on_c, 0, 42, 39
2, 607919, Note_on_c, 0, 47, 40
2, 608029, Note_on_c, 0, 47, 0
2, 608029, Note_on_c, 0, 57, 0
2, 608029, Note_on_c, 0, 62, 0
2, 608029, Note_on_c, 0, 42, 0
2, 608040, Note_on_c, 0, 55, 112
2, 608040, Note_on_c, 0, 64, 109
2, 608040, Note_on_c, 0, 40, 43
2, 608040, Note_on_c, 0, 47, 41
2, 608255, Note_on_c, 0, 47, 0
2, 608255, Note_on_c, 0, 55, 0
2, 608255, Note_on_c, 0, 64, 0
2, 608255, Note_on_c, 0, 40, 0
2, 608279, Note_on_c, 0, 61, 96
2, 608279, Note_on_c, 0, 37, 47
2, 608279, Note_on_c, 0, 49, 48
2, 608389, Note_on_c, 0, 49, 0
2, 608389, Note_on_c, 0, 37, 0
2, 608389, Note_on_c, 0, 61, 0
2, 608400, Note_on_c, 0, 62, 110
2, 608400, Note_on_c, 0, 38, 44
2, 608400, Note_on_c, 0, 50, 47
2, 608615, Note_on_c, 0, 50, 0
2, 608615, Note_on_c, 0, 38, 0
2, 608615, Note_on_c, 0, 62, 0
2, 608639, Note_on_c, 0, 57, 90
2, 608639, Note_on_c, 0, 33, 36
2, 608639, Note_on_c, 0, 45, 38
2, 608749, Note_on_c, 0, 45, 0
2, 608749, Note_on_c, 0, 33, 0
2, 608749, Note_on_c, 0, 57, 0
2, 608760, Note_on_c, 0, 59, 109
2, 608760, Note_on_c, 0, 35, 45
2, 608760, Note_on_c, 0, 47, 45
2, 608975, Note_on_c, 0, 47, 0
2, 608975, Note_on_c, 0, 35, 0
2, 608975, Note_on_c, 0, 59, 0
2, 608999, Note_on_c, 0, 30, 37
2, 608999, Note_on_c, 0, 42, 36
2, 609109, Note_on_c, 0, 42, 0
2, 609109, Note_on_c, 0, 30, 0
2, 609120, Note_on_c, 0, 60, 88
2, 609120, Note_on_c, 0, 63, 91
2, 609120, Note_on_c, 0, 67, 91
2, 609120, Note_on_c, 0, 72, 89
2, 609120, Note_on_c, 0, 31, 42
2, 609120, Note_on_c, 0, 43, 46
2, 609120, Note_on_c, 0, 51, 60
2, 609120, Note_on_c, 0, 55, 57
2, 609363, Note_on_c, 0, 43, 0
2, 609363, Note_on_c, 0, 31, 0
2, 609390, Note_on_c, 0, 31, 1
2, 609390, Note_on_c, 0, 31, 0
2, 609390, Note_on_c, 0, 58, 56
2, 609472, Note_on_c, 0, 58, 0
2, 609480, Note_on_c, 0, 43, 50
2, 610083, Note_on_c, 0, 43, 0
2, 610110, Note_on_c, 0, 43, 1
2, 610110, Note_on_c, 0, 43, 0
2, 610110, Note_on_c, 0, 55, 58
2, 610192, Note_on_c, 0, 55, 0
2, 610200, Note_on_c, 0, 43, 36
2, 610443, Note_on_c, 0, 43, 0
2, 610470, Note_on_c, 0, 51, 50
2, 610490, Note_on_c, 0, 55, 0
2, 610490, Note_on_c, 0, 51, 0
2, 610552, Note_on_c, 0, 51, 0
2, 610560, Note_on_c, 0, 43, 36
2, 610803, Note_on_c, 0, 43, 0
2, 610830, Note_on_c, 0, 55, 53
2, 610912, Note_on_c, 0, 55, 0
2, 610920, Note_on_c, 0, 43, 33
2, 611523, Note_on_c, 0, 43, 0
2, 611550, Note_on_c, 0, 51, 51
2, 611632, Note_on_c, 0, 51, 0
2, 611640, Note_on_c, 0, 43, 38
2, 611883, Note_on_c, 0, 43, 0
2, 611910, Note_on_c, 0, 48, 47
2, 611992, Note_on_c, 0, 48, 0
2, 612000, Note_on_c, 0, 43, 40
2, 612243, Note_on_c, 0, 43, 0
2, 612270, Note_on_c, 0, 51, 50
2, 612352, Note_on_c, 0, 51, 0
2, 612360, Note_on_c, 0, 43, 36
2, 612963, Note_on_c, 0, 43, 0
2, 612990, Note_on_c, 0, 48, 47
2, 613072, Note_on_c, 0, 48, 0
2, 613080, Note_on_c, 0, 43, 40
2, 613323, Note_on_c, 0, 43, 0
2, 613350, Note_on_c, 0, 46, 45
2, 613370, Note_on_c, 0, 60, 0
2, 613370, Note_on_c, 0, 67, 0
2, 613370, Note_on_c, 0, 72, 0
2, 613370, Note_on_c, 0, 63, 0
2, 613432, Note_on_c, 0, 46, 0
2, 613440, Note_on_c, 0, 73, 102
2, 613440, Note_on_c, 0, 58, 94
2, 613440, Note_on_c, 0, 61, 93
2, 613440, Note_on_c, 0, 67, 94
2, 613440, Note_on_c, 0, 43, 43
2, 613440, Note_on_c, 0, 51, 43
2, 613683, Note_on_c, 0, 43, 0
2, 613710, Note_on_c, 0, 51, 51
2, 613792, Note_on_c, 0, 51, 0
2, 613800, Note_on_c, 0, 43, 58
2, 614403, Note_on_c, 0, 43, 0
2, 614430, Note_on_c, 0, 46, 48
2, 614512, Note_on_c, 0, 46, 0
2, 614520, Note_on_c, 0, 43, 42
2, 614763, Note_on_c, 0, 43, 0
2, 614790, Note_on_c, 0, 73, 0
2, 614790, Note_on_c, 0, 74, 115
2, 614790, Note_on_c, 0, 45, 46
2, 614810, Note_on_c, 0, 67, 0
2, 614810, Note_on_c, 0, 61, 0
2, 614810, Note_on_c, 0, 58, 0
2, 614810, Note_on_c, 0, 51, 0
2, 614872, Note_on_c, 0, 45, 0
2, 614880, Note_on_c, 0, 74, 0
2, 614880, Note_on_c, 0, 58, 76
2, 614880, Note_on_c, 0, 31, 32
2, 614880, Note_on_c, 0, 50, 43
2, 614924, Note_on_c, 0, 31, 0
2, 614924, Note_on_c, 0, 43, 55
2, 614964, Note_on_c, 0, 62, 74
2, 614966, Note_on_c, 0, 31, 47
2, 615049, Note_on_c, 0, 67, 75
2, 615123, Note_on_c, 0, 31, 0
2, 615123, Note_on_c, 0, 43, 0
2, 615133, Note_on_c, 0, 74, 76
2, 615150, Note_on_c, 0, 43, 1
2, 615150, Note_on_c, 0, 43, 0
2, 615150, Note_on_c, 0, 45, 45
2, 615232, Note_on_c, 0, 45, 0
2, 615240, Note_on_c, 0, 43, 63
2, 615843, Note_on_c, 0, 43, 0
2, 615870, Note_on_c, 0, 50, 51
2, 615952, Note_on_c, 0, 50, 0
2, 615960, Note_on_c, 0, 43, 39
2, 616203, Note_on_c, 0, 43, 0
2, 616230, Note_on_c, 0, 58, 56
2, 616250, Note_on_c, 0, 50, 0
2, 616312, Note_on_c, 0, 58, 0
2, 616320, Note_on_c, 0, 43, 33
2, 616563, Note_on_c, 0, 43, 0
2, 616590, Note_on_c, 0, 51, 50
2, 616672, Note_on_c, 0, 51, 0
2, 616680, Note_on_c, 0, 50, 40
2, 617283, Note_on_c, 0, 50, 0
2, 617310, Note_on_c, 0, 58, 53
2, 617392, Note_on_c, 0, 58, 0
2, 617400, Note_on_c, 0, 50, 39
2, 617643, Note_on_c, 0, 50, 0
2, 617670, Note_on_c, 0, 67, 53
2, 617752, Note_on_c, 0, 67, 0
2, 617760, Note_on_c, 0, 50, 37
2, 618003, Note_on_c, 0, 50, 0
2, 618030, Note_on_c, 0, 57, 49
2, 618112, Note_on_c, 0, 57, 0
2, 618120, Note_on_c, 0, 55, 40
2, 618723, Note_on_c, 0, 55, 0
2, 618750, Note_on_c, 0, 62, 51
2, 618832, Note_on_c, 0, 62, 0
2, 618840, Note_on_c, 0, 55, 37
2, 619083, Note_on_c, 0, 55, 0
2, 619110, Note_on_c, 0, 70, 56
2, 619192, Note_on_c, 0, 70, 0
2, 619200, Note_on_c, 0, 55, 33
2, 619443, Note_on_c, 0, 55, 0
2, 619470, Note_on_c, 0, 70, 55
2, 619552, Note_on_c, 0, 70, 0
2, 619560, Note_on_c, 0, 62, 35
2, 620163, Note_on_c, 0, 62, 0
2, 620190, Note_on_c, 0, 74, 56
2, 620272, Note_on_c, 0, 74, 0
2, 620280, Note_on_c, 0, 67, 39
2, 620570, Note_on_c, 0, 62, 0
2, 620570, Note_on_c, 0, 74, 0
2, 620570, Note_on_c, 0, 58, 0
2, 620570, Note_on_c, 0, 67, 0
2, 620605, Note_on_c, 0, 67, 0
2, 621000, Note_on_c, 0, 79, 73
2, 621000, Note_on_c, 0, 70, 65
2, 621000, Note_on_c, 0, 74, 65
2, 621000, Note_on_c, 0, 58, 37
2, 621000, Note_on_c, 0, 62, 39
2, 621000, Note_on_c, 0, 67, 38
2, 621325, Note_on_c, 0, 67, 0
2, 621325, Note_on_c, 0, 70, 0
2, 621325, Note_on_c, 0, 74, 0
2, 621325, Note_on_c, 0, 58, 0
2, 621325, Note_on_c, 0, 62, 0
2, 621360, Note_on_c, 0, 79, 0
2, 621360, Note_on_c, 0, 77, 74
2, 621360, Note_on_c, 0, 70, 73
2, 621360, Note_on_c, 0, 74, 75
2, 621360, Note_on_c, 0, 57, 40
2, 621360, Note_on_c, 0, 58, 39
2, 621360, Note_on_c, 0, 62, 38
2, 621360, Note_on_c, 0, 65, 37
2, 622010, Note_on_c, 0, 65, 0
2, 622010, Note_on_c, 0, 58, 0
2, 622010, Note_on_c, 0, 70, 0
2, 622010, Note_on_c, 0, 74, 0
2, 622010, Note_on_c, 0, 57, 0
2, 622010, Note_on_c, 0, 62, 0
2, 622080, Note_on_c, 0, 77, 0
2, 622080, Note_on_c, 0, 79, 89
2, 622080, Note_on_c, 0, 70, 86
2, 622080, Note_on_c, 0, 75, 86
2, 622080, Note_on_c, 0, 79, 87
2, 622080, Note_on_c, 0, 55, 47
2, 622080, Note_on_c, 0, 58, 49
2, 622080, Note_on_c, 0, 63, 49
2, 622080, Note_on_c, 0, 67, 46
2, 622440, Note_on_c, 0, 79, 0
2, 622440, Note_on_c, 0, 82, 90
2, 622440, Note_on_c, 0, 31, 40
2, 623450, Note_on_c, 0, 31, 0
2, 623683, Note_on_c, 0, 67, 0
2, 623683, Note_on_c, 0, 55, 0
2, 623683, Note_on_c, 0, 58, 0
2, 623683, Note_on_c, 0, 75, 0
2, 623683, Note_on_c, 0, 79, 0
2, 623683, Note_on_c, 0, 70, 0
2, 623683, Note_on_c, 0, 63, 0
2, 623683, Note_on_c, 0, 82, 0
2, 623880, Note_on_c, 0, 74, 72
2, 623880, Note_on_c, 0, 67, 66
2, 623880, Note_on_c, 0, 70, 66
2, 623880, Note_on_c, 0, 53, 38
2, 623880, Note_on_c, 0, 55, 39
2, 623880, Note_on_c, 0, 58, 40
2, 623880, Note_on_c, 0, 62, 40
2, 624205, Note_on_c, 0, 62, 0
2, 624205, Note_on_c, 0, 55, 0
2, 624205, Note_on_c, 0, 67, 0
2, 624205, Note_on_c, 0, 70, 0
2, 624205, Note_on_c, 0, 53, 0
2, 624205, Note_on_c, 0, 58, 0
2, 624240, Note_on_c, 0, 74, 0
2, 624240, Note_on_c, 0, 72, 42
2, 624240, Note_on_c, 0, 67, 42
2, 624240, Note_on_c, 0, 69, 41
2, 624240, Note_on_c, 0, 51, 41
2, 624240, Note_on_c, 0, 55, 39
2, 624240, Note_on_c, 0, 57, 39
2, 624240, Note_on_c, 0, 60, 38
2, 624890, Note_on_c, 0, 60, 0
2, 624890, Note_on_c, 0, 55, 0
2, 624890, Note_on_c, 0, 67, 0
2, 624890, Note_on_c, 0, 69, 0
2, 624890, Note_on_c, 0, 51, 0
2, 624890, Note_on_c, 0, 57, 0
2, 624960, Note_on_c, 0, 72, 0
2, 624960, Note_on_c, 0, 74, 53
2, 624960, Note_on_c, 0, 67, 51
2, 624960, Note_on_c, 0, 70, 52
2, 624960, Note_on_c, 0, 74, 53
2, 624960, Note_on_c, 0, 50, 46
2, 624960, Note_on_c, 0, 55, 47
2, 624960, Note_on_c, 0, 58, 47
2, 624960, Note_on_c, 0, 62, 50
2, 625320, Note_on_c, 0, 74, 0
2, 625320, Note_on_c, 0, 79, 55
2, 625320, Note_on_c, 0, 43, 37
2, 626330, Note_on_c, 0, 43, 0
2, 626563, Note_on_c, 0, 62, 0
2, 626563, Note_on_c, 0, 50, 0
2, 626563, Note_on_c, 0, 55, 0
2, 626563, Note_on_c, 0, 70, 0
2, 626563, Note_on_c, 0, 74, 0
2, 626563, Note_on_c, 0, 67, 0
2, 626563, Note_on_c, 0, 58, 0
2, 626563, Note_on_c, 0, 79, 0
2, 626760, Note_on_c, 0, 67, 37
2, 626760, Note_on_c, 0, 70, 37
2, 626760, Note_on_c, 0, 62, 39
2, 626760, Note_on_c, 0, 50, 39
2, 626760, Note_on_c, 0, 55, 36
2, 626760, Note_on_c, 0, 58, 38
2, 627085, Note_on_c, 0, 58, 0
2, 627085, Note_on_c, 0, 70, 0
2, 627085, Note_on_c, 0, 62, 0
2, 627085, Note_on_c, 0, 67, 0
2, 627085, Note_on_c, 0, 55, 0
2, 627085, Note_on_c, 0, 50, 0
2, 627120, Note_on_c, 0, 67, 60
2, 627120, Note_on_c, 0, 69, 62
2, 627120, Note_on_c, 0, 61, 55
2, 627120, Note_on_c, 0, 52, 40
2, 627120, Note_on_c, 0, 57, 39
2, 627607, Note_on_c, 0, 61, 0
2, 627660, Note_on_c, 0, 60, 79
2, 627770, Note_on_c, 0, 52, 0
2, 627770, Note_on_c, 0, 57, 0
2, 627823, Note_on_c, 0, 60, 0
2, 627840, Note_on_c, 0, 69, 0
2, 627840, Note_on_c, 0, 67, 0
2, 627840, Note_on_c, 0, 60, 94
2, 627840, Note_on_c, 0, 63, 95
2, 627840, Note_on_c, 0, 68, 93
2, 627840, Note_on_c, 0, 44, 49
2, 627840, Note_on_c, 0, 51, 51
2, 627840, Note_on_c, 0, 56, 48
2, 629083, Note_on_c, 0, 56, 0
2, 629083, Note_on_c, 0, 44, 0
2, 629083, Note_on_c, 0, 51, 0
2, 629100, Note_on_c, 0, 60, 0
2, 629100, Note_on_c, 0, 68, 0
2, 629100, Note_on_c, 0, 63, 0
2, 629100, Note_on_c, 0, 61, 114
2, 629100, Note_on_c, 0, 67, 113
2, 629100, Note_on_c, 0, 75, 113
2, 629100, Note_on_c, 0, 39, 41
2, 629100, Note_on_c, 0, 51, 42
2, 629280, Note_on_c, 0, 51, 0
2, 629280, Note_on_c, 0, 75, 0
2, 629280, Note_on_c, 0, 61, 0
2, 629280, Note_on_c, 0, 67, 0
2, 629280, Note_on_c, 0, 39, 0
2, 629280, Note_on_c, 0, 60, 96
2, 629280, Note_on_c, 0, 68, 93
2, 629280, Note_on_c, 0, 72, 93
2, 629280, Note_on_c, 0, 44, 52
2, 629280, Note_on_c, 0, 51, 52
2, 631440, Note_on_c, 0, 67, 86
2, 632160, Note_on_c, 0, 44, 0
2, 632160, Note_on_c, 0, 68, 0
2, 632160, Note_on_c, 0, 60, 0
2, 632160, Note_on_c, 0, 60, 100
2, 632880, Note_on_c, 0, 45, 43
2, 633530, Note_on_c, 0, 67, 0
2, 633600, Note_on_c, 0, 51, 0
2, 633600, Note_on_c, 0, 45, 0
2, 633600, Note_on_c, 0, 66, 29
2, 633600, Note_on_c, 0, 38, 41
2, 633600, Note_on_c, 0, 50, 43
2, 633839, Note_on_c, 0, 66, 28
2, 633949, Note_on_c, 0, 66, 0
2, 633960, Note_on_c, 0, 72, 37
2, 633960, Note_on_c, 0, 72, 18
2, 634068, Note_on_c, 0, 72, 0
2, 634080, Note_on_c, 0, 69, 26
2, 634188, Note_on_c, 0, 69, 0
2, 634199, Note_on_c, 0, 66, 26
2, 634250, Note_on_c, 0, 72, 0
2, 634250, Note_on_c, 0, 60, 0
2, 634250, Note_on_c, 0, 38, 0
2, 634250, Note_on_c, 0, 50, 0
2, 634285, Note_on_c, 0, 72, 0
2, 634309, Note_on_c, 0, 66, 0
2, 634320, Note_on_c, 0, 50, 41
2, 634440, Note_on_c, 0, 66, 26
2, 634548, Note_on_c, 0, 66, 0
2, 634559, Note_on_c, 0, 69, 31
2, 634669, Note_on_c, 0, 69, 0
2, 634680, Note_on_c, 0, 74, 35
2, 634680, Note_on_c, 0, 74, 28
2, 634788, Note_on_c, 0, 74, 0
2, 634800, Note_on_c, 0, 69, 28
2, 634908, Note_on_c, 0, 69, 0
2, 634919, Note_on_c, 0, 66, 24
2, 634970, Note_on_c, 0, 50, 0
2, 634970, Note_on_c, 0, 66, 0
2, 635005, Note_on_c, 0, 74, 0
2, 635029, Note_on_c, 0, 66, 0
2, 635040, Note_on_c, 0, 60, 67
2, 635160, Note_on_c, 0, 66, 28
2, 635268, Note_on_c, 0, 66, 0
2, 635279, Note_on_c, 0, 69, 31
2, 635389, Note_on_c, 0, 69, 0
2, 635400, Note_on_c, 0, 72, 27
2, 635400, Note_on_c, 0, 72, 33
2, 635508, Note_on_c, 0, 72, 0
2, 635520, Note_on_c, 0, 69, 25
2, 635615, Note_on_c, 0, 72, 0
2, 635628, Note_on_c, 0, 69, 0
2, 635639, Note_on_c, 0, 66, 25
2, 635749, Note_on_c, 0, 66, 0
2, 635760, Note_on_c, 0, 50, 37
2, 635880, Note_on_c, 0, 66, 27
2, 635988, Note_on_c, 0, 66, 0
2, 635999, Note_on_c, 0, 69, 32
2, 636109, Note_on_c, 0, 69, 0
2, 636120, Note_on_c, 0, 74, 25
2, 636120, Note_on_c, 0, 74, 33
2, 636228, Note_on_c, 0, 74, 0
2, 636240, Note_on_c, 0, 69, 27
2, 636335, Note_on_c, 0, 74, 0
2, 636348, Note_on_c, 0, 69, 0
2, 636359, Note_on_c, 0, 66, 24
2, 636410, Note_on_c, 0, 50, 0
2, 636469, Note_on_c, 0, 66, 0
2, 636480, Note_on_c, 0, 60, 0
2, 636480, Note_on_c, 0, 60, 54
2, 636600, Note_on_c, 0, 66, 26
2, 636708, Note_on_c, 0, 66, 0
2, 636719, Note_on_c, 0, 69, 33
2, 636829, Note_on_c, 0, 69, 0
2, 636840, Note_on_c, 0, 72, 26
2, 636840, Note_on_c, 0, 72, 33
2, 636948, Note_on_c, 0, 72, 0
2, 636960, Note_on_c, 0, 69, 25
2, 637055, Note_on_c, 0, 72, 0
2, 637068, Note_on_c, 0, 69, 0
2, 637079, Note_on_c, 0, 66, 24
2, 637189, Note_on_c, 0, 66, 0
2, 637200, Note_on_c, 0, 50, 37
2, 637320, Note_on_c, 0, 66, 24
2, 637428, Note_on_c, 0, 66, 0
2, 637439, Note_on_c, 0, 69, 32
2, 637549, Note_on_c, 0, 69, 0
2, 637560, Note_on_c, 0, 74, 25
2, 637560, Note_on_c, 0, 74, 35
2, 637668, Note_on_c, 0, 74, 0
2, 637680, Note_on_c, 0, 69, 25
2, 637775, Note_on_c, 0, 74, 0
2, 637788, Note_on_c, 0, 69, 0
2, 637799, Note_on_c, 0, 66, 27
2, 637850, Note_on_c, 0, 50, 0
2, 637909, Note_on_c, 0, 66, 0
2, 637920, Note_on_c, 0, 60, 0
2, 637920, Note_on_c, 0, 81, 77
2, 637920, Note_on_c, 0, 60, 51
2, 638040, Note_on_c, 0, 66, 27
2, 638148, Note_on_c, 0, 66, 0
2, 638159, Note_on_c, 0, 69, 34
2, 638269, Note_on_c, 0, 69, 0
2, 638280, Note_on_c, 0, 72, 25
2, 638280, Note_on_c, 0, 72, 33
2, 638388, Note_on_c, 0, 72, 0
2, 638400, Note_on_c, 0, 69, 28
2, 638495, Note_on_c, 0, 72, 0
2, 638508, Note_on_c, 0, 69, 0
2, 638519, Note_on_c, 0, 66, 25
2, 638629, Note_on_c, 0, 66, 0
2, 638640, Note_on_c, 0, 50, 36
2, 638760, Note_on_c, 0, 66, 27
2, 638868, Note_on_c, 0, 66, 0
2, 638879, Note_on_c, 0, 69, 32
2, 638989, Note_on_c, 0, 69, 0
2, 639000, Note_on_c, 0, 74, 27
2, 639000, Note_on_c, 0, 74, 33
2, 639108, Note_on_c, 0, 74, 0
2, 639120, Note_on_c, 0, 69, 28
2, 639163, Note_on_c, 0, 81, 0
2, 639180, Note_on_c, 0, 82, 67
2, 639215, Note_on_c, 0, 74, 0
2, 639228, Note_on_c, 0, 69, 0
2, 639239, Note_on_c, 0, 66, 26
2, 639290, Note_on_c, 0, 50, 0
2, 639349, Note_on_c, 0, 66, 0
2, 639360, Note_on_c, 0, 60, 0
2, 639360, Note_on_c, 0, 82, 0
2, 639360, Note_on_c, 0, 82, 63
2, 639360, Note_on_c, 0, 58, 46
2, 639480, Note_on_c, 0, 62, 27
2, 639588, Note_on_c, 0, 62, 0
2, 639599, Note_on_c, 0, 65, 33
2, 639709, Note_on_c, 0, 65, 0
2, 639720, Note_on_c, 0, 72, 27
2, 639720, Note_on_c, 0, 72, 37
2, 639828, Note_on_c, 0, 72, 0
2, 639840, Note_on_c, 0, 65, 24
2, 639935, Note_on_c, 0, 72, 0
2, 639948, Note_on_c, 0, 65, 0
2, 639959, Note_on_c, 0, 62, 27
2, 640069, Note_on_c, 0, 62, 0
2, 640080, Note_on_c, 0, 50, 37
2, 640200, Note_on_c, 0, 62, 27
2, 640308, Note_on_c, 0, 62, 0
2, 640319, Note_on_c, 0, 65, 32
2, 640429, Note_on_c, 0, 65, 0
2, 640440, Note_on_c, 0, 74, 26
2, 640440, Note_on_c, 0, 74, 37
2, 640548, Note_on_c, 0, 74, 0
2, 640560, Note_on_c, 0, 65, 25
2, 640655, Note_on_c, 0, 74, 0
2, 640668, Note_on_c, 0, 65, 0
2, 640679, Note_on_c, 0, 62, 26
2, 640730, Note_on_c, 0, 50, 0
2, 640789, Note_on_c, 0, 62, 0
2, 640800, Note_on_c, 0, 58, 0
2, 640800, Note_on_c, 0, 82, 0
2, 640800, Note_on_c, 0, 86, 71
2, 640800, Note_on_c, 0, 58, 52
2, 640920, Note_on_c, 0, 62, 27
2, 641028, Note_on_c, 0, 62, 0
2, 641039, Note_on_c, 0, 65, 32
2, 641149, Note_on_c, 0, 65, 0
2, 641160, Note_on_c, 0, 72, 24
2, 641160, Note_on_c, 0, 72, 36
2, 641268, Note_on_c, 0, 72, 0
2, 641280, Note_on_c, 0, 65, 25
2, 641375, Note_on_c, 0, 72, 0
2, 641388, Note_on_c, 0, 65, 0
2, 641399, Note_on_c, 0, 62, 27
2, 641509, Note_on_c, 0, 62, 0
2, 641520, Note_on_c, 0, 50, 37
2, 641640, Note_on_c, 0, 62, 26
2, 641748, Note_on_c, 0, 62, 0
2, 641759, Note_on_c, 0, 65, 34
2, 641869, Note_on_c, 0, 65, 0
2, 641880, Note_on_c, 0, 74, 24
2, 641880, Note_on_c, 0, 74, 36
2, 641988, Note_on_c, 0, 74, 0
2, 642000, Note_on_c, 0, 65, 22
2, 642095, Note_on_c, 0, 74, 0
2, 642108, Note_on_c, 0, 65, 0
2, 642119, Note_on_c, 0, 62, 24
2, 642170, Note_on_c, 0, 50, 0
2, 642229, Note_on_c, 0, 62, 0
2, 642240, Note_on_c, 0, 58, 0
2, 642240, Note_on_c, 0, 86, 0
2, 642240, Note_on_c, 0, 58, 53
2, 642360, Note_on_c, 0, 63, 27
2, 642468, Note_on_c, 0, 63, 0
2, 642479, Note_on_c, 0, 67, 33
2, 642589, Note_on_c, 0, 67, 0
2, 642600, Note_on_c, 0, 72, 26
2, 642600, Note_on_c, 0, 72, 35
2, 642708, Note_on_c, 0, 72, 0
2, 642720, Note_on_c, 0, 67, 24
2, 642815, Note_on_c, 0, 72, 0
2, 642828, Note_on_c, 0, 67, 0
2, 642839, Note_on_c, 0, 63, 25
2, 642949, Note_on_c, 0, 63, 0
2, 642960, Note_on_c, 0, 50, 37
2, 643080, Note_on_c, 0, 63, 26
2, 643188, Note_on_c, 0, 63, 0
2, 643199, Note_on_c, 0, 67, 33
2, 643309, Note_on_c, 0, 67, 0
2, 643320, Note_on_c, 0, 74, 26
2, 643320, Note_on_c, 0, 74, 37
2, 643428, Note_on_c, 0, 74, 0
2, 643440, Note_on_c, 0, 67, 23
2, 643535, Note_on_c, 0, 74, 0
2, 643548, Note_on_c, 0, 67, 0
2, 643559, Note_on_c, 0, 63, 27
2, 643610, Note_on_c, 0, 50, 0
2, 643669, Note_on_c, 0, 63, 0
2, 643680, Note_on_c, 0, 58, 0
2, 643680, Note_on_c, 0, 79, 56
2, 643680, Note_on_c, 0, 58, 51
2, 643800, Note_on_c, 0, 64, 26
2, 643908, Note_on_c, 0, 64, 0
2, 643919, Note_on_c, 0, 67, 32
2, 644029, Note_on_c, 0, 67, 0
2, 644040, Note_on_c, 0, 72, 24
2, 644040, Note_on_c, 0, 72, 34
2, 644148, Note_on_c, 0, 72, 0
2, 644160, Note_on_c, 0, 67, 27
2, 644255, Note_on_c, 0, 72, 0
2, 644268, Note_on_c, 0, 67, 0
2, 644279, Note_on_c, 0, 64, 27
2, 644389, Note_on_c, 0, 64, 0
2, 644400, Note_on_c, 0, 50, 40
2, 644520, Note_on_c, 0, 64, 25
2, 644628, Note_on_c, 0, 64, 0
2, 644639, Note_on_c, 0, 67, 30
2, 644749, Note_on_c, 0, 67, 0
2, 644760, Note_on_c, 0, 74, 28
2, 644760, Note_on_c, 0, 74, 35
2, 644868, Note_on_c, 0, 74, 0
2, 644880, Note_on_c, 0, 67, 23
2, 644923, Note_on_c, 0, 79, 0
2, 644940, Note_on_c, 0, 81, 66
2, 644975, Note_on_c, 0, 74, 0
2, 644988, Note_on_c, 0, 67, 0
2, 644999, Note_on_c, 0, 64, 28
2, 645050, Note_on_c, 0, 50, 0
2, 645109, Note_on_c, 0, 64, 0
2, 645120, Note_on_c, 0, 58, 0
2, 645120, Note_on_c, 0, 81, 0
2, 645120, Note_on_c, 0, 81, 65
2, 645120, Note_on_c, 0, 57, 47
2, 645240, Note_on_c, 0, 65, 27
2, 645348, Note_on_c, 0, 65, 0
2, 645359, Note_on_c, 0, 69, 31
2, 645469, Note_on_c, 0, 69, 0
2, 645480, Note_on_c, 0, 72, 28
2, 645480, Note_on_c, 0, 72, 31
2, 645588, Note_on_c, 0, 72, 0
2, 645600, Note_on_c, 0, 69, 28
2, 645695, Note_on_c, 0, 72, 0
2, 645708, Note_on_c, 0, 69, 0
2, 645719, Note_on_c, 0, 65, 24
2, 645829, Note_on_c, 0, 65, 0
2, 645840, Note_on_c, 0, 50, 38
2, 645960, Note_on_c, 0, 65, 25
2, 646068, Note_on_c, 0, 65, 0
2, 646079, Note_on_c, 0, 69, 33
2, 646189, Note_on_c, 0, 69, 0
2, 646200, Note_on_c, 0, 74, 26
2, 646200, Note_on_c, 0, 74, 35
2, 646308, Note_on_c, 0, 74, 0
2, 646320, Note_on_c, 0, 69, 26
2, 646415, Note_on_c, 0, 74, 0
2, 646428, Note_on_c, 0, 69, 0
2, 646439, Note_on_c, 0, 65, 26
2, 646490, Note_on_c, 0, 50, 0
2, 646549, Note_on_c, 0, 65, 0
2, 646560, Note_on_c, 0, 57, 0
2, 646560, Note_on_c, 0, 81, 0
2, 646560, Note_on_c, 0, 86, 74
2, 646560, Note_on_c, 0, 57, 53
2, 646680, Note_on_c, 0, 65, 27
2, 646788, Note_on_c, 0, 65, 0
2, 646799, Note_on_c, 0, 69, 32
2, 646909, Note_on_c, 0, 69, 0
2, 646920, Note_on_c, 0, 72, 25
2, 646920, Note_on_c, 0, 72, 34
2, 647028, Note_on_c, 0, 72, 0
2, 647040, Note_on_c, 0, 69, 26
2, 647135, Note_on_c, 0, 72, 0
2, 647148, Note_on_c, 0, 69, 0
2, 647159, Note_on_c, 0, 65, 23
2, 647269, Note_on_c, 0, 65, 0
2, 647280, Note_on_c, 0, 50, 39
2, 647400, Note_on_c, 0, 65, 27
2, 647508, Note_on_c, 0, 65, 0
2, 647519, Note_on_c, 0, 69, 32
2, 647629, Note_on_c, 0, 69, 0
2, 647640, Note_on_c, 0, 74, 25
2, 647640, Note_on_c, 0, 74, 36
2, 647748, Note_on_c, 0, 74, 0
2, 647760, Note_on_c, 0, 69, 26
2, 647855, Note_on_c, 0, 74, 0
2, 647868, Note_on_c, 0, 69, 0
2, 647879, Note_on_c, 0, 65, 25
2, 647930, Note_on_c, 0, 50, 0
2, 647989, Note_on_c, 0, 65, 0
2, 648000, Note_on_c, 0, 57, 0
2, 648000, Note_on_c, 0, 86, 0
2, 648000, Note_on_c, 0, 56, 49
2, 648120, Note_on_c, 0, 62, 28
2, 648228, Note_on_c, 0, 62, 0
2, 648239, Note_on_c, 0, 65, 32
2, 648349, Note_on_c, 0, 65, 0
2, 648360, Note_on_c, 0, 72, 26
2, 648360, Note_on_c, 0, 72, 38
2, 648360, Note_on_c, 0, 86, 54
2, 648468, Note_on_c, 0, 72, 0
2, 648480, Note_on_c, 0, 65, 25
2, 648575, Note_on_c, 0, 72, 0
2, 648588, Note_on_c, 0, 65, 0
2, 648599, Note_on_c, 0, 62, 28
2, 648709, Note_on_c, 0, 62, 0
2, 648720, Note_on_c, 0, 50, 39
2, 648840, Note_on_c, 0, 62, 25
2, 648948, Note_on_c, 0, 62, 0
2, 648959, Note_on_c, 0, 65, 32
2, 649069, Note_on_c, 0, 65, 0
2, 649080, Note_on_c, 0, 86, 0
2, 649080, Note_on_c, 0, 74, 28
2, 649080, Note_on_c, 0, 74, 39
2, 649080, Note_on_c, 0, 84, 50
2, 649188, Note_on_c, 0, 74, 0
2, 649200, Note_on_c, 0, 65, 23
2, 649295, Note_on_c, 0, 74, 0
2, 649308, Note_on_c, 0, 65, 0
2, 649319, Note_on_c, 0, 62, 26
2, 649370, Note_on_c, 0, 50, 0
2, 649405, Note_on_c, 0, 84, 0
2, 649429, Note_on_c, 0, 62, 0
2, 649440, Note_on_c, 0, 56, 0
2, 649440, Note_on_c, 0, 86, 61
2, 649440, Note_on_c, 0, 56, 51
2, 649560, Note_on_c, 0, 62, 26
2, 649668, Note_on_c, 0, 62, 0
2, 649679, Note_on_c, 0, 65, 31
2, 649789, Note_on_c, 0, 65, 0
2, 649800, Note_on_c, 0, 72, 25
2, 649800, Note_on_c, 0, 72, 35
2, 649908, Note_on_c, 0, 72, 0
2, 649920, Note_on_c, 0, 65, 26
2, 650015, Note_on_c, 0, 72, 0
2, 650028, Note_on_c, 0, 65, 0
2, 650039, Note_on_c, 0, 62, 26
2, 650149, Note_on_c, 0, 62, 0
2, 650160, Note_on_c, 0, 50, 38
2, 650280, Note_on_c, 0, 62, 24
2, 650388, Note_on_c, 0, 62, 0
2, 650399, Note_on_c, 0, 65, 32
2, 650450, Note_on_c, 0, 86, 0
2, 650509, Note_on_c, 0, 65, 0
2, 650520, Note_on_c, 0, 74, 27
2, 650520, Note_on_c, 0, 74, 35
2, 650520, Note_on_c, 0, 89, 58
2, 650628, Note_on_c, 0, 74, 0
2, 650640, Note_on_c, 0, 65, 24
2, 650735, Note_on_c, 0, 74, 0
2, 650748, Note_on_c, 0, 65, 0
2, 650759, Note_on_c, 0, 62, 26
2, 650810, Note_on_c, 0, 50, 0
2, 650845, Note_on_c, 0, 89, 0
2, 650869, Note_on_c, 0, 62, 0
2, 650880, Note_on_c, 0, 56, 0
2, 650880, Note_on_c, 0, 98, 79
2, 650880, Note_on_c, 0, 55, 48
2, 651000, Note_on_c, 0, 62, 26
2, 651108, Note_on_c, 0, 62, 0
2, 651119, Note_on_c, 0, 65, 32
2, 651229, Note_on_c, 0, 65, 0
2, 651240, Note_on_c, 0, 71, 27
2, 651240, Note_on_c, 0, 71, 35
2, 651348, Note_on_c, 0, 71, 0
2, 651360, Note_on_c, 0, 65, 26
2, 651455, Note_on_c, 0, 71, 0
2, 651468, Note_on_c, 0, 65, 0
2, 651479, Note_on_c, 0, 62, 24
2, 651589, Note_on_c, 0, 62, 0
2, 651600, Note_on_c, 0, 50, 39
2, 651720, Note_on_c, 0, 62, 24
2, 651828, Note_on_c, 0, 62, 0
2, 651839, Note_on_c, 0, 65, 34
2, 651949, Note_on_c, 0, 65, 0
2, 651960, Note_on_c, 0, 74, 26
2, 651960, Note_on_c, 0, 74, 38
2, 652068, Note_on_c, 0, 74, 0
2, 652080, Note_on_c, 0, 65, 22
2, 652175, Note_on_c, 0, 74, 0
2, 652188, Note_on_c, 0, 65, 0
2, 652199, Note_on_c, 0, 62, 27
2, 652250, Note_on_c, 0, 50, 0
2, 652309, Note_on_c, 0, 62, 0
2, 652320, Note_on_c, 0, 55, 0
2, 652320, Note_on_c, 0, 98, 0
2, 652320, Note_on_c, 0, 91, 56
2, 652320, Note_on_c, 0, 55, 51
2, 652440, Note_on_c, 0, 62, 27
2, 652548, Note_on_c, 0, 62, 0
2, 652559, Note_on_c, 0, 65, 31
2, 652669, Note_on_c, 0, 65, 0
2, 652680, Note_on_c, 0, 71, 24
2, 652680, Note_on_c, 0, 71, 34
2, 652788, Note_on_c, 0, 71, 0
2, 652800, Note_on_c, 0, 65, 26
2, 652895, Note_on_c, 0, 71, 0
2, 652908, Note_on_c, 0, 65, 0
2, 652919, Note_on_c, 0, 62, 24
2, 653029, Note_on_c, 0, 62, 0
2, 653040, Note_on_c, 0, 50, 36
2, 653160, Note_on_c, 0, 62, 26
2, 653268, Note_on_c, 0, 62, 0
2, 653279, Note_on_c, 0, 65, 34
2, 653389, Note_on_c, 0, 65, 0
2, 653400, Note_on_c, 0, 74, 27
2, 653400, Note_on_c, 0, 74, 38
2, 653508, Note_on_c, 0, 74, 0
2, 653520, Note_on_c, 0, 65, 25
2, 653615, Note_on_c, 0, 74, 0
2, 653628, Note_on_c, 0, 65, 0
2, 653639, Note_on_c, 0, 62, 26
2, 653690, Note_on_c, 0, 50, 0
2, 653749, Note_on_c, 0, 62, 0
2, 653760, Note_on_c, 0, 55, 0
2, 653760, Note_on_c, 0, 91, 0
2, 653760, Note_on_c, 0, 55, 53
2, 653880, Note_on_c, 0, 62, 27
2, 653988, Note_on_c, 0, 62, 0
2, 653999, Note_on_c, 0, 65, 31
2, 654109, Note_on_c, 0, 65, 0
2, 654120, Note_on_c, 0, 70, 27
2, 654120, Note_on_c, 0, 70, 33
2, 654228, Note_on_c, 0, 70, 0
2, 654240, Note_on_c, 0, 65, 27
2, 654335, Note_on_c, 0, 70, 0
2, 654348, Note_on_c, 0, 65, 0
2, 654359, Note_on_c, 0, 62, 26
2, 654469, Note_on_c, 0, 62, 0
2, 654480, Note_on_c, 0, 50, 36
2, 654600, Note_on_c, 0, 62, 26
2, 654708, Note_on_c, 0, 62, 0
2, 654719, Note_on_c, 0, 65, 31
2, 654829, Note_on_c, 0, 65, 0
2, 654840, Note_on_c, 0, 74, 25
2, 654840, Note_on_c, 0, 74, 36
2, 654948, Note_on_c, 0, 74, 0
2, 654960, Note_on_c, 0, 65, 22
2, 655055, Note_on_c, 0, 74, 0
2, 655068, Note_on_c, 0, 65, 0
2, 655079, Note_on_c, 0, 62, 27
2, 655130, Note_on_c, 0, 50, 0
2, 655189, Note_on_c, 0, 62, 0
2, 655200, Note_on_c, 0, 55, 0
2, 655200, Note_on_c, 0, 86, 53
2, 655200, Note_on_c, 0, 56, 54
2, 655320, Note_on_c, 0, 62, 26
2, 655428, Note_on_c, 0, 62, 0
2, 655439, Note_on_c, 0, 64, 31
2, 655549, Note_on_c, 0, 64, 0
2, 655560, Note_on_c, 0, 70, 26
2, 655560, Note_on_c, 0, 70, 34
2, 655668, Note_on_c, 0, 70, 0
2, 655680, Note_on_c, 0, 64, 23
2, 655775, Note_on_c, 0, 70, 0
2, 655788, Note_on_c, 0, 64, 0
2, 655799, Note_on_c, 0, 62, 27
2, 655909, Note_on_c, 0, 62, 0
2, 655920, Note_on_c, 0, 50, 39
2, 656040, Note_on_c, 0, 62, 27
2, 656148, Note_on_c, 0, 62, 0
2, 656159, Note_on_c, 0, 64, 32
2, 656269, Note_on_c, 0, 64, 0
2, 656280, Note_on_c, 0, 86, 0
2, 656280, Note_on_c, 0, 74, 28
2, 656280, Note_on_c, 0, 74, 38
2, 656280, Note_on_c, 0, 86, 60
2, 656388, Note_on_c, 0, 74, 0
2, 656400, Note_on_c, 0, 64, 23
2, 656495, Note_on_c, 0, 74, 0
2, 656508, Note_on_c, 0, 64, 0
2, 656519, Note_on_c, 0, 62, 27
2, 656570, Note_on_c, 0, 50, 0
2, 656629, Note_on_c, 0, 62, 0
2, 656640, Note_on_c, 0, 56, 0
2, 656640, Note_on_c, 0, 86, 0
2, 656640, Note_on_c, 0, 86, 66
2, 656640, Note_on_c, 0, 57, 53
2, 656760, Note_on_c, 0, 62, 26
2, 656868, Note_on_c, 0, 62, 0
2, 656879, Note_on_c, 0, 65, 31
2, 656989, Note_on_c, 0, 65, 0
2, 657000, Note_on_c, 0, 72, 25
2, 657000, Note_on_c, 0, 72, 37
2, 657108, Note_on_c, 0, 72, 0
2, 657120, Note_on_c, 0, 65, 24
2, 657215, Note_on_c, 0, 72, 0
2, 657228, Note_on_c, 0, 65, 0
2, 657239, Note_on_c, 0, 62, 24
2, 657349, Note_on_c, 0, 62, 0
2, 657360, Note_on_c, 0, 50, 37
2, 657480, Note_on_c, 0, 62, 27
2, 657588, Note_on_c, 0, 62, 0
2, 657599, Note_on_c, 0, 65, 32
2, 657709, Note_on_c, 0, 65, 0
2, 657720, Note_on_c, 0, 74, 27
2, 657720, Note_on_c, 0, 74, 39
2, 657828, Note_on_c, 0, 74, 0
2, 657840, Note_on_c, 0, 65, 24
2, 657935, Note_on_c, 0, 74, 0
2, 657948, Note_on_c, 0, 65, 0
2, 657959, Note_on_c, 0, 62, 26
2, 658010, Note_on_c, 0, 50, 0
2, 658069, Note_on_c, 0, 62, 0
2, 658080, Note_on_c, 0, 57, 0
2, 658080, Note_on_c, 0, 86, 0
2, 658080, Note_on_c, 0, 53, 44
2, 658200, Note_on_c, 0, 62, 27
2, 658308, Note_on_c, 0, 62, 0
2, 658319, Note_on_c, 0, 65, 34
2, 658429, Note_on_c, 0, 65, 0
2, 658440, Note_on_c, 0, 67, 25
2, 658440, Note_on_c, 0, 67, 33
2, 658548, Note_on_c, 0, 67, 0
2, 658560, Note_on_c, 0, 65, 30
2, 658655, Note_on_c, 0, 67, 0
2, 658668, Note_on_c, 0, 65, 0
2, 658679, Note_on_c, 0, 62, 24
2, 658789, Note_on_c, 0, 62, 0
2, 658800, Note_on_c, 0, 45, 40
2, 658920, Note_on_c, 0, 62, 25
2, 659028, Note_on_c, 0, 62, 0
2, 659039, Note_on_c, 0, 65, 34
2, 659149, Note_on_c, 0, 65, 0
2, 659160, Note_on_c, 0, 69, 25
2, 659160, Note_on_c, 0, 69, 32
2, 659268, Note_on_c, 0, 69, 0
2, 659280, Note_on_c, 0, 65, 26
2, 659375, Note_on_c, 0, 69, 0
2, 659388, Note_on_c, 0, 65, 0
2, 659399, Note_on_c, 0, 62, 28
2, 659450, Note_on_c, 0, 45, 0
2, 659509, Note_on_c, 0, 62, 0
2, 659520, Note_on_c, 0, 53, 0
2, 659520, Note_on_c, 0, 50, 46
2, 659640, Note_on_c, 0, 57, 26
2, 659748, Note_on_c, 0, 57, 0
2, 659759, Note_on_c, 0, 62, 32
2, 659869, Note_on_c, 0, 62, 0
2, 659880, Note_on_c, 0, 64, 26
2, 659880, Note_on_c, 0, 64, 34
2, 659988, Note_on_c, 0, 64, 0
2, 660000, Note_on_c, 0, 62, 29
2, 660095, Note_on_c, 0, 64, 0
2, 660108, Note_on_c, 0, 62, 0
2, 660119, Note_on_c, 0, 57, 25
2, 660229, Note_on_c, 0, 57, 0
2, 660240, Note_on_c, 0, 41, 39
2, 660360, Note_on_c, 0, 57, 25
2, 660468, Note_on_c, 0, 57, 0
2, 660479, Note_on_c, 0, 62, 34
2, 660589, Note_on_c, 0, 62, 0
2, 660600, Note_on_c, 0, 65, 26
2, 660600, Note_on_c, 0, 65, 33
2, 660708, Note_on_c, 0, 65, 0
2, 660720, Note_on_c, 0, 62, 28
2, 660815, Note_on_c, 0, 65, 0
2, 660828, Note_on_c, 0, 62, 0
2, 660839, Note_on_c, 0, 57, 25
2, 660890, Note_on_c, 0, 41, 0
2, 660949, Note_on_c, 0, 57, 0
2, 660960, Note_on_c, 0, 50, 0
2, 660960, Note_on_c, 0, 69, 58
2, 660960, Note_on_c, 0, 48, 45
2, 661080, Note_on_c, 0, 53, 36
2, 661188, Note_on_c, 0, 53, 0
2, 661199, Note_on_c, 0, 57, 47
2, 661309, Note_on_c, 0, 57, 0
2, 661320, Note_on_c, 0, 60, 39
2, 661320, Note_on_c, 0, 60, 47
2, 661428, Note_on_c, 0, 60, 0
2, 661440, Note_on_c, 0, 57, 39
2, 661535, Note_on_c, 0, 60, 0
2, 661548, Note_on_c, 0, 57, 0
2, 661559, Note_on_c, 0, 53, 38
2, 661669, Note_on_c, 0, 53, 0
2, 661680, Note_on_c, 0, 38, 37
2, 661800, Note_on_c, 0, 53, 37
2, 661908, Note_on_c, 0, 53, 0
2, 661919, Note_on_c, 0, 57, 48
2, 662029, Note_on_c, 0, 57, 0
2, 662040, Note_on_c, 0, 69, 0
2, 662040, Note_on_c, 0, 70, 63
2, 662040, Note_on_c, 0, 62, 39
2, 662040, Note_on_c, 0, 62, 51
2, 662148, Note_on_c, 0, 62, 0
2, 662160, Note_on_c, 0, 57, 38
2, 662255, Note_on_c, 0, 62, 0
2, 662268, Note_on_c, 0, 57, 0
2, 662279, Note_on_c, 0, 53, 36
2, 662330, Note_on_c, 0, 38, 0
2, 662389, Note_on_c, 0, 53, 0
2, 662400, Note_on_c, 0, 70, 0
2, 662400, Note_on_c, 0, 48, 0
2, 662400, Note_on_c, 0, 70, 65
2, 662400, Note_on_c, 0, 46, 48
2, 662520, Note_on_c, 0, 53, 44
2, 662628, Note_on_c, 0, 53, 0
2, 662639, Note_on_c, 0, 58, 49
2, 662749, Note_on_c, 0, 58, 0
2, 662760, Note_on_c, 0, 60, 38
2, 662760, Note_on_c, 0, 60, 48
2, 662868, Note_on_c, 0, 60, 0
2, 662880, Note_on_c, 0, 58, 38
2, 662975, Note_on_c, 0, 60, 0
2, 662988, Note_on_c, 0, 58, 0
2, 662999, Note_on_c, 0, 53, 38
2, 663109, Note_on_c, 0, 53, 0
2, 663120, Note_on_c, 0, 38, 41
2, 663240, Note_on_c, 0, 53, 43
2, 663348, Note_on_c, 0, 53, 0
2, 663359, Note_on_c, 0, 58, 48
2, 663469, Note_on_c, 0, 58, 0
2, 663480, Note_on_c, 0, 62, 46
2, 663480, Note_on_c, 0, 62, 48
2, 663588, Note_on_c, 0, 62, 0
2, 663600, Note_on_c, 0, 58, 37
2, 663695, Note_on_c, 0, 62, 0
2, 663708, Note_on_c, 0, 58, 0
2, 663719, Note_on_c, 0, 53, 36
2, 663770, Note_on_c, 0, 38, 0
2, 663829, Note_on_c, 0, 53, 0
2, 663840, Note_on_c, 0, 46, 0
2, 663840, Note_on_c, 0, 70, 0
2, 663840, Note_on_c, 0, 74, 65
2, 663840, Note_on_c, 0, 46, 52
2, 663960, Note_on_c, 0, 52, 38
2, 664068, Note_on_c, 0, 52, 0
2, 664079, Note_on_c, 0, 55, 45
2, 664189, Note_on_c, 0, 55, 0
2, 664200, Note_on_c, 0, 60, 36
2, 664200, Note_on_c, 0, 60, 50
2, 664308, Note_on_c, 0, 60, 0
2, 664320, Note_on_c, 0, 55, 36
2, 664415, Note_on_c, 0, 60, 0
2, 664428, Note_on_c, 0, 55, 0
2, 664439, Note_on_c, 0, 52, 39
2, 664549, Note_on_c, 0, 52, 0
2, 664560, Note_on_c, 0, 38, 37
2, 664680, Note_on_c, 0, 52, 39
2, 664723, Note_on_c, 0, 74, 0
2, 664788, Note_on_c, 0, 52, 0
2, 664799, Note_on_c, 0, 55, 47
2, 664909, Note_on_c, 0, 55, 0
2, 664920, Note_on_c, 0, 67, 48
2, 664920, Note_on_c, 0, 62, 36
2, 664920, Note_on_c, 0, 62, 53
2, 665028, Note_on_c, 0, 62, 0
2, 665040, Note_on_c, 0, 55, 37
2, 665135, Note_on_c, 0, 62, 0
2, 665148, Note_on_c, 0, 55, 0
2, 665159, Note_on_c, 0, 52, 39
2, 665210, Note_on_c, 0, 38, 0
2, 665245, Note_on_c, 0, 67, 0
2, 665269, Note_on_c, 0, 52, 0
2, 665280, Note_on_c, 0, 46, 0
2, 665280, Note_on_c, 0, 69, 67
2, 665280, Note_on_c, 0, 45, 49
2, 665400, Note_on_c, 0, 50, 37
2, 665508, Note_on_c, 0, 50, 0
2, 665519, Note_on_c, 0, 53, 47
2, 665629, Note_on_c, 0, 53, 0
2, 665640, Note_on_c, 0, 60, 38
2, 665640, Note_on_c, 0, 60, 54
2, 665748, Note_on_c, 0, 60, 0
2, 665760, Note_on_c, 0, 53, 33
2, 665855, Note_on_c, 0, 60, 0
2, 665868, Note_on_c, 0, 53, 0
2, 665879, Note_on_c, 0, 50, 36
2, 665989, Note_on_c, 0, 50, 0
2, 666000, Note_on_c, 0, 38, 37
2, 666120, Note_on_c, 0, 50, 38
2, 666228, Note_on_c, 0, 50, 0
2, 666239, Note_on_c, 0, 53, 47
2, 666349, Note_on_c, 0, 53, 0
2, 666360, Note_on_c, 0, 62, 38
2, 666360, Note_on_c, 0, 62, 53
2, 666468, Note_on_c, 0, 62, 0
2, 666480, Note_on_c, 0, 53, 35
2, 666575, Note_on_c, 0, 62, 0
2, 666588, Note_on_c, 0, 53, 0
2, 666599, Note_on_c, 0, 50, 39
2, 666650, Note_on_c, 0, 38, 0
2, 666709, Note_on_c, 0, 50, 0
2, 666720, Note_on_c, 0, 45, 0
2, 666720, Note_on_c, 0, 69, 0
2, 666720, Note_on_c, 0, 74, 64
2, 666720, Note_on_c, 0, 44, 47
2, 666840, Note_on_c, 0, 50, 37
2, 666948, Note_on_c, 0, 50, 0
2, 666959, Note_on_c, 0, 53, 45
2, 667069, Note_on_c, 0, 53, 0
2, 667080, Note_on_c, 0, 60, 39
2, 667080, Note_on_c, 0, 60, 52
2, 667188, Note_on_c, 0, 60, 0
2, 667200, Note_on_c, 0, 53, 36
2, 667295, Note_on_c, 0, 60, 0
2, 667308, Note_on_c, 0, 53, 0
2, 667319, Note_on_c, 0, 50, 36
2, 667429, Note_on_c, 0, 50, 0
2, 667440, Note_on_c, 0, 38, 38
2, 667560, Note_on_c, 0, 50, 37
2, 667603, Note_on_c, 0, 74, 0
2, 667668, Note_on_c, 0, 50, 0
2, 667679, Note_on_c, 0, 53, 45
2, 667789, Note_on_c, 0, 53, 0
2, 667800, Note_on_c, 0, 65, 49
2, 667800, Note_on_c, 0, 62, 36
2, 667800, Note_on_c, 0, 62, 51
2, 667908, Note_on_c, 0, 62, 0
2, 667920, Note_on_c, 0, 53, 35
2, 668015, Note_on_c, 0, 62, 0
2, 668028, Note_on_c, 0, 53, 0
2, 668039, Note_on_c, 0, 50, 37
2, 668090, Note_on_c, 0, 38, 0
2, 668125, Note_on_c, 0, 65, 0
2, 668149, Note_on_c, 0, 50, 0
2, 668160, Note_on_c, 0, 44, 0
2, 668160, Note_on_c, 0, 67, 61
2, 668160, Note_on_c, 0, 43, 50
2, 668280, Note_on_c, 0, 50, 38
2, 668388, Note_on_c, 0, 50, 0
2, 668399, Note_on_c, 0, 53, 44
2, 668509, Note_on_c, 0, 53, 0
2, 668520, Note_on_c, 0, 59, 38
2, 668520, Note_on_c, 0, 59, 51
2, 668628, Note_on_c, 0, 59, 0
2, 668640, Note_on_c, 0, 53, 37
2, 668735, Note_on_c, 0, 59, 0
2, 668748, Note_on_c, 0, 53, 0
2, 668759, Note_on_c, 0, 50, 36
2, 668869, Note_on_c, 0, 50, 0
2, 668880, Note_on_c, 0, 38, 39
2, 669000, Note_on_c, 0, 50, 38
2, 669108, Note_on_c, 0, 50, 0
2, 669119, Note_on_c, 0, 53, 46
2, 669229, Note_on_c, 0, 53, 0
2, 669240, Note_on_c, 0, 62, 40
2, 669240, Note_on_c, 0, 62, 52
2, 669348, Note_on_c, 0, 62, 0
2, 669360, Note_on_c, 0, 53, 32
2, 669455, Note_on_c, 0, 62, 0
2, 669468, Note_on_c, 0, 53, 0
2, 669479, Note_on_c, 0, 50, 38
2, 669530, Note_on_c, 0, 38, 0
2, 669530, Note_on_c, 0, 67, 0
2, 669589, Note_on_c, 0, 50, 0
2, 669600, Note_on_c, 0, 43, 0
2, 669600, Note_on_c, 0, 74, 77
2, 669600, Note_on_c, 0, 44, 53
2, 669720, Note_on_c, 0, 50, 39
2, 669828, Note_on_c, 0, 50, 0
2, 669839, Note_on_c, 0, 52, 46
2, 669949, Note_on_c, 0, 52, 0
2, 669960, Note_on_c, 0, 58, 37
2, 669960, Note_on_c, 0, 58, 50
2, 670068, Note_on_c, 0, 58, 0
2, 670080, Note_on_c, 0, 52, 35
2, 670175, Note_on_c, 0, 58, 0
2, 670188, Note_on_c, 0, 52, 0
2, 670199, Note_on_c, 0, 50, 36
2, 670309, Note_on_c, 0, 50, 0
2, 670320, Note_on_c, 0, 38, 36
2, 670440, Note_on_c, 0, 50, 38
2, 670548, Note_on_c, 0, 50, 0
2, 670559, Note_on_c, 0, 52, 47
2, 670669, Note_on_c, 0, 52, 0
2, 670680, Note_on_c, 0, 74, 0
2, 670680, Note_on_c, 0, 74, 65
2, 670680, Note_on_c, 0, 62, 37
2, 670680, Note_on_c, 0, 62, 55
2, 670788, Note_on_c, 0, 62, 0
2, 670800, Note_on_c, 0, 52, 34
2, 670895, Note_on_c, 0, 62, 0
2, 670908, Note_on_c, 0, 52, 0
2, 670919, Note_on_c, 0, 50, 36
2, 670970, Note_on_c, 0, 38, 0
2, 671029, Note_on_c, 0, 50, 0
2, 671040, Note_on_c, 0, 74, 0
2, 671040, Note_on_c, 0, 44, 0
2, 671040, Note_on_c, 0, 74, 58
2, 671040, Note_on_c, 0, 45, 42
2, 671148, Note_on_c, 0, 45, 0
2, 671160, Note_on_c, 0, 53, 52
2, 671268, Note_on_c, 0, 53, 0
2, 671279, Note_on_c, 0, 45, 37
2, 671389, Note_on_c, 0, 45, 0
2, 671400, Note_on_c, 0, 53, 26
2, 671400, Note_on_c, 0, 57, 25
2, 671400, Note_on_c, 0, 60, 25
2, 671400, Note_on_c, 0, 38, 34
2, 671563, Note_on_c, 0, 60, 0
2, 671563, Note_on_c, 0, 57, 0
2, 671563, Note_on_c, 0, 53, 0
2, 671580, Note_on_c, 0, 50, 22
2, 671725, Note_on_c, 0, 38, 0
2, 671743, Note_on_c, 0, 50, 0
2, 671760, Note_on_c, 0, 33, 45
2, 671760, Note_on_c, 0, 38, 44
2, 671868, Note_on_c, 0, 38, 0
2, 671868, Note_on_c, 0, 33, 0
2, 671880, Note_on_c, 0, 45, 50
2, 671940, Note_on_c, 0, 50, 29
2, 671988, Note_on_c, 0, 45, 0
2, 671999, Note_on_c, 0, 38, 35
2, 672103, Note_on_c, 0, 50, 0
2, 672109, Note_on_c, 0, 38, 0
2, 672120, Note_on_c, 0, 53, 42
2, 672120, Note_on_c, 0, 57, 41
2, 672120, Note_on_c, 0, 62, 43
2, 672120, Note_on_c, 0, 33, 37
2, 672283, Note_on_c, 0, 62, 0
2, 672283, Note_on_c, 0, 57, 0
2, 672283, Note_on_c, 0, 53, 0
2, 672300, Note_on_c, 0, 50, 22
2, 672410, Note_on_c, 0, 74, 0
2, 672445, Note_on_c, 0, 33, 0
2, 672463, Note_on_c, 0, 50, 0
2, 672480, Note_on_c, 0, 45, 57
2, 672480, Note_on_c, 0, 50, 59
2, 672588, Note_on_c, 0, 50, 0
2, 672588, Note_on_c, 0, 45, 0
2, 672600, Note_on_c, 0, 57, 53
2, 672660, Note_on_c, 0, 53, 31
2, 672708, Note_on_c, 0, 57, 0
2, 672719, Note_on_c, 0, 50, 37
2, 672823, Note_on_c, 0, 53, 0
2, 672829, Note_on_c, 0, 50, 0
2, 672840, Note_on_c, 0, 57, 45
2, 672840, Note_on_c, 0, 60, 46
2, 672840, Note_on_c, 0, 65, 46
2, 672840, Note_on_c, 0, 45, 36
2, 673003, Note_on_c, 0, 65, 0
2, 673003, Note_on_c, 0, 57, 0
2, 673003, Note_on_c, 0, 60, 0
2, 673020, Note_on_c, 0, 53, 26
2, 673165, Note_on_c, 0, 45, 0
2, 673183, Note_on_c, 0, 53, 0
2, 673200, Note_on_c, 0, 38, 44
2, 673200, Note_on_c, 0, 45, 46
2, 673308, Note_on_c, 0, 45, 0
2, 673308, Note_on_c, 0, 38, 0
2, 673320, Note_on_c, 0, 50, 49
2, 673380, Note_on_c, 0, 57, 32
2, 673428, Note_on_c, 0, 50, 0
2, 673439, Note_on_c, 0, 45, 36
2, 673543, Note_on_c, 0, 57, 0
2, 673549, Note_on_c, 0, 45, 0
2, 673560, Note_on_c, 0, 62, 48
2, 673560, Note_on_c, 0, 65, 48
2, 673560, Note_on_c, 0, 69, 47
2, 673560, Note_on_c, 0, 38, 32
2, 673723, Note_on_c, 0, 69, 0
2, 673723, Note_on_c, 0, 62, 0
2, 673723, Note_on_c, 0, 65, 0
2, 673740, Note_on_c, 0, 57, 30
2, 673885, Note_on_c, 0, 38, 0
2, 673903, Note_on_c, 0, 57, 0
2, 673920, Note_on_c, 0, 62, 64
2, 673920, Note_on_c, 0, 53, 51
2, 673920, Note_on_c, 0, 57, 53
2, 674040, Note_on_c, 0, 69, 37
2, 674148, Note_on_c, 0, 69, 0
2, 674159, Note_on_c, 0, 65, 34
2, 674269, Note_on_c, 0, 65, 0
2, 674280, Note_on_c, 0, 62, 0
2, 674280, Note_on_c, 0, 72, 33
2, 674280, Note_on_c, 0, 72, 49
2, 674280, Note_on_c, 0, 60, 46
2, 674388, Note_on_c, 0, 72, 0
2, 674400, Note_on_c, 0, 60, 0
2, 674400, Note_on_c, 0, 69, 38
2, 674508, Note_on_c, 0, 69, 0
2, 674519, Note_on_c, 0, 65, 38
2, 674519, Note_on_c, 0, 60, 40
2, 674570, Note_on_c, 0, 53, 0
2, 674570, Note_on_c, 0, 57, 0
2, 674629, Note_on_c, 0, 60, 0
2, 674629, Note_on_c, 0, 65, 0
2, 674640, Note_on_c, 0, 72, 0
2, 674640, Note_on_c, 0, 62, 44
2, 674640, Note_on_c, 0, 45, 36
2, 674640, Note_on_c, 0, 53, 37
2, 674760, Note_on_c, 0, 69, 41
2, 674868, Note_on_c, 0, 69, 0
2, 674879, Note_on_c, 0, 65, 39
2, 674965, Note_on_c, 0, 62, 0
2, 674989, Note_on_c, 0, 65, 0
2, 675000, Note_on_c, 0, 74, 37
2, 675000, Note_on_c, 0, 74, 58
2, 675000, Note_on_c, 0, 57, 43
2, 675108, Note_on_c, 0, 74, 0
2, 675120, Note_on_c, 0, 57, 0
2, 675120, Note_on_c, 0, 69, 41
2, 675228, Note_on_c, 0, 69, 0
2, 675239, Note_on_c, 0, 65, 41
2, 675239, Note_on_c, 0, 45, 37
2, 675290, Note_on_c, 0, 45, 0
2, 675290, Note_on_c, 0, 53, 0
2, 675349, Note_on_c, 0, 45, 0
2, 675349, Note_on_c, 0, 65, 0
2, 675360, Note_on_c, 0, 74, 0
2, 675360, Note_on_c, 0, 38, 47
2, 675360, Note_on_c, 0, 45, 44
2, 675468, Note_on_c, 0, 45, 0
2, 675468, Note_on_c, 0, 38, 0
2, 675480, Note_on_c, 0, 53, 51
2, 675588, Note_on_c, 0, 53, 0
2, 675599, Note_on_c, 0, 45, 36
2, 675709, Note_on_c, 0, 45, 0
2, 675720, Note_on_c, 0, 54, 41
2, 675720, Note_on_c, 0, 57, 43
2, 675720, Note_on_c, 0, 60, 41
2, 675720, Note_on_c, 0, 38, 32
2, 675883, Note_on_c, 0, 60, 0
2, 675883, Note_on_c, 0, 54, 0
2, 675883, Note_on_c, 0, 57, 0
2, 675900, Note_on_c, 0, 50, 36
2, 676045, Note_on_c, 0, 38, 0
2, 676063, Note_on_c, 0, 50, 0
2, 676080, Note_on_c, 0, 33, 44
2, 676080, Note_on_c, 0, 38, 43
2, 676188, Note_on_c, 0, 38, 0
2, 676188, Note_on_c, 0, 33, 0
2, 676200, Note_on_c, 0, 45, 52
2, 676260, Note_on_c, 0, 50, 46
2, 676308, Note_on_c, 0, 45, 0
2, 676319, Note_on_c, 0, 38, 36
2, 676423, Note_on_c, 0, 50, 0
2, 676429, Note_on_c, 0, 38, 0
2, 676440, Note_on_c, 0, 54, 64
2, 676440, Note_on_c, 0, 57, 64
2, 676440, Note_on_c, 0, 62, 64
2, 676440, Note_on_c, 0, 33, 33
2, 676603, Note_on_c, 0, 62, 0
2, 676603, Note_on_c, 0, 54, 0
2, 676603, Note_on_c, 0, 57, 0
2, 676620, Note_on_c, 0, 50, 38
2, 676765, Note_on_c, 0, 33, 0
2, 676783, Note_on_c, 0, 50, 0
2, 676800, Note_on_c, 0, 45, 60
2, 676800, Note_on_c, 0, 50, 57
2, 676908, Note_on_c, 0, 50, 0
2, 676908, Note_on_c, 0, 45, 0
2, 676920, Note_on_c, 0, 57, 51
2, 676980, Note_on_c, 0, 54, 45
2, 677028, Note_on_c, 0, 57, 0
2, 677039, Note_on_c, 0, 50, 35
2, 677143, Note_on_c, 0, 54, 0
2, 677149, Note_on_c, 0, 50, 0
2, 677160, Note_on_c, 0, 57, 68
2, 677160, Note_on_c, 0, 60, 71
2, 677160, Note_on_c, 0, 66, 71
2, 677160, Note_on_c, 0, 45, 33
2, 677323, Note_on_c, 0, 66, 0
2, 677323, Note_on_c, 0, 57, 0
2, 677323, Note_on_c, 0, 60, 0
2, 677340, Note_on_c, 0, 54, 41
2, 677485, Note_on_c, 0, 45, 0
2, 677503, Note_on_c, 0, 54, 0
2, 677520, Note_on_c, 0, 38, 42
2, 677520, Note_on_c, 0, 45, 45
2, 677628, Note_on_c, 0, 45, 0
2, 677628, Note_on_c, 0, 38, 0
2, 677640, Note_on_c, 0, 50, 50
2, 677700, Note_on_c, 0, 57, 51
2, 677748, Note_on_c, 0, 50, 0
2, 677759, Note_on_c, 0, 45, 39
2, 677863, Note_on_c, 0, 57, 0
2, 677869, Note_on_c, 0, 45, 0
2, 677880, Note_on_c, 0, 60, 70
2, 677880, Note_on_c, 0, 66, 70
2, 677880, Note_on_c, 0, 69, 73
2, 677880, Note_on_c, 0, 38, 33
2, 678043, Note_on_c, 0, 69, 0
2, 678043, Note_on_c, 0, 60, 0
2, 678043, Note_on_c, 0, 66, 0
2, 678060, Note_on_c, 0, 57, 41
2, 678205, Note_on_c, 0, 38, 0
2, 678223, Note_on_c, 0, 57, 0
2, 678240, Note_on_c, 0, 62, 64
2, 678240, Note_on_c, 0, 54, 51
2, 678240, Note_on_c, 0, 57, 49
2, 678360, Note_on_c, 0, 69, 50
2, 678468, Note_on_c, 0, 69, 0
2, 678479, Note_on_c, 0, 66, 52
2, 678589, Note_on_c, 0, 66, 0
2, 678600, Note_on_c, 0, 62, 0
2, 678600, Note_on_c, 0, 72, 41
2, 678600, Note_on_c, 0, 72, 74
2, 678600, Note_on_c, 0, 60, 49
2, 678708, Note_on_c, 0, 72, 0
2, 678720, Note_on_c, 0, 60, 0
2, 678720, Note_on_c, 0, 69, 53
2, 678828, Note_on_c, 0, 69, 0
2, 678839, Note_on_c, 0, 66, 53
2, 678839, Note_on_c, 0, 60, 38
2, 678890, Note_on_c, 0, 54, 0
2, 678890, Note_on_c, 0, 57, 0
2, 678949, Note_on_c, 0, 60, 0
2, 678949, Note_on_c, 0, 66, 0
2, 678960, Note_on_c, 0, 72, 0
2, 678960, Note_on_c, 0, 62, 44
2, 678960, Note_on_c, 0, 45, 39
2, 678960, Note_on_c, 0, 54, 40
2, 679080, Note_on_c, 0, 69, 55
2, 679188, Note_on_c, 0, 69, 0
2, 679199, Note_on_c, 0, 66, 54
2, 679285, Note_on_c, 0, 62, 0
2, 679309, Note_on_c, 0, 66, 0
2, 679320, Note_on_c, 0, 74, 46
2, 679320, Note_on_c, 0, 74, 78
2, 679320, Note_on_c, 0, 57, 43
2, 679428, Note_on_c, 0, 74, 0
2, 679440, Note_on_c, 0, 57, 0
2, 679440, Note_on_c, 0, 66, 53
2, 679548, Note_on_c, 0, 66, 0
2, 679559, Note_on_c, 0, 62, 57
2, 679559, Note_on_c, 0, 45, 36
2, 679610, Note_on_c, 0, 45, 0
2, 679610, Note_on_c, 0, 54, 0
2, 679669, Note_on_c, 0, 45, 0
2, 679669, Note_on_c, 0, 62, 0
2, 679680, Note_on_c, 0, 74, 0
2, 679680, Note_on_c, 0, 38, 43
2, 679680, Note_on_c, 0, 43, 43
2, 679788, Note_on_c, 0, 43, 0
2, 679788, Note_on_c, 0, 38, 0
2, 679800, Note_on_c, 0, 53, 51
2, 679860, Note_on_c, 0, 53, 60
2, 679908, Note_on_c, 0, 53, 0
2, 679919, Note_on_c, 0, 43, 34
2, 680023, Note_on_c, 0, 53, 0
2, 680029, Note_on_c, 0, 43, 0
2, 680040, Note_on_c, 0, 55, 75
2, 680040, Note_on_c, 0, 59, 76
2, 680040, Note_on_c, 0, 38, 33
2, 680203, Note_on_c, 0, 59, 0
2, 680203, Note_on_c, 0, 55, 0
2, 680220, Note_on_c, 0, 53, 57
2, 680365, Note_on_c, 0, 38, 0
2, 680383, Note_on_c, 0, 53, 0
2, 680400, Note_on_c, 0, 31, 44
2, 680400, Note_on_c, 0, 38, 44
2, 680508, Note_on_c, 0, 38, 0
2, 680508, Note_on_c, 0, 31, 0
2, 680520, Note_on_c, 0, 45, 51
2, 680580, Note_on_c, 0, 50, 59
2, 680628, Note_on_c, 0, 45, 0
2, 680639, Note_on_c, 0, 38, 35
2, 680743, Note_on_c, 0, 50, 0
2, 680749, Note_on_c, 0, 38, 0
2, 680760, Note_on_c, 0, 53, 88
2, 680760, Note_on_c, 0, 55, 89
2, 680760, Note_on_c, 0, 62, 89
2, 680760, Note_on_c, 0, 31, 34
2, 680923, Note_on_c, 0, 62, 0
2, 680923, Note_on_c, 0, 53, 0
2, 680923, Note_on_c, 0, 55, 0
2, 680940, Note_on_c, 0, 50, 52
2, 681085, Note_on_c, 0, 31, 0
2, 681103, Note_on_c, 0, 50, 0
2, 681120, Note_on_c, 0, 43, 55
2, 681120, Note_on_c, 0, 50, 58
2, 681228, Note_on_c, 0, 50, 0
2, 681228, Note_on_c, 0, 43, 0
2, 681240, Note_on_c, 0, 55, 53
2, 681300, Note_on_c, 0, 53, 63
2, 681348, Note_on_c, 0, 55, 0
2, 681359, Note_on_c, 0, 50, 37
2, 681463, Note_on_c, 0, 53, 0
2, 681469, Note_on_c, 0, 50, 0
2, 681480, Note_on_c, 0, 59, 93
2, 681480, Note_on_c, 0, 65, 91
2, 681480, Note_on_c, 0, 43, 33
2, 681643, Note_on_c, 0, 65, 0
2, 681643, Note_on_c, 0, 59, 0
2, 681660, Note_on_c, 0, 53, 55
2, 681805, Note_on_c, 0, 43, 0
2, 681823, Note_on_c, 0, 53, 0
2, 681840, Note_on_c, 0, 38, 44
2, 681840, Note_on_c, 0, 43, 45
2, 681948, Note_on_c, 0, 43, 0
2, 681948, Note_on_c, 0, 38, 0
2, 681960, Note_on_c, 0, 50, 51
2, 682020, Note_on_c, 0, 55, 66
2, 682068, Note_on_c, 0, 50, 0
2, 682079, Note_on_c, 0, 43, 36
2, 682183, Note_on_c, 0, 55, 0
2, 682189, Note_on_c, 0, 43, 0
2, 682200, Note_on_c, 0, 59, 97
2, 682200, Note_on_c, 0, 65, 94
2, 682200, Note_on_c, 0, 67, 94
2, 682200, Note_on_c, 0, 38, 35
2, 682363, Note_on_c, 0, 67, 0
2, 682363, Note_on_c, 0, 59, 0
2, 682363, Note_on_c, 0, 65, 0
2, 682380, Note_on_c, 0, 55, 56
2, 682525, Note_on_c, 0, 38, 0
2, 682543, Note_on_c, 0, 55, 0
2, 682560, Note_on_c, 0, 62, 66
2, 682560, Note_on_c, 0, 53, 53
2, 682560, Note_on_c, 0, 59, 51
2, 682680, Note_on_c, 0, 67, 68
2, 682788, Note_on_c, 0, 67, 0
2, 682799, Note_on_c, 0, 65, 72
2, 682909, Note_on_c, 0, 65, 0
2, 682920, Note_on_c, 0, 62, 0
2, 682920, Note_on_c, 0, 71, 51
2, 682920, Note_on_c, 0, 71, 93
2, 682920, Note_on_c, 0, 59, 47
2, 683028, Note_on_c, 0, 71, 0
2, 683040, Note_on_c, 0, 59, 0
2, 683040, Note_on_c, 0, 67, 69
2, 683148, Note_on_c, 0, 67, 0
2, 683159, Note_on_c, 0, 65, 71
2, 683159, Note_on_c, 0, 59, 39
2, 683210, Note_on_c, 0, 59, 0
2, 683210, Note_on_c, 0, 53, 0
2, 683269, Note_on_c, 0, 59, 0
2, 683269, Note_on_c, 0, 65, 0
2, 683280, Note_on_c, 0, 71, 0
2, 683280, Note_on_c, 0, 62, 48
2, 683280, Note_on_c, 0, 47, 39
2, 683280, Note_on_c, 0, 55, 40
2, 683400, Note_on_c, 0, 67, 73
2, 683508, Note_on_c, 0, 67, 0
2, 683519, Note_on_c, 0, 65, 75
2, 683605, Note_on_c, 0, 62, 0
2, 683629, Note_on_c, 0, 65, 0
2, 683640, Note_on_c, 0, 74, 54
2, 683640, Note_on_c, 0, 74, 105
2, 683640, Note_on_c, 0, 55, 38
2, 683748, Note_on_c, 0, 74, 0
2, 683760, Note_on_c, 0, 55, 0
2, 683760, Note_on_c, 0, 65, 68
2, 683868, Note_on_c, 0, 65, 0
2, 683879, Note_on_c, 0, 62, 71
2, 683879, Note_on_c, 0, 43, 38
2, 683930, Note_on_c, 0, 55, 0
2, 683930, Note_on_c, 0, 47, 0
2, 683989, Note_on_c, 0, 62, 0
2, 684000, Note_on_c, 0, 74, 0
2, 684000, Note_on_c, 0, 38, 46
2, 684108, Note_on_c, 0, 38, 0
2, 684108, Note_on_c, 0, 43, 0
2, 684120, Note_on_c, 0, 50, 52
2, 684180, Note_on_c, 0, 52, 73
2, 684228, Note_on_c, 0, 50, 0
2, 684239, Note_on_c, 0, 43, 33
2, 684343, Note_on_c, 0, 52, 0
2, 684349, Note_on_c, 0, 43, 0
2, 684360, Note_on_c, 0, 55, 95
2, 684360, Note_on_c, 0, 58, 96
2, 684360, Note_on_c, 0, 38, 33
2, 684523, Note_on_c, 0, 58, 0
2, 684523, Note_on_c, 0, 55, 0
2, 684540, Note_on_c, 0, 52, 71
2, 684685, Note_on_c, 0, 38, 0
2, 684703, Note_on_c, 0, 52, 0
2, 684720, Note_on_c, 0, 34, 42
2, 684720, Note_on_c, 0, 38, 43
2, 684828, Note_on_c, 0, 38, 0
2, 684828, Note_on_c, 0, 34, 0
2, 684840, Note_on_c, 0, 43, 50
2, 684900, Note_on_c, 0, 52, 77
2, 684948, Note_on_c, 0, 43, 0
2, 684959, Note_on_c, 0, 38, 37
2, 685063, Note_on_c, 0, 52, 0
2, 685069, Note_on_c, 0, 38, 0
2, 685080, Note_on_c, 0, 55, 108
2, 685080, Note_on_c, 0, 62, 108
2, 685080, Note_on_c, 0, 34, 38
2, 685243, Note_on_c, 0, 62, 0
2, 685243, Note_on_c, 0, 55, 0
2, 685260, Note_on_c, 0, 52, 72
2, 685405, Note_on_c, 0, 34, 0
2, 685423, Note_on_c, 0, 52, 0
2, 685440, Note_on_c, 0, 62, 120
2, 685440, Note_on_c, 0, 43, 60
2, 685440, Note_on_c, 0, 50, 60
2, 685548, Note_on_c, 0, 50, 0
2, 685548, Note_on_c, 0, 43, 0
2, 685560, Note_on_c, 0, 55, 51
2, 685668, Note_on_c, 0, 55, 0
2, 685679, Note_on_c, 0, 58, 55
2, 685679, Note_on_c, 0, 50, 37
2, 685789, Note_on_c, 0, 50, 0
2, 685789, Note_on_c, 0, 58, 0
2, 685800, Note_on_c, 0, 62, 0
2, 685800, Note_on_c, 0, 64, 75
2, 685800, Note_on_c, 0, 61, 96
2, 685800, Note_on_c, 0, 43, 32
2, 685908, Note_on_c, 0, 64, 0
2, 685920, Note_on_c, 0, 58, 56
2, 686028, Note_on_c, 0, 58, 0
2, 686039, Note_on_c, 0, 52, 52
2, 686125, Note_on_c, 0, 43, 0
2, 686149, Note_on_c, 0, 52, 0
2, 686160, Note_on_c, 0, 61, 0
2, 686160, Note_on_c, 0, 62, 101
2, 686160, Note_on_c, 0, 38, 45
2, 686160, Note_on_c, 0, 43, 43
2, 686268, Note_on_c, 0, 43, 0
2, 686268, Note_on_c, 0, 38, 0
2, 686280, Note_on_c, 0, 50, 53
2, 686388, Note_on_c, 0, 50, 0
2, 686399, Note_on_c, 0, 55, 60
2, 686399, Note_on_c, 0, 43, 33
2, 686509, Note_on_c, 0, 43, 0
2, 686509, Note_on_c, 0, 55, 0
2, 686520, Note_on_c, 0, 62, 0
2, 686520, Note_on_c, 0, 67, 89
2, 686520, Note_on_c, 0, 58, 90
2, 686520, Note_on_c, 0, 38, 35
2, 686628, Note_on_c, 0, 67, 0
2, 686640, Note_on_c, 0, 62, 60
2, 686748, Note_on_c, 0, 62, 0
2, 686759, Note_on_c, 0, 55, 55
2, 686845, Note_on_c, 0, 38, 0
2, 686869, Note_on_c, 0, 55, 0
2, 686880, Note_on_c, 0, 58, 0
2, 686880, Note_on_c, 0, 62, 90
2, 686880, Note_on_c, 0, 55, 51
2, 686880, Note_on_c, 0, 58, 50
2, 687000, Note_on_c, 0, 67, 84
2, 687108, Note_on_c, 0, 67, 0
2, 687119, Note_on_c, 0, 64, 86
2, 687205, Note_on_c, 0, 62, 0
2, 687229, Note_on_c, 0, 64, 0
2, 687240, Note_on_c, 0, 70, 68
2, 687240, Note_on_c, 0, 70, 116
2, 687240, Note_on_c, 0, 61, 66
2, 687348, Note_on_c, 0, 61, 0
2, 687348, Note_on_c, 0, 70, 0
2, 687360, Note_on_c, 0, 67, 88
2, 687468, Note_on_c, 0, 67, 0
2, 687479, Note_on_c, 0, 64, 88
2, 687479, Note_on_c, 0, 61, 58
2, 687530, Note_on_c, 0, 55, 0
2, 687530, Note_on_c, 0, 58, 0
2, 687589, Note_on_c, 0, 61, 0
2, 687589, Note_on_c, 0, 64, 0
2, 687600, Note_on_c, 0, 70, 0
2, 687600, Note_on_c, 0, 62, 68
2, 687600, Note_on_c, 0, 46, 38
2, 687600, Note_on_c, 0, 52, 40
2, 687600, Note_on_c, 0, 55, 41
2, 687720, Note_on_c, 0, 67, 89
2, 687828, Note_on_c, 0, 67, 0
2, 687839, Note_on_c, 0, 64, 91
2, 687925, Note_on_c, 0, 62, 0
2, 687949, Note_on_c, 0, 64, 0
2, 687960, Note_on_c, 0, 70, 71
2, 687960, Note_on_c, 0, 70, 118
2, 687960, Note_on_c, 0, 52, 52
2, 688068, Note_on_c, 0, 70, 0
2, 688068, Note_on_c, 0, 52, 0
2, 688080, Note_on_c, 0, 70, 102
2, 688188, Note_on_c, 0, 70, 0
2, 688199, Note_on_c, 0, 79, 122
2, 688199, Note_on_c, 0, 52, 37
2, 688250, Note_on_c, 0, 46, 0
2, 688250, Note_on_c, 0, 55, 0
2, 688250, Note_on_c, 0, 52, 0
2, 688309, Note_on_c, 0, 52, 0
2, 688309, Note_on_c, 0, 79, 0
2, 688320, Note_on_c, 0, 70, 0
2, 688320, Note_on_c, 0, 74, 119
2, 688320, Note_on_c, 0, 81, 118
2, 688320, Note_on_c, 0, 86, 116
2, 688320, Note_on_c, 0, 38, 57
2, 688320, Note_on_c, 0, 45, 54
2, 688559, Note_on_c, 0, 53, 39
2, 688645, Note_on_c, 0, 86, 0
2, 688645, Note_on_c, 0, 74, 0
2, 688645, Note_on_c, 0, 81, 0
2, 688669, Note_on_c, 0, 53, 0
2, 688680, Note_on_c, 0, 72, 88
2, 688680, Note_on_c, 0, 79, 88
2, 688680, Note_on_c, 0, 84, 87
2, 688680, Note_on_c, 0, 60, 53
2, 688680, Note_on_c, 0, 60, 43
2, 688788, Note_on_c, 0, 60, 0
2, 688788, Note_on_c, 0, 79, 0
2, 688788, Note_on_c, 0, 72, 0
2, 688788, Note_on_c, 0, 84, 0
2, 688800, Note_on_c, 0, 57, 38
2, 688908, Note_on_c, 0, 57, 0
2, 688919, Note_on_c, 0, 84, 83
2, 688919, Note_on_c, 0, 53, 38
2, 689029, Note_on_c, 0, 53, 0
2, 689029, Note_on_c, 0, 84, 0
2, 689040, Note_on_c, 0, 60, 0
2, 689040, Note_on_c, 0, 74, 94
2, 689040, Note_on_c, 0, 81, 96
2, 689040, Note_on_c, 0, 86, 93
2, 689040, Note_on_c, 0, 45, 33
2, 689148, Note_on_c, 0, 45, 0
2, 689160, Note_on_c, 0, 53, 48
2, 689268, Note_on_c, 0, 53, 0
2, 689279, Note_on_c, 0, 57, 49
2, 689365, Note_on_c, 0, 74, 0
2, 689365, Note_on_c, 0, 81, 0
2, 689365, Note_on_c, 0, 86, 0
2, 689389, Note_on_c, 0, 57, 0
2, 689400, Note_on_c, 0, 69, 77
2, 689400, Note_on_c, 0, 74, 78
2, 689400, Note_on_c, 0, 81, 78
2, 689400, Note_on_c, 0, 62, 53
2, 689400, Note_on_c, 0, 62, 44
2, 689508, Note_on_c, 0, 62, 0
2, 689508, Note_on_c, 0, 74, 0
2, 689508, Note_on_c, 0, 69, 0
2, 689508, Note_on_c, 0, 81, 0
2, 689520, Note_on_c, 0, 57, 38
2, 689628, Note_on_c, 0, 57, 0
2, 689639, Note_on_c, 0, 81, 82
2, 689639, Note_on_c, 0, 53, 37
2, 689690, Note_on_c, 0, 45, 0
2, 689690, Note_on_c, 0, 38, 0
2, 689749, Note_on_c, 0, 81, 0
2, 689749, Note_on_c, 0, 53, 0
2, 689760, Note_on_c, 0, 62, 0
2, 689760, Note_on_c, 0, 72, 100
2, 689760, Note_on_c, 0, 77, 102
2, 689760, Note_on_c, 0, 84, 100
2, 689760, Note_on_c, 0, 50, 38
2, 689868, Note_on_c, 0, 50, 0
2, 689880, Note_on_c, 0, 57, 49
2, 689988, Note_on_c, 0, 57, 0
2, 689999, Note_on_c, 0, 60, 49
2, 690085, Note_on_c, 0, 84, 0
2, 690085, Note_on_c, 0, 72, 0
2, 690085, Note_on_c, 0, 77, 0
2, 690109, Note_on_c, 0, 60, 0
2, 690120, Note_on_c, 0, 72, 75
2, 690120, Note_on_c, 0, 77, 75
2, 690120, Note_on_c, 0, 65, 41
2, 690120, Note_on_c, 0, 65, 53
2, 690228, Note_on_c, 0, 65, 0
2, 690228, Note_on_c, 0, 72, 0
2, 690228, Note_on_c, 0, 77, 0
2, 690240, Note_on_c, 0, 60, 39
2, 690348, Note_on_c, 0, 60, 0
2, 690359, Note_on_c, 0, 77, 80
2, 690359, Note_on_c, 0, 57, 37
2, 690469, Note_on_c, 0, 57, 0
2, 690469, Note_on_c, 0, 77, 0
2, 690480, Note_on_c, 0, 65, 0
2, 690480, Note_on_c, 0, 69, 98
2, 690480, Note_on_c, 0, 74, 99
2, 690480, Note_on_c, 0, 81, 98
2, 690480, Note_on_c, 0, 53, 41
2, 690588, Note_on_c, 0, 53, 0
2, 690600, Note_on_c, 0, 57, 46
2, 690708, Note_on_c, 0, 57, 0
2, 690719, Note_on_c, 0, 62, 48
2, 690805, Note_on_c, 0, 81, 0
2, 690805, Note_on_c, 0, 69, 0
2, 690805, Note_on_c, 0, 74, 0
2, 690829, Note_on_c, 0, 62, 0
2, 690840, Note_on_c, 0, 74, 75
2, 690840, Note_on_c, 0, 69, 42
2, 690840, Note_on_c, 0, 69, 57
2, 690948, Note_on_c, 0, 69, 0
2, 690948, Note_on_c, 0, 74, 0
2, 690960, Note_on_c, 0, 65, 39
2, 691068, Note_on_c, 0, 65, 0
2, 691079, Note_on_c, 0, 74, 81
2, 691079, Note_on_c, 0, 62, 38
2, 691189, Note_on_c, 0, 62, 0
2, 691189, Note_on_c, 0, 74, 0
2, 691200, Note_on_c, 0, 69, 0
2, 691200, Note_on_c, 0, 77, 100
2, 691200, Note_on_c, 0, 62, 56
2, 691200, Note_on_c, 0, 57, 37
2, 691308, Note_on_c, 0, 77, 0
2, 691320, Note_on_c, 0, 69, 71
2, 691428, Note_on_c, 0, 69, 0
2, 691439, Note_on_c, 0, 65, 77
2, 691525, Note_on_c, 0, 57, 0
2, 691525, Note_on_c, 0, 62, 0
2, 691549, Note_on_c, 0, 65, 0
2, 691560, Note_on_c, 0, 72, 109
2, 691560, Note_on_c, 0, 72, 84
2, 691560, Note_on_c, 0, 60, 63
2, 691668, Note_on_c, 0, 60, 0
2, 691668, Note_on_c, 0, 72, 0
2, 691680, Note_on_c, 0, 69, 84
2, 691788, Note_on_c, 0, 69, 0
2, 691799, Note_on_c, 0, 65, 79
2, 691799, Note_on_c, 0, 60, 59
2, 691909, Note_on_c, 0, 60, 0
2, 691909, Note_on_c, 0, 65, 0
2, 691920, Note_on_c, 0, 72, 0
2, 691920, Note_on_c, 0, 62, 70
2, 691920, Note_on_c, 0, 45, 37
2, 691920, Note_on_c, 0, 53, 37
2, 692040, Note_on_c, 0, 69, 80
2, 692148, Note_on_c, 0, 69, 0
2, 692159, Note_on_c, 0, 65, 78
2, 692245, Note_on_c, 0, 62, 0
2, 692269, Note_on_c, 0, 65, 0
2, 692280, Note_on_c, 0, 74, 111
2, 692280, Note_on_c, 0, 74, 101
2, 692280, Note_on_c, 0, 57, 59
2, 692388, Note_on_c, 0, 57, 0
2, 692388, Note_on_c, 0, 74, 0
2, 692400, Note_on_c, 0, 74, 95
2, 692508, Note_on_c, 0, 74, 0
2, 692519, Note_on_c, 0, 81, 110
2, 692519, Note_on_c, 0, 45, 39
2, 692570, Note_on_c, 0, 45, 0
2, 692570, Note_on_c, 0, 53, 0
2, 692629, Note_on_c, 0, 81, 0
2, 692640, Note_on_c, 0, 74, 0
2, 692640, Note_on_c, 0, 74, 109
2, 692640, Note_on_c, 0, 78, 111
2, 692640, Note_on_c, 0, 86, 109
2, 692640, Note_on_c, 0, 38, 46
2, 692879, Note_on_c, 0, 54, 37
2, 692965, Note_on_c, 0, 86, 0
2, 692965, Note_on_c, 0, 78, 0
2, 692965, Note_on_c, 0, 74, 0
2, 692989, Note_on_c, 0, 54, 0
2, 693000, Note_on_c, 0, 72, 87
2, 693000, Note_on_c, 0, 78, 86
2, 693000, Note_on_c, 0, 84, 89
2, 693000, Note_on_c, 0, 60, 51
2, 693000, Note_on_c, 0, 60, 41
2, 693108, Note_on_c, 0, 60, 0
2, 693108, Note_on_c, 0, 78, 0
2, 693108, Note_on_c, 0, 72, 0
2, 693108, Note_on_c, 0, 84, 0
2, 693120, Note_on_c, 0, 57, 40
2, 693228, Note_on_c, 0, 57, 0
2, 693239, Note_on_c, 0, 84, 80
2, 693239, Note_on_c, 0, 54, 36
2, 693349, Note_on_c, 0, 54, 0
2, 693349, Note_on_c, 0, 84, 0
2, 693360, Note_on_c, 0, 60, 0
2, 693360, Note_on_c, 0, 74, 95
2, 693360, Note_on_c, 0, 81, 94
2, 693360, Note_on_c, 0, 86, 96
2, 693360, Note_on_c, 0, 45, 32
2, 693468, Note_on_c, 0, 45, 0
2, 693480, Note_on_c, 0, 54, 52
2, 693588, Note_on_c, 0, 54, 0
2, 693599, Note_on_c, 0, 57, 48
2, 693685, Note_on_c, 0, 74, 0
2, 693685, Note_on_c, 0, 81, 0
2, 693685, Note_on_c, 0, 86, 0
2, 693709, Note_on_c, 0, 57, 0
2, 693720, Note_on_c, 0, 69, 81
2, 693720, Note_on_c, 0, 74, 78
2, 693720, Note_on_c, 0, 81, 78
2, 693720, Note_on_c, 0, 62, 51
2, 693720, Note_on_c, 0, 62, 42
2, 693828, Note_on_c, 0, 62, 0
2, 693828, Note_on_c, 0, 74, 0
2, 693828, Note_on_c, 0, 69, 0
2, 693828, Note_on_c, 0, 81, 0
2, 693840, Note_on_c, 0, 57, 35
2, 693948, Note_on_c, 0, 57, 0
2, 693959, Note_on_c, 0, 81, 81
2, 693959, Note_on_c, 0, 54, 38
2, 694010, Note_on_c, 0, 45, 0
2, 694010, Note_on_c, 0, 38, 0
2, 694069, Note_on_c, 0, 81, 0
2, 694069, Note_on_c, 0, 54, 0
2, 694080, Note_on_c, 0, 62, 0
2, 694080, Note_on_c, 0, 72, 101
2, 694080, Note_on_c, 0, 78, 99
2, 694080, Note_on_c, 0, 84, 100
2, 694080, Note_on_c, 0, 50, 40
2, 694188, Note_on_c, 0, 50, 0
2, 694200, Note_on_c, 0, 57, 51
2, 694308, Note_on_c, 0, 57, 0
2, 694319, Note_on_c, 0, 60, 48
2, 694405, Note_on_c, 0, 84, 0
2, 694405, Note_on_c, 0, 72, 0
2, 694405, Note_on_c, 0, 78, 0
2, 694429, Note_on_c, 0, 60, 0
2, 694440, Note_on_c, 0, 72, 77
2, 694440, Note_on_c, 0, 78, 78
2, 694440, Note_on_c, 0, 66, 44
2, 694440, Note_on_c, 0, 66, 54
2, 694548, Note_on_c, 0, 66, 0
2, 694548, Note_on_c, 0, 72, 0
2, 694548, Note_on_c, 0, 78, 0
2, 694560, Note_on_c, 0, 60, 36
2, 694668, Note_on_c, 0, 60, 0
2, 694679, Note_on_c, 0, 78, 79
2, 694679, Note_on_c, 0, 57, 37
2, 694789, Note_on_c, 0, 57, 0
2, 694789, Note_on_c, 0, 78, 0
2, 694800, Note_on_c, 0, 66, 0
2, 694800, Note_on_c, 0, 69, 97
2, 694800, Note_on_c, 0, 74, 96
2, 694800, Note_on_c, 0, 81, 99
2, 694800, Note_on_c, 0, 54, 40
2, 694908, Note_on_c, 0, 54, 0
2, 694920, Note_on_c, 0, 57, 45
2, 695028, Note_on_c, 0, 57, 0
2, 695039, Note_on_c, 0, 62, 47
2, 695125, Note_on_c, 0, 81, 0
2, 695125, Note_on_c, 0, 69, 0
2, 695125, Note_on_c, 0, 74, 0
2, 695149, Note_on_c, 0, 62, 0
2, 695160, Note_on_c, 0, 74, 72
2, 695160, Note_on_c, 0, 69, 44
2, 695160, Note_on_c, 0, 69, 56
2, 695268, Note_on_c, 0, 69, 0
2, 695268, Note_on_c, 0, 74, 0
2, 695280, Note_on_c, 0, 66, 39
2, 695388, Note_on_c, 0, 66, 0
2, 695399, Note_on_c, 0, 74, 80
2, 695399, Note_on_c, 0, 62, 36
2, 695509, Note_on_c, 0, 62, 0
2, 695509, Note_on_c, 0, 74, 0
2, 695520, Note_on_c, 0, 69, 0
2, 695520, Note_on_c, 0, 78, 104
2, 695520, Note_on_c, 0, 62, 56
2, 695520, Note_on_c, 0, 57, 36
2, 695628, Note_on_c, 0, 78, 0
2, 695640, Note_on_c, 0, 69, 72
2, 695748, Note_on_c, 0, 69, 0
2, 695759, Note_on_c, 0, 66, 80
2, 695845, Note_on_c, 0, 57, 0
2, 695845, Note_on_c, 0, 62, 0
2, 695869, Note_on_c, 0, 66, 0
2, 695880, Note_on_c, 0, 72, 106
2, 695880, Note_on_c, 0, 72, 92
2, 695880, Note_on_c, 0, 60, 59
2, 695988, Note_on_c, 0, 60, 0
2, 695988, Note_on_c, 0, 72, 0
2, 696000, Note_on_c, 0, 69, 84
2, 696108, Note_on_c, 0, 69, 0
2, 696119, Note_on_c, 0, 66, 81
2, 696119, Note_on_c, 0, 60, 61
2, 696229, Note_on_c, 0, 60, 0
2, 696229, Note_on_c, 0, 66, 0
2, 696240, Note_on_c, 0, 72, 0
2, 696240, Note_on_c, 0, 62, 70
2, 696240, Note_on_c, 0, 45, 37
2, 696240, Note_on_c, 0, 54, 39
2, 696360, Note_on_c, 0, 69, 81
2, 696468, Note_on_c, 0, 69, 0
2, 696479, Note_on_c, 0, 66, 82
2, 696565, Note_on_c, 0, 62, 0
2, 696589, Note_on_c, 0, 66, 0
2, 696600, Note_on_c, 0, 74, 113
2, 696600, Note_on_c, 0, 74, 104
2, 696600, Note_on_c, 0, 57, 57
2, 696708, Note_on_c, 0, 57, 0
2, 696708, Note_on_c, 0, 74, 0
2, 696720, Note_on_c, 0, 74, 95
2, 696828, Note_on_c, 0, 74, 0
2, 696839, Note_on_c, 0, 81, 109
2, 696839, Note_on_c, 0, 45, 38
2, 696890, Note_on_c, 0, 45, 0
2, 696890, Note_on_c, 0, 54, 0
2, 696949, Note_on_c, 0, 45, 0
2, 696949, Note_on_c, 0, 81, 0
2, 696960, Note_on_c, 0, 74, 0
2, 696960, Note_on_c, 0, 74, 110
2, 696960, Note_on_c, 0, 79, 108
2, 696960, Note_on_c, 0, 86, 109
2, 696960, Note_on_c, 0, 38, 66
2, 696960, Note_on_c, 0, 43, 66
2, 697199, Note_on_c, 0, 53, 39
2, 697285, Note_on_c, 0, 86, 0
2, 697285, Note_on_c, 0, 74, 0
2, 697285, Note_on_c, 0, 79, 0
2, 697309, Note_on_c, 0, 53, 0
2, 697320, Note_on_c, 0, 72, 88
2, 697320, Note_on_c, 0, 79, 86
2, 697320, Note_on_c, 0, 84, 85
2, 697320, Note_on_c, 0, 55, 50
2, 697320, Note_on_c, 0, 55, 44
2, 697428, Note_on_c, 0, 55, 0
2, 697428, Note_on_c, 0, 79, 0
2, 697428, Note_on_c, 0, 72, 0
2, 697428, Note_on_c, 0, 84, 0
2, 697440, Note_on_c, 0, 53, 41
2, 697548, Note_on_c, 0, 53, 0
2, 697559, Note_on_c, 0, 84, 82
2, 697559, Note_on_c, 0, 50, 37
2, 697669, Note_on_c, 0, 50, 0
2, 697669, Note_on_c, 0, 84, 0
2, 697680, Note_on_c, 0, 55, 0
2, 697680, Note_on_c, 0, 74, 94
2, 697680, Note_on_c, 0, 83, 94
2, 697680, Note_on_c, 0, 86, 95
2, 697680, Note_on_c, 0, 43, 35
2, 697788, Note_on_c, 0, 43, 0
2, 697800, Note_on_c, 0, 50, 50
2, 697908, Note_on_c, 0, 50, 0
2, 697919, Note_on_c, 0, 53, 49
2, 698005, Note_on_c, 0, 74, 0
2, 698005, Note_on_c, 0, 83, 0
2, 698005, Note_on_c, 0, 86, 0
2, 698029, Note_on_c, 0, 53, 0
2, 698040, Note_on_c, 0, 67, 74
2, 698040, Note_on_c, 0, 74, 76
2, 698040, Note_on_c, 0, 79, 73
2, 698040, Note_on_c, 0, 59, 54
2, 698040, Note_on_c, 0, 59, 45
2, 698148, Note_on_c, 0, 59, 0
2, 698148, Note_on_c, 0, 74, 0
2, 698148, Note_on_c, 0, 67, 0
2, 698148, Note_on_c, 0, 79, 0
2, 698160, Note_on_c, 0, 55, 37
2, 698268, Note_on_c, 0, 55, 0
2, 698279, Note_on_c, 0, 79, 81
2, 698279, Note_on_c, 0, 53, 40
2, 698330, Note_on_c, 0, 43, 0
2, 698330, Note_on_c, 0, 38, 0
2, 698389, Note_on_c, 0, 79, 0
2, 698389, Note_on_c, 0, 53, 0
2, 698400, Note_on_c, 0, 59, 0
2, 698400, Note_on_c, 0, 71, 102
2, 698400, Note_on_c, 0, 77, 104
2, 698400, Note_on_c, 0, 83, 102
2, 698400, Note_on_c, 0, 50, 41
2, 698508, Note_on_c, 0, 50, 0
2, 698520, Note_on_c, 0, 55, 47
2, 698628, Note_on_c, 0, 55, 0
2, 698639, Note_on_c, 0, 59, 50
2, 698725, Note_on_c, 0, 83, 0
2, 698725, Note_on_c, 0, 71, 0
2, 698725, Note_on_c, 0, 77, 0
2, 698749, Note_on_c, 0, 59, 0
2, 698760, Note_on_c, 0, 67, 73
2, 698760, Note_on_c, 0, 74, 70
2, 698760, Note_on_c, 0, 65, 41
2, 698760, Note_on_c, 0, 65, 53
2, 698868, Note_on_c, 0, 65, 0
2, 698868, Note_on_c, 0, 67, 0
2, 698868, Note_on_c, 0, 74, 0
2, 698880, Note_on_c, 0, 59, 37
2, 698988, Note_on_c, 0, 59, 0
2, 698999, Note_on_c, 0, 74, 79
2, 698999, Note_on_c, 0, 55, 36
2, 699109, Note_on_c, 0, 55, 0
2, 699109, Note_on_c, 0, 74, 0
2, 699120, Note_on_c, 0, 65, 0
2, 699120, Note_on_c, 0, 67, 103
2, 699120, Note_on_c, 0, 74, 104
2, 699120, Note_on_c, 0, 79, 100
2, 699120, Note_on_c, 0, 53, 40
2, 699228, Note_on_c, 0, 53, 0
2, 699240, Note_on_c, 0, 59, 49
2, 699348, Note_on_c, 0, 59, 0
2, 699359, Note_on_c, 0, 62, 49
2, 699445, Note_on_c, 0, 79, 0
2, 699445, Note_on_c, 0, 67, 0
2, 699445, Note_on_c, 0, 74, 0
2, 699469, Note_on_c, 0, 62, 0
2, 699480, Note_on_c, 0, 74, 91
2, 699480, Note_on_c, 0, 79, 92
2, 699480, Note_on_c, 0, 67, 42
2, 699480, Note_on_c, 0, 67, 54
2, 699588, Note_on_c, 0, 67, 0
2, 699588, Note_on_c, 0, 74, 0
2, 699588, Note_on_c, 0, 79, 0
2, 699600, Note_on_c, 0, 62, 37
2, 699708, Note_on_c, 0, 62, 0
2, 699719, Note_on_c, 0, 79, 81
2, 699719, Note_on_c, 0, 59, 37
2, 699829, Note_on_c, 0, 59, 0
2, 699829, Note_on_c, 0, 79, 0
2, 699840, Note_on_c, 0, 67, 0
2, 699840, Note_on_c, 0, 70, 100
2, 699840, Note_on_c, 0, 77, 100
2, 699840, Note_on_c, 0, 82, 101
2, 699840, Note_on_c, 0, 55, 38
2, 699948, Note_on_c, 0, 55, 0
2, 699960, Note_on_c, 0, 62, 52
2, 700068, Note_on_c, 0, 62, 0
2, 700079, Note_on_c, 0, 65, 50
2, 700165, Note_on_c, 0, 82, 0
2, 700165, Note_on_c, 0, 70, 0
2, 700165, Note_on_c, 0, 77, 0
2, 700189, Note_on_c, 0, 65, 0
2, 700200, Note_on_c, 0, 74, 76
2, 700200, Note_on_c, 0, 76, 75
2, 700200, Note_on_c, 0, 70, 43
2, 700200, Note_on_c, 0, 70, 52
2, 700308, Note_on_c, 0, 70, 0
2, 700308, Note_on_c, 0, 74, 0
2, 700308, Note_on_c, 0, 76, 0
2, 700320, Note_on_c, 0, 64, 34
2, 700428, Note_on_c, 0, 64, 0
2, 700439, Note_on_c, 0, 76, 82
2, 700439, Note_on_c, 0, 62, 40
2, 700549, Note_on_c, 0, 62, 0
2, 700549, Note_on_c, 0, 76, 0
2, 700560, Note_on_c, 0, 70, 0
2, 700560, Note_on_c, 0, 67, 98
2, 700560, Note_on_c, 0, 74, 97
2, 700560, Note_on_c, 0, 79, 99
2, 700560, Note_on_c, 0, 58, 27
2, 700560, Note_on_c, 0, 58, 38
2, 700668, Note_on_c, 0, 58, 0
2, 700680, Note_on_c, 0, 64, 48
2, 700788, Note_on_c, 0, 64, 0
2, 700799, Note_on_c, 0, 67, 47
2, 700885, Note_on_c, 0, 58, 0
2, 700885, Note_on_c, 0, 79, 0
2, 700885, Note_on_c, 0, 67, 0
2, 700885, Note_on_c, 0, 74, 0
2, 700909, Note_on_c, 0, 67, 0
2, 700920, Note_on_c, 0, 70, 72
2, 700920, Note_on_c, 0, 74, 53
2, 700920, Note_on_c, 0, 74, 55
2, 701028, Note_on_c, 0, 74, 0
2, 701028, Note_on_c, 0, 70, 0
2, 701040, Note_on_c, 0, 67, 34
2, 701148, Note_on_c, 0, 67, 0
2, 701159, Note_on_c, 0, 70, 82
2, 701159, Note_on_c, 0, 64, 35
2, 701245, Note_on_c, 0, 74, 0
2, 701269, Note_on_c, 0, 64, 0
2, 701269, Note_on_c, 0, 70, 0
2, 701280, Note_on_c, 0, 74, 104
2, 701280, Note_on_c, 0, 62, 34
2, 701280, Note_on_c, 0, 62, 42
2, 701388, Note_on_c, 0, 62, 0
2, 701400, Note_on_c, 0, 64, 46
2, 701508, Note_on_c, 0, 64, 0
2, 701519, Note_on_c, 0, 67, 46
2, 701605, Note_on_c, 0, 62, 0
2, 701605, Note_on_c, 0, 74, 0
2, 701629, Note_on_c, 0, 67, 0
2, 701640, Note_on_c, 0, 73, 76
2, 701640, Note_on_c, 0, 70, 59
2, 701640, Note_on_c, 0, 70, 51
2, 701748, Note_on_c, 0, 70, 0
2, 701748, Note_on_c, 0, 73, 0
2, 701760, Note_on_c, 0, 67, 38
2, 701868, Note_on_c, 0, 67, 0
2, 701879, Note_on_c, 0, 73, 57
2, 701879, Note_on_c, 0, 65, 41
2, 701989, Note_on_c, 0, 65, 0
2, 701989, Note_on_c, 0, 73, 0
2, 702000, Note_on_c, 0, 70, 0
2, 702000, Note_on_c, 0, 74, 60
2, 702000, Note_on_c, 0, 74, 90
2, 702000, Note_on_c, 0, 64, 35
2, 702000, Note_on_c, 0, 64, 41
2, 702108, Note_on_c, 0, 74, 0
2, 702120, Note_on_c, 0, 67, 42
2, 702228, Note_on_c, 0, 67, 0
2, 702239, Note_on_c, 0, 74, 53
2, 702325, Note_on_c, 0, 64, 0
2, 702325, Note_on_c, 0, 74, 0
2, 702325, Note_on_c, 0, 64, 0
2, 702349, Note_on_c, 0, 74, 0
2, 702360, Note_on_c, 0, 79, 48
2, 702360, Note_on_c, 0, 70, 49
2, 702468, Note_on_c, 0, 79, 0
2, 702480, Note_on_c, 0, 74, 28
2, 702588, Note_on_c, 0, 74, 0
2, 702599, Note_on_c, 0, 79, 30
2, 702685, Note_on_c, 0, 70, 0
2, 702709, Note_on_c, 0, 79, 0
2, 702720, Note_on_c, 0, 74, 55
2, 702720, Note_on_c, 0, 82, 54
2, 702720, Note_on_c, 0, 86, 54
2, 702720, Note_on_c, 0, 67, 46
2, 702720, Note_on_c, 0, 70, 47
2, 702828, Note_on_c, 0, 70, 0
2, 702828, Note_on_c, 0, 67, 0
2, 702897, Note_on_c, 0, 74, 0
2, 702897, Note_on_c, 0, 82, 0
2, 702897, Note_on_c, 0, 86, 0
2, 702959, Note_on_c, 0, 65, 40
2, 703069, Note_on_c, 0, 65, 0
2, 703080, Note_on_c, 0, 72, 45
2, 703080, Note_on_c, 0, 79, 43
2, 703080, Note_on_c, 0, 84, 43
2, 703080, Note_on_c, 0, 63, 46
2, 703080, Note_on_c, 0, 67, 45
2, 703188, Note_on_c, 0, 84, 0
2, 703188, Note_on_c, 0, 72, 0
2, 703188, Note_on_c, 0, 79, 0
2, 703319, Note_on_c, 0, 84, 38
2, 703405, Note_on_c, 0, 63, 0
2, 703405, Note_on_c, 0, 67, 0
2, 703429, Note_on_c, 0, 84, 0
2, 703440, Note_on_c, 0, 74, 44
2, 703440, Note_on_c, 0, 81, 47
2, 703440, Note_on_c, 0, 86, 46
2, 703440, Note_on_c, 0, 65, 51
2, 703440, Note_on_c, 0, 69, 50
2, 703548, Note_on_c, 0, 69, 0
2, 703548, Note_on_c, 0, 65, 0
2, 703679, Note_on_c, 0, 63, 39
2, 703765, Note_on_c, 0, 74, 0
2, 703765, Note_on_c, 0, 86, 0
2, 703765, Note_on_c, 0, 81, 0
2, 703789, Note_on_c, 0, 63, 0
2, 703800, Note_on_c, 0, 70, 43
2, 703800, Note_on_c, 0, 77, 42
2, 703800, Note_on_c, 0, 82, 42
2, 703800, Note_on_c, 0, 62, 46
2, 703800, Note_on_c, 0, 65, 45
2, 703908, Note_on_c, 0, 82, 0
2, 703908, Note_on_c, 0, 70, 0
2, 703908, Note_on_c, 0, 77, 0
2, 704039, Note_on_c, 0, 82, 37
2, 704125, Note_on_c, 0, 62, 0
2, 704125, Note_on_c, 0, 65, 0
2, 704149, Note_on_c, 0, 82, 0
2, 704160, Note_on_c, 0, 72, 46
2, 704160, Note_on_c, 0, 79, 47
2, 704160, Note_on_c, 0, 84, 47
2, 704160, Note_on_c, 0, 63, 47
2, 704160, Note_on_c, 0, 67, 47
2, 704268, Note_on_c, 0, 67, 0
2, 704268, Note_on_c, 0, 63, 0
2, 704399, Note_on_c, 0, 60, 36
2, 704485, Note_on_c, 0, 72, 0
2, 704485, Note_on_c, 0, 84, 0
2, 704485, Note_on_c, 0, 79, 0
2, 704509, Note_on_c, 0, 60, 0
2, 704520, Note_on_c, 0, 67, 38
2, 704520, Note_on_c, 0, 74, 40
2, 704520, Note_on_c, 0, 79, 40
2, 704520, Note_on_c, 0, 55, 45
2, 704520, Note_on_c, 0, 62, 46
2, 704628, Note_on_c, 0, 79, 0
2, 704628, Note_on_c, 0, 67, 0
2, 704628, Note_on_c, 0, 74, 0
2, 704759, Note_on_c, 0, 81, 40
2, 704845, Note_on_c, 0, 55, 0
2, 704845, Note_on_c, 0, 62, 0
2, 704869, Note_on_c, 0, 81, 0
2, 704880, Note_on_c, 0, 70, 47
2, 704880, Note_on_c, 0, 78, 47
2, 704880, Note_on_c, 0, 82, 48
2, 704880, Note_on_c, 0, 63, 51
2, 704880, Note_on_c, 0, 66, 49
2, 704988, Note_on_c, 0, 66, 0
2, 704988, Note_on_c, 0, 63, 0
2, 705119, Note_on_c, 0, 61, 37
2, 705205, Note_on_c, 0, 70, 0
2, 705205, Note_on_c, 0, 82, 0
2, 705205, Note_on_c, 0, 78, 0
2, 705229, Note_on_c, 0, 61, 0
2, 705240, Note_on_c, 0, 68, 42
2, 705240, Note_on_c, 0, 75, 44
2, 705240, Note_on_c, 0, 80, 43
2, 705240, Note_on_c, 0, 59, 46
2, 705240, Note_on_c, 0, 63, 43
2, 705348, Note_on_c, 0, 80, 0
2, 705348, Note_on_c, 0, 68, 0
2, 705348, Note_on_c, 0, 75, 0
2, 705479, Note_on_c, 0, 80, 40
2, 705565, Note_on_c, 0, 59, 0
2, 705565, Note_on_c, 0, 63, 0
2, 705589, Note_on_c, 0, 80, 0
2, 705600, Note_on_c, 0, 70, 47
2, 705600, Note_on_c, 0, 77, 43
2, 705600, Note_on_c, 0, 82, 45
2, 705600, Note_on_c, 0, 61, 51
2, 705600, Note_on_c, 0, 65, 48
2, 705708, Note_on_c, 0, 65, 0
2, 705708, Note_on_c, 0, 61, 0
2, 705839, Note_on_c, 0, 59, 38
2, 705925, Note_on_c, 0, 70, 0
2, 705925, Note_on_c, 0, 82, 0
2, 705925, Note_on_c, 0, 77, 0
2, 705949, Note_on_c, 0, 59, 0
2, 705960, Note_on_c, 0, 66, 41
2, 705960, Note_on_c, 0, 73, 42
2, 705960, Note_on_c, 0, 78, 42
2, 705960, Note_on_c, 0, 58, 46
2, 705960, Note_on_c, 0, 61, 45
2, 706068, Note_on_c, 0, 78, 0
2, 706068, Note_on_c, 0, 66, 0
2, 706068, Note_on_c, 0, 73, 0
2, 706199, Note_on_c, 0, 78, 39
2, 706285, Note_on_c, 0, 58, 0
2, 706285, Note_on_c, 0, 61, 0
2, 706309, Note_on_c, 0, 78, 0
2, 706320, Note_on_c, 0, 68, 45
2, 706320, Note_on_c, 0, 75, 43
2, 706320, Note_on_c, 0, 80, 46
2, 706320, Note_on_c, 0, 59, 47
2, 706320, Note_on_c, 0, 63, 51
2, 706428, Note_on_c, 0, 63, 0
2, 706428, Note_on_c, 0, 59, 0
2, 706559, Note_on_c, 0, 59, 40
2, 706645, Note_on_c, 0, 68, 0
2, 706645, Note_on_c, 0, 80, 0
2, 706645, Note_on_c, 0, 75, 0
2, 706669, Note_on_c, 0, 59, 0
2, 706680, Note_on_c, 0, 63, 38
2, 706680, Note_on_c, 0, 70, 38
2, 706680, Note_on_c, 0, 75, 40
2, 706680, Note_on_c, 0, 51, 42
2, 706680, Note_on_c, 0, 58, 42
2, 706788, Note_on_c, 0, 75, 0
2, 706788, Note_on_c, 0, 63, 0
2, 706788, Note_on_c, 0, 70, 0
2, 706919, Note_on_c, 0, 77, 37
2, 707005, Note_on_c, 0, 51, 0
2, 707005, Note_on_c, 0, 58, 0
2, 707029, Note_on_c, 0, 77, 0
2, 707040, Note_on_c, 0, 66, 82
2, 707040, Note_on_c, 0, 74, 82
2, 707040, Note_on_c, 0, 78, 79
2, 707040, Note_on_c, 0, 59, 49
2, 707040, Note_on_c, 0, 62, 51
2, 707148, Note_on_c, 0, 62, 0
2, 707148, Note_on_c, 0, 59, 0
2, 707279, Note_on_c, 0, 55, 38
2, 707365, Note_on_c, 0, 66, 0
2, 707365, Note_on_c, 0, 78, 0
2, 707365, Note_on_c, 0, 74, 0
2, 707389, Note_on_c, 0, 55, 0
2, 707400, Note_on_c, 0, 64, 74
2, 707400, Note_on_c, 0, 73, 74
2, 707400, Note_on_c, 0, 76, 72
2, 707400, Note_on_c, 0, 54, 50
2, 707400, Note_on_c, 0, 61, 50
2, 707508, Note_on_c, 0, 76, 0
2, 707508, Note_on_c, 0, 64, 0
2, 707508, Note_on_c, 0, 73, 0
2, 707639, Note_on_c, 0, 76, 67
2, 707725, Note_on_c, 0, 54, 0
2, 707725, Note_on_c, 0, 61, 0
2, 707749, Note_on_c, 0, 76, 0
2, 707760, Note_on_c, 0, 66, 79
2, 707760, Note_on_c, 0, 74, 77
2, 707760, Note_on_c, 0, 78, 78
2, 707760, Note_on_c, 0, 58, 50
2, 707760, Note_on_c, 0, 62, 49
2, 707868, Note_on_c, 0, 62, 0
2, 707868, Note_on_c, 0, 58, 0
2, 707999, Note_on_c, 0, 54, 39
2, 708085, Note_on_c, 0, 66, 0
2, 708085, Note_on_c, 0, 78, 0
2, 708085, Note_on_c, 0, 74, 0
2, 708109, Note_on_c, 0, 54, 0
2, 708120, Note_on_c, 0, 70, 88
2, 708120, Note_on_c, 0, 74, 86
2, 708120, Note_on_c, 0, 82, 86
2, 708120, Note_on_c, 0, 53, 50
2, 708120, Note_on_c, 0, 62, 50
2, 708228, Note_on_c, 0, 82, 0
2, 708228, Note_on_c, 0, 70, 0
2, 708228, Note_on_c, 0, 74, 0
2, 708359, Note_on_c, 0, 77, 66
2, 708445, Note_on_c, 0, 53, 0
2, 708445, Note_on_c, 0, 62, 0
2, 708469, Note_on_c, 0, 77, 0
2, 708480, Note_on_c, 0, 66, 78
2, 708480, Note_on_c, 0, 74, 82
2, 708480, Note_on_c, 0, 78, 80
2, 708480, Note_on_c, 0, 59, 46
2, 708480, Note_on_c, 0, 62, 48
2, 708588, Note_on_c, 0, 62, 0
2, 708588, Note_on_c, 0, 59, 0
2, 708719, Note_on_c, 0, 55, 37
2, 708805, Note_on_c, 0, 66, 0
2, 708805, Note_on_c, 0, 78, 0
2, 708805, Note_on_c, 0, 74, 0
2, 708829, Note_on_c, 0, 55, 0
2, 708840, Note_on_c, 0, 64, 73
2, 708840, Note_on_c, 0, 73, 74
2, 708840, Note_on_c, 0, 76, 74
2, 708840, Note_on_c, 0, 54, 49
2, 708840, Note_on_c, 0, 61, 50
2, 708948, Note_on_c, 0, 76, 0
2, 708948, Note_on_c, 0, 64, 0
2, 708948, Note_on_c, 0, 73, 0
2, 709079, Note_on_c, 0, 76, 65
2, 709165, Note_on_c, 0, 54, 0
2, 709165, Note_on_c, 0, 61, 0
2, 709189, Note_on_c, 0, 76, 0
2, 709200, Note_on_c, 0, 66, 78
2, 709200, Note_on_c, 0, 74, 78
2, 709200, Note_on_c, 0, 78, 78
2, 709200, Note_on_c, 0, 58, 48
2, 709200, Note_on_c, 0, 62, 49
2, 709308, Note_on_c, 0, 62, 0
2, 709308, Note_on_c, 0, 58, 0
2, 709439, Note_on_c, 0, 54, 40
2, 709525, Note_on_c, 0, 66, 0
2, 709525, Note_on_c, 0, 78, 0
2, 709525, Note_on_c, 0, 74, 0
2, 709549, Note_on_c, 0, 54, 0
2, 709560, Note_on_c, 0, 70, 87
2, 709560, Note_on_c, 0, 74, 86
2, 709560, Note_on_c, 0, 82, 85
2, 709560, Note_on_c, 0, 53, 49
2, 709560, Note_on_c, 0, 62, 49
2, 709668, Note_on_c, 0, 82, 0
2, 709668, Note_on_c, 0, 70, 0
2, 709668, Note_on_c, 0, 74, 0
2, 709799, Note_on_c, 0, 76, 67
2, 709885, Note_on_c, 0, 53, 0
2, 709885, Note_on_c, 0, 62, 0
2, 709909, Note_on_c, 0, 76, 0
2, 709920, Note_on_c, 0, 65, 80
2, 709920, Note_on_c, 0, 73, 80
2, 709920, Note_on_c, 0, 77, 78
2, 709920, Note_on_c, 0, 58, 46
2, 709920, Note_on_c, 0, 61, 47
2, 710028, Note_on_c, 0, 61, 0
2, 710028, Note_on_c, 0, 58, 0
2, 710159, Note_on_c, 0, 54, 38
2, 710245, Note_on_c, 0, 65, 0
2, 710245, Note_on_c, 0, 77, 0
2, 710245, Note_on_c, 0, 73, 0
2, 710269, Note_on_c, 0, 54, 0
2, 710280, Note_on_c, 0, 69, 80
2, 710280, Note_on_c, 0, 74, 80
2, 710280, Note_on_c, 0, 81, 80
2, 710280, Note_on_c, 0, 53, 52
2, 710280, Note_on_c, 0, 62, 50
2, 710388, Note_on_c, 0, 81, 0
2, 710388, Note_on_c, 0, 69, 0
2, 710388, Note_on_c, 0, 74, 0
2, 710519, Note_on_c, 0, 73, 57
2, 710605, Note_on_c, 0, 53, 0
2, 710605, Note_on_c, 0, 62, 0
2, 710629, Note_on_c, 0, 73, 0
2, 710640, Note_on_c, 0, 62, 67
2, 710640, Note_on_c, 0, 70, 67
2, 710640, Note_on_c, 0, 74, 67
2, 710640, Note_on_c, 0, 55, 40
2, 710640, Note_on_c, 0, 58, 43
2, 710748, Note_on_c, 0, 58, 0
2, 710748, Note_on_c, 0, 55, 0
2, 710879, Note_on_c, 0, 51, 39
2, 710965, Note_on_c, 0, 62, 0
2, 710965, Note_on_c, 0, 74, 0
2, 710965, Note_on_c, 0, 70, 0
2, 710989, Note_on_c, 0, 51, 0
2, 711000, Note_on_c, 0, 65, 68
2, 711000, Note_on_c, 0, 70, 67
2, 711000, Note_on_c, 0, 77, 69
2, 711000, Note_on_c, 0, 50, 48
2, 711000, Note_on_c, 0, 58, 52
2, 711108, Note_on_c, 0, 77, 0
2, 711108, Note_on_c, 0, 65, 0
2, 711108, Note_on_c, 0, 70, 0
2, 711239, Note_on_c, 0, 69, 51
2, 711325, Note_on_c, 0, 50, 0
2, 711325, Note_on_c, 0, 58, 0
2, 711349, Note_on_c, 0, 69, 0
2, 711360, Note_on_c, 0, 58, 60
2, 711360, Note_on_c, 0, 66, 59
2, 711360, Note_on_c, 0, 70, 60
2, 711360, Note_on_c, 0, 51, 43
2, 711360, Note_on_c, 0, 54, 43
2, 711468, Note_on_c, 0, 54, 0
2, 711468, Note_on_c, 0, 51, 0
2, 711599, Note_on_c, 0, 48, 38
2, 711685, Note_on_c, 0, 58, 0
2, 711685, Note_on_c, 0, 70, 0
2, 711685, Note_on_c, 0, 66, 0
2, 711709, Note_on_c, 0, 48, 0
2, 711720, Note_on_c, 0, 62, 58
2, 711720, Note_on_c, 0, 67, 59
2, 711720, Note_on_c, 0, 74, 58
2, 711720, Note_on_c, 0, 46, 50
2, 711720, Note_on_c, 0, 55, 49
2, 711828, Note_on_c, 0, 74, 0
2, 711828, Note_on_c, 0, 62, 0
2, 711828, Note_on_c, 0, 67, 0
2, 711959, Note_on_c, 0, 66, 39
2, 712045, Note_on_c, 0, 46, 0
2, 712045, Note_on_c, 0, 55, 0
2, 712069, Note_on_c, 0, 66, 0
2, 712080, Note_on_c, 0, 55, 45
2, 712080, Note_on_c, 0, 62, 44
2, 712080, Note_on_c, 0, 67, 45
2, 712080, Note_on_c, 0, 50, 44
2, 712080, Note_on_c, 0, 53, 45
2, 712188, Note_on_c, 0, 53, 0
2, 712188, Note_on_c, 0, 50, 0
2, 712319, Note_on_c, 0, 46, 37
2, 712405, Note_on_c, 0, 55, 0
2, 712405, Note_on_c, 0, 67, 0
2, 712405, Note_on_c, 0, 62, 0
2, 712429, Note_on_c, 0, 46, 0
2, 712440, Note_on_c, 0, 58, 43
2, 712440, Note_on_c, 0, 62, 46
2, 712440, Note_on_c, 0, 70, 44
2, 712440, Note_on_c, 0, 43, 47
2, 712440, Note_on_c, 0, 52, 48
2, 712548, Note_on_c, 0, 70, 0
2, 712548, Note_on_c, 0, 58, 0
2, 712548, Note_on_c, 0, 62, 0
2, 712617, Note_on_c, 0, 43, 0
2, 712617, Note_on_c, 0, 52, 0
2, 712679, Note_on_c, 0, 64, 32
2, 712789, Note_on_c, 0, 64, 0
2, 712800, Note_on_c, 0, 69, 52
2, 712800, Note_on_c, 0, 61, 33
2, 712800, Note_on_c, 0, 64, 36
2, 712800, Note_on_c, 0, 45, 36
2, 712800, Note_on_c, 0, 45, 30
2, 712908, Note_on_c, 0, 45, 0
2, 712920, Note_on_c, 0, 57, 54
2, 712977, Note_on_c, 0, 69, 0
2, 712977, Note_on_c, 0, 45, 0
2, 713028, Note_on_c, 0, 57, 0
2, 713039, Note_on_c, 0, 52, 38
2, 713125, Note_on_c, 0, 64, 0
2, 713125, Note_on_c, 0, 61, 0
2, 713149, Note_on_c, 0, 52, 0
2, 713160, Note_on_c, 0, 67, 40
2, 713160, Note_on_c, 0, 61, 42
2, 713160, Note_on_c, 0, 64, 40
2, 713160, Note_on_c, 0, 46, 38
2, 713160, Note_on_c, 0, 46, 42
2, 713268, Note_on_c, 0, 46, 0
2, 713268, Note_on_c, 0, 67, 0
2, 713280, Note_on_c, 0, 55, 54
2, 713337, Note_on_c, 0, 46, 0
2, 713388, Note_on_c, 0, 55, 0
2, 713399, Note_on_c, 0, 67, 36
2, 713399, Note_on_c, 0, 52, 41
2, 713485, Note_on_c, 0, 64, 0
2, 713485, Note_on_c, 0, 61, 0
2, 713509, Note_on_c, 0, 67, 0
2, 713509, Note_on_c, 0, 52, 0
2, 713520, Note_on_c, 0, 69, 44
2, 713520, Note_on_c, 0, 61, 41
2, 713520, Note_on_c, 0, 64, 41
2, 713520, Note_on_c, 0, 45, 37
2, 713520, Note_on_c, 0, 45, 41
2, 713628, Note_on_c, 0, 45, 0
2, 713640, Note_on_c, 0, 57, 54
2, 713697, Note_on_c, 0, 69, 0
2, 713697, Note_on_c, 0, 45, 0
2, 713748, Note_on_c, 0, 57, 0
2, 713759, Note_on_c, 0, 52, 39
2, 713845, Note_on_c, 0, 64, 0
2, 713845, Note_on_c, 0, 61, 0
2, 713869, Note_on_c, 0, 52, 0
2, 713880, Note_on_c, 0, 70, 46
2, 713880, Note_on_c, 0, 61, 44
2, 713880, Note_on_c, 0, 64, 41
2, 713880, Note_on_c, 0, 43, 32
2, 713880, Note_on_c, 0, 43, 40
2, 713988, Note_on_c, 0, 43, 0
2, 713988, Note_on_c, 0, 70, 0
2, 714000, Note_on_c, 0, 58, 53
2, 714057, Note_on_c, 0, 43, 0
2, 714108, Note_on_c, 0, 58, 0
2, 714119, Note_on_c, 0, 70, 37
2, 714119, Note_on_c, 0, 52, 36
2, 714205, Note_on_c, 0, 64, 0
2, 714205, Note_on_c, 0, 61, 0
2, 714229, Note_on_c, 0, 70, 0
2, 714229, Note_on_c, 0, 52, 0
2, 714240, Note_on_c, 0, 60, 48
2, 714240, Note_on_c, 0, 64, 48
2, 714240, Note_on_c, 0, 72, 47
2, 714240, Control_c, 0, 64, 127
2, 714240, Note_on_c, 0, 33, 37
2, 714240, Note_on_c, 0, 45, 38
2, 714455, Note_on_c, 0, 45, 0
2, 714455, Note_on_c, 0, 33, 0
2, 714479, Note_on_c, 0, 52, 50
2, 714565, Note_on_c, 0, 60, 0
2, 714565, Note_on_c, 0, 72, 0
2, 714565, Note_on_c, 0, 64, 0
2, 714589, Note_on_c, 0, 52, 0
2, 714600, Note_on_c, 0, 62, 122
2, 714600, Note_on_c, 0, 65, 122
2, 714600, Note_on_c, 0, 68, 122
2, 714600, Note_on_c, 0, 71, 122
2, 714600, Note_on_c, 0, 74, 122
2, 714600, Note_on_c, 0, 53, 51
2, 714682, Note_on_c, 0, 53, 0
2, 714690, Note_on_c, 0, 56, 47
2, 714772, Note_on_c, 0, 56, 0
2, 714780, Note_on_c, 0, 59, 47
2, 714862, Note_on_c, 0, 59, 0
2, 714870, Note_on_c, 0, 62, 48
2, 714952, Note_on_c, 0, 62, 0
2, 714960, Note_on_c, 0, 65, 51
2, 715042, Note_on_c, 0, 65, 0
2, 715050, Note_on_c, 0, 67, 44
2, 715132, Note_on_c, 0, 67, 0
2, 715140, Note_on_c, 0, 70, 48
2, 715222, Note_on_c, 0, 70, 0
2, 715230, Note_on_c, 0, 71, 47
2, 715250, Note_on_c, 0, 62, 0
2, 715250, Note_on_c, 0, 68, 0
2, 715250, Note_on_c, 0, 74, 0
2, 715250, Note_on_c, 0, 71, 0
2, 715250, Note_on_c, 0, 65, 0
2, 715312, Note_on_c, 0, 71, 0
2, 715320, Note_on_c, 0, 76, 97
2, 715320, Note_on_c, 0, 73, 85
2, 715320, Note_on_c, 0, 52, 34
2, 715320, Note_on_c, 0, 57, 36
2, 715320, Note_on_c, 0, 61, 33
2, 715320, Note_on_c, 0, 64, 34
2, 715320, Control_c, 0, 64, 0
2, 715428, Note_on_c, 0, 73, 0
2, 715440, Note_on_c, 0, 69, 81
2, 715548, Note_on_c, 0, 69, 0
2, 715559, Note_on_c, 0, 64, 76
2, 715645, Note_on_c, 0, 64, 0
2, 715645, Note_on_c, 0, 61, 0
2, 715645, Note_on_c, 0, 57, 0
2, 715645, Note_on_c, 0, 76, 0
2, 715645, Note_on_c, 0, 52, 0
2, 715669, Note_on_c, 0, 64, 0
2, 715680, Note_on_c, 0, 74, 90
2, 715680, Note_on_c, 0, 65, 105
2, 715680, Note_on_c, 0, 69, 103
2, 715680, Note_on_c, 0, 50, 32
2, 715680, Note_on_c, 0, 50, 53
2, 715788, Note_on_c, 0, 50, 0
2, 715800, Note_on_c, 0, 62, 53
2, 715857, Note_on_c, 0, 69, 0
2, 715857, Note_on_c, 0, 50, 0
2, 715857, Note_on_c, 0, 65, 0
2, 715908, Note_on_c, 0, 62, 0
2, 715919, Note_on_c, 0, 57, 37
2, 716005, Note_on_c, 0, 74, 0
2, 716029, Note_on_c, 0, 57, 0
2, 716040, Note_on_c, 0, 72, 86
2, 716040, Note_on_c, 0, 65, 91
2, 716040, Note_on_c, 0, 69, 94
2, 716040, Note_on_c, 0, 52, 36
2, 716040, Note_on_c, 0, 52, 48
2, 716148, Note_on_c, 0, 52, 0
2, 716148, Note_on_c, 0, 72, 0
2, 716160, Note_on_c, 0, 60, 52
2, 716217, Note_on_c, 0, 65, 0
2, 716217, Note_on_c, 0, 52, 0
2, 716217, Note_on_c, 0, 69, 0
2, 716268, Note_on_c, 0, 60, 0
2, 716279, Note_on_c, 0, 72, 82
2, 716279, Note_on_c, 0, 57, 39
2, 716389, Note_on_c, 0, 57, 0
2, 716389, Note_on_c, 0, 72, 0
2, 716400, Note_on_c, 0, 74, 94
2, 716400, Note_on_c, 0, 65, 92
2, 716400, Note_on_c, 0, 69, 92
2, 716400, Note_on_c, 0, 50, 37
2, 716400, Note_on_c, 0, 50, 39
2, 716508, Note_on_c, 0, 50, 0
2, 716520, Note_on_c, 0, 62, 53
2, 716577, Note_on_c, 0, 69, 0
2, 716577, Note_on_c, 0, 50, 0
2, 716577, Note_on_c, 0, 74, 0
2, 716577, Note_on_c, 0, 65, 0
2, 716628, Note_on_c, 0, 62, 0
2, 716639, Note_on_c, 0, 57, 36
2, 716749, Note_on_c, 0, 57, 0
2, 716760, Note_on_c, 0, 76, 98
2, 716760, Note_on_c, 0, 64, 91
2, 716760, Note_on_c, 0, 69, 90
2, 716760, Note_on_c, 0, 48, 33
2, 716760, Note_on_c, 0, 48, 39
2, 716868, Note_on_c, 0, 48, 0
2, 716868, Note_on_c, 0, 76, 0
2, 716880, Note_on_c, 0, 60, 53
2, 716937, Note_on_c, 0, 64, 0
2, 716937, Note_on_c, 0, 48, 0
2, 716937, Note_on_c, 0, 69, 0
2, 716988, Note_on_c, 0, 60, 0
2, 716999, Note_on_c, 0, 76, 79
2, 716999, Note_on_c, 0, 57, 38
2, 717109, Note_on_c, 0, 57, 0
2, 717109, Note_on_c, 0, 76, 0
2, 717120, Note_on_c, 0, 65, 96
2, 717120, Note_on_c, 0, 72, 97
2, 717120, Note_on_c, 0, 77, 98
2, 717120, Control_c, 0, 64, 127
2, 717120, Note_on_c, 0, 33, 33
2, 717120, Note_on_c, 0, 45, 31
2, 717335, Note_on_c, 0, 45, 0
2, 717335, Note_on_c, 0, 33, 0
2, 717359, Note_on_c, 0, 53, 50
2, 717445, Note_on_c, 0, 65, 0
2, 717445, Note_on_c, 0, 77, 0
2, 717445, Note_on_c, 0, 72, 0
2, 717469, Note_on_c, 0, 53, 0
2, 717480, Note_on_c, 0, 67, 121
2, 717480, Note_on_c, 0, 70, 120
2, 717480, Note_on_c, 0, 73, 122
2, 717480, Note_on_c, 0, 76, 122
2, 717480, Note_on_c, 0, 79, 122
2, 717480, Note_on_c, 0, 55, 48
2, 717562, Note_on_c, 0, 55, 0
2, 717570, Note_on_c, 0, 58, 46
2, 717652, Note_on_c, 0, 58, 0
2, 717660, Note_on_c, 0, 61, 47
2, 717742, Note_on_c, 0, 61, 0
2, 717750, Note_on_c, 0, 64, 46
2, 717832, Note_on_c, 0, 64, 0
2, 717840, Note_on_c, 0, 67, 49
2, 717905, Note_on_c, 0, 67, 0
2, 717912, Note_on_c, 0, 70, 48
2, 717977, Note_on_c, 0, 70, 0
2, 717984, Note_on_c, 0, 73, 47
2, 718048, Note_on_c, 0, 73, 0
2, 718055, Note_on_c, 0, 75, 44
2, 718120, Note_on_c, 0, 75, 0
2, 718127, Note_on_c, 0, 76, 46
2, 718130, Note_on_c, 0, 73, 0
2, 718130, Note_on_c, 0, 67, 0
2, 718130, Note_on_c, 0, 79, 0
2, 718130, Note_on_c, 0, 76, 0
2, 718130, Note_on_c, 0, 70, 0
2, 718193, Note_on_c, 0, 76, 0
2, 718200, Note_on_c, 0, 81, 98
2, 718200, Note_on_c, 0, 77, 112
2, 718200, Control_c, 0, 64, 0
2, 718200, Note_on_c, 0, 53, 32
2, 718200, Note_on_c, 0, 57, 32
2, 718200, Note_on_c, 0, 60, 30
2, 718200, Note_on_c, 0, 65, 32
2, 718308, Note_on_c, 0, 77, 0
2, 718320, Note_on_c, 0, 72, 83
2, 718428, Note_on_c, 0, 72, 0
2, 718439, Note_on_c, 0, 69, 79
2, 718525, Note_on_c, 0, 65, 0
2, 718525, Note_on_c, 0, 60, 0
2, 718525, Note_on_c, 0, 57, 0
2, 718525, Note_on_c, 0, 81, 0
2, 718525, Note_on_c, 0, 53, 0
2, 718549, Note_on_c, 0, 69, 0
2, 718560, Note_on_c, 0, 79, 89
2, 718560, Note_on_c, 0, 70, 103
2, 718560, Note_on_c, 0, 74, 104
2, 718560, Note_on_c, 0, 55, 30
2, 718560, Note_on_c, 0, 55, 54
2, 718668, Note_on_c, 0, 55, 0
2, 718680, Note_on_c, 0, 67, 51
2, 718737, Note_on_c, 0, 74, 0
2, 718737, Note_on_c, 0, 55, 0
2, 718737, Note_on_c, 0, 70, 0
2, 718788, Note_on_c, 0, 67, 0
2, 718799, Note_on_c, 0, 62, 37
2, 718885, Note_on_c, 0, 79, 0
2, 718909, Note_on_c, 0, 62, 0
2, 718920, Note_on_c, 0, 77, 82
2, 718920, Note_on_c, 0, 70, 94
2, 718920, Note_on_c, 0, 74, 93
2, 718920, Note_on_c, 0, 57, 38
2, 718920, Note_on_c, 0, 57, 46
2, 719028, Note_on_c, 0, 57, 0
2, 719028, Note_on_c, 0, 77, 0
2, 719040, Note_on_c, 0, 65, 50
2, 719097, Note_on_c, 0, 70, 0
2, 719097, Note_on_c, 0, 57, 0
2, 719097, Note_on_c, 0, 74, 0
2, 719148, Note_on_c, 0, 65, 0
2, 719159, Note_on_c, 0, 77, 79
2, 719159, Note_on_c, 0, 62, 38
2, 719269, Note_on_c, 0, 62, 0
2, 719269, Note_on_c, 0, 77, 0
2, 719280, Note_on_c, 0, 79, 96
2, 719280, Note_on_c, 0, 70, 89
2, 719280, Note_on_c, 0, 74, 93
2, 719280, Note_on_c, 0, 55, 37
2, 719280, Note_on_c, 0, 55, 40
2, 719388, Note_on_c, 0, 55, 0
2, 719400, Note_on_c, 0, 67, 54
2, 719457, Note_on_c, 0, 74, 0
2, 719457, Note_on_c, 0, 55, 0
2, 719457, Note_on_c, 0, 70, 0
2, 719508, Note_on_c, 0, 67, 0
2, 719519, Note_on_c, 0, 62, 36
2, 719605, Note_on_c, 0, 79, 0
2, 719629, Note_on_c, 0, 62, 0
2, 719640, Note_on_c, 0, 81, 97
2, 719640, Note_on_c, 0, 69, 89
2, 719640, Note_on_c, 0, 74, 91
2, 719640, Note_on_c, 0, 53, 34
2, 719640, Note_on_c, 0, 53, 40
2, 719748, Note_on_c, 0, 53, 0
2, 719748, Note_on_c, 0, 81, 0
2, 719760, Note_on_c, 0, 65, 54
2, 719817, Note_on_c, 0, 69, 0
2, 719817, Note_on_c, 0, 53, 0
2, 719817, Note_on_c, 0, 74, 0
2, 719868, Note_on_c, 0, 65, 0
2, 719879, Note_on_c, 0, 81, 79
2, 719879, Note_on_c, 0, 62, 41
2, 719989, Note_on_c, 0, 62, 0
2, 719989, Note_on_c, 0, 81, 0
2, 720000, Note_on_c, 0, 70, 98
2, 720000, Note_on_c, 0, 74, 96
2, 720000, Note_on_c, 0, 77, 96
2, 720000, Note_on_c, 0, 82, 98
2, 720000, Control_c, 0, 64, 127
2, 720000, Note_on_c, 0, 33, 33
2, 720000, Note_on_c, 0, 45, 31
2, 720215, Note_on_c, 0, 45, 0
2, 720215, Note_on_c, 0, 33, 0
2, 720239, Note_on_c, 0, 53, 48
2, 720325, Note_on_c, 0, 77, 0
2, 720325, Note_on_c, 0, 82, 0
2, 720325, Note_on_c, 0, 70, 0
2, 720325, Note_on_c, 0, 74, 0
2, 720349, Note_on_c, 0, 53, 0
2, 720360, Note_on_c, 0, 71, 120
2, 720360, Note_on_c, 0, 74, 122
2, 720360, Note_on_c, 0, 77, 120
2, 720360, Note_on_c, 0, 80, 120
2, 720360, Note_on_c, 0, 83, 120
2, 720360, Note_on_c, 0, 56, 50
2, 720442, Note_on_c, 0, 56, 0
2, 720450, Note_on_c, 0, 59, 49
2, 720532, Note_on_c, 0, 59, 0
2, 720540, Note_on_c, 0, 62, 45
2, 720622, Note_on_c, 0, 62, 0
2, 720630, Note_on_c, 0, 65, 48
2, 720712, Note_on_c, 0, 65, 0
2, 720720, Note_on_c, 0, 68, 51
2, 720802, Note_on_c, 0, 68, 0
2, 720810, Note_on_c, 0, 74, 52
2, 720892, Note_on_c, 0, 74, 0
2, 720900, Note_on_c, 0, 77, 47
2, 720982, Note_on_c, 0, 77, 0
2, 720990, Note_on_c, 0, 79, 45
2, 721010, Note_on_c, 0, 74, 0
2, 721010, Note_on_c, 0, 83, 0
2, 721010, Note_on_c, 0, 80, 0
2, 721010, Note_on_c, 0, 71, 0
2, 721010, Note_on_c, 0, 77, 0
2, 721072, Note_on_c, 0, 79, 0
2, 721080, Note_on_c, 0, 85, 96
2, 721080, Note_on_c, 0, 81, 84
2, 721080, Note_on_c, 0, 57, 34
2, 721080, Note_on_c, 0, 61, 31
2, 721080, Note_on_c, 0, 64, 33
2, 721080, Note_on_c, 0, 69, 32
2, 721080, Control_c, 0, 64, 0
2, 721188, Note_on_c, 0, 81, 0
2, 721200, Note_on_c, 0, 76, 75
2, 721308, Note_on_c, 0, 76, 0
2, 721319, Note_on_c, 0, 73, 80
2, 721405, Note_on_c, 0, 69, 0
2, 721405, Note_on_c, 0, 64, 0
2, 721405, Note_on_c, 0, 61, 0
2, 721405, Note_on_c, 0, 57, 0
2, 721513, Control_c, 0, 64, 127
2, 721560, Note_on_c, 0, 57, 38
2, 721668, Note_on_c, 0, 57, 0
2, 721679, Note_on_c, 0, 64, 52
2, 721765, Note_on_c, 0, 85, 0
2, 721765, Note_on_c, 0, 73, 0
2, 721789, Note_on_c, 0, 64, 0
2, 721800, Note_on_c, 0, 74, 121
2, 721800, Note_on_c, 0, 79, 120
2, 721800, Note_on_c, 0, 82, 122
2, 721800, Note_on_c, 0, 86, 122
2, 721800, Note_on_c, 0, 67, 58
2, 721908, Note_on_c, 0, 67, 0
2, 721920, Note_on_c, 0, 69, 59
2, 722028, Note_on_c, 0, 69, 0
2, 722039, Note_on_c, 0, 70, 58
2, 722125, Note_on_c, 0, 86, 0
2, 722125, Note_on_c, 0, 82, 0
2, 722125, Note_on_c, 0, 74, 0
2, 722125, Note_on_c, 0, 79, 0
2, 722149, Note_on_c, 0, 70, 0
2, 722160, Note_on_c, 0, 76, 122
2, 722160, Note_on_c, 0, 79, 121
2, 722160, Note_on_c, 0, 82, 122
2, 722160, Note_on_c, 0, 85, 122
2, 722160, Note_on_c, 0, 88, 122
2, 722160, Note_on_c, 0, 69, 57
2, 722268, Note_on_c, 0, 69, 0
2, 722280, Note_on_c, 0, 67, 57
2, 722388, Note_on_c, 0, 67, 0
2, 722399, Note_on_c, 0, 64, 58
2, 722509, Note_on_c, 0, 64, 0
2, 722520, Note_on_c, 0, 62, 67
2, 722628, Note_on_c, 0, 62, 0
2, 722640, Note_on_c, 0, 61, 67
2, 722647, Note_on_c, 0, 88, 0
2, 722647, Note_on_c, 0, 85, 0
2, 722647, Note_on_c, 0, 82, 0
2, 722647, Note_on_c, 0, 76, 0
2, 722647, Note_on_c, 0, 79, 0
2, 722700, Note_on_c, 0, 77, 121
2, 722700, Note_on_c, 0, 82, 121
2, 722700, Note_on_c, 0, 86, 122
2, 722700, Note_on_c, 0, 89, 120
2, 722748, Note_on_c, 0, 61, 0
2, 722759, Note_on_c, 0, 57, 66
2, 722759, Control_c, 0, 64, 0
2, 722863, Note_on_c, 0, 86, 0
2, 722863, Note_on_c, 0, 89, 0
2, 722863, Note_on_c, 0, 77, 0
2, 722863, Note_on_c, 0, 82, 0
2, 722869, Note_on_c, 0, 57, 0
2, 722880, Note_on_c, 0, 77, 120
2, 722880, Note_on_c, 0, 82, 119
2, 722880, Note_on_c, 0, 86, 118
2, 722880, Note_on_c, 0, 89, 117
2, 722880, Control_c, 0, 64, 127
2, 722880, Note_on_c, 0, 57, 80
2, 722988, Note_on_c, 0, 57, 0
2, 723000, Note_on_c, 0, 55, 74
2, 723108, Note_on_c, 0, 55, 0
2, 723119, Note_on_c, 0, 52, 76
2, 723205, Note_on_c, 0, 89, 0
2, 723205, Note_on_c, 0, 86, 0
2, 723205, Note_on_c, 0, 77, 0
2, 723205, Note_on_c, 0, 82, 0
2, 723229, Note_on_c, 0, 52, 0
2, 723240, Note_on_c, 0, 79, 122
2, 723240, Note_on_c, 0, 82, 121
2, 723240, Note_on_c, 0, 85, 122
2, 723240, Note_on_c, 0, 88, 122
2, 723240, Note_on_c, 0, 91, 122
2, 723240, Note_on_c, 0, 50, 83
2, 723348, Note_on_c, 0, 50, 0
2, 723360, Note_on_c, 0, 49, 88
2, 723468, Note_on_c, 0, 49, 0
2, 723479, Note_on_c, 0, 46, 83
2, 723589, Note_on_c, 0, 46, 0
2, 723600, Note_on_c, 0, 45, 94
2, 723708, Note_on_c, 0, 45, 0
2, 723720, Note_on_c, 0, 43, 94
2, 723828, Note_on_c, 0, 43, 0
2, 723839, Note_on_c, 0, 40, 95
2, 723890, Note_on_c, 0, 82, 0
2, 723890, Note_on_c, 0, 88, 0
2, 723890, Note_on_c, 0, 85, 0
2, 723890, Note_on_c, 0, 79, 0
2, 723890, Note_on_c, 0, 91, 0
2, 723949, Note_on_c, 0, 40, 0
2, 723960, Note_on_c, 0, 80, 121
2, 723960, Note_on_c, 0, 82, 120
2, 723960, Note_on_c, 0, 85, 122
2, 723960, Note_on_c, 0, 88, 121
2, 723960, Note_on_c, 0, 92, 122
2, 723960, Note_on_c, 0, 38, 102
2, 724042, Note_on_c, 0, 38, 0
2, 724050, Note_on_c, 0, 37, 103
2, 724132, Note_on_c, 0, 37, 0
2, 724140, Note_on_c, 0, 34, 102
2, 724222, Note_on_c, 0, 34, 0
2, 724230, Note_on_c, 0, 33, 105
2, 724230, Control_c, 0, 64, 0
2, 724285, Note_on_c, 0, 82, 0
2, 724285, Note_on_c, 0, 88, 0
2, 724285, Note_on_c, 0, 85, 0
2, 724285, Note_on_c, 0, 80, 0
2, 724285, Note_on_c, 0, 92, 0
2, 724312, Note_on_c, 0, 33, 0
2, 724320, Note_on_c, 0, 93, 122
2, 724320, Control_c, 0, 64, 127
2, 724320, Note_on_c, 0, 26, 76
2, 724320, Note_on_c, 0, 38, 76
2, 724428, Note_on_c, 0, 93, 0
2, 724440, Note_on_c, 0, 88, 91
2, 724548, Note_on_c, 0, 88, 0
2, 724559, Note_on_c, 0, 93, 118
2, 724669, Note_on_c, 0, 93, 0
2, 724680, Note_on_c, 0, 81, 80
2, 724788, Note_on_c, 0, 81, 0
2, 724800, Note_on_c, 0, 81, 99
2, 724860, Note_on_c, 0, 53, 109
2, 724860, Note_on_c, 0, 57, 110
2, 724860, Note_on_c, 0, 59, 108
2, 724860, Note_on_c, 0, 62, 106
2, 724908, Note_on_c, 0, 81, 0
2, 724919, Note_on_c, 0, 74, 85
2, 724970, Note_on_c, 0, 26, 0
2, 724970, Note_on_c, 0, 38, 0
2, 725023, Note_on_c, 0, 62, 0
2, 725023, Note_on_c, 0, 57, 0
2, 725023, Note_on_c, 0, 53, 0
2, 725023, Note_on_c, 0, 59, 0
2, 725029, Note_on_c, 0, 74, 0
2, 725040, Note_on_c, 0, 81, 122
2, 725040, Note_on_c, 0, 52, 121
2, 725040, Note_on_c, 0, 55, 122
2, 725040, Note_on_c, 0, 57, 122
2, 725040, Note_on_c, 0, 61, 122
2, 725040, Note_on_c, 0, 64, 122
2, 725148, Note_on_c, 0, 81, 0
2, 725160, Note_on_c, 0, 69, 78
2, 725268, Note_on_c, 0, 69, 0
2, 725279, Note_on_c, 0, 81, 122
2, 725389, Note_on_c, 0, 81, 0
2, 725400, Note_on_c, 0, 76, 97
2, 725400, Control_c, 0, 64, 0
2, 725508, Note_on_c, 0, 76, 0
2, 725520, Note_on_c, 0, 81, 121
2, 725580, Note_on_c, 0, 33, 92
2, 725628, Note_on_c, 0, 81, 0
2, 725639, Note_on_c, 0, 81, 108
2, 725690, Note_on_c, 0, 61, 0
2, 725690, Note_on_c, 0, 52, 0
2, 725690, Note_on_c, 0, 55, 0
2, 725690, Note_on_c, 0, 57, 0
2, 725690, Note_on_c, 0, 64, 0
2, 725743, Note_on_c, 0, 33, 0
2, 725749, Note_on_c, 0, 81, 0
2, 725760, Note_on_c, 0, 93, 122
2, 725760, Control_c, 0, 64, 127
2, 725760, Note_on_c, 0, 26, 121
2, 725760, Note_on_c, 0, 38, 122
2, 725868, Note_on_c, 0, 93, 0
2, 725880, Note_on_c, 0, 88, 97
2, 725988, Note_on_c, 0, 88, 0
2, 725999, Note_on_c, 0, 93, 121
2, 726109, Note_on_c, 0, 93, 0
2, 726120, Note_on_c, 0, 81, 82
2, 726228, Note_on_c, 0, 81, 0
2, 726240, Note_on_c, 0, 81, 100
2, 726300, Note_on_c, 0, 53, 106
2, 726300, Note_on_c, 0, 57, 106
2, 726300, Note_on_c, 0, 59, 108
2, 726300, Note_on_c, 0, 62, 106
2, 726348, Note_on_c, 0, 81, 0
2, 726359, Note_on_c, 0, 74, 86
2, 726410, Note_on_c, 0, 26, 0
2, 726410, Note_on_c, 0, 38, 0
2, 726463, Note_on_c, 0, 62, 0
2, 726463, Note_on_c, 0, 57, 0
2, 726463, Note_on_c, 0, 53, 0
2, 726463, Note_on_c, 0, 59, 0
2, 726469, Note_on_c, 0, 74, 0
2, 726480, Note_on_c, 0, 81, 122
2, 726480, Note_on_c, 0, 52, 122
2, 726480, Note_on_c, 0, 55, 121
2, 726480, Note_on_c, 0, 57, 122
2, 726480, Note_on_c, 0, 61, 122
2, 726480, Note_on_c, 0, 64, 122
2, 726588, Note_on_c, 0, 81, 0
2, 726600, Note_on_c, 0, 69, 80
2, 726708, Note_on_c, 0, 69, 0
2, 726719, Note_on_c, 0, 81, 121
2, 726829, Note_on_c, 0, 81, 0
2, 726840, Note_on_c, 0, 76, 97
2, 726948, Note_on_c, 0, 76, 0
2, 726960, Note_on_c, 0, 81, 119
2, 727020, Control_c, 0, 64, 0
2, 727020, Note_on_c, 0, 33, 93
2, 727068, Note_on_c, 0, 81, 0
2, 727079, Note_on_c, 0, 81, 108
2, 727130, Note_on_c, 0, 61, 0
2, 727130, Note_on_c, 0, 52, 0
2, 727130, Note_on_c, 0, 55, 0
2, 727130, Note_on_c, 0, 57, 0
2, 727130, Note_on_c, 0, 64, 0
2, 727183, Note_on_c, 0, 33, 0
2, 727189, Note_on_c, 0, 81, 0
2, 727200, Note_on_c, 0, 93, 122
2, 727200, Control_c, 0, 64, 127
2, 727200, Note_on_c, 0, 26, 122
2, 727200, Note_on_c, 0, 38, 120
2, 727308, Note_on_c, 0, 93, 0
2, 727320, Note_on_c, 0, 88, 95
2, 727428, Note_on_c, 0, 88, 0
2, 727439, Note_on_c, 0, 93, 118
2, 727549, Note_on_c, 0, 93, 0
2, 727560, Note_on_c, 0, 81, 80
2, 727668, Note_on_c, 0, 81, 0
2, 727680, Note_on_c, 0, 81, 99
2, 727740, Note_on_c, 0, 53, 108
2, 727740, Note_on_c, 0, 57, 107
2, 727740, Note_on_c, 0, 59, 108
2, 727740, Note_on_c, 0, 62, 106
2, 727788, Note_on_c, 0, 81, 0
2, 727799, Note_on_c, 0, 74, 84
2, 727903, Note_on_c, 0, 59, 0
2, 727903, Note_on_c, 0, 57, 0
2, 727903, Note_on_c, 0, 53, 0
2, 727903, Note_on_c, 0, 62, 0
2, 727909, Note_on_c, 0, 74, 0
2, 727920, Note_on_c, 0, 81, 122
2, 727920, Note_on_c, 0, 52, 122
2, 727920, Note_on_c, 0, 55, 122
2, 727920, Note_on_c, 0, 57, 122
2, 727920, Note_on_c, 0, 61, 121
2, 727920, Note_on_c, 0, 64, 122
2, 728028, Note_on_c, 0, 81, 0
2, 728040, Note_on_c, 0, 69, 80
2, 728148, Note_on_c, 0, 69, 0
2, 728159, Note_on_c, 0, 81, 122
2, 728269, Note_on_c, 0, 81, 0
2, 728280, Note_on_c, 0, 76, 99
2, 728388, Note_on_c, 0, 76, 0
2, 728400, Note_on_c, 0, 81, 117
2, 728407, Note_on_c, 0, 64, 0
2, 728407, Note_on_c, 0, 55, 0
2, 728407, Note_on_c, 0, 57, 0
2, 728407, Note_on_c, 0, 52, 0
2, 728407, Note_on_c, 0, 61, 0
2, 728460, Control_c, 0, 64, 0
2, 728460, Note_on_c, 0, 53, 114
2, 728460, Note_on_c, 0, 57, 113
2, 728460, Note_on_c, 0, 59, 113
2, 728460, Note_on_c, 0, 62, 113
2, 728508, Note_on_c, 0, 81, 0
2, 728519, Note_on_c, 0, 81, 106
2, 728570, Note_on_c, 0, 38, 0
2, 728570, Note_on_c, 0, 26, 0
2, 728623, Note_on_c, 0, 62, 0
2, 728623, Note_on_c, 0, 57, 0
2, 728623, Note_on_c, 0, 53, 0
2, 728623, Note_on_c, 0, 59, 0
2, 728629, Note_on_c, 0, 81, 0
2, 728640, Note_on_c, 0, 93, 122
2, 728640, Control_c, 0, 64, 127
2, 728640, Note_on_c, 0, 52, 122
2, 728640, Note_on_c, 0, 55, 122
2, 728640, Note_on_c, 0, 57, 122
2, 728640, Note_on_c, 0, 61, 122
2, 728640, Note_on_c, 0, 64, 122
2, 728748, Note_on_c, 0, 93, 0
2, 728760, Note_on_c, 0, 88, 98
2, 728868, Note_on_c, 0, 88, 0
2, 728879, Note_on_c, 0, 93, 118
2, 728989, Note_on_c, 0, 93, 0
2, 729000, Note_on_c, 0, 81, 80
2, 729108, Note_on_c, 0, 81, 0
2, 729120, Note_on_c, 0, 93, 122
2, 729180, Note_on_c, 0, 33, 93
2, 729228, Note_on_c, 0, 93, 0
2, 729239, Note_on_c, 0, 86, 90
2, 729343, Note_on_c, 0, 33, 0
2, 729349, Note_on_c, 0, 86, 0
2, 729360, Note_on_c, 0, 93, 122
2, 729360, Note_on_c, 0, 26, 120
2, 729360, Note_on_c, 0, 38, 118
2, 729468, Note_on_c, 0, 93, 0
2, 729480, Note_on_c, 0, 81, 79
2, 729588, Note_on_c, 0, 81, 0
2, 729599, Note_on_c, 0, 93, 121
2, 729650, Note_on_c, 0, 61, 0
2, 729650, Note_on_c, 0, 52, 0
2, 729650, Note_on_c, 0, 57, 0
2, 729650, Note_on_c, 0, 64, 0
2, 729650, Note_on_c, 0, 55, 0
2, 729709, Note_on_c, 0, 93, 0
2, 729720, Note_on_c, 0, 88, 99
2, 729828, Note_on_c, 0, 88, 0
2, 729840, Note_on_c, 0, 93, 119
2, 729900, Note_on_c, 0, 55, 108
2, 729900, Note_on_c, 0, 57, 107
2, 729900, Note_on_c, 0, 61, 109
2, 729900, Note_on_c, 0, 64, 107
2, 729900, Control_c, 0, 64, 0
2, 729948, Note_on_c, 0, 93, 0
2, 729959, Note_on_c, 0, 81, 76
2, 730010, Note_on_c, 0, 26, 0
2, 730010, Note_on_c, 0, 38, 0
2, 730063, Note_on_c, 0, 64, 0
2, 730063, Note_on_c, 0, 57, 0
2, 730063, Note_on_c, 0, 55, 0
2, 730063, Note_on_c, 0, 61, 0
2, 730069, Note_on_c, 0, 81, 0
2, 730080, Note_on_c, 0, 86, 117
2, 730080, Note_on_c, 0, 98, 119
2, 730080, Note_on_c, 0, 57, 112
2, 730080, Note_on_c, 0, 62, 112
2, 730080, Note_on_c, 0, 65, 112
2, 730188, Note_on_c, 0, 98, 0
2, 730188, Note_on_c, 0, 86, 0
2, 730200, Note_on_c, 0, 93, 92
2, 730308, Note_on_c, 0, 93, 0
2, 730319, Note_on_c, 0, 86, 85
2, 730405, Note_on_c, 0, 65, 0
2, 730405, Note_on_c, 0, 62, 0
2, 730405, Note_on_c, 0, 57, 0
2, 730429, Note_on_c, 0, 86, 0
2, 730440, Note_on_c, 0, 87, 122
2, 730440, Note_on_c, 0, 96, 122
2, 730522, Note_on_c, 0, 96, 0
2, 730522, Note_on_c, 0, 87, 0
2, 730530, Note_on_c, 0, 87, 109
2, 730530, Note_on_c, 0, 96, 108
2, 730612, Note_on_c, 0, 96, 0
2, 730612, Note_on_c, 0, 87, 0
2, 730620, Note_on_c, 0, 88, 112
2, 730620, Note_on_c, 0, 97, 113
2, 730702, Note_on_c, 0, 97, 0
2, 730702, Note_on_c, 0, 88, 0
2, 730710, Note_on_c, 0, 88, 105
2, 730710, Note_on_c, 0, 97, 107
2, 730792, Note_on_c, 0, 97, 0
2, 730792, Note_on_c, 0, 88, 0
2, 730800, Note_on_c, 0, 89, 122
2, 730800, Note_on_c, 0, 98, 122
2, 730882, Note_on_c, 0, 98, 0
2, 730882, Note_on_c, 0, 89, 0
2, 730890, Note_on_c, 0, 89, 120
2, 730890, Note_on_c, 0, 98, 119
2, 730972, Note_on_c, 0, 98, 0
2, 730972, Note_on_c, 0, 89, 0
2, 730980, Note_on_c, 0, 93, 92
2, 731062, Note_on_c, 0, 93, 0
2, 731070, Note_on_c, 0, 86, 83
2, 731152, Note_on_c, 0, 86, 0
2, 731160, Note_on_c, 0, 79, 122
2, 731160, Note_on_c, 0, 87, 121
2, 731160, Note_on_c, 0, 91, 120
2, 731242, Note_on_c, 0, 91, 0
2, 731242, Note_on_c, 0, 87, 0
2, 731242, Note_on_c, 0, 79, 0
2, 731250, Note_on_c, 0, 87, 106
2, 731250, Note_on_c, 0, 91, 108
2, 731332, Note_on_c, 0, 91, 0
2, 731332, Note_on_c, 0, 87, 0
2, 731340, Note_on_c, 0, 80, 113
2, 731340, Note_on_c, 0, 88, 112
2, 731340, Note_on_c, 0, 92, 113
2, 731422, Note_on_c, 0, 92, 0
2, 731422, Note_on_c, 0, 88, 0
2, 731422, Note_on_c, 0, 80, 0
2, 731430, Note_on_c, 0, 88, 107
2, 731430, Note_on_c, 0, 92, 104
2, 731512, Note_on_c, 0, 92, 0
2, 731512, Note_on_c, 0, 88, 0
2, 731520, Note_on_c, 0, 81, 122
2, 731520, Note_on_c, 0, 89, 122
2, 731520, Note_on_c, 0, 93, 122
2, 731602, Note_on_c, 0, 93, 0
2, 731602, Note_on_c, 0, 89, 0
2, 731602, Note_on_c, 0, 81, 0
2, 731610, Note_on_c, 0, 86, 121
2, 731610, Note_on_c, 0, 93, 122
2, 731692, Note_on_c, 0, 93, 0
2, 731692, Note_on_c, 0, 86, 0
2, 731700, Note_on_c, 0, 89, 91
2, 731782, Note_on_c, 0, 89, 0
2, 731790, Note_on_c, 0, 81, 81
2, 731872, Note_on_c, 0, 81, 0
2, 731880, Note_on_c, 0, 63, 112
2, 731880, Note_on_c, 0, 72, 113
2, 731962, Note_on_c, 0, 72, 0
2, 731962, Note_on_c, 0, 63, 0
2, 731970, Note_on_c, 0, 75, 122
2, 731970, Note_on_c, 0, 84, 122
2, 732052, Note_on_c, 0, 84, 0
2, 732052, Note_on_c, 0, 75, 0
2, 732060, Note_on_c, 0, 64, 81
2, 732060, Note_on_c, 0, 73, 82
2, 732142, Note_on_c, 0, 73, 0
2, 732142, Note_on_c, 0, 64, 0
2, 732150, Note_on_c, 0, 76, 121
2, 732150, Note_on_c, 0, 85, 120
2, 732232, Note_on_c, 0, 85, 0
2, 732232, Note_on_c, 0, 76, 0
2, 732240, Note_on_c, 0, 65, 97
2, 732240, Note_on_c, 0, 74, 94
2, 732322, Note_on_c, 0, 74, 0
2, 732322, Note_on_c, 0, 65, 0
2, 732330, Note_on_c, 0, 77, 121
2, 732330, Note_on_c, 0, 86, 122
2, 732412, Note_on_c, 0, 86, 0
2, 732412, Note_on_c, 0, 77, 0
2, 732420, Note_on_c, 0, 81, 95
2, 732502, Note_on_c, 0, 81, 0
2, 732510, Note_on_c, 0, 74, 82
2, 732592, Note_on_c, 0, 74, 0
2, 732600, Note_on_c, 0, 55, 84
2, 732600, Note_on_c, 0, 63, 84
2, 732600, Note_on_c, 0, 67, 86
2, 732682, Note_on_c, 0, 67, 0
2, 732682, Note_on_c, 0, 63, 0
2, 732682, Note_on_c, 0, 55, 0
2, 732690, Note_on_c, 0, 75, 122
2, 732690, Note_on_c, 0, 79, 122
2, 732772, Note_on_c, 0, 79, 0
2, 732772, Note_on_c, 0, 75, 0
2, 732780, Note_on_c, 0, 56, 83
2, 732780, Note_on_c, 0, 63, 79
2, 732780, Note_on_c, 0, 68, 83
2, 732862, Note_on_c, 0, 68, 0
2, 732862, Note_on_c, 0, 63, 0
2, 732862, Note_on_c, 0, 56, 0
2, 732870, Note_on_c, 0, 76, 122
2, 732870, Note_on_c, 0, 80, 122
2, 732952, Note_on_c, 0, 80, 0
2, 732952, Note_on_c, 0, 76, 0
2, 732960, Note_on_c, 0, 57, 95
2, 732960, Note_on_c, 0, 65, 96
2, 732960, Note_on_c, 0, 69, 97
2, 733042, Note_on_c, 0, 69, 0
2, 733042, Note_on_c, 0, 65, 0
2, 733042, Note_on_c, 0, 57, 0
2, 733050, Note_on_c, 0, 74, 122
2, 733050, Note_on_c, 0, 81, 122
2, 733132, Note_on_c, 0, 81, 0
2, 733132, Note_on_c, 0, 74, 0
2, 733140, Note_on_c, 0, 77, 98
2, 733222, Note_on_c, 0, 77, 0
2, 733230, Note_on_c, 0, 69, 81
2, 733312, Note_on_c, 0, 69, 0
2, 733320, Note_on_c, 0, 51, 82
2, 733320, Note_on_c, 0, 60, 82
2, 733402, Note_on_c, 0, 60, 0
2, 733402, Note_on_c, 0, 51, 0
2, 733410, Note_on_c, 0, 63, 120
2, 733410, Note_on_c, 0, 72, 121
2, 733492, Note_on_c, 0, 72, 0
2, 733492, Note_on_c, 0, 63, 0
2, 733500, Note_on_c, 0, 52, 83
2, 733500, Note_on_c, 0, 61, 80
2, 733582, Note_on_c, 0, 61, 0
2, 733582, Note_on_c, 0, 52, 0
2, 733590, Note_on_c, 0, 64, 122
2, 733590, Note_on_c, 0, 73, 122
2, 733672, Note_on_c, 0, 73, 0
2, 733672, Note_on_c, 0, 64, 0
2, 733680, Note_on_c, 0, 53, 94
2, 733680, Note_on_c, 0, 62, 97
2, 733762, Note_on_c, 0, 62, 0
2, 733762, Note_on_c, 0, 53, 0
2, 733770, Note_on_c, 0, 65, 122
2, 733770, Note_on_c, 0, 74, 122
2, 733852, Note_on_c, 0, 74, 0
2, 733852, Note_on_c, 0, 65, 0
2, 733860, Note_on_c, 0, 69, 95
2, 733942, Note_on_c, 0, 69, 0
2, 733950, Note_on_c, 0, 62, 82
2, 734032, Note_on_c, 0, 62, 0
2, 734040, Note_on_c, 0, 43, 83
2, 734040, Note_on_c, 0, 51, 86
2, 734040, Note_on_c, 0, 55, 84
2, 734122, Note_on_c, 0, 55, 0
2, 734122, Note_on_c, 0, 51, 0
2, 734122, Note_on_c, 0, 43, 0
2, 734130, Note_on_c, 0, 63, 121
2, 734130, Note_on_c, 0, 67, 122
2, 734212, Note_on_c, 0, 67, 0
2, 734212, Note_on_c, 0, 63, 0
2, 734220, Note_on_c, 0, 44, 80
2, 734220, Note_on_c, 0, 51, 79
2, 734220, Note_on_c, 0, 56, 82
2, 734302, Note_on_c, 0, 56, 0
2, 734302, Note_on_c, 0, 51, 0
2, 734302, Note_on_c, 0, 44, 0
2, 734310, Note_on_c, 0, 64, 122
2, 734310, Note_on_c, 0, 68, 121
2, 734392, Note_on_c, 0, 68, 0
2, 734392, Note_on_c, 0, 64, 0
2, 734400, Note_on_c, 0, 45, 97
2, 734400, Note_on_c, 0, 53, 98
2, 734400, Note_on_c, 0, 57, 95
2, 734482, Note_on_c, 0, 57, 0
2, 734482, Note_on_c, 0, 53, 0
2, 734482, Note_on_c, 0, 45, 0
2, 734490, Note_on_c, 0, 62, 122
2, 734490, Note_on_c, 0, 69, 121
2, 734572, Note_on_c, 0, 69, 0
2, 734572, Note_on_c, 0, 62, 0
2, 734580, Note_on_c, 0, 65, 99
2, 734662, Note_on_c, 0, 65, 0
2, 734670, Note_on_c, 0, 57, 82
2, 734752, Note_on_c, 0, 57, 0
2, 734760, Note_on_c, 0, 39, 80
2, 734760, Note_on_c, 0, 48, 82
2, 734842, Note_on_c, 0, 48, 0
2, 734842, Note_on_c, 0, 39, 0
2, 734850, Note_on_c, 0, 51, 122
2, 734850, Note_on_c, 0, 60, 120
2, 734932, Note_on_c, 0, 60, 0
2, 734932, Note_on_c, 0, 51, 0
2, 734940, Note_on_c, 0, 40, 82
2, 734940, Note_on_c, 0, 49, 79
2, 735022, Note_on_c, 0, 49, 0
2, 735022, Note_on_c, 0, 40, 0
2, 735030, Note_on_c, 0, 52, 122
2, 735030, Note_on_c, 0, 61, 122
2, 735112, Note_on_c, 0, 61, 0
2, 735112, Note_on_c, 0, 52, 0
2, 735120, Note_on_c, 0, 41, 95
2, 735120, Note_on_c, 0, 50, 98
2, 735202, Note_on_c, 0, 50, 0
2, 735202, Note_on_c, 0, 41, 0
2, 735210, Note_on_c, 0, 53, 121
2, 735210, Note_on_c, 0, 62, 120
2, 735292, Note_on_c, 0, 62, 0
2, 735292, Note_on_c, 0, 53, 0
2, 735300, Note_on_c, 0, 57, 95
2, 735382, Note_on_c, 0, 57, 0
2, 735390, Note_on_c, 0, 50, 85
2, 735472, Note_on_c, 0, 50, 0
2, 735480, Note_on_c, 0, 36, 77
2, 735562, Note_on_c, 0, 36, 0
2, 735570, Note_on_c, 0, 48, 122
2, 735652, Note_on_c, 0, 48, 0
2, 735660, Note_on_c, 0, 37, 82
2, 735742, Note_on_c, 0, 37, 0
2, 735750, Note_on_c, 0, 49, 122
2, 735832, Note_on_c, 0, 49, 0
2, 735840, Note_on_c, 0, 26, 98
2, 735840, Note_on_c, 0, 38, 97
2, 736079, Note_on_c, 0, 45, 95
2, 736189, Note_on_c, 0, 45, 0
2, 736200, Note_on_c, 0, 50, 120
2, 736308, Note_on_c, 0, 50, 0
2, 736320, Note_on_c, 0, 53, 119
2, 736428, Note_on_c, 0, 53, 0
2, 736439, Note_on_c, 0, 57, 119
2, 736490, Note_on_c, 0, 38, 0
2, 736490, Note_on_c, 0, 26, 0
2, 736549, Note_on_c, 0, 57, 0
2, 736560, Note_on_c, 0, 62, 122
2, 736560, Note_on_c, 0, 65, 122
2, 736560, Note_on_c, 0, 69, 122
2, 736560, Note_on_c, 0, 57, 122
2, 736668, Note_on_c, 0, 57, 0
2, 736668, Note_on_c, 0, 62, 0
2, 736668, Note_on_c, 0, 65, 0
2, 736668, Note_on_c, 0, 69, 0
2, 736680, Note_on_c, 0, 62, 113
2, 736680, Note_on_c, 0, 65, 112
2, 736680, Note_on_c, 0, 69, 111
2, 736680, Note_on_c, 0, 53, 101
2, 736788, Note_on_c, 0, 53, 0
2, 736788, Note_on_c, 0, 62, 0
2, 736788, Note_on_c, 0, 65, 0
2, 736788, Note_on_c, 0, 69, 0
2, 736799, Note_on_c, 0, 62, 105
2, 736799, Note_on_c, 0, 65, 105
2, 736799, Note_on_c, 0, 69, 105
2, 736799, Note_on_c, 0, 50, 95
2, 736909, Note_on_c, 0, 50, 0
2, 736909, Note_on_c, 0, 62, 0
2, 736909, Note_on_c, 0, 65, 0
2, 736909, Note_on_c, 0, 69, 0
2, 736920, Note_on_c, 0, 62, 108
2, 736920, Note_on_c, 0, 65, 108
2, 736920, Note_on_c, 0, 69, 109
2, 736920, Note_on_c, 0, 53, 117
2, 737028, Note_on_c, 0, 53, 0
2, 737040, Note_on_c, 0, 50, 98
2, 737148, Note_on_c, 0, 50, 0
2, 737159, Note_on_c, 0, 45, 90
2, 737245, Note_on_c, 0, 69, 0
2, 737245, Note_on_c, 0, 62, 0
2, 737245, Note_on_c, 0, 65, 0
2, 737269, Note_on_c, 0, 45, 0
2, 737280, Control_c, 0, 64, 127
2, 737280, Note_on_c, 0, 26, 84
2, 737280, Note_on_c, 0, 38, 86
2, 737519, Note_on_c, 0, 45, 93
2, 737629, Note_on_c, 0, 45, 0
2, 737640, Note_on_c, 0, 50, 120
2, 737748, Note_on_c, 0, 50, 0
2, 737760, Note_on_c, 0, 53, 116
2, 737868, Note_on_c, 0, 53, 0
2, 737879, Note_on_c, 0, 57, 118
2, 737930, Note_on_c, 0, 38, 0
2, 737930, Note_on_c, 0, 26, 0
2, 737989, Note_on_c, 0, 57, 0
2, 738000, Note_on_c, 0, 62, 122
2, 738000, Note_on_c, 0, 65, 122
2, 738000, Note_on_c, 0, 69, 122
2, 738000, Control_c, 0, 64, 0
2, 738000, Note_on_c, 0, 57, 122
2, 738108, Note_on_c, 0, 57, 0
2, 738108, Note_on_c, 0, 62, 0
2, 738108, Note_on_c, 0, 65, 0
2, 738108, Note_on_c, 0, 69, 0
2, 738120, Note_on_c, 0, 62, 113
2, 738120, Note_on_c, 0, 65, 113
2, 738120, Note_on_c, 0, 69, 112
2, 738120, Note_on_c, 0, 53, 98
2, 738228, Note_on_c, 0, 53, 0
2, 738228, Note_on_c, 0, 62, 0
2, 738228, Note_on_c, 0, 65, 0
2, 738228, Note_on_c, 0, 69, 0
2, 738239, Note_on_c, 0, 62, 108
2, 738239, Note_on_c, 0, 65, 108
2, 738239, Note_on_c, 0, 69, 107
2, 738239, Note_on_c, 0, 50, 95
2, 738349, Note_on_c, 0, 50, 0
2, 738349, Note_on_c, 0, 62, 0
2, 738349, Note_on_c, 0, 65, 0
2, 738349, Note_on_c, 0, 69, 0
2, 738360, Note_on_c, 0, 62, 110
2, 738360, Note_on_c, 0, 65, 110
2, 738360, Note_on_c, 0, 69, 108
2, 738360, Note_on_c, 0, 53, 117
2, 738468, Note_on_c, 0, 53, 0
2, 738480, Note_on_c, 0, 50, 98
2, 738588, Note_on_c, 0, 50, 0
2, 738599, Note_on_c, 0, 45, 91
2, 738685, Note_on_c, 0, 69, 0
2, 738685, Note_on_c, 0, 62, 0
2, 738685, Note_on_c, 0, 65, 0
2, 738709, Note_on_c, 0, 45, 0
2, 738720, Control_c, 0, 64, 127
2, 738720, Note_on_c, 0, 26, 86
2, 738720, Note_on_c, 0, 38, 84
2, 738959, Note_on_c, 0, 45, 93
2, 739069, Note_on_c, 0, 45, 0
2, 739080, Note_on_c, 0, 50, 122
2, 739188, Note_on_c, 0, 50, 0
2, 739200, Note_on_c, 0, 53, 118
2, 739308, Note_on_c, 0, 53, 0
2, 739319, Note_on_c, 0, 57, 119
2, 739370, Note_on_c, 0, 38, 0
2, 739370, Note_on_c, 0, 26, 0
2, 739429, Note_on_c, 0, 57, 0
2, 739440, Note_on_c, 0, 62, 122
2, 739440, Note_on_c, 0, 65, 122
2, 739440, Note_on_c, 0, 69, 122
2, 739440, Control_c, 0, 64, 0
2, 739440, Note_on_c, 0, 57, 122
2, 739548, Note_on_c, 0, 57, 0
2, 739548, Note_on_c, 0, 62, 0
2, 739548, Note_on_c, 0, 65, 0
2, 739548, Note_on_c, 0, 69, 0
2, 739560, Note_on_c, 0, 62, 111
2, 739560, Note_on_c, 0, 65, 113
2, 739560, Note_on_c, 0, 69, 113
2, 739560, Note_on_c, 0, 53, 99
2, 739668, Note_on_c, 0, 53, 0
2, 739668, Note_on_c, 0, 62, 0
2, 739668, Note_on_c, 0, 65, 0
2, 739668, Note_on_c, 0, 69, 0
2, 739679, Note_on_c, 0, 62, 107
2, 739679, Note_on_c, 0, 65, 107
2, 739679, Note_on_c, 0, 69, 105
2, 739679, Note_on_c, 0, 50, 95
2, 739789, Note_on_c, 0, 50, 0
2, 739789, Note_on_c, 0, 62, 0
2, 739789, Note_on_c, 0, 65, 0
2, 739789, Note_on_c, 0, 69, 0
2, 739800, Control_c, 0, 64, 127
2, 739800, Note_on_c, 0, 62, 107
2, 739800, Note_on_c, 0, 65, 110
2, 739800, Note_on_c, 0, 69, 108
2, 739800, Note_on_c, 0, 53, 117
2, 739908, Note_on_c, 0, 53, 0
2, 739920, Note_on_c, 0, 50, 96
2, 740028, Note_on_c, 0, 50, 0
2, 740039, Note_on_c, 0, 45, 89
2, 740125, Note_on_c, 0, 69, 0
2, 740125, Note_on_c, 0, 62, 0
2, 740125, Note_on_c, 0, 65, 0
2, 740149, Note_on_c, 0, 45, 0
2, 740160, Note_on_c, 0, 62, 122
2, 740160, Note_on_c, 0, 65, 122
2, 740160, Note_on_c, 0, 69, 122
2, 740160, Note_on_c, 0, 57, 122
2, 740268, Note_on_c, 0, 57, 0
2, 740268, Note_on_c, 0, 62, 0
2, 740268, Note_on_c, 0, 65, 0
2, 740268, Note_on_c, 0, 69, 0
2, 740280, Note_on_c, 0, 62, 105
2, 740280, Note_on_c, 0, 65, 105
2, 740280, Note_on_c, 0, 69, 106
2, 740280, Note_on_c, 0, 53, 99
2, 740388, Note_on_c, 0, 53, 0
2, 740388, Note_on_c, 0, 62, 0
2, 740388, Note_on_c, 0, 65, 0
2, 740388, Note_on_c, 0, 69, 0
2, 740399, Note_on_c, 0, 62, 105
2, 740399, Note_on_c, 0, 65, 106
2, 740399, Note_on_c, 0, 69, 107
2, 740399, Note_on_c, 0, 50, 95
2, 740509, Note_on_c, 0, 50, 0
2, 740509, Note_on_c, 0, 62, 0
2, 740509, Note_on_c, 0, 65, 0
2, 740509, Note_on_c, 0, 69, 0
2, 740520, Note_on_c, 0, 62, 110
2, 740520, Note_on_c, 0, 65, 109
2, 740520, Note_on_c, 0, 69, 111
2, 740520, Note_on_c, 0, 53, 117
2, 740628, Note_on_c, 0, 53, 0
2, 740640, Note_on_c, 0, 50, 97
2, 740748, Note_on_c, 0, 50, 0
2, 740759, Note_on_c, 0, 45, 91
2, 740845, Note_on_c, 0, 69, 0
2, 740845, Note_on_c, 0, 62, 0
2, 740845, Note_on_c, 0, 65, 0
2, 740869, Note_on_c, 0, 45, 0
2, 740880, Control_c, 0, 64, 0
2, 740880, Note_on_c, 0, 62, 122
2, 740880, Note_on_c, 0, 65, 122
2, 740880, Note_on_c, 0, 69, 122
2, 740880, Note_on_c, 0, 57, 122
2, 740988, Note_on_c, 0, 57, 0
2, 740988, Note_on_c, 0, 62, 0
2, 740988, Note_on_c, 0, 65, 0
2, 740988, Note_on_c, 0, 69, 0
2, 741000, Note_on_c, 0, 62, 106
2, 741000, Note_on_c, 0, 65, 106
2, 741000, Note_on_c, 0, 69, 104
2, 741000, Note_on_c, 0, 53, 99
2, 741108, Note_on_c, 0, 53, 0
2, 741108, Note_on_c, 0, 62, 0
2, 741108, Note_on_c, 0, 65, 0
2, 741108, Note_on_c, 0, 69, 0
2, 741119, Note_on_c, 0, 62, 106
2, 741119, Note_on_c, 0, 65, 104
2, 741119, Note_on_c, 0, 69, 104
2, 741119, Note_on_c, 0, 50, 93
2, 741229, Note_on_c, 0, 50, 0
2, 741229, Note_on_c, 0, 62, 0
2, 741229, Note_on_c, 0, 65, 0
2, 741229, Note_on_c, 0, 69, 0
2, 741240, Note_on_c, 0, 62, 105
2, 741240, Note_on_c, 0, 65, 107
2, 741240, Note_on_c, 0, 69, 107
2, 741240, Note_on_c, 0, 53, 115
2, 741348, Note_on_c, 0, 53, 0
2, 741360, Note_on_c, 0, 50, 98
2, 741468, Note_on_c, 0, 50, 0
2, 741479, Note_on_c, 0, 45, 90
2, 741565, Note_on_c, 0, 69, 0
2, 741565, Note_on_c, 0, 62, 0
2, 741565, Note_on_c, 0, 65, 0
2, 741589, Note_on_c, 0, 45, 0
2, 741600, Note_on_c, 0, 58, 122
2, 741600, Note_on_c, 0, 62, 122
2, 741600, Note_on_c, 0, 65, 122
2, 741600, Note_on_c, 0, 70, 122
2, 741600, Note_on_c, 0, 22, 75
2, 741600, Note_on_c, 0, 34, 72
2, 741642, Note_on_c, 0, 22, 0
2, 741642, Note_on_c, 0, 41, 122
2, 741642, Note_on_c, 0, 46, 122
2, 741642, Note_on_c, 0, 50, 122
2, 741642, Note_on_c, 0, 53, 122
2, 742250, Note_on_c, 0, 53, 0
2, 742250, Note_on_c, 0, 58, 0
2, 742250, Note_on_c, 0, 50, 0
2, 742250, Note_on_c, 0, 70, 0
2, 742250, Note_on_c, 0, 62, 0
2, 742250, Note_on_c, 0, 65, 0
2, 742250, Note_on_c, 0, 46, 0
2, 742250, Note_on_c, 0, 41, 0
2, 742278, Note_on_c, 0, 34, 0
2, 742278, Note_on_c, 0, 22, 77
2, 742278, Note_on_c, 0, 34, 79
2, 742320, Note_on_c, 0, 22, 0
2, 742320, Note_on_c, 0, 58, 121
2, 742320, Note_on_c, 0, 62, 121
2, 742320, Note_on_c, 0, 65, 122
2, 742320, Note_on_c, 0, 70, 122
2, 742320, Note_on_c, 0, 41, 120
2, 742320, Note_on_c, 0, 46, 121
2, 742320, Note_on_c, 0, 50, 121
2, 742320, Note_on_c, 0, 53, 122
2, 742970, Note_on_c, 0, 53, 0
2, 742970, Note_on_c, 0, 65, 0
2, 742970, Note_on_c, 0, 50, 0
2, 742970, Note_on_c, 0, 70, 0
2, 742970, Note_on_c, 0, 58, 0
2, 742970, Note_on_c, 0, 62, 0
2, 742970, Note_on_c, 0, 46, 0
2, 742970, Note_on_c, 0, 41, 0
2, 743040, Note_on_c, 0, 34, 0
2, 743040, Note_on_c, 0, 58, 122
2, 743040, Note_on_c, 0, 62, 122
2, 743040, Note_on_c, 0, 65, 122
2, 743040, Note_on_c, 0, 70, 122
2, 743040, Note_on_c, 0, 22, 79
2, 743040, Note_on_c, 0, 34, 77
2, 743082, Note_on_c, 0, 22, 0
2, 743082, Note_on_c, 0, 41, 121
2, 743082, Note_on_c, 0, 46, 121
2, 743082, Note_on_c, 0, 50, 121
2, 743082, Note_on_c, 0, 53, 122
2, 743690, Note_on_c, 0, 53, 0
2, 743690, Note_on_c, 0, 58, 0
2, 743690, Note_on_c, 0, 50, 0
2, 743690, Note_on_c, 0, 70, 0
2, 743690, Note_on_c, 0, 62, 0
2, 743690, Note_on_c, 0, 65, 0
2, 743690, Note_on_c, 0, 46, 0
2, 743690, Note_on_c, 0, 41, 0
2, 743718, Note_on_c, 0, 34, 0
2, 743718, Note_on_c, 0, 22, 79
2, 743718, Note_on_c, 0, 34, 77
2, 743760, Note_on_c, 0, 22, 0
2, 743760, Note_on_c, 0, 58, 121
2, 743760, Note_on_c, 0, 62, 122
2, 743760, Note_on_c, 0, 65, 122
2, 743760, Note_on_c, 0, 70, 122
2, 743760, Note_on_c, 0, 41, 121
2, 743760, Note_on_c, 0, 46, 122
2, 743760, Note_on_c, 0, 50, 120
2, 743760, Note_on_c, 0, 53, 122
2, 744410, Note_on_c, 0, 53, 0
2, 744410, Note_on_c, 0, 65, 0
2, 744410, Note_on_c, 0, 50, 0
2, 744410, Note_on_c, 0, 70, 0
2, 744410, Note_on_c, 0, 58, 0
2, 744410, Note_on_c, 0, 62, 0
2, 744410, Note_on_c, 0, 46, 0
2, 744410, Note_on_c, 0, 41, 0
2, 744480, Note_on_c, 0, 34, 0
2, 744480, Note_on_c, 0, 58, 122
2, 744480, Note_on_c, 0, 62, 122
2, 744480, Note_on_c, 0, 65, 122
2, 744480, Note_on_c, 0, 70, 122
2, 744480, Note_on_c, 0, 22, 77
2, 744480, Note_on_c, 0, 34, 81
2, 744522, Note_on_c, 0, 22, 0
2, 744522, Note_on_c, 0, 41, 120
2, 744522, Note_on_c, 0, 46, 122
2, 744522, Note_on_c, 0, 50, 121
2, 744522, Note_on_c, 0, 53, 120
2, 744805, Note_on_c, 0, 53, 0
2, 744805, Note_on_c, 0, 58, 0
2, 744805, Note_on_c, 0, 50, 0
2, 744805, Note_on_c, 0, 70, 0
2, 744805, Note_on_c, 0, 62, 0
2, 744805, Note_on_c, 0, 65, 0
2, 744805, Note_on_c, 0, 46, 0
2, 744805, Note_on_c, 0, 41, 0
2, 744840, Note_on_c, 0, 34, 0
2, 744840, Note_on_c, 0, 57, 115
2, 744840, Note_on_c, 0, 62, 115
2, 744840, Note_on_c, 0, 65, 116
2, 744840, Note_on_c, 0, 69, 116
2, 744840, Note_on_c, 0, 41, 112
2, 744840, Note_on_c, 0, 45, 111
2, 744840, Note_on_c, 0, 50, 111
2, 744840, Note_on_c, 0, 53, 111
2, 745165, Note_on_c, 0, 53, 0
2, 745165, Note_on_c, 0, 57, 0
2, 745165, Note_on_c, 0, 41, 0
2, 745165, Note_on_c, 0, 62, 0
2, 745165, Note_on_c, 0, 65, 0
2, 745165, Note_on_c, 0, 69, 0
2, 745165, Note_on_c, 0, 45, 0
2, 745165, Note_on_c, 0, 50, 0
2, 745200, Note_on_c, 0, 58, 120
2, 745200, Note_on_c, 0, 62, 120
2, 745200, Note_on_c, 0, 65, 122
2, 745200, Note_on_c, 0, 70, 121
2, 745200, Note_on_c, 0, 41, 105
2, 745200, Note_on_c, 0, 46, 106
2, 745200, Note_on_c, 0, 50, 107
2, 745200, Note_on_c, 0, 53, 105
2, 746238, Note_on_c, 0, 31, 78
2, 746238, Note_on_c, 0, 43, 79
2, 746245, Note_on_c, 0, 53, 0
2, 746245, Note_on_c, 0, 50, 0
2, 746245, Note_on_c, 0, 70, 0
2, 746245, Note_on_c, 0, 58, 0
2, 746245, Note_on_c, 0, 41, 0
2, 746245, Note_on_c, 0, 62, 0
2, 746245, Note_on_c, 0, 65, 0
2, 746245, Note_on_c, 0, 46, 0
2, 746280, Note_on_c, 0, 31, 0
2, 746280, Note_on_c, 0, 60, 122
2, 746280, Note_on_c, 0, 62, 122
2, 746280, Note_on_c, 0, 65, 121
2, 746280, Note_on_c, 0, 72, 120
2, 746280, Note_on_c, 0, 43, 120
2, 746280, Note_on_c, 0, 53, 122
2, 746280, Note_on_c, 0, 48, 122
2, 746930, Note_on_c, 0, 48, 0
2, 747000, Note_on_c, 0, 72, 0
2, 747000, Note_on_c, 0, 65, 0
2, 747000, Note_on_c, 0, 62, 0
2, 747000, Note_on_c, 0, 60, 0
2, 747000, Note_on_c, 0, 62, 122
2, 747000, Note_on_c, 0, 74, 121
2, 747000, Note_on_c, 0, 50, 120
2, 747290, Note_on_c, 0, 43, 0
2, 747290, Note_on_c, 0, 53, 0
2, 747325, Note_on_c, 0, 62, 0
2, 747325, Note_on_c, 0, 74, 0
2, 747325, Note_on_c, 0, 50, 0
2, 747360, Note_on_c, 0, 43, 0
2, 747360, Note_on_c, 0, 60, 117
2, 747360, Note_on_c, 0, 64, 116
2, 747360, Note_on_c, 0, 67, 115
2, 747360, Note_on_c, 0, 72, 117
2, 747360, Note_on_c, 0, 24, 78
2, 747360, Note_on_c, 0, 36, 77
2, 747402, Note_on_c, 0, 24, 0
2, 747402, Note_on_c, 0, 43, 121
2, 747402, Note_on_c, 0, 48, 122
2, 747402, Note_on_c, 0, 52, 121
2, 747975, Note_on_c, 0, 36, 0
2, 747975, Note_on_c, 0, 31, 88
2, 747975, Note_on_c, 0, 43, 88
2, 748010, Note_on_c, 0, 60, 0
2, 748010, Note_on_c, 0, 52, 0
2, 748010, Note_on_c, 0, 72, 0
2, 748010, Note_on_c, 0, 43, 0
2, 748010, Note_on_c, 0, 64, 0
2, 748010, Note_on_c, 0, 67, 0
2, 748010, Note_on_c, 0, 48, 0
2, 748080, Note_on_c, 0, 31, 0
2, 748080, Note_on_c, 0, 61, 121
2, 748080, Note_on_c, 0, 64, 122
2, 748080, Note_on_c, 0, 67, 122
2, 748080, Note_on_c, 0, 70, 120
2, 748080, Note_on_c, 0, 73, 121
2, 748080, Note_on_c, 0, 52, 122
2, 748080, Note_on_c, 0, 55, 121
2, 748080, Note_on_c, 0, 58, 122
2, 748080, Note_on_c, 0, 49, 100
2, 748730, Note_on_c, 0, 58, 0
2, 748730, Note_on_c, 0, 55, 0
2, 748730, Note_on_c, 0, 52, 0
2, 748730, Note_on_c, 0, 67, 0
2, 748730, Note_on_c, 0, 64, 0
2, 748730, Note_on_c, 0, 70, 0
2, 748800, Note_on_c, 0, 43, 0
2, 748800, Note_on_c, 0, 65, 110
2, 748800, Note_on_c, 0, 69, 112
2, 748800, Note_on_c, 0, 53, 107
2, 748800, Note_on_c, 0, 57, 110
2, 749450, Note_on_c, 0, 57, 0
2, 749450, Note_on_c, 0, 69, 0
2, 749450, Note_on_c, 0, 65, 0
2, 749450, Note_on_c, 0, 53, 0
2, 749520, Note_on_c, 0, 61, 112
2, 749520, Note_on_c, 0, 64, 109
2, 749520, Note_on_c, 0, 67, 112
2, 749520, Note_on_c, 0, 52, 100
2, 749520, Note_on_c, 0, 55, 98
2, 749810, Note_on_c, 0, 61, 0
2, 749810, Note_on_c, 0, 73, 0
2, 749810, Note_on_c, 0, 49, 0
2, 749880, Note_on_c, 0, 62, 122
2, 749880, Note_on_c, 0, 74, 122
2, 749880, Note_on_c, 0, 50, 113
2, 750170, Note_on_c, 0, 67, 0
2, 750170, Note_on_c, 0, 61, 0
2, 750170, Note_on_c, 0, 55, 0
2, 750170, Note_on_c, 0, 64, 0
2, 750170, Note_on_c, 0, 52, 0
2, 750205, Note_on_c, 0, 50, 0
2, 750205, Note_on_c, 0, 74, 0
2, 750205, Note_on_c, 0, 62, 0
2, 750240, Note_on_c, 0, 62, 122
2, 750240, Note_on_c, 0, 65, 122
2, 750240, Note_on_c, 0, 69, 122
2, 750240, Note_on_c, 0, 74, 122
2, 750240, Note_on_c, 0, 26, 75
2, 750240, Note_on_c, 0, 38, 73
2, 750240, Note_on_c, 0, 45, 117
2, 750240, Note_on_c, 0, 50, 120
2, 750240, Note_on_c, 0, 53, 118
2, 750600, Note_on_c, 0, 50, 112
2, 750642, Note_on_c, 0, 26, 0
2, 750642, Note_on_c, 0, 38, 102
2, 750708, Note_on_c, 0, 50, 0
2, 750708, Note_on_c, 0, 38, 0
2, 750720, Note_on_c, 0, 57, 122
2, 750762, Note_on_c, 0, 38, 0
2, 750762, Note_on_c, 0, 45, 121
2, 750828, Note_on_c, 0, 57, 0
2, 750828, Note_on_c, 0, 45, 0
2, 750839, Note_on_c, 0, 50, 103
2, 750839, Note_on_c, 0, 38, 90
2, 750949, Note_on_c, 0, 38, 0
2, 750949, Note_on_c, 0, 50, 0
2, 750960, Note_on_c, 0, 57, 122
2, 750960, Note_on_c, 0, 45, 122
2, 751068, Note_on_c, 0, 57, 0
2, 751068, Note_on_c, 0, 45, 0
2, 751080, Note_on_c, 0, 62, 122
2, 751080, Note_on_c, 0, 50, 121
2, 751188, Note_on_c, 0, 50, 0
2, 751188, Note_on_c, 0, 62, 0
2, 751199, Note_on_c, 0, 57, 106
2, 751199, Note_on_c, 0, 45, 93
2, 751309, Note_on_c, 0, 57, 0
2, 751309, Note_on_c, 0, 45, 0
2, 751320, Note_on_c, 0, 62, 122
2, 751320, Note_on_c, 0, 50, 121
2, 751428, Note_on_c, 0, 62, 0
2, 751440, Note_on_c, 0, 69, 122
2, 751535, Note_on_c, 0, 50, 0
2, 751548, Note_on_c, 0, 69, 0
2, 751559, Note_on_c, 0, 62, 103
2, 751559, Note_on_c, 0, 26, 76
2, 751559, Note_on_c, 0, 38, 78
2, 751610, Note_on_c, 0, 45, 0
2, 751610, Note_on_c, 0, 69, 0
2, 751610, Note_on_c, 0, 50, 0
2, 751610, Note_on_c, 0, 53, 0
2, 751610, Note_on_c, 0, 74, 0
2, 751610, Note_on_c, 0, 65, 0
2, 751610, Note_on_c, 0, 62, 0
2, 751669, Note_on_c, 0, 38, 0
2, 751669, Note_on_c, 0, 26, 0
2, 751669, Note_on_c, 0, 62, 0
2, 751680, Note_on_c, 0, 65, 122
2, 751680, Note_on_c, 0, 69, 122
2, 751680, Note_on_c, 0, 74, 122
2, 751680, Note_on_c, 0, 45, 108
2, 751680, Note_on_c, 0, 50, 110
2, 751680, Note_on_c, 0, 53, 110
2, 752040, Note_on_c, 0, 50, 110
2, 752040, Note_on_c, 0, 38, 98
2, 752148, Note_on_c, 0, 38, 0
2, 752148, Note_on_c, 0, 50, 0
2, 752160, Note_on_c, 0, 57, 122
2, 752160, Note_on_c, 0, 45, 122
2, 752268, Note_on_c, 0, 57, 0
2, 752268, Note_on_c, 0, 45, 0
2, 752279, Note_on_c, 0, 50, 102
2, 752279, Note_on_c, 0, 38, 88
2, 752389, Note_on_c, 0, 38, 0
2, 752389, Note_on_c, 0, 50, 0
2, 752400, Note_on_c, 0, 57, 122
2, 752400, Note_on_c, 0, 45, 122
2, 752508, Note_on_c, 0, 57, 0
2, 752508, Note_on_c, 0, 45, 0
2, 752520, Note_on_c, 0, 62, 122
2, 752520, Note_on_c, 0, 50, 121
2, 752628, Note_on_c, 0, 62, 0
2, 752628, Note_on_c, 0, 50, 0
2, 752639, Note_on_c, 0, 57, 105
2, 752639, Note_on_c, 0, 45, 93
2, 752749, Note_on_c, 0, 57, 0
2, 752749, Note_on_c, 0, 45, 0
2, 752760, Note_on_c, 0, 62, 122
2, 752760, Note_on_c, 0, 50, 122
2, 752868, Note_on_c, 0, 62, 0
2, 752880, Note_on_c, 0, 69, 122
2, 752975, Note_on_c, 0, 50, 0
2, 752988, Note_on_c, 0, 69, 0
2, 752999, Note_on_c, 0, 62, 104
2, 752999, Note_on_c, 0, 26, 79
2, 752999, Note_on_c, 0, 38, 77
2, 753050, Note_on_c, 0, 45, 0
2, 753050, Note_on_c, 0, 69, 0
2, 753050, Note_on_c, 0, 50, 0
2, 753050, Note_on_c, 0, 53, 0
2, 753050, Note_on_c, 0, 74, 0
2, 753050, Note_on_c, 0, 65, 0
2, 753109, Note_on_c, 0, 38, 0
2, 753109, Note_on_c, 0, 26, 0
2, 753109, Note_on_c, 0, 62, 0
2, 753120, Note_on_c, 0, 65, 122
2, 753120, Note_on_c, 0, 69, 122
2, 753120, Note_on_c, 0, 74, 122
2, 753120, Note_on_c, 0, 45, 110
2, 753120, Note_on_c, 0, 50, 109
2, 753120, Note_on_c, 0, 53, 107
2, 753480, Note_on_c, 0, 50, 112
2, 753480, Note_on_c, 0, 38, 98
2, 753588, Note_on_c, 0, 38, 0
2, 753588, Note_on_c, 0, 50, 0
2, 753600, Note_on_c, 0, 57, 121
2, 753600, Note_on_c, 0, 45, 120
2, 753708, Note_on_c, 0, 57, 0
2, 753708, Note_on_c, 0, 45, 0
2, 753719, Note_on_c, 0, 50, 100
2, 753719, Note_on_c, 0, 38, 88
2, 753829, Note_on_c, 0, 38, 0
2, 753829, Note_on_c, 0, 50, 0
2, 753840, Note_on_c, 0, 57, 122
2, 753840, Note_on_c, 0, 45, 122
2, 753948, Note_on_c, 0, 57, 0
2, 753948, Note_on_c, 0, 45, 0
2, 753960, Note_on_c, 0, 62, 122
2, 753960, Note_on_c, 0, 50, 122
2, 754068, Note_on_c, 0, 62, 0
2, 754068, Note_on_c, 0, 50, 0
2, 754079, Note_on_c, 0, 57, 109
2, 754079, Note_on_c, 0, 45, 95
2, 754189, Note_on_c, 0, 57, 0
2, 754189, Note_on_c, 0, 45, 0
2, 754200, Note_on_c, 0, 62, 122
2, 754200, Note_on_c, 0, 50, 122
2, 754308, Note_on_c, 0, 62, 0
2, 754320, Note_on_c, 0, 69, 122
2, 754415, Note_on_c, 0, 50, 0
2, 754428, Note_on_c, 0, 69, 0
2, 754439, Note_on_c, 0, 62, 103
2, 754439, Note_on_c, 0, 26, 79
2, 754439, Note_on_c, 0, 38, 77
2, 754490, Note_on_c, 0, 45, 0
2, 754490, Note_on_c, 0, 69, 0
2, 754490, Note_on_c, 0, 50, 0
2, 754490, Note_on_c, 0, 53, 0
2, 754490, Note_on_c, 0, 74, 0
2, 754490, Note_on_c, 0, 65, 0
2, 754549, Note_on_c, 0, 38, 0
2, 754549, Note_on_c, 0, 26, 0
2, 754549, Note_on_c, 0, 62, 0
2, 754560, Note_on_c, 0, 65, 122
2, 754560, Note_on_c, 0, 69, 122
2, 754560, Note_on_c, 0, 74, 122
2, 754560, Note_on_c, 0, 45, 108
2, 754560, Note_on_c, 0, 50, 109
2, 754560, Note_on_c, 0, 53, 110
2, 754799, Note_on_c, 0, 69, 108
2, 754799, Note_on_c, 0, 45, 93
2, 754909, Note_on_c, 0, 45, 0
2, 754909, Note_on_c, 0, 69, 0
2, 754920, Note_on_c, 0, 74, 122
2, 754920, Note_on_c, 0, 50, 122
2, 755028, Note_on_c, 0, 50, 0
2, 755028, Note_on_c, 0, 74, 0
2, 755040, Note_on_c, 0, 81, 122
2, 755040, Note_on_c, 0, 57, 121
2, 755148, Note_on_c, 0, 57, 0
2, 755148, Note_on_c, 0, 81, 0
2, 755159, Note_on_c, 0, 74, 100
2, 755159, Note_on_c, 0, 50, 90
2, 755269, Note_on_c, 0, 74, 0
2, 755269, Note_on_c, 0, 50, 0
2, 755280, Note_on_c, 0, 81, 122
2, 755280, Note_on_c, 0, 57, 122
2, 755388, Note_on_c, 0, 57, 0
2, 755388, Note_on_c, 0, 81, 0
2, 755400, Note_on_c, 0, 86, 122
2, 755400, Note_on_c, 0, 62, 121
2, 755508, Note_on_c, 0, 62, 0
2, 755508, Note_on_c, 0, 86, 0
2, 755519, Note_on_c, 0, 81, 106
2, 755519, Note_on_c, 0, 57, 92
2, 755629, Note_on_c, 0, 57, 0
2, 755629, Note_on_c, 0, 81, 0
2, 755640, Note_on_c, 0, 86, 122
2, 755640, Note_on_c, 0, 62, 121
2, 755748, Note_on_c, 0, 62, 0
2, 755748, Note_on_c, 0, 86, 0
2, 755760, Note_on_c, 0, 93, 122
2, 755760, Note_on_c, 0, 69, 122
2, 755868, Note_on_c, 0, 93, 0
2, 755868, Note_on_c, 0, 69, 0
2, 755879, Note_on_c, 0, 86, 102
2, 755879, Note_on_c, 0, 62, 91
2, 755930, Note_on_c, 0, 45, 0
2, 755930, Note_on_c, 0, 69, 0
2, 755930, Note_on_c, 0, 74, 0
2, 755930, Note_on_c, 0, 53, 0
2, 755930, Note_on_c, 0, 65, 0
2, 755930, Note_on_c, 0, 50, 0
2, 756000, Note_on_c, 0, 98, 122
2, 756000, Note_on_c, 0, 74, 122
2, 756650, Note_on_c, 0, 74, 0
2, 756650, Note_on_c, 0, 86, 0
2, 756650, Note_on_c, 0, 62, 0
2, 756650, Note_on_c, 0, 98, 0
2, 756720, Note_on_c, 0, 76, 99
2, 756720, Note_on_c, 0, 88, 98
2, 756720, Note_on_c, 0, 52, 97
2, 756720, Note_on_c, 0, 64, 98
2, 757370, Note_on_c, 0, 64, 0
2, 757370, Note_on_c, 0, 76, 0
2, 757370, Note_on_c, 0, 88, 0
2, 757370, Note_on_c, 0, 52, 0
2, 757440, Note_on_c, 0, 67, 92
2, 757440, Note_on_c, 0, 79, 93
2, 757440, Note_on_c, 0, 43, 93
2, 757440, Note_on_c, 0, 55, 92
2, 757765, Note_on_c, 0, 55, 0
2, 757765, Note_on_c, 0, 67, 0
2, 757765, Note_on_c, 0, 79, 0
2, 757765, Note_on_c, 0, 43, 0
2, 757800, Note_on_c, 0, 57, 86
2, 757800, Note_on_c, 0, 69, 85
2, 757800, Note_on_c, 0, 33, 85
2, 757800, Note_on_c, 0, 45, 87
2, 758450, Note_on_c, 0, 45, 0
2, 758450, Note_on_c, 0, 57, 0
2, 758450, Note_on_c, 0, 69, 0
2, 758450, Note_on_c, 0, 33, 0
2, 758520, Note_on_c, 0, 69, 122
2, 758520, Note_on_c, 0, 81, 120
2, 758520, Note_on_c, 0, 45, 120
2, 758520, Note_on_c, 0, 57, 122
2, 758845, Note_on_c, 0, 57, 0
2, 758845, Note_on_c, 0, 69, 0
2, 758845, Note_on_c, 0, 81, 0
2, 758845, Note_on_c, 0, 45, 0
2, 758880, Note_on_c, 0, 50, 87
2, 758880, Note_on_c, 0, 62, 87
2, 758880, Note_on_c, 0, 26, 111
2, 758880, Note_on_c, 0, 38, 111
2, 759420, Note_on_c, 0, 74, 108
2, 759420, Note_on_c, 0, 77, 108
2, 759420, Note_on_c, 0, 81, 110
2, 759420, Note_on_c, 0, 86, 106
2, 759420, Note_on_c, 0, 53, 93
2, 759420, Note_on_c, 0, 57, 96
2, 759420, Note_on_c, 0, 62, 95
2, 759420, Note_on_c, 0, 65, 96
2, 759583, Note_on_c, 0, 65, 0
2, 759583, Note_on_c, 0, 53, 0
2, 759583, Note_on_c, 0, 81, 0
2, 759583, Note_on_c, 0, 62, 0
2, 759583, Note_on_c, 0, 86, 0
2, 759583, Note_on_c, 0, 57, 0
2, 759583, Note_on_c, 0, 74, 0
2, 759583, Note_on_c, 0, 77, 0
2, 759600, Note_on_c, 0, 74, 122
2, 759600, Note_on_c, 0, 77, 121
2, 759600, Note_on_c, 0, 81, 122
2, 759600, Note_on_c, 0, 86, 122
2, 759600, Note_on_c, 0, 53, 107
2, 759600, Note_on_c, 0, 57, 106
2, 759600, Note_on_c, 0, 62, 107
2, 759600, Note_on_c, 0, 65, 106
2, 760250, Note_on_c, 0, 65, 0
2, 760250, Note_on_c, 0, 50, 0
2, 760250, Note_on_c, 0, 86, 0
2, 760250, Note_on_c, 0, 26, 0
2, 760250, Note_on_c, 0, 38, 0
2, 760250, Note_on_c, 0, 62, 0
2, 760250, Note_on_c, 0, 74, 0
2, 760250, Note_on_c, 0, 77, 0
2, 760250, Note_on_c, 0, 53, 0
2, 760250, Note_on_c, 0, 81, 0
2, 760250, Note_on_c, 0, 62, 0
2, 760250, Note_on_c, 0, 57, 0
2, 760250, End_track
0, 0, End_of_file
