0, 0, Header, 0, 1, 120
1, 0, Start_track
1, 0, Title_t, "untitled"
1, 0, Time_signature, 4, 2, 24, 8
1, 0, Key_signature, 0, "major"
1, 0, Tempo, 500000
1, 0, Program_c, 0, 0
1, 0, Control_c, 0, 7, 105
1, 882, Control_c, 0, 67, 0
1, 956, Note_on_c, 0, 57, 112
1, 957, Note_on_c, 0, 45, 117
1, 958, Note_on_c, 0, 33, 100
1, 1149, Control_c, 0, 64, 24
1, 1152, Control_c, 0, 64, 56
1, 1155, Control_c, 0, 64, 88
1, 1158, Control_c, 0, 64, 127
1, 1204, Note_on_c, 0, 45, 0
1, 1206, Note_on_c, 0, 33, 0
1, 1213, Note_on_c, 0, 57, 0
1, 1453, Note_on_c, 0, 56, 115
1, 1457, Note_on_c, 0, 44, 115
1, 1458, Note_on_c, 0, 32, 107
1, 1466, Control_c, 0, 64, 88
1, 1470, Control_c, 0, 64, 24
1, 1473, Control_c, 0, 64, 0
1, 1592, Control_c, 0, 64, 24
1, 1595, Control_c, 0, 64, 40
1, 1598, Control_c, 0, 64, 72
1, 1602, Control_c, 0, 64, 104
1, 1604, Control_c, 0, 64, 127
1, 1688, Note_on_c, 0, 44, 0
1, 1710, Note_on_c, 0, 32, 0
1, 1710, Note_on_c, 0, 56, 0
1, 2026, Note_on_c, 0, 49, 115
1, 2028, Note_on_c, 0, 25, 115
1, 2029, Note_on_c, 0, 37, 104
1, 2037, Control_c, 0, 64, 88
1, 2041, Control_c, 0, 64, 0
1, 2941, Control_c, 0, 67, 24
1, 2946, Control_c, 0, 67, 40
1, 2962, Control_c, 0, 67, 56
1, 2967, Control_c, 0, 67, 72
1, 2973, Control_c, 0, 67, 88
1, 2978, Control_c, 0, 67, 104
1, 2989, Control_c, 0, 67, 127
1, 3269, Control_c, 0, 64, 40
1, 3283, Control_c, 0, 64, 56
1, 3291, Control_c, 0, 64, 72
1, 3299, Control_c, 0, 64, 104
1, 3310, Control_c, 0, 64, 127
1, 3375, Note_on_c, 0, 25, 0
1, 3393, Note_on_c, 0, 37, 0
1, 3407, Note_on_c, 0, 49, 0
1, 4136, Note_on_c, 0, 73, 53
1, 4137, Note_on_c, 0, 68, 47
1, 4138, Note_on_c, 0, 61, 41
1, 4140, Note_on_c, 0, 64, 40
1, 4144, Note_on_c, 0, 52, 41
1, 4146, Note_on_c, 0, 56, 47
1, 4185, Note_on_c, 0, 52, 0
1, 4191, Note_on_c, 0, 56, 0
1, 4196, Note_on_c, 0, 64, 0
1, 4198, Note_on_c, 0, 68, 0
1, 4204, Note_on_c, 0, 61, 0
1, 4210, Note_on_c, 0, 73, 0
1, 4370, Note_on_c, 0, 76, 65
1, 4371, Note_on_c, 0, 71, 51
1, 4372, Note_on_c, 0, 68, 44
1, 4372, Note_on_c, 0, 64, 42
1, 4374, Note_on_c, 0, 56, 43
1, 4377, Note_on_c, 0, 59, 41
1, 4423, Note_on_c, 0, 59, 0
1, 4423, Note_on_c, 0, 56, 0
1, 4427, Note_on_c, 0, 64, 0
1, 4436, Note_on_c, 0, 71, 0
1, 4437, Note_on_c, 0, 76, 0
1, 4438, Note_on_c, 0, 68, 0
1, 4579, Note_on_c, 0, 75, 63
1, 4581, Note_on_c, 0, 70, 53
1, 4585, Note_on_c, 0, 63, 47
1, 4585, Note_on_c, 0, 67, 43
1, 4587, Note_on_c, 0, 58, 47
1, 4588, Note_on_c, 0, 55, 42
1, 4619, Note_on_c, 0, 63, 0
1, 4623, Note_on_c, 0, 58, 0
1, 4623, Note_on_c, 0, 67, 0
1, 4624, Note_on_c, 0, 75, 0
1, 4625, Note_on_c, 0, 70, 0
1, 4625, Note_on_c, 0, 55, 0
1, 4831, Note_on_c, 0, 57, 73
1, 4834, Note_on_c, 0, 33, 59
1, 4834, Note_on_c, 0, 45, 66
1, 4839, Control_c, 0, 64, 88
1, 4843, Control_c, 0, 64, 0
1, 4874, Control_c, 0, 64, 40
1, 4877, Control_c, 0, 64, 72
1, 4880, Control_c, 0, 64, 127
1, 4901, Note_on_c, 0, 33, 0
1, 4918, Note_on_c, 0, 45, 0
1, 4931, Note_on_c, 0, 57, 0
1, 5101, Note_on_c, 0, 66, 52
1, 5101, Note_on_c, 0, 69, 55
1, 5103, Note_on_c, 0, 54, 47
1, 5103, Note_on_c, 0, 57, 50
1, 5105, Note_on_c, 0, 74, 59
1, 5107, Note_on_c, 0, 62, 41
1, 5136, Note_on_c, 0, 62, 0
1, 5143, Note_on_c, 0, 74, 0
1, 5144, Note_on_c, 0, 57, 0
1, 5145, Note_on_c, 0, 69, 0
1, 5150, Note_on_c, 0, 54, 0
1, 5155, Note_on_c, 0, 66, 0
1, 5325, Note_on_c, 0, 56, 76
1, 5330, Note_on_c, 0, 32, 48
1, 5330, Note_on_c, 0, 44, 50
1, 5333, Control_c, 0, 64, 88
1, 5336, Control_c, 0, 64, 0
1, 5364, Control_c, 0, 64, 24
1, 5367, Control_c, 0, 64, 56
1, 5370, Control_c, 0, 64, 88
1, 5373, Control_c, 0, 64, 127
1, 5387, Note_on_c, 0, 32, 0
1, 5399, Note_on_c, 0, 44, 0
1, 5407, Note_on_c, 0, 56, 0
1, 5574, Note_on_c, 0, 63, 54
1, 5575, Note_on_c, 0, 66, 50
1, 5576, Note_on_c, 0, 51, 51
1, 5577, Note_on_c, 0, 72, 51
1, 5579, Note_on_c, 0, 60, 44
1, 5580, Note_on_c, 0, 54, 45
1, 5608, Note_on_c, 0, 54, 0
1, 5608, Note_on_c, 0, 60, 0
1, 5610, Note_on_c, 0, 72, 0
1, 5612, Note_on_c, 0, 66, 0
1, 5614, Note_on_c, 0, 51, 0
1, 5620, Note_on_c, 0, 63, 0
1, 5888, Note_on_c, 0, 49, 61
1, 5890, Note_on_c, 0, 37, 44
1, 5892, Note_on_c, 0, 25, 50
1, 5906, Control_c, 0, 64, 104
1, 5909, Control_c, 0, 64, 40
1, 5912, Control_c, 0, 64, 0
1, 5945, Control_c, 0, 64, 40
1, 5948, Control_c, 0, 64, 88
1, 5951, Control_c, 0, 64, 127
1, 5986, Note_on_c, 0, 25, 0
1, 6004, Note_on_c, 0, 37, 0
1, 6013, Note_on_c, 0, 49, 0
1, 6207, Note_on_c, 0, 61, 45
1, 6207, Note_on_c, 0, 68, 53
1, 6209, Note_on_c, 0, 73, 60
1, 6210, Note_on_c, 0, 64, 48
1, 6212, Note_on_c, 0, 52, 40
1, 6213, Note_on_c, 0, 56, 54
1, 6264, Note_on_c, 0, 52, 0
1, 6268, Note_on_c, 0, 56, 0
1, 6270, Note_on_c, 0, 64, 0
1, 6274, Note_on_c, 0, 68, 0
1, 6278, Note_on_c, 0, 61, 0
1, 6284, Note_on_c, 0, 73, 0
1, 6425, Note_on_c, 0, 68, 58
1, 6427, Note_on_c, 0, 71, 59
1, 6427, Note_on_c, 0, 76, 66
1, 6429, Note_on_c, 0, 56, 56
1, 6431, Note_on_c, 0, 64, 48
1, 6432, Note_on_c, 0, 59, 48
1, 6475, Note_on_c, 0, 59, 0
1, 6476, Note_on_c, 0, 64, 0
1, 6479, Note_on_c, 0, 56, 0
1, 6494, Note_on_c, 0, 76, 0
1, 6496, Note_on_c, 0, 71, 0
1, 6496, Note_on_c, 0, 68, 0
1, 6634, Note_on_c, 0, 75, 72
1, 6637, Note_on_c, 0, 70, 63
1, 6638, Note_on_c, 0, 63, 56
1, 6639, Note_on_c, 0, 58, 50
1, 6639, Note_on_c, 0, 55, 50
1, 6641, Note_on_c, 0, 67, 52
1, 6664, Note_on_c, 0, 67, 0
1, 6666, Note_on_c, 0, 63, 0
1, 6666, Note_on_c, 0, 58, 0
1, 6669, Note_on_c, 0, 70, 0
1, 6669, Note_on_c, 0, 55, 0
1, 6671, Note_on_c, 0, 75, 0
1, 6881, Note_on_c, 0, 57, 78
1, 6885, Note_on_c, 0, 45, 61
1, 6885, Note_on_c, 0, 33, 54
1, 6889, Control_c, 0, 64, 104
1, 6892, Control_c, 0, 64, 24
1, 6895, Control_c, 0, 64, 0
1, 6921, Control_c, 0, 64, 24
1, 6924, Control_c, 0, 64, 56
1, 6927, Control_c, 0, 64, 104
1, 6930, Control_c, 0, 64, 127
1, 6945, Note_on_c, 0, 33, 0
1, 6961, Note_on_c, 0, 45, 0
1, 6971, Note_on_c, 0, 57, 0
1, 7132, Note_on_c, 0, 66, 58
1, 7133, Note_on_c, 0, 69, 57
1, 7135, Note_on_c, 0, 74, 63
1, 7135, Note_on_c, 0, 54, 48
1, 7137, Note_on_c, 0, 62, 50
1, 7137, Note_on_c, 0, 57, 47
1, 7166, Note_on_c, 0, 62, 0
1, 7174, Note_on_c, 0, 74, 0
1, 7177, Note_on_c, 0, 69, 0
1, 7177, Note_on_c, 0, 57, 0
1, 7185, Note_on_c, 0, 54, 0
1, 7187, Note_on_c, 0, 66, 0
1, 7370, Note_on_c, 0, 56, 78
1, 7371, Note_on_c, 0, 32, 53
1, 7373, Note_on_c, 0, 44, 53
1, 7377, Control_c, 0, 64, 104
1, 7380, Control_c, 0, 64, 40
1, 7383, Control_c, 0, 64, 0
1, 7406, Control_c, 0, 64, 24
1, 7409, Control_c, 0, 64, 72
1, 7412, Control_c, 0, 64, 104
1, 7415, Control_c, 0, 64, 127
1, 7433, Note_on_c, 0, 32, 0
1, 7445, Note_on_c, 0, 44, 0
1, 7451, Note_on_c, 0, 56, 0
1, 7604, Note_on_c, 0, 66, 54
1, 7604, Note_on_c, 0, 72, 59
1, 7606, Note_on_c, 0, 63, 59
1, 7607, Note_on_c, 0, 51, 57
1, 7609, Note_on_c, 0, 54, 51
1, 7611, Note_on_c, 0, 60, 46
1, 7636, Note_on_c, 0, 60, 0
1, 7640, Note_on_c, 0, 54, 0
1, 7644, Note_on_c, 0, 51, 0
1, 7647, Note_on_c, 0, 72, 0
1, 7649, Note_on_c, 0, 66, 0
1, 7657, Note_on_c, 0, 63, 0
1, 7904, Note_on_c, 0, 25, 50
1, 7904, Note_on_c, 0, 37, 45
1, 7906, Note_on_c, 0, 49, 68
1, 7914, Control_c, 0, 64, 88
1, 7917, Control_c, 0, 64, 0
1, 7945, Control_c, 0, 64, 24
1, 7948, Control_c, 0, 64, 56
1, 7951, Control_c, 0, 64, 104
1, 7954, Control_c, 0, 64, 127
1, 7985, Note_on_c, 0, 25, 0
1, 7998, Note_on_c, 0, 49, 0
1, 8000, Note_on_c, 0, 37, 0
1, 8223, Note_on_c, 0, 73, 72
1, 8223, Note_on_c, 0, 61, 51
1, 8225, Note_on_c, 0, 68, 63
1, 8226, Note_on_c, 0, 52, 41
1, 8227, Note_on_c, 0, 64, 53
1, 8228, Note_on_c, 0, 56, 54
1, 8282, Note_on_c, 0, 52, 0
1, 8290, Note_on_c, 0, 56, 0
1, 8294, Note_on_c, 0, 64, 0
1, 8296, Note_on_c, 0, 61, 0
1, 8301, Note_on_c, 0, 68, 0
1, 8313, Note_on_c, 0, 73, 0
1, 8471, Note_on_c, 0, 80, 78
1, 8475, Note_on_c, 0, 73, 68
1, 8476, Note_on_c, 0, 71, 61
1, 8476, Note_on_c, 0, 68, 60
1, 8479, Note_on_c, 0, 59, 53
1, 8480, Note_on_c, 0, 61, 51
1, 8531, Note_on_c, 0, 59, 0
1, 8536, Note_on_c, 0, 61, 0
1, 8537, Note_on_c, 0, 68, 0
1, 8557, Note_on_c, 0, 80, 0
1, 8559, Note_on_c, 0, 71, 0
1, 8562, Note_on_c, 0, 73, 0
1, 8683, Note_on_c, 0, 78, 80
1, 8685, Note_on_c, 0, 57, 64
1, 8686, Note_on_c, 0, 66, 61
1, 8688, Note_on_c, 0, 73, 76
1, 8688, Note_on_c, 0, 69, 67
1, 8690, Note_on_c, 0, 61, 61
1, 8725, Note_on_c, 0, 66, 0
1, 8739, Note_on_c, 0, 61, 0
1, 8740, Note_on_c, 0, 78, 0
1, 8744, Note_on_c, 0, 69, 0
1, 8745, Note_on_c, 0, 73, 0
1, 8750, Note_on_c, 0, 57, 0
1, 8925, Note_on_c, 0, 60, 83
1, 8926, Note_on_c, 0, 36, 71
1, 8927, Note_on_c, 0, 48, 78
1, 8930, Control_c, 0, 64, 24
1, 8933, Control_c, 0, 64, 0
1, 8957, Control_c, 0, 64, 24
1, 8960, Control_c, 0, 64, 56
1, 8963, Control_c, 0, 64, 104
1, 8966, Control_c, 0, 64, 127
1, 8977, Note_on_c, 0, 36, 0
1, 8988, Note_on_c, 0, 48, 0
1, 9001, Note_on_c, 0, 60, 0
1, 9144, Note_on_c, 0, 76, 71
1, 9145, Note_on_c, 0, 66, 69
1, 9146, Note_on_c, 0, 69, 64
1, 9147, Note_on_c, 0, 54, 63
1, 9149, Note_on_c, 0, 64, 66
1, 9150, Note_on_c, 0, 57, 69
1, 9178, Note_on_c, 0, 64, 0
1, 9185, Note_on_c, 0, 76, 0
1, 9192, Note_on_c, 0, 57, 0
1, 9196, Note_on_c, 0, 69, 0
1, 9198, Note_on_c, 0, 54, 0
1, 9200, Note_on_c, 0, 66, 0
1, 9389, Note_on_c, 0, 59, 80
1, 9390, Note_on_c, 0, 35, 64
1, 9390, Note_on_c, 0, 47, 70
1, 9394, Control_c, 0, 64, 88
1, 9397, Control_c, 0, 64, 0
1, 9423, Control_c, 0, 64, 40
1, 9426, Control_c, 0, 64, 72
1, 9429, Control_c, 0, 64, 127
1, 9442, Note_on_c, 0, 35, 0
1, 9459, Note_on_c, 0, 47, 0
1, 9460, Note_on_c, 0, 59, 0
1, 9632, Note_on_c, 0, 75, 69
1, 9632, Note_on_c, 0, 54, 54
1, 9634, Note_on_c, 0, 66, 57
1, 9634, Note_on_c, 0, 63, 60
1, 9636, Note_on_c, 0, 69, 57
1, 9638, Note_on_c, 0, 57, 58
1, 9670, Note_on_c, 0, 63, 0
1, 9670, Note_on_c, 0, 75, 0
1, 9673, Note_on_c, 0, 69, 0
1, 9677, Note_on_c, 0, 57, 0
1, 9684, Note_on_c, 0, 66, 0
1, 9694, Note_on_c, 0, 54, 0
1, 9922, Note_on_c, 0, 52, 73
1, 9926, Note_on_c, 0, 40, 50
1, 9926, Note_on_c, 0, 28, 54
1, 9934, Control_c, 0, 64, 104
1, 9937, Control_c, 0, 64, 40
1, 9940, Control_c, 0, 64, 0
1, 9960, Control_c, 0, 64, 24
1, 9963, Control_c, 0, 64, 56
1, 9966, Control_c, 0, 64, 104
1, 9969, Control_c, 0, 64, 127
1, 9989, Note_on_c, 0, 28, 0
1, 10010, Note_on_c, 0, 40, 0
1, 10011, Note_on_c, 0, 52, 0
1, 10238, Note_on_c, 0, 76, 70
1, 10239, Note_on_c, 0, 68, 66
1, 10241, Note_on_c, 0, 64, 64
1, 10241, Note_on_c, 0, 56, 62
1, 10243, Note_on_c, 0, 59, 57
1, 10243, Note_on_c, 0, 71, 64
1, 10299, Note_on_c, 0, 56, 0
1, 10303, Note_on_c, 0, 59, 0
1, 10308, Note_on_c, 0, 64, 0
1, 10309, Note_on_c, 0, 68, 0
1, 10310, Note_on_c, 0, 71, 0
1, 10316, Note_on_c, 0, 76, 0
1, 10498, Note_on_c, 0, 83, 75
1, 10499, Note_on_c, 0, 75, 68
1, 10500, Note_on_c, 0, 76, 71
1, 10501, Note_on_c, 0, 71, 70
1, 10502, Note_on_c, 0, 63, 61
1, 10503, Note_on_c, 0, 64, 71
1, 10593, Note_on_c, 0, 64, 0
1, 10597, Note_on_c, 0, 71, 0
1, 10600, Note_on_c, 0, 83, 0
1, 10601, Note_on_c, 0, 63, 0
1, 10611, Note_on_c, 0, 76, 0
1, 10612, Note_on_c, 0, 75, 0
1, 10733, Note_on_c, 0, 73, 75
1, 10733, Note_on_c, 0, 81, 73
1, 10735, Note_on_c, 0, 61, 69
1, 10736, Note_on_c, 0, 76, 72
1, 10736, Note_on_c, 0, 69, 66
1, 10738, Note_on_c, 0, 64, 72
1, 10779, Note_on_c, 0, 69, 0
1, 10787, Note_on_c, 0, 81, 0
1, 10790, Note_on_c, 0, 64, 0
1, 10791, Note_on_c, 0, 76, 0
1, 10799, Note_on_c, 0, 61, 0
1, 10800, Note_on_c, 0, 73, 0
1, 10972, Note_on_c, 0, 64, 87
1, 10973, Control_c, 0, 64, 104
1, 10974, Note_on_c, 0, 40, 70
1, 10975, Note_on_c, 0, 52, 86
1, 10978, Control_c, 0, 64, 0
1, 11000, Control_c, 0, 64, 40
1, 11003, Control_c, 0, 64, 88
1, 11006, Control_c, 0, 64, 127
1, 11014, Note_on_c, 0, 40, 0
1, 11029, Note_on_c, 0, 52, 0
1, 11036, Note_on_c, 0, 64, 0
1, 11188, Note_on_c, 0, 80, 78
1, 11189, Note_on_c, 0, 58, 69
1, 11190, Note_on_c, 0, 70, 76
1, 11191, Note_on_c, 0, 73, 70
1, 11192, Note_on_c, 0, 68, 76
1, 11194, Note_on_c, 0, 61, 68
1, 11213, Note_on_c, 0, 68, 0
1, 11215, Note_on_c, 0, 61, 0
1, 11220, Note_on_c, 0, 58, 0
1, 11227, Note_on_c, 0, 80, 0
1, 11228, Note_on_c, 0, 73, 0
1, 11231, Note_on_c, 0, 70, 0
1, 11433, Note_on_c, 0, 63, 90
1, 11435, Note_on_c, 0, 39, 68
1, 11436, Note_on_c, 0, 51, 90
1, 11438, Control_c, 0, 64, 40
1, 11441, Control_c, 0, 64, 0
1, 11462, Control_c, 0, 64, 40
1, 11464, Control_c, 0, 64, 72
1, 11468, Control_c, 0, 64, 127
1, 11487, Note_on_c, 0, 39, 0
1, 11496, Note_on_c, 0, 51, 0
1, 11503, Note_on_c, 0, 63, 0
1, 11686, Note_on_c, 0, 70, 70
1, 11686, Note_on_c, 0, 79, 70
1, 11688, Note_on_c, 0, 73, 68
1, 11689, Note_on_c, 0, 58, 74
1, 11690, Note_on_c, 0, 67, 70
1, 11691, Note_on_c, 0, 61, 70
1, 11709, Note_on_c, 0, 67, 0
1, 11717, Note_on_c, 0, 58, 0
1, 11718, Note_on_c, 0, 61, 0
1, 11720, Note_on_c, 0, 79, 0
1, 11725, Note_on_c, 0, 73, 0
1, 11727, Note_on_c, 0, 70, 0
1, 12019, Note_on_c, 0, 56, 84
1, 12023, Note_on_c, 0, 32, 68
1, 12023, Note_on_c, 0, 44, 76
1, 12031, Control_c, 0, 64, 88
1, 12034, Control_c, 0, 64, 0
1, 12067, Control_c, 0, 64, 24
1, 12070, Control_c, 0, 64, 72
1, 12073, Control_c, 0, 64, 127
1, 12118, Note_on_c, 0, 32, 0
1, 12132, Note_on_c, 0, 44, 0
1, 12133, Note_on_c, 0, 56, 0
1, 12364, Note_on_c, 0, 80, 78
1, 12367, Note_on_c, 0, 71, 67
1, 12367, Note_on_c, 0, 75, 74
1, 12369, Note_on_c, 0, 68, 69
1, 12371, Note_on_c, 0, 59, 63
1, 12372, Note_on_c, 0, 63, 68
1, 12472, Note_on_c, 0, 59, 0
1, 12479, Note_on_c, 0, 63, 0
1, 12485, Note_on_c, 0, 71, 0
1, 12489, Note_on_c, 0, 68, 0
1, 12493, Note_on_c, 0, 75, 0
1, 12500, Note_on_c, 0, 80, 0
1, 12609, Note_on_c, 0, 61, 68
1, 12609, Note_on_c, 0, 81, 76
1, 12611, Note_on_c, 0, 73, 76
1, 12612, Note_on_c, 0, 76, 68
1, 12614, Note_on_c, 0, 69, 63
1, 12614, Note_on_c, 0, 64, 67
1, 12670, Note_on_c, 0, 69, 0
1, 12675, Note_on_c, 0, 81, 0
1, 12679, Note_on_c, 0, 64, 0
1, 12681, Note_on_c, 0, 73, 0
1, 12685, Note_on_c, 0, 61, 0
1, 12687, Note_on_c, 0, 76, 0
1, 12809, Note_on_c, 0, 66, 67
1, 12809, Note_on_c, 0, 78, 81
1, 12811, Note_on_c, 0, 57, 65
1, 12812, Note_on_c, 0, 61, 63
1, 12813, Note_on_c, 0, 69, 70
1, 12814, Note_on_c, 0, 73, 76
1, 12858, Note_on_c, 0, 57, 0
1, 12871, Note_on_c, 0, 61, 0
1, 12872, Note_on_c, 0, 69, 0
1, 12877, Note_on_c, 0, 66, 0
1, 12880, Note_on_c, 0, 73, 0
1, 12887, Note_on_c, 0, 78, 0
1, 13000, Note_on_c, 0, 80, 79
1, 13002, Note_on_c, 0, 59, 64
1, 13003, Note_on_c, 0, 68, 69
1, 13004, Note_on_c, 0, 75, 78
1, 13004, Note_on_c, 0, 63, 74
1, 13006, Note_on_c, 0, 71, 71
1, 13050, Note_on_c, 0, 71, 0
1, 13050, Note_on_c, 0, 80, 0
1, 13050, Note_on_c, 0, 59, 0
1, 13052, Note_on_c, 0, 68, 0
1, 13057, Note_on_c, 0, 63, 0
1, 13058, Note_on_c, 0, 75, 0
1, 13174, Note_on_c, 0, 76, 73
1, 13175, Note_on_c, 0, 68, 76
1, 13175, Note_on_c, 0, 71, 72
1, 13177, Note_on_c, 0, 56, 68
1, 13177, Note_on_c, 0, 64, 65
1, 13179, Note_on_c, 0, 59, 65
1, 13213, Note_on_c, 0, 59, 0
1, 13215, Note_on_c, 0, 56, 0
1, 13223, Note_on_c, 0, 64, 0
1, 13231, Note_on_c, 0, 68, 0
1, 13234, Note_on_c, 0, 71, 0
1, 13236, Note_on_c, 0, 76, 0
1, 13349, Note_on_c, 0, 78, 78
1, 13352, Note_on_c, 0, 66, 69
1, 13353, Note_on_c, 0, 57, 70
1, 13353, Note_on_c, 0, 61, 68
1, 13356, Note_on_c, 0, 69, 69
1, 13356, Note_on_c, 0, 73, 70
1, 13386, Note_on_c, 0, 69, 0
1, 13387, Note_on_c, 0, 66, 0
1, 13388, Note_on_c, 0, 61, 0
1, 13388, Note_on_c, 0, 78, 0
1, 13388, Note_on_c, 0, 57, 0
1, 13390, Note_on_c, 0, 73, 0
1, 13538, Note_on_c, 0, 75, 76
1, 13539, Note_on_c, 0, 66, 63
1, 13540, Note_on_c, 0, 69, 59
1, 13541, Note_on_c, 0, 63, 69
1, 13543, Note_on_c, 0, 54, 66
1, 13544, Note_on_c, 0, 57, 57
1, 13549, Control_c, 0, 64, 88
1, 13552, Control_c, 0, 64, 56
1, 13561, Control_c, 0, 64, 72
1, 13564, Control_c, 0, 64, 104
1, 13567, Control_c, 0, 64, 127
1, 13591, Note_on_c, 0, 57, 0
1, 13601, Note_on_c, 0, 54, 0
1, 13603, Note_on_c, 0, 66, 0
1, 13605, Note_on_c, 0, 69, 0
1, 13611, Note_on_c, 0, 63, 0
1, 13613, Note_on_c, 0, 75, 0
1, 13759, Note_on_c, 0, 68, 57
1, 13761, Note_on_c, 0, 76, 66
1, 13761, Note_on_c, 0, 71, 57
1, 13765, Note_on_c, 0, 56, 58
1, 13765, Note_on_c, 0, 64, 55
1, 13767, Note_on_c, 0, 59, 57
1, 13778, Control_c, 0, 64, 72
1, 13781, Control_c, 0, 64, 0
1, 13805, Control_c, 0, 64, 24
1, 13808, Control_c, 0, 64, 72
1, 13811, Control_c, 0, 64, 127
1, 13883, Note_on_c, 0, 56, 0
1, 13889, Note_on_c, 0, 76, 0
1, 13890, Note_on_c, 0, 59, 0
1, 13893, Note_on_c, 0, 64, 0
1, 13895, Note_on_c, 0, 68, 0
1, 13898, Note_on_c, 0, 71, 0
1, 14004, Note_on_c, 0, 68, 66
1, 14004, Note_on_c, 0, 76, 72
1, 14006, Note_on_c, 0, 71, 64
1, 14008, Note_on_c, 0, 64, 57
1, 14008, Note_on_c, 0, 56, 54
1, 14010, Note_on_c, 0, 59, 57
1, 14062, Note_on_c, 0, 59, 0
1, 14066, Note_on_c, 0, 56, 0
1, 14074, Note_on_c, 0, 64, 0
1, 14087, Note_on_c, 0, 76, 0
1, 14096, Note_on_c, 0, 71, 0
1, 14101, Note_on_c, 0, 68, 0
1, 14196, Note_on_c, 0, 78, 77
1, 14199, Note_on_c, 0, 69, 67
1, 14200, Note_on_c, 0, 66, 63
1, 14202, Note_on_c, 0, 73, 71
1, 14202, Note_on_c, 0, 57, 66
1, 14204, Note_on_c, 0, 61, 61
1, 14206, Control_c, 0, 64, 0
1, 14221, Control_c, 0, 64, 40
1, 14224, Control_c, 0, 64, 72
1, 14227, Control_c, 0, 64, 127
1, 14252, Note_on_c, 0, 57, 0
1, 14253, Note_on_c, 0, 66, 0
1, 14253, Note_on_c, 0, 78, 0
1, 14255, Note_on_c, 0, 61, 0
1, 14255, Note_on_c, 0, 69, 0
1, 14263, Note_on_c, 0, 73, 0
1, 14377, Note_on_c, 0, 75, 79
1, 14380, Note_on_c, 0, 69, 66
1, 14381, Note_on_c, 0, 66, 66
1, 14383, Control_c, 0, 64, 88
1, 14385, Note_on_c, 0, 54, 69
1, 14385, Note_on_c, 0, 63, 69
1, 14387, Note_on_c, 0, 57, 58
1, 14389, Control_c, 0, 64, 0
1, 14410, Control_c, 0, 64, 24
1, 14413, Control_c, 0, 64, 88
1, 14416, Control_c, 0, 64, 127
1, 14425, Note_on_c, 0, 57, 0
1, 14434, Note_on_c, 0, 54, 0
1, 14450, Note_on_c, 0, 66, 0
1, 14452, Note_on_c, 0, 63, 0
1, 14457, Note_on_c, 0, 75, 0
1, 14465, Note_on_c, 0, 69, 0
1, 14566, Note_on_c, 0, 76, 60
1, 14567, Note_on_c, 0, 68, 63
1, 14569, Note_on_c, 0, 56, 59
1, 14570, Note_on_c, 0, 71, 64
1, 14571, Note_on_c, 0, 59, 53
1, 14571, Note_on_c, 0, 64, 56
1, 14574, Control_c, 0, 64, 0
1, 14600, Control_c, 0, 64, 40
1, 14603, Control_c, 0, 64, 104
1, 14606, Control_c, 0, 64, 127
1, 14628, Note_on_c, 0, 76, 0
1, 14629, Note_on_c, 0, 59, 0
1, 14630, Note_on_c, 0, 64, 0
1, 14633, Note_on_c, 0, 56, 0
1, 14644, Note_on_c, 0, 68, 0
1, 14645, Note_on_c, 0, 71, 0
1, 14764, Note_on_c, 0, 68, 60
1, 14766, Note_on_c, 0, 61, 56
1, 14767, Note_on_c, 0, 73, 62
1, 14769, Note_on_c, 0, 56, 52
1, 14769, Note_on_c, 0, 64, 49
1, 14771, Note_on_c, 0, 52, 50
1, 14773, Control_c, 0, 64, 24
1, 14776, Control_c, 0, 64, 0
1, 14798, Control_c, 0, 64, 24
1, 14801, Control_c, 0, 64, 72
1, 14804, Control_c, 0, 64, 127
1, 14826, Note_on_c, 0, 52, 0
1, 14833, Note_on_c, 0, 56, 0
1, 14847, Note_on_c, 0, 64, 0
1, 14848, Note_on_c, 0, 61, 0
1, 14856, Note_on_c, 0, 68, 0
1, 14866, Note_on_c, 0, 73, 0
1, 14971, Note_on_c, 0, 75, 68
1, 14975, Note_on_c, 0, 69, 55
1, 14976, Note_on_c, 0, 66, 53
1, 14977, Note_on_c, 0, 63, 61
1, 14978, Note_on_c, 0, 54, 53
1, 14980, Note_on_c, 0, 57, 53
1, 14982, Control_c, 0, 64, 56
1, 14985, Control_c, 0, 64, 0
1, 15009, Control_c, 0, 64, 40
1, 15012, Control_c, 0, 64, 88
1, 15015, Control_c, 0, 64, 127
1, 15033, Note_on_c, 0, 57, 0
1, 15038, Note_on_c, 0, 75, 0
1, 15038, Note_on_c, 0, 63, 0
1, 15039, Note_on_c, 0, 69, 0
1, 15044, Note_on_c, 0, 54, 0
1, 15047, Note_on_c, 0, 66, 0
1, 15194, Note_on_c, 0, 72, 62
1, 15194, Note_on_c, 0, 63, 54
1, 15196, Note_on_c, 0, 66, 56
1, 15199, Note_on_c, 0, 54, 53
1, 15199, Note_on_c, 0, 60, 47
1, 15201, Note_on_c, 0, 51, 53
1, 15203, Control_c, 0, 64, 88
1, 15206, Control_c, 0, 64, 0
1, 15232, Control_c, 0, 64, 24
1, 15235, Control_c, 0, 64, 72
1, 15238, Control_c, 0, 64, 127
1, 15262, Note_on_c, 0, 51, 0
1, 15264, Note_on_c, 0, 54, 0
1, 15271, Note_on_c, 0, 60, 0
1, 15281, Note_on_c, 0, 72, 0
1, 15282, Note_on_c, 0, 66, 0
1, 15284, Note_on_c, 0, 63, 0
1, 15437, Note_on_c, 0, 73, 60
1, 15440, Note_on_c, 0, 68, 53
1, 15442, Note_on_c, 0, 61, 44
1, 15442, Note_on_c, 0, 64, 48
1, 15444, Note_on_c, 0, 56, 51
1, 15445, Note_on_c, 0, 52, 50
1, 15458, Control_c, 0, 64, 72
1, 15461, Control_c, 0, 64, 0
1, 15500, Control_c, 0, 64, 24
1, 15503, Control_c, 0, 64, 72
1, 15506, Control_c, 0, 64, 104
1, 15509, Control_c, 0, 64, 127
1, 15543, Note_on_c, 0, 52, 0
1, 15556, Note_on_c, 0, 61, 0
1, 15557, Note_on_c, 0, 56, 0
1, 15559, Note_on_c, 0, 64, 0
1, 15567, Note_on_c, 0, 73, 0
1, 15573, Note_on_c, 0, 68, 0
1, 15710, Note_on_c, 0, 73, 68
1, 15713, Note_on_c, 0, 61, 54
1, 15714, Note_on_c, 0, 68, 59
1, 15716, Note_on_c, 0, 64, 52
1, 15716, Note_on_c, 0, 56, 53
1, 15718, Note_on_c, 0, 52, 45
1, 15724, Control_c, 0, 64, 104
1, 15727, Control_c, 0, 64, 40
1, 15730, Control_c, 0, 64, 0
1, 15740, Control_c, 0, 64, 24
1, 15743, Control_c, 0, 64, 56
1, 15746, Control_c, 0, 64, 88
1, 15749, Control_c, 0, 64, 127
1, 15758, Note_on_c, 0, 52, 0
1, 15764, Note_on_c, 0, 56, 0
1, 15775, Note_on_c, 0, 64, 0
1, 15777, Note_on_c, 0, 61, 0
1, 15779, Note_on_c, 0, 68, 0
1, 15790, Note_on_c, 0, 73, 0
1, 15917, Note_on_c, 0, 76, 70
1, 15919, Note_on_c, 0, 68, 59
1, 15921, Note_on_c, 0, 71, 64
1, 15922, Note_on_c, 0, 56, 59
1, 15924, Note_on_c, 0, 64, 52
1, 15926, Note_on_c, 0, 59, 47
1, 15928, Control_c, 0, 64, 88
1, 15931, Control_c, 0, 64, 0
1, 15955, Control_c, 0, 64, 24
1, 15958, Control_c, 0, 64, 72
1, 15961, Control_c, 0, 64, 127
1, 15995, Note_on_c, 0, 64, 0
1, 15996, Note_on_c, 0, 59, 0
1, 15998, Note_on_c, 0, 56, 0
1, 16006, Note_on_c, 0, 76, 0
1, 16015, Note_on_c, 0, 71, 0
1, 16028, Note_on_c, 0, 68, 0
1, 16139, Note_on_c, 0, 75, 70
1, 16142, Note_on_c, 0, 58, 52
1, 16143, Note_on_c, 0, 70, 59
1, 16143, Note_on_c, 0, 63, 53
1, 16145, Note_on_c, 0, 55, 54
1, 16146, Note_on_c, 0, 67, 46
1, 16148, Control_c, 0, 64, 72
1, 16151, Control_c, 0, 64, 0
1, 16177, Control_c, 0, 64, 24
1, 16180, Control_c, 0, 64, 72
1, 16183, Control_c, 0, 64, 104
1, 16186, Control_c, 0, 64, 127
1, 16190, Note_on_c, 0, 63, 0
1, 16194, Note_on_c, 0, 75, 0
1, 16195, Note_on_c, 0, 70, 0
1, 16198, Note_on_c, 0, 58, 0
1, 16199, Note_on_c, 0, 55, 0
1, 16199, Note_on_c, 0, 67, 0
1, 16392, Note_on_c, 0, 45, 72
1, 16393, Note_on_c, 0, 57, 83
1, 16394, Note_on_c, 0, 33, 67
1, 16397, Control_c, 0, 64, 56
1, 16400, Control_c, 0, 64, 0
1, 16425, Control_c, 0, 64, 24
1, 16428, Control_c, 0, 64, 88
1, 16431, Control_c, 0, 64, 127
1, 16438, Note_on_c, 0, 33, 0
1, 16455, Note_on_c, 0, 45, 0
1, 16471, Note_on_c, 0, 57, 0
1, 16626, Note_on_c, 0, 74, 66
1, 16628, Note_on_c, 0, 69, 65
1, 16629, Note_on_c, 0, 66, 57
1, 16629, Note_on_c, 0, 54, 61
1, 16631, Note_on_c, 0, 62, 55
1, 16631, Note_on_c, 0, 57, 57
1, 16659, Note_on_c, 0, 62, 0
1, 16664, Note_on_c, 0, 69, 0
1, 16668, Note_on_c, 0, 57, 0
1, 16669, Note_on_c, 0, 66, 0
1, 16670, Note_on_c, 0, 74, 0
1, 16682, Note_on_c, 0, 54, 0
1, 16875, Note_on_c, 0, 56, 77
1, 16877, Note_on_c, 0, 32, 58
1, 16877, Note_on_c, 0, 44, 58
1, 16880, Control_c, 0, 64, 104
1, 16883, Control_c, 0, 64, 24
1, 16886, Control_c, 0, 64, 0
1, 16912, Control_c, 0, 64, 24
1, 16915, Control_c, 0, 64, 56
1, 16918, Control_c, 0, 64, 104
1, 16921, Control_c, 0, 64, 127
1, 16928, Note_on_c, 0, 32, 0
1, 16942, Note_on_c, 0, 44, 0
1, 16955, Note_on_c, 0, 56, 0
1, 17118, Note_on_c, 0, 51, 53
1, 17119, Note_on_c, 0, 66, 53
1, 17119, Note_on_c, 0, 63, 57
1, 17121, Note_on_c, 0, 72, 57
1, 17122, Note_on_c, 0, 54, 50
1, 17123, Note_on_c, 0, 60, 47
1, 17150, Note_on_c, 0, 60, 0
1, 17158, Note_on_c, 0, 54, 0
1, 17160, Note_on_c, 0, 72, 0
1, 17162, Note_on_c, 0, 66, 0
1, 17166, Note_on_c, 0, 51, 0
1, 17170, Note_on_c, 0, 63, 0
1, 17419, Note_on_c, 0, 49, 61
1, 17420, Note_on_c, 0, 37, 48
1, 17420, Note_on_c, 0, 25, 52
1, 17432, Control_c, 0, 64, 88
1, 17436, Control_c, 0, 64, 0
1, 17467, Control_c, 0, 64, 40
1, 17470, Control_c, 0, 64, 88
1, 17473, Control_c, 0, 64, 127
1, 17490, Note_on_c, 0, 25, 0
1, 17509, Note_on_c, 0, 37, 0
1, 17511, Note_on_c, 0, 49, 0
1, 17734, Note_on_c, 0, 73, 70
1, 17736, Note_on_c, 0, 61, 54
1, 17737, Note_on_c, 0, 68, 60
1, 17738, Note_on_c, 0, 64, 53
1, 17739, Note_on_c, 0, 56, 58
1, 17740, Note_on_c, 0, 52, 48
1, 17797, Note_on_c, 0, 52, 0
1, 17806, Note_on_c, 0, 64, 0
1, 17807, Note_on_c, 0, 56, 0
1, 17813, Note_on_c, 0, 61, 0
1, 17818, Note_on_c, 0, 68, 0
1, 17829, Note_on_c, 0, 73, 0
1, 17976, Note_on_c, 0, 80, 80
1, 17979, Note_on_c, 0, 71, 68
1, 17981, Note_on_c, 0, 73, 71
1, 17982, Note_on_c, 0, 68, 66
1, 17983, Note_on_c, 0, 59, 60
1, 17984, Note_on_c, 0, 61, 60
1, 18060, Note_on_c, 0, 59, 0
1, 18063, Note_on_c, 0, 68, 0
1, 18068, Note_on_c, 0, 61, 0
1, 18094, Note_on_c, 0, 80, 0
1, 18098, Note_on_c, 0, 71, 0
1, 18100, Note_on_c, 0, 73, 0
1, 18206, Note_on_c, 0, 78, 79
1, 18210, Note_on_c, 0, 73, 74
1, 18210, Note_on_c, 0, 57, 71
1, 18212, Note_on_c, 0, 66, 70
1, 18212, Note_on_c, 0, 69, 59
1, 18214, Note_on_c, 0, 61, 68
1, 18244, Note_on_c, 0, 66, 0
1, 18254, Note_on_c, 0, 78, 0
1, 18255, Note_on_c, 0, 57, 0
1, 18255, Note_on_c, 0, 61, 0
1, 18257, Note_on_c, 0, 73, 0
1, 18262, Note_on_c, 0, 69, 0
1, 18472, Note_on_c, 0, 57, 80
1, 18476, Note_on_c, 0, 33, 66
1, 18476, Note_on_c, 0, 45, 78
1, 18478, Control_c, 0, 64, 104
1, 18482, Control_c, 0, 64, 0
1, 18513, Control_c, 0, 64, 24
1, 18516, Control_c, 0, 64, 72
1, 18519, Control_c, 0, 64, 127
1, 18525, Note_on_c, 0, 33, 0
1, 18539, Note_on_c, 0, 45, 0
1, 18544, Note_on_c, 0, 57, 0
1, 18726, Note_on_c, 0, 66, 65
1, 18726, Note_on_c, 0, 76, 71
1, 18728, Note_on_c, 0, 69, 61
1, 18729, Note_on_c, 0, 54, 62
1, 18730, Note_on_c, 0, 64, 63
1, 18732, Note_on_c, 0, 60, 59
1, 18761, Note_on_c, 0, 64, 0
1, 18768, Note_on_c, 0, 60, 0
1, 18772, Note_on_c, 0, 76, 0
1, 18781, Note_on_c, 0, 69, 0
1, 18782, Note_on_c, 0, 54, 0
1, 18789, Note_on_c, 0, 66, 0
1, 19018, Note_on_c, 0, 56, 74
1, 19020, Note_on_c, 0, 44, 54
1, 19020, Note_on_c, 0, 32, 57
1, 19027, Control_c, 0, 64, 88
1, 19030, Control_c, 0, 64, 24
1, 19033, Control_c, 0, 64, 0
1, 19062, Control_c, 0, 64, 24
1, 19065, Control_c, 0, 64, 72
1, 19068, Control_c, 0, 64, 127
1, 19081, Note_on_c, 0, 32, 0
1, 19094, Note_on_c, 0, 44, 0
1, 19102, Note_on_c, 0, 56, 0
1, 19304, Note_on_c, 0, 63, 56
1, 19305, Note_on_c, 0, 72, 65
1, 19306, Note_on_c, 0, 66, 55
1, 19307, Note_on_c, 0, 51, 50
1, 19308, Note_on_c, 0, 60, 46
1, 19310, Note_on_c, 0, 54, 52
1, 19340, Note_on_c, 0, 60, 0
1, 19346, Note_on_c, 0, 54, 0
1, 19351, Note_on_c, 0, 72, 0
1, 19353, Note_on_c, 0, 66, 0
1, 19357, Note_on_c, 0, 51, 0
1, 19362, Note_on_c, 0, 63, 0
1, 19678, Note_on_c, 0, 25, 52
1, 19679, Note_on_c, 0, 37, 44
1, 19680, Note_on_c, 0, 49, 63
1, 19700, Control_c, 0, 64, 72
1, 19703, Control_c, 0, 64, 0
1, 19733, Control_c, 0, 64, 24
1, 19736, Control_c, 0, 64, 56
1, 19739, Control_c, 0, 64, 104
1, 19742, Control_c, 0, 64, 127
1, 19769, Note_on_c, 0, 25, 0
1, 19791, Note_on_c, 0, 49, 0
1, 19791, Note_on_c, 0, 37, 0
1, 20046, Note_on_c, 0, 73, 68
1, 20048, Note_on_c, 0, 61, 52
1, 20049, Note_on_c, 0, 68, 57
1, 20049, Note_on_c, 0, 64, 55
1, 20051, Note_on_c, 0, 52, 51
1, 20053, Note_on_c, 0, 56, 59
1, 20144, Note_on_c, 0, 52, 0
1, 20148, Note_on_c, 0, 56, 0
1, 20164, Note_on_c, 0, 61, 0
1, 20168, Note_on_c, 0, 64, 0
1, 20175, Note_on_c, 0, 68, 0
1, 20183, Note_on_c, 0, 73, 0
1, 20304, Note_on_c, 0, 66, 60
1, 20304, Note_on_c, 0, 74, 70
1, 20306, Note_on_c, 0, 54, 60
1, 20306, Note_on_c, 0, 69, 61
1, 20308, Note_on_c, 0, 62, 58
1, 20308, Note_on_c, 0, 57, 62
1, 20370, Note_on_c, 0, 62, 0
1, 20373, Note_on_c, 0, 74, 0
1, 20376, Note_on_c, 0, 57, 0
1, 20377, Note_on_c, 0, 69, 0
1, 20384, Note_on_c, 0, 54, 0
1, 20387, Note_on_c, 0, 66, 0
1, 20513, Note_on_c, 0, 71, 73
1, 20517, Note_on_c, 0, 66, 67
1, 20518, Note_on_c, 0, 54, 65
1, 20518, Note_on_c, 0, 59, 66
1, 20520, Note_on_c, 0, 62, 56
1, 20521, Note_on_c, 0, 50, 62
1, 20531, Control_c, 0, 64, 88
1, 20534, Control_c, 0, 64, 40
1, 20537, Control_c, 0, 64, 0
1, 20547, Control_c, 0, 64, 24
1, 20550, Control_c, 0, 64, 56
1, 20553, Control_c, 0, 64, 72
1, 20556, Control_c, 0, 64, 127
1, 20583, Note_on_c, 0, 50, 0
1, 20588, Note_on_c, 0, 54, 0
1, 20596, Note_on_c, 0, 59, 0
1, 20600, Note_on_c, 0, 62, 0
1, 20604, Note_on_c, 0, 66, 0
1, 20606, Note_on_c, 0, 71, 0
1, 20700, Note_on_c, 0, 73, 80
1, 20703, Note_on_c, 0, 68, 74
1, 20704, Note_on_c, 0, 61, 70
1, 20705, Note_on_c, 0, 52, 65
1, 20707, Note_on_c, 0, 64, 66
1, 20707, Note_on_c, 0, 56, 74
1, 20709, Control_c, 0, 64, 56
1, 20712, Control_c, 0, 64, 0
1, 20727, Control_c, 0, 64, 24
1, 20730, Control_c, 0, 64, 56
1, 20733, Control_c, 0, 64, 104
1, 20737, Control_c, 0, 64, 127
1, 20762, Note_on_c, 0, 56, 0
1, 20766, Note_on_c, 0, 61, 0
1, 20766, Note_on_c, 0, 52, 0
1, 20767, Note_on_c, 0, 73, 0
1, 20769, Note_on_c, 0, 64, 0
1, 20769, Note_on_c, 0, 68, 0
1, 20883, Note_on_c, 0, 69, 74
1, 20885, Note_on_c, 0, 61, 69
1, 20886, Note_on_c, 0, 49, 70
1, 20886, Note_on_c, 0, 57, 67
1, 20888, Note_on_c, 0, 64, 71
1, 20888, Note_on_c, 0, 52, 67
1, 20889, Control_c, 0, 64, 24
1, 20893, Control_c, 0, 64, 0
1, 20914, Control_c, 0, 64, 40
1, 20917, Control_c, 0, 64, 104
1, 20920, Control_c, 0, 64, 127
1, 20945, Note_on_c, 0, 52, 0
1, 20954, Note_on_c, 0, 49, 0
1, 20958, Note_on_c, 0, 57, 0
1, 20959, Note_on_c, 0, 69, 0
1, 20961, Note_on_c, 0, 64, 0
1, 20969, Note_on_c, 0, 61, 0
1, 21074, Note_on_c, 0, 71, 74
1, 21077, Note_on_c, 0, 62, 67
1, 21077, Note_on_c, 0, 50, 67
1, 21079, Note_on_c, 0, 66, 70
1, 21079, Note_on_c, 0, 59, 70
1, 21081, Note_on_c, 0, 54, 71
1, 21083, Control_c, 0, 64, 0
1, 21105, Control_c, 0, 64, 24
1, 21108, Control_c, 0, 64, 72
1, 21111, Control_c, 0, 64, 127
1, 21143, Note_on_c, 0, 59, 0
1, 21145, Note_on_c, 0, 50, 0
1, 21145, Note_on_c, 0, 54, 0
1, 21146, Note_on_c, 0, 71, 0
1, 21153, Note_on_c, 0, 62, 0
1, 21155, Note_on_c, 0, 66, 0
1, 21288, Note_on_c, 0, 68, 80
1, 21293, Note_on_c, 0, 56, 74
1, 21293, Note_on_c, 0, 62, 70
1, 21295, Note_on_c, 0, 59, 64
1, 21295, Note_on_c, 0, 47, 66
1, 21297, Note_on_c, 0, 50, 62
1, 21300, Control_c, 0, 64, 24
1, 21302, Control_c, 0, 64, 0
1, 21329, Control_c, 0, 64, 40
1, 21332, Control_c, 0, 64, 88
1, 21335, Control_c, 0, 64, 127
1, 21401, Note_on_c, 0, 59, 0
1, 21405, Note_on_c, 0, 62, 0
1, 21405, Note_on_c, 0, 50, 0
1, 21409, Note_on_c, 0, 47, 0
1, 21417, Note_on_c, 0, 68, 0
1, 21423, Note_on_c, 0, 56, 0
1, 21540, Note_on_c, 0, 69, 72
1, 21541, Note_on_c, 0, 61, 68
1, 21543, Note_on_c, 0, 66, 67
1, 21543, Note_on_c, 0, 49, 57
1, 21545, Note_on_c, 0, 57, 65
1, 21546, Note_on_c, 0, 54, 62
1, 21553, Control_c, 0, 64, 104
1, 21556, Control_c, 0, 64, 0
1, 21605, Control_c, 0, 64, 40
1, 21608, Control_c, 0, 64, 88
1, 21611, Control_c, 0, 64, 127
1, 21677, Note_on_c, 0, 57, 0
1, 21680, Note_on_c, 0, 49, 0
1, 21687, Note_on_c, 0, 69, 0
1, 21690, Note_on_c, 0, 54, 0
1, 21691, Note_on_c, 0, 61, 0
1, 21694, Note_on_c, 0, 66, 0
1, 21833, Note_on_c, 0, 69, 74
1, 21834, Note_on_c, 0, 61, 67
1, 21836, Note_on_c, 0, 66, 70
1, 21837, Note_on_c, 0, 57, 65
1, 21839, Note_on_c, 0, 49, 50
1, 21841, Note_on_c, 0, 54, 58
1, 21863, Control_c, 0, 67, 104
1, 21898, Note_on_c, 0, 49, 0
1, 21905, Note_on_c, 0, 57, 0
1, 21905, Note_on_c, 0, 54, 0
1, 21907, Note_on_c, 0, 61, 0
1, 21914, Note_on_c, 0, 66, 0
1, 21914, Control_c, 0, 67, 127
1, 21917, Note_on_c, 0, 69, 0
1, 22079, Note_on_c, 0, 73, 79
1, 22082, Note_on_c, 0, 61, 58
1, 22083, Note_on_c, 0, 66, 66
1, 22083, Note_on_c, 0, 64, 61
1, 22085, Note_on_c, 0, 52, 57
1, 22086, Note_on_c, 0, 54, 61
1, 22095, Control_c, 0, 64, 88
1, 22098, Control_c, 0, 64, 0
1, 22123, Control_c, 0, 64, 24
1, 22126, Control_c, 0, 64, 72
1, 22129, Control_c, 0, 64, 127
1, 22160, Note_on_c, 0, 52, 0
1, 22165, Note_on_c, 0, 54, 0
1, 22171, Note_on_c, 0, 61, 0
1, 22176, Note_on_c, 0, 66, 0
1, 22177, Note_on_c, 0, 64, 0
1, 22182, Note_on_c, 0, 73, 0
1, 22299, Control_c, 0, 67, 24
1, 22304, Control_c, 0, 67, 40
1, 22313, Control_c, 0, 67, 56
1, 22321, Control_c, 0, 67, 72
1, 22326, Control_c, 0, 67, 88
1, 22331, Control_c, 0, 67, 104
1, 22337, Control_c, 0, 67, 127
1, 22348, Note_on_c, 0, 71, 62
1, 22349, Note_on_c, 0, 66, 49
1, 22350, Note_on_c, 0, 54, 51
1, 22352, Note_on_c, 0, 62, 47
1, 22352, Note_on_c, 0, 50, 49
1, 22354, Note_on_c, 0, 59, 48
1, 22358, Control_c, 0, 64, 72
1, 22361, Control_c, 0, 64, 0
1, 22395, Control_c, 0, 64, 40
1, 22398, Control_c, 0, 64, 88
1, 22401, Control_c, 0, 64, 127
1, 22418, Note_on_c, 0, 59, 0
1, 22436, Note_on_c, 0, 71, 0
1, 22438, Note_on_c, 0, 54, 0
1, 22440, Note_on_c, 0, 62, 0
1, 22441, Note_on_c, 0, 50, 0
1, 22443, Note_on_c, 0, 66, 0
1, 22720, Note_on_c, 0, 31, 51
1, 22721, Note_on_c, 0, 43, 52
1, 22722, Note_on_c, 0, 55, 72
1, 22791, Control_c, 0, 64, 40
1, 22793, Control_c, 0, 64, 72
1, 22795, Control_c, 0, 64, 104
1, 22797, Control_c, 0, 64, 127
1, 22801, Note_on_c, 0, 31, 0
1, 22814, Note_on_c, 0, 43, 0
1, 22819, Note_on_c, 0, 55, 0
1, 22834, Control_c, 0, 67, 104
1, 22905, Control_c, 0, 67, 127
1, 22991, Note_on_c, 0, 69, 67
1, 22992, Note_on_c, 0, 61, 57
1, 22994, Note_on_c, 0, 57, 59
1, 22995, Note_on_c, 0, 52, 56
1, 22995, Note_on_c, 0, 64, 57
1, 23021, Note_on_c, 0, 61, 0
1, 23023, Note_on_c, 0, 52, 0
1, 23034, Note_on_c, 0, 57, 0
1, 23037, Note_on_c, 0, 64, 0
1, 23040, Note_on_c, 0, 69, 0
1, 23279, Note_on_c, 0, 56, 66
1, 23283, Note_on_c, 0, 44, 58
1, 23284, Note_on_c, 0, 32, 58
1, 23294, Control_c, 0, 64, 104
1, 23297, Control_c, 0, 64, 40
1, 23299, Control_c, 0, 64, 0
1, 23348, Control_c, 0, 64, 24
1, 23351, Control_c, 0, 64, 56
1, 23353, Control_c, 0, 64, 72
1, 23355, Control_c, 0, 64, 104
1, 23358, Control_c, 0, 64, 127
1, 23376, Note_on_c, 0, 32, 0
1, 23389, Note_on_c, 0, 44, 0
1, 23401, Note_on_c, 0, 56, 0
1, 23582, Note_on_c, 0, 68, 61
1, 23582, Note_on_c, 0, 56, 60
1, 23586, Note_on_c, 0, 63, 53
1, 23586, Note_on_c, 0, 51, 47
1, 23588, Note_on_c, 0, 54, 51
1, 23588, Note_on_c, 0, 60, 44
1, 23634, Note_on_c, 0, 60, 0
1, 23651, Note_on_c, 0, 63, 0
1, 23653, Note_on_c, 0, 68, 0
1, 23655, Note_on_c, 0, 51, 0
1, 23656, Note_on_c, 0, 54, 0
1, 23659, Note_on_c, 0, 56, 0
1, 24008, Note_on_c, 0, 49, 57
1, 24009, Note_on_c, 0, 25, 53
1, 24010, Note_on_c, 0, 37, 47
1, 24028, Control_c, 0, 64, 104
1, 24031, Control_c, 0, 64, 40
1, 24034, Control_c, 0, 64, 0
1, 24068, Control_c, 0, 64, 24
1, 24071, Control_c, 0, 64, 56
1, 24074, Control_c, 0, 64, 104
1, 24077, Control_c, 0, 64, 127
1, 24099, Note_on_c, 0, 25, 0
1, 24116, Note_on_c, 0, 37, 0
1, 24131, Note_on_c, 0, 49, 0
1, 24444, Note_on_c, 0, 44, 45
1, 24445, Note_on_c, 0, 61, 59
1, 24449, Note_on_c, 0, 52, 50
1, 24508, Note_on_c, 0, 44, 0
1, 24512, Note_on_c, 0, 52, 0
1, 24526, Note_on_c, 0, 61, 0
1, 24675, Note_on_c, 0, 64, 74
1, 24677, Note_on_c, 0, 56, 69
1, 24683, Note_on_c, 0, 47, 51
1, 24741, Note_on_c, 0, 47, 0
1, 24742, Note_on_c, 0, 64, 0
1, 24750, Note_on_c, 0, 56, 0
1, 24902, Note_on_c, 0, 63, 82
1, 24906, Note_on_c, 0, 46, 51
1, 24907, Note_on_c, 0, 55, 70
1, 24916, Control_c, 0, 64, 88
1, 24919, Control_c, 0, 64, 40
1, 24922, Control_c, 0, 64, 0
1, 24930, Control_c, 0, 64, 24
1, 24933, Control_c, 0, 64, 56
1, 24936, Control_c, 0, 64, 72
1, 24939, Control_c, 0, 64, 104
1, 24942, Control_c, 0, 64, 127
1, 24969, Note_on_c, 0, 46, 0
1, 24995, Note_on_c, 0, 55, 0
1, 25006, Note_on_c, 0, 63, 0
1, 25182, Note_on_c, 0, 57, 78
1, 25185, Note_on_c, 0, 45, 50
1, 25187, Note_on_c, 0, 33, 44
1, 25208, Control_c, 0, 64, 104
1, 25211, Control_c, 0, 64, 24
1, 25213, Control_c, 0, 64, 0
1, 25245, Control_c, 0, 64, 24
1, 25248, Control_c, 0, 64, 88
1, 25251, Control_c, 0, 64, 127
1, 25310, Note_on_c, 0, 57, 0
1, 25430, Note_on_c, 0, 62, 60
1, 25434, Note_on_c, 0, 54, 45
1, 25436, Note_on_c, 0, 60, 50
1, 25473, Note_on_c, 0, 45, 0
1, 25474, Note_on_c, 0, 33, 0
1, 25483, Note_on_c, 0, 60, 0
1, 25484, Note_on_c, 0, 62, 0
1, 25490, Note_on_c, 0, 54, 0
1, 25709, Note_on_c, 0, 56, 82
1, 25712, Note_on_c, 0, 44, 45
1, 25714, Note_on_c, 0, 32, 45
1, 25731, Control_c, 0, 64, 104
1, 25734, Control_c, 0, 64, 24
1, 25737, Control_c, 0, 64, 0
1, 25761, Control_c, 0, 64, 24
1, 25764, Control_c, 0, 64, 56
1, 25767, Control_c, 0, 64, 104
1, 25770, Control_c, 0, 64, 127
1, 25831, Note_on_c, 0, 44, 0
1, 25833, Note_on_c, 0, 56, 0
1, 25874, Note_on_c, 0, 32, 0
1, 25987, Note_on_c, 0, 60, 57
1, 25989, Note_on_c, 0, 54, 54
1, 25990, Note_on_c, 0, 51, 45
1, 26034, Note_on_c, 0, 60, 0
1, 26035, Note_on_c, 0, 54, 0
1, 26040, Note_on_c, 0, 51, 0
1, 26343, Note_on_c, 0, 49, 71
1, 26346, Note_on_c, 0, 37, 42
1, 26347, Note_on_c, 0, 25, 44
1, 26367, Control_c, 0, 64, 104
1, 26370, Control_c, 0, 64, 24
1, 26373, Control_c, 0, 64, 0
1, 26397, Control_c, 0, 64, 24
1, 26400, Control_c, 0, 64, 56
1, 26403, Control_c, 0, 64, 88
1, 26406, Control_c, 0, 64, 127
1, 26433, Note_on_c, 0, 25, 0
1, 26449, Note_on_c, 0, 37, 0
1, 26454, Note_on_c, 0, 49, 0
1, 26728, Note_on_c, 0, 44, 70
1, 26731, Note_on_c, 0, 61, 47
1, 26734, Note_on_c, 0, 52, 42
1, 26785, Note_on_c, 0, 52, 0
1, 26800, Note_on_c, 0, 61, 0
1, 27010, Note_on_c, 0, 47, 69
1, 27014, Note_on_c, 0, 56, 56
1, 27014, Note_on_c, 0, 64, 61
1, 27022, Note_on_c, 0, 44, 0
1, 27027, Control_c, 0, 64, 88
1, 27030, Control_c, 0, 64, 40
1, 27033, Control_c, 0, 64, 24
1, 27040, Control_c, 0, 64, 56
1, 27042, Control_c, 0, 64, 72
1, 27046, Control_c, 0, 64, 88
1, 27048, Control_c, 0, 64, 127
1, 27092, Note_on_c, 0, 64, 0
1, 27095, Note_on_c, 0, 56, 0
1, 27255, Note_on_c, 0, 46, 77
1, 27256, Note_on_c, 0, 63, 56
1, 27258, Note_on_c, 0, 55, 43
1, 27265, Note_on_c, 0, 47, 0
1, 27266, Control_c, 0, 64, 88
1, 27269, Control_c, 0, 64, 0
1, 27302, Control_c, 0, 64, 40
1, 27305, Control_c, 0, 64, 72
1, 27308, Control_c, 0, 64, 104
1, 27311, Control_c, 0, 64, 127
1, 27357, Note_on_c, 0, 46, 0
1, 27383, Note_on_c, 0, 55, 0
1, 27397, Note_on_c, 0, 63, 0
1, 27624, Note_on_c, 0, 45, 64
1, 27627, Note_on_c, 0, 33, 50
1, 27632, Note_on_c, 0, 57, 53
1, 27654, Control_c, 0, 64, 88
1, 27658, Control_c, 0, 64, 24
1, 27660, Control_c, 0, 64, 0
1, 27695, Control_c, 0, 64, 24
1, 27698, Control_c, 0, 64, 56
1, 27701, Control_c, 0, 64, 88
1, 27704, Control_c, 0, 64, 127
1, 27774, Note_on_c, 0, 57, 0
1, 27967, Note_on_c, 0, 62, 46
1, 27971, Note_on_c, 0, 54, 44
1, 27972, Note_on_c, 0, 60, 45
1, 28051, Note_on_c, 0, 45, 0
1, 28055, Note_on_c, 0, 33, 0
1, 28085, Note_on_c, 0, 62, 0
1, 28091, Note_on_c, 0, 60, 0
1, 28099, Note_on_c, 0, 54, 0
1, 28338, Control_c, 0, 67, 126
1, 28415, Note_on_c, 0, 44, 47
1, 28416, Note_on_c, 0, 32, 44
1, 28420, Note_on_c, 0, 56, 56
1, 28446, Control_c, 0, 64, 88
1, 28449, Control_c, 0, 64, 40
1, 28452, Control_c, 0, 64, 0
1, 28483, Control_c, 0, 64, 24
1, 28486, Control_c, 0, 64, 56
1, 28489, Control_c, 0, 64, 88
1, 28492, Control_c, 0, 64, 127
1, 28565, Note_on_c, 0, 56, 0
1, 28944, Note_on_c, 0, 60, 39
1, 28947, Note_on_c, 0, 54, 41
1, 28948, Note_on_c, 0, 51, 33
1, 28980, Note_on_c, 0, 60, 0
1, 28981, Note_on_c, 0, 54, 0
1, 28983, Note_on_c, 0, 51, 0
1, 28996, Note_on_c, 0, 32, 0
1, 29000, Note_on_c, 0, 44, 0
1, 29746, Note_on_c, 0, 64, 58
1, 29749, Note_on_c, 0, 37, 33
1, 29752, Note_on_c, 0, 25, 33
1, 29792, Note_on_c, 0, 25, 0
1, 29799, Note_on_c, 0, 37, 0
1, 29831, Note_on_c, 0, 64, 0
1, 29864, Note_on_c, 0, 56, 42
1, 29917, Note_on_c, 0, 61, 42
1, 29929, Note_on_c, 0, 56, 0
1, 29983, Note_on_c, 0, 61, 0
1, 29986, Note_on_c, 0, 63, 70
1, 29989, Note_on_c, 0, 46, 50
1, 29998, Control_c, 0, 64, 0
1, 30018, Control_c, 0, 64, 127
1, 30063, Note_on_c, 0, 55, 34
1, 30079, Note_on_c, 0, 46, 0
1, 30097, Note_on_c, 0, 63, 0
1, 30107, Note_on_c, 0, 55, 0
1, 30111, Note_on_c, 0, 61, 43
1, 30122, Note_on_c, 0, 61, 0
1, 30157, Note_on_c, 0, 62, 65
1, 30159, Note_on_c, 0, 45, 48
1, 30162, Control_c, 0, 64, 0
1, 30184, Control_c, 0, 64, 127
1, 30213, Note_on_c, 0, 54, 46
1, 30251, Note_on_c, 0, 62, 0
1, 30257, Note_on_c, 0, 54, 0
1, 30259, Note_on_c, 0, 60, 45
1, 30293, Note_on_c, 0, 60, 0
1, 30297, Note_on_c, 0, 45, 0
1, 30298, Note_on_c, 0, 61, 70
1, 30299, Note_on_c, 0, 44, 44
1, 30302, Control_c, 0, 64, 0
1, 30328, Control_c, 0, 64, 127
1, 30352, Note_on_c, 0, 52, 45
1, 30353, Note_on_c, 0, 44, 0
1, 30378, Note_on_c, 0, 61, 0
1, 30384, Note_on_c, 0, 52, 0
1, 30393, Note_on_c, 0, 56, 55
1, 30411, Note_on_c, 0, 56, 0
1, 30464, Note_on_c, 0, 64, 74
1, 30469, Note_on_c, 0, 47, 55
1, 30472, Note_on_c, 0, 37, 37
1, 30473, Control_c, 0, 64, 0
1, 30503, Control_c, 0, 64, 127
1, 30549, Note_on_c, 0, 56, 50
1, 30583, Note_on_c, 0, 64, 0
1, 30598, Note_on_c, 0, 47, 0
1, 30603, Note_on_c, 0, 61, 53
1, 30606, Note_on_c, 0, 56, 0
1, 30651, Note_on_c, 0, 61, 0
1, 30652, Note_on_c, 0, 63, 70
1, 30653, Note_on_c, 0, 46, 46
1, 30657, Control_c, 0, 64, 0
1, 30683, Control_c, 0, 64, 127
1, 30704, Note_on_c, 0, 55, 50
1, 30737, Note_on_c, 0, 55, 0
1, 30737, Note_on_c, 0, 63, 0
1, 30746, Note_on_c, 0, 61, 53
1, 30751, Note_on_c, 0, 46, 0
1, 30762, Note_on_c, 0, 61, 0
1, 30793, Note_on_c, 0, 62, 71
1, 30793, Note_on_c, 0, 45, 52
1, 30798, Control_c, 0, 64, 0
1, 30824, Control_c, 0, 64, 127
1, 30842, Note_on_c, 0, 54, 48
1, 30883, Note_on_c, 0, 62, 0
1, 30887, Note_on_c, 0, 54, 0
1, 30887, Note_on_c, 0, 60, 55
1, 30922, Note_on_c, 0, 60, 0
1, 30926, Note_on_c, 0, 45, 0
1, 30936, Note_on_c, 0, 61, 67
1, 30936, Note_on_c, 0, 44, 46
1, 30946, Note_on_c, 0, 37, 0
1, 30946, Control_c, 0, 64, 0
1, 30974, Control_c, 0, 64, 127
1, 30982, Note_on_c, 0, 52, 57
1, 31017, Note_on_c, 0, 52, 0
1, 31029, Note_on_c, 0, 61, 0
1, 31033, Note_on_c, 0, 56, 58
1, 31043, Note_on_c, 0, 56, 0
1, 31104, Note_on_c, 0, 68, 69
1, 31111, Note_on_c, 0, 40, 40
1, 31111, Control_c, 0, 64, 0
1, 31113, Note_on_c, 0, 44, 0
1, 31137, Control_c, 0, 64, 127
1, 31168, Note_on_c, 0, 56, 56
1, 31173, Note_on_c, 0, 68, 0
1, 31209, Note_on_c, 0, 61, 62
1, 31217, Note_on_c, 0, 56, 0
1, 31248, Note_on_c, 0, 66, 81
1, 31249, Note_on_c, 0, 61, 0
1, 31252, Note_on_c, 0, 40, 0
1, 31252, Control_c, 0, 64, 0
1, 31252, Note_on_c, 0, 39, 58
1, 31273, Control_c, 0, 64, 127
1, 31292, Note_on_c, 0, 57, 69
1, 31293, Note_on_c, 0, 66, 0
1, 31332, Note_on_c, 0, 61, 64
1, 31346, Note_on_c, 0, 57, 0
1, 31372, Note_on_c, 0, 61, 0
1, 31373, Control_c, 0, 64, 0
1, 31377, Note_on_c, 0, 69, 89
1, 31381, Note_on_c, 0, 39, 0
1, 31381, Note_on_c, 0, 42, 67
1, 31396, Control_c, 0, 64, 127
1, 31414, Note_on_c, 0, 69, 0
1, 31431, Note_on_c, 0, 54, 71
1, 31459, Note_on_c, 0, 54, 0
1, 31471, Note_on_c, 0, 61, 64
1, 31508, Note_on_c, 0, 68, 89
1, 31511, Note_on_c, 0, 61, 0
1, 31511, Note_on_c, 0, 42, 0
1, 31513, Control_c, 0, 64, 0
1, 31514, Note_on_c, 0, 40, 60
1, 31541, Control_c, 0, 64, 127
1, 31557, Note_on_c, 0, 56, 67
1, 31579, Note_on_c, 0, 68, 0
1, 31596, Note_on_c, 0, 56, 0
1, 31598, Note_on_c, 0, 61, 76
1, 31648, Note_on_c, 0, 61, 0
1, 31651, Note_on_c, 0, 66, 101
1, 31654, Control_c, 0, 64, 0
1, 31656, Note_on_c, 0, 45, 79
1, 31659, Note_on_c, 0, 40, 0
1, 31686, Control_c, 0, 64, 127
1, 31704, Note_on_c, 0, 54, 71
1, 31734, Note_on_c, 0, 66, 0
1, 31743, Note_on_c, 0, 54, 0
1, 31746, Note_on_c, 0, 64, 80
1, 31746, Note_on_c, 0, 61, 69
1, 31783, Note_on_c, 0, 61, 0
1, 31783, Note_on_c, 0, 64, 0
1, 31792, Note_on_c, 0, 66, 89
1, 31796, Note_on_c, 0, 39, 59
1, 31796, Control_c, 0, 64, 0
1, 31798, Note_on_c, 0, 45, 0
1, 31837, Note_on_c, 0, 54, 69
1, 31837, Control_c, 0, 64, 127
1, 31871, Note_on_c, 0, 54, 0
1, 31872, Note_on_c, 0, 66, 0
1, 31874, Note_on_c, 0, 39, 0
1, 31878, Note_on_c, 0, 61, 88
1, 31929, Note_on_c, 0, 61, 0
1, 31934, Note_on_c, 0, 44, 49
1, 31937, Control_c, 0, 64, 0
1, 31937, Note_on_c, 0, 64, 80
1, 31981, Control_c, 0, 64, 127
1, 31992, Note_on_c, 0, 54, 61
1, 32018, Note_on_c, 0, 64, 0
1, 32032, Note_on_c, 0, 54, 0
1, 32038, Note_on_c, 0, 63, 56
1, 32041, Note_on_c, 0, 60, 52
1, 32057, Note_on_c, 0, 60, 0
1, 32073, Note_on_c, 0, 63, 0
1, 32108, Note_on_c, 0, 37, 38
1, 32109, Note_on_c, 0, 64, 66
1, 32113, Note_on_c, 0, 44, 0
1, 32114, Control_c, 0, 64, 0
1, 32143, Control_c, 0, 64, 127
1, 32172, Note_on_c, 0, 52, 52
1, 32192, Note_on_c, 0, 64, 0
1, 32204, Note_on_c, 0, 52, 0
1, 32232, Note_on_c, 0, 61, 59
1, 32316, Note_on_c, 0, 47, 78
1, 32321, Note_on_c, 0, 61, 0
1, 32321, Note_on_c, 0, 64, 70
1, 32328, Control_c, 0, 64, 0
1, 32362, Control_c, 0, 64, 127
1, 32408, Note_on_c, 0, 56, 48
1, 32458, Note_on_c, 0, 61, 50
1, 32482, Note_on_c, 0, 64, 0
1, 32506, Note_on_c, 0, 56, 0
1, 32511, Note_on_c, 0, 46, 74
1, 32511, Note_on_c, 0, 63, 70
1, 32514, Control_c, 0, 64, 0
1, 32519, Note_on_c, 0, 61, 0
1, 32523, Note_on_c, 0, 47, 0
1, 32544, Control_c, 0, 64, 127
1, 32569, Note_on_c, 0, 55, 54
1, 32593, Note_on_c, 0, 63, 0
1, 32611, Note_on_c, 0, 55, 0
1, 32613, Note_on_c, 0, 61, 55
1, 32649, Note_on_c, 0, 61, 0
1, 32657, Note_on_c, 0, 62, 64
1, 32661, Note_on_c, 0, 45, 72
1, 32663, Control_c, 0, 64, 0
1, 32671, Note_on_c, 0, 46, 0
1, 32689, Control_c, 0, 64, 127
1, 32707, Note_on_c, 0, 54, 55
1, 32756, Note_on_c, 0, 60, 62
1, 32764, Note_on_c, 0, 62, 0
1, 32771, Note_on_c, 0, 54, 0
1, 32793, Note_on_c, 0, 60, 0
1, 32794, Note_on_c, 0, 44, 70
1, 32796, Note_on_c, 0, 61, 76
1, 32798, Control_c, 0, 64, 0
1, 32808, Note_on_c, 0, 45, 0
1, 32824, Note_on_c, 0, 37, 0
1, 32826, Control_c, 0, 64, 127
1, 32849, Note_on_c, 0, 52, 55
1, 32873, Note_on_c, 0, 61, 0
1, 32887, Note_on_c, 0, 56, 67
1, 32889, Note_on_c, 0, 52, 0
1, 32923, Note_on_c, 0, 56, 0
1, 32947, Note_on_c, 0, 64, 78
1, 32951, Control_c, 0, 64, 0
1, 32951, Note_on_c, 0, 47, 75
1, 32952, Note_on_c, 0, 37, 50
1, 32957, Note_on_c, 0, 44, 0
1, 32993, Control_c, 0, 64, 127
1, 33011, Note_on_c, 0, 56, 51
1, 33057, Note_on_c, 0, 61, 62
1, 33059, Note_on_c, 0, 56, 0
1, 33078, Note_on_c, 0, 64, 0
1, 33092, Note_on_c, 0, 46, 75
1, 33094, Note_on_c, 0, 61, 0
1, 33097, Note_on_c, 0, 63, 71
1, 33099, Control_c, 0, 64, 0
1, 33104, Note_on_c, 0, 47, 0
1, 33126, Control_c, 0, 64, 127
1, 33147, Note_on_c, 0, 55, 51
1, 33163, Note_on_c, 0, 63, 0
1, 33184, Note_on_c, 0, 61, 53
1, 33187, Note_on_c, 0, 55, 0
1, 33218, Note_on_c, 0, 61, 0
1, 33227, Note_on_c, 0, 62, 71
1, 33229, Control_c, 0, 64, 0
1, 33231, Note_on_c, 0, 45, 75
1, 33237, Note_on_c, 0, 46, 0
1, 33261, Control_c, 0, 64, 127
1, 33274, Note_on_c, 0, 54, 57
1, 33317, Note_on_c, 0, 60, 64
1, 33319, Note_on_c, 0, 62, 0
1, 33321, Note_on_c, 0, 54, 0
1, 33349, Note_on_c, 0, 60, 0
1, 33354, Note_on_c, 0, 61, 74
1, 33354, Note_on_c, 0, 44, 75
1, 33361, Control_c, 0, 64, 0
1, 33366, Note_on_c, 0, 45, 0
1, 33371, Note_on_c, 0, 37, 0
1, 33393, Control_c, 0, 64, 127
1, 33402, Note_on_c, 0, 52, 53
1, 33428, Note_on_c, 0, 61, 0
1, 33438, Note_on_c, 0, 52, 0
1, 33439, Note_on_c, 0, 56, 57
1, 33448, Note_on_c, 0, 56, 0
1, 33508, Control_c, 0, 64, 0
1, 33513, Note_on_c, 0, 68, 72
1, 33514, Note_on_c, 0, 40, 57
1, 33517, Note_on_c, 0, 44, 0
1, 33551, Control_c, 0, 64, 127
1, 33568, Note_on_c, 0, 56, 57
1, 33573, Note_on_c, 0, 68, 0
1, 33607, Note_on_c, 0, 61, 67
1, 33614, Note_on_c, 0, 56, 0
1, 33646, Control_c, 0, 64, 0
1, 33647, Note_on_c, 0, 61, 0
1, 33649, Note_on_c, 0, 66, 81
1, 33651, Note_on_c, 0, 40, 0
1, 33651, Note_on_c, 0, 39, 74
1, 33673, Control_c, 0, 64, 127
1, 33693, Note_on_c, 0, 66, 0
1, 33697, Note_on_c, 0, 57, 72
1, 33732, Note_on_c, 0, 61, 71
1, 33751, Note_on_c, 0, 57, 0
1, 33762, Control_c, 0, 64, 0
1, 33767, Note_on_c, 0, 61, 0
1, 33772, Note_on_c, 0, 69, 88
1, 33776, Note_on_c, 0, 42, 84
1, 33781, Note_on_c, 0, 39, 0
1, 33789, Control_c, 0, 64, 127
1, 33808, Note_on_c, 0, 69, 0
1, 33822, Note_on_c, 0, 54, 66
1, 33856, Note_on_c, 0, 61, 60
1, 33868, Note_on_c, 0, 54, 0
1, 33901, Note_on_c, 0, 61, 0
1, 33901, Note_on_c, 0, 42, 0
1, 33901, Control_c, 0, 64, 0
1, 33902, Note_on_c, 0, 68, 90
1, 33904, Note_on_c, 0, 40, 78
1, 33942, Note_on_c, 0, 56, 81
1, 33994, Note_on_c, 0, 61, 74
1, 34000, Control_c, 0, 67, 0
1, 34002, Note_on_c, 0, 56, 0
1, 34033, Note_on_c, 0, 40, 0
1, 34036, Note_on_c, 0, 61, 0
1, 34037, Note_on_c, 0, 68, 0
1, 34038, Note_on_c, 0, 73, 82
1, 34042, Note_on_c, 0, 52, 61
1, 34043, Note_on_c, 0, 45, 63
1, 34098, Note_on_c, 0, 61, 67
1, 34108, Control_c, 0, 64, 127
1, 34132, Note_on_c, 0, 69, 80
1, 34139, Note_on_c, 0, 73, 0
1, 34142, Note_on_c, 0, 61, 0
1, 34161, Note_on_c, 0, 69, 0
1, 34169, Note_on_c, 0, 52, 0
1, 34169, Note_on_c, 0, 71, 91
1, 34171, Note_on_c, 0, 54, 85
1, 34172, Control_c, 0, 64, 0
1, 34199, Control_c, 0, 64, 127
1, 34214, Note_on_c, 0, 62, 78
1, 34226, Note_on_c, 0, 71, 0
1, 34248, Note_on_c, 0, 69, 76
1, 34262, Note_on_c, 0, 62, 0
1, 34281, Note_on_c, 0, 69, 0
1, 34287, Note_on_c, 0, 74, 101
1, 34288, Control_c, 0, 64, 0
1, 34291, Note_on_c, 0, 54, 0
1, 34291, Note_on_c, 0, 53, 90
1, 34321, Control_c, 0, 64, 127
1, 34328, Note_on_c, 0, 62, 70
1, 34349, Note_on_c, 0, 74, 0
1, 34358, Note_on_c, 0, 62, 0
1, 34363, Note_on_c, 0, 68, 84
1, 34398, Note_on_c, 0, 68, 0
1, 34399, Note_on_c, 0, 73, 101
1, 34401, Note_on_c, 0, 52, 91
1, 34403, Note_on_c, 0, 53, 0
1, 34406, Control_c, 0, 64, 0
1, 34432, Note_on_c, 0, 45, 0
1, 34434, Control_c, 0, 64, 127
1, 34439, Note_on_c, 0, 61, 75
1, 34441, Note_on_c, 0, 52, 0
1, 34476, Note_on_c, 0, 61, 0
1, 34476, Note_on_c, 0, 69, 86
1, 34481, Note_on_c, 0, 73, 0
1, 34488, Note_on_c, 0, 69, 0
1, 34522, Control_c, 0, 64, 0
1, 34526, Note_on_c, 0, 78, 109
1, 34526, Note_on_c, 0, 60, 84
1, 34526, Note_on_c, 0, 63, 94
1, 34568, Control_c, 0, 64, 127
1, 34577, Note_on_c, 0, 69, 64
1, 34604, Note_on_c, 0, 78, 0
1, 34607, Note_on_c, 0, 69, 0
1, 34607, Note_on_c, 0, 75, 70
1, 34634, Note_on_c, 0, 75, 0
1, 34636, Note_on_c, 0, 63, 0
1, 34636, Note_on_c, 0, 60, 0
1, 34638, Control_c, 0, 64, 0
1, 34642, Note_on_c, 0, 61, 71
1, 34643, Note_on_c, 0, 64, 84
1, 34644, Note_on_c, 0, 76, 98
1, 34668, Control_c, 0, 64, 127
1, 34683, Note_on_c, 0, 64, 0
1, 34683, Note_on_c, 0, 61, 0
1, 34684, Note_on_c, 0, 68, 64
1, 34708, Note_on_c, 0, 76, 0
1, 34714, Note_on_c, 0, 73, 73
1, 34724, Note_on_c, 0, 68, 0
1, 34734, Note_on_c, 0, 73, 0
1, 34742, Control_c, 0, 64, 0
1, 34746, Note_on_c, 0, 74, 100
1, 34748, Note_on_c, 0, 56, 83
1, 34751, Note_on_c, 0, 59, 87
1, 34779, Control_c, 0, 64, 127
1, 34786, Note_on_c, 0, 65, 74
1, 34822, Note_on_c, 0, 65, 0
1, 34824, Note_on_c, 0, 71, 76
1, 34841, Note_on_c, 0, 56, 0
1, 34842, Note_on_c, 0, 59, 0
1, 34847, Note_on_c, 0, 74, 0
1, 34851, Note_on_c, 0, 71, 0
1, 34853, Control_c, 0, 64, 0
1, 34856, Note_on_c, 0, 73, 90
1, 34857, Note_on_c, 0, 61, 83
1, 34858, Note_on_c, 0, 57, 85
1, 34883, Control_c, 0, 64, 127
1, 34894, Note_on_c, 0, 66, 70
1, 34906, Note_on_c, 0, 73, 0
1, 34914, Note_on_c, 0, 61, 0
1, 34921, Note_on_c, 0, 57, 0
1, 34927, Note_on_c, 0, 66, 0
1, 34927, Note_on_c, 0, 69, 79
1, 34951, Note_on_c, 0, 69, 0
1, 34952, Control_c, 0, 64, 0
1, 34958, Note_on_c, 0, 74, 97
1, 34961, Note_on_c, 0, 56, 78
1, 34961, Note_on_c, 0, 59, 87
1, 34982, Control_c, 0, 64, 127
1, 34996, Note_on_c, 0, 65, 69
1, 35028, Note_on_c, 0, 65, 0
1, 35033, Note_on_c, 0, 71, 63
1, 35047, Note_on_c, 0, 74, 0
1, 35047, Note_on_c, 0, 56, 0
1, 35051, Control_c, 0, 64, 0
1, 35052, Note_on_c, 0, 59, 0
1, 35056, Note_on_c, 0, 71, 0
1, 35061, Note_on_c, 0, 73, 90
1, 35062, Note_on_c, 0, 57, 90
1, 35063, Note_on_c, 0, 61, 82
1, 35081, Control_c, 0, 64, 127
1, 35089, Note_on_c, 0, 66, 55
1, 35094, Note_on_c, 0, 57, 0
1, 35101, Note_on_c, 0, 61, 0
1, 35122, Note_on_c, 0, 66, 0
1, 35122, Note_on_c, 0, 69, 75
1, 35126, Note_on_c, 0, 73, 0
1, 35137, Note_on_c, 0, 69, 0
1, 35153, Control_c, 0, 64, 0
1, 35156, Note_on_c, 0, 56, 73
1, 35157, Note_on_c, 0, 71, 92
1, 35157, Note_on_c, 0, 53, 73
1, 35181, Control_c, 0, 64, 127
1, 35189, Note_on_c, 0, 62, 70
1, 35206, Note_on_c, 0, 56, 0
1, 35208, Note_on_c, 0, 62, 0
1, 35208, Note_on_c, 0, 53, 0
1, 35221, Note_on_c, 0, 68, 70
1, 35231, Note_on_c, 0, 71, 0
1, 35242, Note_on_c, 0, 68, 0
1, 35242, Control_c, 0, 64, 0
1, 35251, Note_on_c, 0, 69, 80
1, 35252, Note_on_c, 0, 54, 66
1, 35253, Note_on_c, 0, 57, 70
1, 35274, Control_c, 0, 64, 127
1, 35281, Note_on_c, 0, 54, 0
1, 35286, Note_on_c, 0, 61, 59
1, 35289, Note_on_c, 0, 57, 0
1, 35298, Note_on_c, 0, 69, 0
1, 35314, Note_on_c, 0, 66, 64
1, 35317, Note_on_c, 0, 61, 0
1, 35329, Note_on_c, 0, 66, 0
1, 35338, Control_c, 0, 64, 0
1, 35341, Note_on_c, 0, 69, 82
1, 35344, Note_on_c, 0, 54, 65
1, 35346, Note_on_c, 0, 51, 65
1, 35367, Control_c, 0, 64, 127
1, 35374, Note_on_c, 0, 60, 64
1, 35383, Note_on_c, 0, 51, 0
1, 35392, Note_on_c, 0, 54, 0
1, 35394, Note_on_c, 0, 60, 0
1, 35406, Note_on_c, 0, 66, 67
1, 35407, Note_on_c, 0, 69, 0
1, 35426, Note_on_c, 0, 66, 0
1, 35426, Control_c, 0, 64, 0
1, 35434, Note_on_c, 0, 56, 65
1, 35434, Note_on_c, 0, 68, 73
1, 35437, Note_on_c, 0, 52, 70
1, 35456, Control_c, 0, 64, 127
1, 35459, Note_on_c, 0, 61, 61
1, 35462, Note_on_c, 0, 52, 0
1, 35467, Note_on_c, 0, 56, 0
1, 35483, Note_on_c, 0, 68, 0
1, 35488, Note_on_c, 0, 61, 0
1, 35491, Note_on_c, 0, 64, 70
1, 35506, Note_on_c, 0, 64, 0
1, 35514, Control_c, 0, 64, 0
1, 35521, Note_on_c, 0, 51, 63
1, 35523, Note_on_c, 0, 48, 66
1, 35524, Note_on_c, 0, 66, 87
1, 35546, Control_c, 0, 64, 127
1, 35551, Note_on_c, 0, 57, 68
1, 35554, Note_on_c, 0, 48, 0
1, 35563, Note_on_c, 0, 51, 0
1, 35572, Note_on_c, 0, 57, 0
1, 35579, Note_on_c, 0, 63, 67
1, 35583, Note_on_c, 0, 66, 0
1, 35593, Note_on_c, 0, 63, 0
1, 35601, Control_c, 0, 64, 0
1, 35611, Note_on_c, 0, 64, 74
1, 35612, Note_on_c, 0, 52, 65
1, 35613, Note_on_c, 0, 49, 63
1, 35632, Control_c, 0, 64, 127
1, 35638, Note_on_c, 0, 49, 0
1, 35642, Note_on_c, 0, 56, 65
1, 35646, Note_on_c, 0, 52, 0
1, 35649, Note_on_c, 0, 64, 0
1, 35663, Note_on_c, 0, 56, 0
1, 35671, Note_on_c, 0, 61, 65
1, 35683, Control_c, 0, 64, 0
1, 35692, Note_on_c, 0, 61, 0
1, 35697, Note_on_c, 0, 42, 63
1, 35699, Note_on_c, 0, 62, 78
1, 35709, Control_c, 0, 64, 127
1, 35719, Note_on_c, 0, 62, 0
1, 35728, Note_on_c, 0, 57, 76
1, 35751, Note_on_c, 0, 57, 0
1, 35756, Note_on_c, 0, 61, 75
1, 35776, Control_c, 0, 64, 0
1, 35779, Note_on_c, 0, 61, 0
1, 35784, Note_on_c, 0, 69, 78
1, 35788, Note_on_c, 0, 50, 78
1, 35793, Note_on_c, 0, 42, 0
1, 35804, Control_c, 0, 64, 127
1, 35813, Note_on_c, 0, 57, 71
1, 35827, Note_on_c, 0, 69, 0
1, 35836, Note_on_c, 0, 57, 0
1, 35842, Note_on_c, 0, 61, 71
1, 35858, Control_c, 0, 64, 0
1, 35862, Note_on_c, 0, 61, 0
1, 35863, Note_on_c, 0, 50, 0
1, 35868, Note_on_c, 0, 43, 78
1, 35868, Note_on_c, 0, 63, 79
1, 35886, Control_c, 0, 64, 127
1, 35887, Note_on_c, 0, 63, 0
1, 35894, Note_on_c, 0, 58, 83
1, 35922, Note_on_c, 0, 61, 75
1, 35931, Control_c, 0, 64, 0
1, 35937, Note_on_c, 0, 58, 0
1, 35947, Note_on_c, 0, 70, 94
1, 35948, Note_on_c, 0, 61, 0
1, 35949, Note_on_c, 0, 51, 89
1, 35956, Control_c, 0, 64, 127
1, 35961, Note_on_c, 0, 43, 0
1, 35977, Note_on_c, 0, 58, 82
1, 35984, Note_on_c, 0, 51, 0
1, 35996, Note_on_c, 0, 61, 80
1, 36003, Note_on_c, 0, 58, 0
1, 36004, Note_on_c, 0, 70, 0
1, 36018, Control_c, 0, 64, 0
1, 36019, Note_on_c, 0, 61, 0
1, 36027, Note_on_c, 0, 64, 93
1, 36029, Note_on_c, 0, 44, 99
1, 36046, Control_c, 0, 64, 127
1, 36047, Note_on_c, 0, 64, 0
1, 36057, Note_on_c, 0, 59, 90
1, 36079, Note_on_c, 0, 63, 87
1, 36087, Control_c, 0, 64, 0
1, 36089, Note_on_c, 0, 59, 0
1, 36102, Note_on_c, 0, 71, 97
1, 36103, Note_on_c, 0, 63, 0
1, 36103, Note_on_c, 0, 52, 101
1, 36111, Control_c, 0, 64, 127
1, 36132, Note_on_c, 0, 59, 84
1, 36148, Note_on_c, 0, 71, 0
1, 36157, Note_on_c, 0, 63, 83
1, 36168, Note_on_c, 0, 59, 0
1, 36172, Control_c, 0, 64, 0
1, 36176, Note_on_c, 0, 52, 0
1, 36177, Note_on_c, 0, 63, 0
1, 36177, Note_on_c, 0, 72, 107
1, 36178, Note_on_c, 0, 51, 108
1, 36198, Control_c, 0, 64, 127
1, 36211, Note_on_c, 0, 60, 84
1, 36224, Note_on_c, 0, 72, 0
1, 36234, Control_c, 0, 64, 0
1, 36238, Note_on_c, 0, 66, 86
1, 36239, Note_on_c, 0, 60, 0
1, 36254, Note_on_c, 0, 49, 99
1, 36261, Control_c, 0, 64, 127
1, 36263, Note_on_c, 0, 51, 0
1, 36264, Note_on_c, 0, 73, 106
1, 36271, Note_on_c, 0, 66, 0
1, 36273, Note_on_c, 0, 49, 0
1, 36273, Note_on_c, 0, 44, 0
1, 36291, Note_on_c, 0, 61, 92
1, 36303, Control_c, 0, 64, 0
1, 36313, Note_on_c, 0, 64, 91
1, 36316, Note_on_c, 0, 73, 0
1, 36316, Note_on_c, 0, 37, 96
1, 36317, Note_on_c, 0, 61, 0
1, 36318, Control_c, 0, 64, 127
1, 36324, Note_on_c, 0, 64, 0
1, 36367, Note_on_c, 0, 59, 90
1, 36378, Note_on_c, 0, 76, 108
1, 36422, Note_on_c, 0, 68, 97
1, 36453, Note_on_c, 0, 76, 0
1, 36453, Note_on_c, 0, 73, 89
1, 36462, Note_on_c, 0, 68, 0
1, 36474, Note_on_c, 0, 73, 0
1, 36478, Note_on_c, 0, 58, 90
1, 36479, Note_on_c, 0, 75, 101
1, 36483, Note_on_c, 0, 59, 0
1, 36512, Note_on_c, 0, 67, 88
1, 36521, Note_on_c, 0, 75, 0
1, 36537, Note_on_c, 0, 73, 80
1, 36538, Note_on_c, 0, 67, 0
1, 36554, Note_on_c, 0, 37, 0
1, 36558, Note_on_c, 0, 73, 0
1, 36561, Note_on_c, 0, 58, 0
1, 36562, Note_on_c, 0, 74, 102
1, 36566, Note_on_c, 0, 57, 90
1, 36594, Note_on_c, 0, 66, 79
1, 36618, Note_on_c, 0, 74, 0
1, 36618, Note_on_c, 0, 72, 91
1, 36632, Note_on_c, 0, 66, 0
1, 36633, Control_c, 0, 64, 0
1, 36639, Note_on_c, 0, 72, 0
1, 36646, Note_on_c, 0, 73, 99
1, 36651, Note_on_c, 0, 56, 90
1, 36652, Control_c, 0, 64, 127
1, 36656, Note_on_c, 0, 57, 0
1, 36662, Note_on_c, 0, 56, 0
1, 36671, Note_on_c, 0, 64, 91
1, 36683, Note_on_c, 0, 73, 0
1, 36693, Note_on_c, 0, 64, 0
1, 36693, Note_on_c, 0, 68, 87
1, 36694, Note_on_c, 0, 37, 97
1, 36716, Note_on_c, 0, 68, 0
1, 36734, Note_on_c, 0, 76, 109
1, 36739, Note_on_c, 0, 59, 90
1, 36771, Note_on_c, 0, 68, 81
1, 36786, Note_on_c, 0, 76, 0
1, 36796, Note_on_c, 0, 68, 0
1, 36797, Note_on_c, 0, 73, 85
1, 36821, Note_on_c, 0, 59, 0
1, 36824, Note_on_c, 0, 58, 90
1, 36827, Note_on_c, 0, 75, 102
1, 36829, Note_on_c, 0, 73, 0
1, 36857, Note_on_c, 0, 67, 86
1, 36867, Note_on_c, 0, 75, 0
1, 36879, Note_on_c, 0, 73, 89
1, 36884, Note_on_c, 0, 67, 0
1, 36899, Note_on_c, 0, 73, 0
1, 36899, Control_c, 0, 64, 0
1, 36901, Note_on_c, 0, 58, 0
1, 36904, Note_on_c, 0, 57, 90
1, 36904, Note_on_c, 0, 74, 104
1, 36914, Control_c, 0, 64, 127
1, 36928, Note_on_c, 0, 66, 84
1, 36934, Note_on_c, 0, 37, 0
1, 36954, Note_on_c, 0, 74, 0
1, 36956, Note_on_c, 0, 72, 90
1, 36967, Note_on_c, 0, 66, 0
1, 36979, Note_on_c, 0, 72, 0
1, 36979, Note_on_c, 0, 73, 97
1, 36982, Note_on_c, 0, 56, 90
1, 36984, Note_on_c, 0, 57, 0
1, 36998, Note_on_c, 0, 56, 0
1, 37009, Note_on_c, 0, 64, 80
1, 37023, Note_on_c, 0, 73, 0
1, 37028, Note_on_c, 0, 68, 73
1, 37031, Note_on_c, 0, 64, 0
1, 37042, Note_on_c, 0, 68, 0
1, 37061, Control_c, 0, 64, 0
1, 37076, Note_on_c, 0, 80, 93
1, 37077, Note_on_c, 0, 61, 83
1, 37078, Note_on_c, 0, 52, 82
1, 37089, Control_c, 0, 64, 127
1, 37104, Note_on_c, 0, 80, 0
1, 37106, Note_on_c, 0, 52, 0
1, 37108, Note_on_c, 0, 68, 77
1, 37133, Note_on_c, 0, 68, 0
1, 37134, Note_on_c, 0, 73, 84
1, 37158, Note_on_c, 0, 61, 0
1, 37159, Note_on_c, 0, 78, 97
1, 37161, Control_c, 0, 64, 0
1, 37162, Note_on_c, 0, 73, 0
1, 37162, Note_on_c, 0, 51, 102
1, 37169, Control_c, 0, 64, 127
1, 37184, Note_on_c, 0, 78, 0
1, 37187, Note_on_c, 0, 69, 91
1, 37207, Note_on_c, 0, 73, 91
1, 37218, Note_on_c, 0, 69, 0
1, 37226, Control_c, 0, 64, 0
1, 37227, Note_on_c, 0, 51, 0
1, 37229, Note_on_c, 0, 73, 0
1, 37231, Note_on_c, 0, 54, 111
1, 37232, Note_on_c, 0, 81, 97
1, 37238, Control_c, 0, 64, 127
1, 37251, Note_on_c, 0, 81, 0
1, 37264, Note_on_c, 0, 66, 82
1, 37284, Note_on_c, 0, 73, 77
1, 37301, Note_on_c, 0, 66, 0
1, 37303, Control_c, 0, 64, 0
1, 37304, Note_on_c, 0, 54, 0
1, 37309, Note_on_c, 0, 73, 0
1, 37309, Note_on_c, 0, 52, 99
1, 37311, Note_on_c, 0, 80, 98
1, 37318, Control_c, 0, 64, 127
1, 37337, Note_on_c, 0, 80, 0
1, 37341, Note_on_c, 0, 68, 83
1, 37362, Note_on_c, 0, 68, 0
1, 37366, Note_on_c, 0, 73, 78
1, 37377, Control_c, 0, 64, 0
1, 37389, Note_on_c, 0, 73, 0
1, 37389, Note_on_c, 0, 52, 0
1, 37393, Note_on_c, 0, 78, 102
1, 37394, Note_on_c, 0, 57, 102
1, 37423, Note_on_c, 0, 66, 88
1, 37449, Note_on_c, 0, 73, 80
1, 37451, Note_on_c, 0, 78, 0
1, 37452, Note_on_c, 0, 66, 0
1, 37453, Note_on_c, 0, 76, 78
1, 37469, Note_on_c, 0, 76, 0
1, 37473, Note_on_c, 0, 57, 0
1, 37473, Note_on_c, 0, 73, 0
1, 37476, Note_on_c, 0, 78, 99
1, 37476, Note_on_c, 0, 51, 108
1, 37478, Control_c, 0, 64, 127
1, 37498, Note_on_c, 0, 78, 0
1, 37503, Note_on_c, 0, 66, 89
1, 37526, Note_on_c, 0, 73, 88
1, 37534, Note_on_c, 0, 66, 0
1, 37541, Control_c, 0, 64, 0
1, 37542, Note_on_c, 0, 51, 0
1, 37546, Note_on_c, 0, 73, 0
1, 37549, Note_on_c, 0, 76, 103
1, 37552, Note_on_c, 0, 56, 105
1, 37574, Note_on_c, 0, 66, 69
1, 37579, Note_on_c, 0, 76, 0
1, 37596, Note_on_c, 0, 72, 84
1, 37599, Note_on_c, 0, 75, 94
1, 37604, Note_on_c, 0, 66, 0
1, 37612, Note_on_c, 0, 56, 0
1, 37623, Control_c, 0, 64, 127
1, 37626, Note_on_c, 0, 72, 0
1, 37627, Note_on_c, 0, 76, 107
1, 37628, Note_on_c, 0, 49, 97
1, 37629, Note_on_c, 0, 75, 0
1, 37651, Note_on_c, 0, 49, 0
1, 37654, Note_on_c, 0, 64, 94
1, 37657, Note_on_c, 0, 76, 0
1, 37668, Note_on_c, 0, 37, 98
1, 37676, Note_on_c, 0, 64, 0
1, 37683, Note_on_c, 0, 73, 100
1, 37721, Note_on_c, 0, 73, 0
1, 37728, Control_c, 0, 64, 0
1, 37729, Note_on_c, 0, 76, 107
1, 37731, Note_on_c, 0, 59, 110
1, 37734, Control_c, 0, 64, 127
1, 37766, Note_on_c, 0, 68, 83
1, 37783, Note_on_c, 0, 76, 0
1, 37794, Note_on_c, 0, 73, 90
1, 37801, Note_on_c, 0, 68, 0
1, 37821, Note_on_c, 0, 73, 0
1, 37823, Note_on_c, 0, 58, 105
1, 37824, Note_on_c, 0, 75, 102
1, 37829, Note_on_c, 0, 59, 0
1, 37852, Note_on_c, 0, 67, 87
1, 37859, Note_on_c, 0, 75, 0
1, 37877, Note_on_c, 0, 67, 0
1, 37879, Note_on_c, 0, 73, 92
1, 37902, Note_on_c, 0, 73, 0
1, 37908, Note_on_c, 0, 58, 0
1, 37908, Note_on_c, 0, 37, 0
1, 37908, Note_on_c, 0, 57, 109
1, 37908, Note_on_c, 0, 74, 94
1, 37931, Note_on_c, 0, 66, 80
1, 37959, Note_on_c, 0, 74, 0
1, 37959, Note_on_c, 0, 72, 98
1, 37966, Control_c, 0, 64, 0
1, 37971, Control_c, 0, 64, 127
1, 37977, Note_on_c, 0, 66, 0
1, 37984, Note_on_c, 0, 73, 101
1, 37986, Note_on_c, 0, 56, 108
1, 37989, Note_on_c, 0, 57, 0
1, 37992, Note_on_c, 0, 72, 0
1, 37997, Note_on_c, 0, 56, 0
1, 38008, Note_on_c, 0, 73, 0
1, 38011, Note_on_c, 0, 64, 88
1, 38031, Note_on_c, 0, 37, 101
1, 38033, Note_on_c, 0, 68, 91
1, 38033, Control_c, 0, 64, 0
1, 38036, Note_on_c, 0, 64, 0
1, 38041, Control_c, 0, 64, 127
1, 38063, Note_on_c, 0, 68, 0
1, 38071, Note_on_c, 0, 76, 100
1, 38074, Note_on_c, 0, 59, 107
1, 38101, Note_on_c, 0, 68, 80
1, 38102, Note_on_c, 0, 76, 0
1, 38128, Note_on_c, 0, 73, 90
1, 38136, Note_on_c, 0, 68, 0
1, 38152, Note_on_c, 0, 73, 0
1, 38156, Note_on_c, 0, 59, 0
1, 38156, Note_on_c, 0, 75, 100
1, 38157, Note_on_c, 0, 58, 111
1, 38184, Note_on_c, 0, 67, 80
1, 38187, Note_on_c, 0, 75, 0
1, 38209, Note_on_c, 0, 67, 0
1, 38209, Note_on_c, 0, 73, 82
1, 38229, Note_on_c, 0, 58, 0
1, 38231, Note_on_c, 0, 73, 0
1, 38234, Note_on_c, 0, 57, 109
1, 38236, Control_c, 0, 64, 0
1, 38236, Note_on_c, 0, 74, 95
1, 38243, Control_c, 0, 64, 127
1, 38259, Note_on_c, 0, 66, 84
1, 38271, Note_on_c, 0, 37, 0
1, 38286, Note_on_c, 0, 72, 94
1, 38289, Note_on_c, 0, 74, 0
1, 38291, Note_on_c, 0, 66, 0
1, 38309, Note_on_c, 0, 73, 99
1, 38312, Note_on_c, 0, 57, 0
1, 38312, Note_on_c, 0, 56, 103
1, 38318, Note_on_c, 0, 72, 0
1, 38332, Note_on_c, 0, 56, 0
1, 38339, Note_on_c, 0, 64, 80
1, 38357, Note_on_c, 0, 73, 0
1, 38362, Note_on_c, 0, 68, 82
1, 38366, Note_on_c, 0, 64, 0
1, 38376, Note_on_c, 0, 68, 0
1, 38384, Control_c, 0, 64, 0
1, 38402, Note_on_c, 0, 80, 93
1, 38404, Note_on_c, 0, 52, 96
1, 38404, Note_on_c, 0, 61, 92
1, 38412, Control_c, 0, 64, 127
1, 38419, Note_on_c, 0, 80, 0
1, 38429, Note_on_c, 0, 52, 0
1, 38431, Note_on_c, 0, 68, 70
1, 38456, Note_on_c, 0, 73, 73
1, 38457, Note_on_c, 0, 68, 0
1, 38483, Control_c, 0, 64, 0
1, 38484, Note_on_c, 0, 73, 0
1, 38486, Note_on_c, 0, 61, 0
1, 38488, Note_on_c, 0, 78, 100
1, 38491, Note_on_c, 0, 51, 95
1, 38503, Control_c, 0, 64, 127
1, 38511, Note_on_c, 0, 78, 0
1, 38518, Note_on_c, 0, 69, 90
1, 38541, Note_on_c, 0, 73, 87
1, 38547, Note_on_c, 0, 69, 0
1, 38558, Control_c, 0, 64, 0
1, 38564, Note_on_c, 0, 73, 0
1, 38567, Note_on_c, 0, 81, 101
1, 38568, Note_on_c, 0, 51, 0
1, 38568, Note_on_c, 0, 54, 108
1, 38574, Control_c, 0, 64, 127
1, 38587, Note_on_c, 0, 81, 0
1, 38594, Note_on_c, 0, 66, 95
1, 38616, Note_on_c, 0, 73, 74
1, 38623, Note_on_c, 0, 66, 0
1, 38641, Control_c, 0, 64, 0
1, 38643, Note_on_c, 0, 54, 0
1, 38644, Note_on_c, 0, 73, 0
1, 38646, Note_on_c, 0, 80, 110
1, 38647, Note_on_c, 0, 52, 105
1, 38654, Control_c, 0, 64, 127
1, 38657, Note_on_c, 0, 52, 0
1, 38681, Note_on_c, 0, 68, 83
1, 38694, Note_on_c, 0, 80, 0
1, 38697, Note_on_c, 0, 73, 78
1, 38701, Note_on_c, 0, 68, 0
1, 38712, Note_on_c, 0, 73, 0
1, 38724, Control_c, 0, 64, 0
1, 38728, Note_on_c, 0, 65, 100
1, 38728, Note_on_c, 0, 68, 97
1, 38731, Note_on_c, 0, 83, 113
1, 38746, Control_c, 0, 64, 127
1, 38763, Note_on_c, 0, 74, 82
1, 38766, Note_on_c, 0, 83, 0
1, 38788, Note_on_c, 0, 80, 66
1, 38792, Note_on_c, 0, 74, 0
1, 38796, Note_on_c, 0, 80, 0
1, 38799, Control_c, 0, 64, 0
1, 38801, Note_on_c, 0, 68, 0
1, 38803, Note_on_c, 0, 65, 0
1, 38804, Note_on_c, 0, 66, 99
1, 38808, Note_on_c, 0, 81, 107
1, 38809, Note_on_c, 0, 69, 106
1, 38814, Control_c, 0, 64, 127
1, 38818, Note_on_c, 0, 66, 0
1, 38823, Note_on_c, 0, 69, 0
1, 38839, Note_on_c, 0, 73, 72
1, 38844, Note_on_c, 0, 81, 0
1, 38858, Note_on_c, 0, 78, 91
1, 38862, Note_on_c, 0, 73, 0
1, 38871, Note_on_c, 0, 78, 0
1, 38881, Control_c, 0, 64, 0
1, 38884, Note_on_c, 0, 68, 114
1, 38887, Note_on_c, 0, 71, 119
1, 38888, Note_on_c, 0, 86, 118
1, 38916, Note_on_c, 0, 77, 78
1, 38941, Note_on_c, 0, 83, 86
1, 38947, Note_on_c, 0, 77, 0
1, 38957, Note_on_c, 0, 71, 0
1, 38958, Note_on_c, 0, 86, 0
1, 38958, Note_on_c, 0, 69, 104
1, 38959, Note_on_c, 0, 83, 0
1, 38961, Note_on_c, 0, 73, 105
1, 38966, Note_on_c, 0, 85, 109
1, 38966, Control_c, 0, 64, 127
1, 38969, Note_on_c, 0, 68, 0
1, 38971, Note_on_c, 0, 69, 0
1, 38977, Note_on_c, 0, 73, 0
1, 38989, Note_on_c, 0, 78, 85
1, 39001, Note_on_c, 0, 85, 0
1, 39008, Note_on_c, 0, 81, 107
1, 39014, Note_on_c, 0, 78, 0
1, 39021, Note_on_c, 0, 81, 0
1, 39028, Control_c, 0, 64, 0
1, 39033, Note_on_c, 0, 75, 120
1, 39034, Note_on_c, 0, 72, 120
1, 39037, Note_on_c, 0, 90, 118
1, 39048, Control_c, 0, 64, 127
1, 39066, Note_on_c, 0, 81, 90
1, 39088, Note_on_c, 0, 81, 0
1, 39088, Note_on_c, 0, 87, 88
1, 39099, Control_c, 0, 64, 0
1, 39102, Note_on_c, 0, 90, 0
1, 39108, Note_on_c, 0, 75, 0
1, 39109, Note_on_c, 0, 73, 119
1, 39111, Note_on_c, 0, 76, 122
1, 39112, Note_on_c, 0, 88, 111
1, 39113, Note_on_c, 0, 72, 0
1, 39117, Note_on_c, 0, 87, 0
1, 39117, Control_c, 0, 64, 127
1, 39139, Note_on_c, 0, 73, 0
1, 39141, Note_on_c, 0, 80, 90
1, 39142, Note_on_c, 0, 76, 0
1, 39159, Note_on_c, 0, 88, 0
1, 39162, Note_on_c, 0, 85, 89
1, 39166, Note_on_c, 0, 80, 0
1, 39168, Note_on_c, 0, 85, 0
1, 39189, Control_c, 0, 64, 0
1, 39198, Note_on_c, 0, 93, 127
1, 39199, Note_on_c, 0, 84, 125
1, 39201, Note_on_c, 0, 90, 96
1, 39211, Control_c, 0, 64, 127
1, 39231, Note_on_c, 0, 84, 0
1, 39232, Note_on_c, 0, 90, 0
1, 39232, Note_on_c, 0, 93, 0
1, 39237, Note_on_c, 0, 78, 110
1, 39237, Note_on_c, 0, 75, 108
1, 39261, Note_on_c, 0, 75, 0
1, 39264, Note_on_c, 0, 93, 117
1, 39266, Note_on_c, 0, 90, 99
1, 39266, Note_on_c, 0, 84, 113
1, 39271, Note_on_c, 0, 78, 0
1, 39279, Note_on_c, 0, 84, 0
1, 39286, Note_on_c, 0, 90, 0
1, 39291, Note_on_c, 0, 93, 0
1, 39297, Control_c, 0, 64, 0
1, 39302, Note_on_c, 0, 80, 113
1, 39302, Note_on_c, 0, 76, 115
1, 39311, Control_c, 0, 64, 127
1, 39329, Note_on_c, 0, 85, 102
1, 39329, Note_on_c, 0, 92, 106
1, 39331, Note_on_c, 0, 76, 0
1, 39331, Note_on_c, 0, 80, 0
1, 39331, Note_on_c, 0, 88, 93
1, 39344, Note_on_c, 0, 88, 0
1, 39347, Note_on_c, 0, 85, 0
1, 39351, Note_on_c, 0, 92, 0
1, 39357, Note_on_c, 0, 76, 104
1, 39358, Note_on_c, 0, 80, 96
1, 39369, Note_on_c, 0, 76, 0
1, 39374, Note_on_c, 0, 80, 0
1, 39384, Note_on_c, 0, 90, 116
1, 39386, Note_on_c, 0, 81, 121
1, 39387, Control_c, 0, 64, 0
1, 39388, Note_on_c, 0, 87, 84
1, 39394, Note_on_c, 0, 87, 0
1, 39398, Note_on_c, 0, 81, 0
1, 39399, Control_c, 0, 64, 127
1, 39409, Note_on_c, 0, 90, 0
1, 39413, Note_on_c, 0, 75, 106
1, 39414, Note_on_c, 0, 72, 103
1, 39437, Note_on_c, 0, 90, 89
1, 39438, Note_on_c, 0, 72, 0
1, 39439, Note_on_c, 0, 87, 104
1, 39442, Note_on_c, 0, 75, 0
1, 39444, Note_on_c, 0, 81, 65
1, 39452, Note_on_c, 0, 81, 0
1, 39459, Note_on_c, 0, 87, 0
1, 39464, Note_on_c, 0, 90, 0
1, 39469, Note_on_c, 0, 73, 112
1, 39469, Note_on_c, 0, 76, 116
1, 39471, Control_c, 0, 64, 0
1, 39482, Control_c, 0, 64, 127
1, 39492, Note_on_c, 0, 73, 0
1, 39494, Note_on_c, 0, 76, 0
1, 39494, Note_on_c, 0, 85, 101
1, 39494, Note_on_c, 0, 88, 101
1, 39496, Note_on_c, 0, 80, 106
1, 39509, Note_on_c, 0, 85, 0
1, 39513, Note_on_c, 0, 80, 0
1, 39513, Note_on_c, 0, 88, 0
1, 39519, Note_on_c, 0, 73, 108
1, 39522, Note_on_c, 0, 76, 101
1, 39533, Note_on_c, 0, 73, 0
1, 39536, Note_on_c, 0, 76, 0
1, 39548, Note_on_c, 0, 86, 111
1, 39548, Note_on_c, 0, 83, 120
1, 39549, Note_on_c, 0, 77, 114
1, 39549, Control_c, 0, 64, 0
1, 39564, Note_on_c, 0, 77, 0
1, 39567, Control_c, 0, 64, 127
1, 39568, Note_on_c, 0, 83, 0
1, 39571, Note_on_c, 0, 86, 0
1, 39578, Note_on_c, 0, 71, 105
1, 39579, Note_on_c, 0, 68, 103
1, 39601, Note_on_c, 0, 86, 101
1, 39602, Note_on_c, 0, 68, 0
1, 39602, Note_on_c, 0, 77, 112
1, 39603, Note_on_c, 0, 83, 101
1, 39612, Note_on_c, 0, 83, 0
1, 39613, Note_on_c, 0, 77, 0
1, 39614, Note_on_c, 0, 71, 0
1, 39621, Note_on_c, 0, 86, 0
1, 39628, Control_c, 0, 64, 0
1, 39629, Note_on_c, 0, 73, 107
1, 39631, Note_on_c, 0, 69, 111
1, 39638, Control_c, 0, 64, 127
1, 39648, Note_on_c, 0, 85, 101
1, 39649, Note_on_c, 0, 73, 0
1, 39652, Note_on_c, 0, 78, 105
1, 39652, Note_on_c, 0, 81, 109
1, 39654, Note_on_c, 0, 69, 0
1, 39664, Note_on_c, 0, 81, 0
1, 39667, Note_on_c, 0, 85, 0
1, 39669, Note_on_c, 0, 78, 0
1, 39679, Note_on_c, 0, 73, 103
1, 39679, Note_on_c, 0, 69, 110
1, 39693, Note_on_c, 0, 69, 0
1, 39698, Note_on_c, 0, 73, 0
1, 39703, Note_on_c, 0, 83, 125
1, 39704, Note_on_c, 0, 74, 114
1, 39704, Control_c, 0, 64, 0
1, 39704, Note_on_c, 0, 80, 105
1, 39717, Note_on_c, 0, 74, 0
1, 39717, Control_c, 0, 64, 127
1, 39721, Note_on_c, 0, 80, 0
1, 39721, Note_on_c, 0, 83, 0
1, 39727, Note_on_c, 0, 68, 107
1, 39728, Note_on_c, 0, 65, 105
1, 39747, Note_on_c, 0, 65, 0
1, 39748, Note_on_c, 0, 68, 0
1, 39753, Note_on_c, 0, 83, 76
1, 39753, Note_on_c, 0, 80, 103
1, 39754, Note_on_c, 0, 74, 105
1, 39766, Note_on_c, 0, 74, 0
1, 39771, Note_on_c, 0, 83, 0
1, 39772, Note_on_c, 0, 80, 0
1, 39779, Note_on_c, 0, 66, 113
1, 39781, Note_on_c, 0, 69, 107
1, 39782, Control_c, 0, 64, 0
1, 39794, Control_c, 0, 64, 127
1, 39801, Note_on_c, 0, 69, 0
1, 39803, Note_on_c, 0, 66, 0
1, 39803, Note_on_c, 0, 78, 105
1, 39803, Note_on_c, 0, 81, 107
1, 39803, Note_on_c, 0, 73, 99
1, 39816, Note_on_c, 0, 78, 0
1, 39821, Note_on_c, 0, 73, 0
1, 39821, Note_on_c, 0, 81, 0
1, 39827, Note_on_c, 0, 66, 115
1, 39828, Note_on_c, 0, 69, 101
1, 39841, Note_on_c, 0, 69, 0
1, 39842, Note_on_c, 0, 66, 0
1, 39847, Control_c, 0, 64, 0
1, 39851, Note_on_c, 0, 81, 124
1, 39852, Note_on_c, 0, 78, 114
1, 39852, Note_on_c, 0, 72, 116
1, 39859, Control_c, 0, 64, 127
1, 39866, Note_on_c, 0, 72, 0
1, 39867, Note_on_c, 0, 78, 0
1, 39873, Note_on_c, 0, 81, 0
1, 39878, Note_on_c, 0, 66, 104
1, 39879, Note_on_c, 0, 63, 101
1, 39897, Note_on_c, 0, 81, 110
1, 39899, Note_on_c, 0, 72, 108
1, 39899, Note_on_c, 0, 78, 109
1, 39902, Note_on_c, 0, 63, 0
1, 39907, Note_on_c, 0, 66, 0
1, 39912, Note_on_c, 0, 72, 0
1, 39916, Note_on_c, 0, 78, 0
1, 39919, Note_on_c, 0, 81, 0
1, 39919, Control_c, 0, 64, 0
1, 39926, Note_on_c, 0, 68, 107
1, 39926, Note_on_c, 0, 64, 109
1, 39936, Control_c, 0, 64, 127
1, 39946, Note_on_c, 0, 64, 0
1, 39946, Note_on_c, 0, 68, 0
1, 39947, Note_on_c, 0, 80, 110
1, 39949, Note_on_c, 0, 76, 114
1, 39949, Note_on_c, 0, 73, 101
1, 39962, Note_on_c, 0, 73, 0
1, 39962, Note_on_c, 0, 76, 0
1, 39966, Note_on_c, 0, 80, 0
1, 39973, Note_on_c, 0, 64, 107
1, 39974, Note_on_c, 0, 68, 109
1, 39984, Note_on_c, 0, 64, 0
1, 39989, Note_on_c, 0, 68, 0
1, 39994, Note_on_c, 0, 78, 125
1, 39996, Note_on_c, 0, 75, 109
1, 39997, Note_on_c, 0, 69, 116
1, 39997, Control_c, 0, 64, 0
1, 40002, Note_on_c, 0, 75, 0
1, 40008, Note_on_c, 0, 69, 0
1, 40012, Control_c, 0, 64, 127
1, 40014, Note_on_c, 0, 78, 0
1, 40021, Note_on_c, 0, 63, 109
1, 40024, Note_on_c, 0, 60, 101
1, 40034, Note_on_c, 0, 78, 110
1, 40037, Note_on_c, 0, 69, 113
1, 40038, Note_on_c, 0, 75, 103
1, 40044, Note_on_c, 0, 60, 0
1, 40049, Note_on_c, 0, 69, 0
1, 40054, Note_on_c, 0, 63, 0
1, 40054, Note_on_c, 0, 75, 0
1, 40057, Note_on_c, 0, 78, 0
1, 40062, Control_c, 0, 64, 0
1, 40064, Note_on_c, 0, 61, 116
1, 40066, Note_on_c, 0, 64, 108
1, 40074, Control_c, 0, 64, 127
1, 40082, Note_on_c, 0, 61, 0
1, 40083, Note_on_c, 0, 73, 103
1, 40083, Note_on_c, 0, 76, 110
1, 40084, Note_on_c, 0, 64, 0
1, 40084, Note_on_c, 0, 68, 103
1, 40094, Note_on_c, 0, 73, 0
1, 40096, Note_on_c, 0, 76, 0
1, 40099, Note_on_c, 0, 68, 0
1, 40108, Note_on_c, 0, 61, 116
1, 40109, Note_on_c, 0, 64, 102
1, 40123, Note_on_c, 0, 64, 0
1, 40123, Note_on_c, 0, 61, 0
1, 40129, Control_c, 0, 64, 0
1, 40133, Note_on_c, 0, 74, 101
1, 40133, Note_on_c, 0, 71, 114
1, 40134, Note_on_c, 0, 65, 112
1, 40147, Control_c, 0, 64, 127
1, 40151, Note_on_c, 0, 65, 0
1, 40152, Note_on_c, 0, 74, 0
1, 40156, Note_on_c, 0, 71, 0
1, 40159, Note_on_c, 0, 59, 109
1, 40159, Note_on_c, 0, 56, 110
1, 40181, Note_on_c, 0, 74, 103
1, 40182, Note_on_c, 0, 71, 107
1, 40182, Note_on_c, 0, 65, 102
1, 40187, Note_on_c, 0, 56, 0
1, 40192, Note_on_c, 0, 59, 0
1, 40193, Note_on_c, 0, 71, 0
1, 40193, Note_on_c, 0, 65, 0
1, 40199, Note_on_c, 0, 74, 0
1, 40202, Control_c, 0, 64, 0
1, 40204, Note_on_c, 0, 61, 114
1, 40206, Note_on_c, 0, 57, 118
1, 40217, Control_c, 0, 64, 127
1, 40222, Note_on_c, 0, 61, 0
1, 40226, Note_on_c, 0, 57, 0
1, 40226, Note_on_c, 0, 73, 103
1, 40228, Note_on_c, 0, 66, 100
1, 40228, Note_on_c, 0, 69, 90
1, 40236, Note_on_c, 0, 69, 0
1, 40241, Note_on_c, 0, 73, 0
1, 40244, Note_on_c, 0, 66, 0
1, 40252, Note_on_c, 0, 61, 111
1, 40253, Note_on_c, 0, 57, 109
1, 40263, Note_on_c, 0, 57, 0
1, 40268, Note_on_c, 0, 61, 0
1, 40272, Note_on_c, 0, 71, 118
1, 40274, Note_on_c, 0, 62, 114
1, 40274, Note_on_c, 0, 68, 103
1, 40276, Control_c, 0, 64, 0
1, 40288, Note_on_c, 0, 68, 0
1, 40288, Note_on_c, 0, 62, 0
1, 40291, Control_c, 0, 64, 127
1, 40294, Note_on_c, 0, 71, 0
1, 40297, Note_on_c, 0, 56, 107
1, 40301, Note_on_c, 0, 53, 103
1, 40318, Note_on_c, 0, 71, 77
1, 40319, Note_on_c, 0, 68, 110
1, 40319, Note_on_c, 0, 62, 108
1, 40322, Note_on_c, 0, 53, 0
1, 40331, Note_on_c, 0, 62, 0
1, 40332, Note_on_c, 0, 56, 0
1, 40336, Note_on_c, 0, 71, 0
1, 40337, Note_on_c, 0, 68, 0
1, 40341, Control_c, 0, 64, 0
1, 40346, Note_on_c, 0, 54, 113
1, 40346, Note_on_c, 0, 57, 104
1, 40353, Control_c, 0, 64, 127
1, 40363, Note_on_c, 0, 57, 0
1, 40364, Note_on_c, 0, 54, 0
1, 40364, Note_on_c, 0, 69, 113
1, 40364, Note_on_c, 0, 66, 108
1, 40366, Note_on_c, 0, 61, 104
1, 40376, Note_on_c, 0, 66, 0
1, 40381, Note_on_c, 0, 61, 0
1, 40381, Note_on_c, 0, 69, 0
1, 40388, Note_on_c, 0, 54, 118
1, 40388, Note_on_c, 0, 57, 113
1, 40398, Control_c, 0, 64, 0
1, 40401, Note_on_c, 0, 54, 0
1, 40402, Note_on_c, 0, 57, 0
1, 40411, Note_on_c, 0, 69, 123
1, 40413, Note_on_c, 0, 66, 117
1, 40413, Note_on_c, 0, 60, 111
1, 40416, Control_c, 0, 64, 127
1, 40427, Note_on_c, 0, 66, 0
1, 40428, Note_on_c, 0, 60, 0
1, 40433, Note_on_c, 0, 69, 0
1, 40437, Note_on_c, 0, 54, 108
1, 40438, Note_on_c, 0, 51, 104
1, 40461, Note_on_c, 0, 69, 115
1, 40461, Note_on_c, 0, 66, 109
1, 40461, Note_on_c, 0, 60, 104
1, 40466, Note_on_c, 0, 54, 0
1, 40471, Note_on_c, 0, 51, 0
1, 40473, Note_on_c, 0, 60, 0
1, 40473, Control_c, 0, 64, 0
1, 40474, Note_on_c, 0, 66, 0
1, 40481, Note_on_c, 0, 69, 0
1, 40484, Note_on_c, 0, 56, 117
1, 40486, Note_on_c, 0, 52, 116
1, 40491, Control_c, 0, 64, 127
1, 40502, Note_on_c, 0, 68, 106
1, 40503, Note_on_c, 0, 52, 0
1, 40503, Note_on_c, 0, 56, 0
1, 40506, Note_on_c, 0, 64, 101
1, 40506, Note_on_c, 0, 61, 100
1, 40513, Note_on_c, 0, 64, 0
1, 40518, Note_on_c, 0, 61, 0
1, 40519, Note_on_c, 0, 68, 0
1, 40529, Note_on_c, 0, 52, 115
1, 40529, Note_on_c, 0, 56, 111
1, 40542, Note_on_c, 0, 52, 0
1, 40547, Note_on_c, 0, 56, 0
1, 40551, Note_on_c, 0, 66, 126
1, 40552, Note_on_c, 0, 63, 111
1, 40553, Note_on_c, 0, 57, 124
1, 40556, Control_c, 0, 64, 0
1, 40566, Note_on_c, 0, 57, 0
1, 40566, Control_c, 0, 64, 127
1, 40568, Note_on_c, 0, 63, 0
1, 40572, Note_on_c, 0, 66, 0
1, 40573, Note_on_c, 0, 51, 95
1, 40576, Note_on_c, 0, 48, 116
1, 40594, Note_on_c, 0, 66, 117
1, 40594, Note_on_c, 0, 57, 116
1, 40596, Note_on_c, 0, 63, 103
1, 40597, Note_on_c, 0, 48, 0
1, 40599, Note_on_c, 0, 51, 0
1, 40607, Note_on_c, 0, 57, 0
1, 40609, Control_c, 0, 64, 0
1, 40611, Note_on_c, 0, 63, 0
1, 40617, Note_on_c, 0, 66, 0
1, 40617, Note_on_c, 0, 49, 119
1, 40618, Note_on_c, 0, 52, 117
1, 40631, Control_c, 0, 64, 127
1, 40633, Note_on_c, 0, 49, 0
1, 40634, Note_on_c, 0, 52, 0
1, 40639, Note_on_c, 0, 64, 113
1, 40639, Note_on_c, 0, 61, 103
1, 40639, Note_on_c, 0, 56, 105
1, 40652, Note_on_c, 0, 56, 0
1, 40652, Note_on_c, 0, 61, 0
1, 40657, Note_on_c, 0, 64, 0
1, 40662, Note_on_c, 0, 49, 112
1, 40663, Note_on_c, 0, 52, 112
1, 40677, Note_on_c, 0, 52, 0
1, 40677, Note_on_c, 0, 49, 0
1, 40686, Control_c, 0, 64, 0
1, 40687, Note_on_c, 0, 69, 127
1, 40687, Note_on_c, 0, 60, 127
1, 40689, Note_on_c, 0, 66, 118
1, 40698, Control_c, 0, 64, 127
1, 40703, Note_on_c, 0, 66, 0
1, 40707, Note_on_c, 0, 60, 0
1, 40712, Note_on_c, 0, 69, 0
1, 40714, Note_on_c, 0, 54, 121
1, 40736, Note_on_c, 0, 60, 102
1, 40737, Note_on_c, 0, 69, 99
1, 40737, Note_on_c, 0, 66, 109
1, 40748, Note_on_c, 0, 60, 0
1, 40748, Note_on_c, 0, 54, 0
1, 40753, Note_on_c, 0, 66, 0
1, 40756, Note_on_c, 0, 69, 0
1, 40762, Note_on_c, 0, 56, 112
1, 40763, Control_c, 0, 64, 0
1, 40764, Note_on_c, 0, 52, 106
1, 40777, Note_on_c, 0, 52, 0
1, 40777, Note_on_c, 0, 68, 109
1, 40778, Note_on_c, 0, 61, 106
1, 40778, Note_on_c, 0, 64, 102
1, 40778, Control_c, 0, 64, 127
1, 40781, Note_on_c, 0, 56, 0
1, 40791, Note_on_c, 0, 64, 0
1, 40794, Note_on_c, 0, 61, 0
1, 40794, Note_on_c, 0, 68, 0
1, 40804, Note_on_c, 0, 56, 119
1, 40804, Note_on_c, 0, 52, 119
1, 40819, Note_on_c, 0, 52, 0
1, 40821, Note_on_c, 0, 56, 0
1, 40824, Note_on_c, 0, 66, 127
1, 40827, Note_on_c, 0, 57, 127
1, 40827, Note_on_c, 0, 63, 111
1, 40839, Note_on_c, 0, 57, 0
1, 40839, Control_c, 0, 64, 0
1, 40842, Note_on_c, 0, 63, 0
1, 40844, Note_on_c, 0, 66, 0
1, 40846, Note_on_c, 0, 51, 121
1, 40848, Note_on_c, 0, 48, 120
1, 40857, Control_c, 0, 64, 127
1, 40864, Note_on_c, 0, 66, 109
1, 40866, Note_on_c, 0, 63, 109
1, 40866, Note_on_c, 0, 57, 119
1, 40876, Note_on_c, 0, 51, 0
1, 40878, Note_on_c, 0, 48, 0
1, 40878, Note_on_c, 0, 57, 0
1, 40883, Note_on_c, 0, 63, 0
1, 40884, Note_on_c, 0, 66, 0
1, 40891, Note_on_c, 0, 49, 126
1, 40891, Note_on_c, 0, 52, 122
1, 40897, Control_c, 0, 64, 0
1, 40909, Control_c, 0, 64, 127
1, 40909, Note_on_c, 0, 64, 106
1, 40912, Note_on_c, 0, 56, 114
1, 40912, Note_on_c, 0, 61, 106
1, 40921, Note_on_c, 0, 52, 0
1, 40921, Note_on_c, 0, 49, 0
1, 40924, Note_on_c, 0, 61, 0
1, 40928, Note_on_c, 0, 56, 0
1, 40932, Note_on_c, 0, 64, 0
1, 40936, Note_on_c, 0, 49, 121
1, 40937, Note_on_c, 0, 52, 112
1, 40937, Control_c, 0, 64, 0
1, 40961, Control_c, 0, 64, 127
1, 40963, Note_on_c, 0, 66, 127
1, 40964, Note_on_c, 0, 57, 127
1, 40964, Note_on_c, 0, 63, 119
1, 40966, Note_on_c, 0, 49, 0
1, 40967, Note_on_c, 0, 52, 0
1, 40972, Control_c, 0, 64, 127
1, 40979, Note_on_c, 0, 57, 0
1, 40981, Note_on_c, 0, 63, 0
1, 40982, Note_on_c, 0, 66, 0
1, 40989, Note_on_c, 0, 51, 112
1, 40991, Note_on_c, 0, 48, 114
1, 41012, Note_on_c, 0, 66, 120
1, 41013, Note_on_c, 0, 57, 122
1, 41014, Note_on_c, 0, 63, 95
1, 41016, Note_on_c, 0, 48, 0
1, 41017, Note_on_c, 0, 51, 0
1, 41028, Note_on_c, 0, 57, 0
1, 41033, Note_on_c, 0, 66, 0
1, 41034, Note_on_c, 0, 63, 0
1, 41039, Control_c, 0, 64, 0
1, 41039, Note_on_c, 0, 49, 120
1, 41041, Note_on_c, 0, 52, 120
1, 41061, Note_on_c, 0, 61, 106
1, 41063, Note_on_c, 0, 56, 110
1, 41064, Note_on_c, 0, 64, 101
1, 41067, Note_on_c, 0, 49, 0
1, 41071, Note_on_c, 0, 52, 0
1, 41083, Note_on_c, 0, 61, 0
1, 41087, Note_on_c, 0, 56, 0
1, 41088, Note_on_c, 0, 49, 126
1, 41089, Note_on_c, 0, 52, 121
1, 41091, Note_on_c, 0, 64, 0
1, 41119, Note_on_c, 0, 66, 127
1, 41121, Note_on_c, 0, 57, 127
1, 41122, Note_on_c, 0, 52, 0
1, 41123, Note_on_c, 0, 63, 114
1, 41124, Note_on_c, 0, 49, 0
1, 41124, Control_c, 0, 64, 127
1, 41132, Note_on_c, 0, 63, 0
1, 41141, Note_on_c, 0, 57, 0
1, 41144, Note_on_c, 0, 66, 0
1, 41144, Note_on_c, 0, 51, 121
1, 41144, Note_on_c, 0, 48, 126
1, 41174, Note_on_c, 0, 66, 121
1, 41174, Note_on_c, 0, 57, 127
1, 41176, Note_on_c, 0, 48, 0
1, 41177, Note_on_c, 0, 63, 119
1, 41181, Note_on_c, 0, 51, 0
1, 41191, Note_on_c, 0, 57, 0
1, 41197, Note_on_c, 0, 63, 0
1, 41198, Note_on_c, 0, 66, 0
1, 41199, Control_c, 0, 64, 0
1, 41201, Note_on_c, 0, 52, 127
1, 41202, Note_on_c, 0, 49, 127
1, 41229, Note_on_c, 0, 61, 116
1, 41231, Note_on_c, 0, 64, 116
1, 41231, Note_on_c, 0, 56, 121
1, 41233, Note_on_c, 0, 49, 0
1, 41233, Control_c, 0, 64, 127
1, 41242, Note_on_c, 0, 52, 0
1, 41244, Control_c, 0, 64, 0
1, 41251, Note_on_c, 0, 61, 0
1, 41256, Note_on_c, 0, 56, 0
1, 41258, Note_on_c, 0, 64, 0
1, 41258, Note_on_c, 0, 52, 118
1, 41258, Note_on_c, 0, 49, 127
1, 41276, Control_c, 0, 64, 127
1, 41291, Note_on_c, 0, 66, 127
1, 41292, Note_on_c, 0, 49, 0
1, 41292, Note_on_c, 0, 57, 127
1, 41294, Note_on_c, 0, 63, 115
1, 41299, Note_on_c, 0, 52, 0
1, 41303, Note_on_c, 0, 63, 0
1, 41312, Note_on_c, 0, 57, 0
1, 41322, Note_on_c, 0, 66, 0
1, 41327, Note_on_c, 0, 51, 127
1, 41328, Note_on_c, 0, 48, 127
1, 41354, Note_on_c, 0, 66, 120
1, 41356, Note_on_c, 0, 63, 119
1, 41356, Note_on_c, 0, 57, 127
1, 41372, Note_on_c, 0, 48, 0
1, 41373, Note_on_c, 0, 51, 0
1, 41376, Note_on_c, 0, 57, 0
1, 41384, Control_c, 0, 64, 0
1, 41391, Note_on_c, 0, 66, 0
1, 41393, Note_on_c, 0, 49, 127
1, 41396, Note_on_c, 0, 52, 127
1, 41399, Note_on_c, 0, 63, 0
1, 41423, Control_c, 0, 64, 127
1, 41429, Note_on_c, 0, 61, 124
1, 41431, Note_on_c, 0, 56, 127
1, 41431, Note_on_c, 0, 64, 124
1, 41452, Note_on_c, 0, 52, 0
1, 41454, Note_on_c, 0, 61, 0
1, 41458, Note_on_c, 0, 56, 0
1, 41461, Note_on_c, 0, 49, 0
1, 41462, Note_on_c, 0, 64, 0
1, 41476, Note_on_c, 0, 49, 124
1, 41477, Note_on_c, 0, 52, 123
1, 41489, Note_on_c, 0, 52, 0
1, 41492, Note_on_c, 0, 49, 0
1, 41567, Control_c, 0, 64, 0
1, 41579, Note_on_c, 0, 69, 127
1, 41581, Note_on_c, 0, 57, 127
1, 41583, Note_on_c, 0, 45, 127
1, 41584, Note_on_c, 0, 33, 127
1, 41667, Control_c, 0, 64, 127
1, 41703, Control_c, 0, 64, 127
1, 41711, Note_on_c, 0, 33, 0
1, 41718, Note_on_c, 0, 57, 0
1, 41721, Note_on_c, 0, 45, 0
1, 41727, Note_on_c, 0, 69, 0
1, 41889, Note_on_c, 0, 49, 123
1, 41891, Note_on_c, 0, 61, 127
1, 41891, Note_on_c, 0, 78, 127
1, 41892, Note_on_c, 0, 54, 125
1, 41892, Note_on_c, 0, 66, 127
1, 41894, Note_on_c, 0, 73, 124
1, 41906, Note_on_c, 0, 61, 0
1, 41908, Note_on_c, 0, 49, 0
1, 41909, Note_on_c, 0, 54, 0
1, 41923, Note_on_c, 0, 66, 0
1, 41923, Note_on_c, 0, 78, 0
1, 41927, Note_on_c, 0, 73, 0
1, 42191, Control_c, 0, 64, 0
1, 42196, Note_on_c, 0, 68, 123
1, 42197, Note_on_c, 0, 56, 123
1, 42197, Note_on_c, 0, 44, 123
1, 42197, Note_on_c, 0, 32, 123
1, 42223, Control_c, 0, 64, 127
1, 42267, Note_on_c, 0, 32, 0
1, 42276, Note_on_c, 0, 44, 0
1, 42284, Note_on_c, 0, 56, 0
1, 42301, Note_on_c, 0, 68, 0
1, 42522, Note_on_c, 0, 54, 123
1, 42523, Note_on_c, 0, 80, 126
1, 42523, Note_on_c, 0, 66, 127
1, 42524, Note_on_c, 0, 63, 124
1, 42526, Note_on_c, 0, 68, 127
1, 42526, Note_on_c, 0, 60, 127
1, 42527, Note_on_c, 0, 72, 127
1, 42538, Note_on_c, 0, 66, 0
1, 42539, Note_on_c, 0, 63, 0
1, 42539, Note_on_c, 0, 54, 0
1, 42539, Note_on_c, 0, 60, 0
1, 42548, Note_on_c, 0, 72, 0
1, 42551, Note_on_c, 0, 68, 0
1, 42551, Note_on_c, 0, 80, 0
1, 42914, Control_c, 0, 64, 0
1, 42918, Note_on_c, 0, 25, 123
1, 42919, Note_on_c, 0, 61, 118
1, 42921, Note_on_c, 0, 32, 120
1, 42921, Note_on_c, 0, 37, 127
1, 42921, Note_on_c, 0, 49, 127
1, 42922, Note_on_c, 0, 28, 119
1, 42923, Note_on_c, 0, 56, 121
1, 42923, Note_on_c, 0, 52, 123
1, 42937, Control_c, 0, 64, 127
1, 42957, Note_on_c, 0, 52, 0
1, 42958, Note_on_c, 0, 49, 0
1, 42961, Note_on_c, 0, 56, 0
1, 42964, Note_on_c, 0, 61, 0
1, 43114, Note_on_c, 0, 56, 126
1, 43114, Note_on_c, 0, 52, 122
1, 43114, Note_on_c, 0, 61, 123
1, 43116, Note_on_c, 0, 64, 127
1, 43117, Note_on_c, 0, 85, 121
1, 43117, Note_on_c, 0, 73, 127
1, 43118, Note_on_c, 0, 80, 123
1, 43119, Note_on_c, 0, 76, 127
1, 43133, Note_on_c, 0, 52, 0
1, 43143, Note_on_c, 0, 56, 0
1, 43146, Note_on_c, 0, 61, 0
1, 43148, Note_on_c, 0, 64, 0
1, 43151, Note_on_c, 0, 76, 0
1, 43153, Note_on_c, 0, 73, 0
1, 43157, Note_on_c, 0, 80, 0
1, 43163, Note_on_c, 0, 85, 0
1, 43267, Note_on_c, 0, 56, 118
1, 43268, Note_on_c, 0, 88, 123
1, 43269, Note_on_c, 0, 64, 120
1, 43269, Note_on_c, 0, 80, 124
1, 43269, Note_on_c, 0, 68, 126
1, 43271, Note_on_c, 0, 59, 120
1, 43271, Note_on_c, 0, 76, 127
1, 43271, Note_on_c, 0, 83, 127
1, 43299, Note_on_c, 0, 88, 0
1, 43304, Note_on_c, 0, 59, 0
1, 43306, Note_on_c, 0, 76, 0
1, 43307, Note_on_c, 0, 83, 0
1, 43307, Note_on_c, 0, 64, 0
1, 43309, Note_on_c, 0, 68, 0
1, 43314, Note_on_c, 0, 80, 0
1, 43314, Note_on_c, 0, 56, 0
1, 43421, Note_on_c, 0, 55, 121
1, 43422, Note_on_c, 0, 87, 123
1, 43422, Note_on_c, 0, 58, 124
1, 43422, Note_on_c, 0, 63, 126
1, 43423, Note_on_c, 0, 67, 127
1, 43423, Note_on_c, 0, 75, 127
1, 43424, Note_on_c, 0, 82, 123
1, 43426, Note_on_c, 0, 79, 124
1, 43442, Note_on_c, 0, 67, 0
1, 43447, Note_on_c, 0, 87, 0
1, 43447, Note_on_c, 0, 25, 0
1, 43449, Note_on_c, 0, 28, 0
1, 43449, Note_on_c, 0, 32, 0
1, 43449, Note_on_c, 0, 63, 0
1, 43449, Note_on_c, 0, 37, 0
1, 43449, Note_on_c, 0, 79, 0
1, 43452, Note_on_c, 0, 82, 0
1, 43453, Note_on_c, 0, 75, 0
1, 43459, Note_on_c, 0, 55, 0
1, 43462, Note_on_c, 0, 58, 0
1, 43572, Control_c, 0, 64, 0
1, 43586, Note_on_c, 0, 33, 122
1, 43588, Note_on_c, 0, 45, 127
1, 43588, Note_on_c, 0, 69, 121
1, 43588, Note_on_c, 0, 57, 127
1, 43593, Control_c, 0, 64, 127
1, 43602, Note_on_c, 0, 33, 0
1, 43606, Note_on_c, 0, 45, 0
1, 43619, Note_on_c, 0, 57, 0
1, 43624, Note_on_c, 0, 69, 0
1, 43742, Note_on_c, 0, 54, 119
1, 43743, Note_on_c, 0, 86, 124
1, 43744, Note_on_c, 0, 66, 127
1, 43744, Note_on_c, 0, 62, 127
1, 43744, Note_on_c, 0, 60, 125
1, 43744, Note_on_c, 0, 74, 127
1, 43746, Note_on_c, 0, 78, 123
1, 43747, Note_on_c, 0, 84, 127
1, 43761, Note_on_c, 0, 66, 0
1, 43764, Note_on_c, 0, 62, 0
1, 43769, Note_on_c, 0, 84, 0
1, 43769, Note_on_c, 0, 86, 0
1, 43771, Note_on_c, 0, 60, 0
1, 43772, Note_on_c, 0, 74, 0
1, 43773, Note_on_c, 0, 78, 0
1, 43776, Note_on_c, 0, 54, 0
1, 43898, Control_c, 0, 64, 0
1, 43901, Note_on_c, 0, 32, 120
1, 43901, Note_on_c, 0, 44, 127
1, 43902, Note_on_c, 0, 68, 114
1, 43903, Note_on_c, 0, 56, 127
1, 43919, Control_c, 0, 64, 127
1, 43924, Note_on_c, 0, 32, 0
1, 43929, Note_on_c, 0, 44, 0
1, 43944, Note_on_c, 0, 56, 0
1, 43958, Note_on_c, 0, 68, 0
1, 44058, Note_on_c, 0, 51, 119
1, 44061, Note_on_c, 0, 63, 127
1, 44061, Note_on_c, 0, 84, 127
1, 44061, Note_on_c, 0, 54, 123
1, 44061, Note_on_c, 0, 75, 123
1, 44062, Note_on_c, 0, 60, 125
1, 44062, Note_on_c, 0, 78, 123
1, 44062, Note_on_c, 0, 72, 127
1, 44078, Note_on_c, 0, 84, 0
1, 44078, Note_on_c, 0, 63, 0
1, 44079, Note_on_c, 0, 60, 0
1, 44086, Note_on_c, 0, 72, 0
1, 44089, Note_on_c, 0, 54, 0
1, 44091, Note_on_c, 0, 75, 0
1, 44091, Note_on_c, 0, 78, 0
1, 44092, Note_on_c, 0, 51, 0
1, 44226, Control_c, 0, 64, 0
1, 44236, Note_on_c, 0, 25, 122
1, 44237, Note_on_c, 0, 32, 123
1, 44237, Note_on_c, 0, 37, 127
1, 44237, Note_on_c, 0, 28, 120
1, 44237, Note_on_c, 0, 61, 116
1, 44238, Note_on_c, 0, 49, 127
1, 44239, Note_on_c, 0, 56, 123
1, 44241, Note_on_c, 0, 52, 127
1, 44251, Control_c, 0, 64, 127
1, 44279, Note_on_c, 0, 52, 0
1, 44279, Note_on_c, 0, 49, 0
1, 44286, Note_on_c, 0, 56, 0
1, 44292, Note_on_c, 0, 61, 0
1, 44419, Note_on_c, 0, 52, 124
1, 44419, Note_on_c, 0, 61, 124
1, 44421, Note_on_c, 0, 56, 127
1, 44421, Note_on_c, 0, 64, 127
1, 44421, Note_on_c, 0, 85, 121
1, 44422, Note_on_c, 0, 73, 127
1, 44423, Note_on_c, 0, 80, 125
1, 44423, Note_on_c, 0, 76, 127
1, 44436, Note_on_c, 0, 52, 0
1, 44446, Note_on_c, 0, 56, 0
1, 44448, Note_on_c, 0, 64, 0
1, 44449, Note_on_c, 0, 61, 0
1, 44457, Note_on_c, 0, 76, 0
1, 44458, Note_on_c, 0, 73, 0
1, 44462, Note_on_c, 0, 80, 0
1, 44469, Note_on_c, 0, 85, 0
1, 44567, Note_on_c, 0, 56, 119
1, 44568, Note_on_c, 0, 68, 127
1, 44568, Note_on_c, 0, 88, 124
1, 44568, Note_on_c, 0, 64, 120
1, 44569, Note_on_c, 0, 59, 123
1, 44569, Note_on_c, 0, 80, 123
1, 44569, Note_on_c, 0, 76, 127
1, 44571, Note_on_c, 0, 83, 127
1, 44592, Note_on_c, 0, 76, 0
1, 44596, Note_on_c, 0, 88, 0
1, 44597, Note_on_c, 0, 64, 0
1, 44597, Note_on_c, 0, 59, 0
1, 44599, Note_on_c, 0, 83, 0
1, 44601, Note_on_c, 0, 68, 0
1, 44602, Note_on_c, 0, 56, 0
1, 44603, Note_on_c, 0, 80, 0
1, 44716, Note_on_c, 0, 58, 123
1, 44716, Note_on_c, 0, 63, 125
1, 44717, Note_on_c, 0, 55, 123
1, 44717, Note_on_c, 0, 87, 120
1, 44717, Note_on_c, 0, 67, 127
1, 44718, Note_on_c, 0, 75, 127
1, 44718, Note_on_c, 0, 82, 123
1, 44719, Note_on_c, 0, 79, 121
1, 44733, Note_on_c, 0, 67, 0
1, 44737, Note_on_c, 0, 87, 0
1, 44738, Note_on_c, 0, 63, 0
1, 44738, Note_on_c, 0, 79, 0
1, 44741, Note_on_c, 0, 82, 0
1, 44746, Note_on_c, 0, 75, 0
1, 44746, Note_on_c, 0, 55, 0
1, 44747, Note_on_c, 0, 58, 0
1, 44763, Note_on_c, 0, 37, 0
1, 44763, Note_on_c, 0, 25, 0
1, 44764, Note_on_c, 0, 32, 0
1, 44764, Note_on_c, 0, 28, 0
1, 44863, Control_c, 0, 64, 0
1, 44872, Note_on_c, 0, 33, 125
1, 44873, Note_on_c, 0, 45, 127
1, 44874, Note_on_c, 0, 69, 120
1, 44876, Note_on_c, 0, 57, 127
1, 44886, Control_c, 0, 64, 127
1, 44889, Note_on_c, 0, 33, 0
1, 44894, Note_on_c, 0, 45, 0
1, 44909, Note_on_c, 0, 57, 0
1, 44913, Note_on_c, 0, 69, 0
1, 45028, Note_on_c, 0, 54, 118
1, 45029, Note_on_c, 0, 86, 123
1, 45029, Note_on_c, 0, 62, 127
1, 45031, Note_on_c, 0, 66, 127
1, 45031, Note_on_c, 0, 74, 124
1, 45031, Note_on_c, 0, 60, 127
1, 45032, Note_on_c, 0, 78, 122
1, 45033, Note_on_c, 0, 84, 127
1, 45044, Note_on_c, 0, 66, 0
1, 45049, Note_on_c, 0, 62, 0
1, 45051, Note_on_c, 0, 74, 0
1, 45053, Note_on_c, 0, 60, 0
1, 45054, Note_on_c, 0, 78, 0
1, 45054, Note_on_c, 0, 84, 0
1, 45056, Note_on_c, 0, 86, 0
1, 45059, Note_on_c, 0, 54, 0
1, 45171, Control_c, 0, 64, 0
1, 45178, Note_on_c, 0, 32, 119
1, 45178, Note_on_c, 0, 68, 112
1, 45179, Note_on_c, 0, 44, 127
1, 45181, Note_on_c, 0, 56, 127
1, 45192, Control_c, 0, 64, 127
1, 45194, Note_on_c, 0, 44, 0
1, 45194, Note_on_c, 0, 32, 0
1, 45212, Note_on_c, 0, 56, 0
1, 45219, Note_on_c, 0, 68, 0
1, 45329, Note_on_c, 0, 51, 118
1, 45331, Note_on_c, 0, 84, 127
1, 45331, Note_on_c, 0, 63, 127
1, 45332, Note_on_c, 0, 75, 118
1, 45332, Note_on_c, 0, 78, 117
1, 45332, Note_on_c, 0, 54, 122
1, 45333, Note_on_c, 0, 72, 123
1, 45333, Note_on_c, 0, 60, 123
1, 45347, Note_on_c, 0, 60, 0
1, 45347, Note_on_c, 0, 63, 0
1, 45349, Note_on_c, 0, 84, 0
1, 45357, Note_on_c, 0, 78, 0
1, 45357, Note_on_c, 0, 75, 0
1, 45357, Note_on_c, 0, 54, 0
1, 45358, Note_on_c, 0, 72, 0
1, 45359, Note_on_c, 0, 51, 0
1, 45504, Note_on_c, 0, 25, 125
1, 45506, Note_on_c, 0, 49, 127
1, 45507, Note_on_c, 0, 37, 127
1, 45507, Note_on_c, 0, 32, 123
1, 45507, Note_on_c, 0, 61, 122
1, 45507, Control_c, 0, 64, 0
1, 45508, Note_on_c, 0, 28, 120
1, 45526, Control_c, 0, 64, 127
1, 45534, Note_on_c, 0, 49, 0
1, 45543, Note_on_c, 0, 61, 0
1, 45679, Note_on_c, 0, 52, 122
1, 45679, Note_on_c, 0, 56, 127
1, 45681, Note_on_c, 0, 85, 119
1, 45681, Note_on_c, 0, 61, 125
1, 45681, Note_on_c, 0, 73, 127
1, 45682, Note_on_c, 0, 64, 127
1, 45683, Note_on_c, 0, 80, 126
1, 45683, Note_on_c, 0, 76, 127
1, 45692, Note_on_c, 0, 52, 0
1, 45701, Note_on_c, 0, 56, 0
1, 45704, Note_on_c, 0, 64, 0
1, 45706, Note_on_c, 0, 61, 0
1, 45708, Note_on_c, 0, 76, 0
1, 45709, Note_on_c, 0, 73, 0
1, 45716, Note_on_c, 0, 80, 0
1, 45721, Note_on_c, 0, 85, 0
1, 45829, Note_on_c, 0, 68, 120
1, 45831, Note_on_c, 0, 92, 123
1, 45831, Note_on_c, 0, 61, 123
1, 45832, Note_on_c, 0, 71, 127
1, 45832, Note_on_c, 0, 80, 127
1, 45833, Note_on_c, 0, 59, 124
1, 45833, Note_on_c, 0, 85, 124
1, 45852, Note_on_c, 0, 68, 0
1, 45854, Note_on_c, 0, 71, 0
1, 45858, Note_on_c, 0, 59, 0
1, 45859, Note_on_c, 0, 61, 0
1, 45862, Note_on_c, 0, 80, 0
1, 45863, Note_on_c, 0, 92, 0
1, 45866, Note_on_c, 0, 85, 0
1, 45972, Note_on_c, 0, 57, 125
1, 45973, Note_on_c, 0, 66, 120
1, 45973, Note_on_c, 0, 61, 127
1, 45973, Note_on_c, 0, 69, 127
1, 45974, Note_on_c, 0, 90, 123
1, 45974, Note_on_c, 0, 78, 127
1, 45976, Note_on_c, 0, 85, 124
1, 45992, Note_on_c, 0, 69, 0
1, 45994, Note_on_c, 0, 90, 0
1, 45996, Note_on_c, 0, 85, 0
1, 45997, Note_on_c, 0, 61, 0
1, 45998, Note_on_c, 0, 78, 0
1, 45999, Note_on_c, 0, 57, 0
1, 46003, Note_on_c, 0, 66, 0
1, 46033, Note_on_c, 0, 25, 0
1, 46034, Note_on_c, 0, 37, 0
1, 46034, Note_on_c, 0, 32, 0
1, 46036, Note_on_c, 0, 28, 0
1, 46108, Control_c, 0, 64, 0
1, 46114, Note_on_c, 0, 36, 117
1, 46118, Note_on_c, 0, 48, 127
1, 46118, Note_on_c, 0, 72, 122
1, 46118, Note_on_c, 0, 60, 124
1, 46124, Control_c, 0, 64, 127
1, 46132, Note_on_c, 0, 36, 0
1, 46134, Note_on_c, 0, 48, 0
1, 46148, Note_on_c, 0, 60, 0
1, 46158, Note_on_c, 0, 72, 0
1, 46274, Note_on_c, 0, 54, 127
1, 46276, Note_on_c, 0, 66, 127
1, 46277, Note_on_c, 0, 64, 97
1, 46277, Note_on_c, 0, 88, 117
1, 46278, Note_on_c, 0, 78, 122
1, 46278, Note_on_c, 0, 76, 127
1, 46279, Note_on_c, 0, 81, 127
1, 46279, Note_on_c, 0, 57, 104
1, 46298, Note_on_c, 0, 66, 0
1, 46298, Note_on_c, 0, 54, 0
1, 46299, Note_on_c, 0, 88, 0
1, 46299, Note_on_c, 0, 64, 0
1, 46301, Note_on_c, 0, 78, 0
1, 46301, Note_on_c, 0, 76, 0
1, 46302, Note_on_c, 0, 57, 0
1, 46302, Note_on_c, 0, 81, 0
1, 46412, Control_c, 0, 64, 0
1, 46414, Note_on_c, 0, 35, 124
1, 46417, Note_on_c, 0, 47, 127
1, 46418, Note_on_c, 0, 71, 125
1, 46418, Note_on_c, 0, 59, 127
1, 46428, Control_c, 0, 64, 127
1, 46431, Note_on_c, 0, 35, 0
1, 46434, Note_on_c, 0, 47, 0
1, 46443, Note_on_c, 0, 59, 0
1, 46456, Note_on_c, 0, 71, 0
1, 46571, Note_on_c, 0, 54, 117
1, 46571, Note_on_c, 0, 63, 123
1, 46571, Note_on_c, 0, 87, 126
1, 46572, Note_on_c, 0, 57, 127
1, 46572, Note_on_c, 0, 75, 127
1, 46572, Note_on_c, 0, 66, 127
1, 46574, Note_on_c, 0, 78, 122
1, 46574, Note_on_c, 0, 81, 127
1, 46588, Note_on_c, 0, 66, 0
1, 46596, Note_on_c, 0, 63, 0
1, 46597, Note_on_c, 0, 87, 0
1, 46598, Note_on_c, 0, 81, 0
1, 46598, Note_on_c, 0, 57, 0
1, 46602, Note_on_c, 0, 78, 0
1, 46603, Note_on_c, 0, 54, 0
1, 46606, Note_on_c, 0, 75, 0
1, 46722, Control_c, 0, 64, 0
1, 46726, Note_on_c, 0, 32, 125
1, 46726, Note_on_c, 0, 28, 123
1, 46727, Note_on_c, 0, 40, 127
1, 46727, Note_on_c, 0, 64, 120
1, 46728, Note_on_c, 0, 35, 127
1, 46728, Note_on_c, 0, 56, 127
1, 46728, Note_on_c, 0, 52, 127
1, 46729, Note_on_c, 0, 59, 127
1, 46744, Control_c, 0, 64, 127
1, 46764, Note_on_c, 0, 52, 0
1, 46766, Note_on_c, 0, 59, 0
1, 46771, Note_on_c, 0, 56, 0
1, 46784, Note_on_c, 0, 64, 0
1, 46899, Note_on_c, 0, 56, 123
1, 46902, Note_on_c, 0, 88, 119
1, 46902, Note_on_c, 0, 64, 125
1, 46903, Note_on_c, 0, 68, 127
1, 46903, Note_on_c, 0, 59, 123
1, 46904, Note_on_c, 0, 80, 124
1, 46904, Note_on_c, 0, 76, 127
1, 46904, Note_on_c, 0, 83, 127
1, 46924, Note_on_c, 0, 59, 0
1, 46924, Note_on_c, 0, 56, 0
1, 46929, Note_on_c, 0, 64, 0
1, 46932, Note_on_c, 0, 76, 0
1, 46936, Note_on_c, 0, 68, 0
1, 46936, Note_on_c, 0, 80, 0
1, 46938, Note_on_c, 0, 83, 0
1, 46947, Note_on_c, 0, 88, 0
1, 47059, Note_on_c, 0, 63, 117
1, 47061, Note_on_c, 0, 71, 120
1, 47061, Note_on_c, 0, 95, 127
1, 47061, Note_on_c, 0, 83, 127
1, 47062, Note_on_c, 0, 75, 127
1, 47062, Note_on_c, 0, 88, 122
1, 47062, Note_on_c, 0, 64, 127
1, 47082, Note_on_c, 0, 71, 0
1, 47082, Note_on_c, 0, 63, 0
1, 47083, Note_on_c, 0, 95, 0
1, 47084, Note_on_c, 0, 88, 0
1, 47084, Note_on_c, 0, 83, 0
1, 47084, Note_on_c, 0, 75, 0
1, 47086, Note_on_c, 0, 64, 0
1, 47198, Note_on_c, 0, 69, 120
1, 47201, Note_on_c, 0, 64, 123
1, 47201, Note_on_c, 0, 61, 114
1, 47201, Note_on_c, 0, 73, 127
1, 47202, Note_on_c, 0, 93, 127
1, 47202, Note_on_c, 0, 81, 127
1, 47203, Note_on_c, 0, 88, 122
1, 47221, Note_on_c, 0, 69, 0
1, 47223, Note_on_c, 0, 73, 0
1, 47223, Note_on_c, 0, 61, 0
1, 47223, Note_on_c, 0, 64, 0
1, 47224, Note_on_c, 0, 93, 0
1, 47224, Note_on_c, 0, 81, 0
1, 47226, Note_on_c, 0, 88, 0
1, 47253, Note_on_c, 0, 32, 0
1, 47253, Note_on_c, 0, 28, 0
1, 47254, Note_on_c, 0, 40, 0
1, 47256, Note_on_c, 0, 35, 0
1, 47346, Control_c, 0, 64, 0
1, 47351, Note_on_c, 0, 40, 127
1, 47352, Note_on_c, 0, 52, 127
1, 47353, Note_on_c, 0, 76, 127
1, 47353, Note_on_c, 0, 64, 127
1, 47359, Control_c, 0, 64, 127
1, 47411, Note_on_c, 0, 40, 0
1, 47412, Note_on_c, 0, 52, 0
1, 47413, Note_on_c, 0, 76, 0
1, 47413, Note_on_c, 0, 64, 0
1, 47509, Note_on_c, 0, 58, 112
1, 47509, Note_on_c, 0, 92, 123
1, 47509, Note_on_c, 0, 68, 127
1, 47509, Note_on_c, 0, 61, 123
1, 47511, Note_on_c, 0, 70, 127
1, 47511, Note_on_c, 0, 85, 119
1, 47512, Note_on_c, 0, 82, 123
1, 47512, Note_on_c, 0, 80, 127
1, 47526, Note_on_c, 0, 70, 0
1, 47532, Note_on_c, 0, 68, 0
1, 47537, Note_on_c, 0, 92, 0
1, 47539, Note_on_c, 0, 61, 0
1, 47543, Note_on_c, 0, 58, 0
1, 47544, Note_on_c, 0, 80, 0
1, 47544, Note_on_c, 0, 85, 0
1, 47546, Note_on_c, 0, 82, 0
1, 47666, Control_c, 0, 64, 0
1, 47667, Note_on_c, 0, 75, 127
1, 47667, Note_on_c, 0, 39, 127
1, 47669, Note_on_c, 0, 51, 127
1, 47669, Note_on_c, 0, 63, 127
1, 47674, Control_c, 0, 64, 127
1, 47727, Note_on_c, 0, 39, 0
1, 47727, Note_on_c, 0, 75, 0
1, 47729, Note_on_c, 0, 51, 0
1, 47729, Note_on_c, 0, 63, 0
1, 47838, Note_on_c, 0, 58, 117
1, 47838, Note_on_c, 0, 70, 127
1, 47838, Note_on_c, 0, 82, 83
1, 47839, Note_on_c, 0, 91, 127
1, 47839, Note_on_c, 0, 61, 122
1, 47839, Note_on_c, 0, 85, 123
1, 47841, Note_on_c, 0, 67, 123
1, 47841, Note_on_c, 0, 79, 127
1, 47859, Note_on_c, 0, 70, 0
1, 47862, Note_on_c, 0, 67, 0
1, 47867, Note_on_c, 0, 91, 0
1, 47871, Note_on_c, 0, 58, 0
1, 47871, Note_on_c, 0, 61, 0
1, 47874, Note_on_c, 0, 85, 0
1, 47874, Note_on_c, 0, 79, 0
1, 47878, Note_on_c, 0, 82, 0
1, 48039, Control_c, 0, 64, 0
1, 48042, Note_on_c, 0, 39, 123
1, 48042, Note_on_c, 0, 32, 118
1, 48042, Note_on_c, 0, 35, 122
1, 48043, Note_on_c, 0, 44, 127
1, 48043, Note_on_c, 0, 68, 117
1, 48044, Note_on_c, 0, 56, 127
1, 48046, Note_on_c, 0, 63, 117
1, 48046, Note_on_c, 0, 59, 127
1, 48064, Control_c, 0, 64, 127
1, 48097, Note_on_c, 0, 56, 0
1, 48106, Note_on_c, 0, 59, 0
1, 48111, Note_on_c, 0, 63, 0
1, 48118, Note_on_c, 0, 68, 0
1, 48289, Note_on_c, 0, 63, 122
1, 48289, Note_on_c, 0, 71, 127
1, 48289, Note_on_c, 0, 68, 121
1, 48291, Note_on_c, 0, 92, 123
1, 48291, Note_on_c, 0, 59, 127
1, 48292, Note_on_c, 0, 80, 127
1, 48293, Note_on_c, 0, 87, 119
1, 48294, Note_on_c, 0, 83, 124
1, 48318, Note_on_c, 0, 59, 0
1, 48331, Note_on_c, 0, 63, 0
1, 48334, Note_on_c, 0, 68, 0
1, 48334, Note_on_c, 0, 71, 0
1, 48353, Note_on_c, 0, 83, 0
1, 48357, Note_on_c, 0, 87, 0
1, 48371, Note_on_c, 0, 92, 0
1, 48372, Note_on_c, 0, 80, 0
1, 48453, Note_on_c, 0, 61, 117
1, 48454, Note_on_c, 0, 73, 127
1, 48456, Note_on_c, 0, 85, 119
1, 48456, Note_on_c, 0, 93, 127
1, 48457, Note_on_c, 0, 88, 123
1, 48457, Note_on_c, 0, 64, 116
1, 48457, Note_on_c, 0, 81, 127
1, 48458, Note_on_c, 0, 69, 120
1, 48462, Note_on_c, 0, 90, 88
1, 48468, Note_on_c, 0, 90, 0
1, 48477, Note_on_c, 0, 69, 0
1, 48477, Note_on_c, 0, 93, 0
1, 48478, Note_on_c, 0, 73, 0
1, 48481, Note_on_c, 0, 88, 0
1, 48481, Note_on_c, 0, 85, 0
1, 48483, Note_on_c, 0, 64, 0
1, 48483, Note_on_c, 0, 81, 0
1, 48491, Note_on_c, 0, 61, 0
1, 48596, Note_on_c, 0, 61, 118
1, 48596, Note_on_c, 0, 66, 118
1, 48598, Note_on_c, 0, 57, 120
1, 48598, Note_on_c, 0, 90, 118
1, 48598, Note_on_c, 0, 69, 125
1, 48598, Note_on_c, 0, 78, 127
1, 48599, Note_on_c, 0, 85, 118
1, 48599, Note_on_c, 0, 81, 127
1, 48614, Note_on_c, 0, 57, 0
1, 48616, Note_on_c, 0, 61, 0
1, 48621, Note_on_c, 0, 81, 0
1, 48621, Note_on_c, 0, 66, 0
1, 48623, Note_on_c, 0, 78, 0
1, 48624, Note_on_c, 0, 69, 0
1, 48628, Note_on_c, 0, 85, 0
1, 48637, Note_on_c, 0, 90, 0
1, 48716, Note_on_c, 0, 68, 120
1, 48717, Note_on_c, 0, 63, 123
1, 48717, Note_on_c, 0, 71, 127
1, 48718, Note_on_c, 0, 92, 120
1, 48718, Note_on_c, 0, 59, 120
1, 48719, Note_on_c, 0, 80, 127
1, 48719, Note_on_c, 0, 87, 120
1, 48721, Note_on_c, 0, 83, 124
1, 48734, Note_on_c, 0, 71, 0
1, 48736, Note_on_c, 0, 59, 0
1, 48736, Note_on_c, 0, 68, 0
1, 48737, Note_on_c, 0, 83, 0
1, 48741, Note_on_c, 0, 92, 0
1, 48741, Note_on_c, 0, 63, 0
1, 48742, Note_on_c, 0, 87, 0
1, 48743, Note_on_c, 0, 80, 0
1, 48837, Note_on_c, 0, 56, 117
1, 48838, Note_on_c, 0, 68, 126
1, 48838, Note_on_c, 0, 88, 119
1, 48839, Note_on_c, 0, 59, 121
1, 48841, Note_on_c, 0, 80, 122
1, 48841, Note_on_c, 0, 76, 127
1, 48841, Note_on_c, 0, 64, 116
1, 48841, Note_on_c, 0, 83, 121
1, 48854, Note_on_c, 0, 76, 0
1, 48856, Note_on_c, 0, 59, 0
1, 48859, Note_on_c, 0, 56, 0
1, 48862, Note_on_c, 0, 64, 0
1, 48863, Note_on_c, 0, 80, 0
1, 48864, Note_on_c, 0, 83, 0
1, 48866, Note_on_c, 0, 68, 0
1, 48869, Note_on_c, 0, 88, 0
1, 48954, Note_on_c, 0, 66, 123
1, 48954, Note_on_c, 0, 61, 122
1, 48956, Note_on_c, 0, 90, 115
1, 48956, Note_on_c, 0, 57, 117
1, 48957, Note_on_c, 0, 69, 127
1, 48957, Note_on_c, 0, 85, 119
1, 48958, Note_on_c, 0, 78, 126
1, 48958, Note_on_c, 0, 81, 125
1, 48969, Note_on_c, 0, 69, 0
1, 48973, Note_on_c, 0, 57, 0
1, 48974, Note_on_c, 0, 81, 0
1, 48976, Note_on_c, 0, 66, 0
1, 48977, Note_on_c, 0, 90, 0
1, 48978, Note_on_c, 0, 85, 0
1, 48979, Note_on_c, 0, 61, 0
1, 48983, Note_on_c, 0, 78, 0
1, 49082, Note_on_c, 0, 87, 122
1, 49083, Note_on_c, 0, 75, 127
1, 49083, Note_on_c, 0, 78, 121
1, 49083, Note_on_c, 0, 81, 125
1, 49084, Note_on_c, 0, 66, 121
1, 49084, Note_on_c, 0, 54, 111
1, 49084, Note_on_c, 0, 57, 120
1, 49086, Note_on_c, 0, 63, 113
1, 49106, Note_on_c, 0, 57, 0
1, 49108, Note_on_c, 0, 54, 0
1, 49112, Note_on_c, 0, 63, 0
1, 49113, Note_on_c, 0, 75, 0
1, 49116, Note_on_c, 0, 81, 0
1, 49117, Note_on_c, 0, 78, 0
1, 49121, Note_on_c, 0, 66, 0
1, 49124, Note_on_c, 0, 87, 0
1, 49223, Note_on_c, 0, 56, 120
1, 49223, Note_on_c, 0, 88, 123
1, 49224, Note_on_c, 0, 68, 127
1, 49224, Note_on_c, 0, 80, 123
1, 49226, Note_on_c, 0, 76, 127
1, 49226, Note_on_c, 0, 59, 124
1, 49226, Note_on_c, 0, 83, 127
1, 49227, Note_on_c, 0, 64, 122
1, 49241, Note_on_c, 0, 39, 0
1, 49241, Note_on_c, 0, 32, 0
1, 49242, Note_on_c, 0, 35, 0
1, 49242, Note_on_c, 0, 44, 0
1, 49291, Note_on_c, 0, 88, 0
1, 49292, Note_on_c, 0, 64, 0
1, 49292, Note_on_c, 0, 76, 0
1, 49297, Note_on_c, 0, 80, 0
1, 49298, Note_on_c, 0, 83, 0
1, 49299, Note_on_c, 0, 56, 0
1, 49301, Note_on_c, 0, 59, 0
1, 49304, Note_on_c, 0, 68, 0
1, 49374, Note_on_c, 0, 56, 109
1, 49376, Note_on_c, 0, 88, 120
1, 49376, Note_on_c, 0, 68, 118
1, 49376, Note_on_c, 0, 59, 118
1, 49378, Note_on_c, 0, 80, 121
1, 49378, Note_on_c, 0, 76, 127
1, 49378, Note_on_c, 0, 83, 124
1, 49378, Note_on_c, 0, 64, 113
1, 49394, Note_on_c, 0, 56, 0
1, 49397, Note_on_c, 0, 76, 0
1, 49398, Note_on_c, 0, 59, 0
1, 49401, Note_on_c, 0, 64, 0
1, 49404, Note_on_c, 0, 80, 0
1, 49406, Note_on_c, 0, 83, 0
1, 49407, Note_on_c, 0, 88, 0
1, 49413, Note_on_c, 0, 68, 0
1, 49494, Note_on_c, 0, 90, 119
1, 49496, Note_on_c, 0, 85, 119
1, 49496, Note_on_c, 0, 61, 122
1, 49496, Note_on_c, 0, 66, 124
1, 49496, Note_on_c, 0, 57, 127
1, 49497, Note_on_c, 0, 81, 124
1, 49497, Note_on_c, 0, 78, 126
1, 49497, Note_on_c, 0, 69, 127
1, 49519, Note_on_c, 0, 69, 0
1, 49519, Note_on_c, 0, 81, 0
1, 49522, Note_on_c, 0, 85, 0
1, 49522, Note_on_c, 0, 90, 0
1, 49522, Note_on_c, 0, 57, 0
1, 49523, Note_on_c, 0, 66, 0
1, 49526, Note_on_c, 0, 61, 0
1, 49527, Note_on_c, 0, 78, 0
1, 49621, Note_on_c, 0, 54, 109
1, 49622, Note_on_c, 0, 87, 118
1, 49622, Note_on_c, 0, 63, 115
1, 49622, Note_on_c, 0, 66, 125
1, 49623, Note_on_c, 0, 57, 122
1, 49623, Note_on_c, 0, 75, 127
1, 49623, Note_on_c, 0, 78, 120
1, 49624, Note_on_c, 0, 81, 125
1, 49637, Note_on_c, 0, 57, 0
1, 49639, Note_on_c, 0, 54, 0
1, 49647, Note_on_c, 0, 63, 0
1, 49649, Note_on_c, 0, 81, 0
1, 49651, Note_on_c, 0, 78, 0
1, 49654, Note_on_c, 0, 75, 0
1, 49657, Note_on_c, 0, 66, 0
1, 49663, Note_on_c, 0, 87, 0
1, 49739, Control_c, 0, 64, 0
1, 49743, Note_on_c, 0, 56, 114
1, 49743, Note_on_c, 0, 88, 119
1, 49743, Note_on_c, 0, 68, 126
1, 49744, Note_on_c, 0, 59, 120
1, 49744, Note_on_c, 0, 64, 118
1, 49746, Note_on_c, 0, 80, 119
1, 49746, Note_on_c, 0, 83, 124
1, 49746, Note_on_c, 0, 76, 123
1, 49749, Control_c, 0, 64, 127
1, 49761, Note_on_c, 0, 76, 0
1, 49767, Note_on_c, 0, 88, 0
1, 49768, Note_on_c, 0, 64, 0
1, 49769, Note_on_c, 0, 68, 0
1, 49769, Note_on_c, 0, 83, 0
1, 49772, Note_on_c, 0, 80, 0
1, 49772, Note_on_c, 0, 59, 0
1, 49777, Note_on_c, 0, 56, 0
1, 49869, Note_on_c, 0, 56, 121
1, 49871, Control_c, 0, 64, 0
1, 49872, Note_on_c, 0, 85, 119
1, 49872, Note_on_c, 0, 52, 114
1, 49872, Note_on_c, 0, 61, 119
1, 49872, Note_on_c, 0, 73, 124
1, 49873, Note_on_c, 0, 80, 119
1, 49873, Note_on_c, 0, 64, 123
1, 49873, Note_on_c, 0, 76, 123
1, 49877, Control_c, 0, 64, 127
1, 49891, Note_on_c, 0, 52, 0
1, 49894, Note_on_c, 0, 56, 0
1, 49899, Note_on_c, 0, 76, 0
1, 49899, Note_on_c, 0, 61, 0
1, 49901, Note_on_c, 0, 73, 0
1, 49902, Note_on_c, 0, 64, 0
1, 49903, Note_on_c, 0, 80, 0
1, 49914, Note_on_c, 0, 85, 0
1, 50011, Note_on_c, 0, 54, 112
1, 50011, Note_on_c, 0, 87, 120
1, 50012, Note_on_c, 0, 66, 127
1, 50012, Note_on_c, 0, 63, 115
1, 50012, Note_on_c, 0, 57, 127
1, 50013, Note_on_c, 0, 78, 122
1, 50013, Note_on_c, 0, 75, 127
1, 50013, Note_on_c, 0, 81, 127
1, 50034, Note_on_c, 0, 63, 0
1, 50034, Note_on_c, 0, 66, 0
1, 50038, Note_on_c, 0, 81, 0
1, 50039, Note_on_c, 0, 57, 0
1, 50039, Note_on_c, 0, 87, 0
1, 50042, Note_on_c, 0, 54, 0
1, 50043, Note_on_c, 0, 78, 0
1, 50048, Note_on_c, 0, 75, 0
1, 50154, Control_c, 0, 64, 0
1, 50163, Note_on_c, 0, 54, 116
1, 50164, Note_on_c, 0, 51, 111
1, 50164, Note_on_c, 0, 63, 127
1, 50164, Note_on_c, 0, 84, 127
1, 50166, Note_on_c, 0, 78, 123
1, 50166, Note_on_c, 0, 75, 119
1, 50166, Note_on_c, 0, 60, 119
1, 50166, Note_on_c, 0, 72, 125
1, 50169, Control_c, 0, 64, 127
1, 50182, Note_on_c, 0, 60, 0
1, 50182, Note_on_c, 0, 63, 0
1, 50191, Note_on_c, 0, 54, 0
1, 50194, Note_on_c, 0, 51, 0
1, 50197, Note_on_c, 0, 72, 0
1, 50199, Note_on_c, 0, 84, 0
1, 50204, Note_on_c, 0, 75, 0
1, 50206, Note_on_c, 0, 78, 0
1, 50256, Note_on_c, 0, 25, 119
1, 50256, Note_on_c, 0, 61, 127
1, 50257, Note_on_c, 0, 37, 127
1, 50257, Note_on_c, 0, 49, 127
1, 50278, Note_on_c, 0, 61, 0
1, 50279, Note_on_c, 0, 49, 0
1, 50363, Note_on_c, 0, 85, 123
1, 50364, Note_on_c, 0, 52, 122
1, 50364, Note_on_c, 0, 61, 127
1, 50364, Note_on_c, 0, 56, 125
1, 50366, Note_on_c, 0, 73, 127
1, 50366, Note_on_c, 0, 64, 127
1, 50366, Control_c, 0, 64, 0
1, 50367, Note_on_c, 0, 80, 125
1, 50368, Note_on_c, 0, 76, 127
1, 50384, Control_c, 0, 64, 127
1, 50412, Note_on_c, 0, 52, 0
1, 50413, Note_on_c, 0, 85, 0
1, 50417, Note_on_c, 0, 73, 0
1, 50422, Note_on_c, 0, 64, 0
1, 50422, Note_on_c, 0, 56, 0
1, 50428, Note_on_c, 0, 61, 0
1, 50428, Note_on_c, 0, 76, 0
1, 50429, Note_on_c, 0, 80, 0
1, 50518, Note_on_c, 0, 52, 113
1, 50519, Note_on_c, 0, 56, 120
1, 50521, Note_on_c, 0, 64, 123
1, 50521, Note_on_c, 0, 61, 114
1, 50521, Note_on_c, 0, 73, 126
1, 50522, Note_on_c, 0, 85, 117
1, 50523, Note_on_c, 0, 80, 119
1, 50523, Note_on_c, 0, 76, 124
1, 50532, Note_on_c, 0, 52, 0
1, 50534, Note_on_c, 0, 56, 0
1, 50536, Note_on_c, 0, 61, 0
1, 50539, Note_on_c, 0, 76, 0
1, 50541, Note_on_c, 0, 64, 0
1, 50543, Note_on_c, 0, 73, 0
1, 50547, Note_on_c, 0, 80, 0
1, 50554, Note_on_c, 0, 85, 0
1, 50658, Note_on_c, 0, 56, 111
1, 50658, Note_on_c, 0, 88, 119
1, 50658, Note_on_c, 0, 80, 122
1, 50659, Note_on_c, 0, 64, 115
1, 50659, Note_on_c, 0, 76, 127
1, 50659, Note_on_c, 0, 68, 124
1, 50659, Note_on_c, 0, 59, 120
1, 50661, Note_on_c, 0, 83, 123
1, 50688, Note_on_c, 0, 88, 0
1, 50689, Note_on_c, 0, 59, 0
1, 50691, Note_on_c, 0, 76, 0
1, 50694, Note_on_c, 0, 83, 0
1, 50694, Note_on_c, 0, 64, 0
1, 50697, Note_on_c, 0, 68, 0
1, 50697, Note_on_c, 0, 56, 0
1, 50701, Note_on_c, 0, 80, 0
1, 50806, Note_on_c, 0, 55, 119
1, 50807, Note_on_c, 0, 58, 120
1, 50807, Note_on_c, 0, 63, 123
1, 50807, Note_on_c, 0, 67, 127
1, 50807, Note_on_c, 0, 87, 119
1, 50809, Note_on_c, 0, 75, 127
1, 50809, Note_on_c, 0, 82, 116
1, 50811, Note_on_c, 0, 79, 120
1, 50827, Note_on_c, 0, 67, 0
1, 50829, Note_on_c, 0, 87, 0
1, 50833, Note_on_c, 0, 79, 0
1, 50833, Note_on_c, 0, 63, 0
1, 50834, Note_on_c, 0, 82, 0
1, 50838, Note_on_c, 0, 25, 0
1, 50839, Note_on_c, 0, 75, 0
1, 50839, Note_on_c, 0, 37, 0
1, 50839, Note_on_c, 0, 55, 0
1, 50843, Note_on_c, 0, 58, 0
1, 50948, Control_c, 0, 64, 0
1, 50953, Note_on_c, 0, 33, 117
1, 50956, Note_on_c, 0, 69, 119
1, 50956, Note_on_c, 0, 57, 127
1, 50956, Note_on_c, 0, 45, 127
1, 50966, Control_c, 0, 64, 127
1, 50972, Note_on_c, 0, 33, 0
1, 50974, Note_on_c, 0, 45, 0
1, 50987, Note_on_c, 0, 57, 0
1, 50994, Note_on_c, 0, 69, 0
1, 51124, Note_on_c, 0, 54, 114
1, 51124, Note_on_c, 0, 62, 124
1, 51126, Note_on_c, 0, 66, 127
1, 51126, Note_on_c, 0, 60, 123
1, 51126, Note_on_c, 0, 86, 123
1, 51127, Note_on_c, 0, 74, 127
1, 51128, Note_on_c, 0, 78, 122
1, 51128, Note_on_c, 0, 84, 127
1, 51143, Note_on_c, 0, 66, 0
1, 51149, Note_on_c, 0, 62, 0
1, 51152, Note_on_c, 0, 74, 0
1, 51153, Note_on_c, 0, 60, 0
1, 51154, Note_on_c, 0, 86, 0
1, 51154, Note_on_c, 0, 84, 0
1, 51162, Note_on_c, 0, 78, 0
1, 51162, Note_on_c, 0, 54, 0
1, 51273, Control_c, 0, 64, 0
1, 51278, Note_on_c, 0, 32, 117
1, 51281, Note_on_c, 0, 44, 127
1, 51282, Note_on_c, 0, 68, 113
1, 51282, Note_on_c, 0, 56, 127
1, 51289, Control_c, 0, 64, 127
1, 51296, Note_on_c, 0, 32, 0
1, 51298, Note_on_c, 0, 44, 0
1, 51317, Note_on_c, 0, 56, 0
1, 51327, Note_on_c, 0, 68, 0
1, 51442, Note_on_c, 0, 63, 127
1, 51442, Note_on_c, 0, 51, 113
1, 51443, Note_on_c, 0, 54, 120
1, 51443, Note_on_c, 0, 60, 121
1, 51444, Note_on_c, 0, 75, 121
1, 51444, Note_on_c, 0, 78, 119
1, 51446, Note_on_c, 0, 84, 127
1, 51447, Note_on_c, 0, 72, 122
1, 51462, Note_on_c, 0, 63, 0
1, 51464, Note_on_c, 0, 84, 0
1, 51467, Note_on_c, 0, 60, 0
1, 51473, Note_on_c, 0, 72, 0
1, 51473, Note_on_c, 0, 78, 0
1, 51476, Note_on_c, 0, 54, 0
1, 51476, Note_on_c, 0, 75, 0
1, 51478, Note_on_c, 0, 51, 0
1, 51619, Control_c, 0, 64, 0
1, 51622, Note_on_c, 0, 25, 124
1, 51624, Note_on_c, 0, 32, 120
1, 51624, Note_on_c, 0, 28, 120
1, 51626, Note_on_c, 0, 37, 127
1, 51626, Note_on_c, 0, 61, 120
1, 51627, Note_on_c, 0, 49, 127
1, 51642, Control_c, 0, 64, 127
1, 51654, Note_on_c, 0, 49, 0
1, 51664, Note_on_c, 0, 61, 0
1, 51796, Note_on_c, 0, 52, 114
1, 51796, Note_on_c, 0, 56, 115
1, 51796, Note_on_c, 0, 85, 116
1, 51797, Note_on_c, 0, 61, 114
1, 51797, Note_on_c, 0, 73, 127
1, 51798, Note_on_c, 0, 64, 117
1, 51799, Note_on_c, 0, 80, 123
1, 51799, Note_on_c, 0, 76, 123
1, 51812, Note_on_c, 0, 52, 0
1, 51816, Note_on_c, 0, 56, 0
1, 51818, Note_on_c, 0, 61, 0
1, 51819, Note_on_c, 0, 64, 0
1, 51826, Note_on_c, 0, 76, 0
1, 51827, Note_on_c, 0, 73, 0
1, 51834, Note_on_c, 0, 80, 0
1, 51839, Note_on_c, 0, 85, 0
1, 51943, Note_on_c, 0, 61, 113
1, 51943, Note_on_c, 0, 92, 117
1, 51944, Note_on_c, 0, 59, 122
1, 51946, Note_on_c, 0, 71, 127
1, 51946, Note_on_c, 0, 85, 125
1, 51946, Note_on_c, 0, 80, 127
1, 51973, Note_on_c, 0, 71, 0
1, 51978, Note_on_c, 0, 92, 0
1, 51979, Note_on_c, 0, 59, 0
1, 51981, Note_on_c, 0, 61, 0
1, 51984, Note_on_c, 0, 80, 0
1, 51987, Note_on_c, 0, 85, 0
1, 52091, Note_on_c, 0, 69, 127
1, 52091, Note_on_c, 0, 57, 125
1, 52091, Note_on_c, 0, 61, 125
1, 52091, Note_on_c, 0, 90, 119
1, 52094, Note_on_c, 0, 78, 127
1, 52094, Note_on_c, 0, 85, 123
1, 52108, Note_on_c, 0, 69, 0
1, 52117, Note_on_c, 0, 90, 0
1, 52119, Note_on_c, 0, 85, 0
1, 52121, Note_on_c, 0, 78, 0
1, 52123, Note_on_c, 0, 61, 0
1, 52124, Note_on_c, 0, 57, 0
1, 52149, Note_on_c, 0, 25, 0
1, 52152, Note_on_c, 0, 32, 0
1, 52153, Note_on_c, 0, 28, 0
1, 52153, Note_on_c, 0, 37, 0
1, 52256, Control_c, 0, 64, 0
1, 52257, Note_on_c, 0, 33, 127
1, 52258, Note_on_c, 0, 57, 127
1, 52258, Note_on_c, 0, 69, 127
1, 52258, Note_on_c, 0, 45, 127
1, 52273, Control_c, 0, 64, 127
1, 52317, Note_on_c, 0, 33, 0
1, 52318, Note_on_c, 0, 57, 0
1, 52318, Note_on_c, 0, 69, 0
1, 52318, Note_on_c, 0, 45, 0
1, 52427, Note_on_c, 0, 54, 118
1, 52428, Note_on_c, 0, 88, 120
1, 52428, Note_on_c, 0, 66, 127
1, 52429, Note_on_c, 0, 64, 127
1, 52431, Note_on_c, 0, 60, 124
1, 52431, Note_on_c, 0, 76, 127
1, 52432, Note_on_c, 0, 84, 127
1, 52432, Note_on_c, 0, 78, 122
1, 52487, Note_on_c, 0, 54, 0
1, 52488, Note_on_c, 0, 88, 0
1, 52488, Note_on_c, 0, 66, 0
1, 52489, Note_on_c, 0, 64, 0
1, 52491, Note_on_c, 0, 60, 0
1, 52491, Note_on_c, 0, 76, 0
1, 52492, Note_on_c, 0, 78, 0
1, 52492, Note_on_c, 0, 84, 0
1, 52602, Control_c, 0, 64, 0
1, 52608, Note_on_c, 0, 32, 127
1, 52608, Note_on_c, 0, 68, 127
1, 52609, Note_on_c, 0, 44, 127
1, 52609, Note_on_c, 0, 56, 127
1, 52628, Control_c, 0, 64, 127
1, 52668, Note_on_c, 0, 68, 0
1, 52668, Note_on_c, 0, 32, 0
1, 52669, Note_on_c, 0, 44, 0
1, 52669, Note_on_c, 0, 56, 0
1, 52809, Note_on_c, 0, 84, 127
1, 52809, Note_on_c, 0, 63, 127
1, 52811, Note_on_c, 0, 78, 120
1, 52811, Note_on_c, 0, 54, 120
1, 52811, Note_on_c, 0, 75, 123
1, 52811, Note_on_c, 0, 51, 116
1, 52812, Note_on_c, 0, 60, 124
1, 52812, Note_on_c, 0, 72, 122
1, 52869, Note_on_c, 0, 63, 0
1, 52869, Note_on_c, 0, 84, 0
1, 52871, Note_on_c, 0, 54, 0
1, 52871, Note_on_c, 0, 78, 0
1, 52871, Note_on_c, 0, 75, 0
1, 52871, Note_on_c, 0, 51, 0
1, 52872, Note_on_c, 0, 72, 0
1, 52872, Note_on_c, 0, 60, 0
1, 52987, Control_c, 0, 64, 0
1, 52993, Note_on_c, 0, 25, 121
1, 52996, Note_on_c, 0, 37, 127
1, 52996, Note_on_c, 0, 49, 127
1, 52996, Note_on_c, 0, 61, 121
1, 53011, Control_c, 0, 64, 127
1, 53029, Note_on_c, 0, 61, 0
1, 53137, Note_on_c, 0, 61, 123
1, 53137, Note_on_c, 0, 52, 124
1, 53138, Note_on_c, 0, 85, 119
1, 53138, Note_on_c, 0, 56, 127
1, 53138, Note_on_c, 0, 64, 127
1, 53139, Note_on_c, 0, 73, 127
1, 53141, Note_on_c, 0, 80, 125
1, 53141, Note_on_c, 0, 76, 127
1, 53203, Control_c, 0, 64, 127
1, 53214, Note_on_c, 0, 85, 0
1, 53217, Note_on_c, 0, 76, 0
1, 53218, Note_on_c, 0, 73, 0
1, 53222, Note_on_c, 0, 80, 0
1, 53223, Note_on_c, 0, 52, 0
1, 53228, Note_on_c, 0, 64, 0
1, 53236, Note_on_c, 0, 61, 0
1, 53241, Note_on_c, 0, 56, 0
1, 53402, Note_on_c, 0, 73, 115
1, 53403, Note_on_c, 0, 61, 123
1, 53403, Note_on_c, 0, 52, 115
1, 53403, Note_on_c, 0, 64, 119
1, 53404, Note_on_c, 0, 68, 116
1, 53404, Note_on_c, 0, 56, 116
1, 53477, Note_on_c, 0, 52, 0
1, 53478, Note_on_c, 0, 64, 0
1, 53488, Note_on_c, 0, 56, 0
1, 53521, Note_on_c, 0, 68, 0
1, 53522, Note_on_c, 0, 61, 0
1, 53528, Note_on_c, 0, 73, 0
1, 53622, Note_on_c, 0, 74, 119
1, 53623, Note_on_c, 0, 62, 117
1, 53624, Note_on_c, 0, 54, 114
1, 53626, Note_on_c, 0, 66, 123
1, 53626, Note_on_c, 0, 69, 120
1, 53626, Control_c, 0, 64, 0
1, 53628, Note_on_c, 0, 57, 120
1, 53664, Control_c, 0, 64, 127
1, 53697, Note_on_c, 0, 74, 0
1, 53699, Note_on_c, 0, 62, 0
1, 53699, Note_on_c, 0, 66, 0
1, 53701, Note_on_c, 0, 69, 0
1, 53702, Note_on_c, 0, 57, 0
1, 53708, Note_on_c, 0, 54, 0
1, 53714, Note_on_c, 0, 49, 0
1, 53803, Note_on_c, 0, 71, 111
1, 53804, Note_on_c, 0, 66, 112
1, 53804, Note_on_c, 0, 59, 117
1, 53807, Note_on_c, 0, 54, 115
1, 53807, Note_on_c, 0, 50, 118
1, 53807, Note_on_c, 0, 62, 120
1, 53809, Control_c, 0, 64, 0
1, 53812, Control_c, 0, 67, 0
1, 53839, Control_c, 0, 64, 127
1, 53864, Note_on_c, 0, 59, 0
1, 53869, Note_on_c, 0, 50, 0
1, 53872, Note_on_c, 0, 54, 0
1, 53873, Note_on_c, 0, 71, 0
1, 53877, Note_on_c, 0, 62, 0
1, 53878, Note_on_c, 0, 66, 0
1, 53972, Control_c, 0, 64, 0
1, 53976, Note_on_c, 0, 73, 105
1, 53977, Note_on_c, 0, 56, 117
1, 53977, Note_on_c, 0, 52, 112
1, 53977, Note_on_c, 0, 64, 121
1, 53978, Note_on_c, 0, 61, 117
1, 53979, Note_on_c, 0, 68, 112
1, 54001, Control_c, 0, 64, 127
1, 54021, Note_on_c, 0, 64, 0
1, 54032, Note_on_c, 0, 52, 0
1, 54033, Note_on_c, 0, 73, 0
1, 54036, Note_on_c, 0, 68, 0
1, 54038, Note_on_c, 0, 56, 0
1, 54039, Note_on_c, 0, 61, 0
1, 54156, Note_on_c, 0, 69, 110
1, 54157, Note_on_c, 0, 64, 98
1, 54157, Note_on_c, 0, 57, 103
1, 54158, Note_on_c, 0, 61, 111
1, 54158, Note_on_c, 0, 49, 103
1, 54158, Control_c, 0, 64, 0
1, 54159, Note_on_c, 0, 52, 101
1, 54192, Control_c, 0, 64, 127
1, 54229, Note_on_c, 0, 57, 0
1, 54232, Note_on_c, 0, 52, 0
1, 54236, Note_on_c, 0, 49, 0
1, 54238, Note_on_c, 0, 64, 0
1, 54244, Note_on_c, 0, 69, 0
1, 54248, Note_on_c, 0, 61, 0
1, 54342, Note_on_c, 0, 71, 103
1, 54343, Note_on_c, 0, 66, 102
1, 54344, Note_on_c, 0, 59, 98
1, 54346, Control_c, 0, 64, 0
1, 54347, Note_on_c, 0, 50, 100
1, 54348, Note_on_c, 0, 54, 99
1, 54348, Note_on_c, 0, 62, 98
1, 54379, Control_c, 0, 64, 127
1, 54403, Note_on_c, 0, 62, 0
1, 54403, Note_on_c, 0, 59, 0
1, 54411, Note_on_c, 0, 71, 0
1, 54413, Note_on_c, 0, 54, 0
1, 54419, Note_on_c, 0, 50, 0
1, 54422, Note_on_c, 0, 66, 0
1, 54432, Note_on_c, 0, 25, 0
1, 54434, Note_on_c, 0, 37, 0
1, 54566, Note_on_c, 0, 68, 100
1, 54569, Note_on_c, 0, 56, 90
1, 54571, Control_c, 0, 64, 0
1, 54572, Note_on_c, 0, 62, 92
1, 54572, Note_on_c, 0, 47, 82
1, 54572, Note_on_c, 0, 59, 88
1, 54572, Note_on_c, 0, 50, 92
1, 54607, Control_c, 0, 64, 127
1, 54642, Note_on_c, 0, 59, 0
1, 54649, Note_on_c, 0, 47, 0
1, 54653, Note_on_c, 0, 56, 0
1, 54653, Note_on_c, 0, 50, 0
1, 54657, Note_on_c, 0, 62, 0
1, 54667, Note_on_c, 0, 68, 0
1, 54788, Control_c, 0, 67, 127
1, 54843, Note_on_c, 0, 69, 108
1, 54844, Note_on_c, 0, 66, 94
1, 54846, Note_on_c, 0, 57, 94
1, 54846, Note_on_c, 0, 61, 82
1, 54847, Note_on_c, 0, 49, 75
1, 54849, Note_on_c, 0, 54, 86
1, 54854, Control_c, 0, 64, 0
1, 54891, Control_c, 0, 64, 127
1, 54973, Note_on_c, 0, 61, 0
1, 54976, Note_on_c, 0, 49, 0
1, 54978, Note_on_c, 0, 57, 0
1, 54982, Note_on_c, 0, 69, 0
1, 54983, Note_on_c, 0, 54, 0
1, 54992, Note_on_c, 0, 66, 0
1, 55094, Note_on_c, 0, 69, 108
1, 55097, Note_on_c, 0, 57, 97
1, 55098, Note_on_c, 0, 66, 99
1, 55098, Note_on_c, 0, 61, 88
1, 55098, Note_on_c, 0, 49, 81
1, 55099, Note_on_c, 0, 54, 88
1, 55139, Note_on_c, 0, 57, 0
1, 55143, Note_on_c, 0, 49, 0
1, 55148, Note_on_c, 0, 54, 0
1, 55156, Note_on_c, 0, 61, 0
1, 55159, Note_on_c, 0, 66, 0
1, 55161, Note_on_c, 0, 69, 0
1, 55289, Note_on_c, 0, 73, 98
1, 55292, Note_on_c, 0, 61, 98
1, 55293, Note_on_c, 0, 66, 100
1, 55294, Note_on_c, 0, 64, 98
1, 55294, Note_on_c, 0, 52, 95
1, 55296, Note_on_c, 0, 54, 94
1, 55297, Control_c, 0, 64, 0
1, 55323, Control_c, 0, 64, 127
1, 55361, Note_on_c, 0, 54, 0
1, 55361, Note_on_c, 0, 64, 0
1, 55363, Note_on_c, 0, 52, 0
1, 55378, Note_on_c, 0, 73, 0
1, 55384, Note_on_c, 0, 66, 0
1, 55387, Note_on_c, 0, 61, 0
1, 55496, Note_on_c, 0, 71, 91
1, 55498, Note_on_c, 0, 66, 86
1, 55499, Note_on_c, 0, 59, 91
1, 55501, Note_on_c, 0, 54, 84
1, 55502, Note_on_c, 0, 62, 83
1, 55502, Note_on_c, 0, 50, 86
1, 55504, Control_c, 0, 64, 0
1, 55534, Control_c, 0, 64, 127
1, 55554, Note_on_c, 0, 62, 0
1, 55572, Note_on_c, 0, 71, 0
1, 55577, Note_on_c, 0, 54, 0
1, 55579, Note_on_c, 0, 66, 0
1, 55579, Note_on_c, 0, 59, 0
1, 55582, Note_on_c, 0, 50, 0
1, 55757, Note_on_c, 0, 55, 98
1, 55758, Note_on_c, 0, 31, 93
1, 55758, Note_on_c, 0, 43, 99
1, 55759, Control_c, 0, 64, 0
1, 55792, Control_c, 0, 64, 127
1, 55822, Note_on_c, 0, 31, 0
1, 55834, Note_on_c, 0, 43, 0
1, 55842, Note_on_c, 0, 55, 0
1, 55998, Note_on_c, 0, 69, 88
1, 55998, Note_on_c, 0, 57, 83
1, 55999, Note_on_c, 0, 61, 79
1, 56001, Note_on_c, 0, 52, 76
1, 56001, Note_on_c, 0, 64, 73
1, 56022, Note_on_c, 0, 61, 0
1, 56023, Note_on_c, 0, 52, 0
1, 56024, Note_on_c, 0, 57, 0
1, 56027, Note_on_c, 0, 64, 0
1, 56031, Note_on_c, 0, 69, 0
1, 56276, Note_on_c, 0, 56, 90
1, 56278, Note_on_c, 0, 44, 79
1, 56278, Note_on_c, 0, 32, 79
1, 56284, Control_c, 0, 64, 0
1, 56321, Control_c, 0, 64, 127
1, 56347, Note_on_c, 0, 32, 0
1, 56359, Note_on_c, 0, 44, 0
1, 56372, Note_on_c, 0, 56, 0
1, 56539, Note_on_c, 0, 56, 73
1, 56541, Note_on_c, 0, 68, 73
1, 56543, Note_on_c, 0, 51, 67
1, 56546, Note_on_c, 0, 66, 71
1, 56547, Note_on_c, 0, 60, 68
1, 56548, Note_on_c, 0, 54, 69
1, 56573, Note_on_c, 0, 60, 0
1, 56574, Note_on_c, 0, 68, 0
1, 56574, Note_on_c, 0, 54, 0
1, 56577, Note_on_c, 0, 56, 0
1, 56577, Note_on_c, 0, 66, 0
1, 56578, Note_on_c, 0, 51, 0
1, 56946, Note_on_c, 0, 49, 79
1, 56951, Note_on_c, 0, 37, 67
1, 56951, Note_on_c, 0, 25, 70
1, 56961, Control_c, 0, 64, 0
1, 56987, Control_c, 0, 64, 127
1, 57007, Note_on_c, 0, 25, 0
1, 57018, Note_on_c, 0, 37, 0
1, 57023, Note_on_c, 0, 49, 0
1, 57279, Note_on_c, 0, 73, 70
1, 57279, Note_on_c, 0, 61, 63
1, 57281, Note_on_c, 0, 69, 74
1, 57282, Note_on_c, 0, 64, 65
1, 57283, Note_on_c, 0, 52, 63
1, 57284, Note_on_c, 0, 57, 64
1, 57363, Note_on_c, 0, 64, 0
1, 57371, Note_on_c, 0, 52, 0
1, 57382, Note_on_c, 0, 57, 0
1, 57413, Note_on_c, 0, 61, 0
1, 57416, Note_on_c, 0, 73, 0
1, 57423, Note_on_c, 0, 69, 0
1, 58136, Control_c, 0, 67, 127
1, 58193, Note_on_c, 0, 49, 84
1, 58197, Note_on_c, 0, 37, 68
1, 58198, Note_on_c, 0, 25, 71
1, 58212, Control_c, 0, 64, 0
1, 58237, Control_c, 0, 64, 127
1, 58267, Note_on_c, 0, 25, 0
1, 58278, Note_on_c, 0, 37, 0
1, 58282, Note_on_c, 0, 49, 0
1, 58483, Note_on_c, 0, 73, 82
1, 58484, Note_on_c, 0, 61, 75
1, 58484, Note_on_c, 0, 68, 76
1, 58486, Note_on_c, 0, 52, 86
1, 58486, Note_on_c, 0, 64, 83
1, 58487, Note_on_c, 0, 58, 77
1, 58509, Note_on_c, 0, 52, 0
1, 58512, Note_on_c, 0, 64, 0
1, 58514, Note_on_c, 0, 58, 0
1, 58529, Note_on_c, 0, 73, 0
1, 58529, Note_on_c, 0, 61, 0
1, 58534, Note_on_c, 0, 68, 0
1, 59352, Control_c, 0, 67, 0
1, 59443, Note_on_c, 0, 49, 85
1, 59443, Note_on_c, 0, 25, 76
1, 59444, Note_on_c, 0, 37, 72
1, 59461, Control_c, 0, 64, 0
1, 59487, Control_c, 0, 64, 127
1, 59536, Note_on_c, 0, 25, 0
1, 59548, Note_on_c, 0, 37, 0
1, 59558, Note_on_c, 0, 49, 0
1, 59744, Note_on_c, 0, 73, 92
1, 59746, Note_on_c, 0, 61, 92
1, 59747, Note_on_c, 0, 52, 85
1, 59747, Note_on_c, 0, 64, 86
1, 59748, Note_on_c, 0, 69, 95
1, 59749, Note_on_c, 0, 55, 89
1, 59783, Note_on_c, 0, 64, 0
1, 59783, Note_on_c, 0, 52, 0
1, 59788, Note_on_c, 0, 55, 0
1, 59844, Note_on_c, 0, 61, 0
1, 59847, Note_on_c, 0, 73, 0
1, 59861, Note_on_c, 0, 69, 0
1, 60636, Control_c, 0, 67, 127
1, 60771, Note_on_c, 0, 49, 73
1, 60774, Note_on_c, 0, 37, 57
1, 60776, Note_on_c, 0, 25, 55
1, 60784, Control_c, 0, 64, 0
1, 60817, Control_c, 0, 64, 127
1, 60846, Note_on_c, 0, 25, 0
1, 60859, Note_on_c, 0, 37, 0
1, 60866, Note_on_c, 0, 49, 0
1, 61088, Note_on_c, 0, 61, 64
1, 61088, Note_on_c, 0, 73, 66
1, 61089, Note_on_c, 0, 66, 71
1, 61091, Note_on_c, 0, 64, 64
1, 61091, Note_on_c, 0, 70, 67
1, 61093, Note_on_c, 0, 52, 61
1, 61094, Note_on_c, 0, 54, 66
1, 61096, Note_on_c, 0, 58, 63
1, 61576, Note_on_c, 0, 64, 0
1, 61589, Note_on_c, 0, 52, 0
1, 61596, Note_on_c, 0, 58, 0
1, 61603, Note_on_c, 0, 73, 0
1, 61604, Note_on_c, 0, 61, 0
1, 61608, Note_on_c, 0, 66, 0
1, 61612, Note_on_c, 0, 70, 0
1, 61616, Note_on_c, 0, 54, 0
1, 62178, Note_on_c, 0, 49, 60
1, 62182, Note_on_c, 0, 37, 50
1, 62184, Note_on_c, 0, 25, 48
1, 62194, Control_c, 0, 64, 0
1, 62224, Control_c, 0, 64, 127
1, 62253, Note_on_c, 0, 25, 0
1, 62267, Note_on_c, 0, 37, 0
1, 62272, Note_on_c, 0, 49, 0
1, 62527, Note_on_c, 0, 73, 57
1, 62531, Note_on_c, 0, 63, 41
1, 62532, Note_on_c, 0, 61, 45
1, 62532, Note_on_c, 0, 66, 50
1, 62532, Note_on_c, 0, 51, 44
1, 62533, Note_on_c, 0, 69, 57
1, 62534, Note_on_c, 0, 54, 52
1, 62536, Note_on_c, 0, 57, 55
1, 63006, Note_on_c, 0, 73, 0
1, 63011, Note_on_c, 0, 66, 0
1, 63011, Note_on_c, 0, 63, 0
1, 63011, Note_on_c, 0, 61, 0
1, 63012, Note_on_c, 0, 51, 0
1, 63013, Note_on_c, 0, 69, 0
1, 63014, Note_on_c, 0, 54, 0
1, 63016, Note_on_c, 0, 57, 0
1, 63639, Note_on_c, 0, 49, 56
1, 63644, Note_on_c, 0, 37, 45
1, 63646, Note_on_c, 0, 25, 45
1, 63668, Control_c, 0, 64, 0
1, 63701, Control_c, 0, 64, 127
1, 63787, Note_on_c, 0, 25, 0
1, 63802, Note_on_c, 0, 37, 0
1, 63804, Note_on_c, 0, 49, 0
1, 64337, Note_on_c, 0, 73, 53
1, 64338, Note_on_c, 0, 64, 51
1, 64339, Note_on_c, 0, 68, 52
1, 64342, Note_on_c, 0, 56, 40
1, 64342, Note_on_c, 0, 61, 40
1, 64346, Note_on_c, 0, 44, 37
1, 64347, Note_on_c, 0, 49, 41
1, 64347, Note_on_c, 0, 52, 45
1, 64616, Note_on_c, 0, 44, 0
1, 64618, Note_on_c, 0, 52, 0
1, 64628, Note_on_c, 0, 49, 0
1, 64631, Note_on_c, 0, 56, 0
1, 64632, Note_on_c, 0, 61, 0
1, 64643, Note_on_c, 0, 64, 0
1, 64648, Note_on_c, 0, 68, 0
1, 64663, Note_on_c, 0, 73, 0
1, 64978, Note_on_c, 0, 68, 42
1, 64979, Note_on_c, 0, 73, 43
1, 64979, Note_on_c, 0, 80, 50
1, 64982, Note_on_c, 0, 61, 38
1, 64982, Note_on_c, 0, 64, 42
1, 64983, Note_on_c, 0, 76, 58
1, 64983, Note_on_c, 0, 56, 44
1, 64983, Note_on_c, 0, 52, 49
1, 65013, Note_on_c, 0, 56, 0
1, 65013, Note_on_c, 0, 76, 0
1, 65016, Note_on_c, 0, 68, 0
1, 65016, Note_on_c, 0, 73, 0
1, 65018, Note_on_c, 0, 52, 0
1, 65021, Note_on_c, 0, 80, 0
1, 65022, Note_on_c, 0, 64, 0
1, 65024, Note_on_c, 0, 61, 0
1, 65169, Note_on_c, 0, 80, 54
1, 65172, Note_on_c, 0, 73, 49
1, 65173, Note_on_c, 0, 68, 44
1, 65174, Note_on_c, 0, 64, 42
1, 65176, Note_on_c, 0, 61, 44
1, 65176, Note_on_c, 0, 52, 44
1, 65176, Note_on_c, 0, 76, 53
1, 65179, Note_on_c, 0, 56, 48
1, 65529, Note_on_c, 0, 80, 0
1, 65532, Note_on_c, 0, 73, 0
1, 65532, Note_on_c, 0, 68, 0
1, 65534, Note_on_c, 0, 64, 0
1, 65534, Note_on_c, 0, 61, 0
1, 65536, Note_on_c, 0, 52, 0
1, 65536, Note_on_c, 0, 76, 0
1, 65539, Note_on_c, 0, 56, 0
1, 67836, Note_on_c, 0, 113, 1
1, 67956, Note_on_c, 0, 113, 0
1, 67956, End_track
0, 0, End_of_file
