0, 0, Header, 0, 1, 240
1, 0, Start_track
1, 0, Title_t, "untitled"
1, 0, Time_signature, 4, 2, 24, 8
1, 0, Key_signature, 0, "major"
1, 0, Tempo, 500000
1, 0, Program_c, 0, 0
1, 0, Control_c, 0, 7, 105
1, 1449, Control_c, 0, 67, 24
1, 1459, Control_c, 0, 67, 40
1, 1477, Control_c, 0, 67, 56
1, 1492, Control_c, 0, 67, 72
1, 1495, Control_c, 0, 64, 24
1, 1498, Control_c, 0, 67, 88
1, 1500, Control_c, 0, 64, 40
1, 1506, Control_c, 0, 64, 72
1, 1513, Control_c, 0, 64, 88
1, 1516, Control_c, 0, 67, 104
1, 1519, Control_c, 0, 64, 104
1, 1525, Control_c, 0, 64, 127
1, 1529, Control_c, 0, 67, 127
1, 1887, Note_on_c, 0, 62, 55
1, 2098, Note_on_c, 0, 67, 41
1, 2239, Note_on_c, 0, 67, 0
1, 2239, Note_on_c, 0, 71, 49
1, 2344, Note_on_c, 0, 71, 0
1, 2355, Note_on_c, 0, 67, 48
1, 2358, Note_on_c, 0, 62, 0
1, 2480, Note_on_c, 0, 59, 61
1, 2498, Note_on_c, 0, 67, 0
1, 2649, Note_on_c, 0, 64, 69
1, 2910, Note_on_c, 0, 67, 40
1, 3012, Note_on_c, 0, 64, 0
1, 3043, Note_on_c, 0, 71, 48
1, 3046, Note_on_c, 0, 67, 0
1, 3151, Note_on_c, 0, 67, 51
1, 3154, Note_on_c, 0, 71, 0
1, 3164, Note_on_c, 0, 59, 0
1, 3258, Note_on_c, 0, 67, 0
1, 3259, Note_on_c, 0, 59, 63
1, 3367, Note_on_c, 0, 62, 66
1, 3477, Note_on_c, 0, 67, 53
1, 3567, Note_on_c, 0, 62, 0
1, 3568, Note_on_c, 0, 67, 0
1, 3577, Note_on_c, 0, 71, 58
1, 3654, Note_on_c, 0, 59, 0
1, 3667, Note_on_c, 0, 67, 54
1, 3678, Note_on_c, 0, 71, 0
1, 3733, Note_on_c, 0, 67, 0
1, 3749, Note_on_c, 0, 59, 65
1, 3838, Note_on_c, 0, 64, 74
1, 3933, Note_on_c, 0, 67, 57
1, 3961, Note_on_c, 0, 64, 0
1, 4013, Note_on_c, 0, 67, 0
1, 4025, Note_on_c, 0, 71, 46
1, 4082, Note_on_c, 0, 59, 0
1, 4101, Note_on_c, 0, 67, 51
1, 4105, Note_on_c, 0, 71, 0
1, 4151, Note_on_c, 0, 67, 0
1, 4177, Note_on_c, 0, 59, 65
1, 4259, Note_on_c, 0, 62, 69
1, 4352, Note_on_c, 0, 67, 57
1, 4424, Note_on_c, 0, 67, 0
1, 4432, Note_on_c, 0, 62, 0
1, 4438, Note_on_c, 0, 71, 57
1, 4471, Note_on_c, 0, 59, 0
1, 4512, Note_on_c, 0, 67, 57
1, 4519, Note_on_c, 0, 71, 0
1, 4568, Note_on_c, 0, 67, 0
1, 4587, Note_on_c, 0, 59, 71
1, 4677, Note_on_c, 0, 64, 80
1, 4779, Note_on_c, 0, 67, 59
1, 4803, Note_on_c, 0, 64, 0
1, 4861, Note_on_c, 0, 67, 0
1, 4872, Note_on_c, 0, 71, 43
1, 4934, Note_on_c, 0, 59, 0
1, 4939, Note_on_c, 0, 71, 0
1, 4951, Note_on_c, 0, 67, 50
1, 5014, Note_on_c, 0, 67, 0
1, 5041, Note_on_c, 0, 59, 70
1, 5144, Note_on_c, 0, 62, 69
1, 5248, Note_on_c, 0, 67, 58
1, 5327, Note_on_c, 0, 67, 0
1, 5342, Note_on_c, 0, 71, 48
1, 5368, Note_on_c, 0, 62, 0
1, 5389, Note_on_c, 0, 59, 0
1, 5426, Note_on_c, 0, 67, 46
1, 5459, Note_on_c, 0, 71, 0
1, 5488, Note_on_c, 0, 78, 74
1, 5531, Note_on_c, 0, 67, 0
1, 5566, Note_on_c, 0, 59, 57
1, 5699, Note_on_c, 0, 64, 59
1, 5754, Note_on_c, 0, 76, 74
1, 5755, Note_on_c, 0, 78, 0
1, 5881, Note_on_c, 0, 67, 46
1, 5943, Note_on_c, 0, 64, 0
1, 5985, Note_on_c, 0, 67, 0
1, 6000, Note_on_c, 0, 71, 51
1, 6059, Note_on_c, 0, 59, 0
1, 6085, Note_on_c, 0, 67, 49
1, 6090, Note_on_c, 0, 71, 0
1, 6139, Note_on_c, 0, 76, 0
1, 6147, Note_on_c, 0, 74, 71
1, 6166, Note_on_c, 0, 67, 0
1, 6225, Note_on_c, 0, 59, 52
1, 6371, Note_on_c, 0, 62, 55
1, 6388, Note_on_c, 0, 79, 73
1, 6395, Note_on_c, 0, 74, 0
1, 6527, Note_on_c, 0, 67, 47
1, 6609, Note_on_c, 0, 67, 0
1, 6615, Note_on_c, 0, 71, 51
1, 6623, Note_on_c, 0, 59, 0
1, 6645, Note_on_c, 0, 79, 0
1, 6657, Note_on_c, 0, 62, 0
1, 6693, Note_on_c, 0, 71, 0
1, 6700, Note_on_c, 0, 67, 37
1, 6730, Note_on_c, 0, 67, 0
1, 6748, Note_on_c, 0, 79, 72
1, 6752, Note_on_c, 0, 59, 59
1, 6793, Note_on_c, 0, 79, 0
1, 6869, Note_on_c, 0, 64, 66
1, 6930, Note_on_c, 0, 79, 73
1, 7021, Note_on_c, 0, 67, 48
1, 7087, Note_on_c, 0, 64, 0
1, 7104, Note_on_c, 0, 67, 0
1, 7113, Note_on_c, 0, 71, 55
1, 7163, Note_on_c, 0, 59, 0
1, 7183, Note_on_c, 0, 67, 46
1, 7186, Note_on_c, 0, 71, 0
1, 7241, Note_on_c, 0, 67, 0
1, 7255, Note_on_c, 0, 59, 66
1, 7350, Note_on_c, 0, 62, 70
1, 7454, Note_on_c, 0, 67, 57
1, 7537, Note_on_c, 0, 67, 0
1, 7545, Note_on_c, 0, 71, 49
1, 7558, Note_on_c, 0, 62, 0
1, 7601, Note_on_c, 0, 59, 0
1, 7625, Note_on_c, 0, 67, 49
1, 7674, Note_on_c, 0, 71, 0
1, 7688, Note_on_c, 0, 67, 0
1, 7705, Note_on_c, 0, 59, 70
1, 7811, Note_on_c, 0, 64, 65
1, 7920, Note_on_c, 0, 67, 51
1, 8006, Note_on_c, 0, 67, 0
1, 8013, Note_on_c, 0, 64, 0
1, 8022, Note_on_c, 0, 71, 54
1, 8081, Note_on_c, 0, 59, 0
1, 8104, Note_on_c, 0, 67, 47
1, 8107, Note_on_c, 0, 71, 0
1, 8171, Note_on_c, 0, 81, 76
1, 8172, Note_on_c, 0, 79, 0
1, 8213, Note_on_c, 0, 67, 0
1, 8237, Note_on_c, 0, 59, 61
1, 8364, Note_on_c, 0, 62, 59
1, 8376, Note_on_c, 0, 81, 0
1, 8380, Note_on_c, 0, 83, 75
1, 8513, Note_on_c, 0, 67, 57
1, 8599, Note_on_c, 0, 62, 0
1, 8604, Note_on_c, 0, 71, 50
1, 8618, Note_on_c, 0, 67, 0
1, 8619, Note_on_c, 0, 59, 0
1, 8706, Note_on_c, 0, 84, 80
1, 8718, Note_on_c, 0, 83, 0
1, 8722, Note_on_c, 0, 71, 0
1, 8767, Note_on_c, 0, 59, 67
1, 8870, Note_on_c, 0, 64, 68
1, 8888, Note_on_c, 0, 84, 0
1, 8896, Note_on_c, 0, 86, 72
1, 9003, Note_on_c, 0, 67, 51
1, 9080, Note_on_c, 0, 64, 0
1, 9084, Note_on_c, 0, 67, 0
1, 9096, Note_on_c, 0, 71, 43
1, 9176, Note_on_c, 0, 59, 0
1, 9182, Note_on_c, 0, 67, 46
1, 9204, Note_on_c, 0, 71, 0
1, 9250, Note_on_c, 0, 67, 0
1, 9264, Note_on_c, 0, 59, 63
1, 9362, Note_on_c, 0, 62, 64
1, 9477, Note_on_c, 0, 67, 57
1, 9505, Note_on_c, 0, 86, 0
1, 9564, Note_on_c, 0, 71, 52
1, 9575, Note_on_c, 0, 62, 0
1, 9584, Note_on_c, 0, 67, 0
1, 9630, Note_on_c, 0, 88, 72
1, 9669, Note_on_c, 0, 59, 0
1, 9690, Note_on_c, 0, 67, 50
1, 9744, Note_on_c, 0, 71, 0
1, 9762, Note_on_c, 0, 67, 0
1, 9777, Note_on_c, 0, 59, 67
1, 9905, Note_on_c, 0, 64, 64
1, 9971, Control_c, 0, 67, 24
1, 9992, Control_c, 0, 67, 40
1, 10024, Control_c, 0, 67, 56
1, 10026, Note_on_c, 0, 67, 49
1, 10037, Control_c, 0, 67, 72
1, 10066, Control_c, 0, 67, 88
1, 10077, Control_c, 0, 67, 104
1, 10080, Control_c, 0, 67, 127
1, 10090, Note_on_c, 0, 64, 0
1, 10124, Note_on_c, 0, 67, 0
1, 10142, Note_on_c, 0, 71, 49
1, 10219, Note_on_c, 0, 59, 0
1, 10235, Note_on_c, 0, 67, 47
1, 10258, Note_on_c, 0, 71, 0
1, 10380, Note_on_c, 0, 86, 62
1, 10381, Note_on_c, 0, 88, 0
1, 10388, Note_on_c, 0, 59, 48
1, 10391, Note_on_c, 0, 67, 0
1, 10412, Note_on_c, 0, 59, 0
1, 10449, Note_on_c, 0, 86, 0
1, 10560, Control_c, 0, 67, 127
1, 10606, Note_on_c, 0, 43, 51
1, 10655, Note_on_c, 0, 50, 46
1, 10696, Note_on_c, 0, 86, 57
1, 10722, Note_on_c, 0, 59, 55
1, 10776, Note_on_c, 0, 59, 0
1, 10838, Note_on_c, 0, 50, 0
1, 10840, Note_on_c, 0, 43, 0
1, 10865, Note_on_c, 0, 62, 41
1, 11041, Note_on_c, 0, 67, 51
1, 11069, Note_on_c, 0, 62, 0
1, 11145, Note_on_c, 0, 67, 0
1, 11160, Note_on_c, 0, 71, 57
1, 11237, Note_on_c, 0, 71, 0
1, 11281, Note_on_c, 0, 67, 40
1, 11305, Note_on_c, 0, 86, 0
1, 11398, Note_on_c, 0, 59, 55
1, 11493, Note_on_c, 0, 67, 0
1, 11507, Note_on_c, 0, 64, 68
1, 11560, Note_on_c, 0, 83, 56
1, 11628, Note_on_c, 0, 67, 50
1, 11732, Note_on_c, 0, 71, 53
1, 11739, Note_on_c, 0, 67, 0
1, 11756, Note_on_c, 0, 64, 0
1, 11810, Note_on_c, 0, 59, 0
1, 11819, Note_on_c, 0, 67, 49
1, 11821, Note_on_c, 0, 71, 0
1, 11927, Note_on_c, 0, 67, 0
1, 11928, Note_on_c, 0, 59, 71
1, 12029, Note_on_c, 0, 62, 65
1, 12139, Note_on_c, 0, 67, 55
1, 12228, Note_on_c, 0, 67, 0
1, 12238, Note_on_c, 0, 71, 50
1, 12312, Note_on_c, 0, 62, 0
1, 12312, Note_on_c, 0, 59, 0
1, 12324, Note_on_c, 0, 67, 39
1, 12338, Note_on_c, 0, 71, 0
1, 12408, Note_on_c, 0, 67, 0
1, 12426, Note_on_c, 0, 59, 57
1, 12530, Note_on_c, 0, 64, 69
1, 12649, Note_on_c, 0, 67, 48
1, 12738, Note_on_c, 0, 64, 0
1, 12739, Note_on_c, 0, 67, 0
1, 12751, Note_on_c, 0, 71, 40
1, 12846, Note_on_c, 0, 59, 0
1, 12851, Note_on_c, 0, 67, 39
1, 12855, Note_on_c, 0, 71, 0
1, 12867, Note_on_c, 0, 83, 0
1, 12954, Note_on_c, 0, 67, 0
1, 12955, Note_on_c, 0, 64, 25
1, 12960, Note_on_c, 0, 81, 73
1, 13037, Note_on_c, 0, 64, 0
1, 13051, Note_on_c, 0, 59, 48
1, 13195, Note_on_c, 0, 62, 48
1, 13230, Note_on_c, 0, 83, 64
1, 13232, Note_on_c, 0, 81, 0
1, 13240, Control_c, 0, 64, 104
1, 13246, Control_c, 0, 64, 88
1, 13251, Control_c, 0, 64, 72
1, 13268, Control_c, 0, 64, 88
1, 13273, Control_c, 0, 64, 104
1, 13279, Control_c, 0, 64, 127
1, 13358, Note_on_c, 0, 67, 43
1, 13451, Note_on_c, 0, 67, 0
1, 13467, Note_on_c, 0, 71, 46
1, 13504, Note_on_c, 0, 59, 0
1, 13504, Note_on_c, 0, 62, 0
1, 13542, Note_on_c, 0, 67, 41
1, 13545, Note_on_c, 0, 71, 0
1, 13584, Note_on_c, 0, 83, 0
1, 13587, Note_on_c, 0, 84, 66
1, 13646, Note_on_c, 0, 67, 0
1, 13647, Control_c, 0, 67, 24
1, 13651, Control_c, 0, 67, 40
1, 13661, Note_on_c, 0, 59, 47
1, 13668, Control_c, 0, 67, 56
1, 13671, Control_c, 0, 67, 72
1, 13675, Control_c, 0, 67, 88
1, 13682, Control_c, 0, 67, 104
1, 13697, Control_c, 0, 67, 127
1, 13794, Note_on_c, 0, 64, 50
1, 13827, Note_on_c, 0, 83, 67
1, 13831, Note_on_c, 0, 84, 0
1, 13838, Control_c, 0, 64, 104
1, 13844, Control_c, 0, 64, 72
1, 13850, Control_c, 0, 64, 24
1, 13856, Control_c, 0, 64, 0
1, 13869, Control_c, 0, 64, 24
1, 13874, Control_c, 0, 64, 56
1, 13880, Control_c, 0, 64, 88
1, 13886, Control_c, 0, 64, 127
1, 13946, Note_on_c, 0, 67, 46
1, 14026, Note_on_c, 0, 64, 0
1, 14030, Note_on_c, 0, 67, 0
1, 14036, Note_on_c, 0, 71, 48
1, 14112, Note_on_c, 0, 59, 0
1, 14117, Note_on_c, 0, 67, 45
1, 14124, Note_on_c, 0, 71, 0
1, 14192, Note_on_c, 0, 67, 0
1, 14202, Note_on_c, 0, 59, 56
1, 14305, Note_on_c, 0, 62, 57
1, 14416, Note_on_c, 0, 67, 43
1, 14486, Note_on_c, 0, 67, 0
1, 14506, Note_on_c, 0, 71, 39
1, 14521, Note_on_c, 0, 59, 0
1, 14583, Note_on_c, 0, 62, 0
1, 14587, Note_on_c, 0, 71, 0
1, 14588, Note_on_c, 0, 67, 37
1, 14678, Note_on_c, 0, 67, 0
1, 14696, Note_on_c, 0, 59, 52
1, 14780, Note_on_c, 0, 83, 0
1, 14815, Note_on_c, 0, 64, 60
1, 14937, Note_on_c, 0, 67, 45
1, 15050, Control_c, 0, 64, 24
1, 15055, Control_c, 0, 64, 40
1, 15063, Control_c, 0, 64, 56
1, 15068, Control_c, 0, 64, 72
1, 15071, Note_on_c, 0, 74, 50
1, 15073, Control_c, 0, 64, 88
1, 15088, Control_c, 0, 64, 104
1, 15093, Note_on_c, 0, 67, 0
1, 15098, Note_on_c, 0, 71, 45
1, 15101, Note_on_c, 0, 64, 0
1, 15106, Control_c, 0, 64, 127
1, 15161, Note_on_c, 0, 59, 0
1, 15167, Note_on_c, 0, 83, 49
1, 15170, Note_on_c, 0, 74, 0
1, 15221, Note_on_c, 0, 83, 0
1, 15228, Note_on_c, 0, 79, 56
1, 15243, Note_on_c, 0, 67, 42
1, 15289, Note_on_c, 0, 79, 0
1, 15305, Note_on_c, 0, 78, 62
1, 15345, Note_on_c, 0, 78, 0
1, 15346, Note_on_c, 0, 67, 0
1, 15350, Note_on_c, 0, 79, 67
1, 15350, Note_on_c, 0, 59, 36
1, 15357, Note_on_c, 0, 71, 0
1, 15395, Note_on_c, 0, 59, 0
1, 15399, Control_c, 0, 64, 104
1, 15404, Note_on_c, 0, 79, 0
1, 15404, Control_c, 0, 64, 40
1, 15408, Control_c, 0, 64, 0
1, 15412, Note_on_c, 0, 78, 66
1, 15449, Note_on_c, 0, 66, 56
1, 15449, Control_c, 0, 64, 24
1, 15453, Control_c, 0, 64, 56
1, 15456, Note_on_c, 0, 62, 43
1, 15458, Control_c, 0, 64, 88
1, 15462, Control_c, 0, 64, 127
1, 15479, Note_on_c, 0, 78, 0
1, 15569, Note_on_c, 0, 66, 0
1, 15575, Note_on_c, 0, 71, 59
1, 15576, Note_on_c, 0, 62, 0
1, 15603, Note_on_c, 0, 72, 56
1, 15652, Note_on_c, 0, 71, 0
1, 15670, Note_on_c, 0, 72, 0
1, 15672, Note_on_c, 0, 83, 56
1, 15673, Note_on_c, 0, 64, 54
1, 15677, Note_on_c, 0, 60, 45
1, 15720, Note_on_c, 0, 78, 67
1, 15724, Note_on_c, 0, 83, 0
1, 15770, Note_on_c, 0, 55, 53
1, 15780, Note_on_c, 0, 78, 0
1, 15786, Note_on_c, 0, 76, 58
1, 15793, Note_on_c, 0, 64, 0
1, 15797, Note_on_c, 0, 60, 0
1, 15807, Note_on_c, 0, 76, 0
1, 15818, Note_on_c, 0, 78, 71
1, 15845, Control_c, 0, 64, 88
1, 15851, Control_c, 0, 64, 0
1, 15871, Note_on_c, 0, 76, 77
1, 15875, Note_on_c, 0, 64, 64
1, 15876, Note_on_c, 0, 78, 0
1, 15877, Note_on_c, 0, 60, 52
1, 15890, Note_on_c, 0, 55, 0
1, 15892, Control_c, 0, 64, 24
1, 15898, Control_c, 0, 64, 56
1, 15903, Control_c, 0, 64, 104
1, 15908, Control_c, 0, 64, 127
1, 15913, Note_on_c, 0, 76, 0
1, 15983, Note_on_c, 0, 71, 60
1, 15995, Note_on_c, 0, 64, 0
1, 15997, Note_on_c, 0, 60, 0
1, 16043, Note_on_c, 0, 71, 60
1, 16079, Note_on_c, 0, 71, 0
1, 16083, Note_on_c, 0, 71, 0
1, 16092, Note_on_c, 0, 83, 50
1, 16097, Note_on_c, 0, 62, 54
1, 16097, Note_on_c, 0, 59, 49
1, 16132, Note_on_c, 0, 83, 0
1, 16134, Note_on_c, 0, 76, 71
1, 16178, Note_on_c, 0, 76, 0
1, 16190, Note_on_c, 0, 74, 64
1, 16192, Note_on_c, 0, 54, 51
1, 16209, Note_on_c, 0, 74, 0
1, 16217, Note_on_c, 0, 62, 0
1, 16217, Note_on_c, 0, 59, 0
1, 16219, Note_on_c, 0, 76, 65
1, 16247, Control_c, 0, 64, 88
1, 16253, Control_c, 0, 64, 0
1, 16269, Note_on_c, 0, 76, 0
1, 16270, Note_on_c, 0, 74, 79
1, 16281, Note_on_c, 0, 62, 61
1, 16283, Note_on_c, 0, 59, 51
1, 16295, Control_c, 0, 64, 24
1, 16301, Control_c, 0, 64, 72
1, 16307, Control_c, 0, 64, 127
1, 16309, Note_on_c, 0, 74, 0
1, 16312, Note_on_c, 0, 54, 0
1, 16376, Note_on_c, 0, 71, 57
1, 16401, Note_on_c, 0, 62, 0
1, 16403, Note_on_c, 0, 59, 0
1, 16420, Note_on_c, 0, 72, 62
1, 16473, Note_on_c, 0, 72, 0
1, 16473, Note_on_c, 0, 71, 0
1, 16476, Note_on_c, 0, 64, 60
1, 16476, Note_on_c, 0, 83, 70
1, 16477, Note_on_c, 0, 60, 45
1, 16514, Note_on_c, 0, 78, 63
1, 16527, Note_on_c, 0, 83, 0
1, 16555, Note_on_c, 0, 78, 0
1, 16556, Note_on_c, 0, 76, 70
1, 16565, Note_on_c, 0, 55, 61
1, 16589, Note_on_c, 0, 76, 0
1, 16592, Note_on_c, 0, 78, 68
1, 16596, Note_on_c, 0, 64, 0
1, 16597, Note_on_c, 0, 60, 0
1, 16623, Control_c, 0, 64, 88
1, 16628, Note_on_c, 0, 76, 79
1, 16631, Control_c, 0, 64, 0
1, 16633, Note_on_c, 0, 78, 0
1, 16648, Note_on_c, 0, 64, 63
1, 16649, Note_on_c, 0, 60, 50
1, 16672, Control_c, 0, 64, 24
1, 16678, Control_c, 0, 64, 88
1, 16684, Control_c, 0, 64, 127
1, 16685, Note_on_c, 0, 55, 0
1, 16703, Note_on_c, 0, 76, 0
1, 16731, Note_on_c, 0, 71, 62
1, 16768, Note_on_c, 0, 64, 0
1, 16769, Note_on_c, 0, 60, 0
1, 16774, Note_on_c, 0, 74, 73
1, 16822, Note_on_c, 0, 74, 0
1, 16830, Note_on_c, 0, 71, 0
1, 16831, Note_on_c, 0, 66, 61
1, 16832, Note_on_c, 0, 62, 48
1, 16836, Note_on_c, 0, 83, 54
1, 16866, Note_on_c, 0, 79, 63
1, 16873, Note_on_c, 0, 83, 0
1, 16907, Note_on_c, 0, 79, 0
1, 16908, Note_on_c, 0, 78, 85
1, 16919, Note_on_c, 0, 57, 60
1, 16944, Note_on_c, 0, 78, 0
1, 16949, Note_on_c, 0, 79, 75
1, 16951, Note_on_c, 0, 66, 0
1, 16952, Note_on_c, 0, 62, 0
1, 16955, Control_c, 0, 64, 104
1, 16960, Control_c, 0, 64, 0
1, 16985, Note_on_c, 0, 78, 85
1, 16989, Note_on_c, 0, 79, 0
1, 16998, Note_on_c, 0, 66, 59
1, 17002, Note_on_c, 0, 62, 55
1, 17007, Control_c, 0, 64, 24
1, 17012, Control_c, 0, 64, 88
1, 17018, Control_c, 0, 64, 127
1, 17034, Note_on_c, 0, 78, 0
1, 17039, Note_on_c, 0, 57, 0
1, 17083, Note_on_c, 0, 71, 61
1, 17118, Note_on_c, 0, 66, 0
1, 17122, Note_on_c, 0, 62, 0
1, 17138, Note_on_c, 0, 72, 51
1, 17166, Note_on_c, 0, 71, 0
1, 17179, Note_on_c, 0, 72, 0
1, 17182, Note_on_c, 0, 60, 46
1, 17182, Note_on_c, 0, 64, 60
1, 17186, Note_on_c, 0, 83, 69
1, 17225, Note_on_c, 0, 78, 66
1, 17233, Note_on_c, 0, 83, 0
1, 17262, Note_on_c, 0, 55, 56
1, 17268, Note_on_c, 0, 78, 0
1, 17272, Note_on_c, 0, 76, 72
1, 17302, Note_on_c, 0, 60, 0
1, 17302, Note_on_c, 0, 64, 0
1, 17307, Note_on_c, 0, 76, 0
1, 17308, Note_on_c, 0, 78, 72
1, 17328, Control_c, 0, 64, 72
1, 17334, Control_c, 0, 64, 0
1, 17352, Note_on_c, 0, 76, 76
1, 17358, Note_on_c, 0, 64, 64
1, 17359, Note_on_c, 0, 60, 50
1, 17362, Note_on_c, 0, 78, 0
1, 17376, Control_c, 0, 64, 24
1, 17382, Note_on_c, 0, 55, 0
1, 17383, Control_c, 0, 64, 72
1, 17388, Control_c, 0, 64, 127
1, 17400, Note_on_c, 0, 76, 0
1, 17453, Note_on_c, 0, 71, 59
1, 17478, Note_on_c, 0, 64, 0
1, 17479, Note_on_c, 0, 60, 0
1, 17497, Note_on_c, 0, 71, 70
1, 17541, Note_on_c, 0, 71, 0
1, 17543, Note_on_c, 0, 71, 0
1, 17546, Note_on_c, 0, 62, 58
1, 17550, Note_on_c, 0, 59, 38
1, 17557, Note_on_c, 0, 83, 54
1, 17592, Note_on_c, 0, 76, 70
1, 17597, Note_on_c, 0, 83, 0
1, 17633, Note_on_c, 0, 76, 0
1, 17640, Note_on_c, 0, 74, 76
1, 17645, Note_on_c, 0, 54, 60
1, 17664, Note_on_c, 0, 74, 0
1, 17666, Note_on_c, 0, 62, 0
1, 17670, Note_on_c, 0, 59, 0
1, 17671, Note_on_c, 0, 76, 79
1, 17692, Control_c, 0, 64, 88
1, 17698, Control_c, 0, 64, 0
1, 17717, Note_on_c, 0, 76, 0
1, 17718, Note_on_c, 0, 74, 84
1, 17725, Note_on_c, 0, 62, 64
1, 17727, Note_on_c, 0, 59, 57
1, 17744, Control_c, 0, 64, 24
1, 17750, Control_c, 0, 64, 72
1, 17757, Control_c, 0, 64, 127
1, 17765, Note_on_c, 0, 54, 0
1, 17766, Note_on_c, 0, 74, 0
1, 17817, Note_on_c, 0, 66, 66
1, 17845, Note_on_c, 0, 62, 0
1, 17847, Note_on_c, 0, 59, 0
1, 17916, Note_on_c, 0, 66, 0
1, 17919, Note_on_c, 0, 69, 57
1, 17919, Note_on_c, 0, 57, 49
1, 17920, Note_on_c, 0, 60, 53
1, 17960, Note_on_c, 0, 74, 71
1, 17964, Note_on_c, 0, 69, 0
1, 18004, Note_on_c, 0, 74, 0
1, 18013, Note_on_c, 0, 72, 79
1, 18017, Note_on_c, 0, 52, 54
1, 18023, Note_on_c, 0, 57, 0
1, 18037, Note_on_c, 0, 60, 0
1, 18052, Note_on_c, 0, 72, 0
1, 18056, Note_on_c, 0, 74, 73
1, 18082, Control_c, 0, 64, 88
1, 18088, Control_c, 0, 64, 0
1, 18105, Note_on_c, 0, 72, 76
1, 18108, Note_on_c, 0, 74, 0
1, 18113, Note_on_c, 0, 60, 56
1, 18120, Note_on_c, 0, 57, 43
1, 18137, Control_c, 0, 64, 24
1, 18138, Note_on_c, 0, 52, 0
1, 18143, Control_c, 0, 64, 72
1, 18149, Control_c, 0, 64, 127
1, 18154, Note_on_c, 0, 72, 0
1, 18224, Note_on_c, 0, 66, 53
1, 18226, Note_on_c, 0, 57, 0
1, 18230, Note_on_c, 0, 60, 0
1, 18252, Control_c, 0, 67, 127
1, 18288, Note_on_c, 0, 62, 72
1, 18318, Note_on_c, 0, 62, 0
1, 18339, Note_on_c, 0, 66, 0
1, 18342, Note_on_c, 0, 59, 58
1, 18345, Note_on_c, 0, 55, 37
1, 18354, Note_on_c, 0, 74, 74
1, 18357, Control_c, 0, 67, 40
1, 18370, Control_c, 0, 67, 56
1, 18373, Control_c, 0, 67, 72
1, 18377, Control_c, 0, 67, 88
1, 18384, Control_c, 0, 67, 104
1, 18388, Control_c, 0, 67, 127
1, 18411, Note_on_c, 0, 74, 0
1, 18414, Note_on_c, 0, 72, 70
1, 18477, Note_on_c, 0, 72, 0
1, 18481, Note_on_c, 0, 71, 70
1, 18494, Note_on_c, 0, 50, 50
1, 18507, Note_on_c, 0, 55, 0
1, 18528, Note_on_c, 0, 71, 0
1, 18532, Note_on_c, 0, 59, 0
1, 18548, Note_on_c, 0, 72, 70
1, 18636, Note_on_c, 0, 50, 0
1, 18645, Note_on_c, 0, 43, 49
1, 18715, Note_on_c, 0, 50, 58
1, 18732, Control_c, 0, 64, 88
1, 18738, Control_c, 0, 64, 0
1, 18769, Note_on_c, 0, 72, 0
1, 18773, Note_on_c, 0, 71, 74
1, 18804, Note_on_c, 0, 59, 53
1, 18820, Control_c, 0, 64, 127
1, 18876, Note_on_c, 0, 71, 0
1, 18924, Note_on_c, 0, 59, 0
1, 18991, Note_on_c, 0, 67, 51
1, 18996, Control_c, 0, 64, 40
1, 19000, Control_c, 0, 64, 56
1, 19004, Control_c, 0, 64, 72
1, 19005, Note_on_c, 0, 43, 0
1, 19008, Control_c, 0, 64, 88
1, 19012, Control_c, 0, 64, 104
1, 19015, Control_c, 0, 64, 127
1, 19075, Note_on_c, 0, 50, 0
1, 19114, Note_on_c, 0, 71, 60
1, 19116, Note_on_c, 0, 67, 0
1, 19200, Note_on_c, 0, 71, 0
1, 19204, Note_on_c, 0, 67, 59
1, 19292, Note_on_c, 0, 59, 66
1, 19297, Note_on_c, 0, 67, 0
1, 19374, Note_on_c, 0, 64, 70
1, 19464, Note_on_c, 0, 67, 58
1, 19536, Note_on_c, 0, 67, 0
1, 19540, Note_on_c, 0, 64, 0
1, 19550, Note_on_c, 0, 71, 56
1, 19598, Note_on_c, 0, 59, 0
1, 19624, Note_on_c, 0, 67, 62
1, 19628, Note_on_c, 0, 71, 0
1, 19683, Control_c, 0, 67, 88
1, 19690, Control_c, 0, 67, 72
1, 19696, Note_on_c, 0, 57, 80
1, 19700, Control_c, 0, 67, 56
1, 19714, Control_c, 0, 67, 40
1, 19720, Note_on_c, 0, 67, 0
1, 19736, Control_c, 0, 67, 24
1, 19743, Control_c, 0, 67, 0
1, 19777, Note_on_c, 0, 59, 62
1, 19780, Note_on_c, 0, 57, 0
1, 19922, Note_on_c, 0, 62, 57
1, 19961, Note_on_c, 0, 55, 78
1, 19969, Note_on_c, 0, 59, 0
1, 20120, Note_on_c, 0, 67, 39
1, 20192, Note_on_c, 0, 67, 0
1, 20208, Note_on_c, 0, 62, 0
1, 20214, Note_on_c, 0, 71, 53
1, 20279, Note_on_c, 0, 71, 0
1, 20294, Note_on_c, 0, 67, 51
1, 20352, Note_on_c, 0, 67, 0
1, 20375, Note_on_c, 0, 59, 46
1, 20502, Note_on_c, 0, 64, 51
1, 20538, Note_on_c, 0, 54, 79
1, 20550, Note_on_c, 0, 55, 0
1, 20666, Note_on_c, 0, 67, 40
1, 20759, Note_on_c, 0, 64, 0
1, 20777, Note_on_c, 0, 67, 0
1, 20794, Note_on_c, 0, 71, 50
1, 20804, Control_c, 0, 67, 24
1, 20811, Control_c, 0, 67, 40
1, 20822, Control_c, 0, 67, 56
1, 20826, Control_c, 0, 67, 72
1, 20830, Control_c, 0, 67, 88
1, 20833, Control_c, 0, 67, 104
1, 20841, Control_c, 0, 67, 127
1, 20887, Note_on_c, 0, 52, 77
1, 20910, Note_on_c, 0, 54, 0
1, 20973, Note_on_c, 0, 59, 0
1, 20975, Note_on_c, 0, 71, 0
1, 20983, Note_on_c, 0, 67, 41
1, 21073, Note_on_c, 0, 50, 71
1, 21074, Note_on_c, 0, 52, 0
1, 21091, Note_on_c, 0, 67, 0
1, 21119, Note_on_c, 0, 50, 0
1, 21144, Note_on_c, 0, 59, 51
1, 21299, Note_on_c, 0, 62, 54
1, 21307, Note_on_c, 0, 59, 0
1, 21331, Note_on_c, 0, 43, 51
1, 21334, Note_on_c, 0, 50, 65
1, 21344, Control_c, 0, 64, 88
1, 21349, Control_c, 0, 64, 0
1, 21401, Control_c, 0, 64, 24
1, 21407, Control_c, 0, 64, 72
1, 21413, Control_c, 0, 64, 127
1, 21470, Note_on_c, 0, 67, 44
1, 21524, Note_on_c, 0, 62, 0
1, 21539, Note_on_c, 0, 67, 0
1, 21555, Note_on_c, 0, 71, 49
1, 21624, Note_on_c, 0, 67, 52
1, 21632, Note_on_c, 0, 71, 0
1, 21681, Note_on_c, 0, 67, 0
1, 21696, Note_on_c, 0, 59, 54
1, 21776, Note_on_c, 0, 64, 64
1, 21839, Note_on_c, 0, 43, 0
1, 21859, Note_on_c, 0, 50, 0
1, 21865, Note_on_c, 0, 67, 54
1, 21868, Note_on_c, 0, 59, 0
1, 21891, Note_on_c, 0, 64, 0
1, 21921, Note_on_c, 0, 67, 0
1, 21941, Note_on_c, 0, 71, 49
1, 22008, Note_on_c, 0, 71, 0
1, 22009, Note_on_c, 0, 67, 52
1, 22063, Note_on_c, 0, 67, 0
1, 22076, Note_on_c, 0, 59, 62
1, 22157, Note_on_c, 0, 62, 60
1, 22202, Note_on_c, 0, 59, 0
1, 22245, Note_on_c, 0, 67, 51
1, 22296, Note_on_c, 0, 62, 0
1, 22298, Note_on_c, 0, 67, 0
1, 22320, Note_on_c, 0, 71, 60
1, 22391, Note_on_c, 0, 71, 0
1, 22395, Note_on_c, 0, 67, 57
1, 22455, Note_on_c, 0, 78, 72
1, 22468, Note_on_c, 0, 67, 0
1, 22508, Note_on_c, 0, 78, 0
1, 22524, Note_on_c, 0, 59, 51
1, 22635, Note_on_c, 0, 64, 54
1, 22698, Note_on_c, 0, 76, 77
1, 22793, Note_on_c, 0, 67, 53
1, 22834, Note_on_c, 0, 64, 0
1, 22835, Note_on_c, 0, 59, 0
1, 22865, Note_on_c, 0, 67, 0
1, 22886, Note_on_c, 0, 71, 50
1, 22926, Note_on_c, 0, 76, 0
1, 22952, Note_on_c, 0, 71, 0
1, 22955, Note_on_c, 0, 67, 44
1, 23040, Note_on_c, 0, 74, 72
1, 23055, Note_on_c, 0, 67, 0
1, 23112, Note_on_c, 0, 59, 54
1, 23144, Note_on_c, 0, 74, 0
1, 23234, Note_on_c, 0, 62, 56
1, 23288, Note_on_c, 0, 79, 79
1, 23363, Note_on_c, 0, 59, 0
1, 23390, Note_on_c, 0, 67, 54
1, 23464, Note_on_c, 0, 67, 0
1, 23468, Note_on_c, 0, 79, 0
1, 23482, Note_on_c, 0, 71, 54
1, 23492, Note_on_c, 0, 62, 0
1, 23550, Note_on_c, 0, 71, 0
1, 23550, Note_on_c, 0, 67, 44
1, 23617, Note_on_c, 0, 67, 0
1, 23618, Note_on_c, 0, 79, 76
1, 23663, Note_on_c, 0, 79, 0
1, 23686, Note_on_c, 0, 59, 55
1, 23799, Note_on_c, 0, 64, 60
1, 23849, Note_on_c, 0, 79, 79
1, 23934, Control_c, 0, 67, 104
1, 23938, Note_on_c, 0, 67, 39
1, 23964, Control_c, 0, 67, 88
1, 23968, Note_on_c, 0, 64, 0
1, 23985, Note_on_c, 0, 59, 0
1, 23987, Control_c, 0, 67, 72
1, 23998, Control_c, 0, 67, 56
1, 24003, Note_on_c, 0, 67, 0
1, 24009, Control_c, 0, 67, 40
1, 24022, Note_on_c, 0, 71, 52
1, 24079, Control_c, 0, 67, 24
1, 24101, Note_on_c, 0, 71, 0
1, 24108, Note_on_c, 0, 67, 46
1, 24114, Control_c, 0, 67, 0
1, 24174, Note_on_c, 0, 67, 0
1, 24210, Note_on_c, 0, 59, 59
1, 24326, Note_on_c, 0, 62, 57
1, 24388, Note_on_c, 0, 59, 0
1, 24434, Note_on_c, 0, 67, 56
1, 24485, Note_on_c, 0, 67, 0
1, 24490, Note_on_c, 0, 62, 0
1, 24514, Note_on_c, 0, 71, 49
1, 24576, Note_on_c, 0, 67, 49
1, 24590, Note_on_c, 0, 71, 0
1, 24630, Note_on_c, 0, 67, 0
1, 24649, Note_on_c, 0, 59, 58
1, 24723, Note_on_c, 0, 64, 69
1, 24806, Note_on_c, 0, 67, 57
1, 24859, Note_on_c, 0, 64, 0
1, 24864, Note_on_c, 0, 67, 0
1, 24879, Note_on_c, 0, 71, 53
1, 24919, Note_on_c, 0, 59, 0
1, 24941, Note_on_c, 0, 67, 55
1, 24960, Note_on_c, 0, 71, 0
1, 24996, Note_on_c, 0, 79, 0
1, 25003, Note_on_c, 0, 67, 0
1, 25004, Note_on_c, 0, 81, 82
1, 25014, Note_on_c, 0, 59, 36
1, 25109, Note_on_c, 0, 81, 0
1, 25115, Note_on_c, 0, 62, 57
1, 25150, Note_on_c, 0, 83, 77
1, 25224, Note_on_c, 0, 59, 0
1, 25228, Note_on_c, 0, 67, 54
1, 25275, Note_on_c, 0, 67, 0
1, 25290, Note_on_c, 0, 62, 0
1, 25294, Note_on_c, 0, 71, 54
1, 25353, Note_on_c, 0, 67, 52
1, 25361, Note_on_c, 0, 71, 0
1, 25385, Note_on_c, 0, 83, 0
1, 25392, Note_on_c, 0, 84, 82
1, 25416, Note_on_c, 0, 67, 0
1, 25437, Note_on_c, 0, 59, 63
1, 25540, Note_on_c, 0, 64, 66
1, 25591, Note_on_c, 0, 84, 0
1, 25600, Note_on_c, 0, 86, 76
1, 25665, Note_on_c, 0, 67, 47
1, 25719, Note_on_c, 0, 64, 0
1, 25727, Note_on_c, 0, 67, 0
1, 25740, Note_on_c, 0, 71, 57
1, 25748, Note_on_c, 0, 59, 0
1, 25801, Note_on_c, 0, 67, 62
1, 25820, Note_on_c, 0, 71, 0
1, 25854, Note_on_c, 0, 67, 0
1, 25869, Note_on_c, 0, 59, 71
1, 25951, Note_on_c, 0, 62, 69
1, 26038, Note_on_c, 0, 67, 63
1, 26096, Note_on_c, 0, 62, 0
1, 26113, Note_on_c, 0, 67, 0
1, 26115, Note_on_c, 0, 71, 61
1, 26149, Note_on_c, 0, 59, 0
1, 26181, Note_on_c, 0, 67, 60
1, 26207, Note_on_c, 0, 71, 0
1, 26245, Note_on_c, 0, 88, 80
1, 26249, Note_on_c, 0, 86, 0
1, 26299, Note_on_c, 0, 67, 0
1, 26314, Note_on_c, 0, 59, 69
1, 26407, Note_on_c, 0, 64, 70
1, 26468, Note_on_c, 0, 88, 0
1, 26472, Note_on_c, 0, 90, 81
1, 26563, Note_on_c, 0, 67, 53
1, 26653, Note_on_c, 0, 67, 0
1, 26655, Note_on_c, 0, 64, 0
1, 26658, Note_on_c, 0, 71, 58
1, 26678, Note_on_c, 0, 88, 78
1, 26693, Note_on_c, 0, 90, 0
1, 26731, Note_on_c, 0, 59, 0
1, 26758, Note_on_c, 0, 67, 51
1, 26777, Note_on_c, 0, 71, 0
1, 26899, Note_on_c, 0, 59, 56
1, 26906, Note_on_c, 0, 67, 0
1, 26920, Control_c, 0, 67, 24
1, 26924, Control_c, 0, 67, 40
1, 26928, Note_on_c, 0, 88, 0
1, 26935, Control_c, 0, 67, 72
1, 26939, Control_c, 0, 67, 88
1, 26942, Note_on_c, 0, 86, 70
1, 26944, Control_c, 0, 67, 127
1, 27019, Note_on_c, 0, 59, 0
1, 27056, Control_c, 0, 64, 127
1, 27062, Note_on_c, 0, 86, 0
1, 27131, Note_on_c, 0, 40, 50
1, 27179, Note_on_c, 0, 47, 57
1, 27244, Note_on_c, 0, 55, 52
1, 27251, Note_on_c, 0, 40, 0
1, 27299, Note_on_c, 0, 47, 0
1, 27364, Note_on_c, 0, 55, 0
1, 27422, Note_on_c, 0, 62, 56
1, 27444, Note_on_c, 0, 86, 66
1, 27542, Note_on_c, 0, 62, 0
1, 27564, Note_on_c, 0, 86, 0
1, 27612, Note_on_c, 0, 67, 44
1, 27674, Note_on_c, 0, 67, 0
1, 27699, Note_on_c, 0, 71, 55
1, 27762, Note_on_c, 0, 71, 0
1, 27781, Note_on_c, 0, 67, 36
1, 27855, Note_on_c, 0, 67, 0
1, 27863, Note_on_c, 0, 59, 54
1, 27975, Note_on_c, 0, 64, 50
1, 27982, Note_on_c, 0, 83, 61
1, 28082, Note_on_c, 0, 67, 39
1, 28110, Note_on_c, 0, 64, 0
1, 28115, Note_on_c, 0, 59, 0
1, 28148, Note_on_c, 0, 67, 0
1, 28159, Note_on_c, 0, 71, 49
1, 28241, Note_on_c, 0, 71, 0
1, 28241, Note_on_c, 0, 67, 49
1, 28304, Note_on_c, 0, 67, 0
1, 28309, Note_on_c, 0, 59, 57
1, 28376, Note_on_c, 0, 62, 67
1, 28455, Note_on_c, 0, 67, 56
1, 28475, Note_on_c, 0, 59, 0
1, 28515, Note_on_c, 0, 67, 0
1, 28518, Note_on_c, 0, 62, 0
1, 28528, Note_on_c, 0, 71, 55
1, 28602, Note_on_c, 0, 71, 0
1, 28609, Note_on_c, 0, 67, 40
1, 28658, Note_on_c, 0, 59, 61
1, 28661, Note_on_c, 0, 67, 0
1, 28740, Note_on_c, 0, 64, 64
1, 28755, Note_on_c, 0, 83, 0
1, 28762, Note_on_c, 0, 79, 68
1, 28844, Note_on_c, 0, 59, 0
1, 28853, Note_on_c, 0, 67, 49
1, 28886, Note_on_c, 0, 64, 0
1, 28916, Note_on_c, 0, 67, 0
1, 28931, Note_on_c, 0, 71, 57
1, 28999, Note_on_c, 0, 71, 0
1, 29013, Note_on_c, 0, 67, 50
1, 29032, Note_on_c, 0, 59, 58
1, 29052, Note_on_c, 0, 67, 0
1, 29067, Note_on_c, 0, 79, 0
1, 29085, Note_on_c, 0, 81, 82
1, 29164, Note_on_c, 0, 62, 62
1, 29187, Note_on_c, 0, 81, 0
1, 29237, Note_on_c, 0, 83, 74
1, 29285, Note_on_c, 0, 67, 52
1, 29336, Note_on_c, 0, 62, 0
1, 29355, Note_on_c, 0, 67, 0
1, 29366, Note_on_c, 0, 83, 0
1, 29369, Note_on_c, 0, 59, 0
1, 29370, Note_on_c, 0, 71, 54
1, 29396, Control_c, 0, 67, 24
1, 29428, Control_c, 0, 67, 40
1, 29429, Note_on_c, 0, 67, 45
1, 29444, Note_on_c, 0, 71, 0
1, 29454, Control_c, 0, 67, 56
1, 29465, Control_c, 0, 67, 72
1, 29470, Note_on_c, 0, 81, 59
1, 29473, Control_c, 0, 67, 88
1, 29485, Control_c, 0, 67, 104
1, 29493, Note_on_c, 0, 67, 0
1, 29493, Control_c, 0, 67, 127
1, 29510, Note_on_c, 0, 81, 0
1, 29517, Note_on_c, 0, 59, 49
1, 29524, Note_on_c, 0, 83, 54
1, 29560, Note_on_c, 0, 83, 0
1, 29574, Note_on_c, 0, 84, 57
1, 29612, Note_on_c, 0, 84, 0
1, 29613, Note_on_c, 0, 83, 82
1, 29630, Note_on_c, 0, 64, 62
1, 29669, Note_on_c, 0, 59, 0
1, 29721, Note_on_c, 0, 67, 48
1, 29724, Note_on_c, 0, 64, 0
1, 29769, Note_on_c, 0, 67, 0
1, 29789, Note_on_c, 0, 71, 50
1, 29845, Note_on_c, 0, 71, 0
1, 29849, Note_on_c, 0, 67, 47
1, 29902, Note_on_c, 0, 67, 0
1, 29909, Note_on_c, 0, 59, 60
1, 29981, Note_on_c, 0, 62, 64
1, 30059, Note_on_c, 0, 59, 0
1, 30060, Note_on_c, 0, 67, 49
1, 30093, Note_on_c, 0, 62, 0
1, 30110, Note_on_c, 0, 67, 0
1, 30125, Note_on_c, 0, 71, 53
1, 30201, Note_on_c, 0, 67, 44
1, 30210, Note_on_c, 0, 71, 0
1, 30267, Note_on_c, 0, 67, 0
1, 30277, Note_on_c, 0, 59, 57
1, 30285, Control_c, 0, 64, 24
1, 30293, Control_c, 0, 64, 40
1, 30302, Control_c, 0, 64, 56
1, 30315, Note_on_c, 0, 83, 0
1, 30321, Control_c, 0, 64, 72
1, 30329, Control_c, 0, 64, 88
1, 30343, Control_c, 0, 64, 104
1, 30364, Note_on_c, 0, 64, 53
1, 30377, Control_c, 0, 64, 127
1, 30441, Note_on_c, 0, 67, 44
1, 30493, Note_on_c, 0, 64, 0
1, 30511, Note_on_c, 0, 67, 0
1, 30520, Note_on_c, 0, 74, 53
1, 30524, Note_on_c, 0, 71, 42
1, 30571, Note_on_c, 0, 59, 0
1, 30573, Note_on_c, 0, 74, 0
1, 30582, Note_on_c, 0, 83, 56
1, 30621, Note_on_c, 0, 71, 0
1, 30631, Note_on_c, 0, 79, 53
1, 30641, Note_on_c, 0, 83, 0
1, 30679, Note_on_c, 0, 79, 0
1, 30686, Note_on_c, 0, 78, 56
1, 30688, Note_on_c, 0, 59, 44
1, 30701, Note_on_c, 0, 59, 53
1, 30720, Note_on_c, 0, 78, 0
1, 30728, Note_on_c, 0, 79, 52
1, 30769, Note_on_c, 0, 79, 0
1, 30776, Control_c, 0, 67, 104
1, 30778, Note_on_c, 0, 59, 0
1, 30781, Control_c, 0, 67, 88
1, 30787, Control_c, 0, 64, 104
1, 30790, Control_c, 0, 67, 56
1, 30790, Control_c, 0, 64, 88
1, 30791, Note_on_c, 0, 59, 0
1, 30793, Control_c, 0, 64, 56
1, 30796, Control_c, 0, 67, 40
1, 30796, Control_c, 0, 64, 24
1, 30798, Note_on_c, 0, 78, 58
1, 30799, Control_c, 0, 64, 0
1, 30805, Note_on_c, 0, 62, 49
1, 30807, Note_on_c, 0, 66, 56
1, 30809, Note_on_c, 0, 62, 42
1, 30811, Control_c, 0, 67, 24
1, 30812, Control_c, 0, 64, 24
1, 30815, Control_c, 0, 64, 40
1, 30818, Control_c, 0, 64, 56
1, 30822, Control_c, 0, 67, 0
1, 30825, Control_c, 0, 64, 72
1, 30828, Control_c, 0, 64, 88
1, 30833, Control_c, 0, 64, 104
1, 30836, Control_c, 0, 64, 127
1, 30895, Note_on_c, 0, 62, 0
1, 30897, Note_on_c, 0, 66, 0
1, 30899, Note_on_c, 0, 62, 0
1, 30915, Note_on_c, 0, 62, 36
1, 30922, Note_on_c, 0, 71, 46
1, 30955, Note_on_c, 0, 78, 0
1, 30981, Note_on_c, 0, 71, 0
1, 30981, Note_on_c, 0, 72, 49
1, 31005, Note_on_c, 0, 62, 0
1, 31031, Note_on_c, 0, 64, 58
1, 31032, Note_on_c, 0, 60, 42
1, 31044, Note_on_c, 0, 83, 53
1, 31046, Note_on_c, 0, 72, 0
1, 31082, Note_on_c, 0, 78, 52
1, 31090, Note_on_c, 0, 83, 0
1, 31120, Note_on_c, 0, 78, 0
1, 31121, Note_on_c, 0, 64, 0
1, 31122, Note_on_c, 0, 60, 0
1, 31125, Note_on_c, 0, 76, 54
1, 31132, Note_on_c, 0, 55, 53
1, 31148, Note_on_c, 0, 76, 0
1, 31154, Note_on_c, 0, 78, 56
1, 31185, Control_c, 0, 64, 104
1, 31189, Control_c, 0, 64, 72
1, 31192, Control_c, 0, 64, 24
1, 31195, Control_c, 0, 64, 0
1, 31198, Note_on_c, 0, 76, 56
1, 31203, Note_on_c, 0, 78, 0
1, 31204, Note_on_c, 0, 60, 50
1, 31214, Note_on_c, 0, 60, 54
1, 31214, Note_on_c, 0, 64, 63
1, 31222, Note_on_c, 0, 55, 0
1, 31227, Control_c, 0, 64, 24
1, 31230, Control_c, 0, 64, 56
1, 31234, Control_c, 0, 64, 72
1, 31237, Control_c, 0, 64, 88
1, 31241, Control_c, 0, 64, 127
1, 31265, Note_on_c, 0, 76, 0
1, 31294, Note_on_c, 0, 60, 0
1, 31294, Note_on_c, 0, 71, 56
1, 31304, Note_on_c, 0, 60, 0
1, 31304, Note_on_c, 0, 64, 0
1, 31325, Note_on_c, 0, 71, 0
1, 31345, Note_on_c, 0, 71, 57
1, 31374, Note_on_c, 0, 62, 51
1, 31374, Note_on_c, 0, 59, 51
1, 31378, Note_on_c, 0, 71, 0
1, 31390, Note_on_c, 0, 83, 53
1, 31423, Note_on_c, 0, 76, 59
1, 31425, Note_on_c, 0, 83, 0
1, 31457, Note_on_c, 0, 76, 0
1, 31460, Note_on_c, 0, 74, 66
1, 31464, Note_on_c, 0, 59, 0
1, 31464, Note_on_c, 0, 62, 0
1, 31474, Note_on_c, 0, 54, 54
1, 31480, Note_on_c, 0, 74, 0
1, 31486, Note_on_c, 0, 76, 57
1, 31505, Control_c, 0, 64, 104
1, 31509, Control_c, 0, 64, 40
1, 31513, Control_c, 0, 64, 0
1, 31523, Note_on_c, 0, 74, 71
1, 31525, Note_on_c, 0, 59, 65
1, 31528, Note_on_c, 0, 76, 0
1, 31542, Control_c, 0, 64, 24
1, 31545, Note_on_c, 0, 62, 54
1, 31545, Note_on_c, 0, 59, 56
1, 31545, Control_c, 0, 64, 40
1, 31550, Control_c, 0, 64, 56
1, 31554, Control_c, 0, 64, 88
1, 31558, Control_c, 0, 64, 104
1, 31562, Control_c, 0, 64, 127
1, 31564, Note_on_c, 0, 54, 0
1, 31585, Note_on_c, 0, 74, 0
1, 31615, Note_on_c, 0, 59, 0
1, 31627, Note_on_c, 0, 71, 53
1, 31635, Note_on_c, 0, 59, 0
1, 31635, Note_on_c, 0, 62, 0
1, 31652, Note_on_c, 0, 72, 57
1, 31687, Note_on_c, 0, 71, 0
1, 31695, Note_on_c, 0, 72, 0
1, 31697, Note_on_c, 0, 60, 56
1, 31698, Note_on_c, 0, 64, 60
1, 31698, Note_on_c, 0, 83, 45
1, 31726, Note_on_c, 0, 78, 63
1, 31735, Note_on_c, 0, 83, 0
1, 31764, Note_on_c, 0, 78, 0
1, 31767, Note_on_c, 0, 76, 66
1, 31771, Note_on_c, 0, 55, 59
1, 31787, Note_on_c, 0, 60, 0
1, 31788, Note_on_c, 0, 64, 0
1, 31792, Note_on_c, 0, 76, 0
1, 31794, Note_on_c, 0, 78, 61
1, 31798, Control_c, 0, 64, 104
1, 31803, Control_c, 0, 64, 40
1, 31807, Control_c, 0, 64, 0
1, 31824, Note_on_c, 0, 76, 70
1, 31826, Note_on_c, 0, 78, 0
1, 31842, Note_on_c, 0, 64, 67
1, 31844, Note_on_c, 0, 60, 48
1, 31844, Control_c, 0, 64, 40
1, 31848, Control_c, 0, 64, 72
1, 31853, Control_c, 0, 64, 88
1, 31857, Control_c, 0, 64, 127
1, 31861, Note_on_c, 0, 55, 0
1, 31917, Note_on_c, 0, 71, 61
1, 31923, Note_on_c, 0, 76, 0
1, 31932, Note_on_c, 0, 64, 0
1, 31934, Note_on_c, 0, 60, 0
1, 31954, Note_on_c, 0, 74, 69
1, 31956, Note_on_c, 0, 71, 0
1, 31992, Note_on_c, 0, 66, 54
1, 31993, Note_on_c, 0, 74, 0
1, 31996, Note_on_c, 0, 62, 48
1, 31999, Note_on_c, 0, 83, 53
1, 32024, Note_on_c, 0, 79, 59
1, 32043, Note_on_c, 0, 83, 0
1, 32057, Note_on_c, 0, 79, 0
1, 32060, Note_on_c, 0, 78, 75
1, 32061, Note_on_c, 0, 57, 60
1, 32082, Note_on_c, 0, 66, 0
1, 32086, Note_on_c, 0, 62, 0
1, 32090, Note_on_c, 0, 78, 0
1, 32091, Note_on_c, 0, 79, 67
1, 32108, Control_c, 0, 64, 88
1, 32112, Control_c, 0, 64, 24
1, 32116, Control_c, 0, 64, 0
1, 32124, Note_on_c, 0, 78, 76
1, 32126, Note_on_c, 0, 79, 0
1, 32130, Note_on_c, 0, 66, 67
1, 32132, Note_on_c, 0, 62, 53
1, 32134, Note_on_c, 0, 62, 63
1, 32148, Control_c, 0, 64, 24
1, 32151, Note_on_c, 0, 57, 0
1, 32153, Control_c, 0, 64, 56
1, 32157, Control_c, 0, 64, 88
1, 32161, Control_c, 0, 64, 127
1, 32186, Note_on_c, 0, 78, 0
1, 32212, Note_on_c, 0, 71, 50
1, 32220, Note_on_c, 0, 66, 0
1, 32222, Note_on_c, 0, 62, 0
1, 32224, Note_on_c, 0, 62, 0
1, 32231, Note_on_c, 0, 71, 0
1, 32251, Note_on_c, 0, 72, 57
1, 32289, Note_on_c, 0, 72, 0
1, 32291, Note_on_c, 0, 60, 50
1, 32293, Note_on_c, 0, 64, 61
1, 32298, Note_on_c, 0, 83, 48
1, 32326, Note_on_c, 0, 78, 68
1, 32331, Note_on_c, 0, 83, 0
1, 32361, Note_on_c, 0, 55, 57
1, 32364, Note_on_c, 0, 78, 0
1, 32366, Note_on_c, 0, 76, 61
1, 32381, Note_on_c, 0, 60, 0
1, 32383, Note_on_c, 0, 64, 0
1, 32394, Note_on_c, 0, 76, 0
1, 32394, Note_on_c, 0, 78, 68
1, 32397, Control_c, 0, 64, 56
1, 32401, Control_c, 0, 64, 0
1, 32430, Control_c, 0, 64, 24
1, 32435, Control_c, 0, 64, 56
1, 32436, Note_on_c, 0, 60, 58
1, 32437, Note_on_c, 0, 78, 0
1, 32437, Note_on_c, 0, 76, 67
1, 32438, Note_on_c, 0, 64, 65
1, 32441, Control_c, 0, 64, 88
1, 32444, Note_on_c, 0, 60, 70
1, 32447, Control_c, 0, 64, 127
1, 32451, Note_on_c, 0, 55, 0
1, 32498, Note_on_c, 0, 76, 0
1, 32518, Note_on_c, 0, 71, 43
1, 32526, Note_on_c, 0, 60, 0
1, 32528, Note_on_c, 0, 64, 0
1, 32534, Note_on_c, 0, 60, 0
1, 32544, Note_on_c, 0, 71, 0
1, 32565, Note_on_c, 0, 71, 68
1, 32596, Note_on_c, 0, 71, 0
1, 32600, Note_on_c, 0, 62, 59
1, 32603, Note_on_c, 0, 59, 50
1, 32608, Note_on_c, 0, 83, 55
1, 32638, Note_on_c, 0, 76, 60
1, 32644, Note_on_c, 0, 83, 0
1, 32668, Note_on_c, 0, 54, 61
1, 32670, Note_on_c, 0, 76, 0
1, 32670, Note_on_c, 0, 74, 71
1, 32690, Note_on_c, 0, 62, 0
1, 32693, Note_on_c, 0, 59, 0
1, 32698, Note_on_c, 0, 74, 0
1, 32699, Note_on_c, 0, 76, 66
1, 32723, Control_c, 0, 64, 72
1, 32727, Control_c, 0, 64, 0
1, 32742, Note_on_c, 0, 74, 74
1, 32744, Note_on_c, 0, 62, 59
1, 32744, Note_on_c, 0, 59, 69
1, 32746, Note_on_c, 0, 76, 0
1, 32758, Note_on_c, 0, 54, 0
1, 32765, Control_c, 0, 64, 40
1, 32769, Control_c, 0, 64, 72
1, 32774, Control_c, 0, 64, 88
1, 32778, Control_c, 0, 64, 127
1, 32812, Note_on_c, 0, 74, 0
1, 32820, Note_on_c, 0, 71, 58
1, 32834, Note_on_c, 0, 62, 0
1, 32834, Note_on_c, 0, 59, 0
1, 32847, Note_on_c, 0, 71, 0
1, 32911, Note_on_c, 0, 62, 62
1, 32913, Note_on_c, 0, 59, 51
1, 32913, Note_on_c, 0, 69, 64
1, 32920, Note_on_c, 0, 59, 71
1, 32947, Note_on_c, 0, 69, 0
1, 32957, Note_on_c, 0, 76, 65
1, 32990, Note_on_c, 0, 76, 0
1, 32991, Note_on_c, 0, 74, 65
1, 32992, Note_on_c, 0, 54, 46
1, 33001, Note_on_c, 0, 62, 0
1, 33003, Note_on_c, 0, 59, 0
1, 33010, Note_on_c, 0, 59, 0
1, 33029, Note_on_c, 0, 74, 0
1, 33037, Note_on_c, 0, 76, 78
1, 33064, Control_c, 0, 64, 88
1, 33069, Control_c, 0, 64, 24
1, 33073, Control_c, 0, 64, 0
1, 33077, Note_on_c, 0, 60, 58
1, 33078, Note_on_c, 0, 57, 37
1, 33078, Note_on_c, 0, 74, 76
1, 33080, Note_on_c, 0, 76, 0
1, 33082, Note_on_c, 0, 54, 0
1, 33086, Note_on_c, 0, 57, 64
1, 33091, Control_c, 0, 64, 24
1, 33096, Control_c, 0, 64, 40
1, 33100, Control_c, 0, 64, 56
1, 33105, Control_c, 0, 64, 72
1, 33110, Control_c, 0, 64, 104
1, 33114, Control_c, 0, 64, 127
1, 33145, Note_on_c, 0, 74, 0
1, 33167, Note_on_c, 0, 60, 0
1, 33168, Note_on_c, 0, 57, 0
1, 33168, Note_on_c, 0, 67, 45
1, 33176, Note_on_c, 0, 57, 0
1, 33250, Note_on_c, 0, 64, 68
1, 33258, Note_on_c, 0, 67, 0
1, 33258, Note_on_c, 0, 57, 59
1, 33263, Note_on_c, 0, 60, 58
1, 33268, Note_on_c, 0, 57, 44
1, 33292, Note_on_c, 0, 74, 67
1, 33332, Note_on_c, 0, 74, 0
1, 33335, Note_on_c, 0, 72, 53
1, 33339, Note_on_c, 0, 52, 56
1, 33340, Note_on_c, 0, 64, 0
1, 33348, Note_on_c, 0, 57, 0
1, 33353, Note_on_c, 0, 60, 0
1, 33358, Note_on_c, 0, 57, 0
1, 33358, Note_on_c, 0, 72, 0
1, 33368, Note_on_c, 0, 71, 24
1, 33381, Note_on_c, 0, 71, 0
1, 33399, Note_on_c, 0, 74, 73
1, 33429, Note_on_c, 0, 52, 0
1, 33438, Note_on_c, 0, 74, 0
1, 33449, Note_on_c, 0, 38, 41
1, 33452, Control_c, 0, 64, 104
1, 33456, Note_on_c, 0, 72, 74
1, 33458, Control_c, 0, 64, 0
1, 33466, Note_on_c, 0, 38, 56
1, 33483, Note_on_c, 0, 45, 57
1, 33500, Note_on_c, 0, 54, 67
1, 33510, Control_c, 0, 64, 24
1, 33515, Control_c, 0, 64, 56
1, 33519, Control_c, 0, 64, 88
1, 33524, Control_c, 0, 64, 127
1, 33539, Note_on_c, 0, 38, 0
1, 33551, Note_on_c, 0, 72, 0
1, 33656, Control_c, 0, 64, 24
1, 33658, Control_c, 0, 64, 40
1, 33661, Control_c, 0, 64, 56
1, 33665, Control_c, 0, 64, 72
1, 33668, Control_c, 0, 64, 88
1, 33671, Control_c, 0, 64, 104
1, 33676, Note_on_c, 0, 45, 0
1, 33676, Note_on_c, 0, 38, 0
1, 33676, Control_c, 0, 64, 127
1, 33678, Note_on_c, 0, 54, 0
1, 33686, Note_on_c, 0, 62, 55
1, 33696, Control_c, 0, 67, 0
1, 33761, Note_on_c, 0, 74, 70
1, 33778, Note_on_c, 0, 62, 0
1, 33798, Note_on_c, 0, 74, 0
1, 33817, Note_on_c, 0, 72, 67
1, 33837, Note_on_c, 0, 45, 67
1, 33865, Note_on_c, 0, 72, 0
1, 33868, Note_on_c, 0, 71, 81
1, 33872, Note_on_c, 0, 54, 70
1, 33899, Note_on_c, 0, 71, 0
1, 33912, Note_on_c, 0, 72, 76
1, 33922, Note_on_c, 0, 60, 51
1, 33927, Note_on_c, 0, 45, 0
1, 33962, Note_on_c, 0, 54, 0
1, 33999, Note_on_c, 0, 72, 0
1, 34000, Note_on_c, 0, 66, 96
1, 34004, Note_on_c, 0, 71, 87
1, 34012, Note_on_c, 0, 60, 0
1, 34039, Note_on_c, 0, 71, 0
1, 34090, Note_on_c, 0, 66, 0
1, 34205, Note_on_c, 0, 60, 63
1, 34268, Note_on_c, 0, 74, 64
1, 34295, Note_on_c, 0, 60, 0
1, 34306, Note_on_c, 0, 74, 0
1, 34307, Note_on_c, 0, 71, 63
1, 34355, Note_on_c, 0, 71, 0
1, 34357, Note_on_c, 0, 69, 72
1, 34393, Note_on_c, 0, 69, 0
1, 34399, Note_on_c, 0, 71, 72
1, 34440, Note_on_c, 0, 71, 0
1, 34441, Note_on_c, 0, 69, 79
1, 34483, Note_on_c, 0, 69, 0
1, 34549, Note_on_c, 0, 62, 71
1, 34600, Note_on_c, 0, 74, 82
1, 34639, Note_on_c, 0, 62, 0
1, 34640, Note_on_c, 0, 74, 0
1, 34643, Note_on_c, 0, 72, 71
1, 34680, Note_on_c, 0, 64, 94
1, 34687, Note_on_c, 0, 72, 0
1, 34690, Note_on_c, 0, 71, 80
1, 34717, Note_on_c, 0, 71, 0
1, 34730, Note_on_c, 0, 72, 76
1, 34769, Note_on_c, 0, 52, 74
1, 34770, Note_on_c, 0, 64, 0
1, 34788, Note_on_c, 0, 55, 65
1, 34802, Control_c, 0, 64, 88
1, 34807, Control_c, 0, 64, 0
1, 34816, Note_on_c, 0, 72, 0
1, 34817, Note_on_c, 0, 71, 85
1, 34827, Note_on_c, 0, 62, 92
1, 34840, Control_c, 0, 64, 24
1, 34843, Control_c, 0, 64, 72
1, 34847, Control_c, 0, 64, 127
1, 34863, Note_on_c, 0, 71, 0
1, 34879, Note_on_c, 0, 55, 0
1, 34894, Note_on_c, 0, 52, 0
1, 34917, Note_on_c, 0, 62, 0
1, 35005, Note_on_c, 0, 60, 70
1, 35063, Note_on_c, 0, 74, 70
1, 35094, Note_on_c, 0, 74, 0
1, 35095, Note_on_c, 0, 60, 0
1, 35109, Note_on_c, 0, 72, 72
1, 35142, Note_on_c, 0, 45, 70
1, 35144, Note_on_c, 0, 52, 83
1, 35150, Note_on_c, 0, 72, 0
1, 35158, Note_on_c, 0, 71, 71
1, 35192, Note_on_c, 0, 71, 0
1, 35205, Note_on_c, 0, 72, 69
1, 35232, Note_on_c, 0, 45, 0
1, 35234, Note_on_c, 0, 52, 0
1, 35240, Note_on_c, 0, 72, 0
1, 35263, Note_on_c, 0, 38, 71
1, 35289, Note_on_c, 0, 45, 62
1, 35320, Note_on_c, 0, 72, 66
1, 35324, Control_c, 0, 64, 104
1, 35328, Control_c, 0, 64, 0
1, 35329, Note_on_c, 0, 54, 89
1, 35378, Control_c, 0, 64, 24
1, 35382, Control_c, 0, 64, 72
1, 35386, Control_c, 0, 64, 127
1, 35460, Note_on_c, 0, 38, 0
1, 35474, Note_on_c, 0, 45, 0
1, 35480, Note_on_c, 0, 72, 0
1, 35507, Note_on_c, 0, 54, 0
1, 35517, Note_on_c, 0, 62, 69
1, 35528, Control_c, 0, 67, 127
1, 35558, Note_on_c, 0, 62, 0
1, 35576, Note_on_c, 0, 74, 77
1, 35609, Note_on_c, 0, 74, 0
1, 35617, Note_on_c, 0, 72, 68
1, 35656, Note_on_c, 0, 72, 0
1, 35661, Note_on_c, 0, 54, 73
1, 35662, Note_on_c, 0, 71, 69
1, 35692, Note_on_c, 0, 71, 0
1, 35696, Note_on_c, 0, 72, 77
1, 35733, Control_c, 0, 64, 104
1, 35736, Control_c, 0, 64, 24
1, 35740, Control_c, 0, 64, 0
1, 35746, Note_on_c, 0, 60, 69
1, 35748, Note_on_c, 0, 64, 90
1, 35748, Note_on_c, 0, 71, 89
1, 35751, Note_on_c, 0, 72, 0
1, 35765, Control_c, 0, 64, 40
1, 35769, Control_c, 0, 64, 104
1, 35773, Control_c, 0, 64, 127
1, 35793, Note_on_c, 0, 64, 0
1, 35794, Note_on_c, 0, 71, 0
1, 35807, Note_on_c, 0, 60, 0
1, 35896, Note_on_c, 0, 60, 68
1, 35932, Note_on_c, 0, 60, 0
1, 35958, Note_on_c, 0, 74, 61
1, 36001, Note_on_c, 0, 71, 67
1, 36003, Note_on_c, 0, 74, 0
1, 36041, Note_on_c, 0, 71, 0
1, 36052, Note_on_c, 0, 69, 69
1, 36083, Note_on_c, 0, 69, 0
1, 36087, Note_on_c, 0, 71, 76
1, 36130, Note_on_c, 0, 71, 0
1, 36134, Note_on_c, 0, 69, 68
1, 36157, Note_on_c, 0, 69, 0
1, 36211, Note_on_c, 0, 54, 0
1, 36267, Note_on_c, 0, 59, 62
1, 36307, Note_on_c, 0, 59, 0
1, 36328, Note_on_c, 0, 74, 68
1, 36363, Note_on_c, 0, 74, 0
1, 36383, Note_on_c, 0, 69, 63
1, 36419, Note_on_c, 0, 69, 0
1, 36437, Note_on_c, 0, 62, 83
1, 36442, Note_on_c, 0, 67, 59
1, 36456, Note_on_c, 0, 67, 0
1, 36490, Note_on_c, 0, 69, 65
1, 36561, Note_on_c, 0, 62, 0
1, 36571, Control_c, 0, 64, 72
1, 36573, Note_on_c, 0, 69, 0
1, 36576, Control_c, 0, 64, 0
1, 36577, Note_on_c, 0, 67, 69
1, 36579, Note_on_c, 0, 59, 83
1, 36581, Note_on_c, 0, 52, 64
1, 36604, Control_c, 0, 64, 24
1, 36608, Control_c, 0, 64, 72
1, 36613, Control_c, 0, 64, 127
1, 36631, Note_on_c, 0, 67, 0
1, 36655, Note_on_c, 0, 59, 0
1, 36674, Note_on_c, 0, 52, 0
1, 36729, Note_on_c, 0, 61, 71
1, 36769, Note_on_c, 0, 61, 0
1, 36791, Note_on_c, 0, 69, 64
1, 36826, Note_on_c, 0, 69, 0
1, 36840, Note_on_c, 0, 67, 52
1, 36887, Control_c, 0, 64, 104
1, 36889, Note_on_c, 0, 67, 0
1, 36891, Note_on_c, 0, 66, 71
1, 36892, Control_c, 0, 64, 0
1, 36893, Control_c, 0, 67, 24
1, 36894, Note_on_c, 0, 57, 68
1, 36896, Note_on_c, 0, 55, 64
1, 36897, Note_on_c, 0, 45, 58
1, 36901, Control_c, 0, 67, 40
1, 36904, Control_c, 0, 67, 56
1, 36907, Control_c, 0, 67, 72
1, 36909, Control_c, 0, 67, 88
1, 36910, Control_c, 0, 64, 24
1, 36913, Control_c, 0, 64, 40
1, 36917, Control_c, 0, 67, 127
1, 36918, Control_c, 0, 64, 72
1, 36922, Control_c, 0, 64, 127
1, 36936, Note_on_c, 0, 66, 0
1, 36952, Note_on_c, 0, 67, 69
1, 36984, Note_on_c, 0, 57, 0
1, 36986, Note_on_c, 0, 55, 0
1, 36987, Note_on_c, 0, 45, 0
1, 36988, Note_on_c, 0, 67, 0
1, 37028, Note_on_c, 0, 38, 57
1, 37060, Note_on_c, 0, 45, 58
1, 37083, Note_on_c, 0, 66, 68
1, 37092, Note_on_c, 0, 54, 63
1, 37103, Control_c, 0, 64, 72
1, 37107, Control_c, 0, 64, 0
1, 37200, Control_c, 0, 64, 127
1, 37268, Note_on_c, 0, 38, 0
1, 37300, Note_on_c, 0, 45, 0
1, 37302, Note_on_c, 0, 59, 56
1, 37323, Note_on_c, 0, 66, 0
1, 37332, Note_on_c, 0, 54, 0
1, 37351, Note_on_c, 0, 59, 0
1, 37374, Note_on_c, 0, 69, 67
1, 37409, Note_on_c, 0, 69, 0
1, 37424, Note_on_c, 0, 66, 65
1, 37466, Note_on_c, 0, 66, 0
1, 37466, Note_on_c, 0, 45, 71
1, 37471, Note_on_c, 0, 64, 79
1, 37496, Note_on_c, 0, 64, 0
1, 37502, Note_on_c, 0, 66, 63
1, 37564, Note_on_c, 0, 66, 0
1, 37566, Note_on_c, 0, 55, 87
1, 37568, Note_on_c, 0, 64, 83
1, 37571, Control_c, 0, 64, 88
1, 37574, Control_c, 0, 64, 24
1, 37577, Control_c, 0, 64, 0
1, 37672, Control_c, 0, 64, 24
1, 37674, Control_c, 0, 64, 56
1, 37678, Control_c, 0, 64, 72
1, 37681, Control_c, 0, 64, 88
1, 37684, Control_c, 0, 64, 104
1, 37687, Control_c, 0, 64, 127
1, 37705, Note_on_c, 0, 64, 0
1, 37723, Note_on_c, 0, 57, 74
1, 37766, Note_on_c, 0, 69, 74
1, 37769, Note_on_c, 0, 57, 0
1, 37802, Note_on_c, 0, 64, 77
1, 37806, Note_on_c, 0, 69, 0
1, 37844, Note_on_c, 0, 64, 0
1, 37845, Note_on_c, 0, 62, 82
1, 37876, Note_on_c, 0, 62, 0
1, 37880, Note_on_c, 0, 64, 76
1, 37883, Control_c, 0, 67, 104
1, 37890, Control_c, 0, 67, 88
1, 37897, Control_c, 0, 67, 72
1, 37905, Control_c, 0, 67, 56
1, 37910, Control_c, 0, 67, 40
1, 37920, Control_c, 0, 67, 24
1, 37921, Note_on_c, 0, 62, 83
1, 37923, Note_on_c, 0, 64, 0
1, 37924, Control_c, 0, 67, 0
1, 38017, Note_on_c, 0, 62, 0
1, 38033, Note_on_c, 0, 59, 74
1, 38079, Note_on_c, 0, 69, 69
1, 38092, Note_on_c, 0, 59, 0
1, 38115, Note_on_c, 0, 66, 74
1, 38120, Note_on_c, 0, 69, 0
1, 38133, Note_on_c, 0, 55, 0
1, 38134, Note_on_c, 0, 54, 84
1, 38159, Note_on_c, 0, 64, 79
1, 38160, Note_on_c, 0, 66, 0
1, 38189, Note_on_c, 0, 66, 67
1, 38191, Note_on_c, 0, 64, 0
1, 38221, Control_c, 0, 64, 104
1, 38223, Note_on_c, 0, 55, 88
1, 38223, Note_on_c, 0, 64, 87
1, 38226, Note_on_c, 0, 66, 0
1, 38228, Control_c, 0, 64, 0
1, 38232, Note_on_c, 0, 54, 0
1, 38277, Control_c, 0, 64, 40
1, 38281, Control_c, 0, 64, 88
1, 38285, Control_c, 0, 64, 127
1, 38318, Note_on_c, 0, 64, 0
1, 38347, Note_on_c, 0, 61, 79
1, 38355, Note_on_c, 0, 45, 0
1, 38377, Note_on_c, 0, 61, 0
1, 38395, Note_on_c, 0, 69, 69
1, 38431, Note_on_c, 0, 67, 61
1, 38432, Note_on_c, 0, 69, 0
1, 38455, Note_on_c, 0, 55, 0
1, 38458, Note_on_c, 0, 45, 60
1, 38469, Note_on_c, 0, 67, 0
1, 38470, Note_on_c, 0, 66, 76
1, 38499, Note_on_c, 0, 66, 0
1, 38500, Note_on_c, 0, 67, 70
1, 38531, Control_c, 0, 64, 104
1, 38535, Control_c, 0, 64, 0
1, 38539, Note_on_c, 0, 66, 80
1, 38543, Note_on_c, 0, 67, 0
1, 38547, Note_on_c, 0, 38, 71
1, 38548, Note_on_c, 0, 45, 0
1, 38568, Control_c, 0, 64, 24
1, 38571, Control_c, 0, 64, 88
1, 38575, Control_c, 0, 64, 127
1, 38595, Note_on_c, 0, 66, 0
1, 38637, Note_on_c, 0, 38, 0
1, 38672, Note_on_c, 0, 59, 64
1, 38706, Note_on_c, 0, 59, 0
1, 38726, Note_on_c, 0, 69, 69
1, 38767, Note_on_c, 0, 66, 59
1, 38769, Note_on_c, 0, 69, 0
1, 38804, Note_on_c, 0, 66, 0
1, 38806, Note_on_c, 0, 64, 67
1, 38808, Note_on_c, 0, 45, 59
1, 38834, Note_on_c, 0, 64, 0
1, 38838, Note_on_c, 0, 66, 65
1, 38881, Control_c, 0, 67, 40
1, 38886, Control_c, 0, 67, 56
1, 38888, Control_c, 0, 67, 88
1, 38891, Control_c, 0, 67, 104
1, 38893, Control_c, 0, 67, 127
1, 38897, Note_on_c, 0, 55, 69
1, 38898, Control_c, 0, 64, 104
1, 38901, Note_on_c, 0, 64, 78
1, 38903, Note_on_c, 0, 66, 0
1, 38904, Control_c, 0, 64, 0
1, 38939, Control_c, 0, 64, 24
1, 38943, Control_c, 0, 64, 72
1, 38947, Control_c, 0, 64, 127
1, 39029, Note_on_c, 0, 64, 0
1, 39044, Note_on_c, 0, 57, 70
1, 39079, Note_on_c, 0, 69, 54
1, 39084, Note_on_c, 0, 57, 0
1, 39117, Note_on_c, 0, 64, 74
1, 39119, Note_on_c, 0, 69, 0
1, 39159, Note_on_c, 0, 64, 0
1, 39162, Note_on_c, 0, 62, 79
1, 39192, Note_on_c, 0, 64, 76
1, 39193, Note_on_c, 0, 62, 0
1, 39220, Control_c, 0, 64, 104
1, 39224, Control_c, 0, 64, 40
1, 39228, Note_on_c, 0, 62, 79
1, 39229, Control_c, 0, 64, 0
1, 39232, Note_on_c, 0, 64, 0
1, 39265, Control_c, 0, 64, 40
1, 39269, Control_c, 0, 64, 88
1, 39273, Control_c, 0, 64, 127
1, 39346, Note_on_c, 0, 62, 0
1, 39357, Note_on_c, 0, 59, 70
1, 39395, Note_on_c, 0, 59, 0
1, 39400, Note_on_c, 0, 69, 62
1, 39435, Note_on_c, 0, 66, 63
1, 39449, Note_on_c, 0, 69, 0
1, 39477, Note_on_c, 0, 54, 77
1, 39479, Note_on_c, 0, 55, 0
1, 39484, Note_on_c, 0, 66, 0
1, 39487, Note_on_c, 0, 64, 75
1, 39516, Note_on_c, 0, 64, 0
1, 39517, Note_on_c, 0, 66, 67
1, 39579, Note_on_c, 0, 66, 0
1, 39581, Note_on_c, 0, 64, 72
1, 39584, Note_on_c, 0, 55, 80
1, 39588, Control_c, 0, 64, 104
1, 39592, Control_c, 0, 64, 0
1, 39596, Note_on_c, 0, 54, 0
1, 39637, Control_c, 0, 64, 24
1, 39641, Control_c, 0, 64, 56
1, 39645, Control_c, 0, 64, 104
1, 39649, Control_c, 0, 64, 127
1, 39663, Note_on_c, 0, 64, 0
1, 39729, Note_on_c, 0, 61, 65
1, 39759, Note_on_c, 0, 45, 0
1, 39767, Note_on_c, 0, 61, 0
1, 39778, Note_on_c, 0, 69, 61
1, 39813, Note_on_c, 0, 69, 0
1, 39821, Note_on_c, 0, 67, 51
1, 39861, Note_on_c, 0, 67, 0
1, 39863, Note_on_c, 0, 45, 61
1, 39864, Note_on_c, 0, 66, 74
1, 39871, Note_on_c, 0, 55, 0
1, 39900, Note_on_c, 0, 66, 0
1, 39905, Note_on_c, 0, 67, 68
1, 39953, Note_on_c, 0, 45, 0
1, 39965, Control_c, 0, 64, 88
1, 39969, Control_c, 0, 64, 0
1, 39972, Note_on_c, 0, 67, 0
1, 39972, Note_on_c, 0, 66, 77
1, 39977, Note_on_c, 0, 38, 63
1, 40004, Control_c, 0, 64, 40
1, 40008, Control_c, 0, 64, 88
1, 40013, Control_c, 0, 64, 127
1, 40067, Note_on_c, 0, 38, 0
1, 40123, Note_on_c, 0, 66, 0
1, 40137, Note_on_c, 0, 62, 63
1, 40170, Control_c, 0, 67, 104
1, 40184, Note_on_c, 0, 62, 0
1, 40192, Control_c, 0, 67, 88
1, 40204, Note_on_c, 0, 71, 61
1, 40212, Control_c, 0, 67, 72
1, 40238, Control_c, 0, 67, 56
1, 40242, Note_on_c, 0, 71, 0
1, 40248, Control_c, 0, 67, 40
1, 40250, Note_on_c, 0, 67, 53
1, 40264, Control_c, 0, 67, 24
1, 40271, Control_c, 0, 67, 0
1, 40285, Note_on_c, 0, 45, 63
1, 40288, Note_on_c, 0, 67, 0
1, 40293, Note_on_c, 0, 66, 69
1, 40323, Note_on_c, 0, 66, 0
1, 40327, Note_on_c, 0, 67, 61
1, 40368, Control_c, 0, 64, 104
1, 40372, Control_c, 0, 64, 24
1, 40376, Control_c, 0, 64, 0
1, 40378, Note_on_c, 0, 66, 69
1, 40382, Note_on_c, 0, 59, 70
1, 40383, Note_on_c, 0, 67, 0
1, 40384, Note_on_c, 0, 55, 66
1, 40392, Control_c, 0, 64, 24
1, 40395, Control_c, 0, 64, 56
1, 40399, Control_c, 0, 64, 104
1, 40403, Control_c, 0, 64, 127
1, 40445, Note_on_c, 0, 66, 0
1, 40451, Note_on_c, 0, 59, 0
1, 40467, Note_on_c, 0, 55, 0
1, 40483, Note_on_c, 0, 61, 68
1, 40493, Note_on_c, 0, 45, 0
1, 40525, Note_on_c, 0, 61, 0
1, 40528, Note_on_c, 0, 69, 69
1, 40563, Note_on_c, 0, 67, 74
1, 40572, Note_on_c, 0, 69, 0
1, 40600, Note_on_c, 0, 67, 0
1, 40602, Note_on_c, 0, 45, 69
1, 40604, Note_on_c, 0, 66, 83
1, 40628, Note_on_c, 0, 67, 74
1, 40630, Note_on_c, 0, 66, 0
1, 40670, Control_c, 0, 64, 104
1, 40672, Note_on_c, 0, 66, 90
1, 40674, Note_on_c, 0, 67, 0
1, 40675, Control_c, 0, 64, 0
1, 40681, Note_on_c, 0, 38, 65
1, 40709, Control_c, 0, 64, 24
1, 40713, Control_c, 0, 64, 72
1, 40717, Control_c, 0, 64, 127
1, 40734, Control_c, 0, 67, 40
1, 40736, Control_c, 0, 67, 56
1, 40739, Control_c, 0, 67, 88
1, 40740, Note_on_c, 0, 38, 0
1, 40742, Control_c, 0, 67, 127
1, 40745, Note_on_c, 0, 45, 0
1, 40776, Note_on_c, 0, 66, 0
1, 40802, Note_on_c, 0, 62, 64
1, 40835, Note_on_c, 0, 62, 0
1, 40852, Note_on_c, 0, 71, 66
1, 40885, Note_on_c, 0, 71, 0
1, 40888, Note_on_c, 0, 67, 57
1, 40928, Note_on_c, 0, 67, 0
1, 40931, Note_on_c, 0, 45, 65
1, 40933, Note_on_c, 0, 66, 70
1, 40968, Note_on_c, 0, 66, 0
1, 40975, Note_on_c, 0, 67, 60
1, 41001, Control_c, 0, 67, 24
1, 41005, Control_c, 0, 67, 40
1, 41007, Control_c, 0, 64, 88
1, 41011, Control_c, 0, 64, 0
1, 41020, Control_c, 0, 67, 56
1, 41026, Note_on_c, 0, 66, 71
1, 41028, Note_on_c, 0, 67, 0
1, 41032, Control_c, 0, 67, 88
1, 41036, Note_on_c, 0, 59, 66
1, 41037, Note_on_c, 0, 55, 55
1, 41038, Control_c, 0, 67, 104
1, 41047, Control_c, 0, 67, 127
1, 41098, Control_c, 0, 64, 24
1, 41102, Control_c, 0, 64, 72
1, 41106, Control_c, 0, 64, 104
1, 41110, Control_c, 0, 64, 127
1, 41144, Note_on_c, 0, 59, 0
1, 41144, Note_on_c, 0, 66, 0
1, 41162, Note_on_c, 0, 55, 0
1, 41172, Note_on_c, 0, 61, 66
1, 41195, Note_on_c, 0, 45, 0
1, 41214, Note_on_c, 0, 61, 0
1, 41227, Note_on_c, 0, 69, 60
1, 41268, Note_on_c, 0, 69, 0
1, 41274, Note_on_c, 0, 67, 44
1, 41314, Note_on_c, 0, 67, 0
1, 41320, Note_on_c, 0, 66, 60
1, 41358, Note_on_c, 0, 66, 0
1, 41363, Note_on_c, 0, 67, 60
1, 41365, Note_on_c, 0, 45, 61
1, 41396, Note_on_c, 0, 45, 0
1, 41461, Note_on_c, 0, 67, 0
1, 41463, Note_on_c, 0, 66, 67
1, 41472, Note_on_c, 0, 38, 60
1, 41494, Control_c, 0, 64, 104
1, 41498, Control_c, 0, 64, 40
1, 41502, Control_c, 0, 64, 0
1, 41540, Note_on_c, 0, 62, 54
1, 41568, Control_c, 0, 64, 127
1, 41628, Note_on_c, 0, 38, 0
1, 41629, Note_on_c, 0, 66, 0
1, 41646, Note_on_c, 0, 71, 74
1, 41672, Control_c, 0, 67, 104
1, 41672, Control_c, 0, 64, 24
1, 41676, Control_c, 0, 64, 40
1, 41677, Control_c, 0, 67, 88
1, 41680, Control_c, 0, 67, 72
1, 41682, Control_c, 0, 67, 56
1, 41683, Control_c, 0, 64, 56
1, 41687, Control_c, 0, 67, 40
1, 41689, Control_c, 0, 64, 72
1, 41694, Control_c, 0, 64, 88
1, 41699, Note_on_c, 0, 62, 0
1, 41699, Control_c, 0, 67, 24
1, 41700, Control_c, 0, 64, 104
1, 41704, Control_c, 0, 67, 0
1, 41706, Control_c, 0, 64, 127
1, 41761, Note_on_c, 0, 71, 0
1, 41761, Note_on_c, 0, 67, 65
1, 41837, Note_on_c, 0, 67, 0
1, 41839, Note_on_c, 0, 66, 72
1, 41896, Note_on_c, 0, 66, 0
1, 41900, Note_on_c, 0, 67, 72
1, 41963, Note_on_c, 0, 66, 79
1, 41967, Note_on_c, 0, 67, 0
1, 42009, Control_c, 0, 67, 104
1, 42024, Note_on_c, 0, 66, 0
1, 42027, Control_c, 0, 67, 88
1, 42031, Note_on_c, 0, 61, 79
1, 42048, Control_c, 0, 67, 72
1, 42057, Control_c, 0, 67, 56
1, 42071, Note_on_c, 0, 61, 0
1, 42127, Note_on_c, 0, 69, 82
1, 42171, Control_c, 0, 67, 40
1, 42203, Control_c, 0, 67, 24
1, 42219, Control_c, 0, 67, 0
1, 42221, Note_on_c, 0, 67, 78
1, 42222, Note_on_c, 0, 69, 0
1, 42290, Note_on_c, 0, 66, 84
1, 42291, Note_on_c, 0, 67, 0
1, 42344, Note_on_c, 0, 67, 87
1, 42345, Note_on_c, 0, 66, 0
1, 42396, Note_on_c, 0, 67, 0
1, 42401, Note_on_c, 0, 66, 84
1, 42444, Note_on_c, 0, 66, 0
1, 42460, Note_on_c, 0, 61, 83
1, 42495, Note_on_c, 0, 61, 0
1, 42551, Note_on_c, 0, 71, 108
1, 42568, Control_c, 0, 64, 104
1, 42570, Control_c, 0, 64, 56
1, 42573, Control_c, 0, 64, 0
1, 42606, Control_c, 0, 64, 40
1, 42608, Control_c, 0, 64, 88
1, 42611, Control_c, 0, 64, 127
1, 42678, Note_on_c, 0, 67, 79
1, 42697, Note_on_c, 0, 71, 0
1, 42743, Note_on_c, 0, 67, 0
1, 42743, Note_on_c, 0, 66, 96
1, 42785, Note_on_c, 0, 66, 0
1, 42799, Note_on_c, 0, 62, 78
1, 42843, Note_on_c, 0, 62, 0
1, 42866, Control_c, 0, 64, 88
1, 42869, Control_c, 0, 64, 0
1, 42871, Note_on_c, 0, 73, 112
1, 42898, Control_c, 0, 64, 40
1, 42901, Control_c, 0, 64, 104
1, 42904, Control_c, 0, 64, 127
1, 42958, Note_on_c, 0, 73, 0
1, 42969, Note_on_c, 0, 67, 80
1, 43019, Note_on_c, 0, 67, 0
1, 43025, Note_on_c, 0, 66, 91
1, 43066, Note_on_c, 0, 66, 0
1, 43070, Note_on_c, 0, 64, 91
1, 43091, Note_on_c, 0, 64, 0
1, 43128, Control_c, 0, 64, 72
1, 43131, Control_c, 0, 64, 0
1, 43134, Note_on_c, 0, 74, 111
1, 43167, Control_c, 0, 64, 24
1, 43170, Control_c, 0, 64, 56
1, 43172, Control_c, 0, 64, 104
1, 43175, Control_c, 0, 64, 127
1, 43218, Note_on_c, 0, 67, 80
1, 43258, Note_on_c, 0, 67, 0
1, 43270, Note_on_c, 0, 74, 0
1, 43271, Note_on_c, 0, 66, 94
1, 43314, Note_on_c, 0, 66, 0
1, 43317, Note_on_c, 0, 65, 92
1, 43357, Note_on_c, 0, 65, 0
1, 43357, Control_c, 0, 64, 88
1, 43360, Control_c, 0, 64, 0
1, 43370, Note_on_c, 0, 74, 106
1, 43389, Control_c, 0, 64, 24
1, 43392, Control_c, 0, 64, 72
1, 43395, Control_c, 0, 64, 127
1, 43428, Note_on_c, 0, 69, 82
1, 43440, Note_on_c, 0, 74, 0
1, 43470, Note_on_c, 0, 69, 0
1, 43485, Note_on_c, 0, 66, 98
1, 43559, Note_on_c, 0, 66, 0
1, 43563, Note_on_c, 0, 67, 81
1, 43607, Note_on_c, 0, 67, 0
1, 43617, Note_on_c, 0, 74, 101
1, 43661, Note_on_c, 0, 71, 98
1, 43669, Note_on_c, 0, 74, 0
1, 43694, Note_on_c, 0, 71, 0
1, 43705, Note_on_c, 0, 68, 99
1, 43712, Control_c, 0, 64, 88
1, 43715, Control_c, 0, 64, 0
1, 43754, Note_on_c, 0, 68, 0
1, 43755, Note_on_c, 0, 69, 100
1, 43804, Note_on_c, 0, 74, 96
1, 43819, Control_c, 0, 64, 72
1, 43822, Control_c, 0, 64, 127
1, 43854, Note_on_c, 0, 72, 95
1, 43865, Note_on_c, 0, 69, 0
1, 43872, Note_on_c, 0, 74, 0
1, 43897, Note_on_c, 0, 72, 0
1, 43899, Note_on_c, 0, 70, 99
1, 43908, Control_c, 0, 64, 56
1, 43911, Control_c, 0, 64, 0
1, 43952, Note_on_c, 0, 71, 98
1, 43953, Note_on_c, 0, 70, 0
1, 44006, Note_on_c, 0, 71, 0
1, 44011, Note_on_c, 0, 74, 107
1, 44027, Control_c, 0, 64, 72
1, 44030, Control_c, 0, 64, 127
1, 44090, Note_on_c, 0, 74, 0
1, 44091, Note_on_c, 0, 73, 113
1, 44143, Control_c, 0, 64, 72
1, 44145, Note_on_c, 0, 73, 0
1, 44147, Control_c, 0, 64, 0
1, 44151, Note_on_c, 0, 72, 102
1, 44174, Control_c, 0, 64, 56
1, 44176, Control_c, 0, 64, 104
1, 44179, Control_c, 0, 64, 127
1, 44207, Note_on_c, 0, 72, 0
1, 44207, Note_on_c, 0, 73, 103
1, 44261, Note_on_c, 0, 73, 0
1, 44273, Note_on_c, 0, 76, 101
1, 44351, Note_on_c, 0, 76, 0
1, 44355, Note_on_c, 0, 75, 111
1, 44461, Note_on_c, 0, 75, 0
1, 44466, Note_on_c, 0, 74, 111
1, 44470, Control_c, 0, 64, 72
1, 44473, Control_c, 0, 64, 0
1, 44553, Note_on_c, 0, 76, 106
1, 44557, Note_on_c, 0, 74, 0
1, 44627, Note_on_c, 0, 74, 111
1, 44630, Note_on_c, 0, 76, 0
1, 44639, Control_c, 0, 64, 56
1, 44642, Control_c, 0, 64, 127
1, 44686, Note_on_c, 0, 76, 104
1, 44691, Note_on_c, 0, 74, 0
1, 44744, Note_on_c, 0, 76, 0
1, 44744, Note_on_c, 0, 74, 111
1, 44790, Note_on_c, 0, 76, 98
1, 44794, Note_on_c, 0, 74, 0
1, 44837, Note_on_c, 0, 74, 110
1, 44839, Note_on_c, 0, 76, 0
1, 44875, Note_on_c, 0, 76, 93
1, 44880, Note_on_c, 0, 74, 0
1, 44921, Note_on_c, 0, 74, 106
1, 44927, Note_on_c, 0, 76, 0
1, 44957, Note_on_c, 0, 76, 97
1, 44963, Note_on_c, 0, 74, 0
1, 45001, Note_on_c, 0, 74, 96
1, 45009, Note_on_c, 0, 76, 0
1, 45039, Note_on_c, 0, 76, 98
1, 45046, Note_on_c, 0, 74, 0
1, 45081, Note_on_c, 0, 74, 107
1, 45086, Note_on_c, 0, 76, 0
1, 45116, Note_on_c, 0, 76, 97
1, 45121, Note_on_c, 0, 74, 0
1, 45158, Note_on_c, 0, 74, 107
1, 45162, Note_on_c, 0, 76, 0
1, 45196, Note_on_c, 0, 76, 90
1, 45202, Note_on_c, 0, 74, 0
1, 45243, Note_on_c, 0, 74, 99
1, 45247, Note_on_c, 0, 76, 0
1, 45283, Note_on_c, 0, 76, 90
1, 45288, Note_on_c, 0, 74, 0
1, 45335, Note_on_c, 0, 74, 95
1, 45341, Note_on_c, 0, 76, 0
1, 45388, Note_on_c, 0, 76, 94
1, 45394, Note_on_c, 0, 74, 0
1, 45447, Note_on_c, 0, 74, 101
1, 45449, Note_on_c, 0, 76, 0
1, 45496, Note_on_c, 0, 74, 0
1, 45552, Note_on_c, 0, 75, 111
1, 45642, Note_on_c, 0, 75, 0
1, 45711, Note_on_c, 0, 74, 72
1, 45769, Control_c, 0, 64, 24
1, 45772, Control_c, 0, 64, 56
1, 45775, Control_c, 0, 64, 72
1, 45777, Control_c, 0, 64, 104
1, 45779, Note_on_c, 0, 75, 80
1, 45781, Note_on_c, 0, 74, 0
1, 45782, Control_c, 0, 64, 127
1, 45829, Note_on_c, 0, 75, 0
1, 45834, Note_on_c, 0, 74, 67
1, 45876, Note_on_c, 0, 74, 0
1, 45878, Note_on_c, 0, 75, 79
1, 45927, Note_on_c, 0, 75, 0
1, 45928, Note_on_c, 0, 74, 79
1, 45967, Note_on_c, 0, 74, 0
1, 45968, Note_on_c, 0, 75, 77
1, 46005, Note_on_c, 0, 75, 0
1, 46010, Note_on_c, 0, 74, 71
1, 46045, Note_on_c, 0, 75, 80
1, 46047, Note_on_c, 0, 74, 0
1, 46086, Note_on_c, 0, 75, 0
1, 46088, Note_on_c, 0, 74, 74
1, 46125, Note_on_c, 0, 74, 0
1, 46125, Note_on_c, 0, 75, 75
1, 46160, Note_on_c, 0, 75, 0
1, 46165, Note_on_c, 0, 74, 65
1, 46196, Note_on_c, 0, 75, 68
1, 46198, Note_on_c, 0, 74, 0
1, 46234, Note_on_c, 0, 75, 0
1, 46236, Note_on_c, 0, 74, 69
1, 46271, Note_on_c, 0, 75, 72
1, 46273, Note_on_c, 0, 74, 0
1, 46306, Note_on_c, 0, 75, 0
1, 46310, Note_on_c, 0, 74, 65
1, 46342, Note_on_c, 0, 75, 66
1, 46344, Note_on_c, 0, 74, 0
1, 46380, Note_on_c, 0, 75, 0
1, 46383, Note_on_c, 0, 74, 69
1, 46416, Note_on_c, 0, 75, 66
1, 46418, Note_on_c, 0, 74, 0
1, 46451, Note_on_c, 0, 75, 0
1, 46455, Note_on_c, 0, 74, 64
1, 46483, Note_on_c, 0, 75, 63
1, 46485, Note_on_c, 0, 74, 0
1, 46518, Note_on_c, 0, 75, 0
1, 46520, Note_on_c, 0, 74, 67
1, 46551, Note_on_c, 0, 75, 64
1, 46552, Note_on_c, 0, 74, 0
1, 46596, Note_on_c, 0, 74, 66
1, 46597, Note_on_c, 0, 75, 0
1, 46623, Control_c, 0, 64, 104
1, 46625, Note_on_c, 0, 65, 86
1, 46628, Control_c, 0, 64, 56
1, 46632, Control_c, 0, 64, 40
1, 46638, Note_on_c, 0, 74, 0
1, 46639, Note_on_c, 0, 75, 76
1, 46642, Control_c, 0, 64, 88
1, 46646, Control_c, 0, 64, 104
1, 46650, Control_c, 0, 64, 127
1, 46680, Note_on_c, 0, 75, 0
1, 46684, Note_on_c, 0, 74, 69
1, 46728, Note_on_c, 0, 74, 0
1, 46728, Note_on_c, 0, 75, 73
1, 46752, Note_on_c, 0, 65, 0
1, 46752, Note_on_c, 0, 63, 99
1, 46762, Control_c, 0, 64, 104
1, 46766, Control_c, 0, 64, 56
1, 46770, Control_c, 0, 64, 24
1, 46777, Note_on_c, 0, 74, 57
1, 46780, Control_c, 0, 64, 72
1, 46783, Note_on_c, 0, 75, 0
1, 46784, Control_c, 0, 64, 127
1, 46825, Note_on_c, 0, 74, 0
1, 46826, Note_on_c, 0, 75, 69
1, 46865, Note_on_c, 0, 75, 0
1, 46868, Note_on_c, 0, 74, 65
1, 46905, Note_on_c, 0, 74, 0
1, 46907, Note_on_c, 0, 75, 69
1, 46943, Note_on_c, 0, 75, 0
1, 46946, Note_on_c, 0, 74, 64
1, 46981, Note_on_c, 0, 75, 68
1, 46983, Note_on_c, 0, 74, 0
1, 47022, Note_on_c, 0, 75, 0
1, 47024, Note_on_c, 0, 63, 0
1, 47024, Note_on_c, 0, 74, 69
1, 47036, Note_on_c, 0, 62, 88
1, 47065, Note_on_c, 0, 75, 65
1, 47066, Note_on_c, 0, 74, 0
1, 47109, Note_on_c, 0, 74, 61
1, 47113, Note_on_c, 0, 75, 0
1, 47147, Note_on_c, 0, 75, 55
1, 47148, Note_on_c, 0, 74, 0
1, 47156, Note_on_c, 0, 62, 0
1, 47156, Control_c, 0, 64, 104
1, 47160, Control_c, 0, 64, 24
1, 47164, Note_on_c, 0, 67, 80
1, 47164, Control_c, 0, 64, 0
1, 47185, Note_on_c, 0, 74, 64
1, 47186, Note_on_c, 0, 75, 0
1, 47190, Control_c, 0, 64, 40
1, 47194, Control_c, 0, 64, 104
1, 47198, Control_c, 0, 64, 127
1, 47238, Note_on_c, 0, 75, 67
1, 47240, Note_on_c, 0, 74, 0
1, 47284, Note_on_c, 0, 67, 0
1, 47286, Note_on_c, 0, 75, 0
1, 47286, Note_on_c, 0, 74, 66
1, 47302, Note_on_c, 0, 70, 80
1, 47340, Note_on_c, 0, 74, 0
1, 47340, Note_on_c, 0, 75, 63
1, 47392, Note_on_c, 0, 75, 0
1, 47392, Note_on_c, 0, 74, 67
1, 47395, Note_on_c, 0, 67, 65
1, 47422, Note_on_c, 0, 70, 0
1, 47438, Note_on_c, 0, 74, 0
1, 47439, Note_on_c, 0, 75, 70
1, 47481, Note_on_c, 0, 62, 69
1, 47482, Note_on_c, 0, 75, 0
1, 47483, Note_on_c, 0, 74, 64
1, 47515, Note_on_c, 0, 67, 0
1, 47525, Note_on_c, 0, 75, 69
1, 47526, Note_on_c, 0, 74, 0
1, 47564, Note_on_c, 0, 75, 0
1, 47569, Note_on_c, 0, 74, 61
1, 47572, Note_on_c, 0, 58, 80
1, 47601, Note_on_c, 0, 62, 0
1, 47614, Note_on_c, 0, 74, 0
1, 47614, Note_on_c, 0, 75, 67
1, 47616, Control_c, 0, 64, 88
1, 47621, Control_c, 0, 64, 40
1, 47625, Control_c, 0, 64, 0
1, 47629, Control_c, 0, 64, 24
1, 47633, Control_c, 0, 64, 56
1, 47637, Control_c, 0, 64, 104
1, 47639, Note_on_c, 0, 63, 88
1, 47642, Control_c, 0, 64, 127
1, 47655, Note_on_c, 0, 75, 0
1, 47660, Note_on_c, 0, 74, 61
1, 47702, Note_on_c, 0, 74, 0
1, 47703, Note_on_c, 0, 75, 67
1, 47736, Note_on_c, 0, 67, 70
1, 47739, Note_on_c, 0, 75, 0
1, 47748, Note_on_c, 0, 74, 57
1, 47759, Note_on_c, 0, 63, 0
1, 47790, Note_on_c, 0, 74, 0
1, 47792, Note_on_c, 0, 75, 65
1, 47812, Note_on_c, 0, 58, 0
1, 47826, Note_on_c, 0, 75, 0
1, 47836, Note_on_c, 0, 70, 73
1, 47836, Note_on_c, 0, 74, 54
1, 47856, Note_on_c, 0, 67, 0
1, 47876, Note_on_c, 0, 74, 0
1, 47879, Note_on_c, 0, 75, 62
1, 47921, Note_on_c, 0, 75, 0
1, 47921, Note_on_c, 0, 67, 55
1, 47927, Note_on_c, 0, 74, 59
1, 47956, Note_on_c, 0, 70, 0
1, 47965, Note_on_c, 0, 74, 0
1, 47967, Note_on_c, 0, 75, 66
1, 48002, Note_on_c, 0, 75, 0
1, 48016, Note_on_c, 0, 58, 71
1, 48016, Note_on_c, 0, 74, 54
1, 48041, Note_on_c, 0, 67, 0
1, 48055, Note_on_c, 0, 74, 0
1, 48058, Note_on_c, 0, 75, 65
1, 48098, Note_on_c, 0, 75, 0
1, 48103, Note_on_c, 0, 62, 70
1, 48103, Note_on_c, 0, 74, 59
1, 48174, Note_on_c, 0, 74, 0
1, 48214, Note_on_c, 0, 67, 65
1, 48223, Note_on_c, 0, 62, 0
1, 48256, Note_on_c, 0, 58, 0
1, 48298, Note_on_c, 0, 70, 65
1, 48334, Note_on_c, 0, 67, 0
1, 48366, Note_on_c, 0, 77, 91
1, 48375, Note_on_c, 0, 67, 54
1, 48418, Note_on_c, 0, 70, 0
1, 48456, Note_on_c, 0, 58, 69
1, 48495, Note_on_c, 0, 67, 0
1, 48550, Note_on_c, 0, 63, 72
1, 48556, Note_on_c, 0, 75, 96
1, 48562, Note_on_c, 0, 77, 0
1, 48674, Note_on_c, 0, 67, 52
1, 48698, Note_on_c, 0, 63, 0
1, 48741, Note_on_c, 0, 67, 0
1, 48746, Note_on_c, 0, 70, 58
1, 48794, Note_on_c, 0, 58, 0
1, 48822, Note_on_c, 0, 67, 47
1, 48832, Note_on_c, 0, 70, 0
1, 48851, Note_on_c, 0, 75, 0
1, 48863, Note_on_c, 0, 74, 93
1, 48924, Note_on_c, 0, 58, 60
1, 48927, Note_on_c, 0, 67, 0
1, 49044, Note_on_c, 0, 62, 60
1, 49063, Control_c, 0, 64, 88
1, 49067, Control_c, 0, 64, 24
1, 49071, Control_c, 0, 64, 0
1, 49075, Note_on_c, 0, 79, 93
1, 49076, Control_c, 0, 64, 24
1, 49082, Control_c, 0, 64, 56
1, 49086, Control_c, 0, 64, 72
1, 49090, Control_c, 0, 64, 127
1, 49118, Note_on_c, 0, 74, 0
1, 49171, Note_on_c, 0, 75, 71
1, 49195, Note_on_c, 0, 67, 46
1, 49211, Note_on_c, 0, 62, 0
1, 49223, Note_on_c, 0, 75, 0
1, 49231, Note_on_c, 0, 74, 65
1, 49273, Note_on_c, 0, 67, 0
1, 49279, Note_on_c, 0, 74, 0
1, 49281, Note_on_c, 0, 75, 69
1, 49283, Note_on_c, 0, 70, 51
1, 49323, Note_on_c, 0, 75, 0
1, 49328, Note_on_c, 0, 58, 0
1, 49329, Note_on_c, 0, 74, 65
1, 49360, Note_on_c, 0, 67, 51
1, 49370, Note_on_c, 0, 70, 0
1, 49372, Note_on_c, 0, 74, 0
1, 49373, Note_on_c, 0, 75, 69
1, 49415, Note_on_c, 0, 75, 0
1, 49419, Note_on_c, 0, 74, 65
1, 49438, Note_on_c, 0, 67, 0
1, 49445, Note_on_c, 0, 58, 66
1, 49468, Note_on_c, 0, 74, 0
1, 49472, Note_on_c, 0, 75, 73
1, 49526, Note_on_c, 0, 74, 68
1, 49527, Note_on_c, 0, 75, 0
1, 49536, Note_on_c, 0, 63, 67
1, 49579, Note_on_c, 0, 75, 71
1, 49580, Note_on_c, 0, 74, 0
1, 49621, Note_on_c, 0, 67, 54
1, 49634, Note_on_c, 0, 75, 0
1, 49635, Note_on_c, 0, 74, 67
1, 49664, Note_on_c, 0, 63, 0
1, 49672, Note_on_c, 0, 79, 0
1, 49680, Note_on_c, 0, 75, 73
1, 49681, Note_on_c, 0, 74, 0
1, 49712, Note_on_c, 0, 67, 0
1, 49714, Note_on_c, 0, 70, 52
1, 49719, Note_on_c, 0, 75, 0
1, 49726, Note_on_c, 0, 74, 64
1, 49768, Note_on_c, 0, 74, 0
1, 49770, Note_on_c, 0, 75, 70
1, 49785, Note_on_c, 0, 58, 0
1, 49789, Note_on_c, 0, 67, 39
1, 49815, Note_on_c, 0, 75, 0
1, 49819, Note_on_c, 0, 74, 67
1, 49824, Note_on_c, 0, 70, 0
1, 49869, Note_on_c, 0, 79, 79
1, 49887, Note_on_c, 0, 67, 0
1, 49904, Note_on_c, 0, 58, 63
1, 49923, Note_on_c, 0, 79, 0
1, 50015, Note_on_c, 0, 79, 74
1, 50016, Note_on_c, 0, 62, 53
1, 50096, Note_on_c, 0, 74, 0
1, 50108, Note_on_c, 0, 75, 68
1, 50128, Note_on_c, 0, 67, 38
1, 50139, Note_on_c, 0, 62, 0
1, 50157, Note_on_c, 0, 75, 0
1, 50163, Note_on_c, 0, 74, 55
1, 50195, Note_on_c, 0, 67, 0
1, 50206, Note_on_c, 0, 74, 0
1, 50209, Note_on_c, 0, 70, 47
1, 50209, Note_on_c, 0, 75, 61
1, 50252, Note_on_c, 0, 75, 0
1, 50256, Note_on_c, 0, 58, 0
1, 50262, Note_on_c, 0, 74, 52
1, 50292, Note_on_c, 0, 67, 42
1, 50306, Note_on_c, 0, 74, 0
1, 50306, Note_on_c, 0, 70, 0
1, 50307, Note_on_c, 0, 75, 59
1, 50349, Note_on_c, 0, 75, 0
1, 50355, Note_on_c, 0, 74, 58
1, 50381, Note_on_c, 0, 67, 0
1, 50383, Note_on_c, 0, 79, 0
1, 50391, Note_on_c, 0, 58, 57
1, 50396, Note_on_c, 0, 74, 0
1, 50558, Note_on_c, 0, 63, 54
1, 50567, Note_on_c, 0, 50, 88
1, 50705, Note_on_c, 0, 67, 31
1, 50753, Note_on_c, 0, 48, 80
1, 50755, Note_on_c, 0, 50, 0
1, 50789, Note_on_c, 0, 67, 0
1, 50792, Note_on_c, 0, 63, 0
1, 50806, Note_on_c, 0, 70, 44
1, 50870, Note_on_c, 0, 58, 0
1, 50892, Note_on_c, 0, 67, 24
1, 50925, Note_on_c, 0, 46, 88
1, 50928, Note_on_c, 0, 48, 0
1, 50950, Note_on_c, 0, 70, 0
1, 50988, Note_on_c, 0, 67, 0
1, 50992, Note_on_c, 0, 58, 49
1, 51045, Note_on_c, 0, 46, 0
1, 51142, Note_on_c, 0, 62, 52
1, 51160, Control_c, 0, 64, 0
1, 51167, Note_on_c, 0, 46, 84
1, 51272, Control_c, 0, 64, 127
1, 51308, Note_on_c, 0, 67, 43
1, 51334, Note_on_c, 0, 62, 0
1, 51371, Note_on_c, 0, 67, 0
1, 51371, Note_on_c, 0, 70, 52
1, 51423, Note_on_c, 0, 58, 0
1, 51437, Note_on_c, 0, 67, 43
1, 51462, Note_on_c, 0, 70, 0
1, 51505, Note_on_c, 0, 67, 0
1, 51505, Note_on_c, 0, 58, 51
1, 51586, Note_on_c, 0, 63, 63
1, 51668, Note_on_c, 0, 67, 42
1, 51727, Note_on_c, 0, 63, 0
1, 51734, Note_on_c, 0, 67, 0
1, 51735, Note_on_c, 0, 70, 49
1, 51803, Note_on_c, 0, 67, 40
1, 51808, Note_on_c, 0, 58, 0
1, 51823, Note_on_c, 0, 70, 0
1, 51841, Note_on_c, 0, 45, 79
1, 51851, Note_on_c, 0, 46, 0
1, 51920, Note_on_c, 0, 67, 0
1, 51922, Control_c, 0, 67, 24
1, 51925, Control_c, 0, 67, 40
1, 51926, Note_on_c, 0, 58, 51
1, 51933, Control_c, 0, 67, 56
1, 51936, Control_c, 0, 67, 72
1, 51938, Control_c, 0, 67, 88
1, 51940, Control_c, 0, 67, 104
1, 51945, Control_c, 0, 67, 127
1, 51961, Note_on_c, 0, 45, 0
1, 52042, Note_on_c, 0, 62, 44
1, 52088, Note_on_c, 0, 43, 73
1, 52091, Note_on_c, 0, 36, 80
1, 52120, Control_c, 0, 64, 0
1, 52208, Control_c, 0, 64, 127
1, 52221, Note_on_c, 0, 67, 38
1, 52286, Note_on_c, 0, 67, 0
1, 52293, Note_on_c, 0, 70, 55
1, 52307, Note_on_c, 0, 58, 0
1, 52307, Note_on_c, 0, 62, 0
1, 52362, Note_on_c, 0, 67, 47
1, 52376, Note_on_c, 0, 43, 0
1, 52379, Note_on_c, 0, 70, 0
1, 52379, Note_on_c, 0, 36, 0
1, 52423, Note_on_c, 0, 43, 75
1, 52458, Note_on_c, 0, 67, 0
1, 52473, Note_on_c, 0, 58, 55
1, 52543, Note_on_c, 0, 43, 0
1, 52578, Note_on_c, 0, 63, 58
1, 52615, Note_on_c, 0, 43, 74
1, 52700, Note_on_c, 0, 67, 49
1, 52714, Note_on_c, 0, 63, 0
1, 52757, Note_on_c, 0, 67, 0
1, 52761, Note_on_c, 0, 70, 54
1, 52807, Note_on_c, 0, 58, 0
1, 52820, Note_on_c, 0, 67, 43
1, 52826, Note_on_c, 0, 70, 0
1, 52884, Note_on_c, 0, 58, 59
1, 52889, Note_on_c, 0, 67, 0
1, 52955, Note_on_c, 0, 62, 66
1, 52957, Note_on_c, 0, 43, 0
1, 53038, Note_on_c, 0, 58, 0
1, 53042, Note_on_c, 0, 67, 42
1, 53080, Note_on_c, 0, 62, 0
1, 53088, Note_on_c, 0, 67, 0
1, 53102, Note_on_c, 0, 70, 54
1, 53164, Note_on_c, 0, 67, 42
1, 53192, Control_c, 0, 67, 104
1, 53193, Note_on_c, 0, 70, 0
1, 53195, Control_c, 0, 67, 88
1, 53197, Control_c, 0, 67, 72
1, 53200, Control_c, 0, 67, 56
1, 53202, Control_c, 0, 67, 40
1, 53209, Control_c, 0, 67, 24
1, 53212, Control_c, 0, 67, 0
1, 53235, Note_on_c, 0, 77, 66
1, 53259, Note_on_c, 0, 67, 0
1, 53290, Note_on_c, 0, 58, 37
1, 53389, Note_on_c, 0, 63, 54
1, 53416, Note_on_c, 0, 77, 0
1, 53428, Note_on_c, 0, 75, 69
1, 53512, Note_on_c, 0, 67, 41
1, 53539, Note_on_c, 0, 63, 0
1, 53559, Note_on_c, 0, 58, 0
1, 53576, Note_on_c, 0, 67, 0
1, 53576, Note_on_c, 0, 70, 49
1, 53639, Note_on_c, 0, 67, 35
1, 53658, Note_on_c, 0, 70, 0
1, 53682, Note_on_c, 0, 75, 0
1, 53683, Note_on_c, 0, 74, 65
1, 53739, Note_on_c, 0, 58, 43
1, 53743, Note_on_c, 0, 67, 0
1, 53784, Control_c, 0, 64, 127
1, 53840, Note_on_c, 0, 62, 50
1, 53879, Note_on_c, 0, 79, 61
1, 53960, Note_on_c, 0, 74, 0
1, 53965, Note_on_c, 0, 75, 63
1, 53978, Note_on_c, 0, 67, 38
1, 54018, Note_on_c, 0, 75, 0
1, 54026, Note_on_c, 0, 74, 51
1, 54035, Note_on_c, 0, 62, 0
1, 54045, Note_on_c, 0, 67, 0
1, 54050, Note_on_c, 0, 70, 46
1, 54074, Note_on_c, 0, 74, 0
1, 54078, Note_on_c, 0, 75, 58
1, 54121, Note_on_c, 0, 75, 0
1, 54127, Note_on_c, 0, 74, 44
1, 54141, Note_on_c, 0, 58, 0
1, 54148, Note_on_c, 0, 67, 29
1, 54166, Note_on_c, 0, 74, 0
1, 54168, Note_on_c, 0, 75, 63
1, 54197, Note_on_c, 0, 70, 0
1, 54211, Note_on_c, 0, 75, 0
1, 54217, Note_on_c, 0, 74, 48
1, 54225, Note_on_c, 0, 67, 0
1, 54239, Note_on_c, 0, 58, 52
1, 54264, Note_on_c, 0, 74, 0
1, 54270, Note_on_c, 0, 75, 57
1, 54312, Note_on_c, 0, 75, 0
1, 54318, Note_on_c, 0, 74, 55
1, 54319, Note_on_c, 0, 63, 53
1, 54362, Note_on_c, 0, 74, 0
1, 54365, Note_on_c, 0, 75, 55
1, 54412, Note_on_c, 0, 75, 0
1, 54416, Note_on_c, 0, 67, 44
1, 54423, Note_on_c, 0, 74, 43
1, 54469, Note_on_c, 0, 74, 0
1, 54472, Note_on_c, 0, 75, 61
1, 54476, Note_on_c, 0, 79, 0
1, 54498, Note_on_c, 0, 67, 0
1, 54504, Note_on_c, 0, 63, 0
1, 54505, Note_on_c, 0, 70, 37
1, 54515, Note_on_c, 0, 75, 0
1, 54521, Note_on_c, 0, 74, 49
1, 54571, Note_on_c, 0, 75, 66
1, 54575, Note_on_c, 0, 74, 0
1, 54600, Note_on_c, 0, 58, 0
1, 54608, Note_on_c, 0, 75, 0
1, 54608, Note_on_c, 0, 67, 15
1, 54615, Note_on_c, 0, 74, 51
1, 54698, Note_on_c, 0, 79, 64
1, 54703, Note_on_c, 0, 67, 0
1, 54726, Note_on_c, 0, 58, 46
1, 54744, Note_on_c, 0, 70, 0
1, 54751, Note_on_c, 0, 79, 0
1, 54823, Note_on_c, 0, 62, 50
1, 54848, Note_on_c, 0, 79, 57
1, 54935, Note_on_c, 0, 75, 58
1, 54938, Note_on_c, 0, 74, 0
1, 54958, Note_on_c, 0, 67, 28
1, 54980, Note_on_c, 0, 62, 0
1, 54984, Note_on_c, 0, 75, 0
1, 54995, Note_on_c, 0, 74, 52
1, 55039, Note_on_c, 0, 74, 0
1, 55045, Note_on_c, 0, 75, 53
1, 55062, Note_on_c, 0, 67, 0
1, 55075, Note_on_c, 0, 70, 44
1, 55084, Note_on_c, 0, 75, 0
1, 55096, Note_on_c, 0, 74, 40
1, 55137, Note_on_c, 0, 58, 0
1, 55139, Note_on_c, 0, 74, 0
1, 55142, Note_on_c, 0, 75, 53
1, 55175, Note_on_c, 0, 67, 18
1, 55187, Note_on_c, 0, 75, 0
1, 55191, Note_on_c, 0, 70, 0
1, 55198, Note_on_c, 0, 74, 45
1, 55242, Note_on_c, 0, 74, 0
1, 55242, Note_on_c, 0, 75, 57
1, 55250, Note_on_c, 0, 67, 0
1, 55290, Note_on_c, 0, 58, 51
1, 55294, Note_on_c, 0, 75, 0
1, 55305, Note_on_c, 0, 74, 46
1, 55372, Note_on_c, 0, 75, 60
1, 55375, Note_on_c, 0, 74, 0
1, 55379, Note_on_c, 0, 63, 53
1, 55450, Note_on_c, 0, 75, 0
1, 55453, Note_on_c, 0, 74, 48
1, 55517, Note_on_c, 0, 74, 0
1, 55518, Note_on_c, 0, 67, 25
1, 55520, Note_on_c, 0, 75, 58
1, 55576, Note_on_c, 0, 75, 0
1, 55589, Note_on_c, 0, 74, 40
1, 55618, Note_on_c, 0, 70, 39
1, 55630, Note_on_c, 0, 63, 0
1, 55632, Note_on_c, 0, 67, 0
1, 55645, Note_on_c, 0, 74, 0
1, 55649, Note_on_c, 0, 75, 47
1, 55702, Note_on_c, 0, 79, 0
1, 55721, Note_on_c, 0, 75, 0
1, 55721, Note_on_c, 0, 74, 54
1, 55739, Note_on_c, 0, 74, 0
1, 55760, Note_on_c, 0, 67, 31
1, 55761, Note_on_c, 0, 58, 0
1, 55823, Note_on_c, 0, 70, 0
1, 55914, Note_on_c, 0, 50, 66
1, 56048, Note_on_c, 0, 58, 59
1, 56077, Note_on_c, 0, 67, 0
1, 56080, Note_on_c, 0, 50, 0
1, 56097, Note_on_c, 0, 58, 0
1, 56185, Control_c, 0, 67, 24
1, 56196, Control_c, 0, 67, 40
1, 56214, Control_c, 0, 67, 56
1, 56228, Control_c, 0, 67, 72
1, 56239, Control_c, 0, 67, 88
1, 56250, Control_c, 0, 67, 104
1, 56252, Note_on_c, 0, 62, 52
1, 56263, Control_c, 0, 67, 127
1, 56298, Note_on_c, 0, 50, 56
1, 56303, Note_on_c, 0, 43, 60
1, 56316, Control_c, 0, 64, 72
1, 56320, Control_c, 0, 64, 0
1, 56355, Control_c, 0, 64, 40
1, 56359, Control_c, 0, 64, 88
1, 56363, Control_c, 0, 64, 127
1, 56384, Control_c, 0, 67, 127
1, 56457, Note_on_c, 0, 67, 49
1, 56520, Note_on_c, 0, 43, 0
1, 56537, Note_on_c, 0, 50, 0
1, 56543, Note_on_c, 0, 67, 0
1, 56553, Note_on_c, 0, 71, 52
1, 56613, Note_on_c, 0, 62, 0
1, 56621, Note_on_c, 0, 71, 0
1, 56628, Note_on_c, 0, 67, 51
1, 56691, Note_on_c, 0, 67, 0
1, 56712, Note_on_c, 0, 59, 53
1, 56752, Note_on_c, 0, 78, 74
1, 56866, Note_on_c, 0, 64, 54
1, 56906, Note_on_c, 0, 78, 0
1, 56906, Note_on_c, 0, 76, 73
1, 57012, Note_on_c, 0, 67, 53
1, 57063, Note_on_c, 0, 64, 0
1, 57080, Note_on_c, 0, 67, 0
1, 57090, Note_on_c, 0, 71, 51
1, 57134, Note_on_c, 0, 59, 0
1, 57154, Note_on_c, 0, 67, 51
1, 57167, Note_on_c, 0, 71, 0
1, 57197, Note_on_c, 0, 76, 0
1, 57202, Note_on_c, 0, 74, 70
1, 57251, Note_on_c, 0, 67, 0
1, 57259, Note_on_c, 0, 59, 52
1, 57367, Note_on_c, 0, 62, 56
1, 57405, Note_on_c, 0, 79, 69
1, 57413, Note_on_c, 0, 74, 0
1, 57414, Control_c, 0, 64, 104
1, 57419, Control_c, 0, 64, 56
1, 57432, Control_c, 0, 64, 72
1, 57436, Control_c, 0, 64, 88
1, 57440, Control_c, 0, 64, 127
1, 57509, Note_on_c, 0, 67, 47
1, 57570, Note_on_c, 0, 67, 0
1, 57587, Note_on_c, 0, 71, 49
1, 57593, Note_on_c, 0, 59, 0
1, 57598, Note_on_c, 0, 79, 0
1, 57611, Note_on_c, 0, 62, 0
1, 57647, Note_on_c, 0, 67, 50
1, 57658, Note_on_c, 0, 71, 0
1, 57693, Note_on_c, 0, 79, 72
1, 57731, Note_on_c, 0, 79, 0
1, 57735, Note_on_c, 0, 67, 0
1, 57745, Note_on_c, 0, 59, 55
1, 57847, Note_on_c, 0, 64, 52
1, 57885, Note_on_c, 0, 79, 74
1, 57896, Control_c, 0, 64, 104
1, 57900, Control_c, 0, 64, 72
1, 57904, Control_c, 0, 64, 40
1, 57915, Control_c, 0, 64, 72
1, 57919, Control_c, 0, 64, 104
1, 57923, Control_c, 0, 64, 127
1, 57977, Note_on_c, 0, 67, 52
1, 58032, Note_on_c, 0, 64, 0
1, 58036, Note_on_c, 0, 67, 0
1, 58043, Note_on_c, 0, 71, 51
1, 58055, Note_on_c, 0, 79, 0
1, 58082, Note_on_c, 0, 59, 0
1, 58098, Note_on_c, 0, 71, 0
1, 58100, Note_on_c, 0, 67, 51
1, 58167, Note_on_c, 0, 59, 60
1, 58185, Note_on_c, 0, 67, 0
1, 58230, Note_on_c, 0, 59, 0
1, 58276, Note_on_c, 0, 62, 57
1, 58385, Note_on_c, 0, 67, 52
1, 58436, Note_on_c, 0, 67, 0
1, 58448, Note_on_c, 0, 71, 53
1, 58516, Note_on_c, 0, 67, 51
1, 58518, Note_on_c, 0, 71, 0
1, 58575, Note_on_c, 0, 62, 0
1, 58607, Note_on_c, 0, 67, 0
1, 58610, Note_on_c, 0, 59, 64
1, 58696, Note_on_c, 0, 64, 71
1, 58796, Note_on_c, 0, 67, 53
1, 58857, Note_on_c, 0, 67, 0
1, 58857, Note_on_c, 0, 64, 0
1, 58861, Note_on_c, 0, 71, 58
1, 58936, Note_on_c, 0, 67, 48
1, 58956, Note_on_c, 0, 59, 0
1, 58976, Note_on_c, 0, 71, 0
1, 58987, Note_on_c, 0, 64, 62
1, 59005, Note_on_c, 0, 81, 81
1, 59041, Note_on_c, 0, 67, 0
1, 59090, Note_on_c, 0, 64, 0
1, 59094, Note_on_c, 0, 59, 56
1, 59188, Note_on_c, 0, 83, 77
1, 59192, Note_on_c, 0, 62, 65
1, 59195, Control_c, 0, 64, 40
1, 59200, Control_c, 0, 64, 0
1, 59211, Note_on_c, 0, 81, 0
1, 59253, Control_c, 0, 64, 24
1, 59258, Control_c, 0, 64, 56
1, 59263, Control_c, 0, 64, 104
1, 59268, Control_c, 0, 64, 127
1, 59333, Note_on_c, 0, 67, 42
1, 59380, Note_on_c, 0, 67, 0
1, 59402, Note_on_c, 0, 71, 54
1, 59452, Note_on_c, 0, 59, 0
1, 59459, Note_on_c, 0, 62, 0
1, 59459, Note_on_c, 0, 83, 0
1, 59469, Note_on_c, 0, 67, 51
1, 59486, Note_on_c, 0, 84, 75
1, 59489, Note_on_c, 0, 71, 0
1, 59565, Note_on_c, 0, 67, 0
1, 59574, Note_on_c, 0, 59, 66
1, 59675, Note_on_c, 0, 84, 0
1, 59680, Note_on_c, 0, 64, 60
1, 59681, Note_on_c, 0, 86, 77
1, 59781, Note_on_c, 0, 67, 54
1, 59829, Note_on_c, 0, 64, 0
1, 59841, Note_on_c, 0, 67, 0
1, 59851, Note_on_c, 0, 71, 57
1, 59921, Note_on_c, 0, 67, 48
1, 59938, Note_on_c, 0, 59, 0
1, 59946, Note_on_c, 0, 71, 0
1, 59987, Note_on_c, 0, 67, 0
1, 60010, Note_on_c, 0, 59, 67
1, 60095, Note_on_c, 0, 62, 70
1, 60170, Note_on_c, 0, 67, 60
1, 60234, Note_on_c, 0, 67, 0
1, 60239, Note_on_c, 0, 71, 61
1, 60268, Note_on_c, 0, 62, 0
1, 60302, Note_on_c, 0, 67, 54
1, 60314, Note_on_c, 0, 86, 0
1, 60323, Note_on_c, 0, 88, 85
1, 60326, Note_on_c, 0, 59, 0
1, 60364, Note_on_c, 0, 71, 0
1, 60384, Note_on_c, 0, 62, 53
1, 60403, Note_on_c, 0, 67, 0
1, 60442, Note_on_c, 0, 62, 0
1, 60453, Note_on_c, 0, 59, 66
1, 60551, Note_on_c, 0, 90, 87
1, 60560, Note_on_c, 0, 88, 0
1, 60575, Note_on_c, 0, 64, 64
1, 60684, Note_on_c, 0, 67, 51
1, 60749, Note_on_c, 0, 64, 0
1, 60757, Note_on_c, 0, 67, 0
1, 60759, Note_on_c, 0, 71, 51
1, 60766, Note_on_c, 0, 90, 0
1, 60768, Note_on_c, 0, 93, 79
1, 60855, Note_on_c, 0, 67, 54
1, 60865, Note_on_c, 0, 59, 0
1, 60912, Note_on_c, 0, 71, 0
1, 60925, Note_on_c, 0, 91, 84
1, 60927, Note_on_c, 0, 62, 41
1, 60930, Note_on_c, 0, 93, 0
1, 60936, Note_on_c, 0, 67, 0
1, 60981, Note_on_c, 0, 91, 0
1, 60985, Note_on_c, 0, 62, 0
1, 61085, Note_on_c, 0, 59, 57
1, 61097, Note_on_c, 0, 90, 56
1, 61115, Note_on_c, 0, 90, 0
1, 61130, Note_on_c, 0, 91, 69
1, 61161, Note_on_c, 0, 91, 0
1, 61164, Note_on_c, 0, 90, 74
1, 61167, Control_c, 0, 64, 40
1, 61173, Control_c, 0, 64, 0
1, 61177, Note_on_c, 0, 62, 57
1, 61220, Control_c, 0, 64, 24
1, 61226, Control_c, 0, 64, 56
1, 61232, Control_c, 0, 64, 104
1, 61238, Control_c, 0, 64, 127
1, 61294, Note_on_c, 0, 67, 48
1, 61351, Note_on_c, 0, 67, 0
1, 61379, Note_on_c, 0, 71, 47
1, 61413, Note_on_c, 0, 59, 0
1, 61417, Note_on_c, 0, 62, 0
1, 61441, Note_on_c, 0, 67, 42
1, 61452, Note_on_c, 0, 90, 0
1, 61456, Note_on_c, 0, 88, 70
1, 61479, Note_on_c, 0, 71, 0
1, 61490, Note_on_c, 0, 88, 0
1, 61524, Note_on_c, 0, 67, 0
1, 61540, Note_on_c, 0, 59, 63
1, 61650, Note_on_c, 0, 64, 57
1, 61674, Note_on_c, 0, 79, 73
1, 61781, Note_on_c, 0, 67, 52
1, 61812, Note_on_c, 0, 64, 0
1, 61829, Note_on_c, 0, 67, 0
1, 61846, Note_on_c, 0, 71, 49
1, 61909, Note_on_c, 0, 59, 0
1, 61918, Note_on_c, 0, 67, 57
1, 61942, Note_on_c, 0, 71, 0
1, 61984, Note_on_c, 0, 67, 0
1, 61997, Note_on_c, 0, 59, 64
1, 62072, Note_on_c, 0, 62, 67
1, 62155, Note_on_c, 0, 67, 54
1, 62208, Note_on_c, 0, 67, 0
1, 62210, Note_on_c, 0, 71, 57
1, 62222, Note_on_c, 0, 62, 0
1, 62237, Note_on_c, 0, 59, 0
1, 62258, Note_on_c, 0, 67, 48
1, 62286, Note_on_c, 0, 79, 0
1, 62293, Note_on_c, 0, 81, 86
1, 62318, Note_on_c, 0, 71, 0
1, 62350, Note_on_c, 0, 67, 0
1, 62363, Note_on_c, 0, 59, 68
1, 62461, Note_on_c, 0, 64, 67
1, 62473, Note_on_c, 0, 81, 0
1, 62476, Note_on_c, 0, 83, 88
1, 62571, Note_on_c, 0, 67, 53
1, 62610, Note_on_c, 0, 83, 0
1, 62630, Note_on_c, 0, 67, 0
1, 62631, Note_on_c, 0, 64, 0
1, 62643, Note_on_c, 0, 71, 58
1, 62689, Note_on_c, 0, 59, 0
1, 62703, Note_on_c, 0, 67, 54
1, 62715, Note_on_c, 0, 84, 74
1, 62749, Note_on_c, 0, 71, 0
1, 62778, Note_on_c, 0, 67, 0
1, 62782, Note_on_c, 0, 84, 0
1, 62797, Note_on_c, 0, 59, 65
1, 62846, Note_on_c, 0, 84, 78
1, 62869, Note_on_c, 0, 84, 0
1, 62884, Note_on_c, 0, 86, 67
1, 62890, Control_c, 0, 64, 88
1, 62896, Control_c, 0, 64, 0
1, 62908, Note_on_c, 0, 62, 63
1, 62917, Note_on_c, 0, 84, 76
1, 62921, Note_on_c, 0, 86, 0
1, 62957, Control_c, 0, 64, 24
1, 62964, Control_c, 0, 64, 72
1, 62969, Control_c, 0, 64, 127
1, 63027, Note_on_c, 0, 67, 38
1, 63045, Note_on_c, 0, 59, 0
1, 63081, Note_on_c, 0, 67, 0
1, 63096, Note_on_c, 0, 71, 55
1, 63132, Note_on_c, 0, 62, 0
1, 63177, Note_on_c, 0, 67, 39
1, 63214, Note_on_c, 0, 71, 0
1, 63227, Note_on_c, 0, 84, 0
1, 63262, Note_on_c, 0, 67, 0
1, 63266, Note_on_c, 0, 83, 67
1, 63297, Note_on_c, 0, 83, 0
1, 63316, Note_on_c, 0, 59, 51
1, 63428, Note_on_c, 0, 64, 57
1, 63462, Note_on_c, 0, 74, 71
1, 63480, Control_c, 0, 64, 72
1, 63486, Control_c, 0, 64, 0
1, 63524, Control_c, 0, 64, 40
1, 63529, Control_c, 0, 64, 88
1, 63536, Control_c, 0, 64, 127
1, 63555, Note_on_c, 0, 67, 48
1, 63610, Note_on_c, 0, 67, 0
1, 63614, Note_on_c, 0, 64, 0
1, 63636, Note_on_c, 0, 71, 53
1, 63683, Note_on_c, 0, 59, 0
1, 63710, Note_on_c, 0, 67, 45
1, 63730, Note_on_c, 0, 71, 0
1, 63766, Note_on_c, 0, 67, 0
1, 63784, Note_on_c, 0, 59, 56
1, 63869, Note_on_c, 0, 62, 58
1, 63956, Note_on_c, 0, 67, 48
1, 64010, Note_on_c, 0, 67, 0
1, 64012, Note_on_c, 0, 62, 0
1, 64022, Note_on_c, 0, 71, 48
1, 64064, Note_on_c, 0, 59, 0
1, 64085, Note_on_c, 0, 67, 45
1, 64110, Note_on_c, 0, 76, 79
1, 64116, Note_on_c, 0, 74, 0
1, 64140, Note_on_c, 0, 71, 0
1, 64181, Note_on_c, 0, 67, 0
1, 64198, Note_on_c, 0, 59, 61
1, 64308, Note_on_c, 0, 64, 56
1, 64312, Note_on_c, 0, 76, 0
1, 64314, Note_on_c, 0, 78, 77
1, 64321, Control_c, 0, 64, 104
1, 64327, Control_c, 0, 64, 24
1, 64333, Control_c, 0, 64, 0
1, 64368, Control_c, 0, 64, 24
1, 64374, Control_c, 0, 64, 56
1, 64380, Control_c, 0, 64, 127
1, 64417, Note_on_c, 0, 67, 40
1, 64469, Note_on_c, 0, 64, 0
1, 64477, Note_on_c, 0, 67, 0
1, 64489, Note_on_c, 0, 71, 46
1, 64548, Note_on_c, 0, 59, 0
1, 64572, Note_on_c, 0, 67, 43
1, 64577, Note_on_c, 0, 78, 0
1, 64601, Note_on_c, 0, 71, 0
1, 64603, Note_on_c, 0, 79, 65
1, 64625, Note_on_c, 0, 67, 0
1, 64718, Note_on_c, 0, 79, 0
1, 64726, Note_on_c, 0, 59, 41
1, 64776, Note_on_c, 0, 81, 67
1, 64792, Note_on_c, 0, 81, 0
1, 64813, Note_on_c, 0, 83, 60
1, 64849, Note_on_c, 0, 83, 0
1, 64850, Control_c, 0, 64, 88
1, 64854, Note_on_c, 0, 81, 69
1, 64859, Note_on_c, 0, 62, 57
1, 64859, Control_c, 0, 64, 0
1, 64917, Control_c, 0, 64, 40
1, 64923, Control_c, 0, 64, 88
1, 64929, Control_c, 0, 64, 127
1, 64984, Note_on_c, 0, 67, 41
1, 65028, Note_on_c, 0, 59, 0
1, 65045, Note_on_c, 0, 67, 0
1, 65070, Note_on_c, 0, 71, 49
1, 65113, Note_on_c, 0, 62, 0
1, 65139, Note_on_c, 0, 67, 48
1, 65153, Note_on_c, 0, 81, 0
1, 65168, Note_on_c, 0, 71, 0
1, 65191, Note_on_c, 0, 79, 65
1, 65223, Note_on_c, 0, 79, 0
1, 65230, Note_on_c, 0, 67, 0
1, 65255, Note_on_c, 0, 59, 57
1, 65396, Note_on_c, 0, 64, 66
1, 65444, Control_c, 0, 64, 104
1, 65450, Control_c, 0, 64, 24
1, 65454, Note_on_c, 0, 71, 69
1, 65458, Control_c, 0, 64, 0
1, 65485, Control_c, 0, 64, 24
1, 65491, Control_c, 0, 64, 56
1, 65497, Control_c, 0, 64, 88
1, 65503, Control_c, 0, 64, 127
1, 65611, Note_on_c, 0, 67, 48
1, 65640, Note_on_c, 0, 64, 0
1, 65674, Note_on_c, 0, 67, 0
1, 65695, Note_on_c, 0, 69, 48
1, 65758, Note_on_c, 0, 59, 0
1, 65766, Note_on_c, 0, 69, 0
1, 65771, Note_on_c, 0, 67, 54
1, 65836, Note_on_c, 0, 67, 0
1, 65845, Note_on_c, 0, 59, 61
1, 65934, Note_on_c, 0, 62, 72
1, 66050, Note_on_c, 0, 66, 56
1, 66120, Note_on_c, 0, 66, 0
1, 66120, Note_on_c, 0, 62, 0
1, 66132, Note_on_c, 0, 67, 41
1, 66192, Note_on_c, 0, 59, 0
1, 66205, Note_on_c, 0, 66, 63
1, 66244, Note_on_c, 0, 67, 0
1, 66273, Note_on_c, 0, 66, 0
1, 66296, Note_on_c, 0, 59, 71
1, 66398, Note_on_c, 0, 64, 71
1, 66511, Note_on_c, 0, 67, 45
1, 66561, Note_on_c, 0, 64, 0
1, 66590, Note_on_c, 0, 67, 0
1, 66602, Note_on_c, 0, 69, 53
1, 66676, Note_on_c, 0, 67, 55
1, 66681, Note_on_c, 0, 59, 0
1, 66687, Note_on_c, 0, 71, 0
1, 66706, Note_on_c, 0, 72, 87
1, 66707, Note_on_c, 0, 69, 0
1, 66797, Note_on_c, 0, 67, 0
1, 66802, Note_on_c, 0, 59, 73
1, 66956, Note_on_c, 0, 62, 64
1, 66970, Note_on_c, 0, 74, 87
1, 66988, Control_c, 0, 64, 72
1, 66992, Note_on_c, 0, 72, 0
1, 66995, Control_c, 0, 64, 0
1, 67051, Control_c, 0, 64, 24
1, 67057, Control_c, 0, 64, 72
1, 67063, Control_c, 0, 64, 127
1, 67129, Note_on_c, 0, 66, 63
1, 67194, Note_on_c, 0, 66, 0
1, 67202, Note_on_c, 0, 67, 57
1, 67279, Note_on_c, 0, 66, 63
1, 67282, Note_on_c, 0, 67, 0
1, 67282, Note_on_c, 0, 59, 0
1, 67342, Note_on_c, 0, 62, 0
1, 67362, Note_on_c, 0, 66, 0
1, 67364, Note_on_c, 0, 59, 73
1, 67474, Note_on_c, 0, 64, 67
1, 67496, Control_c, 0, 64, 88
1, 67502, Control_c, 0, 64, 0
1, 67540, Control_c, 0, 64, 24
1, 67546, Control_c, 0, 64, 72
1, 67552, Control_c, 0, 64, 127
1, 67575, Note_on_c, 0, 67, 52
1, 67656, Note_on_c, 0, 64, 0
1, 67667, Note_on_c, 0, 67, 0
1, 67675, Note_on_c, 0, 69, 53
1, 67754, Note_on_c, 0, 74, 0
1, 67760, Note_on_c, 0, 67, 58
1, 67772, Note_on_c, 0, 59, 0
1, 67789, Note_on_c, 0, 69, 0
1, 67860, Note_on_c, 0, 67, 0
1, 67862, Note_on_c, 0, 59, 67
1, 67985, Note_on_c, 0, 62, 72
1, 68027, Control_c, 0, 64, 104
1, 68033, Control_c, 0, 64, 24
1, 68036, Note_on_c, 0, 54, 89
1, 68041, Control_c, 0, 64, 0
1, 68089, Control_c, 0, 64, 24
1, 68096, Control_c, 0, 64, 72
1, 68101, Control_c, 0, 64, 127
1, 68148, Note_on_c, 0, 66, 70
1, 68252, Note_on_c, 0, 72, 65
1, 68256, Note_on_c, 0, 66, 0
1, 68274, Note_on_c, 0, 62, 0
1, 68348, Note_on_c, 0, 66, 72
1, 68417, Note_on_c, 0, 72, 0
1, 68441, Control_c, 0, 67, 24
1, 68446, Control_c, 0, 67, 40
1, 68447, Note_on_c, 0, 62, 62
1, 68454, Control_c, 0, 67, 56
1, 68460, Control_c, 0, 67, 72
1, 68467, Control_c, 0, 67, 88
1, 68469, Note_on_c, 0, 59, 0
1, 68472, Control_c, 0, 67, 104
1, 68474, Control_c, 0, 67, 127
1, 68541, Note_on_c, 0, 62, 0
1, 68560, Note_on_c, 0, 60, 65
1, 68582, Control_c, 0, 64, 72
1, 68588, Control_c, 0, 64, 0
1, 68609, Note_on_c, 0, 66, 0
1, 68623, Control_c, 0, 64, 24
1, 68629, Control_c, 0, 64, 56
1, 68635, Control_c, 0, 64, 104
1, 68641, Control_c, 0, 64, 127
1, 68670, Note_on_c, 0, 64, 60
1, 68758, Note_on_c, 0, 64, 0
1, 68764, Note_on_c, 0, 52, 76
1, 68772, Note_on_c, 0, 72, 49
1, 68863, Note_on_c, 0, 54, 0
1, 68890, Note_on_c, 0, 64, 40
1, 68898, Note_on_c, 0, 60, 0
1, 68936, Note_on_c, 0, 72, 0
1, 68988, Note_on_c, 0, 50, 71
1, 68991, Note_on_c, 0, 52, 0
1, 69057, Note_on_c, 0, 64, 0
1, 69064, Note_on_c, 0, 50, 0
1, 69084, Note_on_c, 0, 59, 58
1, 69134, Note_on_c, 0, 59, 0
1, 69278, Note_on_c, 0, 59, 51
1, 69291, Note_on_c, 0, 43, 60
1, 69295, Note_on_c, 0, 50, 66
1, 69321, Control_c, 0, 64, 88
1, 69327, Control_c, 0, 64, 24
1, 69334, Control_c, 0, 64, 0
1, 69383, Control_c, 0, 64, 72
1, 69385, Control_c, 0, 64, 24
1, 69387, Control_c, 0, 64, 0
1, 69456, Control_c, 0, 64, 127
1, 69462, Note_on_c, 0, 62, 51
1, 69554, Note_on_c, 0, 71, 50
1, 69560, Note_on_c, 0, 62, 0
1, 69637, Note_on_c, 0, 62, 54
1, 69643, Note_on_c, 0, 71, 0
1, 69670, Note_on_c, 0, 50, 0
1, 69670, Note_on_c, 0, 43, 0
1, 69689, Note_on_c, 0, 62, 0
1, 69698, Note_on_c, 0, 59, 0
1, 69724, Note_on_c, 0, 55, 64
1, 69816, Note_on_c, 0, 62, 70
1, 69830, Note_on_c, 0, 55, 0
1, 69916, Note_on_c, 0, 72, 53
1, 69931, Control_c, 0, 64, 40
1, 69934, Control_c, 0, 64, 56
1, 69936, Control_c, 0, 64, 88
1, 69938, Control_c, 0, 64, 104
1, 69940, Control_c, 0, 64, 127
1, 69953, Note_on_c, 0, 78, 72
1, 69957, Note_on_c, 0, 74, 55
1, 69977, Note_on_c, 0, 74, 0
1, 69989, Note_on_c, 0, 62, 0
1, 70003, Note_on_c, 0, 66, 61
1, 70007, Note_on_c, 0, 72, 0
1, 70014, Note_on_c, 0, 78, 0
1, 70057, Note_on_c, 0, 76, 72
1, 70060, Note_on_c, 0, 73, 70
1, 70080, Note_on_c, 0, 73, 0
1, 70089, Note_on_c, 0, 66, 0
1, 70104, Note_on_c, 0, 62, 59
1, 70124, Note_on_c, 0, 76, 0
1, 70157, Note_on_c, 0, 74, 80
1, 70159, Note_on_c, 0, 72, 69
1, 70179, Note_on_c, 0, 72, 0
1, 70188, Note_on_c, 0, 74, 0
1, 70188, Note_on_c, 0, 62, 0
1, 70192, Note_on_c, 0, 55, 71
1, 70258, Control_c, 0, 64, 104
1, 70261, Control_c, 0, 64, 24
1, 70263, Control_c, 0, 64, 0
1, 70265, Note_on_c, 0, 62, 72
1, 70297, Note_on_c, 0, 79, 80
1, 70300, Note_on_c, 0, 71, 74
1, 70358, Control_c, 0, 64, 24
1, 70359, Note_on_c, 0, 71, 0
1, 70361, Control_c, 0, 64, 56
1, 70363, Control_c, 0, 64, 72
1, 70366, Control_c, 0, 64, 88
1, 70369, Control_c, 0, 64, 104
1, 70372, Control_c, 0, 64, 127
1, 70391, Note_on_c, 0, 67, 61
1, 70434, Note_on_c, 0, 72, 65
1, 70475, Note_on_c, 0, 62, 0
1, 70488, Note_on_c, 0, 64, 55
1, 70528, Note_on_c, 0, 72, 0
1, 70534, Note_on_c, 0, 74, 77
1, 70543, Note_on_c, 0, 67, 0
1, 70557, Note_on_c, 0, 55, 0
1, 70561, Note_on_c, 0, 62, 63
1, 70593, Note_on_c, 0, 64, 0
1, 70622, Note_on_c, 0, 74, 0
1, 70634, Note_on_c, 0, 55, 71
1, 70638, Note_on_c, 0, 62, 0
1, 70639, Note_on_c, 0, 79, 0
1, 70659, Note_on_c, 0, 79, 39
1, 70662, Note_on_c, 0, 76, 75
1, 70687, Note_on_c, 0, 76, 0
1, 70692, Note_on_c, 0, 79, 0
1, 70723, Note_on_c, 0, 63, 68
1, 70740, Control_c, 0, 64, 88
1, 70743, Control_c, 0, 64, 0
1, 70766, Note_on_c, 0, 77, 74
1, 70797, Control_c, 0, 64, 24
1, 70800, Control_c, 0, 64, 72
1, 70803, Control_c, 0, 64, 104
1, 70806, Control_c, 0, 64, 127
1, 70828, Note_on_c, 0, 72, 61
1, 70837, Note_on_c, 0, 63, 0
1, 70859, Note_on_c, 0, 77, 0
1, 70863, Note_on_c, 0, 80, 79
1, 70865, Note_on_c, 0, 78, 74
1, 70874, Note_on_c, 0, 55, 0
1, 70881, Note_on_c, 0, 78, 0
1, 70889, Note_on_c, 0, 80, 0
1, 70913, Note_on_c, 0, 63, 71
1, 70917, Note_on_c, 0, 72, 0
1, 70959, Note_on_c, 0, 81, 80
1, 70961, Note_on_c, 0, 75, 77
1, 70991, Note_on_c, 0, 81, 0
1, 70998, Note_on_c, 0, 63, 0
1, 70999, Note_on_c, 0, 75, 0
1, 71005, Note_on_c, 0, 62, 60
1, 71045, Note_on_c, 0, 82, 79
1, 71049, Note_on_c, 0, 74, 64
1, 71059, Note_on_c, 0, 74, 0
1, 71073, Note_on_c, 0, 82, 0
1, 71081, Note_on_c, 0, 62, 0
1, 71088, Note_on_c, 0, 55, 63
1, 71147, Note_on_c, 0, 62, 65
1, 71157, Control_c, 0, 64, 104
1, 71160, Control_c, 0, 64, 0
1, 71182, Note_on_c, 0, 83, 78
1, 71184, Note_on_c, 0, 79, 71
1, 71247, Control_c, 0, 64, 40
1, 71250, Control_c, 0, 64, 72
1, 71253, Control_c, 0, 64, 104
1, 71256, Control_c, 0, 64, 127
1, 71258, Note_on_c, 0, 71, 55
1, 71292, Note_on_c, 0, 79, 0
1, 71292, Note_on_c, 0, 83, 0
1, 71298, Note_on_c, 0, 84, 67
1, 71299, Note_on_c, 0, 81, 70
1, 71309, Note_on_c, 0, 62, 0
1, 71316, Note_on_c, 0, 81, 0
1, 71321, Note_on_c, 0, 84, 0
1, 71328, Note_on_c, 0, 55, 0
1, 71332, Note_on_c, 0, 71, 0
1, 71349, Note_on_c, 0, 67, 48
1, 71397, Note_on_c, 0, 85, 63
1, 71397, Note_on_c, 0, 82, 57
1, 71417, Note_on_c, 0, 82, 0
1, 71429, Note_on_c, 0, 85, 0
1, 71442, Note_on_c, 0, 62, 59
1, 71445, Note_on_c, 0, 67, 0
1, 71493, Note_on_c, 0, 86, 60
1, 71494, Note_on_c, 0, 83, 57
1, 71496, Note_on_c, 0, 62, 0
1, 71521, Note_on_c, 0, 86, 0
1, 71523, Note_on_c, 0, 55, 53
1, 71545, Note_on_c, 0, 83, 0
1, 71592, Note_on_c, 0, 64, 54
1, 71603, Control_c, 0, 64, 72
1, 71605, Control_c, 0, 64, 0
1, 71620, Note_on_c, 0, 88, 57
1, 71621, Note_on_c, 0, 84, 61
1, 71630, Control_c, 0, 64, 24
1, 71633, Control_c, 0, 64, 72
1, 71636, Control_c, 0, 64, 127
1, 71640, Note_on_c, 0, 88, 0
1, 71643, Note_on_c, 0, 84, 0
1, 71690, Note_on_c, 0, 72, 40
1, 71721, Note_on_c, 0, 64, 0
1, 71737, Note_on_c, 0, 78, 66
1, 71742, Note_on_c, 0, 74, 56
1, 71763, Note_on_c, 0, 55, 0
1, 71766, Note_on_c, 0, 74, 0
1, 71766, Note_on_c, 0, 78, 0
1, 71767, Note_on_c, 0, 72, 0
1, 71784, Note_on_c, 0, 66, 48
1, 71847, Note_on_c, 0, 73, 51
1, 71848, Note_on_c, 0, 76, 56
1, 71884, Note_on_c, 0, 73, 0
1, 71886, Note_on_c, 0, 76, 0
1, 71892, Note_on_c, 0, 66, 0
1, 71903, Note_on_c, 0, 62, 52
1, 71966, Note_on_c, 0, 74, 62
1, 71968, Note_on_c, 0, 72, 50
1, 71986, Note_on_c, 0, 74, 0
1, 71998, Note_on_c, 0, 72, 0
1, 72020, Note_on_c, 0, 62, 0
1, 72032, Note_on_c, 0, 55, 51
1, 72120, Note_on_c, 0, 62, 58
1, 72159, Control_c, 0, 64, 88
1, 72162, Control_c, 0, 64, 0
1, 72164, Note_on_c, 0, 79, 61
1, 72168, Note_on_c, 0, 71, 49
1, 72203, Control_c, 0, 64, 40
1, 72206, Control_c, 0, 64, 88
1, 72209, Control_c, 0, 64, 127
1, 72235, Note_on_c, 0, 71, 0
1, 72272, Note_on_c, 0, 55, 0
1, 72284, Note_on_c, 0, 67, 50
1, 72346, Note_on_c, 0, 72, 54
1, 72409, Note_on_c, 0, 62, 0
1, 72414, Note_on_c, 0, 64, 52
1, 72466, Note_on_c, 0, 74, 67
1, 72469, Note_on_c, 0, 72, 0
1, 72506, Note_on_c, 0, 67, 0
1, 72509, Note_on_c, 0, 62, 55
1, 72528, Note_on_c, 0, 74, 0
1, 72559, Control_c, 0, 67, 104
1, 72571, Note_on_c, 0, 76, 66
1, 72576, Control_c, 0, 67, 88
1, 72585, Control_c, 0, 67, 72
1, 72603, Control_c, 0, 67, 56
1, 72611, Note_on_c, 0, 62, 0
1, 72612, Note_on_c, 0, 76, 0
1, 72622, Note_on_c, 0, 55, 52
1, 72624, Note_on_c, 0, 64, 0
1, 72635, Note_on_c, 0, 79, 0
1, 72680, Control_c, 0, 67, 72
1, 72690, Control_c, 0, 64, 88
1, 72692, Note_on_c, 0, 63, 54
1, 72695, Control_c, 0, 64, 0
1, 72696, Control_c, 0, 67, 88
1, 72707, Note_on_c, 0, 77, 65
1, 72710, Control_c, 0, 67, 72
1, 72715, Control_c, 0, 64, 24
1, 72718, Control_c, 0, 64, 72
1, 72720, Control_c, 0, 67, 56
1, 72721, Control_c, 0, 64, 127
1, 72728, Control_c, 0, 67, 40
1, 72746, Control_c, 0, 67, 24
1, 72748, Note_on_c, 0, 77, 0
1, 72757, Control_c, 0, 67, 0
1, 72778, Note_on_c, 0, 72, 49
1, 72794, Note_on_c, 0, 63, 0
1, 72820, Note_on_c, 0, 80, 61
1, 72823, Note_on_c, 0, 78, 50
1, 72837, Note_on_c, 0, 78, 0
1, 72842, Note_on_c, 0, 80, 0
1, 72862, Note_on_c, 0, 55, 0
1, 72868, Note_on_c, 0, 72, 0
1, 72880, Note_on_c, 0, 63, 54
1, 72934, Note_on_c, 0, 81, 67
1, 72936, Note_on_c, 0, 75, 54
1, 72957, Note_on_c, 0, 81, 0
1, 72964, Note_on_c, 0, 63, 0
1, 72971, Note_on_c, 0, 75, 0
1, 72982, Note_on_c, 0, 62, 46
1, 73032, Note_on_c, 0, 82, 68
1, 73039, Note_on_c, 0, 74, 41
1, 73049, Note_on_c, 0, 74, 0
1, 73058, Note_on_c, 0, 62, 0
1, 73060, Note_on_c, 0, 82, 0
1, 73079, Note_on_c, 0, 55, 59
1, 73118, Control_c, 0, 64, 104
1, 73121, Control_c, 0, 64, 24
1, 73124, Control_c, 0, 64, 0
1, 73132, Control_c, 0, 64, 24
1, 73134, Note_on_c, 0, 83, 60
1, 73136, Note_on_c, 0, 79, 52
1, 73137, Control_c, 0, 64, 72
1, 73140, Note_on_c, 0, 62, 52
1, 73141, Control_c, 0, 64, 127
1, 73177, Note_on_c, 0, 79, 0
1, 73190, Note_on_c, 0, 83, 0
1, 73198, Note_on_c, 0, 71, 56
1, 73227, Note_on_c, 0, 84, 67
1, 73230, Note_on_c, 0, 81, 63
1, 73239, Note_on_c, 0, 81, 0
1, 73247, Note_on_c, 0, 84, 0
1, 73261, Note_on_c, 0, 62, 0
1, 73278, Note_on_c, 0, 67, 53
1, 73279, Note_on_c, 0, 71, 0
1, 73319, Note_on_c, 0, 55, 0
1, 73319, Note_on_c, 0, 85, 74
1, 73321, Note_on_c, 0, 82, 60
1, 73331, Control_c, 0, 67, 40
1, 73335, Control_c, 0, 67, 56
1, 73337, Control_c, 0, 67, 72
1, 73339, Control_c, 0, 67, 104
1, 73340, Note_on_c, 0, 82, 0
1, 73341, Control_c, 0, 67, 127
1, 73355, Note_on_c, 0, 85, 0
1, 73368, Note_on_c, 0, 62, 43
1, 73378, Note_on_c, 0, 67, 0
1, 73421, Note_on_c, 0, 86, 64
1, 73423, Note_on_c, 0, 83, 57
1, 73452, Note_on_c, 0, 83, 0
1, 73454, Note_on_c, 0, 62, 0
1, 73457, Note_on_c, 0, 86, 0
1, 73466, Note_on_c, 0, 55, 57
1, 73532, Note_on_c, 0, 64, 51
1, 73542, Control_c, 0, 64, 72
1, 73545, Control_c, 0, 64, 0
1, 73546, Note_on_c, 0, 84, 65
1, 73547, Note_on_c, 0, 88, 59
1, 73562, Control_c, 0, 64, 24
1, 73565, Control_c, 0, 64, 72
1, 73568, Control_c, 0, 64, 127
1, 73570, Note_on_c, 0, 84, 0
1, 73576, Note_on_c, 0, 88, 0
1, 73609, Note_on_c, 0, 72, 52
1, 73648, Note_on_c, 0, 64, 0
1, 73657, Note_on_c, 0, 90, 63
1, 73657, Note_on_c, 0, 80, 59
1, 73686, Note_on_c, 0, 80, 0
1, 73692, Note_on_c, 0, 90, 0
1, 73706, Note_on_c, 0, 55, 0
1, 73710, Note_on_c, 0, 66, 50
1, 73719, Note_on_c, 0, 72, 0
1, 73773, Note_on_c, 0, 88, 63
1, 73775, Note_on_c, 0, 81, 58
1, 73814, Note_on_c, 0, 81, 0
1, 73821, Note_on_c, 0, 66, 0
1, 73827, Note_on_c, 0, 62, 47
1, 73843, Note_on_c, 0, 88, 0
1, 73896, Note_on_c, 0, 82, 50
1, 73899, Note_on_c, 0, 86, 61
1, 73938, Note_on_c, 0, 82, 0
1, 73941, Note_on_c, 0, 86, 0
1, 73962, Note_on_c, 0, 62, 0
1, 73975, Note_on_c, 0, 55, 55
1, 74069, Note_on_c, 0, 62, 57
1, 74088, Control_c, 0, 64, 104
1, 74091, Control_c, 0, 64, 24
1, 74094, Control_c, 0, 64, 0
1, 74103, Note_on_c, 0, 91, 66
1, 74105, Note_on_c, 0, 83, 58
1, 74108, Control_c, 0, 64, 40
1, 74111, Control_c, 0, 64, 72
1, 74114, Control_c, 0, 64, 127
1, 74157, Note_on_c, 0, 83, 0
1, 74161, Note_on_c, 0, 91, 0
1, 74174, Control_c, 0, 67, 104
1, 74179, Control_c, 0, 67, 88
1, 74184, Control_c, 0, 67, 72
1, 74199, Control_c, 0, 67, 56
1, 74206, Control_c, 0, 67, 40
1, 74215, Note_on_c, 0, 55, 0
1, 74267, Note_on_c, 0, 71, 47
1, 74305, Control_c, 0, 67, 24
1, 74306, Note_on_c, 0, 62, 0
1, 74327, Note_on_c, 0, 90, 53
1, 74328, Control_c, 0, 67, 0
1, 74332, Note_on_c, 0, 81, 49
1, 74368, Note_on_c, 0, 81, 0
1, 74392, Note_on_c, 0, 71, 0
1, 74400, Note_on_c, 0, 67, 44
1, 74418, Note_on_c, 0, 90, 0
1, 74463, Note_on_c, 0, 88, 57
1, 74464, Note_on_c, 0, 82, 50
1, 74499, Note_on_c, 0, 82, 0
1, 74522, Note_on_c, 0, 62, 51
1, 74548, Note_on_c, 0, 88, 0
1, 74556, Note_on_c, 0, 67, 0
1, 74579, Note_on_c, 0, 86, 55
1, 74580, Note_on_c, 0, 83, 57
1, 74615, Note_on_c, 0, 83, 0
1, 74617, Note_on_c, 0, 62, 0
1, 74630, Note_on_c, 0, 55, 64
1, 74634, Note_on_c, 0, 86, 0
1, 74693, Note_on_c, 0, 64, 55
1, 74696, Note_on_c, 0, 91, 62
1, 74699, Note_on_c, 0, 84, 53
1, 74716, Note_on_c, 0, 91, 0
1, 74721, Note_on_c, 0, 84, 0
1, 74761, Note_on_c, 0, 72, 55
1, 74788, Note_on_c, 0, 64, 0
1, 74808, Note_on_c, 0, 90, 65
1, 74810, Note_on_c, 0, 80, 53
1, 74837, Note_on_c, 0, 80, 0
1, 74854, Note_on_c, 0, 90, 0
1, 74862, Note_on_c, 0, 66, 53
1, 74870, Note_on_c, 0, 55, 0
1, 74895, Note_on_c, 0, 72, 0
1, 74913, Note_on_c, 0, 88, 70
1, 74914, Note_on_c, 0, 81, 66
1, 74936, Note_on_c, 0, 81, 0
1, 74957, Note_on_c, 0, 62, 59
1, 74973, Note_on_c, 0, 66, 0
1, 74999, Note_on_c, 0, 88, 0
1, 75011, Note_on_c, 0, 82, 59
1, 75013, Note_on_c, 0, 86, 66
1, 75048, Note_on_c, 0, 62, 0
1, 75049, Note_on_c, 0, 86, 0
1, 75049, Note_on_c, 0, 82, 0
1, 75053, Note_on_c, 0, 55, 66
1, 75092, Control_c, 0, 64, 104
1, 75095, Control_c, 0, 64, 24
1, 75098, Control_c, 0, 64, 0
1, 75104, Control_c, 0, 64, 24
1, 75108, Control_c, 0, 64, 56
1, 75110, Note_on_c, 0, 91, 75
1, 75111, Control_c, 0, 64, 88
1, 75113, Note_on_c, 0, 83, 62
1, 75115, Control_c, 0, 64, 127
1, 75118, Note_on_c, 0, 62, 52
1, 75122, Control_c, 0, 67, 40
1, 75125, Control_c, 0, 67, 56
1, 75127, Control_c, 0, 67, 72
1, 75129, Control_c, 0, 67, 104
1, 75132, Control_c, 0, 67, 127
1, 75136, Note_on_c, 0, 83, 0
1, 75141, Note_on_c, 0, 91, 0
1, 75172, Note_on_c, 0, 71, 55
1, 75213, Note_on_c, 0, 90, 60
1, 75218, Note_on_c, 0, 81, 66
1, 75234, Note_on_c, 0, 62, 0
1, 75244, Note_on_c, 0, 81, 0
1, 75258, Note_on_c, 0, 71, 0
1, 75258, Note_on_c, 0, 67, 49
1, 75273, Note_on_c, 0, 90, 0
1, 75293, Note_on_c, 0, 55, 0
1, 75312, Note_on_c, 0, 88, 66
1, 75313, Note_on_c, 0, 82, 54
1, 75336, Note_on_c, 0, 82, 0
1, 75361, Note_on_c, 0, 62, 46
1, 75372, Note_on_c, 0, 88, 0
1, 75396, Note_on_c, 0, 67, 0
1, 75416, Note_on_c, 0, 83, 57
1, 75417, Note_on_c, 0, 86, 55
1, 75449, Note_on_c, 0, 62, 0
1, 75457, Note_on_c, 0, 86, 0
1, 75463, Note_on_c, 0, 55, 55
1, 75466, Note_on_c, 0, 83, 0
1, 75531, Note_on_c, 0, 64, 61
1, 75535, Note_on_c, 0, 91, 59
1, 75537, Note_on_c, 0, 84, 51
1, 75556, Note_on_c, 0, 91, 0
1, 75561, Note_on_c, 0, 84, 0
1, 75596, Note_on_c, 0, 72, 48
1, 75645, Note_on_c, 0, 64, 0
1, 75659, Note_on_c, 0, 90, 58
1, 75661, Note_on_c, 0, 80, 53
1, 75702, Note_on_c, 0, 80, 0
1, 75703, Note_on_c, 0, 90, 0
1, 75703, Note_on_c, 0, 55, 0
1, 75722, Note_on_c, 0, 66, 56
1, 75726, Note_on_c, 0, 72, 0
1, 75796, Note_on_c, 0, 88, 59
1, 75799, Note_on_c, 0, 81, 52
1, 75855, Note_on_c, 0, 81, 0
1, 75870, Note_on_c, 0, 62, 50
1, 75881, Note_on_c, 0, 66, 0
1, 75900, Note_on_c, 0, 88, 0
1, 75957, Note_on_c, 0, 82, 43
1, 75957, Note_on_c, 0, 86, 59
1, 76001, Note_on_c, 0, 82, 0
1, 76005, Note_on_c, 0, 86, 0
1, 76027, Note_on_c, 0, 62, 0
1, 76046, Note_on_c, 0, 55, 57
1, 76153, Note_on_c, 0, 62, 52
1, 76170, Note_on_c, 0, 83, 45
1, 76171, Note_on_c, 0, 91, 62
1, 76206, Note_on_c, 0, 83, 0
1, 76235, Note_on_c, 0, 91, 0
1, 76286, Note_on_c, 0, 55, 0
1, 76334, Note_on_c, 0, 62, 0
1, 76368, Note_on_c, 0, 93, 34
1, 76452, Note_on_c, 0, 71, 66
1, 76489, Note_on_c, 0, 93, 0
1, 76504, Note_on_c, 0, 91, 40
1, 76582, Note_on_c, 0, 91, 0
1, 76593, Note_on_c, 0, 93, 47
1, 76647, Note_on_c, 0, 93, 0
1, 76664, Note_on_c, 0, 91, 43
1, 76708, Note_on_c, 0, 91, 0
1, 76722, Note_on_c, 0, 93, 45
1, 76749, Note_on_c, 0, 64, 52
1, 76760, Note_on_c, 0, 93, 0
1, 76771, Note_on_c, 0, 91, 37
1, 76815, Note_on_c, 0, 91, 0
1, 76827, Note_on_c, 0, 93, 44
1, 76847, Note_on_c, 0, 93, 0
1, 76871, Note_on_c, 0, 91, 38
1, 76912, Note_on_c, 0, 91, 0
1, 76912, Note_on_c, 0, 62, 51
1, 76922, Note_on_c, 0, 93, 45
1, 76941, Note_on_c, 0, 93, 0
1, 76966, Note_on_c, 0, 91, 47
1, 76998, Note_on_c, 0, 91, 0
1, 77014, Note_on_c, 0, 93, 46
1, 77030, Note_on_c, 0, 55, 58
1, 77031, Note_on_c, 0, 93, 0
1, 77048, Note_on_c, 0, 91, 43
1, 77055, Note_on_c, 0, 64, 0
1, 77077, Note_on_c, 0, 71, 0
1, 77079, Note_on_c, 0, 91, 0
1, 77091, Note_on_c, 0, 93, 48
1, 77098, Note_on_c, 0, 62, 0
1, 77108, Note_on_c, 0, 93, 0
1, 77124, Note_on_c, 0, 91, 49
1, 77158, Note_on_c, 0, 59, 71
1, 77159, Note_on_c, 0, 91, 0
1, 77166, Note_on_c, 0, 55, 0
1, 77167, Note_on_c, 0, 93, 55
1, 77184, Note_on_c, 0, 93, 0
1, 77202, Note_on_c, 0, 91, 49
1, 77238, Note_on_c, 0, 91, 0
1, 77244, Note_on_c, 0, 93, 58
1, 77261, Note_on_c, 0, 93, 0
1, 77280, Note_on_c, 0, 91, 48
1, 77315, Note_on_c, 0, 91, 0
1, 77318, Note_on_c, 0, 93, 63
1, 77322, Note_on_c, 0, 74, 73
1, 77335, Note_on_c, 0, 93, 0
1, 77359, Note_on_c, 0, 91, 57
1, 77364, Note_on_c, 0, 59, 0
1, 77391, Note_on_c, 0, 93, 64
1, 77394, Note_on_c, 0, 91, 0
1, 77423, Note_on_c, 0, 93, 0
1, 77431, Note_on_c, 0, 91, 64
1, 77466, Note_on_c, 0, 91, 0
1, 77468, Note_on_c, 0, 93, 57
1, 77486, Note_on_c, 0, 93, 0
1, 77502, Note_on_c, 0, 91, 62
1, 77520, Note_on_c, 0, 66, 64
1, 77537, Note_on_c, 0, 91, 0
1, 77542, Note_on_c, 0, 93, 58
1, 77561, Note_on_c, 0, 93, 0
1, 77580, Note_on_c, 0, 91, 56
1, 77614, Note_on_c, 0, 91, 0
1, 77614, Note_on_c, 0, 93, 60
1, 77636, Note_on_c, 0, 93, 0
1, 77640, Note_on_c, 0, 66, 0
1, 77643, Note_on_c, 0, 64, 67
1, 77658, Note_on_c, 0, 91, 57
1, 77692, Note_on_c, 0, 91, 0
1, 77693, Note_on_c, 0, 93, 60
1, 77712, Note_on_c, 0, 93, 0
1, 77732, Note_on_c, 0, 91, 53
1, 77746, Note_on_c, 0, 59, 67
1, 77755, Note_on_c, 0, 64, 0
1, 77766, Note_on_c, 0, 91, 0
1, 77767, Note_on_c, 0, 93, 64
1, 77778, Note_on_c, 0, 74, 0
1, 77797, Note_on_c, 0, 93, 0
1, 77805, Note_on_c, 0, 91, 60
1, 77838, Note_on_c, 0, 91, 0
1, 77839, Note_on_c, 0, 93, 67
1, 77859, Note_on_c, 0, 62, 70
1, 77870, Note_on_c, 0, 93, 0
1, 77876, Note_on_c, 0, 91, 66
1, 77880, Note_on_c, 0, 59, 0
1, 77903, Control_c, 0, 64, 24
1, 77914, Note_on_c, 0, 91, 0
1, 77915, Note_on_c, 0, 93, 61
1, 77927, Control_c, 0, 64, 40
1, 77935, Note_on_c, 0, 93, 0
1, 77941, Control_c, 0, 64, 56
1, 77950, Note_on_c, 0, 91, 62
1, 77958, Control_c, 0, 64, 72
1, 77973, Control_c, 0, 64, 88
1, 77984, Note_on_c, 0, 91, 0
1, 77985, Note_on_c, 0, 79, 71
1, 77987, Control_c, 0, 64, 104
1, 77988, Note_on_c, 0, 93, 61
1, 78006, Control_c, 0, 64, 127
1, 78007, Note_on_c, 0, 93, 0
1, 78024, Note_on_c, 0, 91, 59
1, 78056, Note_on_c, 0, 62, 0
1, 78060, Note_on_c, 0, 91, 0
1, 78065, Note_on_c, 0, 93, 61
1, 78098, Note_on_c, 0, 93, 0
1, 78112, Note_on_c, 0, 91, 59
1, 78126, Note_on_c, 0, 72, 48
1, 78148, Note_on_c, 0, 91, 0
1, 78149, Note_on_c, 0, 93, 51
1, 78188, Note_on_c, 0, 93, 0
1, 78199, Note_on_c, 0, 91, 48
1, 78236, Note_on_c, 0, 91, 0
1, 78247, Note_on_c, 0, 93, 55
1, 78260, Note_on_c, 0, 71, 51
1, 78266, Note_on_c, 0, 93, 0
1, 78273, Note_on_c, 0, 72, 0
1, 78281, Note_on_c, 0, 91, 50
1, 78317, Note_on_c, 0, 91, 0
1, 78327, Note_on_c, 0, 93, 56
1, 78344, Note_on_c, 0, 93, 0
1, 78368, Note_on_c, 0, 91, 38
1, 78387, Note_on_c, 0, 62, 51
1, 78407, Note_on_c, 0, 91, 0
1, 78413, Note_on_c, 0, 93, 53
1, 78424, Note_on_c, 0, 71, 0
1, 78430, Note_on_c, 0, 93, 0
1, 78441, Note_on_c, 0, 79, 0
1, 78458, Note_on_c, 0, 91, 36
1, 78494, Note_on_c, 0, 91, 0
1, 78497, Note_on_c, 0, 93, 57
1, 78516, Note_on_c, 0, 93, 0
1, 78537, Note_on_c, 0, 67, 49
1, 78545, Note_on_c, 0, 91, 46
1, 78552, Note_on_c, 0, 62, 0
1, 78578, Note_on_c, 0, 91, 0
1, 78585, Note_on_c, 0, 93, 56
1, 78605, Note_on_c, 0, 93, 0
1, 78627, Note_on_c, 0, 91, 52
1, 78660, Note_on_c, 0, 91, 0
1, 78671, Note_on_c, 0, 93, 55
1, 78687, Note_on_c, 0, 93, 0
1, 78703, Note_on_c, 0, 83, 59
1, 78708, Note_on_c, 0, 91, 50
1, 78743, Note_on_c, 0, 91, 0
1, 78756, Note_on_c, 0, 93, 58
1, 78776, Note_on_c, 0, 93, 0
1, 78798, Note_on_c, 0, 67, 0
1, 78801, Note_on_c, 0, 91, 48
1, 78838, Note_on_c, 0, 91, 0
1, 78846, Note_on_c, 0, 93, 55
1, 78864, Note_on_c, 0, 93, 0
1, 78897, Note_on_c, 0, 91, 45
1, 78933, Note_on_c, 0, 91, 0
1, 78941, Note_on_c, 0, 93, 50
1, 78951, Note_on_c, 0, 78, 49
1, 78961, Note_on_c, 0, 93, 0
1, 78991, Note_on_c, 0, 91, 45
1, 79026, Note_on_c, 0, 91, 0
1, 79037, Note_on_c, 0, 93, 48
1, 79058, Note_on_c, 0, 93, 0
1, 79086, Note_on_c, 0, 91, 46
1, 79123, Note_on_c, 0, 91, 0
1, 79135, Note_on_c, 0, 76, 51
1, 79141, Note_on_c, 0, 93, 48
1, 79154, Note_on_c, 0, 78, 0
1, 79160, Note_on_c, 0, 93, 0
1, 79183, Note_on_c, 0, 91, 39
1, 79219, Note_on_c, 0, 91, 0
1, 79234, Note_on_c, 0, 93, 51
1, 79260, Note_on_c, 0, 93, 0
1, 79289, Note_on_c, 0, 91, 40
1, 79325, Note_on_c, 0, 91, 0
1, 79330, Note_on_c, 0, 71, 50
1, 79334, Note_on_c, 0, 76, 0
1, 79334, Note_on_c, 0, 83, 0
1, 79338, Note_on_c, 0, 93, 42
1, 79380, Note_on_c, 0, 93, 0
1, 79397, Note_on_c, 0, 91, 41
1, 79432, Note_on_c, 0, 91, 0
1, 79448, Note_on_c, 0, 93, 49
1, 79468, Note_on_c, 0, 93, 0
1, 79500, Note_on_c, 0, 91, 38
1, 79539, Note_on_c, 0, 91, 0
1, 79550, Note_on_c, 0, 93, 50
1, 79561, Note_on_c, 0, 74, 37
1, 79569, Note_on_c, 0, 93, 0
1, 79610, Note_on_c, 0, 91, 43
1, 79618, Note_on_c, 0, 79, 37
1, 79645, Note_on_c, 0, 91, 0
1, 79670, Note_on_c, 0, 93, 37
1, 79707, Note_on_c, 0, 86, 40
1, 79725, Note_on_c, 0, 93, 0
1, 79738, Note_on_c, 0, 91, 46
1, 80280, Note_on_c, 0, 91, 0
1, 80284, Note_on_c, 0, 86, 0
1, 80294, Note_on_c, 0, 79, 0
1, 80294, Note_on_c, 0, 71, 0
1, 80296, Note_on_c, 0, 74, 0
1, 80854, Note_on_c, 0, 59, 44
1, 80858, Note_on_c, 0, 67, 48
1, 80862, Note_on_c, 0, 43, 39
1, 80863, Note_on_c, 0, 50, 40
1, 81372, Note_on_c, 0, 43, 0
1, 81492, Note_on_c, 0, 67, 0
1, 81508, Note_on_c, 0, 59, 0
1, 81898, Note_on_c, 0, 38, 38
1, 81905, Note_on_c, 0, 62, 39
1, 81906, Note_on_c, 0, 71, 53
1, 82035, Note_on_c, 0, 50, 0
1, 82155, Note_on_c, 0, 71, 0
1, 82174, Note_on_c, 0, 38, 0
1, 82193, Note_on_c, 0, 62, 0
1, 82547, Note_on_c, 0, 67, 45
1, 82550, Note_on_c, 0, 43, 36
1, 82550, Note_on_c, 0, 50, 35
1, 82554, Note_on_c, 0, 59, 37
1, 82691, Note_on_c, 0, 43, 0
1, 82698, Note_on_c, 0, 59, 0
1, 82703, Note_on_c, 0, 67, 0
1, 82721, Note_on_c, 0, 50, 0
1, 86104, Control_c, 0, 64, 104
1, 86109, Control_c, 0, 64, 72
1, 86114, Control_c, 0, 64, 40
1, 86119, Control_c, 0, 64, 0
1, 86584, Note_on_c, 0, 122, 1
1, 86824, Note_on_c, 0, 122, 0
1, 86824, End_track
0, 0, End_of_file
