0, 0, Header, 1, 3, 360
1, 0, Start_track
1, 0, Title_t, "untitled"
1, 0, Time_signature, 4, 2, 24, 8
1, 0, Key_signature, 1, "major"
1, 0, Tempo, 652174
1, 4320, Tempo, 652174
1, 4447, Tempo, 661886
1, 4573, Tempo, 671892
1, 4700, Tempo, 682128
1, 4826, Tempo, 692761
1, 4953, Tempo, 703730
1, 5079, Tempo, 715052
1, 5206, Tempo, 726656
1, 5333, Tempo, 738734
1, 5459, Tempo, 751221
1, 5586, Tempo, 764137
1, 5839, Tempo, 791244
1, 5966, Tempo, 805585
1, 6092, Tempo, 820457
1, 6219, Tempo, 835771
1, 6345, Tempo, 851789
1, 6390, Tempo, 5000000
1, 6480, Tempo, 869565
1, 6840, Tempo, 652174
1, 52830, Tempo, 5000000
1, 52920, Tempo, 1176471
1, 52943, Tempo, 884043
1, 52965, Tempo, 899011
1, 52988, Tempo, 914495
1, 53010, Tempo, 930521
1, 53033, Tempo, 947119
1, 53055, Tempo, 964320
1, 53078, Tempo, 982157
1, 53100, Tempo, 1000667
1, 53123, Tempo, 1019714
1, 53145, Tempo, 1039681
1, 53168, Tempo, 1060445
1, 53190, Tempo, 1082056
1, 53213, Tempo, 1104566
1, 53235, Tempo, 1128032
1, 53279, Tempo, 1176471
1, 53280, Tempo, 652174
1, 54270, Tempo, 5000000
1, 54360, Tempo, 869565
1, 54383, Tempo, 664673
1, 54405, Tempo, 677660
1, 54428, Tempo, 691085
1, 54450, Tempo, 705136
1, 54473, Tempo, 719770
1, 54495, Tempo, 735024
1, 54518, Tempo, 750845
1, 54540, Tempo, 767460
1, 54563, Tempo, 784827
1, 54585, Tempo, 802998
1, 54608, Tempo, 821918
1, 54630, Tempo, 841869
1, 54660, Tempo, 869565
1, 54720, Time_signature, 41, 3, 12, 8
1, 54720, Tempo, 5000000
1, 54810, Tempo, 326087
1, 62100, Time_signature, 25, 3, 12, 8
1, 62592, Tempo, 250000
1, 62730, Tempo, 5000000
1, 62820, Tempo, 188088
1, 63042, Tempo, 245248
1, 63264, Tempo, 240684
1, 63487, Tempo, 236276
1, 63709, Tempo, 232037
1, 63931, Tempo, 227938
1, 64153, Tempo, 223989
1, 64376, Tempo, 220167
1, 64598, Tempo, 216481
1, 64820, Tempo, 212909
1, 65042, Tempo, 209461
1, 65264, Tempo, 206115
1, 65486, Tempo, 202881
1, 65709, Tempo, 199740
1, 65931, Tempo, 196696
1, 66153, Tempo, 193748
1, 66375, Tempo, 190882
1, 66599, Tempo, 188088
1, 66600, Time_signature, 4, 2, 24, 8
1, 66600, Tempo, 375000
1, 102150, Tempo, 5000000
1, 102240, Tempo, 375000
1, 148320, Tempo, 375000
1, 148343, Tempo, 380977
1, 148365, Tempo, 387147
1, 148388, Tempo, 393520
1, 148410, Tempo, 400107
1, 148433, Tempo, 406918
1, 148455, Tempo, 413964
1, 148478, Tempo, 421260
1, 148500, Tempo, 428816
1, 148523, Tempo, 436649
1, 148545, Tempo, 444774
1, 148568, Tempo, 453206
1, 148590, Tempo, 461965
1, 148613, Tempo, 471069
1, 148635, Tempo, 480538
1, 148679, Tempo, 500000
1, 148680, Tempo, 416667
1, 190800, Tempo, 428571
1, 190980, Tempo, 461538
1, 191160, Tempo, 500000
1, 191340, Tempo, 600000
1, 191520, Tempo, 750000
1, 191790, Tempo, 5000000
1, 191880, Time_signature, 3, 2, 24, 8
1, 191880, Tempo, 750000
1, 192510, Tempo, 5000000
1, 192600, Tempo, 857143
1, 205560, Tempo, 857143
1, 205583, Tempo, 878349
1, 205605, Tempo, 900766
1, 205628, Tempo, 924214
1, 205650, Tempo, 949067
1, 205673, Tempo, 975134
1, 205695, Tempo, 1002674
1, 205718, Tempo, 1031992
1, 205740, Tempo, 1062888
1, 205763, Tempo, 1095890
1, 205799, Tempo, 1153846
1, 205920, Tempo, 857143
1, 209015, Tempo, 857143
1, 209038, Tempo, 893123
1, 209060, Tempo, 932401
1, 209083, Tempo, 975134
1, 209105, Tempo, 1021972
1, 209128, Tempo, 1073729
1, 209159, Tempo, 1153846
1, 209160, Tempo, 857143
1, 213120, Tempo, 857143
1, 213143, Tempo, 873999
1, 213165, Tempo, 891530
1, 213188, Tempo, 909918
1, 213210, Tempo, 928936
1, 213233, Tempo, 948767
1, 213255, Tempo, 969462
1, 213278, Tempo, 991080
1, 213300, Tempo, 1013856
1, 213323, Tempo, 1037524
1, 213345, Tempo, 1062323
1, 213368, Tempo, 1088337
1, 213390, Tempo, 1115864
1, 213420, Tempo, 1153846
1, 213480, Tempo, 857143
1, 215855, Tempo, 857143
1, 215878, Tempo, 917011
1, 215900, Tempo, 985869
1, 215944, Tempo, 1153846
1, 216000, Tempo, 857143
1, 220104, Tempo, 857143
1, 220126, Tempo, 880799
1, 220149, Tempo, 905797
1, 220171, Tempo, 932401
1, 220194, Tempo, 960461
1, 220216, Tempo, 990262
1, 220239, Tempo, 1021972
1, 220261, Tempo, 1055966
1, 220284, Tempo, 1092100
1, 220319, Tempo, 1153846
1, 220320, Tempo, 857143
1, 223200, Time_signature, 4, 2, 24, 8
1, 224280, Tempo, 857143
1, 245790, Tempo, 5000000
1, 245880, Tempo, 857143
1, 257310, Tempo, 5000000
1, 257400, Tempo, 857143
1, 257760, Tempo, 500000
1, 263520, Time_signature, 2, 2, 24, 8
1, 263520, Tempo, 500000
1, 263773, Tempo, 507442
1, 264279, Tempo, 523013
1, 264533, Tempo, 531114
1, 265039, Tempo, 548196
1, 265292, Tempo, 557155
1, 265798, Tempo, 575982
1, 266051, Tempo, 585823
1, 266558, Tempo, 606673
1, 266811, Tempo, 617665
1, 267317, Tempo, 640889
1, 267570, Tempo, 653097
1, 267839, Tempo, 666667
1, 267840, Time_signature, 4, 2, 24, 8
1, 267840, Tempo, 416667
1, 302400, Tempo, 416667
1, 302653, Tempo, 422863
1, 302906, Tempo, 429246
1, 303159, Tempo, 435825
1, 303413, Tempo, 442608
1, 303919, Tempo, 456830
1, 304172, Tempo, 464288
1, 304425, Tempo, 471995
1, 304678, Tempo, 479962
1, 304931, Tempo, 488202
1, 305438, Tempo, 505561
1, 305691, Tempo, 514712
1, 305944, Tempo, 524201
1, 306197, Tempo, 534045
1, 306450, Tempo, 544267
1, 306630, Tempo, 5000000
1, 306719, Tempo, 555556
1, 306720, Tempo, 555556
1, 306720, End_track
2, 0, Start_track
2, 0, Title_t, "Piano I"
2, 0, Program_c, 0, 0
2, 0, Control_c, 0, 7, 105
2, 0, Control_c, 0, 10, 80
2, 0, Control_c, 0, 91, 60
2, 0, Control_c, 0, 121, 0
2, 0, Control_c, 0, 121, 0
2, 0, Control_c, 0, 91, 60
2, 0, Control_c, 0, 10, 51
2, 0, Control_c, 0, 7, 100
2, 1080, Note_on_c, 0, 59, 69
2, 1080, Note_on_c, 0, 35, 66
2, 1080, Note_on_c, 0, 47, 66
2, 1260, Note_on_c, 0, 47, 0
2, 1260, Note_on_c, 0, 35, 0
2, 1260, Note_on_c, 0, 59, 0
2, 1260, Note_on_c, 0, 60, 80
2, 1260, Note_on_c, 0, 36, 79
2, 1260, Note_on_c, 0, 48, 79
2, 1440, Note_on_c, 0, 48, 0
2, 1440, Note_on_c, 0, 36, 0
2, 1440, Note_on_c, 0, 60, 0
2, 1440, Note_on_c, 0, 62, 81
2, 1440, Note_on_c, 0, 38, 76
2, 1440, Note_on_c, 0, 50, 76
2, 1980, Note_on_c, 0, 50, 0
2, 1980, Note_on_c, 0, 38, 0
2, 1980, Note_on_c, 0, 62, 0
2, 1980, Note_on_c, 0, 64, 79
2, 1980, Note_on_c, 0, 40, 74
2, 1980, Note_on_c, 0, 52, 74
2, 2160, Note_on_c, 0, 52, 0
2, 2160, Note_on_c, 0, 40, 0
2, 2160, Note_on_c, 0, 64, 0
2, 2160, Note_on_c, 0, 59, 74
2, 2160, Note_on_c, 0, 35, 69
2, 2160, Note_on_c, 0, 47, 69
2, 2520, Note_on_c, 0, 47, 0
2, 2520, Note_on_c, 0, 35, 0
2, 2520, Note_on_c, 0, 59, 0
2, 2520, Note_on_c, 0, 57, 71
2, 2520, Note_on_c, 0, 33, 72
2, 2520, Note_on_c, 0, 45, 72
2, 2880, Note_on_c, 0, 45, 0
2, 2880, Note_on_c, 0, 33, 0
2, 2880, Note_on_c, 0, 57, 0
2, 2880, Note_on_c, 0, 55, 76
2, 2880, Note_on_c, 0, 31, 74
2, 2880, Note_on_c, 0, 43, 74
2, 3060, Note_on_c, 0, 43, 0
2, 3060, Note_on_c, 0, 31, 0
2, 3060, Note_on_c, 0, 55, 0
2, 3060, Note_on_c, 0, 57, 84
2, 3060, Note_on_c, 0, 33, 81
2, 3060, Note_on_c, 0, 45, 81
2, 3240, Note_on_c, 0, 45, 0
2, 3240, Note_on_c, 0, 33, 0
2, 3240, Note_on_c, 0, 57, 0
2, 3240, Note_on_c, 0, 59, 79
2, 3240, Note_on_c, 0, 35, 73
2, 3240, Note_on_c, 0, 47, 73
2, 3960, Note_on_c, 0, 47, 0
2, 3960, Note_on_c, 0, 35, 0
2, 3960, Note_on_c, 0, 59, 0
2, 3960, Note_on_c, 0, 59, 75
2, 3960, Note_on_c, 0, 35, 75
2, 3960, Note_on_c, 0, 47, 75
2, 4140, Note_on_c, 0, 47, 0
2, 4140, Note_on_c, 0, 35, 0
2, 4140, Note_on_c, 0, 59, 0
2, 4140, Note_on_c, 0, 60, 75
2, 4140, Note_on_c, 0, 36, 78
2, 4140, Note_on_c, 0, 48, 78
2, 4320, Note_on_c, 0, 48, 0
2, 4320, Note_on_c, 0, 36, 0
2, 4320, Note_on_c, 0, 60, 0
2, 4320, Note_on_c, 0, 62, 87
2, 4320, Note_on_c, 0, 38, 80
2, 4320, Note_on_c, 0, 50, 80
2, 4860, Note_on_c, 0, 50, 0
2, 4860, Note_on_c, 0, 38, 0
2, 4860, Note_on_c, 0, 62, 0
2, 4860, Note_on_c, 0, 64, 79
2, 4860, Note_on_c, 0, 40, 77
2, 4860, Note_on_c, 0, 52, 77
2, 5040, Note_on_c, 0, 52, 0
2, 5040, Note_on_c, 0, 40, 0
2, 5040, Note_on_c, 0, 64, 0
2, 5040, Note_on_c, 0, 59, 74
2, 5040, Note_on_c, 0, 35, 71
2, 5040, Note_on_c, 0, 47, 71
2, 5400, Note_on_c, 0, 47, 0
2, 5400, Note_on_c, 0, 35, 0
2, 5400, Note_on_c, 0, 59, 0
2, 5400, Note_on_c, 0, 57, 72
2, 5400, Note_on_c, 0, 33, 76
2, 5400, Note_on_c, 0, 45, 76
2, 5760, Note_on_c, 0, 45, 0
2, 5760, Note_on_c, 0, 33, 0
2, 5760, Note_on_c, 0, 57, 0
2, 5760, Note_on_c, 0, 52, 71
2, 5760, Note_on_c, 0, 28, 69
2, 5760, Note_on_c, 0, 40, 69
2, 6480, Note_on_c, 0, 40, 0
2, 6480, Note_on_c, 0, 28, 0
2, 6480, Note_on_c, 0, 52, 0
2, 6840, Note_on_c, 0, 71, 68
2, 7020, Note_on_c, 0, 71, 0
2, 7020, Note_on_c, 0, 72, 80
2, 7200, Note_on_c, 0, 72, 0
2, 7200, Note_on_c, 0, 74, 81
2, 7200, Note_on_c, 0, 62, 69
2, 7200, Note_on_c, 0, 67, 69
2, 7200, Note_on_c, 0, 43, 63
2, 7200, Note_on_c, 0, 50, 63
2, 7200, Note_on_c, 0, 59, 63
2, 7740, Note_on_c, 0, 74, 0
2, 7740, Note_on_c, 0, 76, 81
2, 7920, Note_on_c, 0, 76, 0
2, 7920, Note_on_c, 0, 71, 64
2, 8280, Note_on_c, 0, 71, 0
2, 8280, Note_on_c, 0, 67, 0
2, 8280, Note_on_c, 0, 43, 0
2, 8280, Note_on_c, 0, 62, 0
2, 8280, Note_on_c, 0, 59, 0
2, 8280, Note_on_c, 0, 50, 0
2, 8280, Note_on_c, 0, 69, 67
2, 8280, Note_on_c, 0, 60, 67
2, 8280, Note_on_c, 0, 66, 67
2, 8280, Note_on_c, 0, 43, 77
2, 8280, Note_on_c, 0, 51, 77
2, 8280, Note_on_c, 0, 57, 77
2, 8640, Note_on_c, 0, 57, 0
2, 8640, Note_on_c, 0, 60, 0
2, 8640, Note_on_c, 0, 66, 0
2, 8640, Note_on_c, 0, 69, 0
2, 8640, Note_on_c, 0, 51, 0
2, 8640, Note_on_c, 0, 43, 0
2, 8640, Note_on_c, 0, 67, 70
2, 8640, Note_on_c, 0, 59, 71
2, 8640, Note_on_c, 0, 64, 71
2, 8640, Note_on_c, 0, 43, 72
2, 8640, Note_on_c, 0, 52, 72
2, 8640, Note_on_c, 0, 55, 72
2, 8820, Note_on_c, 0, 67, 0
2, 8820, Note_on_c, 0, 69, 79
2, 9000, Note_on_c, 0, 69, 0
2, 9000, Note_on_c, 0, 71, 85
2, 9360, Note_on_c, 0, 55, 0
2, 9360, Note_on_c, 0, 52, 0
2, 9360, Note_on_c, 0, 43, 0
2, 9360, Note_on_c, 0, 59, 0
2, 9360, Note_on_c, 0, 64, 0
2, 9360, Note_on_c, 0, 59, 73
2, 9360, Note_on_c, 0, 63, 73
2, 9360, Note_on_c, 0, 43, 74
2, 9360, Note_on_c, 0, 51, 74
2, 9360, Note_on_c, 0, 55, 74
2, 9720, Note_on_c, 0, 71, 0
2, 9720, Note_on_c, 0, 71, 73
2, 9900, Note_on_c, 0, 71, 0
2, 9900, Note_on_c, 0, 72, 77
2, 10080, Note_on_c, 0, 72, 0
2, 10080, Note_on_c, 0, 63, 0
2, 10080, Note_on_c, 0, 43, 0
2, 10080, Note_on_c, 0, 59, 0
2, 10080, Note_on_c, 0, 55, 0
2, 10080, Note_on_c, 0, 51, 0
2, 10080, Note_on_c, 0, 74, 80
2, 10080, Note_on_c, 0, 62, 81
2, 10080, Note_on_c, 0, 67, 81
2, 10080, Note_on_c, 0, 43, 80
2, 10080, Note_on_c, 0, 50, 80
2, 10080, Note_on_c, 0, 59, 80
2, 10620, Note_on_c, 0, 74, 0
2, 10620, Note_on_c, 0, 76, 83
2, 10800, Note_on_c, 0, 76, 0
2, 10800, Note_on_c, 0, 71, 69
2, 11160, Note_on_c, 0, 71, 0
2, 11160, Note_on_c, 0, 67, 0
2, 11160, Note_on_c, 0, 43, 0
2, 11160, Note_on_c, 0, 62, 0
2, 11160, Note_on_c, 0, 59, 0
2, 11160, Note_on_c, 0, 50, 0
2, 11160, Note_on_c, 0, 69, 68
2, 11160, Note_on_c, 0, 60, 69
2, 11160, Note_on_c, 0, 64, 69
2, 11160, Note_on_c, 0, 45, 72
2, 11160, Note_on_c, 0, 52, 72
2, 11160, Note_on_c, 0, 57, 72
2, 11520, Note_on_c, 0, 57, 0
2, 11520, Note_on_c, 0, 60, 0
2, 11520, Note_on_c, 0, 64, 0
2, 11520, Note_on_c, 0, 69, 0
2, 11520, Note_on_c, 0, 52, 0
2, 11520, Note_on_c, 0, 45, 0
2, 11520, Note_on_c, 0, 55, 61
2, 11520, Note_on_c, 0, 59, 61
2, 11520, Note_on_c, 0, 64, 61
2, 11520, Note_on_c, 0, 40, 76
2, 11520, Note_on_c, 0, 47, 76
2, 11520, Note_on_c, 0, 52, 76
2, 12600, Note_on_c, 0, 52, 0
2, 12600, Note_on_c, 0, 59, 0
2, 12600, Note_on_c, 0, 64, 0
2, 12600, Note_on_c, 0, 55, 0
2, 12600, Note_on_c, 0, 47, 0
2, 12600, Note_on_c, 0, 40, 0
2, 18360, Note_on_c, 0, 78, 69
2, 18540, Note_on_c, 0, 78, 0
2, 18540, Note_on_c, 0, 79, 74
2, 18720, Note_on_c, 0, 79, 0
2, 18720, Note_on_c, 0, 81, 81
2, 18720, Note_on_c, 0, 74, 94
2, 18720, Note_on_c, 0, 62, 66
2, 18720, Note_on_c, 0, 66, 66
2, 18720, Note_on_c, 0, 69, 66
2, 18900, Note_on_c, 0, 81, 0
2, 18900, Note_on_c, 0, 79, 70
2, 19080, Note_on_c, 0, 79, 0
2, 19080, Note_on_c, 0, 78, 68
2, 19260, Note_on_c, 0, 78, 0
2, 19260, Note_on_c, 0, 79, 79
2, 19440, Note_on_c, 0, 79, 0
2, 19440, Note_on_c, 0, 81, 76
2, 19800, Note_on_c, 0, 81, 0
2, 19800, Note_on_c, 0, 66, 0
2, 19800, Note_on_c, 0, 74, 0
2, 19800, Note_on_c, 0, 62, 0
2, 19800, Note_on_c, 0, 69, 0
2, 19800, Note_on_c, 0, 83, 81
2, 19800, Note_on_c, 0, 74, 82
2, 19800, Note_on_c, 0, 59, 81
2, 19800, Note_on_c, 0, 62, 81
2, 19800, Note_on_c, 0, 66, 81
2, 19800, Note_on_c, 0, 71, 81
2, 20160, Note_on_c, 0, 71, 0
2, 20160, Note_on_c, 0, 74, 0
2, 20160, Note_on_c, 0, 59, 0
2, 20160, Note_on_c, 0, 83, 0
2, 20160, Note_on_c, 0, 66, 0
2, 20160, Note_on_c, 0, 62, 0
2, 20160, Note_on_c, 0, 79, 65
2, 20160, Note_on_c, 0, 71, 70
2, 20160, Note_on_c, 0, 67, 71
2, 20160, Note_on_c, 0, 64, 71
2, 20340, Note_on_c, 0, 79, 0
2, 20340, Note_on_c, 0, 78, 77
2, 20520, Note_on_c, 0, 78, 0
2, 20520, Note_on_c, 0, 79, 82
2, 21240, Note_on_c, 0, 79, 0
2, 21240, Note_on_c, 0, 64, 0
2, 21240, Note_on_c, 0, 78, 78
2, 21240, Note_on_c, 0, 63, 71
2, 21420, Note_on_c, 0, 78, 0
2, 21420, Note_on_c, 0, 79, 77
2, 21600, Note_on_c, 0, 79, 0
2, 21600, Note_on_c, 0, 63, 0
2, 21600, Note_on_c, 0, 67, 0
2, 21600, Note_on_c, 0, 71, 0
2, 21600, Note_on_c, 0, 81, 84
2, 21600, Note_on_c, 0, 74, 81
2, 21600, Note_on_c, 0, 62, 79
2, 21600, Note_on_c, 0, 66, 79
2, 21600, Note_on_c, 0, 69, 79
2, 21780, Note_on_c, 0, 81, 0
2, 21780, Note_on_c, 0, 79, 70
2, 21960, Note_on_c, 0, 79, 0
2, 21960, Note_on_c, 0, 78, 68
2, 22140, Note_on_c, 0, 78, 0
2, 22140, Note_on_c, 0, 79, 81
2, 22320, Note_on_c, 0, 79, 0
2, 22320, Note_on_c, 0, 81, 77
2, 22680, Note_on_c, 0, 81, 0
2, 22680, Note_on_c, 0, 66, 0
2, 22680, Note_on_c, 0, 74, 0
2, 22680, Note_on_c, 0, 62, 0
2, 22680, Note_on_c, 0, 69, 0
2, 22680, Note_on_c, 0, 83, 82
2, 22680, Note_on_c, 0, 75, 79
2, 22680, Note_on_c, 0, 59, 83
2, 22680, Note_on_c, 0, 63, 83
2, 22680, Note_on_c, 0, 66, 83
2, 22680, Note_on_c, 0, 71, 83
2, 23040, Note_on_c, 0, 71, 0
2, 23040, Note_on_c, 0, 75, 0
2, 23040, Note_on_c, 0, 59, 0
2, 23040, Note_on_c, 0, 83, 0
2, 23040, Note_on_c, 0, 66, 0
2, 23040, Note_on_c, 0, 63, 0
2, 23040, Note_on_c, 0, 76, 60
2, 23040, Note_on_c, 0, 71, 68
2, 23040, Note_on_c, 0, 67, 67
2, 23040, Note_on_c, 0, 64, 81
2, 23400, Note_on_c, 0, 67, 0
2, 23400, Note_on_c, 0, 71, 0
2, 23400, Note_on_c, 0, 72, 74
2, 23400, Note_on_c, 0, 69, 73
2, 23760, Note_on_c, 0, 69, 0
2, 23760, Note_on_c, 0, 72, 0
2, 23760, Note_on_c, 0, 71, 73
2, 23760, Note_on_c, 0, 67, 73
2, 24120, Note_on_c, 0, 76, 0
2, 24120, Note_on_c, 0, 64, 0
2, 24120, Note_on_c, 0, 78, 80
2, 24120, Note_on_c, 0, 63, 70
2, 24300, Note_on_c, 0, 78, 0
2, 24300, Note_on_c, 0, 79, 81
2, 24480, Note_on_c, 0, 79, 0
2, 24480, Note_on_c, 0, 63, 0
2, 24480, Note_on_c, 0, 71, 0
2, 24480, Note_on_c, 0, 67, 0
2, 24480, Note_on_c, 0, 81, 80
2, 24480, Note_on_c, 0, 74, 77
2, 24480, Note_on_c, 0, 62, 81
2, 24480, Note_on_c, 0, 66, 81
2, 24480, Note_on_c, 0, 69, 81
2, 24660, Note_on_c, 0, 81, 0
2, 24660, Note_on_c, 0, 79, 70
2, 24840, Note_on_c, 0, 79, 0
2, 24840, Note_on_c, 0, 78, 75
2, 25020, Note_on_c, 0, 78, 0
2, 25020, Note_on_c, 0, 79, 77
2, 25200, Note_on_c, 0, 79, 0
2, 25200, Note_on_c, 0, 81, 78
2, 25560, Note_on_c, 0, 81, 0
2, 25560, Note_on_c, 0, 66, 0
2, 25560, Note_on_c, 0, 74, 0
2, 25560, Note_on_c, 0, 62, 0
2, 25560, Note_on_c, 0, 69, 0
2, 25560, Note_on_c, 0, 83, 82
2, 25560, Note_on_c, 0, 74, 77
2, 25560, Note_on_c, 0, 59, 81
2, 25560, Note_on_c, 0, 66, 81
2, 25560, Note_on_c, 0, 71, 81
2, 25920, Note_on_c, 0, 71, 0
2, 25920, Note_on_c, 0, 59, 0
2, 25920, Note_on_c, 0, 83, 0
2, 25920, Note_on_c, 0, 74, 0
2, 25920, Note_on_c, 0, 66, 0
2, 25920, Note_on_c, 0, 79, 68
2, 25920, Note_on_c, 0, 76, 80
2, 25920, Note_on_c, 0, 64, 74
2, 25920, Note_on_c, 0, 67, 74
2, 25920, Note_on_c, 0, 71, 74
2, 26100, Note_on_c, 0, 79, 0
2, 26100, Note_on_c, 0, 78, 66
2, 26280, Note_on_c, 0, 78, 0
2, 26280, Note_on_c, 0, 79, 80
2, 27000, Note_on_c, 0, 79, 0
2, 27000, Note_on_c, 0, 67, 0
2, 27000, Note_on_c, 0, 71, 0
2, 27000, Note_on_c, 0, 64, 0
2, 27000, Note_on_c, 0, 78, 72
2, 27000, Note_on_c, 0, 67, 70
2, 27000, Note_on_c, 0, 70, 70
2, 27180, Note_on_c, 0, 78, 0
2, 27180, Note_on_c, 0, 79, 77
2, 27360, Note_on_c, 0, 79, 0
2, 27360, Note_on_c, 0, 70, 0
2, 27360, Note_on_c, 0, 67, 0
2, 27360, Note_on_c, 0, 76, 0
2, 27360, Note_on_c, 0, 81, 80
2, 27360, Note_on_c, 0, 78, 80
2, 27360, Note_on_c, 0, 66, 74
2, 27360, Note_on_c, 0, 69, 74
2, 27540, Note_on_c, 0, 81, 0
2, 27540, Note_on_c, 0, 83, 83
2, 27720, Note_on_c, 0, 83, 0
2, 27720, Note_on_c, 0, 84, 78
2, 27900, Note_on_c, 0, 84, 0
2, 27900, Note_on_c, 0, 88, 83
2, 28080, Note_on_c, 0, 88, 0
2, 28080, Note_on_c, 0, 69, 0
2, 28080, Note_on_c, 0, 66, 0
2, 28080, Note_on_c, 0, 78, 0
2, 28080, Note_on_c, 0, 81, 72
2, 28080, Note_on_c, 0, 86, 72
2, 28080, Note_on_c, 0, 66, 87
2, 28080, Note_on_c, 0, 74, 87
2, 28440, Note_on_c, 0, 74, 0
2, 28440, Note_on_c, 0, 81, 0
2, 28440, Note_on_c, 0, 86, 0
2, 28440, Note_on_c, 0, 66, 0
2, 28440, Note_on_c, 0, 81, 67
2, 28440, Note_on_c, 0, 84, 67
2, 28440, Note_on_c, 0, 66, 74
2, 28440, Note_on_c, 0, 72, 74
2, 28800, Note_on_c, 0, 72, 0
2, 28800, Note_on_c, 0, 81, 0
2, 28800, Note_on_c, 0, 84, 0
2, 28800, Note_on_c, 0, 66, 0
2, 28800, Note_on_c, 0, 79, 71
2, 28800, Note_on_c, 0, 83, 71
2, 28800, Note_on_c, 0, 67, 73
2, 28800, Note_on_c, 0, 71, 73
2, 29520, Note_on_c, 0, 71, 0
2, 29520, Note_on_c, 0, 79, 0
2, 29520, Note_on_c, 0, 83, 0
2, 29520, Note_on_c, 0, 67, 0
2, 29880, Note_on_c, 0, 83, 77
2, 29880, Note_on_c, 0, 71, 78
2, 30060, Note_on_c, 0, 71, 0
2, 30060, Note_on_c, 0, 83, 0
2, 30060, Note_on_c, 0, 84, 86
2, 30060, Note_on_c, 0, 72, 83
2, 30240, Note_on_c, 0, 72, 0
2, 30240, Note_on_c, 0, 84, 0
2, 30240, Note_on_c, 0, 86, 88
2, 30240, Note_on_c, 0, 79, 81
2, 30240, Note_on_c, 0, 74, 91
2, 30240, Note_on_c, 0, 67, 91
2, 30240, Note_on_c, 0, 71, 91
2, 30780, Note_on_c, 0, 74, 0
2, 30780, Note_on_c, 0, 86, 0
2, 30780, Note_on_c, 0, 88, 90
2, 30780, Note_on_c, 0, 76, 88
2, 30960, Note_on_c, 0, 76, 0
2, 30960, Note_on_c, 0, 79, 0
2, 30960, Note_on_c, 0, 71, 0
2, 30960, Note_on_c, 0, 67, 0
2, 30960, Note_on_c, 0, 88, 0
2, 30960, Note_on_c, 0, 83, 71
2, 30960, Note_on_c, 0, 78, 74
2, 30960, Note_on_c, 0, 71, 75
2, 30960, Note_on_c, 0, 66, 73
2, 31320, Note_on_c, 0, 71, 0
2, 31320, Note_on_c, 0, 83, 0
2, 31320, Note_on_c, 0, 81, 78
2, 31320, Note_on_c, 0, 69, 75
2, 31680, Note_on_c, 0, 69, 0
2, 31680, Note_on_c, 0, 66, 0
2, 31680, Note_on_c, 0, 78, 0
2, 31680, Note_on_c, 0, 81, 0
2, 31680, Note_on_c, 0, 79, 79
2, 31680, Note_on_c, 0, 71, 65
2, 31680, Note_on_c, 0, 67, 77
2, 31680, Note_on_c, 0, 59, 69
2, 31860, Note_on_c, 0, 67, 0
2, 31860, Note_on_c, 0, 79, 0
2, 31860, Note_on_c, 0, 81, 89
2, 31860, Note_on_c, 0, 69, 91
2, 32040, Note_on_c, 0, 69, 0
2, 32040, Note_on_c, 0, 81, 0
2, 32040, Note_on_c, 0, 83, 90
2, 32040, Note_on_c, 0, 71, 90
2, 32760, Note_on_c, 0, 71, 0
2, 32760, Note_on_c, 0, 59, 0
2, 32760, Note_on_c, 0, 71, 0
2, 32760, Note_on_c, 0, 83, 0
2, 32760, Note_on_c, 0, 83, 82
2, 32760, Note_on_c, 0, 71, 85
2, 32940, Note_on_c, 0, 71, 0
2, 32940, Note_on_c, 0, 83, 0
2, 32940, Note_on_c, 0, 84, 90
2, 32940, Note_on_c, 0, 72, 87
2, 33120, Note_on_c, 0, 72, 0
2, 33120, Note_on_c, 0, 84, 0
2, 33120, Note_on_c, 0, 86, 90
2, 33120, Note_on_c, 0, 79, 69
2, 33120, Note_on_c, 0, 74, 91
2, 33120, Note_on_c, 0, 67, 66
2, 33120, Note_on_c, 0, 71, 66
2, 33660, Note_on_c, 0, 74, 0
2, 33660, Note_on_c, 0, 86, 0
2, 33660, Note_on_c, 0, 88, 94
2, 33660, Note_on_c, 0, 76, 91
2, 33840, Note_on_c, 0, 76, 0
2, 33840, Note_on_c, 0, 79, 0
2, 33840, Note_on_c, 0, 71, 0
2, 33840, Note_on_c, 0, 67, 0
2, 33840, Note_on_c, 0, 88, 0
2, 33840, Note_on_c, 0, 83, 71
2, 33840, Note_on_c, 0, 78, 72
2, 33840, Note_on_c, 0, 71, 72
2, 33840, Note_on_c, 0, 66, 63
2, 34200, Note_on_c, 0, 71, 0
2, 34200, Note_on_c, 0, 83, 0
2, 34200, Note_on_c, 0, 81, 75
2, 34200, Note_on_c, 0, 69, 76
2, 34560, Note_on_c, 0, 69, 0
2, 34560, Note_on_c, 0, 66, 0
2, 34560, Note_on_c, 0, 78, 0
2, 34560, Note_on_c, 0, 81, 0
2, 34560, Note_on_c, 0, 67, 72
2, 34560, Note_on_c, 0, 76, 72
2, 34560, Note_on_c, 0, 52, 74
2, 34560, Note_on_c, 0, 59, 74
2, 34560, Note_on_c, 0, 64, 74
2, 35280, Note_on_c, 0, 64, 0
2, 35280, Note_on_c, 0, 52, 0
2, 35280, Note_on_c, 0, 67, 0
2, 35280, Note_on_c, 0, 76, 0
2, 35280, Note_on_c, 0, 59, 0
2, 35640, Note_on_c, 0, 83, 76
2, 35640, Note_on_c, 0, 71, 75
2, 35820, Note_on_c, 0, 71, 0
2, 35820, Note_on_c, 0, 83, 0
2, 35820, Note_on_c, 0, 84, 87
2, 35820, Note_on_c, 0, 72, 87
2, 36000, Note_on_c, 0, 72, 0
2, 36000, Note_on_c, 0, 84, 0
2, 36000, Note_on_c, 0, 86, 91
2, 36000, Note_on_c, 0, 79, 78
2, 36000, Note_on_c, 0, 74, 88
2, 36000, Note_on_c, 0, 67, 82
2, 36000, Note_on_c, 0, 71, 82
2, 36540, Note_on_c, 0, 74, 0
2, 36540, Note_on_c, 0, 86, 0
2, 36540, Note_on_c, 0, 88, 92
2, 36540, Note_on_c, 0, 76, 89
2, 36720, Note_on_c, 0, 76, 0
2, 36720, Note_on_c, 0, 79, 0
2, 36720, Note_on_c, 0, 71, 0
2, 36720, Note_on_c, 0, 67, 0
2, 36720, Note_on_c, 0, 88, 0
2, 36720, Note_on_c, 0, 83, 70
2, 36720, Note_on_c, 0, 78, 72
2, 36720, Note_on_c, 0, 71, 71
2, 36720, Note_on_c, 0, 66, 66
2, 37080, Note_on_c, 0, 71, 0
2, 37080, Note_on_c, 0, 83, 0
2, 37080, Note_on_c, 0, 81, 78
2, 37080, Note_on_c, 0, 69, 72
2, 37440, Note_on_c, 0, 69, 0
2, 37440, Note_on_c, 0, 66, 0
2, 37440, Note_on_c, 0, 78, 0
2, 37440, Note_on_c, 0, 81, 0
2, 37440, Note_on_c, 0, 79, 76
2, 37440, Note_on_c, 0, 71, 61
2, 37440, Note_on_c, 0, 67, 74
2, 37440, Note_on_c, 0, 59, 68
2, 37620, Note_on_c, 0, 67, 0
2, 37620, Note_on_c, 0, 79, 0
2, 37620, Note_on_c, 0, 81, 88
2, 37620, Note_on_c, 0, 69, 87
2, 37800, Note_on_c, 0, 69, 0
2, 37800, Note_on_c, 0, 81, 0
2, 37800, Note_on_c, 0, 83, 93
2, 37800, Note_on_c, 0, 71, 88
2, 38520, Note_on_c, 0, 71, 0
2, 38520, Note_on_c, 0, 59, 0
2, 38520, Note_on_c, 0, 71, 0
2, 38520, Note_on_c, 0, 83, 0
2, 38520, Note_on_c, 0, 83, 84
2, 38520, Note_on_c, 0, 71, 84
2, 38700, Note_on_c, 0, 71, 0
2, 38700, Note_on_c, 0, 83, 0
2, 38700, Note_on_c, 0, 84, 87
2, 38700, Note_on_c, 0, 72, 87
2, 38880, Note_on_c, 0, 72, 0
2, 38880, Note_on_c, 0, 84, 0
2, 38880, Note_on_c, 0, 86, 87
2, 38880, Note_on_c, 0, 79, 66
2, 38880, Note_on_c, 0, 74, 86
2, 38880, Note_on_c, 0, 67, 68
2, 38880, Note_on_c, 0, 71, 68
2, 39420, Note_on_c, 0, 74, 0
2, 39420, Note_on_c, 0, 86, 0
2, 39420, Note_on_c, 0, 88, 83
2, 39420, Note_on_c, 0, 76, 92
2, 39600, Note_on_c, 0, 76, 0
2, 39600, Note_on_c, 0, 79, 0
2, 39600, Note_on_c, 0, 71, 0
2, 39600, Note_on_c, 0, 67, 0
2, 39600, Note_on_c, 0, 88, 0
2, 39600, Note_on_c, 0, 83, 71
2, 39600, Note_on_c, 0, 78, 73
2, 39600, Note_on_c, 0, 71, 70
2, 39600, Note_on_c, 0, 66, 66
2, 39960, Note_on_c, 0, 71, 0
2, 39960, Note_on_c, 0, 83, 0
2, 39960, Note_on_c, 0, 81, 76
2, 39960, Note_on_c, 0, 69, 80
2, 40320, Note_on_c, 0, 69, 0
2, 40320, Note_on_c, 0, 66, 0
2, 40320, Note_on_c, 0, 78, 0
2, 40320, Note_on_c, 0, 81, 0
2, 40320, Note_on_c, 0, 71, 73
2, 40320, Note_on_c, 0, 76, 73
2, 40320, Note_on_c, 0, 52, 72
2, 40320, Note_on_c, 0, 59, 72
2, 40320, Note_on_c, 0, 64, 72
2, 41400, Note_on_c, 0, 64, 0
2, 41400, Note_on_c, 0, 52, 0
2, 41400, Note_on_c, 0, 71, 0
2, 41400, Note_on_c, 0, 76, 0
2, 41400, Note_on_c, 0, 59, 0
2, 41760, Note_on_c, 0, 54, 65
2, 41760, Note_on_c, 0, 38, 71
2, 41760, Note_on_c, 0, 45, 71
2, 41880, Note_on_c, 0, 57, 45
2, 41999, Note_on_c, 0, 57, 0
2, 41999, Note_on_c, 0, 59, 55
2, 42120, Note_on_c, 0, 59, 0
2, 42120, Note_on_c, 0, 60, 54
2, 42240, Note_on_c, 0, 60, 0
2, 42240, Note_on_c, 0, 62, 54
2, 42359, Note_on_c, 0, 62, 0
2, 42359, Note_on_c, 0, 64, 56
2, 42480, Note_on_c, 0, 64, 0
2, 42480, Note_on_c, 0, 54, 0
2, 42480, Note_on_c, 0, 38, 0
2, 42480, Note_on_c, 0, 45, 0
2, 42480, Note_on_c, 0, 66, 55
2, 42480, Note_on_c, 0, 60, 92
2, 42480, Note_on_c, 0, 66, 92
2, 42480, Note_on_c, 0, 50, 92
2, 42480, Note_on_c, 0, 57, 92
2, 42600, Note_on_c, 0, 66, 0
2, 42600, Note_on_c, 0, 67, 50
2, 42719, Note_on_c, 0, 67, 0
2, 42719, Note_on_c, 0, 69, 55
2, 42840, Note_on_c, 0, 69, 0
2, 42840, Note_on_c, 0, 71, 54
2, 42960, Note_on_c, 0, 71, 0
2, 42960, Note_on_c, 0, 72, 53
2, 43079, Note_on_c, 0, 72, 0
2, 43079, Note_on_c, 0, 74, 50
2, 43200, Note_on_c, 0, 74, 0
2, 43200, Note_on_c, 0, 57, 0
2, 43200, Note_on_c, 0, 60, 0
2, 43200, Note_on_c, 0, 66, 0
2, 43200, Note_on_c, 0, 50, 0
2, 43200, Note_on_c, 0, 75, 53
2, 43200, Note_on_c, 0, 67, 91
2, 43200, Note_on_c, 0, 71, 91
2, 43200, Note_on_c, 0, 63, 93
2, 43200, Note_on_c, 0, 50, 70
2, 43200, Note_on_c, 0, 55, 70
2, 43200, Note_on_c, 0, 59, 70
2, 43320, Note_on_c, 0, 63, 0
2, 43320, Note_on_c, 0, 75, 0
2, 43320, Note_on_c, 0, 76, 50
2, 43320, Note_on_c, 0, 64, 90
2, 43439, Note_on_c, 0, 64, 0
2, 43439, Note_on_c, 0, 76, 0
2, 43439, Note_on_c, 0, 78, 55
2, 43439, Note_on_c, 0, 66, 91
2, 43560, Note_on_c, 0, 66, 0
2, 43560, Note_on_c, 0, 78, 0
2, 43560, Note_on_c, 0, 76, 47
2, 43560, Note_on_c, 0, 64, 73
2, 43680, Note_on_c, 0, 64, 0
2, 43680, Note_on_c, 0, 76, 0
2, 43680, Note_on_c, 0, 78, 50
2, 43680, Note_on_c, 0, 66, 87
2, 43799, Note_on_c, 0, 66, 0
2, 43799, Note_on_c, 0, 78, 0
2, 43799, Note_on_c, 0, 79, 52
2, 43799, Note_on_c, 0, 67, 86
2, 43920, Note_on_c, 0, 79, 0
2, 43920, Note_on_c, 0, 67, 0
2, 43920, Note_on_c, 0, 81, 57
2, 43920, Note_on_c, 0, 69, 90
2, 44040, Note_on_c, 0, 69, 0
2, 44040, Note_on_c, 0, 81, 0
2, 44040, Note_on_c, 0, 83, 56
2, 44040, Note_on_c, 0, 71, 89
2, 44159, Note_on_c, 0, 83, 0
2, 44159, Note_on_c, 0, 71, 0
2, 44159, Note_on_c, 0, 85, 56
2, 44159, Note_on_c, 0, 73, 89
2, 44280, Note_on_c, 0, 73, 0
2, 44280, Note_on_c, 0, 85, 0
2, 44280, Note_on_c, 0, 75, 53
2, 44280, Note_on_c, 0, 87, 53
2, 44400, Note_on_c, 0, 87, 0
2, 44400, Note_on_c, 0, 75, 0
2, 44400, Note_on_c, 0, 76, 54
2, 44400, Note_on_c, 0, 88, 54
2, 44519, Note_on_c, 0, 88, 0
2, 44519, Note_on_c, 0, 76, 0
2, 44519, Note_on_c, 0, 77, 56
2, 44519, Note_on_c, 0, 89, 56
2, 44640, Note_on_c, 0, 89, 0
2, 44640, Note_on_c, 0, 71, 0
2, 44640, Note_on_c, 0, 67, 0
2, 44640, Note_on_c, 0, 50, 0
2, 44640, Note_on_c, 0, 59, 0
2, 44640, Note_on_c, 0, 77, 0
2, 44640, Note_on_c, 0, 55, 0
2, 44640, Note_on_c, 0, 78, 52
2, 44640, Note_on_c, 0, 81, 52
2, 44640, Note_on_c, 0, 86, 52
2, 44640, Note_on_c, 0, 90, 52
2, 44640, Note_on_c, 0, 38, 70
2, 44640, Note_on_c, 0, 45, 70
2, 44760, Note_on_c, 0, 57, 68
2, 44879, Note_on_c, 0, 57, 0
2, 44879, Note_on_c, 0, 59, 75
2, 45000, Note_on_c, 0, 59, 0
2, 45000, Note_on_c, 0, 60, 74
2, 45120, Note_on_c, 0, 60, 0
2, 45120, Note_on_c, 0, 62, 83
2, 45239, Note_on_c, 0, 62, 0
2, 45239, Note_on_c, 0, 64, 84
2, 45360, Note_on_c, 0, 64, 0
2, 45360, Note_on_c, 0, 38, 0
2, 45360, Note_on_c, 0, 81, 0
2, 45360, Note_on_c, 0, 86, 0
2, 45360, Note_on_c, 0, 78, 0
2, 45360, Note_on_c, 0, 45, 0
2, 45360, Note_on_c, 0, 90, 0
2, 45360, Note_on_c, 0, 66, 36
2, 45360, Note_on_c, 0, 60, 81
2, 45360, Note_on_c, 0, 66, 81
2, 45360, Note_on_c, 0, 50, 90
2, 45360, Note_on_c, 0, 57, 90
2, 45480, Note_on_c, 0, 66, 0
2, 45480, Note_on_c, 0, 67, 48
2, 45599, Note_on_c, 0, 67, 0
2, 45599, Note_on_c, 0, 69, 54
2, 45720, Note_on_c, 0, 69, 0
2, 45720, Note_on_c, 0, 71, 57
2, 45840, Note_on_c, 0, 71, 0
2, 45840, Note_on_c, 0, 72, 54
2, 45959, Note_on_c, 0, 72, 0
2, 45959, Note_on_c, 0, 74, 58
2, 46080, Note_on_c, 0, 74, 0
2, 46080, Note_on_c, 0, 57, 0
2, 46080, Note_on_c, 0, 60, 0
2, 46080, Note_on_c, 0, 66, 0
2, 46080, Note_on_c, 0, 50, 0
2, 46080, Note_on_c, 0, 76, 54
2, 46080, Note_on_c, 0, 67, 86
2, 46080, Note_on_c, 0, 71, 86
2, 46080, Note_on_c, 0, 64, 104
2, 46080, Note_on_c, 0, 50, 80
2, 46080, Note_on_c, 0, 55, 80
2, 46080, Note_on_c, 0, 59, 80
2, 46200, Note_on_c, 0, 64, 0
2, 46200, Note_on_c, 0, 76, 0
2, 46200, Note_on_c, 0, 78, 54
2, 46200, Note_on_c, 0, 66, 93
2, 46319, Note_on_c, 0, 66, 0
2, 46319, Note_on_c, 0, 78, 0
2, 46319, Note_on_c, 0, 79, 51
2, 46319, Note_on_c, 0, 67, 88
2, 46440, Note_on_c, 0, 79, 0
2, 46440, Note_on_c, 0, 67, 0
2, 46440, Note_on_c, 0, 81, 57
2, 46440, Note_on_c, 0, 69, 91
2, 46560, Note_on_c, 0, 69, 0
2, 46560, Note_on_c, 0, 81, 0
2, 46560, Note_on_c, 0, 83, 57
2, 46560, Note_on_c, 0, 71, 84
2, 46679, Note_on_c, 0, 83, 0
2, 46679, Note_on_c, 0, 71, 0
2, 46679, Note_on_c, 0, 85, 53
2, 46679, Note_on_c, 0, 73, 90
2, 46800, Note_on_c, 0, 73, 0
2, 46800, Note_on_c, 0, 85, 0
2, 46800, Note_on_c, 0, 87, 59
2, 46800, Note_on_c, 0, 75, 89
2, 46920, Note_on_c, 0, 75, 0
2, 46920, Note_on_c, 0, 87, 0
2, 46920, Note_on_c, 0, 88, 50
2, 46920, Note_on_c, 0, 76, 86
2, 47039, Note_on_c, 0, 76, 0
2, 47039, Note_on_c, 0, 88, 0
2, 47039, Note_on_c, 0, 95, 62
2, 47039, Note_on_c, 0, 83, 100
2, 47160, Note_on_c, 0, 83, 0
2, 47160, Note_on_c, 0, 71, 0
2, 47160, Note_on_c, 0, 67, 0
2, 47160, Note_on_c, 0, 50, 0
2, 47160, Note_on_c, 0, 59, 0
2, 47160, Note_on_c, 0, 95, 0
2, 47160, Note_on_c, 0, 55, 0
2, 47520, Note_on_c, 0, 76, 54
2, 47520, Note_on_c, 0, 76, 85
2, 47520, Note_on_c, 0, 49, 78
2, 47640, Note_on_c, 0, 49, 0
2, 47640, Note_on_c, 0, 76, 0
2, 47640, Note_on_c, 0, 69, 63
2, 47640, Note_on_c, 0, 55, 90
2, 47759, Note_on_c, 0, 55, 0
2, 47759, Note_on_c, 0, 69, 0
2, 47759, Note_on_c, 0, 64, 65
2, 47759, Note_on_c, 0, 57, 85
2, 47837, Note_on_c, 0, 76, 0
2, 47880, Note_on_c, 0, 57, 0
2, 47880, Note_on_c, 0, 64, 0
2, 47880, Note_on_c, 0, 64, 71
2, 47880, Note_on_c, 0, 57, 87
2, 48000, Note_on_c, 0, 57, 0
2, 48000, Note_on_c, 0, 64, 0
2, 48000, Note_on_c, 0, 69, 83
2, 48000, Note_on_c, 0, 55, 80
2, 48119, Note_on_c, 0, 55, 0
2, 48119, Note_on_c, 0, 69, 0
2, 48119, Note_on_c, 0, 76, 56
2, 48119, Note_on_c, 0, 76, 93
2, 48119, Note_on_c, 0, 49, 76
2, 48225, Note_on_c, 0, 76, 0
2, 48240, Note_on_c, 0, 49, 0
2, 48240, Note_on_c, 0, 76, 0
2, 48240, Note_on_c, 0, 75, 59
2, 48240, Note_on_c, 0, 75, 78
2, 48240, Note_on_c, 0, 48, 80
2, 48360, Note_on_c, 0, 48, 0
2, 48360, Note_on_c, 0, 75, 0
2, 48360, Note_on_c, 0, 69, 62
2, 48360, Note_on_c, 0, 55, 89
2, 48479, Note_on_c, 0, 55, 0
2, 48479, Note_on_c, 0, 69, 0
2, 48479, Note_on_c, 0, 63, 62
2, 48479, Note_on_c, 0, 57, 90
2, 48557, Note_on_c, 0, 75, 0
2, 48600, Note_on_c, 0, 57, 0
2, 48600, Note_on_c, 0, 63, 0
2, 48600, Note_on_c, 0, 63, 72
2, 48600, Note_on_c, 0, 57, 92
2, 48720, Note_on_c, 0, 57, 0
2, 48720, Note_on_c, 0, 63, 0
2, 48720, Note_on_c, 0, 69, 88
2, 48720, Note_on_c, 0, 55, 79
2, 48839, Note_on_c, 0, 55, 0
2, 48839, Note_on_c, 0, 69, 0
2, 48839, Note_on_c, 0, 75, 55
2, 48839, Note_on_c, 0, 75, 87
2, 48839, Note_on_c, 0, 48, 79
2, 48945, Note_on_c, 0, 75, 0
2, 48960, Note_on_c, 0, 48, 0
2, 48960, Note_on_c, 0, 75, 0
2, 48960, Note_on_c, 0, 74, 58
2, 48960, Note_on_c, 0, 74, 75
2, 48960, Note_on_c, 0, 47, 86
2, 49080, Note_on_c, 0, 47, 0
2, 49080, Note_on_c, 0, 74, 0
2, 49080, Note_on_c, 0, 67, 58
2, 49080, Note_on_c, 0, 50, 87
2, 49199, Note_on_c, 0, 50, 0
2, 49199, Note_on_c, 0, 67, 0
2, 49199, Note_on_c, 0, 62, 65
2, 49199, Note_on_c, 0, 59, 90
2, 49277, Note_on_c, 0, 74, 0
2, 49320, Note_on_c, 0, 59, 0
2, 49320, Note_on_c, 0, 62, 0
2, 49320, Note_on_c, 0, 62, 74
2, 49320, Note_on_c, 0, 59, 85
2, 49440, Note_on_c, 0, 59, 0
2, 49440, Note_on_c, 0, 62, 0
2, 49440, Note_on_c, 0, 67, 86
2, 49440, Note_on_c, 0, 50, 77
2, 49559, Note_on_c, 0, 50, 0
2, 49559, Note_on_c, 0, 67, 0
2, 49559, Note_on_c, 0, 74, 57
2, 49559, Note_on_c, 0, 74, 91
2, 49559, Note_on_c, 0, 47, 74
2, 49665, Note_on_c, 0, 74, 0
2, 49680, Note_on_c, 0, 47, 0
2, 49680, Note_on_c, 0, 74, 0
2, 49680, Note_on_c, 0, 73, 60
2, 49680, Note_on_c, 0, 73, 75
2, 49680, Note_on_c, 0, 46, 80
2, 49800, Note_on_c, 0, 46, 0
2, 49800, Note_on_c, 0, 73, 0
2, 49800, Note_on_c, 0, 67, 66
2, 49800, Note_on_c, 0, 52, 93
2, 49919, Note_on_c, 0, 52, 0
2, 49919, Note_on_c, 0, 67, 0
2, 49919, Note_on_c, 0, 61, 59
2, 49919, Note_on_c, 0, 58, 92
2, 49997, Note_on_c, 0, 73, 0
2, 50040, Note_on_c, 0, 58, 0
2, 50040, Note_on_c, 0, 61, 0
2, 50040, Note_on_c, 0, 61, 76
2, 50040, Note_on_c, 0, 58, 81
2, 50160, Note_on_c, 0, 58, 0
2, 50160, Note_on_c, 0, 61, 0
2, 50160, Note_on_c, 0, 67, 87
2, 50160, Note_on_c, 0, 52, 78
2, 50279, Note_on_c, 0, 52, 0
2, 50279, Note_on_c, 0, 67, 0
2, 50279, Note_on_c, 0, 73, 59
2, 50279, Note_on_c, 0, 73, 88
2, 50279, Note_on_c, 0, 46, 75
2, 50385, Note_on_c, 0, 73, 0
2, 50400, Note_on_c, 0, 46, 0
2, 50400, Note_on_c, 0, 73, 0
2, 50400, Note_on_c, 0, 72, 56
2, 50400, Note_on_c, 0, 72, 72
2, 50400, Note_on_c, 0, 45, 81
2, 50520, Note_on_c, 0, 45, 0
2, 50520, Note_on_c, 0, 72, 0
2, 50520, Note_on_c, 0, 64, 63
2, 50520, Note_on_c, 0, 52, 90
2, 50639, Note_on_c, 0, 52, 0
2, 50639, Note_on_c, 0, 64, 0
2, 50639, Note_on_c, 0, 60, 65
2, 50639, Note_on_c, 0, 57, 87
2, 50717, Note_on_c, 0, 72, 0
2, 50760, Note_on_c, 0, 57, 0
2, 50760, Note_on_c, 0, 60, 0
2, 50760, Note_on_c, 0, 60, 70
2, 50760, Note_on_c, 0, 57, 83
2, 50880, Note_on_c, 0, 57, 0
2, 50880, Note_on_c, 0, 60, 0
2, 50880, Note_on_c, 0, 64, 82
2, 50880, Note_on_c, 0, 52, 76
2, 50999, Note_on_c, 0, 52, 0
2, 50999, Note_on_c, 0, 64, 0
2, 50999, Note_on_c, 0, 72, 57
2, 50999, Note_on_c, 0, 72, 89
2, 50999, Note_on_c, 0, 45, 74
2, 51105, Note_on_c, 0, 72, 0
2, 51120, Note_on_c, 0, 45, 0
2, 51120, Note_on_c, 0, 72, 0
2, 51120, Note_on_c, 0, 72, 57
2, 51120, Note_on_c, 0, 72, 79
2, 51120, Note_on_c, 0, 45, 83
2, 51240, Note_on_c, 0, 45, 0
2, 51240, Note_on_c, 0, 72, 0
2, 51240, Note_on_c, 0, 64, 58
2, 51240, Note_on_c, 0, 52, 90
2, 51359, Note_on_c, 0, 52, 0
2, 51359, Note_on_c, 0, 64, 0
2, 51359, Note_on_c, 0, 60, 66
2, 51359, Note_on_c, 0, 57, 85
2, 51437, Note_on_c, 0, 72, 0
2, 51480, Note_on_c, 0, 57, 0
2, 51480, Note_on_c, 0, 60, 0
2, 51480, Note_on_c, 0, 71, 62
2, 51480, Note_on_c, 0, 71, 91
2, 51480, Note_on_c, 0, 43, 72
2, 51600, Note_on_c, 0, 43, 0
2, 51600, Note_on_c, 0, 71, 0
2, 51600, Note_on_c, 0, 64, 66
2, 51600, Note_on_c, 0, 52, 93
2, 51719, Note_on_c, 0, 52, 0
2, 51719, Note_on_c, 0, 64, 0
2, 51719, Note_on_c, 0, 59, 74
2, 51719, Note_on_c, 0, 55, 85
2, 51797, Note_on_c, 0, 71, 0
2, 51840, Note_on_c, 0, 55, 0
2, 51840, Note_on_c, 0, 59, 0
2, 51840, Note_on_c, 0, 58, 90
2, 51840, Note_on_c, 0, 64, 90
2, 51840, Note_on_c, 0, 70, 90
2, 51840, Note_on_c, 0, 42, 63
2, 51840, Note_on_c, 0, 49, 63
2, 52020, Note_on_c, 0, 61, 46
2, 52020, Note_on_c, 0, 52, 72
2, 52065, Note_on_c, 0, 52, 0
2, 52065, Note_on_c, 0, 61, 0
2, 52065, Note_on_c, 0, 64, 60
2, 52065, Note_on_c, 0, 55, 85
2, 52110, Note_on_c, 0, 55, 0
2, 52110, Note_on_c, 0, 64, 0
2, 52110, Note_on_c, 0, 67, 56
2, 52110, Note_on_c, 0, 58, 87
2, 52155, Note_on_c, 0, 67, 0
2, 52155, Note_on_c, 0, 58, 0
2, 52155, Note_on_c, 0, 70, 51
2, 52155, Note_on_c, 0, 61, 96
2, 52200, Note_on_c, 0, 61, 0
2, 52200, Note_on_c, 0, 70, 0
2, 52200, Note_on_c, 0, 73, 55
2, 52200, Note_on_c, 0, 64, 91
2, 52245, Note_on_c, 0, 73, 0
2, 52245, Note_on_c, 0, 64, 0
2, 52245, Note_on_c, 0, 76, 52
2, 52245, Note_on_c, 0, 67, 86
2, 52290, Note_on_c, 0, 67, 0
2, 52290, Note_on_c, 0, 76, 0
2, 52290, Note_on_c, 0, 79, 55
2, 52290, Note_on_c, 0, 70, 94
2, 52335, Note_on_c, 0, 79, 0
2, 52335, Note_on_c, 0, 70, 0
2, 52335, Note_on_c, 0, 82, 55
2, 52335, Note_on_c, 0, 73, 91
2, 52380, Note_on_c, 0, 73, 0
2, 52380, Note_on_c, 0, 82, 0
2, 52380, Note_on_c, 0, 85, 52
2, 52380, Note_on_c, 0, 76, 91
2, 52425, Note_on_c, 0, 76, 0
2, 52425, Note_on_c, 0, 85, 0
2, 52425, Note_on_c, 0, 88, 55
2, 52425, Note_on_c, 0, 79, 87
2, 52470, Note_on_c, 0, 79, 0
2, 52470, Note_on_c, 0, 88, 0
2, 52470, Note_on_c, 0, 91, 43
2, 52470, Note_on_c, 0, 82, 65
2, 52515, Note_on_c, 0, 82, 0
2, 52515, Note_on_c, 0, 91, 0
2, 52515, Note_on_c, 0, 94, 51
2, 52515, Note_on_c, 0, 85, 87
2, 52560, Note_on_c, 0, 85, 0
2, 52560, Note_on_c, 0, 94, 0
2, 52560, Note_on_c, 0, 97, 51
2, 52560, Note_on_c, 0, 88, 92
2, 52605, Note_on_c, 0, 88, 0
2, 52605, Note_on_c, 0, 97, 0
2, 52605, Note_on_c, 0, 100, 59
2, 52605, Note_on_c, 0, 91, 92
2, 52650, Note_on_c, 0, 91, 0
2, 52650, Note_on_c, 0, 100, 0
2, 52650, Note_on_c, 0, 103, 56
2, 52650, Note_on_c, 0, 94, 89
2, 52740, Note_on_c, 0, 94, 0
2, 52740, Note_on_c, 0, 103, 0
2, 52920, Note_on_c, 0, 64, 0
2, 52920, Note_on_c, 0, 49, 0
2, 52920, Note_on_c, 0, 42, 0
2, 52920, Note_on_c, 0, 70, 0
2, 52920, Note_on_c, 0, 58, 0
2, 53460, Note_on_c, 0, 60, 46
2, 53460, Note_on_c, 0, 52, 72
2, 53505, Note_on_c, 0, 52, 0
2, 53505, Note_on_c, 0, 60, 0
2, 53505, Note_on_c, 0, 64, 54
2, 53505, Note_on_c, 0, 59, 90
2, 53550, Note_on_c, 0, 59, 0
2, 53550, Note_on_c, 0, 64, 0
2, 53550, Note_on_c, 0, 69, 59
2, 53550, Note_on_c, 0, 60, 89
2, 53595, Note_on_c, 0, 60, 0
2, 53595, Note_on_c, 0, 69, 0
2, 53595, Note_on_c, 0, 71, 55
2, 53595, Note_on_c, 0, 64, 90
2, 53640, Note_on_c, 0, 64, 0
2, 53640, Note_on_c, 0, 71, 0
2, 53640, Note_on_c, 0, 72, 50
2, 53640, Note_on_c, 0, 69, 97
2, 53685, Note_on_c, 0, 69, 0
2, 53685, Note_on_c, 0, 72, 0
2, 53685, Note_on_c, 0, 76, 57
2, 53685, Note_on_c, 0, 71, 88
2, 53730, Note_on_c, 0, 71, 0
2, 53730, Note_on_c, 0, 76, 0
2, 53730, Note_on_c, 0, 81, 54
2, 53730, Note_on_c, 0, 72, 92
2, 53775, Note_on_c, 0, 72, 0
2, 53775, Note_on_c, 0, 81, 0
2, 53775, Note_on_c, 0, 83, 52
2, 53775, Note_on_c, 0, 76, 96
2, 53820, Note_on_c, 0, 76, 0
2, 53820, Note_on_c, 0, 83, 0
2, 53820, Note_on_c, 0, 84, 52
2, 53820, Note_on_c, 0, 81, 95
2, 53865, Note_on_c, 0, 81, 0
2, 53865, Note_on_c, 0, 84, 0
2, 53865, Note_on_c, 0, 88, 40
2, 53865, Note_on_c, 0, 83, 66
2, 53910, Note_on_c, 0, 83, 0
2, 53910, Note_on_c, 0, 88, 0
2, 53910, Note_on_c, 0, 93, 55
2, 53910, Note_on_c, 0, 84, 82
2, 53955, Note_on_c, 0, 84, 0
2, 53955, Note_on_c, 0, 93, 0
2, 53955, Note_on_c, 0, 95, 52
2, 53955, Note_on_c, 0, 88, 92
2, 54000, Note_on_c, 0, 88, 0
2, 54000, Note_on_c, 0, 95, 0
2, 54000, Note_on_c, 0, 96, 54
2, 54000, Note_on_c, 0, 93, 91
2, 54045, Note_on_c, 0, 93, 0
2, 54045, Note_on_c, 0, 96, 0
2, 54045, Note_on_c, 0, 98, 49
2, 54045, Note_on_c, 0, 95, 89
2, 54090, Note_on_c, 0, 95, 0
2, 54090, Note_on_c, 0, 98, 0
2, 54090, Note_on_c, 0, 100, 55
2, 54090, Note_on_c, 0, 96, 89
2, 54180, Note_on_c, 0, 96, 0
2, 54180, Note_on_c, 0, 100, 0
2, 54900, Note_on_c, 0, 52, 47
2, 54900, Note_on_c, 0, 45, 76
2, 54990, Note_on_c, 0, 45, 0
2, 54990, Note_on_c, 0, 52, 0
2, 54990, Note_on_c, 0, 60, 62
2, 54990, Note_on_c, 0, 52, 85
2, 55080, Note_on_c, 0, 52, 0
2, 55080, Note_on_c, 0, 60, 0
2, 55080, Note_on_c, 0, 64, 57
2, 55080, Note_on_c, 0, 54, 87
2, 55170, Note_on_c, 0, 54, 0
2, 55170, Note_on_c, 0, 64, 0
2, 55170, Note_on_c, 0, 66, 59
2, 55170, Note_on_c, 0, 57, 88
2, 55260, Note_on_c, 0, 57, 0
2, 55260, Note_on_c, 0, 66, 0
2, 55260, Note_on_c, 0, 69, 52
2, 55260, Note_on_c, 0, 60, 86
2, 55350, Note_on_c, 0, 60, 0
2, 55350, Note_on_c, 0, 69, 0
2, 55350, Note_on_c, 0, 72, 54
2, 55350, Note_on_c, 0, 64, 94
2, 55440, Note_on_c, 0, 64, 0
2, 55440, Note_on_c, 0, 72, 0
2, 55440, Note_on_c, 0, 76, 56
2, 55440, Note_on_c, 0, 66, 90
2, 55530, Note_on_c, 0, 66, 0
2, 55530, Note_on_c, 0, 76, 0
2, 55530, Note_on_c, 0, 78, 54
2, 55530, Note_on_c, 0, 69, 96
2, 55620, Note_on_c, 0, 69, 0
2, 55620, Note_on_c, 0, 78, 0
2, 55620, Note_on_c, 0, 81, 54
2, 55620, Note_on_c, 0, 72, 92
2, 55710, Note_on_c, 0, 72, 0
2, 55710, Note_on_c, 0, 81, 0
2, 55710, Note_on_c, 0, 84, 59
2, 55710, Note_on_c, 0, 76, 95
2, 55800, Note_on_c, 0, 76, 0
2, 55800, Note_on_c, 0, 84, 0
2, 55800, Note_on_c, 0, 88, 53
2, 55800, Note_on_c, 0, 78, 87
2, 55890, Note_on_c, 0, 78, 0
2, 55890, Note_on_c, 0, 88, 0
2, 55890, Note_on_c, 0, 90, 37
2, 55890, Note_on_c, 0, 81, 67
2, 55980, Note_on_c, 0, 81, 0
2, 55980, Note_on_c, 0, 90, 0
2, 55980, Note_on_c, 0, 93, 50
2, 55980, Note_on_c, 0, 84, 89
2, 56070, Note_on_c, 0, 84, 0
2, 56070, Note_on_c, 0, 93, 0
2, 56070, Note_on_c, 0, 96, 60
2, 56070, Note_on_c, 0, 88, 94
2, 56160, Note_on_c, 0, 88, 0
2, 56160, Note_on_c, 0, 96, 0
2, 56160, Note_on_c, 0, 100, 60
2, 56160, Note_on_c, 0, 90, 94
2, 56250, Note_on_c, 0, 90, 0
2, 56250, Note_on_c, 0, 100, 0
2, 56250, Note_on_c, 0, 102, 51
2, 56250, Note_on_c, 0, 93, 90
2, 56340, Note_on_c, 0, 93, 0
2, 56340, Note_on_c, 0, 102, 0
2, 56340, Note_on_c, 0, 105, 58
2, 56340, Note_on_c, 0, 96, 91
2, 56430, Note_on_c, 0, 96, 0
2, 56430, Note_on_c, 0, 92, 108
2, 56430, Note_on_c, 0, 95, 108
2, 56520, Note_on_c, 0, 95, 0
2, 56520, Note_on_c, 0, 92, 0
2, 56520, Note_on_c, 0, 105, 0
2, 56520, Note_on_c, 0, 93, 92
2, 56520, Note_on_c, 0, 96, 92
2, 56610, Note_on_c, 0, 96, 0
2, 56610, Note_on_c, 0, 93, 0
2, 56610, Note_on_c, 0, 83, 64
2, 56610, Note_on_c, 0, 87, 64
2, 56700, Note_on_c, 0, 87, 0
2, 56700, Note_on_c, 0, 83, 0
2, 56700, Note_on_c, 0, 84, 85
2, 56700, Note_on_c, 0, 88, 85
2, 56790, Note_on_c, 0, 88, 0
2, 56790, Note_on_c, 0, 84, 0
2, 56790, Note_on_c, 0, 89, 90
2, 56790, Note_on_c, 0, 92, 90
2, 56880, Note_on_c, 0, 92, 0
2, 56880, Note_on_c, 0, 89, 0
2, 56880, Note_on_c, 0, 89, 94
2, 56880, Note_on_c, 0, 93, 94
2, 56970, Note_on_c, 0, 93, 0
2, 56970, Note_on_c, 0, 89, 0
2, 56970, Note_on_c, 0, 80, 63
2, 56970, Note_on_c, 0, 83, 63
2, 57060, Note_on_c, 0, 83, 0
2, 57060, Note_on_c, 0, 80, 0
2, 57060, Note_on_c, 0, 81, 94
2, 57060, Note_on_c, 0, 84, 94
2, 57150, Note_on_c, 0, 84, 0
2, 57150, Note_on_c, 0, 81, 0
2, 57150, Note_on_c, 0, 83, 94
2, 57150, Note_on_c, 0, 87, 94
2, 57240, Note_on_c, 0, 87, 0
2, 57240, Note_on_c, 0, 83, 0
2, 57240, Note_on_c, 0, 84, 87
2, 57240, Note_on_c, 0, 88, 87
2, 57330, Note_on_c, 0, 88, 0
2, 57330, Note_on_c, 0, 84, 0
2, 57330, Note_on_c, 0, 77, 65
2, 57330, Note_on_c, 0, 80, 65
2, 57420, Note_on_c, 0, 80, 0
2, 57420, Note_on_c, 0, 77, 0
2, 57420, Note_on_c, 0, 76, 86
2, 57420, Note_on_c, 0, 81, 86
2, 57510, Note_on_c, 0, 81, 0
2, 57510, Note_on_c, 0, 76, 0
2, 57510, Note_on_c, 0, 80, 95
2, 57510, Note_on_c, 0, 83, 95
2, 57600, Note_on_c, 0, 83, 0
2, 57600, Note_on_c, 0, 80, 0
2, 57600, Note_on_c, 0, 81, 88
2, 57600, Note_on_c, 0, 84, 88
2, 57690, Note_on_c, 0, 84, 0
2, 57690, Note_on_c, 0, 81, 0
2, 57690, Note_on_c, 0, 83, 94
2, 57690, Note_on_c, 0, 87, 94
2, 57780, Note_on_c, 0, 87, 0
2, 57780, Note_on_c, 0, 83, 0
2, 57780, Note_on_c, 0, 84, 92
2, 57780, Note_on_c, 0, 88, 92
2, 57870, Note_on_c, 0, 88, 0
2, 57870, Note_on_c, 0, 84, 0
2, 57870, Note_on_c, 0, 77, 65
2, 57870, Note_on_c, 0, 80, 65
2, 57960, Note_on_c, 0, 80, 0
2, 57960, Note_on_c, 0, 77, 0
2, 57960, Note_on_c, 0, 76, 84
2, 57960, Note_on_c, 0, 81, 84
2, 58050, Note_on_c, 0, 81, 0
2, 58050, Note_on_c, 0, 76, 0
2, 58050, Note_on_c, 0, 80, 89
2, 58050, Note_on_c, 0, 83, 89
2, 58140, Note_on_c, 0, 83, 0
2, 58140, Note_on_c, 0, 80, 0
2, 58140, Note_on_c, 0, 81, 88
2, 58140, Note_on_c, 0, 84, 88
2, 58230, Note_on_c, 0, 84, 0
2, 58230, Note_on_c, 0, 81, 0
2, 58230, Note_on_c, 0, 71, 71
2, 58230, Note_on_c, 0, 75, 71
2, 58320, Note_on_c, 0, 75, 0
2, 58320, Note_on_c, 0, 71, 0
2, 58320, Note_on_c, 0, 72, 80
2, 58320, Note_on_c, 0, 76, 80
2, 58410, Note_on_c, 0, 76, 0
2, 58410, Note_on_c, 0, 72, 0
2, 58410, Note_on_c, 0, 77, 92
2, 58410, Note_on_c, 0, 80, 92
2, 58500, Note_on_c, 0, 80, 0
2, 58500, Note_on_c, 0, 77, 0
2, 58500, Note_on_c, 0, 76, 89
2, 58500, Note_on_c, 0, 81, 89
2, 58590, Note_on_c, 0, 81, 0
2, 58590, Note_on_c, 0, 76, 0
2, 58590, Note_on_c, 0, 68, 64
2, 58590, Note_on_c, 0, 71, 64
2, 58680, Note_on_c, 0, 71, 0
2, 58680, Note_on_c, 0, 68, 0
2, 58680, Note_on_c, 0, 69, 90
2, 58680, Note_on_c, 0, 72, 90
2, 58770, Note_on_c, 0, 72, 0
2, 58770, Note_on_c, 0, 69, 0
2, 58770, Note_on_c, 0, 71, 92
2, 58770, Note_on_c, 0, 75, 92
2, 58860, Note_on_c, 0, 75, 0
2, 58860, Note_on_c, 0, 71, 0
2, 58860, Note_on_c, 0, 72, 85
2, 58860, Note_on_c, 0, 76, 85
2, 58950, Note_on_c, 0, 76, 0
2, 58950, Note_on_c, 0, 72, 0
2, 58950, Note_on_c, 0, 65, 71
2, 58950, Note_on_c, 0, 68, 71
2, 59040, Note_on_c, 0, 68, 0
2, 59040, Note_on_c, 0, 65, 0
2, 59040, Note_on_c, 0, 64, 82
2, 59040, Note_on_c, 0, 69, 82
2, 59130, Note_on_c, 0, 69, 0
2, 59130, Note_on_c, 0, 64, 0
2, 59130, Note_on_c, 0, 68, 91
2, 59130, Note_on_c, 0, 71, 91
2, 59220, Note_on_c, 0, 71, 0
2, 59220, Note_on_c, 0, 68, 0
2, 59220, Note_on_c, 0, 69, 84
2, 59220, Note_on_c, 0, 72, 84
2, 59310, Note_on_c, 0, 72, 0
2, 59310, Note_on_c, 0, 69, 0
2, 59310, Note_on_c, 0, 59, 66
2, 59310, Note_on_c, 0, 63, 66
2, 59400, Note_on_c, 0, 63, 0
2, 59400, Note_on_c, 0, 59, 0
2, 59400, Note_on_c, 0, 60, 80
2, 59400, Note_on_c, 0, 64, 80
2, 59490, Note_on_c, 0, 64, 0
2, 59490, Note_on_c, 0, 60, 0
2, 59490, Note_on_c, 0, 65, 88
2, 59490, Note_on_c, 0, 68, 88
2, 59580, Note_on_c, 0, 68, 0
2, 59580, Note_on_c, 0, 65, 0
2, 59580, Note_on_c, 0, 64, 83
2, 59580, Note_on_c, 0, 69, 83
2, 59670, Note_on_c, 0, 69, 0
2, 59670, Note_on_c, 0, 64, 0
2, 59670, Note_on_c, 0, 56, 72
2, 59670, Note_on_c, 0, 59, 72
2, 59760, Note_on_c, 0, 59, 0
2, 59760, Note_on_c, 0, 56, 0
2, 59760, Note_on_c, 0, 57, 84
2, 59760, Note_on_c, 0, 60, 84
2, 59850, Note_on_c, 0, 60, 0
2, 59850, Note_on_c, 0, 57, 0
2, 59850, Note_on_c, 0, 59, 92
2, 59850, Note_on_c, 0, 63, 92
2, 59940, Note_on_c, 0, 63, 0
2, 59940, Note_on_c, 0, 59, 0
2, 59940, Note_on_c, 0, 60, 93
2, 59940, Note_on_c, 0, 64, 93
2, 60030, Note_on_c, 0, 64, 0
2, 60030, Note_on_c, 0, 60, 0
2, 60030, Note_on_c, 0, 56, 79
2, 60030, Note_on_c, 0, 59, 79
2, 60120, Note_on_c, 0, 59, 0
2, 60120, Note_on_c, 0, 56, 0
2, 60120, Note_on_c, 0, 57, 84
2, 60120, Note_on_c, 0, 60, 84
2, 60210, Note_on_c, 0, 60, 0
2, 60210, Note_on_c, 0, 57, 0
2, 60210, Note_on_c, 0, 59, 93
2, 60210, Note_on_c, 0, 63, 93
2, 60300, Note_on_c, 0, 63, 0
2, 60300, Note_on_c, 0, 59, 0
2, 60300, Note_on_c, 0, 60, 86
2, 60300, Note_on_c, 0, 64, 86
2, 60390, Note_on_c, 0, 64, 0
2, 60390, Note_on_c, 0, 60, 0
2, 60390, Note_on_c, 0, 56, 79
2, 60390, Note_on_c, 0, 59, 79
2, 60480, Note_on_c, 0, 59, 0
2, 60480, Note_on_c, 0, 56, 0
2, 60480, Note_on_c, 0, 57, 88
2, 60480, Note_on_c, 0, 60, 88
2, 60570, Note_on_c, 0, 60, 0
2, 60570, Note_on_c, 0, 57, 0
2, 60570, Note_on_c, 0, 59, 96
2, 60570, Note_on_c, 0, 63, 96
2, 60660, Note_on_c, 0, 63, 0
2, 60660, Note_on_c, 0, 59, 0
2, 60660, Note_on_c, 0, 60, 94
2, 60660, Note_on_c, 0, 64, 94
2, 60750, Note_on_c, 0, 64, 0
2, 60750, Note_on_c, 0, 60, 0
2, 60750, Note_on_c, 0, 56, 82
2, 60750, Note_on_c, 0, 59, 82
2, 60840, Note_on_c, 0, 59, 0
2, 60840, Note_on_c, 0, 56, 0
2, 60840, Note_on_c, 0, 57, 87
2, 60840, Note_on_c, 0, 60, 87
2, 60930, Note_on_c, 0, 60, 0
2, 60930, Note_on_c, 0, 57, 0
2, 60930, Note_on_c, 0, 59, 92
2, 60930, Note_on_c, 0, 63, 92
2, 61020, Note_on_c, 0, 63, 0
2, 61020, Note_on_c, 0, 59, 0
2, 61020, Note_on_c, 0, 60, 82
2, 61020, Note_on_c, 0, 64, 82
2, 61110, Note_on_c, 0, 64, 0
2, 61110, Note_on_c, 0, 60, 0
2, 61110, Note_on_c, 0, 56, 78
2, 61110, Note_on_c, 0, 59, 78
2, 61200, Note_on_c, 0, 59, 0
2, 61200, Note_on_c, 0, 56, 0
2, 61200, Note_on_c, 0, 57, 91
2, 61200, Note_on_c, 0, 60, 91
2, 61290, Note_on_c, 0, 60, 0
2, 61290, Note_on_c, 0, 57, 0
2, 61290, Note_on_c, 0, 59, 93
2, 61290, Note_on_c, 0, 63, 93
2, 61380, Note_on_c, 0, 63, 0
2, 61380, Note_on_c, 0, 59, 0
2, 61380, Note_on_c, 0, 60, 87
2, 61380, Note_on_c, 0, 64, 87
2, 61470, Note_on_c, 0, 64, 0
2, 61470, Note_on_c, 0, 60, 0
2, 61470, Note_on_c, 0, 56, 76
2, 61470, Note_on_c, 0, 59, 76
2, 61560, Note_on_c, 0, 59, 0
2, 61560, Note_on_c, 0, 56, 0
2, 61560, Note_on_c, 0, 57, 88
2, 61560, Note_on_c, 0, 60, 88
2, 61650, Note_on_c, 0, 60, 0
2, 61650, Note_on_c, 0, 57, 0
2, 61650, Note_on_c, 0, 59, 89
2, 61650, Note_on_c, 0, 63, 89
2, 61740, Note_on_c, 0, 63, 0
2, 61740, Note_on_c, 0, 59, 0
2, 61740, Note_on_c, 0, 60, 92
2, 61740, Note_on_c, 0, 64, 92
2, 61830, Note_on_c, 0, 64, 0
2, 61830, Note_on_c, 0, 60, 0
2, 61830, Note_on_c, 0, 56, 78
2, 61830, Note_on_c, 0, 59, 78
2, 61920, Note_on_c, 0, 59, 0
2, 61920, Note_on_c, 0, 56, 0
2, 61920, Note_on_c, 0, 57, 86
2, 61920, Note_on_c, 0, 60, 86
2, 62010, Note_on_c, 0, 60, 0
2, 62010, Note_on_c, 0, 57, 0
2, 62010, Note_on_c, 0, 59, 91
2, 62010, Note_on_c, 0, 63, 91
2, 62100, Note_on_c, 0, 63, 0
2, 62100, Note_on_c, 0, 59, 0
2, 62100, Note_on_c, 0, 60, 52
2, 62100, Note_on_c, 0, 64, 52
2, 62820, Note_on_c, 0, 64, 0
2, 62820, Note_on_c, 0, 60, 0
2, 62820, Note_on_c, 0, 63, 44
2, 63000, Note_on_c, 0, 63, 0
2, 63000, Note_on_c, 0, 64, 49
2, 63180, Note_on_c, 0, 64, 0
2, 63180, Note_on_c, 0, 66, 57
2, 63360, Note_on_c, 0, 66, 0
2, 63360, Note_on_c, 0, 69, 50
2, 63540, Note_on_c, 0, 69, 0
2, 63540, Note_on_c, 0, 67, 49
2, 63720, Note_on_c, 0, 67, 0
2, 63720, Note_on_c, 0, 66, 47
2, 63900, Note_on_c, 0, 66, 0
2, 63900, Note_on_c, 0, 64, 46
2, 64080, Note_on_c, 0, 64, 0
2, 64080, Note_on_c, 0, 63, 53
2, 64260, Note_on_c, 0, 63, 0
2, 64260, Note_on_c, 0, 66, 48
2, 64440, Note_on_c, 0, 66, 0
2, 64440, Note_on_c, 0, 64, 51
2, 64620, Note_on_c, 0, 64, 0
2, 64620, Note_on_c, 0, 62, 49
2, 64800, Note_on_c, 0, 62, 0
2, 64800, Note_on_c, 0, 60, 47
2, 64980, Note_on_c, 0, 60, 0
2, 64980, Note_on_c, 0, 59, 46
2, 65160, Note_on_c, 0, 59, 0
2, 65160, Note_on_c, 0, 62, 49
2, 65340, Note_on_c, 0, 62, 0
2, 65340, Note_on_c, 0, 60, 50
2, 65520, Note_on_c, 0, 60, 0
2, 65520, Note_on_c, 0, 59, 49
2, 65700, Note_on_c, 0, 59, 0
2, 65700, Note_on_c, 0, 57, 49
2, 65880, Note_on_c, 0, 57, 0
2, 65880, Note_on_c, 0, 60, 54
2, 66060, Note_on_c, 0, 60, 0
2, 66060, Note_on_c, 0, 59, 46
2, 66240, Note_on_c, 0, 59, 0
2, 66240, Note_on_c, 0, 57, 46
2, 66420, Note_on_c, 0, 57, 0
2, 66420, Note_on_c, 0, 55, 53
2, 66600, Note_on_c, 0, 55, 0
2, 66600, Note_on_c, 0, 59, 70
2, 66690, Note_on_c, 0, 59, 0
2, 66690, Note_on_c, 0, 57, 83
2, 66780, Note_on_c, 0, 57, 0
2, 66780, Note_on_c, 0, 55, 78
2, 66870, Note_on_c, 0, 55, 0
2, 66870, Note_on_c, 0, 54, 81
2, 66960, Note_on_c, 0, 54, 0
2, 66960, Note_on_c, 0, 57, 80
2, 67050, Note_on_c, 0, 57, 0
2, 67050, Note_on_c, 0, 55, 80
2, 67140, Note_on_c, 0, 55, 0
2, 67140, Note_on_c, 0, 54, 82
2, 67230, Note_on_c, 0, 54, 0
2, 67230, Note_on_c, 0, 52, 84
2, 67320, Note_on_c, 0, 52, 0
2, 67320, Note_on_c, 0, 55, 87
2, 67410, Note_on_c, 0, 55, 0
2, 67410, Note_on_c, 0, 54, 81
2, 67500, Note_on_c, 0, 54, 0
2, 67500, Note_on_c, 0, 52, 83
2, 67590, Note_on_c, 0, 52, 0
2, 67590, Note_on_c, 0, 50, 77
2, 67680, Note_on_c, 0, 50, 0
2, 67680, Note_on_c, 0, 54, 53
2, 67770, Note_on_c, 0, 54, 0
2, 67770, Note_on_c, 0, 52, 44
2, 67860, Note_on_c, 0, 52, 0
2, 67860, Note_on_c, 0, 51, 52
2, 67950, Note_on_c, 0, 51, 0
2, 67950, Note_on_c, 0, 50, 49
2, 68040, Note_on_c, 0, 50, 0
2, 68040, Note_on_c, 0, 43, 53
2, 68040, Note_on_c, 0, 49, 53
2, 68130, Note_on_c, 0, 49, 0
2, 68130, Note_on_c, 0, 43, 0
2, 68130, Note_on_c, 0, 50, 53
2, 68220, Note_on_c, 0, 50, 0
2, 68220, Note_on_c, 0, 54, 50
2, 68310, Note_on_c, 0, 54, 0
2, 68310, Note_on_c, 0, 55, 49
2, 68400, Note_on_c, 0, 55, 0
2, 68400, Note_on_c, 0, 58, 47
2, 68490, Note_on_c, 0, 58, 0
2, 68490, Note_on_c, 0, 59, 49
2, 68580, Note_on_c, 0, 59, 0
2, 68580, Note_on_c, 0, 61, 57
2, 68670, Note_on_c, 0, 61, 0
2, 68670, Note_on_c, 0, 62, 49
2, 68760, Note_on_c, 0, 62, 0
2, 68760, Note_on_c, 0, 63, 50
2, 68850, Note_on_c, 0, 63, 0
2, 68850, Note_on_c, 0, 66, 50
2, 68940, Note_on_c, 0, 66, 0
2, 68940, Note_on_c, 0, 69, 56
2, 69030, Note_on_c, 0, 69, 0
2, 69030, Note_on_c, 0, 71, 55
2, 69120, Note_on_c, 0, 71, 0
2, 69120, Note_on_c, 0, 72, 51
2, 69210, Note_on_c, 0, 72, 0
2, 69210, Note_on_c, 0, 73, 56
2, 69300, Note_on_c, 0, 73, 0
2, 69300, Note_on_c, 0, 74, 53
2, 69390, Note_on_c, 0, 74, 0
2, 69390, Note_on_c, 0, 75, 53
2, 69480, Note_on_c, 0, 75, 0
2, 69480, Note_on_c, 0, 76, 44
2, 69570, Note_on_c, 0, 76, 0
2, 69570, Note_on_c, 0, 72, 42
2, 69660, Note_on_c, 0, 72, 0
2, 69660, Note_on_c, 0, 71, 48
2, 69750, Note_on_c, 0, 71, 0
2, 69750, Note_on_c, 0, 69, 44
2, 69840, Note_on_c, 0, 69, 0
2, 69840, Note_on_c, 0, 67, 47
2, 69930, Note_on_c, 0, 67, 0
2, 69930, Note_on_c, 0, 66, 43
2, 70020, Note_on_c, 0, 66, 0
2, 70020, Note_on_c, 0, 64, 46
2, 70110, Note_on_c, 0, 64, 0
2, 70110, Note_on_c, 0, 62, 45
2, 70200, Note_on_c, 0, 62, 0
2, 70200, Note_on_c, 0, 60, 46
2, 70290, Note_on_c, 0, 60, 0
2, 70290, Note_on_c, 0, 59, 49
2, 70380, Note_on_c, 0, 59, 0
2, 70380, Note_on_c, 0, 57, 47
2, 70470, Note_on_c, 0, 57, 0
2, 70470, Note_on_c, 0, 55, 47
2, 70560, Note_on_c, 0, 55, 0
2, 70560, Note_on_c, 0, 54, 48
2, 70650, Note_on_c, 0, 54, 0
2, 70650, Note_on_c, 0, 52, 51
2, 70740, Note_on_c, 0, 52, 0
2, 70740, Note_on_c, 0, 51, 51
2, 70830, Note_on_c, 0, 51, 0
2, 70830, Note_on_c, 0, 50, 53
2, 70920, Note_on_c, 0, 50, 0
2, 70920, Note_on_c, 0, 43, 45
2, 70920, Note_on_c, 0, 49, 45
2, 71010, Note_on_c, 0, 49, 0
2, 71010, Note_on_c, 0, 43, 0
2, 71010, Note_on_c, 0, 50, 51
2, 71100, Note_on_c, 0, 50, 0
2, 71100, Note_on_c, 0, 54, 54
2, 71190, Note_on_c, 0, 54, 0
2, 71190, Note_on_c, 0, 55, 55
2, 71280, Note_on_c, 0, 55, 0
2, 71280, Note_on_c, 0, 58, 48
2, 71370, Note_on_c, 0, 58, 0
2, 71370, Note_on_c, 0, 59, 52
2, 71460, Note_on_c, 0, 59, 0
2, 71460, Note_on_c, 0, 61, 51
2, 71550, Note_on_c, 0, 61, 0
2, 71550, Note_on_c, 0, 62, 55
2, 71640, Note_on_c, 0, 62, 0
2, 71640, Note_on_c, 0, 63, 49
2, 71730, Note_on_c, 0, 63, 0
2, 71730, Note_on_c, 0, 64, 50
2, 71820, Note_on_c, 0, 64, 0
2, 71820, Note_on_c, 0, 65, 52
2, 71910, Note_on_c, 0, 65, 0
2, 71910, Note_on_c, 0, 66, 53
2, 72000, Note_on_c, 0, 66, 0
2, 72000, Note_on_c, 0, 67, 55
2, 72090, Note_on_c, 0, 67, 0
2, 72090, Note_on_c, 0, 69, 50
2, 72180, Note_on_c, 0, 69, 0
2, 72180, Note_on_c, 0, 70, 57
2, 72270, Note_on_c, 0, 70, 0
2, 72270, Note_on_c, 0, 71, 54
2, 72360, Note_on_c, 0, 71, 0
2, 72360, Note_on_c, 0, 74, 48
2, 72450, Note_on_c, 0, 74, 0
2, 72450, Note_on_c, 0, 72, 47
2, 72540, Note_on_c, 0, 72, 0
2, 72540, Note_on_c, 0, 71, 50
2, 72630, Note_on_c, 0, 71, 0
2, 72630, Note_on_c, 0, 69, 51
2, 72720, Note_on_c, 0, 69, 0
2, 72720, Note_on_c, 0, 67, 44
2, 72810, Note_on_c, 0, 67, 0
2, 72810, Note_on_c, 0, 66, 48
2, 72900, Note_on_c, 0, 66, 0
2, 72900, Note_on_c, 0, 64, 47
2, 72990, Note_on_c, 0, 64, 0
2, 72990, Note_on_c, 0, 62, 48
2, 73080, Note_on_c, 0, 62, 0
2, 73080, Note_on_c, 0, 60, 47
2, 73170, Note_on_c, 0, 60, 0
2, 73170, Note_on_c, 0, 59, 47
2, 73260, Note_on_c, 0, 59, 0
2, 73260, Note_on_c, 0, 57, 46
2, 73350, Note_on_c, 0, 57, 0
2, 73350, Note_on_c, 0, 55, 46
2, 73440, Note_on_c, 0, 55, 0
2, 73440, Note_on_c, 0, 54, 51
2, 73530, Note_on_c, 0, 54, 0
2, 73530, Note_on_c, 0, 52, 53
2, 73620, Note_on_c, 0, 52, 0
2, 73620, Note_on_c, 0, 51, 45
2, 73710, Note_on_c, 0, 51, 0
2, 73710, Note_on_c, 0, 50, 48
2, 73800, Note_on_c, 0, 50, 0
2, 73800, Note_on_c, 0, 43, 42
2, 73800, Note_on_c, 0, 49, 42
2, 73890, Note_on_c, 0, 49, 0
2, 73890, Note_on_c, 0, 43, 0
2, 73890, Note_on_c, 0, 50, 50
2, 73980, Note_on_c, 0, 50, 0
2, 73980, Note_on_c, 0, 54, 49
2, 74070, Note_on_c, 0, 54, 0
2, 74070, Note_on_c, 0, 55, 53
2, 74160, Note_on_c, 0, 55, 0
2, 74160, Note_on_c, 0, 58, 49
2, 74250, Note_on_c, 0, 58, 0
2, 74250, Note_on_c, 0, 59, 54
2, 74340, Note_on_c, 0, 59, 0
2, 74340, Note_on_c, 0, 61, 56
2, 74430, Note_on_c, 0, 61, 0
2, 74430, Note_on_c, 0, 62, 55
2, 74520, Note_on_c, 0, 62, 0
2, 74520, Note_on_c, 0, 63, 53
2, 74610, Note_on_c, 0, 63, 0
2, 74610, Note_on_c, 0, 66, 56
2, 74700, Note_on_c, 0, 66, 0
2, 74700, Note_on_c, 0, 69, 59
2, 74790, Note_on_c, 0, 69, 0
2, 74790, Note_on_c, 0, 71, 50
2, 74880, Note_on_c, 0, 71, 0
2, 74880, Note_on_c, 0, 72, 50
2, 74970, Note_on_c, 0, 72, 0
2, 74970, Note_on_c, 0, 73, 54
2, 75060, Note_on_c, 0, 73, 0
2, 75060, Note_on_c, 0, 74, 53
2, 75150, Note_on_c, 0, 74, 0
2, 75150, Note_on_c, 0, 75, 51
2, 75240, Note_on_c, 0, 75, 0
2, 75240, Note_on_c, 0, 78, 43
2, 75330, Note_on_c, 0, 78, 0
2, 75330, Note_on_c, 0, 76, 46
2, 75420, Note_on_c, 0, 76, 0
2, 75420, Note_on_c, 0, 72, 44
2, 75510, Note_on_c, 0, 72, 0
2, 75510, Note_on_c, 0, 71, 45
2, 75600, Note_on_c, 0, 71, 0
2, 75600, Note_on_c, 0, 69, 47
2, 75690, Note_on_c, 0, 69, 0
2, 75690, Note_on_c, 0, 67, 47
2, 75780, Note_on_c, 0, 67, 0
2, 75780, Note_on_c, 0, 66, 46
2, 75870, Note_on_c, 0, 66, 0
2, 75870, Note_on_c, 0, 64, 51
2, 75960, Note_on_c, 0, 64, 0
2, 75960, Note_on_c, 0, 60, 43
2, 76050, Note_on_c, 0, 60, 0
2, 76050, Note_on_c, 0, 59, 50
2, 76140, Note_on_c, 0, 59, 0
2, 76140, Note_on_c, 0, 57, 45
2, 76230, Note_on_c, 0, 57, 0
2, 76230, Note_on_c, 0, 55, 47
2, 76320, Note_on_c, 0, 55, 0
2, 76320, Note_on_c, 0, 54, 51
2, 76410, Note_on_c, 0, 54, 0
2, 76410, Note_on_c, 0, 52, 51
2, 76500, Note_on_c, 0, 52, 0
2, 76500, Note_on_c, 0, 51, 46
2, 76590, Note_on_c, 0, 51, 0
2, 76590, Note_on_c, 0, 50, 52
2, 76680, Note_on_c, 0, 50, 0
2, 76680, Note_on_c, 0, 43, 46
2, 76680, Note_on_c, 0, 49, 46
2, 76770, Note_on_c, 0, 49, 0
2, 76770, Note_on_c, 0, 43, 0
2, 76770, Note_on_c, 0, 50, 45
2, 76860, Note_on_c, 0, 50, 0
2, 76860, Note_on_c, 0, 54, 56
2, 76950, Note_on_c, 0, 54, 0
2, 76950, Note_on_c, 0, 55, 50
2, 77040, Note_on_c, 0, 55, 0
2, 77040, Note_on_c, 0, 58, 50
2, 77130, Note_on_c, 0, 58, 0
2, 77130, Note_on_c, 0, 59, 49
2, 77220, Note_on_c, 0, 59, 0
2, 77220, Note_on_c, 0, 61, 55
2, 77310, Note_on_c, 0, 61, 0
2, 77310, Note_on_c, 0, 62, 53
2, 77400, Note_on_c, 0, 62, 0
2, 77400, Note_on_c, 0, 63, 51
2, 77490, Note_on_c, 0, 63, 0
2, 77490, Note_on_c, 0, 64, 54
2, 77580, Note_on_c, 0, 64, 0
2, 77580, Note_on_c, 0, 65, 50
2, 77670, Note_on_c, 0, 65, 0
2, 77670, Note_on_c, 0, 66, 53
2, 77760, Note_on_c, 0, 66, 0
2, 77760, Note_on_c, 0, 67, 51
2, 77850, Note_on_c, 0, 67, 0
2, 77850, Note_on_c, 0, 69, 55
2, 77940, Note_on_c, 0, 69, 0
2, 77940, Note_on_c, 0, 70, 56
2, 78030, Note_on_c, 0, 70, 0
2, 78030, Note_on_c, 0, 71, 51
2, 78120, Note_on_c, 0, 71, 0
2, 78120, Note_on_c, 0, 74, 42
2, 78210, Note_on_c, 0, 74, 0
2, 78210, Note_on_c, 0, 72, 45
2, 78300, Note_on_c, 0, 72, 0
2, 78300, Note_on_c, 0, 71, 44
2, 78390, Note_on_c, 0, 71, 0
2, 78390, Note_on_c, 0, 67, 46
2, 78480, Note_on_c, 0, 67, 0
2, 78480, Note_on_c, 0, 66, 48
2, 78570, Note_on_c, 0, 66, 0
2, 78570, Note_on_c, 0, 64, 49
2, 78660, Note_on_c, 0, 64, 0
2, 78660, Note_on_c, 0, 60, 40
2, 78750, Note_on_c, 0, 60, 0
2, 78750, Note_on_c, 0, 59, 45
2, 78840, Note_on_c, 0, 59, 0
2, 78840, Note_on_c, 0, 52, 47
2, 79020, Note_on_c, 0, 52, 0
2, 79200, Note_on_c, 0, 66, 77
2, 79290, Note_on_c, 0, 66, 0
2, 79290, Note_on_c, 0, 64, 81
2, 79380, Note_on_c, 0, 64, 0
2, 79380, Note_on_c, 0, 64, 84
2, 79470, Note_on_c, 0, 64, 0
2, 79470, Note_on_c, 0, 62, 80
2, 79560, Note_on_c, 0, 62, 0
2, 79560, Note_on_c, 0, 62, 85
2, 79650, Note_on_c, 0, 62, 0
2, 79650, Note_on_c, 0, 61, 76
2, 79740, Note_on_c, 0, 61, 0
2, 79740, Note_on_c, 0, 61, 86
2, 79830, Note_on_c, 0, 61, 0
2, 79830, Note_on_c, 0, 62, 82
2, 79920, Note_on_c, 0, 62, 0
2, 79920, Note_on_c, 0, 56, 77
2, 80010, Note_on_c, 0, 56, 0
2, 80010, Note_on_c, 0, 57, 84
2, 80100, Note_on_c, 0, 57, 0
2, 80100, Note_on_c, 0, 57, 86
2, 80190, Note_on_c, 0, 57, 0
2, 80190, Note_on_c, 0, 59, 87
2, 80280, Note_on_c, 0, 59, 0
2, 80280, Note_on_c, 0, 59, 83
2, 80370, Note_on_c, 0, 59, 0
2, 80370, Note_on_c, 0, 61, 89
2, 80460, Note_on_c, 0, 61, 0
2, 80460, Note_on_c, 0, 61, 85
2, 80550, Note_on_c, 0, 61, 0
2, 80550, Note_on_c, 0, 62, 88
2, 80640, Note_on_c, 0, 62, 0
2, 80640, Note_on_c, 0, 62, 83
2, 80730, Note_on_c, 0, 62, 0
2, 80730, Note_on_c, 0, 63, 87
2, 80820, Note_on_c, 0, 63, 0
2, 80820, Note_on_c, 0, 63, 86
2, 80910, Note_on_c, 0, 63, 0
2, 80910, Note_on_c, 0, 66, 92
2, 81000, Note_on_c, 0, 66, 0
2, 81000, Note_on_c, 0, 66, 84
2, 81090, Note_on_c, 0, 66, 0
2, 81090, Note_on_c, 0, 64, 75
2, 81180, Note_on_c, 0, 64, 0
2, 81180, Note_on_c, 0, 64, 83
2, 81270, Note_on_c, 0, 64, 0
2, 81270, Note_on_c, 0, 63, 80
2, 81360, Note_on_c, 0, 63, 0
2, 81360, Note_on_c, 0, 63, 85
2, 81450, Note_on_c, 0, 63, 0
2, 81450, Note_on_c, 0, 64, 85
2, 81540, Note_on_c, 0, 64, 0
2, 81540, Note_on_c, 0, 64, 84
2, 81630, Note_on_c, 0, 64, 0
2, 81630, Note_on_c, 0, 66, 89
2, 81720, Note_on_c, 0, 66, 0
2, 81720, Note_on_c, 0, 66, 87
2, 81810, Note_on_c, 0, 66, 0
2, 81810, Note_on_c, 0, 67, 89
2, 81900, Note_on_c, 0, 67, 0
2, 81900, Note_on_c, 0, 67, 85
2, 81990, Note_on_c, 0, 67, 0
2, 81990, Note_on_c, 0, 66, 77
2, 82080, Note_on_c, 0, 66, 0
2, 82080, Note_on_c, 0, 66, 80
2, 82170, Note_on_c, 0, 66, 0
2, 82170, Note_on_c, 0, 64, 78
2, 82260, Note_on_c, 0, 64, 0
2, 82260, Note_on_c, 0, 64, 79
2, 82350, Note_on_c, 0, 64, 0
2, 82350, Note_on_c, 0, 63, 79
2, 82440, Note_on_c, 0, 63, 0
2, 82440, Note_on_c, 0, 62, 79
2, 82530, Note_on_c, 0, 62, 0
2, 82530, Note_on_c, 0, 61, 80
2, 82620, Note_on_c, 0, 61, 0
2, 82620, Note_on_c, 0, 61, 86
2, 82710, Note_on_c, 0, 61, 0
2, 82710, Note_on_c, 0, 62, 83
2, 82800, Note_on_c, 0, 62, 0
2, 82800, Note_on_c, 0, 56, 75
2, 82890, Note_on_c, 0, 56, 0
2, 82890, Note_on_c, 0, 57, 84
2, 82980, Note_on_c, 0, 57, 0
2, 82980, Note_on_c, 0, 57, 84
2, 83070, Note_on_c, 0, 57, 0
2, 83070, Note_on_c, 0, 59, 87
2, 83160, Note_on_c, 0, 59, 0
2, 83160, Note_on_c, 0, 59, 79
2, 83250, Note_on_c, 0, 59, 0
2, 83250, Note_on_c, 0, 61, 93
2, 83340, Note_on_c, 0, 61, 0
2, 83340, Note_on_c, 0, 61, 83
2, 83430, Note_on_c, 0, 61, 0
2, 83430, Note_on_c, 0, 62, 88
2, 83520, Note_on_c, 0, 62, 0
2, 83520, Note_on_c, 0, 62, 85
2, 83610, Note_on_c, 0, 62, 0
2, 83610, Note_on_c, 0, 66, 91
2, 83700, Note_on_c, 0, 66, 0
2, 83700, Note_on_c, 0, 66, 80
2, 83790, Note_on_c, 0, 66, 0
2, 83790, Note_on_c, 0, 71, 90
2, 83880, Note_on_c, 0, 71, 0
2, 83880, Note_on_c, 0, 71, 83
2, 83970, Note_on_c, 0, 71, 0
2, 83970, Note_on_c, 0, 69, 84
2, 84060, Note_on_c, 0, 69, 0
2, 84060, Note_on_c, 0, 69, 78
2, 84150, Note_on_c, 0, 69, 0
2, 84150, Note_on_c, 0, 68, 83
2, 84240, Note_on_c, 0, 68, 0
2, 84240, Note_on_c, 0, 68, 83
2, 84330, Note_on_c, 0, 68, 0
2, 84330, Note_on_c, 0, 67, 75
2, 84420, Note_on_c, 0, 67, 0
2, 84420, Note_on_c, 0, 67, 86
2, 84510, Note_on_c, 0, 67, 0
2, 84510, Note_on_c, 0, 66, 80
2, 84600, Note_on_c, 0, 66, 0
2, 84600, Note_on_c, 0, 66, 84
2, 84690, Note_on_c, 0, 66, 0
2, 84690, Note_on_c, 0, 64, 78
2, 84780, Note_on_c, 0, 64, 0
2, 84780, Note_on_c, 0, 64, 81
2, 84870, Note_on_c, 0, 64, 0
2, 84870, Note_on_c, 0, 66, 89
2, 84960, Note_on_c, 0, 66, 0
2, 84960, Note_on_c, 0, 66, 86
2, 85050, Note_on_c, 0, 66, 0
2, 85050, Note_on_c, 0, 64, 79
2, 85140, Note_on_c, 0, 64, 0
2, 85140, Note_on_c, 0, 64, 80
2, 85230, Note_on_c, 0, 64, 0
2, 85230, Note_on_c, 0, 62, 73
2, 85320, Note_on_c, 0, 62, 0
2, 85320, Note_on_c, 0, 62, 83
2, 85410, Note_on_c, 0, 62, 0
2, 85410, Note_on_c, 0, 61, 78
2, 85500, Note_on_c, 0, 61, 0
2, 85500, Note_on_c, 0, 61, 82
2, 85590, Note_on_c, 0, 61, 0
2, 85590, Note_on_c, 0, 62, 88
2, 85680, Note_on_c, 0, 62, 0
2, 85680, Note_on_c, 0, 56, 79
2, 85770, Note_on_c, 0, 56, 0
2, 85770, Note_on_c, 0, 57, 80
2, 85860, Note_on_c, 0, 57, 0
2, 85860, Note_on_c, 0, 57, 85
2, 85950, Note_on_c, 0, 57, 0
2, 85950, Note_on_c, 0, 59, 87
2, 86040, Note_on_c, 0, 59, 0
2, 86040, Note_on_c, 0, 59, 81
2, 86130, Note_on_c, 0, 59, 0
2, 86130, Note_on_c, 0, 61, 86
2, 86220, Note_on_c, 0, 61, 0
2, 86220, Note_on_c, 0, 61, 85
2, 86310, Note_on_c, 0, 61, 0
2, 86310, Note_on_c, 0, 62, 87
2, 86400, Note_on_c, 0, 62, 0
2, 86400, Note_on_c, 0, 62, 89
2, 86490, Note_on_c, 0, 62, 0
2, 86490, Note_on_c, 0, 63, 90
2, 86580, Note_on_c, 0, 63, 0
2, 86580, Note_on_c, 0, 63, 84
2, 86670, Note_on_c, 0, 63, 0
2, 86670, Note_on_c, 0, 66, 87
2, 86760, Note_on_c, 0, 66, 0
2, 86760, Note_on_c, 0, 66, 83
2, 86850, Note_on_c, 0, 66, 0
2, 86850, Note_on_c, 0, 64, 76
2, 86940, Note_on_c, 0, 64, 0
2, 86940, Note_on_c, 0, 64, 81
2, 87030, Note_on_c, 0, 64, 0
2, 87030, Note_on_c, 0, 63, 79
2, 87120, Note_on_c, 0, 63, 0
2, 87120, Note_on_c, 0, 63, 81
2, 87210, Note_on_c, 0, 63, 0
2, 87210, Note_on_c, 0, 64, 87
2, 87300, Note_on_c, 0, 64, 0
2, 87300, Note_on_c, 0, 64, 88
2, 87390, Note_on_c, 0, 64, 0
2, 87390, Note_on_c, 0, 66, 89
2, 87480, Note_on_c, 0, 66, 0
2, 87480, Note_on_c, 0, 66, 91
2, 87570, Note_on_c, 0, 66, 0
2, 87570, Note_on_c, 0, 67, 87
2, 87660, Note_on_c, 0, 67, 0
2, 87660, Note_on_c, 0, 67, 87
2, 87750, Note_on_c, 0, 67, 0
2, 87750, Note_on_c, 0, 66, 77
2, 87840, Note_on_c, 0, 66, 0
2, 87840, Note_on_c, 0, 66, 88
2, 87930, Note_on_c, 0, 66, 0
2, 87930, Note_on_c, 0, 64, 77
2, 88020, Note_on_c, 0, 64, 0
2, 88020, Note_on_c, 0, 64, 78
2, 88110, Note_on_c, 0, 64, 0
2, 88110, Note_on_c, 0, 63, 78
2, 88200, Note_on_c, 0, 63, 0
2, 88200, Note_on_c, 0, 62, 77
2, 88290, Note_on_c, 0, 62, 0
2, 88290, Note_on_c, 0, 61, 79
2, 88380, Note_on_c, 0, 61, 0
2, 88380, Note_on_c, 0, 61, 80
2, 88470, Note_on_c, 0, 61, 0
2, 88470, Note_on_c, 0, 62, 86
2, 88560, Note_on_c, 0, 62, 0
2, 88560, Note_on_c, 0, 62, 87
2, 88650, Note_on_c, 0, 62, 0
2, 88650, Note_on_c, 0, 64, 91
2, 88740, Note_on_c, 0, 64, 0
2, 88740, Note_on_c, 0, 64, 85
2, 88830, Note_on_c, 0, 64, 0
2, 88830, Note_on_c, 0, 65, 86
2, 88920, Note_on_c, 0, 65, 0
2, 88920, Note_on_c, 0, 65, 86
2, 89010, Note_on_c, 0, 65, 0
2, 89010, Note_on_c, 0, 66, 89
2, 89100, Note_on_c, 0, 66, 0
2, 89100, Note_on_c, 0, 66, 86
2, 89190, Note_on_c, 0, 66, 0
2, 89190, Note_on_c, 0, 69, 92
2, 89280, Note_on_c, 0, 69, 0
2, 89280, Note_on_c, 0, 69, 86
2, 89370, Note_on_c, 0, 69, 0
2, 89370, Note_on_c, 0, 72, 93
2, 89460, Note_on_c, 0, 72, 0
2, 89460, Note_on_c, 0, 72, 84
2, 89550, Note_on_c, 0, 72, 0
2, 89550, Note_on_c, 0, 78, 91
2, 89640, Note_on_c, 0, 78, 0
2, 89640, Note_on_c, 0, 78, 87
2, 89730, Note_on_c, 0, 78, 0
2, 89730, Note_on_c, 0, 76, 74
2, 89820, Note_on_c, 0, 76, 0
2, 89820, Note_on_c, 0, 76, 82
2, 89910, Note_on_c, 0, 76, 0
2, 89910, Note_on_c, 0, 71, 73
2, 90000, Note_on_c, 0, 71, 0
2, 90000, Note_on_c, 0, 74, 88
2, 90090, Note_on_c, 0, 74, 0
2, 90090, Note_on_c, 0, 72, 78
2, 90180, Note_on_c, 0, 72, 0
2, 90180, Note_on_c, 0, 71, 78
2, 90270, Note_on_c, 0, 71, 0
2, 90270, Note_on_c, 0, 69, 79
2, 90360, Note_on_c, 0, 69, 0
2, 90360, Note_on_c, 0, 72, 91
2, 90450, Note_on_c, 0, 72, 0
2, 90450, Note_on_c, 0, 71, 82
2, 90540, Note_on_c, 0, 71, 0
2, 90540, Note_on_c, 0, 69, 74
2, 90630, Note_on_c, 0, 69, 0
2, 90630, Note_on_c, 0, 67, 73
2, 90720, Note_on_c, 0, 67, 0
2, 90720, Note_on_c, 0, 66, 44
2, 90810, Note_on_c, 0, 66, 0
2, 90810, Note_on_c, 0, 64, 48
2, 90900, Note_on_c, 0, 64, 0
2, 90900, Note_on_c, 0, 63, 44
2, 90990, Note_on_c, 0, 63, 0
2, 90990, Note_on_c, 0, 62, 52
2, 91080, Note_on_c, 0, 62, 0
2, 91080, Note_on_c, 0, 55, 47
2, 91080, Note_on_c, 0, 61, 47
2, 91170, Note_on_c, 0, 61, 0
2, 91170, Note_on_c, 0, 55, 0
2, 91170, Note_on_c, 0, 62, 58
2, 91260, Note_on_c, 0, 62, 0
2, 91260, Note_on_c, 0, 66, 57
2, 91350, Note_on_c, 0, 66, 0
2, 91350, Note_on_c, 0, 67, 54
2, 91440, Note_on_c, 0, 67, 0
2, 91440, Note_on_c, 0, 70, 53
2, 91530, Note_on_c, 0, 70, 0
2, 91530, Note_on_c, 0, 71, 51
2, 91620, Note_on_c, 0, 71, 0
2, 91620, Note_on_c, 0, 73, 56
2, 91710, Note_on_c, 0, 73, 0
2, 91710, Note_on_c, 0, 74, 50
2, 91800, Note_on_c, 0, 74, 0
2, 91800, Note_on_c, 0, 75, 53
2, 91890, Note_on_c, 0, 75, 0
2, 91890, Note_on_c, 0, 78, 54
2, 91980, Note_on_c, 0, 78, 0
2, 91980, Note_on_c, 0, 81, 54
2, 92070, Note_on_c, 0, 81, 0
2, 92070, Note_on_c, 0, 83, 55
2, 92160, Note_on_c, 0, 83, 0
2, 92160, Note_on_c, 0, 84, 51
2, 92250, Note_on_c, 0, 84, 0
2, 92250, Note_on_c, 0, 85, 52
2, 92340, Note_on_c, 0, 85, 0
2, 92340, Note_on_c, 0, 86, 52
2, 92430, Note_on_c, 0, 86, 0
2, 92430, Note_on_c, 0, 87, 51
2, 92520, Note_on_c, 0, 87, 0
2, 92520, Note_on_c, 0, 88, 54
2, 92610, Note_on_c, 0, 88, 0
2, 92610, Note_on_c, 0, 84, 50
2, 92700, Note_on_c, 0, 84, 0
2, 92700, Note_on_c, 0, 83, 47
2, 92790, Note_on_c, 0, 83, 0
2, 92790, Note_on_c, 0, 81, 44
2, 92880, Note_on_c, 0, 81, 0
2, 92880, Note_on_c, 0, 79, 47
2, 92970, Note_on_c, 0, 79, 0
2, 92970, Note_on_c, 0, 78, 46
2, 93060, Note_on_c, 0, 78, 0
2, 93060, Note_on_c, 0, 76, 49
2, 93150, Note_on_c, 0, 76, 0
2, 93150, Note_on_c, 0, 74, 44
2, 93240, Note_on_c, 0, 74, 0
2, 93240, Note_on_c, 0, 72, 48
2, 93330, Note_on_c, 0, 72, 0
2, 93330, Note_on_c, 0, 71, 48
2, 93420, Note_on_c, 0, 71, 0
2, 93420, Note_on_c, 0, 69, 49
2, 93510, Note_on_c, 0, 69, 0
2, 93510, Note_on_c, 0, 67, 46
2, 93600, Note_on_c, 0, 67, 0
2, 93600, Note_on_c, 0, 66, 45
2, 93690, Note_on_c, 0, 66, 0
2, 93690, Note_on_c, 0, 64, 47
2, 93780, Note_on_c, 0, 64, 0
2, 93780, Note_on_c, 0, 63, 51
2, 93870, Note_on_c, 0, 63, 0
2, 93870, Note_on_c, 0, 62, 51
2, 93960, Note_on_c, 0, 62, 0
2, 93960, Note_on_c, 0, 55, 48
2, 93960, Note_on_c, 0, 61, 48
2, 94050, Note_on_c, 0, 61, 0
2, 94050, Note_on_c, 0, 55, 0
2, 94050, Note_on_c, 0, 62, 55
2, 94140, Note_on_c, 0, 62, 0
2, 94140, Note_on_c, 0, 66, 56
2, 94230, Note_on_c, 0, 66, 0
2, 94230, Note_on_c, 0, 67, 54
2, 94320, Note_on_c, 0, 67, 0
2, 94320, Note_on_c, 0, 70, 53
2, 94410, Note_on_c, 0, 70, 0
2, 94410, Note_on_c, 0, 71, 58
2, 94500, Note_on_c, 0, 71, 0
2, 94500, Note_on_c, 0, 73, 54
2, 94590, Note_on_c, 0, 73, 0
2, 94590, Note_on_c, 0, 74, 47
2, 94680, Note_on_c, 0, 74, 0
2, 94680, Note_on_c, 0, 75, 56
2, 94770, Note_on_c, 0, 75, 0
2, 94770, Note_on_c, 0, 76, 55
2, 94860, Note_on_c, 0, 76, 0
2, 94860, Note_on_c, 0, 77, 53
2, 94950, Note_on_c, 0, 77, 0
2, 94950, Note_on_c, 0, 78, 51
2, 95040, Note_on_c, 0, 78, 0
2, 95040, Note_on_c, 0, 79, 57
2, 95130, Note_on_c, 0, 79, 0
2, 95130, Note_on_c, 0, 81, 54
2, 95220, Note_on_c, 0, 81, 0
2, 95220, Note_on_c, 0, 82, 51
2, 95310, Note_on_c, 0, 82, 0
2, 95310, Note_on_c, 0, 83, 47
2, 95400, Note_on_c, 0, 83, 0
2, 95400, Note_on_c, 0, 86, 55
2, 95490, Note_on_c, 0, 86, 0
2, 95490, Note_on_c, 0, 84, 53
2, 95580, Note_on_c, 0, 84, 0
2, 95580, Note_on_c, 0, 83, 47
2, 95670, Note_on_c, 0, 83, 0
2, 95670, Note_on_c, 0, 81, 45
2, 95760, Note_on_c, 0, 81, 0
2, 95760, Note_on_c, 0, 79, 48
2, 95850, Note_on_c, 0, 79, 0
2, 95850, Note_on_c, 0, 78, 49
2, 95940, Note_on_c, 0, 78, 0
2, 95940, Note_on_c, 0, 76, 48
2, 96030, Note_on_c, 0, 76, 0
2, 96030, Note_on_c, 0, 74, 49
2, 96120, Note_on_c, 0, 74, 0
2, 96120, Note_on_c, 0, 72, 47
2, 96210, Note_on_c, 0, 72, 0
2, 96210, Note_on_c, 0, 71, 47
2, 96300, Note_on_c, 0, 71, 0
2, 96300, Note_on_c, 0, 69, 47
2, 96390, Note_on_c, 0, 69, 0
2, 96390, Note_on_c, 0, 67, 46
2, 96480, Note_on_c, 0, 67, 0
2, 96480, Note_on_c, 0, 66, 45
2, 96570, Note_on_c, 0, 66, 0
2, 96570, Note_on_c, 0, 64, 44
2, 96660, Note_on_c, 0, 64, 0
2, 96660, Note_on_c, 0, 63, 48
2, 96750, Note_on_c, 0, 63, 0
2, 96750, Note_on_c, 0, 62, 43
2, 96840, Note_on_c, 0, 62, 0
2, 96840, Note_on_c, 0, 55, 46
2, 96840, Note_on_c, 0, 61, 46
2, 96930, Note_on_c, 0, 61, 0
2, 96930, Note_on_c, 0, 55, 0
2, 96930, Note_on_c, 0, 62, 55
2, 97020, Note_on_c, 0, 62, 0
2, 97020, Note_on_c, 0, 66, 56
2, 97110, Note_on_c, 0, 66, 0
2, 97110, Note_on_c, 0, 67, 55
2, 97200, Note_on_c, 0, 67, 0
2, 97200, Note_on_c, 0, 70, 56
2, 97290, Note_on_c, 0, 70, 0
2, 97290, Note_on_c, 0, 71, 53
2, 97380, Note_on_c, 0, 71, 0
2, 97380, Note_on_c, 0, 73, 55
2, 97470, Note_on_c, 0, 73, 0
2, 97470, Note_on_c, 0, 74, 57
2, 97560, Note_on_c, 0, 74, 0
2, 97560, Note_on_c, 0, 75, 53
2, 97650, Note_on_c, 0, 75, 0
2, 97650, Note_on_c, 0, 78, 51
2, 97740, Note_on_c, 0, 78, 0
2, 97740, Note_on_c, 0, 81, 56
2, 97830, Note_on_c, 0, 81, 0
2, 97830, Note_on_c, 0, 83, 53
2, 97920, Note_on_c, 0, 83, 0
2, 97920, Note_on_c, 0, 84, 58
2, 98010, Note_on_c, 0, 84, 0
2, 98010, Note_on_c, 0, 85, 54
2, 98100, Note_on_c, 0, 85, 0
2, 98100, Note_on_c, 0, 86, 51
2, 98190, Note_on_c, 0, 86, 0
2, 98190, Note_on_c, 0, 87, 55
2, 98280, Note_on_c, 0, 87, 0
2, 98280, Note_on_c, 0, 90, 56
2, 98370, Note_on_c, 0, 90, 0
2, 98370, Note_on_c, 0, 88, 50
2, 98460, Note_on_c, 0, 88, 0
2, 98460, Note_on_c, 0, 84, 48
2, 98550, Note_on_c, 0, 84, 0
2, 98550, Note_on_c, 0, 83, 43
2, 98640, Note_on_c, 0, 83, 0
2, 98640, Note_on_c, 0, 81, 44
2, 98730, Note_on_c, 0, 81, 0
2, 98730, Note_on_c, 0, 79, 46
2, 98820, Note_on_c, 0, 79, 0
2, 98820, Note_on_c, 0, 78, 46
2, 98910, Note_on_c, 0, 78, 0
2, 98910, Note_on_c, 0, 76, 46
2, 99000, Note_on_c, 0, 76, 0
2, 99000, Note_on_c, 0, 72, 40
2, 99090, Note_on_c, 0, 72, 0
2, 99090, Note_on_c, 0, 71, 43
2, 99180, Note_on_c, 0, 71, 0
2, 99180, Note_on_c, 0, 69, 42
2, 99270, Note_on_c, 0, 69, 0
2, 99270, Note_on_c, 0, 67, 48
2, 99360, Note_on_c, 0, 67, 0
2, 99360, Note_on_c, 0, 66, 47
2, 99450, Note_on_c, 0, 66, 0
2, 99450, Note_on_c, 0, 64, 44
2, 99540, Note_on_c, 0, 64, 0
2, 99540, Note_on_c, 0, 63, 48
2, 99630, Note_on_c, 0, 63, 0
2, 99630, Note_on_c, 0, 62, 51
2, 99720, Note_on_c, 0, 62, 0
2, 99720, Note_on_c, 0, 55, 50
2, 99720, Note_on_c, 0, 61, 50
2, 99810, Note_on_c, 0, 61, 0
2, 99810, Note_on_c, 0, 55, 0
2, 99810, Note_on_c, 0, 62, 52
2, 99900, Note_on_c, 0, 62, 0
2, 99900, Note_on_c, 0, 66, 56
2, 99990, Note_on_c, 0, 66, 0
2, 99990, Note_on_c, 0, 67, 51
2, 100080, Note_on_c, 0, 67, 0
2, 100080, Note_on_c, 0, 70, 56
2, 100170, Note_on_c, 0, 70, 0
2, 100170, Note_on_c, 0, 71, 52
2, 100260, Note_on_c, 0, 71, 0
2, 100260, Note_on_c, 0, 73, 53
2, 100350, Note_on_c, 0, 73, 0
2, 100350, Note_on_c, 0, 74, 49
2, 100440, Note_on_c, 0, 74, 0
2, 100440, Note_on_c, 0, 75, 49
2, 100530, Note_on_c, 0, 75, 0
2, 100530, Note_on_c, 0, 76, 53
2, 100620, Note_on_c, 0, 76, 0
2, 100620, Note_on_c, 0, 77, 53
2, 100710, Note_on_c, 0, 77, 0
2, 100710, Note_on_c, 0, 78, 54
2, 100800, Note_on_c, 0, 78, 0
2, 100800, Note_on_c, 0, 79, 52
2, 100890, Note_on_c, 0, 79, 0
2, 100890, Note_on_c, 0, 81, 54
2, 100980, Note_on_c, 0, 81, 0
2, 100980, Note_on_c, 0, 82, 56
2, 101070, Note_on_c, 0, 82, 0
2, 101070, Note_on_c, 0, 83, 55
2, 101160, Note_on_c, 0, 83, 0
2, 101160, Note_on_c, 0, 86, 54
2, 101232, Note_on_c, 0, 86, 0
2, 101232, Note_on_c, 0, 84, 48
2, 101304, Note_on_c, 0, 84, 0
2, 101304, Note_on_c, 0, 83, 46
2, 101375, Note_on_c, 0, 83, 0
2, 101375, Note_on_c, 0, 81, 44
2, 101447, Note_on_c, 0, 81, 0
2, 101447, Note_on_c, 0, 79, 47
2, 101520, Note_on_c, 0, 79, 0
2, 101520, Note_on_c, 0, 78, 45
2, 101592, Note_on_c, 0, 78, 0
2, 101592, Note_on_c, 0, 76, 46
2, 101664, Note_on_c, 0, 76, 0
2, 101664, Note_on_c, 0, 74, 48
2, 101735, Note_on_c, 0, 74, 0
2, 101735, Note_on_c, 0, 72, 52
2, 101807, Note_on_c, 0, 72, 0
2, 101807, Note_on_c, 0, 71, 44
2, 101880, Note_on_c, 0, 71, 0
2, 101880, Note_on_c, 0, 64, 43
2, 102060, Note_on_c, 0, 64, 0
2, 102240, Note_on_c, 0, 59, 57
2, 102240, Note_on_c, 0, 67, 57
2, 102240, Note_on_c, 0, 52, 53
2, 102600, Note_on_c, 0, 52, 0
2, 102600, Note_on_c, 0, 67, 0
2, 102600, Note_on_c, 0, 59, 0
2, 102600, Note_on_c, 0, 62, 52
2, 102600, Note_on_c, 0, 47, 60
2, 102600, Note_on_c, 0, 54, 60
2, 102720, Note_on_c, 0, 54, 0
2, 102720, Note_on_c, 0, 47, 0
2, 102720, Note_on_c, 0, 62, 0
2, 102720, Note_on_c, 0, 66, 66
2, 102720, Note_on_c, 0, 59, 64
2, 102839, Note_on_c, 0, 59, 0
2, 102839, Note_on_c, 0, 66, 0
2, 102839, Note_on_c, 0, 71, 73
2, 102839, Note_on_c, 0, 62, 64
2, 102960, Note_on_c, 0, 62, 0
2, 102960, Note_on_c, 0, 71, 0
2, 102960, Note_on_c, 0, 74, 67
2, 102960, Note_on_c, 0, 66, 68
2, 103140, Note_on_c, 0, 66, 0
2, 103140, Note_on_c, 0, 74, 0
2, 103320, Note_on_c, 0, 71, 55
2, 103320, Note_on_c, 0, 55, 50
2, 103320, Note_on_c, 0, 62, 50
2, 103440, Note_on_c, 0, 62, 0
2, 103440, Note_on_c, 0, 55, 0
2, 103440, Note_on_c, 0, 71, 0
2, 103440, Note_on_c, 0, 74, 65
2, 103440, Note_on_c, 0, 65, 67
2, 103559, Note_on_c, 0, 65, 0
2, 103559, Note_on_c, 0, 74, 0
2, 103559, Note_on_c, 0, 77, 64
2, 103559, Note_on_c, 0, 71, 72
2, 103680, Note_on_c, 0, 71, 0
2, 103680, Note_on_c, 0, 77, 0
2, 103680, Note_on_c, 0, 83, 71
2, 103680, Note_on_c, 0, 74, 66
2, 103860, Note_on_c, 0, 74, 0
2, 103860, Note_on_c, 0, 83, 0
2, 104040, Note_on_c, 0, 74, 54
2, 104040, Note_on_c, 0, 59, 56
2, 104040, Note_on_c, 0, 68, 56
2, 104160, Note_on_c, 0, 68, 0
2, 104160, Note_on_c, 0, 59, 0
2, 104160, Note_on_c, 0, 74, 0
2, 104160, Note_on_c, 0, 78, 64
2, 104160, Note_on_c, 0, 71, 68
2, 104279, Note_on_c, 0, 71, 0
2, 104279, Note_on_c, 0, 78, 0
2, 104279, Note_on_c, 0, 83, 68
2, 104279, Note_on_c, 0, 74, 68
2, 104400, Note_on_c, 0, 74, 0
2, 104400, Note_on_c, 0, 83, 0
2, 104400, Note_on_c, 0, 86, 64
2, 104400, Note_on_c, 0, 78, 68
2, 104580, Note_on_c, 0, 78, 0
2, 104580, Note_on_c, 0, 86, 0
2, 104760, Note_on_c, 0, 71, 51
2, 104760, Note_on_c, 0, 55, 54
2, 104760, Note_on_c, 0, 62, 54
2, 104880, Note_on_c, 0, 62, 0
2, 104880, Note_on_c, 0, 55, 0
2, 104880, Note_on_c, 0, 71, 0
2, 104880, Note_on_c, 0, 74, 64
2, 104880, Note_on_c, 0, 65, 63
2, 104999, Note_on_c, 0, 65, 0
2, 104999, Note_on_c, 0, 74, 0
2, 104999, Note_on_c, 0, 77, 65
2, 104999, Note_on_c, 0, 71, 66
2, 105120, Note_on_c, 0, 71, 0
2, 105120, Note_on_c, 0, 77, 0
2, 105120, Note_on_c, 0, 83, 68
2, 105120, Note_on_c, 0, 74, 72
2, 105300, Note_on_c, 0, 74, 0
2, 105300, Note_on_c, 0, 83, 0
2, 105480, Note_on_c, 0, 62, 51
2, 105480, Note_on_c, 0, 47, 59
2, 105480, Note_on_c, 0, 54, 59
2, 105600, Note_on_c, 0, 54, 0
2, 105600, Note_on_c, 0, 47, 0
2, 105600, Note_on_c, 0, 62, 0
2, 105600, Note_on_c, 0, 66, 67
2, 105600, Note_on_c, 0, 59, 67
2, 105719, Note_on_c, 0, 59, 0
2, 105719, Note_on_c, 0, 66, 0
2, 105719, Note_on_c, 0, 71, 71
2, 105719, Note_on_c, 0, 62, 71
2, 105840, Note_on_c, 0, 62, 0
2, 105840, Note_on_c, 0, 71, 0
2, 105840, Note_on_c, 0, 74, 70
2, 105840, Note_on_c, 0, 66, 67
2, 106020, Note_on_c, 0, 66, 0
2, 106020, Note_on_c, 0, 74, 0
2, 106200, Note_on_c, 0, 71, 52
2, 106200, Note_on_c, 0, 55, 55
2, 106200, Note_on_c, 0, 62, 55
2, 106320, Note_on_c, 0, 62, 0
2, 106320, Note_on_c, 0, 55, 0
2, 106320, Note_on_c, 0, 71, 0
2, 106320, Note_on_c, 0, 74, 62
2, 106320, Note_on_c, 0, 65, 63
2, 106439, Note_on_c, 0, 65, 0
2, 106439, Note_on_c, 0, 74, 0
2, 106439, Note_on_c, 0, 77, 65
2, 106439, Note_on_c, 0, 71, 69
2, 106560, Note_on_c, 0, 71, 0
2, 106560, Note_on_c, 0, 77, 0
2, 106560, Note_on_c, 0, 83, 75
2, 106560, Note_on_c, 0, 74, 66
2, 106740, Note_on_c, 0, 74, 0
2, 106740, Note_on_c, 0, 83, 0
2, 106920, Note_on_c, 0, 83, 51
2, 106920, Note_on_c, 0, 86, 51
2, 106920, Note_on_c, 0, 90, 51
2, 106920, Note_on_c, 0, 95, 51
2, 106920, Note_on_c, 0, 59, 54
2, 106920, Note_on_c, 0, 68, 54
2, 106920, Note_on_c, 0, 74, 54
2, 107100, Note_on_c, 0, 74, 0
2, 107100, Note_on_c, 0, 59, 0
2, 107100, Note_on_c, 0, 86, 0
2, 107100, Note_on_c, 0, 90, 0
2, 107100, Note_on_c, 0, 83, 0
2, 107100, Note_on_c, 0, 68, 0
2, 107100, Note_on_c, 0, 95, 0
2, 107280, Note_on_c, 0, 83, 54
2, 107280, Note_on_c, 0, 85, 54
2, 107280, Note_on_c, 0, 88, 54
2, 107280, Note_on_c, 0, 95, 54
2, 107280, Note_on_c, 0, 59, 53
2, 107280, Note_on_c, 0, 67, 53
2, 107280, Note_on_c, 0, 73, 53
2, 107460, Note_on_c, 0, 73, 0
2, 107460, Note_on_c, 0, 59, 0
2, 107460, Note_on_c, 0, 85, 0
2, 107460, Note_on_c, 0, 88, 0
2, 107460, Note_on_c, 0, 83, 0
2, 107460, Note_on_c, 0, 67, 0
2, 107460, Note_on_c, 0, 95, 0
2, 107640, Note_on_c, 0, 83, 52
2, 107640, Note_on_c, 0, 86, 52
2, 107640, Note_on_c, 0, 90, 52
2, 107640, Note_on_c, 0, 95, 52
2, 107640, Note_on_c, 0, 59, 59
2, 107640, Note_on_c, 0, 66, 59
2, 107640, Note_on_c, 0, 74, 59
2, 107820, Note_on_c, 0, 74, 0
2, 107820, Note_on_c, 0, 59, 0
2, 107820, Note_on_c, 0, 86, 0
2, 107820, Note_on_c, 0, 90, 0
2, 107820, Note_on_c, 0, 83, 0
2, 107820, Note_on_c, 0, 66, 0
2, 107820, Note_on_c, 0, 95, 0
2, 108360, Note_on_c, 0, 62, 57
2, 108360, Note_on_c, 0, 47, 52
2, 108360, Note_on_c, 0, 54, 52
2, 108480, Note_on_c, 0, 54, 0
2, 108480, Note_on_c, 0, 47, 0
2, 108480, Note_on_c, 0, 62, 0
2, 108480, Note_on_c, 0, 66, 70
2, 108480, Note_on_c, 0, 59, 64
2, 108599, Note_on_c, 0, 59, 0
2, 108599, Note_on_c, 0, 66, 0
2, 108599, Note_on_c, 0, 71, 67
2, 108599, Note_on_c, 0, 62, 68
2, 108720, Note_on_c, 0, 62, 0
2, 108720, Note_on_c, 0, 71, 0
2, 108720, Note_on_c, 0, 74, 64
2, 108720, Note_on_c, 0, 66, 66
2, 108900, Note_on_c, 0, 66, 0
2, 108900, Note_on_c, 0, 74, 0
2, 109080, Note_on_c, 0, 71, 54
2, 109080, Note_on_c, 0, 55, 56
2, 109080, Note_on_c, 0, 62, 56
2, 109200, Note_on_c, 0, 62, 0
2, 109200, Note_on_c, 0, 55, 0
2, 109200, Note_on_c, 0, 71, 0
2, 109200, Note_on_c, 0, 74, 67
2, 109200, Note_on_c, 0, 65, 63
2, 109319, Note_on_c, 0, 65, 0
2, 109319, Note_on_c, 0, 74, 0
2, 109319, Note_on_c, 0, 77, 63
2, 109319, Note_on_c, 0, 71, 70
2, 109440, Note_on_c, 0, 71, 0
2, 109440, Note_on_c, 0, 77, 0
2, 109440, Note_on_c, 0, 83, 72
2, 109440, Note_on_c, 0, 74, 67
2, 109620, Note_on_c, 0, 74, 0
2, 109620, Note_on_c, 0, 83, 0
2, 109800, Note_on_c, 0, 74, 60
2, 109800, Note_on_c, 0, 59, 58
2, 109800, Note_on_c, 0, 68, 58
2, 109920, Note_on_c, 0, 68, 0
2, 109920, Note_on_c, 0, 59, 0
2, 109920, Note_on_c, 0, 74, 0
2, 109920, Note_on_c, 0, 78, 66
2, 109920, Note_on_c, 0, 71, 65
2, 110039, Note_on_c, 0, 71, 0
2, 110039, Note_on_c, 0, 78, 0
2, 110039, Note_on_c, 0, 83, 70
2, 110039, Note_on_c, 0, 74, 73
2, 110160, Note_on_c, 0, 74, 0
2, 110160, Note_on_c, 0, 83, 0
2, 110160, Note_on_c, 0, 86, 67
2, 110160, Note_on_c, 0, 78, 65
2, 110340, Note_on_c, 0, 78, 0
2, 110340, Note_on_c, 0, 86, 0
2, 110520, Note_on_c, 0, 71, 53
2, 110520, Note_on_c, 0, 55, 56
2, 110520, Note_on_c, 0, 62, 56
2, 110640, Note_on_c, 0, 62, 0
2, 110640, Note_on_c, 0, 55, 0
2, 110640, Note_on_c, 0, 71, 0
2, 110640, Note_on_c, 0, 74, 70
2, 110640, Note_on_c, 0, 65, 65
2, 110759, Note_on_c, 0, 65, 0
2, 110759, Note_on_c, 0, 74, 0
2, 110759, Note_on_c, 0, 77, 65
2, 110759, Note_on_c, 0, 71, 73
2, 110880, Note_on_c, 0, 71, 0
2, 110880, Note_on_c, 0, 77, 0
2, 110880, Note_on_c, 0, 83, 75
2, 110880, Note_on_c, 0, 74, 64
2, 111060, Note_on_c, 0, 74, 0
2, 111060, Note_on_c, 0, 83, 0
2, 111240, Note_on_c, 0, 62, 58
2, 111240, Note_on_c, 0, 47, 55
2, 111240, Note_on_c, 0, 54, 55
2, 111360, Note_on_c, 0, 54, 0
2, 111360, Note_on_c, 0, 47, 0
2, 111360, Note_on_c, 0, 62, 0
2, 111360, Note_on_c, 0, 66, 65
2, 111360, Note_on_c, 0, 59, 64
2, 111479, Note_on_c, 0, 59, 0
2, 111479, Note_on_c, 0, 66, 0
2, 111479, Note_on_c, 0, 71, 72
2, 111479, Note_on_c, 0, 62, 65
2, 111600, Note_on_c, 0, 62, 0
2, 111600, Note_on_c, 0, 71, 0
2, 111600, Note_on_c, 0, 74, 69
2, 111600, Note_on_c, 0, 66, 65
2, 111780, Note_on_c, 0, 66, 0
2, 111780, Note_on_c, 0, 74, 0
2, 111960, Note_on_c, 0, 64, 55
2, 111960, Note_on_c, 0, 42, 59
2, 111960, Note_on_c, 0, 52, 59
2, 112080, Note_on_c, 0, 52, 0
2, 112080, Note_on_c, 0, 42, 0
2, 112080, Note_on_c, 0, 64, 0
2, 112080, Note_on_c, 0, 66, 62
2, 112080, Note_on_c, 0, 58, 63
2, 112199, Note_on_c, 0, 58, 0
2, 112199, Note_on_c, 0, 66, 0
2, 112199, Note_on_c, 0, 70, 62
2, 112199, Note_on_c, 0, 64, 73
2, 112320, Note_on_c, 0, 64, 0
2, 112320, Note_on_c, 0, 70, 0
2, 112320, Note_on_c, 0, 78, 73
2, 112320, Note_on_c, 0, 66, 65
2, 112500, Note_on_c, 0, 66, 0
2, 112500, Note_on_c, 0, 78, 0
2, 112680, Note_on_c, 0, 50, 60
2, 112680, Note_on_c, 0, 54, 60
2, 112680, Note_on_c, 0, 59, 60
2, 112680, Note_on_c, 0, 35, 56
2, 112680, Note_on_c, 0, 42, 56
2, 112680, Note_on_c, 0, 47, 56
2, 112860, Note_on_c, 0, 47, 0
2, 112860, Note_on_c, 0, 54, 0
2, 112860, Note_on_c, 0, 59, 0
2, 112860, Note_on_c, 0, 50, 0
2, 112860, Note_on_c, 0, 42, 0
2, 112860, Note_on_c, 0, 35, 0
2, 113040, Note_on_c, 0, 52, 53
2, 113040, Note_on_c, 0, 55, 53
2, 113040, Note_on_c, 0, 59, 53
2, 113040, Note_on_c, 0, 40, 55
2, 113040, Note_on_c, 0, 47, 55
2, 113220, Note_on_c, 0, 47, 0
2, 113220, Note_on_c, 0, 59, 0
2, 113220, Note_on_c, 0, 52, 0
2, 113220, Note_on_c, 0, 55, 0
2, 113220, Note_on_c, 0, 40, 0
2, 113400, Note_on_c, 0, 50, 55
2, 113400, Note_on_c, 0, 54, 55
2, 113400, Note_on_c, 0, 59, 55
2, 113400, Note_on_c, 0, 35, 50
2, 113400, Note_on_c, 0, 42, 50
2, 113400, Note_on_c, 0, 47, 50
2, 113580, Note_on_c, 0, 47, 0
2, 113580, Note_on_c, 0, 54, 0
2, 113580, Note_on_c, 0, 59, 0
2, 113580, Note_on_c, 0, 50, 0
2, 113580, Note_on_c, 0, 42, 0
2, 113580, Note_on_c, 0, 35, 0
2, 113760, Note_on_c, 0, 81, 73
2, 113760, Note_on_c, 0, 85, 73
2, 113760, Note_on_c, 0, 69, 77
2, 113760, Note_on_c, 0, 73, 77
2, 113940, Note_on_c, 0, 73, 0
2, 113940, Note_on_c, 0, 81, 0
2, 113940, Note_on_c, 0, 85, 0
2, 113940, Note_on_c, 0, 69, 0
2, 113940, Note_on_c, 0, 83, 84
2, 113940, Note_on_c, 0, 86, 84
2, 113940, Note_on_c, 0, 71, 84
2, 113940, Note_on_c, 0, 74, 84
2, 114120, Note_on_c, 0, 74, 0
2, 114120, Note_on_c, 0, 83, 0
2, 114120, Note_on_c, 0, 86, 0
2, 114120, Note_on_c, 0, 71, 0
2, 114120, Note_on_c, 0, 85, 87
2, 114120, Note_on_c, 0, 88, 87
2, 114120, Note_on_c, 0, 73, 90
2, 114120, Note_on_c, 0, 76, 90
2, 114300, Note_on_c, 0, 76, 0
2, 114300, Note_on_c, 0, 85, 0
2, 114300, Note_on_c, 0, 88, 0
2, 114300, Note_on_c, 0, 73, 0
2, 114300, Note_on_c, 0, 83, 77
2, 114300, Note_on_c, 0, 86, 77
2, 114300, Note_on_c, 0, 71, 78
2, 114300, Note_on_c, 0, 74, 78
2, 114480, Note_on_c, 0, 74, 0
2, 114480, Note_on_c, 0, 83, 0
2, 114480, Note_on_c, 0, 86, 0
2, 114480, Note_on_c, 0, 71, 0
2, 114480, Note_on_c, 0, 81, 79
2, 114480, Note_on_c, 0, 85, 79
2, 114480, Note_on_c, 0, 69, 80
2, 114480, Note_on_c, 0, 73, 80
2, 114660, Note_on_c, 0, 73, 0
2, 114660, Note_on_c, 0, 81, 0
2, 114660, Note_on_c, 0, 85, 0
2, 114660, Note_on_c, 0, 69, 0
2, 114660, Note_on_c, 0, 83, 90
2, 114660, Note_on_c, 0, 86, 90
2, 114660, Note_on_c, 0, 71, 86
2, 114660, Note_on_c, 0, 74, 86
2, 114840, Note_on_c, 0, 74, 0
2, 114840, Note_on_c, 0, 83, 0
2, 114840, Note_on_c, 0, 86, 0
2, 114840, Note_on_c, 0, 71, 0
2, 114840, Note_on_c, 0, 85, 89
2, 114840, Note_on_c, 0, 88, 89
2, 114840, Note_on_c, 0, 73, 90
2, 114840, Note_on_c, 0, 76, 90
2, 115200, Note_on_c, 0, 76, 0
2, 115200, Note_on_c, 0, 85, 0
2, 115200, Note_on_c, 0, 88, 0
2, 115200, Note_on_c, 0, 73, 0
2, 115200, Note_on_c, 0, 79, 91
2, 115200, Note_on_c, 0, 85, 91
2, 115200, Note_on_c, 0, 90, 91
2, 115200, Note_on_c, 0, 67, 89
2, 115200, Note_on_c, 0, 73, 89
2, 115200, Note_on_c, 0, 78, 89
2, 115560, Note_on_c, 0, 78, 0
2, 115560, Note_on_c, 0, 85, 0
2, 115560, Note_on_c, 0, 90, 0
2, 115560, Note_on_c, 0, 79, 0
2, 115560, Note_on_c, 0, 73, 0
2, 115560, Note_on_c, 0, 67, 0
2, 115560, Note_on_c, 0, 74, 74
2, 115560, Note_on_c, 0, 78, 74
2, 115560, Note_on_c, 0, 86, 74
2, 115560, Note_on_c, 0, 57, 59
2, 115560, Note_on_c, 0, 66, 59
2, 116640, Note_on_c, 0, 66, 0
2, 116640, Note_on_c, 0, 86, 0
2, 116640, Note_on_c, 0, 74, 0
2, 116640, Note_on_c, 0, 78, 0
2, 116640, Note_on_c, 0, 57, 0
2, 116640, Note_on_c, 0, 81, 74
2, 116640, Note_on_c, 0, 85, 74
2, 116640, Note_on_c, 0, 69, 95
2, 116640, Note_on_c, 0, 73, 95
2, 116820, Note_on_c, 0, 73, 0
2, 116820, Note_on_c, 0, 81, 0
2, 116820, Note_on_c, 0, 85, 0
2, 116820, Note_on_c, 0, 69, 0
2, 116820, Note_on_c, 0, 83, 85
2, 116820, Note_on_c, 0, 86, 85
2, 116820, Note_on_c, 0, 71, 87
2, 116820, Note_on_c, 0, 74, 87
2, 117000, Note_on_c, 0, 74, 0
2, 117000, Note_on_c, 0, 83, 0
2, 117000, Note_on_c, 0, 86, 0
2, 117000, Note_on_c, 0, 71, 0
2, 117000, Note_on_c, 0, 85, 89
2, 117000, Note_on_c, 0, 88, 89
2, 117000, Note_on_c, 0, 73, 89
2, 117000, Note_on_c, 0, 76, 89
2, 117180, Note_on_c, 0, 76, 0
2, 117180, Note_on_c, 0, 85, 0
2, 117180, Note_on_c, 0, 88, 0
2, 117180, Note_on_c, 0, 73, 0
2, 117180, Note_on_c, 0, 83, 78
2, 117180, Note_on_c, 0, 86, 78
2, 117180, Note_on_c, 0, 71, 82
2, 117180, Note_on_c, 0, 74, 82
2, 117360, Note_on_c, 0, 74, 0
2, 117360, Note_on_c, 0, 83, 0
2, 117360, Note_on_c, 0, 86, 0
2, 117360, Note_on_c, 0, 71, 0
2, 117360, Note_on_c, 0, 81, 76
2, 117360, Note_on_c, 0, 85, 76
2, 117360, Note_on_c, 0, 69, 77
2, 117360, Note_on_c, 0, 73, 77
2, 117540, Note_on_c, 0, 73, 0
2, 117540, Note_on_c, 0, 81, 0
2, 117540, Note_on_c, 0, 85, 0
2, 117540, Note_on_c, 0, 69, 0
2, 117540, Note_on_c, 0, 83, 87
2, 117540, Note_on_c, 0, 86, 87
2, 117540, Note_on_c, 0, 71, 86
2, 117540, Note_on_c, 0, 74, 86
2, 117720, Note_on_c, 0, 74, 0
2, 117720, Note_on_c, 0, 83, 0
2, 117720, Note_on_c, 0, 86, 0
2, 117720, Note_on_c, 0, 71, 0
2, 117720, Note_on_c, 0, 85, 85
2, 117720, Note_on_c, 0, 88, 85
2, 117720, Note_on_c, 0, 73, 88
2, 117720, Note_on_c, 0, 76, 88
2, 118080, Note_on_c, 0, 76, 0
2, 118080, Note_on_c, 0, 85, 0
2, 118080, Note_on_c, 0, 88, 0
2, 118080, Note_on_c, 0, 73, 0
2, 118080, Note_on_c, 0, 79, 95
2, 118080, Note_on_c, 0, 81, 95
2, 118080, Note_on_c, 0, 90, 95
2, 118080, Note_on_c, 0, 67, 91
2, 118080, Note_on_c, 0, 69, 91
2, 118080, Note_on_c, 0, 78, 91
2, 118440, Note_on_c, 0, 78, 0
2, 118440, Note_on_c, 0, 81, 0
2, 118440, Note_on_c, 0, 90, 0
2, 118440, Note_on_c, 0, 79, 0
2, 118440, Note_on_c, 0, 69, 0
2, 118440, Note_on_c, 0, 67, 0
2, 118440, Note_on_c, 0, 79, 70
2, 118440, Note_on_c, 0, 83, 70
2, 118440, Note_on_c, 0, 57, 64
2, 118440, Note_on_c, 0, 67, 64
2, 118440, Note_on_c, 0, 71, 64
2, 119520, Note_on_c, 0, 71, 0
2, 119520, Note_on_c, 0, 57, 0
2, 119520, Note_on_c, 0, 79, 0
2, 119520, Note_on_c, 0, 83, 0
2, 119520, Note_on_c, 0, 67, 0
2, 119520, Note_on_c, 0, 81, 86
2, 119520, Note_on_c, 0, 85, 86
2, 119520, Note_on_c, 0, 69, 88
2, 119520, Note_on_c, 0, 73, 88
2, 119700, Note_on_c, 0, 73, 0
2, 119700, Note_on_c, 0, 81, 0
2, 119700, Note_on_c, 0, 85, 0
2, 119700, Note_on_c, 0, 69, 0
2, 119700, Note_on_c, 0, 83, 85
2, 119700, Note_on_c, 0, 86, 85
2, 119700, Note_on_c, 0, 71, 86
2, 119700, Note_on_c, 0, 74, 86
2, 119880, Note_on_c, 0, 74, 0
2, 119880, Note_on_c, 0, 83, 0
2, 119880, Note_on_c, 0, 86, 0
2, 119880, Note_on_c, 0, 71, 0
2, 119880, Note_on_c, 0, 85, 89
2, 119880, Note_on_c, 0, 88, 89
2, 119880, Note_on_c, 0, 73, 91
2, 119880, Note_on_c, 0, 76, 91
2, 120060, Note_on_c, 0, 76, 0
2, 120060, Note_on_c, 0, 85, 0
2, 120060, Note_on_c, 0, 88, 0
2, 120060, Note_on_c, 0, 73, 0
2, 120060, Note_on_c, 0, 83, 82
2, 120060, Note_on_c, 0, 86, 82
2, 120060, Note_on_c, 0, 71, 75
2, 120060, Note_on_c, 0, 74, 75
2, 120240, Note_on_c, 0, 74, 0
2, 120240, Note_on_c, 0, 83, 0
2, 120240, Note_on_c, 0, 86, 0
2, 120240, Note_on_c, 0, 71, 0
2, 120240, Note_on_c, 0, 81, 73
2, 120240, Note_on_c, 0, 85, 73
2, 120240, Note_on_c, 0, 69, 77
2, 120240, Note_on_c, 0, 73, 77
2, 120420, Note_on_c, 0, 73, 0
2, 120420, Note_on_c, 0, 81, 0
2, 120420, Note_on_c, 0, 85, 0
2, 120420, Note_on_c, 0, 69, 0
2, 120420, Note_on_c, 0, 83, 86
2, 120420, Note_on_c, 0, 86, 86
2, 120420, Note_on_c, 0, 71, 91
2, 120420, Note_on_c, 0, 74, 91
2, 120600, Note_on_c, 0, 74, 0
2, 120600, Note_on_c, 0, 83, 0
2, 120600, Note_on_c, 0, 86, 0
2, 120600, Note_on_c, 0, 71, 0
2, 120600, Note_on_c, 0, 85, 86
2, 120600, Note_on_c, 0, 88, 86
2, 120600, Note_on_c, 0, 73, 85
2, 120600, Note_on_c, 0, 76, 85
2, 120960, Note_on_c, 0, 76, 0
2, 120960, Note_on_c, 0, 85, 0
2, 120960, Note_on_c, 0, 88, 0
2, 120960, Note_on_c, 0, 73, 0
2, 120960, Note_on_c, 0, 79, 94
2, 120960, Note_on_c, 0, 85, 94
2, 120960, Note_on_c, 0, 90, 94
2, 120960, Note_on_c, 0, 67, 87
2, 120960, Note_on_c, 0, 73, 87
2, 120960, Note_on_c, 0, 78, 87
2, 121320, Note_on_c, 0, 78, 0
2, 121320, Note_on_c, 0, 85, 0
2, 121320, Note_on_c, 0, 90, 0
2, 121320, Note_on_c, 0, 79, 0
2, 121320, Note_on_c, 0, 73, 0
2, 121320, Note_on_c, 0, 67, 0
2, 121320, Note_on_c, 0, 74, 77
2, 121320, Note_on_c, 0, 78, 77
2, 121320, Note_on_c, 0, 86, 77
2, 121320, Note_on_c, 0, 57, 64
2, 121320, Note_on_c, 0, 66, 64
2, 122400, Note_on_c, 0, 66, 0
2, 122400, Note_on_c, 0, 86, 0
2, 122400, Note_on_c, 0, 74, 0
2, 122400, Note_on_c, 0, 78, 0
2, 122400, Note_on_c, 0, 57, 0
2, 122400, Note_on_c, 0, 81, 80
2, 122400, Note_on_c, 0, 85, 80
2, 122400, Note_on_c, 0, 69, 94
2, 122400, Note_on_c, 0, 73, 94
2, 122580, Note_on_c, 0, 73, 0
2, 122580, Note_on_c, 0, 81, 0
2, 122580, Note_on_c, 0, 85, 0
2, 122580, Note_on_c, 0, 69, 0
2, 122580, Note_on_c, 0, 83, 84
2, 122580, Note_on_c, 0, 86, 84
2, 122580, Note_on_c, 0, 71, 86
2, 122580, Note_on_c, 0, 74, 86
2, 122760, Note_on_c, 0, 74, 0
2, 122760, Note_on_c, 0, 83, 0
2, 122760, Note_on_c, 0, 86, 0
2, 122760, Note_on_c, 0, 71, 0
2, 122760, Note_on_c, 0, 85, 85
2, 122760, Note_on_c, 0, 88, 85
2, 122760, Note_on_c, 0, 73, 91
2, 122760, Note_on_c, 0, 76, 91
2, 122940, Note_on_c, 0, 76, 0
2, 122940, Note_on_c, 0, 85, 0
2, 122940, Note_on_c, 0, 88, 0
2, 122940, Note_on_c, 0, 73, 0
2, 122940, Note_on_c, 0, 86, 88
2, 122940, Note_on_c, 0, 90, 88
2, 122940, Note_on_c, 0, 74, 91
2, 122940, Note_on_c, 0, 78, 91
2, 123120, Note_on_c, 0, 78, 0
2, 123120, Note_on_c, 0, 86, 0
2, 123120, Note_on_c, 0, 90, 0
2, 123120, Note_on_c, 0, 74, 0
2, 123120, Note_on_c, 0, 88, 85
2, 123120, Note_on_c, 0, 91, 85
2, 123120, Note_on_c, 0, 76, 87
2, 123120, Note_on_c, 0, 79, 87
2, 123300, Note_on_c, 0, 79, 0
2, 123300, Note_on_c, 0, 88, 0
2, 123300, Note_on_c, 0, 91, 0
2, 123300, Note_on_c, 0, 76, 0
2, 123300, Note_on_c, 0, 91, 95
2, 123300, Note_on_c, 0, 95, 95
2, 123300, Note_on_c, 0, 79, 94
2, 123300, Note_on_c, 0, 83, 94
2, 123480, Note_on_c, 0, 83, 0
2, 123480, Note_on_c, 0, 91, 0
2, 123480, Note_on_c, 0, 95, 0
2, 123480, Note_on_c, 0, 79, 0
2, 123480, Note_on_c, 0, 90, 78
2, 123480, Note_on_c, 0, 93, 78
2, 123480, Note_on_c, 0, 78, 79
2, 123480, Note_on_c, 0, 81, 79
2, 123840, Note_on_c, 0, 81, 0
2, 123840, Note_on_c, 0, 90, 0
2, 123840, Note_on_c, 0, 93, 0
2, 123840, Note_on_c, 0, 78, 0
2, 123840, Note_on_c, 0, 88, 74
2, 123840, Note_on_c, 0, 91, 74
2, 123840, Note_on_c, 0, 76, 77
2, 123840, Note_on_c, 0, 79, 77
2, 124200, Note_on_c, 0, 79, 0
2, 124200, Note_on_c, 0, 88, 0
2, 124200, Note_on_c, 0, 91, 0
2, 124200, Note_on_c, 0, 76, 0
2, 124200, Note_on_c, 0, 86, 79
2, 124200, Note_on_c, 0, 90, 79
2, 124200, Note_on_c, 0, 74, 85
2, 124200, Note_on_c, 0, 78, 85
2, 124920, Note_on_c, 0, 78, 0
2, 124920, Note_on_c, 0, 86, 0
2, 124920, Note_on_c, 0, 90, 0
2, 124920, Note_on_c, 0, 74, 0
2, 125280, Note_on_c, 0, 69, 76
2, 125280, Note_on_c, 0, 73, 76
2, 125280, Note_on_c, 0, 57, 72
2, 125280, Note_on_c, 0, 61, 72
2, 125460, Note_on_c, 0, 61, 0
2, 125460, Note_on_c, 0, 69, 0
2, 125460, Note_on_c, 0, 73, 0
2, 125460, Note_on_c, 0, 57, 0
2, 125460, Note_on_c, 0, 71, 86
2, 125460, Note_on_c, 0, 74, 86
2, 125460, Note_on_c, 0, 59, 86
2, 125460, Note_on_c, 0, 62, 86
2, 125640, Note_on_c, 0, 62, 0
2, 125640, Note_on_c, 0, 71, 0
2, 125640, Note_on_c, 0, 74, 0
2, 125640, Note_on_c, 0, 59, 0
2, 125640, Note_on_c, 0, 73, 91
2, 125640, Note_on_c, 0, 76, 91
2, 125640, Note_on_c, 0, 61, 93
2, 125640, Note_on_c, 0, 64, 93
2, 125820, Note_on_c, 0, 64, 0
2, 125820, Note_on_c, 0, 73, 0
2, 125820, Note_on_c, 0, 76, 0
2, 125820, Note_on_c, 0, 61, 0
2, 125820, Note_on_c, 0, 71, 75
2, 125820, Note_on_c, 0, 74, 75
2, 125820, Note_on_c, 0, 59, 77
2, 125820, Note_on_c, 0, 62, 77
2, 126000, Note_on_c, 0, 62, 0
2, 126000, Note_on_c, 0, 71, 0
2, 126000, Note_on_c, 0, 74, 0
2, 126000, Note_on_c, 0, 59, 0
2, 126000, Note_on_c, 0, 69, 79
2, 126000, Note_on_c, 0, 73, 79
2, 126000, Note_on_c, 0, 57, 81
2, 126000, Note_on_c, 0, 61, 81
2, 126180, Note_on_c, 0, 61, 0
2, 126180, Note_on_c, 0, 69, 0
2, 126180, Note_on_c, 0, 73, 0
2, 126180, Note_on_c, 0, 57, 0
2, 126180, Note_on_c, 0, 71, 85
2, 126180, Note_on_c, 0, 74, 85
2, 126180, Note_on_c, 0, 59, 84
2, 126180, Note_on_c, 0, 62, 84
2, 126360, Note_on_c, 0, 62, 0
2, 126360, Note_on_c, 0, 71, 0
2, 126360, Note_on_c, 0, 74, 0
2, 126360, Note_on_c, 0, 59, 0
2, 126360, Note_on_c, 0, 73, 91
2, 126360, Note_on_c, 0, 76, 91
2, 126360, Note_on_c, 0, 61, 84
2, 126360, Note_on_c, 0, 64, 84
2, 126720, Note_on_c, 0, 64, 0
2, 126720, Note_on_c, 0, 73, 0
2, 126720, Note_on_c, 0, 76, 0
2, 126720, Note_on_c, 0, 61, 0
2, 126720, Note_on_c, 0, 67, 87
2, 126720, Note_on_c, 0, 73, 87
2, 126720, Note_on_c, 0, 78, 87
2, 126720, Note_on_c, 0, 55, 88
2, 126720, Note_on_c, 0, 61, 88
2, 126720, Note_on_c, 0, 66, 88
2, 127080, Note_on_c, 0, 66, 0
2, 127080, Note_on_c, 0, 73, 0
2, 127080, Note_on_c, 0, 78, 0
2, 127080, Note_on_c, 0, 67, 0
2, 127080, Note_on_c, 0, 61, 0
2, 127080, Note_on_c, 0, 55, 0
2, 127080, Note_on_c, 0, 62, 77
2, 127080, Note_on_c, 0, 66, 77
2, 127080, Note_on_c, 0, 74, 77
2, 127080, Note_on_c, 0, 45, 76
2, 127080, Note_on_c, 0, 54, 76
2, 128160, Note_on_c, 0, 54, 0
2, 128160, Note_on_c, 0, 74, 0
2, 128160, Note_on_c, 0, 62, 0
2, 128160, Note_on_c, 0, 66, 0
2, 128160, Note_on_c, 0, 45, 0
2, 128160, Note_on_c, 0, 69, 76
2, 128160, Note_on_c, 0, 73, 76
2, 128160, Note_on_c, 0, 57, 94
2, 128160, Note_on_c, 0, 61, 94
2, 128340, Note_on_c, 0, 61, 0
2, 128340, Note_on_c, 0, 69, 0
2, 128340, Note_on_c, 0, 73, 0
2, 128340, Note_on_c, 0, 57, 0
2, 128340, Note_on_c, 0, 71, 88
2, 128340, Note_on_c, 0, 74, 88
2, 128340, Note_on_c, 0, 59, 91
2, 128340, Note_on_c, 0, 62, 91
2, 128520, Note_on_c, 0, 62, 0
2, 128520, Note_on_c, 0, 71, 0
2, 128520, Note_on_c, 0, 74, 0
2, 128520, Note_on_c, 0, 59, 0
2, 128520, Note_on_c, 0, 73, 87
2, 128520, Note_on_c, 0, 76, 87
2, 128520, Note_on_c, 0, 61, 88
2, 128520, Note_on_c, 0, 64, 88
2, 128700, Note_on_c, 0, 64, 0
2, 128700, Note_on_c, 0, 73, 0
2, 128700, Note_on_c, 0, 76, 0
2, 128700, Note_on_c, 0, 61, 0
2, 128700, Note_on_c, 0, 71, 79
2, 128700, Note_on_c, 0, 74, 79
2, 128700, Note_on_c, 0, 59, 79
2, 128700, Note_on_c, 0, 62, 79
2, 128880, Note_on_c, 0, 62, 0
2, 128880, Note_on_c, 0, 71, 0
2, 128880, Note_on_c, 0, 74, 0
2, 128880, Note_on_c, 0, 59, 0
2, 128880, Note_on_c, 0, 69, 79
2, 128880, Note_on_c, 0, 73, 79
2, 128880, Note_on_c, 0, 57, 79
2, 128880, Note_on_c, 0, 61, 79
2, 129060, Note_on_c, 0, 61, 0
2, 129060, Note_on_c, 0, 69, 0
2, 129060, Note_on_c, 0, 73, 0
2, 129060, Note_on_c, 0, 57, 0
2, 129060, Note_on_c, 0, 71, 87
2, 129060, Note_on_c, 0, 74, 87
2, 129060, Note_on_c, 0, 59, 89
2, 129060, Note_on_c, 0, 62, 89
2, 129240, Note_on_c, 0, 62, 0
2, 129240, Note_on_c, 0, 71, 0
2, 129240, Note_on_c, 0, 74, 0
2, 129240, Note_on_c, 0, 59, 0
2, 129240, Note_on_c, 0, 73, 89
2, 129240, Note_on_c, 0, 76, 89
2, 129240, Note_on_c, 0, 61, 89
2, 129240, Note_on_c, 0, 64, 89
2, 129600, Note_on_c, 0, 64, 0
2, 129600, Note_on_c, 0, 73, 0
2, 129600, Note_on_c, 0, 76, 0
2, 129600, Note_on_c, 0, 61, 0
2, 129600, Note_on_c, 0, 67, 88
2, 129600, Note_on_c, 0, 69, 88
2, 129600, Note_on_c, 0, 78, 88
2, 129600, Note_on_c, 0, 55, 93
2, 129600, Note_on_c, 0, 57, 93
2, 129600, Note_on_c, 0, 66, 93
2, 129960, Note_on_c, 0, 66, 0
2, 129960, Note_on_c, 0, 69, 0
2, 129960, Note_on_c, 0, 78, 0
2, 129960, Note_on_c, 0, 67, 0
2, 129960, Note_on_c, 0, 57, 0
2, 129960, Note_on_c, 0, 55, 0
2, 129960, Note_on_c, 0, 67, 69
2, 129960, Note_on_c, 0, 71, 69
2, 129960, Note_on_c, 0, 45, 77
2, 129960, Note_on_c, 0, 55, 77
2, 129960, Note_on_c, 0, 59, 77
2, 131040, Note_on_c, 0, 59, 0
2, 131040, Note_on_c, 0, 45, 0
2, 131040, Note_on_c, 0, 67, 0
2, 131040, Note_on_c, 0, 71, 0
2, 131040, Note_on_c, 0, 55, 0
2, 131040, Note_on_c, 0, 69, 89
2, 131040, Note_on_c, 0, 73, 89
2, 131040, Note_on_c, 0, 57, 92
2, 131040, Note_on_c, 0, 61, 92
2, 131220, Note_on_c, 0, 61, 0
2, 131220, Note_on_c, 0, 69, 0
2, 131220, Note_on_c, 0, 73, 0
2, 131220, Note_on_c, 0, 57, 0
2, 131220, Note_on_c, 0, 71, 89
2, 131220, Note_on_c, 0, 74, 89
2, 131220, Note_on_c, 0, 59, 87
2, 131220, Note_on_c, 0, 62, 87
2, 131400, Note_on_c, 0, 62, 0
2, 131400, Note_on_c, 0, 71, 0
2, 131400, Note_on_c, 0, 74, 0
2, 131400, Note_on_c, 0, 59, 0
2, 131400, Note_on_c, 0, 73, 86
2, 131400, Note_on_c, 0, 76, 86
2, 131400, Note_on_c, 0, 61, 86
2, 131400, Note_on_c, 0, 64, 86
2, 131580, Note_on_c, 0, 64, 0
2, 131580, Note_on_c, 0, 73, 0
2, 131580, Note_on_c, 0, 76, 0
2, 131580, Note_on_c, 0, 61, 0
2, 131580, Note_on_c, 0, 71, 76
2, 131580, Note_on_c, 0, 74, 76
2, 131580, Note_on_c, 0, 59, 82
2, 131580, Note_on_c, 0, 62, 82
2, 131760, Note_on_c, 0, 62, 0
2, 131760, Note_on_c, 0, 71, 0
2, 131760, Note_on_c, 0, 74, 0
2, 131760, Note_on_c, 0, 59, 0
2, 131760, Note_on_c, 0, 69, 76
2, 131760, Note_on_c, 0, 73, 76
2, 131760, Note_on_c, 0, 57, 83
2, 131760, Note_on_c, 0, 61, 83
2, 131940, Note_on_c, 0, 61, 0
2, 131940, Note_on_c, 0, 69, 0
2, 131940, Note_on_c, 0, 73, 0
2, 131940, Note_on_c, 0, 57, 0
2, 131940, Note_on_c, 0, 71, 87
2, 131940, Note_on_c, 0, 74, 87
2, 131940, Note_on_c, 0, 59, 90
2, 131940, Note_on_c, 0, 62, 90
2, 132120, Note_on_c, 0, 62, 0
2, 132120, Note_on_c, 0, 71, 0
2, 132120, Note_on_c, 0, 74, 0
2, 132120, Note_on_c, 0, 59, 0
2, 132120, Note_on_c, 0, 73, 83
2, 132120, Note_on_c, 0, 76, 83
2, 132120, Note_on_c, 0, 61, 88
2, 132120, Note_on_c, 0, 64, 88
2, 132480, Note_on_c, 0, 64, 0
2, 132480, Note_on_c, 0, 73, 0
2, 132480, Note_on_c, 0, 76, 0
2, 132480, Note_on_c, 0, 61, 0
2, 132480, Note_on_c, 0, 67, 90
2, 132480, Note_on_c, 0, 73, 90
2, 132480, Note_on_c, 0, 78, 90
2, 132480, Note_on_c, 0, 55, 89
2, 132480, Note_on_c, 0, 61, 89
2, 132480, Note_on_c, 0, 66, 89
2, 132840, Note_on_c, 0, 66, 0
2, 132840, Note_on_c, 0, 73, 0
2, 132840, Note_on_c, 0, 78, 0
2, 132840, Note_on_c, 0, 67, 0
2, 132840, Note_on_c, 0, 61, 0
2, 132840, Note_on_c, 0, 55, 0
2, 132840, Note_on_c, 0, 62, 73
2, 132840, Note_on_c, 0, 66, 73
2, 132840, Note_on_c, 0, 74, 73
2, 132840, Note_on_c, 0, 45, 77
2, 132840, Note_on_c, 0, 54, 77
2, 133920, Note_on_c, 0, 54, 0
2, 133920, Note_on_c, 0, 74, 0
2, 133920, Note_on_c, 0, 62, 0
2, 133920, Note_on_c, 0, 66, 0
2, 133920, Note_on_c, 0, 45, 0
2, 133920, Note_on_c, 0, 69, 79
2, 133920, Note_on_c, 0, 73, 79
2, 133920, Note_on_c, 0, 57, 98
2, 133920, Note_on_c, 0, 61, 98
2, 134100, Note_on_c, 0, 61, 0
2, 134100, Note_on_c, 0, 69, 0
2, 134100, Note_on_c, 0, 73, 0
2, 134100, Note_on_c, 0, 57, 0
2, 134100, Note_on_c, 0, 71, 91
2, 134100, Note_on_c, 0, 74, 91
2, 134100, Note_on_c, 0, 59, 90
2, 134100, Note_on_c, 0, 62, 90
2, 134280, Note_on_c, 0, 62, 0
2, 134280, Note_on_c, 0, 71, 0
2, 134280, Note_on_c, 0, 74, 0
2, 134280, Note_on_c, 0, 59, 0
2, 134280, Note_on_c, 0, 73, 92
2, 134280, Note_on_c, 0, 76, 92
2, 134280, Note_on_c, 0, 61, 91
2, 134280, Note_on_c, 0, 64, 91
2, 134460, Note_on_c, 0, 64, 0
2, 134460, Note_on_c, 0, 73, 0
2, 134460, Note_on_c, 0, 76, 0
2, 134460, Note_on_c, 0, 61, 0
2, 134460, Note_on_c, 0, 74, 85
2, 134460, Note_on_c, 0, 78, 85
2, 134460, Note_on_c, 0, 62, 87
2, 134460, Note_on_c, 0, 66, 87
2, 134640, Note_on_c, 0, 66, 0
2, 134640, Note_on_c, 0, 74, 0
2, 134640, Note_on_c, 0, 78, 0
2, 134640, Note_on_c, 0, 62, 0
2, 134640, Note_on_c, 0, 76, 90
2, 134640, Note_on_c, 0, 79, 90
2, 134640, Note_on_c, 0, 64, 94
2, 134640, Note_on_c, 0, 67, 94
2, 134820, Note_on_c, 0, 67, 0
2, 134820, Note_on_c, 0, 76, 0
2, 134820, Note_on_c, 0, 79, 0
2, 134820, Note_on_c, 0, 64, 0
2, 134820, Note_on_c, 0, 79, 93
2, 134820, Note_on_c, 0, 83, 93
2, 134820, Note_on_c, 0, 67, 91
2, 134820, Note_on_c, 0, 71, 91
2, 135000, Note_on_c, 0, 71, 0
2, 135000, Note_on_c, 0, 79, 0
2, 135000, Note_on_c, 0, 83, 0
2, 135000, Note_on_c, 0, 67, 0
2, 135000, Note_on_c, 0, 78, 76
2, 135000, Note_on_c, 0, 81, 76
2, 135000, Note_on_c, 0, 66, 77
2, 135000, Note_on_c, 0, 69, 77
2, 135360, Note_on_c, 0, 69, 0
2, 135360, Note_on_c, 0, 78, 0
2, 135360, Note_on_c, 0, 81, 0
2, 135360, Note_on_c, 0, 66, 0
2, 135360, Note_on_c, 0, 76, 74
2, 135360, Note_on_c, 0, 79, 74
2, 135360, Note_on_c, 0, 64, 73
2, 135360, Note_on_c, 0, 67, 73
2, 135720, Note_on_c, 0, 67, 0
2, 135720, Note_on_c, 0, 76, 0
2, 135720, Note_on_c, 0, 79, 0
2, 135720, Note_on_c, 0, 64, 0
2, 135720, Note_on_c, 0, 74, 82
2, 135720, Note_on_c, 0, 78, 82
2, 135720, Note_on_c, 0, 62, 79
2, 135720, Note_on_c, 0, 66, 79
2, 136620, Note_on_c, 0, 66, 0
2, 136620, Note_on_c, 0, 74, 0
2, 136620, Note_on_c, 0, 78, 0
2, 136620, Note_on_c, 0, 62, 0
2, 137160, Note_on_c, 0, 62, 49
2, 137160, Note_on_c, 0, 47, 49
2, 137160, Note_on_c, 0, 54, 49
2, 137219, Note_on_c, 0, 54, 0
2, 137219, Note_on_c, 0, 47, 0
2, 137219, Note_on_c, 0, 62, 0
2, 137219, Note_on_c, 0, 66, 53
2, 137219, Note_on_c, 0, 59, 59
2, 137280, Note_on_c, 0, 59, 0
2, 137280, Note_on_c, 0, 66, 0
2, 137280, Note_on_c, 0, 71, 53
2, 137280, Note_on_c, 0, 62, 54
2, 137340, Note_on_c, 0, 62, 0
2, 137340, Note_on_c, 0, 71, 0
2, 137340, Note_on_c, 0, 74, 55
2, 137340, Note_on_c, 0, 66, 58
2, 137399, Note_on_c, 0, 66, 0
2, 137399, Note_on_c, 0, 74, 0
2, 137399, Note_on_c, 0, 78, 55
2, 137399, Note_on_c, 0, 71, 67
2, 137460, Note_on_c, 0, 71, 0
2, 137460, Note_on_c, 0, 78, 0
2, 137460, Note_on_c, 0, 83, 59
2, 137460, Note_on_c, 0, 74, 54
2, 137520, Note_on_c, 0, 74, 0
2, 137520, Note_on_c, 0, 83, 0
2, 137520, Note_on_c, 0, 86, 55
2, 137520, Note_on_c, 0, 78, 53
2, 137700, Note_on_c, 0, 78, 0
2, 137700, Note_on_c, 0, 86, 0
2, 137880, Note_on_c, 0, 71, 44
2, 137880, Note_on_c, 0, 55, 45
2, 137880, Note_on_c, 0, 62, 45
2, 137939, Note_on_c, 0, 62, 0
2, 137939, Note_on_c, 0, 55, 0
2, 137939, Note_on_c, 0, 71, 0
2, 137939, Note_on_c, 0, 74, 52
2, 137939, Note_on_c, 0, 65, 52
2, 138000, Note_on_c, 0, 65, 0
2, 138000, Note_on_c, 0, 74, 0
2, 138000, Note_on_c, 0, 77, 59
2, 138000, Note_on_c, 0, 71, 59
2, 138060, Note_on_c, 0, 71, 0
2, 138060, Note_on_c, 0, 77, 0
2, 138060, Note_on_c, 0, 83, 58
2, 138060, Note_on_c, 0, 74, 59
2, 138119, Note_on_c, 0, 74, 0
2, 138119, Note_on_c, 0, 83, 0
2, 138119, Note_on_c, 0, 86, 57
2, 138119, Note_on_c, 0, 77, 53
2, 138180, Note_on_c, 0, 77, 0
2, 138180, Note_on_c, 0, 86, 0
2, 138180, Note_on_c, 0, 89, 55
2, 138180, Note_on_c, 0, 83, 59
2, 138240, Note_on_c, 0, 83, 0
2, 138240, Note_on_c, 0, 89, 0
2, 138240, Note_on_c, 0, 95, 60
2, 138240, Note_on_c, 0, 86, 55
2, 138420, Note_on_c, 0, 86, 0
2, 138420, Note_on_c, 0, 95, 0
2, 138600, Note_on_c, 0, 74, 44
2, 138600, Note_on_c, 0, 59, 44
2, 138600, Note_on_c, 0, 68, 44
2, 138659, Note_on_c, 0, 68, 0
2, 138659, Note_on_c, 0, 59, 0
2, 138659, Note_on_c, 0, 74, 0
2, 138659, Note_on_c, 0, 78, 55
2, 138659, Note_on_c, 0, 71, 54
2, 138720, Note_on_c, 0, 71, 0
2, 138720, Note_on_c, 0, 78, 0
2, 138720, Note_on_c, 0, 83, 61
2, 138720, Note_on_c, 0, 74, 56
2, 138780, Note_on_c, 0, 74, 0
2, 138780, Note_on_c, 0, 83, 0
2, 138780, Note_on_c, 0, 86, 58
2, 138780, Note_on_c, 0, 78, 57
2, 138839, Note_on_c, 0, 78, 0
2, 138839, Note_on_c, 0, 86, 0
2, 138839, Note_on_c, 0, 90, 42
2, 138839, Note_on_c, 0, 71, 41
2, 138900, Note_on_c, 0, 71, 0
2, 138900, Note_on_c, 0, 90, 0
2, 138900, Note_on_c, 0, 95, 56
2, 138900, Note_on_c, 0, 74, 51
2, 138960, Note_on_c, 0, 74, 0
2, 138960, Note_on_c, 0, 95, 0
2, 138960, Note_on_c, 0, 98, 57
2, 138960, Note_on_c, 0, 78, 58
2, 139140, Note_on_c, 0, 78, 0
2, 139140, Note_on_c, 0, 98, 0
2, 139320, Note_on_c, 0, 71, 46
2, 139320, Note_on_c, 0, 55, 46
2, 139320, Note_on_c, 0, 62, 46
2, 139379, Note_on_c, 0, 62, 0
2, 139379, Note_on_c, 0, 55, 0
2, 139379, Note_on_c, 0, 71, 0
2, 139379, Note_on_c, 0, 74, 54
2, 139379, Note_on_c, 0, 65, 51
2, 139440, Note_on_c, 0, 65, 0
2, 139440, Note_on_c, 0, 74, 0
2, 139440, Note_on_c, 0, 77, 60
2, 139440, Note_on_c, 0, 71, 62
2, 139500, Note_on_c, 0, 71, 0
2, 139500, Note_on_c, 0, 77, 0
2, 139500, Note_on_c, 0, 83, 62
2, 139500, Note_on_c, 0, 74, 57
2, 139559, Note_on_c, 0, 74, 0
2, 139559, Note_on_c, 0, 83, 0
2, 139559, Note_on_c, 0, 86, 51
2, 139559, Note_on_c, 0, 77, 49
2, 139620, Note_on_c, 0, 77, 0
2, 139620, Note_on_c, 0, 86, 0
2, 139620, Note_on_c, 0, 89, 54
2, 139620, Note_on_c, 0, 83, 57
2, 139680, Note_on_c, 0, 83, 0
2, 139680, Note_on_c, 0, 89, 0
2, 139680, Note_on_c, 0, 95, 62
2, 139680, Note_on_c, 0, 86, 56
2, 139860, Note_on_c, 0, 86, 0
2, 139860, Note_on_c, 0, 95, 0
2, 140040, Note_on_c, 0, 62, 47
2, 140040, Note_on_c, 0, 47, 49
2, 140040, Note_on_c, 0, 54, 49
2, 140099, Note_on_c, 0, 54, 0
2, 140099, Note_on_c, 0, 47, 0
2, 140099, Note_on_c, 0, 62, 0
2, 140099, Note_on_c, 0, 66, 54
2, 140099, Note_on_c, 0, 59, 51
2, 140160, Note_on_c, 0, 59, 0
2, 140160, Note_on_c, 0, 66, 0
2, 140160, Note_on_c, 0, 71, 59
2, 140160, Note_on_c, 0, 62, 53
2, 140220, Note_on_c, 0, 62, 0
2, 140220, Note_on_c, 0, 71, 0
2, 140220, Note_on_c, 0, 74, 53
2, 140220, Note_on_c, 0, 66, 56
2, 140279, Note_on_c, 0, 66, 0
2, 140279, Note_on_c, 0, 74, 0
2, 140279, Note_on_c, 0, 78, 59
2, 140279, Note_on_c, 0, 71, 59
2, 140340, Note_on_c, 0, 71, 0
2, 140340, Note_on_c, 0, 78, 0
2, 140340, Note_on_c, 0, 83, 58
2, 140340, Note_on_c, 0, 74, 60
2, 140400, Note_on_c, 0, 74, 0
2, 140400, Note_on_c, 0, 83, 0
2, 140400, Note_on_c, 0, 86, 51
2, 140400, Note_on_c, 0, 78, 55
2, 140580, Note_on_c, 0, 78, 0
2, 140580, Note_on_c, 0, 86, 0
2, 140760, Note_on_c, 0, 71, 45
2, 140760, Note_on_c, 0, 55, 43
2, 140760, Note_on_c, 0, 62, 43
2, 140819, Note_on_c, 0, 62, 0
2, 140819, Note_on_c, 0, 55, 0
2, 140819, Note_on_c, 0, 71, 0
2, 140819, Note_on_c, 0, 74, 60
2, 140819, Note_on_c, 0, 65, 51
2, 140880, Note_on_c, 0, 65, 0
2, 140880, Note_on_c, 0, 74, 0
2, 140880, Note_on_c, 0, 77, 55
2, 140880, Note_on_c, 0, 71, 60
2, 140940, Note_on_c, 0, 71, 0
2, 140940, Note_on_c, 0, 77, 0
2, 140940, Note_on_c, 0, 83, 59
2, 140940, Note_on_c, 0, 74, 61
2, 140999, Note_on_c, 0, 74, 0
2, 140999, Note_on_c, 0, 83, 0
2, 140999, Note_on_c, 0, 86, 54
2, 140999, Note_on_c, 0, 77, 56
2, 141060, Note_on_c, 0, 77, 0
2, 141060, Note_on_c, 0, 86, 0
2, 141060, Note_on_c, 0, 89, 56
2, 141060, Note_on_c, 0, 83, 57
2, 141120, Note_on_c, 0, 83, 0
2, 141120, Note_on_c, 0, 89, 0
2, 141120, Note_on_c, 0, 95, 56
2, 141120, Note_on_c, 0, 86, 56
2, 141300, Note_on_c, 0, 86, 0
2, 141300, Note_on_c, 0, 95, 0
2, 141480, Note_on_c, 0, 74, 51
2, 141480, Note_on_c, 0, 78, 51
2, 141480, Note_on_c, 0, 83, 51
2, 141480, Note_on_c, 0, 59, 47
2, 141480, Note_on_c, 0, 68, 47
2, 141660, Note_on_c, 0, 68, 0
2, 141660, Note_on_c, 0, 83, 0
2, 141660, Note_on_c, 0, 74, 0
2, 141660, Note_on_c, 0, 78, 0
2, 141660, Note_on_c, 0, 59, 0
2, 141840, Note_on_c, 0, 73, 47
2, 141840, Note_on_c, 0, 76, 47
2, 141840, Note_on_c, 0, 83, 47
2, 141840, Note_on_c, 0, 59, 46
2, 141840, Note_on_c, 0, 67, 46
2, 142020, Note_on_c, 0, 67, 0
2, 142020, Note_on_c, 0, 83, 0
2, 142020, Note_on_c, 0, 73, 0
2, 142020, Note_on_c, 0, 76, 0
2, 142020, Note_on_c, 0, 59, 0
2, 142200, Note_on_c, 0, 74, 43
2, 142200, Note_on_c, 0, 78, 43
2, 142200, Note_on_c, 0, 83, 43
2, 142200, Note_on_c, 0, 59, 48
2, 142200, Note_on_c, 0, 66, 48
2, 142380, Note_on_c, 0, 66, 0
2, 142380, Note_on_c, 0, 83, 0
2, 142380, Note_on_c, 0, 74, 0
2, 142380, Note_on_c, 0, 78, 0
2, 142380, Note_on_c, 0, 59, 0
2, 142920, Note_on_c, 0, 62, 51
2, 142920, Note_on_c, 0, 47, 45
2, 142920, Note_on_c, 0, 54, 45
2, 142979, Note_on_c, 0, 54, 0
2, 142979, Note_on_c, 0, 47, 0
2, 142979, Note_on_c, 0, 62, 0
2, 142979, Note_on_c, 0, 66, 54
2, 142979, Note_on_c, 0, 59, 52
2, 143040, Note_on_c, 0, 59, 0
2, 143040, Note_on_c, 0, 66, 0
2, 143040, Note_on_c, 0, 71, 59
2, 143040, Note_on_c, 0, 62, 56
2, 143100, Note_on_c, 0, 62, 0
2, 143100, Note_on_c, 0, 71, 0
2, 143100, Note_on_c, 0, 74, 54
2, 143100, Note_on_c, 0, 66, 59
2, 143159, Note_on_c, 0, 66, 0
2, 143159, Note_on_c, 0, 74, 0
2, 143159, Note_on_c, 0, 78, 59
2, 143159, Note_on_c, 0, 71, 57
2, 143220, Note_on_c, 0, 71, 0
2, 143220, Note_on_c, 0, 78, 0
2, 143220, Note_on_c, 0, 83, 57
2, 143220, Note_on_c, 0, 74, 57
2, 143280, Note_on_c, 0, 74, 0
2, 143280, Note_on_c, 0, 83, 0
2, 143280, Note_on_c, 0, 86, 56
2, 143280, Note_on_c, 0, 78, 63
2, 143460, Note_on_c, 0, 78, 0
2, 143460, Note_on_c, 0, 86, 0
2, 143640, Note_on_c, 0, 71, 45
2, 143640, Note_on_c, 0, 55, 39
2, 143640, Note_on_c, 0, 62, 39
2, 143699, Note_on_c, 0, 62, 0
2, 143699, Note_on_c, 0, 55, 0
2, 143699, Note_on_c, 0, 71, 0
2, 143699, Note_on_c, 0, 74, 54
2, 143699, Note_on_c, 0, 65, 60
2, 143760, Note_on_c, 0, 65, 0
2, 143760, Note_on_c, 0, 74, 0
2, 143760, Note_on_c, 0, 77, 50
2, 143760, Note_on_c, 0, 71, 63
2, 143820, Note_on_c, 0, 71, 0
2, 143820, Note_on_c, 0, 77, 0
2, 143820, Note_on_c, 0, 83, 58
2, 143820, Note_on_c, 0, 74, 56
2, 143879, Note_on_c, 0, 74, 0
2, 143879, Note_on_c, 0, 83, 0
2, 143879, Note_on_c, 0, 86, 54
2, 143879, Note_on_c, 0, 77, 60
2, 143940, Note_on_c, 0, 77, 0
2, 143940, Note_on_c, 0, 86, 0
2, 143940, Note_on_c, 0, 89, 52
2, 143940, Note_on_c, 0, 83, 60
2, 144000, Note_on_c, 0, 83, 0
2, 144000, Note_on_c, 0, 89, 0
2, 144000, Note_on_c, 0, 95, 59
2, 144000, Note_on_c, 0, 86, 58
2, 144180, Note_on_c, 0, 86, 0
2, 144180, Note_on_c, 0, 95, 0
2, 144360, Note_on_c, 0, 74, 44
2, 144360, Note_on_c, 0, 59, 44
2, 144360, Note_on_c, 0, 68, 44
2, 144419, Note_on_c, 0, 68, 0
2, 144419, Note_on_c, 0, 59, 0
2, 144419, Note_on_c, 0, 74, 0
2, 144419, Note_on_c, 0, 78, 53
2, 144419, Note_on_c, 0, 71, 55
2, 144480, Note_on_c, 0, 71, 0
2, 144480, Note_on_c, 0, 78, 0
2, 144480, Note_on_c, 0, 83, 56
2, 144480, Note_on_c, 0, 74, 56
2, 144540, Note_on_c, 0, 74, 0
2, 144540, Note_on_c, 0, 83, 0
2, 144540, Note_on_c, 0, 86, 57
2, 144540, Note_on_c, 0, 78, 60
2, 144599, Note_on_c, 0, 78, 0
2, 144599, Note_on_c, 0, 86, 0
2, 144599, Note_on_c, 0, 90, 43
2, 144599, Note_on_c, 0, 71, 41
2, 144660, Note_on_c, 0, 71, 0
2, 144660, Note_on_c, 0, 90, 0
2, 144660, Note_on_c, 0, 95, 51
2, 144660, Note_on_c, 0, 74, 53
2, 144720, Note_on_c, 0, 74, 0
2, 144720, Note_on_c, 0, 95, 0
2, 144720, Note_on_c, 0, 98, 60
2, 144720, Note_on_c, 0, 78, 62
2, 144900, Note_on_c, 0, 78, 0
2, 144900, Note_on_c, 0, 98, 0
2, 145080, Note_on_c, 0, 71, 45
2, 145080, Note_on_c, 0, 55, 46
2, 145080, Note_on_c, 0, 62, 46
2, 145139, Note_on_c, 0, 62, 0
2, 145139, Note_on_c, 0, 55, 0
2, 145139, Note_on_c, 0, 71, 0
2, 145139, Note_on_c, 0, 74, 54
2, 145139, Note_on_c, 0, 65, 54
2, 145200, Note_on_c, 0, 65, 0
2, 145200, Note_on_c, 0, 74, 0
2, 145200, Note_on_c, 0, 77, 54
2, 145200, Note_on_c, 0, 71, 58
2, 145260, Note_on_c, 0, 71, 0
2, 145260, Note_on_c, 0, 77, 0
2, 145260, Note_on_c, 0, 83, 55
2, 145260, Note_on_c, 0, 74, 56
2, 145319, Note_on_c, 0, 74, 0
2, 145319, Note_on_c, 0, 83, 0
2, 145319, Note_on_c, 0, 86, 57
2, 145319, Note_on_c, 0, 77, 63
2, 145380, Note_on_c, 0, 77, 0
2, 145380, Note_on_c, 0, 86, 0
2, 145380, Note_on_c, 0, 89, 60
2, 145380, Note_on_c, 0, 83, 56
2, 145440, Note_on_c, 0, 83, 0
2, 145440, Note_on_c, 0, 89, 0
2, 145440, Note_on_c, 0, 95, 62
2, 145440, Note_on_c, 0, 86, 58
2, 145620, Note_on_c, 0, 86, 0
2, 145620, Note_on_c, 0, 95, 0
2, 145800, Note_on_c, 0, 62, 47
2, 145800, Note_on_c, 0, 47, 46
2, 145800, Note_on_c, 0, 54, 46
2, 145859, Note_on_c, 0, 54, 0
2, 145859, Note_on_c, 0, 47, 0
2, 145859, Note_on_c, 0, 62, 0
2, 145859, Note_on_c, 0, 66, 56
2, 145859, Note_on_c, 0, 59, 50
2, 145920, Note_on_c, 0, 59, 0
2, 145920, Note_on_c, 0, 66, 0
2, 145920, Note_on_c, 0, 71, 57
2, 145920, Note_on_c, 0, 62, 57
2, 145980, Note_on_c, 0, 62, 0
2, 145980, Note_on_c, 0, 71, 0
2, 145980, Note_on_c, 0, 74, 54
2, 145980, Note_on_c, 0, 66, 54
2, 146039, Note_on_c, 0, 66, 0
2, 146039, Note_on_c, 0, 74, 0
2, 146039, Note_on_c, 0, 78, 59
2, 146039, Note_on_c, 0, 71, 55
2, 146100, Note_on_c, 0, 71, 0
2, 146100, Note_on_c, 0, 78, 0
2, 146100, Note_on_c, 0, 83, 58
2, 146100, Note_on_c, 0, 74, 55
2, 146160, Note_on_c, 0, 74, 0
2, 146160, Note_on_c, 0, 83, 0
2, 146160, Note_on_c, 0, 86, 58
2, 146160, Note_on_c, 0, 78, 54
2, 146340, Note_on_c, 0, 78, 0
2, 146340, Note_on_c, 0, 86, 0
2, 146520, Note_on_c, 0, 64, 43
2, 146520, Note_on_c, 0, 42, 45
2, 146520, Note_on_c, 0, 52, 45
2, 146579, Note_on_c, 0, 52, 0
2, 146579, Note_on_c, 0, 42, 0
2, 146579, Note_on_c, 0, 64, 0
2, 146579, Note_on_c, 0, 66, 50
2, 146579, Note_on_c, 0, 58, 51
2, 146640, Note_on_c, 0, 58, 0
2, 146640, Note_on_c, 0, 66, 0
2, 146640, Note_on_c, 0, 70, 60
2, 146640, Note_on_c, 0, 62, 60
2, 146700, Note_on_c, 0, 62, 0
2, 146700, Note_on_c, 0, 70, 0
2, 146700, Note_on_c, 0, 76, 61
2, 146700, Note_on_c, 0, 66, 60
2, 146759, Note_on_c, 0, 66, 0
2, 146759, Note_on_c, 0, 76, 0
2, 146759, Note_on_c, 0, 78, 54
2, 146759, Note_on_c, 0, 70, 58
2, 146820, Note_on_c, 0, 70, 0
2, 146820, Note_on_c, 0, 78, 0
2, 146820, Note_on_c, 0, 82, 58
2, 146820, Note_on_c, 0, 74, 60
2, 146880, Note_on_c, 0, 74, 0
2, 146880, Note_on_c, 0, 82, 0
2, 146880, Note_on_c, 0, 86, 57
2, 146880, Note_on_c, 0, 78, 56
2, 147060, Note_on_c, 0, 78, 0
2, 147060, Note_on_c, 0, 86, 0
2, 147240, Note_on_c, 0, 62, 45
2, 147240, Note_on_c, 0, 66, 45
2, 147240, Note_on_c, 0, 71, 45
2, 147240, Note_on_c, 0, 47, 45
2, 147240, Note_on_c, 0, 54, 45
2, 147240, Note_on_c, 0, 59, 45
2, 147420, Note_on_c, 0, 59, 0
2, 147420, Note_on_c, 0, 66, 0
2, 147420, Note_on_c, 0, 71, 0
2, 147420, Note_on_c, 0, 62, 0
2, 147420, Note_on_c, 0, 54, 0
2, 147420, Note_on_c, 0, 47, 0
2, 147600, Note_on_c, 0, 64, 44
2, 147600, Note_on_c, 0, 67, 44
2, 147600, Note_on_c, 0, 71, 44
2, 147600, Note_on_c, 0, 52, 46
2, 147600, Note_on_c, 0, 59, 46
2, 147780, Note_on_c, 0, 59, 0
2, 147780, Note_on_c, 0, 71, 0
2, 147780, Note_on_c, 0, 64, 0
2, 147780, Note_on_c, 0, 67, 0
2, 147780, Note_on_c, 0, 52, 0
2, 147960, Note_on_c, 0, 62, 50
2, 147960, Note_on_c, 0, 66, 50
2, 147960, Note_on_c, 0, 71, 50
2, 147960, Note_on_c, 0, 47, 45
2, 147960, Note_on_c, 0, 54, 45
2, 147960, Note_on_c, 0, 59, 45
2, 148140, Note_on_c, 0, 59, 0
2, 148140, Note_on_c, 0, 66, 0
2, 148140, Note_on_c, 0, 71, 0
2, 148140, Note_on_c, 0, 62, 0
2, 148140, Note_on_c, 0, 54, 0
2, 148140, Note_on_c, 0, 47, 0
2, 148680, Note_on_c, 0, 57, 102
2, 148680, Note_on_c, 0, 33, 105
2, 148680, Note_on_c, 0, 45, 105
2, 148860, Note_on_c, 0, 45, 0
2, 148860, Note_on_c, 0, 33, 0
2, 148860, Note_on_c, 0, 57, 0
2, 148860, Note_on_c, 0, 52, 101
2, 148860, Note_on_c, 0, 28, 101
2, 148860, Note_on_c, 0, 40, 101
2, 149220, Note_on_c, 0, 40, 0
2, 149220, Note_on_c, 0, 28, 0
2, 149220, Note_on_c, 0, 52, 0
2, 149220, Note_on_c, 0, 55, 112
2, 149220, Note_on_c, 0, 31, 110
2, 149220, Note_on_c, 0, 43, 110
2, 149580, Note_on_c, 0, 43, 0
2, 149580, Note_on_c, 0, 31, 0
2, 149580, Note_on_c, 0, 55, 0
2, 149580, Note_on_c, 0, 58, 103
2, 149580, Note_on_c, 0, 34, 111
2, 149580, Note_on_c, 0, 46, 111
2, 149940, Note_on_c, 0, 46, 0
2, 149940, Note_on_c, 0, 34, 0
2, 149940, Note_on_c, 0, 58, 0
2, 149940, Note_on_c, 0, 61, 119
2, 149940, Note_on_c, 0, 37, 114
2, 149940, Note_on_c, 0, 49, 114
2, 150300, Note_on_c, 0, 49, 0
2, 150300, Note_on_c, 0, 37, 0
2, 150300, Note_on_c, 0, 61, 0
2, 150300, Note_on_c, 0, 59, 82
2, 150300, Note_on_c, 0, 35, 82
2, 150300, Note_on_c, 0, 47, 82
2, 150390, Note_on_c, 0, 47, 0
2, 150390, Note_on_c, 0, 35, 0
2, 150390, Note_on_c, 0, 59, 0
2, 150390, Note_on_c, 0, 58, 78
2, 150390, Note_on_c, 0, 34, 79
2, 150390, Note_on_c, 0, 46, 79
2, 150480, Note_on_c, 0, 46, 0
2, 150480, Note_on_c, 0, 34, 0
2, 150480, Note_on_c, 0, 58, 0
2, 150480, Note_on_c, 0, 59, 81
2, 150480, Note_on_c, 0, 35, 89
2, 150480, Note_on_c, 0, 47, 89
2, 150660, Note_on_c, 0, 47, 0
2, 150660, Note_on_c, 0, 35, 0
2, 150660, Note_on_c, 0, 59, 0
2, 150660, Note_on_c, 0, 66, 102
2, 150660, Note_on_c, 0, 42, 93
2, 150660, Note_on_c, 0, 54, 93
2, 150840, Note_on_c, 0, 54, 0
2, 150840, Note_on_c, 0, 42, 0
2, 150840, Note_on_c, 0, 66, 0
2, 150840, Note_on_c, 0, 64, 79
2, 150840, Note_on_c, 0, 40, 79
2, 150840, Note_on_c, 0, 52, 79
2, 151020, Note_on_c, 0, 52, 0
2, 151020, Note_on_c, 0, 40, 0
2, 151020, Note_on_c, 0, 64, 0
2, 151020, Note_on_c, 0, 62, 76
2, 151020, Note_on_c, 0, 38, 86
2, 151020, Note_on_c, 0, 50, 86
2, 151200, Note_on_c, 0, 50, 0
2, 151200, Note_on_c, 0, 38, 0
2, 151200, Note_on_c, 0, 62, 0
2, 151200, Note_on_c, 0, 61, 80
2, 151200, Note_on_c, 0, 37, 82
2, 151200, Note_on_c, 0, 49, 82
2, 151380, Note_on_c, 0, 49, 0
2, 151380, Note_on_c, 0, 37, 0
2, 151380, Note_on_c, 0, 61, 0
2, 151380, Note_on_c, 0, 59, 79
2, 151380, Note_on_c, 0, 35, 81
2, 151380, Note_on_c, 0, 47, 81
2, 151560, Note_on_c, 0, 47, 0
2, 151560, Note_on_c, 0, 35, 0
2, 151560, Note_on_c, 0, 59, 0
2, 151560, Note_on_c, 0, 57, 103
2, 151560, Note_on_c, 0, 33, 104
2, 151560, Note_on_c, 0, 45, 104
2, 151740, Note_on_c, 0, 45, 0
2, 151740, Note_on_c, 0, 33, 0
2, 151740, Note_on_c, 0, 57, 0
2, 151740, Note_on_c, 0, 52, 106
2, 151740, Note_on_c, 0, 28, 103
2, 151740, Note_on_c, 0, 40, 103
2, 152100, Note_on_c, 0, 40, 0
2, 152100, Note_on_c, 0, 28, 0
2, 152100, Note_on_c, 0, 52, 0
2, 152100, Note_on_c, 0, 55, 106
2, 152100, Note_on_c, 0, 31, 110
2, 152100, Note_on_c, 0, 43, 110
2, 152460, Note_on_c, 0, 43, 0
2, 152460, Note_on_c, 0, 31, 0
2, 152460, Note_on_c, 0, 55, 0
2, 152460, Note_on_c, 0, 58, 113
2, 152460, Note_on_c, 0, 34, 109
2, 152460, Note_on_c, 0, 46, 109
2, 152820, Note_on_c, 0, 46, 0
2, 152820, Note_on_c, 0, 34, 0
2, 152820, Note_on_c, 0, 58, 0
2, 152820, Note_on_c, 0, 61, 115
2, 152820, Note_on_c, 0, 37, 115
2, 152820, Note_on_c, 0, 49, 115
2, 153180, Note_on_c, 0, 49, 0
2, 153180, Note_on_c, 0, 37, 0
2, 153180, Note_on_c, 0, 61, 0
2, 153180, Note_on_c, 0, 67, 94
2, 153180, Note_on_c, 0, 43, 90
2, 153180, Note_on_c, 0, 55, 90
2, 153270, Note_on_c, 0, 55, 0
2, 153270, Note_on_c, 0, 43, 0
2, 153270, Note_on_c, 0, 67, 0
2, 153270, Note_on_c, 0, 66, 82
2, 153270, Note_on_c, 0, 42, 80
2, 153270, Note_on_c, 0, 54, 80
2, 153360, Note_on_c, 0, 54, 0
2, 153360, Note_on_c, 0, 42, 0
2, 153360, Note_on_c, 0, 66, 0
2, 153360, Note_on_c, 0, 65, 81
2, 153360, Note_on_c, 0, 41, 84
2, 153360, Note_on_c, 0, 53, 84
2, 153540, Note_on_c, 0, 53, 0
2, 153540, Note_on_c, 0, 41, 0
2, 153540, Note_on_c, 0, 65, 0
2, 153540, Note_on_c, 0, 67, 87
2, 153540, Note_on_c, 0, 43, 87
2, 153540, Note_on_c, 0, 55, 87
2, 153720, Note_on_c, 0, 55, 0
2, 153720, Note_on_c, 0, 43, 0
2, 153720, Note_on_c, 0, 67, 0
2, 153720, Note_on_c, 0, 66, 80
2, 153720, Note_on_c, 0, 42, 77
2, 153720, Note_on_c, 0, 54, 77
2, 153900, Note_on_c, 0, 54, 0
2, 153900, Note_on_c, 0, 42, 0
2, 153900, Note_on_c, 0, 66, 0
2, 153900, Note_on_c, 0, 62, 74
2, 153900, Note_on_c, 0, 38, 80
2, 153900, Note_on_c, 0, 50, 80
2, 154080, Note_on_c, 0, 50, 0
2, 154080, Note_on_c, 0, 38, 0
2, 154080, Note_on_c, 0, 62, 0
2, 154080, Note_on_c, 0, 61, 81
2, 154080, Note_on_c, 0, 37, 83
2, 154080, Note_on_c, 0, 49, 83
2, 154260, Note_on_c, 0, 49, 0
2, 154260, Note_on_c, 0, 37, 0
2, 154260, Note_on_c, 0, 61, 0
2, 154260, Note_on_c, 0, 59, 79
2, 154260, Note_on_c, 0, 35, 81
2, 154260, Note_on_c, 0, 47, 81
2, 154440, Note_on_c, 0, 47, 0
2, 154440, Note_on_c, 0, 35, 0
2, 154440, Note_on_c, 0, 59, 0
2, 154440, Note_on_c, 0, 57, 105
2, 154440, Note_on_c, 0, 33, 105
2, 154440, Note_on_c, 0, 45, 105
2, 154620, Note_on_c, 0, 45, 0
2, 154620, Note_on_c, 0, 33, 0
2, 154620, Note_on_c, 0, 57, 0
2, 154620, Note_on_c, 0, 52, 124
2, 154620, Note_on_c, 0, 64, 124
2, 154620, Note_on_c, 0, 28, 102
2, 154620, Note_on_c, 0, 40, 102
2, 154980, Note_on_c, 0, 40, 0
2, 154980, Note_on_c, 0, 52, 0
2, 154980, Note_on_c, 0, 64, 0
2, 154980, Note_on_c, 0, 28, 0
2, 154980, Note_on_c, 0, 55, 117
2, 154980, Note_on_c, 0, 67, 117
2, 154980, Note_on_c, 0, 31, 112
2, 154980, Note_on_c, 0, 43, 112
2, 155340, Note_on_c, 0, 43, 0
2, 155340, Note_on_c, 0, 55, 0
2, 155340, Note_on_c, 0, 67, 0
2, 155340, Note_on_c, 0, 31, 0
2, 155340, Note_on_c, 0, 58, 118
2, 155340, Note_on_c, 0, 70, 118
2, 155340, Note_on_c, 0, 34, 108
2, 155340, Note_on_c, 0, 46, 108
2, 155700, Note_on_c, 0, 46, 0
2, 155700, Note_on_c, 0, 58, 0
2, 155700, Note_on_c, 0, 70, 0
2, 155700, Note_on_c, 0, 34, 0
2, 155700, Note_on_c, 0, 61, 117
2, 155700, Note_on_c, 0, 73, 117
2, 155700, Note_on_c, 0, 37, 111
2, 155700, Note_on_c, 0, 49, 111
2, 156060, Note_on_c, 0, 49, 0
2, 156060, Note_on_c, 0, 61, 0
2, 156060, Note_on_c, 0, 73, 0
2, 156060, Note_on_c, 0, 37, 0
2, 156060, Note_on_c, 0, 59, 76
2, 156060, Note_on_c, 0, 71, 76
2, 156060, Note_on_c, 0, 35, 81
2, 156060, Note_on_c, 0, 47, 81
2, 156150, Note_on_c, 0, 47, 0
2, 156150, Note_on_c, 0, 59, 0
2, 156150, Note_on_c, 0, 71, 0
2, 156150, Note_on_c, 0, 35, 0
2, 156150, Note_on_c, 0, 58, 78
2, 156150, Note_on_c, 0, 70, 78
2, 156150, Note_on_c, 0, 34, 81
2, 156150, Note_on_c, 0, 46, 81
2, 156240, Note_on_c, 0, 46, 0
2, 156240, Note_on_c, 0, 58, 0
2, 156240, Note_on_c, 0, 70, 0
2, 156240, Note_on_c, 0, 34, 0
2, 156240, Note_on_c, 0, 59, 90
2, 156240, Note_on_c, 0, 71, 90
2, 156240, Note_on_c, 0, 35, 85
2, 156240, Note_on_c, 0, 47, 85
2, 156420, Note_on_c, 0, 47, 0
2, 156420, Note_on_c, 0, 59, 0
2, 156420, Note_on_c, 0, 71, 0
2, 156420, Note_on_c, 0, 35, 0
2, 156420, Note_on_c, 0, 66, 102
2, 156420, Note_on_c, 0, 78, 102
2, 156420, Note_on_c, 0, 42, 95
2, 156420, Note_on_c, 0, 54, 95
2, 156600, Note_on_c, 0, 54, 0
2, 156600, Note_on_c, 0, 66, 0
2, 156600, Note_on_c, 0, 78, 0
2, 156600, Note_on_c, 0, 42, 0
2, 156600, Note_on_c, 0, 64, 81
2, 156600, Note_on_c, 0, 76, 81
2, 156600, Note_on_c, 0, 40, 84
2, 156600, Note_on_c, 0, 52, 84
2, 156780, Note_on_c, 0, 52, 0
2, 156780, Note_on_c, 0, 64, 0
2, 156780, Note_on_c, 0, 76, 0
2, 156780, Note_on_c, 0, 40, 0
2, 156780, Note_on_c, 0, 62, 76
2, 156780, Note_on_c, 0, 74, 76
2, 156780, Note_on_c, 0, 38, 77
2, 156780, Note_on_c, 0, 50, 77
2, 156960, Note_on_c, 0, 50, 0
2, 156960, Note_on_c, 0, 62, 0
2, 156960, Note_on_c, 0, 74, 0
2, 156960, Note_on_c, 0, 38, 0
2, 156960, Note_on_c, 0, 61, 82
2, 156960, Note_on_c, 0, 73, 82
2, 156960, Note_on_c, 0, 37, 79
2, 156960, Note_on_c, 0, 49, 79
2, 157140, Note_on_c, 0, 49, 0
2, 157140, Note_on_c, 0, 61, 0
2, 157140, Note_on_c, 0, 73, 0
2, 157140, Note_on_c, 0, 37, 0
2, 157140, Note_on_c, 0, 59, 78
2, 157140, Note_on_c, 0, 71, 78
2, 157140, Note_on_c, 0, 35, 82
2, 157140, Note_on_c, 0, 47, 82
2, 157320, Note_on_c, 0, 47, 0
2, 157320, Note_on_c, 0, 59, 0
2, 157320, Note_on_c, 0, 71, 0
2, 157320, Note_on_c, 0, 35, 0
2, 157320, Note_on_c, 0, 57, 103
2, 157320, Note_on_c, 0, 69, 103
2, 157320, Note_on_c, 0, 33, 110
2, 157320, Note_on_c, 0, 45, 110
2, 157500, Note_on_c, 0, 45, 0
2, 157500, Note_on_c, 0, 57, 0
2, 157500, Note_on_c, 0, 69, 0
2, 157500, Note_on_c, 0, 33, 0
2, 157500, Note_on_c, 0, 52, 99
2, 157500, Note_on_c, 0, 64, 99
2, 157500, Note_on_c, 0, 28, 97
2, 157500, Note_on_c, 0, 40, 97
2, 157860, Note_on_c, 0, 40, 0
2, 157860, Note_on_c, 0, 52, 0
2, 157860, Note_on_c, 0, 64, 0
2, 157860, Note_on_c, 0, 28, 0
2, 157860, Note_on_c, 0, 57, 117
2, 157860, Note_on_c, 0, 69, 117
2, 157860, Note_on_c, 0, 33, 117
2, 157860, Note_on_c, 0, 45, 117
2, 158220, Note_on_c, 0, 45, 0
2, 158220, Note_on_c, 0, 57, 0
2, 158220, Note_on_c, 0, 69, 0
2, 158220, Note_on_c, 0, 33, 0
2, 158220, Note_on_c, 0, 59, 111
2, 158220, Note_on_c, 0, 71, 111
2, 158220, Note_on_c, 0, 35, 107
2, 158220, Note_on_c, 0, 47, 107
2, 158580, Note_on_c, 0, 47, 0
2, 158580, Note_on_c, 0, 59, 0
2, 158580, Note_on_c, 0, 71, 0
2, 158580, Note_on_c, 0, 35, 0
2, 158580, Note_on_c, 0, 61, 111
2, 158580, Note_on_c, 0, 73, 111
2, 158580, Note_on_c, 0, 37, 108
2, 158580, Note_on_c, 0, 49, 108
2, 158940, Note_on_c, 0, 49, 0
2, 158940, Note_on_c, 0, 61, 0
2, 158940, Note_on_c, 0, 73, 0
2, 158940, Note_on_c, 0, 37, 0
2, 158940, Note_on_c, 0, 62, 86
2, 158940, Note_on_c, 0, 74, 86
2, 158940, Note_on_c, 0, 38, 85
2, 158940, Note_on_c, 0, 50, 85
2, 159030, Note_on_c, 0, 50, 0
2, 159030, Note_on_c, 0, 62, 0
2, 159030, Note_on_c, 0, 74, 0
2, 159030, Note_on_c, 0, 38, 0
2, 159030, Note_on_c, 0, 61, 81
2, 159030, Note_on_c, 0, 73, 81
2, 159030, Note_on_c, 0, 37, 90
2, 159030, Note_on_c, 0, 49, 90
2, 159120, Note_on_c, 0, 49, 0
2, 159120, Note_on_c, 0, 61, 0
2, 159120, Note_on_c, 0, 73, 0
2, 159120, Note_on_c, 0, 37, 0
2, 159120, Note_on_c, 0, 60, 82
2, 159120, Note_on_c, 0, 72, 82
2, 159120, Note_on_c, 0, 36, 80
2, 159120, Note_on_c, 0, 48, 80
2, 159300, Note_on_c, 0, 48, 0
2, 159300, Note_on_c, 0, 60, 0
2, 159300, Note_on_c, 0, 72, 0
2, 159300, Note_on_c, 0, 36, 0
2, 159300, Note_on_c, 0, 59, 75
2, 159300, Note_on_c, 0, 71, 75
2, 159300, Note_on_c, 0, 35, 79
2, 159300, Note_on_c, 0, 47, 79
2, 159480, Note_on_c, 0, 47, 0
2, 159480, Note_on_c, 0, 59, 0
2, 159480, Note_on_c, 0, 71, 0
2, 159480, Note_on_c, 0, 35, 0
2, 159480, Note_on_c, 0, 58, 79
2, 159480, Note_on_c, 0, 70, 79
2, 159480, Note_on_c, 0, 34, 88
2, 159480, Note_on_c, 0, 46, 88
2, 159660, Note_on_c, 0, 46, 0
2, 159660, Note_on_c, 0, 58, 0
2, 159660, Note_on_c, 0, 70, 0
2, 159660, Note_on_c, 0, 34, 0
2, 159660, Note_on_c, 0, 57, 76
2, 159660, Note_on_c, 0, 69, 76
2, 159660, Note_on_c, 0, 33, 80
2, 159660, Note_on_c, 0, 45, 80
2, 159840, Note_on_c, 0, 45, 0
2, 159840, Note_on_c, 0, 57, 0
2, 159840, Note_on_c, 0, 69, 0
2, 159840, Note_on_c, 0, 33, 0
2, 159840, Note_on_c, 0, 50, 64
2, 159840, Note_on_c, 0, 62, 64
2, 159840, Note_on_c, 0, 26, 78
2, 159840, Note_on_c, 0, 38, 78
2, 160020, Note_on_c, 0, 38, 0
2, 160020, Note_on_c, 0, 50, 0
2, 160020, Note_on_c, 0, 62, 0
2, 160020, Note_on_c, 0, 26, 0
2, 160200, Note_on_c, 0, 88, 86
2, 160200, Note_on_c, 0, 84, 88
2, 160290, Note_on_c, 0, 84, 0
2, 160290, Note_on_c, 0, 88, 0
2, 160290, Note_on_c, 0, 86, 85
2, 160290, Note_on_c, 0, 83, 91
2, 160380, Note_on_c, 0, 83, 0
2, 160380, Note_on_c, 0, 86, 0
2, 160380, Note_on_c, 0, 84, 90
2, 160380, Note_on_c, 0, 81, 90
2, 160470, Note_on_c, 0, 81, 0
2, 160470, Note_on_c, 0, 84, 0
2, 160470, Note_on_c, 0, 86, 103
2, 160470, Note_on_c, 0, 83, 103
2, 160560, Note_on_c, 0, 83, 0
2, 160560, Note_on_c, 0, 86, 0
2, 160560, Note_on_c, 0, 88, 106
2, 160560, Note_on_c, 0, 84, 102
2, 160740, Note_on_c, 0, 84, 0
2, 160740, Note_on_c, 0, 88, 0
2, 160740, Note_on_c, 0, 81, 84
2, 160740, Note_on_c, 0, 78, 85
2, 160830, Note_on_c, 0, 78, 0
2, 160830, Note_on_c, 0, 81, 0
2, 160830, Note_on_c, 0, 83, 101
2, 160830, Note_on_c, 0, 79, 103
2, 160920, Note_on_c, 0, 79, 0
2, 160920, Note_on_c, 0, 83, 0
2, 160920, Note_on_c, 0, 84, 97
2, 160920, Note_on_c, 0, 81, 100
2, 161100, Note_on_c, 0, 81, 0
2, 161100, Note_on_c, 0, 84, 0
2, 161100, Note_on_c, 0, 78, 85
2, 161100, Note_on_c, 0, 74, 78
2, 161190, Note_on_c, 0, 74, 0
2, 161190, Note_on_c, 0, 78, 0
2, 161190, Note_on_c, 0, 79, 103
2, 161190, Note_on_c, 0, 76, 103
2, 161280, Note_on_c, 0, 76, 0
2, 161280, Note_on_c, 0, 79, 0
2, 161280, Note_on_c, 0, 81, 104
2, 161280, Note_on_c, 0, 78, 102
2, 161460, Note_on_c, 0, 78, 0
2, 161460, Note_on_c, 0, 81, 0
2, 161460, Note_on_c, 0, 78, 86
2, 161460, Note_on_c, 0, 74, 87
2, 161640, Note_on_c, 0, 74, 0
2, 161640, Note_on_c, 0, 78, 0
2, 161640, Note_on_c, 0, 79, 98
2, 161640, Note_on_c, 0, 70, 85
2, 161730, Note_on_c, 0, 70, 0
2, 161730, Note_on_c, 0, 79, 0
2, 161730, Note_on_c, 0, 81, 104
2, 161730, Note_on_c, 0, 72, 97
2, 161820, Note_on_c, 0, 72, 0
2, 161820, Note_on_c, 0, 81, 0
2, 161820, Note_on_c, 0, 82, 98
2, 161820, Note_on_c, 0, 73, 101
2, 161910, Note_on_c, 0, 73, 0
2, 161910, Note_on_c, 0, 82, 0
2, 161910, Note_on_c, 0, 84, 108
2, 161910, Note_on_c, 0, 75, 101
2, 162000, Note_on_c, 0, 75, 0
2, 162000, Note_on_c, 0, 84, 0
2, 162000, Note_on_c, 0, 85, 102
2, 162000, Note_on_c, 0, 76, 107
2, 162090, Note_on_c, 0, 76, 0
2, 162090, Note_on_c, 0, 85, 0
2, 162090, Note_on_c, 0, 87, 99
2, 162090, Note_on_c, 0, 78, 99
2, 162180, Note_on_c, 0, 78, 0
2, 162180, Note_on_c, 0, 87, 0
2, 162180, Note_on_c, 0, 88, 104
2, 162180, Note_on_c, 0, 79, 105
2, 162270, Note_on_c, 0, 79, 0
2, 162270, Note_on_c, 0, 88, 0
2, 162270, Note_on_c, 0, 91, 105
2, 162270, Note_on_c, 0, 82, 109
2, 162360, Note_on_c, 0, 82, 0
2, 162360, Note_on_c, 0, 91, 0
2, 162360, Note_on_c, 0, 90, 96
2, 162360, Note_on_c, 0, 81, 94
2, 162450, Note_on_c, 0, 81, 0
2, 162450, Note_on_c, 0, 90, 0
2, 162450, Note_on_c, 0, 91, 99
2, 162450, Note_on_c, 0, 79, 93
2, 162540, Note_on_c, 0, 79, 0
2, 162540, Note_on_c, 0, 91, 0
2, 162540, Note_on_c, 0, 92, 102
2, 162540, Note_on_c, 0, 77, 91
2, 162630, Note_on_c, 0, 77, 0
2, 162630, Note_on_c, 0, 92, 0
2, 162630, Note_on_c, 0, 93, 109
2, 162630, Note_on_c, 0, 78, 102
2, 162720, Note_on_c, 0, 78, 0
2, 162720, Note_on_c, 0, 93, 0
2, 162720, Note_on_c, 0, 102, 87
2, 162720, Note_on_c, 0, 75, 110
2, 162720, Note_on_c, 0, 81, 110
2, 162900, Note_on_c, 0, 81, 0
2, 162900, Note_on_c, 0, 75, 0
2, 162900, Note_on_c, 0, 102, 0
2, 162900, Note_on_c, 0, 90, 76
2, 162900, Note_on_c, 0, 93, 76
2, 162900, Note_on_c, 0, 75, 97
2, 162900, Note_on_c, 0, 81, 97
2, 163080, Note_on_c, 0, 81, 0
2, 163080, Note_on_c, 0, 90, 0
2, 163080, Note_on_c, 0, 93, 0
2, 163080, Note_on_c, 0, 75, 0
2, 163080, Note_on_c, 0, 88, 114
2, 163080, Note_on_c, 0, 84, 102
2, 163170, Note_on_c, 0, 84, 0
2, 163170, Note_on_c, 0, 88, 0
2, 163170, Note_on_c, 0, 86, 93
2, 163170, Note_on_c, 0, 83, 97
2, 163260, Note_on_c, 0, 83, 0
2, 163260, Note_on_c, 0, 86, 0
2, 163260, Note_on_c, 0, 84, 91
2, 163260, Note_on_c, 0, 81, 88
2, 163350, Note_on_c, 0, 81, 0
2, 163350, Note_on_c, 0, 84, 0
2, 163350, Note_on_c, 0, 86, 97
2, 163350, Note_on_c, 0, 83, 104
2, 163440, Note_on_c, 0, 83, 0
2, 163440, Note_on_c, 0, 86, 0
2, 163440, Note_on_c, 0, 88, 102
2, 163440, Note_on_c, 0, 84, 103
2, 163620, Note_on_c, 0, 84, 0
2, 163620, Note_on_c, 0, 88, 0
2, 163620, Note_on_c, 0, 81, 81
2, 163620, Note_on_c, 0, 78, 84
2, 163710, Note_on_c, 0, 78, 0
2, 163710, Note_on_c, 0, 81, 0
2, 163710, Note_on_c, 0, 83, 101
2, 163710, Note_on_c, 0, 79, 105
2, 163800, Note_on_c, 0, 79, 0
2, 163800, Note_on_c, 0, 83, 0
2, 163800, Note_on_c, 0, 84, 106
2, 163800, Note_on_c, 0, 81, 104
2, 163980, Note_on_c, 0, 81, 0
2, 163980, Note_on_c, 0, 84, 0
2, 163980, Note_on_c, 0, 78, 81
2, 163980, Note_on_c, 0, 74, 75
2, 164070, Note_on_c, 0, 74, 0
2, 164070, Note_on_c, 0, 78, 0
2, 164070, Note_on_c, 0, 79, 102
2, 164070, Note_on_c, 0, 76, 100
2, 164160, Note_on_c, 0, 76, 0
2, 164160, Note_on_c, 0, 79, 0
2, 164160, Note_on_c, 0, 81, 102
2, 164160, Note_on_c, 0, 78, 106
2, 164340, Note_on_c, 0, 78, 0
2, 164340, Note_on_c, 0, 81, 0
2, 164340, Note_on_c, 0, 78, 94
2, 164340, Note_on_c, 0, 74, 84
2, 164430, Note_on_c, 0, 74, 0
2, 164430, Note_on_c, 0, 72, 92
2, 164520, Note_on_c, 0, 72, 0
2, 164520, Note_on_c, 0, 78, 0
2, 164520, Note_on_c, 0, 79, 75
2, 164520, Note_on_c, 0, 70, 90
2, 164610, Note_on_c, 0, 70, 0
2, 164610, Note_on_c, 0, 79, 0
2, 164610, Note_on_c, 0, 81, 97
2, 164610, Note_on_c, 0, 72, 103
2, 164700, Note_on_c, 0, 72, 0
2, 164700, Note_on_c, 0, 81, 0
2, 164700, Note_on_c, 0, 82, 101
2, 164700, Note_on_c, 0, 73, 101
2, 164790, Note_on_c, 0, 73, 0
2, 164790, Note_on_c, 0, 82, 0
2, 164790, Note_on_c, 0, 84, 105
2, 164790, Note_on_c, 0, 75, 110
2, 164880, Note_on_c, 0, 75, 0
2, 164880, Note_on_c, 0, 84, 0
2, 164880, Note_on_c, 0, 85, 103
2, 164880, Note_on_c, 0, 76, 103
2, 164970, Note_on_c, 0, 76, 0
2, 164970, Note_on_c, 0, 85, 0
2, 164970, Note_on_c, 0, 87, 104
2, 164970, Note_on_c, 0, 78, 106
2, 165060, Note_on_c, 0, 78, 0
2, 165060, Note_on_c, 0, 87, 0
2, 165060, Note_on_c, 0, 88, 104
2, 165060, Note_on_c, 0, 79, 100
2, 165150, Note_on_c, 0, 79, 0
2, 165150, Note_on_c, 0, 88, 0
2, 165150, Note_on_c, 0, 91, 109
2, 165150, Note_on_c, 0, 82, 102
2, 165240, Note_on_c, 0, 82, 0
2, 165240, Note_on_c, 0, 91, 0
2, 165240, Note_on_c, 0, 90, 93
2, 165240, Note_on_c, 0, 81, 99
2, 165330, Note_on_c, 0, 81, 0
2, 165330, Note_on_c, 0, 90, 0
2, 165330, Note_on_c, 0, 91, 99
2, 165330, Note_on_c, 0, 79, 93
2, 165420, Note_on_c, 0, 79, 0
2, 165420, Note_on_c, 0, 91, 0
2, 165420, Note_on_c, 0, 92, 105
2, 165420, Note_on_c, 0, 77, 90
2, 165510, Note_on_c, 0, 77, 0
2, 165510, Note_on_c, 0, 92, 0
2, 165510, Note_on_c, 0, 93, 96
2, 165510, Note_on_c, 0, 78, 101
2, 165600, Note_on_c, 0, 78, 0
2, 165600, Note_on_c, 0, 93, 0
2, 165600, Note_on_c, 0, 98, 126
2, 165600, Note_on_c, 0, 102, 126
2, 165600, Note_on_c, 0, 105, 126
2, 165600, Note_on_c, 0, 75, 102
2, 165600, Note_on_c, 0, 81, 102
2, 165780, Note_on_c, 0, 81, 0
2, 165780, Note_on_c, 0, 105, 0
2, 165780, Note_on_c, 0, 98, 0
2, 165780, Note_on_c, 0, 102, 0
2, 165780, Note_on_c, 0, 75, 0
2, 165780, Note_on_c, 0, 93, 74
2, 165780, Note_on_c, 0, 75, 96
2, 165780, Note_on_c, 0, 81, 96
2, 165960, Note_on_c, 0, 81, 0
2, 165960, Note_on_c, 0, 75, 0
2, 165960, Note_on_c, 0, 93, 0
2, 165960, Note_on_c, 0, 88, 111
2, 165960, Note_on_c, 0, 84, 109
2, 166050, Note_on_c, 0, 84, 0
2, 166050, Note_on_c, 0, 88, 0
2, 166050, Note_on_c, 0, 86, 92
2, 166050, Note_on_c, 0, 83, 94
2, 166140, Note_on_c, 0, 83, 0
2, 166140, Note_on_c, 0, 86, 0
2, 166140, Note_on_c, 0, 84, 91
2, 166140, Note_on_c, 0, 81, 89
2, 166230, Note_on_c, 0, 81, 0
2, 166230, Note_on_c, 0, 84, 0
2, 166230, Note_on_c, 0, 86, 103
2, 166230, Note_on_c, 0, 83, 100
2, 166320, Note_on_c, 0, 83, 0
2, 166320, Note_on_c, 0, 86, 0
2, 166320, Note_on_c, 0, 88, 101
2, 166320, Note_on_c, 0, 84, 102
2, 166500, Note_on_c, 0, 84, 0
2, 166500, Note_on_c, 0, 88, 0
2, 166500, Note_on_c, 0, 81, 80
2, 166500, Note_on_c, 0, 78, 81
2, 166590, Note_on_c, 0, 78, 0
2, 166590, Note_on_c, 0, 81, 0
2, 166590, Note_on_c, 0, 83, 103
2, 166590, Note_on_c, 0, 79, 99
2, 166680, Note_on_c, 0, 79, 0
2, 166680, Note_on_c, 0, 83, 0
2, 166680, Note_on_c, 0, 84, 101
2, 166680, Note_on_c, 0, 81, 99
2, 166860, Note_on_c, 0, 81, 0
2, 166860, Note_on_c, 0, 84, 0
2, 166860, Note_on_c, 0, 78, 83
2, 166860, Note_on_c, 0, 74, 78
2, 166950, Note_on_c, 0, 74, 0
2, 166950, Note_on_c, 0, 78, 0
2, 166950, Note_on_c, 0, 79, 99
2, 166950, Note_on_c, 0, 76, 105
2, 167040, Note_on_c, 0, 76, 0
2, 167040, Note_on_c, 0, 79, 0
2, 167040, Note_on_c, 0, 81, 102
2, 167040, Note_on_c, 0, 78, 108
2, 167220, Note_on_c, 0, 78, 0
2, 167220, Note_on_c, 0, 81, 0
2, 167220, Note_on_c, 0, 78, 96
2, 167220, Note_on_c, 0, 74, 87
2, 167310, Note_on_c, 0, 74, 0
2, 167310, Note_on_c, 0, 72, 88
2, 167400, Note_on_c, 0, 72, 0
2, 167400, Note_on_c, 0, 78, 0
2, 167400, Note_on_c, 0, 82, 107
2, 167400, Note_on_c, 0, 79, 109
2, 167490, Note_on_c, 0, 79, 0
2, 167490, Note_on_c, 0, 82, 0
2, 167490, Note_on_c, 0, 81, 99
2, 167490, Note_on_c, 0, 78, 95
2, 167580, Note_on_c, 0, 78, 0
2, 167580, Note_on_c, 0, 81, 0
2, 167580, Note_on_c, 0, 79, 90
2, 167580, Note_on_c, 0, 76, 92
2, 167670, Note_on_c, 0, 76, 0
2, 167670, Note_on_c, 0, 79, 0
2, 167670, Note_on_c, 0, 81, 103
2, 167670, Note_on_c, 0, 78, 104
2, 167760, Note_on_c, 0, 78, 0
2, 167760, Note_on_c, 0, 81, 0
2, 167760, Note_on_c, 0, 82, 104
2, 167760, Note_on_c, 0, 79, 106
2, 167940, Note_on_c, 0, 79, 0
2, 167940, Note_on_c, 0, 82, 0
2, 167940, Note_on_c, 0, 76, 83
2, 167940, Note_on_c, 0, 73, 86
2, 168030, Note_on_c, 0, 73, 0
2, 168030, Note_on_c, 0, 76, 0
2, 168030, Note_on_c, 0, 78, 99
2, 168030, Note_on_c, 0, 75, 104
2, 168120, Note_on_c, 0, 75, 0
2, 168120, Note_on_c, 0, 78, 0
2, 168120, Note_on_c, 0, 79, 99
2, 168120, Note_on_c, 0, 76, 100
2, 168300, Note_on_c, 0, 76, 0
2, 168300, Note_on_c, 0, 79, 0
2, 168300, Note_on_c, 0, 73, 79
2, 168300, Note_on_c, 0, 70, 82
2, 168390, Note_on_c, 0, 70, 0
2, 168390, Note_on_c, 0, 73, 0
2, 168390, Note_on_c, 0, 75, 104
2, 168390, Note_on_c, 0, 72, 102
2, 168480, Note_on_c, 0, 72, 0
2, 168480, Note_on_c, 0, 75, 0
2, 168480, Note_on_c, 0, 76, 99
2, 168480, Note_on_c, 0, 73, 103
2, 168660, Note_on_c, 0, 73, 0
2, 168660, Note_on_c, 0, 76, 0
2, 168660, Note_on_c, 0, 73, 88
2, 168660, Note_on_c, 0, 70, 84
2, 168840, Note_on_c, 0, 70, 0
2, 168840, Note_on_c, 0, 73, 0
2, 168840, Note_on_c, 0, 76, 108
2, 168840, Note_on_c, 0, 72, 105
2, 168930, Note_on_c, 0, 72, 0
2, 168930, Note_on_c, 0, 76, 0
2, 168930, Note_on_c, 0, 74, 91
2, 168930, Note_on_c, 0, 71, 98
2, 169020, Note_on_c, 0, 71, 0
2, 169020, Note_on_c, 0, 74, 0
2, 169020, Note_on_c, 0, 72, 92
2, 169020, Note_on_c, 0, 69, 93
2, 169110, Note_on_c, 0, 69, 0
2, 169110, Note_on_c, 0, 72, 0
2, 169110, Note_on_c, 0, 74, 103
2, 169110, Note_on_c, 0, 71, 100
2, 169200, Note_on_c, 0, 71, 0
2, 169200, Note_on_c, 0, 74, 0
2, 169200, Note_on_c, 0, 76, 103
2, 169200, Note_on_c, 0, 72, 104
2, 169380, Note_on_c, 0, 72, 0
2, 169380, Note_on_c, 0, 76, 0
2, 169380, Note_on_c, 0, 69, 80
2, 169380, Note_on_c, 0, 66, 85
2, 169470, Note_on_c, 0, 66, 0
2, 169470, Note_on_c, 0, 69, 0
2, 169470, Note_on_c, 0, 71, 104
2, 169470, Note_on_c, 0, 67, 101
2, 169560, Note_on_c, 0, 67, 0
2, 169560, Note_on_c, 0, 71, 0
2, 169560, Note_on_c, 0, 72, 102
2, 169560, Note_on_c, 0, 69, 108
2, 169740, Note_on_c, 0, 69, 0
2, 169740, Note_on_c, 0, 72, 0
2, 169740, Note_on_c, 0, 66, 83
2, 169740, Note_on_c, 0, 62, 80
2, 169830, Note_on_c, 0, 62, 0
2, 169830, Note_on_c, 0, 66, 0
2, 169830, Note_on_c, 0, 67, 96
2, 169830, Note_on_c, 0, 64, 96
2, 169920, Note_on_c, 0, 64, 0
2, 169920, Note_on_c, 0, 67, 0
2, 169920, Note_on_c, 0, 69, 105
2, 169920, Note_on_c, 0, 66, 100
2, 170100, Note_on_c, 0, 66, 0
2, 170100, Note_on_c, 0, 69, 0
2, 170100, Note_on_c, 0, 66, 84
2, 170100, Note_on_c, 0, 62, 89
2, 170280, Note_on_c, 0, 62, 0
2, 170280, Note_on_c, 0, 66, 0
2, 170280, Note_on_c, 0, 70, 107
2, 170280, Note_on_c, 0, 67, 105
2, 170370, Note_on_c, 0, 67, 0
2, 170370, Note_on_c, 0, 70, 0
2, 170370, Note_on_c, 0, 69, 90
2, 170370, Note_on_c, 0, 66, 93
2, 170460, Note_on_c, 0, 66, 0
2, 170460, Note_on_c, 0, 69, 0
2, 170460, Note_on_c, 0, 67, 90
2, 170460, Note_on_c, 0, 64, 89
2, 170550, Note_on_c, 0, 64, 0
2, 170550, Note_on_c, 0, 67, 0
2, 170550, Note_on_c, 0, 69, 99
2, 170550, Note_on_c, 0, 66, 101
2, 170640, Note_on_c, 0, 66, 0
2, 170640, Note_on_c, 0, 69, 0
2, 170640, Note_on_c, 0, 70, 98
2, 170640, Note_on_c, 0, 67, 100
2, 170820, Note_on_c, 0, 67, 0
2, 170820, Note_on_c, 0, 70, 0
2, 170820, Note_on_c, 0, 64, 84
2, 170820, Note_on_c, 0, 61, 80
2, 170910, Note_on_c, 0, 61, 0
2, 170910, Note_on_c, 0, 64, 0
2, 170910, Note_on_c, 0, 66, 99
2, 170910, Note_on_c, 0, 63, 104
2, 171000, Note_on_c, 0, 63, 0
2, 171000, Note_on_c, 0, 66, 0
2, 171000, Note_on_c, 0, 67, 101
2, 171000, Note_on_c, 0, 64, 101
2, 171180, Note_on_c, 0, 64, 0
2, 171180, Note_on_c, 0, 67, 0
2, 171180, Note_on_c, 0, 61, 80
2, 171180, Note_on_c, 0, 58, 95
2, 171270, Note_on_c, 0, 58, 0
2, 171270, Note_on_c, 0, 61, 0
2, 171270, Note_on_c, 0, 63, 102
2, 171270, Note_on_c, 0, 60, 105
2, 171360, Note_on_c, 0, 60, 0
2, 171360, Note_on_c, 0, 63, 0
2, 171360, Note_on_c, 0, 64, 101
2, 171360, Note_on_c, 0, 61, 99
2, 171540, Note_on_c, 0, 61, 0
2, 171540, Note_on_c, 0, 64, 0
2, 171540, Note_on_c, 0, 61, 94
2, 171540, Note_on_c, 0, 58, 95
2, 171720, Note_on_c, 0, 58, 0
2, 171720, Note_on_c, 0, 61, 0
2, 171720, Note_on_c, 0, 57, 112
2, 171720, Note_on_c, 0, 62, 112
2, 171720, Note_on_c, 0, 66, 112
2, 171720, Note_on_c, 0, 54, 71
2, 171720, Note_on_c, 0, 38, 89
2, 171720, Note_on_c, 0, 45, 89
2, 171720, Note_on_c, 0, 50, 89
2, 171900, Note_on_c, 0, 50, 0
2, 171900, Note_on_c, 0, 38, 0
2, 171900, Note_on_c, 0, 54, 0
2, 171900, Note_on_c, 0, 45, 0
2, 171900, Note_on_c, 0, 54, 73
2, 171900, Note_on_c, 0, 38, 98
2, 171900, Note_on_c, 0, 45, 98
2, 171900, Note_on_c, 0, 50, 98
2, 172080, Note_on_c, 0, 50, 0
2, 172080, Note_on_c, 0, 38, 0
2, 172080, Note_on_c, 0, 66, 0
2, 172080, Note_on_c, 0, 57, 0
2, 172080, Note_on_c, 0, 62, 0
2, 172080, Note_on_c, 0, 45, 0
2, 172080, Note_on_c, 0, 54, 0
2, 172080, Note_on_c, 0, 64, 114
2, 172080, Note_on_c, 0, 70, 114
2, 172080, Note_on_c, 0, 73, 114
2, 172080, Note_on_c, 0, 61, 93
2, 172080, Note_on_c, 0, 43, 105
2, 172080, Note_on_c, 0, 52, 105
2, 172080, Note_on_c, 0, 55, 105
2, 172260, Note_on_c, 0, 55, 0
2, 172260, Note_on_c, 0, 43, 0
2, 172260, Note_on_c, 0, 61, 0
2, 172260, Note_on_c, 0, 52, 0
2, 172260, Note_on_c, 0, 61, 79
2, 172260, Note_on_c, 0, 43, 93
2, 172260, Note_on_c, 0, 52, 93
2, 172260, Note_on_c, 0, 55, 93
2, 172440, Note_on_c, 0, 55, 0
2, 172440, Note_on_c, 0, 43, 0
2, 172440, Note_on_c, 0, 73, 0
2, 172440, Note_on_c, 0, 64, 0
2, 172440, Note_on_c, 0, 70, 0
2, 172440, Note_on_c, 0, 52, 0
2, 172440, Note_on_c, 0, 61, 0
2, 172440, Note_on_c, 0, 69, 115
2, 172440, Note_on_c, 0, 74, 115
2, 172440, Note_on_c, 0, 78, 115
2, 172440, Note_on_c, 0, 66, 87
2, 172440, Note_on_c, 0, 50, 115
2, 172440, Note_on_c, 0, 57, 115
2, 172440, Note_on_c, 0, 62, 115
2, 172620, Note_on_c, 0, 62, 0
2, 172620, Note_on_c, 0, 50, 0
2, 172620, Note_on_c, 0, 66, 0
2, 172620, Note_on_c, 0, 57, 0
2, 172620, Note_on_c, 0, 66, 77
2, 172620, Note_on_c, 0, 50, 101
2, 172620, Note_on_c, 0, 57, 101
2, 172620, Note_on_c, 0, 62, 101
2, 172800, Note_on_c, 0, 62, 0
2, 172800, Note_on_c, 0, 50, 0
2, 172800, Note_on_c, 0, 78, 0
2, 172800, Note_on_c, 0, 69, 0
2, 172800, Note_on_c, 0, 74, 0
2, 172800, Note_on_c, 0, 57, 0
2, 172800, Note_on_c, 0, 66, 0
2, 172800, Note_on_c, 0, 76, 121
2, 172800, Note_on_c, 0, 82, 121
2, 172800, Note_on_c, 0, 85, 121
2, 172800, Note_on_c, 0, 73, 95
2, 172800, Note_on_c, 0, 55, 111
2, 172800, Note_on_c, 0, 64, 111
2, 172800, Note_on_c, 0, 67, 111
2, 172980, Note_on_c, 0, 67, 0
2, 172980, Note_on_c, 0, 55, 0
2, 172980, Note_on_c, 0, 73, 0
2, 172980, Note_on_c, 0, 64, 0
2, 172980, Note_on_c, 0, 73, 80
2, 172980, Note_on_c, 0, 55, 106
2, 172980, Note_on_c, 0, 64, 106
2, 172980, Note_on_c, 0, 67, 106
2, 173160, Note_on_c, 0, 67, 0
2, 173160, Note_on_c, 0, 55, 0
2, 173160, Note_on_c, 0, 85, 0
2, 173160, Note_on_c, 0, 76, 0
2, 173160, Note_on_c, 0, 82, 0
2, 173160, Note_on_c, 0, 64, 0
2, 173160, Note_on_c, 0, 73, 0
2, 173160, Note_on_c, 0, 78, 113
2, 173160, Note_on_c, 0, 81, 113
2, 173160, Note_on_c, 0, 86, 113
2, 173160, Note_on_c, 0, 90, 113
2, 173160, Note_on_c, 0, 62, 115
2, 173160, Note_on_c, 0, 66, 115
2, 173160, Note_on_c, 0, 69, 115
2, 173160, Note_on_c, 0, 74, 115
2, 173340, Note_on_c, 0, 74, 0
2, 173340, Note_on_c, 0, 78, 0
2, 173340, Note_on_c, 0, 62, 0
2, 173340, Note_on_c, 0, 81, 0
2, 173340, Note_on_c, 0, 86, 0
2, 173340, Note_on_c, 0, 90, 0
2, 173340, Note_on_c, 0, 66, 0
2, 173340, Note_on_c, 0, 69, 0
2, 173340, Note_on_c, 0, 78, 98
2, 173340, Note_on_c, 0, 81, 98
2, 173340, Note_on_c, 0, 86, 98
2, 173340, Note_on_c, 0, 90, 98
2, 173340, Note_on_c, 0, 62, 96
2, 173340, Note_on_c, 0, 66, 96
2, 173340, Note_on_c, 0, 69, 96
2, 173340, Note_on_c, 0, 74, 96
2, 173520, Note_on_c, 0, 74, 0
2, 173520, Note_on_c, 0, 78, 0
2, 173520, Note_on_c, 0, 62, 0
2, 173520, Note_on_c, 0, 81, 0
2, 173520, Note_on_c, 0, 86, 0
2, 173520, Note_on_c, 0, 90, 0
2, 173520, Note_on_c, 0, 66, 0
2, 173520, Note_on_c, 0, 69, 0
2, 173520, Note_on_c, 0, 85, 87
2, 173520, Note_on_c, 0, 88, 87
2, 173520, Note_on_c, 0, 94, 87
2, 173520, Note_on_c, 0, 97, 87
2, 173520, Note_on_c, 0, 67, 107
2, 173520, Note_on_c, 0, 73, 107
2, 173520, Note_on_c, 0, 76, 107
2, 173520, Note_on_c, 0, 79, 107
2, 173700, Note_on_c, 0, 79, 0
2, 173700, Note_on_c, 0, 85, 0
2, 173700, Note_on_c, 0, 67, 0
2, 173700, Note_on_c, 0, 88, 0
2, 173700, Note_on_c, 0, 94, 0
2, 173700, Note_on_c, 0, 97, 0
2, 173700, Note_on_c, 0, 73, 0
2, 173700, Note_on_c, 0, 76, 0
2, 173700, Note_on_c, 0, 85, 93
2, 173700, Note_on_c, 0, 88, 93
2, 173700, Note_on_c, 0, 94, 93
2, 173700, Note_on_c, 0, 97, 93
2, 173700, Note_on_c, 0, 67, 102
2, 173700, Note_on_c, 0, 73, 102
2, 173700, Note_on_c, 0, 76, 102
2, 173700, Note_on_c, 0, 79, 102
2, 173880, Note_on_c, 0, 79, 0
2, 173880, Note_on_c, 0, 85, 0
2, 173880, Note_on_c, 0, 67, 0
2, 173880, Note_on_c, 0, 88, 0
2, 173880, Note_on_c, 0, 94, 0
2, 173880, Note_on_c, 0, 97, 0
2, 173880, Note_on_c, 0, 73, 0
2, 173880, Note_on_c, 0, 76, 0
2, 173880, Note_on_c, 0, 90, 106
2, 173880, Note_on_c, 0, 93, 106
2, 173880, Note_on_c, 0, 98, 106
2, 173880, Note_on_c, 0, 102, 106
2, 173880, Note_on_c, 0, 74, 109
2, 173880, Note_on_c, 0, 78, 109
2, 173880, Note_on_c, 0, 81, 109
2, 173880, Note_on_c, 0, 86, 109
2, 174060, Note_on_c, 0, 86, 0
2, 174060, Note_on_c, 0, 90, 0
2, 174060, Note_on_c, 0, 74, 0
2, 174060, Note_on_c, 0, 93, 0
2, 174060, Note_on_c, 0, 98, 0
2, 174060, Note_on_c, 0, 102, 0
2, 174060, Note_on_c, 0, 78, 0
2, 174060, Note_on_c, 0, 81, 0
2, 174420, Note_on_c, 0, 79, 92
2, 174420, Note_on_c, 0, 83, 92
2, 174420, Note_on_c, 0, 67, 90
2, 174420, Note_on_c, 0, 71, 90
2, 174510, Note_on_c, 0, 71, 0
2, 174510, Note_on_c, 0, 79, 0
2, 174510, Note_on_c, 0, 83, 0
2, 174510, Note_on_c, 0, 67, 0
2, 174510, Note_on_c, 0, 81, 101
2, 174510, Note_on_c, 0, 84, 101
2, 174510, Note_on_c, 0, 69, 104
2, 174510, Note_on_c, 0, 72, 104
2, 174600, Note_on_c, 0, 72, 0
2, 174600, Note_on_c, 0, 81, 0
2, 174600, Note_on_c, 0, 84, 0
2, 174600, Note_on_c, 0, 69, 0
2, 174600, Note_on_c, 0, 83, 101
2, 174600, Note_on_c, 0, 86, 101
2, 174600, Note_on_c, 0, 71, 100
2, 174600, Note_on_c, 0, 74, 100
2, 174690, Note_on_c, 0, 74, 0
2, 174690, Note_on_c, 0, 83, 0
2, 174690, Note_on_c, 0, 86, 0
2, 174690, Note_on_c, 0, 71, 0
2, 174690, Note_on_c, 0, 84, 106
2, 174690, Note_on_c, 0, 88, 106
2, 174690, Note_on_c, 0, 72, 104
2, 174690, Note_on_c, 0, 76, 104
2, 174780, Note_on_c, 0, 76, 0
2, 174780, Note_on_c, 0, 84, 0
2, 174780, Note_on_c, 0, 88, 0
2, 174780, Note_on_c, 0, 72, 0
2, 174780, Note_on_c, 0, 83, 91
2, 174780, Note_on_c, 0, 86, 91
2, 174780, Note_on_c, 0, 71, 91
2, 174780, Note_on_c, 0, 74, 91
2, 174870, Note_on_c, 0, 74, 0
2, 174870, Note_on_c, 0, 83, 0
2, 174870, Note_on_c, 0, 86, 0
2, 174870, Note_on_c, 0, 71, 0
2, 174870, Note_on_c, 0, 81, 92
2, 174870, Note_on_c, 0, 84, 92
2, 174870, Note_on_c, 0, 69, 89
2, 174870, Note_on_c, 0, 72, 89
2, 174960, Note_on_c, 0, 72, 0
2, 174960, Note_on_c, 0, 81, 0
2, 174960, Note_on_c, 0, 84, 0
2, 174960, Note_on_c, 0, 69, 0
2, 174960, Note_on_c, 0, 79, 89
2, 174960, Note_on_c, 0, 83, 89
2, 174960, Note_on_c, 0, 67, 95
2, 174960, Note_on_c, 0, 71, 95
2, 175140, Note_on_c, 0, 71, 0
2, 175140, Note_on_c, 0, 79, 0
2, 175140, Note_on_c, 0, 83, 0
2, 175140, Note_on_c, 0, 67, 0
2, 175140, Note_on_c, 0, 78, 95
2, 175140, Note_on_c, 0, 81, 95
2, 175140, Note_on_c, 0, 66, 95
2, 175140, Note_on_c, 0, 69, 95
2, 175320, Note_on_c, 0, 69, 0
2, 175320, Note_on_c, 0, 78, 0
2, 175320, Note_on_c, 0, 81, 0
2, 175320, Note_on_c, 0, 66, 0
2, 175320, Note_on_c, 0, 76, 88
2, 175320, Note_on_c, 0, 79, 88
2, 175320, Note_on_c, 0, 64, 89
2, 175320, Note_on_c, 0, 67, 89
2, 175410, Note_on_c, 0, 67, 0
2, 175410, Note_on_c, 0, 76, 0
2, 175410, Note_on_c, 0, 79, 0
2, 175410, Note_on_c, 0, 64, 0
2, 175410, Note_on_c, 0, 78, 104
2, 175410, Note_on_c, 0, 81, 104
2, 175410, Note_on_c, 0, 66, 100
2, 175410, Note_on_c, 0, 69, 100
2, 175500, Note_on_c, 0, 69, 0
2, 175500, Note_on_c, 0, 78, 0
2, 175500, Note_on_c, 0, 81, 0
2, 175500, Note_on_c, 0, 66, 0
2, 175500, Note_on_c, 0, 79, 102
2, 175500, Note_on_c, 0, 83, 102
2, 175500, Note_on_c, 0, 67, 106
2, 175500, Note_on_c, 0, 71, 106
2, 175860, Note_on_c, 0, 71, 0
2, 175860, Note_on_c, 0, 79, 0
2, 175860, Note_on_c, 0, 83, 0
2, 175860, Note_on_c, 0, 67, 0
2, 175860, Note_on_c, 0, 79, 102
2, 175860, Note_on_c, 0, 83, 102
2, 175860, Note_on_c, 0, 67, 94
2, 175860, Note_on_c, 0, 71, 94
2, 175950, Note_on_c, 0, 71, 0
2, 175950, Note_on_c, 0, 79, 0
2, 175950, Note_on_c, 0, 83, 0
2, 175950, Note_on_c, 0, 67, 0
2, 175950, Note_on_c, 0, 81, 104
2, 175950, Note_on_c, 0, 84, 104
2, 175950, Note_on_c, 0, 69, 100
2, 175950, Note_on_c, 0, 72, 100
2, 176040, Note_on_c, 0, 72, 0
2, 176040, Note_on_c, 0, 81, 0
2, 176040, Note_on_c, 0, 84, 0
2, 176040, Note_on_c, 0, 69, 0
2, 176040, Note_on_c, 0, 83, 103
2, 176040, Note_on_c, 0, 86, 103
2, 176040, Note_on_c, 0, 71, 104
2, 176040, Note_on_c, 0, 74, 104
2, 176130, Note_on_c, 0, 74, 0
2, 176130, Note_on_c, 0, 83, 0
2, 176130, Note_on_c, 0, 86, 0
2, 176130, Note_on_c, 0, 71, 0
2, 176130, Note_on_c, 0, 84, 105
2, 176130, Note_on_c, 0, 88, 105
2, 176130, Note_on_c, 0, 72, 104
2, 176130, Note_on_c, 0, 76, 104
2, 176220, Note_on_c, 0, 76, 0
2, 176220, Note_on_c, 0, 84, 0
2, 176220, Note_on_c, 0, 88, 0
2, 176220, Note_on_c, 0, 72, 0
2, 176220, Note_on_c, 0, 83, 94
2, 176220, Note_on_c, 0, 86, 94
2, 176220, Note_on_c, 0, 71, 95
2, 176220, Note_on_c, 0, 74, 95
2, 176310, Note_on_c, 0, 74, 0
2, 176310, Note_on_c, 0, 83, 0
2, 176310, Note_on_c, 0, 86, 0
2, 176310, Note_on_c, 0, 71, 0
2, 176310, Note_on_c, 0, 81, 86
2, 176310, Note_on_c, 0, 84, 86
2, 176310, Note_on_c, 0, 69, 93
2, 176310, Note_on_c, 0, 72, 93
2, 176400, Note_on_c, 0, 72, 0
2, 176400, Note_on_c, 0, 81, 0
2, 176400, Note_on_c, 0, 84, 0
2, 176400, Note_on_c, 0, 69, 0
2, 176400, Note_on_c, 0, 79, 94
2, 176400, Note_on_c, 0, 83, 94
2, 176400, Note_on_c, 0, 67, 89
2, 176400, Note_on_c, 0, 71, 89
2, 176580, Note_on_c, 0, 71, 0
2, 176580, Note_on_c, 0, 79, 0
2, 176580, Note_on_c, 0, 83, 0
2, 176580, Note_on_c, 0, 67, 0
2, 176580, Note_on_c, 0, 78, 95
2, 176580, Note_on_c, 0, 81, 95
2, 176580, Note_on_c, 0, 66, 88
2, 176580, Note_on_c, 0, 69, 88
2, 176760, Note_on_c, 0, 69, 0
2, 176760, Note_on_c, 0, 78, 0
2, 176760, Note_on_c, 0, 81, 0
2, 176760, Note_on_c, 0, 66, 0
2, 176760, Note_on_c, 0, 67, 87
2, 176760, Note_on_c, 0, 71, 87
2, 176760, Note_on_c, 0, 76, 87
2, 176760, Note_on_c, 0, 52, 82
2, 176760, Note_on_c, 0, 59, 82
2, 176760, Note_on_c, 0, 64, 82
2, 176940, Note_on_c, 0, 64, 0
2, 176940, Note_on_c, 0, 71, 0
2, 176940, Note_on_c, 0, 76, 0
2, 176940, Note_on_c, 0, 67, 0
2, 176940, Note_on_c, 0, 59, 0
2, 176940, Note_on_c, 0, 52, 0
2, 176940, Note_on_c, 0, 66, 98
2, 176940, Note_on_c, 0, 69, 98
2, 176940, Note_on_c, 0, 76, 98
2, 176940, Note_on_c, 0, 52, 95
2, 176940, Note_on_c, 0, 60, 95
2, 176940, Note_on_c, 0, 64, 95
2, 177120, Note_on_c, 0, 64, 0
2, 177120, Note_on_c, 0, 69, 0
2, 177120, Note_on_c, 0, 76, 0
2, 177120, Note_on_c, 0, 66, 0
2, 177120, Note_on_c, 0, 60, 0
2, 177120, Note_on_c, 0, 52, 0
2, 177120, Note_on_c, 0, 67, 97
2, 177120, Note_on_c, 0, 71, 97
2, 177120, Note_on_c, 0, 76, 97
2, 177120, Note_on_c, 0, 52, 98
2, 177120, Note_on_c, 0, 59, 98
2, 177120, Note_on_c, 0, 64, 98
2, 177300, Note_on_c, 0, 64, 0
2, 177300, Note_on_c, 0, 71, 0
2, 177300, Note_on_c, 0, 76, 0
2, 177300, Note_on_c, 0, 67, 0
2, 177300, Note_on_c, 0, 59, 0
2, 177300, Note_on_c, 0, 52, 0
2, 177300, Note_on_c, 0, 79, 113
2, 177300, Note_on_c, 0, 83, 113
2, 177300, Note_on_c, 0, 67, 112
2, 177300, Note_on_c, 0, 71, 112
2, 177390, Note_on_c, 0, 71, 0
2, 177390, Note_on_c, 0, 79, 0
2, 177390, Note_on_c, 0, 83, 0
2, 177390, Note_on_c, 0, 67, 0
2, 177390, Note_on_c, 0, 81, 106
2, 177390, Note_on_c, 0, 84, 106
2, 177390, Note_on_c, 0, 69, 108
2, 177390, Note_on_c, 0, 72, 108
2, 177480, Note_on_c, 0, 72, 0
2, 177480, Note_on_c, 0, 81, 0
2, 177480, Note_on_c, 0, 84, 0
2, 177480, Note_on_c, 0, 69, 0
2, 177480, Note_on_c, 0, 83, 106
2, 177480, Note_on_c, 0, 86, 106
2, 177480, Note_on_c, 0, 71, 107
2, 177480, Note_on_c, 0, 74, 107
2, 177570, Note_on_c, 0, 74, 0
2, 177570, Note_on_c, 0, 83, 0
2, 177570, Note_on_c, 0, 86, 0
2, 177570, Note_on_c, 0, 71, 0
2, 177570, Note_on_c, 0, 84, 105
2, 177570, Note_on_c, 0, 88, 105
2, 177570, Note_on_c, 0, 72, 103
2, 177570, Note_on_c, 0, 76, 103
2, 177660, Note_on_c, 0, 76, 0
2, 177660, Note_on_c, 0, 84, 0
2, 177660, Note_on_c, 0, 88, 0
2, 177660, Note_on_c, 0, 72, 0
2, 177660, Note_on_c, 0, 83, 93
2, 177660, Note_on_c, 0, 86, 93
2, 177660, Note_on_c, 0, 71, 90
2, 177660, Note_on_c, 0, 74, 90
2, 177750, Note_on_c, 0, 74, 0
2, 177750, Note_on_c, 0, 83, 0
2, 177750, Note_on_c, 0, 86, 0
2, 177750, Note_on_c, 0, 71, 0
2, 177750, Note_on_c, 0, 81, 86
2, 177750, Note_on_c, 0, 84, 86
2, 177750, Note_on_c, 0, 69, 89
2, 177750, Note_on_c, 0, 72, 89
2, 177840, Note_on_c, 0, 72, 0
2, 177840, Note_on_c, 0, 81, 0
2, 177840, Note_on_c, 0, 84, 0
2, 177840, Note_on_c, 0, 69, 0
2, 177840, Note_on_c, 0, 79, 90
2, 177840, Note_on_c, 0, 83, 90
2, 177840, Note_on_c, 0, 67, 90
2, 177840, Note_on_c, 0, 71, 90
2, 178020, Note_on_c, 0, 71, 0
2, 178020, Note_on_c, 0, 79, 0
2, 178020, Note_on_c, 0, 83, 0
2, 178020, Note_on_c, 0, 67, 0
2, 178020, Note_on_c, 0, 78, 90
2, 178020, Note_on_c, 0, 81, 90
2, 178020, Note_on_c, 0, 66, 91
2, 178020, Note_on_c, 0, 69, 91
2, 178200, Note_on_c, 0, 69, 0
2, 178200, Note_on_c, 0, 78, 0
2, 178200, Note_on_c, 0, 81, 0
2, 178200, Note_on_c, 0, 66, 0
2, 178200, Note_on_c, 0, 76, 88
2, 178200, Note_on_c, 0, 79, 88
2, 178200, Note_on_c, 0, 64, 89
2, 178200, Note_on_c, 0, 67, 89
2, 178290, Note_on_c, 0, 67, 0
2, 178290, Note_on_c, 0, 76, 0
2, 178290, Note_on_c, 0, 79, 0
2, 178290, Note_on_c, 0, 64, 0
2, 178290, Note_on_c, 0, 78, 97
2, 178290, Note_on_c, 0, 81, 97
2, 178290, Note_on_c, 0, 66, 102
2, 178290, Note_on_c, 0, 69, 102
2, 178380, Note_on_c, 0, 69, 0
2, 178380, Note_on_c, 0, 78, 0
2, 178380, Note_on_c, 0, 81, 0
2, 178380, Note_on_c, 0, 66, 0
2, 178380, Note_on_c, 0, 79, 98
2, 178380, Note_on_c, 0, 83, 98
2, 178380, Note_on_c, 0, 67, 108
2, 178380, Note_on_c, 0, 71, 108
2, 178740, Note_on_c, 0, 71, 0
2, 178740, Note_on_c, 0, 79, 0
2, 178740, Note_on_c, 0, 83, 0
2, 178740, Note_on_c, 0, 67, 0
2, 178740, Note_on_c, 0, 79, 98
2, 178740, Note_on_c, 0, 83, 98
2, 178740, Note_on_c, 0, 67, 98
2, 178740, Note_on_c, 0, 71, 98
2, 178830, Note_on_c, 0, 71, 0
2, 178830, Note_on_c, 0, 79, 0
2, 178830, Note_on_c, 0, 83, 0
2, 178830, Note_on_c, 0, 67, 0
2, 178830, Note_on_c, 0, 81, 105
2, 178830, Note_on_c, 0, 84, 105
2, 178830, Note_on_c, 0, 69, 96
2, 178830, Note_on_c, 0, 72, 96
2, 178920, Note_on_c, 0, 72, 0
2, 178920, Note_on_c, 0, 81, 0
2, 178920, Note_on_c, 0, 84, 0
2, 178920, Note_on_c, 0, 69, 0
2, 178920, Note_on_c, 0, 83, 103
2, 178920, Note_on_c, 0, 86, 103
2, 178920, Note_on_c, 0, 71, 108
2, 178920, Note_on_c, 0, 74, 108
2, 179010, Note_on_c, 0, 74, 0
2, 179010, Note_on_c, 0, 83, 0
2, 179010, Note_on_c, 0, 86, 0
2, 179010, Note_on_c, 0, 71, 0
2, 179010, Note_on_c, 0, 84, 108
2, 179010, Note_on_c, 0, 88, 108
2, 179010, Note_on_c, 0, 72, 104
2, 179010, Note_on_c, 0, 76, 104
2, 179100, Note_on_c, 0, 76, 0
2, 179100, Note_on_c, 0, 84, 0
2, 179100, Note_on_c, 0, 88, 0
2, 179100, Note_on_c, 0, 72, 0
2, 179100, Note_on_c, 0, 83, 96
2, 179100, Note_on_c, 0, 86, 96
2, 179100, Note_on_c, 0, 71, 91
2, 179100, Note_on_c, 0, 74, 91
2, 179190, Note_on_c, 0, 74, 0
2, 179190, Note_on_c, 0, 83, 0
2, 179190, Note_on_c, 0, 86, 0
2, 179190, Note_on_c, 0, 71, 0
2, 179190, Note_on_c, 0, 81, 91
2, 179190, Note_on_c, 0, 84, 91
2, 179190, Note_on_c, 0, 69, 89
2, 179190, Note_on_c, 0, 72, 89
2, 179280, Note_on_c, 0, 72, 0
2, 179280, Note_on_c, 0, 81, 0
2, 179280, Note_on_c, 0, 84, 0
2, 179280, Note_on_c, 0, 69, 0
2, 179280, Note_on_c, 0, 79, 90
2, 179280, Note_on_c, 0, 83, 90
2, 179280, Note_on_c, 0, 67, 93
2, 179280, Note_on_c, 0, 71, 93
2, 179460, Note_on_c, 0, 71, 0
2, 179460, Note_on_c, 0, 79, 0
2, 179460, Note_on_c, 0, 83, 0
2, 179460, Note_on_c, 0, 67, 0
2, 179460, Note_on_c, 0, 78, 94
2, 179460, Note_on_c, 0, 81, 94
2, 179460, Note_on_c, 0, 66, 93
2, 179460, Note_on_c, 0, 69, 93
2, 179640, Note_on_c, 0, 69, 0
2, 179640, Note_on_c, 0, 78, 0
2, 179640, Note_on_c, 0, 81, 0
2, 179640, Note_on_c, 0, 66, 0
2, 179640, Note_on_c, 0, 67, 87
2, 179640, Note_on_c, 0, 71, 87
2, 179640, Note_on_c, 0, 76, 87
2, 179640, Note_on_c, 0, 52, 83
2, 179640, Note_on_c, 0, 59, 83
2, 179640, Note_on_c, 0, 64, 83
2, 179820, Note_on_c, 0, 64, 0
2, 179820, Note_on_c, 0, 71, 0
2, 179820, Note_on_c, 0, 76, 0
2, 179820, Note_on_c, 0, 67, 0
2, 179820, Note_on_c, 0, 59, 0
2, 179820, Note_on_c, 0, 52, 0
2, 179820, Note_on_c, 0, 66, 95
2, 179820, Note_on_c, 0, 69, 95
2, 179820, Note_on_c, 0, 76, 95
2, 179820, Note_on_c, 0, 52, 94
2, 179820, Note_on_c, 0, 60, 94
2, 179820, Note_on_c, 0, 64, 94
2, 180000, Note_on_c, 0, 64, 0
2, 180000, Note_on_c, 0, 69, 0
2, 180000, Note_on_c, 0, 76, 0
2, 180000, Note_on_c, 0, 66, 0
2, 180000, Note_on_c, 0, 60, 0
2, 180000, Note_on_c, 0, 52, 0
2, 180000, Note_on_c, 0, 67, 100
2, 180000, Note_on_c, 0, 71, 100
2, 180000, Note_on_c, 0, 76, 100
2, 180000, Note_on_c, 0, 52, 96
2, 180000, Note_on_c, 0, 59, 96
2, 180000, Note_on_c, 0, 64, 96
2, 180180, Note_on_c, 0, 64, 0
2, 180180, Note_on_c, 0, 71, 0
2, 180180, Note_on_c, 0, 76, 0
2, 180180, Note_on_c, 0, 67, 0
2, 180180, Note_on_c, 0, 59, 0
2, 180180, Note_on_c, 0, 52, 0
2, 180180, Note_on_c, 0, 74, 103
2, 180180, Note_on_c, 0, 78, 103
2, 180180, Note_on_c, 0, 62, 105
2, 180180, Note_on_c, 0, 66, 105
2, 180270, Note_on_c, 0, 66, 0
2, 180270, Note_on_c, 0, 74, 0
2, 180270, Note_on_c, 0, 78, 0
2, 180270, Note_on_c, 0, 62, 0
2, 180270, Note_on_c, 0, 76, 101
2, 180270, Note_on_c, 0, 79, 101
2, 180270, Note_on_c, 0, 64, 105
2, 180270, Note_on_c, 0, 67, 105
2, 180360, Note_on_c, 0, 67, 0
2, 180360, Note_on_c, 0, 76, 0
2, 180360, Note_on_c, 0, 79, 0
2, 180360, Note_on_c, 0, 64, 0
2, 180360, Note_on_c, 0, 78, 107
2, 180360, Note_on_c, 0, 81, 107
2, 180360, Note_on_c, 0, 66, 101
2, 180360, Note_on_c, 0, 69, 101
2, 180450, Note_on_c, 0, 69, 0
2, 180450, Note_on_c, 0, 78, 0
2, 180450, Note_on_c, 0, 81, 0
2, 180450, Note_on_c, 0, 66, 0
2, 180450, Note_on_c, 0, 76, 90
2, 180450, Note_on_c, 0, 79, 90
2, 180450, Note_on_c, 0, 64, 89
2, 180450, Note_on_c, 0, 67, 89
2, 180540, Note_on_c, 0, 67, 0
2, 180540, Note_on_c, 0, 76, 0
2, 180540, Note_on_c, 0, 79, 0
2, 180540, Note_on_c, 0, 64, 0
2, 180540, Note_on_c, 0, 74, 93
2, 180540, Note_on_c, 0, 78, 93
2, 180540, Note_on_c, 0, 62, 92
2, 180540, Note_on_c, 0, 66, 92
2, 180630, Note_on_c, 0, 66, 0
2, 180630, Note_on_c, 0, 74, 0
2, 180630, Note_on_c, 0, 78, 0
2, 180630, Note_on_c, 0, 62, 0
2, 180630, Note_on_c, 0, 76, 99
2, 180630, Note_on_c, 0, 79, 99
2, 180630, Note_on_c, 0, 64, 103
2, 180630, Note_on_c, 0, 67, 103
2, 180720, Note_on_c, 0, 67, 0
2, 180720, Note_on_c, 0, 76, 0
2, 180720, Note_on_c, 0, 79, 0
2, 180720, Note_on_c, 0, 64, 0
2, 180720, Note_on_c, 0, 78, 103
2, 180720, Note_on_c, 0, 81, 103
2, 180720, Note_on_c, 0, 66, 100
2, 180720, Note_on_c, 0, 69, 100
2, 180900, Note_on_c, 0, 69, 0
2, 180900, Note_on_c, 0, 78, 0
2, 180900, Note_on_c, 0, 81, 0
2, 180900, Note_on_c, 0, 66, 0
2, 180900, Note_on_c, 0, 72, 100
2, 180900, Note_on_c, 0, 75, 100
2, 180900, Note_on_c, 0, 78, 100
2, 180900, Note_on_c, 0, 83, 100
2, 180900, Note_on_c, 0, 60, 100
2, 180900, Note_on_c, 0, 63, 100
2, 180900, Note_on_c, 0, 66, 100
2, 180900, Note_on_c, 0, 71, 100
2, 181080, Note_on_c, 0, 71, 0
2, 181080, Note_on_c, 0, 72, 0
2, 181080, Note_on_c, 0, 60, 0
2, 181080, Note_on_c, 0, 75, 0
2, 181080, Note_on_c, 0, 78, 0
2, 181080, Note_on_c, 0, 83, 0
2, 181080, Note_on_c, 0, 63, 0
2, 181080, Note_on_c, 0, 66, 0
2, 181080, Note_on_c, 0, 79, 89
2, 181080, Note_on_c, 0, 71, 77
2, 181080, Note_on_c, 0, 76, 77
2, 181080, Note_on_c, 0, 67, 89
2, 181080, Note_on_c, 0, 59, 97
2, 181080, Note_on_c, 0, 64, 97
2, 181170, Note_on_c, 0, 67, 0
2, 181170, Note_on_c, 0, 79, 0
2, 181170, Note_on_c, 0, 78, 92
2, 181170, Note_on_c, 0, 66, 90
2, 181260, Note_on_c, 0, 66, 0
2, 181260, Note_on_c, 0, 78, 0
2, 181260, Note_on_c, 0, 79, 102
2, 181260, Note_on_c, 0, 67, 98
2, 181620, Note_on_c, 0, 67, 0
2, 181620, Note_on_c, 0, 64, 0
2, 181620, Note_on_c, 0, 59, 0
2, 181620, Note_on_c, 0, 71, 0
2, 181620, Note_on_c, 0, 79, 0
2, 181620, Note_on_c, 0, 76, 0
2, 181620, Note_on_c, 0, 78, 94
2, 181620, Note_on_c, 0, 74, 70
2, 181620, Note_on_c, 0, 66, 93
2, 181620, Note_on_c, 0, 62, 72
2, 181710, Note_on_c, 0, 62, 0
2, 181710, Note_on_c, 0, 78, 0
2, 181710, Note_on_c, 0, 74, 0
2, 181710, Note_on_c, 0, 66, 0
2, 181710, Note_on_c, 0, 79, 99
2, 181710, Note_on_c, 0, 76, 79
2, 181710, Note_on_c, 0, 67, 99
2, 181710, Note_on_c, 0, 64, 80
2, 181800, Note_on_c, 0, 64, 0
2, 181800, Note_on_c, 0, 79, 0
2, 181800, Note_on_c, 0, 76, 0
2, 181800, Note_on_c, 0, 67, 0
2, 181800, Note_on_c, 0, 78, 104
2, 181800, Note_on_c, 0, 81, 104
2, 181800, Note_on_c, 0, 66, 104
2, 181800, Note_on_c, 0, 69, 104
2, 181890, Note_on_c, 0, 69, 0
2, 181890, Note_on_c, 0, 78, 0
2, 181890, Note_on_c, 0, 81, 0
2, 181890, Note_on_c, 0, 66, 0
2, 181890, Note_on_c, 0, 76, 90
2, 181890, Note_on_c, 0, 79, 90
2, 181890, Note_on_c, 0, 64, 87
2, 181890, Note_on_c, 0, 67, 87
2, 181980, Note_on_c, 0, 67, 0
2, 181980, Note_on_c, 0, 76, 0
2, 181980, Note_on_c, 0, 79, 0
2, 181980, Note_on_c, 0, 64, 0
2, 181980, Note_on_c, 0, 74, 94
2, 181980, Note_on_c, 0, 78, 94
2, 181980, Note_on_c, 0, 62, 93
2, 181980, Note_on_c, 0, 66, 93
2, 182070, Note_on_c, 0, 66, 0
2, 182070, Note_on_c, 0, 74, 0
2, 182070, Note_on_c, 0, 78, 0
2, 182070, Note_on_c, 0, 62, 0
2, 182070, Note_on_c, 0, 76, 102
2, 182070, Note_on_c, 0, 79, 102
2, 182070, Note_on_c, 0, 64, 103
2, 182070, Note_on_c, 0, 67, 103
2, 182160, Note_on_c, 0, 67, 0
2, 182160, Note_on_c, 0, 76, 0
2, 182160, Note_on_c, 0, 79, 0
2, 182160, Note_on_c, 0, 64, 0
2, 182160, Note_on_c, 0, 78, 103
2, 182160, Note_on_c, 0, 81, 103
2, 182160, Note_on_c, 0, 66, 101
2, 182160, Note_on_c, 0, 69, 101
2, 182340, Note_on_c, 0, 69, 0
2, 182340, Note_on_c, 0, 78, 0
2, 182340, Note_on_c, 0, 81, 0
2, 182340, Note_on_c, 0, 66, 0
2, 182340, Note_on_c, 0, 72, 103
2, 182340, Note_on_c, 0, 75, 103
2, 182340, Note_on_c, 0, 78, 103
2, 182340, Note_on_c, 0, 83, 103
2, 182340, Note_on_c, 0, 60, 101
2, 182340, Note_on_c, 0, 63, 101
2, 182340, Note_on_c, 0, 66, 101
2, 182340, Note_on_c, 0, 71, 101
2, 182520, Note_on_c, 0, 71, 0
2, 182520, Note_on_c, 0, 72, 0
2, 182520, Note_on_c, 0, 60, 0
2, 182520, Note_on_c, 0, 75, 0
2, 182520, Note_on_c, 0, 78, 0
2, 182520, Note_on_c, 0, 83, 0
2, 182520, Note_on_c, 0, 63, 0
2, 182520, Note_on_c, 0, 66, 0
2, 182520, Note_on_c, 0, 72, 82
2, 182520, Note_on_c, 0, 76, 82
2, 182520, Note_on_c, 0, 60, 81
2, 182520, Note_on_c, 0, 64, 81
2, 183060, Note_on_c, 0, 64, 0
2, 183060, Note_on_c, 0, 72, 0
2, 183060, Note_on_c, 0, 76, 0
2, 183060, Note_on_c, 0, 60, 0
2, 183060, Note_on_c, 0, 78, 119
2, 183060, Note_on_c, 0, 90, 119
2, 183060, Note_on_c, 0, 66, 102
2, 183150, Note_on_c, 0, 66, 0
2, 183150, Note_on_c, 0, 90, 0
2, 183150, Note_on_c, 0, 78, 0
2, 183150, Note_on_c, 0, 79, 107
2, 183150, Note_on_c, 0, 91, 107
2, 183150, Note_on_c, 0, 67, 97
2, 183240, Note_on_c, 0, 67, 0
2, 183240, Note_on_c, 0, 91, 0
2, 183240, Note_on_c, 0, 79, 0
2, 183240, Note_on_c, 0, 81, 111
2, 183240, Note_on_c, 0, 90, 111
2, 183240, Note_on_c, 0, 93, 111
2, 183240, Note_on_c, 0, 62, 108
2, 183240, Note_on_c, 0, 66, 108
2, 183240, Note_on_c, 0, 69, 108
2, 183330, Note_on_c, 0, 69, 0
2, 183330, Note_on_c, 0, 90, 0
2, 183330, Note_on_c, 0, 93, 0
2, 183330, Note_on_c, 0, 81, 0
2, 183330, Note_on_c, 0, 66, 0
2, 183330, Note_on_c, 0, 62, 0
2, 183330, Note_on_c, 0, 79, 95
2, 183330, Note_on_c, 0, 91, 95
2, 183330, Note_on_c, 0, 67, 90
2, 183420, Note_on_c, 0, 67, 0
2, 183420, Note_on_c, 0, 91, 0
2, 183420, Note_on_c, 0, 79, 0
2, 183420, Note_on_c, 0, 78, 86
2, 183420, Note_on_c, 0, 90, 86
2, 183420, Note_on_c, 0, 66, 93
2, 183510, Note_on_c, 0, 66, 0
2, 183510, Note_on_c, 0, 90, 0
2, 183510, Note_on_c, 0, 78, 0
2, 183510, Note_on_c, 0, 79, 99
2, 183510, Note_on_c, 0, 91, 99
2, 183510, Note_on_c, 0, 67, 99
2, 183600, Note_on_c, 0, 67, 0
2, 183600, Note_on_c, 0, 91, 0
2, 183600, Note_on_c, 0, 79, 0
2, 183600, Note_on_c, 0, 81, 108
2, 183600, Note_on_c, 0, 90, 108
2, 183600, Note_on_c, 0, 93, 108
2, 183600, Note_on_c, 0, 62, 103
2, 183600, Note_on_c, 0, 66, 103
2, 183600, Note_on_c, 0, 69, 103
2, 183780, Note_on_c, 0, 69, 0
2, 183780, Note_on_c, 0, 90, 0
2, 183780, Note_on_c, 0, 93, 0
2, 183780, Note_on_c, 0, 81, 0
2, 183780, Note_on_c, 0, 66, 0
2, 183780, Note_on_c, 0, 62, 0
2, 183780, Note_on_c, 0, 83, 106
2, 183780, Note_on_c, 0, 87, 106
2, 183780, Note_on_c, 0, 95, 106
2, 183780, Note_on_c, 0, 60, 103
2, 183780, Note_on_c, 0, 66, 103
2, 183780, Note_on_c, 0, 71, 103
2, 183960, Note_on_c, 0, 71, 0
2, 183960, Note_on_c, 0, 87, 0
2, 183960, Note_on_c, 0, 95, 0
2, 183960, Note_on_c, 0, 83, 0
2, 183960, Note_on_c, 0, 66, 0
2, 183960, Note_on_c, 0, 60, 0
2, 183960, Note_on_c, 0, 79, 86
2, 183960, Note_on_c, 0, 88, 86
2, 183960, Note_on_c, 0, 91, 86
2, 183960, Note_on_c, 0, 59, 90
2, 183960, Note_on_c, 0, 64, 90
2, 183960, Note_on_c, 0, 67, 90
2, 184050, Note_on_c, 0, 67, 0
2, 184050, Note_on_c, 0, 88, 0
2, 184050, Note_on_c, 0, 91, 0
2, 184050, Note_on_c, 0, 79, 0
2, 184050, Note_on_c, 0, 64, 0
2, 184050, Note_on_c, 0, 59, 0
2, 184050, Note_on_c, 0, 78, 91
2, 184050, Note_on_c, 0, 90, 91
2, 184050, Note_on_c, 0, 66, 92
2, 184140, Note_on_c, 0, 66, 0
2, 184140, Note_on_c, 0, 90, 0
2, 184140, Note_on_c, 0, 78, 0
2, 184140, Note_on_c, 0, 79, 101
2, 184140, Note_on_c, 0, 91, 101
2, 184140, Note_on_c, 0, 67, 96
2, 184500, Note_on_c, 0, 67, 0
2, 184500, Note_on_c, 0, 91, 0
2, 184500, Note_on_c, 0, 79, 0
2, 184500, Note_on_c, 0, 78, 92
2, 184500, Note_on_c, 0, 90, 92
2, 184500, Note_on_c, 0, 66, 94
2, 184590, Note_on_c, 0, 66, 0
2, 184590, Note_on_c, 0, 90, 0
2, 184590, Note_on_c, 0, 78, 0
2, 184590, Note_on_c, 0, 79, 102
2, 184590, Note_on_c, 0, 91, 102
2, 184590, Note_on_c, 0, 67, 100
2, 184680, Note_on_c, 0, 67, 0
2, 184680, Note_on_c, 0, 91, 0
2, 184680, Note_on_c, 0, 79, 0
2, 184680, Note_on_c, 0, 81, 74
2, 184680, Note_on_c, 0, 90, 74
2, 184680, Note_on_c, 0, 93, 74
2, 184680, Note_on_c, 0, 66, 105
2, 184680, Note_on_c, 0, 69, 105
2, 184770, Note_on_c, 0, 69, 0
2, 184770, Note_on_c, 0, 93, 0
2, 184770, Note_on_c, 0, 81, 0
2, 184770, Note_on_c, 0, 90, 0
2, 184770, Note_on_c, 0, 66, 0
2, 184770, Note_on_c, 0, 83, 97
2, 184770, Note_on_c, 0, 95, 97
2, 184770, Note_on_c, 0, 71, 102
2, 184860, Note_on_c, 0, 71, 0
2, 184860, Note_on_c, 0, 95, 0
2, 184860, Note_on_c, 0, 83, 0
2, 184860, Note_on_c, 0, 84, 106
2, 184860, Note_on_c, 0, 96, 106
2, 184860, Note_on_c, 0, 72, 109
2, 184950, Note_on_c, 0, 72, 0
2, 184950, Note_on_c, 0, 96, 0
2, 184950, Note_on_c, 0, 84, 0
2, 184950, Note_on_c, 0, 88, 108
2, 184950, Note_on_c, 0, 100, 108
2, 184950, Note_on_c, 0, 76, 111
2, 185040, Note_on_c, 0, 76, 0
2, 185040, Note_on_c, 0, 100, 0
2, 185040, Note_on_c, 0, 88, 0
2, 185040, Note_on_c, 0, 86, 93
2, 185040, Note_on_c, 0, 95, 93
2, 185040, Note_on_c, 0, 98, 93
2, 185040, Note_on_c, 0, 71, 91
2, 185040, Note_on_c, 0, 74, 91
2, 185220, Note_on_c, 0, 74, 0
2, 185220, Note_on_c, 0, 98, 0
2, 185220, Note_on_c, 0, 86, 0
2, 185220, Note_on_c, 0, 95, 0
2, 185220, Note_on_c, 0, 71, 0
2, 185220, Note_on_c, 0, 84, 92
2, 185220, Note_on_c, 0, 93, 92
2, 185220, Note_on_c, 0, 96, 92
2, 185220, Note_on_c, 0, 69, 94
2, 185220, Note_on_c, 0, 72, 94
2, 185400, Note_on_c, 0, 72, 0
2, 185400, Note_on_c, 0, 96, 0
2, 185400, Note_on_c, 0, 84, 0
2, 185400, Note_on_c, 0, 93, 0
2, 185400, Note_on_c, 0, 69, 0
2, 185400, Note_on_c, 0, 83, 94
2, 185400, Note_on_c, 0, 86, 94
2, 185400, Note_on_c, 0, 95, 94
2, 185400, Note_on_c, 0, 62, 95
2, 185400, Note_on_c, 0, 71, 95
2, 185940, Note_on_c, 0, 71, 0
2, 185940, Note_on_c, 0, 95, 0
2, 185940, Note_on_c, 0, 83, 0
2, 185940, Note_on_c, 0, 86, 0
2, 185940, Note_on_c, 0, 62, 0
2, 185940, Note_on_c, 0, 79, 98
2, 185940, Note_on_c, 0, 83, 98
2, 185940, Note_on_c, 0, 67, 94
2, 185940, Note_on_c, 0, 71, 94
2, 186030, Note_on_c, 0, 71, 0
2, 186030, Note_on_c, 0, 79, 0
2, 186030, Note_on_c, 0, 83, 0
2, 186030, Note_on_c, 0, 67, 0
2, 186030, Note_on_c, 0, 81, 104
2, 186030, Note_on_c, 0, 84, 104
2, 186030, Note_on_c, 0, 69, 100
2, 186030, Note_on_c, 0, 72, 100
2, 186120, Note_on_c, 0, 72, 0
2, 186120, Note_on_c, 0, 81, 0
2, 186120, Note_on_c, 0, 84, 0
2, 186120, Note_on_c, 0, 69, 0
2, 186120, Note_on_c, 0, 83, 108
2, 186120, Note_on_c, 0, 86, 108
2, 186120, Note_on_c, 0, 71, 104
2, 186120, Note_on_c, 0, 74, 104
2, 186210, Note_on_c, 0, 74, 0
2, 186210, Note_on_c, 0, 83, 0
2, 186210, Note_on_c, 0, 86, 0
2, 186210, Note_on_c, 0, 71, 0
2, 186210, Note_on_c, 0, 84, 107
2, 186210, Note_on_c, 0, 88, 107
2, 186210, Note_on_c, 0, 72, 102
2, 186210, Note_on_c, 0, 76, 102
2, 186300, Note_on_c, 0, 76, 0
2, 186300, Note_on_c, 0, 84, 0
2, 186300, Note_on_c, 0, 88, 0
2, 186300, Note_on_c, 0, 72, 0
2, 186300, Note_on_c, 0, 83, 91
2, 186300, Note_on_c, 0, 86, 91
2, 186300, Note_on_c, 0, 71, 94
2, 186300, Note_on_c, 0, 74, 94
2, 186390, Note_on_c, 0, 74, 0
2, 186390, Note_on_c, 0, 83, 0
2, 186390, Note_on_c, 0, 86, 0
2, 186390, Note_on_c, 0, 71, 0
2, 186390, Note_on_c, 0, 81, 89
2, 186390, Note_on_c, 0, 84, 89
2, 186390, Note_on_c, 0, 69, 90
2, 186390, Note_on_c, 0, 72, 90
2, 186480, Note_on_c, 0, 72, 0
2, 186480, Note_on_c, 0, 81, 0
2, 186480, Note_on_c, 0, 84, 0
2, 186480, Note_on_c, 0, 69, 0
2, 186480, Note_on_c, 0, 79, 91
2, 186480, Note_on_c, 0, 83, 91
2, 186480, Note_on_c, 0, 67, 91
2, 186480, Note_on_c, 0, 71, 91
2, 186660, Note_on_c, 0, 71, 0
2, 186660, Note_on_c, 0, 79, 0
2, 186660, Note_on_c, 0, 83, 0
2, 186660, Note_on_c, 0, 67, 0
2, 186660, Note_on_c, 0, 78, 95
2, 186660, Note_on_c, 0, 81, 95
2, 186660, Note_on_c, 0, 66, 91
2, 186660, Note_on_c, 0, 69, 91
2, 186840, Note_on_c, 0, 69, 0
2, 186840, Note_on_c, 0, 78, 0
2, 186840, Note_on_c, 0, 81, 0
2, 186840, Note_on_c, 0, 66, 0
2, 186840, Note_on_c, 0, 76, 94
2, 186840, Note_on_c, 0, 79, 94
2, 186840, Note_on_c, 0, 64, 92
2, 186840, Note_on_c, 0, 67, 92
2, 186930, Note_on_c, 0, 67, 0
2, 186930, Note_on_c, 0, 76, 0
2, 186930, Note_on_c, 0, 79, 0
2, 186930, Note_on_c, 0, 64, 0
2, 186930, Note_on_c, 0, 78, 109
2, 186930, Note_on_c, 0, 81, 109
2, 186930, Note_on_c, 0, 66, 104
2, 186930, Note_on_c, 0, 69, 104
2, 187020, Note_on_c, 0, 69, 0
2, 187020, Note_on_c, 0, 78, 0
2, 187020, Note_on_c, 0, 81, 0
2, 187020, Note_on_c, 0, 66, 0
2, 187020, Note_on_c, 0, 79, 102
2, 187020, Note_on_c, 0, 83, 102
2, 187020, Note_on_c, 0, 67, 100
2, 187020, Note_on_c, 0, 71, 100
2, 187380, Note_on_c, 0, 71, 0
2, 187380, Note_on_c, 0, 79, 0
2, 187380, Note_on_c, 0, 83, 0
2, 187380, Note_on_c, 0, 67, 0
2, 187380, Note_on_c, 0, 79, 97
2, 187380, Note_on_c, 0, 83, 97
2, 187380, Note_on_c, 0, 67, 97
2, 187380, Note_on_c, 0, 71, 97
2, 187470, Note_on_c, 0, 71, 0
2, 187470, Note_on_c, 0, 79, 0
2, 187470, Note_on_c, 0, 83, 0
2, 187470, Note_on_c, 0, 67, 0
2, 187470, Note_on_c, 0, 81, 100
2, 187470, Note_on_c, 0, 84, 100
2, 187470, Note_on_c, 0, 69, 100
2, 187470, Note_on_c, 0, 72, 100
2, 187560, Note_on_c, 0, 72, 0
2, 187560, Note_on_c, 0, 81, 0
2, 187560, Note_on_c, 0, 84, 0
2, 187560, Note_on_c, 0, 69, 0
2, 187560, Note_on_c, 0, 83, 107
2, 187560, Note_on_c, 0, 86, 107
2, 187560, Note_on_c, 0, 71, 105
2, 187560, Note_on_c, 0, 74, 105
2, 187650, Note_on_c, 0, 74, 0
2, 187650, Note_on_c, 0, 83, 0
2, 187650, Note_on_c, 0, 86, 0
2, 187650, Note_on_c, 0, 71, 0
2, 187650, Note_on_c, 0, 84, 100
2, 187650, Note_on_c, 0, 88, 100
2, 187650, Note_on_c, 0, 72, 104
2, 187650, Note_on_c, 0, 76, 104
2, 187740, Note_on_c, 0, 76, 0
2, 187740, Note_on_c, 0, 84, 0
2, 187740, Note_on_c, 0, 88, 0
2, 187740, Note_on_c, 0, 72, 0
2, 187740, Note_on_c, 0, 83, 92
2, 187740, Note_on_c, 0, 86, 92
2, 187740, Note_on_c, 0, 71, 91
2, 187740, Note_on_c, 0, 74, 91
2, 187830, Note_on_c, 0, 74, 0
2, 187830, Note_on_c, 0, 83, 0
2, 187830, Note_on_c, 0, 86, 0
2, 187830, Note_on_c, 0, 71, 0
2, 187830, Note_on_c, 0, 81, 91
2, 187830, Note_on_c, 0, 84, 91
2, 187830, Note_on_c, 0, 69, 93
2, 187830, Note_on_c, 0, 72, 93
2, 187920, Note_on_c, 0, 72, 0
2, 187920, Note_on_c, 0, 81, 0
2, 187920, Note_on_c, 0, 84, 0
2, 187920, Note_on_c, 0, 69, 0
2, 187920, Note_on_c, 0, 79, 89
2, 187920, Note_on_c, 0, 83, 89
2, 187920, Note_on_c, 0, 67, 90
2, 187920, Note_on_c, 0, 71, 90
2, 188100, Note_on_c, 0, 71, 0
2, 188100, Note_on_c, 0, 79, 0
2, 188100, Note_on_c, 0, 83, 0
2, 188100, Note_on_c, 0, 67, 0
2, 188100, Note_on_c, 0, 78, 93
2, 188100, Note_on_c, 0, 81, 93
2, 188100, Note_on_c, 0, 66, 86
2, 188100, Note_on_c, 0, 69, 86
2, 188280, Note_on_c, 0, 69, 0
2, 188280, Note_on_c, 0, 78, 0
2, 188280, Note_on_c, 0, 81, 0
2, 188280, Note_on_c, 0, 66, 0
2, 188280, Note_on_c, 0, 67, 85
2, 188280, Note_on_c, 0, 71, 85
2, 188280, Note_on_c, 0, 76, 85
2, 188280, Note_on_c, 0, 52, 77
2, 188280, Note_on_c, 0, 59, 77
2, 188280, Note_on_c, 0, 64, 77
2, 188460, Note_on_c, 0, 64, 0
2, 188460, Note_on_c, 0, 71, 0
2, 188460, Note_on_c, 0, 76, 0
2, 188460, Note_on_c, 0, 67, 0
2, 188460, Note_on_c, 0, 59, 0
2, 188460, Note_on_c, 0, 52, 0
2, 188460, Note_on_c, 0, 66, 96
2, 188460, Note_on_c, 0, 69, 96
2, 188460, Note_on_c, 0, 76, 96
2, 188460, Note_on_c, 0, 52, 91
2, 188460, Note_on_c, 0, 60, 91
2, 188460, Note_on_c, 0, 64, 91
2, 188640, Note_on_c, 0, 64, 0
2, 188640, Note_on_c, 0, 69, 0
2, 188640, Note_on_c, 0, 76, 0
2, 188640, Note_on_c, 0, 66, 0
2, 188640, Note_on_c, 0, 60, 0
2, 188640, Note_on_c, 0, 52, 0
2, 188640, Note_on_c, 0, 76, 125
2, 188640, Note_on_c, 0, 79, 125
2, 188640, Note_on_c, 0, 83, 125
2, 188640, Note_on_c, 0, 88, 125
2, 188640, Note_on_c, 0, 52, 102
2, 188640, Note_on_c, 0, 55, 102
2, 188640, Note_on_c, 0, 59, 102
2, 188640, Note_on_c, 0, 64, 102
2, 188820, Note_on_c, 0, 64, 0
2, 188820, Note_on_c, 0, 76, 0
2, 188820, Note_on_c, 0, 52, 0
2, 188820, Note_on_c, 0, 79, 0
2, 188820, Note_on_c, 0, 83, 0
2, 188820, Note_on_c, 0, 88, 0
2, 188820, Note_on_c, 0, 55, 0
2, 188820, Note_on_c, 0, 59, 0
2, 188820, Note_on_c, 0, 79, 87
2, 188820, Note_on_c, 0, 83, 87
2, 188820, Note_on_c, 0, 67, 120
2, 188820, Note_on_c, 0, 71, 120
2, 188910, Note_on_c, 0, 71, 0
2, 188910, Note_on_c, 0, 79, 0
2, 188910, Note_on_c, 0, 83, 0
2, 188910, Note_on_c, 0, 67, 0
2, 188910, Note_on_c, 0, 81, 100
2, 188910, Note_on_c, 0, 84, 100
2, 188910, Note_on_c, 0, 69, 104
2, 188910, Note_on_c, 0, 72, 104
2, 189000, Note_on_c, 0, 72, 0
2, 189000, Note_on_c, 0, 81, 0
2, 189000, Note_on_c, 0, 84, 0
2, 189000, Note_on_c, 0, 69, 0
2, 189000, Note_on_c, 0, 83, 98
2, 189000, Note_on_c, 0, 86, 98
2, 189000, Note_on_c, 0, 71, 105
2, 189000, Note_on_c, 0, 74, 105
2, 189090, Note_on_c, 0, 74, 0
2, 189090, Note_on_c, 0, 83, 0
2, 189090, Note_on_c, 0, 86, 0
2, 189090, Note_on_c, 0, 71, 0
2, 189090, Note_on_c, 0, 84, 105
2, 189090, Note_on_c, 0, 88, 105
2, 189090, Note_on_c, 0, 72, 103
2, 189090, Note_on_c, 0, 76, 103
2, 189180, Note_on_c, 0, 76, 0
2, 189180, Note_on_c, 0, 84, 0
2, 189180, Note_on_c, 0, 88, 0
2, 189180, Note_on_c, 0, 72, 0
2, 189180, Note_on_c, 0, 83, 92
2, 189180, Note_on_c, 0, 86, 92
2, 189180, Note_on_c, 0, 71, 92
2, 189180, Note_on_c, 0, 74, 92
2, 189270, Note_on_c, 0, 74, 0
2, 189270, Note_on_c, 0, 83, 0
2, 189270, Note_on_c, 0, 86, 0
2, 189270, Note_on_c, 0, 71, 0
2, 189270, Note_on_c, 0, 81, 92
2, 189270, Note_on_c, 0, 84, 92
2, 189270, Note_on_c, 0, 69, 87
2, 189270, Note_on_c, 0, 72, 87
2, 189360, Note_on_c, 0, 72, 0
2, 189360, Note_on_c, 0, 81, 0
2, 189360, Note_on_c, 0, 84, 0
2, 189360, Note_on_c, 0, 69, 0
2, 189360, Note_on_c, 0, 79, 93
2, 189360, Note_on_c, 0, 83, 93
2, 189360, Note_on_c, 0, 67, 97
2, 189360, Note_on_c, 0, 71, 97
2, 189540, Note_on_c, 0, 71, 0
2, 189540, Note_on_c, 0, 79, 0
2, 189540, Note_on_c, 0, 83, 0
2, 189540, Note_on_c, 0, 67, 0
2, 189540, Note_on_c, 0, 78, 91
2, 189540, Note_on_c, 0, 81, 91
2, 189540, Note_on_c, 0, 66, 90
2, 189540, Note_on_c, 0, 69, 90
2, 189720, Note_on_c, 0, 69, 0
2, 189720, Note_on_c, 0, 78, 0
2, 189720, Note_on_c, 0, 81, 0
2, 189720, Note_on_c, 0, 66, 0
2, 189720, Note_on_c, 0, 71, 91
2, 189720, Note_on_c, 0, 79, 91
2, 189720, Note_on_c, 0, 59, 93
2, 189720, Note_on_c, 0, 67, 93
2, 189810, Note_on_c, 0, 67, 0
2, 189810, Note_on_c, 0, 71, 0
2, 189810, Note_on_c, 0, 79, 0
2, 189810, Note_on_c, 0, 59, 0
2, 189810, Note_on_c, 0, 78, 102
2, 189810, Note_on_c, 0, 81, 102
2, 189810, Note_on_c, 0, 66, 107
2, 189810, Note_on_c, 0, 69, 107
2, 189900, Note_on_c, 0, 69, 0
2, 189900, Note_on_c, 0, 78, 0
2, 189900, Note_on_c, 0, 81, 0
2, 189900, Note_on_c, 0, 66, 0
2, 189900, Note_on_c, 0, 79, 103
2, 189900, Note_on_c, 0, 83, 103
2, 189900, Note_on_c, 0, 67, 105
2, 189900, Note_on_c, 0, 71, 105
2, 190260, Note_on_c, 0, 71, 0
2, 190260, Note_on_c, 0, 79, 0
2, 190260, Note_on_c, 0, 83, 0
2, 190260, Note_on_c, 0, 67, 0
2, 190260, Note_on_c, 0, 79, 96
2, 190260, Note_on_c, 0, 83, 96
2, 190260, Note_on_c, 0, 67, 97
2, 190260, Note_on_c, 0, 71, 97
2, 190350, Note_on_c, 0, 71, 0
2, 190350, Note_on_c, 0, 79, 0
2, 190350, Note_on_c, 0, 83, 0
2, 190350, Note_on_c, 0, 67, 0
2, 190350, Note_on_c, 0, 81, 98
2, 190350, Note_on_c, 0, 84, 98
2, 190350, Note_on_c, 0, 69, 103
2, 190350, Note_on_c, 0, 72, 103
2, 190440, Note_on_c, 0, 72, 0
2, 190440, Note_on_c, 0, 81, 0
2, 190440, Note_on_c, 0, 84, 0
2, 190440, Note_on_c, 0, 69, 0
2, 190440, Note_on_c, 0, 83, 105
2, 190440, Note_on_c, 0, 86, 105
2, 190440, Note_on_c, 0, 71, 105
2, 190440, Note_on_c, 0, 74, 105
2, 190530, Note_on_c, 0, 74, 0
2, 190530, Note_on_c, 0, 83, 0
2, 190530, Note_on_c, 0, 86, 0
2, 190530, Note_on_c, 0, 71, 0
2, 190530, Note_on_c, 0, 84, 104
2, 190530, Note_on_c, 0, 88, 104
2, 190530, Note_on_c, 0, 72, 102
2, 190530, Note_on_c, 0, 76, 102
2, 190620, Note_on_c, 0, 76, 0
2, 190620, Note_on_c, 0, 84, 0
2, 190620, Note_on_c, 0, 88, 0
2, 190620, Note_on_c, 0, 72, 0
2, 190620, Note_on_c, 0, 83, 90
2, 190620, Note_on_c, 0, 86, 90
2, 190620, Note_on_c, 0, 71, 95
2, 190620, Note_on_c, 0, 74, 95
2, 190710, Note_on_c, 0, 74, 0
2, 190710, Note_on_c, 0, 83, 0
2, 190710, Note_on_c, 0, 86, 0
2, 190710, Note_on_c, 0, 71, 0
2, 190710, Note_on_c, 0, 81, 93
2, 190710, Note_on_c, 0, 84, 93
2, 190710, Note_on_c, 0, 69, 90
2, 190710, Note_on_c, 0, 72, 90
2, 190800, Note_on_c, 0, 72, 0
2, 190800, Note_on_c, 0, 81, 0
2, 190800, Note_on_c, 0, 84, 0
2, 190800, Note_on_c, 0, 69, 0
2, 190800, Note_on_c, 0, 79, 91
2, 190800, Note_on_c, 0, 83, 91
2, 190800, Note_on_c, 0, 67, 92
2, 190800, Note_on_c, 0, 71, 92
2, 190980, Note_on_c, 0, 71, 0
2, 190980, Note_on_c, 0, 79, 0
2, 190980, Note_on_c, 0, 83, 0
2, 190980, Note_on_c, 0, 67, 0
2, 190980, Note_on_c, 0, 78, 86
2, 190980, Note_on_c, 0, 81, 86
2, 190980, Note_on_c, 0, 66, 91
2, 190980, Note_on_c, 0, 69, 91
2, 191160, Note_on_c, 0, 69, 0
2, 191160, Note_on_c, 0, 78, 0
2, 191160, Note_on_c, 0, 81, 0
2, 191160, Note_on_c, 0, 66, 0
2, 191160, Note_on_c, 0, 67, 94
2, 191160, Note_on_c, 0, 71, 94
2, 191160, Note_on_c, 0, 76, 94
2, 191160, Note_on_c, 0, 52, 98
2, 191160, Note_on_c, 0, 55, 98
2, 191160, Note_on_c, 0, 59, 98
2, 191160, Note_on_c, 0, 64, 98
2, 191318, Note_on_c, 0, 64, 0
2, 191318, Note_on_c, 0, 55, 0
2, 191318, Note_on_c, 0, 71, 0
2, 191318, Note_on_c, 0, 76, 0
2, 191318, Note_on_c, 0, 67, 0
2, 191318, Note_on_c, 0, 59, 0
2, 191318, Note_on_c, 0, 52, 0
2, 191340, Note_on_c, 0, 76, 127
2, 191340, Note_on_c, 0, 78, 127
2, 191340, Note_on_c, 0, 84, 127
2, 191340, Note_on_c, 0, 88, 127
2, 191340, Note_on_c, 0, 57, 108
2, 191340, Note_on_c, 0, 60, 108
2, 191340, Note_on_c, 0, 64, 108
2, 191498, Note_on_c, 0, 64, 0
2, 191498, Note_on_c, 0, 57, 0
2, 191498, Note_on_c, 0, 78, 0
2, 191498, Note_on_c, 0, 84, 0
2, 191498, Note_on_c, 0, 76, 0
2, 191498, Note_on_c, 0, 60, 0
2, 191498, Note_on_c, 0, 88, 0
2, 191520, Note_on_c, 0, 88, 117
2, 191520, Note_on_c, 0, 91, 117
2, 191520, Note_on_c, 0, 95, 117
2, 191520, Note_on_c, 0, 100, 117
2, 191520, Note_on_c, 0, 52, 107
2, 191520, Note_on_c, 0, 55, 107
2, 191520, Note_on_c, 0, 59, 107
2, 191520, Note_on_c, 0, 64, 107
2, 191678, Note_on_c, 0, 64, 0
2, 191678, Note_on_c, 0, 88, 0
2, 191678, Note_on_c, 0, 52, 0
2, 191678, Note_on_c, 0, 91, 0
2, 191678, Note_on_c, 0, 95, 0
2, 191678, Note_on_c, 0, 100, 0
2, 191678, Note_on_c, 0, 55, 0
2, 191678, Note_on_c, 0, 59, 0
2, 192780, Note_on_c, 0, 76, 92
2, 192960, Note_on_c, 0, 76, 0
2, 192960, Note_on_c, 0, 78, 87
2, 192960, Note_on_c, 0, 72, 55
2, 192960, Note_on_c, 0, 57, 51
2, 192960, Note_on_c, 0, 64, 51
2, 193080, Note_on_c, 0, 78, 0
2, 193080, Note_on_c, 0, 79, 86
2, 193199, Note_on_c, 0, 79, 0
2, 193199, Note_on_c, 0, 81, 90
2, 193320, Note_on_c, 0, 81, 0
2, 193320, Note_on_c, 0, 76, 75
2, 193680, Note_on_c, 0, 72, 0
2, 193680, Note_on_c, 0, 64, 0
2, 193680, Note_on_c, 0, 57, 0
2, 193680, Note_on_c, 0, 71, 53
2, 193680, Note_on_c, 0, 55, 60
2, 193680, Note_on_c, 0, 64, 60
2, 193800, Note_on_c, 0, 76, 0
2, 193800, Note_on_c, 0, 78, 90
2, 193919, Note_on_c, 0, 78, 0
2, 193919, Note_on_c, 0, 79, 90
2, 194040, Note_on_c, 0, 79, 0
2, 194040, Note_on_c, 0, 71, 0
2, 194040, Note_on_c, 0, 55, 0
2, 194040, Note_on_c, 0, 64, 0
2, 194040, Note_on_c, 0, 78, 79
2, 194040, Note_on_c, 0, 72, 60
2, 194040, Note_on_c, 0, 57, 60
2, 194040, Note_on_c, 0, 64, 60
2, 194130, Note_on_c, 0, 78, 0
2, 194130, Note_on_c, 0, 79, 89
2, 194220, Note_on_c, 0, 79, 0
2, 194220, Note_on_c, 0, 83, 88
2, 194310, Note_on_c, 0, 83, 0
2, 194310, Note_on_c, 0, 81, 82
2, 194400, Note_on_c, 0, 81, 0
2, 194400, Note_on_c, 0, 76, 73
2, 194760, Note_on_c, 0, 64, 0
2, 194760, Note_on_c, 0, 72, 0
2, 194760, Note_on_c, 0, 57, 0
2, 194760, Note_on_c, 0, 71, 58
2, 194760, Note_on_c, 0, 55, 57
2, 194760, Note_on_c, 0, 64, 57
2, 194880, Note_on_c, 0, 76, 0
2, 194880, Note_on_c, 0, 78, 88
2, 194999, Note_on_c, 0, 78, 0
2, 194999, Note_on_c, 0, 79, 89
2, 195120, Note_on_c, 0, 79, 0
2, 195120, Note_on_c, 0, 71, 0
2, 195120, Note_on_c, 0, 55, 0
2, 195120, Note_on_c, 0, 64, 0
2, 195120, Note_on_c, 0, 79, 81
2, 195120, Note_on_c, 0, 64, 53
2, 195120, Note_on_c, 0, 69, 53
2, 195120, Note_on_c, 0, 36, 54
2, 195120, Note_on_c, 0, 48, 54
2, 195480, Note_on_c, 0, 79, 0
2, 195480, Note_on_c, 0, 78, 81
2, 195660, Note_on_c, 0, 78, 0
2, 195660, Note_on_c, 0, 76, 80
2, 195840, Note_on_c, 0, 76, 0
2, 195840, Note_on_c, 0, 36, 0
2, 195840, Note_on_c, 0, 64, 0
2, 195840, Note_on_c, 0, 69, 0
2, 195840, Note_on_c, 0, 48, 0
2, 195840, Note_on_c, 0, 72, 74
2, 195840, Note_on_c, 0, 60, 52
2, 195840, Note_on_c, 0, 66, 52
2, 195840, Note_on_c, 0, 38, 63
2, 195840, Note_on_c, 0, 50, 63
2, 196110, Note_on_c, 0, 72, 0
2, 196110, Note_on_c, 0, 70, 77
2, 196200, Note_on_c, 0, 70, 0
2, 196200, Note_on_c, 0, 50, 0
2, 196200, Note_on_c, 0, 60, 0
2, 196200, Note_on_c, 0, 66, 0
2, 196200, Note_on_c, 0, 38, 0
2, 196200, Note_on_c, 0, 60, 85
2, 196200, Note_on_c, 0, 66, 85
2, 196200, Note_on_c, 0, 70, 85
2, 196200, Note_on_c, 0, 43, 62
2, 196200, Note_on_c, 0, 50, 62
2, 196560, Note_on_c, 0, 70, 0
2, 196560, Note_on_c, 0, 60, 0
2, 196560, Note_on_c, 0, 66, 0
2, 196560, Note_on_c, 0, 59, 87
2, 196560, Note_on_c, 0, 67, 87
2, 196560, Note_on_c, 0, 71, 87
2, 196920, Note_on_c, 0, 71, 0
2, 196920, Note_on_c, 0, 59, 0
2, 196920, Note_on_c, 0, 50, 0
2, 196920, Note_on_c, 0, 43, 0
2, 196920, Note_on_c, 0, 67, 0
2, 197100, Note_on_c, 0, 64, 76
2, 197280, Note_on_c, 0, 64, 0
2, 197280, Note_on_c, 0, 66, 92
2, 197280, Note_on_c, 0, 60, 57
2, 197280, Note_on_c, 0, 45, 53
2, 197280, Note_on_c, 0, 52, 53
2, 197400, Note_on_c, 0, 66, 0
2, 197400, Note_on_c, 0, 67, 87
2, 197519, Note_on_c, 0, 67, 0
2, 197519, Note_on_c, 0, 69, 89
2, 197640, Note_on_c, 0, 69, 0
2, 197640, Note_on_c, 0, 64, 72
2, 198000, Note_on_c, 0, 60, 0
2, 198000, Note_on_c, 0, 52, 0
2, 198000, Note_on_c, 0, 45, 0
2, 198000, Note_on_c, 0, 59, 57
2, 198000, Note_on_c, 0, 43, 58
2, 198000, Note_on_c, 0, 52, 58
2, 198120, Note_on_c, 0, 64, 0
2, 198120, Note_on_c, 0, 66, 86
2, 198239, Note_on_c, 0, 66, 0
2, 198239, Note_on_c, 0, 67, 84
2, 198360, Note_on_c, 0, 67, 0
2, 198360, Note_on_c, 0, 59, 0
2, 198360, Note_on_c, 0, 43, 0
2, 198360, Note_on_c, 0, 52, 0
2, 198360, Note_on_c, 0, 66, 78
2, 198360, Note_on_c, 0, 60, 66
2, 198360, Note_on_c, 0, 45, 62
2, 198360, Note_on_c, 0, 52, 62
2, 198432, Note_on_c, 0, 66, 0
2, 198432, Note_on_c, 0, 67, 87
2, 198504, Note_on_c, 0, 67, 0
2, 198504, Note_on_c, 0, 71, 95
2, 198575, Note_on_c, 0, 71, 0
2, 198575, Note_on_c, 0, 69, 81
2, 198647, Note_on_c, 0, 69, 0
2, 198647, Note_on_c, 0, 71, 89
2, 198720, Note_on_c, 0, 71, 0
2, 198720, Note_on_c, 0, 64, 67
2, 199080, Note_on_c, 0, 60, 0
2, 199080, Note_on_c, 0, 52, 0
2, 199080, Note_on_c, 0, 45, 0
2, 199080, Note_on_c, 0, 59, 62
2, 199080, Note_on_c, 0, 43, 61
2, 199080, Note_on_c, 0, 52, 61
2, 199200, Note_on_c, 0, 64, 0
2, 199200, Note_on_c, 0, 66, 88
2, 199319, Note_on_c, 0, 66, 0
2, 199319, Note_on_c, 0, 67, 91
2, 199440, Note_on_c, 0, 67, 0
2, 199440, Note_on_c, 0, 59, 0
2, 199440, Note_on_c, 0, 43, 0
2, 199440, Note_on_c, 0, 52, 0
2, 199440, Note_on_c, 0, 71, 96
2, 199440, Note_on_c, 0, 61, 69
2, 199440, Note_on_c, 0, 45, 64
2, 199440, Note_on_c, 0, 55, 64
2, 199800, Note_on_c, 0, 71, 0
2, 199800, Note_on_c, 0, 69, 78
2, 199980, Note_on_c, 0, 69, 0
2, 199980, Note_on_c, 0, 67, 80
2, 200160, Note_on_c, 0, 67, 0
2, 200160, Note_on_c, 0, 61, 0
2, 200160, Note_on_c, 0, 45, 0
2, 200160, Note_on_c, 0, 55, 0
2, 200160, Note_on_c, 0, 66, 82
2, 200160, Note_on_c, 0, 60, 58
2, 200160, Note_on_c, 0, 50, 61
2, 200340, Note_on_c, 0, 66, 0
2, 200340, Note_on_c, 0, 64, 73
2, 200520, Note_on_c, 0, 64, 0
2, 200520, Note_on_c, 0, 50, 0
2, 200520, Note_on_c, 0, 60, 0
2, 200520, Note_on_c, 0, 64, 87
2, 200520, Note_on_c, 0, 60, 62
2, 200520, Note_on_c, 0, 43, 58
2, 200520, Note_on_c, 0, 50, 58
2, 200880, Note_on_c, 0, 60, 0
2, 200880, Note_on_c, 0, 64, 0
2, 200880, Note_on_c, 0, 62, 79
2, 200880, Note_on_c, 0, 59, 58
2, 201240, Note_on_c, 0, 59, 0
2, 201240, Note_on_c, 0, 50, 0
2, 201240, Note_on_c, 0, 43, 0
2, 201240, Note_on_c, 0, 57, 60
2, 201240, Note_on_c, 0, 42, 60
2, 201240, Note_on_c, 0, 50, 60
2, 201360, Note_on_c, 0, 62, 0
2, 201360, Note_on_c, 0, 64, 89
2, 201479, Note_on_c, 0, 64, 0
2, 201479, Note_on_c, 0, 66, 88
2, 201600, Note_on_c, 0, 66, 0
2, 201600, Note_on_c, 0, 57, 0
2, 201600, Note_on_c, 0, 42, 0
2, 201600, Note_on_c, 0, 50, 0
2, 201600, Note_on_c, 0, 69, 94
2, 201600, Note_on_c, 0, 59, 70
2, 201600, Note_on_c, 0, 62, 70
2, 201600, Note_on_c, 0, 40, 64
2, 201600, Note_on_c, 0, 52, 64
2, 201960, Note_on_c, 0, 69, 0
2, 201960, Note_on_c, 0, 67, 78
2, 202320, Note_on_c, 0, 67, 0
2, 202320, Note_on_c, 0, 52, 0
2, 202320, Note_on_c, 0, 59, 0
2, 202320, Note_on_c, 0, 62, 0
2, 202320, Note_on_c, 0, 40, 0
2, 202320, Note_on_c, 0, 66, 75
2, 202320, Note_on_c, 0, 55, 59
2, 202320, Note_on_c, 0, 61, 59
2, 202320, Note_on_c, 0, 45, 54
2, 202590, Note_on_c, 0, 66, 0
2, 202590, Note_on_c, 0, 65, 79
2, 202680, Note_on_c, 0, 65, 0
2, 202680, Note_on_c, 0, 45, 0
2, 202680, Note_on_c, 0, 61, 0
2, 202680, Note_on_c, 0, 55, 0
2, 202680, Note_on_c, 0, 65, 84
2, 202680, Note_on_c, 0, 59, 65
2, 202680, Note_on_c, 0, 62, 65
2, 202680, Note_on_c, 0, 38, 54
2, 202680, Note_on_c, 0, 45, 54
2, 203040, Note_on_c, 0, 62, 0
2, 203040, Note_on_c, 0, 65, 0
2, 203040, Note_on_c, 0, 59, 0
2, 203040, Note_on_c, 0, 66, 85
2, 203040, Note_on_c, 0, 57, 63
2, 203040, Note_on_c, 0, 62, 63
2, 203310, Note_on_c, 0, 66, 0
2, 203310, Note_on_c, 0, 66, 85
2, 203400, Note_on_c, 0, 66, 0
2, 203400, Note_on_c, 0, 62, 0
2, 203400, Note_on_c, 0, 45, 0
2, 203400, Note_on_c, 0, 38, 0
2, 203400, Note_on_c, 0, 57, 0
2, 203400, Note_on_c, 0, 66, 86
2, 203400, Note_on_c, 0, 57, 62
2, 203400, Note_on_c, 0, 62, 62
2, 203400, Note_on_c, 0, 36, 60
2, 203400, Note_on_c, 0, 48, 60
2, 203520, Note_on_c, 0, 66, 0
2, 203520, Note_on_c, 0, 68, 89
2, 203639, Note_on_c, 0, 68, 0
2, 203639, Note_on_c, 0, 69, 88
2, 203760, Note_on_c, 0, 69, 0
2, 203760, Note_on_c, 0, 36, 0
2, 203760, Note_on_c, 0, 57, 0
2, 203760, Note_on_c, 0, 62, 0
2, 203760, Note_on_c, 0, 48, 0
2, 203760, Note_on_c, 0, 73, 96
2, 203760, Note_on_c, 0, 62, 67
2, 203760, Note_on_c, 0, 66, 67
2, 203760, Note_on_c, 0, 35, 59
2, 203760, Note_on_c, 0, 47, 59
2, 204120, Note_on_c, 0, 73, 0
2, 204120, Note_on_c, 0, 71, 77
2, 204480, Note_on_c, 0, 71, 0
2, 204480, Note_on_c, 0, 47, 0
2, 204480, Note_on_c, 0, 62, 0
2, 204480, Note_on_c, 0, 66, 0
2, 204480, Note_on_c, 0, 35, 0
2, 204480, Note_on_c, 0, 66, 70
2, 204480, Note_on_c, 0, 62, 58
2, 204480, Note_on_c, 0, 40, 69
2, 204480, Note_on_c, 0, 52, 69
2, 204660, Note_on_c, 0, 66, 0
2, 204660, Note_on_c, 0, 68, 87
2, 204840, Note_on_c, 0, 68, 0
2, 204840, Note_on_c, 0, 52, 0
2, 204840, Note_on_c, 0, 40, 0
2, 204840, Note_on_c, 0, 62, 0
2, 204840, Note_on_c, 0, 68, 85
2, 204840, Note_on_c, 0, 62, 60
2, 204840, Note_on_c, 0, 45, 57
2, 204840, Note_on_c, 0, 52, 57
2, 205200, Note_on_c, 0, 62, 0
2, 205200, Note_on_c, 0, 68, 0
2, 205200, Note_on_c, 0, 69, 93
2, 205200, Note_on_c, 0, 61, 59
2, 205560, Note_on_c, 0, 61, 0
2, 205560, Note_on_c, 0, 52, 0
2, 205560, Note_on_c, 0, 45, 0
2, 205560, Note_on_c, 0, 64, 65
2, 205560, Note_on_c, 0, 56, 74
2, 205560, Note_on_c, 0, 61, 74
2, 205680, Note_on_c, 0, 69, 0
2, 205680, Note_on_c, 0, 71, 90
2, 205799, Note_on_c, 0, 71, 0
2, 205799, Note_on_c, 0, 73, 92
2, 205920, Note_on_c, 0, 73, 0
2, 205920, Note_on_c, 0, 64, 0
2, 205920, Note_on_c, 0, 56, 0
2, 205920, Note_on_c, 0, 61, 0
2, 205920, Note_on_c, 0, 81, 101
2, 205920, Note_on_c, 0, 69, 74
2, 205920, Note_on_c, 0, 73, 74
2, 205920, Note_on_c, 0, 54, 63
2, 205920, Note_on_c, 0, 61, 63
2, 205920, Note_on_c, 0, 63, 63
2, 206040, Note_on_c, 0, 81, 0
2, 206040, Note_on_c, 0, 80, 80
2, 206159, Note_on_c, 0, 80, 0
2, 206159, Note_on_c, 0, 78, 81
2, 206280, Note_on_c, 0, 78, 0
2, 206280, Note_on_c, 0, 76, 78
2, 206519, Note_on_c, 0, 76, 0
2, 206519, Note_on_c, 0, 75, 81
2, 206640, Note_on_c, 0, 75, 0
2, 206640, Note_on_c, 0, 73, 77
2, 206760, Note_on_c, 0, 73, 0
2, 206760, Note_on_c, 0, 75, 90
2, 206879, Note_on_c, 0, 75, 0
2, 206879, Note_on_c, 0, 78, 87
2, 207000, Note_on_c, 0, 78, 0
2, 207000, Note_on_c, 0, 63, 0
2, 207000, Note_on_c, 0, 54, 0
2, 207000, Note_on_c, 0, 69, 0
2, 207000, Note_on_c, 0, 73, 0
2, 207000, Note_on_c, 0, 61, 0
2, 207000, Note_on_c, 0, 73, 75
2, 207000, Note_on_c, 0, 64, 54
2, 207000, Note_on_c, 0, 68, 54
2, 207000, Note_on_c, 0, 49, 56
2, 207000, Note_on_c, 0, 56, 56
2, 207000, Note_on_c, 0, 61, 56
2, 207840, Note_on_c, 0, 73, 0
2, 207840, Note_on_c, 0, 75, 88
2, 207959, Note_on_c, 0, 75, 0
2, 207959, Note_on_c, 0, 76, 88
2, 208080, Note_on_c, 0, 76, 0
2, 208080, Note_on_c, 0, 68, 0
2, 208080, Note_on_c, 0, 49, 0
2, 208080, Note_on_c, 0, 64, 0
2, 208080, Note_on_c, 0, 61, 0
2, 208080, Note_on_c, 0, 56, 0
2, 208080, Note_on_c, 0, 81, 93
2, 208080, Note_on_c, 0, 69, 65
2, 208080, Note_on_c, 0, 73, 65
2, 208080, Note_on_c, 0, 54, 64
2, 208080, Note_on_c, 0, 61, 64
2, 208080, Note_on_c, 0, 63, 64
2, 208200, Note_on_c, 0, 81, 0
2, 208200, Note_on_c, 0, 80, 80
2, 208319, Note_on_c, 0, 80, 0
2, 208319, Note_on_c, 0, 78, 78
2, 208440, Note_on_c, 0, 78, 0
2, 208440, Note_on_c, 0, 76, 76
2, 208679, Note_on_c, 0, 76, 0
2, 208679, Note_on_c, 0, 75, 81
2, 208800, Note_on_c, 0, 75, 0
2, 208800, Note_on_c, 0, 73, 79
2, 208872, Note_on_c, 0, 73, 0
2, 208872, Note_on_c, 0, 75, 85
2, 208944, Note_on_c, 0, 75, 0
2, 208944, Note_on_c, 0, 78, 88
2, 209015, Note_on_c, 0, 78, 0
2, 209015, Note_on_c, 0, 80, 87
2, 209087, Note_on_c, 0, 80, 0
2, 209087, Note_on_c, 0, 78, 79
2, 209160, Note_on_c, 0, 78, 0
2, 209160, Note_on_c, 0, 63, 0
2, 209160, Note_on_c, 0, 54, 0
2, 209160, Note_on_c, 0, 69, 0
2, 209160, Note_on_c, 0, 73, 0
2, 209160, Note_on_c, 0, 61, 0
2, 209160, Note_on_c, 0, 73, 74
2, 209160, Note_on_c, 0, 64, 54
2, 209160, Note_on_c, 0, 68, 54
2, 209160, Note_on_c, 0, 49, 55
2, 209160, Note_on_c, 0, 56, 55
2, 209160, Note_on_c, 0, 61, 55
2, 210000, Note_on_c, 0, 73, 0
2, 210000, Note_on_c, 0, 75, 85
2, 210119, Note_on_c, 0, 75, 0
2, 210119, Note_on_c, 0, 76, 89
2, 210240, Note_on_c, 0, 76, 0
2, 210240, Note_on_c, 0, 68, 0
2, 210240, Note_on_c, 0, 49, 0
2, 210240, Note_on_c, 0, 64, 0
2, 210240, Note_on_c, 0, 61, 0
2, 210240, Note_on_c, 0, 56, 0
2, 210240, Note_on_c, 0, 79, 93
2, 210240, Note_on_c, 0, 67, 62
2, 210240, Note_on_c, 0, 71, 62
2, 210240, Note_on_c, 0, 52, 62
2, 210240, Note_on_c, 0, 59, 62
2, 210240, Note_on_c, 0, 61, 62
2, 210360, Note_on_c, 0, 79, 0
2, 210360, Note_on_c, 0, 78, 82
2, 210479, Note_on_c, 0, 78, 0
2, 210479, Note_on_c, 0, 76, 82
2, 210600, Note_on_c, 0, 76, 0
2, 210600, Note_on_c, 0, 74, 78
2, 210839, Note_on_c, 0, 74, 0
2, 210839, Note_on_c, 0, 73, 80
2, 210960, Note_on_c, 0, 73, 0
2, 210960, Note_on_c, 0, 71, 75
2, 211080, Note_on_c, 0, 71, 0
2, 211080, Note_on_c, 0, 73, 89
2, 211199, Note_on_c, 0, 73, 0
2, 211199, Note_on_c, 0, 76, 91
2, 211320, Note_on_c, 0, 76, 0
2, 211320, Note_on_c, 0, 61, 0
2, 211320, Note_on_c, 0, 52, 0
2, 211320, Note_on_c, 0, 67, 0
2, 211320, Note_on_c, 0, 71, 0
2, 211320, Note_on_c, 0, 59, 0
2, 211320, Note_on_c, 0, 71, 75
2, 211320, Note_on_c, 0, 62, 51
2, 211320, Note_on_c, 0, 66, 51
2, 211320, Note_on_c, 0, 47, 57
2, 211320, Note_on_c, 0, 54, 57
2, 211320, Note_on_c, 0, 59, 57
2, 212160, Note_on_c, 0, 71, 0
2, 212160, Note_on_c, 0, 73, 93
2, 212279, Note_on_c, 0, 73, 0
2, 212279, Note_on_c, 0, 74, 88
2, 212400, Note_on_c, 0, 74, 0
2, 212400, Note_on_c, 0, 66, 0
2, 212400, Note_on_c, 0, 47, 0
2, 212400, Note_on_c, 0, 62, 0
2, 212400, Note_on_c, 0, 59, 0
2, 212400, Note_on_c, 0, 54, 0
2, 212400, Note_on_c, 0, 79, 94
2, 212400, Note_on_c, 0, 67, 66
2, 212400, Note_on_c, 0, 71, 66
2, 212400, Note_on_c, 0, 52, 63
2, 212400, Note_on_c, 0, 59, 63
2, 212400, Note_on_c, 0, 61, 63
2, 212520, Note_on_c, 0, 79, 0
2, 212520, Note_on_c, 0, 78, 81
2, 212639, Note_on_c, 0, 78, 0
2, 212639, Note_on_c, 0, 76, 78
2, 212760, Note_on_c, 0, 76, 0
2, 212760, Note_on_c, 0, 74, 78
2, 212999, Note_on_c, 0, 74, 0
2, 212999, Note_on_c, 0, 73, 79
2, 213120, Note_on_c, 0, 73, 0
2, 213120, Note_on_c, 0, 71, 79
2, 213179, Note_on_c, 0, 71, 0
2, 213179, Note_on_c, 0, 73, 85
2, 213240, Note_on_c, 0, 73, 0
2, 213240, Note_on_c, 0, 76, 97
2, 213300, Note_on_c, 0, 76, 0
2, 213300, Note_on_c, 0, 78, 91
2, 213359, Note_on_c, 0, 78, 0
2, 213359, Note_on_c, 0, 76, 76
2, 213420, Note_on_c, 0, 76, 0
2, 213420, Note_on_c, 0, 78, 91
2, 213480, Note_on_c, 0, 78, 0
2, 213480, Note_on_c, 0, 71, 0
2, 213480, Note_on_c, 0, 52, 0
2, 213480, Note_on_c, 0, 67, 0
2, 213480, Note_on_c, 0, 61, 0
2, 213480, Note_on_c, 0, 59, 0
2, 213480, Note_on_c, 0, 71, 70
2, 213480, Note_on_c, 0, 62, 51
2, 213480, Note_on_c, 0, 66, 51
2, 213480, Note_on_c, 0, 47, 58
2, 213480, Note_on_c, 0, 54, 58
2, 213480, Note_on_c, 0, 59, 58
2, 214320, Note_on_c, 0, 71, 0
2, 214320, Note_on_c, 0, 74, 95
2, 214439, Note_on_c, 0, 74, 0
2, 214439, Note_on_c, 0, 76, 89
2, 214560, Note_on_c, 0, 76, 0
2, 214560, Note_on_c, 0, 66, 0
2, 214560, Note_on_c, 0, 47, 0
2, 214560, Note_on_c, 0, 62, 0
2, 214560, Note_on_c, 0, 59, 0
2, 214560, Note_on_c, 0, 54, 0
2, 214560, Note_on_c, 0, 66, 88
2, 214560, Note_on_c, 0, 78, 88
2, 214560, Note_on_c, 0, 72, 68
2, 214560, Note_on_c, 0, 45, 64
2, 214560, Note_on_c, 0, 52, 64
2, 214560, Note_on_c, 0, 60, 64
2, 214680, Note_on_c, 0, 78, 0
2, 214680, Note_on_c, 0, 66, 0
2, 214680, Note_on_c, 0, 67, 88
2, 214680, Note_on_c, 0, 79, 88
2, 214799, Note_on_c, 0, 79, 0
2, 214799, Note_on_c, 0, 67, 0
2, 214799, Note_on_c, 0, 69, 88
2, 214799, Note_on_c, 0, 81, 88
2, 214920, Note_on_c, 0, 81, 0
2, 214920, Note_on_c, 0, 60, 0
2, 214920, Note_on_c, 0, 52, 0
2, 214920, Note_on_c, 0, 45, 0
2, 214920, Note_on_c, 0, 69, 0
2, 214920, Note_on_c, 0, 72, 0
2, 214920, Note_on_c, 0, 64, 74
2, 214920, Note_on_c, 0, 76, 74
2, 214920, Note_on_c, 0, 71, 58
2, 214920, Note_on_c, 0, 43, 61
2, 214920, Note_on_c, 0, 52, 61
2, 214920, Note_on_c, 0, 59, 61
2, 215400, Note_on_c, 0, 76, 0
2, 215400, Note_on_c, 0, 64, 0
2, 215400, Note_on_c, 0, 66, 90
2, 215400, Note_on_c, 0, 78, 90
2, 215519, Note_on_c, 0, 78, 0
2, 215519, Note_on_c, 0, 66, 0
2, 215519, Note_on_c, 0, 67, 84
2, 215519, Note_on_c, 0, 79, 84
2, 215640, Note_on_c, 0, 79, 0
2, 215640, Note_on_c, 0, 59, 0
2, 215640, Note_on_c, 0, 52, 0
2, 215640, Note_on_c, 0, 43, 0
2, 215640, Note_on_c, 0, 67, 0
2, 215640, Note_on_c, 0, 71, 0
2, 215640, Note_on_c, 0, 66, 76
2, 215640, Note_on_c, 0, 78, 76
2, 215640, Note_on_c, 0, 72, 66
2, 215640, Note_on_c, 0, 45, 63
2, 215640, Note_on_c, 0, 52, 63
2, 215640, Note_on_c, 0, 60, 63
2, 215712, Note_on_c, 0, 78, 0
2, 215712, Note_on_c, 0, 66, 0
2, 215712, Note_on_c, 0, 67, 85
2, 215712, Note_on_c, 0, 79, 85
2, 215784, Note_on_c, 0, 79, 0
2, 215784, Note_on_c, 0, 67, 0
2, 215784, Note_on_c, 0, 71, 96
2, 215784, Note_on_c, 0, 83, 96
2, 215855, Note_on_c, 0, 83, 0
2, 215855, Note_on_c, 0, 71, 0
2, 215855, Note_on_c, 0, 69, 76
2, 215855, Note_on_c, 0, 81, 76
2, 215927, Note_on_c, 0, 81, 0
2, 215927, Note_on_c, 0, 69, 0
2, 215927, Note_on_c, 0, 71, 88
2, 215927, Note_on_c, 0, 83, 88
2, 216000, Note_on_c, 0, 83, 0
2, 216000, Note_on_c, 0, 60, 0
2, 216000, Note_on_c, 0, 52, 0
2, 216000, Note_on_c, 0, 45, 0
2, 216000, Note_on_c, 0, 71, 0
2, 216000, Note_on_c, 0, 72, 0
2, 216000, Note_on_c, 0, 64, 67
2, 216000, Note_on_c, 0, 76, 67
2, 216000, Note_on_c, 0, 71, 55
2, 216000, Note_on_c, 0, 43, 60
2, 216000, Note_on_c, 0, 52, 60
2, 216000, Note_on_c, 0, 59, 60
2, 216480, Note_on_c, 0, 76, 0
2, 216480, Note_on_c, 0, 64, 0
2, 216480, Note_on_c, 0, 66, 91
2, 216480, Note_on_c, 0, 78, 91
2, 216599, Note_on_c, 0, 78, 0
2, 216599, Note_on_c, 0, 66, 0
2, 216599, Note_on_c, 0, 67, 91
2, 216599, Note_on_c, 0, 79, 91
2, 216720, Note_on_c, 0, 79, 0
2, 216720, Note_on_c, 0, 59, 0
2, 216720, Note_on_c, 0, 52, 0
2, 216720, Note_on_c, 0, 43, 0
2, 216720, Note_on_c, 0, 67, 0
2, 216720, Note_on_c, 0, 71, 0
2, 216720, Note_on_c, 0, 79, 84
2, 216720, Note_on_c, 0, 64, 58
2, 216720, Note_on_c, 0, 69, 58
2, 216720, Note_on_c, 0, 36, 56
2, 216720, Note_on_c, 0, 48, 56
2, 217080, Note_on_c, 0, 79, 0
2, 217080, Note_on_c, 0, 78, 80
2, 217260, Note_on_c, 0, 78, 0
2, 217260, Note_on_c, 0, 76, 76
2, 217440, Note_on_c, 0, 76, 0
2, 217440, Note_on_c, 0, 36, 0
2, 217440, Note_on_c, 0, 64, 0
2, 217440, Note_on_c, 0, 69, 0
2, 217440, Note_on_c, 0, 48, 0
2, 217440, Note_on_c, 0, 72, 72
2, 217440, Note_on_c, 0, 60, 55
2, 217440, Note_on_c, 0, 66, 55
2, 217440, Note_on_c, 0, 38, 59
2, 217440, Note_on_c, 0, 50, 59
2, 217710, Note_on_c, 0, 72, 0
2, 217710, Note_on_c, 0, 70, 80
2, 217800, Note_on_c, 0, 70, 0
2, 217800, Note_on_c, 0, 50, 0
2, 217800, Note_on_c, 0, 60, 0
2, 217800, Note_on_c, 0, 66, 0
2, 217800, Note_on_c, 0, 38, 0
2, 217800, Note_on_c, 0, 60, 87
2, 217800, Note_on_c, 0, 66, 87
2, 217800, Note_on_c, 0, 70, 87
2, 217800, Note_on_c, 0, 43, 64
2, 217800, Note_on_c, 0, 50, 64
2, 218160, Note_on_c, 0, 70, 0
2, 218160, Note_on_c, 0, 60, 0
2, 218160, Note_on_c, 0, 66, 0
2, 218160, Note_on_c, 0, 59, 87
2, 218160, Note_on_c, 0, 67, 87
2, 218160, Note_on_c, 0, 71, 87
2, 218520, Note_on_c, 0, 71, 0
2, 218520, Note_on_c, 0, 59, 0
2, 218520, Note_on_c, 0, 50, 0
2, 218520, Note_on_c, 0, 43, 0
2, 218520, Note_on_c, 0, 67, 0
2, 218700, Note_on_c, 0, 64, 68
2, 218880, Note_on_c, 0, 64, 0
2, 218880, Note_on_c, 0, 66, 88
2, 218880, Note_on_c, 0, 60, 50
2, 218880, Note_on_c, 0, 45, 55
2, 218880, Note_on_c, 0, 52, 55
2, 219000, Note_on_c, 0, 66, 0
2, 219000, Note_on_c, 0, 67, 90
2, 219119, Note_on_c, 0, 67, 0
2, 219119, Note_on_c, 0, 69, 91
2, 219240, Note_on_c, 0, 69, 0
2, 219240, Note_on_c, 0, 64, 73
2, 219600, Note_on_c, 0, 60, 0
2, 219600, Note_on_c, 0, 52, 0
2, 219600, Note_on_c, 0, 45, 0
2, 219600, Note_on_c, 0, 59, 55
2, 219600, Note_on_c, 0, 43, 62
2, 219600, Note_on_c, 0, 52, 62
2, 219720, Note_on_c, 0, 64, 0
2, 219720, Note_on_c, 0, 66, 91
2, 219839, Note_on_c, 0, 66, 0
2, 219839, Note_on_c, 0, 67, 89
2, 219960, Note_on_c, 0, 67, 0
2, 219960, Note_on_c, 0, 59, 0
2, 219960, Note_on_c, 0, 43, 0
2, 219960, Note_on_c, 0, 52, 0
2, 219960, Note_on_c, 0, 66, 78
2, 219960, Note_on_c, 0, 60, 57
2, 219960, Note_on_c, 0, 45, 59
2, 219960, Note_on_c, 0, 52, 59
2, 220032, Note_on_c, 0, 66, 0
2, 220032, Note_on_c, 0, 67, 90
2, 220104, Note_on_c, 0, 67, 0
2, 220104, Note_on_c, 0, 71, 91
2, 220175, Note_on_c, 0, 71, 0
2, 220175, Note_on_c, 0, 69, 78
2, 220247, Note_on_c, 0, 69, 0
2, 220247, Note_on_c, 0, 71, 87
2, 220320, Note_on_c, 0, 71, 0
2, 220320, Note_on_c, 0, 64, 72
2, 220680, Note_on_c, 0, 60, 0
2, 220680, Note_on_c, 0, 52, 0
2, 220680, Note_on_c, 0, 45, 0
2, 220680, Note_on_c, 0, 59, 58
2, 220680, Note_on_c, 0, 43, 66
2, 220680, Note_on_c, 0, 52, 66
2, 220800, Note_on_c, 0, 64, 0
2, 220800, Note_on_c, 0, 66, 92
2, 220919, Note_on_c, 0, 66, 0
2, 220919, Note_on_c, 0, 67, 89
2, 221040, Note_on_c, 0, 67, 0
2, 221040, Note_on_c, 0, 59, 0
2, 221040, Note_on_c, 0, 43, 0
2, 221040, Note_on_c, 0, 52, 0
2, 221040, Note_on_c, 0, 71, 89
2, 221040, Note_on_c, 0, 61, 65
2, 221040, Note_on_c, 0, 45, 62
2, 221040, Note_on_c, 0, 55, 62
2, 221400, Note_on_c, 0, 71, 0
2, 221400, Note_on_c, 0, 69, 83
2, 221580, Note_on_c, 0, 69, 0
2, 221580, Note_on_c, 0, 67, 78
2, 221760, Note_on_c, 0, 67, 0
2, 221760, Note_on_c, 0, 61, 0
2, 221760, Note_on_c, 0, 45, 0
2, 221760, Note_on_c, 0, 55, 0
2, 221760, Note_on_c, 0, 66, 74
2, 221760, Note_on_c, 0, 60, 58
2, 221760, Note_on_c, 0, 50, 56
2, 221940, Note_on_c, 0, 66, 0
2, 221940, Note_on_c, 0, 64, 76
2, 222120, Note_on_c, 0, 64, 0
2, 222120, Note_on_c, 0, 50, 0
2, 222120, Note_on_c, 0, 60, 0
2, 222120, Note_on_c, 0, 60, 83
2, 222120, Note_on_c, 0, 64, 83
2, 222120, Note_on_c, 0, 43, 60
2, 222120, Note_on_c, 0, 50, 60
2, 223200, Note_on_c, 0, 50, 0
2, 223200, Note_on_c, 0, 60, 0
2, 223200, Note_on_c, 0, 64, 0
2, 223200, Note_on_c, 0, 43, 0
2, 223200, Note_on_c, 0, 59, 68
2, 223200, Note_on_c, 0, 62, 68
2, 223200, Note_on_c, 0, 43, 45
2, 223200, Note_on_c, 0, 50, 45
2, 223920, Note_on_c, 0, 50, 0
2, 223920, Note_on_c, 0, 59, 0
2, 223920, Note_on_c, 0, 62, 0
2, 223920, Note_on_c, 0, 43, 0
2, 224280, Note_on_c, 0, 78, 47
2, 224460, Note_on_c, 0, 78, 0
2, 224460, Note_on_c, 0, 79, 52
2, 224640, Note_on_c, 0, 79, 0
2, 224640, Note_on_c, 0, 81, 53
2, 224640, Note_on_c, 0, 66, 62
2, 224640, Note_on_c, 0, 50, 41
2, 224640, Note_on_c, 0, 60, 41
2, 224640, Note_on_c, 0, 62, 41
2, 224820, Note_on_c, 0, 81, 0
2, 224820, Note_on_c, 0, 79, 52
2, 225000, Note_on_c, 0, 79, 0
2, 225000, Note_on_c, 0, 78, 49
2, 225180, Note_on_c, 0, 78, 0
2, 225180, Note_on_c, 0, 79, 58
2, 225360, Note_on_c, 0, 79, 0
2, 225360, Note_on_c, 0, 81, 55
2, 225720, Note_on_c, 0, 81, 0
2, 225720, Note_on_c, 0, 60, 0
2, 225720, Note_on_c, 0, 66, 0
2, 225720, Note_on_c, 0, 50, 0
2, 225720, Note_on_c, 0, 62, 0
2, 225720, Note_on_c, 0, 83, 55
2, 225720, Note_on_c, 0, 66, 55
2, 225720, Note_on_c, 0, 50, 50
2, 225720, Note_on_c, 0, 60, 50
2, 225720, Note_on_c, 0, 63, 50
2, 226080, Note_on_c, 0, 63, 0
2, 226080, Note_on_c, 0, 50, 0
2, 226080, Note_on_c, 0, 83, 0
2, 226080, Note_on_c, 0, 66, 0
2, 226080, Note_on_c, 0, 60, 0
2, 226080, Note_on_c, 0, 79, 46
2, 226080, Note_on_c, 0, 67, 57
2, 226080, Note_on_c, 0, 71, 57
2, 226080, Note_on_c, 0, 50, 57
2, 226080, Note_on_c, 0, 55, 57
2, 226080, Note_on_c, 0, 59, 57
2, 226080, Note_on_c, 0, 64, 57
2, 226200, Note_on_c, 0, 79, 0
2, 226200, Note_on_c, 0, 78, 50
2, 226319, Note_on_c, 0, 78, 0
2, 226319, Note_on_c, 0, 76, 47
2, 226440, Note_on_c, 0, 76, 0
2, 226440, Note_on_c, 0, 76, 52
2, 226980, Note_on_c, 0, 76, 0
2, 226980, Note_on_c, 0, 64, 0
2, 226980, Note_on_c, 0, 71, 0
2, 226980, Note_on_c, 0, 50, 0
2, 226980, Note_on_c, 0, 67, 0
2, 226980, Note_on_c, 0, 59, 0
2, 226980, Note_on_c, 0, 55, 0
2, 227160, Note_on_c, 0, 78, 43
2, 227340, Note_on_c, 0, 78, 0
2, 227340, Note_on_c, 0, 79, 51
2, 227520, Note_on_c, 0, 79, 0
2, 227520, Note_on_c, 0, 81, 53
2, 227520, Note_on_c, 0, 66, 45
2, 227520, Note_on_c, 0, 50, 47
2, 227520, Note_on_c, 0, 60, 47
2, 227520, Note_on_c, 0, 62, 47
2, 227700, Note_on_c, 0, 81, 0
2, 227700, Note_on_c, 0, 79, 48
2, 227880, Note_on_c, 0, 79, 0
2, 227880, Note_on_c, 0, 78, 50
2, 228060, Note_on_c, 0, 78, 0
2, 228060, Note_on_c, 0, 79, 56
2, 228240, Note_on_c, 0, 79, 0
2, 228240, Note_on_c, 0, 81, 53
2, 228600, Note_on_c, 0, 81, 0
2, 228600, Note_on_c, 0, 60, 0
2, 228600, Note_on_c, 0, 66, 0
2, 228600, Note_on_c, 0, 50, 0
2, 228600, Note_on_c, 0, 62, 0
2, 228600, Note_on_c, 0, 83, 55
2, 228600, Note_on_c, 0, 66, 51
2, 228600, Note_on_c, 0, 50, 55
2, 228600, Note_on_c, 0, 60, 55
2, 228600, Note_on_c, 0, 63, 55
2, 228960, Note_on_c, 0, 63, 0
2, 228960, Note_on_c, 0, 50, 0
2, 228960, Note_on_c, 0, 83, 0
2, 228960, Note_on_c, 0, 66, 0
2, 228960, Note_on_c, 0, 60, 0
2, 228960, Note_on_c, 0, 69, 39
2, 228960, Note_on_c, 0, 72, 39
2, 228960, Note_on_c, 0, 76, 39
2, 228960, Note_on_c, 0, 50, 53
2, 228960, Note_on_c, 0, 57, 53
2, 228960, Note_on_c, 0, 60, 53
2, 228960, Note_on_c, 0, 64, 53
2, 229860, Note_on_c, 0, 64, 0
2, 229860, Note_on_c, 0, 57, 0
2, 229860, Note_on_c, 0, 72, 0
2, 229860, Note_on_c, 0, 76, 0
2, 229860, Note_on_c, 0, 69, 0
2, 229860, Note_on_c, 0, 60, 0
2, 229860, Note_on_c, 0, 50, 0
2, 230040, Note_on_c, 0, 68, 48
2, 230085, Note_on_c, 0, 68, 0
2, 230085, Note_on_c, 0, 69, 59
2, 230130, Note_on_c, 0, 69, 0
2, 230130, Note_on_c, 0, 68, 44
2, 230175, Note_on_c, 0, 68, 0
2, 230175, Note_on_c, 0, 69, 51
2, 230220, Note_on_c, 0, 69, 0
2, 230220, Note_on_c, 0, 70, 55
2, 230265, Note_on_c, 0, 70, 0
2, 230265, Note_on_c, 0, 71, 55
2, 230310, Note_on_c, 0, 71, 0
2, 230310, Note_on_c, 0, 70, 46
2, 230355, Note_on_c, 0, 70, 0
2, 230355, Note_on_c, 0, 71, 53
2, 230400, Note_on_c, 0, 71, 0
2, 230400, Note_on_c, 0, 72, 56
2, 230445, Note_on_c, 0, 72, 0
2, 230445, Note_on_c, 0, 71, 44
2, 230490, Note_on_c, 0, 71, 0
2, 230490, Note_on_c, 0, 72, 48
2, 230535, Note_on_c, 0, 72, 0
2, 230535, Note_on_c, 0, 71, 47
2, 230580, Note_on_c, 0, 71, 0
2, 230580, Note_on_c, 0, 72, 54
2, 230625, Note_on_c, 0, 72, 0
2, 230625, Note_on_c, 0, 73, 58
2, 230670, Note_on_c, 0, 73, 0
2, 230670, Note_on_c, 0, 72, 52
2, 230715, Note_on_c, 0, 72, 0
2, 230715, Note_on_c, 0, 73, 55
2, 230760, Note_on_c, 0, 73, 0
2, 230760, Note_on_c, 0, 74, 50
2, 230805, Note_on_c, 0, 74, 0
2, 230805, Note_on_c, 0, 73, 49
2, 230850, Note_on_c, 0, 73, 0
2, 230850, Note_on_c, 0, 74, 57
2, 230895, Note_on_c, 0, 74, 0
2, 230895, Note_on_c, 0, 73, 47
2, 230940, Note_on_c, 0, 73, 0
2, 230940, Note_on_c, 0, 74, 54
2, 230985, Note_on_c, 0, 74, 0
2, 230985, Note_on_c, 0, 75, 52
2, 231030, Note_on_c, 0, 75, 0
2, 231030, Note_on_c, 0, 74, 45
2, 231075, Note_on_c, 0, 74, 0
2, 231075, Note_on_c, 0, 75, 51
2, 231120, Note_on_c, 0, 75, 0
2, 231120, Note_on_c, 0, 76, 53
2, 231165, Note_on_c, 0, 76, 0
2, 231165, Note_on_c, 0, 75, 56
2, 231210, Note_on_c, 0, 75, 0
2, 231210, Note_on_c, 0, 76, 54
2, 231255, Note_on_c, 0, 76, 0
2, 231255, Note_on_c, 0, 75, 50
2, 231300, Note_on_c, 0, 75, 0
2, 231300, Note_on_c, 0, 76, 51
2, 231345, Note_on_c, 0, 76, 0
2, 231345, Note_on_c, 0, 77, 52
2, 231390, Note_on_c, 0, 77, 0
2, 231390, Note_on_c, 0, 76, 50
2, 231435, Note_on_c, 0, 76, 0
2, 231435, Note_on_c, 0, 77, 53
2, 231480, Note_on_c, 0, 77, 0
2, 231480, Note_on_c, 0, 78, 50
2, 231525, Note_on_c, 0, 78, 0
2, 231525, Note_on_c, 0, 77, 48
2, 231570, Note_on_c, 0, 77, 0
2, 231570, Note_on_c, 0, 78, 54
2, 231615, Note_on_c, 0, 78, 0
2, 231615, Note_on_c, 0, 77, 51
2, 231660, Note_on_c, 0, 77, 0
2, 231660, Note_on_c, 0, 78, 55
2, 231705, Note_on_c, 0, 78, 0
2, 231705, Note_on_c, 0, 75, 50
2, 231750, Note_on_c, 0, 75, 0
2, 231750, Note_on_c, 0, 74, 48
2, 231795, Note_on_c, 0, 74, 0
2, 231795, Note_on_c, 0, 75, 50
2, 231840, Note_on_c, 0, 75, 0
2, 231840, Note_on_c, 0, 76, 47
2, 231867, Note_on_c, 0, 76, 0
2, 231867, Note_on_c, 0, 70, 43
2, 231895, Note_on_c, 0, 70, 0
2, 231895, Note_on_c, 0, 71, 54
2, 231923, Note_on_c, 0, 71, 0
2, 231923, Note_on_c, 0, 76, 54
2, 231950, Note_on_c, 0, 76, 0
2, 231950, Note_on_c, 0, 79, 52
2, 231978, Note_on_c, 0, 79, 0
2, 231978, Note_on_c, 0, 83, 54
2, 232006, Note_on_c, 0, 83, 0
2, 232006, Note_on_c, 0, 75, 42
2, 232033, Note_on_c, 0, 75, 0
2, 232033, Note_on_c, 0, 76, 50
2, 232061, Note_on_c, 0, 76, 0
2, 232061, Note_on_c, 0, 79, 56
2, 232089, Note_on_c, 0, 79, 0
2, 232089, Note_on_c, 0, 83, 58
2, 232116, Note_on_c, 0, 83, 0
2, 232116, Note_on_c, 0, 88, 58
2, 232144, Note_on_c, 0, 88, 0
2, 232144, Note_on_c, 0, 78, 39
2, 232172, Note_on_c, 0, 78, 0
2, 232172, Note_on_c, 0, 79, 51
2, 232200, Note_on_c, 0, 79, 0
2, 232200, Note_on_c, 0, 83, 53
2, 232226, Note_on_c, 0, 83, 0
2, 232226, Note_on_c, 0, 88, 60
2, 232251, Note_on_c, 0, 88, 0
2, 232251, Note_on_c, 0, 91, 57
2, 232276, Note_on_c, 0, 91, 0
2, 232276, Note_on_c, 0, 82, 39
2, 232303, Note_on_c, 0, 82, 0
2, 232303, Note_on_c, 0, 83, 45
2, 232328, Note_on_c, 0, 83, 0
2, 232328, Note_on_c, 0, 88, 44
2, 232353, Note_on_c, 0, 88, 0
2, 232353, Note_on_c, 0, 91, 50
2, 232380, Note_on_c, 0, 91, 0
2, 232380, Note_on_c, 0, 95, 60
2, 232406, Note_on_c, 0, 95, 0
2, 232406, Note_on_c, 0, 87, 40
2, 232431, Note_on_c, 0, 87, 0
2, 232431, Note_on_c, 0, 88, 51
2, 232456, Note_on_c, 0, 88, 0
2, 232456, Note_on_c, 0, 91, 58
2, 232483, Note_on_c, 0, 91, 0
2, 232483, Note_on_c, 0, 95, 57
2, 232508, Note_on_c, 0, 95, 0
2, 232508, Note_on_c, 0, 100, 63
2, 232533, Note_on_c, 0, 100, 0
2, 232533, Note_on_c, 0, 90, 58
2, 232560, Note_on_c, 0, 90, 0
2, 232560, Note_on_c, 0, 91, 45
2, 232740, Note_on_c, 0, 91, 0
2, 232920, Note_on_c, 0, 68, 41
2, 232965, Note_on_c, 0, 68, 0
2, 232965, Note_on_c, 0, 69, 52
2, 233010, Note_on_c, 0, 69, 0
2, 233010, Note_on_c, 0, 68, 46
2, 233055, Note_on_c, 0, 68, 0
2, 233055, Note_on_c, 0, 69, 53
2, 233100, Note_on_c, 0, 69, 0
2, 233100, Note_on_c, 0, 70, 50
2, 233145, Note_on_c, 0, 70, 0
2, 233145, Note_on_c, 0, 71, 49
2, 233190, Note_on_c, 0, 71, 0
2, 233190, Note_on_c, 0, 70, 51
2, 233235, Note_on_c, 0, 70, 0
2, 233235, Note_on_c, 0, 71, 48
2, 233280, Note_on_c, 0, 71, 0
2, 233280, Note_on_c, 0, 72, 54
2, 233325, Note_on_c, 0, 72, 0
2, 233325, Note_on_c, 0, 71, 47
2, 233370, Note_on_c, 0, 71, 0
2, 233370, Note_on_c, 0, 72, 50
2, 233415, Note_on_c, 0, 72, 0
2, 233415, Note_on_c, 0, 71, 46
2, 233460, Note_on_c, 0, 71, 0
2, 233460, Note_on_c, 0, 72, 51
2, 233505, Note_on_c, 0, 72, 0
2, 233505, Note_on_c, 0, 73, 56
2, 233550, Note_on_c, 0, 73, 0
2, 233550, Note_on_c, 0, 72, 44
2, 233595, Note_on_c, 0, 72, 0
2, 233595, Note_on_c, 0, 73, 52
2, 233640, Note_on_c, 0, 73, 0
2, 233640, Note_on_c, 0, 74, 57
2, 233685, Note_on_c, 0, 74, 0
2, 233685, Note_on_c, 0, 73, 49
2, 233730, Note_on_c, 0, 73, 0
2, 233730, Note_on_c, 0, 74, 50
2, 233775, Note_on_c, 0, 74, 0
2, 233775, Note_on_c, 0, 73, 48
2, 233820, Note_on_c, 0, 73, 0
2, 233820, Note_on_c, 0, 74, 53
2, 233865, Note_on_c, 0, 74, 0
2, 233865, Note_on_c, 0, 75, 49
2, 233910, Note_on_c, 0, 75, 0
2, 233910, Note_on_c, 0, 74, 49
2, 233955, Note_on_c, 0, 74, 0
2, 233955, Note_on_c, 0, 75, 51
2, 234000, Note_on_c, 0, 75, 0
2, 234000, Note_on_c, 0, 76, 54
2, 234045, Note_on_c, 0, 76, 0
2, 234045, Note_on_c, 0, 75, 45
2, 234090, Note_on_c, 0, 75, 0
2, 234090, Note_on_c, 0, 76, 52
2, 234135, Note_on_c, 0, 76, 0
2, 234135, Note_on_c, 0, 75, 50
2, 234180, Note_on_c, 0, 75, 0
2, 234180, Note_on_c, 0, 76, 53
2, 234225, Note_on_c, 0, 76, 0
2, 234225, Note_on_c, 0, 77, 56
2, 234270, Note_on_c, 0, 77, 0
2, 234270, Note_on_c, 0, 76, 46
2, 234315, Note_on_c, 0, 76, 0
2, 234315, Note_on_c, 0, 77, 49
2, 234360, Note_on_c, 0, 77, 0
2, 234360, Note_on_c, 0, 78, 55
2, 234405, Note_on_c, 0, 78, 0
2, 234405, Note_on_c, 0, 77, 51
2, 234450, Note_on_c, 0, 77, 0
2, 234450, Note_on_c, 0, 78, 54
2, 234495, Note_on_c, 0, 78, 0
2, 234495, Note_on_c, 0, 77, 46
2, 234540, Note_on_c, 0, 77, 0
2, 234540, Note_on_c, 0, 78, 50
2, 234585, Note_on_c, 0, 78, 0
2, 234585, Note_on_c, 0, 75, 49
2, 234630, Note_on_c, 0, 75, 0
2, 234630, Note_on_c, 0, 74, 48
2, 234675, Note_on_c, 0, 74, 0
2, 234675, Note_on_c, 0, 75, 53
2, 234720, Note_on_c, 0, 75, 0
2, 234720, Note_on_c, 0, 76, 44
2, 234752, Note_on_c, 0, 76, 0
2, 234752, Note_on_c, 0, 68, 39
2, 234785, Note_on_c, 0, 68, 0
2, 234785, Note_on_c, 0, 69, 47
2, 234817, Note_on_c, 0, 69, 0
2, 234817, Note_on_c, 0, 72, 55
2, 234851, Note_on_c, 0, 72, 0
2, 234851, Note_on_c, 0, 76, 58
2, 234883, Note_on_c, 0, 76, 0
2, 234883, Note_on_c, 0, 81, 55
2, 234915, Note_on_c, 0, 81, 0
2, 234915, Note_on_c, 0, 71, 40
2, 234948, Note_on_c, 0, 71, 0
2, 234948, Note_on_c, 0, 72, 49
2, 234982, Note_on_c, 0, 72, 0
2, 234982, Note_on_c, 0, 76, 54
2, 235014, Note_on_c, 0, 76, 0
2, 235014, Note_on_c, 0, 81, 58
2, 235046, Note_on_c, 0, 81, 0
2, 235046, Note_on_c, 0, 84, 54
2, 235080, Note_on_c, 0, 84, 0
2, 235080, Note_on_c, 0, 75, 38
2, 235115, Note_on_c, 0, 75, 0
2, 235115, Note_on_c, 0, 76, 48
2, 235152, Note_on_c, 0, 76, 0
2, 235152, Note_on_c, 0, 81, 57
2, 235187, Note_on_c, 0, 81, 0
2, 235187, Note_on_c, 0, 84, 52
2, 235224, Note_on_c, 0, 84, 0
2, 235224, Note_on_c, 0, 88, 58
2, 235260, Note_on_c, 0, 88, 0
2, 235260, Note_on_c, 0, 80, 44
2, 235295, Note_on_c, 0, 80, 0
2, 235295, Note_on_c, 0, 81, 54
2, 235332, Note_on_c, 0, 81, 0
2, 235332, Note_on_c, 0, 84, 58
2, 235367, Note_on_c, 0, 84, 0
2, 235367, Note_on_c, 0, 88, 61
2, 235404, Note_on_c, 0, 88, 0
2, 235404, Note_on_c, 0, 93, 55
2, 235440, Note_on_c, 0, 93, 0
2, 235440, Note_on_c, 0, 83, 40
2, 235475, Note_on_c, 0, 83, 0
2, 235475, Note_on_c, 0, 84, 53
2, 235512, Note_on_c, 0, 84, 0
2, 235512, Note_on_c, 0, 88, 63
2, 235547, Note_on_c, 0, 88, 0
2, 235547, Note_on_c, 0, 93, 59
2, 235584, Note_on_c, 0, 93, 0
2, 235584, Note_on_c, 0, 96, 55
2, 235620, Note_on_c, 0, 96, 0
2, 235620, Note_on_c, 0, 87, 42
2, 235655, Note_on_c, 0, 87, 0
2, 235655, Note_on_c, 0, 88, 52
2, 235692, Note_on_c, 0, 88, 0
2, 235692, Note_on_c, 0, 93, 55
2, 235727, Note_on_c, 0, 93, 0
2, 235727, Note_on_c, 0, 96, 57
2, 235764, Note_on_c, 0, 96, 0
2, 235764, Note_on_c, 0, 100, 61
2, 235800, Note_on_c, 0, 100, 0
2, 235800, Note_on_c, 0, 92, 43
2, 235845, Note_on_c, 0, 92, 0
2, 235845, Note_on_c, 0, 93, 51
2, 235890, Note_on_c, 0, 93, 0
2, 235890, Note_on_c, 0, 96, 52
2, 235935, Note_on_c, 0, 96, 0
2, 235935, Note_on_c, 0, 100, 53
2, 235980, Note_on_c, 0, 100, 0
2, 235980, Note_on_c, 0, 105, 62
2, 236025, Note_on_c, 0, 105, 0
2, 236025, Note_on_c, 0, 95, 38
2, 236070, Note_on_c, 0, 95, 0
2, 236070, Note_on_c, 0, 96, 53
2, 236115, Note_on_c, 0, 96, 0
2, 236115, Note_on_c, 0, 100, 53
2, 236160, Note_on_c, 0, 100, 0
2, 236160, Note_on_c, 0, 105, 60
2, 236205, Note_on_c, 0, 105, 0
2, 236205, Note_on_c, 0, 95, 40
2, 236250, Note_on_c, 0, 95, 0
2, 236250, Note_on_c, 0, 96, 49
2, 236295, Note_on_c, 0, 96, 0
2, 236295, Note_on_c, 0, 100, 58
2, 236340, Note_on_c, 0, 100, 0
2, 236340, Note_on_c, 0, 105, 58
2, 236385, Note_on_c, 0, 105, 0
2, 236385, Note_on_c, 0, 95, 42
2, 236430, Note_on_c, 0, 95, 0
2, 236430, Note_on_c, 0, 96, 51
2, 236475, Note_on_c, 0, 96, 0
2, 236475, Note_on_c, 0, 100, 56
2, 236520, Note_on_c, 0, 100, 0
2, 236520, Note_on_c, 0, 105, 59
2, 236565, Note_on_c, 0, 105, 0
2, 236565, Note_on_c, 0, 95, 40
2, 236610, Note_on_c, 0, 95, 0
2, 236610, Note_on_c, 0, 96, 50
2, 236655, Note_on_c, 0, 96, 0
2, 236655, Note_on_c, 0, 100, 56
2, 236700, Note_on_c, 0, 100, 0
2, 236700, Note_on_c, 0, 105, 61
2, 236745, Note_on_c, 0, 105, 0
2, 236745, Note_on_c, 0, 95, 42
2, 236790, Note_on_c, 0, 95, 0
2, 236790, Note_on_c, 0, 96, 49
2, 236835, Note_on_c, 0, 96, 0
2, 236835, Note_on_c, 0, 100, 58
2, 236880, Note_on_c, 0, 100, 0
2, 236880, Note_on_c, 0, 105, 60
2, 236925, Note_on_c, 0, 105, 0
2, 236925, Note_on_c, 0, 95, 38
2, 236970, Note_on_c, 0, 95, 0
2, 236970, Note_on_c, 0, 96, 54
2, 237015, Note_on_c, 0, 96, 0
2, 237015, Note_on_c, 0, 100, 56
2, 237060, Note_on_c, 0, 100, 0
2, 237060, Note_on_c, 0, 105, 55
2, 237105, Note_on_c, 0, 105, 0
2, 237105, Note_on_c, 0, 95, 39
2, 237150, Note_on_c, 0, 95, 0
2, 237150, Note_on_c, 0, 96, 51
2, 237195, Note_on_c, 0, 96, 0
2, 237195, Note_on_c, 0, 100, 54
2, 237240, Note_on_c, 0, 100, 0
2, 237240, Note_on_c, 0, 105, 55
2, 237285, Note_on_c, 0, 105, 0
2, 237285, Note_on_c, 0, 95, 39
2, 237330, Note_on_c, 0, 95, 0
2, 237330, Note_on_c, 0, 96, 54
2, 237375, Note_on_c, 0, 96, 0
2, 237375, Note_on_c, 0, 100, 56
2, 237420, Note_on_c, 0, 100, 0
2, 237420, Note_on_c, 0, 105, 57
2, 237465, Note_on_c, 0, 105, 0
2, 237465, Note_on_c, 0, 95, 38
2, 237510, Note_on_c, 0, 95, 0
2, 237510, Note_on_c, 0, 96, 51
2, 237555, Note_on_c, 0, 96, 0
2, 237555, Note_on_c, 0, 100, 59
2, 237600, Note_on_c, 0, 100, 0
2, 237600, Note_on_c, 0, 102, 57
2, 237600, Note_on_c, 0, 105, 57
2, 237600, Note_on_c, 0, 26, 42
2, 237659, Note_on_c, 0, 105, 0
2, 237659, Note_on_c, 0, 102, 0
2, 237659, Note_on_c, 0, 100, 44
2, 237690, Note_on_c, 0, 26, 0
2, 237690, Note_on_c, 0, 38, 58
2, 237720, Note_on_c, 0, 100, 0
2, 237720, Note_on_c, 0, 98, 44
2, 237780, Note_on_c, 0, 98, 0
2, 237780, Note_on_c, 0, 38, 0
2, 237780, Note_on_c, 0, 96, 47
2, 237780, Note_on_c, 0, 45, 56
2, 237839, Note_on_c, 0, 96, 0
2, 237839, Note_on_c, 0, 95, 46
2, 237870, Note_on_c, 0, 45, 0
2, 237870, Note_on_c, 0, 52, 58
2, 237900, Note_on_c, 0, 95, 0
2, 237900, Note_on_c, 0, 93, 44
2, 237960, Note_on_c, 0, 93, 0
2, 237960, Note_on_c, 0, 52, 0
2, 237960, Note_on_c, 0, 96, 61
2, 237960, Note_on_c, 0, 100, 61
2, 237960, Note_on_c, 0, 54, 50
2, 238019, Note_on_c, 0, 100, 0
2, 238019, Note_on_c, 0, 96, 0
2, 238019, Note_on_c, 0, 95, 43
2, 238050, Note_on_c, 0, 54, 0
2, 238050, Note_on_c, 0, 57, 53
2, 238080, Note_on_c, 0, 95, 0
2, 238080, Note_on_c, 0, 93, 41
2, 238140, Note_on_c, 0, 93, 0
2, 238140, Note_on_c, 0, 57, 0
2, 238140, Note_on_c, 0, 91, 45
2, 238140, Note_on_c, 0, 60, 57
2, 238199, Note_on_c, 0, 91, 0
2, 238199, Note_on_c, 0, 90, 46
2, 238230, Note_on_c, 0, 60, 0
2, 238230, Note_on_c, 0, 64, 57
2, 238260, Note_on_c, 0, 90, 0
2, 238260, Note_on_c, 0, 88, 43
2, 238320, Note_on_c, 0, 88, 0
2, 238320, Note_on_c, 0, 64, 0
2, 238320, Note_on_c, 0, 93, 61
2, 238320, Note_on_c, 0, 96, 61
2, 238320, Note_on_c, 0, 66, 51
2, 238379, Note_on_c, 0, 96, 0
2, 238379, Note_on_c, 0, 93, 0
2, 238379, Note_on_c, 0, 91, 50
2, 238410, Note_on_c, 0, 66, 0
2, 238410, Note_on_c, 0, 69, 57
2, 238440, Note_on_c, 0, 91, 0
2, 238440, Note_on_c, 0, 90, 43
2, 238500, Note_on_c, 0, 90, 0
2, 238500, Note_on_c, 0, 69, 0
2, 238500, Note_on_c, 0, 88, 43
2, 238500, Note_on_c, 0, 72, 62
2, 238559, Note_on_c, 0, 88, 0
2, 238559, Note_on_c, 0, 86, 49
2, 238590, Note_on_c, 0, 72, 0
2, 238590, Note_on_c, 0, 76, 60
2, 238620, Note_on_c, 0, 86, 0
2, 238620, Note_on_c, 0, 84, 45
2, 238680, Note_on_c, 0, 84, 0
2, 238680, Note_on_c, 0, 76, 0
2, 238680, Note_on_c, 0, 90, 70
2, 238680, Note_on_c, 0, 93, 70
2, 238680, Note_on_c, 0, 81, 56
2, 238739, Note_on_c, 0, 93, 0
2, 238739, Note_on_c, 0, 90, 0
2, 238739, Note_on_c, 0, 88, 51
2, 238800, Note_on_c, 0, 88, 0
2, 238800, Note_on_c, 0, 86, 42
2, 238860, Note_on_c, 0, 86, 0
2, 238860, Note_on_c, 0, 84, 47
2, 238919, Note_on_c, 0, 84, 0
2, 238919, Note_on_c, 0, 83, 50
2, 238980, Note_on_c, 0, 83, 0
2, 238980, Note_on_c, 0, 81, 47
2, 239040, Note_on_c, 0, 81, 0
2, 239040, Note_on_c, 0, 81, 0
2, 239040, Note_on_c, 0, 85, 63
2, 239040, Note_on_c, 0, 88, 63
2, 239040, Note_on_c, 0, 38, 40
2, 239099, Note_on_c, 0, 88, 0
2, 239099, Note_on_c, 0, 85, 0
2, 239099, Note_on_c, 0, 83, 50
2, 239130, Note_on_c, 0, 38, 0
2, 239130, Note_on_c, 0, 50, 52
2, 239160, Note_on_c, 0, 83, 0
2, 239160, Note_on_c, 0, 82, 47
2, 239220, Note_on_c, 0, 82, 0
2, 239220, Note_on_c, 0, 50, 0
2, 239220, Note_on_c, 0, 81, 44
2, 239220, Note_on_c, 0, 55, 55
2, 239279, Note_on_c, 0, 81, 0
2, 239279, Note_on_c, 0, 80, 45
2, 239310, Note_on_c, 0, 55, 0
2, 239310, Note_on_c, 0, 58, 51
2, 239340, Note_on_c, 0, 80, 0
2, 239340, Note_on_c, 0, 79, 51
2, 239400, Note_on_c, 0, 79, 0
2, 239400, Note_on_c, 0, 58, 0
2, 239400, Note_on_c, 0, 82, 56
2, 239400, Note_on_c, 0, 85, 56
2, 239400, Note_on_c, 0, 61, 56
2, 239459, Note_on_c, 0, 85, 0
2, 239459, Note_on_c, 0, 82, 0
2, 239459, Note_on_c, 0, 81, 43
2, 239520, Note_on_c, 0, 81, 0
2, 239520, Note_on_c, 0, 61, 0
2, 239520, Note_on_c, 0, 79, 50
2, 239520, Note_on_c, 0, 64, 58
2, 239580, Note_on_c, 0, 79, 0
2, 239580, Note_on_c, 0, 78, 47
2, 239639, Note_on_c, 0, 78, 0
2, 239639, Note_on_c, 0, 64, 0
2, 239639, Note_on_c, 0, 77, 49
2, 239639, Note_on_c, 0, 67, 54
2, 239700, Note_on_c, 0, 77, 0
2, 239700, Note_on_c, 0, 76, 50
2, 239760, Note_on_c, 0, 76, 0
2, 239760, Note_on_c, 0, 67, 0
2, 239760, Note_on_c, 0, 79, 57
2, 239760, Note_on_c, 0, 82, 57
2, 239760, Note_on_c, 0, 70, 58
2, 239819, Note_on_c, 0, 82, 0
2, 239819, Note_on_c, 0, 79, 0
2, 239819, Note_on_c, 0, 77, 39
2, 239880, Note_on_c, 0, 77, 0
2, 239880, Note_on_c, 0, 76, 47
2, 239940, Note_on_c, 0, 76, 0
2, 239940, Note_on_c, 0, 75, 49
2, 239999, Note_on_c, 0, 75, 0
2, 239999, Note_on_c, 0, 74, 47
2, 240060, Note_on_c, 0, 74, 0
2, 240060, Note_on_c, 0, 73, 46
2, 240120, Note_on_c, 0, 73, 0
2, 240120, Note_on_c, 0, 70, 0
2, 240120, Note_on_c, 0, 76, 57
2, 240120, Note_on_c, 0, 79, 57
2, 240179, Note_on_c, 0, 79, 0
2, 240179, Note_on_c, 0, 76, 0
2, 240179, Note_on_c, 0, 73, 43
2, 240240, Note_on_c, 0, 73, 0
2, 240240, Note_on_c, 0, 74, 54
2, 240300, Note_on_c, 0, 74, 0
2, 240300, Note_on_c, 0, 75, 56
2, 240359, Note_on_c, 0, 75, 0
2, 240359, Note_on_c, 0, 76, 50
2, 240420, Note_on_c, 0, 76, 0
2, 240420, Note_on_c, 0, 77, 49
2, 240480, Note_on_c, 0, 77, 0
2, 240480, Note_on_c, 0, 78, 56
2, 240480, Note_on_c, 0, 81, 56
2, 240480, Note_on_c, 0, 26, 42
2, 240539, Note_on_c, 0, 81, 0
2, 240539, Note_on_c, 0, 78, 0
2, 240539, Note_on_c, 0, 76, 43
2, 240600, Note_on_c, 0, 76, 0
2, 240600, Note_on_c, 0, 26, 0
2, 240600, Note_on_c, 0, 74, 47
2, 240600, Note_on_c, 0, 38, 53
2, 240660, Note_on_c, 0, 74, 0
2, 240660, Note_on_c, 0, 72, 52
2, 240719, Note_on_c, 0, 72, 0
2, 240719, Note_on_c, 0, 38, 0
2, 240719, Note_on_c, 0, 71, 47
2, 240719, Note_on_c, 0, 45, 56
2, 240780, Note_on_c, 0, 71, 0
2, 240780, Note_on_c, 0, 69, 44
2, 240840, Note_on_c, 0, 69, 0
2, 240840, Note_on_c, 0, 45, 0
2, 240840, Note_on_c, 0, 72, 56
2, 240840, Note_on_c, 0, 76, 56
2, 240840, Note_on_c, 0, 52, 60
2, 240899, Note_on_c, 0, 76, 0
2, 240899, Note_on_c, 0, 72, 0
2, 240899, Note_on_c, 0, 71, 45
2, 240960, Note_on_c, 0, 71, 0
2, 240960, Note_on_c, 0, 52, 0
2, 240960, Note_on_c, 0, 69, 49
2, 240960, Note_on_c, 0, 54, 53
2, 241020, Note_on_c, 0, 69, 0
2, 241020, Note_on_c, 0, 67, 50
2, 241079, Note_on_c, 0, 67, 0
2, 241079, Note_on_c, 0, 54, 0
2, 241079, Note_on_c, 0, 66, 49
2, 241079, Note_on_c, 0, 57, 50
2, 241140, Note_on_c, 0, 66, 0
2, 241140, Note_on_c, 0, 64, 47
2, 241200, Note_on_c, 0, 64, 0
2, 241200, Note_on_c, 0, 57, 0
2, 241200, Note_on_c, 0, 69, 60
2, 241200, Note_on_c, 0, 72, 60
2, 241200, Note_on_c, 0, 60, 58
2, 241259, Note_on_c, 0, 72, 0
2, 241259, Note_on_c, 0, 69, 0
2, 241259, Note_on_c, 0, 67, 45
2, 241320, Note_on_c, 0, 67, 0
2, 241320, Note_on_c, 0, 66, 47
2, 241380, Note_on_c, 0, 66, 0
2, 241380, Note_on_c, 0, 64, 52
2, 241439, Note_on_c, 0, 64, 0
2, 241439, Note_on_c, 0, 62, 47
2, 241500, Note_on_c, 0, 62, 0
2, 241500, Note_on_c, 0, 60, 50
2, 241560, Note_on_c, 0, 60, 0
2, 241560, Note_on_c, 0, 60, 0
2, 241560, Note_on_c, 0, 66, 59
2, 241560, Note_on_c, 0, 69, 59
2, 241619, Note_on_c, 0, 69, 0
2, 241619, Note_on_c, 0, 66, 0
2, 241619, Note_on_c, 0, 64, 43
2, 241680, Note_on_c, 0, 64, 0
2, 241680, Note_on_c, 0, 62, 40
2, 241740, Note_on_c, 0, 62, 0
2, 241740, Note_on_c, 0, 60, 49
2, 241799, Note_on_c, 0, 60, 0
2, 241799, Note_on_c, 0, 59, 50
2, 241860, Note_on_c, 0, 59, 0
2, 241860, Note_on_c, 0, 57, 51
2, 241920, Note_on_c, 0, 57, 0
2, 241920, Note_on_c, 0, 61, 65
2, 241920, Note_on_c, 0, 64, 65
2, 241920, Note_on_c, 0, 38, 43
2, 241979, Note_on_c, 0, 64, 0
2, 241979, Note_on_c, 0, 61, 0
2, 241979, Note_on_c, 0, 59, 49
2, 242040, Note_on_c, 0, 59, 0
2, 242040, Note_on_c, 0, 38, 0
2, 242040, Note_on_c, 0, 58, 51
2, 242040, Note_on_c, 0, 43, 51
2, 242100, Note_on_c, 0, 58, 0
2, 242100, Note_on_c, 0, 57, 49
2, 242159, Note_on_c, 0, 57, 0
2, 242159, Note_on_c, 0, 43, 0
2, 242159, Note_on_c, 0, 56, 50
2, 242159, Note_on_c, 0, 46, 51
2, 242220, Note_on_c, 0, 56, 0
2, 242220, Note_on_c, 0, 55, 52
2, 242280, Note_on_c, 0, 55, 0
2, 242280, Note_on_c, 0, 46, 0
2, 242280, Note_on_c, 0, 58, 57
2, 242280, Note_on_c, 0, 61, 57
2, 242280, Note_on_c, 0, 49, 53
2, 242339, Note_on_c, 0, 61, 0
2, 242339, Note_on_c, 0, 58, 0
2, 242339, Note_on_c, 0, 57, 52
2, 242400, Note_on_c, 0, 57, 0
2, 242400, Note_on_c, 0, 55, 47
2, 242460, Note_on_c, 0, 55, 0
2, 242460, Note_on_c, 0, 54, 50
2, 242519, Note_on_c, 0, 54, 0
2, 242519, Note_on_c, 0, 53, 48
2, 242580, Note_on_c, 0, 53, 0
2, 242580, Note_on_c, 0, 52, 49
2, 242640, Note_on_c, 0, 52, 0
2, 242640, Note_on_c, 0, 49, 0
2, 242640, Note_on_c, 0, 55, 60
2, 242640, Note_on_c, 0, 58, 60
2, 242699, Note_on_c, 0, 58, 0
2, 242699, Note_on_c, 0, 55, 0
2, 242699, Note_on_c, 0, 54, 48
2, 242760, Note_on_c, 0, 54, 0
2, 242760, Note_on_c, 0, 52, 48
2, 242820, Note_on_c, 0, 52, 0
2, 242820, Note_on_c, 0, 51, 45
2, 242879, Note_on_c, 0, 51, 0
2, 242879, Note_on_c, 0, 50, 47
2, 242940, Note_on_c, 0, 50, 0
2, 242940, Note_on_c, 0, 49, 51
2, 243000, Note_on_c, 0, 49, 0
2, 243000, Note_on_c, 0, 52, 51
2, 243000, Note_on_c, 0, 55, 51
2, 243059, Note_on_c, 0, 55, 0
2, 243059, Note_on_c, 0, 52, 0
2, 243059, Note_on_c, 0, 49, 49
2, 243120, Note_on_c, 0, 49, 0
2, 243120, Note_on_c, 0, 50, 50
2, 243180, Note_on_c, 0, 50, 0
2, 243180, Note_on_c, 0, 51, 51
2, 243239, Note_on_c, 0, 51, 0
2, 243239, Note_on_c, 0, 52, 49
2, 243300, Note_on_c, 0, 52, 0
2, 243300, Note_on_c, 0, 53, 54
2, 243360, Note_on_c, 0, 53, 0
2, 243360, Note_on_c, 0, 54, 54
2, 243360, Note_on_c, 0, 57, 54
2, 243360, Note_on_c, 0, 26, 43
2, 243360, Note_on_c, 0, 38, 43
2, 243720, Note_on_c, 0, 57, 0
2, 243720, Note_on_c, 0, 54, 0
2, 243720, Note_on_c, 0, 60, 77
2, 243720, Note_on_c, 0, 52, 50
2, 243752, Note_on_c, 0, 52, 0
2, 243752, Note_on_c, 0, 60, 0
2, 243752, Note_on_c, 0, 64, 79
2, 243752, Note_on_c, 0, 54, 52
2, 243785, Note_on_c, 0, 54, 0
2, 243785, Note_on_c, 0, 64, 0
2, 243785, Note_on_c, 0, 66, 77
2, 243785, Note_on_c, 0, 57, 53
2, 243817, Note_on_c, 0, 57, 0
2, 243817, Note_on_c, 0, 66, 0
2, 243817, Note_on_c, 0, 69, 78
2, 243817, Note_on_c, 0, 60, 53
2, 243851, Note_on_c, 0, 60, 0
2, 243851, Note_on_c, 0, 69, 0
2, 243851, Note_on_c, 0, 72, 79
2, 243851, Note_on_c, 0, 64, 59
2, 243883, Note_on_c, 0, 64, 0
2, 243883, Note_on_c, 0, 72, 0
2, 243883, Note_on_c, 0, 76, 81
2, 243883, Note_on_c, 0, 66, 51
2, 243915, Note_on_c, 0, 66, 0
2, 243915, Note_on_c, 0, 76, 0
2, 243915, Note_on_c, 0, 78, 80
2, 243915, Note_on_c, 0, 69, 57
2, 243948, Note_on_c, 0, 69, 0
2, 243948, Note_on_c, 0, 78, 0
2, 243948, Note_on_c, 0, 81, 73
2, 243948, Note_on_c, 0, 72, 54
2, 243982, Note_on_c, 0, 72, 0
2, 243982, Note_on_c, 0, 81, 0
2, 243982, Note_on_c, 0, 84, 81
2, 243982, Note_on_c, 0, 76, 56
2, 244014, Note_on_c, 0, 76, 0
2, 244014, Note_on_c, 0, 84, 0
2, 244014, Note_on_c, 0, 88, 75
2, 244014, Note_on_c, 0, 78, 53
2, 244046, Note_on_c, 0, 78, 0
2, 244046, Note_on_c, 0, 88, 0
2, 244046, Note_on_c, 0, 90, 76
2, 244046, Note_on_c, 0, 81, 59
2, 244080, Note_on_c, 0, 81, 0
2, 244080, Note_on_c, 0, 90, 0
2, 244080, Note_on_c, 0, 93, 77
2, 244080, Note_on_c, 0, 84, 55
2, 244112, Note_on_c, 0, 84, 0
2, 244112, Note_on_c, 0, 93, 0
2, 244112, Note_on_c, 0, 90, 65
2, 244112, Note_on_c, 0, 81, 47
2, 244145, Note_on_c, 0, 81, 0
2, 244145, Note_on_c, 0, 90, 0
2, 244145, Note_on_c, 0, 88, 68
2, 244145, Note_on_c, 0, 78, 47
2, 244177, Note_on_c, 0, 78, 0
2, 244177, Note_on_c, 0, 88, 0
2, 244177, Note_on_c, 0, 84, 65
2, 244177, Note_on_c, 0, 76, 50
2, 244211, Note_on_c, 0, 76, 0
2, 244211, Note_on_c, 0, 84, 0
2, 244211, Note_on_c, 0, 81, 63
2, 244211, Note_on_c, 0, 72, 47
2, 244243, Note_on_c, 0, 72, 0
2, 244243, Note_on_c, 0, 81, 0
2, 244243, Note_on_c, 0, 78, 65
2, 244243, Note_on_c, 0, 69, 43
2, 244275, Note_on_c, 0, 69, 0
2, 244275, Note_on_c, 0, 78, 0
2, 244275, Note_on_c, 0, 76, 67
2, 244275, Note_on_c, 0, 66, 47
2, 244308, Note_on_c, 0, 66, 0
2, 244308, Note_on_c, 0, 76, 0
2, 244308, Note_on_c, 0, 72, 62
2, 244308, Note_on_c, 0, 64, 40
2, 244342, Note_on_c, 0, 64, 0
2, 244342, Note_on_c, 0, 72, 0
2, 244342, Note_on_c, 0, 69, 64
2, 244342, Note_on_c, 0, 60, 44
2, 244374, Note_on_c, 0, 60, 0
2, 244374, Note_on_c, 0, 69, 0
2, 244374, Note_on_c, 0, 66, 61
2, 244374, Note_on_c, 0, 57, 49
2, 244406, Note_on_c, 0, 57, 0
2, 244406, Note_on_c, 0, 66, 0
2, 244406, Note_on_c, 0, 64, 68
2, 244406, Note_on_c, 0, 54, 45
2, 244440, Note_on_c, 0, 54, 0
2, 244440, Note_on_c, 0, 64, 0
2, 244440, Note_on_c, 0, 60, 66
2, 244440, Note_on_c, 0, 52, 45
2, 244472, Note_on_c, 0, 52, 0
2, 244472, Note_on_c, 0, 60, 0
2, 244472, Note_on_c, 0, 64, 75
2, 244472, Note_on_c, 0, 54, 56
2, 244505, Note_on_c, 0, 54, 0
2, 244505, Note_on_c, 0, 64, 0
2, 244505, Note_on_c, 0, 66, 80
2, 244505, Note_on_c, 0, 57, 52
2, 244537, Note_on_c, 0, 57, 0
2, 244537, Note_on_c, 0, 66, 0
2, 244537, Note_on_c, 0, 69, 81
2, 244537, Note_on_c, 0, 60, 54
2, 244571, Note_on_c, 0, 60, 0
2, 244571, Note_on_c, 0, 69, 0
2, 244571, Note_on_c, 0, 72, 75
2, 244571, Note_on_c, 0, 64, 58
2, 244603, Note_on_c, 0, 64, 0
2, 244603, Note_on_c, 0, 72, 0
2, 244603, Note_on_c, 0, 76, 77
2, 244603, Note_on_c, 0, 66, 54
2, 244635, Note_on_c, 0, 66, 0
2, 244635, Note_on_c, 0, 76, 0
2, 244635, Note_on_c, 0, 78, 76
2, 244635, Note_on_c, 0, 69, 56
2, 244668, Note_on_c, 0, 69, 0
2, 244668, Note_on_c, 0, 78, 0
2, 244668, Note_on_c, 0, 81, 76
2, 244668, Note_on_c, 0, 72, 56
2, 244702, Note_on_c, 0, 72, 0
2, 244702, Note_on_c, 0, 81, 0
2, 244702, Note_on_c, 0, 84, 76
2, 244702, Note_on_c, 0, 76, 58
2, 244734, Note_on_c, 0, 76, 0
2, 244734, Note_on_c, 0, 84, 0
2, 244734, Note_on_c, 0, 88, 82
2, 244734, Note_on_c, 0, 78, 52
2, 244766, Note_on_c, 0, 78, 0
2, 244766, Note_on_c, 0, 88, 0
2, 244766, Note_on_c, 0, 90, 84
2, 244766, Note_on_c, 0, 81, 60
2, 244800, Note_on_c, 0, 81, 0
2, 244800, Note_on_c, 0, 38, 0
2, 244800, Note_on_c, 0, 26, 0
2, 244800, Note_on_c, 0, 90, 0
2, 244800, Note_on_c, 0, 93, 80
2, 244800, Note_on_c, 0, 84, 58
2, 244832, Note_on_c, 0, 84, 0
2, 244832, Note_on_c, 0, 93, 0
2, 244832, Note_on_c, 0, 90, 67
2, 244832, Note_on_c, 0, 81, 48
2, 244865, Note_on_c, 0, 81, 0
2, 244865, Note_on_c, 0, 90, 0
2, 244865, Note_on_c, 0, 88, 64
2, 244865, Note_on_c, 0, 78, 45
2, 244897, Note_on_c, 0, 78, 0
2, 244897, Note_on_c, 0, 88, 0
2, 244897, Note_on_c, 0, 84, 64
2, 244897, Note_on_c, 0, 76, 44
2, 244931, Note_on_c, 0, 76, 0
2, 244931, Note_on_c, 0, 84, 0
2, 244931, Note_on_c, 0, 81, 64
2, 244931, Note_on_c, 0, 72, 44
2, 244963, Note_on_c, 0, 72, 0
2, 244963, Note_on_c, 0, 81, 0
2, 244963, Note_on_c, 0, 78, 64
2, 244963, Note_on_c, 0, 69, 45
2, 244995, Note_on_c, 0, 69, 0
2, 244995, Note_on_c, 0, 78, 0
2, 244995, Note_on_c, 0, 76, 65
2, 244995, Note_on_c, 0, 66, 48
2, 245028, Note_on_c, 0, 66, 0
2, 245028, Note_on_c, 0, 76, 0
2, 245028, Note_on_c, 0, 72, 61
2, 245028, Note_on_c, 0, 64, 43
2, 245062, Note_on_c, 0, 64, 0
2, 245062, Note_on_c, 0, 72, 0
2, 245062, Note_on_c, 0, 69, 58
2, 245062, Note_on_c, 0, 60, 46
2, 245094, Note_on_c, 0, 60, 0
2, 245094, Note_on_c, 0, 69, 0
2, 245094, Note_on_c, 0, 66, 67
2, 245094, Note_on_c, 0, 57, 46
2, 245126, Note_on_c, 0, 57, 0
2, 245126, Note_on_c, 0, 66, 0
2, 245126, Note_on_c, 0, 64, 66
2, 245126, Note_on_c, 0, 54, 48
2, 245160, Note_on_c, 0, 54, 0
2, 245160, Note_on_c, 0, 64, 0
2, 245160, Note_on_c, 0, 60, 63
2, 245160, Note_on_c, 0, 52, 48
2, 245184, Note_on_c, 0, 52, 0
2, 245184, Note_on_c, 0, 60, 0
2, 245184, Note_on_c, 0, 64, 83
2, 245184, Note_on_c, 0, 54, 52
2, 245208, Note_on_c, 0, 54, 0
2, 245208, Note_on_c, 0, 64, 0
2, 245208, Note_on_c, 0, 66, 76
2, 245208, Note_on_c, 0, 57, 57
2, 245232, Note_on_c, 0, 57, 0
2, 245232, Note_on_c, 0, 66, 0
2, 245232, Note_on_c, 0, 69, 76
2, 245232, Note_on_c, 0, 60, 56
2, 245256, Note_on_c, 0, 60, 0
2, 245256, Note_on_c, 0, 69, 0
2, 245256, Note_on_c, 0, 72, 74
2, 245256, Note_on_c, 0, 64, 58
2, 245280, Note_on_c, 0, 64, 0
2, 245280, Note_on_c, 0, 72, 0
2, 245280, Note_on_c, 0, 76, 79
2, 245280, Note_on_c, 0, 66, 58
2, 245304, Note_on_c, 0, 66, 0
2, 245304, Note_on_c, 0, 76, 0
2, 245304, Note_on_c, 0, 78, 75
2, 245304, Note_on_c, 0, 69, 52
2, 245327, Note_on_c, 0, 69, 0
2, 245327, Note_on_c, 0, 78, 0
2, 245327, Note_on_c, 0, 81, 76
2, 245327, Note_on_c, 0, 72, 53
2, 245351, Note_on_c, 0, 72, 0
2, 245351, Note_on_c, 0, 81, 0
2, 245351, Note_on_c, 0, 84, 81
2, 245351, Note_on_c, 0, 76, 56
2, 245375, Note_on_c, 0, 76, 0
2, 245375, Note_on_c, 0, 84, 0
2, 245375, Note_on_c, 0, 88, 79
2, 245375, Note_on_c, 0, 78, 55
2, 245399, Note_on_c, 0, 78, 0
2, 245399, Note_on_c, 0, 88, 0
2, 245399, Note_on_c, 0, 90, 75
2, 245399, Note_on_c, 0, 81, 58
2, 245423, Note_on_c, 0, 81, 0
2, 245423, Note_on_c, 0, 90, 0
2, 245423, Note_on_c, 0, 93, 55
2, 245423, Note_on_c, 0, 84, 40
2, 245447, Note_on_c, 0, 84, 0
2, 245447, Note_on_c, 0, 93, 0
2, 245447, Note_on_c, 0, 96, 79
2, 245447, Note_on_c, 0, 88, 56
2, 245471, Note_on_c, 0, 88, 0
2, 245471, Note_on_c, 0, 96, 0
2, 245471, Note_on_c, 0, 100, 75
2, 245471, Note_on_c, 0, 90, 59
2, 245495, Note_on_c, 0, 90, 0
2, 245495, Note_on_c, 0, 100, 0
2, 245495, Note_on_c, 0, 102, 75
2, 245495, Note_on_c, 0, 93, 54
2, 245520, Note_on_c, 0, 93, 0
2, 245520, Note_on_c, 0, 102, 0
2, 245520, Note_on_c, 0, 93, 78
2, 245520, Note_on_c, 0, 84, 56
2, 245700, Note_on_c, 0, 84, 0
2, 245700, Note_on_c, 0, 93, 0
2, 245880, Note_on_c, 0, 83, 74
2, 246060, Note_on_c, 0, 83, 0
2, 246060, Note_on_c, 0, 84, 85
2, 246240, Note_on_c, 0, 84, 0
2, 246240, Note_on_c, 0, 86, 88
2, 246240, Note_on_c, 0, 72, 44
2, 246240, Note_on_c, 0, 55, 46
2, 246240, Note_on_c, 0, 62, 46
2, 246240, Note_on_c, 0, 66, 46
2, 246420, Note_on_c, 0, 86, 0
2, 246420, Note_on_c, 0, 88, 93
2, 246600, Note_on_c, 0, 88, 0
2, 246600, Note_on_c, 0, 86, 80
2, 246780, Note_on_c, 0, 86, 0
2, 246780, Note_on_c, 0, 84, 81
2, 246960, Note_on_c, 0, 84, 0
2, 246960, Note_on_c, 0, 83, 82
2, 247320, Note_on_c, 0, 83, 0
2, 247320, Note_on_c, 0, 62, 0
2, 247320, Note_on_c, 0, 72, 0
2, 247320, Note_on_c, 0, 55, 0
2, 247320, Note_on_c, 0, 66, 0
2, 247320, Note_on_c, 0, 81, 79
2, 247320, Note_on_c, 0, 72, 51
2, 247320, Note_on_c, 0, 55, 49
2, 247320, Note_on_c, 0, 63, 49
2, 247320, Note_on_c, 0, 66, 49
2, 247680, Note_on_c, 0, 66, 0
2, 247680, Note_on_c, 0, 55, 0
2, 247680, Note_on_c, 0, 81, 0
2, 247680, Note_on_c, 0, 72, 0
2, 247680, Note_on_c, 0, 63, 0
2, 247680, Note_on_c, 0, 79, 77
2, 247680, Note_on_c, 0, 71, 44
2, 247680, Note_on_c, 0, 55, 51
2, 247680, Note_on_c, 0, 64, 51
2, 247680, Note_on_c, 0, 67, 51
2, 247860, Note_on_c, 0, 79, 0
2, 247860, Note_on_c, 0, 78, 80
2, 248040, Note_on_c, 0, 78, 0
2, 248040, Note_on_c, 0, 76, 75
2, 248580, Note_on_c, 0, 76, 0
2, 248580, Note_on_c, 0, 64, 0
2, 248580, Note_on_c, 0, 71, 0
2, 248580, Note_on_c, 0, 55, 0
2, 248580, Note_on_c, 0, 67, 0
2, 248760, Note_on_c, 0, 83, 76
2, 248940, Note_on_c, 0, 83, 0
2, 248940, Note_on_c, 0, 84, 88
2, 249120, Note_on_c, 0, 84, 0
2, 249120, Note_on_c, 0, 86, 93
2, 249120, Note_on_c, 0, 72, 51
2, 249120, Note_on_c, 0, 55, 44
2, 249120, Note_on_c, 0, 62, 44
2, 249120, Note_on_c, 0, 66, 44
2, 249300, Note_on_c, 0, 86, 0
2, 249300, Note_on_c, 0, 88, 84
2, 249480, Note_on_c, 0, 88, 0
2, 249480, Note_on_c, 0, 86, 75
2, 249660, Note_on_c, 0, 86, 0
2, 249660, Note_on_c, 0, 84, 76
2, 249840, Note_on_c, 0, 84, 0
2, 249840, Note_on_c, 0, 83, 78
2, 250200, Note_on_c, 0, 83, 0
2, 250200, Note_on_c, 0, 62, 0
2, 250200, Note_on_c, 0, 72, 0
2, 250200, Note_on_c, 0, 55, 0
2, 250200, Note_on_c, 0, 66, 0
2, 250200, Note_on_c, 0, 81, 75
2, 250200, Note_on_c, 0, 72, 55
2, 250200, Note_on_c, 0, 55, 44
2, 250200, Note_on_c, 0, 63, 44
2, 250200, Note_on_c, 0, 66, 44
2, 250560, Note_on_c, 0, 66, 0
2, 250560, Note_on_c, 0, 55, 0
2, 250560, Note_on_c, 0, 81, 0
2, 250560, Note_on_c, 0, 72, 0
2, 250560, Note_on_c, 0, 63, 0
2, 250560, Note_on_c, 0, 76, 69
2, 250560, Note_on_c, 0, 69, 47
2, 250560, Note_on_c, 0, 52, 47
2, 250560, Note_on_c, 0, 60, 47
2, 250560, Note_on_c, 0, 64, 47
2, 251280, Note_on_c, 0, 60, 0
2, 251280, Note_on_c, 0, 69, 0
2, 251280, Note_on_c, 0, 67, 48
2, 251280, Note_on_c, 0, 57, 44
2, 251460, Note_on_c, 0, 57, 0
2, 251460, Note_on_c, 0, 76, 0
2, 251460, Note_on_c, 0, 64, 0
2, 251460, Note_on_c, 0, 52, 0
2, 251460, Note_on_c, 0, 67, 0
2, 251640, Note_on_c, 0, 78, 58
2, 251699, Note_on_c, 0, 78, 0
2, 251699, Note_on_c, 0, 79, 59
2, 251760, Note_on_c, 0, 79, 0
2, 251760, Note_on_c, 0, 80, 68
2, 251820, Note_on_c, 0, 80, 0
2, 251820, Note_on_c, 0, 81, 61
2, 251879, Note_on_c, 0, 81, 0
2, 251879, Note_on_c, 0, 80, 57
2, 251940, Note_on_c, 0, 80, 0
2, 251940, Note_on_c, 0, 81, 61
2, 252000, Note_on_c, 0, 81, 0
2, 252000, Note_on_c, 0, 82, 65
2, 252059, Note_on_c, 0, 82, 0
2, 252059, Note_on_c, 0, 81, 56
2, 252120, Note_on_c, 0, 81, 0
2, 252120, Note_on_c, 0, 82, 64
2, 252180, Note_on_c, 0, 82, 0
2, 252180, Note_on_c, 0, 83, 62
2, 252239, Note_on_c, 0, 83, 0
2, 252239, Note_on_c, 0, 82, 56
2, 252300, Note_on_c, 0, 82, 0
2, 252300, Note_on_c, 0, 83, 63
2, 252360, Note_on_c, 0, 83, 0
2, 252360, Note_on_c, 0, 84, 66
2, 252419, Note_on_c, 0, 84, 0
2, 252419, Note_on_c, 0, 83, 60
2, 252480, Note_on_c, 0, 83, 0
2, 252480, Note_on_c, 0, 84, 59
2, 252540, Note_on_c, 0, 84, 0
2, 252540, Note_on_c, 0, 74, 47
2, 252599, Note_on_c, 0, 74, 0
2, 252599, Note_on_c, 0, 73, 54
2, 252660, Note_on_c, 0, 73, 0
2, 252660, Note_on_c, 0, 74, 64
2, 252720, Note_on_c, 0, 74, 0
2, 252720, Note_on_c, 0, 75, 60
2, 252779, Note_on_c, 0, 75, 0
2, 252779, Note_on_c, 0, 74, 59
2, 252840, Note_on_c, 0, 74, 0
2, 252840, Note_on_c, 0, 75, 60
2, 252900, Note_on_c, 0, 75, 0
2, 252900, Note_on_c, 0, 76, 62
2, 252959, Note_on_c, 0, 76, 0
2, 252959, Note_on_c, 0, 75, 56
2, 253020, Note_on_c, 0, 75, 0
2, 253020, Note_on_c, 0, 76, 65
2, 253080, Note_on_c, 0, 76, 0
2, 253080, Note_on_c, 0, 78, 61
2, 253139, Note_on_c, 0, 78, 0
2, 253139, Note_on_c, 0, 77, 60
2, 253200, Note_on_c, 0, 77, 0
2, 253200, Note_on_c, 0, 78, 64
2, 253260, Note_on_c, 0, 78, 0
2, 253260, Note_on_c, 0, 75, 59
2, 253319, Note_on_c, 0, 75, 0
2, 253319, Note_on_c, 0, 74, 60
2, 253380, Note_on_c, 0, 74, 0
2, 253380, Note_on_c, 0, 75, 65
2, 253440, Note_on_c, 0, 75, 0
2, 253440, Note_on_c, 0, 76, 41
2, 253463, Note_on_c, 0, 76, 0
2, 253463, Note_on_c, 0, 70, 41
2, 253485, Note_on_c, 0, 70, 0
2, 253485, Note_on_c, 0, 71, 50
2, 253508, Note_on_c, 0, 71, 0
2, 253508, Note_on_c, 0, 76, 62
2, 253530, Note_on_c, 0, 76, 0
2, 253530, Note_on_c, 0, 79, 57
2, 253553, Note_on_c, 0, 79, 0
2, 253553, Note_on_c, 0, 83, 57
2, 253575, Note_on_c, 0, 83, 0
2, 253575, Note_on_c, 0, 75, 43
2, 253598, Note_on_c, 0, 75, 0
2, 253598, Note_on_c, 0, 76, 54
2, 253620, Note_on_c, 0, 76, 0
2, 253620, Note_on_c, 0, 79, 53
2, 253643, Note_on_c, 0, 79, 0
2, 253643, Note_on_c, 0, 83, 60
2, 253665, Note_on_c, 0, 83, 0
2, 253665, Note_on_c, 0, 88, 57
2, 253688, Note_on_c, 0, 88, 0
2, 253688, Note_on_c, 0, 78, 43
2, 253710, Note_on_c, 0, 78, 0
2, 253710, Note_on_c, 0, 79, 51
2, 253733, Note_on_c, 0, 79, 0
2, 253733, Note_on_c, 0, 83, 41
2, 253755, Note_on_c, 0, 83, 0
2, 253755, Note_on_c, 0, 88, 58
2, 253778, Note_on_c, 0, 88, 0
2, 253778, Note_on_c, 0, 91, 58
2, 253800, Note_on_c, 0, 91, 0
2, 253800, Note_on_c, 0, 82, 35
2, 253823, Note_on_c, 0, 82, 0
2, 253823, Note_on_c, 0, 83, 52
2, 253845, Note_on_c, 0, 83, 0
2, 253845, Note_on_c, 0, 88, 56
2, 253868, Note_on_c, 0, 88, 0
2, 253868, Note_on_c, 0, 91, 53
2, 253890, Note_on_c, 0, 91, 0
2, 253890, Note_on_c, 0, 95, 58
2, 253913, Note_on_c, 0, 95, 0
2, 253913, Note_on_c, 0, 87, 41
2, 253935, Note_on_c, 0, 87, 0
2, 253935, Note_on_c, 0, 88, 45
2, 253958, Note_on_c, 0, 88, 0
2, 253958, Note_on_c, 0, 91, 53
2, 253980, Note_on_c, 0, 91, 0
2, 253980, Note_on_c, 0, 95, 59
2, 254003, Note_on_c, 0, 95, 0
2, 254003, Note_on_c, 0, 100, 61
2, 254025, Note_on_c, 0, 100, 0
2, 254025, Note_on_c, 0, 90, 41
2, 254048, Note_on_c, 0, 90, 0
2, 254048, Note_on_c, 0, 91, 49
2, 254070, Note_on_c, 0, 91, 0
2, 254070, Note_on_c, 0, 95, 54
2, 254093, Note_on_c, 0, 95, 0
2, 254093, Note_on_c, 0, 100, 65
2, 254115, Note_on_c, 0, 100, 0
2, 254115, Note_on_c, 0, 103, 53
2, 254138, Note_on_c, 0, 103, 0
2, 254138, Note_on_c, 0, 94, 56
2, 254160, Note_on_c, 0, 94, 0
2, 254160, Note_on_c, 0, 95, 58
2, 254340, Note_on_c, 0, 95, 0
2, 254520, Note_on_c, 0, 78, 55
2, 254579, Note_on_c, 0, 78, 0
2, 254579, Note_on_c, 0, 79, 60
2, 254640, Note_on_c, 0, 79, 0
2, 254640, Note_on_c, 0, 80, 62
2, 254700, Note_on_c, 0, 80, 0
2, 254700, Note_on_c, 0, 81, 63
2, 254759, Note_on_c, 0, 81, 0
2, 254759, Note_on_c, 0, 80, 62
2, 254820, Note_on_c, 0, 80, 0
2, 254820, Note_on_c, 0, 81, 66
2, 254880, Note_on_c, 0, 81, 0
2, 254880, Note_on_c, 0, 82, 69
2, 254939, Note_on_c, 0, 82, 0
2, 254939, Note_on_c, 0, 81, 57
2, 255000, Note_on_c, 0, 81, 0
2, 255000, Note_on_c, 0, 82, 58
2, 255060, Note_on_c, 0, 82, 0
2, 255060, Note_on_c, 0, 83, 68
2, 255119, Note_on_c, 0, 83, 0
2, 255119, Note_on_c, 0, 82, 53
2, 255180, Note_on_c, 0, 82, 0
2, 255180, Note_on_c, 0, 83, 64
2, 255240, Note_on_c, 0, 83, 0
2, 255240, Note_on_c, 0, 84, 63
2, 255299, Note_on_c, 0, 84, 0
2, 255299, Note_on_c, 0, 83, 60
2, 255360, Note_on_c, 0, 83, 0
2, 255360, Note_on_c, 0, 84, 59
2, 255420, Note_on_c, 0, 84, 0
2, 255420, Note_on_c, 0, 74, 45
2, 255479, Note_on_c, 0, 74, 0
2, 255479, Note_on_c, 0, 73, 52
2, 255540, Note_on_c, 0, 73, 0
2, 255540, Note_on_c, 0, 74, 62
2, 255600, Note_on_c, 0, 74, 0
2, 255600, Note_on_c, 0, 75, 65
2, 255659, Note_on_c, 0, 75, 0
2, 255659, Note_on_c, 0, 74, 60
2, 255720, Note_on_c, 0, 74, 0
2, 255720, Note_on_c, 0, 75, 58
2, 255780, Note_on_c, 0, 75, 0
2, 255780, Note_on_c, 0, 76, 67
2, 255839, Note_on_c, 0, 76, 0
2, 255839, Note_on_c, 0, 75, 61
2, 255900, Note_on_c, 0, 75, 0
2, 255900, Note_on_c, 0, 76, 60
2, 255960, Note_on_c, 0, 76, 0
2, 255960, Note_on_c, 0, 78, 71
2, 256019, Note_on_c, 0, 78, 0
2, 256019, Note_on_c, 0, 77, 55
2, 256080, Note_on_c, 0, 77, 0
2, 256080, Note_on_c, 0, 78, 70
2, 256140, Note_on_c, 0, 78, 0
2, 256140, Note_on_c, 0, 75, 55
2, 256199, Note_on_c, 0, 75, 0
2, 256199, Note_on_c, 0, 74, 56
2, 256260, Note_on_c, 0, 74, 0
2, 256260, Note_on_c, 0, 75, 64
2, 256320, Note_on_c, 0, 75, 0
2, 256320, Note_on_c, 0, 76, 47
2, 256352, Note_on_c, 0, 76, 0
2, 256352, Note_on_c, 0, 60, 34
2, 256385, Note_on_c, 0, 60, 0
2, 256385, Note_on_c, 0, 64, 51
2, 256417, Note_on_c, 0, 64, 0
2, 256417, Note_on_c, 0, 66, 55
2, 256451, Note_on_c, 0, 66, 0
2, 256451, Note_on_c, 0, 68, 55
2, 256483, Note_on_c, 0, 68, 0
2, 256483, Note_on_c, 0, 69, 57
2, 256515, Note_on_c, 0, 69, 0
2, 256515, Note_on_c, 0, 72, 57
2, 256548, Note_on_c, 0, 72, 0
2, 256548, Note_on_c, 0, 76, 55
2, 256582, Note_on_c, 0, 76, 0
2, 256582, Note_on_c, 0, 78, 55
2, 256614, Note_on_c, 0, 78, 0
2, 256614, Note_on_c, 0, 80, 54
2, 256646, Note_on_c, 0, 80, 0
2, 256646, Note_on_c, 0, 81, 56
2, 256680, Note_on_c, 0, 81, 0
2, 256680, Note_on_c, 0, 84, 55
2, 256719, Note_on_c, 0, 84, 0
2, 256719, Note_on_c, 0, 88, 56
2, 256759, Note_on_c, 0, 88, 0
2, 256759, Note_on_c, 0, 90, 54
2, 256800, Note_on_c, 0, 90, 0
2, 256800, Note_on_c, 0, 92, 54
2, 256839, Note_on_c, 0, 92, 0
2, 256839, Note_on_c, 0, 93, 53
2, 256880, Note_on_c, 0, 93, 0
2, 256880, Note_on_c, 0, 95, 40
2, 256919, Note_on_c, 0, 95, 0
2, 256919, Note_on_c, 0, 96, 54
2, 256960, Note_on_c, 0, 96, 0
2, 256960, Note_on_c, 0, 100, 54
2, 256999, Note_on_c, 0, 100, 0
2, 256999, Note_on_c, 0, 102, 56
2, 257040, Note_on_c, 0, 102, 0
2, 257040, Note_on_c, 0, 91, 56
2, 257040, Note_on_c, 0, 103, 56
2, 257040, Note_on_c, 0, 76, 56
2, 257040, Note_on_c, 0, 83, 56
2, 257040, Note_on_c, 0, 88, 56
2, 257220, Note_on_c, 0, 88, 0
2, 257220, Note_on_c, 0, 76, 0
2, 257220, Note_on_c, 0, 91, 0
2, 257220, Note_on_c, 0, 103, 0
2, 257220, Note_on_c, 0, 83, 0
2, 257940, Note_on_c, 0, 69, 88
2, 257940, Note_on_c, 0, 72, 88
2, 257940, Note_on_c, 0, 57, 84
2, 257940, Note_on_c, 0, 60, 84
2, 258300, Note_on_c, 0, 60, 0
2, 258300, Note_on_c, 0, 69, 0
2, 258300, Note_on_c, 0, 72, 0
2, 258300, Note_on_c, 0, 57, 0
2, 258300, Note_on_c, 0, 72, 104
2, 258300, Note_on_c, 0, 76, 104
2, 258300, Note_on_c, 0, 60, 105
2, 258300, Note_on_c, 0, 64, 105
2, 258660, Note_on_c, 0, 64, 0
2, 258660, Note_on_c, 0, 72, 0
2, 258660, Note_on_c, 0, 76, 0
2, 258660, Note_on_c, 0, 60, 0
2, 258660, Note_on_c, 0, 76, 104
2, 258660, Note_on_c, 0, 78, 104
2, 258660, Note_on_c, 0, 64, 101
2, 258660, Note_on_c, 0, 66, 101
2, 258840, Note_on_c, 0, 66, 0
2, 258840, Note_on_c, 0, 76, 0
2, 258840, Note_on_c, 0, 78, 0
2, 258840, Note_on_c, 0, 64, 0
2, 258840, Note_on_c, 0, 78, 107
2, 258840, Note_on_c, 0, 81, 107
2, 258840, Note_on_c, 0, 66, 109
2, 258840, Note_on_c, 0, 69, 109
2, 259020, Note_on_c, 0, 69, 0
2, 259020, Note_on_c, 0, 78, 0
2, 259020, Note_on_c, 0, 81, 0
2, 259020, Note_on_c, 0, 66, 0
2, 259020, Note_on_c, 0, 81, 109
2, 259020, Note_on_c, 0, 84, 109
2, 259020, Note_on_c, 0, 69, 101
2, 259020, Note_on_c, 0, 72, 101
2, 259200, Note_on_c, 0, 72, 0
2, 259200, Note_on_c, 0, 81, 0
2, 259200, Note_on_c, 0, 84, 0
2, 259200, Note_on_c, 0, 69, 0
2, 259200, Note_on_c, 0, 79, 101
2, 259200, Note_on_c, 0, 82, 101
2, 259200, Note_on_c, 0, 85, 101
2, 259200, Note_on_c, 0, 70, 99
2, 259200, Note_on_c, 0, 73, 99
2, 259380, Note_on_c, 0, 73, 0
2, 259380, Note_on_c, 0, 85, 0
2, 259380, Note_on_c, 0, 79, 0
2, 259380, Note_on_c, 0, 82, 0
2, 259380, Note_on_c, 0, 70, 0
2, 259380, Note_on_c, 0, 76, 79
2, 259380, Note_on_c, 0, 79, 79
2, 259380, Note_on_c, 0, 73, 96
2, 259470, Note_on_c, 0, 73, 0
2, 259470, Note_on_c, 0, 79, 0
2, 259470, Note_on_c, 0, 76, 0
2, 259470, Note_on_c, 0, 78, 102
2, 259470, Note_on_c, 0, 81, 102
2, 259470, Note_on_c, 0, 75, 104
2, 259560, Note_on_c, 0, 75, 0
2, 259560, Note_on_c, 0, 81, 0
2, 259560, Note_on_c, 0, 78, 0
2, 259560, Note_on_c, 0, 79, 100
2, 259560, Note_on_c, 0, 82, 100
2, 259560, Note_on_c, 0, 73, 101
2, 259560, Note_on_c, 0, 76, 101
2, 259740, Note_on_c, 0, 76, 0
2, 259740, Note_on_c, 0, 79, 0
2, 259740, Note_on_c, 0, 82, 0
2, 259740, Note_on_c, 0, 73, 0
2, 259740, Note_on_c, 0, 82, 105
2, 259740, Note_on_c, 0, 85, 105
2, 259740, Note_on_c, 0, 76, 103
2, 259740, Note_on_c, 0, 79, 103
2, 259920, Note_on_c, 0, 79, 0
2, 259920, Note_on_c, 0, 82, 0
2, 259920, Note_on_c, 0, 85, 0
2, 259920, Note_on_c, 0, 76, 0
2, 259920, Note_on_c, 0, 85, 110
2, 259920, Note_on_c, 0, 88, 110
2, 259920, Note_on_c, 0, 79, 108
2, 259920, Note_on_c, 0, 82, 108
2, 260100, Note_on_c, 0, 82, 0
2, 260100, Note_on_c, 0, 85, 0
2, 260100, Note_on_c, 0, 88, 0
2, 260100, Note_on_c, 0, 79, 0
2, 260100, Note_on_c, 0, 88, 108
2, 260100, Note_on_c, 0, 91, 108
2, 260100, Note_on_c, 0, 82, 109
2, 260100, Note_on_c, 0, 85, 109
2, 260280, Note_on_c, 0, 85, 0
2, 260280, Note_on_c, 0, 88, 0
2, 260280, Note_on_c, 0, 91, 0
2, 260280, Note_on_c, 0, 82, 0
2, 260280, Note_on_c, 0, 91, 109
2, 260280, Note_on_c, 0, 94, 109
2, 260280, Note_on_c, 0, 85, 107
2, 260280, Note_on_c, 0, 88, 107
2, 260460, Note_on_c, 0, 88, 0
2, 260460, Note_on_c, 0, 91, 0
2, 260460, Note_on_c, 0, 94, 0
2, 260460, Note_on_c, 0, 85, 0
2, 260820, Note_on_c, 0, 69, 85
2, 260820, Note_on_c, 0, 72, 85
2, 260820, Note_on_c, 0, 57, 90
2, 260820, Note_on_c, 0, 60, 90
2, 261180, Note_on_c, 0, 60, 0
2, 261180, Note_on_c, 0, 69, 0
2, 261180, Note_on_c, 0, 72, 0
2, 261180, Note_on_c, 0, 57, 0
2, 261180, Note_on_c, 0, 72, 107
2, 261180, Note_on_c, 0, 76, 107
2, 261180, Note_on_c, 0, 60, 105
2, 261180, Note_on_c, 0, 64, 105
2, 261540, Note_on_c, 0, 64, 0
2, 261540, Note_on_c, 0, 72, 0
2, 261540, Note_on_c, 0, 76, 0
2, 261540, Note_on_c, 0, 60, 0
2, 261540, Note_on_c, 0, 76, 107
2, 261540, Note_on_c, 0, 78, 107
2, 261540, Note_on_c, 0, 64, 103
2, 261540, Note_on_c, 0, 66, 103
2, 261720, Note_on_c, 0, 66, 0
2, 261720, Note_on_c, 0, 76, 0
2, 261720, Note_on_c, 0, 78, 0
2, 261720, Note_on_c, 0, 64, 0
2, 261720, Note_on_c, 0, 78, 107
2, 261720, Note_on_c, 0, 81, 107
2, 261720, Note_on_c, 0, 66, 109
2, 261720, Note_on_c, 0, 69, 109
2, 261900, Note_on_c, 0, 69, 0
2, 261900, Note_on_c, 0, 78, 0
2, 261900, Note_on_c, 0, 81, 0
2, 261900, Note_on_c, 0, 66, 0
2, 261900, Note_on_c, 0, 81, 106
2, 261900, Note_on_c, 0, 84, 106
2, 261900, Note_on_c, 0, 69, 111
2, 261900, Note_on_c, 0, 72, 111
2, 262080, Note_on_c, 0, 72, 0
2, 262080, Note_on_c, 0, 81, 0
2, 262080, Note_on_c, 0, 84, 0
2, 262080, Note_on_c, 0, 69, 0
2, 262080, Note_on_c, 0, 79, 97
2, 262080, Note_on_c, 0, 82, 97
2, 262080, Note_on_c, 0, 85, 97
2, 262080, Note_on_c, 0, 70, 97
2, 262080, Note_on_c, 0, 73, 97
2, 262260, Note_on_c, 0, 73, 0
2, 262260, Note_on_c, 0, 85, 0
2, 262260, Note_on_c, 0, 79, 0
2, 262260, Note_on_c, 0, 82, 0
2, 262260, Note_on_c, 0, 70, 0
2, 262260, Note_on_c, 0, 76, 100
2, 262260, Note_on_c, 0, 79, 100
2, 262260, Note_on_c, 0, 73, 100
2, 262350, Note_on_c, 0, 73, 0
2, 262350, Note_on_c, 0, 79, 0
2, 262350, Note_on_c, 0, 76, 0
2, 262350, Note_on_c, 0, 78, 102
2, 262350, Note_on_c, 0, 81, 102
2, 262350, Note_on_c, 0, 75, 102
2, 262440, Note_on_c, 0, 75, 0
2, 262440, Note_on_c, 0, 81, 0
2, 262440, Note_on_c, 0, 78, 0
2, 262440, Note_on_c, 0, 79, 104
2, 262440, Note_on_c, 0, 82, 104
2, 262440, Note_on_c, 0, 76, 104
2, 262530, Note_on_c, 0, 76, 0
2, 262530, Note_on_c, 0, 82, 0
2, 262530, Note_on_c, 0, 79, 0
2, 262530, Note_on_c, 0, 81, 105
2, 262530, Note_on_c, 0, 84, 105
2, 262530, Note_on_c, 0, 78, 105
2, 262620, Note_on_c, 0, 78, 0
2, 262620, Note_on_c, 0, 84, 0
2, 262620, Note_on_c, 0, 81, 0
2, 262620, Note_on_c, 0, 82, 107
2, 262620, Note_on_c, 0, 85, 107
2, 262620, Note_on_c, 0, 79, 107
2, 262710, Note_on_c, 0, 79, 0
2, 262710, Note_on_c, 0, 85, 0
2, 262710, Note_on_c, 0, 82, 0
2, 262710, Note_on_c, 0, 84, 108
2, 262710, Note_on_c, 0, 87, 108
2, 262710, Note_on_c, 0, 81, 108
2, 262800, Note_on_c, 0, 81, 0
2, 262800, Note_on_c, 0, 87, 0
2, 262800, Note_on_c, 0, 84, 0
2, 262800, Note_on_c, 0, 85, 110
2, 262800, Note_on_c, 0, 88, 110
2, 262800, Note_on_c, 0, 82, 110
2, 262890, Note_on_c, 0, 82, 0
2, 262890, Note_on_c, 0, 88, 0
2, 262890, Note_on_c, 0, 85, 0
2, 262890, Note_on_c, 0, 87, 112
2, 262890, Note_on_c, 0, 90, 112
2, 262890, Note_on_c, 0, 84, 112
2, 262980, Note_on_c, 0, 84, 0
2, 262980, Note_on_c, 0, 90, 0
2, 262980, Note_on_c, 0, 87, 0
2, 262980, Note_on_c, 0, 88, 113
2, 262980, Note_on_c, 0, 91, 113
2, 262980, Note_on_c, 0, 85, 113
2, 263070, Note_on_c, 0, 85, 0
2, 263070, Note_on_c, 0, 91, 0
2, 263070, Note_on_c, 0, 88, 0
2, 263070, Note_on_c, 0, 90, 115
2, 263070, Note_on_c, 0, 93, 115
2, 263070, Note_on_c, 0, 87, 115
2, 263160, Note_on_c, 0, 87, 0
2, 263160, Note_on_c, 0, 93, 0
2, 263160, Note_on_c, 0, 90, 0
2, 263160, Note_on_c, 0, 91, 116
2, 263160, Note_on_c, 0, 94, 116
2, 263160, Note_on_c, 0, 85, 116
2, 263160, Note_on_c, 0, 88, 116
2, 263340, Note_on_c, 0, 88, 0
2, 263340, Note_on_c, 0, 91, 0
2, 263340, Note_on_c, 0, 94, 0
2, 263340, Note_on_c, 0, 85, 0
2, 263520, Note_on_c, 0, 82, 123
2, 263520, Note_on_c, 0, 85, 123
2, 263520, Note_on_c, 0, 88, 123
2, 263520, Note_on_c, 0, 91, 123
2, 263520, Note_on_c, 0, 94, 123
2, 263520, Note_on_c, 0, 43, 123
2, 263520, Note_on_c, 0, 46, 123
2, 263520, Note_on_c, 0, 49, 123
2, 263520, Note_on_c, 0, 52, 123
2, 263520, Note_on_c, 0, 55, 123
2, 263700, Note_on_c, 0, 55, 0
2, 263700, Note_on_c, 0, 88, 0
2, 263700, Note_on_c, 0, 91, 0
2, 263700, Note_on_c, 0, 82, 0
2, 263700, Note_on_c, 0, 94, 0
2, 263700, Note_on_c, 0, 85, 0
2, 263700, Note_on_c, 0, 49, 0
2, 263700, Note_on_c, 0, 46, 0
2, 263700, Note_on_c, 0, 43, 0
2, 263700, Note_on_c, 0, 52, 0
2, 263700, Note_on_c, 0, 70, 89
2, 263700, Note_on_c, 0, 73, 89
2, 263700, Note_on_c, 0, 76, 89
2, 263700, Note_on_c, 0, 79, 89
2, 263700, Note_on_c, 0, 82, 89
2, 263700, Note_on_c, 0, 43, 125
2, 263700, Note_on_c, 0, 46, 125
2, 263700, Note_on_c, 0, 49, 125
2, 263700, Note_on_c, 0, 52, 125
2, 263700, Note_on_c, 0, 55, 125
2, 263880, Note_on_c, 0, 55, 0
2, 263880, Note_on_c, 0, 76, 0
2, 263880, Note_on_c, 0, 79, 0
2, 263880, Note_on_c, 0, 70, 0
2, 263880, Note_on_c, 0, 82, 0
2, 263880, Note_on_c, 0, 73, 0
2, 263880, Note_on_c, 0, 49, 0
2, 263880, Note_on_c, 0, 46, 0
2, 263880, Note_on_c, 0, 43, 0
2, 263880, Note_on_c, 0, 52, 0
2, 264240, Note_on_c, 0, 83, 111
2, 264240, Note_on_c, 0, 86, 111
2, 264240, Note_on_c, 0, 89, 111
2, 264240, Note_on_c, 0, 92, 111
2, 264240, Note_on_c, 0, 95, 111
2, 264240, Note_on_c, 0, 44, 112
2, 264240, Note_on_c, 0, 47, 112
2, 264240, Note_on_c, 0, 50, 112
2, 264240, Note_on_c, 0, 53, 112
2, 264240, Note_on_c, 0, 56, 112
2, 264420, Note_on_c, 0, 56, 0
2, 264420, Note_on_c, 0, 89, 0
2, 264420, Note_on_c, 0, 92, 0
2, 264420, Note_on_c, 0, 83, 0
2, 264420, Note_on_c, 0, 95, 0
2, 264420, Note_on_c, 0, 86, 0
2, 264420, Note_on_c, 0, 50, 0
2, 264420, Note_on_c, 0, 47, 0
2, 264420, Note_on_c, 0, 44, 0
2, 264420, Note_on_c, 0, 53, 0
2, 264420, Note_on_c, 0, 71, 93
2, 264420, Note_on_c, 0, 74, 93
2, 264420, Note_on_c, 0, 77, 93
2, 264420, Note_on_c, 0, 80, 93
2, 264420, Note_on_c, 0, 83, 93
2, 264420, Note_on_c, 0, 44, 116
2, 264420, Note_on_c, 0, 47, 116
2, 264420, Note_on_c, 0, 50, 116
2, 264420, Note_on_c, 0, 53, 116
2, 264420, Note_on_c, 0, 56, 116
2, 264600, Note_on_c, 0, 56, 0
2, 264600, Note_on_c, 0, 77, 0
2, 264600, Note_on_c, 0, 80, 0
2, 264600, Note_on_c, 0, 71, 0
2, 264600, Note_on_c, 0, 83, 0
2, 264600, Note_on_c, 0, 74, 0
2, 264600, Note_on_c, 0, 50, 0
2, 264600, Note_on_c, 0, 47, 0
2, 264600, Note_on_c, 0, 44, 0
2, 264600, Note_on_c, 0, 53, 0
2, 264960, Note_on_c, 0, 84, 105
2, 264960, Note_on_c, 0, 87, 105
2, 264960, Note_on_c, 0, 90, 105
2, 264960, Note_on_c, 0, 93, 105
2, 264960, Note_on_c, 0, 96, 105
2, 264960, Note_on_c, 0, 45, 108
2, 264960, Note_on_c, 0, 48, 108
2, 264960, Note_on_c, 0, 51, 108
2, 264960, Note_on_c, 0, 54, 108
2, 264960, Note_on_c, 0, 57, 108
2, 265140, Note_on_c, 0, 57, 0
2, 265140, Note_on_c, 0, 90, 0
2, 265140, Note_on_c, 0, 93, 0
2, 265140, Note_on_c, 0, 84, 0
2, 265140, Note_on_c, 0, 96, 0
2, 265140, Note_on_c, 0, 87, 0
2, 265140, Note_on_c, 0, 51, 0
2, 265140, Note_on_c, 0, 48, 0
2, 265140, Note_on_c, 0, 45, 0
2, 265140, Note_on_c, 0, 54, 0
2, 265140, Note_on_c, 0, 72, 89
2, 265140, Note_on_c, 0, 75, 89
2, 265140, Note_on_c, 0, 78, 89
2, 265140, Note_on_c, 0, 81, 89
2, 265140, Note_on_c, 0, 84, 89
2, 265140, Note_on_c, 0, 45, 118
2, 265140, Note_on_c, 0, 48, 118
2, 265140, Note_on_c, 0, 51, 118
2, 265140, Note_on_c, 0, 54, 118
2, 265140, Note_on_c, 0, 57, 118
2, 265320, Note_on_c, 0, 57, 0
2, 265320, Note_on_c, 0, 78, 0
2, 265320, Note_on_c, 0, 81, 0
2, 265320, Note_on_c, 0, 72, 0
2, 265320, Note_on_c, 0, 84, 0
2, 265320, Note_on_c, 0, 75, 0
2, 265320, Note_on_c, 0, 51, 0
2, 265320, Note_on_c, 0, 48, 0
2, 265320, Note_on_c, 0, 45, 0
2, 265320, Note_on_c, 0, 54, 0
2, 265680, Note_on_c, 0, 85, 108
2, 265680, Note_on_c, 0, 88, 108
2, 265680, Note_on_c, 0, 91, 108
2, 265680, Note_on_c, 0, 94, 108
2, 265680, Note_on_c, 0, 97, 108
2, 265680, Note_on_c, 0, 46, 109
2, 265680, Note_on_c, 0, 49, 109
2, 265680, Note_on_c, 0, 52, 109
2, 265680, Note_on_c, 0, 55, 109
2, 265680, Note_on_c, 0, 58, 109
2, 265860, Note_on_c, 0, 58, 0
2, 265860, Note_on_c, 0, 91, 0
2, 265860, Note_on_c, 0, 94, 0
2, 265860, Note_on_c, 0, 85, 0
2, 265860, Note_on_c, 0, 97, 0
2, 265860, Note_on_c, 0, 88, 0
2, 265860, Note_on_c, 0, 52, 0
2, 265860, Note_on_c, 0, 49, 0
2, 265860, Note_on_c, 0, 46, 0
2, 265860, Note_on_c, 0, 55, 0
2, 265860, Note_on_c, 0, 73, 92
2, 265860, Note_on_c, 0, 76, 92
2, 265860, Note_on_c, 0, 79, 92
2, 265860, Note_on_c, 0, 82, 92
2, 265860, Note_on_c, 0, 85, 92
2, 265860, Note_on_c, 0, 46, 125
2, 265860, Note_on_c, 0, 49, 125
2, 265860, Note_on_c, 0, 52, 125
2, 265860, Note_on_c, 0, 55, 125
2, 265860, Note_on_c, 0, 58, 125
2, 266040, Note_on_c, 0, 58, 0
2, 266040, Note_on_c, 0, 79, 0
2, 266040, Note_on_c, 0, 82, 0
2, 266040, Note_on_c, 0, 73, 0
2, 266040, Note_on_c, 0, 85, 0
2, 266040, Note_on_c, 0, 76, 0
2, 266040, Note_on_c, 0, 52, 0
2, 266040, Note_on_c, 0, 49, 0
2, 266040, Note_on_c, 0, 46, 0
2, 266040, Note_on_c, 0, 55, 0
2, 266400, Note_on_c, 0, 74, 108
2, 266400, Note_on_c, 0, 77, 108
2, 266400, Note_on_c, 0, 80, 108
2, 266400, Note_on_c, 0, 83, 108
2, 266400, Note_on_c, 0, 86, 108
2, 266400, Note_on_c, 0, 47, 112
2, 266400, Note_on_c, 0, 50, 112
2, 266400, Note_on_c, 0, 53, 112
2, 266400, Note_on_c, 0, 56, 112
2, 266400, Note_on_c, 0, 59, 112
2, 266580, Note_on_c, 0, 59, 0
2, 266580, Note_on_c, 0, 80, 0
2, 266580, Note_on_c, 0, 83, 0
2, 266580, Note_on_c, 0, 74, 0
2, 266580, Note_on_c, 0, 86, 0
2, 266580, Note_on_c, 0, 77, 0
2, 266580, Note_on_c, 0, 53, 0
2, 266580, Note_on_c, 0, 50, 0
2, 266580, Note_on_c, 0, 47, 0
2, 266580, Note_on_c, 0, 56, 0
2, 266760, Note_on_c, 0, 75, 110
2, 266760, Note_on_c, 0, 78, 110
2, 266760, Note_on_c, 0, 81, 110
2, 266760, Note_on_c, 0, 84, 110
2, 266760, Note_on_c, 0, 87, 110
2, 266760, Note_on_c, 0, 48, 107
2, 266760, Note_on_c, 0, 51, 107
2, 266760, Note_on_c, 0, 54, 107
2, 266760, Note_on_c, 0, 57, 107
2, 266760, Note_on_c, 0, 60, 107
2, 266940, Note_on_c, 0, 60, 0
2, 266940, Note_on_c, 0, 81, 0
2, 266940, Note_on_c, 0, 84, 0
2, 266940, Note_on_c, 0, 75, 0
2, 266940, Note_on_c, 0, 87, 0
2, 266940, Note_on_c, 0, 78, 0
2, 266940, Note_on_c, 0, 54, 0
2, 266940, Note_on_c, 0, 51, 0
2, 266940, Note_on_c, 0, 48, 0
2, 266940, Note_on_c, 0, 57, 0
2, 267120, Note_on_c, 0, 76, 113
2, 267120, Note_on_c, 0, 79, 113
2, 267120, Note_on_c, 0, 82, 113
2, 267120, Note_on_c, 0, 85, 113
2, 267120, Note_on_c, 0, 88, 113
2, 267120, Note_on_c, 0, 49, 108
2, 267120, Note_on_c, 0, 52, 108
2, 267120, Note_on_c, 0, 55, 108
2, 267120, Note_on_c, 0, 58, 108
2, 267120, Note_on_c, 0, 61, 108
2, 267300, Note_on_c, 0, 61, 0
2, 267300, Note_on_c, 0, 82, 0
2, 267300, Note_on_c, 0, 85, 0
2, 267300, Note_on_c, 0, 76, 0
2, 267300, Note_on_c, 0, 88, 0
2, 267300, Note_on_c, 0, 79, 0
2, 267300, Note_on_c, 0, 55, 0
2, 267300, Note_on_c, 0, 52, 0
2, 267300, Note_on_c, 0, 49, 0
2, 267300, Note_on_c, 0, 58, 0
2, 267480, Note_on_c, 0, 77, 110
2, 267480, Note_on_c, 0, 80, 110
2, 267480, Note_on_c, 0, 83, 110
2, 267480, Note_on_c, 0, 86, 110
2, 267480, Note_on_c, 0, 89, 110
2, 267480, Note_on_c, 0, 50, 109
2, 267480, Note_on_c, 0, 53, 109
2, 267480, Note_on_c, 0, 56, 109
2, 267480, Note_on_c, 0, 59, 109
2, 267480, Note_on_c, 0, 62, 109
2, 267660, Note_on_c, 0, 62, 0
2, 267660, Note_on_c, 0, 83, 0
2, 267660, Note_on_c, 0, 86, 0
2, 267660, Note_on_c, 0, 77, 0
2, 267660, Note_on_c, 0, 89, 0
2, 267660, Note_on_c, 0, 80, 0
2, 267660, Note_on_c, 0, 56, 0
2, 267660, Note_on_c, 0, 53, 0
2, 267660, Note_on_c, 0, 50, 0
2, 267660, Note_on_c, 0, 59, 0
2, 267840, Note_on_c, 0, 78, 110
2, 267840, Note_on_c, 0, 81, 110
2, 267840, Note_on_c, 0, 84, 110
2, 267840, Note_on_c, 0, 86, 110
2, 267840, Note_on_c, 0, 90, 110
2, 267840, Note_on_c, 0, 50, 110
2, 267840, Note_on_c, 0, 54, 110
2, 267840, Note_on_c, 0, 57, 110
2, 267840, Note_on_c, 0, 60, 110
2, 267840, Note_on_c, 0, 62, 110
2, 268020, Note_on_c, 0, 62, 0
2, 268020, Note_on_c, 0, 84, 0
2, 268020, Note_on_c, 0, 86, 0
2, 268020, Note_on_c, 0, 78, 0
2, 268020, Note_on_c, 0, 90, 0
2, 268020, Note_on_c, 0, 81, 0
2, 268020, Note_on_c, 0, 57, 0
2, 268020, Note_on_c, 0, 54, 0
2, 268020, Note_on_c, 0, 50, 0
2, 268020, Note_on_c, 0, 60, 0
2, 268200, Note_on_c, 0, 50, 85
2, 268200, Note_on_c, 0, 62, 85
2, 268200, Note_on_c, 0, 26, 90
2, 268200, Note_on_c, 0, 38, 90
2, 268290, Note_on_c, 0, 38, 0
2, 268290, Note_on_c, 0, 50, 0
2, 268290, Note_on_c, 0, 62, 0
2, 268290, Note_on_c, 0, 26, 0
2, 268290, Note_on_c, 0, 49, 89
2, 268290, Note_on_c, 0, 61, 89
2, 268290, Note_on_c, 0, 25, 90
2, 268290, Note_on_c, 0, 37, 90
2, 268380, Note_on_c, 0, 37, 0
2, 268380, Note_on_c, 0, 49, 0
2, 268380, Note_on_c, 0, 61, 0
2, 268380, Note_on_c, 0, 25, 0
2, 268380, Note_on_c, 0, 50, 99
2, 268380, Note_on_c, 0, 62, 99
2, 268380, Note_on_c, 0, 26, 98
2, 268380, Note_on_c, 0, 38, 98
2, 268470, Note_on_c, 0, 38, 0
2, 268470, Note_on_c, 0, 50, 0
2, 268470, Note_on_c, 0, 62, 0
2, 268470, Note_on_c, 0, 26, 0
2, 268470, Note_on_c, 0, 52, 106
2, 268470, Note_on_c, 0, 64, 106
2, 268470, Note_on_c, 0, 28, 102
2, 268470, Note_on_c, 0, 40, 102
2, 268560, Note_on_c, 0, 40, 0
2, 268560, Note_on_c, 0, 52, 0
2, 268560, Note_on_c, 0, 64, 0
2, 268560, Note_on_c, 0, 28, 0
2, 268560, Note_on_c, 0, 54, 103
2, 268560, Note_on_c, 0, 66, 103
2, 268560, Note_on_c, 0, 30, 103
2, 268560, Note_on_c, 0, 42, 103
2, 268650, Note_on_c, 0, 42, 0
2, 268650, Note_on_c, 0, 54, 0
2, 268650, Note_on_c, 0, 66, 0
2, 268650, Note_on_c, 0, 30, 0
2, 268650, Note_on_c, 0, 52, 92
2, 268650, Note_on_c, 0, 64, 92
2, 268650, Note_on_c, 0, 28, 95
2, 268650, Note_on_c, 0, 40, 95
2, 268740, Note_on_c, 0, 40, 0
2, 268740, Note_on_c, 0, 52, 0
2, 268740, Note_on_c, 0, 64, 0
2, 268740, Note_on_c, 0, 28, 0
2, 268740, Note_on_c, 0, 54, 105
2, 268740, Note_on_c, 0, 66, 105
2, 268740, Note_on_c, 0, 30, 98
2, 268740, Note_on_c, 0, 42, 98
2, 268830, Note_on_c, 0, 42, 0
2, 268830, Note_on_c, 0, 54, 0
2, 268830, Note_on_c, 0, 66, 0
2, 268830, Note_on_c, 0, 30, 0
2, 268830, Note_on_c, 0, 55, 102
2, 268830, Note_on_c, 0, 67, 102
2, 268830, Note_on_c, 0, 31, 103
2, 268830, Note_on_c, 0, 43, 103
2, 268920, Note_on_c, 0, 43, 0
2, 268920, Note_on_c, 0, 55, 0
2, 268920, Note_on_c, 0, 67, 0
2, 268920, Note_on_c, 0, 31, 0
2, 268920, Note_on_c, 0, 57, 103
2, 268920, Note_on_c, 0, 69, 103
2, 268920, Note_on_c, 0, 33, 105
2, 268920, Note_on_c, 0, 45, 105
2, 269010, Note_on_c, 0, 45, 0
2, 269010, Note_on_c, 0, 57, 0
2, 269010, Note_on_c, 0, 69, 0
2, 269010, Note_on_c, 0, 33, 0
2, 269010, Note_on_c, 0, 55, 91
2, 269010, Note_on_c, 0, 67, 91
2, 269010, Note_on_c, 0, 31, 98
2, 269010, Note_on_c, 0, 43, 98
2, 269100, Note_on_c, 0, 43, 0
2, 269100, Note_on_c, 0, 55, 0
2, 269100, Note_on_c, 0, 67, 0
2, 269100, Note_on_c, 0, 31, 0
2, 269100, Note_on_c, 0, 57, 103
2, 269100, Note_on_c, 0, 69, 103
2, 269100, Note_on_c, 0, 33, 98
2, 269100, Note_on_c, 0, 45, 98
2, 269190, Note_on_c, 0, 45, 0
2, 269190, Note_on_c, 0, 57, 0
2, 269190, Note_on_c, 0, 69, 0
2, 269190, Note_on_c, 0, 33, 0
2, 269190, Note_on_c, 0, 59, 106
2, 269190, Note_on_c, 0, 71, 106
2, 269190, Note_on_c, 0, 35, 99
2, 269190, Note_on_c, 0, 47, 99
2, 269280, Note_on_c, 0, 47, 0
2, 269280, Note_on_c, 0, 59, 0
2, 269280, Note_on_c, 0, 71, 0
2, 269280, Note_on_c, 0, 35, 0
2, 269280, Note_on_c, 0, 60, 100
2, 269280, Note_on_c, 0, 72, 100
2, 269280, Note_on_c, 0, 36, 99
2, 269280, Note_on_c, 0, 48, 99
2, 269370, Note_on_c, 0, 48, 0
2, 269370, Note_on_c, 0, 60, 0
2, 269370, Note_on_c, 0, 72, 0
2, 269370, Note_on_c, 0, 36, 0
2, 269370, Note_on_c, 0, 61, 103
2, 269370, Note_on_c, 0, 73, 103
2, 269370, Note_on_c, 0, 37, 98
2, 269370, Note_on_c, 0, 49, 98
2, 269460, Note_on_c, 0, 49, 0
2, 269460, Note_on_c, 0, 61, 0
2, 269460, Note_on_c, 0, 73, 0
2, 269460, Note_on_c, 0, 37, 0
2, 269460, Note_on_c, 0, 62, 106
2, 269460, Note_on_c, 0, 74, 106
2, 269460, Note_on_c, 0, 38, 96
2, 269460, Note_on_c, 0, 50, 96
2, 269550, Note_on_c, 0, 50, 0
2, 269550, Note_on_c, 0, 62, 0
2, 269550, Note_on_c, 0, 74, 0
2, 269550, Note_on_c, 0, 38, 0
2, 269550, Note_on_c, 0, 64, 106
2, 269550, Note_on_c, 0, 76, 106
2, 269550, Note_on_c, 0, 40, 100
2, 269550, Note_on_c, 0, 52, 100
2, 269640, Note_on_c, 0, 52, 0
2, 269640, Note_on_c, 0, 64, 0
2, 269640, Note_on_c, 0, 76, 0
2, 269640, Note_on_c, 0, 40, 0
2, 269640, Note_on_c, 0, 66, 106
2, 269640, Note_on_c, 0, 78, 106
2, 269640, Note_on_c, 0, 42, 97
2, 269640, Note_on_c, 0, 54, 97
2, 269730, Note_on_c, 0, 54, 0
2, 269730, Note_on_c, 0, 66, 0
2, 269730, Note_on_c, 0, 78, 0
2, 269730, Note_on_c, 0, 42, 0
2, 269730, Note_on_c, 0, 67, 104
2, 269730, Note_on_c, 0, 79, 104
2, 269730, Note_on_c, 0, 43, 98
2, 269730, Note_on_c, 0, 55, 98
2, 269820, Note_on_c, 0, 55, 0
2, 269820, Note_on_c, 0, 67, 0
2, 269820, Note_on_c, 0, 79, 0
2, 269820, Note_on_c, 0, 43, 0
2, 269820, Note_on_c, 0, 69, 103
2, 269820, Note_on_c, 0, 81, 103
2, 269820, Note_on_c, 0, 45, 98
2, 269820, Note_on_c, 0, 57, 98
2, 269910, Note_on_c, 0, 57, 0
2, 269910, Note_on_c, 0, 69, 0
2, 269910, Note_on_c, 0, 81, 0
2, 269910, Note_on_c, 0, 45, 0
2, 269910, Note_on_c, 0, 71, 105
2, 269910, Note_on_c, 0, 83, 105
2, 269910, Note_on_c, 0, 47, 98
2, 269910, Note_on_c, 0, 59, 98
2, 270000, Note_on_c, 0, 59, 0
2, 270000, Note_on_c, 0, 71, 0
2, 270000, Note_on_c, 0, 83, 0
2, 270000, Note_on_c, 0, 47, 0
2, 270000, Note_on_c, 0, 72, 104
2, 270000, Note_on_c, 0, 84, 104
2, 270000, Note_on_c, 0, 48, 103
2, 270000, Note_on_c, 0, 60, 103
2, 270090, Note_on_c, 0, 60, 0
2, 270090, Note_on_c, 0, 72, 0
2, 270090, Note_on_c, 0, 84, 0
2, 270090, Note_on_c, 0, 48, 0
2, 270090, Note_on_c, 0, 74, 110
2, 270090, Note_on_c, 0, 86, 110
2, 270090, Note_on_c, 0, 50, 100
2, 270090, Note_on_c, 0, 62, 100
2, 270180, Note_on_c, 0, 62, 0
2, 270180, Note_on_c, 0, 74, 0
2, 270180, Note_on_c, 0, 86, 0
2, 270180, Note_on_c, 0, 50, 0
2, 270180, Note_on_c, 0, 76, 102
2, 270180, Note_on_c, 0, 88, 102
2, 270180, Note_on_c, 0, 52, 104
2, 270180, Note_on_c, 0, 64, 104
2, 270270, Note_on_c, 0, 64, 0
2, 270270, Note_on_c, 0, 76, 0
2, 270270, Note_on_c, 0, 88, 0
2, 270270, Note_on_c, 0, 52, 0
2, 270270, Note_on_c, 0, 78, 105
2, 270270, Note_on_c, 0, 90, 105
2, 270270, Note_on_c, 0, 54, 105
2, 270270, Note_on_c, 0, 66, 105
2, 270360, Note_on_c, 0, 66, 0
2, 270360, Note_on_c, 0, 78, 0
2, 270360, Note_on_c, 0, 90, 0
2, 270360, Note_on_c, 0, 54, 0
2, 270360, Note_on_c, 0, 79, 75
2, 270360, Note_on_c, 0, 91, 75
2, 270360, Note_on_c, 0, 55, 101
2, 270360, Note_on_c, 0, 67, 101
2, 270450, Note_on_c, 0, 67, 0
2, 270450, Note_on_c, 0, 79, 0
2, 270450, Note_on_c, 0, 91, 0
2, 270450, Note_on_c, 0, 55, 0
2, 270450, Note_on_c, 0, 81, 95
2, 270450, Note_on_c, 0, 93, 95
2, 270450, Note_on_c, 0, 57, 110
2, 270450, Note_on_c, 0, 69, 110
2, 270540, Note_on_c, 0, 69, 0
2, 270540, Note_on_c, 0, 81, 0
2, 270540, Note_on_c, 0, 93, 0
2, 270540, Note_on_c, 0, 57, 0
2, 270540, Note_on_c, 0, 83, 103
2, 270540, Note_on_c, 0, 91, 103
2, 270540, Note_on_c, 0, 95, 103
2, 270540, Note_on_c, 0, 59, 105
2, 270540, Note_on_c, 0, 67, 105
2, 270540, Note_on_c, 0, 71, 105
2, 270630, Note_on_c, 0, 71, 0
2, 270630, Note_on_c, 0, 91, 0
2, 270630, Note_on_c, 0, 95, 0
2, 270630, Note_on_c, 0, 83, 0
2, 270630, Note_on_c, 0, 67, 0
2, 270630, Note_on_c, 0, 59, 0
2, 270630, Note_on_c, 0, 84, 104
2, 270630, Note_on_c, 0, 93, 104
2, 270630, Note_on_c, 0, 96, 104
2, 270630, Note_on_c, 0, 60, 101
2, 270630, Note_on_c, 0, 69, 101
2, 270630, Note_on_c, 0, 72, 101
2, 270720, Note_on_c, 0, 72, 0
2, 270720, Note_on_c, 0, 93, 0
2, 270720, Note_on_c, 0, 96, 0
2, 270720, Note_on_c, 0, 84, 0
2, 270720, Note_on_c, 0, 69, 0
2, 270720, Note_on_c, 0, 60, 0
2, 270720, Note_on_c, 0, 86, 104
2, 270720, Note_on_c, 0, 95, 104
2, 270720, Note_on_c, 0, 98, 104
2, 270720, Note_on_c, 0, 62, 100
2, 270720, Note_on_c, 0, 71, 100
2, 270720, Note_on_c, 0, 74, 100
2, 270810, Note_on_c, 0, 74, 0
2, 270810, Note_on_c, 0, 95, 0
2, 270810, Note_on_c, 0, 98, 0
2, 270810, Note_on_c, 0, 86, 0
2, 270810, Note_on_c, 0, 71, 0
2, 270810, Note_on_c, 0, 62, 0
2, 270810, Note_on_c, 0, 88, 101
2, 270810, Note_on_c, 0, 96, 101
2, 270810, Note_on_c, 0, 100, 101
2, 270810, Note_on_c, 0, 64, 106
2, 270810, Note_on_c, 0, 72, 106
2, 270810, Note_on_c, 0, 76, 106
2, 270900, Note_on_c, 0, 76, 0
2, 270900, Note_on_c, 0, 96, 0
2, 270900, Note_on_c, 0, 100, 0
2, 270900, Note_on_c, 0, 88, 0
2, 270900, Note_on_c, 0, 72, 0
2, 270900, Note_on_c, 0, 64, 0
2, 270900, Note_on_c, 0, 86, 92
2, 270900, Note_on_c, 0, 95, 92
2, 270900, Note_on_c, 0, 98, 92
2, 270900, Note_on_c, 0, 62, 98
2, 270900, Note_on_c, 0, 71, 98
2, 270900, Note_on_c, 0, 74, 98
2, 270990, Note_on_c, 0, 74, 0
2, 270990, Note_on_c, 0, 95, 0
2, 270990, Note_on_c, 0, 98, 0
2, 270990, Note_on_c, 0, 86, 0
2, 270990, Note_on_c, 0, 71, 0
2, 270990, Note_on_c, 0, 62, 0
2, 270990, Note_on_c, 0, 84, 90
2, 270990, Note_on_c, 0, 93, 90
2, 270990, Note_on_c, 0, 96, 90
2, 270990, Note_on_c, 0, 60, 89
2, 270990, Note_on_c, 0, 69, 89
2, 270990, Note_on_c, 0, 72, 89
2, 271080, Note_on_c, 0, 72, 0
2, 271080, Note_on_c, 0, 93, 0
2, 271080, Note_on_c, 0, 96, 0
2, 271080, Note_on_c, 0, 84, 0
2, 271080, Note_on_c, 0, 69, 0
2, 271080, Note_on_c, 0, 60, 0
2, 271080, Note_on_c, 0, 83, 92
2, 271080, Note_on_c, 0, 91, 92
2, 271080, Note_on_c, 0, 95, 92
2, 271080, Note_on_c, 0, 59, 93
2, 271080, Note_on_c, 0, 67, 93
2, 271080, Note_on_c, 0, 71, 93
2, 271260, Note_on_c, 0, 71, 0
2, 271260, Note_on_c, 0, 91, 0
2, 271260, Note_on_c, 0, 95, 0
2, 271260, Note_on_c, 0, 83, 0
2, 271260, Note_on_c, 0, 67, 0
2, 271260, Note_on_c, 0, 59, 0
2, 271260, Note_on_c, 0, 81, 88
2, 271260, Note_on_c, 0, 90, 88
2, 271260, Note_on_c, 0, 93, 88
2, 271260, Note_on_c, 0, 57, 88
2, 271260, Note_on_c, 0, 66, 88
2, 271260, Note_on_c, 0, 69, 88
2, 271440, Note_on_c, 0, 69, 0
2, 271440, Note_on_c, 0, 90, 0
2, 271440, Note_on_c, 0, 93, 0
2, 271440, Note_on_c, 0, 81, 0
2, 271440, Note_on_c, 0, 66, 0
2, 271440, Note_on_c, 0, 57, 0
2, 271440, Note_on_c, 0, 79, 88
2, 271440, Note_on_c, 0, 88, 88
2, 271440, Note_on_c, 0, 91, 88
2, 271440, Note_on_c, 0, 55, 90
2, 271440, Note_on_c, 0, 64, 90
2, 271440, Note_on_c, 0, 67, 90
2, 271530, Note_on_c, 0, 67, 0
2, 271530, Note_on_c, 0, 88, 0
2, 271530, Note_on_c, 0, 91, 0
2, 271530, Note_on_c, 0, 79, 0
2, 271530, Note_on_c, 0, 64, 0
2, 271530, Note_on_c, 0, 55, 0
2, 271530, Note_on_c, 0, 81, 104
2, 271530, Note_on_c, 0, 90, 104
2, 271530, Note_on_c, 0, 93, 104
2, 271530, Note_on_c, 0, 57, 108
2, 271530, Note_on_c, 0, 66, 108
2, 271530, Note_on_c, 0, 69, 108
2, 271620, Note_on_c, 0, 69, 0
2, 271620, Note_on_c, 0, 90, 0
2, 271620, Note_on_c, 0, 93, 0
2, 271620, Note_on_c, 0, 81, 0
2, 271620, Note_on_c, 0, 66, 0
2, 271620, Note_on_c, 0, 57, 0
2, 271620, Note_on_c, 0, 83, 102
2, 271620, Note_on_c, 0, 91, 102
2, 271620, Note_on_c, 0, 95, 102
2, 271620, Note_on_c, 0, 59, 103
2, 271620, Note_on_c, 0, 67, 103
2, 271620, Note_on_c, 0, 71, 103
2, 271980, Note_on_c, 0, 71, 0
2, 271980, Note_on_c, 0, 91, 0
2, 271980, Note_on_c, 0, 95, 0
2, 271980, Note_on_c, 0, 83, 0
2, 271980, Note_on_c, 0, 67, 0
2, 271980, Note_on_c, 0, 59, 0
2, 271980, Note_on_c, 0, 83, 97
2, 271980, Note_on_c, 0, 91, 97
2, 271980, Note_on_c, 0, 95, 97
2, 271980, Note_on_c, 0, 59, 98
2, 271980, Note_on_c, 0, 67, 98
2, 271980, Note_on_c, 0, 71, 98
2, 272070, Note_on_c, 0, 71, 0
2, 272070, Note_on_c, 0, 91, 0
2, 272070, Note_on_c, 0, 95, 0
2, 272070, Note_on_c, 0, 83, 0
2, 272070, Note_on_c, 0, 67, 0
2, 272070, Note_on_c, 0, 59, 0
2, 272070, Note_on_c, 0, 84, 99
2, 272070, Note_on_c, 0, 93, 99
2, 272070, Note_on_c, 0, 96, 99
2, 272070, Note_on_c, 0, 60, 103
2, 272070, Note_on_c, 0, 69, 103
2, 272070, Note_on_c, 0, 72, 103
2, 272160, Note_on_c, 0, 72, 0
2, 272160, Note_on_c, 0, 93, 0
2, 272160, Note_on_c, 0, 96, 0
2, 272160, Note_on_c, 0, 84, 0
2, 272160, Note_on_c, 0, 69, 0
2, 272160, Note_on_c, 0, 60, 0
2, 272160, Note_on_c, 0, 86, 105
2, 272160, Note_on_c, 0, 95, 105
2, 272160, Note_on_c, 0, 98, 105
2, 272160, Note_on_c, 0, 62, 105
2, 272160, Note_on_c, 0, 71, 105
2, 272160, Note_on_c, 0, 74, 105
2, 272250, Note_on_c, 0, 74, 0
2, 272250, Note_on_c, 0, 95, 0
2, 272250, Note_on_c, 0, 98, 0
2, 272250, Note_on_c, 0, 86, 0
2, 272250, Note_on_c, 0, 71, 0
2, 272250, Note_on_c, 0, 62, 0
2, 272250, Note_on_c, 0, 88, 103
2, 272250, Note_on_c, 0, 96, 103
2, 272250, Note_on_c, 0, 100, 103
2, 272250, Note_on_c, 0, 64, 102
2, 272250, Note_on_c, 0, 72, 102
2, 272250, Note_on_c, 0, 76, 102
2, 272340, Note_on_c, 0, 76, 0
2, 272340, Note_on_c, 0, 96, 0
2, 272340, Note_on_c, 0, 100, 0
2, 272340, Note_on_c, 0, 88, 0
2, 272340, Note_on_c, 0, 72, 0
2, 272340, Note_on_c, 0, 64, 0
2, 272340, Note_on_c, 0, 86, 93
2, 272340, Note_on_c, 0, 95, 93
2, 272340, Note_on_c, 0, 98, 93
2, 272340, Note_on_c, 0, 62, 92
2, 272340, Note_on_c, 0, 71, 92
2, 272340, Note_on_c, 0, 74, 92
2, 272430, Note_on_c, 0, 74, 0
2, 272430, Note_on_c, 0, 95, 0
2, 272430, Note_on_c, 0, 98, 0
2, 272430, Note_on_c, 0, 86, 0
2, 272430, Note_on_c, 0, 71, 0
2, 272430, Note_on_c, 0, 62, 0
2, 272430, Note_on_c, 0, 84, 91
2, 272430, Note_on_c, 0, 93, 91
2, 272430, Note_on_c, 0, 96, 91
2, 272430, Note_on_c, 0, 60, 94
2, 272430, Note_on_c, 0, 69, 94
2, 272430, Note_on_c, 0, 72, 94
2, 272520, Note_on_c, 0, 72, 0
2, 272520, Note_on_c, 0, 93, 0
2, 272520, Note_on_c, 0, 96, 0
2, 272520, Note_on_c, 0, 84, 0
2, 272520, Note_on_c, 0, 69, 0
2, 272520, Note_on_c, 0, 60, 0
2, 272520, Note_on_c, 0, 83, 93
2, 272520, Note_on_c, 0, 91, 93
2, 272520, Note_on_c, 0, 95, 93
2, 272520, Note_on_c, 0, 59, 92
2, 272520, Note_on_c, 0, 67, 92
2, 272520, Note_on_c, 0, 71, 92
2, 272700, Note_on_c, 0, 71, 0
2, 272700, Note_on_c, 0, 91, 0
2, 272700, Note_on_c, 0, 95, 0
2, 272700, Note_on_c, 0, 83, 0
2, 272700, Note_on_c, 0, 67, 0
2, 272700, Note_on_c, 0, 59, 0
2, 272700, Note_on_c, 0, 81, 87
2, 272700, Note_on_c, 0, 90, 87
2, 272700, Note_on_c, 0, 93, 87
2, 272700, Note_on_c, 0, 57, 87
2, 272700, Note_on_c, 0, 66, 87
2, 272700, Note_on_c, 0, 69, 87
2, 272880, Note_on_c, 0, 69, 0
2, 272880, Note_on_c, 0, 90, 0
2, 272880, Note_on_c, 0, 93, 0
2, 272880, Note_on_c, 0, 81, 0
2, 272880, Note_on_c, 0, 66, 0
2, 272880, Note_on_c, 0, 57, 0
2, 272880, Note_on_c, 0, 76, 116
2, 272880, Note_on_c, 0, 79, 116
2, 272880, Note_on_c, 0, 83, 116
2, 272880, Note_on_c, 0, 88, 116
2, 272880, Note_on_c, 0, 52, 83
2, 272880, Note_on_c, 0, 55, 83
2, 272880, Note_on_c, 0, 59, 83
2, 272880, Note_on_c, 0, 64, 83
2, 273060, Note_on_c, 0, 64, 0
2, 273060, Note_on_c, 0, 76, 0
2, 273060, Note_on_c, 0, 52, 0
2, 273060, Note_on_c, 0, 79, 0
2, 273060, Note_on_c, 0, 83, 0
2, 273060, Note_on_c, 0, 88, 0
2, 273060, Note_on_c, 0, 55, 0
2, 273060, Note_on_c, 0, 59, 0
2, 273060, Note_on_c, 0, 76, 102
2, 273060, Note_on_c, 0, 78, 102
2, 273060, Note_on_c, 0, 81, 102
2, 273060, Note_on_c, 0, 88, 102
2, 273060, Note_on_c, 0, 52, 90
2, 273060, Note_on_c, 0, 57, 90
2, 273060, Note_on_c, 0, 60, 90
2, 273060, Note_on_c, 0, 64, 90
2, 273240, Note_on_c, 0, 64, 0
2, 273240, Note_on_c, 0, 76, 0
2, 273240, Note_on_c, 0, 52, 0
2, 273240, Note_on_c, 0, 78, 0
2, 273240, Note_on_c, 0, 81, 0
2, 273240, Note_on_c, 0, 88, 0
2, 273240, Note_on_c, 0, 57, 0
2, 273240, Note_on_c, 0, 60, 0
2, 273240, Note_on_c, 0, 76, 101
2, 273240, Note_on_c, 0, 79, 101
2, 273240, Note_on_c, 0, 83, 101
2, 273240, Note_on_c, 0, 88, 101
2, 273240, Note_on_c, 0, 52, 98
2, 273240, Note_on_c, 0, 55, 98
2, 273240, Note_on_c, 0, 59, 98
2, 273240, Note_on_c, 0, 64, 98
2, 273420, Note_on_c, 0, 64, 0
2, 273420, Note_on_c, 0, 76, 0
2, 273420, Note_on_c, 0, 52, 0
2, 273420, Note_on_c, 0, 79, 0
2, 273420, Note_on_c, 0, 83, 0
2, 273420, Note_on_c, 0, 88, 0
2, 273420, Note_on_c, 0, 55, 0
2, 273420, Note_on_c, 0, 59, 0
2, 273420, Note_on_c, 0, 83, 86
2, 273420, Note_on_c, 0, 91, 86
2, 273420, Note_on_c, 0, 95, 86
2, 273420, Note_on_c, 0, 59, 117
2, 273420, Note_on_c, 0, 67, 117
2, 273420, Note_on_c, 0, 71, 117
2, 273510, Note_on_c, 0, 71, 0
2, 273510, Note_on_c, 0, 91, 0
2, 273510, Note_on_c, 0, 95, 0
2, 273510, Note_on_c, 0, 83, 0
2, 273510, Note_on_c, 0, 67, 0
2, 273510, Note_on_c, 0, 59, 0
2, 273510, Note_on_c, 0, 84, 103
2, 273510, Note_on_c, 0, 93, 103
2, 273510, Note_on_c, 0, 96, 103
2, 273510, Note_on_c, 0, 60, 105
2, 273510, Note_on_c, 0, 69, 105
2, 273510, Note_on_c, 0, 72, 105
2, 273600, Note_on_c, 0, 72, 0
2, 273600, Note_on_c, 0, 93, 0
2, 273600, Note_on_c, 0, 96, 0
2, 273600, Note_on_c, 0, 84, 0
2, 273600, Note_on_c, 0, 69, 0
2, 273600, Note_on_c, 0, 60, 0
2, 273600, Note_on_c, 0, 86, 101
2, 273600, Note_on_c, 0, 95, 101
2, 273600, Note_on_c, 0, 98, 101
2, 273600, Note_on_c, 0, 62, 100
2, 273600, Note_on_c, 0, 71, 100
2, 273600, Note_on_c, 0, 74, 100
2, 273690, Note_on_c, 0, 74, 0
2, 273690, Note_on_c, 0, 95, 0
2, 273690, Note_on_c, 0, 98, 0
2, 273690, Note_on_c, 0, 86, 0
2, 273690, Note_on_c, 0, 71, 0
2, 273690, Note_on_c, 0, 62, 0
2, 273690, Note_on_c, 0, 88, 102
2, 273690, Note_on_c, 0, 96, 102
2, 273690, Note_on_c, 0, 100, 102
2, 273690, Note_on_c, 0, 64, 107
2, 273690, Note_on_c, 0, 72, 107
2, 273690, Note_on_c, 0, 76, 107
2, 273780, Note_on_c, 0, 76, 0
2, 273780, Note_on_c, 0, 96, 0
2, 273780, Note_on_c, 0, 100, 0
2, 273780, Note_on_c, 0, 88, 0
2, 273780, Note_on_c, 0, 72, 0
2, 273780, Note_on_c, 0, 64, 0
2, 273780, Note_on_c, 0, 86, 93
2, 273780, Note_on_c, 0, 95, 93
2, 273780, Note_on_c, 0, 98, 93
2, 273780, Note_on_c, 0, 62, 92
2, 273780, Note_on_c, 0, 71, 92
2, 273780, Note_on_c, 0, 74, 92
2, 273870, Note_on_c, 0, 74, 0
2, 273870, Note_on_c, 0, 95, 0
2, 273870, Note_on_c, 0, 98, 0
2, 273870, Note_on_c, 0, 86, 0
2, 273870, Note_on_c, 0, 71, 0
2, 273870, Note_on_c, 0, 62, 0
2, 273870, Note_on_c, 0, 84, 88
2, 273870, Note_on_c, 0, 93, 88
2, 273870, Note_on_c, 0, 96, 88
2, 273870, Note_on_c, 0, 60, 93
2, 273870, Note_on_c, 0, 69, 93
2, 273870, Note_on_c, 0, 72, 93
2, 273960, Note_on_c, 0, 72, 0
2, 273960, Note_on_c, 0, 93, 0
2, 273960, Note_on_c, 0, 96, 0
2, 273960, Note_on_c, 0, 84, 0
2, 273960, Note_on_c, 0, 69, 0
2, 273960, Note_on_c, 0, 60, 0
2, 273960, Note_on_c, 0, 83, 94
2, 273960, Note_on_c, 0, 91, 94
2, 273960, Note_on_c, 0, 95, 94
2, 273960, Note_on_c, 0, 59, 96
2, 273960, Note_on_c, 0, 67, 96
2, 273960, Note_on_c, 0, 71, 96
2, 274140, Note_on_c, 0, 71, 0
2, 274140, Note_on_c, 0, 91, 0
2, 274140, Note_on_c, 0, 95, 0
2, 274140, Note_on_c, 0, 83, 0
2, 274140, Note_on_c, 0, 67, 0
2, 274140, Note_on_c, 0, 59, 0
2, 274140, Note_on_c, 0, 81, 84
2, 274140, Note_on_c, 0, 90, 84
2, 274140, Note_on_c, 0, 93, 84
2, 274140, Note_on_c, 0, 57, 89
2, 274140, Note_on_c, 0, 66, 89
2, 274140, Note_on_c, 0, 69, 89
2, 274320, Note_on_c, 0, 69, 0
2, 274320, Note_on_c, 0, 90, 0
2, 274320, Note_on_c, 0, 93, 0
2, 274320, Note_on_c, 0, 81, 0
2, 274320, Note_on_c, 0, 66, 0
2, 274320, Note_on_c, 0, 57, 0
2, 274320, Note_on_c, 0, 79, 92
2, 274320, Note_on_c, 0, 88, 92
2, 274320, Note_on_c, 0, 91, 92
2, 274320, Note_on_c, 0, 55, 90
2, 274320, Note_on_c, 0, 64, 90
2, 274320, Note_on_c, 0, 67, 90
2, 274410, Note_on_c, 0, 67, 0
2, 274410, Note_on_c, 0, 88, 0
2, 274410, Note_on_c, 0, 91, 0
2, 274410, Note_on_c, 0, 79, 0
2, 274410, Note_on_c, 0, 64, 0
2, 274410, Note_on_c, 0, 55, 0
2, 274410, Note_on_c, 0, 81, 103
2, 274410, Note_on_c, 0, 90, 103
2, 274410, Note_on_c, 0, 93, 103
2, 274410, Note_on_c, 0, 57, 102
2, 274410, Note_on_c, 0, 66, 102
2, 274410, Note_on_c, 0, 69, 102
2, 274500, Note_on_c, 0, 69, 0
2, 274500, Note_on_c, 0, 90, 0
2, 274500, Note_on_c, 0, 93, 0
2, 274500, Note_on_c, 0, 81, 0
2, 274500, Note_on_c, 0, 66, 0
2, 274500, Note_on_c, 0, 57, 0
2, 274500, Note_on_c, 0, 83, 109
2, 274500, Note_on_c, 0, 91, 109
2, 274500, Note_on_c, 0, 95, 109
2, 274500, Note_on_c, 0, 59, 102
2, 274500, Note_on_c, 0, 67, 102
2, 274500, Note_on_c, 0, 71, 102
2, 274860, Note_on_c, 0, 71, 0
2, 274860, Note_on_c, 0, 91, 0
2, 274860, Note_on_c, 0, 95, 0
2, 274860, Note_on_c, 0, 83, 0
2, 274860, Note_on_c, 0, 67, 0
2, 274860, Note_on_c, 0, 59, 0
2, 274860, Note_on_c, 0, 83, 94
2, 274860, Note_on_c, 0, 91, 94
2, 274860, Note_on_c, 0, 95, 94
2, 274860, Note_on_c, 0, 59, 95
2, 274860, Note_on_c, 0, 67, 95
2, 274860, Note_on_c, 0, 71, 95
2, 274950, Note_on_c, 0, 71, 0
2, 274950, Note_on_c, 0, 91, 0
2, 274950, Note_on_c, 0, 95, 0
2, 274950, Note_on_c, 0, 83, 0
2, 274950, Note_on_c, 0, 67, 0
2, 274950, Note_on_c, 0, 59, 0
2, 274950, Note_on_c, 0, 84, 103
2, 274950, Note_on_c, 0, 93, 103
2, 274950, Note_on_c, 0, 96, 103
2, 274950, Note_on_c, 0, 60, 109
2, 274950, Note_on_c, 0, 69, 109
2, 274950, Note_on_c, 0, 72, 109
2, 275040, Note_on_c, 0, 72, 0
2, 275040, Note_on_c, 0, 93, 0
2, 275040, Note_on_c, 0, 96, 0
2, 275040, Note_on_c, 0, 84, 0
2, 275040, Note_on_c, 0, 69, 0
2, 275040, Note_on_c, 0, 60, 0
2, 275040, Note_on_c, 0, 86, 104
2, 275040, Note_on_c, 0, 95, 104
2, 275040, Note_on_c, 0, 98, 104
2, 275040, Note_on_c, 0, 62, 99
2, 275040, Note_on_c, 0, 71, 99
2, 275040, Note_on_c, 0, 74, 99
2, 275130, Note_on_c, 0, 74, 0
2, 275130, Note_on_c, 0, 95, 0
2, 275130, Note_on_c, 0, 98, 0
2, 275130, Note_on_c, 0, 86, 0
2, 275130, Note_on_c, 0, 71, 0
2, 275130, Note_on_c, 0, 62, 0
2, 275130, Note_on_c, 0, 88, 101
2, 275130, Note_on_c, 0, 96, 101
2, 275130, Note_on_c, 0, 100, 101
2, 275130, Note_on_c, 0, 64, 109
2, 275130, Note_on_c, 0, 72, 109
2, 275130, Note_on_c, 0, 76, 109
2, 275220, Note_on_c, 0, 76, 0
2, 275220, Note_on_c, 0, 96, 0
2, 275220, Note_on_c, 0, 100, 0
2, 275220, Note_on_c, 0, 88, 0
2, 275220, Note_on_c, 0, 72, 0
2, 275220, Note_on_c, 0, 64, 0
2, 275220, Note_on_c, 0, 86, 88
2, 275220, Note_on_c, 0, 95, 88
2, 275220, Note_on_c, 0, 98, 88
2, 275220, Note_on_c, 0, 62, 90
2, 275220, Note_on_c, 0, 71, 90
2, 275220, Note_on_c, 0, 74, 90
2, 275310, Note_on_c, 0, 74, 0
2, 275310, Note_on_c, 0, 95, 0
2, 275310, Note_on_c, 0, 98, 0
2, 275310, Note_on_c, 0, 86, 0
2, 275310, Note_on_c, 0, 71, 0
2, 275310, Note_on_c, 0, 62, 0
2, 275310, Note_on_c, 0, 84, 92
2, 275310, Note_on_c, 0, 93, 92
2, 275310, Note_on_c, 0, 96, 92
2, 275310, Note_on_c, 0, 60, 90
2, 275310, Note_on_c, 0, 69, 90
2, 275310, Note_on_c, 0, 72, 90
2, 275400, Note_on_c, 0, 72, 0
2, 275400, Note_on_c, 0, 93, 0
2, 275400, Note_on_c, 0, 96, 0
2, 275400, Note_on_c, 0, 84, 0
2, 275400, Note_on_c, 0, 69, 0
2, 275400, Note_on_c, 0, 60, 0
2, 275400, Note_on_c, 0, 83, 93
2, 275400, Note_on_c, 0, 91, 93
2, 275400, Note_on_c, 0, 95, 93
2, 275400, Note_on_c, 0, 59, 95
2, 275400, Note_on_c, 0, 67, 95
2, 275400, Note_on_c, 0, 71, 95
2, 275580, Note_on_c, 0, 71, 0
2, 275580, Note_on_c, 0, 91, 0
2, 275580, Note_on_c, 0, 95, 0
2, 275580, Note_on_c, 0, 83, 0
2, 275580, Note_on_c, 0, 67, 0
2, 275580, Note_on_c, 0, 59, 0
2, 275580, Note_on_c, 0, 81, 92
2, 275580, Note_on_c, 0, 90, 92
2, 275580, Note_on_c, 0, 93, 92
2, 275580, Note_on_c, 0, 57, 90
2, 275580, Note_on_c, 0, 66, 90
2, 275580, Note_on_c, 0, 69, 90
2, 275760, Note_on_c, 0, 69, 0
2, 275760, Note_on_c, 0, 90, 0
2, 275760, Note_on_c, 0, 93, 0
2, 275760, Note_on_c, 0, 81, 0
2, 275760, Note_on_c, 0, 66, 0
2, 275760, Note_on_c, 0, 57, 0
2, 275760, Note_on_c, 0, 76, 119
2, 275760, Note_on_c, 0, 79, 119
2, 275760, Note_on_c, 0, 83, 119
2, 275760, Note_on_c, 0, 88, 119
2, 275760, Note_on_c, 0, 52, 84
2, 275760, Note_on_c, 0, 55, 84
2, 275760, Note_on_c, 0, 59, 84
2, 275760, Note_on_c, 0, 64, 84
2, 275940, Note_on_c, 0, 64, 0
2, 275940, Note_on_c, 0, 76, 0
2, 275940, Note_on_c, 0, 52, 0
2, 275940, Note_on_c, 0, 79, 0
2, 275940, Note_on_c, 0, 83, 0
2, 275940, Note_on_c, 0, 88, 0
2, 275940, Note_on_c, 0, 55, 0
2, 275940, Note_on_c, 0, 59, 0
2, 275940, Note_on_c, 0, 76, 101
2, 275940, Note_on_c, 0, 78, 101
2, 275940, Note_on_c, 0, 81, 101
2, 275940, Note_on_c, 0, 88, 101
2, 275940, Note_on_c, 0, 52, 93
2, 275940, Note_on_c, 0, 57, 93
2, 275940, Note_on_c, 0, 60, 93
2, 275940, Note_on_c, 0, 64, 93
2, 276120, Note_on_c, 0, 64, 0
2, 276120, Note_on_c, 0, 76, 0
2, 276120, Note_on_c, 0, 52, 0
2, 276120, Note_on_c, 0, 78, 0
2, 276120, Note_on_c, 0, 81, 0
2, 276120, Note_on_c, 0, 88, 0
2, 276120, Note_on_c, 0, 57, 0
2, 276120, Note_on_c, 0, 60, 0
2, 276120, Note_on_c, 0, 76, 99
2, 276120, Note_on_c, 0, 79, 99
2, 276120, Note_on_c, 0, 83, 99
2, 276120, Note_on_c, 0, 88, 99
2, 276120, Note_on_c, 0, 52, 95
2, 276120, Note_on_c, 0, 55, 95
2, 276120, Note_on_c, 0, 59, 95
2, 276120, Note_on_c, 0, 64, 95
2, 276300, Note_on_c, 0, 64, 0
2, 276300, Note_on_c, 0, 76, 0
2, 276300, Note_on_c, 0, 52, 0
2, 276300, Note_on_c, 0, 79, 0
2, 276300, Note_on_c, 0, 83, 0
2, 276300, Note_on_c, 0, 88, 0
2, 276300, Note_on_c, 0, 55, 0
2, 276300, Note_on_c, 0, 59, 0
2, 276300, Note_on_c, 0, 74, 73
2, 276300, Note_on_c, 0, 78, 73
2, 276300, Note_on_c, 0, 62, 102
2, 276300, Note_on_c, 0, 66, 102
2, 276390, Note_on_c, 0, 66, 0
2, 276390, Note_on_c, 0, 74, 0
2, 276390, Note_on_c, 0, 78, 0
2, 276390, Note_on_c, 0, 62, 0
2, 276390, Note_on_c, 0, 76, 96
2, 276390, Note_on_c, 0, 79, 96
2, 276390, Note_on_c, 0, 64, 100
2, 276390, Note_on_c, 0, 67, 100
2, 276480, Note_on_c, 0, 67, 0
2, 276480, Note_on_c, 0, 76, 0
2, 276480, Note_on_c, 0, 79, 0
2, 276480, Note_on_c, 0, 64, 0
2, 276480, Note_on_c, 0, 78, 103
2, 276480, Note_on_c, 0, 81, 103
2, 276480, Note_on_c, 0, 66, 104
2, 276480, Note_on_c, 0, 69, 104
2, 276570, Note_on_c, 0, 69, 0
2, 276570, Note_on_c, 0, 78, 0
2, 276570, Note_on_c, 0, 81, 0
2, 276570, Note_on_c, 0, 66, 0
2, 276570, Note_on_c, 0, 76, 95
2, 276570, Note_on_c, 0, 79, 95
2, 276570, Note_on_c, 0, 64, 92
2, 276570, Note_on_c, 0, 67, 92
2, 276660, Note_on_c, 0, 67, 0
2, 276660, Note_on_c, 0, 76, 0
2, 276660, Note_on_c, 0, 79, 0
2, 276660, Note_on_c, 0, 64, 0
2, 276660, Note_on_c, 0, 74, 90
2, 276660, Note_on_c, 0, 78, 90
2, 276660, Note_on_c, 0, 62, 93
2, 276660, Note_on_c, 0, 66, 93
2, 276750, Note_on_c, 0, 66, 0
2, 276750, Note_on_c, 0, 74, 0
2, 276750, Note_on_c, 0, 78, 0
2, 276750, Note_on_c, 0, 62, 0
2, 276750, Note_on_c, 0, 76, 100
2, 276750, Note_on_c, 0, 79, 100
2, 276750, Note_on_c, 0, 64, 98
2, 276750, Note_on_c, 0, 67, 98
2, 276840, Note_on_c, 0, 67, 0
2, 276840, Note_on_c, 0, 76, 0
2, 276840, Note_on_c, 0, 79, 0
2, 276840, Note_on_c, 0, 64, 0
2, 276840, Note_on_c, 0, 78, 99
2, 276840, Note_on_c, 0, 81, 99
2, 276840, Note_on_c, 0, 66, 108
2, 276840, Note_on_c, 0, 69, 108
2, 277020, Note_on_c, 0, 69, 0
2, 277020, Note_on_c, 0, 78, 0
2, 277020, Note_on_c, 0, 81, 0
2, 277020, Note_on_c, 0, 66, 0
2, 277020, Note_on_c, 0, 72, 102
2, 277020, Note_on_c, 0, 75, 102
2, 277020, Note_on_c, 0, 78, 102
2, 277020, Note_on_c, 0, 83, 102
2, 277020, Note_on_c, 0, 60, 103
2, 277020, Note_on_c, 0, 63, 103
2, 277020, Note_on_c, 0, 66, 103
2, 277020, Note_on_c, 0, 71, 103
2, 277200, Note_on_c, 0, 71, 0
2, 277200, Note_on_c, 0, 72, 0
2, 277200, Note_on_c, 0, 60, 0
2, 277200, Note_on_c, 0, 75, 0
2, 277200, Note_on_c, 0, 78, 0
2, 277200, Note_on_c, 0, 83, 0
2, 277200, Note_on_c, 0, 63, 0
2, 277200, Note_on_c, 0, 66, 0
2, 277200, Note_on_c, 0, 79, 91
2, 277200, Note_on_c, 0, 71, 89
2, 277200, Note_on_c, 0, 76, 89
2, 277200, Note_on_c, 0, 67, 85
2, 277200, Note_on_c, 0, 59, 69
2, 277200, Note_on_c, 0, 64, 69
2, 277290, Note_on_c, 0, 67, 0
2, 277290, Note_on_c, 0, 79, 0
2, 277290, Note_on_c, 0, 78, 95
2, 277290, Note_on_c, 0, 66, 93
2, 277380, Note_on_c, 0, 66, 0
2, 277380, Note_on_c, 0, 78, 0
2, 277380, Note_on_c, 0, 79, 103
2, 277380, Note_on_c, 0, 67, 99
2, 277740, Note_on_c, 0, 67, 0
2, 277740, Note_on_c, 0, 64, 0
2, 277740, Note_on_c, 0, 59, 0
2, 277740, Note_on_c, 0, 71, 0
2, 277740, Note_on_c, 0, 79, 0
2, 277740, Note_on_c, 0, 76, 0
2, 277740, Note_on_c, 0, 74, 89
2, 277740, Note_on_c, 0, 78, 89
2, 277740, Note_on_c, 0, 62, 91
2, 277740, Note_on_c, 0, 66, 91
2, 277830, Note_on_c, 0, 66, 0
2, 277830, Note_on_c, 0, 74, 0
2, 277830, Note_on_c, 0, 78, 0
2, 277830, Note_on_c, 0, 62, 0
2, 277830, Note_on_c, 0, 76, 100
2, 277830, Note_on_c, 0, 79, 100
2, 277830, Note_on_c, 0, 64, 103
2, 277830, Note_on_c, 0, 67, 103
2, 277920, Note_on_c, 0, 67, 0
2, 277920, Note_on_c, 0, 76, 0
2, 277920, Note_on_c, 0, 79, 0
2, 277920, Note_on_c, 0, 64, 0
2, 277920, Note_on_c, 0, 78, 104
2, 277920, Note_on_c, 0, 81, 104
2, 277920, Note_on_c, 0, 66, 102
2, 277920, Note_on_c, 0, 69, 102
2, 278010, Note_on_c, 0, 69, 0
2, 278010, Note_on_c, 0, 78, 0
2, 278010, Note_on_c, 0, 81, 0
2, 278010, Note_on_c, 0, 66, 0
2, 278010, Note_on_c, 0, 76, 93
2, 278010, Note_on_c, 0, 79, 93
2, 278010, Note_on_c, 0, 64, 91
2, 278010, Note_on_c, 0, 67, 91
2, 278100, Note_on_c, 0, 67, 0
2, 278100, Note_on_c, 0, 76, 0
2, 278100, Note_on_c, 0, 79, 0
2, 278100, Note_on_c, 0, 64, 0
2, 278100, Note_on_c, 0, 74, 93
2, 278100, Note_on_c, 0, 78, 93
2, 278100, Note_on_c, 0, 62, 96
2, 278100, Note_on_c, 0, 66, 96
2, 278190, Note_on_c, 0, 66, 0
2, 278190, Note_on_c, 0, 74, 0
2, 278190, Note_on_c, 0, 78, 0
2, 278190, Note_on_c, 0, 62, 0
2, 278190, Note_on_c, 0, 76, 99
2, 278190, Note_on_c, 0, 79, 99
2, 278190, Note_on_c, 0, 64, 96
2, 278190, Note_on_c, 0, 67, 96
2, 278280, Note_on_c, 0, 67, 0
2, 278280, Note_on_c, 0, 76, 0
2, 278280, Note_on_c, 0, 79, 0
2, 278280, Note_on_c, 0, 64, 0
2, 278280, Note_on_c, 0, 78, 100
2, 278280, Note_on_c, 0, 81, 100
2, 278280, Note_on_c, 0, 66, 103
2, 278280, Note_on_c, 0, 69, 103
2, 278460, Note_on_c, 0, 69, 0
2, 278460, Note_on_c, 0, 78, 0
2, 278460, Note_on_c, 0, 81, 0
2, 278460, Note_on_c, 0, 66, 0
2, 278460, Note_on_c, 0, 72, 105
2, 278460, Note_on_c, 0, 75, 105
2, 278460, Note_on_c, 0, 78, 105
2, 278460, Note_on_c, 0, 83, 105
2, 278460, Note_on_c, 0, 60, 101
2, 278460, Note_on_c, 0, 63, 101
2, 278460, Note_on_c, 0, 66, 101
2, 278460, Note_on_c, 0, 71, 101
2, 278640, Note_on_c, 0, 71, 0
2, 278640, Note_on_c, 0, 72, 0
2, 278640, Note_on_c, 0, 60, 0
2, 278640, Note_on_c, 0, 75, 0
2, 278640, Note_on_c, 0, 78, 0
2, 278640, Note_on_c, 0, 83, 0
2, 278640, Note_on_c, 0, 63, 0
2, 278640, Note_on_c, 0, 66, 0
2, 278640, Note_on_c, 0, 72, 82
2, 278640, Note_on_c, 0, 76, 82
2, 278640, Note_on_c, 0, 60, 82
2, 278640, Note_on_c, 0, 64, 82
2, 279180, Note_on_c, 0, 64, 0
2, 279180, Note_on_c, 0, 72, 0
2, 279180, Note_on_c, 0, 76, 0
2, 279180, Note_on_c, 0, 60, 0
2, 279180, Note_on_c, 0, 78, 104
2, 279180, Note_on_c, 0, 90, 104
2, 279180, Note_on_c, 0, 54, 99
2, 279180, Note_on_c, 0, 66, 99
2, 279270, Note_on_c, 0, 66, 0
2, 279270, Note_on_c, 0, 78, 0
2, 279270, Note_on_c, 0, 90, 0
2, 279270, Note_on_c, 0, 54, 0
2, 279270, Note_on_c, 0, 79, 105
2, 279270, Note_on_c, 0, 91, 105
2, 279270, Note_on_c, 0, 55, 102
2, 279270, Note_on_c, 0, 67, 102
2, 279360, Note_on_c, 0, 67, 0
2, 279360, Note_on_c, 0, 79, 0
2, 279360, Note_on_c, 0, 91, 0
2, 279360, Note_on_c, 0, 55, 0
2, 279360, Note_on_c, 0, 81, 106
2, 279360, Note_on_c, 0, 90, 106
2, 279360, Note_on_c, 0, 93, 106
2, 279360, Note_on_c, 0, 57, 113
2, 279360, Note_on_c, 0, 66, 113
2, 279360, Note_on_c, 0, 69, 113
2, 279450, Note_on_c, 0, 69, 0
2, 279450, Note_on_c, 0, 90, 0
2, 279450, Note_on_c, 0, 93, 0
2, 279450, Note_on_c, 0, 81, 0
2, 279450, Note_on_c, 0, 66, 0
2, 279450, Note_on_c, 0, 57, 0
2, 279450, Note_on_c, 0, 79, 94
2, 279450, Note_on_c, 0, 91, 94
2, 279450, Note_on_c, 0, 55, 96
2, 279450, Note_on_c, 0, 67, 96
2, 279540, Note_on_c, 0, 67, 0
2, 279540, Note_on_c, 0, 79, 0
2, 279540, Note_on_c, 0, 91, 0
2, 279540, Note_on_c, 0, 55, 0
2, 279540, Note_on_c, 0, 78, 96
2, 279540, Note_on_c, 0, 90, 96
2, 279540, Note_on_c, 0, 54, 91
2, 279540, Note_on_c, 0, 66, 91
2, 279630, Note_on_c, 0, 66, 0
2, 279630, Note_on_c, 0, 78, 0
2, 279630, Note_on_c, 0, 90, 0
2, 279630, Note_on_c, 0, 54, 0
2, 279630, Note_on_c, 0, 79, 106
2, 279630, Note_on_c, 0, 91, 106
2, 279630, Note_on_c, 0, 55, 99
2, 279630, Note_on_c, 0, 67, 99
2, 279720, Note_on_c, 0, 67, 0
2, 279720, Note_on_c, 0, 79, 0
2, 279720, Note_on_c, 0, 91, 0
2, 279720, Note_on_c, 0, 55, 0
2, 279720, Note_on_c, 0, 81, 104
2, 279720, Note_on_c, 0, 90, 104
2, 279720, Note_on_c, 0, 93, 104
2, 279720, Note_on_c, 0, 57, 99
2, 279720, Note_on_c, 0, 66, 99
2, 279720, Note_on_c, 0, 69, 99
2, 279900, Note_on_c, 0, 69, 0
2, 279900, Note_on_c, 0, 90, 0
2, 279900, Note_on_c, 0, 93, 0
2, 279900, Note_on_c, 0, 81, 0
2, 279900, Note_on_c, 0, 66, 0
2, 279900, Note_on_c, 0, 57, 0
2, 279900, Note_on_c, 0, 83, 106
2, 279900, Note_on_c, 0, 87, 106
2, 279900, Note_on_c, 0, 90, 106
2, 279900, Note_on_c, 0, 95, 106
2, 279900, Note_on_c, 0, 59, 104
2, 279900, Note_on_c, 0, 63, 104
2, 279900, Note_on_c, 0, 66, 104
2, 279900, Note_on_c, 0, 71, 104
2, 280080, Note_on_c, 0, 71, 0
2, 280080, Note_on_c, 0, 83, 0
2, 280080, Note_on_c, 0, 59, 0
2, 280080, Note_on_c, 0, 87, 0
2, 280080, Note_on_c, 0, 90, 0
2, 280080, Note_on_c, 0, 95, 0
2, 280080, Note_on_c, 0, 63, 0
2, 280080, Note_on_c, 0, 66, 0
2, 280080, Note_on_c, 0, 79, 87
2, 280080, Note_on_c, 0, 88, 87
2, 280080, Note_on_c, 0, 91, 87
2, 280080, Note_on_c, 0, 55, 86
2, 280080, Note_on_c, 0, 64, 86
2, 280080, Note_on_c, 0, 67, 86
2, 280170, Note_on_c, 0, 67, 0
2, 280170, Note_on_c, 0, 88, 0
2, 280170, Note_on_c, 0, 91, 0
2, 280170, Note_on_c, 0, 79, 0
2, 280170, Note_on_c, 0, 64, 0
2, 280170, Note_on_c, 0, 55, 0
2, 280170, Note_on_c, 0, 78, 89
2, 280170, Note_on_c, 0, 90, 89
2, 280170, Note_on_c, 0, 54, 91
2, 280170, Note_on_c, 0, 66, 91
2, 280260, Note_on_c, 0, 66, 0
2, 280260, Note_on_c, 0, 78, 0
2, 280260, Note_on_c, 0, 90, 0
2, 280260, Note_on_c, 0, 54, 0
2, 280260, Note_on_c, 0, 79, 106
2, 280260, Note_on_c, 0, 91, 106
2, 280260, Note_on_c, 0, 55, 100
2, 280260, Note_on_c, 0, 67, 100
2, 280620, Note_on_c, 0, 67, 0
2, 280620, Note_on_c, 0, 79, 0
2, 280620, Note_on_c, 0, 91, 0
2, 280620, Note_on_c, 0, 55, 0
2, 280620, Note_on_c, 0, 78, 92
2, 280620, Note_on_c, 0, 90, 92
2, 280620, Note_on_c, 0, 54, 93
2, 280620, Note_on_c, 0, 66, 93
2, 280710, Note_on_c, 0, 66, 0
2, 280710, Note_on_c, 0, 78, 0
2, 280710, Note_on_c, 0, 90, 0
2, 280710, Note_on_c, 0, 54, 0
2, 280710, Note_on_c, 0, 79, 101
2, 280710, Note_on_c, 0, 91, 101
2, 280710, Note_on_c, 0, 55, 101
2, 280710, Note_on_c, 0, 67, 101
2, 280800, Note_on_c, 0, 67, 0
2, 280800, Note_on_c, 0, 79, 0
2, 280800, Note_on_c, 0, 91, 0
2, 280800, Note_on_c, 0, 55, 0
2, 280800, Note_on_c, 0, 81, 102
2, 280800, Note_on_c, 0, 90, 102
2, 280800, Note_on_c, 0, 93, 102
2, 280800, Note_on_c, 0, 57, 102
2, 280800, Note_on_c, 0, 66, 102
2, 280800, Note_on_c, 0, 69, 102
2, 280890, Note_on_c, 0, 69, 0
2, 280890, Note_on_c, 0, 90, 0
2, 280890, Note_on_c, 0, 93, 0
2, 280890, Note_on_c, 0, 81, 0
2, 280890, Note_on_c, 0, 66, 0
2, 280890, Note_on_c, 0, 57, 0
2, 280890, Note_on_c, 0, 83, 105
2, 280890, Note_on_c, 0, 91, 105
2, 280890, Note_on_c, 0, 95, 105
2, 280890, Note_on_c, 0, 59, 103
2, 280890, Note_on_c, 0, 67, 103
2, 280890, Note_on_c, 0, 71, 103
2, 280980, Note_on_c, 0, 71, 0
2, 280980, Note_on_c, 0, 91, 0
2, 280980, Note_on_c, 0, 95, 0
2, 280980, Note_on_c, 0, 83, 0
2, 280980, Note_on_c, 0, 67, 0
2, 280980, Note_on_c, 0, 59, 0
2, 280980, Note_on_c, 0, 84, 103
2, 280980, Note_on_c, 0, 93, 103
2, 280980, Note_on_c, 0, 96, 103
2, 280980, Note_on_c, 0, 60, 102
2, 280980, Note_on_c, 0, 69, 102
2, 280980, Note_on_c, 0, 72, 102
2, 281070, Note_on_c, 0, 72, 0
2, 281070, Note_on_c, 0, 93, 0
2, 281070, Note_on_c, 0, 96, 0
2, 281070, Note_on_c, 0, 84, 0
2, 281070, Note_on_c, 0, 69, 0
2, 281070, Note_on_c, 0, 60, 0
2, 281070, Note_on_c, 0, 88, 109
2, 281070, Note_on_c, 0, 96, 109
2, 281070, Note_on_c, 0, 100, 109
2, 281070, Note_on_c, 0, 64, 114
2, 281070, Note_on_c, 0, 72, 114
2, 281070, Note_on_c, 0, 76, 114
2, 281160, Note_on_c, 0, 76, 0
2, 281160, Note_on_c, 0, 96, 0
2, 281160, Note_on_c, 0, 100, 0
2, 281160, Note_on_c, 0, 88, 0
2, 281160, Note_on_c, 0, 72, 0
2, 281160, Note_on_c, 0, 64, 0
2, 281160, Note_on_c, 0, 86, 94
2, 281160, Note_on_c, 0, 95, 94
2, 281160, Note_on_c, 0, 98, 94
2, 281160, Note_on_c, 0, 62, 93
2, 281160, Note_on_c, 0, 71, 93
2, 281160, Note_on_c, 0, 74, 93
2, 281340, Note_on_c, 0, 74, 0
2, 281340, Note_on_c, 0, 95, 0
2, 281340, Note_on_c, 0, 98, 0
2, 281340, Note_on_c, 0, 86, 0
2, 281340, Note_on_c, 0, 71, 0
2, 281340, Note_on_c, 0, 62, 0
2, 281340, Note_on_c, 0, 84, 88
2, 281340, Note_on_c, 0, 93, 88
2, 281340, Note_on_c, 0, 96, 88
2, 281340, Note_on_c, 0, 60, 88
2, 281340, Note_on_c, 0, 69, 88
2, 281340, Note_on_c, 0, 72, 88
2, 281520, Note_on_c, 0, 72, 0
2, 281520, Note_on_c, 0, 93, 0
2, 281520, Note_on_c, 0, 96, 0
2, 281520, Note_on_c, 0, 84, 0
2, 281520, Note_on_c, 0, 69, 0
2, 281520, Note_on_c, 0, 60, 0
2, 281520, Note_on_c, 0, 83, 89
2, 281520, Note_on_c, 0, 86, 89
2, 281520, Note_on_c, 0, 95, 89
2, 281520, Note_on_c, 0, 59, 91
2, 281520, Note_on_c, 0, 62, 91
2, 281520, Note_on_c, 0, 71, 91
2, 282060, Note_on_c, 0, 71, 0
2, 282060, Note_on_c, 0, 86, 0
2, 282060, Note_on_c, 0, 95, 0
2, 282060, Note_on_c, 0, 83, 0
2, 282060, Note_on_c, 0, 62, 0
2, 282060, Note_on_c, 0, 59, 0
2, 282060, Note_on_c, 0, 71, 99
2, 282060, Note_on_c, 0, 83, 99
2, 282060, Note_on_c, 0, 59, 87
2, 282150, Note_on_c, 0, 59, 0
2, 282150, Note_on_c, 0, 83, 0
2, 282150, Note_on_c, 0, 71, 0
2, 282150, Note_on_c, 0, 72, 103
2, 282150, Note_on_c, 0, 84, 103
2, 282150, Note_on_c, 0, 60, 98
2, 282240, Note_on_c, 0, 60, 0
2, 282240, Note_on_c, 0, 84, 0
2, 282240, Note_on_c, 0, 72, 0
2, 282240, Note_on_c, 0, 74, 117
2, 282240, Note_on_c, 0, 86, 117
2, 282240, Note_on_c, 0, 62, 120
2, 282330, Note_on_c, 0, 62, 0
2, 282330, Note_on_c, 0, 86, 0
2, 282330, Note_on_c, 0, 74, 0
2, 282330, Note_on_c, 0, 76, 119
2, 282330, Note_on_c, 0, 88, 119
2, 282330, Note_on_c, 0, 64, 114
2, 282420, Note_on_c, 0, 64, 0
2, 282420, Note_on_c, 0, 88, 0
2, 282420, Note_on_c, 0, 76, 0
2, 282420, Note_on_c, 0, 74, 105
2, 282420, Note_on_c, 0, 86, 105
2, 282420, Note_on_c, 0, 62, 107
2, 282510, Note_on_c, 0, 62, 0
2, 282510, Note_on_c, 0, 86, 0
2, 282510, Note_on_c, 0, 74, 0
2, 282510, Note_on_c, 0, 72, 103
2, 282510, Note_on_c, 0, 84, 103
2, 282510, Note_on_c, 0, 60, 102
2, 282600, Note_on_c, 0, 60, 0
2, 282600, Note_on_c, 0, 84, 0
2, 282600, Note_on_c, 0, 72, 0
2, 282600, Note_on_c, 0, 71, 107
2, 282600, Note_on_c, 0, 83, 107
2, 282600, Note_on_c, 0, 59, 113
2, 282780, Note_on_c, 0, 59, 0
2, 282780, Note_on_c, 0, 83, 0
2, 282780, Note_on_c, 0, 71, 0
2, 282780, Note_on_c, 0, 69, 108
2, 282780, Note_on_c, 0, 81, 108
2, 282780, Note_on_c, 0, 57, 109
2, 282960, Note_on_c, 0, 57, 0
2, 282960, Note_on_c, 0, 81, 0
2, 282960, Note_on_c, 0, 69, 0
2, 282960, Note_on_c, 0, 67, 102
2, 282960, Note_on_c, 0, 79, 102
2, 282960, Note_on_c, 0, 55, 108
2, 283050, Note_on_c, 0, 55, 0
2, 283050, Note_on_c, 0, 79, 0
2, 283050, Note_on_c, 0, 67, 0
2, 283050, Note_on_c, 0, 69, 115
2, 283050, Note_on_c, 0, 81, 115
2, 283050, Note_on_c, 0, 57, 114
2, 283140, Note_on_c, 0, 57, 0
2, 283140, Note_on_c, 0, 81, 0
2, 283140, Note_on_c, 0, 69, 0
2, 283140, Note_on_c, 0, 71, 124
2, 283140, Note_on_c, 0, 83, 124
2, 283140, Note_on_c, 0, 59, 112
2, 283410, Note_on_c, 0, 59, 0
2, 283410, Note_on_c, 0, 83, 0
2, 283410, Note_on_c, 0, 71, 0
2, 283410, Note_on_c, 0, 73, 122
2, 283410, Note_on_c, 0, 85, 122
2, 283410, Note_on_c, 0, 61, 118
2, 283500, Note_on_c, 0, 61, 0
2, 283500, Note_on_c, 0, 85, 0
2, 283500, Note_on_c, 0, 73, 0
2, 283500, Note_on_c, 0, 74, 120
2, 283500, Note_on_c, 0, 86, 120
2, 283500, Note_on_c, 0, 62, 121
2, 283590, Note_on_c, 0, 62, 0
2, 283590, Note_on_c, 0, 86, 0
2, 283590, Note_on_c, 0, 74, 0
2, 283590, Note_on_c, 0, 76, 113
2, 283590, Note_on_c, 0, 88, 113
2, 283590, Note_on_c, 0, 64, 123
2, 283680, Note_on_c, 0, 64, 0
2, 283680, Note_on_c, 0, 88, 0
2, 283680, Note_on_c, 0, 76, 0
2, 283680, Note_on_c, 0, 78, 117
2, 283680, Note_on_c, 0, 90, 117
2, 283680, Note_on_c, 0, 66, 119
2, 283770, Note_on_c, 0, 66, 0
2, 283770, Note_on_c, 0, 90, 0
2, 283770, Note_on_c, 0, 78, 0
2, 283770, Note_on_c, 0, 79, 121
2, 283770, Note_on_c, 0, 91, 121
2, 283770, Note_on_c, 0, 67, 121
2, 283860, Note_on_c, 0, 67, 0
2, 283860, Note_on_c, 0, 91, 0
2, 283860, Note_on_c, 0, 79, 0
2, 283860, Note_on_c, 0, 78, 113
2, 283860, Note_on_c, 0, 90, 113
2, 283860, Note_on_c, 0, 66, 109
2, 283950, Note_on_c, 0, 66, 0
2, 283950, Note_on_c, 0, 90, 0
2, 283950, Note_on_c, 0, 78, 0
2, 283950, Note_on_c, 0, 76, 102
2, 283950, Note_on_c, 0, 88, 102
2, 283950, Note_on_c, 0, 64, 110
2, 284040, Note_on_c, 0, 64, 0
2, 284040, Note_on_c, 0, 88, 0
2, 284040, Note_on_c, 0, 76, 0
2, 284040, Note_on_c, 0, 74, 104
2, 284040, Note_on_c, 0, 86, 104
2, 284040, Note_on_c, 0, 62, 104
2, 284220, Note_on_c, 0, 62, 0
2, 284220, Note_on_c, 0, 86, 0
2, 284220, Note_on_c, 0, 74, 0
2, 284220, Note_on_c, 0, 73, 105
2, 284220, Note_on_c, 0, 85, 105
2, 284220, Note_on_c, 0, 61, 109
2, 284400, Note_on_c, 0, 61, 0
2, 284400, Note_on_c, 0, 85, 0
2, 284400, Note_on_c, 0, 73, 0
2, 284400, Note_on_c, 0, 71, 105
2, 284400, Note_on_c, 0, 83, 105
2, 284400, Note_on_c, 0, 59, 110
2, 284490, Note_on_c, 0, 59, 0
2, 284490, Note_on_c, 0, 83, 0
2, 284490, Note_on_c, 0, 71, 0
2, 284490, Note_on_c, 0, 73, 120
2, 284490, Note_on_c, 0, 85, 120
2, 284490, Note_on_c, 0, 61, 120
2, 284580, Note_on_c, 0, 61, 0
2, 284580, Note_on_c, 0, 85, 0
2, 284580, Note_on_c, 0, 73, 0
2, 284580, Note_on_c, 0, 74, 117
2, 284580, Note_on_c, 0, 86, 117
2, 284580, Note_on_c, 0, 62, 117
2, 284850, Note_on_c, 0, 62, 0
2, 284850, Note_on_c, 0, 86, 0
2, 284850, Note_on_c, 0, 74, 0
2, 284850, Note_on_c, 0, 73, 109
2, 284850, Note_on_c, 0, 85, 109
2, 284850, Note_on_c, 0, 61, 107
2, 284940, Note_on_c, 0, 61, 0
2, 284940, Note_on_c, 0, 85, 0
2, 284940, Note_on_c, 0, 73, 0
2, 284940, Note_on_c, 0, 74, 118
2, 284940, Note_on_c, 0, 86, 118
2, 284940, Note_on_c, 0, 62, 116
2, 285030, Note_on_c, 0, 62, 0
2, 285030, Note_on_c, 0, 86, 0
2, 285030, Note_on_c, 0, 74, 0
2, 285030, Note_on_c, 0, 76, 119
2, 285030, Note_on_c, 0, 88, 119
2, 285030, Note_on_c, 0, 64, 123
2, 285120, Note_on_c, 0, 64, 0
2, 285120, Note_on_c, 0, 88, 0
2, 285120, Note_on_c, 0, 76, 0
2, 285120, Note_on_c, 0, 78, 123
2, 285120, Note_on_c, 0, 90, 123
2, 285120, Note_on_c, 0, 66, 121
2, 285210, Note_on_c, 0, 66, 0
2, 285210, Note_on_c, 0, 90, 0
2, 285210, Note_on_c, 0, 78, 0
2, 285210, Note_on_c, 0, 79, 117
2, 285210, Note_on_c, 0, 91, 117
2, 285210, Note_on_c, 0, 67, 117
2, 285300, Note_on_c, 0, 67, 0
2, 285300, Note_on_c, 0, 91, 0
2, 285300, Note_on_c, 0, 79, 0
2, 285300, Note_on_c, 0, 78, 106
2, 285300, Note_on_c, 0, 90, 106
2, 285300, Note_on_c, 0, 66, 102
2, 285390, Note_on_c, 0, 66, 0
2, 285390, Note_on_c, 0, 90, 0
2, 285390, Note_on_c, 0, 78, 0
2, 285390, Note_on_c, 0, 74, 98
2, 285390, Note_on_c, 0, 86, 98
2, 285390, Note_on_c, 0, 62, 97
2, 285480, Note_on_c, 0, 62, 0
2, 285480, Note_on_c, 0, 86, 0
2, 285480, Note_on_c, 0, 74, 0
2, 285480, Note_on_c, 0, 78, 123
2, 285480, Note_on_c, 0, 90, 123
2, 285480, Note_on_c, 0, 66, 121
2, 285660, Note_on_c, 0, 66, 0
2, 285660, Note_on_c, 0, 90, 0
2, 285660, Note_on_c, 0, 78, 0
2, 285660, Note_on_c, 0, 74, 101
2, 285660, Note_on_c, 0, 86, 101
2, 285660, Note_on_c, 0, 62, 102
2, 285750, Note_on_c, 0, 62, 0
2, 285750, Note_on_c, 0, 86, 0
2, 285750, Note_on_c, 0, 74, 0
2, 285750, Note_on_c, 0, 76, 120
2, 285750, Note_on_c, 0, 88, 120
2, 285750, Note_on_c, 0, 64, 116
2, 285840, Note_on_c, 0, 64, 0
2, 285840, Note_on_c, 0, 88, 0
2, 285840, Note_on_c, 0, 76, 0
2, 285840, Note_on_c, 0, 78, 120
2, 285840, Note_on_c, 0, 90, 120
2, 285840, Note_on_c, 0, 66, 123
2, 285930, Note_on_c, 0, 66, 0
2, 285930, Note_on_c, 0, 90, 0
2, 285930, Note_on_c, 0, 78, 0
2, 285930, Note_on_c, 0, 79, 122
2, 285930, Note_on_c, 0, 91, 122
2, 285930, Note_on_c, 0, 67, 118
2, 286020, Note_on_c, 0, 67, 0
2, 286020, Note_on_c, 0, 91, 0
2, 286020, Note_on_c, 0, 79, 0
2, 286020, Note_on_c, 0, 78, 105
2, 286020, Note_on_c, 0, 90, 105
2, 286020, Note_on_c, 0, 66, 107
2, 286110, Note_on_c, 0, 66, 0
2, 286110, Note_on_c, 0, 90, 0
2, 286110, Note_on_c, 0, 78, 0
2, 286110, Note_on_c, 0, 74, 100
2, 286110, Note_on_c, 0, 86, 100
2, 286110, Note_on_c, 0, 62, 100
2, 286200, Note_on_c, 0, 62, 0
2, 286200, Note_on_c, 0, 86, 0
2, 286200, Note_on_c, 0, 74, 0
2, 286200, Note_on_c, 0, 78, 122
2, 286200, Note_on_c, 0, 90, 122
2, 286200, Note_on_c, 0, 66, 122
2, 286380, Note_on_c, 0, 66, 0
2, 286380, Note_on_c, 0, 90, 0
2, 286380, Note_on_c, 0, 78, 0
2, 286380, Note_on_c, 0, 78, 108
2, 286380, Note_on_c, 0, 90, 108
2, 286380, Note_on_c, 0, 66, 113
2, 286470, Note_on_c, 0, 66, 0
2, 286470, Note_on_c, 0, 90, 0
2, 286470, Note_on_c, 0, 78, 0
2, 286470, Note_on_c, 0, 80, 119
2, 286470, Note_on_c, 0, 92, 119
2, 286470, Note_on_c, 0, 68, 118
2, 286560, Note_on_c, 0, 68, 0
2, 286560, Note_on_c, 0, 92, 0
2, 286560, Note_on_c, 0, 80, 0
2, 286560, Note_on_c, 0, 81, 86
2, 286560, Note_on_c, 0, 93, 86
2, 286560, Note_on_c, 0, 69, 117
2, 286650, Note_on_c, 0, 69, 0
2, 286650, Note_on_c, 0, 93, 0
2, 286650, Note_on_c, 0, 81, 0
2, 286650, Note_on_c, 0, 82, 115
2, 286650, Note_on_c, 0, 94, 115
2, 286650, Note_on_c, 0, 70, 118
2, 286740, Note_on_c, 0, 70, 0
2, 286740, Note_on_c, 0, 94, 0
2, 286740, Note_on_c, 0, 82, 0
2, 286740, Note_on_c, 0, 81, 107
2, 286740, Note_on_c, 0, 93, 107
2, 286740, Note_on_c, 0, 69, 107
2, 286830, Note_on_c, 0, 69, 0
2, 286830, Note_on_c, 0, 93, 0
2, 286830, Note_on_c, 0, 81, 0
2, 286830, Note_on_c, 0, 77, 98
2, 286830, Note_on_c, 0, 89, 98
2, 286830, Note_on_c, 0, 65, 98
2, 286920, Note_on_c, 0, 65, 0
2, 286920, Note_on_c, 0, 89, 0
2, 286920, Note_on_c, 0, 77, 0
2, 286920, Note_on_c, 0, 81, 125
2, 286920, Note_on_c, 0, 93, 125
2, 286920, Note_on_c, 0, 69, 124
2, 287100, Note_on_c, 0, 69, 0
2, 287100, Note_on_c, 0, 93, 0
2, 287100, Note_on_c, 0, 81, 0
2, 287100, Note_on_c, 0, 77, 102
2, 287100, Note_on_c, 0, 89, 102
2, 287100, Note_on_c, 0, 65, 101
2, 287190, Note_on_c, 0, 65, 0
2, 287190, Note_on_c, 0, 89, 0
2, 287190, Note_on_c, 0, 77, 0
2, 287190, Note_on_c, 0, 79, 120
2, 287190, Note_on_c, 0, 91, 120
2, 287190, Note_on_c, 0, 67, 121
2, 287280, Note_on_c, 0, 67, 0
2, 287280, Note_on_c, 0, 91, 0
2, 287280, Note_on_c, 0, 79, 0
2, 287280, Note_on_c, 0, 81, 118
2, 287280, Note_on_c, 0, 93, 118
2, 287280, Note_on_c, 0, 69, 121
2, 287370, Note_on_c, 0, 69, 0
2, 287370, Note_on_c, 0, 93, 0
2, 287370, Note_on_c, 0, 81, 0
2, 287370, Note_on_c, 0, 82, 121
2, 287370, Note_on_c, 0, 94, 121
2, 287370, Note_on_c, 0, 70, 117
2, 287460, Note_on_c, 0, 70, 0
2, 287460, Note_on_c, 0, 94, 0
2, 287460, Note_on_c, 0, 82, 0
2, 287460, Note_on_c, 0, 81, 109
2, 287460, Note_on_c, 0, 93, 109
2, 287460, Note_on_c, 0, 69, 106
2, 287550, Note_on_c, 0, 69, 0
2, 287550, Note_on_c, 0, 93, 0
2, 287550, Note_on_c, 0, 81, 0
2, 287550, Note_on_c, 0, 77, 99
2, 287550, Note_on_c, 0, 89, 99
2, 287550, Note_on_c, 0, 65, 97
2, 287640, Note_on_c, 0, 65, 0
2, 287640, Note_on_c, 0, 89, 0
2, 287640, Note_on_c, 0, 77, 0
2, 287640, Note_on_c, 0, 81, 125
2, 287640, Note_on_c, 0, 93, 125
2, 287640, Note_on_c, 0, 69, 123
2, 287820, Note_on_c, 0, 69, 0
2, 287820, Note_on_c, 0, 93, 0
2, 287820, Note_on_c, 0, 81, 0
2, 287820, Note_on_c, 0, 80, 111
2, 287820, Note_on_c, 0, 92, 111
2, 287820, Note_on_c, 0, 68, 111
2, 287910, Note_on_c, 0, 68, 0
2, 287910, Note_on_c, 0, 92, 0
2, 287910, Note_on_c, 0, 80, 0
2, 287910, Note_on_c, 0, 81, 116
2, 287910, Note_on_c, 0, 93, 116
2, 287910, Note_on_c, 0, 69, 118
2, 288000, Note_on_c, 0, 69, 0
2, 288000, Note_on_c, 0, 93, 0
2, 288000, Note_on_c, 0, 81, 0
2, 288000, Note_on_c, 0, 82, 118
2, 288000, Note_on_c, 0, 94, 118
2, 288000, Note_on_c, 0, 70, 117
2, 288090, Note_on_c, 0, 70, 0
2, 288090, Note_on_c, 0, 94, 0
2, 288090, Note_on_c, 0, 82, 0
2, 288090, Note_on_c, 0, 87, 126
2, 288090, Note_on_c, 0, 99, 126
2, 288090, Note_on_c, 0, 75, 123
2, 288180, Note_on_c, 0, 75, 0
2, 288180, Note_on_c, 0, 99, 0
2, 288180, Note_on_c, 0, 87, 0
2, 288180, Note_on_c, 0, 85, 110
2, 288180, Note_on_c, 0, 97, 110
2, 288180, Note_on_c, 0, 73, 107
2, 288270, Note_on_c, 0, 73, 0
2, 288270, Note_on_c, 0, 97, 0
2, 288270, Note_on_c, 0, 85, 0
2, 288270, Note_on_c, 0, 83, 106
2, 288270, Note_on_c, 0, 95, 106
2, 288270, Note_on_c, 0, 71, 100
2, 288360, Note_on_c, 0, 71, 0
2, 288360, Note_on_c, 0, 95, 0
2, 288360, Note_on_c, 0, 83, 0
2, 288360, Note_on_c, 0, 82, 108
2, 288360, Note_on_c, 0, 94, 108
2, 288360, Note_on_c, 0, 70, 107
2, 288540, Note_on_c, 0, 70, 0
2, 288540, Note_on_c, 0, 94, 0
2, 288540, Note_on_c, 0, 82, 0
2, 288540, Note_on_c, 0, 80, 108
2, 288540, Note_on_c, 0, 92, 108
2, 288540, Note_on_c, 0, 68, 104
2, 288720, Note_on_c, 0, 68, 0
2, 288720, Note_on_c, 0, 92, 0
2, 288720, Note_on_c, 0, 80, 0
2, 288720, Note_on_c, 0, 78, 104
2, 288720, Note_on_c, 0, 90, 104
2, 288720, Note_on_c, 0, 66, 106
2, 288810, Note_on_c, 0, 66, 0
2, 288810, Note_on_c, 0, 90, 0
2, 288810, Note_on_c, 0, 78, 0
2, 288810, Note_on_c, 0, 80, 116
2, 288810, Note_on_c, 0, 92, 116
2, 288810, Note_on_c, 0, 68, 118
2, 288900, Note_on_c, 0, 68, 0
2, 288900, Note_on_c, 0, 92, 0
2, 288900, Note_on_c, 0, 80, 0
2, 288900, Note_on_c, 0, 82, 119
2, 288900, Note_on_c, 0, 94, 119
2, 288900, Note_on_c, 0, 70, 122
2, 289260, Note_on_c, 0, 70, 0
2, 289260, Note_on_c, 0, 94, 0
2, 289260, Note_on_c, 0, 82, 0
2, 289260, Note_on_c, 0, 81, 110
2, 289260, Note_on_c, 0, 93, 110
2, 289260, Note_on_c, 0, 69, 108
2, 289350, Note_on_c, 0, 69, 0
2, 289350, Note_on_c, 0, 93, 0
2, 289350, Note_on_c, 0, 81, 0
2, 289350, Note_on_c, 0, 82, 114
2, 289350, Note_on_c, 0, 94, 114
2, 289350, Note_on_c, 0, 70, 118
2, 289440, Note_on_c, 0, 70, 0
2, 289440, Note_on_c, 0, 94, 0
2, 289440, Note_on_c, 0, 82, 0
2, 289440, Note_on_c, 0, 83, 115
2, 289440, Note_on_c, 0, 95, 115
2, 289440, Note_on_c, 0, 71, 122
2, 289530, Note_on_c, 0, 71, 0
2, 289530, Note_on_c, 0, 95, 0
2, 289530, Note_on_c, 0, 83, 0
2, 289530, Note_on_c, 0, 88, 126
2, 289530, Note_on_c, 0, 100, 126
2, 289530, Note_on_c, 0, 76, 126
2, 289620, Note_on_c, 0, 76, 0
2, 289620, Note_on_c, 0, 100, 0
2, 289620, Note_on_c, 0, 88, 0
2, 289620, Note_on_c, 0, 86, 113
2, 289620, Note_on_c, 0, 98, 113
2, 289620, Note_on_c, 0, 74, 108
2, 289710, Note_on_c, 0, 74, 0
2, 289710, Note_on_c, 0, 98, 0
2, 289710, Note_on_c, 0, 86, 0
2, 289710, Note_on_c, 0, 84, 104
2, 289710, Note_on_c, 0, 96, 104
2, 289710, Note_on_c, 0, 72, 102
2, 289800, Note_on_c, 0, 72, 0
2, 289800, Note_on_c, 0, 96, 0
2, 289800, Note_on_c, 0, 84, 0
2, 289800, Note_on_c, 0, 83, 106
2, 289800, Note_on_c, 0, 95, 106
2, 289800, Note_on_c, 0, 71, 101
2, 289980, Note_on_c, 0, 71, 0
2, 289980, Note_on_c, 0, 95, 0
2, 289980, Note_on_c, 0, 83, 0
2, 289980, Note_on_c, 0, 81, 108
2, 289980, Note_on_c, 0, 93, 108
2, 289980, Note_on_c, 0, 69, 104
2, 290160, Note_on_c, 0, 69, 0
2, 290160, Note_on_c, 0, 93, 0
2, 290160, Note_on_c, 0, 81, 0
2, 290160, Note_on_c, 0, 79, 107
2, 290160, Note_on_c, 0, 91, 107
2, 290160, Note_on_c, 0, 67, 100
2, 290250, Note_on_c, 0, 67, 0
2, 290250, Note_on_c, 0, 91, 0
2, 290250, Note_on_c, 0, 79, 0
2, 290250, Note_on_c, 0, 81, 120
2, 290250, Note_on_c, 0, 93, 120
2, 290250, Note_on_c, 0, 69, 116
2, 290340, Note_on_c, 0, 69, 0
2, 290340, Note_on_c, 0, 93, 0
2, 290340, Note_on_c, 0, 81, 0
2, 290340, Note_on_c, 0, 83, 120
2, 290340, Note_on_c, 0, 95, 120
2, 290340, Note_on_c, 0, 71, 122
2, 290700, Note_on_c, 0, 71, 0
2, 290700, Note_on_c, 0, 95, 0
2, 290700, Note_on_c, 0, 83, 0
2, 290700, Note_on_c, 0, 71, 109
2, 290700, Note_on_c, 0, 83, 109
2, 290700, Note_on_c, 0, 59, 101
2, 290790, Note_on_c, 0, 59, 0
2, 290790, Note_on_c, 0, 83, 0
2, 290790, Note_on_c, 0, 71, 0
2, 290790, Note_on_c, 0, 72, 120
2, 290790, Note_on_c, 0, 84, 120
2, 290790, Note_on_c, 0, 60, 116
2, 290880, Note_on_c, 0, 60, 0
2, 290880, Note_on_c, 0, 84, 0
2, 290880, Note_on_c, 0, 72, 0
2, 290880, Note_on_c, 0, 74, 120
2, 290880, Note_on_c, 0, 86, 120
2, 290880, Note_on_c, 0, 62, 119
2, 290970, Note_on_c, 0, 62, 0
2, 290970, Note_on_c, 0, 86, 0
2, 290970, Note_on_c, 0, 74, 0
2, 290970, Note_on_c, 0, 76, 122
2, 290970, Note_on_c, 0, 88, 122
2, 290970, Note_on_c, 0, 64, 121
2, 291060, Note_on_c, 0, 64, 0
2, 291060, Note_on_c, 0, 88, 0
2, 291060, Note_on_c, 0, 76, 0
2, 291060, Note_on_c, 0, 74, 110
2, 291060, Note_on_c, 0, 86, 110
2, 291060, Note_on_c, 0, 62, 110
2, 291150, Note_on_c, 0, 62, 0
2, 291150, Note_on_c, 0, 86, 0
2, 291150, Note_on_c, 0, 74, 0
2, 291150, Note_on_c, 0, 72, 105
2, 291150, Note_on_c, 0, 84, 105
2, 291150, Note_on_c, 0, 60, 101
2, 291240, Note_on_c, 0, 60, 0
2, 291240, Note_on_c, 0, 84, 0
2, 291240, Note_on_c, 0, 72, 0
2, 291240, Note_on_c, 0, 71, 110
2, 291240, Note_on_c, 0, 83, 110
2, 291240, Note_on_c, 0, 59, 109
2, 291420, Note_on_c, 0, 59, 0
2, 291420, Note_on_c, 0, 83, 0
2, 291420, Note_on_c, 0, 71, 0
2, 291420, Note_on_c, 0, 69, 97
2, 291420, Note_on_c, 0, 81, 97
2, 291420, Note_on_c, 0, 57, 108
2, 291600, Note_on_c, 0, 57, 0
2, 291600, Note_on_c, 0, 81, 0
2, 291600, Note_on_c, 0, 69, 0
2, 291600, Note_on_c, 0, 67, 104
2, 291600, Note_on_c, 0, 79, 104
2, 291600, Note_on_c, 0, 55, 108
2, 291690, Note_on_c, 0, 55, 0
2, 291690, Note_on_c, 0, 79, 0
2, 291690, Note_on_c, 0, 67, 0
2, 291690, Note_on_c, 0, 69, 119
2, 291690, Note_on_c, 0, 81, 119
2, 291690, Note_on_c, 0, 57, 119
2, 291780, Note_on_c, 0, 57, 0
2, 291780, Note_on_c, 0, 81, 0
2, 291780, Note_on_c, 0, 69, 0
2, 291780, Note_on_c, 0, 71, 119
2, 291780, Note_on_c, 0, 83, 119
2, 291780, Note_on_c, 0, 59, 115
2, 292140, Note_on_c, 0, 59, 0
2, 292140, Note_on_c, 0, 83, 0
2, 292140, Note_on_c, 0, 71, 0
2, 292140, Note_on_c, 0, 71, 79
2, 292140, Note_on_c, 0, 59, 114
2, 292230, Note_on_c, 0, 59, 0
2, 292230, Note_on_c, 0, 71, 0
2, 292230, Note_on_c, 0, 72, 111
2, 292230, Note_on_c, 0, 60, 119
2, 292320, Note_on_c, 0, 60, 0
2, 292320, Note_on_c, 0, 72, 0
2, 292320, Note_on_c, 0, 74, 125
2, 292320, Note_on_c, 0, 62, 120
2, 292410, Note_on_c, 0, 62, 0
2, 292410, Note_on_c, 0, 74, 0
2, 292410, Note_on_c, 0, 76, 123
2, 292410, Note_on_c, 0, 64, 118
2, 292500, Note_on_c, 0, 64, 0
2, 292500, Note_on_c, 0, 76, 0
2, 292500, Note_on_c, 0, 74, 105
2, 292500, Note_on_c, 0, 62, 109
2, 292590, Note_on_c, 0, 62, 0
2, 292590, Note_on_c, 0, 74, 0
2, 292590, Note_on_c, 0, 72, 104
2, 292590, Note_on_c, 0, 60, 105
2, 292680, Note_on_c, 0, 60, 0
2, 292680, Note_on_c, 0, 72, 0
2, 292680, Note_on_c, 0, 71, 109
2, 292680, Note_on_c, 0, 59, 104
2, 292860, Note_on_c, 0, 59, 0
2, 292860, Note_on_c, 0, 71, 0
2, 292860, Note_on_c, 0, 69, 107
2, 292860, Note_on_c, 0, 57, 107
2, 293040, Note_on_c, 0, 57, 0
2, 293040, Note_on_c, 0, 69, 0
2, 293040, Note_on_c, 0, 67, 103
2, 293040, Note_on_c, 0, 55, 111
2, 293130, Note_on_c, 0, 55, 0
2, 293130, Note_on_c, 0, 67, 0
2, 293130, Note_on_c, 0, 69, 116
2, 293130, Note_on_c, 0, 57, 118
2, 293220, Note_on_c, 0, 57, 0
2, 293220, Note_on_c, 0, 69, 0
2, 293220, Note_on_c, 0, 71, 125
2, 293220, Note_on_c, 0, 59, 116
2, 293580, Note_on_c, 0, 59, 0
2, 293580, Note_on_c, 0, 71, 0
2, 293580, Note_on_c, 0, 69, 110
2, 293580, Note_on_c, 0, 57, 111
2, 293670, Note_on_c, 0, 57, 0
2, 293670, Note_on_c, 0, 69, 0
2, 293670, Note_on_c, 0, 67, 106
2, 293670, Note_on_c, 0, 55, 107
2, 293760, Note_on_c, 0, 55, 0
2, 293760, Note_on_c, 0, 67, 0
2, 293760, Note_on_c, 0, 71, 118
2, 293760, Note_on_c, 0, 59, 120
2, 293940, Note_on_c, 0, 59, 0
2, 293940, Note_on_c, 0, 71, 0
2, 293940, Note_on_c, 0, 59, 101
2, 293940, Note_on_c, 0, 62, 101
2, 293940, Note_on_c, 0, 67, 101
2, 293940, Note_on_c, 0, 55, 109
2, 294120, Note_on_c, 0, 55, 0
2, 294120, Note_on_c, 0, 59, 0
2, 294120, Note_on_c, 0, 62, 0
2, 294120, Note_on_c, 0, 67, 0
2, 294120, Note_on_c, 0, 60, 115
2, 294120, Note_on_c, 0, 67, 115
2, 294120, Note_on_c, 0, 69, 115
2, 294120, Note_on_c, 0, 51, 112
2, 294120, Note_on_c, 0, 55, 112
2, 294120, Note_on_c, 0, 57, 112
2, 294300, Note_on_c, 0, 57, 0
2, 294300, Note_on_c, 0, 67, 0
2, 294300, Note_on_c, 0, 69, 0
2, 294300, Note_on_c, 0, 60, 0
2, 294300, Note_on_c, 0, 55, 0
2, 294300, Note_on_c, 0, 51, 0
2, 294300, Note_on_c, 0, 60, 110
2, 294300, Note_on_c, 0, 67, 110
2, 294300, Note_on_c, 0, 69, 110
2, 294300, Note_on_c, 0, 51, 113
2, 294300, Note_on_c, 0, 55, 113
2, 294300, Note_on_c, 0, 57, 113
2, 294480, Note_on_c, 0, 57, 0
2, 294480, Note_on_c, 0, 67, 0
2, 294480, Note_on_c, 0, 69, 0
2, 294480, Note_on_c, 0, 60, 0
2, 294480, Note_on_c, 0, 55, 0
2, 294480, Note_on_c, 0, 51, 0
2, 294480, Note_on_c, 0, 63, 120
2, 294480, Note_on_c, 0, 67, 120
2, 294480, Note_on_c, 0, 72, 120
2, 294480, Note_on_c, 0, 48, 113
2, 294480, Note_on_c, 0, 51, 113
2, 294480, Note_on_c, 0, 55, 113
2, 294480, Note_on_c, 0, 57, 113
2, 294660, Note_on_c, 0, 57, 0
2, 294660, Note_on_c, 0, 51, 0
2, 294660, Note_on_c, 0, 67, 0
2, 294660, Note_on_c, 0, 72, 0
2, 294660, Note_on_c, 0, 63, 0
2, 294660, Note_on_c, 0, 55, 0
2, 294660, Note_on_c, 0, 48, 0
2, 294660, Note_on_c, 0, 63, 115
2, 294660, Note_on_c, 0, 67, 115
2, 294660, Note_on_c, 0, 72, 115
2, 294660, Note_on_c, 0, 48, 114
2, 294660, Note_on_c, 0, 51, 114
2, 294660, Note_on_c, 0, 55, 114
2, 294660, Note_on_c, 0, 57, 114
2, 294840, Note_on_c, 0, 57, 0
2, 294840, Note_on_c, 0, 51, 0
2, 294840, Note_on_c, 0, 67, 0
2, 294840, Note_on_c, 0, 72, 0
2, 294840, Note_on_c, 0, 63, 0
2, 294840, Note_on_c, 0, 55, 0
2, 294840, Note_on_c, 0, 48, 0
2, 294840, Note_on_c, 0, 63, 123
2, 294840, Note_on_c, 0, 67, 123
2, 294840, Note_on_c, 0, 72, 123
2, 294840, Note_on_c, 0, 75, 123
2, 294840, Note_on_c, 0, 51, 120
2, 294840, Note_on_c, 0, 55, 120
2, 294840, Note_on_c, 0, 60, 120
2, 295020, Note_on_c, 0, 60, 0
2, 295020, Note_on_c, 0, 51, 0
2, 295020, Note_on_c, 0, 67, 0
2, 295020, Note_on_c, 0, 72, 0
2, 295020, Note_on_c, 0, 63, 0
2, 295020, Note_on_c, 0, 55, 0
2, 295020, Note_on_c, 0, 75, 0
2, 295020, Note_on_c, 0, 62, 107
2, 295020, Note_on_c, 0, 66, 107
2, 295020, Note_on_c, 0, 72, 107
2, 295020, Note_on_c, 0, 74, 107
2, 295020, Note_on_c, 0, 50, 116
2, 295020, Note_on_c, 0, 54, 116
2, 295020, Note_on_c, 0, 60, 116
2, 295200, Note_on_c, 0, 60, 0
2, 295200, Note_on_c, 0, 50, 0
2, 295200, Note_on_c, 0, 66, 0
2, 295200, Note_on_c, 0, 72, 0
2, 295200, Note_on_c, 0, 62, 0
2, 295200, Note_on_c, 0, 54, 0
2, 295200, Note_on_c, 0, 74, 0
2, 295200, Note_on_c, 0, 71, 126
2, 295200, Note_on_c, 0, 74, 126
2, 295200, Note_on_c, 0, 79, 126
2, 295200, Note_on_c, 0, 83, 126
2, 295200, Note_on_c, 0, 50, 105
2, 295200, Note_on_c, 0, 55, 105
2, 295200, Note_on_c, 0, 59, 105
2, 295380, Note_on_c, 0, 59, 0
2, 295380, Note_on_c, 0, 50, 0
2, 295380, Note_on_c, 0, 74, 0
2, 295380, Note_on_c, 0, 79, 0
2, 295380, Note_on_c, 0, 71, 0
2, 295380, Note_on_c, 0, 55, 0
2, 295380, Note_on_c, 0, 83, 0
2, 295380, Note_on_c, 0, 67, 106
2, 295380, Note_on_c, 0, 71, 106
2, 295380, Note_on_c, 0, 74, 106
2, 295380, Note_on_c, 0, 79, 106
2, 295380, Note_on_c, 0, 55, 121
2, 295380, Note_on_c, 0, 59, 121
2, 295380, Note_on_c, 0, 62, 121
2, 295560, Note_on_c, 0, 62, 0
2, 295560, Note_on_c, 0, 55, 0
2, 295560, Note_on_c, 0, 71, 0
2, 295560, Note_on_c, 0, 74, 0
2, 295560, Note_on_c, 0, 67, 0
2, 295560, Note_on_c, 0, 59, 0
2, 295560, Note_on_c, 0, 79, 0
2, 295560, Note_on_c, 0, 69, 114
2, 295560, Note_on_c, 0, 72, 114
2, 295560, Note_on_c, 0, 79, 114
2, 295560, Note_on_c, 0, 81, 114
2, 295560, Note_on_c, 0, 57, 126
2, 295560, Note_on_c, 0, 60, 126
2, 295560, Note_on_c, 0, 67, 126
2, 295740, Note_on_c, 0, 67, 0
2, 295740, Note_on_c, 0, 57, 0
2, 295740, Note_on_c, 0, 72, 0
2, 295740, Note_on_c, 0, 79, 0
2, 295740, Note_on_c, 0, 69, 0
2, 295740, Note_on_c, 0, 60, 0
2, 295740, Note_on_c, 0, 81, 0
2, 295740, Note_on_c, 0, 69, 113
2, 295740, Note_on_c, 0, 72, 113
2, 295740, Note_on_c, 0, 79, 113
2, 295740, Note_on_c, 0, 81, 113
2, 295740, Note_on_c, 0, 57, 116
2, 295740, Note_on_c, 0, 60, 116
2, 295740, Note_on_c, 0, 67, 116
2, 295920, Note_on_c, 0, 67, 0
2, 295920, Note_on_c, 0, 57, 0
2, 295920, Note_on_c, 0, 72, 0
2, 295920, Note_on_c, 0, 79, 0
2, 295920, Note_on_c, 0, 69, 0
2, 295920, Note_on_c, 0, 60, 0
2, 295920, Note_on_c, 0, 81, 0
2, 295920, Note_on_c, 0, 72, 124
2, 295920, Note_on_c, 0, 75, 124
2, 295920, Note_on_c, 0, 79, 124
2, 295920, Note_on_c, 0, 84, 124
2, 295920, Note_on_c, 0, 60, 123
2, 295920, Note_on_c, 0, 63, 123
2, 295920, Note_on_c, 0, 67, 123
2, 295920, Note_on_c, 0, 69, 123
2, 296100, Note_on_c, 0, 69, 0
2, 296100, Note_on_c, 0, 72, 0
2, 296100, Note_on_c, 0, 60, 0
2, 296100, Note_on_c, 0, 75, 0
2, 296100, Note_on_c, 0, 79, 0
2, 296100, Note_on_c, 0, 84, 0
2, 296100, Note_on_c, 0, 63, 0
2, 296100, Note_on_c, 0, 67, 0
2, 296100, Note_on_c, 0, 72, 115
2, 296100, Note_on_c, 0, 75, 115
2, 296100, Note_on_c, 0, 79, 115
2, 296100, Note_on_c, 0, 84, 115
2, 296100, Note_on_c, 0, 60, 110
2, 296100, Note_on_c, 0, 63, 110
2, 296100, Note_on_c, 0, 67, 110
2, 296100, Note_on_c, 0, 69, 110
2, 296280, Note_on_c, 0, 69, 0
2, 296280, Note_on_c, 0, 72, 0
2, 296280, Note_on_c, 0, 60, 0
2, 296280, Note_on_c, 0, 75, 0
2, 296280, Note_on_c, 0, 79, 0
2, 296280, Note_on_c, 0, 84, 0
2, 296280, Note_on_c, 0, 63, 0
2, 296280, Note_on_c, 0, 67, 0
2, 296280, Note_on_c, 0, 75, 123
2, 296280, Note_on_c, 0, 79, 123
2, 296280, Note_on_c, 0, 84, 123
2, 296280, Note_on_c, 0, 87, 123
2, 296280, Note_on_c, 0, 63, 126
2, 296280, Note_on_c, 0, 67, 126
2, 296280, Note_on_c, 0, 72, 126
2, 296460, Note_on_c, 0, 72, 0
2, 296460, Note_on_c, 0, 63, 0
2, 296460, Note_on_c, 0, 79, 0
2, 296460, Note_on_c, 0, 84, 0
2, 296460, Note_on_c, 0, 75, 0
2, 296460, Note_on_c, 0, 67, 0
2, 296460, Note_on_c, 0, 87, 0
2, 296460, Note_on_c, 0, 74, 111
2, 296460, Note_on_c, 0, 78, 111
2, 296460, Note_on_c, 0, 84, 111
2, 296460, Note_on_c, 0, 86, 111
2, 296460, Note_on_c, 0, 62, 108
2, 296460, Note_on_c, 0, 66, 108
2, 296460, Note_on_c, 0, 72, 108
2, 296640, Note_on_c, 0, 72, 0
2, 296640, Note_on_c, 0, 62, 0
2, 296640, Note_on_c, 0, 78, 0
2, 296640, Note_on_c, 0, 84, 0
2, 296640, Note_on_c, 0, 74, 0
2, 296640, Note_on_c, 0, 66, 0
2, 296640, Note_on_c, 0, 86, 0
2, 296640, Note_on_c, 0, 83, 99
2, 296640, Note_on_c, 0, 86, 99
2, 296640, Note_on_c, 0, 91, 99
2, 296640, Note_on_c, 0, 95, 99
2, 296640, Note_on_c, 0, 59, 104
2, 296640, Note_on_c, 0, 62, 104
2, 296640, Note_on_c, 0, 67, 104
2, 296640, Note_on_c, 0, 71, 104
2, 296820, Note_on_c, 0, 71, 0
2, 296820, Note_on_c, 0, 83, 0
2, 296820, Note_on_c, 0, 59, 0
2, 296820, Note_on_c, 0, 86, 0
2, 296820, Note_on_c, 0, 91, 0
2, 296820, Note_on_c, 0, 95, 0
2, 296820, Note_on_c, 0, 62, 0
2, 296820, Note_on_c, 0, 67, 0
2, 296820, Note_on_c, 0, 79, 103
2, 296820, Note_on_c, 0, 83, 103
2, 296820, Note_on_c, 0, 86, 103
2, 296820, Note_on_c, 0, 91, 103
2, 296820, Note_on_c, 0, 55, 101
2, 296820, Note_on_c, 0, 59, 101
2, 296820, Note_on_c, 0, 62, 101
2, 296820, Note_on_c, 0, 67, 101
2, 297000, Note_on_c, 0, 67, 0
2, 297000, Note_on_c, 0, 79, 0
2, 297000, Note_on_c, 0, 55, 0
2, 297000, Note_on_c, 0, 83, 0
2, 297000, Note_on_c, 0, 86, 0
2, 297000, Note_on_c, 0, 91, 0
2, 297000, Note_on_c, 0, 59, 0
2, 297000, Note_on_c, 0, 62, 0
2, 297000, Note_on_c, 0, 81, 119
2, 297000, Note_on_c, 0, 84, 119
2, 297000, Note_on_c, 0, 91, 119
2, 297000, Note_on_c, 0, 93, 119
2, 297000, Note_on_c, 0, 57, 119
2, 297000, Note_on_c, 0, 60, 119
2, 297000, Note_on_c, 0, 67, 119
2, 297000, Note_on_c, 0, 69, 119
2, 297180, Note_on_c, 0, 69, 0
2, 297180, Note_on_c, 0, 81, 0
2, 297180, Note_on_c, 0, 57, 0
2, 297180, Note_on_c, 0, 84, 0
2, 297180, Note_on_c, 0, 91, 0
2, 297180, Note_on_c, 0, 93, 0
2, 297180, Note_on_c, 0, 60, 0
2, 297180, Note_on_c, 0, 67, 0
2, 297180, Note_on_c, 0, 81, 109
2, 297180, Note_on_c, 0, 84, 109
2, 297180, Note_on_c, 0, 91, 109
2, 297180, Note_on_c, 0, 93, 109
2, 297180, Note_on_c, 0, 57, 113
2, 297180, Note_on_c, 0, 60, 113
2, 297180, Note_on_c, 0, 67, 113
2, 297180, Note_on_c, 0, 69, 113
2, 297360, Note_on_c, 0, 69, 0
2, 297360, Note_on_c, 0, 81, 0
2, 297360, Note_on_c, 0, 57, 0
2, 297360, Note_on_c, 0, 84, 0
2, 297360, Note_on_c, 0, 91, 0
2, 297360, Note_on_c, 0, 93, 0
2, 297360, Note_on_c, 0, 60, 0
2, 297360, Note_on_c, 0, 67, 0
2, 297360, Note_on_c, 0, 84, 119
2, 297360, Note_on_c, 0, 87, 119
2, 297360, Note_on_c, 0, 91, 119
2, 297360, Note_on_c, 0, 96, 119
2, 297360, Note_on_c, 0, 60, 117
2, 297360, Note_on_c, 0, 63, 117
2, 297360, Note_on_c, 0, 67, 117
2, 297360, Note_on_c, 0, 72, 117
2, 297540, Note_on_c, 0, 72, 0
2, 297540, Note_on_c, 0, 84, 0
2, 297540, Note_on_c, 0, 60, 0
2, 297540, Note_on_c, 0, 87, 0
2, 297540, Note_on_c, 0, 91, 0
2, 297540, Note_on_c, 0, 96, 0
2, 297540, Note_on_c, 0, 63, 0
2, 297540, Note_on_c, 0, 67, 0
2, 297540, Note_on_c, 0, 84, 114
2, 297540, Note_on_c, 0, 87, 114
2, 297540, Note_on_c, 0, 91, 114
2, 297540, Note_on_c, 0, 96, 114
2, 297540, Note_on_c, 0, 60, 117
2, 297540, Note_on_c, 0, 63, 117
2, 297540, Note_on_c, 0, 67, 117
2, 297540, Note_on_c, 0, 72, 117
2, 297720, Note_on_c, 0, 72, 0
2, 297720, Note_on_c, 0, 84, 0
2, 297720, Note_on_c, 0, 60, 0
2, 297720, Note_on_c, 0, 87, 0
2, 297720, Note_on_c, 0, 91, 0
2, 297720, Note_on_c, 0, 96, 0
2, 297720, Note_on_c, 0, 63, 0
2, 297720, Note_on_c, 0, 67, 0
2, 297720, Note_on_c, 0, 87, 123
2, 297720, Note_on_c, 0, 91, 123
2, 297720, Note_on_c, 0, 96, 123
2, 297720, Note_on_c, 0, 99, 123
2, 297720, Note_on_c, 0, 63, 124
2, 297720, Note_on_c, 0, 67, 124
2, 297720, Note_on_c, 0, 72, 124
2, 297720, Note_on_c, 0, 75, 124
2, 297900, Note_on_c, 0, 75, 0
2, 297900, Note_on_c, 0, 87, 0
2, 297900, Note_on_c, 0, 63, 0
2, 297900, Note_on_c, 0, 91, 0
2, 297900, Note_on_c, 0, 96, 0
2, 297900, Note_on_c, 0, 99, 0
2, 297900, Note_on_c, 0, 67, 0
2, 297900, Note_on_c, 0, 72, 0
2, 297900, Note_on_c, 0, 86, 113
2, 297900, Note_on_c, 0, 90, 113
2, 297900, Note_on_c, 0, 96, 113
2, 297900, Note_on_c, 0, 98, 113
2, 297900, Note_on_c, 0, 62, 108
2, 297900, Note_on_c, 0, 66, 108
2, 297900, Note_on_c, 0, 72, 108
2, 297900, Note_on_c, 0, 74, 108
2, 298080, Note_on_c, 0, 74, 0
2, 298080, Note_on_c, 0, 86, 0
2, 298080, Note_on_c, 0, 62, 0
2, 298080, Note_on_c, 0, 90, 0
2, 298080, Note_on_c, 0, 96, 0
2, 298080, Note_on_c, 0, 98, 0
2, 298080, Note_on_c, 0, 66, 0
2, 298080, Note_on_c, 0, 72, 0
2, 298080, Note_on_c, 0, 91, 124
2, 298080, Note_on_c, 0, 95, 124
2, 298080, Note_on_c, 0, 98, 124
2, 298080, Note_on_c, 0, 103, 124
2, 298080, Note_on_c, 0, 67, 113
2, 298080, Note_on_c, 0, 71, 113
2, 298080, Note_on_c, 0, 74, 113
2, 298260, Note_on_c, 0, 74, 0
2, 298260, Note_on_c, 0, 67, 0
2, 298260, Note_on_c, 0, 95, 0
2, 298260, Note_on_c, 0, 98, 0
2, 298260, Note_on_c, 0, 91, 0
2, 298260, Note_on_c, 0, 71, 0
2, 298260, Note_on_c, 0, 103, 0
2, 298260, Note_on_c, 0, 88, 106
2, 298260, Note_on_c, 0, 91, 106
2, 298260, Note_on_c, 0, 95, 106
2, 298260, Note_on_c, 0, 100, 106
2, 298260, Note_on_c, 0, 73, 126
2, 298260, Note_on_c, 0, 76, 126
2, 298260, Note_on_c, 0, 79, 126
2, 298260, Note_on_c, 0, 83, 126
2, 298620, Note_on_c, 0, 83, 0
2, 298620, Note_on_c, 0, 88, 0
2, 298620, Note_on_c, 0, 73, 0
2, 298620, Note_on_c, 0, 91, 0
2, 298620, Note_on_c, 0, 95, 0
2, 298620, Note_on_c, 0, 100, 0
2, 298620, Note_on_c, 0, 76, 0
2, 298620, Note_on_c, 0, 79, 0
2, 298620, Note_on_c, 0, 83, 95
2, 298620, Note_on_c, 0, 86, 95
2, 298620, Note_on_c, 0, 91, 95
2, 298620, Note_on_c, 0, 95, 95
2, 298620, Note_on_c, 0, 67, 105
2, 298620, Note_on_c, 0, 71, 105
2, 298620, Note_on_c, 0, 76, 105
2, 298620, Note_on_c, 0, 79, 105
2, 298800, Note_on_c, 0, 79, 0
2, 298800, Note_on_c, 0, 83, 0
2, 298800, Note_on_c, 0, 67, 0
2, 298800, Note_on_c, 0, 86, 0
2, 298800, Note_on_c, 0, 91, 0
2, 298800, Note_on_c, 0, 95, 0
2, 298800, Note_on_c, 0, 71, 0
2, 298800, Note_on_c, 0, 76, 0
2, 298800, Note_on_c, 0, 79, 126
2, 298800, Note_on_c, 0, 83, 126
2, 298800, Note_on_c, 0, 88, 126
2, 298800, Note_on_c, 0, 91, 126
2, 298800, Note_on_c, 0, 61, 87
2, 298800, Note_on_c, 0, 64, 87
2, 298800, Note_on_c, 0, 67, 87
2, 298800, Note_on_c, 0, 71, 87
2, 298980, Note_on_c, 0, 71, 0
2, 298980, Note_on_c, 0, 79, 0
2, 298980, Note_on_c, 0, 61, 0
2, 298980, Note_on_c, 0, 83, 0
2, 298980, Note_on_c, 0, 88, 0
2, 298980, Note_on_c, 0, 91, 0
2, 298980, Note_on_c, 0, 64, 0
2, 298980, Note_on_c, 0, 67, 0
2, 298980, Note_on_c, 0, 74, 103
2, 298980, Note_on_c, 0, 79, 103
2, 298980, Note_on_c, 0, 83, 103
2, 298980, Note_on_c, 0, 86, 103
2, 298980, Note_on_c, 0, 55, 94
2, 298980, Note_on_c, 0, 59, 94
2, 298980, Note_on_c, 0, 62, 94
2, 298980, Note_on_c, 0, 67, 94
2, 299160, Note_on_c, 0, 67, 0
2, 299160, Note_on_c, 0, 74, 0
2, 299160, Note_on_c, 0, 55, 0
2, 299160, Note_on_c, 0, 79, 0
2, 299160, Note_on_c, 0, 83, 0
2, 299160, Note_on_c, 0, 86, 0
2, 299160, Note_on_c, 0, 59, 0
2, 299160, Note_on_c, 0, 62, 0
2, 299160, Note_on_c, 0, 71, 96
2, 299160, Note_on_c, 0, 76, 96
2, 299160, Note_on_c, 0, 79, 96
2, 299160, Note_on_c, 0, 83, 96
2, 299160, Note_on_c, 0, 61, 109
2, 299160, Note_on_c, 0, 64, 109
2, 299160, Note_on_c, 0, 67, 109
2, 299340, Note_on_c, 0, 67, 0
2, 299340, Note_on_c, 0, 61, 0
2, 299340, Note_on_c, 0, 76, 0
2, 299340, Note_on_c, 0, 79, 0
2, 299340, Note_on_c, 0, 71, 0
2, 299340, Note_on_c, 0, 64, 0
2, 299340, Note_on_c, 0, 83, 0
2, 299340, Note_on_c, 0, 71, 88
2, 299340, Note_on_c, 0, 76, 88
2, 299340, Note_on_c, 0, 61, 112
2, 299340, Note_on_c, 0, 64, 112
2, 299340, Note_on_c, 0, 67, 112
2, 299520, Note_on_c, 0, 67, 0
2, 299520, Note_on_c, 0, 61, 0
2, 299520, Note_on_c, 0, 71, 0
2, 299520, Note_on_c, 0, 76, 0
2, 299520, Note_on_c, 0, 64, 0
2, 299520, Note_on_c, 0, 71, 121
2, 299520, Note_on_c, 0, 74, 121
2, 299520, Note_on_c, 0, 79, 121
2, 299520, Note_on_c, 0, 55, 117
2, 299520, Note_on_c, 0, 62, 117
2, 299520, Note_on_c, 0, 67, 117
2, 299700, Note_on_c, 0, 67, 0
2, 299700, Note_on_c, 0, 74, 0
2, 299700, Note_on_c, 0, 79, 0
2, 299700, Note_on_c, 0, 71, 0
2, 299700, Note_on_c, 0, 62, 0
2, 299700, Note_on_c, 0, 55, 0
2, 299700, Note_on_c, 0, 76, 126
2, 299700, Note_on_c, 0, 79, 126
2, 299700, Note_on_c, 0, 83, 126
2, 299700, Note_on_c, 0, 88, 126
2, 299700, Note_on_c, 0, 61, 126
2, 299700, Note_on_c, 0, 64, 126
2, 299700, Note_on_c, 0, 67, 126
2, 299700, Note_on_c, 0, 71, 126
2, 300060, Note_on_c, 0, 71, 0
2, 300060, Note_on_c, 0, 76, 0
2, 300060, Note_on_c, 0, 61, 0
2, 300060, Note_on_c, 0, 79, 0
2, 300060, Note_on_c, 0, 83, 0
2, 300060, Note_on_c, 0, 88, 0
2, 300060, Note_on_c, 0, 64, 0
2, 300060, Note_on_c, 0, 67, 0
2, 300060, Note_on_c, 0, 71, 105
2, 300060, Note_on_c, 0, 74, 105
2, 300060, Note_on_c, 0, 79, 105
2, 300060, Note_on_c, 0, 83, 105
2, 300060, Note_on_c, 0, 55, 102
2, 300060, Note_on_c, 0, 59, 102
2, 300060, Note_on_c, 0, 62, 102
2, 300060, Note_on_c, 0, 67, 102
2, 300240, Note_on_c, 0, 67, 0
2, 300240, Note_on_c, 0, 71, 0
2, 300240, Note_on_c, 0, 55, 0
2, 300240, Note_on_c, 0, 74, 0
2, 300240, Note_on_c, 0, 79, 0
2, 300240, Note_on_c, 0, 83, 0
2, 300240, Note_on_c, 0, 59, 0
2, 300240, Note_on_c, 0, 62, 0
2, 300240, Note_on_c, 0, 67, 96
2, 300240, Note_on_c, 0, 71, 96
2, 300240, Note_on_c, 0, 76, 96
2, 300240, Note_on_c, 0, 79, 96
2, 300240, Note_on_c, 0, 49, 100
2, 300240, Note_on_c, 0, 55, 100
2, 300240, Note_on_c, 0, 59, 100
2, 300420, Note_on_c, 0, 59, 0
2, 300420, Note_on_c, 0, 49, 0
2, 300420, Note_on_c, 0, 71, 0
2, 300420, Note_on_c, 0, 76, 0
2, 300420, Note_on_c, 0, 67, 0
2, 300420, Note_on_c, 0, 55, 0
2, 300420, Note_on_c, 0, 79, 0
2, 300420, Note_on_c, 0, 62, 93
2, 300420, Note_on_c, 0, 67, 93
2, 300420, Note_on_c, 0, 71, 93
2, 300420, Note_on_c, 0, 74, 93
2, 300420, Note_on_c, 0, 43, 103
2, 300420, Note_on_c, 0, 50, 103
2, 300420, Note_on_c, 0, 55, 103
2, 300600, Note_on_c, 0, 55, 0
2, 300600, Note_on_c, 0, 43, 0
2, 300600, Note_on_c, 0, 67, 0
2, 300600, Note_on_c, 0, 71, 0
2, 300600, Note_on_c, 0, 62, 0
2, 300600, Note_on_c, 0, 50, 0
2, 300600, Note_on_c, 0, 74, 0
2, 300600, Note_on_c, 0, 59, 98
2, 300600, Note_on_c, 0, 64, 98
2, 300600, Note_on_c, 0, 67, 98
2, 300600, Note_on_c, 0, 71, 98
2, 300600, Note_on_c, 0, 49, 110
2, 300600, Note_on_c, 0, 52, 110
2, 300600, Note_on_c, 0, 55, 110
2, 300780, Note_on_c, 0, 55, 0
2, 300780, Note_on_c, 0, 49, 0
2, 300780, Note_on_c, 0, 64, 0
2, 300780, Note_on_c, 0, 67, 0
2, 300780, Note_on_c, 0, 59, 0
2, 300780, Note_on_c, 0, 52, 0
2, 300780, Note_on_c, 0, 71, 0
2, 300780, Note_on_c, 0, 59, 91
2, 300780, Note_on_c, 0, 64, 91
2, 300780, Note_on_c, 0, 49, 113
2, 300780, Note_on_c, 0, 52, 113
2, 300780, Note_on_c, 0, 55, 113
2, 300960, Note_on_c, 0, 55, 0
2, 300960, Note_on_c, 0, 49, 0
2, 300960, Note_on_c, 0, 59, 0
2, 300960, Note_on_c, 0, 64, 0
2, 300960, Note_on_c, 0, 52, 0
2, 300960, Note_on_c, 0, 59, 117
2, 300960, Note_on_c, 0, 64, 117
2, 300960, Note_on_c, 0, 67, 117
2, 300960, Note_on_c, 0, 43, 116
2, 300960, Note_on_c, 0, 50, 116
2, 300960, Note_on_c, 0, 55, 116
2, 301140, Note_on_c, 0, 55, 0
2, 301140, Note_on_c, 0, 64, 0
2, 301140, Note_on_c, 0, 67, 0
2, 301140, Note_on_c, 0, 59, 0
2, 301140, Note_on_c, 0, 50, 0
2, 301140, Note_on_c, 0, 43, 0
2, 301140, Note_on_c, 0, 64, 126
2, 301140, Note_on_c, 0, 67, 126
2, 301140, Note_on_c, 0, 71, 126
2, 301140, Note_on_c, 0, 76, 126
2, 301140, Note_on_c, 0, 49, 122
2, 301140, Note_on_c, 0, 55, 122
2, 301140, Note_on_c, 0, 59, 122
2, 301500, Note_on_c, 0, 59, 0
2, 301500, Note_on_c, 0, 49, 0
2, 301500, Note_on_c, 0, 67, 0
2, 301500, Note_on_c, 0, 71, 0
2, 301500, Note_on_c, 0, 64, 0
2, 301500, Note_on_c, 0, 55, 0
2, 301500, Note_on_c, 0, 76, 0
2, 301500, Note_on_c, 0, 64, 106
2, 301500, Note_on_c, 0, 67, 106
2, 301500, Note_on_c, 0, 71, 106
2, 301500, Note_on_c, 0, 49, 117
2, 301500, Note_on_c, 0, 55, 117
2, 301500, Note_on_c, 0, 59, 117
2, 301680, Note_on_c, 0, 59, 0
2, 301680, Note_on_c, 0, 67, 0
2, 301680, Note_on_c, 0, 71, 0
2, 301680, Note_on_c, 0, 64, 0
2, 301680, Note_on_c, 0, 55, 0
2, 301680, Note_on_c, 0, 49, 0
2, 301680, Note_on_c, 0, 62, 121
2, 301680, Note_on_c, 0, 67, 121
2, 301680, Note_on_c, 0, 71, 121
2, 301680, Note_on_c, 0, 74, 121
2, 301680, Note_on_c, 0, 43, 108
2, 301680, Note_on_c, 0, 50, 108
2, 301680, Note_on_c, 0, 59, 108
2, 301860, Note_on_c, 0, 59, 0
2, 301860, Note_on_c, 0, 43, 0
2, 301860, Note_on_c, 0, 67, 0
2, 301860, Note_on_c, 0, 71, 0
2, 301860, Note_on_c, 0, 62, 0
2, 301860, Note_on_c, 0, 50, 0
2, 301860, Note_on_c, 0, 74, 0
2, 301860, Note_on_c, 0, 64, 124
2, 301860, Note_on_c, 0, 67, 124
2, 301860, Note_on_c, 0, 71, 124
2, 301860, Note_on_c, 0, 76, 124
2, 301860, Note_on_c, 0, 49, 113
2, 301860, Note_on_c, 0, 55, 113
2, 301860, Note_on_c, 0, 59, 113
2, 302220, Note_on_c, 0, 59, 0
2, 302220, Note_on_c, 0, 49, 0
2, 302220, Note_on_c, 0, 67, 0
2, 302220, Note_on_c, 0, 71, 0
2, 302220, Note_on_c, 0, 64, 0
2, 302220, Note_on_c, 0, 55, 0
2, 302220, Note_on_c, 0, 76, 0
2, 302220, Note_on_c, 0, 64, 97
2, 302220, Note_on_c, 0, 67, 97
2, 302220, Note_on_c, 0, 71, 97
2, 302220, Note_on_c, 0, 49, 116
2, 302220, Note_on_c, 0, 55, 116
2, 302220, Note_on_c, 0, 59, 116
2, 302400, Note_on_c, 0, 59, 0
2, 302400, Note_on_c, 0, 67, 0
2, 302400, Note_on_c, 0, 71, 0
2, 302400, Note_on_c, 0, 64, 0
2, 302400, Note_on_c, 0, 55, 0
2, 302400, Note_on_c, 0, 49, 0
2, 302400, Note_on_c, 0, 62, 127
2, 302400, Note_on_c, 0, 67, 127
2, 302400, Note_on_c, 0, 71, 127
2, 302400, Note_on_c, 0, 74, 127
2, 302400, Note_on_c, 0, 43, 119
2, 302400, Note_on_c, 0, 50, 119
2, 302400, Note_on_c, 0, 59, 119
2, 302717, Note_on_c, 0, 59, 0
2, 302717, Note_on_c, 0, 43, 0
2, 302717, Note_on_c, 0, 67, 0
2, 302717, Note_on_c, 0, 71, 0
2, 302717, Note_on_c, 0, 62, 0
2, 302717, Note_on_c, 0, 50, 0
2, 302717, Note_on_c, 0, 74, 0
2, 302760, Note_on_c, 0, 55, 101
2, 302760, Note_on_c, 0, 59, 101
2, 302760, Note_on_c, 0, 67, 101
2, 302760, Note_on_c, 0, 43, 110
2, 302760, Note_on_c, 0, 50, 110
2, 303077, Note_on_c, 0, 50, 0
2, 303077, Note_on_c, 0, 67, 0
2, 303077, Note_on_c, 0, 55, 0
2, 303077, Note_on_c, 0, 59, 0
2, 303077, Note_on_c, 0, 43, 0
2, 303120, Note_on_c, 0, 67, 127
2, 303120, Note_on_c, 0, 71, 127
2, 303120, Note_on_c, 0, 79, 127
2, 303120, Note_on_c, 0, 55, 127
2, 303120, Note_on_c, 0, 62, 127
2, 303437, Note_on_c, 0, 62, 0
2, 303437, Note_on_c, 0, 79, 0
2, 303437, Note_on_c, 0, 67, 0
2, 303437, Note_on_c, 0, 71, 0
2, 303437, Note_on_c, 0, 55, 0
2, 303480, Note_on_c, 0, 79, 127
2, 303480, Note_on_c, 0, 83, 127
2, 303480, Note_on_c, 0, 91, 127
2, 303480, Note_on_c, 0, 67, 127
2, 303480, Note_on_c, 0, 74, 127
2, 303797, Note_on_c, 0, 74, 0
2, 303797, Note_on_c, 0, 91, 0
2, 303797, Note_on_c, 0, 79, 0
2, 303797, Note_on_c, 0, 83, 0
2, 303797, Note_on_c, 0, 67, 0
2, 303840, Note_on_c, 0, 91, 127
2, 303840, Note_on_c, 0, 95, 127
2, 303840, Note_on_c, 0, 103, 127
2, 303840, Note_on_c, 0, 79, 127
2, 303840, Note_on_c, 0, 86, 127
2, 304157, Note_on_c, 0, 86, 0
2, 304157, Note_on_c, 0, 103, 0
2, 304157, Note_on_c, 0, 91, 0
2, 304157, Note_on_c, 0, 95, 0
2, 304157, Note_on_c, 0, 79, 0
2, 304560, Note_on_c, 0, 83, 104
2, 304560, Note_on_c, 0, 86, 104
2, 304560, Note_on_c, 0, 91, 104
2, 304560, Note_on_c, 0, 95, 104
2, 304560, Note_on_c, 0, 67, 104
2, 304560, Note_on_c, 0, 71, 104
2, 304560, Note_on_c, 0, 74, 104
2, 304560, Note_on_c, 0, 79, 104
2, 305280, Note_on_c, 0, 79, 0
2, 305280, Note_on_c, 0, 83, 0
2, 305280, Note_on_c, 0, 67, 0
2, 305280, Note_on_c, 0, 86, 0
2, 305280, Note_on_c, 0, 91, 0
2, 305280, Note_on_c, 0, 95, 0
2, 305280, Note_on_c, 0, 71, 0
2, 305280, Note_on_c, 0, 74, 0
2, 305280, Note_on_c, 0, 55, 77
2, 305280, Note_on_c, 0, 67, 77
2, 305280, Note_on_c, 0, 31, 94
2, 305280, Note_on_c, 0, 43, 94
2, 306720, Note_on_c, 0, 43, 0
2, 306720, Note_on_c, 0, 55, 0
2, 306720, Note_on_c, 0, 67, 0
2, 306720, Note_on_c, 0, 31, 0
2, 306720, End_track
3, 0, Start_track
3, 0, Title_t, "Piano II"
3, 0, Program_c, 0, 0
3, 0, Control_c, 0, 7, 105
3, 0, Control_c, 0, 10, 47
3, 0, Control_c, 0, 91, 60
3, 0, Control_c, 0, 121, 0
3, 0, Control_c, 0, 121, 0
3, 0, Control_c, 0, 91, 60
3, 0, Control_c, 0, 10, 51
3, 0, Control_c, 0, 7, 100
3, 1080, Note_on_c, 0, 59, 70
3, 1080, Note_on_c, 0, 35, 71
3, 1080, Note_on_c, 0, 47, 71
3, 1260, Note_on_c, 0, 47, 0
3, 1260, Note_on_c, 0, 35, 0
3, 1260, Note_on_c, 0, 59, 0
3, 1260, Note_on_c, 0, 60, 74
3, 1260, Note_on_c, 0, 36, 80
3, 1260, Note_on_c, 0, 48, 80
3, 1440, Note_on_c, 0, 48, 0
3, 1440, Note_on_c, 0, 36, 0
3, 1440, Note_on_c, 0, 60, 0
3, 1440, Note_on_c, 0, 62, 81
3, 1440, Note_on_c, 0, 38, 79
3, 1440, Note_on_c, 0, 50, 79
3, 1980, Note_on_c, 0, 50, 0
3, 1980, Note_on_c, 0, 38, 0
3, 1980, Note_on_c, 0, 62, 0
3, 1980, Note_on_c, 0, 64, 80
3, 1980, Note_on_c, 0, 40, 77
3, 1980, Note_on_c, 0, 52, 77
3, 2160, Note_on_c, 0, 52, 0
3, 2160, Note_on_c, 0, 40, 0
3, 2160, Note_on_c, 0, 64, 0
3, 2160, Note_on_c, 0, 59, 69
3, 2160, Note_on_c, 0, 35, 71
3, 2160, Note_on_c, 0, 47, 71
3, 2520, Note_on_c, 0, 47, 0
3, 2520, Note_on_c, 0, 35, 0
3, 2520, Note_on_c, 0, 59, 0
3, 2520, Note_on_c, 0, 57, 73
3, 2520, Note_on_c, 0, 33, 71
3, 2520, Note_on_c, 0, 45, 71
3, 2880, Note_on_c, 0, 45, 0
3, 2880, Note_on_c, 0, 33, 0
3, 2880, Note_on_c, 0, 57, 0
3, 2880, Note_on_c, 0, 55, 71
3, 2880, Note_on_c, 0, 31, 73
3, 2880, Note_on_c, 0, 43, 73
3, 3060, Note_on_c, 0, 43, 0
3, 3060, Note_on_c, 0, 31, 0
3, 3060, Note_on_c, 0, 55, 0
3, 3060, Note_on_c, 0, 57, 81
3, 3060, Note_on_c, 0, 33, 75
3, 3060, Note_on_c, 0, 45, 75
3, 3240, Note_on_c, 0, 45, 0
3, 3240, Note_on_c, 0, 33, 0
3, 3240, Note_on_c, 0, 57, 0
3, 3240, Note_on_c, 0, 59, 80
3, 3240, Note_on_c, 0, 35, 81
3, 3240, Note_on_c, 0, 47, 81
3, 3960, Note_on_c, 0, 47, 0
3, 3960, Note_on_c, 0, 35, 0
3, 3960, Note_on_c, 0, 59, 0
3, 3960, Note_on_c, 0, 59, 83
3, 3960, Note_on_c, 0, 35, 72
3, 3960, Note_on_c, 0, 47, 72
3, 4140, Note_on_c, 0, 47, 0
3, 4140, Note_on_c, 0, 35, 0
3, 4140, Note_on_c, 0, 59, 0
3, 4140, Note_on_c, 0, 60, 82
3, 4140, Note_on_c, 0, 36, 78
3, 4140, Note_on_c, 0, 48, 78
3, 4320, Note_on_c, 0, 48, 0
3, 4320, Note_on_c, 0, 36, 0
3, 4320, Note_on_c, 0, 60, 0
3, 4320, Note_on_c, 0, 62, 86
3, 4320, Note_on_c, 0, 38, 81
3, 4320, Note_on_c, 0, 50, 81
3, 4860, Note_on_c, 0, 50, 0
3, 4860, Note_on_c, 0, 38, 0
3, 4860, Note_on_c, 0, 62, 0
3, 4860, Note_on_c, 0, 64, 83
3, 4860, Note_on_c, 0, 40, 80
3, 4860, Note_on_c, 0, 52, 80
3, 5040, Note_on_c, 0, 52, 0
3, 5040, Note_on_c, 0, 40, 0
3, 5040, Note_on_c, 0, 64, 0
3, 5040, Note_on_c, 0, 59, 75
3, 5040, Note_on_c, 0, 35, 71
3, 5040, Note_on_c, 0, 47, 71
3, 5400, Note_on_c, 0, 47, 0
3, 5400, Note_on_c, 0, 35, 0
3, 5400, Note_on_c, 0, 59, 0
3, 5400, Note_on_c, 0, 57, 74
3, 5400, Note_on_c, 0, 33, 77
3, 5400, Note_on_c, 0, 45, 77
3, 5760, Note_on_c, 0, 45, 0
3, 5760, Note_on_c, 0, 33, 0
3, 5760, Note_on_c, 0, 57, 0
3, 5760, Note_on_c, 0, 52, 68
3, 5760, Note_on_c, 0, 28, 68
3, 5760, Note_on_c, 0, 40, 68
3, 6480, Note_on_c, 0, 40, 0
3, 6480, Note_on_c, 0, 28, 0
3, 6480, Note_on_c, 0, 52, 0
3, 12600, Note_on_c, 0, 71, 68
3, 12780, Note_on_c, 0, 71, 0
3, 12780, Note_on_c, 0, 72, 79
3, 12960, Note_on_c, 0, 72, 0
3, 12960, Note_on_c, 0, 74, 80
3, 12960, Note_on_c, 0, 62, 67
3, 12960, Note_on_c, 0, 67, 67
3, 12960, Note_on_c, 0, 43, 70
3, 12960, Note_on_c, 0, 50, 70
3, 12960, Note_on_c, 0, 59, 70
3, 13500, Note_on_c, 0, 74, 0
3, 13500, Note_on_c, 0, 76, 82
3, 13680, Note_on_c, 0, 76, 0
3, 13680, Note_on_c, 0, 71, 61
3, 14040, Note_on_c, 0, 71, 0
3, 14040, Note_on_c, 0, 67, 0
3, 14040, Note_on_c, 0, 43, 0
3, 14040, Note_on_c, 0, 62, 0
3, 14040, Note_on_c, 0, 59, 0
3, 14040, Note_on_c, 0, 50, 0
3, 14040, Note_on_c, 0, 69, 69
3, 14040, Note_on_c, 0, 60, 75
3, 14040, Note_on_c, 0, 66, 75
3, 14040, Note_on_c, 0, 43, 68
3, 14040, Note_on_c, 0, 51, 68
3, 14040, Note_on_c, 0, 57, 68
3, 14400, Note_on_c, 0, 57, 0
3, 14400, Note_on_c, 0, 60, 0
3, 14400, Note_on_c, 0, 66, 0
3, 14400, Note_on_c, 0, 69, 0
3, 14400, Note_on_c, 0, 51, 0
3, 14400, Note_on_c, 0, 43, 0
3, 14400, Note_on_c, 0, 67, 70
3, 14400, Note_on_c, 0, 59, 72
3, 14400, Note_on_c, 0, 64, 72
3, 14400, Note_on_c, 0, 43, 72
3, 14400, Note_on_c, 0, 52, 72
3, 14400, Note_on_c, 0, 55, 72
3, 14580, Note_on_c, 0, 67, 0
3, 14580, Note_on_c, 0, 69, 79
3, 14760, Note_on_c, 0, 69, 0
3, 14760, Note_on_c, 0, 71, 82
3, 15120, Note_on_c, 0, 55, 0
3, 15120, Note_on_c, 0, 52, 0
3, 15120, Note_on_c, 0, 43, 0
3, 15120, Note_on_c, 0, 59, 0
3, 15120, Note_on_c, 0, 64, 0
3, 15120, Note_on_c, 0, 59, 73
3, 15120, Note_on_c, 0, 63, 73
3, 15120, Note_on_c, 0, 43, 73
3, 15120, Note_on_c, 0, 51, 73
3, 15120, Note_on_c, 0, 55, 73
3, 15480, Note_on_c, 0, 71, 0
3, 15480, Note_on_c, 0, 71, 79
3, 15660, Note_on_c, 0, 71, 0
3, 15660, Note_on_c, 0, 72, 81
3, 15840, Note_on_c, 0, 72, 0
3, 15840, Note_on_c, 0, 63, 0
3, 15840, Note_on_c, 0, 43, 0
3, 15840, Note_on_c, 0, 59, 0
3, 15840, Note_on_c, 0, 55, 0
3, 15840, Note_on_c, 0, 51, 0
3, 15840, Note_on_c, 0, 74, 79
3, 15840, Note_on_c, 0, 62, 85
3, 15840, Note_on_c, 0, 67, 85
3, 15840, Note_on_c, 0, 43, 81
3, 15840, Note_on_c, 0, 50, 81
3, 15840, Note_on_c, 0, 59, 81
3, 16020, Note_on_c, 0, 74, 0
3, 16020, Note_on_c, 0, 76, 84
3, 16200, Note_on_c, 0, 76, 0
3, 16200, Note_on_c, 0, 74, 71
3, 16380, Note_on_c, 0, 74, 0
3, 16380, Note_on_c, 0, 72, 72
3, 16560, Note_on_c, 0, 72, 0
3, 16560, Note_on_c, 0, 71, 68
3, 16920, Note_on_c, 0, 71, 0
3, 16920, Note_on_c, 0, 67, 0
3, 16920, Note_on_c, 0, 43, 0
3, 16920, Note_on_c, 0, 62, 0
3, 16920, Note_on_c, 0, 59, 0
3, 16920, Note_on_c, 0, 50, 0
3, 16920, Note_on_c, 0, 69, 70
3, 16920, Note_on_c, 0, 60, 66
3, 16920, Note_on_c, 0, 64, 66
3, 16920, Note_on_c, 0, 45, 68
3, 16920, Note_on_c, 0, 52, 68
3, 16920, Note_on_c, 0, 57, 68
3, 17280, Note_on_c, 0, 57, 0
3, 17280, Note_on_c, 0, 60, 0
3, 17280, Note_on_c, 0, 64, 0
3, 17280, Note_on_c, 0, 69, 0
3, 17280, Note_on_c, 0, 52, 0
3, 17280, Note_on_c, 0, 45, 0
3, 17280, Note_on_c, 0, 55, 68
3, 17280, Note_on_c, 0, 59, 68
3, 17280, Note_on_c, 0, 64, 68
3, 17280, Note_on_c, 0, 40, 63
3, 17280, Note_on_c, 0, 47, 63
3, 17280, Note_on_c, 0, 52, 63
3, 18360, Note_on_c, 0, 52, 0
3, 18360, Note_on_c, 0, 59, 0
3, 18360, Note_on_c, 0, 64, 0
3, 18360, Note_on_c, 0, 55, 0
3, 18360, Note_on_c, 0, 47, 0
3, 18360, Note_on_c, 0, 40, 0
3, 24480, Note_on_c, 0, 66, 68
3, 24480, Note_on_c, 0, 69, 68
3, 24480, Note_on_c, 0, 62, 76
3, 24480, Note_on_c, 0, 38, 63
3, 24480, Note_on_c, 0, 50, 63
3, 24840, Note_on_c, 0, 62, 0
3, 24840, Note_on_c, 0, 61, 78
3, 25200, Note_on_c, 0, 61, 0
3, 25200, Note_on_c, 0, 60, 80
3, 25560, Note_on_c, 0, 60, 0
3, 25560, Note_on_c, 0, 66, 0
3, 25560, Note_on_c, 0, 69, 0
3, 25560, Note_on_c, 0, 66, 80
3, 25560, Note_on_c, 0, 71, 80
3, 25560, Note_on_c, 0, 59, 82
3, 25920, Note_on_c, 0, 59, 0
3, 25920, Note_on_c, 0, 66, 0
3, 25920, Note_on_c, 0, 50, 0
3, 25920, Note_on_c, 0, 38, 0
3, 25920, Note_on_c, 0, 71, 0
3, 25920, Note_on_c, 0, 67, 78
3, 25920, Note_on_c, 0, 71, 78
3, 25920, Note_on_c, 0, 64, 84
3, 25920, Note_on_c, 0, 38, 75
3, 25920, Note_on_c, 0, 50, 75
3, 26280, Note_on_c, 0, 64, 0
3, 26280, Note_on_c, 0, 63, 86
3, 26640, Note_on_c, 0, 63, 0
3, 26640, Note_on_c, 0, 62, 88
3, 27000, Note_on_c, 0, 62, 0
3, 27000, Note_on_c, 0, 67, 0
3, 27000, Note_on_c, 0, 71, 0
3, 27000, Note_on_c, 0, 67, 68
3, 27000, Note_on_c, 0, 70, 68
3, 27000, Note_on_c, 0, 61, 91
3, 27360, Note_on_c, 0, 61, 0
3, 27360, Note_on_c, 0, 67, 0
3, 27360, Note_on_c, 0, 50, 0
3, 27360, Note_on_c, 0, 38, 0
3, 27360, Note_on_c, 0, 70, 0
3, 27360, Note_on_c, 0, 66, 70
3, 27360, Note_on_c, 0, 69, 70
3, 27360, Note_on_c, 0, 62, 93
3, 27360, Note_on_c, 0, 38, 78
3, 27360, Note_on_c, 0, 50, 78
3, 27720, Note_on_c, 0, 62, 0
3, 27720, Note_on_c, 0, 57, 95
3, 27900, Note_on_c, 0, 57, 0
3, 27900, Note_on_c, 0, 59, 96
3, 28080, Note_on_c, 0, 59, 0
3, 28080, Note_on_c, 0, 60, 97
3, 28260, Note_on_c, 0, 60, 0
3, 28260, Note_on_c, 0, 61, 98
3, 28440, Note_on_c, 0, 61, 0
3, 28440, Note_on_c, 0, 62, 99
3, 28620, Note_on_c, 0, 62, 0
3, 28620, Note_on_c, 0, 63, 100
3, 28800, Note_on_c, 0, 63, 0
3, 28800, Note_on_c, 0, 38, 0
3, 28800, Note_on_c, 0, 66, 0
3, 28800, Note_on_c, 0, 69, 0
3, 28800, Note_on_c, 0, 50, 0
3, 28800, Note_on_c, 0, 59, 111
3, 28800, Note_on_c, 0, 67, 111
3, 28800, Note_on_c, 0, 71, 111
3, 28800, Note_on_c, 0, 66, 111
3, 28800, Note_on_c, 0, 31, 69
3, 28800, Note_on_c, 0, 43, 69
3, 29160, Note_on_c, 0, 66, 0
3, 29160, Note_on_c, 0, 64, 98
3, 29880, Note_on_c, 0, 64, 0
3, 29880, Note_on_c, 0, 43, 0
3, 29880, Note_on_c, 0, 31, 0
3, 29880, Note_on_c, 0, 63, 95
3, 29880, Note_on_c, 0, 51, 81
3, 30240, Note_on_c, 0, 51, 0
3, 30240, Note_on_c, 0, 59, 0
3, 30240, Note_on_c, 0, 67, 0
3, 30240, Note_on_c, 0, 71, 0
3, 30240, Note_on_c, 0, 63, 0
3, 30240, Note_on_c, 0, 62, 40
3, 30240, Note_on_c, 0, 59, 60
3, 30240, Note_on_c, 0, 62, 60
3, 30240, Note_on_c, 0, 50, 50
3, 30240, Note_on_c, 0, 43, 59
3, 30240, Note_on_c, 0, 50, 59
3, 30360, Note_on_c, 0, 50, 0
3, 30360, Note_on_c, 0, 62, 0
3, 30360, Note_on_c, 0, 64, 52
3, 30360, Note_on_c, 0, 52, 53
3, 30479, Note_on_c, 0, 52, 0
3, 30479, Note_on_c, 0, 64, 0
3, 30479, Note_on_c, 0, 66, 54
3, 30479, Note_on_c, 0, 54, 52
3, 30600, Note_on_c, 0, 54, 0
3, 30600, Note_on_c, 0, 66, 0
3, 30600, Note_on_c, 0, 67, 54
3, 30600, Note_on_c, 0, 55, 54
3, 30720, Note_on_c, 0, 55, 0
3, 30720, Note_on_c, 0, 67, 0
3, 30720, Note_on_c, 0, 69, 57
3, 30720, Note_on_c, 0, 57, 51
3, 30839, Note_on_c, 0, 57, 0
3, 30839, Note_on_c, 0, 69, 0
3, 30839, Note_on_c, 0, 71, 52
3, 30839, Note_on_c, 0, 59, 54
3, 30960, Note_on_c, 0, 59, 0
3, 30960, Note_on_c, 0, 50, 0
3, 30960, Note_on_c, 0, 62, 0
3, 30960, Note_on_c, 0, 59, 0
3, 30960, Note_on_c, 0, 71, 0
3, 30960, Note_on_c, 0, 43, 0
3, 30960, Note_on_c, 0, 60, 49
3, 30960, Note_on_c, 0, 72, 49
3, 30960, Note_on_c, 0, 66, 74
3, 30960, Note_on_c, 0, 72, 74
3, 30960, Note_on_c, 0, 43, 58
3, 30960, Note_on_c, 0, 50, 58
3, 31080, Note_on_c, 0, 72, 0
3, 31080, Note_on_c, 0, 60, 0
3, 31080, Note_on_c, 0, 73, 53
3, 31080, Note_on_c, 0, 61, 40
3, 31199, Note_on_c, 0, 61, 0
3, 31199, Note_on_c, 0, 73, 0
3, 31199, Note_on_c, 0, 74, 54
3, 31199, Note_on_c, 0, 62, 54
3, 31320, Note_on_c, 0, 62, 0
3, 31320, Note_on_c, 0, 74, 0
3, 31320, Note_on_c, 0, 75, 56
3, 31320, Note_on_c, 0, 63, 50
3, 31440, Note_on_c, 0, 63, 0
3, 31440, Note_on_c, 0, 75, 0
3, 31440, Note_on_c, 0, 76, 50
3, 31440, Note_on_c, 0, 64, 53
3, 31559, Note_on_c, 0, 64, 0
3, 31559, Note_on_c, 0, 76, 0
3, 31559, Note_on_c, 0, 78, 53
3, 31559, Note_on_c, 0, 66, 56
3, 31680, Note_on_c, 0, 66, 0
3, 31680, Note_on_c, 0, 50, 0
3, 31680, Note_on_c, 0, 66, 0
3, 31680, Note_on_c, 0, 72, 0
3, 31680, Note_on_c, 0, 78, 0
3, 31680, Note_on_c, 0, 43, 0
3, 31680, Note_on_c, 0, 79, 55
3, 31680, Note_on_c, 0, 71, 59
3, 31680, Note_on_c, 0, 67, 55
3, 31680, Note_on_c, 0, 55, 69
3, 31680, Note_on_c, 0, 59, 69
3, 31800, Note_on_c, 0, 67, 0
3, 31800, Note_on_c, 0, 79, 0
3, 31800, Note_on_c, 0, 78, 46
3, 31800, Note_on_c, 0, 66, 49
3, 31919, Note_on_c, 0, 66, 0
3, 31919, Note_on_c, 0, 78, 0
3, 31919, Note_on_c, 0, 79, 51
3, 31919, Note_on_c, 0, 67, 45
3, 32040, Note_on_c, 0, 67, 0
3, 32040, Note_on_c, 0, 79, 0
3, 32040, Note_on_c, 0, 78, 42
3, 32040, Note_on_c, 0, 66, 48
3, 32160, Note_on_c, 0, 66, 0
3, 32160, Note_on_c, 0, 78, 0
3, 32160, Note_on_c, 0, 76, 45
3, 32160, Note_on_c, 0, 64, 50
3, 32279, Note_on_c, 0, 64, 0
3, 32279, Note_on_c, 0, 76, 0
3, 32279, Note_on_c, 0, 78, 50
3, 32279, Note_on_c, 0, 66, 50
3, 32400, Note_on_c, 0, 66, 0
3, 32400, Note_on_c, 0, 78, 0
3, 32400, Note_on_c, 0, 76, 47
3, 32400, Note_on_c, 0, 64, 47
3, 32520, Note_on_c, 0, 64, 0
3, 32520, Note_on_c, 0, 76, 0
3, 32520, Note_on_c, 0, 75, 53
3, 32520, Note_on_c, 0, 63, 43
3, 32639, Note_on_c, 0, 63, 0
3, 32639, Note_on_c, 0, 75, 0
3, 32639, Note_on_c, 0, 76, 49
3, 32639, Note_on_c, 0, 64, 51
3, 32760, Note_on_c, 0, 64, 0
3, 32760, Note_on_c, 0, 59, 0
3, 32760, Note_on_c, 0, 71, 0
3, 32760, Note_on_c, 0, 55, 0
3, 32760, Note_on_c, 0, 76, 0
3, 32760, Note_on_c, 0, 75, 50
3, 32760, Note_on_c, 0, 72, 66
3, 32760, Note_on_c, 0, 63, 49
3, 32760, Note_on_c, 0, 55, 65
3, 32760, Note_on_c, 0, 60, 65
3, 32880, Note_on_c, 0, 63, 0
3, 32880, Note_on_c, 0, 75, 0
3, 32880, Note_on_c, 0, 74, 50
3, 32880, Note_on_c, 0, 62, 48
3, 32999, Note_on_c, 0, 62, 0
3, 32999, Note_on_c, 0, 74, 0
3, 32999, Note_on_c, 0, 75, 50
3, 32999, Note_on_c, 0, 63, 55
3, 33120, Note_on_c, 0, 63, 0
3, 33120, Note_on_c, 0, 60, 0
3, 33120, Note_on_c, 0, 72, 0
3, 33120, Note_on_c, 0, 55, 0
3, 33120, Note_on_c, 0, 75, 0
3, 33120, Note_on_c, 0, 74, 48
3, 33120, Note_on_c, 0, 71, 68
3, 33120, Note_on_c, 0, 74, 68
3, 33120, Note_on_c, 0, 62, 48
3, 33120, Note_on_c, 0, 55, 64
3, 33120, Note_on_c, 0, 59, 64
3, 33120, Note_on_c, 0, 62, 64
3, 33240, Note_on_c, 0, 62, 0
3, 33240, Note_on_c, 0, 74, 0
3, 33240, Note_on_c, 0, 76, 53
3, 33240, Note_on_c, 0, 64, 55
3, 33359, Note_on_c, 0, 64, 0
3, 33359, Note_on_c, 0, 76, 0
3, 33359, Note_on_c, 0, 78, 54
3, 33359, Note_on_c, 0, 66, 55
3, 33480, Note_on_c, 0, 66, 0
3, 33480, Note_on_c, 0, 78, 0
3, 33480, Note_on_c, 0, 79, 56
3, 33480, Note_on_c, 0, 67, 53
3, 33600, Note_on_c, 0, 67, 0
3, 33600, Note_on_c, 0, 79, 0
3, 33600, Note_on_c, 0, 81, 54
3, 33600, Note_on_c, 0, 69, 52
3, 33719, Note_on_c, 0, 69, 0
3, 33719, Note_on_c, 0, 81, 0
3, 33719, Note_on_c, 0, 83, 56
3, 33719, Note_on_c, 0, 71, 52
3, 33840, Note_on_c, 0, 71, 0
3, 33840, Note_on_c, 0, 74, 0
3, 33840, Note_on_c, 0, 62, 0
3, 33840, Note_on_c, 0, 55, 0
3, 33840, Note_on_c, 0, 71, 0
3, 33840, Note_on_c, 0, 83, 0
3, 33840, Note_on_c, 0, 59, 0
3, 33840, Note_on_c, 0, 72, 52
3, 33840, Note_on_c, 0, 84, 52
3, 33840, Note_on_c, 0, 78, 74
3, 33840, Note_on_c, 0, 84, 74
3, 33840, Note_on_c, 0, 55, 60
3, 33840, Note_on_c, 0, 62, 60
3, 33960, Note_on_c, 0, 84, 0
3, 33960, Note_on_c, 0, 72, 0
3, 33960, Note_on_c, 0, 74, 55
3, 33960, Note_on_c, 0, 86, 55
3, 33960, Note_on_c, 0, 62, 45
3, 34079, Note_on_c, 0, 86, 0
3, 34079, Note_on_c, 0, 62, 0
3, 34079, Note_on_c, 0, 74, 0
3, 34079, Note_on_c, 0, 76, 58
3, 34079, Note_on_c, 0, 88, 58
3, 34079, Note_on_c, 0, 64, 57
3, 34200, Note_on_c, 0, 64, 0
3, 34200, Note_on_c, 0, 76, 0
3, 34200, Note_on_c, 0, 88, 0
3, 34200, Note_on_c, 0, 78, 52
3, 34200, Note_on_c, 0, 90, 52
3, 34200, Note_on_c, 0, 66, 55
3, 34320, Note_on_c, 0, 66, 0
3, 34320, Note_on_c, 0, 78, 0
3, 34320, Note_on_c, 0, 90, 0
3, 34320, Note_on_c, 0, 79, 54
3, 34320, Note_on_c, 0, 91, 54
3, 34320, Note_on_c, 0, 67, 52
3, 34439, Note_on_c, 0, 67, 0
3, 34439, Note_on_c, 0, 79, 0
3, 34439, Note_on_c, 0, 91, 0
3, 34439, Note_on_c, 0, 81, 58
3, 34439, Note_on_c, 0, 93, 58
3, 34439, Note_on_c, 0, 69, 56
3, 34560, Note_on_c, 0, 69, 0
3, 34560, Note_on_c, 0, 81, 0
3, 34560, Note_on_c, 0, 55, 0
3, 34560, Note_on_c, 0, 62, 0
3, 34560, Note_on_c, 0, 84, 0
3, 34560, Note_on_c, 0, 93, 0
3, 34560, Note_on_c, 0, 78, 0
3, 34560, Note_on_c, 0, 83, 51
3, 34560, Note_on_c, 0, 88, 51
3, 34560, Note_on_c, 0, 91, 51
3, 34560, Note_on_c, 0, 95, 51
3, 34560, Note_on_c, 0, 64, 54
3, 34560, Note_on_c, 0, 67, 54
3, 34560, Note_on_c, 0, 71, 54
3, 34680, Note_on_c, 0, 71, 0
3, 34680, Note_on_c, 0, 64, 0
3, 34680, Note_on_c, 0, 88, 0
3, 34680, Note_on_c, 0, 91, 0
3, 34680, Note_on_c, 0, 83, 0
3, 34680, Note_on_c, 0, 67, 0
3, 34680, Note_on_c, 0, 95, 0
3, 34680, Note_on_c, 0, 81, 48
3, 34680, Note_on_c, 0, 93, 48
3, 34680, Note_on_c, 0, 69, 47
3, 34799, Note_on_c, 0, 69, 0
3, 34799, Note_on_c, 0, 93, 0
3, 34799, Note_on_c, 0, 81, 0
3, 34799, Note_on_c, 0, 79, 49
3, 34799, Note_on_c, 0, 91, 49
3, 34799, Note_on_c, 0, 67, 45
3, 34920, Note_on_c, 0, 67, 0
3, 34920, Note_on_c, 0, 91, 0
3, 34920, Note_on_c, 0, 79, 0
3, 34920, Note_on_c, 0, 78, 51
3, 34920, Note_on_c, 0, 90, 51
3, 34920, Note_on_c, 0, 66, 49
3, 35040, Note_on_c, 0, 66, 0
3, 35040, Note_on_c, 0, 90, 0
3, 35040, Note_on_c, 0, 78, 0
3, 35040, Note_on_c, 0, 76, 47
3, 35040, Note_on_c, 0, 88, 47
3, 35040, Note_on_c, 0, 64, 46
3, 35159, Note_on_c, 0, 64, 0
3, 35159, Note_on_c, 0, 88, 0
3, 35159, Note_on_c, 0, 76, 0
3, 35159, Note_on_c, 0, 74, 47
3, 35159, Note_on_c, 0, 86, 47
3, 35159, Note_on_c, 0, 62, 47
3, 35280, Note_on_c, 0, 62, 0
3, 35280, Note_on_c, 0, 86, 0
3, 35280, Note_on_c, 0, 74, 0
3, 35280, Note_on_c, 0, 72, 51
3, 35280, Note_on_c, 0, 84, 51
3, 35280, Note_on_c, 0, 60, 47
3, 35400, Note_on_c, 0, 60, 0
3, 35400, Note_on_c, 0, 84, 0
3, 35400, Note_on_c, 0, 72, 0
3, 35400, Note_on_c, 0, 71, 44
3, 35400, Note_on_c, 0, 83, 44
3, 35400, Note_on_c, 0, 59, 47
3, 35519, Note_on_c, 0, 59, 0
3, 35519, Note_on_c, 0, 83, 0
3, 35519, Note_on_c, 0, 71, 0
3, 35519, Note_on_c, 0, 69, 46
3, 35519, Note_on_c, 0, 81, 46
3, 35519, Note_on_c, 0, 57, 53
3, 35640, Note_on_c, 0, 57, 0
3, 35640, Note_on_c, 0, 81, 0
3, 35640, Note_on_c, 0, 69, 0
3, 35640, Note_on_c, 0, 67, 47
3, 35640, Note_on_c, 0, 79, 47
3, 35640, Note_on_c, 0, 55, 51
3, 35760, Note_on_c, 0, 55, 0
3, 35760, Note_on_c, 0, 79, 0
3, 35760, Note_on_c, 0, 67, 0
3, 35760, Note_on_c, 0, 66, 49
3, 35760, Note_on_c, 0, 78, 49
3, 35760, Note_on_c, 0, 54, 45
3, 35879, Note_on_c, 0, 54, 0
3, 35879, Note_on_c, 0, 78, 0
3, 35879, Note_on_c, 0, 66, 0
3, 35879, Note_on_c, 0, 64, 46
3, 35879, Note_on_c, 0, 76, 46
3, 35879, Note_on_c, 0, 52, 50
3, 36000, Note_on_c, 0, 52, 0
3, 36000, Note_on_c, 0, 76, 0
3, 36000, Note_on_c, 0, 64, 0
3, 36000, Note_on_c, 0, 62, 46
3, 36000, Note_on_c, 0, 67, 46
3, 36000, Note_on_c, 0, 71, 46
3, 36000, Note_on_c, 0, 74, 46
3, 36000, Note_on_c, 0, 50, 48
3, 36000, Note_on_c, 0, 43, 55
3, 36000, Note_on_c, 0, 50, 55
3, 36120, Note_on_c, 0, 50, 0
3, 36120, Note_on_c, 0, 74, 0
3, 36120, Note_on_c, 0, 62, 0
3, 36120, Note_on_c, 0, 71, 0
3, 36120, Note_on_c, 0, 67, 0
3, 36120, Note_on_c, 0, 64, 38
3, 36120, Note_on_c, 0, 52, 52
3, 36239, Note_on_c, 0, 52, 0
3, 36239, Note_on_c, 0, 64, 0
3, 36239, Note_on_c, 0, 66, 51
3, 36239, Note_on_c, 0, 54, 57
3, 36360, Note_on_c, 0, 54, 0
3, 36360, Note_on_c, 0, 66, 0
3, 36360, Note_on_c, 0, 67, 50
3, 36360, Note_on_c, 0, 55, 52
3, 36480, Note_on_c, 0, 55, 0
3, 36480, Note_on_c, 0, 67, 0
3, 36480, Note_on_c, 0, 69, 55
3, 36480, Note_on_c, 0, 57, 53
3, 36599, Note_on_c, 0, 57, 0
3, 36599, Note_on_c, 0, 69, 0
3, 36599, Note_on_c, 0, 71, 59
3, 36599, Note_on_c, 0, 59, 48
3, 36720, Note_on_c, 0, 59, 0
3, 36720, Note_on_c, 0, 43, 0
3, 36720, Note_on_c, 0, 50, 0
3, 36720, Note_on_c, 0, 71, 0
3, 36720, Note_on_c, 0, 60, 55
3, 36720, Note_on_c, 0, 72, 55
3, 36720, Note_on_c, 0, 66, 46
3, 36720, Note_on_c, 0, 72, 46
3, 36720, Note_on_c, 0, 43, 61
3, 36720, Note_on_c, 0, 50, 61
3, 36840, Note_on_c, 0, 72, 0
3, 36840, Note_on_c, 0, 60, 0
3, 36840, Note_on_c, 0, 73, 49
3, 36840, Note_on_c, 0, 61, 46
3, 36959, Note_on_c, 0, 61, 0
3, 36959, Note_on_c, 0, 73, 0
3, 36959, Note_on_c, 0, 74, 50
3, 36959, Note_on_c, 0, 62, 51
3, 37080, Note_on_c, 0, 62, 0
3, 37080, Note_on_c, 0, 74, 0
3, 37080, Note_on_c, 0, 75, 50
3, 37080, Note_on_c, 0, 63, 52
3, 37200, Note_on_c, 0, 63, 0
3, 37200, Note_on_c, 0, 75, 0
3, 37200, Note_on_c, 0, 76, 53
3, 37200, Note_on_c, 0, 64, 53
3, 37319, Note_on_c, 0, 64, 0
3, 37319, Note_on_c, 0, 76, 0
3, 37319, Note_on_c, 0, 78, 52
3, 37319, Note_on_c, 0, 66, 54
3, 37440, Note_on_c, 0, 66, 0
3, 37440, Note_on_c, 0, 50, 0
3, 37440, Note_on_c, 0, 66, 0
3, 37440, Note_on_c, 0, 72, 0
3, 37440, Note_on_c, 0, 78, 0
3, 37440, Note_on_c, 0, 43, 0
3, 37440, Note_on_c, 0, 79, 51
3, 37440, Note_on_c, 0, 71, 53
3, 37440, Note_on_c, 0, 67, 54
3, 37440, Note_on_c, 0, 55, 66
3, 37440, Note_on_c, 0, 59, 66
3, 37560, Note_on_c, 0, 67, 0
3, 37560, Note_on_c, 0, 79, 0
3, 37560, Note_on_c, 0, 78, 46
3, 37560, Note_on_c, 0, 66, 52
3, 37679, Note_on_c, 0, 66, 0
3, 37679, Note_on_c, 0, 78, 0
3, 37679, Note_on_c, 0, 79, 52
3, 37679, Note_on_c, 0, 67, 50
3, 37800, Note_on_c, 0, 67, 0
3, 37800, Note_on_c, 0, 79, 0
3, 37800, Note_on_c, 0, 78, 43
3, 37800, Note_on_c, 0, 66, 45
3, 37920, Note_on_c, 0, 66, 0
3, 37920, Note_on_c, 0, 78, 0
3, 37920, Note_on_c, 0, 76, 48
3, 37920, Note_on_c, 0, 64, 49
3, 38039, Note_on_c, 0, 64, 0
3, 38039, Note_on_c, 0, 76, 0
3, 38039, Note_on_c, 0, 78, 53
3, 38039, Note_on_c, 0, 66, 53
3, 38160, Note_on_c, 0, 66, 0
3, 38160, Note_on_c, 0, 78, 0
3, 38160, Note_on_c, 0, 76, 48
3, 38160, Note_on_c, 0, 64, 44
3, 38280, Note_on_c, 0, 64, 0
3, 38280, Note_on_c, 0, 76, 0
3, 38280, Note_on_c, 0, 75, 43
3, 38280, Note_on_c, 0, 63, 48
3, 38399, Note_on_c, 0, 63, 0
3, 38399, Note_on_c, 0, 75, 0
3, 38399, Note_on_c, 0, 76, 53
3, 38399, Note_on_c, 0, 64, 49
3, 38520, Note_on_c, 0, 64, 0
3, 38520, Note_on_c, 0, 59, 0
3, 38520, Note_on_c, 0, 71, 0
3, 38520, Note_on_c, 0, 55, 0
3, 38520, Note_on_c, 0, 76, 0
3, 38520, Note_on_c, 0, 75, 47
3, 38520, Note_on_c, 0, 72, 66
3, 38520, Note_on_c, 0, 63, 48
3, 38520, Note_on_c, 0, 55, 60
3, 38520, Note_on_c, 0, 60, 60
3, 38640, Note_on_c, 0, 63, 0
3, 38640, Note_on_c, 0, 75, 0
3, 38640, Note_on_c, 0, 74, 49
3, 38640, Note_on_c, 0, 62, 52
3, 38759, Note_on_c, 0, 62, 0
3, 38759, Note_on_c, 0, 74, 0
3, 38759, Note_on_c, 0, 75, 54
3, 38759, Note_on_c, 0, 63, 50
3, 38880, Note_on_c, 0, 63, 0
3, 38880, Note_on_c, 0, 60, 0
3, 38880, Note_on_c, 0, 72, 0
3, 38880, Note_on_c, 0, 55, 0
3, 38880, Note_on_c, 0, 75, 0
3, 38880, Note_on_c, 0, 74, 49
3, 38880, Note_on_c, 0, 71, 65
3, 38880, Note_on_c, 0, 74, 65
3, 38880, Note_on_c, 0, 62, 44
3, 38880, Note_on_c, 0, 55, 69
3, 38880, Note_on_c, 0, 59, 69
3, 38880, Note_on_c, 0, 62, 69
3, 39000, Note_on_c, 0, 62, 0
3, 39000, Note_on_c, 0, 74, 0
3, 39000, Note_on_c, 0, 76, 52
3, 39000, Note_on_c, 0, 64, 53
3, 39119, Note_on_c, 0, 64, 0
3, 39119, Note_on_c, 0, 76, 0
3, 39119, Note_on_c, 0, 78, 55
3, 39119, Note_on_c, 0, 66, 60
3, 39240, Note_on_c, 0, 66, 0
3, 39240, Note_on_c, 0, 78, 0
3, 39240, Note_on_c, 0, 79, 55
3, 39240, Note_on_c, 0, 67, 51
3, 39360, Note_on_c, 0, 67, 0
3, 39360, Note_on_c, 0, 79, 0
3, 39360, Note_on_c, 0, 81, 53
3, 39360, Note_on_c, 0, 69, 54
3, 39479, Note_on_c, 0, 69, 0
3, 39479, Note_on_c, 0, 81, 0
3, 39479, Note_on_c, 0, 83, 55
3, 39479, Note_on_c, 0, 71, 55
3, 39600, Note_on_c, 0, 71, 0
3, 39600, Note_on_c, 0, 74, 0
3, 39600, Note_on_c, 0, 62, 0
3, 39600, Note_on_c, 0, 55, 0
3, 39600, Note_on_c, 0, 71, 0
3, 39600, Note_on_c, 0, 83, 0
3, 39600, Note_on_c, 0, 59, 0
3, 39600, Note_on_c, 0, 72, 51
3, 39600, Note_on_c, 0, 84, 51
3, 39600, Note_on_c, 0, 78, 74
3, 39600, Note_on_c, 0, 84, 74
3, 39600, Note_on_c, 0, 55, 60
3, 39600, Note_on_c, 0, 62, 60
3, 39720, Note_on_c, 0, 84, 0
3, 39720, Note_on_c, 0, 72, 0
3, 39720, Note_on_c, 0, 74, 55
3, 39720, Note_on_c, 0, 86, 55
3, 39720, Note_on_c, 0, 62, 42
3, 39839, Note_on_c, 0, 86, 0
3, 39839, Note_on_c, 0, 62, 0
3, 39839, Note_on_c, 0, 74, 0
3, 39839, Note_on_c, 0, 76, 52
3, 39839, Note_on_c, 0, 88, 52
3, 39839, Note_on_c, 0, 64, 55
3, 39960, Note_on_c, 0, 64, 0
3, 39960, Note_on_c, 0, 76, 0
3, 39960, Note_on_c, 0, 88, 0
3, 39960, Note_on_c, 0, 78, 55
3, 39960, Note_on_c, 0, 90, 55
3, 39960, Note_on_c, 0, 66, 54
3, 40080, Note_on_c, 0, 66, 0
3, 40080, Note_on_c, 0, 78, 0
3, 40080, Note_on_c, 0, 90, 0
3, 40080, Note_on_c, 0, 79, 52
3, 40080, Note_on_c, 0, 91, 52
3, 40080, Note_on_c, 0, 67, 53
3, 40199, Note_on_c, 0, 67, 0
3, 40199, Note_on_c, 0, 79, 0
3, 40199, Note_on_c, 0, 91, 0
3, 40199, Note_on_c, 0, 81, 54
3, 40199, Note_on_c, 0, 93, 54
3, 40199, Note_on_c, 0, 69, 51
3, 40320, Note_on_c, 0, 69, 0
3, 40320, Note_on_c, 0, 81, 0
3, 40320, Note_on_c, 0, 55, 0
3, 40320, Note_on_c, 0, 62, 0
3, 40320, Note_on_c, 0, 84, 0
3, 40320, Note_on_c, 0, 93, 0
3, 40320, Note_on_c, 0, 78, 0
3, 40320, Note_on_c, 0, 83, 56
3, 40320, Note_on_c, 0, 88, 56
3, 40320, Note_on_c, 0, 91, 56
3, 40320, Note_on_c, 0, 95, 56
3, 40320, Note_on_c, 0, 64, 53
3, 40320, Note_on_c, 0, 67, 53
3, 40320, Note_on_c, 0, 71, 53
3, 40440, Note_on_c, 0, 71, 0
3, 40440, Note_on_c, 0, 64, 0
3, 40440, Note_on_c, 0, 88, 0
3, 40440, Note_on_c, 0, 91, 0
3, 40440, Note_on_c, 0, 83, 0
3, 40440, Note_on_c, 0, 67, 0
3, 40440, Note_on_c, 0, 95, 0
3, 40440, Note_on_c, 0, 81, 49
3, 40440, Note_on_c, 0, 93, 49
3, 40440, Note_on_c, 0, 69, 49
3, 40559, Note_on_c, 0, 69, 0
3, 40559, Note_on_c, 0, 93, 0
3, 40559, Note_on_c, 0, 81, 0
3, 40559, Note_on_c, 0, 79, 50
3, 40559, Note_on_c, 0, 91, 50
3, 40559, Note_on_c, 0, 67, 42
3, 40680, Note_on_c, 0, 67, 0
3, 40680, Note_on_c, 0, 91, 0
3, 40680, Note_on_c, 0, 79, 0
3, 40680, Note_on_c, 0, 78, 51
3, 40680, Note_on_c, 0, 90, 51
3, 40680, Note_on_c, 0, 66, 48
3, 40800, Note_on_c, 0, 66, 0
3, 40800, Note_on_c, 0, 90, 0
3, 40800, Note_on_c, 0, 78, 0
3, 40800, Note_on_c, 0, 76, 41
3, 40800, Note_on_c, 0, 88, 41
3, 40800, Note_on_c, 0, 64, 47
3, 40919, Note_on_c, 0, 64, 0
3, 40919, Note_on_c, 0, 88, 0
3, 40919, Note_on_c, 0, 76, 0
3, 40919, Note_on_c, 0, 75, 49
3, 40919, Note_on_c, 0, 87, 49
3, 40919, Note_on_c, 0, 63, 49
3, 41040, Note_on_c, 0, 63, 0
3, 41040, Note_on_c, 0, 87, 0
3, 41040, Note_on_c, 0, 75, 0
3, 41040, Note_on_c, 0, 76, 50
3, 41040, Note_on_c, 0, 88, 50
3, 41040, Note_on_c, 0, 64, 56
3, 41220, Note_on_c, 0, 64, 0
3, 41220, Note_on_c, 0, 88, 0
3, 41220, Note_on_c, 0, 76, 0
3, 41400, Note_on_c, 0, 66, 64
3, 41580, Note_on_c, 0, 66, 0
3, 41580, Note_on_c, 0, 67, 71
3, 41760, Note_on_c, 0, 67, 0
3, 41760, Note_on_c, 0, 69, 81
3, 41760, Note_on_c, 0, 60, 49
3, 41760, Note_on_c, 0, 38, 48
3, 41760, Note_on_c, 0, 50, 48
3, 41940, Note_on_c, 0, 69, 0
3, 41940, Note_on_c, 0, 67, 65
3, 42120, Note_on_c, 0, 67, 0
3, 42120, Note_on_c, 0, 66, 67
3, 42300, Note_on_c, 0, 66, 0
3, 42300, Note_on_c, 0, 67, 70
3, 42480, Note_on_c, 0, 67, 0
3, 42480, Note_on_c, 0, 69, 79
3, 43020, Note_on_c, 0, 69, 0
3, 43020, Note_on_c, 0, 71, 80
3, 43200, Note_on_c, 0, 71, 0
3, 43200, Note_on_c, 0, 50, 0
3, 43200, Note_on_c, 0, 38, 0
3, 43200, Note_on_c, 0, 60, 0
3, 43200, Note_on_c, 0, 67, 62
3, 43200, Note_on_c, 0, 59, 64
3, 43200, Note_on_c, 0, 64, 64
3, 43200, Note_on_c, 0, 38, 52
3, 43200, Note_on_c, 0, 50, 52
3, 43380, Note_on_c, 0, 67, 0
3, 43380, Note_on_c, 0, 66, 67
3, 43560, Note_on_c, 0, 66, 0
3, 43560, Note_on_c, 0, 67, 76
3, 44280, Note_on_c, 0, 67, 0
3, 44280, Note_on_c, 0, 66, 64
3, 44460, Note_on_c, 0, 66, 0
3, 44460, Note_on_c, 0, 67, 72
3, 44640, Note_on_c, 0, 67, 0
3, 44640, Note_on_c, 0, 38, 0
3, 44640, Note_on_c, 0, 59, 0
3, 44640, Note_on_c, 0, 64, 0
3, 44640, Note_on_c, 0, 50, 0
3, 44640, Note_on_c, 0, 69, 75
3, 44640, Note_on_c, 0, 60, 55
3, 44640, Note_on_c, 0, 38, 50
3, 44640, Note_on_c, 0, 50, 50
3, 44820, Note_on_c, 0, 69, 0
3, 44820, Note_on_c, 0, 67, 67
3, 45000, Note_on_c, 0, 67, 0
3, 45000, Note_on_c, 0, 66, 66
3, 45180, Note_on_c, 0, 66, 0
3, 45180, Note_on_c, 0, 67, 72
3, 45360, Note_on_c, 0, 67, 0
3, 45360, Note_on_c, 0, 69, 78
3, 45900, Note_on_c, 0, 69, 0
3, 45900, Note_on_c, 0, 71, 74
3, 46080, Note_on_c, 0, 71, 0
3, 46080, Note_on_c, 0, 50, 0
3, 46080, Note_on_c, 0, 38, 0
3, 46080, Note_on_c, 0, 60, 0
3, 46080, Note_on_c, 0, 55, 60
3, 46080, Note_on_c, 0, 59, 60
3, 46080, Note_on_c, 0, 64, 60
3, 46080, Note_on_c, 0, 38, 51
3, 46080, Note_on_c, 0, 50, 51
3, 47160, Note_on_c, 0, 50, 0
3, 47160, Note_on_c, 0, 64, 0
3, 47160, Note_on_c, 0, 55, 0
3, 47160, Note_on_c, 0, 59, 0
3, 47160, Note_on_c, 0, 38, 0
3, 47160, Note_on_c, 0, 54, 71
3, 47160, Note_on_c, 0, 66, 71
3, 47340, Note_on_c, 0, 66, 0
3, 47340, Note_on_c, 0, 54, 0
3, 47340, Note_on_c, 0, 55, 73
3, 47340, Note_on_c, 0, 67, 73
3, 47520, Note_on_c, 0, 67, 0
3, 47520, Note_on_c, 0, 55, 0
3, 47520, Note_on_c, 0, 57, 76
3, 47520, Note_on_c, 0, 69, 76
3, 47520, Note_on_c, 0, 64, 67
3, 47520, Note_on_c, 0, 37, 44
3, 47520, Note_on_c, 0, 49, 44
3, 47700, Note_on_c, 0, 69, 0
3, 47700, Note_on_c, 0, 57, 0
3, 47700, Note_on_c, 0, 55, 65
3, 47700, Note_on_c, 0, 67, 65
3, 47880, Note_on_c, 0, 67, 0
3, 47880, Note_on_c, 0, 55, 0
3, 47880, Note_on_c, 0, 54, 67
3, 47880, Note_on_c, 0, 66, 67
3, 48060, Note_on_c, 0, 66, 0
3, 48060, Note_on_c, 0, 54, 0
3, 48060, Note_on_c, 0, 55, 73
3, 48060, Note_on_c, 0, 67, 73
3, 48240, Note_on_c, 0, 67, 0
3, 48240, Note_on_c, 0, 37, 0
3, 48240, Note_on_c, 0, 49, 0
3, 48240, Note_on_c, 0, 64, 0
3, 48240, Note_on_c, 0, 55, 0
3, 48240, Note_on_c, 0, 57, 77
3, 48240, Note_on_c, 0, 69, 77
3, 48240, Note_on_c, 0, 63, 57
3, 48240, Note_on_c, 0, 36, 50
3, 48240, Note_on_c, 0, 48, 50
3, 48780, Note_on_c, 0, 69, 0
3, 48780, Note_on_c, 0, 57, 0
3, 48780, Note_on_c, 0, 59, 75
3, 48780, Note_on_c, 0, 71, 75
3, 48960, Note_on_c, 0, 71, 0
3, 48960, Note_on_c, 0, 36, 0
3, 48960, Note_on_c, 0, 48, 0
3, 48960, Note_on_c, 0, 63, 0
3, 48960, Note_on_c, 0, 59, 0
3, 48960, Note_on_c, 0, 55, 63
3, 48960, Note_on_c, 0, 67, 63
3, 48960, Note_on_c, 0, 62, 61
3, 48960, Note_on_c, 0, 35, 45
3, 48960, Note_on_c, 0, 47, 45
3, 49140, Note_on_c, 0, 67, 0
3, 49140, Note_on_c, 0, 55, 0
3, 49140, Note_on_c, 0, 54, 62
3, 49140, Note_on_c, 0, 66, 62
3, 49320, Note_on_c, 0, 66, 0
3, 49320, Note_on_c, 0, 54, 0
3, 49320, Note_on_c, 0, 55, 74
3, 49320, Note_on_c, 0, 67, 74
3, 49680, Note_on_c, 0, 47, 0
3, 49680, Note_on_c, 0, 35, 0
3, 49680, Note_on_c, 0, 62, 0
3, 49680, Note_on_c, 0, 61, 57
3, 49680, Note_on_c, 0, 34, 50
3, 49680, Note_on_c, 0, 46, 50
3, 50040, Note_on_c, 0, 55, 0
3, 50040, Note_on_c, 0, 67, 0
3, 50040, Note_on_c, 0, 54, 66
3, 50040, Note_on_c, 0, 66, 66
3, 50220, Note_on_c, 0, 66, 0
3, 50220, Note_on_c, 0, 54, 0
3, 50220, Note_on_c, 0, 55, 73
3, 50220, Note_on_c, 0, 67, 73
3, 50400, Note_on_c, 0, 67, 0
3, 50400, Note_on_c, 0, 46, 0
3, 50400, Note_on_c, 0, 34, 0
3, 50400, Note_on_c, 0, 61, 0
3, 50400, Note_on_c, 0, 55, 0
3, 50400, Note_on_c, 0, 57, 83
3, 50400, Note_on_c, 0, 69, 83
3, 50400, Note_on_c, 0, 60, 57
3, 50400, Note_on_c, 0, 33, 51
3, 50400, Note_on_c, 0, 45, 51
3, 50580, Note_on_c, 0, 69, 0
3, 50580, Note_on_c, 0, 57, 0
3, 50580, Note_on_c, 0, 55, 64
3, 50580, Note_on_c, 0, 67, 64
3, 50760, Note_on_c, 0, 67, 0
3, 50760, Note_on_c, 0, 55, 0
3, 50760, Note_on_c, 0, 54, 67
3, 50760, Note_on_c, 0, 66, 67
3, 50940, Note_on_c, 0, 66, 0
3, 50940, Note_on_c, 0, 54, 0
3, 50940, Note_on_c, 0, 55, 71
3, 50940, Note_on_c, 0, 67, 71
3, 51120, Note_on_c, 0, 67, 0
3, 51120, Note_on_c, 0, 55, 0
3, 51120, Note_on_c, 0, 57, 75
3, 51120, Note_on_c, 0, 69, 75
3, 51480, Note_on_c, 0, 69, 0
3, 51480, Note_on_c, 0, 45, 0
3, 51480, Note_on_c, 0, 33, 0
3, 51480, Note_on_c, 0, 60, 0
3, 51480, Note_on_c, 0, 57, 0
3, 51480, Note_on_c, 0, 59, 83
3, 51480, Note_on_c, 0, 71, 83
3, 51480, Note_on_c, 0, 64, 68
3, 51480, Note_on_c, 0, 31, 52
3, 51480, Note_on_c, 0, 43, 52
3, 51840, Note_on_c, 0, 43, 0
3, 51840, Note_on_c, 0, 64, 0
3, 51840, Note_on_c, 0, 59, 0
3, 51840, Note_on_c, 0, 71, 0
3, 51840, Note_on_c, 0, 31, 0
3, 51840, Note_on_c, 0, 52, 55
3, 51840, Note_on_c, 0, 58, 55
3, 51840, Note_on_c, 0, 64, 55
3, 51840, Note_on_c, 0, 30, 47
3, 51840, Note_on_c, 0, 42, 47
3, 52920, Note_on_c, 0, 42, 0
3, 52920, Note_on_c, 0, 64, 0
3, 52920, Note_on_c, 0, 52, 0
3, 52920, Note_on_c, 0, 58, 0
3, 52920, Note_on_c, 0, 30, 0
3, 52920, Note_on_c, 0, 49, 88
3, 52920, Note_on_c, 0, 61, 88
3, 53040, Note_on_c, 0, 61, 0
3, 53040, Note_on_c, 0, 49, 0
3, 53040, Note_on_c, 0, 51, 98
3, 53040, Note_on_c, 0, 63, 98
3, 53220, Note_on_c, 0, 63, 0
3, 53220, Note_on_c, 0, 51, 0
3, 53220, Note_on_c, 0, 52, 101
3, 53220, Note_on_c, 0, 64, 101
3, 53280, Note_on_c, 0, 64, 0
3, 53280, Note_on_c, 0, 52, 0
3, 53280, Note_on_c, 0, 52, 71
3, 53280, Note_on_c, 0, 57, 71
3, 53280, Note_on_c, 0, 60, 71
3, 53280, Note_on_c, 0, 64, 71
3, 53280, Note_on_c, 0, 33, 41
3, 53280, Note_on_c, 0, 40, 41
3, 53280, Note_on_c, 0, 45, 41
3, 54360, Note_on_c, 0, 45, 0
3, 54360, Note_on_c, 0, 33, 0
3, 54360, Note_on_c, 0, 57, 0
3, 54360, Note_on_c, 0, 60, 0
3, 54360, Note_on_c, 0, 52, 0
3, 54360, Note_on_c, 0, 40, 0
3, 54360, Note_on_c, 0, 64, 0
3, 54360, Note_on_c, 0, 60, 61
3, 54480, Note_on_c, 0, 60, 0
3, 54480, Note_on_c, 0, 62, 70
3, 54660, Note_on_c, 0, 62, 0
3, 54660, Note_on_c, 0, 64, 76
3, 54720, Note_on_c, 0, 64, 0
3, 54720, Note_on_c, 0, 54, 78
3, 54720, Note_on_c, 0, 60, 78
3, 54720, Note_on_c, 0, 64, 78
3, 54720, Note_on_c, 0, 38, 50
3, 54720, Note_on_c, 0, 45, 50
3, 54810, Note_on_c, 0, 45, 0
3, 54810, Note_on_c, 0, 64, 0
3, 54810, Note_on_c, 0, 54, 0
3, 54810, Note_on_c, 0, 60, 0
3, 54810, Note_on_c, 0, 38, 0
3, 67680, Note_on_c, 0, 79, 43
3, 67680, Note_on_c, 0, 83, 43
3, 67680, Note_on_c, 0, 67, 44
3, 67680, Note_on_c, 0, 71, 44
3, 67769, Note_on_c, 0, 71, 0
3, 67769, Note_on_c, 0, 79, 0
3, 67769, Note_on_c, 0, 83, 0
3, 67769, Note_on_c, 0, 67, 0
3, 67860, Note_on_c, 0, 81, 47
3, 67860, Note_on_c, 0, 84, 47
3, 67860, Note_on_c, 0, 69, 56
3, 67860, Note_on_c, 0, 72, 56
3, 67949, Note_on_c, 0, 72, 0
3, 67949, Note_on_c, 0, 81, 0
3, 67949, Note_on_c, 0, 84, 0
3, 67949, Note_on_c, 0, 69, 0
3, 68040, Note_on_c, 0, 83, 57
3, 68040, Note_on_c, 0, 86, 57
3, 68040, Note_on_c, 0, 71, 55
3, 68040, Note_on_c, 0, 74, 55
3, 68129, Note_on_c, 0, 74, 0
3, 68129, Note_on_c, 0, 83, 0
3, 68129, Note_on_c, 0, 86, 0
3, 68129, Note_on_c, 0, 71, 0
3, 68220, Note_on_c, 0, 84, 57
3, 68220, Note_on_c, 0, 88, 57
3, 68220, Note_on_c, 0, 72, 59
3, 68220, Note_on_c, 0, 76, 59
3, 68309, Note_on_c, 0, 76, 0
3, 68309, Note_on_c, 0, 84, 0
3, 68309, Note_on_c, 0, 88, 0
3, 68309, Note_on_c, 0, 72, 0
3, 68400, Note_on_c, 0, 83, 46
3, 68400, Note_on_c, 0, 86, 46
3, 68400, Note_on_c, 0, 71, 45
3, 68400, Note_on_c, 0, 74, 45
3, 68489, Note_on_c, 0, 74, 0
3, 68489, Note_on_c, 0, 83, 0
3, 68489, Note_on_c, 0, 86, 0
3, 68489, Note_on_c, 0, 71, 0
3, 68580, Note_on_c, 0, 81, 41
3, 68580, Note_on_c, 0, 84, 41
3, 68580, Note_on_c, 0, 69, 45
3, 68580, Note_on_c, 0, 72, 45
3, 68669, Note_on_c, 0, 72, 0
3, 68669, Note_on_c, 0, 81, 0
3, 68669, Note_on_c, 0, 84, 0
3, 68669, Note_on_c, 0, 69, 0
3, 68760, Note_on_c, 0, 79, 47
3, 68760, Note_on_c, 0, 83, 47
3, 68760, Note_on_c, 0, 67, 51
3, 68760, Note_on_c, 0, 71, 51
3, 69120, Note_on_c, 0, 71, 0
3, 69120, Note_on_c, 0, 79, 0
3, 69120, Note_on_c, 0, 83, 0
3, 69120, Note_on_c, 0, 67, 0
3, 69120, Note_on_c, 0, 78, 51
3, 69120, Note_on_c, 0, 81, 51
3, 69120, Note_on_c, 0, 66, 45
3, 69120, Note_on_c, 0, 69, 45
3, 69480, Note_on_c, 0, 69, 0
3, 69480, Note_on_c, 0, 78, 0
3, 69480, Note_on_c, 0, 81, 0
3, 69480, Note_on_c, 0, 66, 0
3, 69480, Note_on_c, 0, 76, 49
3, 69480, Note_on_c, 0, 79, 49
3, 69480, Note_on_c, 0, 55, 46
3, 69480, Note_on_c, 0, 64, 46
3, 69480, Note_on_c, 0, 67, 46
3, 69660, Note_on_c, 0, 67, 0
3, 69660, Note_on_c, 0, 55, 0
3, 69660, Note_on_c, 0, 76, 0
3, 69660, Note_on_c, 0, 79, 0
3, 69660, Note_on_c, 0, 64, 0
3, 69660, Note_on_c, 0, 78, 48
3, 69660, Note_on_c, 0, 81, 48
3, 69660, Note_on_c, 0, 66, 53
3, 69660, Note_on_c, 0, 69, 53
3, 69840, Note_on_c, 0, 69, 0
3, 69840, Note_on_c, 0, 78, 0
3, 69840, Note_on_c, 0, 81, 0
3, 69840, Note_on_c, 0, 66, 0
3, 69840, Note_on_c, 0, 79, 52
3, 69840, Note_on_c, 0, 83, 52
3, 69840, Note_on_c, 0, 67, 52
3, 69840, Note_on_c, 0, 71, 52
3, 70560, Note_on_c, 0, 71, 0
3, 70560, Note_on_c, 0, 79, 0
3, 70560, Note_on_c, 0, 83, 0
3, 70560, Note_on_c, 0, 67, 0
3, 70560, Note_on_c, 0, 79, 50
3, 70560, Note_on_c, 0, 83, 50
3, 70560, Note_on_c, 0, 67, 50
3, 70560, Note_on_c, 0, 71, 50
3, 70649, Note_on_c, 0, 71, 0
3, 70649, Note_on_c, 0, 79, 0
3, 70649, Note_on_c, 0, 83, 0
3, 70649, Note_on_c, 0, 67, 0
3, 70740, Note_on_c, 0, 81, 50
3, 70740, Note_on_c, 0, 84, 50
3, 70740, Note_on_c, 0, 69, 53
3, 70740, Note_on_c, 0, 72, 53
3, 70829, Note_on_c, 0, 72, 0
3, 70829, Note_on_c, 0, 81, 0
3, 70829, Note_on_c, 0, 84, 0
3, 70829, Note_on_c, 0, 69, 0
3, 70920, Note_on_c, 0, 83, 55
3, 70920, Note_on_c, 0, 86, 55
3, 70920, Note_on_c, 0, 71, 55
3, 70920, Note_on_c, 0, 74, 55
3, 71009, Note_on_c, 0, 74, 0
3, 71009, Note_on_c, 0, 83, 0
3, 71009, Note_on_c, 0, 86, 0
3, 71009, Note_on_c, 0, 71, 0
3, 71100, Note_on_c, 0, 84, 56
3, 71100, Note_on_c, 0, 88, 56
3, 71100, Note_on_c, 0, 72, 52
3, 71100, Note_on_c, 0, 76, 52
3, 71189, Note_on_c, 0, 76, 0
3, 71189, Note_on_c, 0, 84, 0
3, 71189, Note_on_c, 0, 88, 0
3, 71189, Note_on_c, 0, 72, 0
3, 71280, Note_on_c, 0, 83, 45
3, 71280, Note_on_c, 0, 86, 45
3, 71280, Note_on_c, 0, 71, 46
3, 71280, Note_on_c, 0, 74, 46
3, 71369, Note_on_c, 0, 74, 0
3, 71369, Note_on_c, 0, 83, 0
3, 71369, Note_on_c, 0, 86, 0
3, 71369, Note_on_c, 0, 71, 0
3, 71460, Note_on_c, 0, 81, 47
3, 71460, Note_on_c, 0, 84, 47
3, 71460, Note_on_c, 0, 69, 41
3, 71460, Note_on_c, 0, 72, 41
3, 71549, Note_on_c, 0, 72, 0
3, 71549, Note_on_c, 0, 81, 0
3, 71549, Note_on_c, 0, 84, 0
3, 71549, Note_on_c, 0, 69, 0
3, 71640, Note_on_c, 0, 79, 41
3, 71640, Note_on_c, 0, 83, 41
3, 71640, Note_on_c, 0, 67, 50
3, 71640, Note_on_c, 0, 71, 50
3, 72000, Note_on_c, 0, 71, 0
3, 72000, Note_on_c, 0, 79, 0
3, 72000, Note_on_c, 0, 83, 0
3, 72000, Note_on_c, 0, 67, 0
3, 72000, Note_on_c, 0, 78, 50
3, 72000, Note_on_c, 0, 81, 50
3, 72000, Note_on_c, 0, 66, 43
3, 72000, Note_on_c, 0, 69, 43
3, 72360, Note_on_c, 0, 69, 0
3, 72360, Note_on_c, 0, 78, 0
3, 72360, Note_on_c, 0, 81, 0
3, 72360, Note_on_c, 0, 66, 0
3, 72360, Note_on_c, 0, 67, 46
3, 72360, Note_on_c, 0, 76, 46
3, 72360, Note_on_c, 0, 52, 41
3, 72360, Note_on_c, 0, 59, 41
3, 72360, Note_on_c, 0, 64, 41
3, 73440, Note_on_c, 0, 64, 0
3, 73440, Note_on_c, 0, 52, 0
3, 73440, Note_on_c, 0, 67, 0
3, 73440, Note_on_c, 0, 76, 0
3, 73440, Note_on_c, 0, 59, 0
3, 73440, Note_on_c, 0, 79, 52
3, 73440, Note_on_c, 0, 83, 52
3, 73440, Note_on_c, 0, 67, 62
3, 73440, Note_on_c, 0, 71, 62
3, 73620, Note_on_c, 0, 71, 0
3, 73620, Note_on_c, 0, 79, 0
3, 73620, Note_on_c, 0, 83, 0
3, 73620, Note_on_c, 0, 67, 0
3, 73620, Note_on_c, 0, 81, 53
3, 73620, Note_on_c, 0, 84, 53
3, 73620, Note_on_c, 0, 69, 57
3, 73620, Note_on_c, 0, 72, 57
3, 73800, Note_on_c, 0, 72, 0
3, 73800, Note_on_c, 0, 81, 0
3, 73800, Note_on_c, 0, 84, 0
3, 73800, Note_on_c, 0, 69, 0
3, 73800, Note_on_c, 0, 83, 54
3, 73800, Note_on_c, 0, 86, 54
3, 73800, Note_on_c, 0, 71, 54
3, 73800, Note_on_c, 0, 74, 54
3, 73980, Note_on_c, 0, 74, 0
3, 73980, Note_on_c, 0, 83, 0
3, 73980, Note_on_c, 0, 86, 0
3, 73980, Note_on_c, 0, 71, 0
3, 73980, Note_on_c, 0, 84, 54
3, 73980, Note_on_c, 0, 88, 54
3, 73980, Note_on_c, 0, 72, 56
3, 73980, Note_on_c, 0, 76, 56
3, 74160, Note_on_c, 0, 76, 0
3, 74160, Note_on_c, 0, 84, 0
3, 74160, Note_on_c, 0, 88, 0
3, 74160, Note_on_c, 0, 72, 0
3, 74160, Note_on_c, 0, 83, 49
3, 74160, Note_on_c, 0, 86, 49
3, 74160, Note_on_c, 0, 71, 51
3, 74160, Note_on_c, 0, 74, 51
3, 74340, Note_on_c, 0, 74, 0
3, 74340, Note_on_c, 0, 83, 0
3, 74340, Note_on_c, 0, 86, 0
3, 74340, Note_on_c, 0, 71, 0
3, 74340, Note_on_c, 0, 81, 43
3, 74340, Note_on_c, 0, 84, 43
3, 74340, Note_on_c, 0, 69, 44
3, 74340, Note_on_c, 0, 72, 44
3, 74520, Note_on_c, 0, 72, 0
3, 74520, Note_on_c, 0, 81, 0
3, 74520, Note_on_c, 0, 84, 0
3, 74520, Note_on_c, 0, 69, 0
3, 74520, Note_on_c, 0, 79, 53
3, 74520, Note_on_c, 0, 83, 53
3, 74520, Note_on_c, 0, 67, 48
3, 74520, Note_on_c, 0, 71, 48
3, 74700, Note_on_c, 0, 71, 0
3, 74700, Note_on_c, 0, 79, 0
3, 74700, Note_on_c, 0, 83, 0
3, 74700, Note_on_c, 0, 67, 0
3, 74700, Note_on_c, 0, 81, 51
3, 74700, Note_on_c, 0, 84, 51
3, 74700, Note_on_c, 0, 69, 54
3, 74700, Note_on_c, 0, 72, 54
3, 74880, Note_on_c, 0, 72, 0
3, 74880, Note_on_c, 0, 81, 0
3, 74880, Note_on_c, 0, 84, 0
3, 74880, Note_on_c, 0, 69, 0
3, 74880, Note_on_c, 0, 79, 50
3, 74880, Note_on_c, 0, 83, 50
3, 74880, Note_on_c, 0, 67, 47
3, 74880, Note_on_c, 0, 71, 47
3, 75060, Note_on_c, 0, 71, 0
3, 75060, Note_on_c, 0, 79, 0
3, 75060, Note_on_c, 0, 83, 0
3, 75060, Note_on_c, 0, 67, 0
3, 75060, Note_on_c, 0, 78, 46
3, 75060, Note_on_c, 0, 81, 46
3, 75060, Note_on_c, 0, 66, 44
3, 75060, Note_on_c, 0, 69, 44
3, 75240, Note_on_c, 0, 69, 0
3, 75240, Note_on_c, 0, 78, 0
3, 75240, Note_on_c, 0, 81, 0
3, 75240, Note_on_c, 0, 66, 0
3, 75240, Note_on_c, 0, 71, 47
3, 75240, Note_on_c, 0, 79, 47
3, 75240, Note_on_c, 0, 55, 46
3, 75240, Note_on_c, 0, 64, 46
3, 75240, Note_on_c, 0, 67, 46
3, 75420, Note_on_c, 0, 67, 0
3, 75420, Note_on_c, 0, 55, 0
3, 75420, Note_on_c, 0, 71, 0
3, 75420, Note_on_c, 0, 79, 0
3, 75420, Note_on_c, 0, 64, 0
3, 75420, Note_on_c, 0, 78, 56
3, 75420, Note_on_c, 0, 81, 56
3, 75420, Note_on_c, 0, 66, 53
3, 75420, Note_on_c, 0, 69, 53
3, 75600, Note_on_c, 0, 69, 0
3, 75600, Note_on_c, 0, 78, 0
3, 75600, Note_on_c, 0, 81, 0
3, 75600, Note_on_c, 0, 66, 0
3, 75600, Note_on_c, 0, 79, 51
3, 75600, Note_on_c, 0, 83, 51
3, 75600, Note_on_c, 0, 67, 54
3, 75600, Note_on_c, 0, 71, 54
3, 76320, Note_on_c, 0, 71, 0
3, 76320, Note_on_c, 0, 79, 0
3, 76320, Note_on_c, 0, 83, 0
3, 76320, Note_on_c, 0, 67, 0
3, 76320, Note_on_c, 0, 79, 44
3, 76320, Note_on_c, 0, 83, 44
3, 76320, Note_on_c, 0, 67, 52
3, 76320, Note_on_c, 0, 71, 52
3, 76500, Note_on_c, 0, 71, 0
3, 76500, Note_on_c, 0, 79, 0
3, 76500, Note_on_c, 0, 83, 0
3, 76500, Note_on_c, 0, 67, 0
3, 76500, Note_on_c, 0, 81, 51
3, 76500, Note_on_c, 0, 84, 51
3, 76500, Note_on_c, 0, 69, 51
3, 76500, Note_on_c, 0, 72, 51
3, 76680, Note_on_c, 0, 72, 0
3, 76680, Note_on_c, 0, 81, 0
3, 76680, Note_on_c, 0, 84, 0
3, 76680, Note_on_c, 0, 69, 0
3, 76680, Note_on_c, 0, 83, 55
3, 76680, Note_on_c, 0, 86, 55
3, 76680, Note_on_c, 0, 71, 55
3, 76680, Note_on_c, 0, 74, 55
3, 76860, Note_on_c, 0, 74, 0
3, 76860, Note_on_c, 0, 83, 0
3, 76860, Note_on_c, 0, 86, 0
3, 76860, Note_on_c, 0, 71, 0
3, 76860, Note_on_c, 0, 84, 50
3, 76860, Note_on_c, 0, 88, 50
3, 76860, Note_on_c, 0, 72, 53
3, 76860, Note_on_c, 0, 76, 53
3, 77040, Note_on_c, 0, 76, 0
3, 77040, Note_on_c, 0, 84, 0
3, 77040, Note_on_c, 0, 88, 0
3, 77040, Note_on_c, 0, 72, 0
3, 77040, Note_on_c, 0, 83, 52
3, 77040, Note_on_c, 0, 86, 52
3, 77040, Note_on_c, 0, 71, 47
3, 77040, Note_on_c, 0, 74, 47
3, 77220, Note_on_c, 0, 74, 0
3, 77220, Note_on_c, 0, 83, 0
3, 77220, Note_on_c, 0, 86, 0
3, 77220, Note_on_c, 0, 71, 0
3, 77220, Note_on_c, 0, 81, 49
3, 77220, Note_on_c, 0, 84, 49
3, 77220, Note_on_c, 0, 69, 45
3, 77220, Note_on_c, 0, 72, 45
3, 77400, Note_on_c, 0, 72, 0
3, 77400, Note_on_c, 0, 81, 0
3, 77400, Note_on_c, 0, 84, 0
3, 77400, Note_on_c, 0, 69, 0
3, 77400, Note_on_c, 0, 79, 46
3, 77400, Note_on_c, 0, 83, 46
3, 77400, Note_on_c, 0, 67, 51
3, 77400, Note_on_c, 0, 71, 51
3, 77760, Note_on_c, 0, 71, 0
3, 77760, Note_on_c, 0, 79, 0
3, 77760, Note_on_c, 0, 83, 0
3, 77760, Note_on_c, 0, 67, 0
3, 77760, Note_on_c, 0, 78, 45
3, 77760, Note_on_c, 0, 81, 45
3, 77760, Note_on_c, 0, 66, 46
3, 77760, Note_on_c, 0, 69, 46
3, 78120, Note_on_c, 0, 69, 0
3, 78120, Note_on_c, 0, 78, 0
3, 78120, Note_on_c, 0, 81, 0
3, 78120, Note_on_c, 0, 66, 0
3, 78120, Note_on_c, 0, 67, 39
3, 78120, Note_on_c, 0, 76, 39
3, 78120, Note_on_c, 0, 52, 44
3, 78120, Note_on_c, 0, 59, 44
3, 78120, Note_on_c, 0, 64, 44
3, 78840, Note_on_c, 0, 64, 0
3, 78840, Note_on_c, 0, 52, 0
3, 78840, Note_on_c, 0, 67, 0
3, 78840, Note_on_c, 0, 76, 0
3, 78840, Note_on_c, 0, 59, 0
3, 79200, Note_on_c, 0, 74, 76
3, 79200, Note_on_c, 0, 78, 76
3, 79200, Note_on_c, 0, 62, 74
3, 79200, Note_on_c, 0, 66, 74
3, 79380, Note_on_c, 0, 66, 0
3, 79380, Note_on_c, 0, 74, 0
3, 79380, Note_on_c, 0, 78, 0
3, 79380, Note_on_c, 0, 62, 0
3, 79380, Note_on_c, 0, 76, 83
3, 79380, Note_on_c, 0, 79, 83
3, 79380, Note_on_c, 0, 64, 86
3, 79380, Note_on_c, 0, 67, 86
3, 79560, Note_on_c, 0, 67, 0
3, 79560, Note_on_c, 0, 76, 0
3, 79560, Note_on_c, 0, 79, 0
3, 79560, Note_on_c, 0, 64, 0
3, 79560, Note_on_c, 0, 78, 86
3, 79560, Note_on_c, 0, 81, 86
3, 79560, Note_on_c, 0, 66, 89
3, 79560, Note_on_c, 0, 69, 89
3, 79740, Note_on_c, 0, 69, 0
3, 79740, Note_on_c, 0, 78, 0
3, 79740, Note_on_c, 0, 81, 0
3, 79740, Note_on_c, 0, 66, 0
3, 79740, Note_on_c, 0, 76, 76
3, 79740, Note_on_c, 0, 79, 76
3, 79740, Note_on_c, 0, 64, 80
3, 79740, Note_on_c, 0, 67, 80
3, 79920, Note_on_c, 0, 67, 0
3, 79920, Note_on_c, 0, 76, 0
3, 79920, Note_on_c, 0, 79, 0
3, 79920, Note_on_c, 0, 64, 0
3, 79920, Note_on_c, 0, 74, 80
3, 79920, Note_on_c, 0, 78, 80
3, 79920, Note_on_c, 0, 62, 81
3, 79920, Note_on_c, 0, 66, 81
3, 80100, Note_on_c, 0, 66, 0
3, 80100, Note_on_c, 0, 74, 0
3, 80100, Note_on_c, 0, 78, 0
3, 80100, Note_on_c, 0, 62, 0
3, 80100, Note_on_c, 0, 76, 88
3, 80100, Note_on_c, 0, 79, 88
3, 80100, Note_on_c, 0, 64, 88
3, 80100, Note_on_c, 0, 67, 88
3, 80280, Note_on_c, 0, 67, 0
3, 80280, Note_on_c, 0, 76, 0
3, 80280, Note_on_c, 0, 79, 0
3, 80280, Note_on_c, 0, 64, 0
3, 80280, Note_on_c, 0, 78, 92
3, 80280, Note_on_c, 0, 81, 92
3, 80280, Note_on_c, 0, 66, 88
3, 80280, Note_on_c, 0, 69, 88
3, 80640, Note_on_c, 0, 69, 0
3, 80640, Note_on_c, 0, 78, 0
3, 80640, Note_on_c, 0, 81, 0
3, 80640, Note_on_c, 0, 66, 0
3, 80640, Note_on_c, 0, 72, 90
3, 80640, Note_on_c, 0, 78, 90
3, 80640, Note_on_c, 0, 83, 90
3, 80640, Note_on_c, 0, 60, 89
3, 80640, Note_on_c, 0, 66, 89
3, 80640, Note_on_c, 0, 71, 89
3, 81000, Note_on_c, 0, 71, 0
3, 81000, Note_on_c, 0, 78, 0
3, 81000, Note_on_c, 0, 83, 0
3, 81000, Note_on_c, 0, 72, 0
3, 81000, Note_on_c, 0, 66, 0
3, 81000, Note_on_c, 0, 60, 0
3, 81000, Note_on_c, 0, 67, 72
3, 81000, Note_on_c, 0, 71, 72
3, 81000, Note_on_c, 0, 79, 72
3, 81000, Note_on_c, 0, 50, 74
3, 81000, Note_on_c, 0, 59, 74
3, 82080, Note_on_c, 0, 59, 0
3, 82080, Note_on_c, 0, 79, 0
3, 82080, Note_on_c, 0, 67, 0
3, 82080, Note_on_c, 0, 71, 0
3, 82080, Note_on_c, 0, 50, 0
3, 82080, Note_on_c, 0, 74, 79
3, 82080, Note_on_c, 0, 78, 79
3, 82080, Note_on_c, 0, 62, 95
3, 82080, Note_on_c, 0, 66, 95
3, 82260, Note_on_c, 0, 66, 0
3, 82260, Note_on_c, 0, 74, 0
3, 82260, Note_on_c, 0, 78, 0
3, 82260, Note_on_c, 0, 62, 0
3, 82260, Note_on_c, 0, 76, 90
3, 82260, Note_on_c, 0, 79, 90
3, 82260, Note_on_c, 0, 64, 92
3, 82260, Note_on_c, 0, 67, 92
3, 82440, Note_on_c, 0, 67, 0
3, 82440, Note_on_c, 0, 76, 0
3, 82440, Note_on_c, 0, 79, 0
3, 82440, Note_on_c, 0, 64, 0
3, 82440, Note_on_c, 0, 78, 86
3, 82440, Note_on_c, 0, 81, 86
3, 82440, Note_on_c, 0, 66, 89
3, 82440, Note_on_c, 0, 69, 89
3, 82620, Note_on_c, 0, 69, 0
3, 82620, Note_on_c, 0, 78, 0
3, 82620, Note_on_c, 0, 81, 0
3, 82620, Note_on_c, 0, 66, 0
3, 82620, Note_on_c, 0, 76, 73
3, 82620, Note_on_c, 0, 79, 73
3, 82620, Note_on_c, 0, 64, 82
3, 82620, Note_on_c, 0, 67, 82
3, 82800, Note_on_c, 0, 67, 0
3, 82800, Note_on_c, 0, 76, 0
3, 82800, Note_on_c, 0, 79, 0
3, 82800, Note_on_c, 0, 64, 0
3, 82800, Note_on_c, 0, 74, 80
3, 82800, Note_on_c, 0, 78, 80
3, 82800, Note_on_c, 0, 62, 81
3, 82800, Note_on_c, 0, 66, 81
3, 82980, Note_on_c, 0, 66, 0
3, 82980, Note_on_c, 0, 74, 0
3, 82980, Note_on_c, 0, 78, 0
3, 82980, Note_on_c, 0, 62, 0
3, 82980, Note_on_c, 0, 76, 90
3, 82980, Note_on_c, 0, 79, 90
3, 82980, Note_on_c, 0, 64, 86
3, 82980, Note_on_c, 0, 67, 86
3, 83160, Note_on_c, 0, 67, 0
3, 83160, Note_on_c, 0, 76, 0
3, 83160, Note_on_c, 0, 79, 0
3, 83160, Note_on_c, 0, 64, 0
3, 83160, Note_on_c, 0, 78, 93
3, 83160, Note_on_c, 0, 81, 93
3, 83160, Note_on_c, 0, 66, 88
3, 83160, Note_on_c, 0, 69, 88
3, 83520, Note_on_c, 0, 69, 0
3, 83520, Note_on_c, 0, 78, 0
3, 83520, Note_on_c, 0, 81, 0
3, 83520, Note_on_c, 0, 66, 0
3, 83520, Note_on_c, 0, 72, 90
3, 83520, Note_on_c, 0, 78, 90
3, 83520, Note_on_c, 0, 83, 90
3, 83520, Note_on_c, 0, 60, 91
3, 83520, Note_on_c, 0, 66, 91
3, 83520, Note_on_c, 0, 71, 91
3, 83880, Note_on_c, 0, 71, 0
3, 83880, Note_on_c, 0, 78, 0
3, 83880, Note_on_c, 0, 83, 0
3, 83880, Note_on_c, 0, 72, 0
3, 83880, Note_on_c, 0, 66, 0
3, 83880, Note_on_c, 0, 60, 0
3, 83880, Note_on_c, 0, 72, 71
3, 83880, Note_on_c, 0, 76, 71
3, 83880, Note_on_c, 0, 50, 72
3, 83880, Note_on_c, 0, 60, 72
3, 83880, Note_on_c, 0, 64, 72
3, 84960, Note_on_c, 0, 64, 0
3, 84960, Note_on_c, 0, 50, 0
3, 84960, Note_on_c, 0, 72, 0
3, 84960, Note_on_c, 0, 76, 0
3, 84960, Note_on_c, 0, 60, 0
3, 84960, Note_on_c, 0, 74, 87
3, 84960, Note_on_c, 0, 78, 87
3, 84960, Note_on_c, 0, 62, 80
3, 84960, Note_on_c, 0, 66, 80
3, 85140, Note_on_c, 0, 66, 0
3, 85140, Note_on_c, 0, 74, 0
3, 85140, Note_on_c, 0, 78, 0
3, 85140, Note_on_c, 0, 62, 0
3, 85140, Note_on_c, 0, 76, 90
3, 85140, Note_on_c, 0, 79, 90
3, 85140, Note_on_c, 0, 64, 91
3, 85140, Note_on_c, 0, 67, 91
3, 85320, Note_on_c, 0, 67, 0
3, 85320, Note_on_c, 0, 76, 0
3, 85320, Note_on_c, 0, 79, 0
3, 85320, Note_on_c, 0, 64, 0
3, 85320, Note_on_c, 0, 78, 89
3, 85320, Note_on_c, 0, 81, 89
3, 85320, Note_on_c, 0, 66, 89
3, 85320, Note_on_c, 0, 69, 89
3, 85500, Note_on_c, 0, 69, 0
3, 85500, Note_on_c, 0, 78, 0
3, 85500, Note_on_c, 0, 81, 0
3, 85500, Note_on_c, 0, 66, 0
3, 85500, Note_on_c, 0, 76, 77
3, 85500, Note_on_c, 0, 79, 77
3, 85500, Note_on_c, 0, 64, 74
3, 85500, Note_on_c, 0, 67, 74
3, 85680, Note_on_c, 0, 67, 0
3, 85680, Note_on_c, 0, 76, 0
3, 85680, Note_on_c, 0, 79, 0
3, 85680, Note_on_c, 0, 64, 0
3, 85680, Note_on_c, 0, 74, 80
3, 85680, Note_on_c, 0, 78, 80
3, 85680, Note_on_c, 0, 62, 79
3, 85680, Note_on_c, 0, 66, 79
3, 85860, Note_on_c, 0, 66, 0
3, 85860, Note_on_c, 0, 74, 0
3, 85860, Note_on_c, 0, 78, 0
3, 85860, Note_on_c, 0, 62, 0
3, 85860, Note_on_c, 0, 76, 85
3, 85860, Note_on_c, 0, 79, 85
3, 85860, Note_on_c, 0, 64, 85
3, 85860, Note_on_c, 0, 67, 85
3, 86040, Note_on_c, 0, 67, 0
3, 86040, Note_on_c, 0, 76, 0
3, 86040, Note_on_c, 0, 79, 0
3, 86040, Note_on_c, 0, 64, 0
3, 86040, Note_on_c, 0, 78, 92
3, 86040, Note_on_c, 0, 81, 92
3, 86040, Note_on_c, 0, 66, 88
3, 86040, Note_on_c, 0, 69, 88
3, 86400, Note_on_c, 0, 69, 0
3, 86400, Note_on_c, 0, 78, 0
3, 86400, Note_on_c, 0, 81, 0
3, 86400, Note_on_c, 0, 66, 0
3, 86400, Note_on_c, 0, 72, 89
3, 86400, Note_on_c, 0, 78, 89
3, 86400, Note_on_c, 0, 83, 89
3, 86400, Note_on_c, 0, 60, 89
3, 86400, Note_on_c, 0, 66, 89
3, 86400, Note_on_c, 0, 71, 89
3, 86760, Note_on_c, 0, 71, 0
3, 86760, Note_on_c, 0, 78, 0
3, 86760, Note_on_c, 0, 83, 0
3, 86760, Note_on_c, 0, 72, 0
3, 86760, Note_on_c, 0, 66, 0
3, 86760, Note_on_c, 0, 60, 0
3, 86760, Note_on_c, 0, 67, 75
3, 86760, Note_on_c, 0, 71, 75
3, 86760, Note_on_c, 0, 79, 75
3, 86760, Note_on_c, 0, 50, 73
3, 86760, Note_on_c, 0, 59, 73
3, 87840, Note_on_c, 0, 59, 0
3, 87840, Note_on_c, 0, 79, 0
3, 87840, Note_on_c, 0, 67, 0
3, 87840, Note_on_c, 0, 71, 0
3, 87840, Note_on_c, 0, 50, 0
3, 87840, Note_on_c, 0, 74, 79
3, 87840, Note_on_c, 0, 78, 79
3, 87840, Note_on_c, 0, 62, 94
3, 87840, Note_on_c, 0, 66, 94
3, 88020, Note_on_c, 0, 66, 0
3, 88020, Note_on_c, 0, 74, 0
3, 88020, Note_on_c, 0, 78, 0
3, 88020, Note_on_c, 0, 62, 0
3, 88020, Note_on_c, 0, 76, 85
3, 88020, Note_on_c, 0, 79, 85
3, 88020, Note_on_c, 0, 64, 89
3, 88020, Note_on_c, 0, 67, 89
3, 88200, Note_on_c, 0, 67, 0
3, 88200, Note_on_c, 0, 76, 0
3, 88200, Note_on_c, 0, 79, 0
3, 88200, Note_on_c, 0, 64, 0
3, 88200, Note_on_c, 0, 78, 91
3, 88200, Note_on_c, 0, 81, 91
3, 88200, Note_on_c, 0, 66, 90
3, 88200, Note_on_c, 0, 69, 90
3, 88380, Note_on_c, 0, 69, 0
3, 88380, Note_on_c, 0, 78, 0
3, 88380, Note_on_c, 0, 81, 0
3, 88380, Note_on_c, 0, 66, 0
3, 88380, Note_on_c, 0, 79, 92
3, 88380, Note_on_c, 0, 83, 92
3, 88380, Note_on_c, 0, 67, 86
3, 88380, Note_on_c, 0, 71, 86
3, 88560, Note_on_c, 0, 71, 0
3, 88560, Note_on_c, 0, 79, 0
3, 88560, Note_on_c, 0, 83, 0
3, 88560, Note_on_c, 0, 67, 0
3, 88560, Note_on_c, 0, 81, 83
3, 88560, Note_on_c, 0, 84, 83
3, 88560, Note_on_c, 0, 69, 88
3, 88560, Note_on_c, 0, 72, 88
3, 88740, Note_on_c, 0, 72, 0
3, 88740, Note_on_c, 0, 81, 0
3, 88740, Note_on_c, 0, 84, 0
3, 88740, Note_on_c, 0, 69, 0
3, 88740, Note_on_c, 0, 84, 90
3, 88740, Note_on_c, 0, 88, 90
3, 88740, Note_on_c, 0, 72, 93
3, 88740, Note_on_c, 0, 76, 93
3, 88920, Note_on_c, 0, 76, 0
3, 88920, Note_on_c, 0, 84, 0
3, 88920, Note_on_c, 0, 88, 0
3, 88920, Note_on_c, 0, 72, 0
3, 88920, Note_on_c, 0, 83, 78
3, 88920, Note_on_c, 0, 86, 78
3, 88920, Note_on_c, 0, 71, 84
3, 88920, Note_on_c, 0, 74, 84
3, 89280, Note_on_c, 0, 74, 0
3, 89280, Note_on_c, 0, 83, 0
3, 89280, Note_on_c, 0, 86, 0
3, 89280, Note_on_c, 0, 71, 0
3, 89280, Note_on_c, 0, 81, 78
3, 89280, Note_on_c, 0, 84, 78
3, 89280, Note_on_c, 0, 69, 75
3, 89280, Note_on_c, 0, 72, 75
3, 89640, Note_on_c, 0, 72, 0
3, 89640, Note_on_c, 0, 81, 0
3, 89640, Note_on_c, 0, 84, 0
3, 89640, Note_on_c, 0, 69, 0
3, 89640, Note_on_c, 0, 79, 79
3, 89640, Note_on_c, 0, 83, 79
3, 89640, Note_on_c, 0, 67, 82
3, 89640, Note_on_c, 0, 71, 82
3, 90360, Note_on_c, 0, 71, 0
3, 90360, Note_on_c, 0, 79, 0
3, 90360, Note_on_c, 0, 83, 0
3, 90360, Note_on_c, 0, 67, 0
3, 90720, Note_on_c, 0, 91, 43
3, 90720, Note_on_c, 0, 95, 43
3, 90720, Note_on_c, 0, 79, 44
3, 90720, Note_on_c, 0, 83, 44
3, 90900, Note_on_c, 0, 83, 0
3, 90900, Note_on_c, 0, 91, 0
3, 90900, Note_on_c, 0, 95, 0
3, 90900, Note_on_c, 0, 79, 0
3, 90900, Note_on_c, 0, 93, 52
3, 90900, Note_on_c, 0, 96, 52
3, 90900, Note_on_c, 0, 81, 53
3, 90900, Note_on_c, 0, 84, 53
3, 91080, Note_on_c, 0, 84, 0
3, 91080, Note_on_c, 0, 93, 0
3, 91080, Note_on_c, 0, 96, 0
3, 91080, Note_on_c, 0, 81, 0
3, 91080, Note_on_c, 0, 95, 56
3, 91080, Note_on_c, 0, 98, 56
3, 91080, Note_on_c, 0, 83, 57
3, 91080, Note_on_c, 0, 86, 57
3, 91260, Note_on_c, 0, 86, 0
3, 91260, Note_on_c, 0, 95, 0
3, 91260, Note_on_c, 0, 98, 0
3, 91260, Note_on_c, 0, 83, 0
3, 91260, Note_on_c, 0, 96, 52
3, 91260, Note_on_c, 0, 100, 52
3, 91260, Note_on_c, 0, 84, 54
3, 91260, Note_on_c, 0, 88, 54
3, 91440, Note_on_c, 0, 88, 0
3, 91440, Note_on_c, 0, 96, 0
3, 91440, Note_on_c, 0, 100, 0
3, 91440, Note_on_c, 0, 84, 0
3, 91440, Note_on_c, 0, 95, 46
3, 91440, Note_on_c, 0, 98, 46
3, 91440, Note_on_c, 0, 83, 49
3, 91440, Note_on_c, 0, 86, 49
3, 91620, Note_on_c, 0, 86, 0
3, 91620, Note_on_c, 0, 95, 0
3, 91620, Note_on_c, 0, 98, 0
3, 91620, Note_on_c, 0, 83, 0
3, 91620, Note_on_c, 0, 93, 46
3, 91620, Note_on_c, 0, 96, 46
3, 91620, Note_on_c, 0, 81, 46
3, 91620, Note_on_c, 0, 84, 46
3, 91800, Note_on_c, 0, 84, 0
3, 91800, Note_on_c, 0, 93, 0
3, 91800, Note_on_c, 0, 96, 0
3, 91800, Note_on_c, 0, 81, 0
3, 91800, Note_on_c, 0, 91, 47
3, 91800, Note_on_c, 0, 95, 47
3, 91800, Note_on_c, 0, 79, 48
3, 91800, Note_on_c, 0, 83, 48
3, 92160, Note_on_c, 0, 83, 0
3, 92160, Note_on_c, 0, 91, 0
3, 92160, Note_on_c, 0, 95, 0
3, 92160, Note_on_c, 0, 79, 0
3, 92160, Note_on_c, 0, 90, 49
3, 92160, Note_on_c, 0, 93, 49
3, 92160, Note_on_c, 0, 78, 50
3, 92160, Note_on_c, 0, 81, 50
3, 92520, Note_on_c, 0, 81, 0
3, 92520, Note_on_c, 0, 90, 0
3, 92520, Note_on_c, 0, 93, 0
3, 92520, Note_on_c, 0, 78, 0
3, 92520, Note_on_c, 0, 88, 48
3, 92520, Note_on_c, 0, 91, 48
3, 92520, Note_on_c, 0, 67, 43
3, 92520, Note_on_c, 0, 76, 43
3, 92520, Note_on_c, 0, 79, 43
3, 92700, Note_on_c, 0, 79, 0
3, 92700, Note_on_c, 0, 67, 0
3, 92700, Note_on_c, 0, 88, 0
3, 92700, Note_on_c, 0, 91, 0
3, 92700, Note_on_c, 0, 76, 0
3, 92700, Note_on_c, 0, 90, 53
3, 92700, Note_on_c, 0, 93, 53
3, 92700, Note_on_c, 0, 78, 52
3, 92700, Note_on_c, 0, 81, 52
3, 92880, Note_on_c, 0, 81, 0
3, 92880, Note_on_c, 0, 90, 0
3, 92880, Note_on_c, 0, 93, 0
3, 92880, Note_on_c, 0, 78, 0
3, 92880, Note_on_c, 0, 91, 53
3, 92880, Note_on_c, 0, 95, 53
3, 92880, Note_on_c, 0, 79, 57
3, 92880, Note_on_c, 0, 83, 57
3, 93600, Note_on_c, 0, 83, 0
3, 93600, Note_on_c, 0, 91, 0
3, 93600, Note_on_c, 0, 95, 0
3, 93600, Note_on_c, 0, 79, 0
3, 93600, Note_on_c, 0, 91, 49
3, 93600, Note_on_c, 0, 95, 49
3, 93600, Note_on_c, 0, 79, 51
3, 93600, Note_on_c, 0, 83, 51
3, 93780, Note_on_c, 0, 83, 0
3, 93780, Note_on_c, 0, 91, 0
3, 93780, Note_on_c, 0, 95, 0
3, 93780, Note_on_c, 0, 79, 0
3, 93780, Note_on_c, 0, 93, 54
3, 93780, Note_on_c, 0, 96, 54
3, 93780, Note_on_c, 0, 81, 54
3, 93780, Note_on_c, 0, 84, 54
3, 93960, Note_on_c, 0, 84, 0
3, 93960, Note_on_c, 0, 93, 0
3, 93960, Note_on_c, 0, 96, 0
3, 93960, Note_on_c, 0, 81, 0
3, 93960, Note_on_c, 0, 95, 50
3, 93960, Note_on_c, 0, 98, 50
3, 93960, Note_on_c, 0, 83, 56
3, 93960, Note_on_c, 0, 86, 56
3, 94140, Note_on_c, 0, 86, 0
3, 94140, Note_on_c, 0, 95, 0
3, 94140, Note_on_c, 0, 98, 0
3, 94140, Note_on_c, 0, 83, 0
3, 94140, Note_on_c, 0, 96, 52
3, 94140, Note_on_c, 0, 100, 52
3, 94140, Note_on_c, 0, 84, 55
3, 94140, Note_on_c, 0, 88, 55
3, 94320, Note_on_c, 0, 88, 0
3, 94320, Note_on_c, 0, 96, 0
3, 94320, Note_on_c, 0, 100, 0
3, 94320, Note_on_c, 0, 84, 0
3, 94320, Note_on_c, 0, 95, 51
3, 94320, Note_on_c, 0, 98, 51
3, 94320, Note_on_c, 0, 83, 53
3, 94320, Note_on_c, 0, 86, 53
3, 94500, Note_on_c, 0, 86, 0
3, 94500, Note_on_c, 0, 95, 0
3, 94500, Note_on_c, 0, 98, 0
3, 94500, Note_on_c, 0, 83, 0
3, 94500, Note_on_c, 0, 93, 44
3, 94500, Note_on_c, 0, 96, 44
3, 94500, Note_on_c, 0, 81, 51
3, 94500, Note_on_c, 0, 84, 51
3, 94680, Note_on_c, 0, 84, 0
3, 94680, Note_on_c, 0, 93, 0
3, 94680, Note_on_c, 0, 96, 0
3, 94680, Note_on_c, 0, 81, 0
3, 94680, Note_on_c, 0, 91, 47
3, 94680, Note_on_c, 0, 95, 47
3, 94680, Note_on_c, 0, 79, 50
3, 94680, Note_on_c, 0, 83, 50
3, 95040, Note_on_c, 0, 83, 0
3, 95040, Note_on_c, 0, 91, 0
3, 95040, Note_on_c, 0, 95, 0
3, 95040, Note_on_c, 0, 79, 0
3, 95040, Note_on_c, 0, 90, 52
3, 95040, Note_on_c, 0, 93, 52
3, 95040, Note_on_c, 0, 78, 51
3, 95040, Note_on_c, 0, 81, 51
3, 95400, Note_on_c, 0, 81, 0
3, 95400, Note_on_c, 0, 90, 0
3, 95400, Note_on_c, 0, 93, 0
3, 95400, Note_on_c, 0, 78, 0
3, 95400, Note_on_c, 0, 79, 44
3, 95400, Note_on_c, 0, 88, 44
3, 95400, Note_on_c, 0, 64, 42
3, 95400, Note_on_c, 0, 71, 42
3, 95400, Note_on_c, 0, 76, 42
3, 96480, Note_on_c, 0, 76, 0
3, 96480, Note_on_c, 0, 64, 0
3, 96480, Note_on_c, 0, 79, 0
3, 96480, Note_on_c, 0, 88, 0
3, 96480, Note_on_c, 0, 71, 0
3, 96480, Note_on_c, 0, 91, 57
3, 96480, Note_on_c, 0, 95, 57
3, 96480, Note_on_c, 0, 79, 60
3, 96480, Note_on_c, 0, 83, 60
3, 96660, Note_on_c, 0, 83, 0
3, 96660, Note_on_c, 0, 91, 0
3, 96660, Note_on_c, 0, 95, 0
3, 96660, Note_on_c, 0, 79, 0
3, 96660, Note_on_c, 0, 93, 56
3, 96660, Note_on_c, 0, 96, 56
3, 96660, Note_on_c, 0, 81, 50
3, 96660, Note_on_c, 0, 84, 50
3, 96840, Note_on_c, 0, 84, 0
3, 96840, Note_on_c, 0, 93, 0
3, 96840, Note_on_c, 0, 96, 0
3, 96840, Note_on_c, 0, 81, 0
3, 96840, Note_on_c, 0, 95, 52
3, 96840, Note_on_c, 0, 98, 52
3, 96840, Note_on_c, 0, 83, 57
3, 96840, Note_on_c, 0, 86, 57
3, 97020, Note_on_c, 0, 86, 0
3, 97020, Note_on_c, 0, 95, 0
3, 97020, Note_on_c, 0, 98, 0
3, 97020, Note_on_c, 0, 83, 0
3, 97020, Note_on_c, 0, 96, 54
3, 97020, Note_on_c, 0, 100, 54
3, 97020, Note_on_c, 0, 84, 52
3, 97020, Note_on_c, 0, 88, 52
3, 97200, Note_on_c, 0, 88, 0
3, 97200, Note_on_c, 0, 96, 0
3, 97200, Note_on_c, 0, 100, 0
3, 97200, Note_on_c, 0, 84, 0
3, 97200, Note_on_c, 0, 95, 48
3, 97200, Note_on_c, 0, 98, 48
3, 97200, Note_on_c, 0, 83, 51
3, 97200, Note_on_c, 0, 86, 51
3, 97380, Note_on_c, 0, 86, 0
3, 97380, Note_on_c, 0, 95, 0
3, 97380, Note_on_c, 0, 98, 0
3, 97380, Note_on_c, 0, 83, 0
3, 97380, Note_on_c, 0, 93, 47
3, 97380, Note_on_c, 0, 96, 47
3, 97380, Note_on_c, 0, 81, 44
3, 97380, Note_on_c, 0, 84, 44
3, 97560, Note_on_c, 0, 84, 0
3, 97560, Note_on_c, 0, 93, 0
3, 97560, Note_on_c, 0, 96, 0
3, 97560, Note_on_c, 0, 81, 0
3, 97560, Note_on_c, 0, 91, 49
3, 97560, Note_on_c, 0, 95, 49
3, 97560, Note_on_c, 0, 79, 47
3, 97560, Note_on_c, 0, 83, 47
3, 97740, Note_on_c, 0, 83, 0
3, 97740, Note_on_c, 0, 91, 0
3, 97740, Note_on_c, 0, 95, 0
3, 97740, Note_on_c, 0, 79, 0
3, 97740, Note_on_c, 0, 93, 53
3, 97740, Note_on_c, 0, 96, 53
3, 97740, Note_on_c, 0, 81, 58
3, 97740, Note_on_c, 0, 84, 58
3, 97920, Note_on_c, 0, 84, 0
3, 97920, Note_on_c, 0, 93, 0
3, 97920, Note_on_c, 0, 96, 0
3, 97920, Note_on_c, 0, 81, 0
3, 97920, Note_on_c, 0, 91, 52
3, 97920, Note_on_c, 0, 95, 52
3, 97920, Note_on_c, 0, 79, 47
3, 97920, Note_on_c, 0, 83, 47
3, 98100, Note_on_c, 0, 83, 0
3, 98100, Note_on_c, 0, 91, 0
3, 98100, Note_on_c, 0, 95, 0
3, 98100, Note_on_c, 0, 79, 0
3, 98100, Note_on_c, 0, 90, 45
3, 98100, Note_on_c, 0, 93, 45
3, 98100, Note_on_c, 0, 78, 50
3, 98100, Note_on_c, 0, 81, 50
3, 98280, Note_on_c, 0, 81, 0
3, 98280, Note_on_c, 0, 90, 0
3, 98280, Note_on_c, 0, 93, 0
3, 98280, Note_on_c, 0, 78, 0
3, 98280, Note_on_c, 0, 83, 45
3, 98280, Note_on_c, 0, 91, 45
3, 98280, Note_on_c, 0, 67, 48
3, 98280, Note_on_c, 0, 76, 48
3, 98280, Note_on_c, 0, 79, 48
3, 98460, Note_on_c, 0, 79, 0
3, 98460, Note_on_c, 0, 67, 0
3, 98460, Note_on_c, 0, 83, 0
3, 98460, Note_on_c, 0, 91, 0
3, 98460, Note_on_c, 0, 76, 0
3, 98460, Note_on_c, 0, 90, 49
3, 98460, Note_on_c, 0, 93, 49
3, 98460, Note_on_c, 0, 78, 54
3, 98460, Note_on_c, 0, 81, 54
3, 98640, Note_on_c, 0, 81, 0
3, 98640, Note_on_c, 0, 90, 0
3, 98640, Note_on_c, 0, 93, 0
3, 98640, Note_on_c, 0, 78, 0
3, 98640, Note_on_c, 0, 91, 55
3, 98640, Note_on_c, 0, 95, 55
3, 98640, Note_on_c, 0, 79, 55
3, 98640, Note_on_c, 0, 83, 55
3, 99360, Note_on_c, 0, 83, 0
3, 99360, Note_on_c, 0, 91, 0
3, 99360, Note_on_c, 0, 95, 0
3, 99360, Note_on_c, 0, 79, 0
3, 99360, Note_on_c, 0, 91, 51
3, 99360, Note_on_c, 0, 95, 51
3, 99360, Note_on_c, 0, 79, 54
3, 99360, Note_on_c, 0, 83, 54
3, 99540, Note_on_c, 0, 83, 0
3, 99540, Note_on_c, 0, 91, 0
3, 99540, Note_on_c, 0, 95, 0
3, 99540, Note_on_c, 0, 79, 0
3, 99540, Note_on_c, 0, 93, 56
3, 99540, Note_on_c, 0, 96, 56
3, 99540, Note_on_c, 0, 81, 52
3, 99540, Note_on_c, 0, 84, 52
3, 99720, Note_on_c, 0, 84, 0
3, 99720, Note_on_c, 0, 93, 0
3, 99720, Note_on_c, 0, 96, 0
3, 99720, Note_on_c, 0, 81, 0
3, 99720, Note_on_c, 0, 95, 58
3, 99720, Note_on_c, 0, 98, 58
3, 99720, Note_on_c, 0, 83, 53
3, 99720, Note_on_c, 0, 86, 53
3, 99900, Note_on_c, 0, 86, 0
3, 99900, Note_on_c, 0, 95, 0
3, 99900, Note_on_c, 0, 98, 0
3, 99900, Note_on_c, 0, 83, 0
3, 99900, Note_on_c, 0, 96, 56
3, 99900, Note_on_c, 0, 100, 56
3, 99900, Note_on_c, 0, 84, 53
3, 99900, Note_on_c, 0, 88, 53
3, 100080, Note_on_c, 0, 88, 0
3, 100080, Note_on_c, 0, 96, 0
3, 100080, Note_on_c, 0, 100, 0
3, 100080, Note_on_c, 0, 84, 0
3, 100080, Note_on_c, 0, 95, 52
3, 100080, Note_on_c, 0, 98, 52
3, 100080, Note_on_c, 0, 83, 50
3, 100080, Note_on_c, 0, 86, 50
3, 100260, Note_on_c, 0, 86, 0
3, 100260, Note_on_c, 0, 95, 0
3, 100260, Note_on_c, 0, 98, 0
3, 100260, Note_on_c, 0, 83, 0
3, 100260, Note_on_c, 0, 93, 49
3, 100260, Note_on_c, 0, 96, 49
3, 100260, Note_on_c, 0, 81, 48
3, 100260, Note_on_c, 0, 84, 48
3, 100440, Note_on_c, 0, 84, 0
3, 100440, Note_on_c, 0, 93, 0
3, 100440, Note_on_c, 0, 96, 0
3, 100440, Note_on_c, 0, 81, 0
3, 100440, Note_on_c, 0, 91, 46
3, 100440, Note_on_c, 0, 95, 46
3, 100440, Note_on_c, 0, 79, 51
3, 100440, Note_on_c, 0, 83, 51
3, 100800, Note_on_c, 0, 83, 0
3, 100800, Note_on_c, 0, 91, 0
3, 100800, Note_on_c, 0, 95, 0
3, 100800, Note_on_c, 0, 79, 0
3, 100800, Note_on_c, 0, 90, 50
3, 100800, Note_on_c, 0, 93, 50
3, 100800, Note_on_c, 0, 78, 47
3, 100800, Note_on_c, 0, 81, 47
3, 101160, Note_on_c, 0, 81, 0
3, 101160, Note_on_c, 0, 90, 0
3, 101160, Note_on_c, 0, 93, 0
3, 101160, Note_on_c, 0, 78, 0
3, 101160, Note_on_c, 0, 79, 59
3, 101160, Note_on_c, 0, 88, 59
3, 101160, Note_on_c, 0, 64, 42
3, 101160, Note_on_c, 0, 71, 42
3, 101160, Note_on_c, 0, 76, 42
3, 102060, Note_on_c, 0, 76, 0
3, 102060, Note_on_c, 0, 64, 0
3, 102060, Note_on_c, 0, 79, 0
3, 102060, Note_on_c, 0, 88, 0
3, 102060, Note_on_c, 0, 71, 0
3, 102240, Note_on_c, 0, 71, 53
3, 102240, Note_on_c, 0, 74, 53
3, 102240, Note_on_c, 0, 64, 59
3, 102240, Note_on_c, 0, 67, 59
3, 102420, Note_on_c, 0, 74, 0
3, 102420, Note_on_c, 0, 71, 0
3, 102420, Note_on_c, 0, 73, 67
3, 102420, Note_on_c, 0, 76, 67
3, 102600, Note_on_c, 0, 76, 0
3, 102600, Note_on_c, 0, 67, 0
3, 102600, Note_on_c, 0, 64, 0
3, 102600, Note_on_c, 0, 73, 0
3, 102600, Note_on_c, 0, 74, 66
3, 102600, Note_on_c, 0, 78, 66
3, 102600, Note_on_c, 0, 62, 60
3, 102600, Note_on_c, 0, 66, 60
3, 102780, Note_on_c, 0, 66, 0
3, 102780, Note_on_c, 0, 74, 0
3, 102780, Note_on_c, 0, 78, 0
3, 102780, Note_on_c, 0, 62, 0
3, 102780, Note_on_c, 0, 74, 64
3, 102780, Note_on_c, 0, 78, 64
3, 102780, Note_on_c, 0, 54, 51
3, 102870, Note_on_c, 0, 78, 0
3, 102870, Note_on_c, 0, 74, 0
3, 102870, Note_on_c, 0, 76, 64
3, 102870, Note_on_c, 0, 79, 64
3, 102960, Note_on_c, 0, 79, 0
3, 102960, Note_on_c, 0, 76, 0
3, 102960, Note_on_c, 0, 54, 0
3, 102960, Note_on_c, 0, 74, 54
3, 102960, Note_on_c, 0, 78, 54
3, 102960, Note_on_c, 0, 54, 57
3, 103140, Note_on_c, 0, 54, 0
3, 103140, Note_on_c, 0, 78, 0
3, 103140, Note_on_c, 0, 74, 0
3, 103140, Note_on_c, 0, 73, 57
3, 103140, Note_on_c, 0, 76, 57
3, 103140, Note_on_c, 0, 47, 53
3, 103320, Note_on_c, 0, 47, 0
3, 103320, Note_on_c, 0, 76, 0
3, 103320, Note_on_c, 0, 73, 0
3, 103320, Note_on_c, 0, 71, 58
3, 103320, Note_on_c, 0, 74, 58
3, 103320, Note_on_c, 0, 62, 81
3, 103320, Note_on_c, 0, 65, 81
3, 103500, Note_on_c, 0, 65, 0
3, 103500, Note_on_c, 0, 71, 0
3, 103500, Note_on_c, 0, 74, 0
3, 103500, Note_on_c, 0, 62, 0
3, 103500, Note_on_c, 0, 73, 65
3, 103500, Note_on_c, 0, 76, 65
3, 103500, Note_on_c, 0, 55, 57
3, 103680, Note_on_c, 0, 55, 0
3, 103680, Note_on_c, 0, 76, 0
3, 103680, Note_on_c, 0, 73, 0
3, 103680, Note_on_c, 0, 71, 59
3, 103680, Note_on_c, 0, 74, 59
3, 103680, Note_on_c, 0, 55, 63
3, 103860, Note_on_c, 0, 55, 0
3, 103860, Note_on_c, 0, 74, 0
3, 103860, Note_on_c, 0, 71, 0
3, 103860, Note_on_c, 0, 70, 59
3, 103860, Note_on_c, 0, 73, 59
3, 103860, Note_on_c, 0, 47, 54
3, 104040, Note_on_c, 0, 47, 0
3, 104040, Note_on_c, 0, 73, 0
3, 104040, Note_on_c, 0, 70, 0
3, 104040, Note_on_c, 0, 71, 59
3, 104040, Note_on_c, 0, 62, 78
3, 104040, Note_on_c, 0, 66, 78
3, 104220, Note_on_c, 0, 66, 0
3, 104220, Note_on_c, 0, 62, 0
3, 104220, Note_on_c, 0, 71, 0
3, 104220, Note_on_c, 0, 70, 62
3, 104220, Note_on_c, 0, 73, 62
3, 104220, Note_on_c, 0, 56, 56
3, 104400, Note_on_c, 0, 56, 0
3, 104400, Note_on_c, 0, 73, 0
3, 104400, Note_on_c, 0, 70, 0
3, 104400, Note_on_c, 0, 71, 62
3, 104400, Note_on_c, 0, 74, 62
3, 104400, Note_on_c, 0, 56, 61
3, 104580, Note_on_c, 0, 56, 0
3, 104580, Note_on_c, 0, 47, 52
3, 104760, Note_on_c, 0, 47, 0
3, 104760, Note_on_c, 0, 62, 82
3, 104760, Note_on_c, 0, 65, 82
3, 104940, Note_on_c, 0, 65, 0
3, 104940, Note_on_c, 0, 62, 0
3, 104940, Note_on_c, 0, 55, 57
3, 105120, Note_on_c, 0, 55, 0
3, 105120, Note_on_c, 0, 74, 0
3, 105120, Note_on_c, 0, 71, 0
3, 105120, Note_on_c, 0, 71, 64
3, 105120, Note_on_c, 0, 74, 64
3, 105120, Note_on_c, 0, 55, 65
3, 105300, Note_on_c, 0, 55, 0
3, 105300, Note_on_c, 0, 74, 0
3, 105300, Note_on_c, 0, 71, 0
3, 105300, Note_on_c, 0, 73, 66
3, 105300, Note_on_c, 0, 76, 66
3, 105300, Note_on_c, 0, 47, 53
3, 105480, Note_on_c, 0, 47, 0
3, 105480, Note_on_c, 0, 76, 0
3, 105480, Note_on_c, 0, 73, 0
3, 105480, Note_on_c, 0, 74, 68
3, 105480, Note_on_c, 0, 78, 68
3, 105480, Note_on_c, 0, 62, 65
3, 105480, Note_on_c, 0, 66, 65
3, 105570, Note_on_c, 0, 78, 0
3, 105570, Note_on_c, 0, 74, 0
3, 105570, Note_on_c, 0, 76, 70
3, 105570, Note_on_c, 0, 79, 70
3, 105660, Note_on_c, 0, 79, 0
3, 105660, Note_on_c, 0, 66, 0
3, 105660, Note_on_c, 0, 62, 0
3, 105660, Note_on_c, 0, 76, 0
3, 105660, Note_on_c, 0, 74, 59
3, 105660, Note_on_c, 0, 78, 59
3, 105660, Note_on_c, 0, 54, 56
3, 105750, Note_on_c, 0, 78, 0
3, 105750, Note_on_c, 0, 74, 0
3, 105750, Note_on_c, 0, 76, 69
3, 105750, Note_on_c, 0, 79, 69
3, 105840, Note_on_c, 0, 79, 0
3, 105840, Note_on_c, 0, 76, 0
3, 105840, Note_on_c, 0, 54, 0
3, 105840, Note_on_c, 0, 74, 60
3, 105840, Note_on_c, 0, 78, 60
3, 105840, Note_on_c, 0, 54, 60
3, 106020, Note_on_c, 0, 54, 0
3, 106020, Note_on_c, 0, 78, 0
3, 106020, Note_on_c, 0, 74, 0
3, 106020, Note_on_c, 0, 73, 52
3, 106020, Note_on_c, 0, 76, 52
3, 106020, Note_on_c, 0, 47, 57
3, 106200, Note_on_c, 0, 47, 0
3, 106200, Note_on_c, 0, 76, 0
3, 106200, Note_on_c, 0, 73, 0
3, 106200, Note_on_c, 0, 71, 58
3, 106200, Note_on_c, 0, 74, 58
3, 106200, Note_on_c, 0, 62, 75
3, 106200, Note_on_c, 0, 65, 75
3, 106380, Note_on_c, 0, 65, 0
3, 106380, Note_on_c, 0, 71, 0
3, 106380, Note_on_c, 0, 74, 0
3, 106380, Note_on_c, 0, 62, 0
3, 106380, Note_on_c, 0, 71, 59
3, 106380, Note_on_c, 0, 74, 59
3, 106380, Note_on_c, 0, 55, 56
3, 106470, Note_on_c, 0, 74, 0
3, 106470, Note_on_c, 0, 71, 0
3, 106470, Note_on_c, 0, 73, 64
3, 106470, Note_on_c, 0, 76, 64
3, 106560, Note_on_c, 0, 76, 0
3, 106560, Note_on_c, 0, 73, 0
3, 106560, Note_on_c, 0, 55, 0
3, 106560, Note_on_c, 0, 71, 55
3, 106560, Note_on_c, 0, 74, 55
3, 106560, Note_on_c, 0, 55, 58
3, 106740, Note_on_c, 0, 55, 0
3, 106740, Note_on_c, 0, 74, 0
3, 106740, Note_on_c, 0, 71, 0
3, 106740, Note_on_c, 0, 70, 60
3, 106740, Note_on_c, 0, 73, 60
3, 106740, Note_on_c, 0, 47, 57
3, 106920, Note_on_c, 0, 73, 0
3, 106920, Note_on_c, 0, 70, 0
3, 106920, Note_on_c, 0, 71, 56
3, 106920, Note_on_c, 0, 56, 64
3, 107010, Note_on_c, 0, 71, 0
3, 107010, Note_on_c, 0, 62, 47
3, 107100, Note_on_c, 0, 62, 0
3, 107100, Note_on_c, 0, 66, 62
3, 107190, Note_on_c, 0, 66, 0
3, 107190, Note_on_c, 0, 71, 71
3, 107280, Note_on_c, 0, 71, 0
3, 107280, Note_on_c, 0, 56, 0
3, 107280, Note_on_c, 0, 64, 56
3, 107280, Note_on_c, 0, 55, 62
3, 107331, Note_on_c, 0, 64, 0
3, 107331, Note_on_c, 0, 67, 63
3, 107383, Note_on_c, 0, 67, 0
3, 107383, Note_on_c, 0, 71, 63
3, 107433, Note_on_c, 0, 71, 0
3, 107433, Note_on_c, 0, 73, 60
3, 107486, Note_on_c, 0, 73, 0
3, 107486, Note_on_c, 0, 76, 67
3, 107536, Note_on_c, 0, 76, 0
3, 107536, Note_on_c, 0, 78, 67
3, 107588, Note_on_c, 0, 78, 0
3, 107588, Note_on_c, 0, 79, 63
3, 107640, Note_on_c, 0, 79, 0
3, 107640, Note_on_c, 0, 55, 0
3, 107640, Note_on_c, 0, 47, 0
3, 107640, Note_on_c, 0, 83, 70
3, 107640, Note_on_c, 0, 47, 75
3, 107640, Note_on_c, 0, 54, 75
3, 107640, Note_on_c, 0, 62, 75
3, 107820, Note_on_c, 0, 62, 0
3, 107820, Note_on_c, 0, 83, 0
3, 107820, Note_on_c, 0, 47, 0
3, 107820, Note_on_c, 0, 54, 0
3, 108000, Note_on_c, 0, 71, 59
3, 108000, Note_on_c, 0, 74, 59
3, 108180, Note_on_c, 0, 74, 0
3, 108180, Note_on_c, 0, 71, 0
3, 108180, Note_on_c, 0, 73, 69
3, 108180, Note_on_c, 0, 76, 69
3, 108360, Note_on_c, 0, 76, 0
3, 108360, Note_on_c, 0, 73, 0
3, 108360, Note_on_c, 0, 74, 67
3, 108360, Note_on_c, 0, 78, 67
3, 108360, Note_on_c, 0, 62, 58
3, 108360, Note_on_c, 0, 66, 58
3, 108540, Note_on_c, 0, 66, 0
3, 108540, Note_on_c, 0, 74, 0
3, 108540, Note_on_c, 0, 78, 0
3, 108540, Note_on_c, 0, 62, 0
3, 108540, Note_on_c, 0, 74, 61
3, 108540, Note_on_c, 0, 78, 61
3, 108540, Note_on_c, 0, 54, 50
3, 108630, Note_on_c, 0, 78, 0
3, 108630, Note_on_c, 0, 74, 0
3, 108630, Note_on_c, 0, 76, 61
3, 108630, Note_on_c, 0, 79, 61
3, 108720, Note_on_c, 0, 79, 0
3, 108720, Note_on_c, 0, 76, 0
3, 108720, Note_on_c, 0, 54, 0
3, 108720, Note_on_c, 0, 74, 61
3, 108720, Note_on_c, 0, 78, 61
3, 108720, Note_on_c, 0, 54, 58
3, 108900, Note_on_c, 0, 54, 0
3, 108900, Note_on_c, 0, 78, 0
3, 108900, Note_on_c, 0, 74, 0
3, 108900, Note_on_c, 0, 73, 56
3, 108900, Note_on_c, 0, 76, 56
3, 108900, Note_on_c, 0, 47, 57
3, 109080, Note_on_c, 0, 47, 0
3, 109080, Note_on_c, 0, 76, 0
3, 109080, Note_on_c, 0, 73, 0
3, 109080, Note_on_c, 0, 71, 57
3, 109080, Note_on_c, 0, 74, 57
3, 109080, Note_on_c, 0, 62, 77
3, 109080, Note_on_c, 0, 65, 77
3, 109170, Note_on_c, 0, 74, 0
3, 109170, Note_on_c, 0, 71, 0
3, 109170, Note_on_c, 0, 73, 63
3, 109170, Note_on_c, 0, 76, 63
3, 109260, Note_on_c, 0, 76, 0
3, 109260, Note_on_c, 0, 65, 0
3, 109260, Note_on_c, 0, 62, 0
3, 109260, Note_on_c, 0, 73, 0
3, 109260, Note_on_c, 0, 71, 59
3, 109260, Note_on_c, 0, 74, 59
3, 109260, Note_on_c, 0, 55, 55
3, 109350, Note_on_c, 0, 74, 0
3, 109350, Note_on_c, 0, 71, 0
3, 109350, Note_on_c, 0, 73, 70
3, 109350, Note_on_c, 0, 76, 70
3, 109440, Note_on_c, 0, 76, 0
3, 109440, Note_on_c, 0, 73, 0
3, 109440, Note_on_c, 0, 55, 0
3, 109440, Note_on_c, 0, 71, 60
3, 109440, Note_on_c, 0, 74, 60
3, 109440, Note_on_c, 0, 55, 60
3, 109620, Note_on_c, 0, 55, 0
3, 109620, Note_on_c, 0, 74, 0
3, 109620, Note_on_c, 0, 71, 0
3, 109620, Note_on_c, 0, 70, 60
3, 109620, Note_on_c, 0, 73, 60
3, 109620, Note_on_c, 0, 47, 51
3, 109800, Note_on_c, 0, 47, 0
3, 109800, Note_on_c, 0, 73, 0
3, 109800, Note_on_c, 0, 70, 0
3, 109800, Note_on_c, 0, 71, 54
3, 109800, Note_on_c, 0, 62, 76
3, 109800, Note_on_c, 0, 66, 76
3, 109980, Note_on_c, 0, 66, 0
3, 109980, Note_on_c, 0, 62, 0
3, 109980, Note_on_c, 0, 71, 0
3, 109980, Note_on_c, 0, 71, 61
3, 109980, Note_on_c, 0, 56, 54
3, 110070, Note_on_c, 0, 71, 0
3, 110070, Note_on_c, 0, 70, 68
3, 110070, Note_on_c, 0, 73, 68
3, 110160, Note_on_c, 0, 73, 0
3, 110160, Note_on_c, 0, 70, 0
3, 110160, Note_on_c, 0, 56, 0
3, 110160, Note_on_c, 0, 71, 63
3, 110160, Note_on_c, 0, 74, 63
3, 110160, Note_on_c, 0, 56, 58
3, 110340, Note_on_c, 0, 56, 0
3, 110340, Note_on_c, 0, 47, 49
3, 110520, Note_on_c, 0, 47, 0
3, 110520, Note_on_c, 0, 62, 77
3, 110520, Note_on_c, 0, 65, 77
3, 110700, Note_on_c, 0, 65, 0
3, 110700, Note_on_c, 0, 62, 0
3, 110700, Note_on_c, 0, 55, 57
3, 110880, Note_on_c, 0, 55, 0
3, 110880, Note_on_c, 0, 74, 0
3, 110880, Note_on_c, 0, 71, 0
3, 110880, Note_on_c, 0, 71, 62
3, 110880, Note_on_c, 0, 74, 62
3, 110880, Note_on_c, 0, 55, 63
3, 111060, Note_on_c, 0, 55, 0
3, 111060, Note_on_c, 0, 74, 0
3, 111060, Note_on_c, 0, 71, 0
3, 111060, Note_on_c, 0, 73, 63
3, 111060, Note_on_c, 0, 76, 63
3, 111060, Note_on_c, 0, 47, 52
3, 111240, Note_on_c, 0, 47, 0
3, 111240, Note_on_c, 0, 76, 0
3, 111240, Note_on_c, 0, 73, 0
3, 111240, Note_on_c, 0, 74, 65
3, 111240, Note_on_c, 0, 78, 65
3, 111240, Note_on_c, 0, 62, 82
3, 111240, Note_on_c, 0, 66, 82
3, 111330, Note_on_c, 0, 78, 0
3, 111330, Note_on_c, 0, 74, 0
3, 111330, Note_on_c, 0, 76, 66
3, 111330, Note_on_c, 0, 79, 66
3, 111420, Note_on_c, 0, 79, 0
3, 111420, Note_on_c, 0, 66, 0
3, 111420, Note_on_c, 0, 62, 0
3, 111420, Note_on_c, 0, 76, 0
3, 111420, Note_on_c, 0, 74, 62
3, 111420, Note_on_c, 0, 78, 62
3, 111420, Note_on_c, 0, 54, 57
3, 111510, Note_on_c, 0, 78, 0
3, 111510, Note_on_c, 0, 74, 0
3, 111510, Note_on_c, 0, 76, 65
3, 111510, Note_on_c, 0, 79, 65
3, 111600, Note_on_c, 0, 79, 0
3, 111600, Note_on_c, 0, 76, 0
3, 111600, Note_on_c, 0, 54, 0
3, 111600, Note_on_c, 0, 74, 55
3, 111600, Note_on_c, 0, 78, 55
3, 111600, Note_on_c, 0, 54, 60
3, 111780, Note_on_c, 0, 54, 0
3, 111780, Note_on_c, 0, 78, 0
3, 111780, Note_on_c, 0, 74, 0
3, 111780, Note_on_c, 0, 76, 67
3, 111780, Note_on_c, 0, 79, 67
3, 111780, Note_on_c, 0, 83, 67
3, 111780, Note_on_c, 0, 47, 54
3, 111960, Note_on_c, 0, 47, 0
3, 111960, Note_on_c, 0, 76, 0
3, 111960, Note_on_c, 0, 79, 0
3, 111960, Note_on_c, 0, 83, 0
3, 111960, Note_on_c, 0, 78, 58
3, 111960, Note_on_c, 0, 81, 58
3, 111960, Note_on_c, 0, 64, 81
3, 111960, Note_on_c, 0, 66, 81
3, 112050, Note_on_c, 0, 81, 0
3, 112050, Note_on_c, 0, 78, 0
3, 112050, Note_on_c, 0, 76, 57
3, 112050, Note_on_c, 0, 79, 57
3, 112140, Note_on_c, 0, 79, 0
3, 112140, Note_on_c, 0, 66, 0
3, 112140, Note_on_c, 0, 64, 0
3, 112140, Note_on_c, 0, 76, 0
3, 112140, Note_on_c, 0, 74, 60
3, 112140, Note_on_c, 0, 78, 60
3, 112140, Note_on_c, 0, 54, 55
3, 112230, Note_on_c, 0, 78, 0
3, 112230, Note_on_c, 0, 74, 0
3, 112230, Note_on_c, 0, 73, 60
3, 112230, Note_on_c, 0, 76, 60
3, 112320, Note_on_c, 0, 76, 0
3, 112320, Note_on_c, 0, 73, 0
3, 112320, Note_on_c, 0, 54, 0
3, 112320, Note_on_c, 0, 71, 57
3, 112320, Note_on_c, 0, 74, 57
3, 112500, Note_on_c, 0, 74, 0
3, 112500, Note_on_c, 0, 71, 0
3, 112500, Note_on_c, 0, 73, 64
3, 112500, Note_on_c, 0, 76, 64
3, 112500, Note_on_c, 0, 55, 51
3, 112680, Note_on_c, 0, 55, 0
3, 112680, Note_on_c, 0, 76, 0
3, 112680, Note_on_c, 0, 73, 0
3, 112680, Note_on_c, 0, 71, 47
3, 112680, Note_on_c, 0, 47, 55
3, 112680, Note_on_c, 0, 54, 55
3, 112770, Note_on_c, 0, 71, 0
3, 112770, Note_on_c, 0, 62, 44
3, 112860, Note_on_c, 0, 62, 0
3, 112860, Note_on_c, 0, 54, 0
3, 112860, Note_on_c, 0, 47, 0
3, 112860, Note_on_c, 0, 66, 65
3, 112950, Note_on_c, 0, 66, 0
3, 112950, Note_on_c, 0, 71, 65
3, 113040, Note_on_c, 0, 71, 0
3, 113040, Note_on_c, 0, 64, 50
3, 113040, Note_on_c, 0, 59, 53
3, 113040, Note_on_c, 0, 61, 53
3, 113091, Note_on_c, 0, 64, 0
3, 113091, Note_on_c, 0, 67, 64
3, 113143, Note_on_c, 0, 67, 0
3, 113143, Note_on_c, 0, 71, 65
3, 113193, Note_on_c, 0, 71, 0
3, 113193, Note_on_c, 0, 73, 61
3, 113220, Note_on_c, 0, 61, 0
3, 113220, Note_on_c, 0, 59, 0
3, 113246, Note_on_c, 0, 73, 0
3, 113246, Note_on_c, 0, 76, 67
3, 113296, Note_on_c, 0, 76, 0
3, 113296, Note_on_c, 0, 78, 67
3, 113348, Note_on_c, 0, 78, 0
3, 113348, Note_on_c, 0, 79, 65
3, 113400, Note_on_c, 0, 79, 0
3, 113400, Note_on_c, 0, 83, 70
3, 113400, Note_on_c, 0, 59, 52
3, 113400, Note_on_c, 0, 62, 52
3, 113580, Note_on_c, 0, 62, 0
3, 113580, Note_on_c, 0, 59, 0
3, 113580, Note_on_c, 0, 83, 0
3, 114120, Note_on_c, 0, 81, 55
3, 114120, Note_on_c, 0, 93, 55
3, 114120, Note_on_c, 0, 69, 54
3, 114300, Note_on_c, 0, 69, 0
3, 114300, Note_on_c, 0, 93, 0
3, 114300, Note_on_c, 0, 81, 0
3, 114300, Note_on_c, 0, 76, 52
3, 114300, Note_on_c, 0, 88, 52
3, 114300, Note_on_c, 0, 64, 54
3, 114480, Note_on_c, 0, 64, 0
3, 114480, Note_on_c, 0, 88, 0
3, 114480, Note_on_c, 0, 76, 0
3, 114480, Note_on_c, 0, 78, 68
3, 114480, Note_on_c, 0, 90, 68
3, 114480, Note_on_c, 0, 66, 62
3, 114660, Note_on_c, 0, 66, 0
3, 114660, Note_on_c, 0, 90, 0
3, 114660, Note_on_c, 0, 78, 0
3, 114660, Note_on_c, 0, 80, 66
3, 114660, Note_on_c, 0, 92, 66
3, 114660, Note_on_c, 0, 68, 62
3, 114840, Note_on_c, 0, 68, 0
3, 114840, Note_on_c, 0, 92, 0
3, 114840, Note_on_c, 0, 80, 0
3, 114840, Note_on_c, 0, 81, 64
3, 114840, Note_on_c, 0, 93, 64
3, 114840, Note_on_c, 0, 69, 63
3, 115020, Note_on_c, 0, 69, 0
3, 115020, Note_on_c, 0, 93, 0
3, 115020, Note_on_c, 0, 81, 0
3, 115020, Note_on_c, 0, 80, 58
3, 115020, Note_on_c, 0, 92, 58
3, 115020, Note_on_c, 0, 68, 60
3, 115200, Note_on_c, 0, 68, 0
3, 115200, Note_on_c, 0, 92, 0
3, 115200, Note_on_c, 0, 80, 0
3, 115200, Note_on_c, 0, 81, 63
3, 115200, Note_on_c, 0, 93, 63
3, 115200, Note_on_c, 0, 69, 62
3, 115380, Note_on_c, 0, 69, 0
3, 115380, Note_on_c, 0, 93, 0
3, 115380, Note_on_c, 0, 81, 0
3, 115380, Note_on_c, 0, 82, 62
3, 115380, Note_on_c, 0, 94, 62
3, 115380, Note_on_c, 0, 70, 62
3, 115560, Note_on_c, 0, 70, 0
3, 115560, Note_on_c, 0, 94, 0
3, 115560, Note_on_c, 0, 82, 0
3, 115560, Note_on_c, 0, 85, 69
3, 115560, Note_on_c, 0, 97, 69
3, 115560, Note_on_c, 0, 73, 64
3, 115740, Note_on_c, 0, 73, 0
3, 115740, Note_on_c, 0, 97, 0
3, 115740, Note_on_c, 0, 85, 0
3, 115740, Note_on_c, 0, 83, 59
3, 115740, Note_on_c, 0, 95, 59
3, 115740, Note_on_c, 0, 71, 60
3, 115920, Note_on_c, 0, 71, 0
3, 115920, Note_on_c, 0, 95, 0
3, 115920, Note_on_c, 0, 83, 0
3, 115920, Note_on_c, 0, 82, 55
3, 115920, Note_on_c, 0, 94, 55
3, 115920, Note_on_c, 0, 70, 57
3, 116100, Note_on_c, 0, 70, 0
3, 116100, Note_on_c, 0, 94, 0
3, 116100, Note_on_c, 0, 82, 0
3, 116100, Note_on_c, 0, 85, 61
3, 116100, Note_on_c, 0, 97, 61
3, 116100, Note_on_c, 0, 73, 64
3, 116280, Note_on_c, 0, 73, 0
3, 116280, Note_on_c, 0, 97, 0
3, 116280, Note_on_c, 0, 85, 0
3, 116280, Note_on_c, 0, 83, 55
3, 116280, Note_on_c, 0, 95, 55
3, 116280, Note_on_c, 0, 71, 60
3, 116460, Note_on_c, 0, 71, 0
3, 116460, Note_on_c, 0, 95, 0
3, 116460, Note_on_c, 0, 83, 0
3, 116460, Note_on_c, 0, 86, 68
3, 116460, Note_on_c, 0, 98, 68
3, 116460, Note_on_c, 0, 74, 64
3, 116640, Note_on_c, 0, 74, 0
3, 116640, Note_on_c, 0, 98, 0
3, 116640, Note_on_c, 0, 86, 0
3, 116640, Note_on_c, 0, 85, 57
3, 116640, Note_on_c, 0, 97, 57
3, 116640, Note_on_c, 0, 73, 61
3, 116820, Note_on_c, 0, 73, 0
3, 116820, Note_on_c, 0, 97, 0
3, 116820, Note_on_c, 0, 85, 0
3, 116820, Note_on_c, 0, 83, 54
3, 116820, Note_on_c, 0, 95, 54
3, 116820, Note_on_c, 0, 71, 50
3, 117000, Note_on_c, 0, 71, 0
3, 117000, Note_on_c, 0, 95, 0
3, 117000, Note_on_c, 0, 83, 0
3, 117000, Note_on_c, 0, 81, 60
3, 117000, Note_on_c, 0, 93, 60
3, 117000, Note_on_c, 0, 69, 56
3, 117180, Note_on_c, 0, 69, 0
3, 117180, Note_on_c, 0, 93, 0
3, 117180, Note_on_c, 0, 81, 0
3, 117180, Note_on_c, 0, 76, 56
3, 117180, Note_on_c, 0, 88, 56
3, 117180, Note_on_c, 0, 64, 50
3, 117360, Note_on_c, 0, 64, 0
3, 117360, Note_on_c, 0, 88, 0
3, 117360, Note_on_c, 0, 76, 0
3, 117360, Note_on_c, 0, 78, 66
3, 117360, Note_on_c, 0, 90, 66
3, 117360, Note_on_c, 0, 66, 62
3, 117540, Note_on_c, 0, 66, 0
3, 117540, Note_on_c, 0, 90, 0
3, 117540, Note_on_c, 0, 78, 0
3, 117540, Note_on_c, 0, 80, 68
3, 117540, Note_on_c, 0, 92, 68
3, 117540, Note_on_c, 0, 68, 67
3, 117720, Note_on_c, 0, 68, 0
3, 117720, Note_on_c, 0, 92, 0
3, 117720, Note_on_c, 0, 80, 0
3, 117720, Note_on_c, 0, 81, 65
3, 117720, Note_on_c, 0, 93, 65
3, 117720, Note_on_c, 0, 69, 56
3, 117900, Note_on_c, 0, 69, 0
3, 117900, Note_on_c, 0, 93, 0
3, 117900, Note_on_c, 0, 81, 0
3, 117900, Note_on_c, 0, 83, 67
3, 117900, Note_on_c, 0, 95, 67
3, 117900, Note_on_c, 0, 71, 63
3, 118080, Note_on_c, 0, 71, 0
3, 118080, Note_on_c, 0, 95, 0
3, 118080, Note_on_c, 0, 83, 0
3, 118080, Note_on_c, 0, 84, 65
3, 118080, Note_on_c, 0, 96, 65
3, 118080, Note_on_c, 0, 72, 65
3, 118260, Note_on_c, 0, 72, 0
3, 118260, Note_on_c, 0, 96, 0
3, 118260, Note_on_c, 0, 84, 0
3, 118260, Note_on_c, 0, 85, 64
3, 118260, Note_on_c, 0, 97, 64
3, 118260, Note_on_c, 0, 73, 61
3, 118440, Note_on_c, 0, 73, 0
3, 118440, Note_on_c, 0, 97, 0
3, 118440, Note_on_c, 0, 85, 0
3, 118440, Note_on_c, 0, 90, 70
3, 118440, Note_on_c, 0, 102, 70
3, 118440, Note_on_c, 0, 78, 73
3, 118620, Note_on_c, 0, 78, 0
3, 118620, Note_on_c, 0, 102, 0
3, 118620, Note_on_c, 0, 90, 0
3, 118620, Note_on_c, 0, 88, 60
3, 118620, Note_on_c, 0, 100, 60
3, 118620, Note_on_c, 0, 76, 62
3, 118800, Note_on_c, 0, 76, 0
3, 118800, Note_on_c, 0, 100, 0
3, 118800, Note_on_c, 0, 88, 0
3, 118800, Note_on_c, 0, 86, 54
3, 118800, Note_on_c, 0, 98, 54
3, 118800, Note_on_c, 0, 74, 53
3, 118980, Note_on_c, 0, 74, 0
3, 118980, Note_on_c, 0, 98, 0
3, 118980, Note_on_c, 0, 86, 0
3, 118980, Note_on_c, 0, 85, 56
3, 118980, Note_on_c, 0, 97, 56
3, 118980, Note_on_c, 0, 73, 56
3, 119160, Note_on_c, 0, 73, 0
3, 119160, Note_on_c, 0, 97, 0
3, 119160, Note_on_c, 0, 85, 0
3, 119160, Note_on_c, 0, 83, 54
3, 119160, Note_on_c, 0, 95, 54
3, 119160, Note_on_c, 0, 71, 54
3, 119340, Note_on_c, 0, 71, 0
3, 119340, Note_on_c, 0, 95, 0
3, 119340, Note_on_c, 0, 83, 0
3, 119340, Note_on_c, 0, 86, 60
3, 119340, Note_on_c, 0, 98, 60
3, 119340, Note_on_c, 0, 74, 65
3, 119520, Note_on_c, 0, 74, 0
3, 119520, Note_on_c, 0, 98, 0
3, 119520, Note_on_c, 0, 86, 0
3, 119520, Note_on_c, 0, 85, 54
3, 119520, Note_on_c, 0, 97, 54
3, 119520, Note_on_c, 0, 73, 59
3, 119700, Note_on_c, 0, 73, 0
3, 119700, Note_on_c, 0, 97, 0
3, 119700, Note_on_c, 0, 85, 0
3, 119700, Note_on_c, 0, 83, 53
3, 119700, Note_on_c, 0, 95, 53
3, 119700, Note_on_c, 0, 71, 59
3, 119880, Note_on_c, 0, 71, 0
3, 119880, Note_on_c, 0, 95, 0
3, 119880, Note_on_c, 0, 83, 0
3, 119880, Note_on_c, 0, 81, 56
3, 119880, Note_on_c, 0, 93, 56
3, 119880, Note_on_c, 0, 69, 56
3, 120060, Note_on_c, 0, 69, 0
3, 120060, Note_on_c, 0, 93, 0
3, 120060, Note_on_c, 0, 81, 0
3, 120060, Note_on_c, 0, 76, 48
3, 120060, Note_on_c, 0, 88, 48
3, 120060, Note_on_c, 0, 64, 49
3, 120240, Note_on_c, 0, 64, 0
3, 120240, Note_on_c, 0, 88, 0
3, 120240, Note_on_c, 0, 76, 0
3, 120240, Note_on_c, 0, 78, 61
3, 120240, Note_on_c, 0, 90, 61
3, 120240, Note_on_c, 0, 66, 61
3, 120420, Note_on_c, 0, 66, 0
3, 120420, Note_on_c, 0, 90, 0
3, 120420, Note_on_c, 0, 78, 0
3, 120420, Note_on_c, 0, 80, 62
3, 120420, Note_on_c, 0, 92, 62
3, 120420, Note_on_c, 0, 68, 63
3, 120600, Note_on_c, 0, 68, 0
3, 120600, Note_on_c, 0, 92, 0
3, 120600, Note_on_c, 0, 80, 0
3, 120600, Note_on_c, 0, 81, 66
3, 120600, Note_on_c, 0, 93, 66
3, 120600, Note_on_c, 0, 69, 60
3, 120780, Note_on_c, 0, 69, 0
3, 120780, Note_on_c, 0, 93, 0
3, 120780, Note_on_c, 0, 81, 0
3, 120780, Note_on_c, 0, 80, 55
3, 120780, Note_on_c, 0, 92, 55
3, 120780, Note_on_c, 0, 68, 61
3, 120960, Note_on_c, 0, 68, 0
3, 120960, Note_on_c, 0, 92, 0
3, 120960, Note_on_c, 0, 80, 0
3, 120960, Note_on_c, 0, 81, 67
3, 120960, Note_on_c, 0, 93, 67
3, 120960, Note_on_c, 0, 69, 60
3, 121140, Note_on_c, 0, 69, 0
3, 121140, Note_on_c, 0, 93, 0
3, 121140, Note_on_c, 0, 81, 0
3, 121140, Note_on_c, 0, 82, 62
3, 121140, Note_on_c, 0, 94, 62
3, 121140, Note_on_c, 0, 70, 65
3, 121320, Note_on_c, 0, 70, 0
3, 121320, Note_on_c, 0, 94, 0
3, 121320, Note_on_c, 0, 82, 0
3, 121320, Note_on_c, 0, 85, 68
3, 121320, Note_on_c, 0, 97, 68
3, 121320, Note_on_c, 0, 73, 66
3, 121500, Note_on_c, 0, 73, 0
3, 121500, Note_on_c, 0, 97, 0
3, 121500, Note_on_c, 0, 85, 0
3, 121500, Note_on_c, 0, 83, 58
3, 121500, Note_on_c, 0, 95, 58
3, 121500, Note_on_c, 0, 71, 56
3, 121680, Note_on_c, 0, 71, 0
3, 121680, Note_on_c, 0, 95, 0
3, 121680, Note_on_c, 0, 83, 0
3, 121680, Note_on_c, 0, 82, 57
3, 121680, Note_on_c, 0, 94, 57
3, 121680, Note_on_c, 0, 70, 58
3, 121860, Note_on_c, 0, 70, 0
3, 121860, Note_on_c, 0, 94, 0
3, 121860, Note_on_c, 0, 82, 0
3, 121860, Note_on_c, 0, 85, 64
3, 121860, Note_on_c, 0, 97, 64
3, 121860, Note_on_c, 0, 73, 66
3, 122040, Note_on_c, 0, 73, 0
3, 122040, Note_on_c, 0, 97, 0
3, 122040, Note_on_c, 0, 85, 0
3, 122040, Note_on_c, 0, 83, 57
3, 122040, Note_on_c, 0, 95, 57
3, 122040, Note_on_c, 0, 71, 58
3, 122220, Note_on_c, 0, 71, 0
3, 122220, Note_on_c, 0, 95, 0
3, 122220, Note_on_c, 0, 83, 0
3, 122220, Note_on_c, 0, 86, 66
3, 122220, Note_on_c, 0, 98, 66
3, 122220, Note_on_c, 0, 74, 64
3, 122400, Note_on_c, 0, 74, 0
3, 122400, Note_on_c, 0, 98, 0
3, 122400, Note_on_c, 0, 86, 0
3, 122400, Note_on_c, 0, 85, 58
3, 122400, Note_on_c, 0, 97, 58
3, 122400, Note_on_c, 0, 73, 55
3, 122580, Note_on_c, 0, 73, 0
3, 122580, Note_on_c, 0, 97, 0
3, 122580, Note_on_c, 0, 85, 0
3, 122580, Note_on_c, 0, 83, 51
3, 122580, Note_on_c, 0, 95, 51
3, 122580, Note_on_c, 0, 71, 60
3, 122760, Note_on_c, 0, 71, 0
3, 122760, Note_on_c, 0, 95, 0
3, 122760, Note_on_c, 0, 83, 0
3, 122760, Note_on_c, 0, 81, 73
3, 122760, Note_on_c, 0, 93, 73
3, 122760, Note_on_c, 0, 69, 61
3, 122940, Note_on_c, 0, 69, 0
3, 122940, Note_on_c, 0, 93, 0
3, 122940, Note_on_c, 0, 81, 0
3, 122940, Note_on_c, 0, 68, 48
3, 122940, Note_on_c, 0, 80, 48
3, 122940, Note_on_c, 0, 56, 51
3, 123120, Note_on_c, 0, 56, 0
3, 123120, Note_on_c, 0, 80, 0
3, 123120, Note_on_c, 0, 68, 0
3, 123120, Note_on_c, 0, 69, 66
3, 123120, Note_on_c, 0, 81, 66
3, 123120, Note_on_c, 0, 57, 63
3, 123300, Note_on_c, 0, 57, 0
3, 123300, Note_on_c, 0, 81, 0
3, 123300, Note_on_c, 0, 69, 0
3, 123300, Note_on_c, 0, 71, 65
3, 123300, Note_on_c, 0, 83, 65
3, 123300, Note_on_c, 0, 59, 56
3, 123480, Note_on_c, 0, 59, 0
3, 123480, Note_on_c, 0, 83, 0
3, 123480, Note_on_c, 0, 71, 0
3, 123480, Note_on_c, 0, 73, 68
3, 123480, Note_on_c, 0, 85, 68
3, 123480, Note_on_c, 0, 61, 69
3, 123660, Note_on_c, 0, 61, 0
3, 123660, Note_on_c, 0, 85, 0
3, 123660, Note_on_c, 0, 73, 0
3, 123660, Note_on_c, 0, 76, 62
3, 123660, Note_on_c, 0, 88, 62
3, 123660, Note_on_c, 0, 64, 66
3, 123840, Note_on_c, 0, 64, 0
3, 123840, Note_on_c, 0, 88, 0
3, 123840, Note_on_c, 0, 76, 0
3, 123840, Note_on_c, 0, 81, 67
3, 123840, Note_on_c, 0, 93, 67
3, 123840, Note_on_c, 0, 69, 68
3, 124020, Note_on_c, 0, 69, 0
3, 124020, Note_on_c, 0, 93, 0
3, 124020, Note_on_c, 0, 81, 0
3, 124020, Note_on_c, 0, 82, 66
3, 124020, Note_on_c, 0, 94, 66
3, 124020, Note_on_c, 0, 70, 68
3, 124200, Note_on_c, 0, 70, 0
3, 124200, Note_on_c, 0, 94, 0
3, 124200, Note_on_c, 0, 82, 0
3, 124200, Note_on_c, 0, 85, 65
3, 124200, Note_on_c, 0, 97, 65
3, 124200, Note_on_c, 0, 73, 59
3, 124380, Note_on_c, 0, 73, 0
3, 124380, Note_on_c, 0, 97, 0
3, 124380, Note_on_c, 0, 85, 0
3, 124380, Note_on_c, 0, 83, 57
3, 124380, Note_on_c, 0, 95, 57
3, 124380, Note_on_c, 0, 71, 60
3, 124560, Note_on_c, 0, 71, 0
3, 124560, Note_on_c, 0, 95, 0
3, 124560, Note_on_c, 0, 83, 0
3, 124560, Note_on_c, 0, 79, 54
3, 124560, Note_on_c, 0, 91, 54
3, 124560, Note_on_c, 0, 67, 55
3, 124740, Note_on_c, 0, 67, 0
3, 124740, Note_on_c, 0, 91, 0
3, 124740, Note_on_c, 0, 79, 0
3, 124740, Note_on_c, 0, 78, 54
3, 124740, Note_on_c, 0, 90, 54
3, 124740, Note_on_c, 0, 66, 62
3, 124920, Note_on_c, 0, 66, 0
3, 124920, Note_on_c, 0, 90, 0
3, 124920, Note_on_c, 0, 78, 0
3, 124920, Note_on_c, 0, 76, 56
3, 124920, Note_on_c, 0, 88, 56
3, 124920, Note_on_c, 0, 64, 57
3, 125100, Note_on_c, 0, 64, 0
3, 125100, Note_on_c, 0, 88, 0
3, 125100, Note_on_c, 0, 76, 0
3, 125100, Note_on_c, 0, 74, 56
3, 125100, Note_on_c, 0, 86, 56
3, 125100, Note_on_c, 0, 62, 57
3, 125280, Note_on_c, 0, 62, 0
3, 125280, Note_on_c, 0, 86, 0
3, 125280, Note_on_c, 0, 74, 0
3, 125280, Note_on_c, 0, 73, 61
3, 125280, Note_on_c, 0, 85, 61
3, 125280, Note_on_c, 0, 61, 52
3, 125460, Note_on_c, 0, 61, 0
3, 125460, Note_on_c, 0, 85, 0
3, 125460, Note_on_c, 0, 73, 0
3, 125460, Note_on_c, 0, 71, 56
3, 125460, Note_on_c, 0, 83, 56
3, 125460, Note_on_c, 0, 59, 56
3, 125640, Note_on_c, 0, 59, 0
3, 125640, Note_on_c, 0, 83, 0
3, 125640, Note_on_c, 0, 71, 0
3, 125640, Note_on_c, 0, 69, 56
3, 125640, Note_on_c, 0, 81, 56
3, 125640, Note_on_c, 0, 57, 55
3, 125820, Note_on_c, 0, 57, 0
3, 125820, Note_on_c, 0, 81, 0
3, 125820, Note_on_c, 0, 69, 0
3, 125820, Note_on_c, 0, 64, 49
3, 125820, Note_on_c, 0, 76, 49
3, 125820, Note_on_c, 0, 52, 57
3, 126000, Note_on_c, 0, 52, 0
3, 126000, Note_on_c, 0, 76, 0
3, 126000, Note_on_c, 0, 64, 0
3, 126000, Note_on_c, 0, 66, 68
3, 126000, Note_on_c, 0, 78, 68
3, 126000, Note_on_c, 0, 54, 61
3, 126180, Note_on_c, 0, 54, 0
3, 126180, Note_on_c, 0, 78, 0
3, 126180, Note_on_c, 0, 66, 0
3, 126180, Note_on_c, 0, 68, 62
3, 126180, Note_on_c, 0, 80, 62
3, 126180, Note_on_c, 0, 56, 60
3, 126360, Note_on_c, 0, 56, 0
3, 126360, Note_on_c, 0, 80, 0
3, 126360, Note_on_c, 0, 68, 0
3, 126360, Note_on_c, 0, 69, 63
3, 126360, Note_on_c, 0, 81, 63
3, 126360, Note_on_c, 0, 57, 64
3, 126540, Note_on_c, 0, 57, 0
3, 126540, Note_on_c, 0, 81, 0
3, 126540, Note_on_c, 0, 69, 0
3, 126540, Note_on_c, 0, 68, 57
3, 126540, Note_on_c, 0, 80, 57
3, 126540, Note_on_c, 0, 56, 58
3, 126720, Note_on_c, 0, 56, 0
3, 126720, Note_on_c, 0, 80, 0
3, 126720, Note_on_c, 0, 68, 0
3, 126720, Note_on_c, 0, 69, 60
3, 126720, Note_on_c, 0, 81, 60
3, 126720, Note_on_c, 0, 57, 65
3, 126900, Note_on_c, 0, 57, 0
3, 126900, Note_on_c, 0, 81, 0
3, 126900, Note_on_c, 0, 69, 0
3, 126900, Note_on_c, 0, 70, 67
3, 126900, Note_on_c, 0, 82, 67
3, 126900, Note_on_c, 0, 58, 60
3, 127080, Note_on_c, 0, 58, 0
3, 127080, Note_on_c, 0, 82, 0
3, 127080, Note_on_c, 0, 70, 0
3, 127080, Note_on_c, 0, 73, 64
3, 127080, Note_on_c, 0, 85, 64
3, 127080, Note_on_c, 0, 61, 67
3, 127260, Note_on_c, 0, 61, 0
3, 127260, Note_on_c, 0, 85, 0
3, 127260, Note_on_c, 0, 73, 0
3, 127260, Note_on_c, 0, 71, 59
3, 127260, Note_on_c, 0, 83, 59
3, 127260, Note_on_c, 0, 59, 60
3, 127440, Note_on_c, 0, 59, 0
3, 127440, Note_on_c, 0, 83, 0
3, 127440, Note_on_c, 0, 71, 0
3, 127440, Note_on_c, 0, 70, 56
3, 127440, Note_on_c, 0, 82, 56
3, 127440, Note_on_c, 0, 58, 62
3, 127620, Note_on_c, 0, 58, 0
3, 127620, Note_on_c, 0, 82, 0
3, 127620, Note_on_c, 0, 70, 0
3, 127620, Note_on_c, 0, 73, 67
3, 127620, Note_on_c, 0, 85, 67
3, 127620, Note_on_c, 0, 61, 66
3, 127800, Note_on_c, 0, 61, 0
3, 127800, Note_on_c, 0, 85, 0
3, 127800, Note_on_c, 0, 73, 0
3, 127800, Note_on_c, 0, 71, 59
3, 127800, Note_on_c, 0, 83, 59
3, 127800, Note_on_c, 0, 59, 62
3, 127980, Note_on_c, 0, 59, 0
3, 127980, Note_on_c, 0, 83, 0
3, 127980, Note_on_c, 0, 71, 0
3, 127980, Note_on_c, 0, 74, 68
3, 127980, Note_on_c, 0, 86, 68
3, 127980, Note_on_c, 0, 62, 68
3, 128160, Note_on_c, 0, 62, 0
3, 128160, Note_on_c, 0, 86, 0
3, 128160, Note_on_c, 0, 74, 0
3, 128160, Note_on_c, 0, 73, 59
3, 128160, Note_on_c, 0, 85, 59
3, 128160, Note_on_c, 0, 61, 56
3, 128340, Note_on_c, 0, 61, 0
3, 128340, Note_on_c, 0, 85, 0
3, 128340, Note_on_c, 0, 73, 0
3, 128340, Note_on_c, 0, 71, 58
3, 128340, Note_on_c, 0, 83, 58
3, 128340, Note_on_c, 0, 59, 59
3, 128520, Note_on_c, 0, 59, 0
3, 128520, Note_on_c, 0, 83, 0
3, 128520, Note_on_c, 0, 71, 0
3, 128520, Note_on_c, 0, 69, 57
3, 128520, Note_on_c, 0, 81, 57
3, 128520, Note_on_c, 0, 57, 58
3, 128700, Note_on_c, 0, 57, 0
3, 128700, Note_on_c, 0, 81, 0
3, 128700, Note_on_c, 0, 69, 0
3, 128700, Note_on_c, 0, 64, 50
3, 128700, Note_on_c, 0, 76, 50
3, 128700, Note_on_c, 0, 52, 63
3, 128880, Note_on_c, 0, 52, 0
3, 128880, Note_on_c, 0, 76, 0
3, 128880, Note_on_c, 0, 64, 0
3, 128880, Note_on_c, 0, 66, 60
3, 128880, Note_on_c, 0, 78, 60
3, 128880, Note_on_c, 0, 54, 64
3, 129060, Note_on_c, 0, 54, 0
3, 129060, Note_on_c, 0, 78, 0
3, 129060, Note_on_c, 0, 66, 0
3, 129060, Note_on_c, 0, 68, 66
3, 129060, Note_on_c, 0, 80, 66
3, 129060, Note_on_c, 0, 56, 59
3, 129240, Note_on_c, 0, 56, 0
3, 129240, Note_on_c, 0, 80, 0
3, 129240, Note_on_c, 0, 68, 0
3, 129240, Note_on_c, 0, 69, 67
3, 129240, Note_on_c, 0, 81, 67
3, 129240, Note_on_c, 0, 57, 53
3, 129420, Note_on_c, 0, 57, 0
3, 129420, Note_on_c, 0, 81, 0
3, 129420, Note_on_c, 0, 69, 0
3, 129420, Note_on_c, 0, 71, 62
3, 129420, Note_on_c, 0, 83, 62
3, 129420, Note_on_c, 0, 59, 66
3, 129600, Note_on_c, 0, 59, 0
3, 129600, Note_on_c, 0, 83, 0
3, 129600, Note_on_c, 0, 71, 0
3, 129600, Note_on_c, 0, 72, 62
3, 129600, Note_on_c, 0, 84, 62
3, 129600, Note_on_c, 0, 60, 65
3, 129780, Note_on_c, 0, 60, 0
3, 129780, Note_on_c, 0, 84, 0
3, 129780, Note_on_c, 0, 72, 0
3, 129780, Note_on_c, 0, 73, 68
3, 129780, Note_on_c, 0, 85, 68
3, 129780, Note_on_c, 0, 61, 62
3, 129960, Note_on_c, 0, 61, 0
3, 129960, Note_on_c, 0, 85, 0
3, 129960, Note_on_c, 0, 73, 0
3, 129960, Note_on_c, 0, 78, 69
3, 129960, Note_on_c, 0, 90, 69
3, 129960, Note_on_c, 0, 66, 64
3, 130140, Note_on_c, 0, 66, 0
3, 130140, Note_on_c, 0, 90, 0
3, 130140, Note_on_c, 0, 78, 0
3, 130140, Note_on_c, 0, 76, 60
3, 130140, Note_on_c, 0, 88, 60
3, 130140, Note_on_c, 0, 64, 62
3, 130320, Note_on_c, 0, 64, 0
3, 130320, Note_on_c, 0, 88, 0
3, 130320, Note_on_c, 0, 76, 0
3, 130320, Note_on_c, 0, 74, 58
3, 130320, Note_on_c, 0, 86, 58
3, 130320, Note_on_c, 0, 62, 53
3, 130500, Note_on_c, 0, 62, 0
3, 130500, Note_on_c, 0, 86, 0
3, 130500, Note_on_c, 0, 74, 0
3, 130500, Note_on_c, 0, 73, 56
3, 130500, Note_on_c, 0, 85, 56
3, 130500, Note_on_c, 0, 61, 58
3, 130680, Note_on_c, 0, 61, 0
3, 130680, Note_on_c, 0, 85, 0
3, 130680, Note_on_c, 0, 73, 0
3, 130680, Note_on_c, 0, 71, 55
3, 130680, Note_on_c, 0, 83, 55
3, 130680, Note_on_c, 0, 59, 56
3, 130860, Note_on_c, 0, 59, 0
3, 130860, Note_on_c, 0, 83, 0
3, 130860, Note_on_c, 0, 71, 0
3, 130860, Note_on_c, 0, 74, 66
3, 130860, Note_on_c, 0, 86, 66
3, 130860, Note_on_c, 0, 62, 72
3, 131040, Note_on_c, 0, 62, 0
3, 131040, Note_on_c, 0, 86, 0
3, 131040, Note_on_c, 0, 74, 0
3, 131040, Note_on_c, 0, 73, 59
3, 131040, Note_on_c, 0, 85, 59
3, 131040, Note_on_c, 0, 61, 60
3, 131220, Note_on_c, 0, 61, 0
3, 131220, Note_on_c, 0, 85, 0
3, 131220, Note_on_c, 0, 73, 0
3, 131220, Note_on_c, 0, 71, 54
3, 131220, Note_on_c, 0, 83, 54
3, 131220, Note_on_c, 0, 59, 57
3, 131400, Note_on_c, 0, 59, 0
3, 131400, Note_on_c, 0, 83, 0
3, 131400, Note_on_c, 0, 71, 0
3, 131400, Note_on_c, 0, 69, 61
3, 131400, Note_on_c, 0, 81, 61
3, 131400, Note_on_c, 0, 57, 58
3, 131580, Note_on_c, 0, 57, 0
3, 131580, Note_on_c, 0, 81, 0
3, 131580, Note_on_c, 0, 69, 0
3, 131580, Note_on_c, 0, 64, 51
3, 131580, Note_on_c, 0, 76, 51
3, 131580, Note_on_c, 0, 52, 57
3, 131760, Note_on_c, 0, 52, 0
3, 131760, Note_on_c, 0, 76, 0
3, 131760, Note_on_c, 0, 64, 0
3, 131760, Note_on_c, 0, 66, 65
3, 131760, Note_on_c, 0, 78, 65
3, 131760, Note_on_c, 0, 54, 62
3, 131940, Note_on_c, 0, 54, 0
3, 131940, Note_on_c, 0, 78, 0
3, 131940, Note_on_c, 0, 66, 0
3, 131940, Note_on_c, 0, 68, 62
3, 131940, Note_on_c, 0, 80, 62
3, 131940, Note_on_c, 0, 56, 63
3, 132120, Note_on_c, 0, 56, 0
3, 132120, Note_on_c, 0, 80, 0
3, 132120, Note_on_c, 0, 68, 0
3, 132120, Note_on_c, 0, 69, 65
3, 132120, Note_on_c, 0, 81, 65
3, 132120, Note_on_c, 0, 57, 59
3, 132300, Note_on_c, 0, 57, 0
3, 132300, Note_on_c, 0, 81, 0
3, 132300, Note_on_c, 0, 69, 0
3, 132300, Note_on_c, 0, 68, 60
3, 132300, Note_on_c, 0, 80, 60
3, 132300, Note_on_c, 0, 56, 59
3, 132480, Note_on_c, 0, 56, 0
3, 132480, Note_on_c, 0, 80, 0
3, 132480, Note_on_c, 0, 68, 0
3, 132480, Note_on_c, 0, 69, 64
3, 132480, Note_on_c, 0, 81, 64
3, 132480, Note_on_c, 0, 57, 64
3, 132660, Note_on_c, 0, 57, 0
3, 132660, Note_on_c, 0, 81, 0
3, 132660, Note_on_c, 0, 69, 0
3, 132660, Note_on_c, 0, 70, 62
3, 132660, Note_on_c, 0, 82, 62
3, 132660, Note_on_c, 0, 58, 63
3, 132840, Note_on_c, 0, 58, 0
3, 132840, Note_on_c, 0, 82, 0
3, 132840, Note_on_c, 0, 70, 0
3, 132840, Note_on_c, 0, 73, 65
3, 132840, Note_on_c, 0, 85, 65
3, 132840, Note_on_c, 0, 61, 67
3, 133020, Note_on_c, 0, 61, 0
3, 133020, Note_on_c, 0, 85, 0
3, 133020, Note_on_c, 0, 73, 0
3, 133020, Note_on_c, 0, 71, 55
3, 133020, Note_on_c, 0, 83, 55
3, 133020, Note_on_c, 0, 59, 61
3, 133200, Note_on_c, 0, 59, 0
3, 133200, Note_on_c, 0, 83, 0
3, 133200, Note_on_c, 0, 71, 0
3, 133200, Note_on_c, 0, 70, 59
3, 133200, Note_on_c, 0, 82, 59
3, 133200, Note_on_c, 0, 58, 60
3, 133380, Note_on_c, 0, 58, 0
3, 133380, Note_on_c, 0, 82, 0
3, 133380, Note_on_c, 0, 70, 0
3, 133380, Note_on_c, 0, 73, 64
3, 133380, Note_on_c, 0, 85, 64
3, 133380, Note_on_c, 0, 61, 66
3, 133560, Note_on_c, 0, 61, 0
3, 133560, Note_on_c, 0, 85, 0
3, 133560, Note_on_c, 0, 73, 0
3, 133560, Note_on_c, 0, 71, 55
3, 133560, Note_on_c, 0, 83, 55
3, 133560, Note_on_c, 0, 59, 56
3, 133740, Note_on_c, 0, 59, 0
3, 133740, Note_on_c, 0, 83, 0
3, 133740, Note_on_c, 0, 71, 0
3, 133740, Note_on_c, 0, 74, 64
3, 133740, Note_on_c, 0, 86, 64
3, 133740, Note_on_c, 0, 62, 69
3, 133920, Note_on_c, 0, 62, 0
3, 133920, Note_on_c, 0, 86, 0
3, 133920, Note_on_c, 0, 74, 0
3, 133920, Note_on_c, 0, 73, 59
3, 133920, Note_on_c, 0, 85, 59
3, 133920, Note_on_c, 0, 61, 60
3, 134100, Note_on_c, 0, 61, 0
3, 134100, Note_on_c, 0, 85, 0
3, 134100, Note_on_c, 0, 73, 0
3, 134100, Note_on_c, 0, 71, 55
3, 134100, Note_on_c, 0, 83, 55
3, 134100, Note_on_c, 0, 59, 60
3, 134280, Note_on_c, 0, 59, 0
3, 134280, Note_on_c, 0, 83, 0
3, 134280, Note_on_c, 0, 71, 0
3, 134280, Note_on_c, 0, 69, 54
3, 134280, Note_on_c, 0, 81, 54
3, 134280, Note_on_c, 0, 57, 60
3, 134460, Note_on_c, 0, 57, 0
3, 134460, Note_on_c, 0, 81, 0
3, 134460, Note_on_c, 0, 69, 0
3, 134460, Note_on_c, 0, 68, 55
3, 134460, Note_on_c, 0, 80, 55
3, 134460, Note_on_c, 0, 56, 57
3, 134640, Note_on_c, 0, 56, 0
3, 134640, Note_on_c, 0, 80, 0
3, 134640, Note_on_c, 0, 68, 0
3, 134640, Note_on_c, 0, 69, 65
3, 134640, Note_on_c, 0, 81, 65
3, 134640, Note_on_c, 0, 57, 64
3, 134820, Note_on_c, 0, 57, 0
3, 134820, Note_on_c, 0, 81, 0
3, 134820, Note_on_c, 0, 69, 0
3, 134820, Note_on_c, 0, 71, 64
3, 134820, Note_on_c, 0, 83, 64
3, 134820, Note_on_c, 0, 59, 60
3, 135000, Note_on_c, 0, 59, 0
3, 135000, Note_on_c, 0, 83, 0
3, 135000, Note_on_c, 0, 71, 0
3, 135000, Note_on_c, 0, 73, 62
3, 135000, Note_on_c, 0, 85, 62
3, 135000, Note_on_c, 0, 61, 65
3, 135180, Note_on_c, 0, 61, 0
3, 135180, Note_on_c, 0, 85, 0
3, 135180, Note_on_c, 0, 73, 0
3, 135180, Note_on_c, 0, 76, 68
3, 135180, Note_on_c, 0, 88, 68
3, 135180, Note_on_c, 0, 64, 68
3, 135360, Note_on_c, 0, 64, 0
3, 135360, Note_on_c, 0, 88, 0
3, 135360, Note_on_c, 0, 76, 0
3, 135360, Note_on_c, 0, 81, 70
3, 135360, Note_on_c, 0, 93, 70
3, 135360, Note_on_c, 0, 69, 70
3, 135540, Note_on_c, 0, 69, 0
3, 135540, Note_on_c, 0, 93, 0
3, 135540, Note_on_c, 0, 81, 0
3, 135540, Note_on_c, 0, 82, 60
3, 135540, Note_on_c, 0, 94, 60
3, 135540, Note_on_c, 0, 70, 68
3, 135720, Note_on_c, 0, 70, 0
3, 135720, Note_on_c, 0, 94, 0
3, 135720, Note_on_c, 0, 82, 0
3, 135720, Note_on_c, 0, 85, 67
3, 135720, Note_on_c, 0, 97, 67
3, 135720, Note_on_c, 0, 73, 66
3, 135900, Note_on_c, 0, 73, 0
3, 135900, Note_on_c, 0, 97, 0
3, 135900, Note_on_c, 0, 85, 0
3, 135900, Note_on_c, 0, 83, 55
3, 135900, Note_on_c, 0, 95, 55
3, 135900, Note_on_c, 0, 71, 60
3, 136080, Note_on_c, 0, 71, 0
3, 136080, Note_on_c, 0, 95, 0
3, 136080, Note_on_c, 0, 83, 0
3, 136080, Note_on_c, 0, 79, 55
3, 136080, Note_on_c, 0, 91, 55
3, 136080, Note_on_c, 0, 67, 53
3, 136260, Note_on_c, 0, 67, 0
3, 136260, Note_on_c, 0, 91, 0
3, 136260, Note_on_c, 0, 79, 0
3, 136260, Note_on_c, 0, 78, 58
3, 136260, Note_on_c, 0, 90, 58
3, 136260, Note_on_c, 0, 66, 53
3, 136440, Note_on_c, 0, 66, 0
3, 136440, Note_on_c, 0, 90, 0
3, 136440, Note_on_c, 0, 78, 0
3, 136440, Note_on_c, 0, 83, 48
3, 136440, Note_on_c, 0, 59, 69
3, 136440, Note_on_c, 0, 71, 69
3, 136620, Note_on_c, 0, 71, 0
3, 136620, Note_on_c, 0, 59, 0
3, 136620, Note_on_c, 0, 83, 0
3, 136800, Note_on_c, 0, 83, 92
3, 136800, Note_on_c, 0, 86, 92
3, 136980, Note_on_c, 0, 86, 0
3, 136980, Note_on_c, 0, 83, 0
3, 136980, Note_on_c, 0, 85, 103
3, 136980, Note_on_c, 0, 88, 103
3, 137160, Note_on_c, 0, 88, 0
3, 137160, Note_on_c, 0, 85, 0
3, 137160, Note_on_c, 0, 86, 104
3, 137160, Note_on_c, 0, 90, 104
3, 137160, Note_on_c, 0, 74, 66
3, 137160, Note_on_c, 0, 78, 66
3, 137340, Note_on_c, 0, 78, 0
3, 137340, Note_on_c, 0, 86, 0
3, 137340, Note_on_c, 0, 90, 0
3, 137340, Note_on_c, 0, 74, 0
3, 137340, Note_on_c, 0, 86, 99
3, 137340, Note_on_c, 0, 90, 99
3, 137340, Note_on_c, 0, 66, 51
3, 137430, Note_on_c, 0, 90, 0
3, 137430, Note_on_c, 0, 86, 0
3, 137430, Note_on_c, 0, 88, 104
3, 137430, Note_on_c, 0, 91, 104
3, 137520, Note_on_c, 0, 91, 0
3, 137520, Note_on_c, 0, 88, 0
3, 137520, Note_on_c, 0, 66, 0
3, 137520, Note_on_c, 0, 86, 91
3, 137520, Note_on_c, 0, 90, 91
3, 137520, Note_on_c, 0, 66, 67
3, 137700, Note_on_c, 0, 66, 0
3, 137700, Note_on_c, 0, 90, 0
3, 137700, Note_on_c, 0, 86, 0
3, 137700, Note_on_c, 0, 85, 87
3, 137700, Note_on_c, 0, 88, 87
3, 137700, Note_on_c, 0, 59, 67
3, 137880, Note_on_c, 0, 59, 0
3, 137880, Note_on_c, 0, 88, 0
3, 137880, Note_on_c, 0, 85, 0
3, 137880, Note_on_c, 0, 83, 90
3, 137880, Note_on_c, 0, 86, 90
3, 137880, Note_on_c, 0, 74, 83
3, 137880, Note_on_c, 0, 77, 83
3, 138060, Note_on_c, 0, 77, 0
3, 138060, Note_on_c, 0, 83, 0
3, 138060, Note_on_c, 0, 86, 0
3, 138060, Note_on_c, 0, 74, 0
3, 138060, Note_on_c, 0, 85, 103
3, 138060, Note_on_c, 0, 88, 103
3, 138060, Note_on_c, 0, 67, 59
3, 138240, Note_on_c, 0, 67, 0
3, 138240, Note_on_c, 0, 88, 0
3, 138240, Note_on_c, 0, 85, 0
3, 138240, Note_on_c, 0, 83, 91
3, 138240, Note_on_c, 0, 86, 91
3, 138240, Note_on_c, 0, 67, 68
3, 138420, Note_on_c, 0, 67, 0
3, 138420, Note_on_c, 0, 86, 0
3, 138420, Note_on_c, 0, 83, 0
3, 138420, Note_on_c, 0, 82, 92
3, 138420, Note_on_c, 0, 85, 92
3, 138420, Note_on_c, 0, 59, 66
3, 138600, Note_on_c, 0, 59, 0
3, 138600, Note_on_c, 0, 85, 0
3, 138600, Note_on_c, 0, 82, 0
3, 138600, Note_on_c, 0, 83, 87
3, 138600, Note_on_c, 0, 74, 85
3, 138600, Note_on_c, 0, 78, 85
3, 138780, Note_on_c, 0, 78, 0
3, 138780, Note_on_c, 0, 74, 0
3, 138780, Note_on_c, 0, 83, 0
3, 138780, Note_on_c, 0, 82, 105
3, 138780, Note_on_c, 0, 85, 105
3, 138780, Note_on_c, 0, 68, 58
3, 138960, Note_on_c, 0, 68, 0
3, 138960, Note_on_c, 0, 85, 0
3, 138960, Note_on_c, 0, 82, 0
3, 138960, Note_on_c, 0, 83, 101
3, 138960, Note_on_c, 0, 86, 101
3, 138960, Note_on_c, 0, 68, 71
3, 139140, Note_on_c, 0, 68, 0
3, 139140, Note_on_c, 0, 59, 62
3, 139320, Note_on_c, 0, 59, 0
3, 139320, Note_on_c, 0, 74, 92
3, 139320, Note_on_c, 0, 77, 92
3, 139500, Note_on_c, 0, 77, 0
3, 139500, Note_on_c, 0, 74, 0
3, 139500, Note_on_c, 0, 67, 57
3, 139680, Note_on_c, 0, 67, 0
3, 139680, Note_on_c, 0, 86, 0
3, 139680, Note_on_c, 0, 83, 0
3, 139680, Note_on_c, 0, 83, 95
3, 139680, Note_on_c, 0, 86, 95
3, 139680, Note_on_c, 0, 67, 66
3, 139860, Note_on_c, 0, 67, 0
3, 139860, Note_on_c, 0, 86, 0
3, 139860, Note_on_c, 0, 83, 0
3, 139860, Note_on_c, 0, 85, 103
3, 139860, Note_on_c, 0, 88, 103
3, 139860, Note_on_c, 0, 59, 67
3, 140040, Note_on_c, 0, 59, 0
3, 140040, Note_on_c, 0, 88, 0
3, 140040, Note_on_c, 0, 85, 0
3, 140040, Note_on_c, 0, 86, 106
3, 140040, Note_on_c, 0, 90, 106
3, 140040, Note_on_c, 0, 74, 75
3, 140040, Note_on_c, 0, 78, 75
3, 140130, Note_on_c, 0, 90, 0
3, 140130, Note_on_c, 0, 86, 0
3, 140130, Note_on_c, 0, 88, 108
3, 140130, Note_on_c, 0, 91, 108
3, 140220, Note_on_c, 0, 91, 0
3, 140220, Note_on_c, 0, 78, 0
3, 140220, Note_on_c, 0, 74, 0
3, 140220, Note_on_c, 0, 88, 0
3, 140220, Note_on_c, 0, 86, 91
3, 140220, Note_on_c, 0, 90, 91
3, 140220, Note_on_c, 0, 66, 46
3, 140310, Note_on_c, 0, 90, 0
3, 140310, Note_on_c, 0, 86, 0
3, 140310, Note_on_c, 0, 88, 101
3, 140310, Note_on_c, 0, 91, 101
3, 140400, Note_on_c, 0, 91, 0
3, 140400, Note_on_c, 0, 88, 0
3, 140400, Note_on_c, 0, 66, 0
3, 140400, Note_on_c, 0, 86, 97
3, 140400, Note_on_c, 0, 90, 97
3, 140400, Note_on_c, 0, 66, 57
3, 140580, Note_on_c, 0, 66, 0
3, 140580, Note_on_c, 0, 90, 0
3, 140580, Note_on_c, 0, 86, 0
3, 140580, Note_on_c, 0, 85, 88
3, 140580, Note_on_c, 0, 88, 88
3, 140580, Note_on_c, 0, 59, 54
3, 140760, Note_on_c, 0, 59, 0
3, 140760, Note_on_c, 0, 88, 0
3, 140760, Note_on_c, 0, 85, 0
3, 140760, Note_on_c, 0, 83, 92
3, 140760, Note_on_c, 0, 86, 92
3, 140760, Note_on_c, 0, 74, 75
3, 140760, Note_on_c, 0, 77, 75
3, 140940, Note_on_c, 0, 77, 0
3, 140940, Note_on_c, 0, 83, 0
3, 140940, Note_on_c, 0, 86, 0
3, 140940, Note_on_c, 0, 74, 0
3, 140940, Note_on_c, 0, 83, 96
3, 140940, Note_on_c, 0, 86, 96
3, 140940, Note_on_c, 0, 67, 47
3, 141030, Note_on_c, 0, 86, 0
3, 141030, Note_on_c, 0, 83, 0
3, 141030, Note_on_c, 0, 85, 102
3, 141030, Note_on_c, 0, 88, 102
3, 141120, Note_on_c, 0, 88, 0
3, 141120, Note_on_c, 0, 85, 0
3, 141120, Note_on_c, 0, 67, 0
3, 141120, Note_on_c, 0, 86, 91
3, 141120, Note_on_c, 0, 67, 58
3, 141300, Note_on_c, 0, 67, 0
3, 141300, Note_on_c, 0, 86, 0
3, 141300, Note_on_c, 0, 82, 94
3, 141300, Note_on_c, 0, 85, 94
3, 141300, Note_on_c, 0, 59, 54
3, 141480, Note_on_c, 0, 85, 0
3, 141480, Note_on_c, 0, 82, 0
3, 141480, Note_on_c, 0, 83, 89
3, 141480, Note_on_c, 0, 68, 63
3, 141570, Note_on_c, 0, 83, 0
3, 141570, Note_on_c, 0, 74, 72
3, 141660, Note_on_c, 0, 74, 0
3, 141660, Note_on_c, 0, 78, 108
3, 141750, Note_on_c, 0, 78, 0
3, 141750, Note_on_c, 0, 83, 110
3, 141840, Note_on_c, 0, 83, 0
3, 141840, Note_on_c, 0, 68, 0
3, 141840, Note_on_c, 0, 76, 86
3, 141840, Note_on_c, 0, 67, 63
3, 141891, Note_on_c, 0, 76, 0
3, 141891, Note_on_c, 0, 79, 101
3, 141943, Note_on_c, 0, 79, 0
3, 141943, Note_on_c, 0, 83, 108
3, 141993, Note_on_c, 0, 83, 0
3, 141993, Note_on_c, 0, 85, 108
3, 142046, Note_on_c, 0, 85, 0
3, 142046, Note_on_c, 0, 88, 103
3, 142096, Note_on_c, 0, 88, 0
3, 142096, Note_on_c, 0, 90, 106
3, 142148, Note_on_c, 0, 90, 0
3, 142148, Note_on_c, 0, 91, 101
3, 142200, Note_on_c, 0, 91, 0
3, 142200, Note_on_c, 0, 67, 0
3, 142200, Note_on_c, 0, 59, 0
3, 142200, Note_on_c, 0, 95, 106
3, 142200, Note_on_c, 0, 59, 81
3, 142200, Note_on_c, 0, 66, 81
3, 142200, Note_on_c, 0, 74, 81
3, 142380, Note_on_c, 0, 74, 0
3, 142380, Note_on_c, 0, 95, 0
3, 142380, Note_on_c, 0, 59, 0
3, 142380, Note_on_c, 0, 66, 0
3, 142560, Note_on_c, 0, 83, 87
3, 142560, Note_on_c, 0, 86, 87
3, 142740, Note_on_c, 0, 86, 0
3, 142740, Note_on_c, 0, 83, 0
3, 142740, Note_on_c, 0, 85, 99
3, 142740, Note_on_c, 0, 88, 99
3, 142920, Note_on_c, 0, 88, 0
3, 142920, Note_on_c, 0, 85, 0
3, 142920, Note_on_c, 0, 86, 105
3, 142920, Note_on_c, 0, 90, 105
3, 142920, Note_on_c, 0, 74, 61
3, 142920, Note_on_c, 0, 78, 61
3, 143100, Note_on_c, 0, 78, 0
3, 143100, Note_on_c, 0, 86, 0
3, 143100, Note_on_c, 0, 90, 0
3, 143100, Note_on_c, 0, 74, 0
3, 143100, Note_on_c, 0, 86, 98
3, 143100, Note_on_c, 0, 90, 98
3, 143100, Note_on_c, 0, 66, 53
3, 143190, Note_on_c, 0, 90, 0
3, 143190, Note_on_c, 0, 86, 0
3, 143190, Note_on_c, 0, 88, 101
3, 143190, Note_on_c, 0, 91, 101
3, 143280, Note_on_c, 0, 91, 0
3, 143280, Note_on_c, 0, 88, 0
3, 143280, Note_on_c, 0, 66, 0
3, 143280, Note_on_c, 0, 86, 93
3, 143280, Note_on_c, 0, 90, 93
3, 143280, Note_on_c, 0, 66, 66
3, 143460, Note_on_c, 0, 66, 0
3, 143460, Note_on_c, 0, 90, 0
3, 143460, Note_on_c, 0, 86, 0
3, 143460, Note_on_c, 0, 85, 96
3, 143460, Note_on_c, 0, 88, 96
3, 143460, Note_on_c, 0, 59, 67
3, 143640, Note_on_c, 0, 59, 0
3, 143640, Note_on_c, 0, 88, 0
3, 143640, Note_on_c, 0, 85, 0
3, 143640, Note_on_c, 0, 83, 91
3, 143640, Note_on_c, 0, 86, 91
3, 143640, Note_on_c, 0, 74, 93
3, 143640, Note_on_c, 0, 77, 93
3, 143730, Note_on_c, 0, 86, 0
3, 143730, Note_on_c, 0, 83, 0
3, 143730, Note_on_c, 0, 85, 100
3, 143730, Note_on_c, 0, 88, 100
3, 143820, Note_on_c, 0, 88, 0
3, 143820, Note_on_c, 0, 77, 0
3, 143820, Note_on_c, 0, 74, 0
3, 143820, Note_on_c, 0, 85, 0
3, 143820, Note_on_c, 0, 83, 90
3, 143820, Note_on_c, 0, 86, 90
3, 143820, Note_on_c, 0, 67, 54
3, 143910, Note_on_c, 0, 86, 0
3, 143910, Note_on_c, 0, 83, 0
3, 143910, Note_on_c, 0, 85, 104
3, 143910, Note_on_c, 0, 88, 104
3, 144000, Note_on_c, 0, 88, 0
3, 144000, Note_on_c, 0, 85, 0
3, 144000, Note_on_c, 0, 67, 0
3, 144000, Note_on_c, 0, 83, 86
3, 144000, Note_on_c, 0, 86, 86
3, 144000, Note_on_c, 0, 67, 70
3, 144180, Note_on_c, 0, 67, 0
3, 144180, Note_on_c, 0, 86, 0
3, 144180, Note_on_c, 0, 83, 0
3, 144180, Note_on_c, 0, 82, 90
3, 144180, Note_on_c, 0, 85, 90
3, 144180, Note_on_c, 0, 59, 63
3, 144360, Note_on_c, 0, 59, 0
3, 144360, Note_on_c, 0, 85, 0
3, 144360, Note_on_c, 0, 82, 0
3, 144360, Note_on_c, 0, 83, 88
3, 144360, Note_on_c, 0, 74, 89
3, 144360, Note_on_c, 0, 78, 89
3, 144540, Note_on_c, 0, 78, 0
3, 144540, Note_on_c, 0, 74, 0
3, 144540, Note_on_c, 0, 83, 0
3, 144540, Note_on_c, 0, 83, 96
3, 144540, Note_on_c, 0, 68, 59
3, 144630, Note_on_c, 0, 83, 0
3, 144630, Note_on_c, 0, 82, 105
3, 144630, Note_on_c, 0, 85, 105
3, 144720, Note_on_c, 0, 85, 0
3, 144720, Note_on_c, 0, 82, 0
3, 144720, Note_on_c, 0, 68, 0
3, 144720, Note_on_c, 0, 83, 103
3, 144720, Note_on_c, 0, 86, 103
3, 144720, Note_on_c, 0, 68, 69
3, 144900, Note_on_c, 0, 68, 0
3, 144900, Note_on_c, 0, 59, 64
3, 145080, Note_on_c, 0, 59, 0
3, 145080, Note_on_c, 0, 74, 88
3, 145080, Note_on_c, 0, 77, 88
3, 145260, Note_on_c, 0, 77, 0
3, 145260, Note_on_c, 0, 74, 0
3, 145260, Note_on_c, 0, 67, 60
3, 145440, Note_on_c, 0, 67, 0
3, 145440, Note_on_c, 0, 86, 0
3, 145440, Note_on_c, 0, 83, 0
3, 145440, Note_on_c, 0, 83, 100
3, 145440, Note_on_c, 0, 86, 100
3, 145440, Note_on_c, 0, 67, 67
3, 145620, Note_on_c, 0, 67, 0
3, 145620, Note_on_c, 0, 86, 0
3, 145620, Note_on_c, 0, 83, 0
3, 145620, Note_on_c, 0, 85, 103
3, 145620, Note_on_c, 0, 88, 103
3, 145620, Note_on_c, 0, 59, 62
3, 145800, Note_on_c, 0, 59, 0
3, 145800, Note_on_c, 0, 88, 0
3, 145800, Note_on_c, 0, 85, 0
3, 145800, Note_on_c, 0, 86, 108
3, 145800, Note_on_c, 0, 90, 108
3, 145800, Note_on_c, 0, 74, 92
3, 145800, Note_on_c, 0, 78, 92
3, 145890, Note_on_c, 0, 90, 0
3, 145890, Note_on_c, 0, 86, 0
3, 145890, Note_on_c, 0, 88, 104
3, 145890, Note_on_c, 0, 91, 104
3, 145980, Note_on_c, 0, 91, 0
3, 145980, Note_on_c, 0, 78, 0
3, 145980, Note_on_c, 0, 74, 0
3, 145980, Note_on_c, 0, 88, 0
3, 145980, Note_on_c, 0, 86, 95
3, 145980, Note_on_c, 0, 90, 95
3, 145980, Note_on_c, 0, 66, 55
3, 146070, Note_on_c, 0, 90, 0
3, 146070, Note_on_c, 0, 86, 0
3, 146070, Note_on_c, 0, 88, 102
3, 146070, Note_on_c, 0, 91, 102
3, 146160, Note_on_c, 0, 91, 0
3, 146160, Note_on_c, 0, 88, 0
3, 146160, Note_on_c, 0, 66, 0
3, 146160, Note_on_c, 0, 86, 93
3, 146160, Note_on_c, 0, 90, 93
3, 146160, Note_on_c, 0, 66, 66
3, 146340, Note_on_c, 0, 66, 0
3, 146340, Note_on_c, 0, 90, 0
3, 146340, Note_on_c, 0, 86, 0
3, 146340, Note_on_c, 0, 88, 111
3, 146340, Note_on_c, 0, 91, 111
3, 146340, Note_on_c, 0, 95, 111
3, 146340, Note_on_c, 0, 59, 63
3, 146520, Note_on_c, 0, 59, 0
3, 146520, Note_on_c, 0, 88, 0
3, 146520, Note_on_c, 0, 91, 0
3, 146520, Note_on_c, 0, 95, 0
3, 146520, Note_on_c, 0, 90, 95
3, 146520, Note_on_c, 0, 93, 95
3, 146520, Note_on_c, 0, 76, 90
3, 146520, Note_on_c, 0, 78, 90
3, 146610, Note_on_c, 0, 93, 0
3, 146610, Note_on_c, 0, 90, 0
3, 146610, Note_on_c, 0, 88, 91
3, 146610, Note_on_c, 0, 91, 91
3, 146700, Note_on_c, 0, 91, 0
3, 146700, Note_on_c, 0, 78, 0
3, 146700, Note_on_c, 0, 76, 0
3, 146700, Note_on_c, 0, 88, 0
3, 146700, Note_on_c, 0, 86, 97
3, 146700, Note_on_c, 0, 90, 97
3, 146700, Note_on_c, 0, 66, 56
3, 146790, Note_on_c, 0, 90, 0
3, 146790, Note_on_c, 0, 86, 0
3, 146790, Note_on_c, 0, 85, 91
3, 146790, Note_on_c, 0, 88, 91
3, 146880, Note_on_c, 0, 88, 0
3, 146880, Note_on_c, 0, 85, 0
3, 146880, Note_on_c, 0, 66, 0
3, 146880, Note_on_c, 0, 83, 91
3, 146880, Note_on_c, 0, 86, 91
3, 147060, Note_on_c, 0, 86, 0
3, 147060, Note_on_c, 0, 83, 0
3, 147060, Note_on_c, 0, 85, 105
3, 147060, Note_on_c, 0, 88, 105
3, 147060, Note_on_c, 0, 67, 65
3, 147240, Note_on_c, 0, 67, 0
3, 147240, Note_on_c, 0, 88, 0
3, 147240, Note_on_c, 0, 85, 0
3, 147240, Note_on_c, 0, 83, 84
3, 147240, Note_on_c, 0, 59, 61
3, 147240, Note_on_c, 0, 66, 61
3, 147330, Note_on_c, 0, 83, 0
3, 147330, Note_on_c, 0, 74, 71
3, 147420, Note_on_c, 0, 74, 0
3, 147420, Note_on_c, 0, 66, 0
3, 147420, Note_on_c, 0, 59, 0
3, 147420, Note_on_c, 0, 78, 105
3, 147510, Note_on_c, 0, 78, 0
3, 147510, Note_on_c, 0, 83, 108
3, 147600, Note_on_c, 0, 83, 0
3, 147600, Note_on_c, 0, 76, 88
3, 147600, Note_on_c, 0, 71, 61
3, 147600, Note_on_c, 0, 73, 61
3, 147651, Note_on_c, 0, 76, 0
3, 147651, Note_on_c, 0, 79, 103
3, 147703, Note_on_c, 0, 79, 0
3, 147703, Note_on_c, 0, 83, 111
3, 147753, Note_on_c, 0, 83, 0
3, 147753, Note_on_c, 0, 85, 109
3, 147780, Note_on_c, 0, 73, 0
3, 147780, Note_on_c, 0, 71, 0
3, 147806, Note_on_c, 0, 85, 0
3, 147806, Note_on_c, 0, 88, 106
3, 147856, Note_on_c, 0, 88, 0
3, 147856, Note_on_c, 0, 90, 105
3, 147908, Note_on_c, 0, 90, 0
3, 147908, Note_on_c, 0, 91, 101
3, 147960, Note_on_c, 0, 91, 0
3, 147960, Note_on_c, 0, 95, 109
3, 147960, Note_on_c, 0, 71, 63
3, 147960, Note_on_c, 0, 74, 63
3, 147960, Note_on_c, 0, 78, 63
3, 148140, Note_on_c, 0, 78, 0
3, 148140, Note_on_c, 0, 95, 0
3, 148140, Note_on_c, 0, 71, 0
3, 148140, Note_on_c, 0, 74, 0
3, 148320, Note_on_c, 0, 69, 88
3, 148320, Note_on_c, 0, 73, 88
3, 148320, Note_on_c, 0, 57, 86
3, 148320, Note_on_c, 0, 61, 86
3, 148500, Note_on_c, 0, 61, 0
3, 148500, Note_on_c, 0, 69, 0
3, 148500, Note_on_c, 0, 73, 0
3, 148500, Note_on_c, 0, 57, 0
3, 148500, Note_on_c, 0, 71, 94
3, 148500, Note_on_c, 0, 74, 94
3, 148500, Note_on_c, 0, 59, 100
3, 148500, Note_on_c, 0, 62, 100
3, 148680, Note_on_c, 0, 62, 0
3, 148680, Note_on_c, 0, 71, 0
3, 148680, Note_on_c, 0, 74, 0
3, 148680, Note_on_c, 0, 59, 0
3, 148680, Note_on_c, 0, 73, 103
3, 148680, Note_on_c, 0, 76, 103
3, 148680, Note_on_c, 0, 61, 107
3, 148680, Note_on_c, 0, 64, 107
3, 148860, Note_on_c, 0, 64, 0
3, 148860, Note_on_c, 0, 73, 0
3, 148860, Note_on_c, 0, 76, 0
3, 148860, Note_on_c, 0, 61, 0
3, 148860, Note_on_c, 0, 71, 92
3, 148860, Note_on_c, 0, 74, 92
3, 148860, Note_on_c, 0, 59, 94
3, 148860, Note_on_c, 0, 62, 94
3, 149040, Note_on_c, 0, 62, 0
3, 149040, Note_on_c, 0, 71, 0
3, 149040, Note_on_c, 0, 74, 0
3, 149040, Note_on_c, 0, 59, 0
3, 149040, Note_on_c, 0, 69, 92
3, 149040, Note_on_c, 0, 73, 92
3, 149040, Note_on_c, 0, 57, 91
3, 149040, Note_on_c, 0, 61, 91
3, 149220, Note_on_c, 0, 61, 0
3, 149220, Note_on_c, 0, 69, 0
3, 149220, Note_on_c, 0, 73, 0
3, 149220, Note_on_c, 0, 57, 0
3, 149220, Note_on_c, 0, 71, 96
3, 149220, Note_on_c, 0, 74, 96
3, 149220, Note_on_c, 0, 59, 101
3, 149220, Note_on_c, 0, 62, 101
3, 149400, Note_on_c, 0, 62, 0
3, 149400, Note_on_c, 0, 71, 0
3, 149400, Note_on_c, 0, 74, 0
3, 149400, Note_on_c, 0, 59, 0
3, 149400, Note_on_c, 0, 73, 104
3, 149400, Note_on_c, 0, 76, 104
3, 149400, Note_on_c, 0, 61, 101
3, 149400, Note_on_c, 0, 64, 101
3, 149760, Note_on_c, 0, 64, 0
3, 149760, Note_on_c, 0, 73, 0
3, 149760, Note_on_c, 0, 76, 0
3, 149760, Note_on_c, 0, 61, 0
3, 149760, Note_on_c, 0, 67, 100
3, 149760, Note_on_c, 0, 70, 100
3, 149760, Note_on_c, 0, 73, 100
3, 149760, Note_on_c, 0, 78, 100
3, 149760, Note_on_c, 0, 55, 103
3, 149760, Note_on_c, 0, 58, 103
3, 149760, Note_on_c, 0, 61, 103
3, 149760, Note_on_c, 0, 66, 103
3, 150120, Note_on_c, 0, 66, 0
3, 150120, Note_on_c, 0, 67, 0
3, 150120, Note_on_c, 0, 55, 0
3, 150120, Note_on_c, 0, 70, 0
3, 150120, Note_on_c, 0, 73, 0
3, 150120, Note_on_c, 0, 78, 0
3, 150120, Note_on_c, 0, 58, 0
3, 150120, Note_on_c, 0, 61, 0
3, 150120, Note_on_c, 0, 62, 83
3, 150120, Note_on_c, 0, 66, 83
3, 150120, Note_on_c, 0, 74, 83
3, 150120, Note_on_c, 0, 50, 87
3, 150120, Note_on_c, 0, 54, 87
3, 151200, Note_on_c, 0, 54, 0
3, 151200, Note_on_c, 0, 74, 0
3, 151200, Note_on_c, 0, 62, 0
3, 151200, Note_on_c, 0, 66, 0
3, 151200, Note_on_c, 0, 50, 0
3, 151200, Note_on_c, 0, 69, 89
3, 151200, Note_on_c, 0, 73, 89
3, 151200, Note_on_c, 0, 57, 113
3, 151200, Note_on_c, 0, 61, 113
3, 151380, Note_on_c, 0, 61, 0
3, 151380, Note_on_c, 0, 69, 0
3, 151380, Note_on_c, 0, 73, 0
3, 151380, Note_on_c, 0, 57, 0
3, 151380, Note_on_c, 0, 71, 98
3, 151380, Note_on_c, 0, 74, 98
3, 151380, Note_on_c, 0, 59, 101
3, 151380, Note_on_c, 0, 62, 101
3, 151560, Note_on_c, 0, 62, 0
3, 151560, Note_on_c, 0, 71, 0
3, 151560, Note_on_c, 0, 74, 0
3, 151560, Note_on_c, 0, 59, 0
3, 151560, Note_on_c, 0, 73, 105
3, 151560, Note_on_c, 0, 76, 105
3, 151560, Note_on_c, 0, 61, 103
3, 151560, Note_on_c, 0, 64, 103
3, 151740, Note_on_c, 0, 64, 0
3, 151740, Note_on_c, 0, 73, 0
3, 151740, Note_on_c, 0, 76, 0
3, 151740, Note_on_c, 0, 61, 0
3, 151740, Note_on_c, 0, 71, 93
3, 151740, Note_on_c, 0, 74, 93
3, 151740, Note_on_c, 0, 59, 95
3, 151740, Note_on_c, 0, 62, 95
3, 151920, Note_on_c, 0, 62, 0
3, 151920, Note_on_c, 0, 71, 0
3, 151920, Note_on_c, 0, 74, 0
3, 151920, Note_on_c, 0, 59, 0
3, 151920, Note_on_c, 0, 69, 94
3, 151920, Note_on_c, 0, 73, 94
3, 151920, Note_on_c, 0, 57, 91
3, 151920, Note_on_c, 0, 61, 91
3, 152100, Note_on_c, 0, 61, 0
3, 152100, Note_on_c, 0, 69, 0
3, 152100, Note_on_c, 0, 73, 0
3, 152100, Note_on_c, 0, 57, 0
3, 152100, Note_on_c, 0, 71, 104
3, 152100, Note_on_c, 0, 74, 104
3, 152100, Note_on_c, 0, 59, 100
3, 152100, Note_on_c, 0, 62, 100
3, 152280, Note_on_c, 0, 62, 0
3, 152280, Note_on_c, 0, 71, 0
3, 152280, Note_on_c, 0, 74, 0
3, 152280, Note_on_c, 0, 59, 0
3, 152280, Note_on_c, 0, 73, 104
3, 152280, Note_on_c, 0, 76, 104
3, 152280, Note_on_c, 0, 61, 105
3, 152280, Note_on_c, 0, 64, 105
3, 152640, Note_on_c, 0, 64, 0
3, 152640, Note_on_c, 0, 73, 0
3, 152640, Note_on_c, 0, 76, 0
3, 152640, Note_on_c, 0, 61, 0
3, 152640, Note_on_c, 0, 67, 104
3, 152640, Note_on_c, 0, 70, 104
3, 152640, Note_on_c, 0, 73, 104
3, 152640, Note_on_c, 0, 78, 104
3, 152640, Note_on_c, 0, 55, 103
3, 152640, Note_on_c, 0, 58, 103
3, 152640, Note_on_c, 0, 61, 103
3, 152640, Note_on_c, 0, 66, 103
3, 153000, Note_on_c, 0, 66, 0
3, 153000, Note_on_c, 0, 67, 0
3, 153000, Note_on_c, 0, 55, 0
3, 153000, Note_on_c, 0, 70, 0
3, 153000, Note_on_c, 0, 73, 0
3, 153000, Note_on_c, 0, 78, 0
3, 153000, Note_on_c, 0, 58, 0
3, 153000, Note_on_c, 0, 61, 0
3, 153000, Note_on_c, 0, 71, 82
3, 153000, Note_on_c, 0, 64, 68
3, 153000, Note_on_c, 0, 67, 68
3, 153000, Note_on_c, 0, 59, 87
3, 153000, Note_on_c, 0, 52, 56
3, 153000, Note_on_c, 0, 55, 56
3, 153720, Note_on_c, 0, 55, 0
3, 153720, Note_on_c, 0, 64, 0
3, 153720, Note_on_c, 0, 67, 0
3, 153720, Note_on_c, 0, 52, 0
3, 153720, Note_on_c, 0, 62, 59
3, 153720, Note_on_c, 0, 66, 59
3, 153720, Note_on_c, 0, 50, 60
3, 153720, Note_on_c, 0, 54, 60
3, 154080, Note_on_c, 0, 54, 0
3, 154080, Note_on_c, 0, 71, 0
3, 154080, Note_on_c, 0, 62, 0
3, 154080, Note_on_c, 0, 59, 0
3, 154080, Note_on_c, 0, 50, 0
3, 154080, Note_on_c, 0, 66, 0
3, 154080, Note_on_c, 0, 73, 121
3, 154080, Note_on_c, 0, 81, 121
3, 154080, Note_on_c, 0, 85, 121
3, 154080, Note_on_c, 0, 57, 100
3, 154080, Note_on_c, 0, 61, 100
3, 154260, Note_on_c, 0, 61, 0
3, 154260, Note_on_c, 0, 85, 0
3, 154260, Note_on_c, 0, 73, 0
3, 154260, Note_on_c, 0, 81, 0
3, 154260, Note_on_c, 0, 57, 0
3, 154260, Note_on_c, 0, 74, 108
3, 154260, Note_on_c, 0, 83, 108
3, 154260, Note_on_c, 0, 86, 108
3, 154260, Note_on_c, 0, 59, 105
3, 154260, Note_on_c, 0, 62, 105
3, 154440, Note_on_c, 0, 62, 0
3, 154440, Note_on_c, 0, 86, 0
3, 154440, Note_on_c, 0, 74, 0
3, 154440, Note_on_c, 0, 83, 0
3, 154440, Note_on_c, 0, 59, 0
3, 154440, Note_on_c, 0, 76, 105
3, 154440, Note_on_c, 0, 85, 105
3, 154440, Note_on_c, 0, 88, 105
3, 154440, Note_on_c, 0, 61, 103
3, 154440, Note_on_c, 0, 64, 103
3, 154620, Note_on_c, 0, 64, 0
3, 154620, Note_on_c, 0, 88, 0
3, 154620, Note_on_c, 0, 76, 0
3, 154620, Note_on_c, 0, 85, 0
3, 154620, Note_on_c, 0, 61, 0
3, 154620, Note_on_c, 0, 74, 90
3, 154620, Note_on_c, 0, 83, 90
3, 154620, Note_on_c, 0, 86, 90
3, 154620, Note_on_c, 0, 59, 92
3, 154620, Note_on_c, 0, 62, 92
3, 154800, Note_on_c, 0, 62, 0
3, 154800, Note_on_c, 0, 86, 0
3, 154800, Note_on_c, 0, 74, 0
3, 154800, Note_on_c, 0, 83, 0
3, 154800, Note_on_c, 0, 59, 0
3, 154800, Note_on_c, 0, 73, 89
3, 154800, Note_on_c, 0, 81, 89
3, 154800, Note_on_c, 0, 85, 89
3, 154800, Note_on_c, 0, 57, 91
3, 154800, Note_on_c, 0, 61, 91
3, 154980, Note_on_c, 0, 61, 0
3, 154980, Note_on_c, 0, 85, 0
3, 154980, Note_on_c, 0, 73, 0
3, 154980, Note_on_c, 0, 81, 0
3, 154980, Note_on_c, 0, 57, 0
3, 154980, Note_on_c, 0, 74, 96
3, 154980, Note_on_c, 0, 83, 96
3, 154980, Note_on_c, 0, 86, 96
3, 154980, Note_on_c, 0, 59, 103
3, 154980, Note_on_c, 0, 62, 103
3, 155160, Note_on_c, 0, 62, 0
3, 155160, Note_on_c, 0, 86, 0
3, 155160, Note_on_c, 0, 74, 0
3, 155160, Note_on_c, 0, 83, 0
3, 155160, Note_on_c, 0, 59, 0
3, 155160, Note_on_c, 0, 76, 100
3, 155160, Note_on_c, 0, 85, 100
3, 155160, Note_on_c, 0, 88, 100
3, 155160, Note_on_c, 0, 61, 106
3, 155160, Note_on_c, 0, 64, 106
3, 155520, Note_on_c, 0, 64, 0
3, 155520, Note_on_c, 0, 88, 0
3, 155520, Note_on_c, 0, 76, 0
3, 155520, Note_on_c, 0, 85, 0
3, 155520, Note_on_c, 0, 61, 0
3, 155520, Note_on_c, 0, 79, 103
3, 155520, Note_on_c, 0, 82, 103
3, 155520, Note_on_c, 0, 85, 103
3, 155520, Note_on_c, 0, 90, 103
3, 155520, Note_on_c, 0, 55, 106
3, 155520, Note_on_c, 0, 58, 106
3, 155520, Note_on_c, 0, 61, 106
3, 155520, Note_on_c, 0, 66, 106
3, 155880, Note_on_c, 0, 66, 0
3, 155880, Note_on_c, 0, 79, 0
3, 155880, Note_on_c, 0, 55, 0
3, 155880, Note_on_c, 0, 82, 0
3, 155880, Note_on_c, 0, 85, 0
3, 155880, Note_on_c, 0, 90, 0
3, 155880, Note_on_c, 0, 58, 0
3, 155880, Note_on_c, 0, 61, 0
3, 155880, Note_on_c, 0, 74, 85
3, 155880, Note_on_c, 0, 78, 85
3, 155880, Note_on_c, 0, 86, 85
3, 155880, Note_on_c, 0, 50, 88
3, 155880, Note_on_c, 0, 54, 88
3, 155880, Note_on_c, 0, 62, 88
3, 156960, Note_on_c, 0, 62, 0
3, 156960, Note_on_c, 0, 78, 0
3, 156960, Note_on_c, 0, 86, 0
3, 156960, Note_on_c, 0, 74, 0
3, 156960, Note_on_c, 0, 54, 0
3, 156960, Note_on_c, 0, 50, 0
3, 156960, Note_on_c, 0, 73, 93
3, 156960, Note_on_c, 0, 81, 93
3, 156960, Note_on_c, 0, 85, 93
3, 156960, Note_on_c, 0, 57, 92
3, 156960, Note_on_c, 0, 61, 92
3, 157140, Note_on_c, 0, 61, 0
3, 157140, Note_on_c, 0, 85, 0
3, 157140, Note_on_c, 0, 73, 0
3, 157140, Note_on_c, 0, 81, 0
3, 157140, Note_on_c, 0, 57, 0
3, 157140, Note_on_c, 0, 74, 104
3, 157140, Note_on_c, 0, 83, 104
3, 157140, Note_on_c, 0, 86, 104
3, 157140, Note_on_c, 0, 59, 104
3, 157140, Note_on_c, 0, 62, 104
3, 157320, Note_on_c, 0, 62, 0
3, 157320, Note_on_c, 0, 86, 0
3, 157320, Note_on_c, 0, 74, 0
3, 157320, Note_on_c, 0, 83, 0
3, 157320, Note_on_c, 0, 59, 0
3, 157320, Note_on_c, 0, 76, 108
3, 157320, Note_on_c, 0, 85, 108
3, 157320, Note_on_c, 0, 88, 108
3, 157320, Note_on_c, 0, 52, 103
3, 157320, Note_on_c, 0, 61, 103
3, 157320, Note_on_c, 0, 64, 103
3, 157500, Note_on_c, 0, 64, 0
3, 157500, Note_on_c, 0, 85, 0
3, 157500, Note_on_c, 0, 88, 0
3, 157500, Note_on_c, 0, 76, 0
3, 157500, Note_on_c, 0, 61, 0
3, 157500, Note_on_c, 0, 52, 0
3, 157500, Note_on_c, 0, 78, 108
3, 157500, Note_on_c, 0, 86, 108
3, 157500, Note_on_c, 0, 90, 108
3, 157500, Note_on_c, 0, 54, 98
3, 157500, Note_on_c, 0, 62, 98
3, 157500, Note_on_c, 0, 66, 98
3, 157680, Note_on_c, 0, 66, 0
3, 157680, Note_on_c, 0, 86, 0
3, 157680, Note_on_c, 0, 90, 0
3, 157680, Note_on_c, 0, 78, 0
3, 157680, Note_on_c, 0, 62, 0
3, 157680, Note_on_c, 0, 54, 0
3, 157680, Note_on_c, 0, 79, 105
3, 157680, Note_on_c, 0, 88, 105
3, 157680, Note_on_c, 0, 91, 105
3, 157680, Note_on_c, 0, 55, 106
3, 157680, Note_on_c, 0, 64, 106
3, 157680, Note_on_c, 0, 67, 106
3, 157860, Note_on_c, 0, 67, 0
3, 157860, Note_on_c, 0, 88, 0
3, 157860, Note_on_c, 0, 91, 0
3, 157860, Note_on_c, 0, 79, 0
3, 157860, Note_on_c, 0, 64, 0
3, 157860, Note_on_c, 0, 55, 0
3, 157860, Note_on_c, 0, 83, 115
3, 157860, Note_on_c, 0, 91, 115
3, 157860, Note_on_c, 0, 95, 115
3, 157860, Note_on_c, 0, 59, 106
3, 157860, Note_on_c, 0, 67, 106
3, 157860, Note_on_c, 0, 71, 106
3, 158040, Note_on_c, 0, 71, 0
3, 158040, Note_on_c, 0, 91, 0
3, 158040, Note_on_c, 0, 95, 0
3, 158040, Note_on_c, 0, 83, 0
3, 158040, Note_on_c, 0, 67, 0
3, 158040, Note_on_c, 0, 59, 0
3, 158040, Note_on_c, 0, 81, 92
3, 158040, Note_on_c, 0, 90, 92
3, 158040, Note_on_c, 0, 93, 92
3, 158040, Note_on_c, 0, 57, 93
3, 158040, Note_on_c, 0, 66, 93
3, 158040, Note_on_c, 0, 69, 93
3, 158400, Note_on_c, 0, 69, 0
3, 158400, Note_on_c, 0, 90, 0
3, 158400, Note_on_c, 0, 93, 0
3, 158400, Note_on_c, 0, 81, 0
3, 158400, Note_on_c, 0, 66, 0
3, 158400, Note_on_c, 0, 57, 0
3, 158400, Note_on_c, 0, 79, 89
3, 158400, Note_on_c, 0, 88, 89
3, 158400, Note_on_c, 0, 91, 89
3, 158400, Note_on_c, 0, 55, 89
3, 158400, Note_on_c, 0, 64, 89
3, 158400, Note_on_c, 0, 67, 89
3, 158760, Note_on_c, 0, 67, 0
3, 158760, Note_on_c, 0, 88, 0
3, 158760, Note_on_c, 0, 91, 0
3, 158760, Note_on_c, 0, 79, 0
3, 158760, Note_on_c, 0, 64, 0
3, 158760, Note_on_c, 0, 55, 0
3, 158760, Note_on_c, 0, 78, 95
3, 158760, Note_on_c, 0, 86, 95
3, 158760, Note_on_c, 0, 90, 95
3, 158760, Note_on_c, 0, 54, 90
3, 158760, Note_on_c, 0, 62, 90
3, 158760, Note_on_c, 0, 66, 90
3, 159840, Note_on_c, 0, 66, 0
3, 159840, Note_on_c, 0, 86, 0
3, 159840, Note_on_c, 0, 90, 0
3, 159840, Note_on_c, 0, 78, 0
3, 159840, Note_on_c, 0, 62, 0
3, 159840, Note_on_c, 0, 54, 0
3, 160200, Note_on_c, 0, 54, 100
3, 160200, Note_on_c, 0, 57, 100
3, 160200, Note_on_c, 0, 60, 100
3, 160200, Note_on_c, 0, 38, 99
3, 160200, Note_on_c, 0, 45, 99
3, 160380, Note_on_c, 0, 45, 0
3, 160380, Note_on_c, 0, 60, 0
3, 160380, Note_on_c, 0, 54, 0
3, 160380, Note_on_c, 0, 57, 0
3, 160380, Note_on_c, 0, 38, 0
3, 160380, Note_on_c, 0, 60, 117
3, 160380, Note_on_c, 0, 64, 117
3, 160380, Note_on_c, 0, 54, 119
3, 160380, Note_on_c, 0, 57, 119
3, 160740, Note_on_c, 0, 57, 0
3, 160740, Note_on_c, 0, 60, 0
3, 160740, Note_on_c, 0, 64, 0
3, 160740, Note_on_c, 0, 54, 0
3, 160740, Note_on_c, 0, 64, 119
3, 160740, Note_on_c, 0, 66, 119
3, 160740, Note_on_c, 0, 57, 117
3, 160740, Note_on_c, 0, 60, 117
3, 160920, Note_on_c, 0, 60, 0
3, 160920, Note_on_c, 0, 64, 0
3, 160920, Note_on_c, 0, 64, 83
3, 160920, Note_on_c, 0, 60, 81
3, 161100, Note_on_c, 0, 60, 0
3, 161100, Note_on_c, 0, 66, 0
3, 161100, Note_on_c, 0, 57, 0
3, 161100, Note_on_c, 0, 64, 0
3, 161100, Note_on_c, 0, 66, 116
3, 161100, Note_on_c, 0, 69, 116
3, 161100, Note_on_c, 0, 60, 111
3, 161100, Note_on_c, 0, 62, 111
3, 161460, Note_on_c, 0, 62, 0
3, 161460, Note_on_c, 0, 66, 0
3, 161460, Note_on_c, 0, 69, 0
3, 161460, Note_on_c, 0, 60, 0
3, 161460, Note_on_c, 0, 69, 116
3, 161460, Note_on_c, 0, 72, 116
3, 161460, Note_on_c, 0, 62, 119
3, 161460, Note_on_c, 0, 66, 119
3, 161640, Note_on_c, 0, 66, 0
3, 161640, Note_on_c, 0, 69, 0
3, 161640, Note_on_c, 0, 72, 0
3, 161640, Note_on_c, 0, 62, 0
3, 161640, Note_on_c, 0, 76, 95
3, 161640, Note_on_c, 0, 62, 126
3, 161640, Note_on_c, 0, 67, 126
3, 161640, Note_on_c, 0, 71, 126
3, 161640, Note_on_c, 0, 73, 126
3, 161730, Note_on_c, 0, 76, 0
3, 161730, Note_on_c, 0, 78, 85
3, 161820, Note_on_c, 0, 78, 0
3, 161820, Note_on_c, 0, 73, 0
3, 161820, Note_on_c, 0, 62, 0
3, 161820, Note_on_c, 0, 67, 0
3, 161820, Note_on_c, 0, 71, 0
3, 161820, Note_on_c, 0, 79, 88
3, 161820, Note_on_c, 0, 67, 113
3, 161820, Note_on_c, 0, 71, 113
3, 161820, Note_on_c, 0, 73, 113
3, 161820, Note_on_c, 0, 76, 113
3, 161910, Note_on_c, 0, 79, 0
3, 161910, Note_on_c, 0, 81, 88
3, 162000, Note_on_c, 0, 81, 0
3, 162000, Note_on_c, 0, 82, 90
3, 162090, Note_on_c, 0, 82, 0
3, 162090, Note_on_c, 0, 84, 89
3, 162180, Note_on_c, 0, 84, 0
3, 162180, Note_on_c, 0, 76, 0
3, 162180, Note_on_c, 0, 67, 0
3, 162180, Note_on_c, 0, 71, 0
3, 162180, Note_on_c, 0, 73, 0
3, 162180, Note_on_c, 0, 85, 84
3, 162180, Note_on_c, 0, 71, 117
3, 162180, Note_on_c, 0, 73, 117
3, 162180, Note_on_c, 0, 76, 117
3, 162180, Note_on_c, 0, 79, 117
3, 162270, Note_on_c, 0, 85, 0
3, 162270, Note_on_c, 0, 88, 90
3, 162360, Note_on_c, 0, 88, 0
3, 162360, Note_on_c, 0, 79, 0
3, 162360, Note_on_c, 0, 71, 0
3, 162360, Note_on_c, 0, 73, 0
3, 162360, Note_on_c, 0, 76, 0
3, 162360, Note_on_c, 0, 86, 76
3, 162360, Note_on_c, 0, 74, 107
3, 162360, Note_on_c, 0, 78, 107
3, 162450, Note_on_c, 0, 86, 0
3, 162450, Note_on_c, 0, 88, 89
3, 162540, Note_on_c, 0, 88, 0
3, 162540, Note_on_c, 0, 78, 0
3, 162540, Note_on_c, 0, 74, 0
3, 162540, Note_on_c, 0, 89, 85
3, 162630, Note_on_c, 0, 89, 0
3, 162630, Note_on_c, 0, 90, 90
3, 162720, Note_on_c, 0, 90, 0
3, 162720, Note_on_c, 0, 93, 93
3, 162900, Note_on_c, 0, 93, 0
3, 163080, Note_on_c, 0, 54, 99
3, 163080, Note_on_c, 0, 57, 99
3, 163080, Note_on_c, 0, 60, 99
3, 163080, Note_on_c, 0, 38, 100
3, 163080, Note_on_c, 0, 45, 100
3, 163260, Note_on_c, 0, 45, 0
3, 163260, Note_on_c, 0, 60, 0
3, 163260, Note_on_c, 0, 54, 0
3, 163260, Note_on_c, 0, 57, 0
3, 163260, Note_on_c, 0, 38, 0
3, 163260, Note_on_c, 0, 60, 119
3, 163260, Note_on_c, 0, 64, 119
3, 163260, Note_on_c, 0, 54, 123
3, 163260, Note_on_c, 0, 57, 123
3, 163620, Note_on_c, 0, 57, 0
3, 163620, Note_on_c, 0, 60, 0
3, 163620, Note_on_c, 0, 64, 0
3, 163620, Note_on_c, 0, 54, 0
3, 163620, Note_on_c, 0, 64, 119
3, 163620, Note_on_c, 0, 66, 119
3, 163620, Note_on_c, 0, 57, 112
3, 163620, Note_on_c, 0, 60, 112
3, 163800, Note_on_c, 0, 60, 0
3, 163800, Note_on_c, 0, 64, 0
3, 163800, Note_on_c, 0, 64, 81
3, 163800, Note_on_c, 0, 60, 84
3, 163980, Note_on_c, 0, 60, 0
3, 163980, Note_on_c, 0, 66, 0
3, 163980, Note_on_c, 0, 57, 0
3, 163980, Note_on_c, 0, 64, 0
3, 163980, Note_on_c, 0, 66, 115
3, 163980, Note_on_c, 0, 69, 115
3, 163980, Note_on_c, 0, 60, 118
3, 163980, Note_on_c, 0, 62, 118
3, 164340, Note_on_c, 0, 62, 0
3, 164340, Note_on_c, 0, 66, 0
3, 164340, Note_on_c, 0, 69, 0
3, 164340, Note_on_c, 0, 60, 0
3, 164340, Note_on_c, 0, 69, 118
3, 164340, Note_on_c, 0, 72, 118
3, 164340, Note_on_c, 0, 62, 120
3, 164340, Note_on_c, 0, 66, 120
3, 164520, Note_on_c, 0, 66, 0
3, 164520, Note_on_c, 0, 69, 0
3, 164520, Note_on_c, 0, 72, 0
3, 164520, Note_on_c, 0, 62, 0
3, 164520, Note_on_c, 0, 76, 91
3, 164520, Note_on_c, 0, 62, 124
3, 164520, Note_on_c, 0, 67, 124
3, 164520, Note_on_c, 0, 71, 124
3, 164520, Note_on_c, 0, 73, 124
3, 164610, Note_on_c, 0, 76, 0
3, 164610, Note_on_c, 0, 78, 93
3, 164700, Note_on_c, 0, 78, 0
3, 164700, Note_on_c, 0, 73, 0
3, 164700, Note_on_c, 0, 62, 0
3, 164700, Note_on_c, 0, 67, 0
3, 164700, Note_on_c, 0, 71, 0
3, 164700, Note_on_c, 0, 79, 89
3, 164700, Note_on_c, 0, 67, 121
3, 164700, Note_on_c, 0, 71, 121
3, 164700, Note_on_c, 0, 73, 121
3, 164700, Note_on_c, 0, 76, 121
3, 164790, Note_on_c, 0, 79, 0
3, 164790, Note_on_c, 0, 81, 89
3, 164880, Note_on_c, 0, 81, 0
3, 164880, Note_on_c, 0, 82, 86
3, 164970, Note_on_c, 0, 82, 0
3, 164970, Note_on_c, 0, 84, 88
3, 165060, Note_on_c, 0, 84, 0
3, 165060, Note_on_c, 0, 76, 0
3, 165060, Note_on_c, 0, 67, 0
3, 165060, Note_on_c, 0, 71, 0
3, 165060, Note_on_c, 0, 73, 0
3, 165060, Note_on_c, 0, 85, 88
3, 165060, Note_on_c, 0, 71, 114
3, 165060, Note_on_c, 0, 73, 114
3, 165060, Note_on_c, 0, 76, 114
3, 165060, Note_on_c, 0, 79, 114
3, 165150, Note_on_c, 0, 85, 0
3, 165150, Note_on_c, 0, 88, 88
3, 165240, Note_on_c, 0, 88, 0
3, 165240, Note_on_c, 0, 79, 0
3, 165240, Note_on_c, 0, 71, 0
3, 165240, Note_on_c, 0, 73, 0
3, 165240, Note_on_c, 0, 76, 0
3, 165240, Note_on_c, 0, 86, 79
3, 165240, Note_on_c, 0, 74, 104
3, 165240, Note_on_c, 0, 78, 104
3, 165330, Note_on_c, 0, 86, 0
3, 165330, Note_on_c, 0, 88, 87
3, 165420, Note_on_c, 0, 88, 0
3, 165420, Note_on_c, 0, 78, 0
3, 165420, Note_on_c, 0, 74, 0
3, 165420, Note_on_c, 0, 89, 88
3, 165510, Note_on_c, 0, 89, 0
3, 165510, Note_on_c, 0, 90, 86
3, 165600, Note_on_c, 0, 90, 0
3, 165600, Note_on_c, 0, 98, 73
3, 165780, Note_on_c, 0, 98, 0
3, 165960, Note_on_c, 0, 54, 104
3, 165960, Note_on_c, 0, 57, 104
3, 165960, Note_on_c, 0, 60, 104
3, 165960, Note_on_c, 0, 38, 101
3, 165960, Note_on_c, 0, 45, 101
3, 166140, Note_on_c, 0, 45, 0
3, 166140, Note_on_c, 0, 60, 0
3, 166140, Note_on_c, 0, 54, 0
3, 166140, Note_on_c, 0, 57, 0
3, 166140, Note_on_c, 0, 38, 0
3, 166140, Note_on_c, 0, 60, 118
3, 166140, Note_on_c, 0, 64, 118
3, 166140, Note_on_c, 0, 54, 122
3, 166140, Note_on_c, 0, 57, 122
3, 166500, Note_on_c, 0, 57, 0
3, 166500, Note_on_c, 0, 60, 0
3, 166500, Note_on_c, 0, 64, 0
3, 166500, Note_on_c, 0, 54, 0
3, 166500, Note_on_c, 0, 64, 116
3, 166500, Note_on_c, 0, 66, 116
3, 166500, Note_on_c, 0, 57, 122
3, 166500, Note_on_c, 0, 60, 122
3, 166680, Note_on_c, 0, 60, 0
3, 166680, Note_on_c, 0, 64, 0
3, 166680, Note_on_c, 0, 64, 87
3, 166680, Note_on_c, 0, 60, 86
3, 166860, Note_on_c, 0, 60, 0
3, 166860, Note_on_c, 0, 66, 0
3, 166860, Note_on_c, 0, 57, 0
3, 166860, Note_on_c, 0, 64, 0
3, 166860, Note_on_c, 0, 66, 118
3, 166860, Note_on_c, 0, 69, 118
3, 166860, Note_on_c, 0, 60, 117
3, 166860, Note_on_c, 0, 62, 117
3, 167220, Note_on_c, 0, 62, 0
3, 167220, Note_on_c, 0, 66, 0
3, 167220, Note_on_c, 0, 69, 0
3, 167220, Note_on_c, 0, 60, 0
3, 167220, Note_on_c, 0, 69, 119
3, 167220, Note_on_c, 0, 72, 119
3, 167220, Note_on_c, 0, 62, 117
3, 167220, Note_on_c, 0, 66, 117
3, 167400, Note_on_c, 0, 66, 0
3, 167400, Note_on_c, 0, 69, 0
3, 167400, Note_on_c, 0, 72, 0
3, 167400, Note_on_c, 0, 62, 0
3, 167400, Note_on_c, 0, 67, 110
3, 167400, Note_on_c, 0, 70, 110
3, 167400, Note_on_c, 0, 73, 110
3, 167400, Note_on_c, 0, 50, 99
3, 167400, Note_on_c, 0, 55, 99
3, 167400, Note_on_c, 0, 58, 99
3, 167400, Note_on_c, 0, 61, 99
3, 167580, Note_on_c, 0, 61, 0
3, 167580, Note_on_c, 0, 55, 0
3, 167580, Note_on_c, 0, 70, 0
3, 167580, Note_on_c, 0, 73, 0
3, 167580, Note_on_c, 0, 67, 0
3, 167580, Note_on_c, 0, 58, 0
3, 167580, Note_on_c, 0, 50, 0
3, 167580, Note_on_c, 0, 67, 113
3, 167580, Note_on_c, 0, 70, 113
3, 167580, Note_on_c, 0, 73, 113
3, 167580, Note_on_c, 0, 75, 113
3, 167580, Note_on_c, 0, 50, 113
3, 167580, Note_on_c, 0, 55, 113
3, 167580, Note_on_c, 0, 58, 113
3, 167580, Note_on_c, 0, 63, 113
3, 167940, Note_on_c, 0, 63, 0
3, 167940, Note_on_c, 0, 67, 0
3, 167940, Note_on_c, 0, 50, 0
3, 167940, Note_on_c, 0, 70, 0
3, 167940, Note_on_c, 0, 73, 0
3, 167940, Note_on_c, 0, 75, 0
3, 167940, Note_on_c, 0, 55, 0
3, 167940, Note_on_c, 0, 58, 0
3, 167940, Note_on_c, 0, 67, 116
3, 167940, Note_on_c, 0, 70, 116
3, 167940, Note_on_c, 0, 73, 116
3, 167940, Note_on_c, 0, 76, 116
3, 167940, Note_on_c, 0, 50, 111
3, 167940, Note_on_c, 0, 55, 111
3, 167940, Note_on_c, 0, 58, 111
3, 167940, Note_on_c, 0, 64, 111
3, 168120, Note_on_c, 0, 64, 0
3, 168120, Note_on_c, 0, 67, 0
3, 168120, Note_on_c, 0, 50, 0
3, 168120, Note_on_c, 0, 70, 0
3, 168120, Note_on_c, 0, 73, 0
3, 168120, Note_on_c, 0, 76, 0
3, 168120, Note_on_c, 0, 55, 0
3, 168120, Note_on_c, 0, 58, 0
3, 168120, Note_on_c, 0, 70, 122
3, 168120, Note_on_c, 0, 73, 122
3, 168120, Note_on_c, 0, 82, 122
3, 168120, Note_on_c, 0, 64, 113
3, 168120, Note_on_c, 0, 67, 113
3, 168300, Note_on_c, 0, 67, 0
3, 168300, Note_on_c, 0, 82, 0
3, 168300, Note_on_c, 0, 70, 0
3, 168300, Note_on_c, 0, 73, 0
3, 168300, Note_on_c, 0, 64, 0
3, 168840, Note_on_c, 0, 48, 98
3, 168840, Note_on_c, 0, 38, 96
3, 168840, Note_on_c, 0, 45, 96
3, 169020, Note_on_c, 0, 45, 0
3, 169020, Note_on_c, 0, 38, 0
3, 169020, Note_on_c, 0, 48, 0
3, 169020, Note_on_c, 0, 48, 114
3, 169020, Note_on_c, 0, 52, 114
3, 169020, Note_on_c, 0, 38, 110
3, 169020, Note_on_c, 0, 45, 110
3, 169380, Note_on_c, 0, 45, 0
3, 169380, Note_on_c, 0, 48, 0
3, 169380, Note_on_c, 0, 52, 0
3, 169380, Note_on_c, 0, 38, 0
3, 169380, Note_on_c, 0, 52, 111
3, 169380, Note_on_c, 0, 54, 111
3, 169380, Note_on_c, 0, 45, 111
3, 169380, Note_on_c, 0, 48, 111
3, 169560, Note_on_c, 0, 48, 0
3, 169560, Note_on_c, 0, 52, 0
3, 169560, Note_on_c, 0, 52, 83
3, 169560, Note_on_c, 0, 48, 85
3, 169740, Note_on_c, 0, 48, 0
3, 169740, Note_on_c, 0, 54, 0
3, 169740, Note_on_c, 0, 45, 0
3, 169740, Note_on_c, 0, 52, 0
3, 169740, Note_on_c, 0, 54, 115
3, 169740, Note_on_c, 0, 57, 115
3, 169740, Note_on_c, 0, 48, 107
3, 169740, Note_on_c, 0, 50, 107
3, 170100, Note_on_c, 0, 50, 0
3, 170100, Note_on_c, 0, 54, 0
3, 170100, Note_on_c, 0, 57, 0
3, 170100, Note_on_c, 0, 48, 0
3, 170100, Note_on_c, 0, 57, 116
3, 170100, Note_on_c, 0, 60, 116
3, 170100, Note_on_c, 0, 50, 113
3, 170100, Note_on_c, 0, 54, 113
3, 170280, Note_on_c, 0, 54, 0
3, 170280, Note_on_c, 0, 57, 0
3, 170280, Note_on_c, 0, 60, 0
3, 170280, Note_on_c, 0, 50, 0
3, 170280, Note_on_c, 0, 55, 115
3, 170280, Note_on_c, 0, 58, 115
3, 170280, Note_on_c, 0, 61, 115
3, 170280, Note_on_c, 0, 38, 103
3, 170280, Note_on_c, 0, 46, 103
3, 170280, Note_on_c, 0, 49, 103
3, 170460, Note_on_c, 0, 49, 0
3, 170460, Note_on_c, 0, 58, 0
3, 170460, Note_on_c, 0, 61, 0
3, 170460, Note_on_c, 0, 55, 0
3, 170460, Note_on_c, 0, 46, 0
3, 170460, Note_on_c, 0, 38, 0
3, 170460, Note_on_c, 0, 55, 116
3, 170460, Note_on_c, 0, 58, 116
3, 170460, Note_on_c, 0, 61, 116
3, 170460, Note_on_c, 0, 63, 116
3, 170460, Note_on_c, 0, 38, 110
3, 170460, Note_on_c, 0, 46, 110
3, 170460, Note_on_c, 0, 51, 110
3, 170820, Note_on_c, 0, 51, 0
3, 170820, Note_on_c, 0, 38, 0
3, 170820, Note_on_c, 0, 58, 0
3, 170820, Note_on_c, 0, 61, 0
3, 170820, Note_on_c, 0, 55, 0
3, 170820, Note_on_c, 0, 46, 0
3, 170820, Note_on_c, 0, 63, 0
3, 170820, Note_on_c, 0, 55, 112
3, 170820, Note_on_c, 0, 58, 112
3, 170820, Note_on_c, 0, 61, 112
3, 170820, Note_on_c, 0, 64, 112
3, 170820, Note_on_c, 0, 38, 111
3, 170820, Note_on_c, 0, 46, 111
3, 170820, Note_on_c, 0, 52, 111
3, 171000, Note_on_c, 0, 52, 0
3, 171000, Note_on_c, 0, 38, 0
3, 171000, Note_on_c, 0, 58, 0
3, 171000, Note_on_c, 0, 61, 0
3, 171000, Note_on_c, 0, 55, 0
3, 171000, Note_on_c, 0, 46, 0
3, 171000, Note_on_c, 0, 64, 0
3, 171000, Note_on_c, 0, 58, 120
3, 171000, Note_on_c, 0, 61, 120
3, 171000, Note_on_c, 0, 70, 120
3, 171000, Note_on_c, 0, 52, 111
3, 171000, Note_on_c, 0, 55, 111
3, 171180, Note_on_c, 0, 55, 0
3, 171180, Note_on_c, 0, 70, 0
3, 171180, Note_on_c, 0, 58, 0
3, 171180, Note_on_c, 0, 61, 0
3, 171180, Note_on_c, 0, 52, 0
3, 171720, Note_on_c, 0, 57, 74
3, 171720, Note_on_c, 0, 62, 74
3, 171720, Note_on_c, 0, 66, 74
3, 171720, Note_on_c, 0, 54, 56
3, 171720, Note_on_c, 0, 38, 75
3, 171720, Note_on_c, 0, 45, 75
3, 171720, Note_on_c, 0, 50, 75
3, 171900, Note_on_c, 0, 50, 0
3, 171900, Note_on_c, 0, 38, 0
3, 171900, Note_on_c, 0, 54, 0
3, 171900, Note_on_c, 0, 45, 0
3, 171900, Note_on_c, 0, 54, 56
3, 171900, Note_on_c, 0, 38, 84
3, 171900, Note_on_c, 0, 45, 84
3, 171900, Note_on_c, 0, 50, 84
3, 172080, Note_on_c, 0, 50, 0
3, 172080, Note_on_c, 0, 38, 0
3, 172080, Note_on_c, 0, 66, 0
3, 172080, Note_on_c, 0, 57, 0
3, 172080, Note_on_c, 0, 62, 0
3, 172080, Note_on_c, 0, 45, 0
3, 172080, Note_on_c, 0, 54, 0
3, 172080, Note_on_c, 0, 52, 68
3, 172080, Note_on_c, 0, 58, 68
3, 172080, Note_on_c, 0, 61, 68
3, 172080, Note_on_c, 0, 49, 55
3, 172080, Note_on_c, 0, 31, 82
3, 172080, Note_on_c, 0, 40, 82
3, 172080, Note_on_c, 0, 43, 82
3, 172260, Note_on_c, 0, 43, 0
3, 172260, Note_on_c, 0, 31, 0
3, 172260, Note_on_c, 0, 49, 0
3, 172260, Note_on_c, 0, 40, 0
3, 172260, Note_on_c, 0, 49, 56
3, 172260, Note_on_c, 0, 31, 84
3, 172260, Note_on_c, 0, 40, 84
3, 172260, Note_on_c, 0, 43, 84
3, 172440, Note_on_c, 0, 43, 0
3, 172440, Note_on_c, 0, 31, 0
3, 172440, Note_on_c, 0, 61, 0
3, 172440, Note_on_c, 0, 52, 0
3, 172440, Note_on_c, 0, 58, 0
3, 172440, Note_on_c, 0, 40, 0
3, 172440, Note_on_c, 0, 49, 0
3, 172440, Note_on_c, 0, 57, 90
3, 172440, Note_on_c, 0, 62, 90
3, 172440, Note_on_c, 0, 66, 90
3, 172440, Note_on_c, 0, 54, 63
3, 172440, Note_on_c, 0, 38, 90
3, 172440, Note_on_c, 0, 45, 90
3, 172440, Note_on_c, 0, 50, 90
3, 172620, Note_on_c, 0, 50, 0
3, 172620, Note_on_c, 0, 38, 0
3, 172620, Note_on_c, 0, 54, 0
3, 172620, Note_on_c, 0, 45, 0
3, 172620, Note_on_c, 0, 54, 60
3, 172620, Note_on_c, 0, 38, 84
3, 172620, Note_on_c, 0, 45, 84
3, 172620, Note_on_c, 0, 50, 84
3, 172800, Note_on_c, 0, 50, 0
3, 172800, Note_on_c, 0, 38, 0
3, 172800, Note_on_c, 0, 66, 0
3, 172800, Note_on_c, 0, 57, 0
3, 172800, Note_on_c, 0, 62, 0
3, 172800, Note_on_c, 0, 45, 0
3, 172800, Note_on_c, 0, 54, 0
3, 172800, Note_on_c, 0, 64, 97
3, 172800, Note_on_c, 0, 70, 97
3, 172800, Note_on_c, 0, 73, 97
3, 172800, Note_on_c, 0, 61, 74
3, 172800, Note_on_c, 0, 43, 92
3, 172800, Note_on_c, 0, 52, 92
3, 172800, Note_on_c, 0, 55, 92
3, 172980, Note_on_c, 0, 55, 0
3, 172980, Note_on_c, 0, 43, 0
3, 172980, Note_on_c, 0, 61, 0
3, 172980, Note_on_c, 0, 52, 0
3, 172980, Note_on_c, 0, 61, 66
3, 172980, Note_on_c, 0, 43, 86
3, 172980, Note_on_c, 0, 52, 86
3, 172980, Note_on_c, 0, 55, 86
3, 173160, Note_on_c, 0, 55, 0
3, 173160, Note_on_c, 0, 43, 0
3, 173160, Note_on_c, 0, 73, 0
3, 173160, Note_on_c, 0, 64, 0
3, 173160, Note_on_c, 0, 70, 0
3, 173160, Note_on_c, 0, 52, 0
3, 173160, Note_on_c, 0, 61, 0
3, 173160, Note_on_c, 0, 66, 99
3, 173160, Note_on_c, 0, 69, 99
3, 173160, Note_on_c, 0, 74, 99
3, 173160, Note_on_c, 0, 78, 99
3, 173160, Note_on_c, 0, 50, 101
3, 173160, Note_on_c, 0, 54, 101
3, 173160, Note_on_c, 0, 57, 101
3, 173160, Note_on_c, 0, 62, 101
3, 173340, Note_on_c, 0, 62, 0
3, 173340, Note_on_c, 0, 66, 0
3, 173340, Note_on_c, 0, 50, 0
3, 173340, Note_on_c, 0, 69, 0
3, 173340, Note_on_c, 0, 74, 0
3, 173340, Note_on_c, 0, 78, 0
3, 173340, Note_on_c, 0, 54, 0
3, 173340, Note_on_c, 0, 57, 0
3, 173340, Note_on_c, 0, 66, 88
3, 173340, Note_on_c, 0, 69, 88
3, 173340, Note_on_c, 0, 74, 88
3, 173340, Note_on_c, 0, 78, 88
3, 173340, Note_on_c, 0, 50, 86
3, 173340, Note_on_c, 0, 54, 86
3, 173340, Note_on_c, 0, 57, 86
3, 173340, Note_on_c, 0, 62, 86
3, 173520, Note_on_c, 0, 62, 0
3, 173520, Note_on_c, 0, 66, 0
3, 173520, Note_on_c, 0, 50, 0
3, 173520, Note_on_c, 0, 69, 0
3, 173520, Note_on_c, 0, 74, 0
3, 173520, Note_on_c, 0, 78, 0
3, 173520, Note_on_c, 0, 54, 0
3, 173520, Note_on_c, 0, 57, 0
3, 173520, Note_on_c, 0, 73, 100
3, 173520, Note_on_c, 0, 76, 100
3, 173520, Note_on_c, 0, 82, 100
3, 173520, Note_on_c, 0, 85, 100
3, 173520, Note_on_c, 0, 55, 96
3, 173520, Note_on_c, 0, 61, 96
3, 173520, Note_on_c, 0, 64, 96
3, 173520, Note_on_c, 0, 67, 96
3, 173700, Note_on_c, 0, 67, 0
3, 173700, Note_on_c, 0, 73, 0
3, 173700, Note_on_c, 0, 55, 0
3, 173700, Note_on_c, 0, 76, 0
3, 173700, Note_on_c, 0, 82, 0
3, 173700, Note_on_c, 0, 85, 0
3, 173700, Note_on_c, 0, 61, 0
3, 173700, Note_on_c, 0, 64, 0
3, 173700, Note_on_c, 0, 73, 87
3, 173700, Note_on_c, 0, 76, 87
3, 173700, Note_on_c, 0, 82, 87
3, 173700, Note_on_c, 0, 85, 87
3, 173700, Note_on_c, 0, 55, 78
3, 173700, Note_on_c, 0, 61, 78
3, 173700, Note_on_c, 0, 64, 78
3, 173700, Note_on_c, 0, 67, 78
3, 173880, Note_on_c, 0, 67, 0
3, 173880, Note_on_c, 0, 73, 0
3, 173880, Note_on_c, 0, 55, 0
3, 173880, Note_on_c, 0, 76, 0
3, 173880, Note_on_c, 0, 82, 0
3, 173880, Note_on_c, 0, 85, 0
3, 173880, Note_on_c, 0, 61, 0
3, 173880, Note_on_c, 0, 64, 0
3, 173880, Note_on_c, 0, 78, 94
3, 173880, Note_on_c, 0, 81, 94
3, 173880, Note_on_c, 0, 86, 94
3, 173880, Note_on_c, 0, 90, 94
3, 173880, Note_on_c, 0, 62, 99
3, 173880, Note_on_c, 0, 66, 99
3, 173880, Note_on_c, 0, 69, 99
3, 173880, Note_on_c, 0, 74, 99
3, 174060, Note_on_c, 0, 74, 0
3, 174060, Note_on_c, 0, 78, 0
3, 174060, Note_on_c, 0, 62, 0
3, 174060, Note_on_c, 0, 81, 0
3, 174060, Note_on_c, 0, 86, 0
3, 174060, Note_on_c, 0, 90, 0
3, 174060, Note_on_c, 0, 66, 0
3, 174060, Note_on_c, 0, 69, 0
3, 174060, Note_on_c, 0, 74, 77
3, 174060, Note_on_c, 0, 86, 77
3, 174060, Note_on_c, 0, 50, 62
3, 174060, Note_on_c, 0, 62, 62
3, 174240, Note_on_c, 0, 62, 0
3, 174240, Note_on_c, 0, 74, 0
3, 174240, Note_on_c, 0, 86, 0
3, 174240, Note_on_c, 0, 50, 0
3, 174240, Note_on_c, 0, 62, 55
3, 174240, Note_on_c, 0, 74, 55
3, 174240, Note_on_c, 0, 38, 68
3, 174240, Note_on_c, 0, 50, 68
3, 174420, Note_on_c, 0, 50, 0
3, 174420, Note_on_c, 0, 62, 0
3, 174420, Note_on_c, 0, 74, 0
3, 174420, Note_on_c, 0, 38, 0
3, 174420, Note_on_c, 0, 50, 61
3, 174420, Note_on_c, 0, 62, 61
3, 174420, Note_on_c, 0, 26, 79
3, 174420, Note_on_c, 0, 38, 79
3, 174600, Note_on_c, 0, 38, 0
3, 174600, Note_on_c, 0, 50, 0
3, 174600, Note_on_c, 0, 62, 0
3, 174600, Note_on_c, 0, 26, 0
3, 174600, Note_on_c, 0, 50, 78
3, 174600, Note_on_c, 0, 55, 78
3, 174600, Note_on_c, 0, 59, 78
3, 174600, Note_on_c, 0, 62, 78
3, 174600, Note_on_c, 0, 31, 86
3, 174600, Note_on_c, 0, 43, 86
3, 174780, Note_on_c, 0, 43, 0
3, 174780, Note_on_c, 0, 31, 0
3, 174780, Note_on_c, 0, 31, 80
3, 174780, Note_on_c, 0, 43, 80
3, 174960, Note_on_c, 0, 59, 0
3, 174960, Note_on_c, 0, 62, 0
3, 174960, Note_on_c, 0, 50, 0
3, 174960, Note_on_c, 0, 55, 0
3, 174960, Note_on_c, 0, 51, 83
3, 174960, Note_on_c, 0, 55, 83
3, 174960, Note_on_c, 0, 59, 83
3, 174960, Note_on_c, 0, 63, 83
3, 175140, Note_on_c, 0, 43, 0
3, 175140, Note_on_c, 0, 31, 0
3, 175140, Note_on_c, 0, 31, 82
3, 175140, Note_on_c, 0, 43, 82
3, 175320, Note_on_c, 0, 59, 0
3, 175320, Note_on_c, 0, 51, 0
3, 175320, Note_on_c, 0, 55, 0
3, 175320, Note_on_c, 0, 63, 0
3, 175320, Note_on_c, 0, 52, 89
3, 175320, Note_on_c, 0, 55, 89
3, 175320, Note_on_c, 0, 59, 89
3, 175320, Note_on_c, 0, 64, 89
3, 175500, Note_on_c, 0, 43, 0
3, 175500, Note_on_c, 0, 31, 0
3, 175500, Note_on_c, 0, 31, 87
3, 175500, Note_on_c, 0, 43, 87
3, 175680, Note_on_c, 0, 59, 0
3, 175680, Note_on_c, 0, 52, 0
3, 175680, Note_on_c, 0, 55, 0
3, 175680, Note_on_c, 0, 64, 0
3, 175680, Note_on_c, 0, 51, 82
3, 175680, Note_on_c, 0, 55, 82
3, 175680, Note_on_c, 0, 59, 82
3, 175680, Note_on_c, 0, 63, 82
3, 175860, Note_on_c, 0, 43, 0
3, 175860, Note_on_c, 0, 31, 0
3, 175860, Note_on_c, 0, 31, 77
3, 175860, Note_on_c, 0, 43, 77
3, 176040, Note_on_c, 0, 59, 0
3, 176040, Note_on_c, 0, 51, 0
3, 176040, Note_on_c, 0, 55, 0
3, 176040, Note_on_c, 0, 63, 0
3, 176040, Note_on_c, 0, 50, 79
3, 176040, Note_on_c, 0, 55, 79
3, 176040, Note_on_c, 0, 59, 79
3, 176040, Note_on_c, 0, 62, 79
3, 176220, Note_on_c, 0, 43, 0
3, 176220, Note_on_c, 0, 31, 0
3, 176220, Note_on_c, 0, 31, 82
3, 176220, Note_on_c, 0, 43, 82
3, 176400, Note_on_c, 0, 59, 0
3, 176400, Note_on_c, 0, 50, 0
3, 176400, Note_on_c, 0, 55, 0
3, 176400, Note_on_c, 0, 62, 0
3, 176400, Note_on_c, 0, 51, 82
3, 176400, Note_on_c, 0, 55, 82
3, 176400, Note_on_c, 0, 59, 82
3, 176400, Note_on_c, 0, 63, 82
3, 176580, Note_on_c, 0, 43, 0
3, 176580, Note_on_c, 0, 31, 0
3, 176580, Note_on_c, 0, 31, 81
3, 176580, Note_on_c, 0, 43, 81
3, 176760, Note_on_c, 0, 43, 0
3, 176760, Note_on_c, 0, 63, 0
3, 176760, Note_on_c, 0, 51, 0
3, 176760, Note_on_c, 0, 55, 0
3, 176760, Note_on_c, 0, 31, 0
3, 176760, Note_on_c, 0, 59, 0
3, 176760, Note_on_c, 0, 52, 90
3, 176760, Note_on_c, 0, 55, 90
3, 176760, Note_on_c, 0, 59, 90
3, 176760, Note_on_c, 0, 64, 90
3, 176760, Note_on_c, 0, 40, 88
3, 176760, Note_on_c, 0, 47, 88
3, 176940, Note_on_c, 0, 47, 0
3, 176940, Note_on_c, 0, 55, 0
3, 176940, Note_on_c, 0, 59, 0
3, 176940, Note_on_c, 0, 52, 0
3, 176940, Note_on_c, 0, 40, 0
3, 176940, Note_on_c, 0, 64, 0
3, 176940, Note_on_c, 0, 52, 83
3, 176940, Note_on_c, 0, 54, 83
3, 176940, Note_on_c, 0, 57, 83
3, 176940, Note_on_c, 0, 64, 83
3, 176940, Note_on_c, 0, 40, 82
3, 176940, Note_on_c, 0, 48, 82
3, 177120, Note_on_c, 0, 48, 0
3, 177120, Note_on_c, 0, 54, 0
3, 177120, Note_on_c, 0, 57, 0
3, 177120, Note_on_c, 0, 52, 0
3, 177120, Note_on_c, 0, 40, 0
3, 177120, Note_on_c, 0, 64, 0
3, 177120, Note_on_c, 0, 52, 80
3, 177120, Note_on_c, 0, 55, 80
3, 177120, Note_on_c, 0, 59, 80
3, 177120, Note_on_c, 0, 64, 80
3, 177120, Note_on_c, 0, 38, 81
3, 177120, Note_on_c, 0, 47, 81
3, 177480, Note_on_c, 0, 47, 0
3, 177480, Note_on_c, 0, 55, 0
3, 177480, Note_on_c, 0, 59, 0
3, 177480, Note_on_c, 0, 52, 0
3, 177480, Note_on_c, 0, 38, 0
3, 177480, Note_on_c, 0, 64, 0
3, 177480, Note_on_c, 0, 50, 74
3, 177480, Note_on_c, 0, 55, 74
3, 177480, Note_on_c, 0, 59, 74
3, 177480, Note_on_c, 0, 62, 74
3, 177480, Note_on_c, 0, 31, 80
3, 177480, Note_on_c, 0, 43, 80
3, 177660, Note_on_c, 0, 43, 0
3, 177660, Note_on_c, 0, 31, 0
3, 177660, Note_on_c, 0, 31, 79
3, 177660, Note_on_c, 0, 43, 79
3, 177840, Note_on_c, 0, 59, 0
3, 177840, Note_on_c, 0, 62, 0
3, 177840, Note_on_c, 0, 50, 0
3, 177840, Note_on_c, 0, 55, 0
3, 177840, Note_on_c, 0, 51, 85
3, 177840, Note_on_c, 0, 55, 85
3, 177840, Note_on_c, 0, 59, 85
3, 177840, Note_on_c, 0, 63, 85
3, 178020, Note_on_c, 0, 43, 0
3, 178020, Note_on_c, 0, 31, 0
3, 178020, Note_on_c, 0, 31, 82
3, 178020, Note_on_c, 0, 43, 82
3, 178200, Note_on_c, 0, 59, 0
3, 178200, Note_on_c, 0, 51, 0
3, 178200, Note_on_c, 0, 55, 0
3, 178200, Note_on_c, 0, 63, 0
3, 178200, Note_on_c, 0, 52, 88
3, 178200, Note_on_c, 0, 55, 88
3, 178200, Note_on_c, 0, 59, 88
3, 178200, Note_on_c, 0, 64, 88
3, 178380, Note_on_c, 0, 43, 0
3, 178380, Note_on_c, 0, 31, 0
3, 178380, Note_on_c, 0, 31, 79
3, 178380, Note_on_c, 0, 43, 79
3, 178560, Note_on_c, 0, 59, 0
3, 178560, Note_on_c, 0, 52, 0
3, 178560, Note_on_c, 0, 55, 0
3, 178560, Note_on_c, 0, 64, 0
3, 178560, Note_on_c, 0, 51, 82
3, 178560, Note_on_c, 0, 55, 82
3, 178560, Note_on_c, 0, 59, 82
3, 178560, Note_on_c, 0, 63, 82
3, 178740, Note_on_c, 0, 43, 0
3, 178740, Note_on_c, 0, 31, 0
3, 178740, Note_on_c, 0, 31, 83
3, 178740, Note_on_c, 0, 43, 83
3, 178920, Note_on_c, 0, 59, 0
3, 178920, Note_on_c, 0, 51, 0
3, 178920, Note_on_c, 0, 55, 0
3, 178920, Note_on_c, 0, 63, 0
3, 178920, Note_on_c, 0, 50, 79
3, 178920, Note_on_c, 0, 55, 79
3, 178920, Note_on_c, 0, 59, 79
3, 178920, Note_on_c, 0, 62, 79
3, 179100, Note_on_c, 0, 43, 0
3, 179100, Note_on_c, 0, 31, 0
3, 179100, Note_on_c, 0, 31, 82
3, 179100, Note_on_c, 0, 43, 82
3, 179280, Note_on_c, 0, 59, 0
3, 179280, Note_on_c, 0, 50, 0
3, 179280, Note_on_c, 0, 55, 0
3, 179280, Note_on_c, 0, 62, 0
3, 179280, Note_on_c, 0, 51, 86
3, 179280, Note_on_c, 0, 55, 86
3, 179280, Note_on_c, 0, 59, 86
3, 179280, Note_on_c, 0, 63, 86
3, 179460, Note_on_c, 0, 43, 0
3, 179460, Note_on_c, 0, 31, 0
3, 179460, Note_on_c, 0, 31, 78
3, 179460, Note_on_c, 0, 43, 78
3, 179640, Note_on_c, 0, 43, 0
3, 179640, Note_on_c, 0, 63, 0
3, 179640, Note_on_c, 0, 51, 0
3, 179640, Note_on_c, 0, 55, 0
3, 179640, Note_on_c, 0, 31, 0
3, 179640, Note_on_c, 0, 59, 0
3, 179640, Note_on_c, 0, 52, 85
3, 179640, Note_on_c, 0, 55, 85
3, 179640, Note_on_c, 0, 59, 85
3, 179640, Note_on_c, 0, 64, 85
3, 179640, Note_on_c, 0, 40, 85
3, 179640, Note_on_c, 0, 47, 85
3, 179820, Note_on_c, 0, 47, 0
3, 179820, Note_on_c, 0, 55, 0
3, 179820, Note_on_c, 0, 59, 0
3, 179820, Note_on_c, 0, 52, 0
3, 179820, Note_on_c, 0, 40, 0
3, 179820, Note_on_c, 0, 64, 0
3, 179820, Note_on_c, 0, 54, 91
3, 179820, Note_on_c, 0, 57, 91
3, 179820, Note_on_c, 0, 64, 91
3, 179820, Note_on_c, 0, 66, 91
3, 179820, Note_on_c, 0, 40, 82
3, 179820, Note_on_c, 0, 48, 82
3, 180000, Note_on_c, 0, 48, 0
3, 180000, Note_on_c, 0, 57, 0
3, 180000, Note_on_c, 0, 64, 0
3, 180000, Note_on_c, 0, 54, 0
3, 180000, Note_on_c, 0, 40, 0
3, 180000, Note_on_c, 0, 66, 0
3, 180000, Note_on_c, 0, 55, 92
3, 180000, Note_on_c, 0, 59, 92
3, 180000, Note_on_c, 0, 64, 92
3, 180000, Note_on_c, 0, 67, 92
3, 180000, Note_on_c, 0, 40, 76
3, 180000, Note_on_c, 0, 47, 76
3, 180180, Note_on_c, 0, 47, 0
3, 180180, Note_on_c, 0, 59, 0
3, 180180, Note_on_c, 0, 64, 0
3, 180180, Note_on_c, 0, 55, 0
3, 180180, Note_on_c, 0, 40, 0
3, 180180, Note_on_c, 0, 67, 0
3, 180360, Note_on_c, 0, 54, 75
3, 180360, Note_on_c, 0, 60, 75
3, 180360, Note_on_c, 0, 62, 75
3, 180360, Note_on_c, 0, 50, 73
3, 180360, Note_on_c, 0, 50, 63
3, 180540, Note_on_c, 0, 50, 0
3, 180540, Note_on_c, 0, 38, 49
3, 180720, Note_on_c, 0, 38, 0
3, 180720, Note_on_c, 0, 50, 0
3, 180720, Note_on_c, 0, 54, 0
3, 180720, Note_on_c, 0, 60, 0
3, 180720, Note_on_c, 0, 62, 0
3, 180720, Note_on_c, 0, 54, 78
3, 180720, Note_on_c, 0, 60, 78
3, 180720, Note_on_c, 0, 62, 78
3, 180720, Note_on_c, 0, 50, 85
3, 180900, Note_on_c, 0, 50, 0
3, 180900, Note_on_c, 0, 54, 0
3, 180900, Note_on_c, 0, 60, 0
3, 180900, Note_on_c, 0, 62, 0
3, 180900, Note_on_c, 0, 54, 90
3, 180900, Note_on_c, 0, 60, 90
3, 180900, Note_on_c, 0, 63, 90
3, 180900, Note_on_c, 0, 51, 85
3, 181080, Note_on_c, 0, 51, 0
3, 181080, Note_on_c, 0, 54, 0
3, 181080, Note_on_c, 0, 60, 0
3, 181080, Note_on_c, 0, 63, 0
3, 181080, Note_on_c, 0, 55, 89
3, 181080, Note_on_c, 0, 59, 89
3, 181080, Note_on_c, 0, 64, 89
3, 181080, Note_on_c, 0, 38, 84
3, 181080, Note_on_c, 0, 52, 84
3, 181260, Note_on_c, 0, 52, 0
3, 181260, Note_on_c, 0, 38, 0
3, 181260, Note_on_c, 0, 26, 75
3, 181260, Note_on_c, 0, 38, 75
3, 181440, Note_on_c, 0, 38, 0
3, 181440, Note_on_c, 0, 26, 0
3, 181440, Note_on_c, 0, 26, 82
3, 181440, Note_on_c, 0, 38, 82
3, 181620, Note_on_c, 0, 64, 0
3, 181620, Note_on_c, 0, 55, 0
3, 181620, Note_on_c, 0, 59, 0
3, 181800, Note_on_c, 0, 26, 0
3, 181800, Note_on_c, 0, 38, 0
3, 181800, Note_on_c, 0, 54, 74
3, 181800, Note_on_c, 0, 60, 74
3, 181800, Note_on_c, 0, 62, 74
3, 181800, Note_on_c, 0, 50, 94
3, 181800, Note_on_c, 0, 50, 56
3, 181980, Note_on_c, 0, 50, 0
3, 181980, Note_on_c, 0, 38, 54
3, 182160, Note_on_c, 0, 38, 0
3, 182160, Note_on_c, 0, 50, 0
3, 182160, Note_on_c, 0, 54, 0
3, 182160, Note_on_c, 0, 60, 0
3, 182160, Note_on_c, 0, 62, 0
3, 182160, Note_on_c, 0, 54, 89
3, 182160, Note_on_c, 0, 60, 89
3, 182160, Note_on_c, 0, 63, 89
3, 182160, Note_on_c, 0, 51, 88
3, 182340, Note_on_c, 0, 51, 0
3, 182340, Note_on_c, 0, 54, 0
3, 182340, Note_on_c, 0, 60, 0
3, 182340, Note_on_c, 0, 63, 0
3, 182340, Note_on_c, 0, 66, 92
3, 182340, Note_on_c, 0, 54, 85
3, 182520, Note_on_c, 0, 54, 0
3, 182520, Note_on_c, 0, 66, 0
3, 182520, Note_on_c, 0, 71, 94
3, 182520, Note_on_c, 0, 60, 69
3, 182520, Note_on_c, 0, 64, 69
3, 182520, Note_on_c, 0, 59, 90
3, 182520, Note_on_c, 0, 48, 53
3, 182520, Note_on_c, 0, 52, 53
3, 182610, Note_on_c, 0, 59, 0
3, 182610, Note_on_c, 0, 71, 0
3, 182610, Note_on_c, 0, 69, 82
3, 182610, Note_on_c, 0, 57, 80
3, 182700, Note_on_c, 0, 57, 0
3, 182700, Note_on_c, 0, 69, 0
3, 182700, Note_on_c, 0, 67, 78
3, 182700, Note_on_c, 0, 55, 80
3, 182790, Note_on_c, 0, 55, 0
3, 182790, Note_on_c, 0, 67, 0
3, 182790, Note_on_c, 0, 66, 77
3, 182790, Note_on_c, 0, 54, 78
3, 182880, Note_on_c, 0, 54, 0
3, 182880, Note_on_c, 0, 66, 0
3, 182880, Note_on_c, 0, 64, 78
3, 182880, Note_on_c, 0, 52, 79
3, 183060, Note_on_c, 0, 52, 0
3, 183060, Note_on_c, 0, 52, 0
3, 183060, Note_on_c, 0, 48, 0
3, 183060, Note_on_c, 0, 60, 0
3, 183060, Note_on_c, 0, 64, 0
3, 183060, Note_on_c, 0, 64, 0
3, 183240, Note_on_c, 0, 62, 72
3, 183240, Note_on_c, 0, 66, 72
3, 183240, Note_on_c, 0, 72, 72
3, 183240, Note_on_c, 0, 74, 72
3, 183240, Note_on_c, 0, 50, 75
3, 183240, Note_on_c, 0, 57, 75
3, 183240, Note_on_c, 0, 60, 75
3, 183420, Note_on_c, 0, 38, 56
3, 183420, Note_on_c, 0, 50, 56
3, 183600, Note_on_c, 0, 50, 0
3, 183600, Note_on_c, 0, 74, 0
3, 183600, Note_on_c, 0, 62, 0
3, 183600, Note_on_c, 0, 50, 0
3, 183600, Note_on_c, 0, 66, 0
3, 183600, Note_on_c, 0, 72, 0
3, 183600, Note_on_c, 0, 60, 0
3, 183600, Note_on_c, 0, 57, 0
3, 183600, Note_on_c, 0, 38, 0
3, 183600, Note_on_c, 0, 62, 85
3, 183600, Note_on_c, 0, 66, 85
3, 183600, Note_on_c, 0, 72, 85
3, 183600, Note_on_c, 0, 74, 85
3, 183600, Note_on_c, 0, 50, 81
3, 183600, Note_on_c, 0, 57, 81
3, 183600, Note_on_c, 0, 60, 81
3, 183780, Note_on_c, 0, 60, 0
3, 183780, Note_on_c, 0, 50, 0
3, 183780, Note_on_c, 0, 66, 0
3, 183780, Note_on_c, 0, 72, 0
3, 183780, Note_on_c, 0, 62, 0
3, 183780, Note_on_c, 0, 57, 0
3, 183780, Note_on_c, 0, 74, 0
3, 183780, Note_on_c, 0, 63, 92
3, 183780, Note_on_c, 0, 66, 92
3, 183780, Note_on_c, 0, 72, 92
3, 183780, Note_on_c, 0, 75, 92
3, 183780, Note_on_c, 0, 51, 80
3, 183780, Note_on_c, 0, 57, 80
3, 183780, Note_on_c, 0, 60, 80
3, 183960, Note_on_c, 0, 60, 0
3, 183960, Note_on_c, 0, 51, 0
3, 183960, Note_on_c, 0, 66, 0
3, 183960, Note_on_c, 0, 72, 0
3, 183960, Note_on_c, 0, 63, 0
3, 183960, Note_on_c, 0, 57, 0
3, 183960, Note_on_c, 0, 75, 0
3, 183960, Note_on_c, 0, 64, 88
3, 183960, Note_on_c, 0, 67, 88
3, 183960, Note_on_c, 0, 71, 88
3, 183960, Note_on_c, 0, 76, 88
3, 183960, Note_on_c, 0, 52, 83
3, 183960, Note_on_c, 0, 55, 83
3, 183960, Note_on_c, 0, 59, 83
3, 184140, Note_on_c, 0, 38, 55
3, 184140, Note_on_c, 0, 50, 55
3, 184320, Note_on_c, 0, 50, 0
3, 184320, Note_on_c, 0, 38, 0
3, 184320, Note_on_c, 0, 26, 54
3, 184320, Note_on_c, 0, 38, 54
3, 184500, Note_on_c, 0, 38, 0
3, 184500, Note_on_c, 0, 26, 0
3, 184680, Note_on_c, 0, 59, 0
3, 184680, Note_on_c, 0, 52, 0
3, 184680, Note_on_c, 0, 67, 0
3, 184680, Note_on_c, 0, 71, 0
3, 184680, Note_on_c, 0, 64, 0
3, 184680, Note_on_c, 0, 55, 0
3, 184680, Note_on_c, 0, 76, 0
3, 184680, Note_on_c, 0, 62, 79
3, 184680, Note_on_c, 0, 66, 79
3, 184680, Note_on_c, 0, 72, 79
3, 184680, Note_on_c, 0, 74, 79
3, 184680, Note_on_c, 0, 50, 80
3, 184680, Note_on_c, 0, 57, 80
3, 184860, Note_on_c, 0, 38, 56
3, 184860, Note_on_c, 0, 50, 56
3, 185040, Note_on_c, 0, 50, 0
3, 185040, Note_on_c, 0, 62, 0
3, 185040, Note_on_c, 0, 50, 0
3, 185040, Note_on_c, 0, 66, 0
3, 185040, Note_on_c, 0, 72, 0
3, 185040, Note_on_c, 0, 74, 0
3, 185040, Note_on_c, 0, 57, 0
3, 185040, Note_on_c, 0, 38, 0
3, 185040, Note_on_c, 0, 64, 83
3, 185040, Note_on_c, 0, 71, 83
3, 185040, Note_on_c, 0, 76, 83
3, 185040, Note_on_c, 0, 50, 81
3, 185040, Note_on_c, 0, 55, 81
3, 185220, Note_on_c, 0, 55, 0
3, 185220, Note_on_c, 0, 76, 0
3, 185220, Note_on_c, 0, 64, 0
3, 185220, Note_on_c, 0, 71, 0
3, 185220, Note_on_c, 0, 50, 0
3, 185220, Note_on_c, 0, 66, 84
3, 185220, Note_on_c, 0, 72, 84
3, 185220, Note_on_c, 0, 78, 84
3, 185220, Note_on_c, 0, 50, 89
3, 185220, Note_on_c, 0, 57, 89
3, 185400, Note_on_c, 0, 57, 0
3, 185400, Note_on_c, 0, 78, 0
3, 185400, Note_on_c, 0, 66, 0
3, 185400, Note_on_c, 0, 72, 0
3, 185400, Note_on_c, 0, 50, 0
3, 185400, Note_on_c, 0, 69, 91
3, 185400, Note_on_c, 0, 81, 91
3, 185400, Note_on_c, 0, 74, 74
3, 185400, Note_on_c, 0, 43, 86
3, 185400, Note_on_c, 0, 50, 86
3, 185400, Note_on_c, 0, 59, 86
3, 185580, Note_on_c, 0, 81, 0
3, 185580, Note_on_c, 0, 69, 0
3, 185580, Note_on_c, 0, 67, 77
3, 185580, Note_on_c, 0, 79, 77
3, 186120, Note_on_c, 0, 79, 0
3, 186120, Note_on_c, 0, 59, 0
3, 186120, Note_on_c, 0, 74, 0
3, 186120, Note_on_c, 0, 43, 0
3, 186120, Note_on_c, 0, 67, 0
3, 186120, Note_on_c, 0, 50, 0
3, 186120, Note_on_c, 0, 50, 63
3, 186120, Note_on_c, 0, 55, 63
3, 186120, Note_on_c, 0, 59, 63
3, 186120, Note_on_c, 0, 62, 63
3, 186120, Note_on_c, 0, 31, 71
3, 186120, Note_on_c, 0, 43, 71
3, 186300, Note_on_c, 0, 43, 0
3, 186300, Note_on_c, 0, 31, 0
3, 186300, Note_on_c, 0, 31, 80
3, 186300, Note_on_c, 0, 43, 80
3, 186480, Note_on_c, 0, 59, 0
3, 186480, Note_on_c, 0, 62, 0
3, 186480, Note_on_c, 0, 50, 0
3, 186480, Note_on_c, 0, 55, 0
3, 186480, Note_on_c, 0, 51, 85
3, 186480, Note_on_c, 0, 55, 85
3, 186480, Note_on_c, 0, 59, 85
3, 186480, Note_on_c, 0, 63, 85
3, 186660, Note_on_c, 0, 43, 0
3, 186660, Note_on_c, 0, 31, 0
3, 186660, Note_on_c, 0, 31, 86
3, 186660, Note_on_c, 0, 43, 86
3, 186840, Note_on_c, 0, 59, 0
3, 186840, Note_on_c, 0, 51, 0
3, 186840, Note_on_c, 0, 55, 0
3, 186840, Note_on_c, 0, 63, 0
3, 186840, Note_on_c, 0, 52, 87
3, 186840, Note_on_c, 0, 55, 87
3, 186840, Note_on_c, 0, 59, 87
3, 186840, Note_on_c, 0, 64, 87
3, 187020, Note_on_c, 0, 43, 0
3, 187020, Note_on_c, 0, 31, 0
3, 187020, Note_on_c, 0, 31, 84
3, 187020, Note_on_c, 0, 43, 84
3, 187200, Note_on_c, 0, 59, 0
3, 187200, Note_on_c, 0, 52, 0
3, 187200, Note_on_c, 0, 55, 0
3, 187200, Note_on_c, 0, 64, 0
3, 187200, Note_on_c, 0, 51, 76
3, 187200, Note_on_c, 0, 55, 76
3, 187200, Note_on_c, 0, 59, 76
3, 187200, Note_on_c, 0, 63, 76
3, 187380, Note_on_c, 0, 43, 0
3, 187380, Note_on_c, 0, 31, 0
3, 187380, Note_on_c, 0, 31, 85
3, 187380, Note_on_c, 0, 43, 85
3, 187560, Note_on_c, 0, 59, 0
3, 187560, Note_on_c, 0, 51, 0
3, 187560, Note_on_c, 0, 55, 0
3, 187560, Note_on_c, 0, 63, 0
3, 187560, Note_on_c, 0, 50, 82
3, 187560, Note_on_c, 0, 55, 82
3, 187560, Note_on_c, 0, 59, 82
3, 187560, Note_on_c, 0, 62, 82
3, 187740, Note_on_c, 0, 43, 0
3, 187740, Note_on_c, 0, 31, 0
3, 187740, Note_on_c, 0, 31, 79
3, 187740, Note_on_c, 0, 43, 79
3, 187920, Note_on_c, 0, 59, 0
3, 187920, Note_on_c, 0, 50, 0
3, 187920, Note_on_c, 0, 55, 0
3, 187920, Note_on_c, 0, 62, 0
3, 187920, Note_on_c, 0, 51, 86
3, 187920, Note_on_c, 0, 55, 86
3, 187920, Note_on_c, 0, 59, 86
3, 187920, Note_on_c, 0, 63, 86
3, 188100, Note_on_c, 0, 43, 0
3, 188100, Note_on_c, 0, 31, 0
3, 188100, Note_on_c, 0, 31, 79
3, 188100, Note_on_c, 0, 43, 79
3, 188280, Note_on_c, 0, 43, 0
3, 188280, Note_on_c, 0, 63, 0
3, 188280, Note_on_c, 0, 51, 0
3, 188280, Note_on_c, 0, 55, 0
3, 188280, Note_on_c, 0, 31, 0
3, 188280, Note_on_c, 0, 59, 0
3, 188280, Note_on_c, 0, 52, 87
3, 188280, Note_on_c, 0, 55, 87
3, 188280, Note_on_c, 0, 59, 87
3, 188280, Note_on_c, 0, 64, 87
3, 188280, Note_on_c, 0, 40, 86
3, 188280, Note_on_c, 0, 47, 86
3, 188460, Note_on_c, 0, 47, 0
3, 188460, Note_on_c, 0, 55, 0
3, 188460, Note_on_c, 0, 59, 0
3, 188460, Note_on_c, 0, 52, 0
3, 188460, Note_on_c, 0, 40, 0
3, 188460, Note_on_c, 0, 64, 0
3, 188460, Note_on_c, 0, 52, 82
3, 188460, Note_on_c, 0, 54, 82
3, 188460, Note_on_c, 0, 57, 82
3, 188460, Note_on_c, 0, 64, 82
3, 188460, Note_on_c, 0, 40, 83
3, 188460, Note_on_c, 0, 48, 83
3, 188640, Note_on_c, 0, 48, 0
3, 188640, Note_on_c, 0, 54, 0
3, 188640, Note_on_c, 0, 57, 0
3, 188640, Note_on_c, 0, 52, 0
3, 188640, Note_on_c, 0, 40, 0
3, 188640, Note_on_c, 0, 64, 0
3, 188640, Note_on_c, 0, 64, 107
3, 188640, Note_on_c, 0, 67, 107
3, 188640, Note_on_c, 0, 71, 107
3, 188640, Note_on_c, 0, 76, 107
3, 188640, Note_on_c, 0, 40, 81
3, 188640, Note_on_c, 0, 47, 81
3, 188820, Note_on_c, 0, 47, 0
3, 188820, Note_on_c, 0, 67, 0
3, 188820, Note_on_c, 0, 71, 0
3, 188820, Note_on_c, 0, 64, 0
3, 188820, Note_on_c, 0, 40, 0
3, 188820, Note_on_c, 0, 76, 0
3, 189000, Note_on_c, 0, 50, 72
3, 189000, Note_on_c, 0, 55, 72
3, 189000, Note_on_c, 0, 59, 72
3, 189000, Note_on_c, 0, 62, 72
3, 189000, Note_on_c, 0, 31, 75
3, 189000, Note_on_c, 0, 43, 75
3, 189180, Note_on_c, 0, 43, 0
3, 189180, Note_on_c, 0, 31, 0
3, 189180, Note_on_c, 0, 31, 82
3, 189180, Note_on_c, 0, 43, 82
3, 189360, Note_on_c, 0, 59, 0
3, 189360, Note_on_c, 0, 62, 0
3, 189360, Note_on_c, 0, 50, 0
3, 189360, Note_on_c, 0, 55, 0
3, 189360, Note_on_c, 0, 51, 91
3, 189360, Note_on_c, 0, 55, 91
3, 189360, Note_on_c, 0, 59, 91
3, 189360, Note_on_c, 0, 63, 91
3, 189540, Note_on_c, 0, 43, 0
3, 189540, Note_on_c, 0, 31, 0
3, 189540, Note_on_c, 0, 31, 85
3, 189540, Note_on_c, 0, 43, 85
3, 189720, Note_on_c, 0, 59, 0
3, 189720, Note_on_c, 0, 51, 0
3, 189720, Note_on_c, 0, 55, 0
3, 189720, Note_on_c, 0, 63, 0
3, 189720, Note_on_c, 0, 54, 90
3, 189720, Note_on_c, 0, 55, 90
3, 189720, Note_on_c, 0, 59, 90
3, 189720, Note_on_c, 0, 66, 90
3, 189900, Note_on_c, 0, 43, 0
3, 189900, Note_on_c, 0, 31, 0
3, 189900, Note_on_c, 0, 31, 82
3, 189900, Note_on_c, 0, 43, 82
3, 190080, Note_on_c, 0, 59, 0
3, 190080, Note_on_c, 0, 54, 0
3, 190080, Note_on_c, 0, 55, 0
3, 190080, Note_on_c, 0, 66, 0
3, 190080, Note_on_c, 0, 52, 80
3, 190080, Note_on_c, 0, 55, 80
3, 190080, Note_on_c, 0, 59, 80
3, 190080, Note_on_c, 0, 64, 80
3, 190260, Note_on_c, 0, 64, 0
3, 190260, Note_on_c, 0, 43, 0
3, 190260, Note_on_c, 0, 52, 0
3, 190260, Note_on_c, 0, 31, 0
3, 190260, Note_on_c, 0, 59, 0
3, 190260, Note_on_c, 0, 55, 0
3, 190260, Note_on_c, 0, 51, 75
3, 190260, Note_on_c, 0, 55, 75
3, 190260, Note_on_c, 0, 59, 75
3, 190260, Note_on_c, 0, 63, 75
3, 190260, Note_on_c, 0, 31, 88
3, 190260, Note_on_c, 0, 43, 88
3, 190440, Note_on_c, 0, 63, 0
3, 190440, Note_on_c, 0, 59, 0
3, 190440, Note_on_c, 0, 51, 0
3, 190440, Note_on_c, 0, 55, 0
3, 190440, Note_on_c, 0, 50, 79
3, 190440, Note_on_c, 0, 55, 79
3, 190440, Note_on_c, 0, 59, 79
3, 190440, Note_on_c, 0, 62, 79
3, 190620, Note_on_c, 0, 43, 0
3, 190620, Note_on_c, 0, 31, 0
3, 190620, Note_on_c, 0, 31, 84
3, 190620, Note_on_c, 0, 43, 84
3, 190800, Note_on_c, 0, 59, 0
3, 190800, Note_on_c, 0, 50, 0
3, 190800, Note_on_c, 0, 55, 0
3, 190800, Note_on_c, 0, 62, 0
3, 190800, Note_on_c, 0, 51, 89
3, 190800, Note_on_c, 0, 55, 89
3, 190800, Note_on_c, 0, 59, 89
3, 190800, Note_on_c, 0, 63, 89
3, 190980, Note_on_c, 0, 43, 0
3, 190980, Note_on_c, 0, 31, 0
3, 190980, Note_on_c, 0, 31, 86
3, 190980, Note_on_c, 0, 43, 86
3, 191160, Note_on_c, 0, 43, 0
3, 191160, Note_on_c, 0, 63, 0
3, 191160, Note_on_c, 0, 51, 0
3, 191160, Note_on_c, 0, 55, 0
3, 191160, Note_on_c, 0, 31, 0
3, 191160, Note_on_c, 0, 59, 0
3, 191160, Note_on_c, 0, 52, 102
3, 191160, Note_on_c, 0, 55, 102
3, 191160, Note_on_c, 0, 59, 102
3, 191160, Note_on_c, 0, 64, 102
3, 191160, Note_on_c, 0, 40, 96
3, 191160, Note_on_c, 0, 47, 96
3, 191318, Note_on_c, 0, 47, 0
3, 191318, Note_on_c, 0, 55, 0
3, 191318, Note_on_c, 0, 59, 0
3, 191318, Note_on_c, 0, 52, 0
3, 191318, Note_on_c, 0, 40, 0
3, 191318, Note_on_c, 0, 64, 0
3, 191340, Note_on_c, 0, 64, 115
3, 191340, Note_on_c, 0, 66, 115
3, 191340, Note_on_c, 0, 72, 115
3, 191340, Note_on_c, 0, 76, 115
3, 191340, Note_on_c, 0, 33, 91
3, 191340, Note_on_c, 0, 45, 91
3, 191498, Note_on_c, 0, 45, 0
3, 191498, Note_on_c, 0, 66, 0
3, 191498, Note_on_c, 0, 72, 0
3, 191498, Note_on_c, 0, 64, 0
3, 191498, Note_on_c, 0, 33, 0
3, 191498, Note_on_c, 0, 76, 0
3, 191520, Note_on_c, 0, 76, 123
3, 191520, Note_on_c, 0, 79, 123
3, 191520, Note_on_c, 0, 83, 123
3, 191520, Note_on_c, 0, 88, 123
3, 191520, Note_on_c, 0, 28, 94
3, 191520, Note_on_c, 0, 40, 94
3, 191678, Note_on_c, 0, 40, 0
3, 191678, Note_on_c, 0, 79, 0
3, 191678, Note_on_c, 0, 83, 0
3, 191678, Note_on_c, 0, 76, 0
3, 191678, Note_on_c, 0, 28, 0
3, 191678, Note_on_c, 0, 88, 0
3, 195120, Note_on_c, 0, 36, 53
3, 195120, Note_on_c, 0, 48, 53
3, 195300, Note_on_c, 0, 55, 55
3, 195480, Note_on_c, 0, 55, 0
3, 195480, Note_on_c, 0, 56, 59
3, 195600, Note_on_c, 0, 56, 0
3, 195600, Note_on_c, 0, 57, 63
3, 195719, Note_on_c, 0, 57, 0
3, 195719, Note_on_c, 0, 59, 59
3, 195840, Note_on_c, 0, 59, 0
3, 195840, Note_on_c, 0, 48, 0
3, 195840, Note_on_c, 0, 36, 0
3, 195840, Note_on_c, 0, 60, 64
3, 195840, Note_on_c, 0, 54, 50
3, 195840, Note_on_c, 0, 38, 63
3, 195840, Note_on_c, 0, 50, 63
3, 195960, Note_on_c, 0, 60, 0
3, 195960, Note_on_c, 0, 62, 65
3, 196079, Note_on_c, 0, 62, 0
3, 196079, Note_on_c, 0, 64, 69
3, 196200, Note_on_c, 0, 64, 0
3, 196200, Note_on_c, 0, 54, 0
3, 196200, Note_on_c, 0, 38, 0
3, 196200, Note_on_c, 0, 50, 0
3, 196200, Note_on_c, 0, 60, 61
3, 196200, Note_on_c, 0, 64, 61
3, 196200, Note_on_c, 0, 50, 58
3, 196200, Note_on_c, 0, 31, 57
3, 196200, Note_on_c, 0, 43, 57
3, 196560, Note_on_c, 0, 64, 0
3, 196560, Note_on_c, 0, 60, 0
3, 196560, Note_on_c, 0, 59, 53
3, 196560, Note_on_c, 0, 62, 53
3, 196920, Note_on_c, 0, 62, 0
3, 196920, Note_on_c, 0, 31, 0
3, 196920, Note_on_c, 0, 43, 0
3, 196920, Note_on_c, 0, 50, 0
3, 196920, Note_on_c, 0, 59, 0
3, 199440, Note_on_c, 0, 33, 53
3, 199440, Note_on_c, 0, 45, 53
3, 199620, Note_on_c, 0, 51, 65
3, 199800, Note_on_c, 0, 51, 0
3, 199800, Note_on_c, 0, 52, 74
3, 199920, Note_on_c, 0, 52, 0
3, 199920, Note_on_c, 0, 54, 70
3, 200039, Note_on_c, 0, 54, 0
3, 200039, Note_on_c, 0, 55, 70
3, 200160, Note_on_c, 0, 55, 0
3, 200160, Note_on_c, 0, 45, 0
3, 200160, Note_on_c, 0, 33, 0
3, 200160, Note_on_c, 0, 56, 76
3, 200160, Note_on_c, 0, 38, 60
3, 200160, Note_on_c, 0, 50, 60
3, 200280, Note_on_c, 0, 56, 0
3, 200280, Note_on_c, 0, 57, 71
3, 200399, Note_on_c, 0, 57, 0
3, 200399, Note_on_c, 0, 58, 73
3, 200520, Note_on_c, 0, 58, 0
3, 200520, Note_on_c, 0, 50, 0
3, 200520, Note_on_c, 0, 38, 0
3, 200520, Note_on_c, 0, 54, 71
3, 200520, Note_on_c, 0, 58, 71
3, 200520, Note_on_c, 0, 31, 56
3, 200520, Note_on_c, 0, 43, 56
3, 200880, Note_on_c, 0, 58, 0
3, 200880, Note_on_c, 0, 54, 0
3, 200880, Note_on_c, 0, 55, 70
3, 200880, Note_on_c, 0, 59, 70
3, 201240, Note_on_c, 0, 59, 0
3, 201240, Note_on_c, 0, 43, 0
3, 201240, Note_on_c, 0, 31, 0
3, 201240, Note_on_c, 0, 55, 0
3, 201600, Note_on_c, 0, 40, 55
3, 201780, Note_on_c, 0, 52, 68
3, 201960, Note_on_c, 0, 52, 0
3, 201960, Note_on_c, 0, 52, 70
3, 202080, Note_on_c, 0, 52, 0
3, 202080, Note_on_c, 0, 54, 72
3, 202199, Note_on_c, 0, 54, 0
3, 202199, Note_on_c, 0, 55, 71
3, 202320, Note_on_c, 0, 55, 0
3, 202320, Note_on_c, 0, 40, 0
3, 202320, Note_on_c, 0, 59, 71
3, 202320, Note_on_c, 0, 33, 63
3, 202320, Note_on_c, 0, 45, 63
3, 202500, Note_on_c, 0, 59, 0
3, 202500, Note_on_c, 0, 57, 68
3, 202680, Note_on_c, 0, 57, 0
3, 202680, Note_on_c, 0, 45, 0
3, 202680, Note_on_c, 0, 33, 0
3, 202680, Note_on_c, 0, 56, 71
3, 202680, Note_on_c, 0, 38, 59
3, 202680, Note_on_c, 0, 45, 59
3, 203040, Note_on_c, 0, 56, 0
3, 203040, Note_on_c, 0, 57, 72
3, 203400, Note_on_c, 0, 57, 0
3, 203400, Note_on_c, 0, 45, 0
3, 203400, Note_on_c, 0, 38, 0
3, 203760, Note_on_c, 0, 35, 57
3, 203760, Note_on_c, 0, 47, 57
3, 203940, Note_on_c, 0, 54, 65
3, 204120, Note_on_c, 0, 54, 0
3, 204120, Note_on_c, 0, 54, 73
3, 204240, Note_on_c, 0, 54, 0
3, 204240, Note_on_c, 0, 56, 71
3, 204359, Note_on_c, 0, 56, 0
3, 204359, Note_on_c, 0, 57, 72
3, 204480, Note_on_c, 0, 57, 0
3, 204480, Note_on_c, 0, 47, 0
3, 204480, Note_on_c, 0, 35, 0
3, 204480, Note_on_c, 0, 61, 77
3, 204480, Note_on_c, 0, 40, 65
3, 204480, Note_on_c, 0, 52, 65
3, 204600, Note_on_c, 0, 61, 0
3, 204600, Note_on_c, 0, 59, 75
3, 204780, Note_on_c, 0, 59, 0
3, 204780, Note_on_c, 0, 66, 83
3, 204840, Note_on_c, 0, 66, 0
3, 204840, Note_on_c, 0, 52, 0
3, 204840, Note_on_c, 0, 40, 0
3, 204840, Note_on_c, 0, 60, 75
3, 204840, Note_on_c, 0, 66, 75
3, 204840, Note_on_c, 0, 33, 57
3, 204840, Note_on_c, 0, 45, 57
3, 205200, Note_on_c, 0, 66, 0
3, 205200, Note_on_c, 0, 60, 0
3, 205200, Note_on_c, 0, 61, 66
3, 205200, Note_on_c, 0, 64, 66
3, 205560, Note_on_c, 0, 64, 0
3, 205560, Note_on_c, 0, 45, 0
3, 205560, Note_on_c, 0, 33, 0
3, 205560, Note_on_c, 0, 61, 0
3, 205920, Note_on_c, 0, 57, 44
3, 205920, Note_on_c, 0, 42, 47
3, 205920, Note_on_c, 0, 49, 47
3, 205950, Note_on_c, 0, 49, 0
3, 205950, Note_on_c, 0, 42, 0
3, 205950, Note_on_c, 0, 57, 0
3, 205950, Note_on_c, 0, 61, 58
3, 205950, Note_on_c, 0, 54, 53
3, 205979, Note_on_c, 0, 54, 0
3, 205979, Note_on_c, 0, 61, 0
3, 205979, Note_on_c, 0, 66, 60
3, 205979, Note_on_c, 0, 57, 54
3, 206010, Note_on_c, 0, 57, 0
3, 206010, Note_on_c, 0, 66, 0
3, 206010, Note_on_c, 0, 69, 53
3, 206010, Note_on_c, 0, 61, 53
3, 206040, Note_on_c, 0, 61, 0
3, 206040, Note_on_c, 0, 69, 0
3, 206040, Note_on_c, 0, 73, 60
3, 206040, Note_on_c, 0, 66, 54
3, 206069, Note_on_c, 0, 66, 0
3, 206069, Note_on_c, 0, 73, 0
3, 206069, Note_on_c, 0, 78, 63
3, 206069, Note_on_c, 0, 69, 53
3, 206100, Note_on_c, 0, 69, 0
3, 206100, Note_on_c, 0, 78, 0
3, 206100, Note_on_c, 0, 81, 57
3, 206100, Note_on_c, 0, 73, 56
3, 206130, Note_on_c, 0, 73, 0
3, 206130, Note_on_c, 0, 81, 0
3, 206130, Note_on_c, 0, 78, 52
3, 206130, Note_on_c, 0, 69, 49
3, 206159, Note_on_c, 0, 69, 0
3, 206159, Note_on_c, 0, 78, 0
3, 206159, Note_on_c, 0, 73, 43
3, 206159, Note_on_c, 0, 66, 48
3, 206190, Note_on_c, 0, 66, 0
3, 206190, Note_on_c, 0, 73, 0
3, 206190, Note_on_c, 0, 69, 44
3, 206190, Note_on_c, 0, 61, 45
3, 206220, Note_on_c, 0, 61, 0
3, 206220, Note_on_c, 0, 69, 0
3, 206220, Note_on_c, 0, 66, 44
3, 206220, Note_on_c, 0, 57, 47
3, 206249, Note_on_c, 0, 57, 0
3, 206249, Note_on_c, 0, 66, 0
3, 206249, Note_on_c, 0, 61, 46
3, 206249, Note_on_c, 0, 54, 49
3, 206280, Note_on_c, 0, 54, 0
3, 206280, Note_on_c, 0, 61, 0
3, 206280, Note_on_c, 0, 57, 47
3, 206280, Note_on_c, 0, 49, 50
3, 206310, Note_on_c, 0, 49, 0
3, 206310, Note_on_c, 0, 57, 0
3, 206310, Note_on_c, 0, 61, 52
3, 206310, Note_on_c, 0, 54, 49
3, 206339, Note_on_c, 0, 54, 0
3, 206339, Note_on_c, 0, 61, 0
3, 206339, Note_on_c, 0, 66, 59
3, 206339, Note_on_c, 0, 57, 54
3, 206370, Note_on_c, 0, 57, 0
3, 206370, Note_on_c, 0, 66, 0
3, 206370, Note_on_c, 0, 69, 53
3, 206370, Note_on_c, 0, 61, 55
3, 206400, Note_on_c, 0, 61, 0
3, 206400, Note_on_c, 0, 69, 0
3, 206400, Note_on_c, 0, 73, 57
3, 206400, Note_on_c, 0, 66, 61
3, 206429, Note_on_c, 0, 66, 0
3, 206429, Note_on_c, 0, 73, 0
3, 206429, Note_on_c, 0, 78, 56
3, 206429, Note_on_c, 0, 69, 57
3, 206460, Note_on_c, 0, 69, 0
3, 206460, Note_on_c, 0, 78, 0
3, 206460, Note_on_c, 0, 81, 58
3, 206460, Note_on_c, 0, 73, 55
3, 206490, Note_on_c, 0, 73, 0
3, 206490, Note_on_c, 0, 81, 0
3, 206490, Note_on_c, 0, 85, 60
3, 206490, Note_on_c, 0, 78, 59
3, 206519, Note_on_c, 0, 78, 0
3, 206519, Note_on_c, 0, 85, 0
3, 206519, Note_on_c, 0, 90, 59
3, 206519, Note_on_c, 0, 81, 54
3, 206550, Note_on_c, 0, 81, 0
3, 206550, Note_on_c, 0, 90, 0
3, 206550, Note_on_c, 0, 93, 41
3, 206550, Note_on_c, 0, 85, 38
3, 206580, Note_on_c, 0, 85, 0
3, 206580, Note_on_c, 0, 93, 0
3, 206580, Note_on_c, 0, 97, 54
3, 206580, Note_on_c, 0, 90, 58
3, 206609, Note_on_c, 0, 90, 0
3, 206609, Note_on_c, 0, 97, 0
3, 206609, Note_on_c, 0, 102, 59
3, 206609, Note_on_c, 0, 93, 49
3, 206640, Note_on_c, 0, 93, 0
3, 206640, Note_on_c, 0, 102, 0
3, 206640, Note_on_c, 0, 105, 61
3, 206640, Note_on_c, 0, 97, 55
3, 206820, Note_on_c, 0, 97, 0
3, 206820, Note_on_c, 0, 105, 0
3, 207000, Note_on_c, 0, 52, 49
3, 207000, Note_on_c, 0, 37, 50
3, 207000, Note_on_c, 0, 44, 50
3, 207030, Note_on_c, 0, 44, 0
3, 207030, Note_on_c, 0, 37, 0
3, 207030, Note_on_c, 0, 52, 0
3, 207030, Note_on_c, 0, 56, 48
3, 207030, Note_on_c, 0, 49, 53
3, 207059, Note_on_c, 0, 49, 0
3, 207059, Note_on_c, 0, 56, 0
3, 207059, Note_on_c, 0, 61, 59
3, 207059, Note_on_c, 0, 52, 53
3, 207090, Note_on_c, 0, 52, 0
3, 207090, Note_on_c, 0, 61, 0
3, 207090, Note_on_c, 0, 64, 56
3, 207090, Note_on_c, 0, 56, 54
3, 207120, Note_on_c, 0, 56, 0
3, 207120, Note_on_c, 0, 64, 0
3, 207120, Note_on_c, 0, 68, 57
3, 207120, Note_on_c, 0, 61, 58
3, 207149, Note_on_c, 0, 61, 0
3, 207149, Note_on_c, 0, 68, 0
3, 207149, Note_on_c, 0, 73, 60
3, 207149, Note_on_c, 0, 64, 51
3, 207180, Note_on_c, 0, 64, 0
3, 207180, Note_on_c, 0, 73, 0
3, 207180, Note_on_c, 0, 76, 55
3, 207180, Note_on_c, 0, 68, 53
3, 207210, Note_on_c, 0, 68, 0
3, 207210, Note_on_c, 0, 76, 0
3, 207210, Note_on_c, 0, 73, 46
3, 207210, Note_on_c, 0, 64, 43
3, 207239, Note_on_c, 0, 64, 0
3, 207239, Note_on_c, 0, 73, 0
3, 207239, Note_on_c, 0, 68, 41
3, 207239, Note_on_c, 0, 61, 41
3, 207270, Note_on_c, 0, 61, 0
3, 207270, Note_on_c, 0, 68, 0
3, 207270, Note_on_c, 0, 64, 44
3, 207270, Note_on_c, 0, 56, 48
3, 207300, Note_on_c, 0, 56, 0
3, 207300, Note_on_c, 0, 64, 0
3, 207300, Note_on_c, 0, 61, 44
3, 207300, Note_on_c, 0, 52, 49
3, 207329, Note_on_c, 0, 52, 0
3, 207329, Note_on_c, 0, 61, 0
3, 207329, Note_on_c, 0, 56, 49
3, 207329, Note_on_c, 0, 49, 43
3, 207360, Note_on_c, 0, 49, 0
3, 207360, Note_on_c, 0, 56, 0
3, 207360, Note_on_c, 0, 52, 43
3, 207360, Note_on_c, 0, 44, 47
3, 207390, Note_on_c, 0, 44, 0
3, 207390, Note_on_c, 0, 52, 0
3, 207390, Note_on_c, 0, 56, 52
3, 207390, Note_on_c, 0, 49, 55
3, 207419, Note_on_c, 0, 49, 0
3, 207419, Note_on_c, 0, 56, 0
3, 207419, Note_on_c, 0, 61, 58
3, 207419, Note_on_c, 0, 52, 55
3, 207450, Note_on_c, 0, 52, 0
3, 207450, Note_on_c, 0, 61, 0
3, 207450, Note_on_c, 0, 64, 55
3, 207450, Note_on_c, 0, 56, 51
3, 207480, Note_on_c, 0, 56, 0
3, 207480, Note_on_c, 0, 64, 0
3, 207480, Note_on_c, 0, 68, 54
3, 207480, Note_on_c, 0, 61, 60
3, 207509, Note_on_c, 0, 61, 0
3, 207509, Note_on_c, 0, 68, 0
3, 207509, Note_on_c, 0, 73, 58
3, 207509, Note_on_c, 0, 64, 57
3, 207540, Note_on_c, 0, 64, 0
3, 207540, Note_on_c, 0, 73, 0
3, 207540, Note_on_c, 0, 76, 56
3, 207540, Note_on_c, 0, 68, 57
3, 207570, Note_on_c, 0, 68, 0
3, 207570, Note_on_c, 0, 76, 0
3, 207570, Note_on_c, 0, 80, 61
3, 207570, Note_on_c, 0, 73, 61
3, 207599, Note_on_c, 0, 73, 0
3, 207599, Note_on_c, 0, 80, 0
3, 207599, Note_on_c, 0, 85, 61
3, 207599, Note_on_c, 0, 76, 58
3, 207630, Note_on_c, 0, 76, 0
3, 207630, Note_on_c, 0, 85, 0
3, 207630, Note_on_c, 0, 88, 52
3, 207630, Note_on_c, 0, 80, 55
3, 207660, Note_on_c, 0, 80, 0
3, 207660, Note_on_c, 0, 88, 0
3, 207660, Note_on_c, 0, 92, 40
3, 207660, Note_on_c, 0, 85, 45
3, 207689, Note_on_c, 0, 85, 0
3, 207689, Note_on_c, 0, 92, 0
3, 207689, Note_on_c, 0, 97, 52
3, 207689, Note_on_c, 0, 88, 52
3, 207720, Note_on_c, 0, 88, 0
3, 207720, Note_on_c, 0, 97, 0
3, 207720, Note_on_c, 0, 100, 54
3, 207720, Note_on_c, 0, 92, 56
3, 207900, Note_on_c, 0, 92, 0
3, 207900, Note_on_c, 0, 100, 0
3, 208080, Note_on_c, 0, 57, 46
3, 208080, Note_on_c, 0, 42, 44
3, 208080, Note_on_c, 0, 49, 44
3, 208110, Note_on_c, 0, 49, 0
3, 208110, Note_on_c, 0, 42, 0
3, 208110, Note_on_c, 0, 57, 0
3, 208110, Note_on_c, 0, 61, 56
3, 208110, Note_on_c, 0, 54, 54
3, 208139, Note_on_c, 0, 54, 0
3, 208139, Note_on_c, 0, 61, 0
3, 208139, Note_on_c, 0, 66, 59
3, 208139, Note_on_c, 0, 57, 54
3, 208170, Note_on_c, 0, 57, 0
3, 208170, Note_on_c, 0, 66, 0
3, 208170, Note_on_c, 0, 69, 56
3, 208170, Note_on_c, 0, 61, 63
3, 208200, Note_on_c, 0, 61, 0
3, 208200, Note_on_c, 0, 69, 0
3, 208200, Note_on_c, 0, 73, 61
3, 208200, Note_on_c, 0, 66, 57
3, 208229, Note_on_c, 0, 66, 0
3, 208229, Note_on_c, 0, 73, 0
3, 208229, Note_on_c, 0, 78, 60
3, 208229, Note_on_c, 0, 69, 51
3, 208260, Note_on_c, 0, 69, 0
3, 208260, Note_on_c, 0, 78, 0
3, 208260, Note_on_c, 0, 81, 58
3, 208260, Note_on_c, 0, 73, 55
3, 208290, Note_on_c, 0, 73, 0
3, 208290, Note_on_c, 0, 81, 0
3, 208290, Note_on_c, 0, 78, 44
3, 208290, Note_on_c, 0, 69, 45
3, 208319, Note_on_c, 0, 69, 0
3, 208319, Note_on_c, 0, 78, 0
3, 208319, Note_on_c, 0, 73, 44
3, 208319, Note_on_c, 0, 66, 46
3, 208350, Note_on_c, 0, 66, 0
3, 208350, Note_on_c, 0, 73, 0
3, 208350, Note_on_c, 0, 69, 49
3, 208350, Note_on_c, 0, 61, 45
3, 208380, Note_on_c, 0, 61, 0
3, 208380, Note_on_c, 0, 69, 0
3, 208380, Note_on_c, 0, 66, 43
3, 208380, Note_on_c, 0, 57, 46
3, 208409, Note_on_c, 0, 57, 0
3, 208409, Note_on_c, 0, 66, 0
3, 208409, Note_on_c, 0, 61, 39
3, 208409, Note_on_c, 0, 54, 47
3, 208440, Note_on_c, 0, 54, 0
3, 208440, Note_on_c, 0, 61, 0
3, 208440, Note_on_c, 0, 57, 48
3, 208440, Note_on_c, 0, 49, 48
3, 208470, Note_on_c, 0, 49, 0
3, 208470, Note_on_c, 0, 57, 0
3, 208470, Note_on_c, 0, 61, 53
3, 208470, Note_on_c, 0, 54, 50
3, 208499, Note_on_c, 0, 54, 0
3, 208499, Note_on_c, 0, 61, 0
3, 208499, Note_on_c, 0, 66, 54
3, 208499, Note_on_c, 0, 57, 49
3, 208530, Note_on_c, 0, 57, 0
3, 208530, Note_on_c, 0, 66, 0
3, 208530, Note_on_c, 0, 69, 57
3, 208530, Note_on_c, 0, 61, 59
3, 208560, Note_on_c, 0, 61, 0
3, 208560, Note_on_c, 0, 69, 0
3, 208560, Note_on_c, 0, 73, 53
3, 208560, Note_on_c, 0, 66, 60
3, 208589, Note_on_c, 0, 66, 0
3, 208589, Note_on_c, 0, 73, 0
3, 208589, Note_on_c, 0, 78, 52
3, 208589, Note_on_c, 0, 69, 60
3, 208620, Note_on_c, 0, 69, 0
3, 208620, Note_on_c, 0, 78, 0
3, 208620, Note_on_c, 0, 81, 55
3, 208620, Note_on_c, 0, 73, 54
3, 208650, Note_on_c, 0, 73, 0
3, 208650, Note_on_c, 0, 81, 0
3, 208650, Note_on_c, 0, 85, 60
3, 208650, Note_on_c, 0, 78, 57
3, 208679, Note_on_c, 0, 78, 0
3, 208679, Note_on_c, 0, 85, 0
3, 208679, Note_on_c, 0, 90, 57
3, 208679, Note_on_c, 0, 81, 56
3, 208710, Note_on_c, 0, 81, 0
3, 208710, Note_on_c, 0, 90, 0
3, 208710, Note_on_c, 0, 93, 37
3, 208710, Note_on_c, 0, 85, 44
3, 208740, Note_on_c, 0, 85, 0
3, 208740, Note_on_c, 0, 93, 0
3, 208740, Note_on_c, 0, 97, 57
3, 208740, Note_on_c, 0, 90, 53
3, 208769, Note_on_c, 0, 90, 0
3, 208769, Note_on_c, 0, 97, 0
3, 208769, Note_on_c, 0, 102, 59
3, 208769, Note_on_c, 0, 93, 56
3, 208800, Note_on_c, 0, 93, 0
3, 208800, Note_on_c, 0, 102, 0
3, 208800, Note_on_c, 0, 105, 57
3, 208800, Note_on_c, 0, 97, 59
3, 208980, Note_on_c, 0, 97, 0
3, 208980, Note_on_c, 0, 105, 0
3, 209160, Note_on_c, 0, 52, 49
3, 209160, Note_on_c, 0, 37, 45
3, 209160, Note_on_c, 0, 44, 45
3, 209190, Note_on_c, 0, 44, 0
3, 209190, Note_on_c, 0, 37, 0
3, 209190, Note_on_c, 0, 52, 0
3, 209190, Note_on_c, 0, 56, 54
3, 209190, Note_on_c, 0, 49, 54
3, 209219, Note_on_c, 0, 49, 0
3, 209219, Note_on_c, 0, 56, 0
3, 209219, Note_on_c, 0, 61, 58
3, 209219, Note_on_c, 0, 52, 55
3, 209250, Note_on_c, 0, 52, 0
3, 209250, Note_on_c, 0, 61, 0
3, 209250, Note_on_c, 0, 64, 60
3, 209250, Note_on_c, 0, 56, 57
3, 209280, Note_on_c, 0, 56, 0
3, 209280, Note_on_c, 0, 64, 0
3, 209280, Note_on_c, 0, 68, 56
3, 209280, Note_on_c, 0, 61, 57
3, 209309, Note_on_c, 0, 61, 0
3, 209309, Note_on_c, 0, 68, 0
3, 209309, Note_on_c, 0, 73, 58
3, 209309, Note_on_c, 0, 64, 57
3, 209340, Note_on_c, 0, 64, 0
3, 209340, Note_on_c, 0, 73, 0
3, 209340, Note_on_c, 0, 76, 60
3, 209340, Note_on_c, 0, 68, 60
3, 209370, Note_on_c, 0, 68, 0
3, 209370, Note_on_c, 0, 76, 0
3, 209370, Note_on_c, 0, 73, 46
3, 209370, Note_on_c, 0, 64, 48
3, 209399, Note_on_c, 0, 64, 0
3, 209399, Note_on_c, 0, 73, 0
3, 209399, Note_on_c, 0, 68, 43
3, 209399, Note_on_c, 0, 61, 47
3, 209430, Note_on_c, 0, 61, 0
3, 209430, Note_on_c, 0, 68, 0
3, 209430, Note_on_c, 0, 64, 47
3, 209430, Note_on_c, 0, 56, 47
3, 209460, Note_on_c, 0, 56, 0
3, 209460, Note_on_c, 0, 64, 0
3, 209460, Note_on_c, 0, 61, 42
3, 209460, Note_on_c, 0, 52, 43
3, 209489, Note_on_c, 0, 52, 0
3, 209489, Note_on_c, 0, 61, 0
3, 209489, Note_on_c, 0, 56, 54
3, 209489, Note_on_c, 0, 49, 48
3, 209520, Note_on_c, 0, 49, 0
3, 209520, Note_on_c, 0, 56, 0
3, 209520, Note_on_c, 0, 52, 48
3, 209520, Note_on_c, 0, 44, 46
3, 209550, Note_on_c, 0, 44, 0
3, 209550, Note_on_c, 0, 52, 0
3, 209550, Note_on_c, 0, 56, 52
3, 209550, Note_on_c, 0, 49, 54
3, 209579, Note_on_c, 0, 49, 0
3, 209579, Note_on_c, 0, 56, 0
3, 209579, Note_on_c, 0, 61, 59
3, 209579, Note_on_c, 0, 52, 55
3, 209610, Note_on_c, 0, 52, 0
3, 209610, Note_on_c, 0, 61, 0
3, 209610, Note_on_c, 0, 64, 54
3, 209610, Note_on_c, 0, 56, 51
3, 209640, Note_on_c, 0, 56, 0
3, 209640, Note_on_c, 0, 64, 0
3, 209640, Note_on_c, 0, 68, 55
3, 209640, Note_on_c, 0, 61, 55
3, 209669, Note_on_c, 0, 61, 0
3, 209669, Note_on_c, 0, 68, 0
3, 209669, Note_on_c, 0, 73, 57
3, 209669, Note_on_c, 0, 64, 60
3, 209700, Note_on_c, 0, 64, 0
3, 209700, Note_on_c, 0, 73, 0
3, 209700, Note_on_c, 0, 76, 55
3, 209700, Note_on_c, 0, 68, 58
3, 209730, Note_on_c, 0, 68, 0
3, 209730, Note_on_c, 0, 76, 0
3, 209730, Note_on_c, 0, 80, 54
3, 209730, Note_on_c, 0, 73, 60
3, 209759, Note_on_c, 0, 73, 0
3, 209759, Note_on_c, 0, 80, 0
3, 209759, Note_on_c, 0, 85, 54
3, 209759, Note_on_c, 0, 76, 56
3, 209790, Note_on_c, 0, 76, 0
3, 209790, Note_on_c, 0, 85, 0
3, 209790, Note_on_c, 0, 88, 56
3, 209790, Note_on_c, 0, 80, 53
3, 209820, Note_on_c, 0, 80, 0
3, 209820, Note_on_c, 0, 88, 0
3, 209820, Note_on_c, 0, 92, 40
3, 209820, Note_on_c, 0, 85, 40
3, 209849, Note_on_c, 0, 85, 0
3, 209849, Note_on_c, 0, 92, 0
3, 209849, Note_on_c, 0, 97, 54
3, 209849, Note_on_c, 0, 88, 52
3, 209880, Note_on_c, 0, 88, 0
3, 209880, Note_on_c, 0, 97, 0
3, 209880, Note_on_c, 0, 100, 60
3, 209880, Note_on_c, 0, 92, 55
3, 210060, Note_on_c, 0, 92, 0
3, 210060, Note_on_c, 0, 100, 0
3, 210240, Note_on_c, 0, 55, 38
3, 210240, Note_on_c, 0, 40, 45
3, 210240, Note_on_c, 0, 47, 45
3, 210270, Note_on_c, 0, 47, 0
3, 210270, Note_on_c, 0, 40, 0
3, 210270, Note_on_c, 0, 55, 0
3, 210270, Note_on_c, 0, 59, 48
3, 210270, Note_on_c, 0, 52, 51
3, 210299, Note_on_c, 0, 52, 0
3, 210299, Note_on_c, 0, 59, 0
3, 210299, Note_on_c, 0, 64, 55
3, 210299, Note_on_c, 0, 55, 53
3, 210330, Note_on_c, 0, 55, 0
3, 210330, Note_on_c, 0, 64, 0
3, 210330, Note_on_c, 0, 67, 59
3, 210330, Note_on_c, 0, 59, 52
3, 210360, Note_on_c, 0, 59, 0
3, 210360, Note_on_c, 0, 67, 0
3, 210360, Note_on_c, 0, 71, 55
3, 210360, Note_on_c, 0, 64, 61
3, 210389, Note_on_c, 0, 64, 0
3, 210389, Note_on_c, 0, 71, 0
3, 210389, Note_on_c, 0, 76, 58
3, 210389, Note_on_c, 0, 67, 56
3, 210420, Note_on_c, 0, 67, 0
3, 210420, Note_on_c, 0, 76, 0
3, 210420, Note_on_c, 0, 79, 61
3, 210420, Note_on_c, 0, 71, 60
3, 210450, Note_on_c, 0, 71, 0
3, 210450, Note_on_c, 0, 79, 0
3, 210450, Note_on_c, 0, 76, 47
3, 210450, Note_on_c, 0, 67, 47
3, 210479, Note_on_c, 0, 67, 0
3, 210479, Note_on_c, 0, 76, 0
3, 210479, Note_on_c, 0, 71, 43
3, 210479, Note_on_c, 0, 64, 41
3, 210510, Note_on_c, 0, 64, 0
3, 210510, Note_on_c, 0, 71, 0
3, 210510, Note_on_c, 0, 67, 45
3, 210510, Note_on_c, 0, 59, 50
3, 210540, Note_on_c, 0, 59, 0
3, 210540, Note_on_c, 0, 67, 0
3, 210540, Note_on_c, 0, 64, 41
3, 210540, Note_on_c, 0, 55, 43
3, 210569, Note_on_c, 0, 55, 0
3, 210569, Note_on_c, 0, 64, 0
3, 210569, Note_on_c, 0, 59, 49
3, 210569, Note_on_c, 0, 52, 49
3, 210600, Note_on_c, 0, 52, 0
3, 210600, Note_on_c, 0, 59, 0
3, 210600, Note_on_c, 0, 55, 52
3, 210600, Note_on_c, 0, 47, 50
3, 210630, Note_on_c, 0, 47, 0
3, 210630, Note_on_c, 0, 55, 0
3, 210630, Note_on_c, 0, 59, 57
3, 210630, Note_on_c, 0, 52, 56
3, 210659, Note_on_c, 0, 52, 0
3, 210659, Note_on_c, 0, 59, 0
3, 210659, Note_on_c, 0, 64, 61
3, 210659, Note_on_c, 0, 55, 52
3, 210690, Note_on_c, 0, 55, 0
3, 210690, Note_on_c, 0, 64, 0
3, 210690, Note_on_c, 0, 67, 56
3, 210690, Note_on_c, 0, 59, 52
3, 210720, Note_on_c, 0, 59, 0
3, 210720, Note_on_c, 0, 67, 0
3, 210720, Note_on_c, 0, 71, 56
3, 210720, Note_on_c, 0, 64, 56
3, 210749, Note_on_c, 0, 64, 0
3, 210749, Note_on_c, 0, 71, 0
3, 210749, Note_on_c, 0, 76, 61
3, 210749, Note_on_c, 0, 67, 60
3, 210780, Note_on_c, 0, 67, 0
3, 210780, Note_on_c, 0, 76, 0
3, 210780, Note_on_c, 0, 79, 55
3, 210780, Note_on_c, 0, 71, 56
3, 210810, Note_on_c, 0, 71, 0
3, 210810, Note_on_c, 0, 79, 0
3, 210810, Note_on_c, 0, 83, 57
3, 210810, Note_on_c, 0, 76, 60
3, 210839, Note_on_c, 0, 76, 0
3, 210839, Note_on_c, 0, 83, 0
3, 210839, Note_on_c, 0, 88, 56
3, 210839, Note_on_c, 0, 79, 58
3, 210870, Note_on_c, 0, 79, 0
3, 210870, Note_on_c, 0, 88, 0
3, 210870, Note_on_c, 0, 91, 41
3, 210870, Note_on_c, 0, 83, 42
3, 210900, Note_on_c, 0, 83, 0
3, 210900, Note_on_c, 0, 91, 0
3, 210900, Note_on_c, 0, 95, 55
3, 210900, Note_on_c, 0, 88, 61
3, 210929, Note_on_c, 0, 88, 0
3, 210929, Note_on_c, 0, 95, 0
3, 210929, Note_on_c, 0, 100, 57
3, 210929, Note_on_c, 0, 91, 57
3, 210960, Note_on_c, 0, 91, 0
3, 210960, Note_on_c, 0, 100, 0
3, 210960, Note_on_c, 0, 103, 54
3, 210960, Note_on_c, 0, 95, 55
3, 211140, Note_on_c, 0, 95, 0
3, 211140, Note_on_c, 0, 103, 0
3, 211320, Note_on_c, 0, 50, 41
3, 211320, Note_on_c, 0, 35, 46
3, 211320, Note_on_c, 0, 42, 46
3, 211350, Note_on_c, 0, 42, 0
3, 211350, Note_on_c, 0, 35, 0
3, 211350, Note_on_c, 0, 50, 0
3, 211350, Note_on_c, 0, 54, 49
3, 211350, Note_on_c, 0, 47, 52
3, 211379, Note_on_c, 0, 47, 0
3, 211379, Note_on_c, 0, 54, 0
3, 211379, Note_on_c, 0, 59, 51
3, 211379, Note_on_c, 0, 50, 49
3, 211410, Note_on_c, 0, 50, 0
3, 211410, Note_on_c, 0, 59, 0
3, 211410, Note_on_c, 0, 62, 51
3, 211410, Note_on_c, 0, 54, 54
3, 211440, Note_on_c, 0, 54, 0
3, 211440, Note_on_c, 0, 62, 0
3, 211440, Note_on_c, 0, 66, 53
3, 211440, Note_on_c, 0, 59, 50
3, 211469, Note_on_c, 0, 59, 0
3, 211469, Note_on_c, 0, 66, 0
3, 211469, Note_on_c, 0, 71, 58
3, 211469, Note_on_c, 0, 62, 51
3, 211500, Note_on_c, 0, 62, 0
3, 211500, Note_on_c, 0, 71, 0
3, 211500, Note_on_c, 0, 74, 57
3, 211500, Note_on_c, 0, 66, 59
3, 211530, Note_on_c, 0, 66, 0
3, 211530, Note_on_c, 0, 74, 0
3, 211530, Note_on_c, 0, 71, 47
3, 211530, Note_on_c, 0, 62, 40
3, 211559, Note_on_c, 0, 62, 0
3, 211559, Note_on_c, 0, 71, 0
3, 211559, Note_on_c, 0, 66, 40
3, 211559, Note_on_c, 0, 59, 47
3, 211590, Note_on_c, 0, 59, 0
3, 211590, Note_on_c, 0, 66, 0
3, 211590, Note_on_c, 0, 62, 44
3, 211590, Note_on_c, 0, 54, 42
3, 211620, Note_on_c, 0, 54, 0
3, 211620, Note_on_c, 0, 62, 0
3, 211620, Note_on_c, 0, 59, 48
3, 211620, Note_on_c, 0, 50, 43
3, 211649, Note_on_c, 0, 50, 0
3, 211649, Note_on_c, 0, 59, 0
3, 211649, Note_on_c, 0, 54, 44
3, 211649, Note_on_c, 0, 47, 49
3, 211680, Note_on_c, 0, 47, 0
3, 211680, Note_on_c, 0, 54, 0
3, 211680, Note_on_c, 0, 50, 47
3, 211680, Note_on_c, 0, 42, 48
3, 211710, Note_on_c, 0, 42, 0
3, 211710, Note_on_c, 0, 50, 0
3, 211710, Note_on_c, 0, 54, 53
3, 211710, Note_on_c, 0, 47, 51
3, 211739, Note_on_c, 0, 47, 0
3, 211739, Note_on_c, 0, 54, 0
3, 211739, Note_on_c, 0, 59, 60
3, 211739, Note_on_c, 0, 50, 58
3, 211770, Note_on_c, 0, 50, 0
3, 211770, Note_on_c, 0, 59, 0
3, 211770, Note_on_c, 0, 62, 55
3, 211770, Note_on_c, 0, 54, 49
3, 211800, Note_on_c, 0, 54, 0
3, 211800, Note_on_c, 0, 62, 0
3, 211800, Note_on_c, 0, 66, 61
3, 211800, Note_on_c, 0, 59, 56
3, 211829, Note_on_c, 0, 59, 0
3, 211829, Note_on_c, 0, 66, 0
3, 211829, Note_on_c, 0, 71, 58
3, 211829, Note_on_c, 0, 62, 53
3, 211860, Note_on_c, 0, 62, 0
3, 211860, Note_on_c, 0, 71, 0
3, 211860, Note_on_c, 0, 74, 55
3, 211860, Note_on_c, 0, 66, 58
3, 211890, Note_on_c, 0, 66, 0
3, 211890, Note_on_c, 0, 74, 0
3, 211890, Note_on_c, 0, 78, 57
3, 211890, Note_on_c, 0, 71, 60
3, 211919, Note_on_c, 0, 71, 0
3, 211919, Note_on_c, 0, 78, 0
3, 211919, Note_on_c, 0, 83, 59
3, 211919, Note_on_c, 0, 74, 56
3, 211950, Note_on_c, 0, 74, 0
3, 211950, Note_on_c, 0, 83, 0
3, 211950, Note_on_c, 0, 86, 61
3, 211950, Note_on_c, 0, 78, 56
3, 211980, Note_on_c, 0, 78, 0
3, 211980, Note_on_c, 0, 86, 0
3, 211980, Note_on_c, 0, 90, 57
3, 211980, Note_on_c, 0, 83, 53
3, 212009, Note_on_c, 0, 83, 0
3, 212009, Note_on_c, 0, 90, 0
3, 212009, Note_on_c, 0, 95, 60
3, 212009, Note_on_c, 0, 86, 60
3, 212040, Note_on_c, 0, 86, 0
3, 212040, Note_on_c, 0, 95, 0
3, 212040, Note_on_c, 0, 98, 45
3, 212040, Note_on_c, 0, 90, 40
3, 212220, Note_on_c, 0, 90, 0
3, 212220, Note_on_c, 0, 98, 0
3, 212400, Note_on_c, 0, 55, 44
3, 212400, Note_on_c, 0, 40, 47
3, 212400, Note_on_c, 0, 47, 47
3, 212430, Note_on_c, 0, 47, 0
3, 212430, Note_on_c, 0, 40, 0
3, 212430, Note_on_c, 0, 55, 0
3, 212430, Note_on_c, 0, 59, 50
3, 212430, Note_on_c, 0, 52, 55
3, 212459, Note_on_c, 0, 52, 0
3, 212459, Note_on_c, 0, 59, 0
3, 212459, Note_on_c, 0, 64, 57
3, 212459, Note_on_c, 0, 55, 55
3, 212490, Note_on_c, 0, 55, 0
3, 212490, Note_on_c, 0, 64, 0
3, 212490, Note_on_c, 0, 67, 57
3, 212490, Note_on_c, 0, 59, 55
3, 212520, Note_on_c, 0, 59, 0
3, 212520, Note_on_c, 0, 67, 0
3, 212520, Note_on_c, 0, 71, 56
3, 212520, Note_on_c, 0, 64, 59
3, 212549, Note_on_c, 0, 64, 0
3, 212549, Note_on_c, 0, 71, 0
3, 212549, Note_on_c, 0, 76, 57
3, 212549, Note_on_c, 0, 67, 52
3, 212580, Note_on_c, 0, 67, 0
3, 212580, Note_on_c, 0, 76, 0
3, 212580, Note_on_c, 0, 79, 58
3, 212580, Note_on_c, 0, 71, 57
3, 212610, Note_on_c, 0, 71, 0
3, 212610, Note_on_c, 0, 79, 0
3, 212610, Note_on_c, 0, 76, 43
3, 212610, Note_on_c, 0, 67, 44
3, 212639, Note_on_c, 0, 67, 0
3, 212639, Note_on_c, 0, 76, 0
3, 212639, Note_on_c, 0, 71, 46
3, 212639, Note_on_c, 0, 64, 45
3, 212670, Note_on_c, 0, 64, 0
3, 212670, Note_on_c, 0, 71, 0
3, 212670, Note_on_c, 0, 67, 40
3, 212670, Note_on_c, 0, 59, 46
3, 212700, Note_on_c, 0, 59, 0
3, 212700, Note_on_c, 0, 67, 0
3, 212700, Note_on_c, 0, 64, 44
3, 212700, Note_on_c, 0, 55, 46
3, 212729, Note_on_c, 0, 55, 0
3, 212729, Note_on_c, 0, 64, 0
3, 212729, Note_on_c, 0, 59, 51
3, 212729, Note_on_c, 0, 52, 48
3, 212760, Note_on_c, 0, 52, 0
3, 212760, Note_on_c, 0, 59, 0
3, 212760, Note_on_c, 0, 55, 47
3, 212760, Note_on_c, 0, 47, 48
3, 212790, Note_on_c, 0, 47, 0
3, 212790, Note_on_c, 0, 55, 0
3, 212790, Note_on_c, 0, 59, 53
3, 212790, Note_on_c, 0, 52, 51
3, 212819, Note_on_c, 0, 52, 0
3, 212819, Note_on_c, 0, 59, 0
3, 212819, Note_on_c, 0, 64, 61
3, 212819, Note_on_c, 0, 55, 53
3, 212850, Note_on_c, 0, 55, 0
3, 212850, Note_on_c, 0, 64, 0
3, 212850, Note_on_c, 0, 67, 52
3, 212850, Note_on_c, 0, 59, 56
3, 212880, Note_on_c, 0, 59, 0
3, 212880, Note_on_c, 0, 67, 0
3, 212880, Note_on_c, 0, 71, 52
3, 212880, Note_on_c, 0, 64, 57
3, 212909, Note_on_c, 0, 64, 0
3, 212909, Note_on_c, 0, 71, 0
3, 212909, Note_on_c, 0, 76, 60
3, 212909, Note_on_c, 0, 67, 57
3, 212940, Note_on_c, 0, 67, 0
3, 212940, Note_on_c, 0, 76, 0
3, 212940, Note_on_c, 0, 79, 55
3, 212940, Note_on_c, 0, 71, 60
3, 212970, Note_on_c, 0, 71, 0
3, 212970, Note_on_c, 0, 79, 0
3, 212970, Note_on_c, 0, 83, 57
3, 212970, Note_on_c, 0, 76, 58
3, 212999, Note_on_c, 0, 76, 0
3, 212999, Note_on_c, 0, 83, 0
3, 212999, Note_on_c, 0, 88, 56
3, 212999, Note_on_c, 0, 79, 60
3, 213030, Note_on_c, 0, 79, 0
3, 213030, Note_on_c, 0, 88, 0
3, 213030, Note_on_c, 0, 91, 40
3, 213030, Note_on_c, 0, 83, 39
3, 213060, Note_on_c, 0, 83, 0
3, 213060, Note_on_c, 0, 91, 0
3, 213060, Note_on_c, 0, 95, 60
3, 213060, Note_on_c, 0, 88, 58
3, 213089, Note_on_c, 0, 88, 0
3, 213089, Note_on_c, 0, 95, 0
3, 213089, Note_on_c, 0, 100, 58
3, 213089, Note_on_c, 0, 91, 57
3, 213120, Note_on_c, 0, 91, 0
3, 213120, Note_on_c, 0, 100, 0
3, 213120, Note_on_c, 0, 103, 57
3, 213120, Note_on_c, 0, 95, 56
3, 213300, Note_on_c, 0, 95, 0
3, 213300, Note_on_c, 0, 103, 0
3, 213480, Note_on_c, 0, 50, 47
3, 213480, Note_on_c, 0, 35, 44
3, 213480, Note_on_c, 0, 42, 44
3, 213510, Note_on_c, 0, 42, 0
3, 213510, Note_on_c, 0, 35, 0
3, 213510, Note_on_c, 0, 50, 0
3, 213510, Note_on_c, 0, 54, 50
3, 213510, Note_on_c, 0, 47, 51
3, 213539, Note_on_c, 0, 47, 0
3, 213539, Note_on_c, 0, 54, 0
3, 213539, Note_on_c, 0, 59, 54
3, 213539, Note_on_c, 0, 50, 50
3, 213570, Note_on_c, 0, 50, 0
3, 213570, Note_on_c, 0, 59, 0
3, 213570, Note_on_c, 0, 62, 54
3, 213570, Note_on_c, 0, 54, 54
3, 213600, Note_on_c, 0, 54, 0
3, 213600, Note_on_c, 0, 62, 0
3, 213600, Note_on_c, 0, 66, 55
3, 213600, Note_on_c, 0, 59, 53
3, 213629, Note_on_c, 0, 59, 0
3, 213629, Note_on_c, 0, 66, 0
3, 213629, Note_on_c, 0, 71, 61
3, 213629, Note_on_c, 0, 62, 58
3, 213660, Note_on_c, 0, 62, 0
3, 213660, Note_on_c, 0, 71, 0
3, 213660, Note_on_c, 0, 74, 60
3, 213660, Note_on_c, 0, 66, 57
3, 213690, Note_on_c, 0, 66, 0
3, 213690, Note_on_c, 0, 74, 0
3, 213690, Note_on_c, 0, 71, 47
3, 213690, Note_on_c, 0, 62, 48
3, 213719, Note_on_c, 0, 62, 0
3, 213719, Note_on_c, 0, 71, 0
3, 213719, Note_on_c, 0, 66, 43
3, 213719, Note_on_c, 0, 59, 47
3, 213750, Note_on_c, 0, 59, 0
3, 213750, Note_on_c, 0, 66, 0
3, 213750, Note_on_c, 0, 62, 38
3, 213750, Note_on_c, 0, 54, 44
3, 213780, Note_on_c, 0, 54, 0
3, 213780, Note_on_c, 0, 62, 0
3, 213780, Note_on_c, 0, 59, 48
3, 213780, Note_on_c, 0, 50, 47
3, 213809, Note_on_c, 0, 50, 0
3, 213809, Note_on_c, 0, 59, 0
3, 213809, Note_on_c, 0, 54, 45
3, 213809, Note_on_c, 0, 47, 48
3, 213840, Note_on_c, 0, 47, 0
3, 213840, Note_on_c, 0, 54, 0
3, 213840, Note_on_c, 0, 50, 44
3, 213840, Note_on_c, 0, 42, 43
3, 213870, Note_on_c, 0, 42, 0
3, 213870, Note_on_c, 0, 50, 0
3, 213870, Note_on_c, 0, 54, 57
3, 213870, Note_on_c, 0, 47, 52
3, 213899, Note_on_c, 0, 47, 0
3, 213899, Note_on_c, 0, 54, 0
3, 213899, Note_on_c, 0, 59, 54
3, 213899, Note_on_c, 0, 50, 56
3, 213930, Note_on_c, 0, 50, 0
3, 213930, Note_on_c, 0, 59, 0
3, 213930, Note_on_c, 0, 62, 55
3, 213930, Note_on_c, 0, 54, 51
3, 213960, Note_on_c, 0, 54, 0
3, 213960, Note_on_c, 0, 62, 0
3, 213960, Note_on_c, 0, 66, 56
3, 213960, Note_on_c, 0, 59, 55
3, 213989, Note_on_c, 0, 59, 0
3, 213989, Note_on_c, 0, 66, 0
3, 213989, Note_on_c, 0, 71, 61
3, 213989, Note_on_c, 0, 62, 60
3, 214020, Note_on_c, 0, 62, 0
3, 214020, Note_on_c, 0, 71, 0
3, 214020, Note_on_c, 0, 74, 56
3, 214020, Note_on_c, 0, 66, 57
3, 214050, Note_on_c, 0, 66, 0
3, 214050, Note_on_c, 0, 74, 0
3, 214050, Note_on_c, 0, 78, 56
3, 214050, Note_on_c, 0, 71, 58
3, 214079, Note_on_c, 0, 71, 0
3, 214079, Note_on_c, 0, 78, 0
3, 214079, Note_on_c, 0, 83, 60
3, 214079, Note_on_c, 0, 74, 55
3, 214110, Note_on_c, 0, 74, 0
3, 214110, Note_on_c, 0, 83, 0
3, 214110, Note_on_c, 0, 86, 53
3, 214110, Note_on_c, 0, 78, 58
3, 214140, Note_on_c, 0, 78, 0
3, 214140, Note_on_c, 0, 86, 0
3, 214140, Note_on_c, 0, 90, 57
3, 214140, Note_on_c, 0, 83, 62
3, 214169, Note_on_c, 0, 83, 0
3, 214169, Note_on_c, 0, 90, 0
3, 214169, Note_on_c, 0, 95, 57
3, 214169, Note_on_c, 0, 86, 54
3, 214200, Note_on_c, 0, 86, 0
3, 214200, Note_on_c, 0, 95, 0
3, 214200, Note_on_c, 0, 98, 43
3, 214200, Note_on_c, 0, 90, 37
3, 214380, Note_on_c, 0, 90, 0
3, 214380, Note_on_c, 0, 98, 0
3, 214560, Note_on_c, 0, 60, 40
3, 214560, Note_on_c, 0, 45, 47
3, 214560, Note_on_c, 0, 52, 47
3, 214587, Note_on_c, 0, 52, 0
3, 214587, Note_on_c, 0, 45, 0
3, 214587, Note_on_c, 0, 60, 0
3, 214587, Note_on_c, 0, 64, 54
3, 214587, Note_on_c, 0, 57, 54
3, 214615, Note_on_c, 0, 57, 0
3, 214615, Note_on_c, 0, 64, 0
3, 214615, Note_on_c, 0, 69, 55
3, 214615, Note_on_c, 0, 60, 54
3, 214643, Note_on_c, 0, 60, 0
3, 214643, Note_on_c, 0, 69, 0
3, 214643, Note_on_c, 0, 72, 55
3, 214643, Note_on_c, 0, 64, 57
3, 214670, Note_on_c, 0, 64, 0
3, 214670, Note_on_c, 0, 72, 0
3, 214670, Note_on_c, 0, 76, 54
3, 214670, Note_on_c, 0, 69, 59
3, 214698, Note_on_c, 0, 69, 0
3, 214698, Note_on_c, 0, 76, 0
3, 214698, Note_on_c, 0, 81, 57
3, 214698, Note_on_c, 0, 72, 59
3, 214726, Note_on_c, 0, 72, 0
3, 214726, Note_on_c, 0, 81, 0
3, 214726, Note_on_c, 0, 84, 58
3, 214726, Note_on_c, 0, 76, 56
3, 214753, Note_on_c, 0, 76, 0
3, 214753, Note_on_c, 0, 84, 0
3, 214753, Note_on_c, 0, 81, 47
3, 214753, Note_on_c, 0, 72, 49
3, 214781, Note_on_c, 0, 72, 0
3, 214781, Note_on_c, 0, 81, 0
3, 214781, Note_on_c, 0, 76, 44
3, 214781, Note_on_c, 0, 69, 48
3, 214809, Note_on_c, 0, 69, 0
3, 214809, Note_on_c, 0, 76, 0
3, 214809, Note_on_c, 0, 72, 46
3, 214809, Note_on_c, 0, 64, 43
3, 214836, Note_on_c, 0, 64, 0
3, 214836, Note_on_c, 0, 72, 0
3, 214836, Note_on_c, 0, 69, 40
3, 214836, Note_on_c, 0, 60, 46
3, 214864, Note_on_c, 0, 60, 0
3, 214864, Note_on_c, 0, 69, 0
3, 214864, Note_on_c, 0, 64, 45
3, 214864, Note_on_c, 0, 57, 49
3, 214892, Note_on_c, 0, 57, 0
3, 214892, Note_on_c, 0, 64, 0
3, 214892, Note_on_c, 0, 60, 41
3, 214892, Note_on_c, 0, 52, 43
3, 214920, Note_on_c, 0, 52, 0
3, 214920, Note_on_c, 0, 60, 0
3, 214920, Note_on_c, 0, 59, 43
3, 214920, Note_on_c, 0, 43, 50
3, 214920, Note_on_c, 0, 52, 50
3, 214959, Note_on_c, 0, 52, 0
3, 214959, Note_on_c, 0, 43, 0
3, 214959, Note_on_c, 0, 59, 0
3, 214959, Note_on_c, 0, 64, 60
3, 214959, Note_on_c, 0, 55, 52
3, 214999, Note_on_c, 0, 55, 0
3, 214999, Note_on_c, 0, 64, 0
3, 214999, Note_on_c, 0, 67, 58
3, 214999, Note_on_c, 0, 59, 55
3, 215040, Note_on_c, 0, 59, 0
3, 215040, Note_on_c, 0, 67, 0
3, 215040, Note_on_c, 0, 71, 58
3, 215040, Note_on_c, 0, 64, 56
3, 215079, Note_on_c, 0, 64, 0
3, 215079, Note_on_c, 0, 71, 0
3, 215079, Note_on_c, 0, 76, 58
3, 215079, Note_on_c, 0, 67, 56
3, 215120, Note_on_c, 0, 67, 0
3, 215120, Note_on_c, 0, 76, 0
3, 215120, Note_on_c, 0, 79, 54
3, 215120, Note_on_c, 0, 71, 57
3, 215159, Note_on_c, 0, 71, 0
3, 215159, Note_on_c, 0, 79, 0
3, 215159, Note_on_c, 0, 83, 56
3, 215159, Note_on_c, 0, 76, 61
3, 215200, Note_on_c, 0, 76, 0
3, 215200, Note_on_c, 0, 83, 0
3, 215200, Note_on_c, 0, 88, 58
3, 215200, Note_on_c, 0, 79, 56
3, 215239, Note_on_c, 0, 79, 0
3, 215239, Note_on_c, 0, 88, 0
3, 215239, Note_on_c, 0, 91, 61
3, 215239, Note_on_c, 0, 83, 54
3, 215280, Note_on_c, 0, 83, 0
3, 215280, Note_on_c, 0, 91, 0
3, 215280, Note_on_c, 0, 95, 58
3, 215280, Note_on_c, 0, 88, 60
3, 215460, Note_on_c, 0, 88, 0
3, 215460, Note_on_c, 0, 95, 0
3, 215640, Note_on_c, 0, 60, 47
3, 215640, Note_on_c, 0, 45, 45
3, 215640, Note_on_c, 0, 52, 45
3, 215667, Note_on_c, 0, 52, 0
3, 215667, Note_on_c, 0, 45, 0
3, 215667, Note_on_c, 0, 60, 0
3, 215667, Note_on_c, 0, 64, 57
3, 215667, Note_on_c, 0, 57, 50
3, 215695, Note_on_c, 0, 57, 0
3, 215695, Note_on_c, 0, 64, 0
3, 215695, Note_on_c, 0, 69, 57
3, 215695, Note_on_c, 0, 60, 55
3, 215723, Note_on_c, 0, 60, 0
3, 215723, Note_on_c, 0, 69, 0
3, 215723, Note_on_c, 0, 72, 52
3, 215723, Note_on_c, 0, 64, 55
3, 215750, Note_on_c, 0, 64, 0
3, 215750, Note_on_c, 0, 72, 0
3, 215750, Note_on_c, 0, 76, 56
3, 215750, Note_on_c, 0, 69, 54
3, 215778, Note_on_c, 0, 69, 0
3, 215778, Note_on_c, 0, 76, 0
3, 215778, Note_on_c, 0, 81, 58
3, 215778, Note_on_c, 0, 72, 56
3, 215806, Note_on_c, 0, 72, 0
3, 215806, Note_on_c, 0, 81, 0
3, 215806, Note_on_c, 0, 84, 58
3, 215806, Note_on_c, 0, 76, 56
3, 215833, Note_on_c, 0, 76, 0
3, 215833, Note_on_c, 0, 84, 0
3, 215833, Note_on_c, 0, 81, 51
3, 215833, Note_on_c, 0, 72, 42
3, 215861, Note_on_c, 0, 72, 0
3, 215861, Note_on_c, 0, 81, 0
3, 215861, Note_on_c, 0, 76, 45
3, 215861, Note_on_c, 0, 69, 44
3, 215889, Note_on_c, 0, 69, 0
3, 215889, Note_on_c, 0, 76, 0
3, 215889, Note_on_c, 0, 72, 42
3, 215889, Note_on_c, 0, 64, 40
3, 215916, Note_on_c, 0, 64, 0
3, 215916, Note_on_c, 0, 72, 0
3, 215916, Note_on_c, 0, 69, 42
3, 215916, Note_on_c, 0, 60, 46
3, 215944, Note_on_c, 0, 60, 0
3, 215944, Note_on_c, 0, 69, 0
3, 215944, Note_on_c, 0, 64, 46
3, 215944, Note_on_c, 0, 57, 49
3, 215972, Note_on_c, 0, 57, 0
3, 215972, Note_on_c, 0, 64, 0
3, 215972, Note_on_c, 0, 60, 46
3, 215972, Note_on_c, 0, 52, 50
3, 216000, Note_on_c, 0, 52, 0
3, 216000, Note_on_c, 0, 60, 0
3, 216000, Note_on_c, 0, 59, 48
3, 216000, Note_on_c, 0, 43, 50
3, 216000, Note_on_c, 0, 52, 50
3, 216039, Note_on_c, 0, 52, 0
3, 216039, Note_on_c, 0, 43, 0
3, 216039, Note_on_c, 0, 59, 0
3, 216039, Note_on_c, 0, 64, 57
3, 216039, Note_on_c, 0, 55, 52
3, 216079, Note_on_c, 0, 55, 0
3, 216079, Note_on_c, 0, 64, 0
3, 216079, Note_on_c, 0, 67, 54
3, 216079, Note_on_c, 0, 59, 47
3, 216120, Note_on_c, 0, 59, 0
3, 216120, Note_on_c, 0, 67, 0
3, 216120, Note_on_c, 0, 71, 55
3, 216120, Note_on_c, 0, 64, 59
3, 216159, Note_on_c, 0, 64, 0
3, 216159, Note_on_c, 0, 71, 0
3, 216159, Note_on_c, 0, 76, 55
3, 216159, Note_on_c, 0, 67, 55
3, 216200, Note_on_c, 0, 67, 0
3, 216200, Note_on_c, 0, 76, 0
3, 216200, Note_on_c, 0, 79, 52
3, 216200, Note_on_c, 0, 71, 54
3, 216239, Note_on_c, 0, 71, 0
3, 216239, Note_on_c, 0, 79, 0
3, 216239, Note_on_c, 0, 83, 50
3, 216239, Note_on_c, 0, 76, 60
3, 216280, Note_on_c, 0, 76, 0
3, 216280, Note_on_c, 0, 83, 0
3, 216280, Note_on_c, 0, 88, 57
3, 216280, Note_on_c, 0, 79, 59
3, 216319, Note_on_c, 0, 79, 0
3, 216319, Note_on_c, 0, 88, 0
3, 216319, Note_on_c, 0, 91, 53
3, 216319, Note_on_c, 0, 83, 57
3, 216360, Note_on_c, 0, 83, 0
3, 216360, Note_on_c, 0, 91, 0
3, 216360, Note_on_c, 0, 95, 54
3, 216360, Note_on_c, 0, 88, 59
3, 216540, Note_on_c, 0, 88, 0
3, 216540, Note_on_c, 0, 95, 0
3, 216720, Note_on_c, 0, 36, 51
3, 216720, Note_on_c, 0, 48, 51
3, 216900, Note_on_c, 0, 55, 52
3, 217080, Note_on_c, 0, 55, 0
3, 217080, Note_on_c, 0, 56, 63
3, 217200, Note_on_c, 0, 56, 0
3, 217200, Note_on_c, 0, 57, 60
3, 217319, Note_on_c, 0, 57, 0
3, 217319, Note_on_c, 0, 59, 60
3, 217440, Note_on_c, 0, 59, 0
3, 217440, Note_on_c, 0, 48, 0
3, 217440, Note_on_c, 0, 36, 0
3, 217440, Note_on_c, 0, 60, 62
3, 217440, Note_on_c, 0, 54, 65
3, 217440, Note_on_c, 0, 38, 66
3, 217440, Note_on_c, 0, 50, 66
3, 217560, Note_on_c, 0, 60, 0
3, 217560, Note_on_c, 0, 62, 65
3, 217679, Note_on_c, 0, 62, 0
3, 217679, Note_on_c, 0, 64, 65
3, 217800, Note_on_c, 0, 64, 0
3, 217800, Note_on_c, 0, 54, 0
3, 217800, Note_on_c, 0, 38, 0
3, 217800, Note_on_c, 0, 50, 0
3, 217800, Note_on_c, 0, 60, 60
3, 217800, Note_on_c, 0, 64, 60
3, 217800, Note_on_c, 0, 50, 57
3, 217800, Note_on_c, 0, 31, 54
3, 217800, Note_on_c, 0, 43, 54
3, 218160, Note_on_c, 0, 64, 0
3, 218160, Note_on_c, 0, 60, 0
3, 218160, Note_on_c, 0, 59, 62
3, 218160, Note_on_c, 0, 62, 62
3, 218520, Note_on_c, 0, 62, 0
3, 218520, Note_on_c, 0, 31, 0
3, 218520, Note_on_c, 0, 43, 0
3, 218520, Note_on_c, 0, 50, 0
3, 218520, Note_on_c, 0, 59, 0
3, 218880, Note_on_c, 0, 52, 52
3, 218880, Note_on_c, 0, 54, 52
3, 218880, Note_on_c, 0, 60, 52
3, 218880, Note_on_c, 0, 64, 52
3, 218880, Note_on_c, 0, 33, 55
3, 218880, Note_on_c, 0, 45, 55
3, 219600, Note_on_c, 0, 45, 0
3, 219600, Note_on_c, 0, 54, 0
3, 219600, Note_on_c, 0, 60, 0
3, 219600, Note_on_c, 0, 52, 0
3, 219600, Note_on_c, 0, 33, 0
3, 219600, Note_on_c, 0, 64, 0
3, 219600, Note_on_c, 0, 52, 56
3, 219600, Note_on_c, 0, 59, 56
3, 219600, Note_on_c, 0, 64, 56
3, 219600, Note_on_c, 0, 31, 53
3, 219600, Note_on_c, 0, 43, 53
3, 219960, Note_on_c, 0, 43, 0
3, 219960, Note_on_c, 0, 64, 0
3, 219960, Note_on_c, 0, 52, 0
3, 219960, Note_on_c, 0, 59, 0
3, 219960, Note_on_c, 0, 31, 0
3, 219960, Note_on_c, 0, 52, 62
3, 219960, Note_on_c, 0, 57, 62
3, 219960, Note_on_c, 0, 60, 62
3, 219960, Note_on_c, 0, 64, 62
3, 219960, Note_on_c, 0, 30, 59
3, 219960, Note_on_c, 0, 42, 59
3, 220680, Note_on_c, 0, 42, 0
3, 220680, Note_on_c, 0, 57, 0
3, 220680, Note_on_c, 0, 60, 0
3, 220680, Note_on_c, 0, 52, 0
3, 220680, Note_on_c, 0, 30, 0
3, 220680, Note_on_c, 0, 64, 0
3, 220680, Note_on_c, 0, 52, 61
3, 220680, Note_on_c, 0, 59, 61
3, 220680, Note_on_c, 0, 64, 61
3, 220680, Note_on_c, 0, 31, 60
3, 220680, Note_on_c, 0, 43, 60
3, 221040, Note_on_c, 0, 43, 0
3, 221040, Note_on_c, 0, 64, 0
3, 221040, Note_on_c, 0, 52, 0
3, 221040, Note_on_c, 0, 59, 0
3, 221040, Note_on_c, 0, 31, 0
3, 221040, Note_on_c, 0, 52, 55
3, 221040, Note_on_c, 0, 55, 55
3, 221040, Note_on_c, 0, 61, 55
3, 221040, Note_on_c, 0, 33, 63
3, 221040, Note_on_c, 0, 45, 63
3, 221160, Note_on_c, 0, 61, 0
3, 221160, Note_on_c, 0, 52, 0
3, 221160, Note_on_c, 0, 55, 0
3, 221279, Note_on_c, 0, 51, 54
3, 221400, Note_on_c, 0, 51, 0
3, 221400, Note_on_c, 0, 52, 62
3, 221520, Note_on_c, 0, 52, 0
3, 221520, Note_on_c, 0, 54, 63
3, 221639, Note_on_c, 0, 54, 0
3, 221639, Note_on_c, 0, 55, 64
3, 221760, Note_on_c, 0, 55, 0
3, 221760, Note_on_c, 0, 33, 0
3, 221760, Note_on_c, 0, 45, 0
3, 221760, Note_on_c, 0, 56, 63
3, 221760, Note_on_c, 0, 38, 64
3, 221760, Note_on_c, 0, 50, 64
3, 221880, Note_on_c, 0, 56, 0
3, 221880, Note_on_c, 0, 57, 64
3, 221999, Note_on_c, 0, 57, 0
3, 221999, Note_on_c, 0, 58, 65
3, 222120, Note_on_c, 0, 58, 0
3, 222120, Note_on_c, 0, 50, 0
3, 222120, Note_on_c, 0, 38, 0
3, 222120, Note_on_c, 0, 54, 60
3, 222120, Note_on_c, 0, 58, 60
3, 222120, Note_on_c, 0, 31, 60
3, 222120, Note_on_c, 0, 43, 60
3, 223200, Note_on_c, 0, 43, 0
3, 223200, Note_on_c, 0, 54, 0
3, 223200, Note_on_c, 0, 58, 0
3, 223200, Note_on_c, 0, 31, 0
3, 223200, Note_on_c, 0, 55, 45
3, 223200, Note_on_c, 0, 59, 45
3, 223200, Note_on_c, 0, 31, 45
3, 223200, Note_on_c, 0, 43, 45
3, 223920, Note_on_c, 0, 43, 0
3, 223920, Note_on_c, 0, 55, 0
3, 223920, Note_on_c, 0, 59, 0
3, 223920, Note_on_c, 0, 31, 0
3, 224280, Note_on_c, 0, 68, 46
3, 224339, Note_on_c, 0, 68, 0
3, 224339, Note_on_c, 0, 69, 53
3, 224400, Note_on_c, 0, 69, 0
3, 224400, Note_on_c, 0, 70, 56
3, 224460, Note_on_c, 0, 70, 0
3, 224460, Note_on_c, 0, 71, 48
3, 224519, Note_on_c, 0, 71, 0
3, 224519, Note_on_c, 0, 70, 48
3, 224580, Note_on_c, 0, 70, 0
3, 224580, Note_on_c, 0, 71, 54
3, 224640, Note_on_c, 0, 71, 0
3, 224640, Note_on_c, 0, 72, 56
3, 224699, Note_on_c, 0, 72, 0
3, 224699, Note_on_c, 0, 71, 46
3, 224760, Note_on_c, 0, 71, 0
3, 224760, Note_on_c, 0, 72, 54
3, 224820, Note_on_c, 0, 72, 0
3, 224820, Note_on_c, 0, 73, 49
3, 224879, Note_on_c, 0, 73, 0
3, 224879, Note_on_c, 0, 72, 50
3, 224940, Note_on_c, 0, 72, 0
3, 224940, Note_on_c, 0, 73, 57
3, 225000, Note_on_c, 0, 73, 0
3, 225000, Note_on_c, 0, 74, 56
3, 225059, Note_on_c, 0, 74, 0
3, 225059, Note_on_c, 0, 73, 46
3, 225120, Note_on_c, 0, 73, 0
3, 225120, Note_on_c, 0, 74, 56
3, 225180, Note_on_c, 0, 74, 0
3, 225180, Note_on_c, 0, 75, 56
3, 225239, Note_on_c, 0, 75, 0
3, 225239, Note_on_c, 0, 74, 47
3, 225300, Note_on_c, 0, 74, 0
3, 225300, Note_on_c, 0, 75, 52
3, 225360, Note_on_c, 0, 75, 0
3, 225360, Note_on_c, 0, 76, 51
3, 225419, Note_on_c, 0, 76, 0
3, 225419, Note_on_c, 0, 75, 47
3, 225480, Note_on_c, 0, 75, 0
3, 225480, Note_on_c, 0, 76, 50
3, 225540, Note_on_c, 0, 76, 0
3, 225540, Note_on_c, 0, 77, 53
3, 225599, Note_on_c, 0, 77, 0
3, 225599, Note_on_c, 0, 76, 54
3, 225660, Note_on_c, 0, 76, 0
3, 225660, Note_on_c, 0, 77, 52
3, 225720, Note_on_c, 0, 77, 0
3, 225720, Note_on_c, 0, 78, 51
3, 225779, Note_on_c, 0, 78, 0
3, 225779, Note_on_c, 0, 77, 51
3, 225840, Note_on_c, 0, 77, 0
3, 225840, Note_on_c, 0, 78, 49
3, 225900, Note_on_c, 0, 78, 0
3, 225900, Note_on_c, 0, 75, 47
3, 225959, Note_on_c, 0, 75, 0
3, 225959, Note_on_c, 0, 74, 48
3, 226020, Note_on_c, 0, 74, 0
3, 226020, Note_on_c, 0, 75, 52
3, 226080, Note_on_c, 0, 75, 0
3, 226080, Note_on_c, 0, 76, 37
3, 226107, Note_on_c, 0, 76, 0
3, 226107, Note_on_c, 0, 70, 28
3, 226135, Note_on_c, 0, 70, 0
3, 226135, Note_on_c, 0, 71, 35
3, 226163, Note_on_c, 0, 71, 0
3, 226163, Note_on_c, 0, 76, 41
3, 226190, Note_on_c, 0, 76, 0
3, 226190, Note_on_c, 0, 79, 31
3, 226218, Note_on_c, 0, 79, 0
3, 226218, Note_on_c, 0, 83, 35
3, 226246, Note_on_c, 0, 83, 0
3, 226246, Note_on_c, 0, 75, 26
3, 226273, Note_on_c, 0, 75, 0
3, 226273, Note_on_c, 0, 76, 39
3, 226301, Note_on_c, 0, 76, 0
3, 226301, Note_on_c, 0, 79, 37
3, 226329, Note_on_c, 0, 79, 0
3, 226329, Note_on_c, 0, 83, 43
3, 226356, Note_on_c, 0, 83, 0
3, 226356, Note_on_c, 0, 88, 39
3, 226384, Note_on_c, 0, 88, 0
3, 226384, Note_on_c, 0, 78, 26
3, 226412, Note_on_c, 0, 78, 0
3, 226412, Note_on_c, 0, 79, 35
3, 226440, Note_on_c, 0, 79, 0
3, 226440, Note_on_c, 0, 83, 37
3, 226466, Note_on_c, 0, 83, 0
3, 226466, Note_on_c, 0, 88, 39
3, 226491, Note_on_c, 0, 88, 0
3, 226491, Note_on_c, 0, 91, 39
3, 226516, Note_on_c, 0, 91, 0
3, 226516, Note_on_c, 0, 82, 28
3, 226543, Note_on_c, 0, 82, 0
3, 226543, Note_on_c, 0, 83, 36
3, 226568, Note_on_c, 0, 83, 0
3, 226568, Note_on_c, 0, 88, 29
3, 226593, Note_on_c, 0, 88, 0
3, 226593, Note_on_c, 0, 91, 40
3, 226620, Note_on_c, 0, 91, 0
3, 226620, Note_on_c, 0, 95, 40
3, 226646, Note_on_c, 0, 95, 0
3, 226646, Note_on_c, 0, 87, 29
3, 226671, Note_on_c, 0, 87, 0
3, 226671, Note_on_c, 0, 88, 34
3, 226696, Note_on_c, 0, 88, 0
3, 226696, Note_on_c, 0, 91, 36
3, 226723, Note_on_c, 0, 91, 0
3, 226723, Note_on_c, 0, 95, 38
3, 226748, Note_on_c, 0, 95, 0
3, 226748, Note_on_c, 0, 100, 48
3, 226773, Note_on_c, 0, 100, 0
3, 226773, Note_on_c, 0, 90, 39
3, 226800, Note_on_c, 0, 90, 0
3, 226800, Note_on_c, 0, 91, 43
3, 226980, Note_on_c, 0, 91, 0
3, 227160, Note_on_c, 0, 68, 47
3, 227219, Note_on_c, 0, 68, 0
3, 227219, Note_on_c, 0, 69, 54
3, 227280, Note_on_c, 0, 69, 0
3, 227280, Note_on_c, 0, 70, 55
3, 227340, Note_on_c, 0, 70, 0
3, 227340, Note_on_c, 0, 71, 51
3, 227399, Note_on_c, 0, 71, 0
3, 227399, Note_on_c, 0, 70, 49
3, 227460, Note_on_c, 0, 70, 0
3, 227460, Note_on_c, 0, 71, 51
3, 227520, Note_on_c, 0, 71, 0
3, 227520, Note_on_c, 0, 72, 51
3, 227579, Note_on_c, 0, 72, 0
3, 227579, Note_on_c, 0, 71, 47
3, 227640, Note_on_c, 0, 71, 0
3, 227640, Note_on_c, 0, 72, 51
3, 227700, Note_on_c, 0, 72, 0
3, 227700, Note_on_c, 0, 73, 54
3, 227759, Note_on_c, 0, 73, 0
3, 227759, Note_on_c, 0, 72, 49
3, 227820, Note_on_c, 0, 72, 0
3, 227820, Note_on_c, 0, 73, 51
3, 227880, Note_on_c, 0, 73, 0
3, 227880, Note_on_c, 0, 74, 49
3, 227939, Note_on_c, 0, 74, 0
3, 227939, Note_on_c, 0, 73, 48
3, 228000, Note_on_c, 0, 73, 0
3, 228000, Note_on_c, 0, 74, 54
3, 228060, Note_on_c, 0, 74, 0
3, 228060, Note_on_c, 0, 75, 55
3, 228119, Note_on_c, 0, 75, 0
3, 228119, Note_on_c, 0, 74, 49
3, 228180, Note_on_c, 0, 74, 0
3, 228180, Note_on_c, 0, 75, 54
3, 228240, Note_on_c, 0, 75, 0
3, 228240, Note_on_c, 0, 76, 53
3, 228299, Note_on_c, 0, 76, 0
3, 228299, Note_on_c, 0, 75, 49
3, 228360, Note_on_c, 0, 75, 0
3, 228360, Note_on_c, 0, 76, 54
3, 228420, Note_on_c, 0, 76, 0
3, 228420, Note_on_c, 0, 77, 49
3, 228479, Note_on_c, 0, 77, 0
3, 228479, Note_on_c, 0, 76, 52
3, 228540, Note_on_c, 0, 76, 0
3, 228540, Note_on_c, 0, 77, 52
3, 228600, Note_on_c, 0, 77, 0
3, 228600, Note_on_c, 0, 78, 54
3, 228659, Note_on_c, 0, 78, 0
3, 228659, Note_on_c, 0, 77, 45
3, 228720, Note_on_c, 0, 77, 0
3, 228720, Note_on_c, 0, 78, 52
3, 228780, Note_on_c, 0, 78, 0
3, 228780, Note_on_c, 0, 75, 46
3, 228839, Note_on_c, 0, 75, 0
3, 228839, Note_on_c, 0, 74, 48
3, 228900, Note_on_c, 0, 74, 0
3, 228900, Note_on_c, 0, 75, 56
3, 228960, Note_on_c, 0, 75, 0
3, 228960, Note_on_c, 0, 76, 32
3, 228983, Note_on_c, 0, 76, 0
3, 228983, Note_on_c, 0, 68, 29
3, 229005, Note_on_c, 0, 68, 0
3, 229005, Note_on_c, 0, 69, 35
3, 229028, Note_on_c, 0, 69, 0
3, 229028, Note_on_c, 0, 72, 35
3, 229050, Note_on_c, 0, 72, 0
3, 229050, Note_on_c, 0, 76, 39
3, 229073, Note_on_c, 0, 76, 0
3, 229073, Note_on_c, 0, 81, 34
3, 229095, Note_on_c, 0, 81, 0
3, 229095, Note_on_c, 0, 71, 29
3, 229118, Note_on_c, 0, 71, 0
3, 229118, Note_on_c, 0, 72, 33
3, 229140, Note_on_c, 0, 72, 0
3, 229140, Note_on_c, 0, 76, 47
3, 229163, Note_on_c, 0, 76, 0
3, 229163, Note_on_c, 0, 81, 43
3, 229185, Note_on_c, 0, 81, 0
3, 229185, Note_on_c, 0, 84, 36
3, 229208, Note_on_c, 0, 84, 0
3, 229208, Note_on_c, 0, 75, 29
3, 229230, Note_on_c, 0, 75, 0
3, 229230, Note_on_c, 0, 76, 29
3, 229253, Note_on_c, 0, 76, 0
3, 229253, Note_on_c, 0, 81, 36
3, 229275, Note_on_c, 0, 81, 0
3, 229275, Note_on_c, 0, 84, 36
3, 229298, Note_on_c, 0, 84, 0
3, 229298, Note_on_c, 0, 88, 38
3, 229320, Note_on_c, 0, 88, 0
3, 229320, Note_on_c, 0, 80, 27
3, 229343, Note_on_c, 0, 80, 0
3, 229343, Note_on_c, 0, 81, 39
3, 229365, Note_on_c, 0, 81, 0
3, 229365, Note_on_c, 0, 84, 29
3, 229388, Note_on_c, 0, 84, 0
3, 229388, Note_on_c, 0, 88, 38
3, 229410, Note_on_c, 0, 88, 0
3, 229410, Note_on_c, 0, 93, 38
3, 229433, Note_on_c, 0, 93, 0
3, 229433, Note_on_c, 0, 83, 27
3, 229455, Note_on_c, 0, 83, 0
3, 229455, Note_on_c, 0, 84, 31
3, 229478, Note_on_c, 0, 84, 0
3, 229478, Note_on_c, 0, 88, 42
3, 229500, Note_on_c, 0, 88, 0
3, 229500, Note_on_c, 0, 93, 42
3, 229523, Note_on_c, 0, 93, 0
3, 229523, Note_on_c, 0, 96, 37
3, 229545, Note_on_c, 0, 96, 0
3, 229545, Note_on_c, 0, 87, 31
3, 229568, Note_on_c, 0, 87, 0
3, 229568, Note_on_c, 0, 88, 35
3, 229590, Note_on_c, 0, 88, 0
3, 229590, Note_on_c, 0, 93, 36
3, 229613, Note_on_c, 0, 93, 0
3, 229613, Note_on_c, 0, 96, 38
3, 229635, Note_on_c, 0, 96, 0
3, 229635, Note_on_c, 0, 100, 43
3, 229658, Note_on_c, 0, 100, 0
3, 229658, Note_on_c, 0, 92, 42
3, 229680, Note_on_c, 0, 92, 0
3, 229680, Note_on_c, 0, 93, 46
3, 229860, Note_on_c, 0, 93, 0
3, 230040, Note_on_c, 0, 78, 59
3, 230220, Note_on_c, 0, 78, 0
3, 230220, Note_on_c, 0, 79, 72
3, 230400, Note_on_c, 0, 79, 0
3, 230400, Note_on_c, 0, 81, 75
3, 230400, Note_on_c, 0, 66, 27
3, 230400, Note_on_c, 0, 50, 43
3, 230400, Note_on_c, 0, 60, 43
3, 230400, Note_on_c, 0, 62, 43
3, 230580, Note_on_c, 0, 81, 0
3, 230580, Note_on_c, 0, 79, 66
3, 230760, Note_on_c, 0, 79, 0
3, 230760, Note_on_c, 0, 78, 67
3, 230940, Note_on_c, 0, 78, 0
3, 230940, Note_on_c, 0, 79, 74
3, 231120, Note_on_c, 0, 79, 0
3, 231120, Note_on_c, 0, 81, 76
3, 231480, Note_on_c, 0, 81, 0
3, 231480, Note_on_c, 0, 60, 0
3, 231480, Note_on_c, 0, 66, 0
3, 231480, Note_on_c, 0, 50, 0
3, 231480, Note_on_c, 0, 62, 0
3, 231480, Note_on_c, 0, 83, 73
3, 231480, Note_on_c, 0, 66, 37
3, 231480, Note_on_c, 0, 50, 53
3, 231480, Note_on_c, 0, 60, 53
3, 231480, Note_on_c, 0, 63, 53
3, 231840, Note_on_c, 0, 63, 0
3, 231840, Note_on_c, 0, 50, 0
3, 231840, Note_on_c, 0, 83, 0
3, 231840, Note_on_c, 0, 66, 0
3, 231840, Note_on_c, 0, 60, 0
3, 231840, Note_on_c, 0, 79, 59
3, 231840, Note_on_c, 0, 67, 38
3, 231840, Note_on_c, 0, 71, 38
3, 231840, Note_on_c, 0, 50, 54
3, 231840, Note_on_c, 0, 55, 54
3, 231840, Note_on_c, 0, 59, 54
3, 231840, Note_on_c, 0, 64, 54
3, 231930, Note_on_c, 0, 79, 0
3, 231930, Note_on_c, 0, 78, 68
3, 232020, Note_on_c, 0, 78, 0
3, 232020, Note_on_c, 0, 76, 64
3, 232110, Note_on_c, 0, 76, 0
3, 232110, Note_on_c, 0, 75, 67
3, 232200, Note_on_c, 0, 75, 0
3, 232200, Note_on_c, 0, 76, 71
3, 232740, Note_on_c, 0, 76, 0
3, 232740, Note_on_c, 0, 59, 0
3, 232740, Note_on_c, 0, 71, 0
3, 232740, Note_on_c, 0, 50, 0
3, 232740, Note_on_c, 0, 67, 0
3, 232740, Note_on_c, 0, 64, 0
3, 232740, Note_on_c, 0, 55, 0
3, 232920, Note_on_c, 0, 78, 63
3, 233100, Note_on_c, 0, 78, 0
3, 233100, Note_on_c, 0, 79, 73
3, 233280, Note_on_c, 0, 79, 0
3, 233280, Note_on_c, 0, 81, 74
3, 233280, Note_on_c, 0, 66, 27
3, 233280, Note_on_c, 0, 50, 47
3, 233280, Note_on_c, 0, 60, 47
3, 233280, Note_on_c, 0, 62, 47
3, 233460, Note_on_c, 0, 81, 0
3, 233460, Note_on_c, 0, 79, 66
3, 233640, Note_on_c, 0, 79, 0
3, 233640, Note_on_c, 0, 78, 68
3, 233820, Note_on_c, 0, 78, 0
3, 233820, Note_on_c, 0, 79, 72
3, 234000, Note_on_c, 0, 79, 0
3, 234000, Note_on_c, 0, 81, 75
3, 234360, Note_on_c, 0, 81, 0
3, 234360, Note_on_c, 0, 60, 0
3, 234360, Note_on_c, 0, 66, 0
3, 234360, Note_on_c, 0, 50, 0
3, 234360, Note_on_c, 0, 62, 0
3, 234360, Note_on_c, 0, 83, 71
3, 234360, Note_on_c, 0, 66, 32
3, 234360, Note_on_c, 0, 50, 54
3, 234360, Note_on_c, 0, 60, 54
3, 234360, Note_on_c, 0, 63, 54
3, 234720, Note_on_c, 0, 63, 0
3, 234720, Note_on_c, 0, 50, 0
3, 234720, Note_on_c, 0, 83, 0
3, 234720, Note_on_c, 0, 66, 0
3, 234720, Note_on_c, 0, 60, 0
3, 234720, Note_on_c, 0, 69, 57
3, 234720, Note_on_c, 0, 72, 57
3, 234720, Note_on_c, 0, 76, 57
3, 234720, Note_on_c, 0, 50, 53
3, 234720, Note_on_c, 0, 57, 53
3, 234720, Note_on_c, 0, 60, 53
3, 234720, Note_on_c, 0, 64, 53
3, 237240, Note_on_c, 0, 64, 0
3, 237240, Note_on_c, 0, 57, 0
3, 237240, Note_on_c, 0, 72, 0
3, 237240, Note_on_c, 0, 76, 0
3, 237240, Note_on_c, 0, 69, 0
3, 237240, Note_on_c, 0, 60, 0
3, 237240, Note_on_c, 0, 50, 0
3, 237240, Note_on_c, 0, 78, 52
3, 237420, Note_on_c, 0, 78, 0
3, 237420, Note_on_c, 0, 79, 54
3, 237600, Note_on_c, 0, 79, 0
3, 237600, Note_on_c, 0, 74, 48
3, 237600, Note_on_c, 0, 81, 48
3, 237600, Note_on_c, 0, 84, 48
3, 237659, Note_on_c, 0, 85, 45
3, 237720, Note_on_c, 0, 85, 0
3, 237720, Note_on_c, 0, 86, 50
3, 237780, Note_on_c, 0, 86, 0
3, 237780, Note_on_c, 0, 88, 54
3, 237839, Note_on_c, 0, 88, 0
3, 237839, Note_on_c, 0, 89, 55
3, 237900, Note_on_c, 0, 89, 0
3, 237900, Note_on_c, 0, 90, 56
3, 237960, Note_on_c, 0, 90, 0
3, 237960, Note_on_c, 0, 74, 0
3, 237960, Note_on_c, 0, 81, 0
3, 237960, Note_on_c, 0, 84, 0
3, 237960, Note_on_c, 0, 69, 38
3, 237960, Note_on_c, 0, 76, 38
3, 237960, Note_on_c, 0, 78, 38
3, 238019, Note_on_c, 0, 80, 45
3, 238080, Note_on_c, 0, 80, 0
3, 238080, Note_on_c, 0, 81, 53
3, 238140, Note_on_c, 0, 81, 0
3, 238140, Note_on_c, 0, 82, 54
3, 238199, Note_on_c, 0, 82, 0
3, 238199, Note_on_c, 0, 83, 55
3, 238260, Note_on_c, 0, 83, 0
3, 238260, Note_on_c, 0, 84, 58
3, 238320, Note_on_c, 0, 84, 0
3, 238320, Note_on_c, 0, 69, 0
3, 238320, Note_on_c, 0, 76, 0
3, 238320, Note_on_c, 0, 78, 0
3, 238320, Note_on_c, 0, 66, 45
3, 238320, Note_on_c, 0, 69, 45
3, 238320, Note_on_c, 0, 76, 45
3, 238379, Note_on_c, 0, 76, 45
3, 238440, Note_on_c, 0, 76, 0
3, 238440, Note_on_c, 0, 78, 51
3, 238500, Note_on_c, 0, 78, 0
3, 238500, Note_on_c, 0, 79, 48
3, 238559, Note_on_c, 0, 79, 0
3, 238559, Note_on_c, 0, 80, 54
3, 238620, Note_on_c, 0, 80, 0
3, 238620, Note_on_c, 0, 82, 55
3, 238680, Note_on_c, 0, 82, 0
3, 238680, Note_on_c, 0, 66, 0
3, 238680, Note_on_c, 0, 69, 0
3, 238680, Note_on_c, 0, 76, 0
3, 238680, Note_on_c, 0, 62, 47
3, 238680, Note_on_c, 0, 69, 47
3, 238680, Note_on_c, 0, 72, 47
3, 238739, Note_on_c, 0, 73, 45
3, 238800, Note_on_c, 0, 73, 0
3, 238800, Note_on_c, 0, 74, 50
3, 238860, Note_on_c, 0, 74, 0
3, 238860, Note_on_c, 0, 76, 54
3, 238919, Note_on_c, 0, 76, 0
3, 238919, Note_on_c, 0, 77, 50
3, 238980, Note_on_c, 0, 77, 0
3, 238980, Note_on_c, 0, 78, 54
3, 239040, Note_on_c, 0, 78, 0
3, 239040, Note_on_c, 0, 62, 0
3, 239040, Note_on_c, 0, 69, 0
3, 239040, Note_on_c, 0, 72, 0
3, 239040, Note_on_c, 0, 61, 44
3, 239040, Note_on_c, 0, 67, 44
3, 239040, Note_on_c, 0, 70, 44
3, 239099, Note_on_c, 0, 71, 43
3, 239160, Note_on_c, 0, 71, 0
3, 239160, Note_on_c, 0, 72, 52
3, 239220, Note_on_c, 0, 72, 0
3, 239220, Note_on_c, 0, 73, 50
3, 239279, Note_on_c, 0, 73, 0
3, 239279, Note_on_c, 0, 75, 59
3, 239340, Note_on_c, 0, 75, 0
3, 239340, Note_on_c, 0, 76, 55
3, 239400, Note_on_c, 0, 76, 0
3, 239400, Note_on_c, 0, 61, 0
3, 239400, Note_on_c, 0, 67, 0
3, 239400, Note_on_c, 0, 70, 0
3, 239400, Note_on_c, 0, 58, 39
3, 239400, Note_on_c, 0, 61, 39
3, 239400, Note_on_c, 0, 67, 39
3, 239459, Note_on_c, 0, 69, 47
3, 239520, Note_on_c, 0, 69, 0
3, 239520, Note_on_c, 0, 70, 55
3, 239580, Note_on_c, 0, 70, 0
3, 239580, Note_on_c, 0, 71, 55
3, 239639, Note_on_c, 0, 71, 0
3, 239639, Note_on_c, 0, 72, 54
3, 239700, Note_on_c, 0, 72, 0
3, 239700, Note_on_c, 0, 73, 55
3, 239760, Note_on_c, 0, 73, 0
3, 239760, Note_on_c, 0, 58, 0
3, 239760, Note_on_c, 0, 61, 0
3, 239760, Note_on_c, 0, 67, 0
3, 239760, Note_on_c, 0, 55, 40
3, 239760, Note_on_c, 0, 58, 40
3, 239760, Note_on_c, 0, 61, 40
3, 239819, Note_on_c, 0, 63, 43
3, 239880, Note_on_c, 0, 63, 0
3, 239880, Note_on_c, 0, 64, 44
3, 239940, Note_on_c, 0, 64, 0
3, 239940, Note_on_c, 0, 65, 57
3, 239999, Note_on_c, 0, 65, 0
3, 239999, Note_on_c, 0, 66, 48
3, 240060, Note_on_c, 0, 66, 0
3, 240060, Note_on_c, 0, 67, 54
3, 240120, Note_on_c, 0, 67, 0
3, 240120, Note_on_c, 0, 55, 0
3, 240120, Note_on_c, 0, 58, 0
3, 240120, Note_on_c, 0, 61, 0
3, 240120, Note_on_c, 0, 50, 49
3, 240120, Note_on_c, 0, 55, 49
3, 240120, Note_on_c, 0, 58, 49
3, 240120, Note_on_c, 0, 61, 49
3, 240179, Note_on_c, 0, 67, 41
3, 240240, Note_on_c, 0, 67, 0
3, 240240, Note_on_c, 0, 66, 49
3, 240300, Note_on_c, 0, 66, 0
3, 240300, Note_on_c, 0, 65, 44
3, 240359, Note_on_c, 0, 65, 0
3, 240359, Note_on_c, 0, 64, 46
3, 240420, Note_on_c, 0, 64, 0
3, 240420, Note_on_c, 0, 63, 46
3, 240480, Note_on_c, 0, 63, 0
3, 240480, Note_on_c, 0, 58, 0
3, 240480, Note_on_c, 0, 50, 0
3, 240480, Note_on_c, 0, 55, 0
3, 240480, Note_on_c, 0, 61, 0
3, 240480, Note_on_c, 0, 62, 45
3, 240480, Note_on_c, 0, 50, 49
3, 240480, Note_on_c, 0, 57, 49
3, 240480, Note_on_c, 0, 60, 49
3, 240539, Note_on_c, 0, 62, 0
3, 240539, Note_on_c, 0, 61, 43
3, 240600, Note_on_c, 0, 61, 0
3, 240600, Note_on_c, 0, 62, 47
3, 240660, Note_on_c, 0, 62, 0
3, 240660, Note_on_c, 0, 64, 57
3, 240719, Note_on_c, 0, 64, 0
3, 240719, Note_on_c, 0, 65, 50
3, 240780, Note_on_c, 0, 65, 0
3, 240780, Note_on_c, 0, 66, 51
3, 240840, Note_on_c, 0, 66, 0
3, 240840, Note_on_c, 0, 60, 0
3, 240840, Note_on_c, 0, 57, 0
3, 240840, Note_on_c, 0, 50, 0
3, 240840, Note_on_c, 0, 52, 43
3, 240840, Note_on_c, 0, 54, 43
3, 240899, Note_on_c, 0, 56, 45
3, 240960, Note_on_c, 0, 56, 0
3, 240960, Note_on_c, 0, 57, 55
3, 241020, Note_on_c, 0, 57, 0
3, 241020, Note_on_c, 0, 58, 50
3, 241079, Note_on_c, 0, 58, 0
3, 241079, Note_on_c, 0, 59, 46
3, 241140, Note_on_c, 0, 59, 0
3, 241140, Note_on_c, 0, 60, 55
3, 241200, Note_on_c, 0, 60, 0
3, 241200, Note_on_c, 0, 54, 0
3, 241200, Note_on_c, 0, 52, 0
3, 241200, Note_on_c, 0, 45, 43
3, 241259, Note_on_c, 0, 52, 48
3, 241320, Note_on_c, 0, 52, 0
3, 241320, Note_on_c, 0, 54, 53
3, 241380, Note_on_c, 0, 54, 0
3, 241380, Note_on_c, 0, 55, 54
3, 241439, Note_on_c, 0, 55, 0
3, 241439, Note_on_c, 0, 56, 50
3, 241500, Note_on_c, 0, 56, 0
3, 241500, Note_on_c, 0, 58, 51
3, 241560, Note_on_c, 0, 58, 0
3, 241560, Note_on_c, 0, 45, 0
3, 241560, Note_on_c, 0, 38, 47
3, 241619, Note_on_c, 0, 49, 48
3, 241680, Note_on_c, 0, 49, 0
3, 241680, Note_on_c, 0, 50, 48
3, 241740, Note_on_c, 0, 50, 0
3, 241740, Note_on_c, 0, 52, 51
3, 241799, Note_on_c, 0, 52, 0
3, 241799, Note_on_c, 0, 53, 53
3, 241860, Note_on_c, 0, 53, 0
3, 241860, Note_on_c, 0, 54, 51
3, 241920, Note_on_c, 0, 54, 0
3, 241920, Note_on_c, 0, 38, 0
3, 241920, Note_on_c, 0, 38, 50
3, 241979, Note_on_c, 0, 47, 44
3, 242040, Note_on_c, 0, 47, 0
3, 242040, Note_on_c, 0, 48, 53
3, 242100, Note_on_c, 0, 48, 0
3, 242100, Note_on_c, 0, 49, 52
3, 242159, Note_on_c, 0, 49, 0
3, 242159, Note_on_c, 0, 51, 49
3, 242220, Note_on_c, 0, 51, 0
3, 242220, Note_on_c, 0, 52, 47
3, 242280, Note_on_c, 0, 52, 0
3, 242280, Note_on_c, 0, 38, 0
3, 242280, Note_on_c, 0, 38, 49
3, 242339, Note_on_c, 0, 45, 42
3, 242400, Note_on_c, 0, 45, 0
3, 242400, Note_on_c, 0, 46, 51
3, 242460, Note_on_c, 0, 46, 0
3, 242460, Note_on_c, 0, 47, 51
3, 242519, Note_on_c, 0, 47, 0
3, 242519, Note_on_c, 0, 48, 54
3, 242580, Note_on_c, 0, 48, 0
3, 242580, Note_on_c, 0, 49, 49
3, 242640, Note_on_c, 0, 49, 0
3, 242640, Note_on_c, 0, 38, 0
3, 242640, Note_on_c, 0, 38, 49
3, 242699, Note_on_c, 0, 39, 46
3, 242760, Note_on_c, 0, 39, 0
3, 242760, Note_on_c, 0, 40, 47
3, 242820, Note_on_c, 0, 40, 0
3, 242820, Note_on_c, 0, 41, 49
3, 242879, Note_on_c, 0, 41, 0
3, 242879, Note_on_c, 0, 42, 53
3, 242940, Note_on_c, 0, 42, 0
3, 242940, Note_on_c, 0, 43, 50
3, 243000, Note_on_c, 0, 43, 0
3, 243000, Note_on_c, 0, 38, 0
3, 243000, Note_on_c, 0, 38, 52
3, 243059, Note_on_c, 0, 55, 43
3, 243120, Note_on_c, 0, 55, 0
3, 243120, Note_on_c, 0, 54, 50
3, 243180, Note_on_c, 0, 54, 0
3, 243180, Note_on_c, 0, 53, 48
3, 243239, Note_on_c, 0, 53, 0
3, 243239, Note_on_c, 0, 52, 46
3, 243300, Note_on_c, 0, 52, 0
3, 243300, Note_on_c, 0, 51, 54
3, 243360, Note_on_c, 0, 51, 0
3, 243360, Note_on_c, 0, 38, 0
3, 243360, Note_on_c, 0, 50, 51
3, 243360, Note_on_c, 0, 38, 51
3, 243720, Note_on_c, 0, 38, 0
3, 243720, Note_on_c, 0, 50, 0
3, 243720, Note_on_c, 0, 93, 89
3, 243720, Note_on_c, 0, 84, 70
3, 243752, Note_on_c, 0, 84, 0
3, 243752, Note_on_c, 0, 93, 0
3, 243752, Note_on_c, 0, 90, 67
3, 243752, Note_on_c, 0, 81, 47
3, 243785, Note_on_c, 0, 81, 0
3, 243785, Note_on_c, 0, 90, 0
3, 243785, Note_on_c, 0, 88, 63
3, 243785, Note_on_c, 0, 78, 45
3, 243817, Note_on_c, 0, 78, 0
3, 243817, Note_on_c, 0, 88, 0
3, 243817, Note_on_c, 0, 84, 64
3, 243817, Note_on_c, 0, 76, 50
3, 243851, Note_on_c, 0, 76, 0
3, 243851, Note_on_c, 0, 84, 0
3, 243851, Note_on_c, 0, 81, 63
3, 243851, Note_on_c, 0, 72, 47
3, 243883, Note_on_c, 0, 72, 0
3, 243883, Note_on_c, 0, 81, 0
3, 243883, Note_on_c, 0, 78, 67
3, 243883, Note_on_c, 0, 69, 47
3, 243915, Note_on_c, 0, 69, 0
3, 243915, Note_on_c, 0, 78, 0
3, 243915, Note_on_c, 0, 76, 63
3, 243915, Note_on_c, 0, 66, 43
3, 243948, Note_on_c, 0, 66, 0
3, 243948, Note_on_c, 0, 76, 0
3, 243948, Note_on_c, 0, 72, 60
3, 243948, Note_on_c, 0, 64, 50
3, 243982, Note_on_c, 0, 64, 0
3, 243982, Note_on_c, 0, 72, 0
3, 243982, Note_on_c, 0, 69, 64
3, 243982, Note_on_c, 0, 60, 44
3, 244014, Note_on_c, 0, 60, 0
3, 244014, Note_on_c, 0, 69, 0
3, 244014, Note_on_c, 0, 66, 62
3, 244014, Note_on_c, 0, 57, 44
3, 244046, Note_on_c, 0, 57, 0
3, 244046, Note_on_c, 0, 66, 0
3, 244046, Note_on_c, 0, 64, 64
3, 244046, Note_on_c, 0, 54, 50
3, 244080, Note_on_c, 0, 54, 0
3, 244080, Note_on_c, 0, 64, 0
3, 244080, Note_on_c, 0, 60, 65
3, 244080, Note_on_c, 0, 52, 51
3, 244112, Note_on_c, 0, 52, 0
3, 244112, Note_on_c, 0, 60, 0
3, 244112, Note_on_c, 0, 64, 75
3, 244112, Note_on_c, 0, 54, 52
3, 244145, Note_on_c, 0, 54, 0
3, 244145, Note_on_c, 0, 64, 0
3, 244145, Note_on_c, 0, 66, 75
3, 244145, Note_on_c, 0, 57, 57
3, 244177, Note_on_c, 0, 57, 0
3, 244177, Note_on_c, 0, 66, 0
3, 244177, Note_on_c, 0, 69, 73
3, 244177, Note_on_c, 0, 60, 50
3, 244211, Note_on_c, 0, 60, 0
3, 244211, Note_on_c, 0, 69, 0
3, 244211, Note_on_c, 0, 72, 78
3, 244211, Note_on_c, 0, 64, 60
3, 244243, Note_on_c, 0, 64, 0
3, 244243, Note_on_c, 0, 72, 0
3, 244243, Note_on_c, 0, 76, 80
3, 244243, Note_on_c, 0, 66, 57
3, 244275, Note_on_c, 0, 66, 0
3, 244275, Note_on_c, 0, 76, 0
3, 244275, Note_on_c, 0, 78, 74
3, 244275, Note_on_c, 0, 69, 56
3, 244308, Note_on_c, 0, 69, 0
3, 244308, Note_on_c, 0, 78, 0
3, 244308, Note_on_c, 0, 81, 79
3, 244308, Note_on_c, 0, 72, 56
3, 244342, Note_on_c, 0, 72, 0
3, 244342, Note_on_c, 0, 81, 0
3, 244342, Note_on_c, 0, 84, 77
3, 244342, Note_on_c, 0, 76, 59
3, 244374, Note_on_c, 0, 76, 0
3, 244374, Note_on_c, 0, 84, 0
3, 244374, Note_on_c, 0, 88, 80
3, 244374, Note_on_c, 0, 78, 54
3, 244406, Note_on_c, 0, 78, 0
3, 244406, Note_on_c, 0, 88, 0
3, 244406, Note_on_c, 0, 90, 72
3, 244406, Note_on_c, 0, 81, 49
3, 244440, Note_on_c, 0, 81, 0
3, 244440, Note_on_c, 0, 90, 0
3, 244440, Note_on_c, 0, 93, 78
3, 244440, Note_on_c, 0, 84, 60
3, 244472, Note_on_c, 0, 84, 0
3, 244472, Note_on_c, 0, 93, 0
3, 244472, Note_on_c, 0, 90, 66
3, 244472, Note_on_c, 0, 81, 42
3, 244505, Note_on_c, 0, 81, 0
3, 244505, Note_on_c, 0, 90, 0
3, 244505, Note_on_c, 0, 88, 66
3, 244505, Note_on_c, 0, 78, 44
3, 244537, Note_on_c, 0, 78, 0
3, 244537, Note_on_c, 0, 88, 0
3, 244537, Note_on_c, 0, 84, 64
3, 244537, Note_on_c, 0, 76, 45
3, 244571, Note_on_c, 0, 76, 0
3, 244571, Note_on_c, 0, 84, 0
3, 244571, Note_on_c, 0, 81, 63
3, 244571, Note_on_c, 0, 72, 53
3, 244603, Note_on_c, 0, 72, 0
3, 244603, Note_on_c, 0, 81, 0
3, 244603, Note_on_c, 0, 78, 63
3, 244603, Note_on_c, 0, 69, 43
3, 244635, Note_on_c, 0, 69, 0
3, 244635, Note_on_c, 0, 78, 0
3, 244635, Note_on_c, 0, 76, 63
3, 244635, Note_on_c, 0, 66, 47
3, 244668, Note_on_c, 0, 66, 0
3, 244668, Note_on_c, 0, 76, 0
3, 244668, Note_on_c, 0, 72, 59
3, 244668, Note_on_c, 0, 64, 44
3, 244702, Note_on_c, 0, 64, 0
3, 244702, Note_on_c, 0, 72, 0
3, 244702, Note_on_c, 0, 69, 61
3, 244702, Note_on_c, 0, 60, 44
3, 244734, Note_on_c, 0, 60, 0
3, 244734, Note_on_c, 0, 69, 0
3, 244734, Note_on_c, 0, 66, 66
3, 244734, Note_on_c, 0, 57, 50
3, 244766, Note_on_c, 0, 57, 0
3, 244766, Note_on_c, 0, 66, 0
3, 244766, Note_on_c, 0, 64, 66
3, 244766, Note_on_c, 0, 54, 47
3, 244800, Note_on_c, 0, 54, 0
3, 244800, Note_on_c, 0, 64, 0
3, 244800, Note_on_c, 0, 60, 61
3, 244800, Note_on_c, 0, 52, 49
3, 244832, Note_on_c, 0, 52, 0
3, 244832, Note_on_c, 0, 60, 0
3, 244832, Note_on_c, 0, 64, 80
3, 244832, Note_on_c, 0, 54, 51
3, 244865, Note_on_c, 0, 54, 0
3, 244865, Note_on_c, 0, 64, 0
3, 244865, Note_on_c, 0, 66, 81
3, 244865, Note_on_c, 0, 57, 56
3, 244897, Note_on_c, 0, 57, 0
3, 244897, Note_on_c, 0, 66, 0
3, 244897, Note_on_c, 0, 69, 78
3, 244897, Note_on_c, 0, 60, 52
3, 244931, Note_on_c, 0, 60, 0
3, 244931, Note_on_c, 0, 69, 0
3, 244931, Note_on_c, 0, 72, 77
3, 244931, Note_on_c, 0, 64, 56
3, 244963, Note_on_c, 0, 64, 0
3, 244963, Note_on_c, 0, 72, 0
3, 244963, Note_on_c, 0, 76, 85
3, 244963, Note_on_c, 0, 66, 53
3, 244995, Note_on_c, 0, 66, 0
3, 244995, Note_on_c, 0, 76, 0
3, 244995, Note_on_c, 0, 78, 76
3, 244995, Note_on_c, 0, 69, 57
3, 245028, Note_on_c, 0, 69, 0
3, 245028, Note_on_c, 0, 78, 0
3, 245028, Note_on_c, 0, 81, 79
3, 245028, Note_on_c, 0, 72, 59
3, 245062, Note_on_c, 0, 72, 0
3, 245062, Note_on_c, 0, 81, 0
3, 245062, Note_on_c, 0, 84, 74
3, 245062, Note_on_c, 0, 76, 53
3, 245094, Note_on_c, 0, 76, 0
3, 245094, Note_on_c, 0, 84, 0
3, 245094, Note_on_c, 0, 88, 80
3, 245094, Note_on_c, 0, 78, 53
3, 245126, Note_on_c, 0, 78, 0
3, 245126, Note_on_c, 0, 88, 0
3, 245126, Note_on_c, 0, 90, 76
3, 245126, Note_on_c, 0, 81, 58
3, 245160, Note_on_c, 0, 81, 0
3, 245160, Note_on_c, 0, 90, 0
3, 245160, Note_on_c, 0, 93, 80
3, 245160, Note_on_c, 0, 84, 52
3, 245186, Note_on_c, 0, 84, 0
3, 245186, Note_on_c, 0, 93, 0
3, 245186, Note_on_c, 0, 90, 63
3, 245186, Note_on_c, 0, 81, 51
3, 245211, Note_on_c, 0, 81, 0
3, 245211, Note_on_c, 0, 90, 0
3, 245211, Note_on_c, 0, 88, 64
3, 245211, Note_on_c, 0, 78, 46
3, 245236, Note_on_c, 0, 78, 0
3, 245236, Note_on_c, 0, 88, 0
3, 245236, Note_on_c, 0, 84, 62
3, 245236, Note_on_c, 0, 76, 48
3, 245263, Note_on_c, 0, 76, 0
3, 245263, Note_on_c, 0, 84, 0
3, 245263, Note_on_c, 0, 81, 63
3, 245263, Note_on_c, 0, 72, 43
3, 245288, Note_on_c, 0, 72, 0
3, 245288, Note_on_c, 0, 81, 0
3, 245288, Note_on_c, 0, 78, 63
3, 245288, Note_on_c, 0, 69, 44
3, 245313, Note_on_c, 0, 69, 0
3, 245313, Note_on_c, 0, 78, 0
3, 245313, Note_on_c, 0, 76, 68
3, 245313, Note_on_c, 0, 66, 45
3, 245340, Note_on_c, 0, 66, 0
3, 245340, Note_on_c, 0, 76, 0
3, 245340, Note_on_c, 0, 72, 58
3, 245340, Note_on_c, 0, 64, 48
3, 245366, Note_on_c, 0, 64, 0
3, 245366, Note_on_c, 0, 72, 0
3, 245366, Note_on_c, 0, 69, 63
3, 245366, Note_on_c, 0, 60, 47
3, 245391, Note_on_c, 0, 60, 0
3, 245391, Note_on_c, 0, 69, 0
3, 245391, Note_on_c, 0, 66, 67
3, 245391, Note_on_c, 0, 57, 46
3, 245416, Note_on_c, 0, 57, 0
3, 245416, Note_on_c, 0, 66, 0
3, 245416, Note_on_c, 0, 64, 64
3, 245416, Note_on_c, 0, 54, 47
3, 245443, Note_on_c, 0, 54, 0
3, 245443, Note_on_c, 0, 64, 0
3, 245443, Note_on_c, 0, 60, 61
3, 245443, Note_on_c, 0, 52, 49
3, 245468, Note_on_c, 0, 52, 0
3, 245468, Note_on_c, 0, 60, 0
3, 245468, Note_on_c, 0, 57, 67
3, 245468, Note_on_c, 0, 48, 50
3, 245493, Note_on_c, 0, 48, 0
3, 245493, Note_on_c, 0, 57, 0
3, 245493, Note_on_c, 0, 54, 67
3, 245493, Note_on_c, 0, 45, 47
3, 245520, Note_on_c, 0, 45, 0
3, 245520, Note_on_c, 0, 54, 0
3, 245520, Note_on_c, 0, 26, 45
3, 245520, Note_on_c, 0, 38, 45
3, 245700, Note_on_c, 0, 38, 0
3, 245700, Note_on_c, 0, 26, 0
3, 245880, Note_on_c, 0, 78, 45
3, 245939, Note_on_c, 0, 78, 0
3, 245939, Note_on_c, 0, 79, 54
3, 246000, Note_on_c, 0, 79, 0
3, 246000, Note_on_c, 0, 80, 50
3, 246060, Note_on_c, 0, 80, 0
3, 246060, Note_on_c, 0, 81, 56
3, 246119, Note_on_c, 0, 81, 0
3, 246119, Note_on_c, 0, 80, 51
3, 246180, Note_on_c, 0, 80, 0
3, 246180, Note_on_c, 0, 81, 55
3, 246240, Note_on_c, 0, 81, 0
3, 246240, Note_on_c, 0, 82, 54
3, 246299, Note_on_c, 0, 82, 0
3, 246299, Note_on_c, 0, 81, 49
3, 246360, Note_on_c, 0, 81, 0
3, 246360, Note_on_c, 0, 82, 55
3, 246420, Note_on_c, 0, 82, 0
3, 246420, Note_on_c, 0, 83, 59
3, 246479, Note_on_c, 0, 83, 0
3, 246479, Note_on_c, 0, 82, 51
3, 246540, Note_on_c, 0, 82, 0
3, 246540, Note_on_c, 0, 83, 53
3, 246600, Note_on_c, 0, 83, 0
3, 246600, Note_on_c, 0, 84, 51
3, 246659, Note_on_c, 0, 84, 0
3, 246659, Note_on_c, 0, 83, 49
3, 246720, Note_on_c, 0, 83, 0
3, 246720, Note_on_c, 0, 84, 54
3, 246780, Note_on_c, 0, 84, 0
3, 246780, Note_on_c, 0, 74, 36
3, 246839, Note_on_c, 0, 74, 0
3, 246839, Note_on_c, 0, 73, 42
3, 246900, Note_on_c, 0, 73, 0
3, 246900, Note_on_c, 0, 74, 52
3, 246960, Note_on_c, 0, 74, 0
3, 246960, Note_on_c, 0, 75, 50
3, 247019, Note_on_c, 0, 75, 0
3, 247019, Note_on_c, 0, 74, 50
3, 247080, Note_on_c, 0, 74, 0
3, 247080, Note_on_c, 0, 75, 56
3, 247140, Note_on_c, 0, 75, 0
3, 247140, Note_on_c, 0, 76, 56
3, 247199, Note_on_c, 0, 76, 0
3, 247199, Note_on_c, 0, 75, 47
3, 247260, Note_on_c, 0, 75, 0
3, 247260, Note_on_c, 0, 76, 57
3, 247320, Note_on_c, 0, 76, 0
3, 247320, Note_on_c, 0, 78, 51
3, 247379, Note_on_c, 0, 78, 0
3, 247379, Note_on_c, 0, 77, 54
3, 247440, Note_on_c, 0, 77, 0
3, 247440, Note_on_c, 0, 78, 52
3, 247500, Note_on_c, 0, 78, 0
3, 247500, Note_on_c, 0, 75, 54
3, 247559, Note_on_c, 0, 75, 0
3, 247559, Note_on_c, 0, 74, 48
3, 247620, Note_on_c, 0, 74, 0
3, 247620, Note_on_c, 0, 75, 53
3, 247680, Note_on_c, 0, 75, 0
3, 247680, Note_on_c, 0, 76, 64
3, 247703, Note_on_c, 0, 76, 0
3, 247703, Note_on_c, 0, 70, 55
3, 247725, Note_on_c, 0, 70, 0
3, 247725, Note_on_c, 0, 71, 71
3, 247748, Note_on_c, 0, 71, 0
3, 247748, Note_on_c, 0, 76, 81
3, 247770, Note_on_c, 0, 76, 0
3, 247770, Note_on_c, 0, 79, 77
3, 247793, Note_on_c, 0, 79, 0
3, 247793, Note_on_c, 0, 83, 80
3, 247815, Note_on_c, 0, 83, 0
3, 247815, Note_on_c, 0, 75, 58
3, 247838, Note_on_c, 0, 75, 0
3, 247838, Note_on_c, 0, 76, 72
3, 247860, Note_on_c, 0, 76, 0
3, 247860, Note_on_c, 0, 79, 74
3, 247883, Note_on_c, 0, 79, 0
3, 247883, Note_on_c, 0, 83, 82
3, 247905, Note_on_c, 0, 83, 0
3, 247905, Note_on_c, 0, 88, 80
3, 247928, Note_on_c, 0, 88, 0
3, 247928, Note_on_c, 0, 78, 55
3, 247950, Note_on_c, 0, 78, 0
3, 247950, Note_on_c, 0, 79, 70
3, 247973, Note_on_c, 0, 79, 0
3, 247973, Note_on_c, 0, 83, 55
3, 247995, Note_on_c, 0, 83, 0
3, 247995, Note_on_c, 0, 88, 84
3, 248018, Note_on_c, 0, 88, 0
3, 248018, Note_on_c, 0, 91, 83
3, 248040, Note_on_c, 0, 91, 0
3, 248040, Note_on_c, 0, 82, 56
3, 248063, Note_on_c, 0, 82, 0
3, 248063, Note_on_c, 0, 83, 68
3, 248085, Note_on_c, 0, 83, 0
3, 248085, Note_on_c, 0, 88, 77
3, 248108, Note_on_c, 0, 88, 0
3, 248108, Note_on_c, 0, 91, 73
3, 248130, Note_on_c, 0, 91, 0
3, 248130, Note_on_c, 0, 95, 79
3, 248153, Note_on_c, 0, 95, 0
3, 248153, Note_on_c, 0, 87, 58
3, 248175, Note_on_c, 0, 87, 0
3, 248175, Note_on_c, 0, 88, 67
3, 248198, Note_on_c, 0, 88, 0
3, 248198, Note_on_c, 0, 91, 78
3, 248220, Note_on_c, 0, 91, 0
3, 248220, Note_on_c, 0, 95, 80
3, 248243, Note_on_c, 0, 95, 0
3, 248243, Note_on_c, 0, 100, 81
3, 248265, Note_on_c, 0, 100, 0
3, 248265, Note_on_c, 0, 90, 59
3, 248288, Note_on_c, 0, 90, 0
3, 248288, Note_on_c, 0, 93, 73
3, 248310, Note_on_c, 0, 93, 0
3, 248310, Note_on_c, 0, 95, 78
3, 248333, Note_on_c, 0, 95, 0
3, 248333, Note_on_c, 0, 100, 80
3, 248355, Note_on_c, 0, 100, 0
3, 248355, Note_on_c, 0, 103, 79
3, 248378, Note_on_c, 0, 103, 0
3, 248378, Note_on_c, 0, 94, 54
3, 248400, Note_on_c, 0, 94, 0
3, 248400, Note_on_c, 0, 95, 45
3, 248580, Note_on_c, 0, 95, 0
3, 248760, Note_on_c, 0, 78, 47
3, 248819, Note_on_c, 0, 78, 0
3, 248819, Note_on_c, 0, 79, 48
3, 248880, Note_on_c, 0, 79, 0
3, 248880, Note_on_c, 0, 80, 52
3, 248940, Note_on_c, 0, 80, 0
3, 248940, Note_on_c, 0, 81, 54
3, 248999, Note_on_c, 0, 81, 0
3, 248999, Note_on_c, 0, 80, 43
3, 249060, Note_on_c, 0, 80, 0
3, 249060, Note_on_c, 0, 81, 46
3, 249120, Note_on_c, 0, 81, 0
3, 249120, Note_on_c, 0, 82, 48
3, 249179, Note_on_c, 0, 82, 0
3, 249179, Note_on_c, 0, 81, 46
3, 249240, Note_on_c, 0, 81, 0
3, 249240, Note_on_c, 0, 82, 52
3, 249300, Note_on_c, 0, 82, 0
3, 249300, Note_on_c, 0, 83, 53
3, 249359, Note_on_c, 0, 83, 0
3, 249359, Note_on_c, 0, 82, 47
3, 249420, Note_on_c, 0, 82, 0
3, 249420, Note_on_c, 0, 83, 51
3, 249480, Note_on_c, 0, 83, 0
3, 249480, Note_on_c, 0, 84, 52
3, 249539, Note_on_c, 0, 84, 0
3, 249539, Note_on_c, 0, 83, 50
3, 249600, Note_on_c, 0, 83, 0
3, 249600, Note_on_c, 0, 84, 49
3, 249660, Note_on_c, 0, 84, 0
3, 249660, Note_on_c, 0, 74, 39
3, 249719, Note_on_c, 0, 74, 0
3, 249719, Note_on_c, 0, 73, 47
3, 249780, Note_on_c, 0, 73, 0
3, 249780, Note_on_c, 0, 74, 55
3, 249840, Note_on_c, 0, 74, 0
3, 249840, Note_on_c, 0, 75, 54
3, 249899, Note_on_c, 0, 75, 0
3, 249899, Note_on_c, 0, 74, 50
3, 249960, Note_on_c, 0, 74, 0
3, 249960, Note_on_c, 0, 75, 51
3, 250020, Note_on_c, 0, 75, 0
3, 250020, Note_on_c, 0, 76, 53
3, 250079, Note_on_c, 0, 76, 0
3, 250079, Note_on_c, 0, 75, 48
3, 250140, Note_on_c, 0, 75, 0
3, 250140, Note_on_c, 0, 76, 51
3, 250200, Note_on_c, 0, 76, 0
3, 250200, Note_on_c, 0, 78, 54
3, 250259, Note_on_c, 0, 78, 0
3, 250259, Note_on_c, 0, 77, 51
3, 250320, Note_on_c, 0, 77, 0
3, 250320, Note_on_c, 0, 78, 54
3, 250380, Note_on_c, 0, 78, 0
3, 250380, Note_on_c, 0, 75, 46
3, 250439, Note_on_c, 0, 75, 0
3, 250439, Note_on_c, 0, 74, 48
3, 250500, Note_on_c, 0, 74, 0
3, 250500, Note_on_c, 0, 75, 53
3, 250560, Note_on_c, 0, 75, 0
3, 250560, Note_on_c, 0, 76, 60
3, 250592, Note_on_c, 0, 76, 0
3, 250592, Note_on_c, 0, 60, 51
3, 250625, Note_on_c, 0, 60, 0
3, 250625, Note_on_c, 0, 64, 75
3, 250657, Note_on_c, 0, 64, 0
3, 250657, Note_on_c, 0, 66, 75
3, 250691, Note_on_c, 0, 66, 0
3, 250691, Note_on_c, 0, 68, 78
3, 250723, Note_on_c, 0, 68, 0
3, 250723, Note_on_c, 0, 69, 74
3, 250755, Note_on_c, 0, 69, 0
3, 250755, Note_on_c, 0, 72, 80
3, 250788, Note_on_c, 0, 72, 0
3, 250788, Note_on_c, 0, 76, 82
3, 250822, Note_on_c, 0, 76, 0
3, 250822, Note_on_c, 0, 78, 78
3, 250854, Note_on_c, 0, 78, 0
3, 250854, Note_on_c, 0, 80, 73
3, 250886, Note_on_c, 0, 80, 0
3, 250886, Note_on_c, 0, 81, 76
3, 250920, Note_on_c, 0, 81, 0
3, 250920, Note_on_c, 0, 84, 77
3, 250965, Note_on_c, 0, 84, 0
3, 250965, Note_on_c, 0, 88, 80
3, 251010, Note_on_c, 0, 88, 0
3, 251010, Note_on_c, 0, 90, 82
3, 251055, Note_on_c, 0, 90, 0
3, 251055, Note_on_c, 0, 92, 77
3, 251100, Note_on_c, 0, 92, 0
3, 251100, Note_on_c, 0, 93, 75
3, 251145, Note_on_c, 0, 93, 0
3, 251145, Note_on_c, 0, 95, 53
3, 251190, Note_on_c, 0, 95, 0
3, 251190, Note_on_c, 0, 96, 72
3, 251235, Note_on_c, 0, 96, 0
3, 251235, Note_on_c, 0, 98, 73
3, 251280, Note_on_c, 0, 98, 0
3, 251280, Note_on_c, 0, 91, 78
3, 251280, Note_on_c, 0, 100, 78
3, 251280, Note_on_c, 0, 76, 49
3, 251280, Note_on_c, 0, 83, 49
3, 251280, Note_on_c, 0, 88, 49
3, 251460, Note_on_c, 0, 88, 0
3, 251460, Note_on_c, 0, 76, 0
3, 251460, Note_on_c, 0, 91, 0
3, 251460, Note_on_c, 0, 100, 0
3, 251460, Note_on_c, 0, 83, 0
3, 251640, Note_on_c, 0, 83, 79
3, 251820, Note_on_c, 0, 83, 0
3, 251820, Note_on_c, 0, 84, 90
3, 252000, Note_on_c, 0, 84, 0
3, 252000, Note_on_c, 0, 86, 88
3, 252000, Note_on_c, 0, 72, 38
3, 252000, Note_on_c, 0, 55, 46
3, 252000, Note_on_c, 0, 62, 46
3, 252000, Note_on_c, 0, 66, 46
3, 252180, Note_on_c, 0, 86, 0
3, 252180, Note_on_c, 0, 88, 89
3, 252360, Note_on_c, 0, 88, 0
3, 252360, Note_on_c, 0, 86, 79
3, 252540, Note_on_c, 0, 86, 0
3, 252540, Note_on_c, 0, 84, 73
3, 252720, Note_on_c, 0, 84, 0
3, 252720, Note_on_c, 0, 83, 82
3, 252900, Note_on_c, 0, 83, 0
3, 252900, Note_on_c, 0, 84, 88
3, 253080, Note_on_c, 0, 84, 0
3, 253080, Note_on_c, 0, 66, 0
3, 253080, Note_on_c, 0, 72, 0
3, 253080, Note_on_c, 0, 55, 0
3, 253080, Note_on_c, 0, 62, 0
3, 253080, Note_on_c, 0, 83, 78
3, 253080, Note_on_c, 0, 72, 37
3, 253080, Note_on_c, 0, 55, 53
3, 253080, Note_on_c, 0, 63, 53
3, 253080, Note_on_c, 0, 66, 53
3, 253260, Note_on_c, 0, 83, 0
3, 253260, Note_on_c, 0, 81, 77
3, 253440, Note_on_c, 0, 81, 0
3, 253440, Note_on_c, 0, 66, 0
3, 253440, Note_on_c, 0, 72, 0
3, 253440, Note_on_c, 0, 55, 0
3, 253440, Note_on_c, 0, 63, 0
3, 253440, Note_on_c, 0, 79, 81
3, 253440, Note_on_c, 0, 71, 36
3, 253440, Note_on_c, 0, 55, 53
3, 253440, Note_on_c, 0, 64, 53
3, 253440, Note_on_c, 0, 67, 53
3, 253560, Note_on_c, 0, 79, 0
3, 253560, Note_on_c, 0, 78, 79
3, 253679, Note_on_c, 0, 78, 0
3, 253679, Note_on_c, 0, 76, 78
3, 253800, Note_on_c, 0, 76, 0
3, 253800, Note_on_c, 0, 76, 80
3, 254340, Note_on_c, 0, 76, 0
3, 254340, Note_on_c, 0, 67, 0
3, 254340, Note_on_c, 0, 71, 0
3, 254340, Note_on_c, 0, 55, 0
3, 254340, Note_on_c, 0, 64, 0
3, 254520, Note_on_c, 0, 83, 73
3, 254700, Note_on_c, 0, 83, 0
3, 254700, Note_on_c, 0, 84, 86
3, 254880, Note_on_c, 0, 84, 0
3, 254880, Note_on_c, 0, 86, 88
3, 254880, Note_on_c, 0, 72, 33
3, 254880, Note_on_c, 0, 55, 42
3, 254880, Note_on_c, 0, 62, 42
3, 254880, Note_on_c, 0, 66, 42
3, 255060, Note_on_c, 0, 86, 0
3, 255060, Note_on_c, 0, 88, 86
3, 255240, Note_on_c, 0, 88, 0
3, 255240, Note_on_c, 0, 86, 78
3, 255420, Note_on_c, 0, 86, 0
3, 255420, Note_on_c, 0, 84, 77
3, 255600, Note_on_c, 0, 84, 0
3, 255600, Note_on_c, 0, 83, 74
3, 255960, Note_on_c, 0, 83, 0
3, 255960, Note_on_c, 0, 62, 0
3, 255960, Note_on_c, 0, 72, 0
3, 255960, Note_on_c, 0, 55, 0
3, 255960, Note_on_c, 0, 66, 0
3, 255960, Note_on_c, 0, 81, 80
3, 255960, Note_on_c, 0, 72, 35
3, 255960, Note_on_c, 0, 55, 49
3, 255960, Note_on_c, 0, 63, 49
3, 255960, Note_on_c, 0, 66, 49
3, 256320, Note_on_c, 0, 66, 0
3, 256320, Note_on_c, 0, 55, 0
3, 256320, Note_on_c, 0, 81, 0
3, 256320, Note_on_c, 0, 72, 0
3, 256320, Note_on_c, 0, 63, 0
3, 256320, Note_on_c, 0, 76, 69
3, 256320, Note_on_c, 0, 69, 36
3, 256320, Note_on_c, 0, 52, 47
3, 256320, Note_on_c, 0, 60, 47
3, 256320, Note_on_c, 0, 64, 47
3, 257040, Note_on_c, 0, 60, 0
3, 257040, Note_on_c, 0, 69, 0
3, 257040, Note_on_c, 0, 67, 35
3, 257040, Note_on_c, 0, 59, 50
3, 257220, Note_on_c, 0, 59, 0
3, 257220, Note_on_c, 0, 76, 0
3, 257220, Note_on_c, 0, 64, 0
3, 257220, Note_on_c, 0, 52, 0
3, 257220, Note_on_c, 0, 67, 0
3, 257400, Note_on_c, 0, 50, 86
3, 257400, Note_on_c, 0, 54, 86
3, 257580, Note_on_c, 0, 54, 0
3, 257580, Note_on_c, 0, 50, 0
3, 257580, Note_on_c, 0, 52, 99
3, 257580, Note_on_c, 0, 55, 99
3, 257760, Note_on_c, 0, 55, 0
3, 257760, Note_on_c, 0, 52, 0
3, 257760, Note_on_c, 0, 54, 98
3, 257760, Note_on_c, 0, 57, 98
3, 257760, Note_on_c, 0, 38, 85
3, 257760, Note_on_c, 0, 50, 85
3, 257940, Note_on_c, 0, 57, 0
3, 257940, Note_on_c, 0, 54, 0
3, 257940, Note_on_c, 0, 52, 93
3, 257940, Note_on_c, 0, 55, 93
3, 258030, Note_on_c, 0, 55, 0
3, 258030, Note_on_c, 0, 52, 0
3, 258030, Note_on_c, 0, 52, 94
3, 258030, Note_on_c, 0, 55, 94
3, 258120, Note_on_c, 0, 55, 0
3, 258120, Note_on_c, 0, 50, 0
3, 258120, Note_on_c, 0, 38, 0
3, 258120, Note_on_c, 0, 52, 0
3, 258120, Note_on_c, 0, 50, 102
3, 258120, Note_on_c, 0, 54, 102
3, 258300, Note_on_c, 0, 54, 0
3, 258300, Note_on_c, 0, 50, 0
3, 258300, Note_on_c, 0, 52, 102
3, 258300, Note_on_c, 0, 55, 102
3, 258480, Note_on_c, 0, 55, 0
3, 258480, Note_on_c, 0, 52, 0
3, 258480, Note_on_c, 0, 54, 103
3, 258480, Note_on_c, 0, 57, 103
3, 258660, Note_on_c, 0, 57, 0
3, 258660, Note_on_c, 0, 54, 0
3, 258660, Note_on_c, 0, 57, 105
3, 258660, Note_on_c, 0, 60, 105
3, 258660, Note_on_c, 0, 52, 84
3, 258660, Note_on_c, 0, 54, 84
3, 258840, Note_on_c, 0, 54, 0
3, 258840, Note_on_c, 0, 57, 0
3, 258840, Note_on_c, 0, 60, 0
3, 258840, Note_on_c, 0, 52, 0
3, 258840, Note_on_c, 0, 60, 110
3, 258840, Note_on_c, 0, 64, 110
3, 258840, Note_on_c, 0, 54, 101
3, 258840, Note_on_c, 0, 57, 101
3, 259020, Note_on_c, 0, 57, 0
3, 259020, Note_on_c, 0, 60, 0
3, 259020, Note_on_c, 0, 64, 0
3, 259020, Note_on_c, 0, 54, 0
3, 259020, Note_on_c, 0, 64, 105
3, 259020, Note_on_c, 0, 66, 105
3, 259020, Note_on_c, 0, 57, 108
3, 259020, Note_on_c, 0, 60, 108
3, 259200, Note_on_c, 0, 60, 0
3, 259200, Note_on_c, 0, 64, 0
3, 259200, Note_on_c, 0, 66, 0
3, 259200, Note_on_c, 0, 57, 0
3, 259200, Note_on_c, 0, 64, 104
3, 259200, Note_on_c, 0, 67, 104
3, 259200, Note_on_c, 0, 50, 101
3, 259200, Note_on_c, 0, 55, 101
3, 259200, Note_on_c, 0, 58, 101
3, 259200, Note_on_c, 0, 61, 101
3, 259380, Note_on_c, 0, 61, 0
3, 259380, Note_on_c, 0, 67, 0
3, 259380, Note_on_c, 0, 50, 0
3, 259380, Note_on_c, 0, 64, 0
3, 259380, Note_on_c, 0, 58, 0
3, 259380, Note_on_c, 0, 55, 0
3, 259380, Note_on_c, 0, 64, 100
3, 259380, Note_on_c, 0, 67, 100
3, 259380, Note_on_c, 0, 61, 100
3, 259470, Note_on_c, 0, 61, 0
3, 259470, Note_on_c, 0, 67, 0
3, 259470, Note_on_c, 0, 64, 0
3, 259470, Note_on_c, 0, 66, 103
3, 259470, Note_on_c, 0, 69, 103
3, 259470, Note_on_c, 0, 63, 104
3, 259560, Note_on_c, 0, 63, 0
3, 259560, Note_on_c, 0, 69, 0
3, 259560, Note_on_c, 0, 66, 0
3, 259560, Note_on_c, 0, 67, 105
3, 259560, Note_on_c, 0, 70, 105
3, 259560, Note_on_c, 0, 61, 104
3, 259560, Note_on_c, 0, 64, 104
3, 259740, Note_on_c, 0, 64, 0
3, 259740, Note_on_c, 0, 67, 0
3, 259740, Note_on_c, 0, 70, 0
3, 259740, Note_on_c, 0, 61, 0
3, 259740, Note_on_c, 0, 70, 110
3, 259740, Note_on_c, 0, 73, 110
3, 259740, Note_on_c, 0, 64, 108
3, 259740, Note_on_c, 0, 67, 108
3, 259920, Note_on_c, 0, 67, 0
3, 259920, Note_on_c, 0, 70, 0
3, 259920, Note_on_c, 0, 73, 0
3, 259920, Note_on_c, 0, 64, 0
3, 259920, Note_on_c, 0, 73, 105
3, 259920, Note_on_c, 0, 76, 105
3, 259920, Note_on_c, 0, 67, 104
3, 259920, Note_on_c, 0, 70, 104
3, 260100, Note_on_c, 0, 70, 0
3, 260100, Note_on_c, 0, 73, 0
3, 260100, Note_on_c, 0, 76, 0
3, 260100, Note_on_c, 0, 67, 0
3, 260100, Note_on_c, 0, 76, 108
3, 260100, Note_on_c, 0, 79, 108
3, 260100, Note_on_c, 0, 70, 112
3, 260100, Note_on_c, 0, 73, 112
3, 260280, Note_on_c, 0, 73, 0
3, 260280, Note_on_c, 0, 76, 0
3, 260280, Note_on_c, 0, 79, 0
3, 260280, Note_on_c, 0, 70, 0
3, 260280, Note_on_c, 0, 79, 104
3, 260280, Note_on_c, 0, 82, 104
3, 260280, Note_on_c, 0, 73, 107
3, 260280, Note_on_c, 0, 76, 107
3, 260460, Note_on_c, 0, 76, 0
3, 260460, Note_on_c, 0, 79, 0
3, 260460, Note_on_c, 0, 82, 0
3, 260460, Note_on_c, 0, 73, 0
3, 260640, Note_on_c, 0, 54, 90
3, 260640, Note_on_c, 0, 57, 90
3, 260640, Note_on_c, 0, 38, 84
3, 260640, Note_on_c, 0, 50, 84
3, 260820, Note_on_c, 0, 57, 0
3, 260820, Note_on_c, 0, 54, 0
3, 260820, Note_on_c, 0, 52, 93
3, 260820, Note_on_c, 0, 55, 93
3, 260910, Note_on_c, 0, 55, 0
3, 260910, Note_on_c, 0, 52, 0
3, 260910, Note_on_c, 0, 52, 98
3, 260910, Note_on_c, 0, 55, 98
3, 261000, Note_on_c, 0, 55, 0
3, 261000, Note_on_c, 0, 50, 0
3, 261000, Note_on_c, 0, 38, 0
3, 261000, Note_on_c, 0, 52, 0
3, 261000, Note_on_c, 0, 50, 94
3, 261000, Note_on_c, 0, 54, 94
3, 261180, Note_on_c, 0, 54, 0
3, 261180, Note_on_c, 0, 50, 0
3, 261180, Note_on_c, 0, 52, 96
3, 261180, Note_on_c, 0, 55, 96
3, 261270, Note_on_c, 0, 55, 0
3, 261270, Note_on_c, 0, 52, 0
3, 261270, Note_on_c, 0, 52, 95
3, 261270, Note_on_c, 0, 55, 95
3, 261360, Note_on_c, 0, 55, 0
3, 261360, Note_on_c, 0, 52, 0
3, 261360, Note_on_c, 0, 54, 100
3, 261360, Note_on_c, 0, 57, 100
3, 261540, Note_on_c, 0, 57, 0
3, 261540, Note_on_c, 0, 54, 0
3, 261540, Note_on_c, 0, 57, 106
3, 261540, Note_on_c, 0, 60, 106
3, 261540, Note_on_c, 0, 52, 88
3, 261540, Note_on_c, 0, 54, 88
3, 261720, Note_on_c, 0, 54, 0
3, 261720, Note_on_c, 0, 57, 0
3, 261720, Note_on_c, 0, 60, 0
3, 261720, Note_on_c, 0, 52, 0
3, 261720, Note_on_c, 0, 60, 110
3, 261720, Note_on_c, 0, 64, 110
3, 261720, Note_on_c, 0, 54, 104
3, 261720, Note_on_c, 0, 57, 104
3, 261900, Note_on_c, 0, 57, 0
3, 261900, Note_on_c, 0, 60, 0
3, 261900, Note_on_c, 0, 64, 0
3, 261900, Note_on_c, 0, 54, 0
3, 261900, Note_on_c, 0, 64, 104
3, 261900, Note_on_c, 0, 66, 104
3, 261900, Note_on_c, 0, 57, 106
3, 261900, Note_on_c, 0, 60, 106
3, 262080, Note_on_c, 0, 60, 0
3, 262080, Note_on_c, 0, 64, 0
3, 262080, Note_on_c, 0, 66, 0
3, 262080, Note_on_c, 0, 57, 0
3, 262080, Note_on_c, 0, 64, 97
3, 262080, Note_on_c, 0, 67, 97
3, 262080, Note_on_c, 0, 50, 97
3, 262080, Note_on_c, 0, 55, 97
3, 262080, Note_on_c, 0, 58, 97
3, 262080, Note_on_c, 0, 61, 97
3, 262260, Note_on_c, 0, 61, 0
3, 262260, Note_on_c, 0, 67, 0
3, 262260, Note_on_c, 0, 50, 0
3, 262260, Note_on_c, 0, 64, 0
3, 262260, Note_on_c, 0, 58, 0
3, 262260, Note_on_c, 0, 55, 0
3, 262260, Note_on_c, 0, 64, 100
3, 262260, Note_on_c, 0, 67, 100
3, 262260, Note_on_c, 0, 61, 100
3, 262350, Note_on_c, 0, 61, 0
3, 262350, Note_on_c, 0, 67, 0
3, 262350, Note_on_c, 0, 64, 0
3, 262350, Note_on_c, 0, 66, 102
3, 262350, Note_on_c, 0, 69, 102
3, 262350, Note_on_c, 0, 63, 102
3, 262440, Note_on_c, 0, 63, 0
3, 262440, Note_on_c, 0, 69, 0
3, 262440, Note_on_c, 0, 66, 0
3, 262440, Note_on_c, 0, 67, 104
3, 262440, Note_on_c, 0, 70, 104
3, 262440, Note_on_c, 0, 64, 104
3, 262530, Note_on_c, 0, 64, 0
3, 262530, Note_on_c, 0, 70, 0
3, 262530, Note_on_c, 0, 67, 0
3, 262530, Note_on_c, 0, 69, 105
3, 262530, Note_on_c, 0, 72, 105
3, 262530, Note_on_c, 0, 66, 105
3, 262620, Note_on_c, 0, 66, 0
3, 262620, Note_on_c, 0, 72, 0
3, 262620, Note_on_c, 0, 69, 0
3, 262620, Note_on_c, 0, 70, 107
3, 262620, Note_on_c, 0, 73, 107
3, 262620, Note_on_c, 0, 67, 107
3, 262710, Note_on_c, 0, 67, 0
3, 262710, Note_on_c, 0, 73, 0
3, 262710, Note_on_c, 0, 70, 0
3, 262710, Note_on_c, 0, 72, 108
3, 262710, Note_on_c, 0, 75, 108
3, 262710, Note_on_c, 0, 69, 108
3, 262800, Note_on_c, 0, 69, 0
3, 262800, Note_on_c, 0, 75, 0
3, 262800, Note_on_c, 0, 72, 0
3, 262800, Note_on_c, 0, 73, 110
3, 262800, Note_on_c, 0, 76, 110
3, 262800, Note_on_c, 0, 70, 110
3, 262890, Note_on_c, 0, 70, 0
3, 262890, Note_on_c, 0, 76, 0
3, 262890, Note_on_c, 0, 73, 0
3, 262890, Note_on_c, 0, 75, 112
3, 262890, Note_on_c, 0, 78, 112
3, 262890, Note_on_c, 0, 72, 112
3, 262980, Note_on_c, 0, 72, 0
3, 262980, Note_on_c, 0, 78, 0
3, 262980, Note_on_c, 0, 75, 0
3, 262980, Note_on_c, 0, 76, 113
3, 262980, Note_on_c, 0, 79, 113
3, 262980, Note_on_c, 0, 73, 113
3, 263070, Note_on_c, 0, 73, 0
3, 263070, Note_on_c, 0, 79, 0
3, 263070, Note_on_c, 0, 76, 0
3, 263070, Note_on_c, 0, 78, 115
3, 263070, Note_on_c, 0, 81, 115
3, 263070, Note_on_c, 0, 75, 115
3, 263160, Note_on_c, 0, 75, 0
3, 263160, Note_on_c, 0, 81, 0
3, 263160, Note_on_c, 0, 78, 0
3, 263160, Note_on_c, 0, 79, 116
3, 263160, Note_on_c, 0, 82, 116
3, 263160, Note_on_c, 0, 76, 116
3, 263340, Note_on_c, 0, 76, 0
3, 263340, Note_on_c, 0, 82, 0
3, 263340, Note_on_c, 0, 79, 0
3, 263880, Note_on_c, 0, 55, 97
3, 263880, Note_on_c, 0, 58, 97
3, 263880, Note_on_c, 0, 64, 97
3, 263880, Note_on_c, 0, 67, 97
3, 263880, Note_on_c, 0, 38, 103
3, 263880, Note_on_c, 0, 50, 103
3, 264060, Note_on_c, 0, 50, 0
3, 264060, Note_on_c, 0, 58, 0
3, 264060, Note_on_c, 0, 64, 0
3, 264060, Note_on_c, 0, 55, 0
3, 264060, Note_on_c, 0, 38, 0
3, 264060, Note_on_c, 0, 67, 0
3, 264060, Note_on_c, 0, 55, 111
3, 264060, Note_on_c, 0, 58, 111
3, 264060, Note_on_c, 0, 64, 111
3, 264060, Note_on_c, 0, 67, 111
3, 264060, Note_on_c, 0, 38, 108
3, 264060, Note_on_c, 0, 50, 108
3, 264240, Note_on_c, 0, 50, 0
3, 264240, Note_on_c, 0, 58, 0
3, 264240, Note_on_c, 0, 64, 0
3, 264240, Note_on_c, 0, 55, 0
3, 264240, Note_on_c, 0, 38, 0
3, 264240, Note_on_c, 0, 67, 0
3, 264600, Note_on_c, 0, 56, 103
3, 264600, Note_on_c, 0, 59, 103
3, 264600, Note_on_c, 0, 65, 103
3, 264600, Note_on_c, 0, 68, 103
3, 264600, Note_on_c, 0, 38, 100
3, 264600, Note_on_c, 0, 50, 100
3, 264780, Note_on_c, 0, 50, 0
3, 264780, Note_on_c, 0, 59, 0
3, 264780, Note_on_c, 0, 65, 0
3, 264780, Note_on_c, 0, 56, 0
3, 264780, Note_on_c, 0, 38, 0
3, 264780, Note_on_c, 0, 68, 0
3, 264780, Note_on_c, 0, 56, 111
3, 264780, Note_on_c, 0, 59, 111
3, 264780, Note_on_c, 0, 65, 111
3, 264780, Note_on_c, 0, 68, 111
3, 264780, Note_on_c, 0, 38, 107
3, 264780, Note_on_c, 0, 50, 107
3, 264960, Note_on_c, 0, 50, 0
3, 264960, Note_on_c, 0, 59, 0
3, 264960, Note_on_c, 0, 65, 0
3, 264960, Note_on_c, 0, 56, 0
3, 264960, Note_on_c, 0, 38, 0
3, 264960, Note_on_c, 0, 68, 0
3, 265320, Note_on_c, 0, 57, 101
3, 265320, Note_on_c, 0, 60, 101
3, 265320, Note_on_c, 0, 63, 101
3, 265320, Note_on_c, 0, 66, 101
3, 265320, Note_on_c, 0, 68, 101
3, 265320, Note_on_c, 0, 38, 96
3, 265320, Note_on_c, 0, 50, 96
3, 265500, Note_on_c, 0, 50, 0
3, 265500, Note_on_c, 0, 68, 0
3, 265500, Note_on_c, 0, 60, 0
3, 265500, Note_on_c, 0, 63, 0
3, 265500, Note_on_c, 0, 57, 0
3, 265500, Note_on_c, 0, 38, 0
3, 265500, Note_on_c, 0, 66, 0
3, 265500, Note_on_c, 0, 57, 110
3, 265500, Note_on_c, 0, 60, 110
3, 265500, Note_on_c, 0, 63, 110
3, 265500, Note_on_c, 0, 66, 110
3, 265500, Note_on_c, 0, 68, 110
3, 265500, Note_on_c, 0, 38, 113
3, 265500, Note_on_c, 0, 50, 113
3, 265680, Note_on_c, 0, 50, 0
3, 265680, Note_on_c, 0, 68, 0
3, 265680, Note_on_c, 0, 60, 0
3, 265680, Note_on_c, 0, 63, 0
3, 265680, Note_on_c, 0, 57, 0
3, 265680, Note_on_c, 0, 38, 0
3, 265680, Note_on_c, 0, 66, 0
3, 266040, Note_on_c, 0, 58, 102
3, 266040, Note_on_c, 0, 61, 102
3, 266040, Note_on_c, 0, 64, 102
3, 266040, Note_on_c, 0, 67, 102
3, 266040, Note_on_c, 0, 70, 102
3, 266040, Note_on_c, 0, 38, 98
3, 266040, Note_on_c, 0, 50, 98
3, 266220, Note_on_c, 0, 50, 0
3, 266220, Note_on_c, 0, 70, 0
3, 266220, Note_on_c, 0, 61, 0
3, 266220, Note_on_c, 0, 64, 0
3, 266220, Note_on_c, 0, 58, 0
3, 266220, Note_on_c, 0, 38, 0
3, 266220, Note_on_c, 0, 67, 0
3, 266220, Note_on_c, 0, 58, 112
3, 266220, Note_on_c, 0, 61, 112
3, 266220, Note_on_c, 0, 64, 112
3, 266220, Note_on_c, 0, 67, 112
3, 266220, Note_on_c, 0, 70, 112
3, 266220, Note_on_c, 0, 38, 109
3, 266220, Note_on_c, 0, 50, 109
3, 266400, Note_on_c, 0, 50, 0
3, 266400, Note_on_c, 0, 70, 0
3, 266400, Note_on_c, 0, 61, 0
3, 266400, Note_on_c, 0, 64, 0
3, 266400, Note_on_c, 0, 58, 0
3, 266400, Note_on_c, 0, 38, 0
3, 266400, Note_on_c, 0, 67, 0
3, 266580, Note_on_c, 0, 59, 100
3, 266580, Note_on_c, 0, 65, 100
3, 266580, Note_on_c, 0, 68, 100
3, 266580, Note_on_c, 0, 71, 100
3, 266580, Note_on_c, 0, 26, 104
3, 266580, Note_on_c, 0, 38, 104
3, 266760, Note_on_c, 0, 38, 0
3, 266760, Note_on_c, 0, 65, 0
3, 266760, Note_on_c, 0, 68, 0
3, 266760, Note_on_c, 0, 59, 0
3, 266760, Note_on_c, 0, 26, 0
3, 266760, Note_on_c, 0, 71, 0
3, 266940, Note_on_c, 0, 60, 99
3, 266940, Note_on_c, 0, 66, 99
3, 266940, Note_on_c, 0, 69, 99
3, 266940, Note_on_c, 0, 72, 99
3, 266940, Note_on_c, 0, 26, 100
3, 266940, Note_on_c, 0, 38, 100
3, 267120, Note_on_c, 0, 38, 0
3, 267120, Note_on_c, 0, 66, 0
3, 267120, Note_on_c, 0, 69, 0
3, 267120, Note_on_c, 0, 60, 0
3, 267120, Note_on_c, 0, 26, 0
3, 267120, Note_on_c, 0, 72, 0
3, 267300, Note_on_c, 0, 61, 103
3, 267300, Note_on_c, 0, 67, 103
3, 267300, Note_on_c, 0, 70, 103
3, 267300, Note_on_c, 0, 73, 103
3, 267300, Note_on_c, 0, 26, 101
3, 267300, Note_on_c, 0, 38, 101
3, 267480, Note_on_c, 0, 38, 0
3, 267480, Note_on_c, 0, 67, 0
3, 267480, Note_on_c, 0, 70, 0
3, 267480, Note_on_c, 0, 61, 0
3, 267480, Note_on_c, 0, 26, 0
3, 267480, Note_on_c, 0, 73, 0
3, 267660, Note_on_c, 0, 62, 99
3, 267660, Note_on_c, 0, 65, 99
3, 267660, Note_on_c, 0, 68, 99
3, 267660, Note_on_c, 0, 71, 99
3, 267660, Note_on_c, 0, 74, 99
3, 267660, Note_on_c, 0, 26, 102
3, 267660, Note_on_c, 0, 38, 102
3, 267840, Note_on_c, 0, 38, 0
3, 267840, Note_on_c, 0, 74, 0
3, 267840, Note_on_c, 0, 65, 0
3, 267840, Note_on_c, 0, 68, 0
3, 267840, Note_on_c, 0, 62, 0
3, 267840, Note_on_c, 0, 26, 0
3, 267840, Note_on_c, 0, 71, 0
3, 267840, Note_on_c, 0, 62, 112
3, 267840, Note_on_c, 0, 66, 112
3, 267840, Note_on_c, 0, 69, 112
3, 267840, Note_on_c, 0, 72, 112
3, 267840, Note_on_c, 0, 74, 112
3, 267840, Note_on_c, 0, 26, 109
3, 267840, Note_on_c, 0, 38, 109
3, 268020, Note_on_c, 0, 38, 0
3, 268020, Note_on_c, 0, 74, 0
3, 268020, Note_on_c, 0, 66, 0
3, 268020, Note_on_c, 0, 69, 0
3, 268020, Note_on_c, 0, 62, 0
3, 268020, Note_on_c, 0, 26, 0
3, 268020, Note_on_c, 0, 72, 0
3, 268200, Note_on_c, 0, 84, 87
3, 268200, Note_on_c, 0, 96, 87
3, 268200, Note_on_c, 0, 60, 84
3, 268200, Note_on_c, 0, 72, 84
3, 268290, Note_on_c, 0, 72, 0
3, 268290, Note_on_c, 0, 84, 0
3, 268290, Note_on_c, 0, 96, 0
3, 268290, Note_on_c, 0, 60, 0
3, 268290, Note_on_c, 0, 86, 103
3, 268290, Note_on_c, 0, 98, 103
3, 268290, Note_on_c, 0, 62, 103
3, 268290, Note_on_c, 0, 74, 103
3, 268380, Note_on_c, 0, 74, 0
3, 268380, Note_on_c, 0, 86, 0
3, 268380, Note_on_c, 0, 98, 0
3, 268380, Note_on_c, 0, 62, 0
3, 268380, Note_on_c, 0, 84, 91
3, 268380, Note_on_c, 0, 96, 91
3, 268380, Note_on_c, 0, 60, 94
3, 268380, Note_on_c, 0, 72, 94
3, 268470, Note_on_c, 0, 72, 0
3, 268470, Note_on_c, 0, 84, 0
3, 268470, Note_on_c, 0, 96, 0
3, 268470, Note_on_c, 0, 60, 0
3, 268470, Note_on_c, 0, 83, 92
3, 268470, Note_on_c, 0, 95, 92
3, 268470, Note_on_c, 0, 59, 92
3, 268470, Note_on_c, 0, 71, 92
3, 268560, Note_on_c, 0, 71, 0
3, 268560, Note_on_c, 0, 83, 0
3, 268560, Note_on_c, 0, 95, 0
3, 268560, Note_on_c, 0, 59, 0
3, 268560, Note_on_c, 0, 81, 90
3, 268560, Note_on_c, 0, 93, 90
3, 268560, Note_on_c, 0, 57, 88
3, 268560, Note_on_c, 0, 69, 88
3, 268650, Note_on_c, 0, 69, 0
3, 268650, Note_on_c, 0, 81, 0
3, 268650, Note_on_c, 0, 93, 0
3, 268650, Note_on_c, 0, 57, 0
3, 268650, Note_on_c, 0, 83, 100
3, 268650, Note_on_c, 0, 95, 100
3, 268650, Note_on_c, 0, 59, 106
3, 268650, Note_on_c, 0, 71, 106
3, 268740, Note_on_c, 0, 71, 0
3, 268740, Note_on_c, 0, 83, 0
3, 268740, Note_on_c, 0, 95, 0
3, 268740, Note_on_c, 0, 59, 0
3, 268740, Note_on_c, 0, 81, 94
3, 268740, Note_on_c, 0, 93, 94
3, 268740, Note_on_c, 0, 57, 94
3, 268740, Note_on_c, 0, 69, 94
3, 268830, Note_on_c, 0, 69, 0
3, 268830, Note_on_c, 0, 81, 0
3, 268830, Note_on_c, 0, 93, 0
3, 268830, Note_on_c, 0, 57, 0
3, 268830, Note_on_c, 0, 79, 93
3, 268830, Note_on_c, 0, 91, 93
3, 268830, Note_on_c, 0, 55, 87
3, 268830, Note_on_c, 0, 67, 87
3, 268920, Note_on_c, 0, 67, 0
3, 268920, Note_on_c, 0, 79, 0
3, 268920, Note_on_c, 0, 91, 0
3, 268920, Note_on_c, 0, 55, 0
3, 268920, Note_on_c, 0, 78, 92
3, 268920, Note_on_c, 0, 90, 92
3, 268920, Note_on_c, 0, 54, 94
3, 268920, Note_on_c, 0, 66, 94
3, 269010, Note_on_c, 0, 66, 0
3, 269010, Note_on_c, 0, 78, 0
3, 269010, Note_on_c, 0, 90, 0
3, 269010, Note_on_c, 0, 54, 0
3, 269010, Note_on_c, 0, 79, 100
3, 269010, Note_on_c, 0, 91, 100
3, 269010, Note_on_c, 0, 55, 104
3, 269010, Note_on_c, 0, 67, 104
3, 269100, Note_on_c, 0, 67, 0
3, 269100, Note_on_c, 0, 79, 0
3, 269100, Note_on_c, 0, 91, 0
3, 269100, Note_on_c, 0, 55, 0
3, 269100, Note_on_c, 0, 78, 91
3, 269100, Note_on_c, 0, 90, 91
3, 269100, Note_on_c, 0, 54, 95
3, 269100, Note_on_c, 0, 66, 95
3, 269190, Note_on_c, 0, 66, 0
3, 269190, Note_on_c, 0, 78, 0
3, 269190, Note_on_c, 0, 90, 0
3, 269190, Note_on_c, 0, 54, 0
3, 269190, Note_on_c, 0, 76, 86
3, 269190, Note_on_c, 0, 88, 86
3, 269190, Note_on_c, 0, 52, 88
3, 269190, Note_on_c, 0, 64, 88
3, 269280, Note_on_c, 0, 64, 0
3, 269280, Note_on_c, 0, 76, 0
3, 269280, Note_on_c, 0, 88, 0
3, 269280, Note_on_c, 0, 52, 0
3, 269280, Note_on_c, 0, 74, 89
3, 269280, Note_on_c, 0, 86, 89
3, 269280, Note_on_c, 0, 50, 90
3, 269280, Note_on_c, 0, 62, 90
3, 269370, Note_on_c, 0, 62, 0
3, 269370, Note_on_c, 0, 74, 0
3, 269370, Note_on_c, 0, 86, 0
3, 269370, Note_on_c, 0, 50, 0
3, 269370, Note_on_c, 0, 73, 94
3, 269370, Note_on_c, 0, 85, 94
3, 269370, Note_on_c, 0, 49, 87
3, 269370, Note_on_c, 0, 61, 87
3, 269460, Note_on_c, 0, 61, 0
3, 269460, Note_on_c, 0, 73, 0
3, 269460, Note_on_c, 0, 85, 0
3, 269460, Note_on_c, 0, 49, 0
3, 269460, Note_on_c, 0, 72, 93
3, 269460, Note_on_c, 0, 84, 93
3, 269460, Note_on_c, 0, 48, 91
3, 269460, Note_on_c, 0, 60, 91
3, 269550, Note_on_c, 0, 60, 0
3, 269550, Note_on_c, 0, 72, 0
3, 269550, Note_on_c, 0, 84, 0
3, 269550, Note_on_c, 0, 48, 0
3, 269550, Note_on_c, 0, 71, 95
3, 269550, Note_on_c, 0, 83, 95
3, 269550, Note_on_c, 0, 47, 96
3, 269550, Note_on_c, 0, 59, 96
3, 269640, Note_on_c, 0, 59, 0
3, 269640, Note_on_c, 0, 71, 0
3, 269640, Note_on_c, 0, 83, 0
3, 269640, Note_on_c, 0, 47, 0
3, 269640, Note_on_c, 0, 69, 84
3, 269640, Note_on_c, 0, 81, 84
3, 269640, Note_on_c, 0, 45, 93
3, 269640, Note_on_c, 0, 57, 93
3, 269730, Note_on_c, 0, 57, 0
3, 269730, Note_on_c, 0, 69, 0
3, 269730, Note_on_c, 0, 81, 0
3, 269730, Note_on_c, 0, 45, 0
3, 269730, Note_on_c, 0, 67, 92
3, 269730, Note_on_c, 0, 79, 92
3, 269730, Note_on_c, 0, 43, 95
3, 269730, Note_on_c, 0, 55, 95
3, 269820, Note_on_c, 0, 55, 0
3, 269820, Note_on_c, 0, 67, 0
3, 269820, Note_on_c, 0, 79, 0
3, 269820, Note_on_c, 0, 43, 0
3, 269820, Note_on_c, 0, 66, 92
3, 269820, Note_on_c, 0, 78, 92
3, 269820, Note_on_c, 0, 42, 97
3, 269820, Note_on_c, 0, 54, 97
3, 269910, Note_on_c, 0, 54, 0
3, 269910, Note_on_c, 0, 66, 0
3, 269910, Note_on_c, 0, 78, 0
3, 269910, Note_on_c, 0, 42, 0
3, 269910, Note_on_c, 0, 64, 93
3, 269910, Note_on_c, 0, 76, 93
3, 269910, Note_on_c, 0, 40, 94
3, 269910, Note_on_c, 0, 52, 94
3, 270000, Note_on_c, 0, 52, 0
3, 270000, Note_on_c, 0, 64, 0
3, 270000, Note_on_c, 0, 76, 0
3, 270000, Note_on_c, 0, 40, 0
3, 270000, Note_on_c, 0, 62, 91
3, 270000, Note_on_c, 0, 74, 91
3, 270000, Note_on_c, 0, 38, 94
3, 270000, Note_on_c, 0, 50, 94
3, 270090, Note_on_c, 0, 50, 0
3, 270090, Note_on_c, 0, 62, 0
3, 270090, Note_on_c, 0, 74, 0
3, 270090, Note_on_c, 0, 38, 0
3, 270090, Note_on_c, 0, 60, 89
3, 270090, Note_on_c, 0, 72, 89
3, 270090, Note_on_c, 0, 36, 92
3, 270090, Note_on_c, 0, 48, 92
3, 270180, Note_on_c, 0, 48, 0
3, 270180, Note_on_c, 0, 60, 0
3, 270180, Note_on_c, 0, 72, 0
3, 270180, Note_on_c, 0, 36, 0
3, 270180, Note_on_c, 0, 59, 93
3, 270180, Note_on_c, 0, 71, 93
3, 270180, Note_on_c, 0, 35, 94
3, 270180, Note_on_c, 0, 47, 94
3, 270270, Note_on_c, 0, 47, 0
3, 270270, Note_on_c, 0, 59, 0
3, 270270, Note_on_c, 0, 71, 0
3, 270270, Note_on_c, 0, 35, 0
3, 270270, Note_on_c, 0, 57, 89
3, 270270, Note_on_c, 0, 69, 89
3, 270270, Note_on_c, 0, 33, 91
3, 270270, Note_on_c, 0, 45, 91
3, 270360, Note_on_c, 0, 45, 0
3, 270360, Note_on_c, 0, 57, 0
3, 270360, Note_on_c, 0, 69, 0
3, 270360, Note_on_c, 0, 33, 0
3, 270360, Note_on_c, 0, 55, 90
3, 270360, Note_on_c, 0, 67, 90
3, 270360, Note_on_c, 0, 31, 91
3, 270360, Note_on_c, 0, 43, 91
3, 270450, Note_on_c, 0, 43, 0
3, 270450, Note_on_c, 0, 55, 0
3, 270450, Note_on_c, 0, 67, 0
3, 270450, Note_on_c, 0, 31, 0
3, 270450, Note_on_c, 0, 54, 94
3, 270450, Note_on_c, 0, 66, 94
3, 270450, Note_on_c, 0, 30, 98
3, 270450, Note_on_c, 0, 42, 98
3, 270540, Note_on_c, 0, 42, 0
3, 270540, Note_on_c, 0, 54, 0
3, 270540, Note_on_c, 0, 66, 0
3, 270540, Note_on_c, 0, 30, 0
3, 270540, Note_on_c, 0, 52, 91
3, 270540, Note_on_c, 0, 64, 91
3, 270540, Note_on_c, 0, 28, 94
3, 270540, Note_on_c, 0, 40, 94
3, 270630, Note_on_c, 0, 40, 0
3, 270630, Note_on_c, 0, 52, 0
3, 270630, Note_on_c, 0, 64, 0
3, 270630, Note_on_c, 0, 28, 0
3, 270630, Note_on_c, 0, 50, 92
3, 270630, Note_on_c, 0, 62, 92
3, 270630, Note_on_c, 0, 26, 97
3, 270630, Note_on_c, 0, 38, 97
3, 270720, Note_on_c, 0, 38, 0
3, 270720, Note_on_c, 0, 50, 0
3, 270720, Note_on_c, 0, 62, 0
3, 270720, Note_on_c, 0, 26, 0
3, 270720, Note_on_c, 0, 62, 121
3, 270720, Note_on_c, 0, 67, 121
3, 270720, Note_on_c, 0, 71, 121
3, 270720, Note_on_c, 0, 74, 121
3, 270720, Note_on_c, 0, 50, 110
3, 270720, Note_on_c, 0, 55, 110
3, 270720, Note_on_c, 0, 59, 110
3, 270900, Note_on_c, 0, 31, 50
3, 270900, Note_on_c, 0, 43, 50
3, 271080, Note_on_c, 0, 59, 0
3, 271080, Note_on_c, 0, 74, 0
3, 271080, Note_on_c, 0, 62, 0
3, 271080, Note_on_c, 0, 50, 0
3, 271080, Note_on_c, 0, 67, 0
3, 271080, Note_on_c, 0, 71, 0
3, 271080, Note_on_c, 0, 55, 0
3, 271080, Note_on_c, 0, 63, 107
3, 271080, Note_on_c, 0, 67, 107
3, 271080, Note_on_c, 0, 71, 107
3, 271080, Note_on_c, 0, 75, 107
3, 271080, Note_on_c, 0, 51, 98
3, 271080, Note_on_c, 0, 55, 98
3, 271080, Note_on_c, 0, 59, 98
3, 271260, Note_on_c, 0, 43, 0
3, 271260, Note_on_c, 0, 31, 0
3, 271260, Note_on_c, 0, 31, 61
3, 271260, Note_on_c, 0, 43, 61
3, 271440, Note_on_c, 0, 67, 0
3, 271440, Note_on_c, 0, 55, 0
3, 271440, Note_on_c, 0, 59, 0
3, 271440, Note_on_c, 0, 75, 0
3, 271440, Note_on_c, 0, 63, 0
3, 271440, Note_on_c, 0, 71, 0
3, 271440, Note_on_c, 0, 51, 0
3, 271440, Note_on_c, 0, 64, 99
3, 271440, Note_on_c, 0, 67, 99
3, 271440, Note_on_c, 0, 71, 99
3, 271440, Note_on_c, 0, 76, 99
3, 271440, Note_on_c, 0, 52, 102
3, 271440, Note_on_c, 0, 55, 102
3, 271440, Note_on_c, 0, 59, 102
3, 271620, Note_on_c, 0, 43, 0
3, 271620, Note_on_c, 0, 31, 0
3, 271620, Note_on_c, 0, 31, 58
3, 271620, Note_on_c, 0, 43, 58
3, 271800, Note_on_c, 0, 67, 0
3, 271800, Note_on_c, 0, 55, 0
3, 271800, Note_on_c, 0, 59, 0
3, 271800, Note_on_c, 0, 76, 0
3, 271800, Note_on_c, 0, 64, 0
3, 271800, Note_on_c, 0, 71, 0
3, 271800, Note_on_c, 0, 52, 0
3, 271800, Note_on_c, 0, 63, 93
3, 271800, Note_on_c, 0, 67, 93
3, 271800, Note_on_c, 0, 71, 93
3, 271800, Note_on_c, 0, 75, 93
3, 271800, Note_on_c, 0, 51, 99
3, 271800, Note_on_c, 0, 55, 99
3, 271800, Note_on_c, 0, 59, 99
3, 271980, Note_on_c, 0, 43, 0
3, 271980, Note_on_c, 0, 31, 0
3, 271980, Note_on_c, 0, 31, 61
3, 271980, Note_on_c, 0, 43, 61
3, 272160, Note_on_c, 0, 67, 0
3, 272160, Note_on_c, 0, 55, 0
3, 272160, Note_on_c, 0, 59, 0
3, 272160, Note_on_c, 0, 75, 0
3, 272160, Note_on_c, 0, 63, 0
3, 272160, Note_on_c, 0, 71, 0
3, 272160, Note_on_c, 0, 51, 0
3, 272160, Note_on_c, 0, 62, 94
3, 272160, Note_on_c, 0, 67, 94
3, 272160, Note_on_c, 0, 71, 94
3, 272160, Note_on_c, 0, 74, 94
3, 272160, Note_on_c, 0, 50, 94
3, 272160, Note_on_c, 0, 55, 94
3, 272160, Note_on_c, 0, 59, 94
3, 272340, Note_on_c, 0, 43, 0
3, 272340, Note_on_c, 0, 31, 0
3, 272340, Note_on_c, 0, 31, 61
3, 272340, Note_on_c, 0, 43, 61
3, 272520, Note_on_c, 0, 67, 0
3, 272520, Note_on_c, 0, 55, 0
3, 272520, Note_on_c, 0, 59, 0
3, 272520, Note_on_c, 0, 74, 0
3, 272520, Note_on_c, 0, 62, 0
3, 272520, Note_on_c, 0, 71, 0
3, 272520, Note_on_c, 0, 50, 0
3, 272520, Note_on_c, 0, 63, 101
3, 272520, Note_on_c, 0, 67, 101
3, 272520, Note_on_c, 0, 71, 101
3, 272520, Note_on_c, 0, 75, 101
3, 272520, Note_on_c, 0, 51, 97
3, 272520, Note_on_c, 0, 55, 97
3, 272520, Note_on_c, 0, 59, 97
3, 272700, Note_on_c, 0, 43, 0
3, 272700, Note_on_c, 0, 31, 0
3, 272700, Note_on_c, 0, 31, 58
3, 272700, Note_on_c, 0, 43, 58
3, 272880, Note_on_c, 0, 43, 0
3, 272880, Note_on_c, 0, 55, 0
3, 272880, Note_on_c, 0, 59, 0
3, 272880, Note_on_c, 0, 75, 0
3, 272880, Note_on_c, 0, 63, 0
3, 272880, Note_on_c, 0, 71, 0
3, 272880, Note_on_c, 0, 67, 0
3, 272880, Note_on_c, 0, 51, 0
3, 272880, Note_on_c, 0, 31, 0
3, 272880, Note_on_c, 0, 64, 97
3, 272880, Note_on_c, 0, 67, 97
3, 272880, Note_on_c, 0, 71, 97
3, 272880, Note_on_c, 0, 76, 97
3, 272880, Note_on_c, 0, 40, 94
3, 272880, Note_on_c, 0, 47, 94
3, 272880, Note_on_c, 0, 55, 94
3, 273060, Note_on_c, 0, 55, 0
3, 273060, Note_on_c, 0, 40, 0
3, 273060, Note_on_c, 0, 67, 0
3, 273060, Note_on_c, 0, 71, 0
3, 273060, Note_on_c, 0, 64, 0
3, 273060, Note_on_c, 0, 47, 0
3, 273060, Note_on_c, 0, 76, 0
3, 273060, Note_on_c, 0, 64, 98
3, 273060, Note_on_c, 0, 69, 98
3, 273060, Note_on_c, 0, 72, 98
3, 273060, Note_on_c, 0, 76, 98
3, 273060, Note_on_c, 0, 40, 97
3, 273060, Note_on_c, 0, 48, 97
3, 273060, Note_on_c, 0, 52, 97
3, 273240, Note_on_c, 0, 52, 0
3, 273240, Note_on_c, 0, 40, 0
3, 273240, Note_on_c, 0, 69, 0
3, 273240, Note_on_c, 0, 72, 0
3, 273240, Note_on_c, 0, 64, 0
3, 273240, Note_on_c, 0, 48, 0
3, 273240, Note_on_c, 0, 76, 0
3, 273240, Note_on_c, 0, 64, 94
3, 273240, Note_on_c, 0, 67, 94
3, 273240, Note_on_c, 0, 71, 94
3, 273240, Note_on_c, 0, 76, 94
3, 273240, Note_on_c, 0, 40, 101
3, 273240, Note_on_c, 0, 47, 101
3, 273240, Note_on_c, 0, 55, 101
3, 273420, Note_on_c, 0, 55, 0
3, 273420, Note_on_c, 0, 40, 0
3, 273420, Note_on_c, 0, 47, 0
3, 273600, Note_on_c, 0, 71, 0
3, 273600, Note_on_c, 0, 64, 0
3, 273600, Note_on_c, 0, 67, 0
3, 273600, Note_on_c, 0, 76, 0
3, 273600, Note_on_c, 0, 62, 90
3, 273600, Note_on_c, 0, 67, 90
3, 273600, Note_on_c, 0, 71, 90
3, 273600, Note_on_c, 0, 74, 90
3, 273600, Note_on_c, 0, 50, 89
3, 273600, Note_on_c, 0, 55, 89
3, 273600, Note_on_c, 0, 59, 89
3, 273780, Note_on_c, 0, 31, 56
3, 273780, Note_on_c, 0, 43, 56
3, 273960, Note_on_c, 0, 59, 0
3, 273960, Note_on_c, 0, 74, 0
3, 273960, Note_on_c, 0, 62, 0
3, 273960, Note_on_c, 0, 50, 0
3, 273960, Note_on_c, 0, 67, 0
3, 273960, Note_on_c, 0, 71, 0
3, 273960, Note_on_c, 0, 55, 0
3, 273960, Note_on_c, 0, 63, 100
3, 273960, Note_on_c, 0, 67, 100
3, 273960, Note_on_c, 0, 71, 100
3, 273960, Note_on_c, 0, 75, 100
3, 273960, Note_on_c, 0, 51, 93
3, 273960, Note_on_c, 0, 55, 93
3, 273960, Note_on_c, 0, 59, 93
3, 274140, Note_on_c, 0, 43, 0
3, 274140, Note_on_c, 0, 31, 0
3, 274140, Note_on_c, 0, 31, 60
3, 274140, Note_on_c, 0, 43, 60
3, 274320, Note_on_c, 0, 67, 0
3, 274320, Note_on_c, 0, 55, 0
3, 274320, Note_on_c, 0, 59, 0
3, 274320, Note_on_c, 0, 75, 0
3, 274320, Note_on_c, 0, 63, 0
3, 274320, Note_on_c, 0, 71, 0
3, 274320, Note_on_c, 0, 51, 0
3, 274320, Note_on_c, 0, 64, 102
3, 274320, Note_on_c, 0, 67, 102
3, 274320, Note_on_c, 0, 71, 102
3, 274320, Note_on_c, 0, 76, 102
3, 274320, Note_on_c, 0, 52, 98
3, 274320, Note_on_c, 0, 55, 98
3, 274320, Note_on_c, 0, 59, 98
3, 274500, Note_on_c, 0, 43, 0
3, 274500, Note_on_c, 0, 31, 0
3, 274500, Note_on_c, 0, 31, 58
3, 274500, Note_on_c, 0, 43, 58
3, 274680, Note_on_c, 0, 67, 0
3, 274680, Note_on_c, 0, 55, 0
3, 274680, Note_on_c, 0, 59, 0
3, 274680, Note_on_c, 0, 76, 0
3, 274680, Note_on_c, 0, 64, 0
3, 274680, Note_on_c, 0, 71, 0
3, 274680, Note_on_c, 0, 52, 0
3, 274680, Note_on_c, 0, 63, 92
3, 274680, Note_on_c, 0, 67, 92
3, 274680, Note_on_c, 0, 71, 92
3, 274680, Note_on_c, 0, 75, 92
3, 274680, Note_on_c, 0, 51, 98
3, 274680, Note_on_c, 0, 55, 98
3, 274680, Note_on_c, 0, 59, 98
3, 274860, Note_on_c, 0, 43, 0
3, 274860, Note_on_c, 0, 31, 0
3, 274860, Note_on_c, 0, 31, 64
3, 274860, Note_on_c, 0, 43, 64
3, 275040, Note_on_c, 0, 67, 0
3, 275040, Note_on_c, 0, 55, 0
3, 275040, Note_on_c, 0, 59, 0
3, 275040, Note_on_c, 0, 75, 0
3, 275040, Note_on_c, 0, 63, 0
3, 275040, Note_on_c, 0, 71, 0
3, 275040, Note_on_c, 0, 51, 0
3, 275040, Note_on_c, 0, 62, 93
3, 275040, Note_on_c, 0, 67, 93
3, 275040, Note_on_c, 0, 71, 93
3, 275040, Note_on_c, 0, 74, 93
3, 275040, Note_on_c, 0, 50, 102
3, 275040, Note_on_c, 0, 55, 102
3, 275040, Note_on_c, 0, 59, 102
3, 275220, Note_on_c, 0, 43, 0
3, 275220, Note_on_c, 0, 31, 0
3, 275220, Note_on_c, 0, 31, 57
3, 275220, Note_on_c, 0, 43, 57
3, 275400, Note_on_c, 0, 67, 0
3, 275400, Note_on_c, 0, 55, 0
3, 275400, Note_on_c, 0, 59, 0
3, 275400, Note_on_c, 0, 74, 0
3, 275400, Note_on_c, 0, 62, 0
3, 275400, Note_on_c, 0, 71, 0
3, 275400, Note_on_c, 0, 50, 0
3, 275400, Note_on_c, 0, 63, 101
3, 275400, Note_on_c, 0, 67, 101
3, 275400, Note_on_c, 0, 71, 101
3, 275400, Note_on_c, 0, 75, 101
3, 275400, Note_on_c, 0, 51, 93
3, 275400, Note_on_c, 0, 55, 93
3, 275400, Note_on_c, 0, 59, 93
3, 275580, Note_on_c, 0, 43, 0
3, 275580, Note_on_c, 0, 31, 0
3, 275580, Note_on_c, 0, 31, 62
3, 275580, Note_on_c, 0, 43, 62
3, 275760, Note_on_c, 0, 43, 0
3, 275760, Note_on_c, 0, 55, 0
3, 275760, Note_on_c, 0, 59, 0
3, 275760, Note_on_c, 0, 75, 0
3, 275760, Note_on_c, 0, 63, 0
3, 275760, Note_on_c, 0, 71, 0
3, 275760, Note_on_c, 0, 67, 0
3, 275760, Note_on_c, 0, 51, 0
3, 275760, Note_on_c, 0, 31, 0
3, 275760, Note_on_c, 0, 64, 100
3, 275760, Note_on_c, 0, 67, 100
3, 275760, Note_on_c, 0, 71, 100
3, 275760, Note_on_c, 0, 76, 100
3, 275760, Note_on_c, 0, 40, 91
3, 275760, Note_on_c, 0, 47, 91
3, 275760, Note_on_c, 0, 55, 91
3, 275940, Note_on_c, 0, 55, 0
3, 275940, Note_on_c, 0, 40, 0
3, 275940, Note_on_c, 0, 67, 0
3, 275940, Note_on_c, 0, 71, 0
3, 275940, Note_on_c, 0, 64, 0
3, 275940, Note_on_c, 0, 47, 0
3, 275940, Note_on_c, 0, 76, 0
3, 275940, Note_on_c, 0, 64, 96
3, 275940, Note_on_c, 0, 69, 96
3, 275940, Note_on_c, 0, 72, 96
3, 275940, Note_on_c, 0, 76, 96
3, 275940, Note_on_c, 0, 40, 97
3, 275940, Note_on_c, 0, 48, 97
3, 275940, Note_on_c, 0, 52, 97
3, 276120, Note_on_c, 0, 52, 0
3, 276120, Note_on_c, 0, 40, 0
3, 276120, Note_on_c, 0, 69, 0
3, 276120, Note_on_c, 0, 72, 0
3, 276120, Note_on_c, 0, 64, 0
3, 276120, Note_on_c, 0, 48, 0
3, 276120, Note_on_c, 0, 76, 0
3, 276120, Note_on_c, 0, 64, 95
3, 276120, Note_on_c, 0, 67, 95
3, 276120, Note_on_c, 0, 71, 95
3, 276120, Note_on_c, 0, 76, 95
3, 276120, Note_on_c, 0, 40, 104
3, 276120, Note_on_c, 0, 47, 104
3, 276120, Note_on_c, 0, 55, 104
3, 276300, Note_on_c, 0, 55, 0
3, 276300, Note_on_c, 0, 40, 0
3, 276300, Note_on_c, 0, 67, 0
3, 276300, Note_on_c, 0, 71, 0
3, 276300, Note_on_c, 0, 64, 0
3, 276300, Note_on_c, 0, 47, 0
3, 276300, Note_on_c, 0, 76, 0
3, 276480, Note_on_c, 0, 54, 90
3, 276480, Note_on_c, 0, 60, 90
3, 276480, Note_on_c, 0, 62, 90
3, 276480, Note_on_c, 0, 50, 87
3, 276480, Note_on_c, 0, 50, 69
3, 276660, Note_on_c, 0, 50, 0
3, 276660, Note_on_c, 0, 38, 55
3, 276840, Note_on_c, 0, 38, 0
3, 276840, Note_on_c, 0, 50, 0
3, 276840, Note_on_c, 0, 54, 0
3, 276840, Note_on_c, 0, 60, 0
3, 276840, Note_on_c, 0, 62, 0
3, 276840, Note_on_c, 0, 54, 92
3, 276840, Note_on_c, 0, 60, 92
3, 276840, Note_on_c, 0, 62, 92
3, 276840, Note_on_c, 0, 50, 97
3, 277020, Note_on_c, 0, 50, 0
3, 277020, Note_on_c, 0, 54, 0
3, 277020, Note_on_c, 0, 60, 0
3, 277020, Note_on_c, 0, 62, 0
3, 277020, Note_on_c, 0, 54, 102
3, 277020, Note_on_c, 0, 60, 102
3, 277020, Note_on_c, 0, 63, 102
3, 277020, Note_on_c, 0, 51, 99
3, 277200, Note_on_c, 0, 51, 0
3, 277200, Note_on_c, 0, 54, 0
3, 277200, Note_on_c, 0, 60, 0
3, 277200, Note_on_c, 0, 63, 0
3, 277200, Note_on_c, 0, 55, 105
3, 277200, Note_on_c, 0, 59, 105
3, 277200, Note_on_c, 0, 64, 105
3, 277200, Note_on_c, 0, 38, 99
3, 277200, Note_on_c, 0, 52, 99
3, 277380, Note_on_c, 0, 52, 0
3, 277380, Note_on_c, 0, 38, 0
3, 277380, Note_on_c, 0, 26, 77
3, 277380, Note_on_c, 0, 38, 77
3, 277560, Note_on_c, 0, 38, 0
3, 277560, Note_on_c, 0, 26, 0
3, 277560, Note_on_c, 0, 26, 95
3, 277560, Note_on_c, 0, 38, 95
3, 277740, Note_on_c, 0, 64, 0
3, 277740, Note_on_c, 0, 55, 0
3, 277740, Note_on_c, 0, 59, 0
3, 277920, Note_on_c, 0, 26, 0
3, 277920, Note_on_c, 0, 38, 0
3, 277920, Note_on_c, 0, 54, 91
3, 277920, Note_on_c, 0, 60, 91
3, 277920, Note_on_c, 0, 62, 91
3, 277920, Note_on_c, 0, 50, 115
3, 277920, Note_on_c, 0, 50, 57
3, 278100, Note_on_c, 0, 50, 0
3, 278100, Note_on_c, 0, 38, 52
3, 278280, Note_on_c, 0, 38, 0
3, 278280, Note_on_c, 0, 50, 0
3, 278280, Note_on_c, 0, 54, 0
3, 278280, Note_on_c, 0, 60, 0
3, 278280, Note_on_c, 0, 62, 0
3, 278280, Note_on_c, 0, 54, 99
3, 278280, Note_on_c, 0, 60, 99
3, 278280, Note_on_c, 0, 63, 99
3, 278280, Note_on_c, 0, 51, 96
3, 278460, Note_on_c, 0, 51, 0
3, 278460, Note_on_c, 0, 54, 0
3, 278460, Note_on_c, 0, 60, 0
3, 278460, Note_on_c, 0, 63, 0
3, 278460, Note_on_c, 0, 66, 103
3, 278460, Note_on_c, 0, 54, 102
3, 278640, Note_on_c, 0, 54, 0
3, 278640, Note_on_c, 0, 66, 0
3, 278640, Note_on_c, 0, 71, 113
3, 278640, Note_on_c, 0, 60, 55
3, 278640, Note_on_c, 0, 64, 55
3, 278640, Note_on_c, 0, 59, 105
3, 278640, Note_on_c, 0, 48, 54
3, 278640, Note_on_c, 0, 52, 54
3, 278730, Note_on_c, 0, 59, 0
3, 278730, Note_on_c, 0, 71, 0
3, 278730, Note_on_c, 0, 69, 92
3, 278730, Note_on_c, 0, 57, 93
3, 278820, Note_on_c, 0, 57, 0
3, 278820, Note_on_c, 0, 69, 0
3, 278820, Note_on_c, 0, 67, 87
3, 278820, Note_on_c, 0, 55, 96
3, 278910, Note_on_c, 0, 55, 0
3, 278910, Note_on_c, 0, 67, 0
3, 278910, Note_on_c, 0, 66, 88
3, 278910, Note_on_c, 0, 54, 94
3, 279000, Note_on_c, 0, 54, 0
3, 279000, Note_on_c, 0, 66, 0
3, 279000, Note_on_c, 0, 64, 94
3, 279000, Note_on_c, 0, 52, 96
3, 279180, Note_on_c, 0, 52, 0
3, 279180, Note_on_c, 0, 52, 0
3, 279180, Note_on_c, 0, 48, 0
3, 279180, Note_on_c, 0, 60, 0
3, 279180, Note_on_c, 0, 64, 0
3, 279180, Note_on_c, 0, 64, 0
3, 279360, Note_on_c, 0, 62, 86
3, 279360, Note_on_c, 0, 66, 86
3, 279360, Note_on_c, 0, 72, 86
3, 279360, Note_on_c, 0, 74, 86
3, 279360, Note_on_c, 0, 50, 90
3, 279360, Note_on_c, 0, 57, 90
3, 279360, Note_on_c, 0, 60, 90
3, 279540, Note_on_c, 0, 38, 53
3, 279540, Note_on_c, 0, 50, 53
3, 279720, Note_on_c, 0, 50, 0
3, 279720, Note_on_c, 0, 74, 0
3, 279720, Note_on_c, 0, 62, 0
3, 279720, Note_on_c, 0, 50, 0
3, 279720, Note_on_c, 0, 66, 0
3, 279720, Note_on_c, 0, 72, 0
3, 279720, Note_on_c, 0, 60, 0
3, 279720, Note_on_c, 0, 57, 0
3, 279720, Note_on_c, 0, 38, 0
3, 279720, Note_on_c, 0, 62, 95
3, 279720, Note_on_c, 0, 66, 95
3, 279720, Note_on_c, 0, 72, 95
3, 279720, Note_on_c, 0, 74, 95
3, 279720, Note_on_c, 0, 50, 94
3, 279720, Note_on_c, 0, 57, 94
3, 279720, Note_on_c, 0, 60, 94
3, 279900, Note_on_c, 0, 60, 0
3, 279900, Note_on_c, 0, 50, 0
3, 279900, Note_on_c, 0, 66, 0
3, 279900, Note_on_c, 0, 72, 0
3, 279900, Note_on_c, 0, 62, 0
3, 279900, Note_on_c, 0, 57, 0
3, 279900, Note_on_c, 0, 74, 0
3, 279900, Note_on_c, 0, 63, 106
3, 279900, Note_on_c, 0, 66, 106
3, 279900, Note_on_c, 0, 72, 106
3, 279900, Note_on_c, 0, 75, 106
3, 279900, Note_on_c, 0, 51, 97
3, 279900, Note_on_c, 0, 57, 97
3, 279900, Note_on_c, 0, 60, 97
3, 280080, Note_on_c, 0, 60, 0
3, 280080, Note_on_c, 0, 51, 0
3, 280080, Note_on_c, 0, 66, 0
3, 280080, Note_on_c, 0, 72, 0
3, 280080, Note_on_c, 0, 63, 0
3, 280080, Note_on_c, 0, 57, 0
3, 280080, Note_on_c, 0, 75, 0
3, 280080, Note_on_c, 0, 64, 100
3, 280080, Note_on_c, 0, 67, 100
3, 280080, Note_on_c, 0, 71, 100
3, 280080, Note_on_c, 0, 76, 100
3, 280080, Note_on_c, 0, 52, 96
3, 280080, Note_on_c, 0, 55, 96
3, 280080, Note_on_c, 0, 59, 96
3, 280260, Note_on_c, 0, 38, 55
3, 280260, Note_on_c, 0, 50, 55
3, 280440, Note_on_c, 0, 50, 0
3, 280440, Note_on_c, 0, 38, 0
3, 280440, Note_on_c, 0, 26, 50
3, 280440, Note_on_c, 0, 38, 50
3, 280620, Note_on_c, 0, 38, 0
3, 280620, Note_on_c, 0, 26, 0
3, 280800, Note_on_c, 0, 59, 0
3, 280800, Note_on_c, 0, 52, 0
3, 280800, Note_on_c, 0, 67, 0
3, 280800, Note_on_c, 0, 71, 0
3, 280800, Note_on_c, 0, 64, 0
3, 280800, Note_on_c, 0, 55, 0
3, 280800, Note_on_c, 0, 76, 0
3, 280800, Note_on_c, 0, 62, 94
3, 280800, Note_on_c, 0, 66, 94
3, 280800, Note_on_c, 0, 72, 94
3, 280800, Note_on_c, 0, 74, 94
3, 280800, Note_on_c, 0, 50, 94
3, 280800, Note_on_c, 0, 57, 94
3, 280980, Note_on_c, 0, 38, 52
3, 280980, Note_on_c, 0, 50, 52
3, 281160, Note_on_c, 0, 50, 0
3, 281160, Note_on_c, 0, 62, 0
3, 281160, Note_on_c, 0, 50, 0
3, 281160, Note_on_c, 0, 66, 0
3, 281160, Note_on_c, 0, 72, 0
3, 281160, Note_on_c, 0, 74, 0
3, 281160, Note_on_c, 0, 57, 0
3, 281160, Note_on_c, 0, 38, 0
3, 281160, Note_on_c, 0, 64, 105
3, 281160, Note_on_c, 0, 71, 105
3, 281160, Note_on_c, 0, 76, 105
3, 281160, Note_on_c, 0, 50, 95
3, 281160, Note_on_c, 0, 55, 95
3, 281340, Note_on_c, 0, 55, 0
3, 281340, Note_on_c, 0, 76, 0
3, 281340, Note_on_c, 0, 64, 0
3, 281340, Note_on_c, 0, 71, 0
3, 281340, Note_on_c, 0, 50, 0
3, 281340, Note_on_c, 0, 66, 110
3, 281340, Note_on_c, 0, 72, 110
3, 281340, Note_on_c, 0, 78, 110
3, 281340, Note_on_c, 0, 50, 97
3, 281340, Note_on_c, 0, 57, 97
3, 281520, Note_on_c, 0, 57, 0
3, 281520, Note_on_c, 0, 78, 0
3, 281520, Note_on_c, 0, 66, 0
3, 281520, Note_on_c, 0, 72, 0
3, 281520, Note_on_c, 0, 50, 0
3, 281520, Note_on_c, 0, 69, 107
3, 281520, Note_on_c, 0, 81, 107
3, 281520, Note_on_c, 0, 74, 78
3, 281520, Note_on_c, 0, 43, 100
3, 281520, Note_on_c, 0, 50, 100
3, 281520, Note_on_c, 0, 59, 100
3, 281700, Note_on_c, 0, 81, 0
3, 281700, Note_on_c, 0, 69, 0
3, 281700, Note_on_c, 0, 67, 94
3, 281700, Note_on_c, 0, 79, 94
3, 282240, Note_on_c, 0, 79, 0
3, 282240, Note_on_c, 0, 59, 0
3, 282240, Note_on_c, 0, 74, 0
3, 282240, Note_on_c, 0, 43, 0
3, 282240, Note_on_c, 0, 67, 0
3, 282240, Note_on_c, 0, 50, 0
3, 282240, Note_on_c, 0, 62, 123
3, 282240, Note_on_c, 0, 67, 123
3, 282240, Note_on_c, 0, 71, 123
3, 282240, Note_on_c, 0, 74, 123
3, 282240, Note_on_c, 0, 50, 127
3, 282240, Note_on_c, 0, 59, 127
3, 282420, Note_on_c, 0, 31, 51
3, 282420, Note_on_c, 0, 43, 51
3, 282600, Note_on_c, 0, 59, 0
3, 282600, Note_on_c, 0, 74, 0
3, 282600, Note_on_c, 0, 62, 0
3, 282600, Note_on_c, 0, 67, 0
3, 282600, Note_on_c, 0, 71, 0
3, 282600, Note_on_c, 0, 50, 0
3, 282600, Note_on_c, 0, 63, 127
3, 282600, Note_on_c, 0, 67, 127
3, 282600, Note_on_c, 0, 71, 127
3, 282600, Note_on_c, 0, 75, 127
3, 282600, Note_on_c, 0, 51, 127
3, 282600, Note_on_c, 0, 59, 127
3, 282780, Note_on_c, 0, 43, 0
3, 282780, Note_on_c, 0, 31, 0
3, 282780, Note_on_c, 0, 31, 63
3, 282780, Note_on_c, 0, 43, 63
3, 282960, Note_on_c, 0, 75, 0
3, 282960, Note_on_c, 0, 67, 0
3, 282960, Note_on_c, 0, 59, 0
3, 282960, Note_on_c, 0, 63, 0
3, 282960, Note_on_c, 0, 71, 0
3, 282960, Note_on_c, 0, 51, 0
3, 282960, Note_on_c, 0, 64, 127
3, 282960, Note_on_c, 0, 67, 127
3, 282960, Note_on_c, 0, 71, 127
3, 282960, Note_on_c, 0, 76, 127
3, 282960, Note_on_c, 0, 52, 127
3, 282960, Note_on_c, 0, 59, 127
3, 283140, Note_on_c, 0, 43, 0
3, 283140, Note_on_c, 0, 31, 0
3, 283140, Note_on_c, 0, 31, 63
3, 283140, Note_on_c, 0, 43, 63
3, 283320, Note_on_c, 0, 76, 0
3, 283320, Note_on_c, 0, 67, 0
3, 283320, Note_on_c, 0, 59, 0
3, 283320, Note_on_c, 0, 64, 0
3, 283320, Note_on_c, 0, 71, 0
3, 283320, Note_on_c, 0, 52, 0
3, 283320, Note_on_c, 0, 65, 127
3, 283320, Note_on_c, 0, 71, 127
3, 283320, Note_on_c, 0, 75, 127
3, 283320, Note_on_c, 0, 77, 127
3, 283320, Note_on_c, 0, 53, 127
3, 283320, Note_on_c, 0, 59, 127
3, 283500, Note_on_c, 0, 43, 0
3, 283500, Note_on_c, 0, 31, 0
3, 283500, Note_on_c, 0, 31, 64
3, 283500, Note_on_c, 0, 43, 64
3, 283680, Note_on_c, 0, 43, 0
3, 283680, Note_on_c, 0, 59, 0
3, 283680, Note_on_c, 0, 53, 0
3, 283680, Note_on_c, 0, 65, 0
3, 283680, Note_on_c, 0, 75, 0
3, 283680, Note_on_c, 0, 71, 0
3, 283680, Note_on_c, 0, 77, 0
3, 283680, Note_on_c, 0, 31, 0
3, 283680, Note_on_c, 0, 66, 127
3, 283680, Note_on_c, 0, 71, 127
3, 283680, Note_on_c, 0, 74, 127
3, 283680, Note_on_c, 0, 78, 127
3, 283680, Note_on_c, 0, 54, 127
3, 283680, Note_on_c, 0, 62, 127
3, 283860, Note_on_c, 0, 35, 58
3, 283860, Note_on_c, 0, 47, 58
3, 284040, Note_on_c, 0, 62, 0
3, 284040, Note_on_c, 0, 78, 0
3, 284040, Note_on_c, 0, 66, 0
3, 284040, Note_on_c, 0, 71, 0
3, 284040, Note_on_c, 0, 74, 0
3, 284040, Note_on_c, 0, 54, 0
3, 284040, Note_on_c, 0, 67, 127
3, 284040, Note_on_c, 0, 74, 127
3, 284040, Note_on_c, 0, 78, 127
3, 284040, Note_on_c, 0, 79, 127
3, 284040, Note_on_c, 0, 55, 127
3, 284040, Note_on_c, 0, 62, 127
3, 284220, Note_on_c, 0, 47, 0
3, 284220, Note_on_c, 0, 35, 0
3, 284220, Note_on_c, 0, 35, 62
3, 284220, Note_on_c, 0, 47, 62
3, 284400, Note_on_c, 0, 79, 0
3, 284400, Note_on_c, 0, 74, 0
3, 284400, Note_on_c, 0, 62, 0
3, 284400, Note_on_c, 0, 67, 0
3, 284400, Note_on_c, 0, 78, 0
3, 284400, Note_on_c, 0, 55, 0
3, 284400, Note_on_c, 0, 68, 127
3, 284400, Note_on_c, 0, 74, 127
3, 284400, Note_on_c, 0, 78, 127
3, 284400, Note_on_c, 0, 80, 127
3, 284400, Note_on_c, 0, 56, 127
3, 284400, Note_on_c, 0, 62, 127
3, 284580, Note_on_c, 0, 47, 0
3, 284580, Note_on_c, 0, 35, 0
3, 284580, Note_on_c, 0, 35, 59
3, 284580, Note_on_c, 0, 47, 59
3, 284760, Note_on_c, 0, 80, 0
3, 284760, Note_on_c, 0, 74, 0
3, 284760, Note_on_c, 0, 62, 0
3, 284760, Note_on_c, 0, 68, 0
3, 284760, Note_on_c, 0, 78, 0
3, 284760, Note_on_c, 0, 56, 0
3, 284760, Note_on_c, 0, 69, 127
3, 284760, Note_on_c, 0, 74, 127
3, 284760, Note_on_c, 0, 78, 127
3, 284760, Note_on_c, 0, 81, 127
3, 284760, Note_on_c, 0, 57, 127
3, 284760, Note_on_c, 0, 62, 127
3, 284940, Note_on_c, 0, 47, 0
3, 284940, Note_on_c, 0, 35, 0
3, 284940, Note_on_c, 0, 35, 61
3, 284940, Note_on_c, 0, 47, 61
3, 285120, Note_on_c, 0, 47, 0
3, 285120, Note_on_c, 0, 62, 0
3, 285120, Note_on_c, 0, 57, 0
3, 285120, Note_on_c, 0, 69, 0
3, 285120, Note_on_c, 0, 78, 0
3, 285120, Note_on_c, 0, 74, 0
3, 285120, Note_on_c, 0, 81, 0
3, 285120, Note_on_c, 0, 35, 0
3, 285120, Note_on_c, 0, 70, 127
3, 285120, Note_on_c, 0, 74, 127
3, 285120, Note_on_c, 0, 78, 127
3, 285120, Note_on_c, 0, 82, 127
3, 285120, Note_on_c, 0, 58, 127
3, 285120, Note_on_c, 0, 66, 127
3, 285300, Note_on_c, 0, 38, 53
3, 285300, Note_on_c, 0, 50, 53
3, 285480, Note_on_c, 0, 66, 0
3, 285480, Note_on_c, 0, 82, 0
3, 285480, Note_on_c, 0, 70, 0
3, 285480, Note_on_c, 0, 74, 0
3, 285480, Note_on_c, 0, 78, 0
3, 285480, Note_on_c, 0, 58, 0
3, 285480, Note_on_c, 0, 71, 127
3, 285480, Note_on_c, 0, 74, 127
3, 285480, Note_on_c, 0, 78, 127
3, 285480, Note_on_c, 0, 83, 127
3, 285480, Note_on_c, 0, 59, 127
3, 285480, Note_on_c, 0, 66, 127
3, 285660, Note_on_c, 0, 50, 0
3, 285660, Note_on_c, 0, 38, 0
3, 285660, Note_on_c, 0, 38, 58
3, 285660, Note_on_c, 0, 50, 58
3, 285840, Note_on_c, 0, 83, 0
3, 285840, Note_on_c, 0, 74, 0
3, 285840, Note_on_c, 0, 66, 0
3, 285840, Note_on_c, 0, 71, 0
3, 285840, Note_on_c, 0, 78, 0
3, 285840, Note_on_c, 0, 59, 0
3, 285840, Note_on_c, 0, 70, 127
3, 285840, Note_on_c, 0, 74, 127
3, 285840, Note_on_c, 0, 78, 127
3, 285840, Note_on_c, 0, 82, 127
3, 285840, Note_on_c, 0, 58, 127
3, 285840, Note_on_c, 0, 66, 127
3, 286020, Note_on_c, 0, 50, 0
3, 286020, Note_on_c, 0, 38, 0
3, 286020, Note_on_c, 0, 38, 58
3, 286020, Note_on_c, 0, 50, 58
3, 286200, Note_on_c, 0, 82, 0
3, 286200, Note_on_c, 0, 74, 0
3, 286200, Note_on_c, 0, 66, 0
3, 286200, Note_on_c, 0, 70, 0
3, 286200, Note_on_c, 0, 78, 0
3, 286200, Note_on_c, 0, 58, 0
3, 286200, Note_on_c, 0, 71, 127
3, 286200, Note_on_c, 0, 74, 127
3, 286200, Note_on_c, 0, 78, 127
3, 286200, Note_on_c, 0, 83, 127
3, 286200, Note_on_c, 0, 59, 127
3, 286200, Note_on_c, 0, 66, 127
3, 286380, Note_on_c, 0, 50, 0
3, 286380, Note_on_c, 0, 38, 0
3, 286380, Note_on_c, 0, 38, 55
3, 286380, Note_on_c, 0, 50, 55
3, 286560, Note_on_c, 0, 50, 0
3, 286560, Note_on_c, 0, 66, 0
3, 286560, Note_on_c, 0, 59, 0
3, 286560, Note_on_c, 0, 71, 0
3, 286560, Note_on_c, 0, 78, 0
3, 286560, Note_on_c, 0, 74, 0
3, 286560, Note_on_c, 0, 83, 0
3, 286560, Note_on_c, 0, 38, 0
3, 286560, Note_on_c, 0, 72, 116
3, 286560, Note_on_c, 0, 77, 116
3, 286560, Note_on_c, 0, 81, 116
3, 286560, Note_on_c, 0, 84, 116
3, 286560, Note_on_c, 0, 60, 122
3, 286560, Note_on_c, 0, 69, 122
3, 286740, Note_on_c, 0, 41, 55
3, 286740, Note_on_c, 0, 53, 55
3, 286920, Note_on_c, 0, 69, 0
3, 286920, Note_on_c, 0, 84, 0
3, 286920, Note_on_c, 0, 72, 0
3, 286920, Note_on_c, 0, 77, 0
3, 286920, Note_on_c, 0, 81, 0
3, 286920, Note_on_c, 0, 60, 0
3, 286920, Note_on_c, 0, 73, 118
3, 286920, Note_on_c, 0, 77, 118
3, 286920, Note_on_c, 0, 81, 118
3, 286920, Note_on_c, 0, 85, 118
3, 286920, Note_on_c, 0, 61, 115
3, 286920, Note_on_c, 0, 69, 115
3, 287100, Note_on_c, 0, 53, 0
3, 287100, Note_on_c, 0, 41, 0
3, 287100, Note_on_c, 0, 41, 58
3, 287100, Note_on_c, 0, 53, 58
3, 287280, Note_on_c, 0, 85, 0
3, 287280, Note_on_c, 0, 77, 0
3, 287280, Note_on_c, 0, 69, 0
3, 287280, Note_on_c, 0, 73, 0
3, 287280, Note_on_c, 0, 81, 0
3, 287280, Note_on_c, 0, 61, 0
3, 287280, Note_on_c, 0, 72, 112
3, 287280, Note_on_c, 0, 77, 112
3, 287280, Note_on_c, 0, 81, 112
3, 287280, Note_on_c, 0, 84, 112
3, 287280, Note_on_c, 0, 60, 113
3, 287280, Note_on_c, 0, 69, 113
3, 287460, Note_on_c, 0, 53, 0
3, 287460, Note_on_c, 0, 41, 0
3, 287460, Note_on_c, 0, 41, 60
3, 287460, Note_on_c, 0, 53, 60
3, 287640, Note_on_c, 0, 84, 0
3, 287640, Note_on_c, 0, 77, 0
3, 287640, Note_on_c, 0, 69, 0
3, 287640, Note_on_c, 0, 72, 0
3, 287640, Note_on_c, 0, 81, 0
3, 287640, Note_on_c, 0, 60, 0
3, 287640, Note_on_c, 0, 73, 118
3, 287640, Note_on_c, 0, 77, 118
3, 287640, Note_on_c, 0, 81, 118
3, 287640, Note_on_c, 0, 85, 118
3, 287640, Note_on_c, 0, 61, 113
3, 287640, Note_on_c, 0, 69, 113
3, 287820, Note_on_c, 0, 53, 0
3, 287820, Note_on_c, 0, 41, 0
3, 287820, Note_on_c, 0, 41, 60
3, 287820, Note_on_c, 0, 53, 60
3, 288000, Note_on_c, 0, 53, 0
3, 288000, Note_on_c, 0, 69, 0
3, 288000, Note_on_c, 0, 61, 0
3, 288000, Note_on_c, 0, 73, 0
3, 288000, Note_on_c, 0, 81, 0
3, 288000, Note_on_c, 0, 77, 0
3, 288000, Note_on_c, 0, 85, 0
3, 288000, Note_on_c, 0, 41, 0
3, 288000, Note_on_c, 0, 73, 110
3, 288000, Note_on_c, 0, 78, 110
3, 288000, Note_on_c, 0, 82, 110
3, 288000, Note_on_c, 0, 85, 110
3, 288000, Note_on_c, 0, 61, 120
3, 288000, Note_on_c, 0, 70, 120
3, 288180, Note_on_c, 0, 42, 56
3, 288180, Note_on_c, 0, 54, 56
3, 288360, Note_on_c, 0, 70, 0
3, 288360, Note_on_c, 0, 85, 0
3, 288360, Note_on_c, 0, 73, 0
3, 288360, Note_on_c, 0, 78, 0
3, 288360, Note_on_c, 0, 82, 0
3, 288360, Note_on_c, 0, 61, 0
3, 288360, Note_on_c, 0, 74, 112
3, 288360, Note_on_c, 0, 78, 112
3, 288360, Note_on_c, 0, 82, 112
3, 288360, Note_on_c, 0, 86, 112
3, 288360, Note_on_c, 0, 62, 113
3, 288360, Note_on_c, 0, 70, 113
3, 288540, Note_on_c, 0, 54, 0
3, 288540, Note_on_c, 0, 42, 0
3, 288540, Note_on_c, 0, 42, 59
3, 288540, Note_on_c, 0, 54, 59
3, 288720, Note_on_c, 0, 86, 0
3, 288720, Note_on_c, 0, 78, 0
3, 288720, Note_on_c, 0, 70, 0
3, 288720, Note_on_c, 0, 74, 0
3, 288720, Note_on_c, 0, 82, 0
3, 288720, Note_on_c, 0, 62, 0
3, 288720, Note_on_c, 0, 75, 123
3, 288720, Note_on_c, 0, 78, 123
3, 288720, Note_on_c, 0, 82, 123
3, 288720, Note_on_c, 0, 87, 123
3, 288720, Note_on_c, 0, 63, 109
3, 288720, Note_on_c, 0, 70, 109
3, 288900, Note_on_c, 0, 54, 0
3, 288900, Note_on_c, 0, 42, 0
3, 288900, Note_on_c, 0, 42, 61
3, 288900, Note_on_c, 0, 54, 61
3, 289080, Note_on_c, 0, 87, 0
3, 289080, Note_on_c, 0, 78, 0
3, 289080, Note_on_c, 0, 70, 0
3, 289080, Note_on_c, 0, 75, 0
3, 289080, Note_on_c, 0, 82, 0
3, 289080, Note_on_c, 0, 63, 0
3, 289080, Note_on_c, 0, 74, 109
3, 289080, Note_on_c, 0, 78, 109
3, 289080, Note_on_c, 0, 82, 109
3, 289080, Note_on_c, 0, 86, 109
3, 289080, Note_on_c, 0, 62, 115
3, 289080, Note_on_c, 0, 70, 115
3, 289260, Note_on_c, 0, 54, 0
3, 289260, Note_on_c, 0, 42, 0
3, 289260, Note_on_c, 0, 42, 61
3, 289260, Note_on_c, 0, 54, 61
3, 289440, Note_on_c, 0, 54, 0
3, 289440, Note_on_c, 0, 70, 0
3, 289440, Note_on_c, 0, 62, 0
3, 289440, Note_on_c, 0, 74, 0
3, 289440, Note_on_c, 0, 82, 0
3, 289440, Note_on_c, 0, 78, 0
3, 289440, Note_on_c, 0, 86, 0
3, 289440, Note_on_c, 0, 42, 0
3, 289440, Note_on_c, 0, 74, 111
3, 289440, Note_on_c, 0, 79, 111
3, 289440, Note_on_c, 0, 83, 111
3, 289440, Note_on_c, 0, 86, 111
3, 289440, Note_on_c, 0, 62, 118
3, 289440, Note_on_c, 0, 71, 118
3, 289620, Note_on_c, 0, 43, 58
3, 289620, Note_on_c, 0, 55, 58
3, 289800, Note_on_c, 0, 71, 0
3, 289800, Note_on_c, 0, 86, 0
3, 289800, Note_on_c, 0, 74, 0
3, 289800, Note_on_c, 0, 79, 0
3, 289800, Note_on_c, 0, 83, 0
3, 289800, Note_on_c, 0, 62, 0
3, 289800, Note_on_c, 0, 75, 114
3, 289800, Note_on_c, 0, 79, 114
3, 289800, Note_on_c, 0, 83, 114
3, 289800, Note_on_c, 0, 87, 114
3, 289800, Note_on_c, 0, 63, 119
3, 289800, Note_on_c, 0, 71, 119
3, 289980, Note_on_c, 0, 55, 0
3, 289980, Note_on_c, 0, 43, 0
3, 289980, Note_on_c, 0, 43, 57
3, 289980, Note_on_c, 0, 55, 57
3, 290160, Note_on_c, 0, 87, 0
3, 290160, Note_on_c, 0, 79, 0
3, 290160, Note_on_c, 0, 71, 0
3, 290160, Note_on_c, 0, 75, 0
3, 290160, Note_on_c, 0, 83, 0
3, 290160, Note_on_c, 0, 63, 0
3, 290160, Note_on_c, 0, 76, 119
3, 290160, Note_on_c, 0, 79, 119
3, 290160, Note_on_c, 0, 83, 119
3, 290160, Note_on_c, 0, 88, 119
3, 290160, Note_on_c, 0, 64, 112
3, 290160, Note_on_c, 0, 71, 112
3, 290340, Note_on_c, 0, 55, 0
3, 290340, Note_on_c, 0, 43, 0
3, 290340, Note_on_c, 0, 43, 60
3, 290340, Note_on_c, 0, 55, 60
3, 290520, Note_on_c, 0, 88, 0
3, 290520, Note_on_c, 0, 79, 0
3, 290520, Note_on_c, 0, 71, 0
3, 290520, Note_on_c, 0, 76, 0
3, 290520, Note_on_c, 0, 83, 0
3, 290520, Note_on_c, 0, 64, 0
3, 290520, Note_on_c, 0, 75, 110
3, 290520, Note_on_c, 0, 79, 110
3, 290520, Note_on_c, 0, 83, 110
3, 290520, Note_on_c, 0, 87, 110
3, 290520, Note_on_c, 0, 63, 112
3, 290520, Note_on_c, 0, 71, 112
3, 290700, Note_on_c, 0, 55, 0
3, 290700, Note_on_c, 0, 43, 0
3, 290700, Note_on_c, 0, 43, 59
3, 290700, Note_on_c, 0, 55, 59
3, 290880, Note_on_c, 0, 55, 0
3, 290880, Note_on_c, 0, 71, 0
3, 290880, Note_on_c, 0, 63, 0
3, 290880, Note_on_c, 0, 75, 0
3, 290880, Note_on_c, 0, 83, 0
3, 290880, Note_on_c, 0, 79, 0
3, 290880, Note_on_c, 0, 87, 0
3, 290880, Note_on_c, 0, 43, 0
3, 290880, Note_on_c, 0, 62, 83
3, 290880, Note_on_c, 0, 67, 83
3, 290880, Note_on_c, 0, 71, 83
3, 290880, Note_on_c, 0, 74, 83
3, 290880, Note_on_c, 0, 50, 102
3, 290880, Note_on_c, 0, 59, 102
3, 291060, Note_on_c, 0, 31, 53
3, 291060, Note_on_c, 0, 43, 53
3, 291240, Note_on_c, 0, 59, 0
3, 291240, Note_on_c, 0, 74, 0
3, 291240, Note_on_c, 0, 62, 0
3, 291240, Note_on_c, 0, 67, 0
3, 291240, Note_on_c, 0, 71, 0
3, 291240, Note_on_c, 0, 50, 0
3, 291240, Note_on_c, 0, 63, 111
3, 291240, Note_on_c, 0, 67, 111
3, 291240, Note_on_c, 0, 71, 111
3, 291240, Note_on_c, 0, 75, 111
3, 291240, Note_on_c, 0, 51, 111
3, 291240, Note_on_c, 0, 59, 111
3, 291420, Note_on_c, 0, 43, 0
3, 291420, Note_on_c, 0, 31, 0
3, 291420, Note_on_c, 0, 31, 63
3, 291420, Note_on_c, 0, 43, 63
3, 291600, Note_on_c, 0, 75, 0
3, 291600, Note_on_c, 0, 67, 0
3, 291600, Note_on_c, 0, 59, 0
3, 291600, Note_on_c, 0, 63, 0
3, 291600, Note_on_c, 0, 71, 0
3, 291600, Note_on_c, 0, 51, 0
3, 291600, Note_on_c, 0, 64, 119
3, 291600, Note_on_c, 0, 67, 119
3, 291600, Note_on_c, 0, 71, 119
3, 291600, Note_on_c, 0, 76, 119
3, 291600, Note_on_c, 0, 52, 110
3, 291600, Note_on_c, 0, 59, 110
3, 291780, Note_on_c, 0, 43, 0
3, 291780, Note_on_c, 0, 31, 0
3, 291780, Note_on_c, 0, 31, 62
3, 291780, Note_on_c, 0, 43, 62
3, 291960, Note_on_c, 0, 76, 0
3, 291960, Note_on_c, 0, 67, 0
3, 291960, Note_on_c, 0, 59, 0
3, 291960, Note_on_c, 0, 64, 0
3, 291960, Note_on_c, 0, 71, 0
3, 291960, Note_on_c, 0, 52, 0
3, 291960, Note_on_c, 0, 63, 111
3, 291960, Note_on_c, 0, 67, 111
3, 291960, Note_on_c, 0, 71, 111
3, 291960, Note_on_c, 0, 75, 111
3, 291960, Note_on_c, 0, 51, 116
3, 291960, Note_on_c, 0, 59, 116
3, 292140, Note_on_c, 0, 43, 0
3, 292140, Note_on_c, 0, 31, 0
3, 292140, Note_on_c, 0, 31, 66
3, 292140, Note_on_c, 0, 43, 66
3, 292320, Note_on_c, 0, 43, 0
3, 292320, Note_on_c, 0, 59, 0
3, 292320, Note_on_c, 0, 51, 0
3, 292320, Note_on_c, 0, 63, 0
3, 292320, Note_on_c, 0, 71, 0
3, 292320, Note_on_c, 0, 67, 0
3, 292320, Note_on_c, 0, 75, 0
3, 292320, Note_on_c, 0, 31, 0
3, 292320, Note_on_c, 0, 55, 85
3, 292320, Note_on_c, 0, 59, 85
3, 292320, Note_on_c, 0, 62, 85
3, 292320, Note_on_c, 0, 50, 102
3, 292500, Note_on_c, 0, 43, 56
3, 292680, Note_on_c, 0, 50, 0
3, 292680, Note_on_c, 0, 62, 0
3, 292680, Note_on_c, 0, 55, 0
3, 292680, Note_on_c, 0, 59, 0
3, 292680, Note_on_c, 0, 55, 114
3, 292680, Note_on_c, 0, 59, 114
3, 292680, Note_on_c, 0, 63, 114
3, 292680, Note_on_c, 0, 51, 117
3, 292860, Note_on_c, 0, 43, 0
3, 292860, Note_on_c, 0, 43, 63
3, 293040, Note_on_c, 0, 63, 0
3, 293040, Note_on_c, 0, 51, 0
3, 293040, Note_on_c, 0, 55, 0
3, 293040, Note_on_c, 0, 59, 0
3, 293040, Note_on_c, 0, 55, 115
3, 293040, Note_on_c, 0, 59, 115
3, 293040, Note_on_c, 0, 64, 115
3, 293040, Note_on_c, 0, 52, 112
3, 293220, Note_on_c, 0, 43, 0
3, 293220, Note_on_c, 0, 43, 59
3, 293400, Note_on_c, 0, 64, 0
3, 293400, Note_on_c, 0, 52, 0
3, 293400, Note_on_c, 0, 55, 0
3, 293400, Note_on_c, 0, 59, 0
3, 293400, Note_on_c, 0, 55, 108
3, 293400, Note_on_c, 0, 59, 108
3, 293400, Note_on_c, 0, 63, 108
3, 293400, Note_on_c, 0, 51, 108
3, 293580, Note_on_c, 0, 43, 0
3, 293580, Note_on_c, 0, 43, 57
3, 293760, Note_on_c, 0, 63, 0
3, 293760, Note_on_c, 0, 51, 0
3, 293760, Note_on_c, 0, 55, 0
3, 293760, Note_on_c, 0, 59, 0
3, 293760, Note_on_c, 0, 55, 109
3, 293760, Note_on_c, 0, 59, 109
3, 293760, Note_on_c, 0, 62, 109
3, 293760, Note_on_c, 0, 43, 115
3, 293760, Note_on_c, 0, 50, 115
3, 293940, Note_on_c, 0, 50, 0
3, 293940, Note_on_c, 0, 55, 0
3, 293940, Note_on_c, 0, 59, 0
3, 293940, Note_on_c, 0, 43, 0
3, 293940, Note_on_c, 0, 62, 0
3, 293940, Note_on_c, 0, 67, 126
3, 293940, Note_on_c, 0, 43, 118
3, 293940, Note_on_c, 0, 55, 118
3, 294030, Note_on_c, 0, 55, 0
3, 294030, Note_on_c, 0, 43, 0
3, 294030, Note_on_c, 0, 67, 0
3, 294030, Note_on_c, 0, 65, 110
3, 294030, Note_on_c, 0, 41, 110
3, 294030, Note_on_c, 0, 53, 110
3, 294120, Note_on_c, 0, 53, 0
3, 294120, Note_on_c, 0, 41, 0
3, 294120, Note_on_c, 0, 65, 0
3, 294120, Note_on_c, 0, 63, 107
3, 294120, Note_on_c, 0, 39, 108
3, 294120, Note_on_c, 0, 51, 108
3, 294300, Note_on_c, 0, 51, 0
3, 294300, Note_on_c, 0, 39, 0
3, 294300, Note_on_c, 0, 63, 0
3, 294300, Note_on_c, 0, 63, 115
3, 294300, Note_on_c, 0, 39, 115
3, 294300, Note_on_c, 0, 51, 115
3, 294390, Note_on_c, 0, 51, 0
3, 294390, Note_on_c, 0, 39, 0
3, 294390, Note_on_c, 0, 63, 0
3, 294390, Note_on_c, 0, 62, 109
3, 294390, Note_on_c, 0, 38, 109
3, 294390, Note_on_c, 0, 50, 109
3, 294480, Note_on_c, 0, 50, 0
3, 294480, Note_on_c, 0, 38, 0
3, 294480, Note_on_c, 0, 62, 0
3, 294480, Note_on_c, 0, 60, 103
3, 294480, Note_on_c, 0, 36, 114
3, 294480, Note_on_c, 0, 48, 114
3, 294660, Note_on_c, 0, 48, 0
3, 294660, Note_on_c, 0, 36, 0
3, 294660, Note_on_c, 0, 60, 0
3, 294660, Note_on_c, 0, 60, 107
3, 294660, Note_on_c, 0, 36, 106
3, 294660, Note_on_c, 0, 48, 106
3, 294750, Note_on_c, 0, 48, 0
3, 294750, Note_on_c, 0, 36, 0
3, 294750, Note_on_c, 0, 60, 0
3, 294750, Note_on_c, 0, 58, 111
3, 294750, Note_on_c, 0, 34, 111
3, 294750, Note_on_c, 0, 46, 111
3, 294840, Note_on_c, 0, 46, 0
3, 294840, Note_on_c, 0, 34, 0
3, 294840, Note_on_c, 0, 58, 0
3, 294840, Note_on_c, 0, 57, 105
3, 294840, Note_on_c, 0, 33, 112
3, 294840, Note_on_c, 0, 45, 112
3, 295020, Note_on_c, 0, 45, 0
3, 295020, Note_on_c, 0, 33, 0
3, 295020, Note_on_c, 0, 57, 0
3, 295020, Note_on_c, 0, 62, 125
3, 295020, Note_on_c, 0, 38, 117
3, 295020, Note_on_c, 0, 50, 117
3, 295200, Note_on_c, 0, 50, 0
3, 295200, Note_on_c, 0, 38, 0
3, 295200, Note_on_c, 0, 62, 0
3, 295200, Note_on_c, 0, 55, 109
3, 295200, Note_on_c, 0, 31, 107
3, 295200, Note_on_c, 0, 43, 107
3, 295380, Note_on_c, 0, 31, 0
3, 295380, Note_on_c, 0, 43, 0
3, 295380, Note_on_c, 0, 55, 0
3, 295380, Note_on_c, 0, 67, 126
3, 295380, Note_on_c, 0, 79, 126
3, 295380, Note_on_c, 0, 43, 126
3, 295380, Note_on_c, 0, 55, 126
3, 295470, Note_on_c, 0, 55, 0
3, 295470, Note_on_c, 0, 43, 0
3, 295470, Note_on_c, 0, 79, 0
3, 295470, Note_on_c, 0, 67, 0
3, 295470, Note_on_c, 0, 65, 116
3, 295470, Note_on_c, 0, 77, 116
3, 295470, Note_on_c, 0, 41, 109
3, 295470, Note_on_c, 0, 53, 109
3, 295560, Note_on_c, 0, 53, 0
3, 295560, Note_on_c, 0, 77, 0
3, 295560, Note_on_c, 0, 41, 0
3, 295560, Note_on_c, 0, 65, 0
3, 295560, Note_on_c, 0, 63, 102
3, 295560, Note_on_c, 0, 75, 102
3, 295560, Note_on_c, 0, 39, 113
3, 295560, Note_on_c, 0, 51, 113
3, 295740, Note_on_c, 0, 51, 0
3, 295740, Note_on_c, 0, 75, 0
3, 295740, Note_on_c, 0, 39, 0
3, 295740, Note_on_c, 0, 63, 0
3, 295740, Note_on_c, 0, 63, 108
3, 295740, Note_on_c, 0, 75, 108
3, 295740, Note_on_c, 0, 39, 113
3, 295740, Note_on_c, 0, 51, 113
3, 295830, Note_on_c, 0, 51, 0
3, 295830, Note_on_c, 0, 75, 0
3, 295830, Note_on_c, 0, 39, 0
3, 295830, Note_on_c, 0, 63, 0
3, 295830, Note_on_c, 0, 62, 109
3, 295830, Note_on_c, 0, 74, 109
3, 295830, Note_on_c, 0, 38, 112
3, 295830, Note_on_c, 0, 50, 112
3, 295920, Note_on_c, 0, 50, 0
3, 295920, Note_on_c, 0, 74, 0
3, 295920, Note_on_c, 0, 38, 0
3, 295920, Note_on_c, 0, 62, 0
3, 295920, Note_on_c, 0, 60, 103
3, 295920, Note_on_c, 0, 72, 103
3, 295920, Note_on_c, 0, 36, 107
3, 295920, Note_on_c, 0, 48, 107
3, 296100, Note_on_c, 0, 48, 0
3, 296100, Note_on_c, 0, 72, 0
3, 296100, Note_on_c, 0, 36, 0
3, 296100, Note_on_c, 0, 60, 0
3, 296100, Note_on_c, 0, 60, 112
3, 296100, Note_on_c, 0, 72, 112
3, 296100, Note_on_c, 0, 36, 112
3, 296100, Note_on_c, 0, 48, 112
3, 296190, Note_on_c, 0, 48, 0
3, 296190, Note_on_c, 0, 72, 0
3, 296190, Note_on_c, 0, 36, 0
3, 296190, Note_on_c, 0, 60, 0
3, 296190, Note_on_c, 0, 58, 104
3, 296190, Note_on_c, 0, 70, 104
3, 296190, Note_on_c, 0, 34, 108
3, 296190, Note_on_c, 0, 46, 108
3, 296280, Note_on_c, 0, 46, 0
3, 296280, Note_on_c, 0, 70, 0
3, 296280, Note_on_c, 0, 34, 0
3, 296280, Note_on_c, 0, 58, 0
3, 296280, Note_on_c, 0, 57, 105
3, 296280, Note_on_c, 0, 69, 105
3, 296280, Note_on_c, 0, 33, 107
3, 296280, Note_on_c, 0, 45, 107
3, 296460, Note_on_c, 0, 45, 0
3, 296460, Note_on_c, 0, 69, 0
3, 296460, Note_on_c, 0, 33, 0
3, 296460, Note_on_c, 0, 57, 0
3, 296460, Note_on_c, 0, 62, 126
3, 296460, Note_on_c, 0, 74, 126
3, 296460, Note_on_c, 0, 38, 115
3, 296460, Note_on_c, 0, 50, 115
3, 296640, Note_on_c, 0, 50, 0
3, 296640, Note_on_c, 0, 74, 0
3, 296640, Note_on_c, 0, 38, 0
3, 296640, Note_on_c, 0, 62, 0
3, 296640, Note_on_c, 0, 55, 96
3, 296640, Note_on_c, 0, 67, 96
3, 296640, Note_on_c, 0, 31, 103
3, 296640, Note_on_c, 0, 43, 103
3, 296820, Note_on_c, 0, 31, 0
3, 296820, Note_on_c, 0, 67, 0
3, 296820, Note_on_c, 0, 43, 0
3, 296820, Note_on_c, 0, 55, 0
3, 296820, Note_on_c, 0, 79, 126
3, 296820, Note_on_c, 0, 91, 126
3, 296820, Note_on_c, 0, 55, 126
3, 296820, Note_on_c, 0, 67, 126
3, 296910, Note_on_c, 0, 67, 0
3, 296910, Note_on_c, 0, 91, 0
3, 296910, Note_on_c, 0, 55, 0
3, 296910, Note_on_c, 0, 79, 0
3, 296910, Note_on_c, 0, 77, 115
3, 296910, Note_on_c, 0, 89, 115
3, 296910, Note_on_c, 0, 53, 115
3, 296910, Note_on_c, 0, 65, 115
3, 297000, Note_on_c, 0, 65, 0
3, 297000, Note_on_c, 0, 89, 0
3, 297000, Note_on_c, 0, 53, 0
3, 297000, Note_on_c, 0, 77, 0
3, 297000, Note_on_c, 0, 75, 106
3, 297000, Note_on_c, 0, 87, 106
3, 297000, Note_on_c, 0, 51, 105
3, 297000, Note_on_c, 0, 63, 105
3, 297090, Note_on_c, 0, 63, 0
3, 297090, Note_on_c, 0, 87, 0
3, 297090, Note_on_c, 0, 51, 0
3, 297090, Note_on_c, 0, 75, 0
3, 297090, Note_on_c, 0, 74, 102
3, 297090, Note_on_c, 0, 86, 102
3, 297090, Note_on_c, 0, 50, 104
3, 297090, Note_on_c, 0, 62, 104
3, 297180, Note_on_c, 0, 62, 0
3, 297180, Note_on_c, 0, 86, 0
3, 297180, Note_on_c, 0, 50, 0
3, 297180, Note_on_c, 0, 74, 0
3, 297180, Note_on_c, 0, 75, 116
3, 297180, Note_on_c, 0, 87, 116
3, 297180, Note_on_c, 0, 51, 117
3, 297180, Note_on_c, 0, 63, 117
3, 297270, Note_on_c, 0, 63, 0
3, 297270, Note_on_c, 0, 87, 0
3, 297270, Note_on_c, 0, 51, 0
3, 297270, Note_on_c, 0, 75, 0
3, 297270, Note_on_c, 0, 74, 110
3, 297270, Note_on_c, 0, 86, 110
3, 297270, Note_on_c, 0, 50, 104
3, 297270, Note_on_c, 0, 62, 104
3, 297360, Note_on_c, 0, 62, 0
3, 297360, Note_on_c, 0, 86, 0
3, 297360, Note_on_c, 0, 50, 0
3, 297360, Note_on_c, 0, 74, 0
3, 297360, Note_on_c, 0, 72, 99
3, 297360, Note_on_c, 0, 84, 99
3, 297360, Note_on_c, 0, 48, 110
3, 297360, Note_on_c, 0, 60, 110
3, 297450, Note_on_c, 0, 60, 0
3, 297450, Note_on_c, 0, 84, 0
3, 297450, Note_on_c, 0, 48, 0
3, 297450, Note_on_c, 0, 72, 0
3, 297450, Note_on_c, 0, 70, 103
3, 297450, Note_on_c, 0, 82, 103
3, 297450, Note_on_c, 0, 46, 103
3, 297450, Note_on_c, 0, 58, 103
3, 297540, Note_on_c, 0, 58, 0
3, 297540, Note_on_c, 0, 82, 0
3, 297540, Note_on_c, 0, 46, 0
3, 297540, Note_on_c, 0, 70, 0
3, 297540, Note_on_c, 0, 72, 123
3, 297540, Note_on_c, 0, 84, 123
3, 297540, Note_on_c, 0, 48, 121
3, 297540, Note_on_c, 0, 60, 121
3, 297630, Note_on_c, 0, 60, 0
3, 297630, Note_on_c, 0, 84, 0
3, 297630, Note_on_c, 0, 48, 0
3, 297630, Note_on_c, 0, 72, 0
3, 297630, Note_on_c, 0, 70, 103
3, 297630, Note_on_c, 0, 82, 103
3, 297630, Note_on_c, 0, 46, 107
3, 297630, Note_on_c, 0, 58, 107
3, 297720, Note_on_c, 0, 58, 0
3, 297720, Note_on_c, 0, 82, 0
3, 297720, Note_on_c, 0, 46, 0
3, 297720, Note_on_c, 0, 70, 0
3, 297720, Note_on_c, 0, 69, 107
3, 297720, Note_on_c, 0, 81, 107
3, 297720, Note_on_c, 0, 45, 111
3, 297720, Note_on_c, 0, 57, 111
3, 297900, Note_on_c, 0, 57, 0
3, 297900, Note_on_c, 0, 81, 0
3, 297900, Note_on_c, 0, 45, 0
3, 297900, Note_on_c, 0, 69, 0
3, 297900, Note_on_c, 0, 74, 123
3, 297900, Note_on_c, 0, 86, 123
3, 297900, Note_on_c, 0, 50, 126
3, 297900, Note_on_c, 0, 62, 126
3, 298080, Note_on_c, 0, 62, 0
3, 298080, Note_on_c, 0, 86, 0
3, 298080, Note_on_c, 0, 50, 0
3, 298080, Note_on_c, 0, 74, 0
3, 298080, Note_on_c, 0, 67, 93
3, 298080, Note_on_c, 0, 71, 93
3, 298080, Note_on_c, 0, 79, 93
3, 298080, Note_on_c, 0, 43, 104
3, 298080, Note_on_c, 0, 50, 104
3, 298080, Note_on_c, 0, 55, 104
3, 298260, Note_on_c, 0, 55, 0
3, 298260, Note_on_c, 0, 79, 0
3, 298260, Note_on_c, 0, 67, 0
3, 298260, Note_on_c, 0, 71, 0
3, 298260, Note_on_c, 0, 43, 0
3, 298260, Note_on_c, 0, 50, 0
3, 298260, Note_on_c, 0, 71, 120
3, 298260, Note_on_c, 0, 76, 120
3, 298260, Note_on_c, 0, 79, 120
3, 298260, Note_on_c, 0, 83, 120
3, 298260, Note_on_c, 0, 61, 126
3, 298260, Note_on_c, 0, 64, 126
3, 298260, Note_on_c, 0, 67, 126
3, 298620, Note_on_c, 0, 67, 0
3, 298620, Note_on_c, 0, 64, 0
3, 298620, Note_on_c, 0, 83, 0
3, 298620, Note_on_c, 0, 71, 0
3, 298620, Note_on_c, 0, 76, 0
3, 298620, Note_on_c, 0, 79, 0
3, 298620, Note_on_c, 0, 61, 0
3, 298620, Note_on_c, 0, 71, 115
3, 298620, Note_on_c, 0, 74, 115
3, 298620, Note_on_c, 0, 79, 115
3, 298620, Note_on_c, 0, 83, 115
3, 298620, Note_on_c, 0, 55, 118
3, 298620, Note_on_c, 0, 62, 118
3, 298620, Note_on_c, 0, 67, 118
3, 298800, Note_on_c, 0, 67, 0
3, 298800, Note_on_c, 0, 62, 0
3, 298800, Note_on_c, 0, 83, 0
3, 298800, Note_on_c, 0, 71, 0
3, 298800, Note_on_c, 0, 74, 0
3, 298800, Note_on_c, 0, 79, 0
3, 298800, Note_on_c, 0, 55, 0
3, 298800, Note_on_c, 0, 71, 110
3, 298800, Note_on_c, 0, 76, 110
3, 298800, Note_on_c, 0, 79, 110
3, 298800, Note_on_c, 0, 83, 110
3, 298800, Note_on_c, 0, 61, 112
3, 298800, Note_on_c, 0, 64, 112
3, 298800, Note_on_c, 0, 67, 112
3, 298980, Note_on_c, 0, 67, 0
3, 298980, Note_on_c, 0, 64, 0
3, 298980, Note_on_c, 0, 83, 0
3, 298980, Note_on_c, 0, 71, 0
3, 298980, Note_on_c, 0, 76, 0
3, 298980, Note_on_c, 0, 79, 0
3, 298980, Note_on_c, 0, 61, 0
3, 298980, Note_on_c, 0, 71, 111
3, 298980, Note_on_c, 0, 74, 111
3, 298980, Note_on_c, 0, 79, 111
3, 298980, Note_on_c, 0, 83, 111
3, 298980, Note_on_c, 0, 55, 115
3, 298980, Note_on_c, 0, 62, 115
3, 298980, Note_on_c, 0, 67, 115
3, 299160, Note_on_c, 0, 67, 0
3, 299160, Note_on_c, 0, 62, 0
3, 299160, Note_on_c, 0, 83, 0
3, 299160, Note_on_c, 0, 71, 0
3, 299160, Note_on_c, 0, 74, 0
3, 299160, Note_on_c, 0, 79, 0
3, 299160, Note_on_c, 0, 55, 0
3, 299160, Note_on_c, 0, 59, 82
3, 299160, Note_on_c, 0, 64, 82
3, 299160, Note_on_c, 0, 67, 82
3, 299160, Note_on_c, 0, 71, 82
3, 299160, Note_on_c, 0, 49, 95
3, 299160, Note_on_c, 0, 52, 95
3, 299160, Note_on_c, 0, 55, 95
3, 299340, Note_on_c, 0, 55, 0
3, 299340, Note_on_c, 0, 52, 0
3, 299340, Note_on_c, 0, 71, 0
3, 299340, Note_on_c, 0, 59, 0
3, 299340, Note_on_c, 0, 64, 0
3, 299340, Note_on_c, 0, 67, 0
3, 299340, Note_on_c, 0, 49, 0
3, 299340, Note_on_c, 0, 59, 112
3, 299340, Note_on_c, 0, 64, 112
3, 299340, Note_on_c, 0, 67, 112
3, 299340, Note_on_c, 0, 71, 112
3, 299340, Note_on_c, 0, 49, 108
3, 299340, Note_on_c, 0, 52, 108
3, 299340, Note_on_c, 0, 55, 108
3, 299520, Note_on_c, 0, 55, 0
3, 299520, Note_on_c, 0, 52, 0
3, 299520, Note_on_c, 0, 71, 0
3, 299520, Note_on_c, 0, 59, 0
3, 299520, Note_on_c, 0, 64, 0
3, 299520, Note_on_c, 0, 67, 0
3, 299520, Note_on_c, 0, 49, 0
3, 299520, Note_on_c, 0, 55, 102
3, 299520, Note_on_c, 0, 59, 102
3, 299520, Note_on_c, 0, 64, 102
3, 299520, Note_on_c, 0, 67, 102
3, 299520, Note_on_c, 0, 43, 110
3, 299520, Note_on_c, 0, 50, 110
3, 299520, Note_on_c, 0, 55, 110
3, 299700, Note_on_c, 0, 55, 0
3, 299700, Note_on_c, 0, 43, 0
3, 299700, Note_on_c, 0, 55, 0
3, 299700, Note_on_c, 0, 50, 0
3, 299700, Note_on_c, 0, 59, 0
3, 299700, Note_on_c, 0, 64, 0
3, 299700, Note_on_c, 0, 67, 0
3, 299700, Note_on_c, 0, 59, 116
3, 299700, Note_on_c, 0, 64, 116
3, 299700, Note_on_c, 0, 67, 116
3, 299700, Note_on_c, 0, 71, 116
3, 299700, Note_on_c, 0, 49, 112
3, 299700, Note_on_c, 0, 52, 112
3, 299700, Note_on_c, 0, 55, 112
3, 300060, Note_on_c, 0, 55, 0
3, 300060, Note_on_c, 0, 52, 0
3, 300060, Note_on_c, 0, 71, 0
3, 300060, Note_on_c, 0, 59, 0
3, 300060, Note_on_c, 0, 64, 0
3, 300060, Note_on_c, 0, 67, 0
3, 300060, Note_on_c, 0, 49, 0
3, 300060, Note_on_c, 0, 59, 115
3, 300060, Note_on_c, 0, 62, 115
3, 300060, Note_on_c, 0, 67, 115
3, 300060, Note_on_c, 0, 71, 115
3, 300060, Note_on_c, 0, 43, 113
3, 300060, Note_on_c, 0, 50, 113
3, 300060, Note_on_c, 0, 55, 113
3, 300240, Note_on_c, 0, 55, 0
3, 300240, Note_on_c, 0, 43, 0
3, 300240, Note_on_c, 0, 59, 0
3, 300240, Note_on_c, 0, 50, 0
3, 300240, Note_on_c, 0, 62, 0
3, 300240, Note_on_c, 0, 67, 0
3, 300240, Note_on_c, 0, 71, 0
3, 300240, Note_on_c, 0, 59, 114
3, 300240, Note_on_c, 0, 64, 114
3, 300240, Note_on_c, 0, 67, 114
3, 300240, Note_on_c, 0, 71, 114
3, 300240, Note_on_c, 0, 49, 115
3, 300240, Note_on_c, 0, 52, 115
3, 300240, Note_on_c, 0, 55, 115
3, 300420, Note_on_c, 0, 55, 0
3, 300420, Note_on_c, 0, 52, 0
3, 300420, Note_on_c, 0, 71, 0
3, 300420, Note_on_c, 0, 59, 0
3, 300420, Note_on_c, 0, 64, 0
3, 300420, Note_on_c, 0, 67, 0
3, 300420, Note_on_c, 0, 49, 0
3, 300420, Note_on_c, 0, 59, 113
3, 300420, Note_on_c, 0, 62, 113
3, 300420, Note_on_c, 0, 67, 113
3, 300420, Note_on_c, 0, 71, 113
3, 300420, Note_on_c, 0, 43, 118
3, 300420, Note_on_c, 0, 50, 118
3, 300420, Note_on_c, 0, 55, 118
3, 300600, Note_on_c, 0, 55, 0
3, 300600, Note_on_c, 0, 43, 0
3, 300600, Note_on_c, 0, 59, 0
3, 300600, Note_on_c, 0, 50, 0
3, 300600, Note_on_c, 0, 62, 0
3, 300600, Note_on_c, 0, 67, 0
3, 300600, Note_on_c, 0, 71, 0
3, 300600, Note_on_c, 0, 52, 94
3, 300600, Note_on_c, 0, 55, 94
3, 300600, Note_on_c, 0, 59, 94
3, 300600, Note_on_c, 0, 37, 96
3, 300600, Note_on_c, 0, 43, 96
3, 300780, Note_on_c, 0, 37, 0
3, 300780, Note_on_c, 0, 59, 0
3, 300780, Note_on_c, 0, 55, 0
3, 300780, Note_on_c, 0, 43, 0
3, 300780, Note_on_c, 0, 52, 0
3, 300780, Note_on_c, 0, 52, 109
3, 300780, Note_on_c, 0, 55, 109
3, 300780, Note_on_c, 0, 59, 109
3, 300780, Note_on_c, 0, 37, 111
3, 300780, Note_on_c, 0, 43, 111
3, 300960, Note_on_c, 0, 37, 0
3, 300960, Note_on_c, 0, 59, 0
3, 300960, Note_on_c, 0, 55, 0
3, 300960, Note_on_c, 0, 43, 0
3, 300960, Note_on_c, 0, 52, 0
3, 300960, Note_on_c, 0, 50, 123
3, 300960, Note_on_c, 0, 55, 123
3, 300960, Note_on_c, 0, 59, 123
3, 300960, Note_on_c, 0, 62, 123
3, 300960, Note_on_c, 0, 31, 114
3, 300960, Note_on_c, 0, 38, 114
3, 300960, Note_on_c, 0, 43, 114
3, 301140, Note_on_c, 0, 38, 0
3, 301140, Note_on_c, 0, 59, 0
3, 301140, Note_on_c, 0, 62, 0
3, 301140, Note_on_c, 0, 50, 0
3, 301140, Note_on_c, 0, 55, 0
3, 301140, Note_on_c, 0, 43, 0
3, 301140, Note_on_c, 0, 31, 0
3, 301140, Note_on_c, 0, 52, 116
3, 301140, Note_on_c, 0, 55, 116
3, 301140, Note_on_c, 0, 59, 116
3, 301140, Note_on_c, 0, 37, 111
3, 301140, Note_on_c, 0, 43, 111
3, 301500, Note_on_c, 0, 37, 0
3, 301500, Note_on_c, 0, 59, 0
3, 301500, Note_on_c, 0, 55, 0
3, 301500, Note_on_c, 0, 43, 0
3, 301500, Note_on_c, 0, 52, 0
3, 301500, Note_on_c, 0, 52, 124
3, 301500, Note_on_c, 0, 55, 124
3, 301500, Note_on_c, 0, 59, 124
3, 301500, Note_on_c, 0, 64, 124
3, 301500, Note_on_c, 0, 37, 113
3, 301500, Note_on_c, 0, 43, 113
3, 301680, Note_on_c, 0, 37, 0
3, 301680, Note_on_c, 0, 59, 0
3, 301680, Note_on_c, 0, 52, 0
3, 301680, Note_on_c, 0, 55, 0
3, 301680, Note_on_c, 0, 43, 0
3, 301680, Note_on_c, 0, 64, 0
3, 301680, Note_on_c, 0, 50, 106
3, 301680, Note_on_c, 0, 55, 106
3, 301680, Note_on_c, 0, 59, 106
3, 301680, Note_on_c, 0, 62, 106
3, 301680, Note_on_c, 0, 31, 111
3, 301680, Note_on_c, 0, 38, 111
3, 301680, Note_on_c, 0, 43, 111
3, 301860, Note_on_c, 0, 38, 0
3, 301860, Note_on_c, 0, 59, 0
3, 301860, Note_on_c, 0, 62, 0
3, 301860, Note_on_c, 0, 50, 0
3, 301860, Note_on_c, 0, 55, 0
3, 301860, Note_on_c, 0, 43, 0
3, 301860, Note_on_c, 0, 31, 0
3, 301860, Note_on_c, 0, 52, 106
3, 301860, Note_on_c, 0, 55, 106
3, 301860, Note_on_c, 0, 59, 106
3, 301860, Note_on_c, 0, 37, 113
3, 301860, Note_on_c, 0, 43, 113
3, 302220, Note_on_c, 0, 37, 0
3, 302220, Note_on_c, 0, 59, 0
3, 302220, Note_on_c, 0, 55, 0
3, 302220, Note_on_c, 0, 43, 0
3, 302220, Note_on_c, 0, 52, 0
3, 302220, Note_on_c, 0, 52, 125
3, 302220, Note_on_c, 0, 55, 125
3, 302220, Note_on_c, 0, 59, 125
3, 302220, Note_on_c, 0, 64, 125
3, 302220, Note_on_c, 0, 37, 110
3, 302220, Note_on_c, 0, 43, 110
3, 302400, Note_on_c, 0, 37, 0
3, 302400, Note_on_c, 0, 59, 0
3, 302400, Note_on_c, 0, 52, 0
3, 302400, Note_on_c, 0, 55, 0
3, 302400, Note_on_c, 0, 43, 0
3, 302400, Note_on_c, 0, 64, 0
3, 302400, Note_on_c, 0, 50, 120
3, 302400, Note_on_c, 0, 55, 120
3, 302400, Note_on_c, 0, 59, 120
3, 302400, Note_on_c, 0, 62, 120
3, 302400, Note_on_c, 0, 31, 123
3, 302400, Note_on_c, 0, 38, 123
3, 302400, Note_on_c, 0, 43, 123
3, 302717, Note_on_c, 0, 38, 0
3, 302717, Note_on_c, 0, 59, 0
3, 302717, Note_on_c, 0, 62, 0
3, 302717, Note_on_c, 0, 50, 0
3, 302717, Note_on_c, 0, 55, 0
3, 302717, Note_on_c, 0, 43, 0
3, 302717, Note_on_c, 0, 31, 0
3, 302760, Note_on_c, 0, 43, 115
3, 302760, Note_on_c, 0, 47, 115
3, 302760, Note_on_c, 0, 55, 115
3, 302760, Note_on_c, 0, 31, 116
3, 302760, Note_on_c, 0, 38, 116
3, 303077, Note_on_c, 0, 38, 0
3, 303077, Note_on_c, 0, 43, 0
3, 303077, Note_on_c, 0, 47, 0
3, 303077, Note_on_c, 0, 55, 0
3, 303077, Note_on_c, 0, 31, 0
3, 303120, Note_on_c, 0, 55, 127
3, 303120, Note_on_c, 0, 59, 127
3, 303120, Note_on_c, 0, 67, 127
3, 303120, Note_on_c, 0, 43, 127
3, 303120, Note_on_c, 0, 50, 127
3, 303437, Note_on_c, 0, 50, 0
3, 303437, Note_on_c, 0, 55, 0
3, 303437, Note_on_c, 0, 59, 0
3, 303437, Note_on_c, 0, 43, 0
3, 303437, Note_on_c, 0, 67, 0
3, 303480, Note_on_c, 0, 67, 127
3, 303480, Note_on_c, 0, 71, 127
3, 303480, Note_on_c, 0, 79, 127
3, 303480, Note_on_c, 0, 55, 127
3, 303480, Note_on_c, 0, 62, 127
3, 303797, Note_on_c, 0, 62, 0
3, 303797, Note_on_c, 0, 67, 0
3, 303797, Note_on_c, 0, 71, 0
3, 303797, Note_on_c, 0, 79, 0
3, 303797, Note_on_c, 0, 55, 0
3, 303840, Note_on_c, 0, 79, 127
3, 303840, Note_on_c, 0, 83, 127
3, 303840, Note_on_c, 0, 91, 127
3, 303840, Note_on_c, 0, 67, 127
3, 303840, Note_on_c, 0, 74, 127
3, 304157, Note_on_c, 0, 74, 0
3, 304157, Note_on_c, 0, 79, 0
3, 304157, Note_on_c, 0, 83, 0
3, 304157, Note_on_c, 0, 91, 0
3, 304157, Note_on_c, 0, 67, 0
3, 304560, Note_on_c, 0, 67, 106
3, 304560, Note_on_c, 0, 71, 106
3, 304560, Note_on_c, 0, 74, 106
3, 304560, Note_on_c, 0, 79, 106
3, 304560, Note_on_c, 0, 50, 97
3, 304560, Note_on_c, 0, 55, 97
3, 304560, Note_on_c, 0, 59, 97
3, 304560, Note_on_c, 0, 62, 97
3, 305280, Note_on_c, 0, 62, 0
3, 305280, Note_on_c, 0, 74, 0
3, 305280, Note_on_c, 0, 59, 0
3, 305280, Note_on_c, 0, 79, 0
3, 305280, Note_on_c, 0, 67, 0
3, 305280, Note_on_c, 0, 71, 0
3, 305280, Note_on_c, 0, 55, 0
3, 305280, Note_on_c, 0, 50, 0
3, 305280, Note_on_c, 0, 55, 82
3, 305280, Note_on_c, 0, 67, 82
3, 305280, Note_on_c, 0, 31, 97
3, 305280, Note_on_c, 0, 43, 97
3, 306720, Note_on_c, 0, 31, 0
3, 306720, Note_on_c, 0, 67, 0
3, 306720, Note_on_c, 0, 43, 0
3, 306720, Note_on_c, 0, 55, 0
3, 306722, Note_on_c, 0, 43, 0
3, 306722, End_track
0, 0, End_of_file
