0, 0, Header, 1, 3, 360
1, 0, Start_track
1, 0, Title_t, "untitled"
1, 0, Time_signature, 6, 3, 12, 8
1, 0, Key_signature, 1, "major"
1, 0, Tempo, 750000
1, 85230, Tempo, 5000000
1, 85320, Tempo, 750000
1, 85320, End_track
2, 0, Start_track
2, 0, Title_t, "Piano"
2, 0, Program_c, 0, 0
2, 0, Control_c, 0, 7, 105
2, 0, Control_c, 0, 10, 80
2, 0, Control_c, 0, 91, 60
2, 0, Control_c, 0, 121, 0
2, 0, Control_c, 0, 121, 0
2, 0, Control_c, 0, 91, 60
2, 0, Control_c, 0, 10, 51
2, 0, Control_c, 0, 7, 100
2, 2160, Note_on_c, 0, 79, 73
2, 2160, Note_on_c, 0, 67, 73
2, 2520, Note_on_c, 0, 67, 0
2, 2520, Note_on_c, 0, 79, 0
2, 2520, Note_on_c, 0, 78, 76
2, 2520, Note_on_c, 0, 66, 82
2, 2880, Note_on_c, 0, 66, 0
2, 2880, Note_on_c, 0, 78, 0
2, 2880, Note_on_c, 0, 76, 77
2, 2880, Note_on_c, 0, 64, 72
2, 3240, Note_on_c, 0, 64, 0
2, 3240, Note_on_c, 0, 76, 0
2, 3240, Note_on_c, 0, 74, 76
2, 3240, Note_on_c, 0, 62, 69
2, 3600, Note_on_c, 0, 62, 0
2, 3600, Note_on_c, 0, 74, 0
2, 3600, Note_on_c, 0, 76, 84
2, 3600, Note_on_c, 0, 64, 82
2, 3960, Note_on_c, 0, 64, 0
2, 3960, Note_on_c, 0, 76, 0
2, 3960, Note_on_c, 0, 78, 82
2, 3960, Note_on_c, 0, 66, 86
2, 4320, Note_on_c, 0, 66, 0
2, 4320, Note_on_c, 0, 78, 0
2, 4320, Note_on_c, 0, 79, 87
2, 4320, Note_on_c, 0, 67, 83
2, 4680, Note_on_c, 0, 67, 0
2, 4680, Note_on_c, 0, 79, 0
2, 4680, Note_on_c, 0, 78, 77
2, 4680, Note_on_c, 0, 66, 82
2, 5040, Note_on_c, 0, 66, 0
2, 5040, Note_on_c, 0, 78, 0
2, 5040, Note_on_c, 0, 76, 76
2, 5040, Note_on_c, 0, 64, 75
2, 5400, Note_on_c, 0, 64, 0
2, 5400, Note_on_c, 0, 76, 0
2, 5400, Note_on_c, 0, 74, 77
2, 5400, Note_on_c, 0, 64, 61
2, 5400, Note_on_c, 0, 69, 61
2, 5444, Note_on_c, 0, 69, 0
2, 5444, Note_on_c, 0, 64, 0
2, 5490, Note_on_c, 0, 64, 55
2, 5490, Note_on_c, 0, 69, 55
2, 5534, Note_on_c, 0, 69, 0
2, 5534, Note_on_c, 0, 64, 0
2, 5580, Note_on_c, 0, 64, 52
2, 5580, Note_on_c, 0, 69, 52
2, 5624, Note_on_c, 0, 69, 0
2, 5624, Note_on_c, 0, 64, 0
2, 5670, Note_on_c, 0, 64, 56
2, 5670, Note_on_c, 0, 69, 56
2, 5714, Note_on_c, 0, 69, 0
2, 5714, Note_on_c, 0, 64, 0
2, 5760, Note_on_c, 0, 74, 0
2, 5760, Note_on_c, 0, 72, 74
2, 5760, Note_on_c, 0, 64, 53
2, 5760, Note_on_c, 0, 69, 53
2, 5804, Note_on_c, 0, 69, 0
2, 5804, Note_on_c, 0, 64, 0
2, 5850, Note_on_c, 0, 64, 58
2, 5850, Note_on_c, 0, 69, 58
2, 5894, Note_on_c, 0, 69, 0
2, 5894, Note_on_c, 0, 64, 0
2, 5940, Note_on_c, 0, 64, 57
2, 5940, Note_on_c, 0, 69, 57
2, 5984, Note_on_c, 0, 69, 0
2, 5984, Note_on_c, 0, 64, 0
2, 6030, Note_on_c, 0, 64, 57
2, 6030, Note_on_c, 0, 69, 57
2, 6074, Note_on_c, 0, 69, 0
2, 6074, Note_on_c, 0, 64, 0
2, 6120, Note_on_c, 0, 64, 59
2, 6120, Note_on_c, 0, 69, 59
2, 6164, Note_on_c, 0, 69, 0
2, 6164, Note_on_c, 0, 64, 0
2, 6210, Note_on_c, 0, 64, 57
2, 6210, Note_on_c, 0, 69, 57
2, 6254, Note_on_c, 0, 69, 0
2, 6254, Note_on_c, 0, 64, 0
2, 6300, Note_on_c, 0, 64, 57
2, 6300, Note_on_c, 0, 69, 57
2, 6344, Note_on_c, 0, 69, 0
2, 6344, Note_on_c, 0, 64, 0
2, 6390, Note_on_c, 0, 64, 57
2, 6390, Note_on_c, 0, 69, 57
2, 6434, Note_on_c, 0, 69, 0
2, 6434, Note_on_c, 0, 64, 0
2, 6480, Note_on_c, 0, 72, 0
2, 6480, Note_on_c, 0, 71, 76
2, 6480, Note_on_c, 0, 60, 50
2, 6480, Note_on_c, 0, 66, 50
2, 6524, Note_on_c, 0, 66, 0
2, 6524, Note_on_c, 0, 60, 0
2, 6570, Note_on_c, 0, 60, 51
2, 6570, Note_on_c, 0, 66, 51
2, 6614, Note_on_c, 0, 66, 0
2, 6614, Note_on_c, 0, 60, 0
2, 6660, Note_on_c, 0, 60, 54
2, 6660, Note_on_c, 0, 66, 54
2, 6704, Note_on_c, 0, 66, 0
2, 6704, Note_on_c, 0, 60, 0
2, 6750, Note_on_c, 0, 60, 53
2, 6750, Note_on_c, 0, 66, 53
2, 6794, Note_on_c, 0, 66, 0
2, 6794, Note_on_c, 0, 60, 0
2, 6840, Note_on_c, 0, 71, 0
2, 6840, Note_on_c, 0, 69, 78
2, 6840, Note_on_c, 0, 60, 53
2, 6840, Note_on_c, 0, 66, 53
2, 6884, Note_on_c, 0, 66, 0
2, 6884, Note_on_c, 0, 60, 0
2, 6930, Note_on_c, 0, 60, 56
2, 6930, Note_on_c, 0, 66, 56
2, 6974, Note_on_c, 0, 66, 0
2, 6974, Note_on_c, 0, 60, 0
2, 7020, Note_on_c, 0, 60, 55
2, 7020, Note_on_c, 0, 66, 55
2, 7064, Note_on_c, 0, 66, 0
2, 7064, Note_on_c, 0, 60, 0
2, 7110, Note_on_c, 0, 60, 53
2, 7110, Note_on_c, 0, 66, 53
2, 7154, Note_on_c, 0, 66, 0
2, 7154, Note_on_c, 0, 60, 0
2, 7200, Note_on_c, 0, 69, 0
2, 7200, Note_on_c, 0, 68, 75
2, 7200, Note_on_c, 0, 60, 53
2, 7200, Note_on_c, 0, 66, 53
2, 7244, Note_on_c, 0, 66, 0
2, 7244, Note_on_c, 0, 60, 0
2, 7290, Note_on_c, 0, 60, 59
2, 7290, Note_on_c, 0, 66, 59
2, 7334, Note_on_c, 0, 66, 0
2, 7334, Note_on_c, 0, 60, 0
2, 7380, Note_on_c, 0, 60, 57
2, 7380, Note_on_c, 0, 66, 57
2, 7424, Note_on_c, 0, 66, 0
2, 7424, Note_on_c, 0, 60, 0
2, 7470, Note_on_c, 0, 60, 54
2, 7470, Note_on_c, 0, 66, 54
2, 7514, Note_on_c, 0, 66, 0
2, 7514, Note_on_c, 0, 60, 0
2, 7560, Note_on_c, 0, 68, 0
2, 7560, Note_on_c, 0, 69, 79
2, 7560, Note_on_c, 0, 60, 56
2, 7560, Note_on_c, 0, 66, 56
2, 7604, Note_on_c, 0, 66, 0
2, 7604, Note_on_c, 0, 60, 0
2, 7650, Note_on_c, 0, 60, 49
2, 7650, Note_on_c, 0, 66, 49
2, 7694, Note_on_c, 0, 66, 0
2, 7694, Note_on_c, 0, 60, 0
2, 7740, Note_on_c, 0, 60, 58
2, 7740, Note_on_c, 0, 66, 58
2, 7784, Note_on_c, 0, 66, 0
2, 7784, Note_on_c, 0, 60, 0
2, 7830, Note_on_c, 0, 60, 55
2, 7830, Note_on_c, 0, 66, 55
2, 7874, Note_on_c, 0, 66, 0
2, 7874, Note_on_c, 0, 60, 0
2, 7920, Note_on_c, 0, 69, 0
2, 7920, Note_on_c, 0, 71, 87
2, 7920, Note_on_c, 0, 60, 56
2, 7920, Note_on_c, 0, 66, 56
2, 7964, Note_on_c, 0, 66, 0
2, 7964, Note_on_c, 0, 60, 0
2, 8010, Note_on_c, 0, 60, 54
2, 8010, Note_on_c, 0, 66, 54
2, 8054, Note_on_c, 0, 66, 0
2, 8054, Note_on_c, 0, 60, 0
2, 8100, Note_on_c, 0, 60, 57
2, 8100, Note_on_c, 0, 66, 57
2, 8144, Note_on_c, 0, 66, 0
2, 8144, Note_on_c, 0, 60, 0
2, 8190, Note_on_c, 0, 66, 54
2, 8234, Note_on_c, 0, 66, 0
2, 8280, Note_on_c, 0, 71, 0
2, 8280, Note_on_c, 0, 72, 86
2, 8280, Note_on_c, 0, 66, 59
2, 8280, Note_on_c, 0, 69, 59
2, 8324, Note_on_c, 0, 69, 0
2, 8324, Note_on_c, 0, 66, 0
2, 8370, Note_on_c, 0, 66, 54
2, 8370, Note_on_c, 0, 69, 54
2, 8414, Note_on_c, 0, 69, 0
2, 8414, Note_on_c, 0, 66, 0
2, 8460, Note_on_c, 0, 66, 57
2, 8460, Note_on_c, 0, 69, 57
2, 8504, Note_on_c, 0, 69, 0
2, 8504, Note_on_c, 0, 66, 0
2, 8550, Note_on_c, 0, 66, 57
2, 8550, Note_on_c, 0, 69, 57
2, 8594, Note_on_c, 0, 69, 0
2, 8594, Note_on_c, 0, 66, 0
2, 8640, Note_on_c, 0, 72, 0
2, 8640, Note_on_c, 0, 76, 87
2, 8640, Note_on_c, 0, 66, 59
2, 8640, Note_on_c, 0, 69, 59
2, 8640, Note_on_c, 0, 72, 59
2, 8684, Note_on_c, 0, 72, 0
2, 8684, Note_on_c, 0, 69, 0
2, 8684, Note_on_c, 0, 66, 0
2, 8730, Note_on_c, 0, 66, 57
2, 8730, Note_on_c, 0, 69, 57
2, 8730, Note_on_c, 0, 72, 57
2, 8774, Note_on_c, 0, 72, 0
2, 8774, Note_on_c, 0, 69, 0
2, 8774, Note_on_c, 0, 66, 0
2, 8820, Note_on_c, 0, 66, 51
2, 8820, Note_on_c, 0, 69, 51
2, 8820, Note_on_c, 0, 72, 51
2, 8864, Note_on_c, 0, 72, 0
2, 8864, Note_on_c, 0, 69, 0
2, 8864, Note_on_c, 0, 66, 0
2, 8910, Note_on_c, 0, 66, 57
2, 8910, Note_on_c, 0, 69, 57
2, 8910, Note_on_c, 0, 72, 57
2, 8954, Note_on_c, 0, 72, 0
2, 8954, Note_on_c, 0, 69, 0
2, 8954, Note_on_c, 0, 66, 0
2, 9000, Note_on_c, 0, 76, 0
2, 9000, Note_on_c, 0, 74, 77
2, 9000, Note_on_c, 0, 66, 59
2, 9000, Note_on_c, 0, 69, 59
2, 9000, Note_on_c, 0, 72, 59
2, 9044, Note_on_c, 0, 72, 0
2, 9044, Note_on_c, 0, 69, 0
2, 9044, Note_on_c, 0, 66, 0
2, 9090, Note_on_c, 0, 66, 55
2, 9090, Note_on_c, 0, 69, 55
2, 9090, Note_on_c, 0, 72, 55
2, 9134, Note_on_c, 0, 72, 0
2, 9134, Note_on_c, 0, 69, 0
2, 9134, Note_on_c, 0, 66, 0
2, 9180, Note_on_c, 0, 66, 57
2, 9180, Note_on_c, 0, 69, 57
2, 9180, Note_on_c, 0, 72, 57
2, 9224, Note_on_c, 0, 72, 0
2, 9224, Note_on_c, 0, 69, 0
2, 9224, Note_on_c, 0, 66, 0
2, 9270, Note_on_c, 0, 66, 53
2, 9270, Note_on_c, 0, 69, 53
2, 9270, Note_on_c, 0, 72, 53
2, 9314, Note_on_c, 0, 72, 0
2, 9314, Note_on_c, 0, 69, 0
2, 9314, Note_on_c, 0, 66, 0
2, 9360, Note_on_c, 0, 74, 0
2, 9360, Note_on_c, 0, 73, 83
2, 9360, Note_on_c, 0, 66, 55
2, 9360, Note_on_c, 0, 69, 55
2, 9360, Note_on_c, 0, 72, 55
2, 9404, Note_on_c, 0, 72, 0
2, 9404, Note_on_c, 0, 69, 0
2, 9404, Note_on_c, 0, 66, 0
2, 9450, Note_on_c, 0, 66, 55
2, 9450, Note_on_c, 0, 69, 55
2, 9450, Note_on_c, 0, 72, 55
2, 9494, Note_on_c, 0, 72, 0
2, 9494, Note_on_c, 0, 69, 0
2, 9494, Note_on_c, 0, 66, 0
2, 9540, Note_on_c, 0, 66, 54
2, 9540, Note_on_c, 0, 69, 54
2, 9540, Note_on_c, 0, 72, 54
2, 9584, Note_on_c, 0, 72, 0
2, 9584, Note_on_c, 0, 69, 0
2, 9584, Note_on_c, 0, 66, 0
2, 9630, Note_on_c, 0, 66, 58
2, 9630, Note_on_c, 0, 69, 58
2, 9630, Note_on_c, 0, 72, 58
2, 9674, Note_on_c, 0, 72, 0
2, 9674, Note_on_c, 0, 69, 0
2, 9674, Note_on_c, 0, 66, 0
2, 9720, Note_on_c, 0, 73, 0
2, 9720, Note_on_c, 0, 74, 82
2, 9720, Note_on_c, 0, 66, 57
2, 9720, Note_on_c, 0, 69, 57
2, 9720, Note_on_c, 0, 72, 57
2, 9764, Note_on_c, 0, 72, 0
2, 9764, Note_on_c, 0, 69, 0
2, 9764, Note_on_c, 0, 66, 0
2, 9810, Note_on_c, 0, 66, 52
2, 9810, Note_on_c, 0, 69, 52
2, 9810, Note_on_c, 0, 72, 52
2, 9854, Note_on_c, 0, 72, 0
2, 9854, Note_on_c, 0, 69, 0
2, 9854, Note_on_c, 0, 66, 0
2, 9900, Note_on_c, 0, 66, 54
2, 9900, Note_on_c, 0, 69, 54
2, 9900, Note_on_c, 0, 72, 54
2, 9944, Note_on_c, 0, 72, 0
2, 9944, Note_on_c, 0, 69, 0
2, 9944, Note_on_c, 0, 66, 0
2, 9990, Note_on_c, 0, 66, 54
2, 9990, Note_on_c, 0, 69, 54
2, 9990, Note_on_c, 0, 72, 54
2, 10034, Note_on_c, 0, 72, 0
2, 10034, Note_on_c, 0, 69, 0
2, 10034, Note_on_c, 0, 66, 0
2, 10080, Note_on_c, 0, 66, 54
2, 10080, Note_on_c, 0, 69, 54
2, 10080, Note_on_c, 0, 72, 54
2, 10124, Note_on_c, 0, 72, 0
2, 10124, Note_on_c, 0, 69, 0
2, 10124, Note_on_c, 0, 66, 0
2, 10170, Note_on_c, 0, 66, 56
2, 10170, Note_on_c, 0, 69, 56
2, 10170, Note_on_c, 0, 72, 56
2, 10214, Note_on_c, 0, 72, 0
2, 10214, Note_on_c, 0, 69, 0
2, 10214, Note_on_c, 0, 66, 0
2, 10260, Note_on_c, 0, 74, 0
2, 10260, Note_on_c, 0, 74, 76
2, 10260, Note_on_c, 0, 66, 58
2, 10260, Note_on_c, 0, 69, 58
2, 10260, Note_on_c, 0, 72, 58
2, 10304, Note_on_c, 0, 72, 0
2, 10304, Note_on_c, 0, 69, 0
2, 10304, Note_on_c, 0, 66, 0
2, 10350, Note_on_c, 0, 66, 54
2, 10350, Note_on_c, 0, 69, 54
2, 10350, Note_on_c, 0, 72, 54
2, 10394, Note_on_c, 0, 72, 0
2, 10394, Note_on_c, 0, 69, 0
2, 10394, Note_on_c, 0, 66, 0
2, 10440, Note_on_c, 0, 74, 0
2, 10440, Note_on_c, 0, 76, 85
2, 10440, Note_on_c, 0, 66, 56
2, 10440, Note_on_c, 0, 69, 56
2, 10440, Note_on_c, 0, 72, 56
2, 10484, Note_on_c, 0, 72, 0
2, 10484, Note_on_c, 0, 69, 0
2, 10484, Note_on_c, 0, 66, 0
2, 10530, Note_on_c, 0, 66, 51
2, 10530, Note_on_c, 0, 69, 51
2, 10530, Note_on_c, 0, 72, 51
2, 10574, Note_on_c, 0, 72, 0
2, 10574, Note_on_c, 0, 69, 0
2, 10574, Note_on_c, 0, 66, 0
2, 10620, Note_on_c, 0, 76, 0
2, 10620, Note_on_c, 0, 74, 73
2, 10620, Note_on_c, 0, 66, 59
2, 10620, Note_on_c, 0, 69, 59
2, 10620, Note_on_c, 0, 72, 59
2, 10664, Note_on_c, 0, 72, 0
2, 10664, Note_on_c, 0, 69, 0
2, 10664, Note_on_c, 0, 66, 0
2, 10710, Note_on_c, 0, 66, 55
2, 10710, Note_on_c, 0, 69, 55
2, 10710, Note_on_c, 0, 72, 55
2, 10754, Note_on_c, 0, 72, 0
2, 10754, Note_on_c, 0, 69, 0
2, 10754, Note_on_c, 0, 66, 0
2, 10800, Note_on_c, 0, 74, 0
2, 10800, Note_on_c, 0, 79, 91
2, 10800, Note_on_c, 0, 67, 47
2, 11160, Note_on_c, 0, 67, 0
2, 11160, Note_on_c, 0, 79, 0
2, 11160, Note_on_c, 0, 78, 74
2, 11160, Note_on_c, 0, 66, 50
2, 11520, Note_on_c, 0, 66, 0
2, 11520, Note_on_c, 0, 78, 0
2, 11520, Note_on_c, 0, 76, 74
2, 11520, Note_on_c, 0, 64, 54
2, 11880, Note_on_c, 0, 64, 0
2, 11880, Note_on_c, 0, 76, 0
2, 11880, Note_on_c, 0, 74, 75
2, 11880, Note_on_c, 0, 62, 51
2, 12240, Note_on_c, 0, 62, 0
2, 12240, Note_on_c, 0, 74, 0
2, 12240, Note_on_c, 0, 76, 83
2, 12240, Note_on_c, 0, 64, 63
2, 12600, Note_on_c, 0, 64, 0
2, 12600, Note_on_c, 0, 76, 0
2, 12600, Note_on_c, 0, 78, 84
2, 12600, Note_on_c, 0, 66, 63
2, 12960, Note_on_c, 0, 66, 0
2, 12960, Note_on_c, 0, 78, 0
2, 12960, Note_on_c, 0, 79, 85
2, 12960, Note_on_c, 0, 67, 55
2, 13320, Note_on_c, 0, 67, 0
2, 13320, Note_on_c, 0, 79, 0
2, 13320, Note_on_c, 0, 78, 77
2, 13320, Note_on_c, 0, 66, 52
2, 13680, Note_on_c, 0, 66, 0
2, 13680, Note_on_c, 0, 78, 0
2, 13680, Note_on_c, 0, 76, 76
2, 13680, Note_on_c, 0, 64, 53
2, 14040, Note_on_c, 0, 64, 0
2, 14040, Note_on_c, 0, 76, 0
2, 14040, Note_on_c, 0, 74, 80
2, 14040, Note_on_c, 0, 62, 56
2, 14400, Note_on_c, 0, 62, 0
2, 14400, Note_on_c, 0, 74, 0
2, 14400, Note_on_c, 0, 73, 80
2, 14400, Note_on_c, 0, 61, 54
2, 15120, Note_on_c, 0, 61, 0
2, 15120, Note_on_c, 0, 73, 0
2, 15120, Note_on_c, 0, 74, 81
2, 15120, Note_on_c, 0, 62, 55
2, 15480, Note_on_c, 0, 62, 0
2, 15480, Note_on_c, 0, 74, 0
2, 15480, Note_on_c, 0, 76, 89
2, 15480, Note_on_c, 0, 64, 64
2, 15840, Note_on_c, 0, 64, 0
2, 15840, Note_on_c, 0, 76, 0
2, 15840, Note_on_c, 0, 78, 98
2, 15840, Note_on_c, 0, 66, 72
2, 16200, Note_on_c, 0, 66, 0
2, 16200, Note_on_c, 0, 78, 0
2, 16200, Note_on_c, 0, 81, 106
2, 16200, Note_on_c, 0, 69, 81
2, 16560, Note_on_c, 0, 69, 0
2, 16560, Note_on_c, 0, 81, 0
2, 16560, Note_on_c, 0, 79, 102
2, 16560, Note_on_c, 0, 67, 76
2, 16920, Note_on_c, 0, 67, 0
2, 16920, Note_on_c, 0, 79, 0
2, 16920, Note_on_c, 0, 78, 104
2, 16920, Note_on_c, 0, 66, 78
2, 17280, Note_on_c, 0, 66, 0
2, 17280, Note_on_c, 0, 78, 0
2, 17280, Note_on_c, 0, 78, 105
2, 17280, Note_on_c, 0, 66, 82
2, 17640, Note_on_c, 0, 66, 0
2, 17640, Note_on_c, 0, 78, 0
2, 17640, Note_on_c, 0, 76, 99
2, 17640, Note_on_c, 0, 64, 79
2, 18000, Note_on_c, 0, 64, 0
2, 18000, Note_on_c, 0, 76, 0
2, 18000, Note_on_c, 0, 78, 112
2, 18000, Note_on_c, 0, 66, 86
2, 18360, Note_on_c, 0, 66, 0
2, 18360, Note_on_c, 0, 78, 0
2, 18360, Note_on_c, 0, 74, 94
2, 18360, Note_on_c, 0, 62, 76
2, 19080, Note_on_c, 0, 62, 0
2, 19080, Note_on_c, 0, 74, 0
2, 19440, Note_on_c, 0, 84, 72
2, 19440, Note_on_c, 0, 88, 72
2, 19440, Note_on_c, 0, 72, 66
2, 19440, Note_on_c, 0, 76, 66
2, 19800, Note_on_c, 0, 76, 0
2, 19800, Note_on_c, 0, 84, 0
2, 19800, Note_on_c, 0, 88, 0
2, 19800, Note_on_c, 0, 72, 0
2, 19800, Note_on_c, 0, 83, 69
2, 19800, Note_on_c, 0, 86, 69
2, 19800, Note_on_c, 0, 71, 71
2, 19800, Note_on_c, 0, 74, 71
2, 20160, Note_on_c, 0, 74, 0
2, 20160, Note_on_c, 0, 83, 0
2, 20160, Note_on_c, 0, 86, 0
2, 20160, Note_on_c, 0, 71, 0
2, 20160, Note_on_c, 0, 80, 70
2, 20160, Note_on_c, 0, 83, 70
2, 20160, Note_on_c, 0, 68, 71
2, 20160, Note_on_c, 0, 71, 71
2, 20520, Note_on_c, 0, 71, 0
2, 20520, Note_on_c, 0, 80, 0
2, 20520, Note_on_c, 0, 83, 0
2, 20520, Note_on_c, 0, 68, 0
2, 20520, Note_on_c, 0, 83, 84
2, 20520, Note_on_c, 0, 86, 84
2, 20520, Note_on_c, 0, 71, 79
2, 20520, Note_on_c, 0, 74, 79
2, 20880, Note_on_c, 0, 74, 0
2, 20880, Note_on_c, 0, 83, 0
2, 20880, Note_on_c, 0, 86, 0
2, 20880, Note_on_c, 0, 71, 0
2, 20880, Note_on_c, 0, 81, 73
2, 20880, Note_on_c, 0, 84, 73
2, 20880, Note_on_c, 0, 69, 73
2, 20880, Note_on_c, 0, 72, 73
2, 21240, Note_on_c, 0, 72, 0
2, 21240, Note_on_c, 0, 81, 0
2, 21240, Note_on_c, 0, 84, 0
2, 21240, Note_on_c, 0, 69, 0
2, 21240, Note_on_c, 0, 78, 69
2, 21240, Note_on_c, 0, 81, 69
2, 21240, Note_on_c, 0, 66, 73
2, 21240, Note_on_c, 0, 69, 73
2, 21600, Note_on_c, 0, 69, 0
2, 21600, Note_on_c, 0, 78, 0
2, 21600, Note_on_c, 0, 81, 0
2, 21600, Note_on_c, 0, 66, 0
2, 21600, Note_on_c, 0, 84, 86
2, 21600, Note_on_c, 0, 88, 86
2, 21600, Note_on_c, 0, 72, 85
2, 21600, Note_on_c, 0, 76, 85
2, 21960, Note_on_c, 0, 76, 0
2, 21960, Note_on_c, 0, 84, 0
2, 21960, Note_on_c, 0, 88, 0
2, 21960, Note_on_c, 0, 72, 0
2, 21960, Note_on_c, 0, 83, 75
2, 21960, Note_on_c, 0, 86, 75
2, 21960, Note_on_c, 0, 71, 73
2, 21960, Note_on_c, 0, 74, 73
2, 22320, Note_on_c, 0, 74, 0
2, 22320, Note_on_c, 0, 83, 0
2, 22320, Note_on_c, 0, 86, 0
2, 22320, Note_on_c, 0, 71, 0
2, 22320, Note_on_c, 0, 80, 74
2, 22320, Note_on_c, 0, 83, 74
2, 22320, Note_on_c, 0, 68, 71
2, 22320, Note_on_c, 0, 71, 71
2, 22680, Note_on_c, 0, 71, 0
2, 22680, Note_on_c, 0, 80, 0
2, 22680, Note_on_c, 0, 83, 0
2, 22680, Note_on_c, 0, 68, 0
2, 22680, Note_on_c, 0, 83, 76
2, 22680, Note_on_c, 0, 86, 76
2, 22680, Note_on_c, 0, 71, 76
2, 22680, Note_on_c, 0, 74, 76
2, 23040, Note_on_c, 0, 74, 0
2, 23040, Note_on_c, 0, 83, 0
2, 23040, Note_on_c, 0, 86, 0
2, 23040, Note_on_c, 0, 71, 0
2, 23040, Note_on_c, 0, 81, 84
2, 23040, Note_on_c, 0, 84, 84
2, 23040, Note_on_c, 0, 69, 84
2, 23040, Note_on_c, 0, 72, 84
2, 23760, Note_on_c, 0, 72, 0
2, 23760, Note_on_c, 0, 81, 0
2, 23760, Note_on_c, 0, 84, 0
2, 23760, Note_on_c, 0, 69, 0
2, 23760, Note_on_c, 0, 84, 101
2, 23760, Note_on_c, 0, 88, 101
2, 23760, Note_on_c, 0, 72, 101
2, 23760, Note_on_c, 0, 76, 101
2, 24120, Note_on_c, 0, 76, 0
2, 24120, Note_on_c, 0, 84, 0
2, 24120, Note_on_c, 0, 88, 0
2, 24120, Note_on_c, 0, 72, 0
2, 24120, Note_on_c, 0, 83, 91
2, 24120, Note_on_c, 0, 86, 91
2, 24120, Note_on_c, 0, 71, 95
2, 24120, Note_on_c, 0, 74, 95
2, 24480, Note_on_c, 0, 74, 0
2, 24480, Note_on_c, 0, 83, 0
2, 24480, Note_on_c, 0, 86, 0
2, 24480, Note_on_c, 0, 71, 0
2, 24480, Note_on_c, 0, 80, 93
2, 24480, Note_on_c, 0, 83, 93
2, 24480, Note_on_c, 0, 68, 89
2, 24480, Note_on_c, 0, 71, 89
2, 24840, Note_on_c, 0, 71, 0
2, 24840, Note_on_c, 0, 80, 0
2, 24840, Note_on_c, 0, 83, 0
2, 24840, Note_on_c, 0, 68, 0
2, 24840, Note_on_c, 0, 83, 110
2, 24840, Note_on_c, 0, 86, 110
2, 24840, Note_on_c, 0, 71, 108
2, 24840, Note_on_c, 0, 74, 108
2, 25200, Note_on_c, 0, 74, 0
2, 25200, Note_on_c, 0, 83, 0
2, 25200, Note_on_c, 0, 86, 0
2, 25200, Note_on_c, 0, 71, 0
2, 25200, Note_on_c, 0, 81, 95
2, 25200, Note_on_c, 0, 84, 95
2, 25200, Note_on_c, 0, 69, 92
2, 25200, Note_on_c, 0, 72, 92
2, 25560, Note_on_c, 0, 72, 0
2, 25560, Note_on_c, 0, 81, 0
2, 25560, Note_on_c, 0, 84, 0
2, 25560, Note_on_c, 0, 69, 0
2, 25560, Note_on_c, 0, 78, 96
2, 25560, Note_on_c, 0, 81, 96
2, 25560, Note_on_c, 0, 66, 96
2, 25560, Note_on_c, 0, 69, 96
2, 25920, Note_on_c, 0, 69, 0
2, 25920, Note_on_c, 0, 78, 0
2, 25920, Note_on_c, 0, 81, 0
2, 25920, Note_on_c, 0, 66, 0
2, 25920, Note_on_c, 0, 84, 116
2, 25920, Note_on_c, 0, 88, 116
2, 25920, Note_on_c, 0, 72, 118
2, 25920, Note_on_c, 0, 76, 118
2, 26280, Note_on_c, 0, 76, 0
2, 26280, Note_on_c, 0, 84, 0
2, 26280, Note_on_c, 0, 88, 0
2, 26280, Note_on_c, 0, 72, 0
2, 26280, Note_on_c, 0, 83, 98
2, 26280, Note_on_c, 0, 86, 98
2, 26280, Note_on_c, 0, 71, 96
2, 26280, Note_on_c, 0, 74, 96
2, 26640, Note_on_c, 0, 74, 0
2, 26640, Note_on_c, 0, 83, 0
2, 26640, Note_on_c, 0, 86, 0
2, 26640, Note_on_c, 0, 71, 0
2, 26640, Note_on_c, 0, 81, 93
2, 26640, Note_on_c, 0, 84, 93
2, 26640, Note_on_c, 0, 69, 92
2, 26640, Note_on_c, 0, 72, 92
2, 26820, Note_on_c, 0, 72, 0
2, 26820, Note_on_c, 0, 81, 0
2, 26820, Note_on_c, 0, 84, 0
2, 26820, Note_on_c, 0, 69, 0
2, 26820, Note_on_c, 0, 79, 97
2, 26820, Note_on_c, 0, 83, 97
2, 26820, Note_on_c, 0, 67, 97
2, 26820, Note_on_c, 0, 71, 97
2, 27000, Note_on_c, 0, 71, 0
2, 27000, Note_on_c, 0, 79, 0
2, 27000, Note_on_c, 0, 83, 0
2, 27000, Note_on_c, 0, 67, 0
2, 27000, Note_on_c, 0, 78, 101
2, 27000, Note_on_c, 0, 81, 101
2, 27000, Note_on_c, 0, 66, 101
2, 27000, Note_on_c, 0, 69, 101
2, 27180, Note_on_c, 0, 69, 0
2, 27180, Note_on_c, 0, 78, 0
2, 27180, Note_on_c, 0, 81, 0
2, 27180, Note_on_c, 0, 66, 0
2, 27180, Note_on_c, 0, 76, 97
2, 27180, Note_on_c, 0, 79, 97
2, 27180, Note_on_c, 0, 64, 97
2, 27180, Note_on_c, 0, 67, 97
2, 27360, Note_on_c, 0, 67, 0
2, 27360, Note_on_c, 0, 76, 0
2, 27360, Note_on_c, 0, 79, 0
2, 27360, Note_on_c, 0, 64, 0
2, 27360, Note_on_c, 0, 78, 93
2, 27360, Note_on_c, 0, 81, 93
2, 27360, Note_on_c, 0, 66, 93
2, 27360, Note_on_c, 0, 69, 93
2, 27540, Note_on_c, 0, 69, 0
2, 27540, Note_on_c, 0, 78, 0
2, 27540, Note_on_c, 0, 81, 0
2, 27540, Note_on_c, 0, 66, 0
2, 27540, Note_on_c, 0, 81, 88
2, 27540, Note_on_c, 0, 84, 88
2, 27540, Note_on_c, 0, 66, 88
2, 27540, Note_on_c, 0, 69, 88
2, 27540, Note_on_c, 0, 72, 88
2, 27720, Note_on_c, 0, 72, 0
2, 27720, Note_on_c, 0, 66, 0
2, 27720, Note_on_c, 0, 81, 0
2, 27720, Note_on_c, 0, 84, 0
2, 27720, Note_on_c, 0, 69, 0
2, 27720, Note_on_c, 0, 79, 84
2, 27720, Note_on_c, 0, 83, 84
2, 27720, Note_on_c, 0, 67, 84
2, 27720, Note_on_c, 0, 71, 84
2, 27900, Note_on_c, 0, 71, 0
2, 27900, Note_on_c, 0, 79, 0
2, 27900, Note_on_c, 0, 83, 0
2, 27900, Note_on_c, 0, 67, 0
2, 27900, Note_on_c, 0, 78, 80
2, 27900, Note_on_c, 0, 81, 80
2, 27900, Note_on_c, 0, 66, 80
2, 27900, Note_on_c, 0, 69, 80
2, 28080, Note_on_c, 0, 69, 0
2, 28080, Note_on_c, 0, 78, 0
2, 28080, Note_on_c, 0, 81, 0
2, 28080, Note_on_c, 0, 66, 0
2, 28080, Note_on_c, 0, 79, 76
2, 28080, Note_on_c, 0, 67, 76
2, 28440, Note_on_c, 0, 67, 0
2, 28440, Note_on_c, 0, 79, 0
2, 28440, Note_on_c, 0, 78, 76
2, 28440, Note_on_c, 0, 66, 67
2, 28800, Note_on_c, 0, 66, 0
2, 28800, Note_on_c, 0, 78, 0
2, 28800, Note_on_c, 0, 76, 72
2, 28800, Note_on_c, 0, 64, 70
2, 29160, Note_on_c, 0, 64, 0
2, 29160, Note_on_c, 0, 76, 0
2, 29160, Note_on_c, 0, 74, 71
2, 29160, Note_on_c, 0, 62, 69
2, 29520, Note_on_c, 0, 62, 0
2, 29520, Note_on_c, 0, 74, 0
2, 29520, Note_on_c, 0, 76, 78
2, 29520, Note_on_c, 0, 64, 84
2, 29880, Note_on_c, 0, 64, 0
2, 29880, Note_on_c, 0, 76, 0
2, 29880, Note_on_c, 0, 78, 81
2, 29880, Note_on_c, 0, 66, 79
2, 30240, Note_on_c, 0, 66, 0
2, 30240, Note_on_c, 0, 78, 0
2, 30240, Note_on_c, 0, 79, 79
2, 30240, Note_on_c, 0, 67, 80
2, 30600, Note_on_c, 0, 67, 0
2, 30600, Note_on_c, 0, 79, 0
2, 30600, Note_on_c, 0, 78, 73
2, 30600, Note_on_c, 0, 66, 69
2, 30960, Note_on_c, 0, 66, 0
2, 30960, Note_on_c, 0, 78, 0
2, 30960, Note_on_c, 0, 76, 69
2, 30960, Note_on_c, 0, 64, 69
2, 31320, Note_on_c, 0, 64, 0
2, 31320, Note_on_c, 0, 76, 0
2, 31320, Note_on_c, 0, 74, 71
2, 31320, Note_on_c, 0, 64, 66
2, 31320, Note_on_c, 0, 69, 66
2, 31364, Note_on_c, 0, 69, 0
2, 31364, Note_on_c, 0, 64, 0
2, 31410, Note_on_c, 0, 64, 61
2, 31410, Note_on_c, 0, 69, 61
2, 31454, Note_on_c, 0, 69, 0
2, 31454, Note_on_c, 0, 64, 0
2, 31500, Note_on_c, 0, 64, 54
2, 31500, Note_on_c, 0, 69, 54
2, 31544, Note_on_c, 0, 69, 0
2, 31544, Note_on_c, 0, 64, 0
2, 31590, Note_on_c, 0, 64, 55
2, 31590, Note_on_c, 0, 69, 55
2, 31634, Note_on_c, 0, 69, 0
2, 31634, Note_on_c, 0, 64, 0
2, 31680, Note_on_c, 0, 74, 0
2, 31680, Note_on_c, 0, 72, 72
2, 31680, Note_on_c, 0, 64, 58
2, 31680, Note_on_c, 0, 69, 58
2, 31724, Note_on_c, 0, 69, 0
2, 31724, Note_on_c, 0, 64, 0
2, 31770, Note_on_c, 0, 64, 55
2, 31770, Note_on_c, 0, 69, 55
2, 31814, Note_on_c, 0, 69, 0
2, 31814, Note_on_c, 0, 64, 0
2, 31860, Note_on_c, 0, 64, 59
2, 31860, Note_on_c, 0, 69, 59
2, 31904, Note_on_c, 0, 69, 0
2, 31904, Note_on_c, 0, 64, 0
2, 31950, Note_on_c, 0, 64, 54
2, 31950, Note_on_c, 0, 69, 54
2, 31994, Note_on_c, 0, 69, 0
2, 31994, Note_on_c, 0, 64, 0
2, 32040, Note_on_c, 0, 64, 55
2, 32040, Note_on_c, 0, 69, 55
2, 32084, Note_on_c, 0, 69, 0
2, 32084, Note_on_c, 0, 64, 0
2, 32130, Note_on_c, 0, 64, 58
2, 32130, Note_on_c, 0, 69, 58
2, 32174, Note_on_c, 0, 69, 0
2, 32174, Note_on_c, 0, 64, 0
2, 32220, Note_on_c, 0, 64, 55
2, 32220, Note_on_c, 0, 69, 55
2, 32264, Note_on_c, 0, 69, 0
2, 32264, Note_on_c, 0, 64, 0
2, 32310, Note_on_c, 0, 64, 55
2, 32310, Note_on_c, 0, 69, 55
2, 32354, Note_on_c, 0, 69, 0
2, 32354, Note_on_c, 0, 64, 0
2, 32400, Note_on_c, 0, 72, 0
2, 32400, Note_on_c, 0, 71, 76
2, 32400, Note_on_c, 0, 60, 49
2, 32400, Note_on_c, 0, 66, 49
2, 32444, Note_on_c, 0, 66, 0
2, 32444, Note_on_c, 0, 60, 0
2, 32490, Note_on_c, 0, 60, 53
2, 32490, Note_on_c, 0, 66, 53
2, 32534, Note_on_c, 0, 66, 0
2, 32534, Note_on_c, 0, 60, 0
2, 32580, Note_on_c, 0, 60, 57
2, 32580, Note_on_c, 0, 66, 57
2, 32624, Note_on_c, 0, 66, 0
2, 32624, Note_on_c, 0, 60, 0
2, 32670, Note_on_c, 0, 60, 54
2, 32670, Note_on_c, 0, 66, 54
2, 32714, Note_on_c, 0, 66, 0
2, 32714, Note_on_c, 0, 60, 0
2, 32760, Note_on_c, 0, 71, 0
2, 32760, Note_on_c, 0, 69, 69
2, 32760, Note_on_c, 0, 60, 53
2, 32760, Note_on_c, 0, 66, 53
2, 32804, Note_on_c, 0, 66, 0
2, 32804, Note_on_c, 0, 60, 0
2, 32850, Note_on_c, 0, 60, 51
2, 32850, Note_on_c, 0, 66, 51
2, 32894, Note_on_c, 0, 66, 0
2, 32894, Note_on_c, 0, 60, 0
2, 32940, Note_on_c, 0, 60, 58
2, 32940, Note_on_c, 0, 66, 58
2, 32984, Note_on_c, 0, 66, 0
2, 32984, Note_on_c, 0, 60, 0
2, 33030, Note_on_c, 0, 60, 54
2, 33030, Note_on_c, 0, 66, 54
2, 33074, Note_on_c, 0, 66, 0
2, 33074, Note_on_c, 0, 60, 0
2, 33120, Note_on_c, 0, 69, 0
2, 33120, Note_on_c, 0, 68, 67
2, 33120, Note_on_c, 0, 60, 53
2, 33120, Note_on_c, 0, 66, 53
2, 33164, Note_on_c, 0, 66, 0
2, 33164, Note_on_c, 0, 60, 0
2, 33210, Note_on_c, 0, 60, 56
2, 33210, Note_on_c, 0, 66, 56
2, 33254, Note_on_c, 0, 66, 0
2, 33254, Note_on_c, 0, 60, 0
2, 33300, Note_on_c, 0, 60, 54
2, 33300, Note_on_c, 0, 66, 54
2, 33344, Note_on_c, 0, 66, 0
2, 33344, Note_on_c, 0, 60, 0
2, 33390, Note_on_c, 0, 60, 57
2, 33390, Note_on_c, 0, 66, 57
2, 33434, Note_on_c, 0, 66, 0
2, 33434, Note_on_c, 0, 60, 0
2, 33480, Note_on_c, 0, 68, 0
2, 33480, Note_on_c, 0, 69, 80
2, 33480, Note_on_c, 0, 60, 56
2, 33480, Note_on_c, 0, 66, 56
2, 33524, Note_on_c, 0, 66, 0
2, 33524, Note_on_c, 0, 60, 0
2, 33570, Note_on_c, 0, 60, 53
2, 33570, Note_on_c, 0, 66, 53
2, 33614, Note_on_c, 0, 66, 0
2, 33614, Note_on_c, 0, 60, 0
2, 33660, Note_on_c, 0, 60, 53
2, 33660, Note_on_c, 0, 66, 53
2, 33704, Note_on_c, 0, 66, 0
2, 33704, Note_on_c, 0, 60, 0
2, 33750, Note_on_c, 0, 60, 55
2, 33750, Note_on_c, 0, 66, 55
2, 33794, Note_on_c, 0, 66, 0
2, 33794, Note_on_c, 0, 60, 0
2, 33840, Note_on_c, 0, 69, 0
2, 33840, Note_on_c, 0, 71, 80
2, 33840, Note_on_c, 0, 60, 55
2, 33840, Note_on_c, 0, 66, 55
2, 33884, Note_on_c, 0, 66, 0
2, 33884, Note_on_c, 0, 60, 0
2, 33930, Note_on_c, 0, 60, 54
2, 33930, Note_on_c, 0, 66, 54
2, 33974, Note_on_c, 0, 66, 0
2, 33974, Note_on_c, 0, 60, 0
2, 34020, Note_on_c, 0, 60, 59
2, 34020, Note_on_c, 0, 66, 59
2, 34064, Note_on_c, 0, 66, 0
2, 34064, Note_on_c, 0, 60, 0
2, 34110, Note_on_c, 0, 66, 53
2, 34154, Note_on_c, 0, 66, 0
2, 34200, Note_on_c, 0, 71, 0
2, 34200, Note_on_c, 0, 72, 81
2, 34200, Note_on_c, 0, 66, 62
2, 34200, Note_on_c, 0, 69, 62
2, 34244, Note_on_c, 0, 69, 0
2, 34244, Note_on_c, 0, 66, 0
2, 34290, Note_on_c, 0, 66, 56
2, 34290, Note_on_c, 0, 69, 56
2, 34334, Note_on_c, 0, 69, 0
2, 34334, Note_on_c, 0, 66, 0
2, 34380, Note_on_c, 0, 66, 58
2, 34380, Note_on_c, 0, 69, 58
2, 34424, Note_on_c, 0, 69, 0
2, 34424, Note_on_c, 0, 66, 0
2, 34470, Note_on_c, 0, 66, 52
2, 34470, Note_on_c, 0, 69, 52
2, 34514, Note_on_c, 0, 69, 0
2, 34514, Note_on_c, 0, 66, 0
2, 34560, Note_on_c, 0, 72, 0
2, 34560, Note_on_c, 0, 76, 89
2, 34560, Note_on_c, 0, 66, 62
2, 34560, Note_on_c, 0, 69, 62
2, 34560, Note_on_c, 0, 72, 62
2, 34604, Note_on_c, 0, 72, 0
2, 34604, Note_on_c, 0, 69, 0
2, 34604, Note_on_c, 0, 66, 0
2, 34650, Note_on_c, 0, 66, 62
2, 34650, Note_on_c, 0, 69, 62
2, 34650, Note_on_c, 0, 72, 62
2, 34694, Note_on_c, 0, 72, 0
2, 34694, Note_on_c, 0, 69, 0
2, 34694, Note_on_c, 0, 66, 0
2, 34740, Note_on_c, 0, 66, 54
2, 34740, Note_on_c, 0, 69, 54
2, 34740, Note_on_c, 0, 72, 54
2, 34784, Note_on_c, 0, 72, 0
2, 34784, Note_on_c, 0, 69, 0
2, 34784, Note_on_c, 0, 66, 0
2, 34830, Note_on_c, 0, 66, 58
2, 34830, Note_on_c, 0, 69, 58
2, 34830, Note_on_c, 0, 72, 58
2, 34874, Note_on_c, 0, 72, 0
2, 34874, Note_on_c, 0, 69, 0
2, 34874, Note_on_c, 0, 66, 0
2, 34920, Note_on_c, 0, 76, 0
2, 34920, Note_on_c, 0, 74, 72
2, 34920, Note_on_c, 0, 66, 56
2, 34920, Note_on_c, 0, 69, 56
2, 34920, Note_on_c, 0, 72, 56
2, 34964, Note_on_c, 0, 72, 0
2, 34964, Note_on_c, 0, 69, 0
2, 34964, Note_on_c, 0, 66, 0
2, 35010, Note_on_c, 0, 66, 57
2, 35010, Note_on_c, 0, 69, 57
2, 35010, Note_on_c, 0, 72, 57
2, 35054, Note_on_c, 0, 72, 0
2, 35054, Note_on_c, 0, 69, 0
2, 35054, Note_on_c, 0, 66, 0
2, 35100, Note_on_c, 0, 66, 46
2, 35100, Note_on_c, 0, 69, 46
2, 35100, Note_on_c, 0, 72, 46
2, 35144, Note_on_c, 0, 72, 0
2, 35144, Note_on_c, 0, 69, 0
2, 35144, Note_on_c, 0, 66, 0
2, 35190, Note_on_c, 0, 66, 54
2, 35190, Note_on_c, 0, 69, 54
2, 35190, Note_on_c, 0, 72, 54
2, 35234, Note_on_c, 0, 72, 0
2, 35234, Note_on_c, 0, 69, 0
2, 35234, Note_on_c, 0, 66, 0
2, 35280, Note_on_c, 0, 74, 0
2, 35280, Note_on_c, 0, 73, 69
2, 35280, Note_on_c, 0, 66, 52
2, 35280, Note_on_c, 0, 69, 52
2, 35280, Note_on_c, 0, 72, 52
2, 35324, Note_on_c, 0, 72, 0
2, 35324, Note_on_c, 0, 69, 0
2, 35324, Note_on_c, 0, 66, 0
2, 35370, Note_on_c, 0, 66, 56
2, 35370, Note_on_c, 0, 69, 56
2, 35370, Note_on_c, 0, 72, 56
2, 35414, Note_on_c, 0, 72, 0
2, 35414, Note_on_c, 0, 69, 0
2, 35414, Note_on_c, 0, 66, 0
2, 35460, Note_on_c, 0, 66, 54
2, 35460, Note_on_c, 0, 69, 54
2, 35460, Note_on_c, 0, 72, 54
2, 35504, Note_on_c, 0, 72, 0
2, 35504, Note_on_c, 0, 69, 0
2, 35504, Note_on_c, 0, 66, 0
2, 35550, Note_on_c, 0, 66, 57
2, 35550, Note_on_c, 0, 69, 57
2, 35550, Note_on_c, 0, 72, 57
2, 35594, Note_on_c, 0, 72, 0
2, 35594, Note_on_c, 0, 69, 0
2, 35594, Note_on_c, 0, 66, 0
2, 35640, Note_on_c, 0, 73, 0
2, 35640, Note_on_c, 0, 74, 78
2, 35640, Note_on_c, 0, 66, 54
2, 35640, Note_on_c, 0, 69, 54
2, 35640, Note_on_c, 0, 72, 54
2, 35684, Note_on_c, 0, 72, 0
2, 35684, Note_on_c, 0, 69, 0
2, 35684, Note_on_c, 0, 66, 0
2, 35730, Note_on_c, 0, 66, 52
2, 35730, Note_on_c, 0, 69, 52
2, 35730, Note_on_c, 0, 72, 52
2, 35774, Note_on_c, 0, 72, 0
2, 35774, Note_on_c, 0, 69, 0
2, 35774, Note_on_c, 0, 66, 0
2, 35820, Note_on_c, 0, 66, 56
2, 35820, Note_on_c, 0, 69, 56
2, 35820, Note_on_c, 0, 72, 56
2, 35864, Note_on_c, 0, 72, 0
2, 35864, Note_on_c, 0, 69, 0
2, 35864, Note_on_c, 0, 66, 0
2, 35910, Note_on_c, 0, 66, 56
2, 35910, Note_on_c, 0, 69, 56
2, 35910, Note_on_c, 0, 72, 56
2, 35954, Note_on_c, 0, 72, 0
2, 35954, Note_on_c, 0, 69, 0
2, 35954, Note_on_c, 0, 66, 0
2, 36000, Note_on_c, 0, 66, 53
2, 36000, Note_on_c, 0, 69, 53
2, 36000, Note_on_c, 0, 72, 53
2, 36044, Note_on_c, 0, 72, 0
2, 36044, Note_on_c, 0, 69, 0
2, 36044, Note_on_c, 0, 66, 0
2, 36090, Note_on_c, 0, 66, 56
2, 36090, Note_on_c, 0, 69, 56
2, 36090, Note_on_c, 0, 72, 56
2, 36134, Note_on_c, 0, 72, 0
2, 36134, Note_on_c, 0, 69, 0
2, 36134, Note_on_c, 0, 66, 0
2, 36180, Note_on_c, 0, 74, 0
2, 36180, Note_on_c, 0, 74, 73
2, 36180, Note_on_c, 0, 66, 50
2, 36180, Note_on_c, 0, 69, 50
2, 36180, Note_on_c, 0, 72, 50
2, 36224, Note_on_c, 0, 72, 0
2, 36224, Note_on_c, 0, 69, 0
2, 36224, Note_on_c, 0, 66, 0
2, 36270, Note_on_c, 0, 66, 52
2, 36270, Note_on_c, 0, 69, 52
2, 36270, Note_on_c, 0, 72, 52
2, 36314, Note_on_c, 0, 72, 0
2, 36314, Note_on_c, 0, 69, 0
2, 36314, Note_on_c, 0, 66, 0
2, 36360, Note_on_c, 0, 74, 0
2, 36360, Note_on_c, 0, 76, 80
2, 36360, Note_on_c, 0, 66, 52
2, 36360, Note_on_c, 0, 69, 52
2, 36360, Note_on_c, 0, 72, 52
2, 36404, Note_on_c, 0, 72, 0
2, 36404, Note_on_c, 0, 69, 0
2, 36404, Note_on_c, 0, 66, 0
2, 36450, Note_on_c, 0, 66, 60
2, 36450, Note_on_c, 0, 69, 60
2, 36450, Note_on_c, 0, 72, 60
2, 36494, Note_on_c, 0, 72, 0
2, 36494, Note_on_c, 0, 69, 0
2, 36494, Note_on_c, 0, 66, 0
2, 36540, Note_on_c, 0, 76, 0
2, 36540, Note_on_c, 0, 74, 74
2, 36540, Note_on_c, 0, 66, 58
2, 36540, Note_on_c, 0, 69, 58
2, 36540, Note_on_c, 0, 72, 58
2, 36584, Note_on_c, 0, 72, 0
2, 36584, Note_on_c, 0, 69, 0
2, 36584, Note_on_c, 0, 66, 0
2, 36630, Note_on_c, 0, 66, 55
2, 36630, Note_on_c, 0, 69, 55
2, 36630, Note_on_c, 0, 72, 55
2, 36674, Note_on_c, 0, 72, 0
2, 36674, Note_on_c, 0, 69, 0
2, 36674, Note_on_c, 0, 66, 0
2, 36720, Note_on_c, 0, 74, 0
2, 36720, Note_on_c, 0, 79, 79
2, 36720, Note_on_c, 0, 67, 49
2, 37080, Note_on_c, 0, 67, 0
2, 37080, Note_on_c, 0, 79, 0
2, 37080, Note_on_c, 0, 78, 72
2, 37080, Note_on_c, 0, 66, 51
2, 37440, Note_on_c, 0, 66, 0
2, 37440, Note_on_c, 0, 78, 0
2, 37440, Note_on_c, 0, 76, 69
2, 37440, Note_on_c, 0, 64, 50
2, 37800, Note_on_c, 0, 64, 0
2, 37800, Note_on_c, 0, 76, 0
2, 37800, Note_on_c, 0, 74, 68
2, 37800, Note_on_c, 0, 62, 49
2, 38160, Note_on_c, 0, 62, 0
2, 38160, Note_on_c, 0, 74, 0
2, 38160, Note_on_c, 0, 76, 74
2, 38160, Note_on_c, 0, 64, 53
2, 38520, Note_on_c, 0, 64, 0
2, 38520, Note_on_c, 0, 76, 0
2, 38520, Note_on_c, 0, 78, 82
2, 38520, Note_on_c, 0, 66, 59
2, 38880, Note_on_c, 0, 66, 0
2, 38880, Note_on_c, 0, 78, 0
2, 38880, Note_on_c, 0, 79, 78
2, 38880, Note_on_c, 0, 67, 59
2, 39240, Note_on_c, 0, 67, 0
2, 39240, Note_on_c, 0, 79, 0
2, 39240, Note_on_c, 0, 74, 63
2, 39240, Note_on_c, 0, 62, 51
2, 39600, Note_on_c, 0, 62, 0
2, 39600, Note_on_c, 0, 74, 0
2, 39600, Note_on_c, 0, 71, 70
2, 39600, Note_on_c, 0, 59, 53
2, 39960, Note_on_c, 0, 59, 0
2, 39960, Note_on_c, 0, 71, 0
2, 39960, Note_on_c, 0, 75, 81
2, 39960, Note_on_c, 0, 63, 55
2, 40320, Note_on_c, 0, 63, 0
2, 40320, Note_on_c, 0, 75, 0
2, 40320, Note_on_c, 0, 76, 82
2, 40320, Note_on_c, 0, 64, 61
2, 41040, Note_on_c, 0, 64, 0
2, 41040, Note_on_c, 0, 76, 0
2, 41040, Note_on_c, 0, 76, 76
2, 41040, Note_on_c, 0, 64, 56
2, 41400, Note_on_c, 0, 64, 0
2, 41400, Note_on_c, 0, 76, 0
2, 41400, Note_on_c, 0, 78, 80
2, 41400, Note_on_c, 0, 66, 55
2, 41760, Note_on_c, 0, 66, 0
2, 41760, Note_on_c, 0, 78, 0
2, 41760, Note_on_c, 0, 79, 84
2, 41760, Note_on_c, 0, 67, 55
2, 42120, Note_on_c, 0, 67, 0
2, 42120, Note_on_c, 0, 79, 0
2, 42120, Note_on_c, 0, 67, 88
2, 42120, Note_on_c, 0, 79, 88
2, 42120, Note_on_c, 0, 59, 50
2, 42120, Note_on_c, 0, 62, 50
2, 42164, Note_on_c, 0, 62, 0
2, 42164, Note_on_c, 0, 59, 0
2, 42210, Note_on_c, 0, 59, 56
2, 42210, Note_on_c, 0, 62, 56
2, 42254, Note_on_c, 0, 62, 0
2, 42254, Note_on_c, 0, 59, 0
2, 42300, Note_on_c, 0, 59, 57
2, 42300, Note_on_c, 0, 62, 57
2, 42344, Note_on_c, 0, 62, 0
2, 42344, Note_on_c, 0, 59, 0
2, 42390, Note_on_c, 0, 59, 57
2, 42390, Note_on_c, 0, 62, 57
2, 42434, Note_on_c, 0, 62, 0
2, 42434, Note_on_c, 0, 59, 0
2, 42480, Note_on_c, 0, 79, 0
2, 42480, Note_on_c, 0, 67, 0
2, 42480, Note_on_c, 0, 69, 93
2, 42480, Note_on_c, 0, 81, 93
2, 42480, Note_on_c, 0, 59, 53
2, 42480, Note_on_c, 0, 62, 53
2, 42524, Note_on_c, 0, 62, 0
2, 42524, Note_on_c, 0, 59, 0
2, 42570, Note_on_c, 0, 59, 53
2, 42570, Note_on_c, 0, 62, 53
2, 42614, Note_on_c, 0, 62, 0
2, 42614, Note_on_c, 0, 59, 0
2, 42660, Note_on_c, 0, 59, 57
2, 42660, Note_on_c, 0, 62, 57
2, 42704, Note_on_c, 0, 62, 0
2, 42704, Note_on_c, 0, 59, 0
2, 42750, Note_on_c, 0, 59, 53
2, 42750, Note_on_c, 0, 62, 53
2, 42794, Note_on_c, 0, 62, 0
2, 42794, Note_on_c, 0, 59, 0
2, 42840, Note_on_c, 0, 81, 0
2, 42840, Note_on_c, 0, 69, 0
2, 42840, Note_on_c, 0, 71, 97
2, 42840, Note_on_c, 0, 83, 97
2, 42840, Note_on_c, 0, 62, 61
2, 42840, Note_on_c, 0, 67, 61
2, 42884, Note_on_c, 0, 67, 0
2, 42884, Note_on_c, 0, 62, 0
2, 42930, Note_on_c, 0, 62, 58
2, 42930, Note_on_c, 0, 67, 58
2, 42974, Note_on_c, 0, 67, 0
2, 42974, Note_on_c, 0, 62, 0
2, 43020, Note_on_c, 0, 62, 54
2, 43020, Note_on_c, 0, 67, 54
2, 43064, Note_on_c, 0, 67, 0
2, 43064, Note_on_c, 0, 62, 0
2, 43110, Note_on_c, 0, 62, 52
2, 43110, Note_on_c, 0, 67, 52
2, 43154, Note_on_c, 0, 67, 0
2, 43154, Note_on_c, 0, 62, 0
2, 43200, Note_on_c, 0, 83, 0
2, 43200, Note_on_c, 0, 71, 0
2, 43200, Note_on_c, 0, 72, 101
2, 43200, Note_on_c, 0, 84, 101
2, 43200, Note_on_c, 0, 67, 55
2, 43200, Note_on_c, 0, 69, 55
2, 43244, Note_on_c, 0, 69, 0
2, 43244, Note_on_c, 0, 67, 0
2, 43290, Note_on_c, 0, 67, 59
2, 43290, Note_on_c, 0, 69, 59
2, 43334, Note_on_c, 0, 69, 0
2, 43334, Note_on_c, 0, 67, 0
2, 43380, Note_on_c, 0, 67, 57
2, 43380, Note_on_c, 0, 69, 57
2, 43424, Note_on_c, 0, 69, 0
2, 43424, Note_on_c, 0, 67, 0
2, 43470, Note_on_c, 0, 67, 55
2, 43470, Note_on_c, 0, 69, 55
2, 43514, Note_on_c, 0, 69, 0
2, 43514, Note_on_c, 0, 67, 0
2, 43560, Note_on_c, 0, 84, 0
2, 43560, Note_on_c, 0, 72, 0
2, 43560, Note_on_c, 0, 73, 106
2, 43560, Note_on_c, 0, 85, 106
2, 43560, Note_on_c, 0, 67, 55
2, 43560, Note_on_c, 0, 69, 55
2, 43604, Note_on_c, 0, 69, 0
2, 43604, Note_on_c, 0, 67, 0
2, 43650, Note_on_c, 0, 67, 55
2, 43650, Note_on_c, 0, 69, 55
2, 43694, Note_on_c, 0, 69, 0
2, 43694, Note_on_c, 0, 67, 0
2, 43740, Note_on_c, 0, 66, 55
2, 43740, Note_on_c, 0, 69, 55
2, 43784, Note_on_c, 0, 69, 0
2, 43784, Note_on_c, 0, 66, 0
2, 43830, Note_on_c, 0, 66, 54
2, 43830, Note_on_c, 0, 69, 54
2, 43874, Note_on_c, 0, 69, 0
2, 43874, Note_on_c, 0, 66, 0
2, 43920, Note_on_c, 0, 85, 0
2, 43920, Note_on_c, 0, 73, 0
2, 43920, Note_on_c, 0, 74, 105
2, 43920, Note_on_c, 0, 86, 105
2, 43920, Note_on_c, 0, 66, 57
2, 43920, Note_on_c, 0, 69, 57
2, 43964, Note_on_c, 0, 69, 0
2, 43964, Note_on_c, 0, 66, 0
2, 44010, Note_on_c, 0, 66, 52
2, 44010, Note_on_c, 0, 69, 52
2, 44054, Note_on_c, 0, 69, 0
2, 44054, Note_on_c, 0, 66, 0
2, 44100, Note_on_c, 0, 66, 55
2, 44100, Note_on_c, 0, 69, 55
2, 44144, Note_on_c, 0, 69, 0
2, 44144, Note_on_c, 0, 66, 0
2, 44190, Note_on_c, 0, 66, 57
2, 44190, Note_on_c, 0, 69, 57
2, 44234, Note_on_c, 0, 69, 0
2, 44234, Note_on_c, 0, 66, 0
2, 44280, Note_on_c, 0, 86, 0
2, 44280, Note_on_c, 0, 74, 0
2, 44280, Note_on_c, 0, 79, 87
2, 44280, Note_on_c, 0, 67, 53
2, 44460, Note_on_c, 0, 67, 0
2, 44460, Note_on_c, 0, 79, 0
2, 45360, Note_on_c, 0, 84, 69
2, 45360, Note_on_c, 0, 88, 69
2, 45360, Note_on_c, 0, 72, 70
2, 45360, Note_on_c, 0, 76, 70
2, 45720, Note_on_c, 0, 76, 0
2, 45720, Note_on_c, 0, 84, 0
2, 45720, Note_on_c, 0, 88, 0
2, 45720, Note_on_c, 0, 72, 0
2, 45720, Note_on_c, 0, 83, 68
2, 45720, Note_on_c, 0, 86, 68
2, 45720, Note_on_c, 0, 71, 70
2, 45720, Note_on_c, 0, 74, 70
2, 46080, Note_on_c, 0, 74, 0
2, 46080, Note_on_c, 0, 83, 0
2, 46080, Note_on_c, 0, 86, 0
2, 46080, Note_on_c, 0, 71, 0
2, 46080, Note_on_c, 0, 80, 66
2, 46080, Note_on_c, 0, 83, 66
2, 46080, Note_on_c, 0, 68, 71
2, 46080, Note_on_c, 0, 71, 71
2, 46440, Note_on_c, 0, 71, 0
2, 46440, Note_on_c, 0, 80, 0
2, 46440, Note_on_c, 0, 83, 0
2, 46440, Note_on_c, 0, 68, 0
2, 46440, Note_on_c, 0, 83, 80
2, 46440, Note_on_c, 0, 86, 80
2, 46440, Note_on_c, 0, 71, 87
2, 46440, Note_on_c, 0, 74, 87
2, 46800, Note_on_c, 0, 74, 0
2, 46800, Note_on_c, 0, 83, 0
2, 46800, Note_on_c, 0, 86, 0
2, 46800, Note_on_c, 0, 71, 0
2, 46800, Note_on_c, 0, 81, 69
2, 46800, Note_on_c, 0, 84, 69
2, 46800, Note_on_c, 0, 69, 72
2, 46800, Note_on_c, 0, 72, 72
2, 47160, Note_on_c, 0, 72, 0
2, 47160, Note_on_c, 0, 81, 0
2, 47160, Note_on_c, 0, 84, 0
2, 47160, Note_on_c, 0, 69, 0
2, 47160, Note_on_c, 0, 78, 68
2, 47160, Note_on_c, 0, 81, 68
2, 47160, Note_on_c, 0, 66, 69
2, 47160, Note_on_c, 0, 69, 69
2, 47520, Note_on_c, 0, 69, 0
2, 47520, Note_on_c, 0, 78, 0
2, 47520, Note_on_c, 0, 81, 0
2, 47520, Note_on_c, 0, 66, 0
2, 47520, Note_on_c, 0, 84, 86
2, 47520, Note_on_c, 0, 88, 86
2, 47520, Note_on_c, 0, 72, 91
2, 47520, Note_on_c, 0, 76, 91
2, 47880, Note_on_c, 0, 76, 0
2, 47880, Note_on_c, 0, 84, 0
2, 47880, Note_on_c, 0, 88, 0
2, 47880, Note_on_c, 0, 72, 0
2, 47880, Note_on_c, 0, 83, 71
2, 47880, Note_on_c, 0, 86, 71
2, 47880, Note_on_c, 0, 71, 69
2, 47880, Note_on_c, 0, 74, 69
2, 48240, Note_on_c, 0, 74, 0
2, 48240, Note_on_c, 0, 83, 0
2, 48240, Note_on_c, 0, 86, 0
2, 48240, Note_on_c, 0, 71, 0
2, 48240, Note_on_c, 0, 80, 66
2, 48240, Note_on_c, 0, 83, 66
2, 48240, Note_on_c, 0, 68, 71
2, 48240, Note_on_c, 0, 71, 71
2, 48600, Note_on_c, 0, 71, 0
2, 48600, Note_on_c, 0, 80, 0
2, 48600, Note_on_c, 0, 83, 0
2, 48600, Note_on_c, 0, 68, 0
2, 48600, Note_on_c, 0, 83, 76
2, 48600, Note_on_c, 0, 86, 76
2, 48600, Note_on_c, 0, 71, 76
2, 48600, Note_on_c, 0, 74, 76
2, 48960, Note_on_c, 0, 74, 0
2, 48960, Note_on_c, 0, 83, 0
2, 48960, Note_on_c, 0, 86, 0
2, 48960, Note_on_c, 0, 71, 0
2, 48960, Note_on_c, 0, 81, 84
2, 48960, Note_on_c, 0, 84, 84
2, 48960, Note_on_c, 0, 69, 84
2, 48960, Note_on_c, 0, 72, 84
2, 49680, Note_on_c, 0, 72, 0
2, 49680, Note_on_c, 0, 81, 0
2, 49680, Note_on_c, 0, 84, 0
2, 49680, Note_on_c, 0, 69, 0
2, 49680, Note_on_c, 0, 84, 101
2, 49680, Note_on_c, 0, 88, 101
2, 49680, Note_on_c, 0, 72, 101
2, 49680, Note_on_c, 0, 76, 101
2, 50040, Note_on_c, 0, 76, 0
2, 50040, Note_on_c, 0, 84, 0
2, 50040, Note_on_c, 0, 88, 0
2, 50040, Note_on_c, 0, 72, 0
2, 50040, Note_on_c, 0, 83, 95
2, 50040, Note_on_c, 0, 86, 95
2, 50040, Note_on_c, 0, 71, 91
2, 50040, Note_on_c, 0, 74, 91
2, 50400, Note_on_c, 0, 74, 0
2, 50400, Note_on_c, 0, 83, 0
2, 50400, Note_on_c, 0, 86, 0
2, 50400, Note_on_c, 0, 71, 0
2, 50400, Note_on_c, 0, 80, 89
2, 50400, Note_on_c, 0, 83, 89
2, 50400, Note_on_c, 0, 68, 89
2, 50400, Note_on_c, 0, 71, 89
2, 50760, Note_on_c, 0, 71, 0
2, 50760, Note_on_c, 0, 80, 0
2, 50760, Note_on_c, 0, 83, 0
2, 50760, Note_on_c, 0, 68, 0
2, 50760, Note_on_c, 0, 83, 107
2, 50760, Note_on_c, 0, 86, 107
2, 50760, Note_on_c, 0, 71, 106
2, 50760, Note_on_c, 0, 74, 106
2, 51120, Note_on_c, 0, 74, 0
2, 51120, Note_on_c, 0, 83, 0
2, 51120, Note_on_c, 0, 86, 0
2, 51120, Note_on_c, 0, 71, 0
2, 51120, Note_on_c, 0, 81, 97
2, 51120, Note_on_c, 0, 84, 97
2, 51120, Note_on_c, 0, 69, 94
2, 51120, Note_on_c, 0, 72, 94
2, 51480, Note_on_c, 0, 72, 0
2, 51480, Note_on_c, 0, 81, 0
2, 51480, Note_on_c, 0, 84, 0
2, 51480, Note_on_c, 0, 69, 0
2, 51480, Note_on_c, 0, 78, 94
2, 51480, Note_on_c, 0, 81, 94
2, 51480, Note_on_c, 0, 66, 89
2, 51480, Note_on_c, 0, 69, 89
2, 51840, Note_on_c, 0, 69, 0
2, 51840, Note_on_c, 0, 78, 0
2, 51840, Note_on_c, 0, 81, 0
2, 51840, Note_on_c, 0, 66, 0
2, 51840, Note_on_c, 0, 84, 115
2, 51840, Note_on_c, 0, 88, 115
2, 51840, Note_on_c, 0, 72, 115
2, 51840, Note_on_c, 0, 76, 115
2, 52200, Note_on_c, 0, 76, 0
2, 52200, Note_on_c, 0, 84, 0
2, 52200, Note_on_c, 0, 88, 0
2, 52200, Note_on_c, 0, 72, 0
2, 52200, Note_on_c, 0, 83, 101
2, 52200, Note_on_c, 0, 86, 101
2, 52200, Note_on_c, 0, 71, 96
2, 52200, Note_on_c, 0, 74, 96
2, 52560, Note_on_c, 0, 74, 0
2, 52560, Note_on_c, 0, 83, 0
2, 52560, Note_on_c, 0, 86, 0
2, 52560, Note_on_c, 0, 71, 0
2, 52560, Note_on_c, 0, 81, 94
2, 52560, Note_on_c, 0, 84, 94
2, 52560, Note_on_c, 0, 69, 96
2, 52560, Note_on_c, 0, 72, 96
2, 52740, Note_on_c, 0, 72, 0
2, 52740, Note_on_c, 0, 81, 0
2, 52740, Note_on_c, 0, 84, 0
2, 52740, Note_on_c, 0, 69, 0
2, 52740, Note_on_c, 0, 79, 95
2, 52740, Note_on_c, 0, 83, 95
2, 52740, Note_on_c, 0, 67, 93
2, 52740, Note_on_c, 0, 71, 93
2, 52920, Note_on_c, 0, 71, 0
2, 52920, Note_on_c, 0, 79, 0
2, 52920, Note_on_c, 0, 83, 0
2, 52920, Note_on_c, 0, 67, 0
2, 52920, Note_on_c, 0, 78, 101
2, 52920, Note_on_c, 0, 81, 101
2, 52920, Note_on_c, 0, 66, 101
2, 52920, Note_on_c, 0, 69, 101
2, 53100, Note_on_c, 0, 69, 0
2, 53100, Note_on_c, 0, 78, 0
2, 53100, Note_on_c, 0, 81, 0
2, 53100, Note_on_c, 0, 66, 0
2, 53100, Note_on_c, 0, 76, 97
2, 53100, Note_on_c, 0, 79, 97
2, 53100, Note_on_c, 0, 64, 97
2, 53100, Note_on_c, 0, 67, 97
2, 53280, Note_on_c, 0, 67, 0
2, 53280, Note_on_c, 0, 76, 0
2, 53280, Note_on_c, 0, 79, 0
2, 53280, Note_on_c, 0, 64, 0
2, 53280, Note_on_c, 0, 78, 93
2, 53280, Note_on_c, 0, 81, 93
2, 53280, Note_on_c, 0, 66, 93
2, 53280, Note_on_c, 0, 69, 93
2, 53460, Note_on_c, 0, 69, 0
2, 53460, Note_on_c, 0, 78, 0
2, 53460, Note_on_c, 0, 81, 0
2, 53460, Note_on_c, 0, 66, 0
2, 53460, Note_on_c, 0, 81, 88
2, 53460, Note_on_c, 0, 84, 88
2, 53460, Note_on_c, 0, 66, 88
2, 53460, Note_on_c, 0, 69, 88
2, 53460, Note_on_c, 0, 72, 88
2, 53640, Note_on_c, 0, 72, 0
2, 53640, Note_on_c, 0, 66, 0
2, 53640, Note_on_c, 0, 81, 0
2, 53640, Note_on_c, 0, 84, 0
2, 53640, Note_on_c, 0, 69, 0
2, 53640, Note_on_c, 0, 79, 84
2, 53640, Note_on_c, 0, 83, 84
2, 53640, Note_on_c, 0, 67, 84
2, 53640, Note_on_c, 0, 71, 84
2, 53820, Note_on_c, 0, 71, 0
2, 53820, Note_on_c, 0, 79, 0
2, 53820, Note_on_c, 0, 83, 0
2, 53820, Note_on_c, 0, 67, 0
2, 53820, Note_on_c, 0, 78, 80
2, 53820, Note_on_c, 0, 81, 80
2, 53820, Note_on_c, 0, 66, 80
2, 53820, Note_on_c, 0, 69, 80
2, 54000, Note_on_c, 0, 69, 0
2, 54000, Note_on_c, 0, 78, 0
2, 54000, Note_on_c, 0, 81, 0
2, 54000, Note_on_c, 0, 66, 0
2, 54000, Note_on_c, 0, 79, 76
2, 54000, Note_on_c, 0, 67, 76
2, 54360, Note_on_c, 0, 67, 0
2, 54360, Note_on_c, 0, 79, 0
2, 54360, Note_on_c, 0, 78, 67
2, 54360, Note_on_c, 0, 66, 70
2, 54720, Note_on_c, 0, 66, 0
2, 54720, Note_on_c, 0, 78, 0
2, 54720, Note_on_c, 0, 76, 73
2, 54720, Note_on_c, 0, 64, 68
2, 55080, Note_on_c, 0, 64, 0
2, 55080, Note_on_c, 0, 76, 0
2, 55080, Note_on_c, 0, 74, 68
2, 55080, Note_on_c, 0, 62, 68
2, 55440, Note_on_c, 0, 62, 0
2, 55440, Note_on_c, 0, 74, 0
2, 55440, Note_on_c, 0, 76, 73
2, 55440, Note_on_c, 0, 64, 80
2, 55800, Note_on_c, 0, 64, 0
2, 55800, Note_on_c, 0, 76, 0
2, 55800, Note_on_c, 0, 78, 81
2, 55800, Note_on_c, 0, 66, 79
2, 56160, Note_on_c, 0, 66, 0
2, 56160, Note_on_c, 0, 78, 0
2, 56160, Note_on_c, 0, 79, 81
2, 56160, Note_on_c, 0, 67, 77
2, 56520, Note_on_c, 0, 67, 0
2, 56520, Note_on_c, 0, 79, 0
2, 56520, Note_on_c, 0, 78, 67
2, 56520, Note_on_c, 0, 66, 72
2, 56880, Note_on_c, 0, 66, 0
2, 56880, Note_on_c, 0, 78, 0
2, 56880, Note_on_c, 0, 76, 70
2, 56880, Note_on_c, 0, 64, 71
2, 57240, Note_on_c, 0, 64, 0
2, 57240, Note_on_c, 0, 76, 0
2, 57240, Note_on_c, 0, 74, 69
2, 57240, Note_on_c, 0, 64, 60
2, 57240, Note_on_c, 0, 69, 60
2, 57284, Note_on_c, 0, 69, 0
2, 57284, Note_on_c, 0, 64, 0
2, 57330, Note_on_c, 0, 64, 56
2, 57330, Note_on_c, 0, 69, 56
2, 57374, Note_on_c, 0, 69, 0
2, 57374, Note_on_c, 0, 64, 0
2, 57420, Note_on_c, 0, 64, 56
2, 57420, Note_on_c, 0, 69, 56
2, 57464, Note_on_c, 0, 69, 0
2, 57464, Note_on_c, 0, 64, 0
2, 57510, Note_on_c, 0, 64, 60
2, 57510, Note_on_c, 0, 69, 60
2, 57554, Note_on_c, 0, 69, 0
2, 57554, Note_on_c, 0, 64, 0
2, 57600, Note_on_c, 0, 74, 0
2, 57600, Note_on_c, 0, 72, 70
2, 57600, Note_on_c, 0, 64, 61
2, 57600, Note_on_c, 0, 69, 61
2, 57644, Note_on_c, 0, 69, 0
2, 57644, Note_on_c, 0, 64, 0
2, 57690, Note_on_c, 0, 64, 54
2, 57690, Note_on_c, 0, 69, 54
2, 57734, Note_on_c, 0, 69, 0
2, 57734, Note_on_c, 0, 64, 0
2, 57780, Note_on_c, 0, 64, 54
2, 57780, Note_on_c, 0, 69, 54
2, 57824, Note_on_c, 0, 69, 0
2, 57824, Note_on_c, 0, 64, 0
2, 57870, Note_on_c, 0, 64, 58
2, 57870, Note_on_c, 0, 69, 58
2, 57914, Note_on_c, 0, 69, 0
2, 57914, Note_on_c, 0, 64, 0
2, 57960, Note_on_c, 0, 64, 54
2, 57960, Note_on_c, 0, 69, 54
2, 58004, Note_on_c, 0, 69, 0
2, 58004, Note_on_c, 0, 64, 0
2, 58050, Note_on_c, 0, 64, 51
2, 58050, Note_on_c, 0, 69, 51
2, 58094, Note_on_c, 0, 69, 0
2, 58094, Note_on_c, 0, 64, 0
2, 58140, Note_on_c, 0, 64, 61
2, 58140, Note_on_c, 0, 69, 61
2, 58184, Note_on_c, 0, 69, 0
2, 58184, Note_on_c, 0, 64, 0
2, 58230, Note_on_c, 0, 64, 56
2, 58230, Note_on_c, 0, 69, 56
2, 58274, Note_on_c, 0, 69, 0
2, 58274, Note_on_c, 0, 64, 0
2, 58320, Note_on_c, 0, 72, 0
2, 58320, Note_on_c, 0, 71, 73
2, 58320, Note_on_c, 0, 60, 52
2, 58320, Note_on_c, 0, 66, 52
2, 58364, Note_on_c, 0, 66, 0
2, 58364, Note_on_c, 0, 60, 0
2, 58410, Note_on_c, 0, 60, 56
2, 58410, Note_on_c, 0, 66, 56
2, 58454, Note_on_c, 0, 66, 0
2, 58454, Note_on_c, 0, 60, 0
2, 58500, Note_on_c, 0, 60, 56
2, 58500, Note_on_c, 0, 66, 56
2, 58544, Note_on_c, 0, 66, 0
2, 58544, Note_on_c, 0, 60, 0
2, 58590, Note_on_c, 0, 60, 56
2, 58590, Note_on_c, 0, 66, 56
2, 58634, Note_on_c, 0, 66, 0
2, 58634, Note_on_c, 0, 60, 0
2, 58680, Note_on_c, 0, 71, 0
2, 58680, Note_on_c, 0, 69, 69
2, 58680, Note_on_c, 0, 60, 55
2, 58680, Note_on_c, 0, 66, 55
2, 58724, Note_on_c, 0, 66, 0
2, 58724, Note_on_c, 0, 60, 0
2, 58770, Note_on_c, 0, 60, 54
2, 58770, Note_on_c, 0, 66, 54
2, 58814, Note_on_c, 0, 66, 0
2, 58814, Note_on_c, 0, 60, 0
2, 58860, Note_on_c, 0, 60, 56
2, 58860, Note_on_c, 0, 66, 56
2, 58904, Note_on_c, 0, 66, 0
2, 58904, Note_on_c, 0, 60, 0
2, 58950, Note_on_c, 0, 60, 55
2, 58950, Note_on_c, 0, 66, 55
2, 58994, Note_on_c, 0, 66, 0
2, 58994, Note_on_c, 0, 60, 0
2, 59040, Note_on_c, 0, 69, 0
2, 59040, Note_on_c, 0, 68, 73
2, 59040, Note_on_c, 0, 60, 55
2, 59040, Note_on_c, 0, 66, 55
2, 59084, Note_on_c, 0, 66, 0
2, 59084, Note_on_c, 0, 60, 0
2, 59130, Note_on_c, 0, 60, 58
2, 59130, Note_on_c, 0, 66, 58
2, 59174, Note_on_c, 0, 66, 0
2, 59174, Note_on_c, 0, 60, 0
2, 59220, Note_on_c, 0, 60, 54
2, 59220, Note_on_c, 0, 66, 54
2, 59264, Note_on_c, 0, 66, 0
2, 59264, Note_on_c, 0, 60, 0
2, 59310, Note_on_c, 0, 60, 59
2, 59310, Note_on_c, 0, 66, 59
2, 59354, Note_on_c, 0, 66, 0
2, 59354, Note_on_c, 0, 60, 0
2, 59400, Note_on_c, 0, 68, 0
2, 59400, Note_on_c, 0, 69, 75
2, 59400, Note_on_c, 0, 60, 56
2, 59400, Note_on_c, 0, 66, 56
2, 59444, Note_on_c, 0, 66, 0
2, 59444, Note_on_c, 0, 60, 0
2, 59490, Note_on_c, 0, 60, 56
2, 59490, Note_on_c, 0, 66, 56
2, 59534, Note_on_c, 0, 66, 0
2, 59534, Note_on_c, 0, 60, 0
2, 59580, Note_on_c, 0, 60, 57
2, 59580, Note_on_c, 0, 66, 57
2, 59624, Note_on_c, 0, 66, 0
2, 59624, Note_on_c, 0, 60, 0
2, 59670, Note_on_c, 0, 60, 54
2, 59670, Note_on_c, 0, 66, 54
2, 59714, Note_on_c, 0, 66, 0
2, 59714, Note_on_c, 0, 60, 0
2, 59760, Note_on_c, 0, 69, 0
2, 59760, Note_on_c, 0, 71, 80
2, 59760, Note_on_c, 0, 60, 55
2, 59760, Note_on_c, 0, 66, 55
2, 59804, Note_on_c, 0, 66, 0
2, 59804, Note_on_c, 0, 60, 0
2, 59850, Note_on_c, 0, 60, 57
2, 59850, Note_on_c, 0, 66, 57
2, 59894, Note_on_c, 0, 66, 0
2, 59894, Note_on_c, 0, 60, 0
2, 59940, Note_on_c, 0, 60, 54
2, 59940, Note_on_c, 0, 66, 54
2, 59984, Note_on_c, 0, 66, 0
2, 59984, Note_on_c, 0, 60, 0
2, 60030, Note_on_c, 0, 66, 55
2, 60074, Note_on_c, 0, 66, 0
2, 60120, Note_on_c, 0, 71, 0
2, 60120, Note_on_c, 0, 72, 78
2, 60120, Note_on_c, 0, 66, 57
2, 60120, Note_on_c, 0, 69, 57
2, 60164, Note_on_c, 0, 69, 0
2, 60164, Note_on_c, 0, 66, 0
2, 60210, Note_on_c, 0, 66, 60
2, 60210, Note_on_c, 0, 69, 60
2, 60254, Note_on_c, 0, 69, 0
2, 60254, Note_on_c, 0, 66, 0
2, 60300, Note_on_c, 0, 66, 55
2, 60300, Note_on_c, 0, 69, 55
2, 60344, Note_on_c, 0, 69, 0
2, 60344, Note_on_c, 0, 66, 0
2, 60390, Note_on_c, 0, 66, 55
2, 60390, Note_on_c, 0, 69, 55
2, 60434, Note_on_c, 0, 69, 0
2, 60434, Note_on_c, 0, 66, 0
2, 60480, Note_on_c, 0, 72, 0
2, 60480, Note_on_c, 0, 76, 85
2, 60480, Note_on_c, 0, 66, 58
2, 60480, Note_on_c, 0, 69, 58
2, 60480, Note_on_c, 0, 72, 58
2, 60524, Note_on_c, 0, 72, 0
2, 60524, Note_on_c, 0, 69, 0
2, 60524, Note_on_c, 0, 66, 0
2, 60570, Note_on_c, 0, 66, 57
2, 60570, Note_on_c, 0, 69, 57
2, 60570, Note_on_c, 0, 72, 57
2, 60614, Note_on_c, 0, 72, 0
2, 60614, Note_on_c, 0, 69, 0
2, 60614, Note_on_c, 0, 66, 0
2, 60660, Note_on_c, 0, 66, 53
2, 60660, Note_on_c, 0, 69, 53
2, 60660, Note_on_c, 0, 72, 53
2, 60704, Note_on_c, 0, 72, 0
2, 60704, Note_on_c, 0, 69, 0
2, 60704, Note_on_c, 0, 66, 0
2, 60750, Note_on_c, 0, 66, 59
2, 60750, Note_on_c, 0, 69, 59
2, 60750, Note_on_c, 0, 72, 59
2, 60794, Note_on_c, 0, 72, 0
2, 60794, Note_on_c, 0, 69, 0
2, 60794, Note_on_c, 0, 66, 0
2, 60840, Note_on_c, 0, 76, 0
2, 60840, Note_on_c, 0, 74, 73
2, 60840, Note_on_c, 0, 66, 60
2, 60840, Note_on_c, 0, 69, 60
2, 60840, Note_on_c, 0, 72, 60
2, 60884, Note_on_c, 0, 72, 0
2, 60884, Note_on_c, 0, 69, 0
2, 60884, Note_on_c, 0, 66, 0
2, 60930, Note_on_c, 0, 66, 54
2, 60930, Note_on_c, 0, 69, 54
2, 60930, Note_on_c, 0, 72, 54
2, 60974, Note_on_c, 0, 72, 0
2, 60974, Note_on_c, 0, 69, 0
2, 60974, Note_on_c, 0, 66, 0
2, 61020, Note_on_c, 0, 66, 54
2, 61020, Note_on_c, 0, 69, 54
2, 61020, Note_on_c, 0, 72, 54
2, 61064, Note_on_c, 0, 72, 0
2, 61064, Note_on_c, 0, 69, 0
2, 61064, Note_on_c, 0, 66, 0
2, 61110, Note_on_c, 0, 66, 51
2, 61110, Note_on_c, 0, 69, 51
2, 61110, Note_on_c, 0, 72, 51
2, 61154, Note_on_c, 0, 72, 0
2, 61154, Note_on_c, 0, 69, 0
2, 61154, Note_on_c, 0, 66, 0
2, 61200, Note_on_c, 0, 74, 0
2, 61200, Note_on_c, 0, 73, 77
2, 61200, Note_on_c, 0, 66, 55
2, 61200, Note_on_c, 0, 69, 55
2, 61200, Note_on_c, 0, 72, 55
2, 61244, Note_on_c, 0, 72, 0
2, 61244, Note_on_c, 0, 69, 0
2, 61244, Note_on_c, 0, 66, 0
2, 61290, Note_on_c, 0, 66, 58
2, 61290, Note_on_c, 0, 69, 58
2, 61290, Note_on_c, 0, 72, 58
2, 61334, Note_on_c, 0, 72, 0
2, 61334, Note_on_c, 0, 69, 0
2, 61334, Note_on_c, 0, 66, 0
2, 61380, Note_on_c, 0, 66, 53
2, 61380, Note_on_c, 0, 69, 53
2, 61380, Note_on_c, 0, 72, 53
2, 61424, Note_on_c, 0, 72, 0
2, 61424, Note_on_c, 0, 69, 0
2, 61424, Note_on_c, 0, 66, 0
2, 61470, Note_on_c, 0, 66, 54
2, 61470, Note_on_c, 0, 69, 54
2, 61470, Note_on_c, 0, 72, 54
2, 61514, Note_on_c, 0, 72, 0
2, 61514, Note_on_c, 0, 69, 0
2, 61514, Note_on_c, 0, 66, 0
2, 61560, Note_on_c, 0, 73, 0
2, 61560, Note_on_c, 0, 74, 80
2, 61560, Note_on_c, 0, 66, 58
2, 61560, Note_on_c, 0, 69, 58
2, 61560, Note_on_c, 0, 72, 58
2, 61604, Note_on_c, 0, 72, 0
2, 61604, Note_on_c, 0, 69, 0
2, 61604, Note_on_c, 0, 66, 0
2, 61650, Note_on_c, 0, 66, 61
2, 61650, Note_on_c, 0, 69, 61
2, 61650, Note_on_c, 0, 72, 61
2, 61694, Note_on_c, 0, 72, 0
2, 61694, Note_on_c, 0, 69, 0
2, 61694, Note_on_c, 0, 66, 0
2, 61740, Note_on_c, 0, 66, 57
2, 61740, Note_on_c, 0, 69, 57
2, 61740, Note_on_c, 0, 72, 57
2, 61784, Note_on_c, 0, 72, 0
2, 61784, Note_on_c, 0, 69, 0
2, 61784, Note_on_c, 0, 66, 0
2, 61830, Note_on_c, 0, 66, 54
2, 61830, Note_on_c, 0, 69, 54
2, 61830, Note_on_c, 0, 72, 54
2, 61874, Note_on_c, 0, 72, 0
2, 61874, Note_on_c, 0, 69, 0
2, 61874, Note_on_c, 0, 66, 0
2, 61920, Note_on_c, 0, 66, 56
2, 61920, Note_on_c, 0, 69, 56
2, 61920, Note_on_c, 0, 72, 56
2, 61964, Note_on_c, 0, 72, 0
2, 61964, Note_on_c, 0, 69, 0
2, 61964, Note_on_c, 0, 66, 0
2, 62010, Note_on_c, 0, 66, 55
2, 62010, Note_on_c, 0, 69, 55
2, 62010, Note_on_c, 0, 72, 55
2, 62054, Note_on_c, 0, 72, 0
2, 62054, Note_on_c, 0, 69, 0
2, 62054, Note_on_c, 0, 66, 0
2, 62100, Note_on_c, 0, 74, 0
2, 62100, Note_on_c, 0, 74, 74
2, 62100, Note_on_c, 0, 66, 58
2, 62100, Note_on_c, 0, 69, 58
2, 62100, Note_on_c, 0, 72, 58
2, 62144, Note_on_c, 0, 72, 0
2, 62144, Note_on_c, 0, 69, 0
2, 62144, Note_on_c, 0, 66, 0
2, 62190, Note_on_c, 0, 66, 55
2, 62190, Note_on_c, 0, 69, 55
2, 62190, Note_on_c, 0, 72, 55
2, 62234, Note_on_c, 0, 72, 0
2, 62234, Note_on_c, 0, 69, 0
2, 62234, Note_on_c, 0, 66, 0
2, 62280, Note_on_c, 0, 74, 0
2, 62280, Note_on_c, 0, 76, 84
2, 62280, Note_on_c, 0, 66, 54
2, 62280, Note_on_c, 0, 69, 54
2, 62280, Note_on_c, 0, 72, 54
2, 62324, Note_on_c, 0, 72, 0
2, 62324, Note_on_c, 0, 69, 0
2, 62324, Note_on_c, 0, 66, 0
2, 62370, Note_on_c, 0, 66, 55
2, 62370, Note_on_c, 0, 69, 55
2, 62370, Note_on_c, 0, 72, 55
2, 62414, Note_on_c, 0, 72, 0
2, 62414, Note_on_c, 0, 69, 0
2, 62414, Note_on_c, 0, 66, 0
2, 62460, Note_on_c, 0, 76, 0
2, 62460, Note_on_c, 0, 74, 73
2, 62460, Note_on_c, 0, 66, 56
2, 62460, Note_on_c, 0, 69, 56
2, 62460, Note_on_c, 0, 72, 56
2, 62504, Note_on_c, 0, 72, 0
2, 62504, Note_on_c, 0, 69, 0
2, 62504, Note_on_c, 0, 66, 0
2, 62550, Note_on_c, 0, 66, 55
2, 62550, Note_on_c, 0, 69, 55
2, 62550, Note_on_c, 0, 72, 55
2, 62594, Note_on_c, 0, 72, 0
2, 62594, Note_on_c, 0, 69, 0
2, 62594, Note_on_c, 0, 66, 0
2, 62640, Note_on_c, 0, 74, 0
2, 62640, Note_on_c, 0, 79, 83
2, 62640, Note_on_c, 0, 67, 52
2, 63000, Note_on_c, 0, 67, 0
2, 63000, Note_on_c, 0, 79, 0
2, 63000, Note_on_c, 0, 78, 76
2, 63000, Note_on_c, 0, 66, 50
2, 63360, Note_on_c, 0, 66, 0
2, 63360, Note_on_c, 0, 78, 0
2, 63360, Note_on_c, 0, 76, 74
2, 63360, Note_on_c, 0, 64, 52
2, 63720, Note_on_c, 0, 64, 0
2, 63720, Note_on_c, 0, 76, 0
2, 63720, Note_on_c, 0, 74, 69
2, 63720, Note_on_c, 0, 62, 52
2, 64080, Note_on_c, 0, 62, 0
2, 64080, Note_on_c, 0, 74, 0
2, 64080, Note_on_c, 0, 76, 79
2, 64080, Note_on_c, 0, 64, 59
2, 64440, Note_on_c, 0, 64, 0
2, 64440, Note_on_c, 0, 76, 0
2, 64440, Note_on_c, 0, 78, 82
2, 64440, Note_on_c, 0, 66, 62
2, 64800, Note_on_c, 0, 66, 0
2, 64800, Note_on_c, 0, 78, 0
2, 64800, Note_on_c, 0, 79, 83
2, 64800, Note_on_c, 0, 67, 58
2, 65160, Note_on_c, 0, 67, 0
2, 65160, Note_on_c, 0, 79, 0
2, 65160, Note_on_c, 0, 74, 68
2, 65160, Note_on_c, 0, 62, 47
2, 65520, Note_on_c, 0, 62, 0
2, 65520, Note_on_c, 0, 74, 0
2, 65520, Note_on_c, 0, 71, 70
2, 65520, Note_on_c, 0, 59, 53
2, 65880, Note_on_c, 0, 59, 0
2, 65880, Note_on_c, 0, 71, 0
2, 65880, Note_on_c, 0, 75, 81
2, 65880, Note_on_c, 0, 63, 58
2, 66240, Note_on_c, 0, 63, 0
2, 66240, Note_on_c, 0, 75, 0
2, 66240, Note_on_c, 0, 76, 78
2, 66240, Note_on_c, 0, 64, 60
2, 66960, Note_on_c, 0, 64, 0
2, 66960, Note_on_c, 0, 76, 0
2, 66960, Note_on_c, 0, 76, 76
2, 66960, Note_on_c, 0, 64, 57
2, 67320, Note_on_c, 0, 64, 0
2, 67320, Note_on_c, 0, 76, 0
2, 67320, Note_on_c, 0, 78, 80
2, 67320, Note_on_c, 0, 66, 65
2, 67680, Note_on_c, 0, 66, 0
2, 67680, Note_on_c, 0, 78, 0
2, 67680, Note_on_c, 0, 79, 84
2, 67680, Note_on_c, 0, 67, 56
2, 68040, Note_on_c, 0, 67, 0
2, 68040, Note_on_c, 0, 79, 0
2, 68040, Note_on_c, 0, 67, 88
2, 68040, Note_on_c, 0, 79, 88
2, 68040, Note_on_c, 0, 59, 48
2, 68040, Note_on_c, 0, 62, 48
2, 68084, Note_on_c, 0, 62, 0
2, 68084, Note_on_c, 0, 59, 0
2, 68130, Note_on_c, 0, 59, 52
2, 68130, Note_on_c, 0, 62, 52
2, 68174, Note_on_c, 0, 62, 0
2, 68174, Note_on_c, 0, 59, 0
2, 68220, Note_on_c, 0, 59, 52
2, 68220, Note_on_c, 0, 62, 52
2, 68264, Note_on_c, 0, 62, 0
2, 68264, Note_on_c, 0, 59, 0
2, 68310, Note_on_c, 0, 59, 57
2, 68310, Note_on_c, 0, 62, 57
2, 68354, Note_on_c, 0, 62, 0
2, 68354, Note_on_c, 0, 59, 0
2, 68400, Note_on_c, 0, 79, 0
2, 68400, Note_on_c, 0, 67, 0
2, 68400, Note_on_c, 0, 69, 93
2, 68400, Note_on_c, 0, 81, 93
2, 68400, Note_on_c, 0, 59, 56
2, 68400, Note_on_c, 0, 62, 56
2, 68444, Note_on_c, 0, 62, 0
2, 68444, Note_on_c, 0, 59, 0
2, 68490, Note_on_c, 0, 59, 58
2, 68490, Note_on_c, 0, 62, 58
2, 68534, Note_on_c, 0, 62, 0
2, 68534, Note_on_c, 0, 59, 0
2, 68580, Note_on_c, 0, 59, 54
2, 68580, Note_on_c, 0, 62, 54
2, 68624, Note_on_c, 0, 62, 0
2, 68624, Note_on_c, 0, 59, 0
2, 68670, Note_on_c, 0, 59, 56
2, 68670, Note_on_c, 0, 62, 56
2, 68714, Note_on_c, 0, 62, 0
2, 68714, Note_on_c, 0, 59, 0
2, 68760, Note_on_c, 0, 81, 0
2, 68760, Note_on_c, 0, 69, 0
2, 68760, Note_on_c, 0, 71, 97
2, 68760, Note_on_c, 0, 83, 97
2, 68760, Note_on_c, 0, 62, 63
2, 68760, Note_on_c, 0, 67, 63
2, 68804, Note_on_c, 0, 67, 0
2, 68804, Note_on_c, 0, 62, 0
2, 68850, Note_on_c, 0, 62, 61
2, 68850, Note_on_c, 0, 67, 61
2, 68894, Note_on_c, 0, 67, 0
2, 68894, Note_on_c, 0, 62, 0
2, 68940, Note_on_c, 0, 62, 53
2, 68940, Note_on_c, 0, 67, 53
2, 68984, Note_on_c, 0, 67, 0
2, 68984, Note_on_c, 0, 62, 0
2, 69030, Note_on_c, 0, 62, 58
2, 69030, Note_on_c, 0, 67, 58
2, 69074, Note_on_c, 0, 67, 0
2, 69074, Note_on_c, 0, 62, 0
2, 69120, Note_on_c, 0, 83, 0
2, 69120, Note_on_c, 0, 71, 0
2, 69120, Note_on_c, 0, 72, 101
2, 69120, Note_on_c, 0, 84, 101
2, 69120, Note_on_c, 0, 67, 59
2, 69120, Note_on_c, 0, 69, 59
2, 69164, Note_on_c, 0, 69, 0
2, 69164, Note_on_c, 0, 67, 0
2, 69210, Note_on_c, 0, 67, 60
2, 69210, Note_on_c, 0, 69, 60
2, 69254, Note_on_c, 0, 69, 0
2, 69254, Note_on_c, 0, 67, 0
2, 69300, Note_on_c, 0, 67, 53
2, 69300, Note_on_c, 0, 69, 53
2, 69344, Note_on_c, 0, 69, 0
2, 69344, Note_on_c, 0, 67, 0
2, 69390, Note_on_c, 0, 67, 53
2, 69390, Note_on_c, 0, 69, 53
2, 69434, Note_on_c, 0, 69, 0
2, 69434, Note_on_c, 0, 67, 0
2, 69480, Note_on_c, 0, 84, 0
2, 69480, Note_on_c, 0, 72, 0
2, 69480, Note_on_c, 0, 73, 107
2, 69480, Note_on_c, 0, 85, 107
2, 69480, Note_on_c, 0, 67, 52
2, 69480, Note_on_c, 0, 69, 52
2, 69524, Note_on_c, 0, 69, 0
2, 69524, Note_on_c, 0, 67, 0
2, 69570, Note_on_c, 0, 67, 54
2, 69570, Note_on_c, 0, 69, 54
2, 69614, Note_on_c, 0, 69, 0
2, 69614, Note_on_c, 0, 67, 0
2, 69660, Note_on_c, 0, 66, 58
2, 69660, Note_on_c, 0, 69, 58
2, 69704, Note_on_c, 0, 69, 0
2, 69704, Note_on_c, 0, 66, 0
2, 69750, Note_on_c, 0, 66, 53
2, 69750, Note_on_c, 0, 69, 53
2, 69794, Note_on_c, 0, 69, 0
2, 69794, Note_on_c, 0, 66, 0
2, 69840, Note_on_c, 0, 85, 0
2, 69840, Note_on_c, 0, 73, 0
2, 69840, Note_on_c, 0, 74, 109
2, 69840, Note_on_c, 0, 86, 109
2, 69840, Note_on_c, 0, 66, 55
2, 69840, Note_on_c, 0, 69, 55
2, 69884, Note_on_c, 0, 69, 0
2, 69884, Note_on_c, 0, 66, 0
2, 69930, Note_on_c, 0, 66, 60
2, 69930, Note_on_c, 0, 69, 60
2, 69974, Note_on_c, 0, 69, 0
2, 69974, Note_on_c, 0, 66, 0
2, 70020, Note_on_c, 0, 66, 57
2, 70020, Note_on_c, 0, 69, 57
2, 70064, Note_on_c, 0, 69, 0
2, 70064, Note_on_c, 0, 66, 0
2, 70110, Note_on_c, 0, 66, 55
2, 70110, Note_on_c, 0, 69, 55
2, 70154, Note_on_c, 0, 69, 0
2, 70154, Note_on_c, 0, 66, 0
2, 70200, Note_on_c, 0, 86, 0
2, 70200, Note_on_c, 0, 74, 0
2, 70200, Note_on_c, 0, 79, 41
2, 70200, Note_on_c, 0, 67, 42
2, 70290, Note_on_c, 0, 67, 0
2, 70290, Note_on_c, 0, 79, 0
2, 70290, Note_on_c, 0, 71, 37
2, 70290, Note_on_c, 0, 74, 37
2, 70290, Note_on_c, 0, 67, 47
2, 70380, Note_on_c, 0, 67, 0
2, 70380, Note_on_c, 0, 74, 0
2, 70380, Note_on_c, 0, 71, 0
2, 70380, Note_on_c, 0, 71, 47
2, 70380, Note_on_c, 0, 74, 47
2, 70380, Note_on_c, 0, 67, 50
2, 70470, Note_on_c, 0, 67, 0
2, 70470, Note_on_c, 0, 74, 0
2, 70470, Note_on_c, 0, 71, 0
2, 70470, Note_on_c, 0, 71, 49
2, 70470, Note_on_c, 0, 74, 49
2, 70470, Note_on_c, 0, 67, 48
2, 70560, Note_on_c, 0, 67, 0
2, 70560, Note_on_c, 0, 74, 0
2, 70560, Note_on_c, 0, 71, 0
2, 70560, Note_on_c, 0, 71, 46
2, 70560, Note_on_c, 0, 74, 46
2, 70560, Note_on_c, 0, 67, 46
2, 70650, Note_on_c, 0, 67, 0
2, 70650, Note_on_c, 0, 74, 0
2, 70650, Note_on_c, 0, 71, 0
2, 70650, Note_on_c, 0, 71, 48
2, 70650, Note_on_c, 0, 74, 48
2, 70650, Note_on_c, 0, 67, 41
2, 70740, Note_on_c, 0, 67, 0
2, 70740, Note_on_c, 0, 74, 0
2, 70740, Note_on_c, 0, 71, 0
2, 70740, Note_on_c, 0, 71, 43
2, 70740, Note_on_c, 0, 74, 43
2, 70740, Note_on_c, 0, 67, 45
2, 70830, Note_on_c, 0, 67, 0
2, 70830, Note_on_c, 0, 74, 0
2, 70830, Note_on_c, 0, 71, 0
2, 70830, Note_on_c, 0, 71, 51
2, 70830, Note_on_c, 0, 74, 51
2, 70830, Note_on_c, 0, 67, 45
2, 70920, Note_on_c, 0, 67, 0
2, 70920, Note_on_c, 0, 74, 0
2, 70920, Note_on_c, 0, 71, 0
2, 70920, Note_on_c, 0, 71, 45
2, 70920, Note_on_c, 0, 74, 45
2, 70920, Note_on_c, 0, 67, 48
2, 71010, Note_on_c, 0, 67, 0
2, 71010, Note_on_c, 0, 74, 0
2, 71010, Note_on_c, 0, 71, 0
2, 71010, Note_on_c, 0, 71, 49
2, 71010, Note_on_c, 0, 74, 49
2, 71010, Note_on_c, 0, 67, 54
2, 71100, Note_on_c, 0, 67, 0
2, 71100, Note_on_c, 0, 74, 0
2, 71100, Note_on_c, 0, 71, 0
2, 71100, Note_on_c, 0, 71, 51
2, 71100, Note_on_c, 0, 74, 51
2, 71100, Note_on_c, 0, 67, 48
2, 71190, Note_on_c, 0, 67, 0
2, 71190, Note_on_c, 0, 74, 0
2, 71190, Note_on_c, 0, 71, 0
2, 71190, Note_on_c, 0, 71, 48
2, 71190, Note_on_c, 0, 74, 48
2, 71190, Note_on_c, 0, 67, 44
2, 71280, Note_on_c, 0, 67, 0
2, 71280, Note_on_c, 0, 74, 0
2, 71280, Note_on_c, 0, 71, 0
2, 71280, Note_on_c, 0, 67, 56
2, 71280, Note_on_c, 0, 71, 56
2, 71280, Note_on_c, 0, 74, 56
2, 71370, Note_on_c, 0, 74, 0
2, 71370, Note_on_c, 0, 71, 0
2, 71370, Note_on_c, 0, 67, 0
2, 71370, Note_on_c, 0, 67, 50
2, 71370, Note_on_c, 0, 71, 50
2, 71370, Note_on_c, 0, 74, 50
2, 71460, Note_on_c, 0, 74, 0
2, 71460, Note_on_c, 0, 71, 0
2, 71460, Note_on_c, 0, 67, 0
2, 71460, Note_on_c, 0, 67, 46
2, 71460, Note_on_c, 0, 71, 46
2, 71460, Note_on_c, 0, 74, 46
2, 71550, Note_on_c, 0, 74, 0
2, 71550, Note_on_c, 0, 71, 0
2, 71550, Note_on_c, 0, 67, 0
2, 71550, Note_on_c, 0, 67, 48
2, 71550, Note_on_c, 0, 71, 48
2, 71550, Note_on_c, 0, 74, 48
2, 71640, Note_on_c, 0, 74, 0
2, 71640, Note_on_c, 0, 71, 0
2, 71640, Note_on_c, 0, 67, 0
2, 71640, Note_on_c, 0, 67, 46
2, 71640, Note_on_c, 0, 71, 46
2, 71640, Note_on_c, 0, 74, 46
2, 71730, Note_on_c, 0, 74, 0
2, 71730, Note_on_c, 0, 71, 0
2, 71730, Note_on_c, 0, 67, 0
2, 71730, Note_on_c, 0, 67, 44
2, 71730, Note_on_c, 0, 71, 44
2, 71730, Note_on_c, 0, 74, 44
2, 71820, Note_on_c, 0, 74, 0
2, 71820, Note_on_c, 0, 71, 0
2, 71820, Note_on_c, 0, 67, 0
2, 71820, Note_on_c, 0, 67, 50
2, 71820, Note_on_c, 0, 71, 50
2, 71820, Note_on_c, 0, 74, 50
2, 71910, Note_on_c, 0, 74, 0
2, 71910, Note_on_c, 0, 71, 0
2, 71910, Note_on_c, 0, 67, 0
2, 71910, Note_on_c, 0, 67, 42
2, 71910, Note_on_c, 0, 71, 42
2, 71910, Note_on_c, 0, 74, 42
2, 72000, Note_on_c, 0, 74, 0
2, 72000, Note_on_c, 0, 71, 0
2, 72000, Note_on_c, 0, 67, 0
2, 72000, Note_on_c, 0, 67, 45
2, 72000, Note_on_c, 0, 71, 45
2, 72090, Note_on_c, 0, 71, 0
2, 72090, Note_on_c, 0, 67, 0
2, 72090, Note_on_c, 0, 67, 47
2, 72090, Note_on_c, 0, 71, 47
2, 72180, Note_on_c, 0, 71, 0
2, 72180, Note_on_c, 0, 67, 0
2, 72180, Note_on_c, 0, 74, 76
2, 72180, Note_on_c, 0, 86, 76
2, 72180, Note_on_c, 0, 67, 48
2, 72180, Note_on_c, 0, 71, 48
2, 72270, Note_on_c, 0, 71, 0
2, 72270, Note_on_c, 0, 67, 0
2, 72270, Note_on_c, 0, 67, 48
2, 72270, Note_on_c, 0, 71, 48
2, 72360, Note_on_c, 0, 71, 0
2, 72360, Note_on_c, 0, 74, 0
2, 72360, Note_on_c, 0, 86, 0
2, 72360, Note_on_c, 0, 67, 0
2, 72360, Note_on_c, 0, 79, 104
2, 72360, Note_on_c, 0, 91, 104
2, 72360, Note_on_c, 0, 67, 49
2, 72360, Note_on_c, 0, 70, 49
2, 72360, Note_on_c, 0, 73, 49
2, 72450, Note_on_c, 0, 73, 0
2, 72450, Note_on_c, 0, 67, 0
2, 72450, Note_on_c, 0, 70, 0
2, 72450, Note_on_c, 0, 67, 51
2, 72450, Note_on_c, 0, 70, 51
2, 72450, Note_on_c, 0, 73, 51
2, 72540, Note_on_c, 0, 73, 0
2, 72540, Note_on_c, 0, 67, 0
2, 72540, Note_on_c, 0, 79, 0
2, 72540, Note_on_c, 0, 91, 0
2, 72540, Note_on_c, 0, 70, 0
2, 72540, Note_on_c, 0, 67, 47
2, 72540, Note_on_c, 0, 70, 47
2, 72540, Note_on_c, 0, 73, 47
2, 72630, Note_on_c, 0, 73, 0
2, 72630, Note_on_c, 0, 70, 0
2, 72630, Note_on_c, 0, 67, 0
2, 72630, Note_on_c, 0, 67, 45
2, 72630, Note_on_c, 0, 70, 45
2, 72630, Note_on_c, 0, 73, 45
2, 72720, Note_on_c, 0, 73, 0
2, 72720, Note_on_c, 0, 70, 0
2, 72720, Note_on_c, 0, 67, 0
2, 72720, Note_on_c, 0, 67, 50
2, 72720, Note_on_c, 0, 70, 50
2, 72720, Note_on_c, 0, 73, 50
2, 72810, Note_on_c, 0, 73, 0
2, 72810, Note_on_c, 0, 70, 0
2, 72810, Note_on_c, 0, 67, 0
2, 72810, Note_on_c, 0, 67, 46
2, 72810, Note_on_c, 0, 70, 46
2, 72810, Note_on_c, 0, 73, 46
2, 72900, Note_on_c, 0, 73, 0
2, 72900, Note_on_c, 0, 70, 0
2, 72900, Note_on_c, 0, 67, 0
2, 72900, Note_on_c, 0, 67, 50
2, 72900, Note_on_c, 0, 70, 50
2, 72900, Note_on_c, 0, 73, 50
2, 72990, Note_on_c, 0, 73, 0
2, 72990, Note_on_c, 0, 70, 0
2, 72990, Note_on_c, 0, 67, 0
2, 72990, Note_on_c, 0, 67, 46
2, 72990, Note_on_c, 0, 70, 46
2, 72990, Note_on_c, 0, 73, 46
2, 73080, Note_on_c, 0, 73, 0
2, 73080, Note_on_c, 0, 70, 0
2, 73080, Note_on_c, 0, 67, 0
2, 73080, Note_on_c, 0, 67, 48
2, 73080, Note_on_c, 0, 70, 48
2, 73080, Note_on_c, 0, 73, 48
2, 73170, Note_on_c, 0, 73, 0
2, 73170, Note_on_c, 0, 70, 0
2, 73170, Note_on_c, 0, 67, 0
2, 73170, Note_on_c, 0, 67, 46
2, 73170, Note_on_c, 0, 70, 46
2, 73170, Note_on_c, 0, 73, 46
2, 73260, Note_on_c, 0, 73, 0
2, 73260, Note_on_c, 0, 70, 0
2, 73260, Note_on_c, 0, 67, 0
2, 73260, Note_on_c, 0, 79, 82
2, 73260, Note_on_c, 0, 67, 50
2, 73260, Note_on_c, 0, 70, 50
2, 73260, Note_on_c, 0, 73, 50
2, 73350, Note_on_c, 0, 73, 0
2, 73350, Note_on_c, 0, 70, 0
2, 73350, Note_on_c, 0, 67, 0
2, 73350, Note_on_c, 0, 67, 44
2, 73350, Note_on_c, 0, 70, 44
2, 73350, Note_on_c, 0, 73, 44
2, 73440, Note_on_c, 0, 73, 0
2, 73440, Note_on_c, 0, 79, 0
2, 73440, Note_on_c, 0, 67, 0
2, 73440, Note_on_c, 0, 70, 0
2, 73440, Note_on_c, 0, 72, 94
2, 73440, Note_on_c, 0, 84, 94
2, 73440, Note_on_c, 0, 67, 42
2, 73440, Note_on_c, 0, 69, 42
2, 73530, Note_on_c, 0, 69, 0
2, 73530, Note_on_c, 0, 67, 0
2, 73530, Note_on_c, 0, 67, 45
2, 73530, Note_on_c, 0, 69, 45
2, 73620, Note_on_c, 0, 69, 0
2, 73620, Note_on_c, 0, 72, 0
2, 73620, Note_on_c, 0, 84, 0
2, 73620, Note_on_c, 0, 67, 0
2, 73620, Note_on_c, 0, 67, 55
2, 73620, Note_on_c, 0, 69, 55
2, 73620, Note_on_c, 0, 72, 55
2, 73710, Note_on_c, 0, 72, 0
2, 73710, Note_on_c, 0, 69, 0
2, 73710, Note_on_c, 0, 67, 0
2, 73710, Note_on_c, 0, 67, 48
2, 73710, Note_on_c, 0, 69, 48
2, 73710, Note_on_c, 0, 72, 48
2, 73800, Note_on_c, 0, 72, 0
2, 73800, Note_on_c, 0, 69, 0
2, 73800, Note_on_c, 0, 67, 0
2, 73800, Note_on_c, 0, 67, 55
2, 73800, Note_on_c, 0, 69, 55
2, 73800, Note_on_c, 0, 72, 55
2, 73890, Note_on_c, 0, 72, 0
2, 73890, Note_on_c, 0, 69, 0
2, 73890, Note_on_c, 0, 67, 0
2, 73890, Note_on_c, 0, 67, 50
2, 73890, Note_on_c, 0, 69, 50
2, 73890, Note_on_c, 0, 72, 50
2, 73980, Note_on_c, 0, 72, 0
2, 73980, Note_on_c, 0, 69, 0
2, 73980, Note_on_c, 0, 67, 0
2, 73980, Note_on_c, 0, 67, 48
2, 73980, Note_on_c, 0, 69, 48
2, 73980, Note_on_c, 0, 72, 48
2, 74070, Note_on_c, 0, 72, 0
2, 74070, Note_on_c, 0, 69, 0
2, 74070, Note_on_c, 0, 67, 0
2, 74070, Note_on_c, 0, 67, 45
2, 74070, Note_on_c, 0, 69, 45
2, 74070, Note_on_c, 0, 72, 45
2, 74160, Note_on_c, 0, 72, 0
2, 74160, Note_on_c, 0, 69, 0
2, 74160, Note_on_c, 0, 67, 0
2, 74160, Note_on_c, 0, 67, 42
2, 74160, Note_on_c, 0, 69, 42
2, 74250, Note_on_c, 0, 69, 0
2, 74250, Note_on_c, 0, 67, 0
2, 74250, Note_on_c, 0, 67, 47
2, 74250, Note_on_c, 0, 69, 47
2, 74340, Note_on_c, 0, 69, 0
2, 74340, Note_on_c, 0, 67, 0
2, 74340, Note_on_c, 0, 72, 81
2, 74340, Note_on_c, 0, 67, 47
2, 74340, Note_on_c, 0, 69, 47
2, 74430, Note_on_c, 0, 69, 0
2, 74430, Note_on_c, 0, 67, 0
2, 74430, Note_on_c, 0, 67, 47
2, 74430, Note_on_c, 0, 69, 47
2, 74520, Note_on_c, 0, 69, 0
2, 74520, Note_on_c, 0, 67, 0
2, 74520, Note_on_c, 0, 72, 0
2, 74520, Note_on_c, 0, 79, 103
2, 74520, Note_on_c, 0, 67, 56
2, 74520, Note_on_c, 0, 71, 56
2, 74610, Note_on_c, 0, 71, 0
2, 74610, Note_on_c, 0, 67, 0
2, 74610, Note_on_c, 0, 67, 50
2, 74610, Note_on_c, 0, 71, 50
2, 74700, Note_on_c, 0, 71, 0
2, 74700, Note_on_c, 0, 67, 0
2, 74700, Note_on_c, 0, 79, 0
2, 74700, Note_on_c, 0, 67, 49
2, 74700, Note_on_c, 0, 71, 49
2, 74790, Note_on_c, 0, 71, 0
2, 74790, Note_on_c, 0, 67, 0
2, 74790, Note_on_c, 0, 67, 45
2, 74790, Note_on_c, 0, 71, 45
2, 74880, Note_on_c, 0, 71, 0
2, 74880, Note_on_c, 0, 67, 0
2, 74880, Note_on_c, 0, 67, 49
2, 74880, Note_on_c, 0, 71, 49
2, 74970, Note_on_c, 0, 71, 0
2, 74970, Note_on_c, 0, 67, 0
2, 74970, Note_on_c, 0, 67, 47
2, 74970, Note_on_c, 0, 71, 47
2, 75060, Note_on_c, 0, 71, 0
2, 75060, Note_on_c, 0, 67, 0
2, 75060, Note_on_c, 0, 67, 50
2, 75060, Note_on_c, 0, 71, 50
2, 75150, Note_on_c, 0, 71, 0
2, 75150, Note_on_c, 0, 67, 0
2, 75150, Note_on_c, 0, 67, 52
2, 75150, Note_on_c, 0, 71, 52
2, 75240, Note_on_c, 0, 71, 0
2, 75240, Note_on_c, 0, 67, 0
2, 75240, Note_on_c, 0, 67, 48
2, 75240, Note_on_c, 0, 71, 48
2, 75330, Note_on_c, 0, 71, 0
2, 75330, Note_on_c, 0, 67, 0
2, 75330, Note_on_c, 0, 67, 50
2, 75330, Note_on_c, 0, 71, 50
2, 75420, Note_on_c, 0, 71, 0
2, 75420, Note_on_c, 0, 67, 0
2, 75420, Note_on_c, 0, 67, 49
2, 75420, Note_on_c, 0, 71, 49
2, 75510, Note_on_c, 0, 71, 0
2, 75510, Note_on_c, 0, 67, 0
2, 75510, Note_on_c, 0, 67, 45
2, 75510, Note_on_c, 0, 71, 45
2, 75600, Note_on_c, 0, 71, 0
2, 75600, Note_on_c, 0, 67, 0
2, 75600, Note_on_c, 0, 55, 46
2, 75600, Note_on_c, 0, 59, 46
2, 75600, Note_on_c, 0, 62, 46
2, 75690, Note_on_c, 0, 62, 0
2, 75690, Note_on_c, 0, 59, 0
2, 75690, Note_on_c, 0, 55, 0
2, 75690, Note_on_c, 0, 55, 65
2, 75690, Note_on_c, 0, 59, 65
2, 75690, Note_on_c, 0, 62, 65
2, 75780, Note_on_c, 0, 62, 0
2, 75780, Note_on_c, 0, 59, 0
2, 75780, Note_on_c, 0, 55, 0
2, 75780, Note_on_c, 0, 55, 63
2, 75780, Note_on_c, 0, 59, 63
2, 75780, Note_on_c, 0, 62, 63
2, 75870, Note_on_c, 0, 62, 0
2, 75870, Note_on_c, 0, 59, 0
2, 75870, Note_on_c, 0, 55, 0
2, 75870, Note_on_c, 0, 55, 65
2, 75870, Note_on_c, 0, 59, 65
2, 75870, Note_on_c, 0, 62, 65
2, 75960, Note_on_c, 0, 62, 0
2, 75960, Note_on_c, 0, 59, 0
2, 75960, Note_on_c, 0, 55, 0
2, 75960, Note_on_c, 0, 55, 63
2, 75960, Note_on_c, 0, 59, 63
2, 75960, Note_on_c, 0, 62, 63
2, 76050, Note_on_c, 0, 62, 0
2, 76050, Note_on_c, 0, 59, 0
2, 76050, Note_on_c, 0, 55, 0
2, 76050, Note_on_c, 0, 55, 64
2, 76050, Note_on_c, 0, 59, 64
2, 76050, Note_on_c, 0, 62, 64
2, 76140, Note_on_c, 0, 62, 0
2, 76140, Note_on_c, 0, 59, 0
2, 76140, Note_on_c, 0, 55, 0
2, 76140, Note_on_c, 0, 55, 67
2, 76140, Note_on_c, 0, 59, 67
2, 76140, Note_on_c, 0, 62, 67
2, 76230, Note_on_c, 0, 62, 0
2, 76230, Note_on_c, 0, 59, 0
2, 76230, Note_on_c, 0, 55, 0
2, 76230, Note_on_c, 0, 55, 64
2, 76230, Note_on_c, 0, 59, 64
2, 76230, Note_on_c, 0, 62, 64
2, 76320, Note_on_c, 0, 62, 0
2, 76320, Note_on_c, 0, 59, 0
2, 76320, Note_on_c, 0, 55, 0
2, 76320, Note_on_c, 0, 55, 67
2, 76320, Note_on_c, 0, 59, 67
2, 76320, Note_on_c, 0, 62, 67
2, 76410, Note_on_c, 0, 62, 0
2, 76410, Note_on_c, 0, 59, 0
2, 76410, Note_on_c, 0, 55, 0
2, 76410, Note_on_c, 0, 55, 62
2, 76410, Note_on_c, 0, 59, 62
2, 76410, Note_on_c, 0, 62, 62
2, 76500, Note_on_c, 0, 62, 0
2, 76500, Note_on_c, 0, 59, 0
2, 76500, Note_on_c, 0, 55, 0
2, 76500, Note_on_c, 0, 74, 80
2, 76500, Note_on_c, 0, 55, 64
2, 76500, Note_on_c, 0, 59, 64
2, 76500, Note_on_c, 0, 62, 64
2, 76590, Note_on_c, 0, 62, 0
2, 76590, Note_on_c, 0, 59, 0
2, 76590, Note_on_c, 0, 55, 0
2, 76590, Note_on_c, 0, 55, 67
2, 76590, Note_on_c, 0, 59, 67
2, 76590, Note_on_c, 0, 62, 67
2, 76680, Note_on_c, 0, 62, 0
2, 76680, Note_on_c, 0, 74, 0
2, 76680, Note_on_c, 0, 55, 0
2, 76680, Note_on_c, 0, 59, 0
2, 76680, Note_on_c, 0, 79, 88
2, 76680, Note_on_c, 0, 55, 65
2, 76680, Note_on_c, 0, 58, 65
2, 76680, Note_on_c, 0, 61, 65
2, 76770, Note_on_c, 0, 61, 0
2, 76770, Note_on_c, 0, 58, 0
2, 76770, Note_on_c, 0, 55, 0
2, 76770, Note_on_c, 0, 55, 63
2, 76770, Note_on_c, 0, 58, 63
2, 76770, Note_on_c, 0, 61, 63
2, 76860, Note_on_c, 0, 61, 0
2, 76860, Note_on_c, 0, 79, 0
2, 76860, Note_on_c, 0, 55, 0
2, 76860, Note_on_c, 0, 58, 0
2, 76860, Note_on_c, 0, 55, 61
2, 76860, Note_on_c, 0, 58, 61
2, 76860, Note_on_c, 0, 61, 61
2, 76950, Note_on_c, 0, 61, 0
2, 76950, Note_on_c, 0, 58, 0
2, 76950, Note_on_c, 0, 55, 0
2, 76950, Note_on_c, 0, 55, 59
2, 76950, Note_on_c, 0, 58, 59
2, 76950, Note_on_c, 0, 61, 59
2, 77040, Note_on_c, 0, 61, 0
2, 77040, Note_on_c, 0, 58, 0
2, 77040, Note_on_c, 0, 55, 0
2, 77040, Note_on_c, 0, 55, 57
2, 77040, Note_on_c, 0, 58, 57
2, 77040, Note_on_c, 0, 61, 57
2, 77130, Note_on_c, 0, 61, 0
2, 77130, Note_on_c, 0, 58, 0
2, 77130, Note_on_c, 0, 55, 0
2, 77130, Note_on_c, 0, 55, 55
2, 77130, Note_on_c, 0, 58, 55
2, 77130, Note_on_c, 0, 61, 55
2, 77220, Note_on_c, 0, 61, 0
2, 77220, Note_on_c, 0, 58, 0
2, 77220, Note_on_c, 0, 55, 0
2, 77220, Note_on_c, 0, 55, 53
2, 77220, Note_on_c, 0, 58, 53
2, 77220, Note_on_c, 0, 61, 53
2, 77310, Note_on_c, 0, 61, 0
2, 77310, Note_on_c, 0, 58, 0
2, 77310, Note_on_c, 0, 55, 0
2, 77310, Note_on_c, 0, 55, 51
2, 77310, Note_on_c, 0, 58, 51
2, 77310, Note_on_c, 0, 61, 51
2, 77400, Note_on_c, 0, 61, 0
2, 77400, Note_on_c, 0, 58, 0
2, 77400, Note_on_c, 0, 55, 0
2, 77400, Note_on_c, 0, 55, 49
2, 77400, Note_on_c, 0, 58, 49
2, 77400, Note_on_c, 0, 61, 49
2, 77490, Note_on_c, 0, 61, 0
2, 77490, Note_on_c, 0, 58, 0
2, 77490, Note_on_c, 0, 55, 0
2, 77490, Note_on_c, 0, 55, 46
2, 77490, Note_on_c, 0, 58, 46
2, 77490, Note_on_c, 0, 61, 46
2, 77580, Note_on_c, 0, 61, 0
2, 77580, Note_on_c, 0, 58, 0
2, 77580, Note_on_c, 0, 55, 0
2, 77580, Note_on_c, 0, 67, 67
2, 77580, Note_on_c, 0, 55, 44
2, 77580, Note_on_c, 0, 58, 44
2, 77580, Note_on_c, 0, 61, 44
2, 77670, Note_on_c, 0, 61, 0
2, 77670, Note_on_c, 0, 58, 0
2, 77670, Note_on_c, 0, 55, 0
2, 77670, Note_on_c, 0, 55, 42
2, 77670, Note_on_c, 0, 58, 42
2, 77670, Note_on_c, 0, 61, 42
2, 77760, Note_on_c, 0, 61, 0
2, 77760, Note_on_c, 0, 67, 0
2, 77760, Note_on_c, 0, 55, 0
2, 77760, Note_on_c, 0, 58, 0
2, 77760, Note_on_c, 0, 72, 63
2, 77760, Note_on_c, 0, 55, 40
2, 77760, Note_on_c, 0, 57, 40
2, 77760, Note_on_c, 0, 60, 40
2, 77850, Note_on_c, 0, 60, 0
2, 77850, Note_on_c, 0, 57, 0
2, 77850, Note_on_c, 0, 55, 0
2, 77850, Note_on_c, 0, 55, 41
2, 77850, Note_on_c, 0, 57, 41
2, 77850, Note_on_c, 0, 60, 41
2, 77940, Note_on_c, 0, 60, 0
2, 77940, Note_on_c, 0, 72, 0
2, 77940, Note_on_c, 0, 55, 0
2, 77940, Note_on_c, 0, 57, 0
2, 77940, Note_on_c, 0, 55, 41
2, 77940, Note_on_c, 0, 57, 41
2, 77940, Note_on_c, 0, 60, 41
2, 78030, Note_on_c, 0, 60, 0
2, 78030, Note_on_c, 0, 57, 0
2, 78030, Note_on_c, 0, 55, 0
2, 78030, Note_on_c, 0, 55, 40
2, 78030, Note_on_c, 0, 57, 40
2, 78030, Note_on_c, 0, 60, 40
2, 78120, Note_on_c, 0, 60, 0
2, 78120, Note_on_c, 0, 57, 0
2, 78120, Note_on_c, 0, 55, 0
2, 78120, Note_on_c, 0, 55, 40
2, 78120, Note_on_c, 0, 57, 40
2, 78120, Note_on_c, 0, 60, 40
2, 78210, Note_on_c, 0, 60, 0
2, 78210, Note_on_c, 0, 57, 0
2, 78210, Note_on_c, 0, 55, 0
2, 78210, Note_on_c, 0, 55, 40
2, 78210, Note_on_c, 0, 57, 40
2, 78210, Note_on_c, 0, 60, 40
2, 78300, Note_on_c, 0, 60, 0
2, 78300, Note_on_c, 0, 57, 0
2, 78300, Note_on_c, 0, 55, 0
2, 78300, Note_on_c, 0, 55, 35
2, 78300, Note_on_c, 0, 57, 35
2, 78300, Note_on_c, 0, 60, 35
2, 78390, Note_on_c, 0, 60, 0
2, 78390, Note_on_c, 0, 57, 0
2, 78390, Note_on_c, 0, 55, 0
2, 78390, Note_on_c, 0, 55, 44
2, 78390, Note_on_c, 0, 57, 44
2, 78390, Note_on_c, 0, 60, 44
2, 78480, Note_on_c, 0, 60, 0
2, 78480, Note_on_c, 0, 57, 0
2, 78480, Note_on_c, 0, 55, 0
2, 78480, Note_on_c, 0, 55, 37
2, 78480, Note_on_c, 0, 57, 37
2, 78570, Note_on_c, 0, 57, 0
2, 78570, Note_on_c, 0, 55, 0
2, 78570, Note_on_c, 0, 55, 44
2, 78570, Note_on_c, 0, 57, 44
2, 78660, Note_on_c, 0, 57, 0
2, 78660, Note_on_c, 0, 55, 0
2, 78660, Note_on_c, 0, 60, 59
2, 78660, Note_on_c, 0, 55, 39
2, 78660, Note_on_c, 0, 57, 39
2, 78750, Note_on_c, 0, 57, 0
2, 78750, Note_on_c, 0, 55, 0
2, 78750, Note_on_c, 0, 55, 38
2, 78750, Note_on_c, 0, 57, 38
2, 78840, Note_on_c, 0, 57, 0
2, 78840, Note_on_c, 0, 55, 0
2, 78840, Note_on_c, 0, 60, 0
2, 78840, Note_on_c, 0, 67, 87
2, 78840, Note_on_c, 0, 55, 87
2, 78840, Note_on_c, 0, 59, 87
2, 78840, Note_on_c, 0, 62, 87
2, 79020, Note_on_c, 0, 62, 0
2, 79020, Note_on_c, 0, 67, 0
2, 79020, Note_on_c, 0, 55, 0
2, 79020, Note_on_c, 0, 59, 0
2, 79200, Note_on_c, 0, 59, 65
2, 79235, Note_on_c, 0, 59, 0
2, 79235, Note_on_c, 0, 62, 81
2, 79272, Note_on_c, 0, 62, 0
2, 79272, Note_on_c, 0, 67, 81
2, 79307, Note_on_c, 0, 67, 0
2, 79307, Note_on_c, 0, 71, 87
2, 79344, Note_on_c, 0, 71, 0
2, 79344, Note_on_c, 0, 74, 82
2, 79380, Note_on_c, 0, 74, 0
2, 79380, Note_on_c, 0, 79, 69
2, 79439, Note_on_c, 0, 79, 0
2, 79439, Note_on_c, 0, 74, 62
2, 79500, Note_on_c, 0, 74, 0
2, 79500, Note_on_c, 0, 71, 64
2, 79560, Note_on_c, 0, 71, 0
2, 79560, Note_on_c, 0, 67, 69
2, 79619, Note_on_c, 0, 67, 0
2, 79619, Note_on_c, 0, 62, 64
2, 79680, Note_on_c, 0, 62, 0
2, 79680, Note_on_c, 0, 59, 67
2, 79740, Note_on_c, 0, 59, 0
2, 80100, Note_on_c, 0, 59, 67
2, 80159, Note_on_c, 0, 59, 0
2, 80159, Note_on_c, 0, 62, 77
2, 80220, Note_on_c, 0, 62, 0
2, 80220, Note_on_c, 0, 67, 85
2, 80280, Note_on_c, 0, 67, 0
2, 80280, Note_on_c, 0, 71, 73
2, 80339, Note_on_c, 0, 71, 0
2, 80339, Note_on_c, 0, 74, 82
2, 80400, Note_on_c, 0, 74, 0
2, 80400, Note_on_c, 0, 79, 83
2, 80460, Note_on_c, 0, 79, 0
2, 80460, Note_on_c, 0, 83, 85
2, 80519, Note_on_c, 0, 83, 0
2, 80519, Note_on_c, 0, 79, 67
2, 80580, Note_on_c, 0, 79, 0
2, 80580, Note_on_c, 0, 74, 63
2, 80640, Note_on_c, 0, 74, 0
2, 80640, Note_on_c, 0, 71, 71
2, 80699, Note_on_c, 0, 71, 0
2, 80699, Note_on_c, 0, 67, 68
2, 80760, Note_on_c, 0, 67, 0
2, 80760, Note_on_c, 0, 62, 69
2, 80820, Note_on_c, 0, 62, 0
2, 81180, Note_on_c, 0, 59, 66
2, 81225, Note_on_c, 0, 59, 0
2, 81225, Note_on_c, 0, 62, 82
2, 81270, Note_on_c, 0, 62, 0
2, 81270, Note_on_c, 0, 67, 83
2, 81315, Note_on_c, 0, 67, 0
2, 81315, Note_on_c, 0, 71, 81
2, 81360, Note_on_c, 0, 71, 0
2, 81360, Note_on_c, 0, 74, 66
2, 81419, Note_on_c, 0, 74, 0
2, 81419, Note_on_c, 0, 79, 84
2, 81480, Note_on_c, 0, 79, 0
2, 81480, Note_on_c, 0, 83, 87
2, 81540, Note_on_c, 0, 83, 0
2, 81540, Note_on_c, 0, 86, 86
2, 81599, Note_on_c, 0, 86, 0
2, 81599, Note_on_c, 0, 83, 73
2, 81660, Note_on_c, 0, 83, 0
2, 81660, Note_on_c, 0, 79, 66
2, 81720, Note_on_c, 0, 79, 0
2, 81720, Note_on_c, 0, 74, 67
2, 81765, Note_on_c, 0, 74, 0
2, 81765, Note_on_c, 0, 71, 69
2, 81810, Note_on_c, 0, 71, 0
2, 81810, Note_on_c, 0, 67, 69
2, 81855, Note_on_c, 0, 67, 0
2, 81855, Note_on_c, 0, 62, 68
2, 81900, Note_on_c, 0, 62, 0
2, 82260, Note_on_c, 0, 59, 69
2, 82305, Note_on_c, 0, 59, 0
2, 82305, Note_on_c, 0, 62, 81
2, 82350, Note_on_c, 0, 62, 0
2, 82350, Note_on_c, 0, 67, 88
2, 82395, Note_on_c, 0, 67, 0
2, 82395, Note_on_c, 0, 71, 86
2, 82440, Note_on_c, 0, 71, 0
2, 82440, Note_on_c, 0, 74, 65
2, 82485, Note_on_c, 0, 74, 0
2, 82485, Note_on_c, 0, 79, 83
2, 82530, Note_on_c, 0, 79, 0
2, 82530, Note_on_c, 0, 83, 85
2, 82575, Note_on_c, 0, 83, 0
2, 82575, Note_on_c, 0, 86, 83
2, 82620, Note_on_c, 0, 86, 0
2, 82620, Note_on_c, 0, 91, 86
2, 82800, Note_on_c, 0, 91, 0
2, 82800, End_track
3, 0, Start_track
3, 0, Title_t, "Piano"
3, 0, Program_c, 0, 0
3, 0, Control_c, 0, 7, 105
3, 0, Control_c, 0, 10, 47
3, 0, Control_c, 0, 91, 60
3, 0, Control_c, 0, 121, 0
3, 0, Control_c, 0, 121, 0
3, 0, Control_c, 0, 91, 60
3, 0, Control_c, 0, 10, 51
3, 0, Control_c, 0, 7, 100
3, 0, Note_on_c, 0, 55, 49
3, 0, Note_on_c, 0, 59, 49
3, 0, Note_on_c, 0, 62, 49
3, 0, Note_on_c, 0, 31, 75
3, 0, Note_on_c, 0, 43, 75
3, 44, Note_on_c, 0, 62, 0
3, 44, Note_on_c, 0, 55, 0
3, 44, Note_on_c, 0, 59, 0
3, 90, Note_on_c, 0, 55, 53
3, 90, Note_on_c, 0, 59, 53
3, 90, Note_on_c, 0, 62, 53
3, 134, Note_on_c, 0, 62, 0
3, 134, Note_on_c, 0, 55, 0
3, 134, Note_on_c, 0, 59, 0
3, 180, Note_on_c, 0, 31, 0
3, 180, Note_on_c, 0, 43, 0
3, 180, Note_on_c, 0, 55, 57
3, 180, Note_on_c, 0, 59, 57
3, 180, Note_on_c, 0, 62, 57
3, 224, Note_on_c, 0, 62, 0
3, 224, Note_on_c, 0, 59, 0
3, 224, Note_on_c, 0, 55, 0
3, 270, Note_on_c, 0, 55, 54
3, 270, Note_on_c, 0, 59, 54
3, 270, Note_on_c, 0, 62, 54
3, 314, Note_on_c, 0, 62, 0
3, 314, Note_on_c, 0, 59, 0
3, 314, Note_on_c, 0, 55, 0
3, 360, Note_on_c, 0, 55, 59
3, 360, Note_on_c, 0, 59, 59
3, 360, Note_on_c, 0, 62, 59
3, 404, Note_on_c, 0, 62, 0
3, 404, Note_on_c, 0, 59, 0
3, 404, Note_on_c, 0, 55, 0
3, 450, Note_on_c, 0, 55, 56
3, 450, Note_on_c, 0, 59, 56
3, 450, Note_on_c, 0, 62, 56
3, 494, Note_on_c, 0, 62, 0
3, 494, Note_on_c, 0, 59, 0
3, 494, Note_on_c, 0, 55, 0
3, 540, Note_on_c, 0, 55, 53
3, 540, Note_on_c, 0, 59, 53
3, 540, Note_on_c, 0, 62, 53
3, 540, Note_on_c, 0, 38, 75
3, 540, Note_on_c, 0, 50, 75
3, 584, Note_on_c, 0, 62, 0
3, 584, Note_on_c, 0, 55, 0
3, 584, Note_on_c, 0, 59, 0
3, 630, Note_on_c, 0, 55, 53
3, 630, Note_on_c, 0, 59, 53
3, 630, Note_on_c, 0, 62, 53
3, 674, Note_on_c, 0, 62, 0
3, 674, Note_on_c, 0, 55, 0
3, 674, Note_on_c, 0, 59, 0
3, 720, Note_on_c, 0, 38, 0
3, 720, Note_on_c, 0, 50, 0
3, 720, Note_on_c, 0, 55, 63
3, 720, Note_on_c, 0, 59, 63
3, 720, Note_on_c, 0, 62, 63
3, 764, Note_on_c, 0, 62, 0
3, 764, Note_on_c, 0, 59, 0
3, 764, Note_on_c, 0, 55, 0
3, 810, Note_on_c, 0, 55, 57
3, 810, Note_on_c, 0, 59, 57
3, 810, Note_on_c, 0, 62, 57
3, 854, Note_on_c, 0, 62, 0
3, 854, Note_on_c, 0, 59, 0
3, 854, Note_on_c, 0, 55, 0
3, 900, Note_on_c, 0, 55, 56
3, 900, Note_on_c, 0, 59, 56
3, 900, Note_on_c, 0, 62, 56
3, 944, Note_on_c, 0, 62, 0
3, 944, Note_on_c, 0, 59, 0
3, 944, Note_on_c, 0, 55, 0
3, 990, Note_on_c, 0, 55, 57
3, 990, Note_on_c, 0, 59, 57
3, 990, Note_on_c, 0, 62, 57
3, 1034, Note_on_c, 0, 62, 0
3, 1034, Note_on_c, 0, 59, 0
3, 1034, Note_on_c, 0, 55, 0
3, 1080, Note_on_c, 0, 55, 54
3, 1080, Note_on_c, 0, 59, 54
3, 1080, Note_on_c, 0, 62, 54
3, 1080, Note_on_c, 0, 43, 73
3, 1124, Note_on_c, 0, 62, 0
3, 1124, Note_on_c, 0, 55, 0
3, 1124, Note_on_c, 0, 59, 0
3, 1170, Note_on_c, 0, 55, 53
3, 1170, Note_on_c, 0, 59, 53
3, 1170, Note_on_c, 0, 62, 53
3, 1214, Note_on_c, 0, 62, 0
3, 1214, Note_on_c, 0, 59, 0
3, 1214, Note_on_c, 0, 55, 0
3, 1260, Note_on_c, 0, 43, 0
3, 1260, Note_on_c, 0, 55, 56
3, 1260, Note_on_c, 0, 59, 56
3, 1260, Note_on_c, 0, 62, 56
3, 1304, Note_on_c, 0, 62, 0
3, 1304, Note_on_c, 0, 59, 0
3, 1304, Note_on_c, 0, 55, 0
3, 1350, Note_on_c, 0, 55, 55
3, 1350, Note_on_c, 0, 59, 55
3, 1350, Note_on_c, 0, 62, 55
3, 1394, Note_on_c, 0, 62, 0
3, 1394, Note_on_c, 0, 59, 0
3, 1394, Note_on_c, 0, 55, 0
3, 1440, Note_on_c, 0, 55, 54
3, 1440, Note_on_c, 0, 59, 54
3, 1440, Note_on_c, 0, 62, 54
3, 1484, Note_on_c, 0, 62, 0
3, 1484, Note_on_c, 0, 59, 0
3, 1484, Note_on_c, 0, 55, 0
3, 1530, Note_on_c, 0, 55, 54
3, 1530, Note_on_c, 0, 59, 54
3, 1530, Note_on_c, 0, 62, 54
3, 1574, Note_on_c, 0, 62, 0
3, 1574, Note_on_c, 0, 59, 0
3, 1574, Note_on_c, 0, 55, 0
3, 1620, Note_on_c, 0, 55, 56
3, 1620, Note_on_c, 0, 59, 56
3, 1620, Note_on_c, 0, 62, 56
3, 1620, Note_on_c, 0, 38, 78
3, 1620, Note_on_c, 0, 50, 78
3, 1664, Note_on_c, 0, 62, 0
3, 1664, Note_on_c, 0, 55, 0
3, 1664, Note_on_c, 0, 59, 0
3, 1710, Note_on_c, 0, 55, 58
3, 1710, Note_on_c, 0, 59, 58
3, 1710, Note_on_c, 0, 62, 58
3, 1754, Note_on_c, 0, 62, 0
3, 1754, Note_on_c, 0, 55, 0
3, 1754, Note_on_c, 0, 59, 0
3, 1800, Note_on_c, 0, 38, 0
3, 1800, Note_on_c, 0, 50, 0
3, 1800, Note_on_c, 0, 55, 58
3, 1800, Note_on_c, 0, 59, 58
3, 1800, Note_on_c, 0, 62, 58
3, 1844, Note_on_c, 0, 62, 0
3, 1844, Note_on_c, 0, 59, 0
3, 1844, Note_on_c, 0, 55, 0
3, 1890, Note_on_c, 0, 55, 51
3, 1890, Note_on_c, 0, 59, 51
3, 1890, Note_on_c, 0, 62, 51
3, 1934, Note_on_c, 0, 62, 0
3, 1934, Note_on_c, 0, 59, 0
3, 1934, Note_on_c, 0, 55, 0
3, 1980, Note_on_c, 0, 55, 55
3, 1980, Note_on_c, 0, 59, 55
3, 1980, Note_on_c, 0, 62, 55
3, 2024, Note_on_c, 0, 62, 0
3, 2024, Note_on_c, 0, 59, 0
3, 2024, Note_on_c, 0, 55, 0
3, 2070, Note_on_c, 0, 55, 58
3, 2070, Note_on_c, 0, 59, 58
3, 2070, Note_on_c, 0, 62, 58
3, 2114, Note_on_c, 0, 62, 0
3, 2114, Note_on_c, 0, 59, 0
3, 2114, Note_on_c, 0, 55, 0
3, 2160, Note_on_c, 0, 55, 55
3, 2160, Note_on_c, 0, 59, 55
3, 2160, Note_on_c, 0, 62, 55
3, 2160, Note_on_c, 0, 31, 71
3, 2160, Note_on_c, 0, 43, 71
3, 2204, Note_on_c, 0, 62, 0
3, 2204, Note_on_c, 0, 55, 0
3, 2204, Note_on_c, 0, 59, 0
3, 2250, Note_on_c, 0, 55, 51
3, 2250, Note_on_c, 0, 59, 51
3, 2250, Note_on_c, 0, 62, 51
3, 2294, Note_on_c, 0, 62, 0
3, 2294, Note_on_c, 0, 55, 0
3, 2294, Note_on_c, 0, 59, 0
3, 2340, Note_on_c, 0, 31, 0
3, 2340, Note_on_c, 0, 43, 0
3, 2340, Note_on_c, 0, 55, 57
3, 2340, Note_on_c, 0, 59, 57
3, 2340, Note_on_c, 0, 62, 57
3, 2384, Note_on_c, 0, 62, 0
3, 2384, Note_on_c, 0, 59, 0
3, 2384, Note_on_c, 0, 55, 0
3, 2430, Note_on_c, 0, 55, 58
3, 2430, Note_on_c, 0, 59, 58
3, 2430, Note_on_c, 0, 62, 58
3, 2474, Note_on_c, 0, 62, 0
3, 2474, Note_on_c, 0, 59, 0
3, 2474, Note_on_c, 0, 55, 0
3, 2520, Note_on_c, 0, 55, 55
3, 2520, Note_on_c, 0, 59, 55
3, 2520, Note_on_c, 0, 62, 55
3, 2564, Note_on_c, 0, 62, 0
3, 2564, Note_on_c, 0, 59, 0
3, 2564, Note_on_c, 0, 55, 0
3, 2610, Note_on_c, 0, 55, 53
3, 2610, Note_on_c, 0, 59, 53
3, 2610, Note_on_c, 0, 62, 53
3, 2654, Note_on_c, 0, 62, 0
3, 2654, Note_on_c, 0, 59, 0
3, 2654, Note_on_c, 0, 55, 0
3, 2700, Note_on_c, 0, 55, 55
3, 2700, Note_on_c, 0, 59, 55
3, 2700, Note_on_c, 0, 62, 55
3, 2700, Note_on_c, 0, 38, 73
3, 2700, Note_on_c, 0, 50, 73
3, 2744, Note_on_c, 0, 62, 0
3, 2744, Note_on_c, 0, 55, 0
3, 2744, Note_on_c, 0, 59, 0
3, 2790, Note_on_c, 0, 55, 53
3, 2790, Note_on_c, 0, 59, 53
3, 2790, Note_on_c, 0, 62, 53
3, 2834, Note_on_c, 0, 62, 0
3, 2834, Note_on_c, 0, 55, 0
3, 2834, Note_on_c, 0, 59, 0
3, 2880, Note_on_c, 0, 38, 0
3, 2880, Note_on_c, 0, 50, 0
3, 2880, Note_on_c, 0, 55, 58
3, 2880, Note_on_c, 0, 59, 58
3, 2880, Note_on_c, 0, 62, 58
3, 2924, Note_on_c, 0, 62, 0
3, 2924, Note_on_c, 0, 59, 0
3, 2924, Note_on_c, 0, 55, 0
3, 2970, Note_on_c, 0, 55, 57
3, 2970, Note_on_c, 0, 59, 57
3, 2970, Note_on_c, 0, 62, 57
3, 3014, Note_on_c, 0, 62, 0
3, 3014, Note_on_c, 0, 59, 0
3, 3014, Note_on_c, 0, 55, 0
3, 3060, Note_on_c, 0, 55, 55
3, 3060, Note_on_c, 0, 59, 55
3, 3104, Note_on_c, 0, 59, 0
3, 3104, Note_on_c, 0, 55, 0
3, 3150, Note_on_c, 0, 55, 52
3, 3150, Note_on_c, 0, 59, 52
3, 3194, Note_on_c, 0, 59, 0
3, 3194, Note_on_c, 0, 55, 0
3, 3240, Note_on_c, 0, 55, 54
3, 3240, Note_on_c, 0, 59, 54
3, 3240, Note_on_c, 0, 43, 75
3, 3284, Note_on_c, 0, 59, 0
3, 3284, Note_on_c, 0, 55, 0
3, 3330, Note_on_c, 0, 55, 55
3, 3330, Note_on_c, 0, 59, 55
3, 3374, Note_on_c, 0, 59, 0
3, 3374, Note_on_c, 0, 55, 0
3, 3420, Note_on_c, 0, 43, 0
3, 3420, Note_on_c, 0, 55, 56
3, 3420, Note_on_c, 0, 59, 56
3, 3464, Note_on_c, 0, 59, 0
3, 3464, Note_on_c, 0, 55, 0
3, 3510, Note_on_c, 0, 55, 56
3, 3510, Note_on_c, 0, 59, 56
3, 3554, Note_on_c, 0, 59, 0
3, 3554, Note_on_c, 0, 55, 0
3, 3600, Note_on_c, 0, 55, 55
3, 3600, Note_on_c, 0, 59, 55
3, 3644, Note_on_c, 0, 59, 0
3, 3644, Note_on_c, 0, 55, 0
3, 3690, Note_on_c, 0, 55, 58
3, 3690, Note_on_c, 0, 59, 58
3, 3734, Note_on_c, 0, 59, 0
3, 3734, Note_on_c, 0, 55, 0
3, 3780, Note_on_c, 0, 55, 59
3, 3780, Note_on_c, 0, 59, 59
3, 3780, Note_on_c, 0, 62, 59
3, 3780, Note_on_c, 0, 38, 69
3, 3780, Note_on_c, 0, 50, 69
3, 3824, Note_on_c, 0, 62, 0
3, 3824, Note_on_c, 0, 55, 0
3, 3824, Note_on_c, 0, 59, 0
3, 3870, Note_on_c, 0, 55, 56
3, 3870, Note_on_c, 0, 59, 56
3, 3870, Note_on_c, 0, 62, 56
3, 3914, Note_on_c, 0, 62, 0
3, 3914, Note_on_c, 0, 55, 0
3, 3914, Note_on_c, 0, 59, 0
3, 3960, Note_on_c, 0, 38, 0
3, 3960, Note_on_c, 0, 50, 0
3, 3960, Note_on_c, 0, 55, 58
3, 3960, Note_on_c, 0, 59, 58
3, 3960, Note_on_c, 0, 62, 58
3, 4004, Note_on_c, 0, 62, 0
3, 4004, Note_on_c, 0, 59, 0
3, 4004, Note_on_c, 0, 55, 0
3, 4050, Note_on_c, 0, 55, 50
3, 4050, Note_on_c, 0, 59, 50
3, 4050, Note_on_c, 0, 62, 50
3, 4094, Note_on_c, 0, 62, 0
3, 4094, Note_on_c, 0, 59, 0
3, 4094, Note_on_c, 0, 55, 0
3, 4140, Note_on_c, 0, 55, 54
3, 4140, Note_on_c, 0, 59, 54
3, 4140, Note_on_c, 0, 62, 54
3, 4184, Note_on_c, 0, 62, 0
3, 4184, Note_on_c, 0, 59, 0
3, 4184, Note_on_c, 0, 55, 0
3, 4230, Note_on_c, 0, 55, 59
3, 4230, Note_on_c, 0, 59, 59
3, 4230, Note_on_c, 0, 62, 59
3, 4274, Note_on_c, 0, 62, 0
3, 4274, Note_on_c, 0, 59, 0
3, 4274, Note_on_c, 0, 55, 0
3, 4320, Note_on_c, 0, 55, 57
3, 4320, Note_on_c, 0, 59, 57
3, 4320, Note_on_c, 0, 62, 57
3, 4320, Note_on_c, 0, 31, 74
3, 4320, Note_on_c, 0, 43, 74
3, 4364, Note_on_c, 0, 62, 0
3, 4364, Note_on_c, 0, 55, 0
3, 4364, Note_on_c, 0, 59, 0
3, 4410, Note_on_c, 0, 55, 58
3, 4410, Note_on_c, 0, 59, 58
3, 4410, Note_on_c, 0, 62, 58
3, 4454, Note_on_c, 0, 62, 0
3, 4454, Note_on_c, 0, 55, 0
3, 4454, Note_on_c, 0, 59, 0
3, 4500, Note_on_c, 0, 31, 0
3, 4500, Note_on_c, 0, 43, 0
3, 4500, Note_on_c, 0, 55, 55
3, 4500, Note_on_c, 0, 59, 55
3, 4500, Note_on_c, 0, 62, 55
3, 4544, Note_on_c, 0, 62, 0
3, 4544, Note_on_c, 0, 59, 0
3, 4544, Note_on_c, 0, 55, 0
3, 4590, Note_on_c, 0, 55, 56
3, 4590, Note_on_c, 0, 59, 56
3, 4590, Note_on_c, 0, 62, 56
3, 4634, Note_on_c, 0, 62, 0
3, 4634, Note_on_c, 0, 59, 0
3, 4634, Note_on_c, 0, 55, 0
3, 4680, Note_on_c, 0, 55, 53
3, 4680, Note_on_c, 0, 59, 53
3, 4680, Note_on_c, 0, 62, 53
3, 4724, Note_on_c, 0, 62, 0
3, 4724, Note_on_c, 0, 59, 0
3, 4724, Note_on_c, 0, 55, 0
3, 4770, Note_on_c, 0, 55, 55
3, 4770, Note_on_c, 0, 59, 55
3, 4770, Note_on_c, 0, 62, 55
3, 4814, Note_on_c, 0, 62, 0
3, 4814, Note_on_c, 0, 59, 0
3, 4814, Note_on_c, 0, 55, 0
3, 4860, Note_on_c, 0, 55, 55
3, 4860, Note_on_c, 0, 59, 55
3, 4860, Note_on_c, 0, 62, 55
3, 4860, Note_on_c, 0, 38, 74
3, 4860, Note_on_c, 0, 50, 74
3, 4904, Note_on_c, 0, 62, 0
3, 4904, Note_on_c, 0, 55, 0
3, 4904, Note_on_c, 0, 59, 0
3, 4950, Note_on_c, 0, 55, 57
3, 4950, Note_on_c, 0, 59, 57
3, 4950, Note_on_c, 0, 62, 57
3, 4994, Note_on_c, 0, 62, 0
3, 4994, Note_on_c, 0, 55, 0
3, 4994, Note_on_c, 0, 59, 0
3, 5040, Note_on_c, 0, 38, 0
3, 5040, Note_on_c, 0, 50, 0
3, 5040, Note_on_c, 0, 55, 55
3, 5040, Note_on_c, 0, 59, 55
3, 5040, Note_on_c, 0, 62, 55
3, 5084, Note_on_c, 0, 62, 0
3, 5084, Note_on_c, 0, 59, 0
3, 5084, Note_on_c, 0, 55, 0
3, 5130, Note_on_c, 0, 55, 53
3, 5130, Note_on_c, 0, 59, 53
3, 5130, Note_on_c, 0, 62, 53
3, 5174, Note_on_c, 0, 62, 0
3, 5174, Note_on_c, 0, 59, 0
3, 5174, Note_on_c, 0, 55, 0
3, 5220, Note_on_c, 0, 55, 56
3, 5220, Note_on_c, 0, 59, 56
3, 5220, Note_on_c, 0, 62, 56
3, 5264, Note_on_c, 0, 62, 0
3, 5264, Note_on_c, 0, 59, 0
3, 5264, Note_on_c, 0, 55, 0
3, 5310, Note_on_c, 0, 55, 57
3, 5310, Note_on_c, 0, 59, 57
3, 5310, Note_on_c, 0, 62, 57
3, 5354, Note_on_c, 0, 62, 0
3, 5354, Note_on_c, 0, 59, 0
3, 5354, Note_on_c, 0, 55, 0
3, 5400, Note_on_c, 0, 62, 66
3, 5400, Note_on_c, 0, 43, 69
3, 5400, Note_on_c, 0, 55, 69
3, 5580, Note_on_c, 0, 55, 0
3, 5580, Note_on_c, 0, 43, 0
3, 5760, Note_on_c, 0, 62, 0
3, 5760, Note_on_c, 0, 60, 64
3, 5940, Note_on_c, 0, 40, 74
3, 5940, Note_on_c, 0, 52, 74
3, 6120, Note_on_c, 0, 52, 0
3, 6120, Note_on_c, 0, 40, 0
3, 6480, Note_on_c, 0, 60, 0
3, 6480, Note_on_c, 0, 59, 62
3, 6480, Note_on_c, 0, 31, 70
3, 6480, Note_on_c, 0, 43, 70
3, 6660, Note_on_c, 0, 43, 0
3, 6660, Note_on_c, 0, 31, 0
3, 6840, Note_on_c, 0, 59, 0
3, 6840, Note_on_c, 0, 57, 61
3, 7020, Note_on_c, 0, 38, 69
3, 7020, Note_on_c, 0, 50, 69
3, 7200, Note_on_c, 0, 50, 0
3, 7200, Note_on_c, 0, 38, 0
3, 7200, Note_on_c, 0, 57, 0
3, 7200, Note_on_c, 0, 56, 66
3, 7560, Note_on_c, 0, 56, 0
3, 7560, Note_on_c, 0, 57, 66
3, 7560, Note_on_c, 0, 43, 74
3, 7560, Note_on_c, 0, 55, 74
3, 7740, Note_on_c, 0, 55, 0
3, 7740, Note_on_c, 0, 43, 0
3, 7920, Note_on_c, 0, 57, 0
3, 7920, Note_on_c, 0, 59, 71
3, 8100, Note_on_c, 0, 40, 71
3, 8100, Note_on_c, 0, 52, 71
3, 8280, Note_on_c, 0, 52, 0
3, 8280, Note_on_c, 0, 40, 0
3, 8280, Note_on_c, 0, 59, 0
3, 8280, Note_on_c, 0, 60, 68
3, 8640, Note_on_c, 0, 60, 0
3, 8640, Note_on_c, 0, 64, 73
3, 8640, Note_on_c, 0, 31, 70
3, 8640, Note_on_c, 0, 43, 70
3, 8820, Note_on_c, 0, 43, 0
3, 8820, Note_on_c, 0, 31, 0
3, 9000, Note_on_c, 0, 64, 0
3, 9000, Note_on_c, 0, 62, 70
3, 9180, Note_on_c, 0, 38, 73
3, 9180, Note_on_c, 0, 50, 73
3, 9360, Note_on_c, 0, 50, 0
3, 9360, Note_on_c, 0, 38, 0
3, 9360, Note_on_c, 0, 62, 0
3, 9360, Note_on_c, 0, 61, 63
3, 9720, Note_on_c, 0, 61, 0
3, 9720, Note_on_c, 0, 62, 69
3, 9720, Note_on_c, 0, 43, 74
3, 9720, Note_on_c, 0, 55, 74
3, 9900, Note_on_c, 0, 55, 0
3, 9900, Note_on_c, 0, 43, 0
3, 10260, Note_on_c, 0, 62, 0
3, 10260, Note_on_c, 0, 62, 68
3, 10260, Note_on_c, 0, 40, 79
3, 10260, Note_on_c, 0, 52, 79
3, 10440, Note_on_c, 0, 52, 0
3, 10440, Note_on_c, 0, 40, 0
3, 10440, Note_on_c, 0, 62, 0
3, 10440, Note_on_c, 0, 64, 70
3, 10620, Note_on_c, 0, 64, 0
3, 10620, Note_on_c, 0, 62, 66
3, 10800, Note_on_c, 0, 62, 0
3, 10800, Note_on_c, 0, 55, 55
3, 10800, Note_on_c, 0, 59, 55
3, 10800, Note_on_c, 0, 62, 55
3, 10800, Note_on_c, 0, 31, 70
3, 10800, Note_on_c, 0, 43, 70
3, 10844, Note_on_c, 0, 62, 0
3, 10844, Note_on_c, 0, 55, 0
3, 10844, Note_on_c, 0, 59, 0
3, 10890, Note_on_c, 0, 55, 54
3, 10890, Note_on_c, 0, 59, 54
3, 10890, Note_on_c, 0, 62, 54
3, 10934, Note_on_c, 0, 62, 0
3, 10934, Note_on_c, 0, 55, 0
3, 10934, Note_on_c, 0, 59, 0
3, 10980, Note_on_c, 0, 31, 0
3, 10980, Note_on_c, 0, 43, 0
3, 10980, Note_on_c, 0, 55, 56
3, 10980, Note_on_c, 0, 59, 56
3, 10980, Note_on_c, 0, 62, 56
3, 11024, Note_on_c, 0, 62, 0
3, 11024, Note_on_c, 0, 59, 0
3, 11024, Note_on_c, 0, 55, 0
3, 11070, Note_on_c, 0, 55, 57
3, 11070, Note_on_c, 0, 59, 57
3, 11070, Note_on_c, 0, 62, 57
3, 11114, Note_on_c, 0, 62, 0
3, 11114, Note_on_c, 0, 59, 0
3, 11114, Note_on_c, 0, 55, 0
3, 11160, Note_on_c, 0, 55, 53
3, 11160, Note_on_c, 0, 59, 53
3, 11160, Note_on_c, 0, 62, 53
3, 11204, Note_on_c, 0, 62, 0
3, 11204, Note_on_c, 0, 59, 0
3, 11204, Note_on_c, 0, 55, 0
3, 11250, Note_on_c, 0, 55, 54
3, 11250, Note_on_c, 0, 59, 54
3, 11250, Note_on_c, 0, 62, 54
3, 11294, Note_on_c, 0, 62, 0
3, 11294, Note_on_c, 0, 59, 0
3, 11294, Note_on_c, 0, 55, 0
3, 11340, Note_on_c, 0, 55, 57
3, 11340, Note_on_c, 0, 59, 57
3, 11340, Note_on_c, 0, 62, 57
3, 11340, Note_on_c, 0, 38, 73
3, 11340, Note_on_c, 0, 50, 73
3, 11384, Note_on_c, 0, 62, 0
3, 11384, Note_on_c, 0, 55, 0
3, 11384, Note_on_c, 0, 59, 0
3, 11430, Note_on_c, 0, 55, 57
3, 11430, Note_on_c, 0, 59, 57
3, 11430, Note_on_c, 0, 62, 57
3, 11474, Note_on_c, 0, 62, 0
3, 11474, Note_on_c, 0, 55, 0
3, 11474, Note_on_c, 0, 59, 0
3, 11520, Note_on_c, 0, 38, 0
3, 11520, Note_on_c, 0, 50, 0
3, 11520, Note_on_c, 0, 55, 54
3, 11520, Note_on_c, 0, 59, 54
3, 11520, Note_on_c, 0, 62, 54
3, 11564, Note_on_c, 0, 62, 0
3, 11564, Note_on_c, 0, 59, 0
3, 11564, Note_on_c, 0, 55, 0
3, 11610, Note_on_c, 0, 55, 57
3, 11610, Note_on_c, 0, 59, 57
3, 11610, Note_on_c, 0, 62, 57
3, 11654, Note_on_c, 0, 62, 0
3, 11654, Note_on_c, 0, 59, 0
3, 11654, Note_on_c, 0, 55, 0
3, 11700, Note_on_c, 0, 55, 52
3, 11700, Note_on_c, 0, 59, 52
3, 11744, Note_on_c, 0, 59, 0
3, 11744, Note_on_c, 0, 55, 0
3, 11790, Note_on_c, 0, 55, 59
3, 11790, Note_on_c, 0, 59, 59
3, 11834, Note_on_c, 0, 59, 0
3, 11834, Note_on_c, 0, 55, 0
3, 11880, Note_on_c, 0, 55, 59
3, 11880, Note_on_c, 0, 59, 59
3, 11880, Note_on_c, 0, 43, 71
3, 11924, Note_on_c, 0, 59, 0
3, 11924, Note_on_c, 0, 55, 0
3, 11970, Note_on_c, 0, 55, 58
3, 11970, Note_on_c, 0, 59, 58
3, 12014, Note_on_c, 0, 59, 0
3, 12014, Note_on_c, 0, 55, 0
3, 12060, Note_on_c, 0, 43, 0
3, 12060, Note_on_c, 0, 55, 57
3, 12060, Note_on_c, 0, 59, 57
3, 12104, Note_on_c, 0, 59, 0
3, 12104, Note_on_c, 0, 55, 0
3, 12150, Note_on_c, 0, 55, 53
3, 12150, Note_on_c, 0, 59, 53
3, 12194, Note_on_c, 0, 59, 0
3, 12194, Note_on_c, 0, 55, 0
3, 12240, Note_on_c, 0, 55, 60
3, 12240, Note_on_c, 0, 59, 60
3, 12284, Note_on_c, 0, 59, 0
3, 12284, Note_on_c, 0, 55, 0
3, 12330, Note_on_c, 0, 55, 54
3, 12330, Note_on_c, 0, 59, 54
3, 12374, Note_on_c, 0, 59, 0
3, 12374, Note_on_c, 0, 55, 0
3, 12420, Note_on_c, 0, 55, 59
3, 12420, Note_on_c, 0, 59, 59
3, 12420, Note_on_c, 0, 62, 59
3, 12420, Note_on_c, 0, 38, 74
3, 12420, Note_on_c, 0, 50, 74
3, 12464, Note_on_c, 0, 62, 0
3, 12464, Note_on_c, 0, 55, 0
3, 12464, Note_on_c, 0, 59, 0
3, 12510, Note_on_c, 0, 55, 53
3, 12510, Note_on_c, 0, 59, 53
3, 12510, Note_on_c, 0, 62, 53
3, 12554, Note_on_c, 0, 62, 0
3, 12554, Note_on_c, 0, 55, 0
3, 12554, Note_on_c, 0, 59, 0
3, 12600, Note_on_c, 0, 38, 0
3, 12600, Note_on_c, 0, 50, 0
3, 12600, Note_on_c, 0, 55, 58
3, 12600, Note_on_c, 0, 59, 58
3, 12600, Note_on_c, 0, 62, 58
3, 12644, Note_on_c, 0, 62, 0
3, 12644, Note_on_c, 0, 59, 0
3, 12644, Note_on_c, 0, 55, 0
3, 12690, Note_on_c, 0, 55, 54
3, 12690, Note_on_c, 0, 59, 54
3, 12690, Note_on_c, 0, 62, 54
3, 12734, Note_on_c, 0, 62, 0
3, 12734, Note_on_c, 0, 59, 0
3, 12734, Note_on_c, 0, 55, 0
3, 12780, Note_on_c, 0, 55, 56
3, 12780, Note_on_c, 0, 59, 56
3, 12780, Note_on_c, 0, 62, 56
3, 12824, Note_on_c, 0, 62, 0
3, 12824, Note_on_c, 0, 59, 0
3, 12824, Note_on_c, 0, 55, 0
3, 12870, Note_on_c, 0, 55, 55
3, 12870, Note_on_c, 0, 59, 55
3, 12870, Note_on_c, 0, 62, 55
3, 12914, Note_on_c, 0, 62, 0
3, 12914, Note_on_c, 0, 59, 0
3, 12914, Note_on_c, 0, 55, 0
3, 12960, Note_on_c, 0, 55, 55
3, 12960, Note_on_c, 0, 59, 55
3, 12960, Note_on_c, 0, 62, 55
3, 12960, Note_on_c, 0, 31, 69
3, 12960, Note_on_c, 0, 43, 69
3, 13004, Note_on_c, 0, 62, 0
3, 13004, Note_on_c, 0, 55, 0
3, 13004, Note_on_c, 0, 59, 0
3, 13050, Note_on_c, 0, 55, 58
3, 13050, Note_on_c, 0, 59, 58
3, 13050, Note_on_c, 0, 62, 58
3, 13094, Note_on_c, 0, 62, 0
3, 13094, Note_on_c, 0, 55, 0
3, 13094, Note_on_c, 0, 59, 0
3, 13140, Note_on_c, 0, 31, 0
3, 13140, Note_on_c, 0, 43, 0
3, 13140, Note_on_c, 0, 55, 56
3, 13140, Note_on_c, 0, 59, 56
3, 13140, Note_on_c, 0, 62, 56
3, 13184, Note_on_c, 0, 62, 0
3, 13184, Note_on_c, 0, 59, 0
3, 13184, Note_on_c, 0, 55, 0
3, 13230, Note_on_c, 0, 55, 52
3, 13230, Note_on_c, 0, 59, 52
3, 13230, Note_on_c, 0, 62, 52
3, 13274, Note_on_c, 0, 62, 0
3, 13274, Note_on_c, 0, 59, 0
3, 13274, Note_on_c, 0, 55, 0
3, 13320, Note_on_c, 0, 55, 55
3, 13320, Note_on_c, 0, 59, 55
3, 13320, Note_on_c, 0, 62, 55
3, 13364, Note_on_c, 0, 62, 0
3, 13364, Note_on_c, 0, 59, 0
3, 13364, Note_on_c, 0, 55, 0
3, 13410, Note_on_c, 0, 55, 57
3, 13410, Note_on_c, 0, 59, 57
3, 13410, Note_on_c, 0, 62, 57
3, 13454, Note_on_c, 0, 62, 0
3, 13454, Note_on_c, 0, 59, 0
3, 13454, Note_on_c, 0, 55, 0
3, 13500, Note_on_c, 0, 55, 58
3, 13500, Note_on_c, 0, 59, 58
3, 13500, Note_on_c, 0, 62, 58
3, 13500, Note_on_c, 0, 38, 79
3, 13500, Note_on_c, 0, 50, 79
3, 13544, Note_on_c, 0, 62, 0
3, 13544, Note_on_c, 0, 55, 0
3, 13544, Note_on_c, 0, 59, 0
3, 13590, Note_on_c, 0, 55, 56
3, 13590, Note_on_c, 0, 59, 56
3, 13590, Note_on_c, 0, 62, 56
3, 13634, Note_on_c, 0, 62, 0
3, 13634, Note_on_c, 0, 55, 0
3, 13634, Note_on_c, 0, 59, 0
3, 13680, Note_on_c, 0, 38, 0
3, 13680, Note_on_c, 0, 50, 0
3, 13680, Note_on_c, 0, 55, 53
3, 13680, Note_on_c, 0, 59, 53
3, 13680, Note_on_c, 0, 62, 53
3, 13724, Note_on_c, 0, 62, 0
3, 13724, Note_on_c, 0, 59, 0
3, 13724, Note_on_c, 0, 55, 0
3, 13770, Note_on_c, 0, 55, 60
3, 13770, Note_on_c, 0, 59, 60
3, 13770, Note_on_c, 0, 62, 60
3, 13814, Note_on_c, 0, 62, 0
3, 13814, Note_on_c, 0, 59, 0
3, 13814, Note_on_c, 0, 55, 0
3, 13860, Note_on_c, 0, 55, 54
3, 13860, Note_on_c, 0, 59, 54
3, 13904, Note_on_c, 0, 59, 0
3, 13904, Note_on_c, 0, 55, 0
3, 13950, Note_on_c, 0, 55, 55
3, 13950, Note_on_c, 0, 59, 55
3, 13994, Note_on_c, 0, 59, 0
3, 13994, Note_on_c, 0, 55, 0
3, 14040, Note_on_c, 0, 52, 50
3, 14040, Note_on_c, 0, 57, 50
3, 14040, Note_on_c, 0, 43, 76
3, 14040, Note_on_c, 0, 55, 76
3, 14084, Note_on_c, 0, 57, 0
3, 14084, Note_on_c, 0, 52, 0
3, 14130, Note_on_c, 0, 52, 59
3, 14130, Note_on_c, 0, 57, 59
3, 14174, Note_on_c, 0, 57, 0
3, 14174, Note_on_c, 0, 52, 0
3, 14220, Note_on_c, 0, 43, 0
3, 14220, Note_on_c, 0, 55, 0
3, 14220, Note_on_c, 0, 52, 55
3, 14220, Note_on_c, 0, 57, 55
3, 14264, Note_on_c, 0, 57, 0
3, 14264, Note_on_c, 0, 52, 0
3, 14310, Note_on_c, 0, 52, 52
3, 14310, Note_on_c, 0, 57, 52
3, 14354, Note_on_c, 0, 57, 0
3, 14354, Note_on_c, 0, 52, 0
3, 14400, Note_on_c, 0, 52, 56
3, 14400, Note_on_c, 0, 57, 56
3, 14444, Note_on_c, 0, 57, 0
3, 14444, Note_on_c, 0, 52, 0
3, 14490, Note_on_c, 0, 52, 57
3, 14490, Note_on_c, 0, 57, 57
3, 14534, Note_on_c, 0, 57, 0
3, 14534, Note_on_c, 0, 52, 0
3, 14580, Note_on_c, 0, 52, 52
3, 14580, Note_on_c, 0, 57, 52
3, 14580, Note_on_c, 0, 31, 73
3, 14580, Note_on_c, 0, 43, 73
3, 14624, Note_on_c, 0, 57, 0
3, 14624, Note_on_c, 0, 52, 0
3, 14670, Note_on_c, 0, 52, 57
3, 14670, Note_on_c, 0, 57, 57
3, 14714, Note_on_c, 0, 57, 0
3, 14714, Note_on_c, 0, 52, 0
3, 14760, Note_on_c, 0, 31, 0
3, 14760, Note_on_c, 0, 43, 0
3, 14760, Note_on_c, 0, 52, 55
3, 14760, Note_on_c, 0, 57, 55
3, 14804, Note_on_c, 0, 57, 0
3, 14804, Note_on_c, 0, 52, 0
3, 14850, Note_on_c, 0, 52, 55
3, 14850, Note_on_c, 0, 57, 55
3, 14894, Note_on_c, 0, 57, 0
3, 14894, Note_on_c, 0, 52, 0
3, 14940, Note_on_c, 0, 52, 58
3, 14940, Note_on_c, 0, 57, 58
3, 14984, Note_on_c, 0, 57, 0
3, 14984, Note_on_c, 0, 52, 0
3, 15030, Note_on_c, 0, 52, 56
3, 15030, Note_on_c, 0, 57, 56
3, 15074, Note_on_c, 0, 57, 0
3, 15074, Note_on_c, 0, 52, 0
3, 15120, Note_on_c, 0, 50, 55
3, 15120, Note_on_c, 0, 57, 55
3, 15120, Note_on_c, 0, 30, 70
3, 15120, Note_on_c, 0, 42, 70
3, 15164, Note_on_c, 0, 57, 0
3, 15164, Note_on_c, 0, 50, 0
3, 15210, Note_on_c, 0, 50, 57
3, 15210, Note_on_c, 0, 57, 57
3, 15254, Note_on_c, 0, 57, 0
3, 15254, Note_on_c, 0, 50, 0
3, 15300, Note_on_c, 0, 30, 0
3, 15300, Note_on_c, 0, 42, 0
3, 15300, Note_on_c, 0, 50, 60
3, 15300, Note_on_c, 0, 57, 60
3, 15344, Note_on_c, 0, 57, 0
3, 15344, Note_on_c, 0, 50, 0
3, 15390, Note_on_c, 0, 50, 62
3, 15390, Note_on_c, 0, 57, 62
3, 15434, Note_on_c, 0, 57, 0
3, 15434, Note_on_c, 0, 50, 0
3, 15480, Note_on_c, 0, 50, 64
3, 15480, Note_on_c, 0, 57, 64
3, 15524, Note_on_c, 0, 57, 0
3, 15524, Note_on_c, 0, 50, 0
3, 15570, Note_on_c, 0, 50, 66
3, 15570, Note_on_c, 0, 57, 66
3, 15614, Note_on_c, 0, 57, 0
3, 15614, Note_on_c, 0, 50, 0
3, 15660, Note_on_c, 0, 57, 68
3, 15660, Note_on_c, 0, 62, 68
3, 15660, Note_on_c, 0, 42, 71
3, 15660, Note_on_c, 0, 54, 71
3, 15704, Note_on_c, 0, 62, 0
3, 15704, Note_on_c, 0, 57, 0
3, 15750, Note_on_c, 0, 57, 70
3, 15750, Note_on_c, 0, 62, 70
3, 15794, Note_on_c, 0, 62, 0
3, 15794, Note_on_c, 0, 57, 0
3, 15840, Note_on_c, 0, 42, 0
3, 15840, Note_on_c, 0, 54, 0
3, 15840, Note_on_c, 0, 57, 72
3, 15840, Note_on_c, 0, 62, 72
3, 15884, Note_on_c, 0, 62, 0
3, 15884, Note_on_c, 0, 57, 0
3, 15930, Note_on_c, 0, 57, 74
3, 15930, Note_on_c, 0, 62, 74
3, 15974, Note_on_c, 0, 62, 0
3, 15974, Note_on_c, 0, 57, 0
3, 16020, Note_on_c, 0, 57, 76
3, 16020, Note_on_c, 0, 62, 76
3, 16064, Note_on_c, 0, 62, 0
3, 16064, Note_on_c, 0, 57, 0
3, 16110, Note_on_c, 0, 57, 79
3, 16110, Note_on_c, 0, 62, 79
3, 16154, Note_on_c, 0, 62, 0
3, 16154, Note_on_c, 0, 57, 0
3, 16200, Note_on_c, 0, 59, 81
3, 16200, Note_on_c, 0, 64, 81
3, 16200, Note_on_c, 0, 28, 74
3, 16200, Note_on_c, 0, 40, 74
3, 16244, Note_on_c, 0, 64, 0
3, 16244, Note_on_c, 0, 59, 0
3, 16290, Note_on_c, 0, 59, 81
3, 16290, Note_on_c, 0, 64, 81
3, 16334, Note_on_c, 0, 64, 0
3, 16334, Note_on_c, 0, 59, 0
3, 16380, Note_on_c, 0, 28, 0
3, 16380, Note_on_c, 0, 40, 0
3, 16380, Note_on_c, 0, 59, 80
3, 16380, Note_on_c, 0, 64, 80
3, 16424, Note_on_c, 0, 64, 0
3, 16424, Note_on_c, 0, 59, 0
3, 16470, Note_on_c, 0, 59, 78
3, 16470, Note_on_c, 0, 64, 78
3, 16514, Note_on_c, 0, 64, 0
3, 16514, Note_on_c, 0, 59, 0
3, 16560, Note_on_c, 0, 59, 78
3, 16560, Note_on_c, 0, 64, 78
3, 16604, Note_on_c, 0, 64, 0
3, 16604, Note_on_c, 0, 59, 0
3, 16650, Note_on_c, 0, 59, 86
3, 16650, Note_on_c, 0, 64, 86
3, 16694, Note_on_c, 0, 64, 0
3, 16694, Note_on_c, 0, 59, 0
3, 16740, Note_on_c, 0, 55, 70
3, 16740, Note_on_c, 0, 59, 70
3, 16740, Note_on_c, 0, 40, 74
3, 16740, Note_on_c, 0, 52, 74
3, 16784, Note_on_c, 0, 59, 0
3, 16784, Note_on_c, 0, 55, 0
3, 16830, Note_on_c, 0, 55, 84
3, 16830, Note_on_c, 0, 59, 84
3, 16874, Note_on_c, 0, 59, 0
3, 16874, Note_on_c, 0, 55, 0
3, 16920, Note_on_c, 0, 40, 0
3, 16920, Note_on_c, 0, 52, 0
3, 16920, Note_on_c, 0, 55, 84
3, 16920, Note_on_c, 0, 59, 84
3, 16964, Note_on_c, 0, 59, 0
3, 16964, Note_on_c, 0, 55, 0
3, 17010, Note_on_c, 0, 55, 83
3, 17010, Note_on_c, 0, 59, 83
3, 17054, Note_on_c, 0, 59, 0
3, 17054, Note_on_c, 0, 55, 0
3, 17100, Note_on_c, 0, 55, 80
3, 17100, Note_on_c, 0, 59, 80
3, 17144, Note_on_c, 0, 59, 0
3, 17144, Note_on_c, 0, 55, 0
3, 17190, Note_on_c, 0, 55, 81
3, 17190, Note_on_c, 0, 59, 81
3, 17234, Note_on_c, 0, 59, 0
3, 17234, Note_on_c, 0, 55, 0
3, 17280, Note_on_c, 0, 55, 84
3, 17280, Note_on_c, 0, 57, 84
3, 17280, Note_on_c, 0, 61, 84
3, 17280, Note_on_c, 0, 33, 65
3, 17280, Note_on_c, 0, 45, 65
3, 17324, Note_on_c, 0, 61, 0
3, 17324, Note_on_c, 0, 55, 0
3, 17324, Note_on_c, 0, 57, 0
3, 17370, Note_on_c, 0, 55, 75
3, 17370, Note_on_c, 0, 57, 75
3, 17370, Note_on_c, 0, 61, 75
3, 17414, Note_on_c, 0, 61, 0
3, 17414, Note_on_c, 0, 55, 0
3, 17414, Note_on_c, 0, 57, 0
3, 17460, Note_on_c, 0, 33, 0
3, 17460, Note_on_c, 0, 45, 0
3, 17460, Note_on_c, 0, 55, 83
3, 17460, Note_on_c, 0, 57, 83
3, 17460, Note_on_c, 0, 61, 83
3, 17504, Note_on_c, 0, 61, 0
3, 17504, Note_on_c, 0, 57, 0
3, 17504, Note_on_c, 0, 55, 0
3, 17550, Note_on_c, 0, 55, 83
3, 17550, Note_on_c, 0, 57, 83
3, 17550, Note_on_c, 0, 61, 83
3, 17594, Note_on_c, 0, 61, 0
3, 17594, Note_on_c, 0, 57, 0
3, 17594, Note_on_c, 0, 55, 0
3, 17640, Note_on_c, 0, 55, 81
3, 17640, Note_on_c, 0, 57, 81
3, 17640, Note_on_c, 0, 61, 81
3, 17684, Note_on_c, 0, 61, 0
3, 17684, Note_on_c, 0, 57, 0
3, 17684, Note_on_c, 0, 55, 0
3, 17730, Note_on_c, 0, 55, 83
3, 17730, Note_on_c, 0, 57, 83
3, 17730, Note_on_c, 0, 61, 83
3, 17774, Note_on_c, 0, 61, 0
3, 17774, Note_on_c, 0, 57, 0
3, 17774, Note_on_c, 0, 55, 0
3, 17820, Note_on_c, 0, 55, 85
3, 17820, Note_on_c, 0, 57, 85
3, 17820, Note_on_c, 0, 61, 85
3, 17820, Note_on_c, 0, 33, 70
3, 17820, Note_on_c, 0, 45, 70
3, 17864, Note_on_c, 0, 61, 0
3, 17864, Note_on_c, 0, 55, 0
3, 17864, Note_on_c, 0, 57, 0
3, 17910, Note_on_c, 0, 55, 80
3, 17910, Note_on_c, 0, 57, 80
3, 17910, Note_on_c, 0, 61, 80
3, 17954, Note_on_c, 0, 61, 0
3, 17954, Note_on_c, 0, 55, 0
3, 17954, Note_on_c, 0, 57, 0
3, 18000, Note_on_c, 0, 33, 0
3, 18000, Note_on_c, 0, 45, 0
3, 18000, Note_on_c, 0, 55, 83
3, 18000, Note_on_c, 0, 57, 83
3, 18000, Note_on_c, 0, 61, 83
3, 18044, Note_on_c, 0, 61, 0
3, 18044, Note_on_c, 0, 57, 0
3, 18044, Note_on_c, 0, 55, 0
3, 18090, Note_on_c, 0, 55, 80
3, 18090, Note_on_c, 0, 57, 80
3, 18090, Note_on_c, 0, 61, 80
3, 18134, Note_on_c, 0, 61, 0
3, 18134, Note_on_c, 0, 57, 0
3, 18134, Note_on_c, 0, 55, 0
3, 18180, Note_on_c, 0, 55, 79
3, 18180, Note_on_c, 0, 57, 79
3, 18180, Note_on_c, 0, 61, 79
3, 18224, Note_on_c, 0, 61, 0
3, 18224, Note_on_c, 0, 57, 0
3, 18224, Note_on_c, 0, 55, 0
3, 18270, Note_on_c, 0, 55, 85
3, 18270, Note_on_c, 0, 57, 85
3, 18270, Note_on_c, 0, 61, 85
3, 18314, Note_on_c, 0, 61, 0
3, 18314, Note_on_c, 0, 57, 0
3, 18314, Note_on_c, 0, 55, 0
3, 18360, Note_on_c, 0, 54, 76
3, 18360, Note_on_c, 0, 57, 76
3, 18360, Note_on_c, 0, 38, 77
3, 18360, Note_on_c, 0, 50, 77
3, 18404, Note_on_c, 0, 57, 0
3, 18404, Note_on_c, 0, 54, 0
3, 18450, Note_on_c, 0, 54, 81
3, 18450, Note_on_c, 0, 57, 81
3, 18494, Note_on_c, 0, 57, 0
3, 18494, Note_on_c, 0, 54, 0
3, 18540, Note_on_c, 0, 38, 0
3, 18540, Note_on_c, 0, 50, 0
3, 18540, Note_on_c, 0, 54, 83
3, 18540, Note_on_c, 0, 57, 83
3, 18584, Note_on_c, 0, 57, 0
3, 18584, Note_on_c, 0, 54, 0
3, 18630, Note_on_c, 0, 54, 76
3, 18630, Note_on_c, 0, 57, 76
3, 18674, Note_on_c, 0, 57, 0
3, 18674, Note_on_c, 0, 54, 0
3, 18720, Note_on_c, 0, 54, 78
3, 18720, Note_on_c, 0, 57, 78
3, 18764, Note_on_c, 0, 57, 0
3, 18764, Note_on_c, 0, 54, 0
3, 18810, Note_on_c, 0, 54, 76
3, 18810, Note_on_c, 0, 57, 76
3, 18854, Note_on_c, 0, 57, 0
3, 18854, Note_on_c, 0, 54, 0
3, 18900, Note_on_c, 0, 54, 82
3, 18900, Note_on_c, 0, 57, 82
3, 18944, Note_on_c, 0, 57, 0
3, 18944, Note_on_c, 0, 54, 0
3, 18990, Note_on_c, 0, 54, 81
3, 18990, Note_on_c, 0, 57, 81
3, 19034, Note_on_c, 0, 57, 0
3, 19034, Note_on_c, 0, 54, 0
3, 19080, Note_on_c, 0, 54, 84
3, 19080, Note_on_c, 0, 57, 84
3, 19124, Note_on_c, 0, 57, 0
3, 19124, Note_on_c, 0, 54, 0
3, 19170, Note_on_c, 0, 54, 85
3, 19170, Note_on_c, 0, 57, 85
3, 19214, Note_on_c, 0, 57, 0
3, 19214, Note_on_c, 0, 54, 0
3, 19260, Note_on_c, 0, 54, 81
3, 19260, Note_on_c, 0, 57, 81
3, 19304, Note_on_c, 0, 57, 0
3, 19304, Note_on_c, 0, 54, 0
3, 19350, Note_on_c, 0, 54, 84
3, 19350, Note_on_c, 0, 57, 84
3, 19394, Note_on_c, 0, 57, 0
3, 19394, Note_on_c, 0, 54, 0
3, 19440, Note_on_c, 0, 54, 87
3, 19440, Note_on_c, 0, 62, 87
3, 19440, Note_on_c, 0, 50, 75
3, 19440, Note_on_c, 0, 38, 75
3, 19530, Note_on_c, 0, 50, 0
3, 19530, Note_on_c, 0, 50, 82
3, 19620, Note_on_c, 0, 50, 0
3, 19620, Note_on_c, 0, 50, 81
3, 19710, Note_on_c, 0, 50, 0
3, 19710, Note_on_c, 0, 50, 81
3, 19800, Note_on_c, 0, 50, 0
3, 19800, Note_on_c, 0, 54, 0
3, 19800, Note_on_c, 0, 62, 0
3, 19800, Note_on_c, 0, 52, 81
3, 19800, Note_on_c, 0, 55, 81
3, 19800, Note_on_c, 0, 64, 81
3, 19800, Note_on_c, 0, 50, 86
3, 19890, Note_on_c, 0, 50, 0
3, 19890, Note_on_c, 0, 50, 82
3, 19980, Note_on_c, 0, 50, 0
3, 19980, Note_on_c, 0, 50, 84
3, 20070, Note_on_c, 0, 50, 0
3, 20070, Note_on_c, 0, 50, 82
3, 20160, Note_on_c, 0, 50, 0
3, 20160, Note_on_c, 0, 64, 0
3, 20160, Note_on_c, 0, 55, 0
3, 20160, Note_on_c, 0, 52, 0
3, 20160, Note_on_c, 0, 53, 79
3, 20160, Note_on_c, 0, 56, 79
3, 20160, Note_on_c, 0, 65, 79
3, 20160, Note_on_c, 0, 50, 78
3, 20250, Note_on_c, 0, 50, 0
3, 20250, Note_on_c, 0, 50, 84
3, 20340, Note_on_c, 0, 50, 0
3, 20340, Note_on_c, 0, 50, 82
3, 20430, Note_on_c, 0, 50, 0
3, 20430, Note_on_c, 0, 50, 78
3, 20520, Note_on_c, 0, 50, 0
3, 20520, Note_on_c, 0, 65, 0
3, 20520, Note_on_c, 0, 38, 0
3, 20520, Note_on_c, 0, 53, 0
3, 20520, Note_on_c, 0, 56, 0
3, 20520, Note_on_c, 0, 53, 75
3, 20520, Note_on_c, 0, 56, 75
3, 20520, Note_on_c, 0, 65, 75
3, 20520, Note_on_c, 0, 50, 82
3, 20520, Note_on_c, 0, 38, 74
3, 20610, Note_on_c, 0, 50, 0
3, 20610, Note_on_c, 0, 50, 81
3, 20700, Note_on_c, 0, 50, 0
3, 20700, Note_on_c, 0, 50, 84
3, 20790, Note_on_c, 0, 50, 0
3, 20790, Note_on_c, 0, 50, 84
3, 20880, Note_on_c, 0, 50, 0
3, 20880, Note_on_c, 0, 53, 0
3, 20880, Note_on_c, 0, 65, 0
3, 20880, Note_on_c, 0, 56, 0
3, 20880, Note_on_c, 0, 54, 80
3, 20880, Note_on_c, 0, 57, 80
3, 20880, Note_on_c, 0, 66, 80
3, 20880, Note_on_c, 0, 50, 80
3, 20970, Note_on_c, 0, 50, 0
3, 20970, Note_on_c, 0, 50, 83
3, 21060, Note_on_c, 0, 50, 0
3, 21060, Note_on_c, 0, 50, 79
3, 21150, Note_on_c, 0, 50, 0
3, 21150, Note_on_c, 0, 50, 85
3, 21240, Note_on_c, 0, 50, 0
3, 21240, Note_on_c, 0, 66, 0
3, 21240, Note_on_c, 0, 57, 0
3, 21240, Note_on_c, 0, 54, 0
3, 21240, Note_on_c, 0, 57, 62
3, 21240, Note_on_c, 0, 60, 62
3, 21240, Note_on_c, 0, 50, 78
3, 21330, Note_on_c, 0, 50, 0
3, 21330, Note_on_c, 0, 50, 80
3, 21420, Note_on_c, 0, 50, 0
3, 21420, Note_on_c, 0, 50, 80
3, 21510, Note_on_c, 0, 50, 0
3, 21510, Note_on_c, 0, 50, 79
3, 21600, Note_on_c, 0, 50, 0
3, 21600, Note_on_c, 0, 60, 0
3, 21600, Note_on_c, 0, 57, 0
3, 21600, Note_on_c, 0, 38, 0
3, 21600, Note_on_c, 0, 54, 77
3, 21600, Note_on_c, 0, 62, 77
3, 21600, Note_on_c, 0, 50, 81
3, 21600, Note_on_c, 0, 38, 79
3, 21690, Note_on_c, 0, 50, 0
3, 21690, Note_on_c, 0, 50, 78
3, 21780, Note_on_c, 0, 50, 0
3, 21780, Note_on_c, 0, 50, 77
3, 21870, Note_on_c, 0, 50, 0
3, 21870, Note_on_c, 0, 50, 78
3, 21960, Note_on_c, 0, 50, 0
3, 21960, Note_on_c, 0, 54, 0
3, 21960, Note_on_c, 0, 62, 0
3, 21960, Note_on_c, 0, 52, 80
3, 21960, Note_on_c, 0, 55, 80
3, 21960, Note_on_c, 0, 64, 80
3, 21960, Note_on_c, 0, 50, 80
3, 22050, Note_on_c, 0, 50, 0
3, 22050, Note_on_c, 0, 50, 85
3, 22140, Note_on_c, 0, 50, 0
3, 22140, Note_on_c, 0, 50, 79
3, 22230, Note_on_c, 0, 50, 0
3, 22230, Note_on_c, 0, 50, 78
3, 22320, Note_on_c, 0, 50, 0
3, 22320, Note_on_c, 0, 64, 0
3, 22320, Note_on_c, 0, 55, 0
3, 22320, Note_on_c, 0, 52, 0
3, 22320, Note_on_c, 0, 53, 74
3, 22320, Note_on_c, 0, 56, 74
3, 22320, Note_on_c, 0, 65, 74
3, 22320, Note_on_c, 0, 50, 77
3, 22410, Note_on_c, 0, 50, 0
3, 22410, Note_on_c, 0, 50, 82
3, 22500, Note_on_c, 0, 50, 0
3, 22500, Note_on_c, 0, 50, 77
3, 22590, Note_on_c, 0, 50, 0
3, 22590, Note_on_c, 0, 50, 81
3, 22680, Note_on_c, 0, 50, 0
3, 22680, Note_on_c, 0, 65, 0
3, 22680, Note_on_c, 0, 38, 0
3, 22680, Note_on_c, 0, 53, 0
3, 22680, Note_on_c, 0, 56, 0
3, 22680, Note_on_c, 0, 53, 76
3, 22680, Note_on_c, 0, 56, 76
3, 22680, Note_on_c, 0, 65, 76
3, 22680, Note_on_c, 0, 50, 79
3, 22680, Note_on_c, 0, 38, 81
3, 22770, Note_on_c, 0, 50, 0
3, 22770, Note_on_c, 0, 50, 81
3, 22860, Note_on_c, 0, 50, 0
3, 22860, Note_on_c, 0, 50, 77
3, 22950, Note_on_c, 0, 50, 0
3, 22950, Note_on_c, 0, 50, 74
3, 23040, Note_on_c, 0, 50, 0
3, 23040, Note_on_c, 0, 53, 0
3, 23040, Note_on_c, 0, 65, 0
3, 23040, Note_on_c, 0, 56, 0
3, 23040, Note_on_c, 0, 54, 84
3, 23040, Note_on_c, 0, 57, 84
3, 23040, Note_on_c, 0, 66, 84
3, 23040, Note_on_c, 0, 50, 76
3, 23130, Note_on_c, 0, 50, 0
3, 23130, Note_on_c, 0, 50, 81
3, 23220, Note_on_c, 0, 50, 0
3, 23220, Note_on_c, 0, 50, 84
3, 23310, Note_on_c, 0, 50, 0
3, 23310, Note_on_c, 0, 50, 84
3, 23400, Note_on_c, 0, 50, 0
3, 23400, Note_on_c, 0, 50, 83
3, 23490, Note_on_c, 0, 50, 0
3, 23490, Note_on_c, 0, 50, 83
3, 23580, Note_on_c, 0, 50, 0
3, 23580, Note_on_c, 0, 50, 79
3, 23670, Note_on_c, 0, 50, 0
3, 23670, Note_on_c, 0, 50, 81
3, 23760, Note_on_c, 0, 50, 0
3, 23760, Note_on_c, 0, 66, 0
3, 23760, Note_on_c, 0, 38, 0
3, 23760, Note_on_c, 0, 54, 0
3, 23760, Note_on_c, 0, 57, 0
3, 23760, Note_on_c, 0, 54, 101
3, 23760, Note_on_c, 0, 62, 101
3, 23760, Note_on_c, 0, 50, 81
3, 23760, Note_on_c, 0, 38, 83
3, 23850, Note_on_c, 0, 50, 0
3, 23850, Note_on_c, 0, 50, 85
3, 23940, Note_on_c, 0, 50, 0
3, 23940, Note_on_c, 0, 50, 82
3, 24030, Note_on_c, 0, 50, 0
3, 24030, Note_on_c, 0, 50, 78
3, 24120, Note_on_c, 0, 50, 0
3, 24120, Note_on_c, 0, 54, 0
3, 24120, Note_on_c, 0, 62, 0
3, 24120, Note_on_c, 0, 52, 102
3, 24120, Note_on_c, 0, 55, 102
3, 24120, Note_on_c, 0, 64, 102
3, 24120, Note_on_c, 0, 50, 83
3, 24210, Note_on_c, 0, 50, 0
3, 24210, Note_on_c, 0, 50, 79
3, 24300, Note_on_c, 0, 50, 0
3, 24300, Note_on_c, 0, 50, 81
3, 24390, Note_on_c, 0, 50, 0
3, 24390, Note_on_c, 0, 50, 81
3, 24480, Note_on_c, 0, 50, 0
3, 24480, Note_on_c, 0, 64, 0
3, 24480, Note_on_c, 0, 55, 0
3, 24480, Note_on_c, 0, 52, 0
3, 24480, Note_on_c, 0, 53, 106
3, 24480, Note_on_c, 0, 56, 106
3, 24480, Note_on_c, 0, 65, 106
3, 24480, Note_on_c, 0, 50, 79
3, 24570, Note_on_c, 0, 50, 0
3, 24570, Note_on_c, 0, 50, 82
3, 24660, Note_on_c, 0, 50, 0
3, 24660, Note_on_c, 0, 50, 81
3, 24750, Note_on_c, 0, 50, 0
3, 24750, Note_on_c, 0, 50, 80
3, 24840, Note_on_c, 0, 50, 0
3, 24840, Note_on_c, 0, 65, 0
3, 24840, Note_on_c, 0, 38, 0
3, 24840, Note_on_c, 0, 53, 0
3, 24840, Note_on_c, 0, 56, 0
3, 24840, Note_on_c, 0, 53, 99
3, 24840, Note_on_c, 0, 56, 99
3, 24840, Note_on_c, 0, 65, 99
3, 24840, Note_on_c, 0, 50, 80
3, 24840, Note_on_c, 0, 38, 80
3, 24930, Note_on_c, 0, 50, 0
3, 24930, Note_on_c, 0, 50, 77
3, 25020, Note_on_c, 0, 50, 0
3, 25020, Note_on_c, 0, 50, 83
3, 25110, Note_on_c, 0, 50, 0
3, 25110, Note_on_c, 0, 50, 81
3, 25200, Note_on_c, 0, 50, 0
3, 25200, Note_on_c, 0, 53, 0
3, 25200, Note_on_c, 0, 65, 0
3, 25200, Note_on_c, 0, 56, 0
3, 25200, Note_on_c, 0, 54, 107
3, 25200, Note_on_c, 0, 57, 107
3, 25200, Note_on_c, 0, 66, 107
3, 25200, Note_on_c, 0, 50, 76
3, 25290, Note_on_c, 0, 50, 0
3, 25290, Note_on_c, 0, 50, 84
3, 25380, Note_on_c, 0, 50, 0
3, 25380, Note_on_c, 0, 50, 88
3, 25470, Note_on_c, 0, 50, 0
3, 25470, Note_on_c, 0, 50, 83
3, 25560, Note_on_c, 0, 50, 0
3, 25560, Note_on_c, 0, 66, 0
3, 25560, Note_on_c, 0, 57, 0
3, 25560, Note_on_c, 0, 54, 0
3, 25560, Note_on_c, 0, 57, 85
3, 25560, Note_on_c, 0, 60, 85
3, 25560, Note_on_c, 0, 50, 82
3, 25650, Note_on_c, 0, 50, 0
3, 25650, Note_on_c, 0, 50, 81
3, 25740, Note_on_c, 0, 50, 0
3, 25740, Note_on_c, 0, 50, 80
3, 25830, Note_on_c, 0, 50, 0
3, 25830, Note_on_c, 0, 50, 81
3, 25920, Note_on_c, 0, 50, 0
3, 25920, Note_on_c, 0, 60, 0
3, 25920, Note_on_c, 0, 57, 0
3, 25920, Note_on_c, 0, 38, 0
3, 25920, Note_on_c, 0, 54, 103
3, 25920, Note_on_c, 0, 62, 103
3, 25920, Note_on_c, 0, 50, 82
3, 25920, Note_on_c, 0, 38, 79
3, 26010, Note_on_c, 0, 50, 0
3, 26010, Note_on_c, 0, 50, 81
3, 26100, Note_on_c, 0, 50, 0
3, 26100, Note_on_c, 0, 50, 80
3, 26190, Note_on_c, 0, 50, 0
3, 26190, Note_on_c, 0, 50, 76
3, 26280, Note_on_c, 0, 50, 0
3, 26280, Note_on_c, 0, 54, 0
3, 26280, Note_on_c, 0, 62, 0
3, 26280, Note_on_c, 0, 52, 106
3, 26280, Note_on_c, 0, 55, 106
3, 26280, Note_on_c, 0, 64, 106
3, 26280, Note_on_c, 0, 50, 84
3, 26370, Note_on_c, 0, 50, 0
3, 26370, Note_on_c, 0, 50, 80
3, 26460, Note_on_c, 0, 50, 0
3, 26460, Note_on_c, 0, 50, 82
3, 26550, Note_on_c, 0, 50, 0
3, 26550, Note_on_c, 0, 50, 82
3, 26640, Note_on_c, 0, 50, 0
3, 26640, Note_on_c, 0, 64, 0
3, 26640, Note_on_c, 0, 55, 0
3, 26640, Note_on_c, 0, 52, 0
3, 26640, Note_on_c, 0, 54, 107
3, 26640, Note_on_c, 0, 57, 107
3, 26640, Note_on_c, 0, 66, 107
3, 26640, Note_on_c, 0, 50, 84
3, 26730, Note_on_c, 0, 50, 0
3, 26730, Note_on_c, 0, 50, 82
3, 26820, Note_on_c, 0, 50, 0
3, 26820, Note_on_c, 0, 66, 0
3, 26820, Note_on_c, 0, 57, 0
3, 26820, Note_on_c, 0, 54, 0
3, 26820, Note_on_c, 0, 55, 92
3, 26820, Note_on_c, 0, 59, 92
3, 26820, Note_on_c, 0, 50, 79
3, 26910, Note_on_c, 0, 50, 0
3, 26910, Note_on_c, 0, 50, 78
3, 27000, Note_on_c, 0, 50, 0
3, 27000, Note_on_c, 0, 59, 0
3, 27000, Note_on_c, 0, 55, 0
3, 27000, Note_on_c, 0, 38, 0
3, 27000, Note_on_c, 0, 57, 101
3, 27000, Note_on_c, 0, 60, 101
3, 27000, Note_on_c, 0, 50, 81
3, 27000, Note_on_c, 0, 38, 82
3, 27090, Note_on_c, 0, 50, 0
3, 27090, Note_on_c, 0, 50, 81
3, 27180, Note_on_c, 0, 50, 0
3, 27180, Note_on_c, 0, 57, 0
3, 27180, Note_on_c, 0, 60, 0
3, 27180, Note_on_c, 0, 59, 97
3, 27180, Note_on_c, 0, 62, 97
3, 27180, Note_on_c, 0, 50, 78
3, 27270, Note_on_c, 0, 50, 0
3, 27270, Note_on_c, 0, 50, 81
3, 27360, Note_on_c, 0, 50, 0
3, 27360, Note_on_c, 0, 62, 0
3, 27360, Note_on_c, 0, 59, 0
3, 27360, Note_on_c, 0, 57, 93
3, 27360, Note_on_c, 0, 60, 93
3, 27360, Note_on_c, 0, 50, 80
3, 27450, Note_on_c, 0, 50, 0
3, 27450, Note_on_c, 0, 50, 80
3, 27540, Note_on_c, 0, 50, 0
3, 27540, Note_on_c, 0, 60, 0
3, 27540, Note_on_c, 0, 57, 0
3, 27540, Note_on_c, 0, 54, 88
3, 27540, Note_on_c, 0, 57, 88
3, 27540, Note_on_c, 0, 50, 81
3, 27630, Note_on_c, 0, 50, 0
3, 27630, Note_on_c, 0, 50, 78
3, 27720, Note_on_c, 0, 50, 0
3, 27720, Note_on_c, 0, 57, 0
3, 27720, Note_on_c, 0, 54, 0
3, 27720, Note_on_c, 0, 55, 84
3, 27720, Note_on_c, 0, 59, 84
3, 27720, Note_on_c, 0, 50, 83
3, 27810, Note_on_c, 0, 50, 0
3, 27810, Note_on_c, 0, 50, 82
3, 27900, Note_on_c, 0, 50, 0
3, 27900, Note_on_c, 0, 59, 0
3, 27900, Note_on_c, 0, 55, 0
3, 27900, Note_on_c, 0, 57, 80
3, 27900, Note_on_c, 0, 60, 80
3, 27900, Note_on_c, 0, 50, 82
3, 27990, Note_on_c, 0, 50, 0
3, 27990, Note_on_c, 0, 50, 84
3, 28080, Note_on_c, 0, 50, 0
3, 28080, Note_on_c, 0, 60, 0
3, 28080, Note_on_c, 0, 57, 0
3, 28080, Note_on_c, 0, 38, 0
3, 28080, Note_on_c, 0, 55, 76
3, 28080, Note_on_c, 0, 59, 76
3, 28080, Note_on_c, 0, 62, 76
3, 28080, Note_on_c, 0, 31, 75
3, 28080, Note_on_c, 0, 43, 75
3, 28124, Note_on_c, 0, 62, 0
3, 28124, Note_on_c, 0, 55, 0
3, 28124, Note_on_c, 0, 59, 0
3, 28170, Note_on_c, 0, 55, 50
3, 28170, Note_on_c, 0, 59, 50
3, 28170, Note_on_c, 0, 62, 50
3, 28214, Note_on_c, 0, 62, 0
3, 28214, Note_on_c, 0, 55, 0
3, 28214, Note_on_c, 0, 59, 0
3, 28260, Note_on_c, 0, 31, 0
3, 28260, Note_on_c, 0, 43, 0
3, 28260, Note_on_c, 0, 55, 48
3, 28260, Note_on_c, 0, 59, 48
3, 28260, Note_on_c, 0, 62, 48
3, 28304, Note_on_c, 0, 62, 0
3, 28304, Note_on_c, 0, 59, 0
3, 28304, Note_on_c, 0, 55, 0
3, 28350, Note_on_c, 0, 55, 48
3, 28350, Note_on_c, 0, 59, 48
3, 28350, Note_on_c, 0, 62, 48
3, 28394, Note_on_c, 0, 62, 0
3, 28394, Note_on_c, 0, 59, 0
3, 28394, Note_on_c, 0, 55, 0
3, 28440, Note_on_c, 0, 55, 53
3, 28440, Note_on_c, 0, 59, 53
3, 28440, Note_on_c, 0, 62, 53
3, 28484, Note_on_c, 0, 62, 0
3, 28484, Note_on_c, 0, 59, 0
3, 28484, Note_on_c, 0, 55, 0
3, 28530, Note_on_c, 0, 55, 45
3, 28530, Note_on_c, 0, 59, 45
3, 28530, Note_on_c, 0, 62, 45
3, 28574, Note_on_c, 0, 62, 0
3, 28574, Note_on_c, 0, 59, 0
3, 28574, Note_on_c, 0, 55, 0
3, 28620, Note_on_c, 0, 55, 43
3, 28620, Note_on_c, 0, 59, 43
3, 28620, Note_on_c, 0, 62, 43
3, 28620, Note_on_c, 0, 38, 73
3, 28620, Note_on_c, 0, 50, 73
3, 28664, Note_on_c, 0, 62, 0
3, 28664, Note_on_c, 0, 55, 0
3, 28664, Note_on_c, 0, 59, 0
3, 28710, Note_on_c, 0, 55, 49
3, 28710, Note_on_c, 0, 59, 49
3, 28710, Note_on_c, 0, 62, 49
3, 28754, Note_on_c, 0, 62, 0
3, 28754, Note_on_c, 0, 55, 0
3, 28754, Note_on_c, 0, 59, 0
3, 28800, Note_on_c, 0, 38, 0
3, 28800, Note_on_c, 0, 50, 0
3, 28800, Note_on_c, 0, 55, 45
3, 28800, Note_on_c, 0, 59, 45
3, 28800, Note_on_c, 0, 62, 45
3, 28844, Note_on_c, 0, 62, 0
3, 28844, Note_on_c, 0, 59, 0
3, 28844, Note_on_c, 0, 55, 0
3, 28890, Note_on_c, 0, 55, 43
3, 28890, Note_on_c, 0, 59, 43
3, 28890, Note_on_c, 0, 62, 43
3, 28934, Note_on_c, 0, 62, 0
3, 28934, Note_on_c, 0, 59, 0
3, 28934, Note_on_c, 0, 55, 0
3, 28980, Note_on_c, 0, 55, 43
3, 28980, Note_on_c, 0, 59, 43
3, 29024, Note_on_c, 0, 59, 0
3, 29024, Note_on_c, 0, 55, 0
3, 29070, Note_on_c, 0, 55, 45
3, 29070, Note_on_c, 0, 59, 45
3, 29114, Note_on_c, 0, 59, 0
3, 29114, Note_on_c, 0, 55, 0
3, 29160, Note_on_c, 0, 55, 45
3, 29160, Note_on_c, 0, 59, 45
3, 29160, Note_on_c, 0, 43, 76
3, 29204, Note_on_c, 0, 59, 0
3, 29204, Note_on_c, 0, 55, 0
3, 29250, Note_on_c, 0, 55, 48
3, 29250, Note_on_c, 0, 59, 48
3, 29294, Note_on_c, 0, 59, 0
3, 29294, Note_on_c, 0, 55, 0
3, 29340, Note_on_c, 0, 43, 0
3, 29340, Note_on_c, 0, 55, 51
3, 29340, Note_on_c, 0, 59, 51
3, 29384, Note_on_c, 0, 59, 0
3, 29384, Note_on_c, 0, 55, 0
3, 29430, Note_on_c, 0, 55, 44
3, 29430, Note_on_c, 0, 59, 44
3, 29474, Note_on_c, 0, 59, 0
3, 29474, Note_on_c, 0, 55, 0
3, 29520, Note_on_c, 0, 55, 51
3, 29520, Note_on_c, 0, 59, 51
3, 29564, Note_on_c, 0, 59, 0
3, 29564, Note_on_c, 0, 55, 0
3, 29610, Note_on_c, 0, 55, 46
3, 29610, Note_on_c, 0, 59, 46
3, 29654, Note_on_c, 0, 59, 0
3, 29654, Note_on_c, 0, 55, 0
3, 29700, Note_on_c, 0, 55, 51
3, 29700, Note_on_c, 0, 59, 51
3, 29700, Note_on_c, 0, 62, 51
3, 29700, Note_on_c, 0, 38, 70
3, 29700, Note_on_c, 0, 50, 70
3, 29744, Note_on_c, 0, 62, 0
3, 29744, Note_on_c, 0, 55, 0
3, 29744, Note_on_c, 0, 59, 0
3, 29790, Note_on_c, 0, 55, 43
3, 29790, Note_on_c, 0, 59, 43
3, 29790, Note_on_c, 0, 62, 43
3, 29834, Note_on_c, 0, 62, 0
3, 29834, Note_on_c, 0, 55, 0
3, 29834, Note_on_c, 0, 59, 0
3, 29880, Note_on_c, 0, 38, 0
3, 29880, Note_on_c, 0, 50, 0
3, 29880, Note_on_c, 0, 55, 48
3, 29880, Note_on_c, 0, 59, 48
3, 29880, Note_on_c, 0, 62, 48
3, 29924, Note_on_c, 0, 62, 0
3, 29924, Note_on_c, 0, 59, 0
3, 29924, Note_on_c, 0, 55, 0
3, 29970, Note_on_c, 0, 55, 56
3, 29970, Note_on_c, 0, 59, 56
3, 29970, Note_on_c, 0, 62, 56
3, 30014, Note_on_c, 0, 62, 0
3, 30014, Note_on_c, 0, 59, 0
3, 30014, Note_on_c, 0, 55, 0
3, 30060, Note_on_c, 0, 55, 44
3, 30060, Note_on_c, 0, 59, 44
3, 30060, Note_on_c, 0, 62, 44
3, 30104, Note_on_c, 0, 62, 0
3, 30104, Note_on_c, 0, 59, 0
3, 30104, Note_on_c, 0, 55, 0
3, 30150, Note_on_c, 0, 55, 47
3, 30150, Note_on_c, 0, 59, 47
3, 30150, Note_on_c, 0, 62, 47
3, 30194, Note_on_c, 0, 62, 0
3, 30194, Note_on_c, 0, 59, 0
3, 30194, Note_on_c, 0, 55, 0
3, 30240, Note_on_c, 0, 55, 45
3, 30240, Note_on_c, 0, 59, 45
3, 30240, Note_on_c, 0, 62, 45
3, 30240, Note_on_c, 0, 31, 76
3, 30240, Note_on_c, 0, 43, 76
3, 30284, Note_on_c, 0, 62, 0
3, 30284, Note_on_c, 0, 55, 0
3, 30284, Note_on_c, 0, 59, 0
3, 30330, Note_on_c, 0, 55, 44
3, 30330, Note_on_c, 0, 59, 44
3, 30330, Note_on_c, 0, 62, 44
3, 30374, Note_on_c, 0, 62, 0
3, 30374, Note_on_c, 0, 55, 0
3, 30374, Note_on_c, 0, 59, 0
3, 30420, Note_on_c, 0, 31, 0
3, 30420, Note_on_c, 0, 43, 0
3, 30420, Note_on_c, 0, 55, 47
3, 30420, Note_on_c, 0, 59, 47
3, 30420, Note_on_c, 0, 62, 47
3, 30464, Note_on_c, 0, 62, 0
3, 30464, Note_on_c, 0, 59, 0
3, 30464, Note_on_c, 0, 55, 0
3, 30510, Note_on_c, 0, 55, 48
3, 30510, Note_on_c, 0, 59, 48
3, 30510, Note_on_c, 0, 62, 48
3, 30554, Note_on_c, 0, 62, 0
3, 30554, Note_on_c, 0, 59, 0
3, 30554, Note_on_c, 0, 55, 0
3, 30600, Note_on_c, 0, 55, 47
3, 30600, Note_on_c, 0, 59, 47
3, 30600, Note_on_c, 0, 62, 47
3, 30644, Note_on_c, 0, 62, 0
3, 30644, Note_on_c, 0, 59, 0
3, 30644, Note_on_c, 0, 55, 0
3, 30690, Note_on_c, 0, 55, 50
3, 30690, Note_on_c, 0, 59, 50
3, 30690, Note_on_c, 0, 62, 50
3, 30734, Note_on_c, 0, 62, 0
3, 30734, Note_on_c, 0, 59, 0
3, 30734, Note_on_c, 0, 55, 0
3, 30780, Note_on_c, 0, 55, 49
3, 30780, Note_on_c, 0, 59, 49
3, 30780, Note_on_c, 0, 62, 49
3, 30780, Note_on_c, 0, 38, 76
3, 30780, Note_on_c, 0, 50, 76
3, 30824, Note_on_c, 0, 62, 0
3, 30824, Note_on_c, 0, 55, 0
3, 30824, Note_on_c, 0, 59, 0
3, 30870, Note_on_c, 0, 55, 46
3, 30870, Note_on_c, 0, 59, 46
3, 30870, Note_on_c, 0, 62, 46
3, 30914, Note_on_c, 0, 62, 0
3, 30914, Note_on_c, 0, 55, 0
3, 30914, Note_on_c, 0, 59, 0
3, 30960, Note_on_c, 0, 38, 0
3, 30960, Note_on_c, 0, 50, 0
3, 30960, Note_on_c, 0, 55, 47
3, 30960, Note_on_c, 0, 59, 47
3, 30960, Note_on_c, 0, 62, 47
3, 31004, Note_on_c, 0, 62, 0
3, 31004, Note_on_c, 0, 59, 0
3, 31004, Note_on_c, 0, 55, 0
3, 31050, Note_on_c, 0, 55, 45
3, 31050, Note_on_c, 0, 59, 45
3, 31050, Note_on_c, 0, 62, 45
3, 31094, Note_on_c, 0, 62, 0
3, 31094, Note_on_c, 0, 59, 0
3, 31094, Note_on_c, 0, 55, 0
3, 31140, Note_on_c, 0, 55, 47
3, 31140, Note_on_c, 0, 59, 47
3, 31140, Note_on_c, 0, 62, 47
3, 31184, Note_on_c, 0, 62, 0
3, 31184, Note_on_c, 0, 59, 0
3, 31184, Note_on_c, 0, 55, 0
3, 31230, Note_on_c, 0, 55, 49
3, 31230, Note_on_c, 0, 59, 49
3, 31230, Note_on_c, 0, 62, 49
3, 31274, Note_on_c, 0, 62, 0
3, 31274, Note_on_c, 0, 59, 0
3, 31274, Note_on_c, 0, 55, 0
3, 31320, Note_on_c, 0, 62, 63
3, 31320, Note_on_c, 0, 43, 73
3, 31320, Note_on_c, 0, 55, 73
3, 31500, Note_on_c, 0, 55, 0
3, 31500, Note_on_c, 0, 43, 0
3, 31680, Note_on_c, 0, 62, 0
3, 31680, Note_on_c, 0, 60, 65
3, 31860, Note_on_c, 0, 40, 72
3, 31860, Note_on_c, 0, 52, 72
3, 32040, Note_on_c, 0, 52, 0
3, 32040, Note_on_c, 0, 40, 0
3, 32400, Note_on_c, 0, 60, 0
3, 32400, Note_on_c, 0, 59, 68
3, 32400, Note_on_c, 0, 31, 70
3, 32400, Note_on_c, 0, 43, 70
3, 32580, Note_on_c, 0, 43, 0
3, 32580, Note_on_c, 0, 31, 0
3, 32760, Note_on_c, 0, 59, 0
3, 32760, Note_on_c, 0, 57, 62
3, 32940, Note_on_c, 0, 38, 76
3, 32940, Note_on_c, 0, 50, 76
3, 33120, Note_on_c, 0, 50, 0
3, 33120, Note_on_c, 0, 38, 0
3, 33120, Note_on_c, 0, 57, 0
3, 33120, Note_on_c, 0, 56, 62
3, 33480, Note_on_c, 0, 56, 0
3, 33480, Note_on_c, 0, 57, 62
3, 33480, Note_on_c, 0, 43, 71
3, 33480, Note_on_c, 0, 55, 71
3, 33660, Note_on_c, 0, 55, 0
3, 33660, Note_on_c, 0, 43, 0
3, 33840, Note_on_c, 0, 57, 0
3, 33840, Note_on_c, 0, 59, 66
3, 34020, Note_on_c, 0, 38, 69
3, 34020, Note_on_c, 0, 50, 69
3, 34200, Note_on_c, 0, 50, 0
3, 34200, Note_on_c, 0, 38, 0
3, 34200, Note_on_c, 0, 59, 0
3, 34200, Note_on_c, 0, 60, 74
3, 34560, Note_on_c, 0, 60, 0
3, 34560, Note_on_c, 0, 64, 69
3, 34560, Note_on_c, 0, 31, 74
3, 34560, Note_on_c, 0, 43, 74
3, 34740, Note_on_c, 0, 43, 0
3, 34740, Note_on_c, 0, 31, 0
3, 34920, Note_on_c, 0, 64, 0
3, 34920, Note_on_c, 0, 62, 61
3, 35100, Note_on_c, 0, 38, 74
3, 35100, Note_on_c, 0, 50, 74
3, 35280, Note_on_c, 0, 50, 0
3, 35280, Note_on_c, 0, 38, 0
3, 35280, Note_on_c, 0, 62, 0
3, 35280, Note_on_c, 0, 61, 65
3, 35640, Note_on_c, 0, 61, 0
3, 35640, Note_on_c, 0, 62, 70
3, 35640, Note_on_c, 0, 43, 68
3, 35640, Note_on_c, 0, 55, 68
3, 35820, Note_on_c, 0, 55, 0
3, 35820, Note_on_c, 0, 43, 0
3, 36180, Note_on_c, 0, 62, 0
3, 36180, Note_on_c, 0, 62, 67
3, 36180, Note_on_c, 0, 40, 73
3, 36180, Note_on_c, 0, 52, 73
3, 36360, Note_on_c, 0, 52, 0
3, 36360, Note_on_c, 0, 40, 0
3, 36360, Note_on_c, 0, 62, 0
3, 36360, Note_on_c, 0, 64, 68
3, 36540, Note_on_c, 0, 64, 0
3, 36540, Note_on_c, 0, 62, 66
3, 36720, Note_on_c, 0, 62, 0
3, 36720, Note_on_c, 0, 55, 55
3, 36720, Note_on_c, 0, 59, 55
3, 36720, Note_on_c, 0, 62, 55
3, 36720, Note_on_c, 0, 31, 73
3, 36720, Note_on_c, 0, 43, 73
3, 36764, Note_on_c, 0, 62, 0
3, 36764, Note_on_c, 0, 55, 0
3, 36764, Note_on_c, 0, 59, 0
3, 36810, Note_on_c, 0, 55, 57
3, 36810, Note_on_c, 0, 59, 57
3, 36810, Note_on_c, 0, 62, 57
3, 36854, Note_on_c, 0, 62, 0
3, 36854, Note_on_c, 0, 55, 0
3, 36854, Note_on_c, 0, 59, 0
3, 36900, Note_on_c, 0, 31, 0
3, 36900, Note_on_c, 0, 43, 0
3, 36900, Note_on_c, 0, 55, 55
3, 36900, Note_on_c, 0, 59, 55
3, 36900, Note_on_c, 0, 62, 55
3, 36944, Note_on_c, 0, 62, 0
3, 36944, Note_on_c, 0, 59, 0
3, 36944, Note_on_c, 0, 55, 0
3, 36990, Note_on_c, 0, 55, 56
3, 36990, Note_on_c, 0, 59, 56
3, 36990, Note_on_c, 0, 62, 56
3, 37034, Note_on_c, 0, 62, 0
3, 37034, Note_on_c, 0, 59, 0
3, 37034, Note_on_c, 0, 55, 0
3, 37080, Note_on_c, 0, 55, 56
3, 37080, Note_on_c, 0, 59, 56
3, 37080, Note_on_c, 0, 62, 56
3, 37124, Note_on_c, 0, 62, 0
3, 37124, Note_on_c, 0, 59, 0
3, 37124, Note_on_c, 0, 55, 0
3, 37170, Note_on_c, 0, 55, 56
3, 37170, Note_on_c, 0, 59, 56
3, 37170, Note_on_c, 0, 62, 56
3, 37214, Note_on_c, 0, 62, 0
3, 37214, Note_on_c, 0, 59, 0
3, 37214, Note_on_c, 0, 55, 0
3, 37260, Note_on_c, 0, 55, 52
3, 37260, Note_on_c, 0, 59, 52
3, 37260, Note_on_c, 0, 62, 52
3, 37260, Note_on_c, 0, 38, 75
3, 37260, Note_on_c, 0, 50, 75
3, 37304, Note_on_c, 0, 62, 0
3, 37304, Note_on_c, 0, 55, 0
3, 37304, Note_on_c, 0, 59, 0
3, 37350, Note_on_c, 0, 55, 59
3, 37350, Note_on_c, 0, 59, 59
3, 37350, Note_on_c, 0, 62, 59
3, 37394, Note_on_c, 0, 62, 0
3, 37394, Note_on_c, 0, 55, 0
3, 37394, Note_on_c, 0, 59, 0
3, 37440, Note_on_c, 0, 38, 0
3, 37440, Note_on_c, 0, 50, 0
3, 37440, Note_on_c, 0, 55, 56
3, 37440, Note_on_c, 0, 59, 56
3, 37440, Note_on_c, 0, 62, 56
3, 37484, Note_on_c, 0, 62, 0
3, 37484, Note_on_c, 0, 59, 0
3, 37484, Note_on_c, 0, 55, 0
3, 37530, Note_on_c, 0, 55, 56
3, 37530, Note_on_c, 0, 59, 56
3, 37530, Note_on_c, 0, 62, 56
3, 37574, Note_on_c, 0, 62, 0
3, 37574, Note_on_c, 0, 59, 0
3, 37574, Note_on_c, 0, 55, 0
3, 37620, Note_on_c, 0, 55, 54
3, 37620, Note_on_c, 0, 59, 54
3, 37664, Note_on_c, 0, 59, 0
3, 37664, Note_on_c, 0, 55, 0
3, 37710, Note_on_c, 0, 55, 55
3, 37710, Note_on_c, 0, 59, 55
3, 37754, Note_on_c, 0, 59, 0
3, 37754, Note_on_c, 0, 55, 0
3, 37800, Note_on_c, 0, 55, 54
3, 37800, Note_on_c, 0, 59, 54
3, 37800, Note_on_c, 0, 43, 70
3, 37844, Note_on_c, 0, 59, 0
3, 37844, Note_on_c, 0, 55, 0
3, 37890, Note_on_c, 0, 55, 52
3, 37890, Note_on_c, 0, 59, 52
3, 37934, Note_on_c, 0, 59, 0
3, 37934, Note_on_c, 0, 55, 0
3, 37980, Note_on_c, 0, 43, 0
3, 37980, Note_on_c, 0, 55, 56
3, 37980, Note_on_c, 0, 59, 56
3, 38024, Note_on_c, 0, 59, 0
3, 38024, Note_on_c, 0, 55, 0
3, 38070, Note_on_c, 0, 55, 56
3, 38070, Note_on_c, 0, 59, 56
3, 38114, Note_on_c, 0, 59, 0
3, 38114, Note_on_c, 0, 55, 0
3, 38160, Note_on_c, 0, 55, 57
3, 38160, Note_on_c, 0, 59, 57
3, 38204, Note_on_c, 0, 59, 0
3, 38204, Note_on_c, 0, 55, 0
3, 38250, Note_on_c, 0, 55, 59
3, 38250, Note_on_c, 0, 59, 59
3, 38294, Note_on_c, 0, 59, 0
3, 38294, Note_on_c, 0, 55, 0
3, 38340, Note_on_c, 0, 55, 59
3, 38340, Note_on_c, 0, 59, 59
3, 38340, Note_on_c, 0, 62, 59
3, 38340, Note_on_c, 0, 38, 72
3, 38340, Note_on_c, 0, 50, 72
3, 38384, Note_on_c, 0, 62, 0
3, 38384, Note_on_c, 0, 55, 0
3, 38384, Note_on_c, 0, 59, 0
3, 38430, Note_on_c, 0, 55, 55
3, 38430, Note_on_c, 0, 59, 55
3, 38430, Note_on_c, 0, 62, 55
3, 38474, Note_on_c, 0, 62, 0
3, 38474, Note_on_c, 0, 55, 0
3, 38474, Note_on_c, 0, 59, 0
3, 38520, Note_on_c, 0, 38, 0
3, 38520, Note_on_c, 0, 50, 0
3, 38520, Note_on_c, 0, 55, 57
3, 38520, Note_on_c, 0, 59, 57
3, 38520, Note_on_c, 0, 62, 57
3, 38564, Note_on_c, 0, 62, 0
3, 38564, Note_on_c, 0, 59, 0
3, 38564, Note_on_c, 0, 55, 0
3, 38610, Note_on_c, 0, 55, 54
3, 38610, Note_on_c, 0, 59, 54
3, 38610, Note_on_c, 0, 62, 54
3, 38654, Note_on_c, 0, 62, 0
3, 38654, Note_on_c, 0, 59, 0
3, 38654, Note_on_c, 0, 55, 0
3, 38700, Note_on_c, 0, 55, 55
3, 38700, Note_on_c, 0, 59, 55
3, 38700, Note_on_c, 0, 62, 55
3, 38744, Note_on_c, 0, 62, 0
3, 38744, Note_on_c, 0, 59, 0
3, 38744, Note_on_c, 0, 55, 0
3, 38790, Note_on_c, 0, 55, 61
3, 38790, Note_on_c, 0, 59, 61
3, 38790, Note_on_c, 0, 62, 61
3, 38834, Note_on_c, 0, 62, 0
3, 38834, Note_on_c, 0, 59, 0
3, 38834, Note_on_c, 0, 55, 0
3, 38880, Note_on_c, 0, 55, 56
3, 38880, Note_on_c, 0, 59, 56
3, 38880, Note_on_c, 0, 31, 73
3, 38880, Note_on_c, 0, 43, 73
3, 38924, Note_on_c, 0, 59, 0
3, 38924, Note_on_c, 0, 55, 0
3, 38970, Note_on_c, 0, 55, 54
3, 38970, Note_on_c, 0, 59, 54
3, 39014, Note_on_c, 0, 59, 0
3, 39014, Note_on_c, 0, 55, 0
3, 39060, Note_on_c, 0, 31, 0
3, 39060, Note_on_c, 0, 43, 0
3, 39060, Note_on_c, 0, 55, 58
3, 39060, Note_on_c, 0, 59, 58
3, 39104, Note_on_c, 0, 59, 0
3, 39104, Note_on_c, 0, 55, 0
3, 39150, Note_on_c, 0, 55, 58
3, 39150, Note_on_c, 0, 59, 58
3, 39194, Note_on_c, 0, 59, 0
3, 39194, Note_on_c, 0, 55, 0
3, 39240, Note_on_c, 0, 55, 55
3, 39240, Note_on_c, 0, 59, 55
3, 39284, Note_on_c, 0, 59, 0
3, 39284, Note_on_c, 0, 55, 0
3, 39330, Note_on_c, 0, 55, 53
3, 39330, Note_on_c, 0, 59, 53
3, 39374, Note_on_c, 0, 59, 0
3, 39374, Note_on_c, 0, 55, 0
3, 39420, Note_on_c, 0, 55, 56
3, 39420, Note_on_c, 0, 43, 75
3, 39464, Note_on_c, 0, 55, 0
3, 39510, Note_on_c, 0, 55, 51
3, 39554, Note_on_c, 0, 55, 0
3, 39600, Note_on_c, 0, 43, 0
3, 39600, Note_on_c, 0, 55, 57
3, 39644, Note_on_c, 0, 55, 0
3, 39690, Note_on_c, 0, 55, 52
3, 39734, Note_on_c, 0, 55, 0
3, 39780, Note_on_c, 0, 55, 55
3, 39824, Note_on_c, 0, 55, 0
3, 39870, Note_on_c, 0, 55, 55
3, 39914, Note_on_c, 0, 55, 0
3, 39960, Note_on_c, 0, 55, 55
3, 39960, Note_on_c, 0, 57, 55
3, 39960, Note_on_c, 0, 36, 71
3, 39960, Note_on_c, 0, 48, 71
3, 40004, Note_on_c, 0, 57, 0
3, 40004, Note_on_c, 0, 55, 0
3, 40050, Note_on_c, 0, 55, 57
3, 40050, Note_on_c, 0, 57, 57
3, 40094, Note_on_c, 0, 57, 0
3, 40094, Note_on_c, 0, 55, 0
3, 40140, Note_on_c, 0, 36, 0
3, 40140, Note_on_c, 0, 48, 0
3, 40140, Note_on_c, 0, 55, 55
3, 40140, Note_on_c, 0, 57, 55
3, 40140, Note_on_c, 0, 36, 72
3, 40184, Note_on_c, 0, 57, 0
3, 40184, Note_on_c, 0, 55, 0
3, 40185, Note_on_c, 0, 36, 0
3, 40185, Note_on_c, 0, 40, 79
3, 40230, Note_on_c, 0, 40, 0
3, 40230, Note_on_c, 0, 55, 54
3, 40230, Note_on_c, 0, 57, 54
3, 40230, Note_on_c, 0, 43, 85
3, 40274, Note_on_c, 0, 57, 0
3, 40274, Note_on_c, 0, 55, 0
3, 40275, Note_on_c, 0, 43, 0
3, 40275, Note_on_c, 0, 45, 82
3, 40320, Note_on_c, 0, 45, 0
3, 40320, Note_on_c, 0, 48, 48
3, 40365, Note_on_c, 0, 48, 0
3, 40365, Note_on_c, 0, 52, 55
3, 40410, Note_on_c, 0, 52, 0
3, 40410, Note_on_c, 0, 55, 57
3, 40455, Note_on_c, 0, 55, 0
3, 40455, Note_on_c, 0, 57, 57
3, 40500, Note_on_c, 0, 57, 0
3, 40500, Note_on_c, 0, 55, 60
3, 40500, Note_on_c, 0, 57, 60
3, 40500, Note_on_c, 0, 60, 60
3, 40500, Note_on_c, 0, 48, 68
3, 40544, Note_on_c, 0, 60, 0
3, 40544, Note_on_c, 0, 55, 0
3, 40544, Note_on_c, 0, 57, 0
3, 40590, Note_on_c, 0, 55, 52
3, 40590, Note_on_c, 0, 57, 52
3, 40634, Note_on_c, 0, 57, 0
3, 40634, Note_on_c, 0, 55, 0
3, 40680, Note_on_c, 0, 48, 0
3, 40680, Note_on_c, 0, 55, 56
3, 40680, Note_on_c, 0, 57, 56
3, 40724, Note_on_c, 0, 57, 0
3, 40724, Note_on_c, 0, 55, 0
3, 40770, Note_on_c, 0, 55, 56
3, 40770, Note_on_c, 0, 57, 56
3, 40814, Note_on_c, 0, 57, 0
3, 40814, Note_on_c, 0, 55, 0
3, 40860, Note_on_c, 0, 55, 52
3, 40860, Note_on_c, 0, 57, 52
3, 40904, Note_on_c, 0, 57, 0
3, 40904, Note_on_c, 0, 55, 0
3, 40950, Note_on_c, 0, 55, 54
3, 40950, Note_on_c, 0, 57, 54
3, 40994, Note_on_c, 0, 57, 0
3, 40994, Note_on_c, 0, 55, 0
3, 41040, Note_on_c, 0, 55, 54
3, 41040, Note_on_c, 0, 58, 54
3, 41040, Note_on_c, 0, 37, 71
3, 41040, Note_on_c, 0, 49, 71
3, 41084, Note_on_c, 0, 58, 0
3, 41084, Note_on_c, 0, 55, 0
3, 41130, Note_on_c, 0, 55, 55
3, 41130, Note_on_c, 0, 58, 55
3, 41174, Note_on_c, 0, 58, 0
3, 41174, Note_on_c, 0, 55, 0
3, 41220, Note_on_c, 0, 37, 0
3, 41220, Note_on_c, 0, 49, 0
3, 41220, Note_on_c, 0, 55, 57
3, 41220, Note_on_c, 0, 58, 57
3, 41264, Note_on_c, 0, 58, 0
3, 41264, Note_on_c, 0, 55, 0
3, 41310, Note_on_c, 0, 55, 52
3, 41310, Note_on_c, 0, 58, 52
3, 41354, Note_on_c, 0, 58, 0
3, 41354, Note_on_c, 0, 55, 0
3, 41400, Note_on_c, 0, 55, 50
3, 41400, Note_on_c, 0, 58, 50
3, 41444, Note_on_c, 0, 58, 0
3, 41444, Note_on_c, 0, 55, 0
3, 41490, Note_on_c, 0, 55, 56
3, 41490, Note_on_c, 0, 58, 56
3, 41534, Note_on_c, 0, 58, 0
3, 41534, Note_on_c, 0, 55, 0
3, 41580, Note_on_c, 0, 55, 64
3, 41580, Note_on_c, 0, 58, 64
3, 41580, Note_on_c, 0, 64, 64
3, 41580, Note_on_c, 0, 49, 73
3, 41624, Note_on_c, 0, 64, 0
3, 41624, Note_on_c, 0, 55, 0
3, 41624, Note_on_c, 0, 58, 0
3, 41670, Note_on_c, 0, 55, 57
3, 41670, Note_on_c, 0, 58, 57
3, 41670, Note_on_c, 0, 64, 57
3, 41714, Note_on_c, 0, 64, 0
3, 41714, Note_on_c, 0, 58, 0
3, 41714, Note_on_c, 0, 55, 0
3, 41760, Note_on_c, 0, 49, 0
3, 41760, Note_on_c, 0, 55, 57
3, 41760, Note_on_c, 0, 58, 57
3, 41760, Note_on_c, 0, 64, 57
3, 41804, Note_on_c, 0, 64, 0
3, 41804, Note_on_c, 0, 58, 0
3, 41804, Note_on_c, 0, 55, 0
3, 41850, Note_on_c, 0, 55, 51
3, 41850, Note_on_c, 0, 58, 51
3, 41850, Note_on_c, 0, 64, 51
3, 41894, Note_on_c, 0, 64, 0
3, 41894, Note_on_c, 0, 58, 0
3, 41894, Note_on_c, 0, 55, 0
3, 41940, Note_on_c, 0, 55, 50
3, 41940, Note_on_c, 0, 58, 50
3, 41984, Note_on_c, 0, 58, 0
3, 41984, Note_on_c, 0, 55, 0
3, 42030, Note_on_c, 0, 55, 58
3, 42030, Note_on_c, 0, 58, 58
3, 42074, Note_on_c, 0, 58, 0
3, 42074, Note_on_c, 0, 55, 0
3, 42120, Note_on_c, 0, 55, 54
3, 42120, Note_on_c, 0, 38, 71
3, 42120, Note_on_c, 0, 50, 71
3, 42300, Note_on_c, 0, 50, 0
3, 42300, Note_on_c, 0, 38, 0
3, 42480, Note_on_c, 0, 55, 0
3, 42480, Note_on_c, 0, 57, 55
3, 42660, Note_on_c, 0, 50, 73
3, 42840, Note_on_c, 0, 50, 0
3, 42840, Note_on_c, 0, 57, 0
3, 42840, Note_on_c, 0, 59, 58
3, 43200, Note_on_c, 0, 59, 0
3, 43200, Note_on_c, 0, 60, 58
3, 43200, Note_on_c, 0, 38, 76
3, 43200, Note_on_c, 0, 50, 76
3, 43380, Note_on_c, 0, 50, 0
3, 43380, Note_on_c, 0, 38, 0
3, 43560, Note_on_c, 0, 60, 0
3, 43560, Note_on_c, 0, 61, 63
3, 43740, Note_on_c, 0, 50, 74
3, 43920, Note_on_c, 0, 50, 0
3, 43920, Note_on_c, 0, 61, 0
3, 43920, Note_on_c, 0, 62, 58
3, 44280, Note_on_c, 0, 62, 0
3, 44280, Note_on_c, 0, 55, 66
3, 44280, Note_on_c, 0, 59, 66
3, 44280, Note_on_c, 0, 62, 66
3, 44280, Note_on_c, 0, 50, 74
3, 44280, Note_on_c, 0, 43, 83
3, 44370, Note_on_c, 0, 50, 0
3, 44370, Note_on_c, 0, 50, 78
3, 44460, Note_on_c, 0, 50, 0
3, 44460, Note_on_c, 0, 43, 0
3, 44460, Note_on_c, 0, 55, 0
3, 44460, Note_on_c, 0, 59, 0
3, 44460, Note_on_c, 0, 62, 0
3, 44460, Note_on_c, 0, 59, 66
3, 44460, Note_on_c, 0, 62, 66
3, 44460, Note_on_c, 0, 50, 81
3, 44550, Note_on_c, 0, 50, 0
3, 44550, Note_on_c, 0, 50, 82
3, 44640, Note_on_c, 0, 50, 0
3, 44640, Note_on_c, 0, 62, 0
3, 44640, Note_on_c, 0, 59, 0
3, 44640, Note_on_c, 0, 57, 61
3, 44640, Note_on_c, 0, 60, 61
3, 44640, Note_on_c, 0, 50, 83
3, 44730, Note_on_c, 0, 50, 0
3, 44730, Note_on_c, 0, 50, 81
3, 44820, Note_on_c, 0, 50, 0
3, 44820, Note_on_c, 0, 60, 0
3, 44820, Note_on_c, 0, 57, 0
3, 44820, Note_on_c, 0, 55, 65
3, 44820, Note_on_c, 0, 59, 65
3, 44820, Note_on_c, 0, 50, 82
3, 44910, Note_on_c, 0, 50, 0
3, 44910, Note_on_c, 0, 50, 78
3, 45000, Note_on_c, 0, 50, 0
3, 45000, Note_on_c, 0, 59, 0
3, 45000, Note_on_c, 0, 55, 0
3, 45000, Note_on_c, 0, 54, 65
3, 45000, Note_on_c, 0, 57, 65
3, 45000, Note_on_c, 0, 50, 81
3, 45090, Note_on_c, 0, 50, 0
3, 45090, Note_on_c, 0, 50, 83
3, 45180, Note_on_c, 0, 50, 0
3, 45180, Note_on_c, 0, 57, 0
3, 45180, Note_on_c, 0, 54, 0
3, 45180, Note_on_c, 0, 52, 62
3, 45180, Note_on_c, 0, 55, 62
3, 45180, Note_on_c, 0, 50, 81
3, 45270, Note_on_c, 0, 50, 0
3, 45270, Note_on_c, 0, 50, 82
3, 45360, Note_on_c, 0, 50, 0
3, 45360, Note_on_c, 0, 55, 0
3, 45360, Note_on_c, 0, 52, 0
3, 45360, Note_on_c, 0, 54, 88
3, 45360, Note_on_c, 0, 62, 88
3, 45360, Note_on_c, 0, 50, 77
3, 45360, Note_on_c, 0, 38, 68
3, 45450, Note_on_c, 0, 50, 0
3, 45450, Note_on_c, 0, 50, 83
3, 45540, Note_on_c, 0, 50, 0
3, 45540, Note_on_c, 0, 50, 80
3, 45630, Note_on_c, 0, 50, 0
3, 45630, Note_on_c, 0, 50, 83
3, 45720, Note_on_c, 0, 50, 0
3, 45720, Note_on_c, 0, 54, 0
3, 45720, Note_on_c, 0, 62, 0
3, 45720, Note_on_c, 0, 52, 80
3, 45720, Note_on_c, 0, 55, 80
3, 45720, Note_on_c, 0, 64, 80
3, 45720, Note_on_c, 0, 50, 83
3, 45810, Note_on_c, 0, 50, 0
3, 45810, Note_on_c, 0, 50, 77
3, 45900, Note_on_c, 0, 50, 0
3, 45900, Note_on_c, 0, 50, 81
3, 45990, Note_on_c, 0, 50, 0
3, 45990, Note_on_c, 0, 50, 80
3, 46080, Note_on_c, 0, 50, 0
3, 46080, Note_on_c, 0, 64, 0
3, 46080, Note_on_c, 0, 55, 0
3, 46080, Note_on_c, 0, 52, 0
3, 46080, Note_on_c, 0, 53, 80
3, 46080, Note_on_c, 0, 56, 80
3, 46080, Note_on_c, 0, 65, 80
3, 46080, Note_on_c, 0, 50, 81
3, 46170, Note_on_c, 0, 50, 0
3, 46170, Note_on_c, 0, 50, 82
3, 46260, Note_on_c, 0, 50, 0
3, 46260, Note_on_c, 0, 50, 84
3, 46350, Note_on_c, 0, 50, 0
3, 46350, Note_on_c, 0, 50, 80
3, 46440, Note_on_c, 0, 50, 0
3, 46440, Note_on_c, 0, 65, 0
3, 46440, Note_on_c, 0, 38, 0
3, 46440, Note_on_c, 0, 53, 0
3, 46440, Note_on_c, 0, 56, 0
3, 46440, Note_on_c, 0, 53, 76
3, 46440, Note_on_c, 0, 56, 76
3, 46440, Note_on_c, 0, 65, 76
3, 46440, Note_on_c, 0, 50, 78
3, 46440, Note_on_c, 0, 38, 76
3, 46530, Note_on_c, 0, 50, 0
3, 46530, Note_on_c, 0, 50, 85
3, 46620, Note_on_c, 0, 50, 0
3, 46620, Note_on_c, 0, 50, 81
3, 46710, Note_on_c, 0, 50, 0
3, 46710, Note_on_c, 0, 50, 80
3, 46800, Note_on_c, 0, 50, 0
3, 46800, Note_on_c, 0, 53, 0
3, 46800, Note_on_c, 0, 65, 0
3, 46800, Note_on_c, 0, 56, 0
3, 46800, Note_on_c, 0, 54, 84
3, 46800, Note_on_c, 0, 57, 84
3, 46800, Note_on_c, 0, 66, 84
3, 46800, Note_on_c, 0, 50, 78
3, 46890, Note_on_c, 0, 50, 0
3, 46890, Note_on_c, 0, 50, 83
3, 46980, Note_on_c, 0, 50, 0
3, 46980, Note_on_c, 0, 50, 80
3, 47070, Note_on_c, 0, 50, 0
3, 47070, Note_on_c, 0, 50, 80
3, 47160, Note_on_c, 0, 50, 0
3, 47160, Note_on_c, 0, 66, 0
3, 47160, Note_on_c, 0, 57, 0
3, 47160, Note_on_c, 0, 54, 0
3, 47160, Note_on_c, 0, 57, 64
3, 47160, Note_on_c, 0, 60, 64
3, 47160, Note_on_c, 0, 50, 79
3, 47250, Note_on_c, 0, 50, 0
3, 47250, Note_on_c, 0, 50, 76
3, 47340, Note_on_c, 0, 50, 0
3, 47340, Note_on_c, 0, 50, 74
3, 47430, Note_on_c, 0, 50, 0
3, 47430, Note_on_c, 0, 50, 84
3, 47520, Note_on_c, 0, 50, 0
3, 47520, Note_on_c, 0, 60, 0
3, 47520, Note_on_c, 0, 57, 0
3, 47520, Note_on_c, 0, 38, 0
3, 47520, Note_on_c, 0, 54, 75
3, 47520, Note_on_c, 0, 62, 75
3, 47520, Note_on_c, 0, 50, 82
3, 47520, Note_on_c, 0, 38, 82
3, 47610, Note_on_c, 0, 50, 0
3, 47610, Note_on_c, 0, 50, 81
3, 47700, Note_on_c, 0, 50, 0
3, 47700, Note_on_c, 0, 50, 80
3, 47790, Note_on_c, 0, 50, 0
3, 47790, Note_on_c, 0, 50, 77
3, 47880, Note_on_c, 0, 50, 0
3, 47880, Note_on_c, 0, 54, 0
3, 47880, Note_on_c, 0, 62, 0
3, 47880, Note_on_c, 0, 52, 74
3, 47880, Note_on_c, 0, 55, 74
3, 47880, Note_on_c, 0, 64, 74
3, 47880, Note_on_c, 0, 50, 78
3, 47970, Note_on_c, 0, 50, 0
3, 47970, Note_on_c, 0, 50, 72
3, 48060, Note_on_c, 0, 50, 0
3, 48060, Note_on_c, 0, 50, 81
3, 48150, Note_on_c, 0, 50, 0
3, 48150, Note_on_c, 0, 50, 81
3, 48240, Note_on_c, 0, 50, 0
3, 48240, Note_on_c, 0, 64, 0
3, 48240, Note_on_c, 0, 55, 0
3, 48240, Note_on_c, 0, 52, 0
3, 48240, Note_on_c, 0, 53, 81
3, 48240, Note_on_c, 0, 56, 81
3, 48240, Note_on_c, 0, 65, 81
3, 48240, Note_on_c, 0, 50, 84
3, 48330, Note_on_c, 0, 50, 0
3, 48330, Note_on_c, 0, 50, 85
3, 48420, Note_on_c, 0, 50, 0
3, 48420, Note_on_c, 0, 50, 78
3, 48510, Note_on_c, 0, 50, 0
3, 48510, Note_on_c, 0, 50, 78
3, 48600, Note_on_c, 0, 50, 0
3, 48600, Note_on_c, 0, 65, 0
3, 48600, Note_on_c, 0, 38, 0
3, 48600, Note_on_c, 0, 53, 0
3, 48600, Note_on_c, 0, 56, 0
3, 48600, Note_on_c, 0, 53, 76
3, 48600, Note_on_c, 0, 56, 76
3, 48600, Note_on_c, 0, 65, 76
3, 48600, Note_on_c, 0, 50, 80
3, 48600, Note_on_c, 0, 38, 77
3, 48690, Note_on_c, 0, 50, 0
3, 48690, Note_on_c, 0, 50, 78
3, 48780, Note_on_c, 0, 50, 0
3, 48780, Note_on_c, 0, 50, 81
3, 48870, Note_on_c, 0, 50, 0
3, 48870, Note_on_c, 0, 50, 85
3, 48960, Note_on_c, 0, 50, 0
3, 48960, Note_on_c, 0, 53, 0
3, 48960, Note_on_c, 0, 65, 0
3, 48960, Note_on_c, 0, 56, 0
3, 48960, Note_on_c, 0, 54, 84
3, 48960, Note_on_c, 0, 57, 84
3, 48960, Note_on_c, 0, 66, 84
3, 48960, Note_on_c, 0, 50, 82
3, 49050, Note_on_c, 0, 50, 0
3, 49050, Note_on_c, 0, 50, 84
3, 49140, Note_on_c, 0, 50, 0
3, 49140, Note_on_c, 0, 50, 79
3, 49230, Note_on_c, 0, 50, 0
3, 49230, Note_on_c, 0, 50, 81
3, 49320, Note_on_c, 0, 50, 0
3, 49320, Note_on_c, 0, 50, 82
3, 49410, Note_on_c, 0, 50, 0
3, 49410, Note_on_c, 0, 50, 80
3, 49500, Note_on_c, 0, 50, 0
3, 49500, Note_on_c, 0, 50, 82
3, 49590, Note_on_c, 0, 50, 0
3, 49590, Note_on_c, 0, 50, 80
3, 49680, Note_on_c, 0, 50, 0
3, 49680, Note_on_c, 0, 66, 0
3, 49680, Note_on_c, 0, 38, 0
3, 49680, Note_on_c, 0, 54, 0
3, 49680, Note_on_c, 0, 57, 0
3, 49680, Note_on_c, 0, 54, 101
3, 49680, Note_on_c, 0, 62, 101
3, 49680, Note_on_c, 0, 50, 80
3, 49680, Note_on_c, 0, 38, 81
3, 49770, Note_on_c, 0, 50, 0
3, 49770, Note_on_c, 0, 50, 80
3, 49860, Note_on_c, 0, 50, 0
3, 49860, Note_on_c, 0, 50, 85
3, 49950, Note_on_c, 0, 50, 0
3, 49950, Note_on_c, 0, 50, 84
3, 50040, Note_on_c, 0, 50, 0
3, 50040, Note_on_c, 0, 54, 0
3, 50040, Note_on_c, 0, 62, 0
3, 50040, Note_on_c, 0, 52, 104
3, 50040, Note_on_c, 0, 55, 104
3, 50040, Note_on_c, 0, 64, 104
3, 50040, Note_on_c, 0, 50, 79
3, 50130, Note_on_c, 0, 50, 0
3, 50130, Note_on_c, 0, 50, 77
3, 50220, Note_on_c, 0, 50, 0
3, 50220, Note_on_c, 0, 50, 79
3, 50310, Note_on_c, 0, 50, 0
3, 50310, Note_on_c, 0, 50, 79
3, 50400, Note_on_c, 0, 50, 0
3, 50400, Note_on_c, 0, 64, 0
3, 50400, Note_on_c, 0, 55, 0
3, 50400, Note_on_c, 0, 52, 0
3, 50400, Note_on_c, 0, 53, 111
3, 50400, Note_on_c, 0, 56, 111
3, 50400, Note_on_c, 0, 65, 111
3, 50400, Note_on_c, 0, 50, 83
3, 50490, Note_on_c, 0, 50, 0
3, 50490, Note_on_c, 0, 50, 81
3, 50580, Note_on_c, 0, 50, 0
3, 50580, Note_on_c, 0, 50, 76
3, 50670, Note_on_c, 0, 50, 0
3, 50670, Note_on_c, 0, 50, 81
3, 50760, Note_on_c, 0, 50, 0
3, 50760, Note_on_c, 0, 65, 0
3, 50760, Note_on_c, 0, 38, 0
3, 50760, Note_on_c, 0, 53, 0
3, 50760, Note_on_c, 0, 56, 0
3, 50760, Note_on_c, 0, 53, 103
3, 50760, Note_on_c, 0, 56, 103
3, 50760, Note_on_c, 0, 65, 103
3, 50760, Note_on_c, 0, 50, 75
3, 50760, Note_on_c, 0, 38, 77
3, 50850, Note_on_c, 0, 50, 0
3, 50850, Note_on_c, 0, 50, 85
3, 50940, Note_on_c, 0, 50, 0
3, 50940, Note_on_c, 0, 50, 80
3, 51030, Note_on_c, 0, 50, 0
3, 51030, Note_on_c, 0, 50, 82
3, 51120, Note_on_c, 0, 50, 0
3, 51120, Note_on_c, 0, 53, 0
3, 51120, Note_on_c, 0, 65, 0
3, 51120, Note_on_c, 0, 56, 0
3, 51120, Note_on_c, 0, 54, 105
3, 51120, Note_on_c, 0, 57, 105
3, 51120, Note_on_c, 0, 66, 105
3, 51120, Note_on_c, 0, 50, 78
3, 51210, Note_on_c, 0, 50, 0
3, 51210, Note_on_c, 0, 50, 83
3, 51300, Note_on_c, 0, 50, 0
3, 51300, Note_on_c, 0, 50, 80
3, 51390, Note_on_c, 0, 50, 0
3, 51390, Note_on_c, 0, 50, 84
3, 51480, Note_on_c, 0, 50, 0
3, 51480, Note_on_c, 0, 66, 0
3, 51480, Note_on_c, 0, 57, 0
3, 51480, Note_on_c, 0, 54, 0
3, 51480, Note_on_c, 0, 57, 88
3, 51480, Note_on_c, 0, 60, 88
3, 51480, Note_on_c, 0, 50, 81
3, 51570, Note_on_c, 0, 50, 0
3, 51570, Note_on_c, 0, 50, 79
3, 51660, Note_on_c, 0, 50, 0
3, 51660, Note_on_c, 0, 50, 80
3, 51750, Note_on_c, 0, 50, 0
3, 51750, Note_on_c, 0, 50, 81
3, 51840, Note_on_c, 0, 50, 0
3, 51840, Note_on_c, 0, 60, 0
3, 51840, Note_on_c, 0, 57, 0
3, 51840, Note_on_c, 0, 38, 0
3, 51840, Note_on_c, 0, 54, 105
3, 51840, Note_on_c, 0, 62, 105
3, 51840, Note_on_c, 0, 50, 80
3, 51840, Note_on_c, 0, 38, 80
3, 51930, Note_on_c, 0, 50, 0
3, 51930, Note_on_c, 0, 50, 78
3, 52020, Note_on_c, 0, 50, 0
3, 52020, Note_on_c, 0, 50, 76
3, 52110, Note_on_c, 0, 50, 0
3, 52110, Note_on_c, 0, 50, 77
3, 52200, Note_on_c, 0, 50, 0
3, 52200, Note_on_c, 0, 54, 0
3, 52200, Note_on_c, 0, 62, 0
3, 52200, Note_on_c, 0, 52, 106
3, 52200, Note_on_c, 0, 55, 106
3, 52200, Note_on_c, 0, 64, 106
3, 52200, Note_on_c, 0, 50, 79
3, 52290, Note_on_c, 0, 50, 0
3, 52290, Note_on_c, 0, 50, 81
3, 52380, Note_on_c, 0, 50, 0
3, 52380, Note_on_c, 0, 50, 79
3, 52470, Note_on_c, 0, 50, 0
3, 52470, Note_on_c, 0, 50, 83
3, 52560, Note_on_c, 0, 50, 0
3, 52560, Note_on_c, 0, 64, 0
3, 52560, Note_on_c, 0, 55, 0
3, 52560, Note_on_c, 0, 52, 0
3, 52560, Note_on_c, 0, 54, 103
3, 52560, Note_on_c, 0, 57, 103
3, 52560, Note_on_c, 0, 66, 103
3, 52560, Note_on_c, 0, 50, 78
3, 52650, Note_on_c, 0, 50, 0
3, 52650, Note_on_c, 0, 50, 80
3, 52740, Note_on_c, 0, 50, 0
3, 52740, Note_on_c, 0, 66, 0
3, 52740, Note_on_c, 0, 57, 0
3, 52740, Note_on_c, 0, 54, 0
3, 52740, Note_on_c, 0, 55, 90
3, 52740, Note_on_c, 0, 59, 90
3, 52740, Note_on_c, 0, 50, 78
3, 52830, Note_on_c, 0, 50, 0
3, 52830, Note_on_c, 0, 50, 83
3, 52920, Note_on_c, 0, 50, 0
3, 52920, Note_on_c, 0, 59, 0
3, 52920, Note_on_c, 0, 55, 0
3, 52920, Note_on_c, 0, 38, 0
3, 52920, Note_on_c, 0, 57, 101
3, 52920, Note_on_c, 0, 60, 101
3, 52920, Note_on_c, 0, 50, 78
3, 52920, Note_on_c, 0, 38, 78
3, 53010, Note_on_c, 0, 50, 0
3, 53010, Note_on_c, 0, 50, 82
3, 53100, Note_on_c, 0, 50, 0
3, 53100, Note_on_c, 0, 57, 0
3, 53100, Note_on_c, 0, 60, 0
3, 53100, Note_on_c, 0, 59, 97
3, 53100, Note_on_c, 0, 62, 97
3, 53100, Note_on_c, 0, 50, 74
3, 53190, Note_on_c, 0, 50, 0
3, 53190, Note_on_c, 0, 50, 80
3, 53280, Note_on_c, 0, 50, 0
3, 53280, Note_on_c, 0, 62, 0
3, 53280, Note_on_c, 0, 59, 0
3, 53280, Note_on_c, 0, 57, 93
3, 53280, Note_on_c, 0, 60, 93
3, 53280, Note_on_c, 0, 50, 78
3, 53370, Note_on_c, 0, 50, 0
3, 53370, Note_on_c, 0, 50, 82
3, 53460, Note_on_c, 0, 50, 0
3, 53460, Note_on_c, 0, 60, 0
3, 53460, Note_on_c, 0, 57, 0
3, 53460, Note_on_c, 0, 54, 88
3, 53460, Note_on_c, 0, 57, 88
3, 53460, Note_on_c, 0, 50, 83
3, 53550, Note_on_c, 0, 50, 0
3, 53550, Note_on_c, 0, 50, 84
3, 53640, Note_on_c, 0, 50, 0
3, 53640, Note_on_c, 0, 57, 0
3, 53640, Note_on_c, 0, 54, 0
3, 53640, Note_on_c, 0, 55, 84
3, 53640, Note_on_c, 0, 59, 84
3, 53640, Note_on_c, 0, 50, 79
3, 53730, Note_on_c, 0, 50, 0
3, 53730, Note_on_c, 0, 50, 81
3, 53820, Note_on_c, 0, 50, 0
3, 53820, Note_on_c, 0, 59, 0
3, 53820, Note_on_c, 0, 55, 0
3, 53820, Note_on_c, 0, 57, 80
3, 53820, Note_on_c, 0, 60, 80
3, 53820, Note_on_c, 0, 50, 81
3, 53910, Note_on_c, 0, 50, 0
3, 53910, Note_on_c, 0, 50, 84
3, 54000, Note_on_c, 0, 50, 0
3, 54000, Note_on_c, 0, 60, 0
3, 54000, Note_on_c, 0, 57, 0
3, 54000, Note_on_c, 0, 38, 0
3, 54000, Note_on_c, 0, 55, 76
3, 54000, Note_on_c, 0, 59, 76
3, 54000, Note_on_c, 0, 62, 76
3, 54000, Note_on_c, 0, 31, 73
3, 54000, Note_on_c, 0, 43, 73
3, 54044, Note_on_c, 0, 62, 0
3, 54044, Note_on_c, 0, 55, 0
3, 54044, Note_on_c, 0, 59, 0
3, 54090, Note_on_c, 0, 55, 50
3, 54090, Note_on_c, 0, 59, 50
3, 54090, Note_on_c, 0, 62, 50
3, 54134, Note_on_c, 0, 62, 0
3, 54134, Note_on_c, 0, 55, 0
3, 54134, Note_on_c, 0, 59, 0
3, 54180, Note_on_c, 0, 31, 0
3, 54180, Note_on_c, 0, 43, 0
3, 54180, Note_on_c, 0, 55, 49
3, 54180, Note_on_c, 0, 59, 49
3, 54180, Note_on_c, 0, 62, 49
3, 54224, Note_on_c, 0, 62, 0
3, 54224, Note_on_c, 0, 59, 0
3, 54224, Note_on_c, 0, 55, 0
3, 54270, Note_on_c, 0, 55, 48
3, 54270, Note_on_c, 0, 59, 48
3, 54270, Note_on_c, 0, 62, 48
3, 54314, Note_on_c, 0, 62, 0
3, 54314, Note_on_c, 0, 59, 0
3, 54314, Note_on_c, 0, 55, 0
3, 54360, Note_on_c, 0, 55, 49
3, 54360, Note_on_c, 0, 59, 49
3, 54360, Note_on_c, 0, 62, 49
3, 54404, Note_on_c, 0, 62, 0
3, 54404, Note_on_c, 0, 59, 0
3, 54404, Note_on_c, 0, 55, 0
3, 54450, Note_on_c, 0, 55, 45
3, 54450, Note_on_c, 0, 59, 45
3, 54450, Note_on_c, 0, 62, 45
3, 54494, Note_on_c, 0, 62, 0
3, 54494, Note_on_c, 0, 59, 0
3, 54494, Note_on_c, 0, 55, 0
3, 54540, Note_on_c, 0, 55, 46
3, 54540, Note_on_c, 0, 59, 46
3, 54540, Note_on_c, 0, 62, 46
3, 54540, Note_on_c, 0, 38, 73
3, 54540, Note_on_c, 0, 50, 73
3, 54584, Note_on_c, 0, 62, 0
3, 54584, Note_on_c, 0, 55, 0
3, 54584, Note_on_c, 0, 59, 0
3, 54630, Note_on_c, 0, 55, 47
3, 54630, Note_on_c, 0, 59, 47
3, 54630, Note_on_c, 0, 62, 47
3, 54674, Note_on_c, 0, 62, 0
3, 54674, Note_on_c, 0, 55, 0
3, 54674, Note_on_c, 0, 59, 0
3, 54720, Note_on_c, 0, 38, 0
3, 54720, Note_on_c, 0, 50, 0
3, 54720, Note_on_c, 0, 55, 48
3, 54720, Note_on_c, 0, 59, 48
3, 54720, Note_on_c, 0, 62, 48
3, 54764, Note_on_c, 0, 62, 0
3, 54764, Note_on_c, 0, 59, 0
3, 54764, Note_on_c, 0, 55, 0
3, 54810, Note_on_c, 0, 55, 45
3, 54810, Note_on_c, 0, 59, 45
3, 54810, Note_on_c, 0, 62, 45
3, 54854, Note_on_c, 0, 62, 0
3, 54854, Note_on_c, 0, 59, 0
3, 54854, Note_on_c, 0, 55, 0
3, 54900, Note_on_c, 0, 55, 47
3, 54900, Note_on_c, 0, 59, 47
3, 54944, Note_on_c, 0, 59, 0
3, 54944, Note_on_c, 0, 55, 0
3, 54990, Note_on_c, 0, 55, 48
3, 54990, Note_on_c, 0, 59, 48
3, 55034, Note_on_c, 0, 59, 0
3, 55034, Note_on_c, 0, 55, 0
3, 55080, Note_on_c, 0, 55, 48
3, 55080, Note_on_c, 0, 59, 48
3, 55080, Note_on_c, 0, 43, 73
3, 55124, Note_on_c, 0, 59, 0
3, 55124, Note_on_c, 0, 55, 0
3, 55170, Note_on_c, 0, 55, 48
3, 55170, Note_on_c, 0, 59, 48
3, 55214, Note_on_c, 0, 59, 0
3, 55214, Note_on_c, 0, 55, 0
3, 55260, Note_on_c, 0, 43, 0
3, 55260, Note_on_c, 0, 55, 49
3, 55260, Note_on_c, 0, 59, 49
3, 55304, Note_on_c, 0, 59, 0
3, 55304, Note_on_c, 0, 55, 0
3, 55350, Note_on_c, 0, 55, 48
3, 55350, Note_on_c, 0, 59, 48
3, 55394, Note_on_c, 0, 59, 0
3, 55394, Note_on_c, 0, 55, 0
3, 55440, Note_on_c, 0, 55, 46
3, 55440, Note_on_c, 0, 59, 46
3, 55484, Note_on_c, 0, 59, 0
3, 55484, Note_on_c, 0, 55, 0
3, 55530, Note_on_c, 0, 55, 46
3, 55530, Note_on_c, 0, 59, 46
3, 55574, Note_on_c, 0, 59, 0
3, 55574, Note_on_c, 0, 55, 0
3, 55620, Note_on_c, 0, 55, 54
3, 55620, Note_on_c, 0, 59, 54
3, 55620, Note_on_c, 0, 62, 54
3, 55620, Note_on_c, 0, 38, 73
3, 55620, Note_on_c, 0, 50, 73
3, 55664, Note_on_c, 0, 62, 0
3, 55664, Note_on_c, 0, 55, 0
3, 55664, Note_on_c, 0, 59, 0
3, 55710, Note_on_c, 0, 55, 45
3, 55710, Note_on_c, 0, 59, 45
3, 55710, Note_on_c, 0, 62, 45
3, 55754, Note_on_c, 0, 62, 0
3, 55754, Note_on_c, 0, 55, 0
3, 55754, Note_on_c, 0, 59, 0
3, 55800, Note_on_c, 0, 38, 0
3, 55800, Note_on_c, 0, 50, 0
3, 55800, Note_on_c, 0, 55, 45
3, 55800, Note_on_c, 0, 59, 45
3, 55800, Note_on_c, 0, 62, 45
3, 55844, Note_on_c, 0, 62, 0
3, 55844, Note_on_c, 0, 59, 0
3, 55844, Note_on_c, 0, 55, 0
3, 55890, Note_on_c, 0, 55, 50
3, 55890, Note_on_c, 0, 59, 50
3, 55890, Note_on_c, 0, 62, 50
3, 55934, Note_on_c, 0, 62, 0
3, 55934, Note_on_c, 0, 59, 0
3, 55934, Note_on_c, 0, 55, 0
3, 55980, Note_on_c, 0, 55, 49
3, 55980, Note_on_c, 0, 59, 49
3, 55980, Note_on_c, 0, 62, 49
3, 56024, Note_on_c, 0, 62, 0
3, 56024, Note_on_c, 0, 59, 0
3, 56024, Note_on_c, 0, 55, 0
3, 56070, Note_on_c, 0, 55, 45
3, 56070, Note_on_c, 0, 59, 45
3, 56070, Note_on_c, 0, 62, 45
3, 56114, Note_on_c, 0, 62, 0
3, 56114, Note_on_c, 0, 59, 0
3, 56114, Note_on_c, 0, 55, 0
3, 56160, Note_on_c, 0, 55, 51
3, 56160, Note_on_c, 0, 59, 51
3, 56160, Note_on_c, 0, 62, 51
3, 56160, Note_on_c, 0, 31, 72
3, 56160, Note_on_c, 0, 43, 72
3, 56204, Note_on_c, 0, 62, 0
3, 56204, Note_on_c, 0, 55, 0
3, 56204, Note_on_c, 0, 59, 0
3, 56250, Note_on_c, 0, 55, 45
3, 56250, Note_on_c, 0, 59, 45
3, 56250, Note_on_c, 0, 62, 45
3, 56294, Note_on_c, 0, 62, 0
3, 56294, Note_on_c, 0, 55, 0
3, 56294, Note_on_c, 0, 59, 0
3, 56340, Note_on_c, 0, 31, 0
3, 56340, Note_on_c, 0, 43, 0
3, 56340, Note_on_c, 0, 55, 48
3, 56340, Note_on_c, 0, 59, 48
3, 56340, Note_on_c, 0, 62, 48
3, 56384, Note_on_c, 0, 62, 0
3, 56384, Note_on_c, 0, 59, 0
3, 56384, Note_on_c, 0, 55, 0
3, 56430, Note_on_c, 0, 55, 47
3, 56430, Note_on_c, 0, 59, 47
3, 56430, Note_on_c, 0, 62, 47
3, 56474, Note_on_c, 0, 62, 0
3, 56474, Note_on_c, 0, 59, 0
3, 56474, Note_on_c, 0, 55, 0
3, 56520, Note_on_c, 0, 55, 50
3, 56520, Note_on_c, 0, 59, 50
3, 56520, Note_on_c, 0, 62, 50
3, 56564, Note_on_c, 0, 62, 0
3, 56564, Note_on_c, 0, 59, 0
3, 56564, Note_on_c, 0, 55, 0
3, 56610, Note_on_c, 0, 55, 48
3, 56610, Note_on_c, 0, 59, 48
3, 56610, Note_on_c, 0, 62, 48
3, 56654, Note_on_c, 0, 62, 0
3, 56654, Note_on_c, 0, 59, 0
3, 56654, Note_on_c, 0, 55, 0
3, 56700, Note_on_c, 0, 55, 46
3, 56700, Note_on_c, 0, 59, 46
3, 56700, Note_on_c, 0, 62, 46
3, 56700, Note_on_c, 0, 38, 73
3, 56700, Note_on_c, 0, 50, 73
3, 56744, Note_on_c, 0, 62, 0
3, 56744, Note_on_c, 0, 55, 0
3, 56744, Note_on_c, 0, 59, 0
3, 56790, Note_on_c, 0, 55, 48
3, 56790, Note_on_c, 0, 59, 48
3, 56790, Note_on_c, 0, 62, 48
3, 56834, Note_on_c, 0, 62, 0
3, 56834, Note_on_c, 0, 55, 0
3, 56834, Note_on_c, 0, 59, 0
3, 56880, Note_on_c, 0, 38, 0
3, 56880, Note_on_c, 0, 50, 0
3, 56880, Note_on_c, 0, 55, 47
3, 56880, Note_on_c, 0, 59, 47
3, 56880, Note_on_c, 0, 62, 47
3, 56924, Note_on_c, 0, 62, 0
3, 56924, Note_on_c, 0, 59, 0
3, 56924, Note_on_c, 0, 55, 0
3, 56970, Note_on_c, 0, 55, 51
3, 56970, Note_on_c, 0, 59, 51
3, 56970, Note_on_c, 0, 62, 51
3, 57014, Note_on_c, 0, 62, 0
3, 57014, Note_on_c, 0, 59, 0
3, 57014, Note_on_c, 0, 55, 0
3, 57060, Note_on_c, 0, 55, 49
3, 57060, Note_on_c, 0, 59, 49
3, 57060, Note_on_c, 0, 62, 49
3, 57104, Note_on_c, 0, 62, 0
3, 57104, Note_on_c, 0, 59, 0
3, 57104, Note_on_c, 0, 55, 0
3, 57150, Note_on_c, 0, 55, 54
3, 57150, Note_on_c, 0, 59, 54
3, 57150, Note_on_c, 0, 62, 54
3, 57194, Note_on_c, 0, 62, 0
3, 57194, Note_on_c, 0, 59, 0
3, 57194, Note_on_c, 0, 55, 0
3, 57240, Note_on_c, 0, 62, 62
3, 57240, Note_on_c, 0, 43, 74
3, 57240, Note_on_c, 0, 55, 74
3, 57420, Note_on_c, 0, 55, 0
3, 57420, Note_on_c, 0, 43, 0
3, 57600, Note_on_c, 0, 62, 0
3, 57600, Note_on_c, 0, 60, 59
3, 57780, Note_on_c, 0, 40, 72
3, 57780, Note_on_c, 0, 52, 72
3, 57960, Note_on_c, 0, 52, 0
3, 57960, Note_on_c, 0, 40, 0
3, 58320, Note_on_c, 0, 60, 0
3, 58320, Note_on_c, 0, 59, 59
3, 58320, Note_on_c, 0, 31, 78
3, 58320, Note_on_c, 0, 43, 78
3, 58500, Note_on_c, 0, 43, 0
3, 58500, Note_on_c, 0, 31, 0
3, 58680, Note_on_c, 0, 59, 0
3, 58680, Note_on_c, 0, 57, 63
3, 58860, Note_on_c, 0, 38, 70
3, 58860, Note_on_c, 0, 50, 70
3, 59040, Note_on_c, 0, 50, 0
3, 59040, Note_on_c, 0, 38, 0
3, 59040, Note_on_c, 0, 57, 0
3, 59040, Note_on_c, 0, 56, 66
3, 59400, Note_on_c, 0, 56, 0
3, 59400, Note_on_c, 0, 57, 67
3, 59400, Note_on_c, 0, 43, 71
3, 59400, Note_on_c, 0, 55, 71
3, 59580, Note_on_c, 0, 55, 0
3, 59580, Note_on_c, 0, 43, 0
3, 59760, Note_on_c, 0, 57, 0
3, 59760, Note_on_c, 0, 59, 68
3, 59940, Note_on_c, 0, 38, 77
3, 59940, Note_on_c, 0, 50, 77
3, 60120, Note_on_c, 0, 50, 0
3, 60120, Note_on_c, 0, 38, 0
3, 60120, Note_on_c, 0, 59, 0
3, 60120, Note_on_c, 0, 60, 69
3, 60480, Note_on_c, 0, 60, 0
3, 60480, Note_on_c, 0, 64, 75
3, 60480, Note_on_c, 0, 31, 76
3, 60480, Note_on_c, 0, 43, 76
3, 60660, Note_on_c, 0, 43, 0
3, 60660, Note_on_c, 0, 31, 0
3, 60840, Note_on_c, 0, 64, 0
3, 60840, Note_on_c, 0, 62, 65
3, 61020, Note_on_c, 0, 38, 80
3, 61020, Note_on_c, 0, 50, 80
3, 61200, Note_on_c, 0, 50, 0
3, 61200, Note_on_c, 0, 38, 0
3, 61200, Note_on_c, 0, 62, 0
3, 61200, Note_on_c, 0, 61, 56
3, 61560, Note_on_c, 0, 61, 0
3, 61560, Note_on_c, 0, 62, 69
3, 61560, Note_on_c, 0, 43, 72
3, 61560, Note_on_c, 0, 55, 72
3, 61740, Note_on_c, 0, 55, 0
3, 61740, Note_on_c, 0, 43, 0
3, 62100, Note_on_c, 0, 62, 0
3, 62100, Note_on_c, 0, 62, 65
3, 62100, Note_on_c, 0, 40, 74
3, 62100, Note_on_c, 0, 52, 74
3, 62280, Note_on_c, 0, 52, 0
3, 62280, Note_on_c, 0, 40, 0
3, 62280, Note_on_c, 0, 62, 0
3, 62280, Note_on_c, 0, 64, 69
3, 62460, Note_on_c, 0, 64, 0
3, 62460, Note_on_c, 0, 62, 60
3, 62640, Note_on_c, 0, 62, 0
3, 62640, Note_on_c, 0, 55, 57
3, 62640, Note_on_c, 0, 59, 57
3, 62640, Note_on_c, 0, 62, 57
3, 62640, Note_on_c, 0, 31, 74
3, 62640, Note_on_c, 0, 43, 74
3, 62684, Note_on_c, 0, 62, 0
3, 62684, Note_on_c, 0, 55, 0
3, 62684, Note_on_c, 0, 59, 0
3, 62730, Note_on_c, 0, 55, 58
3, 62730, Note_on_c, 0, 59, 58
3, 62730, Note_on_c, 0, 62, 58
3, 62774, Note_on_c, 0, 62, 0
3, 62774, Note_on_c, 0, 55, 0
3, 62774, Note_on_c, 0, 59, 0
3, 62820, Note_on_c, 0, 31, 0
3, 62820, Note_on_c, 0, 43, 0
3, 62820, Note_on_c, 0, 55, 59
3, 62820, Note_on_c, 0, 59, 59
3, 62820, Note_on_c, 0, 62, 59
3, 62864, Note_on_c, 0, 62, 0
3, 62864, Note_on_c, 0, 59, 0
3, 62864, Note_on_c, 0, 55, 0
3, 62910, Note_on_c, 0, 55, 54
3, 62910, Note_on_c, 0, 59, 54
3, 62910, Note_on_c, 0, 62, 54
3, 62954, Note_on_c, 0, 62, 0
3, 62954, Note_on_c, 0, 59, 0
3, 62954, Note_on_c, 0, 55, 0
3, 63000, Note_on_c, 0, 55, 56
3, 63000, Note_on_c, 0, 59, 56
3, 63000, Note_on_c, 0, 62, 56
3, 63044, Note_on_c, 0, 62, 0
3, 63044, Note_on_c, 0, 59, 0
3, 63044, Note_on_c, 0, 55, 0
3, 63090, Note_on_c, 0, 55, 56
3, 63090, Note_on_c, 0, 59, 56
3, 63090, Note_on_c, 0, 62, 56
3, 63134, Note_on_c, 0, 62, 0
3, 63134, Note_on_c, 0, 59, 0
3, 63134, Note_on_c, 0, 55, 0
3, 63180, Note_on_c, 0, 55, 58
3, 63180, Note_on_c, 0, 59, 58
3, 63180, Note_on_c, 0, 62, 58
3, 63180, Note_on_c, 0, 38, 72
3, 63180, Note_on_c, 0, 50, 72
3, 63224, Note_on_c, 0, 62, 0
3, 63224, Note_on_c, 0, 55, 0
3, 63224, Note_on_c, 0, 59, 0
3, 63270, Note_on_c, 0, 55, 52
3, 63270, Note_on_c, 0, 59, 52
3, 63270, Note_on_c, 0, 62, 52
3, 63314, Note_on_c, 0, 62, 0
3, 63314, Note_on_c, 0, 55, 0
3, 63314, Note_on_c, 0, 59, 0
3, 63360, Note_on_c, 0, 38, 0
3, 63360, Note_on_c, 0, 50, 0
3, 63360, Note_on_c, 0, 55, 57
3, 63360, Note_on_c, 0, 59, 57
3, 63360, Note_on_c, 0, 62, 57
3, 63404, Note_on_c, 0, 62, 0
3, 63404, Note_on_c, 0, 59, 0
3, 63404, Note_on_c, 0, 55, 0
3, 63450, Note_on_c, 0, 55, 55
3, 63450, Note_on_c, 0, 59, 55
3, 63450, Note_on_c, 0, 62, 55
3, 63494, Note_on_c, 0, 62, 0
3, 63494, Note_on_c, 0, 59, 0
3, 63494, Note_on_c, 0, 55, 0
3, 63540, Note_on_c, 0, 55, 56
3, 63540, Note_on_c, 0, 59, 56
3, 63584, Note_on_c, 0, 59, 0
3, 63584, Note_on_c, 0, 55, 0
3, 63630, Note_on_c, 0, 55, 55
3, 63630, Note_on_c, 0, 59, 55
3, 63674, Note_on_c, 0, 59, 0
3, 63674, Note_on_c, 0, 55, 0
3, 63720, Note_on_c, 0, 55, 59
3, 63720, Note_on_c, 0, 59, 59
3, 63720, Note_on_c, 0, 43, 74
3, 63764, Note_on_c, 0, 59, 0
3, 63764, Note_on_c, 0, 55, 0
3, 63810, Note_on_c, 0, 55, 59
3, 63810, Note_on_c, 0, 59, 59
3, 63854, Note_on_c, 0, 59, 0
3, 63854, Note_on_c, 0, 55, 0
3, 63900, Note_on_c, 0, 43, 0
3, 63900, Note_on_c, 0, 55, 57
3, 63900, Note_on_c, 0, 59, 57
3, 63944, Note_on_c, 0, 59, 0
3, 63944, Note_on_c, 0, 55, 0
3, 63990, Note_on_c, 0, 55, 55
3, 63990, Note_on_c, 0, 59, 55
3, 64034, Note_on_c, 0, 59, 0
3, 64034, Note_on_c, 0, 55, 0
3, 64080, Note_on_c, 0, 55, 62
3, 64080, Note_on_c, 0, 59, 62
3, 64124, Note_on_c, 0, 59, 0
3, 64124, Note_on_c, 0, 55, 0
3, 64170, Note_on_c, 0, 55, 57
3, 64170, Note_on_c, 0, 59, 57
3, 64214, Note_on_c, 0, 59, 0
3, 64214, Note_on_c, 0, 55, 0
3, 64260, Note_on_c, 0, 55, 58
3, 64260, Note_on_c, 0, 59, 58
3, 64260, Note_on_c, 0, 62, 58
3, 64260, Note_on_c, 0, 38, 72
3, 64260, Note_on_c, 0, 50, 72
3, 64304, Note_on_c, 0, 62, 0
3, 64304, Note_on_c, 0, 55, 0
3, 64304, Note_on_c, 0, 59, 0
3, 64350, Note_on_c, 0, 55, 57
3, 64350, Note_on_c, 0, 59, 57
3, 64350, Note_on_c, 0, 62, 57
3, 64394, Note_on_c, 0, 62, 0
3, 64394, Note_on_c, 0, 55, 0
3, 64394, Note_on_c, 0, 59, 0
3, 64440, Note_on_c, 0, 38, 0
3, 64440, Note_on_c, 0, 50, 0
3, 64440, Note_on_c, 0, 55, 57
3, 64440, Note_on_c, 0, 59, 57
3, 64440, Note_on_c, 0, 62, 57
3, 64484, Note_on_c, 0, 62, 0
3, 64484, Note_on_c, 0, 59, 0
3, 64484, Note_on_c, 0, 55, 0
3, 64530, Note_on_c, 0, 55, 56
3, 64530, Note_on_c, 0, 59, 56
3, 64530, Note_on_c, 0, 62, 56
3, 64574, Note_on_c, 0, 62, 0
3, 64574, Note_on_c, 0, 59, 0
3, 64574, Note_on_c, 0, 55, 0
3, 64620, Note_on_c, 0, 55, 54
3, 64620, Note_on_c, 0, 59, 54
3, 64620, Note_on_c, 0, 62, 54
3, 64664, Note_on_c, 0, 62, 0
3, 64664, Note_on_c, 0, 59, 0
3, 64664, Note_on_c, 0, 55, 0
3, 64710, Note_on_c, 0, 55, 55
3, 64710, Note_on_c, 0, 59, 55
3, 64710, Note_on_c, 0, 62, 55
3, 64754, Note_on_c, 0, 62, 0
3, 64754, Note_on_c, 0, 59, 0
3, 64754, Note_on_c, 0, 55, 0
3, 64800, Note_on_c, 0, 55, 54
3, 64800, Note_on_c, 0, 59, 54
3, 64800, Note_on_c, 0, 31, 74
3, 64800, Note_on_c, 0, 43, 74
3, 64844, Note_on_c, 0, 59, 0
3, 64844, Note_on_c, 0, 55, 0
3, 64890, Note_on_c, 0, 55, 54
3, 64890, Note_on_c, 0, 59, 54
3, 64934, Note_on_c, 0, 59, 0
3, 64934, Note_on_c, 0, 55, 0
3, 64980, Note_on_c, 0, 31, 0
3, 64980, Note_on_c, 0, 43, 0
3, 64980, Note_on_c, 0, 55, 57
3, 64980, Note_on_c, 0, 59, 57
3, 65024, Note_on_c, 0, 59, 0
3, 65024, Note_on_c, 0, 55, 0
3, 65070, Note_on_c, 0, 55, 55
3, 65070, Note_on_c, 0, 59, 55
3, 65114, Note_on_c, 0, 59, 0
3, 65114, Note_on_c, 0, 55, 0
3, 65160, Note_on_c, 0, 55, 57
3, 65160, Note_on_c, 0, 59, 57
3, 65204, Note_on_c, 0, 59, 0
3, 65204, Note_on_c, 0, 55, 0
3, 65250, Note_on_c, 0, 55, 58
3, 65250, Note_on_c, 0, 59, 58
3, 65294, Note_on_c, 0, 59, 0
3, 65294, Note_on_c, 0, 55, 0
3, 65340, Note_on_c, 0, 55, 48
3, 65340, Note_on_c, 0, 43, 75
3, 65384, Note_on_c, 0, 55, 0
3, 65430, Note_on_c, 0, 55, 54
3, 65474, Note_on_c, 0, 55, 0
3, 65520, Note_on_c, 0, 43, 0
3, 65520, Note_on_c, 0, 55, 58
3, 65564, Note_on_c, 0, 55, 0
3, 65610, Note_on_c, 0, 55, 56
3, 65654, Note_on_c, 0, 55, 0
3, 65700, Note_on_c, 0, 55, 57
3, 65744, Note_on_c, 0, 55, 0
3, 65790, Note_on_c, 0, 55, 58
3, 65834, Note_on_c, 0, 55, 0
3, 65880, Note_on_c, 0, 55, 61
3, 65880, Note_on_c, 0, 57, 61
3, 65880, Note_on_c, 0, 36, 74
3, 65880, Note_on_c, 0, 48, 74
3, 65924, Note_on_c, 0, 57, 0
3, 65924, Note_on_c, 0, 55, 0
3, 65970, Note_on_c, 0, 55, 55
3, 65970, Note_on_c, 0, 57, 55
3, 66014, Note_on_c, 0, 57, 0
3, 66014, Note_on_c, 0, 55, 0
3, 66060, Note_on_c, 0, 36, 0
3, 66060, Note_on_c, 0, 48, 0
3, 66060, Note_on_c, 0, 55, 55
3, 66060, Note_on_c, 0, 57, 55
3, 66060, Note_on_c, 0, 36, 71
3, 66104, Note_on_c, 0, 57, 0
3, 66104, Note_on_c, 0, 55, 0
3, 66105, Note_on_c, 0, 36, 0
3, 66105, Note_on_c, 0, 40, 84
3, 66150, Note_on_c, 0, 40, 0
3, 66150, Note_on_c, 0, 55, 55
3, 66150, Note_on_c, 0, 57, 55
3, 66150, Note_on_c, 0, 43, 82
3, 66194, Note_on_c, 0, 57, 0
3, 66194, Note_on_c, 0, 55, 0
3, 66195, Note_on_c, 0, 43, 0
3, 66195, Note_on_c, 0, 45, 82
3, 66240, Note_on_c, 0, 45, 0
3, 66240, Note_on_c, 0, 48, 49
3, 66285, Note_on_c, 0, 48, 0
3, 66285, Note_on_c, 0, 52, 58
3, 66330, Note_on_c, 0, 52, 0
3, 66330, Note_on_c, 0, 55, 58
3, 66375, Note_on_c, 0, 55, 0
3, 66375, Note_on_c, 0, 57, 56
3, 66420, Note_on_c, 0, 57, 0
3, 66420, Note_on_c, 0, 55, 61
3, 66420, Note_on_c, 0, 57, 61
3, 66420, Note_on_c, 0, 60, 61
3, 66420, Note_on_c, 0, 48, 76
3, 66464, Note_on_c, 0, 60, 0
3, 66464, Note_on_c, 0, 55, 0
3, 66464, Note_on_c, 0, 57, 0
3, 66510, Note_on_c, 0, 55, 52
3, 66510, Note_on_c, 0, 57, 52
3, 66554, Note_on_c, 0, 57, 0
3, 66554, Note_on_c, 0, 55, 0
3, 66600, Note_on_c, 0, 48, 0
3, 66600, Note_on_c, 0, 55, 56
3, 66600, Note_on_c, 0, 57, 56
3, 66644, Note_on_c, 0, 57, 0
3, 66644, Note_on_c, 0, 55, 0
3, 66690, Note_on_c, 0, 55, 53
3, 66690, Note_on_c, 0, 57, 53
3, 66734, Note_on_c, 0, 57, 0
3, 66734, Note_on_c, 0, 55, 0
3, 66780, Note_on_c, 0, 55, 56
3, 66780, Note_on_c, 0, 57, 56
3, 66824, Note_on_c, 0, 57, 0
3, 66824, Note_on_c, 0, 55, 0
3, 66870, Note_on_c, 0, 55, 53
3, 66870, Note_on_c, 0, 57, 53
3, 66914, Note_on_c, 0, 57, 0
3, 66914, Note_on_c, 0, 55, 0
3, 66960, Note_on_c, 0, 55, 55
3, 66960, Note_on_c, 0, 58, 55
3, 66960, Note_on_c, 0, 37, 72
3, 66960, Note_on_c, 0, 49, 72
3, 67004, Note_on_c, 0, 58, 0
3, 67004, Note_on_c, 0, 55, 0
3, 67050, Note_on_c, 0, 55, 59
3, 67050, Note_on_c, 0, 58, 59
3, 67094, Note_on_c, 0, 58, 0
3, 67094, Note_on_c, 0, 55, 0
3, 67140, Note_on_c, 0, 37, 0
3, 67140, Note_on_c, 0, 49, 0
3, 67140, Note_on_c, 0, 55, 55
3, 67140, Note_on_c, 0, 58, 55
3, 67184, Note_on_c, 0, 58, 0
3, 67184, Note_on_c, 0, 55, 0
3, 67230, Note_on_c, 0, 55, 57
3, 67230, Note_on_c, 0, 58, 57
3, 67274, Note_on_c, 0, 58, 0
3, 67274, Note_on_c, 0, 55, 0
3, 67320, Note_on_c, 0, 55, 55
3, 67320, Note_on_c, 0, 58, 55
3, 67364, Note_on_c, 0, 58, 0
3, 67364, Note_on_c, 0, 55, 0
3, 67410, Note_on_c, 0, 55, 59
3, 67410, Note_on_c, 0, 58, 59
3, 67454, Note_on_c, 0, 58, 0
3, 67454, Note_on_c, 0, 55, 0
3, 67500, Note_on_c, 0, 55, 67
3, 67500, Note_on_c, 0, 58, 67
3, 67500, Note_on_c, 0, 64, 67
3, 67500, Note_on_c, 0, 49, 74
3, 67544, Note_on_c, 0, 64, 0
3, 67544, Note_on_c, 0, 55, 0
3, 67544, Note_on_c, 0, 58, 0
3, 67590, Note_on_c, 0, 55, 55
3, 67590, Note_on_c, 0, 58, 55
3, 67590, Note_on_c, 0, 64, 55
3, 67634, Note_on_c, 0, 64, 0
3, 67634, Note_on_c, 0, 58, 0
3, 67634, Note_on_c, 0, 55, 0
3, 67680, Note_on_c, 0, 49, 0
3, 67680, Note_on_c, 0, 55, 56
3, 67680, Note_on_c, 0, 58, 56
3, 67680, Note_on_c, 0, 64, 56
3, 67724, Note_on_c, 0, 64, 0
3, 67724, Note_on_c, 0, 58, 0
3, 67724, Note_on_c, 0, 55, 0
3, 67770, Note_on_c, 0, 55, 56
3, 67770, Note_on_c, 0, 58, 56
3, 67770, Note_on_c, 0, 64, 56
3, 67814, Note_on_c, 0, 64, 0
3, 67814, Note_on_c, 0, 58, 0
3, 67814, Note_on_c, 0, 55, 0
3, 67860, Note_on_c, 0, 55, 55
3, 67860, Note_on_c, 0, 58, 55
3, 67904, Note_on_c, 0, 58, 0
3, 67904, Note_on_c, 0, 55, 0
3, 67950, Note_on_c, 0, 55, 57
3, 67950, Note_on_c, 0, 58, 57
3, 67994, Note_on_c, 0, 58, 0
3, 67994, Note_on_c, 0, 55, 0
3, 68040, Note_on_c, 0, 55, 54
3, 68040, Note_on_c, 0, 38, 74
3, 68040, Note_on_c, 0, 50, 74
3, 68220, Note_on_c, 0, 50, 0
3, 68220, Note_on_c, 0, 38, 0
3, 68400, Note_on_c, 0, 55, 0
3, 68400, Note_on_c, 0, 57, 60
3, 68580, Note_on_c, 0, 50, 77
3, 68760, Note_on_c, 0, 50, 0
3, 68760, Note_on_c, 0, 57, 0
3, 68760, Note_on_c, 0, 59, 55
3, 69120, Note_on_c, 0, 59, 0
3, 69120, Note_on_c, 0, 60, 56
3, 69120, Note_on_c, 0, 38, 74
3, 69120, Note_on_c, 0, 50, 74
3, 69300, Note_on_c, 0, 50, 0
3, 69300, Note_on_c, 0, 38, 0
3, 69480, Note_on_c, 0, 60, 0
3, 69480, Note_on_c, 0, 61, 55
3, 69660, Note_on_c, 0, 50, 72
3, 69840, Note_on_c, 0, 50, 0
3, 69840, Note_on_c, 0, 61, 0
3, 69840, Note_on_c, 0, 62, 58
3, 70200, Note_on_c, 0, 62, 0
3, 70200, Note_on_c, 0, 55, 68
3, 70200, Note_on_c, 0, 59, 68
3, 70200, Note_on_c, 0, 62, 68
3, 70200, Note_on_c, 0, 43, 70
3, 70380, Note_on_c, 0, 43, 0
3, 70380, Note_on_c, 0, 55, 0
3, 70380, Note_on_c, 0, 59, 0
3, 70380, Note_on_c, 0, 62, 0
3, 71280, Note_on_c, 0, 65, 75
3, 71280, Note_on_c, 0, 31, 64
3, 71280, Note_on_c, 0, 43, 64
3, 71460, Note_on_c, 0, 43, 0
3, 71460, Note_on_c, 0, 31, 0
3, 71640, Note_on_c, 0, 65, 0
3, 71640, Note_on_c, 0, 64, 65
3, 71820, Note_on_c, 0, 43, 62
3, 71820, Note_on_c, 0, 55, 62
3, 72000, Note_on_c, 0, 55, 0
3, 72000, Note_on_c, 0, 43, 0
3, 72000, Note_on_c, 0, 64, 0
3, 72000, Note_on_c, 0, 65, 72
3, 72360, Note_on_c, 0, 65, 0
3, 72360, Note_on_c, 0, 64, 66
3, 72360, Note_on_c, 0, 31, 58
3, 72360, Note_on_c, 0, 43, 58
3, 72540, Note_on_c, 0, 43, 0
3, 72540, Note_on_c, 0, 31, 0
3, 72720, Note_on_c, 0, 64, 0
3, 72720, Note_on_c, 0, 63, 61
3, 72900, Note_on_c, 0, 43, 56
3, 72900, Note_on_c, 0, 55, 56
3, 73080, Note_on_c, 0, 55, 0
3, 73080, Note_on_c, 0, 43, 0
3, 73080, Note_on_c, 0, 63, 0
3, 73080, Note_on_c, 0, 64, 71
3, 73440, Note_on_c, 0, 64, 0
3, 73440, Note_on_c, 0, 63, 61
3, 73440, Note_on_c, 0, 31, 59
3, 73440, Note_on_c, 0, 43, 59
3, 73620, Note_on_c, 0, 43, 0
3, 73620, Note_on_c, 0, 31, 0
3, 73800, Note_on_c, 0, 63, 0
3, 73800, Note_on_c, 0, 62, 64
3, 73980, Note_on_c, 0, 43, 57
3, 73980, Note_on_c, 0, 55, 57
3, 74160, Note_on_c, 0, 55, 0
3, 74160, Note_on_c, 0, 43, 0
3, 74160, Note_on_c, 0, 62, 0
3, 74160, Note_on_c, 0, 63, 67
3, 74520, Note_on_c, 0, 63, 0
3, 74520, Note_on_c, 0, 62, 60
3, 74520, Note_on_c, 0, 31, 58
3, 74520, Note_on_c, 0, 43, 58
3, 74700, Note_on_c, 0, 43, 0
3, 74700, Note_on_c, 0, 31, 0
3, 74880, Note_on_c, 0, 62, 0
3, 74880, Note_on_c, 0, 61, 61
3, 75060, Note_on_c, 0, 43, 59
3, 75060, Note_on_c, 0, 55, 59
3, 75240, Note_on_c, 0, 55, 0
3, 75240, Note_on_c, 0, 43, 0
3, 75240, Note_on_c, 0, 61, 0
3, 75240, Note_on_c, 0, 62, 68
3, 75600, Note_on_c, 0, 62, 0
3, 75600, Note_on_c, 0, 53, 77
3, 75600, Note_on_c, 0, 31, 49
3, 75600, Note_on_c, 0, 43, 49
3, 75960, Note_on_c, 0, 53, 0
3, 75960, Note_on_c, 0, 52, 84
3, 76320, Note_on_c, 0, 52, 0
3, 76320, Note_on_c, 0, 53, 89
3, 76680, Note_on_c, 0, 53, 0
3, 76680, Note_on_c, 0, 52, 88
3, 77040, Note_on_c, 0, 52, 0
3, 77040, Note_on_c, 0, 51, 80
3, 77400, Note_on_c, 0, 51, 0
3, 77400, Note_on_c, 0, 52, 71
3, 77760, Note_on_c, 0, 52, 0
3, 77760, Note_on_c, 0, 51, 63
3, 78120, Note_on_c, 0, 51, 0
3, 78120, Note_on_c, 0, 50, 62
3, 78480, Note_on_c, 0, 50, 0
3, 78480, Note_on_c, 0, 51, 63
3, 78840, Note_on_c, 0, 51, 0
3, 78840, Note_on_c, 0, 43, 0
3, 78840, Note_on_c, 0, 50, 73
3, 78875, Note_on_c, 0, 31, 0
3, 78885, Note_on_c, 0, 43, 62
3, 78920, Note_on_c, 0, 43, 0
3, 78930, Note_on_c, 0, 31, 46
3, 78965, Note_on_c, 0, 31, 0
3, 78975, Note_on_c, 0, 43, 62
3, 79010, Note_on_c, 0, 43, 0
3, 79020, Note_on_c, 0, 50, 0
3, 79020, Note_on_c, 0, 43, 71
3, 79020, Note_on_c, 0, 31, 46
3, 79055, Note_on_c, 0, 31, 0
3, 79065, Note_on_c, 0, 43, 0
3, 79065, Note_on_c, 0, 47, 76
3, 79065, Note_on_c, 0, 43, 62
3, 79100, Note_on_c, 0, 43, 0
3, 79110, Note_on_c, 0, 47, 0
3, 79110, Note_on_c, 0, 50, 83
3, 79110, Note_on_c, 0, 31, 46
3, 79145, Note_on_c, 0, 31, 0
3, 79155, Note_on_c, 0, 50, 0
3, 79155, Note_on_c, 0, 55, 78
3, 79155, Note_on_c, 0, 43, 62
3, 79190, Note_on_c, 0, 43, 0
3, 79200, Note_on_c, 0, 55, 0
3, 79200, Note_on_c, 0, 31, 46
3, 79235, Note_on_c, 0, 31, 0
3, 79245, Note_on_c, 0, 43, 62
3, 79280, Note_on_c, 0, 43, 0
3, 79290, Note_on_c, 0, 31, 46
3, 79325, Note_on_c, 0, 31, 0
3, 79335, Note_on_c, 0, 43, 62
3, 79370, Note_on_c, 0, 43, 0
3, 79380, Note_on_c, 0, 31, 46
3, 79415, Note_on_c, 0, 31, 0
3, 79425, Note_on_c, 0, 43, 62
3, 79460, Note_on_c, 0, 43, 0
3, 79470, Note_on_c, 0, 31, 46
3, 79505, Note_on_c, 0, 31, 0
3, 79515, Note_on_c, 0, 43, 62
3, 79550, Note_on_c, 0, 43, 0
3, 79560, Note_on_c, 0, 31, 46
3, 79595, Note_on_c, 0, 31, 0
3, 79605, Note_on_c, 0, 43, 62
3, 79640, Note_on_c, 0, 43, 0
3, 79650, Note_on_c, 0, 31, 46
3, 79685, Note_on_c, 0, 31, 0
3, 79695, Note_on_c, 0, 43, 62
3, 79730, Note_on_c, 0, 43, 0
3, 79740, Note_on_c, 0, 55, 68
3, 79740, Note_on_c, 0, 31, 46
3, 79775, Note_on_c, 0, 31, 0
3, 79785, Note_on_c, 0, 43, 62
3, 79799, Note_on_c, 0, 55, 0
3, 79799, Note_on_c, 0, 50, 71
3, 79820, Note_on_c, 0, 43, 0
3, 79830, Note_on_c, 0, 31, 46
3, 79860, Note_on_c, 0, 50, 0
3, 79860, Note_on_c, 0, 47, 72
3, 79865, Note_on_c, 0, 31, 0
3, 79875, Note_on_c, 0, 43, 62
3, 79910, Note_on_c, 0, 43, 0
3, 79920, Note_on_c, 0, 47, 0
3, 79920, Note_on_c, 0, 43, 69
3, 79920, Note_on_c, 0, 31, 53
3, 79955, Note_on_c, 0, 31, 0
3, 79965, Note_on_c, 0, 43, 0
3, 79965, Note_on_c, 0, 47, 81
3, 79965, Note_on_c, 0, 43, 65
3, 80000, Note_on_c, 0, 43, 0
3, 80010, Note_on_c, 0, 47, 0
3, 80010, Note_on_c, 0, 50, 78
3, 80010, Note_on_c, 0, 31, 53
3, 80045, Note_on_c, 0, 31, 0
3, 80055, Note_on_c, 0, 50, 0
3, 80055, Note_on_c, 0, 55, 84
3, 80055, Note_on_c, 0, 43, 65
3, 80090, Note_on_c, 0, 43, 0
3, 80100, Note_on_c, 0, 55, 0
3, 80100, Note_on_c, 0, 31, 53
3, 80135, Note_on_c, 0, 31, 0
3, 80145, Note_on_c, 0, 43, 65
3, 80180, Note_on_c, 0, 43, 0
3, 80190, Note_on_c, 0, 31, 53
3, 80225, Note_on_c, 0, 31, 0
3, 80235, Note_on_c, 0, 43, 65
3, 80270, Note_on_c, 0, 43, 0
3, 80280, Note_on_c, 0, 31, 53
3, 80315, Note_on_c, 0, 31, 0
3, 80325, Note_on_c, 0, 43, 65
3, 80360, Note_on_c, 0, 43, 0
3, 80370, Note_on_c, 0, 31, 53
3, 80405, Note_on_c, 0, 31, 0
3, 80415, Note_on_c, 0, 43, 65
3, 80450, Note_on_c, 0, 43, 0
3, 80460, Note_on_c, 0, 31, 53
3, 80495, Note_on_c, 0, 31, 0
3, 80505, Note_on_c, 0, 43, 65
3, 80540, Note_on_c, 0, 43, 0
3, 80550, Note_on_c, 0, 31, 53
3, 80585, Note_on_c, 0, 31, 0
3, 80595, Note_on_c, 0, 43, 65
3, 80630, Note_on_c, 0, 43, 0
3, 80640, Note_on_c, 0, 31, 53
3, 80675, Note_on_c, 0, 31, 0
3, 80685, Note_on_c, 0, 43, 65
3, 80720, Note_on_c, 0, 43, 0
3, 80730, Note_on_c, 0, 31, 53
3, 80765, Note_on_c, 0, 31, 0
3, 80775, Note_on_c, 0, 43, 65
3, 80810, Note_on_c, 0, 43, 0
3, 80820, Note_on_c, 0, 59, 64
3, 80820, Note_on_c, 0, 31, 53
3, 80855, Note_on_c, 0, 31, 0
3, 80865, Note_on_c, 0, 59, 0
3, 80865, Note_on_c, 0, 55, 70
3, 80865, Note_on_c, 0, 43, 65
3, 80900, Note_on_c, 0, 43, 0
3, 80910, Note_on_c, 0, 55, 0
3, 80910, Note_on_c, 0, 50, 68
3, 80910, Note_on_c, 0, 31, 53
3, 80945, Note_on_c, 0, 31, 0
3, 80955, Note_on_c, 0, 50, 0
3, 80955, Note_on_c, 0, 47, 69
3, 80955, Note_on_c, 0, 43, 65
3, 80990, Note_on_c, 0, 43, 0
3, 81000, Note_on_c, 0, 47, 0
3, 81000, Note_on_c, 0, 43, 71
3, 81000, Note_on_c, 0, 31, 53
3, 81035, Note_on_c, 0, 31, 0
3, 81045, Note_on_c, 0, 43, 0
3, 81045, Note_on_c, 0, 47, 79
3, 81045, Note_on_c, 0, 43, 62
3, 81080, Note_on_c, 0, 43, 0
3, 81090, Note_on_c, 0, 47, 0
3, 81090, Note_on_c, 0, 50, 81
3, 81090, Note_on_c, 0, 31, 53
3, 81125, Note_on_c, 0, 31, 0
3, 81135, Note_on_c, 0, 50, 0
3, 81135, Note_on_c, 0, 55, 81
3, 81135, Note_on_c, 0, 43, 62
3, 81170, Note_on_c, 0, 43, 0
3, 81180, Note_on_c, 0, 55, 0
3, 81180, Note_on_c, 0, 31, 53
3, 81215, Note_on_c, 0, 31, 0
3, 81225, Note_on_c, 0, 43, 62
3, 81260, Note_on_c, 0, 43, 0
3, 81270, Note_on_c, 0, 31, 53
3, 81305, Note_on_c, 0, 31, 0
3, 81315, Note_on_c, 0, 43, 62
3, 81350, Note_on_c, 0, 43, 0
3, 81360, Note_on_c, 0, 31, 53
3, 81395, Note_on_c, 0, 31, 0
3, 81405, Note_on_c, 0, 43, 62
3, 81440, Note_on_c, 0, 43, 0
3, 81450, Note_on_c, 0, 31, 53
3, 81485, Note_on_c, 0, 31, 0
3, 81495, Note_on_c, 0, 43, 62
3, 81530, Note_on_c, 0, 43, 0
3, 81540, Note_on_c, 0, 31, 53
3, 81575, Note_on_c, 0, 31, 0
3, 81585, Note_on_c, 0, 43, 62
3, 81620, Note_on_c, 0, 43, 0
3, 81630, Note_on_c, 0, 31, 53
3, 81665, Note_on_c, 0, 31, 0
3, 81675, Note_on_c, 0, 43, 62
3, 81710, Note_on_c, 0, 43, 0
3, 81720, Note_on_c, 0, 31, 53
3, 81755, Note_on_c, 0, 31, 0
3, 81765, Note_on_c, 0, 43, 62
3, 81800, Note_on_c, 0, 43, 0
3, 81810, Note_on_c, 0, 31, 53
3, 81845, Note_on_c, 0, 31, 0
3, 81855, Note_on_c, 0, 43, 62
3, 81890, Note_on_c, 0, 43, 0
3, 81900, Note_on_c, 0, 59, 72
3, 81900, Note_on_c, 0, 31, 53
3, 81935, Note_on_c, 0, 31, 0
3, 81945, Note_on_c, 0, 59, 0
3, 81945, Note_on_c, 0, 55, 66
3, 81945, Note_on_c, 0, 43, 62
3, 81980, Note_on_c, 0, 43, 0
3, 81990, Note_on_c, 0, 55, 0
3, 81990, Note_on_c, 0, 50, 68
3, 81990, Note_on_c, 0, 31, 53
3, 82025, Note_on_c, 0, 31, 0
3, 82035, Note_on_c, 0, 50, 0
3, 82035, Note_on_c, 0, 47, 69
3, 82035, Note_on_c, 0, 43, 62
3, 82070, Note_on_c, 0, 43, 0
3, 82080, Note_on_c, 0, 47, 0
3, 82080, Note_on_c, 0, 55, 82
3, 82260, Note_on_c, 0, 55, 0
3, 82260, Note_on_c, 0, 59, 82
3, 82440, Note_on_c, 0, 59, 0
3, 82440, Note_on_c, 0, 62, 83
3, 82620, Note_on_c, 0, 62, 0
3, 82620, Note_on_c, 0, 65, 112
3, 83160, Note_on_c, 0, 55, 47
3, 83160, Note_on_c, 0, 59, 47
3, 83160, Note_on_c, 0, 67, 47
3, 83700, Note_on_c, 0, 65, 0
3, 83700, Note_on_c, 0, 65, 90
3, 84240, Note_on_c, 0, 55, 0
3, 84240, Note_on_c, 0, 59, 0
3, 84240, Note_on_c, 0, 55, 55
3, 84240, Note_on_c, 0, 59, 55
3, 84960, Note_on_c, 0, 59, 0
3, 84960, Note_on_c, 0, 65, 0
3, 84960, Note_on_c, 0, 67, 0
3, 84960, Note_on_c, 0, 55, 0
3, 84960, End_track
0, 0, End_of_file
