0, 0, Header, 1, 3, 360
1, 0, Start_track
1, 0, Title_t, "untitled"
1, 0, Time_signature, 3, 2, 24, 8
1, 0, Key_signature, -2, "major"
1, 0, Tempo, 375000
1, 36720, Tempo, 375000
1, 36793, Tempo, 380518
1, 36866, Tempo, 386225
1, 36939, Tempo, 392080
1, 37013, Tempo, 398142
1, 37086, Tempo, 404367
1, 37159, Tempo, 410790
1, 37232, Tempo, 417449
1, 37305, Tempo, 424298
1, 37378, Tempo, 431406
1, 37451, Tempo, 438725
1, 37524, Tempo, 446296
1, 37598, Tempo, 454167
1, 37671, Tempo, 462285
1, 37817, Tempo, 479463
1, 37890, Tempo, 488520
1, 37979, Tempo, 500000
1, 38790, Tempo, 5000000
1, 38880, Tempo, 500000
1, 39240, Tempo, 375000
1, 59400, Tempo, 375000
1, 59463, Tempo, 380590
1, 59527, Tempo, 386324
1, 59590, Tempo, 392259
1, 59653, Tempo, 398380
1, 59717, Tempo, 404667
1, 59780, Tempo, 411184
1, 59843, Tempo, 417915
1, 59906, Tempo, 424839
1, 59970, Tempo, 432028
1, 60033, Tempo, 439464
1, 60096, Tempo, 447127
1, 60159, Tempo, 455097
1, 60223, Tempo, 463356
1, 60286, Tempo, 471921
1, 60349, Tempo, 480769
1, 60413, Tempo, 489996
1, 60479, Tempo, 500000
1, 60480, Tempo, 375000
1, 115560, Tempo, 375000
1, 115623, Tempo, 380590
1, 115687, Tempo, 386324
1, 115750, Tempo, 392259
1, 115813, Tempo, 398380
1, 115877, Tempo, 404667
1, 115940, Tempo, 411184
1, 116003, Tempo, 417915
1, 116066, Tempo, 424839
1, 116130, Tempo, 432028
1, 116193, Tempo, 439464
1, 116256, Tempo, 447127
1, 116319, Tempo, 455097
1, 116383, Tempo, 463356
1, 116446, Tempo, 471921
1, 116509, Tempo, 480769
1, 116573, Tempo, 489996
1, 116639, Tempo, 500000
1, 116640, Tempo, 375000
1, 132840, Tempo, 375000
1, 132903, Tempo, 380590
1, 132967, Tempo, 386324
1, 133030, Tempo, 392259
1, 133093, Tempo, 398380
1, 133157, Tempo, 404667
1, 133220, Tempo, 411184
1, 133283, Tempo, 417915
1, 133346, Tempo, 424839
1, 133410, Tempo, 432028
1, 133473, Tempo, 439464
1, 133536, Tempo, 447127
1, 133599, Tempo, 455097
1, 133663, Tempo, 463356
1, 133726, Tempo, 471921
1, 133789, Tempo, 480769
1, 133853, Tempo, 489996
1, 133919, Tempo, 500000
1, 133920, Tempo, 375000
1, 154440, Tempo, 375000
1, 154492, Tempo, 380493
1, 154544, Tempo, 386150
1, 154596, Tempo, 392003
1, 154648, Tempo, 398010
1, 154700, Tempo, 404204
1, 154752, Tempo, 410593
1, 154804, Tempo, 417217
1, 154856, Tempo, 424028
1, 154908, Tempo, 431065
1, 154961, Tempo, 438340
1, 155012, Tempo, 445898
1, 155064, Tempo, 453686
1, 155117, Tempo, 461752
1, 155169, Tempo, 470109
1, 155220, Tempo, 478813
1, 155273, Tempo, 487805
1, 155340, Tempo, 500000
1, 155520, Tempo, 375000
1, 170640, Tempo, 375000
1, 170756, Tempo, 380542
1, 170871, Tempo, 386250
1, 170986, Tempo, 392131
1, 171101, Tempo, 398195
1, 171217, Tempo, 404449
1, 171332, Tempo, 410903
1, 171447, Tempo, 417566
1, 171563, Tempo, 424448
1, 171793, Tempo, 438917
1, 171909, Tempo, 446495
1, 172024, Tempo, 454373
1, 172139, Tempo, 462535
1, 172254, Tempo, 470995
1, 172370, Tempo, 479770
1, 172485, Tempo, 488878
1, 172620, Tempo, 500000
1, 172800, Tempo, 375000
1, 188640, Tempo, 375000
1, 188663, Tempo, 380928
1, 188685, Tempo, 387047
1, 188708, Tempo, 393365
1, 188730, Tempo, 399893
1, 188753, Tempo, 406642
1, 188775, Tempo, 413622
1, 188798, Tempo, 420846
1, 188820, Tempo, 428327
1, 188843, Tempo, 436078
1, 188865, Tempo, 444115
1, 188888, Tempo, 452455
1, 188910, Tempo, 461113
1, 188933, Tempo, 470109
1, 188955, Tempo, 479463
1, 188978, Tempo, 489197
1, 189002, Tempo, 500000
1, 189360, Tempo, 375000
1, 206280, Tempo, 500000
1, 206343, Tempo, 507442
1, 206407, Tempo, 515110
1, 206470, Tempo, 523013
1, 206533, Tempo, 531161
1, 206597, Tempo, 539568
1, 206660, Tempo, 548246
1, 206723, Tempo, 557207
1, 206786, Tempo, 566465
1, 206850, Tempo, 576037
1, 206913, Tempo, 585938
1, 206976, Tempo, 596184
1, 207039, Tempo, 606796
1, 207103, Tempo, 617792
1, 207166, Tempo, 629195
1, 207229, Tempo, 641026
1, 207293, Tempo, 653310
1, 207359, Tempo, 666667
1, 207360, Tempo, 375000
1, 225720, Tempo, 375000
1, 243000, Tempo, 375000
1, 262440, Tempo, 375000
1, 262492, Tempo, 380493
1, 262544, Tempo, 386150
1, 262596, Tempo, 392003
1, 262648, Tempo, 398010
1, 262700, Tempo, 404204
1, 262752, Tempo, 410593
1, 262804, Tempo, 417217
1, 262856, Tempo, 424028
1, 262908, Tempo, 431065
1, 262961, Tempo, 438340
1, 263012, Tempo, 445898
1, 263064, Tempo, 453686
1, 263117, Tempo, 461752
1, 263169, Tempo, 470109
1, 263220, Tempo, 478813
1, 263273, Tempo, 487805
1, 263340, Tempo, 500000
1, 263700, Tempo, 375000
1, 279720, Tempo, 375000
1, 279772, Tempo, 380493
1, 279824, Tempo, 386150
1, 279876, Tempo, 392003
1, 279928, Tempo, 398010
1, 279980, Tempo, 404204
1, 280032, Tempo, 410593
1, 280084, Tempo, 417217
1, 280136, Tempo, 424028
1, 280188, Tempo, 431065
1, 280241, Tempo, 438340
1, 280292, Tempo, 445898
1, 280344, Tempo, 453686
1, 280397, Tempo, 461752
1, 280449, Tempo, 470109
1, 280500, Tempo, 478813
1, 280553, Tempo, 487805
1, 280620, Tempo, 500000
1, 280800, Tempo, 375000
1, 318600, Tempo, 375000
1, 318663, Tempo, 380566
1, 318727, Tempo, 386299
1, 318790, Tempo, 392208
1, 318853, Tempo, 398301
1, 318917, Tempo, 404585
1, 318980, Tempo, 411072
1, 319043, Tempo, 417769
1, 319106, Tempo, 424719
1, 319170, Tempo, 431872
1, 319233, Tempo, 439271
1, 319296, Tempo, 446927
1, 319359, Tempo, 454856
1, 319423, Tempo, 463070
1, 319486, Tempo, 471587
1, 319549, Tempo, 480423
1, 319613, Tempo, 489596
1, 319682, Tempo, 500000
1, 319682, End_track
2, 0, Start_track
2, 0, Title_t, "Primo"
2, 0, Program_c, 0, 0
2, 0, Control_c, 0, 7, 105
2, 0, Control_c, 0, 10, 79
2, 0, Control_c, 0, 91, 60
2, 0, Control_c, 0, 121, 0
2, 0, Control_c, 0, 121, 0
2, 0, Control_c, 0, 91, 60
2, 0, Control_c, 0, 10, 51
2, 0, Control_c, 0, 7, 100
2, 0, Note_on_c, 0, 82, 93
2, 0, Note_on_c, 0, 70, 93
2, 540, Note_on_c, 0, 70, 0
2, 540, Note_on_c, 0, 82, 0
2, 540, Note_on_c, 0, 77, 47
2, 540, Note_on_c, 0, 65, 48
2, 720, Note_on_c, 0, 65, 0
2, 720, Note_on_c, 0, 77, 0
2, 720, Note_on_c, 0, 79, 51
2, 720, Note_on_c, 0, 67, 55
2, 900, Note_on_c, 0, 67, 0
2, 900, Note_on_c, 0, 79, 0
2, 900, Note_on_c, 0, 81, 57
2, 900, Note_on_c, 0, 69, 59
2, 1080, Note_on_c, 0, 69, 0
2, 1080, Note_on_c, 0, 81, 0
2, 1080, Note_on_c, 0, 82, 55
2, 1080, Note_on_c, 0, 70, 55
2, 1620, Note_on_c, 0, 70, 0
2, 1620, Note_on_c, 0, 82, 0
2, 1620, Note_on_c, 0, 77, 57
2, 1620, Note_on_c, 0, 65, 57
2, 1800, Note_on_c, 0, 65, 0
2, 1800, Note_on_c, 0, 77, 0
2, 1800, Note_on_c, 0, 79, 57
2, 1800, Note_on_c, 0, 67, 57
2, 1980, Note_on_c, 0, 67, 0
2, 1980, Note_on_c, 0, 79, 0
2, 1980, Note_on_c, 0, 81, 57
2, 1980, Note_on_c, 0, 69, 57
2, 2160, Note_on_c, 0, 69, 0
2, 2160, Note_on_c, 0, 81, 0
2, 2160, Note_on_c, 0, 82, 58
2, 2160, Note_on_c, 0, 70, 58
2, 2700, Note_on_c, 0, 70, 0
2, 2700, Note_on_c, 0, 82, 0
2, 2700, Note_on_c, 0, 77, 59
2, 2700, Note_on_c, 0, 65, 59
2, 2880, Note_on_c, 0, 65, 0
2, 2880, Note_on_c, 0, 77, 0
2, 2880, Note_on_c, 0, 79, 59
2, 2880, Note_on_c, 0, 67, 59
2, 3060, Note_on_c, 0, 67, 0
2, 3060, Note_on_c, 0, 79, 0
2, 3060, Note_on_c, 0, 81, 60
2, 3060, Note_on_c, 0, 69, 60
2, 3240, Note_on_c, 0, 69, 0
2, 3240, Note_on_c, 0, 81, 0
2, 3240, Note_on_c, 0, 82, 60
2, 3240, Note_on_c, 0, 70, 60
2, 3600, Note_on_c, 0, 70, 0
2, 3600, Note_on_c, 0, 82, 0
2, 3600, Note_on_c, 0, 80, 61
2, 3600, Note_on_c, 0, 68, 61
2, 3960, Note_on_c, 0, 68, 0
2, 3960, Note_on_c, 0, 80, 0
2, 3960, Note_on_c, 0, 79, 62
2, 3960, Note_on_c, 0, 67, 62
2, 4320, Note_on_c, 0, 67, 0
2, 4320, Note_on_c, 0, 79, 0
2, 4320, Note_on_c, 0, 84, 62
2, 4320, Note_on_c, 0, 72, 62
2, 4860, Note_on_c, 0, 72, 0
2, 4860, Note_on_c, 0, 84, 0
2, 4860, Note_on_c, 0, 79, 64
2, 4860, Note_on_c, 0, 67, 64
2, 5040, Note_on_c, 0, 67, 0
2, 5040, Note_on_c, 0, 79, 0
2, 5040, Note_on_c, 0, 81, 64
2, 5040, Note_on_c, 0, 69, 64
2, 5220, Note_on_c, 0, 69, 0
2, 5220, Note_on_c, 0, 81, 0
2, 5220, Note_on_c, 0, 83, 64
2, 5220, Note_on_c, 0, 71, 64
2, 5400, Note_on_c, 0, 71, 0
2, 5400, Note_on_c, 0, 83, 0
2, 5400, Note_on_c, 0, 84, 65
2, 5400, Note_on_c, 0, 72, 65
2, 5940, Note_on_c, 0, 72, 0
2, 5940, Note_on_c, 0, 84, 0
2, 5940, Note_on_c, 0, 79, 66
2, 5940, Note_on_c, 0, 67, 66
2, 6120, Note_on_c, 0, 67, 0
2, 6120, Note_on_c, 0, 79, 0
2, 6120, Note_on_c, 0, 81, 66
2, 6120, Note_on_c, 0, 69, 66
2, 6300, Note_on_c, 0, 69, 0
2, 6300, Note_on_c, 0, 81, 0
2, 6300, Note_on_c, 0, 83, 67
2, 6300, Note_on_c, 0, 71, 67
2, 6480, Note_on_c, 0, 71, 0
2, 6480, Note_on_c, 0, 83, 0
2, 6480, Note_on_c, 0, 84, 67
2, 6480, Note_on_c, 0, 72, 67
2, 7020, Note_on_c, 0, 72, 0
2, 7020, Note_on_c, 0, 84, 0
2, 7020, Note_on_c, 0, 79, 68
2, 7020, Note_on_c, 0, 67, 68
2, 7200, Note_on_c, 0, 67, 0
2, 7200, Note_on_c, 0, 79, 0
2, 7200, Note_on_c, 0, 81, 69
2, 7200, Note_on_c, 0, 69, 69
2, 7380, Note_on_c, 0, 69, 0
2, 7380, Note_on_c, 0, 81, 0
2, 7380, Note_on_c, 0, 83, 69
2, 7380, Note_on_c, 0, 71, 69
2, 7560, Note_on_c, 0, 71, 0
2, 7560, Note_on_c, 0, 83, 0
2, 7560, Note_on_c, 0, 84, 69
2, 7560, Note_on_c, 0, 72, 69
2, 7920, Note_on_c, 0, 72, 0
2, 7920, Note_on_c, 0, 84, 0
2, 7920, Note_on_c, 0, 82, 70
2, 7920, Note_on_c, 0, 70, 70
2, 8280, Note_on_c, 0, 70, 0
2, 8280, Note_on_c, 0, 82, 0
2, 8280, Note_on_c, 0, 81, 71
2, 8280, Note_on_c, 0, 69, 71
2, 8640, Note_on_c, 0, 69, 0
2, 8640, Note_on_c, 0, 81, 0
2, 8640, Note_on_c, 0, 86, 72
2, 8640, Note_on_c, 0, 74, 72
2, 9180, Note_on_c, 0, 74, 0
2, 9180, Note_on_c, 0, 86, 0
2, 9180, Note_on_c, 0, 81, 73
2, 9180, Note_on_c, 0, 69, 73
2, 9360, Note_on_c, 0, 69, 0
2, 9360, Note_on_c, 0, 81, 0
2, 9360, Note_on_c, 0, 83, 73
2, 9360, Note_on_c, 0, 71, 73
2, 9540, Note_on_c, 0, 71, 0
2, 9540, Note_on_c, 0, 83, 0
2, 9540, Note_on_c, 0, 85, 74
2, 9540, Note_on_c, 0, 73, 74
2, 9720, Note_on_c, 0, 73, 0
2, 9720, Note_on_c, 0, 85, 0
2, 9720, Note_on_c, 0, 86, 74
2, 9720, Note_on_c, 0, 74, 74
2, 9900, Note_on_c, 0, 86, 0
2, 9900, Note_on_c, 0, 81, 74
2, 10080, Note_on_c, 0, 81, 0
2, 10080, Note_on_c, 0, 74, 0
2, 10080, Note_on_c, 0, 81, 75
2, 10260, Note_on_c, 0, 81, 0
2, 10260, Note_on_c, 0, 77, 75
2, 10440, Note_on_c, 0, 77, 0
2, 10440, Note_on_c, 0, 77, 75
2, 10620, Note_on_c, 0, 77, 0
2, 10620, Note_on_c, 0, 74, 76
2, 10800, Note_on_c, 0, 74, 0
2, 10800, Note_on_c, 0, 87, 76
2, 10800, Note_on_c, 0, 75, 76
2, 11340, Note_on_c, 0, 75, 0
2, 11340, Note_on_c, 0, 87, 0
2, 11340, Note_on_c, 0, 82, 77
2, 11340, Note_on_c, 0, 70, 77
2, 11520, Note_on_c, 0, 70, 0
2, 11520, Note_on_c, 0, 82, 0
2, 11520, Note_on_c, 0, 84, 78
2, 11520, Note_on_c, 0, 72, 78
2, 11700, Note_on_c, 0, 72, 0
2, 11700, Note_on_c, 0, 84, 0
2, 11700, Note_on_c, 0, 86, 78
2, 11700, Note_on_c, 0, 74, 78
2, 11880, Note_on_c, 0, 74, 0
2, 11880, Note_on_c, 0, 86, 0
2, 11880, Note_on_c, 0, 87, 79
2, 11880, Note_on_c, 0, 75, 79
2, 12060, Note_on_c, 0, 87, 0
2, 12060, Note_on_c, 0, 82, 79
2, 12240, Note_on_c, 0, 82, 0
2, 12240, Note_on_c, 0, 75, 0
2, 12240, Note_on_c, 0, 82, 79
2, 12420, Note_on_c, 0, 82, 0
2, 12420, Note_on_c, 0, 79, 80
2, 12600, Note_on_c, 0, 79, 0
2, 12600, Note_on_c, 0, 79, 80
2, 12780, Note_on_c, 0, 79, 0
2, 12780, Note_on_c, 0, 75, 80
2, 12960, Note_on_c, 0, 75, 0
2, 12960, Note_on_c, 0, 88, 92
2, 12960, Note_on_c, 0, 76, 81
2, 13500, Note_on_c, 0, 76, 0
2, 13500, Note_on_c, 0, 88, 0
2, 13500, Note_on_c, 0, 83, 95
2, 13500, Note_on_c, 0, 71, 71
2, 13680, Note_on_c, 0, 71, 0
2, 13680, Note_on_c, 0, 83, 0
2, 13680, Note_on_c, 0, 84, 97
2, 13680, Note_on_c, 0, 72, 83
2, 13860, Note_on_c, 0, 72, 0
2, 13860, Note_on_c, 0, 84, 0
2, 13860, Note_on_c, 0, 86, 98
2, 13860, Note_on_c, 0, 74, 86
2, 14040, Note_on_c, 0, 74, 0
2, 14040, Note_on_c, 0, 86, 0
2, 14040, Note_on_c, 0, 88, 99
2, 14040, Note_on_c, 0, 76, 85
2, 14580, Note_on_c, 0, 76, 0
2, 14580, Note_on_c, 0, 88, 0
2, 14580, Note_on_c, 0, 83, 102
2, 14580, Note_on_c, 0, 71, 72
2, 14760, Note_on_c, 0, 71, 0
2, 14760, Note_on_c, 0, 83, 0
2, 14760, Note_on_c, 0, 84, 103
2, 14760, Note_on_c, 0, 72, 81
2, 14940, Note_on_c, 0, 72, 0
2, 14940, Note_on_c, 0, 84, 0
2, 14940, Note_on_c, 0, 86, 104
2, 14940, Note_on_c, 0, 74, 83
2, 15120, Note_on_c, 0, 74, 0
2, 15120, Note_on_c, 0, 86, 0
2, 15120, Note_on_c, 0, 88, 105
2, 15120, Note_on_c, 0, 76, 85
2, 15660, Note_on_c, 0, 76, 0
2, 15660, Note_on_c, 0, 88, 0
2, 15660, Note_on_c, 0, 83, 108
2, 15660, Note_on_c, 0, 71, 67
2, 15840, Note_on_c, 0, 71, 0
2, 15840, Note_on_c, 0, 83, 0
2, 15840, Note_on_c, 0, 84, 109
2, 15840, Note_on_c, 0, 72, 80
2, 16020, Note_on_c, 0, 72, 0
2, 16020, Note_on_c, 0, 84, 0
2, 16020, Note_on_c, 0, 86, 110
2, 16020, Note_on_c, 0, 74, 88
2, 16200, Note_on_c, 0, 74, 0
2, 16200, Note_on_c, 0, 86, 0
2, 16200, Note_on_c, 0, 88, 111
2, 16200, Note_on_c, 0, 76, 89
2, 16740, Note_on_c, 0, 76, 0
2, 16740, Note_on_c, 0, 88, 0
2, 16740, Note_on_c, 0, 84, 115
2, 16740, Note_on_c, 0, 72, 73
2, 16920, Note_on_c, 0, 72, 0
2, 16920, Note_on_c, 0, 84, 0
2, 16920, Note_on_c, 0, 86, 116
2, 16920, Note_on_c, 0, 74, 85
2, 17100, Note_on_c, 0, 74, 0
2, 17100, Note_on_c, 0, 86, 0
2, 17100, Note_on_c, 0, 88, 117
2, 17100, Note_on_c, 0, 76, 84
2, 17280, Note_on_c, 0, 76, 0
2, 17280, Note_on_c, 0, 88, 0
2, 17280, Note_on_c, 0, 89, 118
2, 17280, Note_on_c, 0, 77, 87
2, 17460, Note_on_c, 0, 89, 0
2, 17460, Note_on_c, 0, 84, 96
2, 17640, Note_on_c, 0, 84, 0
2, 17640, Note_on_c, 0, 77, 0
2, 17640, Note_on_c, 0, 84, 107
2, 17640, Note_on_c, 0, 69, 71
2, 17640, Note_on_c, 0, 72, 71
2, 17820, Note_on_c, 0, 84, 0
2, 17820, Note_on_c, 0, 81, 95
2, 18000, Note_on_c, 0, 81, 0
2, 18000, Note_on_c, 0, 72, 0
2, 18000, Note_on_c, 0, 69, 0
2, 18000, Note_on_c, 0, 81, 109
2, 18000, Note_on_c, 0, 69, 81
2, 18000, Note_on_c, 0, 72, 81
2, 18180, Note_on_c, 0, 81, 0
2, 18180, Note_on_c, 0, 77, 100
2, 18360, Note_on_c, 0, 77, 0
2, 18360, Note_on_c, 0, 72, 0
2, 18360, Note_on_c, 0, 69, 0
2, 18360, Note_on_c, 0, 89, 121
2, 18360, Note_on_c, 0, 65, 66
2, 18540, Note_on_c, 0, 89, 0
2, 18540, Note_on_c, 0, 83, 100
2, 18720, Note_on_c, 0, 83, 0
2, 18720, Note_on_c, 0, 65, 0
2, 18720, Note_on_c, 0, 83, 111
2, 18720, Note_on_c, 0, 68, 90
2, 18720, Note_on_c, 0, 71, 90
2, 18900, Note_on_c, 0, 83, 0
2, 18900, Note_on_c, 0, 80, 93
2, 19080, Note_on_c, 0, 80, 0
2, 19080, Note_on_c, 0, 71, 0
2, 19080, Note_on_c, 0, 68, 0
2, 19080, Note_on_c, 0, 80, 100
2, 19080, Note_on_c, 0, 68, 83
2, 19080, Note_on_c, 0, 71, 83
2, 19260, Note_on_c, 0, 80, 0
2, 19260, Note_on_c, 0, 77, 99
2, 19440, Note_on_c, 0, 77, 0
2, 19440, Note_on_c, 0, 71, 0
2, 19440, Note_on_c, 0, 68, 0
2, 19440, Note_on_c, 0, 89, 121
2, 19440, Note_on_c, 0, 65, 64
2, 19620, Note_on_c, 0, 89, 0
2, 19620, Note_on_c, 0, 82, 91
2, 19800, Note_on_c, 0, 82, 0
2, 19800, Note_on_c, 0, 65, 0
2, 19800, Note_on_c, 0, 82, 105
2, 19800, Note_on_c, 0, 67, 92
2, 19800, Note_on_c, 0, 70, 92
2, 19980, Note_on_c, 0, 82, 0
2, 19980, Note_on_c, 0, 79, 95
2, 20160, Note_on_c, 0, 79, 0
2, 20160, Note_on_c, 0, 70, 0
2, 20160, Note_on_c, 0, 67, 0
2, 20160, Note_on_c, 0, 79, 104
2, 20160, Note_on_c, 0, 67, 73
2, 20160, Note_on_c, 0, 70, 73
2, 20340, Note_on_c, 0, 79, 0
2, 20340, Note_on_c, 0, 77, 104
2, 20520, Note_on_c, 0, 77, 0
2, 20520, Note_on_c, 0, 70, 0
2, 20520, Note_on_c, 0, 67, 0
2, 20520, Note_on_c, 0, 89, 121
2, 20520, Note_on_c, 0, 65, 66
2, 20700, Note_on_c, 0, 89, 0
2, 20700, Note_on_c, 0, 84, 99
2, 20880, Note_on_c, 0, 84, 0
2, 20880, Note_on_c, 0, 65, 0
2, 20880, Note_on_c, 0, 84, 105
2, 20880, Note_on_c, 0, 69, 94
2, 20880, Note_on_c, 0, 72, 94
2, 21060, Note_on_c, 0, 84, 0
2, 21060, Note_on_c, 0, 81, 100
2, 21240, Note_on_c, 0, 81, 0
2, 21240, Note_on_c, 0, 72, 0
2, 21240, Note_on_c, 0, 69, 0
2, 21240, Note_on_c, 0, 81, 108
2, 21240, Note_on_c, 0, 69, 84
2, 21240, Note_on_c, 0, 72, 84
2, 21420, Note_on_c, 0, 81, 0
2, 21420, Note_on_c, 0, 77, 97
2, 21600, Note_on_c, 0, 77, 0
2, 21600, Note_on_c, 0, 72, 0
2, 21600, Note_on_c, 0, 69, 0
2, 21600, Note_on_c, 0, 89, 121
2, 21600, Note_on_c, 0, 65, 60
2, 21780, Note_on_c, 0, 89, 0
2, 21780, Note_on_c, 0, 84, 98
2, 21960, Note_on_c, 0, 84, 0
2, 21960, Note_on_c, 0, 65, 0
2, 21960, Note_on_c, 0, 84, 106
2, 21960, Note_on_c, 0, 69, 93
2, 21960, Note_on_c, 0, 72, 93
2, 22140, Note_on_c, 0, 84, 0
2, 22140, Note_on_c, 0, 81, 99
2, 22320, Note_on_c, 0, 81, 0
2, 22320, Note_on_c, 0, 72, 0
2, 22320, Note_on_c, 0, 69, 0
2, 22320, Note_on_c, 0, 81, 106
2, 22320, Note_on_c, 0, 69, 84
2, 22320, Note_on_c, 0, 72, 84
2, 22500, Note_on_c, 0, 81, 0
2, 22500, Note_on_c, 0, 77, 95
2, 22680, Note_on_c, 0, 77, 0
2, 22680, Note_on_c, 0, 72, 0
2, 22680, Note_on_c, 0, 69, 0
2, 22680, Note_on_c, 0, 89, 121
2, 22680, Note_on_c, 0, 65, 64
2, 22860, Note_on_c, 0, 89, 0
2, 22860, Note_on_c, 0, 83, 95
2, 23040, Note_on_c, 0, 83, 0
2, 23040, Note_on_c, 0, 65, 0
2, 23040, Note_on_c, 0, 83, 104
2, 23040, Note_on_c, 0, 68, 91
2, 23040, Note_on_c, 0, 71, 91
2, 23220, Note_on_c, 0, 83, 0
2, 23220, Note_on_c, 0, 80, 103
2, 23400, Note_on_c, 0, 80, 0
2, 23400, Note_on_c, 0, 71, 0
2, 23400, Note_on_c, 0, 68, 0
2, 23400, Note_on_c, 0, 80, 105
2, 23400, Note_on_c, 0, 68, 84
2, 23400, Note_on_c, 0, 71, 84
2, 23580, Note_on_c, 0, 80, 0
2, 23580, Note_on_c, 0, 77, 102
2, 23760, Note_on_c, 0, 77, 0
2, 23760, Note_on_c, 0, 71, 0
2, 23760, Note_on_c, 0, 68, 0
2, 23760, Note_on_c, 0, 89, 121
2, 23760, Note_on_c, 0, 65, 72
2, 23940, Note_on_c, 0, 89, 0
2, 23940, Note_on_c, 0, 82, 97
2, 24120, Note_on_c, 0, 82, 0
2, 24120, Note_on_c, 0, 65, 0
2, 24120, Note_on_c, 0, 82, 106
2, 24120, Note_on_c, 0, 67, 92
2, 24120, Note_on_c, 0, 70, 92
2, 24300, Note_on_c, 0, 82, 0
2, 24300, Note_on_c, 0, 79, 101
2, 24480, Note_on_c, 0, 79, 0
2, 24480, Note_on_c, 0, 70, 0
2, 24480, Note_on_c, 0, 67, 0
2, 24480, Note_on_c, 0, 79, 106
2, 24480, Note_on_c, 0, 67, 83
2, 24480, Note_on_c, 0, 70, 83
2, 24660, Note_on_c, 0, 79, 0
2, 24660, Note_on_c, 0, 77, 100
2, 24840, Note_on_c, 0, 77, 0
2, 24840, Note_on_c, 0, 70, 0
2, 24840, Note_on_c, 0, 67, 0
2, 24840, Note_on_c, 0, 89, 121
2, 24840, Note_on_c, 0, 65, 71
2, 25020, Note_on_c, 0, 89, 0
2, 25020, Note_on_c, 0, 84, 97
2, 25200, Note_on_c, 0, 84, 0
2, 25200, Note_on_c, 0, 65, 0
2, 25200, Note_on_c, 0, 84, 107
2, 25200, Note_on_c, 0, 69, 93
2, 25200, Note_on_c, 0, 72, 93
2, 25380, Note_on_c, 0, 84, 0
2, 25380, Note_on_c, 0, 81, 104
2, 25560, Note_on_c, 0, 81, 0
2, 25560, Note_on_c, 0, 72, 0
2, 25560, Note_on_c, 0, 69, 0
2, 25560, Note_on_c, 0, 81, 106
2, 25560, Note_on_c, 0, 69, 80
2, 25560, Note_on_c, 0, 72, 80
2, 25740, Note_on_c, 0, 81, 0
2, 25740, Note_on_c, 0, 77, 95
2, 25920, Note_on_c, 0, 77, 0
2, 25920, Note_on_c, 0, 72, 0
2, 25920, Note_on_c, 0, 69, 0
2, 25920, Note_on_c, 0, 89, 121
2, 25920, Note_on_c, 0, 65, 63
2, 26100, Note_on_c, 0, 89, 0
2, 26100, Note_on_c, 0, 83, 96
2, 26280, Note_on_c, 0, 83, 0
2, 26280, Note_on_c, 0, 65, 0
2, 26280, Note_on_c, 0, 83, 112
2, 26280, Note_on_c, 0, 68, 90
2, 26280, Note_on_c, 0, 71, 90
2, 26460, Note_on_c, 0, 83, 0
2, 26460, Note_on_c, 0, 80, 96
2, 26640, Note_on_c, 0, 80, 0
2, 26640, Note_on_c, 0, 71, 0
2, 26640, Note_on_c, 0, 68, 0
2, 26640, Note_on_c, 0, 80, 107
2, 26640, Note_on_c, 0, 68, 82
2, 26640, Note_on_c, 0, 71, 82
2, 26820, Note_on_c, 0, 80, 0
2, 26820, Note_on_c, 0, 77, 96
2, 27000, Note_on_c, 0, 77, 0
2, 27000, Note_on_c, 0, 71, 0
2, 27000, Note_on_c, 0, 68, 0
2, 27000, Note_on_c, 0, 89, 121
2, 27000, Note_on_c, 0, 65, 66
2, 27180, Note_on_c, 0, 89, 0
2, 27180, Note_on_c, 0, 84, 100
2, 27360, Note_on_c, 0, 84, 0
2, 27360, Note_on_c, 0, 65, 0
2, 27360, Note_on_c, 0, 84, 106
2, 27360, Note_on_c, 0, 69, 91
2, 27360, Note_on_c, 0, 72, 91
2, 27540, Note_on_c, 0, 84, 0
2, 27540, Note_on_c, 0, 81, 98
2, 27720, Note_on_c, 0, 81, 0
2, 27720, Note_on_c, 0, 72, 0
2, 27720, Note_on_c, 0, 69, 0
2, 27720, Note_on_c, 0, 81, 108
2, 27720, Note_on_c, 0, 69, 81
2, 27720, Note_on_c, 0, 72, 81
2, 27900, Note_on_c, 0, 81, 0
2, 27900, Note_on_c, 0, 77, 93
2, 28080, Note_on_c, 0, 77, 0
2, 28080, Note_on_c, 0, 72, 0
2, 28080, Note_on_c, 0, 69, 0
2, 28080, Note_on_c, 0, 89, 121
2, 28080, Note_on_c, 0, 65, 66
2, 28260, Note_on_c, 0, 89, 0
2, 28260, Note_on_c, 0, 83, 99
2, 28440, Note_on_c, 0, 83, 0
2, 28440, Note_on_c, 0, 65, 0
2, 28440, Note_on_c, 0, 83, 111
2, 28440, Note_on_c, 0, 68, 92
2, 28440, Note_on_c, 0, 71, 92
2, 28620, Note_on_c, 0, 83, 0
2, 28620, Note_on_c, 0, 80, 102
2, 28800, Note_on_c, 0, 80, 0
2, 28800, Note_on_c, 0, 71, 0
2, 28800, Note_on_c, 0, 68, 0
2, 28800, Note_on_c, 0, 80, 108
2, 28800, Note_on_c, 0, 68, 86
2, 28800, Note_on_c, 0, 71, 86
2, 28980, Note_on_c, 0, 80, 0
2, 28980, Note_on_c, 0, 77, 95
2, 29160, Note_on_c, 0, 77, 0
2, 29160, Note_on_c, 0, 71, 0
2, 29160, Note_on_c, 0, 68, 0
2, 29160, Note_on_c, 0, 89, 121
2, 29160, Note_on_c, 0, 65, 67
2, 29340, Note_on_c, 0, 89, 0
2, 29340, Note_on_c, 0, 84, 100
2, 29520, Note_on_c, 0, 84, 0
2, 29520, Note_on_c, 0, 65, 0
2, 29520, Note_on_c, 0, 84, 106
2, 29520, Note_on_c, 0, 69, 95
2, 29520, Note_on_c, 0, 72, 95
2, 29700, Note_on_c, 0, 84, 0
2, 29700, Note_on_c, 0, 81, 96
2, 29880, Note_on_c, 0, 81, 0
2, 29880, Note_on_c, 0, 72, 0
2, 29880, Note_on_c, 0, 69, 0
2, 29880, Note_on_c, 0, 81, 109
2, 29880, Note_on_c, 0, 69, 84
2, 29880, Note_on_c, 0, 72, 84
2, 30060, Note_on_c, 0, 81, 0
2, 30060, Note_on_c, 0, 77, 96
2, 30240, Note_on_c, 0, 77, 0
2, 30240, Note_on_c, 0, 72, 0
2, 30240, Note_on_c, 0, 69, 0
2, 30240, Note_on_c, 0, 84, 121
2, 30420, Note_on_c, 0, 84, 0
2, 30420, Note_on_c, 0, 81, 98
2, 30600, Note_on_c, 0, 81, 0
2, 30600, Note_on_c, 0, 81, 105
2, 30780, Note_on_c, 0, 81, 0
2, 30780, Note_on_c, 0, 77, 93
2, 30960, Note_on_c, 0, 77, 0
2, 30960, Note_on_c, 0, 77, 73
2, 31140, Note_on_c, 0, 77, 0
2, 31140, Note_on_c, 0, 72, 66
2, 31320, Note_on_c, 0, 72, 0
2, 31320, Note_on_c, 0, 81, 97
2, 31320, Note_on_c, 0, 69, 68
2, 31500, Note_on_c, 0, 81, 0
2, 31500, Note_on_c, 0, 77, 95
2, 31680, Note_on_c, 0, 77, 0
2, 31680, Note_on_c, 0, 69, 0
2, 31680, Note_on_c, 0, 77, 107
2, 31860, Note_on_c, 0, 77, 0
2, 31860, Note_on_c, 0, 72, 93
2, 32040, Note_on_c, 0, 72, 0
2, 32040, Note_on_c, 0, 72, 68
2, 32220, Note_on_c, 0, 72, 0
2, 32220, Note_on_c, 0, 69, 72
2, 32400, Note_on_c, 0, 69, 0
2, 32400, Note_on_c, 0, 77, 98
2, 32400, Note_on_c, 0, 65, 65
2, 32580, Note_on_c, 0, 77, 0
2, 32580, Note_on_c, 0, 72, 94
2, 32760, Note_on_c, 0, 72, 0
2, 32760, Note_on_c, 0, 65, 0
2, 32760, Note_on_c, 0, 72, 106
2, 32940, Note_on_c, 0, 72, 0
2, 32940, Note_on_c, 0, 69, 96
2, 33120, Note_on_c, 0, 69, 0
2, 33120, Note_on_c, 0, 69, 74
2, 33300, Note_on_c, 0, 69, 0
2, 33300, Note_on_c, 0, 65, 72
2, 33480, Note_on_c, 0, 65, 0
2, 33480, Note_on_c, 0, 72, 96
2, 33480, Note_on_c, 0, 60, 69
2, 33660, Note_on_c, 0, 72, 0
2, 33660, Note_on_c, 0, 69, 92
2, 33840, Note_on_c, 0, 69, 0
2, 33840, Note_on_c, 0, 60, 0
2, 33840, Note_on_c, 0, 69, 109
2, 34020, Note_on_c, 0, 69, 0
2, 34020, Note_on_c, 0, 65, 92
2, 34200, Note_on_c, 0, 65, 0
2, 34200, Note_on_c, 0, 65, 72
2, 34380, Note_on_c, 0, 65, 0
2, 34380, Note_on_c, 0, 60, 68
2, 34560, Note_on_c, 0, 60, 0
2, 34560, Note_on_c, 0, 69, 95
2, 34740, Note_on_c, 0, 69, 0
2, 34740, Note_on_c, 0, 69, 105
2, 34920, Note_on_c, 0, 69, 0
2, 34920, Note_on_c, 0, 69, 105
2, 34920, Note_on_c, 0, 65, 67
2, 35100, Note_on_c, 0, 69, 0
2, 35100, Note_on_c, 0, 72, 119
2, 35280, Note_on_c, 0, 72, 0
2, 35280, Note_on_c, 0, 65, 0
2, 35280, Note_on_c, 0, 72, 108
2, 35280, Note_on_c, 0, 65, 82
2, 35460, Note_on_c, 0, 72, 0
2, 35460, Note_on_c, 0, 77, 121
2, 35640, Note_on_c, 0, 77, 0
2, 35640, Note_on_c, 0, 65, 0
2, 35640, Note_on_c, 0, 77, 107
2, 35640, Note_on_c, 0, 65, 99
2, 35640, Note_on_c, 0, 69, 99
2, 35640, Note_on_c, 0, 72, 99
2, 35820, Note_on_c, 0, 77, 0
2, 35820, Note_on_c, 0, 81, 121
2, 36000, Note_on_c, 0, 81, 0
2, 36000, Note_on_c, 0, 72, 0
2, 36000, Note_on_c, 0, 69, 0
2, 36000, Note_on_c, 0, 65, 0
2, 36000, Note_on_c, 0, 81, 105
2, 36000, Note_on_c, 0, 65, 81
2, 36000, Note_on_c, 0, 69, 81
2, 36000, Note_on_c, 0, 72, 81
2, 36180, Note_on_c, 0, 81, 0
2, 36180, Note_on_c, 0, 84, 116
2, 36360, Note_on_c, 0, 84, 0
2, 36360, Note_on_c, 0, 72, 0
2, 36360, Note_on_c, 0, 69, 0
2, 36360, Note_on_c, 0, 65, 0
2, 36360, Note_on_c, 0, 84, 107
2, 36360, Note_on_c, 0, 65, 82
2, 36360, Note_on_c, 0, 69, 82
2, 36360, Note_on_c, 0, 72, 82
2, 36540, Note_on_c, 0, 84, 0
2, 36540, Note_on_c, 0, 89, 121
2, 36720, Note_on_c, 0, 89, 0
2, 36720, Note_on_c, 0, 72, 0
2, 36720, Note_on_c, 0, 69, 0
2, 36720, Note_on_c, 0, 65, 0
2, 36720, Note_on_c, 0, 89, 113
2, 36720, Note_on_c, 0, 65, 59
2, 37080, Note_on_c, 0, 65, 0
2, 37080, Note_on_c, 0, 89, 0
2, 37080, Note_on_c, 0, 82, 109
2, 37080, Note_on_c, 0, 85, 109
2, 37080, Note_on_c, 0, 89, 109
2, 37080, Note_on_c, 0, 70, 101
2, 37080, Note_on_c, 0, 73, 101
2, 37080, Note_on_c, 0, 77, 101
2, 37440, Note_on_c, 0, 77, 0
2, 37440, Note_on_c, 0, 85, 0
2, 37440, Note_on_c, 0, 89, 0
2, 37440, Note_on_c, 0, 82, 0
2, 37440, Note_on_c, 0, 73, 0
2, 37440, Note_on_c, 0, 70, 0
2, 37440, Note_on_c, 0, 79, 109
2, 37440, Note_on_c, 0, 82, 109
2, 37440, Note_on_c, 0, 89, 109
2, 37440, Note_on_c, 0, 67, 90
2, 37440, Note_on_c, 0, 70, 90
2, 37440, Note_on_c, 0, 77, 90
2, 37800, Note_on_c, 0, 77, 0
2, 37800, Note_on_c, 0, 82, 0
2, 37800, Note_on_c, 0, 89, 0
2, 37800, Note_on_c, 0, 79, 0
2, 37800, Note_on_c, 0, 70, 0
2, 37800, Note_on_c, 0, 67, 0
2, 37800, Note_on_c, 0, 81, 112
2, 37800, Note_on_c, 0, 84, 112
2, 37800, Note_on_c, 0, 89, 112
2, 37800, Note_on_c, 0, 69, 79
2, 37800, Note_on_c, 0, 72, 79
2, 37800, Note_on_c, 0, 77, 79
2, 37980, Note_on_c, 0, 77, 0
2, 37980, Note_on_c, 0, 84, 0
2, 37980, Note_on_c, 0, 89, 0
2, 37980, Note_on_c, 0, 81, 0
2, 37980, Note_on_c, 0, 72, 0
2, 37980, Note_on_c, 0, 69, 0
2, 39240, Note_on_c, 0, 62, 45
2, 39240, Note_on_c, 0, 65, 45
2, 39419, Note_on_c, 0, 65, 0
2, 39419, Note_on_c, 0, 62, 0
2, 39600, Note_on_c, 0, 62, 53
2, 39600, Note_on_c, 0, 65, 53
2, 39779, Note_on_c, 0, 65, 0
2, 39779, Note_on_c, 0, 62, 0
2, 40320, Note_on_c, 0, 62, 53
2, 40320, Note_on_c, 0, 65, 53
2, 40499, Note_on_c, 0, 65, 0
2, 40499, Note_on_c, 0, 62, 0
2, 40680, Note_on_c, 0, 62, 54
2, 40680, Note_on_c, 0, 65, 54
2, 40859, Note_on_c, 0, 65, 0
2, 40859, Note_on_c, 0, 62, 0
2, 41400, Note_on_c, 0, 62, 53
2, 41400, Note_on_c, 0, 65, 53
2, 41579, Note_on_c, 0, 65, 0
2, 41579, Note_on_c, 0, 62, 0
2, 41760, Note_on_c, 0, 62, 53
2, 41760, Note_on_c, 0, 65, 53
2, 41939, Note_on_c, 0, 65, 0
2, 41939, Note_on_c, 0, 62, 0
2, 42480, Note_on_c, 0, 62, 47
2, 42480, Note_on_c, 0, 65, 47
2, 42659, Note_on_c, 0, 65, 0
2, 42659, Note_on_c, 0, 62, 0
2, 42840, Note_on_c, 0, 62, 53
2, 42840, Note_on_c, 0, 65, 53
2, 43019, Note_on_c, 0, 65, 0
2, 43019, Note_on_c, 0, 62, 0
2, 43200, Note_on_c, 0, 70, 48
2, 43560, Note_on_c, 0, 62, 52
2, 43560, Note_on_c, 0, 65, 52
2, 43739, Note_on_c, 0, 65, 0
2, 43739, Note_on_c, 0, 62, 0
2, 43920, Note_on_c, 0, 62, 53
2, 43920, Note_on_c, 0, 65, 53
2, 44099, Note_on_c, 0, 65, 0
2, 44099, Note_on_c, 0, 62, 0
2, 44280, Note_on_c, 0, 70, 0
2, 44280, Note_on_c, 0, 69, 50
2, 44640, Note_on_c, 0, 62, 50
2, 44640, Note_on_c, 0, 65, 50
2, 44819, Note_on_c, 0, 65, 0
2, 44819, Note_on_c, 0, 62, 0
2, 45000, Note_on_c, 0, 62, 53
2, 45000, Note_on_c, 0, 65, 53
2, 45179, Note_on_c, 0, 65, 0
2, 45179, Note_on_c, 0, 62, 0
2, 45360, Note_on_c, 0, 69, 0
2, 45360, Note_on_c, 0, 70, 61
2, 45720, Note_on_c, 0, 62, 46
2, 45720, Note_on_c, 0, 65, 46
2, 45899, Note_on_c, 0, 65, 0
2, 45899, Note_on_c, 0, 62, 0
2, 46080, Note_on_c, 0, 70, 0
2, 46080, Note_on_c, 0, 67, 51
2, 46080, Note_on_c, 0, 62, 52
2, 46080, Note_on_c, 0, 65, 52
2, 46259, Note_on_c, 0, 65, 0
2, 46259, Note_on_c, 0, 62, 0
2, 46440, Note_on_c, 0, 67, 0
2, 46440, Note_on_c, 0, 69, 55
2, 46800, Note_on_c, 0, 69, 0
2, 46800, Note_on_c, 0, 70, 57
2, 46800, Note_on_c, 0, 62, 45
2, 46800, Note_on_c, 0, 65, 45
2, 46979, Note_on_c, 0, 65, 0
2, 46979, Note_on_c, 0, 62, 0
2, 47160, Note_on_c, 0, 70, 0
2, 47160, Note_on_c, 0, 67, 46
2, 47160, Note_on_c, 0, 62, 56
2, 47160, Note_on_c, 0, 65, 56
2, 47339, Note_on_c, 0, 65, 0
2, 47339, Note_on_c, 0, 62, 0
2, 47520, Note_on_c, 0, 67, 0
2, 47520, Note_on_c, 0, 69, 60
2, 47880, Note_on_c, 0, 63, 50
2, 47880, Note_on_c, 0, 65, 50
2, 48059, Note_on_c, 0, 65, 0
2, 48059, Note_on_c, 0, 63, 0
2, 48240, Note_on_c, 0, 69, 0
2, 48240, Note_on_c, 0, 72, 61
2, 48240, Note_on_c, 0, 63, 52
2, 48240, Note_on_c, 0, 65, 52
2, 48419, Note_on_c, 0, 65, 0
2, 48419, Note_on_c, 0, 63, 0
2, 48600, Note_on_c, 0, 72, 0
2, 48600, Note_on_c, 0, 74, 55
2, 48960, Note_on_c, 0, 63, 53
2, 48960, Note_on_c, 0, 65, 53
2, 49139, Note_on_c, 0, 65, 0
2, 49139, Note_on_c, 0, 63, 0
2, 49320, Note_on_c, 0, 74, 0
2, 49320, Note_on_c, 0, 71, 47
2, 49320, Note_on_c, 0, 63, 55
2, 49320, Note_on_c, 0, 65, 55
2, 49499, Note_on_c, 0, 65, 0
2, 49499, Note_on_c, 0, 63, 0
2, 49680, Note_on_c, 0, 71, 0
2, 49680, Note_on_c, 0, 72, 55
2, 50040, Note_on_c, 0, 63, 60
2, 50040, Note_on_c, 0, 65, 60
2, 50219, Note_on_c, 0, 65, 0
2, 50219, Note_on_c, 0, 63, 0
2, 50400, Note_on_c, 0, 63, 64
2, 50400, Note_on_c, 0, 65, 64
2, 50579, Note_on_c, 0, 65, 0
2, 50579, Note_on_c, 0, 63, 0
2, 51120, Note_on_c, 0, 63, 72
2, 51120, Note_on_c, 0, 65, 72
2, 51299, Note_on_c, 0, 65, 0
2, 51299, Note_on_c, 0, 63, 0
2, 51480, Note_on_c, 0, 63, 77
2, 51480, Note_on_c, 0, 65, 77
2, 51659, Note_on_c, 0, 65, 0
2, 51659, Note_on_c, 0, 63, 0
2, 51840, Note_on_c, 0, 72, 0
2, 51840, Note_on_c, 0, 77, 81
2, 52200, Note_on_c, 0, 69, 60
2, 52200, Note_on_c, 0, 72, 60
2, 52379, Note_on_c, 0, 72, 0
2, 52379, Note_on_c, 0, 69, 0
2, 52560, Note_on_c, 0, 69, 61
2, 52560, Note_on_c, 0, 72, 61
2, 52739, Note_on_c, 0, 72, 0
2, 52739, Note_on_c, 0, 69, 0
2, 52920, Note_on_c, 0, 77, 0
2, 52920, Note_on_c, 0, 76, 77
2, 53280, Note_on_c, 0, 67, 55
2, 53280, Note_on_c, 0, 72, 55
2, 53459, Note_on_c, 0, 72, 0
2, 53459, Note_on_c, 0, 67, 0
2, 53640, Note_on_c, 0, 67, 64
2, 53640, Note_on_c, 0, 72, 64
2, 53819, Note_on_c, 0, 72, 0
2, 53819, Note_on_c, 0, 67, 0
2, 54000, Note_on_c, 0, 76, 0
2, 54000, Note_on_c, 0, 75, 78
2, 54360, Note_on_c, 0, 66, 61
2, 54360, Note_on_c, 0, 72, 61
2, 54539, Note_on_c, 0, 72, 0
2, 54539, Note_on_c, 0, 66, 0
2, 54720, Note_on_c, 0, 75, 0
2, 54720, Note_on_c, 0, 72, 74
2, 54720, Note_on_c, 0, 66, 52
2, 54899, Note_on_c, 0, 66, 0
2, 55080, Note_on_c, 0, 72, 0
2, 55080, Note_on_c, 0, 75, 88
2, 55440, Note_on_c, 0, 75, 0
2, 55440, Note_on_c, 0, 74, 80
2, 55440, Note_on_c, 0, 63, 56
2, 55440, Note_on_c, 0, 65, 56
2, 55619, Note_on_c, 0, 65, 0
2, 55619, Note_on_c, 0, 63, 0
2, 55800, Note_on_c, 0, 74, 0
2, 55800, Note_on_c, 0, 72, 70
2, 55800, Note_on_c, 0, 63, 64
2, 55800, Note_on_c, 0, 65, 64
2, 55979, Note_on_c, 0, 65, 0
2, 55979, Note_on_c, 0, 63, 0
2, 56160, Note_on_c, 0, 72, 0
2, 56160, Note_on_c, 0, 79, 96
2, 56520, Note_on_c, 0, 70, 61
2, 56520, Note_on_c, 0, 74, 61
2, 56699, Note_on_c, 0, 74, 0
2, 56699, Note_on_c, 0, 70, 0
2, 56880, Note_on_c, 0, 79, 0
2, 56880, Note_on_c, 0, 77, 79
2, 56880, Note_on_c, 0, 70, 63
2, 56880, Note_on_c, 0, 74, 63
2, 57059, Note_on_c, 0, 74, 0
2, 57059, Note_on_c, 0, 70, 0
2, 57240, Note_on_c, 0, 77, 0
2, 57240, Note_on_c, 0, 75, 81
2, 57600, Note_on_c, 0, 65, 63
2, 57600, Note_on_c, 0, 70, 63
2, 57779, Note_on_c, 0, 70, 0
2, 57779, Note_on_c, 0, 65, 0
2, 57960, Note_on_c, 0, 75, 0
2, 57960, Note_on_c, 0, 74, 75
2, 57960, Note_on_c, 0, 65, 60
2, 57960, Note_on_c, 0, 70, 60
2, 58139, Note_on_c, 0, 70, 0
2, 58139, Note_on_c, 0, 65, 0
2, 58320, Note_on_c, 0, 74, 0
2, 58320, Note_on_c, 0, 74, 72
2, 58680, Note_on_c, 0, 74, 0
2, 58680, Note_on_c, 0, 72, 70
2, 58680, Note_on_c, 0, 63, 54
2, 58680, Note_on_c, 0, 65, 54
2, 58859, Note_on_c, 0, 65, 0
2, 58859, Note_on_c, 0, 63, 0
2, 59040, Note_on_c, 0, 72, 0
2, 59040, Note_on_c, 0, 71, 67
2, 59040, Note_on_c, 0, 63, 52
2, 59040, Note_on_c, 0, 65, 52
2, 59219, Note_on_c, 0, 65, 0
2, 59219, Note_on_c, 0, 63, 0
2, 59400, Note_on_c, 0, 71, 0
2, 59400, Note_on_c, 0, 72, 64
2, 59760, Note_on_c, 0, 72, 0
2, 59760, Note_on_c, 0, 67, 61
2, 59760, Note_on_c, 0, 63, 46
2, 59760, Note_on_c, 0, 65, 46
2, 59939, Note_on_c, 0, 65, 0
2, 59939, Note_on_c, 0, 63, 0
2, 60120, Note_on_c, 0, 67, 0
2, 60120, Note_on_c, 0, 69, 58
2, 60120, Note_on_c, 0, 63, 43
2, 60120, Note_on_c, 0, 65, 43
2, 60299, Note_on_c, 0, 65, 0
2, 60299, Note_on_c, 0, 63, 0
2, 60480, Note_on_c, 0, 69, 0
2, 60480, Note_on_c, 0, 70, 55
2, 60840, Note_on_c, 0, 62, 47
2, 60840, Note_on_c, 0, 65, 47
2, 61019, Note_on_c, 0, 65, 0
2, 61019, Note_on_c, 0, 62, 0
2, 61200, Note_on_c, 0, 62, 57
2, 61200, Note_on_c, 0, 65, 57
2, 61379, Note_on_c, 0, 65, 0
2, 61379, Note_on_c, 0, 62, 0
2, 61560, Note_on_c, 0, 70, 0
2, 61560, Note_on_c, 0, 69, 50
2, 61920, Note_on_c, 0, 62, 49
2, 61920, Note_on_c, 0, 65, 49
2, 62099, Note_on_c, 0, 65, 0
2, 62099, Note_on_c, 0, 62, 0
2, 62280, Note_on_c, 0, 62, 52
2, 62280, Note_on_c, 0, 65, 52
2, 62459, Note_on_c, 0, 65, 0
2, 62459, Note_on_c, 0, 62, 0
2, 62640, Note_on_c, 0, 69, 0
2, 62640, Note_on_c, 0, 70, 59
2, 63000, Note_on_c, 0, 62, 49
2, 63000, Note_on_c, 0, 65, 49
2, 63179, Note_on_c, 0, 65, 0
2, 63179, Note_on_c, 0, 62, 0
2, 63360, Note_on_c, 0, 70, 0
2, 63360, Note_on_c, 0, 67, 56
2, 63360, Note_on_c, 0, 62, 52
2, 63360, Note_on_c, 0, 65, 52
2, 63539, Note_on_c, 0, 65, 0
2, 63539, Note_on_c, 0, 62, 0
2, 63720, Note_on_c, 0, 67, 0
2, 63720, Note_on_c, 0, 69, 57
2, 64080, Note_on_c, 0, 69, 0
2, 64080, Note_on_c, 0, 70, 60
2, 64080, Note_on_c, 0, 62, 52
2, 64080, Note_on_c, 0, 65, 52
2, 64259, Note_on_c, 0, 65, 0
2, 64259, Note_on_c, 0, 62, 0
2, 64440, Note_on_c, 0, 70, 0
2, 64440, Note_on_c, 0, 67, 46
2, 64440, Note_on_c, 0, 62, 54
2, 64440, Note_on_c, 0, 65, 54
2, 64619, Note_on_c, 0, 65, 0
2, 64619, Note_on_c, 0, 62, 0
2, 64800, Note_on_c, 0, 67, 0
2, 64800, Note_on_c, 0, 69, 55
2, 65160, Note_on_c, 0, 65, 64
2, 65339, Note_on_c, 0, 65, 0
2, 65520, Note_on_c, 0, 69, 0
2, 65520, Note_on_c, 0, 72, 72
2, 65520, Note_on_c, 0, 65, 72
2, 65520, Note_on_c, 0, 69, 72
2, 65699, Note_on_c, 0, 69, 0
2, 65699, Note_on_c, 0, 65, 0
2, 65880, Note_on_c, 0, 72, 0
2, 65880, Note_on_c, 0, 72, 92
2, 66240, Note_on_c, 0, 65, 47
2, 66240, Note_on_c, 0, 68, 47
2, 66419, Note_on_c, 0, 68, 0
2, 66419, Note_on_c, 0, 65, 0
2, 66600, Note_on_c, 0, 72, 0
2, 66600, Note_on_c, 0, 71, 75
2, 66600, Note_on_c, 0, 65, 39
2, 66600, Note_on_c, 0, 68, 39
2, 66779, Note_on_c, 0, 68, 0
2, 66779, Note_on_c, 0, 65, 0
2, 66960, Note_on_c, 0, 71, 0
2, 66960, Note_on_c, 0, 72, 67
2, 67320, Note_on_c, 0, 65, 50
2, 67320, Note_on_c, 0, 69, 50
2, 67499, Note_on_c, 0, 69, 0
2, 67499, Note_on_c, 0, 65, 0
2, 67680, Note_on_c, 0, 65, 59
2, 67680, Note_on_c, 0, 69, 59
2, 67859, Note_on_c, 0, 69, 0
2, 67859, Note_on_c, 0, 65, 0
2, 68400, Note_on_c, 0, 65, 49
2, 68400, Note_on_c, 0, 69, 49
2, 68579, Note_on_c, 0, 69, 0
2, 68579, Note_on_c, 0, 65, 0
2, 68760, Note_on_c, 0, 65, 55
2, 68760, Note_on_c, 0, 69, 55
2, 68939, Note_on_c, 0, 69, 0
2, 68939, Note_on_c, 0, 65, 0
2, 69120, Note_on_c, 0, 72, 0
2, 69120, Note_on_c, 0, 74, 67
2, 69120, Note_on_c, 0, 62, 55
2, 69840, Note_on_c, 0, 62, 0
2, 69840, Note_on_c, 0, 74, 0
2, 69840, Note_on_c, 0, 75, 71
2, 69840, Note_on_c, 0, 63, 60
2, 70560, Note_on_c, 0, 63, 0
2, 70560, Note_on_c, 0, 75, 0
2, 70560, Note_on_c, 0, 76, 75
2, 70560, Note_on_c, 0, 64, 64
2, 71280, Note_on_c, 0, 64, 0
2, 71280, Note_on_c, 0, 76, 0
2, 71280, Note_on_c, 0, 79, 80
2, 71280, Note_on_c, 0, 67, 68
2, 72000, Note_on_c, 0, 67, 0
2, 72000, Note_on_c, 0, 79, 0
2, 72000, Note_on_c, 0, 77, 84
2, 72000, Note_on_c, 0, 65, 72
2, 72720, Note_on_c, 0, 65, 0
2, 72720, Note_on_c, 0, 77, 0
2, 72720, Note_on_c, 0, 81, 88
2, 72720, Note_on_c, 0, 69, 77
2, 73440, Note_on_c, 0, 69, 0
2, 73440, Note_on_c, 0, 81, 0
2, 73440, Note_on_c, 0, 82, 92
2, 73440, Note_on_c, 0, 70, 81
2, 74160, Note_on_c, 0, 70, 0
2, 74160, Note_on_c, 0, 82, 0
2, 74160, Note_on_c, 0, 81, 90
2, 74160, Note_on_c, 0, 69, 80
2, 74880, Note_on_c, 0, 69, 0
2, 74880, Note_on_c, 0, 81, 0
2, 74880, Note_on_c, 0, 79, 83
2, 74880, Note_on_c, 0, 67, 74
2, 75600, Note_on_c, 0, 67, 0
2, 75600, Note_on_c, 0, 79, 0
2, 75600, Note_on_c, 0, 77, 86
2, 75600, Note_on_c, 0, 65, 74
2, 75780, Note_on_c, 0, 65, 0
2, 75780, Note_on_c, 0, 77, 0
2, 75960, Note_on_c, 0, 76, 83
2, 76140, Note_on_c, 0, 76, 0
2, 76140, Note_on_c, 0, 77, 98
2, 76320, Note_on_c, 0, 77, 0
2, 76320, Note_on_c, 0, 81, 98
2, 76500, Note_on_c, 0, 81, 0
2, 76500, Note_on_c, 0, 79, 89
2, 76680, Note_on_c, 0, 79, 0
2, 76680, Note_on_c, 0, 77, 85
2, 76860, Note_on_c, 0, 77, 0
2, 76860, Note_on_c, 0, 74, 81
2, 77040, Note_on_c, 0, 74, 0
2, 77040, Note_on_c, 0, 72, 75
2, 77220, Note_on_c, 0, 72, 0
2, 77220, Note_on_c, 0, 74, 87
2, 77400, Note_on_c, 0, 74, 0
2, 77400, Note_on_c, 0, 72, 73
2, 77580, Note_on_c, 0, 72, 0
2, 77580, Note_on_c, 0, 69, 74
2, 77760, Note_on_c, 0, 69, 0
2, 77760, Note_on_c, 0, 65, 70
2, 77849, Note_on_c, 0, 65, 0
2, 78120, Note_on_c, 0, 77, 120
2, 78120, Note_on_c, 0, 65, 122
2, 78840, Note_on_c, 0, 65, 0
2, 78840, Note_on_c, 0, 77, 0
2, 78840, Note_on_c, 0, 79, 122
2, 78840, Note_on_c, 0, 67, 122
2, 79560, Note_on_c, 0, 67, 0
2, 79560, Note_on_c, 0, 79, 0
2, 79560, Note_on_c, 0, 81, 122
2, 79560, Note_on_c, 0, 69, 122
2, 79920, Note_on_c, 0, 69, 0
2, 79920, Note_on_c, 0, 81, 0
2, 79920, Note_on_c, 0, 82, 122
2, 79920, Note_on_c, 0, 70, 122
2, 80100, Note_on_c, 0, 70, 0
2, 80100, Note_on_c, 0, 82, 0
2, 80280, Note_on_c, 0, 73, 97
2, 80460, Note_on_c, 0, 73, 0
2, 80460, Note_on_c, 0, 74, 111
2, 80640, Note_on_c, 0, 74, 0
2, 80640, Note_on_c, 0, 75, 115
2, 80820, Note_on_c, 0, 75, 0
2, 80820, Note_on_c, 0, 74, 103
2, 81000, Note_on_c, 0, 74, 0
2, 81000, Note_on_c, 0, 77, 116
2, 81000, Note_on_c, 0, 72, 97
2, 81180, Note_on_c, 0, 72, 0
2, 81180, Note_on_c, 0, 77, 0
2, 81360, Note_on_c, 0, 71, 94
2, 81540, Note_on_c, 0, 71, 0
2, 81540, Note_on_c, 0, 72, 114
2, 81720, Note_on_c, 0, 72, 0
2, 81720, Note_on_c, 0, 74, 111
2, 81900, Note_on_c, 0, 74, 0
2, 81900, Note_on_c, 0, 72, 100
2, 82080, Note_on_c, 0, 72, 0
2, 82080, Note_on_c, 0, 74, 111
2, 82080, Note_on_c, 0, 65, 98
2, 82080, Note_on_c, 0, 70, 98
2, 82260, Note_on_c, 0, 70, 0
2, 82260, Note_on_c, 0, 65, 0
2, 82260, Note_on_c, 0, 74, 0
2, 82440, Note_on_c, 0, 69, 95
2, 82620, Note_on_c, 0, 69, 0
2, 82620, Note_on_c, 0, 70, 114
2, 82800, Note_on_c, 0, 70, 0
2, 82800, Note_on_c, 0, 72, 116
2, 82980, Note_on_c, 0, 72, 0
2, 82980, Note_on_c, 0, 70, 102
2, 83160, Note_on_c, 0, 70, 0
2, 83160, Note_on_c, 0, 74, 117
2, 83160, Note_on_c, 0, 65, 91
2, 83249, Note_on_c, 0, 74, 0
2, 83339, Note_on_c, 0, 65, 0
2, 83340, Note_on_c, 0, 72, 106
2, 83429, Note_on_c, 0, 72, 0
2, 83520, Note_on_c, 0, 70, 101
2, 83520, Note_on_c, 0, 65, 106
2, 83609, Note_on_c, 0, 70, 0
2, 83699, Note_on_c, 0, 65, 0
2, 83700, Note_on_c, 0, 69, 100
2, 83789, Note_on_c, 0, 69, 0
2, 83880, Note_on_c, 0, 70, 111
2, 83880, Note_on_c, 0, 61, 95
2, 83969, Note_on_c, 0, 70, 0
2, 84059, Note_on_c, 0, 61, 0
2, 84060, Note_on_c, 0, 67, 90
2, 84149, Note_on_c, 0, 67, 0
2, 84240, Note_on_c, 0, 65, 100
2, 84240, Note_on_c, 0, 60, 96
2, 84329, Note_on_c, 0, 60, 0
2, 84329, Note_on_c, 0, 65, 0
2, 84600, Note_on_c, 0, 76, 96
2, 84600, Note_on_c, 0, 64, 94
2, 84780, Note_on_c, 0, 64, 0
2, 84780, Note_on_c, 0, 76, 0
2, 84780, Note_on_c, 0, 77, 112
2, 84780, Note_on_c, 0, 65, 113
2, 84960, Note_on_c, 0, 65, 0
2, 84960, Note_on_c, 0, 77, 0
2, 84960, Note_on_c, 0, 79, 115
2, 84960, Note_on_c, 0, 67, 119
2, 85140, Note_on_c, 0, 67, 0
2, 85140, Note_on_c, 0, 79, 0
2, 85140, Note_on_c, 0, 77, 106
2, 85140, Note_on_c, 0, 65, 99
2, 85320, Note_on_c, 0, 65, 0
2, 85320, Note_on_c, 0, 77, 0
2, 85320, Note_on_c, 0, 81, 121
2, 85320, Note_on_c, 0, 69, 121
2, 85409, Note_on_c, 0, 69, 0
2, 85409, Note_on_c, 0, 81, 0
2, 85500, Note_on_c, 0, 79, 101
2, 85500, Note_on_c, 0, 67, 98
2, 85589, Note_on_c, 0, 67, 0
2, 85589, Note_on_c, 0, 79, 0
2, 85680, Note_on_c, 0, 77, 99
2, 85680, Note_on_c, 0, 65, 96
2, 85769, Note_on_c, 0, 65, 0
2, 85769, Note_on_c, 0, 77, 0
2, 85860, Note_on_c, 0, 76, 104
2, 85860, Note_on_c, 0, 64, 103
2, 85949, Note_on_c, 0, 64, 0
2, 85949, Note_on_c, 0, 76, 0
2, 86040, Note_on_c, 0, 77, 110
2, 86040, Note_on_c, 0, 65, 113
2, 86129, Note_on_c, 0, 65, 0
2, 86129, Note_on_c, 0, 77, 0
2, 86220, Note_on_c, 0, 73, 98
2, 86309, Note_on_c, 0, 73, 0
2, 86400, Note_on_c, 0, 74, 110
2, 86400, Note_on_c, 0, 65, 100
2, 86400, Note_on_c, 0, 70, 100
2, 86489, Note_on_c, 0, 70, 0
2, 86489, Note_on_c, 0, 65, 0
2, 86489, Note_on_c, 0, 74, 0
2, 86760, Note_on_c, 0, 77, 119
2, 86760, Note_on_c, 0, 65, 121
2, 87480, Note_on_c, 0, 65, 0
2, 87480, Note_on_c, 0, 77, 0
2, 87480, Note_on_c, 0, 79, 122
2, 87480, Note_on_c, 0, 67, 122
2, 88200, Note_on_c, 0, 67, 0
2, 88200, Note_on_c, 0, 79, 0
2, 88200, Note_on_c, 0, 81, 122
2, 88200, Note_on_c, 0, 69, 122
2, 88560, Note_on_c, 0, 69, 0
2, 88560, Note_on_c, 0, 81, 0
2, 88560, Note_on_c, 0, 82, 122
2, 88560, Note_on_c, 0, 70, 122
2, 88740, Note_on_c, 0, 70, 0
2, 88740, Note_on_c, 0, 82, 0
2, 88920, Note_on_c, 0, 73, 98
2, 89100, Note_on_c, 0, 73, 0
2, 89100, Note_on_c, 0, 74, 108
2, 89280, Note_on_c, 0, 74, 0
2, 89280, Note_on_c, 0, 75, 116
2, 89460, Note_on_c, 0, 75, 0
2, 89460, Note_on_c, 0, 74, 106
2, 89640, Note_on_c, 0, 74, 0
2, 89640, Note_on_c, 0, 77, 116
2, 89640, Note_on_c, 0, 72, 89
2, 89820, Note_on_c, 0, 72, 0
2, 89820, Note_on_c, 0, 77, 0
2, 90000, Note_on_c, 0, 71, 96
2, 90180, Note_on_c, 0, 71, 0
2, 90180, Note_on_c, 0, 72, 113
2, 90360, Note_on_c, 0, 72, 0
2, 90360, Note_on_c, 0, 74, 116
2, 90540, Note_on_c, 0, 74, 0
2, 90540, Note_on_c, 0, 72, 107
2, 90720, Note_on_c, 0, 72, 0
2, 90720, Note_on_c, 0, 74, 116
2, 90720, Note_on_c, 0, 65, 91
2, 90720, Note_on_c, 0, 70, 91
2, 90900, Note_on_c, 0, 70, 0
2, 90900, Note_on_c, 0, 65, 0
2, 90900, Note_on_c, 0, 74, 0
2, 91080, Note_on_c, 0, 69, 94
2, 91260, Note_on_c, 0, 69, 0
2, 91260, Note_on_c, 0, 70, 110
2, 91440, Note_on_c, 0, 70, 0
2, 91440, Note_on_c, 0, 72, 118
2, 91620, Note_on_c, 0, 72, 0
2, 91620, Note_on_c, 0, 70, 97
2, 91800, Note_on_c, 0, 70, 0
2, 91800, Note_on_c, 0, 74, 117
2, 91889, Note_on_c, 0, 74, 0
2, 91980, Note_on_c, 0, 72, 102
2, 92069, Note_on_c, 0, 72, 0
2, 92160, Note_on_c, 0, 70, 95
2, 92160, Note_on_c, 0, 62, 101
2, 92249, Note_on_c, 0, 70, 0
2, 92339, Note_on_c, 0, 62, 0
2, 92340, Note_on_c, 0, 69, 102
2, 92429, Note_on_c, 0, 69, 0
2, 92520, Note_on_c, 0, 67, 99
2, 92520, Note_on_c, 0, 62, 105
2, 92609, Note_on_c, 0, 67, 0
2, 92699, Note_on_c, 0, 62, 0
2, 92700, Note_on_c, 0, 65, 99
2, 92789, Note_on_c, 0, 65, 0
2, 92880, Note_on_c, 0, 60, 114
2, 92880, Note_on_c, 0, 64, 114
2, 92969, Note_on_c, 0, 64, 0
2, 92969, Note_on_c, 0, 60, 0
2, 93240, Note_on_c, 0, 75, 94
2, 93240, Note_on_c, 0, 63, 98
2, 93420, Note_on_c, 0, 63, 0
2, 93420, Note_on_c, 0, 75, 0
2, 93420, Note_on_c, 0, 76, 112
2, 93420, Note_on_c, 0, 64, 111
2, 93600, Note_on_c, 0, 64, 0
2, 93600, Note_on_c, 0, 76, 0
2, 93600, Note_on_c, 0, 77, 115
2, 93600, Note_on_c, 0, 65, 110
2, 93780, Note_on_c, 0, 65, 0
2, 93780, Note_on_c, 0, 77, 0
2, 93780, Note_on_c, 0, 76, 103
2, 93780, Note_on_c, 0, 64, 104
2, 93960, Note_on_c, 0, 64, 0
2, 93960, Note_on_c, 0, 76, 0
2, 93960, Note_on_c, 0, 81, 119
2, 93960, Note_on_c, 0, 69, 121
2, 94049, Note_on_c, 0, 69, 0
2, 94049, Note_on_c, 0, 81, 0
2, 94140, Note_on_c, 0, 79, 105
2, 94140, Note_on_c, 0, 67, 103
2, 94229, Note_on_c, 0, 67, 0
2, 94229, Note_on_c, 0, 79, 0
2, 94320, Note_on_c, 0, 77, 102
2, 94320, Note_on_c, 0, 65, 98
2, 94409, Note_on_c, 0, 65, 0
2, 94409, Note_on_c, 0, 77, 0
2, 94500, Note_on_c, 0, 76, 103
2, 94500, Note_on_c, 0, 64, 103
2, 94589, Note_on_c, 0, 64, 0
2, 94589, Note_on_c, 0, 76, 0
2, 94680, Note_on_c, 0, 74, 99
2, 94769, Note_on_c, 0, 74, 0
2, 94860, Note_on_c, 0, 72, 99
2, 94949, Note_on_c, 0, 72, 0
2, 95040, Note_on_c, 0, 77, 121
2, 95040, Note_on_c, 0, 65, 98
2, 95129, Note_on_c, 0, 65, 0
2, 95129, Note_on_c, 0, 77, 0
2, 95400, Note_on_c, 0, 77, 122
2, 95400, Note_on_c, 0, 65, 122
2, 96120, Note_on_c, 0, 65, 0
2, 96120, Note_on_c, 0, 77, 0
2, 96120, Note_on_c, 0, 79, 122
2, 96120, Note_on_c, 0, 67, 122
2, 96840, Note_on_c, 0, 67, 0
2, 96840, Note_on_c, 0, 79, 0
2, 96840, Note_on_c, 0, 81, 122
2, 96840, Note_on_c, 0, 69, 122
2, 97200, Note_on_c, 0, 69, 0
2, 97200, Note_on_c, 0, 81, 0
2, 97200, Note_on_c, 0, 82, 122
2, 97200, Note_on_c, 0, 70, 122
2, 97380, Note_on_c, 0, 70, 0
2, 97380, Note_on_c, 0, 82, 0
2, 97560, Note_on_c, 0, 73, 95
2, 97740, Note_on_c, 0, 73, 0
2, 97740, Note_on_c, 0, 74, 108
2, 97920, Note_on_c, 0, 74, 0
2, 97920, Note_on_c, 0, 75, 116
2, 98100, Note_on_c, 0, 75, 0
2, 98100, Note_on_c, 0, 74, 101
2, 98280, Note_on_c, 0, 74, 0
2, 98280, Note_on_c, 0, 77, 119
2, 98280, Note_on_c, 0, 72, 98
2, 98460, Note_on_c, 0, 72, 0
2, 98460, Note_on_c, 0, 77, 0
2, 98640, Note_on_c, 0, 71, 96
2, 98820, Note_on_c, 0, 71, 0
2, 98820, Note_on_c, 0, 72, 109
2, 99000, Note_on_c, 0, 72, 0
2, 99000, Note_on_c, 0, 74, 118
2, 99180, Note_on_c, 0, 74, 0
2, 99180, Note_on_c, 0, 72, 100
2, 99360, Note_on_c, 0, 72, 0
2, 99360, Note_on_c, 0, 74, 114
2, 99360, Note_on_c, 0, 65, 98
2, 99360, Note_on_c, 0, 70, 98
2, 99540, Note_on_c, 0, 70, 0
2, 99540, Note_on_c, 0, 65, 0
2, 99540, Note_on_c, 0, 74, 0
2, 99720, Note_on_c, 0, 69, 98
2, 99900, Note_on_c, 0, 69, 0
2, 99900, Note_on_c, 0, 70, 111
2, 100080, Note_on_c, 0, 70, 0
2, 100080, Note_on_c, 0, 72, 115
2, 100260, Note_on_c, 0, 72, 0
2, 100260, Note_on_c, 0, 70, 105
2, 100440, Note_on_c, 0, 70, 0
2, 100440, Note_on_c, 0, 74, 119
2, 100440, Note_on_c, 0, 65, 98
2, 100529, Note_on_c, 0, 74, 0
2, 100619, Note_on_c, 0, 65, 0
2, 100620, Note_on_c, 0, 72, 105
2, 100709, Note_on_c, 0, 72, 0
2, 100800, Note_on_c, 0, 70, 102
2, 100800, Note_on_c, 0, 65, 102
2, 100889, Note_on_c, 0, 70, 0
2, 100979, Note_on_c, 0, 65, 0
2, 100980, Note_on_c, 0, 69, 99
2, 101069, Note_on_c, 0, 69, 0
2, 101160, Note_on_c, 0, 70, 115
2, 101160, Note_on_c, 0, 61, 95
2, 101249, Note_on_c, 0, 70, 0
2, 101339, Note_on_c, 0, 61, 0
2, 101340, Note_on_c, 0, 67, 94
2, 101429, Note_on_c, 0, 67, 0
2, 101520, Note_on_c, 0, 65, 99
2, 101520, Note_on_c, 0, 60, 101
2, 101609, Note_on_c, 0, 60, 0
2, 101609, Note_on_c, 0, 65, 0
2, 101880, Note_on_c, 0, 76, 96
2, 101880, Note_on_c, 0, 64, 97
2, 102060, Note_on_c, 0, 64, 0
2, 102060, Note_on_c, 0, 76, 0
2, 102060, Note_on_c, 0, 77, 109
2, 102060, Note_on_c, 0, 65, 110
2, 102240, Note_on_c, 0, 65, 0
2, 102240, Note_on_c, 0, 77, 0
2, 102240, Note_on_c, 0, 79, 117
2, 102240, Note_on_c, 0, 67, 118
2, 102420, Note_on_c, 0, 67, 0
2, 102420, Note_on_c, 0, 79, 0
2, 102420, Note_on_c, 0, 77, 105
2, 102420, Note_on_c, 0, 65, 102
2, 102600, Note_on_c, 0, 65, 0
2, 102600, Note_on_c, 0, 77, 0
2, 102600, Note_on_c, 0, 81, 121
2, 102600, Note_on_c, 0, 69, 121
2, 102689, Note_on_c, 0, 69, 0
2, 102689, Note_on_c, 0, 81, 0
2, 102780, Note_on_c, 0, 79, 103
2, 102780, Note_on_c, 0, 67, 102
2, 102869, Note_on_c, 0, 67, 0
2, 102869, Note_on_c, 0, 79, 0
2, 102960, Note_on_c, 0, 77, 102
2, 102960, Note_on_c, 0, 65, 96
2, 103049, Note_on_c, 0, 65, 0
2, 103049, Note_on_c, 0, 77, 0
2, 103140, Note_on_c, 0, 76, 101
2, 103140, Note_on_c, 0, 64, 100
2, 103229, Note_on_c, 0, 64, 0
2, 103229, Note_on_c, 0, 76, 0
2, 103320, Note_on_c, 0, 77, 112
2, 103320, Note_on_c, 0, 65, 113
2, 103409, Note_on_c, 0, 65, 0
2, 103409, Note_on_c, 0, 77, 0
2, 103500, Note_on_c, 0, 73, 92
2, 103589, Note_on_c, 0, 73, 0
2, 103680, Note_on_c, 0, 74, 111
2, 103680, Note_on_c, 0, 65, 105
2, 103680, Note_on_c, 0, 70, 105
2, 103769, Note_on_c, 0, 70, 0
2, 103769, Note_on_c, 0, 65, 0
2, 103769, Note_on_c, 0, 74, 0
2, 104040, Note_on_c, 0, 77, 119
2, 104040, Note_on_c, 0, 65, 117
2, 104760, Note_on_c, 0, 65, 0
2, 104760, Note_on_c, 0, 77, 0
2, 104760, Note_on_c, 0, 79, 122
2, 104760, Note_on_c, 0, 67, 122
2, 105480, Note_on_c, 0, 67, 0
2, 105480, Note_on_c, 0, 79, 0
2, 105480, Note_on_c, 0, 81, 122
2, 105480, Note_on_c, 0, 69, 122
2, 105840, Note_on_c, 0, 69, 0
2, 105840, Note_on_c, 0, 81, 0
2, 105840, Note_on_c, 0, 82, 122
2, 105840, Note_on_c, 0, 70, 122
2, 106020, Note_on_c, 0, 70, 0
2, 106020, Note_on_c, 0, 82, 0
2, 106200, Note_on_c, 0, 73, 100
2, 106380, Note_on_c, 0, 73, 0
2, 106380, Note_on_c, 0, 74, 109
2, 106560, Note_on_c, 0, 74, 0
2, 106560, Note_on_c, 0, 75, 113
2, 106740, Note_on_c, 0, 75, 0
2, 106740, Note_on_c, 0, 74, 101
2, 106920, Note_on_c, 0, 74, 0
2, 106920, Note_on_c, 0, 77, 116
2, 106920, Note_on_c, 0, 72, 97
2, 107100, Note_on_c, 0, 72, 0
2, 107100, Note_on_c, 0, 77, 0
2, 107280, Note_on_c, 0, 71, 95
2, 107460, Note_on_c, 0, 71, 0
2, 107460, Note_on_c, 0, 72, 112
2, 107640, Note_on_c, 0, 72, 0
2, 107640, Note_on_c, 0, 74, 117
2, 107820, Note_on_c, 0, 74, 0
2, 107820, Note_on_c, 0, 72, 98
2, 108000, Note_on_c, 0, 72, 0
2, 108000, Note_on_c, 0, 74, 113
2, 108000, Note_on_c, 0, 65, 99
2, 108000, Note_on_c, 0, 70, 99
2, 108180, Note_on_c, 0, 70, 0
2, 108180, Note_on_c, 0, 65, 0
2, 108180, Note_on_c, 0, 74, 0
2, 108360, Note_on_c, 0, 69, 98
2, 108540, Note_on_c, 0, 69, 0
2, 108540, Note_on_c, 0, 70, 109
2, 108720, Note_on_c, 0, 70, 0
2, 108720, Note_on_c, 0, 72, 119
2, 108900, Note_on_c, 0, 72, 0
2, 108900, Note_on_c, 0, 70, 105
2, 109080, Note_on_c, 0, 70, 0
2, 109080, Note_on_c, 0, 74, 119
2, 109169, Note_on_c, 0, 74, 0
2, 109260, Note_on_c, 0, 72, 103
2, 109349, Note_on_c, 0, 72, 0
2, 109440, Note_on_c, 0, 70, 103
2, 109440, Note_on_c, 0, 62, 95
2, 109529, Note_on_c, 0, 70, 0
2, 109619, Note_on_c, 0, 62, 0
2, 109620, Note_on_c, 0, 69, 102
2, 109709, Note_on_c, 0, 69, 0
2, 109800, Note_on_c, 0, 67, 100
2, 109800, Note_on_c, 0, 62, 109
2, 109889, Note_on_c, 0, 67, 0
2, 109979, Note_on_c, 0, 62, 0
2, 109980, Note_on_c, 0, 65, 95
2, 110069, Note_on_c, 0, 65, 0
2, 110160, Note_on_c, 0, 60, 116
2, 110160, Note_on_c, 0, 64, 116
2, 110249, Note_on_c, 0, 64, 0
2, 110249, Note_on_c, 0, 60, 0
2, 110520, Note_on_c, 0, 75, 97
2, 110520, Note_on_c, 0, 63, 95
2, 110700, Note_on_c, 0, 63, 0
2, 110700, Note_on_c, 0, 75, 0
2, 110700, Note_on_c, 0, 76, 111
2, 110700, Note_on_c, 0, 64, 112
2, 110880, Note_on_c, 0, 64, 0
2, 110880, Note_on_c, 0, 76, 0
2, 110880, Note_on_c, 0, 77, 112
2, 110880, Note_on_c, 0, 65, 117
2, 111060, Note_on_c, 0, 65, 0
2, 111060, Note_on_c, 0, 77, 0
2, 111060, Note_on_c, 0, 76, 103
2, 111060, Note_on_c, 0, 64, 104
2, 111240, Note_on_c, 0, 64, 0
2, 111240, Note_on_c, 0, 76, 0
2, 111240, Note_on_c, 0, 81, 121
2, 111240, Note_on_c, 0, 69, 121
2, 111329, Note_on_c, 0, 69, 0
2, 111329, Note_on_c, 0, 81, 0
2, 111420, Note_on_c, 0, 79, 102
2, 111420, Note_on_c, 0, 67, 107
2, 111509, Note_on_c, 0, 67, 0
2, 111509, Note_on_c, 0, 79, 0
2, 111600, Note_on_c, 0, 77, 101
2, 111600, Note_on_c, 0, 65, 101
2, 111689, Note_on_c, 0, 65, 0
2, 111689, Note_on_c, 0, 77, 0
2, 111780, Note_on_c, 0, 76, 104
2, 111780, Note_on_c, 0, 64, 101
2, 111869, Note_on_c, 0, 64, 0
2, 111869, Note_on_c, 0, 76, 0
2, 111960, Note_on_c, 0, 74, 97
2, 112049, Note_on_c, 0, 74, 0
2, 112140, Note_on_c, 0, 72, 104
2, 112229, Note_on_c, 0, 72, 0
2, 112320, Note_on_c, 0, 77, 108
2, 112320, Note_on_c, 0, 65, 95
2, 112409, Note_on_c, 0, 65, 0
2, 112409, Note_on_c, 0, 77, 0
2, 112500, Note_on_c, 0, 75, 103
2, 112589, Note_on_c, 0, 75, 0
2, 112680, Note_on_c, 0, 74, 99
2, 112769, Note_on_c, 0, 74, 0
2, 112860, Note_on_c, 0, 72, 95
2, 112949, Note_on_c, 0, 72, 0
2, 113040, Note_on_c, 0, 74, 91
2, 113129, Note_on_c, 0, 74, 0
2, 113220, Note_on_c, 0, 72, 86
2, 113309, Note_on_c, 0, 72, 0
2, 113400, Note_on_c, 0, 70, 82
2, 113489, Note_on_c, 0, 70, 0
2, 113580, Note_on_c, 0, 69, 78
2, 113669, Note_on_c, 0, 69, 0
2, 113760, Note_on_c, 0, 70, 84
2, 113849, Note_on_c, 0, 70, 0
2, 113940, Note_on_c, 0, 69, 82
2, 114029, Note_on_c, 0, 69, 0
2, 114120, Note_on_c, 0, 67, 78
2, 114209, Note_on_c, 0, 67, 0
2, 114300, Note_on_c, 0, 65, 74
2, 114389, Note_on_c, 0, 65, 0
2, 114480, Note_on_c, 0, 69, 69
2, 114569, Note_on_c, 0, 69, 0
2, 114660, Note_on_c, 0, 67, 65
2, 114749, Note_on_c, 0, 67, 0
2, 114840, Note_on_c, 0, 65, 61
2, 114929, Note_on_c, 0, 65, 0
2, 115020, Note_on_c, 0, 63, 68
2, 115109, Note_on_c, 0, 63, 0
2, 115200, Note_on_c, 0, 67, 78
2, 115289, Note_on_c, 0, 67, 0
2, 115380, Note_on_c, 0, 65, 74
2, 115469, Note_on_c, 0, 65, 0
2, 115560, Note_on_c, 0, 63, 70
2, 115649, Note_on_c, 0, 63, 0
2, 115740, Note_on_c, 0, 62, 66
2, 115829, Note_on_c, 0, 62, 0
2, 115920, Note_on_c, 0, 65, 61
2, 116009, Note_on_c, 0, 65, 0
2, 116100, Note_on_c, 0, 63, 57
2, 116189, Note_on_c, 0, 63, 0
2, 116820, Note_on_c, 0, 77, 52
2, 116909, Note_on_c, 0, 77, 0
2, 117000, Note_on_c, 0, 86, 66
2, 117000, Note_on_c, 0, 62, 53
2, 117000, Note_on_c, 0, 65, 53
2, 117179, Note_on_c, 0, 65, 0
2, 117179, Note_on_c, 0, 62, 0
2, 117180, Note_on_c, 0, 86, 0
2, 117180, Note_on_c, 0, 89, 64
2, 117360, Note_on_c, 0, 89, 0
2, 117360, Note_on_c, 0, 86, 58
2, 117360, Note_on_c, 0, 89, 58
2, 117360, Note_on_c, 0, 62, 54
2, 117360, Note_on_c, 0, 65, 54
2, 117539, Note_on_c, 0, 65, 0
2, 117539, Note_on_c, 0, 62, 0
2, 117540, Note_on_c, 0, 89, 0
2, 117540, Note_on_c, 0, 86, 0
2, 117540, Note_on_c, 0, 77, 38
2, 117720, Note_on_c, 0, 77, 0
2, 117900, Note_on_c, 0, 77, 50
2, 117989, Note_on_c, 0, 77, 0
2, 118080, Note_on_c, 0, 86, 69
2, 118080, Note_on_c, 0, 62, 45
2, 118080, Note_on_c, 0, 65, 45
2, 118259, Note_on_c, 0, 65, 0
2, 118259, Note_on_c, 0, 62, 0
2, 118260, Note_on_c, 0, 86, 0
2, 118260, Note_on_c, 0, 89, 64
2, 118440, Note_on_c, 0, 89, 0
2, 118440, Note_on_c, 0, 86, 55
2, 118440, Note_on_c, 0, 89, 55
2, 118440, Note_on_c, 0, 62, 53
2, 118440, Note_on_c, 0, 65, 53
2, 118619, Note_on_c, 0, 65, 0
2, 118619, Note_on_c, 0, 62, 0
2, 118620, Note_on_c, 0, 89, 0
2, 118620, Note_on_c, 0, 86, 0
2, 118620, Note_on_c, 0, 77, 41
2, 118800, Note_on_c, 0, 77, 0
2, 118980, Note_on_c, 0, 77, 51
2, 119069, Note_on_c, 0, 77, 0
2, 119160, Note_on_c, 0, 86, 65
2, 119160, Note_on_c, 0, 62, 51
2, 119160, Note_on_c, 0, 65, 51
2, 119339, Note_on_c, 0, 65, 0
2, 119339, Note_on_c, 0, 62, 0
2, 119340, Note_on_c, 0, 86, 0
2, 119340, Note_on_c, 0, 89, 66
2, 119520, Note_on_c, 0, 89, 0
2, 119520, Note_on_c, 0, 86, 58
2, 119520, Note_on_c, 0, 89, 58
2, 119520, Note_on_c, 0, 62, 52
2, 119520, Note_on_c, 0, 65, 52
2, 119699, Note_on_c, 0, 65, 0
2, 119699, Note_on_c, 0, 62, 0
2, 119700, Note_on_c, 0, 89, 0
2, 119700, Note_on_c, 0, 86, 0
2, 119700, Note_on_c, 0, 77, 38
2, 119880, Note_on_c, 0, 77, 0
2, 120060, Note_on_c, 0, 77, 52
2, 120149, Note_on_c, 0, 77, 0
2, 120240, Note_on_c, 0, 86, 73
2, 120240, Note_on_c, 0, 62, 45
2, 120240, Note_on_c, 0, 65, 45
2, 120419, Note_on_c, 0, 65, 0
2, 120419, Note_on_c, 0, 62, 0
2, 120420, Note_on_c, 0, 86, 0
2, 120420, Note_on_c, 0, 89, 61
2, 120600, Note_on_c, 0, 89, 0
2, 120600, Note_on_c, 0, 86, 49
2, 120600, Note_on_c, 0, 89, 49
2, 120600, Note_on_c, 0, 62, 54
2, 120600, Note_on_c, 0, 65, 54
2, 120779, Note_on_c, 0, 65, 0
2, 120779, Note_on_c, 0, 62, 0
2, 120780, Note_on_c, 0, 89, 0
2, 120780, Note_on_c, 0, 86, 0
2, 120780, Note_on_c, 0, 77, 41
2, 120960, Note_on_c, 0, 77, 0
2, 121140, Note_on_c, 0, 77, 44
2, 121229, Note_on_c, 0, 77, 0
2, 121320, Note_on_c, 0, 87, 70
2, 121320, Note_on_c, 0, 63, 48
2, 121320, Note_on_c, 0, 65, 48
2, 121499, Note_on_c, 0, 65, 0
2, 121499, Note_on_c, 0, 63, 0
2, 121500, Note_on_c, 0, 87, 0
2, 121500, Note_on_c, 0, 89, 60
2, 121680, Note_on_c, 0, 89, 0
2, 121680, Note_on_c, 0, 87, 55
2, 121680, Note_on_c, 0, 89, 55
2, 121680, Note_on_c, 0, 63, 54
2, 121680, Note_on_c, 0, 65, 54
2, 121859, Note_on_c, 0, 65, 0
2, 121859, Note_on_c, 0, 63, 0
2, 121860, Note_on_c, 0, 89, 0
2, 121860, Note_on_c, 0, 87, 0
2, 121860, Note_on_c, 0, 77, 39
2, 122040, Note_on_c, 0, 77, 0
2, 122220, Note_on_c, 0, 77, 50
2, 122309, Note_on_c, 0, 77, 0
2, 122400, Note_on_c, 0, 87, 70
2, 122400, Note_on_c, 0, 63, 46
2, 122400, Note_on_c, 0, 65, 46
2, 122579, Note_on_c, 0, 65, 0
2, 122579, Note_on_c, 0, 63, 0
2, 122580, Note_on_c, 0, 87, 0
2, 122580, Note_on_c, 0, 89, 57
2, 122760, Note_on_c, 0, 89, 0
2, 122760, Note_on_c, 0, 87, 56
2, 122760, Note_on_c, 0, 89, 56
2, 122760, Note_on_c, 0, 63, 53
2, 122760, Note_on_c, 0, 65, 53
2, 122939, Note_on_c, 0, 65, 0
2, 122939, Note_on_c, 0, 63, 0
2, 122940, Note_on_c, 0, 89, 0
2, 122940, Note_on_c, 0, 87, 0
2, 122940, Note_on_c, 0, 77, 31
2, 123120, Note_on_c, 0, 77, 0
2, 123300, Note_on_c, 0, 77, 49
2, 123389, Note_on_c, 0, 77, 0
2, 123480, Note_on_c, 0, 87, 68
2, 123480, Note_on_c, 0, 63, 50
2, 123480, Note_on_c, 0, 65, 50
2, 123659, Note_on_c, 0, 65, 0
2, 123659, Note_on_c, 0, 63, 0
2, 123660, Note_on_c, 0, 87, 0
2, 123660, Note_on_c, 0, 89, 61
2, 123840, Note_on_c, 0, 89, 0
2, 123840, Note_on_c, 0, 87, 58
2, 123840, Note_on_c, 0, 89, 58
2, 123840, Note_on_c, 0, 63, 63
2, 123840, Note_on_c, 0, 65, 63
2, 124019, Note_on_c, 0, 65, 0
2, 124019, Note_on_c, 0, 63, 0
2, 124020, Note_on_c, 0, 89, 0
2, 124020, Note_on_c, 0, 87, 0
2, 124020, Note_on_c, 0, 77, 43
2, 124200, Note_on_c, 0, 77, 0
2, 124380, Note_on_c, 0, 77, 51
2, 124469, Note_on_c, 0, 77, 0
2, 124560, Note_on_c, 0, 87, 67
2, 124560, Note_on_c, 0, 63, 50
2, 124560, Note_on_c, 0, 65, 50
2, 124739, Note_on_c, 0, 65, 0
2, 124739, Note_on_c, 0, 63, 0
2, 124740, Note_on_c, 0, 87, 0
2, 124740, Note_on_c, 0, 89, 68
2, 124920, Note_on_c, 0, 89, 0
2, 124920, Note_on_c, 0, 87, 59
2, 124920, Note_on_c, 0, 89, 59
2, 124920, Note_on_c, 0, 63, 56
2, 124920, Note_on_c, 0, 65, 56
2, 125099, Note_on_c, 0, 65, 0
2, 125099, Note_on_c, 0, 63, 0
2, 125100, Note_on_c, 0, 89, 0
2, 125100, Note_on_c, 0, 87, 0
2, 125100, Note_on_c, 0, 77, 41
2, 125280, Note_on_c, 0, 77, 0
2, 125460, Note_on_c, 0, 81, 50
2, 125549, Note_on_c, 0, 81, 0
2, 125640, Note_on_c, 0, 84, 54
2, 125640, Note_on_c, 0, 69, 47
2, 125640, Note_on_c, 0, 72, 47
2, 125819, Note_on_c, 0, 72, 0
2, 125819, Note_on_c, 0, 69, 0
2, 125820, Note_on_c, 0, 84, 0
2, 125820, Note_on_c, 0, 93, 76
2, 126000, Note_on_c, 0, 93, 0
2, 126000, Note_on_c, 0, 84, 63
2, 126000, Note_on_c, 0, 93, 63
2, 126000, Note_on_c, 0, 69, 53
2, 126000, Note_on_c, 0, 72, 53
2, 126179, Note_on_c, 0, 72, 0
2, 126179, Note_on_c, 0, 69, 0
2, 126180, Note_on_c, 0, 93, 0
2, 126180, Note_on_c, 0, 84, 0
2, 126180, Note_on_c, 0, 81, 37
2, 126360, Note_on_c, 0, 81, 0
2, 126540, Note_on_c, 0, 79, 51
2, 126629, Note_on_c, 0, 79, 0
2, 126720, Note_on_c, 0, 84, 63
2, 126720, Note_on_c, 0, 67, 45
2, 126720, Note_on_c, 0, 72, 45
2, 126899, Note_on_c, 0, 72, 0
2, 126899, Note_on_c, 0, 67, 0
2, 126900, Note_on_c, 0, 84, 0
2, 126900, Note_on_c, 0, 91, 65
2, 127080, Note_on_c, 0, 91, 0
2, 127080, Note_on_c, 0, 84, 56
2, 127080, Note_on_c, 0, 91, 56
2, 127080, Note_on_c, 0, 67, 59
2, 127080, Note_on_c, 0, 72, 59
2, 127259, Note_on_c, 0, 72, 0
2, 127259, Note_on_c, 0, 67, 0
2, 127260, Note_on_c, 0, 91, 0
2, 127260, Note_on_c, 0, 84, 0
2, 127260, Note_on_c, 0, 79, 37
2, 127440, Note_on_c, 0, 79, 0
2, 127620, Note_on_c, 0, 78, 52
2, 127709, Note_on_c, 0, 78, 0
2, 127800, Note_on_c, 0, 84, 64
2, 127800, Note_on_c, 0, 66, 50
2, 127800, Note_on_c, 0, 72, 50
2, 127979, Note_on_c, 0, 72, 0
2, 127979, Note_on_c, 0, 66, 0
2, 127980, Note_on_c, 0, 84, 0
2, 127980, Note_on_c, 0, 90, 69
2, 128160, Note_on_c, 0, 90, 0
2, 128160, Note_on_c, 0, 87, 60
2, 128160, Note_on_c, 0, 90, 60
2, 128160, Note_on_c, 0, 66, 60
2, 128160, Note_on_c, 0, 72, 60
2, 128339, Note_on_c, 0, 72, 0
2, 128339, Note_on_c, 0, 66, 0
2, 128340, Note_on_c, 0, 90, 0
2, 128340, Note_on_c, 0, 87, 0
2, 128340, Note_on_c, 0, 78, 35
2, 128520, Note_on_c, 0, 78, 0
2, 128700, Note_on_c, 0, 77, 46
2, 128789, Note_on_c, 0, 77, 0
2, 128880, Note_on_c, 0, 87, 68
2, 128880, Note_on_c, 0, 65, 48
2, 128880, Note_on_c, 0, 75, 48
2, 129059, Note_on_c, 0, 75, 0
2, 129059, Note_on_c, 0, 65, 0
2, 129060, Note_on_c, 0, 87, 0
2, 129060, Note_on_c, 0, 89, 63
2, 129240, Note_on_c, 0, 89, 0
2, 129240, Note_on_c, 0, 87, 54
2, 129240, Note_on_c, 0, 89, 54
2, 129240, Note_on_c, 0, 65, 55
2, 129240, Note_on_c, 0, 75, 55
2, 129419, Note_on_c, 0, 75, 0
2, 129419, Note_on_c, 0, 65, 0
2, 129420, Note_on_c, 0, 89, 0
2, 129420, Note_on_c, 0, 87, 0
2, 129420, Note_on_c, 0, 77, 41
2, 129600, Note_on_c, 0, 77, 0
2, 129780, Note_on_c, 0, 77, 51
2, 129869, Note_on_c, 0, 77, 0
2, 129960, Note_on_c, 0, 86, 67
2, 129960, Note_on_c, 0, 70, 50
2, 129960, Note_on_c, 0, 74, 50
2, 130139, Note_on_c, 0, 74, 0
2, 130139, Note_on_c, 0, 70, 0
2, 130140, Note_on_c, 0, 86, 0
2, 130140, Note_on_c, 0, 89, 61
2, 130320, Note_on_c, 0, 89, 0
2, 130320, Note_on_c, 0, 86, 56
2, 130320, Note_on_c, 0, 89, 56
2, 130320, Note_on_c, 0, 70, 56
2, 130320, Note_on_c, 0, 74, 56
2, 130499, Note_on_c, 0, 74, 0
2, 130499, Note_on_c, 0, 70, 0
2, 130500, Note_on_c, 0, 89, 0
2, 130500, Note_on_c, 0, 86, 0
2, 130500, Note_on_c, 0, 77, 38
2, 130680, Note_on_c, 0, 77, 0
2, 130860, Note_on_c, 0, 77, 47
2, 130949, Note_on_c, 0, 77, 0
2, 131040, Note_on_c, 0, 82, 66
2, 131040, Note_on_c, 0, 65, 53
2, 131040, Note_on_c, 0, 70, 53
2, 131219, Note_on_c, 0, 70, 0
2, 131219, Note_on_c, 0, 65, 0
2, 131220, Note_on_c, 0, 82, 0
2, 131220, Note_on_c, 0, 89, 65
2, 131400, Note_on_c, 0, 89, 0
2, 131400, Note_on_c, 0, 82, 58
2, 131400, Note_on_c, 0, 89, 58
2, 131400, Note_on_c, 0, 65, 52
2, 131400, Note_on_c, 0, 70, 52
2, 131579, Note_on_c, 0, 70, 0
2, 131579, Note_on_c, 0, 65, 0
2, 131580, Note_on_c, 0, 89, 0
2, 131580, Note_on_c, 0, 82, 0
2, 131580, Note_on_c, 0, 77, 40
2, 131760, Note_on_c, 0, 77, 0
2, 131940, Note_on_c, 0, 77, 48
2, 132029, Note_on_c, 0, 77, 0
2, 132120, Note_on_c, 0, 87, 69
2, 132120, Note_on_c, 0, 63, 52
2, 132120, Note_on_c, 0, 65, 52
2, 132299, Note_on_c, 0, 65, 0
2, 132299, Note_on_c, 0, 63, 0
2, 132300, Note_on_c, 0, 87, 0
2, 132300, Note_on_c, 0, 89, 62
2, 132480, Note_on_c, 0, 89, 0
2, 132480, Note_on_c, 0, 87, 55
2, 132480, Note_on_c, 0, 89, 55
2, 132480, Note_on_c, 0, 63, 58
2, 132480, Note_on_c, 0, 65, 58
2, 132659, Note_on_c, 0, 65, 0
2, 132659, Note_on_c, 0, 63, 0
2, 132660, Note_on_c, 0, 89, 0
2, 132660, Note_on_c, 0, 87, 0
2, 132660, Note_on_c, 0, 77, 34
2, 132840, Note_on_c, 0, 77, 0
2, 133020, Note_on_c, 0, 77, 50
2, 133109, Note_on_c, 0, 77, 0
2, 133200, Note_on_c, 0, 87, 74
2, 133200, Note_on_c, 0, 63, 52
2, 133200, Note_on_c, 0, 65, 52
2, 133379, Note_on_c, 0, 65, 0
2, 133379, Note_on_c, 0, 63, 0
2, 133380, Note_on_c, 0, 87, 0
2, 133380, Note_on_c, 0, 89, 64
2, 133560, Note_on_c, 0, 89, 0
2, 133560, Note_on_c, 0, 87, 60
2, 133560, Note_on_c, 0, 89, 60
2, 133560, Note_on_c, 0, 63, 54
2, 133560, Note_on_c, 0, 65, 54
2, 133739, Note_on_c, 0, 65, 0
2, 133739, Note_on_c, 0, 63, 0
2, 133740, Note_on_c, 0, 89, 0
2, 133740, Note_on_c, 0, 87, 0
2, 133740, Note_on_c, 0, 77, 39
2, 133920, Note_on_c, 0, 77, 0
2, 134100, Note_on_c, 0, 77, 54
2, 134189, Note_on_c, 0, 77, 0
2, 134280, Note_on_c, 0, 86, 70
2, 134280, Note_on_c, 0, 62, 50
2, 134280, Note_on_c, 0, 65, 50
2, 134459, Note_on_c, 0, 65, 0
2, 134459, Note_on_c, 0, 62, 0
2, 134460, Note_on_c, 0, 86, 0
2, 134460, Note_on_c, 0, 89, 65
2, 134640, Note_on_c, 0, 89, 0
2, 134640, Note_on_c, 0, 86, 51
2, 134640, Note_on_c, 0, 89, 51
2, 134640, Note_on_c, 0, 62, 57
2, 134640, Note_on_c, 0, 65, 57
2, 134819, Note_on_c, 0, 65, 0
2, 134819, Note_on_c, 0, 62, 0
2, 134820, Note_on_c, 0, 89, 0
2, 134820, Note_on_c, 0, 86, 0
2, 134820, Note_on_c, 0, 77, 40
2, 135000, Note_on_c, 0, 77, 0
2, 135180, Note_on_c, 0, 77, 50
2, 135269, Note_on_c, 0, 77, 0
2, 135360, Note_on_c, 0, 86, 69
2, 135360, Note_on_c, 0, 62, 50
2, 135360, Note_on_c, 0, 65, 50
2, 135539, Note_on_c, 0, 65, 0
2, 135539, Note_on_c, 0, 62, 0
2, 135540, Note_on_c, 0, 86, 0
2, 135540, Note_on_c, 0, 89, 64
2, 135720, Note_on_c, 0, 89, 0
2, 135720, Note_on_c, 0, 86, 60
2, 135720, Note_on_c, 0, 89, 60
2, 135720, Note_on_c, 0, 62, 54
2, 135720, Note_on_c, 0, 65, 54
2, 135899, Note_on_c, 0, 65, 0
2, 135899, Note_on_c, 0, 62, 0
2, 135900, Note_on_c, 0, 89, 0
2, 135900, Note_on_c, 0, 86, 0
2, 135900, Note_on_c, 0, 77, 39
2, 136080, Note_on_c, 0, 77, 0
2, 136260, Note_on_c, 0, 77, 51
2, 136349, Note_on_c, 0, 77, 0
2, 136440, Note_on_c, 0, 86, 69
2, 136440, Note_on_c, 0, 62, 51
2, 136440, Note_on_c, 0, 65, 51
2, 136619, Note_on_c, 0, 65, 0
2, 136619, Note_on_c, 0, 62, 0
2, 136620, Note_on_c, 0, 86, 0
2, 136620, Note_on_c, 0, 89, 64
2, 136800, Note_on_c, 0, 89, 0
2, 136800, Note_on_c, 0, 86, 59
2, 136800, Note_on_c, 0, 89, 59
2, 136800, Note_on_c, 0, 62, 54
2, 136800, Note_on_c, 0, 65, 54
2, 136979, Note_on_c, 0, 65, 0
2, 136979, Note_on_c, 0, 62, 0
2, 136980, Note_on_c, 0, 89, 0
2, 136980, Note_on_c, 0, 86, 0
2, 136980, Note_on_c, 0, 77, 44
2, 137160, Note_on_c, 0, 77, 0
2, 137340, Note_on_c, 0, 77, 51
2, 137429, Note_on_c, 0, 77, 0
2, 137520, Note_on_c, 0, 86, 64
2, 137520, Note_on_c, 0, 62, 45
2, 137520, Note_on_c, 0, 65, 45
2, 137699, Note_on_c, 0, 65, 0
2, 137699, Note_on_c, 0, 62, 0
2, 137700, Note_on_c, 0, 86, 0
2, 137700, Note_on_c, 0, 89, 63
2, 137880, Note_on_c, 0, 89, 0
2, 137880, Note_on_c, 0, 86, 56
2, 137880, Note_on_c, 0, 89, 56
2, 137880, Note_on_c, 0, 62, 54
2, 137880, Note_on_c, 0, 65, 54
2, 138059, Note_on_c, 0, 65, 0
2, 138059, Note_on_c, 0, 62, 0
2, 138060, Note_on_c, 0, 89, 0
2, 138060, Note_on_c, 0, 86, 0
2, 138060, Note_on_c, 0, 77, 37
2, 138240, Note_on_c, 0, 77, 0
2, 138420, Note_on_c, 0, 79, 50
2, 138509, Note_on_c, 0, 79, 0
2, 138600, Note_on_c, 0, 84, 61
2, 138600, Note_on_c, 0, 63, 48
2, 138600, Note_on_c, 0, 67, 48
2, 138779, Note_on_c, 0, 67, 0
2, 138779, Note_on_c, 0, 63, 0
2, 138780, Note_on_c, 0, 84, 0
2, 138780, Note_on_c, 0, 91, 65
2, 138960, Note_on_c, 0, 91, 0
2, 138960, Note_on_c, 0, 84, 60
2, 138960, Note_on_c, 0, 91, 60
2, 138960, Note_on_c, 0, 63, 57
2, 138960, Note_on_c, 0, 67, 57
2, 139139, Note_on_c, 0, 67, 0
2, 139139, Note_on_c, 0, 63, 0
2, 139140, Note_on_c, 0, 91, 0
2, 139140, Note_on_c, 0, 84, 0
2, 139140, Note_on_c, 0, 79, 40
2, 139320, Note_on_c, 0, 79, 0
2, 139500, Note_on_c, 0, 79, 49
2, 139589, Note_on_c, 0, 79, 0
2, 139680, Note_on_c, 0, 86, 69
2, 139680, Note_on_c, 0, 65, 51
2, 139680, Note_on_c, 0, 74, 51
2, 139859, Note_on_c, 0, 74, 0
2, 139859, Note_on_c, 0, 65, 0
2, 139860, Note_on_c, 0, 86, 0
2, 139860, Note_on_c, 0, 91, 66
2, 140040, Note_on_c, 0, 91, 0
2, 140040, Note_on_c, 0, 86, 59
2, 140040, Note_on_c, 0, 91, 59
2, 140040, Note_on_c, 0, 65, 59
2, 140040, Note_on_c, 0, 74, 59
2, 140219, Note_on_c, 0, 74, 0
2, 140219, Note_on_c, 0, 65, 0
2, 140220, Note_on_c, 0, 91, 0
2, 140220, Note_on_c, 0, 86, 0
2, 140220, Note_on_c, 0, 79, 39
2, 140400, Note_on_c, 0, 79, 0
2, 140400, Note_on_c, 0, 79, 72
2, 140400, Note_on_c, 0, 84, 72
2, 140400, Note_on_c, 0, 91, 72
2, 140400, Note_on_c, 0, 67, 58
2, 140400, Note_on_c, 0, 75, 58
2, 140489, Note_on_c, 0, 75, 0
2, 140489, Note_on_c, 0, 91, 0
2, 140489, Note_on_c, 0, 79, 0
2, 140489, Note_on_c, 0, 84, 0
2, 140489, Note_on_c, 0, 67, 0
2, 141480, Note_on_c, 0, 67, 51
2, 141660, Note_on_c, 0, 67, 0
2, 141660, Note_on_c, 0, 66, 58
2, 141840, Note_on_c, 0, 66, 0
2, 141840, Note_on_c, 0, 67, 58
2, 142020, Note_on_c, 0, 67, 0
2, 142020, Note_on_c, 0, 71, 63
2, 142200, Note_on_c, 0, 71, 0
2, 142200, Note_on_c, 0, 72, 56
2, 142380, Note_on_c, 0, 72, 0
2, 142380, Note_on_c, 0, 75, 57
2, 142560, Note_on_c, 0, 75, 0
2, 142560, Note_on_c, 0, 78, 59
2, 142560, Note_on_c, 0, 66, 52
2, 143280, Note_on_c, 0, 66, 0
2, 143280, Note_on_c, 0, 78, 0
2, 143280, Note_on_c, 0, 79, 57
2, 143280, Note_on_c, 0, 67, 58
2, 144000, Note_on_c, 0, 67, 0
2, 144000, Note_on_c, 0, 79, 0
2, 144000, Note_on_c, 0, 81, 59
2, 144000, Note_on_c, 0, 69, 63
2, 144720, Note_on_c, 0, 69, 0
2, 144720, Note_on_c, 0, 81, 0
2, 144720, Note_on_c, 0, 84, 63
2, 144720, Note_on_c, 0, 72, 61
2, 145440, Note_on_c, 0, 72, 0
2, 145440, Note_on_c, 0, 84, 0
2, 145440, Note_on_c, 0, 82, 51
2, 145440, Note_on_c, 0, 70, 51
2, 146160, Note_on_c, 0, 70, 0
2, 146160, Note_on_c, 0, 82, 0
2, 146160, Note_on_c, 0, 86, 57
2, 146160, Note_on_c, 0, 74, 60
2, 146880, Note_on_c, 0, 74, 0
2, 146880, Note_on_c, 0, 86, 0
2, 146880, Note_on_c, 0, 87, 61
2, 146880, Note_on_c, 0, 75, 56
2, 147600, Note_on_c, 0, 75, 0
2, 147600, Note_on_c, 0, 87, 0
2, 147600, Note_on_c, 0, 86, 54
2, 147600, Note_on_c, 0, 74, 53
2, 148320, Note_on_c, 0, 74, 0
2, 148320, Note_on_c, 0, 86, 0
2, 148320, Note_on_c, 0, 84, 50
2, 148320, Note_on_c, 0, 72, 53
2, 149040, Note_on_c, 0, 72, 0
2, 149040, Note_on_c, 0, 84, 0
2, 149040, Note_on_c, 0, 82, 48
2, 149040, Note_on_c, 0, 70, 52
2, 149220, Note_on_c, 0, 70, 0
2, 149220, Note_on_c, 0, 82, 0
2, 149400, Note_on_c, 0, 81, 56
2, 149580, Note_on_c, 0, 81, 0
2, 149580, Note_on_c, 0, 82, 59
2, 149760, Note_on_c, 0, 82, 0
2, 149760, Note_on_c, 0, 77, 46
2, 149940, Note_on_c, 0, 77, 0
2, 149940, Note_on_c, 0, 74, 45
2, 150120, Note_on_c, 0, 74, 0
2, 155160, Note_on_c, 0, 82, 57
2, 155477, Note_on_c, 0, 82, 0
2, 155520, Note_on_c, 0, 89, 62
2, 156240, Note_on_c, 0, 89, 0
2, 156240, Note_on_c, 0, 82, 50
2, 156240, Note_on_c, 0, 70, 60
2, 156557, Note_on_c, 0, 70, 0
2, 156600, Note_on_c, 0, 82, 0
2, 156600, Note_on_c, 0, 77, 69
2, 157320, Note_on_c, 0, 77, 0
2, 157320, Note_on_c, 0, 82, 64
2, 157320, Note_on_c, 0, 70, 44
2, 157637, Note_on_c, 0, 82, 0
2, 157680, Note_on_c, 0, 70, 0
2, 157680, Note_on_c, 0, 87, 64
2, 158400, Note_on_c, 0, 87, 0
2, 158400, Note_on_c, 0, 82, 47
2, 158400, Note_on_c, 0, 70, 58
2, 158717, Note_on_c, 0, 70, 0
2, 158760, Note_on_c, 0, 82, 0
2, 158760, Note_on_c, 0, 75, 62
2, 159480, Note_on_c, 0, 75, 0
2, 159480, Note_on_c, 0, 79, 63
2, 159480, Note_on_c, 0, 70, 47
2, 159797, Note_on_c, 0, 79, 0
2, 159840, Note_on_c, 0, 70, 0
2, 159840, Note_on_c, 0, 82, 61
2, 160200, Note_on_c, 0, 82, 0
2, 160200, Note_on_c, 0, 77, 47
2, 160560, Note_on_c, 0, 77, 0
2, 160560, Note_on_c, 0, 84, 66
2, 160560, Note_on_c, 0, 70, 47
2, 160920, Note_on_c, 0, 70, 0
2, 160920, Note_on_c, 0, 84, 0
2, 160920, Note_on_c, 0, 82, 56
2, 160920, Note_on_c, 0, 69, 49
2, 161280, Note_on_c, 0, 69, 0
2, 161280, Note_on_c, 0, 82, 0
2, 161280, Note_on_c, 0, 77, 45
2, 161640, Note_on_c, 0, 77, 0
2, 161640, Note_on_c, 0, 84, 61
2, 161640, Note_on_c, 0, 72, 45
2, 162000, Note_on_c, 0, 72, 0
2, 162000, Note_on_c, 0, 84, 0
2, 162000, Note_on_c, 0, 82, 51
2, 162000, Note_on_c, 0, 70, 51
2, 162360, Note_on_c, 0, 70, 0
2, 162360, Note_on_c, 0, 82, 0
2, 162360, Note_on_c, 0, 78, 49
2, 162720, Note_on_c, 0, 78, 0
2, 162720, Note_on_c, 0, 79, 52
2, 163080, Note_on_c, 0, 79, 0
2, 163080, Note_on_c, 0, 74, 48
2, 163440, Note_on_c, 0, 74, 0
2, 163440, Note_on_c, 0, 75, 61
2, 163800, Note_on_c, 0, 75, 0
2, 163800, Note_on_c, 0, 82, 80
2, 164117, Note_on_c, 0, 82, 0
2, 164160, Note_on_c, 0, 89, 69
2, 164880, Note_on_c, 0, 89, 0
2, 164880, Note_on_c, 0, 82, 45
2, 164880, Note_on_c, 0, 70, 60
2, 165197, Note_on_c, 0, 70, 0
2, 165240, Note_on_c, 0, 82, 0
2, 165240, Note_on_c, 0, 77, 65
2, 165960, Note_on_c, 0, 77, 0
2, 165960, Note_on_c, 0, 82, 61
2, 165960, Note_on_c, 0, 70, 43
2, 166277, Note_on_c, 0, 82, 0
2, 166320, Note_on_c, 0, 70, 0
2, 166320, Note_on_c, 0, 87, 66
2, 167040, Note_on_c, 0, 87, 0
2, 167040, Note_on_c, 0, 82, 46
2, 167040, Note_on_c, 0, 70, 59
2, 167357, Note_on_c, 0, 70, 0
2, 167400, Note_on_c, 0, 82, 0
2, 167400, Note_on_c, 0, 75, 65
2, 168120, Note_on_c, 0, 75, 0
2, 168120, Note_on_c, 0, 82, 63
2, 168120, Note_on_c, 0, 70, 44
2, 168437, Note_on_c, 0, 82, 0
2, 168480, Note_on_c, 0, 70, 0
2, 168480, Note_on_c, 0, 86, 64
2, 168480, Note_on_c, 0, 74, 61
2, 168840, Note_on_c, 0, 74, 0
2, 168840, Note_on_c, 0, 86, 0
2, 168840, Note_on_c, 0, 84, 50
2, 168840, Note_on_c, 0, 72, 52
2, 169200, Note_on_c, 0, 72, 0
2, 169200, Note_on_c, 0, 84, 0
2, 169200, Note_on_c, 0, 82, 46
2, 169200, Note_on_c, 0, 70, 47
2, 169560, Note_on_c, 0, 70, 0
2, 169560, Note_on_c, 0, 82, 0
2, 169560, Note_on_c, 0, 81, 60
2, 169560, Note_on_c, 0, 69, 53
2, 169920, Note_on_c, 0, 69, 0
2, 169920, Note_on_c, 0, 81, 0
2, 169920, Note_on_c, 0, 87, 61
2, 169920, Note_on_c, 0, 75, 66
2, 170280, Note_on_c, 0, 75, 0
2, 170280, Note_on_c, 0, 87, 0
2, 170280, Note_on_c, 0, 86, 52
2, 170280, Note_on_c, 0, 74, 50
2, 170640, Note_on_c, 0, 74, 0
2, 170640, Note_on_c, 0, 86, 0
2, 170640, Note_on_c, 0, 79, 45
2, 170640, Note_on_c, 0, 67, 40
2, 170820, Note_on_c, 0, 67, 0
2, 170820, Note_on_c, 0, 79, 0
2, 171900, Note_on_c, 0, 74, 52
2, 172080, Note_on_c, 0, 74, 0
2, 172080, Note_on_c, 0, 78, 58
2, 172260, Note_on_c, 0, 78, 0
2, 172260, Note_on_c, 0, 79, 59
2, 172440, Note_on_c, 0, 79, 0
2, 172440, Note_on_c, 0, 81, 44
2, 172620, Note_on_c, 0, 81, 0
2, 172620, Note_on_c, 0, 82, 45
2, 172800, Note_on_c, 0, 82, 0
2, 172800, Note_on_c, 0, 89, 56
2, 173520, Note_on_c, 0, 89, 0
2, 173520, Note_on_c, 0, 82, 40
2, 173520, Note_on_c, 0, 70, 62
2, 173837, Note_on_c, 0, 70, 0
2, 173880, Note_on_c, 0, 82, 0
2, 173880, Note_on_c, 0, 77, 63
2, 174600, Note_on_c, 0, 77, 0
2, 174600, Note_on_c, 0, 82, 49
2, 174600, Note_on_c, 0, 70, 49
2, 174917, Note_on_c, 0, 82, 0
2, 174960, Note_on_c, 0, 70, 0
2, 174960, Note_on_c, 0, 87, 48
2, 175680, Note_on_c, 0, 87, 0
2, 175680, Note_on_c, 0, 82, 39
2, 175680, Note_on_c, 0, 70, 67
2, 175997, Note_on_c, 0, 70, 0
2, 176040, Note_on_c, 0, 82, 0
2, 176040, Note_on_c, 0, 75, 65
2, 176760, Note_on_c, 0, 75, 0
2, 176760, Note_on_c, 0, 79, 52
2, 176760, Note_on_c, 0, 70, 46
2, 177077, Note_on_c, 0, 79, 0
2, 177120, Note_on_c, 0, 70, 0
2, 177120, Note_on_c, 0, 82, 49
2, 177480, Note_on_c, 0, 82, 0
2, 177480, Note_on_c, 0, 77, 37
2, 177840, Note_on_c, 0, 77, 0
2, 177840, Note_on_c, 0, 84, 56
2, 177840, Note_on_c, 0, 72, 46
2, 178200, Note_on_c, 0, 72, 0
2, 178200, Note_on_c, 0, 84, 0
2, 178200, Note_on_c, 0, 82, 41
2, 178200, Note_on_c, 0, 70, 49
2, 178560, Note_on_c, 0, 70, 0
2, 178560, Note_on_c, 0, 82, 0
2, 178560, Note_on_c, 0, 77, 38
2, 178920, Note_on_c, 0, 77, 0
2, 178920, Note_on_c, 0, 84, 56
2, 178920, Note_on_c, 0, 72, 51
2, 179280, Note_on_c, 0, 72, 0
2, 179280, Note_on_c, 0, 84, 0
2, 179280, Note_on_c, 0, 82, 44
2, 179280, Note_on_c, 0, 70, 51
2, 179640, Note_on_c, 0, 70, 0
2, 179640, Note_on_c, 0, 82, 0
2, 179640, Note_on_c, 0, 78, 43
2, 180000, Note_on_c, 0, 78, 0
2, 180000, Note_on_c, 0, 79, 54
2, 180360, Note_on_c, 0, 79, 0
2, 180360, Note_on_c, 0, 74, 40
2, 180720, Note_on_c, 0, 74, 0
2, 180720, Note_on_c, 0, 75, 41
2, 181080, Note_on_c, 0, 75, 0
2, 181080, Note_on_c, 0, 82, 64
2, 181397, Note_on_c, 0, 82, 0
2, 181440, Note_on_c, 0, 89, 60
2, 182160, Note_on_c, 0, 89, 0
2, 182160, Note_on_c, 0, 82, 42
2, 182160, Note_on_c, 0, 70, 64
2, 182477, Note_on_c, 0, 70, 0
2, 182520, Note_on_c, 0, 82, 0
2, 182520, Note_on_c, 0, 77, 63
2, 183240, Note_on_c, 0, 77, 0
2, 183240, Note_on_c, 0, 82, 53
2, 183240, Note_on_c, 0, 70, 43
2, 183557, Note_on_c, 0, 82, 0
2, 183600, Note_on_c, 0, 70, 0
2, 183600, Note_on_c, 0, 87, 51
2, 184320, Note_on_c, 0, 87, 0
2, 184320, Note_on_c, 0, 82, 39
2, 184320, Note_on_c, 0, 70, 66
2, 184637, Note_on_c, 0, 70, 0
2, 184680, Note_on_c, 0, 82, 0
2, 184680, Note_on_c, 0, 75, 63
2, 185400, Note_on_c, 0, 75, 0
2, 185400, Note_on_c, 0, 70, 45
2, 185717, Note_on_c, 0, 70, 0
2, 185760, Note_on_c, 0, 72, 48
2, 186120, Note_on_c, 0, 72, 0
2, 186120, Note_on_c, 0, 70, 50
2, 186120, Note_on_c, 0, 63, 48
2, 186120, Note_on_c, 0, 67, 48
2, 186299, Note_on_c, 0, 67, 0
2, 186299, Note_on_c, 0, 63, 0
2, 186480, Note_on_c, 0, 70, 0
2, 186480, Note_on_c, 0, 69, 53
2, 186480, Note_on_c, 0, 63, 54
2, 186480, Note_on_c, 0, 67, 54
2, 186659, Note_on_c, 0, 67, 0
2, 186659, Note_on_c, 0, 63, 0
2, 186840, Note_on_c, 0, 69, 0
2, 186840, Note_on_c, 0, 67, 55
2, 187200, Note_on_c, 0, 67, 0
2, 187200, Note_on_c, 0, 69, 58
2, 187200, Note_on_c, 0, 63, 45
2, 187200, Note_on_c, 0, 67, 45
2, 187379, Note_on_c, 0, 67, 0
2, 187379, Note_on_c, 0, 63, 0
2, 187560, Note_on_c, 0, 69, 0
2, 187560, Note_on_c, 0, 70, 61
2, 187560, Note_on_c, 0, 63, 54
2, 187560, Note_on_c, 0, 67, 54
2, 187739, Note_on_c, 0, 67, 0
2, 187739, Note_on_c, 0, 63, 0
2, 187920, Note_on_c, 0, 70, 0
2, 187920, Note_on_c, 0, 72, 63
2, 188280, Note_on_c, 0, 72, 0
2, 188280, Note_on_c, 0, 70, 66
2, 188280, Note_on_c, 0, 63, 52
2, 188280, Note_on_c, 0, 67, 52
2, 188459, Note_on_c, 0, 67, 0
2, 188459, Note_on_c, 0, 63, 0
2, 188640, Note_on_c, 0, 70, 0
2, 188640, Note_on_c, 0, 69, 68
2, 188640, Note_on_c, 0, 63, 55
2, 188640, Note_on_c, 0, 67, 55
2, 188819, Note_on_c, 0, 67, 0
2, 188819, Note_on_c, 0, 63, 0
2, 189000, Note_on_c, 0, 69, 0
2, 189000, Note_on_c, 0, 74, 105
2, 189000, Note_on_c, 0, 66, 59
2, 189000, Note_on_c, 0, 69, 59
2, 189089, Note_on_c, 0, 69, 0
2, 189089, Note_on_c, 0, 66, 0
2, 189180, Note_on_c, 0, 74, 0
2, 189360, Note_on_c, 0, 75, 77
2, 189360, Note_on_c, 0, 65, 46
2, 189360, Note_on_c, 0, 69, 46
2, 189449, Note_on_c, 0, 69, 0
2, 189449, Note_on_c, 0, 65, 0
2, 189540, Note_on_c, 0, 75, 0
2, 189720, Note_on_c, 0, 65, 45
2, 189840, Note_on_c, 0, 65, 0
2, 189840, Note_on_c, 0, 67, 56
2, 189959, Note_on_c, 0, 67, 0
2, 189959, Note_on_c, 0, 69, 60
2, 190080, Note_on_c, 0, 69, 0
2, 190080, Note_on_c, 0, 70, 60
2, 190440, Note_on_c, 0, 62, 51
2, 190440, Note_on_c, 0, 65, 51
2, 190619, Note_on_c, 0, 65, 0
2, 190619, Note_on_c, 0, 62, 0
2, 190800, Note_on_c, 0, 62, 53
2, 190800, Note_on_c, 0, 65, 53
2, 190979, Note_on_c, 0, 65, 0
2, 190979, Note_on_c, 0, 62, 0
2, 191160, Note_on_c, 0, 70, 0
2, 191160, Note_on_c, 0, 69, 53
2, 191520, Note_on_c, 0, 62, 47
2, 191520, Note_on_c, 0, 65, 47
2, 191699, Note_on_c, 0, 65, 0
2, 191699, Note_on_c, 0, 62, 0
2, 191880, Note_on_c, 0, 62, 57
2, 191880, Note_on_c, 0, 65, 57
2, 192059, Note_on_c, 0, 65, 0
2, 192059, Note_on_c, 0, 62, 0
2, 192240, Note_on_c, 0, 69, 0
2, 192240, Note_on_c, 0, 70, 61
2, 192600, Note_on_c, 0, 62, 48
2, 192600, Note_on_c, 0, 65, 48
2, 192779, Note_on_c, 0, 65, 0
2, 192779, Note_on_c, 0, 62, 0
2, 192960, Note_on_c, 0, 70, 0
2, 192960, Note_on_c, 0, 67, 49
2, 192960, Note_on_c, 0, 62, 57
2, 192960, Note_on_c, 0, 65, 57
2, 193139, Note_on_c, 0, 65, 0
2, 193139, Note_on_c, 0, 62, 0
2, 193320, Note_on_c, 0, 67, 0
2, 193320, Note_on_c, 0, 69, 59
2, 193680, Note_on_c, 0, 69, 0
2, 193680, Note_on_c, 0, 70, 61
2, 193680, Note_on_c, 0, 62, 49
2, 193680, Note_on_c, 0, 65, 49
2, 193859, Note_on_c, 0, 65, 0
2, 193859, Note_on_c, 0, 62, 0
2, 194040, Note_on_c, 0, 70, 0
2, 194040, Note_on_c, 0, 67, 45
2, 194040, Note_on_c, 0, 62, 58
2, 194040, Note_on_c, 0, 65, 58
2, 194219, Note_on_c, 0, 65, 0
2, 194219, Note_on_c, 0, 62, 0
2, 194400, Note_on_c, 0, 67, 0
2, 194400, Note_on_c, 0, 69, 62
2, 194760, Note_on_c, 0, 63, 50
2, 194760, Note_on_c, 0, 65, 50
2, 194939, Note_on_c, 0, 65, 0
2, 194939, Note_on_c, 0, 63, 0
2, 195120, Note_on_c, 0, 69, 0
2, 195120, Note_on_c, 0, 72, 57
2, 195120, Note_on_c, 0, 63, 57
2, 195120, Note_on_c, 0, 65, 57
2, 195299, Note_on_c, 0, 65, 0
2, 195299, Note_on_c, 0, 63, 0
2, 195480, Note_on_c, 0, 72, 0
2, 195480, Note_on_c, 0, 74, 62
2, 195840, Note_on_c, 0, 63, 48
2, 195840, Note_on_c, 0, 65, 48
2, 196019, Note_on_c, 0, 65, 0
2, 196019, Note_on_c, 0, 63, 0
2, 196200, Note_on_c, 0, 74, 0
2, 196200, Note_on_c, 0, 71, 51
2, 196200, Note_on_c, 0, 63, 57
2, 196200, Note_on_c, 0, 65, 57
2, 196379, Note_on_c, 0, 65, 0
2, 196379, Note_on_c, 0, 63, 0
2, 196560, Note_on_c, 0, 71, 0
2, 196560, Note_on_c, 0, 72, 59
2, 196920, Note_on_c, 0, 63, 46
2, 196920, Note_on_c, 0, 65, 46
2, 197099, Note_on_c, 0, 65, 0
2, 197099, Note_on_c, 0, 63, 0
2, 197280, Note_on_c, 0, 63, 63
2, 197280, Note_on_c, 0, 65, 63
2, 197459, Note_on_c, 0, 65, 0
2, 197459, Note_on_c, 0, 63, 0
2, 198000, Note_on_c, 0, 63, 50
2, 198000, Note_on_c, 0, 65, 50
2, 198179, Note_on_c, 0, 65, 0
2, 198179, Note_on_c, 0, 63, 0
2, 198360, Note_on_c, 0, 63, 57
2, 198360, Note_on_c, 0, 65, 57
2, 198539, Note_on_c, 0, 65, 0
2, 198539, Note_on_c, 0, 63, 0
2, 198720, Note_on_c, 0, 72, 0
2, 198720, Note_on_c, 0, 77, 102
2, 199080, Note_on_c, 0, 69, 49
2, 199080, Note_on_c, 0, 72, 49
2, 199259, Note_on_c, 0, 72, 0
2, 199259, Note_on_c, 0, 69, 0
2, 199440, Note_on_c, 0, 69, 58
2, 199440, Note_on_c, 0, 72, 58
2, 199619, Note_on_c, 0, 72, 0
2, 199619, Note_on_c, 0, 69, 0
2, 199800, Note_on_c, 0, 77, 0
2, 199800, Note_on_c, 0, 76, 91
2, 200160, Note_on_c, 0, 67, 46
2, 200160, Note_on_c, 0, 72, 46
2, 200339, Note_on_c, 0, 72, 0
2, 200339, Note_on_c, 0, 67, 0
2, 200520, Note_on_c, 0, 67, 56
2, 200520, Note_on_c, 0, 72, 56
2, 200699, Note_on_c, 0, 72, 0
2, 200699, Note_on_c, 0, 67, 0
2, 200880, Note_on_c, 0, 76, 0
2, 200880, Note_on_c, 0, 75, 86
2, 201240, Note_on_c, 0, 66, 51
2, 201240, Note_on_c, 0, 72, 51
2, 201419, Note_on_c, 0, 72, 0
2, 201419, Note_on_c, 0, 66, 0
2, 201600, Note_on_c, 0, 75, 0
2, 201600, Note_on_c, 0, 72, 80
2, 201600, Note_on_c, 0, 66, 44
2, 201779, Note_on_c, 0, 66, 0
2, 201960, Note_on_c, 0, 72, 0
2, 201960, Note_on_c, 0, 75, 99
2, 202320, Note_on_c, 0, 75, 0
2, 202320, Note_on_c, 0, 74, 91
2, 202320, Note_on_c, 0, 63, 47
2, 202320, Note_on_c, 0, 65, 47
2, 202499, Note_on_c, 0, 65, 0
2, 202499, Note_on_c, 0, 63, 0
2, 202680, Note_on_c, 0, 74, 0
2, 202680, Note_on_c, 0, 72, 83
2, 202680, Note_on_c, 0, 63, 55
2, 202680, Note_on_c, 0, 65, 55
2, 202859, Note_on_c, 0, 65, 0
2, 202859, Note_on_c, 0, 63, 0
2, 203040, Note_on_c, 0, 72, 0
2, 203040, Note_on_c, 0, 79, 112
2, 203400, Note_on_c, 0, 70, 48
2, 203400, Note_on_c, 0, 74, 48
2, 203579, Note_on_c, 0, 74, 0
2, 203579, Note_on_c, 0, 70, 0
2, 203760, Note_on_c, 0, 79, 0
2, 203760, Note_on_c, 0, 77, 89
2, 203760, Note_on_c, 0, 70, 55
2, 203760, Note_on_c, 0, 74, 55
2, 203939, Note_on_c, 0, 74, 0
2, 203939, Note_on_c, 0, 70, 0
2, 204120, Note_on_c, 0, 77, 0
2, 204120, Note_on_c, 0, 75, 89
2, 204480, Note_on_c, 0, 65, 49
2, 204480, Note_on_c, 0, 70, 49
2, 204659, Note_on_c, 0, 70, 0
2, 204659, Note_on_c, 0, 65, 0
2, 204840, Note_on_c, 0, 75, 0
2, 204840, Note_on_c, 0, 74, 87
2, 204840, Note_on_c, 0, 65, 53
2, 204840, Note_on_c, 0, 70, 53
2, 205019, Note_on_c, 0, 70, 0
2, 205019, Note_on_c, 0, 65, 0
2, 205200, Note_on_c, 0, 74, 0
2, 205200, Note_on_c, 0, 74, 91
2, 205560, Note_on_c, 0, 74, 0
2, 205560, Note_on_c, 0, 72, 84
2, 205560, Note_on_c, 0, 63, 52
2, 205560, Note_on_c, 0, 65, 52
2, 205739, Note_on_c, 0, 65, 0
2, 205739, Note_on_c, 0, 63, 0
2, 205920, Note_on_c, 0, 72, 0
2, 205920, Note_on_c, 0, 71, 87
2, 205920, Note_on_c, 0, 63, 57
2, 205920, Note_on_c, 0, 65, 57
2, 206099, Note_on_c, 0, 65, 0
2, 206099, Note_on_c, 0, 63, 0
2, 206280, Note_on_c, 0, 71, 0
2, 206280, Note_on_c, 0, 72, 100
2, 206640, Note_on_c, 0, 72, 0
2, 206640, Note_on_c, 0, 67, 81
2, 206640, Note_on_c, 0, 63, 51
2, 206640, Note_on_c, 0, 65, 51
2, 206819, Note_on_c, 0, 65, 0
2, 206819, Note_on_c, 0, 63, 0
2, 207000, Note_on_c, 0, 67, 0
2, 207000, Note_on_c, 0, 69, 98
2, 207000, Note_on_c, 0, 63, 52
2, 207000, Note_on_c, 0, 65, 52
2, 207179, Note_on_c, 0, 65, 0
2, 207179, Note_on_c, 0, 63, 0
2, 207360, Note_on_c, 0, 69, 0
2, 207360, Note_on_c, 0, 70, 94
2, 207720, Note_on_c, 0, 62, 46
2, 207720, Note_on_c, 0, 65, 46
2, 207899, Note_on_c, 0, 65, 0
2, 207899, Note_on_c, 0, 62, 0
2, 208080, Note_on_c, 0, 62, 52
2, 208080, Note_on_c, 0, 65, 52
2, 208259, Note_on_c, 0, 65, 0
2, 208259, Note_on_c, 0, 62, 0
2, 208440, Note_on_c, 0, 70, 0
2, 208440, Note_on_c, 0, 69, 91
2, 208800, Note_on_c, 0, 62, 47
2, 208800, Note_on_c, 0, 65, 47
2, 208979, Note_on_c, 0, 65, 0
2, 208979, Note_on_c, 0, 62, 0
2, 209160, Note_on_c, 0, 62, 58
2, 209160, Note_on_c, 0, 65, 58
2, 209339, Note_on_c, 0, 65, 0
2, 209339, Note_on_c, 0, 62, 0
2, 209520, Note_on_c, 0, 69, 0
2, 209520, Note_on_c, 0, 70, 100
2, 209880, Note_on_c, 0, 62, 47
2, 209880, Note_on_c, 0, 65, 47
2, 210059, Note_on_c, 0, 65, 0
2, 210059, Note_on_c, 0, 62, 0
2, 210240, Note_on_c, 0, 70, 0
2, 210240, Note_on_c, 0, 67, 79
2, 210240, Note_on_c, 0, 62, 53
2, 210240, Note_on_c, 0, 65, 53
2, 210419, Note_on_c, 0, 65, 0
2, 210419, Note_on_c, 0, 62, 0
2, 210600, Note_on_c, 0, 67, 0
2, 210600, Note_on_c, 0, 69, 100
2, 210960, Note_on_c, 0, 69, 0
2, 210960, Note_on_c, 0, 70, 94
2, 210960, Note_on_c, 0, 62, 49
2, 210960, Note_on_c, 0, 65, 49
2, 211139, Note_on_c, 0, 65, 0
2, 211139, Note_on_c, 0, 62, 0
2, 211320, Note_on_c, 0, 70, 0
2, 211320, Note_on_c, 0, 67, 88
2, 211320, Note_on_c, 0, 62, 59
2, 211320, Note_on_c, 0, 65, 59
2, 211499, Note_on_c, 0, 65, 0
2, 211499, Note_on_c, 0, 62, 0
2, 211680, Note_on_c, 0, 67, 0
2, 211680, Note_on_c, 0, 69, 91
2, 212040, Note_on_c, 0, 65, 47
2, 212219, Note_on_c, 0, 65, 0
2, 212400, Note_on_c, 0, 69, 0
2, 212400, Note_on_c, 0, 72, 104
2, 212400, Note_on_c, 0, 65, 65
2, 212400, Note_on_c, 0, 69, 65
2, 212579, Note_on_c, 0, 69, 0
2, 212579, Note_on_c, 0, 65, 0
2, 212760, Note_on_c, 0, 72, 0
2, 212760, Note_on_c, 0, 72, 94
2, 213120, Note_on_c, 0, 65, 53
2, 213120, Note_on_c, 0, 68, 53
2, 213299, Note_on_c, 0, 68, 0
2, 213299, Note_on_c, 0, 65, 0
2, 213480, Note_on_c, 0, 72, 0
2, 213480, Note_on_c, 0, 71, 88
2, 213480, Note_on_c, 0, 65, 57
2, 213480, Note_on_c, 0, 68, 57
2, 213659, Note_on_c, 0, 68, 0
2, 213659, Note_on_c, 0, 65, 0
2, 213840, Note_on_c, 0, 71, 0
2, 213840, Note_on_c, 0, 72, 97
2, 214200, Note_on_c, 0, 65, 47
2, 214200, Note_on_c, 0, 69, 47
2, 214379, Note_on_c, 0, 69, 0
2, 214379, Note_on_c, 0, 65, 0
2, 214560, Note_on_c, 0, 65, 58
2, 214560, Note_on_c, 0, 69, 58
2, 214739, Note_on_c, 0, 69, 0
2, 214739, Note_on_c, 0, 65, 0
2, 215280, Note_on_c, 0, 65, 55
2, 215280, Note_on_c, 0, 69, 55
2, 215459, Note_on_c, 0, 69, 0
2, 215459, Note_on_c, 0, 65, 0
2, 215640, Note_on_c, 0, 65, 54
2, 215640, Note_on_c, 0, 69, 54
2, 215819, Note_on_c, 0, 69, 0
2, 215819, Note_on_c, 0, 65, 0
2, 216000, Note_on_c, 0, 72, 0
2, 216000, Note_on_c, 0, 74, 92
2, 216000, Note_on_c, 0, 62, 55
2, 216720, Note_on_c, 0, 62, 0
2, 216720, Note_on_c, 0, 74, 0
2, 216720, Note_on_c, 0, 75, 97
2, 216720, Note_on_c, 0, 63, 60
2, 217440, Note_on_c, 0, 63, 0
2, 217440, Note_on_c, 0, 75, 0
2, 217440, Note_on_c, 0, 76, 101
2, 217440, Note_on_c, 0, 64, 64
2, 218160, Note_on_c, 0, 64, 0
2, 218160, Note_on_c, 0, 76, 0
2, 218160, Note_on_c, 0, 79, 105
2, 218160, Note_on_c, 0, 67, 68
2, 218880, Note_on_c, 0, 67, 0
2, 218880, Note_on_c, 0, 79, 0
2, 218880, Note_on_c, 0, 77, 109
2, 218880, Note_on_c, 0, 65, 72
2, 219600, Note_on_c, 0, 65, 0
2, 219600, Note_on_c, 0, 77, 0
2, 219600, Note_on_c, 0, 81, 113
2, 219600, Note_on_c, 0, 69, 77
2, 220320, Note_on_c, 0, 69, 0
2, 220320, Note_on_c, 0, 81, 0
2, 220320, Note_on_c, 0, 82, 103
2, 220320, Note_on_c, 0, 70, 99
2, 221040, Note_on_c, 0, 70, 0
2, 221040, Note_on_c, 0, 82, 0
2, 221040, Note_on_c, 0, 81, 90
2, 221040, Note_on_c, 0, 69, 86
2, 221760, Note_on_c, 0, 69, 0
2, 221760, Note_on_c, 0, 81, 0
2, 221760, Note_on_c, 0, 79, 88
2, 221760, Note_on_c, 0, 67, 81
2, 222480, Note_on_c, 0, 67, 0
2, 222480, Note_on_c, 0, 79, 0
2, 222480, Note_on_c, 0, 77, 87
2, 222480, Note_on_c, 0, 65, 83
2, 222660, Note_on_c, 0, 65, 0
2, 222660, Note_on_c, 0, 77, 0
2, 222840, Note_on_c, 0, 76, 78
2, 223020, Note_on_c, 0, 76, 0
2, 223020, Note_on_c, 0, 77, 94
2, 223200, Note_on_c, 0, 77, 0
2, 223200, Note_on_c, 0, 81, 98
2, 223380, Note_on_c, 0, 81, 0
2, 223380, Note_on_c, 0, 79, 85
2, 223560, Note_on_c, 0, 79, 0
2, 223560, Note_on_c, 0, 77, 90
2, 223740, Note_on_c, 0, 77, 0
2, 223740, Note_on_c, 0, 74, 88
2, 223920, Note_on_c, 0, 74, 0
2, 223920, Note_on_c, 0, 72, 80
2, 224100, Note_on_c, 0, 72, 0
2, 224100, Note_on_c, 0, 74, 95
2, 224280, Note_on_c, 0, 74, 0
2, 224280, Note_on_c, 0, 72, 89
2, 224460, Note_on_c, 0, 72, 0
2, 224460, Note_on_c, 0, 69, 82
2, 224640, Note_on_c, 0, 69, 0
2, 224640, Note_on_c, 0, 65, 79
2, 224820, Note_on_c, 0, 65, 0
2, 225000, Note_on_c, 0, 77, 122
2, 225000, Note_on_c, 0, 65, 119
2, 225720, Note_on_c, 0, 65, 0
2, 225720, Note_on_c, 0, 77, 0
2, 225720, Note_on_c, 0, 79, 122
2, 225720, Note_on_c, 0, 67, 122
2, 226440, Note_on_c, 0, 67, 0
2, 226440, Note_on_c, 0, 79, 0
2, 226440, Note_on_c, 0, 81, 122
2, 226440, Note_on_c, 0, 69, 122
2, 226800, Note_on_c, 0, 69, 0
2, 226800, Note_on_c, 0, 81, 0
2, 226800, Note_on_c, 0, 82, 122
2, 226800, Note_on_c, 0, 70, 122
2, 226980, Note_on_c, 0, 70, 0
2, 226980, Note_on_c, 0, 82, 0
2, 227160, Note_on_c, 0, 73, 93
2, 227340, Note_on_c, 0, 73, 0
2, 227340, Note_on_c, 0, 74, 114
2, 227520, Note_on_c, 0, 74, 0
2, 227520, Note_on_c, 0, 75, 111
2, 227700, Note_on_c, 0, 75, 0
2, 227700, Note_on_c, 0, 74, 101
2, 227880, Note_on_c, 0, 74, 0
2, 227880, Note_on_c, 0, 77, 118
2, 227880, Note_on_c, 0, 72, 97
2, 228060, Note_on_c, 0, 72, 0
2, 228060, Note_on_c, 0, 77, 0
2, 228240, Note_on_c, 0, 71, 100
2, 228420, Note_on_c, 0, 71, 0
2, 228420, Note_on_c, 0, 72, 115
2, 228600, Note_on_c, 0, 72, 0
2, 228600, Note_on_c, 0, 74, 116
2, 228780, Note_on_c, 0, 74, 0
2, 228780, Note_on_c, 0, 72, 104
2, 228960, Note_on_c, 0, 72, 0
2, 228960, Note_on_c, 0, 74, 115
2, 228960, Note_on_c, 0, 65, 99
2, 228960, Note_on_c, 0, 70, 99
2, 229140, Note_on_c, 0, 70, 0
2, 229140, Note_on_c, 0, 65, 0
2, 229140, Note_on_c, 0, 74, 0
2, 229320, Note_on_c, 0, 69, 95
2, 229500, Note_on_c, 0, 69, 0
2, 229500, Note_on_c, 0, 70, 108
2, 229680, Note_on_c, 0, 70, 0
2, 229680, Note_on_c, 0, 72, 117
2, 229860, Note_on_c, 0, 72, 0
2, 229860, Note_on_c, 0, 70, 101
2, 230040, Note_on_c, 0, 70, 0
2, 230040, Note_on_c, 0, 74, 119
2, 230040, Note_on_c, 0, 65, 93
2, 230129, Note_on_c, 0, 74, 0
2, 230219, Note_on_c, 0, 65, 0
2, 230220, Note_on_c, 0, 72, 101
2, 230309, Note_on_c, 0, 72, 0
2, 230400, Note_on_c, 0, 70, 100
2, 230400, Note_on_c, 0, 65, 104
2, 230489, Note_on_c, 0, 70, 0
2, 230579, Note_on_c, 0, 65, 0
2, 230580, Note_on_c, 0, 69, 98
2, 230669, Note_on_c, 0, 69, 0
2, 230760, Note_on_c, 0, 70, 112
2, 230760, Note_on_c, 0, 61, 96
2, 230849, Note_on_c, 0, 70, 0
2, 230939, Note_on_c, 0, 61, 0
2, 230940, Note_on_c, 0, 67, 103
2, 231029, Note_on_c, 0, 67, 0
2, 231120, Note_on_c, 0, 65, 100
2, 231120, Note_on_c, 0, 60, 102
2, 231209, Note_on_c, 0, 60, 0
2, 231209, Note_on_c, 0, 65, 0
2, 231480, Note_on_c, 0, 76, 97
2, 231480, Note_on_c, 0, 64, 96
2, 231660, Note_on_c, 0, 64, 0
2, 231660, Note_on_c, 0, 76, 0
2, 231660, Note_on_c, 0, 77, 109
2, 231660, Note_on_c, 0, 65, 110
2, 231840, Note_on_c, 0, 65, 0
2, 231840, Note_on_c, 0, 77, 0
2, 231840, Note_on_c, 0, 79, 115
2, 231840, Note_on_c, 0, 67, 112
2, 232020, Note_on_c, 0, 67, 0
2, 232020, Note_on_c, 0, 79, 0
2, 232020, Note_on_c, 0, 77, 106
2, 232020, Note_on_c, 0, 65, 97
2, 232200, Note_on_c, 0, 65, 0
2, 232200, Note_on_c, 0, 77, 0
2, 232200, Note_on_c, 0, 81, 120
2, 232200, Note_on_c, 0, 69, 121
2, 232289, Note_on_c, 0, 69, 0
2, 232289, Note_on_c, 0, 81, 0
2, 232380, Note_on_c, 0, 79, 101
2, 232380, Note_on_c, 0, 67, 105
2, 232469, Note_on_c, 0, 67, 0
2, 232469, Note_on_c, 0, 79, 0
2, 232560, Note_on_c, 0, 77, 101
2, 232560, Note_on_c, 0, 65, 99
2, 232649, Note_on_c, 0, 65, 0
2, 232649, Note_on_c, 0, 77, 0
2, 232740, Note_on_c, 0, 76, 102
2, 232740, Note_on_c, 0, 64, 99
2, 232829, Note_on_c, 0, 64, 0
2, 232829, Note_on_c, 0, 76, 0
2, 232920, Note_on_c, 0, 77, 111
2, 232920, Note_on_c, 0, 65, 106
2, 233009, Note_on_c, 0, 65, 0
2, 233009, Note_on_c, 0, 77, 0
2, 233100, Note_on_c, 0, 73, 94
2, 233189, Note_on_c, 0, 73, 0
2, 233280, Note_on_c, 0, 74, 111
2, 233280, Note_on_c, 0, 65, 98
2, 233280, Note_on_c, 0, 70, 98
2, 233369, Note_on_c, 0, 70, 0
2, 233369, Note_on_c, 0, 65, 0
2, 233369, Note_on_c, 0, 74, 0
2, 233640, Note_on_c, 0, 77, 122
2, 233640, Note_on_c, 0, 65, 119
2, 234360, Note_on_c, 0, 65, 0
2, 234360, Note_on_c, 0, 77, 0
2, 234360, Note_on_c, 0, 79, 122
2, 234360, Note_on_c, 0, 67, 122
2, 235080, Note_on_c, 0, 67, 0
2, 235080, Note_on_c, 0, 79, 0
2, 235080, Note_on_c, 0, 81, 122
2, 235080, Note_on_c, 0, 69, 122
2, 235440, Note_on_c, 0, 69, 0
2, 235440, Note_on_c, 0, 81, 0
2, 235440, Note_on_c, 0, 82, 122
2, 235440, Note_on_c, 0, 70, 122
2, 235620, Note_on_c, 0, 70, 0
2, 235620, Note_on_c, 0, 82, 0
2, 235800, Note_on_c, 0, 73, 98
2, 235980, Note_on_c, 0, 73, 0
2, 235980, Note_on_c, 0, 74, 110
2, 236160, Note_on_c, 0, 74, 0
2, 236160, Note_on_c, 0, 75, 115
2, 236340, Note_on_c, 0, 75, 0
2, 236340, Note_on_c, 0, 74, 106
2, 236520, Note_on_c, 0, 74, 0
2, 236520, Note_on_c, 0, 77, 119
2, 236520, Note_on_c, 0, 72, 96
2, 236700, Note_on_c, 0, 72, 0
2, 236700, Note_on_c, 0, 77, 0
2, 236880, Note_on_c, 0, 71, 92
2, 237060, Note_on_c, 0, 71, 0
2, 237060, Note_on_c, 0, 72, 113
2, 237240, Note_on_c, 0, 72, 0
2, 237240, Note_on_c, 0, 74, 114
2, 237420, Note_on_c, 0, 74, 0
2, 237420, Note_on_c, 0, 72, 97
2, 237600, Note_on_c, 0, 72, 0
2, 237600, Note_on_c, 0, 74, 118
2, 237600, Note_on_c, 0, 65, 99
2, 237600, Note_on_c, 0, 70, 99
2, 237780, Note_on_c, 0, 70, 0
2, 237780, Note_on_c, 0, 65, 0
2, 237780, Note_on_c, 0, 74, 0
2, 237960, Note_on_c, 0, 69, 98
2, 238140, Note_on_c, 0, 69, 0
2, 238140, Note_on_c, 0, 70, 113
2, 238320, Note_on_c, 0, 70, 0
2, 238320, Note_on_c, 0, 72, 111
2, 238500, Note_on_c, 0, 72, 0
2, 238500, Note_on_c, 0, 70, 100
2, 238680, Note_on_c, 0, 70, 0
2, 238680, Note_on_c, 0, 74, 121
2, 238769, Note_on_c, 0, 74, 0
2, 238860, Note_on_c, 0, 72, 98
2, 238949, Note_on_c, 0, 72, 0
2, 239040, Note_on_c, 0, 70, 99
2, 239040, Note_on_c, 0, 62, 92
2, 239129, Note_on_c, 0, 70, 0
2, 239219, Note_on_c, 0, 62, 0
2, 239220, Note_on_c, 0, 69, 101
2, 239309, Note_on_c, 0, 69, 0
2, 239400, Note_on_c, 0, 67, 98
2, 239400, Note_on_c, 0, 62, 106
2, 239489, Note_on_c, 0, 67, 0
2, 239579, Note_on_c, 0, 62, 0
2, 239580, Note_on_c, 0, 65, 100
2, 239669, Note_on_c, 0, 65, 0
2, 239760, Note_on_c, 0, 60, 117
2, 239760, Note_on_c, 0, 64, 117
2, 239849, Note_on_c, 0, 64, 0
2, 239849, Note_on_c, 0, 60, 0
2, 240120, Note_on_c, 0, 75, 94
2, 240120, Note_on_c, 0, 63, 97
2, 240300, Note_on_c, 0, 63, 0
2, 240300, Note_on_c, 0, 75, 0
2, 240300, Note_on_c, 0, 76, 114
2, 240300, Note_on_c, 0, 64, 109
2, 240480, Note_on_c, 0, 64, 0
2, 240480, Note_on_c, 0, 76, 0
2, 240480, Note_on_c, 0, 77, 112
2, 240480, Note_on_c, 0, 65, 112
2, 240660, Note_on_c, 0, 65, 0
2, 240660, Note_on_c, 0, 77, 0
2, 240660, Note_on_c, 0, 76, 104
2, 240660, Note_on_c, 0, 64, 104
2, 240840, Note_on_c, 0, 64, 0
2, 240840, Note_on_c, 0, 76, 0
2, 240840, Note_on_c, 0, 81, 121
2, 240840, Note_on_c, 0, 69, 120
2, 240929, Note_on_c, 0, 69, 0
2, 240929, Note_on_c, 0, 81, 0
2, 241020, Note_on_c, 0, 79, 107
2, 241020, Note_on_c, 0, 67, 103
2, 241109, Note_on_c, 0, 67, 0
2, 241109, Note_on_c, 0, 79, 0
2, 241200, Note_on_c, 0, 77, 102
2, 241200, Note_on_c, 0, 65, 99
2, 241289, Note_on_c, 0, 65, 0
2, 241289, Note_on_c, 0, 77, 0
2, 241380, Note_on_c, 0, 76, 103
2, 241380, Note_on_c, 0, 64, 103
2, 241469, Note_on_c, 0, 64, 0
2, 241469, Note_on_c, 0, 76, 0
2, 241560, Note_on_c, 0, 74, 96
2, 241649, Note_on_c, 0, 74, 0
2, 241740, Note_on_c, 0, 72, 102
2, 241829, Note_on_c, 0, 72, 0
2, 241920, Note_on_c, 0, 77, 121
2, 241920, Note_on_c, 0, 65, 94
2, 242009, Note_on_c, 0, 65, 0
2, 242009, Note_on_c, 0, 77, 0
2, 242280, Note_on_c, 0, 77, 119
2, 242280, Note_on_c, 0, 65, 122
2, 243000, Note_on_c, 0, 65, 0
2, 243000, Note_on_c, 0, 77, 0
2, 243000, Note_on_c, 0, 79, 122
2, 243000, Note_on_c, 0, 67, 122
2, 243720, Note_on_c, 0, 67, 0
2, 243720, Note_on_c, 0, 79, 0
2, 243720, Note_on_c, 0, 81, 122
2, 243720, Note_on_c, 0, 69, 122
2, 244080, Note_on_c, 0, 69, 0
2, 244080, Note_on_c, 0, 81, 0
2, 244080, Note_on_c, 0, 82, 122
2, 244080, Note_on_c, 0, 70, 122
2, 244260, Note_on_c, 0, 70, 0
2, 244260, Note_on_c, 0, 82, 0
2, 244440, Note_on_c, 0, 73, 92
2, 244620, Note_on_c, 0, 73, 0
2, 244620, Note_on_c, 0, 74, 111
2, 244800, Note_on_c, 0, 74, 0
2, 244800, Note_on_c, 0, 75, 112
2, 244980, Note_on_c, 0, 75, 0
2, 244980, Note_on_c, 0, 74, 100
2, 245160, Note_on_c, 0, 74, 0
2, 245160, Note_on_c, 0, 77, 119
2, 245160, Note_on_c, 0, 72, 98
2, 245340, Note_on_c, 0, 72, 0
2, 245340, Note_on_c, 0, 77, 0
2, 245520, Note_on_c, 0, 71, 96
2, 245700, Note_on_c, 0, 71, 0
2, 245700, Note_on_c, 0, 72, 110
2, 245880, Note_on_c, 0, 72, 0
2, 245880, Note_on_c, 0, 74, 113
2, 246060, Note_on_c, 0, 74, 0
2, 246060, Note_on_c, 0, 72, 102
2, 246240, Note_on_c, 0, 72, 0
2, 246240, Note_on_c, 0, 74, 113
2, 246240, Note_on_c, 0, 65, 99
2, 246240, Note_on_c, 0, 70, 99
2, 246420, Note_on_c, 0, 70, 0
2, 246420, Note_on_c, 0, 65, 0
2, 246420, Note_on_c, 0, 74, 0
2, 246600, Note_on_c, 0, 69, 93
2, 246780, Note_on_c, 0, 69, 0
2, 246780, Note_on_c, 0, 70, 109
2, 246960, Note_on_c, 0, 70, 0
2, 246960, Note_on_c, 0, 72, 121
2, 247140, Note_on_c, 0, 72, 0
2, 247140, Note_on_c, 0, 70, 99
2, 247320, Note_on_c, 0, 70, 0
2, 247320, Note_on_c, 0, 74, 116
2, 247320, Note_on_c, 0, 65, 99
2, 247409, Note_on_c, 0, 74, 0
2, 247499, Note_on_c, 0, 65, 0
2, 247500, Note_on_c, 0, 72, 107
2, 247589, Note_on_c, 0, 72, 0
2, 247680, Note_on_c, 0, 70, 95
2, 247680, Note_on_c, 0, 65, 105
2, 247769, Note_on_c, 0, 70, 0
2, 247859, Note_on_c, 0, 65, 0
2, 247860, Note_on_c, 0, 69, 103
2, 247949, Note_on_c, 0, 69, 0
2, 248040, Note_on_c, 0, 70, 109
2, 248040, Note_on_c, 0, 61, 96
2, 248129, Note_on_c, 0, 70, 0
2, 248219, Note_on_c, 0, 61, 0
2, 248220, Note_on_c, 0, 67, 97
2, 248309, Note_on_c, 0, 67, 0
2, 248400, Note_on_c, 0, 65, 97
2, 248400, Note_on_c, 0, 60, 95
2, 248489, Note_on_c, 0, 60, 0
2, 248489, Note_on_c, 0, 65, 0
2, 248760, Note_on_c, 0, 76, 97
2, 248760, Note_on_c, 0, 64, 98
2, 248940, Note_on_c, 0, 64, 0
2, 248940, Note_on_c, 0, 76, 0
2, 248940, Note_on_c, 0, 77, 110
2, 248940, Note_on_c, 0, 65, 111
2, 249120, Note_on_c, 0, 65, 0
2, 249120, Note_on_c, 0, 77, 0
2, 249120, Note_on_c, 0, 79, 118
2, 249120, Note_on_c, 0, 67, 111
2, 249300, Note_on_c, 0, 67, 0
2, 249300, Note_on_c, 0, 79, 0
2, 249300, Note_on_c, 0, 77, 100
2, 249300, Note_on_c, 0, 65, 106
2, 249480, Note_on_c, 0, 65, 0
2, 249480, Note_on_c, 0, 77, 0
2, 249480, Note_on_c, 0, 81, 120
2, 249480, Note_on_c, 0, 69, 121
2, 249569, Note_on_c, 0, 69, 0
2, 249569, Note_on_c, 0, 81, 0
2, 249660, Note_on_c, 0, 79, 104
2, 249660, Note_on_c, 0, 67, 103
2, 249749, Note_on_c, 0, 67, 0
2, 249749, Note_on_c, 0, 79, 0
2, 249840, Note_on_c, 0, 77, 101
2, 249840, Note_on_c, 0, 65, 100
2, 249929, Note_on_c, 0, 65, 0
2, 249929, Note_on_c, 0, 77, 0
2, 250020, Note_on_c, 0, 76, 100
2, 250020, Note_on_c, 0, 64, 105
2, 250109, Note_on_c, 0, 64, 0
2, 250109, Note_on_c, 0, 76, 0
2, 250200, Note_on_c, 0, 77, 112
2, 250200, Note_on_c, 0, 65, 112
2, 250289, Note_on_c, 0, 65, 0
2, 250289, Note_on_c, 0, 77, 0
2, 250380, Note_on_c, 0, 73, 98
2, 250469, Note_on_c, 0, 73, 0
2, 250560, Note_on_c, 0, 74, 111
2, 250560, Note_on_c, 0, 65, 94
2, 250560, Note_on_c, 0, 70, 94
2, 250649, Note_on_c, 0, 70, 0
2, 250649, Note_on_c, 0, 65, 0
2, 250649, Note_on_c, 0, 74, 0
2, 250920, Note_on_c, 0, 77, 119
2, 250920, Note_on_c, 0, 65, 122
2, 251640, Note_on_c, 0, 65, 0
2, 251640, Note_on_c, 0, 77, 0
2, 251640, Note_on_c, 0, 79, 122
2, 251640, Note_on_c, 0, 67, 122
2, 252360, Note_on_c, 0, 67, 0
2, 252360, Note_on_c, 0, 79, 0
2, 252360, Note_on_c, 0, 81, 122
2, 252360, Note_on_c, 0, 69, 122
2, 252720, Note_on_c, 0, 69, 0
2, 252720, Note_on_c, 0, 81, 0
2, 252720, Note_on_c, 0, 82, 122
2, 252720, Note_on_c, 0, 70, 122
2, 252900, Note_on_c, 0, 70, 0
2, 252900, Note_on_c, 0, 82, 0
2, 253080, Note_on_c, 0, 73, 99
2, 253260, Note_on_c, 0, 73, 0
2, 253260, Note_on_c, 0, 74, 108
2, 253440, Note_on_c, 0, 74, 0
2, 253440, Note_on_c, 0, 75, 111
2, 253620, Note_on_c, 0, 75, 0
2, 253620, Note_on_c, 0, 74, 102
2, 253800, Note_on_c, 0, 74, 0
2, 253800, Note_on_c, 0, 77, 116
2, 253800, Note_on_c, 0, 72, 95
2, 253980, Note_on_c, 0, 72, 0
2, 253980, Note_on_c, 0, 77, 0
2, 254160, Note_on_c, 0, 71, 96
2, 254340, Note_on_c, 0, 71, 0
2, 254340, Note_on_c, 0, 72, 111
2, 254520, Note_on_c, 0, 72, 0
2, 254520, Note_on_c, 0, 74, 110
2, 254700, Note_on_c, 0, 74, 0
2, 254700, Note_on_c, 0, 72, 101
2, 254880, Note_on_c, 0, 72, 0
2, 254880, Note_on_c, 0, 74, 116
2, 254880, Note_on_c, 0, 65, 96
2, 254880, Note_on_c, 0, 70, 96
2, 255060, Note_on_c, 0, 70, 0
2, 255060, Note_on_c, 0, 65, 0
2, 255060, Note_on_c, 0, 74, 0
2, 255240, Note_on_c, 0, 69, 93
2, 255420, Note_on_c, 0, 69, 0
2, 255420, Note_on_c, 0, 70, 107
2, 255600, Note_on_c, 0, 70, 0
2, 255600, Note_on_c, 0, 72, 118
2, 255780, Note_on_c, 0, 72, 0
2, 255780, Note_on_c, 0, 70, 103
2, 255960, Note_on_c, 0, 70, 0
2, 255960, Note_on_c, 0, 74, 119
2, 256049, Note_on_c, 0, 74, 0
2, 256140, Note_on_c, 0, 72, 106
2, 256229, Note_on_c, 0, 72, 0
2, 256320, Note_on_c, 0, 70, 104
2, 256320, Note_on_c, 0, 62, 95
2, 256409, Note_on_c, 0, 70, 0
2, 256499, Note_on_c, 0, 62, 0
2, 256500, Note_on_c, 0, 69, 100
2, 256589, Note_on_c, 0, 69, 0
2, 256680, Note_on_c, 0, 67, 102
2, 256680, Note_on_c, 0, 62, 110
2, 256769, Note_on_c, 0, 67, 0
2, 256859, Note_on_c, 0, 62, 0
2, 256860, Note_on_c, 0, 65, 103
2, 256949, Note_on_c, 0, 65, 0
2, 257040, Note_on_c, 0, 60, 110
2, 257040, Note_on_c, 0, 64, 110
2, 257129, Note_on_c, 0, 64, 0
2, 257129, Note_on_c, 0, 60, 0
2, 257400, Note_on_c, 0, 75, 94
2, 257400, Note_on_c, 0, 63, 95
2, 257580, Note_on_c, 0, 63, 0
2, 257580, Note_on_c, 0, 75, 0
2, 257580, Note_on_c, 0, 76, 114
2, 257580, Note_on_c, 0, 64, 109
2, 257760, Note_on_c, 0, 64, 0
2, 257760, Note_on_c, 0, 76, 0
2, 257760, Note_on_c, 0, 77, 116
2, 257760, Note_on_c, 0, 65, 116
2, 257940, Note_on_c, 0, 65, 0
2, 257940, Note_on_c, 0, 77, 0
2, 257940, Note_on_c, 0, 76, 103
2, 257940, Note_on_c, 0, 64, 105
2, 258120, Note_on_c, 0, 64, 0
2, 258120, Note_on_c, 0, 76, 0
2, 258120, Note_on_c, 0, 81, 121
2, 258120, Note_on_c, 0, 69, 121
2, 258209, Note_on_c, 0, 69, 0
2, 258209, Note_on_c, 0, 81, 0
2, 258300, Note_on_c, 0, 79, 105
2, 258300, Note_on_c, 0, 67, 103
2, 258389, Note_on_c, 0, 67, 0
2, 258389, Note_on_c, 0, 79, 0
2, 258480, Note_on_c, 0, 77, 100
2, 258480, Note_on_c, 0, 65, 102
2, 258569, Note_on_c, 0, 65, 0
2, 258569, Note_on_c, 0, 77, 0
2, 258660, Note_on_c, 0, 76, 105
2, 258660, Note_on_c, 0, 64, 102
2, 258749, Note_on_c, 0, 64, 0
2, 258749, Note_on_c, 0, 76, 0
2, 258840, Note_on_c, 0, 74, 99
2, 258929, Note_on_c, 0, 74, 0
2, 259020, Note_on_c, 0, 72, 102
2, 259109, Note_on_c, 0, 72, 0
2, 259200, Note_on_c, 0, 77, 108
2, 259200, Note_on_c, 0, 65, 98
2, 259289, Note_on_c, 0, 65, 0
2, 259289, Note_on_c, 0, 77, 0
2, 259380, Note_on_c, 0, 75, 103
2, 259469, Note_on_c, 0, 75, 0
2, 259560, Note_on_c, 0, 74, 99
2, 259649, Note_on_c, 0, 74, 0
2, 259740, Note_on_c, 0, 72, 95
2, 259829, Note_on_c, 0, 72, 0
2, 259920, Note_on_c, 0, 74, 91
2, 260009, Note_on_c, 0, 74, 0
2, 260100, Note_on_c, 0, 72, 86
2, 260189, Note_on_c, 0, 72, 0
2, 260280, Note_on_c, 0, 70, 82
2, 260369, Note_on_c, 0, 70, 0
2, 260460, Note_on_c, 0, 69, 79
2, 260549, Note_on_c, 0, 69, 0
2, 260640, Note_on_c, 0, 70, 82
2, 260729, Note_on_c, 0, 70, 0
2, 260820, Note_on_c, 0, 69, 83
2, 260909, Note_on_c, 0, 69, 0
2, 261000, Note_on_c, 0, 67, 76
2, 261089, Note_on_c, 0, 67, 0
2, 261180, Note_on_c, 0, 65, 75
2, 261269, Note_on_c, 0, 65, 0
2, 261360, Note_on_c, 0, 69, 82
2, 261449, Note_on_c, 0, 69, 0
2, 261540, Note_on_c, 0, 67, 69
2, 261629, Note_on_c, 0, 67, 0
2, 261720, Note_on_c, 0, 65, 57
2, 261809, Note_on_c, 0, 65, 0
2, 261900, Note_on_c, 0, 63, 71
2, 261989, Note_on_c, 0, 63, 0
2, 262080, Note_on_c, 0, 67, 83
2, 262169, Note_on_c, 0, 67, 0
2, 262260, Note_on_c, 0, 65, 76
2, 262349, Note_on_c, 0, 65, 0
2, 262440, Note_on_c, 0, 63, 78
2, 262529, Note_on_c, 0, 63, 0
2, 262620, Note_on_c, 0, 62, 74
2, 262709, Note_on_c, 0, 62, 0
2, 262800, Note_on_c, 0, 65, 70
2, 262889, Note_on_c, 0, 65, 0
2, 262980, Note_on_c, 0, 63, 66
2, 263069, Note_on_c, 0, 63, 0
2, 263700, Note_on_c, 0, 77, 47
2, 263789, Note_on_c, 0, 77, 0
2, 263880, Note_on_c, 0, 86, 67
2, 263880, Note_on_c, 0, 62, 47
2, 263880, Note_on_c, 0, 65, 47
2, 264059, Note_on_c, 0, 65, 0
2, 264059, Note_on_c, 0, 62, 0
2, 264060, Note_on_c, 0, 86, 0
2, 264060, Note_on_c, 0, 89, 64
2, 264240, Note_on_c, 0, 89, 0
2, 264240, Note_on_c, 0, 86, 51
2, 264240, Note_on_c, 0, 89, 51
2, 264240, Note_on_c, 0, 62, 54
2, 264240, Note_on_c, 0, 65, 54
2, 264419, Note_on_c, 0, 65, 0
2, 264419, Note_on_c, 0, 62, 0
2, 264420, Note_on_c, 0, 89, 0
2, 264420, Note_on_c, 0, 86, 0
2, 264420, Note_on_c, 0, 77, 43
2, 264600, Note_on_c, 0, 77, 0
2, 264780, Note_on_c, 0, 77, 48
2, 264869, Note_on_c, 0, 77, 0
2, 264960, Note_on_c, 0, 86, 72
2, 264960, Note_on_c, 0, 62, 49
2, 264960, Note_on_c, 0, 65, 49
2, 265139, Note_on_c, 0, 65, 0
2, 265139, Note_on_c, 0, 62, 0
2, 265140, Note_on_c, 0, 86, 0
2, 265140, Note_on_c, 0, 89, 60
2, 265320, Note_on_c, 0, 89, 0
2, 265320, Note_on_c, 0, 86, 59
2, 265320, Note_on_c, 0, 89, 59
2, 265320, Note_on_c, 0, 62, 55
2, 265320, Note_on_c, 0, 65, 55
2, 265499, Note_on_c, 0, 65, 0
2, 265499, Note_on_c, 0, 62, 0
2, 265500, Note_on_c, 0, 89, 0
2, 265500, Note_on_c, 0, 86, 0
2, 265500, Note_on_c, 0, 77, 40
2, 265680, Note_on_c, 0, 77, 0
2, 265860, Note_on_c, 0, 77, 51
2, 265949, Note_on_c, 0, 77, 0
2, 266040, Note_on_c, 0, 86, 68
2, 266040, Note_on_c, 0, 62, 47
2, 266040, Note_on_c, 0, 65, 47
2, 266219, Note_on_c, 0, 65, 0
2, 266219, Note_on_c, 0, 62, 0
2, 266220, Note_on_c, 0, 86, 0
2, 266220, Note_on_c, 0, 89, 66
2, 266400, Note_on_c, 0, 89, 0
2, 266400, Note_on_c, 0, 86, 57
2, 266400, Note_on_c, 0, 89, 57
2, 266400, Note_on_c, 0, 62, 54
2, 266400, Note_on_c, 0, 65, 54
2, 266579, Note_on_c, 0, 65, 0
2, 266579, Note_on_c, 0, 62, 0
2, 266580, Note_on_c, 0, 89, 0
2, 266580, Note_on_c, 0, 86, 0
2, 266580, Note_on_c, 0, 77, 37
2, 266760, Note_on_c, 0, 77, 0
2, 266940, Note_on_c, 0, 77, 51
2, 267029, Note_on_c, 0, 77, 0
2, 267120, Note_on_c, 0, 86, 66
2, 267120, Note_on_c, 0, 62, 48
2, 267120, Note_on_c, 0, 65, 48
2, 267299, Note_on_c, 0, 65, 0
2, 267299, Note_on_c, 0, 62, 0
2, 267300, Note_on_c, 0, 86, 0
2, 267300, Note_on_c, 0, 89, 64
2, 267480, Note_on_c, 0, 89, 0
2, 267480, Note_on_c, 0, 86, 58
2, 267480, Note_on_c, 0, 89, 58
2, 267480, Note_on_c, 0, 62, 52
2, 267480, Note_on_c, 0, 65, 52
2, 267659, Note_on_c, 0, 65, 0
2, 267659, Note_on_c, 0, 62, 0
2, 267660, Note_on_c, 0, 89, 0
2, 267660, Note_on_c, 0, 86, 0
2, 267660, Note_on_c, 0, 77, 39
2, 267840, Note_on_c, 0, 77, 0
2, 268020, Note_on_c, 0, 77, 51
2, 268109, Note_on_c, 0, 77, 0
2, 268200, Note_on_c, 0, 87, 70
2, 268200, Note_on_c, 0, 63, 54
2, 268200, Note_on_c, 0, 65, 54
2, 268379, Note_on_c, 0, 65, 0
2, 268379, Note_on_c, 0, 63, 0
2, 268380, Note_on_c, 0, 87, 0
2, 268380, Note_on_c, 0, 89, 67
2, 268560, Note_on_c, 0, 89, 0
2, 268560, Note_on_c, 0, 87, 56
2, 268560, Note_on_c, 0, 89, 56
2, 268560, Note_on_c, 0, 63, 55
2, 268560, Note_on_c, 0, 65, 55
2, 268739, Note_on_c, 0, 65, 0
2, 268739, Note_on_c, 0, 63, 0
2, 268740, Note_on_c, 0, 89, 0
2, 268740, Note_on_c, 0, 87, 0
2, 268740, Note_on_c, 0, 77, 38
2, 268920, Note_on_c, 0, 77, 0
2, 269100, Note_on_c, 0, 77, 51
2, 269189, Note_on_c, 0, 77, 0
2, 269280, Note_on_c, 0, 87, 72
2, 269280, Note_on_c, 0, 63, 56
2, 269280, Note_on_c, 0, 65, 56
2, 269459, Note_on_c, 0, 65, 0
2, 269459, Note_on_c, 0, 63, 0
2, 269460, Note_on_c, 0, 87, 0
2, 269460, Note_on_c, 0, 89, 62
2, 269640, Note_on_c, 0, 89, 0
2, 269640, Note_on_c, 0, 87, 59
2, 269640, Note_on_c, 0, 89, 59
2, 269640, Note_on_c, 0, 63, 54
2, 269640, Note_on_c, 0, 65, 54
2, 269819, Note_on_c, 0, 65, 0
2, 269819, Note_on_c, 0, 63, 0
2, 269820, Note_on_c, 0, 89, 0
2, 269820, Note_on_c, 0, 87, 0
2, 269820, Note_on_c, 0, 77, 38
2, 270000, Note_on_c, 0, 77, 0
2, 270180, Note_on_c, 0, 77, 52
2, 270269, Note_on_c, 0, 77, 0
2, 270360, Note_on_c, 0, 87, 69
2, 270360, Note_on_c, 0, 63, 51
2, 270360, Note_on_c, 0, 65, 51
2, 270539, Note_on_c, 0, 65, 0
2, 270539, Note_on_c, 0, 63, 0
2, 270540, Note_on_c, 0, 87, 0
2, 270540, Note_on_c, 0, 89, 61
2, 270720, Note_on_c, 0, 89, 0
2, 270720, Note_on_c, 0, 87, 58
2, 270720, Note_on_c, 0, 89, 58
2, 270720, Note_on_c, 0, 63, 54
2, 270720, Note_on_c, 0, 65, 54
2, 270899, Note_on_c, 0, 65, 0
2, 270899, Note_on_c, 0, 63, 0
2, 270900, Note_on_c, 0, 89, 0
2, 270900, Note_on_c, 0, 87, 0
2, 270900, Note_on_c, 0, 77, 41
2, 271080, Note_on_c, 0, 77, 0
2, 271260, Note_on_c, 0, 77, 47
2, 271349, Note_on_c, 0, 77, 0
2, 271440, Note_on_c, 0, 87, 66
2, 271440, Note_on_c, 0, 63, 53
2, 271440, Note_on_c, 0, 65, 53
2, 271619, Note_on_c, 0, 65, 0
2, 271619, Note_on_c, 0, 63, 0
2, 271620, Note_on_c, 0, 87, 0
2, 271620, Note_on_c, 0, 89, 67
2, 271800, Note_on_c, 0, 89, 0
2, 271800, Note_on_c, 0, 87, 54
2, 271800, Note_on_c, 0, 89, 54
2, 271800, Note_on_c, 0, 63, 54
2, 271800, Note_on_c, 0, 65, 54
2, 271979, Note_on_c, 0, 65, 0
2, 271979, Note_on_c, 0, 63, 0
2, 271980, Note_on_c, 0, 89, 0
2, 271980, Note_on_c, 0, 87, 0
2, 271980, Note_on_c, 0, 77, 40
2, 272160, Note_on_c, 0, 77, 0
2, 272340, Note_on_c, 0, 81, 53
2, 272429, Note_on_c, 0, 81, 0
2, 272520, Note_on_c, 0, 84, 61
2, 272520, Note_on_c, 0, 69, 46
2, 272520, Note_on_c, 0, 72, 46
2, 272699, Note_on_c, 0, 72, 0
2, 272699, Note_on_c, 0, 69, 0
2, 272700, Note_on_c, 0, 84, 0
2, 272700, Note_on_c, 0, 93, 71
2, 272880, Note_on_c, 0, 93, 0
2, 272880, Note_on_c, 0, 89, 57
2, 272880, Note_on_c, 0, 93, 57
2, 272880, Note_on_c, 0, 69, 54
2, 272880, Note_on_c, 0, 72, 54
2, 273059, Note_on_c, 0, 72, 0
2, 273059, Note_on_c, 0, 69, 0
2, 273060, Note_on_c, 0, 93, 0
2, 273060, Note_on_c, 0, 89, 0
2, 273060, Note_on_c, 0, 81, 35
2, 273240, Note_on_c, 0, 81, 0
2, 273420, Note_on_c, 0, 79, 50
2, 273509, Note_on_c, 0, 79, 0
2, 273600, Note_on_c, 0, 84, 62
2, 273600, Note_on_c, 0, 67, 48
2, 273600, Note_on_c, 0, 72, 48
2, 273779, Note_on_c, 0, 72, 0
2, 273779, Note_on_c, 0, 67, 0
2, 273780, Note_on_c, 0, 84, 0
2, 273780, Note_on_c, 0, 91, 66
2, 273960, Note_on_c, 0, 91, 0
2, 273960, Note_on_c, 0, 88, 59
2, 273960, Note_on_c, 0, 91, 59
2, 273960, Note_on_c, 0, 67, 58
2, 273960, Note_on_c, 0, 72, 58
2, 274139, Note_on_c, 0, 72, 0
2, 274139, Note_on_c, 0, 67, 0
2, 274140, Note_on_c, 0, 91, 0
2, 274140, Note_on_c, 0, 88, 0
2, 274140, Note_on_c, 0, 79, 37
2, 274320, Note_on_c, 0, 79, 0
2, 274500, Note_on_c, 0, 78, 48
2, 274589, Note_on_c, 0, 78, 0
2, 274680, Note_on_c, 0, 84, 61
2, 274680, Note_on_c, 0, 66, 51
2, 274680, Note_on_c, 0, 72, 51
2, 274859, Note_on_c, 0, 72, 0
2, 274859, Note_on_c, 0, 66, 0
2, 274860, Note_on_c, 0, 84, 0
2, 274860, Note_on_c, 0, 90, 67
2, 275040, Note_on_c, 0, 90, 0
2, 275040, Note_on_c, 0, 87, 55
2, 275040, Note_on_c, 0, 90, 55
2, 275040, Note_on_c, 0, 66, 52
2, 275040, Note_on_c, 0, 72, 52
2, 275219, Note_on_c, 0, 72, 0
2, 275219, Note_on_c, 0, 66, 0
2, 275220, Note_on_c, 0, 90, 0
2, 275220, Note_on_c, 0, 87, 0
2, 275220, Note_on_c, 0, 78, 42
2, 275400, Note_on_c, 0, 78, 0
2, 275580, Note_on_c, 0, 77, 49
2, 275669, Note_on_c, 0, 77, 0
2, 275760, Note_on_c, 0, 87, 66
2, 275760, Note_on_c, 0, 65, 50
2, 275760, Note_on_c, 0, 75, 50
2, 275939, Note_on_c, 0, 75, 0
2, 275939, Note_on_c, 0, 65, 0
2, 275940, Note_on_c, 0, 87, 0
2, 275940, Note_on_c, 0, 89, 61
2, 276120, Note_on_c, 0, 89, 0
2, 276120, Note_on_c, 0, 87, 55
2, 276120, Note_on_c, 0, 89, 55
2, 276120, Note_on_c, 0, 65, 56
2, 276120, Note_on_c, 0, 75, 56
2, 276299, Note_on_c, 0, 75, 0
2, 276299, Note_on_c, 0, 65, 0
2, 276300, Note_on_c, 0, 89, 0
2, 276300, Note_on_c, 0, 87, 0
2, 276300, Note_on_c, 0, 77, 37
2, 276480, Note_on_c, 0, 77, 0
2, 276660, Note_on_c, 0, 77, 51
2, 276749, Note_on_c, 0, 77, 0
2, 276840, Note_on_c, 0, 86, 65
2, 276840, Note_on_c, 0, 70, 50
2, 276840, Note_on_c, 0, 74, 50
2, 277019, Note_on_c, 0, 74, 0
2, 277019, Note_on_c, 0, 70, 0
2, 277020, Note_on_c, 0, 86, 0
2, 277020, Note_on_c, 0, 89, 62
2, 277200, Note_on_c, 0, 89, 0
2, 277200, Note_on_c, 0, 86, 57
2, 277200, Note_on_c, 0, 89, 57
2, 277200, Note_on_c, 0, 70, 56
2, 277200, Note_on_c, 0, 74, 56
2, 277379, Note_on_c, 0, 74, 0
2, 277379, Note_on_c, 0, 70, 0
2, 277380, Note_on_c, 0, 89, 0
2, 277380, Note_on_c, 0, 86, 0
2, 277380, Note_on_c, 0, 77, 36
2, 277560, Note_on_c, 0, 77, 0
2, 277740, Note_on_c, 0, 77, 45
2, 277829, Note_on_c, 0, 77, 0
2, 277920, Note_on_c, 0, 82, 62
2, 277920, Note_on_c, 0, 65, 54
2, 277920, Note_on_c, 0, 70, 54
2, 278099, Note_on_c, 0, 70, 0
2, 278099, Note_on_c, 0, 65, 0
2, 278100, Note_on_c, 0, 82, 0
2, 278100, Note_on_c, 0, 89, 66
2, 278280, Note_on_c, 0, 89, 0
2, 278280, Note_on_c, 0, 82, 60
2, 278280, Note_on_c, 0, 89, 60
2, 278280, Note_on_c, 0, 65, 57
2, 278280, Note_on_c, 0, 70, 57
2, 278459, Note_on_c, 0, 70, 0
2, 278459, Note_on_c, 0, 65, 0
2, 278460, Note_on_c, 0, 89, 0
2, 278460, Note_on_c, 0, 82, 0
2, 278460, Note_on_c, 0, 77, 35
2, 278640, Note_on_c, 0, 77, 0
2, 278820, Note_on_c, 0, 77, 49
2, 278909, Note_on_c, 0, 77, 0
2, 279000, Note_on_c, 0, 87, 72
2, 279000, Note_on_c, 0, 63, 51
2, 279000, Note_on_c, 0, 65, 51
2, 279179, Note_on_c, 0, 65, 0
2, 279179, Note_on_c, 0, 63, 0
2, 279180, Note_on_c, 0, 87, 0
2, 279180, Note_on_c, 0, 89, 65
2, 279360, Note_on_c, 0, 89, 0
2, 279360, Note_on_c, 0, 87, 52
2, 279360, Note_on_c, 0, 89, 52
2, 279360, Note_on_c, 0, 63, 51
2, 279360, Note_on_c, 0, 65, 51
2, 279539, Note_on_c, 0, 65, 0
2, 279539, Note_on_c, 0, 63, 0
2, 279540, Note_on_c, 0, 89, 0
2, 279540, Note_on_c, 0, 87, 0
2, 279540, Note_on_c, 0, 77, 39
2, 279720, Note_on_c, 0, 77, 0
2, 279900, Note_on_c, 0, 77, 49
2, 279989, Note_on_c, 0, 77, 0
2, 280080, Note_on_c, 0, 87, 64
2, 280080, Note_on_c, 0, 63, 48
2, 280080, Note_on_c, 0, 65, 48
2, 280259, Note_on_c, 0, 65, 0
2, 280259, Note_on_c, 0, 63, 0
2, 280260, Note_on_c, 0, 87, 0
2, 280260, Note_on_c, 0, 89, 60
2, 280440, Note_on_c, 0, 89, 0
2, 280440, Note_on_c, 0, 87, 55
2, 280440, Note_on_c, 0, 89, 55
2, 280440, Note_on_c, 0, 63, 55
2, 280440, Note_on_c, 0, 65, 55
2, 280619, Note_on_c, 0, 65, 0
2, 280619, Note_on_c, 0, 63, 0
2, 280620, Note_on_c, 0, 89, 0
2, 280620, Note_on_c, 0, 87, 0
2, 280620, Note_on_c, 0, 77, 43
2, 280800, Note_on_c, 0, 77, 0
2, 280980, Note_on_c, 0, 77, 50
2, 281069, Note_on_c, 0, 77, 0
2, 281160, Note_on_c, 0, 86, 72
2, 281160, Note_on_c, 0, 62, 47
2, 281160, Note_on_c, 0, 65, 47
2, 281339, Note_on_c, 0, 65, 0
2, 281339, Note_on_c, 0, 62, 0
2, 281340, Note_on_c, 0, 86, 0
2, 281340, Note_on_c, 0, 89, 61
2, 281520, Note_on_c, 0, 89, 0
2, 281520, Note_on_c, 0, 86, 54
2, 281520, Note_on_c, 0, 89, 54
2, 281520, Note_on_c, 0, 62, 54
2, 281520, Note_on_c, 0, 65, 54
2, 281699, Note_on_c, 0, 65, 0
2, 281699, Note_on_c, 0, 62, 0
2, 281700, Note_on_c, 0, 89, 0
2, 281700, Note_on_c, 0, 86, 0
2, 281700, Note_on_c, 0, 77, 37
2, 281880, Note_on_c, 0, 77, 0
2, 282060, Note_on_c, 0, 77, 48
2, 282149, Note_on_c, 0, 77, 0
2, 282240, Note_on_c, 0, 86, 67
2, 282240, Note_on_c, 0, 62, 50
2, 282240, Note_on_c, 0, 65, 50
2, 282419, Note_on_c, 0, 65, 0
2, 282419, Note_on_c, 0, 62, 0
2, 282420, Note_on_c, 0, 86, 0
2, 282420, Note_on_c, 0, 89, 64
2, 282600, Note_on_c, 0, 89, 0
2, 282600, Note_on_c, 0, 86, 54
2, 282600, Note_on_c, 0, 89, 54
2, 282600, Note_on_c, 0, 62, 56
2, 282600, Note_on_c, 0, 65, 56
2, 282779, Note_on_c, 0, 65, 0
2, 282779, Note_on_c, 0, 62, 0
2, 282780, Note_on_c, 0, 89, 0
2, 282780, Note_on_c, 0, 86, 0
2, 282780, Note_on_c, 0, 77, 40
2, 282960, Note_on_c, 0, 77, 0
2, 283140, Note_on_c, 0, 77, 54
2, 283229, Note_on_c, 0, 77, 0
2, 283320, Note_on_c, 0, 86, 66
2, 283320, Note_on_c, 0, 62, 48
2, 283320, Note_on_c, 0, 65, 48
2, 283499, Note_on_c, 0, 65, 0
2, 283499, Note_on_c, 0, 62, 0
2, 283500, Note_on_c, 0, 86, 0
2, 283500, Note_on_c, 0, 89, 63
2, 283680, Note_on_c, 0, 89, 0
2, 283680, Note_on_c, 0, 86, 58
2, 283680, Note_on_c, 0, 89, 58
2, 283680, Note_on_c, 0, 62, 54
2, 283680, Note_on_c, 0, 65, 54
2, 283859, Note_on_c, 0, 65, 0
2, 283859, Note_on_c, 0, 62, 0
2, 283860, Note_on_c, 0, 89, 0
2, 283860, Note_on_c, 0, 86, 0
2, 283860, Note_on_c, 0, 77, 35
2, 284040, Note_on_c, 0, 77, 0
2, 284220, Note_on_c, 0, 77, 57
2, 284309, Note_on_c, 0, 77, 0
2, 284400, Note_on_c, 0, 86, 58
2, 284400, Note_on_c, 0, 62, 47
2, 284400, Note_on_c, 0, 65, 47
2, 284579, Note_on_c, 0, 65, 0
2, 284579, Note_on_c, 0, 62, 0
2, 284580, Note_on_c, 0, 86, 0
2, 284580, Note_on_c, 0, 89, 60
2, 284760, Note_on_c, 0, 89, 0
2, 284760, Note_on_c, 0, 86, 61
2, 284760, Note_on_c, 0, 89, 61
2, 284760, Note_on_c, 0, 62, 52
2, 284760, Note_on_c, 0, 65, 52
2, 284939, Note_on_c, 0, 65, 0
2, 284939, Note_on_c, 0, 62, 0
2, 284940, Note_on_c, 0, 89, 0
2, 284940, Note_on_c, 0, 86, 0
2, 284940, Note_on_c, 0, 77, 63
2, 285120, Note_on_c, 0, 77, 0
2, 285300, Note_on_c, 0, 79, 65
2, 285389, Note_on_c, 0, 79, 0
2, 285480, Note_on_c, 0, 84, 67
2, 285480, Note_on_c, 0, 63, 49
2, 285480, Note_on_c, 0, 67, 49
2, 285659, Note_on_c, 0, 67, 0
2, 285659, Note_on_c, 0, 63, 0
2, 285660, Note_on_c, 0, 84, 0
2, 285660, Note_on_c, 0, 91, 68
2, 285840, Note_on_c, 0, 91, 0
2, 285840, Note_on_c, 0, 84, 70
2, 285840, Note_on_c, 0, 91, 70
2, 285840, Note_on_c, 0, 63, 56
2, 285840, Note_on_c, 0, 67, 56
2, 286019, Note_on_c, 0, 67, 0
2, 286019, Note_on_c, 0, 63, 0
2, 286020, Note_on_c, 0, 91, 0
2, 286020, Note_on_c, 0, 84, 0
2, 286020, Note_on_c, 0, 79, 71
2, 286200, Note_on_c, 0, 79, 0
2, 286380, Note_on_c, 0, 79, 74
2, 286469, Note_on_c, 0, 79, 0
2, 286560, Note_on_c, 0, 86, 75
2, 286560, Note_on_c, 0, 65, 44
2, 286560, Note_on_c, 0, 74, 44
2, 286739, Note_on_c, 0, 74, 0
2, 286739, Note_on_c, 0, 65, 0
2, 286740, Note_on_c, 0, 86, 0
2, 286740, Note_on_c, 0, 91, 77
2, 286920, Note_on_c, 0, 91, 0
2, 286920, Note_on_c, 0, 86, 78
2, 286920, Note_on_c, 0, 91, 78
2, 286920, Note_on_c, 0, 65, 51
2, 286920, Note_on_c, 0, 74, 51
2, 287099, Note_on_c, 0, 74, 0
2, 287099, Note_on_c, 0, 65, 0
2, 287100, Note_on_c, 0, 91, 0
2, 287100, Note_on_c, 0, 86, 0
2, 287100, Note_on_c, 0, 79, 79
2, 287280, Note_on_c, 0, 79, 0
2, 287280, Note_on_c, 0, 79, 81
2, 287280, Note_on_c, 0, 84, 81
2, 287280, Note_on_c, 0, 91, 81
2, 287280, Note_on_c, 0, 67, 57
2, 287280, Note_on_c, 0, 75, 57
2, 287369, Note_on_c, 0, 75, 0
2, 287369, Note_on_c, 0, 91, 0
2, 287369, Note_on_c, 0, 79, 0
2, 287369, Note_on_c, 0, 84, 0
2, 287369, Note_on_c, 0, 67, 0
2, 288360, Note_on_c, 0, 67, 73
2, 288540, Note_on_c, 0, 67, 0
2, 288540, Note_on_c, 0, 66, 79
2, 288720, Note_on_c, 0, 66, 0
2, 288720, Note_on_c, 0, 67, 82
2, 288900, Note_on_c, 0, 67, 0
2, 288900, Note_on_c, 0, 71, 89
2, 289080, Note_on_c, 0, 71, 0
2, 289080, Note_on_c, 0, 72, 88
2, 289260, Note_on_c, 0, 72, 0
2, 289260, Note_on_c, 0, 75, 86
2, 289440, Note_on_c, 0, 75, 0
2, 289440, Note_on_c, 0, 78, 89
2, 289440, Note_on_c, 0, 66, 46
2, 290160, Note_on_c, 0, 66, 0
2, 290160, Note_on_c, 0, 78, 0
2, 290160, Note_on_c, 0, 79, 83
2, 290160, Note_on_c, 0, 67, 56
2, 290880, Note_on_c, 0, 67, 0
2, 290880, Note_on_c, 0, 79, 0
2, 290880, Note_on_c, 0, 81, 86
2, 290880, Note_on_c, 0, 69, 57
2, 291600, Note_on_c, 0, 69, 0
2, 291600, Note_on_c, 0, 81, 0
2, 291600, Note_on_c, 0, 84, 89
2, 291600, Note_on_c, 0, 72, 59
2, 292320, Note_on_c, 0, 72, 0
2, 292320, Note_on_c, 0, 84, 0
2, 292320, Note_on_c, 0, 82, 77
2, 292320, Note_on_c, 0, 70, 55
2, 293040, Note_on_c, 0, 70, 0
2, 293040, Note_on_c, 0, 82, 0
2, 293040, Note_on_c, 0, 86, 89
2, 293040, Note_on_c, 0, 74, 65
2, 293760, Note_on_c, 0, 74, 0
2, 293760, Note_on_c, 0, 86, 0
2, 293760, Note_on_c, 0, 87, 84
2, 293760, Note_on_c, 0, 75, 59
2, 294480, Note_on_c, 0, 75, 0
2, 294480, Note_on_c, 0, 87, 0
2, 294480, Note_on_c, 0, 86, 82
2, 294480, Note_on_c, 0, 74, 54
2, 295200, Note_on_c, 0, 74, 0
2, 295200, Note_on_c, 0, 86, 0
2, 295200, Note_on_c, 0, 79, 67
2, 295200, Note_on_c, 0, 67, 44
2, 295920, Note_on_c, 0, 67, 0
2, 295920, Note_on_c, 0, 79, 0
2, 295920, Note_on_c, 0, 78, 78
2, 295920, Note_on_c, 0, 66, 54
2, 296640, Note_on_c, 0, 66, 0
2, 296640, Note_on_c, 0, 78, 0
2, 296640, Note_on_c, 0, 79, 85
2, 296640, Note_on_c, 0, 67, 56
2, 297360, Note_on_c, 0, 67, 0
2, 297360, Note_on_c, 0, 79, 0
2, 297360, Note_on_c, 0, 84, 96
2, 297360, Note_on_c, 0, 72, 66
2, 298080, Note_on_c, 0, 72, 0
2, 298080, Note_on_c, 0, 84, 0
2, 298080, Note_on_c, 0, 86, 91
2, 298080, Note_on_c, 0, 74, 65
2, 298800, Note_on_c, 0, 74, 0
2, 298800, Note_on_c, 0, 86, 0
2, 298800, Note_on_c, 0, 84, 75
2, 298800, Note_on_c, 0, 72, 52
2, 299520, Note_on_c, 0, 72, 0
2, 299520, Note_on_c, 0, 84, 0
2, 299520, Note_on_c, 0, 77, 70
2, 299520, Note_on_c, 0, 65, 45
2, 300240, Note_on_c, 0, 65, 0
2, 300240, Note_on_c, 0, 77, 0
2, 300240, Note_on_c, 0, 76, 76
2, 300240, Note_on_c, 0, 64, 49
2, 300960, Note_on_c, 0, 64, 0
2, 300960, Note_on_c, 0, 76, 0
2, 300960, Note_on_c, 0, 77, 81
2, 300960, Note_on_c, 0, 65, 54
2, 301680, Note_on_c, 0, 65, 0
2, 301680, Note_on_c, 0, 77, 0
2, 301680, Note_on_c, 0, 78, 83
2, 301680, Note_on_c, 0, 66, 58
2, 302400, Note_on_c, 0, 66, 0
2, 302400, Note_on_c, 0, 78, 0
2, 302400, Note_on_c, 0, 79, 86
2, 302400, Note_on_c, 0, 67, 55
2, 303120, Note_on_c, 0, 67, 0
2, 303120, Note_on_c, 0, 79, 0
2, 303120, Note_on_c, 0, 81, 87
2, 303120, Note_on_c, 0, 69, 61
2, 303840, Note_on_c, 0, 69, 0
2, 303840, Note_on_c, 0, 81, 0
2, 303840, Note_on_c, 0, 82, 86
2, 303840, Note_on_c, 0, 70, 59
2, 304560, Note_on_c, 0, 70, 0
2, 304560, Note_on_c, 0, 82, 0
2, 304560, Note_on_c, 0, 73, 87
2, 304560, Note_on_c, 0, 85, 87
2, 304560, Note_on_c, 0, 61, 41
2, 305280, Note_on_c, 0, 61, 0
2, 305280, Note_on_c, 0, 85, 0
2, 305280, Note_on_c, 0, 73, 0
2, 305280, Note_on_c, 0, 74, 92
2, 305280, Note_on_c, 0, 86, 92
2, 305280, Note_on_c, 0, 62, 57
2, 306000, Note_on_c, 0, 62, 0
2, 306000, Note_on_c, 0, 86, 0
2, 306000, Note_on_c, 0, 74, 0
2, 306000, Note_on_c, 0, 79, 95
2, 306000, Note_on_c, 0, 91, 95
2, 306000, Note_on_c, 0, 67, 63
2, 306720, Note_on_c, 0, 67, 0
2, 306720, Note_on_c, 0, 91, 0
2, 306720, Note_on_c, 0, 79, 0
2, 306720, Note_on_c, 0, 77, 72
2, 306720, Note_on_c, 0, 89, 72
2, 306720, Note_on_c, 0, 65, 57
2, 307440, Note_on_c, 0, 65, 0
2, 307440, Note_on_c, 0, 89, 0
2, 307440, Note_on_c, 0, 77, 0
2, 307440, Note_on_c, 0, 75, 74
2, 307440, Note_on_c, 0, 87, 74
2, 307440, Note_on_c, 0, 63, 54
2, 308160, Note_on_c, 0, 63, 0
2, 308160, Note_on_c, 0, 87, 0
2, 308160, Note_on_c, 0, 75, 0
2, 308160, Note_on_c, 0, 74, 79
2, 308160, Note_on_c, 0, 86, 79
2, 308160, Note_on_c, 0, 62, 54
2, 308880, Note_on_c, 0, 62, 0
2, 308880, Note_on_c, 0, 86, 0
2, 308880, Note_on_c, 0, 74, 0
2, 308880, Note_on_c, 0, 82, 69
2, 308880, Note_on_c, 0, 70, 63
2, 309060, Note_on_c, 0, 70, 0
2, 309060, Note_on_c, 0, 82, 0
2, 309240, Note_on_c, 0, 73, 68
2, 309420, Note_on_c, 0, 73, 0
2, 309420, Note_on_c, 0, 74, 83
2, 309600, Note_on_c, 0, 74, 0
2, 309600, Note_on_c, 0, 76, 90
2, 309780, Note_on_c, 0, 76, 0
2, 309780, Note_on_c, 0, 77, 84
2, 309960, Note_on_c, 0, 77, 0
2, 309960, Note_on_c, 0, 81, 92
2, 309960, Note_on_c, 0, 69, 48
2, 310140, Note_on_c, 0, 69, 0
2, 310140, Note_on_c, 0, 81, 0
2, 310140, Note_on_c, 0, 82, 88
2, 310140, Note_on_c, 0, 70, 57
2, 310320, Note_on_c, 0, 70, 0
2, 310320, Note_on_c, 0, 82, 0
2, 310320, Note_on_c, 0, 86, 90
2, 310320, Note_on_c, 0, 74, 64
2, 311040, Note_on_c, 0, 74, 0
2, 311040, Note_on_c, 0, 86, 0
2, 311040, Note_on_c, 0, 82, 67
2, 311040, Note_on_c, 0, 70, 47
2, 311220, Note_on_c, 0, 70, 0
2, 311220, Note_on_c, 0, 82, 0
2, 311400, Note_on_c, 0, 73, 76
2, 311580, Note_on_c, 0, 73, 0
2, 311580, Note_on_c, 0, 74, 84
2, 311760, Note_on_c, 0, 74, 0
2, 311760, Note_on_c, 0, 76, 88
2, 311940, Note_on_c, 0, 76, 0
2, 311940, Note_on_c, 0, 77, 89
2, 312120, Note_on_c, 0, 77, 0
2, 312120, Note_on_c, 0, 81, 95
2, 312120, Note_on_c, 0, 69, 52
2, 312300, Note_on_c, 0, 69, 0
2, 312300, Note_on_c, 0, 81, 0
2, 312300, Note_on_c, 0, 82, 87
2, 312300, Note_on_c, 0, 70, 60
2, 312480, Note_on_c, 0, 70, 0
2, 312480, Note_on_c, 0, 82, 0
2, 312480, Note_on_c, 0, 86, 89
2, 312480, Note_on_c, 0, 74, 63
2, 313200, Note_on_c, 0, 74, 0
2, 313200, Note_on_c, 0, 86, 0
2, 313200, Note_on_c, 0, 82, 74
2, 313200, Note_on_c, 0, 70, 51
2, 313560, Note_on_c, 0, 70, 0
2, 313560, Note_on_c, 0, 82, 0
2, 313560, Note_on_c, 0, 81, 89
2, 313560, Note_on_c, 0, 86, 89
2, 313560, Note_on_c, 0, 69, 62
2, 313560, Note_on_c, 0, 74, 62
2, 313920, Note_on_c, 0, 74, 0
2, 313920, Note_on_c, 0, 81, 0
2, 313920, Note_on_c, 0, 86, 0
2, 313920, Note_on_c, 0, 69, 0
2, 313920, Note_on_c, 0, 82, 69
2, 313920, Note_on_c, 0, 70, 48
2, 314280, Note_on_c, 0, 70, 0
2, 314280, Note_on_c, 0, 82, 0
2, 314280, Note_on_c, 0, 81, 86
2, 314280, Note_on_c, 0, 86, 86
2, 314280, Note_on_c, 0, 69, 64
2, 314280, Note_on_c, 0, 74, 64
2, 314640, Note_on_c, 0, 74, 0
2, 314640, Note_on_c, 0, 81, 0
2, 314640, Note_on_c, 0, 86, 0
2, 314640, Note_on_c, 0, 69, 0
2, 314640, Note_on_c, 0, 82, 75
2, 314640, Note_on_c, 0, 70, 52
2, 315000, Note_on_c, 0, 70, 0
2, 315000, Note_on_c, 0, 82, 0
2, 315000, Note_on_c, 0, 81, 88
2, 315000, Note_on_c, 0, 86, 88
2, 315000, Note_on_c, 0, 69, 62
2, 315000, Note_on_c, 0, 74, 62
2, 315360, Note_on_c, 0, 74, 0
2, 315360, Note_on_c, 0, 81, 0
2, 315360, Note_on_c, 0, 86, 0
2, 315360, Note_on_c, 0, 69, 0
2, 315360, Note_on_c, 0, 82, 75
2, 315360, Note_on_c, 0, 70, 47
2, 315720, Note_on_c, 0, 70, 0
2, 315720, Note_on_c, 0, 82, 0
2, 315720, Note_on_c, 0, 81, 94
2, 315720, Note_on_c, 0, 86, 94
2, 315720, Note_on_c, 0, 69, 61
2, 315720, Note_on_c, 0, 74, 61
2, 316080, Note_on_c, 0, 74, 0
2, 316080, Note_on_c, 0, 81, 0
2, 316080, Note_on_c, 0, 86, 0
2, 316080, Note_on_c, 0, 69, 0
2, 316080, Note_on_c, 0, 82, 78
2, 316080, Note_on_c, 0, 70, 50
2, 316440, Note_on_c, 0, 70, 0
2, 316440, Note_on_c, 0, 82, 0
2, 316440, Note_on_c, 0, 81, 90
2, 316440, Note_on_c, 0, 86, 90
2, 316440, Note_on_c, 0, 69, 60
2, 316440, Note_on_c, 0, 74, 60
2, 316800, Note_on_c, 0, 74, 0
2, 316800, Note_on_c, 0, 81, 0
2, 316800, Note_on_c, 0, 86, 0
2, 316800, Note_on_c, 0, 69, 0
2, 316800, Note_on_c, 0, 82, 73
2, 316800, Note_on_c, 0, 70, 47
2, 317160, Note_on_c, 0, 70, 0
2, 317160, Note_on_c, 0, 82, 0
2, 317160, Note_on_c, 0, 81, 95
2, 317160, Note_on_c, 0, 86, 95
2, 317160, Note_on_c, 0, 69, 62
2, 317160, Note_on_c, 0, 74, 62
2, 317520, Note_on_c, 0, 74, 0
2, 317520, Note_on_c, 0, 81, 0
2, 317520, Note_on_c, 0, 86, 0
2, 317520, Note_on_c, 0, 69, 0
2, 317520, Note_on_c, 0, 82, 68
2, 317520, Note_on_c, 0, 70, 52
2, 317880, Note_on_c, 0, 70, 0
2, 317880, Note_on_c, 0, 82, 0
2, 318600, Note_on_c, 0, 82, 74
2, 318600, Note_on_c, 0, 94, 74
2, 318600, Note_on_c, 0, 70, 51
2, 318600, Note_on_c, 0, 74, 51
2, 318600, Note_on_c, 0, 77, 51
2, 318960, Note_on_c, 0, 77, 0
2, 318960, Note_on_c, 0, 70, 0
2, 318960, Note_on_c, 0, 82, 0
2, 318960, Note_on_c, 0, 94, 0
2, 318960, Note_on_c, 0, 74, 0
2, 318960, End_track
3, 0, Start_track
3, 0, Title_t, "Secondo"
3, 0, Program_c, 0, 0
3, 0, Control_c, 0, 7, 105
3, 0, Control_c, 0, 10, 48
3, 0, Control_c, 0, 91, 60
3, 0, Control_c, 0, 121, 0
3, 0, Control_c, 0, 121, 0
3, 0, Control_c, 0, 91, 60
3, 0, Control_c, 0, 10, 51
3, 0, Control_c, 0, 7, 100
3, 0, Note_on_c, 0, 29, 93
3, 0, Note_on_c, 0, 41, 93
3, 180, Note_on_c, 0, 41, 0
3, 180, Note_on_c, 0, 29, 0
3, 360, Note_on_c, 0, 53, 50
3, 360, Note_on_c, 0, 58, 50
3, 360, Note_on_c, 0, 62, 50
3, 1080, Note_on_c, 0, 29, 49
3, 1080, Note_on_c, 0, 41, 49
3, 1260, Note_on_c, 0, 41, 0
3, 1260, Note_on_c, 0, 29, 0
3, 1440, Note_on_c, 0, 53, 0
3, 1440, Note_on_c, 0, 58, 0
3, 1440, Note_on_c, 0, 62, 0
3, 1440, Note_on_c, 0, 53, 55
3, 1440, Note_on_c, 0, 58, 55
3, 1440, Note_on_c, 0, 62, 55
3, 2160, Note_on_c, 0, 29, 45
3, 2160, Note_on_c, 0, 41, 45
3, 2340, Note_on_c, 0, 41, 0
3, 2340, Note_on_c, 0, 29, 0
3, 2520, Note_on_c, 0, 53, 0
3, 2520, Note_on_c, 0, 58, 0
3, 2520, Note_on_c, 0, 62, 0
3, 2520, Note_on_c, 0, 53, 58
3, 2520, Note_on_c, 0, 58, 58
3, 2520, Note_on_c, 0, 62, 58
3, 3240, Note_on_c, 0, 29, 49
3, 3240, Note_on_c, 0, 41, 49
3, 3420, Note_on_c, 0, 41, 0
3, 3420, Note_on_c, 0, 29, 0
3, 3600, Note_on_c, 0, 53, 0
3, 3600, Note_on_c, 0, 58, 0
3, 3600, Note_on_c, 0, 62, 0
3, 3600, Note_on_c, 0, 53, 60
3, 3600, Note_on_c, 0, 58, 60
3, 3600, Note_on_c, 0, 62, 60
3, 3779, Note_on_c, 0, 62, 0
3, 3779, Note_on_c, 0, 58, 0
3, 3779, Note_on_c, 0, 53, 0
3, 3960, Note_on_c, 0, 53, 61
3, 3960, Note_on_c, 0, 59, 61
3, 3960, Note_on_c, 0, 62, 61
3, 4139, Note_on_c, 0, 62, 0
3, 4139, Note_on_c, 0, 59, 0
3, 4139, Note_on_c, 0, 53, 0
3, 4320, Note_on_c, 0, 29, 52
3, 4320, Note_on_c, 0, 41, 52
3, 4500, Note_on_c, 0, 41, 0
3, 4500, Note_on_c, 0, 29, 0
3, 4680, Note_on_c, 0, 55, 63
3, 4680, Note_on_c, 0, 60, 63
3, 4680, Note_on_c, 0, 63, 63
3, 5400, Note_on_c, 0, 29, 45
3, 5400, Note_on_c, 0, 41, 45
3, 5580, Note_on_c, 0, 41, 0
3, 5580, Note_on_c, 0, 29, 0
3, 5760, Note_on_c, 0, 55, 0
3, 5760, Note_on_c, 0, 60, 0
3, 5760, Note_on_c, 0, 63, 0
3, 5760, Note_on_c, 0, 55, 65
3, 5760, Note_on_c, 0, 60, 65
3, 5760, Note_on_c, 0, 63, 65
3, 6480, Note_on_c, 0, 29, 52
3, 6480, Note_on_c, 0, 41, 52
3, 6660, Note_on_c, 0, 41, 0
3, 6660, Note_on_c, 0, 29, 0
3, 6840, Note_on_c, 0, 55, 0
3, 6840, Note_on_c, 0, 60, 0
3, 6840, Note_on_c, 0, 63, 0
3, 6840, Note_on_c, 0, 55, 67
3, 6840, Note_on_c, 0, 60, 67
3, 6840, Note_on_c, 0, 63, 67
3, 7560, Note_on_c, 0, 29, 48
3, 7560, Note_on_c, 0, 41, 48
3, 7740, Note_on_c, 0, 41, 0
3, 7740, Note_on_c, 0, 29, 0
3, 7920, Note_on_c, 0, 55, 0
3, 7920, Note_on_c, 0, 60, 0
3, 7920, Note_on_c, 0, 63, 0
3, 7920, Note_on_c, 0, 55, 70
3, 7920, Note_on_c, 0, 60, 70
3, 7920, Note_on_c, 0, 63, 70
3, 8099, Note_on_c, 0, 63, 0
3, 8099, Note_on_c, 0, 60, 0
3, 8099, Note_on_c, 0, 55, 0
3, 8280, Note_on_c, 0, 55, 71
3, 8280, Note_on_c, 0, 61, 71
3, 8280, Note_on_c, 0, 64, 71
3, 8459, Note_on_c, 0, 64, 0
3, 8459, Note_on_c, 0, 61, 0
3, 8459, Note_on_c, 0, 55, 0
3, 8640, Note_on_c, 0, 29, 45
3, 8640, Note_on_c, 0, 41, 45
3, 8820, Note_on_c, 0, 41, 0
3, 8820, Note_on_c, 0, 29, 0
3, 9000, Note_on_c, 0, 53, 72
3, 9000, Note_on_c, 0, 57, 72
3, 9000, Note_on_c, 0, 62, 72
3, 9000, Note_on_c, 0, 65, 72
3, 10080, Note_on_c, 0, 65, 0
3, 10080, Note_on_c, 0, 53, 0
3, 10080, Note_on_c, 0, 57, 0
3, 10080, Note_on_c, 0, 62, 0
3, 10080, Note_on_c, 0, 53, 75
3, 10080, Note_on_c, 0, 57, 75
3, 10080, Note_on_c, 0, 62, 75
3, 10080, Note_on_c, 0, 65, 75
3, 10800, Note_on_c, 0, 65, 0
3, 10800, Note_on_c, 0, 53, 0
3, 10800, Note_on_c, 0, 57, 0
3, 10800, Note_on_c, 0, 62, 0
3, 10800, Note_on_c, 0, 29, 50
3, 10800, Note_on_c, 0, 41, 50
3, 10980, Note_on_c, 0, 41, 0
3, 10980, Note_on_c, 0, 29, 0
3, 11160, Note_on_c, 0, 55, 77
3, 11160, Note_on_c, 0, 58, 77
3, 11160, Note_on_c, 0, 63, 77
3, 11160, Note_on_c, 0, 67, 77
3, 12240, Note_on_c, 0, 67, 0
3, 12240, Note_on_c, 0, 55, 0
3, 12240, Note_on_c, 0, 58, 0
3, 12240, Note_on_c, 0, 63, 0
3, 12240, Note_on_c, 0, 55, 79
3, 12240, Note_on_c, 0, 58, 79
3, 12240, Note_on_c, 0, 63, 79
3, 12240, Note_on_c, 0, 67, 79
3, 12960, Note_on_c, 0, 67, 0
3, 12960, Note_on_c, 0, 55, 0
3, 12960, Note_on_c, 0, 58, 0
3, 12960, Note_on_c, 0, 63, 0
3, 12960, Note_on_c, 0, 29, 82
3, 12960, Note_on_c, 0, 41, 82
3, 13140, Note_on_c, 0, 41, 0
3, 13140, Note_on_c, 0, 29, 0
3, 13320, Note_on_c, 0, 58, 92
3, 13320, Note_on_c, 0, 60, 92
3, 13320, Note_on_c, 0, 64, 92
3, 13320, Note_on_c, 0, 70, 92
3, 14040, Note_on_c, 0, 29, 84
3, 14040, Note_on_c, 0, 41, 84
3, 14220, Note_on_c, 0, 41, 0
3, 14220, Note_on_c, 0, 29, 0
3, 14400, Note_on_c, 0, 64, 0
3, 14400, Note_on_c, 0, 58, 0
3, 14400, Note_on_c, 0, 60, 0
3, 14400, Note_on_c, 0, 70, 0
3, 14400, Note_on_c, 0, 58, 99
3, 14400, Note_on_c, 0, 60, 99
3, 14400, Note_on_c, 0, 64, 99
3, 14400, Note_on_c, 0, 70, 99
3, 15120, Note_on_c, 0, 29, 81
3, 15120, Note_on_c, 0, 41, 81
3, 15300, Note_on_c, 0, 41, 0
3, 15300, Note_on_c, 0, 29, 0
3, 15480, Note_on_c, 0, 64, 0
3, 15480, Note_on_c, 0, 58, 0
3, 15480, Note_on_c, 0, 60, 0
3, 15480, Note_on_c, 0, 70, 0
3, 15480, Note_on_c, 0, 58, 106
3, 15480, Note_on_c, 0, 60, 106
3, 15480, Note_on_c, 0, 64, 106
3, 15480, Note_on_c, 0, 70, 106
3, 16200, Note_on_c, 0, 29, 80
3, 16200, Note_on_c, 0, 41, 80
3, 16380, Note_on_c, 0, 41, 0
3, 16380, Note_on_c, 0, 29, 0
3, 16560, Note_on_c, 0, 64, 0
3, 16560, Note_on_c, 0, 58, 0
3, 16560, Note_on_c, 0, 60, 0
3, 16560, Note_on_c, 0, 70, 0
3, 16560, Note_on_c, 0, 58, 113
3, 16560, Note_on_c, 0, 60, 113
3, 16560, Note_on_c, 0, 64, 113
3, 16560, Note_on_c, 0, 70, 113
3, 17280, Note_on_c, 0, 70, 0
3, 17280, Note_on_c, 0, 58, 0
3, 17280, Note_on_c, 0, 60, 0
3, 17280, Note_on_c, 0, 64, 0
3, 17280, Note_on_c, 0, 53, 92
3, 17280, Note_on_c, 0, 29, 79
3, 17280, Note_on_c, 0, 41, 79
3, 17460, Note_on_c, 0, 41, 0
3, 17460, Note_on_c, 0, 29, 0
3, 17460, Note_on_c, 0, 53, 0
3, 17640, Note_on_c, 0, 63, 122
3, 17640, Note_on_c, 0, 51, 122
3, 18360, Note_on_c, 0, 51, 0
3, 18360, Note_on_c, 0, 63, 0
3, 18360, Note_on_c, 0, 53, 98
3, 18360, Note_on_c, 0, 29, 81
3, 18360, Note_on_c, 0, 41, 81
3, 18540, Note_on_c, 0, 41, 0
3, 18540, Note_on_c, 0, 29, 0
3, 18540, Note_on_c, 0, 53, 0
3, 18720, Note_on_c, 0, 62, 122
3, 18720, Note_on_c, 0, 50, 122
3, 19440, Note_on_c, 0, 50, 0
3, 19440, Note_on_c, 0, 62, 0
3, 19440, Note_on_c, 0, 53, 95
3, 19440, Note_on_c, 0, 29, 84
3, 19440, Note_on_c, 0, 41, 84
3, 19620, Note_on_c, 0, 41, 0
3, 19620, Note_on_c, 0, 29, 0
3, 19620, Note_on_c, 0, 53, 0
3, 19800, Note_on_c, 0, 61, 122
3, 19800, Note_on_c, 0, 49, 122
3, 20520, Note_on_c, 0, 49, 0
3, 20520, Note_on_c, 0, 61, 0
3, 20520, Note_on_c, 0, 60, 122
3, 20520, Note_on_c, 0, 48, 110
3, 20880, Note_on_c, 0, 48, 0
3, 20880, Note_on_c, 0, 60, 0
3, 20880, Note_on_c, 0, 57, 122
3, 20880, Note_on_c, 0, 45, 117
3, 21240, Note_on_c, 0, 45, 0
3, 21240, Note_on_c, 0, 57, 0
3, 21240, Note_on_c, 0, 53, 122
3, 21240, Note_on_c, 0, 41, 117
3, 21600, Note_on_c, 0, 41, 0
3, 21600, Note_on_c, 0, 53, 0
3, 21600, Note_on_c, 0, 53, 106
3, 21600, Note_on_c, 0, 29, 90
3, 21600, Note_on_c, 0, 41, 90
3, 21780, Note_on_c, 0, 41, 0
3, 21780, Note_on_c, 0, 29, 0
3, 21780, Note_on_c, 0, 53, 0
3, 21960, Note_on_c, 0, 63, 122
3, 21960, Note_on_c, 0, 51, 122
3, 22680, Note_on_c, 0, 51, 0
3, 22680, Note_on_c, 0, 63, 0
3, 22680, Note_on_c, 0, 53, 89
3, 22680, Note_on_c, 0, 29, 76
3, 22680, Note_on_c, 0, 41, 76
3, 22860, Note_on_c, 0, 41, 0
3, 22860, Note_on_c, 0, 29, 0
3, 22860, Note_on_c, 0, 53, 0
3, 23040, Note_on_c, 0, 62, 122
3, 23040, Note_on_c, 0, 50, 122
3, 23760, Note_on_c, 0, 50, 0
3, 23760, Note_on_c, 0, 62, 0
3, 23760, Note_on_c, 0, 53, 92
3, 23760, Note_on_c, 0, 29, 79
3, 23760, Note_on_c, 0, 41, 79
3, 23940, Note_on_c, 0, 41, 0
3, 23940, Note_on_c, 0, 29, 0
3, 23940, Note_on_c, 0, 53, 0
3, 24120, Note_on_c, 0, 61, 122
3, 24120, Note_on_c, 0, 49, 122
3, 24840, Note_on_c, 0, 49, 0
3, 24840, Note_on_c, 0, 61, 0
3, 24840, Note_on_c, 0, 60, 122
3, 24840, Note_on_c, 0, 48, 108
3, 25200, Note_on_c, 0, 48, 0
3, 25200, Note_on_c, 0, 60, 0
3, 25200, Note_on_c, 0, 57, 122
3, 25200, Note_on_c, 0, 45, 118
3, 25560, Note_on_c, 0, 45, 0
3, 25560, Note_on_c, 0, 57, 0
3, 25560, Note_on_c, 0, 53, 122
3, 25560, Note_on_c, 0, 41, 114
3, 25920, Note_on_c, 0, 41, 0
3, 25920, Note_on_c, 0, 53, 0
3, 25920, Note_on_c, 0, 61, 122
3, 25920, Note_on_c, 0, 49, 122
3, 26280, Note_on_c, 0, 49, 0
3, 26280, Note_on_c, 0, 61, 0
3, 26280, Note_on_c, 0, 56, 122
3, 26280, Note_on_c, 0, 44, 113
3, 26640, Note_on_c, 0, 44, 0
3, 26640, Note_on_c, 0, 56, 0
3, 26640, Note_on_c, 0, 53, 122
3, 26640, Note_on_c, 0, 41, 118
3, 27000, Note_on_c, 0, 41, 0
3, 27000, Note_on_c, 0, 53, 0
3, 27000, Note_on_c, 0, 60, 122
3, 27000, Note_on_c, 0, 48, 122
3, 27360, Note_on_c, 0, 48, 0
3, 27360, Note_on_c, 0, 60, 0
3, 27360, Note_on_c, 0, 57, 122
3, 27360, Note_on_c, 0, 45, 114
3, 27720, Note_on_c, 0, 45, 0
3, 27720, Note_on_c, 0, 57, 0
3, 27720, Note_on_c, 0, 53, 122
3, 27720, Note_on_c, 0, 41, 112
3, 28080, Note_on_c, 0, 41, 0
3, 28080, Note_on_c, 0, 53, 0
3, 28080, Note_on_c, 0, 61, 122
3, 28080, Note_on_c, 0, 49, 122
3, 28440, Note_on_c, 0, 49, 0
3, 28440, Note_on_c, 0, 61, 0
3, 28440, Note_on_c, 0, 56, 122
3, 28440, Note_on_c, 0, 44, 109
3, 28800, Note_on_c, 0, 44, 0
3, 28800, Note_on_c, 0, 56, 0
3, 28800, Note_on_c, 0, 53, 122
3, 28800, Note_on_c, 0, 41, 113
3, 29160, Note_on_c, 0, 41, 0
3, 29160, Note_on_c, 0, 53, 0
3, 29160, Note_on_c, 0, 60, 122
3, 29160, Note_on_c, 0, 48, 122
3, 29520, Note_on_c, 0, 48, 0
3, 29520, Note_on_c, 0, 60, 0
3, 29520, Note_on_c, 0, 57, 122
3, 29520, Note_on_c, 0, 45, 108
3, 29880, Note_on_c, 0, 45, 0
3, 29880, Note_on_c, 0, 57, 0
3, 29880, Note_on_c, 0, 53, 122
3, 29880, Note_on_c, 0, 41, 110
3, 30240, Note_on_c, 0, 41, 0
3, 30240, Note_on_c, 0, 53, 0
3, 30960, Note_on_c, 0, 57, 96
3, 30960, Note_on_c, 0, 60, 96
3, 30960, Note_on_c, 0, 65, 96
3, 30960, Note_on_c, 0, 29, 85
3, 30960, Note_on_c, 0, 41, 85
3, 31320, Note_on_c, 0, 41, 0
3, 31320, Note_on_c, 0, 65, 0
3, 31320, Note_on_c, 0, 57, 0
3, 31320, Note_on_c, 0, 60, 0
3, 31320, Note_on_c, 0, 29, 0
3, 32040, Note_on_c, 0, 53, 94
3, 32040, Note_on_c, 0, 57, 94
3, 32040, Note_on_c, 0, 60, 94
3, 32040, Note_on_c, 0, 29, 79
3, 32040, Note_on_c, 0, 41, 79
3, 32400, Note_on_c, 0, 41, 0
3, 32400, Note_on_c, 0, 60, 0
3, 32400, Note_on_c, 0, 53, 0
3, 32400, Note_on_c, 0, 57, 0
3, 32400, Note_on_c, 0, 29, 0
3, 33120, Note_on_c, 0, 48, 91
3, 33120, Note_on_c, 0, 53, 91
3, 33120, Note_on_c, 0, 57, 91
3, 33120, Note_on_c, 0, 29, 85
3, 33120, Note_on_c, 0, 41, 85
3, 33480, Note_on_c, 0, 41, 0
3, 33480, Note_on_c, 0, 57, 0
3, 33480, Note_on_c, 0, 48, 0
3, 33480, Note_on_c, 0, 53, 0
3, 33480, Note_on_c, 0, 29, 0
3, 34200, Note_on_c, 0, 48, 95
3, 34200, Note_on_c, 0, 53, 95
3, 34200, Note_on_c, 0, 57, 95
3, 34200, Note_on_c, 0, 29, 81
3, 34200, Note_on_c, 0, 41, 81
3, 34560, Note_on_c, 0, 41, 0
3, 34560, Note_on_c, 0, 57, 0
3, 34560, Note_on_c, 0, 48, 0
3, 34560, Note_on_c, 0, 53, 0
3, 34560, Note_on_c, 0, 29, 0
3, 34920, Note_on_c, 0, 53, 96
3, 34920, Note_on_c, 0, 57, 96
3, 34920, Note_on_c, 0, 60, 96
3, 34920, Note_on_c, 0, 29, 79
3, 34920, Note_on_c, 0, 41, 79
3, 35280, Note_on_c, 0, 41, 0
3, 35280, Note_on_c, 0, 60, 0
3, 35280, Note_on_c, 0, 53, 0
3, 35280, Note_on_c, 0, 57, 0
3, 35280, Note_on_c, 0, 29, 0
3, 35280, Note_on_c, 0, 53, 106
3, 35280, Note_on_c, 0, 57, 106
3, 35280, Note_on_c, 0, 60, 106
3, 35280, Note_on_c, 0, 29, 94
3, 35280, Note_on_c, 0, 41, 94
3, 35640, Note_on_c, 0, 41, 0
3, 35640, Note_on_c, 0, 60, 0
3, 35640, Note_on_c, 0, 53, 0
3, 35640, Note_on_c, 0, 57, 0
3, 35640, Note_on_c, 0, 29, 0
3, 35640, Note_on_c, 0, 53, 111
3, 35640, Note_on_c, 0, 57, 111
3, 35640, Note_on_c, 0, 60, 111
3, 35640, Note_on_c, 0, 29, 91
3, 35640, Note_on_c, 0, 41, 91
3, 36000, Note_on_c, 0, 41, 0
3, 36000, Note_on_c, 0, 60, 0
3, 36000, Note_on_c, 0, 53, 0
3, 36000, Note_on_c, 0, 57, 0
3, 36000, Note_on_c, 0, 29, 0
3, 36000, Note_on_c, 0, 53, 107
3, 36000, Note_on_c, 0, 57, 107
3, 36000, Note_on_c, 0, 60, 107
3, 36000, Note_on_c, 0, 29, 87
3, 36000, Note_on_c, 0, 41, 87
3, 36360, Note_on_c, 0, 41, 0
3, 36360, Note_on_c, 0, 60, 0
3, 36360, Note_on_c, 0, 53, 0
3, 36360, Note_on_c, 0, 57, 0
3, 36360, Note_on_c, 0, 29, 0
3, 36360, Note_on_c, 0, 53, 104
3, 36360, Note_on_c, 0, 57, 104
3, 36360, Note_on_c, 0, 60, 104
3, 36360, Note_on_c, 0, 29, 94
3, 36360, Note_on_c, 0, 41, 94
3, 36720, Note_on_c, 0, 41, 0
3, 36720, Note_on_c, 0, 60, 0
3, 36720, Note_on_c, 0, 53, 0
3, 36720, Note_on_c, 0, 57, 0
3, 36720, Note_on_c, 0, 29, 0
3, 36720, Note_on_c, 0, 53, 108
3, 36720, Note_on_c, 0, 57, 108
3, 36720, Note_on_c, 0, 60, 108
3, 36720, Note_on_c, 0, 29, 89
3, 36720, Note_on_c, 0, 41, 89
3, 37080, Note_on_c, 0, 41, 0
3, 37080, Note_on_c, 0, 60, 0
3, 37080, Note_on_c, 0, 53, 0
3, 37080, Note_on_c, 0, 57, 0
3, 37080, Note_on_c, 0, 29, 0
3, 37080, Note_on_c, 0, 53, 112
3, 37080, Note_on_c, 0, 58, 112
3, 37080, Note_on_c, 0, 61, 112
3, 37080, Note_on_c, 0, 29, 90
3, 37080, Note_on_c, 0, 41, 90
3, 37440, Note_on_c, 0, 41, 0
3, 37440, Note_on_c, 0, 61, 0
3, 37440, Note_on_c, 0, 53, 0
3, 37440, Note_on_c, 0, 58, 0
3, 37440, Note_on_c, 0, 29, 0
3, 37440, Note_on_c, 0, 53, 104
3, 37440, Note_on_c, 0, 55, 104
3, 37440, Note_on_c, 0, 58, 104
3, 37440, Note_on_c, 0, 29, 90
3, 37440, Note_on_c, 0, 41, 90
3, 37800, Note_on_c, 0, 41, 0
3, 37800, Note_on_c, 0, 58, 0
3, 37800, Note_on_c, 0, 53, 0
3, 37800, Note_on_c, 0, 55, 0
3, 37800, Note_on_c, 0, 29, 0
3, 37800, Note_on_c, 0, 53, 117
3, 37800, Note_on_c, 0, 57, 117
3, 37800, Note_on_c, 0, 60, 117
3, 37800, Note_on_c, 0, 29, 95
3, 37800, Note_on_c, 0, 41, 95
3, 37980, Note_on_c, 0, 41, 0
3, 37980, Note_on_c, 0, 60, 0
3, 37980, Note_on_c, 0, 53, 0
3, 37980, Note_on_c, 0, 57, 0
3, 37980, Note_on_c, 0, 29, 0
3, 38880, Note_on_c, 0, 34, 46
3, 38956, Note_on_c, 0, 46, 46
3, 39240, Note_on_c, 0, 46, 0
3, 39240, Note_on_c, 0, 34, 0
3, 39240, Note_on_c, 0, 53, 49
3, 39419, Note_on_c, 0, 53, 0
3, 39600, Note_on_c, 0, 53, 53
3, 39779, Note_on_c, 0, 53, 0
3, 39960, Note_on_c, 0, 29, 49
3, 40036, Note_on_c, 0, 41, 49
3, 40320, Note_on_c, 0, 41, 0
3, 40320, Note_on_c, 0, 29, 0
3, 40320, Note_on_c, 0, 53, 46
3, 40499, Note_on_c, 0, 53, 0
3, 40680, Note_on_c, 0, 53, 52
3, 40859, Note_on_c, 0, 53, 0
3, 41040, Note_on_c, 0, 34, 47
3, 41116, Note_on_c, 0, 46, 47
3, 41400, Note_on_c, 0, 46, 0
3, 41400, Note_on_c, 0, 34, 0
3, 41400, Note_on_c, 0, 53, 50
3, 41579, Note_on_c, 0, 53, 0
3, 41760, Note_on_c, 0, 53, 53
3, 41939, Note_on_c, 0, 53, 0
3, 42120, Note_on_c, 0, 29, 46
3, 42196, Note_on_c, 0, 41, 46
3, 42480, Note_on_c, 0, 41, 0
3, 42480, Note_on_c, 0, 29, 0
3, 42480, Note_on_c, 0, 53, 51
3, 42659, Note_on_c, 0, 53, 0
3, 42840, Note_on_c, 0, 53, 55
3, 43019, Note_on_c, 0, 53, 0
3, 43200, Note_on_c, 0, 58, 59
3, 43200, Note_on_c, 0, 34, 49
3, 43276, Note_on_c, 0, 46, 49
3, 43560, Note_on_c, 0, 46, 0
3, 43560, Note_on_c, 0, 34, 0
3, 44280, Note_on_c, 0, 58, 0
3, 44280, Note_on_c, 0, 57, 52
3, 44280, Note_on_c, 0, 29, 51
3, 44356, Note_on_c, 0, 41, 51
3, 44640, Note_on_c, 0, 41, 0
3, 44640, Note_on_c, 0, 29, 0
3, 45360, Note_on_c, 0, 57, 0
3, 45360, Note_on_c, 0, 58, 53
3, 45360, Note_on_c, 0, 34, 47
3, 45436, Note_on_c, 0, 46, 47
3, 45720, Note_on_c, 0, 46, 0
3, 45720, Note_on_c, 0, 34, 0
3, 46080, Note_on_c, 0, 58, 0
3, 46080, Note_on_c, 0, 55, 55
3, 46440, Note_on_c, 0, 55, 0
3, 46440, Note_on_c, 0, 57, 52
3, 46440, Note_on_c, 0, 29, 45
3, 46516, Note_on_c, 0, 41, 45
3, 46800, Note_on_c, 0, 41, 0
3, 46800, Note_on_c, 0, 29, 0
3, 46800, Note_on_c, 0, 57, 0
3, 46800, Note_on_c, 0, 58, 57
3, 47160, Note_on_c, 0, 58, 0
3, 47160, Note_on_c, 0, 55, 50
3, 47520, Note_on_c, 0, 55, 0
3, 47520, Note_on_c, 0, 57, 56
3, 47520, Note_on_c, 0, 36, 48
3, 47596, Note_on_c, 0, 48, 48
3, 47880, Note_on_c, 0, 48, 0
3, 47880, Note_on_c, 0, 36, 0
3, 48240, Note_on_c, 0, 57, 0
3, 48240, Note_on_c, 0, 60, 63
3, 48600, Note_on_c, 0, 60, 0
3, 48600, Note_on_c, 0, 62, 58
3, 48600, Note_on_c, 0, 33, 50
3, 48676, Note_on_c, 0, 45, 50
3, 48960, Note_on_c, 0, 45, 0
3, 48960, Note_on_c, 0, 33, 0
3, 49320, Note_on_c, 0, 62, 0
3, 49320, Note_on_c, 0, 59, 57
3, 49680, Note_on_c, 0, 59, 0
3, 49680, Note_on_c, 0, 60, 55
3, 49680, Note_on_c, 0, 32, 53
3, 49756, Note_on_c, 0, 44, 53
3, 50040, Note_on_c, 0, 44, 0
3, 50040, Note_on_c, 0, 32, 0
3, 50760, Note_on_c, 0, 33, 66
3, 50836, Note_on_c, 0, 45, 67
3, 51120, Note_on_c, 0, 45, 0
3, 51120, Note_on_c, 0, 33, 0
3, 51840, Note_on_c, 0, 60, 0
3, 51840, Note_on_c, 0, 65, 81
3, 51840, Note_on_c, 0, 29, 81
3, 51916, Note_on_c, 0, 41, 82
3, 52200, Note_on_c, 0, 41, 0
3, 52200, Note_on_c, 0, 29, 0
3, 52920, Note_on_c, 0, 65, 0
3, 52920, Note_on_c, 0, 64, 79
3, 52920, Note_on_c, 0, 31, 73
3, 52996, Note_on_c, 0, 43, 73
3, 53280, Note_on_c, 0, 43, 0
3, 53280, Note_on_c, 0, 31, 0
3, 54000, Note_on_c, 0, 64, 0
3, 54000, Note_on_c, 0, 63, 75
3, 54000, Note_on_c, 0, 32, 70
3, 54076, Note_on_c, 0, 44, 70
3, 54360, Note_on_c, 0, 44, 0
3, 54360, Note_on_c, 0, 32, 0
3, 54720, Note_on_c, 0, 63, 0
3, 54720, Note_on_c, 0, 60, 74
3, 55080, Note_on_c, 0, 60, 0
3, 55080, Note_on_c, 0, 63, 82
3, 55080, Note_on_c, 0, 33, 69
3, 55156, Note_on_c, 0, 45, 69
3, 55440, Note_on_c, 0, 45, 0
3, 55440, Note_on_c, 0, 33, 0
3, 55440, Note_on_c, 0, 63, 0
3, 55440, Note_on_c, 0, 62, 82
3, 55800, Note_on_c, 0, 62, 0
3, 55800, Note_on_c, 0, 60, 78
3, 56160, Note_on_c, 0, 60, 0
3, 56160, Note_on_c, 0, 67, 95
3, 56160, Note_on_c, 0, 34, 70
3, 56236, Note_on_c, 0, 46, 70
3, 56520, Note_on_c, 0, 46, 0
3, 56520, Note_on_c, 0, 34, 0
3, 56880, Note_on_c, 0, 67, 0
3, 56880, Note_on_c, 0, 65, 78
3, 57240, Note_on_c, 0, 65, 0
3, 57240, Note_on_c, 0, 63, 81
3, 57240, Note_on_c, 0, 29, 81
3, 57316, Note_on_c, 0, 41, 80
3, 57600, Note_on_c, 0, 41, 0
3, 57600, Note_on_c, 0, 29, 0
3, 57960, Note_on_c, 0, 63, 0
3, 57960, Note_on_c, 0, 62, 75
3, 58320, Note_on_c, 0, 62, 0
3, 58320, Note_on_c, 0, 62, 72
3, 58320, Note_on_c, 0, 33, 72
3, 58396, Note_on_c, 0, 45, 72
3, 58680, Note_on_c, 0, 45, 0
3, 58680, Note_on_c, 0, 33, 0
3, 58680, Note_on_c, 0, 62, 0
3, 58680, Note_on_c, 0, 60, 70
3, 59040, Note_on_c, 0, 60, 0
3, 59040, Note_on_c, 0, 59, 67
3, 59400, Note_on_c, 0, 59, 0
3, 59400, Note_on_c, 0, 60, 64
3, 59400, Note_on_c, 0, 29, 64
3, 59456, Note_on_c, 0, 41, 64
3, 59760, Note_on_c, 0, 41, 0
3, 59760, Note_on_c, 0, 29, 0
3, 59760, Note_on_c, 0, 60, 0
3, 59760, Note_on_c, 0, 55, 61
3, 60120, Note_on_c, 0, 55, 0
3, 60120, Note_on_c, 0, 57, 58
3, 60480, Note_on_c, 0, 57, 0
3, 60480, Note_on_c, 0, 58, 55
3, 60480, Note_on_c, 0, 34, 55
3, 60556, Note_on_c, 0, 46, 55
3, 60840, Note_on_c, 0, 46, 0
3, 60840, Note_on_c, 0, 34, 0
3, 61560, Note_on_c, 0, 58, 0
3, 61560, Note_on_c, 0, 57, 52
3, 61560, Note_on_c, 0, 29, 54
3, 61636, Note_on_c, 0, 41, 54
3, 61920, Note_on_c, 0, 41, 0
3, 61920, Note_on_c, 0, 29, 0
3, 62640, Note_on_c, 0, 57, 0
3, 62640, Note_on_c, 0, 58, 56
3, 62640, Note_on_c, 0, 34, 52
3, 62716, Note_on_c, 0, 46, 52
3, 63000, Note_on_c, 0, 46, 0
3, 63000, Note_on_c, 0, 34, 0
3, 63360, Note_on_c, 0, 58, 0
3, 63360, Note_on_c, 0, 55, 54
3, 63720, Note_on_c, 0, 55, 0
3, 63720, Note_on_c, 0, 57, 57
3, 63720, Note_on_c, 0, 38, 54
3, 63796, Note_on_c, 0, 50, 54
3, 64080, Note_on_c, 0, 50, 0
3, 64080, Note_on_c, 0, 38, 0
3, 64080, Note_on_c, 0, 57, 0
3, 64080, Note_on_c, 0, 58, 62
3, 64440, Note_on_c, 0, 58, 0
3, 64440, Note_on_c, 0, 55, 54
3, 64800, Note_on_c, 0, 55, 0
3, 64800, Note_on_c, 0, 57, 55
3, 64800, Note_on_c, 0, 36, 50
3, 64876, Note_on_c, 0, 48, 50
3, 65160, Note_on_c, 0, 48, 0
3, 65160, Note_on_c, 0, 36, 0
3, 65520, Note_on_c, 0, 57, 0
3, 65520, Note_on_c, 0, 60, 72
3, 65880, Note_on_c, 0, 60, 0
3, 65880, Note_on_c, 0, 60, 92
3, 65880, Note_on_c, 0, 38, 50
3, 65956, Note_on_c, 0, 50, 50
3, 66240, Note_on_c, 0, 50, 0
3, 66240, Note_on_c, 0, 38, 0
3, 66600, Note_on_c, 0, 60, 0
3, 66600, Note_on_c, 0, 59, 75
3, 66600, Note_on_c, 0, 37, 48
3, 66676, Note_on_c, 0, 49, 48
3, 66960, Note_on_c, 0, 49, 0
3, 66960, Note_on_c, 0, 37, 0
3, 66960, Note_on_c, 0, 59, 0
3, 66960, Note_on_c, 0, 60, 67
3, 66960, Note_on_c, 0, 36, 56
3, 67036, Note_on_c, 0, 48, 56
3, 67320, Note_on_c, 0, 48, 0
3, 67320, Note_on_c, 0, 36, 0
3, 68040, Note_on_c, 0, 36, 48
3, 68116, Note_on_c, 0, 48, 48
3, 68400, Note_on_c, 0, 48, 0
3, 68400, Note_on_c, 0, 36, 0
3, 69120, Note_on_c, 0, 60, 0
3, 69120, Note_on_c, 0, 36, 49
3, 69196, Note_on_c, 0, 48, 49
3, 69480, Note_on_c, 0, 48, 0
3, 69480, Note_on_c, 0, 36, 0
3, 69480, Note_on_c, 0, 54, 60
3, 69480, Note_on_c, 0, 57, 60
3, 69480, Note_on_c, 0, 60, 60
3, 69659, Note_on_c, 0, 60, 0
3, 69659, Note_on_c, 0, 57, 0
3, 69659, Note_on_c, 0, 54, 0
3, 69840, Note_on_c, 0, 54, 68
3, 69840, Note_on_c, 0, 57, 68
3, 69840, Note_on_c, 0, 60, 68
3, 70019, Note_on_c, 0, 60, 0
3, 70019, Note_on_c, 0, 57, 0
3, 70019, Note_on_c, 0, 54, 0
3, 70200, Note_on_c, 0, 36, 51
3, 70276, Note_on_c, 0, 48, 51
3, 70560, Note_on_c, 0, 48, 0
3, 70560, Note_on_c, 0, 36, 0
3, 70560, Note_on_c, 0, 55, 57
3, 70560, Note_on_c, 0, 58, 57
3, 70560, Note_on_c, 0, 60, 57
3, 70739, Note_on_c, 0, 60, 0
3, 70739, Note_on_c, 0, 58, 0
3, 70739, Note_on_c, 0, 55, 0
3, 70920, Note_on_c, 0, 55, 64
3, 70920, Note_on_c, 0, 58, 64
3, 70920, Note_on_c, 0, 60, 64
3, 71099, Note_on_c, 0, 60, 0
3, 71099, Note_on_c, 0, 58, 0
3, 71099, Note_on_c, 0, 55, 0
3, 71280, Note_on_c, 0, 36, 50
3, 71356, Note_on_c, 0, 48, 50
3, 71640, Note_on_c, 0, 48, 0
3, 71640, Note_on_c, 0, 36, 0
3, 71640, Note_on_c, 0, 53, 59
3, 71640, Note_on_c, 0, 57, 59
3, 71640, Note_on_c, 0, 60, 59
3, 71819, Note_on_c, 0, 60, 0
3, 71819, Note_on_c, 0, 57, 0
3, 71819, Note_on_c, 0, 53, 0
3, 72000, Note_on_c, 0, 53, 66
3, 72000, Note_on_c, 0, 57, 66
3, 72000, Note_on_c, 0, 60, 66
3, 72179, Note_on_c, 0, 60, 0
3, 72179, Note_on_c, 0, 57, 0
3, 72179, Note_on_c, 0, 53, 0
3, 72360, Note_on_c, 0, 36, 49
3, 72436, Note_on_c, 0, 48, 49
3, 72720, Note_on_c, 0, 48, 0
3, 72720, Note_on_c, 0, 36, 0
3, 72720, Note_on_c, 0, 53, 58
3, 72720, Note_on_c, 0, 57, 58
3, 72720, Note_on_c, 0, 60, 58
3, 72899, Note_on_c, 0, 60, 0
3, 72899, Note_on_c, 0, 57, 0
3, 72899, Note_on_c, 0, 53, 0
3, 73080, Note_on_c, 0, 53, 67
3, 73080, Note_on_c, 0, 57, 67
3, 73080, Note_on_c, 0, 60, 67
3, 73259, Note_on_c, 0, 60, 0
3, 73259, Note_on_c, 0, 57, 0
3, 73259, Note_on_c, 0, 53, 0
3, 73440, Note_on_c, 0, 36, 53
3, 73516, Note_on_c, 0, 48, 53
3, 73800, Note_on_c, 0, 48, 0
3, 73800, Note_on_c, 0, 36, 0
3, 73800, Note_on_c, 0, 53, 64
3, 73800, Note_on_c, 0, 58, 64
3, 73800, Note_on_c, 0, 62, 64
3, 73979, Note_on_c, 0, 62, 0
3, 73979, Note_on_c, 0, 58, 0
3, 73979, Note_on_c, 0, 53, 0
3, 74160, Note_on_c, 0, 53, 71
3, 74160, Note_on_c, 0, 58, 71
3, 74160, Note_on_c, 0, 62, 71
3, 74339, Note_on_c, 0, 62, 0
3, 74339, Note_on_c, 0, 58, 0
3, 74339, Note_on_c, 0, 53, 0
3, 74520, Note_on_c, 0, 36, 53
3, 74596, Note_on_c, 0, 48, 53
3, 74880, Note_on_c, 0, 48, 0
3, 74880, Note_on_c, 0, 36, 0
3, 74880, Note_on_c, 0, 52, 58
3, 74880, Note_on_c, 0, 58, 58
3, 74880, Note_on_c, 0, 60, 58
3, 75059, Note_on_c, 0, 60, 0
3, 75059, Note_on_c, 0, 58, 0
3, 75059, Note_on_c, 0, 52, 0
3, 75240, Note_on_c, 0, 52, 66
3, 75240, Note_on_c, 0, 58, 66
3, 75240, Note_on_c, 0, 60, 66
3, 75419, Note_on_c, 0, 60, 0
3, 75419, Note_on_c, 0, 58, 0
3, 75419, Note_on_c, 0, 52, 0
3, 75600, Note_on_c, 0, 53, 66
3, 75600, Note_on_c, 0, 57, 66
3, 75600, Note_on_c, 0, 60, 66
3, 75600, Note_on_c, 0, 41, 48
3, 75689, Note_on_c, 0, 41, 0
3, 75689, Note_on_c, 0, 53, 0
3, 75689, Note_on_c, 0, 57, 0
3, 75689, Note_on_c, 0, 60, 0
3, 78120, Note_on_c, 0, 53, 120
3, 78480, Note_on_c, 0, 38, 111
3, 78480, Note_on_c, 0, 50, 111
3, 78840, Note_on_c, 0, 53, 0
3, 78840, Note_on_c, 0, 53, 122
3, 78840, Note_on_c, 0, 65, 122
3, 79200, Note_on_c, 0, 50, 0
3, 79200, Note_on_c, 0, 38, 0
3, 79200, Note_on_c, 0, 37, 118
3, 79200, Note_on_c, 0, 49, 118
3, 79560, Note_on_c, 0, 49, 0
3, 79560, Note_on_c, 0, 65, 0
3, 79560, Note_on_c, 0, 53, 0
3, 79560, Note_on_c, 0, 37, 0
3, 79560, Note_on_c, 0, 53, 122
3, 79560, Note_on_c, 0, 63, 122
3, 79560, Note_on_c, 0, 36, 111
3, 79560, Note_on_c, 0, 48, 111
3, 79920, Note_on_c, 0, 48, 0
3, 79920, Note_on_c, 0, 53, 0
3, 79920, Note_on_c, 0, 63, 0
3, 79920, Note_on_c, 0, 36, 0
3, 79920, Note_on_c, 0, 53, 122
3, 79920, Note_on_c, 0, 62, 122
3, 79920, Note_on_c, 0, 34, 114
3, 79920, Note_on_c, 0, 46, 114
3, 80100, Note_on_c, 0, 46, 0
3, 80100, Note_on_c, 0, 34, 0
3, 80280, Note_on_c, 0, 62, 0
3, 80280, Note_on_c, 0, 53, 0
3, 80280, Note_on_c, 0, 61, 101
3, 80460, Note_on_c, 0, 61, 0
3, 80460, Note_on_c, 0, 62, 115
3, 80640, Note_on_c, 0, 62, 0
3, 80640, Note_on_c, 0, 63, 110
3, 80820, Note_on_c, 0, 63, 0
3, 80820, Note_on_c, 0, 62, 100
3, 81000, Note_on_c, 0, 62, 0
3, 81000, Note_on_c, 0, 65, 117
3, 81000, Note_on_c, 0, 45, 80
3, 81000, Note_on_c, 0, 53, 80
3, 81180, Note_on_c, 0, 53, 0
3, 81180, Note_on_c, 0, 45, 0
3, 81180, Note_on_c, 0, 65, 0
3, 81360, Note_on_c, 0, 59, 97
3, 81540, Note_on_c, 0, 59, 0
3, 81540, Note_on_c, 0, 60, 105
3, 81720, Note_on_c, 0, 60, 0
3, 81720, Note_on_c, 0, 62, 113
3, 81900, Note_on_c, 0, 62, 0
3, 81900, Note_on_c, 0, 60, 101
3, 82080, Note_on_c, 0, 60, 0
3, 82080, Note_on_c, 0, 62, 111
3, 82080, Note_on_c, 0, 46, 82
3, 82080, Note_on_c, 0, 53, 82
3, 82260, Note_on_c, 0, 53, 0
3, 82260, Note_on_c, 0, 46, 0
3, 82260, Note_on_c, 0, 62, 0
3, 82440, Note_on_c, 0, 57, 97
3, 82620, Note_on_c, 0, 57, 0
3, 82620, Note_on_c, 0, 58, 108
3, 82800, Note_on_c, 0, 58, 0
3, 82800, Note_on_c, 0, 60, 114
3, 82980, Note_on_c, 0, 60, 0
3, 82980, Note_on_c, 0, 58, 106
3, 83160, Note_on_c, 0, 58, 0
3, 83160, Note_on_c, 0, 62, 117
3, 83160, Note_on_c, 0, 34, 83
3, 83160, Note_on_c, 0, 46, 83
3, 83249, Note_on_c, 0, 62, 0
3, 83339, Note_on_c, 0, 46, 0
3, 83339, Note_on_c, 0, 34, 0
3, 83340, Note_on_c, 0, 60, 98
3, 83429, Note_on_c, 0, 60, 0
3, 83520, Note_on_c, 0, 58, 104
3, 83520, Note_on_c, 0, 38, 97
3, 83520, Note_on_c, 0, 50, 97
3, 83609, Note_on_c, 0, 58, 0
3, 83699, Note_on_c, 0, 50, 0
3, 83699, Note_on_c, 0, 38, 0
3, 83700, Note_on_c, 0, 57, 104
3, 83789, Note_on_c, 0, 57, 0
3, 83880, Note_on_c, 0, 58, 108
3, 83880, Note_on_c, 0, 40, 95
3, 83880, Note_on_c, 0, 52, 95
3, 83969, Note_on_c, 0, 58, 0
3, 84059, Note_on_c, 0, 52, 0
3, 84059, Note_on_c, 0, 40, 0
3, 84060, Note_on_c, 0, 55, 106
3, 84149, Note_on_c, 0, 55, 0
3, 84240, Note_on_c, 0, 57, 108
3, 84240, Note_on_c, 0, 41, 92
3, 84240, Note_on_c, 0, 53, 92
3, 84329, Note_on_c, 0, 53, 0
3, 84329, Note_on_c, 0, 41, 0
3, 84329, Note_on_c, 0, 57, 0
3, 85320, Note_on_c, 0, 63, 94
3, 85320, Note_on_c, 0, 41, 82
3, 85320, Note_on_c, 0, 53, 82
3, 85499, Note_on_c, 0, 53, 0
3, 85499, Note_on_c, 0, 41, 0
3, 85499, Note_on_c, 0, 63, 0
3, 85680, Note_on_c, 0, 63, 103
3, 85680, Note_on_c, 0, 43, 90
3, 85680, Note_on_c, 0, 55, 90
3, 85859, Note_on_c, 0, 55, 0
3, 85859, Note_on_c, 0, 43, 0
3, 85859, Note_on_c, 0, 63, 0
3, 86040, Note_on_c, 0, 63, 107
3, 86040, Note_on_c, 0, 45, 95
3, 86040, Note_on_c, 0, 57, 95
3, 86129, Note_on_c, 0, 63, 0
3, 86219, Note_on_c, 0, 57, 0
3, 86219, Note_on_c, 0, 45, 0
3, 86220, Note_on_c, 0, 61, 101
3, 86309, Note_on_c, 0, 61, 0
3, 86400, Note_on_c, 0, 62, 118
3, 86400, Note_on_c, 0, 46, 93
3, 86400, Note_on_c, 0, 58, 93
3, 86489, Note_on_c, 0, 58, 0
3, 86489, Note_on_c, 0, 46, 0
3, 86489, Note_on_c, 0, 62, 0
3, 86760, Note_on_c, 0, 53, 121
3, 87120, Note_on_c, 0, 38, 108
3, 87120, Note_on_c, 0, 50, 108
3, 87480, Note_on_c, 0, 53, 0
3, 87480, Note_on_c, 0, 53, 122
3, 87480, Note_on_c, 0, 65, 122
3, 87840, Note_on_c, 0, 50, 0
3, 87840, Note_on_c, 0, 38, 0
3, 87840, Note_on_c, 0, 37, 119
3, 87840, Note_on_c, 0, 49, 119
3, 88200, Note_on_c, 0, 49, 0
3, 88200, Note_on_c, 0, 65, 0
3, 88200, Note_on_c, 0, 53, 0
3, 88200, Note_on_c, 0, 37, 0
3, 88200, Note_on_c, 0, 51, 122
3, 88200, Note_on_c, 0, 63, 122
3, 88200, Note_on_c, 0, 36, 110
3, 88200, Note_on_c, 0, 48, 110
3, 88560, Note_on_c, 0, 48, 0
3, 88560, Note_on_c, 0, 51, 0
3, 88560, Note_on_c, 0, 63, 0
3, 88560, Note_on_c, 0, 36, 0
3, 88560, Note_on_c, 0, 53, 122
3, 88560, Note_on_c, 0, 62, 122
3, 88560, Note_on_c, 0, 34, 113
3, 88560, Note_on_c, 0, 46, 113
3, 88740, Note_on_c, 0, 46, 0
3, 88740, Note_on_c, 0, 34, 0
3, 88920, Note_on_c, 0, 62, 0
3, 88920, Note_on_c, 0, 53, 0
3, 88920, Note_on_c, 0, 61, 106
3, 89100, Note_on_c, 0, 61, 0
3, 89100, Note_on_c, 0, 62, 112
3, 89280, Note_on_c, 0, 62, 0
3, 89280, Note_on_c, 0, 63, 113
3, 89460, Note_on_c, 0, 63, 0
3, 89460, Note_on_c, 0, 62, 104
3, 89640, Note_on_c, 0, 62, 0
3, 89640, Note_on_c, 0, 65, 115
3, 89640, Note_on_c, 0, 45, 84
3, 89640, Note_on_c, 0, 53, 84
3, 89820, Note_on_c, 0, 53, 0
3, 89820, Note_on_c, 0, 45, 0
3, 89820, Note_on_c, 0, 65, 0
3, 90000, Note_on_c, 0, 59, 96
3, 90180, Note_on_c, 0, 59, 0
3, 90180, Note_on_c, 0, 60, 112
3, 90360, Note_on_c, 0, 60, 0
3, 90360, Note_on_c, 0, 62, 117
3, 90540, Note_on_c, 0, 62, 0
3, 90540, Note_on_c, 0, 60, 101
3, 90720, Note_on_c, 0, 60, 0
3, 90720, Note_on_c, 0, 62, 116
3, 90720, Note_on_c, 0, 46, 84
3, 90720, Note_on_c, 0, 53, 84
3, 90900, Note_on_c, 0, 53, 0
3, 90900, Note_on_c, 0, 46, 0
3, 90900, Note_on_c, 0, 62, 0
3, 91080, Note_on_c, 0, 57, 98
3, 91260, Note_on_c, 0, 57, 0
3, 91260, Note_on_c, 0, 58, 104
3, 91440, Note_on_c, 0, 58, 0
3, 91440, Note_on_c, 0, 60, 116
3, 91620, Note_on_c, 0, 60, 0
3, 91620, Note_on_c, 0, 58, 104
3, 91800, Note_on_c, 0, 58, 0
3, 91800, Note_on_c, 0, 62, 121
3, 91800, Note_on_c, 0, 34, 83
3, 91800, Note_on_c, 0, 46, 83
3, 91889, Note_on_c, 0, 62, 0
3, 91979, Note_on_c, 0, 46, 0
3, 91979, Note_on_c, 0, 34, 0
3, 91980, Note_on_c, 0, 60, 100
3, 92069, Note_on_c, 0, 60, 0
3, 92160, Note_on_c, 0, 58, 106
3, 92160, Note_on_c, 0, 31, 88
3, 92160, Note_on_c, 0, 43, 88
3, 92249, Note_on_c, 0, 58, 0
3, 92339, Note_on_c, 0, 43, 0
3, 92339, Note_on_c, 0, 31, 0
3, 92340, Note_on_c, 0, 57, 105
3, 92429, Note_on_c, 0, 57, 0
3, 92520, Note_on_c, 0, 55, 104
3, 92520, Note_on_c, 0, 34, 96
3, 92520, Note_on_c, 0, 46, 96
3, 92609, Note_on_c, 0, 55, 0
3, 92699, Note_on_c, 0, 46, 0
3, 92699, Note_on_c, 0, 34, 0
3, 92700, Note_on_c, 0, 53, 105
3, 92789, Note_on_c, 0, 53, 0
3, 92880, Note_on_c, 0, 52, 107
3, 92880, Note_on_c, 0, 36, 97
3, 92880, Note_on_c, 0, 48, 97
3, 92969, Note_on_c, 0, 48, 0
3, 92969, Note_on_c, 0, 36, 0
3, 92969, Note_on_c, 0, 52, 0
3, 93960, Note_on_c, 0, 58, 93
3, 93960, Note_on_c, 0, 60, 93
3, 93960, Note_on_c, 0, 36, 85
3, 93960, Note_on_c, 0, 48, 85
3, 94139, Note_on_c, 0, 48, 0
3, 94139, Note_on_c, 0, 58, 0
3, 94139, Note_on_c, 0, 60, 0
3, 94139, Note_on_c, 0, 36, 0
3, 94320, Note_on_c, 0, 58, 109
3, 94320, Note_on_c, 0, 60, 109
3, 94320, Note_on_c, 0, 38, 96
3, 94320, Note_on_c, 0, 50, 96
3, 94499, Note_on_c, 0, 50, 0
3, 94499, Note_on_c, 0, 58, 0
3, 94499, Note_on_c, 0, 60, 0
3, 94499, Note_on_c, 0, 38, 0
3, 94680, Note_on_c, 0, 58, 113
3, 94680, Note_on_c, 0, 62, 113
3, 94680, Note_on_c, 0, 40, 95
3, 94680, Note_on_c, 0, 52, 95
3, 94769, Note_on_c, 0, 62, 0
3, 94769, Note_on_c, 0, 58, 0
3, 94859, Note_on_c, 0, 40, 0
3, 94859, Note_on_c, 0, 52, 0
3, 94860, Note_on_c, 0, 60, 101
3, 94949, Note_on_c, 0, 60, 0
3, 95040, Note_on_c, 0, 57, 111
3, 95040, Note_on_c, 0, 60, 111
3, 95040, Note_on_c, 0, 41, 93
3, 95040, Note_on_c, 0, 53, 93
3, 95129, Note_on_c, 0, 53, 0
3, 95129, Note_on_c, 0, 57, 0
3, 95129, Note_on_c, 0, 60, 0
3, 95129, Note_on_c, 0, 41, 0
3, 95400, Note_on_c, 0, 53, 120
3, 95760, Note_on_c, 0, 38, 104
3, 95760, Note_on_c, 0, 50, 104
3, 96120, Note_on_c, 0, 50, 0
3, 96120, Note_on_c, 0, 38, 0
3, 96120, Note_on_c, 0, 53, 0
3, 96120, Note_on_c, 0, 53, 122
3, 96120, Note_on_c, 0, 65, 122
3, 96120, Note_on_c, 0, 38, 93
3, 96120, Note_on_c, 0, 50, 93
3, 96480, Note_on_c, 0, 50, 0
3, 96480, Note_on_c, 0, 38, 0
3, 96480, Note_on_c, 0, 37, 111
3, 96480, Note_on_c, 0, 49, 111
3, 96840, Note_on_c, 0, 49, 0
3, 96840, Note_on_c, 0, 53, 0
3, 96840, Note_on_c, 0, 65, 0
3, 96840, Note_on_c, 0, 37, 0
3, 96840, Note_on_c, 0, 53, 122
3, 96840, Note_on_c, 0, 63, 122
3, 96840, Note_on_c, 0, 36, 116
3, 96840, Note_on_c, 0, 48, 116
3, 97200, Note_on_c, 0, 48, 0
3, 97200, Note_on_c, 0, 53, 0
3, 97200, Note_on_c, 0, 63, 0
3, 97200, Note_on_c, 0, 36, 0
3, 97200, Note_on_c, 0, 53, 122
3, 97200, Note_on_c, 0, 62, 122
3, 97200, Note_on_c, 0, 34, 117
3, 97200, Note_on_c, 0, 46, 117
3, 97380, Note_on_c, 0, 46, 0
3, 97380, Note_on_c, 0, 34, 0
3, 97560, Note_on_c, 0, 62, 0
3, 97560, Note_on_c, 0, 53, 0
3, 97560, Note_on_c, 0, 61, 102
3, 97740, Note_on_c, 0, 61, 0
3, 97740, Note_on_c, 0, 62, 105
3, 97920, Note_on_c, 0, 62, 0
3, 97920, Note_on_c, 0, 63, 111
3, 98100, Note_on_c, 0, 63, 0
3, 98100, Note_on_c, 0, 62, 102
3, 98280, Note_on_c, 0, 62, 0
3, 98280, Note_on_c, 0, 65, 112
3, 98280, Note_on_c, 0, 45, 83
3, 98280, Note_on_c, 0, 53, 83
3, 98460, Note_on_c, 0, 53, 0
3, 98460, Note_on_c, 0, 45, 0
3, 98460, Note_on_c, 0, 65, 0
3, 98640, Note_on_c, 0, 59, 97
3, 98820, Note_on_c, 0, 59, 0
3, 98820, Note_on_c, 0, 60, 117
3, 99000, Note_on_c, 0, 60, 0
3, 99000, Note_on_c, 0, 62, 116
3, 99180, Note_on_c, 0, 62, 0
3, 99180, Note_on_c, 0, 60, 104
3, 99360, Note_on_c, 0, 60, 0
3, 99360, Note_on_c, 0, 62, 115
3, 99360, Note_on_c, 0, 46, 82
3, 99360, Note_on_c, 0, 53, 82
3, 99540, Note_on_c, 0, 53, 0
3, 99540, Note_on_c, 0, 46, 0
3, 99540, Note_on_c, 0, 62, 0
3, 99720, Note_on_c, 0, 57, 100
3, 99900, Note_on_c, 0, 57, 0
3, 99900, Note_on_c, 0, 58, 110
3, 100080, Note_on_c, 0, 58, 0
3, 100080, Note_on_c, 0, 60, 115
3, 100260, Note_on_c, 0, 60, 0
3, 100260, Note_on_c, 0, 58, 104
3, 100440, Note_on_c, 0, 58, 0
3, 100440, Note_on_c, 0, 62, 117
3, 100440, Note_on_c, 0, 34, 79
3, 100440, Note_on_c, 0, 46, 79
3, 100529, Note_on_c, 0, 62, 0
3, 100619, Note_on_c, 0, 46, 0
3, 100619, Note_on_c, 0, 34, 0
3, 100620, Note_on_c, 0, 60, 104
3, 100709, Note_on_c, 0, 60, 0
3, 100800, Note_on_c, 0, 58, 106
3, 100800, Note_on_c, 0, 38, 93
3, 100800, Note_on_c, 0, 50, 93
3, 100889, Note_on_c, 0, 58, 0
3, 100979, Note_on_c, 0, 50, 0
3, 100979, Note_on_c, 0, 38, 0
3, 100980, Note_on_c, 0, 57, 104
3, 101069, Note_on_c, 0, 57, 0
3, 101160, Note_on_c, 0, 58, 110
3, 101160, Note_on_c, 0, 40, 93
3, 101160, Note_on_c, 0, 52, 93
3, 101249, Note_on_c, 0, 58, 0
3, 101339, Note_on_c, 0, 52, 0
3, 101339, Note_on_c, 0, 40, 0
3, 101340, Note_on_c, 0, 55, 103
3, 101429, Note_on_c, 0, 55, 0
3, 101520, Note_on_c, 0, 57, 111
3, 101520, Note_on_c, 0, 41, 94
3, 101520, Note_on_c, 0, 53, 94
3, 101609, Note_on_c, 0, 53, 0
3, 101609, Note_on_c, 0, 41, 0
3, 101609, Note_on_c, 0, 57, 0
3, 102600, Note_on_c, 0, 63, 94
3, 102600, Note_on_c, 0, 41, 86
3, 102600, Note_on_c, 0, 53, 86
3, 102779, Note_on_c, 0, 53, 0
3, 102779, Note_on_c, 0, 41, 0
3, 102779, Note_on_c, 0, 63, 0
3, 102960, Note_on_c, 0, 63, 110
3, 102960, Note_on_c, 0, 43, 99
3, 102960, Note_on_c, 0, 55, 99
3, 103139, Note_on_c, 0, 55, 0
3, 103139, Note_on_c, 0, 43, 0
3, 103139, Note_on_c, 0, 63, 0
3, 103320, Note_on_c, 0, 63, 110
3, 103320, Note_on_c, 0, 45, 96
3, 103320, Note_on_c, 0, 57, 96
3, 103409, Note_on_c, 0, 63, 0
3, 103499, Note_on_c, 0, 57, 0
3, 103499, Note_on_c, 0, 45, 0
3, 103500, Note_on_c, 0, 61, 101
3, 103589, Note_on_c, 0, 61, 0
3, 103680, Note_on_c, 0, 62, 111
3, 103680, Note_on_c, 0, 46, 91
3, 103680, Note_on_c, 0, 58, 91
3, 103769, Note_on_c, 0, 58, 0
3, 103769, Note_on_c, 0, 46, 0
3, 103769, Note_on_c, 0, 62, 0
3, 104040, Note_on_c, 0, 53, 122
3, 104400, Note_on_c, 0, 38, 103
3, 104400, Note_on_c, 0, 50, 103
3, 104760, Note_on_c, 0, 53, 0
3, 104760, Note_on_c, 0, 53, 122
3, 104760, Note_on_c, 0, 65, 122
3, 105120, Note_on_c, 0, 50, 0
3, 105120, Note_on_c, 0, 38, 0
3, 105120, Note_on_c, 0, 37, 117
3, 105120, Note_on_c, 0, 49, 117
3, 105480, Note_on_c, 0, 49, 0
3, 105480, Note_on_c, 0, 65, 0
3, 105480, Note_on_c, 0, 53, 0
3, 105480, Note_on_c, 0, 37, 0
3, 105480, Note_on_c, 0, 51, 122
3, 105480, Note_on_c, 0, 63, 122
3, 105480, Note_on_c, 0, 36, 116
3, 105480, Note_on_c, 0, 48, 116
3, 105840, Note_on_c, 0, 48, 0
3, 105840, Note_on_c, 0, 51, 0
3, 105840, Note_on_c, 0, 63, 0
3, 105840, Note_on_c, 0, 36, 0
3, 105840, Note_on_c, 0, 53, 122
3, 105840, Note_on_c, 0, 62, 122
3, 105840, Note_on_c, 0, 34, 113
3, 105840, Note_on_c, 0, 46, 113
3, 106020, Note_on_c, 0, 46, 0
3, 106020, Note_on_c, 0, 34, 0
3, 106200, Note_on_c, 0, 62, 0
3, 106200, Note_on_c, 0, 53, 0
3, 106200, Note_on_c, 0, 61, 100
3, 106380, Note_on_c, 0, 61, 0
3, 106380, Note_on_c, 0, 62, 115
3, 106560, Note_on_c, 0, 62, 0
3, 106560, Note_on_c, 0, 63, 115
3, 106740, Note_on_c, 0, 63, 0
3, 106740, Note_on_c, 0, 62, 105
3, 106920, Note_on_c, 0, 62, 0
3, 106920, Note_on_c, 0, 65, 119
3, 106920, Note_on_c, 0, 45, 82
3, 106920, Note_on_c, 0, 53, 82
3, 107100, Note_on_c, 0, 53, 0
3, 107100, Note_on_c, 0, 45, 0
3, 107100, Note_on_c, 0, 65, 0
3, 107280, Note_on_c, 0, 59, 97
3, 107460, Note_on_c, 0, 59, 0
3, 107460, Note_on_c, 0, 60, 111
3, 107640, Note_on_c, 0, 60, 0
3, 107640, Note_on_c, 0, 62, 114
3, 107820, Note_on_c, 0, 62, 0
3, 107820, Note_on_c, 0, 60, 103
3, 108000, Note_on_c, 0, 60, 0
3, 108000, Note_on_c, 0, 62, 113
3, 108000, Note_on_c, 0, 46, 82
3, 108000, Note_on_c, 0, 53, 82
3, 108180, Note_on_c, 0, 53, 0
3, 108180, Note_on_c, 0, 46, 0
3, 108180, Note_on_c, 0, 62, 0
3, 108360, Note_on_c, 0, 57, 96
3, 108540, Note_on_c, 0, 57, 0
3, 108540, Note_on_c, 0, 58, 107
3, 108720, Note_on_c, 0, 58, 0
3, 108720, Note_on_c, 0, 60, 116
3, 108900, Note_on_c, 0, 60, 0
3, 108900, Note_on_c, 0, 58, 108
3, 109080, Note_on_c, 0, 58, 0
3, 109080, Note_on_c, 0, 62, 121
3, 109080, Note_on_c, 0, 34, 85
3, 109080, Note_on_c, 0, 46, 85
3, 109169, Note_on_c, 0, 62, 0
3, 109259, Note_on_c, 0, 46, 0
3, 109259, Note_on_c, 0, 34, 0
3, 109260, Note_on_c, 0, 60, 102
3, 109349, Note_on_c, 0, 60, 0
3, 109440, Note_on_c, 0, 58, 101
3, 109440, Note_on_c, 0, 31, 90
3, 109440, Note_on_c, 0, 43, 90
3, 109529, Note_on_c, 0, 58, 0
3, 109619, Note_on_c, 0, 43, 0
3, 109619, Note_on_c, 0, 31, 0
3, 109620, Note_on_c, 0, 57, 106
3, 109709, Note_on_c, 0, 57, 0
3, 109800, Note_on_c, 0, 55, 104
3, 109800, Note_on_c, 0, 34, 97
3, 109800, Note_on_c, 0, 46, 97
3, 109889, Note_on_c, 0, 55, 0
3, 109979, Note_on_c, 0, 46, 0
3, 109979, Note_on_c, 0, 34, 0
3, 109980, Note_on_c, 0, 53, 103
3, 110069, Note_on_c, 0, 53, 0
3, 110160, Note_on_c, 0, 52, 107
3, 110160, Note_on_c, 0, 36, 97
3, 110160, Note_on_c, 0, 48, 97
3, 110249, Note_on_c, 0, 48, 0
3, 110249, Note_on_c, 0, 36, 0
3, 110249, Note_on_c, 0, 52, 0
3, 111240, Note_on_c, 0, 58, 95
3, 111240, Note_on_c, 0, 60, 95
3, 111240, Note_on_c, 0, 36, 76
3, 111240, Note_on_c, 0, 48, 76
3, 111419, Note_on_c, 0, 48, 0
3, 111419, Note_on_c, 0, 58, 0
3, 111419, Note_on_c, 0, 60, 0
3, 111419, Note_on_c, 0, 36, 0
3, 111600, Note_on_c, 0, 58, 108
3, 111600, Note_on_c, 0, 60, 108
3, 111600, Note_on_c, 0, 38, 90
3, 111600, Note_on_c, 0, 50, 90
3, 111779, Note_on_c, 0, 50, 0
3, 111779, Note_on_c, 0, 58, 0
3, 111779, Note_on_c, 0, 60, 0
3, 111779, Note_on_c, 0, 38, 0
3, 111960, Note_on_c, 0, 58, 119
3, 111960, Note_on_c, 0, 62, 119
3, 111960, Note_on_c, 0, 40, 94
3, 111960, Note_on_c, 0, 52, 94
3, 112049, Note_on_c, 0, 62, 0
3, 112049, Note_on_c, 0, 58, 0
3, 112139, Note_on_c, 0, 40, 0
3, 112139, Note_on_c, 0, 52, 0
3, 112140, Note_on_c, 0, 60, 101
3, 112229, Note_on_c, 0, 60, 0
3, 112320, Note_on_c, 0, 57, 106
3, 112320, Note_on_c, 0, 60, 106
3, 112320, Note_on_c, 0, 41, 93
3, 112320, Note_on_c, 0, 53, 93
3, 112409, Note_on_c, 0, 53, 0
3, 112409, Note_on_c, 0, 57, 0
3, 112409, Note_on_c, 0, 60, 0
3, 112409, Note_on_c, 0, 41, 0
3, 113040, Note_on_c, 0, 45, 46
3, 113040, Note_on_c, 0, 41, 47
3, 113400, Note_on_c, 0, 41, 0
3, 113400, Note_on_c, 0, 45, 0
3, 113400, Note_on_c, 0, 46, 52
3, 113400, Note_on_c, 0, 43, 58
3, 113760, Note_on_c, 0, 43, 0
3, 113760, Note_on_c, 0, 46, 0
3, 113760, Note_on_c, 0, 48, 55
3, 113760, Note_on_c, 0, 45, 61
3, 114120, Note_on_c, 0, 45, 0
3, 114120, Note_on_c, 0, 48, 0
3, 114120, Note_on_c, 0, 50, 55
3, 114120, Note_on_c, 0, 46, 56
3, 114480, Note_on_c, 0, 46, 0
3, 114480, Note_on_c, 0, 50, 0
3, 114480, Note_on_c, 0, 51, 53
3, 114480, Note_on_c, 0, 48, 53
3, 114840, Note_on_c, 0, 48, 0
3, 114840, Note_on_c, 0, 51, 0
3, 114840, Note_on_c, 0, 53, 58
3, 114840, Note_on_c, 0, 50, 60
3, 115200, Note_on_c, 0, 50, 0
3, 115200, Note_on_c, 0, 53, 0
3, 115200, Note_on_c, 0, 55, 56
3, 115200, Note_on_c, 0, 51, 56
3, 115560, Note_on_c, 0, 51, 0
3, 115560, Note_on_c, 0, 55, 0
3, 115560, Note_on_c, 0, 57, 57
3, 115560, Note_on_c, 0, 53, 63
3, 115920, Note_on_c, 0, 53, 0
3, 115920, Note_on_c, 0, 57, 0
3, 115920, Note_on_c, 0, 58, 57
3, 115920, Note_on_c, 0, 55, 60
3, 116280, Note_on_c, 0, 55, 0
3, 116280, Note_on_c, 0, 58, 0
3, 116280, Note_on_c, 0, 62, 61
3, 116280, Note_on_c, 0, 57, 61
3, 116369, Note_on_c, 0, 62, 0
3, 116460, Note_on_c, 0, 60, 54
3, 116549, Note_on_c, 0, 60, 0
3, 116640, Note_on_c, 0, 57, 0
3, 116640, Note_on_c, 0, 58, 74
3, 116640, Note_on_c, 0, 34, 46
3, 116716, Note_on_c, 0, 46, 46
3, 117000, Note_on_c, 0, 46, 0
3, 117000, Note_on_c, 0, 34, 0
3, 117720, Note_on_c, 0, 58, 0
3, 117720, Note_on_c, 0, 57, 73
3, 117720, Note_on_c, 0, 29, 52
3, 117796, Note_on_c, 0, 41, 52
3, 118080, Note_on_c, 0, 41, 0
3, 118080, Note_on_c, 0, 29, 0
3, 118800, Note_on_c, 0, 57, 0
3, 118800, Note_on_c, 0, 58, 79
3, 118800, Note_on_c, 0, 34, 56
3, 118876, Note_on_c, 0, 46, 56
3, 119160, Note_on_c, 0, 46, 0
3, 119160, Note_on_c, 0, 34, 0
3, 119520, Note_on_c, 0, 58, 0
3, 119520, Note_on_c, 0, 55, 73
3, 119880, Note_on_c, 0, 55, 0
3, 119880, Note_on_c, 0, 57, 82
3, 119880, Note_on_c, 0, 29, 51
3, 119956, Note_on_c, 0, 41, 51
3, 120240, Note_on_c, 0, 41, 0
3, 120240, Note_on_c, 0, 29, 0
3, 120240, Note_on_c, 0, 57, 0
3, 120240, Note_on_c, 0, 58, 79
3, 120600, Note_on_c, 0, 58, 0
3, 120600, Note_on_c, 0, 55, 80
3, 120960, Note_on_c, 0, 55, 0
3, 120960, Note_on_c, 0, 57, 79
3, 120960, Note_on_c, 0, 36, 50
3, 121036, Note_on_c, 0, 48, 50
3, 121320, Note_on_c, 0, 48, 0
3, 121320, Note_on_c, 0, 36, 0
3, 121680, Note_on_c, 0, 57, 0
3, 121680, Note_on_c, 0, 60, 83
3, 122040, Note_on_c, 0, 60, 0
3, 122040, Note_on_c, 0, 62, 89
3, 122040, Note_on_c, 0, 33, 47
3, 122116, Note_on_c, 0, 45, 47
3, 122400, Note_on_c, 0, 45, 0
3, 122400, Note_on_c, 0, 33, 0
3, 122760, Note_on_c, 0, 62, 0
3, 122760, Note_on_c, 0, 59, 79
3, 123120, Note_on_c, 0, 59, 0
3, 123120, Note_on_c, 0, 60, 83
3, 123120, Note_on_c, 0, 32, 48
3, 123196, Note_on_c, 0, 44, 48
3, 123480, Note_on_c, 0, 44, 0
3, 123480, Note_on_c, 0, 32, 0
3, 124200, Note_on_c, 0, 33, 48
3, 124276, Note_on_c, 0, 45, 48
3, 124560, Note_on_c, 0, 45, 0
3, 124560, Note_on_c, 0, 33, 0
3, 125280, Note_on_c, 0, 60, 0
3, 125280, Note_on_c, 0, 65, 91
3, 125280, Note_on_c, 0, 29, 50
3, 125356, Note_on_c, 0, 41, 50
3, 125640, Note_on_c, 0, 41, 0
3, 125640, Note_on_c, 0, 29, 0
3, 126360, Note_on_c, 0, 65, 0
3, 126360, Note_on_c, 0, 64, 74
3, 126360, Note_on_c, 0, 31, 45
3, 126436, Note_on_c, 0, 43, 45
3, 126720, Note_on_c, 0, 43, 0
3, 126720, Note_on_c, 0, 31, 0
3, 127440, Note_on_c, 0, 64, 0
3, 127440, Note_on_c, 0, 63, 79
3, 127440, Note_on_c, 0, 32, 44
3, 127516, Note_on_c, 0, 44, 44
3, 127800, Note_on_c, 0, 44, 0
3, 127800, Note_on_c, 0, 32, 0
3, 128160, Note_on_c, 0, 63, 0
3, 128160, Note_on_c, 0, 60, 69
3, 128520, Note_on_c, 0, 60, 0
3, 128520, Note_on_c, 0, 63, 87
3, 128520, Note_on_c, 0, 33, 51
3, 128596, Note_on_c, 0, 45, 51
3, 128880, Note_on_c, 0, 45, 0
3, 128880, Note_on_c, 0, 33, 0
3, 128880, Note_on_c, 0, 63, 0
3, 128880, Note_on_c, 0, 62, 74
3, 129240, Note_on_c, 0, 62, 0
3, 129240, Note_on_c, 0, 60, 72
3, 129600, Note_on_c, 0, 60, 0
3, 129600, Note_on_c, 0, 67, 88
3, 129600, Note_on_c, 0, 34, 46
3, 129676, Note_on_c, 0, 46, 46
3, 129960, Note_on_c, 0, 46, 0
3, 129960, Note_on_c, 0, 34, 0
3, 130320, Note_on_c, 0, 67, 0
3, 130320, Note_on_c, 0, 65, 76
3, 130680, Note_on_c, 0, 65, 0
3, 130680, Note_on_c, 0, 63, 70
3, 130680, Note_on_c, 0, 29, 46
3, 130756, Note_on_c, 0, 41, 46
3, 131040, Note_on_c, 0, 41, 0
3, 131040, Note_on_c, 0, 29, 0
3, 131400, Note_on_c, 0, 63, 0
3, 131400, Note_on_c, 0, 62, 72
3, 131760, Note_on_c, 0, 62, 0
3, 131760, Note_on_c, 0, 62, 80
3, 131760, Note_on_c, 0, 33, 48
3, 131836, Note_on_c, 0, 45, 48
3, 132120, Note_on_c, 0, 45, 0
3, 132120, Note_on_c, 0, 33, 0
3, 132120, Note_on_c, 0, 62, 0
3, 132120, Note_on_c, 0, 60, 72
3, 132480, Note_on_c, 0, 60, 0
3, 132480, Note_on_c, 0, 59, 80
3, 132840, Note_on_c, 0, 59, 0
3, 132840, Note_on_c, 0, 60, 81
3, 132840, Note_on_c, 0, 29, 47
3, 132896, Note_on_c, 0, 41, 47
3, 133200, Note_on_c, 0, 41, 0
3, 133200, Note_on_c, 0, 29, 0
3, 133200, Note_on_c, 0, 60, 0
3, 133200, Note_on_c, 0, 55, 73
3, 133560, Note_on_c, 0, 55, 0
3, 133560, Note_on_c, 0, 57, 79
3, 133920, Note_on_c, 0, 57, 0
3, 133920, Note_on_c, 0, 58, 77
3, 133920, Note_on_c, 0, 34, 52
3, 133996, Note_on_c, 0, 46, 52
3, 134280, Note_on_c, 0, 46, 0
3, 134280, Note_on_c, 0, 34, 0
3, 135000, Note_on_c, 0, 58, 0
3, 135000, Note_on_c, 0, 57, 76
3, 135000, Note_on_c, 0, 29, 51
3, 135076, Note_on_c, 0, 41, 51
3, 135360, Note_on_c, 0, 41, 0
3, 135360, Note_on_c, 0, 29, 0
3, 136080, Note_on_c, 0, 57, 0
3, 136080, Note_on_c, 0, 58, 83
3, 136080, Note_on_c, 0, 34, 52
3, 136156, Note_on_c, 0, 46, 52
3, 136440, Note_on_c, 0, 46, 0
3, 136440, Note_on_c, 0, 34, 0
3, 136800, Note_on_c, 0, 58, 0
3, 136800, Note_on_c, 0, 55, 75
3, 137160, Note_on_c, 0, 55, 0
3, 137160, Note_on_c, 0, 57, 80
3, 137160, Note_on_c, 0, 38, 48
3, 137236, Note_on_c, 0, 50, 48
3, 137520, Note_on_c, 0, 50, 0
3, 137520, Note_on_c, 0, 38, 0
3, 137520, Note_on_c, 0, 57, 0
3, 137520, Note_on_c, 0, 58, 74
3, 137880, Note_on_c, 0, 58, 0
3, 137880, Note_on_c, 0, 59, 76
3, 138240, Note_on_c, 0, 59, 0
3, 138240, Note_on_c, 0, 60, 77
3, 138240, Note_on_c, 0, 39, 52
3, 138316, Note_on_c, 0, 51, 52
3, 138600, Note_on_c, 0, 51, 0
3, 138600, Note_on_c, 0, 39, 0
3, 138960, Note_on_c, 0, 60, 0
3, 138960, Note_on_c, 0, 57, 78
3, 139320, Note_on_c, 0, 57, 0
3, 139320, Note_on_c, 0, 62, 89
3, 139320, Note_on_c, 0, 38, 52
3, 139396, Note_on_c, 0, 50, 52
3, 139680, Note_on_c, 0, 50, 0
3, 139680, Note_on_c, 0, 38, 0
3, 140040, Note_on_c, 0, 62, 0
3, 140040, Note_on_c, 0, 59, 78
3, 140400, Note_on_c, 0, 59, 0
3, 140400, Note_on_c, 0, 55, 87
3, 140400, Note_on_c, 0, 63, 87
3, 140400, Note_on_c, 0, 36, 53
3, 140400, Note_on_c, 0, 48, 53
3, 140489, Note_on_c, 0, 48, 0
3, 140489, Note_on_c, 0, 55, 0
3, 140489, Note_on_c, 0, 63, 0
3, 140489, Note_on_c, 0, 36, 0
3, 140760, Note_on_c, 0, 55, 68
3, 140940, Note_on_c, 0, 55, 0
3, 140940, Note_on_c, 0, 59, 84
3, 141120, Note_on_c, 0, 59, 0
3, 141120, Note_on_c, 0, 60, 86
3, 141300, Note_on_c, 0, 60, 0
3, 141300, Note_on_c, 0, 63, 83
3, 141480, Note_on_c, 0, 63, 0
3, 141480, Note_on_c, 0, 55, 69
3, 141660, Note_on_c, 0, 55, 0
3, 141660, Note_on_c, 0, 54, 79
3, 141840, Note_on_c, 0, 54, 0
3, 141840, Note_on_c, 0, 55, 80
3, 142020, Note_on_c, 0, 55, 0
3, 142020, Note_on_c, 0, 59, 86
3, 142200, Note_on_c, 0, 59, 0
3, 142200, Note_on_c, 0, 60, 81
3, 142380, Note_on_c, 0, 60, 0
3, 142380, Note_on_c, 0, 63, 84
3, 142560, Note_on_c, 0, 63, 0
3, 142920, Note_on_c, 0, 55, 73
3, 142920, Note_on_c, 0, 60, 73
3, 142920, Note_on_c, 0, 63, 73
3, 142920, Note_on_c, 0, 27, 50
3, 142920, Note_on_c, 0, 39, 50
3, 143099, Note_on_c, 0, 39, 0
3, 143099, Note_on_c, 0, 63, 0
3, 143099, Note_on_c, 0, 55, 0
3, 143099, Note_on_c, 0, 60, 0
3, 143099, Note_on_c, 0, 27, 0
3, 143640, Note_on_c, 0, 55, 70
3, 143640, Note_on_c, 0, 58, 70
3, 143640, Note_on_c, 0, 61, 70
3, 143640, Note_on_c, 0, 28, 51
3, 143640, Note_on_c, 0, 40, 51
3, 143819, Note_on_c, 0, 40, 0
3, 143819, Note_on_c, 0, 61, 0
3, 143819, Note_on_c, 0, 55, 0
3, 143819, Note_on_c, 0, 58, 0
3, 143819, Note_on_c, 0, 28, 0
3, 144360, Note_on_c, 0, 55, 67
3, 144360, Note_on_c, 0, 58, 67
3, 144360, Note_on_c, 0, 61, 67
3, 144360, Note_on_c, 0, 28, 45
3, 144360, Note_on_c, 0, 40, 45
3, 144539, Note_on_c, 0, 40, 0
3, 144539, Note_on_c, 0, 61, 0
3, 144539, Note_on_c, 0, 55, 0
3, 144539, Note_on_c, 0, 58, 0
3, 144539, Note_on_c, 0, 28, 0
3, 145080, Note_on_c, 0, 53, 71
3, 145080, Note_on_c, 0, 58, 71
3, 145080, Note_on_c, 0, 62, 71
3, 145080, Note_on_c, 0, 29, 48
3, 145080, Note_on_c, 0, 41, 48
3, 145259, Note_on_c, 0, 41, 0
3, 145259, Note_on_c, 0, 62, 0
3, 145259, Note_on_c, 0, 53, 0
3, 145259, Note_on_c, 0, 58, 0
3, 145259, Note_on_c, 0, 29, 0
3, 145800, Note_on_c, 0, 53, 70
3, 145800, Note_on_c, 0, 58, 70
3, 145800, Note_on_c, 0, 62, 70
3, 145800, Note_on_c, 0, 29, 50
3, 145800, Note_on_c, 0, 41, 50
3, 145979, Note_on_c, 0, 41, 0
3, 145979, Note_on_c, 0, 62, 0
3, 145979, Note_on_c, 0, 53, 0
3, 145979, Note_on_c, 0, 58, 0
3, 145979, Note_on_c, 0, 29, 0
3, 146520, Note_on_c, 0, 55, 65
3, 146520, Note_on_c, 0, 59, 65
3, 146520, Note_on_c, 0, 62, 65
3, 146520, Note_on_c, 0, 29, 47
3, 146520, Note_on_c, 0, 41, 47
3, 146699, Note_on_c, 0, 41, 0
3, 146699, Note_on_c, 0, 62, 0
3, 146699, Note_on_c, 0, 55, 0
3, 146699, Note_on_c, 0, 59, 0
3, 146699, Note_on_c, 0, 29, 0
3, 147240, Note_on_c, 0, 55, 67
3, 147240, Note_on_c, 0, 60, 67
3, 147240, Note_on_c, 0, 63, 67
3, 147240, Note_on_c, 0, 29, 55
3, 147240, Note_on_c, 0, 41, 55
3, 147419, Note_on_c, 0, 41, 0
3, 147419, Note_on_c, 0, 63, 0
3, 147419, Note_on_c, 0, 55, 0
3, 147419, Note_on_c, 0, 60, 0
3, 147419, Note_on_c, 0, 29, 0
3, 147960, Note_on_c, 0, 53, 69
3, 147960, Note_on_c, 0, 57, 69
3, 147960, Note_on_c, 0, 62, 69
3, 147960, Note_on_c, 0, 29, 47
3, 147960, Note_on_c, 0, 41, 47
3, 148139, Note_on_c, 0, 41, 0
3, 148139, Note_on_c, 0, 62, 0
3, 148139, Note_on_c, 0, 53, 0
3, 148139, Note_on_c, 0, 57, 0
3, 148139, Note_on_c, 0, 29, 0
3, 148680, Note_on_c, 0, 53, 73
3, 148680, Note_on_c, 0, 57, 73
3, 148680, Note_on_c, 0, 63, 73
3, 148680, Note_on_c, 0, 29, 49
3, 148680, Note_on_c, 0, 41, 49
3, 148859, Note_on_c, 0, 41, 0
3, 148859, Note_on_c, 0, 63, 0
3, 148859, Note_on_c, 0, 53, 0
3, 148859, Note_on_c, 0, 57, 0
3, 148859, Note_on_c, 0, 29, 0
3, 149040, Note_on_c, 0, 53, 76
3, 149040, Note_on_c, 0, 58, 76
3, 149040, Note_on_c, 0, 62, 76
3, 149040, Note_on_c, 0, 34, 60
3, 149040, Note_on_c, 0, 46, 60
3, 149129, Note_on_c, 0, 46, 0
3, 149129, Note_on_c, 0, 62, 0
3, 149129, Note_on_c, 0, 53, 0
3, 149129, Note_on_c, 0, 58, 0
3, 149129, Note_on_c, 0, 34, 0
3, 150120, Note_on_c, 0, 70, 99
3, 150120, Note_on_c, 0, 46, 45
3, 150120, Note_on_c, 0, 50, 45
3, 150120, Note_on_c, 0, 53, 45
3, 150120, Note_on_c, 0, 58, 45
3, 150300, Note_on_c, 0, 58, 0
3, 150300, Note_on_c, 0, 50, 0
3, 150300, Note_on_c, 0, 70, 0
3, 150300, Note_on_c, 0, 46, 0
3, 150300, Note_on_c, 0, 53, 0
3, 150480, Note_on_c, 0, 69, 69
3, 150660, Note_on_c, 0, 69, 0
3, 150660, Note_on_c, 0, 70, 79
3, 150840, Note_on_c, 0, 70, 0
3, 150840, Note_on_c, 0, 65, 72
3, 151020, Note_on_c, 0, 65, 0
3, 151020, Note_on_c, 0, 62, 72
3, 151200, Note_on_c, 0, 62, 0
3, 151200, Note_on_c, 0, 46, 77
3, 151200, Note_on_c, 0, 50, 77
3, 151200, Note_on_c, 0, 53, 77
3, 151200, Note_on_c, 0, 58, 77
3, 151380, Note_on_c, 0, 58, 0
3, 151380, Note_on_c, 0, 46, 0
3, 151380, Note_on_c, 0, 50, 0
3, 151380, Note_on_c, 0, 53, 0
3, 151560, Note_on_c, 0, 69, 68
3, 151740, Note_on_c, 0, 69, 0
3, 151740, Note_on_c, 0, 70, 80
3, 151920, Note_on_c, 0, 70, 0
3, 151920, Note_on_c, 0, 65, 63
3, 152100, Note_on_c, 0, 65, 0
3, 152100, Note_on_c, 0, 62, 69
3, 152280, Note_on_c, 0, 62, 0
3, 152280, Note_on_c, 0, 48, 77
3, 152280, Note_on_c, 0, 51, 77
3, 152280, Note_on_c, 0, 55, 77
3, 152280, Note_on_c, 0, 58, 77
3, 152460, Note_on_c, 0, 58, 0
3, 152460, Note_on_c, 0, 48, 0
3, 152460, Note_on_c, 0, 51, 0
3, 152460, Note_on_c, 0, 55, 0
3, 152640, Note_on_c, 0, 69, 70
3, 152820, Note_on_c, 0, 69, 0
3, 152820, Note_on_c, 0, 70, 79
3, 153000, Note_on_c, 0, 70, 0
3, 153000, Note_on_c, 0, 67, 73
3, 153180, Note_on_c, 0, 67, 0
3, 153180, Note_on_c, 0, 63, 68
3, 153360, Note_on_c, 0, 63, 0
3, 153360, Note_on_c, 0, 49, 77
3, 153360, Note_on_c, 0, 52, 77
3, 153360, Note_on_c, 0, 55, 77
3, 153360, Note_on_c, 0, 58, 77
3, 153540, Note_on_c, 0, 58, 0
3, 153540, Note_on_c, 0, 49, 0
3, 153540, Note_on_c, 0, 52, 0
3, 153540, Note_on_c, 0, 55, 0
3, 153720, Note_on_c, 0, 69, 50
3, 153900, Note_on_c, 0, 69, 0
3, 153900, Note_on_c, 0, 70, 52
3, 154080, Note_on_c, 0, 70, 0
3, 154080, Note_on_c, 0, 67, 50
3, 154260, Note_on_c, 0, 67, 0
3, 154260, Note_on_c, 0, 64, 45
3, 154440, Note_on_c, 0, 64, 0
3, 154440, Note_on_c, 0, 50, 76
3, 154440, Note_on_c, 0, 53, 76
3, 154440, Note_on_c, 0, 58, 76
3, 154620, Note_on_c, 0, 58, 0
3, 154620, Note_on_c, 0, 53, 0
3, 154620, Note_on_c, 0, 50, 0
3, 154800, Note_on_c, 0, 69, 46
3, 154980, Note_on_c, 0, 69, 0
3, 154980, Note_on_c, 0, 70, 56
3, 155160, Note_on_c, 0, 70, 0
3, 155160, Note_on_c, 0, 68, 51
3, 155340, Note_on_c, 0, 68, 0
3, 155340, Note_on_c, 0, 65, 49
3, 155520, Note_on_c, 0, 65, 0
3, 155520, Note_on_c, 0, 50, 64
3, 155596, Note_on_c, 0, 58, 64
3, 155880, Note_on_c, 0, 58, 0
3, 155880, Note_on_c, 0, 50, 0
3, 155880, Note_on_c, 0, 70, 52
3, 155880, Note_on_c, 0, 56, 50
3, 155880, Note_on_c, 0, 58, 50
3, 156059, Note_on_c, 0, 58, 0
3, 156059, Note_on_c, 0, 56, 0
3, 156060, Note_on_c, 0, 70, 0
3, 156060, Note_on_c, 0, 69, 52
3, 156240, Note_on_c, 0, 69, 0
3, 156240, Note_on_c, 0, 68, 50
3, 156240, Note_on_c, 0, 56, 46
3, 156240, Note_on_c, 0, 58, 46
3, 156419, Note_on_c, 0, 58, 0
3, 156419, Note_on_c, 0, 56, 0
3, 156420, Note_on_c, 0, 68, 0
3, 156420, Note_on_c, 0, 65, 50
3, 156600, Note_on_c, 0, 65, 0
3, 156600, Note_on_c, 0, 46, 71
3, 156676, Note_on_c, 0, 58, 71
3, 156960, Note_on_c, 0, 58, 0
3, 156960, Note_on_c, 0, 46, 0
3, 156960, Note_on_c, 0, 70, 48
3, 156960, Note_on_c, 0, 56, 43
3, 156960, Note_on_c, 0, 58, 43
3, 157139, Note_on_c, 0, 58, 0
3, 157139, Note_on_c, 0, 56, 0
3, 157140, Note_on_c, 0, 70, 0
3, 157140, Note_on_c, 0, 69, 53
3, 157320, Note_on_c, 0, 69, 0
3, 157320, Note_on_c, 0, 68, 56
3, 157320, Note_on_c, 0, 56, 46
3, 157320, Note_on_c, 0, 58, 46
3, 157499, Note_on_c, 0, 58, 0
3, 157499, Note_on_c, 0, 56, 0
3, 157500, Note_on_c, 0, 68, 0
3, 157500, Note_on_c, 0, 65, 48
3, 157680, Note_on_c, 0, 65, 0
3, 157680, Note_on_c, 0, 51, 69
3, 157756, Note_on_c, 0, 58, 69
3, 158040, Note_on_c, 0, 58, 0
3, 158040, Note_on_c, 0, 51, 0
3, 158040, Note_on_c, 0, 70, 51
3, 158040, Note_on_c, 0, 55, 44
3, 158040, Note_on_c, 0, 58, 44
3, 158219, Note_on_c, 0, 58, 0
3, 158219, Note_on_c, 0, 55, 0
3, 158220, Note_on_c, 0, 70, 0
3, 158220, Note_on_c, 0, 68, 51
3, 158400, Note_on_c, 0, 68, 0
3, 158400, Note_on_c, 0, 67, 54
3, 158400, Note_on_c, 0, 55, 43
3, 158400, Note_on_c, 0, 58, 43
3, 158579, Note_on_c, 0, 58, 0
3, 158579, Note_on_c, 0, 55, 0
3, 158580, Note_on_c, 0, 67, 0
3, 158580, Note_on_c, 0, 63, 45
3, 158760, Note_on_c, 0, 63, 0
3, 158760, Note_on_c, 0, 46, 68
3, 158836, Note_on_c, 0, 58, 68
3, 159120, Note_on_c, 0, 58, 0
3, 159120, Note_on_c, 0, 46, 0
3, 159120, Note_on_c, 0, 70, 52
3, 159120, Note_on_c, 0, 55, 43
3, 159120, Note_on_c, 0, 58, 43
3, 159299, Note_on_c, 0, 58, 0
3, 159299, Note_on_c, 0, 55, 0
3, 159300, Note_on_c, 0, 70, 0
3, 159300, Note_on_c, 0, 68, 48
3, 159480, Note_on_c, 0, 68, 0
3, 159480, Note_on_c, 0, 67, 53
3, 159480, Note_on_c, 0, 55, 49
3, 159480, Note_on_c, 0, 58, 49
3, 159659, Note_on_c, 0, 58, 0
3, 159659, Note_on_c, 0, 55, 0
3, 159660, Note_on_c, 0, 67, 0
3, 159660, Note_on_c, 0, 63, 49
3, 159840, Note_on_c, 0, 63, 0
3, 159840, Note_on_c, 0, 50, 71
3, 159916, Note_on_c, 0, 58, 71
3, 160200, Note_on_c, 0, 58, 0
3, 160200, Note_on_c, 0, 50, 0
3, 160200, Note_on_c, 0, 70, 51
3, 160200, Note_on_c, 0, 56, 47
3, 160200, Note_on_c, 0, 58, 47
3, 160379, Note_on_c, 0, 58, 0
3, 160379, Note_on_c, 0, 56, 0
3, 160380, Note_on_c, 0, 70, 0
3, 160380, Note_on_c, 0, 69, 50
3, 160560, Note_on_c, 0, 69, 0
3, 160560, Note_on_c, 0, 68, 50
3, 160560, Note_on_c, 0, 56, 43
3, 160560, Note_on_c, 0, 58, 43
3, 160739, Note_on_c, 0, 58, 0
3, 160739, Note_on_c, 0, 56, 0
3, 160740, Note_on_c, 0, 68, 0
3, 160740, Note_on_c, 0, 65, 55
3, 160920, Note_on_c, 0, 65, 0
3, 160920, Note_on_c, 0, 46, 70
3, 160996, Note_on_c, 0, 58, 70
3, 161280, Note_on_c, 0, 58, 0
3, 161280, Note_on_c, 0, 46, 0
3, 161280, Note_on_c, 0, 70, 45
3, 161280, Note_on_c, 0, 56, 46
3, 161280, Note_on_c, 0, 58, 46
3, 161459, Note_on_c, 0, 58, 0
3, 161459, Note_on_c, 0, 56, 0
3, 161460, Note_on_c, 0, 70, 0
3, 161460, Note_on_c, 0, 69, 55
3, 161640, Note_on_c, 0, 69, 0
3, 161640, Note_on_c, 0, 68, 52
3, 161640, Note_on_c, 0, 56, 44
3, 161640, Note_on_c, 0, 58, 44
3, 161819, Note_on_c, 0, 58, 0
3, 161819, Note_on_c, 0, 56, 0
3, 161820, Note_on_c, 0, 68, 0
3, 161820, Note_on_c, 0, 65, 51
3, 162000, Note_on_c, 0, 65, 0
3, 162000, Note_on_c, 0, 51, 66
3, 162076, Note_on_c, 0, 58, 66
3, 162360, Note_on_c, 0, 58, 0
3, 162360, Note_on_c, 0, 51, 0
3, 162360, Note_on_c, 0, 70, 50
3, 162360, Note_on_c, 0, 55, 50
3, 162360, Note_on_c, 0, 58, 50
3, 162539, Note_on_c, 0, 58, 0
3, 162539, Note_on_c, 0, 55, 0
3, 162540, Note_on_c, 0, 70, 0
3, 162540, Note_on_c, 0, 68, 49
3, 162720, Note_on_c, 0, 68, 0
3, 162720, Note_on_c, 0, 67, 51
3, 162720, Note_on_c, 0, 55, 46
3, 162720, Note_on_c, 0, 58, 46
3, 162899, Note_on_c, 0, 58, 0
3, 162899, Note_on_c, 0, 55, 0
3, 162900, Note_on_c, 0, 67, 0
3, 162900, Note_on_c, 0, 63, 49
3, 163080, Note_on_c, 0, 63, 0
3, 163080, Note_on_c, 0, 46, 73
3, 163156, Note_on_c, 0, 58, 73
3, 163440, Note_on_c, 0, 58, 0
3, 163440, Note_on_c, 0, 46, 0
3, 163440, Note_on_c, 0, 70, 53
3, 163440, Note_on_c, 0, 55, 45
3, 163440, Note_on_c, 0, 58, 45
3, 163619, Note_on_c, 0, 58, 0
3, 163619, Note_on_c, 0, 55, 0
3, 163620, Note_on_c, 0, 70, 0
3, 163620, Note_on_c, 0, 68, 48
3, 163800, Note_on_c, 0, 68, 0
3, 163800, Note_on_c, 0, 67, 50
3, 163800, Note_on_c, 0, 55, 47
3, 163800, Note_on_c, 0, 58, 47
3, 163979, Note_on_c, 0, 58, 0
3, 163979, Note_on_c, 0, 55, 0
3, 163980, Note_on_c, 0, 67, 0
3, 163980, Note_on_c, 0, 63, 52
3, 164160, Note_on_c, 0, 63, 0
3, 164160, Note_on_c, 0, 50, 69
3, 164236, Note_on_c, 0, 58, 69
3, 164520, Note_on_c, 0, 58, 0
3, 164520, Note_on_c, 0, 50, 0
3, 164520, Note_on_c, 0, 70, 50
3, 164520, Note_on_c, 0, 56, 44
3, 164520, Note_on_c, 0, 58, 44
3, 164699, Note_on_c, 0, 58, 0
3, 164699, Note_on_c, 0, 56, 0
3, 164700, Note_on_c, 0, 70, 0
3, 164700, Note_on_c, 0, 69, 50
3, 164880, Note_on_c, 0, 69, 0
3, 164880, Note_on_c, 0, 68, 53
3, 164880, Note_on_c, 0, 56, 43
3, 164880, Note_on_c, 0, 58, 43
3, 165059, Note_on_c, 0, 58, 0
3, 165059, Note_on_c, 0, 56, 0
3, 165060, Note_on_c, 0, 68, 0
3, 165060, Note_on_c, 0, 65, 52
3, 165240, Note_on_c, 0, 65, 0
3, 165240, Note_on_c, 0, 46, 73
3, 165316, Note_on_c, 0, 58, 73
3, 165600, Note_on_c, 0, 58, 0
3, 165600, Note_on_c, 0, 46, 0
3, 165600, Note_on_c, 0, 70, 47
3, 165600, Note_on_c, 0, 56, 44
3, 165600, Note_on_c, 0, 58, 44
3, 165779, Note_on_c, 0, 58, 0
3, 165779, Note_on_c, 0, 56, 0
3, 165780, Note_on_c, 0, 70, 0
3, 165780, Note_on_c, 0, 69, 55
3, 165960, Note_on_c, 0, 69, 0
3, 165960, Note_on_c, 0, 68, 51
3, 165960, Note_on_c, 0, 56, 45
3, 165960, Note_on_c, 0, 58, 45
3, 166139, Note_on_c, 0, 58, 0
3, 166139, Note_on_c, 0, 56, 0
3, 166140, Note_on_c, 0, 68, 0
3, 166140, Note_on_c, 0, 65, 47
3, 166320, Note_on_c, 0, 65, 0
3, 166320, Note_on_c, 0, 51, 71
3, 166396, Note_on_c, 0, 58, 71
3, 166680, Note_on_c, 0, 58, 0
3, 166680, Note_on_c, 0, 51, 0
3, 166680, Note_on_c, 0, 70, 46
3, 166680, Note_on_c, 0, 55, 43
3, 166680, Note_on_c, 0, 58, 43
3, 166859, Note_on_c, 0, 58, 0
3, 166859, Note_on_c, 0, 55, 0
3, 166860, Note_on_c, 0, 70, 0
3, 166860, Note_on_c, 0, 68, 50
3, 167040, Note_on_c, 0, 68, 0
3, 167040, Note_on_c, 0, 67, 53
3, 167040, Note_on_c, 0, 55, 44
3, 167040, Note_on_c, 0, 58, 44
3, 167219, Note_on_c, 0, 58, 0
3, 167219, Note_on_c, 0, 55, 0
3, 167220, Note_on_c, 0, 67, 0
3, 167220, Note_on_c, 0, 63, 49
3, 167400, Note_on_c, 0, 63, 0
3, 167400, Note_on_c, 0, 51, 73
3, 167476, Note_on_c, 0, 58, 73
3, 167760, Note_on_c, 0, 58, 0
3, 167760, Note_on_c, 0, 51, 0
3, 167760, Note_on_c, 0, 70, 50
3, 167760, Note_on_c, 0, 55, 50
3, 167760, Note_on_c, 0, 61, 50
3, 167939, Note_on_c, 0, 61, 0
3, 167939, Note_on_c, 0, 55, 0
3, 167940, Note_on_c, 0, 70, 0
3, 167940, Note_on_c, 0, 68, 51
3, 168120, Note_on_c, 0, 68, 0
3, 168120, Note_on_c, 0, 67, 48
3, 168120, Note_on_c, 0, 55, 45
3, 168300, Note_on_c, 0, 67, 0
3, 168300, Note_on_c, 0, 61, 45
3, 168480, Note_on_c, 0, 61, 0
3, 168480, Note_on_c, 0, 55, 0
3, 168480, Note_on_c, 0, 58, 54
3, 168480, Note_on_c, 0, 38, 40
3, 168556, Note_on_c, 0, 50, 40
3, 168840, Note_on_c, 0, 50, 0
3, 168840, Note_on_c, 0, 38, 0
3, 168840, Note_on_c, 0, 58, 0
3, 168840, Note_on_c, 0, 69, 73
3, 168840, Note_on_c, 0, 55, 51
3, 168840, Note_on_c, 0, 58, 51
3, 169019, Note_on_c, 0, 58, 0
3, 169019, Note_on_c, 0, 55, 0
3, 169020, Note_on_c, 0, 69, 0
3, 169020, Note_on_c, 0, 70, 58
3, 169200, Note_on_c, 0, 70, 0
3, 169200, Note_on_c, 0, 67, 52
3, 169200, Note_on_c, 0, 55, 44
3, 169200, Note_on_c, 0, 58, 44
3, 169379, Note_on_c, 0, 58, 0
3, 169379, Note_on_c, 0, 55, 0
3, 169380, Note_on_c, 0, 67, 0
3, 169380, Note_on_c, 0, 62, 48
3, 169560, Note_on_c, 0, 62, 0
3, 169560, Note_on_c, 0, 60, 50
3, 169560, Note_on_c, 0, 38, 43
3, 169636, Note_on_c, 0, 50, 43
3, 169920, Note_on_c, 0, 50, 0
3, 169920, Note_on_c, 0, 38, 0
3, 169920, Note_on_c, 0, 60, 0
3, 169920, Note_on_c, 0, 71, 74
3, 169920, Note_on_c, 0, 54, 56
3, 169920, Note_on_c, 0, 60, 56
3, 170099, Note_on_c, 0, 60, 0
3, 170099, Note_on_c, 0, 54, 0
3, 170100, Note_on_c, 0, 71, 0
3, 170100, Note_on_c, 0, 72, 62
3, 170280, Note_on_c, 0, 72, 0
3, 170280, Note_on_c, 0, 66, 47
3, 170280, Note_on_c, 0, 50, 53
3, 170280, Note_on_c, 0, 60, 53
3, 170459, Note_on_c, 0, 60, 0
3, 170459, Note_on_c, 0, 50, 0
3, 170460, Note_on_c, 0, 66, 0
3, 170460, Note_on_c, 0, 62, 48
3, 170640, Note_on_c, 0, 62, 0
3, 170640, Note_on_c, 0, 43, 40
3, 170708, Note_on_c, 0, 58, 40
3, 171000, Note_on_c, 0, 58, 0
3, 171000, Note_on_c, 0, 43, 0
3, 171000, Note_on_c, 0, 69, 47
3, 171000, Note_on_c, 0, 55, 43
3, 171000, Note_on_c, 0, 62, 43
3, 171179, Note_on_c, 0, 62, 0
3, 171179, Note_on_c, 0, 55, 0
3, 171180, Note_on_c, 0, 69, 0
3, 171180, Note_on_c, 0, 70, 55
3, 171360, Note_on_c, 0, 70, 0
3, 171360, Note_on_c, 0, 67, 55
3, 171360, Note_on_c, 0, 55, 46
3, 171360, Note_on_c, 0, 58, 46
3, 171539, Note_on_c, 0, 58, 0
3, 171539, Note_on_c, 0, 55, 0
3, 171540, Note_on_c, 0, 67, 0
3, 171540, Note_on_c, 0, 62, 48
3, 171720, Note_on_c, 0, 62, 0
3, 171720, Note_on_c, 0, 55, 72
3, 171720, Note_on_c, 0, 58, 72
3, 172080, Note_on_c, 0, 58, 0
3, 172080, Note_on_c, 0, 55, 0
3, 172080, Note_on_c, 0, 69, 53
3, 172080, Note_on_c, 0, 58, 50
3, 172080, Note_on_c, 0, 62, 50
3, 172259, Note_on_c, 0, 62, 0
3, 172259, Note_on_c, 0, 58, 0
3, 172260, Note_on_c, 0, 69, 0
3, 172260, Note_on_c, 0, 70, 56
3, 172440, Note_on_c, 0, 70, 0
3, 172440, Note_on_c, 0, 67, 51
3, 172440, Note_on_c, 0, 55, 45
3, 172440, Note_on_c, 0, 58, 45
3, 172619, Note_on_c, 0, 58, 0
3, 172619, Note_on_c, 0, 55, 0
3, 172620, Note_on_c, 0, 67, 0
3, 172620, Note_on_c, 0, 62, 50
3, 172800, Note_on_c, 0, 62, 0
3, 172800, Note_on_c, 0, 50, 71
3, 172876, Note_on_c, 0, 58, 71
3, 173160, Note_on_c, 0, 58, 0
3, 173160, Note_on_c, 0, 50, 0
3, 173160, Note_on_c, 0, 70, 49
3, 173160, Note_on_c, 0, 56, 45
3, 173160, Note_on_c, 0, 58, 45
3, 173339, Note_on_c, 0, 58, 0
3, 173339, Note_on_c, 0, 56, 0
3, 173340, Note_on_c, 0, 70, 0
3, 173340, Note_on_c, 0, 69, 54
3, 173520, Note_on_c, 0, 69, 0
3, 173520, Note_on_c, 0, 68, 56
3, 173520, Note_on_c, 0, 56, 47
3, 173520, Note_on_c, 0, 58, 47
3, 173699, Note_on_c, 0, 58, 0
3, 173699, Note_on_c, 0, 56, 0
3, 173700, Note_on_c, 0, 68, 0
3, 173700, Note_on_c, 0, 65, 52
3, 173880, Note_on_c, 0, 65, 0
3, 173880, Note_on_c, 0, 46, 70
3, 173956, Note_on_c, 0, 58, 70
3, 174240, Note_on_c, 0, 58, 0
3, 174240, Note_on_c, 0, 46, 0
3, 174240, Note_on_c, 0, 70, 44
3, 174240, Note_on_c, 0, 56, 44
3, 174240, Note_on_c, 0, 58, 44
3, 174419, Note_on_c, 0, 58, 0
3, 174419, Note_on_c, 0, 56, 0
3, 174420, Note_on_c, 0, 70, 0
3, 174420, Note_on_c, 0, 69, 51
3, 174600, Note_on_c, 0, 69, 0
3, 174600, Note_on_c, 0, 68, 55
3, 174600, Note_on_c, 0, 56, 48
3, 174600, Note_on_c, 0, 58, 48
3, 174779, Note_on_c, 0, 58, 0
3, 174779, Note_on_c, 0, 56, 0
3, 174780, Note_on_c, 0, 68, 0
3, 174780, Note_on_c, 0, 65, 51
3, 174960, Note_on_c, 0, 65, 0
3, 174960, Note_on_c, 0, 51, 69
3, 175036, Note_on_c, 0, 58, 69
3, 175320, Note_on_c, 0, 58, 0
3, 175320, Note_on_c, 0, 51, 0
3, 175320, Note_on_c, 0, 70, 53
3, 175320, Note_on_c, 0, 55, 50
3, 175320, Note_on_c, 0, 58, 50
3, 175499, Note_on_c, 0, 58, 0
3, 175499, Note_on_c, 0, 55, 0
3, 175500, Note_on_c, 0, 70, 0
3, 175500, Note_on_c, 0, 68, 48
3, 175680, Note_on_c, 0, 68, 0
3, 175680, Note_on_c, 0, 67, 50
3, 175680, Note_on_c, 0, 55, 44
3, 175680, Note_on_c, 0, 58, 44
3, 175859, Note_on_c, 0, 58, 0
3, 175859, Note_on_c, 0, 55, 0
3, 175860, Note_on_c, 0, 67, 0
3, 175860, Note_on_c, 0, 63, 48
3, 176040, Note_on_c, 0, 63, 0
3, 176040, Note_on_c, 0, 46, 68
3, 176116, Note_on_c, 0, 58, 68
3, 176400, Note_on_c, 0, 58, 0
3, 176400, Note_on_c, 0, 46, 0
3, 176400, Note_on_c, 0, 70, 46
3, 176400, Note_on_c, 0, 55, 46
3, 176400, Note_on_c, 0, 58, 46
3, 176579, Note_on_c, 0, 58, 0
3, 176579, Note_on_c, 0, 55, 0
3, 176580, Note_on_c, 0, 70, 0
3, 176580, Note_on_c, 0, 68, 51
3, 176760, Note_on_c, 0, 68, 0
3, 176760, Note_on_c, 0, 67, 55
3, 176760, Note_on_c, 0, 55, 47
3, 176760, Note_on_c, 0, 58, 47
3, 176939, Note_on_c, 0, 58, 0
3, 176939, Note_on_c, 0, 55, 0
3, 176940, Note_on_c, 0, 67, 0
3, 176940, Note_on_c, 0, 63, 52
3, 177120, Note_on_c, 0, 63, 0
3, 177120, Note_on_c, 0, 50, 69
3, 177196, Note_on_c, 0, 58, 69
3, 177480, Note_on_c, 0, 58, 0
3, 177480, Note_on_c, 0, 50, 0
3, 177480, Note_on_c, 0, 70, 51
3, 177480, Note_on_c, 0, 56, 45
3, 177480, Note_on_c, 0, 58, 45
3, 177659, Note_on_c, 0, 58, 0
3, 177659, Note_on_c, 0, 56, 0
3, 177660, Note_on_c, 0, 70, 0
3, 177660, Note_on_c, 0, 69, 50
3, 177840, Note_on_c, 0, 69, 0
3, 177840, Note_on_c, 0, 68, 52
3, 177840, Note_on_c, 0, 56, 44
3, 177840, Note_on_c, 0, 58, 44
3, 178019, Note_on_c, 0, 58, 0
3, 178019, Note_on_c, 0, 56, 0
3, 178020, Note_on_c, 0, 68, 0
3, 178020, Note_on_c, 0, 65, 53
3, 178200, Note_on_c, 0, 65, 0
3, 178200, Note_on_c, 0, 46, 72
3, 178276, Note_on_c, 0, 58, 72
3, 178560, Note_on_c, 0, 58, 0
3, 178560, Note_on_c, 0, 46, 0
3, 178560, Note_on_c, 0, 70, 50
3, 178560, Note_on_c, 0, 56, 44
3, 178560, Note_on_c, 0, 58, 44
3, 178739, Note_on_c, 0, 58, 0
3, 178739, Note_on_c, 0, 56, 0
3, 178740, Note_on_c, 0, 70, 0
3, 178740, Note_on_c, 0, 69, 48
3, 178920, Note_on_c, 0, 69, 0
3, 178920, Note_on_c, 0, 68, 50
3, 178920, Note_on_c, 0, 56, 49
3, 178920, Note_on_c, 0, 58, 49
3, 179099, Note_on_c, 0, 58, 0
3, 179099, Note_on_c, 0, 56, 0
3, 179100, Note_on_c, 0, 68, 0
3, 179100, Note_on_c, 0, 65, 48
3, 179280, Note_on_c, 0, 65, 0
3, 179280, Note_on_c, 0, 51, 76
3, 179356, Note_on_c, 0, 58, 76
3, 179640, Note_on_c, 0, 58, 0
3, 179640, Note_on_c, 0, 51, 0
3, 179640, Note_on_c, 0, 70, 53
3, 179640, Note_on_c, 0, 55, 42
3, 179640, Note_on_c, 0, 58, 42
3, 179819, Note_on_c, 0, 58, 0
3, 179819, Note_on_c, 0, 55, 0
3, 179820, Note_on_c, 0, 70, 0
3, 179820, Note_on_c, 0, 68, 53
3, 180000, Note_on_c, 0, 68, 0
3, 180000, Note_on_c, 0, 67, 47
3, 180000, Note_on_c, 0, 55, 46
3, 180000, Note_on_c, 0, 58, 46
3, 180179, Note_on_c, 0, 58, 0
3, 180179, Note_on_c, 0, 55, 0
3, 180180, Note_on_c, 0, 67, 0
3, 180180, Note_on_c, 0, 63, 52
3, 180360, Note_on_c, 0, 63, 0
3, 180360, Note_on_c, 0, 46, 69
3, 180436, Note_on_c, 0, 58, 69
3, 180720, Note_on_c, 0, 58, 0
3, 180720, Note_on_c, 0, 46, 0
3, 180720, Note_on_c, 0, 70, 53
3, 180720, Note_on_c, 0, 55, 53
3, 180720, Note_on_c, 0, 58, 53
3, 180899, Note_on_c, 0, 58, 0
3, 180899, Note_on_c, 0, 55, 0
3, 180900, Note_on_c, 0, 70, 0
3, 180900, Note_on_c, 0, 68, 50
3, 181080, Note_on_c, 0, 68, 0
3, 181080, Note_on_c, 0, 67, 52
3, 181080, Note_on_c, 0, 55, 50
3, 181080, Note_on_c, 0, 58, 50
3, 181259, Note_on_c, 0, 58, 0
3, 181259, Note_on_c, 0, 55, 0
3, 181260, Note_on_c, 0, 67, 0
3, 181260, Note_on_c, 0, 63, 49
3, 181440, Note_on_c, 0, 63, 0
3, 181440, Note_on_c, 0, 50, 69
3, 181516, Note_on_c, 0, 58, 69
3, 181800, Note_on_c, 0, 58, 0
3, 181800, Note_on_c, 0, 50, 0
3, 181800, Note_on_c, 0, 70, 49
3, 181800, Note_on_c, 0, 56, 43
3, 181800, Note_on_c, 0, 58, 43
3, 181979, Note_on_c, 0, 58, 0
3, 181979, Note_on_c, 0, 56, 0
3, 181980, Note_on_c, 0, 70, 0
3, 181980, Note_on_c, 0, 69, 52
3, 182160, Note_on_c, 0, 69, 0
3, 182160, Note_on_c, 0, 68, 51
3, 182160, Note_on_c, 0, 56, 41
3, 182160, Note_on_c, 0, 58, 41
3, 182339, Note_on_c, 0, 58, 0
3, 182339, Note_on_c, 0, 56, 0
3, 182340, Note_on_c, 0, 68, 0
3, 182340, Note_on_c, 0, 65, 48
3, 182520, Note_on_c, 0, 65, 0
3, 182520, Note_on_c, 0, 46, 73
3, 182596, Note_on_c, 0, 58, 73
3, 182880, Note_on_c, 0, 58, 0
3, 182880, Note_on_c, 0, 46, 0
3, 182880, Note_on_c, 0, 70, 53
3, 182880, Note_on_c, 0, 56, 49
3, 182880, Note_on_c, 0, 58, 49
3, 183059, Note_on_c, 0, 58, 0
3, 183059, Note_on_c, 0, 56, 0
3, 183060, Note_on_c, 0, 70, 0
3, 183060, Note_on_c, 0, 69, 51
3, 183240, Note_on_c, 0, 69, 0
3, 183240, Note_on_c, 0, 68, 53
3, 183240, Note_on_c, 0, 56, 46
3, 183240, Note_on_c, 0, 58, 46
3, 183419, Note_on_c, 0, 58, 0
3, 183419, Note_on_c, 0, 56, 0
3, 183420, Note_on_c, 0, 68, 0
3, 183420, Note_on_c, 0, 65, 49
3, 183600, Note_on_c, 0, 65, 0
3, 183600, Note_on_c, 0, 51, 71
3, 183676, Note_on_c, 0, 58, 71
3, 183960, Note_on_c, 0, 58, 0
3, 183960, Note_on_c, 0, 51, 0
3, 183960, Note_on_c, 0, 70, 48
3, 183960, Note_on_c, 0, 55, 44
3, 183960, Note_on_c, 0, 58, 44
3, 184139, Note_on_c, 0, 58, 0
3, 184139, Note_on_c, 0, 55, 0
3, 184140, Note_on_c, 0, 70, 0
3, 184140, Note_on_c, 0, 68, 49
3, 184320, Note_on_c, 0, 68, 0
3, 184320, Note_on_c, 0, 67, 49
3, 184320, Note_on_c, 0, 55, 46
3, 184320, Note_on_c, 0, 58, 46
3, 184499, Note_on_c, 0, 58, 0
3, 184499, Note_on_c, 0, 55, 0
3, 184500, Note_on_c, 0, 67, 0
3, 184500, Note_on_c, 0, 63, 49
3, 184680, Note_on_c, 0, 63, 0
3, 184680, Note_on_c, 0, 46, 72
3, 184756, Note_on_c, 0, 58, 72
3, 185040, Note_on_c, 0, 58, 0
3, 185040, Note_on_c, 0, 46, 0
3, 185040, Note_on_c, 0, 51, 40
3, 185040, Note_on_c, 0, 55, 40
3, 185219, Note_on_c, 0, 55, 0
3, 185219, Note_on_c, 0, 51, 0
3, 185400, Note_on_c, 0, 58, 55
3, 185400, Note_on_c, 0, 51, 43
3, 185400, Note_on_c, 0, 55, 43
3, 185579, Note_on_c, 0, 55, 0
3, 185579, Note_on_c, 0, 51, 0
3, 185717, Note_on_c, 0, 58, 0
3, 185760, Note_on_c, 0, 60, 55
3, 185760, Note_on_c, 0, 51, 43
3, 186120, Note_on_c, 0, 51, 0
3, 186120, Note_on_c, 0, 60, 0
3, 186120, Note_on_c, 0, 58, 51
3, 186120, Note_on_c, 0, 55, 47
3, 186299, Note_on_c, 0, 55, 0
3, 186480, Note_on_c, 0, 58, 0
3, 186480, Note_on_c, 0, 57, 55
3, 186480, Note_on_c, 0, 55, 46
3, 186659, Note_on_c, 0, 55, 0
3, 186840, Note_on_c, 0, 57, 0
3, 186840, Note_on_c, 0, 55, 56
3, 186840, Note_on_c, 0, 51, 40
3, 187200, Note_on_c, 0, 51, 0
3, 187200, Note_on_c, 0, 55, 0
3, 187200, Note_on_c, 0, 57, 56
3, 187200, Note_on_c, 0, 55, 49
3, 187379, Note_on_c, 0, 55, 0
3, 187560, Note_on_c, 0, 57, 0
3, 187560, Note_on_c, 0, 58, 57
3, 187560, Note_on_c, 0, 55, 47
3, 187739, Note_on_c, 0, 55, 0
3, 187920, Note_on_c, 0, 58, 0
3, 187920, Note_on_c, 0, 60, 57
3, 187920, Note_on_c, 0, 51, 43
3, 188280, Note_on_c, 0, 51, 0
3, 188280, Note_on_c, 0, 60, 0
3, 188280, Note_on_c, 0, 58, 50
3, 188280, Note_on_c, 0, 55, 50
3, 188459, Note_on_c, 0, 55, 0
3, 188640, Note_on_c, 0, 58, 0
3, 188640, Note_on_c, 0, 57, 53
3, 188640, Note_on_c, 0, 55, 48
3, 188819, Note_on_c, 0, 55, 0
3, 189000, Note_on_c, 0, 57, 0
3, 189000, Note_on_c, 0, 62, 62
3, 189000, Note_on_c, 0, 50, 44
3, 189180, Note_on_c, 0, 50, 0
3, 189180, Note_on_c, 0, 62, 0
3, 189360, Note_on_c, 0, 63, 49
3, 189360, Note_on_c, 0, 48, 41
3, 189360, Note_on_c, 0, 53, 41
3, 189360, Note_on_c, 0, 60, 41
3, 189540, Note_on_c, 0, 60, 0
3, 189540, Note_on_c, 0, 63, 0
3, 189540, Note_on_c, 0, 48, 0
3, 189540, Note_on_c, 0, 53, 0
3, 189720, Note_on_c, 0, 53, 50
3, 189840, Note_on_c, 0, 53, 0
3, 189840, Note_on_c, 0, 55, 54
3, 189959, Note_on_c, 0, 55, 0
3, 189959, Note_on_c, 0, 57, 59
3, 190080, Note_on_c, 0, 57, 0
3, 190080, Note_on_c, 0, 58, 58
3, 190080, Note_on_c, 0, 34, 43
3, 190136, Note_on_c, 0, 46, 43
3, 190440, Note_on_c, 0, 46, 0
3, 190440, Note_on_c, 0, 34, 0
3, 191160, Note_on_c, 0, 58, 0
3, 191160, Note_on_c, 0, 57, 56
3, 191160, Note_on_c, 0, 29, 42
3, 191216, Note_on_c, 0, 41, 42
3, 191520, Note_on_c, 0, 41, 0
3, 191520, Note_on_c, 0, 29, 0
3, 192240, Note_on_c, 0, 57, 0
3, 192240, Note_on_c, 0, 58, 55
3, 192240, Note_on_c, 0, 34, 35
3, 192296, Note_on_c, 0, 46, 35
3, 192600, Note_on_c, 0, 46, 0
3, 192600, Note_on_c, 0, 34, 0
3, 192960, Note_on_c, 0, 58, 0
3, 192960, Note_on_c, 0, 55, 53
3, 193320, Note_on_c, 0, 55, 0
3, 193320, Note_on_c, 0, 57, 60
3, 193320, Note_on_c, 0, 29, 41
3, 193376, Note_on_c, 0, 41, 41
3, 193680, Note_on_c, 0, 41, 0
3, 193680, Note_on_c, 0, 29, 0
3, 193680, Note_on_c, 0, 57, 0
3, 193680, Note_on_c, 0, 58, 57
3, 194040, Note_on_c, 0, 58, 0
3, 194040, Note_on_c, 0, 55, 56
3, 194400, Note_on_c, 0, 55, 0
3, 194400, Note_on_c, 0, 57, 54
3, 194400, Note_on_c, 0, 36, 41
3, 194456, Note_on_c, 0, 48, 41
3, 194760, Note_on_c, 0, 48, 0
3, 194760, Note_on_c, 0, 36, 0
3, 195120, Note_on_c, 0, 57, 0
3, 195120, Note_on_c, 0, 60, 58
3, 195480, Note_on_c, 0, 60, 0
3, 195480, Note_on_c, 0, 62, 56
3, 195480, Note_on_c, 0, 33, 38
3, 195536, Note_on_c, 0, 45, 38
3, 195840, Note_on_c, 0, 45, 0
3, 195840, Note_on_c, 0, 33, 0
3, 196200, Note_on_c, 0, 62, 0
3, 196200, Note_on_c, 0, 59, 57
3, 196560, Note_on_c, 0, 59, 0
3, 196560, Note_on_c, 0, 60, 55
3, 196560, Note_on_c, 0, 32, 39
3, 196616, Note_on_c, 0, 44, 39
3, 196920, Note_on_c, 0, 44, 0
3, 196920, Note_on_c, 0, 32, 0
3, 197640, Note_on_c, 0, 33, 40
3, 197696, Note_on_c, 0, 45, 40
3, 198000, Note_on_c, 0, 45, 0
3, 198000, Note_on_c, 0, 33, 0
3, 198720, Note_on_c, 0, 60, 0
3, 198720, Note_on_c, 0, 65, 62
3, 198720, Note_on_c, 0, 29, 42
3, 198776, Note_on_c, 0, 41, 42
3, 199080, Note_on_c, 0, 41, 0
3, 199080, Note_on_c, 0, 29, 0
3, 199800, Note_on_c, 0, 65, 0
3, 199800, Note_on_c, 0, 64, 52
3, 199800, Note_on_c, 0, 31, 37
3, 199856, Note_on_c, 0, 43, 37
3, 200160, Note_on_c, 0, 43, 0
3, 200160, Note_on_c, 0, 31, 0
3, 200880, Note_on_c, 0, 64, 0
3, 200880, Note_on_c, 0, 63, 51
3, 200880, Note_on_c, 0, 32, 42
3, 200936, Note_on_c, 0, 44, 42
3, 201240, Note_on_c, 0, 44, 0
3, 201240, Note_on_c, 0, 32, 0
3, 201600, Note_on_c, 0, 63, 0
3, 201600, Note_on_c, 0, 60, 49
3, 201960, Note_on_c, 0, 60, 0
3, 201960, Note_on_c, 0, 63, 61
3, 201960, Note_on_c, 0, 33, 41
3, 202016, Note_on_c, 0, 45, 41
3, 202320, Note_on_c, 0, 45, 0
3, 202320, Note_on_c, 0, 33, 0
3, 202320, Note_on_c, 0, 63, 0
3, 202320, Note_on_c, 0, 62, 58
3, 202680, Note_on_c, 0, 62, 0
3, 202680, Note_on_c, 0, 60, 49
3, 203040, Note_on_c, 0, 60, 0
3, 203040, Note_on_c, 0, 67, 69
3, 203040, Note_on_c, 0, 34, 42
3, 203096, Note_on_c, 0, 46, 42
3, 203400, Note_on_c, 0, 46, 0
3, 203400, Note_on_c, 0, 34, 0
3, 203760, Note_on_c, 0, 67, 0
3, 203760, Note_on_c, 0, 65, 56
3, 204120, Note_on_c, 0, 65, 0
3, 204120, Note_on_c, 0, 63, 50
3, 204120, Note_on_c, 0, 29, 38
3, 204176, Note_on_c, 0, 41, 38
3, 204480, Note_on_c, 0, 41, 0
3, 204480, Note_on_c, 0, 29, 0
3, 204840, Note_on_c, 0, 63, 0
3, 204840, Note_on_c, 0, 62, 52
3, 205200, Note_on_c, 0, 62, 0
3, 205200, Note_on_c, 0, 62, 55
3, 205200, Note_on_c, 0, 33, 39
3, 205256, Note_on_c, 0, 45, 39
3, 205560, Note_on_c, 0, 45, 0
3, 205560, Note_on_c, 0, 33, 0
3, 205560, Note_on_c, 0, 62, 0
3, 205560, Note_on_c, 0, 60, 51
3, 205920, Note_on_c, 0, 60, 0
3, 205920, Note_on_c, 0, 59, 57
3, 206280, Note_on_c, 0, 59, 0
3, 206280, Note_on_c, 0, 60, 57
3, 206280, Note_on_c, 0, 29, 39
3, 206322, Note_on_c, 0, 41, 39
3, 206640, Note_on_c, 0, 41, 0
3, 206640, Note_on_c, 0, 29, 0
3, 206640, Note_on_c, 0, 60, 0
3, 206640, Note_on_c, 0, 55, 52
3, 207000, Note_on_c, 0, 55, 0
3, 207000, Note_on_c, 0, 57, 54
3, 207360, Note_on_c, 0, 57, 0
3, 207360, Note_on_c, 0, 58, 57
3, 207360, Note_on_c, 0, 34, 39
3, 207436, Note_on_c, 0, 46, 39
3, 207720, Note_on_c, 0, 46, 0
3, 207720, Note_on_c, 0, 34, 0
3, 208440, Note_on_c, 0, 58, 0
3, 208440, Note_on_c, 0, 57, 54
3, 208440, Note_on_c, 0, 29, 34
3, 208516, Note_on_c, 0, 41, 34
3, 208800, Note_on_c, 0, 41, 0
3, 208800, Note_on_c, 0, 29, 0
3, 209520, Note_on_c, 0, 57, 0
3, 209520, Note_on_c, 0, 58, 54
3, 209520, Note_on_c, 0, 34, 43
3, 209596, Note_on_c, 0, 46, 43
3, 209880, Note_on_c, 0, 46, 0
3, 209880, Note_on_c, 0, 34, 0
3, 210240, Note_on_c, 0, 58, 0
3, 210240, Note_on_c, 0, 55, 54
3, 210600, Note_on_c, 0, 55, 0
3, 210600, Note_on_c, 0, 57, 58
3, 210600, Note_on_c, 0, 38, 37
3, 210676, Note_on_c, 0, 50, 37
3, 210960, Note_on_c, 0, 50, 0
3, 210960, Note_on_c, 0, 38, 0
3, 210960, Note_on_c, 0, 57, 0
3, 210960, Note_on_c, 0, 58, 53
3, 211320, Note_on_c, 0, 58, 0
3, 211320, Note_on_c, 0, 55, 51
3, 211680, Note_on_c, 0, 55, 0
3, 211680, Note_on_c, 0, 57, 58
3, 211680, Note_on_c, 0, 36, 37
3, 211756, Note_on_c, 0, 48, 37
3, 212040, Note_on_c, 0, 48, 0
3, 212040, Note_on_c, 0, 36, 0
3, 212400, Note_on_c, 0, 57, 0
3, 212400, Note_on_c, 0, 60, 58
3, 212760, Note_on_c, 0, 60, 0
3, 212760, Note_on_c, 0, 60, 55
3, 212760, Note_on_c, 0, 38, 40
3, 212836, Note_on_c, 0, 50, 40
3, 213120, Note_on_c, 0, 50, 0
3, 213120, Note_on_c, 0, 38, 0
3, 213480, Note_on_c, 0, 60, 0
3, 213480, Note_on_c, 0, 59, 52
3, 213480, Note_on_c, 0, 37, 36
3, 213556, Note_on_c, 0, 49, 36
3, 213840, Note_on_c, 0, 49, 0
3, 213840, Note_on_c, 0, 37, 0
3, 213840, Note_on_c, 0, 59, 0
3, 213840, Note_on_c, 0, 60, 56
3, 213840, Note_on_c, 0, 36, 45
3, 213916, Note_on_c, 0, 48, 45
3, 214200, Note_on_c, 0, 48, 0
3, 214200, Note_on_c, 0, 36, 0
3, 214920, Note_on_c, 0, 36, 40
3, 214996, Note_on_c, 0, 48, 40
3, 215280, Note_on_c, 0, 48, 0
3, 215280, Note_on_c, 0, 36, 0
3, 216000, Note_on_c, 0, 60, 0
3, 216000, Note_on_c, 0, 36, 40
3, 216076, Note_on_c, 0, 48, 40
3, 216360, Note_on_c, 0, 48, 0
3, 216360, Note_on_c, 0, 36, 0
3, 216360, Note_on_c, 0, 54, 49
3, 216360, Note_on_c, 0, 57, 49
3, 216360, Note_on_c, 0, 60, 49
3, 216539, Note_on_c, 0, 60, 0
3, 216539, Note_on_c, 0, 57, 0
3, 216539, Note_on_c, 0, 54, 0
3, 216720, Note_on_c, 0, 54, 52
3, 216720, Note_on_c, 0, 57, 52
3, 216720, Note_on_c, 0, 60, 52
3, 216899, Note_on_c, 0, 60, 0
3, 216899, Note_on_c, 0, 57, 0
3, 216899, Note_on_c, 0, 54, 0
3, 217080, Note_on_c, 0, 36, 41
3, 217156, Note_on_c, 0, 48, 41
3, 217440, Note_on_c, 0, 48, 0
3, 217440, Note_on_c, 0, 36, 0
3, 217440, Note_on_c, 0, 55, 50
3, 217440, Note_on_c, 0, 58, 50
3, 217440, Note_on_c, 0, 60, 50
3, 217619, Note_on_c, 0, 60, 0
3, 217619, Note_on_c, 0, 58, 0
3, 217619, Note_on_c, 0, 55, 0
3, 217800, Note_on_c, 0, 55, 54
3, 217800, Note_on_c, 0, 58, 54
3, 217800, Note_on_c, 0, 60, 54
3, 217979, Note_on_c, 0, 60, 0
3, 217979, Note_on_c, 0, 58, 0
3, 217979, Note_on_c, 0, 55, 0
3, 218160, Note_on_c, 0, 36, 43
3, 218236, Note_on_c, 0, 48, 43
3, 218520, Note_on_c, 0, 48, 0
3, 218520, Note_on_c, 0, 36, 0
3, 218520, Note_on_c, 0, 53, 49
3, 218520, Note_on_c, 0, 57, 49
3, 218520, Note_on_c, 0, 60, 49
3, 218699, Note_on_c, 0, 60, 0
3, 218699, Note_on_c, 0, 57, 0
3, 218699, Note_on_c, 0, 53, 0
3, 218880, Note_on_c, 0, 53, 51
3, 218880, Note_on_c, 0, 57, 51
3, 218880, Note_on_c, 0, 60, 51
3, 219059, Note_on_c, 0, 60, 0
3, 219059, Note_on_c, 0, 57, 0
3, 219059, Note_on_c, 0, 53, 0
3, 219240, Note_on_c, 0, 36, 42
3, 219316, Note_on_c, 0, 48, 42
3, 219600, Note_on_c, 0, 48, 0
3, 219600, Note_on_c, 0, 36, 0
3, 219600, Note_on_c, 0, 53, 48
3, 219600, Note_on_c, 0, 57, 48
3, 219600, Note_on_c, 0, 60, 48
3, 219779, Note_on_c, 0, 60, 0
3, 219779, Note_on_c, 0, 57, 0
3, 219779, Note_on_c, 0, 53, 0
3, 219960, Note_on_c, 0, 53, 56
3, 219960, Note_on_c, 0, 57, 56
3, 219960, Note_on_c, 0, 60, 56
3, 220139, Note_on_c, 0, 60, 0
3, 220139, Note_on_c, 0, 57, 0
3, 220139, Note_on_c, 0, 53, 0
3, 220320, Note_on_c, 0, 36, 40
3, 220396, Note_on_c, 0, 48, 40
3, 220680, Note_on_c, 0, 48, 0
3, 220680, Note_on_c, 0, 36, 0
3, 220680, Note_on_c, 0, 53, 49
3, 220680, Note_on_c, 0, 58, 49
3, 220680, Note_on_c, 0, 62, 49
3, 220859, Note_on_c, 0, 62, 0
3, 220859, Note_on_c, 0, 58, 0
3, 220859, Note_on_c, 0, 53, 0
3, 221040, Note_on_c, 0, 53, 50
3, 221040, Note_on_c, 0, 58, 50
3, 221040, Note_on_c, 0, 62, 50
3, 221219, Note_on_c, 0, 62, 0
3, 221219, Note_on_c, 0, 58, 0
3, 221219, Note_on_c, 0, 53, 0
3, 221400, Note_on_c, 0, 36, 39
3, 221476, Note_on_c, 0, 48, 39
3, 221760, Note_on_c, 0, 48, 0
3, 221760, Note_on_c, 0, 36, 0
3, 221760, Note_on_c, 0, 52, 47
3, 221760, Note_on_c, 0, 58, 47
3, 221760, Note_on_c, 0, 60, 47
3, 221939, Note_on_c, 0, 60, 0
3, 221939, Note_on_c, 0, 58, 0
3, 221939, Note_on_c, 0, 52, 0
3, 222120, Note_on_c, 0, 52, 52
3, 222120, Note_on_c, 0, 58, 52
3, 222120, Note_on_c, 0, 60, 52
3, 222299, Note_on_c, 0, 60, 0
3, 222299, Note_on_c, 0, 58, 0
3, 222299, Note_on_c, 0, 52, 0
3, 222480, Note_on_c, 0, 53, 55
3, 222480, Note_on_c, 0, 57, 55
3, 222480, Note_on_c, 0, 60, 55
3, 222480, Note_on_c, 0, 41, 42
3, 222569, Note_on_c, 0, 41, 0
3, 222569, Note_on_c, 0, 53, 0
3, 222569, Note_on_c, 0, 57, 0
3, 222569, Note_on_c, 0, 60, 0
3, 225000, Note_on_c, 0, 53, 74
3, 225360, Note_on_c, 0, 38, 66
3, 225360, Note_on_c, 0, 50, 66
3, 225720, Note_on_c, 0, 50, 0
3, 225720, Note_on_c, 0, 38, 0
3, 225720, Note_on_c, 0, 53, 0
3, 225720, Note_on_c, 0, 53, 90
3, 225720, Note_on_c, 0, 65, 90
3, 225720, Note_on_c, 0, 38, 47
3, 225720, Note_on_c, 0, 50, 47
3, 226080, Note_on_c, 0, 50, 0
3, 226080, Note_on_c, 0, 38, 0
3, 226080, Note_on_c, 0, 37, 69
3, 226080, Note_on_c, 0, 49, 69
3, 226440, Note_on_c, 0, 49, 0
3, 226440, Note_on_c, 0, 53, 0
3, 226440, Note_on_c, 0, 65, 0
3, 226440, Note_on_c, 0, 37, 0
3, 226440, Note_on_c, 0, 53, 81
3, 226440, Note_on_c, 0, 63, 81
3, 226440, Note_on_c, 0, 36, 68
3, 226440, Note_on_c, 0, 48, 68
3, 226800, Note_on_c, 0, 48, 0
3, 226800, Note_on_c, 0, 53, 0
3, 226800, Note_on_c, 0, 63, 0
3, 226800, Note_on_c, 0, 36, 0
3, 226800, Note_on_c, 0, 53, 73
3, 226800, Note_on_c, 0, 62, 73
3, 226800, Note_on_c, 0, 34, 66
3, 226800, Note_on_c, 0, 46, 66
3, 226980, Note_on_c, 0, 46, 0
3, 226980, Note_on_c, 0, 34, 0
3, 227160, Note_on_c, 0, 62, 0
3, 227160, Note_on_c, 0, 53, 0
3, 227160, Note_on_c, 0, 61, 52
3, 227340, Note_on_c, 0, 61, 0
3, 227340, Note_on_c, 0, 62, 59
3, 227520, Note_on_c, 0, 62, 0
3, 227520, Note_on_c, 0, 63, 58
3, 227700, Note_on_c, 0, 63, 0
3, 227700, Note_on_c, 0, 62, 53
3, 227880, Note_on_c, 0, 62, 0
3, 227880, Note_on_c, 0, 65, 61
3, 227880, Note_on_c, 0, 45, 41
3, 227880, Note_on_c, 0, 53, 41
3, 228060, Note_on_c, 0, 53, 0
3, 228060, Note_on_c, 0, 45, 0
3, 228060, Note_on_c, 0, 65, 0
3, 228240, Note_on_c, 0, 59, 48
3, 228420, Note_on_c, 0, 59, 0
3, 228420, Note_on_c, 0, 60, 59
3, 228600, Note_on_c, 0, 60, 0
3, 228600, Note_on_c, 0, 62, 61
3, 228780, Note_on_c, 0, 62, 0
3, 228780, Note_on_c, 0, 60, 52
3, 228960, Note_on_c, 0, 60, 0
3, 228960, Note_on_c, 0, 62, 59
3, 228960, Note_on_c, 0, 46, 40
3, 228960, Note_on_c, 0, 53, 40
3, 229140, Note_on_c, 0, 53, 0
3, 229140, Note_on_c, 0, 46, 0
3, 229140, Note_on_c, 0, 62, 0
3, 229320, Note_on_c, 0, 57, 50
3, 229500, Note_on_c, 0, 57, 0
3, 229500, Note_on_c, 0, 58, 56
3, 229680, Note_on_c, 0, 58, 0
3, 229680, Note_on_c, 0, 60, 55
3, 229860, Note_on_c, 0, 60, 0
3, 229860, Note_on_c, 0, 58, 53
3, 230040, Note_on_c, 0, 58, 0
3, 230040, Note_on_c, 0, 62, 61
3, 230040, Note_on_c, 0, 34, 43
3, 230040, Note_on_c, 0, 46, 43
3, 230129, Note_on_c, 0, 62, 0
3, 230219, Note_on_c, 0, 46, 0
3, 230219, Note_on_c, 0, 34, 0
3, 230220, Note_on_c, 0, 60, 53
3, 230309, Note_on_c, 0, 60, 0
3, 230400, Note_on_c, 0, 58, 52
3, 230400, Note_on_c, 0, 38, 47
3, 230400, Note_on_c, 0, 50, 47
3, 230489, Note_on_c, 0, 58, 0
3, 230579, Note_on_c, 0, 50, 0
3, 230579, Note_on_c, 0, 38, 0
3, 230580, Note_on_c, 0, 57, 50
3, 230669, Note_on_c, 0, 57, 0
3, 230760, Note_on_c, 0, 58, 58
3, 230760, Note_on_c, 0, 40, 47
3, 230760, Note_on_c, 0, 52, 47
3, 230849, Note_on_c, 0, 58, 0
3, 230939, Note_on_c, 0, 52, 0
3, 230939, Note_on_c, 0, 40, 0
3, 230940, Note_on_c, 0, 55, 50
3, 231029, Note_on_c, 0, 55, 0
3, 231120, Note_on_c, 0, 57, 53
3, 231120, Note_on_c, 0, 41, 47
3, 231120, Note_on_c, 0, 53, 47
3, 231209, Note_on_c, 0, 53, 0
3, 231209, Note_on_c, 0, 41, 0
3, 231209, Note_on_c, 0, 57, 0
3, 232200, Note_on_c, 0, 63, 46
3, 232200, Note_on_c, 0, 41, 37
3, 232200, Note_on_c, 0, 53, 37
3, 232379, Note_on_c, 0, 53, 0
3, 232379, Note_on_c, 0, 41, 0
3, 232379, Note_on_c, 0, 63, 0
3, 232560, Note_on_c, 0, 63, 51
3, 232560, Note_on_c, 0, 43, 44
3, 232560, Note_on_c, 0, 55, 44
3, 232739, Note_on_c, 0, 55, 0
3, 232739, Note_on_c, 0, 43, 0
3, 232739, Note_on_c, 0, 63, 0
3, 232920, Note_on_c, 0, 63, 58
3, 232920, Note_on_c, 0, 45, 48
3, 232920, Note_on_c, 0, 57, 48
3, 233009, Note_on_c, 0, 63, 0
3, 233099, Note_on_c, 0, 57, 0
3, 233099, Note_on_c, 0, 45, 0
3, 233100, Note_on_c, 0, 61, 52
3, 233189, Note_on_c, 0, 61, 0
3, 233280, Note_on_c, 0, 62, 60
3, 233280, Note_on_c, 0, 46, 44
3, 233280, Note_on_c, 0, 58, 44
3, 233369, Note_on_c, 0, 58, 0
3, 233369, Note_on_c, 0, 46, 0
3, 233369, Note_on_c, 0, 62, 0
3, 233640, Note_on_c, 0, 53, 75
3, 234000, Note_on_c, 0, 38, 61
3, 234000, Note_on_c, 0, 50, 61
3, 234360, Note_on_c, 0, 53, 0
3, 234360, Note_on_c, 0, 53, 98
3, 234360, Note_on_c, 0, 65, 98
3, 234720, Note_on_c, 0, 50, 0
3, 234720, Note_on_c, 0, 38, 0
3, 234720, Note_on_c, 0, 37, 71
3, 234720, Note_on_c, 0, 49, 71
3, 235080, Note_on_c, 0, 49, 0
3, 235080, Note_on_c, 0, 65, 0
3, 235080, Note_on_c, 0, 53, 0
3, 235080, Note_on_c, 0, 37, 0
3, 235080, Note_on_c, 0, 51, 77
3, 235080, Note_on_c, 0, 63, 77
3, 235080, Note_on_c, 0, 36, 67
3, 235080, Note_on_c, 0, 48, 67
3, 235440, Note_on_c, 0, 48, 0
3, 235440, Note_on_c, 0, 51, 0
3, 235440, Note_on_c, 0, 63, 0
3, 235440, Note_on_c, 0, 36, 0
3, 235440, Note_on_c, 0, 53, 76
3, 235440, Note_on_c, 0, 62, 76
3, 235440, Note_on_c, 0, 34, 65
3, 235440, Note_on_c, 0, 46, 65
3, 235620, Note_on_c, 0, 46, 0
3, 235620, Note_on_c, 0, 34, 0
3, 235800, Note_on_c, 0, 62, 0
3, 235800, Note_on_c, 0, 53, 0
3, 235800, Note_on_c, 0, 61, 47
3, 235980, Note_on_c, 0, 61, 0
3, 235980, Note_on_c, 0, 62, 57
3, 236160, Note_on_c, 0, 62, 0
3, 236160, Note_on_c, 0, 63, 61
3, 236340, Note_on_c, 0, 63, 0
3, 236340, Note_on_c, 0, 62, 54
3, 236520, Note_on_c, 0, 62, 0
3, 236520, Note_on_c, 0, 65, 63
3, 236520, Note_on_c, 0, 45, 45
3, 236520, Note_on_c, 0, 53, 45
3, 236700, Note_on_c, 0, 53, 0
3, 236700, Note_on_c, 0, 45, 0
3, 236700, Note_on_c, 0, 65, 0
3, 236880, Note_on_c, 0, 59, 50
3, 237060, Note_on_c, 0, 59, 0
3, 237060, Note_on_c, 0, 60, 59
3, 237240, Note_on_c, 0, 60, 0
3, 237240, Note_on_c, 0, 62, 61
3, 237420, Note_on_c, 0, 62, 0
3, 237420, Note_on_c, 0, 60, 54
3, 237600, Note_on_c, 0, 60, 0
3, 237600, Note_on_c, 0, 62, 57
3, 237600, Note_on_c, 0, 46, 42
3, 237600, Note_on_c, 0, 53, 42
3, 237780, Note_on_c, 0, 53, 0
3, 237780, Note_on_c, 0, 46, 0
3, 237780, Note_on_c, 0, 62, 0
3, 237960, Note_on_c, 0, 57, 51
3, 238140, Note_on_c, 0, 57, 0
3, 238140, Note_on_c, 0, 58, 50
3, 238320, Note_on_c, 0, 58, 0
3, 238320, Note_on_c, 0, 60, 62
3, 238500, Note_on_c, 0, 60, 0
3, 238500, Note_on_c, 0, 58, 51
3, 238680, Note_on_c, 0, 58, 0
3, 238680, Note_on_c, 0, 62, 64
3, 238680, Note_on_c, 0, 34, 43
3, 238680, Note_on_c, 0, 46, 43
3, 238769, Note_on_c, 0, 62, 0
3, 238859, Note_on_c, 0, 46, 0
3, 238859, Note_on_c, 0, 34, 0
3, 238860, Note_on_c, 0, 60, 48
3, 238949, Note_on_c, 0, 60, 0
3, 239040, Note_on_c, 0, 58, 56
3, 239040, Note_on_c, 0, 31, 42
3, 239040, Note_on_c, 0, 43, 42
3, 239129, Note_on_c, 0, 58, 0
3, 239219, Note_on_c, 0, 43, 0
3, 239219, Note_on_c, 0, 31, 0
3, 239220, Note_on_c, 0, 57, 54
3, 239309, Note_on_c, 0, 57, 0
3, 239400, Note_on_c, 0, 55, 54
3, 239400, Note_on_c, 0, 34, 47
3, 239400, Note_on_c, 0, 46, 47
3, 239489, Note_on_c, 0, 55, 0
3, 239579, Note_on_c, 0, 46, 0
3, 239579, Note_on_c, 0, 34, 0
3, 239580, Note_on_c, 0, 53, 52
3, 239669, Note_on_c, 0, 53, 0
3, 239760, Note_on_c, 0, 52, 52
3, 239760, Note_on_c, 0, 36, 49
3, 239760, Note_on_c, 0, 48, 49
3, 239849, Note_on_c, 0, 48, 0
3, 239849, Note_on_c, 0, 36, 0
3, 239849, Note_on_c, 0, 52, 0
3, 240840, Note_on_c, 0, 58, 50
3, 240840, Note_on_c, 0, 60, 50
3, 240840, Note_on_c, 0, 36, 42
3, 240840, Note_on_c, 0, 48, 42
3, 241019, Note_on_c, 0, 48, 0
3, 241019, Note_on_c, 0, 58, 0
3, 241019, Note_on_c, 0, 60, 0
3, 241019, Note_on_c, 0, 36, 0
3, 241200, Note_on_c, 0, 58, 56
3, 241200, Note_on_c, 0, 60, 56
3, 241200, Note_on_c, 0, 38, 43
3, 241200, Note_on_c, 0, 50, 43
3, 241379, Note_on_c, 0, 50, 0
3, 241379, Note_on_c, 0, 58, 0
3, 241379, Note_on_c, 0, 60, 0
3, 241379, Note_on_c, 0, 38, 0
3, 241560, Note_on_c, 0, 58, 60
3, 241560, Note_on_c, 0, 62, 60
3, 241560, Note_on_c, 0, 40, 45
3, 241560, Note_on_c, 0, 52, 45
3, 241649, Note_on_c, 0, 62, 0
3, 241649, Note_on_c, 0, 58, 0
3, 241739, Note_on_c, 0, 40, 0
3, 241739, Note_on_c, 0, 52, 0
3, 241740, Note_on_c, 0, 60, 48
3, 241829, Note_on_c, 0, 60, 0
3, 241920, Note_on_c, 0, 57, 55
3, 241920, Note_on_c, 0, 60, 55
3, 241920, Note_on_c, 0, 41, 46
3, 241920, Note_on_c, 0, 53, 46
3, 242009, Note_on_c, 0, 53, 0
3, 242009, Note_on_c, 0, 57, 0
3, 242009, Note_on_c, 0, 60, 0
3, 242009, Note_on_c, 0, 41, 0
3, 242280, Note_on_c, 0, 53, 77
3, 242640, Note_on_c, 0, 38, 63
3, 242640, Note_on_c, 0, 50, 63
3, 243000, Note_on_c, 0, 50, 0
3, 243000, Note_on_c, 0, 38, 0
3, 243000, Note_on_c, 0, 53, 0
3, 243000, Note_on_c, 0, 53, 91
3, 243000, Note_on_c, 0, 65, 91
3, 243000, Note_on_c, 0, 38, 43
3, 243000, Note_on_c, 0, 50, 43
3, 243360, Note_on_c, 0, 50, 0
3, 243360, Note_on_c, 0, 38, 0
3, 243360, Note_on_c, 0, 37, 69
3, 243360, Note_on_c, 0, 49, 69
3, 243720, Note_on_c, 0, 49, 0
3, 243720, Note_on_c, 0, 53, 0
3, 243720, Note_on_c, 0, 65, 0
3, 243720, Note_on_c, 0, 37, 0
3, 243720, Note_on_c, 0, 53, 82
3, 243720, Note_on_c, 0, 63, 82
3, 243720, Note_on_c, 0, 36, 72
3, 243720, Note_on_c, 0, 48, 72
3, 244080, Note_on_c, 0, 48, 0
3, 244080, Note_on_c, 0, 53, 0
3, 244080, Note_on_c, 0, 63, 0
3, 244080, Note_on_c, 0, 36, 0
3, 244080, Note_on_c, 0, 53, 75
3, 244080, Note_on_c, 0, 62, 75
3, 244080, Note_on_c, 0, 34, 68
3, 244080, Note_on_c, 0, 46, 68
3, 244260, Note_on_c, 0, 46, 0
3, 244260, Note_on_c, 0, 34, 0
3, 244440, Note_on_c, 0, 62, 0
3, 244440, Note_on_c, 0, 53, 0
3, 244440, Note_on_c, 0, 61, 52
3, 244620, Note_on_c, 0, 61, 0
3, 244620, Note_on_c, 0, 62, 60
3, 244800, Note_on_c, 0, 62, 0
3, 244800, Note_on_c, 0, 63, 59
3, 244980, Note_on_c, 0, 63, 0
3, 244980, Note_on_c, 0, 62, 55
3, 245160, Note_on_c, 0, 62, 0
3, 245160, Note_on_c, 0, 65, 63
3, 245160, Note_on_c, 0, 45, 39
3, 245160, Note_on_c, 0, 53, 39
3, 245340, Note_on_c, 0, 53, 0
3, 245340, Note_on_c, 0, 45, 0
3, 245340, Note_on_c, 0, 65, 0
3, 245520, Note_on_c, 0, 59, 47
3, 245700, Note_on_c, 0, 59, 0
3, 245700, Note_on_c, 0, 60, 59
3, 245880, Note_on_c, 0, 60, 0
3, 245880, Note_on_c, 0, 62, 62
3, 246060, Note_on_c, 0, 62, 0
3, 246060, Note_on_c, 0, 60, 54
3, 246240, Note_on_c, 0, 60, 0
3, 246240, Note_on_c, 0, 62, 57
3, 246240, Note_on_c, 0, 46, 39
3, 246240, Note_on_c, 0, 53, 39
3, 246420, Note_on_c, 0, 53, 0
3, 246420, Note_on_c, 0, 46, 0
3, 246420, Note_on_c, 0, 62, 0
3, 246600, Note_on_c, 0, 57, 47
3, 246780, Note_on_c, 0, 57, 0
3, 246780, Note_on_c, 0, 58, 60
3, 246960, Note_on_c, 0, 58, 0
3, 246960, Note_on_c, 0, 60, 55
3, 247140, Note_on_c, 0, 60, 0
3, 247140, Note_on_c, 0, 58, 56
3, 247320, Note_on_c, 0, 58, 0
3, 247320, Note_on_c, 0, 62, 59
3, 247320, Note_on_c, 0, 34, 37
3, 247320, Note_on_c, 0, 46, 37
3, 247409, Note_on_c, 0, 62, 0
3, 247499, Note_on_c, 0, 46, 0
3, 247499, Note_on_c, 0, 34, 0
3, 247500, Note_on_c, 0, 60, 54
3, 247589, Note_on_c, 0, 60, 0
3, 247680, Note_on_c, 0, 58, 54
3, 247680, Note_on_c, 0, 38, 49
3, 247680, Note_on_c, 0, 50, 49
3, 247769, Note_on_c, 0, 58, 0
3, 247859, Note_on_c, 0, 50, 0
3, 247859, Note_on_c, 0, 38, 0
3, 247860, Note_on_c, 0, 57, 49
3, 247949, Note_on_c, 0, 57, 0
3, 248040, Note_on_c, 0, 58, 57
3, 248040, Note_on_c, 0, 40, 47
3, 248040, Note_on_c, 0, 52, 47
3, 248129, Note_on_c, 0, 58, 0
3, 248219, Note_on_c, 0, 52, 0
3, 248219, Note_on_c, 0, 40, 0
3, 248220, Note_on_c, 0, 55, 54
3, 248309, Note_on_c, 0, 55, 0
3, 248400, Note_on_c, 0, 57, 50
3, 248400, Note_on_c, 0, 41, 47
3, 248400, Note_on_c, 0, 53, 47
3, 248489, Note_on_c, 0, 53, 0
3, 248489, Note_on_c, 0, 41, 0
3, 248489, Note_on_c, 0, 57, 0
3, 249480, Note_on_c, 0, 63, 51
3, 249480, Note_on_c, 0, 41, 38
3, 249480, Note_on_c, 0, 53, 38
3, 249659, Note_on_c, 0, 53, 0
3, 249659, Note_on_c, 0, 41, 0
3, 249659, Note_on_c, 0, 63, 0
3, 249840, Note_on_c, 0, 63, 54
3, 249840, Note_on_c, 0, 43, 50
3, 249840, Note_on_c, 0, 55, 50
3, 250019, Note_on_c, 0, 55, 0
3, 250019, Note_on_c, 0, 43, 0
3, 250019, Note_on_c, 0, 63, 0
3, 250200, Note_on_c, 0, 63, 56
3, 250200, Note_on_c, 0, 45, 47
3, 250200, Note_on_c, 0, 57, 47
3, 250289, Note_on_c, 0, 63, 0
3, 250379, Note_on_c, 0, 57, 0
3, 250379, Note_on_c, 0, 45, 0
3, 250380, Note_on_c, 0, 61, 51
3, 250469, Note_on_c, 0, 61, 0
3, 250560, Note_on_c, 0, 62, 58
3, 250560, Note_on_c, 0, 46, 45
3, 250560, Note_on_c, 0, 58, 45
3, 250649, Note_on_c, 0, 58, 0
3, 250649, Note_on_c, 0, 46, 0
3, 250649, Note_on_c, 0, 62, 0
3, 250920, Note_on_c, 0, 53, 73
3, 251280, Note_on_c, 0, 38, 68
3, 251280, Note_on_c, 0, 50, 68
3, 251640, Note_on_c, 0, 53, 0
3, 251640, Note_on_c, 0, 53, 100
3, 251640, Note_on_c, 0, 65, 100
3, 252000, Note_on_c, 0, 50, 0
3, 252000, Note_on_c, 0, 38, 0
3, 252000, Note_on_c, 0, 37, 71
3, 252000, Note_on_c, 0, 49, 71
3, 252360, Note_on_c, 0, 49, 0
3, 252360, Note_on_c, 0, 65, 0
3, 252360, Note_on_c, 0, 53, 0
3, 252360, Note_on_c, 0, 37, 0
3, 252360, Note_on_c, 0, 51, 80
3, 252360, Note_on_c, 0, 63, 80
3, 252360, Note_on_c, 0, 36, 71
3, 252360, Note_on_c, 0, 48, 71
3, 252720, Note_on_c, 0, 48, 0
3, 252720, Note_on_c, 0, 51, 0
3, 252720, Note_on_c, 0, 63, 0
3, 252720, Note_on_c, 0, 36, 0
3, 252720, Note_on_c, 0, 53, 78
3, 252720, Note_on_c, 0, 62, 78
3, 252720, Note_on_c, 0, 34, 69
3, 252720, Note_on_c, 0, 46, 69
3, 252900, Note_on_c, 0, 46, 0
3, 252900, Note_on_c, 0, 34, 0
3, 253080, Note_on_c, 0, 62, 0
3, 253080, Note_on_c, 0, 53, 0
3, 253080, Note_on_c, 0, 61, 50
3, 253260, Note_on_c, 0, 61, 0
3, 253260, Note_on_c, 0, 62, 55
3, 253440, Note_on_c, 0, 62, 0
3, 253440, Note_on_c, 0, 63, 58
3, 253620, Note_on_c, 0, 63, 0
3, 253620, Note_on_c, 0, 62, 54
3, 253800, Note_on_c, 0, 62, 0
3, 253800, Note_on_c, 0, 65, 62
3, 253800, Note_on_c, 0, 45, 42
3, 253800, Note_on_c, 0, 53, 42
3, 253980, Note_on_c, 0, 53, 0
3, 253980, Note_on_c, 0, 45, 0
3, 253980, Note_on_c, 0, 65, 0
3, 254160, Note_on_c, 0, 59, 49
3, 254340, Note_on_c, 0, 59, 0
3, 254340, Note_on_c, 0, 60, 59
3, 254520, Note_on_c, 0, 60, 0
3, 254520, Note_on_c, 0, 62, 63
3, 254700, Note_on_c, 0, 62, 0
3, 254700, Note_on_c, 0, 60, 56
3, 254880, Note_on_c, 0, 60, 0
3, 254880, Note_on_c, 0, 62, 63
3, 254880, Note_on_c, 0, 46, 42
3, 254880, Note_on_c, 0, 53, 42
3, 255060, Note_on_c, 0, 53, 0
3, 255060, Note_on_c, 0, 46, 0
3, 255060, Note_on_c, 0, 62, 0
3, 255240, Note_on_c, 0, 57, 47
3, 255420, Note_on_c, 0, 57, 0
3, 255420, Note_on_c, 0, 58, 53
3, 255600, Note_on_c, 0, 58, 0
3, 255600, Note_on_c, 0, 60, 57
3, 255780, Note_on_c, 0, 60, 0
3, 255780, Note_on_c, 0, 58, 53
3, 255960, Note_on_c, 0, 58, 0
3, 255960, Note_on_c, 0, 62, 63
3, 255960, Note_on_c, 0, 34, 38
3, 255960, Note_on_c, 0, 46, 38
3, 256049, Note_on_c, 0, 62, 0
3, 256139, Note_on_c, 0, 46, 0
3, 256139, Note_on_c, 0, 34, 0
3, 256140, Note_on_c, 0, 60, 51
3, 256229, Note_on_c, 0, 60, 0
3, 256320, Note_on_c, 0, 58, 53
3, 256320, Note_on_c, 0, 31, 44
3, 256320, Note_on_c, 0, 43, 44
3, 256409, Note_on_c, 0, 58, 0
3, 256499, Note_on_c, 0, 43, 0
3, 256499, Note_on_c, 0, 31, 0
3, 256500, Note_on_c, 0, 57, 52
3, 256589, Note_on_c, 0, 57, 0
3, 256680, Note_on_c, 0, 55, 54
3, 256680, Note_on_c, 0, 34, 46
3, 256680, Note_on_c, 0, 46, 46
3, 256769, Note_on_c, 0, 55, 0
3, 256859, Note_on_c, 0, 46, 0
3, 256859, Note_on_c, 0, 34, 0
3, 256860, Note_on_c, 0, 53, 51
3, 256949, Note_on_c, 0, 53, 0
3, 257040, Note_on_c, 0, 52, 51
3, 257040, Note_on_c, 0, 36, 42
3, 257040, Note_on_c, 0, 48, 42
3, 257129, Note_on_c, 0, 48, 0
3, 257129, Note_on_c, 0, 36, 0
3, 257129, Note_on_c, 0, 52, 0
3, 258120, Note_on_c, 0, 58, 49
3, 258120, Note_on_c, 0, 60, 49
3, 258120, Note_on_c, 0, 36, 40
3, 258120, Note_on_c, 0, 48, 40
3, 258299, Note_on_c, 0, 48, 0
3, 258299, Note_on_c, 0, 58, 0
3, 258299, Note_on_c, 0, 60, 0
3, 258299, Note_on_c, 0, 36, 0
3, 258480, Note_on_c, 0, 58, 55
3, 258480, Note_on_c, 0, 60, 55
3, 258480, Note_on_c, 0, 38, 47
3, 258480, Note_on_c, 0, 50, 47
3, 258659, Note_on_c, 0, 50, 0
3, 258659, Note_on_c, 0, 58, 0
3, 258659, Note_on_c, 0, 60, 0
3, 258659, Note_on_c, 0, 38, 0
3, 258840, Note_on_c, 0, 58, 53
3, 258840, Note_on_c, 0, 62, 53
3, 258840, Note_on_c, 0, 40, 48
3, 258840, Note_on_c, 0, 52, 48
3, 258929, Note_on_c, 0, 62, 0
3, 258929, Note_on_c, 0, 58, 0
3, 259019, Note_on_c, 0, 40, 0
3, 259019, Note_on_c, 0, 52, 0
3, 259020, Note_on_c, 0, 60, 52
3, 259109, Note_on_c, 0, 60, 0
3, 259200, Note_on_c, 0, 57, 59
3, 259200, Note_on_c, 0, 60, 59
3, 259200, Note_on_c, 0, 41, 44
3, 259200, Note_on_c, 0, 53, 44
3, 259289, Note_on_c, 0, 53, 0
3, 259289, Note_on_c, 0, 57, 0
3, 259289, Note_on_c, 0, 60, 0
3, 259289, Note_on_c, 0, 41, 0
3, 259920, Note_on_c, 0, 45, 53
3, 259920, Note_on_c, 0, 41, 39
3, 260280, Note_on_c, 0, 41, 0
3, 260280, Note_on_c, 0, 45, 0
3, 260280, Note_on_c, 0, 46, 58
3, 260280, Note_on_c, 0, 43, 49
3, 260640, Note_on_c, 0, 43, 0
3, 260640, Note_on_c, 0, 46, 0
3, 260640, Note_on_c, 0, 48, 58
3, 260640, Note_on_c, 0, 45, 45
3, 261000, Note_on_c, 0, 45, 0
3, 261000, Note_on_c, 0, 48, 0
3, 261000, Note_on_c, 0, 50, 55
3, 261000, Note_on_c, 0, 46, 50
3, 261360, Note_on_c, 0, 46, 0
3, 261360, Note_on_c, 0, 50, 0
3, 261360, Note_on_c, 0, 51, 54
3, 261360, Note_on_c, 0, 48, 47
3, 261720, Note_on_c, 0, 48, 0
3, 261720, Note_on_c, 0, 51, 0
3, 261720, Note_on_c, 0, 53, 58
3, 261720, Note_on_c, 0, 50, 47
3, 262080, Note_on_c, 0, 50, 0
3, 262080, Note_on_c, 0, 53, 0
3, 262080, Note_on_c, 0, 55, 60
3, 262080, Note_on_c, 0, 51, 47
3, 262440, Note_on_c, 0, 51, 0
3, 262440, Note_on_c, 0, 55, 0
3, 262440, Note_on_c, 0, 57, 58
3, 262440, Note_on_c, 0, 53, 50
3, 262800, Note_on_c, 0, 53, 0
3, 262800, Note_on_c, 0, 57, 0
3, 262800, Note_on_c, 0, 58, 55
3, 262800, Note_on_c, 0, 55, 47
3, 263160, Note_on_c, 0, 55, 0
3, 263160, Note_on_c, 0, 58, 0
3, 263160, Note_on_c, 0, 62, 60
3, 263160, Note_on_c, 0, 57, 48
3, 263249, Note_on_c, 0, 62, 0
3, 263340, Note_on_c, 0, 60, 57
3, 263429, Note_on_c, 0, 60, 0
3, 263520, Note_on_c, 0, 57, 0
3, 263520, Note_on_c, 0, 58, 52
3, 263520, Note_on_c, 0, 34, 37
3, 263596, Note_on_c, 0, 46, 37
3, 263880, Note_on_c, 0, 46, 0
3, 263880, Note_on_c, 0, 34, 0
3, 264600, Note_on_c, 0, 58, 0
3, 264600, Note_on_c, 0, 57, 57
3, 264600, Note_on_c, 0, 29, 40
3, 264676, Note_on_c, 0, 41, 40
3, 264960, Note_on_c, 0, 41, 0
3, 264960, Note_on_c, 0, 29, 0
3, 265680, Note_on_c, 0, 57, 0
3, 265680, Note_on_c, 0, 58, 56
3, 265680, Note_on_c, 0, 34, 43
3, 265756, Note_on_c, 0, 46, 43
3, 266040, Note_on_c, 0, 46, 0
3, 266040, Note_on_c, 0, 34, 0
3, 266400, Note_on_c, 0, 58, 0
3, 266400, Note_on_c, 0, 55, 55
3, 266760, Note_on_c, 0, 55, 0
3, 266760, Note_on_c, 0, 57, 56
3, 266760, Note_on_c, 0, 29, 44
3, 266836, Note_on_c, 0, 41, 44
3, 267120, Note_on_c, 0, 41, 0
3, 267120, Note_on_c, 0, 29, 0
3, 267120, Note_on_c, 0, 57, 0
3, 267120, Note_on_c, 0, 58, 54
3, 267480, Note_on_c, 0, 58, 0
3, 267480, Note_on_c, 0, 55, 59
3, 267840, Note_on_c, 0, 55, 0
3, 267840, Note_on_c, 0, 57, 58
3, 267840, Note_on_c, 0, 36, 39
3, 267916, Note_on_c, 0, 48, 39
3, 268200, Note_on_c, 0, 48, 0
3, 268200, Note_on_c, 0, 36, 0
3, 268560, Note_on_c, 0, 57, 0
3, 268560, Note_on_c, 0, 60, 63
3, 268920, Note_on_c, 0, 60, 0
3, 268920, Note_on_c, 0, 62, 61
3, 268920, Note_on_c, 0, 33, 43
3, 268996, Note_on_c, 0, 45, 43
3, 269280, Note_on_c, 0, 45, 0
3, 269280, Note_on_c, 0, 33, 0
3, 269640, Note_on_c, 0, 62, 0
3, 269640, Note_on_c, 0, 59, 54
3, 270000, Note_on_c, 0, 59, 0
3, 270000, Note_on_c, 0, 60, 58
3, 270000, Note_on_c, 0, 32, 42
3, 270076, Note_on_c, 0, 44, 42
3, 270360, Note_on_c, 0, 44, 0
3, 270360, Note_on_c, 0, 32, 0
3, 271080, Note_on_c, 0, 33, 41
3, 271156, Note_on_c, 0, 45, 41
3, 271440, Note_on_c, 0, 45, 0
3, 271440, Note_on_c, 0, 33, 0
3, 272160, Note_on_c, 0, 60, 0
3, 272160, Note_on_c, 0, 65, 65
3, 272160, Note_on_c, 0, 29, 40
3, 272236, Note_on_c, 0, 41, 40
3, 272520, Note_on_c, 0, 41, 0
3, 272520, Note_on_c, 0, 29, 0
3, 273240, Note_on_c, 0, 65, 0
3, 273240, Note_on_c, 0, 64, 51
3, 273240, Note_on_c, 0, 31, 47
3, 273316, Note_on_c, 0, 43, 47
3, 273600, Note_on_c, 0, 43, 0
3, 273600, Note_on_c, 0, 31, 0
3, 274320, Note_on_c, 0, 64, 0
3, 274320, Note_on_c, 0, 63, 50
3, 274320, Note_on_c, 0, 32, 41
3, 274396, Note_on_c, 0, 44, 41
3, 274680, Note_on_c, 0, 44, 0
3, 274680, Note_on_c, 0, 32, 0
3, 275040, Note_on_c, 0, 63, 0
3, 275040, Note_on_c, 0, 60, 46
3, 275400, Note_on_c, 0, 60, 0
3, 275400, Note_on_c, 0, 63, 60
3, 275400, Note_on_c, 0, 33, 41
3, 275476, Note_on_c, 0, 45, 41
3, 275760, Note_on_c, 0, 45, 0
3, 275760, Note_on_c, 0, 33, 0
3, 275760, Note_on_c, 0, 63, 0
3, 275760, Note_on_c, 0, 62, 55
3, 276120, Note_on_c, 0, 62, 0
3, 276120, Note_on_c, 0, 60, 50
3, 276480, Note_on_c, 0, 60, 0
3, 276480, Note_on_c, 0, 67, 68
3, 276480, Note_on_c, 0, 34, 38
3, 276556, Note_on_c, 0, 46, 38
3, 276840, Note_on_c, 0, 46, 0
3, 276840, Note_on_c, 0, 34, 0
3, 277200, Note_on_c, 0, 67, 0
3, 277200, Note_on_c, 0, 65, 55
3, 277560, Note_on_c, 0, 65, 0
3, 277560, Note_on_c, 0, 63, 55
3, 277560, Note_on_c, 0, 29, 38
3, 277636, Note_on_c, 0, 41, 38
3, 277920, Note_on_c, 0, 41, 0
3, 277920, Note_on_c, 0, 29, 0
3, 278280, Note_on_c, 0, 63, 0
3, 278280, Note_on_c, 0, 62, 51
3, 278640, Note_on_c, 0, 62, 0
3, 278640, Note_on_c, 0, 62, 54
3, 278640, Note_on_c, 0, 33, 35
3, 278716, Note_on_c, 0, 45, 35
3, 279000, Note_on_c, 0, 45, 0
3, 279000, Note_on_c, 0, 33, 0
3, 279000, Note_on_c, 0, 62, 0
3, 279000, Note_on_c, 0, 60, 54
3, 279360, Note_on_c, 0, 60, 0
3, 279360, Note_on_c, 0, 59, 54
3, 279720, Note_on_c, 0, 59, 0
3, 279720, Note_on_c, 0, 60, 60
3, 279720, Note_on_c, 0, 29, 41
3, 279776, Note_on_c, 0, 41, 41
3, 280080, Note_on_c, 0, 41, 0
3, 280080, Note_on_c, 0, 29, 0
3, 280080, Note_on_c, 0, 60, 0
3, 280080, Note_on_c, 0, 55, 53
3, 280440, Note_on_c, 0, 55, 0
3, 280440, Note_on_c, 0, 57, 54
3, 280800, Note_on_c, 0, 57, 0
3, 280800, Note_on_c, 0, 58, 58
3, 280800, Note_on_c, 0, 34, 41
3, 280876, Note_on_c, 0, 46, 41
3, 281160, Note_on_c, 0, 46, 0
3, 281160, Note_on_c, 0, 34, 0
3, 281880, Note_on_c, 0, 58, 0
3, 281880, Note_on_c, 0, 57, 51
3, 281880, Note_on_c, 0, 29, 39
3, 281956, Note_on_c, 0, 41, 39
3, 282240, Note_on_c, 0, 41, 0
3, 282240, Note_on_c, 0, 29, 0
3, 282960, Note_on_c, 0, 57, 0
3, 282960, Note_on_c, 0, 58, 55
3, 282960, Note_on_c, 0, 34, 40
3, 283036, Note_on_c, 0, 46, 40
3, 283320, Note_on_c, 0, 46, 0
3, 283320, Note_on_c, 0, 34, 0
3, 283680, Note_on_c, 0, 58, 0
3, 283680, Note_on_c, 0, 55, 50
3, 284040, Note_on_c, 0, 55, 0
3, 284040, Note_on_c, 0, 57, 55
3, 284040, Note_on_c, 0, 38, 42
3, 284116, Note_on_c, 0, 50, 42
3, 284400, Note_on_c, 0, 50, 0
3, 284400, Note_on_c, 0, 38, 0
3, 284400, Note_on_c, 0, 57, 0
3, 284400, Note_on_c, 0, 58, 58
3, 284760, Note_on_c, 0, 58, 0
3, 284760, Note_on_c, 0, 59, 61
3, 285120, Note_on_c, 0, 59, 0
3, 285120, Note_on_c, 0, 60, 64
3, 285120, Note_on_c, 0, 39, 40
3, 285196, Note_on_c, 0, 51, 40
3, 285480, Note_on_c, 0, 51, 0
3, 285480, Note_on_c, 0, 39, 0
3, 285840, Note_on_c, 0, 60, 0
3, 285840, Note_on_c, 0, 57, 70
3, 286200, Note_on_c, 0, 57, 0
3, 286200, Note_on_c, 0, 62, 72
3, 286200, Note_on_c, 0, 38, 42
3, 286276, Note_on_c, 0, 50, 42
3, 286560, Note_on_c, 0, 50, 0
3, 286560, Note_on_c, 0, 38, 0
3, 286920, Note_on_c, 0, 62, 0
3, 286920, Note_on_c, 0, 59, 78
3, 287280, Note_on_c, 0, 59, 0
3, 287280, Note_on_c, 0, 55, 91
3, 287280, Note_on_c, 0, 63, 91
3, 287280, Note_on_c, 0, 36, 39
3, 287280, Note_on_c, 0, 48, 39
3, 287369, Note_on_c, 0, 48, 0
3, 287369, Note_on_c, 0, 55, 0
3, 287369, Note_on_c, 0, 63, 0
3, 287369, Note_on_c, 0, 36, 0
3, 287640, Note_on_c, 0, 55, 69
3, 287820, Note_on_c, 0, 55, 0
3, 287820, Note_on_c, 0, 59, 85
3, 288000, Note_on_c, 0, 59, 0
3, 288000, Note_on_c, 0, 60, 84
3, 288180, Note_on_c, 0, 60, 0
3, 288180, Note_on_c, 0, 63, 86
3, 288360, Note_on_c, 0, 63, 0
3, 288360, Note_on_c, 0, 55, 69
3, 288540, Note_on_c, 0, 55, 0
3, 288540, Note_on_c, 0, 54, 78
3, 288720, Note_on_c, 0, 54, 0
3, 288720, Note_on_c, 0, 55, 82
3, 288900, Note_on_c, 0, 55, 0
3, 288900, Note_on_c, 0, 59, 83
3, 289080, Note_on_c, 0, 59, 0
3, 289080, Note_on_c, 0, 60, 85
3, 289260, Note_on_c, 0, 60, 0
3, 289260, Note_on_c, 0, 63, 88
3, 289440, Note_on_c, 0, 63, 0
3, 289800, Note_on_c, 0, 55, 75
3, 289800, Note_on_c, 0, 60, 75
3, 289800, Note_on_c, 0, 63, 75
3, 289800, Note_on_c, 0, 27, 44
3, 289800, Note_on_c, 0, 39, 44
3, 289979, Note_on_c, 0, 39, 0
3, 289979, Note_on_c, 0, 63, 0
3, 289979, Note_on_c, 0, 55, 0
3, 289979, Note_on_c, 0, 60, 0
3, 289979, Note_on_c, 0, 27, 0
3, 290520, Note_on_c, 0, 55, 72
3, 290520, Note_on_c, 0, 58, 72
3, 290520, Note_on_c, 0, 61, 72
3, 290520, Note_on_c, 0, 28, 43
3, 290520, Note_on_c, 0, 40, 43
3, 290699, Note_on_c, 0, 40, 0
3, 290699, Note_on_c, 0, 61, 0
3, 290699, Note_on_c, 0, 55, 0
3, 290699, Note_on_c, 0, 58, 0
3, 290699, Note_on_c, 0, 28, 0
3, 291240, Note_on_c, 0, 55, 70
3, 291240, Note_on_c, 0, 58, 70
3, 291240, Note_on_c, 0, 61, 70
3, 291240, Note_on_c, 0, 28, 37
3, 291240, Note_on_c, 0, 40, 37
3, 291419, Note_on_c, 0, 40, 0
3, 291419, Note_on_c, 0, 61, 0
3, 291419, Note_on_c, 0, 55, 0
3, 291419, Note_on_c, 0, 58, 0
3, 291419, Note_on_c, 0, 28, 0
3, 291960, Note_on_c, 0, 53, 71
3, 291960, Note_on_c, 0, 58, 71
3, 291960, Note_on_c, 0, 62, 71
3, 291960, Note_on_c, 0, 29, 43
3, 291960, Note_on_c, 0, 41, 43
3, 292139, Note_on_c, 0, 41, 0
3, 292139, Note_on_c, 0, 62, 0
3, 292139, Note_on_c, 0, 53, 0
3, 292139, Note_on_c, 0, 58, 0
3, 292139, Note_on_c, 0, 29, 0
3, 292680, Note_on_c, 0, 53, 76
3, 292680, Note_on_c, 0, 58, 76
3, 292680, Note_on_c, 0, 62, 76
3, 292680, Note_on_c, 0, 29, 40
3, 292680, Note_on_c, 0, 41, 40
3, 292859, Note_on_c, 0, 41, 0
3, 292859, Note_on_c, 0, 62, 0
3, 292859, Note_on_c, 0, 53, 0
3, 292859, Note_on_c, 0, 58, 0
3, 292859, Note_on_c, 0, 29, 0
3, 293400, Note_on_c, 0, 53, 71
3, 293400, Note_on_c, 0, 58, 71
3, 293400, Note_on_c, 0, 62, 71
3, 293400, Note_on_c, 0, 29, 42
3, 293400, Note_on_c, 0, 41, 42
3, 293579, Note_on_c, 0, 41, 0
3, 293579, Note_on_c, 0, 62, 0
3, 293579, Note_on_c, 0, 53, 0
3, 293579, Note_on_c, 0, 58, 0
3, 293579, Note_on_c, 0, 29, 0
3, 294120, Note_on_c, 0, 55, 74
3, 294120, Note_on_c, 0, 59, 74
3, 294120, Note_on_c, 0, 62, 74
3, 294120, Note_on_c, 0, 29, 41
3, 294120, Note_on_c, 0, 41, 41
3, 294299, Note_on_c, 0, 41, 0
3, 294299, Note_on_c, 0, 62, 0
3, 294299, Note_on_c, 0, 55, 0
3, 294299, Note_on_c, 0, 59, 0
3, 294299, Note_on_c, 0, 29, 0
3, 294840, Note_on_c, 0, 55, 72
3, 294840, Note_on_c, 0, 59, 72
3, 294840, Note_on_c, 0, 62, 72
3, 294840, Note_on_c, 0, 29, 38
3, 294840, Note_on_c, 0, 41, 38
3, 295019, Note_on_c, 0, 41, 0
3, 295019, Note_on_c, 0, 62, 0
3, 295019, Note_on_c, 0, 55, 0
3, 295019, Note_on_c, 0, 59, 0
3, 295019, Note_on_c, 0, 29, 0
3, 295560, Note_on_c, 0, 55, 73
3, 295560, Note_on_c, 0, 59, 73
3, 295560, Note_on_c, 0, 62, 73
3, 295560, Note_on_c, 0, 41, 36
3, 295560, Note_on_c, 0, 53, 36
3, 295739, Note_on_c, 0, 53, 0
3, 295739, Note_on_c, 0, 62, 0
3, 295739, Note_on_c, 0, 55, 0
3, 295739, Note_on_c, 0, 59, 0
3, 295739, Note_on_c, 0, 41, 0
3, 296280, Note_on_c, 0, 55, 75
3, 296280, Note_on_c, 0, 60, 75
3, 296280, Note_on_c, 0, 39, 40
3, 296280, Note_on_c, 0, 51, 40
3, 296459, Note_on_c, 0, 51, 0
3, 296459, Note_on_c, 0, 55, 0
3, 296459, Note_on_c, 0, 60, 0
3, 296459, Note_on_c, 0, 39, 0
3, 297000, Note_on_c, 0, 55, 71
3, 297000, Note_on_c, 0, 59, 71
3, 297000, Note_on_c, 0, 65, 71
3, 297000, Note_on_c, 0, 38, 37
3, 297000, Note_on_c, 0, 50, 37
3, 297179, Note_on_c, 0, 50, 0
3, 297179, Note_on_c, 0, 65, 0
3, 297179, Note_on_c, 0, 55, 0
3, 297179, Note_on_c, 0, 59, 0
3, 297179, Note_on_c, 0, 38, 0
3, 297720, Note_on_c, 0, 55, 70
3, 297720, Note_on_c, 0, 60, 70
3, 297720, Note_on_c, 0, 63, 70
3, 297720, Note_on_c, 0, 36, 42
3, 297720, Note_on_c, 0, 48, 42
3, 297899, Note_on_c, 0, 48, 0
3, 297899, Note_on_c, 0, 63, 0
3, 297899, Note_on_c, 0, 55, 0
3, 297899, Note_on_c, 0, 60, 0
3, 297899, Note_on_c, 0, 36, 0
3, 298440, Note_on_c, 0, 53, 72
3, 298440, Note_on_c, 0, 57, 72
3, 298440, Note_on_c, 0, 63, 72
3, 298440, Note_on_c, 0, 29, 39
3, 298440, Note_on_c, 0, 41, 39
3, 298619, Note_on_c, 0, 41, 0
3, 298619, Note_on_c, 0, 63, 0
3, 298619, Note_on_c, 0, 53, 0
3, 298619, Note_on_c, 0, 57, 0
3, 298619, Note_on_c, 0, 29, 0
3, 299160, Note_on_c, 0, 53, 71
3, 299160, Note_on_c, 0, 57, 71
3, 299160, Note_on_c, 0, 63, 71
3, 299160, Note_on_c, 0, 29, 40
3, 299160, Note_on_c, 0, 41, 40
3, 299339, Note_on_c, 0, 41, 0
3, 299339, Note_on_c, 0, 63, 0
3, 299339, Note_on_c, 0, 53, 0
3, 299339, Note_on_c, 0, 57, 0
3, 299339, Note_on_c, 0, 29, 0
3, 299880, Note_on_c, 0, 53, 66
3, 299880, Note_on_c, 0, 57, 66
3, 299880, Note_on_c, 0, 60, 66
3, 299880, Note_on_c, 0, 39, 39
3, 299880, Note_on_c, 0, 51, 39
3, 300059, Note_on_c, 0, 51, 0
3, 300059, Note_on_c, 0, 60, 0
3, 300059, Note_on_c, 0, 53, 0
3, 300059, Note_on_c, 0, 57, 0
3, 300059, Note_on_c, 0, 39, 0
3, 300600, Note_on_c, 0, 56, 72
3, 300600, Note_on_c, 0, 58, 72
3, 300600, Note_on_c, 0, 38, 39
3, 300600, Note_on_c, 0, 50, 39
3, 300779, Note_on_c, 0, 50, 0
3, 300779, Note_on_c, 0, 56, 0
3, 300779, Note_on_c, 0, 58, 0
3, 300779, Note_on_c, 0, 38, 0
3, 301320, Note_on_c, 0, 56, 72
3, 301320, Note_on_c, 0, 58, 72
3, 301320, Note_on_c, 0, 62, 72
3, 301320, Note_on_c, 0, 34, 37
3, 301320, Note_on_c, 0, 46, 37
3, 301499, Note_on_c, 0, 46, 0
3, 301499, Note_on_c, 0, 62, 0
3, 301499, Note_on_c, 0, 56, 0
3, 301499, Note_on_c, 0, 58, 0
3, 301499, Note_on_c, 0, 34, 0
3, 302040, Note_on_c, 0, 56, 79
3, 302040, Note_on_c, 0, 58, 79
3, 302040, Note_on_c, 0, 38, 40
3, 302040, Note_on_c, 0, 50, 40
3, 302219, Note_on_c, 0, 50, 0
3, 302219, Note_on_c, 0, 56, 0
3, 302219, Note_on_c, 0, 58, 0
3, 302219, Note_on_c, 0, 38, 0
3, 302760, Note_on_c, 0, 55, 70
3, 302760, Note_on_c, 0, 58, 70
3, 302760, Note_on_c, 0, 63, 70
3, 302760, Note_on_c, 0, 39, 41
3, 302760, Note_on_c, 0, 51, 41
3, 302939, Note_on_c, 0, 51, 0
3, 302939, Note_on_c, 0, 63, 0
3, 302939, Note_on_c, 0, 55, 0
3, 302939, Note_on_c, 0, 58, 0
3, 302939, Note_on_c, 0, 39, 0
3, 303480, Note_on_c, 0, 55, 69
3, 303480, Note_on_c, 0, 58, 69
3, 303480, Note_on_c, 0, 61, 69
3, 303480, Note_on_c, 0, 40, 37
3, 303480, Note_on_c, 0, 52, 37
3, 303659, Note_on_c, 0, 52, 0
3, 303659, Note_on_c, 0, 61, 0
3, 303659, Note_on_c, 0, 55, 0
3, 303659, Note_on_c, 0, 58, 0
3, 303659, Note_on_c, 0, 40, 0
3, 304200, Note_on_c, 0, 55, 72
3, 304200, Note_on_c, 0, 58, 72
3, 304200, Note_on_c, 0, 61, 72
3, 304200, Note_on_c, 0, 40, 41
3, 304200, Note_on_c, 0, 52, 41
3, 304379, Note_on_c, 0, 52, 0
3, 304379, Note_on_c, 0, 61, 0
3, 304379, Note_on_c, 0, 55, 0
3, 304379, Note_on_c, 0, 58, 0
3, 304379, Note_on_c, 0, 40, 0
3, 304920, Note_on_c, 0, 53, 67
3, 304920, Note_on_c, 0, 58, 67
3, 304920, Note_on_c, 0, 29, 41
3, 304920, Note_on_c, 0, 41, 41
3, 305099, Note_on_c, 0, 41, 0
3, 305099, Note_on_c, 0, 53, 0
3, 305099, Note_on_c, 0, 58, 0
3, 305099, Note_on_c, 0, 29, 0
3, 305640, Note_on_c, 0, 53, 72
3, 305640, Note_on_c, 0, 58, 72
3, 305640, Note_on_c, 0, 29, 41
3, 305640, Note_on_c, 0, 41, 41
3, 305819, Note_on_c, 0, 41, 0
3, 305819, Note_on_c, 0, 53, 0
3, 305819, Note_on_c, 0, 58, 0
3, 305819, Note_on_c, 0, 29, 0
3, 306360, Note_on_c, 0, 55, 77
3, 306360, Note_on_c, 0, 59, 77
3, 306360, Note_on_c, 0, 62, 77
3, 306360, Note_on_c, 0, 29, 43
3, 306360, Note_on_c, 0, 41, 43
3, 306539, Note_on_c, 0, 41, 0
3, 306539, Note_on_c, 0, 62, 0
3, 306539, Note_on_c, 0, 55, 0
3, 306539, Note_on_c, 0, 59, 0
3, 306539, Note_on_c, 0, 29, 0
3, 307080, Note_on_c, 0, 55, 75
3, 307080, Note_on_c, 0, 60, 75
3, 307080, Note_on_c, 0, 29, 37
3, 307080, Note_on_c, 0, 41, 37
3, 307259, Note_on_c, 0, 41, 0
3, 307259, Note_on_c, 0, 55, 0
3, 307259, Note_on_c, 0, 60, 0
3, 307259, Note_on_c, 0, 29, 0
3, 307800, Note_on_c, 0, 55, 77
3, 307800, Note_on_c, 0, 60, 77
3, 307800, Note_on_c, 0, 29, 40
3, 307800, Note_on_c, 0, 41, 40
3, 307979, Note_on_c, 0, 41, 0
3, 307979, Note_on_c, 0, 55, 0
3, 307979, Note_on_c, 0, 60, 0
3, 307979, Note_on_c, 0, 29, 0
3, 308520, Note_on_c, 0, 51, 74
3, 308520, Note_on_c, 0, 57, 74
3, 308520, Note_on_c, 0, 29, 39
3, 308520, Note_on_c, 0, 41, 39
3, 308699, Note_on_c, 0, 41, 0
3, 308699, Note_on_c, 0, 51, 0
3, 308699, Note_on_c, 0, 57, 0
3, 308699, Note_on_c, 0, 29, 0
3, 308880, Note_on_c, 0, 50, 84
3, 308880, Note_on_c, 0, 53, 84
3, 308880, Note_on_c, 0, 58, 84
3, 308880, Note_on_c, 0, 34, 47
3, 308880, Note_on_c, 0, 46, 47
3, 308969, Note_on_c, 0, 46, 0
3, 308969, Note_on_c, 0, 58, 0
3, 308969, Note_on_c, 0, 50, 0
3, 308969, Note_on_c, 0, 53, 0
3, 308969, Note_on_c, 0, 34, 0
3, 309240, Note_on_c, 0, 61, 72
3, 309420, Note_on_c, 0, 61, 0
3, 309420, Note_on_c, 0, 62, 85
3, 309600, Note_on_c, 0, 62, 0
3, 309600, Note_on_c, 0, 64, 86
3, 309780, Note_on_c, 0, 64, 0
3, 309780, Note_on_c, 0, 65, 89
3, 309960, Note_on_c, 0, 65, 0
3, 310680, Note_on_c, 0, 53, 72
3, 310680, Note_on_c, 0, 57, 72
3, 310680, Note_on_c, 0, 63, 72
3, 310680, Note_on_c, 0, 29, 41
3, 310680, Note_on_c, 0, 41, 41
3, 311040, Note_on_c, 0, 41, 0
3, 311040, Note_on_c, 0, 63, 0
3, 311040, Note_on_c, 0, 53, 0
3, 311040, Note_on_c, 0, 57, 0
3, 311040, Note_on_c, 0, 29, 0
3, 311040, Note_on_c, 0, 53, 79
3, 311040, Note_on_c, 0, 62, 79
3, 311040, Note_on_c, 0, 34, 50
3, 311040, Note_on_c, 0, 46, 50
3, 311220, Note_on_c, 0, 46, 0
3, 311220, Note_on_c, 0, 53, 0
3, 311220, Note_on_c, 0, 62, 0
3, 311220, Note_on_c, 0, 34, 0
3, 311400, Note_on_c, 0, 61, 67
3, 311580, Note_on_c, 0, 61, 0
3, 311580, Note_on_c, 0, 62, 79
3, 311760, Note_on_c, 0, 62, 0
3, 311760, Note_on_c, 0, 64, 85
3, 311940, Note_on_c, 0, 64, 0
3, 311940, Note_on_c, 0, 65, 83
3, 312120, Note_on_c, 0, 65, 0
3, 312840, Note_on_c, 0, 53, 73
3, 312840, Note_on_c, 0, 57, 73
3, 312840, Note_on_c, 0, 63, 73
3, 312840, Note_on_c, 0, 29, 41
3, 312840, Note_on_c, 0, 41, 41
3, 313200, Note_on_c, 0, 41, 0
3, 313200, Note_on_c, 0, 63, 0
3, 313200, Note_on_c, 0, 53, 0
3, 313200, Note_on_c, 0, 57, 0
3, 313200, Note_on_c, 0, 29, 0
3, 313200, Note_on_c, 0, 53, 74
3, 313200, Note_on_c, 0, 62, 74
3, 313200, Note_on_c, 0, 34, 47
3, 313200, Note_on_c, 0, 46, 47
3, 313560, Note_on_c, 0, 46, 0
3, 313560, Note_on_c, 0, 53, 0
3, 313560, Note_on_c, 0, 62, 0
3, 313560, Note_on_c, 0, 34, 0
3, 313560, Note_on_c, 0, 53, 85
3, 313560, Note_on_c, 0, 63, 85
3, 313560, Note_on_c, 0, 29, 43
3, 313560, Note_on_c, 0, 41, 43
3, 313920, Note_on_c, 0, 41, 0
3, 313920, Note_on_c, 0, 53, 0
3, 313920, Note_on_c, 0, 63, 0
3, 313920, Note_on_c, 0, 29, 0
3, 313920, Note_on_c, 0, 53, 81
3, 313920, Note_on_c, 0, 62, 81
3, 313920, Note_on_c, 0, 34, 48
3, 313920, Note_on_c, 0, 46, 48
3, 314280, Note_on_c, 0, 46, 0
3, 314280, Note_on_c, 0, 53, 0
3, 314280, Note_on_c, 0, 62, 0
3, 314280, Note_on_c, 0, 34, 0
3, 314280, Note_on_c, 0, 53, 84
3, 314280, Note_on_c, 0, 63, 84
3, 314280, Note_on_c, 0, 29, 41
3, 314280, Note_on_c, 0, 41, 41
3, 314640, Note_on_c, 0, 41, 0
3, 314640, Note_on_c, 0, 53, 0
3, 314640, Note_on_c, 0, 63, 0
3, 314640, Note_on_c, 0, 29, 0
3, 314640, Note_on_c, 0, 53, 79
3, 314640, Note_on_c, 0, 62, 79
3, 314640, Note_on_c, 0, 34, 49
3, 314640, Note_on_c, 0, 46, 49
3, 315000, Note_on_c, 0, 46, 0
3, 315000, Note_on_c, 0, 53, 0
3, 315000, Note_on_c, 0, 62, 0
3, 315000, Note_on_c, 0, 34, 0
3, 315000, Note_on_c, 0, 53, 86
3, 315000, Note_on_c, 0, 63, 86
3, 315000, Note_on_c, 0, 29, 44
3, 315000, Note_on_c, 0, 41, 44
3, 315360, Note_on_c, 0, 41, 0
3, 315360, Note_on_c, 0, 53, 0
3, 315360, Note_on_c, 0, 63, 0
3, 315360, Note_on_c, 0, 29, 0
3, 315360, Note_on_c, 0, 53, 78
3, 315360, Note_on_c, 0, 62, 78
3, 315360, Note_on_c, 0, 34, 45
3, 315360, Note_on_c, 0, 46, 45
3, 315720, Note_on_c, 0, 46, 0
3, 315720, Note_on_c, 0, 53, 0
3, 315720, Note_on_c, 0, 62, 0
3, 315720, Note_on_c, 0, 34, 0
3, 315720, Note_on_c, 0, 53, 87
3, 315720, Note_on_c, 0, 63, 87
3, 315720, Note_on_c, 0, 29, 42
3, 315720, Note_on_c, 0, 41, 42
3, 316080, Note_on_c, 0, 41, 0
3, 316080, Note_on_c, 0, 53, 0
3, 316080, Note_on_c, 0, 63, 0
3, 316080, Note_on_c, 0, 29, 0
3, 316080, Note_on_c, 0, 53, 80
3, 316080, Note_on_c, 0, 62, 80
3, 316080, Note_on_c, 0, 34, 48
3, 316080, Note_on_c, 0, 46, 48
3, 316440, Note_on_c, 0, 46, 0
3, 316440, Note_on_c, 0, 53, 0
3, 316440, Note_on_c, 0, 62, 0
3, 316440, Note_on_c, 0, 34, 0
3, 316440, Note_on_c, 0, 53, 85
3, 316440, Note_on_c, 0, 63, 85
3, 316440, Note_on_c, 0, 29, 38
3, 316440, Note_on_c, 0, 41, 38
3, 316800, Note_on_c, 0, 41, 0
3, 316800, Note_on_c, 0, 53, 0
3, 316800, Note_on_c, 0, 63, 0
3, 316800, Note_on_c, 0, 29, 0
3, 316800, Note_on_c, 0, 53, 73
3, 316800, Note_on_c, 0, 62, 73
3, 316800, Note_on_c, 0, 34, 53
3, 316800, Note_on_c, 0, 46, 53
3, 317160, Note_on_c, 0, 46, 0
3, 317160, Note_on_c, 0, 53, 0
3, 317160, Note_on_c, 0, 62, 0
3, 317160, Note_on_c, 0, 34, 0
3, 317160, Note_on_c, 0, 53, 83
3, 317160, Note_on_c, 0, 63, 83
3, 317160, Note_on_c, 0, 29, 42
3, 317160, Note_on_c, 0, 41, 42
3, 317520, Note_on_c, 0, 41, 0
3, 317520, Note_on_c, 0, 53, 0
3, 317520, Note_on_c, 0, 63, 0
3, 317520, Note_on_c, 0, 29, 0
3, 317520, Note_on_c, 0, 53, 78
3, 317520, Note_on_c, 0, 62, 78
3, 317520, Note_on_c, 0, 34, 49
3, 317520, Note_on_c, 0, 46, 49
3, 317880, Note_on_c, 0, 46, 0
3, 317880, Note_on_c, 0, 53, 0
3, 317880, Note_on_c, 0, 62, 0
3, 317880, Note_on_c, 0, 34, 0
3, 318600, Note_on_c, 0, 62, 72
3, 318600, Note_on_c, 0, 65, 72
3, 318600, Note_on_c, 0, 46, 38
3, 318600, Note_on_c, 0, 58, 38
3, 318960, Note_on_c, 0, 58, 0
3, 318960, Note_on_c, 0, 62, 0
3, 318960, Note_on_c, 0, 65, 0
3, 318960, Note_on_c, 0, 46, 0
3, 319680, Note_on_c, 0, 58, 74
3, 319680, Note_on_c, 0, 34, 46
3, 319680, Note_on_c, 0, 46, 46
3, 320040, Note_on_c, 0, 46, 0
3, 320040, Note_on_c, 0, 34, 0
3, 320040, Note_on_c, 0, 58, 0
3, 320040, End_track
0, 0, End_of_file
