0, 0, Header, 1, 3, 360
1, 0, Start_track
1, 0, Title_t, "untitled"
1, 0, Time_signature, 6, 3, 12, 8
1, 0, Key_signature, -2, "major"
1, 0, Tempo, 666667
1, 2160, Tempo, 666667
1, 2223, Tempo, 676819
1, 2287, Tempo, 687285
1, 2350, Tempo, 698080
1, 2413, Tempo, 709220
1, 2477, Tempo, 720721
1, 2540, Tempo, 732601
1, 2603, Tempo, 744879
1, 2666, Tempo, 757576
1, 2730, Tempo, 770614
1, 2793, Tempo, 784211
1, 2856, Tempo, 798297
1, 2919, Tempo, 812898
1, 2983, Tempo, 828043
1, 3046, Tempo, 843763
1, 3109, Tempo, 860092
1, 3173, Tempo, 877065
1, 3239, Tempo, 895522
1, 3240, Tempo, 666667
1, 6480, Time_signature, 9, 3, 12, 8
1, 8100, Time_signature, 6, 3, 12, 8
1, 15660, Time_signature, 9, 3, 12, 8
1, 17280, Time_signature, 6, 3, 12, 8
1, 25380, Tempo, 666667
1, 25411, Tempo, 676590
1, 25442, Tempo, 686813
1, 25473, Tempo, 697350
1, 25504, Tempo, 708215
1, 25535, Tempo, 719511
1, 25566, Tempo, 731083
1, 25597, Tempo, 743034
1, 25628, Tempo, 755382
1, 25659, Tempo, 768147
1, 25689, Tempo, 781352
1, 25721, Tempo, 795018
1, 25751, Tempo, 809171
1, 25782, Tempo, 823836
1, 25813, Tempo, 839161
1, 25844, Tempo, 854944
1, 25875, Tempo, 871333
1, 25919, Tempo, 895522
1, 25920, Tempo, 666667
1, 43200, Time_signature, 9, 3, 12, 8
1, 44820, Time_signature, 6, 3, 12, 8
1, 58860, Time_signature, 9, 3, 12, 8
1, 60480, Time_signature, 6, 3, 12, 8
1, 100440, Time_signature, 9, 3, 12, 8
1, 102060, Time_signature, 6, 3, 12, 8
1, 108000, Tempo, 750000
1, 110880, Tempo, 750000
1, 110932, Tempo, 736106
1, 110984, Tempo, 722804
1, 111036, Tempo, 709891
1, 111088, Tempo, 697512
1, 111140, Tempo, 685479
1, 111192, Tempo, 673930
1, 111244, Tempo, 662691
1, 111296, Tempo, 651890
1, 111348, Tempo, 641368
1, 111401, Tempo, 631247
1, 111452, Tempo, 621375
1, 111504, Tempo, 611808
1, 111557, Tempo, 602591
1, 111609, Tempo, 593589
1, 111660, Tempo, 584909
1, 111713, Tempo, 576424
1, 111779, Tempo, 566038
1, 111780, Key_signature, 0, "major"
1, 111780, Tempo, 666667
1, 114840, Tempo, 1000000
1, 115020, Time_signature, 3, 3, 12, 8
1, 115020, Tempo, 666667
1, 115560, Time_signature, 6, 3, 12, 8
1, 119880, Time_signature, 3, 3, 12, 8
1, 120420, Time_signature, 6, 3, 12, 8
1, 128790, Tempo, 666667
1, 128813, Tempo, 688863
1, 128835, Tempo, 712589
1, 128858, Tempo, 737917
1, 128880, Tempo, 765209
1, 128903, Tempo, 794597
1, 128925, Tempo, 826332
1, 128969, Tempo, 895522
1, 129060, Tempo, 705882
1, 129240, Tempo, 705882
1, 129600, Tempo, 705882
1, 129623, Tempo, 729483
1, 129645, Tempo, 754717
1, 129668, Tempo, 781759
1, 129690, Tempo, 810811
1, 129713, Tempo, 842105
1, 129735, Tempo, 875912
1, 129758, Tempo, 912548
1, 129780, Tempo, 952381
1, 130050, Tempo, 5000000
1, 130140, Tempo, 952381
1, 130320, Tempo, 705882
1, 130680, Tempo, 705882
1, 130703, Tempo, 729483
1, 130725, Tempo, 754717
1, 130748, Tempo, 781759
1, 130770, Tempo, 810811
1, 130793, Tempo, 842105
1, 130815, Tempo, 875912
1, 130838, Tempo, 912548
1, 130860, Tempo, 952381
1, 131130, Tempo, 5000000
1, 131220, Tempo, 952381
1, 131400, Tempo, 705882
1, 133920, Tempo, 705882
1, 133943, Tempo, 729483
1, 133965, Tempo, 754717
1, 133988, Tempo, 781759
1, 134010, Tempo, 810811
1, 134033, Tempo, 842105
1, 134055, Tempo, 875912
1, 134078, Tempo, 912548
1, 134100, Tempo, 952381
1, 134370, Tempo, 5000000
1, 134460, Tempo, 952381
1, 134640, Tempo, 705882
1, 135000, Tempo, 705882
1, 135023, Tempo, 729483
1, 135045, Tempo, 754717
1, 135068, Tempo, 781759
1, 135090, Tempo, 810811
1, 135113, Tempo, 842105
1, 135135, Tempo, 875912
1, 135158, Tempo, 912548
1, 135180, Tempo, 952381
1, 135450, Tempo, 5000000
1, 135540, Tempo, 952381
1, 135720, Tempo, 705882
1, 143100, Tempo, 666667
1, 156060, Time_signature, 9, 3, 12, 8
1, 159300, Time_signature, 6, 3, 12, 8
1, 164700, Time_signature, 9, 3, 12, 8
1, 166320, Time_signature, 6, 3, 12, 8
1, 178200, Key_signature, -2, "major"
1, 185760, Tempo, 666667
1, 185804, Tempo, 676666
1, 185847, Tempo, 686970
1, 185891, Tempo, 697512
1, 185934, Tempo, 708466
1, 185978, Tempo, 719770
1, 186022, Tempo, 731440
1, 186065, Tempo, 743402
1, 186109, Tempo, 755858
1, 186152, Tempo, 768738
1, 186196, Tempo, 782065
1, 186240, Tempo, 795862
1, 186283, Tempo, 810045
1, 186327, Tempo, 824856
1, 186371, Tempo, 840218
1, 186414, Tempo, 856164
1, 186458, Tempo, 872600
1, 186515, Tempo, 895522
1, 186840, Tempo, 666667
1, 195480, Time_signature, 9, 3, 12, 8
1, 197100, Time_signature, 6, 3, 12, 8
1, 198180, Time_signature, 9, 3, 12, 8
1, 199800, Time_signature, 6, 3, 12, 8
1, 204120, Time_signature, 9, 3, 12, 8
1, 204840, Tempo, 666667
1, 204887, Tempo, 676590
1, 204933, Tempo, 686813
1, 204979, Tempo, 697269
1, 205026, Tempo, 708132
1, 205072, Tempo, 719338
1, 205119, Tempo, 730905
1, 205165, Tempo, 742758
1, 205211, Tempo, 755097
1, 205258, Tempo, 767853
1, 205304, Tempo, 781047
1, 205350, Tempo, 794597
1, 205397, Tempo, 808734
1, 205443, Tempo, 823384
1, 205490, Tempo, 838574
1, 205536, Tempo, 854336
1, 205583, Tempo, 870575
1, 205650, Tempo, 895522
1, 205740, Time_signature, 6, 3, 12, 8
1, 205740, Tempo, 666667
1, 218700, Tempo, 666667
1, 219060, Tempo, 660139
1, 219420, Tempo, 653808
1, 219780, Tempo, 647529
1, 220140, Tempo, 641437
1, 220500, Tempo, 635391
1, 220860, Tempo, 629459
1, 221220, Tempo, 623701
1, 221580, Tempo, 617983
1, 221940, Tempo, 612432
1, 222300, Tempo, 606919
1, 222660, Tempo, 601504
1, 223020, Tempo, 596244
1, 223380, Tempo, 591017
1, 223740, Tempo, 585938
1, 224100, Tempo, 580889
1, 224460, Tempo, 575926
1, 224820, Tempo, 571102
1, 225180, Tempo, 566305
1, 225540, Tempo, 561640
1, 225900, Tempo, 557000
1, 226260, Tempo, 552435
1, 226620, Tempo, 547995
1, 226980, Tempo, 543577
1, 227340, Tempo, 539277
1, 227700, Tempo, 534998
1, 228060, Tempo, 530786
1, 228420, Tempo, 526685
1, 228780, Tempo, 522603
1, 229140, Tempo, 518627
1, 229500, Tempo, 514668
1, 229860, Tempo, 510769
1, 230483, Tempo, 504202
1, 245700, Time_signature, 9, 3, 12, 8
1, 248940, Time_signature, 6, 3, 12, 8
1, 262980, Tempo, 504202
1, 263043, Tempo, 511771
1, 263107, Tempo, 519570
1, 263170, Tempo, 527612
1, 263233, Tempo, 535906
1, 263297, Tempo, 544465
1, 263360, Tempo, 553301
1, 263423, Tempo, 562430
1, 263486, Tempo, 571864
1, 263550, Tempo, 581621
1, 263613, Tempo, 591716
1, 263676, Tempo, 602168
1, 263739, Tempo, 612996
1, 263803, Tempo, 624220
1, 263866, Tempo, 635863
1, 263929, Tempo, 647948
1, 263993, Tempo, 660502
1, 264059, Tempo, 674157
1, 264060, Tempo, 666667
1, 270540, Time_signature, 9, 3, 12, 8
1, 270540, End_track
2, 0, Start_track
2, 0, Title_t, "Piano 1"
2, 0, Program_c, 0, 0
2, 0, Control_c, 0, 7, 105
2, 0, Control_c, 0, 10, 80
2, 0, Control_c, 0, 91, 60
2, 0, Control_c, 0, 121, 0
2, 0, Control_c, 0, 121, 0
2, 0, Control_c, 0, 91, 60
2, 0, Control_c, 0, 10, 51
2, 0, Control_c, 0, 7, 100
2, 0, Note_on_c, 0, 68, 87
2, 0, Note_on_c, 0, 70, 87
2, 0, Note_on_c, 0, 74, 87
2, 0, Note_on_c, 0, 58, 70
2, 0, Note_on_c, 0, 62, 70
2, 0, Note_on_c, 0, 66, 70
2, 675, Note_on_c, 0, 66, 0
2, 675, Note_on_c, 0, 70, 0
2, 675, Note_on_c, 0, 74, 0
2, 675, Note_on_c, 0, 68, 0
2, 675, Note_on_c, 0, 62, 0
2, 675, Note_on_c, 0, 58, 0
2, 675, Note_on_c, 0, 68, 88
2, 675, Note_on_c, 0, 72, 88
2, 675, Note_on_c, 0, 75, 88
2, 675, Note_on_c, 0, 56, 65
2, 675, Note_on_c, 0, 60, 65
2, 675, Note_on_c, 0, 66, 65
2, 720, Note_on_c, 0, 66, 0
2, 720, Note_on_c, 0, 72, 0
2, 720, Note_on_c, 0, 75, 0
2, 720, Note_on_c, 0, 68, 0
2, 720, Note_on_c, 0, 60, 0
2, 720, Note_on_c, 0, 56, 0
2, 720, Note_on_c, 0, 68, 87
2, 720, Note_on_c, 0, 70, 87
2, 720, Note_on_c, 0, 74, 87
2, 720, Note_on_c, 0, 58, 79
2, 720, Note_on_c, 0, 62, 79
2, 720, Note_on_c, 0, 66, 79
2, 997, Note_on_c, 0, 66, 0
2, 997, Note_on_c, 0, 70, 0
2, 997, Note_on_c, 0, 74, 0
2, 997, Note_on_c, 0, 68, 0
2, 997, Note_on_c, 0, 62, 0
2, 997, Note_on_c, 0, 58, 0
2, 1035, Note_on_c, 0, 68, 94
2, 1035, Note_on_c, 0, 72, 94
2, 1035, Note_on_c, 0, 75, 94
2, 1035, Note_on_c, 0, 56, 70
2, 1035, Note_on_c, 0, 60, 70
2, 1035, Note_on_c, 0, 66, 70
2, 1080, Note_on_c, 0, 66, 0
2, 1080, Note_on_c, 0, 72, 0
2, 1080, Note_on_c, 0, 75, 0
2, 1080, Note_on_c, 0, 68, 0
2, 1080, Note_on_c, 0, 60, 0
2, 1080, Note_on_c, 0, 56, 0
2, 1080, Note_on_c, 0, 68, 96
2, 1080, Note_on_c, 0, 70, 96
2, 1080, Note_on_c, 0, 74, 96
2, 1080, Note_on_c, 0, 58, 75
2, 1080, Note_on_c, 0, 62, 75
2, 1080, Note_on_c, 0, 66, 75
2, 1755, Note_on_c, 0, 66, 0
2, 1755, Note_on_c, 0, 70, 0
2, 1755, Note_on_c, 0, 74, 0
2, 1755, Note_on_c, 0, 68, 0
2, 1755, Note_on_c, 0, 62, 0
2, 1755, Note_on_c, 0, 58, 0
2, 1755, Note_on_c, 0, 68, 76
2, 1755, Note_on_c, 0, 70, 76
2, 1755, Note_on_c, 0, 72, 76
2, 1755, Note_on_c, 0, 60, 72
2, 1755, Note_on_c, 0, 63, 72
2, 1755, Note_on_c, 0, 66, 72
2, 1800, Note_on_c, 0, 66, 0
2, 1800, Note_on_c, 0, 70, 0
2, 1800, Note_on_c, 0, 72, 0
2, 1800, Note_on_c, 0, 68, 0
2, 1800, Note_on_c, 0, 63, 0
2, 1800, Note_on_c, 0, 60, 0
2, 1800, Note_on_c, 0, 68, 110
2, 1800, Note_on_c, 0, 70, 110
2, 1800, Note_on_c, 0, 74, 110
2, 1800, Note_on_c, 0, 58, 77
2, 1800, Note_on_c, 0, 62, 77
2, 1800, Note_on_c, 0, 66, 77
2, 2077, Note_on_c, 0, 66, 0
2, 2077, Note_on_c, 0, 70, 0
2, 2077, Note_on_c, 0, 74, 0
2, 2077, Note_on_c, 0, 68, 0
2, 2077, Note_on_c, 0, 62, 0
2, 2077, Note_on_c, 0, 58, 0
2, 2115, Note_on_c, 0, 68, 82
2, 2115, Note_on_c, 0, 70, 82
2, 2115, Note_on_c, 0, 72, 82
2, 2115, Note_on_c, 0, 60, 66
2, 2115, Note_on_c, 0, 63, 66
2, 2115, Note_on_c, 0, 66, 66
2, 2160, Note_on_c, 0, 66, 0
2, 2160, Note_on_c, 0, 70, 0
2, 2160, Note_on_c, 0, 72, 0
2, 2160, Note_on_c, 0, 68, 0
2, 2160, Note_on_c, 0, 63, 0
2, 2160, Note_on_c, 0, 60, 0
2, 2160, Note_on_c, 0, 68, 105
2, 2160, Note_on_c, 0, 70, 105
2, 2160, Note_on_c, 0, 74, 105
2, 2160, Note_on_c, 0, 58, 78
2, 2160, Note_on_c, 0, 62, 78
2, 2160, Note_on_c, 0, 66, 78
2, 2880, Note_on_c, 0, 66, 0
2, 2880, Note_on_c, 0, 70, 0
2, 2880, Note_on_c, 0, 74, 0
2, 2880, Note_on_c, 0, 68, 0
2, 2880, Note_on_c, 0, 62, 0
2, 2880, Note_on_c, 0, 58, 0
2, 2880, Note_on_c, 0, 68, 101
2, 2880, Note_on_c, 0, 70, 101
2, 2880, Note_on_c, 0, 74, 101
2, 2880, Note_on_c, 0, 58, 77
2, 2880, Note_on_c, 0, 62, 77
2, 2880, Note_on_c, 0, 66, 77
2, 3197, Note_on_c, 0, 66, 0
2, 3197, Note_on_c, 0, 70, 0
2, 3197, Note_on_c, 0, 74, 0
2, 3197, Note_on_c, 0, 68, 0
2, 3197, Note_on_c, 0, 62, 0
2, 3197, Note_on_c, 0, 58, 0
2, 3240, Note_on_c, 0, 68, 93
2, 3240, Note_on_c, 0, 72, 93
2, 3240, Note_on_c, 0, 75, 93
2, 3240, Note_on_c, 0, 60, 66
2, 3240, Note_on_c, 0, 66, 66
2, 3240, Note_on_c, 0, 56, 43
2, 4320, Note_on_c, 0, 75, 0
2, 4320, Note_on_c, 0, 68, 0
2, 4320, Note_on_c, 0, 72, 0
2, 4379, Note_on_c, 0, 72, 77
2, 4440, Note_on_c, 0, 72, 0
2, 4440, Note_on_c, 0, 75, 92
2, 4500, Note_on_c, 0, 75, 0
2, 4500, Note_on_c, 0, 78, 97
2, 4559, Note_on_c, 0, 78, 0
2, 4559, Note_on_c, 0, 79, 91
2, 4620, Note_on_c, 0, 79, 0
2, 4620, Note_on_c, 0, 80, 90
2, 4680, Note_on_c, 0, 80, 0
2, 4680, Note_on_c, 0, 84, 96
2, 4739, Note_on_c, 0, 84, 0
2, 4739, Note_on_c, 0, 87, 95
2, 4800, Note_on_c, 0, 87, 0
2, 4800, Note_on_c, 0, 90, 90
2, 4860, Note_on_c, 0, 90, 0
2, 4860, Note_on_c, 0, 56, 0
2, 4860, Note_on_c, 0, 87, 84
2, 4860, Note_on_c, 0, 57, 54
2, 4919, Note_on_c, 0, 87, 0
2, 4919, Note_on_c, 0, 84, 81
2, 4980, Note_on_c, 0, 84, 0
2, 4980, Note_on_c, 0, 81, 75
2, 5040, Note_on_c, 0, 81, 0
2, 5040, Note_on_c, 0, 78, 77
2, 5220, Note_on_c, 0, 78, 0
2, 5400, Note_on_c, 0, 57, 0
2, 5400, Note_on_c, 0, 56, 46
2, 5520, Note_on_c, 0, 67, 79
2, 5580, Note_on_c, 0, 67, 0
2, 5580, Note_on_c, 0, 68, 89
2, 5639, Note_on_c, 0, 68, 0
2, 5639, Note_on_c, 0, 72, 98
2, 5700, Note_on_c, 0, 72, 0
2, 5700, Note_on_c, 0, 75, 102
2, 5760, Note_on_c, 0, 75, 0
2, 5760, Note_on_c, 0, 78, 96
2, 5819, Note_on_c, 0, 78, 0
2, 5819, Note_on_c, 0, 79, 95
2, 5880, Note_on_c, 0, 79, 0
2, 5880, Note_on_c, 0, 80, 95
2, 5940, Note_on_c, 0, 80, 0
2, 5940, Note_on_c, 0, 56, 0
2, 5940, Note_on_c, 0, 78, 81
2, 5940, Note_on_c, 0, 57, 51
2, 5999, Note_on_c, 0, 78, 0
2, 5999, Note_on_c, 0, 75, 80
2, 6060, Note_on_c, 0, 75, 0
2, 6060, Note_on_c, 0, 72, 78
2, 6120, Note_on_c, 0, 72, 0
2, 6120, Note_on_c, 0, 69, 77
2, 6300, Note_on_c, 0, 69, 0
2, 6480, Note_on_c, 0, 57, 0
2, 6480, Note_on_c, 0, 66, 0
2, 6480, Note_on_c, 0, 60, 0
2, 8640, Note_on_c, 0, 66, 85
2, 8640, Note_on_c, 0, 69, 85
2, 8640, Note_on_c, 0, 72, 85
2, 8640, Note_on_c, 0, 57, 70
2, 8640, Note_on_c, 0, 60, 70
2, 8640, Note_on_c, 0, 62, 70
2, 9114, Note_on_c, 0, 62, 0
2, 9114, Note_on_c, 0, 69, 0
2, 9114, Note_on_c, 0, 72, 0
2, 9114, Note_on_c, 0, 66, 0
2, 9114, Note_on_c, 0, 60, 0
2, 9114, Note_on_c, 0, 57, 0
2, 9180, Note_on_c, 0, 65, 97
2, 9180, Note_on_c, 0, 68, 97
2, 9180, Note_on_c, 0, 72, 97
2, 9180, Note_on_c, 0, 56, 74
2, 9180, Note_on_c, 0, 60, 74
2, 9180, Note_on_c, 0, 61, 74
2, 9855, Note_on_c, 0, 61, 0
2, 9855, Note_on_c, 0, 68, 0
2, 9855, Note_on_c, 0, 72, 0
2, 9855, Note_on_c, 0, 65, 0
2, 9855, Note_on_c, 0, 60, 0
2, 9855, Note_on_c, 0, 56, 0
2, 9855, Note_on_c, 0, 65, 94
2, 9855, Note_on_c, 0, 69, 94
2, 9855, Note_on_c, 0, 73, 94
2, 9855, Note_on_c, 0, 55, 61
2, 9855, Note_on_c, 0, 59, 61
2, 9855, Note_on_c, 0, 61, 61
2, 9900, Note_on_c, 0, 61, 0
2, 9900, Note_on_c, 0, 69, 0
2, 9900, Note_on_c, 0, 73, 0
2, 9900, Note_on_c, 0, 65, 0
2, 9900, Note_on_c, 0, 59, 0
2, 9900, Note_on_c, 0, 55, 0
2, 9900, Note_on_c, 0, 65, 94
2, 9900, Note_on_c, 0, 68, 94
2, 9900, Note_on_c, 0, 72, 94
2, 9900, Note_on_c, 0, 56, 78
2, 9900, Note_on_c, 0, 60, 78
2, 9900, Note_on_c, 0, 61, 78
2, 10177, Note_on_c, 0, 61, 0
2, 10177, Note_on_c, 0, 68, 0
2, 10177, Note_on_c, 0, 72, 0
2, 10177, Note_on_c, 0, 65, 0
2, 10177, Note_on_c, 0, 60, 0
2, 10177, Note_on_c, 0, 56, 0
2, 10215, Note_on_c, 0, 65, 90
2, 10215, Note_on_c, 0, 69, 90
2, 10215, Note_on_c, 0, 73, 90
2, 10215, Note_on_c, 0, 55, 69
2, 10215, Note_on_c, 0, 59, 69
2, 10215, Note_on_c, 0, 61, 69
2, 10260, Note_on_c, 0, 61, 0
2, 10260, Note_on_c, 0, 69, 0
2, 10260, Note_on_c, 0, 73, 0
2, 10260, Note_on_c, 0, 65, 0
2, 10260, Note_on_c, 0, 59, 0
2, 10260, Note_on_c, 0, 55, 0
2, 10260, Note_on_c, 0, 65, 93
2, 10260, Note_on_c, 0, 68, 93
2, 10260, Note_on_c, 0, 72, 93
2, 10260, Note_on_c, 0, 56, 74
2, 10260, Note_on_c, 0, 60, 74
2, 10260, Note_on_c, 0, 61, 74
2, 10935, Note_on_c, 0, 61, 0
2, 10935, Note_on_c, 0, 68, 0
2, 10935, Note_on_c, 0, 72, 0
2, 10935, Note_on_c, 0, 65, 0
2, 10935, Note_on_c, 0, 60, 0
2, 10935, Note_on_c, 0, 56, 0
2, 10935, Note_on_c, 0, 65, 92
2, 10935, Note_on_c, 0, 69, 92
2, 10935, Note_on_c, 0, 73, 92
2, 10935, Note_on_c, 0, 55, 63
2, 10935, Note_on_c, 0, 59, 63
2, 10935, Note_on_c, 0, 61, 63
2, 10980, Note_on_c, 0, 61, 0
2, 10980, Note_on_c, 0, 69, 0
2, 10980, Note_on_c, 0, 73, 0
2, 10980, Note_on_c, 0, 65, 0
2, 10980, Note_on_c, 0, 59, 0
2, 10980, Note_on_c, 0, 55, 0
2, 10980, Note_on_c, 0, 65, 97
2, 10980, Note_on_c, 0, 68, 97
2, 10980, Note_on_c, 0, 72, 97
2, 10980, Note_on_c, 0, 56, 75
2, 10980, Note_on_c, 0, 60, 75
2, 10980, Note_on_c, 0, 61, 75
2, 11257, Note_on_c, 0, 61, 0
2, 11257, Note_on_c, 0, 68, 0
2, 11257, Note_on_c, 0, 72, 0
2, 11257, Note_on_c, 0, 65, 0
2, 11257, Note_on_c, 0, 60, 0
2, 11257, Note_on_c, 0, 56, 0
2, 11295, Note_on_c, 0, 65, 90
2, 11295, Note_on_c, 0, 69, 90
2, 11295, Note_on_c, 0, 73, 90
2, 11295, Note_on_c, 0, 55, 64
2, 11295, Note_on_c, 0, 59, 64
2, 11295, Note_on_c, 0, 61, 64
2, 11340, Note_on_c, 0, 61, 0
2, 11340, Note_on_c, 0, 69, 0
2, 11340, Note_on_c, 0, 73, 0
2, 11340, Note_on_c, 0, 65, 0
2, 11340, Note_on_c, 0, 59, 0
2, 11340, Note_on_c, 0, 55, 0
2, 11340, Note_on_c, 0, 65, 84
2, 11340, Note_on_c, 0, 68, 84
2, 11340, Note_on_c, 0, 72, 84
2, 11340, Note_on_c, 0, 56, 83
2, 11340, Note_on_c, 0, 60, 83
2, 11340, Note_on_c, 0, 61, 83
2, 12060, Note_on_c, 0, 61, 0
2, 12060, Note_on_c, 0, 68, 0
2, 12060, Note_on_c, 0, 72, 0
2, 12060, Note_on_c, 0, 65, 0
2, 12060, Note_on_c, 0, 60, 0
2, 12060, Note_on_c, 0, 56, 0
2, 12060, Note_on_c, 0, 65, 95
2, 12060, Note_on_c, 0, 68, 95
2, 12060, Note_on_c, 0, 72, 95
2, 12060, Note_on_c, 0, 56, 83
2, 12060, Note_on_c, 0, 60, 83
2, 12060, Note_on_c, 0, 62, 83
2, 12377, Note_on_c, 0, 62, 0
2, 12377, Note_on_c, 0, 68, 0
2, 12377, Note_on_c, 0, 72, 0
2, 12377, Note_on_c, 0, 65, 0
2, 12377, Note_on_c, 0, 60, 0
2, 12377, Note_on_c, 0, 56, 0
2, 12420, Note_on_c, 0, 59, 95
2, 12420, Note_on_c, 0, 68, 95
2, 12420, Note_on_c, 0, 71, 95
2, 12420, Note_on_c, 0, 63, 67
2, 12420, Note_on_c, 0, 66, 67
2, 12420, Note_on_c, 0, 56, 50
2, 13369, Note_on_c, 0, 71, 0
2, 13369, Note_on_c, 0, 59, 0
2, 13369, Note_on_c, 0, 68, 0
2, 13559, Note_on_c, 0, 68, 74
2, 13620, Note_on_c, 0, 68, 0
2, 13620, Note_on_c, 0, 71, 94
2, 13680, Note_on_c, 0, 71, 0
2, 13680, Note_on_c, 0, 75, 100
2, 13739, Note_on_c, 0, 75, 0
2, 13739, Note_on_c, 0, 78, 95
2, 13800, Note_on_c, 0, 78, 0
2, 13800, Note_on_c, 0, 79, 91
2, 13860, Note_on_c, 0, 79, 0
2, 13860, Note_on_c, 0, 80, 93
2, 13919, Note_on_c, 0, 80, 0
2, 13919, Note_on_c, 0, 83, 99
2, 13980, Note_on_c, 0, 83, 0
2, 13980, Note_on_c, 0, 87, 98
2, 14040, Note_on_c, 0, 87, 0
2, 14040, Note_on_c, 0, 56, 0
2, 14040, Note_on_c, 0, 84, 81
2, 14040, Note_on_c, 0, 57, 55
2, 14099, Note_on_c, 0, 84, 0
2, 14099, Note_on_c, 0, 81, 80
2, 14160, Note_on_c, 0, 81, 0
2, 14160, Note_on_c, 0, 78, 75
2, 14220, Note_on_c, 0, 78, 0
2, 14220, Note_on_c, 0, 75, 77
2, 14400, Note_on_c, 0, 75, 0
2, 14580, Note_on_c, 0, 57, 0
2, 14580, Note_on_c, 0, 56, 42
2, 14639, Note_on_c, 0, 63, 81
2, 14700, Note_on_c, 0, 63, 0
2, 14700, Note_on_c, 0, 66, 93
2, 14760, Note_on_c, 0, 66, 0
2, 14760, Note_on_c, 0, 67, 95
2, 14819, Note_on_c, 0, 67, 0
2, 14819, Note_on_c, 0, 68, 93
2, 14880, Note_on_c, 0, 68, 0
2, 14880, Note_on_c, 0, 71, 95
2, 14940, Note_on_c, 0, 71, 0
2, 14940, Note_on_c, 0, 74, 95
2, 14999, Note_on_c, 0, 74, 0
2, 14999, Note_on_c, 0, 75, 93
2, 15060, Note_on_c, 0, 75, 0
2, 15060, Note_on_c, 0, 78, 99
2, 15120, Note_on_c, 0, 78, 0
2, 15120, Note_on_c, 0, 56, 0
2, 15120, Note_on_c, 0, 75, 81
2, 15120, Note_on_c, 0, 57, 52
2, 15179, Note_on_c, 0, 75, 0
2, 15179, Note_on_c, 0, 72, 78
2, 15240, Note_on_c, 0, 72, 0
2, 15240, Note_on_c, 0, 69, 72
2, 15300, Note_on_c, 0, 69, 0
2, 15300, Note_on_c, 0, 66, 80
2, 15480, Note_on_c, 0, 66, 0
2, 15660, Note_on_c, 0, 57, 0
2, 15660, Note_on_c, 0, 63, 0
2, 15660, Note_on_c, 0, 66, 0
2, 17820, Note_on_c, 0, 63, 59
2, 17820, Note_on_c, 0, 69, 59
2, 17820, Note_on_c, 0, 55, 59
2, 17820, Note_on_c, 0, 60, 59
2, 18294, Note_on_c, 0, 60, 0
2, 18294, Note_on_c, 0, 63, 0
2, 18294, Note_on_c, 0, 69, 0
2, 18294, Note_on_c, 0, 55, 0
2, 18360, Note_on_c, 0, 63, 77
2, 18360, Note_on_c, 0, 68, 77
2, 18360, Note_on_c, 0, 54, 82
2, 18360, Note_on_c, 0, 59, 82
2, 19035, Note_on_c, 0, 59, 0
2, 19035, Note_on_c, 0, 63, 0
2, 19035, Note_on_c, 0, 68, 0
2, 19035, Note_on_c, 0, 54, 0
2, 19035, Note_on_c, 0, 64, 78
2, 19035, Note_on_c, 0, 69, 78
2, 19035, Note_on_c, 0, 55, 79
2, 19035, Note_on_c, 0, 60, 79
2, 19080, Note_on_c, 0, 60, 0
2, 19080, Note_on_c, 0, 64, 0
2, 19080, Note_on_c, 0, 69, 0
2, 19080, Note_on_c, 0, 55, 0
2, 19080, Note_on_c, 0, 63, 84
2, 19080, Note_on_c, 0, 68, 84
2, 19080, Note_on_c, 0, 54, 83
2, 19080, Note_on_c, 0, 59, 83
2, 19357, Note_on_c, 0, 59, 0
2, 19357, Note_on_c, 0, 63, 0
2, 19357, Note_on_c, 0, 68, 0
2, 19357, Note_on_c, 0, 54, 0
2, 19395, Note_on_c, 0, 64, 78
2, 19395, Note_on_c, 0, 69, 78
2, 19395, Note_on_c, 0, 55, 79
2, 19395, Note_on_c, 0, 60, 79
2, 19440, Note_on_c, 0, 60, 0
2, 19440, Note_on_c, 0, 64, 0
2, 19440, Note_on_c, 0, 69, 0
2, 19440, Note_on_c, 0, 55, 0
2, 19440, Note_on_c, 0, 68, 80
2, 19440, Note_on_c, 0, 63, 54
2, 19440, Note_on_c, 0, 59, 81
2, 19440, Note_on_c, 0, 54, 51
2, 19914, Note_on_c, 0, 68, 0
2, 19980, Note_on_c, 0, 54, 0
2, 19980, Note_on_c, 0, 67, 73
2, 19980, Note_on_c, 0, 55, 50
2, 20340, Note_on_c, 0, 55, 0
2, 20340, Note_on_c, 0, 56, 52
2, 20389, Note_on_c, 0, 59, 0
2, 20520, Note_on_c, 0, 63, 0
2, 20520, Note_on_c, 0, 67, 0
2, 20520, Note_on_c, 0, 56, 0
2, 20520, Note_on_c, 0, 66, 84
2, 20520, Note_on_c, 0, 60, 77
2, 20520, Note_on_c, 0, 63, 83
2, 20520, Note_on_c, 0, 57, 51
2, 20579, Note_on_c, 0, 60, 0
2, 20579, Note_on_c, 0, 62, 94
2, 20640, Note_on_c, 0, 62, 0
2, 20640, Note_on_c, 0, 63, 96
2, 20700, Note_on_c, 0, 63, 0
2, 20700, Note_on_c, 0, 60, 83
2, 21060, Note_on_c, 0, 57, 0
2, 21060, Note_on_c, 0, 58, 54
2, 21119, Note_on_c, 0, 60, 0
2, 21119, Note_on_c, 0, 62, 90
2, 21180, Note_on_c, 0, 62, 0
2, 21180, Note_on_c, 0, 63, 91
2, 21240, Note_on_c, 0, 63, 0
2, 21240, Note_on_c, 0, 60, 81
2, 21299, Note_on_c, 0, 60, 0
2, 21299, Note_on_c, 0, 62, 90
2, 21360, Note_on_c, 0, 62, 0
2, 21360, Note_on_c, 0, 63, 93
2, 21420, Note_on_c, 0, 63, 0
2, 21420, Note_on_c, 0, 60, 80
2, 21600, Note_on_c, 0, 58, 0
2, 21600, Note_on_c, 0, 63, 0
2, 21600, Note_on_c, 0, 57, 70
2, 21659, Note_on_c, 0, 60, 0
2, 21659, Note_on_c, 0, 62, 93
2, 21720, Note_on_c, 0, 62, 0
2, 21720, Note_on_c, 0, 63, 93
2, 21780, Note_on_c, 0, 63, 0
2, 21780, Note_on_c, 0, 60, 77
2, 21960, Note_on_c, 0, 60, 0
2, 21960, Note_on_c, 0, 60, 88
2, 22019, Note_on_c, 0, 60, 0
2, 22019, Note_on_c, 0, 62, 92
2, 22080, Note_on_c, 0, 62, 0
2, 22080, Note_on_c, 0, 63, 95
2, 22140, Note_on_c, 0, 63, 0
2, 22140, Note_on_c, 0, 57, 0
2, 22140, Note_on_c, 0, 60, 77
2, 22140, Note_on_c, 0, 58, 72
2, 22199, Note_on_c, 0, 60, 0
2, 22199, Note_on_c, 0, 62, 92
2, 22260, Note_on_c, 0, 62, 0
2, 22260, Note_on_c, 0, 63, 97
2, 22320, Note_on_c, 0, 63, 0
2, 22320, Note_on_c, 0, 60, 80
2, 22379, Note_on_c, 0, 60, 0
2, 22379, Note_on_c, 0, 62, 93
2, 22440, Note_on_c, 0, 62, 0
2, 22440, Note_on_c, 0, 63, 96
2, 22500, Note_on_c, 0, 63, 0
2, 22500, Note_on_c, 0, 60, 83
2, 22680, Note_on_c, 0, 58, 0
2, 22680, Note_on_c, 0, 57, 68
2, 22739, Note_on_c, 0, 60, 0
2, 22739, Note_on_c, 0, 62, 95
2, 22800, Note_on_c, 0, 62, 0
2, 22800, Note_on_c, 0, 63, 91
2, 22860, Note_on_c, 0, 63, 0
2, 22860, Note_on_c, 0, 60, 83
2, 23279, Note_on_c, 0, 60, 0
2, 23279, Note_on_c, 0, 62, 98
2, 23340, Note_on_c, 0, 62, 0
2, 23340, Note_on_c, 0, 63, 93
2, 23400, Note_on_c, 0, 63, 0
2, 23400, Note_on_c, 0, 60, 79
2, 23639, Note_on_c, 0, 60, 0
2, 23639, Note_on_c, 0, 62, 92
2, 23700, Note_on_c, 0, 62, 0
2, 23700, Note_on_c, 0, 63, 94
2, 23760, Note_on_c, 0, 63, 0
2, 23760, Note_on_c, 0, 60, 84
2, 23760, Note_on_c, 0, 60, 80
2, 23850, Note_on_c, 0, 60, 0
2, 23850, Note_on_c, 0, 66, 104
2, 23940, Note_on_c, 0, 66, 0
2, 23940, Note_on_c, 0, 63, 78
2, 24210, Note_on_c, 0, 63, 0
2, 24210, Note_on_c, 0, 72, 108
2, 24300, Note_on_c, 0, 72, 0
2, 24300, Note_on_c, 0, 69, 83
2, 24390, Note_on_c, 0, 69, 0
2, 24390, Note_on_c, 0, 75, 106
2, 24480, Note_on_c, 0, 75, 0
2, 24480, Note_on_c, 0, 72, 83
2, 24750, Note_on_c, 0, 72, 0
2, 24750, Note_on_c, 0, 81, 106
2, 24840, Note_on_c, 0, 81, 0
2, 24840, Note_on_c, 0, 66, 0
2, 24840, Note_on_c, 0, 78, 113
2, 24930, Note_on_c, 0, 78, 0
2, 24930, Note_on_c, 0, 84, 111
2, 25020, Note_on_c, 0, 84, 0
2, 25020, Note_on_c, 0, 81, 79
2, 25380, Note_on_c, 0, 81, 0
2, 25380, Note_on_c, 0, 84, 110
2, 25538, Note_on_c, 0, 84, 0
2, 25560, Note_on_c, 0, 57, 0
2, 25560, Note_on_c, 0, 60, 0
2, 25560, Note_on_c, 0, 87, 109
2, 25718, Note_on_c, 0, 87, 0
2, 25740, Note_on_c, 0, 88, 103
2, 25898, Note_on_c, 0, 88, 0
2, 25920, Note_on_c, 0, 81, 66
2, 26910, Note_on_c, 0, 81, 0
2, 26910, Note_on_c, 0, 84, 94
2, 27000, Note_on_c, 0, 84, 0
2, 27000, Note_on_c, 0, 77, 73
2, 27450, Note_on_c, 0, 77, 0
2, 27450, Note_on_c, 0, 80, 95
2, 27540, Note_on_c, 0, 80, 0
2, 27540, Note_on_c, 0, 72, 65
2, 27900, Note_on_c, 0, 72, 0
2, 27900, Note_on_c, 0, 76, 92
2, 27990, Note_on_c, 0, 76, 0
2, 27990, Note_on_c, 0, 72, 74
2, 28080, Note_on_c, 0, 72, 0
2, 28080, Note_on_c, 0, 69, 78
2, 28800, Note_on_c, 0, 69, 0
2, 28800, Note_on_c, 0, 69, 89
2, 28890, Note_on_c, 0, 69, 0
2, 28890, Note_on_c, 0, 72, 97
2, 28980, Note_on_c, 0, 72, 0
2, 28980, Note_on_c, 0, 69, 78
2, 29070, Note_on_c, 0, 69, 0
2, 29070, Note_on_c, 0, 72, 96
2, 29160, Note_on_c, 0, 72, 0
2, 29160, Note_on_c, 0, 65, 87
2, 29340, Note_on_c, 0, 65, 0
2, 29340, Note_on_c, 0, 65, 83
2, 29430, Note_on_c, 0, 65, 0
2, 29430, Note_on_c, 0, 68, 81
2, 29520, Note_on_c, 0, 68, 0
2, 29520, Note_on_c, 0, 65, 79
2, 29610, Note_on_c, 0, 65, 0
2, 29610, Note_on_c, 0, 68, 77
2, 29700, Note_on_c, 0, 68, 0
2, 29700, Note_on_c, 0, 60, 75
2, 29880, Note_on_c, 0, 60, 0
2, 29880, Note_on_c, 0, 60, 70
2, 29970, Note_on_c, 0, 60, 0
2, 29970, Note_on_c, 0, 64, 68
2, 30060, Note_on_c, 0, 64, 0
2, 30060, Note_on_c, 0, 60, 66
2, 30150, Note_on_c, 0, 60, 0
2, 30150, Note_on_c, 0, 64, 64
2, 30240, Note_on_c, 0, 64, 0
2, 30240, Note_on_c, 0, 57, 62
2, 30780, Note_on_c, 0, 57, 0
2, 30780, Note_on_c, 0, 60, 67
2, 31860, Note_on_c, 0, 60, 0
2, 31860, Note_on_c, 0, 63, 69
2, 31860, Note_on_c, 0, 60, 63
2, 32400, Note_on_c, 0, 60, 0
2, 32400, Note_on_c, 0, 59, 76
2, 32400, Note_on_c, 0, 62, 76
2, 32940, Note_on_c, 0, 62, 0
2, 32940, Note_on_c, 0, 59, 0
2, 32940, Note_on_c, 0, 58, 67
2, 32940, Note_on_c, 0, 61, 67
2, 33480, Note_on_c, 0, 61, 0
2, 33480, Note_on_c, 0, 58, 0
2, 33480, Note_on_c, 0, 63, 0
2, 33480, Note_on_c, 0, 62, 59
2, 33480, Note_on_c, 0, 57, 68
2, 33480, Note_on_c, 0, 60, 68
2, 34020, Note_on_c, 0, 60, 0
2, 34020, Note_on_c, 0, 57, 0
2, 34020, Note_on_c, 0, 56, 70
2, 34020, Note_on_c, 0, 59, 70
2, 34560, Note_on_c, 0, 59, 0
2, 34560, Note_on_c, 0, 56, 0
2, 34560, Note_on_c, 0, 62, 0
2, 34560, Note_on_c, 0, 43, 36
2, 34560, Note_on_c, 0, 50, 36
2, 34560, Note_on_c, 0, 58, 36
2, 34649, Note_on_c, 0, 58, 0
2, 34649, Note_on_c, 0, 50, 0
2, 34649, Note_on_c, 0, 43, 0
2, 34740, Note_on_c, 0, 67, 53
2, 34740, Note_on_c, 0, 70, 53
2, 34740, Note_on_c, 0, 74, 53
2, 34829, Note_on_c, 0, 74, 0
2, 34829, Note_on_c, 0, 70, 0
2, 34829, Note_on_c, 0, 67, 0
2, 34920, Note_on_c, 0, 67, 45
2, 34920, Note_on_c, 0, 70, 45
2, 34920, Note_on_c, 0, 74, 45
2, 35009, Note_on_c, 0, 74, 0
2, 35009, Note_on_c, 0, 70, 0
2, 35009, Note_on_c, 0, 67, 0
2, 35100, Note_on_c, 0, 38, 33
2, 35100, Note_on_c, 0, 45, 33
2, 35100, Note_on_c, 0, 50, 33
2, 35189, Note_on_c, 0, 50, 0
2, 35189, Note_on_c, 0, 45, 0
2, 35189, Note_on_c, 0, 38, 0
2, 35280, Note_on_c, 0, 62, 53
2, 35280, Note_on_c, 0, 65, 53
2, 35280, Note_on_c, 0, 69, 53
2, 35369, Note_on_c, 0, 69, 0
2, 35369, Note_on_c, 0, 65, 0
2, 35369, Note_on_c, 0, 62, 0
2, 35460, Note_on_c, 0, 62, 39
2, 35460, Note_on_c, 0, 65, 39
2, 35460, Note_on_c, 0, 69, 39
2, 35549, Note_on_c, 0, 69, 0
2, 35549, Note_on_c, 0, 65, 0
2, 35549, Note_on_c, 0, 62, 0
2, 35640, Note_on_c, 0, 41, 37
2, 35640, Note_on_c, 0, 48, 37
2, 35640, Note_on_c, 0, 56, 37
2, 35729, Note_on_c, 0, 56, 0
2, 35729, Note_on_c, 0, 48, 0
2, 35729, Note_on_c, 0, 41, 0
2, 35820, Note_on_c, 0, 65, 53
2, 35820, Note_on_c, 0, 68, 53
2, 35820, Note_on_c, 0, 72, 53
2, 35909, Note_on_c, 0, 72, 0
2, 35909, Note_on_c, 0, 68, 0
2, 35909, Note_on_c, 0, 65, 0
2, 36000, Note_on_c, 0, 65, 47
2, 36000, Note_on_c, 0, 68, 47
2, 36000, Note_on_c, 0, 72, 47
2, 36089, Note_on_c, 0, 72, 0
2, 36089, Note_on_c, 0, 68, 0
2, 36089, Note_on_c, 0, 65, 0
2, 36180, Note_on_c, 0, 36, 36
2, 36180, Note_on_c, 0, 43, 36
2, 36180, Note_on_c, 0, 48, 36
2, 36269, Note_on_c, 0, 48, 0
2, 36269, Note_on_c, 0, 43, 0
2, 36269, Note_on_c, 0, 36, 0
2, 36360, Note_on_c, 0, 60, 53
2, 36360, Note_on_c, 0, 63, 53
2, 36360, Note_on_c, 0, 67, 53
2, 36449, Note_on_c, 0, 67, 0
2, 36449, Note_on_c, 0, 63, 0
2, 36449, Note_on_c, 0, 60, 0
2, 36540, Note_on_c, 0, 60, 41
2, 36540, Note_on_c, 0, 63, 41
2, 36540, Note_on_c, 0, 67, 41
2, 36629, Note_on_c, 0, 67, 0
2, 36629, Note_on_c, 0, 63, 0
2, 36629, Note_on_c, 0, 60, 0
2, 36720, Note_on_c, 0, 52, 30
2, 36720, Note_on_c, 0, 33, 66
2, 36720, Note_on_c, 0, 45, 66
2, 36809, Note_on_c, 0, 52, 0
2, 36899, Note_on_c, 0, 45, 0
2, 36899, Note_on_c, 0, 33, 0
2, 36900, Note_on_c, 0, 57, 54
2, 36900, Note_on_c, 0, 61, 54
2, 36900, Note_on_c, 0, 64, 54
2, 36900, Note_on_c, 0, 67, 54
2, 36989, Note_on_c, 0, 67, 0
2, 36989, Note_on_c, 0, 57, 0
2, 36989, Note_on_c, 0, 61, 0
2, 36989, Note_on_c, 0, 64, 0
2, 37080, Note_on_c, 0, 57, 42
2, 37080, Note_on_c, 0, 61, 42
2, 37080, Note_on_c, 0, 64, 42
2, 37080, Note_on_c, 0, 67, 42
2, 37169, Note_on_c, 0, 67, 0
2, 37169, Note_on_c, 0, 57, 0
2, 37169, Note_on_c, 0, 61, 0
2, 37169, Note_on_c, 0, 64, 0
2, 37260, Note_on_c, 0, 54, 33
2, 37260, Note_on_c, 0, 38, 64
2, 37260, Note_on_c, 0, 45, 64
2, 37260, Note_on_c, 0, 50, 64
2, 37349, Note_on_c, 0, 54, 0
2, 37439, Note_on_c, 0, 38, 0
2, 37439, Note_on_c, 0, 45, 0
2, 37439, Note_on_c, 0, 50, 0
2, 37440, Note_on_c, 0, 62, 53
2, 37440, Note_on_c, 0, 66, 53
2, 37440, Note_on_c, 0, 69, 53
2, 37529, Note_on_c, 0, 69, 0
2, 37529, Note_on_c, 0, 66, 0
2, 37529, Note_on_c, 0, 62, 0
2, 37620, Note_on_c, 0, 62, 43
2, 37620, Note_on_c, 0, 66, 43
2, 37620, Note_on_c, 0, 69, 43
2, 37709, Note_on_c, 0, 69, 0
2, 37709, Note_on_c, 0, 66, 0
2, 37709, Note_on_c, 0, 62, 0
2, 37800, Note_on_c, 0, 39, 31
2, 37800, Note_on_c, 0, 46, 31
2, 37800, Note_on_c, 0, 54, 31
2, 37889, Note_on_c, 0, 54, 0
2, 37889, Note_on_c, 0, 46, 0
2, 37889, Note_on_c, 0, 39, 0
2, 37980, Note_on_c, 0, 58, 51
2, 37980, Note_on_c, 0, 62, 51
2, 37980, Note_on_c, 0, 66, 51
2, 37980, Note_on_c, 0, 70, 51
2, 38069, Note_on_c, 0, 70, 0
2, 38069, Note_on_c, 0, 58, 0
2, 38069, Note_on_c, 0, 62, 0
2, 38069, Note_on_c, 0, 66, 0
2, 38160, Note_on_c, 0, 58, 43
2, 38160, Note_on_c, 0, 62, 43
2, 38160, Note_on_c, 0, 66, 43
2, 38160, Note_on_c, 0, 70, 43
2, 38249, Note_on_c, 0, 70, 0
2, 38249, Note_on_c, 0, 58, 0
2, 38249, Note_on_c, 0, 62, 0
2, 38249, Note_on_c, 0, 66, 0
2, 38340, Note_on_c, 0, 40, 36
2, 38340, Note_on_c, 0, 46, 36
2, 38340, Note_on_c, 0, 55, 36
2, 38429, Note_on_c, 0, 55, 0
2, 38429, Note_on_c, 0, 46, 0
2, 38429, Note_on_c, 0, 40, 0
2, 38520, Note_on_c, 0, 58, 52
2, 38520, Note_on_c, 0, 62, 52
2, 38520, Note_on_c, 0, 67, 52
2, 38520, Note_on_c, 0, 70, 52
2, 38609, Note_on_c, 0, 70, 0
2, 38609, Note_on_c, 0, 58, 0
2, 38609, Note_on_c, 0, 62, 0
2, 38609, Note_on_c, 0, 67, 0
2, 38700, Note_on_c, 0, 58, 41
2, 38700, Note_on_c, 0, 62, 41
2, 38700, Note_on_c, 0, 67, 41
2, 38700, Note_on_c, 0, 70, 41
2, 38789, Note_on_c, 0, 70, 0
2, 38789, Note_on_c, 0, 58, 0
2, 38789, Note_on_c, 0, 62, 0
2, 38789, Note_on_c, 0, 67, 0
2, 38880, Note_on_c, 0, 42, 40
2, 38880, Note_on_c, 0, 51, 40
2, 38880, Note_on_c, 0, 57, 40
2, 38969, Note_on_c, 0, 57, 0
2, 38969, Note_on_c, 0, 51, 0
2, 38969, Note_on_c, 0, 42, 0
2, 39060, Note_on_c, 0, 60, 49
2, 39060, Note_on_c, 0, 63, 49
2, 39060, Note_on_c, 0, 69, 49
2, 39060, Note_on_c, 0, 72, 49
2, 39149, Note_on_c, 0, 72, 0
2, 39149, Note_on_c, 0, 60, 0
2, 39149, Note_on_c, 0, 63, 0
2, 39149, Note_on_c, 0, 69, 0
2, 39240, Note_on_c, 0, 60, 43
2, 39240, Note_on_c, 0, 63, 43
2, 39240, Note_on_c, 0, 69, 43
2, 39240, Note_on_c, 0, 72, 43
2, 39329, Note_on_c, 0, 72, 0
2, 39329, Note_on_c, 0, 60, 0
2, 39329, Note_on_c, 0, 63, 0
2, 39329, Note_on_c, 0, 69, 0
2, 39420, Note_on_c, 0, 41, 37
2, 39420, Note_on_c, 0, 48, 37
2, 39420, Note_on_c, 0, 56, 37
2, 39509, Note_on_c, 0, 56, 0
2, 39509, Note_on_c, 0, 48, 0
2, 39509, Note_on_c, 0, 41, 0
2, 39600, Note_on_c, 0, 60, 51
2, 39600, Note_on_c, 0, 65, 51
2, 39600, Note_on_c, 0, 68, 51
2, 39600, Note_on_c, 0, 72, 51
2, 39689, Note_on_c, 0, 72, 0
2, 39689, Note_on_c, 0, 60, 0
2, 39689, Note_on_c, 0, 65, 0
2, 39689, Note_on_c, 0, 68, 0
2, 39780, Note_on_c, 0, 65, 45
2, 39780, Note_on_c, 0, 68, 45
2, 39780, Note_on_c, 0, 72, 45
2, 39869, Note_on_c, 0, 72, 0
2, 39869, Note_on_c, 0, 68, 0
2, 39869, Note_on_c, 0, 65, 0
2, 39960, Note_on_c, 0, 39, 40
2, 39960, Note_on_c, 0, 48, 40
2, 39960, Note_on_c, 0, 55, 40
2, 40049, Note_on_c, 0, 55, 0
2, 40049, Note_on_c, 0, 48, 0
2, 40049, Note_on_c, 0, 39, 0
2, 40140, Note_on_c, 0, 60, 45
2, 40140, Note_on_c, 0, 67, 45
2, 40140, Note_on_c, 0, 72, 45
2, 40229, Note_on_c, 0, 72, 0
2, 40229, Note_on_c, 0, 67, 0
2, 40229, Note_on_c, 0, 60, 0
2, 40320, Note_on_c, 0, 63, 49
2, 40320, Note_on_c, 0, 67, 49
2, 40320, Note_on_c, 0, 72, 49
2, 40409, Note_on_c, 0, 72, 0
2, 40409, Note_on_c, 0, 67, 0
2, 40409, Note_on_c, 0, 63, 0
2, 40500, Note_on_c, 0, 44, 66
2, 40500, Note_on_c, 0, 51, 66
2, 40500, Note_on_c, 0, 60, 66
2, 40680, Note_on_c, 0, 60, 0
2, 40680, Note_on_c, 0, 51, 0
2, 40680, Note_on_c, 0, 44, 0
2, 40680, Note_on_c, 0, 63, 57
2, 40680, Note_on_c, 0, 66, 57
2, 40680, Note_on_c, 0, 72, 57
2, 40769, Note_on_c, 0, 72, 0
2, 40769, Note_on_c, 0, 66, 0
2, 40769, Note_on_c, 0, 63, 0
2, 40860, Note_on_c, 0, 72, 61
2, 40860, Note_on_c, 0, 80, 61
2, 40860, Note_on_c, 0, 66, 61
2, 40949, Note_on_c, 0, 80, 0
2, 40949, Note_on_c, 0, 72, 0
2, 41040, Note_on_c, 0, 66, 0
2, 41040, Note_on_c, 0, 50, 60
2, 41040, Note_on_c, 0, 57, 60
2, 41040, Note_on_c, 0, 62, 60
2, 41129, Note_on_c, 0, 62, 0
2, 41129, Note_on_c, 0, 57, 0
2, 41129, Note_on_c, 0, 50, 0
2, 41220, Note_on_c, 0, 66, 56
2, 41220, Note_on_c, 0, 69, 56
2, 41220, Note_on_c, 0, 74, 56
2, 41220, Note_on_c, 0, 57, 72
2, 41309, Note_on_c, 0, 57, 0
2, 41309, Note_on_c, 0, 66, 0
2, 41309, Note_on_c, 0, 69, 0
2, 41309, Note_on_c, 0, 74, 0
2, 41400, Note_on_c, 0, 69, 73
2, 41400, Note_on_c, 0, 74, 73
2, 41400, Note_on_c, 0, 78, 73
2, 41400, Note_on_c, 0, 58, 76
2, 41489, Note_on_c, 0, 58, 0
2, 41489, Note_on_c, 0, 69, 0
2, 41489, Note_on_c, 0, 74, 0
2, 41489, Note_on_c, 0, 78, 0
2, 41580, Note_on_c, 0, 59, 74
2, 41669, Note_on_c, 0, 59, 0
2, 41760, Note_on_c, 0, 62, 57
2, 41760, Note_on_c, 0, 65, 57
2, 41760, Note_on_c, 0, 69, 57
2, 41849, Note_on_c, 0, 69, 0
2, 41849, Note_on_c, 0, 65, 0
2, 41849, Note_on_c, 0, 62, 0
2, 41940, Note_on_c, 0, 65, 75
2, 41940, Note_on_c, 0, 68, 75
2, 41940, Note_on_c, 0, 74, 75
2, 42029, Note_on_c, 0, 74, 0
2, 42029, Note_on_c, 0, 68, 0
2, 42029, Note_on_c, 0, 65, 0
2, 42120, Note_on_c, 0, 60, 65
2, 42209, Note_on_c, 0, 60, 0
2, 42300, Note_on_c, 0, 62, 61
2, 42300, Note_on_c, 0, 65, 61
2, 42300, Note_on_c, 0, 68, 61
2, 42389, Note_on_c, 0, 68, 0
2, 42389, Note_on_c, 0, 65, 0
2, 42389, Note_on_c, 0, 62, 0
2, 42480, Note_on_c, 0, 64, 57
2, 42480, Note_on_c, 0, 67, 57
2, 42480, Note_on_c, 0, 74, 57
2, 42569, Note_on_c, 0, 74, 0
2, 42569, Note_on_c, 0, 67, 0
2, 42569, Note_on_c, 0, 64, 0
2, 42660, Note_on_c, 0, 61, 67
2, 42749, Note_on_c, 0, 61, 0
2, 42840, Note_on_c, 0, 63, 49
2, 42840, Note_on_c, 0, 67, 49
2, 42840, Note_on_c, 0, 70, 49
2, 42929, Note_on_c, 0, 70, 0
2, 42929, Note_on_c, 0, 67, 0
2, 42929, Note_on_c, 0, 63, 0
2, 43020, Note_on_c, 0, 66, 45
2, 43020, Note_on_c, 0, 70, 45
2, 43020, Note_on_c, 0, 74, 45
2, 43020, Note_on_c, 0, 62, 67
2, 43109, Note_on_c, 0, 62, 0
2, 43109, Note_on_c, 0, 66, 0
2, 43109, Note_on_c, 0, 70, 0
2, 43109, Note_on_c, 0, 74, 0
2, 43200, Note_on_c, 0, 55, 85
2, 43242, Note_on_c, 0, 62, 85
2, 43284, Note_on_c, 0, 70, 85
2, 43380, Note_on_c, 0, 70, 0
2, 43380, Note_on_c, 0, 62, 0
2, 43380, Note_on_c, 0, 55, 0
2, 43380, Note_on_c, 0, 62, 46
2, 43380, Note_on_c, 0, 67, 46
2, 43380, Note_on_c, 0, 70, 46
2, 43469, Note_on_c, 0, 70, 0
2, 43469, Note_on_c, 0, 67, 0
2, 43469, Note_on_c, 0, 62, 0
2, 43560, Note_on_c, 0, 67, 59
2, 43560, Note_on_c, 0, 70, 59
2, 43560, Note_on_c, 0, 77, 59
2, 43649, Note_on_c, 0, 77, 0
2, 43649, Note_on_c, 0, 70, 0
2, 43649, Note_on_c, 0, 67, 0
2, 43740, Note_on_c, 0, 58, 62
2, 43740, Note_on_c, 0, 62, 62
2, 43740, Note_on_c, 0, 69, 62
2, 43920, Note_on_c, 0, 69, 0
2, 43920, Note_on_c, 0, 62, 0
2, 43920, Note_on_c, 0, 58, 0
2, 43920, Note_on_c, 0, 62, 45
2, 43920, Note_on_c, 0, 66, 45
2, 43920, Note_on_c, 0, 69, 45
2, 44009, Note_on_c, 0, 69, 0
2, 44009, Note_on_c, 0, 66, 0
2, 44009, Note_on_c, 0, 62, 0
2, 44100, Note_on_c, 0, 65, 55
2, 44100, Note_on_c, 0, 68, 55
2, 44100, Note_on_c, 0, 74, 55
2, 44189, Note_on_c, 0, 74, 0
2, 44189, Note_on_c, 0, 68, 0
2, 44189, Note_on_c, 0, 65, 0
2, 44280, Note_on_c, 0, 60, 66
2, 44369, Note_on_c, 0, 60, 0
2, 44460, Note_on_c, 0, 63, 46
2, 44460, Note_on_c, 0, 67, 46
2, 44460, Note_on_c, 0, 70, 46
2, 44549, Note_on_c, 0, 70, 0
2, 44549, Note_on_c, 0, 67, 0
2, 44549, Note_on_c, 0, 63, 0
2, 44640, Note_on_c, 0, 63, 51
2, 44640, Note_on_c, 0, 66, 51
2, 44640, Note_on_c, 0, 72, 51
2, 44640, Note_on_c, 0, 57, 65
2, 44729, Note_on_c, 0, 57, 0
2, 44729, Note_on_c, 0, 63, 0
2, 44729, Note_on_c, 0, 66, 0
2, 44729, Note_on_c, 0, 72, 0
2, 44820, Note_on_c, 0, 62, 37
2, 44909, Note_on_c, 0, 62, 0
2, 45000, Note_on_c, 0, 62, 60
2, 45000, Note_on_c, 0, 65, 60
2, 45000, Note_on_c, 0, 69, 60
2, 45089, Note_on_c, 0, 69, 0
2, 45089, Note_on_c, 0, 65, 0
2, 45089, Note_on_c, 0, 62, 0
2, 45180, Note_on_c, 0, 62, 53
2, 45180, Note_on_c, 0, 65, 53
2, 45180, Note_on_c, 0, 69, 53
2, 45269, Note_on_c, 0, 69, 0
2, 45269, Note_on_c, 0, 65, 0
2, 45269, Note_on_c, 0, 62, 0
2, 45360, Note_on_c, 0, 58, 42
2, 45449, Note_on_c, 0, 58, 0
2, 45540, Note_on_c, 0, 62, 59
2, 45540, Note_on_c, 0, 65, 59
2, 45540, Note_on_c, 0, 68, 59
2, 45629, Note_on_c, 0, 68, 0
2, 45629, Note_on_c, 0, 65, 0
2, 45629, Note_on_c, 0, 62, 0
2, 45720, Note_on_c, 0, 62, 55
2, 45720, Note_on_c, 0, 65, 55
2, 45720, Note_on_c, 0, 68, 55
2, 45809, Note_on_c, 0, 68, 0
2, 45809, Note_on_c, 0, 65, 0
2, 45809, Note_on_c, 0, 62, 0
2, 45900, Note_on_c, 0, 53, 43
2, 45989, Note_on_c, 0, 53, 0
2, 46080, Note_on_c, 0, 60, 69
2, 46080, Note_on_c, 0, 63, 69
2, 46080, Note_on_c, 0, 68, 69
2, 46169, Note_on_c, 0, 68, 0
2, 46169, Note_on_c, 0, 63, 0
2, 46169, Note_on_c, 0, 60, 0
2, 46260, Note_on_c, 0, 63, 55
2, 46260, Note_on_c, 0, 68, 55
2, 46260, Note_on_c, 0, 72, 55
2, 46349, Note_on_c, 0, 72, 0
2, 46349, Note_on_c, 0, 68, 0
2, 46349, Note_on_c, 0, 63, 0
2, 46440, Note_on_c, 0, 50, 40
2, 46440, Note_on_c, 0, 57, 40
2, 46529, Note_on_c, 0, 57, 0
2, 46529, Note_on_c, 0, 50, 0
2, 46620, Note_on_c, 0, 57, 63
2, 46620, Note_on_c, 0, 60, 63
2, 46620, Note_on_c, 0, 66, 63
2, 46709, Note_on_c, 0, 66, 0
2, 46709, Note_on_c, 0, 60, 0
2, 46709, Note_on_c, 0, 57, 0
2, 46800, Note_on_c, 0, 60, 59
2, 46800, Note_on_c, 0, 66, 59
2, 46800, Note_on_c, 0, 69, 59
2, 46889, Note_on_c, 0, 69, 0
2, 46889, Note_on_c, 0, 66, 0
2, 46889, Note_on_c, 0, 60, 0
2, 46980, Note_on_c, 0, 44, 63
2, 46980, Note_on_c, 0, 51, 63
2, 46980, Note_on_c, 0, 60, 63
2, 47159, Note_on_c, 0, 60, 0
2, 47159, Note_on_c, 0, 51, 0
2, 47159, Note_on_c, 0, 44, 0
2, 47160, Note_on_c, 0, 56, 43
2, 47160, Note_on_c, 0, 60, 43
2, 47160, Note_on_c, 0, 63, 43
2, 47249, Note_on_c, 0, 63, 0
2, 47249, Note_on_c, 0, 60, 0
2, 47249, Note_on_c, 0, 56, 0
2, 47340, Note_on_c, 0, 60, 59
2, 47340, Note_on_c, 0, 63, 59
2, 47340, Note_on_c, 0, 68, 59
2, 47429, Note_on_c, 0, 68, 0
2, 47429, Note_on_c, 0, 63, 0
2, 47429, Note_on_c, 0, 60, 0
2, 47520, Note_on_c, 0, 33, 61
2, 47520, Note_on_c, 0, 45, 61
2, 47700, Note_on_c, 0, 55, 46
2, 47700, Note_on_c, 0, 61, 46
2, 47700, Note_on_c, 0, 64, 46
2, 47789, Note_on_c, 0, 64, 0
2, 47789, Note_on_c, 0, 55, 0
2, 47789, Note_on_c, 0, 61, 0
2, 47880, Note_on_c, 0, 61, 55
2, 47880, Note_on_c, 0, 64, 55
2, 47880, Note_on_c, 0, 67, 55
2, 47969, Note_on_c, 0, 67, 0
2, 47969, Note_on_c, 0, 61, 0
2, 47969, Note_on_c, 0, 64, 0
2, 48060, Note_on_c, 0, 45, 0
2, 48060, Note_on_c, 0, 33, 0
2, 48060, Note_on_c, 0, 38, 74
2, 48060, Note_on_c, 0, 50, 74
2, 48239, Note_on_c, 0, 50, 0
2, 48239, Note_on_c, 0, 38, 0
2, 48240, Note_on_c, 0, 54, 44
2, 48240, Note_on_c, 0, 57, 44
2, 48240, Note_on_c, 0, 62, 44
2, 48329, Note_on_c, 0, 62, 0
2, 48329, Note_on_c, 0, 57, 0
2, 48329, Note_on_c, 0, 54, 0
2, 48420, Note_on_c, 0, 57, 58
2, 48420, Note_on_c, 0, 62, 58
2, 48420, Note_on_c, 0, 66, 58
2, 48509, Note_on_c, 0, 66, 0
2, 48509, Note_on_c, 0, 62, 0
2, 48509, Note_on_c, 0, 57, 0
2, 48600, Note_on_c, 0, 36, 42
2, 48600, Note_on_c, 0, 48, 42
2, 48689, Note_on_c, 0, 48, 0
2, 48689, Note_on_c, 0, 36, 0
2, 48780, Note_on_c, 0, 54, 71
2, 48780, Note_on_c, 0, 58, 71
2, 48780, Note_on_c, 0, 62, 71
2, 48780, Note_on_c, 0, 63, 71
2, 48869, Note_on_c, 0, 63, 0
2, 48869, Note_on_c, 0, 54, 0
2, 48869, Note_on_c, 0, 58, 0
2, 48869, Note_on_c, 0, 62, 0
2, 48960, Note_on_c, 0, 54, 53
2, 48960, Note_on_c, 0, 58, 53
2, 48960, Note_on_c, 0, 62, 53
2, 48960, Note_on_c, 0, 63, 53
2, 49049, Note_on_c, 0, 63, 0
2, 49049, Note_on_c, 0, 54, 0
2, 49049, Note_on_c, 0, 58, 0
2, 49049, Note_on_c, 0, 62, 0
2, 49140, Note_on_c, 0, 34, 44
2, 49140, Note_on_c, 0, 46, 44
2, 49229, Note_on_c, 0, 46, 0
2, 49229, Note_on_c, 0, 34, 0
2, 49320, Note_on_c, 0, 55, 65
2, 49320, Note_on_c, 0, 61, 65
2, 49320, Note_on_c, 0, 62, 65
2, 49320, Note_on_c, 0, 64, 65
2, 49409, Note_on_c, 0, 64, 0
2, 49409, Note_on_c, 0, 55, 0
2, 49409, Note_on_c, 0, 61, 0
2, 49409, Note_on_c, 0, 62, 0
2, 49500, Note_on_c, 0, 55, 49
2, 49500, Note_on_c, 0, 61, 49
2, 49500, Note_on_c, 0, 62, 49
2, 49500, Note_on_c, 0, 64, 49
2, 49589, Note_on_c, 0, 64, 0
2, 49589, Note_on_c, 0, 55, 0
2, 49589, Note_on_c, 0, 61, 0
2, 49589, Note_on_c, 0, 62, 0
2, 49680, Note_on_c, 0, 33, 41
2, 49680, Note_on_c, 0, 45, 41
2, 49769, Note_on_c, 0, 45, 0
2, 49769, Note_on_c, 0, 33, 0
2, 49860, Note_on_c, 0, 54, 65
2, 49860, Note_on_c, 0, 60, 65
2, 49860, Note_on_c, 0, 62, 65
2, 49860, Note_on_c, 0, 66, 65
2, 49949, Note_on_c, 0, 66, 0
2, 49949, Note_on_c, 0, 54, 0
2, 49949, Note_on_c, 0, 60, 0
2, 49949, Note_on_c, 0, 62, 0
2, 50040, Note_on_c, 0, 54, 47
2, 50040, Note_on_c, 0, 60, 47
2, 50040, Note_on_c, 0, 62, 47
2, 50040, Note_on_c, 0, 66, 47
2, 50129, Note_on_c, 0, 66, 0
2, 50129, Note_on_c, 0, 54, 0
2, 50129, Note_on_c, 0, 60, 0
2, 50129, Note_on_c, 0, 62, 0
2, 50220, Note_on_c, 0, 31, 41
2, 50220, Note_on_c, 0, 43, 41
2, 50309, Note_on_c, 0, 43, 0
2, 50309, Note_on_c, 0, 31, 0
2, 50400, Note_on_c, 0, 55, 65
2, 50400, Note_on_c, 0, 58, 65
2, 50400, Note_on_c, 0, 62, 65
2, 50489, Note_on_c, 0, 62, 0
2, 50489, Note_on_c, 0, 58, 0
2, 50489, Note_on_c, 0, 55, 0
2, 50580, Note_on_c, 0, 55, 48
2, 50580, Note_on_c, 0, 58, 48
2, 50580, Note_on_c, 0, 62, 48
2, 50669, Note_on_c, 0, 62, 0
2, 50669, Note_on_c, 0, 58, 0
2, 50669, Note_on_c, 0, 55, 0
2, 50760, Note_on_c, 0, 38, 47
2, 50760, Note_on_c, 0, 50, 47
2, 50849, Note_on_c, 0, 50, 0
2, 50849, Note_on_c, 0, 38, 0
2, 50940, Note_on_c, 0, 53, 67
2, 50940, Note_on_c, 0, 57, 67
2, 50940, Note_on_c, 0, 62, 67
2, 51029, Note_on_c, 0, 62, 0
2, 51029, Note_on_c, 0, 57, 0
2, 51029, Note_on_c, 0, 53, 0
2, 51120, Note_on_c, 0, 53, 54
2, 51120, Note_on_c, 0, 57, 54
2, 51120, Note_on_c, 0, 62, 54
2, 51209, Note_on_c, 0, 62, 0
2, 51209, Note_on_c, 0, 57, 0
2, 51209, Note_on_c, 0, 53, 0
2, 51300, Note_on_c, 0, 41, 44
2, 51300, Note_on_c, 0, 48, 44
2, 51389, Note_on_c, 0, 48, 0
2, 51389, Note_on_c, 0, 41, 0
2, 51480, Note_on_c, 0, 53, 64
2, 51480, Note_on_c, 0, 56, 64
2, 51480, Note_on_c, 0, 60, 64
2, 51569, Note_on_c, 0, 60, 0
2, 51569, Note_on_c, 0, 56, 0
2, 51569, Note_on_c, 0, 53, 0
2, 51660, Note_on_c, 0, 53, 54
2, 51660, Note_on_c, 0, 56, 54
2, 51660, Note_on_c, 0, 60, 54
2, 51749, Note_on_c, 0, 60, 0
2, 51749, Note_on_c, 0, 56, 0
2, 51749, Note_on_c, 0, 53, 0
2, 51840, Note_on_c, 0, 36, 42
2, 51840, Note_on_c, 0, 48, 42
2, 51929, Note_on_c, 0, 48, 0
2, 51929, Note_on_c, 0, 36, 0
2, 52020, Note_on_c, 0, 51, 65
2, 52020, Note_on_c, 0, 55, 65
2, 52020, Note_on_c, 0, 60, 65
2, 52109, Note_on_c, 0, 60, 0
2, 52109, Note_on_c, 0, 55, 0
2, 52109, Note_on_c, 0, 51, 0
2, 52200, Note_on_c, 0, 51, 54
2, 52200, Note_on_c, 0, 55, 54
2, 52200, Note_on_c, 0, 60, 54
2, 52289, Note_on_c, 0, 60, 0
2, 52289, Note_on_c, 0, 55, 0
2, 52289, Note_on_c, 0, 51, 0
2, 52380, Note_on_c, 0, 33, 43
2, 52380, Note_on_c, 0, 45, 43
2, 52469, Note_on_c, 0, 45, 0
2, 52469, Note_on_c, 0, 33, 0
2, 52560, Note_on_c, 0, 52, 67
2, 52560, Note_on_c, 0, 55, 67
2, 52560, Note_on_c, 0, 61, 67
2, 52649, Note_on_c, 0, 61, 0
2, 52649, Note_on_c, 0, 55, 0
2, 52649, Note_on_c, 0, 52, 0
2, 52740, Note_on_c, 0, 52, 57
2, 52740, Note_on_c, 0, 55, 57
2, 52740, Note_on_c, 0, 61, 57
2, 52829, Note_on_c, 0, 61, 0
2, 52829, Note_on_c, 0, 55, 0
2, 52829, Note_on_c, 0, 52, 0
2, 52920, Note_on_c, 0, 38, 41
2, 53009, Note_on_c, 0, 38, 0
2, 53100, Note_on_c, 0, 54, 64
2, 53100, Note_on_c, 0, 57, 64
2, 53100, Note_on_c, 0, 62, 64
2, 53189, Note_on_c, 0, 62, 0
2, 53189, Note_on_c, 0, 57, 0
2, 53189, Note_on_c, 0, 54, 0
2, 53280, Note_on_c, 0, 54, 52
2, 53280, Note_on_c, 0, 57, 52
2, 53280, Note_on_c, 0, 62, 52
2, 53369, Note_on_c, 0, 62, 0
2, 53369, Note_on_c, 0, 57, 0
2, 53369, Note_on_c, 0, 54, 0
2, 53460, Note_on_c, 0, 39, 43
2, 53549, Note_on_c, 0, 39, 0
2, 53640, Note_on_c, 0, 54, 71
2, 53640, Note_on_c, 0, 58, 71
2, 53640, Note_on_c, 0, 62, 71
2, 53729, Note_on_c, 0, 62, 0
2, 53729, Note_on_c, 0, 58, 0
2, 53729, Note_on_c, 0, 54, 0
2, 53820, Note_on_c, 0, 54, 52
2, 53820, Note_on_c, 0, 58, 52
2, 53820, Note_on_c, 0, 62, 52
2, 53909, Note_on_c, 0, 62, 0
2, 53909, Note_on_c, 0, 58, 0
2, 53909, Note_on_c, 0, 54, 0
2, 54000, Note_on_c, 0, 40, 39
2, 54089, Note_on_c, 0, 40, 0
2, 54180, Note_on_c, 0, 55, 60
2, 54180, Note_on_c, 0, 58, 60
2, 54180, Note_on_c, 0, 62, 60
2, 54269, Note_on_c, 0, 62, 0
2, 54269, Note_on_c, 0, 58, 0
2, 54269, Note_on_c, 0, 55, 0
2, 54360, Note_on_c, 0, 55, 51
2, 54360, Note_on_c, 0, 58, 51
2, 54360, Note_on_c, 0, 62, 51
2, 54449, Note_on_c, 0, 62, 0
2, 54449, Note_on_c, 0, 58, 0
2, 54449, Note_on_c, 0, 55, 0
2, 54540, Note_on_c, 0, 42, 65
2, 54629, Note_on_c, 0, 42, 0
2, 54720, Note_on_c, 0, 57, 52
2, 54720, Note_on_c, 0, 60, 52
2, 54720, Note_on_c, 0, 63, 52
2, 54720, Note_on_c, 0, 43, 77
2, 54809, Note_on_c, 0, 43, 0
2, 54809, Note_on_c, 0, 57, 0
2, 54809, Note_on_c, 0, 60, 0
2, 54809, Note_on_c, 0, 63, 0
2, 54900, Note_on_c, 0, 57, 54
2, 54900, Note_on_c, 0, 60, 54
2, 54900, Note_on_c, 0, 63, 54
2, 54900, Note_on_c, 0, 42, 72
2, 54989, Note_on_c, 0, 42, 0
2, 54989, Note_on_c, 0, 57, 0
2, 54989, Note_on_c, 0, 60, 0
2, 54989, Note_on_c, 0, 63, 0
2, 55080, Note_on_c, 0, 41, 72
2, 55169, Note_on_c, 0, 41, 0
2, 55260, Note_on_c, 0, 56, 57
2, 55260, Note_on_c, 0, 60, 57
2, 55260, Note_on_c, 0, 65, 57
2, 55349, Note_on_c, 0, 65, 0
2, 55349, Note_on_c, 0, 60, 0
2, 55349, Note_on_c, 0, 56, 0
2, 55440, Note_on_c, 0, 56, 59
2, 55440, Note_on_c, 0, 60, 59
2, 55440, Note_on_c, 0, 65, 59
2, 55529, Note_on_c, 0, 65, 0
2, 55529, Note_on_c, 0, 60, 0
2, 55529, Note_on_c, 0, 56, 0
2, 55620, Note_on_c, 0, 39, 61
2, 55709, Note_on_c, 0, 39, 0
2, 55800, Note_on_c, 0, 55, 62
2, 55800, Note_on_c, 0, 60, 62
2, 55800, Note_on_c, 0, 67, 62
2, 55889, Note_on_c, 0, 67, 0
2, 55889, Note_on_c, 0, 60, 0
2, 55889, Note_on_c, 0, 55, 0
2, 55980, Note_on_c, 0, 55, 64
2, 55980, Note_on_c, 0, 60, 64
2, 55980, Note_on_c, 0, 67, 64
2, 56069, Note_on_c, 0, 67, 0
2, 56069, Note_on_c, 0, 60, 0
2, 56069, Note_on_c, 0, 55, 0
2, 56160, Note_on_c, 0, 51, 66
2, 56160, Note_on_c, 0, 32, 68
2, 56160, Note_on_c, 0, 44, 68
2, 56249, Note_on_c, 0, 44, 0
2, 56249, Note_on_c, 0, 32, 0
2, 56249, Note_on_c, 0, 51, 0
2, 56340, Note_on_c, 0, 60, 67
2, 56340, Note_on_c, 0, 63, 67
2, 56340, Note_on_c, 0, 68, 67
2, 56340, Note_on_c, 0, 54, 83
2, 56429, Note_on_c, 0, 54, 0
2, 56429, Note_on_c, 0, 60, 0
2, 56429, Note_on_c, 0, 63, 0
2, 56429, Note_on_c, 0, 68, 0
2, 56520, Note_on_c, 0, 60, 69
2, 56520, Note_on_c, 0, 63, 69
2, 56520, Note_on_c, 0, 68, 69
2, 56609, Note_on_c, 0, 68, 0
2, 56609, Note_on_c, 0, 63, 0
2, 56609, Note_on_c, 0, 60, 0
2, 56700, Note_on_c, 0, 54, 71
2, 56700, Note_on_c, 0, 38, 67
2, 56700, Note_on_c, 0, 45, 67
2, 56700, Note_on_c, 0, 50, 67
2, 56789, Note_on_c, 0, 54, 0
2, 56880, Note_on_c, 0, 38, 0
2, 56880, Note_on_c, 0, 45, 0
2, 56880, Note_on_c, 0, 50, 0
2, 56880, Note_on_c, 0, 57, 72
2, 56880, Note_on_c, 0, 62, 72
2, 56880, Note_on_c, 0, 69, 72
2, 56969, Note_on_c, 0, 69, 0
2, 56969, Note_on_c, 0, 62, 0
2, 56969, Note_on_c, 0, 57, 0
2, 57060, Note_on_c, 0, 57, 74
2, 57060, Note_on_c, 0, 62, 74
2, 57060, Note_on_c, 0, 69, 74
2, 57149, Note_on_c, 0, 69, 0
2, 57149, Note_on_c, 0, 62, 0
2, 57149, Note_on_c, 0, 57, 0
2, 57420, Note_on_c, 0, 74, 65
2, 57420, Note_on_c, 0, 70, 77
2, 57420, Note_on_c, 0, 66, 63
2, 57600, Note_on_c, 0, 66, 0
2, 57600, Note_on_c, 0, 70, 0
2, 57600, Note_on_c, 0, 69, 95
2, 57600, Note_on_c, 0, 73, 95
2, 57600, Note_on_c, 0, 65, 64
2, 57780, Note_on_c, 0, 65, 0
2, 57780, Note_on_c, 0, 73, 0
2, 57780, Note_on_c, 0, 69, 0
2, 57780, Note_on_c, 0, 68, 87
2, 57780, Note_on_c, 0, 72, 87
2, 57780, Note_on_c, 0, 64, 73
2, 57960, Note_on_c, 0, 64, 0
2, 57960, Note_on_c, 0, 72, 0
2, 57960, Note_on_c, 0, 68, 0
2, 57960, Note_on_c, 0, 67, 83
2, 57960, Note_on_c, 0, 71, 83
2, 57960, Note_on_c, 0, 59, 69
2, 57960, Note_on_c, 0, 63, 69
2, 58140, Note_on_c, 0, 63, 0
2, 58140, Note_on_c, 0, 71, 0
2, 58140, Note_on_c, 0, 59, 0
2, 58140, Note_on_c, 0, 67, 0
2, 58140, Note_on_c, 0, 66, 79
2, 58140, Note_on_c, 0, 70, 79
2, 58140, Note_on_c, 0, 58, 65
2, 58140, Note_on_c, 0, 62, 65
2, 58320, Note_on_c, 0, 62, 0
2, 58320, Note_on_c, 0, 70, 0
2, 58320, Note_on_c, 0, 58, 0
2, 58320, Note_on_c, 0, 66, 0
2, 58320, Note_on_c, 0, 65, 75
2, 58320, Note_on_c, 0, 69, 75
2, 58320, Note_on_c, 0, 73, 75
2, 58320, Note_on_c, 0, 53, 61
2, 58320, Note_on_c, 0, 57, 61
2, 58320, Note_on_c, 0, 61, 61
2, 58500, Note_on_c, 0, 61, 0
2, 58500, Note_on_c, 0, 53, 0
2, 58500, Note_on_c, 0, 65, 0
2, 58500, Note_on_c, 0, 69, 0
2, 58500, Note_on_c, 0, 73, 0
2, 58500, Note_on_c, 0, 57, 0
2, 58500, Note_on_c, 0, 64, 70
2, 58500, Note_on_c, 0, 68, 70
2, 58500, Note_on_c, 0, 72, 70
2, 58500, Note_on_c, 0, 52, 56
2, 58500, Note_on_c, 0, 56, 56
2, 58500, Note_on_c, 0, 60, 56
2, 58680, Note_on_c, 0, 60, 0
2, 58680, Note_on_c, 0, 52, 0
2, 58680, Note_on_c, 0, 64, 0
2, 58680, Note_on_c, 0, 68, 0
2, 58680, Note_on_c, 0, 72, 0
2, 58680, Note_on_c, 0, 56, 0
2, 58680, Note_on_c, 0, 63, 66
2, 58680, Note_on_c, 0, 67, 66
2, 58680, Note_on_c, 0, 71, 66
2, 58680, Note_on_c, 0, 51, 52
2, 58680, Note_on_c, 0, 55, 52
2, 58680, Note_on_c, 0, 59, 52
2, 58860, Note_on_c, 0, 59, 0
2, 58860, Note_on_c, 0, 51, 0
2, 58860, Note_on_c, 0, 63, 0
2, 58860, Note_on_c, 0, 67, 0
2, 58860, Note_on_c, 0, 74, 0
2, 58860, Note_on_c, 0, 55, 0
2, 58860, Note_on_c, 0, 71, 0
2, 58860, Note_on_c, 0, 62, 48
2, 58860, Note_on_c, 0, 67, 48
2, 58860, Note_on_c, 0, 70, 48
2, 58860, Note_on_c, 0, 43, 48
2, 58860, Note_on_c, 0, 50, 48
2, 58860, Note_on_c, 0, 58, 48
2, 58949, Note_on_c, 0, 70, 0
2, 58949, Note_on_c, 0, 62, 0
2, 58949, Note_on_c, 0, 67, 0
2, 59040, Note_on_c, 0, 55, 35
2, 59040, Note_on_c, 0, 58, 35
2, 59040, Note_on_c, 0, 62, 35
2, 59129, Note_on_c, 0, 62, 0
2, 59129, Note_on_c, 0, 58, 0
2, 59129, Note_on_c, 0, 55, 0
2, 59220, Note_on_c, 0, 43, 0
2, 59220, Note_on_c, 0, 58, 0
2, 59220, Note_on_c, 0, 50, 0
2, 59220, Note_on_c, 0, 55, 48
2, 59220, Note_on_c, 0, 58, 48
2, 59220, Note_on_c, 0, 62, 48
2, 59309, Note_on_c, 0, 62, 0
2, 59309, Note_on_c, 0, 58, 0
2, 59309, Note_on_c, 0, 55, 0
2, 59400, Note_on_c, 0, 34, 37
2, 59400, Note_on_c, 0, 46, 37
2, 59579, Note_on_c, 0, 46, 0
2, 59579, Note_on_c, 0, 34, 0
2, 59580, Note_on_c, 0, 57, 41
2, 59580, Note_on_c, 0, 62, 41
2, 59580, Note_on_c, 0, 66, 41
2, 59669, Note_on_c, 0, 66, 0
2, 59669, Note_on_c, 0, 62, 0
2, 59669, Note_on_c, 0, 57, 0
2, 59760, Note_on_c, 0, 56, 46
2, 59760, Note_on_c, 0, 62, 46
2, 59760, Note_on_c, 0, 65, 46
2, 59849, Note_on_c, 0, 65, 0
2, 59849, Note_on_c, 0, 62, 0
2, 59849, Note_on_c, 0, 56, 0
2, 59940, Note_on_c, 0, 39, 40
2, 60119, Note_on_c, 0, 39, 0
2, 60120, Note_on_c, 0, 55, 40
2, 60120, Note_on_c, 0, 58, 40
2, 60120, Note_on_c, 0, 62, 40
2, 60209, Note_on_c, 0, 62, 0
2, 60209, Note_on_c, 0, 58, 0
2, 60209, Note_on_c, 0, 55, 0
2, 60300, Note_on_c, 0, 55, 44
2, 60300, Note_on_c, 0, 60, 44
2, 60300, Note_on_c, 0, 63, 44
2, 60389, Note_on_c, 0, 63, 0
2, 60389, Note_on_c, 0, 60, 0
2, 60389, Note_on_c, 0, 55, 0
2, 60480, Note_on_c, 0, 38, 41
2, 60480, Note_on_c, 0, 45, 41
2, 60480, Note_on_c, 0, 53, 41
2, 60569, Note_on_c, 0, 53, 0
2, 60569, Note_on_c, 0, 45, 0
2, 60569, Note_on_c, 0, 38, 0
2, 60660, Note_on_c, 0, 57, 64
2, 60660, Note_on_c, 0, 62, 64
2, 60660, Note_on_c, 0, 65, 64
2, 60749, Note_on_c, 0, 65, 0
2, 60749, Note_on_c, 0, 62, 0
2, 60749, Note_on_c, 0, 57, 0
2, 60840, Note_on_c, 0, 57, 54
2, 60840, Note_on_c, 0, 62, 54
2, 60840, Note_on_c, 0, 65, 54
2, 60929, Note_on_c, 0, 65, 0
2, 60929, Note_on_c, 0, 62, 0
2, 60929, Note_on_c, 0, 57, 0
2, 61020, Note_on_c, 0, 34, 40
2, 61020, Note_on_c, 0, 46, 40
2, 61109, Note_on_c, 0, 46, 0
2, 61109, Note_on_c, 0, 34, 0
2, 61200, Note_on_c, 0, 56, 64
2, 61200, Note_on_c, 0, 62, 64
2, 61200, Note_on_c, 0, 65, 64
2, 61289, Note_on_c, 0, 65, 0
2, 61289, Note_on_c, 0, 62, 0
2, 61289, Note_on_c, 0, 56, 0
2, 61380, Note_on_c, 0, 56, 50
2, 61380, Note_on_c, 0, 62, 50
2, 61380, Note_on_c, 0, 65, 50
2, 61469, Note_on_c, 0, 65, 0
2, 61469, Note_on_c, 0, 62, 0
2, 61469, Note_on_c, 0, 56, 0
2, 61560, Note_on_c, 0, 41, 64
2, 61560, Note_on_c, 0, 48, 64
2, 61560, Note_on_c, 0, 56, 64
2, 61649, Note_on_c, 0, 56, 0
2, 61649, Note_on_c, 0, 48, 0
2, 61649, Note_on_c, 0, 41, 0
2, 61740, Note_on_c, 0, 56, 90
2, 61740, Note_on_c, 0, 60, 90
2, 61740, Note_on_c, 0, 63, 90
2, 61829, Note_on_c, 0, 63, 0
2, 61829, Note_on_c, 0, 60, 0
2, 61829, Note_on_c, 0, 56, 0
2, 61920, Note_on_c, 0, 56, 81
2, 61920, Note_on_c, 0, 60, 81
2, 61920, Note_on_c, 0, 63, 81
2, 62009, Note_on_c, 0, 63, 0
2, 62009, Note_on_c, 0, 60, 0
2, 62009, Note_on_c, 0, 56, 0
2, 62100, Note_on_c, 0, 38, 58
2, 62100, Note_on_c, 0, 50, 58
2, 62189, Note_on_c, 0, 50, 0
2, 62189, Note_on_c, 0, 38, 0
2, 62280, Note_on_c, 0, 57, 94
2, 62280, Note_on_c, 0, 60, 94
2, 62280, Note_on_c, 0, 66, 94
2, 62369, Note_on_c, 0, 66, 0
2, 62369, Note_on_c, 0, 60, 0
2, 62369, Note_on_c, 0, 57, 0
2, 62460, Note_on_c, 0, 57, 81
2, 62460, Note_on_c, 0, 60, 81
2, 62460, Note_on_c, 0, 66, 81
2, 62549, Note_on_c, 0, 66, 0
2, 62549, Note_on_c, 0, 60, 0
2, 62549, Note_on_c, 0, 57, 0
2, 62640, Note_on_c, 0, 51, 63
2, 62640, Note_on_c, 0, 32, 43
2, 62640, Note_on_c, 0, 44, 43
2, 62729, Note_on_c, 0, 51, 0
2, 62819, Note_on_c, 0, 44, 0
2, 62819, Note_on_c, 0, 32, 0
2, 62820, Note_on_c, 0, 56, 92
2, 62820, Note_on_c, 0, 60, 92
2, 62820, Note_on_c, 0, 65, 92
2, 62909, Note_on_c, 0, 65, 0
2, 62909, Note_on_c, 0, 60, 0
2, 62909, Note_on_c, 0, 56, 0
2, 63000, Note_on_c, 0, 56, 84
2, 63000, Note_on_c, 0, 60, 84
2, 63000, Note_on_c, 0, 66, 84
2, 63089, Note_on_c, 0, 66, 0
2, 63089, Note_on_c, 0, 60, 0
2, 63089, Note_on_c, 0, 56, 0
2, 63180, Note_on_c, 0, 33, 42
2, 63180, Note_on_c, 0, 45, 42
2, 63269, Note_on_c, 0, 45, 0
2, 63269, Note_on_c, 0, 33, 0
2, 63360, Note_on_c, 0, 55, 73
2, 63360, Note_on_c, 0, 61, 73
2, 63360, Note_on_c, 0, 67, 73
2, 63449, Note_on_c, 0, 67, 0
2, 63449, Note_on_c, 0, 61, 0
2, 63449, Note_on_c, 0, 55, 0
2, 63540, Note_on_c, 0, 54, 61
2, 63540, Note_on_c, 0, 60, 61
2, 63540, Note_on_c, 0, 62, 61
2, 63540, Note_on_c, 0, 38, 41
2, 63629, Note_on_c, 0, 38, 0
2, 63629, Note_on_c, 0, 54, 0
2, 63629, Note_on_c, 0, 60, 0
2, 63629, Note_on_c, 0, 62, 0
2, 63720, Note_on_c, 0, 43, 59
2, 63720, Note_on_c, 0, 50, 59
2, 63720, Note_on_c, 0, 58, 59
2, 63899, Note_on_c, 0, 58, 0
2, 63899, Note_on_c, 0, 50, 0
2, 63899, Note_on_c, 0, 43, 0
2, 63900, Note_on_c, 0, 55, 42
2, 63900, Note_on_c, 0, 58, 42
2, 63900, Note_on_c, 0, 62, 42
2, 63989, Note_on_c, 0, 62, 0
2, 63989, Note_on_c, 0, 58, 0
2, 63989, Note_on_c, 0, 55, 0
2, 64080, Note_on_c, 0, 55, 46
2, 64080, Note_on_c, 0, 58, 46
2, 64080, Note_on_c, 0, 62, 46
2, 64169, Note_on_c, 0, 62, 0
2, 64169, Note_on_c, 0, 58, 0
2, 64169, Note_on_c, 0, 55, 0
2, 64260, Note_on_c, 0, 36, 43
2, 64260, Note_on_c, 0, 48, 43
2, 64439, Note_on_c, 0, 48, 0
2, 64439, Note_on_c, 0, 36, 0
2, 64440, Note_on_c, 0, 58, 43
2, 64440, Note_on_c, 0, 61, 43
2, 64440, Note_on_c, 0, 65, 43
2, 64529, Note_on_c, 0, 65, 0
2, 64529, Note_on_c, 0, 61, 0
2, 64529, Note_on_c, 0, 58, 0
2, 64620, Note_on_c, 0, 58, 49
2, 64620, Note_on_c, 0, 61, 49
2, 64620, Note_on_c, 0, 65, 49
2, 64709, Note_on_c, 0, 65, 0
2, 64709, Note_on_c, 0, 61, 0
2, 64709, Note_on_c, 0, 58, 0
2, 64800, Note_on_c, 0, 34, 40
2, 64800, Note_on_c, 0, 46, 40
2, 64979, Note_on_c, 0, 46, 0
2, 64979, Note_on_c, 0, 34, 0
2, 64980, Note_on_c, 0, 55, 46
2, 64980, Note_on_c, 0, 62, 46
2, 64980, Note_on_c, 0, 64, 46
2, 65069, Note_on_c, 0, 64, 0
2, 65069, Note_on_c, 0, 62, 0
2, 65069, Note_on_c, 0, 55, 0
2, 65160, Note_on_c, 0, 55, 47
2, 65160, Note_on_c, 0, 62, 47
2, 65160, Note_on_c, 0, 64, 47
2, 65249, Note_on_c, 0, 64, 0
2, 65249, Note_on_c, 0, 62, 0
2, 65249, Note_on_c, 0, 55, 0
2, 65340, Note_on_c, 0, 33, 43
2, 65340, Note_on_c, 0, 45, 43
2, 65519, Note_on_c, 0, 45, 0
2, 65519, Note_on_c, 0, 33, 0
2, 65520, Note_on_c, 0, 55, 42
2, 65520, Note_on_c, 0, 60, 42
2, 65520, Note_on_c, 0, 63, 42
2, 65609, Note_on_c, 0, 63, 0
2, 65609, Note_on_c, 0, 60, 0
2, 65609, Note_on_c, 0, 55, 0
2, 65700, Note_on_c, 0, 55, 51
2, 65700, Note_on_c, 0, 60, 51
2, 65700, Note_on_c, 0, 63, 51
2, 65789, Note_on_c, 0, 63, 0
2, 65789, Note_on_c, 0, 60, 0
2, 65789, Note_on_c, 0, 55, 0
2, 65880, Note_on_c, 0, 32, 43
2, 65880, Note_on_c, 0, 44, 43
2, 66059, Note_on_c, 0, 44, 0
2, 66059, Note_on_c, 0, 32, 0
2, 66060, Note_on_c, 0, 54, 44
2, 66060, Note_on_c, 0, 60, 44
2, 66060, Note_on_c, 0, 62, 44
2, 66149, Note_on_c, 0, 62, 0
2, 66149, Note_on_c, 0, 60, 0
2, 66149, Note_on_c, 0, 54, 0
2, 66240, Note_on_c, 0, 54, 52
2, 66240, Note_on_c, 0, 60, 52
2, 66240, Note_on_c, 0, 62, 52
2, 66329, Note_on_c, 0, 62, 0
2, 66329, Note_on_c, 0, 60, 0
2, 66329, Note_on_c, 0, 54, 0
2, 66420, Note_on_c, 0, 31, 17
2, 66420, Note_on_c, 0, 43, 17
2, 66599, Note_on_c, 0, 43, 0
2, 66599, Note_on_c, 0, 31, 0
2, 66600, Note_on_c, 0, 65, 60
2, 66600, Note_on_c, 0, 56, 39
2, 66689, Note_on_c, 0, 56, 0
2, 66689, Note_on_c, 0, 65, 0
2, 66780, Note_on_c, 0, 67, 79
2, 66780, Note_on_c, 0, 55, 50
2, 66869, Note_on_c, 0, 55, 0
2, 66869, Note_on_c, 0, 67, 0
2, 66960, Note_on_c, 0, 68, 92
2, 66960, Note_on_c, 0, 62, 54
2, 66960, Note_on_c, 0, 56, 74
2, 66960, Note_on_c, 0, 53, 30
2, 67500, Note_on_c, 0, 62, 0
2, 67500, Note_on_c, 0, 63, 81
2, 67770, Note_on_c, 0, 68, 0
2, 67770, Note_on_c, 0, 71, 77
2, 67860, Note_on_c, 0, 71, 0
2, 67860, Note_on_c, 0, 65, 65
2, 67950, Note_on_c, 0, 65, 0
2, 67950, Note_on_c, 0, 56, 0
2, 67950, Note_on_c, 0, 67, 80
2, 67950, Note_on_c, 0, 55, 79
2, 68040, Note_on_c, 0, 55, 0
2, 68040, Note_on_c, 0, 63, 0
2, 68040, Note_on_c, 0, 53, 0
2, 68040, Note_on_c, 0, 67, 0
2, 68040, Note_on_c, 0, 68, 90
2, 68040, Note_on_c, 0, 62, 68
2, 68040, Note_on_c, 0, 56, 68
2, 68040, Note_on_c, 0, 53, 23
2, 68310, Note_on_c, 0, 62, 0
2, 68310, Note_on_c, 0, 65, 77
2, 68400, Note_on_c, 0, 65, 0
2, 68400, Note_on_c, 0, 53, 0
2, 68400, Note_on_c, 0, 61, 62
2, 68400, Note_on_c, 0, 52, 22
2, 68490, Note_on_c, 0, 61, 0
2, 68490, Note_on_c, 0, 62, 77
2, 68580, Note_on_c, 0, 62, 0
2, 68580, Note_on_c, 0, 52, 0
2, 68580, Note_on_c, 0, 63, 77
2, 68580, Note_on_c, 0, 47, 25
2, 68580, Note_on_c, 0, 51, 25
2, 68850, Note_on_c, 0, 68, 0
2, 68850, Note_on_c, 0, 71, 80
2, 68940, Note_on_c, 0, 71, 0
2, 68940, Note_on_c, 0, 66, 67
2, 69030, Note_on_c, 0, 66, 0
2, 69030, Note_on_c, 0, 47, 0
2, 69030, Note_on_c, 0, 56, 0
2, 69030, Note_on_c, 0, 63, 0
2, 69030, Note_on_c, 0, 51, 0
2, 69030, Note_on_c, 0, 67, 74
2, 69030, Note_on_c, 0, 62, 73
2, 69030, Note_on_c, 0, 55, 75
2, 69030, Note_on_c, 0, 52, 25
2, 69120, Note_on_c, 0, 52, 0
2, 69120, Note_on_c, 0, 67, 0
2, 69120, Note_on_c, 0, 62, 0
2, 69120, Note_on_c, 0, 55, 0
2, 69120, Note_on_c, 0, 68, 91
2, 69120, Note_on_c, 0, 61, 68
2, 69120, Note_on_c, 0, 56, 90
2, 69120, Note_on_c, 0, 53, 27
2, 69210, Note_on_c, 0, 61, 0
2, 69210, Note_on_c, 0, 63, 76
2, 69300, Note_on_c, 0, 63, 0
2, 69300, Note_on_c, 0, 62, 75
2, 69437, Note_on_c, 0, 68, 0
2, 69437, Note_on_c, 0, 56, 0
2, 69480, Note_on_c, 0, 69, 79
2, 69480, Note_on_c, 0, 57, 74
2, 69570, Note_on_c, 0, 57, 0
2, 69570, Note_on_c, 0, 69, 0
2, 69570, Note_on_c, 0, 62, 0
2, 69570, Note_on_c, 0, 70, 77
2, 69570, Note_on_c, 0, 63, 79
2, 69570, Note_on_c, 0, 58, 77
2, 69660, Note_on_c, 0, 58, 0
2, 69660, Note_on_c, 0, 53, 0
2, 69660, Note_on_c, 0, 70, 0
2, 69660, Note_on_c, 0, 63, 0
2, 69660, Note_on_c, 0, 71, 87
2, 69660, Note_on_c, 0, 64, 80
2, 69660, Note_on_c, 0, 59, 89
2, 69660, Note_on_c, 0, 56, 33
2, 69660, Note_on_c, 0, 62, 33
2, 69750, Note_on_c, 0, 64, 0
2, 69750, Note_on_c, 0, 66, 77
2, 69840, Note_on_c, 0, 66, 0
2, 69840, Note_on_c, 0, 65, 68
2, 69977, Note_on_c, 0, 71, 0
2, 69977, Note_on_c, 0, 59, 0
2, 70020, Note_on_c, 0, 73, 80
2, 70020, Note_on_c, 0, 61, 81
2, 70110, Note_on_c, 0, 61, 0
2, 70110, Note_on_c, 0, 65, 0
2, 70110, Note_on_c, 0, 73, 0
2, 70110, Note_on_c, 0, 74, 76
2, 70110, Note_on_c, 0, 66, 79
2, 70110, Note_on_c, 0, 62, 79
2, 70200, Note_on_c, 0, 62, 0
2, 70200, Note_on_c, 0, 74, 0
2, 70200, Note_on_c, 0, 56, 0
2, 70200, Note_on_c, 0, 62, 0
2, 70200, Note_on_c, 0, 66, 0
2, 70200, Note_on_c, 0, 75, 82
2, 70200, Note_on_c, 0, 67, 84
2, 70200, Note_on_c, 0, 63, 89
2, 70200, Note_on_c, 0, 59, 23
2, 70290, Note_on_c, 0, 67, 0
2, 70290, Note_on_c, 0, 70, 82
2, 70380, Note_on_c, 0, 70, 0
2, 70380, Note_on_c, 0, 68, 63
2, 70517, Note_on_c, 0, 75, 0
2, 70517, Note_on_c, 0, 63, 0
2, 70560, Note_on_c, 0, 77, 81
2, 70560, Note_on_c, 0, 65, 74
2, 70650, Note_on_c, 0, 65, 0
2, 70650, Note_on_c, 0, 77, 0
2, 70650, Note_on_c, 0, 68, 0
2, 70650, Note_on_c, 0, 78, 79
2, 70650, Note_on_c, 0, 70, 77
2, 70650, Note_on_c, 0, 66, 82
2, 70740, Note_on_c, 0, 66, 0
2, 70740, Note_on_c, 0, 59, 0
2, 70740, Note_on_c, 0, 78, 0
2, 70740, Note_on_c, 0, 70, 0
2, 70740, Note_on_c, 0, 66, 111
2, 70740, Note_on_c, 0, 71, 111
2, 70740, Note_on_c, 0, 78, 111
2, 70740, Note_on_c, 0, 53, 96
2, 70740, Note_on_c, 0, 59, 96
2, 70740, Note_on_c, 0, 65, 96
2, 70830, Note_on_c, 0, 78, 0
2, 70830, Note_on_c, 0, 66, 0
2, 70830, Note_on_c, 0, 71, 0
2, 70830, Note_on_c, 0, 68, 92
2, 70830, Note_on_c, 0, 80, 92
2, 70920, Note_on_c, 0, 80, 0
2, 70920, Note_on_c, 0, 68, 0
2, 70920, Note_on_c, 0, 67, 85
2, 70920, Note_on_c, 0, 79, 85
2, 71100, Note_on_c, 0, 79, 0
2, 71100, Note_on_c, 0, 65, 0
2, 71100, Note_on_c, 0, 53, 0
2, 71100, Note_on_c, 0, 59, 0
2, 71100, Note_on_c, 0, 67, 0
2, 71100, Note_on_c, 0, 70, 37
2, 71100, Note_on_c, 0, 65, 61
2, 71100, Note_on_c, 0, 62, 70
2, 71100, Note_on_c, 0, 56, 28
2, 71190, Note_on_c, 0, 62, 0
2, 71190, Note_on_c, 0, 70, 0
2, 71190, Note_on_c, 0, 71, 54
2, 71190, Note_on_c, 0, 61, 74
2, 71280, Note_on_c, 0, 61, 0
2, 71280, Note_on_c, 0, 56, 0
2, 71280, Note_on_c, 0, 65, 0
2, 71280, Note_on_c, 0, 71, 0
2, 71280, Note_on_c, 0, 72, 94
2, 71280, Note_on_c, 0, 66, 77
2, 71280, Note_on_c, 0, 60, 70
2, 71280, Note_on_c, 0, 57, 23
2, 71820, Note_on_c, 0, 66, 0
2, 71820, Note_on_c, 0, 67, 80
2, 71910, Note_on_c, 0, 67, 0
2, 71910, Note_on_c, 0, 66, 73
2, 72000, Note_on_c, 0, 66, 0
2, 72000, Note_on_c, 0, 67, 76
2, 72090, Note_on_c, 0, 72, 0
2, 72090, Note_on_c, 0, 75, 80
2, 72180, Note_on_c, 0, 75, 0
2, 72180, Note_on_c, 0, 69, 61
2, 72270, Note_on_c, 0, 69, 0
2, 72270, Note_on_c, 0, 60, 0
2, 72270, Note_on_c, 0, 71, 75
2, 72270, Note_on_c, 0, 59, 67
2, 72360, Note_on_c, 0, 59, 0
2, 72360, Note_on_c, 0, 67, 0
2, 72360, Note_on_c, 0, 57, 0
2, 72360, Note_on_c, 0, 71, 0
2, 72360, Note_on_c, 0, 72, 91
2, 72360, Note_on_c, 0, 66, 72
2, 72360, Note_on_c, 0, 60, 78
2, 72360, Note_on_c, 0, 57, 28
2, 72630, Note_on_c, 0, 66, 0
2, 72630, Note_on_c, 0, 69, 80
2, 72720, Note_on_c, 0, 69, 0
2, 72720, Note_on_c, 0, 57, 0
2, 72720, Note_on_c, 0, 65, 63
2, 72720, Note_on_c, 0, 56, 27
2, 72810, Note_on_c, 0, 65, 0
2, 72810, Note_on_c, 0, 66, 78
2, 72900, Note_on_c, 0, 66, 0
2, 72900, Note_on_c, 0, 56, 0
2, 72900, Note_on_c, 0, 67, 80
2, 72900, Note_on_c, 0, 51, 21
2, 72900, Note_on_c, 0, 55, 21
2, 72990, Note_on_c, 0, 67, 0
2, 72990, Note_on_c, 0, 66, 73
2, 73080, Note_on_c, 0, 66, 0
2, 73080, Note_on_c, 0, 67, 73
2, 73170, Note_on_c, 0, 72, 0
2, 73170, Note_on_c, 0, 75, 83
2, 73260, Note_on_c, 0, 75, 0
2, 73260, Note_on_c, 0, 60, 0
2, 73260, Note_on_c, 0, 70, 63
2, 73260, Note_on_c, 0, 58, 65
2, 73350, Note_on_c, 0, 58, 0
2, 73350, Note_on_c, 0, 51, 0
2, 73350, Note_on_c, 0, 67, 0
2, 73350, Note_on_c, 0, 55, 0
2, 73350, Note_on_c, 0, 70, 0
2, 73350, Note_on_c, 0, 71, 77
2, 73350, Note_on_c, 0, 66, 72
2, 73350, Note_on_c, 0, 59, 77
2, 73350, Note_on_c, 0, 56, 28
2, 73440, Note_on_c, 0, 56, 0
2, 73440, Note_on_c, 0, 71, 0
2, 73440, Note_on_c, 0, 66, 0
2, 73440, Note_on_c, 0, 59, 0
2, 73440, Note_on_c, 0, 72, 94
2, 73440, Note_on_c, 0, 65, 71
2, 73440, Note_on_c, 0, 60, 92
2, 73440, Note_on_c, 0, 57, 23
2, 73530, Note_on_c, 0, 65, 0
2, 73530, Note_on_c, 0, 67, 77
2, 73620, Note_on_c, 0, 67, 0
2, 73620, Note_on_c, 0, 66, 70
2, 73757, Note_on_c, 0, 72, 0
2, 73757, Note_on_c, 0, 60, 0
2, 73800, Note_on_c, 0, 73, 77
2, 73800, Note_on_c, 0, 61, 85
2, 73890, Note_on_c, 0, 61, 0
2, 73890, Note_on_c, 0, 73, 0
2, 73890, Note_on_c, 0, 66, 0
2, 73890, Note_on_c, 0, 74, 74
2, 73890, Note_on_c, 0, 67, 78
2, 73890, Note_on_c, 0, 62, 76
2, 73980, Note_on_c, 0, 62, 0
2, 73980, Note_on_c, 0, 57, 0
2, 73980, Note_on_c, 0, 74, 0
2, 73980, Note_on_c, 0, 67, 0
2, 73980, Note_on_c, 0, 75, 73
2, 73980, Note_on_c, 0, 68, 73
2, 73980, Note_on_c, 0, 63, 87
2, 73980, Note_on_c, 0, 60, 31
2, 73980, Note_on_c, 0, 66, 31
2, 74070, Note_on_c, 0, 68, 0
2, 74070, Note_on_c, 0, 70, 75
2, 74160, Note_on_c, 0, 70, 0
2, 74160, Note_on_c, 0, 69, 78
2, 74297, Note_on_c, 0, 75, 0
2, 74340, Note_on_c, 0, 63, 0
2, 74340, Note_on_c, 0, 77, 82
2, 74340, Note_on_c, 0, 65, 81
2, 74430, Note_on_c, 0, 65, 0
2, 74430, Note_on_c, 0, 69, 0
2, 74430, Note_on_c, 0, 77, 0
2, 74430, Note_on_c, 0, 78, 84
2, 74430, Note_on_c, 0, 70, 84
2, 74430, Note_on_c, 0, 66, 76
2, 74520, Note_on_c, 0, 66, 0
2, 74520, Note_on_c, 0, 78, 0
2, 74520, Note_on_c, 0, 60, 0
2, 74520, Note_on_c, 0, 66, 0
2, 74520, Note_on_c, 0, 70, 0
2, 74520, Note_on_c, 0, 79, 86
2, 74520, Note_on_c, 0, 71, 86
2, 74520, Note_on_c, 0, 67, 90
2, 74520, Note_on_c, 0, 58, 22
2, 74520, Note_on_c, 0, 63, 22
2, 74610, Note_on_c, 0, 71, 0
2, 74610, Note_on_c, 0, 74, 88
2, 74700, Note_on_c, 0, 74, 0
2, 74700, Note_on_c, 0, 72, 90
2, 74837, Note_on_c, 0, 79, 0
2, 74837, Note_on_c, 0, 67, 0
2, 74880, Note_on_c, 0, 81, 94
2, 74880, Note_on_c, 0, 69, 75
2, 74970, Note_on_c, 0, 69, 0
2, 74970, Note_on_c, 0, 72, 0
2, 74970, Note_on_c, 0, 81, 0
2, 74970, Note_on_c, 0, 82, 97
2, 74970, Note_on_c, 0, 74, 97
2, 74970, Note_on_c, 0, 70, 76
2, 75060, Note_on_c, 0, 70, 0
2, 75060, Note_on_c, 0, 58, 0
2, 75060, Note_on_c, 0, 82, 0
2, 75060, Note_on_c, 0, 63, 0
2, 75060, Note_on_c, 0, 70, 89
2, 75060, Note_on_c, 0, 75, 89
2, 75060, Note_on_c, 0, 82, 89
2, 75060, Note_on_c, 0, 67, 66
2, 75060, Note_on_c, 0, 57, 27
2, 75060, Note_on_c, 0, 63, 27
2, 75150, Note_on_c, 0, 82, 0
2, 75150, Note_on_c, 0, 75, 0
2, 75150, Note_on_c, 0, 74, 0
2, 75150, Note_on_c, 0, 70, 0
2, 75150, Note_on_c, 0, 72, 94
2, 75150, Note_on_c, 0, 84, 94
2, 75240, Note_on_c, 0, 84, 0
2, 75240, Note_on_c, 0, 67, 0
2, 75240, Note_on_c, 0, 72, 0
2, 75240, Note_on_c, 0, 71, 83
2, 75240, Note_on_c, 0, 83, 83
2, 75240, Note_on_c, 0, 66, 71
2, 75420, Note_on_c, 0, 66, 0
2, 75420, Note_on_c, 0, 71, 0
2, 75420, Note_on_c, 0, 63, 0
2, 75420, Note_on_c, 0, 57, 0
2, 75420, Note_on_c, 0, 83, 0
2, 75420, Note_on_c, 0, 72, 87
2, 75420, Note_on_c, 0, 78, 87
2, 75420, Note_on_c, 0, 81, 87
2, 75420, Note_on_c, 0, 84, 87
2, 75420, Note_on_c, 0, 60, 81
2, 75420, Note_on_c, 0, 66, 81
2, 75420, Note_on_c, 0, 69, 81
2, 75420, Note_on_c, 0, 64, 32
2, 75499, Note_on_c, 0, 84, 0
2, 75499, Note_on_c, 0, 81, 0
2, 75499, Note_on_c, 0, 72, 0
2, 75499, Note_on_c, 0, 78, 0
2, 75510, Note_on_c, 0, 64, 0
2, 75510, Note_on_c, 0, 74, 100
2, 75510, Note_on_c, 0, 86, 100
2, 75510, Note_on_c, 0, 62, 26
2, 75589, Note_on_c, 0, 86, 0
2, 75589, Note_on_c, 0, 74, 0
2, 75600, Note_on_c, 0, 69, 0
2, 75600, Note_on_c, 0, 60, 0
2, 75600, Note_on_c, 0, 62, 0
2, 75600, Note_on_c, 0, 66, 0
2, 75600, Note_on_c, 0, 73, 110
2, 75600, Note_on_c, 0, 78, 110
2, 75600, Note_on_c, 0, 81, 110
2, 75600, Note_on_c, 0, 85, 110
2, 75600, Note_on_c, 0, 61, 85
2, 75600, Note_on_c, 0, 66, 85
2, 75600, Note_on_c, 0, 69, 85
2, 76074, Note_on_c, 0, 69, 0
2, 76074, Note_on_c, 0, 61, 0
2, 76074, Note_on_c, 0, 78, 0
2, 76074, Note_on_c, 0, 81, 0
2, 76074, Note_on_c, 0, 73, 0
2, 76074, Note_on_c, 0, 66, 0
2, 76074, Note_on_c, 0, 85, 0
2, 76140, Note_on_c, 0, 78, 96
2, 76140, Note_on_c, 0, 81, 96
2, 76140, Note_on_c, 0, 84, 96
2, 76140, Note_on_c, 0, 72, 109
2, 76140, Note_on_c, 0, 66, 72
2, 76140, Note_on_c, 0, 69, 72
2, 76140, Note_on_c, 0, 60, 22
2, 76500, Note_on_c, 0, 69, 0
2, 76500, Note_on_c, 0, 84, 0
2, 76500, Note_on_c, 0, 81, 0
2, 76500, Note_on_c, 0, 78, 0
2, 76500, Note_on_c, 0, 66, 0
2, 76500, Note_on_c, 0, 77, 92
2, 76500, Note_on_c, 0, 81, 92
2, 76500, Note_on_c, 0, 65, 73
2, 76500, Note_on_c, 0, 69, 73
2, 76680, Note_on_c, 0, 69, 0
2, 76680, Note_on_c, 0, 72, 0
2, 76680, Note_on_c, 0, 77, 0
2, 76680, Note_on_c, 0, 60, 0
2, 76680, Note_on_c, 0, 65, 0
2, 76680, Note_on_c, 0, 81, 0
2, 76680, Note_on_c, 0, 69, 88
2, 76680, Note_on_c, 0, 72, 88
2, 76680, Note_on_c, 0, 76, 88
2, 76680, Note_on_c, 0, 57, 61
2, 76680, Note_on_c, 0, 60, 61
2, 76680, Note_on_c, 0, 64, 61
2, 76860, Note_on_c, 0, 64, 0
2, 76860, Note_on_c, 0, 72, 0
2, 76860, Note_on_c, 0, 76, 0
2, 76860, Note_on_c, 0, 69, 0
2, 76860, Note_on_c, 0, 60, 0
2, 76860, Note_on_c, 0, 57, 0
2, 77040, Note_on_c, 0, 76, 73
2, 77040, Note_on_c, 0, 72, 73
2, 77310, Note_on_c, 0, 72, 0
2, 77310, Note_on_c, 0, 76, 0
2, 77310, Note_on_c, 0, 77, 75
2, 77310, Note_on_c, 0, 73, 80
2, 77400, Note_on_c, 0, 73, 0
2, 77400, Note_on_c, 0, 77, 0
2, 77400, Note_on_c, 0, 76, 68
2, 77400, Note_on_c, 0, 72, 66
2, 77490, Note_on_c, 0, 72, 0
2, 77490, Note_on_c, 0, 76, 0
2, 77490, Note_on_c, 0, 75, 72
2, 77490, Note_on_c, 0, 71, 69
2, 77580, Note_on_c, 0, 71, 0
2, 77580, Note_on_c, 0, 75, 0
2, 77580, Note_on_c, 0, 76, 73
2, 77580, Note_on_c, 0, 72, 79
2, 77670, Note_on_c, 0, 72, 0
2, 77670, Note_on_c, 0, 76, 0
2, 77670, Note_on_c, 0, 77, 78
2, 77670, Note_on_c, 0, 73, 79
2, 77760, Note_on_c, 0, 73, 0
2, 77760, Note_on_c, 0, 77, 0
2, 77760, Note_on_c, 0, 76, 69
2, 77760, Note_on_c, 0, 72, 71
2, 77940, Note_on_c, 0, 72, 0
2, 77940, Note_on_c, 0, 76, 0
2, 78120, Note_on_c, 0, 81, 91
2, 78120, Note_on_c, 0, 72, 66
2, 78120, Note_on_c, 0, 76, 66
2, 78120, Note_on_c, 0, 69, 72
2, 78120, Note_on_c, 0, 60, 27
2, 78120, Note_on_c, 0, 64, 27
2, 78480, Note_on_c, 0, 64, 0
2, 78480, Note_on_c, 0, 72, 0
2, 78480, Note_on_c, 0, 76, 0
2, 78480, Note_on_c, 0, 81, 0
2, 78480, Note_on_c, 0, 60, 0
2, 78480, Note_on_c, 0, 69, 0
2, 78480, Note_on_c, 0, 72, 87
2, 78480, Note_on_c, 0, 80, 87
2, 78480, Note_on_c, 0, 75, 68
2, 78480, Note_on_c, 0, 60, 70
2, 78480, Note_on_c, 0, 68, 70
2, 78480, Note_on_c, 0, 57, 22
2, 78480, Note_on_c, 0, 63, 22
2, 78660, Note_on_c, 0, 68, 0
2, 78660, Note_on_c, 0, 60, 0
2, 78660, Note_on_c, 0, 72, 0
2, 78660, Note_on_c, 0, 80, 0
2, 78660, Note_on_c, 0, 71, 80
2, 78660, Note_on_c, 0, 79, 80
2, 78660, Note_on_c, 0, 59, 69
2, 78660, Note_on_c, 0, 67, 69
2, 78840, Note_on_c, 0, 67, 0
2, 78840, Note_on_c, 0, 79, 0
2, 78840, Note_on_c, 0, 63, 0
2, 78840, Note_on_c, 0, 57, 0
2, 78840, Note_on_c, 0, 75, 0
2, 78840, Note_on_c, 0, 59, 0
2, 78840, Note_on_c, 0, 71, 0
2, 78840, Note_on_c, 0, 68, 78
2, 78840, Note_on_c, 0, 72, 78
2, 78840, Note_on_c, 0, 75, 78
2, 78840, Note_on_c, 0, 56, 64
2, 78840, Note_on_c, 0, 60, 64
2, 78840, Note_on_c, 0, 63, 64
2, 79020, Note_on_c, 0, 63, 0
2, 79020, Note_on_c, 0, 72, 0
2, 79020, Note_on_c, 0, 75, 0
2, 79020, Note_on_c, 0, 68, 0
2, 79020, Note_on_c, 0, 60, 0
2, 79020, Note_on_c, 0, 56, 0
2, 79200, Note_on_c, 0, 75, 54
2, 79200, Note_on_c, 0, 72, 41
2, 79470, Note_on_c, 0, 72, 0
2, 79470, Note_on_c, 0, 75, 0
2, 79470, Note_on_c, 0, 76, 54
2, 79470, Note_on_c, 0, 73, 49
2, 79560, Note_on_c, 0, 73, 0
2, 79560, Note_on_c, 0, 76, 0
2, 79560, Note_on_c, 0, 75, 49
2, 79560, Note_on_c, 0, 72, 51
2, 79650, Note_on_c, 0, 72, 0
2, 79650, Note_on_c, 0, 75, 0
2, 79650, Note_on_c, 0, 73, 50
2, 79650, Note_on_c, 0, 71, 45
2, 79740, Note_on_c, 0, 71, 0
2, 79740, Note_on_c, 0, 73, 0
2, 79740, Note_on_c, 0, 75, 56
2, 79740, Note_on_c, 0, 72, 48
2, 79830, Note_on_c, 0, 72, 0
2, 79830, Note_on_c, 0, 75, 0
2, 79830, Note_on_c, 0, 76, 56
2, 79830, Note_on_c, 0, 73, 54
2, 79920, Note_on_c, 0, 73, 0
2, 79920, Note_on_c, 0, 76, 0
2, 79920, Note_on_c, 0, 75, 49
2, 79920, Note_on_c, 0, 72, 47
2, 80100, Note_on_c, 0, 72, 0
2, 80100, Note_on_c, 0, 75, 0
2, 80280, Note_on_c, 0, 80, 76
2, 80280, Note_on_c, 0, 72, 85
2, 80280, Note_on_c, 0, 75, 85
2, 80280, Note_on_c, 0, 68, 78
2, 80280, Note_on_c, 0, 60, 23
2, 80280, Note_on_c, 0, 63, 23
2, 80640, Note_on_c, 0, 63, 0
2, 80640, Note_on_c, 0, 72, 0
2, 80640, Note_on_c, 0, 75, 0
2, 80640, Note_on_c, 0, 80, 0
2, 80640, Note_on_c, 0, 60, 0
2, 80640, Note_on_c, 0, 68, 0
2, 80640, Note_on_c, 0, 72, 69
2, 80640, Note_on_c, 0, 78, 69
2, 80640, Note_on_c, 0, 69, 62
2, 80640, Note_on_c, 0, 60, 66
2, 80640, Note_on_c, 0, 67, 66
2, 80640, Note_on_c, 0, 57, 21
2, 80820, Note_on_c, 0, 67, 0
2, 80820, Note_on_c, 0, 60, 0
2, 80820, Note_on_c, 0, 78, 0
2, 80820, Note_on_c, 0, 72, 0
2, 80820, Note_on_c, 0, 73, 67
2, 80820, Note_on_c, 0, 78, 67
2, 80820, Note_on_c, 0, 61, 71
2, 80820, Note_on_c, 0, 66, 71
2, 81000, Note_on_c, 0, 66, 0
2, 81000, Note_on_c, 0, 57, 0
2, 81000, Note_on_c, 0, 73, 0
2, 81000, Note_on_c, 0, 69, 0
2, 81000, Note_on_c, 0, 61, 0
2, 81000, Note_on_c, 0, 78, 0
2, 81000, Note_on_c, 0, 79, 71
2, 81000, Note_on_c, 0, 70, 90
2, 81000, Note_on_c, 0, 74, 90
2, 81000, Note_on_c, 0, 67, 72
2, 81000, Note_on_c, 0, 58, 32
2, 81000, Note_on_c, 0, 62, 32
2, 81540, Note_on_c, 0, 62, 0
2, 81540, Note_on_c, 0, 70, 0
2, 81540, Note_on_c, 0, 74, 0
2, 81540, Note_on_c, 0, 79, 0
2, 81540, Note_on_c, 0, 58, 0
2, 81540, Note_on_c, 0, 67, 0
2, 81540, Note_on_c, 0, 78, 72
2, 81540, Note_on_c, 0, 69, 70
2, 81540, Note_on_c, 0, 73, 70
2, 81540, Note_on_c, 0, 66, 72
2, 81540, Note_on_c, 0, 57, 22
2, 81540, Note_on_c, 0, 61, 22
2, 81900, Note_on_c, 0, 66, 0
2, 81900, Note_on_c, 0, 78, 0
2, 81900, Note_on_c, 0, 81, 84
2, 81900, Note_on_c, 0, 69, 77
2, 82080, Note_on_c, 0, 69, 0
2, 82080, Note_on_c, 0, 61, 0
2, 82080, Note_on_c, 0, 73, 0
2, 82080, Note_on_c, 0, 69, 0
2, 82080, Note_on_c, 0, 81, 0
2, 82080, Note_on_c, 0, 57, 0
2, 82080, Note_on_c, 0, 77, 63
2, 82080, Note_on_c, 0, 70, 72
2, 82080, Note_on_c, 0, 73, 72
2, 82080, Note_on_c, 0, 65, 62
2, 82080, Note_on_c, 0, 58, 26
2, 82080, Note_on_c, 0, 61, 26
2, 82620, Note_on_c, 0, 65, 0
2, 82620, Note_on_c, 0, 77, 0
2, 82620, Note_on_c, 0, 76, 68
2, 82620, Note_on_c, 0, 64, 67
2, 83160, Note_on_c, 0, 64, 0
2, 83160, Note_on_c, 0, 61, 0
2, 83160, Note_on_c, 0, 73, 0
2, 83160, Note_on_c, 0, 70, 0
2, 83160, Note_on_c, 0, 76, 0
2, 83160, Note_on_c, 0, 58, 0
2, 83160, Note_on_c, 0, 75, 67
2, 83160, Note_on_c, 0, 66, 65
2, 83160, Note_on_c, 0, 70, 65
2, 83160, Note_on_c, 0, 63, 75
2, 83160, Note_on_c, 0, 54, 27
2, 83160, Note_on_c, 0, 58, 27
2, 83700, Note_on_c, 0, 58, 0
2, 83700, Note_on_c, 0, 66, 0
2, 83700, Note_on_c, 0, 70, 0
2, 83700, Note_on_c, 0, 75, 0
2, 83700, Note_on_c, 0, 54, 0
2, 83700, Note_on_c, 0, 63, 0
2, 83700, Note_on_c, 0, 74, 66
2, 83700, Note_on_c, 0, 65, 70
2, 83700, Note_on_c, 0, 69, 70
2, 83700, Note_on_c, 0, 62, 67
2, 83700, Note_on_c, 0, 53, 23
2, 83700, Note_on_c, 0, 57, 23
2, 84060, Note_on_c, 0, 62, 0
2, 84060, Note_on_c, 0, 74, 0
2, 84060, Note_on_c, 0, 77, 78
2, 84060, Note_on_c, 0, 65, 84
2, 84240, Note_on_c, 0, 65, 0
2, 84240, Note_on_c, 0, 57, 0
2, 84240, Note_on_c, 0, 69, 0
2, 84240, Note_on_c, 0, 65, 0
2, 84240, Note_on_c, 0, 77, 0
2, 84240, Note_on_c, 0, 53, 0
2, 84240, Note_on_c, 0, 73, 66
2, 84240, Note_on_c, 0, 66, 70
2, 84240, Note_on_c, 0, 69, 70
2, 84240, Note_on_c, 0, 61, 66
2, 84240, Note_on_c, 0, 54, 22
2, 84240, Note_on_c, 0, 57, 22
2, 84780, Note_on_c, 0, 61, 0
2, 84780, Note_on_c, 0, 73, 0
2, 84780, Note_on_c, 0, 72, 65
2, 84780, Note_on_c, 0, 62, 80
2, 85320, Note_on_c, 0, 62, 0
2, 85320, Note_on_c, 0, 57, 0
2, 85320, Note_on_c, 0, 69, 0
2, 85320, Note_on_c, 0, 66, 0
2, 85320, Note_on_c, 0, 72, 0
2, 85320, Note_on_c, 0, 54, 0
2, 85320, Note_on_c, 0, 71, 72
2, 85320, Note_on_c, 0, 66, 80
2, 85320, Note_on_c, 0, 62, 31
2, 85500, Note_on_c, 0, 62, 0
2, 85500, Note_on_c, 0, 63, 28
2, 85680, Note_on_c, 0, 63, 0
2, 85680, Note_on_c, 0, 62, 22
2, 85860, Note_on_c, 0, 62, 0
2, 85860, Note_on_c, 0, 71, 0
2, 85860, Note_on_c, 0, 70, 71
2, 85860, Note_on_c, 0, 63, 27
2, 86040, Note_on_c, 0, 70, 0
2, 86040, Note_on_c, 0, 71, 76
2, 86220, Note_on_c, 0, 71, 0
2, 86220, Note_on_c, 0, 70, 68
2, 86400, Note_on_c, 0, 70, 0
2, 86400, Note_on_c, 0, 63, 0
2, 86400, Note_on_c, 0, 66, 0
2, 86400, Note_on_c, 0, 69, 65
2, 86400, Note_on_c, 0, 66, 80
2, 86400, Note_on_c, 0, 61, 25
2, 86940, Note_on_c, 0, 61, 0
2, 86940, Note_on_c, 0, 66, 0
2, 86940, Note_on_c, 0, 69, 0
2, 86940, Note_on_c, 0, 68, 73
2, 86940, Note_on_c, 0, 63, 62
2, 86940, Note_on_c, 0, 60, 21
2, 87300, Note_on_c, 0, 60, 0
2, 87300, Note_on_c, 0, 68, 0
2, 87300, Note_on_c, 0, 67, 56
2, 87300, Note_on_c, 0, 61, 27
2, 87480, Note_on_c, 0, 61, 0
2, 87480, Note_on_c, 0, 67, 0
2, 87480, Note_on_c, 0, 63, 0
2, 87480, Note_on_c, 0, 66, 40
2, 87539, Note_on_c, 0, 60, 41
2, 87600, Note_on_c, 0, 60, 0
2, 87600, Note_on_c, 0, 61, 46
2, 87660, Note_on_c, 0, 61, 0
2, 87660, Note_on_c, 0, 66, 0
2, 87660, Note_on_c, 0, 62, 51
2, 87719, Note_on_c, 0, 62, 0
2, 87719, Note_on_c, 0, 64, 53
2, 87780, Note_on_c, 0, 64, 0
2, 87780, Note_on_c, 0, 65, 51
2, 87840, Note_on_c, 0, 65, 0
2, 87840, Note_on_c, 0, 66, 49
2, 87899, Note_on_c, 0, 66, 0
2, 87899, Note_on_c, 0, 67, 48
2, 87960, Note_on_c, 0, 67, 0
2, 87960, Note_on_c, 0, 69, 53
2, 88020, Note_on_c, 0, 69, 0
2, 88020, Note_on_c, 0, 70, 48
2, 88079, Note_on_c, 0, 70, 0
2, 88079, Note_on_c, 0, 72, 49
2, 88140, Note_on_c, 0, 72, 0
2, 88140, Note_on_c, 0, 70, 50
2, 88200, Note_on_c, 0, 70, 0
2, 88200, Note_on_c, 0, 72, 51
2, 88259, Note_on_c, 0, 72, 0
2, 88259, Note_on_c, 0, 70, 52
2, 88320, Note_on_c, 0, 70, 0
2, 88320, Note_on_c, 0, 72, 53
2, 88380, Note_on_c, 0, 72, 0
2, 88380, Note_on_c, 0, 70, 54
2, 88425, Note_on_c, 0, 70, 0
2, 88425, Note_on_c, 0, 72, 54
2, 88470, Note_on_c, 0, 72, 0
2, 88470, Note_on_c, 0, 70, 55
2, 88515, Note_on_c, 0, 70, 0
2, 88515, Note_on_c, 0, 71, 56
2, 88560, Note_on_c, 0, 71, 0
2, 88560, Note_on_c, 0, 72, 57
2, 88619, Note_on_c, 0, 72, 0
2, 88619, Note_on_c, 0, 74, 58
2, 88680, Note_on_c, 0, 74, 0
2, 88680, Note_on_c, 0, 72, 59
2, 88740, Note_on_c, 0, 72, 0
2, 88740, Note_on_c, 0, 74, 60
2, 88799, Note_on_c, 0, 74, 0
2, 88799, Note_on_c, 0, 72, 60
2, 88860, Note_on_c, 0, 72, 0
2, 88860, Note_on_c, 0, 74, 61
2, 88920, Note_on_c, 0, 74, 0
2, 88920, Note_on_c, 0, 72, 62
2, 88965, Note_on_c, 0, 72, 0
2, 88965, Note_on_c, 0, 74, 63
2, 89010, Note_on_c, 0, 74, 0
2, 89010, Note_on_c, 0, 72, 64
2, 89055, Note_on_c, 0, 72, 0
2, 89055, Note_on_c, 0, 73, 65
2, 89100, Note_on_c, 0, 73, 0
2, 89100, Note_on_c, 0, 74, 65
2, 89159, Note_on_c, 0, 74, 0
2, 89159, Note_on_c, 0, 75, 66
2, 89220, Note_on_c, 0, 75, 0
2, 89220, Note_on_c, 0, 74, 67
2, 89280, Note_on_c, 0, 74, 0
2, 89280, Note_on_c, 0, 75, 68
2, 89339, Note_on_c, 0, 75, 0
2, 89339, Note_on_c, 0, 74, 69
2, 89400, Note_on_c, 0, 74, 0
2, 89400, Note_on_c, 0, 75, 70
2, 89460, Note_on_c, 0, 75, 0
2, 89460, Note_on_c, 0, 74, 71
2, 89505, Note_on_c, 0, 74, 0
2, 89505, Note_on_c, 0, 75, 72
2, 89550, Note_on_c, 0, 75, 0
2, 89550, Note_on_c, 0, 74, 73
2, 89595, Note_on_c, 0, 74, 0
2, 89595, Note_on_c, 0, 75, 73
2, 89640, Note_on_c, 0, 75, 0
2, 89640, Note_on_c, 0, 74, 97
2, 89820, Note_on_c, 0, 74, 0
2, 89820, Note_on_c, 0, 75, 82
2, 89879, Note_on_c, 0, 75, 0
2, 89879, Note_on_c, 0, 74, 71
2, 89940, Note_on_c, 0, 74, 0
2, 89940, Note_on_c, 0, 75, 77
2, 90000, Note_on_c, 0, 75, 0
2, 90000, Note_on_c, 0, 74, 69
2, 90045, Note_on_c, 0, 74, 0
2, 90045, Note_on_c, 0, 75, 78
2, 90090, Note_on_c, 0, 75, 0
2, 90090, Note_on_c, 0, 74, 70
2, 90135, Note_on_c, 0, 74, 0
2, 90135, Note_on_c, 0, 75, 73
2, 90180, Note_on_c, 0, 75, 0
2, 90180, Note_on_c, 0, 36, 67
2, 90180, Note_on_c, 0, 48, 67
2, 90229, Note_on_c, 0, 74, 85
2, 90269, Note_on_c, 0, 74, 0
2, 90276, Note_on_c, 0, 75, 73
2, 90312, Note_on_c, 0, 75, 0
2, 90321, Note_on_c, 0, 74, 87
2, 90356, Note_on_c, 0, 74, 0
2, 90359, Note_on_c, 0, 48, 0
2, 90359, Note_on_c, 0, 36, 0
2, 90364, Note_on_c, 0, 75, 84
2, 90398, Note_on_c, 0, 75, 0
2, 90407, Note_on_c, 0, 74, 87
2, 90440, Note_on_c, 0, 74, 0
2, 90447, Note_on_c, 0, 75, 77
2, 90480, Note_on_c, 0, 75, 0
2, 90487, Note_on_c, 0, 74, 85
2, 90518, Note_on_c, 0, 74, 0
2, 90527, Note_on_c, 0, 75, 78
2, 90560, Note_on_c, 0, 75, 0
2, 90571, Note_on_c, 0, 74, 84
2, 90605, Note_on_c, 0, 74, 0
2, 90616, Note_on_c, 0, 75, 81
2, 90651, Note_on_c, 0, 75, 0
2, 90662, Note_on_c, 0, 74, 86
2, 90699, Note_on_c, 0, 74, 0
2, 90710, Note_on_c, 0, 75, 81
2, 90720, Note_on_c, 0, 75, 0
2, 90720, Note_on_c, 0, 35, 64
2, 90720, Note_on_c, 0, 47, 64
2, 90769, Note_on_c, 0, 74, 86
2, 90809, Note_on_c, 0, 74, 0
2, 90816, Note_on_c, 0, 75, 84
2, 90852, Note_on_c, 0, 75, 0
2, 90861, Note_on_c, 0, 74, 83
2, 90896, Note_on_c, 0, 74, 0
2, 90899, Note_on_c, 0, 47, 0
2, 90899, Note_on_c, 0, 35, 0
2, 90904, Note_on_c, 0, 75, 82
2, 90938, Note_on_c, 0, 75, 0
2, 90947, Note_on_c, 0, 74, 80
2, 90980, Note_on_c, 0, 74, 0
2, 90987, Note_on_c, 0, 75, 79
2, 91020, Note_on_c, 0, 75, 0
2, 91027, Note_on_c, 0, 74, 78
2, 91058, Note_on_c, 0, 74, 0
2, 91067, Note_on_c, 0, 75, 77
2, 91100, Note_on_c, 0, 75, 0
2, 91111, Note_on_c, 0, 74, 75
2, 91145, Note_on_c, 0, 74, 0
2, 91156, Note_on_c, 0, 75, 74
2, 91191, Note_on_c, 0, 75, 0
2, 91202, Note_on_c, 0, 74, 73
2, 91239, Note_on_c, 0, 74, 0
2, 91250, Note_on_c, 0, 75, 71
2, 91260, Note_on_c, 0, 74, 71
2, 91260, Note_on_c, 0, 34, 66
2, 91260, Note_on_c, 0, 46, 66
2, 91288, Note_on_c, 0, 75, 0
2, 91439, Note_on_c, 0, 46, 0
2, 91439, Note_on_c, 0, 34, 0
2, 91440, Note_on_c, 0, 74, 0
2, 91620, Note_on_c, 0, 62, 93
2, 91778, Note_on_c, 0, 62, 0
2, 91800, Note_on_c, 0, 63, 89
2, 91800, Note_on_c, 0, 32, 59
2, 91800, Note_on_c, 0, 44, 59
2, 91889, Note_on_c, 0, 44, 0
2, 91889, Note_on_c, 0, 32, 0
2, 91980, Note_on_c, 0, 56, 49
2, 91980, Note_on_c, 0, 59, 49
2, 91980, Note_on_c, 0, 44, 81
2, 91980, Note_on_c, 0, 51, 81
2, 92069, Note_on_c, 0, 51, 0
2, 92069, Note_on_c, 0, 59, 0
2, 92069, Note_on_c, 0, 44, 0
2, 92069, Note_on_c, 0, 56, 0
2, 92160, Note_on_c, 0, 63, 0
2, 92160, Note_on_c, 0, 64, 91
2, 92160, Note_on_c, 0, 59, 52
2, 92160, Note_on_c, 0, 51, 81
2, 92160, Note_on_c, 0, 56, 81
2, 92249, Note_on_c, 0, 56, 0
2, 92249, Note_on_c, 0, 51, 0
2, 92249, Note_on_c, 0, 59, 0
2, 92340, Note_on_c, 0, 64, 0
2, 92340, Note_on_c, 0, 66, 91
2, 92340, Note_on_c, 0, 39, 58
2, 92429, Note_on_c, 0, 39, 0
2, 92520, Note_on_c, 0, 54, 46
2, 92520, Note_on_c, 0, 58, 46
2, 92520, Note_on_c, 0, 46, 78
2, 92520, Note_on_c, 0, 51, 78
2, 92609, Note_on_c, 0, 51, 0
2, 92609, Note_on_c, 0, 46, 0
2, 92700, Note_on_c, 0, 58, 0
2, 92700, Note_on_c, 0, 54, 0
2, 92700, Note_on_c, 0, 58, 55
2, 92700, Note_on_c, 0, 63, 55
2, 92700, Note_on_c, 0, 54, 74
2, 92789, Note_on_c, 0, 54, 0
2, 92789, Note_on_c, 0, 63, 0
2, 92789, Note_on_c, 0, 58, 0
2, 92880, Note_on_c, 0, 42, 65
2, 92969, Note_on_c, 0, 42, 0
2, 93060, Note_on_c, 0, 57, 43
2, 93060, Note_on_c, 0, 61, 43
2, 93060, Note_on_c, 0, 49, 79
2, 93060, Note_on_c, 0, 54, 79
2, 93149, Note_on_c, 0, 54, 0
2, 93149, Note_on_c, 0, 61, 0
2, 93149, Note_on_c, 0, 49, 0
2, 93149, Note_on_c, 0, 57, 0
2, 93240, Note_on_c, 0, 61, 49
2, 93240, Note_on_c, 0, 54, 79
2, 93240, Note_on_c, 0, 57, 79
2, 93329, Note_on_c, 0, 57, 0
2, 93329, Note_on_c, 0, 54, 0
2, 93329, Note_on_c, 0, 61, 0
2, 93420, Note_on_c, 0, 66, 0
2, 93420, Note_on_c, 0, 68, 93
2, 93420, Note_on_c, 0, 37, 65
2, 93420, Note_on_c, 0, 49, 65
2, 93509, Note_on_c, 0, 49, 0
2, 93509, Note_on_c, 0, 37, 0
2, 93600, Note_on_c, 0, 61, 49
2, 93600, Note_on_c, 0, 64, 49
2, 93600, Note_on_c, 0, 52, 79
2, 93600, Note_on_c, 0, 56, 79
2, 93689, Note_on_c, 0, 56, 0
2, 93689, Note_on_c, 0, 64, 0
2, 93689, Note_on_c, 0, 52, 0
2, 93689, Note_on_c, 0, 61, 0
2, 93690, Note_on_c, 0, 68, 0
2, 93690, Note_on_c, 0, 70, 91
2, 93780, Note_on_c, 0, 70, 0
2, 93780, Note_on_c, 0, 71, 92
2, 93780, Note_on_c, 0, 64, 50
2, 93780, Note_on_c, 0, 56, 86
2, 93780, Note_on_c, 0, 61, 86
2, 93869, Note_on_c, 0, 61, 0
2, 93869, Note_on_c, 0, 56, 0
2, 93869, Note_on_c, 0, 64, 0
2, 93960, Note_on_c, 0, 71, 0
2, 93960, Note_on_c, 0, 70, 98
2, 93960, Note_on_c, 0, 34, 68
2, 94049, Note_on_c, 0, 34, 0
2, 94140, Note_on_c, 0, 62, 41
2, 94140, Note_on_c, 0, 68, 41
2, 94140, Note_on_c, 0, 46, 85
2, 94140, Note_on_c, 0, 53, 85
2, 94229, Note_on_c, 0, 53, 0
2, 94229, Note_on_c, 0, 68, 0
2, 94229, Note_on_c, 0, 46, 0
2, 94229, Note_on_c, 0, 62, 0
2, 94320, Note_on_c, 0, 58, 40
2, 94320, Note_on_c, 0, 62, 40
2, 94320, Note_on_c, 0, 53, 77
2, 94320, Note_on_c, 0, 56, 77
2, 94409, Note_on_c, 0, 56, 0
2, 94409, Note_on_c, 0, 62, 0
2, 94409, Note_on_c, 0, 53, 0
2, 94409, Note_on_c, 0, 58, 0
2, 94434, Note_on_c, 0, 70, 0
2, 94500, Note_on_c, 0, 67, 80
2, 94500, Note_on_c, 0, 39, 62
2, 94589, Note_on_c, 0, 39, 0
2, 94680, Note_on_c, 0, 58, 44
2, 94680, Note_on_c, 0, 63, 44
2, 94680, Note_on_c, 0, 51, 80
2, 94680, Note_on_c, 0, 55, 80
2, 94769, Note_on_c, 0, 55, 0
2, 94769, Note_on_c, 0, 63, 0
2, 94769, Note_on_c, 0, 51, 0
2, 94769, Note_on_c, 0, 58, 0
2, 94860, Note_on_c, 0, 63, 46
2, 94860, Note_on_c, 0, 55, 80
2, 94860, Note_on_c, 0, 58, 80
2, 94949, Note_on_c, 0, 58, 0
2, 94949, Note_on_c, 0, 55, 0
2, 94949, Note_on_c, 0, 63, 0
2, 95040, Note_on_c, 0, 52, 23
2, 95220, Note_on_c, 0, 63, 44
2, 95220, Note_on_c, 0, 56, 59
2, 95220, Note_on_c, 0, 59, 59
2, 95309, Note_on_c, 0, 59, 0
2, 95309, Note_on_c, 0, 63, 0
2, 95309, Note_on_c, 0, 56, 0
2, 95400, Note_on_c, 0, 59, 54
2, 95400, Note_on_c, 0, 63, 54
2, 95400, Note_on_c, 0, 56, 67
2, 95489, Note_on_c, 0, 56, 0
2, 95489, Note_on_c, 0, 59, 0
2, 95489, Note_on_c, 0, 63, 0
2, 95580, Note_on_c, 0, 52, 0
2, 95580, Note_on_c, 0, 53, 27
2, 95760, Note_on_c, 0, 67, 0
2, 95760, Note_on_c, 0, 68, 93
2, 95760, Note_on_c, 0, 56, 66
2, 95760, Note_on_c, 0, 59, 66
2, 95760, Note_on_c, 0, 63, 66
2, 95849, Note_on_c, 0, 63, 0
2, 95849, Note_on_c, 0, 56, 0
2, 95849, Note_on_c, 0, 59, 0
2, 95940, Note_on_c, 0, 68, 0
2, 95940, Note_on_c, 0, 71, 98
2, 95940, Note_on_c, 0, 59, 77
2, 95940, Note_on_c, 0, 63, 77
2, 96029, Note_on_c, 0, 63, 0
2, 96029, Note_on_c, 0, 59, 0
2, 96120, Note_on_c, 0, 71, 0
2, 96120, Note_on_c, 0, 53, 0
2, 96120, Note_on_c, 0, 70, 82
2, 96120, Note_on_c, 0, 55, 26
2, 96300, Note_on_c, 0, 70, 0
2, 96300, Note_on_c, 0, 73, 95
2, 96300, Note_on_c, 0, 58, 65
2, 96300, Note_on_c, 0, 61, 65
2, 96300, Note_on_c, 0, 64, 65
2, 96389, Note_on_c, 0, 64, 0
2, 96389, Note_on_c, 0, 58, 0
2, 96389, Note_on_c, 0, 61, 0
2, 96480, Note_on_c, 0, 73, 0
2, 96480, Note_on_c, 0, 76, 101
2, 96480, Note_on_c, 0, 64, 86
2, 96480, Note_on_c, 0, 70, 86
2, 96569, Note_on_c, 0, 70, 0
2, 96569, Note_on_c, 0, 64, 0
2, 96660, Note_on_c, 0, 76, 0
2, 96660, Note_on_c, 0, 55, 0
2, 96660, Note_on_c, 0, 73, 81
2, 96660, Note_on_c, 0, 54, 25
2, 96840, Note_on_c, 0, 57, 64
2, 96840, Note_on_c, 0, 61, 64
2, 96840, Note_on_c, 0, 66, 64
2, 96929, Note_on_c, 0, 66, 0
2, 96929, Note_on_c, 0, 57, 0
2, 96929, Note_on_c, 0, 61, 0
2, 97020, Note_on_c, 0, 66, 76
2, 97020, Note_on_c, 0, 69, 76
2, 97109, Note_on_c, 0, 69, 0
2, 97109, Note_on_c, 0, 66, 0
2, 97200, Note_on_c, 0, 54, 0
2, 97200, Note_on_c, 0, 52, 22
2, 97380, Note_on_c, 0, 73, 0
2, 97380, Note_on_c, 0, 75, 94
2, 97380, Note_on_c, 0, 56, 63
2, 97380, Note_on_c, 0, 61, 63
2, 97380, Note_on_c, 0, 68, 63
2, 97469, Note_on_c, 0, 68, 0
2, 97469, Note_on_c, 0, 56, 0
2, 97469, Note_on_c, 0, 61, 0
2, 97560, Note_on_c, 0, 75, 0
2, 97560, Note_on_c, 0, 78, 96
2, 97560, Note_on_c, 0, 68, 81
2, 97560, Note_on_c, 0, 73, 81
2, 97649, Note_on_c, 0, 73, 0
2, 97649, Note_on_c, 0, 68, 0
2, 97740, Note_on_c, 0, 78, 0
2, 97740, Note_on_c, 0, 52, 0
2, 97740, Note_on_c, 0, 76, 80
2, 97740, Note_on_c, 0, 57, 27
2, 97920, Note_on_c, 0, 61, 65
2, 97920, Note_on_c, 0, 67, 65
2, 98009, Note_on_c, 0, 67, 0
2, 98009, Note_on_c, 0, 61, 0
2, 98100, Note_on_c, 0, 76, 0
2, 98100, Note_on_c, 0, 85, 104
2, 98100, Note_on_c, 0, 73, 45
2, 98100, Note_on_c, 0, 76, 45
2, 98100, Note_on_c, 0, 64, 76
2, 98100, Note_on_c, 0, 67, 76
2, 98189, Note_on_c, 0, 67, 0
2, 98189, Note_on_c, 0, 64, 0
2, 98280, Note_on_c, 0, 73, 0
2, 98280, Note_on_c, 0, 57, 0
2, 98280, Note_on_c, 0, 85, 0
2, 98280, Note_on_c, 0, 76, 0
2, 98280, Note_on_c, 0, 79, 78
2, 98280, Note_on_c, 0, 63, 65
2, 98460, Note_on_c, 0, 63, 0
2, 98460, Note_on_c, 0, 67, 89
2, 98460, Note_on_c, 0, 70, 89
2, 98549, Note_on_c, 0, 70, 0
2, 98549, Note_on_c, 0, 67, 0
2, 98640, Note_on_c, 0, 79, 0
2, 98640, Note_on_c, 0, 82, 99
2, 98640, Note_on_c, 0, 70, 81
2, 98640, Note_on_c, 0, 75, 81
2, 98729, Note_on_c, 0, 75, 0
2, 98729, Note_on_c, 0, 70, 0
2, 98820, Note_on_c, 0, 82, 0
2, 98820, Note_on_c, 0, 75, 75
2, 98820, Note_on_c, 0, 61, 52
2, 99000, Note_on_c, 0, 61, 0
2, 99000, Note_on_c, 0, 63, 86
2, 99000, Note_on_c, 0, 67, 86
2, 99000, Note_on_c, 0, 70, 86
2, 99089, Note_on_c, 0, 70, 0
2, 99089, Note_on_c, 0, 67, 0
2, 99089, Note_on_c, 0, 63, 0
2, 99180, Note_on_c, 0, 67, 73
2, 99180, Note_on_c, 0, 70, 73
2, 99269, Note_on_c, 0, 70, 0
2, 99269, Note_on_c, 0, 67, 0
2, 99360, Note_on_c, 0, 59, 61
2, 99449, Note_on_c, 0, 59, 0
2, 99540, Note_on_c, 0, 63, 42
2, 99540, Note_on_c, 0, 67, 42
2, 99540, Note_on_c, 0, 71, 42
2, 99540, Note_on_c, 0, 61, 75
2, 99629, Note_on_c, 0, 61, 0
2, 99629, Note_on_c, 0, 67, 0
2, 99629, Note_on_c, 0, 71, 0
2, 99629, Note_on_c, 0, 63, 0
2, 99720, Note_on_c, 0, 67, 61
2, 99720, Note_on_c, 0, 71, 61
2, 99720, Note_on_c, 0, 75, 61
2, 99720, Note_on_c, 0, 59, 72
2, 99809, Note_on_c, 0, 59, 0
2, 99809, Note_on_c, 0, 75, 0
2, 99809, Note_on_c, 0, 71, 0
2, 99809, Note_on_c, 0, 67, 0
2, 99900, Note_on_c, 0, 75, 0
2, 99900, Note_on_c, 0, 75, 103
2, 99900, Note_on_c, 0, 58, 73
2, 99989, Note_on_c, 0, 58, 0
2, 100080, Note_on_c, 0, 63, 45
2, 100080, Note_on_c, 0, 70, 45
2, 100080, Note_on_c, 0, 73, 45
2, 100080, Note_on_c, 0, 56, 70
2, 100169, Note_on_c, 0, 56, 0
2, 100260, Note_on_c, 0, 70, 0
2, 100260, Note_on_c, 0, 73, 0
2, 100260, Note_on_c, 0, 63, 0
2, 100260, Note_on_c, 0, 70, 54
2, 100260, Note_on_c, 0, 73, 54
2, 100260, Note_on_c, 0, 75, 54
2, 100260, Note_on_c, 0, 55, 67
2, 100349, Note_on_c, 0, 55, 0
2, 100374, Note_on_c, 0, 75, 0
2, 100440, Note_on_c, 0, 70, 0
2, 100440, Note_on_c, 0, 73, 0
2, 100440, Note_on_c, 0, 75, 0
2, 100440, Note_on_c, 0, 80, 101
2, 100440, Note_on_c, 0, 83, 101
2, 100440, Note_on_c, 0, 32, 60
2, 100440, Note_on_c, 0, 44, 60
2, 100620, Note_on_c, 0, 44, 0
2, 100620, Note_on_c, 0, 32, 0
2, 100620, Note_on_c, 0, 59, 44
2, 100620, Note_on_c, 0, 63, 44
2, 100620, Note_on_c, 0, 51, 83
2, 100620, Note_on_c, 0, 56, 83
2, 100709, Note_on_c, 0, 56, 0
2, 100709, Note_on_c, 0, 63, 0
2, 100709, Note_on_c, 0, 59, 0
2, 100709, Note_on_c, 0, 51, 0
2, 100800, Note_on_c, 0, 68, 62
2, 100800, Note_on_c, 0, 71, 62
2, 100800, Note_on_c, 0, 59, 92
2, 100800, Note_on_c, 0, 63, 92
2, 100889, Note_on_c, 0, 63, 0
2, 100889, Note_on_c, 0, 71, 0
2, 100889, Note_on_c, 0, 68, 0
2, 100889, Note_on_c, 0, 59, 0
2, 100914, Note_on_c, 0, 83, 0
2, 100914, Note_on_c, 0, 80, 0
2, 100980, Note_on_c, 0, 79, 69
2, 100980, Note_on_c, 0, 82, 69
2, 100980, Note_on_c, 0, 35, 66
2, 100980, Note_on_c, 0, 47, 66
2, 101160, Note_on_c, 0, 47, 0
2, 101160, Note_on_c, 0, 79, 0
2, 101160, Note_on_c, 0, 82, 0
2, 101160, Note_on_c, 0, 35, 0
2, 101160, Note_on_c, 0, 75, 70
2, 101160, Note_on_c, 0, 79, 70
2, 101160, Note_on_c, 0, 55, 97
2, 101160, Note_on_c, 0, 58, 97
2, 101160, Note_on_c, 0, 63, 97
2, 101249, Note_on_c, 0, 63, 0
2, 101249, Note_on_c, 0, 55, 0
2, 101249, Note_on_c, 0, 58, 0
2, 101340, Note_on_c, 0, 79, 0
2, 101340, Note_on_c, 0, 75, 0
2, 101340, Note_on_c, 0, 78, 77
2, 101340, Note_on_c, 0, 81, 77
2, 101340, Note_on_c, 0, 54, 74
2, 101340, Note_on_c, 0, 57, 74
2, 101340, Note_on_c, 0, 63, 74
2, 101429, Note_on_c, 0, 63, 0
2, 101429, Note_on_c, 0, 54, 0
2, 101429, Note_on_c, 0, 57, 0
2, 101520, Note_on_c, 0, 81, 0
2, 101520, Note_on_c, 0, 78, 0
2, 101520, Note_on_c, 0, 71, 61
2, 101520, Note_on_c, 0, 75, 61
2, 101520, Note_on_c, 0, 40, 64
2, 101520, Note_on_c, 0, 47, 64
2, 101700, Note_on_c, 0, 47, 0
2, 101700, Note_on_c, 0, 40, 0
2, 101700, Note_on_c, 0, 63, 47
2, 101700, Note_on_c, 0, 68, 47
2, 101700, Note_on_c, 0, 56, 83
2, 101700, Note_on_c, 0, 59, 83
2, 101789, Note_on_c, 0, 59, 0
2, 101789, Note_on_c, 0, 56, 0
2, 101880, Note_on_c, 0, 63, 0
2, 101880, Note_on_c, 0, 71, 0
2, 101880, Note_on_c, 0, 75, 0
2, 101880, Note_on_c, 0, 68, 0
2, 101880, Note_on_c, 0, 73, 75
2, 101880, Note_on_c, 0, 76, 75
2, 101880, Note_on_c, 0, 64, 53
2, 101880, Note_on_c, 0, 68, 53
2, 101880, Note_on_c, 0, 58, 82
2, 101880, Note_on_c, 0, 61, 82
2, 101969, Note_on_c, 0, 61, 0
2, 101969, Note_on_c, 0, 58, 0
2, 102060, Note_on_c, 0, 64, 0
2, 102060, Note_on_c, 0, 73, 0
2, 102060, Note_on_c, 0, 76, 0
2, 102060, Note_on_c, 0, 68, 0
2, 102060, Note_on_c, 0, 75, 80
2, 102060, Note_on_c, 0, 78, 80
2, 102060, Note_on_c, 0, 39, 63
2, 102060, Note_on_c, 0, 46, 63
2, 102149, Note_on_c, 0, 46, 0
2, 102149, Note_on_c, 0, 39, 0
2, 102240, Note_on_c, 0, 54, 93
2, 102240, Note_on_c, 0, 58, 93
2, 102240, Note_on_c, 0, 63, 93
2, 102329, Note_on_c, 0, 63, 0
2, 102329, Note_on_c, 0, 54, 0
2, 102329, Note_on_c, 0, 58, 0
2, 102420, Note_on_c, 0, 66, 93
2, 102420, Note_on_c, 0, 70, 93
2, 102509, Note_on_c, 0, 70, 0
2, 102509, Note_on_c, 0, 66, 0
2, 102600, Note_on_c, 0, 47, 65
2, 102600, Note_on_c, 0, 54, 65
2, 102689, Note_on_c, 0, 54, 0
2, 102689, Note_on_c, 0, 47, 0
2, 102780, Note_on_c, 0, 57, 94
2, 102780, Note_on_c, 0, 63, 94
2, 102780, Note_on_c, 0, 66, 94
2, 102869, Note_on_c, 0, 66, 0
2, 102869, Note_on_c, 0, 57, 0
2, 102869, Note_on_c, 0, 63, 0
2, 102960, Note_on_c, 0, 63, 87
2, 102960, Note_on_c, 0, 66, 87
2, 102960, Note_on_c, 0, 69, 87
2, 103049, Note_on_c, 0, 69, 0
2, 103049, Note_on_c, 0, 63, 0
2, 103049, Note_on_c, 0, 66, 0
2, 103140, Note_on_c, 0, 78, 0
2, 103140, Note_on_c, 0, 75, 0
2, 103140, Note_on_c, 0, 76, 80
2, 103140, Note_on_c, 0, 80, 80
2, 103140, Note_on_c, 0, 42, 61
2, 103140, Note_on_c, 0, 49, 61
2, 103320, Note_on_c, 0, 49, 0
2, 103320, Note_on_c, 0, 76, 0
2, 103320, Note_on_c, 0, 80, 0
2, 103320, Note_on_c, 0, 42, 0
2, 103320, Note_on_c, 0, 69, 63
2, 103320, Note_on_c, 0, 73, 63
2, 103320, Note_on_c, 0, 57, 96
2, 103320, Note_on_c, 0, 61, 96
2, 103320, Note_on_c, 0, 64, 96
2, 103409, Note_on_c, 0, 64, 0
2, 103409, Note_on_c, 0, 57, 0
2, 103409, Note_on_c, 0, 61, 0
2, 103500, Note_on_c, 0, 73, 0
2, 103500, Note_on_c, 0, 69, 0
2, 103500, Note_on_c, 0, 73, 80
2, 103500, Note_on_c, 0, 76, 80
2, 103500, Note_on_c, 0, 64, 54
2, 103500, Note_on_c, 0, 68, 54
2, 103500, Note_on_c, 0, 61, 69
2, 103589, Note_on_c, 0, 61, 0
2, 103680, Note_on_c, 0, 64, 0
2, 103680, Note_on_c, 0, 73, 0
2, 103680, Note_on_c, 0, 76, 0
2, 103680, Note_on_c, 0, 68, 0
2, 103680, Note_on_c, 0, 67, 60
2, 103680, Note_on_c, 0, 70, 60
2, 103680, Note_on_c, 0, 39, 62
2, 103680, Note_on_c, 0, 51, 62
2, 103860, Note_on_c, 0, 51, 0
2, 103860, Note_on_c, 0, 39, 0
2, 103860, Note_on_c, 0, 55, 100
2, 103860, Note_on_c, 0, 58, 100
2, 103860, Note_on_c, 0, 63, 100
2, 103949, Note_on_c, 0, 63, 0
2, 103949, Note_on_c, 0, 55, 0
2, 103949, Note_on_c, 0, 58, 0
2, 104040, Note_on_c, 0, 70, 0
2, 104040, Note_on_c, 0, 67, 0
2, 104040, Note_on_c, 0, 73, 78
2, 104040, Note_on_c, 0, 63, 50
2, 104040, Note_on_c, 0, 67, 50
2, 104040, Note_on_c, 0, 58, 70
2, 104129, Note_on_c, 0, 58, 0
2, 104220, Note_on_c, 0, 73, 0
2, 104220, Note_on_c, 0, 63, 0
2, 104220, Note_on_c, 0, 67, 0
2, 104220, Note_on_c, 0, 73, 83
2, 104220, Note_on_c, 0, 76, 83
2, 104220, Note_on_c, 0, 33, 61
2, 104220, Note_on_c, 0, 45, 61
2, 104400, Note_on_c, 0, 45, 0
2, 104400, Note_on_c, 0, 33, 0
2, 104400, Note_on_c, 0, 52, 92
2, 104400, Note_on_c, 0, 57, 92
2, 104400, Note_on_c, 0, 61, 92
2, 104489, Note_on_c, 0, 61, 0
2, 104489, Note_on_c, 0, 52, 0
2, 104489, Note_on_c, 0, 57, 0
2, 104580, Note_on_c, 0, 64, 46
2, 104580, Note_on_c, 0, 57, 80
2, 104580, Note_on_c, 0, 61, 80
2, 104669, Note_on_c, 0, 61, 0
2, 104669, Note_on_c, 0, 64, 0
2, 104669, Note_on_c, 0, 57, 0
2, 104760, Note_on_c, 0, 76, 0
2, 104760, Note_on_c, 0, 73, 0
2, 104760, Note_on_c, 0, 74, 69
2, 104760, Note_on_c, 0, 72, 62
2, 104760, Note_on_c, 0, 34, 60
2, 104760, Note_on_c, 0, 46, 60
2, 104940, Note_on_c, 0, 46, 0
2, 104940, Note_on_c, 0, 34, 0
2, 104940, Note_on_c, 0, 72, 0
2, 104940, Note_on_c, 0, 62, 47
2, 104940, Note_on_c, 0, 68, 47
2, 104940, Note_on_c, 0, 46, 81
2, 104940, Note_on_c, 0, 53, 81
2, 104940, Note_on_c, 0, 56, 81
2, 105029, Note_on_c, 0, 56, 0
2, 105029, Note_on_c, 0, 46, 0
2, 105029, Note_on_c, 0, 53, 0
2, 105120, Note_on_c, 0, 74, 0
2, 105120, Note_on_c, 0, 68, 0
2, 105120, Note_on_c, 0, 62, 0
2, 105120, Note_on_c, 0, 75, 76
2, 105120, Note_on_c, 0, 61, 44
2, 105120, Note_on_c, 0, 67, 44
2, 105120, Note_on_c, 0, 51, 67
2, 105209, Note_on_c, 0, 51, 0
2, 105300, Note_on_c, 0, 75, 0
2, 105300, Note_on_c, 0, 61, 0
2, 105300, Note_on_c, 0, 67, 0
2, 105300, Note_on_c, 0, 68, 58
2, 105300, Note_on_c, 0, 71, 58
2, 105300, Note_on_c, 0, 32, 67
2, 105300, Note_on_c, 0, 44, 67
2, 105480, Note_on_c, 0, 44, 0
2, 105480, Note_on_c, 0, 32, 0
2, 105480, Note_on_c, 0, 51, 80
2, 105480, Note_on_c, 0, 56, 80
2, 105480, Note_on_c, 0, 59, 80
2, 105569, Note_on_c, 0, 59, 0
2, 105569, Note_on_c, 0, 51, 0
2, 105569, Note_on_c, 0, 56, 0
2, 105660, Note_on_c, 0, 63, 38
2, 105660, Note_on_c, 0, 56, 70
2, 105660, Note_on_c, 0, 59, 70
2, 105749, Note_on_c, 0, 59, 0
2, 105749, Note_on_c, 0, 63, 0
2, 105749, Note_on_c, 0, 56, 0
2, 105840, Note_on_c, 0, 71, 0
2, 105840, Note_on_c, 0, 68, 0
2, 105840, Note_on_c, 0, 68, 65
2, 105840, Note_on_c, 0, 37, 59
2, 105840, Note_on_c, 0, 49, 59
2, 106020, Note_on_c, 0, 49, 0
2, 106020, Note_on_c, 0, 37, 0
2, 106020, Note_on_c, 0, 56, 37
2, 106020, Note_on_c, 0, 59, 37
2, 106020, Note_on_c, 0, 66, 37
2, 106109, Note_on_c, 0, 66, 0
2, 106109, Note_on_c, 0, 59, 0
2, 106109, Note_on_c, 0, 56, 0
2, 106200, Note_on_c, 0, 56, 46
2, 106200, Note_on_c, 0, 59, 46
2, 106200, Note_on_c, 0, 66, 46
2, 106289, Note_on_c, 0, 66, 0
2, 106289, Note_on_c, 0, 59, 0
2, 106289, Note_on_c, 0, 56, 0
2, 106380, Note_on_c, 0, 35, 66
2, 106380, Note_on_c, 0, 47, 66
2, 106560, Note_on_c, 0, 47, 0
2, 106560, Note_on_c, 0, 35, 0
2, 106560, Note_on_c, 0, 56, 47
2, 106560, Note_on_c, 0, 63, 47
2, 106560, Note_on_c, 0, 65, 47
2, 106649, Note_on_c, 0, 65, 0
2, 106649, Note_on_c, 0, 63, 0
2, 106649, Note_on_c, 0, 56, 0
2, 106740, Note_on_c, 0, 56, 49
2, 106740, Note_on_c, 0, 63, 49
2, 106740, Note_on_c, 0, 65, 49
2, 106829, Note_on_c, 0, 65, 0
2, 106829, Note_on_c, 0, 63, 0
2, 106829, Note_on_c, 0, 56, 0
2, 106920, Note_on_c, 0, 34, 62
2, 106920, Note_on_c, 0, 46, 62
2, 107100, Note_on_c, 0, 46, 0
2, 107100, Note_on_c, 0, 34, 0
2, 107100, Note_on_c, 0, 56, 45
2, 107100, Note_on_c, 0, 61, 45
2, 107100, Note_on_c, 0, 64, 45
2, 107189, Note_on_c, 0, 64, 0
2, 107189, Note_on_c, 0, 61, 0
2, 107189, Note_on_c, 0, 56, 0
2, 107280, Note_on_c, 0, 56, 51
2, 107280, Note_on_c, 0, 61, 51
2, 107280, Note_on_c, 0, 64, 51
2, 107369, Note_on_c, 0, 64, 0
2, 107369, Note_on_c, 0, 61, 0
2, 107369, Note_on_c, 0, 56, 0
2, 107460, Note_on_c, 0, 32, 51
2, 107460, Note_on_c, 0, 44, 51
2, 107640, Note_on_c, 0, 44, 0
2, 107640, Note_on_c, 0, 32, 0
2, 107640, Note_on_c, 0, 51, 70
2, 107640, Note_on_c, 0, 56, 70
2, 107640, Note_on_c, 0, 59, 70
2, 107729, Note_on_c, 0, 59, 0
2, 107729, Note_on_c, 0, 56, 0
2, 107729, Note_on_c, 0, 51, 0
2, 107820, Note_on_c, 0, 56, 66
2, 107820, Note_on_c, 0, 59, 66
2, 107820, Note_on_c, 0, 63, 66
2, 107909, Note_on_c, 0, 63, 0
2, 107909, Note_on_c, 0, 59, 0
2, 107909, Note_on_c, 0, 56, 0
2, 108180, Note_on_c, 0, 68, 0
2, 108540, Note_on_c, 0, 32, 49
2, 108540, Note_on_c, 0, 44, 49
2, 108720, Note_on_c, 0, 44, 0
2, 108720, Note_on_c, 0, 32, 0
2, 108720, Note_on_c, 0, 51, 73
2, 108720, Note_on_c, 0, 56, 73
2, 108720, Note_on_c, 0, 59, 73
2, 108809, Note_on_c, 0, 59, 0
2, 108809, Note_on_c, 0, 56, 0
2, 108809, Note_on_c, 0, 51, 0
2, 108900, Note_on_c, 0, 56, 61
2, 108900, Note_on_c, 0, 59, 61
2, 108900, Note_on_c, 0, 63, 61
2, 108989, Note_on_c, 0, 63, 0
2, 108989, Note_on_c, 0, 59, 0
2, 108989, Note_on_c, 0, 56, 0
2, 110160, Note_on_c, 0, 32, 34
2, 110160, Note_on_c, 0, 44, 34
2, 110249, Note_on_c, 0, 44, 0
2, 110249, Note_on_c, 0, 32, 0
2, 110340, Note_on_c, 0, 51, 52
2, 110340, Note_on_c, 0, 56, 52
2, 110340, Note_on_c, 0, 59, 52
2, 110429, Note_on_c, 0, 59, 0
2, 110429, Note_on_c, 0, 56, 0
2, 110429, Note_on_c, 0, 51, 0
2, 110520, Note_on_c, 0, 56, 47
2, 110520, Note_on_c, 0, 59, 47
2, 110520, Note_on_c, 0, 63, 47
2, 110609, Note_on_c, 0, 63, 0
2, 110609, Note_on_c, 0, 59, 0
2, 110609, Note_on_c, 0, 56, 0
2, 110880, Note_on_c, 0, 59, 31
2, 110880, Note_on_c, 0, 56, 54
2, 110970, Note_on_c, 0, 56, 0
2, 110970, Note_on_c, 0, 59, 0
2, 110970, Note_on_c, 0, 61, 42
2, 110970, Note_on_c, 0, 58, 60
2, 111060, Note_on_c, 0, 58, 0
2, 111060, Note_on_c, 0, 61, 0
2, 111060, Note_on_c, 0, 63, 38
2, 111060, Note_on_c, 0, 59, 60
2, 111150, Note_on_c, 0, 59, 0
2, 111150, Note_on_c, 0, 63, 0
2, 111150, Note_on_c, 0, 64, 41
2, 111150, Note_on_c, 0, 61, 66
2, 111240, Note_on_c, 0, 61, 0
2, 111240, Note_on_c, 0, 64, 0
2, 111240, Note_on_c, 0, 63, 41
2, 111240, Note_on_c, 0, 59, 55
2, 111330, Note_on_c, 0, 59, 0
2, 111330, Note_on_c, 0, 63, 0
2, 111330, Note_on_c, 0, 65, 47
2, 111330, Note_on_c, 0, 61, 67
2, 111420, Note_on_c, 0, 61, 0
2, 111420, Note_on_c, 0, 65, 0
2, 111420, Note_on_c, 0, 67, 43
2, 111420, Note_on_c, 0, 63, 64
2, 111510, Note_on_c, 0, 63, 0
2, 111510, Note_on_c, 0, 67, 0
2, 111510, Note_on_c, 0, 68, 41
2, 111510, Note_on_c, 0, 64, 61
2, 111600, Note_on_c, 0, 64, 0
2, 111600, Note_on_c, 0, 68, 0
2, 111600, Note_on_c, 0, 69, 44
2, 111600, Note_on_c, 0, 66, 67
2, 111690, Note_on_c, 0, 66, 0
2, 111690, Note_on_c, 0, 69, 0
2, 111690, Note_on_c, 0, 70, 43
2, 111690, Note_on_c, 0, 67, 70
2, 111780, Note_on_c, 0, 67, 0
2, 111780, Note_on_c, 0, 70, 0
2, 111780, Note_on_c, 0, 71, 78
2, 111780, Note_on_c, 0, 68, 81
2, 111870, Note_on_c, 0, 68, 0
2, 111870, Note_on_c, 0, 71, 0
2, 111870, Note_on_c, 0, 72, 80
2, 111870, Note_on_c, 0, 69, 76
2, 111960, Note_on_c, 0, 69, 0
2, 111960, Note_on_c, 0, 72, 0
2, 111960, Note_on_c, 0, 74, 95
2, 111960, Note_on_c, 0, 71, 90
2, 112277, Note_on_c, 0, 71, 0
2, 112277, Note_on_c, 0, 74, 0
2, 112500, Note_on_c, 0, 76, 69
2, 112500, Note_on_c, 0, 72, 64
2, 112590, Note_on_c, 0, 72, 0
2, 112590, Note_on_c, 0, 76, 0
2, 112590, Note_on_c, 0, 77, 74
2, 112590, Note_on_c, 0, 74, 75
2, 112680, Note_on_c, 0, 74, 0
2, 112680, Note_on_c, 0, 77, 0
2, 112680, Note_on_c, 0, 79, 92
2, 112680, Note_on_c, 0, 76, 91
2, 112838, Note_on_c, 0, 76, 0
2, 112838, Note_on_c, 0, 79, 0
2, 112860, Note_on_c, 0, 71, 56
2, 112860, Note_on_c, 0, 68, 56
2, 112950, Note_on_c, 0, 68, 0
2, 112950, Note_on_c, 0, 71, 0
2, 112950, Note_on_c, 0, 72, 73
2, 112950, Note_on_c, 0, 69, 78
2, 113040, Note_on_c, 0, 69, 0
2, 113040, Note_on_c, 0, 72, 0
2, 113040, Note_on_c, 0, 74, 90
2, 113040, Note_on_c, 0, 71, 88
2, 113357, Note_on_c, 0, 71, 0
2, 113357, Note_on_c, 0, 74, 0
2, 113580, Note_on_c, 0, 76, 66
2, 113580, Note_on_c, 0, 72, 62
2, 113670, Note_on_c, 0, 72, 0
2, 113670, Note_on_c, 0, 76, 0
2, 113670, Note_on_c, 0, 77, 75
2, 113670, Note_on_c, 0, 74, 76
2, 113760, Note_on_c, 0, 74, 0
2, 113760, Note_on_c, 0, 77, 0
2, 113760, Note_on_c, 0, 79, 94
2, 113760, Note_on_c, 0, 76, 93
2, 113918, Note_on_c, 0, 76, 0
2, 113918, Note_on_c, 0, 79, 0
2, 113940, Note_on_c, 0, 71, 35
2, 113940, Note_on_c, 0, 68, 40
2, 114030, Note_on_c, 0, 68, 0
2, 114030, Note_on_c, 0, 71, 0
2, 114030, Note_on_c, 0, 72, 53
2, 114030, Note_on_c, 0, 69, 51
2, 114120, Note_on_c, 0, 69, 0
2, 114120, Note_on_c, 0, 72, 0
2, 114120, Note_on_c, 0, 74, 53
2, 114120, Note_on_c, 0, 71, 56
2, 114209, Note_on_c, 0, 71, 0
2, 114209, Note_on_c, 0, 74, 0
2, 114300, Note_on_c, 0, 76, 50
2, 114300, Note_on_c, 0, 72, 50
2, 114390, Note_on_c, 0, 72, 0
2, 114390, Note_on_c, 0, 76, 0
2, 114390, Note_on_c, 0, 77, 55
2, 114390, Note_on_c, 0, 74, 55
2, 114480, Note_on_c, 0, 74, 0
2, 114480, Note_on_c, 0, 77, 0
2, 114480, Note_on_c, 0, 79, 59
2, 114480, Note_on_c, 0, 76, 59
2, 114569, Note_on_c, 0, 76, 0
2, 114569, Note_on_c, 0, 79, 0
2, 114660, Note_on_c, 0, 80, 67
2, 114660, Note_on_c, 0, 77, 67
2, 114750, Note_on_c, 0, 77, 0
2, 114750, Note_on_c, 0, 80, 0
2, 114750, Note_on_c, 0, 83, 72
2, 114750, Note_on_c, 0, 79, 72
2, 114840, Note_on_c, 0, 79, 0
2, 114840, Note_on_c, 0, 83, 0
2, 114840, Note_on_c, 0, 80, 76
2, 114840, Note_on_c, 0, 84, 76
2, 115020, Note_on_c, 0, 68, 76
2, 115110, Note_on_c, 0, 68, 0
2, 115110, Note_on_c, 0, 71, 71
2, 115200, Note_on_c, 0, 71, 0
2, 115200, Note_on_c, 0, 72, 66
2, 115290, Note_on_c, 0, 84, 0
2, 115290, Note_on_c, 0, 80, 0
2, 115290, Note_on_c, 0, 77, 41
2, 115290, Note_on_c, 0, 80, 41
2, 115380, Note_on_c, 0, 80, 0
2, 115380, Note_on_c, 0, 77, 0
2, 115380, Note_on_c, 0, 72, 0
2, 115380, Note_on_c, 0, 76, 48
2, 115380, Note_on_c, 0, 79, 48
2, 115380, Note_on_c, 0, 71, 56
2, 115470, Note_on_c, 0, 71, 0
2, 115470, Note_on_c, 0, 79, 0
2, 115470, Note_on_c, 0, 76, 0
2, 115470, Note_on_c, 0, 75, 47
2, 115470, Note_on_c, 0, 78, 47
2, 115470, Note_on_c, 0, 70, 51
2, 115560, Note_on_c, 0, 70, 0
2, 115560, Note_on_c, 0, 78, 0
2, 115560, Note_on_c, 0, 75, 0
2, 115560, Note_on_c, 0, 71, 55
2, 115560, Note_on_c, 0, 76, 55
2, 115560, Note_on_c, 0, 79, 55
2, 115740, Note_on_c, 0, 55, 34
2, 115740, Note_on_c, 0, 59, 34
2, 115830, Note_on_c, 0, 59, 0
2, 115830, Note_on_c, 0, 55, 0
2, 115830, Note_on_c, 0, 64, 48
2, 115920, Note_on_c, 0, 64, 0
2, 115920, Note_on_c, 0, 64, 44
2, 115920, Note_on_c, 0, 59, 34
2, 116009, Note_on_c, 0, 59, 0
2, 116010, Note_on_c, 0, 64, 0
2, 116010, Note_on_c, 0, 67, 56
2, 116100, Note_on_c, 0, 67, 0
2, 116100, Note_on_c, 0, 67, 52
2, 116100, Note_on_c, 0, 64, 49
2, 116189, Note_on_c, 0, 64, 0
2, 116190, Note_on_c, 0, 67, 0
2, 116190, Note_on_c, 0, 71, 60
2, 116280, Note_on_c, 0, 71, 0
2, 116280, Note_on_c, 0, 79, 0
2, 116280, Note_on_c, 0, 76, 0
2, 116280, Note_on_c, 0, 71, 0
2, 116280, Note_on_c, 0, 64, 53
2, 116280, Note_on_c, 0, 67, 53
2, 116280, Note_on_c, 0, 71, 53
2, 116369, Note_on_c, 0, 71, 0
2, 116369, Note_on_c, 0, 67, 0
2, 116369, Note_on_c, 0, 64, 0
2, 116460, Note_on_c, 0, 60, 38
2, 116460, Note_on_c, 0, 64, 38
2, 116460, Note_on_c, 0, 48, 33
2, 116460, Note_on_c, 0, 58, 33
2, 116549, Note_on_c, 0, 58, 0
2, 116549, Note_on_c, 0, 60, 0
2, 116549, Note_on_c, 0, 64, 0
2, 116549, Note_on_c, 0, 48, 0
2, 116640, Note_on_c, 0, 41, 33
2, 116729, Note_on_c, 0, 41, 0
2, 116820, Note_on_c, 0, 57, 44
2, 116820, Note_on_c, 0, 60, 44
2, 116820, Note_on_c, 0, 63, 44
2, 116864, Note_on_c, 0, 63, 0
2, 116864, Note_on_c, 0, 60, 0
2, 116864, Note_on_c, 0, 57, 0
2, 116910, Note_on_c, 0, 65, 53
2, 116954, Note_on_c, 0, 65, 0
2, 117000, Note_on_c, 0, 57, 54
2, 117000, Note_on_c, 0, 63, 54
2, 117000, Note_on_c, 0, 66, 54
2, 117089, Note_on_c, 0, 66, 0
2, 117089, Note_on_c, 0, 63, 0
2, 117089, Note_on_c, 0, 57, 0
2, 117180, Note_on_c, 0, 53, 51
2, 117360, Note_on_c, 0, 56, 56
2, 117360, Note_on_c, 0, 61, 56
2, 117360, Note_on_c, 0, 65, 56
2, 117360, Note_on_c, 0, 68, 56
2, 117654, Note_on_c, 0, 53, 0
2, 117677, Note_on_c, 0, 65, 0
2, 117677, Note_on_c, 0, 56, 0
2, 117677, Note_on_c, 0, 61, 0
2, 117677, Note_on_c, 0, 68, 0
2, 117720, Note_on_c, 0, 41, 32
2, 117900, Note_on_c, 0, 41, 0
2, 117900, Note_on_c, 0, 57, 43
2, 117900, Note_on_c, 0, 60, 43
2, 117900, Note_on_c, 0, 63, 43
2, 117944, Note_on_c, 0, 63, 0
2, 117944, Note_on_c, 0, 60, 0
2, 117944, Note_on_c, 0, 57, 0
2, 117990, Note_on_c, 0, 65, 54
2, 118034, Note_on_c, 0, 65, 0
2, 118080, Note_on_c, 0, 63, 52
2, 118080, Note_on_c, 0, 66, 52
2, 118080, Note_on_c, 0, 57, 39
2, 118124, Note_on_c, 0, 66, 0
2, 118124, Note_on_c, 0, 63, 0
2, 118170, Note_on_c, 0, 57, 0
2, 118170, Note_on_c, 0, 65, 47
2, 118170, Note_on_c, 0, 58, 40
2, 118214, Note_on_c, 0, 65, 0
2, 118260, Note_on_c, 0, 58, 0
2, 118260, Note_on_c, 0, 63, 55
2, 118260, Note_on_c, 0, 66, 55
2, 118260, Note_on_c, 0, 49, 57
2, 118260, Note_on_c, 0, 59, 57
2, 118440, Note_on_c, 0, 66, 0
2, 118440, Note_on_c, 0, 63, 0
2, 118440, Note_on_c, 0, 61, 65
2, 118440, Note_on_c, 0, 65, 65
2, 118440, Note_on_c, 0, 68, 65
2, 118734, Note_on_c, 0, 49, 0
2, 118734, Note_on_c, 0, 59, 0
2, 118757, Note_on_c, 0, 65, 0
2, 118757, Note_on_c, 0, 61, 0
2, 118757, Note_on_c, 0, 68, 0
2, 118800, Note_on_c, 0, 41, 50
2, 118889, Note_on_c, 0, 41, 0
2, 118980, Note_on_c, 0, 57, 55
2, 118980, Note_on_c, 0, 63, 55
2, 118980, Note_on_c, 0, 66, 55
2, 119069, Note_on_c, 0, 66, 0
2, 119069, Note_on_c, 0, 63, 0
2, 119069, Note_on_c, 0, 57, 0
2, 119160, Note_on_c, 0, 37, 59
2, 119160, Note_on_c, 0, 49, 59
2, 119249, Note_on_c, 0, 49, 0
2, 119249, Note_on_c, 0, 37, 0
2, 119340, Note_on_c, 0, 59, 63
2, 119340, Note_on_c, 0, 61, 63
2, 119340, Note_on_c, 0, 65, 63
2, 119340, Note_on_c, 0, 68, 63
2, 119429, Note_on_c, 0, 68, 0
2, 119429, Note_on_c, 0, 59, 0
2, 119429, Note_on_c, 0, 61, 0
2, 119429, Note_on_c, 0, 65, 0
2, 119520, Note_on_c, 0, 61, 67
2, 119609, Note_on_c, 0, 61, 0
2, 119700, Note_on_c, 0, 59, 72
2, 119700, Note_on_c, 0, 61, 72
2, 119700, Note_on_c, 0, 65, 72
2, 119700, Note_on_c, 0, 69, 72
2, 119789, Note_on_c, 0, 69, 0
2, 119789, Note_on_c, 0, 59, 0
2, 119789, Note_on_c, 0, 61, 0
2, 119789, Note_on_c, 0, 65, 0
2, 119880, Note_on_c, 0, 42, 36
2, 119880, Note_on_c, 0, 49, 36
2, 119880, Note_on_c, 0, 57, 36
2, 119969, Note_on_c, 0, 57, 0
2, 119969, Note_on_c, 0, 49, 0
2, 119969, Note_on_c, 0, 42, 0
2, 120060, Note_on_c, 0, 57, 70
2, 120060, Note_on_c, 0, 61, 70
2, 120060, Note_on_c, 0, 66, 70
2, 120150, Note_on_c, 0, 66, 0
2, 120150, Note_on_c, 0, 61, 0
2, 120150, Note_on_c, 0, 57, 0
2, 120150, Note_on_c, 0, 69, 86
2, 120240, Note_on_c, 0, 69, 0
2, 120240, Note_on_c, 0, 60, 72
2, 120240, Note_on_c, 0, 64, 72
2, 120240, Note_on_c, 0, 68, 72
2, 120240, Note_on_c, 0, 44, 38
2, 120329, Note_on_c, 0, 44, 0
2, 120420, Note_on_c, 0, 60, 0
2, 120420, Note_on_c, 0, 64, 0
2, 120420, Note_on_c, 0, 68, 0
2, 120420, Note_on_c, 0, 37, 44
2, 120420, Note_on_c, 0, 44, 44
2, 120420, Note_on_c, 0, 53, 44
2, 120600, Note_on_c, 0, 53, 0
2, 120600, Note_on_c, 0, 44, 0
2, 120600, Note_on_c, 0, 37, 0
2, 120600, Note_on_c, 0, 77, 64
2, 120600, Note_on_c, 0, 56, 53
2, 120600, Note_on_c, 0, 61, 53
2, 120600, Note_on_c, 0, 65, 53
2, 120689, Note_on_c, 0, 65, 0
2, 120689, Note_on_c, 0, 61, 0
2, 120689, Note_on_c, 0, 56, 0
2, 120690, Note_on_c, 0, 77, 0
2, 120690, Note_on_c, 0, 75, 71
2, 120780, Note_on_c, 0, 75, 0
2, 120780, Note_on_c, 0, 73, 75
2, 120780, Note_on_c, 0, 77, 75
2, 120780, Note_on_c, 0, 56, 44
2, 120780, Note_on_c, 0, 61, 44
2, 120780, Note_on_c, 0, 65, 44
2, 120869, Note_on_c, 0, 65, 0
2, 120869, Note_on_c, 0, 56, 0
2, 120869, Note_on_c, 0, 61, 0
2, 120870, Note_on_c, 0, 77, 0
2, 120870, Note_on_c, 0, 73, 0
2, 120870, Note_on_c, 0, 75, 78
2, 120870, Note_on_c, 0, 79, 78
2, 120960, Note_on_c, 0, 79, 0
2, 120960, Note_on_c, 0, 75, 0
2, 120960, Note_on_c, 0, 77, 81
2, 120960, Note_on_c, 0, 80, 81
2, 120960, Note_on_c, 0, 39, 33
2, 120960, Note_on_c, 0, 51, 33
2, 121050, Note_on_c, 0, 80, 0
2, 121050, Note_on_c, 0, 77, 0
2, 121050, Note_on_c, 0, 75, 68
2, 121050, Note_on_c, 0, 79, 68
2, 121140, Note_on_c, 0, 79, 0
2, 121140, Note_on_c, 0, 51, 0
2, 121140, Note_on_c, 0, 39, 0
2, 121140, Note_on_c, 0, 75, 0
2, 121140, Note_on_c, 0, 73, 67
2, 121140, Note_on_c, 0, 77, 67
2, 121140, Note_on_c, 0, 65, 52
2, 121140, Note_on_c, 0, 58, 28
2, 121140, Note_on_c, 0, 61, 28
2, 121230, Note_on_c, 0, 65, 0
2, 121230, Note_on_c, 0, 73, 0
2, 121230, Note_on_c, 0, 77, 0
2, 121230, Note_on_c, 0, 72, 68
2, 121230, Note_on_c, 0, 75, 68
2, 121230, Note_on_c, 0, 67, 45
2, 121320, Note_on_c, 0, 67, 0
2, 121320, Note_on_c, 0, 72, 0
2, 121320, Note_on_c, 0, 61, 0
2, 121320, Note_on_c, 0, 58, 0
2, 121320, Note_on_c, 0, 75, 0
2, 121320, Note_on_c, 0, 73, 77
2, 121320, Note_on_c, 0, 77, 77
2, 121320, Note_on_c, 0, 68, 42
2, 121320, Note_on_c, 0, 58, 26
2, 121320, Note_on_c, 0, 61, 26
2, 121410, Note_on_c, 0, 68, 0
2, 121410, Note_on_c, 0, 67, 39
2, 121500, Note_on_c, 0, 67, 0
2, 121500, Note_on_c, 0, 61, 0
2, 121500, Note_on_c, 0, 73, 0
2, 121500, Note_on_c, 0, 77, 0
2, 121500, Note_on_c, 0, 58, 0
2, 121500, Note_on_c, 0, 73, 82
2, 121500, Note_on_c, 0, 76, 82
2, 121500, Note_on_c, 0, 68, 90
2, 121500, Note_on_c, 0, 37, 33
2, 121500, Note_on_c, 0, 49, 33
2, 121680, Note_on_c, 0, 49, 0
2, 121680, Note_on_c, 0, 37, 0
2, 121680, Note_on_c, 0, 56, 55
2, 121680, Note_on_c, 0, 61, 55
2, 121680, Note_on_c, 0, 64, 55
2, 121769, Note_on_c, 0, 64, 0
2, 121769, Note_on_c, 0, 56, 0
2, 121769, Note_on_c, 0, 61, 0
2, 121817, Note_on_c, 0, 68, 0
2, 121817, Note_on_c, 0, 73, 0
2, 121817, Note_on_c, 0, 76, 0
2, 121860, Note_on_c, 0, 70, 65
2, 121860, Note_on_c, 0, 73, 65
2, 121860, Note_on_c, 0, 56, 46
2, 121860, Note_on_c, 0, 61, 46
2, 121860, Note_on_c, 0, 64, 46
2, 121949, Note_on_c, 0, 64, 0
2, 121949, Note_on_c, 0, 56, 0
2, 121949, Note_on_c, 0, 61, 0
2, 121950, Note_on_c, 0, 73, 0
2, 121950, Note_on_c, 0, 70, 0
2, 121950, Note_on_c, 0, 72, 74
2, 121950, Note_on_c, 0, 75, 74
2, 122040, Note_on_c, 0, 75, 0
2, 122040, Note_on_c, 0, 72, 0
2, 122040, Note_on_c, 0, 73, 76
2, 122040, Note_on_c, 0, 76, 76
2, 122040, Note_on_c, 0, 36, 38
2, 122040, Note_on_c, 0, 48, 38
2, 122130, Note_on_c, 0, 76, 0
2, 122130, Note_on_c, 0, 73, 0
2, 122130, Note_on_c, 0, 72, 72
2, 122130, Note_on_c, 0, 75, 72
2, 122220, Note_on_c, 0, 75, 0
2, 122220, Note_on_c, 0, 48, 0
2, 122220, Note_on_c, 0, 36, 0
2, 122220, Note_on_c, 0, 72, 0
2, 122220, Note_on_c, 0, 70, 72
2, 122220, Note_on_c, 0, 73, 72
2, 122220, Note_on_c, 0, 61, 54
2, 122220, Note_on_c, 0, 55, 23
2, 122220, Note_on_c, 0, 58, 23
2, 122310, Note_on_c, 0, 61, 0
2, 122310, Note_on_c, 0, 70, 0
2, 122310, Note_on_c, 0, 73, 0
2, 122310, Note_on_c, 0, 69, 66
2, 122310, Note_on_c, 0, 72, 66
2, 122310, Note_on_c, 0, 63, 46
2, 122400, Note_on_c, 0, 63, 0
2, 122400, Note_on_c, 0, 69, 0
2, 122400, Note_on_c, 0, 58, 0
2, 122400, Note_on_c, 0, 55, 0
2, 122400, Note_on_c, 0, 72, 0
2, 122400, Note_on_c, 0, 70, 76
2, 122400, Note_on_c, 0, 73, 76
2, 122400, Note_on_c, 0, 64, 42
2, 122400, Note_on_c, 0, 55, 27
2, 122400, Note_on_c, 0, 58, 27
2, 122490, Note_on_c, 0, 64, 0
2, 122490, Note_on_c, 0, 65, 62
2, 122580, Note_on_c, 0, 55, 0
2, 122580, Note_on_c, 0, 58, 0
2, 122580, Note_on_c, 0, 34, 31
2, 122580, Note_on_c, 0, 46, 31
2, 122760, Note_on_c, 0, 46, 0
2, 122760, Note_on_c, 0, 34, 0
2, 122760, Note_on_c, 0, 53, 50
2, 122760, Note_on_c, 0, 58, 50
2, 122760, Note_on_c, 0, 61, 50
2, 122849, Note_on_c, 0, 61, 0
2, 122849, Note_on_c, 0, 53, 0
2, 122849, Note_on_c, 0, 58, 0
2, 122940, Note_on_c, 0, 70, 0
2, 122940, Note_on_c, 0, 65, 0
2, 122940, Note_on_c, 0, 73, 0
2, 122940, Note_on_c, 0, 70, 73
2, 122940, Note_on_c, 0, 53, 45
2, 122940, Note_on_c, 0, 58, 45
2, 122940, Note_on_c, 0, 61, 45
2, 123029, Note_on_c, 0, 61, 0
2, 123029, Note_on_c, 0, 58, 0
2, 123029, Note_on_c, 0, 53, 0
2, 123030, Note_on_c, 0, 70, 0
2, 123030, Note_on_c, 0, 68, 70
2, 123030, Note_on_c, 0, 72, 70
2, 123120, Note_on_c, 0, 72, 0
2, 123120, Note_on_c, 0, 68, 0
2, 123120, Note_on_c, 0, 70, 67
2, 123120, Note_on_c, 0, 73, 67
2, 123120, Note_on_c, 0, 32, 35
2, 123120, Note_on_c, 0, 44, 35
2, 123210, Note_on_c, 0, 73, 0
2, 123210, Note_on_c, 0, 70, 0
2, 123210, Note_on_c, 0, 68, 64
2, 123210, Note_on_c, 0, 72, 64
2, 123300, Note_on_c, 0, 72, 0
2, 123300, Note_on_c, 0, 44, 0
2, 123300, Note_on_c, 0, 32, 0
2, 123300, Note_on_c, 0, 68, 0
2, 123300, Note_on_c, 0, 66, 61
2, 123300, Note_on_c, 0, 70, 61
2, 123300, Note_on_c, 0, 58, 40
2, 123300, Note_on_c, 0, 51, 22
2, 123300, Note_on_c, 0, 54, 22
2, 123390, Note_on_c, 0, 58, 0
2, 123390, Note_on_c, 0, 66, 0
2, 123390, Note_on_c, 0, 70, 0
2, 123390, Note_on_c, 0, 65, 57
2, 123390, Note_on_c, 0, 68, 57
2, 123390, Note_on_c, 0, 60, 43
2, 123480, Note_on_c, 0, 60, 0
2, 123480, Note_on_c, 0, 65, 0
2, 123480, Note_on_c, 0, 54, 0
2, 123480, Note_on_c, 0, 51, 0
2, 123480, Note_on_c, 0, 68, 0
2, 123480, Note_on_c, 0, 66, 54
2, 123480, Note_on_c, 0, 70, 54
2, 123480, Note_on_c, 0, 61, 44
2, 123480, Note_on_c, 0, 51, 26
2, 123480, Note_on_c, 0, 54, 26
2, 123570, Note_on_c, 0, 61, 0
2, 123570, Note_on_c, 0, 60, 36
2, 123660, Note_on_c, 0, 60, 0
2, 123660, Note_on_c, 0, 54, 0
2, 123660, Note_on_c, 0, 51, 0
2, 123660, Note_on_c, 0, 61, 39
2, 123660, Note_on_c, 0, 30, 32
2, 123660, Note_on_c, 0, 42, 32
2, 123750, Note_on_c, 0, 70, 0
2, 123750, Note_on_c, 0, 66, 0
2, 123750, Note_on_c, 0, 68, 55
2, 123750, Note_on_c, 0, 72, 55
2, 123840, Note_on_c, 0, 72, 0
2, 123840, Note_on_c, 0, 30, 0
2, 123840, Note_on_c, 0, 42, 0
2, 123840, Note_on_c, 0, 68, 0
2, 123840, Note_on_c, 0, 66, 43
2, 123840, Note_on_c, 0, 70, 43
2, 123840, Note_on_c, 0, 49, 39
2, 123840, Note_on_c, 0, 54, 39
2, 123840, Note_on_c, 0, 58, 39
2, 123929, Note_on_c, 0, 58, 0
2, 123929, Note_on_c, 0, 49, 0
2, 123929, Note_on_c, 0, 54, 0
2, 124020, Note_on_c, 0, 49, 39
2, 124020, Note_on_c, 0, 54, 39
2, 124020, Note_on_c, 0, 58, 39
2, 124109, Note_on_c, 0, 58, 0
2, 124109, Note_on_c, 0, 49, 0
2, 124109, Note_on_c, 0, 54, 0
2, 124110, Note_on_c, 0, 70, 0
2, 124110, Note_on_c, 0, 66, 0
2, 124110, Note_on_c, 0, 68, 54
2, 124110, Note_on_c, 0, 72, 54
2, 124200, Note_on_c, 0, 72, 0
2, 124200, Note_on_c, 0, 68, 0
2, 124200, Note_on_c, 0, 61, 0
2, 124200, Note_on_c, 0, 65, 47
2, 124200, Note_on_c, 0, 69, 47
2, 124200, Note_on_c, 0, 51, 42
2, 124200, Note_on_c, 0, 61, 42
2, 124200, Note_on_c, 0, 57, 23
2, 124560, Note_on_c, 0, 57, 0
2, 124560, Note_on_c, 0, 65, 0
2, 124560, Note_on_c, 0, 69, 0
2, 124560, Note_on_c, 0, 66, 55
2, 124560, Note_on_c, 0, 70, 55
2, 124560, Note_on_c, 0, 58, 27
2, 124740, Note_on_c, 0, 58, 0
2, 124740, Note_on_c, 0, 66, 0
2, 124740, Note_on_c, 0, 61, 0
2, 124740, Note_on_c, 0, 51, 0
2, 124740, Note_on_c, 0, 70, 0
2, 124740, Note_on_c, 0, 65, 60
2, 124740, Note_on_c, 0, 70, 60
2, 124740, Note_on_c, 0, 74, 60
2, 124740, Note_on_c, 0, 77, 60
2, 124740, Note_on_c, 0, 53, 45
2, 124740, Note_on_c, 0, 58, 45
2, 124740, Note_on_c, 0, 62, 45
2, 124829, Note_on_c, 0, 62, 0
2, 124829, Note_on_c, 0, 53, 0
2, 124829, Note_on_c, 0, 70, 0
2, 124829, Note_on_c, 0, 74, 0
2, 124829, Note_on_c, 0, 65, 0
2, 124829, Note_on_c, 0, 58, 0
2, 124829, Note_on_c, 0, 77, 0
2, 125010, Note_on_c, 0, 73, 45
2, 125010, Note_on_c, 0, 79, 45
2, 125010, Note_on_c, 0, 69, 38
2, 125100, Note_on_c, 0, 69, 0
2, 125100, Note_on_c, 0, 79, 0
2, 125100, Note_on_c, 0, 73, 0
2, 125100, Note_on_c, 0, 74, 58
2, 125100, Note_on_c, 0, 77, 58
2, 125100, Note_on_c, 0, 70, 53
2, 125370, Note_on_c, 0, 70, 0
2, 125370, Note_on_c, 0, 77, 0
2, 125370, Note_on_c, 0, 74, 0
2, 125370, Note_on_c, 0, 73, 58
2, 125370, Note_on_c, 0, 78, 58
2, 125370, Note_on_c, 0, 69, 34
2, 125460, Note_on_c, 0, 69, 0
2, 125460, Note_on_c, 0, 78, 0
2, 125460, Note_on_c, 0, 73, 0
2, 125460, Note_on_c, 0, 72, 49
2, 125460, Note_on_c, 0, 77, 49
2, 125460, Note_on_c, 0, 68, 38
2, 125550, Note_on_c, 0, 68, 0
2, 125550, Note_on_c, 0, 77, 0
2, 125550, Note_on_c, 0, 72, 0
2, 125550, Note_on_c, 0, 71, 45
2, 125550, Note_on_c, 0, 76, 45
2, 125550, Note_on_c, 0, 67, 33
2, 125640, Note_on_c, 0, 67, 0
2, 125640, Note_on_c, 0, 76, 0
2, 125640, Note_on_c, 0, 71, 0
2, 125640, Note_on_c, 0, 72, 55
2, 125640, Note_on_c, 0, 77, 55
2, 125640, Note_on_c, 0, 68, 43
2, 125730, Note_on_c, 0, 68, 0
2, 125730, Note_on_c, 0, 77, 0
2, 125730, Note_on_c, 0, 72, 0
2, 125730, Note_on_c, 0, 73, 60
2, 125730, Note_on_c, 0, 78, 60
2, 125730, Note_on_c, 0, 69, 37
2, 125820, Note_on_c, 0, 69, 0
2, 125820, Note_on_c, 0, 78, 0
2, 125820, Note_on_c, 0, 73, 0
2, 125820, Note_on_c, 0, 74, 49
2, 125820, Note_on_c, 0, 77, 49
2, 125820, Note_on_c, 0, 70, 41
2, 125909, Note_on_c, 0, 70, 0
2, 125909, Note_on_c, 0, 77, 0
2, 125909, Note_on_c, 0, 74, 0
2, 126090, Note_on_c, 0, 73, 44
2, 126090, Note_on_c, 0, 79, 44
2, 126090, Note_on_c, 0, 69, 40
2, 126180, Note_on_c, 0, 69, 0
2, 126180, Note_on_c, 0, 79, 0
2, 126180, Note_on_c, 0, 73, 0
2, 126180, Note_on_c, 0, 74, 56
2, 126180, Note_on_c, 0, 77, 56
2, 126180, Note_on_c, 0, 70, 56
2, 126450, Note_on_c, 0, 70, 0
2, 126450, Note_on_c, 0, 77, 0
2, 126450, Note_on_c, 0, 74, 0
2, 126450, Note_on_c, 0, 73, 51
2, 126450, Note_on_c, 0, 78, 51
2, 126450, Note_on_c, 0, 69, 37
2, 126540, Note_on_c, 0, 69, 0
2, 126540, Note_on_c, 0, 78, 0
2, 126540, Note_on_c, 0, 73, 0
2, 126540, Note_on_c, 0, 72, 50
2, 126540, Note_on_c, 0, 77, 50
2, 126540, Note_on_c, 0, 68, 35
2, 126630, Note_on_c, 0, 68, 0
2, 126630, Note_on_c, 0, 77, 0
2, 126630, Note_on_c, 0, 72, 0
2, 126630, Note_on_c, 0, 71, 46
2, 126630, Note_on_c, 0, 76, 46
2, 126630, Note_on_c, 0, 67, 41
2, 126720, Note_on_c, 0, 67, 0
2, 126720, Note_on_c, 0, 76, 0
2, 126720, Note_on_c, 0, 71, 0
2, 126720, Note_on_c, 0, 70, 47
2, 126720, Note_on_c, 0, 75, 47
2, 126720, Note_on_c, 0, 66, 34
2, 126810, Note_on_c, 0, 75, 0
2, 126810, Note_on_c, 0, 70, 0
2, 126810, Note_on_c, 0, 77, 53
2, 126900, Note_on_c, 0, 77, 0
2, 126900, Note_on_c, 0, 66, 0
2, 126900, Note_on_c, 0, 71, 45
2, 126900, Note_on_c, 0, 74, 45
2, 126900, Note_on_c, 0, 67, 45
2, 126989, Note_on_c, 0, 67, 0
2, 126989, Note_on_c, 0, 74, 0
2, 126989, Note_on_c, 0, 71, 0
2, 127170, Note_on_c, 0, 70, 43
2, 127170, Note_on_c, 0, 76, 43
2, 127170, Note_on_c, 0, 66, 35
2, 127260, Note_on_c, 0, 66, 0
2, 127260, Note_on_c, 0, 76, 0
2, 127260, Note_on_c, 0, 70, 0
2, 127260, Note_on_c, 0, 71, 58
2, 127260, Note_on_c, 0, 74, 58
2, 127260, Note_on_c, 0, 67, 51
2, 127530, Note_on_c, 0, 67, 0
2, 127530, Note_on_c, 0, 74, 0
2, 127530, Note_on_c, 0, 71, 0
2, 127530, Note_on_c, 0, 70, 55
2, 127530, Note_on_c, 0, 75, 55
2, 127530, Note_on_c, 0, 66, 41
2, 127620, Note_on_c, 0, 66, 0
2, 127620, Note_on_c, 0, 75, 0
2, 127620, Note_on_c, 0, 70, 0
2, 127620, Note_on_c, 0, 69, 50
2, 127620, Note_on_c, 0, 74, 50
2, 127620, Note_on_c, 0, 65, 41
2, 127710, Note_on_c, 0, 65, 0
2, 127710, Note_on_c, 0, 74, 0
2, 127710, Note_on_c, 0, 69, 0
2, 127710, Note_on_c, 0, 68, 48
2, 127710, Note_on_c, 0, 73, 48
2, 127710, Note_on_c, 0, 64, 33
2, 127800, Note_on_c, 0, 64, 0
2, 127800, Note_on_c, 0, 73, 0
2, 127800, Note_on_c, 0, 68, 0
2, 127800, Note_on_c, 0, 69, 50
2, 127800, Note_on_c, 0, 74, 50
2, 127800, Note_on_c, 0, 65, 38
2, 127890, Note_on_c, 0, 65, 0
2, 127890, Note_on_c, 0, 74, 0
2, 127890, Note_on_c, 0, 69, 0
2, 127890, Note_on_c, 0, 70, 50
2, 127890, Note_on_c, 0, 75, 50
2, 127890, Note_on_c, 0, 66, 41
2, 127980, Note_on_c, 0, 66, 0
2, 127980, Note_on_c, 0, 75, 0
2, 127980, Note_on_c, 0, 70, 0
2, 127980, Note_on_c, 0, 71, 47
2, 127980, Note_on_c, 0, 74, 47
2, 127980, Note_on_c, 0, 67, 40
2, 128069, Note_on_c, 0, 67, 0
2, 128069, Note_on_c, 0, 74, 0
2, 128069, Note_on_c, 0, 71, 0
2, 128250, Note_on_c, 0, 70, 42
2, 128250, Note_on_c, 0, 76, 42
2, 128250, Note_on_c, 0, 66, 34
2, 128340, Note_on_c, 0, 66, 0
2, 128340, Note_on_c, 0, 76, 0
2, 128340, Note_on_c, 0, 70, 0
2, 128340, Note_on_c, 0, 71, 58
2, 128340, Note_on_c, 0, 74, 58
2, 128340, Note_on_c, 0, 67, 58
2, 128498, Note_on_c, 0, 67, 0
2, 128498, Note_on_c, 0, 71, 0
2, 128520, Note_on_c, 0, 68, 57
2, 128520, Note_on_c, 0, 65, 38
2, 128610, Note_on_c, 0, 74, 0
2, 128610, Note_on_c, 0, 75, 52
2, 128700, Note_on_c, 0, 75, 0
2, 128700, Note_on_c, 0, 65, 0
2, 128700, Note_on_c, 0, 68, 0
2, 128700, Note_on_c, 0, 72, 45
2, 128700, Note_on_c, 0, 67, 48
2, 128700, Note_on_c, 0, 63, 35
2, 128790, Note_on_c, 0, 72, 0
2, 128790, Note_on_c, 0, 74, 54
2, 128880, Note_on_c, 0, 74, 0
2, 128880, Note_on_c, 0, 63, 0
2, 128880, Note_on_c, 0, 67, 0
2, 128880, Note_on_c, 0, 71, 46
2, 128880, Note_on_c, 0, 66, 41
2, 128880, Note_on_c, 0, 62, 35
2, 128970, Note_on_c, 0, 71, 0
2, 128970, Note_on_c, 0, 73, 53
2, 129060, Note_on_c, 0, 73, 0
2, 129060, Note_on_c, 0, 62, 0
2, 129060, Note_on_c, 0, 66, 0
2, 129060, Note_on_c, 0, 70, 44
2, 129060, Note_on_c, 0, 58, 40
2, 129240, Note_on_c, 0, 63, 54
2, 129240, Note_on_c, 0, 67, 54
2, 129329, Note_on_c, 0, 67, 0
2, 129329, Note_on_c, 0, 63, 0
2, 129420, Note_on_c, 0, 63, 62
2, 129420, Note_on_c, 0, 67, 62
2, 129509, Note_on_c, 0, 67, 0
2, 129509, Note_on_c, 0, 63, 0
2, 129600, Note_on_c, 0, 58, 0
2, 129600, Note_on_c, 0, 70, 0
2, 129600, Note_on_c, 0, 71, 52
2, 129600, Note_on_c, 0, 59, 36
2, 129690, Note_on_c, 0, 59, 0
2, 129690, Note_on_c, 0, 71, 0
2, 129690, Note_on_c, 0, 73, 59
2, 129690, Note_on_c, 0, 61, 46
2, 129780, Note_on_c, 0, 61, 0
2, 129780, Note_on_c, 0, 73, 0
2, 129780, Note_on_c, 0, 74, 53
2, 129780, Note_on_c, 0, 64, 52
2, 129780, Note_on_c, 0, 68, 52
2, 129780, Note_on_c, 0, 62, 53
2, 129869, Note_on_c, 0, 68, 0
2, 129869, Note_on_c, 0, 64, 0
2, 129960, Note_on_c, 0, 64, 61
2, 129960, Note_on_c, 0, 68, 61
2, 130049, Note_on_c, 0, 68, 0
2, 130049, Note_on_c, 0, 64, 0
2, 130097, Note_on_c, 0, 62, 0
2, 130140, Note_on_c, 0, 74, 0
2, 130140, Note_on_c, 0, 70, 45
2, 130140, Note_on_c, 0, 58, 37
2, 130320, Note_on_c, 0, 63, 54
2, 130320, Note_on_c, 0, 67, 54
2, 130409, Note_on_c, 0, 67, 0
2, 130409, Note_on_c, 0, 63, 0
2, 130500, Note_on_c, 0, 63, 56
2, 130500, Note_on_c, 0, 67, 56
2, 130589, Note_on_c, 0, 67, 0
2, 130589, Note_on_c, 0, 63, 0
2, 130680, Note_on_c, 0, 58, 0
2, 130680, Note_on_c, 0, 70, 0
2, 130680, Note_on_c, 0, 69, 48
2, 130680, Note_on_c, 0, 57, 39
2, 130770, Note_on_c, 0, 57, 0
2, 130770, Note_on_c, 0, 69, 0
2, 130770, Note_on_c, 0, 71, 54
2, 130770, Note_on_c, 0, 59, 40
2, 130860, Note_on_c, 0, 59, 0
2, 130860, Note_on_c, 0, 71, 0
2, 130860, Note_on_c, 0, 73, 54
2, 130860, Note_on_c, 0, 62, 52
2, 130860, Note_on_c, 0, 66, 52
2, 130860, Note_on_c, 0, 61, 58
2, 130949, Note_on_c, 0, 66, 0
2, 130949, Note_on_c, 0, 62, 0
2, 131040, Note_on_c, 0, 62, 57
2, 131040, Note_on_c, 0, 66, 57
2, 131129, Note_on_c, 0, 66, 0
2, 131129, Note_on_c, 0, 62, 0
2, 131177, Note_on_c, 0, 61, 0
2, 131220, Note_on_c, 0, 73, 0
2, 131220, Note_on_c, 0, 70, 44
2, 131220, Note_on_c, 0, 58, 41
2, 131400, Note_on_c, 0, 63, 50
2, 131400, Note_on_c, 0, 67, 50
2, 131489, Note_on_c, 0, 67, 0
2, 131489, Note_on_c, 0, 63, 0
2, 131580, Note_on_c, 0, 63, 60
2, 131580, Note_on_c, 0, 67, 60
2, 131669, Note_on_c, 0, 67, 0
2, 131669, Note_on_c, 0, 63, 0
2, 131760, Note_on_c, 0, 58, 0
2, 131760, Note_on_c, 0, 70, 0
2, 131760, Note_on_c, 0, 71, 51
2, 131760, Note_on_c, 0, 59, 35
2, 131940, Note_on_c, 0, 62, 51
2, 131940, Note_on_c, 0, 66, 51
2, 132029, Note_on_c, 0, 66, 0
2, 132029, Note_on_c, 0, 62, 0
2, 132120, Note_on_c, 0, 62, 59
2, 132120, Note_on_c, 0, 66, 59
2, 132209, Note_on_c, 0, 66, 0
2, 132209, Note_on_c, 0, 62, 0
2, 132300, Note_on_c, 0, 59, 0
2, 132300, Note_on_c, 0, 71, 0
2, 132300, Note_on_c, 0, 70, 48
2, 132300, Note_on_c, 0, 58, 43
2, 132480, Note_on_c, 0, 61, 53
2, 132480, Note_on_c, 0, 65, 53
2, 132569, Note_on_c, 0, 65, 0
2, 132569, Note_on_c, 0, 61, 0
2, 132660, Note_on_c, 0, 61, 61
2, 132660, Note_on_c, 0, 65, 61
2, 132749, Note_on_c, 0, 65, 0
2, 132749, Note_on_c, 0, 61, 0
2, 132840, Note_on_c, 0, 58, 0
2, 132840, Note_on_c, 0, 70, 0
2, 132840, Note_on_c, 0, 69, 45
2, 132840, Note_on_c, 0, 57, 40
2, 133020, Note_on_c, 0, 60, 54
2, 133020, Note_on_c, 0, 64, 54
2, 133109, Note_on_c, 0, 64, 0
2, 133109, Note_on_c, 0, 60, 0
2, 133110, Note_on_c, 0, 57, 0
2, 133110, Note_on_c, 0, 69, 0
2, 133110, Note_on_c, 0, 68, 43
2, 133110, Note_on_c, 0, 56, 34
2, 133200, Note_on_c, 0, 56, 0
2, 133200, Note_on_c, 0, 68, 0
2, 133200, Note_on_c, 0, 67, 46
2, 133200, Note_on_c, 0, 60, 55
2, 133200, Note_on_c, 0, 64, 55
2, 133200, Note_on_c, 0, 55, 35
2, 133289, Note_on_c, 0, 64, 0
2, 133289, Note_on_c, 0, 60, 0
2, 133380, Note_on_c, 0, 67, 0
2, 133380, Note_on_c, 0, 55, 0
2, 133380, Note_on_c, 0, 56, 56
2, 133380, Note_on_c, 0, 37, 35
2, 133380, Note_on_c, 0, 44, 35
2, 133380, Note_on_c, 0, 53, 35
2, 133410, Note_on_c, 0, 61, 56
2, 133439, Note_on_c, 0, 65, 56
2, 133469, Note_on_c, 0, 68, 56
2, 133740, Note_on_c, 0, 68, 0
2, 133740, Note_on_c, 0, 61, 0
2, 133740, Note_on_c, 0, 37, 0
2, 133740, Note_on_c, 0, 44, 0
2, 133740, Note_on_c, 0, 56, 0
2, 133740, Note_on_c, 0, 65, 0
2, 133740, Note_on_c, 0, 53, 0
2, 134460, Note_on_c, 0, 56, 40
2, 134460, Note_on_c, 0, 37, 36
2, 134460, Note_on_c, 0, 44, 36
2, 134460, Note_on_c, 0, 53, 36
2, 134490, Note_on_c, 0, 61, 40
2, 134519, Note_on_c, 0, 65, 40
2, 134549, Note_on_c, 0, 68, 40
2, 134820, Note_on_c, 0, 68, 0
2, 134820, Note_on_c, 0, 61, 0
2, 134820, Note_on_c, 0, 37, 0
2, 134820, Note_on_c, 0, 44, 0
2, 134820, Note_on_c, 0, 56, 0
2, 134820, Note_on_c, 0, 65, 0
2, 134820, Note_on_c, 0, 53, 0
2, 135540, Note_on_c, 0, 56, 44
2, 135540, Note_on_c, 0, 37, 33
2, 135540, Note_on_c, 0, 44, 33
2, 135540, Note_on_c, 0, 53, 33
2, 135581, Note_on_c, 0, 61, 44
2, 135622, Note_on_c, 0, 65, 44
2, 135662, Note_on_c, 0, 68, 44
2, 135900, Note_on_c, 0, 68, 0
2, 135900, Note_on_c, 0, 61, 0
2, 135900, Note_on_c, 0, 37, 0
2, 135900, Note_on_c, 0, 44, 0
2, 135900, Note_on_c, 0, 56, 0
2, 135900, Note_on_c, 0, 65, 0
2, 135900, Note_on_c, 0, 53, 0
2, 137700, Note_on_c, 0, 73, 46
2, 137700, Note_on_c, 0, 64, 49
2, 137700, Note_on_c, 0, 58, 35
2, 137700, Note_on_c, 0, 54, 21
2, 138240, Note_on_c, 0, 73, 0
2, 138240, Note_on_c, 0, 66, 36
2, 138960, Note_on_c, 0, 66, 0
2, 138960, Note_on_c, 0, 54, 0
2, 138960, Note_on_c, 0, 58, 0
2, 138960, Note_on_c, 0, 64, 0
2, 139320, Note_on_c, 0, 67, 64
2, 139320, Note_on_c, 0, 63, 41
2, 139320, Note_on_c, 0, 59, 35
2, 139320, Note_on_c, 0, 55, 26
2, 139500, Note_on_c, 0, 59, 0
2, 139500, Note_on_c, 0, 60, 42
2, 139590, Note_on_c, 0, 67, 0
2, 139590, Note_on_c, 0, 66, 73
2, 139680, Note_on_c, 0, 66, 0
2, 139680, Note_on_c, 0, 60, 0
2, 139680, Note_on_c, 0, 67, 65
2, 139680, Note_on_c, 0, 59, 40
2, 139860, Note_on_c, 0, 59, 0
2, 139860, Note_on_c, 0, 55, 0
2, 139860, Note_on_c, 0, 63, 0
2, 139860, Note_on_c, 0, 67, 0
2, 139860, Note_on_c, 0, 73, 69
2, 139860, Note_on_c, 0, 64, 53
2, 139860, Note_on_c, 0, 58, 38
2, 139860, Note_on_c, 0, 54, 25
2, 140334, Note_on_c, 0, 73, 0
2, 140400, Note_on_c, 0, 66, 38
2, 141120, Note_on_c, 0, 66, 0
2, 141120, Note_on_c, 0, 54, 0
2, 141120, Note_on_c, 0, 58, 0
2, 141120, Note_on_c, 0, 64, 0
2, 143280, Note_on_c, 0, 66, 43
2, 143460, Note_on_c, 0, 66, 0
2, 143460, Note_on_c, 0, 67, 48
2, 143460, Note_on_c, 0, 61, 45
2, 143460, Note_on_c, 0, 64, 1
2, 143460, Note_on_c, 0, 58, 37
2, 143640, Note_on_c, 0, 58, 0
2, 143640, Note_on_c, 0, 67, 0
2, 143640, Note_on_c, 0, 68, 51
2, 143640, Note_on_c, 0, 47, 36
2, 143640, Note_on_c, 0, 57, 36
2, 143820, Note_on_c, 0, 61, 0
2, 143820, Note_on_c, 0, 60, 45
2, 143910, Note_on_c, 0, 68, 0
2, 143910, Note_on_c, 0, 67, 43
2, 144000, Note_on_c, 0, 67, 0
2, 144000, Note_on_c, 0, 60, 0
2, 144000, Note_on_c, 0, 64, 0
2, 144000, Note_on_c, 0, 68, 49
2, 144000, Note_on_c, 0, 59, 53
2, 144000, Note_on_c, 0, 63, 53
2, 144180, Note_on_c, 0, 63, 0
2, 144180, Note_on_c, 0, 68, 0
2, 144180, Note_on_c, 0, 47, 0
2, 144180, Note_on_c, 0, 57, 0
2, 144180, Note_on_c, 0, 59, 0
2, 144180, Note_on_c, 0, 58, 72
2, 144180, Note_on_c, 0, 61, 72
2, 144180, Note_on_c, 0, 64, 72
2, 144180, Note_on_c, 0, 73, 72
2, 144180, Note_on_c, 0, 40, 37
2, 144222, Note_on_c, 0, 47, 37
2, 144264, Note_on_c, 0, 55, 37
2, 145620, Note_on_c, 0, 55, 0
2, 145620, Note_on_c, 0, 40, 0
2, 145620, Note_on_c, 0, 61, 0
2, 145620, Note_on_c, 0, 64, 0
2, 145620, Note_on_c, 0, 58, 0
2, 145620, Note_on_c, 0, 47, 0
2, 145620, Note_on_c, 0, 73, 0
2, 145620, Note_on_c, 0, 67, 40
2, 145620, Note_on_c, 0, 61, 46
2, 145620, Note_on_c, 0, 64, 1
2, 145620, Note_on_c, 0, 58, 42
2, 145800, Note_on_c, 0, 58, 0
2, 145800, Note_on_c, 0, 67, 0
2, 145800, Note_on_c, 0, 68, 50
2, 145800, Note_on_c, 0, 47, 37
2, 145800, Note_on_c, 0, 57, 37
2, 145980, Note_on_c, 0, 61, 0
2, 145980, Note_on_c, 0, 60, 47
2, 146070, Note_on_c, 0, 68, 0
2, 146070, Note_on_c, 0, 67, 49
2, 146160, Note_on_c, 0, 67, 0
2, 146160, Note_on_c, 0, 60, 0
2, 146160, Note_on_c, 0, 64, 0
2, 146160, Note_on_c, 0, 68, 52
2, 146160, Note_on_c, 0, 59, 57
2, 146160, Note_on_c, 0, 63, 57
2, 146340, Note_on_c, 0, 63, 0
2, 146340, Note_on_c, 0, 68, 0
2, 146340, Note_on_c, 0, 47, 0
2, 146340, Note_on_c, 0, 57, 0
2, 146340, Note_on_c, 0, 59, 0
2, 146340, Note_on_c, 0, 58, 71
2, 146340, Note_on_c, 0, 61, 71
2, 146340, Note_on_c, 0, 64, 71
2, 146340, Note_on_c, 0, 73, 71
2, 146340, Note_on_c, 0, 40, 35
2, 146382, Note_on_c, 0, 47, 35
2, 146424, Note_on_c, 0, 55, 35
2, 147780, Note_on_c, 0, 55, 0
2, 147780, Note_on_c, 0, 40, 0
2, 147780, Note_on_c, 0, 61, 0
2, 147780, Note_on_c, 0, 64, 0
2, 147780, Note_on_c, 0, 58, 0
2, 147780, Note_on_c, 0, 47, 0
2, 147780, Note_on_c, 0, 73, 0
2, 147780, Note_on_c, 0, 73, 49
2, 147780, Note_on_c, 0, 64, 57
2, 147780, Note_on_c, 0, 67, 57
2, 147780, Note_on_c, 0, 61, 49
2, 147780, Note_on_c, 0, 58, 20
2, 147960, Note_on_c, 0, 61, 0
2, 147960, Note_on_c, 0, 73, 0
2, 147960, Note_on_c, 0, 74, 52
2, 147960, Note_on_c, 0, 62, 43
2, 148140, Note_on_c, 0, 64, 0
2, 148140, Note_on_c, 0, 58, 0
2, 148140, Note_on_c, 0, 67, 0
2, 148140, Note_on_c, 0, 65, 57
2, 148140, Note_on_c, 0, 68, 57
2, 148140, Note_on_c, 0, 59, 26
2, 148320, Note_on_c, 0, 59, 0
2, 148320, Note_on_c, 0, 65, 0
2, 148320, Note_on_c, 0, 62, 0
2, 148320, Note_on_c, 0, 74, 0
2, 148320, Note_on_c, 0, 68, 0
2, 148320, Note_on_c, 0, 75, 52
2, 148320, Note_on_c, 0, 66, 54
2, 148320, Note_on_c, 0, 69, 54
2, 148320, Note_on_c, 0, 63, 44
2, 148320, Note_on_c, 0, 60, 26
2, 148500, Note_on_c, 0, 60, 0
2, 148500, Note_on_c, 0, 69, 0
2, 148500, Note_on_c, 0, 75, 0
2, 148500, Note_on_c, 0, 66, 0
2, 148500, Note_on_c, 0, 63, 0
2, 148500, Note_on_c, 0, 69, 116
2, 148500, Note_on_c, 0, 72, 116
2, 148500, Note_on_c, 0, 75, 116
2, 148500, Note_on_c, 0, 81, 116
2, 148500, Note_on_c, 0, 49, 98
2, 148542, Note_on_c, 0, 57, 98
2, 148584, Note_on_c, 0, 60, 98
2, 148627, Note_on_c, 0, 66, 98
2, 149940, Note_on_c, 0, 66, 0
2, 149940, Note_on_c, 0, 69, 0
2, 149940, Note_on_c, 0, 49, 0
2, 149940, Note_on_c, 0, 72, 0
2, 149940, Note_on_c, 0, 75, 0
2, 149940, Note_on_c, 0, 81, 0
2, 149940, Note_on_c, 0, 57, 0
2, 149940, Note_on_c, 0, 60, 0
2, 149940, Note_on_c, 0, 72, 67
2, 149940, Note_on_c, 0, 66, 49
2, 149940, Note_on_c, 0, 69, 49
2, 149940, Note_on_c, 0, 63, 80
2, 150120, Note_on_c, 0, 63, 0
2, 150120, Note_on_c, 0, 72, 0
2, 150120, Note_on_c, 0, 73, 89
2, 150120, Note_on_c, 0, 61, 23
2, 150300, Note_on_c, 0, 73, 0
2, 150300, Note_on_c, 0, 66, 0
2, 150300, Note_on_c, 0, 69, 0
2, 150300, Note_on_c, 0, 74, 88
2, 150300, Note_on_c, 0, 66, 48
2, 150300, Note_on_c, 0, 69, 48
2, 150300, Note_on_c, 0, 62, 77
2, 150480, Note_on_c, 0, 62, 0
2, 150480, Note_on_c, 0, 61, 0
2, 150480, Note_on_c, 0, 74, 0
2, 150480, Note_on_c, 0, 75, 90
2, 150480, Note_on_c, 0, 63, 92
2, 150480, Note_on_c, 0, 60, 26
2, 150660, Note_on_c, 0, 60, 0
2, 150660, Note_on_c, 0, 75, 0
2, 150660, Note_on_c, 0, 69, 0
2, 150660, Note_on_c, 0, 66, 0
2, 150660, Note_on_c, 0, 63, 0
2, 150660, Note_on_c, 0, 69, 116
2, 150660, Note_on_c, 0, 72, 116
2, 150660, Note_on_c, 0, 75, 116
2, 150660, Note_on_c, 0, 81, 116
2, 150660, Note_on_c, 0, 49, 97
2, 150702, Note_on_c, 0, 57, 97
2, 150744, Note_on_c, 0, 60, 97
2, 150787, Note_on_c, 0, 66, 97
2, 151134, Note_on_c, 0, 81, 0
2, 151134, Note_on_c, 0, 75, 0
2, 151134, Note_on_c, 0, 69, 0
2, 151134, Note_on_c, 0, 72, 0
2, 151200, Note_on_c, 0, 49, 0
2, 151200, Note_on_c, 0, 66, 0
2, 151200, Note_on_c, 0, 57, 0
2, 151200, Note_on_c, 0, 60, 0
2, 151200, Note_on_c, 0, 72, 87
2, 151200, Note_on_c, 0, 66, 50
2, 151200, Note_on_c, 0, 69, 50
2, 151200, Note_on_c, 0, 60, 87
2, 151200, Note_on_c, 0, 57, 25
2, 151380, Note_on_c, 0, 60, 0
2, 151380, Note_on_c, 0, 72, 0
2, 151380, Note_on_c, 0, 73, 79
2, 151380, Note_on_c, 0, 61, 79
2, 151560, Note_on_c, 0, 61, 0
2, 151560, Note_on_c, 0, 66, 0
2, 151560, Note_on_c, 0, 57, 0
2, 151560, Note_on_c, 0, 69, 0
2, 151560, Note_on_c, 0, 73, 0
2, 151560, Note_on_c, 0, 75, 70
2, 151560, Note_on_c, 0, 66, 34
2, 151560, Note_on_c, 0, 70, 34
2, 151560, Note_on_c, 0, 62, 70
2, 151560, Note_on_c, 0, 56, 8
2, 151740, Note_on_c, 0, 56, 0
2, 151740, Note_on_c, 0, 70, 0
2, 151740, Note_on_c, 0, 75, 0
2, 151740, Note_on_c, 0, 66, 0
2, 151740, Note_on_c, 0, 62, 0
2, 151740, Note_on_c, 0, 65, 74
2, 151740, Note_on_c, 0, 71, 74
2, 151740, Note_on_c, 0, 81, 74
2, 151740, Note_on_c, 0, 49, 53
2, 151782, Note_on_c, 0, 55, 53
2, 151824, Note_on_c, 0, 59, 53
2, 151867, Note_on_c, 0, 62, 53
2, 153000, Note_on_c, 0, 62, 0
2, 153000, Note_on_c, 0, 55, 0
2, 153000, Note_on_c, 0, 71, 0
2, 153000, Note_on_c, 0, 81, 0
2, 153000, Note_on_c, 0, 65, 0
2, 153000, Note_on_c, 0, 59, 0
2, 153000, Note_on_c, 0, 49, 0
2, 153000, Note_on_c, 0, 71, 41
2, 153000, Note_on_c, 0, 67, 18
2, 153000, Note_on_c, 0, 65, 65
2, 153180, Note_on_c, 0, 67, 0
2, 153180, Note_on_c, 0, 71, 0
2, 153180, Note_on_c, 0, 72, 54
2, 153180, Note_on_c, 0, 68, 23
2, 153180, Note_on_c, 0, 62, 44
2, 153360, Note_on_c, 0, 62, 0
2, 153360, Note_on_c, 0, 68, 0
2, 153360, Note_on_c, 0, 72, 0
2, 153360, Note_on_c, 0, 73, 54
2, 153360, Note_on_c, 0, 69, 31
2, 153360, Note_on_c, 0, 61, 49
2, 153540, Note_on_c, 0, 61, 0
2, 153540, Note_on_c, 0, 60, 44
2, 153630, Note_on_c, 0, 73, 0
2, 153630, Note_on_c, 0, 72, 49
2, 153720, Note_on_c, 0, 72, 0
2, 153720, Note_on_c, 0, 60, 0
2, 153720, Note_on_c, 0, 69, 0
2, 153720, Note_on_c, 0, 65, 0
2, 153720, Note_on_c, 0, 73, 48
2, 153720, Note_on_c, 0, 68, 21
2, 153720, Note_on_c, 0, 64, 47
2, 153720, Note_on_c, 0, 59, 51
2, 153900, Note_on_c, 0, 59, 0
2, 153900, Note_on_c, 0, 64, 0
2, 153900, Note_on_c, 0, 73, 0
2, 153900, Note_on_c, 0, 76, 58
2, 153900, Note_on_c, 0, 61, 42
2, 153900, Note_on_c, 0, 58, 53
2, 154080, Note_on_c, 0, 68, 0
2, 154080, Note_on_c, 0, 67, 26
2, 154260, Note_on_c, 0, 67, 0
2, 154260, Note_on_c, 0, 66, 20
2, 154440, Note_on_c, 0, 58, 0
2, 154440, Note_on_c, 0, 76, 0
2, 154440, Note_on_c, 0, 68, 40
2, 154440, Note_on_c, 0, 57, 51
2, 154620, Note_on_c, 0, 68, 0
2, 154620, Note_on_c, 0, 66, 0
2, 154620, Note_on_c, 0, 61, 0
2, 154620, Note_on_c, 0, 69, 51
2, 154620, Note_on_c, 0, 65, 21
2, 154620, Note_on_c, 0, 60, 49
2, 154800, Note_on_c, 0, 65, 0
2, 154800, Note_on_c, 0, 57, 0
2, 154800, Note_on_c, 0, 69, 0
2, 154800, Note_on_c, 0, 70, 51
2, 154800, Note_on_c, 0, 64, 24
2, 154800, Note_on_c, 0, 55, 48
2, 154980, Note_on_c, 0, 55, 0
2, 154980, Note_on_c, 0, 60, 0
2, 154980, Note_on_c, 0, 70, 0
2, 154980, Note_on_c, 0, 71, 53
2, 154980, Note_on_c, 0, 59, 52
2, 154980, Note_on_c, 0, 56, 50
2, 155160, Note_on_c, 0, 56, 0
2, 155160, Note_on_c, 0, 57, 51
2, 155250, Note_on_c, 0, 57, 0
2, 155250, Note_on_c, 0, 56, 50
2, 155340, Note_on_c, 0, 56, 0
2, 155340, Note_on_c, 0, 55, 48
2, 155430, Note_on_c, 0, 55, 0
2, 155430, Note_on_c, 0, 56, 52
2, 155520, Note_on_c, 0, 56, 0
2, 155520, Note_on_c, 0, 59, 0
2, 155520, Note_on_c, 0, 71, 0
2, 155520, Note_on_c, 0, 72, 55
2, 155520, Note_on_c, 0, 58, 50
2, 155520, Note_on_c, 0, 55, 49
2, 155700, Note_on_c, 0, 64, 0
2, 155700, Note_on_c, 0, 66, 29
2, 155790, Note_on_c, 0, 66, 0
2, 155790, Note_on_c, 0, 64, 20
2, 155880, Note_on_c, 0, 64, 0
2, 155880, Note_on_c, 0, 63, 26
2, 155970, Note_on_c, 0, 63, 0
2, 155970, Note_on_c, 0, 66, 23
2, 156060, Note_on_c, 0, 66, 0
2, 156060, Note_on_c, 0, 72, 0
2, 156060, Note_on_c, 0, 55, 0
2, 156060, Note_on_c, 0, 73, 69
2, 156060, Note_on_c, 0, 64, 22
2, 156060, Note_on_c, 0, 54, 47
2, 156240, Note_on_c, 0, 58, 0
2, 156240, Note_on_c, 0, 57, 50
2, 156420, Note_on_c, 0, 57, 0
2, 156420, Note_on_c, 0, 58, 53
2, 156534, Note_on_c, 0, 73, 0
2, 156600, Note_on_c, 0, 54, 0
2, 156600, Note_on_c, 0, 58, 0
2, 156600, Note_on_c, 0, 66, 51
2, 156600, Note_on_c, 0, 63, 55
2, 156600, Note_on_c, 0, 58, 52
2, 156780, Note_on_c, 0, 63, 0
2, 156780, Note_on_c, 0, 62, 48
2, 156960, Note_on_c, 0, 62, 0
2, 156960, Note_on_c, 0, 61, 45
2, 157140, Note_on_c, 0, 58, 0
2, 157140, Note_on_c, 0, 57, 46
2, 157320, Note_on_c, 0, 61, 0
2, 157320, Note_on_c, 0, 64, 0
2, 157320, Note_on_c, 0, 63, 24
2, 157320, Note_on_c, 0, 60, 49
2, 157410, Note_on_c, 0, 66, 0
2, 157410, Note_on_c, 0, 68, 55
2, 157500, Note_on_c, 0, 68, 0
2, 157500, Note_on_c, 0, 60, 0
2, 157500, Note_on_c, 0, 65, 47
2, 157500, Note_on_c, 0, 59, 43
2, 157590, Note_on_c, 0, 65, 0
2, 157590, Note_on_c, 0, 66, 51
2, 157680, Note_on_c, 0, 66, 0
2, 157680, Note_on_c, 0, 59, 0
2, 157680, Note_on_c, 0, 63, 0
2, 157680, Note_on_c, 0, 57, 0
2, 157680, Note_on_c, 0, 73, 61
2, 157680, Note_on_c, 0, 64, 26
2, 157680, Note_on_c, 0, 58, 46
2, 157680, Note_on_c, 0, 54, 44
2, 157950, Note_on_c, 0, 58, 0
2, 157950, Note_on_c, 0, 59, 47
2, 158040, Note_on_c, 0, 59, 0
2, 158040, Note_on_c, 0, 54, 0
2, 158040, Note_on_c, 0, 64, 0
2, 158040, Note_on_c, 0, 73, 0
2, 158040, Note_on_c, 0, 67, 46
2, 158040, Note_on_c, 0, 63, 22
2, 158040, Note_on_c, 0, 60, 53
2, 158040, Note_on_c, 0, 55, 53
2, 158220, Note_on_c, 0, 55, 0
2, 158220, Note_on_c, 0, 67, 0
2, 158220, Note_on_c, 0, 63, 0
2, 158220, Note_on_c, 0, 60, 0
2, 158220, Note_on_c, 0, 73, 62
2, 158220, Note_on_c, 0, 64, 23
2, 158220, Note_on_c, 0, 58, 44
2, 158220, Note_on_c, 0, 54, 52
2, 158400, Note_on_c, 0, 54, 0
2, 158400, Note_on_c, 0, 58, 0
2, 158400, Note_on_c, 0, 64, 0
2, 158580, Note_on_c, 0, 73, 0
2, 159480, Note_on_c, 0, 66, 31
2, 159524, Note_on_c, 0, 66, 0
2, 159570, Note_on_c, 0, 66, 39
2, 159614, Note_on_c, 0, 66, 0
2, 159660, Note_on_c, 0, 66, 41
2, 159704, Note_on_c, 0, 66, 0
2, 159750, Note_on_c, 0, 66, 35
2, 159794, Note_on_c, 0, 66, 0
2, 159840, Note_on_c, 0, 66, 40
2, 159929, Note_on_c, 0, 66, 0
2, 160020, Note_on_c, 0, 66, 36
2, 160109, Note_on_c, 0, 66, 0
2, 160200, Note_on_c, 0, 66, 40
2, 160289, Note_on_c, 0, 66, 0
2, 160560, Note_on_c, 0, 66, 37
2, 160649, Note_on_c, 0, 66, 0
2, 160740, Note_on_c, 0, 66, 41
2, 160829, Note_on_c, 0, 66, 0
2, 161820, Note_on_c, 0, 68, 76
2, 162000, Note_on_c, 0, 68, 0
2, 162000, Note_on_c, 0, 66, 82
2, 162000, Note_on_c, 0, 61, 21
2, 162000, Note_on_c, 0, 64, 1
2, 162000, Note_on_c, 0, 47, 81
2, 162000, Note_on_c, 0, 57, 81
2, 162180, Note_on_c, 0, 61, 0
2, 162180, Note_on_c, 0, 60, 25
2, 162270, Note_on_c, 0, 66, 0
2, 162270, Note_on_c, 0, 67, 87
2, 162360, Note_on_c, 0, 67, 0
2, 162360, Note_on_c, 0, 60, 0
2, 162360, Note_on_c, 0, 64, 0
2, 162360, Note_on_c, 0, 68, 93
2, 162360, Note_on_c, 0, 59, 31
2, 162360, Note_on_c, 0, 63, 31
2, 162540, Note_on_c, 0, 63, 0
2, 162540, Note_on_c, 0, 68, 0
2, 162540, Note_on_c, 0, 57, 0
2, 162540, Note_on_c, 0, 47, 0
2, 162540, Note_on_c, 0, 59, 0
2, 162540, Note_on_c, 0, 58, 105
2, 162540, Note_on_c, 0, 40, 80
2, 162540, Note_on_c, 0, 47, 80
2, 162540, Note_on_c, 0, 55, 80
2, 162582, Note_on_c, 0, 61, 105
2, 162624, Note_on_c, 0, 64, 105
2, 162667, Note_on_c, 0, 73, 105
2, 163620, Note_on_c, 0, 55, 0
2, 163620, Note_on_c, 0, 47, 0
2, 163620, Note_on_c, 0, 40, 0
2, 163620, Note_on_c, 0, 40, 88
2, 163620, Note_on_c, 0, 47, 88
2, 163620, Note_on_c, 0, 55, 88
2, 163980, Note_on_c, 0, 55, 0
2, 163980, Note_on_c, 0, 40, 0
2, 163980, Note_on_c, 0, 64, 0
2, 163980, Note_on_c, 0, 73, 0
2, 163980, Note_on_c, 0, 58, 0
2, 163980, Note_on_c, 0, 47, 0
2, 163980, Note_on_c, 0, 61, 0
2, 163980, Note_on_c, 0, 67, 73
2, 163980, Note_on_c, 0, 61, 22
2, 163980, Note_on_c, 0, 64, 1
2, 163980, Note_on_c, 0, 58, 96
2, 164160, Note_on_c, 0, 58, 0
2, 164160, Note_on_c, 0, 67, 0
2, 164160, Note_on_c, 0, 61, 0
2, 164160, Note_on_c, 0, 68, 88
2, 164160, Note_on_c, 0, 61, 21
2, 164160, Note_on_c, 0, 47, 85
2, 164160, Note_on_c, 0, 57, 85
2, 164340, Note_on_c, 0, 61, 0
2, 164340, Note_on_c, 0, 60, 24
2, 164430, Note_on_c, 0, 68, 0
2, 164430, Note_on_c, 0, 67, 79
2, 164520, Note_on_c, 0, 67, 0
2, 164520, Note_on_c, 0, 60, 0
2, 164520, Note_on_c, 0, 64, 0
2, 164520, Note_on_c, 0, 68, 95
2, 164520, Note_on_c, 0, 59, 25
2, 164520, Note_on_c, 0, 63, 25
2, 164700, Note_on_c, 0, 63, 0
2, 164700, Note_on_c, 0, 68, 0
2, 164700, Note_on_c, 0, 47, 0
2, 164700, Note_on_c, 0, 57, 0
2, 164700, Note_on_c, 0, 59, 0
2, 164700, Note_on_c, 0, 64, 104
2, 164700, Note_on_c, 0, 73, 104
2, 164700, Note_on_c, 0, 58, 19
2, 164700, Note_on_c, 0, 61, 19
2, 164700, Note_on_c, 0, 55, 83
2, 164700, Note_on_c, 0, 40, 49
2, 164742, Note_on_c, 0, 47, 49
2, 165060, Note_on_c, 0, 47, 0
2, 165060, Note_on_c, 0, 55, 0
2, 165060, Note_on_c, 0, 61, 0
2, 165060, Note_on_c, 0, 58, 0
2, 165060, Note_on_c, 0, 40, 0
2, 165060, Note_on_c, 0, 56, 90
2, 165060, Note_on_c, 0, 59, 90
2, 165240, Note_on_c, 0, 59, 0
2, 165240, Note_on_c, 0, 56, 0
2, 165240, Note_on_c, 0, 64, 0
2, 165240, Note_on_c, 0, 63, 19
2, 165240, Note_on_c, 0, 57, 94
2, 165240, Note_on_c, 0, 61, 94
2, 165420, Note_on_c, 0, 61, 0
2, 165420, Note_on_c, 0, 73, 0
2, 165420, Note_on_c, 0, 63, 0
2, 165420, Note_on_c, 0, 57, 0
2, 167459, Note_on_c, 0, 69, 83
2, 167520, Note_on_c, 0, 69, 0
2, 167520, Note_on_c, 0, 72, 93
2, 167580, Note_on_c, 0, 72, 0
2, 167580, Note_on_c, 0, 76, 100
2, 167639, Note_on_c, 0, 76, 0
2, 167639, Note_on_c, 0, 72, 77
2, 167700, Note_on_c, 0, 72, 0
2, 167700, Note_on_c, 0, 76, 99
2, 167760, Note_on_c, 0, 76, 0
2, 167760, Note_on_c, 0, 81, 100
2, 167819, Note_on_c, 0, 81, 0
2, 167819, Note_on_c, 0, 84, 99
2, 167880, Note_on_c, 0, 84, 0
2, 167880, Note_on_c, 0, 88, 98
2, 167940, Note_on_c, 0, 88, 0
2, 167940, Note_on_c, 0, 84, 79
2, 167999, Note_on_c, 0, 84, 0
2, 167999, Note_on_c, 0, 81, 80
2, 168060, Note_on_c, 0, 81, 0
2, 168060, Note_on_c, 0, 78, 74
2, 168120, Note_on_c, 0, 78, 0
2, 168120, Note_on_c, 0, 75, 77
2, 168300, Note_on_c, 0, 75, 0
2, 168539, Note_on_c, 0, 60, 84
2, 168600, Note_on_c, 0, 60, 0
2, 168600, Note_on_c, 0, 64, 94
2, 168660, Note_on_c, 0, 64, 0
2, 168660, Note_on_c, 0, 69, 102
2, 168719, Note_on_c, 0, 69, 0
2, 168719, Note_on_c, 0, 64, 78
2, 168780, Note_on_c, 0, 64, 0
2, 168780, Note_on_c, 0, 69, 106
2, 168840, Note_on_c, 0, 69, 0
2, 168840, Note_on_c, 0, 72, 94
2, 168899, Note_on_c, 0, 72, 0
2, 168899, Note_on_c, 0, 76, 95
2, 168960, Note_on_c, 0, 76, 0
2, 168960, Note_on_c, 0, 81, 104
2, 169020, Note_on_c, 0, 81, 0
2, 169020, Note_on_c, 0, 75, 75
2, 169079, Note_on_c, 0, 75, 0
2, 169079, Note_on_c, 0, 72, 78
2, 169140, Note_on_c, 0, 72, 0
2, 169140, Note_on_c, 0, 69, 78
2, 169200, Note_on_c, 0, 69, 0
2, 169200, Note_on_c, 0, 66, 74
2, 169380, Note_on_c, 0, 66, 0
2, 170100, Note_on_c, 0, 66, 61
2, 170100, Note_on_c, 0, 69, 61
2, 170100, Note_on_c, 0, 72, 61
2, 170100, Note_on_c, 0, 57, 47
2, 170100, Note_on_c, 0, 60, 47
2, 170100, Note_on_c, 0, 62, 47
2, 170574, Note_on_c, 0, 72, 0
2, 170574, Note_on_c, 0, 66, 0
2, 170574, Note_on_c, 0, 69, 0
2, 170640, Note_on_c, 0, 57, 0
2, 170640, Note_on_c, 0, 60, 0
2, 170640, Note_on_c, 0, 62, 0
2, 170640, Note_on_c, 0, 65, 63
2, 170640, Note_on_c, 0, 68, 63
2, 170640, Note_on_c, 0, 72, 63
2, 170640, Note_on_c, 0, 56, 56
2, 170640, Note_on_c, 0, 60, 56
2, 170640, Note_on_c, 0, 61, 56
2, 171675, Note_on_c, 0, 61, 0
2, 171675, Note_on_c, 0, 68, 0
2, 171675, Note_on_c, 0, 72, 0
2, 171675, Note_on_c, 0, 65, 0
2, 171675, Note_on_c, 0, 60, 0
2, 171675, Note_on_c, 0, 56, 0
2, 171675, Note_on_c, 0, 65, 53
2, 171675, Note_on_c, 0, 69, 53
2, 171675, Note_on_c, 0, 73, 53
2, 171675, Note_on_c, 0, 55, 48
2, 171675, Note_on_c, 0, 59, 48
2, 171675, Note_on_c, 0, 61, 48
2, 171720, Note_on_c, 0, 61, 0
2, 171720, Note_on_c, 0, 69, 0
2, 171720, Note_on_c, 0, 73, 0
2, 171720, Note_on_c, 0, 65, 0
2, 171720, Note_on_c, 0, 59, 0
2, 171720, Note_on_c, 0, 55, 0
2, 171720, Note_on_c, 0, 65, 47
2, 171720, Note_on_c, 0, 68, 47
2, 171720, Note_on_c, 0, 72, 47
2, 171720, Note_on_c, 0, 56, 67
2, 171720, Note_on_c, 0, 60, 67
2, 171720, Note_on_c, 0, 61, 67
2, 172215, Note_on_c, 0, 61, 0
2, 172215, Note_on_c, 0, 68, 0
2, 172215, Note_on_c, 0, 72, 0
2, 172215, Note_on_c, 0, 65, 0
2, 172215, Note_on_c, 0, 60, 0
2, 172215, Note_on_c, 0, 56, 0
2, 172215, Note_on_c, 0, 65, 56
2, 172215, Note_on_c, 0, 69, 56
2, 172215, Note_on_c, 0, 73, 56
2, 172215, Note_on_c, 0, 55, 54
2, 172215, Note_on_c, 0, 59, 54
2, 172215, Note_on_c, 0, 61, 54
2, 172260, Note_on_c, 0, 61, 0
2, 172260, Note_on_c, 0, 69, 0
2, 172260, Note_on_c, 0, 73, 0
2, 172260, Note_on_c, 0, 65, 0
2, 172260, Note_on_c, 0, 59, 0
2, 172260, Note_on_c, 0, 55, 0
2, 172260, Note_on_c, 0, 65, 54
2, 172260, Note_on_c, 0, 68, 54
2, 172260, Note_on_c, 0, 72, 54
2, 172260, Note_on_c, 0, 61, 55
2, 172260, Note_on_c, 0, 56, 50
2, 172260, Note_on_c, 0, 60, 50
2, 172620, Note_on_c, 0, 61, 0
2, 172620, Note_on_c, 0, 62, 56
2, 172800, Note_on_c, 0, 62, 0
2, 172800, Note_on_c, 0, 60, 0
2, 172800, Note_on_c, 0, 72, 0
2, 172800, Note_on_c, 0, 65, 0
2, 172800, Note_on_c, 0, 68, 0
2, 172800, Note_on_c, 0, 56, 0
2, 172800, Note_on_c, 0, 59, 110
2, 172800, Note_on_c, 0, 63, 110
2, 172800, Note_on_c, 0, 66, 110
2, 172800, Note_on_c, 0, 68, 110
2, 172800, Note_on_c, 0, 71, 110
2, 172800, Note_on_c, 0, 32, 98
2, 172800, Note_on_c, 0, 44, 98
2, 172980, Note_on_c, 0, 44, 0
2, 172980, Note_on_c, 0, 71, 0
2, 172980, Note_on_c, 0, 63, 0
2, 172980, Note_on_c, 0, 66, 0
2, 172980, Note_on_c, 0, 59, 0
2, 172980, Note_on_c, 0, 32, 0
2, 172980, Note_on_c, 0, 68, 0
2, 172980, Note_on_c, 0, 54, 74
2, 172980, Note_on_c, 0, 59, 74
2, 172980, Note_on_c, 0, 63, 74
2, 173069, Note_on_c, 0, 63, 0
2, 173069, Note_on_c, 0, 59, 0
2, 173069, Note_on_c, 0, 54, 0
2, 173160, Note_on_c, 0, 54, 85
2, 173160, Note_on_c, 0, 59, 85
2, 173160, Note_on_c, 0, 63, 85
2, 173249, Note_on_c, 0, 63, 0
2, 173249, Note_on_c, 0, 59, 0
2, 173249, Note_on_c, 0, 54, 0
2, 173340, Note_on_c, 0, 38, 79
2, 173520, Note_on_c, 0, 38, 0
2, 173520, Note_on_c, 0, 54, 77
2, 173520, Note_on_c, 0, 60, 77
2, 173520, Note_on_c, 0, 63, 77
2, 173609, Note_on_c, 0, 63, 0
2, 173609, Note_on_c, 0, 60, 0
2, 173609, Note_on_c, 0, 54, 0
2, 173700, Note_on_c, 0, 54, 86
2, 173700, Note_on_c, 0, 60, 86
2, 173700, Note_on_c, 0, 63, 86
2, 173789, Note_on_c, 0, 63, 0
2, 173789, Note_on_c, 0, 60, 0
2, 173789, Note_on_c, 0, 54, 0
2, 173880, Note_on_c, 0, 32, 87
2, 173880, Note_on_c, 0, 44, 87
2, 174060, Note_on_c, 0, 44, 0
2, 174060, Note_on_c, 0, 32, 0
2, 174060, Note_on_c, 0, 54, 83
2, 174060, Note_on_c, 0, 59, 83
2, 174060, Note_on_c, 0, 63, 83
2, 174149, Note_on_c, 0, 63, 0
2, 174149, Note_on_c, 0, 59, 0
2, 174149, Note_on_c, 0, 54, 0
2, 174240, Note_on_c, 0, 54, 79
2, 174240, Note_on_c, 0, 59, 79
2, 174240, Note_on_c, 0, 63, 79
2, 174329, Note_on_c, 0, 63, 0
2, 174329, Note_on_c, 0, 59, 0
2, 174329, Note_on_c, 0, 54, 0
2, 174420, Note_on_c, 0, 38, 75
2, 174600, Note_on_c, 0, 38, 0
2, 174600, Note_on_c, 0, 54, 70
2, 174600, Note_on_c, 0, 60, 70
2, 174600, Note_on_c, 0, 63, 70
2, 174689, Note_on_c, 0, 63, 0
2, 174689, Note_on_c, 0, 60, 0
2, 174689, Note_on_c, 0, 54, 0
2, 174780, Note_on_c, 0, 54, 66
2, 174780, Note_on_c, 0, 60, 66
2, 174780, Note_on_c, 0, 63, 66
2, 174869, Note_on_c, 0, 63, 0
2, 174869, Note_on_c, 0, 60, 0
2, 174869, Note_on_c, 0, 54, 0
2, 174960, Note_on_c, 0, 38, 62
2, 175140, Note_on_c, 0, 38, 0
2, 175140, Note_on_c, 0, 54, 47
2, 175140, Note_on_c, 0, 60, 47
2, 175140, Note_on_c, 0, 63, 47
2, 175229, Note_on_c, 0, 63, 0
2, 175229, Note_on_c, 0, 60, 0
2, 175229, Note_on_c, 0, 54, 0
2, 175320, Note_on_c, 0, 54, 50
2, 175320, Note_on_c, 0, 60, 50
2, 175320, Note_on_c, 0, 63, 50
2, 175409, Note_on_c, 0, 63, 0
2, 175409, Note_on_c, 0, 60, 0
2, 175409, Note_on_c, 0, 54, 0
2, 178200, Note_on_c, 0, 48, 78
2, 178200, Note_on_c, 0, 60, 81
2, 178200, Note_on_c, 0, 63, 81
2, 178200, Note_on_c, 0, 66, 81
2, 178200, Note_on_c, 0, 57, 71
2, 178259, Note_on_c, 0, 48, 0
2, 178259, Note_on_c, 0, 50, 93
2, 178320, Note_on_c, 0, 50, 0
2, 178320, Note_on_c, 0, 51, 94
2, 178380, Note_on_c, 0, 51, 0
2, 178380, Note_on_c, 0, 48, 82
2, 178619, Note_on_c, 0, 48, 0
2, 178619, Note_on_c, 0, 50, 94
2, 178680, Note_on_c, 0, 50, 0
2, 178680, Note_on_c, 0, 51, 90
2, 178740, Note_on_c, 0, 51, 0
2, 178740, Note_on_c, 0, 57, 0
2, 178740, Note_on_c, 0, 48, 81
2, 178740, Note_on_c, 0, 58, 78
2, 178799, Note_on_c, 0, 48, 0
2, 178799, Note_on_c, 0, 50, 89
2, 178860, Note_on_c, 0, 50, 0
2, 178860, Note_on_c, 0, 51, 93
2, 178920, Note_on_c, 0, 51, 0
2, 178920, Note_on_c, 0, 48, 86
2, 178979, Note_on_c, 0, 48, 0
2, 178979, Note_on_c, 0, 50, 93
2, 179040, Note_on_c, 0, 50, 0
2, 179040, Note_on_c, 0, 51, 86
2, 179100, Note_on_c, 0, 51, 0
2, 179100, Note_on_c, 0, 48, 85
2, 179280, Note_on_c, 0, 48, 0
2, 179280, Note_on_c, 0, 58, 0
2, 179280, Note_on_c, 0, 48, 87
2, 179280, Note_on_c, 0, 57, 68
2, 179339, Note_on_c, 0, 48, 0
2, 179339, Note_on_c, 0, 50, 86
2, 179400, Note_on_c, 0, 50, 0
2, 179400, Note_on_c, 0, 51, 84
2, 179460, Note_on_c, 0, 51, 0
2, 179460, Note_on_c, 0, 48, 83
2, 179699, Note_on_c, 0, 48, 0
2, 179699, Note_on_c, 0, 50, 77
2, 179760, Note_on_c, 0, 50, 0
2, 179760, Note_on_c, 0, 51, 76
2, 179820, Note_on_c, 0, 51, 0
2, 179820, Note_on_c, 0, 57, 0
2, 179820, Note_on_c, 0, 48, 75
2, 179820, Note_on_c, 0, 58, 72
2, 180059, Note_on_c, 0, 48, 0
2, 180059, Note_on_c, 0, 50, 69
2, 180120, Note_on_c, 0, 50, 0
2, 180120, Note_on_c, 0, 51, 68
2, 180180, Note_on_c, 0, 51, 0
2, 180180, Note_on_c, 0, 48, 66
2, 180360, Note_on_c, 0, 58, 0
2, 180360, Note_on_c, 0, 57, 72
2, 180779, Note_on_c, 0, 48, 0
2, 180779, Note_on_c, 0, 50, 62
2, 180840, Note_on_c, 0, 50, 0
2, 180840, Note_on_c, 0, 51, 65
2, 180900, Note_on_c, 0, 51, 0
2, 180900, Note_on_c, 0, 48, 53
2, 181620, Note_on_c, 0, 60, 0
2, 181620, Note_on_c, 0, 57, 0
2, 181620, Note_on_c, 0, 66, 0
2, 181620, Note_on_c, 0, 63, 0
2, 181980, Note_on_c, 0, 48, 0
2, 181980, Note_on_c, 0, 49, 69
2, 182454, Note_on_c, 0, 49, 0
2, 182520, Note_on_c, 0, 50, 59
2, 183240, Note_on_c, 0, 50, 0
2, 183240, Note_on_c, 0, 51, 54
2, 183600, Note_on_c, 0, 51, 0
2, 183600, Note_on_c, 0, 54, 54
2, 184680, Note_on_c, 0, 54, 0
2, 184680, Note_on_c, 0, 55, 52
2, 184860, Note_on_c, 0, 55, 0
2, 186840, Note_on_c, 0, 31, 42
2, 186840, Note_on_c, 0, 43, 42
2, 186929, Note_on_c, 0, 43, 0
2, 186929, Note_on_c, 0, 31, 0
2, 187020, Note_on_c, 0, 50, 63
2, 187020, Note_on_c, 0, 55, 63
2, 187020, Note_on_c, 0, 58, 63
2, 187109, Note_on_c, 0, 58, 0
2, 187109, Note_on_c, 0, 55, 0
2, 187109, Note_on_c, 0, 50, 0
2, 187200, Note_on_c, 0, 50, 52
2, 187200, Note_on_c, 0, 55, 52
2, 187200, Note_on_c, 0, 58, 52
2, 187289, Note_on_c, 0, 58, 0
2, 187289, Note_on_c, 0, 55, 0
2, 187289, Note_on_c, 0, 50, 0
2, 187380, Note_on_c, 0, 38, 75
2, 187560, Note_on_c, 0, 38, 0
2, 187560, Note_on_c, 0, 53, 47
2, 187560, Note_on_c, 0, 57, 47
2, 187560, Note_on_c, 0, 62, 47
2, 187649, Note_on_c, 0, 62, 0
2, 187649, Note_on_c, 0, 57, 0
2, 187649, Note_on_c, 0, 53, 0
2, 187740, Note_on_c, 0, 57, 52
2, 187740, Note_on_c, 0, 62, 52
2, 187740, Note_on_c, 0, 53, 61
2, 187829, Note_on_c, 0, 62, 0
2, 187829, Note_on_c, 0, 57, 0
2, 187830, Note_on_c, 0, 53, 0
2, 187830, Note_on_c, 0, 55, 76
2, 187920, Note_on_c, 0, 55, 0
2, 187920, Note_on_c, 0, 56, 78
2, 187920, Note_on_c, 0, 41, 80
2, 188100, Note_on_c, 0, 41, 0
2, 188100, Note_on_c, 0, 53, 47
2, 188100, Note_on_c, 0, 60, 47
2, 188189, Note_on_c, 0, 60, 0
2, 188189, Note_on_c, 0, 53, 0
2, 188190, Note_on_c, 0, 56, 0
2, 188190, Note_on_c, 0, 58, 69
2, 188280, Note_on_c, 0, 58, 0
2, 188280, Note_on_c, 0, 53, 47
2, 188280, Note_on_c, 0, 56, 47
2, 188280, Note_on_c, 0, 60, 80
2, 188369, Note_on_c, 0, 56, 0
2, 188369, Note_on_c, 0, 53, 0
2, 188370, Note_on_c, 0, 60, 0
2, 188370, Note_on_c, 0, 62, 81
2, 188460, Note_on_c, 0, 62, 0
2, 188460, Note_on_c, 0, 63, 60
2, 188460, Note_on_c, 0, 36, 79
2, 188460, Note_on_c, 0, 48, 79
2, 188640, Note_on_c, 0, 48, 0
2, 188640, Note_on_c, 0, 36, 0
2, 188640, Note_on_c, 0, 51, 64
2, 188640, Note_on_c, 0, 55, 64
2, 188729, Note_on_c, 0, 55, 0
2, 188729, Note_on_c, 0, 51, 0
2, 188820, Note_on_c, 0, 63, 0
2, 188820, Note_on_c, 0, 62, 50
2, 188820, Note_on_c, 0, 51, 73
2, 188820, Note_on_c, 0, 55, 73
2, 188909, Note_on_c, 0, 55, 0
2, 188909, Note_on_c, 0, 51, 0
2, 189000, Note_on_c, 0, 62, 0
2, 189000, Note_on_c, 0, 61, 47
2, 189000, Note_on_c, 0, 33, 74
2, 189000, Note_on_c, 0, 45, 74
2, 189090, Note_on_c, 0, 61, 0
2, 189090, Note_on_c, 0, 62, 52
2, 189180, Note_on_c, 0, 62, 0
2, 189180, Note_on_c, 0, 45, 0
2, 189180, Note_on_c, 0, 33, 0
2, 189180, Note_on_c, 0, 61, 49
2, 189180, Note_on_c, 0, 51, 77
2, 189180, Note_on_c, 0, 55, 77
2, 189269, Note_on_c, 0, 55, 0
2, 189269, Note_on_c, 0, 51, 0
2, 189360, Note_on_c, 0, 61, 0
2, 189360, Note_on_c, 0, 60, 54
2, 189360, Note_on_c, 0, 51, 75
2, 189360, Note_on_c, 0, 55, 75
2, 189449, Note_on_c, 0, 55, 0
2, 189449, Note_on_c, 0, 51, 0
2, 189450, Note_on_c, 0, 60, 0
2, 189450, Note_on_c, 0, 61, 53
2, 189540, Note_on_c, 0, 61, 0
2, 189540, Note_on_c, 0, 62, 52
2, 189540, Note_on_c, 0, 38, 78
2, 189720, Note_on_c, 0, 38, 0
2, 189720, Note_on_c, 0, 54, 62
2, 189720, Note_on_c, 0, 57, 62
2, 189809, Note_on_c, 0, 57, 0
2, 189809, Note_on_c, 0, 54, 0
2, 189900, Note_on_c, 0, 54, 67
2, 189900, Note_on_c, 0, 57, 67
2, 189989, Note_on_c, 0, 57, 0
2, 189989, Note_on_c, 0, 54, 0
2, 190080, Note_on_c, 0, 62, 0
2, 190080, Note_on_c, 0, 62, 51
2, 190080, Note_on_c, 0, 39, 78
2, 190169, Note_on_c, 0, 39, 0
2, 190260, Note_on_c, 0, 54, 63
2, 190260, Note_on_c, 0, 58, 63
2, 190349, Note_on_c, 0, 58, 0
2, 190349, Note_on_c, 0, 54, 0
2, 190440, Note_on_c, 0, 62, 0
2, 190440, Note_on_c, 0, 58, 51
2, 190440, Note_on_c, 0, 54, 68
2, 190529, Note_on_c, 0, 54, 0
2, 190530, Note_on_c, 0, 58, 0
2, 190530, Note_on_c, 0, 60, 53
2, 190620, Note_on_c, 0, 60, 0
2, 190620, Note_on_c, 0, 62, 51
2, 190620, Note_on_c, 0, 40, 81
2, 190709, Note_on_c, 0, 40, 0
2, 190710, Note_on_c, 0, 62, 0
2, 190710, Note_on_c, 0, 61, 50
2, 190800, Note_on_c, 0, 61, 0
2, 190800, Note_on_c, 0, 62, 53
2, 190800, Note_on_c, 0, 55, 64
2, 190800, Note_on_c, 0, 58, 64
2, 190889, Note_on_c, 0, 58, 0
2, 190889, Note_on_c, 0, 55, 0
2, 190890, Note_on_c, 0, 62, 0
2, 190890, Note_on_c, 0, 67, 62
2, 190980, Note_on_c, 0, 67, 0
2, 190980, Note_on_c, 0, 65, 45
2, 190980, Note_on_c, 0, 58, 73
2, 190980, Note_on_c, 0, 55, 76
2, 191069, Note_on_c, 0, 55, 0
2, 191069, Note_on_c, 0, 58, 0
2, 191070, Note_on_c, 0, 65, 0
2, 191070, Note_on_c, 0, 63, 48
2, 191160, Note_on_c, 0, 63, 0
2, 191160, Note_on_c, 0, 63, 53
2, 191160, Note_on_c, 0, 42, 71
2, 191249, Note_on_c, 0, 42, 0
2, 191340, Note_on_c, 0, 60, 66
2, 191340, Note_on_c, 0, 57, 100
2, 191429, Note_on_c, 0, 57, 0
2, 191429, Note_on_c, 0, 60, 0
2, 191430, Note_on_c, 0, 63, 0
2, 191430, Note_on_c, 0, 69, 57
2, 191520, Note_on_c, 0, 69, 0
2, 191520, Note_on_c, 0, 72, 62
2, 191520, Note_on_c, 0, 60, 84
2, 191520, Note_on_c, 0, 63, 84
2, 191520, Note_on_c, 0, 57, 89
2, 191609, Note_on_c, 0, 57, 0
2, 191609, Note_on_c, 0, 63, 0
2, 191609, Note_on_c, 0, 60, 0
2, 191610, Note_on_c, 0, 72, 0
2, 191610, Note_on_c, 0, 70, 43
2, 191700, Note_on_c, 0, 70, 0
2, 191700, Note_on_c, 0, 68, 48
2, 191700, Note_on_c, 0, 41, 78
2, 191789, Note_on_c, 0, 41, 0
2, 191790, Note_on_c, 0, 68, 0
2, 191790, Note_on_c, 0, 70, 58
2, 191880, Note_on_c, 0, 70, 0
2, 191880, Note_on_c, 0, 68, 44
2, 191880, Note_on_c, 0, 60, 64
2, 191880, Note_on_c, 0, 65, 64
2, 191880, Note_on_c, 0, 56, 100
2, 191969, Note_on_c, 0, 56, 0
2, 191969, Note_on_c, 0, 65, 0
2, 191969, Note_on_c, 0, 60, 0
2, 192060, Note_on_c, 0, 60, 75
2, 192060, Note_on_c, 0, 65, 75
2, 192060, Note_on_c, 0, 56, 90
2, 192149, Note_on_c, 0, 56, 0
2, 192149, Note_on_c, 0, 65, 0
2, 192149, Note_on_c, 0, 60, 0
2, 192150, Note_on_c, 0, 68, 0
2, 192150, Note_on_c, 0, 70, 58
2, 192240, Note_on_c, 0, 70, 0
2, 192240, Note_on_c, 0, 67, 49
2, 192240, Note_on_c, 0, 39, 75
2, 192329, Note_on_c, 0, 39, 0
2, 192420, Note_on_c, 0, 60, 64
2, 192420, Note_on_c, 0, 55, 97
2, 192509, Note_on_c, 0, 55, 0
2, 192509, Note_on_c, 0, 60, 0
2, 192510, Note_on_c, 0, 67, 0
2, 192510, Note_on_c, 0, 71, 62
2, 192600, Note_on_c, 0, 71, 0
2, 192600, Note_on_c, 0, 74, 54
2, 192600, Note_on_c, 0, 60, 86
2, 192600, Note_on_c, 0, 67, 86
2, 192600, Note_on_c, 0, 55, 84
2, 192689, Note_on_c, 0, 55, 0
2, 192689, Note_on_c, 0, 67, 0
2, 192689, Note_on_c, 0, 60, 0
2, 192690, Note_on_c, 0, 74, 0
2, 192690, Note_on_c, 0, 73, 51
2, 192780, Note_on_c, 0, 73, 0
2, 192780, Note_on_c, 0, 72, 47
2, 192780, Note_on_c, 0, 32, 76
2, 192780, Note_on_c, 0, 44, 76
2, 192869, Note_on_c, 0, 44, 0
2, 192869, Note_on_c, 0, 32, 0
2, 192960, Note_on_c, 0, 68, 69
2, 192960, Note_on_c, 0, 54, 115
2, 192960, Note_on_c, 0, 60, 115
2, 192960, Note_on_c, 0, 63, 115
2, 193049, Note_on_c, 0, 63, 0
2, 193049, Note_on_c, 0, 54, 0
2, 193049, Note_on_c, 0, 60, 0
2, 193049, Note_on_c, 0, 68, 0
2, 193050, Note_on_c, 0, 72, 0
2, 193050, Note_on_c, 0, 74, 49
2, 193140, Note_on_c, 0, 74, 0
2, 193140, Note_on_c, 0, 77, 53
2, 193140, Note_on_c, 0, 68, 73
2, 193140, Note_on_c, 0, 54, 93
2, 193140, Note_on_c, 0, 60, 93
2, 193140, Note_on_c, 0, 63, 93
2, 193229, Note_on_c, 0, 63, 0
2, 193229, Note_on_c, 0, 54, 0
2, 193229, Note_on_c, 0, 60, 0
2, 193229, Note_on_c, 0, 68, 0
2, 193230, Note_on_c, 0, 77, 0
2, 193230, Note_on_c, 0, 75, 46
2, 193320, Note_on_c, 0, 75, 0
2, 193320, Note_on_c, 0, 73, 52
2, 193320, Note_on_c, 0, 38, 76
2, 193320, Note_on_c, 0, 50, 76
2, 193409, Note_on_c, 0, 50, 0
2, 193409, Note_on_c, 0, 38, 0
2, 193500, Note_on_c, 0, 73, 0
2, 193500, Note_on_c, 0, 74, 53
2, 193500, Note_on_c, 0, 66, 65
2, 193500, Note_on_c, 0, 57, 108
2, 193500, Note_on_c, 0, 62, 108
2, 193589, Note_on_c, 0, 62, 0
2, 193589, Note_on_c, 0, 57, 0
2, 193589, Note_on_c, 0, 66, 0
2, 193590, Note_on_c, 0, 74, 0
2, 193590, Note_on_c, 0, 75, 55
2, 193680, Note_on_c, 0, 75, 0
2, 193680, Note_on_c, 0, 74, 44
2, 193680, Note_on_c, 0, 66, 71
2, 193680, Note_on_c, 0, 57, 93
2, 193680, Note_on_c, 0, 62, 93
2, 193769, Note_on_c, 0, 62, 0
2, 193769, Note_on_c, 0, 57, 0
2, 193769, Note_on_c, 0, 66, 0
2, 193860, Note_on_c, 0, 36, 72
2, 193860, Note_on_c, 0, 48, 72
2, 193949, Note_on_c, 0, 48, 0
2, 193949, Note_on_c, 0, 36, 0
2, 194040, Note_on_c, 0, 74, 0
2, 194040, Note_on_c, 0, 62, 68
2, 194040, Note_on_c, 0, 54, 98
2, 194040, Note_on_c, 0, 58, 98
2, 194129, Note_on_c, 0, 58, 0
2, 194129, Note_on_c, 0, 54, 0
2, 194129, Note_on_c, 0, 62, 0
2, 194130, Note_on_c, 0, 69, 50
2, 194220, Note_on_c, 0, 69, 0
2, 194220, Note_on_c, 0, 70, 54
2, 194220, Note_on_c, 0, 62, 72
2, 194220, Note_on_c, 0, 54, 92
2, 194220, Note_on_c, 0, 58, 92
2, 194309, Note_on_c, 0, 58, 0
2, 194309, Note_on_c, 0, 54, 0
2, 194309, Note_on_c, 0, 62, 0
2, 194310, Note_on_c, 0, 70, 0
2, 194310, Note_on_c, 0, 71, 54
2, 194400, Note_on_c, 0, 71, 0
2, 194400, Note_on_c, 0, 72, 53
2, 194400, Note_on_c, 0, 34, 73
2, 194400, Note_on_c, 0, 46, 73
2, 194489, Note_on_c, 0, 46, 0
2, 194489, Note_on_c, 0, 34, 0
2, 194489, Note_on_c, 0, 72, 0
2, 194580, Note_on_c, 0, 62, 41
2, 194580, Note_on_c, 0, 60, 64
2, 194580, Note_on_c, 0, 54, 95
2, 194669, Note_on_c, 0, 54, 0
2, 194670, Note_on_c, 0, 62, 0
2, 194670, Note_on_c, 0, 63, 53
2, 194760, Note_on_c, 0, 63, 0
2, 194760, Note_on_c, 0, 60, 0
2, 194760, Note_on_c, 0, 64, 49
2, 194760, Note_on_c, 0, 60, 71
2, 194760, Note_on_c, 0, 54, 84
2, 194849, Note_on_c, 0, 54, 0
2, 194850, Note_on_c, 0, 64, 0
2, 194850, Note_on_c, 0, 65, 54
2, 194940, Note_on_c, 0, 65, 0
2, 194940, Note_on_c, 0, 60, 0
2, 194940, Note_on_c, 0, 66, 53
2, 194940, Note_on_c, 0, 33, 75
2, 194940, Note_on_c, 0, 45, 75
2, 195029, Note_on_c, 0, 45, 0
2, 195029, Note_on_c, 0, 33, 0
2, 195029, Note_on_c, 0, 66, 0
2, 195480, Note_on_c, 0, 79, 77
2, 195480, Note_on_c, 0, 43, 56
2, 195660, Note_on_c, 0, 43, 0
2, 195660, Note_on_c, 0, 50, 78
2, 195660, Note_on_c, 0, 55, 78
2, 195660, Note_on_c, 0, 58, 78
2, 195660, Note_on_c, 0, 62, 78
2, 195749, Note_on_c, 0, 62, 0
2, 195749, Note_on_c, 0, 55, 0
2, 195749, Note_on_c, 0, 58, 0
2, 195749, Note_on_c, 0, 50, 0
2, 195840, Note_on_c, 0, 74, 65
2, 195840, Note_on_c, 0, 50, 65
2, 195840, Note_on_c, 0, 55, 65
2, 195840, Note_on_c, 0, 58, 65
2, 195840, Note_on_c, 0, 62, 65
2, 195929, Note_on_c, 0, 62, 0
2, 195929, Note_on_c, 0, 55, 0
2, 195929, Note_on_c, 0, 50, 0
2, 195929, Note_on_c, 0, 58, 0
2, 195930, Note_on_c, 0, 74, 0
2, 195930, Note_on_c, 0, 72, 71
2, 196020, Note_on_c, 0, 72, 0
2, 196020, Note_on_c, 0, 79, 0
2, 196020, Note_on_c, 0, 78, 84
2, 196020, Note_on_c, 0, 70, 69
2, 196020, Note_on_c, 0, 46, 55
2, 196200, Note_on_c, 0, 46, 0
2, 196200, Note_on_c, 0, 70, 0
2, 196200, Note_on_c, 0, 78, 0
2, 196200, Note_on_c, 0, 74, 72
2, 196200, Note_on_c, 0, 69, 63
2, 196200, Note_on_c, 0, 57, 83
2, 196200, Note_on_c, 0, 58, 83
2, 196200, Note_on_c, 0, 62, 83
2, 196289, Note_on_c, 0, 62, 0
2, 196289, Note_on_c, 0, 57, 0
2, 196289, Note_on_c, 0, 58, 0
2, 196290, Note_on_c, 0, 69, 0
2, 196290, Note_on_c, 0, 70, 74
2, 196380, Note_on_c, 0, 70, 0
2, 196380, Note_on_c, 0, 74, 0
2, 196380, Note_on_c, 0, 77, 97
2, 196380, Note_on_c, 0, 68, 66
2, 196380, Note_on_c, 0, 56, 64
2, 196380, Note_on_c, 0, 58, 64
2, 196380, Note_on_c, 0, 62, 64
2, 196469, Note_on_c, 0, 62, 0
2, 196469, Note_on_c, 0, 56, 0
2, 196469, Note_on_c, 0, 58, 0
2, 196470, Note_on_c, 0, 68, 0
2, 196470, Note_on_c, 0, 70, 77
2, 196560, Note_on_c, 0, 70, 0
2, 196560, Note_on_c, 0, 77, 0
2, 196560, Note_on_c, 0, 70, 71
2, 196560, Note_on_c, 0, 67, 67
2, 196560, Note_on_c, 0, 48, 51
2, 196740, Note_on_c, 0, 48, 0
2, 196740, Note_on_c, 0, 67, 0
2, 196740, Note_on_c, 0, 55, 78
2, 196740, Note_on_c, 0, 58, 78
2, 196740, Note_on_c, 0, 63, 78
2, 196920, Note_on_c, 0, 63, 0
2, 196920, Note_on_c, 0, 70, 0
2, 196920, Note_on_c, 0, 55, 0
2, 196920, Note_on_c, 0, 58, 0
2, 196920, Note_on_c, 0, 72, 92
2, 196920, Note_on_c, 0, 69, 65
2, 196920, Note_on_c, 0, 55, 66
2, 196920, Note_on_c, 0, 58, 66
2, 196920, Note_on_c, 0, 63, 66
2, 197010, Note_on_c, 0, 69, 0
2, 197010, Note_on_c, 0, 67, 72
2, 197100, Note_on_c, 0, 67, 0
2, 197100, Note_on_c, 0, 63, 0
2, 197100, Note_on_c, 0, 72, 0
2, 197100, Note_on_c, 0, 55, 0
2, 197100, Note_on_c, 0, 58, 0
2, 197100, Note_on_c, 0, 74, 91
2, 197100, Note_on_c, 0, 65, 67
2, 197100, Note_on_c, 0, 50, 50
2, 197189, Note_on_c, 0, 50, 0
2, 197190, Note_on_c, 0, 65, 0
2, 197190, Note_on_c, 0, 67, 83
2, 197280, Note_on_c, 0, 67, 0
2, 197280, Note_on_c, 0, 69, 83
2, 197280, Note_on_c, 0, 57, 77
2, 197280, Note_on_c, 0, 62, 77
2, 197280, Note_on_c, 0, 65, 77
2, 197369, Note_on_c, 0, 65, 0
2, 197369, Note_on_c, 0, 57, 0
2, 197369, Note_on_c, 0, 62, 0
2, 197460, Note_on_c, 0, 57, 62
2, 197460, Note_on_c, 0, 62, 62
2, 197460, Note_on_c, 0, 65, 62
2, 197549, Note_on_c, 0, 65, 0
2, 197549, Note_on_c, 0, 57, 0
2, 197549, Note_on_c, 0, 62, 0
2, 197640, Note_on_c, 0, 69, 0
2, 197640, Note_on_c, 0, 74, 0
2, 197640, Note_on_c, 0, 50, 55
2, 197729, Note_on_c, 0, 50, 0
2, 197730, Note_on_c, 0, 70, 69
2, 197820, Note_on_c, 0, 70, 0
2, 197820, Note_on_c, 0, 77, 79
2, 197820, Note_on_c, 0, 69, 65
2, 197820, Note_on_c, 0, 57, 81
2, 197820, Note_on_c, 0, 61, 81
2, 197820, Note_on_c, 0, 65, 81
2, 197909, Note_on_c, 0, 65, 0
2, 197909, Note_on_c, 0, 57, 0
2, 197909, Note_on_c, 0, 61, 0
2, 197910, Note_on_c, 0, 69, 0
2, 197910, Note_on_c, 0, 73, 83
2, 198000, Note_on_c, 0, 73, 0
2, 198000, Note_on_c, 0, 77, 0
2, 198000, Note_on_c, 0, 78, 93
2, 198000, Note_on_c, 0, 72, 69
2, 198000, Note_on_c, 0, 58, 67
2, 198000, Note_on_c, 0, 60, 67
2, 198000, Note_on_c, 0, 66, 67
2, 198089, Note_on_c, 0, 66, 0
2, 198089, Note_on_c, 0, 58, 0
2, 198089, Note_on_c, 0, 60, 0
2, 198090, Note_on_c, 0, 72, 0
2, 198090, Note_on_c, 0, 75, 79
2, 198180, Note_on_c, 0, 75, 0
2, 198180, Note_on_c, 0, 78, 0
2, 198180, Note_on_c, 0, 82, 97
2, 198180, Note_on_c, 0, 73, 69
2, 198180, Note_on_c, 0, 46, 53
2, 198269, Note_on_c, 0, 46, 0
2, 198360, Note_on_c, 0, 53, 80
2, 198360, Note_on_c, 0, 58, 80
2, 198360, Note_on_c, 0, 61, 80
2, 198360, Note_on_c, 0, 65, 80
2, 198449, Note_on_c, 0, 65, 0
2, 198449, Note_on_c, 0, 58, 0
2, 198449, Note_on_c, 0, 53, 0
2, 198449, Note_on_c, 0, 61, 0
2, 198450, Note_on_c, 0, 73, 0
2, 198450, Note_on_c, 0, 72, 71
2, 198540, Note_on_c, 0, 72, 0
2, 198540, Note_on_c, 0, 73, 72
2, 198540, Note_on_c, 0, 53, 65
2, 198540, Note_on_c, 0, 58, 65
2, 198540, Note_on_c, 0, 61, 65
2, 198540, Note_on_c, 0, 65, 65
2, 198629, Note_on_c, 0, 65, 0
2, 198629, Note_on_c, 0, 58, 0
2, 198629, Note_on_c, 0, 53, 0
2, 198629, Note_on_c, 0, 61, 0
2, 198630, Note_on_c, 0, 73, 0
2, 198630, Note_on_c, 0, 75, 79
2, 198720, Note_on_c, 0, 75, 0
2, 198720, Note_on_c, 0, 82, 0
2, 198720, Note_on_c, 0, 81, 82
2, 198720, Note_on_c, 0, 72, 67
2, 198720, Note_on_c, 0, 49, 49
2, 198809, Note_on_c, 0, 49, 0
2, 198810, Note_on_c, 0, 72, 0
2, 198810, Note_on_c, 0, 75, 82
2, 198900, Note_on_c, 0, 75, 0
2, 198900, Note_on_c, 0, 81, 0
2, 198900, Note_on_c, 0, 77, 75
2, 198900, Note_on_c, 0, 72, 64
2, 198900, Note_on_c, 0, 57, 76
2, 198900, Note_on_c, 0, 60, 76
2, 198900, Note_on_c, 0, 63, 76
2, 198900, Note_on_c, 0, 65, 76
2, 198989, Note_on_c, 0, 65, 0
2, 198989, Note_on_c, 0, 60, 0
2, 198989, Note_on_c, 0, 57, 0
2, 198989, Note_on_c, 0, 63, 0
2, 198990, Note_on_c, 0, 72, 0
2, 198990, Note_on_c, 0, 73, 78
2, 199080, Note_on_c, 0, 73, 0
2, 199080, Note_on_c, 0, 77, 0
2, 199080, Note_on_c, 0, 80, 96
2, 199080, Note_on_c, 0, 71, 69
2, 199080, Note_on_c, 0, 56, 57
2, 199080, Note_on_c, 0, 59, 57
2, 199080, Note_on_c, 0, 63, 57
2, 199080, Note_on_c, 0, 65, 57
2, 199169, Note_on_c, 0, 65, 0
2, 199169, Note_on_c, 0, 59, 0
2, 199169, Note_on_c, 0, 56, 0
2, 199169, Note_on_c, 0, 63, 0
2, 199170, Note_on_c, 0, 71, 0
2, 199170, Note_on_c, 0, 73, 81
2, 199260, Note_on_c, 0, 73, 0
2, 199260, Note_on_c, 0, 80, 0
2, 199260, Note_on_c, 0, 74, 72
2, 199260, Note_on_c, 0, 70, 68
2, 199260, Note_on_c, 0, 51, 54
2, 199349, Note_on_c, 0, 51, 0
2, 199440, Note_on_c, 0, 70, 0
2, 199440, Note_on_c, 0, 58, 76
2, 199440, Note_on_c, 0, 61, 76
2, 199440, Note_on_c, 0, 66, 76
2, 199529, Note_on_c, 0, 66, 0
2, 199529, Note_on_c, 0, 61, 0
2, 199529, Note_on_c, 0, 58, 0
2, 199530, Note_on_c, 0, 72, 62
2, 199620, Note_on_c, 0, 72, 0
2, 199620, Note_on_c, 0, 74, 0
2, 199620, Note_on_c, 0, 75, 86
2, 199620, Note_on_c, 0, 70, 68
2, 199620, Note_on_c, 0, 58, 63
2, 199620, Note_on_c, 0, 63, 63
2, 199620, Note_on_c, 0, 66, 63
2, 199709, Note_on_c, 0, 66, 0
2, 199709, Note_on_c, 0, 58, 0
2, 199709, Note_on_c, 0, 63, 0
2, 199710, Note_on_c, 0, 70, 0
2, 199710, Note_on_c, 0, 72, 78
2, 199800, Note_on_c, 0, 72, 0
2, 199800, Note_on_c, 0, 75, 0
2, 199800, Note_on_c, 0, 77, 96
2, 199800, Note_on_c, 0, 68, 66
2, 199800, Note_on_c, 0, 53, 52
2, 199890, Note_on_c, 0, 68, 0
2, 199890, Note_on_c, 0, 70, 76
2, 199980, Note_on_c, 0, 70, 0
2, 199980, Note_on_c, 0, 53, 0
2, 199980, Note_on_c, 0, 72, 78
2, 199980, Note_on_c, 0, 56, 83
2, 199980, Note_on_c, 0, 60, 83
2, 199980, Note_on_c, 0, 65, 83
2, 200069, Note_on_c, 0, 65, 0
2, 200069, Note_on_c, 0, 56, 0
2, 200069, Note_on_c, 0, 60, 0
2, 200160, Note_on_c, 0, 56, 65
2, 200160, Note_on_c, 0, 60, 65
2, 200160, Note_on_c, 0, 65, 65
2, 200249, Note_on_c, 0, 65, 0
2, 200249, Note_on_c, 0, 56, 0
2, 200249, Note_on_c, 0, 60, 0
2, 200250, Note_on_c, 0, 72, 0
2, 200250, Note_on_c, 0, 70, 69
2, 200340, Note_on_c, 0, 70, 0
2, 200340, Note_on_c, 0, 77, 0
2, 200340, Note_on_c, 0, 71, 75
2, 200430, Note_on_c, 0, 71, 0
2, 200430, Note_on_c, 0, 73, 81
2, 200520, Note_on_c, 0, 73, 0
2, 200520, Note_on_c, 0, 68, 80
2, 200520, Note_on_c, 0, 80, 80
2, 200520, Note_on_c, 0, 74, 73
2, 200520, Note_on_c, 0, 62, 57
2, 200520, Note_on_c, 0, 56, 64
2, 200520, Note_on_c, 0, 59, 64
2, 200610, Note_on_c, 0, 62, 0
2, 200610, Note_on_c, 0, 74, 0
2, 200610, Note_on_c, 0, 76, 80
2, 200610, Note_on_c, 0, 64, 66
2, 200700, Note_on_c, 0, 64, 0
2, 200700, Note_on_c, 0, 59, 0
2, 200700, Note_on_c, 0, 80, 0
2, 200700, Note_on_c, 0, 68, 0
2, 200700, Note_on_c, 0, 76, 0
2, 200700, Note_on_c, 0, 56, 0
2, 200700, Note_on_c, 0, 69, 86
2, 200700, Note_on_c, 0, 72, 86
2, 200700, Note_on_c, 0, 81, 86
2, 200700, Note_on_c, 0, 77, 78
2, 200700, Note_on_c, 0, 65, 68
2, 200700, Note_on_c, 0, 57, 79
2, 200700, Note_on_c, 0, 61, 79
2, 200880, Note_on_c, 0, 61, 0
2, 200880, Note_on_c, 0, 65, 0
2, 200880, Note_on_c, 0, 72, 0
2, 200880, Note_on_c, 0, 81, 0
2, 200880, Note_on_c, 0, 69, 0
2, 200880, Note_on_c, 0, 57, 0
2, 200880, Note_on_c, 0, 77, 0
2, 200880, Note_on_c, 0, 73, 99
2, 200880, Note_on_c, 0, 85, 99
2, 200880, Note_on_c, 0, 81, 79
2, 200880, Note_on_c, 0, 69, 72
2, 200880, Note_on_c, 0, 61, 84
2, 200880, Note_on_c, 0, 66, 84
2, 201150, Note_on_c, 0, 69, 0
2, 201150, Note_on_c, 0, 81, 0
2, 201150, Note_on_c, 0, 80, 71
2, 201150, Note_on_c, 0, 68, 60
2, 201240, Note_on_c, 0, 68, 0
2, 201240, Note_on_c, 0, 80, 0
2, 201240, Note_on_c, 0, 81, 75
2, 201240, Note_on_c, 0, 69, 68
2, 201420, Note_on_c, 0, 85, 0
2, 201420, Note_on_c, 0, 61, 0
2, 201420, Note_on_c, 0, 73, 0
2, 201420, Note_on_c, 0, 66, 0
2, 201420, Note_on_c, 0, 72, 88
2, 201420, Note_on_c, 0, 84, 88
2, 201420, Note_on_c, 0, 60, 74
2, 201420, Note_on_c, 0, 66, 74
2, 201600, Note_on_c, 0, 69, 0
2, 201600, Note_on_c, 0, 81, 0
2, 201600, Note_on_c, 0, 80, 67
2, 201600, Note_on_c, 0, 68, 57
2, 201690, Note_on_c, 0, 68, 0
2, 201690, Note_on_c, 0, 80, 0
2, 201690, Note_on_c, 0, 78, 68
2, 201690, Note_on_c, 0, 66, 59
2, 201780, Note_on_c, 0, 66, 0
2, 201780, Note_on_c, 0, 66, 0
2, 201780, Note_on_c, 0, 60, 0
2, 201780, Note_on_c, 0, 84, 0
2, 201780, Note_on_c, 0, 78, 0
2, 201780, Note_on_c, 0, 72, 0
2, 201780, Note_on_c, 0, 69, 76
2, 201780, Note_on_c, 0, 81, 76
2, 201780, Note_on_c, 0, 77, 69
2, 201780, Note_on_c, 0, 65, 51
2, 201780, Note_on_c, 0, 57, 64
2, 201780, Note_on_c, 0, 60, 64
2, 201870, Note_on_c, 0, 65, 0
2, 201870, Note_on_c, 0, 77, 0
2, 201870, Note_on_c, 0, 75, 66
2, 201870, Note_on_c, 0, 63, 56
2, 201960, Note_on_c, 0, 63, 0
2, 201960, Note_on_c, 0, 60, 0
2, 201960, Note_on_c, 0, 81, 0
2, 201960, Note_on_c, 0, 69, 0
2, 201960, Note_on_c, 0, 75, 0
2, 201960, Note_on_c, 0, 57, 0
2, 201960, Note_on_c, 0, 69, 74
2, 201960, Note_on_c, 0, 72, 74
2, 201960, Note_on_c, 0, 76, 74
2, 201960, Note_on_c, 0, 64, 63
2, 201960, Note_on_c, 0, 52, 70
2, 201960, Note_on_c, 0, 57, 70
2, 201960, Note_on_c, 0, 60, 70
2, 202140, Note_on_c, 0, 64, 0
2, 202140, Note_on_c, 0, 80, 61
2, 202140, Note_on_c, 0, 68, 63
2, 202230, Note_on_c, 0, 68, 0
2, 202230, Note_on_c, 0, 80, 0
2, 202230, Note_on_c, 0, 81, 76
2, 202230, Note_on_c, 0, 69, 65
2, 202320, Note_on_c, 0, 69, 0
2, 202320, Note_on_c, 0, 52, 0
2, 202320, Note_on_c, 0, 57, 0
2, 202320, Note_on_c, 0, 72, 0
2, 202320, Note_on_c, 0, 76, 0
2, 202320, Note_on_c, 0, 69, 0
2, 202320, Note_on_c, 0, 60, 0
2, 202320, Note_on_c, 0, 81, 0
2, 202320, Note_on_c, 0, 76, 112
2, 202320, Note_on_c, 0, 88, 112
2, 202320, Note_on_c, 0, 84, 81
2, 202320, Note_on_c, 0, 72, 65
2, 202320, Note_on_c, 0, 64, 88
2, 202320, Note_on_c, 0, 69, 88
2, 202680, Note_on_c, 0, 69, 0
2, 202680, Note_on_c, 0, 88, 0
2, 202680, Note_on_c, 0, 84, 0
2, 202680, Note_on_c, 0, 76, 0
2, 202680, Note_on_c, 0, 64, 0
2, 202680, Note_on_c, 0, 72, 0
2, 202680, Note_on_c, 0, 75, 82
2, 202680, Note_on_c, 0, 87, 82
2, 202680, Note_on_c, 0, 83, 72
2, 202680, Note_on_c, 0, 71, 57
2, 202680, Note_on_c, 0, 63, 73
2, 202680, Note_on_c, 0, 69, 73
2, 202770, Note_on_c, 0, 71, 0
2, 202770, Note_on_c, 0, 83, 0
2, 202770, Note_on_c, 0, 81, 69
2, 202770, Note_on_c, 0, 69, 60
2, 202860, Note_on_c, 0, 69, 0
2, 202860, Note_on_c, 0, 69, 0
2, 202860, Note_on_c, 0, 87, 0
2, 202860, Note_on_c, 0, 75, 0
2, 202860, Note_on_c, 0, 81, 0
2, 202860, Note_on_c, 0, 63, 0
2, 202860, Note_on_c, 0, 72, 78
2, 202860, Note_on_c, 0, 84, 78
2, 202860, Note_on_c, 0, 80, 62
2, 202860, Note_on_c, 0, 68, 57
2, 202860, Note_on_c, 0, 60, 59
2, 202860, Note_on_c, 0, 63, 59
2, 202950, Note_on_c, 0, 68, 0
2, 202950, Note_on_c, 0, 80, 0
2, 202950, Note_on_c, 0, 78, 68
2, 202950, Note_on_c, 0, 66, 53
2, 203040, Note_on_c, 0, 66, 0
2, 203040, Note_on_c, 0, 63, 0
2, 203040, Note_on_c, 0, 84, 0
2, 203040, Note_on_c, 0, 72, 0
2, 203040, Note_on_c, 0, 78, 0
2, 203040, Note_on_c, 0, 60, 0
2, 203040, Note_on_c, 0, 72, 78
2, 203040, Note_on_c, 0, 75, 78
2, 203040, Note_on_c, 0, 79, 78
2, 203040, Note_on_c, 0, 67, 63
2, 203040, Note_on_c, 0, 55, 71
2, 203040, Note_on_c, 0, 60, 71
2, 203040, Note_on_c, 0, 63, 71
2, 203220, Note_on_c, 0, 67, 0
2, 203220, Note_on_c, 0, 83, 66
2, 203220, Note_on_c, 0, 71, 69
2, 203310, Note_on_c, 0, 71, 0
2, 203310, Note_on_c, 0, 83, 0
2, 203310, Note_on_c, 0, 84, 77
2, 203310, Note_on_c, 0, 72, 66
2, 203400, Note_on_c, 0, 72, 0
2, 203400, Note_on_c, 0, 55, 0
2, 203400, Note_on_c, 0, 60, 0
2, 203400, Note_on_c, 0, 75, 0
2, 203400, Note_on_c, 0, 79, 0
2, 203400, Note_on_c, 0, 72, 0
2, 203400, Note_on_c, 0, 63, 0
2, 203400, Note_on_c, 0, 84, 0
2, 203400, Note_on_c, 0, 79, 82
2, 203400, Note_on_c, 0, 91, 82
2, 203400, Note_on_c, 0, 87, 56
2, 203400, Note_on_c, 0, 75, 71
2, 203400, Note_on_c, 0, 67, 91
2, 203400, Note_on_c, 0, 72, 91
2, 203760, Note_on_c, 0, 72, 0
2, 203760, Note_on_c, 0, 91, 0
2, 203760, Note_on_c, 0, 87, 0
2, 203760, Note_on_c, 0, 79, 0
2, 203760, Note_on_c, 0, 67, 0
2, 203760, Note_on_c, 0, 75, 0
2, 203760, Note_on_c, 0, 78, 84
2, 203760, Note_on_c, 0, 90, 84
2, 203760, Note_on_c, 0, 86, 69
2, 203760, Note_on_c, 0, 74, 56
2, 203760, Note_on_c, 0, 66, 58
2, 203850, Note_on_c, 0, 74, 0
2, 203850, Note_on_c, 0, 86, 0
2, 203850, Note_on_c, 0, 84, 66
2, 203850, Note_on_c, 0, 72, 51
2, 203940, Note_on_c, 0, 72, 0
2, 203940, Note_on_c, 0, 78, 0
2, 203940, Note_on_c, 0, 66, 0
2, 203940, Note_on_c, 0, 90, 0
2, 203940, Note_on_c, 0, 84, 0
2, 203940, Note_on_c, 0, 74, 78
2, 203940, Note_on_c, 0, 86, 78
2, 203940, Note_on_c, 0, 83, 69
2, 203940, Note_on_c, 0, 71, 56
2, 203940, Note_on_c, 0, 62, 61
2, 204030, Note_on_c, 0, 71, 0
2, 204030, Note_on_c, 0, 83, 0
2, 204030, Note_on_c, 0, 81, 70
2, 204030, Note_on_c, 0, 69, 59
2, 204120, Note_on_c, 0, 69, 0
2, 204120, Note_on_c, 0, 74, 0
2, 204120, Note_on_c, 0, 62, 0
2, 204120, Note_on_c, 0, 86, 0
2, 204120, Note_on_c, 0, 81, 0
2, 204120, Note_on_c, 0, 70, 87
2, 204120, Note_on_c, 0, 78, 87
2, 204120, Note_on_c, 0, 82, 87
2, 204120, Note_on_c, 0, 58, 61
2, 204120, Note_on_c, 0, 63, 61
2, 204120, Note_on_c, 0, 66, 61
2, 204437, Note_on_c, 0, 66, 0
2, 204437, Note_on_c, 0, 78, 0
2, 204437, Note_on_c, 0, 82, 0
2, 204437, Note_on_c, 0, 70, 0
2, 204437, Note_on_c, 0, 63, 0
2, 204437, Note_on_c, 0, 58, 0
2, 204480, Note_on_c, 0, 72, 93
2, 204480, Note_on_c, 0, 80, 93
2, 204480, Note_on_c, 0, 84, 93
2, 204480, Note_on_c, 0, 60, 66
2, 204480, Note_on_c, 0, 68, 66
2, 204570, Note_on_c, 0, 68, 0
2, 204570, Note_on_c, 0, 84, 0
2, 204570, Note_on_c, 0, 72, 0
2, 204570, Note_on_c, 0, 80, 0
2, 204570, Note_on_c, 0, 60, 0
2, 204570, Note_on_c, 0, 74, 94
2, 204570, Note_on_c, 0, 82, 94
2, 204570, Note_on_c, 0, 86, 94
2, 204570, Note_on_c, 0, 62, 68
2, 204570, Note_on_c, 0, 70, 68
2, 204660, Note_on_c, 0, 70, 0
2, 204660, Note_on_c, 0, 86, 0
2, 204660, Note_on_c, 0, 74, 0
2, 204660, Note_on_c, 0, 82, 0
2, 204660, Note_on_c, 0, 62, 0
2, 204660, Note_on_c, 0, 75, 96
2, 204660, Note_on_c, 0, 84, 96
2, 204660, Note_on_c, 0, 87, 96
2, 204660, Note_on_c, 0, 63, 69
2, 204660, Note_on_c, 0, 72, 69
2, 204750, Note_on_c, 0, 72, 0
2, 204750, Note_on_c, 0, 87, 0
2, 204750, Note_on_c, 0, 75, 0
2, 204750, Note_on_c, 0, 84, 0
2, 204750, Note_on_c, 0, 63, 0
2, 204750, Note_on_c, 0, 77, 97
2, 204750, Note_on_c, 0, 86, 97
2, 204750, Note_on_c, 0, 89, 97
2, 204750, Note_on_c, 0, 65, 70
2, 204750, Note_on_c, 0, 74, 70
2, 204840, Note_on_c, 0, 74, 0
2, 204840, Note_on_c, 0, 89, 0
2, 204840, Note_on_c, 0, 77, 0
2, 204840, Note_on_c, 0, 86, 0
2, 204840, Note_on_c, 0, 65, 0
2, 204840, Note_on_c, 0, 78, 99
2, 204840, Note_on_c, 0, 87, 99
2, 204840, Note_on_c, 0, 90, 99
2, 204840, Note_on_c, 0, 66, 72
2, 204840, Note_on_c, 0, 75, 72
2, 204930, Note_on_c, 0, 75, 0
2, 204930, Note_on_c, 0, 90, 0
2, 204930, Note_on_c, 0, 78, 0
2, 204930, Note_on_c, 0, 87, 0
2, 204930, Note_on_c, 0, 66, 0
2, 204930, Note_on_c, 0, 81, 100
2, 204930, Note_on_c, 0, 89, 100
2, 204930, Note_on_c, 0, 93, 100
2, 204930, Note_on_c, 0, 69, 73
2, 204930, Note_on_c, 0, 77, 73
2, 205020, Note_on_c, 0, 77, 0
2, 205020, Note_on_c, 0, 93, 0
2, 205020, Note_on_c, 0, 81, 0
2, 205020, Note_on_c, 0, 89, 0
2, 205020, Note_on_c, 0, 69, 0
2, 205020, Note_on_c, 0, 82, 101
2, 205020, Note_on_c, 0, 90, 101
2, 205020, Note_on_c, 0, 94, 101
2, 205020, Note_on_c, 0, 70, 75
2, 205020, Note_on_c, 0, 78, 75
2, 205290, Note_on_c, 0, 78, 0
2, 205290, Note_on_c, 0, 94, 0
2, 205290, Note_on_c, 0, 82, 0
2, 205290, Note_on_c, 0, 90, 0
2, 205290, Note_on_c, 0, 70, 0
2, 205290, Note_on_c, 0, 81, 106
2, 205290, Note_on_c, 0, 89, 106
2, 205290, Note_on_c, 0, 93, 106
2, 205290, Note_on_c, 0, 69, 79
2, 205290, Note_on_c, 0, 77, 79
2, 205380, Note_on_c, 0, 77, 0
2, 205380, Note_on_c, 0, 93, 0
2, 205380, Note_on_c, 0, 81, 0
2, 205380, Note_on_c, 0, 89, 0
2, 205380, Note_on_c, 0, 69, 0
2, 205380, Note_on_c, 0, 82, 107
2, 205380, Note_on_c, 0, 90, 107
2, 205380, Note_on_c, 0, 94, 107
2, 205380, Note_on_c, 0, 70, 80
2, 205380, Note_on_c, 0, 78, 80
2, 205650, Note_on_c, 0, 78, 0
2, 205650, Note_on_c, 0, 94, 0
2, 205650, Note_on_c, 0, 82, 0
2, 205650, Note_on_c, 0, 90, 0
2, 205650, Note_on_c, 0, 70, 0
2, 205650, Note_on_c, 0, 85, 111
2, 205650, Note_on_c, 0, 93, 111
2, 205650, Note_on_c, 0, 97, 111
2, 205650, Note_on_c, 0, 61, 85
2, 205650, Note_on_c, 0, 69, 85
2, 205650, Note_on_c, 0, 73, 85
2, 205740, Note_on_c, 0, 73, 0
2, 205740, Note_on_c, 0, 93, 0
2, 205740, Note_on_c, 0, 97, 0
2, 205740, Note_on_c, 0, 85, 0
2, 205740, Note_on_c, 0, 69, 0
2, 205740, Note_on_c, 0, 61, 0
2, 205740, Note_on_c, 0, 86, 113
2, 205740, Note_on_c, 0, 94, 113
2, 205740, Note_on_c, 0, 98, 113
2, 205740, Note_on_c, 0, 62, 86
2, 205740, Note_on_c, 0, 70, 86
2, 205740, Note_on_c, 0, 74, 86
2, 206280, Note_on_c, 0, 74, 0
2, 206280, Note_on_c, 0, 94, 0
2, 206280, Note_on_c, 0, 98, 0
2, 206280, Note_on_c, 0, 86, 0
2, 206280, Note_on_c, 0, 70, 0
2, 206280, Note_on_c, 0, 62, 0
2, 206280, Note_on_c, 0, 85, 117
2, 206280, Note_on_c, 0, 93, 117
2, 206280, Note_on_c, 0, 97, 117
2, 206280, Note_on_c, 0, 61, 92
2, 206280, Note_on_c, 0, 69, 92
2, 206280, Note_on_c, 0, 73, 92
2, 206597, Note_on_c, 0, 73, 0
2, 206597, Note_on_c, 0, 93, 0
2, 206597, Note_on_c, 0, 97, 0
2, 206597, Note_on_c, 0, 85, 0
2, 206597, Note_on_c, 0, 69, 0
2, 206597, Note_on_c, 0, 61, 0
2, 206640, Note_on_c, 0, 82, 116
2, 206640, Note_on_c, 0, 90, 116
2, 206640, Note_on_c, 0, 94, 116
2, 206640, Note_on_c, 0, 58, 89
2, 206640, Note_on_c, 0, 66, 89
2, 206640, Note_on_c, 0, 70, 89
2, 206798, Note_on_c, 0, 70, 0
2, 206798, Note_on_c, 0, 90, 0
2, 206798, Note_on_c, 0, 94, 0
2, 206798, Note_on_c, 0, 82, 0
2, 206798, Note_on_c, 0, 66, 0
2, 206798, Note_on_c, 0, 58, 0
2, 206820, Note_on_c, 0, 77, 117
2, 206820, Note_on_c, 0, 85, 117
2, 206820, Note_on_c, 0, 89, 117
2, 206820, Note_on_c, 0, 53, 97
2, 206820, Note_on_c, 0, 58, 97
2, 206820, Note_on_c, 0, 61, 97
2, 206820, Note_on_c, 0, 65, 97
2, 207000, Note_on_c, 0, 65, 0
2, 207000, Note_on_c, 0, 58, 0
2, 207000, Note_on_c, 0, 85, 0
2, 207000, Note_on_c, 0, 89, 0
2, 207000, Note_on_c, 0, 77, 0
2, 207000, Note_on_c, 0, 61, 0
2, 207000, Note_on_c, 0, 53, 0
2, 207180, Note_on_c, 0, 85, 109
2, 207180, Note_on_c, 0, 89, 109
2, 207180, Note_on_c, 0, 61, 89
2, 207180, Note_on_c, 0, 65, 89
2, 207540, Note_on_c, 0, 65, 0
2, 207540, Note_on_c, 0, 85, 0
2, 207540, Note_on_c, 0, 89, 0
2, 207540, Note_on_c, 0, 61, 0
2, 207540, Note_on_c, 0, 86, 116
2, 207540, Note_on_c, 0, 90, 116
2, 207540, Note_on_c, 0, 62, 87
2, 207540, Note_on_c, 0, 66, 87
2, 207630, Note_on_c, 0, 66, 0
2, 207630, Note_on_c, 0, 86, 0
2, 207630, Note_on_c, 0, 90, 0
2, 207630, Note_on_c, 0, 62, 0
2, 207630, Note_on_c, 0, 85, 109
2, 207630, Note_on_c, 0, 89, 109
2, 207630, Note_on_c, 0, 61, 83
2, 207630, Note_on_c, 0, 65, 83
2, 207720, Note_on_c, 0, 65, 0
2, 207720, Note_on_c, 0, 85, 0
2, 207720, Note_on_c, 0, 89, 0
2, 207720, Note_on_c, 0, 61, 0
2, 207720, Note_on_c, 0, 84, 109
2, 207720, Note_on_c, 0, 88, 109
2, 207720, Note_on_c, 0, 60, 82
2, 207720, Note_on_c, 0, 64, 82
2, 207810, Note_on_c, 0, 64, 0
2, 207810, Note_on_c, 0, 84, 0
2, 207810, Note_on_c, 0, 88, 0
2, 207810, Note_on_c, 0, 60, 0
2, 207810, Note_on_c, 0, 86, 116
2, 207810, Note_on_c, 0, 90, 116
2, 207810, Note_on_c, 0, 62, 92
2, 207810, Note_on_c, 0, 66, 92
2, 207900, Note_on_c, 0, 66, 0
2, 207900, Note_on_c, 0, 86, 0
2, 207900, Note_on_c, 0, 90, 0
2, 207900, Note_on_c, 0, 62, 0
2, 207900, Note_on_c, 0, 85, 107
2, 207900, Note_on_c, 0, 89, 107
2, 207900, Note_on_c, 0, 61, 79
2, 207900, Note_on_c, 0, 65, 79
2, 208260, Note_on_c, 0, 65, 0
2, 208260, Note_on_c, 0, 85, 0
2, 208260, Note_on_c, 0, 89, 0
2, 208260, Note_on_c, 0, 61, 0
2, 208260, Note_on_c, 0, 82, 116
2, 208260, Note_on_c, 0, 85, 116
2, 208260, Note_on_c, 0, 94, 116
2, 208260, Note_on_c, 0, 89, 116
2, 208260, Note_on_c, 0, 58, 100
2, 208260, Note_on_c, 0, 61, 100
2, 208260, Note_on_c, 0, 70, 100
2, 208260, Note_on_c, 0, 65, 107
2, 208440, Note_on_c, 0, 65, 0
2, 208440, Note_on_c, 0, 89, 0
2, 208440, Note_on_c, 0, 88, 98
2, 208440, Note_on_c, 0, 64, 97
2, 208620, Note_on_c, 0, 61, 0
2, 208620, Note_on_c, 0, 82, 0
2, 208620, Note_on_c, 0, 58, 0
2, 208620, Note_on_c, 0, 85, 0
2, 208620, Note_on_c, 0, 94, 0
2, 208620, Note_on_c, 0, 70, 0
2, 208620, Note_on_c, 0, 81, 105
2, 208620, Note_on_c, 0, 85, 105
2, 208620, Note_on_c, 0, 93, 105
2, 208620, Note_on_c, 0, 69, 83
2, 208620, Note_on_c, 0, 58, 9
2, 208620, Note_on_c, 0, 61, 9
2, 208800, Note_on_c, 0, 69, 0
2, 208800, Note_on_c, 0, 85, 0
2, 208800, Note_on_c, 0, 81, 0
2, 208800, Note_on_c, 0, 93, 0
2, 208800, Note_on_c, 0, 80, 111
2, 208800, Note_on_c, 0, 92, 111
2, 208800, Note_on_c, 0, 68, 80
2, 208980, Note_on_c, 0, 68, 0
2, 208980, Note_on_c, 0, 80, 0
2, 208980, Note_on_c, 0, 64, 0
2, 208980, Note_on_c, 0, 58, 0
2, 208980, Note_on_c, 0, 61, 0
2, 208980, Note_on_c, 0, 92, 0
2, 208980, Note_on_c, 0, 88, 0
2, 208980, Note_on_c, 0, 76, 117
2, 208980, Note_on_c, 0, 81, 117
2, 208980, Note_on_c, 0, 85, 117
2, 208980, Note_on_c, 0, 88, 117
2, 208980, Note_on_c, 0, 52, 97
2, 208980, Note_on_c, 0, 57, 97
2, 208980, Note_on_c, 0, 61, 97
2, 208980, Note_on_c, 0, 64, 97
2, 209160, Note_on_c, 0, 64, 0
2, 209160, Note_on_c, 0, 76, 0
2, 209160, Note_on_c, 0, 52, 0
2, 209160, Note_on_c, 0, 81, 0
2, 209160, Note_on_c, 0, 85, 0
2, 209160, Note_on_c, 0, 88, 0
2, 209160, Note_on_c, 0, 57, 0
2, 209160, Note_on_c, 0, 61, 0
2, 209340, Note_on_c, 0, 85, 111
2, 209340, Note_on_c, 0, 88, 111
2, 209340, Note_on_c, 0, 61, 86
2, 209340, Note_on_c, 0, 64, 86
2, 209700, Note_on_c, 0, 64, 0
2, 209700, Note_on_c, 0, 85, 0
2, 209700, Note_on_c, 0, 88, 0
2, 209700, Note_on_c, 0, 61, 0
2, 209700, Note_on_c, 0, 86, 116
2, 209700, Note_on_c, 0, 89, 116
2, 209700, Note_on_c, 0, 62, 88
2, 209700, Note_on_c, 0, 65, 88
2, 209790, Note_on_c, 0, 65, 0
2, 209790, Note_on_c, 0, 86, 0
2, 209790, Note_on_c, 0, 89, 0
2, 209790, Note_on_c, 0, 62, 0
2, 209790, Note_on_c, 0, 85, 108
2, 209790, Note_on_c, 0, 88, 108
2, 209790, Note_on_c, 0, 61, 84
2, 209790, Note_on_c, 0, 64, 84
2, 209880, Note_on_c, 0, 64, 0
2, 209880, Note_on_c, 0, 85, 0
2, 209880, Note_on_c, 0, 88, 0
2, 209880, Note_on_c, 0, 61, 0
2, 209880, Note_on_c, 0, 84, 106
2, 209880, Note_on_c, 0, 87, 106
2, 209880, Note_on_c, 0, 60, 86
2, 209880, Note_on_c, 0, 63, 86
2, 209970, Note_on_c, 0, 63, 0
2, 209970, Note_on_c, 0, 84, 0
2, 209970, Note_on_c, 0, 87, 0
2, 209970, Note_on_c, 0, 60, 0
2, 209970, Note_on_c, 0, 86, 116
2, 209970, Note_on_c, 0, 89, 116
2, 209970, Note_on_c, 0, 62, 96
2, 209970, Note_on_c, 0, 65, 96
2, 210060, Note_on_c, 0, 65, 0
2, 210060, Note_on_c, 0, 86, 0
2, 210060, Note_on_c, 0, 89, 0
2, 210060, Note_on_c, 0, 62, 0
2, 210060, Note_on_c, 0, 85, 114
2, 210060, Note_on_c, 0, 88, 114
2, 210060, Note_on_c, 0, 61, 83
2, 210060, Note_on_c, 0, 64, 83
2, 210420, Note_on_c, 0, 64, 0
2, 210420, Note_on_c, 0, 85, 0
2, 210420, Note_on_c, 0, 88, 0
2, 210420, Note_on_c, 0, 61, 0
2, 210420, Note_on_c, 0, 81, 117
2, 210420, Note_on_c, 0, 85, 117
2, 210420, Note_on_c, 0, 88, 117
2, 210420, Note_on_c, 0, 93, 117
2, 210420, Note_on_c, 0, 57, 96
2, 210420, Note_on_c, 0, 61, 96
2, 210420, Note_on_c, 0, 64, 96
2, 210420, Note_on_c, 0, 69, 96
2, 210780, Note_on_c, 0, 69, 0
2, 210780, Note_on_c, 0, 81, 0
2, 210780, Note_on_c, 0, 57, 0
2, 210780, Note_on_c, 0, 85, 0
2, 210780, Note_on_c, 0, 88, 0
2, 210780, Note_on_c, 0, 93, 0
2, 210780, Note_on_c, 0, 61, 0
2, 210780, Note_on_c, 0, 64, 0
2, 210780, Note_on_c, 0, 80, 113
2, 210780, Note_on_c, 0, 92, 113
2, 210780, Note_on_c, 0, 85, 99
2, 210780, Note_on_c, 0, 87, 99
2, 210780, Note_on_c, 0, 68, 86
2, 210780, Note_on_c, 0, 58, 99
2, 210780, Note_on_c, 0, 61, 99
2, 210780, Note_on_c, 0, 63, 99
2, 210960, Note_on_c, 0, 68, 0
2, 210960, Note_on_c, 0, 92, 0
2, 210960, Note_on_c, 0, 80, 0
2, 210960, Note_on_c, 0, 79, 100
2, 210960, Note_on_c, 0, 91, 100
2, 210960, Note_on_c, 0, 67, 73
2, 211140, Note_on_c, 0, 67, 0
2, 211140, Note_on_c, 0, 63, 0
2, 211140, Note_on_c, 0, 85, 0
2, 211140, Note_on_c, 0, 61, 0
2, 211140, Note_on_c, 0, 87, 0
2, 211140, Note_on_c, 0, 58, 0
2, 211140, Note_on_c, 0, 79, 0
2, 211140, Note_on_c, 0, 91, 0
2, 211140, Note_on_c, 0, 80, 102
2, 211140, Note_on_c, 0, 83, 102
2, 211140, Note_on_c, 0, 87, 102
2, 211140, Note_on_c, 0, 92, 102
2, 211140, Note_on_c, 0, 56, 104
2, 211140, Note_on_c, 0, 59, 104
2, 211140, Note_on_c, 0, 63, 104
2, 211140, Note_on_c, 0, 68, 104
2, 211614, Note_on_c, 0, 68, 0
2, 211614, Note_on_c, 0, 80, 0
2, 211614, Note_on_c, 0, 56, 0
2, 211614, Note_on_c, 0, 83, 0
2, 211614, Note_on_c, 0, 87, 0
2, 211614, Note_on_c, 0, 92, 0
2, 211614, Note_on_c, 0, 59, 0
2, 211614, Note_on_c, 0, 63, 0
2, 211680, Note_on_c, 0, 79, 95
2, 211680, Note_on_c, 0, 82, 95
2, 211680, Note_on_c, 0, 86, 95
2, 211680, Note_on_c, 0, 91, 95
2, 211680, Note_on_c, 0, 67, 95
2, 211680, Note_on_c, 0, 56, 71
2, 211680, Note_on_c, 0, 58, 71
2, 211680, Note_on_c, 0, 62, 71
2, 211997, Note_on_c, 0, 67, 0
2, 211997, Note_on_c, 0, 91, 0
2, 211997, Note_on_c, 0, 79, 0
2, 211997, Note_on_c, 0, 86, 0
2, 211997, Note_on_c, 0, 82, 0
2, 212040, Note_on_c, 0, 74, 77
2, 212040, Note_on_c, 0, 86, 77
2, 212040, Note_on_c, 0, 62, 75
2, 212220, Note_on_c, 0, 62, 0
2, 212220, Note_on_c, 0, 58, 0
2, 212220, Note_on_c, 0, 62, 0
2, 212220, Note_on_c, 0, 56, 0
2, 212220, Note_on_c, 0, 86, 0
2, 212220, Note_on_c, 0, 74, 0
2, 212220, Note_on_c, 0, 78, 107
2, 212220, Note_on_c, 0, 80, 107
2, 212220, Note_on_c, 0, 86, 107
2, 212220, Note_on_c, 0, 90, 107
2, 212220, Note_on_c, 0, 56, 108
2, 212220, Note_on_c, 0, 62, 108
2, 212220, Note_on_c, 0, 66, 108
2, 212694, Note_on_c, 0, 66, 0
2, 212694, Note_on_c, 0, 56, 0
2, 212694, Note_on_c, 0, 80, 0
2, 212694, Note_on_c, 0, 86, 0
2, 212694, Note_on_c, 0, 78, 0
2, 212694, Note_on_c, 0, 62, 0
2, 212694, Note_on_c, 0, 90, 0
2, 212760, Note_on_c, 0, 77, 84
2, 212760, Note_on_c, 0, 79, 84
2, 212760, Note_on_c, 0, 83, 84
2, 212760, Note_on_c, 0, 89, 84
2, 212760, Note_on_c, 0, 55, 99
2, 212760, Note_on_c, 0, 59, 99
2, 212760, Note_on_c, 0, 65, 99
2, 213120, Note_on_c, 0, 89, 0
2, 213120, Note_on_c, 0, 83, 0
2, 213120, Note_on_c, 0, 77, 0
2, 213120, Note_on_c, 0, 79, 0
2, 213120, Note_on_c, 0, 71, 102
2, 213120, Note_on_c, 0, 83, 102
2, 213234, Note_on_c, 0, 65, 0
2, 213234, Note_on_c, 0, 59, 0
2, 213234, Note_on_c, 0, 55, 0
2, 213300, Note_on_c, 0, 71, 0
2, 213300, Note_on_c, 0, 83, 0
2, 213300, Note_on_c, 0, 76, 87
2, 213300, Note_on_c, 0, 79, 87
2, 213300, Note_on_c, 0, 83, 87
2, 213300, Note_on_c, 0, 88, 87
2, 213300, Note_on_c, 0, 52, 87
2, 213300, Note_on_c, 0, 55, 87
2, 213300, Note_on_c, 0, 59, 87
2, 213300, Note_on_c, 0, 64, 87
2, 213774, Note_on_c, 0, 64, 0
2, 213774, Note_on_c, 0, 76, 0
2, 213774, Note_on_c, 0, 52, 0
2, 213774, Note_on_c, 0, 79, 0
2, 213774, Note_on_c, 0, 83, 0
2, 213774, Note_on_c, 0, 88, 0
2, 213774, Note_on_c, 0, 55, 0
2, 213774, Note_on_c, 0, 59, 0
2, 213840, Note_on_c, 0, 75, 81
2, 213840, Note_on_c, 0, 78, 81
2, 213840, Note_on_c, 0, 82, 81
2, 213840, Note_on_c, 0, 87, 81
2, 213840, Note_on_c, 0, 63, 81
2, 213840, Note_on_c, 0, 52, 67
2, 213840, Note_on_c, 0, 54, 67
2, 213840, Note_on_c, 0, 58, 67
2, 214157, Note_on_c, 0, 63, 0
2, 214157, Note_on_c, 0, 87, 0
2, 214157, Note_on_c, 0, 75, 0
2, 214157, Note_on_c, 0, 82, 0
2, 214157, Note_on_c, 0, 78, 0
2, 214200, Note_on_c, 0, 70, 77
2, 214200, Note_on_c, 0, 82, 77
2, 214200, Note_on_c, 0, 58, 77
2, 214380, Note_on_c, 0, 58, 0
2, 214380, Note_on_c, 0, 54, 0
2, 214380, Note_on_c, 0, 58, 0
2, 214380, Note_on_c, 0, 52, 0
2, 214380, Note_on_c, 0, 82, 0
2, 214380, Note_on_c, 0, 70, 0
2, 214380, Note_on_c, 0, 74, 75
2, 214380, Note_on_c, 0, 76, 75
2, 214380, Note_on_c, 0, 82, 75
2, 214380, Note_on_c, 0, 86, 75
2, 214380, Note_on_c, 0, 52, 75
2, 214380, Note_on_c, 0, 58, 75
2, 214380, Note_on_c, 0, 62, 75
2, 214854, Note_on_c, 0, 62, 0
2, 214854, Note_on_c, 0, 52, 0
2, 214854, Note_on_c, 0, 76, 0
2, 214854, Note_on_c, 0, 82, 0
2, 214854, Note_on_c, 0, 74, 0
2, 214854, Note_on_c, 0, 58, 0
2, 214854, Note_on_c, 0, 86, 0
2, 214920, Note_on_c, 0, 73, 68
2, 214920, Note_on_c, 0, 79, 68
2, 214920, Note_on_c, 0, 85, 68
2, 214920, Note_on_c, 0, 51, 68
2, 214920, Note_on_c, 0, 55, 68
2, 214920, Note_on_c, 0, 61, 68
2, 215237, Note_on_c, 0, 61, 0
2, 215237, Note_on_c, 0, 79, 0
2, 215237, Note_on_c, 0, 85, 0
2, 215237, Note_on_c, 0, 73, 0
2, 215237, Note_on_c, 0, 55, 0
2, 215237, Note_on_c, 0, 51, 0
2, 215280, Note_on_c, 0, 79, 64
2, 215280, Note_on_c, 0, 67, 64
2, 215460, Note_on_c, 0, 67, 0
2, 215460, Note_on_c, 0, 72, 62
2, 215460, Note_on_c, 0, 84, 62
2, 215460, Note_on_c, 0, 51, 62
2, 215460, Note_on_c, 0, 55, 62
2, 215460, Note_on_c, 0, 60, 62
2, 215730, Note_on_c, 0, 60, 0
2, 215730, Note_on_c, 0, 72, 0
2, 215730, Note_on_c, 0, 84, 0
2, 215730, Note_on_c, 0, 79, 0
2, 215730, Note_on_c, 0, 55, 0
2, 215730, Note_on_c, 0, 51, 0
2, 215730, Note_on_c, 0, 83, 61
2, 215730, Note_on_c, 0, 71, 81
2, 215820, Note_on_c, 0, 71, 0
2, 215820, Note_on_c, 0, 83, 0
2, 215820, Note_on_c, 0, 84, 64
2, 215820, Note_on_c, 0, 75, 44
2, 215820, Note_on_c, 0, 72, 68
2, 215910, Note_on_c, 0, 72, 0
2, 215910, Note_on_c, 0, 84, 0
2, 215910, Note_on_c, 0, 83, 62
2, 215910, Note_on_c, 0, 71, 60
2, 216000, Note_on_c, 0, 71, 0
2, 216000, Note_on_c, 0, 83, 0
2, 216000, Note_on_c, 0, 75, 0
2, 216000, Note_on_c, 0, 82, 58
2, 216000, Note_on_c, 0, 74, 43
2, 216000, Note_on_c, 0, 70, 57
2, 216270, Note_on_c, 0, 74, 0
2, 216270, Note_on_c, 0, 75, 48
2, 216360, Note_on_c, 0, 75, 0
2, 216360, Note_on_c, 0, 74, 47
2, 216540, Note_on_c, 0, 74, 0
2, 216540, Note_on_c, 0, 70, 0
2, 216540, Note_on_c, 0, 82, 0
2, 216540, Note_on_c, 0, 81, 61
2, 216540, Note_on_c, 0, 73, 48
2, 216540, Note_on_c, 0, 69, 62
2, 216810, Note_on_c, 0, 69, 0
2, 216810, Note_on_c, 0, 81, 0
2, 216810, Note_on_c, 0, 80, 56
2, 216810, Note_on_c, 0, 68, 59
2, 216900, Note_on_c, 0, 68, 0
2, 216900, Note_on_c, 0, 80, 0
2, 216900, Note_on_c, 0, 81, 65
2, 216900, Note_on_c, 0, 69, 64
2, 217080, Note_on_c, 0, 69, 0
2, 217080, Note_on_c, 0, 81, 0
2, 217080, Note_on_c, 0, 73, 0
2, 217080, Note_on_c, 0, 80, 61
2, 217080, Note_on_c, 0, 72, 45
2, 217080, Note_on_c, 0, 68, 57
2, 217350, Note_on_c, 0, 72, 0
2, 217350, Note_on_c, 0, 73, 48
2, 217440, Note_on_c, 0, 73, 0
2, 217440, Note_on_c, 0, 68, 0
2, 217440, Note_on_c, 0, 80, 0
2, 217440, Note_on_c, 0, 79, 53
2, 217440, Note_on_c, 0, 72, 39
2, 217440, Note_on_c, 0, 67, 52
2, 217530, Note_on_c, 0, 72, 0
2, 217530, Note_on_c, 0, 74, 31
2, 217620, Note_on_c, 0, 74, 0
2, 217620, Note_on_c, 0, 67, 0
2, 217620, Note_on_c, 0, 79, 0
2, 217620, Note_on_c, 0, 72, 47
2, 217620, Note_on_c, 0, 78, 47
2, 217620, Note_on_c, 0, 66, 62
2, 217800, Note_on_c, 0, 66, 0
2, 217800, Note_on_c, 0, 78, 0
2, 217800, Note_on_c, 0, 72, 0
2, 217800, Note_on_c, 0, 60, 33
2, 217800, Note_on_c, 0, 66, 33
2, 217980, Note_on_c, 0, 66, 0
2, 217980, Note_on_c, 0, 60, 0
2, 217980, Note_on_c, 0, 57, 36
2, 218160, Note_on_c, 0, 57, 0
2, 218160, Note_on_c, 0, 50, 50
2, 218340, Note_on_c, 0, 50, 0
2, 218340, Note_on_c, 0, 59, 43
2, 218340, Note_on_c, 0, 65, 43
2, 218520, Note_on_c, 0, 65, 0
2, 218520, Note_on_c, 0, 59, 0
2, 218520, Note_on_c, 0, 56, 47
2, 218700, Note_on_c, 0, 56, 0
2, 218880, Note_on_c, 0, 60, 35
2, 218880, Note_on_c, 0, 66, 35
2, 219060, Note_on_c, 0, 66, 0
2, 219060, Note_on_c, 0, 60, 0
2, 219060, Note_on_c, 0, 57, 34
2, 219240, Note_on_c, 0, 57, 0
2, 219240, Note_on_c, 0, 50, 57
2, 219420, Note_on_c, 0, 50, 0
2, 219420, Note_on_c, 0, 59, 36
2, 219420, Note_on_c, 0, 65, 36
2, 219600, Note_on_c, 0, 65, 0
2, 219600, Note_on_c, 0, 59, 0
2, 219600, Note_on_c, 0, 56, 32
2, 219780, Note_on_c, 0, 56, 0
2, 219960, Note_on_c, 0, 60, 34
2, 219960, Note_on_c, 0, 66, 34
2, 220140, Note_on_c, 0, 66, 0
2, 220140, Note_on_c, 0, 60, 0
2, 220140, Note_on_c, 0, 57, 36
2, 220320, Note_on_c, 0, 57, 0
2, 220320, Note_on_c, 0, 50, 54
2, 220500, Note_on_c, 0, 50, 0
2, 220500, Note_on_c, 0, 59, 37
2, 220500, Note_on_c, 0, 65, 37
2, 220680, Note_on_c, 0, 65, 0
2, 220680, Note_on_c, 0, 59, 0
2, 220680, Note_on_c, 0, 56, 36
2, 220860, Note_on_c, 0, 56, 0
2, 221040, Note_on_c, 0, 60, 36
2, 221040, Note_on_c, 0, 66, 36
2, 221220, Note_on_c, 0, 66, 0
2, 221220, Note_on_c, 0, 60, 0
2, 221220, Note_on_c, 0, 57, 35
2, 221400, Note_on_c, 0, 57, 0
2, 221400, Note_on_c, 0, 50, 54
2, 221580, Note_on_c, 0, 50, 0
2, 221580, Note_on_c, 0, 56, 34
2, 221580, Note_on_c, 0, 59, 34
2, 221580, Note_on_c, 0, 65, 34
2, 221760, Note_on_c, 0, 65, 0
2, 221760, Note_on_c, 0, 59, 0
2, 221760, Note_on_c, 0, 56, 0
2, 221760, Note_on_c, 0, 57, 56
2, 221940, Note_on_c, 0, 57, 0
2, 221940, Note_on_c, 0, 58, 60
2, 222120, Note_on_c, 0, 60, 33
2, 222120, Note_on_c, 0, 66, 33
2, 222209, Note_on_c, 0, 66, 0
2, 222209, Note_on_c, 0, 60, 0
2, 222300, Note_on_c, 0, 60, 46
2, 222300, Note_on_c, 0, 66, 46
2, 222389, Note_on_c, 0, 66, 0
2, 222389, Note_on_c, 0, 60, 0
2, 222414, Note_on_c, 0, 58, 0
2, 222480, Note_on_c, 0, 57, 52
2, 222660, Note_on_c, 0, 57, 0
2, 222660, Note_on_c, 0, 60, 37
2, 222660, Note_on_c, 0, 65, 37
2, 222660, Note_on_c, 0, 56, 52
2, 222749, Note_on_c, 0, 65, 0
2, 222749, Note_on_c, 0, 60, 0
2, 222840, Note_on_c, 0, 60, 38
2, 222840, Note_on_c, 0, 65, 38
2, 222929, Note_on_c, 0, 65, 0
2, 222929, Note_on_c, 0, 60, 0
2, 223020, Note_on_c, 0, 56, 0
2, 223020, Note_on_c, 0, 58, 60
2, 223200, Note_on_c, 0, 60, 30
2, 223200, Note_on_c, 0, 66, 30
2, 223289, Note_on_c, 0, 66, 0
2, 223289, Note_on_c, 0, 60, 0
2, 223380, Note_on_c, 0, 60, 41
2, 223380, Note_on_c, 0, 66, 41
2, 223469, Note_on_c, 0, 66, 0
2, 223469, Note_on_c, 0, 60, 0
2, 223494, Note_on_c, 0, 58, 0
2, 223560, Note_on_c, 0, 57, 50
2, 223740, Note_on_c, 0, 57, 0
2, 223740, Note_on_c, 0, 60, 37
2, 223740, Note_on_c, 0, 65, 37
2, 223740, Note_on_c, 0, 56, 47
2, 223829, Note_on_c, 0, 65, 0
2, 223829, Note_on_c, 0, 60, 0
2, 223920, Note_on_c, 0, 60, 39
2, 223920, Note_on_c, 0, 65, 39
2, 224009, Note_on_c, 0, 65, 0
2, 224009, Note_on_c, 0, 60, 0
2, 224100, Note_on_c, 0, 56, 0
2, 224100, Note_on_c, 0, 61, 66
2, 224280, Note_on_c, 0, 66, 37
2, 224280, Note_on_c, 0, 69, 37
2, 224369, Note_on_c, 0, 69, 0
2, 224369, Note_on_c, 0, 66, 0
2, 224460, Note_on_c, 0, 66, 37
2, 224460, Note_on_c, 0, 69, 37
2, 224549, Note_on_c, 0, 69, 0
2, 224549, Note_on_c, 0, 66, 0
2, 224574, Note_on_c, 0, 61, 0
2, 224640, Note_on_c, 0, 60, 48
2, 224820, Note_on_c, 0, 60, 0
2, 224820, Note_on_c, 0, 62, 33
2, 224820, Note_on_c, 0, 68, 33
2, 224820, Note_on_c, 0, 59, 50
2, 224909, Note_on_c, 0, 68, 0
2, 224909, Note_on_c, 0, 62, 0
2, 225000, Note_on_c, 0, 62, 38
2, 225000, Note_on_c, 0, 68, 38
2, 225089, Note_on_c, 0, 68, 0
2, 225089, Note_on_c, 0, 62, 0
2, 225180, Note_on_c, 0, 59, 0
2, 225180, Note_on_c, 0, 61, 68
2, 225360, Note_on_c, 0, 66, 39
2, 225360, Note_on_c, 0, 69, 39
2, 225449, Note_on_c, 0, 69, 0
2, 225449, Note_on_c, 0, 66, 0
2, 225540, Note_on_c, 0, 66, 37
2, 225540, Note_on_c, 0, 69, 37
2, 225629, Note_on_c, 0, 69, 0
2, 225629, Note_on_c, 0, 66, 0
2, 225654, Note_on_c, 0, 61, 0
2, 225720, Note_on_c, 0, 60, 46
2, 225900, Note_on_c, 0, 60, 0
2, 225900, Note_on_c, 0, 62, 33
2, 225900, Note_on_c, 0, 68, 33
2, 225900, Note_on_c, 0, 59, 48
2, 225989, Note_on_c, 0, 68, 0
2, 225989, Note_on_c, 0, 62, 0
2, 226080, Note_on_c, 0, 62, 44
2, 226080, Note_on_c, 0, 69, 44
2, 226169, Note_on_c, 0, 69, 0
2, 226169, Note_on_c, 0, 62, 0
2, 226260, Note_on_c, 0, 59, 0
2, 226260, Note_on_c, 0, 70, 88
2, 226260, Note_on_c, 0, 74, 88
2, 226260, Note_on_c, 0, 55, 54
2, 226260, Note_on_c, 0, 58, 54
2, 226260, Note_on_c, 0, 62, 54
2, 226304, Note_on_c, 0, 74, 0
2, 226304, Note_on_c, 0, 70, 0
2, 226349, Note_on_c, 0, 58, 0
2, 226349, Note_on_c, 0, 55, 0
2, 226349, Note_on_c, 0, 62, 0
2, 226350, Note_on_c, 0, 70, 68
2, 226394, Note_on_c, 0, 70, 0
2, 226440, Note_on_c, 0, 70, 80
2, 226440, Note_on_c, 0, 74, 80
2, 226440, Note_on_c, 0, 55, 57
2, 226440, Note_on_c, 0, 58, 57
2, 226440, Note_on_c, 0, 62, 57
2, 226440, Note_on_c, 0, 67, 57
2, 226529, Note_on_c, 0, 67, 0
2, 226529, Note_on_c, 0, 74, 0
2, 226529, Note_on_c, 0, 55, 0
2, 226529, Note_on_c, 0, 70, 0
2, 226529, Note_on_c, 0, 62, 0
2, 226529, Note_on_c, 0, 58, 0
2, 226620, Note_on_c, 0, 69, 75
2, 226620, Note_on_c, 0, 73, 75
2, 226664, Note_on_c, 0, 73, 0
2, 226664, Note_on_c, 0, 69, 0
2, 226710, Note_on_c, 0, 69, 65
2, 226754, Note_on_c, 0, 69, 0
2, 226800, Note_on_c, 0, 69, 75
2, 226800, Note_on_c, 0, 73, 75
2, 226800, Note_on_c, 0, 54, 44
2, 226800, Note_on_c, 0, 55, 44
2, 226800, Note_on_c, 0, 61, 44
2, 226800, Note_on_c, 0, 66, 44
2, 226889, Note_on_c, 0, 66, 0
2, 226889, Note_on_c, 0, 73, 0
2, 226889, Note_on_c, 0, 54, 0
2, 226889, Note_on_c, 0, 69, 0
2, 226889, Note_on_c, 0, 61, 0
2, 226889, Note_on_c, 0, 55, 0
2, 226980, Note_on_c, 0, 68, 73
2, 226980, Note_on_c, 0, 72, 73
2, 227024, Note_on_c, 0, 72, 0
2, 227024, Note_on_c, 0, 68, 0
2, 227070, Note_on_c, 0, 68, 68
2, 227114, Note_on_c, 0, 68, 0
2, 227160, Note_on_c, 0, 68, 77
2, 227160, Note_on_c, 0, 72, 77
2, 227160, Note_on_c, 0, 53, 45
2, 227160, Note_on_c, 0, 56, 45
2, 227160, Note_on_c, 0, 62, 45
2, 227160, Note_on_c, 0, 65, 45
2, 227249, Note_on_c, 0, 65, 0
2, 227249, Note_on_c, 0, 72, 0
2, 227249, Note_on_c, 0, 53, 0
2, 227249, Note_on_c, 0, 68, 0
2, 227249, Note_on_c, 0, 62, 0
2, 227249, Note_on_c, 0, 56, 0
2, 227340, Note_on_c, 0, 68, 73
2, 227340, Note_on_c, 0, 71, 73
2, 227384, Note_on_c, 0, 71, 0
2, 227384, Note_on_c, 0, 68, 0
2, 227430, Note_on_c, 0, 68, 71
2, 227474, Note_on_c, 0, 68, 0
2, 227520, Note_on_c, 0, 68, 69
2, 227520, Note_on_c, 0, 71, 69
2, 227520, Note_on_c, 0, 52, 45
2, 227520, Note_on_c, 0, 56, 45
2, 227520, Note_on_c, 0, 62, 45
2, 227520, Note_on_c, 0, 64, 45
2, 227609, Note_on_c, 0, 64, 0
2, 227609, Note_on_c, 0, 71, 0
2, 227609, Note_on_c, 0, 52, 0
2, 227609, Note_on_c, 0, 68, 0
2, 227609, Note_on_c, 0, 62, 0
2, 227609, Note_on_c, 0, 56, 0
2, 227700, Note_on_c, 0, 67, 65
2, 227700, Note_on_c, 0, 70, 65
2, 227744, Note_on_c, 0, 70, 0
2, 227744, Note_on_c, 0, 67, 0
2, 227790, Note_on_c, 0, 67, 63
2, 227834, Note_on_c, 0, 67, 0
2, 227880, Note_on_c, 0, 67, 61
2, 227880, Note_on_c, 0, 70, 61
2, 227880, Note_on_c, 0, 51, 43
2, 227880, Note_on_c, 0, 55, 43
2, 227880, Note_on_c, 0, 62, 43
2, 227880, Note_on_c, 0, 63, 43
2, 227969, Note_on_c, 0, 63, 0
2, 227969, Note_on_c, 0, 70, 0
2, 227969, Note_on_c, 0, 51, 0
2, 227969, Note_on_c, 0, 67, 0
2, 227969, Note_on_c, 0, 62, 0
2, 227969, Note_on_c, 0, 55, 0
2, 228060, Note_on_c, 0, 66, 56
2, 228060, Note_on_c, 0, 69, 56
2, 228104, Note_on_c, 0, 69, 0
2, 228104, Note_on_c, 0, 66, 0
2, 228150, Note_on_c, 0, 66, 54
2, 228194, Note_on_c, 0, 66, 0
2, 228240, Note_on_c, 0, 66, 52
2, 228240, Note_on_c, 0, 69, 52
2, 228240, Note_on_c, 0, 50, 44
2, 228240, Note_on_c, 0, 54, 44
2, 228240, Note_on_c, 0, 57, 44
2, 228240, Note_on_c, 0, 62, 44
2, 228329, Note_on_c, 0, 62, 0
2, 228329, Note_on_c, 0, 69, 0
2, 228329, Note_on_c, 0, 50, 0
2, 228329, Note_on_c, 0, 66, 0
2, 228329, Note_on_c, 0, 57, 0
2, 228329, Note_on_c, 0, 54, 0
2, 228420, Note_on_c, 0, 75, 48
2, 228510, Note_on_c, 0, 75, 0
2, 228510, Note_on_c, 0, 76, 57
2, 228600, Note_on_c, 0, 76, 0
2, 228600, Note_on_c, 0, 77, 61
2, 228917, Note_on_c, 0, 77, 0
2, 228960, Note_on_c, 0, 76, 56
2, 229039, Note_on_c, 0, 76, 0
2, 229050, Note_on_c, 0, 77, 61
2, 229129, Note_on_c, 0, 77, 0
2, 229140, Note_on_c, 0, 78, 60
2, 229457, Note_on_c, 0, 78, 0
2, 229500, Note_on_c, 0, 75, 43
2, 229590, Note_on_c, 0, 75, 0
2, 229590, Note_on_c, 0, 76, 54
2, 229680, Note_on_c, 0, 76, 0
2, 229680, Note_on_c, 0, 77, 50
2, 229769, Note_on_c, 0, 77, 0
2, 229860, Note_on_c, 0, 76, 44
2, 229950, Note_on_c, 0, 76, 0
2, 229950, Note_on_c, 0, 77, 52
2, 230040, Note_on_c, 0, 77, 0
2, 230040, Note_on_c, 0, 78, 48
2, 230130, Note_on_c, 0, 78, 0
2, 230130, Note_on_c, 0, 77, 44
2, 230220, Note_on_c, 0, 77, 0
2, 230220, Note_on_c, 0, 76, 39
2, 230310, Note_on_c, 0, 76, 0
2, 230310, Note_on_c, 0, 75, 35
2, 230400, Note_on_c, 0, 75, 0
2, 230400, Note_on_c, 0, 74, 31
2, 230580, Note_on_c, 0, 74, 0
2, 230580, Note_on_c, 0, 73, 40
2, 230580, Note_on_c, 0, 41, 48
2, 230580, Note_on_c, 0, 53, 48
2, 230670, Note_on_c, 0, 73, 0
2, 230670, Note_on_c, 0, 74, 41
2, 230760, Note_on_c, 0, 74, 0
2, 230760, Note_on_c, 0, 53, 0
2, 230760, Note_on_c, 0, 41, 0
2, 230760, Note_on_c, 0, 75, 40
2, 230849, Note_on_c, 0, 75, 0
2, 230940, Note_on_c, 0, 74, 40
2, 231030, Note_on_c, 0, 74, 0
2, 231030, Note_on_c, 0, 75, 42
2, 231120, Note_on_c, 0, 75, 0
2, 231120, Note_on_c, 0, 77, 47
2, 231209, Note_on_c, 0, 77, 0
2, 231300, Note_on_c, 0, 75, 37
2, 231390, Note_on_c, 0, 75, 0
2, 231390, Note_on_c, 0, 77, 40
2, 231480, Note_on_c, 0, 77, 0
2, 231480, Note_on_c, 0, 78, 45
2, 231569, Note_on_c, 0, 78, 0
2, 231660, Note_on_c, 0, 73, 28
2, 231660, Note_on_c, 0, 41, 48
2, 231660, Note_on_c, 0, 53, 48
2, 231750, Note_on_c, 0, 73, 0
2, 231750, Note_on_c, 0, 74, 46
2, 231840, Note_on_c, 0, 74, 0
2, 231840, Note_on_c, 0, 53, 0
2, 231840, Note_on_c, 0, 41, 0
2, 231840, Note_on_c, 0, 75, 40
2, 231929, Note_on_c, 0, 75, 0
2, 232020, Note_on_c, 0, 74, 35
2, 232110, Note_on_c, 0, 74, 0
2, 232110, Note_on_c, 0, 75, 42
2, 232200, Note_on_c, 0, 75, 0
2, 232200, Note_on_c, 0, 77, 44
2, 232289, Note_on_c, 0, 77, 0
2, 232380, Note_on_c, 0, 75, 38
2, 232470, Note_on_c, 0, 75, 0
2, 232470, Note_on_c, 0, 77, 46
2, 232560, Note_on_c, 0, 77, 0
2, 232560, Note_on_c, 0, 78, 41
2, 232649, Note_on_c, 0, 78, 0
2, 232740, Note_on_c, 0, 76, 40
2, 232740, Note_on_c, 0, 41, 44
2, 232740, Note_on_c, 0, 53, 44
2, 232830, Note_on_c, 0, 76, 0
2, 232830, Note_on_c, 0, 77, 41
2, 232920, Note_on_c, 0, 77, 0
2, 232920, Note_on_c, 0, 53, 0
2, 232920, Note_on_c, 0, 41, 0
2, 232920, Note_on_c, 0, 78, 42
2, 233009, Note_on_c, 0, 78, 0
2, 233100, Note_on_c, 0, 77, 45
2, 233190, Note_on_c, 0, 77, 0
2, 233190, Note_on_c, 0, 78, 46
2, 233280, Note_on_c, 0, 78, 0
2, 233280, Note_on_c, 0, 80, 47
2, 233369, Note_on_c, 0, 80, 0
2, 233460, Note_on_c, 0, 78, 49
2, 233550, Note_on_c, 0, 78, 0
2, 233550, Note_on_c, 0, 80, 50
2, 233640, Note_on_c, 0, 80, 0
2, 233640, Note_on_c, 0, 81, 51
2, 233729, Note_on_c, 0, 81, 0
2, 233820, Note_on_c, 0, 76, 53
2, 233820, Note_on_c, 0, 41, 48
2, 233820, Note_on_c, 0, 53, 48
2, 233910, Note_on_c, 0, 76, 0
2, 233910, Note_on_c, 0, 77, 54
2, 234000, Note_on_c, 0, 77, 0
2, 234000, Note_on_c, 0, 53, 0
2, 234000, Note_on_c, 0, 41, 0
2, 234000, Note_on_c, 0, 78, 55
2, 234089, Note_on_c, 0, 78, 0
2, 234180, Note_on_c, 0, 77, 57
2, 234270, Note_on_c, 0, 77, 0
2, 234270, Note_on_c, 0, 78, 58
2, 234360, Note_on_c, 0, 78, 0
2, 234360, Note_on_c, 0, 80, 59
2, 234449, Note_on_c, 0, 80, 0
2, 234540, Note_on_c, 0, 78, 61
2, 234630, Note_on_c, 0, 78, 0
2, 234630, Note_on_c, 0, 80, 62
2, 234720, Note_on_c, 0, 80, 0
2, 234720, Note_on_c, 0, 81, 64
2, 234809, Note_on_c, 0, 81, 0
2, 234900, Note_on_c, 0, 73, 66
2, 234900, Note_on_c, 0, 34, 42
2, 234900, Note_on_c, 0, 46, 42
2, 234944, Note_on_c, 0, 73, 0
2, 234989, Note_on_c, 0, 46, 0
2, 234989, Note_on_c, 0, 34, 0
2, 234990, Note_on_c, 0, 77, 74
2, 235034, Note_on_c, 0, 77, 0
2, 235080, Note_on_c, 0, 82, 78
2, 235169, Note_on_c, 0, 82, 0
2, 235260, Note_on_c, 0, 72, 47
2, 235260, Note_on_c, 0, 36, 46
2, 235260, Note_on_c, 0, 48, 46
2, 235304, Note_on_c, 0, 72, 0
2, 235349, Note_on_c, 0, 48, 0
2, 235349, Note_on_c, 0, 36, 0
2, 235350, Note_on_c, 0, 76, 70
2, 235394, Note_on_c, 0, 76, 0
2, 235440, Note_on_c, 0, 81, 76
2, 235529, Note_on_c, 0, 81, 0
2, 235620, Note_on_c, 0, 71, 47
2, 235620, Note_on_c, 0, 37, 46
2, 235620, Note_on_c, 0, 49, 46
2, 235664, Note_on_c, 0, 71, 0
2, 235709, Note_on_c, 0, 49, 0
2, 235709, Note_on_c, 0, 37, 0
2, 235710, Note_on_c, 0, 75, 72
2, 235754, Note_on_c, 0, 75, 0
2, 235800, Note_on_c, 0, 80, 78
2, 235889, Note_on_c, 0, 80, 0
2, 235980, Note_on_c, 0, 71, 66
2, 235980, Note_on_c, 0, 38, 49
2, 235980, Note_on_c, 0, 50, 49
2, 236024, Note_on_c, 0, 71, 0
2, 236069, Note_on_c, 0, 50, 0
2, 236069, Note_on_c, 0, 38, 0
2, 236070, Note_on_c, 0, 74, 64
2, 236114, Note_on_c, 0, 74, 0
2, 236160, Note_on_c, 0, 79, 61
2, 236249, Note_on_c, 0, 79, 0
2, 236340, Note_on_c, 0, 70, 57
2, 236340, Note_on_c, 0, 39, 43
2, 236340, Note_on_c, 0, 51, 43
2, 236384, Note_on_c, 0, 70, 0
2, 236429, Note_on_c, 0, 51, 0
2, 236429, Note_on_c, 0, 39, 0
2, 236430, Note_on_c, 0, 73, 55
2, 236474, Note_on_c, 0, 73, 0
2, 236520, Note_on_c, 0, 78, 53
2, 236609, Note_on_c, 0, 78, 0
2, 236700, Note_on_c, 0, 69, 49
2, 236700, Note_on_c, 0, 41, 44
2, 236700, Note_on_c, 0, 53, 44
2, 236744, Note_on_c, 0, 69, 0
2, 236789, Note_on_c, 0, 53, 0
2, 236789, Note_on_c, 0, 41, 0
2, 236790, Note_on_c, 0, 72, 47
2, 236834, Note_on_c, 0, 72, 0
2, 236880, Note_on_c, 0, 77, 45
2, 236969, Note_on_c, 0, 77, 0
2, 237060, Note_on_c, 0, 81, 40
2, 237060, Note_on_c, 0, 75, 1
2, 237060, Note_on_c, 0, 75, 0
2, 237060, Note_on_c, 0, 63, 44
2, 237060, Note_on_c, 0, 69, 44
2, 237060, Note_on_c, 0, 60, 51
2, 237150, Note_on_c, 0, 75, 1
2, 237150, Note_on_c, 0, 75, 0
2, 237150, Note_on_c, 0, 77, 1
2, 237240, Note_on_c, 0, 77, 0
2, 237240, Note_on_c, 0, 78, 1
2, 237329, Note_on_c, 0, 78, 0
2, 237420, Note_on_c, 0, 60, 0
2, 237420, Note_on_c, 0, 77, 1
2, 237420, Note_on_c, 0, 59, 46
2, 237510, Note_on_c, 0, 77, 0
2, 237510, Note_on_c, 0, 78, 1
2, 237600, Note_on_c, 0, 78, 0
2, 237600, Note_on_c, 0, 79, 1
2, 237689, Note_on_c, 0, 79, 0
2, 237780, Note_on_c, 0, 81, 0
2, 237780, Note_on_c, 0, 69, 0
2, 237780, Note_on_c, 0, 63, 0
2, 237780, Note_on_c, 0, 59, 0
2, 237780, Note_on_c, 0, 82, 46
2, 237780, Note_on_c, 0, 78, 1
2, 237780, Note_on_c, 0, 62, 47
2, 237780, Note_on_c, 0, 68, 47
2, 237780, Note_on_c, 0, 58, 47
2, 237870, Note_on_c, 0, 78, 0
2, 237870, Note_on_c, 0, 79, 1
2, 237960, Note_on_c, 0, 79, 0
2, 237960, Note_on_c, 0, 80, 1
2, 238049, Note_on_c, 0, 80, 0
2, 238140, Note_on_c, 0, 68, 0
2, 238140, Note_on_c, 0, 82, 0
2, 238140, Note_on_c, 0, 62, 0
2, 238140, Note_on_c, 0, 58, 0
2, 238140, Note_on_c, 0, 81, 33
2, 238140, Note_on_c, 0, 75, 1
2, 238140, Note_on_c, 0, 63, 56
2, 238140, Note_on_c, 0, 69, 56
2, 238140, Note_on_c, 0, 60, 51
2, 238230, Note_on_c, 0, 75, 0
2, 238230, Note_on_c, 0, 77, 1
2, 238320, Note_on_c, 0, 77, 0
2, 238320, Note_on_c, 0, 78, 1
2, 238409, Note_on_c, 0, 78, 0
2, 238500, Note_on_c, 0, 60, 0
2, 238500, Note_on_c, 0, 77, 1
2, 238500, Note_on_c, 0, 59, 49
2, 238590, Note_on_c, 0, 77, 0
2, 238590, Note_on_c, 0, 78, 1
2, 238680, Note_on_c, 0, 78, 0
2, 238680, Note_on_c, 0, 79, 1
2, 238769, Note_on_c, 0, 79, 0
2, 238860, Note_on_c, 0, 81, 0
2, 238860, Note_on_c, 0, 69, 0
2, 238860, Note_on_c, 0, 63, 0
2, 238860, Note_on_c, 0, 59, 0
2, 238860, Note_on_c, 0, 82, 43
2, 238860, Note_on_c, 0, 78, 1
2, 238860, Note_on_c, 0, 62, 46
2, 238860, Note_on_c, 0, 68, 46
2, 238860, Note_on_c, 0, 58, 48
2, 238950, Note_on_c, 0, 78, 0
2, 238950, Note_on_c, 0, 79, 1
2, 239040, Note_on_c, 0, 79, 0
2, 239040, Note_on_c, 0, 80, 1
2, 239129, Note_on_c, 0, 80, 0
2, 239220, Note_on_c, 0, 68, 0
2, 239220, Note_on_c, 0, 82, 0
2, 239220, Note_on_c, 0, 62, 0
2, 239220, Note_on_c, 0, 58, 0
2, 239220, Note_on_c, 0, 83, 40
2, 239220, Note_on_c, 0, 74, 1
2, 239220, Note_on_c, 0, 74, 0
2, 239220, Note_on_c, 0, 59, 43
2, 239220, Note_on_c, 0, 64, 43
2, 239220, Note_on_c, 0, 56, 44
2, 239310, Note_on_c, 0, 74, 1
2, 239310, Note_on_c, 0, 74, 0
2, 239310, Note_on_c, 0, 75, 1
2, 239400, Note_on_c, 0, 75, 0
2, 239400, Note_on_c, 0, 76, 1
2, 239580, Note_on_c, 0, 76, 0
2, 239580, Note_on_c, 0, 56, 0
2, 239580, Note_on_c, 0, 75, 1
2, 239580, Note_on_c, 0, 55, 59
2, 239580, Note_on_c, 0, 59, 59
2, 239580, Note_on_c, 0, 65, 59
2, 239670, Note_on_c, 0, 75, 0
2, 239670, Note_on_c, 0, 76, 1
2, 239760, Note_on_c, 0, 76, 0
2, 239760, Note_on_c, 0, 59, 0
2, 239760, Note_on_c, 0, 64, 0
2, 239760, Note_on_c, 0, 77, 1
2, 239940, Note_on_c, 0, 77, 0
2, 239940, Note_on_c, 0, 65, 0
2, 239940, Note_on_c, 0, 83, 0
2, 239940, Note_on_c, 0, 59, 0
2, 239940, Note_on_c, 0, 55, 0
2, 239940, Note_on_c, 0, 84, 49
2, 239940, Note_on_c, 0, 76, 1
2, 239940, Note_on_c, 0, 60, 42
2, 239940, Note_on_c, 0, 66, 42
2, 239940, Note_on_c, 0, 54, 38
2, 240030, Note_on_c, 0, 76, 0
2, 240030, Note_on_c, 0, 77, 1
2, 240120, Note_on_c, 0, 77, 0
2, 240120, Note_on_c, 0, 78, 1
2, 240300, Note_on_c, 0, 78, 0
2, 240300, Note_on_c, 0, 66, 0
2, 240300, Note_on_c, 0, 84, 0
2, 240300, Note_on_c, 0, 60, 0
2, 240300, Note_on_c, 0, 54, 0
2, 240300, Note_on_c, 0, 83, 53
2, 240300, Note_on_c, 0, 74, 2
2, 240300, Note_on_c, 0, 59, 48
2, 240300, Note_on_c, 0, 64, 48
2, 240300, Note_on_c, 0, 56, 46
2, 240390, Note_on_c, 0, 74, 0
2, 240390, Note_on_c, 0, 75, 3
2, 240480, Note_on_c, 0, 75, 0
2, 240480, Note_on_c, 0, 76, 4
2, 240660, Note_on_c, 0, 76, 0
2, 240660, Note_on_c, 0, 56, 0
2, 240660, Note_on_c, 0, 75, 6
2, 240660, Note_on_c, 0, 55, 63
2, 240660, Note_on_c, 0, 59, 63
2, 240660, Note_on_c, 0, 65, 63
2, 240750, Note_on_c, 0, 75, 0
2, 240750, Note_on_c, 0, 76, 7
2, 240840, Note_on_c, 0, 76, 0
2, 240840, Note_on_c, 0, 59, 0
2, 240840, Note_on_c, 0, 64, 0
2, 240840, Note_on_c, 0, 77, 9
2, 241020, Note_on_c, 0, 77, 0
2, 241020, Note_on_c, 0, 65, 0
2, 241020, Note_on_c, 0, 83, 0
2, 241020, Note_on_c, 0, 59, 0
2, 241020, Note_on_c, 0, 55, 0
2, 241020, Note_on_c, 0, 84, 61
2, 241020, Note_on_c, 0, 76, 11
2, 241020, Note_on_c, 0, 60, 43
2, 241020, Note_on_c, 0, 66, 43
2, 241020, Note_on_c, 0, 54, 40
2, 241110, Note_on_c, 0, 76, 0
2, 241110, Note_on_c, 0, 77, 12
2, 241200, Note_on_c, 0, 77, 0
2, 241200, Note_on_c, 0, 78, 13
2, 241380, Note_on_c, 0, 78, 0
2, 241380, Note_on_c, 0, 66, 0
2, 241380, Note_on_c, 0, 84, 0
2, 241380, Note_on_c, 0, 60, 0
2, 241380, Note_on_c, 0, 54, 0
2, 241380, Note_on_c, 0, 76, 66
2, 241380, Note_on_c, 0, 64, 36
2, 241470, Note_on_c, 0, 64, 0
2, 241470, Note_on_c, 0, 76, 0
2, 241470, Note_on_c, 0, 77, 66
2, 241470, Note_on_c, 0, 65, 44
2, 241560, Note_on_c, 0, 65, 0
2, 241560, Note_on_c, 0, 77, 0
2, 241560, Note_on_c, 0, 78, 69
2, 241560, Note_on_c, 0, 66, 40
2, 241649, Note_on_c, 0, 66, 0
2, 241649, Note_on_c, 0, 78, 0
2, 241740, Note_on_c, 0, 77, 63
2, 241740, Note_on_c, 0, 65, 41
2, 241830, Note_on_c, 0, 65, 0
2, 241830, Note_on_c, 0, 77, 0
2, 241830, Note_on_c, 0, 78, 63
2, 241830, Note_on_c, 0, 66, 41
2, 241920, Note_on_c, 0, 66, 0
2, 241920, Note_on_c, 0, 78, 0
2, 241920, Note_on_c, 0, 79, 75
2, 241920, Note_on_c, 0, 67, 46
2, 242009, Note_on_c, 0, 67, 0
2, 242009, Note_on_c, 0, 79, 0
2, 242100, Note_on_c, 0, 78, 63
2, 242100, Note_on_c, 0, 66, 38
2, 242190, Note_on_c, 0, 66, 0
2, 242190, Note_on_c, 0, 78, 0
2, 242190, Note_on_c, 0, 79, 74
2, 242190, Note_on_c, 0, 67, 44
2, 242280, Note_on_c, 0, 67, 0
2, 242280, Note_on_c, 0, 79, 0
2, 242280, Note_on_c, 0, 80, 67
2, 242280, Note_on_c, 0, 68, 45
2, 242369, Note_on_c, 0, 68, 0
2, 242369, Note_on_c, 0, 80, 0
2, 242460, Note_on_c, 0, 79, 66
2, 242460, Note_on_c, 0, 67, 40
2, 242550, Note_on_c, 0, 67, 0
2, 242550, Note_on_c, 0, 79, 0
2, 242550, Note_on_c, 0, 80, 67
2, 242550, Note_on_c, 0, 68, 41
2, 242640, Note_on_c, 0, 68, 0
2, 242640, Note_on_c, 0, 80, 0
2, 242640, Note_on_c, 0, 81, 68
2, 242640, Note_on_c, 0, 69, 42
2, 242729, Note_on_c, 0, 69, 0
2, 242729, Note_on_c, 0, 81, 0
2, 242820, Note_on_c, 0, 80, 70
2, 242820, Note_on_c, 0, 68, 45
2, 242910, Note_on_c, 0, 68, 0
2, 242910, Note_on_c, 0, 80, 0
2, 242910, Note_on_c, 0, 81, 71
2, 242910, Note_on_c, 0, 69, 46
2, 243000, Note_on_c, 0, 69, 0
2, 243000, Note_on_c, 0, 81, 0
2, 243000, Note_on_c, 0, 82, 72
2, 243000, Note_on_c, 0, 70, 47
2, 243089, Note_on_c, 0, 70, 0
2, 243089, Note_on_c, 0, 82, 0
2, 243180, Note_on_c, 0, 81, 74
2, 243180, Note_on_c, 0, 69, 49
2, 243270, Note_on_c, 0, 69, 0
2, 243270, Note_on_c, 0, 81, 0
2, 243270, Note_on_c, 0, 82, 75
2, 243270, Note_on_c, 0, 70, 50
2, 243360, Note_on_c, 0, 70, 0
2, 243360, Note_on_c, 0, 82, 0
2, 243360, Note_on_c, 0, 83, 76
2, 243360, Note_on_c, 0, 71, 51
2, 243449, Note_on_c, 0, 71, 0
2, 243449, Note_on_c, 0, 83, 0
2, 243540, Note_on_c, 0, 82, 78
2, 243540, Note_on_c, 0, 70, 53
2, 243630, Note_on_c, 0, 70, 0
2, 243630, Note_on_c, 0, 82, 0
2, 243630, Note_on_c, 0, 83, 79
2, 243630, Note_on_c, 0, 71, 54
2, 243720, Note_on_c, 0, 71, 0
2, 243720, Note_on_c, 0, 83, 0
2, 243720, Note_on_c, 0, 84, 80
2, 243720, Note_on_c, 0, 72, 55
2, 243809, Note_on_c, 0, 72, 0
2, 243809, Note_on_c, 0, 84, 0
2, 243900, Note_on_c, 0, 83, 83
2, 243900, Note_on_c, 0, 71, 57
2, 243990, Note_on_c, 0, 71, 0
2, 243990, Note_on_c, 0, 83, 0
2, 243990, Note_on_c, 0, 84, 84
2, 243990, Note_on_c, 0, 72, 58
2, 244080, Note_on_c, 0, 72, 0
2, 244080, Note_on_c, 0, 84, 0
2, 244080, Note_on_c, 0, 85, 85
2, 244080, Note_on_c, 0, 73, 59
2, 244169, Note_on_c, 0, 73, 0
2, 244169, Note_on_c, 0, 85, 0
2, 244260, Note_on_c, 0, 84, 87
2, 244260, Note_on_c, 0, 72, 61
2, 244350, Note_on_c, 0, 72, 0
2, 244350, Note_on_c, 0, 84, 0
2, 244350, Note_on_c, 0, 85, 88
2, 244350, Note_on_c, 0, 73, 62
2, 244440, Note_on_c, 0, 73, 0
2, 244440, Note_on_c, 0, 85, 0
2, 244440, Note_on_c, 0, 86, 89
2, 244440, Note_on_c, 0, 74, 64
2, 244529, Note_on_c, 0, 74, 0
2, 244529, Note_on_c, 0, 86, 0
2, 244620, Note_on_c, 0, 85, 91
2, 244620, Note_on_c, 0, 73, 66
2, 244710, Note_on_c, 0, 73, 0
2, 244710, Note_on_c, 0, 85, 0
2, 244710, Note_on_c, 0, 86, 99
2, 244710, Note_on_c, 0, 74, 72
2, 244800, Note_on_c, 0, 74, 0
2, 244800, Note_on_c, 0, 86, 0
2, 244800, Note_on_c, 0, 87, 97
2, 244800, Note_on_c, 0, 75, 74
2, 244889, Note_on_c, 0, 75, 0
2, 244889, Note_on_c, 0, 87, 0
2, 244980, Note_on_c, 0, 86, 87
2, 244980, Note_on_c, 0, 62, 44
2, 245070, Note_on_c, 0, 62, 0
2, 245070, Note_on_c, 0, 86, 0
2, 245070, Note_on_c, 0, 87, 95
2, 245070, Note_on_c, 0, 63, 66
2, 245160, Note_on_c, 0, 63, 0
2, 245160, Note_on_c, 0, 87, 0
2, 245160, Note_on_c, 0, 88, 93
2, 245160, Note_on_c, 0, 64, 72
2, 245250, Note_on_c, 0, 64, 0
2, 245250, Note_on_c, 0, 88, 0
2, 245250, Note_on_c, 0, 90, 91
2, 245250, Note_on_c, 0, 66, 66
2, 245340, Note_on_c, 0, 66, 0
2, 245340, Note_on_c, 0, 90, 0
2, 245340, Note_on_c, 0, 91, 96
2, 245340, Note_on_c, 0, 67, 71
2, 245430, Note_on_c, 0, 67, 0
2, 245430, Note_on_c, 0, 91, 0
2, 245430, Note_on_c, 0, 92, 101
2, 245430, Note_on_c, 0, 68, 76
2, 245520, Note_on_c, 0, 68, 0
2, 245520, Note_on_c, 0, 92, 0
2, 245520, Note_on_c, 0, 93, 106
2, 245520, Note_on_c, 0, 69, 81
2, 245610, Note_on_c, 0, 69, 0
2, 245610, Note_on_c, 0, 93, 0
2, 245610, Note_on_c, 0, 94, 111
2, 245610, Note_on_c, 0, 70, 86
2, 245700, Note_on_c, 0, 70, 0
2, 245700, Note_on_c, 0, 94, 0
2, 245700, Note_on_c, 0, 83, 108
2, 245700, Note_on_c, 0, 86, 108
2, 245700, Note_on_c, 0, 91, 108
2, 245700, Note_on_c, 0, 95, 108
2, 245700, Note_on_c, 0, 62, 108
2, 245700, Note_on_c, 0, 67, 108
2, 245700, Note_on_c, 0, 71, 108
2, 245789, Note_on_c, 0, 71, 0
2, 245789, Note_on_c, 0, 62, 0
2, 245789, Note_on_c, 0, 86, 0
2, 245789, Note_on_c, 0, 91, 0
2, 245789, Note_on_c, 0, 83, 0
2, 245789, Note_on_c, 0, 67, 0
2, 245789, Note_on_c, 0, 95, 0
2, 245880, Note_on_c, 0, 83, 104
2, 245880, Note_on_c, 0, 86, 104
2, 245880, Note_on_c, 0, 91, 104
2, 245880, Note_on_c, 0, 95, 104
2, 245880, Note_on_c, 0, 62, 111
2, 245880, Note_on_c, 0, 67, 111
2, 245880, Note_on_c, 0, 71, 111
2, 245880, Note_on_c, 0, 74, 111
2, 245970, Note_on_c, 0, 74, 0
2, 245970, Note_on_c, 0, 83, 0
2, 245970, Note_on_c, 0, 62, 0
2, 245970, Note_on_c, 0, 86, 0
2, 245970, Note_on_c, 0, 91, 0
2, 245970, Note_on_c, 0, 95, 0
2, 245970, Note_on_c, 0, 67, 0
2, 245970, Note_on_c, 0, 71, 0
2, 245970, Note_on_c, 0, 83, 103
2, 245970, Note_on_c, 0, 86, 103
2, 245970, Note_on_c, 0, 91, 103
2, 245970, Note_on_c, 0, 95, 103
2, 245970, Note_on_c, 0, 62, 103
2, 245970, Note_on_c, 0, 67, 103
2, 245970, Note_on_c, 0, 71, 103
2, 245970, Note_on_c, 0, 74, 103
2, 246060, Note_on_c, 0, 74, 0
2, 246060, Note_on_c, 0, 83, 0
2, 246060, Note_on_c, 0, 62, 0
2, 246060, Note_on_c, 0, 86, 0
2, 246060, Note_on_c, 0, 91, 0
2, 246060, Note_on_c, 0, 95, 0
2, 246060, Note_on_c, 0, 67, 0
2, 246060, Note_on_c, 0, 71, 0
2, 246060, Note_on_c, 0, 83, 112
2, 246060, Note_on_c, 0, 86, 112
2, 246060, Note_on_c, 0, 91, 112
2, 246060, Note_on_c, 0, 95, 112
2, 246060, Note_on_c, 0, 62, 113
2, 246060, Note_on_c, 0, 67, 113
2, 246060, Note_on_c, 0, 71, 113
2, 246060, Note_on_c, 0, 74, 113
2, 246420, Note_on_c, 0, 74, 0
2, 246420, Note_on_c, 0, 83, 0
2, 246420, Note_on_c, 0, 62, 0
2, 246420, Note_on_c, 0, 86, 0
2, 246420, Note_on_c, 0, 91, 0
2, 246420, Note_on_c, 0, 95, 0
2, 246420, Note_on_c, 0, 67, 0
2, 246420, Note_on_c, 0, 71, 0
2, 246420, Note_on_c, 0, 83, 107
2, 246420, Note_on_c, 0, 86, 107
2, 246420, Note_on_c, 0, 91, 107
2, 246420, Note_on_c, 0, 95, 107
2, 246420, Note_on_c, 0, 62, 103
2, 246420, Note_on_c, 0, 67, 103
2, 246420, Note_on_c, 0, 71, 103
2, 246420, Note_on_c, 0, 74, 103
2, 246600, Note_on_c, 0, 74, 0
2, 246600, Note_on_c, 0, 83, 0
2, 246600, Note_on_c, 0, 62, 0
2, 246600, Note_on_c, 0, 86, 0
2, 246600, Note_on_c, 0, 91, 0
2, 246600, Note_on_c, 0, 95, 0
2, 246600, Note_on_c, 0, 67, 0
2, 246600, Note_on_c, 0, 71, 0
2, 246600, Note_on_c, 0, 83, 101
2, 246600, Note_on_c, 0, 86, 101
2, 246600, Note_on_c, 0, 91, 101
2, 246600, Note_on_c, 0, 95, 101
2, 246600, Note_on_c, 0, 62, 112
2, 246600, Note_on_c, 0, 67, 112
2, 246600, Note_on_c, 0, 71, 112
2, 246600, Note_on_c, 0, 74, 112
2, 246960, Note_on_c, 0, 74, 0
2, 246960, Note_on_c, 0, 83, 0
2, 246960, Note_on_c, 0, 62, 0
2, 246960, Note_on_c, 0, 86, 0
2, 246960, Note_on_c, 0, 91, 0
2, 246960, Note_on_c, 0, 95, 0
2, 246960, Note_on_c, 0, 67, 0
2, 246960, Note_on_c, 0, 71, 0
2, 246960, Note_on_c, 0, 83, 107
2, 246960, Note_on_c, 0, 86, 107
2, 246960, Note_on_c, 0, 91, 107
2, 246960, Note_on_c, 0, 95, 107
2, 246960, Note_on_c, 0, 62, 105
2, 246960, Note_on_c, 0, 67, 105
2, 246960, Note_on_c, 0, 71, 105
2, 246960, Note_on_c, 0, 74, 105
2, 247049, Note_on_c, 0, 74, 0
2, 247049, Note_on_c, 0, 83, 0
2, 247049, Note_on_c, 0, 62, 0
2, 247049, Note_on_c, 0, 86, 0
2, 247049, Note_on_c, 0, 91, 0
2, 247049, Note_on_c, 0, 95, 0
2, 247049, Note_on_c, 0, 67, 0
2, 247049, Note_on_c, 0, 71, 0
2, 247140, Note_on_c, 0, 83, 101
2, 247140, Note_on_c, 0, 86, 101
2, 247140, Note_on_c, 0, 91, 101
2, 247140, Note_on_c, 0, 95, 101
2, 247140, Note_on_c, 0, 62, 98
2, 247140, Note_on_c, 0, 67, 98
2, 247140, Note_on_c, 0, 71, 98
2, 247140, Note_on_c, 0, 74, 98
2, 247229, Note_on_c, 0, 74, 0
2, 247229, Note_on_c, 0, 83, 0
2, 247229, Note_on_c, 0, 62, 0
2, 247229, Note_on_c, 0, 86, 0
2, 247229, Note_on_c, 0, 91, 0
2, 247229, Note_on_c, 0, 95, 0
2, 247229, Note_on_c, 0, 67, 0
2, 247229, Note_on_c, 0, 71, 0
2, 247320, Note_on_c, 0, 82, 94
2, 247320, Note_on_c, 0, 86, 94
2, 247320, Note_on_c, 0, 89, 94
2, 247320, Note_on_c, 0, 94, 94
2, 247320, Note_on_c, 0, 62, 102
2, 247320, Note_on_c, 0, 65, 102
2, 247320, Note_on_c, 0, 70, 102
2, 247320, Note_on_c, 0, 74, 102
2, 247409, Note_on_c, 0, 74, 0
2, 247409, Note_on_c, 0, 82, 0
2, 247409, Note_on_c, 0, 62, 0
2, 247409, Note_on_c, 0, 86, 0
2, 247409, Note_on_c, 0, 89, 0
2, 247409, Note_on_c, 0, 94, 0
2, 247409, Note_on_c, 0, 65, 0
2, 247409, Note_on_c, 0, 70, 0
2, 247500, Note_on_c, 0, 82, 101
2, 247500, Note_on_c, 0, 86, 101
2, 247500, Note_on_c, 0, 89, 101
2, 247500, Note_on_c, 0, 94, 101
2, 247500, Note_on_c, 0, 62, 102
2, 247500, Note_on_c, 0, 65, 102
2, 247500, Note_on_c, 0, 70, 102
2, 247500, Note_on_c, 0, 74, 102
2, 247590, Note_on_c, 0, 74, 0
2, 247590, Note_on_c, 0, 82, 0
2, 247590, Note_on_c, 0, 62, 0
2, 247590, Note_on_c, 0, 86, 0
2, 247590, Note_on_c, 0, 89, 0
2, 247590, Note_on_c, 0, 94, 0
2, 247590, Note_on_c, 0, 65, 0
2, 247590, Note_on_c, 0, 70, 0
2, 247590, Note_on_c, 0, 82, 102
2, 247590, Note_on_c, 0, 86, 102
2, 247590, Note_on_c, 0, 89, 102
2, 247590, Note_on_c, 0, 94, 102
2, 247590, Note_on_c, 0, 62, 103
2, 247590, Note_on_c, 0, 65, 103
2, 247590, Note_on_c, 0, 70, 103
2, 247590, Note_on_c, 0, 74, 103
2, 247680, Note_on_c, 0, 74, 0
2, 247680, Note_on_c, 0, 82, 0
2, 247680, Note_on_c, 0, 62, 0
2, 247680, Note_on_c, 0, 86, 0
2, 247680, Note_on_c, 0, 89, 0
2, 247680, Note_on_c, 0, 94, 0
2, 247680, Note_on_c, 0, 65, 0
2, 247680, Note_on_c, 0, 70, 0
2, 247680, Note_on_c, 0, 82, 117
2, 247680, Note_on_c, 0, 86, 117
2, 247680, Note_on_c, 0, 89, 117
2, 247680, Note_on_c, 0, 94, 117
2, 247680, Note_on_c, 0, 62, 112
2, 247680, Note_on_c, 0, 65, 112
2, 247680, Note_on_c, 0, 70, 112
2, 247680, Note_on_c, 0, 74, 112
2, 248040, Note_on_c, 0, 74, 0
2, 248040, Note_on_c, 0, 82, 0
2, 248040, Note_on_c, 0, 62, 0
2, 248040, Note_on_c, 0, 86, 0
2, 248040, Note_on_c, 0, 89, 0
2, 248040, Note_on_c, 0, 94, 0
2, 248040, Note_on_c, 0, 65, 0
2, 248040, Note_on_c, 0, 70, 0
2, 248040, Note_on_c, 0, 82, 105
2, 248040, Note_on_c, 0, 86, 105
2, 248040, Note_on_c, 0, 89, 105
2, 248040, Note_on_c, 0, 94, 105
2, 248040, Note_on_c, 0, 62, 104
2, 248040, Note_on_c, 0, 65, 104
2, 248040, Note_on_c, 0, 70, 104
2, 248040, Note_on_c, 0, 74, 104
2, 248129, Note_on_c, 0, 74, 0
2, 248129, Note_on_c, 0, 82, 0
2, 248129, Note_on_c, 0, 62, 0
2, 248129, Note_on_c, 0, 86, 0
2, 248129, Note_on_c, 0, 89, 0
2, 248129, Note_on_c, 0, 94, 0
2, 248129, Note_on_c, 0, 65, 0
2, 248129, Note_on_c, 0, 70, 0
2, 248220, Note_on_c, 0, 82, 102
2, 248220, Note_on_c, 0, 86, 102
2, 248220, Note_on_c, 0, 89, 102
2, 248220, Note_on_c, 0, 94, 102
2, 248220, Note_on_c, 0, 62, 112
2, 248220, Note_on_c, 0, 65, 112
2, 248220, Note_on_c, 0, 70, 112
2, 248220, Note_on_c, 0, 74, 112
2, 248580, Note_on_c, 0, 74, 0
2, 248580, Note_on_c, 0, 82, 0
2, 248580, Note_on_c, 0, 62, 0
2, 248580, Note_on_c, 0, 86, 0
2, 248580, Note_on_c, 0, 89, 0
2, 248580, Note_on_c, 0, 94, 0
2, 248580, Note_on_c, 0, 65, 0
2, 248580, Note_on_c, 0, 70, 0
2, 248580, Note_on_c, 0, 82, 102
2, 248580, Note_on_c, 0, 86, 102
2, 248580, Note_on_c, 0, 89, 102
2, 248580, Note_on_c, 0, 94, 102
2, 248580, Note_on_c, 0, 62, 102
2, 248580, Note_on_c, 0, 65, 102
2, 248580, Note_on_c, 0, 70, 102
2, 248580, Note_on_c, 0, 74, 102
2, 248669, Note_on_c, 0, 74, 0
2, 248669, Note_on_c, 0, 82, 0
2, 248669, Note_on_c, 0, 62, 0
2, 248669, Note_on_c, 0, 86, 0
2, 248669, Note_on_c, 0, 89, 0
2, 248669, Note_on_c, 0, 94, 0
2, 248669, Note_on_c, 0, 65, 0
2, 248669, Note_on_c, 0, 70, 0
2, 248760, Note_on_c, 0, 82, 101
2, 248760, Note_on_c, 0, 86, 101
2, 248760, Note_on_c, 0, 89, 101
2, 248760, Note_on_c, 0, 94, 101
2, 248760, Note_on_c, 0, 62, 103
2, 248760, Note_on_c, 0, 65, 103
2, 248760, Note_on_c, 0, 70, 103
2, 248760, Note_on_c, 0, 74, 103
2, 248849, Note_on_c, 0, 74, 0
2, 248849, Note_on_c, 0, 82, 0
2, 248849, Note_on_c, 0, 62, 0
2, 248849, Note_on_c, 0, 86, 0
2, 248849, Note_on_c, 0, 89, 0
2, 248849, Note_on_c, 0, 94, 0
2, 248849, Note_on_c, 0, 65, 0
2, 248849, Note_on_c, 0, 70, 0
2, 248940, Note_on_c, 0, 82, 104
2, 248940, Note_on_c, 0, 85, 104
2, 248940, Note_on_c, 0, 90, 104
2, 248940, Note_on_c, 0, 94, 104
2, 248940, Note_on_c, 0, 61, 94
2, 248940, Note_on_c, 0, 66, 94
2, 248940, Note_on_c, 0, 70, 94
2, 248940, Note_on_c, 0, 73, 94
2, 249120, Note_on_c, 0, 73, 0
2, 249120, Note_on_c, 0, 82, 0
2, 249120, Note_on_c, 0, 61, 0
2, 249120, Note_on_c, 0, 85, 0
2, 249120, Note_on_c, 0, 90, 0
2, 249120, Note_on_c, 0, 94, 0
2, 249120, Note_on_c, 0, 66, 0
2, 249120, Note_on_c, 0, 70, 0
2, 249300, Note_on_c, 0, 78, 90
2, 249300, Note_on_c, 0, 82, 90
2, 249300, Note_on_c, 0, 86, 90
2, 249300, Note_on_c, 0, 90, 90
2, 249300, Note_on_c, 0, 58, 86
2, 249300, Note_on_c, 0, 62, 86
2, 249300, Note_on_c, 0, 68, 86
2, 249300, Note_on_c, 0, 70, 86
2, 249480, Note_on_c, 0, 70, 0
2, 249480, Note_on_c, 0, 78, 0
2, 249480, Note_on_c, 0, 58, 0
2, 249480, Note_on_c, 0, 82, 0
2, 249480, Note_on_c, 0, 86, 0
2, 249480, Note_on_c, 0, 90, 0
2, 249480, Note_on_c, 0, 62, 0
2, 249480, Note_on_c, 0, 68, 0
2, 249660, Note_on_c, 0, 82, 94
2, 249660, Note_on_c, 0, 85, 94
2, 249660, Note_on_c, 0, 90, 94
2, 249660, Note_on_c, 0, 94, 94
2, 249660, Note_on_c, 0, 61, 92
2, 249660, Note_on_c, 0, 66, 92
2, 249660, Note_on_c, 0, 70, 92
2, 249660, Note_on_c, 0, 73, 92
2, 249840, Note_on_c, 0, 73, 0
2, 249840, Note_on_c, 0, 82, 0
2, 249840, Note_on_c, 0, 61, 0
2, 249840, Note_on_c, 0, 85, 0
2, 249840, Note_on_c, 0, 90, 0
2, 249840, Note_on_c, 0, 94, 0
2, 249840, Note_on_c, 0, 66, 0
2, 249840, Note_on_c, 0, 70, 0
2, 250020, Note_on_c, 0, 78, 93
2, 250020, Note_on_c, 0, 82, 93
2, 250020, Note_on_c, 0, 86, 93
2, 250020, Note_on_c, 0, 90, 93
2, 250020, Note_on_c, 0, 58, 90
2, 250020, Note_on_c, 0, 62, 90
2, 250020, Note_on_c, 0, 68, 90
2, 250020, Note_on_c, 0, 70, 90
2, 250200, Note_on_c, 0, 70, 0
2, 250200, Note_on_c, 0, 78, 0
2, 250200, Note_on_c, 0, 58, 0
2, 250200, Note_on_c, 0, 82, 0
2, 250200, Note_on_c, 0, 86, 0
2, 250200, Note_on_c, 0, 90, 0
2, 250200, Note_on_c, 0, 62, 0
2, 250200, Note_on_c, 0, 68, 0
2, 250200, Note_on_c, 0, 82, 114
2, 250200, Note_on_c, 0, 85, 114
2, 250200, Note_on_c, 0, 90, 114
2, 250200, Note_on_c, 0, 94, 114
2, 250200, Note_on_c, 0, 61, 108
2, 250200, Note_on_c, 0, 66, 108
2, 250200, Note_on_c, 0, 70, 108
2, 250200, Note_on_c, 0, 73, 108
2, 250380, Note_on_c, 0, 73, 0
2, 250380, Note_on_c, 0, 82, 0
2, 250380, Note_on_c, 0, 61, 0
2, 250380, Note_on_c, 0, 85, 0
2, 250380, Note_on_c, 0, 90, 0
2, 250380, Note_on_c, 0, 94, 0
2, 250380, Note_on_c, 0, 66, 0
2, 250380, Note_on_c, 0, 70, 0
2, 250560, Note_on_c, 0, 78, 89
2, 250560, Note_on_c, 0, 82, 89
2, 250560, Note_on_c, 0, 86, 89
2, 250560, Note_on_c, 0, 90, 89
2, 250560, Note_on_c, 0, 58, 89
2, 250560, Note_on_c, 0, 62, 89
2, 250560, Note_on_c, 0, 68, 89
2, 250560, Note_on_c, 0, 70, 89
2, 250740, Note_on_c, 0, 70, 0
2, 250740, Note_on_c, 0, 78, 0
2, 250740, Note_on_c, 0, 58, 0
2, 250740, Note_on_c, 0, 82, 0
2, 250740, Note_on_c, 0, 86, 0
2, 250740, Note_on_c, 0, 90, 0
2, 250740, Note_on_c, 0, 62, 0
2, 250740, Note_on_c, 0, 68, 0
2, 250920, Note_on_c, 0, 82, 89
2, 250920, Note_on_c, 0, 86, 89
2, 250920, Note_on_c, 0, 90, 89
2, 250920, Note_on_c, 0, 94, 89
2, 250920, Note_on_c, 0, 62, 88
2, 250920, Note_on_c, 0, 66, 88
2, 250920, Note_on_c, 0, 72, 88
2, 250920, Note_on_c, 0, 74, 88
2, 251010, Note_on_c, 0, 74, 0
2, 251010, Note_on_c, 0, 82, 0
2, 251010, Note_on_c, 0, 62, 0
2, 251010, Note_on_c, 0, 86, 0
2, 251010, Note_on_c, 0, 90, 0
2, 251010, Note_on_c, 0, 94, 0
2, 251010, Note_on_c, 0, 66, 0
2, 251010, Note_on_c, 0, 72, 0
2, 251010, Note_on_c, 0, 82, 99
2, 251010, Note_on_c, 0, 86, 99
2, 251010, Note_on_c, 0, 90, 99
2, 251010, Note_on_c, 0, 94, 99
2, 251010, Note_on_c, 0, 62, 97
2, 251010, Note_on_c, 0, 66, 97
2, 251010, Note_on_c, 0, 72, 97
2, 251010, Note_on_c, 0, 74, 97
2, 251100, Note_on_c, 0, 74, 0
2, 251100, Note_on_c, 0, 82, 0
2, 251100, Note_on_c, 0, 62, 0
2, 251100, Note_on_c, 0, 86, 0
2, 251100, Note_on_c, 0, 90, 0
2, 251100, Note_on_c, 0, 94, 0
2, 251100, Note_on_c, 0, 66, 0
2, 251100, Note_on_c, 0, 72, 0
2, 251100, Note_on_c, 0, 82, 117
2, 251100, Note_on_c, 0, 86, 117
2, 251100, Note_on_c, 0, 90, 117
2, 251100, Note_on_c, 0, 94, 117
2, 251100, Note_on_c, 0, 62, 105
2, 251100, Note_on_c, 0, 66, 105
2, 251100, Note_on_c, 0, 72, 105
2, 251100, Note_on_c, 0, 74, 105
2, 251280, Note_on_c, 0, 74, 0
2, 251280, Note_on_c, 0, 82, 0
2, 251280, Note_on_c, 0, 62, 0
2, 251280, Note_on_c, 0, 86, 0
2, 251280, Note_on_c, 0, 90, 0
2, 251280, Note_on_c, 0, 94, 0
2, 251280, Note_on_c, 0, 66, 0
2, 251280, Note_on_c, 0, 72, 0
2, 251820, Note_on_c, 0, 82, 78
2, 251820, Note_on_c, 0, 70, 77
2, 251910, Note_on_c, 0, 70, 0
2, 251910, Note_on_c, 0, 82, 0
2, 251910, Note_on_c, 0, 86, 92
2, 251910, Note_on_c, 0, 74, 95
2, 252000, Note_on_c, 0, 74, 0
2, 252000, Note_on_c, 0, 86, 0
2, 252000, Note_on_c, 0, 82, 102
2, 252000, Note_on_c, 0, 86, 102
2, 252000, Note_on_c, 0, 91, 102
2, 252000, Note_on_c, 0, 70, 102
2, 252000, Note_on_c, 0, 74, 102
2, 252000, Note_on_c, 0, 79, 102
2, 252089, Note_on_c, 0, 79, 0
2, 252089, Note_on_c, 0, 86, 0
2, 252089, Note_on_c, 0, 91, 0
2, 252089, Note_on_c, 0, 82, 0
2, 252089, Note_on_c, 0, 74, 0
2, 252089, Note_on_c, 0, 70, 0
2, 252180, Note_on_c, 0, 81, 65
2, 252180, Note_on_c, 0, 69, 66
2, 252270, Note_on_c, 0, 69, 0
2, 252270, Note_on_c, 0, 81, 0
2, 252270, Note_on_c, 0, 85, 95
2, 252270, Note_on_c, 0, 73, 98
2, 252360, Note_on_c, 0, 73, 0
2, 252360, Note_on_c, 0, 85, 0
2, 252360, Note_on_c, 0, 81, 101
2, 252360, Note_on_c, 0, 85, 101
2, 252360, Note_on_c, 0, 90, 101
2, 252360, Note_on_c, 0, 69, 101
2, 252360, Note_on_c, 0, 73, 101
2, 252360, Note_on_c, 0, 78, 101
2, 252449, Note_on_c, 0, 78, 0
2, 252449, Note_on_c, 0, 85, 0
2, 252449, Note_on_c, 0, 90, 0
2, 252449, Note_on_c, 0, 81, 0
2, 252449, Note_on_c, 0, 73, 0
2, 252449, Note_on_c, 0, 69, 0
2, 252540, Note_on_c, 0, 80, 70
2, 252540, Note_on_c, 0, 68, 66
2, 252630, Note_on_c, 0, 68, 0
2, 252630, Note_on_c, 0, 80, 0
2, 252630, Note_on_c, 0, 84, 90
2, 252630, Note_on_c, 0, 72, 93
2, 252720, Note_on_c, 0, 72, 0
2, 252720, Note_on_c, 0, 84, 0
2, 252720, Note_on_c, 0, 80, 117
2, 252720, Note_on_c, 0, 89, 117
2, 252720, Note_on_c, 0, 68, 117
2, 252720, Note_on_c, 0, 77, 117
2, 252810, Note_on_c, 0, 77, 0
2, 252810, Note_on_c, 0, 80, 0
2, 252810, Note_on_c, 0, 89, 0
2, 252810, Note_on_c, 0, 68, 0
2, 252810, Note_on_c, 0, 84, 80
2, 252810, Note_on_c, 0, 72, 76
2, 252900, Note_on_c, 0, 72, 0
2, 252900, Note_on_c, 0, 84, 0
2, 252900, Note_on_c, 0, 80, 76
2, 252900, Note_on_c, 0, 68, 78
2, 252990, Note_on_c, 0, 68, 0
2, 252990, Note_on_c, 0, 80, 0
2, 252990, Note_on_c, 0, 84, 98
2, 252990, Note_on_c, 0, 72, 97
2, 253080, Note_on_c, 0, 72, 0
2, 253080, Note_on_c, 0, 84, 0
2, 253080, Note_on_c, 0, 80, 100
2, 253080, Note_on_c, 0, 83, 100
2, 253080, Note_on_c, 0, 88, 100
2, 253080, Note_on_c, 0, 68, 97
2, 253080, Note_on_c, 0, 71, 97
2, 253080, Note_on_c, 0, 76, 97
2, 253169, Note_on_c, 0, 76, 0
2, 253169, Note_on_c, 0, 83, 0
2, 253169, Note_on_c, 0, 88, 0
2, 253169, Note_on_c, 0, 80, 0
2, 253169, Note_on_c, 0, 71, 0
2, 253169, Note_on_c, 0, 68, 0
2, 253260, Note_on_c, 0, 79, 70
2, 253260, Note_on_c, 0, 67, 66
2, 253350, Note_on_c, 0, 67, 0
2, 253350, Note_on_c, 0, 79, 0
2, 253350, Note_on_c, 0, 82, 93
2, 253350, Note_on_c, 0, 70, 93
2, 253440, Note_on_c, 0, 70, 0
2, 253440, Note_on_c, 0, 82, 0
2, 253440, Note_on_c, 0, 79, 99
2, 253440, Note_on_c, 0, 82, 99
2, 253440, Note_on_c, 0, 87, 99
2, 253440, Note_on_c, 0, 67, 102
2, 253440, Note_on_c, 0, 70, 102
2, 253440, Note_on_c, 0, 75, 102
2, 253529, Note_on_c, 0, 75, 0
2, 253529, Note_on_c, 0, 82, 0
2, 253529, Note_on_c, 0, 87, 0
2, 253529, Note_on_c, 0, 79, 0
2, 253529, Note_on_c, 0, 70, 0
2, 253529, Note_on_c, 0, 67, 0
2, 253620, Note_on_c, 0, 78, 64
2, 253620, Note_on_c, 0, 66, 70
2, 253710, Note_on_c, 0, 66, 0
2, 253710, Note_on_c, 0, 78, 0
2, 253710, Note_on_c, 0, 81, 93
2, 253710, Note_on_c, 0, 69, 92
2, 253800, Note_on_c, 0, 69, 0
2, 253800, Note_on_c, 0, 81, 0
2, 253800, Note_on_c, 0, 78, 104
2, 253800, Note_on_c, 0, 81, 104
2, 253800, Note_on_c, 0, 86, 104
2, 253800, Note_on_c, 0, 66, 100
2, 253800, Note_on_c, 0, 69, 100
2, 253800, Note_on_c, 0, 74, 100
2, 253889, Note_on_c, 0, 74, 0
2, 253889, Note_on_c, 0, 81, 0
2, 253889, Note_on_c, 0, 86, 0
2, 253889, Note_on_c, 0, 78, 0
2, 253889, Note_on_c, 0, 69, 0
2, 253889, Note_on_c, 0, 66, 0
2, 253980, Note_on_c, 0, 78, 71
2, 253980, Note_on_c, 0, 66, 75
2, 254070, Note_on_c, 0, 66, 0
2, 254070, Note_on_c, 0, 78, 0
2, 254070, Note_on_c, 0, 81, 86
2, 254070, Note_on_c, 0, 69, 93
2, 254160, Note_on_c, 0, 69, 0
2, 254160, Note_on_c, 0, 81, 0
2, 254160, Note_on_c, 0, 78, 117
2, 254160, Note_on_c, 0, 85, 117
2, 254160, Note_on_c, 0, 66, 117
2, 254160, Note_on_c, 0, 73, 117
2, 254250, Note_on_c, 0, 73, 0
2, 254250, Note_on_c, 0, 78, 0
2, 254250, Note_on_c, 0, 85, 0
2, 254250, Note_on_c, 0, 66, 0
2, 254250, Note_on_c, 0, 81, 75
2, 254250, Note_on_c, 0, 69, 80
2, 254340, Note_on_c, 0, 69, 0
2, 254340, Note_on_c, 0, 81, 0
2, 254340, Note_on_c, 0, 78, 81
2, 254340, Note_on_c, 0, 66, 77
2, 254430, Note_on_c, 0, 66, 0
2, 254430, Note_on_c, 0, 78, 0
2, 254430, Note_on_c, 0, 81, 97
2, 254430, Note_on_c, 0, 69, 94
2, 254520, Note_on_c, 0, 69, 0
2, 254520, Note_on_c, 0, 81, 0
2, 254520, Note_on_c, 0, 77, 98
2, 254520, Note_on_c, 0, 80, 98
2, 254520, Note_on_c, 0, 84, 98
2, 254520, Note_on_c, 0, 65, 97
2, 254520, Note_on_c, 0, 68, 97
2, 254520, Note_on_c, 0, 72, 97
2, 254609, Note_on_c, 0, 72, 0
2, 254609, Note_on_c, 0, 80, 0
2, 254609, Note_on_c, 0, 84, 0
2, 254609, Note_on_c, 0, 77, 0
2, 254609, Note_on_c, 0, 68, 0
2, 254609, Note_on_c, 0, 65, 0
2, 254700, Note_on_c, 0, 75, 68
2, 254700, Note_on_c, 0, 63, 67
2, 254790, Note_on_c, 0, 63, 0
2, 254790, Note_on_c, 0, 75, 0
2, 254790, Note_on_c, 0, 78, 97
2, 254790, Note_on_c, 0, 66, 91
2, 254880, Note_on_c, 0, 66, 0
2, 254880, Note_on_c, 0, 78, 0
2, 254880, Note_on_c, 0, 75, 98
2, 254880, Note_on_c, 0, 78, 98
2, 254880, Note_on_c, 0, 83, 98
2, 254880, Note_on_c, 0, 63, 100
2, 254880, Note_on_c, 0, 66, 100
2, 254880, Note_on_c, 0, 71, 100
2, 254969, Note_on_c, 0, 71, 0
2, 254969, Note_on_c, 0, 78, 0
2, 254969, Note_on_c, 0, 83, 0
2, 254969, Note_on_c, 0, 75, 0
2, 254969, Note_on_c, 0, 66, 0
2, 254969, Note_on_c, 0, 63, 0
2, 255060, Note_on_c, 0, 74, 72
2, 255060, Note_on_c, 0, 62, 71
2, 255150, Note_on_c, 0, 62, 0
2, 255150, Note_on_c, 0, 74, 0
2, 255150, Note_on_c, 0, 77, 90
2, 255150, Note_on_c, 0, 65, 94
2, 255240, Note_on_c, 0, 65, 0
2, 255240, Note_on_c, 0, 77, 0
2, 255240, Note_on_c, 0, 74, 103
2, 255240, Note_on_c, 0, 77, 103
2, 255240, Note_on_c, 0, 82, 103
2, 255240, Note_on_c, 0, 62, 100
2, 255240, Note_on_c, 0, 65, 100
2, 255240, Note_on_c, 0, 70, 100
2, 255329, Note_on_c, 0, 70, 0
2, 255329, Note_on_c, 0, 77, 0
2, 255329, Note_on_c, 0, 82, 0
2, 255329, Note_on_c, 0, 74, 0
2, 255329, Note_on_c, 0, 65, 0
2, 255329, Note_on_c, 0, 62, 0
2, 255420, Note_on_c, 0, 73, 87
2, 255420, Note_on_c, 0, 61, 87
2, 255510, Note_on_c, 0, 61, 0
2, 255510, Note_on_c, 0, 73, 0
2, 255510, Note_on_c, 0, 76, 86
2, 255510, Note_on_c, 0, 64, 86
2, 255600, Note_on_c, 0, 64, 0
2, 255600, Note_on_c, 0, 76, 0
2, 255600, Note_on_c, 0, 73, 85
2, 255600, Note_on_c, 0, 81, 85
2, 255600, Note_on_c, 0, 61, 85
2, 255600, Note_on_c, 0, 69, 85
2, 255690, Note_on_c, 0, 69, 0
2, 255690, Note_on_c, 0, 73, 0
2, 255690, Note_on_c, 0, 81, 0
2, 255690, Note_on_c, 0, 61, 0
2, 255690, Note_on_c, 0, 76, 84
2, 255690, Note_on_c, 0, 64, 84
2, 255780, Note_on_c, 0, 64, 0
2, 255780, Note_on_c, 0, 76, 0
2, 255780, Note_on_c, 0, 73, 83
2, 255780, Note_on_c, 0, 61, 83
2, 255870, Note_on_c, 0, 61, 0
2, 255870, Note_on_c, 0, 73, 0
2, 255870, Note_on_c, 0, 76, 82
2, 255870, Note_on_c, 0, 64, 82
2, 255960, Note_on_c, 0, 64, 0
2, 255960, Note_on_c, 0, 76, 0
2, 255960, Note_on_c, 0, 73, 81
2, 255960, Note_on_c, 0, 80, 81
2, 255960, Note_on_c, 0, 61, 81
2, 255960, Note_on_c, 0, 68, 81
2, 256049, Note_on_c, 0, 68, 0
2, 256049, Note_on_c, 0, 73, 0
2, 256049, Note_on_c, 0, 80, 0
2, 256049, Note_on_c, 0, 61, 0
2, 256140, Note_on_c, 0, 72, 79
2, 256140, Note_on_c, 0, 60, 79
2, 256230, Note_on_c, 0, 60, 0
2, 256230, Note_on_c, 0, 72, 0
2, 256230, Note_on_c, 0, 75, 78
2, 256230, Note_on_c, 0, 63, 78
2, 256320, Note_on_c, 0, 63, 0
2, 256320, Note_on_c, 0, 75, 0
2, 256320, Note_on_c, 0, 72, 77
2, 256320, Note_on_c, 0, 75, 77
2, 256320, Note_on_c, 0, 79, 77
2, 256320, Note_on_c, 0, 60, 77
2, 256320, Note_on_c, 0, 63, 77
2, 256320, Note_on_c, 0, 67, 77
2, 256409, Note_on_c, 0, 67, 0
2, 256409, Note_on_c, 0, 75, 0
2, 256409, Note_on_c, 0, 79, 0
2, 256409, Note_on_c, 0, 72, 0
2, 256409, Note_on_c, 0, 63, 0
2, 256409, Note_on_c, 0, 60, 0
2, 256500, Note_on_c, 0, 70, 75
2, 256500, Note_on_c, 0, 58, 75
2, 256590, Note_on_c, 0, 58, 0
2, 256590, Note_on_c, 0, 70, 0
2, 256590, Note_on_c, 0, 74, 74
2, 256590, Note_on_c, 0, 62, 74
2, 256680, Note_on_c, 0, 62, 0
2, 256680, Note_on_c, 0, 74, 0
2, 256680, Note_on_c, 0, 70, 72
2, 256680, Note_on_c, 0, 74, 72
2, 256680, Note_on_c, 0, 78, 72
2, 256680, Note_on_c, 0, 58, 72
2, 256680, Note_on_c, 0, 62, 72
2, 256680, Note_on_c, 0, 66, 72
2, 256769, Note_on_c, 0, 66, 0
2, 256769, Note_on_c, 0, 74, 0
2, 256769, Note_on_c, 0, 78, 0
2, 256769, Note_on_c, 0, 70, 0
2, 256769, Note_on_c, 0, 62, 0
2, 256769, Note_on_c, 0, 58, 0
2, 256860, Note_on_c, 0, 69, 70
2, 256860, Note_on_c, 0, 57, 70
2, 256950, Note_on_c, 0, 57, 0
2, 256950, Note_on_c, 0, 69, 0
2, 256950, Note_on_c, 0, 72, 69
2, 256950, Note_on_c, 0, 60, 69
2, 257040, Note_on_c, 0, 60, 0
2, 257040, Note_on_c, 0, 72, 0
2, 257040, Note_on_c, 0, 69, 68
2, 257040, Note_on_c, 0, 77, 68
2, 257040, Note_on_c, 0, 57, 68
2, 257040, Note_on_c, 0, 60, 68
2, 257040, Note_on_c, 0, 65, 68
2, 257130, Note_on_c, 0, 77, 0
2, 257130, Note_on_c, 0, 69, 0
2, 257130, Note_on_c, 0, 72, 67
2, 257220, Note_on_c, 0, 72, 0
2, 257220, Note_on_c, 0, 65, 0
2, 257220, Note_on_c, 0, 57, 0
2, 257220, Note_on_c, 0, 60, 0
2, 257220, Note_on_c, 0, 68, 66
2, 257220, Note_on_c, 0, 56, 66
2, 257309, Note_on_c, 0, 56, 0
2, 257310, Note_on_c, 0, 68, 0
2, 257310, Note_on_c, 0, 72, 65
2, 257400, Note_on_c, 0, 72, 0
2, 257400, Note_on_c, 0, 75, 64
2, 257489, Note_on_c, 0, 75, 0
2, 257580, Note_on_c, 0, 67, 62
2, 257580, Note_on_c, 0, 70, 62
2, 257580, Note_on_c, 0, 74, 62
2, 257580, Note_on_c, 0, 31, 62
2, 257580, Note_on_c, 0, 43, 62
2, 257760, Note_on_c, 0, 43, 0
2, 257760, Note_on_c, 0, 74, 0
2, 257760, Note_on_c, 0, 67, 0
2, 257760, Note_on_c, 0, 70, 0
2, 257760, Note_on_c, 0, 31, 0
2, 257760, Note_on_c, 0, 50, 52
2, 257760, Note_on_c, 0, 55, 52
2, 257760, Note_on_c, 0, 58, 52
2, 257849, Note_on_c, 0, 58, 0
2, 257849, Note_on_c, 0, 55, 0
2, 257849, Note_on_c, 0, 50, 0
2, 257940, Note_on_c, 0, 50, 61
2, 257940, Note_on_c, 0, 55, 61
2, 257940, Note_on_c, 0, 58, 61
2, 258029, Note_on_c, 0, 58, 0
2, 258029, Note_on_c, 0, 55, 0
2, 258029, Note_on_c, 0, 50, 0
2, 258120, Note_on_c, 0, 34, 52
2, 258120, Note_on_c, 0, 46, 52
2, 258300, Note_on_c, 0, 46, 0
2, 258300, Note_on_c, 0, 34, 0
2, 258300, Note_on_c, 0, 56, 56
2, 258300, Note_on_c, 0, 59, 56
2, 258300, Note_on_c, 0, 62, 56
2, 258389, Note_on_c, 0, 62, 0
2, 258389, Note_on_c, 0, 59, 0
2, 258389, Note_on_c, 0, 56, 0
2, 258480, Note_on_c, 0, 56, 65
2, 258480, Note_on_c, 0, 58, 65
2, 258480, Note_on_c, 0, 62, 65
2, 258569, Note_on_c, 0, 62, 0
2, 258569, Note_on_c, 0, 58, 0
2, 258569, Note_on_c, 0, 56, 0
2, 258660, Note_on_c, 0, 69, 76
2, 258660, Note_on_c, 0, 35, 53
2, 258660, Note_on_c, 0, 47, 53
2, 258750, Note_on_c, 0, 69, 0
2, 258750, Note_on_c, 0, 70, 64
2, 258840, Note_on_c, 0, 70, 0
2, 258840, Note_on_c, 0, 47, 0
2, 258840, Note_on_c, 0, 35, 0
2, 258840, Note_on_c, 0, 71, 71
2, 258929, Note_on_c, 0, 71, 0
2, 259020, Note_on_c, 0, 70, 59
2, 259110, Note_on_c, 0, 70, 0
2, 259110, Note_on_c, 0, 71, 69
2, 259200, Note_on_c, 0, 71, 0
2, 259200, Note_on_c, 0, 72, 65
2, 259289, Note_on_c, 0, 72, 0
2, 259380, Note_on_c, 0, 71, 59
2, 259470, Note_on_c, 0, 71, 0
2, 259470, Note_on_c, 0, 72, 67
2, 259560, Note_on_c, 0, 72, 0
2, 259560, Note_on_c, 0, 73, 69
2, 259649, Note_on_c, 0, 73, 0
2, 259740, Note_on_c, 0, 74, 71
2, 259920, Note_on_c, 0, 74, 0
2, 259920, Note_on_c, 0, 58, 44
2, 259920, Note_on_c, 0, 62, 44
2, 259920, Note_on_c, 0, 50, 51
2, 259920, Note_on_c, 0, 55, 51
2, 260009, Note_on_c, 0, 55, 0
2, 260009, Note_on_c, 0, 58, 0
2, 260009, Note_on_c, 0, 62, 0
2, 260009, Note_on_c, 0, 50, 0
2, 260100, Note_on_c, 0, 58, 59
2, 260100, Note_on_c, 0, 62, 59
2, 260100, Note_on_c, 0, 50, 58
2, 260100, Note_on_c, 0, 55, 58
2, 260189, Note_on_c, 0, 55, 0
2, 260189, Note_on_c, 0, 58, 0
2, 260189, Note_on_c, 0, 62, 0
2, 260189, Note_on_c, 0, 50, 0
2, 260280, Note_on_c, 0, 41, 61
2, 260280, Note_on_c, 0, 53, 61
2, 260460, Note_on_c, 0, 53, 0
2, 260460, Note_on_c, 0, 41, 0
2, 260460, Note_on_c, 0, 56, 55
2, 260460, Note_on_c, 0, 59, 55
2, 260460, Note_on_c, 0, 62, 55
2, 260549, Note_on_c, 0, 62, 0
2, 260549, Note_on_c, 0, 59, 0
2, 260549, Note_on_c, 0, 56, 0
2, 260640, Note_on_c, 0, 57, 59
2, 260640, Note_on_c, 0, 59, 59
2, 260640, Note_on_c, 0, 62, 59
2, 260729, Note_on_c, 0, 62, 0
2, 260729, Note_on_c, 0, 59, 0
2, 260729, Note_on_c, 0, 57, 0
2, 260820, Note_on_c, 0, 73, 79
2, 260820, Note_on_c, 0, 39, 53
2, 260820, Note_on_c, 0, 51, 53
2, 260909, Note_on_c, 0, 51, 0
2, 260909, Note_on_c, 0, 39, 0
2, 260910, Note_on_c, 0, 73, 0
2, 260910, Note_on_c, 0, 74, 69
2, 261000, Note_on_c, 0, 74, 0
2, 261000, Note_on_c, 0, 75, 70
2, 261089, Note_on_c, 0, 75, 0
2, 261180, Note_on_c, 0, 74, 63
2, 261180, Note_on_c, 0, 34, 55
2, 261180, Note_on_c, 0, 46, 55
2, 261269, Note_on_c, 0, 46, 0
2, 261269, Note_on_c, 0, 34, 0
2, 261270, Note_on_c, 0, 74, 0
2, 261270, Note_on_c, 0, 75, 64
2, 261360, Note_on_c, 0, 75, 0
2, 261360, Note_on_c, 0, 77, 66
2, 261360, Note_on_c, 0, 38, 69
2, 261360, Note_on_c, 0, 50, 69
2, 261449, Note_on_c, 0, 50, 0
2, 261449, Note_on_c, 0, 38, 0
2, 261449, Note_on_c, 0, 77, 0
2, 261540, Note_on_c, 0, 75, 59
2, 261630, Note_on_c, 0, 75, 0
2, 261630, Note_on_c, 0, 77, 68
2, 261720, Note_on_c, 0, 77, 0
2, 261720, Note_on_c, 0, 78, 71
2, 261809, Note_on_c, 0, 78, 0
2, 261900, Note_on_c, 0, 79, 69
2, 261900, Note_on_c, 0, 43, 37
2, 261900, Note_on_c, 0, 55, 37
2, 261989, Note_on_c, 0, 79, 0
2, 262080, Note_on_c, 0, 55, 0
2, 262080, Note_on_c, 0, 43, 0
2, 262080, Note_on_c, 0, 62, 55
2, 262080, Note_on_c, 0, 66, 55
2, 262170, Note_on_c, 0, 66, 0
2, 262170, Note_on_c, 0, 62, 0
2, 262170, Note_on_c, 0, 70, 51
2, 262260, Note_on_c, 0, 70, 0
2, 262260, Note_on_c, 0, 61, 34
2, 262260, Note_on_c, 0, 65, 34
2, 262350, Note_on_c, 0, 65, 0
2, 262350, Note_on_c, 0, 61, 0
2, 262350, Note_on_c, 0, 70, 46
2, 262440, Note_on_c, 0, 70, 0
2, 262440, Note_on_c, 0, 62, 30
2, 262440, Note_on_c, 0, 66, 30
2, 262530, Note_on_c, 0, 66, 0
2, 262530, Note_on_c, 0, 62, 0
2, 262530, Note_on_c, 0, 70, 43
2, 262620, Note_on_c, 0, 70, 0
2, 262620, Note_on_c, 0, 63, 33
2, 262620, Note_on_c, 0, 67, 33
2, 262710, Note_on_c, 0, 67, 0
2, 262710, Note_on_c, 0, 63, 0
2, 262710, Note_on_c, 0, 70, 43
2, 262800, Note_on_c, 0, 70, 0
2, 262800, Note_on_c, 0, 62, 30
2, 262800, Note_on_c, 0, 66, 30
2, 262890, Note_on_c, 0, 66, 0
2, 262890, Note_on_c, 0, 62, 0
2, 262890, Note_on_c, 0, 70, 42
2, 262980, Note_on_c, 0, 70, 0
2, 262980, Note_on_c, 0, 61, 33
2, 262980, Note_on_c, 0, 65, 33
2, 263070, Note_on_c, 0, 65, 0
2, 263070, Note_on_c, 0, 61, 0
2, 263070, Note_on_c, 0, 70, 51
2, 263160, Note_on_c, 0, 70, 0
2, 263160, Note_on_c, 0, 62, 36
2, 263160, Note_on_c, 0, 66, 36
2, 263250, Note_on_c, 0, 66, 0
2, 263250, Note_on_c, 0, 62, 0
2, 263250, Note_on_c, 0, 70, 49
2, 263340, Note_on_c, 0, 70, 0
2, 263340, Note_on_c, 0, 63, 40
2, 263340, Note_on_c, 0, 67, 40
2, 263430, Note_on_c, 0, 67, 0
2, 263430, Note_on_c, 0, 63, 0
2, 263430, Note_on_c, 0, 70, 47
2, 263520, Note_on_c, 0, 70, 0
2, 263520, Note_on_c, 0, 62, 30
2, 263520, Note_on_c, 0, 66, 30
2, 263610, Note_on_c, 0, 66, 0
2, 263610, Note_on_c, 0, 62, 0
2, 263610, Note_on_c, 0, 70, 40
2, 263700, Note_on_c, 0, 70, 0
2, 263700, Note_on_c, 0, 61, 32
2, 263700, Note_on_c, 0, 65, 32
2, 263790, Note_on_c, 0, 65, 0
2, 263790, Note_on_c, 0, 61, 0
2, 263790, Note_on_c, 0, 70, 44
2, 263880, Note_on_c, 0, 70, 0
2, 263880, Note_on_c, 0, 62, 46
2, 263880, Note_on_c, 0, 66, 46
2, 263970, Note_on_c, 0, 66, 0
2, 263970, Note_on_c, 0, 62, 0
2, 263970, Note_on_c, 0, 70, 66
2, 264060, Note_on_c, 0, 70, 0
2, 264060, Note_on_c, 0, 58, 62
2, 264060, Note_on_c, 0, 62, 62
2, 264060, Note_on_c, 0, 67, 62
2, 264060, Note_on_c, 0, 31, 36
2, 264060, Note_on_c, 0, 43, 36
2, 264240, Note_on_c, 0, 43, 0
2, 264240, Note_on_c, 0, 67, 0
2, 264240, Note_on_c, 0, 58, 0
2, 264240, Note_on_c, 0, 62, 0
2, 264240, Note_on_c, 0, 31, 0
2, 264240, Note_on_c, 0, 50, 38
2, 264240, Note_on_c, 0, 55, 38
2, 264240, Note_on_c, 0, 58, 38
2, 264329, Note_on_c, 0, 58, 0
2, 264329, Note_on_c, 0, 55, 0
2, 264329, Note_on_c, 0, 50, 0
2, 264420, Note_on_c, 0, 50, 36
2, 264420, Note_on_c, 0, 55, 36
2, 264420, Note_on_c, 0, 58, 36
2, 264509, Note_on_c, 0, 58, 0
2, 264509, Note_on_c, 0, 55, 0
2, 264509, Note_on_c, 0, 50, 0
2, 264600, Note_on_c, 0, 39, 31
2, 264689, Note_on_c, 0, 39, 0
2, 264780, Note_on_c, 0, 51, 34
2, 264780, Note_on_c, 0, 55, 34
2, 264780, Note_on_c, 0, 61, 34
2, 264869, Note_on_c, 0, 61, 0
2, 264869, Note_on_c, 0, 55, 0
2, 264869, Note_on_c, 0, 51, 0
2, 264960, Note_on_c, 0, 51, 36
2, 264960, Note_on_c, 0, 55, 36
2, 264960, Note_on_c, 0, 61, 36
2, 265049, Note_on_c, 0, 61, 0
2, 265049, Note_on_c, 0, 55, 0
2, 265049, Note_on_c, 0, 51, 0
2, 265140, Note_on_c, 0, 30, 36
2, 265140, Note_on_c, 0, 42, 36
2, 265229, Note_on_c, 0, 42, 0
2, 265229, Note_on_c, 0, 30, 0
2, 265320, Note_on_c, 0, 52, 32
2, 265320, Note_on_c, 0, 58, 32
2, 265320, Note_on_c, 0, 61, 32
2, 265409, Note_on_c, 0, 61, 0
2, 265409, Note_on_c, 0, 58, 0
2, 265409, Note_on_c, 0, 52, 0
2, 265500, Note_on_c, 0, 52, 41
2, 265500, Note_on_c, 0, 58, 41
2, 265500, Note_on_c, 0, 61, 41
2, 265589, Note_on_c, 0, 61, 0
2, 265589, Note_on_c, 0, 58, 0
2, 265589, Note_on_c, 0, 52, 0
2, 265680, Note_on_c, 0, 33, 38
2, 265680, Note_on_c, 0, 45, 38
2, 265769, Note_on_c, 0, 45, 0
2, 265769, Note_on_c, 0, 33, 0
2, 265860, Note_on_c, 0, 55, 35
2, 265860, Note_on_c, 0, 61, 35
2, 265949, Note_on_c, 0, 61, 0
2, 265949, Note_on_c, 0, 55, 0
2, 266040, Note_on_c, 0, 54, 44
2, 266040, Note_on_c, 0, 60, 44
2, 266040, Note_on_c, 0, 62, 44
2, 266040, Note_on_c, 0, 38, 32
2, 266040, Note_on_c, 0, 50, 32
2, 266129, Note_on_c, 0, 50, 0
2, 266129, Note_on_c, 0, 62, 0
2, 266129, Note_on_c, 0, 54, 0
2, 266129, Note_on_c, 0, 60, 0
2, 266129, Note_on_c, 0, 38, 0
2, 266220, Note_on_c, 0, 31, 37
2, 266220, Note_on_c, 0, 43, 37
2, 266400, Note_on_c, 0, 43, 0
2, 266400, Note_on_c, 0, 31, 0
2, 266400, Note_on_c, 0, 50, 32
2, 266400, Note_on_c, 0, 55, 32
2, 266400, Note_on_c, 0, 58, 32
2, 266400, Note_on_c, 0, 62, 32
2, 266489, Note_on_c, 0, 62, 0
2, 266489, Note_on_c, 0, 50, 0
2, 266489, Note_on_c, 0, 55, 0
2, 266489, Note_on_c, 0, 58, 0
2, 266580, Note_on_c, 0, 50, 41
2, 266580, Note_on_c, 0, 55, 41
2, 266580, Note_on_c, 0, 58, 41
2, 266580, Note_on_c, 0, 62, 41
2, 266669, Note_on_c, 0, 62, 0
2, 266669, Note_on_c, 0, 50, 0
2, 266669, Note_on_c, 0, 55, 0
2, 266669, Note_on_c, 0, 58, 0
2, 266760, Note_on_c, 0, 39, 32
2, 266849, Note_on_c, 0, 39, 0
2, 266940, Note_on_c, 0, 55, 37
2, 266940, Note_on_c, 0, 61, 37
2, 266940, Note_on_c, 0, 65, 37
2, 267029, Note_on_c, 0, 65, 0
2, 267029, Note_on_c, 0, 61, 0
2, 267029, Note_on_c, 0, 55, 0
2, 267120, Note_on_c, 0, 61, 59
2, 267120, Note_on_c, 0, 65, 59
2, 267120, Note_on_c, 0, 70, 59
2, 267278, Note_on_c, 0, 70, 0
2, 267278, Note_on_c, 0, 65, 0
2, 267278, Note_on_c, 0, 61, 0
2, 267300, Note_on_c, 0, 30, 40
2, 267300, Note_on_c, 0, 42, 40
2, 267389, Note_on_c, 0, 42, 0
2, 267389, Note_on_c, 0, 30, 0
2, 267480, Note_on_c, 0, 51, 36
2, 267480, Note_on_c, 0, 58, 36
2, 267480, Note_on_c, 0, 61, 36
2, 267569, Note_on_c, 0, 61, 0
2, 267569, Note_on_c, 0, 58, 0
2, 267569, Note_on_c, 0, 51, 0
2, 267660, Note_on_c, 0, 58, 32
2, 267660, Note_on_c, 0, 61, 32
2, 267660, Note_on_c, 0, 68, 32
2, 267818, Note_on_c, 0, 68, 0
2, 267818, Note_on_c, 0, 61, 0
2, 267818, Note_on_c, 0, 58, 0
2, 267840, Note_on_c, 0, 33, 28
2, 267840, Note_on_c, 0, 45, 28
2, 267929, Note_on_c, 0, 45, 0
2, 267929, Note_on_c, 0, 33, 0
2, 268020, Note_on_c, 0, 55, 23
2, 268020, Note_on_c, 0, 61, 23
2, 268020, Note_on_c, 0, 63, 23
2, 268020, Note_on_c, 0, 67, 23
2, 268109, Note_on_c, 0, 67, 0
2, 268109, Note_on_c, 0, 55, 0
2, 268109, Note_on_c, 0, 61, 0
2, 268109, Note_on_c, 0, 63, 0
2, 268200, Note_on_c, 0, 54, 19
2, 268200, Note_on_c, 0, 60, 19
2, 268200, Note_on_c, 0, 62, 19
2, 268200, Note_on_c, 0, 66, 19
2, 268200, Note_on_c, 0, 38, 19
2, 268200, Note_on_c, 0, 50, 19
2, 268289, Note_on_c, 0, 50, 0
2, 268289, Note_on_c, 0, 60, 0
2, 268289, Note_on_c, 0, 62, 0
2, 268289, Note_on_c, 0, 54, 0
2, 268289, Note_on_c, 0, 38, 0
2, 268289, Note_on_c, 0, 66, 0
2, 268380, Note_on_c, 0, 55, 15
2, 268380, Note_on_c, 0, 58, 15
2, 268380, Note_on_c, 0, 62, 15
2, 268380, Note_on_c, 0, 67, 15
2, 268380, Note_on_c, 0, 43, 15
2, 268380, Note_on_c, 0, 50, 15
2, 268560, Note_on_c, 0, 50, 0
2, 268560, Note_on_c, 0, 58, 0
2, 268560, Note_on_c, 0, 62, 0
2, 268560, Note_on_c, 0, 55, 0
2, 268560, Note_on_c, 0, 43, 0
2, 268560, Note_on_c, 0, 67, 0
2, 268560, Note_on_c, 0, 72, 70
2, 268560, Note_on_c, 0, 66, 13
2, 268560, Note_on_c, 0, 69, 13
2, 268560, Note_on_c, 0, 60, 84
2, 268560, Note_on_c, 0, 51, 48
2, 268560, Note_on_c, 0, 54, 48
2, 268650, Note_on_c, 0, 60, 0
2, 268650, Note_on_c, 0, 72, 0
2, 268650, Note_on_c, 0, 73, 61
2, 268650, Note_on_c, 0, 61, 67
2, 268740, Note_on_c, 0, 61, 0
2, 268740, Note_on_c, 0, 54, 0
2, 268740, Note_on_c, 0, 69, 0
2, 268740, Note_on_c, 0, 66, 0
2, 268740, Note_on_c, 0, 73, 0
2, 268740, Note_on_c, 0, 51, 0
2, 268740, Note_on_c, 0, 74, 62
2, 268740, Note_on_c, 0, 67, 19
2, 268740, Note_on_c, 0, 70, 19
2, 268740, Note_on_c, 0, 62, 67
2, 268740, Note_on_c, 0, 52, 45
2, 268740, Note_on_c, 0, 55, 45
2, 268829, Note_on_c, 0, 62, 0
2, 268829, Note_on_c, 0, 74, 0
2, 268920, Note_on_c, 0, 52, 0
2, 268920, Note_on_c, 0, 67, 0
2, 268920, Note_on_c, 0, 55, 0
2, 268920, Note_on_c, 0, 70, 0
2, 269100, Note_on_c, 0, 72, 56
2, 269100, Note_on_c, 0, 66, 11
2, 269100, Note_on_c, 0, 69, 11
2, 269100, Note_on_c, 0, 60, 53
2, 269100, Note_on_c, 0, 51, 44
2, 269100, Note_on_c, 0, 54, 44
2, 269190, Note_on_c, 0, 60, 0
2, 269190, Note_on_c, 0, 72, 0
2, 269190, Note_on_c, 0, 73, 61
2, 269190, Note_on_c, 0, 61, 62
2, 269280, Note_on_c, 0, 61, 0
2, 269280, Note_on_c, 0, 54, 0
2, 269280, Note_on_c, 0, 69, 0
2, 269280, Note_on_c, 0, 66, 0
2, 269280, Note_on_c, 0, 73, 0
2, 269280, Note_on_c, 0, 51, 0
2, 269280, Note_on_c, 0, 74, 66
2, 269280, Note_on_c, 0, 67, 15
2, 269280, Note_on_c, 0, 70, 15
2, 269280, Note_on_c, 0, 62, 65
2, 269280, Note_on_c, 0, 52, 48
2, 269280, Note_on_c, 0, 55, 48
2, 269369, Note_on_c, 0, 62, 0
2, 269369, Note_on_c, 0, 74, 0
2, 269460, Note_on_c, 0, 52, 0
2, 269460, Note_on_c, 0, 67, 0
2, 269460, Note_on_c, 0, 55, 0
2, 269460, Note_on_c, 0, 70, 0
2, 269640, Note_on_c, 0, 72, 58
2, 269640, Note_on_c, 0, 66, 13
2, 269640, Note_on_c, 0, 69, 13
2, 269640, Note_on_c, 0, 60, 53
2, 269640, Note_on_c, 0, 51, 45
2, 269640, Note_on_c, 0, 54, 45
2, 269730, Note_on_c, 0, 60, 0
2, 269730, Note_on_c, 0, 72, 0
2, 269730, Note_on_c, 0, 73, 65
2, 269730, Note_on_c, 0, 61, 64
2, 269820, Note_on_c, 0, 61, 0
2, 269820, Note_on_c, 0, 54, 0
2, 269820, Note_on_c, 0, 69, 0
2, 269820, Note_on_c, 0, 66, 0
2, 269820, Note_on_c, 0, 73, 0
2, 269820, Note_on_c, 0, 51, 0
2, 269820, Note_on_c, 0, 74, 65
2, 269820, Note_on_c, 0, 67, 19
2, 269820, Note_on_c, 0, 70, 19
2, 269820, Note_on_c, 0, 62, 68
2, 269820, Note_on_c, 0, 52, 51
2, 269820, Note_on_c, 0, 55, 51
2, 269909, Note_on_c, 0, 62, 0
2, 269909, Note_on_c, 0, 74, 0
2, 270000, Note_on_c, 0, 52, 0
2, 270000, Note_on_c, 0, 67, 0
2, 270000, Note_on_c, 0, 55, 0
2, 270000, Note_on_c, 0, 70, 0
2, 270180, Note_on_c, 0, 72, 57
2, 270180, Note_on_c, 0, 66, 13
2, 270180, Note_on_c, 0, 69, 13
2, 270180, Note_on_c, 0, 60, 53
2, 270180, Note_on_c, 0, 51, 51
2, 270180, Note_on_c, 0, 54, 51
2, 270270, Note_on_c, 0, 60, 0
2, 270270, Note_on_c, 0, 72, 0
2, 270270, Note_on_c, 0, 73, 66
2, 270270, Note_on_c, 0, 61, 63
2, 270360, Note_on_c, 0, 61, 0
2, 270360, Note_on_c, 0, 54, 0
2, 270360, Note_on_c, 0, 69, 0
2, 270360, Note_on_c, 0, 66, 0
2, 270360, Note_on_c, 0, 73, 0
2, 270360, Note_on_c, 0, 51, 0
2, 270360, Note_on_c, 0, 74, 63
2, 270360, Note_on_c, 0, 67, 13
2, 270360, Note_on_c, 0, 70, 13
2, 270360, Note_on_c, 0, 62, 60
2, 270360, Note_on_c, 0, 52, 51
2, 270360, Note_on_c, 0, 55, 51
2, 270449, Note_on_c, 0, 62, 0
2, 270449, Note_on_c, 0, 74, 0
2, 270540, Note_on_c, 0, 52, 0
2, 270540, Note_on_c, 0, 67, 0
2, 270540, Note_on_c, 0, 55, 0
2, 270540, Note_on_c, 0, 70, 0
2, 270720, Note_on_c, 0, 62, 64
2, 270720, Note_on_c, 0, 70, 64
2, 270720, Note_on_c, 0, 74, 64
2, 270720, Note_on_c, 0, 57, 66
2, 270720, Note_on_c, 0, 62, 66
2, 270878, Note_on_c, 0, 62, 0
2, 270878, Note_on_c, 0, 74, 0
2, 270878, Note_on_c, 0, 62, 0
2, 270878, Note_on_c, 0, 70, 0
2, 270878, Note_on_c, 0, 57, 0
2, 270900, Note_on_c, 0, 61, 54
2, 270900, Note_on_c, 0, 69, 54
2, 270900, Note_on_c, 0, 73, 54
2, 270900, Note_on_c, 0, 52, 57
2, 270900, Note_on_c, 0, 57, 57
2, 271080, Note_on_c, 0, 57, 0
2, 271080, Note_on_c, 0, 73, 0
2, 271080, Note_on_c, 0, 61, 0
2, 271080, Note_on_c, 0, 69, 0
2, 271080, Note_on_c, 0, 52, 0
2, 271260, Note_on_c, 0, 63, 61
2, 271260, Note_on_c, 0, 71, 61
2, 271260, Note_on_c, 0, 75, 61
2, 271260, Note_on_c, 0, 54, 61
2, 271260, Note_on_c, 0, 59, 61
2, 271418, Note_on_c, 0, 59, 0
2, 271418, Note_on_c, 0, 75, 0
2, 271418, Note_on_c, 0, 63, 0
2, 271418, Note_on_c, 0, 71, 0
2, 271418, Note_on_c, 0, 54, 0
2, 271440, Note_on_c, 0, 62, 66
2, 271440, Note_on_c, 0, 70, 66
2, 271440, Note_on_c, 0, 74, 66
2, 271440, Note_on_c, 0, 53, 66
2, 271440, Note_on_c, 0, 58, 66
2, 271620, Note_on_c, 0, 58, 0
2, 271620, Note_on_c, 0, 74, 0
2, 271620, Note_on_c, 0, 62, 0
2, 271620, Note_on_c, 0, 70, 0
2, 271620, Note_on_c, 0, 53, 0
2, 271800, Note_on_c, 0, 64, 76
2, 271800, Note_on_c, 0, 72, 76
2, 271800, Note_on_c, 0, 76, 76
2, 271800, Note_on_c, 0, 55, 76
2, 271800, Note_on_c, 0, 60, 76
2, 271958, Note_on_c, 0, 60, 0
2, 271958, Note_on_c, 0, 76, 0
2, 271958, Note_on_c, 0, 64, 0
2, 271958, Note_on_c, 0, 72, 0
2, 271958, Note_on_c, 0, 55, 0
2, 271980, Note_on_c, 0, 63, 81
2, 271980, Note_on_c, 0, 71, 81
2, 271980, Note_on_c, 0, 75, 81
2, 271980, Note_on_c, 0, 54, 81
2, 271980, Note_on_c, 0, 59, 81
2, 272160, Note_on_c, 0, 59, 0
2, 272160, Note_on_c, 0, 75, 0
2, 272160, Note_on_c, 0, 63, 0
2, 272160, Note_on_c, 0, 71, 0
2, 272160, Note_on_c, 0, 54, 0
2, 272340, Note_on_c, 0, 71, 76
2, 272340, Note_on_c, 0, 74, 76
2, 272340, Note_on_c, 0, 78, 76
2, 272340, Note_on_c, 0, 59, 74
2, 272340, Note_on_c, 0, 62, 74
2, 272340, Note_on_c, 0, 66, 74
2, 272498, Note_on_c, 0, 66, 0
2, 272498, Note_on_c, 0, 74, 0
2, 272498, Note_on_c, 0, 78, 0
2, 272498, Note_on_c, 0, 71, 0
2, 272498, Note_on_c, 0, 62, 0
2, 272498, Note_on_c, 0, 59, 0
2, 272700, Note_on_c, 0, 69, 73
2, 272700, Note_on_c, 0, 73, 73
2, 272700, Note_on_c, 0, 77, 73
2, 272700, Note_on_c, 0, 57, 73
2, 272700, Note_on_c, 0, 61, 73
2, 272700, Note_on_c, 0, 65, 73
2, 272858, Note_on_c, 0, 65, 0
2, 272858, Note_on_c, 0, 73, 0
2, 272858, Note_on_c, 0, 77, 0
2, 272858, Note_on_c, 0, 69, 0
2, 272858, Note_on_c, 0, 61, 0
2, 272858, Note_on_c, 0, 57, 0
2, 273060, Note_on_c, 0, 68, 65
2, 273060, Note_on_c, 0, 71, 65
2, 273060, Note_on_c, 0, 75, 65
2, 273060, Note_on_c, 0, 56, 65
2, 273060, Note_on_c, 0, 59, 65
2, 273060, Note_on_c, 0, 63, 65
2, 273218, Note_on_c, 0, 63, 0
2, 273218, Note_on_c, 0, 71, 0
2, 273218, Note_on_c, 0, 75, 0
2, 273218, Note_on_c, 0, 68, 0
2, 273218, Note_on_c, 0, 59, 0
2, 273218, Note_on_c, 0, 56, 0
2, 273420, Note_on_c, 0, 61, 56
2, 273420, Note_on_c, 0, 66, 56
2, 273420, Note_on_c, 0, 70, 56
2, 273420, Note_on_c, 0, 73, 56
2, 273420, Note_on_c, 0, 51, 56
2, 273420, Note_on_c, 0, 54, 56
2, 273578, Note_on_c, 0, 54, 0
2, 273578, Note_on_c, 0, 66, 0
2, 273578, Note_on_c, 0, 70, 0
2, 273578, Note_on_c, 0, 61, 0
2, 273578, Note_on_c, 0, 51, 0
2, 273578, Note_on_c, 0, 73, 0
2, 273600, Note_on_c, 0, 60, 52
2, 273600, Note_on_c, 0, 67, 52
2, 273600, Note_on_c, 0, 72, 52
2, 273600, Note_on_c, 0, 52, 52
2, 273600, Note_on_c, 0, 55, 52
2, 273780, Note_on_c, 0, 55, 0
2, 273780, Note_on_c, 0, 72, 0
2, 273780, Note_on_c, 0, 60, 0
2, 273780, Note_on_c, 0, 67, 0
2, 273780, Note_on_c, 0, 52, 0
2, 273780, Note_on_c, 0, 70, 56
2, 273780, Note_on_c, 0, 74, 56
2, 273780, Note_on_c, 0, 79, 56
2, 273780, Note_on_c, 0, 55, 48
2, 273780, Note_on_c, 0, 58, 48
2, 273870, Note_on_c, 0, 58, 0
2, 273870, Note_on_c, 0, 79, 0
2, 273870, Note_on_c, 0, 70, 0
2, 273870, Note_on_c, 0, 74, 0
2, 273870, Note_on_c, 0, 55, 0
2, 273870, Note_on_c, 0, 67, 33
2, 273870, Note_on_c, 0, 62, 50
2, 273960, Note_on_c, 0, 62, 0
2, 273960, Note_on_c, 0, 67, 0
2, 273960, Note_on_c, 0, 70, 60
2, 273960, Note_on_c, 0, 74, 60
2, 273960, Note_on_c, 0, 79, 60
2, 273960, Note_on_c, 0, 55, 46
2, 273960, Note_on_c, 0, 58, 46
2, 274140, Note_on_c, 0, 58, 0
2, 274140, Note_on_c, 0, 79, 0
2, 274140, Note_on_c, 0, 70, 0
2, 274140, Note_on_c, 0, 74, 0
2, 274140, Note_on_c, 0, 55, 0
2, 274320, Note_on_c, 0, 55, 32
2, 274320, Note_on_c, 0, 31, 37
2, 274409, Note_on_c, 0, 55, 0
2, 274410, Note_on_c, 0, 31, 0
2, 274410, Note_on_c, 0, 43, 50
2, 274500, Note_on_c, 0, 43, 0
2, 274500, Note_on_c, 0, 55, 38
2, 274500, Note_on_c, 0, 31, 29
2, 274589, Note_on_c, 0, 55, 0
2, 274680, Note_on_c, 0, 31, 0
2, 274860, Note_on_c, 0, 43, 37
2, 274860, Note_on_c, 0, 31, 37
2, 275040, Note_on_c, 0, 31, 0
2, 275040, Note_on_c, 0, 43, 0
2, 275040, End_track
3, 0, Start_track
3, 0, Title_t, "Piano 2"
3, 0, Program_c, 0, 0
3, 0, Control_c, 0, 7, 105
3, 0, Control_c, 0, 10, 48
3, 0, Control_c, 0, 91, 60
3, 0, Control_c, 0, 121, 0
3, 0, Control_c, 0, 121, 0
3, 0, Control_c, 0, 91, 60
3, 0, Control_c, 0, 10, 51
3, 0, Control_c, 0, 7, 100
3, 3240, Note_on_c, 0, 32, 79
3, 3240, Note_on_c, 0, 44, 79
3, 3329, Note_on_c, 0, 44, 0
3, 3329, Note_on_c, 0, 32, 0
3, 3420, Note_on_c, 0, 54, 110
3, 3420, Note_on_c, 0, 60, 110
3, 3420, Note_on_c, 0, 63, 110
3, 3509, Note_on_c, 0, 63, 0
3, 3509, Note_on_c, 0, 60, 0
3, 3509, Note_on_c, 0, 54, 0
3, 3600, Note_on_c, 0, 54, 93
3, 3600, Note_on_c, 0, 60, 93
3, 3600, Note_on_c, 0, 63, 93
3, 3689, Note_on_c, 0, 63, 0
3, 3689, Note_on_c, 0, 60, 0
3, 3689, Note_on_c, 0, 54, 0
3, 3780, Note_on_c, 0, 32, 78
3, 3780, Note_on_c, 0, 44, 78
3, 3869, Note_on_c, 0, 44, 0
3, 3869, Note_on_c, 0, 32, 0
3, 3960, Note_on_c, 0, 54, 113
3, 3960, Note_on_c, 0, 60, 113
3, 3960, Note_on_c, 0, 63, 113
3, 4049, Note_on_c, 0, 63, 0
3, 4049, Note_on_c, 0, 60, 0
3, 4049, Note_on_c, 0, 54, 0
3, 4140, Note_on_c, 0, 54, 89
3, 4140, Note_on_c, 0, 60, 89
3, 4140, Note_on_c, 0, 63, 89
3, 4229, Note_on_c, 0, 63, 0
3, 4229, Note_on_c, 0, 60, 0
3, 4229, Note_on_c, 0, 54, 0
3, 4320, Note_on_c, 0, 32, 74
3, 4320, Note_on_c, 0, 44, 74
3, 4409, Note_on_c, 0, 44, 0
3, 4409, Note_on_c, 0, 32, 0
3, 4500, Note_on_c, 0, 54, 112
3, 4500, Note_on_c, 0, 60, 112
3, 4500, Note_on_c, 0, 63, 112
3, 4589, Note_on_c, 0, 63, 0
3, 4589, Note_on_c, 0, 60, 0
3, 4589, Note_on_c, 0, 54, 0
3, 4680, Note_on_c, 0, 54, 95
3, 4680, Note_on_c, 0, 60, 95
3, 4680, Note_on_c, 0, 63, 95
3, 4769, Note_on_c, 0, 63, 0
3, 4769, Note_on_c, 0, 60, 0
3, 4769, Note_on_c, 0, 54, 0
3, 4860, Note_on_c, 0, 38, 75
3, 4949, Note_on_c, 0, 38, 0
3, 5040, Note_on_c, 0, 54, 114
3, 5040, Note_on_c, 0, 60, 114
3, 5040, Note_on_c, 0, 63, 114
3, 5129, Note_on_c, 0, 63, 0
3, 5129, Note_on_c, 0, 60, 0
3, 5129, Note_on_c, 0, 54, 0
3, 5220, Note_on_c, 0, 54, 92
3, 5220, Note_on_c, 0, 60, 92
3, 5220, Note_on_c, 0, 63, 92
3, 5309, Note_on_c, 0, 63, 0
3, 5309, Note_on_c, 0, 60, 0
3, 5309, Note_on_c, 0, 54, 0
3, 5400, Note_on_c, 0, 32, 87
3, 5400, Note_on_c, 0, 44, 87
3, 5489, Note_on_c, 0, 44, 0
3, 5489, Note_on_c, 0, 32, 0
3, 5580, Note_on_c, 0, 54, 83
3, 5580, Note_on_c, 0, 60, 83
3, 5580, Note_on_c, 0, 63, 83
3, 5669, Note_on_c, 0, 63, 0
3, 5669, Note_on_c, 0, 60, 0
3, 5669, Note_on_c, 0, 54, 0
3, 5760, Note_on_c, 0, 54, 79
3, 5760, Note_on_c, 0, 60, 79
3, 5760, Note_on_c, 0, 63, 79
3, 5849, Note_on_c, 0, 63, 0
3, 5849, Note_on_c, 0, 60, 0
3, 5849, Note_on_c, 0, 54, 0
3, 5940, Note_on_c, 0, 38, 75
3, 6029, Note_on_c, 0, 38, 0
3, 6120, Note_on_c, 0, 54, 70
3, 6120, Note_on_c, 0, 60, 70
3, 6120, Note_on_c, 0, 63, 70
3, 6209, Note_on_c, 0, 63, 0
3, 6209, Note_on_c, 0, 60, 0
3, 6209, Note_on_c, 0, 54, 0
3, 6300, Note_on_c, 0, 54, 66
3, 6300, Note_on_c, 0, 60, 66
3, 6300, Note_on_c, 0, 63, 66
3, 6389, Note_on_c, 0, 63, 0
3, 6389, Note_on_c, 0, 60, 0
3, 6389, Note_on_c, 0, 54, 0
3, 6480, Note_on_c, 0, 36, 50
3, 6480, Note_on_c, 0, 48, 50
3, 6569, Note_on_c, 0, 48, 0
3, 6569, Note_on_c, 0, 36, 0
3, 6660, Note_on_c, 0, 54, 55
3, 6660, Note_on_c, 0, 58, 55
3, 6660, Note_on_c, 0, 62, 55
3, 6660, Note_on_c, 0, 63, 55
3, 6749, Note_on_c, 0, 63, 0
3, 6749, Note_on_c, 0, 54, 0
3, 6749, Note_on_c, 0, 58, 0
3, 6749, Note_on_c, 0, 62, 0
3, 6840, Note_on_c, 0, 54, 59
3, 6840, Note_on_c, 0, 58, 59
3, 6840, Note_on_c, 0, 62, 59
3, 6840, Note_on_c, 0, 63, 59
3, 6929, Note_on_c, 0, 63, 0
3, 6929, Note_on_c, 0, 54, 0
3, 6929, Note_on_c, 0, 58, 0
3, 6929, Note_on_c, 0, 62, 0
3, 7020, Note_on_c, 0, 34, 63
3, 7020, Note_on_c, 0, 46, 63
3, 7109, Note_on_c, 0, 46, 0
3, 7109, Note_on_c, 0, 34, 0
3, 7200, Note_on_c, 0, 55, 67
3, 7200, Note_on_c, 0, 61, 67
3, 7200, Note_on_c, 0, 62, 67
3, 7200, Note_on_c, 0, 64, 67
3, 7289, Note_on_c, 0, 64, 0
3, 7289, Note_on_c, 0, 55, 0
3, 7289, Note_on_c, 0, 61, 0
3, 7289, Note_on_c, 0, 62, 0
3, 7380, Note_on_c, 0, 55, 72
3, 7380, Note_on_c, 0, 61, 72
3, 7380, Note_on_c, 0, 62, 72
3, 7380, Note_on_c, 0, 64, 72
3, 7469, Note_on_c, 0, 64, 0
3, 7469, Note_on_c, 0, 55, 0
3, 7469, Note_on_c, 0, 61, 0
3, 7469, Note_on_c, 0, 62, 0
3, 7560, Note_on_c, 0, 33, 76
3, 7560, Note_on_c, 0, 45, 76
3, 7649, Note_on_c, 0, 45, 0
3, 7649, Note_on_c, 0, 33, 0
3, 7740, Note_on_c, 0, 54, 98
3, 7740, Note_on_c, 0, 60, 98
3, 7740, Note_on_c, 0, 62, 98
3, 7740, Note_on_c, 0, 66, 98
3, 7829, Note_on_c, 0, 66, 0
3, 7829, Note_on_c, 0, 54, 0
3, 7829, Note_on_c, 0, 60, 0
3, 7829, Note_on_c, 0, 62, 0
3, 7920, Note_on_c, 0, 54, 81
3, 7920, Note_on_c, 0, 60, 81
3, 7920, Note_on_c, 0, 62, 81
3, 7920, Note_on_c, 0, 66, 81
3, 8009, Note_on_c, 0, 66, 0
3, 8009, Note_on_c, 0, 54, 0
3, 8009, Note_on_c, 0, 60, 0
3, 8009, Note_on_c, 0, 62, 0
3, 12420, Note_on_c, 0, 32, 71
3, 12420, Note_on_c, 0, 44, 71
3, 12509, Note_on_c, 0, 44, 0
3, 12509, Note_on_c, 0, 32, 0
3, 12600, Note_on_c, 0, 54, 99
3, 12600, Note_on_c, 0, 59, 99
3, 12600, Note_on_c, 0, 63, 99
3, 12689, Note_on_c, 0, 63, 0
3, 12689, Note_on_c, 0, 59, 0
3, 12689, Note_on_c, 0, 54, 0
3, 12780, Note_on_c, 0, 54, 79
3, 12780, Note_on_c, 0, 59, 79
3, 12780, Note_on_c, 0, 63, 79
3, 12869, Note_on_c, 0, 63, 0
3, 12869, Note_on_c, 0, 59, 0
3, 12869, Note_on_c, 0, 54, 0
3, 12960, Note_on_c, 0, 32, 70
3, 12960, Note_on_c, 0, 44, 70
3, 13049, Note_on_c, 0, 44, 0
3, 13049, Note_on_c, 0, 32, 0
3, 13140, Note_on_c, 0, 54, 97
3, 13140, Note_on_c, 0, 59, 97
3, 13140, Note_on_c, 0, 63, 97
3, 13229, Note_on_c, 0, 63, 0
3, 13229, Note_on_c, 0, 59, 0
3, 13229, Note_on_c, 0, 54, 0
3, 13320, Note_on_c, 0, 54, 79
3, 13320, Note_on_c, 0, 59, 79
3, 13320, Note_on_c, 0, 63, 79
3, 13409, Note_on_c, 0, 63, 0
3, 13409, Note_on_c, 0, 59, 0
3, 13409, Note_on_c, 0, 54, 0
3, 13500, Note_on_c, 0, 32, 76
3, 13500, Note_on_c, 0, 44, 76
3, 13589, Note_on_c, 0, 44, 0
3, 13589, Note_on_c, 0, 32, 0
3, 13680, Note_on_c, 0, 54, 74
3, 13680, Note_on_c, 0, 59, 74
3, 13680, Note_on_c, 0, 63, 74
3, 13769, Note_on_c, 0, 63, 0
3, 13769, Note_on_c, 0, 59, 0
3, 13769, Note_on_c, 0, 54, 0
3, 13860, Note_on_c, 0, 54, 71
3, 13860, Note_on_c, 0, 59, 71
3, 13860, Note_on_c, 0, 63, 71
3, 13949, Note_on_c, 0, 63, 0
3, 13949, Note_on_c, 0, 59, 0
3, 13949, Note_on_c, 0, 54, 0
3, 14040, Note_on_c, 0, 38, 69
3, 14129, Note_on_c, 0, 38, 0
3, 14220, Note_on_c, 0, 54, 67
3, 14220, Note_on_c, 0, 60, 67
3, 14220, Note_on_c, 0, 63, 67
3, 14309, Note_on_c, 0, 63, 0
3, 14309, Note_on_c, 0, 60, 0
3, 14309, Note_on_c, 0, 54, 0
3, 14400, Note_on_c, 0, 54, 65
3, 14400, Note_on_c, 0, 60, 65
3, 14400, Note_on_c, 0, 63, 65
3, 14489, Note_on_c, 0, 63, 0
3, 14489, Note_on_c, 0, 60, 0
3, 14489, Note_on_c, 0, 54, 0
3, 14580, Note_on_c, 0, 32, 63
3, 14580, Note_on_c, 0, 44, 63
3, 14669, Note_on_c, 0, 44, 0
3, 14669, Note_on_c, 0, 32, 0
3, 14760, Note_on_c, 0, 54, 60
3, 14760, Note_on_c, 0, 59, 60
3, 14760, Note_on_c, 0, 63, 60
3, 14849, Note_on_c, 0, 63, 0
3, 14849, Note_on_c, 0, 59, 0
3, 14849, Note_on_c, 0, 54, 0
3, 14940, Note_on_c, 0, 54, 58
3, 14940, Note_on_c, 0, 59, 58
3, 14940, Note_on_c, 0, 63, 58
3, 15029, Note_on_c, 0, 63, 0
3, 15029, Note_on_c, 0, 59, 0
3, 15029, Note_on_c, 0, 54, 0
3, 15120, Note_on_c, 0, 38, 56
3, 15209, Note_on_c, 0, 38, 0
3, 15300, Note_on_c, 0, 54, 54
3, 15300, Note_on_c, 0, 60, 54
3, 15300, Note_on_c, 0, 63, 54
3, 15389, Note_on_c, 0, 63, 0
3, 15389, Note_on_c, 0, 60, 0
3, 15389, Note_on_c, 0, 54, 0
3, 15480, Note_on_c, 0, 54, 52
3, 15480, Note_on_c, 0, 60, 52
3, 15480, Note_on_c, 0, 63, 52
3, 15569, Note_on_c, 0, 63, 0
3, 15569, Note_on_c, 0, 60, 0
3, 15569, Note_on_c, 0, 54, 0
3, 15660, Note_on_c, 0, 36, 47
3, 15660, Note_on_c, 0, 48, 47
3, 15749, Note_on_c, 0, 48, 0
3, 15749, Note_on_c, 0, 36, 0
3, 15840, Note_on_c, 0, 54, 65
3, 15840, Note_on_c, 0, 58, 65
3, 15840, Note_on_c, 0, 62, 65
3, 15840, Note_on_c, 0, 63, 65
3, 15929, Note_on_c, 0, 63, 0
3, 15929, Note_on_c, 0, 54, 0
3, 15929, Note_on_c, 0, 58, 0
3, 15929, Note_on_c, 0, 62, 0
3, 16020, Note_on_c, 0, 54, 53
3, 16020, Note_on_c, 0, 58, 53
3, 16020, Note_on_c, 0, 62, 53
3, 16020, Note_on_c, 0, 63, 53
3, 16109, Note_on_c, 0, 63, 0
3, 16109, Note_on_c, 0, 54, 0
3, 16109, Note_on_c, 0, 58, 0
3, 16109, Note_on_c, 0, 62, 0
3, 16200, Note_on_c, 0, 34, 50
3, 16200, Note_on_c, 0, 46, 50
3, 16289, Note_on_c, 0, 46, 0
3, 16289, Note_on_c, 0, 34, 0
3, 16380, Note_on_c, 0, 55, 59
3, 16380, Note_on_c, 0, 61, 59
3, 16380, Note_on_c, 0, 62, 59
3, 16380, Note_on_c, 0, 64, 59
3, 16469, Note_on_c, 0, 64, 0
3, 16469, Note_on_c, 0, 55, 0
3, 16469, Note_on_c, 0, 61, 0
3, 16469, Note_on_c, 0, 62, 0
3, 16560, Note_on_c, 0, 55, 67
3, 16560, Note_on_c, 0, 61, 67
3, 16560, Note_on_c, 0, 62, 67
3, 16560, Note_on_c, 0, 64, 67
3, 16649, Note_on_c, 0, 64, 0
3, 16649, Note_on_c, 0, 55, 0
3, 16649, Note_on_c, 0, 61, 0
3, 16649, Note_on_c, 0, 62, 0
3, 16740, Note_on_c, 0, 33, 74
3, 16740, Note_on_c, 0, 45, 74
3, 16829, Note_on_c, 0, 45, 0
3, 16829, Note_on_c, 0, 33, 0
3, 16920, Note_on_c, 0, 54, 115
3, 16920, Note_on_c, 0, 60, 115
3, 16920, Note_on_c, 0, 62, 115
3, 16920, Note_on_c, 0, 66, 115
3, 17009, Note_on_c, 0, 66, 0
3, 17009, Note_on_c, 0, 54, 0
3, 17009, Note_on_c, 0, 60, 0
3, 17009, Note_on_c, 0, 62, 0
3, 17100, Note_on_c, 0, 54, 98
3, 17100, Note_on_c, 0, 60, 98
3, 17100, Note_on_c, 0, 62, 98
3, 17100, Note_on_c, 0, 66, 98
3, 17189, Note_on_c, 0, 66, 0
3, 17189, Note_on_c, 0, 54, 0
3, 17189, Note_on_c, 0, 60, 0
3, 17189, Note_on_c, 0, 62, 0
3, 20520, Note_on_c, 0, 38, 79
3, 20609, Note_on_c, 0, 38, 0
3, 20700, Note_on_c, 0, 54, 112
3, 20700, Note_on_c, 0, 57, 112
3, 20700, Note_on_c, 0, 63, 112
3, 20789, Note_on_c, 0, 63, 0
3, 20789, Note_on_c, 0, 57, 0
3, 20789, Note_on_c, 0, 54, 0
3, 20880, Note_on_c, 0, 54, 89
3, 20880, Note_on_c, 0, 57, 89
3, 20880, Note_on_c, 0, 63, 89
3, 20969, Note_on_c, 0, 63, 0
3, 20969, Note_on_c, 0, 57, 0
3, 20969, Note_on_c, 0, 54, 0
3, 21060, Note_on_c, 0, 32, 59
3, 21060, Note_on_c, 0, 44, 59
3, 21240, Note_on_c, 0, 44, 0
3, 21240, Note_on_c, 0, 32, 0
3, 21240, Note_on_c, 0, 54, 76
3, 21240, Note_on_c, 0, 58, 76
3, 21240, Note_on_c, 0, 63, 76
3, 21329, Note_on_c, 0, 63, 0
3, 21329, Note_on_c, 0, 58, 0
3, 21329, Note_on_c, 0, 54, 0
3, 21420, Note_on_c, 0, 54, 85
3, 21420, Note_on_c, 0, 58, 85
3, 21420, Note_on_c, 0, 63, 85
3, 21420, Note_on_c, 0, 44, 59
3, 21509, Note_on_c, 0, 63, 0
3, 21509, Note_on_c, 0, 54, 0
3, 21509, Note_on_c, 0, 58, 0
3, 21600, Note_on_c, 0, 44, 0
3, 21600, Note_on_c, 0, 38, 70
3, 21689, Note_on_c, 0, 38, 0
3, 21780, Note_on_c, 0, 54, 114
3, 21780, Note_on_c, 0, 57, 114
3, 21780, Note_on_c, 0, 63, 114
3, 21869, Note_on_c, 0, 63, 0
3, 21869, Note_on_c, 0, 57, 0
3, 21869, Note_on_c, 0, 54, 0
3, 21960, Note_on_c, 0, 54, 95
3, 21960, Note_on_c, 0, 57, 95
3, 21960, Note_on_c, 0, 63, 95
3, 22049, Note_on_c, 0, 63, 0
3, 22049, Note_on_c, 0, 57, 0
3, 22049, Note_on_c, 0, 54, 0
3, 22140, Note_on_c, 0, 32, 66
3, 22140, Note_on_c, 0, 44, 66
3, 22320, Note_on_c, 0, 44, 0
3, 22320, Note_on_c, 0, 32, 0
3, 22320, Note_on_c, 0, 54, 81
3, 22320, Note_on_c, 0, 58, 81
3, 22320, Note_on_c, 0, 63, 81
3, 22409, Note_on_c, 0, 63, 0
3, 22409, Note_on_c, 0, 58, 0
3, 22409, Note_on_c, 0, 54, 0
3, 22500, Note_on_c, 0, 54, 90
3, 22500, Note_on_c, 0, 58, 90
3, 22500, Note_on_c, 0, 63, 90
3, 22500, Note_on_c, 0, 44, 60
3, 22589, Note_on_c, 0, 63, 0
3, 22589, Note_on_c, 0, 54, 0
3, 22589, Note_on_c, 0, 58, 0
3, 22680, Note_on_c, 0, 44, 0
3, 22680, Note_on_c, 0, 38, 72
3, 22769, Note_on_c, 0, 38, 0
3, 22860, Note_on_c, 0, 54, 111
3, 22860, Note_on_c, 0, 57, 111
3, 22860, Note_on_c, 0, 63, 111
3, 22949, Note_on_c, 0, 63, 0
3, 22949, Note_on_c, 0, 57, 0
3, 22949, Note_on_c, 0, 54, 0
3, 23040, Note_on_c, 0, 54, 92
3, 23040, Note_on_c, 0, 57, 92
3, 23040, Note_on_c, 0, 63, 92
3, 23129, Note_on_c, 0, 63, 0
3, 23129, Note_on_c, 0, 57, 0
3, 23129, Note_on_c, 0, 54, 0
3, 23220, Note_on_c, 0, 38, 75
3, 23309, Note_on_c, 0, 38, 0
3, 23400, Note_on_c, 0, 54, 115
3, 23400, Note_on_c, 0, 57, 115
3, 23400, Note_on_c, 0, 63, 115
3, 23489, Note_on_c, 0, 63, 0
3, 23489, Note_on_c, 0, 57, 0
3, 23489, Note_on_c, 0, 54, 0
3, 23580, Note_on_c, 0, 54, 89
3, 23580, Note_on_c, 0, 57, 89
3, 23580, Note_on_c, 0, 63, 89
3, 23669, Note_on_c, 0, 63, 0
3, 23669, Note_on_c, 0, 57, 0
3, 23669, Note_on_c, 0, 54, 0
3, 23760, Note_on_c, 0, 38, 75
3, 23849, Note_on_c, 0, 38, 0
3, 23940, Note_on_c, 0, 57, 109
3, 23940, Note_on_c, 0, 60, 109
3, 23940, Note_on_c, 0, 66, 109
3, 24029, Note_on_c, 0, 66, 0
3, 24029, Note_on_c, 0, 60, 0
3, 24029, Note_on_c, 0, 57, 0
3, 24120, Note_on_c, 0, 57, 90
3, 24120, Note_on_c, 0, 60, 90
3, 24120, Note_on_c, 0, 66, 90
3, 24209, Note_on_c, 0, 66, 0
3, 24209, Note_on_c, 0, 60, 0
3, 24209, Note_on_c, 0, 57, 0
3, 25920, Note_on_c, 0, 52, 45
3, 25920, Note_on_c, 0, 57, 45
3, 25920, Note_on_c, 0, 60, 45
3, 25920, Note_on_c, 0, 45, 60
3, 26099, Note_on_c, 0, 45, 0
3, 27000, Note_on_c, 0, 52, 0
3, 27000, Note_on_c, 0, 57, 0
3, 27000, Note_on_c, 0, 60, 0
3, 27000, Note_on_c, 0, 53, 56
3, 27000, Note_on_c, 0, 56, 56
3, 27000, Note_on_c, 0, 63, 56
3, 27540, Note_on_c, 0, 63, 0
3, 27540, Note_on_c, 0, 56, 0
3, 27540, Note_on_c, 0, 53, 0
3, 27540, Note_on_c, 0, 54, 46
3, 27540, Note_on_c, 0, 57, 46
3, 27540, Note_on_c, 0, 64, 46
3, 28080, Note_on_c, 0, 64, 0
3, 28080, Note_on_c, 0, 57, 0
3, 28080, Note_on_c, 0, 54, 0
3, 28080, Note_on_c, 0, 52, 44
3, 28080, Note_on_c, 0, 57, 44
3, 28080, Note_on_c, 0, 60, 44
3, 28080, Note_on_c, 0, 45, 61
3, 28259, Note_on_c, 0, 45, 0
3, 29160, Note_on_c, 0, 52, 0
3, 29160, Note_on_c, 0, 57, 0
3, 29160, Note_on_c, 0, 60, 0
3, 29160, Note_on_c, 0, 53, 60
3, 29160, Note_on_c, 0, 56, 60
3, 29160, Note_on_c, 0, 63, 60
3, 29700, Note_on_c, 0, 63, 0
3, 29700, Note_on_c, 0, 56, 0
3, 29700, Note_on_c, 0, 53, 0
3, 29700, Note_on_c, 0, 54, 50
3, 29700, Note_on_c, 0, 57, 50
3, 29700, Note_on_c, 0, 64, 50
3, 30240, Note_on_c, 0, 64, 0
3, 30240, Note_on_c, 0, 57, 0
3, 30240, Note_on_c, 0, 54, 0
3, 30240, Note_on_c, 0, 52, 55
3, 30240, Note_on_c, 0, 57, 55
3, 30240, Note_on_c, 0, 60, 55
3, 30240, Note_on_c, 0, 33, 53
3, 30240, Note_on_c, 0, 45, 53
3, 30419, Note_on_c, 0, 45, 0
3, 30419, Note_on_c, 0, 33, 0
3, 31189, Note_on_c, 0, 52, 0
3, 31189, Note_on_c, 0, 57, 0
3, 31189, Note_on_c, 0, 60, 0
3, 31320, Note_on_c, 0, 51, 58
3, 31320, Note_on_c, 0, 56, 58
3, 31320, Note_on_c, 0, 60, 58
3, 31320, Note_on_c, 0, 32, 57
3, 31320, Note_on_c, 0, 44, 57
3, 31499, Note_on_c, 0, 44, 0
3, 31499, Note_on_c, 0, 32, 0
3, 32269, Note_on_c, 0, 51, 0
3, 32269, Note_on_c, 0, 56, 0
3, 32269, Note_on_c, 0, 60, 0
3, 34560, Note_on_c, 0, 62, 64
3, 35100, Note_on_c, 0, 62, 0
3, 35100, Note_on_c, 0, 65, 82
3, 36180, Note_on_c, 0, 65, 0
3, 36180, Note_on_c, 0, 67, 78
3, 36450, Note_on_c, 0, 67, 0
3, 36450, Note_on_c, 0, 69, 80
3, 36540, Note_on_c, 0, 69, 0
3, 36540, Note_on_c, 0, 70, 77
3, 36720, Note_on_c, 0, 70, 0
3, 36720, Note_on_c, 0, 69, 66
3, 37260, Note_on_c, 0, 69, 0
3, 37260, Note_on_c, 0, 66, 69
3, 38520, Note_on_c, 0, 66, 0
3, 38520, Note_on_c, 0, 67, 56
3, 38700, Note_on_c, 0, 67, 0
3, 38700, Note_on_c, 0, 70, 53
3, 38880, Note_on_c, 0, 70, 0
3, 38880, Note_on_c, 0, 69, 50
3, 39060, Note_on_c, 0, 69, 0
3, 39060, Note_on_c, 0, 72, 55
3, 39240, Note_on_c, 0, 72, 0
3, 39240, Note_on_c, 0, 75, 59
3, 39420, Note_on_c, 0, 75, 0
3, 39420, Note_on_c, 0, 72, 63
3, 40140, Note_on_c, 0, 72, 0
3, 40140, Note_on_c, 0, 74, 55
3, 40320, Note_on_c, 0, 74, 0
3, 40320, Note_on_c, 0, 77, 59
3, 40500, Note_on_c, 0, 77, 0
3, 40500, Note_on_c, 0, 75, 63
3, 40860, Note_on_c, 0, 75, 0
3, 40860, Note_on_c, 0, 80, 72
3, 41040, Note_on_c, 0, 80, 0
3, 41040, Note_on_c, 0, 78, 76
3, 41400, Note_on_c, 0, 78, 0
3, 41400, Note_on_c, 0, 81, 67
3, 41580, Note_on_c, 0, 81, 0
3, 41580, Note_on_c, 0, 74, 63
3, 42840, Note_on_c, 0, 74, 0
3, 43200, Note_on_c, 0, 79, 70
3, 43740, Note_on_c, 0, 79, 0
3, 43740, Note_on_c, 0, 78, 68
3, 43920, Note_on_c, 0, 78, 0
3, 43920, Note_on_c, 0, 74, 65
3, 44100, Note_on_c, 0, 74, 0
3, 44100, Note_on_c, 0, 77, 80
3, 44280, Note_on_c, 0, 77, 0
3, 44280, Note_on_c, 0, 70, 73
3, 44640, Note_on_c, 0, 70, 0
3, 44640, Note_on_c, 0, 72, 56
3, 44820, Note_on_c, 0, 72, 0
3, 44820, Note_on_c, 0, 74, 53
3, 45900, Note_on_c, 0, 74, 0
3, 45900, Note_on_c, 0, 75, 79
3, 46080, Note_on_c, 0, 75, 0
3, 46080, Note_on_c, 0, 68, 62
3, 46260, Note_on_c, 0, 68, 0
3, 46260, Note_on_c, 0, 72, 79
3, 46440, Note_on_c, 0, 72, 0
3, 46440, Note_on_c, 0, 66, 65
3, 46800, Note_on_c, 0, 66, 0
3, 46800, Note_on_c, 0, 69, 74
3, 46980, Note_on_c, 0, 69, 0
3, 46980, Note_on_c, 0, 72, 73
3, 47520, Note_on_c, 0, 72, 0
3, 47520, Note_on_c, 0, 70, 48
3, 47700, Note_on_c, 0, 70, 0
3, 47700, Note_on_c, 0, 64, 40
3, 47880, Note_on_c, 0, 64, 0
3, 47880, Note_on_c, 0, 67, 48
3, 48060, Note_on_c, 0, 67, 0
3, 48060, Note_on_c, 0, 66, 46
3, 48600, Note_on_c, 0, 66, 0
3, 48600, Note_on_c, 0, 69, 51
3, 49680, Note_on_c, 0, 69, 0
3, 49680, Note_on_c, 0, 62, 56
3, 49680, Note_on_c, 0, 50, 57
3, 50490, Note_on_c, 0, 50, 0
3, 50490, Note_on_c, 0, 62, 0
3, 50490, Note_on_c, 0, 63, 76
3, 50490, Note_on_c, 0, 51, 68
3, 50580, Note_on_c, 0, 51, 0
3, 50580, Note_on_c, 0, 63, 0
3, 50580, Note_on_c, 0, 62, 70
3, 50580, Note_on_c, 0, 50, 66
3, 50670, Note_on_c, 0, 50, 0
3, 50670, Note_on_c, 0, 62, 0
3, 50670, Note_on_c, 0, 63, 76
3, 50670, Note_on_c, 0, 51, 67
3, 50760, Note_on_c, 0, 51, 0
3, 50760, Note_on_c, 0, 63, 0
3, 50760, Note_on_c, 0, 65, 77
3, 50760, Note_on_c, 0, 53, 67
3, 51840, Note_on_c, 0, 53, 0
3, 51840, Note_on_c, 0, 65, 0
3, 51840, Note_on_c, 0, 67, 80
3, 51840, Note_on_c, 0, 55, 70
3, 52110, Note_on_c, 0, 55, 0
3, 52110, Note_on_c, 0, 67, 0
3, 52110, Note_on_c, 0, 69, 80
3, 52110, Note_on_c, 0, 57, 69
3, 52200, Note_on_c, 0, 57, 0
3, 52200, Note_on_c, 0, 69, 0
3, 52200, Note_on_c, 0, 70, 81
3, 52200, Note_on_c, 0, 58, 64
3, 52380, Note_on_c, 0, 58, 0
3, 52380, Note_on_c, 0, 70, 0
3, 52380, Note_on_c, 0, 69, 70
3, 52380, Note_on_c, 0, 57, 66
3, 52920, Note_on_c, 0, 57, 0
3, 52920, Note_on_c, 0, 69, 0
3, 52920, Note_on_c, 0, 66, 68
3, 52920, Note_on_c, 0, 54, 64
3, 54180, Note_on_c, 0, 54, 0
3, 54180, Note_on_c, 0, 66, 0
3, 54180, Note_on_c, 0, 67, 79
3, 54180, Note_on_c, 0, 55, 68
3, 54360, Note_on_c, 0, 55, 0
3, 54360, Note_on_c, 0, 67, 0
3, 54360, Note_on_c, 0, 70, 80
3, 54360, Note_on_c, 0, 58, 70
3, 54540, Note_on_c, 0, 58, 0
3, 54540, Note_on_c, 0, 70, 0
3, 54540, Note_on_c, 0, 69, 82
3, 54540, Note_on_c, 0, 57, 66
3, 54720, Note_on_c, 0, 57, 0
3, 54720, Note_on_c, 0, 69, 0
3, 54720, Note_on_c, 0, 72, 83
3, 54720, Note_on_c, 0, 60, 69
3, 54900, Note_on_c, 0, 60, 0
3, 54900, Note_on_c, 0, 72, 0
3, 54900, Note_on_c, 0, 75, 85
3, 54900, Note_on_c, 0, 63, 72
3, 55080, Note_on_c, 0, 63, 0
3, 55080, Note_on_c, 0, 75, 0
3, 55080, Note_on_c, 0, 72, 86
3, 55080, Note_on_c, 0, 60, 63
3, 55800, Note_on_c, 0, 60, 0
3, 55800, Note_on_c, 0, 72, 0
3, 55800, Note_on_c, 0, 74, 92
3, 55800, Note_on_c, 0, 62, 69
3, 55980, Note_on_c, 0, 62, 0
3, 55980, Note_on_c, 0, 74, 0
3, 55980, Note_on_c, 0, 77, 93
3, 55980, Note_on_c, 0, 65, 74
3, 56160, Note_on_c, 0, 65, 0
3, 56160, Note_on_c, 0, 77, 0
3, 56160, Note_on_c, 0, 75, 94
3, 56160, Note_on_c, 0, 63, 63
3, 56520, Note_on_c, 0, 63, 0
3, 56520, Note_on_c, 0, 75, 0
3, 56520, Note_on_c, 0, 84, 97
3, 56520, Note_on_c, 0, 72, 83
3, 56700, Note_on_c, 0, 72, 0
3, 56700, Note_on_c, 0, 84, 0
3, 56700, Note_on_c, 0, 78, 73
3, 56700, Note_on_c, 0, 66, 56
3, 57060, Note_on_c, 0, 66, 0
3, 57060, Note_on_c, 0, 78, 0
3, 57060, Note_on_c, 0, 81, 65
3, 57060, Note_on_c, 0, 69, 69
3, 57240, Note_on_c, 0, 69, 0
3, 57240, Note_on_c, 0, 81, 0
3, 57240, Note_on_c, 0, 74, 61
3, 57240, Note_on_c, 0, 62, 54
3, 58860, Note_on_c, 0, 62, 0
3, 58860, Note_on_c, 0, 74, 0
3, 58860, Note_on_c, 0, 79, 106
3, 58860, Note_on_c, 0, 82, 106
3, 58860, Note_on_c, 0, 67, 106
3, 58860, Note_on_c, 0, 70, 106
3, 59400, Note_on_c, 0, 70, 0
3, 59400, Note_on_c, 0, 79, 0
3, 59400, Note_on_c, 0, 82, 0
3, 59400, Note_on_c, 0, 67, 0
3, 59400, Note_on_c, 0, 78, 82
3, 59400, Note_on_c, 0, 81, 82
3, 59400, Note_on_c, 0, 66, 86
3, 59400, Note_on_c, 0, 69, 86
3, 59580, Note_on_c, 0, 69, 0
3, 59580, Note_on_c, 0, 78, 0
3, 59580, Note_on_c, 0, 81, 0
3, 59580, Note_on_c, 0, 66, 0
3, 59580, Note_on_c, 0, 74, 74
3, 59580, Note_on_c, 0, 78, 74
3, 59580, Note_on_c, 0, 62, 80
3, 59580, Note_on_c, 0, 66, 80
3, 59760, Note_on_c, 0, 66, 0
3, 59760, Note_on_c, 0, 74, 0
3, 59760, Note_on_c, 0, 78, 0
3, 59760, Note_on_c, 0, 62, 0
3, 59760, Note_on_c, 0, 77, 87
3, 59760, Note_on_c, 0, 80, 87
3, 59760, Note_on_c, 0, 65, 89
3, 59760, Note_on_c, 0, 68, 89
3, 59940, Note_on_c, 0, 68, 0
3, 59940, Note_on_c, 0, 77, 0
3, 59940, Note_on_c, 0, 80, 0
3, 59940, Note_on_c, 0, 65, 0
3, 59940, Note_on_c, 0, 70, 87
3, 59940, Note_on_c, 0, 74, 87
3, 59940, Note_on_c, 0, 58, 87
3, 59940, Note_on_c, 0, 62, 87
3, 60300, Note_on_c, 0, 62, 0
3, 60300, Note_on_c, 0, 70, 0
3, 60300, Note_on_c, 0, 74, 0
3, 60300, Note_on_c, 0, 58, 0
3, 60300, Note_on_c, 0, 72, 70
3, 60300, Note_on_c, 0, 75, 70
3, 60300, Note_on_c, 0, 60, 70
3, 60300, Note_on_c, 0, 63, 70
3, 60480, Note_on_c, 0, 63, 0
3, 60480, Note_on_c, 0, 72, 0
3, 60480, Note_on_c, 0, 75, 0
3, 60480, Note_on_c, 0, 60, 0
3, 60480, Note_on_c, 0, 74, 79
3, 60480, Note_on_c, 0, 77, 79
3, 60480, Note_on_c, 0, 62, 77
3, 60480, Note_on_c, 0, 65, 77
3, 61560, Note_on_c, 0, 65, 0
3, 61560, Note_on_c, 0, 74, 0
3, 61560, Note_on_c, 0, 77, 0
3, 61560, Note_on_c, 0, 62, 0
3, 61560, Note_on_c, 0, 75, 94
3, 61560, Note_on_c, 0, 79, 94
3, 61560, Note_on_c, 0, 63, 79
3, 61560, Note_on_c, 0, 67, 79
3, 61740, Note_on_c, 0, 67, 0
3, 61740, Note_on_c, 0, 75, 0
3, 61740, Note_on_c, 0, 79, 0
3, 61740, Note_on_c, 0, 63, 0
3, 61740, Note_on_c, 0, 68, 70
3, 61740, Note_on_c, 0, 72, 70
3, 61740, Note_on_c, 0, 56, 57
3, 61740, Note_on_c, 0, 60, 57
3, 61920, Note_on_c, 0, 60, 0
3, 61920, Note_on_c, 0, 68, 0
3, 61920, Note_on_c, 0, 72, 0
3, 61920, Note_on_c, 0, 56, 0
3, 61920, Note_on_c, 0, 72, 95
3, 61920, Note_on_c, 0, 75, 95
3, 61920, Note_on_c, 0, 60, 76
3, 61920, Note_on_c, 0, 63, 76
3, 62100, Note_on_c, 0, 63, 0
3, 62100, Note_on_c, 0, 72, 0
3, 62100, Note_on_c, 0, 75, 0
3, 62100, Note_on_c, 0, 60, 0
3, 62100, Note_on_c, 0, 66, 68
3, 62100, Note_on_c, 0, 69, 68
3, 62100, Note_on_c, 0, 54, 70
3, 62100, Note_on_c, 0, 57, 70
3, 62460, Note_on_c, 0, 57, 0
3, 62460, Note_on_c, 0, 66, 0
3, 62460, Note_on_c, 0, 69, 0
3, 62460, Note_on_c, 0, 54, 0
3, 62460, Note_on_c, 0, 69, 91
3, 62460, Note_on_c, 0, 72, 91
3, 62460, Note_on_c, 0, 57, 77
3, 62460, Note_on_c, 0, 60, 77
3, 62640, Note_on_c, 0, 60, 0
3, 62640, Note_on_c, 0, 69, 0
3, 62640, Note_on_c, 0, 72, 0
3, 62640, Note_on_c, 0, 57, 0
3, 62640, Note_on_c, 0, 75, 101
3, 62640, Note_on_c, 0, 72, 1
3, 62640, Note_on_c, 0, 63, 78
3, 62640, Note_on_c, 0, 60, 40
3, 63180, Note_on_c, 0, 60, 0
3, 63180, Note_on_c, 0, 75, 0
3, 63180, Note_on_c, 0, 72, 0
3, 63180, Note_on_c, 0, 63, 0
3, 63180, Note_on_c, 0, 73, 85
3, 63180, Note_on_c, 0, 70, 1
3, 63180, Note_on_c, 0, 61, 71
3, 63180, Note_on_c, 0, 58, 42
3, 63360, Note_on_c, 0, 58, 0
3, 63360, Note_on_c, 0, 70, 0
3, 63360, Note_on_c, 0, 67, 1
3, 63360, Note_on_c, 0, 55, 37
3, 63540, Note_on_c, 0, 55, 0
3, 63540, Note_on_c, 0, 73, 0
3, 63540, Note_on_c, 0, 61, 0
3, 63540, Note_on_c, 0, 67, 0
3, 63540, Note_on_c, 0, 74, 93
3, 63540, Note_on_c, 0, 66, 1
3, 63540, Note_on_c, 0, 62, 74
3, 63540, Note_on_c, 0, 54, 39
3, 63720, Note_on_c, 0, 54, 0
3, 63720, Note_on_c, 0, 74, 0
3, 63720, Note_on_c, 0, 66, 0
3, 63720, Note_on_c, 0, 62, 0
3, 63720, Note_on_c, 0, 70, 75
3, 63720, Note_on_c, 0, 67, 1
3, 63720, Note_on_c, 0, 58, 69
3, 63720, Note_on_c, 0, 55, 45
3, 64260, Note_on_c, 0, 58, 0
3, 64260, Note_on_c, 0, 70, 0
3, 64260, Note_on_c, 0, 67, 75
3, 64260, Note_on_c, 0, 55, 68
3, 64800, Note_on_c, 0, 67, 0
3, 64800, Note_on_c, 0, 55, 0
3, 66420, Note_on_c, 0, 67, 0
3, 66420, Note_on_c, 0, 55, 0
3, 66420, Note_on_c, 0, 67, 90
3, 66420, Note_on_c, 0, 55, 74
3, 66509, Note_on_c, 0, 55, 0
3, 66509, Note_on_c, 0, 67, 0
3, 66600, Note_on_c, 0, 59, 37
3, 66600, Note_on_c, 0, 62, 37
3, 66600, Note_on_c, 0, 53, 42
3, 66689, Note_on_c, 0, 53, 0
3, 66689, Note_on_c, 0, 62, 0
3, 66689, Note_on_c, 0, 59, 0
3, 66960, Note_on_c, 0, 47, 76
3, 67140, Note_on_c, 0, 53, 33
3, 67140, Note_on_c, 0, 56, 33
3, 67140, Note_on_c, 0, 62, 33
3, 67229, Note_on_c, 0, 62, 0
3, 67229, Note_on_c, 0, 56, 0
3, 67229, Note_on_c, 0, 53, 0
3, 67320, Note_on_c, 0, 53, 40
3, 67320, Note_on_c, 0, 56, 40
3, 67320, Note_on_c, 0, 62, 40
3, 67409, Note_on_c, 0, 62, 0
3, 67409, Note_on_c, 0, 56, 0
3, 67409, Note_on_c, 0, 53, 0
3, 67410, Note_on_c, 0, 47, 0
3, 67410, Note_on_c, 0, 46, 66
3, 67500, Note_on_c, 0, 46, 0
3, 67500, Note_on_c, 0, 47, 74
3, 67680, Note_on_c, 0, 53, 36
3, 67680, Note_on_c, 0, 56, 36
3, 67680, Note_on_c, 0, 63, 36
3, 67680, Note_on_c, 0, 29, 35
3, 67680, Note_on_c, 0, 41, 35
3, 67769, Note_on_c, 0, 41, 0
3, 67769, Note_on_c, 0, 53, 0
3, 67769, Note_on_c, 0, 56, 0
3, 67769, Note_on_c, 0, 63, 0
3, 67769, Note_on_c, 0, 29, 0
3, 68040, Note_on_c, 0, 47, 0
3, 68040, Note_on_c, 0, 47, 84
3, 68220, Note_on_c, 0, 53, 35
3, 68220, Note_on_c, 0, 56, 35
3, 68220, Note_on_c, 0, 62, 35
3, 68309, Note_on_c, 0, 62, 0
3, 68309, Note_on_c, 0, 56, 0
3, 68309, Note_on_c, 0, 53, 0
3, 68400, Note_on_c, 0, 52, 33
3, 68400, Note_on_c, 0, 56, 33
3, 68489, Note_on_c, 0, 56, 0
3, 68489, Note_on_c, 0, 52, 0
3, 68490, Note_on_c, 0, 47, 0
3, 68490, Note_on_c, 0, 46, 72
3, 68580, Note_on_c, 0, 46, 0
3, 68580, Note_on_c, 0, 47, 72
3, 68760, Note_on_c, 0, 51, 33
3, 68760, Note_on_c, 0, 56, 33
3, 68760, Note_on_c, 0, 63, 33
3, 68760, Note_on_c, 0, 28, 36
3, 68760, Note_on_c, 0, 40, 36
3, 68849, Note_on_c, 0, 40, 0
3, 68849, Note_on_c, 0, 51, 0
3, 68849, Note_on_c, 0, 56, 0
3, 68849, Note_on_c, 0, 63, 0
3, 68849, Note_on_c, 0, 28, 0
3, 69120, Note_on_c, 0, 47, 0
3, 69120, Note_on_c, 0, 47, 75
3, 69120, Note_on_c, 0, 35, 35
3, 69209, Note_on_c, 0, 35, 0
3, 69209, Note_on_c, 0, 47, 0
3, 69300, Note_on_c, 0, 62, 38
3, 69300, Note_on_c, 0, 53, 1
3, 69300, Note_on_c, 0, 57, 1
3, 69300, Note_on_c, 0, 47, 87
3, 69570, Note_on_c, 0, 62, 0
3, 69570, Note_on_c, 0, 63, 41
3, 69617, Note_on_c, 0, 47, 0
3, 69660, Note_on_c, 0, 63, 0
3, 69660, Note_on_c, 0, 64, 39
3, 69660, Note_on_c, 0, 46, 69
3, 69660, Note_on_c, 0, 34, 37
3, 69749, Note_on_c, 0, 34, 0
3, 69749, Note_on_c, 0, 46, 0
3, 69840, Note_on_c, 0, 53, 0
3, 69840, Note_on_c, 0, 57, 0
3, 69840, Note_on_c, 0, 64, 0
3, 69840, Note_on_c, 0, 65, 52
3, 69840, Note_on_c, 0, 57, 1
3, 69840, Note_on_c, 0, 62, 1
3, 69840, Note_on_c, 0, 46, 90
3, 70157, Note_on_c, 0, 46, 0
3, 70157, Note_on_c, 0, 65, 0
3, 70200, Note_on_c, 0, 62, 0
3, 70200, Note_on_c, 0, 57, 0
3, 70200, Note_on_c, 0, 44, 83
3, 70200, Note_on_c, 0, 32, 35
3, 70358, Note_on_c, 0, 44, 0
3, 70380, Note_on_c, 0, 63, 38
3, 70380, Note_on_c, 0, 54, 1
3, 70380, Note_on_c, 0, 59, 1
3, 70380, Note_on_c, 0, 44, 85
3, 70697, Note_on_c, 0, 44, 0
3, 70740, Note_on_c, 0, 54, 0
3, 70740, Note_on_c, 0, 32, 0
3, 70740, Note_on_c, 0, 63, 0
3, 70740, Note_on_c, 0, 59, 0
3, 70740, Note_on_c, 0, 63, 112
3, 70740, Note_on_c, 0, 53, 1
3, 70740, Note_on_c, 0, 59, 1
3, 70740, Note_on_c, 0, 31, 92
3, 70740, Note_on_c, 0, 43, 92
3, 70920, Note_on_c, 0, 63, 0
3, 70920, Note_on_c, 0, 62, 78
3, 71100, Note_on_c, 0, 62, 0
3, 71100, Note_on_c, 0, 43, 0
3, 71100, Note_on_c, 0, 53, 0
3, 71100, Note_on_c, 0, 59, 0
3, 71100, Note_on_c, 0, 31, 0
3, 71280, Note_on_c, 0, 51, 76
3, 71460, Note_on_c, 0, 57, 45
3, 71460, Note_on_c, 0, 60, 45
3, 71460, Note_on_c, 0, 66, 45
3, 71549, Note_on_c, 0, 66, 0
3, 71549, Note_on_c, 0, 60, 0
3, 71549, Note_on_c, 0, 57, 0
3, 71640, Note_on_c, 0, 57, 50
3, 71640, Note_on_c, 0, 60, 50
3, 71640, Note_on_c, 0, 66, 50
3, 71729, Note_on_c, 0, 66, 0
3, 71729, Note_on_c, 0, 60, 0
3, 71729, Note_on_c, 0, 57, 0
3, 71730, Note_on_c, 0, 51, 0
3, 71730, Note_on_c, 0, 50, 70
3, 71820, Note_on_c, 0, 50, 0
3, 71820, Note_on_c, 0, 51, 74
3, 72000, Note_on_c, 0, 57, 45
3, 72000, Note_on_c, 0, 60, 45
3, 72000, Note_on_c, 0, 67, 45
3, 72000, Note_on_c, 0, 33, 37
3, 72000, Note_on_c, 0, 45, 37
3, 72089, Note_on_c, 0, 67, 0
3, 72089, Note_on_c, 0, 60, 0
3, 72089, Note_on_c, 0, 57, 0
3, 72180, Note_on_c, 0, 45, 0
3, 72180, Note_on_c, 0, 33, 0
3, 72360, Note_on_c, 0, 51, 0
3, 72360, Note_on_c, 0, 51, 92
3, 72540, Note_on_c, 0, 57, 49
3, 72540, Note_on_c, 0, 60, 49
3, 72540, Note_on_c, 0, 66, 49
3, 72629, Note_on_c, 0, 66, 0
3, 72629, Note_on_c, 0, 60, 0
3, 72629, Note_on_c, 0, 57, 0
3, 72720, Note_on_c, 0, 56, 48
3, 72720, Note_on_c, 0, 60, 48
3, 72720, Note_on_c, 0, 65, 48
3, 72810, Note_on_c, 0, 65, 0
3, 72810, Note_on_c, 0, 51, 0
3, 72810, Note_on_c, 0, 56, 0
3, 72810, Note_on_c, 0, 60, 0
3, 72810, Note_on_c, 0, 66, 49
3, 72810, Note_on_c, 0, 50, 70
3, 72900, Note_on_c, 0, 50, 0
3, 72900, Note_on_c, 0, 66, 0
3, 72900, Note_on_c, 0, 51, 77
3, 73080, Note_on_c, 0, 55, 46
3, 73080, Note_on_c, 0, 60, 46
3, 73080, Note_on_c, 0, 67, 46
3, 73080, Note_on_c, 0, 32, 33
3, 73080, Note_on_c, 0, 44, 33
3, 73169, Note_on_c, 0, 67, 0
3, 73169, Note_on_c, 0, 60, 0
3, 73169, Note_on_c, 0, 55, 0
3, 73260, Note_on_c, 0, 44, 0
3, 73260, Note_on_c, 0, 32, 0
3, 73440, Note_on_c, 0, 51, 0
3, 73440, Note_on_c, 0, 65, 46
3, 73440, Note_on_c, 0, 57, 1
3, 73440, Note_on_c, 0, 60, 1
3, 73440, Note_on_c, 0, 51, 85
3, 73440, Note_on_c, 0, 39, 36
3, 73529, Note_on_c, 0, 65, 0
3, 73598, Note_on_c, 0, 51, 0
3, 73620, Note_on_c, 0, 57, 0
3, 73620, Note_on_c, 0, 60, 0
3, 73620, Note_on_c, 0, 66, 54
3, 73620, Note_on_c, 0, 57, 1
3, 73620, Note_on_c, 0, 60, 1
3, 73620, Note_on_c, 0, 51, 91
3, 73890, Note_on_c, 0, 66, 0
3, 73890, Note_on_c, 0, 67, 53
3, 73937, Note_on_c, 0, 51, 0
3, 73980, Note_on_c, 0, 60, 0
3, 73980, Note_on_c, 0, 39, 0
3, 73980, Note_on_c, 0, 57, 0
3, 73980, Note_on_c, 0, 67, 0
3, 73980, Note_on_c, 0, 60, 50
3, 73980, Note_on_c, 0, 66, 50
3, 73980, Note_on_c, 0, 68, 50
3, 73980, Note_on_c, 0, 50, 84
3, 73980, Note_on_c, 0, 38, 41
3, 74138, Note_on_c, 0, 50, 0
3, 74138, Note_on_c, 0, 68, 0
3, 74138, Note_on_c, 0, 60, 0
3, 74138, Note_on_c, 0, 66, 0
3, 74160, Note_on_c, 0, 60, 59
3, 74160, Note_on_c, 0, 66, 59
3, 74160, Note_on_c, 0, 69, 59
3, 74160, Note_on_c, 0, 50, 85
3, 74477, Note_on_c, 0, 50, 0
3, 74477, Note_on_c, 0, 66, 0
3, 74477, Note_on_c, 0, 69, 0
3, 74477, Note_on_c, 0, 60, 0
3, 74520, Note_on_c, 0, 38, 0
3, 74520, Note_on_c, 0, 48, 84
3, 74520, Note_on_c, 0, 36, 35
3, 74678, Note_on_c, 0, 48, 0
3, 74700, Note_on_c, 0, 67, 81
3, 74700, Note_on_c, 0, 58, 23
3, 74700, Note_on_c, 0, 63, 23
3, 74700, Note_on_c, 0, 48, 82
3, 75017, Note_on_c, 0, 48, 0
3, 75017, Note_on_c, 0, 67, 0
3, 75060, Note_on_c, 0, 36, 0
3, 75060, Note_on_c, 0, 58, 0
3, 75060, Note_on_c, 0, 63, 0
3, 75060, Note_on_c, 0, 67, 101
3, 75060, Note_on_c, 0, 57, 16
3, 75060, Note_on_c, 0, 63, 16
3, 75060, Note_on_c, 0, 35, 83
3, 75060, Note_on_c, 0, 47, 83
3, 75240, Note_on_c, 0, 67, 0
3, 75240, Note_on_c, 0, 66, 68
3, 75377, Note_on_c, 0, 35, 0
3, 75377, Note_on_c, 0, 47, 0
3, 75420, Note_on_c, 0, 57, 0
3, 75420, Note_on_c, 0, 63, 0
3, 75420, Note_on_c, 0, 66, 0
3, 75420, Note_on_c, 0, 57, 90
3, 75420, Note_on_c, 0, 60, 90
3, 75420, Note_on_c, 0, 66, 90
3, 75420, Note_on_c, 0, 38, 88
3, 75420, Note_on_c, 0, 50, 88
3, 75578, Note_on_c, 0, 50, 0
3, 75578, Note_on_c, 0, 66, 0
3, 75578, Note_on_c, 0, 57, 0
3, 75578, Note_on_c, 0, 60, 0
3, 75578, Note_on_c, 0, 38, 0
3, 75600, Note_on_c, 0, 49, 68
3, 75600, Note_on_c, 0, 30, 45
3, 75600, Note_on_c, 0, 42, 45
3, 75780, Note_on_c, 0, 57, 75
3, 75780, Note_on_c, 0, 61, 75
3, 75780, Note_on_c, 0, 66, 75
3, 75869, Note_on_c, 0, 66, 0
3, 75869, Note_on_c, 0, 57, 0
3, 75869, Note_on_c, 0, 61, 0
3, 75960, Note_on_c, 0, 57, 87
3, 75960, Note_on_c, 0, 61, 87
3, 75960, Note_on_c, 0, 66, 87
3, 76049, Note_on_c, 0, 66, 0
3, 76049, Note_on_c, 0, 57, 0
3, 76049, Note_on_c, 0, 61, 0
3, 76140, Note_on_c, 0, 30, 0
3, 76140, Note_on_c, 0, 49, 0
3, 76140, Note_on_c, 0, 42, 0
3, 76140, Note_on_c, 0, 54, 77
3, 76140, Note_on_c, 0, 32, 45
3, 76140, Note_on_c, 0, 44, 45
3, 76320, Note_on_c, 0, 57, 75
3, 76320, Note_on_c, 0, 60, 75
3, 76320, Note_on_c, 0, 66, 75
3, 76409, Note_on_c, 0, 66, 0
3, 76409, Note_on_c, 0, 57, 0
3, 76409, Note_on_c, 0, 60, 0
3, 76500, Note_on_c, 0, 57, 81
3, 76500, Note_on_c, 0, 60, 81
3, 76500, Note_on_c, 0, 65, 81
3, 76589, Note_on_c, 0, 65, 0
3, 76589, Note_on_c, 0, 57, 0
3, 76589, Note_on_c, 0, 60, 0
3, 76680, Note_on_c, 0, 32, 0
3, 76680, Note_on_c, 0, 54, 0
3, 76680, Note_on_c, 0, 44, 0
3, 76680, Note_on_c, 0, 33, 74
3, 76680, Note_on_c, 0, 45, 74
3, 76860, Note_on_c, 0, 57, 64
3, 76860, Note_on_c, 0, 60, 64
3, 76860, Note_on_c, 0, 64, 64
3, 76949, Note_on_c, 0, 64, 0
3, 76949, Note_on_c, 0, 57, 0
3, 76949, Note_on_c, 0, 60, 0
3, 76997, Note_on_c, 0, 45, 0
3, 76997, Note_on_c, 0, 33, 0
3, 77040, Note_on_c, 0, 57, 74
3, 77040, Note_on_c, 0, 60, 74
3, 77040, Note_on_c, 0, 64, 74
3, 77129, Note_on_c, 0, 64, 0
3, 77129, Note_on_c, 0, 60, 0
3, 77129, Note_on_c, 0, 57, 0
3, 77220, Note_on_c, 0, 32, 44
3, 77220, Note_on_c, 0, 44, 44
3, 77309, Note_on_c, 0, 44, 0
3, 77309, Note_on_c, 0, 32, 0
3, 77400, Note_on_c, 0, 53, 66
3, 77400, Note_on_c, 0, 56, 66
3, 77400, Note_on_c, 0, 61, 66
3, 77400, Note_on_c, 0, 65, 66
3, 77489, Note_on_c, 0, 65, 0
3, 77489, Note_on_c, 0, 53, 0
3, 77489, Note_on_c, 0, 56, 0
3, 77489, Note_on_c, 0, 61, 0
3, 77580, Note_on_c, 0, 53, 53
3, 77580, Note_on_c, 0, 56, 53
3, 77580, Note_on_c, 0, 61, 53
3, 77580, Note_on_c, 0, 65, 53
3, 77669, Note_on_c, 0, 65, 0
3, 77669, Note_on_c, 0, 53, 0
3, 77669, Note_on_c, 0, 56, 0
3, 77669, Note_on_c, 0, 61, 0
3, 77760, Note_on_c, 0, 33, 44
3, 77760, Note_on_c, 0, 45, 44
3, 77849, Note_on_c, 0, 45, 0
3, 77849, Note_on_c, 0, 33, 0
3, 77940, Note_on_c, 0, 52, 71
3, 77940, Note_on_c, 0, 57, 71
3, 77940, Note_on_c, 0, 60, 71
3, 77940, Note_on_c, 0, 64, 71
3, 78029, Note_on_c, 0, 64, 0
3, 78029, Note_on_c, 0, 52, 0
3, 78029, Note_on_c, 0, 57, 0
3, 78029, Note_on_c, 0, 60, 0
3, 78120, Note_on_c, 0, 52, 52
3, 78120, Note_on_c, 0, 57, 52
3, 78120, Note_on_c, 0, 60, 52
3, 78120, Note_on_c, 0, 64, 52
3, 78209, Note_on_c, 0, 64, 0
3, 78209, Note_on_c, 0, 52, 0
3, 78209, Note_on_c, 0, 57, 0
3, 78209, Note_on_c, 0, 60, 0
3, 78300, Note_on_c, 0, 35, 40
3, 78300, Note_on_c, 0, 47, 40
3, 78480, Note_on_c, 0, 57, 65
3, 78480, Note_on_c, 0, 60, 65
3, 78480, Note_on_c, 0, 63, 65
3, 78480, Note_on_c, 0, 68, 65
3, 78569, Note_on_c, 0, 68, 0
3, 78569, Note_on_c, 0, 47, 0
3, 78569, Note_on_c, 0, 57, 0
3, 78569, Note_on_c, 0, 35, 0
3, 78569, Note_on_c, 0, 63, 0
3, 78569, Note_on_c, 0, 60, 0
3, 78660, Note_on_c, 0, 57, 68
3, 78660, Note_on_c, 0, 59, 68
3, 78660, Note_on_c, 0, 63, 68
3, 78660, Note_on_c, 0, 67, 68
3, 78749, Note_on_c, 0, 67, 0
3, 78749, Note_on_c, 0, 57, 0
3, 78749, Note_on_c, 0, 59, 0
3, 78749, Note_on_c, 0, 63, 0
3, 78840, Note_on_c, 0, 36, 54
3, 78840, Note_on_c, 0, 48, 54
3, 79020, Note_on_c, 0, 56, 69
3, 79020, Note_on_c, 0, 60, 69
3, 79020, Note_on_c, 0, 63, 69
3, 79109, Note_on_c, 0, 63, 0
3, 79109, Note_on_c, 0, 56, 0
3, 79109, Note_on_c, 0, 60, 0
3, 79200, Note_on_c, 0, 48, 0
3, 79200, Note_on_c, 0, 36, 0
3, 79200, Note_on_c, 0, 56, 71
3, 79200, Note_on_c, 0, 60, 71
3, 79200, Note_on_c, 0, 63, 71
3, 79289, Note_on_c, 0, 63, 0
3, 79289, Note_on_c, 0, 60, 0
3, 79289, Note_on_c, 0, 56, 0
3, 79380, Note_on_c, 0, 35, 43
3, 79380, Note_on_c, 0, 47, 43
3, 79469, Note_on_c, 0, 47, 0
3, 79469, Note_on_c, 0, 35, 0
3, 79560, Note_on_c, 0, 52, 66
3, 79560, Note_on_c, 0, 56, 66
3, 79560, Note_on_c, 0, 62, 66
3, 79560, Note_on_c, 0, 64, 66
3, 79649, Note_on_c, 0, 64, 0
3, 79649, Note_on_c, 0, 52, 0
3, 79649, Note_on_c, 0, 56, 0
3, 79649, Note_on_c, 0, 62, 0
3, 79740, Note_on_c, 0, 52, 52
3, 79740, Note_on_c, 0, 56, 52
3, 79740, Note_on_c, 0, 62, 52
3, 79740, Note_on_c, 0, 64, 52
3, 79829, Note_on_c, 0, 64, 0
3, 79829, Note_on_c, 0, 52, 0
3, 79829, Note_on_c, 0, 56, 0
3, 79829, Note_on_c, 0, 62, 0
3, 79920, Note_on_c, 0, 36, 47
3, 79920, Note_on_c, 0, 48, 47
3, 80009, Note_on_c, 0, 48, 0
3, 80009, Note_on_c, 0, 36, 0
3, 80100, Note_on_c, 0, 51, 69
3, 80100, Note_on_c, 0, 56, 69
3, 80100, Note_on_c, 0, 60, 69
3, 80100, Note_on_c, 0, 63, 69
3, 80189, Note_on_c, 0, 63, 0
3, 80189, Note_on_c, 0, 51, 0
3, 80189, Note_on_c, 0, 56, 0
3, 80189, Note_on_c, 0, 60, 0
3, 80280, Note_on_c, 0, 51, 55
3, 80280, Note_on_c, 0, 56, 55
3, 80280, Note_on_c, 0, 60, 55
3, 80280, Note_on_c, 0, 63, 55
3, 80369, Note_on_c, 0, 63, 0
3, 80369, Note_on_c, 0, 51, 0
3, 80369, Note_on_c, 0, 56, 0
3, 80369, Note_on_c, 0, 60, 0
3, 80460, Note_on_c, 0, 38, 35
3, 80460, Note_on_c, 0, 50, 35
3, 80729, Note_on_c, 0, 50, 0
3, 80729, Note_on_c, 0, 38, 0
3, 81000, Note_on_c, 0, 43, 37
3, 81180, Note_on_c, 0, 62, 66
3, 81180, Note_on_c, 0, 58, 18
3, 81180, Note_on_c, 0, 50, 43
3, 81360, Note_on_c, 0, 50, 0
3, 81360, Note_on_c, 0, 62, 0
3, 81360, Note_on_c, 0, 64, 77
3, 81360, Note_on_c, 0, 52, 52
3, 81540, Note_on_c, 0, 52, 0
3, 81540, Note_on_c, 0, 43, 0
3, 81540, Note_on_c, 0, 58, 0
3, 81540, Note_on_c, 0, 64, 0
3, 81540, Note_on_c, 0, 66, 81
3, 81540, Note_on_c, 0, 61, 15
3, 81540, Note_on_c, 0, 54, 50
3, 81540, Note_on_c, 0, 45, 38
3, 81720, Note_on_c, 0, 54, 0
3, 81720, Note_on_c, 0, 66, 0
3, 81720, Note_on_c, 0, 67, 81
3, 81720, Note_on_c, 0, 55, 53
3, 81900, Note_on_c, 0, 55, 0
3, 81900, Note_on_c, 0, 67, 0
3, 81900, Note_on_c, 0, 66, 75
3, 81900, Note_on_c, 0, 54, 46
3, 82080, Note_on_c, 0, 54, 0
3, 82080, Note_on_c, 0, 66, 0
3, 82080, Note_on_c, 0, 45, 0
3, 82080, Note_on_c, 0, 65, 71
3, 82080, Note_on_c, 0, 53, 47
3, 82080, Note_on_c, 0, 46, 44
3, 82260, Note_on_c, 0, 53, 0
3, 82260, Note_on_c, 0, 61, 0
3, 82260, Note_on_c, 0, 65, 0
3, 82260, Note_on_c, 0, 53, 60
3, 82260, Note_on_c, 0, 58, 60
3, 82260, Note_on_c, 0, 61, 60
3, 82349, Note_on_c, 0, 61, 0
3, 82349, Note_on_c, 0, 58, 0
3, 82349, Note_on_c, 0, 53, 0
3, 82440, Note_on_c, 0, 46, 0
3, 82440, Note_on_c, 0, 73, 50
3, 82440, Note_on_c, 0, 53, 51
3, 82440, Note_on_c, 0, 58, 51
3, 82440, Note_on_c, 0, 61, 51
3, 82499, Note_on_c, 0, 73, 0
3, 82499, Note_on_c, 0, 75, 63
3, 82529, Note_on_c, 0, 53, 0
3, 82529, Note_on_c, 0, 61, 0
3, 82529, Note_on_c, 0, 58, 0
3, 82560, Note_on_c, 0, 75, 0
3, 82560, Note_on_c, 0, 77, 66
3, 82620, Note_on_c, 0, 77, 0
3, 82620, Note_on_c, 0, 78, 89
3, 82620, Note_on_c, 0, 46, 41
3, 82679, Note_on_c, 0, 78, 0
3, 82740, Note_on_c, 0, 79, 63
3, 82800, Note_on_c, 0, 79, 0
3, 82800, Note_on_c, 0, 46, 0
3, 82800, Note_on_c, 0, 78, 62
3, 82800, Note_on_c, 0, 54, 66
3, 82800, Note_on_c, 0, 61, 66
3, 82800, Note_on_c, 0, 64, 66
3, 82859, Note_on_c, 0, 78, 0
3, 82859, Note_on_c, 0, 79, 65
3, 82889, Note_on_c, 0, 54, 0
3, 82889, Note_on_c, 0, 64, 0
3, 82889, Note_on_c, 0, 61, 0
3, 82920, Note_on_c, 0, 79, 0
3, 82920, Note_on_c, 0, 78, 60
3, 82980, Note_on_c, 0, 78, 0
3, 82980, Note_on_c, 0, 79, 63
3, 82980, Note_on_c, 0, 54, 52
3, 82980, Note_on_c, 0, 61, 52
3, 82980, Note_on_c, 0, 64, 52
3, 83039, Note_on_c, 0, 79, 0
3, 83039, Note_on_c, 0, 78, 57
3, 83069, Note_on_c, 0, 54, 0
3, 83069, Note_on_c, 0, 64, 0
3, 83069, Note_on_c, 0, 61, 0
3, 83100, Note_on_c, 0, 78, 0
3, 83100, Note_on_c, 0, 79, 65
3, 83160, Note_on_c, 0, 79, 0
3, 83160, Note_on_c, 0, 78, 59
3, 83160, Note_on_c, 0, 39, 40
3, 83340, Note_on_c, 0, 78, 0
3, 83340, Note_on_c, 0, 58, 62
3, 83340, Note_on_c, 0, 54, 12
3, 83340, Note_on_c, 0, 46, 47
3, 83520, Note_on_c, 0, 46, 0
3, 83520, Note_on_c, 0, 58, 0
3, 83520, Note_on_c, 0, 60, 77
3, 83520, Note_on_c, 0, 48, 50
3, 83700, Note_on_c, 0, 48, 0
3, 83700, Note_on_c, 0, 39, 0
3, 83700, Note_on_c, 0, 54, 0
3, 83700, Note_on_c, 0, 60, 0
3, 83700, Note_on_c, 0, 62, 77
3, 83700, Note_on_c, 0, 57, 17
3, 83700, Note_on_c, 0, 50, 58
3, 83700, Note_on_c, 0, 41, 39
3, 83880, Note_on_c, 0, 50, 0
3, 83880, Note_on_c, 0, 62, 0
3, 83880, Note_on_c, 0, 63, 75
3, 83880, Note_on_c, 0, 51, 53
3, 84060, Note_on_c, 0, 51, 0
3, 84060, Note_on_c, 0, 63, 0
3, 84060, Note_on_c, 0, 62, 71
3, 84060, Note_on_c, 0, 50, 51
3, 84240, Note_on_c, 0, 50, 0
3, 84240, Note_on_c, 0, 62, 0
3, 84240, Note_on_c, 0, 41, 0
3, 84240, Note_on_c, 0, 61, 71
3, 84240, Note_on_c, 0, 49, 48
3, 84240, Note_on_c, 0, 42, 36
3, 84420, Note_on_c, 0, 42, 0
3, 84420, Note_on_c, 0, 57, 0
3, 84420, Note_on_c, 0, 61, 0
3, 84420, Note_on_c, 0, 49, 0
3, 84420, Note_on_c, 0, 49, 55
3, 84420, Note_on_c, 0, 54, 55
3, 84420, Note_on_c, 0, 57, 55
3, 84479, Note_on_c, 0, 66, 65
3, 84509, Note_on_c, 0, 57, 0
3, 84509, Note_on_c, 0, 49, 0
3, 84509, Note_on_c, 0, 54, 0
3, 84540, Note_on_c, 0, 66, 0
3, 84540, Note_on_c, 0, 68, 77
3, 84600, Note_on_c, 0, 68, 0
3, 84600, Note_on_c, 0, 69, 75
3, 84600, Note_on_c, 0, 49, 49
3, 84600, Note_on_c, 0, 54, 49
3, 84600, Note_on_c, 0, 57, 49
3, 84659, Note_on_c, 0, 69, 0
3, 84659, Note_on_c, 0, 71, 81
3, 84689, Note_on_c, 0, 49, 0
3, 84689, Note_on_c, 0, 57, 0
3, 84689, Note_on_c, 0, 54, 0
3, 84720, Note_on_c, 0, 71, 0
3, 84720, Note_on_c, 0, 73, 78
3, 84780, Note_on_c, 0, 73, 0
3, 84780, Note_on_c, 0, 74, 101
3, 84780, Note_on_c, 0, 42, 46
3, 84839, Note_on_c, 0, 74, 0
3, 84839, Note_on_c, 0, 75, 72
3, 84869, Note_on_c, 0, 42, 0
3, 84900, Note_on_c, 0, 75, 0
3, 84900, Note_on_c, 0, 74, 70
3, 84960, Note_on_c, 0, 74, 0
3, 84960, Note_on_c, 0, 75, 79
3, 84960, Note_on_c, 0, 50, 70
3, 84960, Note_on_c, 0, 57, 70
3, 84960, Note_on_c, 0, 60, 70
3, 85019, Note_on_c, 0, 75, 0
3, 85019, Note_on_c, 0, 74, 75
3, 85049, Note_on_c, 0, 50, 0
3, 85049, Note_on_c, 0, 60, 0
3, 85049, Note_on_c, 0, 57, 0
3, 85080, Note_on_c, 0, 74, 0
3, 85080, Note_on_c, 0, 75, 78
3, 85140, Note_on_c, 0, 75, 0
3, 85140, Note_on_c, 0, 74, 74
3, 85140, Note_on_c, 0, 50, 50
3, 85140, Note_on_c, 0, 57, 50
3, 85140, Note_on_c, 0, 60, 50
3, 85185, Note_on_c, 0, 74, 0
3, 85185, Note_on_c, 0, 75, 81
3, 85229, Note_on_c, 0, 50, 0
3, 85229, Note_on_c, 0, 60, 0
3, 85229, Note_on_c, 0, 57, 0
3, 85230, Note_on_c, 0, 75, 0
3, 85230, Note_on_c, 0, 74, 67
3, 85275, Note_on_c, 0, 74, 0
3, 85275, Note_on_c, 0, 75, 76
3, 85320, Note_on_c, 0, 75, 0
3, 85320, Note_on_c, 0, 74, 68
3, 85320, Note_on_c, 0, 35, 43
3, 85320, Note_on_c, 0, 47, 43
3, 85379, Note_on_c, 0, 74, 0
3, 85409, Note_on_c, 0, 47, 0
3, 85409, Note_on_c, 0, 35, 0
3, 85440, Note_on_c, 0, 62, 49
3, 85500, Note_on_c, 0, 62, 0
3, 85500, Note_on_c, 0, 63, 72
3, 85500, Note_on_c, 0, 54, 60
3, 85500, Note_on_c, 0, 59, 60
3, 85559, Note_on_c, 0, 63, 0
3, 85559, Note_on_c, 0, 62, 70
3, 85589, Note_on_c, 0, 59, 0
3, 85589, Note_on_c, 0, 54, 0
3, 85620, Note_on_c, 0, 62, 0
3, 85620, Note_on_c, 0, 61, 65
3, 85680, Note_on_c, 0, 61, 0
3, 85680, Note_on_c, 0, 62, 72
3, 85680, Note_on_c, 0, 54, 53
3, 85680, Note_on_c, 0, 59, 53
3, 85739, Note_on_c, 0, 62, 0
3, 85739, Note_on_c, 0, 63, 78
3, 85769, Note_on_c, 0, 59, 0
3, 85769, Note_on_c, 0, 54, 0
3, 85800, Note_on_c, 0, 63, 0
3, 85800, Note_on_c, 0, 62, 67
3, 85860, Note_on_c, 0, 62, 0
3, 85860, Note_on_c, 0, 61, 71
3, 85860, Note_on_c, 0, 39, 42
3, 85919, Note_on_c, 0, 61, 0
3, 85919, Note_on_c, 0, 62, 76
3, 85949, Note_on_c, 0, 39, 0
3, 85980, Note_on_c, 0, 62, 0
3, 85980, Note_on_c, 0, 63, 77
3, 86040, Note_on_c, 0, 63, 0
3, 86040, Note_on_c, 0, 62, 70
3, 86040, Note_on_c, 0, 54, 62
3, 86040, Note_on_c, 0, 58, 62
3, 86099, Note_on_c, 0, 62, 0
3, 86099, Note_on_c, 0, 61, 69
3, 86129, Note_on_c, 0, 58, 0
3, 86129, Note_on_c, 0, 54, 0
3, 86160, Note_on_c, 0, 61, 0
3, 86160, Note_on_c, 0, 62, 77
3, 86220, Note_on_c, 0, 62, 0
3, 86220, Note_on_c, 0, 63, 82
3, 86220, Note_on_c, 0, 54, 52
3, 86220, Note_on_c, 0, 58, 52
3, 86279, Note_on_c, 0, 63, 0
3, 86279, Note_on_c, 0, 62, 67
3, 86309, Note_on_c, 0, 58, 0
3, 86309, Note_on_c, 0, 54, 0
3, 86340, Note_on_c, 0, 62, 0
3, 86340, Note_on_c, 0, 61, 66
3, 86400, Note_on_c, 0, 61, 0
3, 86400, Note_on_c, 0, 62, 76
3, 86400, Note_on_c, 0, 42, 40
3, 86459, Note_on_c, 0, 62, 0
3, 86459, Note_on_c, 0, 63, 77
3, 86520, Note_on_c, 0, 63, 0
3, 86520, Note_on_c, 0, 62, 68
3, 86580, Note_on_c, 0, 62, 0
3, 86580, Note_on_c, 0, 42, 0
3, 86580, Note_on_c, 0, 61, 67
3, 86580, Note_on_c, 0, 54, 60
3, 86580, Note_on_c, 0, 57, 60
3, 86639, Note_on_c, 0, 61, 0
3, 86639, Note_on_c, 0, 62, 75
3, 86669, Note_on_c, 0, 57, 0
3, 86669, Note_on_c, 0, 54, 0
3, 86700, Note_on_c, 0, 62, 0
3, 86700, Note_on_c, 0, 63, 77
3, 86760, Note_on_c, 0, 63, 0
3, 86760, Note_on_c, 0, 62, 72
3, 86760, Note_on_c, 0, 54, 51
3, 86760, Note_on_c, 0, 57, 51
3, 86819, Note_on_c, 0, 62, 0
3, 86819, Note_on_c, 0, 61, 70
3, 86849, Note_on_c, 0, 57, 0
3, 86849, Note_on_c, 0, 54, 0
3, 86880, Note_on_c, 0, 61, 0
3, 86880, Note_on_c, 0, 62, 76
3, 86940, Note_on_c, 0, 62, 0
3, 86940, Note_on_c, 0, 63, 73
3, 86940, Note_on_c, 0, 44, 37
3, 86999, Note_on_c, 0, 63, 0
3, 86999, Note_on_c, 0, 62, 71
3, 87029, Note_on_c, 0, 44, 0
3, 87060, Note_on_c, 0, 62, 0
3, 87060, Note_on_c, 0, 61, 68
3, 87120, Note_on_c, 0, 61, 0
3, 87120, Note_on_c, 0, 56, 68
3, 87120, Note_on_c, 0, 60, 68
3, 87179, Note_on_c, 0, 61, 62
3, 87209, Note_on_c, 0, 60, 0
3, 87209, Note_on_c, 0, 56, 0
3, 87240, Note_on_c, 0, 61, 0
3, 87240, Note_on_c, 0, 62, 59
3, 87300, Note_on_c, 0, 62, 0
3, 87300, Note_on_c, 0, 63, 56
3, 87300, Note_on_c, 0, 57, 56
3, 87300, Note_on_c, 0, 61, 56
3, 87359, Note_on_c, 0, 63, 0
3, 87359, Note_on_c, 0, 62, 54
3, 87389, Note_on_c, 0, 61, 0
3, 87389, Note_on_c, 0, 57, 0
3, 87420, Note_on_c, 0, 62, 0
3, 87420, Note_on_c, 0, 61, 51
3, 87480, Note_on_c, 0, 61, 0
3, 87480, Note_on_c, 0, 62, 54
3, 87660, Note_on_c, 0, 62, 0
3, 88020, Note_on_c, 0, 63, 50
3, 88020, Note_on_c, 0, 66, 50
3, 88020, Note_on_c, 0, 60, 67
3, 88200, Note_on_c, 0, 60, 0
3, 88200, Note_on_c, 0, 66, 0
3, 88200, Note_on_c, 0, 63, 0
3, 88200, Note_on_c, 0, 66, 56
3, 88200, Note_on_c, 0, 70, 56
3, 88200, Note_on_c, 0, 63, 52
3, 88289, Note_on_c, 0, 63, 0
3, 88289, Note_on_c, 0, 70, 0
3, 88289, Note_on_c, 0, 66, 0
3, 88560, Note_on_c, 0, 60, 66
3, 88560, Note_on_c, 0, 63, 66
3, 88560, Note_on_c, 0, 67, 66
3, 88560, Note_on_c, 0, 58, 66
3, 88740, Note_on_c, 0, 58, 0
3, 88740, Note_on_c, 0, 60, 0
3, 88740, Note_on_c, 0, 63, 0
3, 88740, Note_on_c, 0, 67, 0
3, 88740, Note_on_c, 0, 67, 71
3, 88740, Note_on_c, 0, 72, 71
3, 88740, Note_on_c, 0, 63, 54
3, 88829, Note_on_c, 0, 63, 0
3, 88829, Note_on_c, 0, 72, 0
3, 88829, Note_on_c, 0, 67, 0
3, 89100, Note_on_c, 0, 62, 105
3, 89100, Note_on_c, 0, 66, 105
3, 89100, Note_on_c, 0, 57, 107
3, 89100, Note_on_c, 0, 60, 107
3, 89280, Note_on_c, 0, 60, 0
3, 89280, Note_on_c, 0, 62, 0
3, 89280, Note_on_c, 0, 66, 0
3, 89280, Note_on_c, 0, 57, 0
3, 89280, Note_on_c, 0, 69, 107
3, 89280, Note_on_c, 0, 72, 107
3, 89280, Note_on_c, 0, 74, 107
3, 89280, Note_on_c, 0, 62, 99
3, 89280, Note_on_c, 0, 66, 99
3, 89369, Note_on_c, 0, 66, 0
3, 89369, Note_on_c, 0, 74, 0
3, 89369, Note_on_c, 0, 69, 0
3, 89369, Note_on_c, 0, 72, 0
3, 89369, Note_on_c, 0, 62, 0
3, 89640, Note_on_c, 0, 74, 103
3, 89820, Note_on_c, 0, 74, 0
3, 89820, Note_on_c, 0, 75, 93
3, 89879, Note_on_c, 0, 75, 0
3, 89879, Note_on_c, 0, 74, 84
3, 89940, Note_on_c, 0, 74, 0
3, 89940, Note_on_c, 0, 75, 94
3, 90000, Note_on_c, 0, 75, 0
3, 90000, Note_on_c, 0, 74, 81
3, 90045, Note_on_c, 0, 74, 0
3, 90045, Note_on_c, 0, 75, 90
3, 90090, Note_on_c, 0, 75, 0
3, 90090, Note_on_c, 0, 74, 77
3, 90135, Note_on_c, 0, 74, 0
3, 90135, Note_on_c, 0, 75, 94
3, 90180, Note_on_c, 0, 75, 0
3, 90180, Note_on_c, 0, 48, 55
3, 90229, Note_on_c, 0, 74, 88
3, 90269, Note_on_c, 0, 74, 0
3, 90269, Note_on_c, 0, 48, 0
3, 90276, Note_on_c, 0, 75, 72
3, 90312, Note_on_c, 0, 75, 0
3, 90321, Note_on_c, 0, 74, 79
3, 90356, Note_on_c, 0, 74, 0
3, 90360, Note_on_c, 0, 55, 80
3, 90360, Note_on_c, 0, 58, 80
3, 90360, Note_on_c, 0, 63, 80
3, 90364, Note_on_c, 0, 75, 74
3, 90398, Note_on_c, 0, 75, 0
3, 90407, Note_on_c, 0, 74, 86
3, 90440, Note_on_c, 0, 74, 0
3, 90447, Note_on_c, 0, 75, 78
3, 90449, Note_on_c, 0, 63, 0
3, 90449, Note_on_c, 0, 55, 0
3, 90449, Note_on_c, 0, 58, 0
3, 90480, Note_on_c, 0, 75, 0
3, 90487, Note_on_c, 0, 74, 83
3, 90518, Note_on_c, 0, 74, 0
3, 90527, Note_on_c, 0, 75, 77
3, 90540, Note_on_c, 0, 55, 64
3, 90540, Note_on_c, 0, 58, 64
3, 90540, Note_on_c, 0, 63, 64
3, 90560, Note_on_c, 0, 75, 0
3, 90571, Note_on_c, 0, 74, 82
3, 90605, Note_on_c, 0, 74, 0
3, 90616, Note_on_c, 0, 75, 81
3, 90629, Note_on_c, 0, 63, 0
3, 90629, Note_on_c, 0, 55, 0
3, 90629, Note_on_c, 0, 58, 0
3, 90651, Note_on_c, 0, 75, 0
3, 90662, Note_on_c, 0, 74, 77
3, 90699, Note_on_c, 0, 74, 0
3, 90710, Note_on_c, 0, 75, 76
3, 90720, Note_on_c, 0, 75, 0
3, 90720, Note_on_c, 0, 47, 50
3, 90769, Note_on_c, 0, 74, 97
3, 90809, Note_on_c, 0, 74, 0
3, 90809, Note_on_c, 0, 47, 0
3, 90816, Note_on_c, 0, 75, 77
3, 90852, Note_on_c, 0, 75, 0
3, 90861, Note_on_c, 0, 74, 86
3, 90896, Note_on_c, 0, 74, 0
3, 90900, Note_on_c, 0, 56, 81
3, 90900, Note_on_c, 0, 62, 81
3, 90900, Note_on_c, 0, 64, 81
3, 90904, Note_on_c, 0, 75, 83
3, 90938, Note_on_c, 0, 75, 0
3, 90947, Note_on_c, 0, 74, 91
3, 90980, Note_on_c, 0, 74, 0
3, 90987, Note_on_c, 0, 75, 83
3, 90989, Note_on_c, 0, 64, 0
3, 90989, Note_on_c, 0, 56, 0
3, 90989, Note_on_c, 0, 62, 0
3, 91020, Note_on_c, 0, 75, 0
3, 91027, Note_on_c, 0, 74, 85
3, 91058, Note_on_c, 0, 74, 0
3, 91067, Note_on_c, 0, 75, 80
3, 91080, Note_on_c, 0, 56, 68
3, 91080, Note_on_c, 0, 62, 68
3, 91080, Note_on_c, 0, 64, 68
3, 91100, Note_on_c, 0, 75, 0
3, 91111, Note_on_c, 0, 74, 82
3, 91145, Note_on_c, 0, 74, 0
3, 91156, Note_on_c, 0, 75, 78
3, 91169, Note_on_c, 0, 64, 0
3, 91169, Note_on_c, 0, 56, 0
3, 91169, Note_on_c, 0, 62, 0
3, 91191, Note_on_c, 0, 75, 0
3, 91202, Note_on_c, 0, 74, 85
3, 91239, Note_on_c, 0, 74, 0
3, 91250, Note_on_c, 0, 75, 83
3, 91260, Note_on_c, 0, 74, 85
3, 91260, Note_on_c, 0, 46, 49
3, 91288, Note_on_c, 0, 75, 0
3, 91319, Note_on_c, 0, 74, 0
3, 91319, Note_on_c, 0, 75, 89
3, 91349, Note_on_c, 0, 46, 0
3, 91380, Note_on_c, 0, 75, 0
3, 91380, Note_on_c, 0, 74, 84
3, 91440, Note_on_c, 0, 74, 0
3, 91440, Note_on_c, 0, 75, 92
3, 91440, Note_on_c, 0, 56, 80
3, 91440, Note_on_c, 0, 62, 80
3, 91440, Note_on_c, 0, 65, 80
3, 91499, Note_on_c, 0, 75, 0
3, 91499, Note_on_c, 0, 74, 81
3, 91529, Note_on_c, 0, 56, 0
3, 91529, Note_on_c, 0, 65, 0
3, 91529, Note_on_c, 0, 62, 0
3, 91560, Note_on_c, 0, 74, 0
3, 91560, Note_on_c, 0, 75, 92
3, 91620, Note_on_c, 0, 75, 0
3, 91620, Note_on_c, 0, 74, 82
3, 91620, Note_on_c, 0, 56, 69
3, 91620, Note_on_c, 0, 62, 69
3, 91620, Note_on_c, 0, 65, 69
3, 91709, Note_on_c, 0, 65, 0
3, 91709, Note_on_c, 0, 62, 0
3, 91709, Note_on_c, 0, 56, 0
3, 91800, Note_on_c, 0, 74, 0
3, 91859, Note_on_c, 0, 62, 54
3, 91920, Note_on_c, 0, 62, 0
3, 91920, Note_on_c, 0, 63, 63
3, 91980, Note_on_c, 0, 63, 0
3, 91980, Note_on_c, 0, 66, 62
3, 92039, Note_on_c, 0, 66, 0
3, 92039, Note_on_c, 0, 64, 58
3, 92100, Note_on_c, 0, 64, 0
3, 92100, Note_on_c, 0, 63, 53
3, 92160, Note_on_c, 0, 63, 0
3, 92160, Note_on_c, 0, 64, 60
3, 92219, Note_on_c, 0, 64, 0
3, 92219, Note_on_c, 0, 63, 64
3, 92280, Note_on_c, 0, 63, 0
3, 92280, Note_on_c, 0, 64, 63
3, 92340, Note_on_c, 0, 64, 0
3, 92340, Note_on_c, 0, 66, 66
3, 92399, Note_on_c, 0, 66, 0
3, 92399, Note_on_c, 0, 68, 65
3, 92460, Note_on_c, 0, 68, 0
3, 92460, Note_on_c, 0, 69, 62
3, 92520, Note_on_c, 0, 69, 0
3, 92520, Note_on_c, 0, 71, 62
3, 92579, Note_on_c, 0, 71, 0
3, 92579, Note_on_c, 0, 70, 59
3, 92640, Note_on_c, 0, 70, 0
3, 92640, Note_on_c, 0, 69, 54
3, 92700, Note_on_c, 0, 69, 0
3, 92700, Note_on_c, 0, 70, 63
3, 92759, Note_on_c, 0, 70, 0
3, 92759, Note_on_c, 0, 71, 68
3, 92820, Note_on_c, 0, 71, 0
3, 92820, Note_on_c, 0, 72, 63
3, 92880, Note_on_c, 0, 72, 0
3, 92880, Note_on_c, 0, 74, 63
3, 92939, Note_on_c, 0, 74, 0
3, 92939, Note_on_c, 0, 73, 57
3, 93000, Note_on_c, 0, 73, 0
3, 93000, Note_on_c, 0, 72, 56
3, 93060, Note_on_c, 0, 72, 0
3, 93060, Note_on_c, 0, 73, 70
3, 93119, Note_on_c, 0, 73, 0
3, 93119, Note_on_c, 0, 74, 64
3, 93180, Note_on_c, 0, 74, 0
3, 93180, Note_on_c, 0, 75, 69
3, 93240, Note_on_c, 0, 75, 0
3, 93240, Note_on_c, 0, 78, 69
3, 93299, Note_on_c, 0, 78, 0
3, 93299, Note_on_c, 0, 76, 55
3, 93360, Note_on_c, 0, 76, 0
3, 93360, Note_on_c, 0, 75, 56
3, 93420, Note_on_c, 0, 75, 0
3, 93420, Note_on_c, 0, 76, 62
3, 93479, Note_on_c, 0, 76, 0
3, 93479, Note_on_c, 0, 78, 64
3, 93540, Note_on_c, 0, 78, 0
3, 93540, Note_on_c, 0, 79, 64
3, 93600, Note_on_c, 0, 79, 0
3, 93600, Note_on_c, 0, 81, 64
3, 93659, Note_on_c, 0, 81, 0
3, 93659, Note_on_c, 0, 80, 57
3, 93720, Note_on_c, 0, 80, 0
3, 93720, Note_on_c, 0, 79, 54
3, 93780, Note_on_c, 0, 79, 0
3, 93780, Note_on_c, 0, 80, 63
3, 93839, Note_on_c, 0, 80, 0
3, 93839, Note_on_c, 0, 81, 64
3, 93900, Note_on_c, 0, 81, 0
3, 93900, Note_on_c, 0, 82, 63
3, 93960, Note_on_c, 0, 82, 0
3, 93960, Note_on_c, 0, 83, 57
3, 94019, Note_on_c, 0, 83, 0
3, 94019, Note_on_c, 0, 82, 56
3, 94080, Note_on_c, 0, 82, 0
3, 94080, Note_on_c, 0, 81, 59
3, 94140, Note_on_c, 0, 81, 0
3, 94140, Note_on_c, 0, 80, 54
3, 94199, Note_on_c, 0, 80, 0
3, 94199, Note_on_c, 0, 76, 52
3, 94260, Note_on_c, 0, 76, 0
3, 94260, Note_on_c, 0, 75, 58
3, 94320, Note_on_c, 0, 75, 0
3, 94320, Note_on_c, 0, 74, 55
3, 94379, Note_on_c, 0, 74, 0
3, 94379, Note_on_c, 0, 73, 58
3, 94440, Note_on_c, 0, 73, 0
3, 94440, Note_on_c, 0, 74, 66
3, 94500, Note_on_c, 0, 74, 0
3, 94500, Note_on_c, 0, 75, 62
3, 94680, Note_on_c, 0, 75, 0
3, 94680, Note_on_c, 0, 62, 44
3, 94739, Note_on_c, 0, 62, 0
3, 94739, Note_on_c, 0, 63, 62
3, 94800, Note_on_c, 0, 63, 0
3, 94800, Note_on_c, 0, 67, 69
3, 94860, Note_on_c, 0, 67, 0
3, 94860, Note_on_c, 0, 70, 67
3, 94919, Note_on_c, 0, 70, 0
3, 94919, Note_on_c, 0, 71, 64
3, 94980, Note_on_c, 0, 71, 0
3, 94980, Note_on_c, 0, 74, 67
3, 95040, Note_on_c, 0, 74, 0
3, 95040, Note_on_c, 0, 75, 63
3, 95099, Note_on_c, 0, 75, 0
3, 95099, Note_on_c, 0, 76, 63
3, 95160, Note_on_c, 0, 76, 0
3, 95160, Note_on_c, 0, 75, 59
3, 95220, Note_on_c, 0, 75, 0
3, 95220, Note_on_c, 0, 74, 56
3, 95279, Note_on_c, 0, 74, 0
3, 95279, Note_on_c, 0, 75, 62
3, 95340, Note_on_c, 0, 75, 0
3, 95340, Note_on_c, 0, 79, 68
3, 95400, Note_on_c, 0, 79, 0
3, 95400, Note_on_c, 0, 80, 65
3, 95459, Note_on_c, 0, 80, 0
3, 95459, Note_on_c, 0, 83, 69
3, 95520, Note_on_c, 0, 83, 0
3, 95520, Note_on_c, 0, 86, 69
3, 95580, Note_on_c, 0, 86, 0
3, 95580, Note_on_c, 0, 87, 89
3, 95639, Note_on_c, 0, 87, 0
3, 95639, Note_on_c, 0, 88, 65
3, 95700, Note_on_c, 0, 88, 0
3, 95700, Note_on_c, 0, 87, 62
3, 95760, Note_on_c, 0, 87, 0
3, 95760, Note_on_c, 0, 88, 64
3, 95819, Note_on_c, 0, 88, 0
3, 95819, Note_on_c, 0, 87, 53
3, 95880, Note_on_c, 0, 87, 0
3, 95880, Note_on_c, 0, 88, 63
3, 95940, Note_on_c, 0, 88, 0
3, 95940, Note_on_c, 0, 87, 61
3, 95999, Note_on_c, 0, 87, 0
3, 95999, Note_on_c, 0, 88, 66
3, 96060, Note_on_c, 0, 88, 0
3, 96060, Note_on_c, 0, 87, 59
3, 96120, Note_on_c, 0, 87, 0
3, 96300, Note_on_c, 0, 70, 54
3, 96359, Note_on_c, 0, 70, 0
3, 96359, Note_on_c, 0, 71, 63
3, 96420, Note_on_c, 0, 71, 0
3, 96420, Note_on_c, 0, 72, 66
3, 96480, Note_on_c, 0, 72, 0
3, 96480, Note_on_c, 0, 73, 63
3, 96539, Note_on_c, 0, 73, 0
3, 96539, Note_on_c, 0, 70, 56
3, 96600, Note_on_c, 0, 70, 0
3, 96600, Note_on_c, 0, 72, 64
3, 96660, Note_on_c, 0, 72, 0
3, 96660, Note_on_c, 0, 73, 69
3, 96719, Note_on_c, 0, 73, 0
3, 96719, Note_on_c, 0, 74, 63
3, 96780, Note_on_c, 0, 74, 0
3, 96780, Note_on_c, 0, 75, 68
3, 96840, Note_on_c, 0, 75, 0
3, 96840, Note_on_c, 0, 78, 70
3, 96899, Note_on_c, 0, 78, 0
3, 96899, Note_on_c, 0, 76, 53
3, 96960, Note_on_c, 0, 76, 0
3, 96960, Note_on_c, 0, 75, 57
3, 97020, Note_on_c, 0, 75, 0
3, 97020, Note_on_c, 0, 76, 63
3, 97079, Note_on_c, 0, 76, 0
3, 97079, Note_on_c, 0, 78, 66
3, 97140, Note_on_c, 0, 78, 0
3, 97140, Note_on_c, 0, 79, 63
3, 97200, Note_on_c, 0, 79, 0
3, 97200, Note_on_c, 0, 80, 68
3, 97259, Note_on_c, 0, 80, 0
3, 97259, Note_on_c, 0, 81, 63
3, 97320, Note_on_c, 0, 81, 0
3, 97320, Note_on_c, 0, 82, 64
3, 97380, Note_on_c, 0, 82, 0
3, 97380, Note_on_c, 0, 83, 63
3, 97439, Note_on_c, 0, 83, 0
3, 97439, Note_on_c, 0, 82, 55
3, 97500, Note_on_c, 0, 82, 0
3, 97500, Note_on_c, 0, 81, 56
3, 97560, Note_on_c, 0, 81, 0
3, 97560, Note_on_c, 0, 80, 51
3, 97619, Note_on_c, 0, 80, 0
3, 97619, Note_on_c, 0, 83, 68
3, 97680, Note_on_c, 0, 83, 0
3, 97680, Note_on_c, 0, 84, 67
3, 97740, Note_on_c, 0, 84, 0
3, 97740, Note_on_c, 0, 85, 45
3, 97799, Note_on_c, 0, 85, 0
3, 97799, Note_on_c, 0, 86, 63
3, 97860, Note_on_c, 0, 86, 0
3, 97860, Note_on_c, 0, 87, 63
3, 97920, Note_on_c, 0, 87, 0
3, 97920, Note_on_c, 0, 90, 65
3, 97979, Note_on_c, 0, 90, 0
3, 97979, Note_on_c, 0, 88, 57
3, 98040, Note_on_c, 0, 88, 0
3, 98040, Note_on_c, 0, 87, 53
3, 98100, Note_on_c, 0, 87, 0
3, 98100, Note_on_c, 0, 88, 60
3, 98159, Note_on_c, 0, 88, 0
3, 98159, Note_on_c, 0, 90, 66
3, 98220, Note_on_c, 0, 90, 0
3, 98220, Note_on_c, 0, 91, 66
3, 98280, Note_on_c, 0, 91, 0
3, 98280, Note_on_c, 0, 95, 69
3, 98339, Note_on_c, 0, 95, 0
3, 98339, Note_on_c, 0, 94, 59
3, 98400, Note_on_c, 0, 94, 0
3, 98400, Note_on_c, 0, 93, 60
3, 98460, Note_on_c, 0, 93, 0
3, 98460, Note_on_c, 0, 94, 64
3, 98519, Note_on_c, 0, 94, 0
3, 98519, Note_on_c, 0, 91, 56
3, 98580, Note_on_c, 0, 91, 0
3, 98580, Note_on_c, 0, 88, 48
3, 98640, Note_on_c, 0, 88, 0
3, 98640, Note_on_c, 0, 87, 53
3, 98640, Note_on_c, 0, 79, 52
3, 98699, Note_on_c, 0, 79, 0
3, 98699, Note_on_c, 0, 80, 61
3, 98760, Note_on_c, 0, 80, 0
3, 98760, Note_on_c, 0, 81, 65
3, 98820, Note_on_c, 0, 81, 0
3, 98820, Note_on_c, 0, 87, 0
3, 98820, Note_on_c, 0, 83, 94
3, 98879, Note_on_c, 0, 83, 0
3, 98879, Note_on_c, 0, 82, 60
3, 98940, Note_on_c, 0, 82, 0
3, 98940, Note_on_c, 0, 81, 61
3, 99000, Note_on_c, 0, 81, 0
3, 99000, Note_on_c, 0, 82, 63
3, 99059, Note_on_c, 0, 82, 0
3, 99059, Note_on_c, 0, 79, 60
3, 99120, Note_on_c, 0, 79, 0
3, 99120, Note_on_c, 0, 76, 53
3, 99180, Note_on_c, 0, 76, 0
3, 99180, Note_on_c, 0, 75, 54
3, 99239, Note_on_c, 0, 75, 0
3, 99239, Note_on_c, 0, 79, 66
3, 99300, Note_on_c, 0, 79, 0
3, 99300, Note_on_c, 0, 82, 68
3, 99360, Note_on_c, 0, 82, 0
3, 99360, Note_on_c, 0, 85, 87
3, 99419, Note_on_c, 0, 85, 0
3, 99419, Note_on_c, 0, 83, 57
3, 99480, Note_on_c, 0, 83, 0
3, 99480, Note_on_c, 0, 82, 51
3, 99540, Note_on_c, 0, 82, 0
3, 99540, Note_on_c, 0, 83, 62
3, 99599, Note_on_c, 0, 83, 0
3, 99599, Note_on_c, 0, 75, 48
3, 99660, Note_on_c, 0, 75, 0
3, 99660, Note_on_c, 0, 79, 62
3, 99720, Note_on_c, 0, 79, 0
3, 99720, Note_on_c, 0, 83, 69
3, 99779, Note_on_c, 0, 83, 0
3, 99779, Note_on_c, 0, 85, 64
3, 99840, Note_on_c, 0, 85, 0
3, 99840, Note_on_c, 0, 86, 61
3, 99900, Note_on_c, 0, 86, 0
3, 99900, Note_on_c, 0, 87, 89
3, 99959, Note_on_c, 0, 87, 0
3, 99959, Note_on_c, 0, 88, 66
3, 100020, Note_on_c, 0, 88, 0
3, 100020, Note_on_c, 0, 87, 55
3, 100080, Note_on_c, 0, 87, 0
3, 100080, Note_on_c, 0, 86, 58
3, 100080, Note_on_c, 0, 74, 51
3, 100139, Note_on_c, 0, 74, 0
3, 100139, Note_on_c, 0, 86, 0
3, 100139, Note_on_c, 0, 87, 61
3, 100139, Note_on_c, 0, 75, 65
3, 100200, Note_on_c, 0, 75, 0
3, 100200, Note_on_c, 0, 87, 0
3, 100200, Note_on_c, 0, 91, 49
3, 100200, Note_on_c, 0, 79, 68
3, 100260, Note_on_c, 0, 79, 0
3, 100260, Note_on_c, 0, 91, 0
3, 100260, Note_on_c, 0, 94, 65
3, 100260, Note_on_c, 0, 82, 64
3, 100319, Note_on_c, 0, 82, 0
3, 100319, Note_on_c, 0, 94, 0
3, 100319, Note_on_c, 0, 97, 67
3, 100319, Note_on_c, 0, 85, 71
3, 100380, Note_on_c, 0, 85, 0
3, 100380, Note_on_c, 0, 97, 0
3, 100380, Note_on_c, 0, 98, 60
3, 100380, Note_on_c, 0, 86, 62
3, 100440, Note_on_c, 0, 86, 0
3, 100440, Note_on_c, 0, 98, 0
3, 100440, Note_on_c, 0, 100, 92
3, 100440, Note_on_c, 0, 88, 60
3, 100499, Note_on_c, 0, 88, 0
3, 100499, Note_on_c, 0, 100, 0
3, 100499, Note_on_c, 0, 99, 83
3, 100499, Note_on_c, 0, 87, 59
3, 100560, Note_on_c, 0, 87, 0
3, 100560, Note_on_c, 0, 99, 0
3, 100560, Note_on_c, 0, 98, 84
3, 100560, Note_on_c, 0, 86, 56
3, 100620, Note_on_c, 0, 86, 0
3, 100620, Note_on_c, 0, 98, 0
3, 100620, Note_on_c, 0, 99, 96
3, 100620, Note_on_c, 0, 87, 57
3, 100679, Note_on_c, 0, 87, 0
3, 100679, Note_on_c, 0, 99, 0
3, 100679, Note_on_c, 0, 95, 79
3, 100679, Note_on_c, 0, 83, 56
3, 100740, Note_on_c, 0, 83, 0
3, 100740, Note_on_c, 0, 95, 0
3, 100740, Note_on_c, 0, 92, 78
3, 100740, Note_on_c, 0, 80, 50
3, 100800, Note_on_c, 0, 80, 0
3, 100800, Note_on_c, 0, 92, 0
3, 100800, Note_on_c, 0, 87, 68
3, 100800, Note_on_c, 0, 75, 50
3, 100859, Note_on_c, 0, 75, 0
3, 100859, Note_on_c, 0, 79, 66
3, 100920, Note_on_c, 0, 79, 0
3, 100920, Note_on_c, 0, 80, 66
3, 100980, Note_on_c, 0, 80, 0
3, 100980, Note_on_c, 0, 87, 0
3, 100980, Note_on_c, 0, 94, 100
3, 100980, Note_on_c, 0, 82, 68
3, 101039, Note_on_c, 0, 82, 0
3, 101039, Note_on_c, 0, 94, 0
3, 101039, Note_on_c, 0, 95, 98
3, 101039, Note_on_c, 0, 83, 63
3, 101100, Note_on_c, 0, 83, 0
3, 101100, Note_on_c, 0, 95, 0
3, 101100, Note_on_c, 0, 96, 90
3, 101100, Note_on_c, 0, 84, 67
3, 101160, Note_on_c, 0, 84, 0
3, 101160, Note_on_c, 0, 96, 0
3, 101160, Note_on_c, 0, 95, 81
3, 101160, Note_on_c, 0, 83, 51
3, 101219, Note_on_c, 0, 83, 0
3, 101219, Note_on_c, 0, 95, 0
3, 101219, Note_on_c, 0, 91, 81
3, 101219, Note_on_c, 0, 79, 53
3, 101280, Note_on_c, 0, 79, 0
3, 101280, Note_on_c, 0, 91, 0
3, 101280, Note_on_c, 0, 88, 76
3, 101280, Note_on_c, 0, 76, 56
3, 101340, Note_on_c, 0, 76, 0
3, 101340, Note_on_c, 0, 88, 0
3, 101340, Note_on_c, 0, 87, 84
3, 101340, Note_on_c, 0, 75, 55
3, 101399, Note_on_c, 0, 87, 0
3, 101399, Note_on_c, 0, 86, 80
3, 101460, Note_on_c, 0, 86, 0
3, 101460, Note_on_c, 0, 87, 94
3, 101520, Note_on_c, 0, 87, 0
3, 101520, Note_on_c, 0, 75, 0
3, 101520, Note_on_c, 0, 88, 92
3, 101520, Note_on_c, 0, 76, 66
3, 101579, Note_on_c, 0, 76, 0
3, 101579, Note_on_c, 0, 88, 0
3, 101579, Note_on_c, 0, 90, 97
3, 101579, Note_on_c, 0, 78, 64
3, 101640, Note_on_c, 0, 78, 0
3, 101640, Note_on_c, 0, 90, 0
3, 101640, Note_on_c, 0, 91, 91
3, 101640, Note_on_c, 0, 79, 63
3, 101700, Note_on_c, 0, 79, 0
3, 101700, Note_on_c, 0, 91, 0
3, 101700, Note_on_c, 0, 92, 92
3, 101700, Note_on_c, 0, 80, 65
3, 101759, Note_on_c, 0, 80, 0
3, 101759, Note_on_c, 0, 92, 0
3, 101759, Note_on_c, 0, 87, 77
3, 101759, Note_on_c, 0, 75, 51
3, 101820, Note_on_c, 0, 75, 0
3, 101820, Note_on_c, 0, 87, 0
3, 101820, Note_on_c, 0, 83, 74
3, 101820, Note_on_c, 0, 71, 46
3, 101880, Note_on_c, 0, 71, 0
3, 101880, Note_on_c, 0, 83, 0
3, 101880, Note_on_c, 0, 83, 116
3, 101880, Note_on_c, 0, 70, 57
3, 101939, Note_on_c, 0, 70, 0
3, 101939, Note_on_c, 0, 83, 0
3, 101939, Note_on_c, 0, 83, 92
3, 101939, Note_on_c, 0, 71, 63
3, 102000, Note_on_c, 0, 71, 0
3, 102000, Note_on_c, 0, 83, 0
3, 102000, Note_on_c, 0, 85, 97
3, 102000, Note_on_c, 0, 73, 66
3, 102060, Note_on_c, 0, 73, 0
3, 102060, Note_on_c, 0, 85, 0
3, 102060, Note_on_c, 0, 86, 93
3, 102060, Note_on_c, 0, 74, 60
3, 102119, Note_on_c, 0, 74, 0
3, 102119, Note_on_c, 0, 86, 0
3, 102119, Note_on_c, 0, 87, 92
3, 102119, Note_on_c, 0, 75, 63
3, 102180, Note_on_c, 0, 75, 0
3, 102180, Note_on_c, 0, 87, 0
3, 102180, Note_on_c, 0, 88, 94
3, 102180, Note_on_c, 0, 76, 65
3, 102240, Note_on_c, 0, 76, 0
3, 102240, Note_on_c, 0, 88, 0
3, 102240, Note_on_c, 0, 87, 83
3, 102240, Note_on_c, 0, 75, 56
3, 102299, Note_on_c, 0, 87, 0
3, 102299, Note_on_c, 0, 82, 79
3, 102360, Note_on_c, 0, 82, 0
3, 102360, Note_on_c, 0, 78, 77
3, 102420, Note_on_c, 0, 78, 0
3, 102420, Note_on_c, 0, 75, 0
3, 102420, Note_on_c, 0, 84, 101
3, 102420, Note_on_c, 0, 72, 55
3, 102479, Note_on_c, 0, 72, 0
3, 102479, Note_on_c, 0, 84, 0
3, 102479, Note_on_c, 0, 85, 96
3, 102479, Note_on_c, 0, 73, 63
3, 102540, Note_on_c, 0, 73, 0
3, 102540, Note_on_c, 0, 85, 0
3, 102540, Note_on_c, 0, 87, 90
3, 102540, Note_on_c, 0, 75, 63
3, 102600, Note_on_c, 0, 75, 0
3, 102600, Note_on_c, 0, 87, 0
3, 102600, Note_on_c, 0, 85, 84
3, 102600, Note_on_c, 0, 73, 54
3, 102659, Note_on_c, 0, 85, 0
3, 102659, Note_on_c, 0, 81, 78
3, 102720, Note_on_c, 0, 81, 0
3, 102720, Note_on_c, 0, 78, 78
3, 102780, Note_on_c, 0, 78, 0
3, 102780, Note_on_c, 0, 73, 0
3, 102780, Note_on_c, 0, 82, 95
3, 102780, Note_on_c, 0, 70, 55
3, 102839, Note_on_c, 0, 70, 0
3, 102839, Note_on_c, 0, 82, 0
3, 102839, Note_on_c, 0, 83, 92
3, 102839, Note_on_c, 0, 71, 67
3, 102900, Note_on_c, 0, 71, 0
3, 102900, Note_on_c, 0, 83, 0
3, 102900, Note_on_c, 0, 84, 92
3, 102900, Note_on_c, 0, 72, 63
3, 102960, Note_on_c, 0, 72, 0
3, 102960, Note_on_c, 0, 84, 0
3, 102960, Note_on_c, 0, 83, 81
3, 102960, Note_on_c, 0, 71, 61
3, 103019, Note_on_c, 0, 83, 0
3, 103019, Note_on_c, 0, 78, 73
3, 103080, Note_on_c, 0, 78, 0
3, 103080, Note_on_c, 0, 75, 77
3, 103140, Note_on_c, 0, 75, 0
3, 103140, Note_on_c, 0, 71, 0
3, 103140, Note_on_c, 0, 80, 87
3, 103140, Note_on_c, 0, 68, 61
3, 103199, Note_on_c, 0, 68, 0
3, 103199, Note_on_c, 0, 80, 0
3, 103199, Note_on_c, 0, 81, 86
3, 103199, Note_on_c, 0, 69, 59
3, 103260, Note_on_c, 0, 69, 0
3, 103260, Note_on_c, 0, 81, 0
3, 103260, Note_on_c, 0, 83, 84
3, 103260, Note_on_c, 0, 71, 58
3, 103320, Note_on_c, 0, 71, 0
3, 103320, Note_on_c, 0, 83, 0
3, 103320, Note_on_c, 0, 81, 83
3, 103320, Note_on_c, 0, 69, 56
3, 103379, Note_on_c, 0, 81, 0
3, 103379, Note_on_c, 0, 76, 82
3, 103440, Note_on_c, 0, 76, 0
3, 103440, Note_on_c, 0, 73, 80
3, 103500, Note_on_c, 0, 73, 0
3, 103500, Note_on_c, 0, 69, 0
3, 103500, Note_on_c, 0, 76, 79
3, 103500, Note_on_c, 0, 64, 52
3, 103559, Note_on_c, 0, 64, 0
3, 103559, Note_on_c, 0, 76, 0
3, 103559, Note_on_c, 0, 78, 77
3, 103559, Note_on_c, 0, 66, 51
3, 103620, Note_on_c, 0, 66, 0
3, 103620, Note_on_c, 0, 78, 0
3, 103620, Note_on_c, 0, 81, 76
3, 103620, Note_on_c, 0, 69, 49
3, 103680, Note_on_c, 0, 69, 0
3, 103680, Note_on_c, 0, 81, 0
3, 103680, Note_on_c, 0, 79, 75
3, 103680, Note_on_c, 0, 67, 48
3, 103739, Note_on_c, 0, 79, 0
3, 103739, Note_on_c, 0, 75, 73
3, 103800, Note_on_c, 0, 75, 0
3, 103800, Note_on_c, 0, 70, 72
3, 103860, Note_on_c, 0, 70, 0
3, 103860, Note_on_c, 0, 67, 0
3, 103919, Note_on_c, 0, 71, 69
3, 103919, Note_on_c, 0, 59, 42
3, 103980, Note_on_c, 0, 59, 0
3, 103980, Note_on_c, 0, 71, 0
3, 103980, Note_on_c, 0, 72, 68
3, 103980, Note_on_c, 0, 60, 41
3, 104040, Note_on_c, 0, 60, 0
3, 104040, Note_on_c, 0, 72, 0
3, 104040, Note_on_c, 0, 73, 66
3, 104040, Note_on_c, 0, 61, 40
3, 104099, Note_on_c, 0, 61, 0
3, 104099, Note_on_c, 0, 73, 0
3, 104099, Note_on_c, 0, 74, 65
3, 104099, Note_on_c, 0, 62, 38
3, 104160, Note_on_c, 0, 62, 0
3, 104160, Note_on_c, 0, 74, 0
3, 104160, Note_on_c, 0, 75, 63
3, 104160, Note_on_c, 0, 63, 37
3, 104220, Note_on_c, 0, 63, 0
3, 104220, Note_on_c, 0, 75, 0
3, 104220, Note_on_c, 0, 76, 62
3, 104220, Note_on_c, 0, 64, 35
3, 104400, Note_on_c, 0, 64, 0
3, 104400, Note_on_c, 0, 76, 0
3, 104940, Note_on_c, 0, 64, 44
3, 104999, Note_on_c, 0, 64, 0
3, 104999, Note_on_c, 0, 65, 52
3, 105060, Note_on_c, 0, 65, 0
3, 105060, Note_on_c, 0, 66, 55
3, 105120, Note_on_c, 0, 66, 0
3, 105120, Note_on_c, 0, 67, 58
3, 105179, Note_on_c, 0, 67, 0
3, 105179, Note_on_c, 0, 68, 56
3, 105240, Note_on_c, 0, 68, 0
3, 105240, Note_on_c, 0, 70, 54
3, 105300, Note_on_c, 0, 70, 0
3, 105300, Note_on_c, 0, 71, 51
3, 105359, Note_on_c, 0, 71, 0
3, 105359, Note_on_c, 0, 73, 52
3, 105420, Note_on_c, 0, 73, 0
3, 105420, Note_on_c, 0, 74, 55
3, 105480, Note_on_c, 0, 74, 0
3, 105480, Note_on_c, 0, 76, 53
3, 105539, Note_on_c, 0, 76, 0
3, 105539, Note_on_c, 0, 75, 49
3, 105600, Note_on_c, 0, 75, 0
3, 105600, Note_on_c, 0, 74, 51
3, 105660, Note_on_c, 0, 74, 0
3, 105660, Note_on_c, 0, 75, 52
3, 105719, Note_on_c, 0, 75, 0
3, 105719, Note_on_c, 0, 76, 50
3, 105780, Note_on_c, 0, 76, 0
3, 105780, Note_on_c, 0, 77, 57
3, 105840, Note_on_c, 0, 77, 0
3, 105840, Note_on_c, 0, 78, 59
3, 105899, Note_on_c, 0, 78, 0
3, 105899, Note_on_c, 0, 79, 50
3, 105960, Note_on_c, 0, 79, 0
3, 105960, Note_on_c, 0, 80, 55
3, 106020, Note_on_c, 0, 80, 0
3, 106020, Note_on_c, 0, 81, 58
3, 106079, Note_on_c, 0, 81, 0
3, 106079, Note_on_c, 0, 82, 52
3, 106140, Note_on_c, 0, 82, 0
3, 106140, Note_on_c, 0, 83, 51
3, 106200, Note_on_c, 0, 83, 0
3, 106200, Note_on_c, 0, 84, 55
3, 106259, Note_on_c, 0, 84, 0
3, 106259, Note_on_c, 0, 85, 54
3, 106320, Note_on_c, 0, 85, 0
3, 106320, Note_on_c, 0, 86, 53
3, 106380, Note_on_c, 0, 86, 0
3, 106380, Note_on_c, 0, 87, 54
3, 106560, Note_on_c, 0, 87, 0
3, 108000, Note_on_c, 0, 68, 77
3, 108000, Note_on_c, 0, 71, 77
3, 108000, Note_on_c, 0, 56, 76
3, 108000, Note_on_c, 0, 59, 76
3, 108000, Note_on_c, 0, 63, 76
3, 108495, Note_on_c, 0, 63, 0
3, 108495, Note_on_c, 0, 56, 0
3, 108495, Note_on_c, 0, 68, 0
3, 108495, Note_on_c, 0, 71, 0
3, 108495, Note_on_c, 0, 59, 0
3, 108495, Note_on_c, 0, 67, 77
3, 108495, Note_on_c, 0, 72, 77
3, 108495, Note_on_c, 0, 55, 76
3, 108495, Note_on_c, 0, 60, 76
3, 108495, Note_on_c, 0, 64, 76
3, 108540, Note_on_c, 0, 64, 0
3, 108540, Note_on_c, 0, 55, 0
3, 108540, Note_on_c, 0, 67, 0
3, 108540, Note_on_c, 0, 72, 0
3, 108540, Note_on_c, 0, 60, 0
3, 108540, Note_on_c, 0, 68, 51
3, 108540, Note_on_c, 0, 71, 51
3, 108540, Note_on_c, 0, 56, 47
3, 108540, Note_on_c, 0, 59, 47
3, 108540, Note_on_c, 0, 63, 47
3, 108900, Note_on_c, 0, 63, 0
3, 108900, Note_on_c, 0, 56, 0
3, 108900, Note_on_c, 0, 68, 0
3, 108900, Note_on_c, 0, 71, 0
3, 108900, Note_on_c, 0, 59, 0
3, 109080, Note_on_c, 0, 68, 77
3, 109080, Note_on_c, 0, 71, 77
3, 109080, Note_on_c, 0, 56, 76
3, 109080, Note_on_c, 0, 59, 76
3, 109080, Note_on_c, 0, 63, 76
3, 109575, Note_on_c, 0, 63, 0
3, 109575, Note_on_c, 0, 56, 0
3, 109575, Note_on_c, 0, 68, 0
3, 109575, Note_on_c, 0, 71, 0
3, 109575, Note_on_c, 0, 59, 0
3, 109575, Note_on_c, 0, 67, 79
3, 109575, Note_on_c, 0, 72, 79
3, 109575, Note_on_c, 0, 55, 74
3, 109575, Note_on_c, 0, 58, 74
3, 109575, Note_on_c, 0, 64, 74
3, 109620, Note_on_c, 0, 64, 0
3, 109620, Note_on_c, 0, 55, 0
3, 109620, Note_on_c, 0, 67, 0
3, 109620, Note_on_c, 0, 72, 0
3, 109620, Note_on_c, 0, 58, 0
3, 109620, Note_on_c, 0, 68, 73
3, 109620, Note_on_c, 0, 71, 73
3, 109620, Note_on_c, 0, 56, 73
3, 109620, Note_on_c, 0, 59, 73
3, 109620, Note_on_c, 0, 63, 73
3, 110115, Note_on_c, 0, 63, 0
3, 110115, Note_on_c, 0, 56, 0
3, 110115, Note_on_c, 0, 68, 0
3, 110115, Note_on_c, 0, 71, 0
3, 110115, Note_on_c, 0, 59, 0
3, 110115, Note_on_c, 0, 67, 50
3, 110115, Note_on_c, 0, 72, 50
3, 110115, Note_on_c, 0, 55, 50
3, 110115, Note_on_c, 0, 60, 50
3, 110115, Note_on_c, 0, 64, 50
3, 110160, Note_on_c, 0, 64, 0
3, 110160, Note_on_c, 0, 55, 0
3, 110160, Note_on_c, 0, 67, 0
3, 110160, Note_on_c, 0, 72, 0
3, 110160, Note_on_c, 0, 60, 0
3, 110160, Note_on_c, 0, 68, 51
3, 110160, Note_on_c, 0, 71, 51
3, 110160, Note_on_c, 0, 56, 50
3, 110160, Note_on_c, 0, 59, 50
3, 110160, Note_on_c, 0, 63, 50
3, 111420, Note_on_c, 0, 63, 0
3, 111420, Note_on_c, 0, 56, 0
3, 111420, Note_on_c, 0, 68, 0
3, 111420, Note_on_c, 0, 71, 0
3, 111420, Note_on_c, 0, 59, 0
3, 111780, Note_on_c, 0, 40, 54
3, 111869, Note_on_c, 0, 40, 0
3, 111960, Note_on_c, 0, 56, 46
3, 111960, Note_on_c, 0, 59, 46
3, 111960, Note_on_c, 0, 62, 46
3, 112004, Note_on_c, 0, 62, 0
3, 112004, Note_on_c, 0, 59, 0
3, 112004, Note_on_c, 0, 56, 0
3, 112050, Note_on_c, 0, 64, 56
3, 112094, Note_on_c, 0, 64, 0
3, 112140, Note_on_c, 0, 56, 54
3, 112140, Note_on_c, 0, 62, 54
3, 112140, Note_on_c, 0, 65, 54
3, 112229, Note_on_c, 0, 65, 0
3, 112229, Note_on_c, 0, 62, 0
3, 112229, Note_on_c, 0, 56, 0
3, 112320, Note_on_c, 0, 52, 66
3, 112500, Note_on_c, 0, 55, 55
3, 112500, Note_on_c, 0, 60, 55
3, 112500, Note_on_c, 0, 64, 55
3, 112500, Note_on_c, 0, 67, 55
3, 112794, Note_on_c, 0, 52, 0
3, 112817, Note_on_c, 0, 64, 0
3, 112817, Note_on_c, 0, 55, 0
3, 112817, Note_on_c, 0, 60, 0
3, 112817, Note_on_c, 0, 67, 0
3, 112860, Note_on_c, 0, 40, 54
3, 113040, Note_on_c, 0, 40, 0
3, 113040, Note_on_c, 0, 56, 46
3, 113040, Note_on_c, 0, 59, 46
3, 113040, Note_on_c, 0, 62, 46
3, 113084, Note_on_c, 0, 62, 0
3, 113084, Note_on_c, 0, 59, 0
3, 113084, Note_on_c, 0, 56, 0
3, 113130, Note_on_c, 0, 64, 54
3, 113174, Note_on_c, 0, 64, 0
3, 113220, Note_on_c, 0, 62, 60
3, 113220, Note_on_c, 0, 65, 60
3, 113220, Note_on_c, 0, 56, 53
3, 113264, Note_on_c, 0, 65, 0
3, 113264, Note_on_c, 0, 62, 0
3, 113310, Note_on_c, 0, 56, 0
3, 113310, Note_on_c, 0, 64, 47
3, 113310, Note_on_c, 0, 57, 56
3, 113354, Note_on_c, 0, 64, 0
3, 113400, Note_on_c, 0, 57, 0
3, 113400, Note_on_c, 0, 62, 51
3, 113400, Note_on_c, 0, 65, 51
3, 113400, Note_on_c, 0, 48, 74
3, 113400, Note_on_c, 0, 58, 74
3, 113580, Note_on_c, 0, 65, 0
3, 113580, Note_on_c, 0, 62, 0
3, 113580, Note_on_c, 0, 60, 68
3, 113580, Note_on_c, 0, 64, 68
3, 113580, Note_on_c, 0, 67, 68
3, 113874, Note_on_c, 0, 48, 0
3, 113874, Note_on_c, 0, 58, 0
3, 113897, Note_on_c, 0, 64, 0
3, 113897, Note_on_c, 0, 60, 0
3, 113897, Note_on_c, 0, 67, 0
3, 113940, Note_on_c, 0, 40, 50
3, 114029, Note_on_c, 0, 40, 0
3, 114120, Note_on_c, 0, 56, 55
3, 114120, Note_on_c, 0, 62, 55
3, 114120, Note_on_c, 0, 65, 55
3, 114209, Note_on_c, 0, 65, 0
3, 114209, Note_on_c, 0, 62, 0
3, 114209, Note_on_c, 0, 56, 0
3, 114300, Note_on_c, 0, 48, 59
3, 114389, Note_on_c, 0, 48, 0
3, 114480, Note_on_c, 0, 58, 63
3, 114480, Note_on_c, 0, 60, 63
3, 114480, Note_on_c, 0, 64, 63
3, 114480, Note_on_c, 0, 67, 63
3, 114569, Note_on_c, 0, 67, 0
3, 114569, Note_on_c, 0, 58, 0
3, 114569, Note_on_c, 0, 60, 0
3, 114569, Note_on_c, 0, 64, 0
3, 114660, Note_on_c, 0, 60, 67
3, 114749, Note_on_c, 0, 60, 0
3, 114840, Note_on_c, 0, 58, 72
3, 114840, Note_on_c, 0, 64, 72
3, 114840, Note_on_c, 0, 68, 72
3, 114929, Note_on_c, 0, 68, 0
3, 114929, Note_on_c, 0, 64, 0
3, 114929, Note_on_c, 0, 58, 0
3, 115020, Note_on_c, 0, 41, 54
3, 115020, Note_on_c, 0, 48, 54
3, 115020, Note_on_c, 0, 56, 54
3, 115109, Note_on_c, 0, 56, 0
3, 115109, Note_on_c, 0, 48, 0
3, 115109, Note_on_c, 0, 41, 0
3, 115200, Note_on_c, 0, 56, 42
3, 115200, Note_on_c, 0, 60, 42
3, 115200, Note_on_c, 0, 65, 42
3, 115290, Note_on_c, 0, 65, 0
3, 115290, Note_on_c, 0, 60, 0
3, 115290, Note_on_c, 0, 56, 0
3, 115290, Note_on_c, 0, 68, 38
3, 115380, Note_on_c, 0, 68, 0
3, 115380, Note_on_c, 0, 59, 34
3, 115380, Note_on_c, 0, 64, 34
3, 115380, Note_on_c, 0, 67, 34
3, 115380, Note_on_c, 0, 43, 54
3, 115469, Note_on_c, 0, 43, 0
3, 115560, Note_on_c, 0, 59, 0
3, 115560, Note_on_c, 0, 64, 0
3, 115560, Note_on_c, 0, 67, 0
3, 115560, Note_on_c, 0, 40, 72
3, 115560, Note_on_c, 0, 47, 72
3, 115560, Note_on_c, 0, 55, 72
3, 115740, Note_on_c, 0, 55, 0
3, 115740, Note_on_c, 0, 47, 0
3, 115740, Note_on_c, 0, 40, 0
3, 116280, Note_on_c, 0, 67, 47
3, 116280, Note_on_c, 0, 64, 44
3, 116370, Note_on_c, 0, 64, 0
3, 116370, Note_on_c, 0, 67, 0
3, 116370, Note_on_c, 0, 69, 50
3, 116370, Note_on_c, 0, 66, 52
3, 116460, Note_on_c, 0, 66, 0
3, 116460, Note_on_c, 0, 69, 0
3, 116460, Note_on_c, 0, 70, 51
3, 116460, Note_on_c, 0, 67, 49
3, 116550, Note_on_c, 0, 67, 0
3, 116550, Note_on_c, 0, 70, 0
3, 116550, Note_on_c, 0, 71, 51
3, 116550, Note_on_c, 0, 68, 54
3, 116640, Note_on_c, 0, 68, 0
3, 116640, Note_on_c, 0, 71, 0
3, 116640, Note_on_c, 0, 72, 76
3, 116640, Note_on_c, 0, 69, 83
3, 116730, Note_on_c, 0, 69, 0
3, 116730, Note_on_c, 0, 72, 0
3, 116730, Note_on_c, 0, 73, 79
3, 116730, Note_on_c, 0, 70, 79
3, 116820, Note_on_c, 0, 70, 0
3, 116820, Note_on_c, 0, 73, 0
3, 116820, Note_on_c, 0, 75, 90
3, 116820, Note_on_c, 0, 72, 87
3, 117137, Note_on_c, 0, 72, 0
3, 117137, Note_on_c, 0, 75, 0
3, 117360, Note_on_c, 0, 77, 61
3, 117360, Note_on_c, 0, 73, 64
3, 117450, Note_on_c, 0, 73, 0
3, 117450, Note_on_c, 0, 77, 0
3, 117450, Note_on_c, 0, 78, 80
3, 117450, Note_on_c, 0, 75, 75
3, 117540, Note_on_c, 0, 75, 0
3, 117540, Note_on_c, 0, 78, 0
3, 117540, Note_on_c, 0, 80, 88
3, 117540, Note_on_c, 0, 77, 89
3, 117698, Note_on_c, 0, 77, 0
3, 117698, Note_on_c, 0, 80, 0
3, 117720, Note_on_c, 0, 72, 62
3, 117720, Note_on_c, 0, 69, 61
3, 117810, Note_on_c, 0, 69, 0
3, 117810, Note_on_c, 0, 72, 0
3, 117810, Note_on_c, 0, 73, 77
3, 117810, Note_on_c, 0, 70, 72
3, 117900, Note_on_c, 0, 70, 0
3, 117900, Note_on_c, 0, 73, 0
3, 117900, Note_on_c, 0, 75, 89
3, 117900, Note_on_c, 0, 72, 90
3, 118217, Note_on_c, 0, 72, 0
3, 118217, Note_on_c, 0, 75, 0
3, 118440, Note_on_c, 0, 77, 66
3, 118440, Note_on_c, 0, 73, 66
3, 118530, Note_on_c, 0, 73, 0
3, 118530, Note_on_c, 0, 77, 0
3, 118530, Note_on_c, 0, 78, 79
3, 118530, Note_on_c, 0, 75, 79
3, 118620, Note_on_c, 0, 75, 0
3, 118620, Note_on_c, 0, 78, 0
3, 118620, Note_on_c, 0, 80, 89
3, 118620, Note_on_c, 0, 77, 92
3, 118778, Note_on_c, 0, 77, 0
3, 118778, Note_on_c, 0, 80, 0
3, 118800, Note_on_c, 0, 72, 73
3, 118800, Note_on_c, 0, 69, 73
3, 118890, Note_on_c, 0, 69, 0
3, 118890, Note_on_c, 0, 72, 0
3, 118890, Note_on_c, 0, 73, 75
3, 118890, Note_on_c, 0, 70, 75
3, 118980, Note_on_c, 0, 70, 0
3, 118980, Note_on_c, 0, 73, 0
3, 118980, Note_on_c, 0, 75, 78
3, 118980, Note_on_c, 0, 72, 78
3, 119069, Note_on_c, 0, 72, 0
3, 119069, Note_on_c, 0, 75, 0
3, 119160, Note_on_c, 0, 77, 82
3, 119160, Note_on_c, 0, 73, 82
3, 119250, Note_on_c, 0, 73, 0
3, 119250, Note_on_c, 0, 77, 0
3, 119250, Note_on_c, 0, 78, 84
3, 119250, Note_on_c, 0, 75, 84
3, 119340, Note_on_c, 0, 75, 0
3, 119340, Note_on_c, 0, 78, 0
3, 119340, Note_on_c, 0, 80, 86
3, 119340, Note_on_c, 0, 77, 86
3, 119429, Note_on_c, 0, 77, 0
3, 119429, Note_on_c, 0, 80, 0
3, 119520, Note_on_c, 0, 81, 90
3, 119520, Note_on_c, 0, 78, 90
3, 119610, Note_on_c, 0, 78, 0
3, 119610, Note_on_c, 0, 81, 0
3, 119610, Note_on_c, 0, 84, 92
3, 119610, Note_on_c, 0, 80, 92
3, 119700, Note_on_c, 0, 80, 0
3, 119700, Note_on_c, 0, 84, 0
3, 119700, Note_on_c, 0, 81, 94
3, 119700, Note_on_c, 0, 85, 94
3, 119970, Note_on_c, 0, 85, 0
3, 119970, Note_on_c, 0, 81, 0
3, 119970, Note_on_c, 0, 80, 93
3, 119970, Note_on_c, 0, 84, 93
3, 119970, Note_on_c, 0, 72, 93
3, 120060, Note_on_c, 0, 72, 0
3, 120060, Note_on_c, 0, 84, 0
3, 120060, Note_on_c, 0, 80, 0
3, 120060, Note_on_c, 0, 81, 103
3, 120060, Note_on_c, 0, 85, 103
3, 120060, Note_on_c, 0, 73, 101
3, 120150, Note_on_c, 0, 73, 0
3, 120150, Note_on_c, 0, 85, 0
3, 120150, Note_on_c, 0, 81, 0
3, 120150, Note_on_c, 0, 83, 109
3, 120150, Note_on_c, 0, 87, 109
3, 120150, Note_on_c, 0, 75, 106
3, 120240, Note_on_c, 0, 75, 0
3, 120240, Note_on_c, 0, 87, 0
3, 120240, Note_on_c, 0, 83, 0
3, 120240, Note_on_c, 0, 84, 117
3, 120240, Note_on_c, 0, 88, 117
3, 120240, Note_on_c, 0, 76, 117
3, 120398, Note_on_c, 0, 76, 0
3, 120398, Note_on_c, 0, 88, 0
3, 120398, Note_on_c, 0, 84, 0
3, 120420, Note_on_c, 0, 89, 99
3, 120420, Note_on_c, 0, 92, 99
3, 120420, Note_on_c, 0, 80, 99
3, 120510, Note_on_c, 0, 80, 0
3, 120510, Note_on_c, 0, 92, 0
3, 120510, Note_on_c, 0, 89, 0
3, 120510, Note_on_c, 0, 87, 83
3, 120510, Note_on_c, 0, 91, 83
3, 120510, Note_on_c, 0, 79, 84
3, 120600, Note_on_c, 0, 79, 0
3, 120600, Note_on_c, 0, 91, 0
3, 120600, Note_on_c, 0, 87, 0
3, 120600, Note_on_c, 0, 85, 83
3, 120600, Note_on_c, 0, 89, 83
3, 120600, Note_on_c, 0, 77, 82
3, 120870, Note_on_c, 0, 77, 0
3, 120870, Note_on_c, 0, 89, 0
3, 120870, Note_on_c, 0, 85, 0
3, 120870, Note_on_c, 0, 79, 80
3, 120870, Note_on_c, 0, 87, 80
3, 120870, Note_on_c, 0, 75, 85
3, 120960, Note_on_c, 0, 75, 0
3, 120960, Note_on_c, 0, 87, 0
3, 120960, Note_on_c, 0, 79, 0
3, 120960, Note_on_c, 0, 77, 81
3, 120960, Note_on_c, 0, 85, 81
3, 120960, Note_on_c, 0, 73, 79
3, 121230, Note_on_c, 0, 73, 0
3, 121230, Note_on_c, 0, 85, 0
3, 121230, Note_on_c, 0, 77, 0
3, 121230, Note_on_c, 0, 79, 92
3, 121230, Note_on_c, 0, 87, 92
3, 121230, Note_on_c, 0, 75, 91
3, 121320, Note_on_c, 0, 75, 0
3, 121320, Note_on_c, 0, 87, 0
3, 121320, Note_on_c, 0, 79, 0
3, 121320, Note_on_c, 0, 77, 81
3, 121320, Note_on_c, 0, 85, 81
3, 121320, Note_on_c, 0, 73, 85
3, 121500, Note_on_c, 0, 77, 0
3, 121500, Note_on_c, 0, 76, 75
3, 121680, Note_on_c, 0, 76, 0
3, 121680, Note_on_c, 0, 73, 0
3, 121680, Note_on_c, 0, 85, 0
3, 121680, Note_on_c, 0, 80, 80
3, 121680, Note_on_c, 0, 88, 80
3, 121680, Note_on_c, 0, 76, 98
3, 121770, Note_on_c, 0, 76, 0
3, 121770, Note_on_c, 0, 88, 0
3, 121770, Note_on_c, 0, 80, 0
3, 121770, Note_on_c, 0, 79, 72
3, 121770, Note_on_c, 0, 87, 72
3, 121770, Note_on_c, 0, 75, 83
3, 121860, Note_on_c, 0, 75, 0
3, 121860, Note_on_c, 0, 87, 0
3, 121860, Note_on_c, 0, 79, 0
3, 121860, Note_on_c, 0, 76, 69
3, 121860, Note_on_c, 0, 85, 69
3, 121860, Note_on_c, 0, 73, 80
3, 121950, Note_on_c, 0, 73, 0
3, 121950, Note_on_c, 0, 85, 0
3, 121950, Note_on_c, 0, 76, 0
3, 121950, Note_on_c, 0, 75, 65
3, 121950, Note_on_c, 0, 84, 65
3, 121950, Note_on_c, 0, 72, 79
3, 122040, Note_on_c, 0, 72, 0
3, 122040, Note_on_c, 0, 84, 0
3, 122040, Note_on_c, 0, 75, 0
3, 122040, Note_on_c, 0, 73, 64
3, 122040, Note_on_c, 0, 82, 64
3, 122040, Note_on_c, 0, 70, 79
3, 122310, Note_on_c, 0, 70, 0
3, 122310, Note_on_c, 0, 82, 0
3, 122310, Note_on_c, 0, 73, 0
3, 122310, Note_on_c, 0, 75, 80
3, 122310, Note_on_c, 0, 84, 80
3, 122310, Note_on_c, 0, 72, 89
3, 122400, Note_on_c, 0, 72, 0
3, 122400, Note_on_c, 0, 84, 0
3, 122400, Note_on_c, 0, 75, 0
3, 122400, Note_on_c, 0, 73, 70
3, 122400, Note_on_c, 0, 82, 70
3, 122400, Note_on_c, 0, 70, 87
3, 122760, Note_on_c, 0, 70, 0
3, 122760, Note_on_c, 0, 82, 0
3, 122760, Note_on_c, 0, 73, 0
3, 122760, Note_on_c, 0, 77, 73
3, 122760, Note_on_c, 0, 85, 73
3, 122760, Note_on_c, 0, 73, 92
3, 122850, Note_on_c, 0, 73, 0
3, 122850, Note_on_c, 0, 85, 0
3, 122850, Note_on_c, 0, 77, 0
3, 122850, Note_on_c, 0, 75, 71
3, 122850, Note_on_c, 0, 84, 71
3, 122850, Note_on_c, 0, 72, 83
3, 122940, Note_on_c, 0, 72, 0
3, 122940, Note_on_c, 0, 84, 0
3, 122940, Note_on_c, 0, 75, 0
3, 122940, Note_on_c, 0, 73, 68
3, 122940, Note_on_c, 0, 82, 68
3, 122940, Note_on_c, 0, 70, 82
3, 123030, Note_on_c, 0, 70, 0
3, 123030, Note_on_c, 0, 82, 0
3, 123030, Note_on_c, 0, 73, 0
3, 123030, Note_on_c, 0, 72, 66
3, 123030, Note_on_c, 0, 80, 66
3, 123030, Note_on_c, 0, 68, 77
3, 123120, Note_on_c, 0, 68, 0
3, 123120, Note_on_c, 0, 80, 0
3, 123120, Note_on_c, 0, 72, 0
3, 123120, Note_on_c, 0, 70, 63
3, 123120, Note_on_c, 0, 78, 63
3, 123120, Note_on_c, 0, 66, 80
3, 123390, Note_on_c, 0, 66, 0
3, 123390, Note_on_c, 0, 78, 0
3, 123390, Note_on_c, 0, 70, 0
3, 123390, Note_on_c, 0, 72, 56
3, 123390, Note_on_c, 0, 80, 56
3, 123390, Note_on_c, 0, 68, 89
3, 123480, Note_on_c, 0, 68, 0
3, 123480, Note_on_c, 0, 80, 0
3, 123480, Note_on_c, 0, 72, 0
3, 123480, Note_on_c, 0, 70, 53
3, 123480, Note_on_c, 0, 78, 53
3, 123480, Note_on_c, 0, 66, 81
3, 123660, Note_on_c, 0, 78, 0
3, 123660, Note_on_c, 0, 77, 96
3, 123750, Note_on_c, 0, 66, 0
3, 123750, Note_on_c, 0, 70, 0
3, 123750, Note_on_c, 0, 72, 46
3, 123750, Note_on_c, 0, 68, 92
3, 123840, Note_on_c, 0, 68, 0
3, 123840, Note_on_c, 0, 72, 0
3, 123840, Note_on_c, 0, 70, 46
3, 123840, Note_on_c, 0, 66, 84
3, 123930, Note_on_c, 0, 77, 0
3, 123930, Note_on_c, 0, 78, 79
3, 124020, Note_on_c, 0, 78, 0
3, 124020, Note_on_c, 0, 75, 67
3, 124110, Note_on_c, 0, 66, 0
3, 124110, Note_on_c, 0, 70, 0
3, 124110, Note_on_c, 0, 72, 51
3, 124110, Note_on_c, 0, 68, 90
3, 124200, Note_on_c, 0, 68, 0
3, 124200, Note_on_c, 0, 72, 0
3, 124200, Note_on_c, 0, 69, 42
3, 124200, Note_on_c, 0, 65, 83
3, 124290, Note_on_c, 0, 75, 0
3, 124290, Note_on_c, 0, 77, 78
3, 124380, Note_on_c, 0, 77, 0
3, 124380, Note_on_c, 0, 73, 67
3, 124470, Note_on_c, 0, 73, 0
3, 124470, Note_on_c, 0, 77, 78
3, 124560, Note_on_c, 0, 77, 0
3, 124560, Note_on_c, 0, 65, 0
3, 124560, Note_on_c, 0, 69, 0
3, 124560, Note_on_c, 0, 66, 48
3, 124560, Note_on_c, 0, 70, 48
3, 124560, Note_on_c, 0, 75, 68
3, 124740, Note_on_c, 0, 75, 0
3, 124740, Note_on_c, 0, 70, 0
3, 124740, Note_on_c, 0, 66, 0
3, 124740, Note_on_c, 0, 65, 55
3, 124740, Note_on_c, 0, 70, 55
3, 124740, Note_on_c, 0, 74, 55
3, 124740, Note_on_c, 0, 34, 77
3, 124740, Note_on_c, 0, 46, 77
3, 124920, Note_on_c, 0, 46, 0
3, 124920, Note_on_c, 0, 74, 0
3, 124920, Note_on_c, 0, 65, 0
3, 124920, Note_on_c, 0, 70, 0
3, 124920, Note_on_c, 0, 34, 0
3, 124920, Note_on_c, 0, 53, 39
3, 124920, Note_on_c, 0, 58, 39
3, 124920, Note_on_c, 0, 62, 39
3, 125009, Note_on_c, 0, 62, 0
3, 125009, Note_on_c, 0, 58, 0
3, 125009, Note_on_c, 0, 53, 0
3, 125100, Note_on_c, 0, 53, 51
3, 125100, Note_on_c, 0, 58, 51
3, 125100, Note_on_c, 0, 62, 51
3, 125189, Note_on_c, 0, 62, 0
3, 125189, Note_on_c, 0, 58, 0
3, 125189, Note_on_c, 0, 53, 0
3, 125280, Note_on_c, 0, 53, 88
3, 125370, Note_on_c, 0, 63, 40
3, 125460, Note_on_c, 0, 63, 0
3, 125460, Note_on_c, 0, 62, 46
3, 125550, Note_on_c, 0, 62, 0
3, 125550, Note_on_c, 0, 61, 43
3, 125640, Note_on_c, 0, 61, 0
3, 125640, Note_on_c, 0, 62, 52
3, 125730, Note_on_c, 0, 62, 0
3, 125730, Note_on_c, 0, 63, 55
3, 125754, Note_on_c, 0, 53, 0
3, 125820, Note_on_c, 0, 63, 0
3, 125820, Note_on_c, 0, 62, 49
3, 125820, Note_on_c, 0, 34, 82
3, 125820, Note_on_c, 0, 46, 82
3, 126000, Note_on_c, 0, 46, 0
3, 126000, Note_on_c, 0, 34, 0
3, 126000, Note_on_c, 0, 53, 66
3, 126000, Note_on_c, 0, 58, 66
3, 126089, Note_on_c, 0, 58, 0
3, 126089, Note_on_c, 0, 53, 0
3, 126180, Note_on_c, 0, 62, 0
3, 126180, Note_on_c, 0, 53, 71
3, 126180, Note_on_c, 0, 58, 71
3, 126269, Note_on_c, 0, 58, 0
3, 126269, Note_on_c, 0, 53, 0
3, 126270, Note_on_c, 0, 61, 48
3, 126360, Note_on_c, 0, 61, 0
3, 126360, Note_on_c, 0, 62, 52
3, 126360, Note_on_c, 0, 53, 78
3, 126450, Note_on_c, 0, 62, 0
3, 126450, Note_on_c, 0, 63, 53
3, 126540, Note_on_c, 0, 63, 0
3, 126540, Note_on_c, 0, 62, 47
3, 126630, Note_on_c, 0, 62, 0
3, 126630, Note_on_c, 0, 61, 44
3, 126720, Note_on_c, 0, 61, 0
3, 126720, Note_on_c, 0, 53, 0
3, 126720, Note_on_c, 0, 60, 48
3, 126720, Note_on_c, 0, 51, 82
3, 126900, Note_on_c, 0, 51, 0
3, 126900, Note_on_c, 0, 60, 0
3, 126900, Note_on_c, 0, 59, 52
3, 126900, Note_on_c, 0, 31, 77
3, 126900, Note_on_c, 0, 43, 77
3, 127080, Note_on_c, 0, 43, 0
3, 127080, Note_on_c, 0, 31, 0
3, 127080, Note_on_c, 0, 50, 70
3, 127080, Note_on_c, 0, 55, 70
3, 127169, Note_on_c, 0, 55, 0
3, 127169, Note_on_c, 0, 50, 0
3, 127260, Note_on_c, 0, 59, 0
3, 127260, Note_on_c, 0, 50, 66
3, 127260, Note_on_c, 0, 55, 66
3, 127349, Note_on_c, 0, 55, 0
3, 127349, Note_on_c, 0, 50, 0
3, 127440, Note_on_c, 0, 59, 41
3, 127440, Note_on_c, 0, 50, 92
3, 127530, Note_on_c, 0, 59, 0
3, 127530, Note_on_c, 0, 60, 53
3, 127620, Note_on_c, 0, 60, 0
3, 127620, Note_on_c, 0, 59, 49
3, 127710, Note_on_c, 0, 59, 0
3, 127710, Note_on_c, 0, 58, 48
3, 127800, Note_on_c, 0, 58, 0
3, 127800, Note_on_c, 0, 59, 52
3, 127890, Note_on_c, 0, 59, 0
3, 127890, Note_on_c, 0, 60, 53
3, 127914, Note_on_c, 0, 50, 0
3, 127980, Note_on_c, 0, 60, 0
3, 127980, Note_on_c, 0, 59, 50
3, 127980, Note_on_c, 0, 31, 77
3, 127980, Note_on_c, 0, 43, 77
3, 128160, Note_on_c, 0, 43, 0
3, 128160, Note_on_c, 0, 31, 0
3, 128160, Note_on_c, 0, 50, 66
3, 128160, Note_on_c, 0, 55, 66
3, 128249, Note_on_c, 0, 55, 0
3, 128249, Note_on_c, 0, 50, 0
3, 128340, Note_on_c, 0, 59, 0
3, 128340, Note_on_c, 0, 50, 70
3, 128340, Note_on_c, 0, 55, 70
3, 128429, Note_on_c, 0, 55, 0
3, 128429, Note_on_c, 0, 50, 0
3, 128430, Note_on_c, 0, 59, 44
3, 128520, Note_on_c, 0, 59, 0
3, 128520, Note_on_c, 0, 60, 53
3, 128520, Note_on_c, 0, 46, 84
3, 128700, Note_on_c, 0, 60, 0
3, 128700, Note_on_c, 0, 58, 48
3, 128880, Note_on_c, 0, 58, 0
3, 128880, Note_on_c, 0, 56, 48
3, 128994, Note_on_c, 0, 46, 0
3, 129060, Note_on_c, 0, 56, 0
3, 129060, Note_on_c, 0, 58, 67
3, 129060, Note_on_c, 0, 63, 67
3, 129060, Note_on_c, 0, 67, 67
3, 129060, Note_on_c, 0, 70, 67
3, 129060, Note_on_c, 0, 39, 100
3, 129090, Note_on_c, 0, 46, 100
3, 129119, Note_on_c, 0, 55, 100
3, 129420, Note_on_c, 0, 55, 0
3, 129420, Note_on_c, 0, 39, 0
3, 129420, Note_on_c, 0, 63, 0
3, 129420, Note_on_c, 0, 67, 0
3, 129420, Note_on_c, 0, 58, 0
3, 129420, Note_on_c, 0, 46, 0
3, 129420, Note_on_c, 0, 70, 0
3, 130140, Note_on_c, 0, 58, 46
3, 130140, Note_on_c, 0, 63, 46
3, 130140, Note_on_c, 0, 67, 46
3, 130140, Note_on_c, 0, 70, 46
3, 130140, Note_on_c, 0, 39, 75
3, 130170, Note_on_c, 0, 46, 75
3, 130199, Note_on_c, 0, 55, 75
3, 130500, Note_on_c, 0, 55, 0
3, 130500, Note_on_c, 0, 39, 0
3, 130500, Note_on_c, 0, 63, 0
3, 130500, Note_on_c, 0, 67, 0
3, 130500, Note_on_c, 0, 58, 0
3, 130500, Note_on_c, 0, 46, 0
3, 130500, Note_on_c, 0, 70, 0
3, 131220, Note_on_c, 0, 58, 43
3, 131220, Note_on_c, 0, 63, 43
3, 131220, Note_on_c, 0, 67, 43
3, 131220, Note_on_c, 0, 70, 43
3, 131220, Note_on_c, 0, 39, 75
3, 131261, Note_on_c, 0, 46, 75
3, 131302, Note_on_c, 0, 55, 75
3, 131580, Note_on_c, 0, 55, 0
3, 131580, Note_on_c, 0, 39, 0
3, 131580, Note_on_c, 0, 63, 0
3, 131580, Note_on_c, 0, 67, 0
3, 131580, Note_on_c, 0, 58, 0
3, 131580, Note_on_c, 0, 46, 0
3, 131580, Note_on_c, 0, 70, 0
3, 133380, Note_on_c, 0, 68, 47
3, 133380, Note_on_c, 0, 56, 41
3, 133560, Note_on_c, 0, 61, 50
3, 133560, Note_on_c, 0, 65, 50
3, 133649, Note_on_c, 0, 65, 0
3, 133649, Note_on_c, 0, 61, 0
3, 133740, Note_on_c, 0, 61, 60
3, 133740, Note_on_c, 0, 65, 60
3, 133829, Note_on_c, 0, 65, 0
3, 133829, Note_on_c, 0, 61, 0
3, 133920, Note_on_c, 0, 56, 0
3, 133920, Note_on_c, 0, 68, 0
3, 133920, Note_on_c, 0, 69, 53
3, 133920, Note_on_c, 0, 57, 50
3, 134010, Note_on_c, 0, 57, 0
3, 134010, Note_on_c, 0, 69, 0
3, 134010, Note_on_c, 0, 71, 52
3, 134010, Note_on_c, 0, 59, 53
3, 134100, Note_on_c, 0, 59, 0
3, 134100, Note_on_c, 0, 71, 0
3, 134100, Note_on_c, 0, 73, 66
3, 134100, Note_on_c, 0, 62, 52
3, 134100, Note_on_c, 0, 66, 52
3, 134100, Note_on_c, 0, 61, 67
3, 134189, Note_on_c, 0, 66, 0
3, 134189, Note_on_c, 0, 62, 0
3, 134280, Note_on_c, 0, 62, 62
3, 134280, Note_on_c, 0, 66, 62
3, 134369, Note_on_c, 0, 66, 0
3, 134369, Note_on_c, 0, 62, 0
3, 134417, Note_on_c, 0, 73, 0
3, 134417, Note_on_c, 0, 61, 0
3, 134460, Note_on_c, 0, 68, 45
3, 134460, Note_on_c, 0, 56, 50
3, 134640, Note_on_c, 0, 61, 54
3, 134640, Note_on_c, 0, 65, 54
3, 134729, Note_on_c, 0, 65, 0
3, 134729, Note_on_c, 0, 61, 0
3, 134820, Note_on_c, 0, 61, 59
3, 134820, Note_on_c, 0, 65, 59
3, 134909, Note_on_c, 0, 65, 0
3, 134909, Note_on_c, 0, 61, 0
3, 135000, Note_on_c, 0, 56, 0
3, 135000, Note_on_c, 0, 68, 0
3, 135000, Note_on_c, 0, 67, 48
3, 135000, Note_on_c, 0, 55, 43
3, 135090, Note_on_c, 0, 55, 0
3, 135090, Note_on_c, 0, 67, 0
3, 135090, Note_on_c, 0, 69, 52
3, 135090, Note_on_c, 0, 57, 49
3, 135180, Note_on_c, 0, 57, 0
3, 135180, Note_on_c, 0, 69, 0
3, 135180, Note_on_c, 0, 71, 64
3, 135180, Note_on_c, 0, 60, 53
3, 135180, Note_on_c, 0, 64, 53
3, 135180, Note_on_c, 0, 59, 63
3, 135269, Note_on_c, 0, 64, 0
3, 135269, Note_on_c, 0, 60, 0
3, 135360, Note_on_c, 0, 60, 61
3, 135360, Note_on_c, 0, 64, 61
3, 135449, Note_on_c, 0, 64, 0
3, 135449, Note_on_c, 0, 60, 0
3, 135497, Note_on_c, 0, 71, 0
3, 135497, Note_on_c, 0, 59, 0
3, 135540, Note_on_c, 0, 68, 49
3, 135540, Note_on_c, 0, 56, 47
3, 135720, Note_on_c, 0, 61, 55
3, 135720, Note_on_c, 0, 65, 55
3, 135809, Note_on_c, 0, 65, 0
3, 135809, Note_on_c, 0, 61, 0
3, 135900, Note_on_c, 0, 61, 60
3, 135900, Note_on_c, 0, 65, 60
3, 135989, Note_on_c, 0, 65, 0
3, 135989, Note_on_c, 0, 61, 0
3, 136080, Note_on_c, 0, 56, 0
3, 136080, Note_on_c, 0, 68, 0
3, 136080, Note_on_c, 0, 69, 52
3, 136080, Note_on_c, 0, 57, 53
3, 136260, Note_on_c, 0, 60, 55
3, 136260, Note_on_c, 0, 64, 55
3, 136349, Note_on_c, 0, 64, 0
3, 136349, Note_on_c, 0, 60, 0
3, 136440, Note_on_c, 0, 60, 60
3, 136440, Note_on_c, 0, 64, 60
3, 136529, Note_on_c, 0, 64, 0
3, 136529, Note_on_c, 0, 60, 0
3, 136620, Note_on_c, 0, 57, 0
3, 136620, Note_on_c, 0, 69, 0
3, 136620, Note_on_c, 0, 68, 42
3, 136620, Note_on_c, 0, 56, 45
3, 136800, Note_on_c, 0, 59, 49
3, 136800, Note_on_c, 0, 63, 49
3, 136889, Note_on_c, 0, 63, 0
3, 136889, Note_on_c, 0, 59, 0
3, 136980, Note_on_c, 0, 59, 59
3, 136980, Note_on_c, 0, 63, 59
3, 137069, Note_on_c, 0, 63, 0
3, 137069, Note_on_c, 0, 59, 0
3, 137160, Note_on_c, 0, 56, 0
3, 137160, Note_on_c, 0, 68, 0
3, 137160, Note_on_c, 0, 67, 44
3, 137160, Note_on_c, 0, 55, 46
3, 137340, Note_on_c, 0, 58, 52
3, 137340, Note_on_c, 0, 62, 52
3, 137429, Note_on_c, 0, 62, 0
3, 137429, Note_on_c, 0, 58, 0
3, 137430, Note_on_c, 0, 55, 0
3, 137430, Note_on_c, 0, 67, 0
3, 137430, Note_on_c, 0, 66, 45
3, 137430, Note_on_c, 0, 54, 45
3, 137520, Note_on_c, 0, 54, 0
3, 137520, Note_on_c, 0, 66, 0
3, 137520, Note_on_c, 0, 67, 55
3, 137520, Note_on_c, 0, 58, 57
3, 137520, Note_on_c, 0, 63, 57
3, 137520, Note_on_c, 0, 55, 55
3, 137609, Note_on_c, 0, 63, 0
3, 137609, Note_on_c, 0, 58, 0
3, 137700, Note_on_c, 0, 67, 0
3, 137700, Note_on_c, 0, 55, 0
3, 137700, Note_on_c, 0, 64, 49
3, 137700, Note_on_c, 0, 66, 49
3, 137700, Note_on_c, 0, 54, 58
3, 137700, Note_on_c, 0, 58, 58
3, 137880, Note_on_c, 0, 58, 0
3, 137880, Note_on_c, 0, 64, 0
3, 137880, Note_on_c, 0, 66, 0
3, 137880, Note_on_c, 0, 54, 0
3, 137880, Note_on_c, 0, 64, 33
3, 137924, Note_on_c, 0, 64, 0
3, 137970, Note_on_c, 0, 64, 43
3, 138014, Note_on_c, 0, 64, 0
3, 138060, Note_on_c, 0, 64, 39
3, 138104, Note_on_c, 0, 64, 0
3, 138150, Note_on_c, 0, 64, 39
3, 138194, Note_on_c, 0, 64, 0
3, 138240, Note_on_c, 0, 64, 38
3, 138329, Note_on_c, 0, 64, 0
3, 138420, Note_on_c, 0, 64, 42
3, 138509, Note_on_c, 0, 64, 0
3, 138600, Note_on_c, 0, 64, 40
3, 138689, Note_on_c, 0, 64, 0
3, 138960, Note_on_c, 0, 64, 30
3, 139049, Note_on_c, 0, 64, 0
3, 139140, Note_on_c, 0, 64, 43
3, 139229, Note_on_c, 0, 64, 0
3, 140040, Note_on_c, 0, 64, 33
3, 140084, Note_on_c, 0, 64, 0
3, 140130, Note_on_c, 0, 64, 40
3, 140174, Note_on_c, 0, 64, 0
3, 140220, Note_on_c, 0, 64, 41
3, 140264, Note_on_c, 0, 64, 0
3, 140310, Note_on_c, 0, 64, 39
3, 140354, Note_on_c, 0, 64, 0
3, 140400, Note_on_c, 0, 64, 42
3, 140489, Note_on_c, 0, 64, 0
3, 140580, Note_on_c, 0, 64, 41
3, 140669, Note_on_c, 0, 64, 0
3, 140760, Note_on_c, 0, 64, 41
3, 140849, Note_on_c, 0, 64, 0
3, 141120, Note_on_c, 0, 64, 31
3, 141300, Note_on_c, 0, 64, 0
3, 141300, Note_on_c, 0, 64, 36
3, 141480, Note_on_c, 0, 64, 0
3, 141480, Note_on_c, 0, 67, 36
3, 141480, Note_on_c, 0, 63, 36
3, 141480, Note_on_c, 0, 59, 40
3, 141480, Note_on_c, 0, 55, 16
3, 141660, Note_on_c, 0, 59, 0
3, 141660, Note_on_c, 0, 60, 55
3, 141750, Note_on_c, 0, 67, 0
3, 141750, Note_on_c, 0, 66, 36
3, 141840, Note_on_c, 0, 66, 0
3, 141840, Note_on_c, 0, 60, 0
3, 141840, Note_on_c, 0, 67, 42
3, 141840, Note_on_c, 0, 59, 49
3, 142020, Note_on_c, 0, 59, 0
3, 142020, Note_on_c, 0, 55, 0
3, 142020, Note_on_c, 0, 63, 0
3, 142020, Note_on_c, 0, 67, 0
3, 142020, Note_on_c, 0, 64, 50
3, 142020, Note_on_c, 0, 73, 50
3, 142020, Note_on_c, 0, 54, 50
3, 142020, Note_on_c, 0, 58, 50
3, 142380, Note_on_c, 0, 58, 0
3, 142380, Note_on_c, 0, 64, 0
3, 142380, Note_on_c, 0, 73, 0
3, 142380, Note_on_c, 0, 54, 0
3, 142380, Note_on_c, 0, 63, 37
3, 142380, Note_on_c, 0, 67, 37
3, 142380, Note_on_c, 0, 55, 54
3, 142380, Note_on_c, 0, 59, 54
3, 142560, Note_on_c, 0, 59, 0
3, 142560, Note_on_c, 0, 63, 0
3, 142560, Note_on_c, 0, 67, 0
3, 142560, Note_on_c, 0, 55, 0
3, 142560, Note_on_c, 0, 64, 47
3, 142560, Note_on_c, 0, 73, 47
3, 142560, Note_on_c, 0, 54, 48
3, 142560, Note_on_c, 0, 58, 48
3, 142740, Note_on_c, 0, 64, 42
3, 142784, Note_on_c, 0, 64, 0
3, 142830, Note_on_c, 0, 64, 42
3, 142874, Note_on_c, 0, 64, 0
3, 142920, Note_on_c, 0, 64, 41
3, 142964, Note_on_c, 0, 64, 0
3, 143010, Note_on_c, 0, 64, 41
3, 143054, Note_on_c, 0, 64, 0
3, 143100, Note_on_c, 0, 64, 0
3, 143100, Note_on_c, 0, 64, 40
3, 143189, Note_on_c, 0, 64, 0
3, 143280, Note_on_c, 0, 58, 0
3, 143280, Note_on_c, 0, 54, 0
3, 143280, Note_on_c, 0, 73, 0
3, 143280, Note_on_c, 0, 64, 45
3, 143369, Note_on_c, 0, 64, 0
3, 143640, Note_on_c, 0, 64, 32
3, 143640, Note_on_c, 0, 61, 37
3, 143640, Note_on_c, 0, 57, 1
3, 143640, Note_on_c, 0, 47, 44
3, 143640, Note_on_c, 0, 35, 10
3, 143820, Note_on_c, 0, 35, 0
3, 143820, Note_on_c, 0, 61, 0
3, 143820, Note_on_c, 0, 60, 38
3, 144000, Note_on_c, 0, 60, 0
3, 144000, Note_on_c, 0, 64, 0
3, 144000, Note_on_c, 0, 63, 42
3, 144000, Note_on_c, 0, 59, 36
3, 144180, Note_on_c, 0, 59, 0
3, 144180, Note_on_c, 0, 47, 0
3, 144180, Note_on_c, 0, 57, 0
3, 144180, Note_on_c, 0, 63, 0
3, 144180, Note_on_c, 0, 55, 44
3, 144180, Note_on_c, 0, 58, 44
3, 144180, Note_on_c, 0, 64, 44
3, 144180, Note_on_c, 0, 40, 46
3, 144270, Note_on_c, 0, 40, 0
3, 144270, Note_on_c, 0, 47, 56
3, 144360, Note_on_c, 0, 47, 0
3, 144360, Note_on_c, 0, 55, 58
3, 144450, Note_on_c, 0, 55, 0
3, 144450, Note_on_c, 0, 58, 54
3, 144540, Note_on_c, 0, 58, 0
3, 144540, Note_on_c, 0, 63, 60
3, 144630, Note_on_c, 0, 63, 0
3, 144630, Note_on_c, 0, 62, 43
3, 144720, Note_on_c, 0, 62, 0
3, 144720, Note_on_c, 0, 55, 0
3, 144720, Note_on_c, 0, 64, 0
3, 144720, Note_on_c, 0, 58, 0
3, 144720, Note_on_c, 0, 61, 56
3, 144900, Note_on_c, 0, 58, 51
3, 144900, Note_on_c, 0, 64, 51
3, 144900, Note_on_c, 0, 67, 51
3, 144956, Note_on_c, 0, 61, 0
3, 144990, Note_on_c, 0, 60, 50
3, 145080, Note_on_c, 0, 60, 0
3, 145080, Note_on_c, 0, 61, 61
3, 145217, Note_on_c, 0, 67, 0
3, 145217, Note_on_c, 0, 58, 0
3, 145217, Note_on_c, 0, 64, 0
3, 145260, Note_on_c, 0, 58, 53
3, 145260, Note_on_c, 0, 64, 53
3, 145260, Note_on_c, 0, 67, 53
3, 145350, Note_on_c, 0, 61, 0
3, 145350, Note_on_c, 0, 60, 45
3, 145440, Note_on_c, 0, 60, 0
3, 145440, Note_on_c, 0, 61, 63
3, 145734, Note_on_c, 0, 67, 0
3, 145734, Note_on_c, 0, 58, 0
3, 145734, Note_on_c, 0, 64, 0
3, 145757, Note_on_c, 0, 61, 0
3, 145800, Note_on_c, 0, 64, 34
3, 145800, Note_on_c, 0, 61, 44
3, 145800, Note_on_c, 0, 57, 1
3, 145800, Note_on_c, 0, 47, 43
3, 145800, Note_on_c, 0, 35, 16
3, 145980, Note_on_c, 0, 35, 0
3, 145980, Note_on_c, 0, 61, 0
3, 145980, Note_on_c, 0, 60, 35
3, 146160, Note_on_c, 0, 60, 0
3, 146160, Note_on_c, 0, 64, 0
3, 146160, Note_on_c, 0, 63, 39
3, 146160, Note_on_c, 0, 59, 44
3, 146340, Note_on_c, 0, 59, 0
3, 146340, Note_on_c, 0, 47, 0
3, 146340, Note_on_c, 0, 57, 0
3, 146340, Note_on_c, 0, 63, 0
3, 146340, Note_on_c, 0, 55, 40
3, 146340, Note_on_c, 0, 58, 40
3, 146340, Note_on_c, 0, 64, 40
3, 146340, Note_on_c, 0, 40, 46
3, 146430, Note_on_c, 0, 40, 0
3, 146430, Note_on_c, 0, 47, 52
3, 146520, Note_on_c, 0, 47, 0
3, 146520, Note_on_c, 0, 55, 62
3, 146610, Note_on_c, 0, 55, 0
3, 146610, Note_on_c, 0, 58, 58
3, 146700, Note_on_c, 0, 58, 0
3, 146700, Note_on_c, 0, 63, 61
3, 146790, Note_on_c, 0, 63, 0
3, 146790, Note_on_c, 0, 62, 51
3, 146880, Note_on_c, 0, 62, 0
3, 146880, Note_on_c, 0, 55, 0
3, 146880, Note_on_c, 0, 64, 0
3, 146880, Note_on_c, 0, 58, 0
3, 146880, Note_on_c, 0, 61, 56
3, 147060, Note_on_c, 0, 58, 45
3, 147060, Note_on_c, 0, 64, 45
3, 147060, Note_on_c, 0, 67, 45
3, 147116, Note_on_c, 0, 61, 0
3, 147150, Note_on_c, 0, 60, 50
3, 147240, Note_on_c, 0, 60, 0
3, 147240, Note_on_c, 0, 61, 67
3, 147377, Note_on_c, 0, 67, 0
3, 147377, Note_on_c, 0, 58, 0
3, 147377, Note_on_c, 0, 64, 0
3, 147420, Note_on_c, 0, 58, 52
3, 147420, Note_on_c, 0, 64, 52
3, 147420, Note_on_c, 0, 67, 52
3, 147510, Note_on_c, 0, 61, 0
3, 147510, Note_on_c, 0, 60, 48
3, 147600, Note_on_c, 0, 60, 0
3, 147600, Note_on_c, 0, 61, 65
3, 147894, Note_on_c, 0, 67, 0
3, 147894, Note_on_c, 0, 58, 0
3, 147894, Note_on_c, 0, 64, 0
3, 147917, Note_on_c, 0, 61, 0
3, 148500, Note_on_c, 0, 60, 81
3, 148500, Note_on_c, 0, 37, 78
3, 148500, Note_on_c, 0, 49, 78
3, 148500, Note_on_c, 0, 57, 78
3, 148542, Note_on_c, 0, 63, 81
3, 148584, Note_on_c, 0, 66, 81
3, 148590, Note_on_c, 0, 57, 71
3, 148627, Note_on_c, 0, 72, 81
3, 148680, Note_on_c, 0, 57, 0
3, 148680, Note_on_c, 0, 60, 81
3, 148770, Note_on_c, 0, 60, 0
3, 148770, Note_on_c, 0, 63, 80
3, 148860, Note_on_c, 0, 63, 0
3, 148860, Note_on_c, 0, 68, 86
3, 148950, Note_on_c, 0, 68, 0
3, 148950, Note_on_c, 0, 67, 67
3, 149040, Note_on_c, 0, 67, 0
3, 149040, Note_on_c, 0, 63, 0
3, 149040, Note_on_c, 0, 66, 0
3, 149040, Note_on_c, 0, 49, 0
3, 149040, Note_on_c, 0, 37, 0
3, 149040, Note_on_c, 0, 60, 0
3, 149040, Note_on_c, 0, 57, 0
3, 149040, Note_on_c, 0, 72, 0
3, 149040, Note_on_c, 0, 66, 116
3, 149220, Note_on_c, 0, 63, 95
3, 149220, Note_on_c, 0, 69, 95
3, 149220, Note_on_c, 0, 72, 95
3, 149276, Note_on_c, 0, 66, 0
3, 149310, Note_on_c, 0, 65, 91
3, 149400, Note_on_c, 0, 65, 0
3, 149400, Note_on_c, 0, 66, 102
3, 149537, Note_on_c, 0, 72, 0
3, 149537, Note_on_c, 0, 63, 0
3, 149537, Note_on_c, 0, 69, 0
3, 149580, Note_on_c, 0, 63, 102
3, 149580, Note_on_c, 0, 69, 102
3, 149580, Note_on_c, 0, 72, 102
3, 149670, Note_on_c, 0, 66, 0
3, 149670, Note_on_c, 0, 65, 85
3, 149760, Note_on_c, 0, 65, 0
3, 149760, Note_on_c, 0, 66, 104
3, 150054, Note_on_c, 0, 72, 0
3, 150054, Note_on_c, 0, 63, 0
3, 150054, Note_on_c, 0, 69, 0
3, 150077, Note_on_c, 0, 66, 0
3, 150660, Note_on_c, 0, 60, 77
3, 150660, Note_on_c, 0, 63, 77
3, 150660, Note_on_c, 0, 66, 77
3, 150660, Note_on_c, 0, 72, 77
3, 150660, Note_on_c, 0, 37, 78
3, 150702, Note_on_c, 0, 49, 78
3, 150744, Note_on_c, 0, 57, 78
3, 150750, Note_on_c, 0, 57, 64
3, 150840, Note_on_c, 0, 57, 0
3, 150840, Note_on_c, 0, 60, 79
3, 150930, Note_on_c, 0, 60, 0
3, 150930, Note_on_c, 0, 63, 79
3, 151020, Note_on_c, 0, 63, 0
3, 151020, Note_on_c, 0, 68, 87
3, 151110, Note_on_c, 0, 68, 0
3, 151110, Note_on_c, 0, 67, 71
3, 151200, Note_on_c, 0, 67, 0
3, 151200, Note_on_c, 0, 63, 0
3, 151200, Note_on_c, 0, 49, 0
3, 151200, Note_on_c, 0, 66, 0
3, 151200, Note_on_c, 0, 37, 0
3, 151200, Note_on_c, 0, 60, 0
3, 151200, Note_on_c, 0, 72, 0
3, 151200, Note_on_c, 0, 57, 0
3, 151200, Note_on_c, 0, 66, 117
3, 151674, Note_on_c, 0, 66, 0
3, 151740, Note_on_c, 0, 59, 45
3, 151740, Note_on_c, 0, 62, 45
3, 151740, Note_on_c, 0, 65, 45
3, 151740, Note_on_c, 0, 71, 45
3, 151740, Note_on_c, 0, 37, 42
3, 151782, Note_on_c, 0, 49, 42
3, 151824, Note_on_c, 0, 55, 42
3, 151830, Note_on_c, 0, 55, 53
3, 151920, Note_on_c, 0, 55, 0
3, 151920, Note_on_c, 0, 59, 62
3, 152010, Note_on_c, 0, 59, 0
3, 152010, Note_on_c, 0, 62, 67
3, 152100, Note_on_c, 0, 62, 0
3, 152100, Note_on_c, 0, 67, 74
3, 152190, Note_on_c, 0, 67, 0
3, 152190, Note_on_c, 0, 66, 62
3, 152280, Note_on_c, 0, 66, 0
3, 152280, Note_on_c, 0, 62, 0
3, 152280, Note_on_c, 0, 49, 0
3, 152280, Note_on_c, 0, 65, 0
3, 152280, Note_on_c, 0, 37, 0
3, 152280, Note_on_c, 0, 59, 0
3, 152280, Note_on_c, 0, 71, 0
3, 152280, Note_on_c, 0, 55, 0
3, 152280, Note_on_c, 0, 65, 76
3, 152460, Note_on_c, 0, 67, 57
3, 152460, Note_on_c, 0, 71, 57
3, 152516, Note_on_c, 0, 65, 0
3, 152550, Note_on_c, 0, 64, 50
3, 152640, Note_on_c, 0, 64, 0
3, 152640, Note_on_c, 0, 65, 66
3, 152777, Note_on_c, 0, 71, 0
3, 152777, Note_on_c, 0, 67, 0
3, 152820, Note_on_c, 0, 67, 62
3, 152820, Note_on_c, 0, 71, 62
3, 153000, Note_on_c, 0, 65, 0
3, 153137, Note_on_c, 0, 71, 0
3, 153137, Note_on_c, 0, 67, 0
3, 158400, Note_on_c, 0, 67, 44
3, 158400, Note_on_c, 0, 64, 58
3, 158400, Note_on_c, 0, 59, 48
3, 158490, Note_on_c, 0, 59, 0
3, 158490, Note_on_c, 0, 67, 0
3, 158490, Note_on_c, 0, 68, 53
3, 158490, Note_on_c, 0, 60, 54
3, 158580, Note_on_c, 0, 60, 0
3, 158580, Note_on_c, 0, 68, 0
3, 158580, Note_on_c, 0, 64, 0
3, 158580, Note_on_c, 0, 69, 53
3, 158580, Note_on_c, 0, 65, 62
3, 158580, Note_on_c, 0, 61, 54
3, 158580, Note_on_c, 0, 57, 10
3, 158760, Note_on_c, 0, 57, 0
3, 158760, Note_on_c, 0, 69, 0
3, 158760, Note_on_c, 0, 65, 0
3, 158760, Note_on_c, 0, 61, 0
3, 158760, Note_on_c, 0, 75, 69
3, 158760, Note_on_c, 0, 66, 60
3, 158760, Note_on_c, 0, 60, 49
3, 158760, Note_on_c, 0, 56, 17
3, 159030, Note_on_c, 0, 60, 0
3, 159030, Note_on_c, 0, 61, 53
3, 159077, Note_on_c, 0, 75, 0
3, 159120, Note_on_c, 0, 56, 0
3, 159120, Note_on_c, 0, 66, 0
3, 159120, Note_on_c, 0, 61, 0
3, 159120, Note_on_c, 0, 69, 43
3, 159120, Note_on_c, 0, 65, 60
3, 159120, Note_on_c, 0, 62, 57
3, 159120, Note_on_c, 0, 57, 23
3, 159300, Note_on_c, 0, 57, 0
3, 159300, Note_on_c, 0, 69, 0
3, 159300, Note_on_c, 0, 65, 0
3, 159300, Note_on_c, 0, 62, 0
3, 159300, Note_on_c, 0, 75, 73
3, 159300, Note_on_c, 0, 66, 63
3, 159300, Note_on_c, 0, 61, 54
3, 159300, Note_on_c, 0, 56, 12
3, 159617, Note_on_c, 0, 61, 0
3, 159617, Note_on_c, 0, 75, 0
3, 159660, Note_on_c, 0, 68, 43
3, 159660, Note_on_c, 0, 60, 47
3, 160740, Note_on_c, 0, 60, 0
3, 160740, Note_on_c, 0, 56, 0
3, 160740, Note_on_c, 0, 66, 0
3, 160740, Note_on_c, 0, 68, 0
3, 160740, Note_on_c, 0, 66, 67
3, 161100, Note_on_c, 0, 66, 0
3, 161100, Note_on_c, 0, 64, 64
3, 161280, Note_on_c, 0, 64, 0
3, 161280, Note_on_c, 0, 63, 67
3, 161640, Note_on_c, 0, 63, 0
3, 161640, Note_on_c, 0, 61, 86
3, 161820, Note_on_c, 0, 61, 0
3, 161820, Note_on_c, 0, 60, 99
3, 162000, Note_on_c, 0, 60, 0
3, 162000, Note_on_c, 0, 64, 97
3, 162000, Note_on_c, 0, 61, 67
3, 162000, Note_on_c, 0, 57, 11
3, 162000, Note_on_c, 0, 47, 44
3, 162000, Note_on_c, 0, 35, 11
3, 162180, Note_on_c, 0, 35, 0
3, 162180, Note_on_c, 0, 61, 0
3, 162180, Note_on_c, 0, 60, 78
3, 162360, Note_on_c, 0, 60, 0
3, 162360, Note_on_c, 0, 64, 0
3, 162360, Note_on_c, 0, 63, 88
3, 162360, Note_on_c, 0, 60, 90
3, 162540, Note_on_c, 0, 60, 0
3, 162540, Note_on_c, 0, 47, 0
3, 162540, Note_on_c, 0, 57, 0
3, 162540, Note_on_c, 0, 63, 0
3, 162540, Note_on_c, 0, 55, 92
3, 162540, Note_on_c, 0, 58, 92
3, 162540, Note_on_c, 0, 64, 92
3, 162540, Note_on_c, 0, 40, 75
3, 162630, Note_on_c, 0, 40, 0
3, 162630, Note_on_c, 0, 47, 96
3, 162720, Note_on_c, 0, 47, 0
3, 162720, Note_on_c, 0, 55, 99
3, 162810, Note_on_c, 0, 55, 0
3, 162810, Note_on_c, 0, 58, 91
3, 162900, Note_on_c, 0, 58, 0
3, 162900, Note_on_c, 0, 63, 104
3, 162990, Note_on_c, 0, 63, 0
3, 162990, Note_on_c, 0, 62, 88
3, 163080, Note_on_c, 0, 62, 0
3, 163080, Note_on_c, 0, 55, 0
3, 163080, Note_on_c, 0, 64, 0
3, 163080, Note_on_c, 0, 58, 0
3, 163080, Note_on_c, 0, 61, 95
3, 163260, Note_on_c, 0, 58, 88
3, 163260, Note_on_c, 0, 64, 88
3, 163260, Note_on_c, 0, 67, 88
3, 163316, Note_on_c, 0, 61, 0
3, 163350, Note_on_c, 0, 60, 83
3, 163440, Note_on_c, 0, 60, 0
3, 163440, Note_on_c, 0, 61, 103
3, 163577, Note_on_c, 0, 67, 0
3, 163577, Note_on_c, 0, 58, 0
3, 163577, Note_on_c, 0, 64, 0
3, 163620, Note_on_c, 0, 58, 97
3, 163620, Note_on_c, 0, 64, 97
3, 163620, Note_on_c, 0, 67, 97
3, 163710, Note_on_c, 0, 61, 0
3, 163710, Note_on_c, 0, 60, 79
3, 163800, Note_on_c, 0, 60, 0
3, 163800, Note_on_c, 0, 60, 97
3, 164036, Note_on_c, 0, 60, 0
3, 164070, Note_on_c, 0, 60, 84
3, 164094, Note_on_c, 0, 58, 0
3, 164094, Note_on_c, 0, 67, 0
3, 164094, Note_on_c, 0, 64, 0
3, 164160, Note_on_c, 0, 60, 0
3, 164160, Note_on_c, 0, 64, 81
3, 164160, Note_on_c, 0, 61, 93
3, 164160, Note_on_c, 0, 57, 15
3, 164160, Note_on_c, 0, 47, 77
3, 164160, Note_on_c, 0, 35, 13
3, 164249, Note_on_c, 0, 35, 0
3, 164340, Note_on_c, 0, 61, 0
3, 164340, Note_on_c, 0, 60, 83
3, 164340, Note_on_c, 0, 35, 16
3, 164429, Note_on_c, 0, 35, 0
3, 164520, Note_on_c, 0, 64, 0
3, 164520, Note_on_c, 0, 60, 0
3, 164520, Note_on_c, 0, 63, 77
3, 164520, Note_on_c, 0, 59, 87
3, 164700, Note_on_c, 0, 59, 0
3, 164700, Note_on_c, 0, 47, 0
3, 164700, Note_on_c, 0, 57, 0
3, 164700, Note_on_c, 0, 63, 0
3, 164700, Note_on_c, 0, 55, 94
3, 164700, Note_on_c, 0, 58, 94
3, 164700, Note_on_c, 0, 64, 94
3, 164700, Note_on_c, 0, 40, 79
3, 164790, Note_on_c, 0, 40, 0
3, 164790, Note_on_c, 0, 47, 91
3, 164880, Note_on_c, 0, 47, 0
3, 164880, Note_on_c, 0, 55, 101
3, 164970, Note_on_c, 0, 55, 0
3, 164970, Note_on_c, 0, 58, 95
3, 165060, Note_on_c, 0, 58, 0
3, 165060, Note_on_c, 0, 63, 97
3, 165150, Note_on_c, 0, 63, 0
3, 165150, Note_on_c, 0, 62, 86
3, 165240, Note_on_c, 0, 62, 0
3, 165240, Note_on_c, 0, 55, 0
3, 165240, Note_on_c, 0, 64, 0
3, 165240, Note_on_c, 0, 58, 0
3, 165240, Note_on_c, 0, 66, 117
3, 165240, Note_on_c, 0, 69, 117
3, 165240, Note_on_c, 0, 73, 117
3, 165240, Note_on_c, 0, 57, 111
3, 165240, Note_on_c, 0, 61, 111
3, 165240, Note_on_c, 0, 63, 111
3, 166275, Note_on_c, 0, 63, 0
3, 166275, Note_on_c, 0, 69, 0
3, 166275, Note_on_c, 0, 73, 0
3, 166275, Note_on_c, 0, 66, 0
3, 166275, Note_on_c, 0, 61, 0
3, 166275, Note_on_c, 0, 57, 0
3, 166275, Note_on_c, 0, 66, 84
3, 166275, Note_on_c, 0, 69, 84
3, 166275, Note_on_c, 0, 72, 84
3, 166275, Note_on_c, 0, 56, 90
3, 166275, Note_on_c, 0, 60, 90
3, 166275, Note_on_c, 0, 64, 90
3, 166320, Note_on_c, 0, 64, 0
3, 166320, Note_on_c, 0, 69, 0
3, 166320, Note_on_c, 0, 72, 0
3, 166320, Note_on_c, 0, 66, 0
3, 166320, Note_on_c, 0, 60, 0
3, 166320, Note_on_c, 0, 56, 0
3, 166320, Note_on_c, 0, 66, 105
3, 166320, Note_on_c, 0, 69, 105
3, 166320, Note_on_c, 0, 73, 105
3, 166320, Note_on_c, 0, 57, 93
3, 166320, Note_on_c, 0, 61, 93
3, 166320, Note_on_c, 0, 63, 93
3, 166815, Note_on_c, 0, 63, 0
3, 166815, Note_on_c, 0, 69, 0
3, 166815, Note_on_c, 0, 73, 0
3, 166815, Note_on_c, 0, 66, 0
3, 166815, Note_on_c, 0, 61, 0
3, 166815, Note_on_c, 0, 57, 0
3, 166815, Note_on_c, 0, 66, 86
3, 166815, Note_on_c, 0, 69, 86
3, 166815, Note_on_c, 0, 72, 86
3, 166815, Note_on_c, 0, 56, 93
3, 166815, Note_on_c, 0, 60, 93
3, 166815, Note_on_c, 0, 64, 93
3, 166860, Note_on_c, 0, 64, 0
3, 166860, Note_on_c, 0, 69, 0
3, 166860, Note_on_c, 0, 72, 0
3, 166860, Note_on_c, 0, 66, 0
3, 166860, Note_on_c, 0, 60, 0
3, 166860, Note_on_c, 0, 56, 0
3, 166860, Note_on_c, 0, 66, 98
3, 166860, Note_on_c, 0, 69, 98
3, 166860, Note_on_c, 0, 73, 98
3, 166860, Note_on_c, 0, 57, 85
3, 166860, Note_on_c, 0, 61, 85
3, 166860, Note_on_c, 0, 63, 85
3, 167334, Note_on_c, 0, 73, 0
3, 167334, Note_on_c, 0, 66, 0
3, 167334, Note_on_c, 0, 69, 0
3, 167400, Note_on_c, 0, 57, 0
3, 167400, Note_on_c, 0, 61, 0
3, 167400, Note_on_c, 0, 63, 0
3, 167400, Note_on_c, 0, 60, 106
3, 167400, Note_on_c, 0, 64, 106
3, 167400, Note_on_c, 0, 66, 106
3, 167400, Note_on_c, 0, 69, 106
3, 167400, Note_on_c, 0, 72, 106
3, 167400, Note_on_c, 0, 33, 69
3, 167400, Note_on_c, 0, 45, 69
3, 167580, Note_on_c, 0, 45, 0
3, 167580, Note_on_c, 0, 72, 0
3, 167580, Note_on_c, 0, 64, 0
3, 167580, Note_on_c, 0, 66, 0
3, 167580, Note_on_c, 0, 60, 0
3, 167580, Note_on_c, 0, 33, 0
3, 167580, Note_on_c, 0, 69, 0
3, 167580, Note_on_c, 0, 54, 67
3, 167580, Note_on_c, 0, 60, 67
3, 167580, Note_on_c, 0, 64, 67
3, 167669, Note_on_c, 0, 64, 0
3, 167669, Note_on_c, 0, 60, 0
3, 167669, Note_on_c, 0, 54, 0
3, 167760, Note_on_c, 0, 54, 85
3, 167760, Note_on_c, 0, 60, 85
3, 167760, Note_on_c, 0, 64, 85
3, 167849, Note_on_c, 0, 64, 0
3, 167849, Note_on_c, 0, 60, 0
3, 167849, Note_on_c, 0, 54, 0
3, 167940, Note_on_c, 0, 38, 79
3, 168120, Note_on_c, 0, 38, 0
3, 168120, Note_on_c, 0, 54, 78
3, 168120, Note_on_c, 0, 60, 78
3, 168120, Note_on_c, 0, 63, 78
3, 168209, Note_on_c, 0, 63, 0
3, 168209, Note_on_c, 0, 60, 0
3, 168209, Note_on_c, 0, 54, 0
3, 168300, Note_on_c, 0, 54, 85
3, 168300, Note_on_c, 0, 60, 85
3, 168300, Note_on_c, 0, 63, 85
3, 168389, Note_on_c, 0, 63, 0
3, 168389, Note_on_c, 0, 60, 0
3, 168389, Note_on_c, 0, 54, 0
3, 168480, Note_on_c, 0, 33, 87
3, 168480, Note_on_c, 0, 45, 87
3, 168660, Note_on_c, 0, 45, 0
3, 168660, Note_on_c, 0, 33, 0
3, 168660, Note_on_c, 0, 54, 83
3, 168660, Note_on_c, 0, 60, 83
3, 168660, Note_on_c, 0, 64, 83
3, 168749, Note_on_c, 0, 64, 0
3, 168749, Note_on_c, 0, 60, 0
3, 168749, Note_on_c, 0, 54, 0
3, 168840, Note_on_c, 0, 54, 79
3, 168840, Note_on_c, 0, 60, 79
3, 168840, Note_on_c, 0, 64, 79
3, 168929, Note_on_c, 0, 64, 0
3, 168929, Note_on_c, 0, 60, 0
3, 168929, Note_on_c, 0, 54, 0
3, 169020, Note_on_c, 0, 38, 75
3, 169200, Note_on_c, 0, 38, 0
3, 169200, Note_on_c, 0, 54, 70
3, 169200, Note_on_c, 0, 60, 70
3, 169200, Note_on_c, 0, 63, 70
3, 169289, Note_on_c, 0, 63, 0
3, 169289, Note_on_c, 0, 60, 0
3, 169289, Note_on_c, 0, 54, 0
3, 169380, Note_on_c, 0, 54, 66
3, 169380, Note_on_c, 0, 60, 66
3, 169380, Note_on_c, 0, 63, 66
3, 169469, Note_on_c, 0, 63, 0
3, 169469, Note_on_c, 0, 60, 0
3, 169469, Note_on_c, 0, 54, 0
3, 169560, Note_on_c, 0, 38, 62
3, 169740, Note_on_c, 0, 38, 0
3, 169740, Note_on_c, 0, 54, 46
3, 169740, Note_on_c, 0, 60, 46
3, 169740, Note_on_c, 0, 63, 46
3, 169829, Note_on_c, 0, 63, 0
3, 169829, Note_on_c, 0, 60, 0
3, 169829, Note_on_c, 0, 54, 0
3, 169920, Note_on_c, 0, 54, 47
3, 169920, Note_on_c, 0, 60, 47
3, 169920, Note_on_c, 0, 63, 47
3, 170009, Note_on_c, 0, 63, 0
3, 170009, Note_on_c, 0, 60, 0
3, 170009, Note_on_c, 0, 54, 0
3, 172859, Note_on_c, 0, 68, 80
3, 172920, Note_on_c, 0, 68, 0
3, 172920, Note_on_c, 0, 71, 100
3, 172980, Note_on_c, 0, 71, 0
3, 172980, Note_on_c, 0, 75, 99
3, 173039, Note_on_c, 0, 75, 0
3, 173039, Note_on_c, 0, 78, 96
3, 173100, Note_on_c, 0, 78, 0
3, 173100, Note_on_c, 0, 79, 93
3, 173160, Note_on_c, 0, 79, 0
3, 173160, Note_on_c, 0, 80, 97
3, 173219, Note_on_c, 0, 80, 0
3, 173219, Note_on_c, 0, 83, 94
3, 173280, Note_on_c, 0, 83, 0
3, 173280, Note_on_c, 0, 87, 106
3, 173340, Note_on_c, 0, 87, 0
3, 173340, Note_on_c, 0, 84, 84
3, 173399, Note_on_c, 0, 84, 0
3, 173399, Note_on_c, 0, 81, 79
3, 173460, Note_on_c, 0, 81, 0
3, 173460, Note_on_c, 0, 78, 78
3, 173520, Note_on_c, 0, 78, 0
3, 173520, Note_on_c, 0, 75, 77
3, 173700, Note_on_c, 0, 75, 0
3, 173939, Note_on_c, 0, 63, 76
3, 174000, Note_on_c, 0, 63, 0
3, 174000, Note_on_c, 0, 67, 90
3, 174060, Note_on_c, 0, 67, 0
3, 174060, Note_on_c, 0, 68, 91
3, 174119, Note_on_c, 0, 68, 0
3, 174119, Note_on_c, 0, 71, 96
3, 174180, Note_on_c, 0, 71, 0
3, 174180, Note_on_c, 0, 74, 100
3, 174240, Note_on_c, 0, 74, 0
3, 174240, Note_on_c, 0, 75, 93
3, 174299, Note_on_c, 0, 75, 0
3, 174299, Note_on_c, 0, 80, 103
3, 174360, Note_on_c, 0, 80, 0
3, 174360, Note_on_c, 0, 79, 84
3, 174420, Note_on_c, 0, 79, 0
3, 174420, Note_on_c, 0, 78, 84
3, 174479, Note_on_c, 0, 78, 0
3, 174479, Note_on_c, 0, 75, 81
3, 174540, Note_on_c, 0, 75, 0
3, 174540, Note_on_c, 0, 72, 79
3, 174600, Note_on_c, 0, 72, 0
3, 174600, Note_on_c, 0, 69, 79
3, 174780, Note_on_c, 0, 69, 0
3, 175500, Note_on_c, 0, 60, 45
3, 175500, Note_on_c, 0, 63, 45
3, 175500, Note_on_c, 0, 69, 45
3, 175500, Note_on_c, 0, 55, 43
3, 176040, Note_on_c, 0, 55, 0
3, 176040, Note_on_c, 0, 60, 0
3, 176040, Note_on_c, 0, 63, 0
3, 176040, Note_on_c, 0, 69, 0
3, 176040, Note_on_c, 0, 68, 73
3, 176040, Note_on_c, 0, 59, 65
3, 176040, Note_on_c, 0, 63, 65
3, 176040, Note_on_c, 0, 54, 73
3, 177120, Note_on_c, 0, 54, 0
3, 177120, Note_on_c, 0, 55, 48
3, 177660, Note_on_c, 0, 55, 0
3, 177660, Note_on_c, 0, 68, 0
3, 177660, Note_on_c, 0, 67, 52
3, 177660, Note_on_c, 0, 56, 53
3, 178200, Note_on_c, 0, 56, 0
3, 178200, Note_on_c, 0, 59, 0
3, 178200, Note_on_c, 0, 63, 0
3, 178200, Note_on_c, 0, 67, 0
3, 178200, Note_on_c, 0, 38, 62
3, 178379, Note_on_c, 0, 38, 0
3, 178380, Note_on_c, 0, 57, 76
3, 178380, Note_on_c, 0, 60, 76
3, 178380, Note_on_c, 0, 63, 76
3, 178380, Note_on_c, 0, 66, 76
3, 178469, Note_on_c, 0, 66, 0
3, 178469, Note_on_c, 0, 57, 0
3, 178469, Note_on_c, 0, 60, 0
3, 178469, Note_on_c, 0, 63, 0
3, 178560, Note_on_c, 0, 57, 84
3, 178560, Note_on_c, 0, 60, 84
3, 178560, Note_on_c, 0, 63, 84
3, 178560, Note_on_c, 0, 66, 84
3, 178649, Note_on_c, 0, 66, 0
3, 178649, Note_on_c, 0, 57, 0
3, 178649, Note_on_c, 0, 60, 0
3, 178649, Note_on_c, 0, 63, 0
3, 178740, Note_on_c, 0, 32, 69
3, 178740, Note_on_c, 0, 39, 69
3, 178740, Note_on_c, 0, 44, 69
3, 178919, Note_on_c, 0, 44, 0
3, 178919, Note_on_c, 0, 39, 0
3, 178919, Note_on_c, 0, 32, 0
3, 178920, Note_on_c, 0, 58, 78
3, 178920, Note_on_c, 0, 60, 78
3, 178920, Note_on_c, 0, 63, 78
3, 178920, Note_on_c, 0, 66, 78
3, 179009, Note_on_c, 0, 66, 0
3, 179009, Note_on_c, 0, 58, 0
3, 179009, Note_on_c, 0, 60, 0
3, 179009, Note_on_c, 0, 63, 0
3, 179100, Note_on_c, 0, 58, 86
3, 179100, Note_on_c, 0, 60, 86
3, 179100, Note_on_c, 0, 63, 86
3, 179100, Note_on_c, 0, 66, 86
3, 179189, Note_on_c, 0, 66, 0
3, 179189, Note_on_c, 0, 58, 0
3, 179189, Note_on_c, 0, 60, 0
3, 179189, Note_on_c, 0, 63, 0
3, 179280, Note_on_c, 0, 38, 67
3, 179459, Note_on_c, 0, 38, 0
3, 179460, Note_on_c, 0, 57, 83
3, 179460, Note_on_c, 0, 60, 83
3, 179460, Note_on_c, 0, 63, 83
3, 179460, Note_on_c, 0, 66, 83
3, 179549, Note_on_c, 0, 66, 0
3, 179549, Note_on_c, 0, 57, 0
3, 179549, Note_on_c, 0, 60, 0
3, 179549, Note_on_c, 0, 63, 0
3, 179640, Note_on_c, 0, 57, 79
3, 179640, Note_on_c, 0, 60, 79
3, 179640, Note_on_c, 0, 63, 79
3, 179640, Note_on_c, 0, 66, 79
3, 179729, Note_on_c, 0, 66, 0
3, 179729, Note_on_c, 0, 57, 0
3, 179729, Note_on_c, 0, 60, 0
3, 179729, Note_on_c, 0, 63, 0
3, 179820, Note_on_c, 0, 32, 69
3, 179820, Note_on_c, 0, 39, 69
3, 179820, Note_on_c, 0, 44, 69
3, 179999, Note_on_c, 0, 44, 0
3, 179999, Note_on_c, 0, 39, 0
3, 179999, Note_on_c, 0, 32, 0
3, 180000, Note_on_c, 0, 58, 70
3, 180000, Note_on_c, 0, 60, 70
3, 180000, Note_on_c, 0, 63, 70
3, 180000, Note_on_c, 0, 66, 70
3, 180089, Note_on_c, 0, 66, 0
3, 180089, Note_on_c, 0, 58, 0
3, 180089, Note_on_c, 0, 60, 0
3, 180089, Note_on_c, 0, 63, 0
3, 180180, Note_on_c, 0, 58, 66
3, 180180, Note_on_c, 0, 60, 66
3, 180180, Note_on_c, 0, 63, 66
3, 180180, Note_on_c, 0, 66, 66
3, 180269, Note_on_c, 0, 66, 0
3, 180269, Note_on_c, 0, 58, 0
3, 180269, Note_on_c, 0, 60, 0
3, 180269, Note_on_c, 0, 63, 0
3, 180360, Note_on_c, 0, 38, 62
3, 180539, Note_on_c, 0, 38, 0
3, 180540, Note_on_c, 0, 57, 52
3, 180540, Note_on_c, 0, 60, 52
3, 180540, Note_on_c, 0, 63, 52
3, 180540, Note_on_c, 0, 66, 52
3, 180629, Note_on_c, 0, 66, 0
3, 180629, Note_on_c, 0, 57, 0
3, 180629, Note_on_c, 0, 60, 0
3, 180629, Note_on_c, 0, 63, 0
3, 180720, Note_on_c, 0, 57, 60
3, 180720, Note_on_c, 0, 60, 60
3, 180720, Note_on_c, 0, 63, 60
3, 180720, Note_on_c, 0, 66, 60
3, 180809, Note_on_c, 0, 66, 0
3, 180809, Note_on_c, 0, 57, 0
3, 180809, Note_on_c, 0, 60, 0
3, 180809, Note_on_c, 0, 63, 0
3, 180900, Note_on_c, 0, 38, 64
3, 181079, Note_on_c, 0, 38, 0
3, 181080, Note_on_c, 0, 57, 49
3, 181080, Note_on_c, 0, 60, 49
3, 181080, Note_on_c, 0, 63, 49
3, 181080, Note_on_c, 0, 66, 49
3, 181169, Note_on_c, 0, 66, 0
3, 181169, Note_on_c, 0, 57, 0
3, 181169, Note_on_c, 0, 60, 0
3, 181169, Note_on_c, 0, 63, 0
3, 181260, Note_on_c, 0, 57, 65
3, 181260, Note_on_c, 0, 60, 65
3, 181260, Note_on_c, 0, 63, 65
3, 181260, Note_on_c, 0, 66, 65
3, 181349, Note_on_c, 0, 66, 0
3, 181349, Note_on_c, 0, 57, 0
3, 181349, Note_on_c, 0, 60, 0
3, 181349, Note_on_c, 0, 63, 0
3, 181440, Note_on_c, 0, 38, 70
3, 181529, Note_on_c, 0, 38, 0
3, 181620, Note_on_c, 0, 57, 57
3, 181620, Note_on_c, 0, 60, 57
3, 181620, Note_on_c, 0, 63, 57
3, 181620, Note_on_c, 0, 66, 57
3, 181709, Note_on_c, 0, 66, 0
3, 181709, Note_on_c, 0, 57, 0
3, 181709, Note_on_c, 0, 60, 0
3, 181709, Note_on_c, 0, 63, 0
3, 184680, Note_on_c, 0, 55, 65
3, 185220, Note_on_c, 0, 55, 0
3, 185220, Note_on_c, 0, 58, 79
3, 186300, Note_on_c, 0, 58, 0
3, 186300, Note_on_c, 0, 61, 78
3, 186840, Note_on_c, 0, 61, 0
3, 186840, Note_on_c, 0, 62, 75
3, 186840, Note_on_c, 0, 50, 65
3, 187380, Note_on_c, 0, 50, 0
3, 187380, Note_on_c, 0, 62, 0
3, 187380, Note_on_c, 0, 65, 80
3, 187380, Note_on_c, 0, 53, 79
3, 188460, Note_on_c, 0, 53, 0
3, 188460, Note_on_c, 0, 65, 0
3, 188460, Note_on_c, 0, 67, 73
3, 188460, Note_on_c, 0, 55, 76
3, 188730, Note_on_c, 0, 55, 0
3, 188730, Note_on_c, 0, 67, 0
3, 188730, Note_on_c, 0, 69, 78
3, 188730, Note_on_c, 0, 57, 76
3, 188820, Note_on_c, 0, 57, 0
3, 188820, Note_on_c, 0, 69, 0
3, 188820, Note_on_c, 0, 70, 75
3, 188820, Note_on_c, 0, 58, 73
3, 189000, Note_on_c, 0, 58, 0
3, 189000, Note_on_c, 0, 70, 0
3, 189000, Note_on_c, 0, 69, 73
3, 189000, Note_on_c, 0, 57, 71
3, 189540, Note_on_c, 0, 57, 0
3, 189540, Note_on_c, 0, 69, 0
3, 189540, Note_on_c, 0, 66, 65
3, 189540, Note_on_c, 0, 54, 67
3, 190080, Note_on_c, 0, 54, 0
3, 190080, Note_on_c, 0, 66, 0
3, 190080, Note_on_c, 0, 66, 75
3, 190080, Note_on_c, 0, 54, 73
3, 190620, Note_on_c, 0, 54, 0
3, 190620, Note_on_c, 0, 66, 0
3, 190800, Note_on_c, 0, 67, 66
3, 190800, Note_on_c, 0, 55, 67
3, 190980, Note_on_c, 0, 55, 0
3, 190980, Note_on_c, 0, 67, 0
3, 190980, Note_on_c, 0, 70, 81
3, 190980, Note_on_c, 0, 58, 77
3, 191160, Note_on_c, 0, 58, 0
3, 191160, Note_on_c, 0, 70, 0
3, 191160, Note_on_c, 0, 69, 67
3, 191160, Note_on_c, 0, 57, 74
3, 191340, Note_on_c, 0, 57, 0
3, 191340, Note_on_c, 0, 69, 0
3, 191340, Note_on_c, 0, 72, 79
3, 191340, Note_on_c, 0, 60, 80
3, 191520, Note_on_c, 0, 60, 0
3, 191520, Note_on_c, 0, 72, 0
3, 191520, Note_on_c, 0, 75, 81
3, 191520, Note_on_c, 0, 63, 78
3, 191700, Note_on_c, 0, 63, 0
3, 191700, Note_on_c, 0, 75, 0
3, 191700, Note_on_c, 0, 72, 67
3, 191700, Note_on_c, 0, 60, 66
3, 192420, Note_on_c, 0, 60, 0
3, 192420, Note_on_c, 0, 72, 0
3, 192420, Note_on_c, 0, 74, 78
3, 192420, Note_on_c, 0, 62, 79
3, 192600, Note_on_c, 0, 62, 0
3, 192600, Note_on_c, 0, 74, 0
3, 192600, Note_on_c, 0, 77, 82
3, 192600, Note_on_c, 0, 65, 81
3, 192780, Note_on_c, 0, 65, 0
3, 192780, Note_on_c, 0, 77, 0
3, 192780, Note_on_c, 0, 75, 69
3, 192780, Note_on_c, 0, 63, 66
3, 193140, Note_on_c, 0, 63, 0
3, 193140, Note_on_c, 0, 75, 0
3, 193140, Note_on_c, 0, 80, 85
3, 193140, Note_on_c, 0, 68, 80
3, 193320, Note_on_c, 0, 68, 0
3, 193320, Note_on_c, 0, 80, 0
3, 193320, Note_on_c, 0, 78, 69
3, 193320, Note_on_c, 0, 66, 69
3, 193680, Note_on_c, 0, 66, 0
3, 193680, Note_on_c, 0, 78, 0
3, 193680, Note_on_c, 0, 81, 80
3, 193680, Note_on_c, 0, 69, 78
3, 193860, Note_on_c, 0, 69, 0
3, 193860, Note_on_c, 0, 81, 0
3, 193860, Note_on_c, 0, 74, 58
3, 193860, Note_on_c, 0, 62, 54
3, 195120, Note_on_c, 0, 62, 1
3, 195120, Note_on_c, 0, 54, 1
3, 195209, Note_on_c, 0, 54, 0
3, 195209, Note_on_c, 0, 62, 0
3, 195210, Note_on_c, 0, 61, 6
3, 195300, Note_on_c, 0, 61, 0
3, 195300, Note_on_c, 0, 60, 7
3, 195300, Note_on_c, 0, 62, 1
3, 195300, Note_on_c, 0, 54, 1
3, 195389, Note_on_c, 0, 54, 0
3, 195389, Note_on_c, 0, 62, 0
3, 195390, Note_on_c, 0, 60, 0
3, 195390, Note_on_c, 0, 59, 11
3, 195480, Note_on_c, 0, 59, 0
3, 195480, Note_on_c, 0, 74, 0
3, 195480, Note_on_c, 0, 62, 0
3, 195480, Note_on_c, 0, 58, 57
3, 195480, Note_on_c, 0, 62, 57
3, 195480, Note_on_c, 0, 67, 57
3, 195480, Note_on_c, 0, 31, 62
3, 195480, Note_on_c, 0, 43, 62
3, 196020, Note_on_c, 0, 43, 0
3, 196020, Note_on_c, 0, 67, 0
3, 196020, Note_on_c, 0, 58, 0
3, 196020, Note_on_c, 0, 62, 0
3, 196020, Note_on_c, 0, 31, 0
3, 196020, Note_on_c, 0, 57, 61
3, 196020, Note_on_c, 0, 58, 61
3, 196020, Note_on_c, 0, 62, 61
3, 196020, Note_on_c, 0, 66, 61
3, 196020, Note_on_c, 0, 34, 73
3, 196020, Note_on_c, 0, 46, 73
3, 196380, Note_on_c, 0, 66, 0
3, 196380, Note_on_c, 0, 62, 0
3, 196380, Note_on_c, 0, 57, 0
3, 196380, Note_on_c, 0, 58, 0
3, 196380, Note_on_c, 0, 56, 68
3, 196380, Note_on_c, 0, 58, 68
3, 196380, Note_on_c, 0, 62, 68
3, 196380, Note_on_c, 0, 65, 68
3, 196560, Note_on_c, 0, 65, 0
3, 196560, Note_on_c, 0, 46, 0
3, 196560, Note_on_c, 0, 56, 0
3, 196560, Note_on_c, 0, 34, 0
3, 196560, Note_on_c, 0, 62, 0
3, 196560, Note_on_c, 0, 58, 0
3, 196560, Note_on_c, 0, 55, 66
3, 196560, Note_on_c, 0, 63, 66
3, 196560, Note_on_c, 0, 58, 7
3, 196560, Note_on_c, 0, 36, 80
3, 196560, Note_on_c, 0, 48, 80
3, 196920, Note_on_c, 0, 48, 0
3, 196920, Note_on_c, 0, 58, 0
3, 196920, Note_on_c, 0, 36, 0
3, 196920, Note_on_c, 0, 60, 12
3, 196920, Note_on_c, 0, 33, 74
3, 196920, Note_on_c, 0, 45, 74
3, 197100, Note_on_c, 0, 45, 0
3, 197100, Note_on_c, 0, 60, 0
3, 197100, Note_on_c, 0, 55, 0
3, 197100, Note_on_c, 0, 63, 0
3, 197100, Note_on_c, 0, 33, 0
3, 197100, Note_on_c, 0, 57, 75
3, 197100, Note_on_c, 0, 62, 75
3, 197100, Note_on_c, 0, 65, 75
3, 197100, Note_on_c, 0, 38, 81
3, 197100, Note_on_c, 0, 50, 81
3, 197640, Note_on_c, 0, 50, 0
3, 197640, Note_on_c, 0, 65, 0
3, 197640, Note_on_c, 0, 57, 0
3, 197640, Note_on_c, 0, 62, 0
3, 197640, Note_on_c, 0, 38, 0
3, 197640, Note_on_c, 0, 57, 74
3, 197640, Note_on_c, 0, 61, 74
3, 197640, Note_on_c, 0, 65, 74
3, 197640, Note_on_c, 0, 39, 74
3, 197640, Note_on_c, 0, 51, 74
3, 198000, Note_on_c, 0, 65, 0
3, 198000, Note_on_c, 0, 57, 0
3, 198000, Note_on_c, 0, 61, 0
3, 198000, Note_on_c, 0, 58, 81
3, 198000, Note_on_c, 0, 60, 81
3, 198000, Note_on_c, 0, 66, 81
3, 198180, Note_on_c, 0, 66, 0
3, 198180, Note_on_c, 0, 58, 0
3, 198180, Note_on_c, 0, 51, 0
3, 198180, Note_on_c, 0, 39, 0
3, 198180, Note_on_c, 0, 60, 0
3, 198180, Note_on_c, 0, 70, 81
3, 198180, Note_on_c, 0, 34, 64
3, 198180, Note_on_c, 0, 46, 64
3, 198720, Note_on_c, 0, 46, 0
3, 198720, Note_on_c, 0, 34, 0
3, 198720, Note_on_c, 0, 70, 0
3, 198720, Note_on_c, 0, 60, 68
3, 198720, Note_on_c, 0, 63, 68
3, 198720, Note_on_c, 0, 65, 68
3, 198720, Note_on_c, 0, 69, 68
3, 198720, Note_on_c, 0, 37, 75
3, 198720, Note_on_c, 0, 49, 75
3, 198900, Note_on_c, 0, 69, 0
3, 198900, Note_on_c, 0, 65, 0
3, 198900, Note_on_c, 0, 60, 0
3, 198900, Note_on_c, 0, 63, 0
3, 198900, Note_on_c, 0, 57, 66
3, 198900, Note_on_c, 0, 60, 66
3, 198900, Note_on_c, 0, 63, 66
3, 198900, Note_on_c, 0, 65, 66
3, 199080, Note_on_c, 0, 65, 0
3, 199080, Note_on_c, 0, 60, 0
3, 199080, Note_on_c, 0, 57, 0
3, 199080, Note_on_c, 0, 63, 0
3, 199080, Note_on_c, 0, 59, 81
3, 199080, Note_on_c, 0, 63, 81
3, 199080, Note_on_c, 0, 65, 81
3, 199080, Note_on_c, 0, 68, 81
3, 199260, Note_on_c, 0, 68, 0
3, 199260, Note_on_c, 0, 37, 0
3, 199260, Note_on_c, 0, 59, 0
3, 199260, Note_on_c, 0, 49, 0
3, 199260, Note_on_c, 0, 65, 0
3, 199260, Note_on_c, 0, 63, 0
3, 199260, Note_on_c, 0, 58, 71
3, 199260, Note_on_c, 0, 66, 71
3, 199260, Note_on_c, 0, 62, 7
3, 199260, Note_on_c, 0, 39, 75
3, 199260, Note_on_c, 0, 51, 75
3, 199620, Note_on_c, 0, 51, 0
3, 199620, Note_on_c, 0, 62, 0
3, 199620, Note_on_c, 0, 39, 0
3, 199620, Note_on_c, 0, 63, 7
3, 199620, Note_on_c, 0, 36, 72
3, 199620, Note_on_c, 0, 48, 72
3, 199800, Note_on_c, 0, 48, 0
3, 199800, Note_on_c, 0, 63, 0
3, 199800, Note_on_c, 0, 58, 0
3, 199800, Note_on_c, 0, 66, 0
3, 199800, Note_on_c, 0, 36, 0
3, 199800, Note_on_c, 0, 56, 79
3, 199800, Note_on_c, 0, 60, 79
3, 199800, Note_on_c, 0, 65, 79
3, 199800, Note_on_c, 0, 68, 79
3, 199800, Note_on_c, 0, 41, 81
3, 199800, Note_on_c, 0, 53, 81
3, 200340, Note_on_c, 0, 53, 0
3, 200340, Note_on_c, 0, 60, 0
3, 200340, Note_on_c, 0, 65, 0
3, 200340, Note_on_c, 0, 56, 0
3, 200340, Note_on_c, 0, 41, 0
3, 200340, Note_on_c, 0, 68, 0
3, 200340, Note_on_c, 0, 59, 72
3, 200340, Note_on_c, 0, 65, 72
3, 200340, Note_on_c, 0, 68, 72
3, 200340, Note_on_c, 0, 63, 13
3, 200340, Note_on_c, 0, 37, 69
3, 200340, Note_on_c, 0, 49, 69
3, 200520, Note_on_c, 0, 63, 0
3, 200520, Note_on_c, 0, 62, 9
3, 200700, Note_on_c, 0, 62, 0
3, 200700, Note_on_c, 0, 65, 0
3, 200700, Note_on_c, 0, 59, 0
3, 200700, Note_on_c, 0, 68, 0
3, 200700, Note_on_c, 0, 59, 78
3, 200700, Note_on_c, 0, 65, 78
3, 200700, Note_on_c, 0, 69, 78
3, 200700, Note_on_c, 0, 61, 7
3, 200880, Note_on_c, 0, 61, 0
3, 200880, Note_on_c, 0, 49, 0
3, 200880, Note_on_c, 0, 59, 0
3, 200880, Note_on_c, 0, 37, 0
3, 200880, Note_on_c, 0, 69, 0
3, 200880, Note_on_c, 0, 65, 0
3, 200880, Note_on_c, 0, 57, 67
3, 200880, Note_on_c, 0, 61, 67
3, 200880, Note_on_c, 0, 66, 67
3, 200880, Note_on_c, 0, 30, 65
3, 200880, Note_on_c, 0, 42, 65
3, 201060, Note_on_c, 0, 66, 0
3, 201060, Note_on_c, 0, 57, 0
3, 201060, Note_on_c, 0, 61, 0
3, 201060, Note_on_c, 0, 57, 83
3, 201060, Note_on_c, 0, 66, 83
3, 201060, Note_on_c, 0, 61, 9
3, 201420, Note_on_c, 0, 61, 0
3, 201420, Note_on_c, 0, 42, 0
3, 201420, Note_on_c, 0, 30, 0
3, 201420, Note_on_c, 0, 60, 7
3, 201420, Note_on_c, 0, 32, 77
3, 201420, Note_on_c, 0, 44, 77
3, 201600, Note_on_c, 0, 60, 0
3, 201600, Note_on_c, 0, 66, 0
3, 201600, Note_on_c, 0, 57, 0
3, 201600, Note_on_c, 0, 66, 75
3, 201600, Note_on_c, 0, 54, 7
3, 201600, Note_on_c, 0, 57, 7
3, 201600, Note_on_c, 0, 60, 7
3, 201780, Note_on_c, 0, 66, 0
3, 201780, Note_on_c, 0, 65, 68
3, 201960, Note_on_c, 0, 65, 0
3, 201960, Note_on_c, 0, 60, 0
3, 201960, Note_on_c, 0, 54, 0
3, 201960, Note_on_c, 0, 44, 0
3, 201960, Note_on_c, 0, 32, 0
3, 201960, Note_on_c, 0, 57, 0
3, 201960, Note_on_c, 0, 52, 70
3, 201960, Note_on_c, 0, 57, 70
3, 201960, Note_on_c, 0, 60, 70
3, 201960, Note_on_c, 0, 64, 70
3, 201960, Note_on_c, 0, 33, 75
3, 201960, Note_on_c, 0, 45, 75
3, 202140, Note_on_c, 0, 64, 0
3, 202140, Note_on_c, 0, 60, 0
3, 202140, Note_on_c, 0, 52, 0
3, 202140, Note_on_c, 0, 57, 0
3, 202140, Note_on_c, 0, 52, 82
3, 202140, Note_on_c, 0, 57, 82
3, 202140, Note_on_c, 0, 60, 82
3, 202140, Note_on_c, 0, 64, 82
3, 202500, Note_on_c, 0, 45, 0
3, 202500, Note_on_c, 0, 33, 0
3, 202500, Note_on_c, 0, 35, 78
3, 202500, Note_on_c, 0, 47, 78
3, 202680, Note_on_c, 0, 60, 0
3, 202680, Note_on_c, 0, 52, 0
3, 202680, Note_on_c, 0, 57, 0
3, 202680, Note_on_c, 0, 64, 0
3, 202680, Note_on_c, 0, 69, 85
3, 202680, Note_on_c, 0, 57, 10
3, 202680, Note_on_c, 0, 60, 10
3, 202680, Note_on_c, 0, 63, 10
3, 202860, Note_on_c, 0, 69, 0
3, 202860, Note_on_c, 0, 68, 68
3, 203040, Note_on_c, 0, 68, 0
3, 203040, Note_on_c, 0, 63, 0
3, 203040, Note_on_c, 0, 57, 0
3, 203040, Note_on_c, 0, 35, 0
3, 203040, Note_on_c, 0, 47, 0
3, 203040, Note_on_c, 0, 60, 0
3, 203040, Note_on_c, 0, 55, 69
3, 203040, Note_on_c, 0, 60, 69
3, 203040, Note_on_c, 0, 63, 69
3, 203040, Note_on_c, 0, 67, 69
3, 203040, Note_on_c, 0, 36, 72
3, 203040, Note_on_c, 0, 48, 72
3, 203220, Note_on_c, 0, 67, 0
3, 203220, Note_on_c, 0, 63, 0
3, 203220, Note_on_c, 0, 55, 0
3, 203220, Note_on_c, 0, 60, 0
3, 203220, Note_on_c, 0, 55, 83
3, 203220, Note_on_c, 0, 60, 83
3, 203220, Note_on_c, 0, 63, 83
3, 203220, Note_on_c, 0, 67, 83
3, 203580, Note_on_c, 0, 48, 0
3, 203580, Note_on_c, 0, 36, 0
3, 203580, Note_on_c, 0, 38, 75
3, 203580, Note_on_c, 0, 50, 75
3, 203760, Note_on_c, 0, 63, 0
3, 203760, Note_on_c, 0, 55, 0
3, 203760, Note_on_c, 0, 60, 0
3, 203760, Note_on_c, 0, 67, 0
3, 203760, Note_on_c, 0, 72, 81
3, 203760, Note_on_c, 0, 60, 12
3, 203760, Note_on_c, 0, 62, 12
3, 203760, Note_on_c, 0, 66, 12
3, 203940, Note_on_c, 0, 72, 0
3, 203940, Note_on_c, 0, 71, 71
3, 204120, Note_on_c, 0, 71, 0
3, 204120, Note_on_c, 0, 66, 0
3, 204120, Note_on_c, 0, 60, 0
3, 204120, Note_on_c, 0, 38, 0
3, 204120, Note_on_c, 0, 50, 0
3, 204120, Note_on_c, 0, 62, 0
3, 204120, Note_on_c, 0, 58, 73
3, 204120, Note_on_c, 0, 63, 73
3, 204120, Note_on_c, 0, 66, 73
3, 204120, Note_on_c, 0, 70, 73
3, 204120, Note_on_c, 0, 39, 75
3, 204120, Note_on_c, 0, 51, 75
3, 204300, Note_on_c, 0, 70, 0
3, 204300, Note_on_c, 0, 66, 0
3, 204300, Note_on_c, 0, 58, 0
3, 204300, Note_on_c, 0, 63, 0
3, 204300, Note_on_c, 0, 58, 76
3, 204300, Note_on_c, 0, 63, 76
3, 204300, Note_on_c, 0, 66, 76
3, 204300, Note_on_c, 0, 70, 76
3, 204458, Note_on_c, 0, 70, 0
3, 204458, Note_on_c, 0, 63, 0
3, 204458, Note_on_c, 0, 58, 0
3, 204458, Note_on_c, 0, 66, 0
3, 204480, Note_on_c, 0, 58, 79
3, 204480, Note_on_c, 0, 63, 79
3, 204480, Note_on_c, 0, 66, 79
3, 204480, Note_on_c, 0, 70, 79
3, 204660, Note_on_c, 0, 39, 0
3, 204660, Note_on_c, 0, 51, 0
3, 204840, Note_on_c, 0, 66, 0
3, 204840, Note_on_c, 0, 63, 0
3, 204840, Note_on_c, 0, 70, 0
3, 204840, Note_on_c, 0, 58, 0
3, 204840, Note_on_c, 0, 63, 85
3, 204840, Note_on_c, 0, 66, 85
3, 204840, Note_on_c, 0, 70, 85
3, 204840, Note_on_c, 0, 59, 75
3, 204998, Note_on_c, 0, 59, 0
3, 204998, Note_on_c, 0, 63, 0
3, 204998, Note_on_c, 0, 66, 0
3, 204998, Note_on_c, 0, 70, 0
3, 205020, Note_on_c, 0, 63, 87
3, 205020, Note_on_c, 0, 66, 87
3, 205020, Note_on_c, 0, 70, 87
3, 205020, Note_on_c, 0, 59, 80
3, 205380, Note_on_c, 0, 59, 0
3, 205380, Note_on_c, 0, 63, 0
3, 205380, Note_on_c, 0, 66, 0
3, 205380, Note_on_c, 0, 70, 0
3, 205380, Note_on_c, 0, 63, 93
3, 205380, Note_on_c, 0, 66, 93
3, 205380, Note_on_c, 0, 70, 93
3, 205380, Note_on_c, 0, 60, 89
3, 205538, Note_on_c, 0, 60, 0
3, 205538, Note_on_c, 0, 63, 0
3, 205538, Note_on_c, 0, 66, 0
3, 205538, Note_on_c, 0, 70, 0
3, 205560, Note_on_c, 0, 61, 96
3, 205560, Note_on_c, 0, 63, 96
3, 205560, Note_on_c, 0, 66, 96
3, 205560, Note_on_c, 0, 70, 96
3, 205718, Note_on_c, 0, 70, 0
3, 205718, Note_on_c, 0, 61, 0
3, 205718, Note_on_c, 0, 63, 0
3, 205718, Note_on_c, 0, 66, 0
3, 205740, Note_on_c, 0, 50, 35
3, 205740, Note_on_c, 0, 55, 35
3, 205740, Note_on_c, 0, 58, 35
3, 205740, Note_on_c, 0, 62, 35
3, 205740, Note_on_c, 0, 31, 60
3, 205740, Note_on_c, 0, 43, 60
3, 205920, Note_on_c, 0, 67, 95
3, 205920, Note_on_c, 0, 58, 1
3, 205920, Note_on_c, 0, 62, 1
3, 205920, Note_on_c, 0, 67, 1
3, 205965, Note_on_c, 0, 67, 0
3, 205965, Note_on_c, 0, 69, 108
3, 206009, Note_on_c, 0, 67, 0
3, 206009, Note_on_c, 0, 58, 0
3, 206009, Note_on_c, 0, 62, 0
3, 206010, Note_on_c, 0, 69, 0
3, 206010, Note_on_c, 0, 70, 111
3, 206055, Note_on_c, 0, 70, 0
3, 206055, Note_on_c, 0, 72, 109
3, 206100, Note_on_c, 0, 72, 0
3, 206100, Note_on_c, 0, 74, 109
3, 206100, Note_on_c, 0, 58, 1
3, 206100, Note_on_c, 0, 62, 1
3, 206100, Note_on_c, 0, 67, 1
3, 206145, Note_on_c, 0, 74, 0
3, 206145, Note_on_c, 0, 76, 108
3, 206189, Note_on_c, 0, 67, 0
3, 206189, Note_on_c, 0, 62, 0
3, 206189, Note_on_c, 0, 58, 0
3, 206190, Note_on_c, 0, 76, 0
3, 206190, Note_on_c, 0, 78, 110
3, 206235, Note_on_c, 0, 78, 0
3, 206235, Note_on_c, 0, 79, 107
3, 206280, Note_on_c, 0, 79, 0
3, 206280, Note_on_c, 0, 62, 0
3, 206280, Note_on_c, 0, 55, 0
3, 206280, Note_on_c, 0, 31, 0
3, 206280, Note_on_c, 0, 58, 0
3, 206280, Note_on_c, 0, 43, 0
3, 206280, Note_on_c, 0, 50, 0
3, 206280, Note_on_c, 0, 81, 113
3, 206280, Note_on_c, 0, 33, 72
3, 206280, Note_on_c, 0, 45, 72
3, 206325, Note_on_c, 0, 81, 0
3, 206325, Note_on_c, 0, 82, 108
3, 206370, Note_on_c, 0, 82, 0
3, 206370, Note_on_c, 0, 81, 98
3, 206415, Note_on_c, 0, 81, 0
3, 206415, Note_on_c, 0, 82, 109
3, 206460, Note_on_c, 0, 82, 0
3, 206460, Note_on_c, 0, 81, 99
3, 206460, Note_on_c, 0, 55, 1
3, 206460, Note_on_c, 0, 57, 1
3, 206460, Note_on_c, 0, 61, 1
3, 206460, Note_on_c, 0, 67, 1
3, 206505, Note_on_c, 0, 81, 0
3, 206505, Note_on_c, 0, 80, 92
3, 206550, Note_on_c, 0, 80, 0
3, 206550, Note_on_c, 0, 79, 91
3, 206595, Note_on_c, 0, 79, 0
3, 206595, Note_on_c, 0, 78, 93
3, 206640, Note_on_c, 0, 78, 0
3, 206640, Note_on_c, 0, 67, 0
3, 206640, Note_on_c, 0, 57, 0
3, 206640, Note_on_c, 0, 55, 0
3, 206640, Note_on_c, 0, 61, 0
3, 206640, Note_on_c, 0, 77, 98
3, 206640, Note_on_c, 0, 55, 1
3, 206640, Note_on_c, 0, 58, 1
3, 206640, Note_on_c, 0, 61, 1
3, 206640, Note_on_c, 0, 66, 1
3, 206685, Note_on_c, 0, 77, 0
3, 206685, Note_on_c, 0, 76, 88
3, 206730, Note_on_c, 0, 76, 0
3, 206730, Note_on_c, 0, 75, 97
3, 206775, Note_on_c, 0, 75, 0
3, 206775, Note_on_c, 0, 74, 92
3, 206820, Note_on_c, 0, 74, 0
3, 206820, Note_on_c, 0, 66, 0
3, 206820, Note_on_c, 0, 33, 0
3, 206820, Note_on_c, 0, 55, 0
3, 206820, Note_on_c, 0, 45, 0
3, 206820, Note_on_c, 0, 61, 0
3, 206820, Note_on_c, 0, 58, 0
3, 206820, Note_on_c, 0, 73, 117
3, 206820, Note_on_c, 0, 34, 75
3, 206820, Note_on_c, 0, 46, 75
3, 207000, Note_on_c, 0, 46, 0
3, 207000, Note_on_c, 0, 34, 0
3, 207000, Note_on_c, 0, 73, 0
3, 207000, Note_on_c, 0, 53, 97
3, 207000, Note_on_c, 0, 58, 97
3, 207000, Note_on_c, 0, 61, 97
3, 207000, Note_on_c, 0, 65, 97
3, 207089, Note_on_c, 0, 65, 0
3, 207089, Note_on_c, 0, 53, 0
3, 207089, Note_on_c, 0, 58, 0
3, 207089, Note_on_c, 0, 61, 0
3, 207180, Note_on_c, 0, 73, 101
3, 207180, Note_on_c, 0, 77, 101
3, 207180, Note_on_c, 0, 53, 76
3, 207180, Note_on_c, 0, 58, 76
3, 207180, Note_on_c, 0, 61, 76
3, 207180, Note_on_c, 0, 65, 76
3, 207269, Note_on_c, 0, 65, 0
3, 207269, Note_on_c, 0, 58, 0
3, 207269, Note_on_c, 0, 53, 0
3, 207269, Note_on_c, 0, 61, 0
3, 207360, Note_on_c, 0, 33, 62
3, 207360, Note_on_c, 0, 45, 62
3, 207540, Note_on_c, 0, 45, 0
3, 207540, Note_on_c, 0, 77, 0
3, 207540, Note_on_c, 0, 73, 0
3, 207540, Note_on_c, 0, 33, 0
3, 207540, Note_on_c, 0, 74, 107
3, 207540, Note_on_c, 0, 78, 107
3, 207540, Note_on_c, 0, 54, 94
3, 207540, Note_on_c, 0, 60, 94
3, 207540, Note_on_c, 0, 62, 94
3, 207540, Note_on_c, 0, 66, 94
3, 207629, Note_on_c, 0, 66, 0
3, 207629, Note_on_c, 0, 60, 0
3, 207629, Note_on_c, 0, 54, 0
3, 207629, Note_on_c, 0, 62, 0
3, 207630, Note_on_c, 0, 74, 0
3, 207630, Note_on_c, 0, 78, 0
3, 207630, Note_on_c, 0, 73, 96
3, 207630, Note_on_c, 0, 77, 96
3, 207720, Note_on_c, 0, 77, 0
3, 207720, Note_on_c, 0, 73, 0
3, 207720, Note_on_c, 0, 72, 99
3, 207720, Note_on_c, 0, 76, 99
3, 207720, Note_on_c, 0, 54, 79
3, 207720, Note_on_c, 0, 60, 79
3, 207720, Note_on_c, 0, 62, 79
3, 207720, Note_on_c, 0, 66, 79
3, 207809, Note_on_c, 0, 66, 0
3, 207809, Note_on_c, 0, 60, 0
3, 207809, Note_on_c, 0, 54, 0
3, 207809, Note_on_c, 0, 62, 0
3, 207810, Note_on_c, 0, 72, 0
3, 207810, Note_on_c, 0, 76, 0
3, 207810, Note_on_c, 0, 74, 109
3, 207810, Note_on_c, 0, 78, 109
3, 207900, Note_on_c, 0, 78, 0
3, 207900, Note_on_c, 0, 74, 0
3, 207900, Note_on_c, 0, 73, 100
3, 207900, Note_on_c, 0, 77, 100
3, 207900, Note_on_c, 0, 34, 66
3, 207900, Note_on_c, 0, 46, 66
3, 208080, Note_on_c, 0, 46, 0
3, 208080, Note_on_c, 0, 73, 0
3, 208080, Note_on_c, 0, 77, 0
3, 208080, Note_on_c, 0, 34, 0
3, 208080, Note_on_c, 0, 53, 94
3, 208080, Note_on_c, 0, 58, 94
3, 208080, Note_on_c, 0, 61, 94
3, 208080, Note_on_c, 0, 65, 94
3, 208125, Note_on_c, 0, 70, 90
3, 208169, Note_on_c, 0, 65, 0
3, 208169, Note_on_c, 0, 61, 0
3, 208169, Note_on_c, 0, 53, 0
3, 208169, Note_on_c, 0, 58, 0
3, 208170, Note_on_c, 0, 70, 0
3, 208170, Note_on_c, 0, 71, 97
3, 208215, Note_on_c, 0, 71, 0
3, 208215, Note_on_c, 0, 72, 108
3, 208260, Note_on_c, 0, 72, 0
3, 208260, Note_on_c, 0, 73, 105
3, 208260, Note_on_c, 0, 53, 76
3, 208260, Note_on_c, 0, 58, 76
3, 208260, Note_on_c, 0, 61, 76
3, 208260, Note_on_c, 0, 65, 76
3, 208305, Note_on_c, 0, 73, 0
3, 208305, Note_on_c, 0, 75, 110
3, 208349, Note_on_c, 0, 61, 0
3, 208349, Note_on_c, 0, 65, 0
3, 208349, Note_on_c, 0, 53, 0
3, 208349, Note_on_c, 0, 58, 0
3, 208350, Note_on_c, 0, 75, 0
3, 208350, Note_on_c, 0, 76, 107
3, 208395, Note_on_c, 0, 76, 0
3, 208395, Note_on_c, 0, 77, 108
3, 208440, Note_on_c, 0, 77, 0
3, 208440, Note_on_c, 0, 82, 115
3, 208440, Note_on_c, 0, 36, 65
3, 208440, Note_on_c, 0, 48, 65
3, 208485, Note_on_c, 0, 82, 0
3, 208485, Note_on_c, 0, 81, 97
3, 208529, Note_on_c, 0, 48, 0
3, 208529, Note_on_c, 0, 36, 0
3, 208530, Note_on_c, 0, 81, 0
3, 208530, Note_on_c, 0, 80, 94
3, 208575, Note_on_c, 0, 80, 0
3, 208575, Note_on_c, 0, 79, 95
3, 208620, Note_on_c, 0, 79, 0
3, 208620, Note_on_c, 0, 81, 106
3, 208620, Note_on_c, 0, 58, 104
3, 208620, Note_on_c, 0, 61, 104
3, 208620, Note_on_c, 0, 64, 104
3, 208620, Note_on_c, 0, 69, 104
3, 208665, Note_on_c, 0, 81, 0
3, 208665, Note_on_c, 0, 80, 98
3, 208710, Note_on_c, 0, 80, 0
3, 208710, Note_on_c, 0, 79, 100
3, 208755, Note_on_c, 0, 79, 0
3, 208755, Note_on_c, 0, 78, 93
3, 208778, Note_on_c, 0, 64, 0
3, 208778, Note_on_c, 0, 69, 0
3, 208778, Note_on_c, 0, 58, 0
3, 208778, Note_on_c, 0, 61, 0
3, 208800, Note_on_c, 0, 78, 0
3, 208800, Note_on_c, 0, 77, 94
3, 208800, Note_on_c, 0, 58, 87
3, 208800, Note_on_c, 0, 61, 87
3, 208800, Note_on_c, 0, 64, 87
3, 208800, Note_on_c, 0, 68, 87
3, 208845, Note_on_c, 0, 77, 0
3, 208845, Note_on_c, 0, 76, 101
3, 208890, Note_on_c, 0, 76, 0
3, 208890, Note_on_c, 0, 75, 99
3, 208935, Note_on_c, 0, 75, 0
3, 208935, Note_on_c, 0, 74, 96
3, 208958, Note_on_c, 0, 64, 0
3, 208958, Note_on_c, 0, 68, 0
3, 208958, Note_on_c, 0, 58, 0
3, 208958, Note_on_c, 0, 61, 0
3, 208980, Note_on_c, 0, 74, 0
3, 208980, Note_on_c, 0, 73, 117
3, 208980, Note_on_c, 0, 37, 65
3, 208980, Note_on_c, 0, 49, 65
3, 209160, Note_on_c, 0, 49, 0
3, 209160, Note_on_c, 0, 37, 0
3, 209160, Note_on_c, 0, 73, 0
3, 209160, Note_on_c, 0, 52, 95
3, 209160, Note_on_c, 0, 57, 95
3, 209160, Note_on_c, 0, 61, 95
3, 209160, Note_on_c, 0, 64, 95
3, 209249, Note_on_c, 0, 64, 0
3, 209249, Note_on_c, 0, 52, 0
3, 209249, Note_on_c, 0, 57, 0
3, 209249, Note_on_c, 0, 61, 0
3, 209340, Note_on_c, 0, 73, 100
3, 209340, Note_on_c, 0, 76, 100
3, 209340, Note_on_c, 0, 52, 91
3, 209340, Note_on_c, 0, 57, 91
3, 209340, Note_on_c, 0, 61, 91
3, 209340, Note_on_c, 0, 64, 91
3, 209700, Note_on_c, 0, 64, 0
3, 209700, Note_on_c, 0, 76, 0
3, 209700, Note_on_c, 0, 52, 0
3, 209700, Note_on_c, 0, 73, 0
3, 209700, Note_on_c, 0, 61, 0
3, 209700, Note_on_c, 0, 57, 0
3, 209700, Note_on_c, 0, 74, 105
3, 209700, Note_on_c, 0, 77, 105
3, 209700, Note_on_c, 0, 53, 91
3, 209700, Note_on_c, 0, 57, 91
3, 209700, Note_on_c, 0, 63, 91
3, 209700, Note_on_c, 0, 65, 91
3, 209790, Note_on_c, 0, 77, 0
3, 209790, Note_on_c, 0, 74, 0
3, 209790, Note_on_c, 0, 73, 99
3, 209790, Note_on_c, 0, 76, 99
3, 209880, Note_on_c, 0, 76, 0
3, 209880, Note_on_c, 0, 73, 0
3, 209880, Note_on_c, 0, 72, 99
3, 209880, Note_on_c, 0, 75, 99
3, 209880, Note_on_c, 0, 36, 1
3, 209880, Note_on_c, 0, 48, 1
3, 209970, Note_on_c, 0, 75, 0
3, 209970, Note_on_c, 0, 72, 0
3, 209970, Note_on_c, 0, 74, 107
3, 209970, Note_on_c, 0, 77, 107
3, 210017, Note_on_c, 0, 53, 0
3, 210017, Note_on_c, 0, 57, 0
3, 210017, Note_on_c, 0, 63, 0
3, 210017, Note_on_c, 0, 65, 0
3, 210060, Note_on_c, 0, 36, 0
3, 210060, Note_on_c, 0, 77, 0
3, 210060, Note_on_c, 0, 48, 0
3, 210060, Note_on_c, 0, 74, 0
3, 210060, Note_on_c, 0, 73, 98
3, 210060, Note_on_c, 0, 76, 98
3, 210060, Note_on_c, 0, 37, 64
3, 210060, Note_on_c, 0, 49, 64
3, 210240, Note_on_c, 0, 49, 0
3, 210240, Note_on_c, 0, 37, 0
3, 210240, Note_on_c, 0, 52, 92
3, 210240, Note_on_c, 0, 57, 92
3, 210240, Note_on_c, 0, 61, 92
3, 210240, Note_on_c, 0, 64, 92
3, 210329, Note_on_c, 0, 64, 0
3, 210329, Note_on_c, 0, 57, 0
3, 210329, Note_on_c, 0, 52, 0
3, 210329, Note_on_c, 0, 61, 0
3, 210420, Note_on_c, 0, 73, 0
3, 210420, Note_on_c, 0, 76, 0
3, 210420, Note_on_c, 0, 69, 117
3, 210420, Note_on_c, 0, 73, 117
3, 210420, Note_on_c, 0, 76, 117
3, 210420, Note_on_c, 0, 52, 75
3, 210420, Note_on_c, 0, 57, 75
3, 210420, Note_on_c, 0, 61, 75
3, 210420, Note_on_c, 0, 64, 75
3, 210509, Note_on_c, 0, 64, 0
3, 210509, Note_on_c, 0, 57, 0
3, 210509, Note_on_c, 0, 52, 0
3, 210509, Note_on_c, 0, 61, 0
3, 210600, Note_on_c, 0, 39, 65
3, 210600, Note_on_c, 0, 51, 65
3, 210689, Note_on_c, 0, 51, 0
3, 210689, Note_on_c, 0, 39, 0
3, 210780, Note_on_c, 0, 73, 0
3, 210780, Note_on_c, 0, 76, 0
3, 210780, Note_on_c, 0, 69, 0
3, 210780, Note_on_c, 0, 70, 109
3, 210780, Note_on_c, 0, 73, 109
3, 210780, Note_on_c, 0, 75, 109
3, 210780, Note_on_c, 0, 58, 110
3, 210780, Note_on_c, 0, 61, 110
3, 210780, Note_on_c, 0, 63, 110
3, 211097, Note_on_c, 0, 63, 0
3, 211097, Note_on_c, 0, 73, 0
3, 211097, Note_on_c, 0, 75, 0
3, 211097, Note_on_c, 0, 70, 0
3, 211097, Note_on_c, 0, 61, 0
3, 211097, Note_on_c, 0, 58, 0
3, 211140, Note_on_c, 0, 32, 1
3, 211140, Note_on_c, 0, 44, 1
3, 211320, Note_on_c, 0, 63, 73
3, 211320, Note_on_c, 0, 51, 79
3, 211500, Note_on_c, 0, 63, 0
3, 211500, Note_on_c, 0, 59, 108
3, 211500, Note_on_c, 0, 71, 108
3, 211637, Note_on_c, 0, 51, 0
3, 211680, Note_on_c, 0, 59, 0
3, 211680, Note_on_c, 0, 32, 0
3, 211680, Note_on_c, 0, 44, 0
3, 211680, Note_on_c, 0, 71, 0
3, 211680, Note_on_c, 0, 56, 85
3, 211680, Note_on_c, 0, 62, 85
3, 211680, Note_on_c, 0, 68, 85
3, 211680, Note_on_c, 0, 34, 1
3, 211680, Note_on_c, 0, 46, 1
3, 211860, Note_on_c, 0, 68, 0
3, 211860, Note_on_c, 0, 56, 0
3, 211860, Note_on_c, 0, 62, 0
3, 211860, Note_on_c, 0, 74, 101
3, 211860, Note_on_c, 0, 62, 77
3, 212040, Note_on_c, 0, 74, 0
3, 212040, Note_on_c, 0, 67, 101
3, 212040, Note_on_c, 0, 79, 101
3, 212177, Note_on_c, 0, 62, 0
3, 212220, Note_on_c, 0, 67, 0
3, 212220, Note_on_c, 0, 46, 0
3, 212220, Note_on_c, 0, 34, 0
3, 212220, Note_on_c, 0, 79, 0
3, 212220, Note_on_c, 0, 66, 89
3, 212220, Note_on_c, 0, 68, 89
3, 212220, Note_on_c, 0, 74, 89
3, 212220, Note_on_c, 0, 78, 89
3, 212220, Note_on_c, 0, 35, 1
3, 212220, Note_on_c, 0, 47, 1
3, 212400, Note_on_c, 0, 78, 0
3, 212400, Note_on_c, 0, 74, 0
3, 212400, Note_on_c, 0, 66, 0
3, 212400, Note_on_c, 0, 68, 0
3, 212400, Note_on_c, 0, 74, 74
3, 212400, Note_on_c, 0, 62, 75
3, 212580, Note_on_c, 0, 74, 0
3, 212580, Note_on_c, 0, 56, 69
3, 212580, Note_on_c, 0, 68, 69
3, 212717, Note_on_c, 0, 62, 0
3, 212760, Note_on_c, 0, 56, 0
3, 212760, Note_on_c, 0, 35, 0
3, 212760, Note_on_c, 0, 47, 0
3, 212760, Note_on_c, 0, 68, 0
3, 212760, Note_on_c, 0, 55, 81
3, 212760, Note_on_c, 0, 59, 81
3, 212760, Note_on_c, 0, 65, 81
3, 212760, Note_on_c, 0, 68, 81
3, 212760, Note_on_c, 0, 38, 1
3, 212760, Note_on_c, 0, 50, 1
3, 212940, Note_on_c, 0, 68, 0
3, 212940, Note_on_c, 0, 65, 0
3, 212940, Note_on_c, 0, 55, 0
3, 212940, Note_on_c, 0, 59, 0
3, 212940, Note_on_c, 0, 71, 95
3, 212940, Note_on_c, 0, 59, 79
3, 213120, Note_on_c, 0, 71, 0
3, 213120, Note_on_c, 0, 65, 105
3, 213120, Note_on_c, 0, 77, 105
3, 213257, Note_on_c, 0, 59, 0
3, 213300, Note_on_c, 0, 65, 0
3, 213300, Note_on_c, 0, 38, 0
3, 213300, Note_on_c, 0, 50, 0
3, 213300, Note_on_c, 0, 77, 0
3, 213300, Note_on_c, 0, 64, 87
3, 213300, Note_on_c, 0, 67, 87
3, 213300, Note_on_c, 0, 71, 87
3, 213300, Note_on_c, 0, 76, 87
3, 213300, Note_on_c, 0, 28, 1
3, 213300, Note_on_c, 0, 40, 1
3, 213480, Note_on_c, 0, 76, 0
3, 213480, Note_on_c, 0, 71, 0
3, 213480, Note_on_c, 0, 64, 0
3, 213480, Note_on_c, 0, 67, 0
3, 213480, Note_on_c, 0, 59, 85
3, 213480, Note_on_c, 0, 47, 75
3, 213660, Note_on_c, 0, 59, 0
3, 213660, Note_on_c, 0, 55, 83
3, 213660, Note_on_c, 0, 67, 83
3, 213797, Note_on_c, 0, 47, 0
3, 213840, Note_on_c, 0, 55, 0
3, 213840, Note_on_c, 0, 28, 0
3, 213840, Note_on_c, 0, 40, 0
3, 213840, Note_on_c, 0, 67, 0
3, 213840, Note_on_c, 0, 52, 81
3, 213840, Note_on_c, 0, 58, 81
3, 213840, Note_on_c, 0, 64, 81
3, 213840, Note_on_c, 0, 30, 1
3, 213840, Note_on_c, 0, 42, 1
3, 214020, Note_on_c, 0, 64, 0
3, 214020, Note_on_c, 0, 52, 0
3, 214020, Note_on_c, 0, 58, 0
3, 214020, Note_on_c, 0, 70, 79
3, 214020, Note_on_c, 0, 58, 76
3, 214200, Note_on_c, 0, 70, 0
3, 214200, Note_on_c, 0, 63, 77
3, 214200, Note_on_c, 0, 75, 77
3, 214337, Note_on_c, 0, 58, 0
3, 214380, Note_on_c, 0, 63, 0
3, 214380, Note_on_c, 0, 42, 0
3, 214380, Note_on_c, 0, 30, 0
3, 214380, Note_on_c, 0, 75, 0
3, 214380, Note_on_c, 0, 62, 75
3, 214380, Note_on_c, 0, 64, 75
3, 214380, Note_on_c, 0, 70, 75
3, 214380, Note_on_c, 0, 74, 75
3, 214380, Note_on_c, 0, 31, 1
3, 214380, Note_on_c, 0, 43, 1
3, 214560, Note_on_c, 0, 74, 0
3, 214560, Note_on_c, 0, 70, 0
3, 214560, Note_on_c, 0, 62, 0
3, 214560, Note_on_c, 0, 64, 0
3, 214560, Note_on_c, 0, 70, 72
3, 214560, Note_on_c, 0, 58, 77
3, 214740, Note_on_c, 0, 70, 0
3, 214740, Note_on_c, 0, 52, 70
3, 214740, Note_on_c, 0, 64, 70
3, 214877, Note_on_c, 0, 58, 0
3, 214920, Note_on_c, 0, 52, 0
3, 214920, Note_on_c, 0, 31, 0
3, 214920, Note_on_c, 0, 43, 0
3, 214920, Note_on_c, 0, 64, 0
3, 214920, Note_on_c, 0, 51, 68
3, 214920, Note_on_c, 0, 55, 68
3, 214920, Note_on_c, 0, 61, 68
3, 214920, Note_on_c, 0, 63, 68
3, 214920, Note_on_c, 0, 34, 1
3, 214920, Note_on_c, 0, 46, 1
3, 215100, Note_on_c, 0, 63, 0
3, 215100, Note_on_c, 0, 61, 0
3, 215100, Note_on_c, 0, 51, 0
3, 215100, Note_on_c, 0, 55, 0
3, 215100, Note_on_c, 0, 67, 66
3, 215100, Note_on_c, 0, 55, 78
3, 215280, Note_on_c, 0, 67, 0
3, 215280, Note_on_c, 0, 61, 64
3, 215280, Note_on_c, 0, 73, 64
3, 215417, Note_on_c, 0, 55, 0
3, 215460, Note_on_c, 0, 61, 0
3, 215460, Note_on_c, 0, 34, 0
3, 215460, Note_on_c, 0, 46, 0
3, 215460, Note_on_c, 0, 73, 0
3, 215460, Note_on_c, 0, 60, 62
3, 215460, Note_on_c, 0, 63, 62
3, 215460, Note_on_c, 0, 72, 62
3, 215460, Note_on_c, 0, 36, 68
3, 215460, Note_on_c, 0, 48, 68
3, 215640, Note_on_c, 0, 72, 0
3, 215640, Note_on_c, 0, 60, 0
3, 215640, Note_on_c, 0, 63, 0
3, 215640, Note_on_c, 0, 55, 47
3, 215640, Note_on_c, 0, 60, 47
3, 215640, Note_on_c, 0, 63, 47
3, 215729, Note_on_c, 0, 63, 0
3, 215729, Note_on_c, 0, 55, 0
3, 215729, Note_on_c, 0, 60, 0
3, 215820, Note_on_c, 0, 55, 63
3, 215820, Note_on_c, 0, 60, 63
3, 215820, Note_on_c, 0, 63, 63
3, 215909, Note_on_c, 0, 63, 0
3, 215909, Note_on_c, 0, 55, 0
3, 215909, Note_on_c, 0, 60, 0
3, 216000, Note_on_c, 0, 36, 0
3, 216000, Note_on_c, 0, 48, 0
3, 216000, Note_on_c, 0, 39, 60
3, 216180, Note_on_c, 0, 39, 0
3, 216180, Note_on_c, 0, 55, 55
3, 216180, Note_on_c, 0, 58, 55
3, 216180, Note_on_c, 0, 62, 55
3, 216269, Note_on_c, 0, 62, 0
3, 216269, Note_on_c, 0, 58, 0
3, 216269, Note_on_c, 0, 55, 0
3, 216360, Note_on_c, 0, 55, 63
3, 216360, Note_on_c, 0, 58, 63
3, 216360, Note_on_c, 0, 62, 63
3, 216449, Note_on_c, 0, 62, 0
3, 216449, Note_on_c, 0, 58, 0
3, 216449, Note_on_c, 0, 55, 0
3, 216540, Note_on_c, 0, 30, 63
3, 216540, Note_on_c, 0, 42, 63
3, 216720, Note_on_c, 0, 42, 0
3, 216720, Note_on_c, 0, 30, 0
3, 216720, Note_on_c, 0, 51, 53
3, 216720, Note_on_c, 0, 57, 53
3, 216720, Note_on_c, 0, 61, 53
3, 216809, Note_on_c, 0, 61, 0
3, 216809, Note_on_c, 0, 57, 0
3, 216809, Note_on_c, 0, 51, 0
3, 216900, Note_on_c, 0, 51, 59
3, 216900, Note_on_c, 0, 57, 59
3, 216900, Note_on_c, 0, 61, 59
3, 216989, Note_on_c, 0, 61, 0
3, 216989, Note_on_c, 0, 57, 0
3, 216989, Note_on_c, 0, 51, 0
3, 217080, Note_on_c, 0, 32, 66
3, 217080, Note_on_c, 0, 44, 66
3, 217260, Note_on_c, 0, 44, 0
3, 217260, Note_on_c, 0, 32, 0
3, 217260, Note_on_c, 0, 54, 58
3, 217260, Note_on_c, 0, 60, 58
3, 217349, Note_on_c, 0, 60, 0
3, 217349, Note_on_c, 0, 54, 0
3, 217440, Note_on_c, 0, 51, 62
3, 217440, Note_on_c, 0, 55, 62
3, 217440, Note_on_c, 0, 60, 62
3, 217529, Note_on_c, 0, 60, 0
3, 217529, Note_on_c, 0, 55, 0
3, 217529, Note_on_c, 0, 51, 0
3, 217620, Note_on_c, 0, 72, 41
3, 217620, Note_on_c, 0, 50, 72
3, 217620, Note_on_c, 0, 54, 72
3, 217620, Note_on_c, 0, 60, 72
3, 217710, Note_on_c, 0, 72, 0
3, 217710, Note_on_c, 0, 73, 54
3, 217800, Note_on_c, 0, 73, 0
3, 217800, Note_on_c, 0, 60, 0
3, 217800, Note_on_c, 0, 54, 0
3, 217800, Note_on_c, 0, 50, 0
3, 217800, Note_on_c, 0, 74, 68
3, 218117, Note_on_c, 0, 74, 0
3, 218160, Note_on_c, 0, 73, 49
3, 218250, Note_on_c, 0, 73, 0
3, 218250, Note_on_c, 0, 74, 53
3, 218340, Note_on_c, 0, 74, 0
3, 218340, Note_on_c, 0, 75, 69
3, 218657, Note_on_c, 0, 75, 0
3, 218700, Note_on_c, 0, 72, 44
3, 218700, Note_on_c, 0, 38, 66
3, 218790, Note_on_c, 0, 72, 0
3, 218790, Note_on_c, 0, 73, 55
3, 218880, Note_on_c, 0, 73, 0
3, 218880, Note_on_c, 0, 38, 0
3, 218880, Note_on_c, 0, 74, 47
3, 218969, Note_on_c, 0, 74, 0
3, 219060, Note_on_c, 0, 73, 49
3, 219150, Note_on_c, 0, 73, 0
3, 219150, Note_on_c, 0, 72, 50
3, 219240, Note_on_c, 0, 72, 0
3, 219240, Note_on_c, 0, 73, 53
3, 219330, Note_on_c, 0, 73, 0
3, 219330, Note_on_c, 0, 74, 56
3, 219420, Note_on_c, 0, 74, 0
3, 219420, Note_on_c, 0, 75, 65
3, 219737, Note_on_c, 0, 75, 0
3, 219780, Note_on_c, 0, 72, 50
3, 219780, Note_on_c, 0, 38, 65
3, 219870, Note_on_c, 0, 72, 0
3, 219870, Note_on_c, 0, 73, 52
3, 219960, Note_on_c, 0, 73, 0
3, 219960, Note_on_c, 0, 38, 0
3, 219960, Note_on_c, 0, 74, 53
3, 220049, Note_on_c, 0, 74, 0
3, 220140, Note_on_c, 0, 73, 55
3, 220230, Note_on_c, 0, 73, 0
3, 220230, Note_on_c, 0, 74, 56
3, 220320, Note_on_c, 0, 74, 0
3, 220320, Note_on_c, 0, 75, 57
3, 220410, Note_on_c, 0, 75, 0
3, 220410, Note_on_c, 0, 74, 58
3, 220500, Note_on_c, 0, 74, 0
3, 220500, Note_on_c, 0, 73, 59
3, 220590, Note_on_c, 0, 73, 0
3, 220590, Note_on_c, 0, 72, 60
3, 220680, Note_on_c, 0, 72, 0
3, 220680, Note_on_c, 0, 71, 61
3, 220860, Note_on_c, 0, 71, 0
3, 220860, Note_on_c, 0, 72, 63
3, 220860, Note_on_c, 0, 38, 63
3, 220950, Note_on_c, 0, 72, 0
3, 220950, Note_on_c, 0, 73, 64
3, 221040, Note_on_c, 0, 73, 0
3, 221040, Note_on_c, 0, 38, 0
3, 221040, Note_on_c, 0, 74, 65
3, 221130, Note_on_c, 0, 74, 0
3, 221130, Note_on_c, 0, 73, 66
3, 221220, Note_on_c, 0, 73, 0
3, 221220, Note_on_c, 0, 74, 67
3, 221310, Note_on_c, 0, 74, 0
3, 221310, Note_on_c, 0, 75, 68
3, 221400, Note_on_c, 0, 75, 0
3, 221400, Note_on_c, 0, 74, 69
3, 221490, Note_on_c, 0, 74, 0
3, 221490, Note_on_c, 0, 73, 71
3, 221580, Note_on_c, 0, 73, 0
3, 221580, Note_on_c, 0, 72, 72
3, 221670, Note_on_c, 0, 72, 0
3, 221670, Note_on_c, 0, 73, 73
3, 221760, Note_on_c, 0, 73, 0
3, 221760, Note_on_c, 0, 72, 74
3, 221850, Note_on_c, 0, 72, 0
3, 221850, Note_on_c, 0, 71, 75
3, 221940, Note_on_c, 0, 71, 0
3, 221940, Note_on_c, 0, 70, 76
3, 221940, Note_on_c, 0, 38, 65
3, 221940, Note_on_c, 0, 50, 65
3, 222030, Note_on_c, 0, 70, 0
3, 222030, Note_on_c, 0, 71, 77
3, 222120, Note_on_c, 0, 71, 0
3, 222120, Note_on_c, 0, 50, 0
3, 222120, Note_on_c, 0, 38, 0
3, 222120, Note_on_c, 0, 72, 80
3, 222209, Note_on_c, 0, 72, 0
3, 222300, Note_on_c, 0, 71, 74
3, 222390, Note_on_c, 0, 71, 0
3, 222390, Note_on_c, 0, 72, 81
3, 222480, Note_on_c, 0, 72, 0
3, 222480, Note_on_c, 0, 74, 79
3, 222569, Note_on_c, 0, 74, 0
3, 222660, Note_on_c, 0, 72, 72
3, 222750, Note_on_c, 0, 72, 0
3, 222750, Note_on_c, 0, 74, 83
3, 222840, Note_on_c, 0, 74, 0
3, 222840, Note_on_c, 0, 75, 77
3, 222929, Note_on_c, 0, 75, 0
3, 223020, Note_on_c, 0, 70, 64
3, 223020, Note_on_c, 0, 38, 67
3, 223020, Note_on_c, 0, 50, 67
3, 223110, Note_on_c, 0, 70, 0
3, 223110, Note_on_c, 0, 71, 77
3, 223200, Note_on_c, 0, 71, 0
3, 223200, Note_on_c, 0, 50, 0
3, 223200, Note_on_c, 0, 38, 0
3, 223200, Note_on_c, 0, 72, 77
3, 223289, Note_on_c, 0, 72, 0
3, 223380, Note_on_c, 0, 71, 74
3, 223470, Note_on_c, 0, 71, 0
3, 223470, Note_on_c, 0, 72, 82
3, 223560, Note_on_c, 0, 72, 0
3, 223560, Note_on_c, 0, 74, 78
3, 223649, Note_on_c, 0, 74, 0
3, 223740, Note_on_c, 0, 72, 73
3, 223830, Note_on_c, 0, 72, 0
3, 223830, Note_on_c, 0, 74, 81
3, 223920, Note_on_c, 0, 74, 0
3, 223920, Note_on_c, 0, 75, 81
3, 224009, Note_on_c, 0, 75, 0
3, 224100, Note_on_c, 0, 73, 76
3, 224100, Note_on_c, 0, 38, 68
3, 224100, Note_on_c, 0, 50, 68
3, 224190, Note_on_c, 0, 73, 0
3, 224190, Note_on_c, 0, 74, 77
3, 224280, Note_on_c, 0, 74, 0
3, 224280, Note_on_c, 0, 50, 0
3, 224280, Note_on_c, 0, 38, 0
3, 224280, Note_on_c, 0, 75, 78
3, 224369, Note_on_c, 0, 75, 0
3, 224460, Note_on_c, 0, 74, 80
3, 224550, Note_on_c, 0, 74, 0
3, 224550, Note_on_c, 0, 75, 81
3, 224640, Note_on_c, 0, 75, 0
3, 224640, Note_on_c, 0, 77, 82
3, 224729, Note_on_c, 0, 77, 0
3, 224820, Note_on_c, 0, 76, 84
3, 224910, Note_on_c, 0, 76, 0
3, 224910, Note_on_c, 0, 77, 85
3, 225000, Note_on_c, 0, 77, 0
3, 225000, Note_on_c, 0, 78, 86
3, 225089, Note_on_c, 0, 78, 0
3, 225180, Note_on_c, 0, 73, 89
3, 225180, Note_on_c, 0, 38, 64
3, 225180, Note_on_c, 0, 50, 64
3, 225270, Note_on_c, 0, 73, 0
3, 225270, Note_on_c, 0, 74, 90
3, 225360, Note_on_c, 0, 74, 0
3, 225360, Note_on_c, 0, 50, 0
3, 225360, Note_on_c, 0, 38, 0
3, 225360, Note_on_c, 0, 75, 91
3, 225449, Note_on_c, 0, 75, 0
3, 225540, Note_on_c, 0, 74, 93
3, 225630, Note_on_c, 0, 74, 0
3, 225630, Note_on_c, 0, 75, 94
3, 225720, Note_on_c, 0, 75, 0
3, 225720, Note_on_c, 0, 77, 95
3, 225809, Note_on_c, 0, 77, 0
3, 225900, Note_on_c, 0, 76, 97
3, 225990, Note_on_c, 0, 76, 0
3, 225990, Note_on_c, 0, 77, 98
3, 226080, Note_on_c, 0, 77, 0
3, 226080, Note_on_c, 0, 78, 99
3, 226169, Note_on_c, 0, 78, 0
3, 226260, Note_on_c, 0, 70, 101
3, 226260, Note_on_c, 0, 31, 67
3, 226260, Note_on_c, 0, 43, 67
3, 226304, Note_on_c, 0, 70, 0
3, 226349, Note_on_c, 0, 43, 0
3, 226349, Note_on_c, 0, 31, 0
3, 226350, Note_on_c, 0, 74, 106
3, 226394, Note_on_c, 0, 74, 0
3, 226440, Note_on_c, 0, 79, 113
3, 226529, Note_on_c, 0, 79, 0
3, 226620, Note_on_c, 0, 69, 81
3, 226620, Note_on_c, 0, 33, 66
3, 226620, Note_on_c, 0, 45, 66
3, 226664, Note_on_c, 0, 69, 0
3, 226709, Note_on_c, 0, 45, 0
3, 226709, Note_on_c, 0, 33, 0
3, 226710, Note_on_c, 0, 73, 108
3, 226754, Note_on_c, 0, 73, 0
3, 226800, Note_on_c, 0, 78, 116
3, 226889, Note_on_c, 0, 78, 0
3, 226980, Note_on_c, 0, 68, 76
3, 226980, Note_on_c, 0, 34, 66
3, 226980, Note_on_c, 0, 46, 66
3, 227024, Note_on_c, 0, 68, 0
3, 227069, Note_on_c, 0, 46, 0
3, 227069, Note_on_c, 0, 34, 0
3, 227070, Note_on_c, 0, 72, 110
3, 227114, Note_on_c, 0, 72, 0
3, 227160, Note_on_c, 0, 77, 116
3, 227249, Note_on_c, 0, 77, 0
3, 227340, Note_on_c, 0, 68, 101
3, 227340, Note_on_c, 0, 35, 63
3, 227340, Note_on_c, 0, 47, 63
3, 227384, Note_on_c, 0, 68, 0
3, 227429, Note_on_c, 0, 47, 0
3, 227429, Note_on_c, 0, 35, 0
3, 227430, Note_on_c, 0, 71, 99
3, 227474, Note_on_c, 0, 71, 0
3, 227520, Note_on_c, 0, 76, 97
3, 227609, Note_on_c, 0, 76, 0
3, 227700, Note_on_c, 0, 67, 93
3, 227700, Note_on_c, 0, 36, 67
3, 227700, Note_on_c, 0, 48, 67
3, 227744, Note_on_c, 0, 67, 0
3, 227789, Note_on_c, 0, 48, 0
3, 227789, Note_on_c, 0, 36, 0
3, 227790, Note_on_c, 0, 70, 91
3, 227834, Note_on_c, 0, 70, 0
3, 227880, Note_on_c, 0, 75, 89
3, 227969, Note_on_c, 0, 75, 0
3, 228060, Note_on_c, 0, 65, 84
3, 228060, Note_on_c, 0, 38, 67
3, 228060, Note_on_c, 0, 50, 67
3, 228104, Note_on_c, 0, 65, 0
3, 228149, Note_on_c, 0, 50, 0
3, 228149, Note_on_c, 0, 38, 0
3, 228150, Note_on_c, 0, 69, 82
3, 228194, Note_on_c, 0, 69, 0
3, 228240, Note_on_c, 0, 74, 80
3, 228329, Note_on_c, 0, 74, 0
3, 228420, Note_on_c, 0, 41, 67
3, 228600, Note_on_c, 0, 41, 0
3, 228600, Note_on_c, 0, 63, 45
3, 228600, Note_on_c, 0, 69, 45
3, 228780, Note_on_c, 0, 69, 0
3, 228780, Note_on_c, 0, 63, 0
3, 228780, Note_on_c, 0, 60, 36
3, 228960, Note_on_c, 0, 60, 0
3, 228960, Note_on_c, 0, 53, 66
3, 229140, Note_on_c, 0, 53, 0
3, 229140, Note_on_c, 0, 62, 43
3, 229140, Note_on_c, 0, 68, 43
3, 229320, Note_on_c, 0, 68, 0
3, 229320, Note_on_c, 0, 62, 0
3, 229320, Note_on_c, 0, 59, 42
3, 229500, Note_on_c, 0, 59, 0
3, 229500, Note_on_c, 0, 41, 64
3, 229680, Note_on_c, 0, 41, 0
3, 229680, Note_on_c, 0, 63, 48
3, 229680, Note_on_c, 0, 69, 48
3, 229860, Note_on_c, 0, 69, 0
3, 229860, Note_on_c, 0, 63, 0
3, 229860, Note_on_c, 0, 60, 37
3, 230040, Note_on_c, 0, 60, 0
3, 230040, Note_on_c, 0, 53, 70
3, 230220, Note_on_c, 0, 53, 0
3, 230220, Note_on_c, 0, 58, 44
3, 230220, Note_on_c, 0, 62, 44
3, 230220, Note_on_c, 0, 68, 44
3, 230400, Note_on_c, 0, 68, 0
3, 230400, Note_on_c, 0, 62, 0
3, 230400, Note_on_c, 0, 58, 0
3, 230400, Note_on_c, 0, 60, 64
3, 230580, Note_on_c, 0, 60, 0
3, 230580, Note_on_c, 0, 62, 91
3, 230760, Note_on_c, 0, 63, 42
3, 230760, Note_on_c, 0, 69, 42
3, 230849, Note_on_c, 0, 69, 0
3, 230849, Note_on_c, 0, 63, 0
3, 230940, Note_on_c, 0, 63, 50
3, 230940, Note_on_c, 0, 69, 50
3, 231029, Note_on_c, 0, 69, 0
3, 231029, Note_on_c, 0, 63, 0
3, 231054, Note_on_c, 0, 62, 0
3, 231120, Note_on_c, 0, 60, 71
3, 231300, Note_on_c, 0, 60, 0
3, 231300, Note_on_c, 0, 63, 44
3, 231300, Note_on_c, 0, 68, 44
3, 231300, Note_on_c, 0, 59, 73
3, 231389, Note_on_c, 0, 68, 0
3, 231389, Note_on_c, 0, 63, 0
3, 231480, Note_on_c, 0, 63, 50
3, 231480, Note_on_c, 0, 68, 50
3, 231569, Note_on_c, 0, 68, 0
3, 231569, Note_on_c, 0, 63, 0
3, 231660, Note_on_c, 0, 59, 0
3, 231660, Note_on_c, 0, 61, 90
3, 231840, Note_on_c, 0, 63, 48
3, 231840, Note_on_c, 0, 69, 48
3, 231929, Note_on_c, 0, 69, 0
3, 231929, Note_on_c, 0, 63, 0
3, 232020, Note_on_c, 0, 63, 48
3, 232020, Note_on_c, 0, 69, 48
3, 232109, Note_on_c, 0, 69, 0
3, 232109, Note_on_c, 0, 63, 0
3, 232134, Note_on_c, 0, 61, 0
3, 232200, Note_on_c, 0, 60, 74
3, 232380, Note_on_c, 0, 60, 0
3, 232380, Note_on_c, 0, 63, 44
3, 232380, Note_on_c, 0, 68, 44
3, 232380, Note_on_c, 0, 59, 71
3, 232469, Note_on_c, 0, 68, 0
3, 232469, Note_on_c, 0, 63, 0
3, 232560, Note_on_c, 0, 63, 48
3, 232560, Note_on_c, 0, 68, 48
3, 232649, Note_on_c, 0, 68, 0
3, 232649, Note_on_c, 0, 63, 0
3, 232740, Note_on_c, 0, 59, 0
3, 232740, Note_on_c, 0, 61, 92
3, 232920, Note_on_c, 0, 63, 53
3, 232920, Note_on_c, 0, 69, 53
3, 233009, Note_on_c, 0, 69, 0
3, 233009, Note_on_c, 0, 63, 0
3, 233100, Note_on_c, 0, 63, 55
3, 233100, Note_on_c, 0, 69, 55
3, 233189, Note_on_c, 0, 69, 0
3, 233189, Note_on_c, 0, 63, 0
3, 233214, Note_on_c, 0, 61, 0
3, 233280, Note_on_c, 0, 65, 57
3, 233280, Note_on_c, 0, 70, 57
3, 233280, Note_on_c, 0, 62, 75
3, 233369, Note_on_c, 0, 70, 0
3, 233369, Note_on_c, 0, 65, 0
3, 233460, Note_on_c, 0, 62, 0
3, 233460, Note_on_c, 0, 71, 59
3, 233460, Note_on_c, 0, 66, 44
3, 233460, Note_on_c, 0, 63, 78
3, 233618, Note_on_c, 0, 71, 0
3, 233640, Note_on_c, 0, 72, 61
3, 233820, Note_on_c, 0, 72, 0
3, 233820, Note_on_c, 0, 63, 0
3, 233820, Note_on_c, 0, 66, 0
3, 233820, Note_on_c, 0, 61, 79
3, 234000, Note_on_c, 0, 63, 65
3, 234000, Note_on_c, 0, 69, 65
3, 234089, Note_on_c, 0, 69, 0
3, 234089, Note_on_c, 0, 63, 0
3, 234180, Note_on_c, 0, 63, 67
3, 234180, Note_on_c, 0, 69, 67
3, 234269, Note_on_c, 0, 69, 0
3, 234269, Note_on_c, 0, 63, 0
3, 234294, Note_on_c, 0, 61, 0
3, 234360, Note_on_c, 0, 65, 69
3, 234360, Note_on_c, 0, 70, 69
3, 234360, Note_on_c, 0, 62, 77
3, 234449, Note_on_c, 0, 70, 0
3, 234449, Note_on_c, 0, 65, 0
3, 234540, Note_on_c, 0, 62, 0
3, 234540, Note_on_c, 0, 71, 72
3, 234540, Note_on_c, 0, 66, 56
3, 234540, Note_on_c, 0, 63, 76
3, 234698, Note_on_c, 0, 71, 0
3, 234720, Note_on_c, 0, 72, 74
3, 234900, Note_on_c, 0, 72, 0
3, 234900, Note_on_c, 0, 63, 0
3, 234900, Note_on_c, 0, 66, 0
3, 234900, Note_on_c, 0, 73, 76
3, 234900, Note_on_c, 0, 77, 76
3, 234900, Note_on_c, 0, 58, 78
3, 234900, Note_on_c, 0, 61, 78
3, 234900, Note_on_c, 0, 65, 78
3, 234944, Note_on_c, 0, 77, 0
3, 234944, Note_on_c, 0, 73, 0
3, 234989, Note_on_c, 0, 61, 0
3, 234989, Note_on_c, 0, 58, 0
3, 234989, Note_on_c, 0, 65, 0
3, 234990, Note_on_c, 0, 73, 70
3, 235034, Note_on_c, 0, 73, 0
3, 235080, Note_on_c, 0, 73, 85
3, 235080, Note_on_c, 0, 77, 85
3, 235080, Note_on_c, 0, 61, 80
3, 235080, Note_on_c, 0, 65, 80
3, 235080, Note_on_c, 0, 70, 80
3, 235169, Note_on_c, 0, 70, 0
3, 235169, Note_on_c, 0, 61, 0
3, 235169, Note_on_c, 0, 73, 0
3, 235169, Note_on_c, 0, 77, 0
3, 235169, Note_on_c, 0, 65, 0
3, 235260, Note_on_c, 0, 72, 75
3, 235260, Note_on_c, 0, 76, 75
3, 235304, Note_on_c, 0, 76, 0
3, 235304, Note_on_c, 0, 72, 0
3, 235350, Note_on_c, 0, 72, 70
3, 235394, Note_on_c, 0, 72, 0
3, 235440, Note_on_c, 0, 72, 83
3, 235440, Note_on_c, 0, 76, 83
3, 235440, Note_on_c, 0, 58, 66
3, 235440, Note_on_c, 0, 60, 66
3, 235440, Note_on_c, 0, 64, 66
3, 235440, Note_on_c, 0, 69, 66
3, 235529, Note_on_c, 0, 69, 0
3, 235529, Note_on_c, 0, 76, 0
3, 235529, Note_on_c, 0, 58, 0
3, 235529, Note_on_c, 0, 72, 0
3, 235529, Note_on_c, 0, 64, 0
3, 235529, Note_on_c, 0, 60, 0
3, 235620, Note_on_c, 0, 71, 73
3, 235620, Note_on_c, 0, 75, 73
3, 235664, Note_on_c, 0, 75, 0
3, 235664, Note_on_c, 0, 71, 0
3, 235710, Note_on_c, 0, 71, 67
3, 235754, Note_on_c, 0, 71, 0
3, 235800, Note_on_c, 0, 71, 86
3, 235800, Note_on_c, 0, 75, 86
3, 235800, Note_on_c, 0, 56, 62
3, 235800, Note_on_c, 0, 59, 62
3, 235800, Note_on_c, 0, 65, 62
3, 235800, Note_on_c, 0, 68, 62
3, 235889, Note_on_c, 0, 68, 0
3, 235889, Note_on_c, 0, 75, 0
3, 235889, Note_on_c, 0, 56, 0
3, 235889, Note_on_c, 0, 71, 0
3, 235889, Note_on_c, 0, 65, 0
3, 235889, Note_on_c, 0, 59, 0
3, 235980, Note_on_c, 0, 71, 76
3, 235980, Note_on_c, 0, 74, 76
3, 236024, Note_on_c, 0, 74, 0
3, 236024, Note_on_c, 0, 71, 0
3, 236070, Note_on_c, 0, 71, 74
3, 236114, Note_on_c, 0, 71, 0
3, 236160, Note_on_c, 0, 71, 72
3, 236160, Note_on_c, 0, 74, 72
3, 236160, Note_on_c, 0, 55, 63
3, 236160, Note_on_c, 0, 59, 63
3, 236160, Note_on_c, 0, 65, 63
3, 236160, Note_on_c, 0, 67, 63
3, 236249, Note_on_c, 0, 67, 0
3, 236249, Note_on_c, 0, 74, 0
3, 236249, Note_on_c, 0, 55, 0
3, 236249, Note_on_c, 0, 71, 0
3, 236249, Note_on_c, 0, 65, 0
3, 236249, Note_on_c, 0, 59, 0
3, 236340, Note_on_c, 0, 70, 67
3, 236340, Note_on_c, 0, 73, 67
3, 236384, Note_on_c, 0, 73, 0
3, 236384, Note_on_c, 0, 70, 0
3, 236430, Note_on_c, 0, 70, 65
3, 236474, Note_on_c, 0, 70, 0
3, 236520, Note_on_c, 0, 70, 63
3, 236520, Note_on_c, 0, 73, 63
3, 236520, Note_on_c, 0, 54, 67
3, 236520, Note_on_c, 0, 58, 67
3, 236520, Note_on_c, 0, 65, 67
3, 236520, Note_on_c, 0, 66, 67
3, 236609, Note_on_c, 0, 66, 0
3, 236609, Note_on_c, 0, 73, 0
3, 236609, Note_on_c, 0, 54, 0
3, 236609, Note_on_c, 0, 70, 0
3, 236609, Note_on_c, 0, 65, 0
3, 236609, Note_on_c, 0, 58, 0
3, 236700, Note_on_c, 0, 69, 59
3, 236700, Note_on_c, 0, 72, 59
3, 236744, Note_on_c, 0, 72, 0
3, 236744, Note_on_c, 0, 69, 0
3, 236790, Note_on_c, 0, 69, 57
3, 236834, Note_on_c, 0, 69, 0
3, 236880, Note_on_c, 0, 69, 55
3, 236880, Note_on_c, 0, 72, 55
3, 236880, Note_on_c, 0, 53, 62
3, 236880, Note_on_c, 0, 57, 62
3, 236880, Note_on_c, 0, 60, 62
3, 236880, Note_on_c, 0, 65, 62
3, 236969, Note_on_c, 0, 65, 0
3, 236969, Note_on_c, 0, 72, 0
3, 236969, Note_on_c, 0, 53, 0
3, 236969, Note_on_c, 0, 69, 0
3, 236969, Note_on_c, 0, 60, 0
3, 236969, Note_on_c, 0, 57, 0
3, 237060, Note_on_c, 0, 60, 35
3, 237060, Note_on_c, 0, 38, 64
3, 237060, Note_on_c, 0, 50, 64
3, 237240, Note_on_c, 0, 63, 43
3, 237240, Note_on_c, 0, 69, 43
3, 237329, Note_on_c, 0, 69, 0
3, 237329, Note_on_c, 0, 63, 0
3, 237377, Note_on_c, 0, 60, 0
3, 237420, Note_on_c, 0, 63, 47
3, 237420, Note_on_c, 0, 69, 47
3, 237420, Note_on_c, 0, 59, 45
3, 237509, Note_on_c, 0, 69, 0
3, 237509, Note_on_c, 0, 63, 0
3, 237780, Note_on_c, 0, 38, 0
3, 237780, Note_on_c, 0, 50, 0
3, 237780, Note_on_c, 0, 59, 0
3, 237780, Note_on_c, 0, 62, 44
3, 237780, Note_on_c, 0, 68, 44
3, 237780, Note_on_c, 0, 50, 95
3, 237780, Note_on_c, 0, 58, 95
3, 237869, Note_on_c, 0, 68, 0
3, 237869, Note_on_c, 0, 62, 0
3, 237960, Note_on_c, 0, 62, 52
3, 237960, Note_on_c, 0, 68, 52
3, 238049, Note_on_c, 0, 68, 0
3, 238049, Note_on_c, 0, 62, 0
3, 238097, Note_on_c, 0, 50, 0
3, 238097, Note_on_c, 0, 58, 0
3, 238140, Note_on_c, 0, 60, 64
3, 238140, Note_on_c, 0, 38, 66
3, 238140, Note_on_c, 0, 50, 66
3, 238320, Note_on_c, 0, 63, 44
3, 238320, Note_on_c, 0, 69, 44
3, 238409, Note_on_c, 0, 69, 0
3, 238409, Note_on_c, 0, 63, 0
3, 238457, Note_on_c, 0, 60, 0
3, 238500, Note_on_c, 0, 63, 49
3, 238500, Note_on_c, 0, 69, 49
3, 238500, Note_on_c, 0, 59, 63
3, 238589, Note_on_c, 0, 69, 0
3, 238589, Note_on_c, 0, 63, 0
3, 238860, Note_on_c, 0, 38, 0
3, 238860, Note_on_c, 0, 50, 0
3, 238860, Note_on_c, 0, 59, 0
3, 238860, Note_on_c, 0, 62, 43
3, 238860, Note_on_c, 0, 68, 43
3, 238860, Note_on_c, 0, 50, 95
3, 238860, Note_on_c, 0, 58, 95
3, 238949, Note_on_c, 0, 68, 0
3, 238949, Note_on_c, 0, 62, 0
3, 239040, Note_on_c, 0, 62, 53
3, 239040, Note_on_c, 0, 68, 53
3, 239129, Note_on_c, 0, 68, 0
3, 239129, Note_on_c, 0, 62, 0
3, 239177, Note_on_c, 0, 50, 0
3, 239177, Note_on_c, 0, 58, 0
3, 239220, Note_on_c, 0, 56, 50
3, 239220, Note_on_c, 0, 38, 67
3, 239220, Note_on_c, 0, 50, 67
3, 239400, Note_on_c, 0, 58, 53
3, 239400, Note_on_c, 0, 64, 53
3, 239489, Note_on_c, 0, 64, 0
3, 239489, Note_on_c, 0, 58, 0
3, 239537, Note_on_c, 0, 56, 0
3, 239580, Note_on_c, 0, 58, 55
3, 239580, Note_on_c, 0, 64, 55
3, 239580, Note_on_c, 0, 55, 55
3, 239669, Note_on_c, 0, 64, 0
3, 239669, Note_on_c, 0, 58, 0
3, 239940, Note_on_c, 0, 38, 0
3, 239940, Note_on_c, 0, 50, 0
3, 239940, Note_on_c, 0, 55, 0
3, 239940, Note_on_c, 0, 60, 59
3, 239940, Note_on_c, 0, 66, 59
3, 239940, Note_on_c, 0, 50, 87
3, 239940, Note_on_c, 0, 54, 87
3, 240029, Note_on_c, 0, 66, 0
3, 240029, Note_on_c, 0, 60, 0
3, 240120, Note_on_c, 0, 60, 61
3, 240120, Note_on_c, 0, 66, 61
3, 240209, Note_on_c, 0, 66, 0
3, 240209, Note_on_c, 0, 60, 0
3, 240257, Note_on_c, 0, 50, 0
3, 240257, Note_on_c, 0, 54, 0
3, 240300, Note_on_c, 0, 56, 63
3, 240300, Note_on_c, 0, 38, 74
3, 240300, Note_on_c, 0, 50, 74
3, 240480, Note_on_c, 0, 58, 65
3, 240480, Note_on_c, 0, 64, 65
3, 240569, Note_on_c, 0, 64, 0
3, 240569, Note_on_c, 0, 58, 0
3, 240617, Note_on_c, 0, 56, 0
3, 240660, Note_on_c, 0, 58, 67
3, 240660, Note_on_c, 0, 64, 67
3, 240660, Note_on_c, 0, 55, 67
3, 240749, Note_on_c, 0, 64, 0
3, 240749, Note_on_c, 0, 58, 0
3, 241020, Note_on_c, 0, 38, 0
3, 241020, Note_on_c, 0, 50, 0
3, 241020, Note_on_c, 0, 55, 0
3, 241020, Note_on_c, 0, 60, 72
3, 241020, Note_on_c, 0, 66, 72
3, 241020, Note_on_c, 0, 50, 94
3, 241020, Note_on_c, 0, 54, 94
3, 241109, Note_on_c, 0, 66, 0
3, 241109, Note_on_c, 0, 60, 0
3, 241200, Note_on_c, 0, 60, 74
3, 241200, Note_on_c, 0, 66, 74
3, 241289, Note_on_c, 0, 66, 0
3, 241289, Note_on_c, 0, 60, 0
3, 241337, Note_on_c, 0, 50, 0
3, 241337, Note_on_c, 0, 54, 0
3, 241380, Note_on_c, 0, 50, 1
3, 241560, Note_on_c, 0, 50, 0
3, 241560, Note_on_c, 0, 60, 36
3, 241560, Note_on_c, 0, 62, 36
3, 241560, Note_on_c, 0, 66, 36
3, 241560, Note_on_c, 0, 57, 68
3, 241740, Note_on_c, 0, 57, 0
3, 241740, Note_on_c, 0, 60, 0
3, 241740, Note_on_c, 0, 62, 0
3, 241740, Note_on_c, 0, 66, 0
3, 241740, Note_on_c, 0, 49, 1
3, 241920, Note_on_c, 0, 49, 0
3, 241920, Note_on_c, 0, 57, 39
3, 241920, Note_on_c, 0, 63, 39
3, 241920, Note_on_c, 0, 67, 39
3, 241920, Note_on_c, 0, 55, 62
3, 242100, Note_on_c, 0, 55, 0
3, 242100, Note_on_c, 0, 57, 0
3, 242100, Note_on_c, 0, 63, 0
3, 242100, Note_on_c, 0, 67, 0
3, 242100, Note_on_c, 0, 48, 1
3, 242280, Note_on_c, 0, 48, 0
3, 242280, Note_on_c, 0, 56, 33
3, 242280, Note_on_c, 0, 63, 33
3, 242280, Note_on_c, 0, 68, 33
3, 242280, Note_on_c, 0, 54, 65
3, 242460, Note_on_c, 0, 54, 0
3, 242460, Note_on_c, 0, 56, 0
3, 242460, Note_on_c, 0, 63, 0
3, 242460, Note_on_c, 0, 68, 0
3, 242460, Note_on_c, 0, 47, 1
3, 242640, Note_on_c, 0, 47, 0
3, 242640, Note_on_c, 0, 57, 42
3, 242640, Note_on_c, 0, 63, 42
3, 242640, Note_on_c, 0, 69, 42
3, 242640, Note_on_c, 0, 54, 61
3, 242820, Note_on_c, 0, 54, 0
3, 242820, Note_on_c, 0, 57, 0
3, 242820, Note_on_c, 0, 63, 0
3, 242820, Note_on_c, 0, 69, 0
3, 242820, Note_on_c, 0, 46, 1
3, 243000, Note_on_c, 0, 46, 0
3, 243000, Note_on_c, 0, 56, 47
3, 243000, Note_on_c, 0, 62, 47
3, 243000, Note_on_c, 0, 70, 47
3, 243000, Note_on_c, 0, 53, 67
3, 243180, Note_on_c, 0, 53, 0
3, 243180, Note_on_c, 0, 56, 0
3, 243180, Note_on_c, 0, 62, 0
3, 243180, Note_on_c, 0, 70, 0
3, 243180, Note_on_c, 0, 45, 1
3, 243360, Note_on_c, 0, 45, 0
3, 243360, Note_on_c, 0, 59, 51
3, 243360, Note_on_c, 0, 66, 51
3, 243360, Note_on_c, 0, 71, 51
3, 243360, Note_on_c, 0, 51, 63
3, 243360, Note_on_c, 0, 54, 63
3, 243540, Note_on_c, 0, 54, 0
3, 243540, Note_on_c, 0, 71, 0
3, 243540, Note_on_c, 0, 59, 0
3, 243540, Note_on_c, 0, 66, 0
3, 243540, Note_on_c, 0, 51, 0
3, 243540, Note_on_c, 0, 43, 1
3, 243720, Note_on_c, 0, 43, 0
3, 243720, Note_on_c, 0, 60, 55
3, 243720, Note_on_c, 0, 64, 55
3, 243720, Note_on_c, 0, 72, 55
3, 243720, Note_on_c, 0, 52, 62
3, 243720, Note_on_c, 0, 58, 62
3, 243900, Note_on_c, 0, 58, 0
3, 243900, Note_on_c, 0, 72, 0
3, 243900, Note_on_c, 0, 60, 0
3, 243900, Note_on_c, 0, 64, 0
3, 243900, Note_on_c, 0, 52, 0
3, 243900, Note_on_c, 0, 42, 1
3, 244080, Note_on_c, 0, 42, 0
3, 244080, Note_on_c, 0, 61, 59
3, 244080, Note_on_c, 0, 64, 59
3, 244080, Note_on_c, 0, 73, 59
3, 244080, Note_on_c, 0, 52, 63
3, 244080, Note_on_c, 0, 58, 63
3, 244260, Note_on_c, 0, 58, 0
3, 244260, Note_on_c, 0, 73, 0
3, 244260, Note_on_c, 0, 61, 0
3, 244260, Note_on_c, 0, 64, 0
3, 244260, Note_on_c, 0, 52, 0
3, 244260, Note_on_c, 0, 41, 1
3, 244440, Note_on_c, 0, 41, 0
3, 244440, Note_on_c, 0, 62, 64
3, 244440, Note_on_c, 0, 69, 64
3, 244440, Note_on_c, 0, 74, 64
3, 244440, Note_on_c, 0, 51, 69
3, 244440, Note_on_c, 0, 57, 69
3, 244620, Note_on_c, 0, 57, 0
3, 244620, Note_on_c, 0, 74, 0
3, 244620, Note_on_c, 0, 62, 0
3, 244620, Note_on_c, 0, 69, 0
3, 244620, Note_on_c, 0, 51, 0
3, 244620, Note_on_c, 0, 40, 1
3, 244800, Note_on_c, 0, 40, 0
3, 244800, Note_on_c, 0, 66, 63
3, 244800, Note_on_c, 0, 70, 63
3, 244800, Note_on_c, 0, 75, 63
3, 244800, Note_on_c, 0, 58, 72
3, 244800, Note_on_c, 0, 61, 72
3, 244980, Note_on_c, 0, 61, 0
3, 244980, Note_on_c, 0, 75, 0
3, 244980, Note_on_c, 0, 66, 0
3, 244980, Note_on_c, 0, 70, 0
3, 244980, Note_on_c, 0, 58, 0
3, 244980, Note_on_c, 0, 39, 1
3, 245160, Note_on_c, 0, 39, 0
3, 245160, Note_on_c, 0, 67, 54
3, 245160, Note_on_c, 0, 70, 54
3, 245160, Note_on_c, 0, 76, 54
3, 245160, Note_on_c, 0, 58, 64
3, 245160, Note_on_c, 0, 61, 64
3, 245340, Note_on_c, 0, 61, 0
3, 245340, Note_on_c, 0, 76, 0
3, 245340, Note_on_c, 0, 67, 0
3, 245340, Note_on_c, 0, 70, 0
3, 245340, Note_on_c, 0, 58, 0
3, 245340, Note_on_c, 0, 61, 54
3, 245340, Note_on_c, 0, 67, 54
3, 245340, Note_on_c, 0, 70, 54
3, 245429, Note_on_c, 0, 70, 0
3, 245429, Note_on_c, 0, 67, 0
3, 245429, Note_on_c, 0, 61, 0
3, 245520, Note_on_c, 0, 61, 65
3, 245520, Note_on_c, 0, 67, 65
3, 245520, Note_on_c, 0, 70, 65
3, 245609, Note_on_c, 0, 70, 0
3, 245609, Note_on_c, 0, 67, 0
3, 245609, Note_on_c, 0, 61, 0
3, 245700, Note_on_c, 0, 59, 108
3, 245700, Note_on_c, 0, 62, 108
3, 245700, Note_on_c, 0, 67, 108
3, 245700, Note_on_c, 0, 71, 108
3, 245700, Note_on_c, 0, 38, 64
3, 245700, Note_on_c, 0, 43, 64
3, 245700, Note_on_c, 0, 47, 64
3, 245700, Note_on_c, 0, 50, 64
3, 245789, Note_on_c, 0, 50, 0
3, 245789, Note_on_c, 0, 59, 0
3, 245789, Note_on_c, 0, 38, 0
3, 245789, Note_on_c, 0, 62, 0
3, 245789, Note_on_c, 0, 67, 0
3, 245789, Note_on_c, 0, 71, 0
3, 245789, Note_on_c, 0, 43, 0
3, 245789, Note_on_c, 0, 47, 0
3, 246780, Note_on_c, 0, 59, 117
3, 246780, Note_on_c, 0, 62, 117
3, 246780, Note_on_c, 0, 67, 117
3, 246780, Note_on_c, 0, 71, 117
3, 246780, Note_on_c, 0, 38, 89
3, 246780, Note_on_c, 0, 43, 89
3, 246780, Note_on_c, 0, 47, 89
3, 246780, Note_on_c, 0, 50, 89
3, 246960, Note_on_c, 0, 50, 0
3, 246960, Note_on_c, 0, 59, 0
3, 246960, Note_on_c, 0, 38, 0
3, 246960, Note_on_c, 0, 62, 0
3, 246960, Note_on_c, 0, 67, 0
3, 246960, Note_on_c, 0, 71, 0
3, 246960, Note_on_c, 0, 43, 0
3, 246960, Note_on_c, 0, 47, 0
3, 246960, Note_on_c, 0, 59, 102
3, 246960, Note_on_c, 0, 62, 102
3, 246960, Note_on_c, 0, 67, 102
3, 246960, Note_on_c, 0, 71, 102
3, 246960, Note_on_c, 0, 38, 71
3, 246960, Note_on_c, 0, 43, 71
3, 246960, Note_on_c, 0, 47, 71
3, 246960, Note_on_c, 0, 50, 71
3, 247140, Note_on_c, 0, 50, 0
3, 247140, Note_on_c, 0, 59, 0
3, 247140, Note_on_c, 0, 38, 0
3, 247140, Note_on_c, 0, 62, 0
3, 247140, Note_on_c, 0, 67, 0
3, 247140, Note_on_c, 0, 71, 0
3, 247140, Note_on_c, 0, 43, 0
3, 247140, Note_on_c, 0, 47, 0
3, 247320, Note_on_c, 0, 58, 115
3, 247320, Note_on_c, 0, 62, 115
3, 247320, Note_on_c, 0, 65, 115
3, 247320, Note_on_c, 0, 70, 115
3, 247320, Note_on_c, 0, 44, 92
3, 247320, Note_on_c, 0, 50, 92
3, 247320, Note_on_c, 0, 53, 92
3, 247320, Note_on_c, 0, 56, 92
3, 247500, Note_on_c, 0, 56, 0
3, 247500, Note_on_c, 0, 58, 0
3, 247500, Note_on_c, 0, 44, 0
3, 247500, Note_on_c, 0, 62, 0
3, 247500, Note_on_c, 0, 65, 0
3, 247500, Note_on_c, 0, 70, 0
3, 247500, Note_on_c, 0, 50, 0
3, 247500, Note_on_c, 0, 53, 0
3, 248400, Note_on_c, 0, 58, 117
3, 248400, Note_on_c, 0, 62, 117
3, 248400, Note_on_c, 0, 65, 117
3, 248400, Note_on_c, 0, 70, 117
3, 248400, Note_on_c, 0, 44, 98
3, 248400, Note_on_c, 0, 50, 98
3, 248400, Note_on_c, 0, 53, 98
3, 248400, Note_on_c, 0, 56, 98
3, 248580, Note_on_c, 0, 56, 0
3, 248580, Note_on_c, 0, 58, 0
3, 248580, Note_on_c, 0, 44, 0
3, 248580, Note_on_c, 0, 62, 0
3, 248580, Note_on_c, 0, 65, 0
3, 248580, Note_on_c, 0, 70, 0
3, 248580, Note_on_c, 0, 50, 0
3, 248580, Note_on_c, 0, 53, 0
3, 248580, Note_on_c, 0, 58, 98
3, 248580, Note_on_c, 0, 62, 98
3, 248580, Note_on_c, 0, 65, 98
3, 248580, Note_on_c, 0, 70, 98
3, 248580, Note_on_c, 0, 44, 73
3, 248580, Note_on_c, 0, 50, 73
3, 248580, Note_on_c, 0, 53, 73
3, 248580, Note_on_c, 0, 56, 73
3, 248760, Note_on_c, 0, 56, 0
3, 248760, Note_on_c, 0, 58, 0
3, 248760, Note_on_c, 0, 44, 0
3, 248760, Note_on_c, 0, 62, 0
3, 248760, Note_on_c, 0, 65, 0
3, 248760, Note_on_c, 0, 70, 0
3, 248760, Note_on_c, 0, 50, 0
3, 248760, Note_on_c, 0, 53, 0
3, 248940, Note_on_c, 0, 58, 92
3, 248940, Note_on_c, 0, 61, 92
3, 248940, Note_on_c, 0, 66, 92
3, 248940, Note_on_c, 0, 70, 92
3, 248940, Note_on_c, 0, 37, 61
3, 248940, Note_on_c, 0, 49, 61
3, 249120, Note_on_c, 0, 49, 0
3, 249120, Note_on_c, 0, 61, 0
3, 249120, Note_on_c, 0, 66, 0
3, 249120, Note_on_c, 0, 58, 0
3, 249120, Note_on_c, 0, 37, 0
3, 249120, Note_on_c, 0, 70, 0
3, 249300, Note_on_c, 0, 56, 97
3, 249300, Note_on_c, 0, 58, 97
3, 249300, Note_on_c, 0, 62, 97
3, 249300, Note_on_c, 0, 66, 97
3, 249300, Note_on_c, 0, 34, 65
3, 249300, Note_on_c, 0, 46, 65
3, 249480, Note_on_c, 0, 46, 0
3, 249480, Note_on_c, 0, 58, 0
3, 249480, Note_on_c, 0, 62, 0
3, 249480, Note_on_c, 0, 56, 0
3, 249480, Note_on_c, 0, 34, 0
3, 249480, Note_on_c, 0, 66, 0
3, 249660, Note_on_c, 0, 58, 92
3, 249660, Note_on_c, 0, 61, 92
3, 249660, Note_on_c, 0, 66, 92
3, 249660, Note_on_c, 0, 70, 92
3, 249660, Note_on_c, 0, 37, 63
3, 249660, Note_on_c, 0, 49, 63
3, 249840, Note_on_c, 0, 49, 0
3, 249840, Note_on_c, 0, 61, 0
3, 249840, Note_on_c, 0, 66, 0
3, 249840, Note_on_c, 0, 58, 0
3, 249840, Note_on_c, 0, 37, 0
3, 249840, Note_on_c, 0, 70, 0
3, 250020, Note_on_c, 0, 56, 93
3, 250020, Note_on_c, 0, 58, 93
3, 250020, Note_on_c, 0, 62, 93
3, 250020, Note_on_c, 0, 66, 93
3, 250020, Note_on_c, 0, 34, 66
3, 250020, Note_on_c, 0, 46, 66
3, 250200, Note_on_c, 0, 46, 0
3, 250200, Note_on_c, 0, 58, 0
3, 250200, Note_on_c, 0, 62, 0
3, 250200, Note_on_c, 0, 56, 0
3, 250200, Note_on_c, 0, 34, 0
3, 250200, Note_on_c, 0, 66, 0
3, 250200, Note_on_c, 0, 58, 116
3, 250200, Note_on_c, 0, 61, 116
3, 250200, Note_on_c, 0, 66, 116
3, 250200, Note_on_c, 0, 70, 116
3, 250200, Note_on_c, 0, 37, 80
3, 250200, Note_on_c, 0, 49, 80
3, 250380, Note_on_c, 0, 49, 0
3, 250380, Note_on_c, 0, 61, 0
3, 250380, Note_on_c, 0, 66, 0
3, 250380, Note_on_c, 0, 58, 0
3, 250380, Note_on_c, 0, 37, 0
3, 250380, Note_on_c, 0, 70, 0
3, 250560, Note_on_c, 0, 56, 91
3, 250560, Note_on_c, 0, 58, 91
3, 250560, Note_on_c, 0, 62, 91
3, 250560, Note_on_c, 0, 66, 91
3, 250560, Note_on_c, 0, 34, 58
3, 250560, Note_on_c, 0, 46, 58
3, 250740, Note_on_c, 0, 46, 0
3, 250740, Note_on_c, 0, 58, 0
3, 250740, Note_on_c, 0, 62, 0
3, 250740, Note_on_c, 0, 56, 0
3, 250740, Note_on_c, 0, 34, 0
3, 250740, Note_on_c, 0, 66, 0
3, 250920, Note_on_c, 0, 60, 93
3, 250920, Note_on_c, 0, 62, 93
3, 250920, Note_on_c, 0, 66, 93
3, 250920, Note_on_c, 0, 70, 93
3, 250920, Note_on_c, 0, 38, 63
3, 250920, Note_on_c, 0, 50, 63
3, 251010, Note_on_c, 0, 50, 0
3, 251010, Note_on_c, 0, 62, 0
3, 251010, Note_on_c, 0, 66, 0
3, 251010, Note_on_c, 0, 60, 0
3, 251010, Note_on_c, 0, 38, 0
3, 251010, Note_on_c, 0, 70, 0
3, 251010, Note_on_c, 0, 60, 102
3, 251010, Note_on_c, 0, 62, 102
3, 251010, Note_on_c, 0, 66, 102
3, 251010, Note_on_c, 0, 70, 102
3, 251010, Note_on_c, 0, 38, 72
3, 251010, Note_on_c, 0, 50, 72
3, 251100, Note_on_c, 0, 50, 0
3, 251100, Note_on_c, 0, 62, 0
3, 251100, Note_on_c, 0, 66, 0
3, 251100, Note_on_c, 0, 60, 0
3, 251100, Note_on_c, 0, 38, 0
3, 251100, Note_on_c, 0, 70, 0
3, 251100, Note_on_c, 0, 60, 117
3, 251100, Note_on_c, 0, 62, 117
3, 251100, Note_on_c, 0, 66, 117
3, 251100, Note_on_c, 0, 70, 117
3, 251100, Note_on_c, 0, 38, 71
3, 251100, Note_on_c, 0, 50, 71
3, 251280, Note_on_c, 0, 50, 0
3, 251280, Note_on_c, 0, 62, 0
3, 251280, Note_on_c, 0, 66, 0
3, 251280, Note_on_c, 0, 60, 0
3, 251280, Note_on_c, 0, 38, 0
3, 251280, Note_on_c, 0, 70, 0
3, 251820, Note_on_c, 0, 31, 62
3, 251820, Note_on_c, 0, 43, 62
3, 252000, Note_on_c, 0, 43, 0
3, 252000, Note_on_c, 0, 31, 0
3, 252000, Note_on_c, 0, 67, 77
3, 252000, Note_on_c, 0, 70, 77
3, 252000, Note_on_c, 0, 74, 77
3, 252000, Note_on_c, 0, 79, 77
3, 252000, Note_on_c, 0, 55, 94
3, 252000, Note_on_c, 0, 58, 94
3, 252000, Note_on_c, 0, 62, 94
3, 252089, Note_on_c, 0, 79, 0
3, 252089, Note_on_c, 0, 74, 0
3, 252089, Note_on_c, 0, 67, 0
3, 252089, Note_on_c, 0, 70, 0
3, 252180, Note_on_c, 0, 62, 0
3, 252180, Note_on_c, 0, 55, 0
3, 252180, Note_on_c, 0, 58, 0
3, 252180, Note_on_c, 0, 33, 1
3, 252180, Note_on_c, 0, 45, 1
3, 252360, Note_on_c, 0, 45, 0
3, 252360, Note_on_c, 0, 33, 0
3, 252360, Note_on_c, 0, 66, 78
3, 252360, Note_on_c, 0, 69, 78
3, 252360, Note_on_c, 0, 73, 78
3, 252360, Note_on_c, 0, 78, 78
3, 252360, Note_on_c, 0, 55, 62
3, 252360, Note_on_c, 0, 57, 62
3, 252360, Note_on_c, 0, 61, 62
3, 252449, Note_on_c, 0, 78, 0
3, 252449, Note_on_c, 0, 73, 0
3, 252449, Note_on_c, 0, 66, 0
3, 252449, Note_on_c, 0, 69, 0
3, 252540, Note_on_c, 0, 61, 0
3, 252540, Note_on_c, 0, 55, 0
3, 252540, Note_on_c, 0, 57, 0
3, 252540, Note_on_c, 0, 34, 1
3, 252540, Note_on_c, 0, 46, 1
3, 252720, Note_on_c, 0, 46, 0
3, 252720, Note_on_c, 0, 34, 0
3, 252720, Note_on_c, 0, 68, 99
3, 252720, Note_on_c, 0, 72, 99
3, 252720, Note_on_c, 0, 77, 99
3, 252720, Note_on_c, 0, 56, 91
3, 252720, Note_on_c, 0, 60, 91
3, 252810, Note_on_c, 0, 77, 0
3, 252810, Note_on_c, 0, 68, 0
3, 252810, Note_on_c, 0, 72, 0
3, 252810, Note_on_c, 0, 65, 59
3, 252900, Note_on_c, 0, 65, 0
3, 252900, Note_on_c, 0, 56, 0
3, 252900, Note_on_c, 0, 60, 0
3, 252900, Note_on_c, 0, 68, 106
3, 252900, Note_on_c, 0, 72, 106
3, 252900, Note_on_c, 0, 77, 106
3, 252900, Note_on_c, 0, 34, 60
3, 252900, Note_on_c, 0, 46, 60
3, 252989, Note_on_c, 0, 46, 0
3, 252989, Note_on_c, 0, 34, 0
3, 253080, Note_on_c, 0, 68, 0
3, 253080, Note_on_c, 0, 72, 0
3, 253080, Note_on_c, 0, 77, 0
3, 253080, Note_on_c, 0, 64, 85
3, 253080, Note_on_c, 0, 68, 85
3, 253080, Note_on_c, 0, 71, 85
3, 253080, Note_on_c, 0, 76, 85
3, 253080, Note_on_c, 0, 35, 75
3, 253080, Note_on_c, 0, 47, 75
3, 253169, Note_on_c, 0, 47, 0
3, 253169, Note_on_c, 0, 68, 0
3, 253169, Note_on_c, 0, 71, 0
3, 253169, Note_on_c, 0, 64, 0
3, 253169, Note_on_c, 0, 35, 0
3, 253169, Note_on_c, 0, 76, 0
3, 253260, Note_on_c, 0, 36, 77
3, 253260, Note_on_c, 0, 48, 77
3, 253440, Note_on_c, 0, 48, 0
3, 253440, Note_on_c, 0, 36, 0
3, 253440, Note_on_c, 0, 63, 73
3, 253440, Note_on_c, 0, 67, 73
3, 253440, Note_on_c, 0, 70, 73
3, 253440, Note_on_c, 0, 75, 73
3, 253440, Note_on_c, 0, 55, 85
3, 253440, Note_on_c, 0, 58, 85
3, 253529, Note_on_c, 0, 75, 0
3, 253529, Note_on_c, 0, 70, 0
3, 253529, Note_on_c, 0, 63, 0
3, 253529, Note_on_c, 0, 67, 0
3, 253620, Note_on_c, 0, 58, 0
3, 253620, Note_on_c, 0, 55, 0
3, 253620, Note_on_c, 0, 34, 66
3, 253620, Note_on_c, 0, 46, 66
3, 253800, Note_on_c, 0, 46, 0
3, 253800, Note_on_c, 0, 34, 0
3, 253800, Note_on_c, 0, 62, 73
3, 253800, Note_on_c, 0, 66, 73
3, 253800, Note_on_c, 0, 69, 73
3, 253800, Note_on_c, 0, 74, 73
3, 253800, Note_on_c, 0, 54, 79
3, 253800, Note_on_c, 0, 57, 79
3, 253889, Note_on_c, 0, 74, 0
3, 253889, Note_on_c, 0, 69, 0
3, 253889, Note_on_c, 0, 62, 0
3, 253889, Note_on_c, 0, 66, 0
3, 253980, Note_on_c, 0, 57, 0
3, 253980, Note_on_c, 0, 54, 0
3, 253980, Note_on_c, 0, 39, 67
3, 253980, Note_on_c, 0, 51, 67
3, 254160, Note_on_c, 0, 51, 0
3, 254160, Note_on_c, 0, 39, 0
3, 254160, Note_on_c, 0, 66, 96
3, 254160, Note_on_c, 0, 69, 96
3, 254160, Note_on_c, 0, 73, 96
3, 254160, Note_on_c, 0, 54, 77
3, 254160, Note_on_c, 0, 57, 77
3, 254250, Note_on_c, 0, 73, 0
3, 254250, Note_on_c, 0, 66, 0
3, 254250, Note_on_c, 0, 69, 0
3, 254250, Note_on_c, 0, 61, 58
3, 254340, Note_on_c, 0, 61, 0
3, 254340, Note_on_c, 0, 54, 0
3, 254340, Note_on_c, 0, 57, 0
3, 254340, Note_on_c, 0, 66, 112
3, 254340, Note_on_c, 0, 69, 112
3, 254340, Note_on_c, 0, 73, 112
3, 254340, Note_on_c, 0, 39, 69
3, 254340, Note_on_c, 0, 51, 69
3, 254429, Note_on_c, 0, 51, 0
3, 254429, Note_on_c, 0, 39, 0
3, 254520, Note_on_c, 0, 66, 0
3, 254520, Note_on_c, 0, 69, 0
3, 254520, Note_on_c, 0, 73, 0
3, 254520, Note_on_c, 0, 60, 114
3, 254520, Note_on_c, 0, 65, 114
3, 254520, Note_on_c, 0, 68, 114
3, 254520, Note_on_c, 0, 72, 114
3, 254520, Note_on_c, 0, 41, 77
3, 254520, Note_on_c, 0, 53, 77
3, 254609, Note_on_c, 0, 53, 0
3, 254609, Note_on_c, 0, 41, 0
3, 254700, Note_on_c, 0, 68, 0
3, 254700, Note_on_c, 0, 60, 0
3, 254700, Note_on_c, 0, 65, 0
3, 254700, Note_on_c, 0, 72, 0
3, 254700, Note_on_c, 0, 42, 61
3, 254880, Note_on_c, 0, 42, 0
3, 254880, Note_on_c, 0, 63, 77
3, 254880, Note_on_c, 0, 66, 77
3, 254880, Note_on_c, 0, 71, 77
3, 254880, Note_on_c, 0, 54, 81
3, 254880, Note_on_c, 0, 59, 81
3, 254969, Note_on_c, 0, 59, 0
3, 254969, Note_on_c, 0, 54, 0
3, 255060, Note_on_c, 0, 63, 0
3, 255060, Note_on_c, 0, 66, 0
3, 255060, Note_on_c, 0, 71, 0
3, 255060, Note_on_c, 0, 44, 61
3, 255240, Note_on_c, 0, 44, 0
3, 255240, Note_on_c, 0, 62, 78
3, 255240, Note_on_c, 0, 65, 78
3, 255240, Note_on_c, 0, 70, 78
3, 255240, Note_on_c, 0, 56, 83
3, 255240, Note_on_c, 0, 58, 83
3, 255329, Note_on_c, 0, 58, 0
3, 255329, Note_on_c, 0, 70, 0
3, 255329, Note_on_c, 0, 62, 0
3, 255329, Note_on_c, 0, 65, 0
3, 255329, Note_on_c, 0, 56, 0
3, 255420, Note_on_c, 0, 45, 63
3, 255600, Note_on_c, 0, 45, 0
3, 255600, Note_on_c, 0, 61, 85
3, 255600, Note_on_c, 0, 64, 85
3, 255600, Note_on_c, 0, 69, 85
3, 255600, Note_on_c, 0, 57, 87
3, 255690, Note_on_c, 0, 69, 0
3, 255690, Note_on_c, 0, 61, 0
3, 255690, Note_on_c, 0, 64, 0
3, 255690, Note_on_c, 0, 57, 84
3, 255780, Note_on_c, 0, 57, 0
3, 255780, Note_on_c, 0, 57, 0
3, 255780, Note_on_c, 0, 61, 83
3, 255780, Note_on_c, 0, 64, 83
3, 255780, Note_on_c, 0, 69, 83
3, 255780, Note_on_c, 0, 45, 65
3, 255869, Note_on_c, 0, 45, 0
3, 255960, Note_on_c, 0, 61, 0
3, 255960, Note_on_c, 0, 64, 0
3, 255960, Note_on_c, 0, 69, 0
3, 255960, Note_on_c, 0, 61, 81
3, 255960, Note_on_c, 0, 64, 81
3, 255960, Note_on_c, 0, 68, 81
3, 255960, Note_on_c, 0, 46, 73
3, 256049, Note_on_c, 0, 46, 0
3, 256049, Note_on_c, 0, 61, 0
3, 256049, Note_on_c, 0, 64, 0
3, 256049, Note_on_c, 0, 68, 0
3, 256140, Note_on_c, 0, 48, 77
3, 256229, Note_on_c, 0, 48, 0
3, 256320, Note_on_c, 0, 60, 77
3, 256320, Note_on_c, 0, 63, 77
3, 256320, Note_on_c, 0, 67, 77
3, 256409, Note_on_c, 0, 67, 0
3, 256409, Note_on_c, 0, 63, 0
3, 256409, Note_on_c, 0, 60, 0
3, 256500, Note_on_c, 0, 50, 62
3, 256589, Note_on_c, 0, 50, 0
3, 256680, Note_on_c, 0, 58, 72
3, 256680, Note_on_c, 0, 62, 72
3, 256680, Note_on_c, 0, 66, 72
3, 256769, Note_on_c, 0, 66, 0
3, 256769, Note_on_c, 0, 62, 0
3, 256769, Note_on_c, 0, 58, 0
3, 256860, Note_on_c, 0, 51, 61
3, 256949, Note_on_c, 0, 51, 0
3, 257040, Note_on_c, 0, 57, 68
3, 257040, Note_on_c, 0, 60, 68
3, 257040, Note_on_c, 0, 65, 68
3, 257129, Note_on_c, 0, 65, 0
3, 257129, Note_on_c, 0, 60, 0
3, 257129, Note_on_c, 0, 57, 0
3, 257220, Note_on_c, 0, 56, 66
3, 257220, Note_on_c, 0, 60, 66
3, 257220, Note_on_c, 0, 65, 66
3, 257220, Note_on_c, 0, 53, 69
3, 257309, Note_on_c, 0, 53, 0
3, 257309, Note_on_c, 0, 56, 0
3, 257309, Note_on_c, 0, 60, 0
3, 257309, Note_on_c, 0, 65, 0
3, 257400, Note_on_c, 0, 56, 64
3, 257400, Note_on_c, 0, 59, 64
3, 257400, Note_on_c, 0, 63, 64
3, 257400, Note_on_c, 0, 54, 68
3, 257489, Note_on_c, 0, 54, 0
3, 257489, Note_on_c, 0, 56, 0
3, 257489, Note_on_c, 0, 59, 0
3, 257489, Note_on_c, 0, 63, 0
3, 257580, Note_on_c, 0, 61, 62
3, 257580, Note_on_c, 0, 55, 76
3, 257580, Note_on_c, 0, 58, 76
3, 257670, Note_on_c, 0, 61, 0
3, 257670, Note_on_c, 0, 62, 65
3, 257760, Note_on_c, 0, 62, 0
3, 257760, Note_on_c, 0, 58, 0
3, 257760, Note_on_c, 0, 55, 0
3, 257760, Note_on_c, 0, 63, 67
3, 257849, Note_on_c, 0, 63, 0
3, 257940, Note_on_c, 0, 62, 56
3, 258030, Note_on_c, 0, 62, 0
3, 258030, Note_on_c, 0, 63, 66
3, 258120, Note_on_c, 0, 63, 0
3, 258120, Note_on_c, 0, 64, 65
3, 258209, Note_on_c, 0, 64, 0
3, 258300, Note_on_c, 0, 63, 56
3, 258390, Note_on_c, 0, 63, 0
3, 258390, Note_on_c, 0, 64, 61
3, 258480, Note_on_c, 0, 64, 0
3, 258480, Note_on_c, 0, 65, 70
3, 258569, Note_on_c, 0, 65, 0
3, 258660, Note_on_c, 0, 66, 66
3, 258840, Note_on_c, 0, 54, 67
3, 258840, Note_on_c, 0, 59, 67
3, 258840, Note_on_c, 0, 62, 67
3, 258929, Note_on_c, 0, 62, 0
3, 258929, Note_on_c, 0, 59, 0
3, 258929, Note_on_c, 0, 54, 0
3, 259020, Note_on_c, 0, 54, 80
3, 259020, Note_on_c, 0, 59, 80
3, 259020, Note_on_c, 0, 62, 80
3, 259109, Note_on_c, 0, 62, 0
3, 259109, Note_on_c, 0, 59, 0
3, 259109, Note_on_c, 0, 54, 0
3, 259200, Note_on_c, 0, 38, 67
3, 259200, Note_on_c, 0, 50, 67
3, 259380, Note_on_c, 0, 50, 0
3, 259380, Note_on_c, 0, 38, 0
3, 259380, Note_on_c, 0, 54, 65
3, 259380, Note_on_c, 0, 60, 65
3, 259380, Note_on_c, 0, 62, 65
3, 259469, Note_on_c, 0, 62, 0
3, 259469, Note_on_c, 0, 60, 0
3, 259469, Note_on_c, 0, 54, 0
3, 259560, Note_on_c, 0, 54, 74
3, 259560, Note_on_c, 0, 60, 74
3, 259560, Note_on_c, 0, 62, 74
3, 259649, Note_on_c, 0, 62, 0
3, 259649, Note_on_c, 0, 60, 0
3, 259649, Note_on_c, 0, 54, 0
3, 259740, Note_on_c, 0, 66, 0
3, 259740, Note_on_c, 0, 65, 57
3, 259740, Note_on_c, 0, 43, 63
3, 259740, Note_on_c, 0, 55, 63
3, 259830, Note_on_c, 0, 65, 0
3, 259830, Note_on_c, 0, 66, 64
3, 259920, Note_on_c, 0, 66, 0
3, 259920, Note_on_c, 0, 55, 0
3, 259920, Note_on_c, 0, 43, 0
3, 259920, Note_on_c, 0, 67, 69
3, 260009, Note_on_c, 0, 67, 0
3, 260100, Note_on_c, 0, 66, 54
3, 260190, Note_on_c, 0, 66, 0
3, 260190, Note_on_c, 0, 67, 64
3, 260280, Note_on_c, 0, 67, 0
3, 260280, Note_on_c, 0, 68, 64
3, 260369, Note_on_c, 0, 68, 0
3, 260460, Note_on_c, 0, 67, 61
3, 260550, Note_on_c, 0, 67, 0
3, 260550, Note_on_c, 0, 68, 66
3, 260640, Note_on_c, 0, 68, 0
3, 260640, Note_on_c, 0, 69, 63
3, 260729, Note_on_c, 0, 69, 0
3, 260820, Note_on_c, 0, 66, 80
3, 260820, Note_on_c, 0, 70, 80
3, 261000, Note_on_c, 0, 54, 65
3, 261000, Note_on_c, 0, 58, 65
3, 261000, Note_on_c, 0, 63, 65
3, 261089, Note_on_c, 0, 63, 0
3, 261089, Note_on_c, 0, 54, 0
3, 261089, Note_on_c, 0, 58, 0
3, 261180, Note_on_c, 0, 54, 68
3, 261180, Note_on_c, 0, 58, 68
3, 261180, Note_on_c, 0, 62, 68
3, 261269, Note_on_c, 0, 62, 0
3, 261269, Note_on_c, 0, 54, 0
3, 261269, Note_on_c, 0, 58, 0
3, 261540, Note_on_c, 0, 54, 62
3, 261540, Note_on_c, 0, 60, 62
3, 261540, Note_on_c, 0, 63, 62
3, 261629, Note_on_c, 0, 63, 0
3, 261629, Note_on_c, 0, 54, 0
3, 261629, Note_on_c, 0, 60, 0
3, 261720, Note_on_c, 0, 54, 71
3, 261720, Note_on_c, 0, 60, 71
3, 261720, Note_on_c, 0, 62, 71
3, 261769, Note_on_c, 0, 70, 0
3, 261769, Note_on_c, 0, 66, 0
3, 261809, Note_on_c, 0, 60, 0
3, 261809, Note_on_c, 0, 54, 0
3, 261809, Note_on_c, 0, 62, 0
3, 261900, Note_on_c, 0, 67, 61
3, 261900, Note_on_c, 0, 70, 61
3, 261900, Note_on_c, 0, 50, 77
3, 261900, Note_on_c, 0, 55, 77
3, 261900, Note_on_c, 0, 58, 77
3, 261900, Note_on_c, 0, 62, 77
3, 262080, Note_on_c, 0, 62, 0
3, 262080, Note_on_c, 0, 70, 0
3, 262080, Note_on_c, 0, 50, 0
3, 262080, Note_on_c, 0, 67, 0
3, 262080, Note_on_c, 0, 58, 0
3, 262080, Note_on_c, 0, 55, 0
3, 262080, Note_on_c, 0, 73, 65
3, 262124, Note_on_c, 0, 73, 0
3, 262170, Note_on_c, 0, 74, 68
3, 262214, Note_on_c, 0, 74, 0
3, 262260, Note_on_c, 0, 75, 68
3, 262304, Note_on_c, 0, 75, 0
3, 262350, Note_on_c, 0, 74, 60
3, 262394, Note_on_c, 0, 74, 0
3, 262440, Note_on_c, 0, 73, 58
3, 262484, Note_on_c, 0, 73, 0
3, 262530, Note_on_c, 0, 74, 62
3, 262574, Note_on_c, 0, 74, 0
3, 262620, Note_on_c, 0, 75, 66
3, 262664, Note_on_c, 0, 75, 0
3, 262710, Note_on_c, 0, 74, 59
3, 262754, Note_on_c, 0, 74, 0
3, 262800, Note_on_c, 0, 73, 57
3, 262844, Note_on_c, 0, 73, 0
3, 262890, Note_on_c, 0, 74, 64
3, 262934, Note_on_c, 0, 74, 0
3, 262980, Note_on_c, 0, 75, 68
3, 263024, Note_on_c, 0, 75, 0
3, 263070, Note_on_c, 0, 74, 64
3, 263114, Note_on_c, 0, 74, 0
3, 263160, Note_on_c, 0, 73, 55
3, 263204, Note_on_c, 0, 73, 0
3, 263250, Note_on_c, 0, 74, 70
3, 263294, Note_on_c, 0, 74, 0
3, 263340, Note_on_c, 0, 75, 67
3, 263384, Note_on_c, 0, 75, 0
3, 263430, Note_on_c, 0, 74, 62
3, 263474, Note_on_c, 0, 74, 0
3, 263520, Note_on_c, 0, 73, 57
3, 263564, Note_on_c, 0, 73, 0
3, 263610, Note_on_c, 0, 74, 70
3, 263654, Note_on_c, 0, 74, 0
3, 263700, Note_on_c, 0, 75, 65
3, 263744, Note_on_c, 0, 75, 0
3, 263790, Note_on_c, 0, 74, 56
3, 263834, Note_on_c, 0, 74, 0
3, 263880, Note_on_c, 0, 73, 54
3, 263924, Note_on_c, 0, 73, 0
3, 263970, Note_on_c, 0, 74, 64
3, 264014, Note_on_c, 0, 74, 0
3, 264060, Note_on_c, 0, 79, 72
3, 264060, Note_on_c, 0, 58, 66
3, 264149, Note_on_c, 0, 79, 0
3, 264150, Note_on_c, 0, 58, 0
3, 264150, Note_on_c, 0, 62, 82
3, 264240, Note_on_c, 0, 62, 0
3, 264240, Note_on_c, 0, 55, 69
3, 264600, Note_on_c, 0, 55, 0
3, 264600, Note_on_c, 0, 61, 89
3, 264690, Note_on_c, 0, 61, 0
3, 264690, Note_on_c, 0, 65, 83
3, 264780, Note_on_c, 0, 65, 0
3, 264780, Note_on_c, 0, 58, 72
3, 265140, Note_on_c, 0, 64, 54
3, 265230, Note_on_c, 0, 64, 0
3, 265230, Note_on_c, 0, 68, 67
3, 265320, Note_on_c, 0, 68, 0
3, 265320, Note_on_c, 0, 61, 50
3, 265680, Note_on_c, 0, 61, 0
3, 265680, Note_on_c, 0, 73, 89
3, 265680, Note_on_c, 0, 67, 88
3, 265680, Note_on_c, 0, 61, 1
3, 265770, Note_on_c, 0, 67, 0
3, 265770, Note_on_c, 0, 70, 84
3, 265860, Note_on_c, 0, 70, 0
3, 265860, Note_on_c, 0, 63, 62
3, 265997, Note_on_c, 0, 73, 0
3, 266040, Note_on_c, 0, 61, 0
3, 266040, Note_on_c, 0, 58, 0
3, 266040, Note_on_c, 0, 63, 0
3, 266040, Note_on_c, 0, 74, 76
3, 266040, Note_on_c, 0, 62, 65
3, 266040, Note_on_c, 0, 57, 66
3, 266040, Note_on_c, 0, 60, 1
3, 266220, Note_on_c, 0, 60, 0
3, 266220, Note_on_c, 0, 74, 0
3, 266220, Note_on_c, 0, 62, 0
3, 266220, Note_on_c, 0, 57, 0
3, 266220, Note_on_c, 0, 79, 72
3, 266220, Note_on_c, 0, 70, 92
3, 266220, Note_on_c, 0, 55, 87
3, 266220, Note_on_c, 0, 58, 87
3, 266220, Note_on_c, 0, 62, 87
3, 266310, Note_on_c, 0, 70, 0
3, 266310, Note_on_c, 0, 74, 85
3, 266400, Note_on_c, 0, 74, 0
3, 266400, Note_on_c, 0, 62, 0
3, 266400, Note_on_c, 0, 79, 0
3, 266400, Note_on_c, 0, 55, 0
3, 266400, Note_on_c, 0, 58, 0
3, 266400, Note_on_c, 0, 67, 63
3, 266760, Note_on_c, 0, 67, 0
3, 266760, Note_on_c, 0, 82, 68
3, 266760, Note_on_c, 0, 73, 63
3, 266850, Note_on_c, 0, 73, 0
3, 266850, Note_on_c, 0, 77, 86
3, 266940, Note_on_c, 0, 77, 0
3, 266940, Note_on_c, 0, 70, 59
3, 267234, Note_on_c, 0, 82, 0
3, 267300, Note_on_c, 0, 85, 79
3, 267300, Note_on_c, 0, 76, 87
3, 267390, Note_on_c, 0, 76, 0
3, 267390, Note_on_c, 0, 80, 88
3, 267480, Note_on_c, 0, 80, 0
3, 267480, Note_on_c, 0, 73, 59
3, 267840, Note_on_c, 0, 73, 0
3, 267840, Note_on_c, 0, 79, 86
3, 267840, Note_on_c, 0, 73, 1
3, 267930, Note_on_c, 0, 79, 0
3, 267930, Note_on_c, 0, 82, 84
3, 268020, Note_on_c, 0, 82, 0
3, 268020, Note_on_c, 0, 75, 61
3, 268200, Note_on_c, 0, 75, 0
3, 268200, Note_on_c, 0, 70, 0
3, 268200, Note_on_c, 0, 85, 0
3, 268200, Note_on_c, 0, 73, 0
3, 268200, Note_on_c, 0, 86, 68
3, 268200, Note_on_c, 0, 74, 71
3, 268200, Note_on_c, 0, 69, 69
3, 268200, Note_on_c, 0, 72, 1
3, 268380, Note_on_c, 0, 72, 0
3, 268380, Note_on_c, 0, 86, 0
3, 268380, Note_on_c, 0, 74, 0
3, 268380, Note_on_c, 0, 69, 0
3, 268380, Note_on_c, 0, 91, 57
3, 268380, Note_on_c, 0, 67, 54
3, 268380, Note_on_c, 0, 70, 54
3, 268380, Note_on_c, 0, 74, 54
3, 268469, Note_on_c, 0, 91, 0
3, 268560, Note_on_c, 0, 67, 0
3, 268560, Note_on_c, 0, 70, 0
3, 268560, Note_on_c, 0, 74, 0
3, 268920, Note_on_c, 0, 67, 37
3, 268920, Note_on_c, 0, 70, 37
3, 268920, Note_on_c, 0, 74, 37
3, 268920, Note_on_c, 0, 79, 37
3, 268920, Note_on_c, 0, 43, 45
3, 268920, Note_on_c, 0, 50, 45
3, 268920, Note_on_c, 0, 58, 45
3, 269100, Note_on_c, 0, 58, 0
3, 269100, Note_on_c, 0, 43, 0
3, 269100, Note_on_c, 0, 70, 0
3, 269100, Note_on_c, 0, 74, 0
3, 269100, Note_on_c, 0, 67, 0
3, 269100, Note_on_c, 0, 50, 0
3, 269100, Note_on_c, 0, 79, 0
3, 269460, Note_on_c, 0, 67, 44
3, 269460, Note_on_c, 0, 70, 44
3, 269460, Note_on_c, 0, 74, 44
3, 269460, Note_on_c, 0, 79, 44
3, 269460, Note_on_c, 0, 43, 45
3, 269460, Note_on_c, 0, 50, 45
3, 269460, Note_on_c, 0, 58, 45
3, 269640, Note_on_c, 0, 58, 0
3, 269640, Note_on_c, 0, 43, 0
3, 269640, Note_on_c, 0, 70, 0
3, 269640, Note_on_c, 0, 74, 0
3, 269640, Note_on_c, 0, 67, 0
3, 269640, Note_on_c, 0, 50, 0
3, 269640, Note_on_c, 0, 79, 0
3, 270000, Note_on_c, 0, 67, 43
3, 270000, Note_on_c, 0, 70, 43
3, 270000, Note_on_c, 0, 74, 43
3, 270000, Note_on_c, 0, 79, 43
3, 270000, Note_on_c, 0, 43, 47
3, 270000, Note_on_c, 0, 50, 47
3, 270000, Note_on_c, 0, 58, 47
3, 270180, Note_on_c, 0, 58, 0
3, 270180, Note_on_c, 0, 43, 0
3, 270180, Note_on_c, 0, 70, 0
3, 270180, Note_on_c, 0, 74, 0
3, 270180, Note_on_c, 0, 67, 0
3, 270180, Note_on_c, 0, 50, 0
3, 270180, Note_on_c, 0, 79, 0
3, 270540, Note_on_c, 0, 67, 43
3, 270540, Note_on_c, 0, 70, 43
3, 270540, Note_on_c, 0, 74, 43
3, 270540, Note_on_c, 0, 79, 43
3, 270540, Note_on_c, 0, 43, 40
3, 270540, Note_on_c, 0, 50, 40
3, 270540, Note_on_c, 0, 58, 40
3, 270720, Note_on_c, 0, 58, 0
3, 270720, Note_on_c, 0, 43, 0
3, 270720, Note_on_c, 0, 70, 0
3, 270720, Note_on_c, 0, 74, 0
3, 270720, Note_on_c, 0, 67, 0
3, 270720, Note_on_c, 0, 50, 0
3, 270720, Note_on_c, 0, 79, 0
3, 271080, Note_on_c, 0, 67, 50
3, 271080, Note_on_c, 0, 70, 50
3, 271080, Note_on_c, 0, 74, 50
3, 271080, Note_on_c, 0, 79, 50
3, 271080, Note_on_c, 0, 43, 50
3, 271080, Note_on_c, 0, 50, 50
3, 271080, Note_on_c, 0, 58, 50
3, 271260, Note_on_c, 0, 58, 0
3, 271260, Note_on_c, 0, 43, 0
3, 271260, Note_on_c, 0, 70, 0
3, 271260, Note_on_c, 0, 74, 0
3, 271260, Note_on_c, 0, 67, 0
3, 271260, Note_on_c, 0, 50, 0
3, 271260, Note_on_c, 0, 79, 0
3, 271620, Note_on_c, 0, 67, 63
3, 271620, Note_on_c, 0, 70, 63
3, 271620, Note_on_c, 0, 74, 63
3, 271620, Note_on_c, 0, 79, 63
3, 271620, Note_on_c, 0, 43, 63
3, 271620, Note_on_c, 0, 50, 63
3, 271620, Note_on_c, 0, 58, 63
3, 271800, Note_on_c, 0, 58, 0
3, 271800, Note_on_c, 0, 43, 0
3, 271800, Note_on_c, 0, 70, 0
3, 271800, Note_on_c, 0, 74, 0
3, 271800, Note_on_c, 0, 67, 0
3, 271800, Note_on_c, 0, 50, 0
3, 271800, Note_on_c, 0, 79, 0
3, 272160, Note_on_c, 0, 67, 90
3, 272160, Note_on_c, 0, 70, 90
3, 272160, Note_on_c, 0, 74, 90
3, 272160, Note_on_c, 0, 79, 90
3, 272160, Note_on_c, 0, 43, 88
3, 272160, Note_on_c, 0, 50, 88
3, 272160, Note_on_c, 0, 58, 88
3, 272340, Note_on_c, 0, 58, 0
3, 272340, Note_on_c, 0, 43, 0
3, 272340, Note_on_c, 0, 70, 0
3, 272340, Note_on_c, 0, 74, 0
3, 272340, Note_on_c, 0, 67, 0
3, 272340, Note_on_c, 0, 50, 0
3, 272340, Note_on_c, 0, 79, 0
3, 272520, Note_on_c, 0, 67, 99
3, 272520, Note_on_c, 0, 70, 99
3, 272520, Note_on_c, 0, 74, 99
3, 272520, Note_on_c, 0, 79, 99
3, 272520, Note_on_c, 0, 43, 99
3, 272520, Note_on_c, 0, 50, 99
3, 272520, Note_on_c, 0, 58, 99
3, 272700, Note_on_c, 0, 58, 0
3, 272700, Note_on_c, 0, 43, 0
3, 272700, Note_on_c, 0, 70, 0
3, 272700, Note_on_c, 0, 74, 0
3, 272700, Note_on_c, 0, 67, 0
3, 272700, Note_on_c, 0, 50, 0
3, 272700, Note_on_c, 0, 79, 0
3, 272880, Note_on_c, 0, 67, 93
3, 272880, Note_on_c, 0, 70, 93
3, 272880, Note_on_c, 0, 74, 93
3, 272880, Note_on_c, 0, 79, 93
3, 272880, Note_on_c, 0, 43, 93
3, 272880, Note_on_c, 0, 50, 93
3, 272880, Note_on_c, 0, 58, 93
3, 273060, Note_on_c, 0, 58, 0
3, 273060, Note_on_c, 0, 43, 0
3, 273060, Note_on_c, 0, 70, 0
3, 273060, Note_on_c, 0, 74, 0
3, 273060, Note_on_c, 0, 67, 0
3, 273060, Note_on_c, 0, 50, 0
3, 273060, Note_on_c, 0, 79, 0
3, 273240, Note_on_c, 0, 67, 87
3, 273240, Note_on_c, 0, 70, 87
3, 273240, Note_on_c, 0, 74, 87
3, 273240, Note_on_c, 0, 79, 87
3, 273240, Note_on_c, 0, 43, 87
3, 273240, Note_on_c, 0, 50, 87
3, 273240, Note_on_c, 0, 58, 87
3, 273420, Note_on_c, 0, 58, 0
3, 273420, Note_on_c, 0, 43, 0
3, 273420, Note_on_c, 0, 70, 0
3, 273420, Note_on_c, 0, 74, 0
3, 273420, Note_on_c, 0, 67, 0
3, 273420, Note_on_c, 0, 50, 0
3, 273420, Note_on_c, 0, 79, 0
3, 273780, Note_on_c, 0, 67, 46
3, 273780, Note_on_c, 0, 70, 46
3, 273780, Note_on_c, 0, 74, 46
3, 273780, Note_on_c, 0, 79, 46
3, 273780, Note_on_c, 0, 43, 43
3, 273780, Note_on_c, 0, 50, 43
3, 273780, Note_on_c, 0, 58, 43
3, 273960, Note_on_c, 0, 58, 0
3, 273960, Note_on_c, 0, 43, 0
3, 273960, Note_on_c, 0, 70, 0
3, 273960, Note_on_c, 0, 74, 0
3, 273960, Note_on_c, 0, 67, 0
3, 273960, Note_on_c, 0, 50, 0
3, 273960, Note_on_c, 0, 79, 0
3, 274320, Note_on_c, 0, 55, 39
3, 274320, Note_on_c, 0, 31, 35
3, 274320, Note_on_c, 0, 43, 35
3, 274500, Note_on_c, 0, 43, 0
3, 274500, Note_on_c, 0, 31, 0
3, 274500, Note_on_c, 0, 55, 0
3, 274860, Note_on_c, 0, 55, 63
3, 274860, Note_on_c, 0, 31, 60
3, 274860, Note_on_c, 0, 43, 60
3, 275040, Note_on_c, 0, 43, 0
3, 275040, Note_on_c, 0, 31, 0
3, 275040, Note_on_c, 0, 55, 0
3, 275040, Note_on_c, 0, 55, 38
3, 275040, Note_on_c, 0, 31, 38
3, 275040, Note_on_c, 0, 43, 38
3, 275129, Note_on_c, 0, 43, 0
3, 275129, Note_on_c, 0, 31, 0
3, 275129, Note_on_c, 0, 55, 0
3, 275129, End_track
0, 0, End_of_file
