0, 0, Header, 1, 3, 360
1, 0, Start_track
1, 0, Title_t, "Symphony No 1 - 3rd movement"
1, 0, Copyright_t, "Copyright (C) "
1, 0, Text_t, "Rachmaninoff\012"
1, 0, Time_signature, 3, 2, 24, 8
1, 0, Key_signature, -2, "major"
1, 0, Tempo, 1153846
1, 990, Tempo, 1153846
1, 28800, Tempo, 1090909
1, 28980, Tempo, 1034483
1, 29160, Tempo, 1000000
1, 32760, Tempo, 1000000
1, 32791, Tempo, 1014542
1, 32822, Tempo, 1029513
1, 32853, Tempo, 1044932
1, 32884, Tempo, 1060820
1, 32915, Tempo, 1077199
1, 32946, Tempo, 1094092
1, 32977, Tempo, 1111523
1, 33008, Tempo, 1129305
1, 33039, Tempo, 1147886
1, 33069, Tempo, 1167088
1, 33101, Tempo, 1186944
1, 33131, Tempo, 1207486
1, 33162, Tempo, 1228753
1, 33193, Tempo, 1250782
1, 33224, Tempo, 1273615
1, 33255, Tempo, 1297297
1, 33300, Tempo, 1333333
1, 33480, Tempo, 1000000
1, 41400, Tempo, 1000000
1, 41431, Tempo, 1014542
1, 41462, Tempo, 1029513
1, 41493, Tempo, 1044932
1, 41524, Tempo, 1060820
1, 41555, Tempo, 1077199
1, 41586, Tempo, 1094092
1, 41617, Tempo, 1111523
1, 41648, Tempo, 1129305
1, 41679, Tempo, 1147886
1, 41709, Tempo, 1167088
1, 41741, Tempo, 1186944
1, 41771, Tempo, 1207486
1, 41802, Tempo, 1228753
1, 41833, Tempo, 1250782
1, 41864, Tempo, 1273615
1, 41895, Tempo, 1297297
1, 41940, Tempo, 1333333
1, 42120, Tempo, 1000000
1, 50400, Tempo, 1000000
1, 50442, Tempo, 1014885
1, 50484, Tempo, 1030220
1, 50527, Tempo, 1046025
1, 50569, Tempo, 1062323
1, 50611, Tempo, 1078943
1, 50653, Tempo, 1096291
1, 50696, Tempo, 1114206
1, 50780, Tempo, 1151853
1, 50822, Tempo, 1171646
1, 50864, Tempo, 1192132
1, 50906, Tempo, 1213347
1, 50949, Tempo, 1235330
1, 50991, Tempo, 1257862
1, 51033, Tempo, 1281504
1, 51075, Tempo, 1306051
1, 51120, Tempo, 1333333
1, 51839, Tempo, 1000000
1, 52560, Tempo, 1333333
1, 52602, Tempo, 1354402
1, 52644, Tempo, 1376462
1, 52687, Tempo, 1398927
1, 52729, Tempo, 1422138
1, 52771, Tempo, 1446480
1, 52813, Tempo, 1471309
1, 52856, Tempo, 1497006
1, 52940, Tempo, 1551590
1, 52982, Tempo, 1580195
1, 53024, Tempo, 1609874
1, 53066, Tempo, 1641138
1, 53109, Tempo, 1673173
1, 53151, Tempo, 1706485
1, 53193, Tempo, 1741655
1, 53235, Tempo, 1777778
1, 53280, Tempo, 1818182
1, 53460, Tempo, 1000000
1, 61560, Tempo, 1818182
1, 61676, Tempo, 1847291
1, 61791, Tempo, 1877934
1, 61906, Tempo, 1909004
1, 62021, Tempo, 1941748
1, 62137, Tempo, 1974984
1, 62252, Tempo, 2009377
1, 62367, Tempo, 2045687
1, 62483, Tempo, 2082610
1, 62713, Tempo, 2161383
1, 62829, Tempo, 2203452
1, 62944, Tempo, 2246350
1, 63059, Tempo, 2290951
1, 63174, Tempo, 2338270
1, 63290, Tempo, 2386635
1, 63405, Tempo, 2438033
1, 63540, Tempo, 2500000
1, 63720, Tempo, 1250000
1, 86400, Tempo, 1153846
1, 87120, Tempo, 1071429
1, 87480, Tempo, 1000000
1, 98280, Tempo, 1000000
1, 98470, Tempo, 1014885
1, 98660, Tempo, 1030220
1, 98850, Tempo, 1046025
1, 99039, Tempo, 1062135
1, 99419, Tempo, 1096291
1, 99609, Tempo, 1114206
1, 99799, Tempo, 1132717
1, 99989, Tempo, 1151853
1, 100179, Tempo, 1171646
1, 100558, Tempo, 1213101
1, 100748, Tempo, 1235076
1, 100938, Tempo, 1257862
1, 101128, Tempo, 1281504
1, 101318, Tempo, 1306051
1, 101522, Tempo, 1333333
1, 101880, Tempo, 1153846
1, 109080, Tempo, 1153846
1, 109111, Tempo, 1170503
1, 109142, Tempo, 1187884
1, 109173, Tempo, 1205546
1, 109204, Tempo, 1223990
1, 109235, Tempo, 1242751
1, 109266, Tempo, 1262361
1, 109297, Tempo, 1282325
1, 109328, Tempo, 1303215
1, 109359, Tempo, 1324503
1, 109389, Tempo, 1346801
1, 109421, Tempo, 1369550
1, 109451, Tempo, 1393405
1, 109482, Tempo, 1417769
1, 109513, Tempo, 1443349
1, 109544, Tempo, 1469508
1, 109575, Tempo, 1497006
1, 109620, Tempo, 1538462
1, 109800, Tempo, 1153846
1, 130680, Tempo, 1153846
1, 134280, Tempo, 1153846
1, 134315, Tempo, 1170960
1, 134351, Tempo, 1188590
1, 134385, Tempo, 1206758
1, 134421, Tempo, 1225490
1, 134456, Tempo, 1245072
1, 134491, Tempo, 1265022
1, 134526, Tempo, 1285622
1, 134561, Tempo, 1306905
1, 134597, Tempo, 1328904
1, 134632, Tempo, 1351656
1, 134667, Tempo, 1375201
1, 134702, Tempo, 1399580
1, 134737, Tempo, 1424840
1, 134772, Tempo, 1451379
1, 134807, Tempo, 1478561
1, 134843, Tempo, 1506781
1, 134880, Tempo, 1538462
1, 135000, Tempo, 1153846
1, 167040, Tempo, 1363636
1, 167112, Tempo, 1666667
1, 167184, Tempo, 2142857
1, 167255, Tempo, 3000000
1, 167327, Tempo, 5000000
1, 167400, Tempo, 1500000
1, 167754, Tempo, 1500000
1, 167958, Tempo, 1522070
1, 168162, Tempo, 1545197
1, 168570, Tempo, 1593202
1, 168774, Tempo, 1618123
1, 168978, Tempo, 1644286
1, 169182, Tempo, 1670844
1, 169590, Tempo, 1727116
1, 169794, Tempo, 1756955
1, 169997, Tempo, 1787310
1, 170201, Tempo, 1819284
1, 170405, Tempo, 1851852
1, 170813, Tempo, 1921230
1, 171017, Tempo, 1957586
1, 171242, Tempo, 2000000
1, 171630, Tempo, 5000000
1, 171720, Tempo, 2000000
1, 171720, End_track
2, 0, Start_track
2, 0, Title_t, "Piano 1"
2, 0, Program_c, 0, 0
2, 0, Control_c, 0, 7, 105
2, 0, Control_c, 0, 10, 79
2, 0, Control_c, 0, 91, 48
2, 990, Control_c, 0, 121, 0
2, 990, Control_c, 0, 64, 0
2, 990, Control_c, 0, 121, 0
2, 990, Control_c, 0, 64, 0
2, 990, Control_c, 0, 91, 48
2, 990, Control_c, 0, 10, 51
2, 990, Control_c, 0, 7, 100
2, 1080, Note_on_c, 0, 72, 93
2, 1440, Note_on_c, 0, 72, 0
2, 1440, Note_on_c, 0, 70, 75
2, 2160, Note_on_c, 0, 70, 0
2, 2160, Note_on_c, 0, 72, 81
2, 2520, Note_on_c, 0, 72, 0
2, 2520, Note_on_c, 0, 70, 61
2, 3240, Note_on_c, 0, 70, 0
2, 3240, Note_on_c, 0, 72, 68
2, 3600, Note_on_c, 0, 72, 0
2, 3600, Note_on_c, 0, 70, 50
2, 4500, Note_on_c, 0, 70, 0
2, 5040, Note_on_c, 0, 70, 77
2, 5198, Note_on_c, 0, 70, 0
2, 5220, Note_on_c, 0, 72, 90
2, 5378, Note_on_c, 0, 72, 0
2, 5400, Note_on_c, 0, 77, 56
2, 5400, Note_on_c, 0, 74, 77
2, 5489, Note_on_c, 0, 77, 0
2, 5670, Note_on_c, 0, 72, 53
2, 5670, Note_on_c, 0, 75, 53
2, 5717, Note_on_c, 0, 74, 0
2, 5760, Note_on_c, 0, 75, 0
2, 5760, Note_on_c, 0, 72, 0
2, 5760, Note_on_c, 0, 74, 74
2, 5760, Note_on_c, 0, 77, 74
2, 5760, Note_on_c, 0, 70, 66
2, 6077, Note_on_c, 0, 70, 0
2, 6120, Note_on_c, 0, 70, 67
2, 6300, Note_on_c, 0, 77, 0
2, 6300, Note_on_c, 0, 74, 0
2, 6437, Note_on_c, 0, 70, 0
2, 7200, Note_on_c, 0, 70, 60
2, 7380, Note_on_c, 0, 70, 0
2, 7380, Note_on_c, 0, 72, 78
2, 7560, Note_on_c, 0, 72, 0
2, 7560, Note_on_c, 0, 77, 69
2, 7560, Note_on_c, 0, 74, 81
2, 7649, Note_on_c, 0, 77, 0
2, 7740, Note_on_c, 0, 74, 0
2, 7740, Note_on_c, 0, 70, 72
2, 7830, Note_on_c, 0, 72, 80
2, 7830, Note_on_c, 0, 75, 80
2, 7920, Note_on_c, 0, 75, 0
2, 7920, Note_on_c, 0, 72, 0
2, 7920, Note_on_c, 0, 70, 0
2, 7920, Note_on_c, 0, 74, 97
2, 7920, Note_on_c, 0, 77, 97
2, 7920, Note_on_c, 0, 70, 79
2, 8237, Note_on_c, 0, 70, 0
2, 8280, Note_on_c, 0, 70, 76
2, 8460, Note_on_c, 0, 77, 0
2, 8460, Note_on_c, 0, 74, 0
2, 8597, Note_on_c, 0, 70, 0
2, 9180, Note_on_c, 0, 69, 68
2, 9360, Note_on_c, 0, 69, 0
2, 9360, Note_on_c, 0, 70, 74
2, 9540, Note_on_c, 0, 70, 0
2, 9540, Note_on_c, 0, 72, 88
2, 9720, Note_on_c, 0, 72, 0
2, 9720, Note_on_c, 0, 77, 85
2, 9720, Note_on_c, 0, 74, 99
2, 9809, Note_on_c, 0, 77, 0
2, 9900, Note_on_c, 0, 74, 0
2, 9900, Note_on_c, 0, 70, 85
2, 9990, Note_on_c, 0, 72, 85
2, 9990, Note_on_c, 0, 75, 85
2, 10080, Note_on_c, 0, 75, 0
2, 10080, Note_on_c, 0, 72, 0
2, 10080, Note_on_c, 0, 70, 0
2, 10080, Note_on_c, 0, 77, 109
2, 10080, Note_on_c, 0, 74, 106
2, 10620, Note_on_c, 0, 74, 0
2, 10620, Note_on_c, 0, 77, 0
2, 10620, Note_on_c, 0, 72, 83
2, 10800, Note_on_c, 0, 72, 0
2, 10800, Note_on_c, 0, 70, 93
2, 10980, Note_on_c, 0, 70, 0
2, 10980, Note_on_c, 0, 72, 95
2, 11160, Note_on_c, 0, 72, 0
2, 11160, Note_on_c, 0, 75, 96
2, 11477, Note_on_c, 0, 75, 0
2, 11520, Note_on_c, 0, 74, 99
2, 11700, Note_on_c, 0, 74, 0
2, 11700, Note_on_c, 0, 72, 100
2, 11880, Note_on_c, 0, 72, 0
2, 11880, Note_on_c, 0, 74, 102
2, 12038, Note_on_c, 0, 74, 0
2, 12060, Note_on_c, 0, 75, 103
2, 12218, Note_on_c, 0, 75, 0
2, 12240, Note_on_c, 0, 76, 105
2, 12398, Note_on_c, 0, 76, 0
2, 12420, Note_on_c, 0, 77, 124
2, 12578, Note_on_c, 0, 77, 0
2, 12600, Note_on_c, 0, 82, 127
2, 12600, Note_on_c, 0, 74, 94
2, 12960, Note_on_c, 0, 74, 0
2, 12960, Note_on_c, 0, 72, 98
2, 13320, Note_on_c, 0, 82, 0
2, 13320, Note_on_c, 0, 81, 107
2, 13860, Note_on_c, 0, 81, 0
2, 13860, Note_on_c, 0, 78, 84
2, 14040, Note_on_c, 0, 78, 0
2, 14040, Note_on_c, 0, 72, 0
2, 14040, Note_on_c, 0, 77, 66
2, 14040, Note_on_c, 0, 74, 69
2, 14129, Note_on_c, 0, 74, 0
2, 14220, Note_on_c, 0, 77, 0
2, 14220, Note_on_c, 0, 70, 59
2, 14310, Note_on_c, 0, 72, 66
2, 14310, Note_on_c, 0, 75, 66
2, 14400, Note_on_c, 0, 75, 0
2, 14400, Note_on_c, 0, 72, 0
2, 14400, Note_on_c, 0, 70, 0
2, 14400, Note_on_c, 0, 77, 77
2, 14400, Note_on_c, 0, 74, 77
2, 14760, Note_on_c, 0, 77, 0
2, 14760, Note_on_c, 0, 77, 85
2, 14940, Note_on_c, 0, 74, 0
2, 14940, Note_on_c, 0, 70, 65
2, 15120, Note_on_c, 0, 70, 0
2, 15120, Note_on_c, 0, 69, 66
2, 15480, Note_on_c, 0, 77, 0
2, 15480, Note_on_c, 0, 75, 64
2, 15660, Note_on_c, 0, 75, 0
2, 15660, Note_on_c, 0, 74, 68
2, 15840, Note_on_c, 0, 74, 0
2, 15840, Note_on_c, 0, 72, 64
2, 15960, Note_on_c, 0, 72, 0
2, 15960, Note_on_c, 0, 74, 77
2, 16079, Note_on_c, 0, 74, 0
2, 16079, Note_on_c, 0, 75, 76
2, 16200, Note_on_c, 0, 75, 0
2, 16200, Note_on_c, 0, 69, 0
2, 16200, Note_on_c, 0, 74, 68
2, 16200, Note_on_c, 0, 70, 68
2, 16380, Note_on_c, 0, 74, 0
2, 16380, Note_on_c, 0, 70, 62
2, 16560, Note_on_c, 0, 70, 0
2, 16560, Note_on_c, 0, 74, 75
2, 16740, Note_on_c, 0, 70, 0
2, 16920, Note_on_c, 0, 67, 72
2, 17237, Note_on_c, 0, 67, 0
2, 17280, Note_on_c, 0, 74, 0
2, 17280, Note_on_c, 0, 72, 65
2, 17280, Note_on_c, 0, 66, 83
2, 17640, Note_on_c, 0, 72, 0
2, 17640, Note_on_c, 0, 70, 68
2, 17820, Note_on_c, 0, 70, 0
2, 17820, Note_on_c, 0, 66, 66
2, 18000, Note_on_c, 0, 66, 0
2, 18000, Note_on_c, 0, 66, 69
2, 18229, Note_on_c, 0, 66, 0
2, 18360, Note_on_c, 0, 66, 0
2, 18360, Note_on_c, 0, 74, 79
2, 18360, Note_on_c, 0, 67, 73
2, 18360, Note_on_c, 0, 70, 73
2, 18449, Note_on_c, 0, 74, 0
2, 18540, Note_on_c, 0, 70, 0
2, 18540, Note_on_c, 0, 67, 0
2, 18540, Note_on_c, 0, 67, 64
2, 18630, Note_on_c, 0, 69, 64
2, 18630, Note_on_c, 0, 72, 64
2, 18720, Note_on_c, 0, 72, 0
2, 18720, Note_on_c, 0, 69, 0
2, 18720, Note_on_c, 0, 67, 0
2, 18720, Note_on_c, 0, 74, 84
2, 18720, Note_on_c, 0, 70, 84
2, 19260, Note_on_c, 0, 74, 0
2, 19800, Note_on_c, 0, 70, 0
2, 19800, Note_on_c, 0, 67, 70
2, 19800, Note_on_c, 0, 67, 70
2, 19904, Note_on_c, 0, 67, 0
2, 19920, Note_on_c, 0, 69, 73
2, 20024, Note_on_c, 0, 69, 0
2, 20039, Note_on_c, 0, 70, 75
2, 20117, Note_on_c, 0, 67, 0
2, 20145, Note_on_c, 0, 70, 0
2, 20160, Note_on_c, 0, 71, 77
2, 20160, Note_on_c, 0, 68, 77
2, 20264, Note_on_c, 0, 71, 0
2, 20280, Note_on_c, 0, 70, 79
2, 20384, Note_on_c, 0, 70, 0
2, 20399, Note_on_c, 0, 71, 81
2, 20477, Note_on_c, 0, 68, 0
2, 20505, Note_on_c, 0, 71, 0
2, 20520, Note_on_c, 0, 72, 95
2, 20520, Note_on_c, 0, 69, 105
2, 20700, Note_on_c, 0, 72, 0
2, 20700, Note_on_c, 0, 69, 83
2, 20880, Note_on_c, 0, 69, 0
2, 20880, Note_on_c, 0, 72, 97
2, 21420, Note_on_c, 0, 72, 0
2, 21420, Note_on_c, 0, 69, 0
2, 21600, Note_on_c, 0, 63, 85
2, 22680, Note_on_c, 0, 63, 0
2, 22680, Note_on_c, 0, 65, 97
2, 22860, Note_on_c, 0, 65, 0
2, 23040, Note_on_c, 0, 65, 92
2, 23940, Note_on_c, 0, 57, 56
2, 24120, Note_on_c, 0, 57, 0
2, 24120, Note_on_c, 0, 65, 0
2, 24120, Note_on_c, 0, 65, 102
2, 24120, Note_on_c, 0, 58, 61
2, 24300, Note_on_c, 0, 58, 0
2, 24300, Note_on_c, 0, 60, 67
2, 24480, Note_on_c, 0, 60, 0
2, 24480, Note_on_c, 0, 61, 62
2, 24660, Note_on_c, 0, 61, 0
2, 24660, Note_on_c, 0, 64, 64
2, 24840, Note_on_c, 0, 64, 0
2, 24840, Note_on_c, 0, 65, 61
2, 25020, Note_on_c, 0, 65, 0
2, 25020, Note_on_c, 0, 62, 56
2, 25200, Note_on_c, 0, 62, 0
2, 25200, Note_on_c, 0, 65, 0
2, 25200, Note_on_c, 0, 65, 106
2, 26040, Note_on_c, 0, 57, 65
2, 26144, Note_on_c, 0, 57, 0
2, 26159, Note_on_c, 0, 58, 70
2, 26265, Note_on_c, 0, 58, 0
2, 26280, Note_on_c, 0, 65, 0
2, 26280, Note_on_c, 0, 65, 115
2, 26280, Note_on_c, 0, 58, 60
2, 26384, Note_on_c, 0, 58, 0
2, 26400, Note_on_c, 0, 60, 63
2, 26504, Note_on_c, 0, 60, 0
2, 26519, Note_on_c, 0, 61, 65
2, 26625, Note_on_c, 0, 61, 0
2, 26640, Note_on_c, 0, 61, 68
2, 26744, Note_on_c, 0, 61, 0
2, 26760, Note_on_c, 0, 63, 70
2, 26864, Note_on_c, 0, 63, 0
2, 26879, Note_on_c, 0, 64, 86
2, 26985, Note_on_c, 0, 64, 0
2, 27000, Note_on_c, 0, 65, 73
2, 27180, Note_on_c, 0, 65, 0
2, 27180, Note_on_c, 0, 60, 59
2, 27360, Note_on_c, 0, 60, 0
2, 27360, Note_on_c, 0, 65, 0
2, 27360, Note_on_c, 0, 65, 106
2, 28800, Note_on_c, 0, 65, 0
2, 28800, Note_on_c, 0, 63, 67
2, 28980, Note_on_c, 0, 63, 0
2, 28980, Note_on_c, 0, 65, 80
2, 29160, Note_on_c, 0, 65, 0
2, 29160, Note_on_c, 0, 66, 75
2, 29160, Note_on_c, 0, 63, 77
2, 29340, Note_on_c, 0, 66, 0
2, 29340, Note_on_c, 0, 63, 63
2, 29520, Note_on_c, 0, 63, 0
2, 29520, Note_on_c, 0, 66, 78
2, 29880, Note_on_c, 0, 66, 0
2, 29880, Note_on_c, 0, 66, 69
2, 30000, Note_on_c, 0, 66, 0
2, 30000, Note_on_c, 0, 68, 77
2, 30109, Note_on_c, 0, 63, 0
2, 30119, Note_on_c, 0, 68, 0
2, 30119, Note_on_c, 0, 70, 70
2, 30240, Note_on_c, 0, 70, 0
2, 30240, Note_on_c, 0, 70, 67
2, 30240, Note_on_c, 0, 60, 88
2, 30240, Note_on_c, 0, 63, 88
2, 30240, Note_on_c, 0, 66, 88
2, 30420, Note_on_c, 0, 70, 0
2, 30420, Note_on_c, 0, 66, 60
2, 30600, Note_on_c, 0, 66, 0
2, 30600, Note_on_c, 0, 70, 71
2, 30960, Note_on_c, 0, 70, 0
2, 30960, Note_on_c, 0, 70, 70
2, 31140, Note_on_c, 0, 70, 0
2, 31140, Note_on_c, 0, 60, 0
2, 31140, Note_on_c, 0, 63, 0
2, 31140, Note_on_c, 0, 66, 0
2, 31140, Note_on_c, 0, 72, 72
2, 31320, Note_on_c, 0, 72, 0
2, 31320, Note_on_c, 0, 73, 74
2, 31320, Note_on_c, 0, 70, 74
2, 31320, Note_on_c, 0, 66, 90
2, 31500, Note_on_c, 0, 73, 0
2, 31500, Note_on_c, 0, 72, 76
2, 31680, Note_on_c, 0, 72, 0
2, 31680, Note_on_c, 0, 70, 78
2, 31860, Note_on_c, 0, 70, 0
2, 31860, Note_on_c, 0, 72, 80
2, 32040, Note_on_c, 0, 72, 0
2, 32040, Note_on_c, 0, 73, 82
2, 32144, Note_on_c, 0, 73, 0
2, 32160, Note_on_c, 0, 72, 97
2, 32264, Note_on_c, 0, 72, 0
2, 32279, Note_on_c, 0, 73, 104
2, 32385, Note_on_c, 0, 73, 0
2, 32400, Note_on_c, 0, 66, 0
2, 32400, Note_on_c, 0, 73, 110
2, 32400, Note_on_c, 0, 67, 102
2, 32580, Note_on_c, 0, 73, 0
2, 32580, Note_on_c, 0, 74, 105
2, 32760, Note_on_c, 0, 74, 0
2, 32760, Note_on_c, 0, 79, 107
2, 32918, Note_on_c, 0, 79, 0
2, 32940, Note_on_c, 0, 78, 103
2, 33098, Note_on_c, 0, 78, 0
2, 33120, Note_on_c, 0, 67, 0
2, 33120, Note_on_c, 0, 75, 99
2, 33120, Note_on_c, 0, 66, 93
2, 33278, Note_on_c, 0, 75, 0
2, 33300, Note_on_c, 0, 74, 100
2, 33458, Note_on_c, 0, 74, 0
2, 33480, Note_on_c, 0, 66, 0
2, 33480, Note_on_c, 0, 77, 84
2, 33480, Note_on_c, 0, 65, 88
2, 33660, Note_on_c, 0, 65, 0
2, 33660, Note_on_c, 0, 70, 0
2, 33840, Note_on_c, 0, 77, 0
2, 33840, Note_on_c, 0, 70, 77
2, 34110, Note_on_c, 0, 80, 95
2, 34200, Note_on_c, 0, 80, 0
2, 34200, Note_on_c, 0, 70, 0
2, 34200, Note_on_c, 0, 77, 96
2, 34200, Note_on_c, 0, 70, 96
2, 34290, Note_on_c, 0, 77, 0
2, 34290, Note_on_c, 0, 80, 98
2, 34380, Note_on_c, 0, 80, 0
2, 34380, Note_on_c, 0, 77, 99
2, 34470, Note_on_c, 0, 77, 0
2, 34470, Note_on_c, 0, 80, 101
2, 34517, Note_on_c, 0, 70, 0
2, 34560, Note_on_c, 0, 80, 0
2, 34560, Note_on_c, 0, 77, 103
2, 34560, Note_on_c, 0, 77, 103
2, 34650, Note_on_c, 0, 77, 0
2, 34650, Note_on_c, 0, 82, 104
2, 34740, Note_on_c, 0, 82, 0
2, 34740, Note_on_c, 0, 77, 106
2, 34830, Note_on_c, 0, 77, 0
2, 34830, Note_on_c, 0, 83, 118
2, 34877, Note_on_c, 0, 77, 0
2, 34920, Note_on_c, 0, 83, 0
2, 34920, Note_on_c, 0, 77, 107
2, 34920, Note_on_c, 0, 75, 107
2, 35010, Note_on_c, 0, 77, 0
2, 35010, Note_on_c, 0, 82, 106
2, 35100, Note_on_c, 0, 82, 0
2, 35100, Note_on_c, 0, 75, 0
2, 35100, Note_on_c, 0, 77, 104
2, 35100, Note_on_c, 0, 71, 104
2, 35190, Note_on_c, 0, 77, 0
2, 35190, Note_on_c, 0, 80, 103
2, 35280, Note_on_c, 0, 80, 0
2, 35280, Note_on_c, 0, 71, 0
2, 35280, Note_on_c, 0, 77, 101
2, 35280, Note_on_c, 0, 71, 101
2, 35370, Note_on_c, 0, 77, 0
2, 35370, Note_on_c, 0, 82, 99
2, 35460, Note_on_c, 0, 82, 0
2, 35460, Note_on_c, 0, 77, 98
2, 35550, Note_on_c, 0, 77, 0
2, 35550, Note_on_c, 0, 80, 96
2, 35597, Note_on_c, 0, 71, 0
2, 35640, Note_on_c, 0, 80, 0
2, 35640, Note_on_c, 0, 77, 80
2, 35640, Note_on_c, 0, 77, 109
2, 35730, Note_on_c, 0, 77, 0
2, 35730, Note_on_c, 0, 80, 99
2, 35820, Note_on_c, 0, 80, 0
2, 35820, Note_on_c, 0, 77, 87
2, 36000, Note_on_c, 0, 77, 0
2, 36000, Note_on_c, 0, 70, 80
2, 36270, Note_on_c, 0, 77, 0
2, 36270, Note_on_c, 0, 80, 92
2, 36360, Note_on_c, 0, 80, 0
2, 36360, Note_on_c, 0, 70, 0
2, 36360, Note_on_c, 0, 77, 91
2, 36360, Note_on_c, 0, 70, 91
2, 36450, Note_on_c, 0, 77, 0
2, 36450, Note_on_c, 0, 80, 90
2, 36540, Note_on_c, 0, 80, 0
2, 36540, Note_on_c, 0, 77, 88
2, 36630, Note_on_c, 0, 77, 0
2, 36630, Note_on_c, 0, 80, 87
2, 36677, Note_on_c, 0, 70, 0
2, 36720, Note_on_c, 0, 80, 0
2, 36720, Note_on_c, 0, 77, 86
2, 36810, Note_on_c, 0, 77, 0
2, 36810, Note_on_c, 0, 80, 84
2, 36900, Note_on_c, 0, 80, 0
2, 36900, Note_on_c, 0, 77, 83
2, 37440, Note_on_c, 0, 77, 0
2, 37440, Note_on_c, 0, 68, 55
2, 37620, Note_on_c, 0, 68, 0
2, 37620, Note_on_c, 0, 70, 76
2, 37800, Note_on_c, 0, 70, 0
2, 37800, Note_on_c, 0, 71, 70
2, 37800, Note_on_c, 0, 68, 80
2, 37980, Note_on_c, 0, 71, 0
2, 37980, Note_on_c, 0, 68, 63
2, 38160, Note_on_c, 0, 68, 0
2, 38160, Note_on_c, 0, 71, 70
2, 38433, Note_on_c, 0, 68, 0
2, 38520, Note_on_c, 0, 71, 0
2, 38520, Note_on_c, 0, 71, 72
2, 38520, Note_on_c, 0, 68, 69
2, 38640, Note_on_c, 0, 71, 0
2, 38640, Note_on_c, 0, 73, 75
2, 38700, Note_on_c, 0, 68, 0
2, 38700, Note_on_c, 0, 66, 67
2, 38759, Note_on_c, 0, 73, 0
2, 38759, Note_on_c, 0, 75, 73
2, 38880, Note_on_c, 0, 75, 0
2, 38880, Note_on_c, 0, 66, 0
2, 38880, Note_on_c, 0, 75, 70
2, 38880, Note_on_c, 0, 65, 90
2, 38880, Note_on_c, 0, 68, 90
2, 38880, Note_on_c, 0, 71, 90
2, 39060, Note_on_c, 0, 75, 0
2, 39060, Note_on_c, 0, 71, 62
2, 39240, Note_on_c, 0, 71, 0
2, 39240, Note_on_c, 0, 75, 77
2, 39513, Note_on_c, 0, 65, 0
2, 39513, Note_on_c, 0, 71, 0
2, 39513, Note_on_c, 0, 68, 0
2, 39600, Note_on_c, 0, 75, 0
2, 39600, Note_on_c, 0, 75, 81
2, 39600, Note_on_c, 0, 71, 82
2, 39704, Note_on_c, 0, 75, 0
2, 39720, Note_on_c, 0, 77, 87
2, 39824, Note_on_c, 0, 77, 0
2, 39839, Note_on_c, 0, 78, 81
2, 39917, Note_on_c, 0, 71, 0
2, 39945, Note_on_c, 0, 78, 0
2, 39960, Note_on_c, 0, 78, 70
2, 39960, Note_on_c, 0, 75, 81
2, 39960, Note_on_c, 0, 71, 91
2, 40140, Note_on_c, 0, 78, 0
2, 40140, Note_on_c, 0, 77, 68
2, 40320, Note_on_c, 0, 77, 0
2, 40320, Note_on_c, 0, 75, 65
2, 40500, Note_on_c, 0, 75, 0
2, 40500, Note_on_c, 0, 77, 72
2, 40680, Note_on_c, 0, 77, 0
2, 40680, Note_on_c, 0, 78, 85
2, 40784, Note_on_c, 0, 78, 0
2, 40800, Note_on_c, 0, 77, 83
2, 40904, Note_on_c, 0, 77, 0
2, 40919, Note_on_c, 0, 78, 88
2, 41025, Note_on_c, 0, 78, 0
2, 41040, Note_on_c, 0, 75, 0
2, 41040, Note_on_c, 0, 71, 0
2, 41040, Note_on_c, 0, 78, 108
2, 41040, Note_on_c, 0, 75, 111
2, 41040, Note_on_c, 0, 72, 81
2, 41220, Note_on_c, 0, 78, 0
2, 41220, Note_on_c, 0, 79, 113
2, 41400, Note_on_c, 0, 79, 0
2, 41400, Note_on_c, 0, 84, 107
2, 41558, Note_on_c, 0, 84, 0
2, 41580, Note_on_c, 0, 83, 103
2, 41738, Note_on_c, 0, 83, 0
2, 41760, Note_on_c, 0, 72, 0
2, 41760, Note_on_c, 0, 80, 99
2, 41760, Note_on_c, 0, 71, 74
2, 41918, Note_on_c, 0, 80, 0
2, 41940, Note_on_c, 0, 79, 99
2, 42098, Note_on_c, 0, 79, 0
2, 42120, Note_on_c, 0, 71, 0
2, 42120, Note_on_c, 0, 82, 113
2, 42120, Note_on_c, 0, 70, 90
2, 42300, Note_on_c, 0, 70, 0
2, 42300, Note_on_c, 0, 75, 0
2, 42480, Note_on_c, 0, 82, 0
2, 42480, Note_on_c, 0, 75, 78
2, 42750, Note_on_c, 0, 85, 95
2, 42840, Note_on_c, 0, 85, 0
2, 42840, Note_on_c, 0, 75, 0
2, 42840, Note_on_c, 0, 82, 96
2, 42840, Note_on_c, 0, 75, 96
2, 42930, Note_on_c, 0, 82, 0
2, 42930, Note_on_c, 0, 85, 98
2, 43020, Note_on_c, 0, 85, 0
2, 43020, Note_on_c, 0, 82, 99
2, 43110, Note_on_c, 0, 82, 0
2, 43110, Note_on_c, 0, 85, 101
2, 43157, Note_on_c, 0, 75, 0
2, 43200, Note_on_c, 0, 85, 0
2, 43200, Note_on_c, 0, 82, 103
2, 43200, Note_on_c, 0, 82, 103
2, 43290, Note_on_c, 0, 82, 0
2, 43290, Note_on_c, 0, 87, 104
2, 43380, Note_on_c, 0, 87, 0
2, 43380, Note_on_c, 0, 82, 106
2, 43470, Note_on_c, 0, 82, 0
2, 43470, Note_on_c, 0, 88, 123
2, 43517, Note_on_c, 0, 82, 0
2, 43560, Note_on_c, 0, 88, 0
2, 43560, Note_on_c, 0, 82, 107
2, 43560, Note_on_c, 0, 80, 107
2, 43650, Note_on_c, 0, 82, 0
2, 43650, Note_on_c, 0, 87, 106
2, 43740, Note_on_c, 0, 87, 0
2, 43740, Note_on_c, 0, 80, 0
2, 43740, Note_on_c, 0, 82, 104
2, 43740, Note_on_c, 0, 76, 104
2, 43830, Note_on_c, 0, 82, 0
2, 43830, Note_on_c, 0, 85, 103
2, 43920, Note_on_c, 0, 85, 0
2, 43920, Note_on_c, 0, 76, 0
2, 43920, Note_on_c, 0, 82, 101
2, 43920, Note_on_c, 0, 76, 101
2, 44010, Note_on_c, 0, 82, 0
2, 44010, Note_on_c, 0, 87, 99
2, 44100, Note_on_c, 0, 87, 0
2, 44100, Note_on_c, 0, 82, 98
2, 44190, Note_on_c, 0, 82, 0
2, 44190, Note_on_c, 0, 85, 96
2, 44237, Note_on_c, 0, 76, 0
2, 44280, Note_on_c, 0, 85, 0
2, 44280, Note_on_c, 0, 82, 88
2, 44280, Note_on_c, 0, 82, 106
2, 44370, Note_on_c, 0, 82, 0
2, 44370, Note_on_c, 0, 85, 103
2, 44460, Note_on_c, 0, 85, 0
2, 44460, Note_on_c, 0, 82, 82
2, 44640, Note_on_c, 0, 82, 0
2, 44640, Note_on_c, 0, 75, 79
2, 44910, Note_on_c, 0, 82, 0
2, 44910, Note_on_c, 0, 85, 92
2, 45000, Note_on_c, 0, 85, 0
2, 45000, Note_on_c, 0, 75, 0
2, 45000, Note_on_c, 0, 82, 91
2, 45000, Note_on_c, 0, 75, 91
2, 45090, Note_on_c, 0, 82, 0
2, 45090, Note_on_c, 0, 85, 90
2, 45180, Note_on_c, 0, 85, 0
2, 45180, Note_on_c, 0, 82, 88
2, 45270, Note_on_c, 0, 82, 0
2, 45270, Note_on_c, 0, 85, 87
2, 45317, Note_on_c, 0, 75, 0
2, 45360, Note_on_c, 0, 85, 0
2, 45360, Note_on_c, 0, 82, 86
2, 45450, Note_on_c, 0, 82, 0
2, 45450, Note_on_c, 0, 85, 84
2, 45540, Note_on_c, 0, 85, 0
2, 45540, Note_on_c, 0, 82, 83
2, 46080, Note_on_c, 0, 82, 0
2, 46080, Note_on_c, 0, 73, 77
2, 46260, Note_on_c, 0, 73, 0
2, 46260, Note_on_c, 0, 75, 91
2, 46440, Note_on_c, 0, 75, 0
2, 46440, Note_on_c, 0, 76, 95
2, 46440, Note_on_c, 0, 73, 91
2, 46620, Note_on_c, 0, 76, 0
2, 46620, Note_on_c, 0, 73, 89
2, 46800, Note_on_c, 0, 73, 0
2, 46800, Note_on_c, 0, 76, 102
2, 47073, Note_on_c, 0, 73, 0
2, 47160, Note_on_c, 0, 76, 0
2, 47160, Note_on_c, 0, 76, 93
2, 47160, Note_on_c, 0, 73, 93
2, 47280, Note_on_c, 0, 76, 0
2, 47280, Note_on_c, 0, 78, 100
2, 47340, Note_on_c, 0, 73, 0
2, 47340, Note_on_c, 0, 71, 103
2, 47399, Note_on_c, 0, 78, 0
2, 47399, Note_on_c, 0, 80, 113
2, 47520, Note_on_c, 0, 80, 0
2, 47520, Note_on_c, 0, 71, 0
2, 47520, Note_on_c, 0, 80, 105
2, 47520, Note_on_c, 0, 73, 127
2, 47520, Note_on_c, 0, 76, 127
2, 47520, Note_on_c, 0, 70, 92
2, 47700, Note_on_c, 0, 80, 0
2, 47700, Note_on_c, 0, 76, 93
2, 47880, Note_on_c, 0, 76, 0
2, 47880, Note_on_c, 0, 80, 117
2, 48240, Note_on_c, 0, 80, 0
2, 48240, Note_on_c, 0, 70, 0
2, 48240, Note_on_c, 0, 80, 106
2, 48240, Note_on_c, 0, 70, 91
2, 48344, Note_on_c, 0, 80, 0
2, 48360, Note_on_c, 0, 82, 107
2, 48420, Note_on_c, 0, 70, 0
2, 48420, Note_on_c, 0, 68, 89
2, 48464, Note_on_c, 0, 82, 0
2, 48469, Note_on_c, 0, 76, 0
2, 48469, Note_on_c, 0, 73, 0
2, 48479, Note_on_c, 0, 83, 107
2, 48585, Note_on_c, 0, 83, 0
2, 48600, Note_on_c, 0, 68, 0
2, 48600, Note_on_c, 0, 83, 108
2, 48600, Note_on_c, 0, 68, 108
2, 48600, Note_on_c, 0, 73, 108
2, 48600, Note_on_c, 0, 76, 108
2, 48780, Note_on_c, 0, 83, 0
2, 48780, Note_on_c, 0, 82, 109
2, 48960, Note_on_c, 0, 82, 0
2, 48960, Note_on_c, 0, 80, 110
2, 49080, Note_on_c, 0, 80, 0
2, 49080, Note_on_c, 0, 82, 110
2, 49199, Note_on_c, 0, 82, 0
2, 49199, Note_on_c, 0, 83, 111
2, 49320, Note_on_c, 0, 83, 0
2, 49320, Note_on_c, 0, 83, 112
2, 49500, Note_on_c, 0, 83, 0
2, 49500, Note_on_c, 0, 85, 113
2, 49549, Note_on_c, 0, 76, 0
2, 49549, Note_on_c, 0, 68, 0
2, 49549, Note_on_c, 0, 73, 0
2, 49680, Note_on_c, 0, 85, 0
2, 49680, Note_on_c, 0, 86, 114
2, 49680, Note_on_c, 0, 68, 114
2, 49680, Note_on_c, 0, 74, 114
2, 49680, Note_on_c, 0, 76, 114
2, 49800, Note_on_c, 0, 86, 0
2, 49800, Note_on_c, 0, 85, 114
2, 49919, Note_on_c, 0, 85, 0
2, 49919, Note_on_c, 0, 83, 115
2, 50040, Note_on_c, 0, 83, 0
2, 50040, Note_on_c, 0, 83, 116
2, 50160, Note_on_c, 0, 83, 0
2, 50160, Note_on_c, 0, 85, 116
2, 50279, Note_on_c, 0, 85, 0
2, 50279, Note_on_c, 0, 86, 117
2, 50400, Note_on_c, 0, 86, 0
2, 50400, Note_on_c, 0, 86, 117
2, 50520, Note_on_c, 0, 86, 0
2, 50520, Note_on_c, 0, 85, 118
2, 50639, Note_on_c, 0, 85, 0
2, 50639, Note_on_c, 0, 86, 127
2, 50760, Note_on_c, 0, 86, 0
2, 50760, Note_on_c, 0, 68, 0
2, 50760, Note_on_c, 0, 74, 0
2, 50760, Note_on_c, 0, 76, 0
2, 50760, Note_on_c, 0, 86, 127
2, 50760, Note_on_c, 0, 68, 127
2, 50760, Note_on_c, 0, 72, 127
2, 50760, Note_on_c, 0, 80, 127
2, 50940, Note_on_c, 0, 86, 0
2, 50940, Note_on_c, 0, 87, 127
2, 51120, Note_on_c, 0, 87, 0
2, 51120, Note_on_c, 0, 92, 127
2, 51660, Note_on_c, 0, 92, 0
2, 51660, Note_on_c, 0, 91, 119
2, 51840, Note_on_c, 0, 91, 0
2, 51840, Note_on_c, 0, 88, 114
2, 52020, Note_on_c, 0, 88, 0
2, 52020, Note_on_c, 0, 87, 115
2, 52200, Note_on_c, 0, 87, 0
2, 52200, Note_on_c, 0, 85, 115
2, 52380, Note_on_c, 0, 85, 0
2, 52380, Note_on_c, 0, 68, 0
2, 52380, Note_on_c, 0, 72, 0
2, 52380, Note_on_c, 0, 80, 0
2, 52380, Note_on_c, 0, 84, 118
2, 52560, Note_on_c, 0, 84, 0
2, 52560, Note_on_c, 0, 82, 127
2, 52740, Note_on_c, 0, 82, 0
2, 52740, Note_on_c, 0, 83, 127
2, 52920, Note_on_c, 0, 83, 0
2, 52920, Note_on_c, 0, 88, 127
2, 52920, Note_on_c, 0, 80, 123
2, 52920, Note_on_c, 0, 71, 124
2, 52920, Note_on_c, 0, 76, 124
2, 53280, Note_on_c, 0, 76, 0
2, 53280, Note_on_c, 0, 71, 0
2, 53280, Note_on_c, 0, 72, 108
2, 53280, Note_on_c, 0, 75, 108
2, 53460, Note_on_c, 0, 88, 0
2, 53460, Note_on_c, 0, 87, 118
2, 53553, Note_on_c, 0, 80, 0
2, 53640, Note_on_c, 0, 75, 0
2, 53640, Note_on_c, 0, 72, 0
2, 53640, Note_on_c, 0, 87, 0
2, 53640, Note_on_c, 0, 85, 117
2, 53820, Note_on_c, 0, 85, 0
2, 53820, Note_on_c, 0, 84, 114
2, 54000, Note_on_c, 0, 84, 0
2, 54000, Note_on_c, 0, 82, 115
2, 54180, Note_on_c, 0, 82, 0
2, 54180, Note_on_c, 0, 80, 112
2, 54360, Note_on_c, 0, 80, 0
2, 54360, Note_on_c, 0, 78, 123
2, 54360, Note_on_c, 0, 71, 123
2, 54360, Note_on_c, 0, 74, 123
2, 54480, Note_on_c, 0, 78, 0
2, 54480, Note_on_c, 0, 76, 120
2, 54599, Note_on_c, 0, 76, 0
2, 54599, Note_on_c, 0, 78, 117
2, 54720, Note_on_c, 0, 78, 0
2, 54720, Note_on_c, 0, 80, 115
2, 54840, Note_on_c, 0, 80, 0
2, 54840, Note_on_c, 0, 78, 112
2, 54959, Note_on_c, 0, 78, 0
2, 54959, Note_on_c, 0, 76, 104
2, 55080, Note_on_c, 0, 76, 0
2, 55080, Note_on_c, 0, 74, 0
2, 55080, Note_on_c, 0, 71, 0
2, 55080, Note_on_c, 0, 72, 114
2, 55080, Note_on_c, 0, 75, 114
2, 55710, Note_on_c, 0, 75, 98
2, 55800, Note_on_c, 0, 75, 0
2, 55800, Note_on_c, 0, 75, 0
2, 55800, Note_on_c, 0, 72, 0
2, 55800, Note_on_c, 0, 72, 107
2, 55800, Note_on_c, 0, 72, 107
2, 55890, Note_on_c, 0, 72, 0
2, 55890, Note_on_c, 0, 75, 109
2, 55980, Note_on_c, 0, 75, 0
2, 55980, Note_on_c, 0, 72, 111
2, 56070, Note_on_c, 0, 72, 0
2, 56070, Note_on_c, 0, 75, 113
2, 56117, Note_on_c, 0, 72, 0
2, 56160, Note_on_c, 0, 75, 0
2, 56160, Note_on_c, 0, 73, 115
2, 56160, Note_on_c, 0, 73, 115
2, 56250, Note_on_c, 0, 73, 0
2, 56250, Note_on_c, 0, 76, 116
2, 56340, Note_on_c, 0, 76, 0
2, 56340, Note_on_c, 0, 73, 0
2, 56340, Note_on_c, 0, 73, 118
2, 56340, Note_on_c, 0, 69, 118
2, 56430, Note_on_c, 0, 73, 0
2, 56430, Note_on_c, 0, 78, 127
2, 56520, Note_on_c, 0, 78, 0
2, 56520, Note_on_c, 0, 69, 0
2, 56520, Note_on_c, 0, 73, 120
2, 56520, Note_on_c, 0, 73, 120
2, 56610, Note_on_c, 0, 73, 0
2, 56610, Note_on_c, 0, 76, 118
2, 56700, Note_on_c, 0, 76, 0
2, 56700, Note_on_c, 0, 73, 117
2, 56790, Note_on_c, 0, 73, 0
2, 56790, Note_on_c, 0, 75, 115
2, 56880, Note_on_c, 0, 75, 0
2, 56880, Note_on_c, 0, 73, 114
2, 56970, Note_on_c, 0, 73, 0
2, 56970, Note_on_c, 0, 76, 112
2, 57060, Note_on_c, 0, 76, 0
2, 57060, Note_on_c, 0, 73, 110
2, 57150, Note_on_c, 0, 73, 0
2, 57150, Note_on_c, 0, 76, 109
2, 57240, Note_on_c, 0, 76, 0
2, 57240, Note_on_c, 0, 73, 0
2, 57240, Note_on_c, 0, 75, 107
2, 57240, Note_on_c, 0, 72, 107
2, 57330, Note_on_c, 0, 75, 0
2, 57330, Note_on_c, 0, 72, 106
2, 57420, Note_on_c, 0, 72, 0
2, 57420, Note_on_c, 0, 75, 105
2, 57600, Note_on_c, 0, 72, 0
2, 57600, Note_on_c, 0, 68, 103
2, 57870, Note_on_c, 0, 75, 0
2, 57870, Note_on_c, 0, 75, 100
2, 57960, Note_on_c, 0, 75, 0
2, 57960, Note_on_c, 0, 68, 0
2, 57960, Note_on_c, 0, 72, 99
2, 57960, Note_on_c, 0, 68, 99
2, 58050, Note_on_c, 0, 72, 0
2, 58050, Note_on_c, 0, 75, 98
2, 58140, Note_on_c, 0, 75, 0
2, 58140, Note_on_c, 0, 72, 97
2, 58230, Note_on_c, 0, 72, 0
2, 58230, Note_on_c, 0, 75, 96
2, 58277, Note_on_c, 0, 68, 0
2, 58320, Note_on_c, 0, 75, 0
2, 58320, Note_on_c, 0, 73, 107
2, 58320, Note_on_c, 0, 69, 107
2, 58410, Note_on_c, 0, 73, 0
2, 58410, Note_on_c, 0, 76, 114
2, 58500, Note_on_c, 0, 76, 0
2, 58500, Note_on_c, 0, 69, 0
2, 58500, Note_on_c, 0, 73, 112
2, 58500, Note_on_c, 0, 66, 111
2, 58590, Note_on_c, 0, 73, 0
2, 58590, Note_on_c, 0, 78, 127
2, 58680, Note_on_c, 0, 78, 0
2, 58680, Note_on_c, 0, 66, 0
2, 58680, Note_on_c, 0, 73, 120
2, 58680, Note_on_c, 0, 69, 120
2, 58770, Note_on_c, 0, 73, 0
2, 58770, Note_on_c, 0, 76, 116
2, 58860, Note_on_c, 0, 76, 0
2, 58860, Note_on_c, 0, 73, 112
2, 58950, Note_on_c, 0, 73, 0
2, 58950, Note_on_c, 0, 75, 109
2, 59040, Note_on_c, 0, 75, 0
2, 59040, Note_on_c, 0, 73, 75
2, 59130, Note_on_c, 0, 73, 0
2, 59130, Note_on_c, 0, 76, 84
2, 59220, Note_on_c, 0, 76, 0
2, 59220, Note_on_c, 0, 73, 74
2, 59310, Note_on_c, 0, 73, 0
2, 59310, Note_on_c, 0, 76, 86
2, 59400, Note_on_c, 0, 76, 0
2, 59400, Note_on_c, 0, 69, 0
2, 59400, Note_on_c, 0, 75, 68
2, 59400, Note_on_c, 0, 68, 66
2, 59490, Note_on_c, 0, 75, 0
2, 59490, Note_on_c, 0, 72, 73
2, 59580, Note_on_c, 0, 72, 0
2, 59580, Note_on_c, 0, 75, 75
2, 60030, Note_on_c, 0, 75, 0
2, 60030, Note_on_c, 0, 72, 63
2, 60120, Note_on_c, 0, 72, 0
2, 60120, Note_on_c, 0, 75, 80
2, 60210, Note_on_c, 0, 75, 0
2, 60210, Note_on_c, 0, 72, 64
2, 60300, Note_on_c, 0, 72, 0
2, 60300, Note_on_c, 0, 75, 70
2, 60390, Note_on_c, 0, 75, 0
2, 60390, Note_on_c, 0, 72, 64
2, 60480, Note_on_c, 0, 72, 0
2, 60480, Note_on_c, 0, 75, 76
2, 60570, Note_on_c, 0, 75, 0
2, 60570, Note_on_c, 0, 72, 63
2, 60660, Note_on_c, 0, 72, 0
2, 60660, Note_on_c, 0, 75, 74
2, 61110, Note_on_c, 0, 75, 0
2, 61110, Note_on_c, 0, 72, 67
2, 61200, Note_on_c, 0, 72, 0
2, 61200, Note_on_c, 0, 75, 76
2, 61290, Note_on_c, 0, 75, 0
2, 61290, Note_on_c, 0, 72, 65
2, 61380, Note_on_c, 0, 72, 0
2, 61380, Note_on_c, 0, 75, 77
2, 61470, Note_on_c, 0, 75, 0
2, 61470, Note_on_c, 0, 72, 67
2, 61560, Note_on_c, 0, 72, 0
2, 61560, Note_on_c, 0, 75, 76
2, 61650, Note_on_c, 0, 75, 0
2, 61650, Note_on_c, 0, 72, 67
2, 61740, Note_on_c, 0, 72, 0
2, 61740, Note_on_c, 0, 75, 77
2, 62550, Note_on_c, 0, 75, 0
2, 62550, Note_on_c, 0, 72, 67
2, 62640, Note_on_c, 0, 72, 0
2, 62640, Note_on_c, 0, 75, 74
2, 62730, Note_on_c, 0, 75, 0
2, 62730, Note_on_c, 0, 72, 66
2, 62820, Note_on_c, 0, 72, 0
2, 62820, Note_on_c, 0, 75, 75
2, 63540, Note_on_c, 0, 75, 0
2, 63540, Note_on_c, 0, 68, 0
2, 63720, Note_on_c, 0, 56, 93
2, 63720, Note_on_c, 0, 52, 57
2, 63720, Note_on_c, 0, 54, 57
2, 63720, Note_on_c, 0, 60, 57
2, 63720, Note_on_c, 0, 64, 57
2, 63809, Note_on_c, 0, 64, 0
2, 63809, Note_on_c, 0, 54, 0
2, 63809, Note_on_c, 0, 60, 0
2, 63809, Note_on_c, 0, 52, 0
2, 63900, Note_on_c, 0, 52, 68
2, 63900, Note_on_c, 0, 54, 68
2, 63900, Note_on_c, 0, 60, 68
2, 63900, Note_on_c, 0, 64, 68
2, 64217, Note_on_c, 0, 64, 0
2, 64217, Note_on_c, 0, 54, 0
2, 64217, Note_on_c, 0, 60, 0
2, 64217, Note_on_c, 0, 52, 0
2, 64260, Note_on_c, 0, 52, 65
2, 64260, Note_on_c, 0, 54, 65
2, 64260, Note_on_c, 0, 60, 65
2, 64260, Note_on_c, 0, 64, 65
2, 64349, Note_on_c, 0, 64, 0
2, 64349, Note_on_c, 0, 54, 0
2, 64349, Note_on_c, 0, 60, 0
2, 64349, Note_on_c, 0, 52, 0
2, 64353, Note_on_c, 0, 56, 0
2, 64440, Note_on_c, 0, 55, 98
2, 64440, Note_on_c, 0, 52, 60
2, 64440, Note_on_c, 0, 60, 60
2, 64440, Note_on_c, 0, 64, 60
2, 64529, Note_on_c, 0, 64, 0
2, 64529, Note_on_c, 0, 60, 0
2, 64529, Note_on_c, 0, 52, 0
2, 64620, Note_on_c, 0, 52, 78
2, 64620, Note_on_c, 0, 60, 78
2, 64620, Note_on_c, 0, 64, 78
2, 64980, Note_on_c, 0, 64, 0
2, 64980, Note_on_c, 0, 60, 0
2, 64980, Note_on_c, 0, 52, 0
2, 64980, Note_on_c, 0, 52, 59
2, 64980, Note_on_c, 0, 60, 59
2, 64980, Note_on_c, 0, 64, 59
2, 65024, Note_on_c, 0, 64, 0
2, 65024, Note_on_c, 0, 60, 0
2, 65024, Note_on_c, 0, 52, 0
2, 65070, Note_on_c, 0, 52, 59
2, 65070, Note_on_c, 0, 60, 59
2, 65070, Note_on_c, 0, 64, 59
2, 65114, Note_on_c, 0, 64, 0
2, 65114, Note_on_c, 0, 60, 0
2, 65114, Note_on_c, 0, 52, 0
2, 65160, Note_on_c, 0, 55, 0
2, 65160, Note_on_c, 0, 56, 93
2, 65160, Note_on_c, 0, 52, 60
2, 65160, Note_on_c, 0, 54, 60
2, 65160, Note_on_c, 0, 60, 60
2, 65160, Note_on_c, 0, 64, 60
2, 65226, Note_on_c, 0, 64, 0
2, 65226, Note_on_c, 0, 54, 0
2, 65226, Note_on_c, 0, 60, 0
2, 65226, Note_on_c, 0, 52, 0
2, 65295, Note_on_c, 0, 52, 63
2, 65295, Note_on_c, 0, 54, 63
2, 65295, Note_on_c, 0, 60, 63
2, 65295, Note_on_c, 0, 64, 63
2, 65316, Note_on_c, 0, 64, 0
2, 65316, Note_on_c, 0, 54, 0
2, 65316, Note_on_c, 0, 60, 0
2, 65316, Note_on_c, 0, 52, 0
2, 65340, Note_on_c, 0, 52, 64
2, 65340, Note_on_c, 0, 54, 64
2, 65340, Note_on_c, 0, 60, 64
2, 65340, Note_on_c, 0, 64, 64
2, 65700, Note_on_c, 0, 64, 0
2, 65700, Note_on_c, 0, 54, 0
2, 65700, Note_on_c, 0, 60, 0
2, 65700, Note_on_c, 0, 52, 0
2, 65700, Note_on_c, 0, 52, 71
2, 65700, Note_on_c, 0, 54, 71
2, 65700, Note_on_c, 0, 64, 71
2, 65790, Note_on_c, 0, 56, 0
2, 65790, Note_on_c, 0, 59, 105
2, 65820, Note_on_c, 0, 59, 0
2, 65820, Note_on_c, 0, 60, 106
2, 65849, Note_on_c, 0, 60, 0
2, 65849, Note_on_c, 0, 61, 108
2, 65858, Note_on_c, 0, 52, 0
2, 65858, Note_on_c, 0, 64, 0
2, 65858, Note_on_c, 0, 54, 0
2, 65880, Note_on_c, 0, 61, 0
2, 65880, Note_on_c, 0, 60, 127
2, 65880, Note_on_c, 0, 51, 127
2, 65880, Note_on_c, 0, 54, 127
2, 65880, Note_on_c, 0, 57, 127
2, 65880, Note_on_c, 0, 63, 127
2, 65939, Note_on_c, 0, 63, 0
2, 65939, Note_on_c, 0, 54, 0
2, 65939, Note_on_c, 0, 57, 0
2, 65939, Note_on_c, 0, 51, 0
2, 65939, Note_on_c, 0, 51, 127
2, 65939, Note_on_c, 0, 54, 127
2, 65939, Note_on_c, 0, 57, 127
2, 65939, Note_on_c, 0, 63, 127
2, 66000, Note_on_c, 0, 63, 0
2, 66000, Note_on_c, 0, 54, 0
2, 66000, Note_on_c, 0, 57, 0
2, 66000, Note_on_c, 0, 51, 0
2, 66000, Note_on_c, 0, 51, 127
2, 66000, Note_on_c, 0, 54, 127
2, 66000, Note_on_c, 0, 57, 127
2, 66000, Note_on_c, 0, 63, 127
2, 66060, Note_on_c, 0, 63, 0
2, 66060, Note_on_c, 0, 54, 0
2, 66060, Note_on_c, 0, 57, 0
2, 66060, Note_on_c, 0, 51, 0
2, 66060, Note_on_c, 0, 51, 127
2, 66060, Note_on_c, 0, 54, 127
2, 66060, Note_on_c, 0, 57, 127
2, 66060, Note_on_c, 0, 63, 127
2, 66420, Note_on_c, 0, 63, 0
2, 66420, Note_on_c, 0, 54, 0
2, 66420, Note_on_c, 0, 57, 0
2, 66420, Note_on_c, 0, 51, 0
2, 66420, Note_on_c, 0, 51, 117
2, 66420, Note_on_c, 0, 54, 117
2, 66420, Note_on_c, 0, 57, 117
2, 66420, Note_on_c, 0, 63, 117
2, 66600, Note_on_c, 0, 60, 0
2, 66600, Note_on_c, 0, 59, 107
2, 66780, Note_on_c, 0, 57, 0
2, 66780, Note_on_c, 0, 63, 0
2, 66780, Note_on_c, 0, 51, 0
2, 66780, Note_on_c, 0, 54, 0
2, 66780, Note_on_c, 0, 51, 104
2, 66780, Note_on_c, 0, 54, 104
2, 66780, Note_on_c, 0, 57, 104
2, 66780, Note_on_c, 0, 63, 104
2, 67140, Note_on_c, 0, 63, 0
2, 67140, Note_on_c, 0, 54, 0
2, 67140, Note_on_c, 0, 57, 0
2, 67140, Note_on_c, 0, 51, 0
2, 67140, Note_on_c, 0, 51, 98
2, 67140, Note_on_c, 0, 54, 98
2, 67140, Note_on_c, 0, 57, 98
2, 67140, Note_on_c, 0, 63, 98
2, 67298, Note_on_c, 0, 63, 0
2, 67298, Note_on_c, 0, 54, 0
2, 67298, Note_on_c, 0, 57, 0
2, 67298, Note_on_c, 0, 51, 0
2, 67320, Note_on_c, 0, 59, 0
2, 67320, Note_on_c, 0, 60, 110
2, 67320, Note_on_c, 0, 51, 98
2, 67320, Note_on_c, 0, 54, 98
2, 67320, Note_on_c, 0, 57, 98
2, 67320, Note_on_c, 0, 63, 98
2, 67386, Note_on_c, 0, 63, 0
2, 67386, Note_on_c, 0, 54, 0
2, 67386, Note_on_c, 0, 57, 0
2, 67386, Note_on_c, 0, 51, 0
2, 67455, Note_on_c, 0, 51, 98
2, 67455, Note_on_c, 0, 54, 98
2, 67455, Note_on_c, 0, 57, 98
2, 67455, Note_on_c, 0, 63, 98
2, 67476, Note_on_c, 0, 63, 0
2, 67476, Note_on_c, 0, 54, 0
2, 67476, Note_on_c, 0, 57, 0
2, 67476, Note_on_c, 0, 51, 0
2, 67500, Note_on_c, 0, 51, 108
2, 67500, Note_on_c, 0, 54, 108
2, 67500, Note_on_c, 0, 57, 108
2, 67500, Note_on_c, 0, 63, 108
2, 67860, Note_on_c, 0, 63, 0
2, 67860, Note_on_c, 0, 54, 0
2, 67860, Note_on_c, 0, 57, 0
2, 67860, Note_on_c, 0, 51, 0
2, 67860, Note_on_c, 0, 51, 107
2, 67860, Note_on_c, 0, 54, 107
2, 67860, Note_on_c, 0, 57, 107
2, 67860, Note_on_c, 0, 63, 107
2, 67953, Note_on_c, 0, 60, 0
2, 68018, Note_on_c, 0, 57, 0
2, 68018, Note_on_c, 0, 51, 0
2, 68018, Note_on_c, 0, 54, 0
2, 68018, Note_on_c, 0, 63, 0
2, 68040, Note_on_c, 0, 56, 102
2, 68040, Note_on_c, 0, 52, 102
2, 68040, Note_on_c, 0, 54, 102
2, 68040, Note_on_c, 0, 60, 102
2, 68040, Note_on_c, 0, 64, 102
2, 68129, Note_on_c, 0, 64, 0
2, 68129, Note_on_c, 0, 54, 0
2, 68129, Note_on_c, 0, 60, 0
2, 68129, Note_on_c, 0, 52, 0
2, 68220, Note_on_c, 0, 52, 106
2, 68220, Note_on_c, 0, 54, 106
2, 68220, Note_on_c, 0, 60, 106
2, 68220, Note_on_c, 0, 64, 106
2, 68537, Note_on_c, 0, 64, 0
2, 68537, Note_on_c, 0, 54, 0
2, 68537, Note_on_c, 0, 60, 0
2, 68537, Note_on_c, 0, 52, 0
2, 68580, Note_on_c, 0, 52, 87
2, 68580, Note_on_c, 0, 54, 87
2, 68580, Note_on_c, 0, 60, 87
2, 68580, Note_on_c, 0, 64, 87
2, 68669, Note_on_c, 0, 64, 0
2, 68669, Note_on_c, 0, 54, 0
2, 68669, Note_on_c, 0, 60, 0
2, 68669, Note_on_c, 0, 52, 0
2, 68673, Note_on_c, 0, 56, 0
2, 68760, Note_on_c, 0, 55, 101
2, 68760, Note_on_c, 0, 52, 96
2, 68760, Note_on_c, 0, 60, 96
2, 68760, Note_on_c, 0, 64, 96
2, 68849, Note_on_c, 0, 64, 0
2, 68849, Note_on_c, 0, 60, 0
2, 68849, Note_on_c, 0, 52, 0
2, 68940, Note_on_c, 0, 52, 107
2, 68940, Note_on_c, 0, 60, 107
2, 68940, Note_on_c, 0, 64, 107
2, 69300, Note_on_c, 0, 64, 0
2, 69300, Note_on_c, 0, 60, 0
2, 69300, Note_on_c, 0, 52, 0
2, 69300, Note_on_c, 0, 52, 98
2, 69300, Note_on_c, 0, 60, 98
2, 69300, Note_on_c, 0, 64, 98
2, 69344, Note_on_c, 0, 64, 0
2, 69344, Note_on_c, 0, 60, 0
2, 69344, Note_on_c, 0, 52, 0
2, 69390, Note_on_c, 0, 52, 93
2, 69390, Note_on_c, 0, 60, 93
2, 69390, Note_on_c, 0, 64, 93
2, 69434, Note_on_c, 0, 64, 0
2, 69434, Note_on_c, 0, 60, 0
2, 69434, Note_on_c, 0, 52, 0
2, 69480, Note_on_c, 0, 55, 0
2, 69480, Note_on_c, 0, 56, 93
2, 69480, Note_on_c, 0, 52, 93
2, 69480, Note_on_c, 0, 54, 93
2, 69480, Note_on_c, 0, 60, 93
2, 69480, Note_on_c, 0, 64, 93
2, 69546, Note_on_c, 0, 64, 0
2, 69546, Note_on_c, 0, 54, 0
2, 69546, Note_on_c, 0, 60, 0
2, 69546, Note_on_c, 0, 52, 0
2, 69615, Note_on_c, 0, 52, 96
2, 69615, Note_on_c, 0, 54, 96
2, 69615, Note_on_c, 0, 60, 96
2, 69615, Note_on_c, 0, 64, 96
2, 69636, Note_on_c, 0, 64, 0
2, 69636, Note_on_c, 0, 54, 0
2, 69636, Note_on_c, 0, 60, 0
2, 69636, Note_on_c, 0, 52, 0
2, 69660, Note_on_c, 0, 52, 97
2, 69660, Note_on_c, 0, 54, 97
2, 69660, Note_on_c, 0, 60, 97
2, 69660, Note_on_c, 0, 64, 97
2, 70020, Note_on_c, 0, 64, 0
2, 70020, Note_on_c, 0, 54, 0
2, 70020, Note_on_c, 0, 60, 0
2, 70020, Note_on_c, 0, 52, 0
2, 70020, Note_on_c, 0, 52, 104
2, 70020, Note_on_c, 0, 54, 104
2, 70020, Note_on_c, 0, 64, 104
2, 70110, Note_on_c, 0, 56, 0
2, 70110, Note_on_c, 0, 59, 105
2, 70140, Note_on_c, 0, 59, 0
2, 70140, Note_on_c, 0, 60, 106
2, 70169, Note_on_c, 0, 60, 0
2, 70169, Note_on_c, 0, 61, 105
2, 70178, Note_on_c, 0, 52, 0
2, 70178, Note_on_c, 0, 64, 0
2, 70178, Note_on_c, 0, 54, 0
2, 70200, Note_on_c, 0, 61, 0
2, 70200, Note_on_c, 0, 60, 127
2, 70200, Note_on_c, 0, 51, 127
2, 70200, Note_on_c, 0, 54, 127
2, 70200, Note_on_c, 0, 57, 127
2, 70200, Note_on_c, 0, 63, 127
2, 70259, Note_on_c, 0, 63, 0
2, 70259, Note_on_c, 0, 54, 0
2, 70259, Note_on_c, 0, 57, 0
2, 70259, Note_on_c, 0, 51, 0
2, 70259, Note_on_c, 0, 51, 127
2, 70259, Note_on_c, 0, 54, 127
2, 70259, Note_on_c, 0, 57, 127
2, 70259, Note_on_c, 0, 63, 127
2, 70320, Note_on_c, 0, 63, 0
2, 70320, Note_on_c, 0, 54, 0
2, 70320, Note_on_c, 0, 57, 0
2, 70320, Note_on_c, 0, 51, 0
2, 70320, Note_on_c, 0, 51, 127
2, 70320, Note_on_c, 0, 54, 127
2, 70320, Note_on_c, 0, 57, 127
2, 70320, Note_on_c, 0, 63, 127
2, 70380, Note_on_c, 0, 63, 0
2, 70380, Note_on_c, 0, 54, 0
2, 70380, Note_on_c, 0, 57, 0
2, 70380, Note_on_c, 0, 51, 0
2, 70380, Note_on_c, 0, 51, 127
2, 70380, Note_on_c, 0, 54, 127
2, 70380, Note_on_c, 0, 57, 127
2, 70380, Note_on_c, 0, 63, 127
2, 70740, Note_on_c, 0, 63, 0
2, 70740, Note_on_c, 0, 54, 0
2, 70740, Note_on_c, 0, 57, 0
2, 70740, Note_on_c, 0, 51, 0
2, 70740, Note_on_c, 0, 51, 115
2, 70740, Note_on_c, 0, 54, 115
2, 70740, Note_on_c, 0, 57, 115
2, 70740, Note_on_c, 0, 63, 115
2, 70920, Note_on_c, 0, 60, 0
2, 70920, Note_on_c, 0, 59, 107
2, 71100, Note_on_c, 0, 57, 0
2, 71100, Note_on_c, 0, 63, 0
2, 71100, Note_on_c, 0, 51, 0
2, 71100, Note_on_c, 0, 54, 0
2, 71100, Note_on_c, 0, 51, 104
2, 71100, Note_on_c, 0, 54, 104
2, 71100, Note_on_c, 0, 57, 104
2, 71100, Note_on_c, 0, 63, 104
2, 71460, Note_on_c, 0, 63, 0
2, 71460, Note_on_c, 0, 54, 0
2, 71460, Note_on_c, 0, 57, 0
2, 71460, Note_on_c, 0, 51, 0
2, 71460, Note_on_c, 0, 51, 98
2, 71460, Note_on_c, 0, 54, 98
2, 71460, Note_on_c, 0, 57, 98
2, 71460, Note_on_c, 0, 63, 98
2, 71618, Note_on_c, 0, 63, 0
2, 71618, Note_on_c, 0, 54, 0
2, 71618, Note_on_c, 0, 57, 0
2, 71618, Note_on_c, 0, 51, 0
2, 71640, Note_on_c, 0, 59, 0
2, 71640, Note_on_c, 0, 60, 112
2, 71640, Note_on_c, 0, 51, 95
2, 71640, Note_on_c, 0, 54, 95
2, 71640, Note_on_c, 0, 57, 95
2, 71640, Note_on_c, 0, 63, 95
2, 71706, Note_on_c, 0, 63, 0
2, 71706, Note_on_c, 0, 54, 0
2, 71706, Note_on_c, 0, 57, 0
2, 71706, Note_on_c, 0, 51, 0
2, 71775, Note_on_c, 0, 51, 98
2, 71775, Note_on_c, 0, 54, 98
2, 71775, Note_on_c, 0, 57, 98
2, 71775, Note_on_c, 0, 63, 98
2, 71796, Note_on_c, 0, 63, 0
2, 71796, Note_on_c, 0, 54, 0
2, 71796, Note_on_c, 0, 57, 0
2, 71796, Note_on_c, 0, 51, 0
2, 71820, Note_on_c, 0, 51, 106
2, 71820, Note_on_c, 0, 54, 106
2, 71820, Note_on_c, 0, 57, 106
2, 71820, Note_on_c, 0, 63, 106
2, 72180, Note_on_c, 0, 63, 0
2, 72180, Note_on_c, 0, 54, 0
2, 72180, Note_on_c, 0, 57, 0
2, 72180, Note_on_c, 0, 51, 0
2, 72180, Note_on_c, 0, 51, 107
2, 72180, Note_on_c, 0, 54, 107
2, 72180, Note_on_c, 0, 57, 107
2, 72180, Note_on_c, 0, 63, 107
2, 72273, Note_on_c, 0, 60, 0
2, 72338, Note_on_c, 0, 57, 0
2, 72338, Note_on_c, 0, 51, 0
2, 72338, Note_on_c, 0, 54, 0
2, 72338, Note_on_c, 0, 63, 0
2, 72360, Note_on_c, 0, 57, 101
2, 72360, Note_on_c, 0, 53, 100
2, 72360, Note_on_c, 0, 55, 100
2, 72360, Note_on_c, 0, 61, 100
2, 72360, Note_on_c, 0, 65, 100
2, 72449, Note_on_c, 0, 65, 0
2, 72449, Note_on_c, 0, 55, 0
2, 72449, Note_on_c, 0, 61, 0
2, 72449, Note_on_c, 0, 53, 0
2, 72540, Note_on_c, 0, 53, 104
2, 72540, Note_on_c, 0, 55, 104
2, 72540, Note_on_c, 0, 61, 104
2, 72540, Note_on_c, 0, 65, 104
2, 72857, Note_on_c, 0, 65, 0
2, 72857, Note_on_c, 0, 55, 0
2, 72857, Note_on_c, 0, 61, 0
2, 72857, Note_on_c, 0, 53, 0
2, 72900, Note_on_c, 0, 53, 95
2, 72900, Note_on_c, 0, 55, 95
2, 72900, Note_on_c, 0, 61, 95
2, 72900, Note_on_c, 0, 65, 95
2, 72989, Note_on_c, 0, 65, 0
2, 72989, Note_on_c, 0, 55, 0
2, 72989, Note_on_c, 0, 61, 0
2, 72989, Note_on_c, 0, 53, 0
2, 72993, Note_on_c, 0, 57, 0
2, 73080, Note_on_c, 0, 56, 108
2, 73080, Note_on_c, 0, 53, 95
2, 73080, Note_on_c, 0, 61, 95
2, 73080, Note_on_c, 0, 65, 95
2, 73169, Note_on_c, 0, 65, 0
2, 73169, Note_on_c, 0, 61, 0
2, 73169, Note_on_c, 0, 53, 0
2, 73260, Note_on_c, 0, 53, 107
2, 73260, Note_on_c, 0, 61, 107
2, 73260, Note_on_c, 0, 65, 107
2, 73620, Note_on_c, 0, 65, 0
2, 73620, Note_on_c, 0, 61, 0
2, 73620, Note_on_c, 0, 53, 0
2, 73620, Note_on_c, 0, 53, 89
2, 73620, Note_on_c, 0, 61, 89
2, 73620, Note_on_c, 0, 65, 89
2, 73664, Note_on_c, 0, 65, 0
2, 73664, Note_on_c, 0, 61, 0
2, 73664, Note_on_c, 0, 53, 0
2, 73710, Note_on_c, 0, 53, 89
2, 73710, Note_on_c, 0, 61, 89
2, 73710, Note_on_c, 0, 65, 89
2, 73754, Note_on_c, 0, 65, 0
2, 73754, Note_on_c, 0, 61, 0
2, 73754, Note_on_c, 0, 53, 0
2, 73800, Note_on_c, 0, 56, 0
2, 73800, Note_on_c, 0, 57, 93
2, 73800, Note_on_c, 0, 53, 93
2, 73800, Note_on_c, 0, 55, 93
2, 73800, Note_on_c, 0, 61, 93
2, 73800, Note_on_c, 0, 65, 93
2, 73866, Note_on_c, 0, 65, 0
2, 73866, Note_on_c, 0, 55, 0
2, 73866, Note_on_c, 0, 61, 0
2, 73866, Note_on_c, 0, 53, 0
2, 73935, Note_on_c, 0, 53, 96
2, 73935, Note_on_c, 0, 55, 96
2, 73935, Note_on_c, 0, 61, 96
2, 73935, Note_on_c, 0, 65, 96
2, 73956, Note_on_c, 0, 65, 0
2, 73956, Note_on_c, 0, 55, 0
2, 73956, Note_on_c, 0, 61, 0
2, 73956, Note_on_c, 0, 53, 0
2, 73980, Note_on_c, 0, 53, 97
2, 73980, Note_on_c, 0, 55, 97
2, 73980, Note_on_c, 0, 61, 97
2, 73980, Note_on_c, 0, 65, 97
2, 74340, Note_on_c, 0, 65, 0
2, 74340, Note_on_c, 0, 55, 0
2, 74340, Note_on_c, 0, 61, 0
2, 74340, Note_on_c, 0, 53, 0
2, 74340, Note_on_c, 0, 53, 104
2, 74340, Note_on_c, 0, 55, 104
2, 74340, Note_on_c, 0, 65, 104
2, 74430, Note_on_c, 0, 57, 0
2, 74430, Note_on_c, 0, 60, 105
2, 74460, Note_on_c, 0, 60, 0
2, 74460, Note_on_c, 0, 61, 105
2, 74489, Note_on_c, 0, 61, 0
2, 74489, Note_on_c, 0, 62, 111
2, 74498, Note_on_c, 0, 53, 0
2, 74498, Note_on_c, 0, 65, 0
2, 74498, Note_on_c, 0, 55, 0
2, 74520, Note_on_c, 0, 62, 0
2, 74520, Note_on_c, 0, 61, 127
2, 74520, Note_on_c, 0, 52, 127
2, 74520, Note_on_c, 0, 55, 127
2, 74520, Note_on_c, 0, 58, 127
2, 74520, Note_on_c, 0, 64, 127
2, 74579, Note_on_c, 0, 64, 0
2, 74579, Note_on_c, 0, 55, 0
2, 74579, Note_on_c, 0, 58, 0
2, 74579, Note_on_c, 0, 52, 0
2, 74579, Note_on_c, 0, 52, 127
2, 74579, Note_on_c, 0, 55, 127
2, 74579, Note_on_c, 0, 58, 127
2, 74579, Note_on_c, 0, 64, 127
2, 74640, Note_on_c, 0, 64, 0
2, 74640, Note_on_c, 0, 55, 0
2, 74640, Note_on_c, 0, 58, 0
2, 74640, Note_on_c, 0, 52, 0
2, 74640, Note_on_c, 0, 52, 127
2, 74640, Note_on_c, 0, 55, 127
2, 74640, Note_on_c, 0, 58, 127
2, 74640, Note_on_c, 0, 64, 127
2, 74700, Note_on_c, 0, 64, 0
2, 74700, Note_on_c, 0, 55, 0
2, 74700, Note_on_c, 0, 58, 0
2, 74700, Note_on_c, 0, 52, 0
2, 74700, Note_on_c, 0, 52, 127
2, 74700, Note_on_c, 0, 55, 127
2, 74700, Note_on_c, 0, 58, 127
2, 74700, Note_on_c, 0, 64, 127
2, 75060, Note_on_c, 0, 64, 0
2, 75060, Note_on_c, 0, 55, 0
2, 75060, Note_on_c, 0, 58, 0
2, 75060, Note_on_c, 0, 52, 0
2, 75060, Note_on_c, 0, 52, 115
2, 75060, Note_on_c, 0, 55, 115
2, 75060, Note_on_c, 0, 58, 115
2, 75060, Note_on_c, 0, 64, 115
2, 75240, Note_on_c, 0, 61, 0
2, 75240, Note_on_c, 0, 60, 107
2, 75420, Note_on_c, 0, 58, 0
2, 75420, Note_on_c, 0, 64, 0
2, 75420, Note_on_c, 0, 52, 0
2, 75420, Note_on_c, 0, 55, 0
2, 75420, Note_on_c, 0, 52, 104
2, 75420, Note_on_c, 0, 55, 104
2, 75420, Note_on_c, 0, 58, 104
2, 75420, Note_on_c, 0, 64, 104
2, 75780, Note_on_c, 0, 64, 0
2, 75780, Note_on_c, 0, 55, 0
2, 75780, Note_on_c, 0, 58, 0
2, 75780, Note_on_c, 0, 52, 0
2, 75780, Note_on_c, 0, 52, 98
2, 75780, Note_on_c, 0, 55, 98
2, 75780, Note_on_c, 0, 58, 98
2, 75780, Note_on_c, 0, 64, 98
2, 75960, Note_on_c, 0, 64, 0
2, 75960, Note_on_c, 0, 55, 0
2, 75960, Note_on_c, 0, 60, 0
2, 75960, Note_on_c, 0, 52, 0
2, 75960, Note_on_c, 0, 58, 0
2, 75960, Note_on_c, 0, 61, 111
2, 75960, Note_on_c, 0, 52, 98
2, 75960, Note_on_c, 0, 55, 98
2, 75960, Note_on_c, 0, 58, 98
2, 75960, Note_on_c, 0, 64, 98
2, 76026, Note_on_c, 0, 64, 0
2, 76026, Note_on_c, 0, 55, 0
2, 76026, Note_on_c, 0, 58, 0
2, 76026, Note_on_c, 0, 52, 0
2, 76095, Note_on_c, 0, 52, 96
2, 76095, Note_on_c, 0, 55, 96
2, 76095, Note_on_c, 0, 58, 96
2, 76095, Note_on_c, 0, 64, 96
2, 76116, Note_on_c, 0, 64, 0
2, 76116, Note_on_c, 0, 55, 0
2, 76116, Note_on_c, 0, 58, 0
2, 76116, Note_on_c, 0, 52, 0
2, 76140, Note_on_c, 0, 52, 106
2, 76140, Note_on_c, 0, 55, 106
2, 76140, Note_on_c, 0, 58, 106
2, 76140, Note_on_c, 0, 64, 106
2, 76500, Note_on_c, 0, 64, 0
2, 76500, Note_on_c, 0, 55, 0
2, 76500, Note_on_c, 0, 58, 0
2, 76500, Note_on_c, 0, 52, 0
2, 76500, Note_on_c, 0, 52, 105
2, 76500, Note_on_c, 0, 55, 105
2, 76500, Note_on_c, 0, 58, 105
2, 76500, Note_on_c, 0, 64, 105
2, 76593, Note_on_c, 0, 61, 0
2, 76658, Note_on_c, 0, 58, 0
2, 76658, Note_on_c, 0, 52, 0
2, 76658, Note_on_c, 0, 55, 0
2, 76658, Note_on_c, 0, 64, 0
2, 76680, Note_on_c, 0, 57, 99
2, 76680, Note_on_c, 0, 53, 95
2, 76680, Note_on_c, 0, 55, 95
2, 76680, Note_on_c, 0, 61, 95
2, 76680, Note_on_c, 0, 65, 95
2, 76769, Note_on_c, 0, 65, 0
2, 76769, Note_on_c, 0, 55, 0
2, 76769, Note_on_c, 0, 61, 0
2, 76769, Note_on_c, 0, 53, 0
2, 76860, Note_on_c, 0, 53, 105
2, 76860, Note_on_c, 0, 55, 105
2, 76860, Note_on_c, 0, 61, 105
2, 76860, Note_on_c, 0, 65, 105
2, 77177, Note_on_c, 0, 65, 0
2, 77177, Note_on_c, 0, 55, 0
2, 77177, Note_on_c, 0, 61, 0
2, 77177, Note_on_c, 0, 53, 0
2, 77220, Note_on_c, 0, 53, 95
2, 77220, Note_on_c, 0, 55, 95
2, 77220, Note_on_c, 0, 61, 95
2, 77220, Note_on_c, 0, 65, 95
2, 77309, Note_on_c, 0, 65, 0
2, 77309, Note_on_c, 0, 55, 0
2, 77309, Note_on_c, 0, 61, 0
2, 77309, Note_on_c, 0, 53, 0
2, 77313, Note_on_c, 0, 57, 0
2, 77400, Note_on_c, 0, 56, 103
2, 77400, Note_on_c, 0, 53, 98
2, 77400, Note_on_c, 0, 61, 98
2, 77400, Note_on_c, 0, 65, 98
2, 77489, Note_on_c, 0, 65, 0
2, 77489, Note_on_c, 0, 61, 0
2, 77489, Note_on_c, 0, 53, 0
2, 77580, Note_on_c, 0, 53, 102
2, 77580, Note_on_c, 0, 61, 102
2, 77580, Note_on_c, 0, 65, 102
2, 77940, Note_on_c, 0, 65, 0
2, 77940, Note_on_c, 0, 61, 0
2, 77940, Note_on_c, 0, 53, 0
2, 77940, Note_on_c, 0, 53, 94
2, 77940, Note_on_c, 0, 61, 94
2, 77940, Note_on_c, 0, 65, 94
2, 77984, Note_on_c, 0, 65, 0
2, 77984, Note_on_c, 0, 61, 0
2, 77984, Note_on_c, 0, 53, 0
2, 78030, Note_on_c, 0, 53, 94
2, 78030, Note_on_c, 0, 61, 94
2, 78030, Note_on_c, 0, 65, 94
2, 78074, Note_on_c, 0, 65, 0
2, 78074, Note_on_c, 0, 61, 0
2, 78074, Note_on_c, 0, 53, 0
2, 78120, Note_on_c, 0, 56, 0
2, 78120, Note_on_c, 0, 57, 106
2, 78120, Note_on_c, 0, 53, 97
2, 78120, Note_on_c, 0, 55, 97
2, 78120, Note_on_c, 0, 61, 97
2, 78120, Note_on_c, 0, 65, 97
2, 78186, Note_on_c, 0, 65, 0
2, 78186, Note_on_c, 0, 55, 0
2, 78186, Note_on_c, 0, 61, 0
2, 78186, Note_on_c, 0, 53, 0
2, 78255, Note_on_c, 0, 53, 93
2, 78255, Note_on_c, 0, 55, 93
2, 78255, Note_on_c, 0, 61, 93
2, 78255, Note_on_c, 0, 65, 93
2, 78276, Note_on_c, 0, 65, 0
2, 78276, Note_on_c, 0, 55, 0
2, 78276, Note_on_c, 0, 61, 0
2, 78276, Note_on_c, 0, 53, 0
2, 78300, Note_on_c, 0, 53, 105
2, 78300, Note_on_c, 0, 55, 105
2, 78300, Note_on_c, 0, 61, 105
2, 78300, Note_on_c, 0, 65, 105
2, 78660, Note_on_c, 0, 65, 0
2, 78660, Note_on_c, 0, 55, 0
2, 78660, Note_on_c, 0, 61, 0
2, 78660, Note_on_c, 0, 53, 0
2, 78660, Note_on_c, 0, 53, 106
2, 78660, Note_on_c, 0, 55, 106
2, 78660, Note_on_c, 0, 61, 106
2, 78660, Note_on_c, 0, 65, 106
2, 78750, Note_on_c, 0, 57, 0
2, 78750, Note_on_c, 0, 57, 96
2, 78780, Note_on_c, 0, 57, 0
2, 78780, Note_on_c, 0, 58, 95
2, 78809, Note_on_c, 0, 58, 0
2, 78809, Note_on_c, 0, 59, 97
2, 78818, Note_on_c, 0, 61, 0
2, 78818, Note_on_c, 0, 65, 0
2, 78818, Note_on_c, 0, 53, 0
2, 78818, Note_on_c, 0, 55, 0
2, 78840, Note_on_c, 0, 59, 0
2, 78840, Note_on_c, 0, 58, 93
2, 78840, Note_on_c, 0, 53, 93
2, 78840, Note_on_c, 0, 61, 93
2, 78840, Note_on_c, 0, 65, 93
2, 78868, Note_on_c, 0, 65, 0
2, 78868, Note_on_c, 0, 61, 0
2, 78868, Note_on_c, 0, 53, 0
2, 78899, Note_on_c, 0, 53, 93
2, 78899, Note_on_c, 0, 61, 93
2, 78899, Note_on_c, 0, 65, 93
2, 78929, Note_on_c, 0, 65, 0
2, 78929, Note_on_c, 0, 61, 0
2, 78929, Note_on_c, 0, 53, 0
2, 78960, Note_on_c, 0, 53, 94
2, 78960, Note_on_c, 0, 61, 94
2, 78960, Note_on_c, 0, 65, 94
2, 78989, Note_on_c, 0, 65, 0
2, 78989, Note_on_c, 0, 61, 0
2, 78989, Note_on_c, 0, 53, 0
2, 79020, Note_on_c, 0, 53, 94
2, 79020, Note_on_c, 0, 61, 94
2, 79020, Note_on_c, 0, 65, 94
2, 79380, Note_on_c, 0, 65, 0
2, 79380, Note_on_c, 0, 61, 0
2, 79380, Note_on_c, 0, 53, 0
2, 79380, Note_on_c, 0, 53, 94
2, 79380, Note_on_c, 0, 61, 94
2, 79380, Note_on_c, 0, 65, 94
2, 79469, Note_on_c, 0, 65, 0
2, 79469, Note_on_c, 0, 61, 0
2, 79469, Note_on_c, 0, 53, 0
2, 79473, Note_on_c, 0, 58, 0
2, 79560, Note_on_c, 0, 57, 95
2, 79560, Note_on_c, 0, 53, 95
2, 79560, Note_on_c, 0, 55, 95
2, 79560, Note_on_c, 0, 61, 95
2, 79560, Note_on_c, 0, 65, 95
2, 79649, Note_on_c, 0, 65, 0
2, 79649, Note_on_c, 0, 55, 0
2, 79649, Note_on_c, 0, 61, 0
2, 79649, Note_on_c, 0, 53, 0
2, 79740, Note_on_c, 0, 53, 95
2, 79740, Note_on_c, 0, 55, 95
2, 79740, Note_on_c, 0, 61, 95
2, 79740, Note_on_c, 0, 65, 95
2, 80100, Note_on_c, 0, 65, 0
2, 80100, Note_on_c, 0, 55, 0
2, 80100, Note_on_c, 0, 61, 0
2, 80100, Note_on_c, 0, 53, 0
2, 80100, Note_on_c, 0, 53, 96
2, 80100, Note_on_c, 0, 55, 96
2, 80100, Note_on_c, 0, 61, 96
2, 80100, Note_on_c, 0, 65, 96
2, 80144, Note_on_c, 0, 65, 0
2, 80144, Note_on_c, 0, 55, 0
2, 80144, Note_on_c, 0, 61, 0
2, 80144, Note_on_c, 0, 53, 0
2, 80190, Note_on_c, 0, 53, 96
2, 80190, Note_on_c, 0, 55, 96
2, 80190, Note_on_c, 0, 61, 96
2, 80190, Note_on_c, 0, 65, 96
2, 80234, Note_on_c, 0, 65, 0
2, 80234, Note_on_c, 0, 55, 0
2, 80234, Note_on_c, 0, 61, 0
2, 80234, Note_on_c, 0, 53, 0
2, 80280, Note_on_c, 0, 57, 0
2, 80280, Note_on_c, 0, 58, 96
2, 80280, Note_on_c, 0, 54, 96
2, 80280, Note_on_c, 0, 62, 96
2, 80280, Note_on_c, 0, 66, 96
2, 80415, Note_on_c, 0, 66, 0
2, 80415, Note_on_c, 0, 62, 0
2, 80415, Note_on_c, 0, 54, 0
2, 80415, Note_on_c, 0, 54, 96
2, 80415, Note_on_c, 0, 62, 96
2, 80415, Note_on_c, 0, 66, 96
2, 80436, Note_on_c, 0, 66, 0
2, 80436, Note_on_c, 0, 62, 0
2, 80436, Note_on_c, 0, 54, 0
2, 80460, Note_on_c, 0, 54, 96
2, 80460, Note_on_c, 0, 62, 96
2, 80460, Note_on_c, 0, 66, 96
2, 80820, Note_on_c, 0, 66, 0
2, 80820, Note_on_c, 0, 62, 0
2, 80820, Note_on_c, 0, 54, 0
2, 80820, Note_on_c, 0, 54, 97
2, 80820, Note_on_c, 0, 62, 97
2, 80820, Note_on_c, 0, 66, 97
2, 80910, Note_on_c, 0, 58, 0
2, 80910, Note_on_c, 0, 58, 97
2, 80940, Note_on_c, 0, 58, 0
2, 80940, Note_on_c, 0, 59, 97
2, 80969, Note_on_c, 0, 59, 0
2, 80969, Note_on_c, 0, 60, 97
2, 80978, Note_on_c, 0, 54, 0
2, 80978, Note_on_c, 0, 66, 0
2, 80978, Note_on_c, 0, 62, 0
2, 81000, Note_on_c, 0, 60, 0
2, 81000, Note_on_c, 0, 59, 98
2, 81000, Note_on_c, 0, 54, 98
2, 81000, Note_on_c, 0, 63, 98
2, 81000, Note_on_c, 0, 66, 98
2, 81051, Note_on_c, 0, 66, 0
2, 81051, Note_on_c, 0, 63, 0
2, 81051, Note_on_c, 0, 54, 0
2, 81059, Note_on_c, 0, 54, 98
2, 81059, Note_on_c, 0, 63, 98
2, 81059, Note_on_c, 0, 66, 98
2, 81111, Note_on_c, 0, 66, 0
2, 81111, Note_on_c, 0, 63, 0
2, 81111, Note_on_c, 0, 54, 0
2, 81120, Note_on_c, 0, 54, 98
2, 81120, Note_on_c, 0, 63, 98
2, 81120, Note_on_c, 0, 66, 98
2, 81172, Note_on_c, 0, 66, 0
2, 81172, Note_on_c, 0, 63, 0
2, 81172, Note_on_c, 0, 54, 0
2, 81180, Note_on_c, 0, 54, 98
2, 81180, Note_on_c, 0, 63, 98
2, 81180, Note_on_c, 0, 66, 98
2, 81540, Note_on_c, 0, 66, 0
2, 81540, Note_on_c, 0, 59, 0
2, 81540, Note_on_c, 0, 54, 0
2, 81540, Note_on_c, 0, 63, 0
2, 81540, Note_on_c, 0, 58, 99
2, 81540, Note_on_c, 0, 54, 99
2, 81540, Note_on_c, 0, 63, 99
2, 81540, Note_on_c, 0, 66, 99
2, 81584, Note_on_c, 0, 66, 0
2, 81584, Note_on_c, 0, 63, 0
2, 81584, Note_on_c, 0, 54, 0
2, 81630, Note_on_c, 0, 54, 99
2, 81630, Note_on_c, 0, 63, 99
2, 81630, Note_on_c, 0, 66, 99
2, 81674, Note_on_c, 0, 66, 0
2, 81674, Note_on_c, 0, 63, 0
2, 81674, Note_on_c, 0, 54, 0
2, 81720, Note_on_c, 0, 58, 0
2, 81720, Note_on_c, 0, 59, 99
2, 81720, Note_on_c, 0, 54, 99
2, 81720, Note_on_c, 0, 63, 99
2, 81720, Note_on_c, 0, 66, 99
2, 81786, Note_on_c, 0, 66, 0
2, 81786, Note_on_c, 0, 63, 0
2, 81786, Note_on_c, 0, 54, 0
2, 81855, Note_on_c, 0, 54, 99
2, 81855, Note_on_c, 0, 63, 99
2, 81855, Note_on_c, 0, 66, 99
2, 81876, Note_on_c, 0, 66, 0
2, 81876, Note_on_c, 0, 63, 0
2, 81876, Note_on_c, 0, 54, 0
2, 81900, Note_on_c, 0, 54, 99
2, 81900, Note_on_c, 0, 63, 99
2, 81900, Note_on_c, 0, 66, 99
2, 82260, Note_on_c, 0, 66, 0
2, 82260, Note_on_c, 0, 63, 0
2, 82260, Note_on_c, 0, 54, 0
2, 82260, Note_on_c, 0, 54, 100
2, 82260, Note_on_c, 0, 63, 100
2, 82260, Note_on_c, 0, 66, 100
2, 82350, Note_on_c, 0, 59, 0
2, 82350, Note_on_c, 0, 59, 100
2, 82380, Note_on_c, 0, 59, 0
2, 82380, Note_on_c, 0, 60, 100
2, 82409, Note_on_c, 0, 60, 0
2, 82409, Note_on_c, 0, 61, 100
2, 82418, Note_on_c, 0, 54, 0
2, 82418, Note_on_c, 0, 66, 0
2, 82418, Note_on_c, 0, 63, 0
2, 82440, Note_on_c, 0, 61, 0
2, 82440, Note_on_c, 0, 60, 100
2, 82440, Note_on_c, 0, 54, 100
2, 82440, Note_on_c, 0, 58, 100
2, 82440, Note_on_c, 0, 63, 100
2, 82440, Note_on_c, 0, 66, 100
2, 82491, Note_on_c, 0, 66, 0
2, 82491, Note_on_c, 0, 58, 0
2, 82491, Note_on_c, 0, 63, 0
2, 82491, Note_on_c, 0, 54, 0
2, 82499, Note_on_c, 0, 54, 100
2, 82499, Note_on_c, 0, 58, 100
2, 82499, Note_on_c, 0, 63, 100
2, 82499, Note_on_c, 0, 66, 100
2, 82551, Note_on_c, 0, 66, 0
2, 82551, Note_on_c, 0, 58, 0
2, 82551, Note_on_c, 0, 63, 0
2, 82551, Note_on_c, 0, 54, 0
2, 82560, Note_on_c, 0, 54, 101
2, 82560, Note_on_c, 0, 58, 101
2, 82560, Note_on_c, 0, 63, 101
2, 82560, Note_on_c, 0, 66, 101
2, 82612, Note_on_c, 0, 66, 0
2, 82612, Note_on_c, 0, 58, 0
2, 82612, Note_on_c, 0, 63, 0
2, 82612, Note_on_c, 0, 54, 0
2, 82620, Note_on_c, 0, 54, 101
2, 82620, Note_on_c, 0, 58, 101
2, 82620, Note_on_c, 0, 63, 101
2, 82620, Note_on_c, 0, 66, 101
2, 82980, Note_on_c, 0, 66, 0
2, 82980, Note_on_c, 0, 58, 0
2, 82980, Note_on_c, 0, 63, 0
2, 82980, Note_on_c, 0, 54, 0
2, 82980, Note_on_c, 0, 54, 101
2, 82980, Note_on_c, 0, 58, 101
2, 82980, Note_on_c, 0, 63, 101
2, 82980, Note_on_c, 0, 66, 101
2, 83138, Note_on_c, 0, 66, 0
2, 83138, Note_on_c, 0, 58, 0
2, 83138, Note_on_c, 0, 63, 0
2, 83138, Note_on_c, 0, 54, 0
2, 83160, Note_on_c, 0, 60, 0
2, 83160, Note_on_c, 0, 62, 102
2, 83160, Note_on_c, 0, 54, 102
2, 83160, Note_on_c, 0, 57, 102
2, 83160, Note_on_c, 0, 63, 102
2, 83160, Note_on_c, 0, 66, 102
2, 83318, Note_on_c, 0, 66, 0
2, 83318, Note_on_c, 0, 57, 0
2, 83318, Note_on_c, 0, 63, 0
2, 83318, Note_on_c, 0, 54, 0
2, 83340, Note_on_c, 0, 54, 102
2, 83340, Note_on_c, 0, 57, 102
2, 83340, Note_on_c, 0, 63, 102
2, 83340, Note_on_c, 0, 66, 102
2, 83657, Note_on_c, 0, 66, 0
2, 83657, Note_on_c, 0, 57, 0
2, 83657, Note_on_c, 0, 63, 0
2, 83657, Note_on_c, 0, 54, 0
2, 83700, Note_on_c, 0, 62, 0
2, 83700, Note_on_c, 0, 60, 103
2, 83700, Note_on_c, 0, 54, 103
2, 83700, Note_on_c, 0, 57, 103
2, 83700, Note_on_c, 0, 63, 103
2, 83700, Note_on_c, 0, 66, 103
2, 83779, Note_on_c, 0, 66, 0
2, 83779, Note_on_c, 0, 57, 0
2, 83779, Note_on_c, 0, 63, 0
2, 83779, Note_on_c, 0, 54, 0
2, 83790, Note_on_c, 0, 54, 103
2, 83790, Note_on_c, 0, 57, 103
2, 83790, Note_on_c, 0, 63, 103
2, 83790, Note_on_c, 0, 66, 103
2, 83869, Note_on_c, 0, 66, 0
2, 83869, Note_on_c, 0, 57, 0
2, 83869, Note_on_c, 0, 63, 0
2, 83869, Note_on_c, 0, 54, 0
2, 83880, Note_on_c, 0, 60, 0
2, 83880, Note_on_c, 0, 62, 103
2, 83880, Note_on_c, 0, 54, 103
2, 83880, Note_on_c, 0, 57, 103
2, 83880, Note_on_c, 0, 63, 103
2, 83880, Note_on_c, 0, 66, 103
2, 83998, Note_on_c, 0, 66, 0
2, 83998, Note_on_c, 0, 57, 0
2, 83998, Note_on_c, 0, 63, 0
2, 83998, Note_on_c, 0, 54, 0
2, 84015, Note_on_c, 0, 54, 103
2, 84015, Note_on_c, 0, 57, 103
2, 84015, Note_on_c, 0, 63, 103
2, 84015, Note_on_c, 0, 66, 103
2, 84054, Note_on_c, 0, 66, 0
2, 84054, Note_on_c, 0, 57, 0
2, 84054, Note_on_c, 0, 63, 0
2, 84054, Note_on_c, 0, 54, 0
2, 84060, Note_on_c, 0, 54, 104
2, 84060, Note_on_c, 0, 57, 104
2, 84060, Note_on_c, 0, 63, 104
2, 84060, Note_on_c, 0, 66, 104
2, 84420, Note_on_c, 0, 66, 0
2, 84420, Note_on_c, 0, 57, 0
2, 84420, Note_on_c, 0, 63, 0
2, 84420, Note_on_c, 0, 54, 0
2, 84420, Note_on_c, 0, 54, 104
2, 84420, Note_on_c, 0, 57, 104
2, 84420, Note_on_c, 0, 63, 104
2, 84420, Note_on_c, 0, 66, 104
2, 84510, Note_on_c, 0, 62, 0
2, 84510, Note_on_c, 0, 61, 104
2, 84540, Note_on_c, 0, 61, 0
2, 84540, Note_on_c, 0, 62, 104
2, 84569, Note_on_c, 0, 62, 0
2, 84569, Note_on_c, 0, 63, 105
2, 84600, Note_on_c, 0, 63, 0
2, 84600, Note_on_c, 0, 66, 0
2, 84600, Note_on_c, 0, 54, 0
2, 84600, Note_on_c, 0, 57, 0
2, 84600, Note_on_c, 0, 63, 0
2, 84600, Note_on_c, 0, 62, 105
2, 84600, Note_on_c, 0, 54, 105
2, 84600, Note_on_c, 0, 57, 105
2, 84600, Note_on_c, 0, 62, 105
2, 84600, Note_on_c, 0, 66, 105
2, 84659, Note_on_c, 0, 66, 0
2, 84659, Note_on_c, 0, 62, 0
2, 84659, Note_on_c, 0, 57, 0
2, 84659, Note_on_c, 0, 54, 0
2, 84659, Note_on_c, 0, 54, 105
2, 84659, Note_on_c, 0, 57, 105
2, 84659, Note_on_c, 0, 62, 105
2, 84659, Note_on_c, 0, 66, 105
2, 84720, Note_on_c, 0, 66, 0
2, 84720, Note_on_c, 0, 62, 0
2, 84720, Note_on_c, 0, 57, 0
2, 84720, Note_on_c, 0, 54, 0
2, 84720, Note_on_c, 0, 54, 105
2, 84720, Note_on_c, 0, 57, 105
2, 84720, Note_on_c, 0, 62, 105
2, 84720, Note_on_c, 0, 66, 105
2, 84780, Note_on_c, 0, 66, 0
2, 84780, Note_on_c, 0, 62, 0
2, 84780, Note_on_c, 0, 57, 0
2, 84780, Note_on_c, 0, 54, 0
2, 84780, Note_on_c, 0, 54, 105
2, 84780, Note_on_c, 0, 57, 105
2, 84780, Note_on_c, 0, 62, 105
2, 84780, Note_on_c, 0, 66, 105
2, 85019, Note_on_c, 0, 66, 0
2, 85019, Note_on_c, 0, 62, 0
2, 85019, Note_on_c, 0, 57, 0
2, 85019, Note_on_c, 0, 54, 0
2, 85019, Note_on_c, 0, 54, 105
2, 85019, Note_on_c, 0, 57, 105
2, 85019, Note_on_c, 0, 62, 105
2, 85019, Note_on_c, 0, 66, 105
2, 85080, Note_on_c, 0, 66, 0
2, 85080, Note_on_c, 0, 62, 0
2, 85080, Note_on_c, 0, 57, 0
2, 85080, Note_on_c, 0, 54, 0
2, 85080, Note_on_c, 0, 54, 106
2, 85080, Note_on_c, 0, 57, 106
2, 85080, Note_on_c, 0, 62, 106
2, 85080, Note_on_c, 0, 66, 106
2, 85140, Note_on_c, 0, 66, 0
2, 85140, Note_on_c, 0, 62, 0
2, 85140, Note_on_c, 0, 57, 0
2, 85140, Note_on_c, 0, 54, 0
2, 85140, Note_on_c, 0, 54, 106
2, 85140, Note_on_c, 0, 57, 106
2, 85140, Note_on_c, 0, 62, 106
2, 85140, Note_on_c, 0, 66, 106
2, 85230, Note_on_c, 0, 62, 0
2, 85230, Note_on_c, 0, 62, 106
2, 85260, Note_on_c, 0, 62, 0
2, 85260, Note_on_c, 0, 63, 106
2, 85289, Note_on_c, 0, 63, 0
2, 85289, Note_on_c, 0, 64, 106
2, 85320, Note_on_c, 0, 64, 0
2, 85320, Note_on_c, 0, 66, 0
2, 85320, Note_on_c, 0, 54, 0
2, 85320, Note_on_c, 0, 57, 0
2, 85320, Note_on_c, 0, 62, 0
2, 85320, Note_on_c, 0, 63, 127
2, 85320, Note_on_c, 0, 54, 106
2, 85320, Note_on_c, 0, 58, 106
2, 85320, Note_on_c, 0, 66, 106
2, 85590, Note_on_c, 0, 66, 0
2, 85590, Note_on_c, 0, 63, 0
2, 85590, Note_on_c, 0, 54, 0
2, 85590, Note_on_c, 0, 58, 0
2, 85590, Note_on_c, 0, 65, 127
2, 85590, Note_on_c, 0, 62, 118
2, 85680, Note_on_c, 0, 62, 0
2, 85680, Note_on_c, 0, 65, 0
2, 85680, Note_on_c, 0, 66, 127
2, 85680, Note_on_c, 0, 63, 127
2, 87120, Note_on_c, 0, 66, 0
2, 87120, Note_on_c, 0, 72, 119
2, 87437, Note_on_c, 0, 72, 0
2, 87480, Note_on_c, 0, 63, 0
2, 87480, Note_on_c, 0, 78, 108
2, 87480, Note_on_c, 0, 70, 82
2, 87480, Note_on_c, 0, 63, 53
2, 87840, Note_on_c, 0, 78, 0
2, 87840, Note_on_c, 0, 72, 83
2, 88200, Note_on_c, 0, 72, 0
2, 88200, Note_on_c, 0, 72, 103
2, 88517, Note_on_c, 0, 72, 0
2, 88560, Note_on_c, 0, 63, 0
2, 88560, Note_on_c, 0, 77, 121
2, 88560, Note_on_c, 0, 65, 72
2, 88877, Note_on_c, 0, 77, 0
2, 88920, Note_on_c, 0, 75, 89
2, 89100, Note_on_c, 0, 75, 0
2, 89100, Note_on_c, 0, 72, 90
2, 89280, Note_on_c, 0, 72, 0
2, 89280, Note_on_c, 0, 72, 95
2, 89640, Note_on_c, 0, 72, 0
2, 89640, Note_on_c, 0, 65, 0
2, 89640, Note_on_c, 0, 75, 107
2, 89640, Note_on_c, 0, 66, 74
2, 90000, Note_on_c, 0, 75, 0
2, 90000, Note_on_c, 0, 72, 85
2, 90360, Note_on_c, 0, 72, 0
2, 90360, Note_on_c, 0, 70, 0
2, 90360, Note_on_c, 0, 72, 104
2, 90360, Note_on_c, 0, 63, 79
2, 90360, Note_on_c, 0, 66, 79
2, 90677, Note_on_c, 0, 72, 0
2, 90720, Note_on_c, 0, 66, 0
2, 91800, Note_on_c, 0, 63, 0
2, 91800, Note_on_c, 0, 66, 0
2, 91800, Note_on_c, 0, 70, 107
2, 91800, Note_on_c, 0, 63, 93
2, 91800, Note_on_c, 0, 66, 93
2, 92160, Note_on_c, 0, 70, 0
2, 92160, Note_on_c, 0, 69, 99
2, 92880, Note_on_c, 0, 69, 0
2, 92880, Note_on_c, 0, 66, 0
2, 92880, Note_on_c, 0, 63, 0
2, 92880, Note_on_c, 0, 71, 102
2, 92880, Note_on_c, 0, 63, 83
2, 92880, Note_on_c, 0, 66, 83
2, 92880, Note_on_c, 0, 63, 79
2, 93240, Note_on_c, 0, 63, 0
2, 93240, Note_on_c, 0, 62, 79
2, 93600, Note_on_c, 0, 62, 0
2, 93600, Note_on_c, 0, 71, 0
2, 93600, Note_on_c, 0, 70, 93
2, 93600, Note_on_c, 0, 61, 74
2, 93960, Note_on_c, 0, 61, 0
2, 93960, Note_on_c, 0, 63, 0
2, 93960, Note_on_c, 0, 66, 0
2, 93960, Note_on_c, 0, 70, 0
2, 93960, Note_on_c, 0, 70, 94
2, 93960, Note_on_c, 0, 63, 80
2, 93960, Note_on_c, 0, 66, 80
2, 93960, Note_on_c, 0, 61, 80
2, 94320, Note_on_c, 0, 61, 0
2, 94320, Note_on_c, 0, 70, 0
2, 94320, Note_on_c, 0, 69, 93
2, 94320, Note_on_c, 0, 60, 52
2, 94500, Note_on_c, 0, 60, 0
2, 94500, Note_on_c, 0, 69, 0
2, 94950, Note_on_c, 0, 66, 0
2, 94950, Note_on_c, 0, 63, 0
2, 94950, Note_on_c, 0, 60, 68
2, 95040, Note_on_c, 0, 60, 0
2, 95040, Note_on_c, 0, 63, 89
2, 95040, Note_on_c, 0, 66, 89
2, 95040, Note_on_c, 0, 58, 76
2, 95130, Note_on_c, 0, 58, 0
2, 95130, Note_on_c, 0, 61, 88
2, 95220, Note_on_c, 0, 61, 0
2, 95220, Note_on_c, 0, 58, 84
2, 95310, Note_on_c, 0, 58, 0
2, 95310, Note_on_c, 0, 63, 88
2, 95400, Note_on_c, 0, 63, 0
2, 95400, Note_on_c, 0, 58, 76
2, 95490, Note_on_c, 0, 58, 0
2, 95490, Note_on_c, 0, 61, 85
2, 95580, Note_on_c, 0, 61, 0
2, 95580, Note_on_c, 0, 58, 79
2, 95670, Note_on_c, 0, 58, 0
2, 95670, Note_on_c, 0, 60, 80
2, 95760, Note_on_c, 0, 60, 0
2, 95760, Note_on_c, 0, 58, 78
2, 95850, Note_on_c, 0, 58, 0
2, 95850, Note_on_c, 0, 61, 84
2, 95940, Note_on_c, 0, 61, 0
2, 95940, Note_on_c, 0, 58, 81
2, 96030, Note_on_c, 0, 58, 0
2, 96030, Note_on_c, 0, 61, 86
2, 96120, Note_on_c, 0, 61, 0
2, 96120, Note_on_c, 0, 60, 75
2, 96210, Note_on_c, 0, 60, 0
2, 96210, Note_on_c, 0, 57, 74
2, 96300, Note_on_c, 0, 57, 0
2, 96300, Note_on_c, 0, 60, 87
2, 96750, Note_on_c, 0, 60, 0
2, 96750, Note_on_c, 0, 60, 79
2, 96840, Note_on_c, 0, 60, 0
2, 96840, Note_on_c, 0, 57, 76
2, 96930, Note_on_c, 0, 57, 0
2, 96930, Note_on_c, 0, 60, 85
2, 97020, Note_on_c, 0, 60, 0
2, 97020, Note_on_c, 0, 57, 79
2, 97110, Note_on_c, 0, 57, 0
2, 97110, Note_on_c, 0, 60, 90
2, 97200, Note_on_c, 0, 60, 0
2, 97200, Note_on_c, 0, 58, 81
2, 97290, Note_on_c, 0, 58, 0
2, 97290, Note_on_c, 0, 61, 88
2, 97380, Note_on_c, 0, 61, 0
2, 97380, Note_on_c, 0, 58, 78
2, 97470, Note_on_c, 0, 58, 0
2, 97470, Note_on_c, 0, 63, 91
2, 97560, Note_on_c, 0, 63, 0
2, 97560, Note_on_c, 0, 58, 78
2, 97650, Note_on_c, 0, 58, 0
2, 97650, Note_on_c, 0, 61, 88
2, 97740, Note_on_c, 0, 61, 0
2, 97740, Note_on_c, 0, 58, 78
2, 97830, Note_on_c, 0, 58, 0
2, 97830, Note_on_c, 0, 60, 84
2, 97920, Note_on_c, 0, 60, 0
2, 97920, Note_on_c, 0, 58, 75
2, 98010, Note_on_c, 0, 58, 0
2, 98010, Note_on_c, 0, 61, 85
2, 98100, Note_on_c, 0, 61, 0
2, 98100, Note_on_c, 0, 58, 76
2, 98190, Note_on_c, 0, 58, 0
2, 98190, Note_on_c, 0, 61, 87
2, 98280, Note_on_c, 0, 61, 0
2, 98280, Note_on_c, 0, 63, 0
2, 98280, Note_on_c, 0, 66, 0
2, 98280, Note_on_c, 0, 66, 95
2, 98280, Note_on_c, 0, 63, 93
2, 98280, Note_on_c, 0, 60, 81
2, 98370, Note_on_c, 0, 60, 0
2, 98370, Note_on_c, 0, 57, 80
2, 98460, Note_on_c, 0, 57, 0
2, 98460, Note_on_c, 0, 60, 80
2, 98910, Note_on_c, 0, 60, 0
2, 98910, Note_on_c, 0, 57, 78
2, 99000, Note_on_c, 0, 57, 0
2, 99000, Note_on_c, 0, 60, 78
2, 99090, Note_on_c, 0, 60, 0
2, 99090, Note_on_c, 0, 57, 78
2, 99180, Note_on_c, 0, 57, 0
2, 99180, Note_on_c, 0, 60, 77
2, 99270, Note_on_c, 0, 60, 0
2, 99270, Note_on_c, 0, 57, 77
2, 99360, Note_on_c, 0, 57, 0
2, 99360, Note_on_c, 0, 60, 77
2, 99450, Note_on_c, 0, 60, 0
2, 99450, Note_on_c, 0, 57, 76
2, 99540, Note_on_c, 0, 57, 0
2, 99540, Note_on_c, 0, 60, 76
2, 100350, Note_on_c, 0, 60, 0
2, 100350, Note_on_c, 0, 57, 73
2, 100440, Note_on_c, 0, 57, 0
2, 100440, Note_on_c, 0, 60, 73
2, 100530, Note_on_c, 0, 60, 0
2, 100530, Note_on_c, 0, 57, 72
2, 100620, Note_on_c, 0, 57, 0
2, 100620, Note_on_c, 0, 60, 72
2, 101520, Note_on_c, 0, 60, 0
2, 101520, Note_on_c, 0, 57, 69
2, 101700, Note_on_c, 0, 57, 0
2, 101880, Note_on_c, 0, 66, 0
2, 101880, Note_on_c, 0, 65, 87
2, 102060, Note_on_c, 0, 65, 0
2, 102060, Note_on_c, 0, 67, 93
2, 102240, Note_on_c, 0, 67, 0
2, 102240, Note_on_c, 0, 69, 99
2, 102360, Note_on_c, 0, 69, 0
2, 102360, Note_on_c, 0, 70, 102
2, 102479, Note_on_c, 0, 70, 0
2, 102479, Note_on_c, 0, 72, 115
2, 102600, Note_on_c, 0, 72, 0
2, 102600, Note_on_c, 0, 63, 0
2, 102600, Note_on_c, 0, 74, 106
2, 102960, Note_on_c, 0, 74, 0
2, 102960, Note_on_c, 0, 70, 61
2, 102960, Note_on_c, 0, 74, 66
2, 103320, Note_on_c, 0, 74, 0
2, 103320, Note_on_c, 0, 70, 0
2, 103320, Note_on_c, 0, 70, 81
2, 103320, Note_on_c, 0, 65, 54
2, 103500, Note_on_c, 0, 65, 0
2, 103637, Note_on_c, 0, 70, 0
2, 104400, Note_on_c, 0, 70, 70
2, 104580, Note_on_c, 0, 70, 0
2, 104580, Note_on_c, 0, 72, 79
2, 104760, Note_on_c, 0, 72, 0
2, 104760, Note_on_c, 0, 74, 99
2, 104940, Note_on_c, 0, 74, 0
2, 104940, Note_on_c, 0, 70, 93
2, 105120, Note_on_c, 0, 70, 0
2, 105120, Note_on_c, 0, 70, 81
2, 105437, Note_on_c, 0, 70, 0
2, 105480, Note_on_c, 0, 70, 82
2, 105797, Note_on_c, 0, 70, 0
2, 106200, Note_on_c, 0, 67, 70
2, 106380, Note_on_c, 0, 67, 0
2, 106380, Note_on_c, 0, 69, 75
2, 106560, Note_on_c, 0, 69, 0
2, 106560, Note_on_c, 0, 70, 79
2, 106740, Note_on_c, 0, 70, 0
2, 106740, Note_on_c, 0, 72, 85
2, 106920, Note_on_c, 0, 72, 0
2, 106920, Note_on_c, 0, 74, 89
2, 107100, Note_on_c, 0, 74, 0
2, 107100, Note_on_c, 0, 70, 78
2, 107280, Note_on_c, 0, 70, 0
2, 107280, Note_on_c, 0, 74, 86
2, 107280, Note_on_c, 0, 70, 67
2, 107640, Note_on_c, 0, 70, 0
2, 107640, Note_on_c, 0, 65, 59
2, 107820, Note_on_c, 0, 65, 0
2, 107820, Note_on_c, 0, 74, 0
2, 107820, Note_on_c, 0, 72, 80
2, 108000, Note_on_c, 0, 72, 0
2, 108000, Note_on_c, 0, 70, 83
2, 108180, Note_on_c, 0, 70, 0
2, 108180, Note_on_c, 0, 72, 85
2, 108360, Note_on_c, 0, 72, 0
2, 108360, Note_on_c, 0, 75, 87
2, 108720, Note_on_c, 0, 75, 0
2, 108720, Note_on_c, 0, 74, 92
2, 108900, Note_on_c, 0, 74, 0
2, 108900, Note_on_c, 0, 72, 94
2, 109080, Note_on_c, 0, 72, 0
2, 109080, Note_on_c, 0, 74, 83
2, 109080, Note_on_c, 0, 74, 107
2, 109260, Note_on_c, 0, 74, 0
2, 109260, Note_on_c, 0, 75, 87
2, 109260, Note_on_c, 0, 67, 97
2, 109418, Note_on_c, 0, 67, 0
2, 109440, Note_on_c, 0, 75, 0
2, 109440, Note_on_c, 0, 76, 92
2, 109440, Note_on_c, 0, 70, 112
2, 109620, Note_on_c, 0, 76, 0
2, 109620, Note_on_c, 0, 77, 103
2, 109757, Note_on_c, 0, 70, 0
2, 109800, Note_on_c, 0, 77, 0
2, 109800, Note_on_c, 0, 82, 127
2, 109800, Note_on_c, 0, 69, 56
2, 109980, Note_on_c, 0, 69, 0
2, 109980, Note_on_c, 0, 67, 55
2, 110160, Note_on_c, 0, 67, 0
2, 110160, Note_on_c, 0, 74, 0
2, 110160, Note_on_c, 0, 75, 126
2, 110160, Note_on_c, 0, 70, 58
2, 110340, Note_on_c, 0, 70, 0
2, 110340, Note_on_c, 0, 71, 61
2, 110520, Note_on_c, 0, 71, 0
2, 110520, Note_on_c, 0, 82, 0
2, 110520, Note_on_c, 0, 81, 123
2, 110520, Note_on_c, 0, 71, 64
2, 110700, Note_on_c, 0, 71, 0
2, 110700, Note_on_c, 0, 72, 67
2, 110880, Note_on_c, 0, 72, 0
2, 110880, Note_on_c, 0, 75, 127
2, 110994, Note_on_c, 0, 81, 0
2, 111060, Note_on_c, 0, 78, 100
2, 111240, Note_on_c, 0, 78, 0
2, 111240, Note_on_c, 0, 75, 0
2, 111240, Note_on_c, 0, 77, 90
2, 111420, Note_on_c, 0, 77, 0
2, 111420, Note_on_c, 0, 70, 78
2, 111600, Note_on_c, 0, 70, 0
2, 111600, Note_on_c, 0, 75, 0
2, 111600, Note_on_c, 0, 77, 122
2, 111600, Note_on_c, 0, 74, 40
2, 111917, Note_on_c, 0, 77, 0
2, 111960, Note_on_c, 0, 77, 107
2, 112140, Note_on_c, 0, 74, 0
2, 112140, Note_on_c, 0, 71, 39
2, 112320, Note_on_c, 0, 71, 0
2, 112320, Note_on_c, 0, 70, 85
2, 112500, Note_on_c, 0, 70, 0
2, 112500, Note_on_c, 0, 66, 82
2, 112680, Note_on_c, 0, 66, 0
2, 112680, Note_on_c, 0, 77, 0
2, 112680, Note_on_c, 0, 75, 95
2, 112680, Note_on_c, 0, 70, 112
2, 112838, Note_on_c, 0, 75, 0
2, 112860, Note_on_c, 0, 74, 102
2, 112997, Note_on_c, 0, 70, 0
2, 113018, Note_on_c, 0, 74, 0
2, 113040, Note_on_c, 0, 72, 96
2, 113040, Note_on_c, 0, 70, 105
2, 113144, Note_on_c, 0, 72, 0
2, 113160, Note_on_c, 0, 74, 113
2, 113264, Note_on_c, 0, 74, 0
2, 113279, Note_on_c, 0, 75, 114
2, 113385, Note_on_c, 0, 75, 0
2, 113400, Note_on_c, 0, 74, 91
2, 113580, Note_on_c, 0, 74, 0
2, 113580, Note_on_c, 0, 70, 88
2, 113760, Note_on_c, 0, 70, 0
2, 113760, Note_on_c, 0, 70, 0
2, 113760, Note_on_c, 0, 70, 117
2, 113760, Note_on_c, 0, 74, 117
2, 113760, Note_on_c, 0, 69, 93
2, 113918, Note_on_c, 0, 69, 0
2, 113940, Note_on_c, 0, 67, 97
2, 114098, Note_on_c, 0, 67, 0
2, 114120, Note_on_c, 0, 66, 101
2, 114224, Note_on_c, 0, 66, 0
2, 114240, Note_on_c, 0, 67, 103
2, 114344, Note_on_c, 0, 67, 0
2, 114359, Note_on_c, 0, 69, 124
2, 114393, Note_on_c, 0, 74, 0
2, 114393, Note_on_c, 0, 70, 0
2, 114465, Note_on_c, 0, 69, 0
2, 114480, Note_on_c, 0, 72, 98
2, 114480, Note_on_c, 0, 66, 106
2, 114660, Note_on_c, 0, 66, 0
2, 114660, Note_on_c, 0, 63, 100
2, 114797, Note_on_c, 0, 72, 0
2, 114840, Note_on_c, 0, 63, 0
2, 114840, Note_on_c, 0, 70, 84
2, 114840, Note_on_c, 0, 63, 109
2, 114840, Note_on_c, 0, 66, 109
2, 115020, Note_on_c, 0, 70, 0
2, 115020, Note_on_c, 0, 66, 85
2, 115200, Note_on_c, 0, 66, 0
2, 115200, Note_on_c, 0, 66, 102
2, 115473, Note_on_c, 0, 66, 0
2, 115473, Note_on_c, 0, 63, 0
2, 115517, Note_on_c, 0, 66, 0
2, 115560, Note_on_c, 0, 70, 73
2, 115560, Note_on_c, 0, 67, 75
2, 115560, Note_on_c, 0, 62, 35
2, 115740, Note_on_c, 0, 70, 0
2, 115740, Note_on_c, 0, 67, 69
2, 115920, Note_on_c, 0, 67, 0
2, 115920, Note_on_c, 0, 67, 0
2, 115920, Note_on_c, 0, 70, 73
2, 115920, Note_on_c, 0, 66, 68
2, 116100, Note_on_c, 0, 66, 0
2, 116100, Note_on_c, 0, 62, 64
2, 116280, Note_on_c, 0, 62, 0
2, 116280, Note_on_c, 0, 62, 70
2, 116640, Note_on_c, 0, 62, 0
2, 116640, Note_on_c, 0, 62, 0
2, 116640, Note_on_c, 0, 70, 0
2, 116640, Note_on_c, 0, 63, 76
2, 116798, Note_on_c, 0, 63, 0
2, 116820, Note_on_c, 0, 65, 75
2, 116978, Note_on_c, 0, 65, 0
2, 117000, Note_on_c, 0, 66, 73
2, 117104, Note_on_c, 0, 66, 0
2, 117120, Note_on_c, 0, 68, 75
2, 117224, Note_on_c, 0, 68, 0
2, 117239, Note_on_c, 0, 69, 73
2, 117345, Note_on_c, 0, 69, 0
2, 117360, Note_on_c, 0, 72, 63
2, 117360, Note_on_c, 0, 69, 63
2, 117360, Note_on_c, 0, 60, 65
2, 117464, Note_on_c, 0, 60, 0
2, 117480, Note_on_c, 0, 72, 0
2, 117480, Note_on_c, 0, 74, 73
2, 117480, Note_on_c, 0, 62, 72
2, 117584, Note_on_c, 0, 62, 0
2, 117599, Note_on_c, 0, 74, 0
2, 117599, Note_on_c, 0, 75, 72
2, 117599, Note_on_c, 0, 63, 75
2, 117705, Note_on_c, 0, 63, 0
2, 117720, Note_on_c, 0, 75, 0
2, 117720, Note_on_c, 0, 69, 0
2, 117720, Note_on_c, 0, 78, 60
2, 117720, Note_on_c, 0, 70, 107
2, 117720, Note_on_c, 0, 74, 107
2, 117720, Note_on_c, 0, 66, 93
2, 117840, Note_on_c, 0, 66, 0
2, 117840, Note_on_c, 0, 78, 0
2, 117840, Note_on_c, 0, 77, 56
2, 117840, Note_on_c, 0, 65, 89
2, 118080, Note_on_c, 0, 65, 0
2, 118080, Note_on_c, 0, 70, 0
2, 118080, Note_on_c, 0, 74, 0
2, 118080, Note_on_c, 0, 77, 0
2, 118080, Note_on_c, 0, 78, 53
2, 118080, Note_on_c, 0, 70, 88
2, 118080, Note_on_c, 0, 74, 88
2, 118080, Note_on_c, 0, 66, 84
2, 118200, Note_on_c, 0, 66, 0
2, 118200, Note_on_c, 0, 78, 0
2, 118200, Note_on_c, 0, 77, 45
2, 118200, Note_on_c, 0, 65, 76
2, 118440, Note_on_c, 0, 65, 0
2, 118440, Note_on_c, 0, 70, 0
2, 118440, Note_on_c, 0, 74, 0
2, 118440, Note_on_c, 0, 77, 0
2, 118440, Note_on_c, 0, 78, 50
2, 118440, Note_on_c, 0, 70, 89
2, 118440, Note_on_c, 0, 74, 89
2, 118440, Note_on_c, 0, 66, 84
2, 118560, Note_on_c, 0, 66, 0
2, 118560, Note_on_c, 0, 78, 0
2, 118560, Note_on_c, 0, 77, 45
2, 118560, Note_on_c, 0, 65, 81
2, 118800, Note_on_c, 0, 65, 0
2, 118800, Note_on_c, 0, 70, 0
2, 118800, Note_on_c, 0, 74, 0
2, 118800, Note_on_c, 0, 77, 0
2, 118800, Note_on_c, 0, 74, 48
2, 118800, Note_on_c, 0, 66, 81
2, 118800, Note_on_c, 0, 70, 81
2, 118800, Note_on_c, 0, 62, 81
2, 118980, Note_on_c, 0, 62, 0
2, 118980, Note_on_c, 0, 74, 0
2, 118980, Note_on_c, 0, 75, 51
2, 118980, Note_on_c, 0, 63, 84
2, 119160, Note_on_c, 0, 63, 0
2, 119160, Note_on_c, 0, 66, 0
2, 119160, Note_on_c, 0, 70, 0
2, 119160, Note_on_c, 0, 75, 0
2, 119160, Note_on_c, 0, 77, 54
2, 119160, Note_on_c, 0, 70, 87
2, 119160, Note_on_c, 0, 75, 87
2, 119160, Note_on_c, 0, 65, 87
2, 119280, Note_on_c, 0, 65, 0
2, 119280, Note_on_c, 0, 77, 0
2, 119280, Note_on_c, 0, 78, 56
2, 119280, Note_on_c, 0, 66, 89
2, 119399, Note_on_c, 0, 66, 0
2, 119399, Note_on_c, 0, 78, 0
2, 119399, Note_on_c, 0, 82, 58
2, 119399, Note_on_c, 0, 70, 91
2, 119520, Note_on_c, 0, 75, 0
2, 119520, Note_on_c, 0, 70, 0
2, 119520, Note_on_c, 0, 72, 96
2, 119520, Note_on_c, 0, 75, 96
2, 119640, Note_on_c, 0, 82, 0
2, 119640, Note_on_c, 0, 70, 0
2, 119640, Note_on_c, 0, 81, 101
2, 119640, Note_on_c, 0, 69, 101
2, 119759, Note_on_c, 0, 69, 0
2, 119759, Note_on_c, 0, 81, 0
2, 119759, Note_on_c, 0, 78, 88
2, 119759, Note_on_c, 0, 66, 89
2, 119880, Note_on_c, 0, 66, 0
2, 119880, Note_on_c, 0, 75, 0
2, 119880, Note_on_c, 0, 72, 0
2, 119880, Note_on_c, 0, 78, 0
2, 119880, Note_on_c, 0, 78, 93
2, 119880, Note_on_c, 0, 70, 77
2, 119880, Note_on_c, 0, 74, 77
2, 119880, Note_on_c, 0, 66, 93
2, 120000, Note_on_c, 0, 66, 0
2, 120000, Note_on_c, 0, 78, 0
2, 120000, Note_on_c, 0, 77, 85
2, 120000, Note_on_c, 0, 65, 85
2, 120240, Note_on_c, 0, 65, 0
2, 120240, Note_on_c, 0, 70, 0
2, 120240, Note_on_c, 0, 74, 0
2, 120240, Note_on_c, 0, 77, 0
2, 120240, Note_on_c, 0, 78, 93
2, 120240, Note_on_c, 0, 70, 67
2, 120240, Note_on_c, 0, 74, 67
2, 120240, Note_on_c, 0, 66, 93
2, 120360, Note_on_c, 0, 66, 0
2, 120360, Note_on_c, 0, 78, 0
2, 120360, Note_on_c, 0, 77, 75
2, 120360, Note_on_c, 0, 65, 79
2, 120600, Note_on_c, 0, 65, 0
2, 120600, Note_on_c, 0, 70, 0
2, 120600, Note_on_c, 0, 74, 0
2, 120600, Note_on_c, 0, 77, 0
2, 120600, Note_on_c, 0, 78, 93
2, 120600, Note_on_c, 0, 70, 57
2, 120600, Note_on_c, 0, 74, 57
2, 120600, Note_on_c, 0, 66, 93
2, 120720, Note_on_c, 0, 66, 0
2, 120720, Note_on_c, 0, 78, 0
2, 120720, Note_on_c, 0, 77, 80
2, 120720, Note_on_c, 0, 65, 75
2, 120960, Note_on_c, 0, 65, 0
2, 120960, Note_on_c, 0, 70, 0
2, 120960, Note_on_c, 0, 74, 0
2, 120960, Note_on_c, 0, 77, 0
2, 120960, Note_on_c, 0, 77, 81
2, 120960, Note_on_c, 0, 66, 41
2, 120960, Note_on_c, 0, 70, 41
2, 120960, Note_on_c, 0, 65, 81
2, 121080, Note_on_c, 0, 65, 0
2, 121080, Note_on_c, 0, 77, 0
2, 121080, Note_on_c, 0, 75, 76
2, 121080, Note_on_c, 0, 63, 76
2, 121320, Note_on_c, 0, 63, 0
2, 121320, Note_on_c, 0, 66, 0
2, 121320, Note_on_c, 0, 70, 0
2, 121320, Note_on_c, 0, 75, 0
2, 121320, Note_on_c, 0, 77, 81
2, 121320, Note_on_c, 0, 66, 30
2, 121320, Note_on_c, 0, 70, 30
2, 121320, Note_on_c, 0, 65, 81
2, 121440, Note_on_c, 0, 65, 0
2, 121440, Note_on_c, 0, 77, 0
2, 121440, Note_on_c, 0, 75, 72
2, 121440, Note_on_c, 0, 63, 72
2, 121680, Note_on_c, 0, 63, 0
2, 121680, Note_on_c, 0, 66, 0
2, 121680, Note_on_c, 0, 70, 0
2, 121680, Note_on_c, 0, 75, 0
2, 121680, Note_on_c, 0, 77, 81
2, 121680, Note_on_c, 0, 66, 16
2, 121680, Note_on_c, 0, 70, 16
2, 121680, Note_on_c, 0, 65, 81
2, 121800, Note_on_c, 0, 65, 0
2, 121800, Note_on_c, 0, 77, 0
2, 121800, Note_on_c, 0, 75, 72
2, 121800, Note_on_c, 0, 63, 72
2, 122040, Note_on_c, 0, 63, 0
2, 122040, Note_on_c, 0, 66, 0
2, 122040, Note_on_c, 0, 70, 0
2, 122040, Note_on_c, 0, 75, 0
2, 122040, Note_on_c, 0, 70, 10
2, 122040, Note_on_c, 0, 70, 0
2, 122040, Note_on_c, 0, 74, 93
2, 122220, Note_on_c, 0, 74, 0
2, 122220, Note_on_c, 0, 75, 94
2, 122400, Note_on_c, 0, 75, 0
2, 122400, Note_on_c, 0, 70, 10
2, 122400, Note_on_c, 0, 70, 0
2, 122400, Note_on_c, 0, 77, 95
2, 122400, Note_on_c, 0, 70, 11
2, 122400, Note_on_c, 0, 74, 11
2, 122400, Note_on_c, 0, 65, 95
2, 122520, Note_on_c, 0, 65, 0
2, 122520, Note_on_c, 0, 77, 0
2, 122520, Note_on_c, 0, 79, 95
2, 122520, Note_on_c, 0, 67, 95
2, 122639, Note_on_c, 0, 67, 0
2, 122639, Note_on_c, 0, 79, 0
2, 122639, Note_on_c, 0, 82, 96
2, 122639, Note_on_c, 0, 70, 96
2, 122760, Note_on_c, 0, 74, 0
2, 122760, Note_on_c, 0, 70, 0
2, 122760, Note_on_c, 0, 72, 12
2, 122760, Note_on_c, 0, 78, 12
2, 122880, Note_on_c, 0, 82, 0
2, 122880, Note_on_c, 0, 70, 0
2, 122880, Note_on_c, 0, 81, 97
2, 122880, Note_on_c, 0, 69, 97
2, 122999, Note_on_c, 0, 69, 0
2, 122999, Note_on_c, 0, 81, 0
2, 122999, Note_on_c, 0, 78, 97
2, 122999, Note_on_c, 0, 66, 97
2, 123120, Note_on_c, 0, 66, 0
2, 123120, Note_on_c, 0, 78, 0
2, 123120, Note_on_c, 0, 72, 0
2, 123120, Note_on_c, 0, 78, 0
2, 123120, Note_on_c, 0, 75, 98
2, 123120, Note_on_c, 0, 67, 14
2, 123120, Note_on_c, 0, 70, 14
2, 123120, Note_on_c, 0, 63, 98
2, 123480, Note_on_c, 0, 63, 0
2, 123480, Note_on_c, 0, 75, 0
2, 123480, Note_on_c, 0, 67, 0
2, 123480, Note_on_c, 0, 70, 0
2, 123480, Note_on_c, 0, 78, 99
2, 123480, Note_on_c, 0, 72, 15
2, 123480, Note_on_c, 0, 66, 99
2, 123600, Note_on_c, 0, 66, 0
2, 123600, Note_on_c, 0, 78, 0
2, 123600, Note_on_c, 0, 81, 99
2, 123600, Note_on_c, 0, 69, 99
2, 123719, Note_on_c, 0, 69, 0
2, 123719, Note_on_c, 0, 81, 0
2, 123719, Note_on_c, 0, 84, 100
2, 123719, Note_on_c, 0, 72, 100
2, 123960, Note_on_c, 0, 84, 0
2, 123960, Note_on_c, 0, 72, 0
2, 123960, Note_on_c, 0, 78, 101
2, 123960, Note_on_c, 0, 66, 101
2, 124079, Note_on_c, 0, 66, 0
2, 124079, Note_on_c, 0, 78, 0
2, 124079, Note_on_c, 0, 75, 101
2, 124079, Note_on_c, 0, 63, 101
2, 124200, Note_on_c, 0, 63, 0
2, 124200, Note_on_c, 0, 75, 0
2, 124200, Note_on_c, 0, 72, 0
2, 124200, Note_on_c, 0, 77, 102
2, 124200, Note_on_c, 0, 70, 18
2, 124200, Note_on_c, 0, 74, 18
2, 124200, Note_on_c, 0, 65, 102
2, 124560, Note_on_c, 0, 65, 0
2, 124560, Note_on_c, 0, 77, 0
2, 124560, Note_on_c, 0, 70, 0
2, 124560, Note_on_c, 0, 74, 0
2, 124560, Note_on_c, 0, 81, 103
2, 124560, Note_on_c, 0, 74, 19
2, 124560, Note_on_c, 0, 77, 19
2, 124560, Note_on_c, 0, 69, 103
2, 124680, Note_on_c, 0, 69, 0
2, 124680, Note_on_c, 0, 81, 0
2, 124680, Note_on_c, 0, 82, 104
2, 124680, Note_on_c, 0, 70, 104
2, 124799, Note_on_c, 0, 70, 0
2, 124799, Note_on_c, 0, 82, 0
2, 124799, Note_on_c, 0, 86, 104
2, 124799, Note_on_c, 0, 74, 104
2, 124920, Note_on_c, 0, 77, 0
2, 124920, Note_on_c, 0, 74, 0
2, 124920, Note_on_c, 0, 74, 21
2, 124920, Note_on_c, 0, 77, 21
2, 125040, Note_on_c, 0, 86, 0
2, 125040, Note_on_c, 0, 74, 0
2, 125040, Note_on_c, 0, 84, 105
2, 125040, Note_on_c, 0, 72, 105
2, 125159, Note_on_c, 0, 72, 0
2, 125159, Note_on_c, 0, 84, 0
2, 125159, Note_on_c, 0, 86, 106
2, 125159, Note_on_c, 0, 74, 106
2, 125280, Note_on_c, 0, 74, 0
2, 125280, Note_on_c, 0, 77, 0
2, 125280, Note_on_c, 0, 74, 0
2, 125280, Note_on_c, 0, 86, 0
2, 125280, Note_on_c, 0, 86, 93
2, 125280, Note_on_c, 0, 75, 22
2, 125280, Note_on_c, 0, 78, 22
2, 125280, Note_on_c, 0, 74, 93
2, 125400, Note_on_c, 0, 74, 0
2, 125400, Note_on_c, 0, 86, 0
2, 125400, Note_on_c, 0, 84, 75
2, 125400, Note_on_c, 0, 72, 81
2, 125640, Note_on_c, 0, 72, 0
2, 125640, Note_on_c, 0, 75, 0
2, 125640, Note_on_c, 0, 78, 0
2, 125640, Note_on_c, 0, 84, 0
2, 125640, Note_on_c, 0, 86, 81
2, 125640, Note_on_c, 0, 75, 75
2, 125640, Note_on_c, 0, 78, 75
2, 125640, Note_on_c, 0, 74, 81
2, 125760, Note_on_c, 0, 74, 0
2, 125760, Note_on_c, 0, 86, 0
2, 125760, Note_on_c, 0, 84, 64
2, 125760, Note_on_c, 0, 72, 67
2, 126000, Note_on_c, 0, 72, 0
2, 126000, Note_on_c, 0, 75, 0
2, 126000, Note_on_c, 0, 78, 0
2, 126000, Note_on_c, 0, 84, 0
2, 126000, Note_on_c, 0, 86, 81
2, 126000, Note_on_c, 0, 75, 61
2, 126000, Note_on_c, 0, 78, 61
2, 126000, Note_on_c, 0, 74, 81
2, 126120, Note_on_c, 0, 74, 0
2, 126120, Note_on_c, 0, 86, 0
2, 126120, Note_on_c, 0, 84, 72
2, 126120, Note_on_c, 0, 72, 72
2, 126360, Note_on_c, 0, 72, 0
2, 126360, Note_on_c, 0, 75, 0
2, 126360, Note_on_c, 0, 78, 0
2, 126360, Note_on_c, 0, 84, 0
2, 126360, Note_on_c, 0, 81, 68
2, 126360, Note_on_c, 0, 74, 91
2, 126360, Note_on_c, 0, 78, 91
2, 126360, Note_on_c, 0, 69, 68
2, 126540, Note_on_c, 0, 69, 0
2, 126540, Note_on_c, 0, 81, 0
2, 126540, Note_on_c, 0, 82, 72
2, 126540, Note_on_c, 0, 70, 72
2, 126720, Note_on_c, 0, 70, 0
2, 126720, Note_on_c, 0, 74, 0
2, 126720, Note_on_c, 0, 78, 0
2, 126720, Note_on_c, 0, 82, 0
2, 126720, Note_on_c, 0, 85, 76
2, 126720, Note_on_c, 0, 78, 98
2, 126720, Note_on_c, 0, 82, 98
2, 126720, Note_on_c, 0, 73, 76
2, 126840, Note_on_c, 0, 73, 0
2, 126840, Note_on_c, 0, 85, 0
2, 126840, Note_on_c, 0, 86, 78
2, 126840, Note_on_c, 0, 74, 78
2, 126959, Note_on_c, 0, 74, 0
2, 126959, Note_on_c, 0, 86, 0
2, 126959, Note_on_c, 0, 89, 85
2, 126959, Note_on_c, 0, 77, 87
2, 127080, Note_on_c, 0, 82, 0
2, 127080, Note_on_c, 0, 78, 0
2, 127080, Note_on_c, 0, 78, 107
2, 127080, Note_on_c, 0, 82, 107
2, 127200, Note_on_c, 0, 89, 0
2, 127200, Note_on_c, 0, 77, 0
2, 127200, Note_on_c, 0, 86, 81
2, 127200, Note_on_c, 0, 74, 81
2, 127319, Note_on_c, 0, 74, 0
2, 127319, Note_on_c, 0, 86, 0
2, 127319, Note_on_c, 0, 82, 57
2, 127319, Note_on_c, 0, 70, 64
2, 127440, Note_on_c, 0, 70, 0
2, 127440, Note_on_c, 0, 82, 0
2, 127440, Note_on_c, 0, 78, 0
2, 127440, Note_on_c, 0, 82, 0
2, 127440, Note_on_c, 0, 82, 81
2, 127440, Note_on_c, 0, 72, 81
2, 127440, Note_on_c, 0, 77, 81
2, 127440, Note_on_c, 0, 70, 81
2, 127560, Note_on_c, 0, 70, 0
2, 127560, Note_on_c, 0, 82, 0
2, 127560, Note_on_c, 0, 81, 76
2, 127560, Note_on_c, 0, 69, 76
2, 127800, Note_on_c, 0, 69, 0
2, 127800, Note_on_c, 0, 72, 0
2, 127800, Note_on_c, 0, 77, 0
2, 127800, Note_on_c, 0, 81, 0
2, 127800, Note_on_c, 0, 82, 81
2, 127800, Note_on_c, 0, 72, 75
2, 127800, Note_on_c, 0, 75, 75
2, 127800, Note_on_c, 0, 70, 81
2, 127920, Note_on_c, 0, 70, 0
2, 127920, Note_on_c, 0, 82, 0
2, 127920, Note_on_c, 0, 81, 72
2, 127920, Note_on_c, 0, 69, 72
2, 128160, Note_on_c, 0, 69, 0
2, 128160, Note_on_c, 0, 72, 0
2, 128160, Note_on_c, 0, 75, 0
2, 128160, Note_on_c, 0, 81, 0
2, 128160, Note_on_c, 0, 82, 81
2, 128160, Note_on_c, 0, 72, 67
2, 128160, Note_on_c, 0, 75, 67
2, 128160, Note_on_c, 0, 70, 81
2, 128280, Note_on_c, 0, 70, 0
2, 128280, Note_on_c, 0, 82, 0
2, 128280, Note_on_c, 0, 81, 74
2, 128280, Note_on_c, 0, 69, 74
2, 128520, Note_on_c, 0, 69, 0
2, 128520, Note_on_c, 0, 72, 0
2, 128520, Note_on_c, 0, 75, 0
2, 128520, Note_on_c, 0, 81, 0
2, 128520, Note_on_c, 0, 79, 62
2, 128520, Note_on_c, 0, 70, 92
2, 128520, Note_on_c, 0, 74, 92
2, 128520, Note_on_c, 0, 67, 66
2, 128880, Note_on_c, 0, 67, 0
2, 128880, Note_on_c, 0, 79, 0
2, 128880, Note_on_c, 0, 70, 0
2, 128880, Note_on_c, 0, 74, 0
2, 128880, Note_on_c, 0, 81, 68
2, 128880, Note_on_c, 0, 74, 106
2, 128880, Note_on_c, 0, 79, 106
2, 128880, Note_on_c, 0, 69, 68
2, 129000, Note_on_c, 0, 69, 0
2, 129000, Note_on_c, 0, 81, 0
2, 129000, Note_on_c, 0, 82, 74
2, 129000, Note_on_c, 0, 70, 74
2, 129119, Note_on_c, 0, 70, 0
2, 129119, Note_on_c, 0, 82, 0
2, 129119, Note_on_c, 0, 86, 87
2, 129119, Note_on_c, 0, 74, 90
2, 129240, Note_on_c, 0, 79, 0
2, 129240, Note_on_c, 0, 74, 0
2, 129240, Note_on_c, 0, 74, 112
2, 129240, Note_on_c, 0, 79, 112
2, 129360, Note_on_c, 0, 86, 0
2, 129360, Note_on_c, 0, 74, 0
2, 129360, Note_on_c, 0, 82, 81
2, 129360, Note_on_c, 0, 70, 81
2, 129479, Note_on_c, 0, 70, 0
2, 129479, Note_on_c, 0, 82, 0
2, 129479, Note_on_c, 0, 79, 74
2, 129479, Note_on_c, 0, 67, 74
2, 129600, Note_on_c, 0, 67, 0
2, 129600, Note_on_c, 0, 79, 0
2, 129600, Note_on_c, 0, 74, 0
2, 129600, Note_on_c, 0, 79, 0
2, 129600, Note_on_c, 0, 75, 81
2, 129600, Note_on_c, 0, 66, 77
2, 129600, Note_on_c, 0, 72, 77
2, 129600, Note_on_c, 0, 63, 81
2, 129720, Note_on_c, 0, 63, 0
2, 129720, Note_on_c, 0, 75, 0
2, 129720, Note_on_c, 0, 74, 76
2, 129720, Note_on_c, 0, 62, 76
2, 129960, Note_on_c, 0, 62, 0
2, 129960, Note_on_c, 0, 66, 0
2, 129960, Note_on_c, 0, 72, 0
2, 129960, Note_on_c, 0, 74, 0
2, 129960, Note_on_c, 0, 75, 81
2, 129960, Note_on_c, 0, 66, 79
2, 129960, Note_on_c, 0, 72, 79
2, 129960, Note_on_c, 0, 63, 81
2, 130080, Note_on_c, 0, 63, 0
2, 130080, Note_on_c, 0, 75, 0
2, 130080, Note_on_c, 0, 74, 72
2, 130080, Note_on_c, 0, 62, 72
2, 130320, Note_on_c, 0, 62, 0
2, 130320, Note_on_c, 0, 66, 0
2, 130320, Note_on_c, 0, 72, 0
2, 130320, Note_on_c, 0, 74, 0
2, 130320, Note_on_c, 0, 75, 81
2, 130320, Note_on_c, 0, 66, 71
2, 130320, Note_on_c, 0, 72, 71
2, 130320, Note_on_c, 0, 63, 81
2, 130440, Note_on_c, 0, 63, 0
2, 130440, Note_on_c, 0, 75, 0
2, 130440, Note_on_c, 0, 74, 66
2, 130440, Note_on_c, 0, 62, 64
2, 130680, Note_on_c, 0, 62, 0
2, 130680, Note_on_c, 0, 66, 0
2, 130680, Note_on_c, 0, 72, 0
2, 130680, Note_on_c, 0, 74, 0
2, 130680, Note_on_c, 0, 70, 61
2, 130680, Note_on_c, 0, 67, 87
2, 131040, Note_on_c, 0, 67, 0
2, 131040, Note_on_c, 0, 70, 0
2, 131040, Note_on_c, 0, 73, 68
2, 131040, Note_on_c, 0, 67, 100
2, 131040, Note_on_c, 0, 70, 100
2, 131040, Note_on_c, 0, 61, 64
2, 131160, Note_on_c, 0, 61, 0
2, 131160, Note_on_c, 0, 73, 0
2, 131160, Note_on_c, 0, 74, 71
2, 131160, Note_on_c, 0, 62, 69
2, 131279, Note_on_c, 0, 62, 0
2, 131279, Note_on_c, 0, 74, 0
2, 131279, Note_on_c, 0, 79, 77
2, 131279, Note_on_c, 0, 67, 77
2, 131400, Note_on_c, 0, 70, 0
2, 131400, Note_on_c, 0, 67, 0
2, 131400, Note_on_c, 0, 67, 93
2, 131400, Note_on_c, 0, 70, 93
2, 131520, Note_on_c, 0, 79, 0
2, 131520, Note_on_c, 0, 67, 0
2, 131520, Note_on_c, 0, 75, 62
2, 131520, Note_on_c, 0, 63, 53
2, 131639, Note_on_c, 0, 63, 0
2, 131639, Note_on_c, 0, 75, 0
2, 131639, Note_on_c, 0, 74, 69
2, 131639, Note_on_c, 0, 62, 68
2, 131760, Note_on_c, 0, 62, 0
2, 131760, Note_on_c, 0, 70, 0
2, 131760, Note_on_c, 0, 67, 0
2, 131760, Note_on_c, 0, 74, 0
2, 131760, Note_on_c, 0, 75, 68
2, 131760, Note_on_c, 0, 70, 93
2, 131760, Note_on_c, 0, 63, 68
2, 132120, Note_on_c, 0, 63, 0
2, 132120, Note_on_c, 0, 70, 0
2, 132120, Note_on_c, 0, 75, 0
2, 132120, Note_on_c, 0, 77, 72
2, 132120, Note_on_c, 0, 70, 98
2, 132120, Note_on_c, 0, 75, 98
2, 132120, Note_on_c, 0, 65, 72
2, 132240, Note_on_c, 0, 65, 0
2, 132240, Note_on_c, 0, 77, 0
2, 132240, Note_on_c, 0, 78, 74
2, 132240, Note_on_c, 0, 66, 74
2, 132359, Note_on_c, 0, 66, 0
2, 132359, Note_on_c, 0, 78, 0
2, 132359, Note_on_c, 0, 82, 75
2, 132359, Note_on_c, 0, 70, 75
2, 132480, Note_on_c, 0, 75, 0
2, 132480, Note_on_c, 0, 70, 0
2, 132480, Note_on_c, 0, 70, 102
2, 132480, Note_on_c, 0, 75, 102
2, 132480, Note_on_c, 0, 60, 102
2, 132600, Note_on_c, 0, 82, 0
2, 132600, Note_on_c, 0, 70, 0
2, 132600, Note_on_c, 0, 78, 78
2, 132600, Note_on_c, 0, 66, 78
2, 132719, Note_on_c, 0, 66, 0
2, 132719, Note_on_c, 0, 78, 0
2, 132719, Note_on_c, 0, 75, 79
2, 132719, Note_on_c, 0, 63, 79
2, 132840, Note_on_c, 0, 63, 0
2, 132840, Note_on_c, 0, 60, 0
2, 132840, Note_on_c, 0, 75, 0
2, 132840, Note_on_c, 0, 70, 0
2, 132840, Note_on_c, 0, 75, 0
2, 132840, Note_on_c, 0, 82, 81
2, 132840, Note_on_c, 0, 62, 81
2, 132840, Note_on_c, 0, 70, 81
2, 133200, Note_on_c, 0, 70, 0
2, 133200, Note_on_c, 0, 62, 0
2, 133200, Note_on_c, 0, 82, 0
2, 133200, Note_on_c, 0, 72, 89
2, 133200, Note_on_c, 0, 84, 89
2, 133200, Note_on_c, 0, 63, 106
2, 133200, Note_on_c, 0, 69, 106
2, 133439, Note_on_c, 0, 84, 0
2, 133439, Note_on_c, 0, 72, 0
2, 133439, Note_on_c, 0, 73, 82
2, 133439, Note_on_c, 0, 85, 82
2, 133560, Note_on_c, 0, 85, 0
2, 133560, Note_on_c, 0, 69, 0
2, 133560, Note_on_c, 0, 63, 0
2, 133560, Note_on_c, 0, 73, 0
2, 133560, Note_on_c, 0, 73, 86
2, 133560, Note_on_c, 0, 85, 86
2, 133560, Note_on_c, 0, 64, 96
2, 133560, Note_on_c, 0, 67, 96
2, 133680, Note_on_c, 0, 85, 0
2, 133680, Note_on_c, 0, 73, 0
2, 133680, Note_on_c, 0, 74, 85
2, 133680, Note_on_c, 0, 86, 85
2, 133799, Note_on_c, 0, 86, 0
2, 133799, Note_on_c, 0, 74, 0
2, 133799, Note_on_c, 0, 74, 94
2, 133799, Note_on_c, 0, 86, 94
2, 133905, Note_on_c, 0, 86, 0
2, 133905, Note_on_c, 0, 74, 0
2, 133920, Note_on_c, 0, 64, 0
2, 133920, Note_on_c, 0, 67, 0
2, 133920, Note_on_c, 0, 74, 83
2, 133920, Note_on_c, 0, 86, 83
2, 133920, Note_on_c, 0, 63, 105
2, 133920, Note_on_c, 0, 66, 105
2, 134100, Note_on_c, 0, 66, 0
2, 134100, Note_on_c, 0, 63, 0
2, 134100, Note_on_c, 0, 63, 96
2, 134159, Note_on_c, 0, 86, 0
2, 134159, Note_on_c, 0, 74, 0
2, 134159, Note_on_c, 0, 75, 85
2, 134159, Note_on_c, 0, 87, 85
2, 134280, Note_on_c, 0, 87, 0
2, 134280, Note_on_c, 0, 75, 0
2, 134280, Note_on_c, 0, 63, 0
2, 134280, Note_on_c, 0, 75, 81
2, 134280, Note_on_c, 0, 87, 81
2, 134280, Note_on_c, 0, 63, 103
2, 134400, Note_on_c, 0, 87, 0
2, 134400, Note_on_c, 0, 75, 0
2, 134400, Note_on_c, 0, 77, 83
2, 134400, Note_on_c, 0, 89, 83
2, 134519, Note_on_c, 0, 89, 0
2, 134519, Note_on_c, 0, 77, 0
2, 134519, Note_on_c, 0, 77, 93
2, 134519, Note_on_c, 0, 89, 93
2, 134625, Note_on_c, 0, 89, 0
2, 134625, Note_on_c, 0, 77, 0
2, 134640, Note_on_c, 0, 77, 92
2, 134640, Note_on_c, 0, 89, 92
2, 134744, Note_on_c, 0, 89, 0
2, 134744, Note_on_c, 0, 77, 0
2, 134760, Note_on_c, 0, 76, 89
2, 134760, Note_on_c, 0, 88, 89
2, 134864, Note_on_c, 0, 88, 0
2, 134864, Note_on_c, 0, 76, 0
2, 134879, Note_on_c, 0, 77, 92
2, 134879, Note_on_c, 0, 89, 92
2, 134985, Note_on_c, 0, 89, 0
2, 134985, Note_on_c, 0, 77, 0
2, 135000, Note_on_c, 0, 63, 0
2, 135000, Note_on_c, 0, 82, 90
2, 135000, Note_on_c, 0, 94, 90
2, 135090, Note_on_c, 0, 80, 86
2, 135169, Note_on_c, 0, 80, 0
2, 135180, Note_on_c, 0, 70, 72
2, 135180, Note_on_c, 0, 74, 72
2, 135270, Note_on_c, 0, 74, 0
2, 135270, Note_on_c, 0, 70, 0
2, 135270, Note_on_c, 0, 79, 98
2, 135349, Note_on_c, 0, 79, 0
2, 135360, Note_on_c, 0, 94, 0
2, 135360, Note_on_c, 0, 82, 0
2, 135360, Note_on_c, 0, 86, 70
2, 135360, Note_on_c, 0, 70, 65
2, 135360, Note_on_c, 0, 74, 65
2, 135450, Note_on_c, 0, 74, 0
2, 135450, Note_on_c, 0, 70, 0
2, 135450, Note_on_c, 0, 80, 103
2, 135529, Note_on_c, 0, 80, 0
2, 135540, Note_on_c, 0, 70, 70
2, 135540, Note_on_c, 0, 74, 70
2, 135630, Note_on_c, 0, 74, 0
2, 135630, Note_on_c, 0, 70, 0
2, 135630, Note_on_c, 0, 77, 99
2, 135709, Note_on_c, 0, 77, 0
2, 135720, Note_on_c, 0, 86, 0
2, 135720, Note_on_c, 0, 86, 90
2, 135720, Note_on_c, 0, 70, 76
2, 135720, Note_on_c, 0, 74, 76
2, 135810, Note_on_c, 0, 74, 0
2, 135810, Note_on_c, 0, 70, 0
2, 135810, Note_on_c, 0, 76, 92
2, 135889, Note_on_c, 0, 76, 0
2, 135900, Note_on_c, 0, 70, 78
2, 135900, Note_on_c, 0, 74, 78
2, 135990, Note_on_c, 0, 74, 0
2, 135990, Note_on_c, 0, 70, 0
2, 135990, Note_on_c, 0, 79, 104
2, 136037, Note_on_c, 0, 86, 0
2, 136069, Note_on_c, 0, 79, 0
2, 136080, Note_on_c, 0, 82, 107
2, 136080, Note_on_c, 0, 94, 107
2, 136080, Note_on_c, 0, 70, 67
2, 136080, Note_on_c, 0, 73, 67
2, 136170, Note_on_c, 0, 73, 0
2, 136170, Note_on_c, 0, 70, 0
2, 136170, Note_on_c, 0, 80, 106
2, 136249, Note_on_c, 0, 80, 0
2, 136260, Note_on_c, 0, 70, 70
2, 136260, Note_on_c, 0, 73, 70
2, 136350, Note_on_c, 0, 73, 0
2, 136350, Note_on_c, 0, 70, 0
2, 136350, Note_on_c, 0, 79, 101
2, 136397, Note_on_c, 0, 94, 0
2, 136397, Note_on_c, 0, 82, 0
2, 136429, Note_on_c, 0, 79, 0
2, 136440, Note_on_c, 0, 92, 78
2, 136440, Note_on_c, 0, 70, 70
2, 136440, Note_on_c, 0, 73, 70
2, 136530, Note_on_c, 0, 73, 0
2, 136530, Note_on_c, 0, 70, 0
2, 136530, Note_on_c, 0, 80, 105
2, 136609, Note_on_c, 0, 80, 0
2, 136620, Note_on_c, 0, 92, 0
2, 136620, Note_on_c, 0, 85, 68
2, 136620, Note_on_c, 0, 70, 72
2, 136620, Note_on_c, 0, 73, 72
2, 136710, Note_on_c, 0, 73, 0
2, 136710, Note_on_c, 0, 70, 0
2, 136710, Note_on_c, 0, 76, 94
2, 136789, Note_on_c, 0, 76, 0
2, 136800, Note_on_c, 0, 85, 0
2, 136800, Note_on_c, 0, 85, 89
2, 136800, Note_on_c, 0, 70, 74
2, 136800, Note_on_c, 0, 73, 74
2, 136890, Note_on_c, 0, 73, 0
2, 136890, Note_on_c, 0, 70, 0
2, 136890, Note_on_c, 0, 75, 98
2, 136969, Note_on_c, 0, 75, 0
2, 136980, Note_on_c, 0, 70, 74
2, 136980, Note_on_c, 0, 73, 74
2, 137070, Note_on_c, 0, 73, 0
2, 137070, Note_on_c, 0, 70, 0
2, 137070, Note_on_c, 0, 76, 98
2, 137117, Note_on_c, 0, 85, 0
2, 137149, Note_on_c, 0, 76, 0
2, 137160, Note_on_c, 0, 81, 98
2, 137160, Note_on_c, 0, 93, 98
2, 137160, Note_on_c, 0, 69, 71
2, 137160, Note_on_c, 0, 72, 71
2, 137250, Note_on_c, 0, 72, 0
2, 137250, Note_on_c, 0, 69, 0
2, 137250, Note_on_c, 0, 78, 106
2, 137329, Note_on_c, 0, 78, 0
2, 137340, Note_on_c, 0, 69, 71
2, 137340, Note_on_c, 0, 72, 71
2, 137430, Note_on_c, 0, 72, 0
2, 137430, Note_on_c, 0, 69, 0
2, 137430, Note_on_c, 0, 77, 101
2, 137509, Note_on_c, 0, 77, 0
2, 137520, Note_on_c, 0, 93, 0
2, 137520, Note_on_c, 0, 81, 0
2, 137520, Note_on_c, 0, 84, 71
2, 137520, Note_on_c, 0, 69, 73
2, 137520, Note_on_c, 0, 72, 73
2, 137610, Note_on_c, 0, 72, 0
2, 137610, Note_on_c, 0, 69, 0
2, 137610, Note_on_c, 0, 78, 102
2, 137689, Note_on_c, 0, 78, 0
2, 137700, Note_on_c, 0, 69, 71
2, 137700, Note_on_c, 0, 72, 71
2, 137790, Note_on_c, 0, 72, 0
2, 137790, Note_on_c, 0, 69, 0
2, 137790, Note_on_c, 0, 75, 101
2, 137869, Note_on_c, 0, 75, 0
2, 137880, Note_on_c, 0, 84, 0
2, 137880, Note_on_c, 0, 84, 91
2, 137880, Note_on_c, 0, 69, 77
2, 137880, Note_on_c, 0, 72, 77
2, 137970, Note_on_c, 0, 72, 0
2, 137970, Note_on_c, 0, 69, 0
2, 137970, Note_on_c, 0, 74, 93
2, 138049, Note_on_c, 0, 74, 0
2, 138060, Note_on_c, 0, 69, 74
2, 138060, Note_on_c, 0, 72, 74
2, 138150, Note_on_c, 0, 72, 0
2, 138150, Note_on_c, 0, 69, 0
2, 138150, Note_on_c, 0, 75, 100
2, 138197, Note_on_c, 0, 84, 0
2, 138229, Note_on_c, 0, 75, 0
2, 138240, Note_on_c, 0, 80, 107
2, 138240, Note_on_c, 0, 92, 107
2, 138240, Note_on_c, 0, 68, 71
2, 138240, Note_on_c, 0, 71, 71
2, 138330, Note_on_c, 0, 71, 0
2, 138330, Note_on_c, 0, 68, 0
2, 138330, Note_on_c, 0, 78, 101
2, 138409, Note_on_c, 0, 78, 0
2, 138420, Note_on_c, 0, 68, 74
2, 138420, Note_on_c, 0, 71, 74
2, 138510, Note_on_c, 0, 71, 0
2, 138510, Note_on_c, 0, 68, 0
2, 138510, Note_on_c, 0, 77, 96
2, 138557, Note_on_c, 0, 92, 0
2, 138557, Note_on_c, 0, 80, 0
2, 138589, Note_on_c, 0, 77, 0
2, 138600, Note_on_c, 0, 87, 88
2, 138600, Note_on_c, 0, 68, 76
2, 138600, Note_on_c, 0, 71, 76
2, 138690, Note_on_c, 0, 71, 0
2, 138690, Note_on_c, 0, 68, 0
2, 138690, Note_on_c, 0, 78, 105
2, 138758, Note_on_c, 0, 87, 0
2, 138769, Note_on_c, 0, 78, 0
2, 138780, Note_on_c, 0, 83, 71
2, 138780, Note_on_c, 0, 68, 65
2, 138780, Note_on_c, 0, 71, 65
2, 138870, Note_on_c, 0, 71, 0
2, 138870, Note_on_c, 0, 68, 0
2, 138870, Note_on_c, 0, 75, 95
2, 138949, Note_on_c, 0, 75, 0
2, 138960, Note_on_c, 0, 83, 0
2, 138960, Note_on_c, 0, 83, 87
2, 138960, Note_on_c, 0, 68, 77
2, 138960, Note_on_c, 0, 71, 77
2, 139050, Note_on_c, 0, 71, 0
2, 139050, Note_on_c, 0, 68, 0
2, 139050, Note_on_c, 0, 74, 97
2, 139129, Note_on_c, 0, 74, 0
2, 139140, Note_on_c, 0, 68, 76
2, 139140, Note_on_c, 0, 71, 76
2, 139230, Note_on_c, 0, 71, 0
2, 139230, Note_on_c, 0, 68, 0
2, 139230, Note_on_c, 0, 75, 102
2, 139277, Note_on_c, 0, 83, 0
2, 139309, Note_on_c, 0, 75, 0
2, 139320, Note_on_c, 0, 79, 103
2, 139320, Note_on_c, 0, 91, 103
2, 139320, Note_on_c, 0, 67, 64
2, 139410, Note_on_c, 0, 67, 0
2, 139410, Note_on_c, 0, 76, 109
2, 139489, Note_on_c, 0, 76, 0
2, 139500, Note_on_c, 0, 67, 70
2, 139590, Note_on_c, 0, 67, 0
2, 139590, Note_on_c, 0, 75, 104
2, 139637, Note_on_c, 0, 91, 0
2, 139637, Note_on_c, 0, 79, 0
2, 139669, Note_on_c, 0, 75, 0
2, 139680, Note_on_c, 0, 82, 68
2, 139680, Note_on_c, 0, 67, 77
2, 139770, Note_on_c, 0, 67, 0
2, 139770, Note_on_c, 0, 76, 105
2, 139849, Note_on_c, 0, 76, 0
2, 139860, Note_on_c, 0, 67, 65
2, 139950, Note_on_c, 0, 67, 0
2, 139950, Note_on_c, 0, 73, 108
2, 140029, Note_on_c, 0, 73, 0
2, 140040, Note_on_c, 0, 82, 0
2, 140040, Note_on_c, 0, 82, 88
2, 140040, Note_on_c, 0, 67, 69
2, 140130, Note_on_c, 0, 67, 0
2, 140130, Note_on_c, 0, 72, 102
2, 140209, Note_on_c, 0, 72, 0
2, 140220, Note_on_c, 0, 67, 72
2, 140310, Note_on_c, 0, 67, 0
2, 140310, Note_on_c, 0, 73, 101
2, 140357, Note_on_c, 0, 82, 0
2, 140389, Note_on_c, 0, 73, 0
2, 140400, Note_on_c, 0, 78, 102
2, 140400, Note_on_c, 0, 90, 102
2, 140400, Note_on_c, 0, 66, 71
2, 140490, Note_on_c, 0, 66, 0
2, 140490, Note_on_c, 0, 76, 111
2, 140569, Note_on_c, 0, 76, 0
2, 140580, Note_on_c, 0, 66, 67
2, 140670, Note_on_c, 0, 66, 0
2, 140670, Note_on_c, 0, 75, 102
2, 140717, Note_on_c, 0, 90, 0
2, 140717, Note_on_c, 0, 78, 0
2, 140749, Note_on_c, 0, 75, 0
2, 140760, Note_on_c, 0, 82, 68
2, 140760, Note_on_c, 0, 66, 70
2, 140850, Note_on_c, 0, 66, 0
2, 140850, Note_on_c, 0, 76, 110
2, 140929, Note_on_c, 0, 76, 0
2, 140940, Note_on_c, 0, 66, 67
2, 141030, Note_on_c, 0, 66, 0
2, 141030, Note_on_c, 0, 73, 100
2, 141109, Note_on_c, 0, 73, 0
2, 141120, Note_on_c, 0, 82, 0
2, 141120, Note_on_c, 0, 82, 91
2, 141120, Note_on_c, 0, 66, 70
2, 141210, Note_on_c, 0, 66, 0
2, 141210, Note_on_c, 0, 72, 102
2, 141289, Note_on_c, 0, 72, 0
2, 141300, Note_on_c, 0, 66, 71
2, 141390, Note_on_c, 0, 66, 0
2, 141390, Note_on_c, 0, 73, 104
2, 141437, Note_on_c, 0, 82, 0
2, 141469, Note_on_c, 0, 73, 0
2, 141480, Note_on_c, 0, 78, 106
2, 141480, Note_on_c, 0, 90, 106
2, 141480, Note_on_c, 0, 66, 67
2, 141570, Note_on_c, 0, 66, 0
2, 141570, Note_on_c, 0, 75, 109
2, 141649, Note_on_c, 0, 75, 0
2, 141660, Note_on_c, 0, 66, 66
2, 141750, Note_on_c, 0, 66, 0
2, 141750, Note_on_c, 0, 74, 104
2, 141797, Note_on_c, 0, 90, 0
2, 141797, Note_on_c, 0, 78, 0
2, 141829, Note_on_c, 0, 74, 0
2, 141840, Note_on_c, 0, 87, 79
2, 141840, Note_on_c, 0, 66, 65
2, 141930, Note_on_c, 0, 66, 0
2, 141930, Note_on_c, 0, 75, 106
2, 142009, Note_on_c, 0, 75, 0
2, 142020, Note_on_c, 0, 87, 0
2, 142020, Note_on_c, 0, 81, 72
2, 142020, Note_on_c, 0, 66, 62
2, 142110, Note_on_c, 0, 66, 0
2, 142110, Note_on_c, 0, 72, 105
2, 142189, Note_on_c, 0, 72, 0
2, 142200, Note_on_c, 0, 81, 0
2, 142200, Note_on_c, 0, 81, 88
2, 142200, Note_on_c, 0, 66, 71
2, 142290, Note_on_c, 0, 66, 0
2, 142290, Note_on_c, 0, 71, 95
2, 142369, Note_on_c, 0, 71, 0
2, 142380, Note_on_c, 0, 66, 73
2, 142470, Note_on_c, 0, 66, 0
2, 142470, Note_on_c, 0, 72, 101
2, 142517, Note_on_c, 0, 81, 0
2, 142549, Note_on_c, 0, 72, 0
2, 142560, Note_on_c, 0, 77, 97
2, 142560, Note_on_c, 0, 89, 97
2, 142560, Note_on_c, 0, 65, 65
2, 142650, Note_on_c, 0, 65, 0
2, 142650, Note_on_c, 0, 74, 106
2, 142729, Note_on_c, 0, 74, 0
2, 142740, Note_on_c, 0, 89, 0
2, 142740, Note_on_c, 0, 77, 0
2, 142740, Note_on_c, 0, 82, 67
2, 142740, Note_on_c, 0, 65, 64
2, 142830, Note_on_c, 0, 65, 0
2, 142830, Note_on_c, 0, 73, 109
2, 142909, Note_on_c, 0, 73, 0
2, 142920, Note_on_c, 0, 82, 0
2, 142920, Note_on_c, 0, 77, 81
2, 142920, Note_on_c, 0, 89, 81
2, 142920, Note_on_c, 0, 65, 81
2, 143010, Note_on_c, 0, 65, 0
2, 143010, Note_on_c, 0, 74, 82
2, 143089, Note_on_c, 0, 74, 0
2, 143100, Note_on_c, 0, 65, 84
2, 143100, Note_on_c, 0, 70, 84
2, 143190, Note_on_c, 0, 70, 0
2, 143190, Note_on_c, 0, 65, 0
2, 143190, Note_on_c, 0, 77, 86
2, 143269, Note_on_c, 0, 77, 0
2, 143280, Note_on_c, 0, 77, 0
2, 143280, Note_on_c, 0, 89, 0
2, 143280, Note_on_c, 0, 70, 88
2, 143280, Note_on_c, 0, 74, 88
2, 143370, Note_on_c, 0, 74, 0
2, 143370, Note_on_c, 0, 70, 0
2, 143370, Note_on_c, 0, 80, 90
2, 143370, Note_on_c, 0, 68, 90
2, 143449, Note_on_c, 0, 68, 0
2, 143449, Note_on_c, 0, 80, 0
2, 143460, Note_on_c, 0, 77, 92
2, 143460, Note_on_c, 0, 74, 92
2, 143550, Note_on_c, 0, 74, 0
2, 143550, Note_on_c, 0, 77, 0
2, 143550, Note_on_c, 0, 82, 115
2, 143550, Note_on_c, 0, 70, 102
2, 143629, Note_on_c, 0, 70, 0
2, 143629, Note_on_c, 0, 82, 0
2, 143640, Note_on_c, 0, 77, 108
2, 143640, Note_on_c, 0, 74, 127
2, 143730, Note_on_c, 0, 74, 0
2, 143730, Note_on_c, 0, 77, 0
2, 143730, Note_on_c, 0, 83, 127
2, 143730, Note_on_c, 0, 71, 123
2, 143809, Note_on_c, 0, 71, 0
2, 143809, Note_on_c, 0, 83, 0
2, 143820, Note_on_c, 0, 77, 107
2, 143820, Note_on_c, 0, 74, 127
2, 143910, Note_on_c, 0, 74, 0
2, 143910, Note_on_c, 0, 77, 0
2, 143910, Note_on_c, 0, 82, 127
2, 143910, Note_on_c, 0, 70, 120
2, 143989, Note_on_c, 0, 70, 0
2, 143989, Note_on_c, 0, 82, 0
2, 144000, Note_on_c, 0, 77, 104
2, 144000, Note_on_c, 0, 74, 127
2, 144090, Note_on_c, 0, 74, 0
2, 144090, Note_on_c, 0, 77, 0
2, 144090, Note_on_c, 0, 83, 127
2, 144090, Note_on_c, 0, 71, 127
2, 144169, Note_on_c, 0, 71, 0
2, 144169, Note_on_c, 0, 83, 0
2, 144180, Note_on_c, 0, 77, 108
2, 144180, Note_on_c, 0, 74, 127
2, 144270, Note_on_c, 0, 74, 0
2, 144270, Note_on_c, 0, 77, 0
2, 144270, Note_on_c, 0, 80, 127
2, 144270, Note_on_c, 0, 68, 123
2, 144349, Note_on_c, 0, 68, 0
2, 144349, Note_on_c, 0, 80, 0
2, 144360, Note_on_c, 0, 77, 118
2, 144360, Note_on_c, 0, 74, 127
2, 144450, Note_on_c, 0, 74, 0
2, 144450, Note_on_c, 0, 77, 0
2, 144450, Note_on_c, 0, 79, 127
2, 144450, Note_on_c, 0, 67, 111
2, 144529, Note_on_c, 0, 67, 0
2, 144529, Note_on_c, 0, 79, 0
2, 144540, Note_on_c, 0, 77, 119
2, 144540, Note_on_c, 0, 74, 127
2, 144630, Note_on_c, 0, 74, 0
2, 144630, Note_on_c, 0, 77, 0
2, 144630, Note_on_c, 0, 80, 127
2, 144630, Note_on_c, 0, 68, 122
2, 144709, Note_on_c, 0, 68, 0
2, 144709, Note_on_c, 0, 80, 0
2, 144720, Note_on_c, 0, 76, 108
2, 144720, Note_on_c, 0, 73, 127
2, 144810, Note_on_c, 0, 73, 0
2, 144810, Note_on_c, 0, 76, 0
2, 144810, Note_on_c, 0, 82, 127
2, 144810, Note_on_c, 0, 70, 120
2, 144889, Note_on_c, 0, 70, 0
2, 144889, Note_on_c, 0, 82, 0
2, 144900, Note_on_c, 0, 76, 111
2, 144900, Note_on_c, 0, 73, 127
2, 144990, Note_on_c, 0, 73, 0
2, 144990, Note_on_c, 0, 76, 0
2, 144990, Note_on_c, 0, 80, 127
2, 144990, Note_on_c, 0, 68, 119
2, 145069, Note_on_c, 0, 68, 0
2, 145069, Note_on_c, 0, 80, 0
2, 145080, Note_on_c, 0, 76, 111
2, 145080, Note_on_c, 0, 73, 127
2, 145170, Note_on_c, 0, 73, 0
2, 145170, Note_on_c, 0, 76, 0
2, 145170, Note_on_c, 0, 82, 127
2, 145170, Note_on_c, 0, 70, 127
2, 145249, Note_on_c, 0, 70, 0
2, 145249, Note_on_c, 0, 82, 0
2, 145260, Note_on_c, 0, 76, 108
2, 145260, Note_on_c, 0, 73, 127
2, 145350, Note_on_c, 0, 73, 0
2, 145350, Note_on_c, 0, 76, 0
2, 145350, Note_on_c, 0, 79, 127
2, 145350, Note_on_c, 0, 67, 124
2, 145429, Note_on_c, 0, 67, 0
2, 145429, Note_on_c, 0, 79, 0
2, 145440, Note_on_c, 0, 76, 115
2, 145440, Note_on_c, 0, 73, 127
2, 145530, Note_on_c, 0, 73, 0
2, 145530, Note_on_c, 0, 76, 0
2, 145530, Note_on_c, 0, 78, 127
2, 145530, Note_on_c, 0, 66, 119
2, 145609, Note_on_c, 0, 66, 0
2, 145609, Note_on_c, 0, 78, 0
2, 145620, Note_on_c, 0, 76, 116
2, 145620, Note_on_c, 0, 73, 127
2, 145710, Note_on_c, 0, 73, 0
2, 145710, Note_on_c, 0, 76, 0
2, 145710, Note_on_c, 0, 79, 127
2, 145710, Note_on_c, 0, 67, 115
2, 145789, Note_on_c, 0, 67, 0
2, 145789, Note_on_c, 0, 79, 0
2, 145800, Note_on_c, 0, 75, 115
2, 145800, Note_on_c, 0, 72, 127
2, 145890, Note_on_c, 0, 72, 0
2, 145890, Note_on_c, 0, 75, 0
2, 145890, Note_on_c, 0, 81, 127
2, 145890, Note_on_c, 0, 69, 126
2, 145969, Note_on_c, 0, 69, 0
2, 145969, Note_on_c, 0, 81, 0
2, 145980, Note_on_c, 0, 75, 107
2, 145980, Note_on_c, 0, 72, 127
2, 146070, Note_on_c, 0, 72, 0
2, 146070, Note_on_c, 0, 75, 0
2, 146070, Note_on_c, 0, 80, 127
2, 146070, Note_on_c, 0, 68, 122
2, 146149, Note_on_c, 0, 68, 0
2, 146149, Note_on_c, 0, 80, 0
2, 146160, Note_on_c, 0, 75, 106
2, 146160, Note_on_c, 0, 72, 127
2, 146250, Note_on_c, 0, 72, 0
2, 146250, Note_on_c, 0, 75, 0
2, 146250, Note_on_c, 0, 81, 127
2, 146250, Note_on_c, 0, 69, 127
2, 146329, Note_on_c, 0, 69, 0
2, 146329, Note_on_c, 0, 81, 0
2, 146340, Note_on_c, 0, 75, 107
2, 146340, Note_on_c, 0, 72, 127
2, 146430, Note_on_c, 0, 72, 0
2, 146430, Note_on_c, 0, 75, 0
2, 146430, Note_on_c, 0, 78, 127
2, 146430, Note_on_c, 0, 66, 118
2, 146509, Note_on_c, 0, 66, 0
2, 146509, Note_on_c, 0, 78, 0
2, 146520, Note_on_c, 0, 75, 114
2, 146520, Note_on_c, 0, 72, 127
2, 146610, Note_on_c, 0, 72, 0
2, 146610, Note_on_c, 0, 75, 0
2, 146610, Note_on_c, 0, 77, 127
2, 146610, Note_on_c, 0, 65, 115
2, 146689, Note_on_c, 0, 65, 0
2, 146689, Note_on_c, 0, 77, 0
2, 146700, Note_on_c, 0, 75, 113
2, 146700, Note_on_c, 0, 72, 127
2, 146790, Note_on_c, 0, 72, 0
2, 146790, Note_on_c, 0, 75, 0
2, 146790, Note_on_c, 0, 78, 127
2, 146790, Note_on_c, 0, 66, 118
2, 146869, Note_on_c, 0, 66, 0
2, 146869, Note_on_c, 0, 78, 0
2, 146880, Note_on_c, 0, 75, 113
2, 146880, Note_on_c, 0, 71, 127
2, 146970, Note_on_c, 0, 71, 0
2, 146970, Note_on_c, 0, 75, 0
2, 146970, Note_on_c, 0, 80, 127
2, 146970, Note_on_c, 0, 68, 125
2, 147049, Note_on_c, 0, 68, 0
2, 147049, Note_on_c, 0, 80, 0
2, 147060, Note_on_c, 0, 75, 107
2, 147060, Note_on_c, 0, 71, 127
2, 147150, Note_on_c, 0, 71, 0
2, 147150, Note_on_c, 0, 75, 0
2, 147150, Note_on_c, 0, 78, 127
2, 147150, Note_on_c, 0, 66, 116
2, 147229, Note_on_c, 0, 66, 0
2, 147229, Note_on_c, 0, 78, 0
2, 147240, Note_on_c, 0, 75, 118
2, 147240, Note_on_c, 0, 71, 127
2, 147330, Note_on_c, 0, 71, 0
2, 147330, Note_on_c, 0, 75, 0
2, 147330, Note_on_c, 0, 80, 127
2, 147330, Note_on_c, 0, 68, 123
2, 147409, Note_on_c, 0, 68, 0
2, 147409, Note_on_c, 0, 80, 0
2, 147420, Note_on_c, 0, 75, 108
2, 147420, Note_on_c, 0, 71, 127
2, 147510, Note_on_c, 0, 71, 0
2, 147510, Note_on_c, 0, 75, 0
2, 147510, Note_on_c, 0, 77, 127
2, 147510, Note_on_c, 0, 65, 113
2, 147589, Note_on_c, 0, 65, 0
2, 147589, Note_on_c, 0, 77, 0
2, 147600, Note_on_c, 0, 75, 122
2, 147600, Note_on_c, 0, 71, 127
2, 147690, Note_on_c, 0, 71, 0
2, 147690, Note_on_c, 0, 75, 0
2, 147690, Note_on_c, 0, 75, 127
2, 147690, Note_on_c, 0, 63, 116
2, 147769, Note_on_c, 0, 63, 0
2, 147769, Note_on_c, 0, 75, 0
2, 147780, Note_on_c, 0, 75, 123
2, 147780, Note_on_c, 0, 71, 127
2, 147870, Note_on_c, 0, 71, 0
2, 147870, Note_on_c, 0, 75, 0
2, 147870, Note_on_c, 0, 77, 127
2, 147870, Note_on_c, 0, 65, 123
2, 147949, Note_on_c, 0, 65, 0
2, 147949, Note_on_c, 0, 77, 0
2, 147960, Note_on_c, 0, 73, 114
2, 147960, Note_on_c, 0, 70, 127
2, 148050, Note_on_c, 0, 70, 0
2, 148050, Note_on_c, 0, 73, 0
2, 148050, Note_on_c, 0, 79, 127
2, 148050, Note_on_c, 0, 67, 127
2, 148129, Note_on_c, 0, 67, 0
2, 148129, Note_on_c, 0, 79, 0
2, 148140, Note_on_c, 0, 73, 106
2, 148140, Note_on_c, 0, 70, 127
2, 148230, Note_on_c, 0, 70, 0
2, 148230, Note_on_c, 0, 73, 0
2, 148230, Note_on_c, 0, 78, 127
2, 148230, Note_on_c, 0, 66, 123
2, 148309, Note_on_c, 0, 66, 0
2, 148309, Note_on_c, 0, 78, 0
2, 148320, Note_on_c, 0, 73, 110
2, 148320, Note_on_c, 0, 70, 127
2, 148410, Note_on_c, 0, 70, 0
2, 148410, Note_on_c, 0, 73, 0
2, 148410, Note_on_c, 0, 79, 127
2, 148410, Note_on_c, 0, 67, 127
2, 148489, Note_on_c, 0, 67, 0
2, 148489, Note_on_c, 0, 79, 0
2, 148500, Note_on_c, 0, 73, 102
2, 148500, Note_on_c, 0, 70, 125
2, 148590, Note_on_c, 0, 70, 0
2, 148590, Note_on_c, 0, 73, 0
2, 148590, Note_on_c, 0, 76, 127
2, 148590, Note_on_c, 0, 64, 120
2, 148669, Note_on_c, 0, 64, 0
2, 148669, Note_on_c, 0, 76, 0
2, 148680, Note_on_c, 0, 73, 113
2, 148680, Note_on_c, 0, 70, 127
2, 148770, Note_on_c, 0, 70, 0
2, 148770, Note_on_c, 0, 73, 0
2, 148770, Note_on_c, 0, 75, 127
2, 148770, Note_on_c, 0, 63, 118
2, 148849, Note_on_c, 0, 63, 0
2, 148849, Note_on_c, 0, 75, 0
2, 148860, Note_on_c, 0, 73, 117
2, 148860, Note_on_c, 0, 70, 127
2, 148950, Note_on_c, 0, 70, 0
2, 148950, Note_on_c, 0, 73, 0
2, 148950, Note_on_c, 0, 76, 127
2, 148950, Note_on_c, 0, 64, 121
2, 149029, Note_on_c, 0, 64, 0
2, 149029, Note_on_c, 0, 76, 0
2, 149040, Note_on_c, 0, 73, 116
2, 149040, Note_on_c, 0, 70, 127
2, 149130, Note_on_c, 0, 70, 0
2, 149130, Note_on_c, 0, 73, 0
2, 149130, Note_on_c, 0, 78, 127
2, 149130, Note_on_c, 0, 66, 123
2, 149209, Note_on_c, 0, 66, 0
2, 149209, Note_on_c, 0, 78, 0
2, 149220, Note_on_c, 0, 73, 115
2, 149220, Note_on_c, 0, 70, 127
2, 149310, Note_on_c, 0, 70, 0
2, 149310, Note_on_c, 0, 73, 0
2, 149310, Note_on_c, 0, 76, 127
2, 149310, Note_on_c, 0, 64, 116
2, 149389, Note_on_c, 0, 64, 0
2, 149389, Note_on_c, 0, 76, 0
2, 149400, Note_on_c, 0, 73, 109
2, 149400, Note_on_c, 0, 70, 127
2, 149490, Note_on_c, 0, 70, 0
2, 149490, Note_on_c, 0, 73, 0
2, 149490, Note_on_c, 0, 78, 127
2, 149490, Note_on_c, 0, 66, 124
2, 149569, Note_on_c, 0, 66, 0
2, 149569, Note_on_c, 0, 78, 0
2, 149580, Note_on_c, 0, 73, 112
2, 149580, Note_on_c, 0, 70, 127
2, 149670, Note_on_c, 0, 70, 0
2, 149670, Note_on_c, 0, 73, 0
2, 149670, Note_on_c, 0, 76, 127
2, 149670, Note_on_c, 0, 64, 115
2, 149749, Note_on_c, 0, 64, 0
2, 149749, Note_on_c, 0, 76, 0
2, 149760, Note_on_c, 0, 73, 110
2, 149760, Note_on_c, 0, 70, 127
2, 149850, Note_on_c, 0, 70, 0
2, 149850, Note_on_c, 0, 73, 0
2, 149850, Note_on_c, 0, 75, 127
2, 149850, Note_on_c, 0, 63, 114
2, 149929, Note_on_c, 0, 63, 0
2, 149929, Note_on_c, 0, 75, 0
2, 149940, Note_on_c, 0, 73, 113
2, 149940, Note_on_c, 0, 70, 127
2, 150030, Note_on_c, 0, 70, 0
2, 150030, Note_on_c, 0, 73, 0
2, 150030, Note_on_c, 0, 76, 127
2, 150030, Note_on_c, 0, 64, 117
2, 150109, Note_on_c, 0, 64, 0
2, 150109, Note_on_c, 0, 76, 0
2, 150120, Note_on_c, 0, 72, 123
2, 150120, Note_on_c, 0, 69, 123
2, 150210, Note_on_c, 0, 69, 0
2, 150210, Note_on_c, 0, 72, 0
2, 150210, Note_on_c, 0, 78, 121
2, 150210, Note_on_c, 0, 66, 121
2, 150289, Note_on_c, 0, 66, 0
2, 150289, Note_on_c, 0, 78, 0
2, 150300, Note_on_c, 0, 72, 120
2, 150300, Note_on_c, 0, 69, 120
2, 150390, Note_on_c, 0, 69, 0
2, 150390, Note_on_c, 0, 72, 0
2, 150390, Note_on_c, 0, 77, 119
2, 150390, Note_on_c, 0, 65, 119
2, 150469, Note_on_c, 0, 65, 0
2, 150469, Note_on_c, 0, 77, 0
2, 150480, Note_on_c, 0, 72, 118
2, 150480, Note_on_c, 0, 69, 118
2, 150570, Note_on_c, 0, 69, 0
2, 150570, Note_on_c, 0, 72, 0
2, 150570, Note_on_c, 0, 78, 117
2, 150570, Note_on_c, 0, 66, 117
2, 150649, Note_on_c, 0, 66, 0
2, 150649, Note_on_c, 0, 78, 0
2, 150660, Note_on_c, 0, 72, 116
2, 150660, Note_on_c, 0, 69, 116
2, 150750, Note_on_c, 0, 69, 0
2, 150750, Note_on_c, 0, 72, 0
2, 150750, Note_on_c, 0, 75, 115
2, 150750, Note_on_c, 0, 63, 115
2, 150829, Note_on_c, 0, 63, 0
2, 150829, Note_on_c, 0, 75, 0
2, 150840, Note_on_c, 0, 72, 114
2, 150840, Note_on_c, 0, 69, 114
2, 150930, Note_on_c, 0, 69, 0
2, 150930, Note_on_c, 0, 72, 0
2, 150930, Note_on_c, 0, 74, 113
2, 150930, Note_on_c, 0, 62, 113
2, 151009, Note_on_c, 0, 62, 0
2, 151009, Note_on_c, 0, 74, 0
2, 151020, Note_on_c, 0, 72, 112
2, 151020, Note_on_c, 0, 69, 112
2, 151110, Note_on_c, 0, 69, 0
2, 151110, Note_on_c, 0, 72, 0
2, 151110, Note_on_c, 0, 75, 111
2, 151110, Note_on_c, 0, 63, 111
2, 151189, Note_on_c, 0, 63, 0
2, 151189, Note_on_c, 0, 75, 0
2, 151200, Note_on_c, 0, 70, 110
2, 151200, Note_on_c, 0, 65, 110
2, 151290, Note_on_c, 0, 65, 0
2, 151290, Note_on_c, 0, 70, 0
2, 151290, Note_on_c, 0, 77, 127
2, 151290, Note_on_c, 0, 65, 127
2, 151369, Note_on_c, 0, 77, 0
2, 151380, Note_on_c, 0, 70, 101
2, 151470, Note_on_c, 0, 70, 0
2, 151470, Note_on_c, 0, 65, 0
2, 151470, Note_on_c, 0, 76, 127
2, 151470, Note_on_c, 0, 64, 118
2, 151549, Note_on_c, 0, 76, 0
2, 151560, Note_on_c, 0, 70, 95
2, 151650, Note_on_c, 0, 70, 0
2, 151650, Note_on_c, 0, 64, 0
2, 151650, Note_on_c, 0, 77, 127
2, 151650, Note_on_c, 0, 65, 111
2, 151729, Note_on_c, 0, 77, 0
2, 151740, Note_on_c, 0, 65, 0
2, 151920, Note_on_c, 0, 63, 108
2, 152078, Note_on_c, 0, 63, 0
2, 152100, Note_on_c, 0, 65, 127
2, 152258, Note_on_c, 0, 65, 0
2, 152280, Note_on_c, 0, 70, 90
2, 152460, Note_on_c, 0, 62, 68
2, 152597, Note_on_c, 0, 70, 0
2, 152640, Note_on_c, 0, 62, 0
2, 152640, Note_on_c, 0, 70, 82
2, 152640, Note_on_c, 0, 63, 70
2, 152820, Note_on_c, 0, 63, 0
2, 152820, Note_on_c, 0, 65, 74
2, 153000, Note_on_c, 0, 65, 0
2, 153000, Note_on_c, 0, 66, 77
2, 153180, Note_on_c, 0, 66, 0
2, 153180, Note_on_c, 0, 69, 80
2, 153360, Note_on_c, 0, 69, 0
2, 153360, Note_on_c, 0, 70, 83
2, 153540, Note_on_c, 0, 70, 0
2, 153540, Note_on_c, 0, 67, 67
2, 153720, Note_on_c, 0, 67, 0
2, 153720, Note_on_c, 0, 70, 0
2, 153720, Note_on_c, 0, 70, 88
2, 154560, Note_on_c, 0, 62, 76
2, 154664, Note_on_c, 0, 62, 0
2, 154679, Note_on_c, 0, 63, 83
2, 154785, Note_on_c, 0, 63, 0
2, 154800, Note_on_c, 0, 70, 0
2, 154800, Note_on_c, 0, 70, 85
2, 154800, Note_on_c, 0, 63, 81
2, 154904, Note_on_c, 0, 63, 0
2, 154920, Note_on_c, 0, 65, 89
2, 155024, Note_on_c, 0, 65, 0
2, 155039, Note_on_c, 0, 66, 90
2, 155145, Note_on_c, 0, 66, 0
2, 155160, Note_on_c, 0, 66, 82
2, 155264, Note_on_c, 0, 66, 0
2, 155280, Note_on_c, 0, 68, 83
2, 155384, Note_on_c, 0, 68, 0
2, 155399, Note_on_c, 0, 69, 88
2, 155505, Note_on_c, 0, 69, 0
2, 155520, Note_on_c, 0, 70, 70
2, 155700, Note_on_c, 0, 70, 0
2, 155700, Note_on_c, 0, 65, 64
2, 155880, Note_on_c, 0, 65, 0
2, 155880, Note_on_c, 0, 70, 0
2, 155880, Note_on_c, 0, 70, 54
2, 156150, Note_on_c, 0, 70, 0
2, 156150, Note_on_c, 0, 65, 49
2, 156240, Note_on_c, 0, 65, 0
2, 156240, Note_on_c, 0, 62, 63
2, 156330, Note_on_c, 0, 62, 0
2, 156330, Note_on_c, 0, 65, 70
2, 156420, Note_on_c, 0, 65, 0
2, 156420, Note_on_c, 0, 62, 73
2, 156510, Note_on_c, 0, 62, 0
2, 156510, Note_on_c, 0, 65, 75
2, 156600, Note_on_c, 0, 65, 0
2, 156600, Note_on_c, 0, 63, 77
2, 156600, Note_on_c, 0, 59, 77
2, 156690, Note_on_c, 0, 63, 0
2, 156690, Note_on_c, 0, 66, 79
2, 156780, Note_on_c, 0, 66, 0
2, 156780, Note_on_c, 0, 63, 81
2, 156870, Note_on_c, 0, 63, 0
2, 156870, Note_on_c, 0, 68, 93
2, 156960, Note_on_c, 0, 68, 0
2, 156960, Note_on_c, 0, 63, 83
2, 157050, Note_on_c, 0, 63, 0
2, 157050, Note_on_c, 0, 66, 81
2, 157140, Note_on_c, 0, 66, 0
2, 157140, Note_on_c, 0, 63, 78
2, 157230, Note_on_c, 0, 63, 0
2, 157230, Note_on_c, 0, 65, 76
2, 157320, Note_on_c, 0, 65, 0
2, 157320, Note_on_c, 0, 63, 73
2, 157410, Note_on_c, 0, 63, 0
2, 157410, Note_on_c, 0, 66, 74
2, 157500, Note_on_c, 0, 66, 0
2, 157500, Note_on_c, 0, 63, 65
2, 157590, Note_on_c, 0, 63, 0
2, 157590, Note_on_c, 0, 66, 76
2, 157680, Note_on_c, 0, 66, 0
2, 157680, Note_on_c, 0, 59, 0
2, 157680, Note_on_c, 0, 65, 71
2, 157680, Note_on_c, 0, 58, 74
2, 157770, Note_on_c, 0, 65, 0
2, 157770, Note_on_c, 0, 62, 67
2, 157860, Note_on_c, 0, 62, 0
2, 157860, Note_on_c, 0, 65, 76
2, 158310, Note_on_c, 0, 65, 0
2, 158310, Note_on_c, 0, 62, 61
2, 158400, Note_on_c, 0, 62, 0
2, 158400, Note_on_c, 0, 58, 65
2, 158490, Note_on_c, 0, 58, 0
2, 158490, Note_on_c, 0, 62, 76
2, 158580, Note_on_c, 0, 62, 0
2, 158580, Note_on_c, 0, 58, 70
2, 158670, Note_on_c, 0, 58, 0
2, 158670, Note_on_c, 0, 62, 73
2, 158760, Note_on_c, 0, 62, 0
2, 158760, Note_on_c, 0, 58, 0
2, 158760, Note_on_c, 0, 60, 76
2, 158760, Note_on_c, 0, 57, 88
2, 158850, Note_on_c, 0, 60, 0
2, 158850, Note_on_c, 0, 63, 78
2, 158940, Note_on_c, 0, 63, 0
2, 158940, Note_on_c, 0, 60, 81
2, 159030, Note_on_c, 0, 60, 0
2, 159030, Note_on_c, 0, 65, 95
2, 159120, Note_on_c, 0, 65, 0
2, 159120, Note_on_c, 0, 60, 83
2, 159210, Note_on_c, 0, 60, 0
2, 159210, Note_on_c, 0, 63, 81
2, 159300, Note_on_c, 0, 63, 0
2, 159300, Note_on_c, 0, 60, 78
2, 159390, Note_on_c, 0, 60, 0
2, 159390, Note_on_c, 0, 62, 76
2, 159480, Note_on_c, 0, 62, 0
2, 159480, Note_on_c, 0, 60, 73
2, 159570, Note_on_c, 0, 60, 0
2, 159570, Note_on_c, 0, 63, 74
2, 159660, Note_on_c, 0, 63, 0
2, 159660, Note_on_c, 0, 60, 65
2, 159750, Note_on_c, 0, 60, 0
2, 159750, Note_on_c, 0, 63, 79
2, 159840, Note_on_c, 0, 63, 0
2, 159840, Note_on_c, 0, 57, 0
2, 159840, Note_on_c, 0, 62, 69
2, 159840, Note_on_c, 0, 58, 98
2, 159930, Note_on_c, 0, 62, 0
2, 159930, Note_on_c, 0, 58, 61
2, 160020, Note_on_c, 0, 58, 0
2, 160020, Note_on_c, 0, 62, 75
2, 160470, Note_on_c, 0, 62, 0
2, 160470, Note_on_c, 0, 58, 70
2, 160560, Note_on_c, 0, 58, 0
2, 160560, Note_on_c, 0, 62, 74
2, 160650, Note_on_c, 0, 62, 0
2, 160650, Note_on_c, 0, 58, 77
2, 160740, Note_on_c, 0, 58, 0
2, 160740, Note_on_c, 0, 62, 80
2, 160830, Note_on_c, 0, 62, 0
2, 160830, Note_on_c, 0, 58, 84
2, 160920, Note_on_c, 0, 58, 0
2, 160920, Note_on_c, 0, 58, 0
2, 160920, Note_on_c, 0, 62, 105
2, 160920, Note_on_c, 0, 50, 114
2, 160920, Note_on_c, 0, 58, 114
2, 161010, Note_on_c, 0, 62, 0
2, 161010, Note_on_c, 0, 58, 89
2, 161100, Note_on_c, 0, 58, 0
2, 161100, Note_on_c, 0, 62, 100
2, 161280, Note_on_c, 0, 58, 87
2, 161640, Note_on_c, 0, 58, 0
2, 161640, Note_on_c, 0, 50, 84
2, 161910, Note_on_c, 0, 62, 0
2, 161910, Note_on_c, 0, 58, 88
2, 162000, Note_on_c, 0, 58, 0
2, 162000, Note_on_c, 0, 50, 0
2, 162000, Note_on_c, 0, 50, 0
2, 162000, Note_on_c, 0, 58, 0
2, 162000, Note_on_c, 0, 62, 101
2, 162000, Note_on_c, 0, 50, 96
2, 162000, Note_on_c, 0, 58, 96
2, 162090, Note_on_c, 0, 62, 0
2, 162090, Note_on_c, 0, 58, 89
2, 162180, Note_on_c, 0, 58, 0
2, 162180, Note_on_c, 0, 62, 68
2, 162360, Note_on_c, 0, 58, 0
2, 162360, Note_on_c, 0, 50, 0
2, 162360, Note_on_c, 0, 58, 62
2, 162630, Note_on_c, 0, 62, 0
2, 162630, Note_on_c, 0, 58, 60
2, 162720, Note_on_c, 0, 58, 0
2, 162720, Note_on_c, 0, 58, 0
2, 162720, Note_on_c, 0, 62, 60
2, 162720, Note_on_c, 0, 53, 60
2, 162810, Note_on_c, 0, 62, 0
2, 162810, Note_on_c, 0, 58, 65
2, 162900, Note_on_c, 0, 58, 0
2, 162900, Note_on_c, 0, 62, 69
2, 162990, Note_on_c, 0, 62, 0
2, 162990, Note_on_c, 0, 58, 70
2, 163080, Note_on_c, 0, 58, 0
2, 163080, Note_on_c, 0, 53, 0
2, 163080, Note_on_c, 0, 62, 103
2, 163080, Note_on_c, 0, 50, 127
2, 163080, Note_on_c, 0, 58, 127
2, 163170, Note_on_c, 0, 62, 0
2, 163170, Note_on_c, 0, 58, 91
2, 163260, Note_on_c, 0, 58, 0
2, 163260, Note_on_c, 0, 62, 100
2, 163440, Note_on_c, 0, 58, 81
2, 163800, Note_on_c, 0, 58, 0
2, 163800, Note_on_c, 0, 50, 93
2, 164070, Note_on_c, 0, 62, 0
2, 164070, Note_on_c, 0, 58, 76
2, 164160, Note_on_c, 0, 58, 0
2, 164160, Note_on_c, 0, 50, 0
2, 164160, Note_on_c, 0, 50, 0
2, 164160, Note_on_c, 0, 58, 0
2, 164160, Note_on_c, 0, 62, 65
2, 164160, Note_on_c, 0, 53, 63
2, 164160, Note_on_c, 0, 58, 63
2, 164250, Note_on_c, 0, 62, 0
2, 164250, Note_on_c, 0, 58, 60
2, 164340, Note_on_c, 0, 58, 0
2, 164340, Note_on_c, 0, 62, 63
2, 164520, Note_on_c, 0, 58, 0
2, 164520, Note_on_c, 0, 53, 0
2, 164520, Note_on_c, 0, 53, 54
2, 164880, Note_on_c, 0, 53, 0
2, 164880, Note_on_c, 0, 62, 0
2, 164880, Note_on_c, 0, 62, 62
2, 164880, Note_on_c, 0, 58, 64
2, 165000, Note_on_c, 0, 58, 0
2, 165000, Note_on_c, 0, 62, 0
2, 165000, Note_on_c, 0, 60, 59
2, 165000, Note_on_c, 0, 57, 61
2, 165240, Note_on_c, 0, 57, 0
2, 165240, Note_on_c, 0, 60, 0
2, 165240, Note_on_c, 0, 62, 63
2, 165240, Note_on_c, 0, 58, 62
2, 165960, Note_on_c, 0, 58, 0
2, 165960, Note_on_c, 0, 62, 0
2, 165960, Note_on_c, 0, 62, 61
2, 165960, Note_on_c, 0, 58, 61
2, 166080, Note_on_c, 0, 58, 0
2, 166080, Note_on_c, 0, 62, 0
2, 166080, Note_on_c, 0, 60, 55
2, 166080, Note_on_c, 0, 57, 57
2, 166320, Note_on_c, 0, 57, 0
2, 166320, Note_on_c, 0, 60, 0
2, 166320, Note_on_c, 0, 62, 65
2, 166320, Note_on_c, 0, 58, 64
2, 166440, Note_on_c, 0, 58, 0
2, 166440, Note_on_c, 0, 62, 0
2, 166440, Note_on_c, 0, 60, 58
2, 166440, Note_on_c, 0, 57, 56
2, 166680, Note_on_c, 0, 57, 0
2, 166680, Note_on_c, 0, 60, 0
2, 166680, Note_on_c, 0, 62, 75
2, 166680, Note_on_c, 0, 58, 70
2, 166784, Note_on_c, 0, 58, 0
2, 166784, Note_on_c, 0, 62, 0
2, 166800, Note_on_c, 0, 60, 68
2, 166800, Note_on_c, 0, 57, 72
2, 166904, Note_on_c, 0, 57, 0
2, 166904, Note_on_c, 0, 60, 0
2, 166919, Note_on_c, 0, 62, 76
2, 166919, Note_on_c, 0, 58, 75
2, 167025, Note_on_c, 0, 58, 0
2, 167025, Note_on_c, 0, 62, 0
2, 167040, Note_on_c, 0, 60, 68
2, 167040, Note_on_c, 0, 57, 66
2, 167102, Note_on_c, 0, 57, 0
2, 167102, Note_on_c, 0, 60, 0
2, 167112, Note_on_c, 0, 62, 76
2, 167112, Note_on_c, 0, 58, 80
2, 167174, Note_on_c, 0, 58, 0
2, 167174, Note_on_c, 0, 62, 0
2, 167184, Note_on_c, 0, 60, 70
2, 167184, Note_on_c, 0, 57, 74
2, 167246, Note_on_c, 0, 57, 0
2, 167246, Note_on_c, 0, 60, 0
2, 167255, Note_on_c, 0, 62, 71
2, 167255, Note_on_c, 0, 58, 67
2, 167317, Note_on_c, 0, 58, 0
2, 167317, Note_on_c, 0, 62, 0
2, 167327, Note_on_c, 0, 63, 76
2, 167327, Note_on_c, 0, 60, 73
2, 167390, Note_on_c, 0, 60, 0
2, 167390, Note_on_c, 0, 63, 0
2, 167400, Note_on_c, 0, 62, 67
2, 167400, Note_on_c, 0, 58, 65
2, 170820, Note_on_c, 0, 58, 0
2, 170820, Note_on_c, 0, 62, 0
2, 170820, End_track
3, 0, Start_track
3, 0, Title_t, "Piano 2"
3, 0, Program_c, 0, 0
3, 0, Control_c, 0, 7, 104
3, 0, Control_c, 0, 10, 48
3, 0, Control_c, 0, 91, 48
3, 990, Control_c, 0, 121, 0
3, 990, Control_c, 0, 64, 0
3, 990, Control_c, 0, 121, 0
3, 990, Control_c, 0, 64, 0
3, 990, Control_c, 0, 91, 48
3, 990, Control_c, 0, 10, 51
3, 990, Control_c, 0, 7, 100
3, 990, Note_on_c, 0, 65, 88
3, 1020, Note_on_c, 0, 65, 0
3, 1020, Note_on_c, 0, 66, 97
3, 1049, Note_on_c, 0, 66, 0
3, 1049, Note_on_c, 0, 68, 93
3, 1080, Note_on_c, 0, 68, 0
3, 1080, Note_on_c, 0, 66, 102
3, 1080, Note_on_c, 0, 63, 76
3, 2029, Note_on_c, 0, 63, 0
3, 2029, Note_on_c, 0, 66, 0
3, 2160, Note_on_c, 0, 67, 108
3, 2160, Note_on_c, 0, 58, 79
3, 2160, Note_on_c, 0, 63, 79
3, 3109, Note_on_c, 0, 63, 0
3, 3109, Note_on_c, 0, 58, 0
3, 3109, Note_on_c, 0, 67, 0
3, 3240, Note_on_c, 0, 66, 105
3, 3240, Note_on_c, 0, 63, 82
3, 5400, Note_on_c, 0, 63, 0
3, 5400, Note_on_c, 0, 66, 0
3, 5400, Note_on_c, 0, 65, 60
3, 5400, Note_on_c, 0, 58, 64
3, 6390, Note_on_c, 0, 65, 0
3, 6390, Note_on_c, 0, 65, 63
3, 6420, Note_on_c, 0, 65, 0
3, 6420, Note_on_c, 0, 66, 64
3, 6449, Note_on_c, 0, 66, 0
3, 6449, Note_on_c, 0, 68, 61
3, 6480, Note_on_c, 0, 68, 0
3, 6480, Note_on_c, 0, 58, 0
3, 6480, Note_on_c, 0, 66, 72
3, 6480, Note_on_c, 0, 63, 77
3, 7429, Note_on_c, 0, 63, 0
3, 7429, Note_on_c, 0, 66, 0
3, 7560, Note_on_c, 0, 65, 61
3, 7560, Note_on_c, 0, 58, 61
3, 8550, Note_on_c, 0, 65, 0
3, 8550, Note_on_c, 0, 65, 58
3, 8580, Note_on_c, 0, 65, 0
3, 8580, Note_on_c, 0, 67, 62
3, 8609, Note_on_c, 0, 67, 0
3, 8609, Note_on_c, 0, 69, 68
3, 8640, Note_on_c, 0, 69, 0
3, 8640, Note_on_c, 0, 58, 0
3, 8640, Note_on_c, 0, 67, 69
3, 8640, Note_on_c, 0, 63, 77
3, 9589, Note_on_c, 0, 63, 0
3, 9589, Note_on_c, 0, 67, 0
3, 9720, Note_on_c, 0, 65, 56
3, 9720, Note_on_c, 0, 58, 63
3, 10800, Note_on_c, 0, 58, 0
3, 10800, Note_on_c, 0, 65, 0
3, 10800, Note_on_c, 0, 66, 80
3, 11160, Note_on_c, 0, 70, 83
3, 11749, Note_on_c, 0, 66, 0
3, 11793, Note_on_c, 0, 70, 0
3, 11880, Note_on_c, 0, 70, 70
3, 11880, Note_on_c, 0, 65, 70
3, 12197, Note_on_c, 0, 70, 0
3, 12240, Note_on_c, 0, 69, 75
3, 12557, Note_on_c, 0, 69, 0
3, 12600, Note_on_c, 0, 68, 79
3, 12829, Note_on_c, 0, 65, 0
3, 12836, Note_on_c, 0, 68, 0
3, 12870, Note_on_c, 0, 65, 82
3, 12900, Note_on_c, 0, 65, 0
3, 12900, Note_on_c, 0, 66, 83
3, 12929, Note_on_c, 0, 66, 0
3, 12929, Note_on_c, 0, 68, 90
3, 12960, Note_on_c, 0, 68, 0
3, 12960, Note_on_c, 0, 66, 100
3, 12960, Note_on_c, 0, 63, 101
3, 13909, Note_on_c, 0, 63, 0
3, 13909, Note_on_c, 0, 66, 0
3, 14040, Note_on_c, 0, 65, 69
3, 14040, Note_on_c, 0, 58, 64
3, 15030, Note_on_c, 0, 65, 0
3, 15030, Note_on_c, 0, 62, 61
3, 15060, Note_on_c, 0, 62, 0
3, 15060, Note_on_c, 0, 63, 74
3, 15089, Note_on_c, 0, 63, 0
3, 15089, Note_on_c, 0, 65, 74
3, 15120, Note_on_c, 0, 65, 0
3, 15120, Note_on_c, 0, 58, 0
3, 15120, Note_on_c, 0, 63, 82
3, 15120, Note_on_c, 0, 60, 82
3, 16069, Note_on_c, 0, 60, 0
3, 16069, Note_on_c, 0, 63, 0
3, 16200, Note_on_c, 0, 62, 67
3, 16200, Note_on_c, 0, 55, 68
3, 17190, Note_on_c, 0, 62, 0
3, 17190, Note_on_c, 0, 58, 64
3, 17220, Note_on_c, 0, 58, 0
3, 17220, Note_on_c, 0, 60, 77
3, 17249, Note_on_c, 0, 60, 0
3, 17249, Note_on_c, 0, 62, 76
3, 17280, Note_on_c, 0, 62, 0
3, 17280, Note_on_c, 0, 55, 0
3, 17280, Note_on_c, 0, 63, 87
3, 17280, Note_on_c, 0, 60, 88
3, 18229, Note_on_c, 0, 60, 0
3, 18229, Note_on_c, 0, 63, 0
3, 18360, Note_on_c, 0, 62, 68
3, 18360, Note_on_c, 0, 55, 67
3, 19080, Note_on_c, 0, 62, 0
3, 19080, Note_on_c, 0, 62, 70
3, 19260, Note_on_c, 0, 62, 0
3, 19260, Note_on_c, 0, 64, 77
3, 19440, Note_on_c, 0, 64, 0
3, 19440, Note_on_c, 0, 55, 0
3, 19440, Note_on_c, 0, 65, 90
3, 19440, Note_on_c, 0, 62, 86
3, 19620, Note_on_c, 0, 65, 0
3, 19620, Note_on_c, 0, 62, 75
3, 19800, Note_on_c, 0, 62, 0
3, 19800, Note_on_c, 0, 65, 85
3, 20160, Note_on_c, 0, 62, 0
3, 20160, Note_on_c, 0, 61, 75
3, 20340, Note_on_c, 0, 65, 0
3, 20340, Note_on_c, 0, 65, 83
3, 20498, Note_on_c, 0, 65, 0
3, 20520, Note_on_c, 0, 61, 0
3, 20520, Note_on_c, 0, 65, 118
3, 20520, Note_on_c, 0, 60, 115
3, 20837, Note_on_c, 0, 65, 0
3, 20880, Note_on_c, 0, 64, 98
3, 21420, Note_on_c, 0, 64, 0
3, 21420, Note_on_c, 0, 62, 101
3, 21469, Note_on_c, 0, 60, 0
3, 21600, Note_on_c, 0, 62, 0
3, 21600, Note_on_c, 0, 61, 104
3, 21600, Note_on_c, 0, 36, 93
3, 21600, Note_on_c, 0, 48, 93
3, 21780, Note_on_c, 0, 61, 0
3, 21780, Note_on_c, 0, 58, 103
3, 21960, Note_on_c, 0, 58, 0
3, 21960, Note_on_c, 0, 58, 107
3, 22500, Note_on_c, 0, 58, 0
3, 22500, Note_on_c, 0, 57, 93
3, 22680, Note_on_c, 0, 57, 0
3, 22680, Note_on_c, 0, 48, 0
3, 22680, Note_on_c, 0, 36, 0
3, 22680, Note_on_c, 0, 57, 94
3, 22680, Note_on_c, 0, 41, 92
3, 22860, Note_on_c, 0, 41, 0
3, 23040, Note_on_c, 0, 57, 0
3, 23040, Note_on_c, 0, 53, 64
3, 23040, Note_on_c, 0, 57, 64
3, 23400, Note_on_c, 0, 57, 0
3, 23400, Note_on_c, 0, 53, 0
3, 23400, Note_on_c, 0, 48, 53
3, 23760, Note_on_c, 0, 48, 0
3, 23760, Note_on_c, 0, 55, 86
3, 23760, Note_on_c, 0, 37, 55
3, 23760, Note_on_c, 0, 49, 55
3, 24480, Note_on_c, 0, 55, 0
3, 24480, Note_on_c, 0, 55, 66
3, 24840, Note_on_c, 0, 55, 0
3, 24840, Note_on_c, 0, 49, 0
3, 24840, Note_on_c, 0, 37, 0
3, 24840, Note_on_c, 0, 57, 64
3, 24840, Note_on_c, 0, 38, 62
3, 24840, Note_on_c, 0, 50, 62
3, 25560, Note_on_c, 0, 57, 0
3, 25560, Note_on_c, 0, 57, 64
3, 25920, Note_on_c, 0, 57, 0
3, 25920, Note_on_c, 0, 50, 0
3, 25920, Note_on_c, 0, 38, 0
3, 25920, Note_on_c, 0, 55, 89
3, 25920, Note_on_c, 0, 34, 58
3, 25920, Note_on_c, 0, 46, 58
3, 26640, Note_on_c, 0, 55, 0
3, 26640, Note_on_c, 0, 55, 60
3, 27000, Note_on_c, 0, 55, 0
3, 27000, Note_on_c, 0, 46, 0
3, 27000, Note_on_c, 0, 34, 0
3, 27000, Note_on_c, 0, 57, 63
3, 27000, Note_on_c, 0, 29, 56
3, 27000, Note_on_c, 0, 41, 56
3, 27360, Note_on_c, 0, 53, 99
3, 27720, Note_on_c, 0, 53, 0
3, 27720, Note_on_c, 0, 48, 106
3, 28080, Note_on_c, 0, 48, 0
3, 28440, Note_on_c, 0, 53, 101
3, 28800, Note_on_c, 0, 53, 0
3, 28800, Note_on_c, 0, 48, 100
3, 28980, Note_on_c, 0, 48, 0
3, 28980, Note_on_c, 0, 41, 0
3, 28980, Note_on_c, 0, 29, 0
3, 28980, Note_on_c, 0, 57, 0
3, 31320, Note_on_c, 0, 65, 97
3, 31637, Note_on_c, 0, 65, 0
3, 31680, Note_on_c, 0, 64, 101
3, 31997, Note_on_c, 0, 64, 0
3, 32040, Note_on_c, 0, 63, 103
3, 32357, Note_on_c, 0, 63, 0
3, 32400, Note_on_c, 0, 62, 102
3, 33349, Note_on_c, 0, 62, 0
3, 33480, Note_on_c, 0, 58, 65
3, 33840, Note_on_c, 0, 65, 64
3, 34200, Note_on_c, 0, 65, 0
3, 34200, Note_on_c, 0, 62, 64
3, 34560, Note_on_c, 0, 62, 0
3, 34560, Note_on_c, 0, 58, 0
3, 34560, Note_on_c, 0, 58, 79
3, 34560, Note_on_c, 0, 65, 79
3, 34920, Note_on_c, 0, 68, 84
3, 35280, Note_on_c, 0, 68, 0
3, 35280, Note_on_c, 0, 63, 82
3, 35640, Note_on_c, 0, 63, 0
3, 35640, Note_on_c, 0, 65, 0
3, 35640, Note_on_c, 0, 58, 0
3, 35640, Note_on_c, 0, 58, 92
3, 35640, Note_on_c, 0, 65, 92
3, 36000, Note_on_c, 0, 65, 67
3, 36360, Note_on_c, 0, 65, 0
3, 36360, Note_on_c, 0, 62, 63
3, 36720, Note_on_c, 0, 62, 0
3, 36720, Note_on_c, 0, 65, 0
3, 36720, Note_on_c, 0, 58, 0
3, 37080, Note_on_c, 0, 62, 66
3, 37080, Note_on_c, 0, 65, 66
3, 37440, Note_on_c, 0, 65, 0
3, 37440, Note_on_c, 0, 62, 0
3, 37440, Note_on_c, 0, 58, 61
3, 37800, Note_on_c, 0, 58, 0
3, 39960, Note_on_c, 0, 70, 77
3, 40277, Note_on_c, 0, 70, 0
3, 40320, Note_on_c, 0, 69, 78
3, 40637, Note_on_c, 0, 69, 0
3, 40680, Note_on_c, 0, 68, 76
3, 40997, Note_on_c, 0, 68, 0
3, 41040, Note_on_c, 0, 67, 81
3, 41989, Note_on_c, 0, 67, 0
3, 42120, Note_on_c, 0, 63, 64
3, 42480, Note_on_c, 0, 70, 67
3, 42840, Note_on_c, 0, 70, 0
3, 42840, Note_on_c, 0, 67, 66
3, 43200, Note_on_c, 0, 67, 0
3, 43200, Note_on_c, 0, 63, 0
3, 43200, Note_on_c, 0, 63, 80
3, 43200, Note_on_c, 0, 70, 80
3, 43560, Note_on_c, 0, 73, 84
3, 43920, Note_on_c, 0, 73, 0
3, 43920, Note_on_c, 0, 68, 82
3, 44280, Note_on_c, 0, 68, 0
3, 44280, Note_on_c, 0, 70, 0
3, 44280, Note_on_c, 0, 63, 0
3, 44280, Note_on_c, 0, 63, 97
3, 44280, Note_on_c, 0, 70, 97
3, 44640, Note_on_c, 0, 70, 62
3, 45000, Note_on_c, 0, 70, 0
3, 45000, Note_on_c, 0, 67, 61
3, 45360, Note_on_c, 0, 67, 0
3, 45360, Note_on_c, 0, 70, 0
3, 45360, Note_on_c, 0, 63, 0
3, 45720, Note_on_c, 0, 67, 65
3, 45720, Note_on_c, 0, 70, 65
3, 46080, Note_on_c, 0, 70, 0
3, 46080, Note_on_c, 0, 67, 0
3, 46080, Note_on_c, 0, 63, 56
3, 46440, Note_on_c, 0, 63, 0
3, 49680, Note_on_c, 0, 64, 89
3, 50760, Note_on_c, 0, 64, 0
3, 50760, Note_on_c, 0, 63, 127
3, 50760, Note_on_c, 0, 56, 127
3, 52380, Note_on_c, 0, 56, 0
3, 52380, Note_on_c, 0, 63, 0
3, 52920, Note_on_c, 0, 62, 123
3, 53280, Note_on_c, 0, 62, 0
3, 53280, Note_on_c, 0, 63, 120
3, 53640, Note_on_c, 0, 63, 0
3, 54360, Note_on_c, 0, 64, 113
3, 55080, Note_on_c, 0, 64, 0
3, 55080, Note_on_c, 0, 63, 85
3, 55440, Note_on_c, 0, 63, 0
3, 55440, Note_on_c, 0, 68, 100
3, 55800, Note_on_c, 0, 68, 0
3, 55800, Note_on_c, 0, 63, 83
3, 56160, Note_on_c, 0, 63, 0
3, 56160, Note_on_c, 0, 63, 91
3, 56520, Note_on_c, 0, 63, 0
3, 56520, Note_on_c, 0, 66, 98
3, 56880, Note_on_c, 0, 66, 0
3, 56880, Note_on_c, 0, 63, 90
3, 57240, Note_on_c, 0, 63, 0
3, 57240, Note_on_c, 0, 63, 104
3, 58189, Note_on_c, 0, 63, 0
3, 58320, Note_on_c, 0, 63, 107
3, 58953, Note_on_c, 0, 63, 0
3, 59040, Note_on_c, 0, 63, 107
3, 59357, Note_on_c, 0, 63, 0
3, 59400, Note_on_c, 0, 63, 61
3, 59400, Note_on_c, 0, 56, 58
3, 59760, Note_on_c, 0, 63, 0
3, 59760, Note_on_c, 0, 60, 54
3, 60120, Note_on_c, 0, 60, 0
3, 60120, Note_on_c, 0, 63, 62
3, 60480, Note_on_c, 0, 63, 0
3, 60480, Note_on_c, 0, 56, 0
3, 60480, Note_on_c, 0, 63, 60
3, 60480, Note_on_c, 0, 56, 60
3, 60840, Note_on_c, 0, 63, 0
3, 60840, Note_on_c, 0, 60, 59
3, 61200, Note_on_c, 0, 60, 0
3, 61200, Note_on_c, 0, 63, 66
3, 61560, Note_on_c, 0, 63, 0
3, 61560, Note_on_c, 0, 56, 0
3, 61560, Note_on_c, 0, 63, 64
3, 61560, Note_on_c, 0, 56, 63
3, 61920, Note_on_c, 0, 63, 0
3, 61920, Note_on_c, 0, 60, 60
3, 62280, Note_on_c, 0, 60, 0
3, 62280, Note_on_c, 0, 63, 62
3, 62640, Note_on_c, 0, 63, 0
3, 62640, Note_on_c, 0, 56, 0
3, 62640, Note_on_c, 0, 63, 64
3, 62640, Note_on_c, 0, 56, 62
3, 63000, Note_on_c, 0, 60, 85
3, 63540, Note_on_c, 0, 60, 0
3, 63540, Note_on_c, 0, 56, 0
3, 63540, Note_on_c, 0, 63, 0
3, 63720, Note_on_c, 0, 44, 95
3, 63720, Note_on_c, 0, 32, 86
3, 64353, Note_on_c, 0, 32, 0
3, 64353, Note_on_c, 0, 44, 0
3, 64440, Note_on_c, 0, 43, 104
3, 64440, Note_on_c, 0, 31, 88
3, 65160, Note_on_c, 0, 31, 0
3, 65160, Note_on_c, 0, 43, 0
3, 65160, Note_on_c, 0, 44, 93
3, 65160, Note_on_c, 0, 32, 81
3, 65790, Note_on_c, 0, 32, 0
3, 65790, Note_on_c, 0, 44, 0
3, 65790, Note_on_c, 0, 47, 105
3, 65790, Note_on_c, 0, 35, 92
3, 65820, Note_on_c, 0, 35, 0
3, 65820, Note_on_c, 0, 47, 0
3, 65820, Note_on_c, 0, 48, 105
3, 65820, Note_on_c, 0, 36, 93
3, 65849, Note_on_c, 0, 36, 0
3, 65849, Note_on_c, 0, 48, 0
3, 65849, Note_on_c, 0, 49, 105
3, 65849, Note_on_c, 0, 37, 97
3, 65880, Note_on_c, 0, 37, 0
3, 65880, Note_on_c, 0, 49, 0
3, 65880, Note_on_c, 0, 48, 127
3, 65880, Note_on_c, 0, 36, 127
3, 66600, Note_on_c, 0, 36, 0
3, 66600, Note_on_c, 0, 48, 0
3, 66600, Note_on_c, 0, 47, 107
3, 66600, Note_on_c, 0, 35, 107
3, 67320, Note_on_c, 0, 35, 0
3, 67320, Note_on_c, 0, 47, 0
3, 67320, Note_on_c, 0, 48, 109
3, 67320, Note_on_c, 0, 36, 104
3, 67953, Note_on_c, 0, 36, 0
3, 67953, Note_on_c, 0, 48, 0
3, 68040, Note_on_c, 0, 44, 98
3, 68040, Note_on_c, 0, 32, 89
3, 68673, Note_on_c, 0, 32, 0
3, 68673, Note_on_c, 0, 44, 0
3, 68760, Note_on_c, 0, 43, 105
3, 68760, Note_on_c, 0, 31, 88
3, 69480, Note_on_c, 0, 31, 0
3, 69480, Note_on_c, 0, 43, 0
3, 69480, Note_on_c, 0, 44, 93
3, 69480, Note_on_c, 0, 32, 81
3, 70110, Note_on_c, 0, 32, 0
3, 70110, Note_on_c, 0, 44, 0
3, 70110, Note_on_c, 0, 47, 105
3, 70110, Note_on_c, 0, 35, 92
3, 70140, Note_on_c, 0, 35, 0
3, 70140, Note_on_c, 0, 47, 0
3, 70140, Note_on_c, 0, 48, 105
3, 70140, Note_on_c, 0, 36, 93
3, 70169, Note_on_c, 0, 36, 0
3, 70169, Note_on_c, 0, 48, 0
3, 70169, Note_on_c, 0, 49, 110
3, 70169, Note_on_c, 0, 37, 97
3, 70200, Note_on_c, 0, 37, 0
3, 70200, Note_on_c, 0, 49, 0
3, 70200, Note_on_c, 0, 48, 127
3, 70200, Note_on_c, 0, 36, 127
3, 70920, Note_on_c, 0, 36, 0
3, 70920, Note_on_c, 0, 48, 0
3, 70920, Note_on_c, 0, 47, 107
3, 70920, Note_on_c, 0, 35, 107
3, 71640, Note_on_c, 0, 35, 0
3, 71640, Note_on_c, 0, 47, 0
3, 71640, Note_on_c, 0, 48, 106
3, 71640, Note_on_c, 0, 36, 109
3, 72273, Note_on_c, 0, 36, 0
3, 72273, Note_on_c, 0, 48, 0
3, 72360, Note_on_c, 0, 45, 104
3, 72360, Note_on_c, 0, 33, 92
3, 72993, Note_on_c, 0, 33, 0
3, 72993, Note_on_c, 0, 45, 0
3, 73080, Note_on_c, 0, 44, 103
3, 73080, Note_on_c, 0, 32, 86
3, 73800, Note_on_c, 0, 32, 0
3, 73800, Note_on_c, 0, 44, 0
3, 73800, Note_on_c, 0, 45, 93
3, 73800, Note_on_c, 0, 33, 81
3, 74430, Note_on_c, 0, 33, 0
3, 74430, Note_on_c, 0, 45, 0
3, 74430, Note_on_c, 0, 48, 105
3, 74430, Note_on_c, 0, 36, 92
3, 74460, Note_on_c, 0, 36, 0
3, 74460, Note_on_c, 0, 48, 0
3, 74460, Note_on_c, 0, 49, 105
3, 74460, Note_on_c, 0, 37, 93
3, 74489, Note_on_c, 0, 37, 0
3, 74489, Note_on_c, 0, 49, 0
3, 74489, Note_on_c, 0, 50, 109
3, 74489, Note_on_c, 0, 38, 94
3, 74520, Note_on_c, 0, 38, 0
3, 74520, Note_on_c, 0, 50, 0
3, 74520, Note_on_c, 0, 49, 127
3, 74520, Note_on_c, 0, 37, 127
3, 75240, Note_on_c, 0, 37, 0
3, 75240, Note_on_c, 0, 49, 0
3, 75240, Note_on_c, 0, 48, 107
3, 75240, Note_on_c, 0, 36, 107
3, 75960, Note_on_c, 0, 36, 0
3, 75960, Note_on_c, 0, 48, 0
3, 75960, Note_on_c, 0, 49, 109
3, 75960, Note_on_c, 0, 37, 111
3, 76593, Note_on_c, 0, 37, 0
3, 76593, Note_on_c, 0, 49, 0
3, 76680, Note_on_c, 0, 45, 102
3, 76680, Note_on_c, 0, 33, 85
3, 77313, Note_on_c, 0, 33, 0
3, 77313, Note_on_c, 0, 45, 0
3, 77400, Note_on_c, 0, 44, 108
3, 77400, Note_on_c, 0, 32, 92
3, 78120, Note_on_c, 0, 32, 0
3, 78120, Note_on_c, 0, 44, 0
3, 78120, Note_on_c, 0, 45, 109
3, 78120, Note_on_c, 0, 33, 92
3, 78750, Note_on_c, 0, 33, 0
3, 78750, Note_on_c, 0, 45, 0
3, 78750, Note_on_c, 0, 45, 95
3, 78750, Note_on_c, 0, 33, 81
3, 78780, Note_on_c, 0, 33, 0
3, 78780, Note_on_c, 0, 45, 0
3, 78780, Note_on_c, 0, 46, 99
3, 78780, Note_on_c, 0, 34, 85
3, 78809, Note_on_c, 0, 34, 0
3, 78809, Note_on_c, 0, 46, 0
3, 78809, Note_on_c, 0, 47, 95
3, 78809, Note_on_c, 0, 35, 84
3, 78840, Note_on_c, 0, 35, 0
3, 78840, Note_on_c, 0, 47, 0
3, 78840, Note_on_c, 0, 46, 93
3, 78840, Note_on_c, 0, 34, 81
3, 79473, Note_on_c, 0, 34, 0
3, 79473, Note_on_c, 0, 46, 0
3, 79560, Note_on_c, 0, 45, 95
3, 79560, Note_on_c, 0, 33, 82
3, 80280, Note_on_c, 0, 33, 0
3, 80280, Note_on_c, 0, 45, 0
3, 80280, Note_on_c, 0, 46, 96
3, 80280, Note_on_c, 0, 34, 83
3, 80910, Note_on_c, 0, 34, 0
3, 80910, Note_on_c, 0, 46, 0
3, 80910, Note_on_c, 0, 46, 97
3, 80910, Note_on_c, 0, 34, 85
3, 80940, Note_on_c, 0, 34, 0
3, 80940, Note_on_c, 0, 46, 0
3, 80940, Note_on_c, 0, 47, 97
3, 80940, Note_on_c, 0, 35, 85
3, 80969, Note_on_c, 0, 35, 0
3, 80969, Note_on_c, 0, 47, 0
3, 80969, Note_on_c, 0, 48, 97
3, 80969, Note_on_c, 0, 36, 85
3, 81000, Note_on_c, 0, 36, 0
3, 81000, Note_on_c, 0, 48, 0
3, 81000, Note_on_c, 0, 47, 98
3, 81000, Note_on_c, 0, 35, 85
3, 81540, Note_on_c, 0, 35, 0
3, 81540, Note_on_c, 0, 47, 0
3, 81540, Note_on_c, 0, 46, 99
3, 81540, Note_on_c, 0, 34, 86
3, 81720, Note_on_c, 0, 34, 0
3, 81720, Note_on_c, 0, 46, 0
3, 81720, Note_on_c, 0, 47, 99
3, 81720, Note_on_c, 0, 35, 86
3, 82350, Note_on_c, 0, 35, 0
3, 82350, Note_on_c, 0, 47, 0
3, 82350, Note_on_c, 0, 47, 100
3, 82350, Note_on_c, 0, 35, 88
3, 82380, Note_on_c, 0, 35, 0
3, 82380, Note_on_c, 0, 47, 0
3, 82380, Note_on_c, 0, 48, 100
3, 82380, Note_on_c, 0, 36, 88
3, 82409, Note_on_c, 0, 36, 0
3, 82409, Note_on_c, 0, 48, 0
3, 82409, Note_on_c, 0, 49, 100
3, 82409, Note_on_c, 0, 37, 88
3, 82440, Note_on_c, 0, 37, 0
3, 82440, Note_on_c, 0, 49, 0
3, 82440, Note_on_c, 0, 48, 100
3, 82440, Note_on_c, 0, 36, 88
3, 83160, Note_on_c, 0, 36, 0
3, 83160, Note_on_c, 0, 48, 0
3, 83160, Note_on_c, 0, 50, 102
3, 83160, Note_on_c, 0, 38, 89
3, 83700, Note_on_c, 0, 38, 0
3, 83700, Note_on_c, 0, 50, 0
3, 83700, Note_on_c, 0, 48, 103
3, 83700, Note_on_c, 0, 36, 90
3, 83880, Note_on_c, 0, 36, 0
3, 83880, Note_on_c, 0, 48, 0
3, 83880, Note_on_c, 0, 50, 103
3, 83880, Note_on_c, 0, 38, 90
3, 84510, Note_on_c, 0, 38, 0
3, 84510, Note_on_c, 0, 50, 0
3, 84510, Note_on_c, 0, 49, 104
3, 84510, Note_on_c, 0, 37, 92
3, 84540, Note_on_c, 0, 37, 0
3, 84540, Note_on_c, 0, 49, 0
3, 84540, Note_on_c, 0, 50, 104
3, 84540, Note_on_c, 0, 38, 92
3, 84569, Note_on_c, 0, 38, 0
3, 84569, Note_on_c, 0, 50, 0
3, 84569, Note_on_c, 0, 51, 105
3, 84569, Note_on_c, 0, 39, 92
3, 84600, Note_on_c, 0, 39, 0
3, 84600, Note_on_c, 0, 51, 0
3, 84600, Note_on_c, 0, 50, 105
3, 84600, Note_on_c, 0, 38, 92
3, 85230, Note_on_c, 0, 38, 0
3, 85230, Note_on_c, 0, 50, 0
3, 85230, Note_on_c, 0, 50, 106
3, 85230, Note_on_c, 0, 38, 93
3, 85260, Note_on_c, 0, 38, 0
3, 85260, Note_on_c, 0, 50, 0
3, 85260, Note_on_c, 0, 51, 106
3, 85260, Note_on_c, 0, 39, 93
3, 85289, Note_on_c, 0, 39, 0
3, 85289, Note_on_c, 0, 51, 0
3, 85289, Note_on_c, 0, 52, 106
3, 85289, Note_on_c, 0, 40, 93
3, 85320, Note_on_c, 0, 40, 0
3, 85320, Note_on_c, 0, 52, 0
3, 85320, Note_on_c, 0, 46, 118
3, 85320, Note_on_c, 0, 51, 118
3, 85320, Note_on_c, 0, 39, 113
3, 85500, Note_on_c, 0, 39, 0
3, 85500, Note_on_c, 0, 51, 0
3, 85500, Note_on_c, 0, 46, 0
3, 91800, Note_on_c, 0, 53, 110
3, 91800, Note_on_c, 0, 60, 110
3, 92749, Note_on_c, 0, 60, 0
3, 92749, Note_on_c, 0, 53, 0
3, 93960, Note_on_c, 0, 50, 111
3, 94500, Note_on_c, 0, 50, 0
3, 96120, Note_on_c, 0, 29, 99
3, 96299, Note_on_c, 0, 29, 0
3, 96480, Note_on_c, 0, 48, 100
3, 96480, Note_on_c, 0, 57, 100
3, 96659, Note_on_c, 0, 57, 0
3, 96659, Note_on_c, 0, 48, 0
3, 96840, Note_on_c, 0, 41, 97
3, 96840, Note_on_c, 0, 48, 97
3, 97019, Note_on_c, 0, 48, 0
3, 97019, Note_on_c, 0, 41, 0
3, 98280, Note_on_c, 0, 29, 107
3, 98459, Note_on_c, 0, 29, 0
3, 98640, Note_on_c, 0, 48, 106
3, 98640, Note_on_c, 0, 57, 106
3, 98819, Note_on_c, 0, 57, 0
3, 98819, Note_on_c, 0, 48, 0
3, 99000, Note_on_c, 0, 41, 104
3, 99000, Note_on_c, 0, 48, 104
3, 99179, Note_on_c, 0, 48, 0
3, 99179, Note_on_c, 0, 41, 0
3, 99360, Note_on_c, 0, 29, 103
3, 99539, Note_on_c, 0, 29, 0
3, 99720, Note_on_c, 0, 48, 102
3, 99720, Note_on_c, 0, 57, 102
3, 99899, Note_on_c, 0, 57, 0
3, 99899, Note_on_c, 0, 48, 0
3, 100080, Note_on_c, 0, 41, 100
3, 100080, Note_on_c, 0, 48, 100
3, 100259, Note_on_c, 0, 48, 0
3, 100259, Note_on_c, 0, 41, 0
3, 100440, Note_on_c, 0, 29, 100
3, 100619, Note_on_c, 0, 29, 0
3, 100800, Note_on_c, 0, 48, 97
3, 100800, Note_on_c, 0, 57, 97
3, 100979, Note_on_c, 0, 57, 0
3, 100979, Note_on_c, 0, 48, 0
3, 101160, Note_on_c, 0, 41, 96
3, 101160, Note_on_c, 0, 48, 96
3, 101339, Note_on_c, 0, 48, 0
3, 101339, Note_on_c, 0, 41, 0
3, 101520, Note_on_c, 0, 29, 96
3, 101699, Note_on_c, 0, 29, 0
3, 102600, Note_on_c, 0, 58, 95
3, 102600, Note_on_c, 0, 65, 95
3, 102917, Note_on_c, 0, 65, 0
3, 102917, Note_on_c, 0, 58, 0
3, 102960, Note_on_c, 0, 58, 99
3, 103140, Note_on_c, 0, 58, 0
3, 103140, Note_on_c, 0, 60, 102
3, 103320, Note_on_c, 0, 60, 0
3, 103320, Note_on_c, 0, 62, 104
3, 103440, Note_on_c, 0, 62, 0
3, 103440, Note_on_c, 0, 63, 106
3, 103559, Note_on_c, 0, 63, 0
3, 103559, Note_on_c, 0, 65, 114
3, 103680, Note_on_c, 0, 65, 0
3, 103680, Note_on_c, 0, 63, 98
3, 103680, Note_on_c, 0, 67, 98
3, 104040, Note_on_c, 0, 67, 0
3, 104040, Note_on_c, 0, 63, 0
3, 104040, Note_on_c, 0, 63, 93
3, 104400, Note_on_c, 0, 63, 0
3, 104400, Note_on_c, 0, 63, 97
3, 104400, Note_on_c, 0, 66, 97
3, 104717, Note_on_c, 0, 66, 0
3, 104717, Note_on_c, 0, 63, 0
3, 104760, Note_on_c, 0, 58, 93
3, 104760, Note_on_c, 0, 65, 93
3, 105393, Note_on_c, 0, 65, 0
3, 105393, Note_on_c, 0, 58, 0
3, 105480, Note_on_c, 0, 65, 81
3, 105660, Note_on_c, 0, 65, 0
3, 105660, Note_on_c, 0, 66, 98
3, 105840, Note_on_c, 0, 66, 0
3, 105840, Note_on_c, 0, 63, 93
3, 105840, Note_on_c, 0, 67, 93
3, 106020, Note_on_c, 0, 67, 0
3, 106020, Note_on_c, 0, 63, 0
3, 106020, Note_on_c, 0, 63, 75
3, 106200, Note_on_c, 0, 63, 0
3, 106200, Note_on_c, 0, 63, 92
3, 106517, Note_on_c, 0, 63, 0
3, 106560, Note_on_c, 0, 63, 102
3, 106560, Note_on_c, 0, 66, 102
3, 106877, Note_on_c, 0, 66, 0
3, 106877, Note_on_c, 0, 63, 0
3, 106920, Note_on_c, 0, 58, 81
3, 106920, Note_on_c, 0, 65, 81
3, 107237, Note_on_c, 0, 65, 0
3, 107237, Note_on_c, 0, 58, 0
3, 107280, Note_on_c, 0, 58, 85
3, 107460, Note_on_c, 0, 58, 0
3, 107460, Note_on_c, 0, 60, 88
3, 107640, Note_on_c, 0, 60, 0
3, 107640, Note_on_c, 0, 62, 90
3, 107820, Note_on_c, 0, 62, 0
3, 107820, Note_on_c, 0, 65, 93
3, 108000, Note_on_c, 0, 65, 0
3, 108000, Note_on_c, 0, 63, 99
3, 108000, Note_on_c, 0, 66, 99
3, 108180, Note_on_c, 0, 66, 0
3, 108180, Note_on_c, 0, 63, 0
3, 108180, Note_on_c, 0, 63, 89
3, 108360, Note_on_c, 0, 63, 0
3, 108360, Note_on_c, 0, 63, 93
3, 108360, Note_on_c, 0, 66, 93
3, 108900, Note_on_c, 0, 66, 0
3, 108900, Note_on_c, 0, 63, 0
3, 108900, Note_on_c, 0, 63, 73
3, 109080, Note_on_c, 0, 63, 0
3, 109080, Note_on_c, 0, 58, 87
3, 109080, Note_on_c, 0, 65, 87
3, 110160, Note_on_c, 0, 65, 0
3, 110160, Note_on_c, 0, 58, 0
3, 110160, Note_on_c, 0, 58, 123
3, 110160, Note_on_c, 0, 66, 123
3, 111109, Note_on_c, 0, 66, 0
3, 111109, Note_on_c, 0, 58, 0
3, 111240, Note_on_c, 0, 58, 100
3, 111240, Note_on_c, 0, 65, 100
3, 112189, Note_on_c, 0, 65, 0
3, 112189, Note_on_c, 0, 58, 0
3, 112320, Note_on_c, 0, 60, 93
3, 112320, Note_on_c, 0, 63, 93
3, 113400, Note_on_c, 0, 63, 0
3, 113400, Note_on_c, 0, 60, 0
3, 113400, Note_on_c, 0, 55, 90
3, 113400, Note_on_c, 0, 62, 90
3, 114480, Note_on_c, 0, 62, 0
3, 114480, Note_on_c, 0, 55, 0
3, 114480, Note_on_c, 0, 55, 88
3, 114480, Note_on_c, 0, 60, 88
3, 115560, Note_on_c, 0, 60, 0
3, 115560, Note_on_c, 0, 55, 0
3, 115560, Note_on_c, 0, 55, 85
3, 115560, Note_on_c, 0, 58, 85
3, 116640, Note_on_c, 0, 58, 0
3, 116640, Note_on_c, 0, 55, 0
3, 116640, Note_on_c, 0, 54, 82
3, 116640, Note_on_c, 0, 60, 82
3, 117273, Note_on_c, 0, 60, 0
3, 117273, Note_on_c, 0, 54, 0
3, 117360, Note_on_c, 0, 57, 68
3, 117360, Note_on_c, 0, 53, 64
3, 117480, Note_on_c, 0, 57, 0
3, 117480, Note_on_c, 0, 58, 72
3, 117599, Note_on_c, 0, 58, 0
3, 117599, Note_on_c, 0, 60, 77
3, 117720, Note_on_c, 0, 60, 0
3, 117720, Note_on_c, 0, 53, 0
3, 117720, Note_on_c, 0, 62, 78
3, 117720, Note_on_c, 0, 53, 73
3, 117720, Note_on_c, 0, 58, 73
3, 117720, Note_on_c, 0, 34, 66
3, 117720, Note_on_c, 0, 46, 66
3, 118080, Note_on_c, 0, 62, 0
3, 118080, Note_on_c, 0, 58, 69
3, 118440, Note_on_c, 0, 58, 0
3, 118440, Note_on_c, 0, 58, 72
3, 118800, Note_on_c, 0, 58, 0
3, 118800, Note_on_c, 0, 58, 0
3, 118800, Note_on_c, 0, 53, 0
3, 118800, Note_on_c, 0, 34, 0
3, 118800, Note_on_c, 0, 46, 0
3, 118800, Note_on_c, 0, 54, 65
3, 118800, Note_on_c, 0, 39, 70
3, 118800, Note_on_c, 0, 46, 70
3, 119520, Note_on_c, 0, 58, 69
3, 119700, Note_on_c, 0, 58, 0
3, 119700, Note_on_c, 0, 60, 71
3, 119880, Note_on_c, 0, 60, 0
3, 119880, Note_on_c, 0, 46, 0
3, 119880, Note_on_c, 0, 39, 0
3, 119880, Note_on_c, 0, 54, 0
3, 119880, Note_on_c, 0, 62, 73
3, 119880, Note_on_c, 0, 53, 73
3, 119880, Note_on_c, 0, 58, 73
3, 119880, Note_on_c, 0, 34, 69
3, 119880, Note_on_c, 0, 46, 69
3, 120060, Note_on_c, 0, 62, 0
3, 120060, Note_on_c, 0, 58, 70
3, 120240, Note_on_c, 0, 58, 0
3, 120240, Note_on_c, 0, 58, 89
3, 120557, Note_on_c, 0, 58, 0
3, 120600, Note_on_c, 0, 58, 79
3, 120917, Note_on_c, 0, 58, 0
3, 120960, Note_on_c, 0, 46, 0
3, 120960, Note_on_c, 0, 53, 0
3, 120960, Note_on_c, 0, 34, 0
3, 120960, Note_on_c, 0, 58, 0
3, 120960, Note_on_c, 0, 54, 70
3, 120960, Note_on_c, 0, 39, 66
3, 120960, Note_on_c, 0, 46, 66
3, 121320, Note_on_c, 0, 54, 62
3, 121500, Note_on_c, 0, 54, 0
3, 121500, Note_on_c, 0, 58, 73
3, 121680, Note_on_c, 0, 58, 0
3, 121680, Note_on_c, 0, 58, 74
3, 121860, Note_on_c, 0, 58, 0
3, 121860, Note_on_c, 0, 60, 70
3, 122040, Note_on_c, 0, 60, 0
3, 122040, Note_on_c, 0, 54, 0
3, 122040, Note_on_c, 0, 46, 0
3, 122040, Note_on_c, 0, 39, 0
3, 122040, Note_on_c, 0, 62, 70
3, 122040, Note_on_c, 0, 53, 70
3, 122040, Note_on_c, 0, 58, 70
3, 122040, Note_on_c, 0, 34, 70
3, 122040, Note_on_c, 0, 46, 70
3, 122220, Note_on_c, 0, 62, 0
3, 122220, Note_on_c, 0, 58, 72
3, 122400, Note_on_c, 0, 58, 0
3, 122400, Note_on_c, 0, 62, 73
3, 122760, Note_on_c, 0, 46, 0
3, 122760, Note_on_c, 0, 58, 0
3, 122760, Note_on_c, 0, 53, 0
3, 122760, Note_on_c, 0, 34, 0
3, 122760, Note_on_c, 0, 54, 75
3, 122760, Note_on_c, 0, 60, 75
3, 122760, Note_on_c, 0, 34, 75
3, 122760, Note_on_c, 0, 46, 75
3, 122940, Note_on_c, 0, 62, 0
3, 122940, Note_on_c, 0, 60, 76
3, 123120, Note_on_c, 0, 60, 0
3, 123120, Note_on_c, 0, 46, 0
3, 123120, Note_on_c, 0, 54, 0
3, 123120, Note_on_c, 0, 60, 0
3, 123120, Note_on_c, 0, 34, 0
3, 123120, Note_on_c, 0, 58, 77
3, 123120, Note_on_c, 0, 55, 77
3, 123120, Note_on_c, 0, 34, 77
3, 123120, Note_on_c, 0, 46, 77
3, 123300, Note_on_c, 0, 58, 0
3, 123300, Note_on_c, 0, 60, 78
3, 123480, Note_on_c, 0, 60, 0
3, 123480, Note_on_c, 0, 55, 0
3, 123480, Note_on_c, 0, 63, 79
3, 123480, Note_on_c, 0, 54, 79
3, 123480, Note_on_c, 0, 60, 79
3, 123840, Note_on_c, 0, 63, 0
3, 123840, Note_on_c, 0, 62, 81
3, 124020, Note_on_c, 0, 62, 0
3, 124020, Note_on_c, 0, 60, 82
3, 124200, Note_on_c, 0, 60, 0
3, 124200, Note_on_c, 0, 54, 0
3, 124200, Note_on_c, 0, 46, 0
3, 124200, Note_on_c, 0, 34, 0
3, 124200, Note_on_c, 0, 60, 0
3, 124200, Note_on_c, 0, 62, 70
3, 124200, Note_on_c, 0, 53, 70
3, 124200, Note_on_c, 0, 58, 70
3, 124200, Note_on_c, 0, 34, 70
3, 124200, Note_on_c, 0, 46, 70
3, 124380, Note_on_c, 0, 62, 0
3, 124380, Note_on_c, 0, 63, 74
3, 124560, Note_on_c, 0, 63, 0
3, 124560, Note_on_c, 0, 53, 0
3, 124560, Note_on_c, 0, 58, 0
3, 124560, Note_on_c, 0, 65, 77
3, 124560, Note_on_c, 0, 58, 77
3, 124560, Note_on_c, 0, 62, 77
3, 124740, Note_on_c, 0, 65, 0
3, 124740, Note_on_c, 0, 67, 80
3, 124920, Note_on_c, 0, 67, 0
3, 124920, Note_on_c, 0, 62, 0
3, 124920, Note_on_c, 0, 46, 0
3, 124920, Note_on_c, 0, 34, 0
3, 124920, Note_on_c, 0, 58, 0
3, 124920, Note_on_c, 0, 70, 127
3, 124920, Note_on_c, 0, 58, 87
3, 124920, Note_on_c, 0, 62, 87
3, 124920, Note_on_c, 0, 53, 119
3, 125280, Note_on_c, 0, 53, 0
3, 125280, Note_on_c, 0, 62, 0
3, 125280, Note_on_c, 0, 58, 0
3, 125280, Note_on_c, 0, 54, 112
3, 125640, Note_on_c, 0, 70, 0
3, 125640, Note_on_c, 0, 69, 107
3, 126114, Note_on_c, 0, 69, 0
3, 126180, Note_on_c, 0, 67, 103
3, 126338, Note_on_c, 0, 67, 0
3, 126360, Note_on_c, 0, 54, 0
3, 126360, Note_on_c, 0, 65, 91
3, 126360, Note_on_c, 0, 53, 68
3, 126360, Note_on_c, 0, 62, 68
3, 126360, Note_on_c, 0, 34, 87
3, 126360, Note_on_c, 0, 46, 87
3, 126540, Note_on_c, 0, 65, 0
3, 126540, Note_on_c, 0, 62, 82
3, 126720, Note_on_c, 0, 62, 0
3, 126720, Note_on_c, 0, 53, 0
3, 126720, Note_on_c, 0, 62, 0
3, 126720, Note_on_c, 0, 65, 96
3, 126720, Note_on_c, 0, 53, 68
3, 126720, Note_on_c, 0, 58, 68
3, 127080, Note_on_c, 0, 58, 0
3, 127080, Note_on_c, 0, 65, 0
3, 127080, Note_on_c, 0, 53, 0
3, 127080, Note_on_c, 0, 65, 105
3, 127080, Note_on_c, 0, 53, 78
3, 127080, Note_on_c, 0, 62, 78
3, 127440, Note_on_c, 0, 62, 0
3, 127440, Note_on_c, 0, 34, 0
3, 127440, Note_on_c, 0, 46, 0
3, 127440, Note_on_c, 0, 53, 0
3, 127440, Note_on_c, 0, 53, 70
3, 127440, Note_on_c, 0, 60, 70
3, 127440, Note_on_c, 0, 36, 93
3, 127440, Note_on_c, 0, 48, 93
3, 127800, Note_on_c, 0, 60, 0
3, 127800, Note_on_c, 0, 65, 0
3, 127800, Note_on_c, 0, 53, 0
3, 127800, Note_on_c, 0, 63, 89
3, 127800, Note_on_c, 0, 54, 66
3, 127800, Note_on_c, 0, 60, 66
3, 127980, Note_on_c, 0, 63, 0
3, 127980, Note_on_c, 0, 60, 87
3, 128160, Note_on_c, 0, 60, 0
3, 128160, Note_on_c, 0, 60, 85
3, 128280, Note_on_c, 0, 60, 0
3, 128280, Note_on_c, 0, 62, 83
3, 128399, Note_on_c, 0, 62, 0
3, 128399, Note_on_c, 0, 63, 82
3, 128520, Note_on_c, 0, 63, 0
3, 128520, Note_on_c, 0, 54, 0
3, 128520, Note_on_c, 0, 48, 0
3, 128520, Note_on_c, 0, 36, 0
3, 128520, Note_on_c, 0, 60, 0
3, 128520, Note_on_c, 0, 62, 81
3, 128520, Note_on_c, 0, 50, 58
3, 128520, Note_on_c, 0, 58, 58
3, 128520, Note_on_c, 0, 31, 81
3, 128520, Note_on_c, 0, 43, 81
3, 128700, Note_on_c, 0, 62, 0
3, 128700, Note_on_c, 0, 58, 76
3, 128880, Note_on_c, 0, 58, 0
3, 128880, Note_on_c, 0, 62, 88
3, 129600, Note_on_c, 0, 62, 0
3, 129600, Note_on_c, 0, 58, 0
3, 129600, Note_on_c, 0, 50, 0
3, 129600, Note_on_c, 0, 31, 0
3, 129600, Note_on_c, 0, 43, 0
3, 129600, Note_on_c, 0, 60, 89
3, 129600, Note_on_c, 0, 50, 60
3, 129600, Note_on_c, 0, 54, 60
3, 129600, Note_on_c, 0, 31, 80
3, 129600, Note_on_c, 0, 43, 80
3, 129917, Note_on_c, 0, 60, 0
3, 129960, Note_on_c, 0, 58, 81
3, 130140, Note_on_c, 0, 58, 0
3, 130140, Note_on_c, 0, 54, 78
3, 130320, Note_on_c, 0, 54, 0
3, 130320, Note_on_c, 0, 54, 94
3, 130637, Note_on_c, 0, 54, 0
3, 130680, Note_on_c, 0, 43, 0
3, 130680, Note_on_c, 0, 50, 0
3, 130680, Note_on_c, 0, 31, 0
3, 130680, Note_on_c, 0, 54, 0
3, 130680, Note_on_c, 0, 58, 86
3, 130680, Note_on_c, 0, 50, 55
3, 130680, Note_on_c, 0, 55, 55
3, 130680, Note_on_c, 0, 31, 81
3, 130680, Note_on_c, 0, 43, 81
3, 130860, Note_on_c, 0, 58, 0
3, 130860, Note_on_c, 0, 55, 79
3, 131040, Note_on_c, 0, 55, 0
3, 131040, Note_on_c, 0, 58, 81
3, 131760, Note_on_c, 0, 43, 0
3, 131760, Note_on_c, 0, 55, 0
3, 131760, Note_on_c, 0, 50, 0
3, 131760, Note_on_c, 0, 31, 0
3, 131760, Note_on_c, 0, 51, 51
3, 131760, Note_on_c, 0, 30, 74
3, 131760, Note_on_c, 0, 42, 74
3, 132120, Note_on_c, 0, 58, 0
3, 132120, Note_on_c, 0, 58, 95
3, 132753, Note_on_c, 0, 58, 0
3, 132840, Note_on_c, 0, 42, 0
3, 132840, Note_on_c, 0, 30, 0
3, 132840, Note_on_c, 0, 51, 0
3, 132840, Note_on_c, 0, 58, 94
3, 132840, Note_on_c, 0, 29, 77
3, 132840, Note_on_c, 0, 41, 77
3, 133789, Note_on_c, 0, 58, 0
3, 133920, Note_on_c, 0, 57, 88
3, 134869, Note_on_c, 0, 57, 0
3, 135000, Note_on_c, 0, 41, 0
3, 135000, Note_on_c, 0, 29, 0
3, 135000, Note_on_c, 0, 58, 66
3, 135000, Note_on_c, 0, 62, 66
3, 135000, Note_on_c, 0, 53, 76
3, 135000, Note_on_c, 0, 34, 60
3, 135035, Note_on_c, 0, 34, 0
3, 135045, Note_on_c, 0, 46, 67
3, 135080, Note_on_c, 0, 46, 0
3, 135090, Note_on_c, 0, 34, 60
3, 135125, Note_on_c, 0, 34, 0
3, 135135, Note_on_c, 0, 46, 67
3, 135170, Note_on_c, 0, 46, 0
3, 135180, Note_on_c, 0, 34, 60
3, 135215, Note_on_c, 0, 34, 0
3, 135225, Note_on_c, 0, 46, 67
3, 135260, Note_on_c, 0, 46, 0
3, 135270, Note_on_c, 0, 34, 60
3, 135305, Note_on_c, 0, 34, 0
3, 135315, Note_on_c, 0, 46, 67
3, 135350, Note_on_c, 0, 46, 0
3, 135360, Note_on_c, 0, 34, 60
3, 135395, Note_on_c, 0, 34, 0
3, 135405, Note_on_c, 0, 46, 67
3, 135440, Note_on_c, 0, 46, 0
3, 135450, Note_on_c, 0, 34, 60
3, 135474, Note_on_c, 0, 53, 0
3, 135485, Note_on_c, 0, 34, 0
3, 135495, Note_on_c, 0, 46, 67
3, 135530, Note_on_c, 0, 46, 0
3, 135540, Note_on_c, 0, 56, 70
3, 135540, Note_on_c, 0, 34, 60
3, 135575, Note_on_c, 0, 34, 0
3, 135585, Note_on_c, 0, 46, 67
3, 135620, Note_on_c, 0, 46, 0
3, 135630, Note_on_c, 0, 34, 60
3, 135665, Note_on_c, 0, 34, 0
3, 135675, Note_on_c, 0, 46, 67
3, 135710, Note_on_c, 0, 46, 0
3, 135720, Note_on_c, 0, 34, 60
3, 135755, Note_on_c, 0, 34, 0
3, 135765, Note_on_c, 0, 46, 67
3, 135800, Note_on_c, 0, 46, 0
3, 135810, Note_on_c, 0, 34, 60
3, 135845, Note_on_c, 0, 34, 0
3, 135855, Note_on_c, 0, 46, 67
3, 135890, Note_on_c, 0, 46, 0
3, 135900, Note_on_c, 0, 34, 60
3, 135935, Note_on_c, 0, 34, 0
3, 135945, Note_on_c, 0, 46, 67
3, 135980, Note_on_c, 0, 46, 0
3, 135990, Note_on_c, 0, 34, 60
3, 136025, Note_on_c, 0, 34, 0
3, 136035, Note_on_c, 0, 46, 67
3, 136070, Note_on_c, 0, 46, 0
3, 136080, Note_on_c, 0, 56, 0
3, 136080, Note_on_c, 0, 62, 0
3, 136080, Note_on_c, 0, 58, 0
3, 136080, Note_on_c, 0, 58, 55
3, 136080, Note_on_c, 0, 61, 55
3, 136080, Note_on_c, 0, 52, 69
3, 136080, Note_on_c, 0, 34, 55
3, 136115, Note_on_c, 0, 34, 0
3, 136125, Note_on_c, 0, 46, 64
3, 136160, Note_on_c, 0, 46, 0
3, 136170, Note_on_c, 0, 34, 55
3, 136205, Note_on_c, 0, 34, 0
3, 136215, Note_on_c, 0, 46, 64
3, 136250, Note_on_c, 0, 46, 0
3, 136260, Note_on_c, 0, 34, 55
3, 136295, Note_on_c, 0, 34, 0
3, 136305, Note_on_c, 0, 46, 64
3, 136340, Note_on_c, 0, 46, 0
3, 136350, Note_on_c, 0, 34, 55
3, 136385, Note_on_c, 0, 34, 0
3, 136395, Note_on_c, 0, 46, 64
3, 136430, Note_on_c, 0, 46, 0
3, 136440, Note_on_c, 0, 34, 55
3, 136475, Note_on_c, 0, 34, 0
3, 136485, Note_on_c, 0, 46, 64
3, 136520, Note_on_c, 0, 46, 0
3, 136530, Note_on_c, 0, 34, 55
3, 136554, Note_on_c, 0, 52, 0
3, 136565, Note_on_c, 0, 34, 0
3, 136575, Note_on_c, 0, 46, 64
3, 136610, Note_on_c, 0, 46, 0
3, 136620, Note_on_c, 0, 56, 76
3, 136620, Note_on_c, 0, 34, 55
3, 136655, Note_on_c, 0, 34, 0
3, 136665, Note_on_c, 0, 46, 64
3, 136700, Note_on_c, 0, 46, 0
3, 136710, Note_on_c, 0, 34, 55
3, 136745, Note_on_c, 0, 34, 0
3, 136755, Note_on_c, 0, 46, 64
3, 136790, Note_on_c, 0, 46, 0
3, 136800, Note_on_c, 0, 34, 55
3, 136835, Note_on_c, 0, 34, 0
3, 136845, Note_on_c, 0, 46, 64
3, 136880, Note_on_c, 0, 46, 0
3, 136890, Note_on_c, 0, 34, 55
3, 136925, Note_on_c, 0, 34, 0
3, 136935, Note_on_c, 0, 46, 64
3, 136970, Note_on_c, 0, 46, 0
3, 136980, Note_on_c, 0, 34, 55
3, 137015, Note_on_c, 0, 34, 0
3, 137025, Note_on_c, 0, 46, 64
3, 137060, Note_on_c, 0, 46, 0
3, 137070, Note_on_c, 0, 34, 55
3, 137105, Note_on_c, 0, 34, 0
3, 137115, Note_on_c, 0, 46, 64
3, 137150, Note_on_c, 0, 46, 0
3, 137160, Note_on_c, 0, 56, 0
3, 137160, Note_on_c, 0, 61, 0
3, 137160, Note_on_c, 0, 58, 0
3, 137160, Note_on_c, 0, 57, 57
3, 137160, Note_on_c, 0, 60, 57
3, 137160, Note_on_c, 0, 51, 67
3, 137160, Note_on_c, 0, 34, 52
3, 137195, Note_on_c, 0, 34, 0
3, 137205, Note_on_c, 0, 46, 68
3, 137240, Note_on_c, 0, 46, 0
3, 137250, Note_on_c, 0, 34, 52
3, 137285, Note_on_c, 0, 34, 0
3, 137295, Note_on_c, 0, 46, 68
3, 137330, Note_on_c, 0, 46, 0
3, 137340, Note_on_c, 0, 34, 52
3, 137375, Note_on_c, 0, 34, 0
3, 137385, Note_on_c, 0, 46, 68
3, 137420, Note_on_c, 0, 46, 0
3, 137430, Note_on_c, 0, 34, 52
3, 137465, Note_on_c, 0, 34, 0
3, 137475, Note_on_c, 0, 46, 68
3, 137510, Note_on_c, 0, 46, 0
3, 137520, Note_on_c, 0, 34, 52
3, 137555, Note_on_c, 0, 34, 0
3, 137565, Note_on_c, 0, 46, 68
3, 137600, Note_on_c, 0, 46, 0
3, 137610, Note_on_c, 0, 34, 52
3, 137634, Note_on_c, 0, 51, 0
3, 137645, Note_on_c, 0, 34, 0
3, 137655, Note_on_c, 0, 46, 68
3, 137690, Note_on_c, 0, 46, 0
3, 137700, Note_on_c, 0, 54, 70
3, 137700, Note_on_c, 0, 34, 52
3, 137735, Note_on_c, 0, 34, 0
3, 137745, Note_on_c, 0, 46, 68
3, 137780, Note_on_c, 0, 46, 0
3, 137790, Note_on_c, 0, 34, 52
3, 137825, Note_on_c, 0, 34, 0
3, 137835, Note_on_c, 0, 46, 68
3, 137870, Note_on_c, 0, 46, 0
3, 137880, Note_on_c, 0, 34, 52
3, 137915, Note_on_c, 0, 34, 0
3, 137925, Note_on_c, 0, 46, 68
3, 137960, Note_on_c, 0, 46, 0
3, 137970, Note_on_c, 0, 34, 52
3, 138005, Note_on_c, 0, 34, 0
3, 138015, Note_on_c, 0, 46, 68
3, 138050, Note_on_c, 0, 46, 0
3, 138060, Note_on_c, 0, 34, 52
3, 138095, Note_on_c, 0, 34, 0
3, 138105, Note_on_c, 0, 46, 68
3, 138140, Note_on_c, 0, 46, 0
3, 138150, Note_on_c, 0, 34, 52
3, 138185, Note_on_c, 0, 34, 0
3, 138195, Note_on_c, 0, 46, 68
3, 138230, Note_on_c, 0, 46, 0
3, 138240, Note_on_c, 0, 54, 0
3, 138240, Note_on_c, 0, 60, 0
3, 138240, Note_on_c, 0, 57, 0
3, 138240, Note_on_c, 0, 56, 57
3, 138240, Note_on_c, 0, 59, 57
3, 138240, Note_on_c, 0, 51, 67
3, 138240, Note_on_c, 0, 34, 54
3, 138275, Note_on_c, 0, 34, 0
3, 138285, Note_on_c, 0, 46, 65
3, 138320, Note_on_c, 0, 46, 0
3, 138330, Note_on_c, 0, 34, 54
3, 138365, Note_on_c, 0, 34, 0
3, 138375, Note_on_c, 0, 46, 65
3, 138410, Note_on_c, 0, 46, 0
3, 138420, Note_on_c, 0, 34, 54
3, 138455, Note_on_c, 0, 34, 0
3, 138465, Note_on_c, 0, 46, 65
3, 138500, Note_on_c, 0, 46, 0
3, 138510, Note_on_c, 0, 34, 54
3, 138545, Note_on_c, 0, 34, 0
3, 138555, Note_on_c, 0, 46, 65
3, 138590, Note_on_c, 0, 46, 0
3, 138600, Note_on_c, 0, 34, 54
3, 138635, Note_on_c, 0, 34, 0
3, 138645, Note_on_c, 0, 46, 65
3, 138680, Note_on_c, 0, 46, 0
3, 138690, Note_on_c, 0, 34, 54
3, 138714, Note_on_c, 0, 51, 0
3, 138725, Note_on_c, 0, 34, 0
3, 138735, Note_on_c, 0, 46, 65
3, 138770, Note_on_c, 0, 46, 0
3, 138780, Note_on_c, 0, 54, 73
3, 138780, Note_on_c, 0, 34, 54
3, 138815, Note_on_c, 0, 34, 0
3, 138825, Note_on_c, 0, 46, 65
3, 138860, Note_on_c, 0, 46, 0
3, 138870, Note_on_c, 0, 34, 54
3, 138905, Note_on_c, 0, 34, 0
3, 138915, Note_on_c, 0, 46, 65
3, 138950, Note_on_c, 0, 46, 0
3, 138960, Note_on_c, 0, 34, 54
3, 138995, Note_on_c, 0, 34, 0
3, 139005, Note_on_c, 0, 46, 65
3, 139040, Note_on_c, 0, 46, 0
3, 139050, Note_on_c, 0, 34, 54
3, 139085, Note_on_c, 0, 34, 0
3, 139095, Note_on_c, 0, 46, 65
3, 139130, Note_on_c, 0, 46, 0
3, 139140, Note_on_c, 0, 34, 54
3, 139175, Note_on_c, 0, 34, 0
3, 139185, Note_on_c, 0, 46, 65
3, 139220, Note_on_c, 0, 46, 0
3, 139230, Note_on_c, 0, 34, 54
3, 139265, Note_on_c, 0, 34, 0
3, 139275, Note_on_c, 0, 46, 65
3, 139310, Note_on_c, 0, 46, 0
3, 139320, Note_on_c, 0, 54, 0
3, 139320, Note_on_c, 0, 59, 0
3, 139320, Note_on_c, 0, 56, 0
3, 139320, Note_on_c, 0, 61, 76
3, 139320, Note_on_c, 0, 55, 64
3, 139320, Note_on_c, 0, 34, 56
3, 139355, Note_on_c, 0, 34, 0
3, 139365, Note_on_c, 0, 46, 67
3, 139400, Note_on_c, 0, 46, 0
3, 139410, Note_on_c, 0, 34, 56
3, 139445, Note_on_c, 0, 34, 0
3, 139455, Note_on_c, 0, 46, 67
3, 139490, Note_on_c, 0, 46, 0
3, 139500, Note_on_c, 0, 34, 56
3, 139535, Note_on_c, 0, 34, 0
3, 139545, Note_on_c, 0, 46, 67
3, 139580, Note_on_c, 0, 46, 0
3, 139590, Note_on_c, 0, 34, 56
3, 139625, Note_on_c, 0, 34, 0
3, 139635, Note_on_c, 0, 46, 67
3, 139670, Note_on_c, 0, 46, 0
3, 139680, Note_on_c, 0, 34, 56
3, 139715, Note_on_c, 0, 34, 0
3, 139725, Note_on_c, 0, 46, 67
3, 139760, Note_on_c, 0, 46, 0
3, 139770, Note_on_c, 0, 34, 56
3, 139794, Note_on_c, 0, 61, 0
3, 139805, Note_on_c, 0, 34, 0
3, 139815, Note_on_c, 0, 46, 67
3, 139850, Note_on_c, 0, 46, 0
3, 139860, Note_on_c, 0, 64, 66
3, 139860, Note_on_c, 0, 34, 56
3, 139895, Note_on_c, 0, 34, 0
3, 139905, Note_on_c, 0, 46, 67
3, 139940, Note_on_c, 0, 46, 0
3, 139950, Note_on_c, 0, 34, 56
3, 139985, Note_on_c, 0, 34, 0
3, 139995, Note_on_c, 0, 46, 67
3, 140030, Note_on_c, 0, 46, 0
3, 140040, Note_on_c, 0, 34, 56
3, 140075, Note_on_c, 0, 34, 0
3, 140085, Note_on_c, 0, 46, 67
3, 140120, Note_on_c, 0, 46, 0
3, 140130, Note_on_c, 0, 34, 56
3, 140165, Note_on_c, 0, 34, 0
3, 140175, Note_on_c, 0, 46, 67
3, 140210, Note_on_c, 0, 46, 0
3, 140220, Note_on_c, 0, 34, 56
3, 140255, Note_on_c, 0, 34, 0
3, 140265, Note_on_c, 0, 46, 67
3, 140300, Note_on_c, 0, 46, 0
3, 140310, Note_on_c, 0, 34, 56
3, 140345, Note_on_c, 0, 34, 0
3, 140355, Note_on_c, 0, 46, 67
3, 140390, Note_on_c, 0, 46, 0
3, 140400, Note_on_c, 0, 64, 0
3, 140400, Note_on_c, 0, 55, 0
3, 140400, Note_on_c, 0, 61, 68
3, 140400, Note_on_c, 0, 54, 61
3, 140400, Note_on_c, 0, 34, 53
3, 140435, Note_on_c, 0, 34, 0
3, 140445, Note_on_c, 0, 46, 66
3, 140480, Note_on_c, 0, 46, 0
3, 140490, Note_on_c, 0, 34, 53
3, 140525, Note_on_c, 0, 34, 0
3, 140535, Note_on_c, 0, 46, 66
3, 140570, Note_on_c, 0, 46, 0
3, 140580, Note_on_c, 0, 34, 53
3, 140615, Note_on_c, 0, 34, 0
3, 140625, Note_on_c, 0, 46, 66
3, 140660, Note_on_c, 0, 46, 0
3, 140670, Note_on_c, 0, 34, 53
3, 140705, Note_on_c, 0, 34, 0
3, 140715, Note_on_c, 0, 46, 66
3, 140750, Note_on_c, 0, 46, 0
3, 140760, Note_on_c, 0, 34, 53
3, 140795, Note_on_c, 0, 34, 0
3, 140805, Note_on_c, 0, 46, 66
3, 140840, Note_on_c, 0, 46, 0
3, 140850, Note_on_c, 0, 34, 53
3, 140874, Note_on_c, 0, 61, 0
3, 140885, Note_on_c, 0, 34, 0
3, 140895, Note_on_c, 0, 46, 66
3, 140930, Note_on_c, 0, 46, 0
3, 140940, Note_on_c, 0, 64, 63
3, 140940, Note_on_c, 0, 34, 53
3, 140975, Note_on_c, 0, 34, 0
3, 140985, Note_on_c, 0, 46, 66
3, 141020, Note_on_c, 0, 46, 0
3, 141030, Note_on_c, 0, 34, 53
3, 141065, Note_on_c, 0, 34, 0
3, 141075, Note_on_c, 0, 46, 66
3, 141110, Note_on_c, 0, 46, 0
3, 141120, Note_on_c, 0, 34, 53
3, 141155, Note_on_c, 0, 34, 0
3, 141165, Note_on_c, 0, 46, 66
3, 141200, Note_on_c, 0, 46, 0
3, 141210, Note_on_c, 0, 34, 53
3, 141245, Note_on_c, 0, 34, 0
3, 141255, Note_on_c, 0, 46, 66
3, 141290, Note_on_c, 0, 46, 0
3, 141300, Note_on_c, 0, 34, 53
3, 141335, Note_on_c, 0, 34, 0
3, 141345, Note_on_c, 0, 46, 66
3, 141380, Note_on_c, 0, 46, 0
3, 141390, Note_on_c, 0, 34, 53
3, 141425, Note_on_c, 0, 34, 0
3, 141435, Note_on_c, 0, 46, 66
3, 141470, Note_on_c, 0, 46, 0
3, 141480, Note_on_c, 0, 64, 0
3, 141480, Note_on_c, 0, 54, 0
3, 141480, Note_on_c, 0, 60, 67
3, 141480, Note_on_c, 0, 54, 61
3, 141480, Note_on_c, 0, 34, 59
3, 141515, Note_on_c, 0, 34, 0
3, 141525, Note_on_c, 0, 46, 66
3, 141560, Note_on_c, 0, 46, 0
3, 141570, Note_on_c, 0, 34, 59
3, 141605, Note_on_c, 0, 34, 0
3, 141615, Note_on_c, 0, 46, 66
3, 141650, Note_on_c, 0, 46, 0
3, 141660, Note_on_c, 0, 34, 59
3, 141695, Note_on_c, 0, 34, 0
3, 141705, Note_on_c, 0, 46, 66
3, 141740, Note_on_c, 0, 46, 0
3, 141750, Note_on_c, 0, 34, 59
3, 141785, Note_on_c, 0, 34, 0
3, 141795, Note_on_c, 0, 46, 66
3, 141830, Note_on_c, 0, 46, 0
3, 141840, Note_on_c, 0, 34, 59
3, 141875, Note_on_c, 0, 34, 0
3, 141885, Note_on_c, 0, 46, 66
3, 141920, Note_on_c, 0, 46, 0
3, 141930, Note_on_c, 0, 34, 59
3, 141954, Note_on_c, 0, 60, 0
3, 141965, Note_on_c, 0, 34, 0
3, 141975, Note_on_c, 0, 46, 66
3, 142010, Note_on_c, 0, 46, 0
3, 142020, Note_on_c, 0, 63, 63
3, 142020, Note_on_c, 0, 34, 59
3, 142055, Note_on_c, 0, 34, 0
3, 142065, Note_on_c, 0, 46, 66
3, 142100, Note_on_c, 0, 46, 0
3, 142110, Note_on_c, 0, 34, 59
3, 142145, Note_on_c, 0, 34, 0
3, 142155, Note_on_c, 0, 46, 66
3, 142190, Note_on_c, 0, 46, 0
3, 142200, Note_on_c, 0, 34, 59
3, 142235, Note_on_c, 0, 34, 0
3, 142245, Note_on_c, 0, 46, 66
3, 142280, Note_on_c, 0, 46, 0
3, 142290, Note_on_c, 0, 34, 59
3, 142325, Note_on_c, 0, 34, 0
3, 142335, Note_on_c, 0, 46, 66
3, 142370, Note_on_c, 0, 46, 0
3, 142380, Note_on_c, 0, 34, 59
3, 142415, Note_on_c, 0, 34, 0
3, 142425, Note_on_c, 0, 46, 66
3, 142460, Note_on_c, 0, 46, 0
3, 142470, Note_on_c, 0, 34, 59
3, 142505, Note_on_c, 0, 34, 0
3, 142515, Note_on_c, 0, 46, 66
3, 142550, Note_on_c, 0, 46, 0
3, 142560, Note_on_c, 0, 63, 0
3, 142560, Note_on_c, 0, 54, 0
3, 142560, Note_on_c, 0, 58, 60
3, 142560, Note_on_c, 0, 53, 60
3, 142560, Note_on_c, 0, 34, 60
3, 142595, Note_on_c, 0, 34, 0
3, 142605, Note_on_c, 0, 46, 61
3, 142640, Note_on_c, 0, 46, 0
3, 142650, Note_on_c, 0, 34, 61
3, 142685, Note_on_c, 0, 34, 0
3, 142695, Note_on_c, 0, 46, 62
3, 142730, Note_on_c, 0, 46, 0
3, 142740, Note_on_c, 0, 34, 62
3, 142775, Note_on_c, 0, 34, 0
3, 142785, Note_on_c, 0, 46, 63
3, 142820, Note_on_c, 0, 46, 0
3, 142830, Note_on_c, 0, 34, 63
3, 142865, Note_on_c, 0, 34, 0
3, 142875, Note_on_c, 0, 46, 64
3, 142910, Note_on_c, 0, 46, 0
3, 142920, Note_on_c, 0, 34, 65
3, 142955, Note_on_c, 0, 34, 0
3, 142965, Note_on_c, 0, 46, 65
3, 143000, Note_on_c, 0, 46, 0
3, 143010, Note_on_c, 0, 34, 66
3, 143034, Note_on_c, 0, 58, 0
3, 143045, Note_on_c, 0, 34, 0
3, 143055, Note_on_c, 0, 46, 66
3, 143090, Note_on_c, 0, 46, 0
3, 143100, Note_on_c, 0, 62, 67
3, 143100, Note_on_c, 0, 34, 67
3, 143135, Note_on_c, 0, 34, 0
3, 143145, Note_on_c, 0, 46, 67
3, 143180, Note_on_c, 0, 46, 0
3, 143190, Note_on_c, 0, 34, 68
3, 143225, Note_on_c, 0, 34, 0
3, 143235, Note_on_c, 0, 46, 68
3, 143270, Note_on_c, 0, 46, 0
3, 143280, Note_on_c, 0, 34, 69
3, 143315, Note_on_c, 0, 34, 0
3, 143325, Note_on_c, 0, 46, 69
3, 143360, Note_on_c, 0, 46, 0
3, 143370, Note_on_c, 0, 34, 70
3, 143405, Note_on_c, 0, 34, 0
3, 143415, Note_on_c, 0, 46, 70
3, 143450, Note_on_c, 0, 46, 0
3, 143460, Note_on_c, 0, 62, 0
3, 143460, Note_on_c, 0, 65, 71
3, 143460, Note_on_c, 0, 34, 71
3, 143495, Note_on_c, 0, 34, 0
3, 143505, Note_on_c, 0, 46, 71
3, 143540, Note_on_c, 0, 46, 0
3, 143550, Note_on_c, 0, 34, 72
3, 143585, Note_on_c, 0, 34, 0
3, 143595, Note_on_c, 0, 46, 72
3, 143618, Note_on_c, 0, 65, 0
3, 143630, Note_on_c, 0, 46, 0
3, 143640, Note_on_c, 0, 53, 0
3, 143640, Note_on_c, 0, 65, 73
3, 143640, Note_on_c, 0, 68, 73
3, 143640, Note_on_c, 0, 56, 73
3, 143640, Note_on_c, 0, 34, 56
3, 143675, Note_on_c, 0, 34, 0
3, 143685, Note_on_c, 0, 46, 82
3, 143720, Note_on_c, 0, 46, 0
3, 143730, Note_on_c, 0, 34, 56
3, 143765, Note_on_c, 0, 34, 0
3, 143775, Note_on_c, 0, 46, 82
3, 143810, Note_on_c, 0, 46, 0
3, 143820, Note_on_c, 0, 34, 56
3, 143855, Note_on_c, 0, 34, 0
3, 143865, Note_on_c, 0, 46, 82
3, 143900, Note_on_c, 0, 46, 0
3, 143910, Note_on_c, 0, 34, 56
3, 143945, Note_on_c, 0, 34, 0
3, 143955, Note_on_c, 0, 46, 82
3, 143990, Note_on_c, 0, 46, 0
3, 144000, Note_on_c, 0, 68, 0
3, 144000, Note_on_c, 0, 65, 0
3, 144000, Note_on_c, 0, 62, 64
3, 144000, Note_on_c, 0, 34, 56
3, 144035, Note_on_c, 0, 34, 0
3, 144045, Note_on_c, 0, 46, 82
3, 144080, Note_on_c, 0, 46, 0
3, 144090, Note_on_c, 0, 34, 56
3, 144114, Note_on_c, 0, 56, 0
3, 144125, Note_on_c, 0, 34, 0
3, 144135, Note_on_c, 0, 46, 82
3, 144170, Note_on_c, 0, 46, 0
3, 144180, Note_on_c, 0, 59, 89
3, 144180, Note_on_c, 0, 34, 56
3, 144215, Note_on_c, 0, 34, 0
3, 144225, Note_on_c, 0, 46, 82
3, 144260, Note_on_c, 0, 46, 0
3, 144270, Note_on_c, 0, 34, 56
3, 144305, Note_on_c, 0, 34, 0
3, 144315, Note_on_c, 0, 46, 82
3, 144350, Note_on_c, 0, 46, 0
3, 144360, Note_on_c, 0, 62, 0
3, 144360, Note_on_c, 0, 62, 86
3, 144360, Note_on_c, 0, 34, 56
3, 144395, Note_on_c, 0, 34, 0
3, 144405, Note_on_c, 0, 46, 82
3, 144440, Note_on_c, 0, 46, 0
3, 144450, Note_on_c, 0, 34, 56
3, 144485, Note_on_c, 0, 34, 0
3, 144495, Note_on_c, 0, 46, 82
3, 144530, Note_on_c, 0, 46, 0
3, 144540, Note_on_c, 0, 34, 56
3, 144575, Note_on_c, 0, 34, 0
3, 144585, Note_on_c, 0, 46, 82
3, 144620, Note_on_c, 0, 46, 0
3, 144630, Note_on_c, 0, 34, 56
3, 144665, Note_on_c, 0, 34, 0
3, 144675, Note_on_c, 0, 46, 82
3, 144677, Note_on_c, 0, 62, 0
3, 144710, Note_on_c, 0, 46, 0
3, 144720, Note_on_c, 0, 59, 0
3, 144720, Note_on_c, 0, 64, 75
3, 144720, Note_on_c, 0, 56, 82
3, 144720, Note_on_c, 0, 34, 69
3, 144755, Note_on_c, 0, 34, 0
3, 144765, Note_on_c, 0, 46, 83
3, 144800, Note_on_c, 0, 46, 0
3, 144810, Note_on_c, 0, 34, 69
3, 144845, Note_on_c, 0, 34, 0
3, 144855, Note_on_c, 0, 46, 83
3, 144890, Note_on_c, 0, 46, 0
3, 144900, Note_on_c, 0, 34, 69
3, 144935, Note_on_c, 0, 34, 0
3, 144945, Note_on_c, 0, 46, 83
3, 144980, Note_on_c, 0, 46, 0
3, 144990, Note_on_c, 0, 34, 69
3, 145025, Note_on_c, 0, 34, 0
3, 145035, Note_on_c, 0, 46, 83
3, 145070, Note_on_c, 0, 46, 0
3, 145080, Note_on_c, 0, 64, 0
3, 145080, Note_on_c, 0, 64, 72
3, 145080, Note_on_c, 0, 34, 69
3, 145115, Note_on_c, 0, 34, 0
3, 145125, Note_on_c, 0, 46, 83
3, 145160, Note_on_c, 0, 46, 0
3, 145170, Note_on_c, 0, 34, 69
3, 145194, Note_on_c, 0, 56, 0
3, 145205, Note_on_c, 0, 34, 0
3, 145215, Note_on_c, 0, 46, 83
3, 145250, Note_on_c, 0, 46, 0
3, 145260, Note_on_c, 0, 64, 0
3, 145260, Note_on_c, 0, 61, 71
3, 145260, Note_on_c, 0, 58, 86
3, 145260, Note_on_c, 0, 34, 69
3, 145295, Note_on_c, 0, 34, 0
3, 145305, Note_on_c, 0, 46, 83
3, 145340, Note_on_c, 0, 46, 0
3, 145350, Note_on_c, 0, 34, 69
3, 145385, Note_on_c, 0, 34, 0
3, 145395, Note_on_c, 0, 46, 83
3, 145430, Note_on_c, 0, 46, 0
3, 145440, Note_on_c, 0, 61, 0
3, 145440, Note_on_c, 0, 61, 84
3, 145440, Note_on_c, 0, 34, 69
3, 145475, Note_on_c, 0, 34, 0
3, 145485, Note_on_c, 0, 46, 83
3, 145520, Note_on_c, 0, 46, 0
3, 145530, Note_on_c, 0, 34, 69
3, 145565, Note_on_c, 0, 34, 0
3, 145575, Note_on_c, 0, 46, 83
3, 145610, Note_on_c, 0, 46, 0
3, 145620, Note_on_c, 0, 34, 69
3, 145655, Note_on_c, 0, 34, 0
3, 145665, Note_on_c, 0, 46, 83
3, 145700, Note_on_c, 0, 46, 0
3, 145710, Note_on_c, 0, 34, 69
3, 145745, Note_on_c, 0, 34, 0
3, 145755, Note_on_c, 0, 46, 83
3, 145757, Note_on_c, 0, 61, 0
3, 145790, Note_on_c, 0, 46, 0
3, 145800, Note_on_c, 0, 58, 0
3, 145800, Note_on_c, 0, 63, 73
3, 145800, Note_on_c, 0, 66, 73
3, 145800, Note_on_c, 0, 54, 73
3, 145800, Note_on_c, 0, 34, 73
3, 145835, Note_on_c, 0, 34, 0
3, 145845, Note_on_c, 0, 46, 73
3, 145880, Note_on_c, 0, 46, 0
3, 145890, Note_on_c, 0, 34, 73
3, 145925, Note_on_c, 0, 34, 0
3, 145935, Note_on_c, 0, 46, 73
3, 145970, Note_on_c, 0, 46, 0
3, 145980, Note_on_c, 0, 34, 73
3, 146015, Note_on_c, 0, 34, 0
3, 146025, Note_on_c, 0, 46, 73
3, 146060, Note_on_c, 0, 46, 0
3, 146070, Note_on_c, 0, 34, 72
3, 146105, Note_on_c, 0, 34, 0
3, 146115, Note_on_c, 0, 46, 72
3, 146150, Note_on_c, 0, 46, 0
3, 146160, Note_on_c, 0, 66, 0
3, 146160, Note_on_c, 0, 63, 0
3, 146160, Note_on_c, 0, 60, 72
3, 146160, Note_on_c, 0, 34, 72
3, 146195, Note_on_c, 0, 34, 0
3, 146205, Note_on_c, 0, 46, 72
3, 146240, Note_on_c, 0, 46, 0
3, 146250, Note_on_c, 0, 34, 72
3, 146274, Note_on_c, 0, 54, 0
3, 146285, Note_on_c, 0, 34, 0
3, 146295, Note_on_c, 0, 46, 72
3, 146330, Note_on_c, 0, 46, 0
3, 146340, Note_on_c, 0, 57, 72
3, 146340, Note_on_c, 0, 34, 72
3, 146375, Note_on_c, 0, 34, 0
3, 146385, Note_on_c, 0, 46, 72
3, 146420, Note_on_c, 0, 46, 0
3, 146430, Note_on_c, 0, 34, 72
3, 146465, Note_on_c, 0, 34, 0
3, 146475, Note_on_c, 0, 46, 72
3, 146510, Note_on_c, 0, 46, 0
3, 146520, Note_on_c, 0, 60, 0
3, 146520, Note_on_c, 0, 60, 71
3, 146520, Note_on_c, 0, 34, 72
3, 146555, Note_on_c, 0, 34, 0
3, 146565, Note_on_c, 0, 46, 71
3, 146600, Note_on_c, 0, 46, 0
3, 146610, Note_on_c, 0, 34, 71
3, 146645, Note_on_c, 0, 34, 0
3, 146655, Note_on_c, 0, 46, 71
3, 146690, Note_on_c, 0, 46, 0
3, 146700, Note_on_c, 0, 34, 71
3, 146735, Note_on_c, 0, 34, 0
3, 146745, Note_on_c, 0, 46, 71
3, 146780, Note_on_c, 0, 46, 0
3, 146790, Note_on_c, 0, 34, 71
3, 146825, Note_on_c, 0, 34, 0
3, 146835, Note_on_c, 0, 46, 71
3, 146837, Note_on_c, 0, 60, 0
3, 146870, Note_on_c, 0, 46, 0
3, 146880, Note_on_c, 0, 57, 0
3, 146880, Note_on_c, 0, 63, 71
3, 146880, Note_on_c, 0, 54, 71
3, 146880, Note_on_c, 0, 34, 71
3, 146915, Note_on_c, 0, 34, 0
3, 146925, Note_on_c, 0, 46, 71
3, 146960, Note_on_c, 0, 46, 0
3, 146970, Note_on_c, 0, 34, 71
3, 147005, Note_on_c, 0, 34, 0
3, 147015, Note_on_c, 0, 46, 70
3, 147050, Note_on_c, 0, 46, 0
3, 147060, Note_on_c, 0, 34, 70
3, 147095, Note_on_c, 0, 34, 0
3, 147105, Note_on_c, 0, 46, 70
3, 147140, Note_on_c, 0, 46, 0
3, 147150, Note_on_c, 0, 34, 70
3, 147185, Note_on_c, 0, 34, 0
3, 147195, Note_on_c, 0, 46, 70
3, 147230, Note_on_c, 0, 46, 0
3, 147240, Note_on_c, 0, 63, 0
3, 147240, Note_on_c, 0, 63, 70
3, 147240, Note_on_c, 0, 34, 70
3, 147275, Note_on_c, 0, 34, 0
3, 147285, Note_on_c, 0, 46, 70
3, 147320, Note_on_c, 0, 46, 0
3, 147330, Note_on_c, 0, 34, 70
3, 147354, Note_on_c, 0, 54, 0
3, 147365, Note_on_c, 0, 34, 0
3, 147375, Note_on_c, 0, 46, 70
3, 147410, Note_on_c, 0, 46, 0
3, 147420, Note_on_c, 0, 63, 0
3, 147420, Note_on_c, 0, 59, 70
3, 147420, Note_on_c, 0, 56, 70
3, 147420, Note_on_c, 0, 34, 70
3, 147455, Note_on_c, 0, 34, 0
3, 147465, Note_on_c, 0, 46, 70
3, 147500, Note_on_c, 0, 46, 0
3, 147510, Note_on_c, 0, 34, 69
3, 147545, Note_on_c, 0, 34, 0
3, 147555, Note_on_c, 0, 46, 69
3, 147590, Note_on_c, 0, 46, 0
3, 147600, Note_on_c, 0, 59, 0
3, 147600, Note_on_c, 0, 59, 69
3, 147600, Note_on_c, 0, 34, 69
3, 147635, Note_on_c, 0, 34, 0
3, 147645, Note_on_c, 0, 46, 69
3, 147680, Note_on_c, 0, 46, 0
3, 147690, Note_on_c, 0, 34, 69
3, 147725, Note_on_c, 0, 34, 0
3, 147735, Note_on_c, 0, 46, 69
3, 147770, Note_on_c, 0, 46, 0
3, 147780, Note_on_c, 0, 34, 69
3, 147815, Note_on_c, 0, 34, 0
3, 147825, Note_on_c, 0, 46, 69
3, 147860, Note_on_c, 0, 46, 0
3, 147870, Note_on_c, 0, 34, 69
3, 147905, Note_on_c, 0, 34, 0
3, 147915, Note_on_c, 0, 46, 69
3, 147917, Note_on_c, 0, 59, 0
3, 147950, Note_on_c, 0, 46, 0
3, 147960, Note_on_c, 0, 56, 0
3, 147960, Note_on_c, 0, 61, 68
3, 147960, Note_on_c, 0, 64, 68
3, 147960, Note_on_c, 0, 52, 68
3, 147960, Note_on_c, 0, 34, 69
3, 147995, Note_on_c, 0, 34, 0
3, 148005, Note_on_c, 0, 46, 68
3, 148040, Note_on_c, 0, 46, 0
3, 148050, Note_on_c, 0, 34, 68
3, 148085, Note_on_c, 0, 34, 0
3, 148095, Note_on_c, 0, 46, 68
3, 148130, Note_on_c, 0, 46, 0
3, 148140, Note_on_c, 0, 34, 68
3, 148175, Note_on_c, 0, 34, 0
3, 148185, Note_on_c, 0, 46, 68
3, 148220, Note_on_c, 0, 46, 0
3, 148230, Note_on_c, 0, 34, 68
3, 148265, Note_on_c, 0, 34, 0
3, 148275, Note_on_c, 0, 46, 68
3, 148310, Note_on_c, 0, 46, 0
3, 148320, Note_on_c, 0, 64, 0
3, 148320, Note_on_c, 0, 61, 0
3, 148320, Note_on_c, 0, 58, 68
3, 148320, Note_on_c, 0, 34, 68
3, 148355, Note_on_c, 0, 34, 0
3, 148365, Note_on_c, 0, 46, 68
3, 148400, Note_on_c, 0, 46, 0
3, 148410, Note_on_c, 0, 34, 68
3, 148434, Note_on_c, 0, 52, 0
3, 148445, Note_on_c, 0, 34, 0
3, 148455, Note_on_c, 0, 46, 67
3, 148490, Note_on_c, 0, 46, 0
3, 148500, Note_on_c, 0, 55, 67
3, 148500, Note_on_c, 0, 34, 67
3, 148535, Note_on_c, 0, 34, 0
3, 148545, Note_on_c, 0, 46, 67
3, 148580, Note_on_c, 0, 46, 0
3, 148590, Note_on_c, 0, 34, 67
3, 148625, Note_on_c, 0, 34, 0
3, 148635, Note_on_c, 0, 46, 67
3, 148670, Note_on_c, 0, 46, 0
3, 148680, Note_on_c, 0, 58, 0
3, 148680, Note_on_c, 0, 58, 67
3, 148680, Note_on_c, 0, 34, 67
3, 148715, Note_on_c, 0, 34, 0
3, 148725, Note_on_c, 0, 46, 67
3, 148760, Note_on_c, 0, 46, 0
3, 148770, Note_on_c, 0, 34, 67
3, 148805, Note_on_c, 0, 34, 0
3, 148815, Note_on_c, 0, 46, 67
3, 148850, Note_on_c, 0, 46, 0
3, 148860, Note_on_c, 0, 34, 67
3, 148895, Note_on_c, 0, 34, 0
3, 148905, Note_on_c, 0, 46, 67
3, 148940, Note_on_c, 0, 46, 0
3, 148950, Note_on_c, 0, 34, 66
3, 148985, Note_on_c, 0, 34, 0
3, 148995, Note_on_c, 0, 46, 66
3, 148997, Note_on_c, 0, 58, 0
3, 149030, Note_on_c, 0, 46, 0
3, 149040, Note_on_c, 0, 55, 0
3, 149040, Note_on_c, 0, 61, 66
3, 149040, Note_on_c, 0, 52, 66
3, 149040, Note_on_c, 0, 34, 66
3, 149075, Note_on_c, 0, 34, 0
3, 149085, Note_on_c, 0, 46, 66
3, 149120, Note_on_c, 0, 46, 0
3, 149130, Note_on_c, 0, 34, 66
3, 149165, Note_on_c, 0, 34, 0
3, 149175, Note_on_c, 0, 46, 66
3, 149210, Note_on_c, 0, 46, 0
3, 149220, Note_on_c, 0, 34, 66
3, 149255, Note_on_c, 0, 34, 0
3, 149265, Note_on_c, 0, 46, 66
3, 149300, Note_on_c, 0, 46, 0
3, 149310, Note_on_c, 0, 34, 66
3, 149345, Note_on_c, 0, 34, 0
3, 149355, Note_on_c, 0, 46, 66
3, 149390, Note_on_c, 0, 46, 0
3, 149400, Note_on_c, 0, 61, 0
3, 149400, Note_on_c, 0, 61, 65
3, 149400, Note_on_c, 0, 34, 66
3, 149435, Note_on_c, 0, 34, 0
3, 149445, Note_on_c, 0, 46, 65
3, 149480, Note_on_c, 0, 46, 0
3, 149490, Note_on_c, 0, 34, 65
3, 149514, Note_on_c, 0, 52, 0
3, 149525, Note_on_c, 0, 34, 0
3, 149535, Note_on_c, 0, 46, 65
3, 149570, Note_on_c, 0, 46, 0
3, 149580, Note_on_c, 0, 61, 0
3, 149580, Note_on_c, 0, 58, 65
3, 149580, Note_on_c, 0, 54, 65
3, 149580, Note_on_c, 0, 34, 65
3, 149615, Note_on_c, 0, 34, 0
3, 149625, Note_on_c, 0, 46, 65
3, 149660, Note_on_c, 0, 46, 0
3, 149670, Note_on_c, 0, 34, 65
3, 149705, Note_on_c, 0, 34, 0
3, 149715, Note_on_c, 0, 46, 65
3, 149750, Note_on_c, 0, 46, 0
3, 149760, Note_on_c, 0, 58, 0
3, 149760, Note_on_c, 0, 58, 65
3, 149760, Note_on_c, 0, 34, 65
3, 149795, Note_on_c, 0, 34, 0
3, 149805, Note_on_c, 0, 46, 65
3, 149840, Note_on_c, 0, 46, 0
3, 149850, Note_on_c, 0, 34, 65
3, 149885, Note_on_c, 0, 34, 0
3, 149895, Note_on_c, 0, 46, 65
3, 149930, Note_on_c, 0, 46, 0
3, 149940, Note_on_c, 0, 34, 64
3, 149975, Note_on_c, 0, 34, 0
3, 149985, Note_on_c, 0, 46, 64
3, 150020, Note_on_c, 0, 46, 0
3, 150030, Note_on_c, 0, 34, 64
3, 150065, Note_on_c, 0, 34, 0
3, 150075, Note_on_c, 0, 46, 64
3, 150077, Note_on_c, 0, 58, 0
3, 150110, Note_on_c, 0, 46, 0
3, 150120, Note_on_c, 0, 54, 0
3, 150120, Note_on_c, 0, 60, 64
3, 150120, Note_on_c, 0, 63, 64
3, 150120, Note_on_c, 0, 51, 64
3, 150120, Note_on_c, 0, 34, 64
3, 150155, Note_on_c, 0, 34, 0
3, 150165, Note_on_c, 0, 46, 64
3, 150200, Note_on_c, 0, 46, 0
3, 150210, Note_on_c, 0, 34, 64
3, 150245, Note_on_c, 0, 34, 0
3, 150255, Note_on_c, 0, 46, 64
3, 150290, Note_on_c, 0, 46, 0
3, 150300, Note_on_c, 0, 34, 64
3, 150335, Note_on_c, 0, 34, 0
3, 150345, Note_on_c, 0, 46, 64
3, 150380, Note_on_c, 0, 46, 0
3, 150390, Note_on_c, 0, 34, 63
3, 150425, Note_on_c, 0, 34, 0
3, 150435, Note_on_c, 0, 46, 63
3, 150470, Note_on_c, 0, 46, 0
3, 150480, Note_on_c, 0, 63, 0
3, 150480, Note_on_c, 0, 60, 0
3, 150480, Note_on_c, 0, 60, 63
3, 150480, Note_on_c, 0, 34, 63
3, 150515, Note_on_c, 0, 34, 0
3, 150525, Note_on_c, 0, 46, 63
3, 150560, Note_on_c, 0, 46, 0
3, 150570, Note_on_c, 0, 34, 63
3, 150594, Note_on_c, 0, 51, 0
3, 150605, Note_on_c, 0, 34, 0
3, 150615, Note_on_c, 0, 46, 63
3, 150650, Note_on_c, 0, 46, 0
3, 150660, Note_on_c, 0, 60, 0
3, 150660, Note_on_c, 0, 57, 63
3, 150660, Note_on_c, 0, 54, 63
3, 150660, Note_on_c, 0, 34, 63
3, 150695, Note_on_c, 0, 34, 0
3, 150705, Note_on_c, 0, 46, 63
3, 150740, Note_on_c, 0, 46, 0
3, 150750, Note_on_c, 0, 34, 63
3, 150785, Note_on_c, 0, 34, 0
3, 150795, Note_on_c, 0, 46, 63
3, 150830, Note_on_c, 0, 46, 0
3, 150840, Note_on_c, 0, 57, 0
3, 150840, Note_on_c, 0, 57, 62
3, 150840, Note_on_c, 0, 34, 63
3, 150875, Note_on_c, 0, 34, 0
3, 150885, Note_on_c, 0, 46, 62
3, 150920, Note_on_c, 0, 46, 0
3, 150930, Note_on_c, 0, 34, 62
3, 150965, Note_on_c, 0, 34, 0
3, 150975, Note_on_c, 0, 46, 62
3, 151010, Note_on_c, 0, 46, 0
3, 151020, Note_on_c, 0, 34, 62
3, 151055, Note_on_c, 0, 34, 0
3, 151065, Note_on_c, 0, 46, 62
3, 151100, Note_on_c, 0, 46, 0
3, 151110, Note_on_c, 0, 34, 62
3, 151145, Note_on_c, 0, 34, 0
3, 151155, Note_on_c, 0, 46, 62
3, 151157, Note_on_c, 0, 57, 0
3, 151190, Note_on_c, 0, 46, 0
3, 151200, Note_on_c, 0, 54, 0
3, 151200, Note_on_c, 0, 62, 61
3, 151200, Note_on_c, 0, 53, 61
3, 151200, Note_on_c, 0, 58, 61
3, 151200, Note_on_c, 0, 34, 62
3, 151200, Note_on_c, 0, 46, 62
3, 151380, Note_on_c, 0, 62, 0
3, 151380, Note_on_c, 0, 58, 61
3, 151560, Note_on_c, 0, 58, 0
3, 151560, Note_on_c, 0, 62, 61
3, 151740, Note_on_c, 0, 62, 0
3, 151740, Note_on_c, 0, 58, 0
3, 151740, Note_on_c, 0, 53, 0
3, 151740, Note_on_c, 0, 34, 0
3, 151740, Note_on_c, 0, 46, 0
3, 152280, Note_on_c, 0, 60, 66
3, 152280, Note_on_c, 0, 42, 51
3, 152280, Note_on_c, 0, 54, 51
3, 152913, Note_on_c, 0, 60, 0
3, 153000, Note_on_c, 0, 60, 61
3, 153360, Note_on_c, 0, 60, 0
3, 153360, Note_on_c, 0, 54, 0
3, 153360, Note_on_c, 0, 42, 0
3, 153360, Note_on_c, 0, 62, 62
3, 153360, Note_on_c, 0, 43, 60
3, 153360, Note_on_c, 0, 55, 60
3, 154080, Note_on_c, 0, 62, 0
3, 154080, Note_on_c, 0, 62, 58
3, 154440, Note_on_c, 0, 62, 0
3, 154440, Note_on_c, 0, 55, 0
3, 154440, Note_on_c, 0, 43, 0
3, 154440, Note_on_c, 0, 60, 71
3, 154440, Note_on_c, 0, 39, 52
3, 154440, Note_on_c, 0, 51, 52
3, 155073, Note_on_c, 0, 60, 0
3, 155160, Note_on_c, 0, 60, 62
3, 155520, Note_on_c, 0, 60, 0
3, 155520, Note_on_c, 0, 51, 0
3, 155520, Note_on_c, 0, 39, 0
3, 155520, Note_on_c, 0, 62, 67
3, 155520, Note_on_c, 0, 34, 62
3, 155520, Note_on_c, 0, 46, 62
3, 155880, Note_on_c, 0, 62, 0
3, 155880, Note_on_c, 0, 58, 60
3, 156240, Note_on_c, 0, 58, 0
3, 156240, Note_on_c, 0, 53, 53
3, 156600, Note_on_c, 0, 53, 0
3, 156600, Note_on_c, 0, 46, 0
3, 156600, Note_on_c, 0, 34, 0
3, 156600, Note_on_c, 0, 44, 57
3, 156779, Note_on_c, 0, 44, 0
3, 156960, Note_on_c, 0, 53, 62
3, 157320, Note_on_c, 0, 53, 0
3, 157320, Note_on_c, 0, 44, 54
3, 157680, Note_on_c, 0, 44, 0
3, 157680, Note_on_c, 0, 46, 56
3, 157859, Note_on_c, 0, 46, 0
3, 158040, Note_on_c, 0, 53, 53
3, 158400, Note_on_c, 0, 53, 0
3, 158400, Note_on_c, 0, 46, 56
3, 158760, Note_on_c, 0, 46, 0
3, 158760, Note_on_c, 0, 39, 58
3, 158939, Note_on_c, 0, 39, 0
3, 159120, Note_on_c, 0, 54, 56
3, 159480, Note_on_c, 0, 54, 0
3, 159480, Note_on_c, 0, 51, 57
3, 159840, Note_on_c, 0, 51, 0
3, 159840, Note_on_c, 0, 46, 56
3, 160019, Note_on_c, 0, 46, 0
3, 160200, Note_on_c, 0, 53, 60
3, 160517, Note_on_c, 0, 53, 0
3, 160560, Note_on_c, 0, 46, 69
3, 160560, Note_on_c, 0, 34, 69
3, 160920, Note_on_c, 0, 34, 0
3, 160920, Note_on_c, 0, 46, 0
3, 160920, Note_on_c, 0, 42, 89
3, 160920, Note_on_c, 0, 30, 90
3, 162000, Note_on_c, 0, 30, 0
3, 162000, Note_on_c, 0, 42, 0
3, 162000, Note_on_c, 0, 46, 58
3, 162000, Note_on_c, 0, 34, 59
3, 162540, Note_on_c, 0, 34, 0
3, 162540, Note_on_c, 0, 46, 0
3, 162720, Note_on_c, 0, 46, 57
3, 162720, Note_on_c, 0, 34, 55
3, 163080, Note_on_c, 0, 34, 0
3, 163080, Note_on_c, 0, 46, 0
3, 163080, Note_on_c, 0, 43, 86
3, 163080, Note_on_c, 0, 31, 88
3, 164160, Note_on_c, 0, 31, 0
3, 164160, Note_on_c, 0, 43, 0
3, 164160, Note_on_c, 0, 46, 84
3, 164160, Note_on_c, 0, 34, 80
3, 164700, Note_on_c, 0, 34, 0
3, 164700, Note_on_c, 0, 46, 0
3, 165240, Note_on_c, 0, 50, 76
3, 165240, Note_on_c, 0, 53, 76
3, 165240, Note_on_c, 0, 34, 70
3, 165240, Note_on_c, 0, 46, 70
3, 165419, Note_on_c, 0, 46, 0
3, 165419, Note_on_c, 0, 50, 0
3, 165419, Note_on_c, 0, 53, 0
3, 165419, Note_on_c, 0, 34, 0
3, 165600, Note_on_c, 0, 50, 73
3, 165600, Note_on_c, 0, 53, 73
3, 165600, Note_on_c, 0, 34, 80
3, 165600, Note_on_c, 0, 46, 80
3, 165779, Note_on_c, 0, 46, 0
3, 165779, Note_on_c, 0, 50, 0
3, 165779, Note_on_c, 0, 53, 0
3, 165779, Note_on_c, 0, 34, 0
3, 168480, Note_on_c, 0, 50, 46
3, 168480, Note_on_c, 0, 53, 46
3, 168480, Note_on_c, 0, 34, 44
3, 168480, Note_on_c, 0, 46, 44
3, 168569, Note_on_c, 0, 46, 0
3, 168569, Note_on_c, 0, 50, 0
3, 168569, Note_on_c, 0, 53, 0
3, 168569, Note_on_c, 0, 34, 0
3, 168840, Note_on_c, 0, 50, 49
3, 168840, Note_on_c, 0, 53, 49
3, 168840, Note_on_c, 0, 34, 49
3, 168840, Note_on_c, 0, 46, 49
3, 168929, Note_on_c, 0, 46, 0
3, 168929, Note_on_c, 0, 50, 0
3, 168929, Note_on_c, 0, 53, 0
3, 168929, Note_on_c, 0, 34, 0
3, 169560, Note_on_c, 0, 50, 49
3, 169560, Note_on_c, 0, 53, 49
3, 169560, Note_on_c, 0, 34, 46
3, 169560, Note_on_c, 0, 46, 46
3, 169649, Note_on_c, 0, 46, 0
3, 169649, Note_on_c, 0, 50, 0
3, 169649, Note_on_c, 0, 53, 0
3, 169649, Note_on_c, 0, 34, 0
3, 169920, Note_on_c, 0, 50, 48
3, 169920, Note_on_c, 0, 53, 48
3, 169920, Note_on_c, 0, 34, 51
3, 169920, Note_on_c, 0, 46, 51
3, 170009, Note_on_c, 0, 46, 0
3, 170009, Note_on_c, 0, 50, 0
3, 170009, Note_on_c, 0, 53, 0
3, 170009, Note_on_c, 0, 34, 0
3, 170640, Note_on_c, 0, 46, 47
3, 170640, Note_on_c, 0, 34, 51
3, 170729, Note_on_c, 0, 34, 0
3, 170729, Note_on_c, 0, 46, 0
3, 170729, End_track
0, 0, End_of_file
