0, 0, Header, 1, 3, 360
1, 0, Start_track
1, 0, Title_t, "untitled"
1, 0, Time_signature, 2, 1, 48, 8
1, 0, Key_signature, 4, "major"
1, 0, Tempo, 333333
1, 174240, Tempo, 300000
1, 186719, Tempo, 300000
1, 186825, Tempo, 304460
1, 186930, Tempo, 309055
1, 187035, Tempo, 313791
1, 187247, Tempo, 323712
1, 187352, Tempo, 328911
1, 187457, Tempo, 334280
1, 187563, Tempo, 339828
1, 187668, Tempo, 345562
1, 187774, Tempo, 351494
1, 187879, Tempo, 357632
1, 187985, Tempo, 363989
1, 188090, Tempo, 370576
1, 188196, Tempo, 377406
1, 188301, Tempo, 384492
1, 188407, Tempo, 391824
1, 188519, Tempo, 400000
1, 188640, Key_signature, 2, "major"
1, 188640, Tempo, 333333
1, 250920, Tempo, 333333
1, 250969, Tempo, 338295
1, 251019, Tempo, 343407
1, 251068, Tempo, 348655
1, 251117, Tempo, 354087
1, 251166, Tempo, 359691
1, 251216, Tempo, 365475
1, 251265, Tempo, 371448
1, 251314, Tempo, 377620
1, 251363, Tempo, 383975
1, 251412, Tempo, 390574
1, 251462, Tempo, 397404
1, 251511, Tempo, 404476
1, 251560, Tempo, 411805
1, 251609, Tempo, 419375
1, 251658, Tempo, 427259
1, 251708, Tempo, 435445
1, 251760, Tempo, 444444
1, 252000, Tempo, 333333
1, 255240, Tempo, 333333
1, 255289, Tempo, 338295
1, 255339, Tempo, 343407
1, 255388, Tempo, 348655
1, 255437, Tempo, 354087
1, 255486, Tempo, 359691
1, 255536, Tempo, 365475
1, 255585, Tempo, 371448
1, 255634, Tempo, 377620
1, 255683, Tempo, 383975
1, 255732, Tempo, 390574
1, 255782, Tempo, 397404
1, 255831, Tempo, 404476
1, 255880, Tempo, 411805
1, 255929, Tempo, 419375
1, 255978, Tempo, 427259
1, 256028, Tempo, 435445
1, 256080, Tempo, 444444
1, 256320, Tempo, 333333
1, 259560, Tempo, 333333
1, 259595, Tempo, 338295
1, 259631, Tempo, 343407
1, 259665, Tempo, 348675
1, 259701, Tempo, 354108
1, 259736, Tempo, 359712
1, 259771, Tempo, 365497
1, 259806, Tempo, 371494
1, 259841, Tempo, 377667
1, 259877, Tempo, 384049
1, 259912, Tempo, 390650
1, 259947, Tempo, 397483
1, 259982, Tempo, 404558
1, 260017, Tempo, 411890
1, 260052, Tempo, 419492
1, 260087, Tempo, 427381
1, 260123, Tempo, 435572
1, 260159, Tempo, 444444
1, 260640, Tempo, 333333
1, 271080, Tempo, 333333
1, 271129, Tempo, 338295
1, 271179, Tempo, 343407
1, 271228, Tempo, 348655
1, 271277, Tempo, 354087
1, 271326, Tempo, 359691
1, 271376, Tempo, 365475
1, 271425, Tempo, 371448
1, 271474, Tempo, 377620
1, 271523, Tempo, 383975
1, 271572, Tempo, 390574
1, 271622, Tempo, 397404
1, 271671, Tempo, 404476
1, 271720, Tempo, 411805
1, 271769, Tempo, 419375
1, 271818, Tempo, 427259
1, 271868, Tempo, 435445
1, 271920, Tempo, 444444
1, 272160, Tempo, 333333
1, 329760, Tempo, 333333
1, 329831, Tempo, 338295
1, 329901, Tempo, 343407
1, 329971, Tempo, 348655
1, 330041, Tempo, 354087
1, 330112, Tempo, 359691
1, 330182, Tempo, 365475
1, 330252, Tempo, 371425
1, 330323, Tempo, 377596
1, 330393, Tempo, 383975
1, 330463, Tempo, 390574
1, 330534, Tempo, 397404
1, 330604, Tempo, 404449
1, 330674, Tempo, 411777
1, 330744, Tempo, 419375
1, 330815, Tempo, 427259
1, 330885, Tempo, 435414
1, 330960, Tempo, 444444
1, 331200, Tempo, 333333
1, 349920, Tempo, 333333
1, 350078, Tempo, 338295
1, 350235, Tempo, 343407
1, 350393, Tempo, 348675
1, 350550, Tempo, 354108
1, 350708, Tempo, 359712
1, 350865, Tempo, 365497
1, 351023, Tempo, 371471
1, 351180, Tempo, 377644
1, 351495, Tempo, 390625
1, 351653, Tempo, 397456
1, 351810, Tempo, 404531
1, 351968, Tempo, 411862
1, 352125, Tempo, 419463
1, 352283, Tempo, 427350
1, 352440, Tempo, 435540
1, 352605, Tempo, 444444
1, 352800, Time_signature, 4, 2, 24, 8
1, 352800, Tempo, 1000000
1, 361440, Time_signature, 2, 1, 48, 8
1, 361440, Key_signature, 0, "major"
1, 361440, Tempo, 333333
1, 489600, Key_signature, 4, "major"
1, 724320, Tempo, 333333
1, 724395, Tempo, 338295
1, 724469, Tempo, 343387
1, 724544, Tempo, 348655
1, 724618, Tempo, 354066
1, 724693, Tempo, 359669
1, 724767, Tempo, 365430
1, 724842, Tempo, 371402
1, 724916, Tempo, 377548
1, 724991, Tempo, 383926
1, 725066, Tempo, 390498
1, 725140, Tempo, 397325
1, 725214, Tempo, 404367
1, 725289, Tempo, 411692
1, 725364, Tempo, 419258
1, 725438, Tempo, 427137
1, 725513, Tempo, 435319
1, 725593, Tempo, 444444
1, 725760, Tempo, 333333
1, 767520, Tempo, 352941
1, 768959, Tempo, 375000
1, 771840, Tempo, 375000
1, 779760, Tempo, 375000
1, 779802, Tempo, 380590
1, 779844, Tempo, 386349
1, 779887, Tempo, 392259
1, 779929, Tempo, 398380
1, 779971, Tempo, 404694
1, 780013, Tempo, 411212
1, 780056, Tempo, 417944
1, 780098, Tempo, 424899
1, 780140, Tempo, 432059
1, 780182, Tempo, 439496
1, 780224, Tempo, 447194
1, 780266, Tempo, 455166
1, 780309, Tempo, 463428
1, 780351, Tempo, 471995
1, 780393, Tempo, 480846
1, 780435, Tempo, 490076
1, 780479, Tempo, 500000
1, 780480, Tempo, 375000
1, 786960, Tempo, 375000
1, 786983, Tempo, 380952
1, 787005, Tempo, 387097
1, 787028, Tempo, 393443
1, 787050, Tempo, 400000
1, 787073, Tempo, 406780
1, 787095, Tempo, 413793
1, 787118, Tempo, 421053
1, 787140, Tempo, 428571
1, 787163, Tempo, 436364
1, 787185, Tempo, 444444
1, 787208, Tempo, 452830
1, 787230, Tempo, 461538
1, 787253, Tempo, 470588
1, 787275, Tempo, 480000
1, 787298, Tempo, 489796
1, 787320, Tempo, 500000
1, 787680, Tempo, 352941
1, 796320, Tempo, 352941
1, 796392, Tempo, 358230
1, 796464, Tempo, 363702
1, 796535, Tempo, 369322
1, 796607, Tempo, 375141
1, 796679, Tempo, 381122
1, 796751, Tempo, 387322
1, 796822, Tempo, 393701
1, 796894, Tempo, 400320
1, 796965, Tempo, 407138
1, 797037, Tempo, 414222
1, 797109, Tempo, 421526
1, 797181, Tempo, 429123
1, 797252, Tempo, 436967
1, 797324, Tempo, 445137
1, 797396, Tempo, 453583
1, 797468, Tempo, 462392
1, 797546, Tempo, 472441
1, 797760, Tempo, 300000
1, 797760, End_track
2, 0, Start_track
2, 0, Title_t, "Primo"
2, 0, Program_c, 0, 0
2, 0, Control_c, 0, 7, 105
2, 0, Control_c, 0, 10, 79
2, 0, Control_c, 0, 91, 60
2, 0, Control_c, 0, 121, 0
2, 0, Control_c, 0, 121, 0
2, 0, Control_c, 0, 91, 60
2, 0, Control_c, 0, 10, 51
2, 0, Control_c, 0, 7, 100
2, 1440, Note_on_c, 0, 83, 63
2, 1440, Note_on_c, 0, 71, 64
2, 1560, Note_on_c, 0, 71, 0
2, 1560, Note_on_c, 0, 83, 0
2, 1560, Note_on_c, 0, 93, 91
2, 1560, Note_on_c, 0, 81, 91
2, 1679, Note_on_c, 0, 81, 0
2, 1679, Note_on_c, 0, 93, 0
2, 1679, Note_on_c, 0, 94, 84
2, 1679, Note_on_c, 0, 82, 90
2, 1800, Note_on_c, 0, 82, 0
2, 1800, Note_on_c, 0, 94, 0
2, 1800, Note_on_c, 0, 95, 89
2, 1800, Note_on_c, 0, 83, 80
2, 2039, Note_on_c, 0, 83, 0
2, 2039, Note_on_c, 0, 95, 0
2, 2039, Note_on_c, 0, 92, 74
2, 2039, Note_on_c, 0, 80, 69
2, 2160, Note_on_c, 0, 80, 0
2, 2160, Note_on_c, 0, 92, 0
2, 2160, Note_on_c, 0, 93, 81
2, 2160, Note_on_c, 0, 81, 80
2, 2399, Note_on_c, 0, 81, 0
2, 2399, Note_on_c, 0, 93, 0
2, 2399, Note_on_c, 0, 90, 67
2, 2399, Note_on_c, 0, 78, 69
2, 2520, Note_on_c, 0, 78, 0
2, 2520, Note_on_c, 0, 90, 0
2, 2520, Note_on_c, 0, 92, 80
2, 2520, Note_on_c, 0, 80, 82
2, 2759, Note_on_c, 0, 80, 0
2, 2759, Note_on_c, 0, 92, 0
2, 2759, Note_on_c, 0, 85, 55
2, 2759, Note_on_c, 0, 73, 57
2, 2880, Note_on_c, 0, 73, 0
2, 2880, Note_on_c, 0, 85, 0
2, 2880, Note_on_c, 0, 87, 78
2, 2880, Note_on_c, 0, 75, 82
2, 3000, Note_on_c, 0, 75, 0
2, 3000, Note_on_c, 0, 87, 0
2, 3000, Note_on_c, 0, 93, 91
2, 3000, Note_on_c, 0, 81, 91
2, 3119, Note_on_c, 0, 81, 0
2, 3119, Note_on_c, 0, 93, 0
2, 3119, Note_on_c, 0, 94, 83
2, 3119, Note_on_c, 0, 82, 81
2, 3240, Note_on_c, 0, 82, 0
2, 3240, Note_on_c, 0, 94, 0
2, 3240, Note_on_c, 0, 95, 81
2, 3240, Note_on_c, 0, 83, 82
2, 3479, Note_on_c, 0, 83, 0
2, 3479, Note_on_c, 0, 95, 0
2, 3479, Note_on_c, 0, 92, 72
2, 3479, Note_on_c, 0, 80, 71
2, 3600, Note_on_c, 0, 80, 0
2, 3600, Note_on_c, 0, 92, 0
2, 3600, Note_on_c, 0, 93, 83
2, 3600, Note_on_c, 0, 81, 78
2, 3839, Note_on_c, 0, 81, 0
2, 3839, Note_on_c, 0, 93, 0
2, 3839, Note_on_c, 0, 90, 67
2, 3839, Note_on_c, 0, 78, 67
2, 3960, Note_on_c, 0, 78, 0
2, 3960, Note_on_c, 0, 90, 0
2, 3960, Note_on_c, 0, 92, 89
2, 3960, Note_on_c, 0, 80, 85
2, 4199, Note_on_c, 0, 80, 0
2, 4199, Note_on_c, 0, 92, 0
2, 4199, Note_on_c, 0, 85, 66
2, 4199, Note_on_c, 0, 73, 62
2, 4320, Note_on_c, 0, 73, 0
2, 4320, Note_on_c, 0, 85, 0
2, 4320, Note_on_c, 0, 87, 78
2, 4320, Note_on_c, 0, 75, 81
2, 4440, Note_on_c, 0, 75, 0
2, 4440, Note_on_c, 0, 87, 0
2, 4440, Note_on_c, 0, 93, 91
2, 4440, Note_on_c, 0, 81, 91
2, 4559, Note_on_c, 0, 81, 0
2, 4559, Note_on_c, 0, 93, 0
2, 4559, Note_on_c, 0, 94, 83
2, 4559, Note_on_c, 0, 82, 81
2, 4680, Note_on_c, 0, 82, 0
2, 4680, Note_on_c, 0, 94, 0
2, 4680, Note_on_c, 0, 95, 83
2, 4680, Note_on_c, 0, 83, 83
2, 4919, Note_on_c, 0, 83, 0
2, 4919, Note_on_c, 0, 95, 0
2, 4919, Note_on_c, 0, 92, 69
2, 4919, Note_on_c, 0, 80, 73
2, 5040, Note_on_c, 0, 80, 0
2, 5040, Note_on_c, 0, 92, 0
2, 5040, Note_on_c, 0, 93, 84
2, 5040, Note_on_c, 0, 81, 79
2, 5279, Note_on_c, 0, 81, 0
2, 5279, Note_on_c, 0, 93, 0
2, 5279, Note_on_c, 0, 90, 65
2, 5279, Note_on_c, 0, 78, 69
2, 5400, Note_on_c, 0, 78, 0
2, 5400, Note_on_c, 0, 90, 0
2, 5400, Note_on_c, 0, 92, 76
2, 5400, Note_on_c, 0, 80, 84
2, 5639, Note_on_c, 0, 80, 0
2, 5639, Note_on_c, 0, 92, 0
2, 5639, Note_on_c, 0, 87, 65
2, 5639, Note_on_c, 0, 75, 62
2, 5760, Note_on_c, 0, 75, 0
2, 5760, Note_on_c, 0, 87, 0
2, 5760, Note_on_c, 0, 88, 81
2, 5760, Note_on_c, 0, 76, 79
2, 5999, Note_on_c, 0, 76, 0
2, 5999, Note_on_c, 0, 88, 0
2, 5999, Note_on_c, 0, 85, 66
2, 5999, Note_on_c, 0, 73, 69
2, 6120, Note_on_c, 0, 73, 0
2, 6120, Note_on_c, 0, 85, 0
2, 6120, Note_on_c, 0, 87, 87
2, 6120, Note_on_c, 0, 75, 85
2, 6359, Note_on_c, 0, 75, 0
2, 6359, Note_on_c, 0, 87, 0
2, 6359, Note_on_c, 0, 83, 91
2, 6359, Note_on_c, 0, 71, 61
2, 6480, Note_on_c, 0, 71, 0
2, 6480, Note_on_c, 0, 83, 0
2, 6480, Note_on_c, 0, 85, 88
2, 6480, Note_on_c, 0, 73, 83
2, 6600, Note_on_c, 0, 73, 0
2, 6600, Note_on_c, 0, 85, 0
2, 6600, Note_on_c, 0, 80, 63
2, 6600, Note_on_c, 0, 68, 65
2, 6719, Note_on_c, 0, 68, 0
2, 6719, Note_on_c, 0, 80, 0
2, 6719, Note_on_c, 0, 81, 84
2, 6719, Note_on_c, 0, 69, 83
2, 6840, Note_on_c, 0, 69, 0
2, 6840, Note_on_c, 0, 81, 0
2, 6840, Note_on_c, 0, 75, 71
2, 6840, Note_on_c, 0, 78, 71
2, 6840, Note_on_c, 0, 66, 67
2, 7079, Note_on_c, 0, 66, 0
2, 7079, Note_on_c, 0, 78, 0
2, 7079, Note_on_c, 0, 75, 0
2, 7079, Note_on_c, 0, 83, 89
2, 7079, Note_on_c, 0, 71, 91
2, 7200, Note_on_c, 0, 71, 0
2, 7200, Note_on_c, 0, 83, 0
2, 7200, Note_on_c, 0, 76, 62
2, 7200, Note_on_c, 0, 68, 63
2, 7439, Note_on_c, 0, 68, 0
2, 7439, Note_on_c, 0, 76, 0
2, 7439, Note_on_c, 0, 78, 83
2, 7439, Note_on_c, 0, 69, 80
2, 7560, Note_on_c, 0, 69, 0
2, 7560, Note_on_c, 0, 78, 0
2, 7560, Note_on_c, 0, 76, 87
2, 7560, Note_on_c, 0, 80, 87
2, 7560, Note_on_c, 0, 68, 69
2, 7680, Note_on_c, 0, 68, 0
2, 7680, Note_on_c, 0, 80, 0
2, 7680, Note_on_c, 0, 76, 0
2, 7680, Note_on_c, 0, 78, 81
2, 7680, Note_on_c, 0, 81, 81
2, 7680, Note_on_c, 0, 69, 81
2, 7799, Note_on_c, 0, 69, 0
2, 7799, Note_on_c, 0, 81, 0
2, 7799, Note_on_c, 0, 78, 0
2, 7799, Note_on_c, 0, 79, 85
2, 7799, Note_on_c, 0, 82, 85
2, 7799, Note_on_c, 0, 70, 84
2, 7920, Note_on_c, 0, 70, 0
2, 7920, Note_on_c, 0, 82, 0
2, 7920, Note_on_c, 0, 79, 0
2, 7920, Note_on_c, 0, 80, 92
2, 7920, Note_on_c, 0, 83, 92
2, 7920, Note_on_c, 0, 71, 92
2, 7920, Note_on_c, 0, 68, 29
2, 8040, Note_on_c, 0, 68, 0
2, 8040, Note_on_c, 0, 69, 44
2, 8159, Note_on_c, 0, 69, 0
2, 8159, Note_on_c, 0, 70, 44
2, 8280, Note_on_c, 0, 70, 0
2, 8280, Note_on_c, 0, 71, 0
2, 8280, Note_on_c, 0, 68, 81
2, 8280, Note_on_c, 0, 71, 81
2, 8519, Note_on_c, 0, 71, 0
2, 8519, Note_on_c, 0, 80, 0
2, 8519, Note_on_c, 0, 83, 0
2, 8519, Note_on_c, 0, 68, 0
2, 8519, Note_on_c, 0, 83, 78
2, 8519, Note_on_c, 0, 71, 79
2, 8640, Note_on_c, 0, 71, 0
2, 8640, Note_on_c, 0, 83, 0
2, 8640, Note_on_c, 0, 76, 84
2, 8640, Note_on_c, 0, 80, 84
2, 8640, Note_on_c, 0, 85, 84
2, 8640, Note_on_c, 0, 73, 91
2, 8640, Note_on_c, 0, 68, 39
2, 8760, Note_on_c, 0, 73, 0
2, 8760, Note_on_c, 0, 85, 0
2, 8760, Note_on_c, 0, 76, 0
2, 8760, Note_on_c, 0, 80, 0
2, 8760, Note_on_c, 0, 83, 72
2, 8760, Note_on_c, 0, 71, 71
2, 8879, Note_on_c, 0, 71, 0
2, 8879, Note_on_c, 0, 83, 0
2, 8879, Note_on_c, 0, 85, 86
2, 8879, Note_on_c, 0, 73, 81
2, 9000, Note_on_c, 0, 73, 0
2, 9000, Note_on_c, 0, 85, 0
2, 9000, Note_on_c, 0, 68, 0
2, 9000, Note_on_c, 0, 76, 92
2, 9000, Note_on_c, 0, 80, 92
2, 9000, Note_on_c, 0, 83, 92
2, 9000, Note_on_c, 0, 68, 92
2, 9000, Note_on_c, 0, 71, 92
2, 9120, Note_on_c, 0, 71, 0
2, 9120, Note_on_c, 0, 68, 0
2, 9120, Note_on_c, 0, 69, 67
2, 9239, Note_on_c, 0, 69, 0
2, 9239, Note_on_c, 0, 70, 81
2, 9360, Note_on_c, 0, 70, 0
2, 9360, Note_on_c, 0, 68, 92
2, 9360, Note_on_c, 0, 71, 92
2, 9599, Note_on_c, 0, 71, 0
2, 9599, Note_on_c, 0, 76, 0
2, 9599, Note_on_c, 0, 83, 0
2, 9599, Note_on_c, 0, 80, 0
2, 9599, Note_on_c, 0, 68, 0
2, 9599, Note_on_c, 0, 83, 78
2, 9599, Note_on_c, 0, 80, 91
2, 9720, Note_on_c, 0, 80, 0
2, 9720, Note_on_c, 0, 83, 0
2, 9720, Note_on_c, 0, 81, 92
2, 9720, Note_on_c, 0, 85, 92
2, 9720, Note_on_c, 0, 78, 92
2, 9840, Note_on_c, 0, 78, 0
2, 9840, Note_on_c, 0, 85, 0
2, 9840, Note_on_c, 0, 81, 0
2, 9840, Note_on_c, 0, 83, 71
2, 9840, Note_on_c, 0, 80, 82
2, 9959, Note_on_c, 0, 80, 0
2, 9959, Note_on_c, 0, 83, 0
2, 9959, Note_on_c, 0, 85, 82
2, 9959, Note_on_c, 0, 78, 69
2, 10080, Note_on_c, 0, 78, 0
2, 10080, Note_on_c, 0, 85, 0
2, 10080, Note_on_c, 0, 81, 59
2, 10080, Note_on_c, 0, 73, 67
2, 10080, Note_on_c, 0, 76, 67
2, 10319, Note_on_c, 0, 76, 0
2, 10319, Note_on_c, 0, 73, 0
2, 10319, Note_on_c, 0, 81, 0
2, 10319, Note_on_c, 0, 81, 76
2, 10319, Note_on_c, 0, 78, 84
2, 10440, Note_on_c, 0, 78, 0
2, 10440, Note_on_c, 0, 81, 0
2, 10440, Note_on_c, 0, 80, 92
2, 10440, Note_on_c, 0, 83, 92
2, 10440, Note_on_c, 0, 76, 92
2, 10560, Note_on_c, 0, 76, 0
2, 10560, Note_on_c, 0, 83, 0
2, 10560, Note_on_c, 0, 80, 0
2, 10560, Note_on_c, 0, 81, 70
2, 10560, Note_on_c, 0, 78, 86
2, 10679, Note_on_c, 0, 78, 0
2, 10679, Note_on_c, 0, 81, 0
2, 10679, Note_on_c, 0, 83, 85
2, 10679, Note_on_c, 0, 76, 74
2, 10800, Note_on_c, 0, 76, 0
2, 10800, Note_on_c, 0, 83, 0
2, 10800, Note_on_c, 0, 80, 67
2, 10800, Note_on_c, 0, 71, 68
2, 10800, Note_on_c, 0, 75, 68
2, 11039, Note_on_c, 0, 75, 0
2, 11039, Note_on_c, 0, 71, 0
2, 11039, Note_on_c, 0, 80, 0
2, 11039, Note_on_c, 0, 78, 72
2, 11039, Note_on_c, 0, 75, 76
2, 11160, Note_on_c, 0, 75, 0
2, 11160, Note_on_c, 0, 78, 0
2, 11160, Note_on_c, 0, 76, 92
2, 11160, Note_on_c, 0, 80, 92
2, 11160, Note_on_c, 0, 73, 92
2, 11280, Note_on_c, 0, 73, 0
2, 11280, Note_on_c, 0, 80, 0
2, 11280, Note_on_c, 0, 76, 0
2, 11280, Note_on_c, 0, 78, 71
2, 11280, Note_on_c, 0, 75, 85
2, 11399, Note_on_c, 0, 75, 0
2, 11399, Note_on_c, 0, 78, 0
2, 11399, Note_on_c, 0, 80, 85
2, 11399, Note_on_c, 0, 73, 71
2, 11520, Note_on_c, 0, 73, 0
2, 11520, Note_on_c, 0, 80, 0
2, 11520, Note_on_c, 0, 76, 64
2, 11520, Note_on_c, 0, 72, 69
2, 11759, Note_on_c, 0, 72, 0
2, 11759, Note_on_c, 0, 76, 0
2, 11759, Note_on_c, 0, 75, 81
2, 11759, Note_on_c, 0, 78, 81
2, 11759, Note_on_c, 0, 66, 64
2, 11880, Note_on_c, 0, 66, 0
2, 11880, Note_on_c, 0, 78, 0
2, 11880, Note_on_c, 0, 75, 0
2, 11880, Note_on_c, 0, 75, 79
2, 11880, Note_on_c, 0, 78, 79
2, 11880, Note_on_c, 0, 73, 91
2, 11880, Note_on_c, 0, 66, 36
2, 12119, Note_on_c, 0, 66, 0
2, 12119, Note_on_c, 0, 75, 0
2, 12119, Note_on_c, 0, 78, 0
2, 12119, Note_on_c, 0, 76, 79
2, 12119, Note_on_c, 0, 80, 79
2, 12119, Note_on_c, 0, 68, 45
2, 12240, Note_on_c, 0, 68, 0
2, 12240, Note_on_c, 0, 73, 0
2, 12240, Note_on_c, 0, 76, 0
2, 12240, Note_on_c, 0, 80, 0
2, 12240, Note_on_c, 0, 77, 77
2, 12240, Note_on_c, 0, 80, 77
2, 12240, Note_on_c, 0, 74, 82
2, 12240, Note_on_c, 0, 68, 44
2, 12479, Note_on_c, 0, 68, 0
2, 12479, Note_on_c, 0, 77, 0
2, 12479, Note_on_c, 0, 80, 0
2, 12479, Note_on_c, 0, 78, 87
2, 12479, Note_on_c, 0, 81, 87
2, 12479, Note_on_c, 0, 69, 44
2, 12600, Note_on_c, 0, 69, 0
2, 12600, Note_on_c, 0, 74, 0
2, 12600, Note_on_c, 0, 78, 0
2, 12600, Note_on_c, 0, 81, 0
2, 12600, Note_on_c, 0, 78, 78
2, 12600, Note_on_c, 0, 81, 78
2, 12600, Note_on_c, 0, 75, 87
2, 12600, Note_on_c, 0, 69, 42
2, 12720, Note_on_c, 0, 69, 0
2, 12720, Note_on_c, 0, 78, 0
2, 12720, Note_on_c, 0, 81, 0
2, 12720, Note_on_c, 0, 82, 86
2, 12720, Note_on_c, 0, 70, 45
2, 12839, Note_on_c, 0, 70, 0
2, 12839, Note_on_c, 0, 82, 0
2, 12839, Note_on_c, 0, 83, 80
2, 12839, Note_on_c, 0, 71, 47
2, 12960, Note_on_c, 0, 71, 0
2, 12960, Note_on_c, 0, 83, 0
2, 12960, Note_on_c, 0, 75, 0
2, 12960, Note_on_c, 0, 76, 70
2, 12960, Note_on_c, 0, 80, 70
2, 12960, Note_on_c, 0, 68, 58
2, 13080, Note_on_c, 0, 68, 0
2, 13080, Note_on_c, 0, 80, 0
2, 13080, Note_on_c, 0, 76, 0
2, 13080, Note_on_c, 0, 78, 83
2, 13080, Note_on_c, 0, 81, 83
2, 13080, Note_on_c, 0, 69, 78
2, 13199, Note_on_c, 0, 69, 0
2, 13199, Note_on_c, 0, 81, 0
2, 13199, Note_on_c, 0, 78, 0
2, 13199, Note_on_c, 0, 79, 82
2, 13199, Note_on_c, 0, 82, 82
2, 13199, Note_on_c, 0, 70, 86
2, 13320, Note_on_c, 0, 70, 0
2, 13320, Note_on_c, 0, 82, 0
2, 13320, Note_on_c, 0, 79, 0
2, 13320, Note_on_c, 0, 80, 92
2, 13320, Note_on_c, 0, 83, 92
2, 13320, Note_on_c, 0, 71, 92
2, 13320, Note_on_c, 0, 68, 35
2, 13440, Note_on_c, 0, 68, 0
2, 13440, Note_on_c, 0, 69, 37
2, 13559, Note_on_c, 0, 69, 0
2, 13559, Note_on_c, 0, 70, 46
2, 13680, Note_on_c, 0, 70, 0
2, 13680, Note_on_c, 0, 71, 0
2, 13680, Note_on_c, 0, 71, 79
2, 13680, Note_on_c, 0, 68, 35
2, 13919, Note_on_c, 0, 71, 0
2, 13919, Note_on_c, 0, 80, 0
2, 13919, Note_on_c, 0, 83, 0
2, 13919, Note_on_c, 0, 76, 86
2, 13919, Note_on_c, 0, 80, 86
2, 13919, Note_on_c, 0, 85, 86
2, 13919, Note_on_c, 0, 73, 84
2, 14040, Note_on_c, 0, 73, 0
2, 14040, Note_on_c, 0, 80, 0
2, 14040, Note_on_c, 0, 85, 0
2, 14040, Note_on_c, 0, 76, 0
2, 14040, Note_on_c, 0, 76, 92
2, 14040, Note_on_c, 0, 80, 92
2, 14040, Note_on_c, 0, 83, 92
2, 14040, Note_on_c, 0, 71, 72
2, 14279, Note_on_c, 0, 71, 0
2, 14279, Note_on_c, 0, 73, 83
2, 14400, Note_on_c, 0, 73, 0
2, 14400, Note_on_c, 0, 68, 0
2, 14400, Note_on_c, 0, 71, 92
2, 14400, Note_on_c, 0, 68, 43
2, 14520, Note_on_c, 0, 71, 0
2, 14520, Note_on_c, 0, 76, 0
2, 14520, Note_on_c, 0, 83, 0
2, 14520, Note_on_c, 0, 80, 0
2, 14520, Note_on_c, 0, 83, 72
2, 14520, Note_on_c, 0, 73, 84
2, 14639, Note_on_c, 0, 73, 0
2, 14639, Note_on_c, 0, 83, 0
2, 14639, Note_on_c, 0, 85, 85
2, 14639, Note_on_c, 0, 75, 83
2, 14760, Note_on_c, 0, 75, 0
2, 14760, Note_on_c, 0, 85, 0
2, 14760, Note_on_c, 0, 68, 0
2, 14760, Note_on_c, 0, 76, 92
2, 14760, Note_on_c, 0, 80, 92
2, 14760, Note_on_c, 0, 83, 92
2, 14760, Note_on_c, 0, 71, 64
2, 14760, Note_on_c, 0, 68, 42
2, 14880, Note_on_c, 0, 71, 0
2, 14880, Note_on_c, 0, 69, 66
2, 14999, Note_on_c, 0, 69, 0
2, 14999, Note_on_c, 0, 70, 79
2, 15120, Note_on_c, 0, 70, 0
2, 15120, Note_on_c, 0, 68, 0
2, 15120, Note_on_c, 0, 71, 78
2, 15120, Note_on_c, 0, 68, 39
2, 15359, Note_on_c, 0, 71, 0
2, 15359, Note_on_c, 0, 76, 0
2, 15359, Note_on_c, 0, 83, 0
2, 15359, Note_on_c, 0, 80, 0
2, 15359, Note_on_c, 0, 83, 77
2, 15359, Note_on_c, 0, 80, 91
2, 15480, Note_on_c, 0, 80, 0
2, 15480, Note_on_c, 0, 83, 0
2, 15480, Note_on_c, 0, 68, 0
2, 15480, Note_on_c, 0, 81, 92
2, 15480, Note_on_c, 0, 85, 92
2, 15480, Note_on_c, 0, 78, 92
2, 15600, Note_on_c, 0, 78, 0
2, 15600, Note_on_c, 0, 85, 0
2, 15600, Note_on_c, 0, 81, 0
2, 15600, Note_on_c, 0, 83, 74
2, 15600, Note_on_c, 0, 80, 81
2, 15719, Note_on_c, 0, 80, 0
2, 15719, Note_on_c, 0, 83, 0
2, 15719, Note_on_c, 0, 85, 82
2, 15719, Note_on_c, 0, 78, 70
2, 15840, Note_on_c, 0, 78, 0
2, 15840, Note_on_c, 0, 85, 0
2, 15840, Note_on_c, 0, 81, 66
2, 15840, Note_on_c, 0, 73, 70
2, 15840, Note_on_c, 0, 76, 70
2, 16079, Note_on_c, 0, 76, 0
2, 16079, Note_on_c, 0, 73, 0
2, 16079, Note_on_c, 0, 81, 0
2, 16079, Note_on_c, 0, 81, 76
2, 16079, Note_on_c, 0, 78, 82
2, 16200, Note_on_c, 0, 78, 0
2, 16200, Note_on_c, 0, 81, 0
2, 16200, Note_on_c, 0, 80, 92
2, 16200, Note_on_c, 0, 83, 92
2, 16200, Note_on_c, 0, 76, 92
2, 16320, Note_on_c, 0, 76, 0
2, 16320, Note_on_c, 0, 83, 0
2, 16320, Note_on_c, 0, 80, 0
2, 16320, Note_on_c, 0, 81, 69
2, 16320, Note_on_c, 0, 78, 85
2, 16439, Note_on_c, 0, 78, 0
2, 16439, Note_on_c, 0, 81, 0
2, 16439, Note_on_c, 0, 83, 88
2, 16439, Note_on_c, 0, 76, 71
2, 16560, Note_on_c, 0, 76, 0
2, 16560, Note_on_c, 0, 83, 0
2, 16560, Note_on_c, 0, 80, 68
2, 16560, Note_on_c, 0, 71, 72
2, 16560, Note_on_c, 0, 75, 72
2, 16799, Note_on_c, 0, 75, 0
2, 16799, Note_on_c, 0, 71, 0
2, 16799, Note_on_c, 0, 80, 0
2, 16799, Note_on_c, 0, 78, 73
2, 16799, Note_on_c, 0, 75, 73
2, 16920, Note_on_c, 0, 75, 0
2, 16920, Note_on_c, 0, 78, 0
2, 16920, Note_on_c, 0, 76, 92
2, 16920, Note_on_c, 0, 80, 92
2, 16920, Note_on_c, 0, 73, 92
2, 17040, Note_on_c, 0, 73, 0
2, 17040, Note_on_c, 0, 80, 0
2, 17040, Note_on_c, 0, 76, 0
2, 17040, Note_on_c, 0, 78, 72
2, 17040, Note_on_c, 0, 75, 85
2, 17159, Note_on_c, 0, 75, 0
2, 17159, Note_on_c, 0, 78, 0
2, 17159, Note_on_c, 0, 80, 89
2, 17159, Note_on_c, 0, 73, 71
2, 17280, Note_on_c, 0, 73, 0
2, 17280, Note_on_c, 0, 80, 0
2, 17280, Note_on_c, 0, 78, 70
2, 17280, Note_on_c, 0, 69, 62
2, 17519, Note_on_c, 0, 78, 0
2, 17519, Note_on_c, 0, 81, 82
2, 17640, Note_on_c, 0, 81, 0
2, 17640, Note_on_c, 0, 69, 0
2, 17640, Note_on_c, 0, 77, 71
2, 17640, Note_on_c, 0, 80, 71
2, 17640, Note_on_c, 0, 71, 85
2, 17879, Note_on_c, 0, 80, 0
2, 17879, Note_on_c, 0, 77, 0
2, 17879, Note_on_c, 0, 83, 85
2, 18000, Note_on_c, 0, 83, 0
2, 18000, Note_on_c, 0, 71, 0
2, 18000, Note_on_c, 0, 76, 69
2, 18000, Note_on_c, 0, 81, 69
2, 18000, Note_on_c, 0, 73, 87
2, 18239, Note_on_c, 0, 73, 0
2, 18239, Note_on_c, 0, 81, 0
2, 18239, Note_on_c, 0, 76, 0
2, 18239, Note_on_c, 0, 78, 86
2, 18239, Note_on_c, 0, 85, 86
2, 18239, Note_on_c, 0, 75, 81
2, 18360, Note_on_c, 0, 75, 0
2, 18360, Note_on_c, 0, 85, 0
2, 18360, Note_on_c, 0, 78, 0
2, 18360, Note_on_c, 0, 76, 66
2, 18360, Note_on_c, 0, 80, 66
2, 18360, Note_on_c, 0, 74, 73
2, 18480, Note_on_c, 0, 80, 0
2, 18480, Note_on_c, 0, 76, 0
2, 18480, Note_on_c, 0, 81, 79
2, 18599, Note_on_c, 0, 81, 0
2, 18599, Note_on_c, 0, 83, 85
2, 18720, Note_on_c, 0, 83, 0
2, 18720, Note_on_c, 0, 74, 0
2, 18720, Note_on_c, 0, 81, 86
2, 18720, Note_on_c, 0, 85, 86
2, 18720, Note_on_c, 0, 73, 71
2, 18840, Note_on_c, 0, 73, 0
2, 18840, Note_on_c, 0, 85, 0
2, 18840, Note_on_c, 0, 81, 0
2, 18840, Note_on_c, 0, 83, 86
2, 18840, Note_on_c, 0, 86, 86
2, 18840, Note_on_c, 0, 74, 84
2, 18959, Note_on_c, 0, 74, 0
2, 18959, Note_on_c, 0, 86, 0
2, 18959, Note_on_c, 0, 83, 0
2, 18959, Note_on_c, 0, 84, 81
2, 18959, Note_on_c, 0, 87, 81
2, 18959, Note_on_c, 0, 75, 81
2, 19080, Note_on_c, 0, 75, 0
2, 19080, Note_on_c, 0, 87, 0
2, 19080, Note_on_c, 0, 84, 0
2, 19080, Note_on_c, 0, 85, 92
2, 19080, Note_on_c, 0, 88, 92
2, 19080, Note_on_c, 0, 73, 81
2, 19080, Note_on_c, 0, 76, 81
2, 19200, Note_on_c, 0, 76, 0
2, 19200, Note_on_c, 0, 73, 0
2, 19200, Note_on_c, 0, 74, 69
2, 19319, Note_on_c, 0, 74, 0
2, 19319, Note_on_c, 0, 75, 83
2, 19440, Note_on_c, 0, 75, 0
2, 19440, Note_on_c, 0, 69, 92
2, 19440, Note_on_c, 0, 73, 92
2, 19440, Note_on_c, 0, 76, 92
2, 19679, Note_on_c, 0, 76, 0
2, 19679, Note_on_c, 0, 69, 0
2, 19679, Note_on_c, 0, 85, 0
2, 19679, Note_on_c, 0, 88, 0
2, 19679, Note_on_c, 0, 73, 0
2, 19679, Note_on_c, 0, 88, 76
2, 19679, Note_on_c, 0, 73, 69
2, 19800, Note_on_c, 0, 73, 0
2, 19800, Note_on_c, 0, 88, 0
2, 19800, Note_on_c, 0, 90, 92
2, 19800, Note_on_c, 0, 74, 92
2, 19859, Note_on_c, 0, 90, 0
2, 19920, Note_on_c, 0, 74, 0
2, 19920, Note_on_c, 0, 88, 70
2, 19920, Note_on_c, 0, 73, 73
2, 19979, Note_on_c, 0, 73, 0
2, 19979, Note_on_c, 0, 88, 0
2, 20039, Note_on_c, 0, 90, 82
2, 20039, Note_on_c, 0, 74, 85
2, 20098, Note_on_c, 0, 74, 0
2, 20098, Note_on_c, 0, 90, 0
2, 20160, Note_on_c, 0, 88, 73
2, 20160, Note_on_c, 0, 73, 81
2, 20219, Note_on_c, 0, 73, 0
2, 20219, Note_on_c, 0, 88, 0
2, 20280, Note_on_c, 0, 86, 70
2, 20280, Note_on_c, 0, 71, 68
2, 20339, Note_on_c, 0, 71, 0
2, 20339, Note_on_c, 0, 86, 0
2, 20399, Note_on_c, 0, 88, 84
2, 20399, Note_on_c, 0, 73, 81
2, 20458, Note_on_c, 0, 73, 0
2, 20458, Note_on_c, 0, 88, 0
2, 20520, Note_on_c, 0, 86, 78
2, 20520, Note_on_c, 0, 71, 73
2, 20579, Note_on_c, 0, 71, 0
2, 20579, Note_on_c, 0, 86, 0
2, 20640, Note_on_c, 0, 85, 71
2, 20640, Note_on_c, 0, 69, 69
2, 20699, Note_on_c, 0, 69, 0
2, 20699, Note_on_c, 0, 85, 0
2, 20759, Note_on_c, 0, 86, 85
2, 20759, Note_on_c, 0, 71, 87
2, 20818, Note_on_c, 0, 71, 0
2, 20818, Note_on_c, 0, 86, 0
2, 20880, Note_on_c, 0, 85, 71
2, 20880, Note_on_c, 0, 69, 70
2, 20939, Note_on_c, 0, 69, 0
2, 20939, Note_on_c, 0, 85, 0
2, 21000, Note_on_c, 0, 83, 69
2, 21000, Note_on_c, 0, 68, 72
2, 21059, Note_on_c, 0, 68, 0
2, 21059, Note_on_c, 0, 83, 0
2, 21119, Note_on_c, 0, 85, 83
2, 21119, Note_on_c, 0, 69, 84
2, 21178, Note_on_c, 0, 69, 0
2, 21178, Note_on_c, 0, 85, 0
2, 21240, Note_on_c, 0, 83, 66
2, 21240, Note_on_c, 0, 68, 71
2, 21299, Note_on_c, 0, 68, 0
2, 21299, Note_on_c, 0, 83, 0
2, 21360, Note_on_c, 0, 81, 74
2, 21360, Note_on_c, 0, 66, 66
2, 21419, Note_on_c, 0, 66, 0
2, 21419, Note_on_c, 0, 81, 0
2, 21479, Note_on_c, 0, 83, 84
2, 21479, Note_on_c, 0, 68, 84
2, 21538, Note_on_c, 0, 68, 0
2, 21538, Note_on_c, 0, 83, 0
2, 21600, Note_on_c, 0, 81, 72
2, 21600, Note_on_c, 0, 78, 32
2, 21600, Note_on_c, 0, 69, 82
2, 21720, Note_on_c, 0, 69, 0
2, 21720, Note_on_c, 0, 81, 0
2, 21720, Note_on_c, 0, 83, 81
2, 21720, Note_on_c, 0, 71, 84
2, 21839, Note_on_c, 0, 71, 0
2, 21839, Note_on_c, 0, 83, 0
2, 21839, Note_on_c, 0, 84, 86
2, 21839, Note_on_c, 0, 72, 85
2, 21960, Note_on_c, 0, 72, 0
2, 21960, Note_on_c, 0, 84, 0
2, 21960, Note_on_c, 0, 78, 0
2, 21960, Note_on_c, 0, 81, 92
2, 21960, Note_on_c, 0, 85, 92
2, 21960, Note_on_c, 0, 69, 68
2, 21960, Note_on_c, 0, 73, 37
2, 22080, Note_on_c, 0, 69, 0
2, 22080, Note_on_c, 0, 71, 79
2, 22199, Note_on_c, 0, 71, 0
2, 22199, Note_on_c, 0, 72, 88
2, 22320, Note_on_c, 0, 72, 0
2, 22320, Note_on_c, 0, 73, 0
2, 22320, Note_on_c, 0, 66, 92
2, 22320, Note_on_c, 0, 69, 92
2, 22320, Note_on_c, 0, 73, 92
2, 22559, Note_on_c, 0, 73, 0
2, 22559, Note_on_c, 0, 66, 0
2, 22559, Note_on_c, 0, 81, 0
2, 22559, Note_on_c, 0, 85, 0
2, 22559, Note_on_c, 0, 69, 0
2, 22559, Note_on_c, 0, 85, 80
2, 22559, Note_on_c, 0, 69, 66
2, 22680, Note_on_c, 0, 69, 0
2, 22680, Note_on_c, 0, 85, 0
2, 22680, Note_on_c, 0, 86, 85
2, 22680, Note_on_c, 0, 71, 92
2, 22800, Note_on_c, 0, 71, 0
2, 22800, Note_on_c, 0, 86, 0
2, 22800, Note_on_c, 0, 85, 74
2, 22800, Note_on_c, 0, 69, 76
2, 22859, Note_on_c, 0, 69, 0
2, 22859, Note_on_c, 0, 85, 0
2, 22919, Note_on_c, 0, 86, 81
2, 22919, Note_on_c, 0, 71, 84
2, 22978, Note_on_c, 0, 71, 0
2, 22978, Note_on_c, 0, 86, 0
2, 23040, Note_on_c, 0, 85, 78
2, 23040, Note_on_c, 0, 69, 78
2, 23099, Note_on_c, 0, 69, 0
2, 23099, Note_on_c, 0, 85, 0
2, 23160, Note_on_c, 0, 83, 75
2, 23160, Note_on_c, 0, 68, 75
2, 23219, Note_on_c, 0, 68, 0
2, 23219, Note_on_c, 0, 83, 0
2, 23279, Note_on_c, 0, 85, 73
2, 23279, Note_on_c, 0, 69, 73
2, 23338, Note_on_c, 0, 69, 0
2, 23338, Note_on_c, 0, 85, 0
2, 23400, Note_on_c, 0, 83, 71
2, 23400, Note_on_c, 0, 68, 71
2, 23459, Note_on_c, 0, 68, 0
2, 23459, Note_on_c, 0, 83, 0
2, 23520, Note_on_c, 0, 81, 68
2, 23520, Note_on_c, 0, 66, 69
2, 23579, Note_on_c, 0, 66, 0
2, 23579, Note_on_c, 0, 81, 0
2, 23639, Note_on_c, 0, 83, 66
2, 23639, Note_on_c, 0, 68, 67
2, 23698, Note_on_c, 0, 68, 0
2, 23698, Note_on_c, 0, 83, 0
2, 23760, Note_on_c, 0, 81, 64
2, 23760, Note_on_c, 0, 66, 65
2, 23819, Note_on_c, 0, 66, 0
2, 23819, Note_on_c, 0, 81, 0
2, 23880, Note_on_c, 0, 80, 61
2, 23880, Note_on_c, 0, 64, 63
2, 23939, Note_on_c, 0, 64, 0
2, 23939, Note_on_c, 0, 80, 0
2, 23999, Note_on_c, 0, 81, 59
2, 23999, Note_on_c, 0, 66, 61
2, 24058, Note_on_c, 0, 66, 0
2, 24058, Note_on_c, 0, 81, 0
2, 24120, Note_on_c, 0, 80, 57
2, 24120, Note_on_c, 0, 64, 58
2, 24179, Note_on_c, 0, 64, 0
2, 24179, Note_on_c, 0, 80, 0
2, 24240, Note_on_c, 0, 78, 54
2, 24240, Note_on_c, 0, 63, 56
2, 24299, Note_on_c, 0, 63, 0
2, 24299, Note_on_c, 0, 78, 0
2, 24359, Note_on_c, 0, 80, 52
2, 24359, Note_on_c, 0, 64, 54
2, 24418, Note_on_c, 0, 64, 0
2, 24418, Note_on_c, 0, 80, 0
2, 24480, Note_on_c, 0, 78, 22
2, 24480, Note_on_c, 0, 63, 24
2, 24539, Note_on_c, 0, 63, 0
2, 24659, Note_on_c, 0, 78, 0
2, 24840, Note_on_c, 0, 64, 34
2, 24960, Note_on_c, 0, 64, 0
2, 24960, Note_on_c, 0, 66, 46
2, 25079, Note_on_c, 0, 66, 0
2, 25079, Note_on_c, 0, 68, 51
2, 25200, Note_on_c, 0, 68, 0
2, 25200, Note_on_c, 0, 69, 52
2, 25439, Note_on_c, 0, 75, 39
2, 25560, Note_on_c, 0, 75, 0
2, 25560, Note_on_c, 0, 76, 47
2, 25680, Note_on_c, 0, 76, 0
2, 25680, Note_on_c, 0, 78, 54
2, 25799, Note_on_c, 0, 78, 0
2, 25799, Note_on_c, 0, 69, 0
2, 25799, Note_on_c, 0, 80, 53
2, 25799, Note_on_c, 0, 71, 53
2, 25920, Note_on_c, 0, 71, 0
2, 25920, Note_on_c, 0, 80, 0
2, 25920, Note_on_c, 0, 81, 64
2, 25920, Note_on_c, 0, 71, 51
2, 26040, Note_on_c, 0, 71, 0
2, 26040, Note_on_c, 0, 73, 15
2, 26159, Note_on_c, 0, 73, 0
2, 26159, Note_on_c, 0, 75, 19
2, 26159, Note_on_c, 0, 69, 41
2, 26280, Note_on_c, 0, 69, 0
2, 26280, Note_on_c, 0, 75, 0
2, 26280, Note_on_c, 0, 73, 22
2, 26280, Note_on_c, 0, 76, 22
2, 26280, Note_on_c, 0, 68, 45
2, 26280, Note_on_c, 0, 69, 10
2, 26640, Note_on_c, 0, 68, 0
2, 26640, Note_on_c, 0, 66, 41
2, 26869, Note_on_c, 0, 81, 0
2, 26879, Note_on_c, 0, 73, 0
2, 26879, Note_on_c, 0, 76, 0
2, 26879, Note_on_c, 0, 73, 8
2, 27000, Note_on_c, 0, 73, 0
2, 27000, Note_on_c, 0, 69, 0
2, 27000, Note_on_c, 0, 80, 43
2, 27000, Note_on_c, 0, 73, 11
2, 27000, Note_on_c, 0, 69, 53
2, 27000, Note_on_c, 0, 64, 12
2, 27239, Note_on_c, 0, 69, 0
2, 27239, Note_on_c, 0, 80, 0
2, 27239, Note_on_c, 0, 66, 0
2, 27239, Note_on_c, 0, 76, 39
2, 27239, Note_on_c, 0, 68, 44
2, 27360, Note_on_c, 0, 68, 0
2, 27360, Note_on_c, 0, 64, 0
2, 27360, Note_on_c, 0, 73, 0
2, 27360, Note_on_c, 0, 76, 0
2, 27360, Note_on_c, 0, 78, 50
2, 27360, Note_on_c, 0, 66, 49
2, 27360, Note_on_c, 0, 69, 49
2, 27419, Note_on_c, 0, 69, 0
2, 27419, Note_on_c, 0, 66, 0
2, 27720, Note_on_c, 0, 78, 0
2, 27720, Note_on_c, 0, 68, 35
2, 27840, Note_on_c, 0, 68, 0
2, 27840, Note_on_c, 0, 69, 48
2, 27959, Note_on_c, 0, 69, 0
2, 27959, Note_on_c, 0, 71, 57
2, 28080, Note_on_c, 0, 71, 0
2, 28080, Note_on_c, 0, 73, 54
2, 28319, Note_on_c, 0, 78, 42
2, 28319, Note_on_c, 0, 69, 8
2, 28440, Note_on_c, 0, 69, 0
2, 28440, Note_on_c, 0, 78, 0
2, 28440, Note_on_c, 0, 80, 55
2, 28440, Note_on_c, 0, 69, 14
2, 28560, Note_on_c, 0, 80, 0
2, 28560, Note_on_c, 0, 81, 56
2, 28679, Note_on_c, 0, 81, 0
2, 28679, Note_on_c, 0, 73, 0
2, 28679, Note_on_c, 0, 83, 53
2, 28679, Note_on_c, 0, 75, 55
2, 28800, Note_on_c, 0, 75, 0
2, 28800, Note_on_c, 0, 83, 0
2, 28800, Note_on_c, 0, 85, 62
2, 28800, Note_on_c, 0, 75, 47
2, 28920, Note_on_c, 0, 75, 0
2, 28920, Note_on_c, 0, 76, 6
2, 29039, Note_on_c, 0, 76, 0
2, 29039, Note_on_c, 0, 78, 17
2, 29039, Note_on_c, 0, 73, 38
2, 29160, Note_on_c, 0, 73, 0
2, 29160, Note_on_c, 0, 78, 0
2, 29160, Note_on_c, 0, 69, 0
2, 29160, Note_on_c, 0, 76, 19
2, 29160, Note_on_c, 0, 80, 19
2, 29160, Note_on_c, 0, 71, 41
2, 29160, Note_on_c, 0, 73, 26
2, 29520, Note_on_c, 0, 71, 0
2, 29520, Note_on_c, 0, 69, 44
2, 29749, Note_on_c, 0, 85, 0
2, 29759, Note_on_c, 0, 76, 0
2, 29759, Note_on_c, 0, 80, 0
2, 29759, Note_on_c, 0, 76, 12
2, 29880, Note_on_c, 0, 73, 0
2, 29880, Note_on_c, 0, 69, 0
2, 29880, Note_on_c, 0, 83, 43
2, 29880, Note_on_c, 0, 73, 14
2, 29880, Note_on_c, 0, 69, 45
2, 29880, Note_on_c, 0, 68, 7
2, 30119, Note_on_c, 0, 83, 0
2, 30119, Note_on_c, 0, 73, 27
2, 30240, Note_on_c, 0, 73, 0
2, 30240, Note_on_c, 0, 68, 0
2, 30240, Note_on_c, 0, 76, 0
2, 30240, Note_on_c, 0, 73, 0
2, 30240, Note_on_c, 0, 69, 0
2, 30240, Note_on_c, 0, 81, 64
2, 30240, Note_on_c, 0, 75, 59
2, 30240, Note_on_c, 0, 66, 71
2, 30240, Note_on_c, 0, 71, 71
2, 30360, Note_on_c, 0, 75, 0
2, 30360, Note_on_c, 0, 78, 72
2, 30479, Note_on_c, 0, 78, 0
2, 30479, Note_on_c, 0, 80, 70
2, 30600, Note_on_c, 0, 80, 0
2, 30600, Note_on_c, 0, 81, 0
2, 30600, Note_on_c, 0, 66, 0
2, 30600, Note_on_c, 0, 71, 0
2, 30600, Note_on_c, 0, 75, 78
2, 30600, Note_on_c, 0, 78, 78
2, 30600, Note_on_c, 0, 81, 78
2, 30600, Note_on_c, 0, 66, 59
2, 30600, Note_on_c, 0, 69, 59
2, 30720, Note_on_c, 0, 69, 0
2, 30720, Note_on_c, 0, 66, 0
2, 30720, Note_on_c, 0, 66, 50
2, 30839, Note_on_c, 0, 66, 0
2, 30839, Note_on_c, 0, 68, 67
2, 30960, Note_on_c, 0, 68, 0
2, 30960, Note_on_c, 0, 69, 68
2, 31199, Note_on_c, 0, 69, 0
2, 31199, Note_on_c, 0, 81, 0
2, 31199, Note_on_c, 0, 78, 0
2, 31199, Note_on_c, 0, 75, 0
2, 31199, Note_on_c, 0, 80, 41
2, 31199, Note_on_c, 0, 71, 72
2, 31320, Note_on_c, 0, 71, 0
2, 31320, Note_on_c, 0, 80, 0
2, 31320, Note_on_c, 0, 73, 79
2, 31320, Note_on_c, 0, 76, 79
2, 31320, Note_on_c, 0, 81, 79
2, 31320, Note_on_c, 0, 64, 57
2, 31320, Note_on_c, 0, 69, 57
2, 31680, Note_on_c, 0, 64, 0
2, 31680, Note_on_c, 0, 81, 0
2, 31680, Note_on_c, 0, 73, 0
2, 31680, Note_on_c, 0, 76, 0
2, 31680, Note_on_c, 0, 71, 31
2, 31680, Note_on_c, 0, 75, 31
2, 31680, Note_on_c, 0, 66, 62
2, 31800, Note_on_c, 0, 75, 0
2, 31800, Note_on_c, 0, 71, 0
2, 31800, Note_on_c, 0, 78, 56
2, 31919, Note_on_c, 0, 78, 0
2, 31919, Note_on_c, 0, 80, 55
2, 32040, Note_on_c, 0, 80, 0
2, 32040, Note_on_c, 0, 69, 0
2, 32040, Note_on_c, 0, 66, 0
2, 32040, Note_on_c, 0, 81, 77
2, 32040, Note_on_c, 0, 75, 61
2, 32040, Note_on_c, 0, 78, 61
2, 32040, Note_on_c, 0, 69, 59
2, 32040, Note_on_c, 0, 66, 12
2, 32160, Note_on_c, 0, 66, 0
2, 32160, Note_on_c, 0, 66, 12
2, 32279, Note_on_c, 0, 66, 0
2, 32279, Note_on_c, 0, 68, 19
2, 32400, Note_on_c, 0, 68, 0
2, 32520, Note_on_c, 0, 81, 0
2, 32520, Note_on_c, 0, 81, 49
2, 32639, Note_on_c, 0, 81, 0
2, 32639, Note_on_c, 0, 69, 0
2, 32639, Note_on_c, 0, 80, 43
2, 32639, Note_on_c, 0, 71, 68
2, 32760, Note_on_c, 0, 71, 0
2, 32760, Note_on_c, 0, 75, 0
2, 32760, Note_on_c, 0, 78, 0
2, 32760, Note_on_c, 0, 80, 0
2, 32760, Note_on_c, 0, 73, 73
2, 32760, Note_on_c, 0, 76, 73
2, 32760, Note_on_c, 0, 81, 73
2, 32760, Note_on_c, 0, 69, 52
2, 33120, Note_on_c, 0, 76, 0
2, 33120, Note_on_c, 0, 73, 0
2, 33120, Note_on_c, 0, 71, 54
2, 33120, Note_on_c, 0, 75, 54
2, 33120, Note_on_c, 0, 66, 61
2, 33240, Note_on_c, 0, 75, 0
2, 33240, Note_on_c, 0, 71, 0
2, 33240, Note_on_c, 0, 78, 67
2, 33359, Note_on_c, 0, 78, 0
2, 33359, Note_on_c, 0, 80, 67
2, 33480, Note_on_c, 0, 80, 0
2, 33480, Note_on_c, 0, 69, 0
2, 33480, Note_on_c, 0, 81, 0
2, 33480, Note_on_c, 0, 66, 0
2, 33480, Note_on_c, 0, 75, 48
2, 33480, Note_on_c, 0, 81, 48
2, 33480, Note_on_c, 0, 66, 62
2, 33480, Note_on_c, 0, 69, 62
2, 33719, Note_on_c, 0, 69, 0
2, 33719, Note_on_c, 0, 75, 0
2, 33719, Note_on_c, 0, 81, 0
2, 33719, Note_on_c, 0, 66, 0
2, 33719, Note_on_c, 0, 73, 51
2, 33719, Note_on_c, 0, 81, 51
2, 33719, Note_on_c, 0, 64, 65
2, 33719, Note_on_c, 0, 69, 65
2, 33840, Note_on_c, 0, 69, 0
2, 33840, Note_on_c, 0, 73, 0
2, 33840, Note_on_c, 0, 81, 0
2, 33840, Note_on_c, 0, 64, 0
2, 33840, Note_on_c, 0, 81, 52
2, 33840, Note_on_c, 0, 75, 66
2, 33840, Note_on_c, 0, 69, 66
2, 33840, Note_on_c, 0, 66, 19
2, 33960, Note_on_c, 0, 81, 0
2, 33960, Note_on_c, 0, 78, 53
2, 34079, Note_on_c, 0, 78, 0
2, 34079, Note_on_c, 0, 80, 54
2, 34200, Note_on_c, 0, 80, 0
2, 34200, Note_on_c, 0, 69, 0
2, 34200, Note_on_c, 0, 81, 56
2, 34200, Note_on_c, 0, 69, 70
2, 34439, Note_on_c, 0, 69, 0
2, 34439, Note_on_c, 0, 66, 0
2, 34439, Note_on_c, 0, 75, 0
2, 34439, Note_on_c, 0, 81, 0
2, 34439, Note_on_c, 0, 81, 58
2, 34439, Note_on_c, 0, 73, 72
2, 34439, Note_on_c, 0, 69, 72
2, 34439, Note_on_c, 0, 64, 25
2, 34560, Note_on_c, 0, 64, 0
2, 34560, Note_on_c, 0, 81, 0
2, 34560, Note_on_c, 0, 73, 0
2, 34560, Note_on_c, 0, 69, 0
2, 34560, Note_on_c, 0, 81, 59
2, 34560, Note_on_c, 0, 75, 73
2, 34560, Note_on_c, 0, 66, 73
2, 34560, Note_on_c, 0, 69, 73
2, 34680, Note_on_c, 0, 81, 0
2, 34680, Note_on_c, 0, 78, 60
2, 34799, Note_on_c, 0, 78, 0
2, 34799, Note_on_c, 0, 80, 62
2, 34920, Note_on_c, 0, 80, 0
2, 34920, Note_on_c, 0, 69, 0
2, 34920, Note_on_c, 0, 81, 63
2, 34920, Note_on_c, 0, 69, 77
2, 35159, Note_on_c, 0, 69, 0
2, 35159, Note_on_c, 0, 75, 0
2, 35159, Note_on_c, 0, 66, 0
2, 35159, Note_on_c, 0, 81, 0
2, 35159, Note_on_c, 0, 73, 65
2, 35159, Note_on_c, 0, 81, 65
2, 35159, Note_on_c, 0, 64, 79
2, 35159, Note_on_c, 0, 69, 79
2, 35280, Note_on_c, 0, 69, 0
2, 35280, Note_on_c, 0, 73, 0
2, 35280, Note_on_c, 0, 81, 0
2, 35280, Note_on_c, 0, 64, 0
2, 35280, Note_on_c, 0, 81, 66
2, 35280, Note_on_c, 0, 75, 80
2, 35280, Note_on_c, 0, 66, 80
2, 35280, Note_on_c, 0, 69, 80
2, 35400, Note_on_c, 0, 81, 0
2, 35400, Note_on_c, 0, 78, 68
2, 35519, Note_on_c, 0, 78, 0
2, 35519, Note_on_c, 0, 80, 69
2, 35640, Note_on_c, 0, 80, 0
2, 35640, Note_on_c, 0, 69, 0
2, 35640, Note_on_c, 0, 81, 70
2, 35640, Note_on_c, 0, 69, 84
2, 35879, Note_on_c, 0, 69, 0
2, 35879, Note_on_c, 0, 75, 0
2, 35879, Note_on_c, 0, 66, 0
2, 35879, Note_on_c, 0, 81, 0
2, 35879, Note_on_c, 0, 81, 73
2, 35879, Note_on_c, 0, 64, 86
2, 35879, Note_on_c, 0, 69, 86
2, 35879, Note_on_c, 0, 73, 86
2, 36000, Note_on_c, 0, 73, 0
2, 36000, Note_on_c, 0, 81, 0
2, 36000, Note_on_c, 0, 64, 0
2, 36000, Note_on_c, 0, 69, 0
2, 36000, Note_on_c, 0, 81, 86
2, 36000, Note_on_c, 0, 83, 86
2, 36000, Note_on_c, 0, 66, 75
2, 36000, Note_on_c, 0, 69, 75
2, 36000, Note_on_c, 0, 71, 75
2, 36120, Note_on_c, 0, 71, 0
2, 36120, Note_on_c, 0, 66, 0
2, 36120, Note_on_c, 0, 81, 0
2, 36120, Note_on_c, 0, 83, 0
2, 36120, Note_on_c, 0, 69, 0
2, 36120, Note_on_c, 0, 93, 91
2, 36239, Note_on_c, 0, 93, 0
2, 36239, Note_on_c, 0, 94, 90
2, 36239, Note_on_c, 0, 82, 69
2, 36360, Note_on_c, 0, 82, 0
2, 36360, Note_on_c, 0, 94, 0
2, 36360, Note_on_c, 0, 95, 92
2, 36360, Note_on_c, 0, 83, 92
2, 36599, Note_on_c, 0, 83, 0
2, 36599, Note_on_c, 0, 95, 0
2, 36599, Note_on_c, 0, 92, 64
2, 36599, Note_on_c, 0, 80, 67
2, 36720, Note_on_c, 0, 80, 0
2, 36720, Note_on_c, 0, 92, 0
2, 36720, Note_on_c, 0, 93, 82
2, 36720, Note_on_c, 0, 81, 82
2, 36959, Note_on_c, 0, 81, 0
2, 36959, Note_on_c, 0, 93, 0
2, 36959, Note_on_c, 0, 90, 69
2, 36959, Note_on_c, 0, 78, 69
2, 37080, Note_on_c, 0, 78, 0
2, 37080, Note_on_c, 0, 90, 0
2, 37080, Note_on_c, 0, 92, 84
2, 37080, Note_on_c, 0, 80, 84
2, 37319, Note_on_c, 0, 80, 0
2, 37319, Note_on_c, 0, 92, 0
2, 37319, Note_on_c, 0, 87, 65
2, 37319, Note_on_c, 0, 75, 62
2, 37440, Note_on_c, 0, 75, 0
2, 37440, Note_on_c, 0, 87, 0
2, 37440, Note_on_c, 0, 88, 82
2, 37440, Note_on_c, 0, 76, 81
2, 37679, Note_on_c, 0, 76, 0
2, 37679, Note_on_c, 0, 88, 0
2, 37679, Note_on_c, 0, 85, 67
2, 37679, Note_on_c, 0, 73, 69
2, 37800, Note_on_c, 0, 73, 0
2, 37800, Note_on_c, 0, 85, 0
2, 37800, Note_on_c, 0, 87, 86
2, 37800, Note_on_c, 0, 75, 80
2, 38039, Note_on_c, 0, 75, 0
2, 38039, Note_on_c, 0, 87, 0
2, 38039, Note_on_c, 0, 83, 65
2, 38039, Note_on_c, 0, 71, 71
2, 38160, Note_on_c, 0, 71, 0
2, 38160, Note_on_c, 0, 83, 0
2, 38160, Note_on_c, 0, 85, 79
2, 38160, Note_on_c, 0, 73, 81
2, 38280, Note_on_c, 0, 73, 0
2, 38280, Note_on_c, 0, 85, 0
2, 38280, Note_on_c, 0, 80, 60
2, 38280, Note_on_c, 0, 68, 64
2, 38399, Note_on_c, 0, 68, 0
2, 38399, Note_on_c, 0, 80, 0
2, 38399, Note_on_c, 0, 81, 81
2, 38399, Note_on_c, 0, 69, 79
2, 38520, Note_on_c, 0, 69, 0
2, 38520, Note_on_c, 0, 81, 0
2, 38520, Note_on_c, 0, 75, 65
2, 38520, Note_on_c, 0, 78, 65
2, 38520, Note_on_c, 0, 66, 66
2, 38759, Note_on_c, 0, 66, 0
2, 38759, Note_on_c, 0, 78, 0
2, 38759, Note_on_c, 0, 75, 0
2, 38759, Note_on_c, 0, 78, 87
2, 38759, Note_on_c, 0, 83, 87
2, 38759, Note_on_c, 0, 69, 90
2, 38759, Note_on_c, 0, 71, 90
2, 38880, Note_on_c, 0, 69, 0
2, 38880, Note_on_c, 0, 78, 0
2, 38880, Note_on_c, 0, 83, 0
2, 38880, Note_on_c, 0, 76, 64
2, 38880, Note_on_c, 0, 68, 78
2, 39119, Note_on_c, 0, 68, 0
2, 39119, Note_on_c, 0, 76, 0
2, 39119, Note_on_c, 0, 71, 0
2, 39119, Note_on_c, 0, 78, 85
2, 39119, Note_on_c, 0, 69, 83
2, 39119, Note_on_c, 0, 71, 83
2, 39240, Note_on_c, 0, 71, 0
2, 39240, Note_on_c, 0, 69, 0
2, 39240, Note_on_c, 0, 78, 0
2, 39240, Note_on_c, 0, 76, 84
2, 39240, Note_on_c, 0, 80, 84
2, 39240, Note_on_c, 0, 68, 64
2, 39360, Note_on_c, 0, 68, 0
2, 39360, Note_on_c, 0, 80, 0
2, 39360, Note_on_c, 0, 76, 0
2, 39360, Note_on_c, 0, 78, 84
2, 39360, Note_on_c, 0, 81, 84
2, 39360, Note_on_c, 0, 69, 83
2, 39479, Note_on_c, 0, 69, 0
2, 39479, Note_on_c, 0, 81, 0
2, 39479, Note_on_c, 0, 78, 0
2, 39479, Note_on_c, 0, 79, 85
2, 39479, Note_on_c, 0, 82, 85
2, 39479, Note_on_c, 0, 70, 86
2, 39600, Note_on_c, 0, 70, 0
2, 39600, Note_on_c, 0, 82, 0
2, 39600, Note_on_c, 0, 79, 0
2, 39600, Note_on_c, 0, 80, 92
2, 39600, Note_on_c, 0, 83, 92
2, 39600, Note_on_c, 0, 71, 92
2, 39600, Note_on_c, 0, 68, 47
2, 39720, Note_on_c, 0, 68, 0
2, 39720, Note_on_c, 0, 69, 45
2, 39839, Note_on_c, 0, 69, 0
2, 39839, Note_on_c, 0, 70, 44
2, 39960, Note_on_c, 0, 70, 0
2, 39960, Note_on_c, 0, 71, 0
2, 39960, Note_on_c, 0, 68, 79
2, 39960, Note_on_c, 0, 71, 79
2, 40199, Note_on_c, 0, 71, 0
2, 40199, Note_on_c, 0, 80, 0
2, 40199, Note_on_c, 0, 83, 0
2, 40199, Note_on_c, 0, 68, 0
2, 40199, Note_on_c, 0, 83, 83
2, 40199, Note_on_c, 0, 71, 78
2, 40320, Note_on_c, 0, 71, 0
2, 40320, Note_on_c, 0, 83, 0
2, 40320, Note_on_c, 0, 76, 85
2, 40320, Note_on_c, 0, 80, 85
2, 40320, Note_on_c, 0, 85, 85
2, 40320, Note_on_c, 0, 73, 84
2, 40320, Note_on_c, 0, 68, 37
2, 40440, Note_on_c, 0, 73, 0
2, 40440, Note_on_c, 0, 85, 0
2, 40440, Note_on_c, 0, 76, 0
2, 40440, Note_on_c, 0, 80, 0
2, 40440, Note_on_c, 0, 83, 75
2, 40440, Note_on_c, 0, 71, 75
2, 40559, Note_on_c, 0, 71, 0
2, 40559, Note_on_c, 0, 83, 0
2, 40559, Note_on_c, 0, 85, 81
2, 40559, Note_on_c, 0, 73, 79
2, 40680, Note_on_c, 0, 73, 0
2, 40680, Note_on_c, 0, 85, 0
2, 40680, Note_on_c, 0, 68, 0
2, 40680, Note_on_c, 0, 76, 92
2, 40680, Note_on_c, 0, 80, 92
2, 40680, Note_on_c, 0, 83, 92
2, 40680, Note_on_c, 0, 71, 92
2, 40680, Note_on_c, 0, 68, 36
2, 40800, Note_on_c, 0, 71, 0
2, 40800, Note_on_c, 0, 69, 70
2, 40919, Note_on_c, 0, 69, 0
2, 40919, Note_on_c, 0, 70, 80
2, 41040, Note_on_c, 0, 70, 0
2, 41040, Note_on_c, 0, 68, 0
2, 41040, Note_on_c, 0, 71, 92
2, 41040, Note_on_c, 0, 68, 40
2, 41279, Note_on_c, 0, 71, 0
2, 41279, Note_on_c, 0, 76, 0
2, 41279, Note_on_c, 0, 83, 0
2, 41279, Note_on_c, 0, 80, 0
2, 41279, Note_on_c, 0, 83, 79
2, 41279, Note_on_c, 0, 71, 81
2, 41400, Note_on_c, 0, 71, 0
2, 41400, Note_on_c, 0, 83, 0
2, 41400, Note_on_c, 0, 68, 0
2, 41400, Note_on_c, 0, 81, 92
2, 41400, Note_on_c, 0, 85, 92
2, 41400, Note_on_c, 0, 73, 92
2, 41520, Note_on_c, 0, 73, 0
2, 41520, Note_on_c, 0, 85, 0
2, 41520, Note_on_c, 0, 81, 0
2, 41520, Note_on_c, 0, 83, 74
2, 41520, Note_on_c, 0, 80, 91
2, 41639, Note_on_c, 0, 80, 0
2, 41639, Note_on_c, 0, 83, 0
2, 41639, Note_on_c, 0, 85, 86
2, 41639, Note_on_c, 0, 78, 71
2, 41760, Note_on_c, 0, 78, 0
2, 41760, Note_on_c, 0, 85, 0
2, 41760, Note_on_c, 0, 81, 64
2, 41760, Note_on_c, 0, 69, 73
2, 41760, Note_on_c, 0, 73, 73
2, 41760, Note_on_c, 0, 76, 73
2, 41999, Note_on_c, 0, 76, 0
2, 41999, Note_on_c, 0, 81, 0
2, 41999, Note_on_c, 0, 69, 0
2, 41999, Note_on_c, 0, 73, 0
2, 41999, Note_on_c, 0, 81, 76
2, 41999, Note_on_c, 0, 69, 56
2, 42120, Note_on_c, 0, 69, 0
2, 42120, Note_on_c, 0, 81, 0
2, 42120, Note_on_c, 0, 80, 92
2, 42120, Note_on_c, 0, 83, 92
2, 42120, Note_on_c, 0, 71, 82
2, 42240, Note_on_c, 0, 71, 0
2, 42240, Note_on_c, 0, 83, 0
2, 42240, Note_on_c, 0, 80, 0
2, 42240, Note_on_c, 0, 81, 67
2, 42240, Note_on_c, 0, 78, 91
2, 42359, Note_on_c, 0, 78, 0
2, 42359, Note_on_c, 0, 81, 0
2, 42359, Note_on_c, 0, 83, 84
2, 42359, Note_on_c, 0, 76, 71
2, 42480, Note_on_c, 0, 76, 0
2, 42480, Note_on_c, 0, 83, 0
2, 42480, Note_on_c, 0, 80, 66
2, 42480, Note_on_c, 0, 68, 72
2, 42480, Note_on_c, 0, 71, 72
2, 42480, Note_on_c, 0, 75, 72
2, 42719, Note_on_c, 0, 75, 0
2, 42719, Note_on_c, 0, 80, 0
2, 42719, Note_on_c, 0, 68, 0
2, 42719, Note_on_c, 0, 71, 0
2, 42719, Note_on_c, 0, 78, 71
2, 42719, Note_on_c, 0, 66, 51
2, 42840, Note_on_c, 0, 66, 0
2, 42840, Note_on_c, 0, 78, 0
2, 42840, Note_on_c, 0, 76, 92
2, 42840, Note_on_c, 0, 80, 92
2, 42840, Note_on_c, 0, 68, 81
2, 42960, Note_on_c, 0, 68, 0
2, 42960, Note_on_c, 0, 80, 0
2, 42960, Note_on_c, 0, 76, 0
2, 42960, Note_on_c, 0, 78, 75
2, 42960, Note_on_c, 0, 75, 91
2, 43079, Note_on_c, 0, 75, 0
2, 43079, Note_on_c, 0, 78, 0
2, 43079, Note_on_c, 0, 80, 84
2, 43079, Note_on_c, 0, 73, 71
2, 43200, Note_on_c, 0, 73, 0
2, 43200, Note_on_c, 0, 80, 0
2, 43200, Note_on_c, 0, 76, 64
2, 43200, Note_on_c, 0, 72, 72
2, 43439, Note_on_c, 0, 72, 0
2, 43439, Note_on_c, 0, 76, 0
2, 43439, Note_on_c, 0, 75, 82
2, 43439, Note_on_c, 0, 78, 82
2, 43439, Note_on_c, 0, 66, 57
2, 43560, Note_on_c, 0, 66, 0
2, 43560, Note_on_c, 0, 78, 0
2, 43560, Note_on_c, 0, 75, 0
2, 43560, Note_on_c, 0, 75, 79
2, 43560, Note_on_c, 0, 78, 79
2, 43560, Note_on_c, 0, 73, 91
2, 43560, Note_on_c, 0, 66, 39
2, 43799, Note_on_c, 0, 66, 0
2, 43799, Note_on_c, 0, 75, 0
2, 43799, Note_on_c, 0, 78, 0
2, 43799, Note_on_c, 0, 76, 84
2, 43799, Note_on_c, 0, 80, 84
2, 43799, Note_on_c, 0, 68, 47
2, 43920, Note_on_c, 0, 68, 0
2, 43920, Note_on_c, 0, 73, 0
2, 43920, Note_on_c, 0, 76, 0
2, 43920, Note_on_c, 0, 80, 0
2, 43920, Note_on_c, 0, 77, 75
2, 43920, Note_on_c, 0, 80, 75
2, 43920, Note_on_c, 0, 74, 85
2, 43920, Note_on_c, 0, 68, 44
2, 44159, Note_on_c, 0, 68, 0
2, 44159, Note_on_c, 0, 77, 0
2, 44159, Note_on_c, 0, 80, 0
2, 44159, Note_on_c, 0, 78, 83
2, 44159, Note_on_c, 0, 81, 83
2, 44159, Note_on_c, 0, 69, 44
2, 44280, Note_on_c, 0, 69, 0
2, 44280, Note_on_c, 0, 74, 0
2, 44280, Note_on_c, 0, 78, 0
2, 44280, Note_on_c, 0, 81, 0
2, 44280, Note_on_c, 0, 78, 77
2, 44280, Note_on_c, 0, 81, 77
2, 44280, Note_on_c, 0, 69, 83
2, 44280, Note_on_c, 0, 75, 83
2, 44400, Note_on_c, 0, 75, 0
2, 44400, Note_on_c, 0, 78, 0
2, 44400, Note_on_c, 0, 81, 0
2, 44400, Note_on_c, 0, 69, 0
2, 44400, Note_on_c, 0, 82, 81
2, 44400, Note_on_c, 0, 70, 68
2, 44519, Note_on_c, 0, 70, 0
2, 44519, Note_on_c, 0, 82, 0
2, 44519, Note_on_c, 0, 83, 84
2, 44519, Note_on_c, 0, 71, 80
2, 44640, Note_on_c, 0, 71, 0
2, 44640, Note_on_c, 0, 83, 0
2, 44640, Note_on_c, 0, 76, 69
2, 44640, Note_on_c, 0, 80, 69
2, 44640, Note_on_c, 0, 68, 71
2, 44760, Note_on_c, 0, 68, 0
2, 44760, Note_on_c, 0, 80, 0
2, 44760, Note_on_c, 0, 76, 0
2, 44760, Note_on_c, 0, 78, 81
2, 44760, Note_on_c, 0, 81, 81
2, 44760, Note_on_c, 0, 69, 75
2, 44879, Note_on_c, 0, 69, 0
2, 44879, Note_on_c, 0, 81, 0
2, 44879, Note_on_c, 0, 78, 0
2, 44879, Note_on_c, 0, 79, 83
2, 44879, Note_on_c, 0, 82, 83
2, 44879, Note_on_c, 0, 70, 85
2, 45000, Note_on_c, 0, 70, 0
2, 45000, Note_on_c, 0, 82, 0
2, 45000, Note_on_c, 0, 79, 0
2, 45000, Note_on_c, 0, 80, 92
2, 45000, Note_on_c, 0, 83, 92
2, 45000, Note_on_c, 0, 71, 92
2, 45000, Note_on_c, 0, 68, 40
2, 45120, Note_on_c, 0, 68, 0
2, 45120, Note_on_c, 0, 69, 46
2, 45239, Note_on_c, 0, 69, 0
2, 45239, Note_on_c, 0, 70, 48
2, 45360, Note_on_c, 0, 70, 0
2, 45360, Note_on_c, 0, 71, 0
2, 45360, Note_on_c, 0, 71, 78
2, 45360, Note_on_c, 0, 68, 38
2, 45480, Note_on_c, 0, 71, 0
2, 45480, Note_on_c, 0, 80, 0
2, 45480, Note_on_c, 0, 83, 0
2, 45480, Note_on_c, 0, 85, 83
2, 45480, Note_on_c, 0, 73, 86
2, 45599, Note_on_c, 0, 73, 0
2, 45599, Note_on_c, 0, 85, 0
2, 45599, Note_on_c, 0, 83, 73
2, 45599, Note_on_c, 0, 71, 79
2, 45720, Note_on_c, 0, 71, 0
2, 45720, Note_on_c, 0, 83, 0
2, 45720, Note_on_c, 0, 85, 92
2, 45720, Note_on_c, 0, 73, 86
2, 45959, Note_on_c, 0, 73, 0
2, 45959, Note_on_c, 0, 85, 0
2, 45959, Note_on_c, 0, 80, 60
2, 45959, Note_on_c, 0, 68, 59
2, 46080, Note_on_c, 0, 68, 0
2, 46080, Note_on_c, 0, 80, 0
2, 46080, Note_on_c, 0, 68, 0
2, 46080, Note_on_c, 0, 78, 80
2, 46080, Note_on_c, 0, 81, 80
2, 46080, Note_on_c, 0, 69, 80
2, 46080, Note_on_c, 0, 66, 33
2, 46200, Note_on_c, 0, 69, 0
2, 46200, Note_on_c, 0, 78, 0
2, 46200, Note_on_c, 0, 81, 0
2, 46200, Note_on_c, 0, 83, 84
2, 46200, Note_on_c, 0, 71, 86
2, 46319, Note_on_c, 0, 71, 0
2, 46319, Note_on_c, 0, 83, 0
2, 46319, Note_on_c, 0, 84, 81
2, 46319, Note_on_c, 0, 72, 83
2, 46440, Note_on_c, 0, 72, 0
2, 46440, Note_on_c, 0, 84, 0
2, 46440, Note_on_c, 0, 66, 0
2, 46440, Note_on_c, 0, 81, 92
2, 46440, Note_on_c, 0, 85, 92
2, 46440, Note_on_c, 0, 73, 87
2, 46440, Note_on_c, 0, 69, 47
2, 46560, Note_on_c, 0, 69, 0
2, 46560, Note_on_c, 0, 71, 47
2, 46679, Note_on_c, 0, 71, 0
2, 46679, Note_on_c, 0, 72, 44
2, 46800, Note_on_c, 0, 72, 0
2, 46800, Note_on_c, 0, 73, 0
2, 46800, Note_on_c, 0, 73, 79
2, 46800, Note_on_c, 0, 69, 35
2, 46920, Note_on_c, 0, 73, 0
2, 46920, Note_on_c, 0, 81, 0
2, 46920, Note_on_c, 0, 85, 0
2, 46920, Note_on_c, 0, 87, 83
2, 46920, Note_on_c, 0, 75, 86
2, 47039, Note_on_c, 0, 75, 0
2, 47039, Note_on_c, 0, 87, 0
2, 47039, Note_on_c, 0, 85, 70
2, 47039, Note_on_c, 0, 73, 73
2, 47160, Note_on_c, 0, 73, 0
2, 47160, Note_on_c, 0, 85, 0
2, 47160, Note_on_c, 0, 87, 92
2, 47160, Note_on_c, 0, 75, 84
2, 47399, Note_on_c, 0, 75, 0
2, 47399, Note_on_c, 0, 87, 0
2, 47399, Note_on_c, 0, 81, 61
2, 47399, Note_on_c, 0, 69, 62
2, 47520, Note_on_c, 0, 69, 0
2, 47520, Note_on_c, 0, 81, 0
2, 47520, Note_on_c, 0, 69, 0
2, 47520, Note_on_c, 0, 80, 82
2, 47520, Note_on_c, 0, 83, 82
2, 47520, Note_on_c, 0, 71, 84
2, 47520, Note_on_c, 0, 68, 37
2, 47640, Note_on_c, 0, 71, 0
2, 47640, Note_on_c, 0, 80, 0
2, 47640, Note_on_c, 0, 83, 0
2, 47640, Note_on_c, 0, 85, 85
2, 47640, Note_on_c, 0, 73, 85
2, 47759, Note_on_c, 0, 73, 0
2, 47759, Note_on_c, 0, 85, 0
2, 47759, Note_on_c, 0, 86, 81
2, 47759, Note_on_c, 0, 74, 80
2, 47880, Note_on_c, 0, 74, 0
2, 47880, Note_on_c, 0, 86, 0
2, 47880, Note_on_c, 0, 68, 0
2, 47880, Note_on_c, 0, 83, 92
2, 47880, Note_on_c, 0, 87, 92
2, 47880, Note_on_c, 0, 75, 83
2, 47880, Note_on_c, 0, 71, 48
2, 48000, Note_on_c, 0, 71, 0
2, 48000, Note_on_c, 0, 73, 44
2, 48119, Note_on_c, 0, 73, 0
2, 48119, Note_on_c, 0, 74, 49
2, 48240, Note_on_c, 0, 74, 0
2, 48240, Note_on_c, 0, 75, 0
2, 48240, Note_on_c, 0, 75, 78
2, 48240, Note_on_c, 0, 71, 34
2, 48360, Note_on_c, 0, 75, 0
2, 48360, Note_on_c, 0, 83, 0
2, 48360, Note_on_c, 0, 87, 0
2, 48360, Note_on_c, 0, 88, 85
2, 48360, Note_on_c, 0, 76, 82
2, 48479, Note_on_c, 0, 76, 0
2, 48479, Note_on_c, 0, 88, 0
2, 48479, Note_on_c, 0, 87, 70
2, 48479, Note_on_c, 0, 75, 78
2, 48600, Note_on_c, 0, 75, 0
2, 48600, Note_on_c, 0, 87, 0
2, 48600, Note_on_c, 0, 88, 92
2, 48600, Note_on_c, 0, 76, 85
2, 48839, Note_on_c, 0, 76, 0
2, 48839, Note_on_c, 0, 88, 0
2, 48839, Note_on_c, 0, 83, 65
2, 48839, Note_on_c, 0, 71, 64
2, 48960, Note_on_c, 0, 71, 0
2, 48960, Note_on_c, 0, 83, 0
2, 48960, Note_on_c, 0, 71, 0
2, 48960, Note_on_c, 0, 81, 86
2, 48960, Note_on_c, 0, 85, 86
2, 48960, Note_on_c, 0, 73, 87
2, 48960, Note_on_c, 0, 69, 35
2, 49080, Note_on_c, 0, 73, 0
2, 49080, Note_on_c, 0, 81, 0
2, 49080, Note_on_c, 0, 85, 0
2, 49080, Note_on_c, 0, 83, 86
2, 49080, Note_on_c, 0, 86, 86
2, 49080, Note_on_c, 0, 74, 90
2, 49199, Note_on_c, 0, 74, 0
2, 49199, Note_on_c, 0, 86, 0
2, 49199, Note_on_c, 0, 83, 0
2, 49199, Note_on_c, 0, 84, 82
2, 49199, Note_on_c, 0, 87, 82
2, 49199, Note_on_c, 0, 75, 84
2, 49320, Note_on_c, 0, 75, 0
2, 49320, Note_on_c, 0, 69, 0
2, 49320, Note_on_c, 0, 84, 0
2, 49320, Note_on_c, 0, 87, 0
2, 49320, Note_on_c, 0, 85, 92
2, 49320, Note_on_c, 0, 88, 92
2, 49320, Note_on_c, 0, 73, 80
2, 49320, Note_on_c, 0, 76, 80
2, 49559, Note_on_c, 0, 76, 0
2, 49559, Note_on_c, 0, 85, 0
2, 49559, Note_on_c, 0, 88, 0
2, 49559, Note_on_c, 0, 73, 0
2, 49559, Note_on_c, 0, 85, 68
2, 49559, Note_on_c, 0, 73, 70
2, 49680, Note_on_c, 0, 73, 0
2, 49680, Note_on_c, 0, 85, 0
2, 49680, Note_on_c, 0, 84, 85
2, 49680, Note_on_c, 0, 87, 85
2, 49680, Note_on_c, 0, 75, 83
2, 49680, Note_on_c, 0, 71, 45
2, 49800, Note_on_c, 0, 75, 0
2, 49800, Note_on_c, 0, 84, 0
2, 49800, Note_on_c, 0, 87, 0
2, 49800, Note_on_c, 0, 85, 89
2, 49800, Note_on_c, 0, 88, 89
2, 49800, Note_on_c, 0, 76, 87
2, 49919, Note_on_c, 0, 76, 0
2, 49919, Note_on_c, 0, 88, 0
2, 49919, Note_on_c, 0, 85, 0
2, 49919, Note_on_c, 0, 86, 84
2, 49919, Note_on_c, 0, 89, 84
2, 49919, Note_on_c, 0, 77, 83
2, 50040, Note_on_c, 0, 77, 0
2, 50040, Note_on_c, 0, 71, 0
2, 50040, Note_on_c, 0, 86, 0
2, 50040, Note_on_c, 0, 89, 0
2, 50040, Note_on_c, 0, 87, 92
2, 50040, Note_on_c, 0, 90, 92
2, 50040, Note_on_c, 0, 75, 82
2, 50040, Note_on_c, 0, 78, 82
2, 50279, Note_on_c, 0, 78, 0
2, 50279, Note_on_c, 0, 87, 0
2, 50279, Note_on_c, 0, 90, 0
2, 50279, Note_on_c, 0, 75, 0
2, 50279, Note_on_c, 0, 87, 68
2, 50279, Note_on_c, 0, 75, 71
2, 50400, Note_on_c, 0, 75, 0
2, 50400, Note_on_c, 0, 87, 0
2, 50400, Note_on_c, 0, 88, 82
2, 50400, Note_on_c, 0, 85, 75
2, 50400, Note_on_c, 0, 76, 84
2, 50400, Note_on_c, 0, 73, 46
2, 50520, Note_on_c, 0, 76, 0
2, 50520, Note_on_c, 0, 88, 0
2, 50520, Note_on_c, 0, 90, 83
2, 50520, Note_on_c, 0, 78, 83
2, 50639, Note_on_c, 0, 78, 0
2, 50639, Note_on_c, 0, 90, 0
2, 50639, Note_on_c, 0, 91, 82
2, 50639, Note_on_c, 0, 79, 89
2, 50760, Note_on_c, 0, 79, 0
2, 50760, Note_on_c, 0, 73, 0
2, 50760, Note_on_c, 0, 85, 0
2, 50760, Note_on_c, 0, 91, 0
2, 50760, Note_on_c, 0, 88, 92
2, 50760, Note_on_c, 0, 92, 92
2, 50760, Note_on_c, 0, 76, 81
2, 50760, Note_on_c, 0, 80, 81
2, 50999, Note_on_c, 0, 80, 0
2, 50999, Note_on_c, 0, 88, 0
2, 50999, Note_on_c, 0, 92, 0
2, 50999, Note_on_c, 0, 76, 0
2, 50999, Note_on_c, 0, 90, 74
2, 50999, Note_on_c, 0, 78, 69
2, 51120, Note_on_c, 0, 78, 0
2, 51120, Note_on_c, 0, 90, 0
2, 51120, Note_on_c, 0, 88, 92
2, 51120, Note_on_c, 0, 92, 92
2, 51120, Note_on_c, 0, 76, 87
2, 51120, Note_on_c, 0, 80, 87
2, 51359, Note_on_c, 0, 80, 0
2, 51359, Note_on_c, 0, 88, 0
2, 51359, Note_on_c, 0, 92, 0
2, 51359, Note_on_c, 0, 76, 0
2, 51359, Note_on_c, 0, 90, 70
2, 51359, Note_on_c, 0, 78, 71
2, 51480, Note_on_c, 0, 78, 0
2, 51480, Note_on_c, 0, 90, 0
2, 51480, Note_on_c, 0, 88, 92
2, 51480, Note_on_c, 0, 92, 92
2, 51480, Note_on_c, 0, 76, 80
2, 51480, Note_on_c, 0, 80, 80
2, 51719, Note_on_c, 0, 80, 0
2, 51719, Note_on_c, 0, 88, 0
2, 51719, Note_on_c, 0, 92, 0
2, 51719, Note_on_c, 0, 76, 0
2, 51719, Note_on_c, 0, 87, 62
2, 51719, Note_on_c, 0, 75, 65
2, 51840, Note_on_c, 0, 75, 0
2, 51840, Note_on_c, 0, 87, 0
2, 51840, Note_on_c, 0, 88, 81
2, 51840, Note_on_c, 0, 80, 69
2, 51840, Note_on_c, 0, 76, 77
2, 51960, Note_on_c, 0, 76, 0
2, 51960, Note_on_c, 0, 88, 0
2, 51960, Note_on_c, 0, 82, 66
2, 51960, Note_on_c, 0, 70, 57
2, 52079, Note_on_c, 0, 70, 0
2, 52079, Note_on_c, 0, 82, 0
2, 52079, Note_on_c, 0, 83, 79
2, 52079, Note_on_c, 0, 71, 82
2, 52200, Note_on_c, 0, 71, 0
2, 52200, Note_on_c, 0, 83, 0
2, 52200, Note_on_c, 0, 80, 0
2, 52200, Note_on_c, 0, 84, 92
2, 52200, Note_on_c, 0, 80, 84
2, 52200, Note_on_c, 0, 72, 78
2, 52439, Note_on_c, 0, 72, 0
2, 52439, Note_on_c, 0, 84, 0
2, 52439, Note_on_c, 0, 83, 73
2, 52439, Note_on_c, 0, 71, 75
2, 52560, Note_on_c, 0, 71, 0
2, 52560, Note_on_c, 0, 83, 0
2, 52560, Note_on_c, 0, 80, 0
2, 52560, Note_on_c, 0, 84, 92
2, 52560, Note_on_c, 0, 80, 86
2, 52560, Note_on_c, 0, 72, 82
2, 52799, Note_on_c, 0, 72, 0
2, 52799, Note_on_c, 0, 84, 0
2, 52799, Note_on_c, 0, 83, 74
2, 52799, Note_on_c, 0, 71, 72
2, 52920, Note_on_c, 0, 71, 0
2, 52920, Note_on_c, 0, 83, 0
2, 52920, Note_on_c, 0, 80, 0
2, 52920, Note_on_c, 0, 84, 92
2, 52920, Note_on_c, 0, 80, 91
2, 52920, Note_on_c, 0, 72, 80
2, 53159, Note_on_c, 0, 72, 0
2, 53159, Note_on_c, 0, 84, 0
2, 53159, Note_on_c, 0, 79, 65
2, 53280, Note_on_c, 0, 79, 0
2, 53280, Note_on_c, 0, 80, 0
2, 53280, Note_on_c, 0, 80, 77
2, 53280, Note_on_c, 0, 73, 70
2, 53400, Note_on_c, 0, 73, 0
2, 53400, Note_on_c, 0, 80, 0
2, 53400, Note_on_c, 0, 81, 81
2, 53400, Note_on_c, 0, 69, 66
2, 53519, Note_on_c, 0, 69, 0
2, 53519, Note_on_c, 0, 81, 0
2, 53519, Note_on_c, 0, 82, 85
2, 53519, Note_on_c, 0, 70, 82
2, 53640, Note_on_c, 0, 70, 0
2, 53640, Note_on_c, 0, 82, 0
2, 53640, Note_on_c, 0, 83, 92
2, 53640, Note_on_c, 0, 76, 76
2, 53640, Note_on_c, 0, 71, 92
2, 53640, Note_on_c, 0, 68, 30
2, 53879, Note_on_c, 0, 71, 0
2, 53879, Note_on_c, 0, 83, 0
2, 53879, Note_on_c, 0, 83, 79
2, 53879, Note_on_c, 0, 71, 81
2, 54000, Note_on_c, 0, 71, 0
2, 54000, Note_on_c, 0, 83, 0
2, 54000, Note_on_c, 0, 68, 0
2, 54000, Note_on_c, 0, 85, 85
2, 54000, Note_on_c, 0, 73, 86
2, 54120, Note_on_c, 0, 73, 0
2, 54120, Note_on_c, 0, 85, 0
2, 54120, Note_on_c, 0, 78, 63
2, 54120, Note_on_c, 0, 66, 29
2, 54239, Note_on_c, 0, 78, 0
2, 54239, Note_on_c, 0, 80, 78
2, 54239, Note_on_c, 0, 68, 67
2, 54360, Note_on_c, 0, 68, 0
2, 54360, Note_on_c, 0, 80, 0
2, 54360, Note_on_c, 0, 76, 0
2, 54360, Note_on_c, 0, 81, 92
2, 54360, Note_on_c, 0, 75, 75
2, 54360, Note_on_c, 0, 69, 92
2, 54599, Note_on_c, 0, 69, 0
2, 54599, Note_on_c, 0, 81, 0
2, 54599, Note_on_c, 0, 81, 77
2, 54599, Note_on_c, 0, 69, 78
2, 54720, Note_on_c, 0, 69, 0
2, 54720, Note_on_c, 0, 66, 0
2, 54720, Note_on_c, 0, 75, 0
2, 54720, Note_on_c, 0, 81, 0
2, 54720, Note_on_c, 0, 83, 83
2, 54720, Note_on_c, 0, 74, 80
2, 54720, Note_on_c, 0, 71, 87
2, 54840, Note_on_c, 0, 71, 0
2, 54840, Note_on_c, 0, 83, 0
2, 54840, Note_on_c, 0, 77, 65
2, 54840, Note_on_c, 0, 65, 39
2, 54959, Note_on_c, 0, 77, 0
2, 54959, Note_on_c, 0, 78, 81
2, 54959, Note_on_c, 0, 66, 69
2, 55080, Note_on_c, 0, 66, 0
2, 55080, Note_on_c, 0, 78, 0
2, 55080, Note_on_c, 0, 74, 0
2, 55080, Note_on_c, 0, 80, 92
2, 55080, Note_on_c, 0, 73, 82
2, 55080, Note_on_c, 0, 68, 92
2, 55319, Note_on_c, 0, 68, 0
2, 55319, Note_on_c, 0, 80, 0
2, 55319, Note_on_c, 0, 80, 80
2, 55319, Note_on_c, 0, 68, 81
2, 55440, Note_on_c, 0, 68, 0
2, 55440, Note_on_c, 0, 80, 0
2, 55440, Note_on_c, 0, 65, 0
2, 55440, Note_on_c, 0, 81, 81
2, 55440, Note_on_c, 0, 69, 87
2, 55440, Note_on_c, 0, 64, 39
2, 55800, Note_on_c, 0, 64, 0
2, 55800, Note_on_c, 0, 73, 0
2, 55800, Note_on_c, 0, 81, 0
2, 55800, Note_on_c, 0, 69, 0
2, 55800, Note_on_c, 0, 75, 86
2, 55800, Note_on_c, 0, 71, 83
2, 55800, Note_on_c, 0, 69, 92
2, 55800, Note_on_c, 0, 63, 39
2, 56160, Note_on_c, 0, 63, 0
2, 56160, Note_on_c, 0, 75, 0
2, 56160, Note_on_c, 0, 71, 0
2, 56160, Note_on_c, 0, 69, 0
2, 56160, Note_on_c, 0, 76, 77
2, 56160, Note_on_c, 0, 71, 89
2, 56160, Note_on_c, 0, 64, 74
2, 56160, Note_on_c, 0, 68, 74
2, 56280, Note_on_c, 0, 68, 0
2, 56280, Note_on_c, 0, 64, 0
2, 56280, Note_on_c, 0, 76, 0
2, 56280, Note_on_c, 0, 78, 80
2, 56280, Note_on_c, 0, 66, 71
2, 56399, Note_on_c, 0, 66, 0
2, 56399, Note_on_c, 0, 78, 0
2, 56399, Note_on_c, 0, 79, 79
2, 56399, Note_on_c, 0, 67, 81
2, 56520, Note_on_c, 0, 67, 0
2, 56520, Note_on_c, 0, 79, 0
2, 56520, Note_on_c, 0, 71, 0
2, 56520, Note_on_c, 0, 80, 92
2, 56520, Note_on_c, 0, 68, 85
2, 56759, Note_on_c, 0, 68, 0
2, 56759, Note_on_c, 0, 80, 0
2, 56759, Note_on_c, 0, 78, 71
2, 56759, Note_on_c, 0, 66, 77
2, 56880, Note_on_c, 0, 66, 0
2, 56880, Note_on_c, 0, 78, 0
2, 56880, Note_on_c, 0, 76, 92
2, 56880, Note_on_c, 0, 64, 65
2, 57119, Note_on_c, 0, 64, 0
2, 57119, Note_on_c, 0, 76, 0
2, 57119, Note_on_c, 0, 75, 72
2, 57119, Note_on_c, 0, 63, 71
2, 57240, Note_on_c, 0, 63, 0
2, 57240, Note_on_c, 0, 75, 0
2, 57240, Note_on_c, 0, 73, 74
2, 57240, Note_on_c, 0, 61, 73
2, 57479, Note_on_c, 0, 61, 0
2, 57479, Note_on_c, 0, 73, 0
2, 57479, Note_on_c, 0, 71, 67
2, 57479, Note_on_c, 0, 59, 69
2, 57600, Note_on_c, 0, 59, 0
2, 57600, Note_on_c, 0, 71, 0
2, 57600, Note_on_c, 0, 69, 92
2, 57600, Note_on_c, 0, 57, 92
2, 57960, Note_on_c, 0, 57, 0
2, 57960, Note_on_c, 0, 69, 0
2, 57960, Note_on_c, 0, 68, 92
2, 58320, Note_on_c, 0, 68, 0
2, 58320, Note_on_c, 0, 66, 92
2, 58680, Note_on_c, 0, 66, 0
2, 58680, Note_on_c, 0, 64, 92
2, 59040, Note_on_c, 0, 64, 0
2, 59040, Note_on_c, 0, 63, 92
2, 68358, Note_on_c, 0, 63, 92
2, 68400, Note_on_c, 0, 63, 0
2, 68400, Note_on_c, 0, 63, 0
2, 68400, Note_on_c, 0, 63, 92
2, 73440, Note_on_c, 0, 63, 0
2, 73440, Note_on_c, 0, 63, 88
2, 76320, Note_on_c, 0, 63, 0
2, 76320, Note_on_c, 0, 68, 38
2, 76320, Note_on_c, 0, 63, 20
2, 78120, Note_on_c, 0, 63, 0
2, 78120, Note_on_c, 0, 68, 0
2, 78120, Note_on_c, 0, 70, 31
2, 78120, Note_on_c, 0, 63, 27
2, 78299, Note_on_c, 0, 63, 0
2, 78299, Note_on_c, 0, 70, 0
2, 78480, Note_on_c, 0, 68, 26
2, 78480, Note_on_c, 0, 63, 22
2, 78659, Note_on_c, 0, 63, 0
2, 78659, Note_on_c, 0, 68, 0
2, 78840, Note_on_c, 0, 70, 31
2, 78840, Note_on_c, 0, 63, 19
2, 79019, Note_on_c, 0, 63, 0
2, 79019, Note_on_c, 0, 70, 0
2, 79200, Note_on_c, 0, 68, 19
2, 79200, Note_on_c, 0, 63, 24
2, 81000, Note_on_c, 0, 63, 0
2, 81000, Note_on_c, 0, 68, 0
2, 81000, Note_on_c, 0, 70, 26
2, 81000, Note_on_c, 0, 63, 24
2, 81179, Note_on_c, 0, 63, 0
2, 81179, Note_on_c, 0, 70, 0
2, 81360, Note_on_c, 0, 68, 24
2, 81360, Note_on_c, 0, 63, 26
2, 81539, Note_on_c, 0, 63, 0
2, 81539, Note_on_c, 0, 68, 0
2, 81720, Note_on_c, 0, 70, 29
2, 81720, Note_on_c, 0, 63, 25
2, 81899, Note_on_c, 0, 63, 0
2, 81899, Note_on_c, 0, 70, 0
2, 82080, Note_on_c, 0, 68, 24
2, 82080, Note_on_c, 0, 63, 30
2, 82259, Note_on_c, 0, 63, 0
2, 82259, Note_on_c, 0, 68, 0
2, 82440, Note_on_c, 0, 66, 25
2, 82440, Note_on_c, 0, 64, 28
2, 82560, Note_on_c, 0, 66, 0
2, 82560, Note_on_c, 0, 68, 34
2, 82679, Note_on_c, 0, 68, 0
2, 82679, Note_on_c, 0, 70, 42
2, 82800, Note_on_c, 0, 70, 0
2, 82800, Note_on_c, 0, 64, 0
2, 82800, Note_on_c, 0, 71, 51
2, 82800, Note_on_c, 0, 63, 23
2, 83880, Note_on_c, 0, 63, 0
2, 83880, Note_on_c, 0, 71, 0
2, 83880, Note_on_c, 0, 70, 20
2, 83880, Note_on_c, 0, 63, 29
2, 84059, Note_on_c, 0, 63, 0
2, 84059, Note_on_c, 0, 70, 0
2, 84240, Note_on_c, 0, 68, 18
2, 84240, Note_on_c, 0, 63, 28
2, 84419, Note_on_c, 0, 63, 0
2, 84419, Note_on_c, 0, 68, 0
2, 84600, Note_on_c, 0, 70, 31
2, 84600, Note_on_c, 0, 63, 28
2, 84779, Note_on_c, 0, 63, 0
2, 84779, Note_on_c, 0, 70, 0
2, 84960, Note_on_c, 0, 68, 20
2, 84960, Note_on_c, 0, 63, 28
2, 85139, Note_on_c, 0, 63, 0
2, 85139, Note_on_c, 0, 68, 0
2, 85320, Note_on_c, 0, 66, 25
2, 85320, Note_on_c, 0, 64, 32
2, 85440, Note_on_c, 0, 66, 0
2, 85440, Note_on_c, 0, 68, 34
2, 85499, Note_on_c, 0, 64, 0
2, 85559, Note_on_c, 0, 68, 0
2, 85559, Note_on_c, 0, 70, 42
2, 85680, Note_on_c, 0, 70, 0
2, 85680, Note_on_c, 0, 71, 54
2, 85680, Note_on_c, 0, 63, 13
2, 86760, Note_on_c, 0, 63, 0
2, 86760, Note_on_c, 0, 71, 0
2, 86760, Note_on_c, 0, 70, 47
2, 86760, Note_on_c, 0, 63, 26
2, 86939, Note_on_c, 0, 63, 0
2, 86939, Note_on_c, 0, 70, 0
2, 87120, Note_on_c, 0, 68, 45
2, 87120, Note_on_c, 0, 63, 26
2, 87299, Note_on_c, 0, 63, 0
2, 87299, Note_on_c, 0, 68, 0
2, 87480, Note_on_c, 0, 68, 51
2, 87480, Note_on_c, 0, 63, 28
2, 87659, Note_on_c, 0, 63, 0
2, 87659, Note_on_c, 0, 68, 0
2, 87840, Note_on_c, 0, 70, 27
2, 87840, Note_on_c, 0, 63, 28
2, 87840, Note_on_c, 0, 66, 28
2, 89640, Note_on_c, 0, 66, 0
2, 89640, Note_on_c, 0, 63, 0
2, 89640, Note_on_c, 0, 70, 0
2, 89640, Note_on_c, 0, 68, 24
2, 89640, Note_on_c, 0, 63, 24
2, 89640, Note_on_c, 0, 65, 24
2, 89819, Note_on_c, 0, 65, 0
2, 89819, Note_on_c, 0, 63, 0
2, 89819, Note_on_c, 0, 68, 0
2, 90000, Note_on_c, 0, 70, 26
2, 90000, Note_on_c, 0, 63, 32
2, 90000, Note_on_c, 0, 66, 32
2, 90179, Note_on_c, 0, 66, 0
2, 90179, Note_on_c, 0, 63, 0
2, 90179, Note_on_c, 0, 70, 0
2, 90360, Note_on_c, 0, 68, 24
2, 90360, Note_on_c, 0, 63, 22
2, 90360, Note_on_c, 0, 65, 22
2, 90539, Note_on_c, 0, 65, 0
2, 90539, Note_on_c, 0, 63, 0
2, 90539, Note_on_c, 0, 68, 0
2, 90720, Note_on_c, 0, 70, 28
2, 90720, Note_on_c, 0, 63, 26
2, 90720, Note_on_c, 0, 66, 26
2, 92520, Note_on_c, 0, 66, 0
2, 92520, Note_on_c, 0, 63, 0
2, 92520, Note_on_c, 0, 70, 0
2, 92520, Note_on_c, 0, 68, 22
2, 92520, Note_on_c, 0, 63, 24
2, 92520, Note_on_c, 0, 65, 24
2, 92699, Note_on_c, 0, 65, 0
2, 92699, Note_on_c, 0, 63, 0
2, 92699, Note_on_c, 0, 68, 0
2, 92880, Note_on_c, 0, 70, 29
2, 92880, Note_on_c, 0, 63, 29
2, 92880, Note_on_c, 0, 66, 29
2, 93059, Note_on_c, 0, 66, 0
2, 93059, Note_on_c, 0, 63, 0
2, 93059, Note_on_c, 0, 70, 0
2, 93240, Note_on_c, 0, 68, 22
2, 93240, Note_on_c, 0, 63, 21
2, 93240, Note_on_c, 0, 65, 21
2, 93419, Note_on_c, 0, 65, 0
2, 93419, Note_on_c, 0, 63, 0
2, 93419, Note_on_c, 0, 68, 0
2, 93600, Note_on_c, 0, 70, 25
2, 93600, Note_on_c, 0, 63, 32
2, 93600, Note_on_c, 0, 66, 32
2, 93720, Note_on_c, 0, 70, 0
2, 93720, Note_on_c, 0, 71, 34
2, 93779, Note_on_c, 0, 66, 0
2, 93779, Note_on_c, 0, 63, 0
2, 93839, Note_on_c, 0, 71, 0
2, 93839, Note_on_c, 0, 73, 42
2, 93960, Note_on_c, 0, 73, 0
2, 93960, Note_on_c, 0, 75, 51
2, 93960, Note_on_c, 0, 71, 92
2, 93960, Note_on_c, 0, 63, 29
2, 93960, Note_on_c, 0, 66, 29
2, 94680, Note_on_c, 0, 66, 0
2, 94680, Note_on_c, 0, 75, 0
2, 94680, Note_on_c, 0, 71, 0
2, 94680, Note_on_c, 0, 63, 0
2, 94680, Note_on_c, 0, 70, 15
2, 94680, Note_on_c, 0, 63, 28
2, 94680, Note_on_c, 0, 66, 28
2, 95400, Note_on_c, 0, 66, 0
2, 95400, Note_on_c, 0, 63, 0
2, 95400, Note_on_c, 0, 70, 0
2, 95400, Note_on_c, 0, 68, 21
2, 95400, Note_on_c, 0, 63, 26
2, 95400, Note_on_c, 0, 65, 26
2, 95579, Note_on_c, 0, 65, 0
2, 95579, Note_on_c, 0, 63, 0
2, 95579, Note_on_c, 0, 68, 0
2, 95760, Note_on_c, 0, 70, 28
2, 95760, Note_on_c, 0, 63, 25
2, 95760, Note_on_c, 0, 66, 25
2, 95939, Note_on_c, 0, 66, 0
2, 95939, Note_on_c, 0, 63, 0
2, 95939, Note_on_c, 0, 70, 0
2, 96120, Note_on_c, 0, 68, 22
2, 96120, Note_on_c, 0, 63, 21
2, 96120, Note_on_c, 0, 65, 21
2, 96299, Note_on_c, 0, 65, 0
2, 96299, Note_on_c, 0, 63, 0
2, 96299, Note_on_c, 0, 68, 0
2, 96480, Note_on_c, 0, 70, 25
2, 96480, Note_on_c, 0, 63, 25
2, 96480, Note_on_c, 0, 66, 25
2, 96600, Note_on_c, 0, 70, 0
2, 96600, Note_on_c, 0, 71, 34
2, 96659, Note_on_c, 0, 66, 0
2, 96659, Note_on_c, 0, 63, 0
2, 96719, Note_on_c, 0, 71, 0
2, 96719, Note_on_c, 0, 73, 42
2, 96840, Note_on_c, 0, 73, 0
2, 96840, Note_on_c, 0, 75, 51
2, 96840, Note_on_c, 0, 71, 91
2, 96840, Note_on_c, 0, 63, 28
2, 96840, Note_on_c, 0, 66, 28
2, 97560, Note_on_c, 0, 66, 0
2, 97560, Note_on_c, 0, 75, 0
2, 97560, Note_on_c, 0, 71, 0
2, 97560, Note_on_c, 0, 63, 0
2, 97560, Note_on_c, 0, 70, 15
2, 97560, Note_on_c, 0, 63, 31
2, 97560, Note_on_c, 0, 66, 31
2, 98280, Note_on_c, 0, 66, 0
2, 98280, Note_on_c, 0, 63, 0
2, 98280, Note_on_c, 0, 70, 0
2, 98280, Note_on_c, 0, 68, 22
2, 98280, Note_on_c, 0, 63, 21
2, 98280, Note_on_c, 0, 65, 21
2, 98459, Note_on_c, 0, 65, 0
2, 98459, Note_on_c, 0, 63, 0
2, 98459, Note_on_c, 0, 68, 0
2, 98640, Note_on_c, 0, 70, 30
2, 98640, Note_on_c, 0, 63, 33
2, 98640, Note_on_c, 0, 66, 33
2, 98819, Note_on_c, 0, 66, 0
2, 98819, Note_on_c, 0, 63, 0
2, 98819, Note_on_c, 0, 70, 0
2, 99000, Note_on_c, 0, 63, 27
2, 99000, Note_on_c, 0, 66, 27
2, 99179, Note_on_c, 0, 66, 0
2, 99179, Note_on_c, 0, 63, 0
2, 99360, Note_on_c, 0, 75, 37
2, 99360, Note_on_c, 0, 71, 63
2, 99360, Note_on_c, 0, 63, 40
2, 99720, Note_on_c, 0, 63, 0
2, 99720, Note_on_c, 0, 71, 0
2, 99720, Note_on_c, 0, 71, 52
2, 99720, Note_on_c, 0, 63, 38
2, 99840, Note_on_c, 0, 71, 0
2, 99840, Note_on_c, 0, 68, 42
2, 99959, Note_on_c, 0, 68, 0
2, 99959, Note_on_c, 0, 69, 49
2, 100080, Note_on_c, 0, 69, 0
2, 100080, Note_on_c, 0, 63, 0
2, 100080, Note_on_c, 0, 70, 50
2, 100080, Note_on_c, 0, 63, 43
2, 100440, Note_on_c, 0, 63, 0
2, 100440, Note_on_c, 0, 70, 0
2, 100440, Note_on_c, 0, 69, 50
2, 100440, Note_on_c, 0, 63, 37
2, 100800, Note_on_c, 0, 63, 0
2, 100800, Note_on_c, 0, 69, 0
2, 100800, Note_on_c, 0, 63, 43
2, 100800, Note_on_c, 0, 68, 43
2, 100920, Note_on_c, 0, 75, 0
2, 100920, Note_on_c, 0, 76, 65
2, 101039, Note_on_c, 0, 76, 0
2, 101039, Note_on_c, 0, 78, 68
2, 101160, Note_on_c, 0, 78, 0
2, 101160, Note_on_c, 0, 68, 0
2, 101160, Note_on_c, 0, 63, 0
2, 101160, Note_on_c, 0, 80, 62
2, 101160, Note_on_c, 0, 69, 91
2, 101160, Note_on_c, 0, 64, 50
2, 101160, Note_on_c, 0, 68, 50
2, 101160, Note_on_c, 0, 60, 34
2, 101520, Note_on_c, 0, 60, 0
2, 101520, Note_on_c, 0, 69, 0
2, 101520, Note_on_c, 0, 70, 81
2, 101520, Note_on_c, 0, 61, 45
2, 101880, Note_on_c, 0, 61, 0
2, 101880, Note_on_c, 0, 70, 0
2, 101880, Note_on_c, 0, 69, 70
2, 101880, Note_on_c, 0, 60, 36
2, 102240, Note_on_c, 0, 60, 0
2, 102240, Note_on_c, 0, 68, 0
2, 102240, Note_on_c, 0, 80, 0
2, 102240, Note_on_c, 0, 64, 0
2, 102240, Note_on_c, 0, 69, 0
2, 102240, Note_on_c, 0, 75, 41
2, 102240, Note_on_c, 0, 68, 46
2, 102240, Note_on_c, 0, 63, 48
2, 102600, Note_on_c, 0, 63, 0
2, 102600, Note_on_c, 0, 68, 0
2, 102600, Note_on_c, 0, 69, 51
2, 102600, Note_on_c, 0, 63, 44
2, 102720, Note_on_c, 0, 69, 0
2, 102720, Note_on_c, 0, 66, 40
2, 102839, Note_on_c, 0, 66, 0
2, 102839, Note_on_c, 0, 67, 52
2, 102960, Note_on_c, 0, 67, 0
2, 102960, Note_on_c, 0, 63, 0
2, 102960, Note_on_c, 0, 68, 45
2, 102960, Note_on_c, 0, 63, 43
2, 103320, Note_on_c, 0, 63, 0
2, 103320, Note_on_c, 0, 68, 0
2, 103320, Note_on_c, 0, 67, 43
2, 103320, Note_on_c, 0, 63, 37
2, 103440, Note_on_c, 0, 63, 0
2, 103440, Note_on_c, 0, 61, 37
2, 103559, Note_on_c, 0, 61, 0
2, 103559, Note_on_c, 0, 62, 42
2, 103680, Note_on_c, 0, 62, 0
2, 103680, Note_on_c, 0, 67, 0
2, 103680, Note_on_c, 0, 75, 0
2, 103680, Note_on_c, 0, 75, 49
2, 103680, Note_on_c, 0, 66, 48
2, 103680, Note_on_c, 0, 63, 41
2, 104040, Note_on_c, 0, 63, 0
2, 104040, Note_on_c, 0, 66, 0
2, 104040, Note_on_c, 0, 65, 41
2, 104040, Note_on_c, 0, 63, 33
2, 104400, Note_on_c, 0, 63, 0
2, 104400, Note_on_c, 0, 62, 25
2, 104760, Note_on_c, 0, 65, 0
2, 104760, Note_on_c, 0, 64, 25
2, 105120, Note_on_c, 0, 64, 0
2, 105120, Note_on_c, 0, 62, 0
2, 105120, Note_on_c, 0, 75, 0
2, 105120, Note_on_c, 0, 67, 8
2, 105120, Note_on_c, 0, 70, 8
2, 105120, Note_on_c, 0, 75, 8
2, 105120, Note_on_c, 0, 63, 15
2, 106920, Note_on_c, 0, 63, 0
2, 106920, Note_on_c, 0, 67, 0
2, 106920, Note_on_c, 0, 70, 0
2, 106920, Note_on_c, 0, 75, 0
2, 106920, Note_on_c, 0, 67, 21
2, 106920, Note_on_c, 0, 75, 21
2, 106920, Note_on_c, 0, 79, 21
2, 106920, Note_on_c, 0, 63, 18
2, 107040, Note_on_c, 0, 63, 0
2, 107040, Note_on_c, 0, 67, 0
2, 107040, Note_on_c, 0, 75, 0
2, 107040, Note_on_c, 0, 79, 0
2, 107040, Note_on_c, 0, 72, 8
2, 107040, Note_on_c, 0, 63, 10
2, 107159, Note_on_c, 0, 63, 0
2, 107159, Note_on_c, 0, 72, 0
2, 107159, Note_on_c, 0, 74, 19
2, 107159, Note_on_c, 0, 63, 13
2, 107280, Note_on_c, 0, 63, 0
2, 107280, Note_on_c, 0, 74, 0
2, 107280, Note_on_c, 0, 75, 22
2, 107280, Note_on_c, 0, 63, 29
2, 107280, Note_on_c, 0, 67, 29
2, 107280, Note_on_c, 0, 70, 29
2, 107400, Note_on_c, 0, 75, 0
2, 107400, Note_on_c, 0, 75, 14
2, 107519, Note_on_c, 0, 75, 0
2, 107519, Note_on_c, 0, 77, 18
2, 107640, Note_on_c, 0, 77, 0
2, 107640, Note_on_c, 0, 63, 0
2, 107640, Note_on_c, 0, 67, 0
2, 107640, Note_on_c, 0, 70, 0
2, 107640, Note_on_c, 0, 79, 18
2, 107640, Note_on_c, 0, 63, 23
2, 107640, Note_on_c, 0, 67, 23
2, 107640, Note_on_c, 0, 72, 23
2, 107760, Note_on_c, 0, 79, 0
2, 107760, Note_on_c, 0, 72, 6
2, 107879, Note_on_c, 0, 72, 0
2, 107879, Note_on_c, 0, 74, 13
2, 108000, Note_on_c, 0, 74, 0
2, 108000, Note_on_c, 0, 72, 0
2, 108000, Note_on_c, 0, 67, 0
2, 108000, Note_on_c, 0, 63, 0
2, 108000, Note_on_c, 0, 75, 16
2, 108000, Note_on_c, 0, 63, 13
2, 108000, Note_on_c, 0, 67, 13
2, 108000, Note_on_c, 0, 70, 13
2, 109800, Note_on_c, 0, 70, 0
2, 109800, Note_on_c, 0, 75, 0
2, 109800, Note_on_c, 0, 63, 0
2, 109800, Note_on_c, 0, 67, 0
2, 109800, Note_on_c, 0, 67, 22
2, 109800, Note_on_c, 0, 75, 22
2, 109800, Note_on_c, 0, 79, 22
2, 109800, Note_on_c, 0, 63, 7
2, 109920, Note_on_c, 0, 63, 0
2, 109920, Note_on_c, 0, 67, 0
2, 109920, Note_on_c, 0, 75, 0
2, 109920, Note_on_c, 0, 79, 0
2, 109920, Note_on_c, 0, 72, 4
2, 109920, Note_on_c, 0, 63, 15
2, 110039, Note_on_c, 0, 63, 0
2, 110039, Note_on_c, 0, 72, 0
2, 110039, Note_on_c, 0, 74, 18
2, 110039, Note_on_c, 0, 63, 16
2, 110160, Note_on_c, 0, 63, 0
2, 110160, Note_on_c, 0, 74, 0
2, 110160, Note_on_c, 0, 75, 15
2, 110160, Note_on_c, 0, 63, 23
2, 110160, Note_on_c, 0, 67, 23
2, 110160, Note_on_c, 0, 70, 23
2, 110280, Note_on_c, 0, 75, 0
2, 110280, Note_on_c, 0, 75, 17
2, 110399, Note_on_c, 0, 75, 0
2, 110399, Note_on_c, 0, 77, 17
2, 110520, Note_on_c, 0, 77, 0
2, 110520, Note_on_c, 0, 63, 0
2, 110520, Note_on_c, 0, 67, 0
2, 110520, Note_on_c, 0, 70, 0
2, 110520, Note_on_c, 0, 79, 20
2, 110520, Note_on_c, 0, 63, 21
2, 110520, Note_on_c, 0, 67, 21
2, 110520, Note_on_c, 0, 72, 21
2, 110640, Note_on_c, 0, 79, 0
2, 110640, Note_on_c, 0, 72, 5
2, 110759, Note_on_c, 0, 72, 0
2, 110759, Note_on_c, 0, 74, 19
2, 110880, Note_on_c, 0, 74, 0
2, 110880, Note_on_c, 0, 72, 0
2, 110880, Note_on_c, 0, 67, 0
2, 110880, Note_on_c, 0, 63, 0
2, 110880, Note_on_c, 0, 75, 16
2, 110880, Note_on_c, 0, 70, 12
2, 110880, Note_on_c, 0, 63, 25
2, 110880, Note_on_c, 0, 67, 25
2, 111000, Note_on_c, 0, 75, 0
2, 111000, Note_on_c, 0, 79, 18
2, 111119, Note_on_c, 0, 79, 0
2, 111119, Note_on_c, 0, 77, 18
2, 111119, Note_on_c, 0, 80, 18
2, 111240, Note_on_c, 0, 80, 0
2, 111240, Note_on_c, 0, 70, 0
2, 111240, Note_on_c, 0, 77, 0
2, 111240, Note_on_c, 0, 79, 32
2, 111240, Note_on_c, 0, 82, 32
2, 111240, Note_on_c, 0, 75, 24
2, 111360, Note_on_c, 0, 82, 0
2, 111360, Note_on_c, 0, 79, 0
2, 111360, Note_on_c, 0, 79, 28
2, 111360, Note_on_c, 0, 82, 28
2, 111420, Note_on_c, 0, 67, 0
2, 111420, Note_on_c, 0, 63, 0
2, 111420, Note_on_c, 0, 63, 25
2, 111420, Note_on_c, 0, 67, 25
2, 111420, Note_on_c, 0, 70, 25
2, 111479, Note_on_c, 0, 82, 0
2, 111479, Note_on_c, 0, 79, 0
2, 111479, Note_on_c, 0, 79, 25
2, 111479, Note_on_c, 0, 82, 25
2, 111600, Note_on_c, 0, 82, 0
2, 111600, Note_on_c, 0, 70, 0
2, 111600, Note_on_c, 0, 67, 0
2, 111600, Note_on_c, 0, 63, 0
2, 111600, Note_on_c, 0, 79, 0
2, 111600, Note_on_c, 0, 79, 27
2, 111600, Note_on_c, 0, 82, 27
2, 111600, Note_on_c, 0, 63, 26
2, 111600, Note_on_c, 0, 67, 26
2, 111600, Note_on_c, 0, 70, 26
2, 111720, Note_on_c, 0, 82, 0
2, 111720, Note_on_c, 0, 79, 0
2, 111720, Note_on_c, 0, 79, 18
2, 111839, Note_on_c, 0, 79, 0
2, 111839, Note_on_c, 0, 77, 28
2, 111839, Note_on_c, 0, 80, 28
2, 111960, Note_on_c, 0, 80, 0
2, 111960, Note_on_c, 0, 75, 0
2, 111960, Note_on_c, 0, 77, 0
2, 111960, Note_on_c, 0, 79, 32
2, 111960, Note_on_c, 0, 82, 32
2, 111960, Note_on_c, 0, 75, 14
2, 112074, Note_on_c, 0, 63, 0
2, 112074, Note_on_c, 0, 70, 0
2, 112074, Note_on_c, 0, 67, 0
2, 112080, Note_on_c, 0, 79, 0
2, 112080, Note_on_c, 0, 82, 0
2, 112080, Note_on_c, 0, 79, 27
2, 112080, Note_on_c, 0, 82, 27
2, 112140, Note_on_c, 0, 63, 16
2, 112140, Note_on_c, 0, 67, 16
2, 112140, Note_on_c, 0, 70, 16
2, 112199, Note_on_c, 0, 82, 0
2, 112199, Note_on_c, 0, 79, 0
2, 112199, Note_on_c, 0, 79, 25
2, 112199, Note_on_c, 0, 82, 25
2, 112320, Note_on_c, 0, 82, 0
2, 112320, Note_on_c, 0, 70, 0
2, 112320, Note_on_c, 0, 67, 0
2, 112320, Note_on_c, 0, 63, 0
2, 112320, Note_on_c, 0, 79, 0
2, 112320, Note_on_c, 0, 79, 25
2, 112320, Note_on_c, 0, 82, 25
2, 112320, Note_on_c, 0, 63, 25
2, 112320, Note_on_c, 0, 67, 25
2, 112320, Note_on_c, 0, 70, 25
2, 112440, Note_on_c, 0, 82, 0
2, 112440, Note_on_c, 0, 79, 0
2, 112440, Note_on_c, 0, 79, 28
2, 112559, Note_on_c, 0, 79, 0
2, 112559, Note_on_c, 0, 77, 30
2, 112559, Note_on_c, 0, 80, 30
2, 112680, Note_on_c, 0, 80, 0
2, 112680, Note_on_c, 0, 75, 0
2, 112680, Note_on_c, 0, 77, 0
2, 112680, Note_on_c, 0, 79, 32
2, 112680, Note_on_c, 0, 82, 32
2, 112680, Note_on_c, 0, 75, 12
2, 112794, Note_on_c, 0, 63, 0
2, 112794, Note_on_c, 0, 70, 0
2, 112794, Note_on_c, 0, 67, 0
2, 112800, Note_on_c, 0, 79, 0
2, 112800, Note_on_c, 0, 82, 0
2, 112800, Note_on_c, 0, 79, 34
2, 112800, Note_on_c, 0, 82, 34
2, 112860, Note_on_c, 0, 63, 10
2, 112860, Note_on_c, 0, 67, 10
2, 112860, Note_on_c, 0, 70, 10
2, 112919, Note_on_c, 0, 82, 0
2, 112919, Note_on_c, 0, 79, 0
2, 112919, Note_on_c, 0, 79, 36
2, 112919, Note_on_c, 0, 82, 36
2, 113040, Note_on_c, 0, 82, 0
2, 113040, Note_on_c, 0, 70, 0
2, 113040, Note_on_c, 0, 67, 0
2, 113040, Note_on_c, 0, 63, 0
2, 113040, Note_on_c, 0, 79, 0
2, 113040, Note_on_c, 0, 79, 38
2, 113040, Note_on_c, 0, 82, 38
2, 113040, Note_on_c, 0, 63, 23
2, 113040, Note_on_c, 0, 67, 23
2, 113040, Note_on_c, 0, 70, 23
2, 113160, Note_on_c, 0, 82, 0
2, 113160, Note_on_c, 0, 79, 0
2, 113160, Note_on_c, 0, 79, 40
2, 113279, Note_on_c, 0, 79, 0
2, 113279, Note_on_c, 0, 80, 42
2, 113400, Note_on_c, 0, 80, 0
2, 113400, Note_on_c, 0, 75, 0
2, 113400, Note_on_c, 0, 79, 44
2, 113400, Note_on_c, 0, 82, 44
2, 113400, Note_on_c, 0, 75, 19
2, 113514, Note_on_c, 0, 63, 0
2, 113514, Note_on_c, 0, 67, 0
2, 113514, Note_on_c, 0, 70, 0
2, 113520, Note_on_c, 0, 79, 0
2, 113520, Note_on_c, 0, 82, 0
2, 113520, Note_on_c, 0, 79, 47
2, 113580, Note_on_c, 0, 63, 17
2, 113580, Note_on_c, 0, 67, 17
2, 113580, Note_on_c, 0, 70, 17
2, 113639, Note_on_c, 0, 79, 0
2, 113639, Note_on_c, 0, 80, 49
2, 113760, Note_on_c, 0, 80, 0
2, 113760, Note_on_c, 0, 70, 0
2, 113760, Note_on_c, 0, 75, 0
2, 113760, Note_on_c, 0, 63, 0
2, 113760, Note_on_c, 0, 67, 0
2, 113760, Note_on_c, 0, 75, 51
2, 113760, Note_on_c, 0, 78, 51
2, 113760, Note_on_c, 0, 82, 51
2, 113760, Note_on_c, 0, 63, 10
2, 113760, Note_on_c, 0, 66, 10
2, 113760, Note_on_c, 0, 70, 10
2, 113880, Note_on_c, 0, 82, 0
2, 113880, Note_on_c, 0, 75, 0
2, 113880, Note_on_c, 0, 78, 0
2, 113880, Note_on_c, 0, 78, 43
2, 113999, Note_on_c, 0, 78, 0
2, 113999, Note_on_c, 0, 77, 56
2, 113999, Note_on_c, 0, 80, 56
2, 114120, Note_on_c, 0, 80, 0
2, 114120, Note_on_c, 0, 70, 0
2, 114120, Note_on_c, 0, 63, 0
2, 114120, Note_on_c, 0, 66, 0
2, 114120, Note_on_c, 0, 77, 0
2, 114120, Note_on_c, 0, 82, 70
2, 114120, Note_on_c, 0, 78, 91
2, 114120, Note_on_c, 0, 63, 7
2, 114120, Note_on_c, 0, 63, 41
2, 114120, Note_on_c, 0, 66, 41
2, 114120, Note_on_c, 0, 70, 41
2, 114240, Note_on_c, 0, 82, 0
2, 114240, Note_on_c, 0, 82, 61
2, 114300, Note_on_c, 0, 63, 0
2, 114300, Note_on_c, 0, 73, 23
2, 114359, Note_on_c, 0, 82, 0
2, 114359, Note_on_c, 0, 82, 67
2, 114480, Note_on_c, 0, 82, 0
2, 114480, Note_on_c, 0, 73, 0
2, 114480, Note_on_c, 0, 82, 59
2, 114480, Note_on_c, 0, 75, 46
2, 114660, Note_on_c, 0, 63, 0
2, 114660, Note_on_c, 0, 66, 0
2, 114660, Note_on_c, 0, 70, 0
2, 114660, Note_on_c, 0, 63, 15
2, 114660, Note_on_c, 0, 66, 15
2, 114660, Note_on_c, 0, 70, 15
2, 114840, Note_on_c, 0, 70, 0
2, 114840, Note_on_c, 0, 82, 0
2, 114840, Note_on_c, 0, 78, 0
2, 114840, Note_on_c, 0, 63, 0
2, 114840, Note_on_c, 0, 66, 0
2, 114840, Note_on_c, 0, 78, 63
2, 114840, Note_on_c, 0, 82, 63
2, 114840, Note_on_c, 0, 63, 37
2, 114840, Note_on_c, 0, 66, 37
2, 114840, Note_on_c, 0, 70, 37
2, 114960, Note_on_c, 0, 82, 0
2, 114960, Note_on_c, 0, 78, 0
2, 114960, Note_on_c, 0, 78, 50
2, 115020, Note_on_c, 0, 75, 0
2, 115020, Note_on_c, 0, 72, 39
2, 115079, Note_on_c, 0, 78, 0
2, 115079, Note_on_c, 0, 77, 66
2, 115079, Note_on_c, 0, 80, 66
2, 115200, Note_on_c, 0, 80, 0
2, 115200, Note_on_c, 0, 70, 0
2, 115200, Note_on_c, 0, 72, 0
2, 115200, Note_on_c, 0, 63, 0
2, 115200, Note_on_c, 0, 77, 0
2, 115200, Note_on_c, 0, 66, 0
2, 115200, Note_on_c, 0, 78, 71
2, 115200, Note_on_c, 0, 82, 71
2, 115200, Note_on_c, 0, 73, 18
2, 115200, Note_on_c, 0, 63, 15
2, 115200, Note_on_c, 0, 66, 15
2, 115200, Note_on_c, 0, 70, 15
2, 115380, Note_on_c, 0, 70, 0
2, 115380, Note_on_c, 0, 63, 0
2, 115380, Note_on_c, 0, 66, 0
2, 115380, Note_on_c, 0, 63, 13
2, 115380, Note_on_c, 0, 66, 13
2, 115380, Note_on_c, 0, 70, 13
2, 115560, Note_on_c, 0, 70, 0
2, 115560, Note_on_c, 0, 82, 0
2, 115560, Note_on_c, 0, 78, 0
2, 115560, Note_on_c, 0, 63, 0
2, 115560, Note_on_c, 0, 66, 0
2, 115560, Note_on_c, 0, 82, 63
2, 115560, Note_on_c, 0, 75, 83
2, 115560, Note_on_c, 0, 63, 11
2, 115560, Note_on_c, 0, 66, 11
2, 115680, Note_on_c, 0, 75, 0
2, 115680, Note_on_c, 0, 78, 91
2, 115740, Note_on_c, 0, 73, 0
2, 115740, Note_on_c, 0, 70, 11
2, 115799, Note_on_c, 0, 78, 0
2, 115799, Note_on_c, 0, 80, 91
2, 115920, Note_on_c, 0, 80, 0
2, 115920, Note_on_c, 0, 70, 0
2, 115920, Note_on_c, 0, 82, 0
2, 115920, Note_on_c, 0, 75, 59
2, 115920, Note_on_c, 0, 78, 59
2, 115920, Note_on_c, 0, 82, 59
2, 115920, Note_on_c, 0, 71, 29
2, 116100, Note_on_c, 0, 66, 0
2, 116100, Note_on_c, 0, 63, 0
2, 116100, Note_on_c, 0, 63, 15
2, 116100, Note_on_c, 0, 66, 15
2, 116237, Note_on_c, 0, 71, 0
2, 116280, Note_on_c, 0, 82, 0
2, 116280, Note_on_c, 0, 75, 0
2, 116280, Note_on_c, 0, 78, 0
2, 116280, Note_on_c, 0, 66, 0
2, 116280, Note_on_c, 0, 63, 0
2, 116280, Note_on_c, 0, 75, 88
2, 116280, Note_on_c, 0, 78, 88
2, 116280, Note_on_c, 0, 83, 88
2, 116280, Note_on_c, 0, 63, 40
2, 116280, Note_on_c, 0, 66, 40
2, 116280, Note_on_c, 0, 69, 40
2, 116280, Note_on_c, 0, 71, 40
2, 116640, Note_on_c, 0, 71, 0
2, 116640, Note_on_c, 0, 66, 0
2, 116640, Note_on_c, 0, 78, 0
2, 116640, Note_on_c, 0, 83, 0
2, 116640, Note_on_c, 0, 75, 0
2, 116640, Note_on_c, 0, 69, 0
2, 116640, Note_on_c, 0, 63, 0
2, 116640, Note_on_c, 0, 76, 57
2, 116640, Note_on_c, 0, 64, 65
2, 116640, Note_on_c, 0, 68, 65
2, 116879, Note_on_c, 0, 68, 0
2, 116879, Note_on_c, 0, 64, 0
2, 116879, Note_on_c, 0, 76, 0
2, 116879, Note_on_c, 0, 78, 80
2, 116879, Note_on_c, 0, 69, 83
2, 116879, Note_on_c, 0, 71, 83
2, 117000, Note_on_c, 0, 71, 0
2, 117000, Note_on_c, 0, 69, 0
2, 117000, Note_on_c, 0, 78, 0
2, 117000, Note_on_c, 0, 76, 89
2, 117000, Note_on_c, 0, 80, 89
2, 117000, Note_on_c, 0, 68, 68
2, 117120, Note_on_c, 0, 68, 0
2, 117120, Note_on_c, 0, 80, 0
2, 117120, Note_on_c, 0, 76, 0
2, 117120, Note_on_c, 0, 78, 84
2, 117120, Note_on_c, 0, 81, 84
2, 117120, Note_on_c, 0, 69, 78
2, 117239, Note_on_c, 0, 69, 0
2, 117239, Note_on_c, 0, 81, 0
2, 117239, Note_on_c, 0, 78, 0
2, 117239, Note_on_c, 0, 79, 84
2, 117239, Note_on_c, 0, 82, 84
2, 117239, Note_on_c, 0, 70, 82
2, 117360, Note_on_c, 0, 70, 0
2, 117360, Note_on_c, 0, 82, 0
2, 117360, Note_on_c, 0, 79, 0
2, 117360, Note_on_c, 0, 80, 92
2, 117360, Note_on_c, 0, 83, 92
2, 117360, Note_on_c, 0, 71, 92
2, 117360, Note_on_c, 0, 68, 14
2, 117480, Note_on_c, 0, 68, 0
2, 117480, Note_on_c, 0, 69, 17
2, 117599, Note_on_c, 0, 69, 0
2, 117599, Note_on_c, 0, 70, 18
2, 117720, Note_on_c, 0, 70, 0
2, 117720, Note_on_c, 0, 71, 0
2, 117720, Note_on_c, 0, 68, 74
2, 117720, Note_on_c, 0, 71, 74
2, 117959, Note_on_c, 0, 71, 0
2, 117959, Note_on_c, 0, 80, 0
2, 117959, Note_on_c, 0, 83, 0
2, 117959, Note_on_c, 0, 68, 0
2, 117959, Note_on_c, 0, 83, 80
2, 117959, Note_on_c, 0, 71, 78
2, 118080, Note_on_c, 0, 71, 0
2, 118080, Note_on_c, 0, 83, 0
2, 118080, Note_on_c, 0, 76, 85
2, 118080, Note_on_c, 0, 80, 85
2, 118080, Note_on_c, 0, 85, 85
2, 118080, Note_on_c, 0, 73, 84
2, 118080, Note_on_c, 0, 68, 15
2, 118200, Note_on_c, 0, 73, 0
2, 118200, Note_on_c, 0, 85, 0
2, 118200, Note_on_c, 0, 76, 0
2, 118200, Note_on_c, 0, 80, 0
2, 118200, Note_on_c, 0, 83, 70
2, 118200, Note_on_c, 0, 71, 71
2, 118319, Note_on_c, 0, 71, 0
2, 118319, Note_on_c, 0, 83, 0
2, 118319, Note_on_c, 0, 85, 85
2, 118319, Note_on_c, 0, 73, 80
2, 118440, Note_on_c, 0, 73, 0
2, 118440, Note_on_c, 0, 85, 0
2, 118440, Note_on_c, 0, 68, 0
2, 118440, Note_on_c, 0, 76, 90
2, 118440, Note_on_c, 0, 80, 90
2, 118440, Note_on_c, 0, 83, 90
2, 118440, Note_on_c, 0, 71, 92
2, 118440, Note_on_c, 0, 68, 18
2, 118560, Note_on_c, 0, 71, 0
2, 118560, Note_on_c, 0, 69, 70
2, 118679, Note_on_c, 0, 69, 0
2, 118679, Note_on_c, 0, 70, 85
2, 118800, Note_on_c, 0, 70, 0
2, 118800, Note_on_c, 0, 68, 0
2, 118800, Note_on_c, 0, 71, 92
2, 118800, Note_on_c, 0, 68, 12
2, 119039, Note_on_c, 0, 71, 0
2, 119039, Note_on_c, 0, 76, 0
2, 119039, Note_on_c, 0, 83, 0
2, 119039, Note_on_c, 0, 80, 0
2, 119039, Note_on_c, 0, 83, 81
2, 119039, Note_on_c, 0, 80, 91
2, 119160, Note_on_c, 0, 80, 0
2, 119160, Note_on_c, 0, 83, 0
2, 119160, Note_on_c, 0, 68, 0
2, 119160, Note_on_c, 0, 81, 92
2, 119160, Note_on_c, 0, 85, 92
2, 119160, Note_on_c, 0, 78, 92
2, 119280, Note_on_c, 0, 78, 0
2, 119280, Note_on_c, 0, 85, 0
2, 119280, Note_on_c, 0, 81, 0
2, 119280, Note_on_c, 0, 83, 68
2, 119280, Note_on_c, 0, 80, 82
2, 119399, Note_on_c, 0, 80, 0
2, 119399, Note_on_c, 0, 83, 0
2, 119399, Note_on_c, 0, 85, 83
2, 119399, Note_on_c, 0, 78, 76
2, 119520, Note_on_c, 0, 78, 0
2, 119520, Note_on_c, 0, 85, 0
2, 119520, Note_on_c, 0, 81, 68
2, 119520, Note_on_c, 0, 73, 66
2, 119520, Note_on_c, 0, 76, 66
2, 119759, Note_on_c, 0, 76, 0
2, 119759, Note_on_c, 0, 73, 0
2, 119759, Note_on_c, 0, 81, 0
2, 119759, Note_on_c, 0, 81, 78
2, 119759, Note_on_c, 0, 78, 82
2, 119880, Note_on_c, 0, 78, 0
2, 119880, Note_on_c, 0, 81, 0
2, 119880, Note_on_c, 0, 80, 92
2, 119880, Note_on_c, 0, 83, 92
2, 119880, Note_on_c, 0, 76, 77
2, 120000, Note_on_c, 0, 76, 0
2, 120000, Note_on_c, 0, 83, 0
2, 120000, Note_on_c, 0, 80, 0
2, 120000, Note_on_c, 0, 81, 73
2, 120000, Note_on_c, 0, 78, 80
2, 120119, Note_on_c, 0, 78, 0
2, 120119, Note_on_c, 0, 81, 0
2, 120119, Note_on_c, 0, 83, 84
2, 120119, Note_on_c, 0, 76, 70
2, 120240, Note_on_c, 0, 76, 0
2, 120240, Note_on_c, 0, 83, 0
2, 120240, Note_on_c, 0, 80, 69
2, 120240, Note_on_c, 0, 71, 73
2, 120240, Note_on_c, 0, 75, 73
2, 120479, Note_on_c, 0, 75, 0
2, 120479, Note_on_c, 0, 71, 0
2, 120479, Note_on_c, 0, 80, 0
2, 120479, Note_on_c, 0, 78, 67
2, 120479, Note_on_c, 0, 75, 74
2, 120600, Note_on_c, 0, 75, 0
2, 120600, Note_on_c, 0, 78, 0
2, 120600, Note_on_c, 0, 76, 92
2, 120600, Note_on_c, 0, 80, 92
2, 120600, Note_on_c, 0, 73, 73
2, 120720, Note_on_c, 0, 73, 0
2, 120720, Note_on_c, 0, 80, 0
2, 120720, Note_on_c, 0, 76, 0
2, 120720, Note_on_c, 0, 78, 70
2, 120720, Note_on_c, 0, 75, 85
2, 120839, Note_on_c, 0, 75, 0
2, 120839, Note_on_c, 0, 78, 0
2, 120839, Note_on_c, 0, 80, 88
2, 120839, Note_on_c, 0, 73, 70
2, 120960, Note_on_c, 0, 73, 0
2, 120960, Note_on_c, 0, 80, 0
2, 120960, Note_on_c, 0, 76, 68
2, 120960, Note_on_c, 0, 72, 71
2, 121199, Note_on_c, 0, 72, 0
2, 121199, Note_on_c, 0, 76, 0
2, 121199, Note_on_c, 0, 75, 80
2, 121199, Note_on_c, 0, 78, 80
2, 121199, Note_on_c, 0, 66, 59
2, 121320, Note_on_c, 0, 66, 0
2, 121320, Note_on_c, 0, 78, 0
2, 121320, Note_on_c, 0, 75, 0
2, 121320, Note_on_c, 0, 75, 77
2, 121320, Note_on_c, 0, 78, 77
2, 121320, Note_on_c, 0, 73, 91
2, 121320, Note_on_c, 0, 66, 11
2, 121559, Note_on_c, 0, 66, 0
2, 121559, Note_on_c, 0, 75, 0
2, 121559, Note_on_c, 0, 78, 0
2, 121559, Note_on_c, 0, 76, 82
2, 121559, Note_on_c, 0, 80, 82
2, 121559, Note_on_c, 0, 68, 18
2, 121680, Note_on_c, 0, 68, 0
2, 121680, Note_on_c, 0, 73, 0
2, 121680, Note_on_c, 0, 76, 0
2, 121680, Note_on_c, 0, 80, 0
2, 121680, Note_on_c, 0, 77, 76
2, 121680, Note_on_c, 0, 80, 76
2, 121680, Note_on_c, 0, 74, 83
2, 121680, Note_on_c, 0, 68, 15
2, 121919, Note_on_c, 0, 68, 0
2, 121919, Note_on_c, 0, 77, 0
2, 121919, Note_on_c, 0, 80, 0
2, 121919, Note_on_c, 0, 78, 79
2, 121919, Note_on_c, 0, 81, 79
2, 121919, Note_on_c, 0, 69, 20
2, 122040, Note_on_c, 0, 69, 0
2, 122040, Note_on_c, 0, 74, 0
2, 122040, Note_on_c, 0, 78, 0
2, 122040, Note_on_c, 0, 81, 0
2, 122040, Note_on_c, 0, 78, 78
2, 122040, Note_on_c, 0, 81, 78
2, 122040, Note_on_c, 0, 75, 88
2, 122040, Note_on_c, 0, 69, 13
2, 122160, Note_on_c, 0, 69, 0
2, 122160, Note_on_c, 0, 78, 0
2, 122160, Note_on_c, 0, 81, 0
2, 122160, Note_on_c, 0, 82, 86
2, 122160, Note_on_c, 0, 70, 17
2, 122279, Note_on_c, 0, 70, 0
2, 122279, Note_on_c, 0, 82, 0
2, 122279, Note_on_c, 0, 83, 84
2, 122279, Note_on_c, 0, 71, 17
2, 122400, Note_on_c, 0, 71, 0
2, 122400, Note_on_c, 0, 83, 0
2, 122400, Note_on_c, 0, 75, 0
2, 122400, Note_on_c, 0, 76, 68
2, 122400, Note_on_c, 0, 80, 68
2, 122400, Note_on_c, 0, 68, 59
2, 122520, Note_on_c, 0, 68, 0
2, 122520, Note_on_c, 0, 80, 0
2, 122520, Note_on_c, 0, 76, 0
2, 122520, Note_on_c, 0, 78, 81
2, 122520, Note_on_c, 0, 81, 81
2, 122520, Note_on_c, 0, 69, 77
2, 122639, Note_on_c, 0, 69, 0
2, 122639, Note_on_c, 0, 81, 0
2, 122639, Note_on_c, 0, 78, 0
2, 122639, Note_on_c, 0, 79, 83
2, 122639, Note_on_c, 0, 82, 83
2, 122639, Note_on_c, 0, 70, 81
2, 122760, Note_on_c, 0, 70, 0
2, 122760, Note_on_c, 0, 82, 0
2, 122760, Note_on_c, 0, 79, 0
2, 122760, Note_on_c, 0, 80, 92
2, 122760, Note_on_c, 0, 83, 92
2, 122760, Note_on_c, 0, 71, 80
2, 122760, Note_on_c, 0, 68, 11
2, 122880, Note_on_c, 0, 68, 0
2, 122880, Note_on_c, 0, 69, 17
2, 122999, Note_on_c, 0, 69, 0
2, 122999, Note_on_c, 0, 70, 14
2, 123120, Note_on_c, 0, 70, 0
2, 123120, Note_on_c, 0, 71, 0
2, 123120, Note_on_c, 0, 71, 75
2, 123120, Note_on_c, 0, 68, 14
2, 123359, Note_on_c, 0, 71, 0
2, 123359, Note_on_c, 0, 80, 0
2, 123359, Note_on_c, 0, 83, 0
2, 123359, Note_on_c, 0, 76, 84
2, 123359, Note_on_c, 0, 80, 84
2, 123359, Note_on_c, 0, 85, 84
2, 123359, Note_on_c, 0, 73, 79
2, 123480, Note_on_c, 0, 73, 0
2, 123480, Note_on_c, 0, 80, 0
2, 123480, Note_on_c, 0, 85, 0
2, 123480, Note_on_c, 0, 76, 0
2, 123480, Note_on_c, 0, 76, 92
2, 123480, Note_on_c, 0, 80, 92
2, 123480, Note_on_c, 0, 83, 92
2, 123480, Note_on_c, 0, 71, 68
2, 123719, Note_on_c, 0, 71, 0
2, 123719, Note_on_c, 0, 73, 86
2, 123840, Note_on_c, 0, 73, 0
2, 123840, Note_on_c, 0, 68, 0
2, 123840, Note_on_c, 0, 71, 92
2, 123840, Note_on_c, 0, 68, 12
2, 123960, Note_on_c, 0, 71, 0
2, 123960, Note_on_c, 0, 76, 0
2, 123960, Note_on_c, 0, 83, 0
2, 123960, Note_on_c, 0, 80, 0
2, 123960, Note_on_c, 0, 83, 80
2, 123960, Note_on_c, 0, 71, 77
2, 124079, Note_on_c, 0, 71, 0
2, 124079, Note_on_c, 0, 83, 0
2, 124079, Note_on_c, 0, 85, 87
2, 124079, Note_on_c, 0, 73, 83
2, 124200, Note_on_c, 0, 73, 0
2, 124200, Note_on_c, 0, 85, 0
2, 124200, Note_on_c, 0, 68, 0
2, 124200, Note_on_c, 0, 76, 91
2, 124200, Note_on_c, 0, 80, 91
2, 124200, Note_on_c, 0, 83, 91
2, 124200, Note_on_c, 0, 71, 70
2, 124200, Note_on_c, 0, 68, 14
2, 124320, Note_on_c, 0, 71, 0
2, 124320, Note_on_c, 0, 69, 69
2, 124439, Note_on_c, 0, 69, 0
2, 124439, Note_on_c, 0, 70, 84
2, 124560, Note_on_c, 0, 70, 0
2, 124560, Note_on_c, 0, 68, 0
2, 124560, Note_on_c, 0, 71, 80
2, 124560, Note_on_c, 0, 68, 17
2, 124799, Note_on_c, 0, 71, 0
2, 124799, Note_on_c, 0, 76, 0
2, 124799, Note_on_c, 0, 83, 0
2, 124799, Note_on_c, 0, 80, 0
2, 124799, Note_on_c, 0, 83, 77
2, 124799, Note_on_c, 0, 80, 91
2, 124920, Note_on_c, 0, 80, 0
2, 124920, Note_on_c, 0, 83, 0
2, 124920, Note_on_c, 0, 68, 0
2, 124920, Note_on_c, 0, 81, 92
2, 124920, Note_on_c, 0, 85, 92
2, 124920, Note_on_c, 0, 78, 92
2, 125040, Note_on_c, 0, 78, 0
2, 125040, Note_on_c, 0, 85, 0
2, 125040, Note_on_c, 0, 81, 0
2, 125040, Note_on_c, 0, 83, 69
2, 125040, Note_on_c, 0, 80, 84
2, 125159, Note_on_c, 0, 80, 0
2, 125159, Note_on_c, 0, 83, 0
2, 125159, Note_on_c, 0, 85, 86
2, 125159, Note_on_c, 0, 78, 71
2, 125280, Note_on_c, 0, 78, 0
2, 125280, Note_on_c, 0, 85, 0
2, 125280, Note_on_c, 0, 81, 67
2, 125280, Note_on_c, 0, 73, 71
2, 125280, Note_on_c, 0, 76, 71
2, 125519, Note_on_c, 0, 76, 0
2, 125519, Note_on_c, 0, 73, 0
2, 125519, Note_on_c, 0, 81, 0
2, 125519, Note_on_c, 0, 81, 79
2, 125519, Note_on_c, 0, 78, 85
2, 125640, Note_on_c, 0, 78, 0
2, 125640, Note_on_c, 0, 81, 0
2, 125640, Note_on_c, 0, 80, 92
2, 125640, Note_on_c, 0, 83, 92
2, 125640, Note_on_c, 0, 76, 92
2, 125760, Note_on_c, 0, 76, 0
2, 125760, Note_on_c, 0, 83, 0
2, 125760, Note_on_c, 0, 80, 0
2, 125760, Note_on_c, 0, 81, 71
2, 125760, Note_on_c, 0, 78, 80
2, 125879, Note_on_c, 0, 78, 0
2, 125879, Note_on_c, 0, 81, 0
2, 125879, Note_on_c, 0, 83, 84
2, 125879, Note_on_c, 0, 76, 70
2, 126000, Note_on_c, 0, 76, 0
2, 126000, Note_on_c, 0, 83, 0
2, 126000, Note_on_c, 0, 80, 67
2, 126000, Note_on_c, 0, 71, 75
2, 126000, Note_on_c, 0, 75, 75
2, 126239, Note_on_c, 0, 75, 0
2, 126239, Note_on_c, 0, 71, 0
2, 126239, Note_on_c, 0, 80, 0
2, 126239, Note_on_c, 0, 78, 68
2, 126239, Note_on_c, 0, 75, 75
2, 126360, Note_on_c, 0, 75, 0
2, 126360, Note_on_c, 0, 78, 0
2, 126360, Note_on_c, 0, 76, 92
2, 126360, Note_on_c, 0, 80, 92
2, 126360, Note_on_c, 0, 73, 92
2, 126480, Note_on_c, 0, 73, 0
2, 126480, Note_on_c, 0, 80, 0
2, 126480, Note_on_c, 0, 76, 0
2, 126480, Note_on_c, 0, 78, 68
2, 126480, Note_on_c, 0, 75, 85
2, 126599, Note_on_c, 0, 75, 0
2, 126599, Note_on_c, 0, 78, 0
2, 126599, Note_on_c, 0, 80, 85
2, 126599, Note_on_c, 0, 73, 71
2, 126720, Note_on_c, 0, 73, 0
2, 126720, Note_on_c, 0, 80, 0
2, 126720, Note_on_c, 0, 78, 66
2, 126720, Note_on_c, 0, 69, 68
2, 126959, Note_on_c, 0, 78, 0
2, 126959, Note_on_c, 0, 81, 88
2, 127080, Note_on_c, 0, 81, 0
2, 127080, Note_on_c, 0, 69, 0
2, 127080, Note_on_c, 0, 77, 77
2, 127080, Note_on_c, 0, 80, 77
2, 127080, Note_on_c, 0, 71, 84
2, 127319, Note_on_c, 0, 80, 0
2, 127319, Note_on_c, 0, 77, 0
2, 127319, Note_on_c, 0, 83, 88
2, 127440, Note_on_c, 0, 83, 0
2, 127440, Note_on_c, 0, 71, 0
2, 127440, Note_on_c, 0, 76, 72
2, 127440, Note_on_c, 0, 81, 72
2, 127440, Note_on_c, 0, 73, 86
2, 127679, Note_on_c, 0, 73, 0
2, 127679, Note_on_c, 0, 81, 0
2, 127679, Note_on_c, 0, 76, 0
2, 127679, Note_on_c, 0, 78, 91
2, 127679, Note_on_c, 0, 85, 91
2, 127679, Note_on_c, 0, 75, 87
2, 127800, Note_on_c, 0, 75, 0
2, 127800, Note_on_c, 0, 85, 0
2, 127800, Note_on_c, 0, 78, 0
2, 127800, Note_on_c, 0, 76, 66
2, 127800, Note_on_c, 0, 80, 66
2, 127800, Note_on_c, 0, 74, 75
2, 127920, Note_on_c, 0, 80, 0
2, 127920, Note_on_c, 0, 76, 0
2, 127920, Note_on_c, 0, 81, 77
2, 128039, Note_on_c, 0, 81, 0
2, 128039, Note_on_c, 0, 83, 82
2, 128160, Note_on_c, 0, 83, 0
2, 128160, Note_on_c, 0, 74, 0
2, 128160, Note_on_c, 0, 81, 85
2, 128160, Note_on_c, 0, 85, 85
2, 128160, Note_on_c, 0, 73, 71
2, 128280, Note_on_c, 0, 73, 0
2, 128280, Note_on_c, 0, 85, 0
2, 128280, Note_on_c, 0, 81, 0
2, 128280, Note_on_c, 0, 83, 83
2, 128280, Note_on_c, 0, 86, 83
2, 128280, Note_on_c, 0, 74, 82
2, 128399, Note_on_c, 0, 74, 0
2, 128399, Note_on_c, 0, 86, 0
2, 128399, Note_on_c, 0, 83, 0
2, 128399, Note_on_c, 0, 84, 88
2, 128399, Note_on_c, 0, 87, 88
2, 128399, Note_on_c, 0, 75, 84
2, 128520, Note_on_c, 0, 75, 0
2, 128520, Note_on_c, 0, 87, 0
2, 128520, Note_on_c, 0, 84, 0
2, 128520, Note_on_c, 0, 85, 92
2, 128520, Note_on_c, 0, 88, 92
2, 128520, Note_on_c, 0, 73, 81
2, 128520, Note_on_c, 0, 76, 81
2, 128640, Note_on_c, 0, 76, 0
2, 128640, Note_on_c, 0, 73, 0
2, 128640, Note_on_c, 0, 74, 73
2, 128759, Note_on_c, 0, 74, 0
2, 128759, Note_on_c, 0, 75, 80
2, 128880, Note_on_c, 0, 75, 0
2, 128880, Note_on_c, 0, 69, 92
2, 128880, Note_on_c, 0, 73, 92
2, 128880, Note_on_c, 0, 76, 92
2, 129119, Note_on_c, 0, 76, 0
2, 129119, Note_on_c, 0, 69, 0
2, 129119, Note_on_c, 0, 85, 0
2, 129119, Note_on_c, 0, 88, 0
2, 129119, Note_on_c, 0, 73, 0
2, 129119, Note_on_c, 0, 88, 86
2, 129119, Note_on_c, 0, 73, 69
2, 129240, Note_on_c, 0, 73, 0
2, 129240, Note_on_c, 0, 88, 0
2, 129240, Note_on_c, 0, 90, 92
2, 129240, Note_on_c, 0, 74, 92
2, 129299, Note_on_c, 0, 90, 0
2, 129360, Note_on_c, 0, 74, 0
2, 129360, Note_on_c, 0, 88, 73
2, 129360, Note_on_c, 0, 73, 70
2, 129419, Note_on_c, 0, 73, 0
2, 129419, Note_on_c, 0, 88, 0
2, 129479, Note_on_c, 0, 90, 81
2, 129479, Note_on_c, 0, 74, 84
2, 129538, Note_on_c, 0, 74, 0
2, 129538, Note_on_c, 0, 90, 0
2, 129600, Note_on_c, 0, 88, 72
2, 129600, Note_on_c, 0, 73, 73
2, 129659, Note_on_c, 0, 73, 0
2, 129659, Note_on_c, 0, 88, 0
2, 129720, Note_on_c, 0, 86, 70
2, 129720, Note_on_c, 0, 71, 72
2, 129779, Note_on_c, 0, 71, 0
2, 129779, Note_on_c, 0, 86, 0
2, 129839, Note_on_c, 0, 88, 82
2, 129839, Note_on_c, 0, 73, 85
2, 129898, Note_on_c, 0, 73, 0
2, 129898, Note_on_c, 0, 88, 0
2, 129960, Note_on_c, 0, 86, 71
2, 129960, Note_on_c, 0, 71, 72
2, 130019, Note_on_c, 0, 71, 0
2, 130019, Note_on_c, 0, 86, 0
2, 130080, Note_on_c, 0, 85, 76
2, 130080, Note_on_c, 0, 69, 71
2, 130139, Note_on_c, 0, 69, 0
2, 130139, Note_on_c, 0, 85, 0
2, 130199, Note_on_c, 0, 86, 81
2, 130199, Note_on_c, 0, 71, 83
2, 130258, Note_on_c, 0, 71, 0
2, 130258, Note_on_c, 0, 86, 0
2, 130320, Note_on_c, 0, 85, 71
2, 130320, Note_on_c, 0, 69, 69
2, 130379, Note_on_c, 0, 69, 0
2, 130379, Note_on_c, 0, 85, 0
2, 130440, Note_on_c, 0, 83, 70
2, 130440, Note_on_c, 0, 68, 74
2, 130499, Note_on_c, 0, 68, 0
2, 130499, Note_on_c, 0, 83, 0
2, 130559, Note_on_c, 0, 85, 83
2, 130559, Note_on_c, 0, 69, 86
2, 130618, Note_on_c, 0, 69, 0
2, 130618, Note_on_c, 0, 85, 0
2, 130680, Note_on_c, 0, 83, 71
2, 130680, Note_on_c, 0, 68, 75
2, 130739, Note_on_c, 0, 68, 0
2, 130739, Note_on_c, 0, 83, 0
2, 130800, Note_on_c, 0, 81, 66
2, 130800, Note_on_c, 0, 66, 70
2, 130859, Note_on_c, 0, 66, 0
2, 130859, Note_on_c, 0, 81, 0
2, 130919, Note_on_c, 0, 83, 82
2, 130919, Note_on_c, 0, 68, 84
2, 130978, Note_on_c, 0, 68, 0
2, 130978, Note_on_c, 0, 83, 0
2, 131040, Note_on_c, 0, 81, 74
2, 131040, Note_on_c, 0, 78, 85
2, 131040, Note_on_c, 0, 69, 85
2, 131160, Note_on_c, 0, 69, 0
2, 131160, Note_on_c, 0, 81, 0
2, 131160, Note_on_c, 0, 83, 82
2, 131160, Note_on_c, 0, 71, 85
2, 131279, Note_on_c, 0, 71, 0
2, 131279, Note_on_c, 0, 83, 0
2, 131279, Note_on_c, 0, 84, 86
2, 131279, Note_on_c, 0, 72, 83
2, 131400, Note_on_c, 0, 72, 0
2, 131400, Note_on_c, 0, 84, 0
2, 131400, Note_on_c, 0, 78, 0
2, 131400, Note_on_c, 0, 81, 92
2, 131400, Note_on_c, 0, 85, 92
2, 131400, Note_on_c, 0, 69, 69
2, 131400, Note_on_c, 0, 73, 11
2, 131520, Note_on_c, 0, 69, 0
2, 131520, Note_on_c, 0, 71, 81
2, 131639, Note_on_c, 0, 71, 0
2, 131639, Note_on_c, 0, 72, 86
2, 131760, Note_on_c, 0, 72, 0
2, 131760, Note_on_c, 0, 73, 0
2, 131760, Note_on_c, 0, 66, 92
2, 131760, Note_on_c, 0, 69, 92
2, 131760, Note_on_c, 0, 73, 92
2, 131999, Note_on_c, 0, 73, 0
2, 131999, Note_on_c, 0, 66, 0
2, 131999, Note_on_c, 0, 81, 0
2, 131999, Note_on_c, 0, 85, 0
2, 131999, Note_on_c, 0, 69, 0
2, 131999, Note_on_c, 0, 85, 73
2, 131999, Note_on_c, 0, 69, 67
2, 132120, Note_on_c, 0, 69, 0
2, 132120, Note_on_c, 0, 85, 0
2, 132120, Note_on_c, 0, 86, 81
2, 132120, Note_on_c, 0, 71, 85
2, 132240, Note_on_c, 0, 71, 0
2, 132240, Note_on_c, 0, 86, 0
2, 132240, Note_on_c, 0, 85, 73
2, 132240, Note_on_c, 0, 69, 70
2, 132299, Note_on_c, 0, 69, 0
2, 132299, Note_on_c, 0, 85, 0
2, 132359, Note_on_c, 0, 86, 85
2, 132359, Note_on_c, 0, 71, 86
2, 132418, Note_on_c, 0, 71, 0
2, 132418, Note_on_c, 0, 86, 0
2, 132480, Note_on_c, 0, 85, 74
2, 132480, Note_on_c, 0, 69, 71
2, 132539, Note_on_c, 0, 69, 0
2, 132539, Note_on_c, 0, 85, 0
2, 132600, Note_on_c, 0, 83, 67
2, 132600, Note_on_c, 0, 68, 71
2, 132659, Note_on_c, 0, 68, 0
2, 132659, Note_on_c, 0, 83, 0
2, 132719, Note_on_c, 0, 85, 81
2, 132719, Note_on_c, 0, 69, 81
2, 132778, Note_on_c, 0, 69, 0
2, 132778, Note_on_c, 0, 85, 0
2, 132840, Note_on_c, 0, 83, 74
2, 132840, Note_on_c, 0, 68, 69
2, 132899, Note_on_c, 0, 68, 0
2, 132899, Note_on_c, 0, 83, 0
2, 132960, Note_on_c, 0, 81, 72
2, 132960, Note_on_c, 0, 66, 70
2, 133019, Note_on_c, 0, 66, 0
2, 133019, Note_on_c, 0, 81, 0
2, 133079, Note_on_c, 0, 83, 80
2, 133079, Note_on_c, 0, 68, 88
2, 133138, Note_on_c, 0, 68, 0
2, 133138, Note_on_c, 0, 83, 0
2, 133200, Note_on_c, 0, 81, 72
2, 133200, Note_on_c, 0, 66, 75
2, 133259, Note_on_c, 0, 66, 0
2, 133259, Note_on_c, 0, 81, 0
2, 133320, Note_on_c, 0, 80, 75
2, 133320, Note_on_c, 0, 64, 66
2, 133379, Note_on_c, 0, 64, 0
2, 133379, Note_on_c, 0, 80, 0
2, 133439, Note_on_c, 0, 81, 82
2, 133439, Note_on_c, 0, 66, 86
2, 133498, Note_on_c, 0, 66, 0
2, 133498, Note_on_c, 0, 81, 0
2, 133560, Note_on_c, 0, 80, 75
2, 133560, Note_on_c, 0, 64, 72
2, 133619, Note_on_c, 0, 64, 0
2, 133619, Note_on_c, 0, 80, 0
2, 133680, Note_on_c, 0, 78, 71
2, 133680, Note_on_c, 0, 63, 71
2, 133739, Note_on_c, 0, 63, 0
2, 133739, Note_on_c, 0, 78, 0
2, 133799, Note_on_c, 0, 80, 76
2, 133799, Note_on_c, 0, 64, 76
2, 133858, Note_on_c, 0, 64, 0
2, 133858, Note_on_c, 0, 80, 0
2, 133920, Note_on_c, 0, 78, 67
2, 133920, Note_on_c, 0, 63, 73
2, 133979, Note_on_c, 0, 63, 0
2, 134099, Note_on_c, 0, 78, 0
2, 134280, Note_on_c, 0, 64, 67
2, 134400, Note_on_c, 0, 64, 0
2, 134400, Note_on_c, 0, 66, 84
2, 134519, Note_on_c, 0, 66, 0
2, 134519, Note_on_c, 0, 68, 86
2, 134640, Note_on_c, 0, 68, 0
2, 134640, Note_on_c, 0, 69, 82
2, 134879, Note_on_c, 0, 75, 62
2, 135000, Note_on_c, 0, 75, 0
2, 135000, Note_on_c, 0, 76, 82
2, 135120, Note_on_c, 0, 76, 0
2, 135120, Note_on_c, 0, 78, 84
2, 135239, Note_on_c, 0, 78, 0
2, 135239, Note_on_c, 0, 69, 0
2, 135239, Note_on_c, 0, 80, 86
2, 135239, Note_on_c, 0, 71, 85
2, 135360, Note_on_c, 0, 71, 0
2, 135360, Note_on_c, 0, 80, 0
2, 135360, Note_on_c, 0, 81, 92
2, 135360, Note_on_c, 0, 71, 78
2, 135480, Note_on_c, 0, 71, 0
2, 135480, Note_on_c, 0, 73, 80
2, 135599, Note_on_c, 0, 73, 0
2, 135599, Note_on_c, 0, 75, 91
2, 135599, Note_on_c, 0, 69, 66
2, 135720, Note_on_c, 0, 69, 0
2, 135720, Note_on_c, 0, 75, 0
2, 135720, Note_on_c, 0, 73, 91
2, 135720, Note_on_c, 0, 76, 91
2, 135720, Note_on_c, 0, 68, 69
2, 135720, Note_on_c, 0, 69, 7
2, 136080, Note_on_c, 0, 68, 0
2, 136080, Note_on_c, 0, 66, 69
2, 136309, Note_on_c, 0, 81, 0
2, 136319, Note_on_c, 0, 73, 0
2, 136319, Note_on_c, 0, 76, 0
2, 136319, Note_on_c, 0, 73, 81
2, 136440, Note_on_c, 0, 73, 0
2, 136440, Note_on_c, 0, 69, 0
2, 136440, Note_on_c, 0, 80, 73
2, 136440, Note_on_c, 0, 73, 91
2, 136440, Note_on_c, 0, 69, 87
2, 136440, Note_on_c, 0, 64, 7
2, 136679, Note_on_c, 0, 69, 0
2, 136679, Note_on_c, 0, 80, 0
2, 136679, Note_on_c, 0, 66, 0
2, 136679, Note_on_c, 0, 76, 69
2, 136679, Note_on_c, 0, 68, 75
2, 136800, Note_on_c, 0, 68, 0
2, 136800, Note_on_c, 0, 64, 0
2, 136800, Note_on_c, 0, 73, 0
2, 136800, Note_on_c, 0, 76, 0
2, 136800, Note_on_c, 0, 78, 81
2, 136800, Note_on_c, 0, 66, 85
2, 136800, Note_on_c, 0, 69, 85
2, 136859, Note_on_c, 0, 69, 0
2, 136859, Note_on_c, 0, 66, 0
2, 137160, Note_on_c, 0, 78, 0
2, 137160, Note_on_c, 0, 68, 65
2, 137280, Note_on_c, 0, 68, 0
2, 137280, Note_on_c, 0, 69, 80
2, 137399, Note_on_c, 0, 69, 0
2, 137399, Note_on_c, 0, 71, 86
2, 137520, Note_on_c, 0, 71, 0
2, 137520, Note_on_c, 0, 73, 90
2, 137759, Note_on_c, 0, 78, 62
2, 137759, Note_on_c, 0, 69, 7
2, 137880, Note_on_c, 0, 69, 0
2, 137880, Note_on_c, 0, 78, 0
2, 137880, Note_on_c, 0, 80, 85
2, 137880, Note_on_c, 0, 69, 16
2, 138000, Note_on_c, 0, 80, 0
2, 138000, Note_on_c, 0, 81, 82
2, 138119, Note_on_c, 0, 81, 0
2, 138119, Note_on_c, 0, 73, 0
2, 138119, Note_on_c, 0, 83, 86
2, 138119, Note_on_c, 0, 75, 86
2, 138240, Note_on_c, 0, 75, 0
2, 138240, Note_on_c, 0, 83, 0
2, 138240, Note_on_c, 0, 85, 92
2, 138240, Note_on_c, 0, 75, 84
2, 138360, Note_on_c, 0, 75, 0
2, 138360, Note_on_c, 0, 76, 83
2, 138479, Note_on_c, 0, 76, 0
2, 138479, Note_on_c, 0, 78, 91
2, 138479, Note_on_c, 0, 73, 66
2, 138600, Note_on_c, 0, 73, 0
2, 138600, Note_on_c, 0, 78, 0
2, 138600, Note_on_c, 0, 69, 0
2, 138600, Note_on_c, 0, 76, 91
2, 138600, Note_on_c, 0, 80, 91
2, 138600, Note_on_c, 0, 71, 73
2, 138600, Note_on_c, 0, 73, 18
2, 138960, Note_on_c, 0, 71, 0
2, 138960, Note_on_c, 0, 69, 69
2, 139189, Note_on_c, 0, 85, 0
2, 139199, Note_on_c, 0, 76, 0
2, 139199, Note_on_c, 0, 80, 0
2, 139199, Note_on_c, 0, 76, 75
2, 139320, Note_on_c, 0, 73, 0
2, 139320, Note_on_c, 0, 69, 0
2, 139320, Note_on_c, 0, 83, 69
2, 139320, Note_on_c, 0, 73, 91
2, 139320, Note_on_c, 0, 69, 78
2, 139320, Note_on_c, 0, 68, 10
2, 139559, Note_on_c, 0, 83, 0
2, 139559, Note_on_c, 0, 73, 50
2, 139680, Note_on_c, 0, 73, 0
2, 139680, Note_on_c, 0, 68, 0
2, 139680, Note_on_c, 0, 76, 0
2, 139680, Note_on_c, 0, 73, 0
2, 139680, Note_on_c, 0, 69, 0
2, 139680, Note_on_c, 0, 81, 91
2, 139680, Note_on_c, 0, 75, 86
2, 139680, Note_on_c, 0, 66, 86
2, 139680, Note_on_c, 0, 71, 86
2, 139800, Note_on_c, 0, 75, 0
2, 139800, Note_on_c, 0, 78, 91
2, 139919, Note_on_c, 0, 78, 0
2, 139919, Note_on_c, 0, 80, 91
2, 140040, Note_on_c, 0, 80, 0
2, 140040, Note_on_c, 0, 81, 0
2, 140040, Note_on_c, 0, 66, 0
2, 140040, Note_on_c, 0, 71, 0
2, 140040, Note_on_c, 0, 75, 92
2, 140040, Note_on_c, 0, 78, 92
2, 140040, Note_on_c, 0, 81, 92
2, 140040, Note_on_c, 0, 66, 68
2, 140040, Note_on_c, 0, 69, 68
2, 140160, Note_on_c, 0, 69, 0
2, 140160, Note_on_c, 0, 66, 0
2, 140160, Note_on_c, 0, 66, 67
2, 140279, Note_on_c, 0, 66, 0
2, 140279, Note_on_c, 0, 68, 80
2, 140400, Note_on_c, 0, 68, 0
2, 140400, Note_on_c, 0, 69, 81
2, 140639, Note_on_c, 0, 69, 0
2, 140639, Note_on_c, 0, 81, 0
2, 140639, Note_on_c, 0, 78, 0
2, 140639, Note_on_c, 0, 75, 0
2, 140639, Note_on_c, 0, 80, 67
2, 140639, Note_on_c, 0, 71, 86
2, 140760, Note_on_c, 0, 71, 0
2, 140760, Note_on_c, 0, 80, 0
2, 140760, Note_on_c, 0, 73, 92
2, 140760, Note_on_c, 0, 76, 92
2, 140760, Note_on_c, 0, 81, 92
2, 140760, Note_on_c, 0, 64, 73
2, 140760, Note_on_c, 0, 69, 73
2, 141120, Note_on_c, 0, 64, 0
2, 141120, Note_on_c, 0, 81, 0
2, 141120, Note_on_c, 0, 73, 0
2, 141120, Note_on_c, 0, 76, 0
2, 141120, Note_on_c, 0, 71, 60
2, 141120, Note_on_c, 0, 75, 60
2, 141120, Note_on_c, 0, 66, 78
2, 141240, Note_on_c, 0, 75, 0
2, 141240, Note_on_c, 0, 71, 0
2, 141240, Note_on_c, 0, 78, 84
2, 141359, Note_on_c, 0, 78, 0
2, 141359, Note_on_c, 0, 80, 83
2, 141480, Note_on_c, 0, 80, 0
2, 141480, Note_on_c, 0, 69, 0
2, 141480, Note_on_c, 0, 66, 0
2, 141480, Note_on_c, 0, 81, 92
2, 141480, Note_on_c, 0, 75, 83
2, 141480, Note_on_c, 0, 78, 83
2, 141480, Note_on_c, 0, 69, 79
2, 141480, Note_on_c, 0, 66, 10
2, 141600, Note_on_c, 0, 66, 0
2, 141600, Note_on_c, 0, 66, 13
2, 141719, Note_on_c, 0, 66, 0
2, 141719, Note_on_c, 0, 68, 18
2, 141840, Note_on_c, 0, 68, 0
2, 141840, Note_on_c, 0, 69, 0
2, 141840, Note_on_c, 0, 69, 77
2, 141960, Note_on_c, 0, 81, 0
2, 141960, Note_on_c, 0, 81, 76
2, 142079, Note_on_c, 0, 81, 0
2, 142079, Note_on_c, 0, 69, 0
2, 142079, Note_on_c, 0, 80, 73
2, 142079, Note_on_c, 0, 71, 88
2, 142200, Note_on_c, 0, 71, 0
2, 142200, Note_on_c, 0, 75, 0
2, 142200, Note_on_c, 0, 78, 0
2, 142200, Note_on_c, 0, 80, 0
2, 142200, Note_on_c, 0, 73, 92
2, 142200, Note_on_c, 0, 76, 92
2, 142200, Note_on_c, 0, 81, 92
2, 142200, Note_on_c, 0, 69, 71
2, 142560, Note_on_c, 0, 76, 0
2, 142560, Note_on_c, 0, 73, 0
2, 142560, Note_on_c, 0, 71, 80
2, 142560, Note_on_c, 0, 75, 80
2, 142560, Note_on_c, 0, 66, 77
2, 142680, Note_on_c, 0, 75, 0
2, 142680, Note_on_c, 0, 71, 0
2, 142680, Note_on_c, 0, 78, 91
2, 142799, Note_on_c, 0, 78, 0
2, 142799, Note_on_c, 0, 80, 91
2, 142920, Note_on_c, 0, 80, 0
2, 142920, Note_on_c, 0, 69, 0
2, 142920, Note_on_c, 0, 81, 0
2, 142920, Note_on_c, 0, 66, 0
2, 142920, Note_on_c, 0, 75, 92
2, 142920, Note_on_c, 0, 81, 92
2, 142920, Note_on_c, 0, 66, 79
2, 142920, Note_on_c, 0, 69, 79
2, 143159, Note_on_c, 0, 69, 0
2, 143159, Note_on_c, 0, 75, 0
2, 143159, Note_on_c, 0, 81, 0
2, 143159, Note_on_c, 0, 66, 0
2, 143159, Note_on_c, 0, 73, 76
2, 143159, Note_on_c, 0, 81, 76
2, 143159, Note_on_c, 0, 64, 84
2, 143159, Note_on_c, 0, 69, 84
2, 143280, Note_on_c, 0, 69, 0
2, 143280, Note_on_c, 0, 73, 0
2, 143280, Note_on_c, 0, 81, 0
2, 143280, Note_on_c, 0, 64, 0
2, 143280, Note_on_c, 0, 75, 74
2, 143280, Note_on_c, 0, 81, 74
2, 143280, Note_on_c, 0, 69, 75
2, 143280, Note_on_c, 0, 66, 7
2, 143400, Note_on_c, 0, 81, 0
2, 143400, Note_on_c, 0, 75, 0
2, 143400, Note_on_c, 0, 78, 72
2, 143519, Note_on_c, 0, 78, 0
2, 143519, Note_on_c, 0, 80, 82
2, 143640, Note_on_c, 0, 80, 0
2, 143640, Note_on_c, 0, 69, 0
2, 143640, Note_on_c, 0, 66, 0
2, 143640, Note_on_c, 0, 75, 92
2, 143640, Note_on_c, 0, 81, 92
2, 143640, Note_on_c, 0, 69, 75
2, 143640, Note_on_c, 0, 66, 17
2, 143879, Note_on_c, 0, 66, 0
2, 143879, Note_on_c, 0, 75, 0
2, 143879, Note_on_c, 0, 81, 0
2, 143879, Note_on_c, 0, 69, 0
2, 143879, Note_on_c, 0, 76, 86
2, 143879, Note_on_c, 0, 84, 86
2, 143879, Note_on_c, 0, 72, 85
2, 143879, Note_on_c, 0, 67, 12
2, 144000, Note_on_c, 0, 67, 0
2, 144000, Note_on_c, 0, 76, 0
2, 144000, Note_on_c, 0, 84, 0
2, 144000, Note_on_c, 0, 72, 0
2, 144000, Note_on_c, 0, 78, 78
2, 144000, Note_on_c, 0, 84, 78
2, 144000, Note_on_c, 0, 69, 83
2, 144000, Note_on_c, 0, 72, 83
2, 144120, Note_on_c, 0, 84, 0
2, 144120, Note_on_c, 0, 78, 0
2, 144120, Note_on_c, 0, 81, 65
2, 144239, Note_on_c, 0, 81, 0
2, 144239, Note_on_c, 0, 83, 86
2, 144360, Note_on_c, 0, 83, 0
2, 144360, Note_on_c, 0, 69, 0
2, 144360, Note_on_c, 0, 72, 0
2, 144360, Note_on_c, 0, 78, 92
2, 144360, Note_on_c, 0, 84, 92
2, 144360, Note_on_c, 0, 69, 79
2, 144360, Note_on_c, 0, 72, 79
2, 144599, Note_on_c, 0, 72, 0
2, 144599, Note_on_c, 0, 78, 0
2, 144599, Note_on_c, 0, 84, 0
2, 144599, Note_on_c, 0, 69, 0
2, 144599, Note_on_c, 0, 76, 77
2, 144599, Note_on_c, 0, 84, 77
2, 144599, Note_on_c, 0, 67, 77
2, 144599, Note_on_c, 0, 72, 77
2, 144720, Note_on_c, 0, 72, 0
2, 144720, Note_on_c, 0, 76, 0
2, 144720, Note_on_c, 0, 84, 0
2, 144720, Note_on_c, 0, 67, 0
2, 144720, Note_on_c, 0, 78, 79
2, 144720, Note_on_c, 0, 84, 79
2, 144720, Note_on_c, 0, 69, 77
2, 144720, Note_on_c, 0, 72, 77
2, 144840, Note_on_c, 0, 84, 0
2, 144840, Note_on_c, 0, 78, 0
2, 144840, Note_on_c, 0, 81, 62
2, 144959, Note_on_c, 0, 81, 0
2, 144959, Note_on_c, 0, 83, 84
2, 145080, Note_on_c, 0, 83, 0
2, 145080, Note_on_c, 0, 69, 0
2, 145080, Note_on_c, 0, 72, 0
2, 145080, Note_on_c, 0, 78, 84
2, 145080, Note_on_c, 0, 84, 84
2, 145080, Note_on_c, 0, 69, 79
2, 145080, Note_on_c, 0, 72, 79
2, 145200, Note_on_c, 0, 72, 0
2, 145200, Note_on_c, 0, 78, 0
2, 145200, Note_on_c, 0, 84, 0
2, 145200, Note_on_c, 0, 69, 0
2, 145200, Note_on_c, 0, 79, 59
2, 145200, Note_on_c, 0, 67, 61
2, 145319, Note_on_c, 0, 67, 0
2, 145319, Note_on_c, 0, 79, 0
2, 145319, Note_on_c, 0, 81, 84
2, 145319, Note_on_c, 0, 69, 83
2, 145440, Note_on_c, 0, 69, 0
2, 145440, Note_on_c, 0, 81, 0
2, 145440, Note_on_c, 0, 79, 90
2, 145440, Note_on_c, 0, 83, 90
2, 145440, Note_on_c, 0, 71, 83
2, 145560, Note_on_c, 0, 71, 0
2, 145560, Note_on_c, 0, 83, 0
2, 145560, Note_on_c, 0, 79, 0
2, 145560, Note_on_c, 0, 81, 85
2, 145560, Note_on_c, 0, 84, 85
2, 145560, Note_on_c, 0, 72, 85
2, 145679, Note_on_c, 0, 72, 0
2, 145679, Note_on_c, 0, 84, 0
2, 145679, Note_on_c, 0, 81, 0
2, 145679, Note_on_c, 0, 82, 84
2, 145679, Note_on_c, 0, 85, 84
2, 145679, Note_on_c, 0, 73, 80
2, 145800, Note_on_c, 0, 73, 0
2, 145800, Note_on_c, 0, 85, 0
2, 145800, Note_on_c, 0, 82, 0
2, 145800, Note_on_c, 0, 83, 92
2, 145800, Note_on_c, 0, 86, 92
2, 145800, Note_on_c, 0, 74, 83
2, 145800, Note_on_c, 0, 71, 26
2, 145920, Note_on_c, 0, 71, 0
2, 145920, Note_on_c, 0, 72, 17
2, 146039, Note_on_c, 0, 72, 0
2, 146039, Note_on_c, 0, 73, 18
2, 146160, Note_on_c, 0, 73, 0
2, 146160, Note_on_c, 0, 74, 0
2, 146160, Note_on_c, 0, 71, 81
2, 146160, Note_on_c, 0, 74, 81
2, 146280, Note_on_c, 0, 86, 0
2, 146280, Note_on_c, 0, 83, 0
2, 146280, Note_on_c, 0, 79, 55
2, 146399, Note_on_c, 0, 79, 0
2, 146399, Note_on_c, 0, 82, 83
2, 146520, Note_on_c, 0, 82, 0
2, 146520, Note_on_c, 0, 71, 0
2, 146520, Note_on_c, 0, 74, 0
2, 146520, Note_on_c, 0, 79, 86
2, 146520, Note_on_c, 0, 83, 86
2, 146520, Note_on_c, 0, 71, 70
2, 146640, Note_on_c, 0, 71, 0
2, 146640, Note_on_c, 0, 83, 0
2, 146640, Note_on_c, 0, 79, 0
2, 146640, Note_on_c, 0, 84, 84
2, 146640, Note_on_c, 0, 72, 83
2, 146759, Note_on_c, 0, 72, 0
2, 146759, Note_on_c, 0, 84, 0
2, 146759, Note_on_c, 0, 85, 81
2, 146759, Note_on_c, 0, 73, 79
2, 146880, Note_on_c, 0, 73, 0
2, 146880, Note_on_c, 0, 85, 0
2, 146880, Note_on_c, 0, 83, 79
2, 146880, Note_on_c, 0, 86, 79
2, 146880, Note_on_c, 0, 71, 81
2, 146880, Note_on_c, 0, 74, 81
2, 147000, Note_on_c, 0, 86, 0
2, 147000, Note_on_c, 0, 83, 0
2, 147000, Note_on_c, 0, 79, 60
2, 147119, Note_on_c, 0, 79, 0
2, 147119, Note_on_c, 0, 71, 0
2, 147119, Note_on_c, 0, 74, 0
2, 147119, Note_on_c, 0, 81, 81
2, 147119, Note_on_c, 0, 69, 64
2, 147240, Note_on_c, 0, 69, 0
2, 147240, Note_on_c, 0, 81, 0
2, 147240, Note_on_c, 0, 79, 82
2, 147240, Note_on_c, 0, 83, 82
2, 147240, Note_on_c, 0, 71, 83
2, 147360, Note_on_c, 0, 71, 0
2, 147360, Note_on_c, 0, 83, 0
2, 147360, Note_on_c, 0, 79, 0
2, 147360, Note_on_c, 0, 84, 85
2, 147360, Note_on_c, 0, 72, 78
2, 147479, Note_on_c, 0, 72, 0
2, 147479, Note_on_c, 0, 84, 0
2, 147479, Note_on_c, 0, 85, 88
2, 147479, Note_on_c, 0, 73, 82
2, 147600, Note_on_c, 0, 73, 0
2, 147600, Note_on_c, 0, 85, 0
2, 147600, Note_on_c, 0, 83, 88
2, 147600, Note_on_c, 0, 86, 88
2, 147600, Note_on_c, 0, 71, 80
2, 147600, Note_on_c, 0, 74, 80
2, 147720, Note_on_c, 0, 74, 0
2, 147720, Note_on_c, 0, 83, 0
2, 147720, Note_on_c, 0, 86, 0
2, 147720, Note_on_c, 0, 71, 0
2, 147720, Note_on_c, 0, 85, 74
2, 147720, Note_on_c, 0, 73, 70
2, 147839, Note_on_c, 0, 73, 0
2, 147839, Note_on_c, 0, 85, 0
2, 147839, Note_on_c, 0, 86, 87
2, 147839, Note_on_c, 0, 74, 82
2, 147960, Note_on_c, 0, 74, 0
2, 147960, Note_on_c, 0, 86, 0
2, 147960, Note_on_c, 0, 87, 81
2, 147960, Note_on_c, 0, 75, 85
2, 147960, Note_on_c, 0, 69, 11
2, 147960, Note_on_c, 0, 71, 11
2, 148080, Note_on_c, 0, 75, 0
2, 148080, Note_on_c, 0, 87, 0
2, 148080, Note_on_c, 0, 86, 73
2, 148080, Note_on_c, 0, 74, 78
2, 148199, Note_on_c, 0, 74, 0
2, 148199, Note_on_c, 0, 86, 0
2, 148199, Note_on_c, 0, 87, 86
2, 148199, Note_on_c, 0, 75, 81
2, 148320, Note_on_c, 0, 75, 0
2, 148320, Note_on_c, 0, 71, 0
2, 148320, Note_on_c, 0, 69, 0
2, 148320, Note_on_c, 0, 87, 0
2, 148320, Note_on_c, 0, 88, 92
2, 148320, Note_on_c, 0, 68, 83
2, 148320, Note_on_c, 0, 76, 83
2, 148559, Note_on_c, 0, 76, 0
2, 148559, Note_on_c, 0, 68, 0
2, 148559, Note_on_c, 0, 88, 0
2, 148559, Note_on_c, 0, 78, 53
2, 148559, Note_on_c, 0, 69, 63
2, 148559, Note_on_c, 0, 71, 63
2, 148680, Note_on_c, 0, 71, 0
2, 148680, Note_on_c, 0, 69, 0
2, 148680, Note_on_c, 0, 78, 0
2, 148680, Note_on_c, 0, 76, 81
2, 148680, Note_on_c, 0, 80, 81
2, 148680, Note_on_c, 0, 68, 65
2, 148800, Note_on_c, 0, 68, 0
2, 148800, Note_on_c, 0, 80, 0
2, 148800, Note_on_c, 0, 76, 0
2, 148800, Note_on_c, 0, 78, 87
2, 148800, Note_on_c, 0, 81, 87
2, 148800, Note_on_c, 0, 69, 81
2, 148919, Note_on_c, 0, 69, 0
2, 148919, Note_on_c, 0, 81, 0
2, 148919, Note_on_c, 0, 78, 0
2, 148919, Note_on_c, 0, 79, 85
2, 148919, Note_on_c, 0, 82, 85
2, 148919, Note_on_c, 0, 70, 82
2, 149040, Note_on_c, 0, 70, 0
2, 149040, Note_on_c, 0, 82, 0
2, 149040, Note_on_c, 0, 79, 0
2, 149040, Note_on_c, 0, 80, 92
2, 149040, Note_on_c, 0, 83, 92
2, 149040, Note_on_c, 0, 71, 81
2, 149040, Note_on_c, 0, 68, 11
2, 149160, Note_on_c, 0, 68, 0
2, 149160, Note_on_c, 0, 69, 22
2, 149279, Note_on_c, 0, 69, 0
2, 149279, Note_on_c, 0, 70, 17
2, 149400, Note_on_c, 0, 70, 0
2, 149400, Note_on_c, 0, 71, 0
2, 149400, Note_on_c, 0, 68, 81
2, 149400, Note_on_c, 0, 71, 81
2, 149639, Note_on_c, 0, 71, 0
2, 149639, Note_on_c, 0, 80, 0
2, 149639, Note_on_c, 0, 83, 0
2, 149639, Note_on_c, 0, 68, 0
2, 149639, Note_on_c, 0, 83, 79
2, 149639, Note_on_c, 0, 71, 74
2, 149760, Note_on_c, 0, 71, 0
2, 149760, Note_on_c, 0, 83, 0
2, 149760, Note_on_c, 0, 76, 85
2, 149760, Note_on_c, 0, 80, 85
2, 149760, Note_on_c, 0, 85, 85
2, 149760, Note_on_c, 0, 73, 82
2, 149760, Note_on_c, 0, 68, 12
2, 149880, Note_on_c, 0, 73, 0
2, 149880, Note_on_c, 0, 85, 0
2, 149880, Note_on_c, 0, 76, 0
2, 149880, Note_on_c, 0, 80, 0
2, 149880, Note_on_c, 0, 83, 76
2, 149880, Note_on_c, 0, 71, 69
2, 149999, Note_on_c, 0, 71, 0
2, 149999, Note_on_c, 0, 83, 0
2, 149999, Note_on_c, 0, 85, 86
2, 149999, Note_on_c, 0, 73, 83
2, 150120, Note_on_c, 0, 73, 0
2, 150120, Note_on_c, 0, 85, 0
2, 150120, Note_on_c, 0, 68, 0
2, 150120, Note_on_c, 0, 76, 92
2, 150120, Note_on_c, 0, 80, 92
2, 150120, Note_on_c, 0, 83, 92
2, 150120, Note_on_c, 0, 71, 71
2, 150120, Note_on_c, 0, 68, 15
2, 150240, Note_on_c, 0, 71, 0
2, 150240, Note_on_c, 0, 69, 74
2, 150359, Note_on_c, 0, 69, 0
2, 150359, Note_on_c, 0, 70, 82
2, 150480, Note_on_c, 0, 70, 0
2, 150480, Note_on_c, 0, 68, 0
2, 150480, Note_on_c, 0, 71, 83
2, 150480, Note_on_c, 0, 68, 16
2, 150719, Note_on_c, 0, 71, 0
2, 150719, Note_on_c, 0, 76, 0
2, 150719, Note_on_c, 0, 83, 0
2, 150719, Note_on_c, 0, 80, 0
2, 150719, Note_on_c, 0, 83, 82
2, 150719, Note_on_c, 0, 71, 78
2, 150840, Note_on_c, 0, 71, 0
2, 150840, Note_on_c, 0, 83, 0
2, 150840, Note_on_c, 0, 68, 0
2, 150840, Note_on_c, 0, 81, 92
2, 150840, Note_on_c, 0, 85, 92
2, 150840, Note_on_c, 0, 73, 82
2, 150960, Note_on_c, 0, 73, 0
2, 150960, Note_on_c, 0, 85, 0
2, 150960, Note_on_c, 0, 81, 0
2, 150960, Note_on_c, 0, 83, 75
2, 150960, Note_on_c, 0, 80, 91
2, 151079, Note_on_c, 0, 80, 0
2, 151079, Note_on_c, 0, 83, 0
2, 151079, Note_on_c, 0, 85, 80
2, 151079, Note_on_c, 0, 78, 69
2, 151200, Note_on_c, 0, 78, 0
2, 151200, Note_on_c, 0, 85, 0
2, 151200, Note_on_c, 0, 81, 67
2, 151200, Note_on_c, 0, 69, 75
2, 151200, Note_on_c, 0, 73, 75
2, 151200, Note_on_c, 0, 76, 75
2, 151439, Note_on_c, 0, 76, 0
2, 151439, Note_on_c, 0, 81, 0
2, 151439, Note_on_c, 0, 69, 0
2, 151439, Note_on_c, 0, 73, 0
2, 151439, Note_on_c, 0, 81, 75
2, 151439, Note_on_c, 0, 69, 58
2, 151560, Note_on_c, 0, 69, 0
2, 151560, Note_on_c, 0, 81, 0
2, 151560, Note_on_c, 0, 80, 92
2, 151560, Note_on_c, 0, 83, 92
2, 151560, Note_on_c, 0, 71, 74
2, 151680, Note_on_c, 0, 71, 0
2, 151680, Note_on_c, 0, 83, 0
2, 151680, Note_on_c, 0, 80, 0
2, 151680, Note_on_c, 0, 81, 74
2, 151680, Note_on_c, 0, 78, 91
2, 151799, Note_on_c, 0, 78, 0
2, 151799, Note_on_c, 0, 81, 0
2, 151799, Note_on_c, 0, 83, 82
2, 151799, Note_on_c, 0, 76, 75
2, 151920, Note_on_c, 0, 76, 0
2, 151920, Note_on_c, 0, 83, 0
2, 151920, Note_on_c, 0, 80, 71
2, 151920, Note_on_c, 0, 68, 70
2, 151920, Note_on_c, 0, 71, 70
2, 151920, Note_on_c, 0, 75, 70
2, 152159, Note_on_c, 0, 75, 0
2, 152159, Note_on_c, 0, 80, 0
2, 152159, Note_on_c, 0, 68, 0
2, 152159, Note_on_c, 0, 71, 0
2, 152159, Note_on_c, 0, 78, 76
2, 152159, Note_on_c, 0, 66, 52
2, 152280, Note_on_c, 0, 66, 0
2, 152280, Note_on_c, 0, 78, 0
2, 152280, Note_on_c, 0, 76, 92
2, 152280, Note_on_c, 0, 80, 92
2, 152280, Note_on_c, 0, 68, 77
2, 152400, Note_on_c, 0, 68, 0
2, 152400, Note_on_c, 0, 80, 0
2, 152400, Note_on_c, 0, 76, 0
2, 152400, Note_on_c, 0, 78, 68
2, 152400, Note_on_c, 0, 75, 91
2, 152519, Note_on_c, 0, 75, 0
2, 152519, Note_on_c, 0, 78, 0
2, 152519, Note_on_c, 0, 80, 84
2, 152519, Note_on_c, 0, 73, 72
2, 152640, Note_on_c, 0, 73, 0
2, 152640, Note_on_c, 0, 80, 0
2, 152640, Note_on_c, 0, 76, 71
2, 152640, Note_on_c, 0, 72, 73
2, 152879, Note_on_c, 0, 72, 0
2, 152879, Note_on_c, 0, 76, 0
2, 152879, Note_on_c, 0, 75, 88
2, 152879, Note_on_c, 0, 78, 88
2, 152879, Note_on_c, 0, 66, 59
2, 153000, Note_on_c, 0, 66, 0
2, 153000, Note_on_c, 0, 78, 0
2, 153000, Note_on_c, 0, 75, 0
2, 153000, Note_on_c, 0, 75, 80
2, 153000, Note_on_c, 0, 78, 80
2, 153000, Note_on_c, 0, 73, 91
2, 153000, Note_on_c, 0, 66, 10
2, 153239, Note_on_c, 0, 66, 0
2, 153239, Note_on_c, 0, 75, 0
2, 153239, Note_on_c, 0, 78, 0
2, 153239, Note_on_c, 0, 76, 87
2, 153239, Note_on_c, 0, 80, 87
2, 153239, Note_on_c, 0, 68, 12
2, 153360, Note_on_c, 0, 68, 0
2, 153360, Note_on_c, 0, 73, 0
2, 153360, Note_on_c, 0, 76, 0
2, 153360, Note_on_c, 0, 80, 0
2, 153360, Note_on_c, 0, 77, 79
2, 153360, Note_on_c, 0, 80, 79
2, 153360, Note_on_c, 0, 74, 81
2, 153360, Note_on_c, 0, 68, 17
2, 153599, Note_on_c, 0, 68, 0
2, 153599, Note_on_c, 0, 77, 0
2, 153599, Note_on_c, 0, 80, 0
2, 153599, Note_on_c, 0, 78, 85
2, 153599, Note_on_c, 0, 81, 85
2, 153599, Note_on_c, 0, 69, 17
2, 153720, Note_on_c, 0, 69, 0
2, 153720, Note_on_c, 0, 74, 0
2, 153720, Note_on_c, 0, 78, 0
2, 153720, Note_on_c, 0, 81, 0
2, 153720, Note_on_c, 0, 78, 78
2, 153720, Note_on_c, 0, 81, 78
2, 153720, Note_on_c, 0, 75, 84
2, 153720, Note_on_c, 0, 69, 15
2, 153840, Note_on_c, 0, 69, 0
2, 153840, Note_on_c, 0, 78, 0
2, 153840, Note_on_c, 0, 81, 0
2, 153840, Note_on_c, 0, 82, 84
2, 153840, Note_on_c, 0, 70, 21
2, 153959, Note_on_c, 0, 70, 0
2, 153959, Note_on_c, 0, 82, 0
2, 153959, Note_on_c, 0, 83, 84
2, 153959, Note_on_c, 0, 71, 16
2, 154080, Note_on_c, 0, 71, 0
2, 154080, Note_on_c, 0, 83, 0
2, 154080, Note_on_c, 0, 75, 0
2, 154080, Note_on_c, 0, 76, 72
2, 154080, Note_on_c, 0, 80, 72
2, 154080, Note_on_c, 0, 68, 60
2, 154200, Note_on_c, 0, 68, 0
2, 154200, Note_on_c, 0, 80, 0
2, 154200, Note_on_c, 0, 76, 0
2, 154200, Note_on_c, 0, 78, 87
2, 154200, Note_on_c, 0, 81, 87
2, 154200, Note_on_c, 0, 69, 78
2, 154319, Note_on_c, 0, 69, 0
2, 154319, Note_on_c, 0, 81, 0
2, 154319, Note_on_c, 0, 78, 0
2, 154319, Note_on_c, 0, 79, 83
2, 154319, Note_on_c, 0, 82, 83
2, 154319, Note_on_c, 0, 70, 85
2, 154440, Note_on_c, 0, 70, 0
2, 154440, Note_on_c, 0, 82, 0
2, 154440, Note_on_c, 0, 79, 0
2, 154440, Note_on_c, 0, 80, 92
2, 154440, Note_on_c, 0, 83, 92
2, 154440, Note_on_c, 0, 71, 87
2, 154440, Note_on_c, 0, 68, 8
2, 154560, Note_on_c, 0, 68, 0
2, 154560, Note_on_c, 0, 69, 16
2, 154679, Note_on_c, 0, 69, 0
2, 154679, Note_on_c, 0, 70, 15
2, 154800, Note_on_c, 0, 70, 0
2, 154800, Note_on_c, 0, 71, 0
2, 154800, Note_on_c, 0, 71, 84
2, 154800, Note_on_c, 0, 68, 11
2, 154920, Note_on_c, 0, 71, 0
2, 154920, Note_on_c, 0, 80, 0
2, 154920, Note_on_c, 0, 83, 0
2, 154920, Note_on_c, 0, 85, 83
2, 154920, Note_on_c, 0, 73, 82
2, 155039, Note_on_c, 0, 73, 0
2, 155039, Note_on_c, 0, 85, 0
2, 155039, Note_on_c, 0, 83, 73
2, 155039, Note_on_c, 0, 71, 70
2, 155160, Note_on_c, 0, 71, 0
2, 155160, Note_on_c, 0, 83, 0
2, 155160, Note_on_c, 0, 85, 92
2, 155160, Note_on_c, 0, 73, 84
2, 155399, Note_on_c, 0, 73, 0
2, 155399, Note_on_c, 0, 85, 0
2, 155399, Note_on_c, 0, 80, 64
2, 155399, Note_on_c, 0, 68, 64
2, 155520, Note_on_c, 0, 68, 0
2, 155520, Note_on_c, 0, 80, 0
2, 155520, Note_on_c, 0, 68, 0
2, 155520, Note_on_c, 0, 78, 78
2, 155520, Note_on_c, 0, 81, 78
2, 155520, Note_on_c, 0, 69, 77
2, 155520, Note_on_c, 0, 66, 11
2, 155640, Note_on_c, 0, 69, 0
2, 155640, Note_on_c, 0, 78, 0
2, 155640, Note_on_c, 0, 81, 0
2, 155640, Note_on_c, 0, 83, 86
2, 155640, Note_on_c, 0, 71, 83
2, 155759, Note_on_c, 0, 71, 0
2, 155759, Note_on_c, 0, 83, 0
2, 155759, Note_on_c, 0, 84, 88
2, 155759, Note_on_c, 0, 72, 83
2, 155880, Note_on_c, 0, 72, 0
2, 155880, Note_on_c, 0, 84, 0
2, 155880, Note_on_c, 0, 66, 0
2, 155880, Note_on_c, 0, 81, 92
2, 155880, Note_on_c, 0, 85, 92
2, 155880, Note_on_c, 0, 73, 81
2, 155880, Note_on_c, 0, 69, 18
2, 156000, Note_on_c, 0, 69, 0
2, 156000, Note_on_c, 0, 71, 21
2, 156119, Note_on_c, 0, 71, 0
2, 156119, Note_on_c, 0, 72, 23
2, 156240, Note_on_c, 0, 72, 0
2, 156240, Note_on_c, 0, 73, 0
2, 156240, Note_on_c, 0, 73, 78
2, 156240, Note_on_c, 0, 69, 13
2, 156360, Note_on_c, 0, 73, 0
2, 156360, Note_on_c, 0, 81, 0
2, 156360, Note_on_c, 0, 85, 0
2, 156360, Note_on_c, 0, 87, 87
2, 156360, Note_on_c, 0, 75, 84
2, 156479, Note_on_c, 0, 75, 0
2, 156479, Note_on_c, 0, 87, 0
2, 156479, Note_on_c, 0, 85, 74
2, 156479, Note_on_c, 0, 73, 76
2, 156600, Note_on_c, 0, 73, 0
2, 156600, Note_on_c, 0, 85, 0
2, 156600, Note_on_c, 0, 87, 87
2, 156600, Note_on_c, 0, 75, 83
2, 156839, Note_on_c, 0, 75, 0
2, 156839, Note_on_c, 0, 87, 0
2, 156839, Note_on_c, 0, 81, 61
2, 156839, Note_on_c, 0, 69, 60
2, 156960, Note_on_c, 0, 69, 0
2, 156960, Note_on_c, 0, 81, 0
2, 156960, Note_on_c, 0, 69, 0
2, 156960, Note_on_c, 0, 80, 80
2, 156960, Note_on_c, 0, 83, 80
2, 156960, Note_on_c, 0, 71, 81
2, 156960, Note_on_c, 0, 68, 11
2, 157080, Note_on_c, 0, 71, 0
2, 157080, Note_on_c, 0, 80, 0
2, 157080, Note_on_c, 0, 83, 0
2, 157080, Note_on_c, 0, 85, 82
2, 157080, Note_on_c, 0, 73, 84
2, 157199, Note_on_c, 0, 73, 0
2, 157199, Note_on_c, 0, 85, 0
2, 157199, Note_on_c, 0, 86, 89
2, 157199, Note_on_c, 0, 74, 82
2, 157320, Note_on_c, 0, 74, 0
2, 157320, Note_on_c, 0, 86, 0
2, 157320, Note_on_c, 0, 68, 0
2, 157320, Note_on_c, 0, 83, 92
2, 157320, Note_on_c, 0, 87, 92
2, 157320, Note_on_c, 0, 75, 80
2, 157320, Note_on_c, 0, 71, 15
2, 157440, Note_on_c, 0, 71, 0
2, 157440, Note_on_c, 0, 73, 18
2, 157559, Note_on_c, 0, 73, 0
2, 157559, Note_on_c, 0, 74, 18
2, 157680, Note_on_c, 0, 74, 0
2, 157680, Note_on_c, 0, 75, 0
2, 157680, Note_on_c, 0, 75, 73
2, 157680, Note_on_c, 0, 71, 15
2, 157800, Note_on_c, 0, 75, 0
2, 157800, Note_on_c, 0, 83, 0
2, 157800, Note_on_c, 0, 87, 0
2, 157800, Note_on_c, 0, 88, 83
2, 157800, Note_on_c, 0, 76, 84
2, 157919, Note_on_c, 0, 76, 0
2, 157919, Note_on_c, 0, 88, 0
2, 157919, Note_on_c, 0, 87, 76
2, 157919, Note_on_c, 0, 75, 69
2, 158040, Note_on_c, 0, 75, 0
2, 158040, Note_on_c, 0, 87, 0
2, 158040, Note_on_c, 0, 88, 85
2, 158040, Note_on_c, 0, 76, 85
2, 158279, Note_on_c, 0, 76, 0
2, 158279, Note_on_c, 0, 88, 0
2, 158279, Note_on_c, 0, 83, 66
2, 158279, Note_on_c, 0, 71, 65
2, 158400, Note_on_c, 0, 71, 0
2, 158400, Note_on_c, 0, 83, 0
2, 158400, Note_on_c, 0, 71, 0
2, 158400, Note_on_c, 0, 81, 83
2, 158400, Note_on_c, 0, 85, 83
2, 158400, Note_on_c, 0, 73, 81
2, 158400, Note_on_c, 0, 69, 12
2, 158520, Note_on_c, 0, 73, 0
2, 158520, Note_on_c, 0, 81, 0
2, 158520, Note_on_c, 0, 85, 0
2, 158520, Note_on_c, 0, 86, 82
2, 158520, Note_on_c, 0, 74, 88
2, 158639, Note_on_c, 0, 74, 0
2, 158639, Note_on_c, 0, 86, 0
2, 158639, Note_on_c, 0, 87, 81
2, 158639, Note_on_c, 0, 75, 85
2, 158760, Note_on_c, 0, 75, 0
2, 158760, Note_on_c, 0, 87, 0
2, 158760, Note_on_c, 0, 69, 0
2, 158760, Note_on_c, 0, 85, 92
2, 158760, Note_on_c, 0, 88, 92
2, 158760, Note_on_c, 0, 73, 82
2, 158760, Note_on_c, 0, 76, 82
2, 158999, Note_on_c, 0, 76, 0
2, 158999, Note_on_c, 0, 85, 0
2, 158999, Note_on_c, 0, 88, 0
2, 158999, Note_on_c, 0, 73, 0
2, 158999, Note_on_c, 0, 85, 67
2, 158999, Note_on_c, 0, 73, 72
2, 159120, Note_on_c, 0, 73, 0
2, 159120, Note_on_c, 0, 85, 0
2, 159120, Note_on_c, 0, 83, 85
2, 159120, Note_on_c, 0, 87, 85
2, 159120, Note_on_c, 0, 75, 84
2, 159120, Note_on_c, 0, 71, 19
2, 159240, Note_on_c, 0, 75, 0
2, 159240, Note_on_c, 0, 83, 0
2, 159240, Note_on_c, 0, 87, 0
2, 159240, Note_on_c, 0, 88, 84
2, 159240, Note_on_c, 0, 76, 82
2, 159359, Note_on_c, 0, 76, 0
2, 159359, Note_on_c, 0, 88, 0
2, 159359, Note_on_c, 0, 89, 89
2, 159359, Note_on_c, 0, 77, 84
2, 159480, Note_on_c, 0, 77, 0
2, 159480, Note_on_c, 0, 89, 0
2, 159480, Note_on_c, 0, 71, 0
2, 159480, Note_on_c, 0, 87, 92
2, 159480, Note_on_c, 0, 90, 92
2, 159480, Note_on_c, 0, 75, 86
2, 159480, Note_on_c, 0, 78, 86
2, 159719, Note_on_c, 0, 78, 0
2, 159719, Note_on_c, 0, 87, 0
2, 159719, Note_on_c, 0, 90, 0
2, 159719, Note_on_c, 0, 75, 0
2, 159719, Note_on_c, 0, 87, 71
2, 159719, Note_on_c, 0, 75, 71
2, 159840, Note_on_c, 0, 75, 0
2, 159840, Note_on_c, 0, 87, 0
2, 159840, Note_on_c, 0, 88, 78
2, 159840, Note_on_c, 0, 85, 91
2, 159840, Note_on_c, 0, 76, 83
2, 159840, Note_on_c, 0, 73, 19
2, 159960, Note_on_c, 0, 76, 0
2, 159960, Note_on_c, 0, 88, 0
2, 159960, Note_on_c, 0, 90, 87
2, 159960, Note_on_c, 0, 78, 84
2, 160079, Note_on_c, 0, 78, 0
2, 160079, Note_on_c, 0, 90, 0
2, 160079, Note_on_c, 0, 91, 82
2, 160079, Note_on_c, 0, 79, 85
2, 160200, Note_on_c, 0, 79, 0
2, 160200, Note_on_c, 0, 73, 0
2, 160200, Note_on_c, 0, 85, 0
2, 160200, Note_on_c, 0, 91, 0
2, 160200, Note_on_c, 0, 88, 92
2, 160200, Note_on_c, 0, 92, 92
2, 160200, Note_on_c, 0, 76, 85
2, 160200, Note_on_c, 0, 80, 85
2, 160439, Note_on_c, 0, 80, 0
2, 160439, Note_on_c, 0, 88, 0
2, 160439, Note_on_c, 0, 92, 0
2, 160439, Note_on_c, 0, 76, 0
2, 160439, Note_on_c, 0, 90, 73
2, 160439, Note_on_c, 0, 78, 75
2, 160560, Note_on_c, 0, 78, 0
2, 160560, Note_on_c, 0, 90, 0
2, 160560, Note_on_c, 0, 88, 92
2, 160560, Note_on_c, 0, 92, 92
2, 160560, Note_on_c, 0, 76, 79
2, 160560, Note_on_c, 0, 80, 79
2, 160799, Note_on_c, 0, 80, 0
2, 160799, Note_on_c, 0, 88, 0
2, 160799, Note_on_c, 0, 92, 0
2, 160799, Note_on_c, 0, 76, 0
2, 160799, Note_on_c, 0, 90, 68
2, 160799, Note_on_c, 0, 78, 76
2, 160920, Note_on_c, 0, 78, 0
2, 160920, Note_on_c, 0, 90, 0
2, 160920, Note_on_c, 0, 88, 92
2, 160920, Note_on_c, 0, 92, 92
2, 160920, Note_on_c, 0, 76, 81
2, 160920, Note_on_c, 0, 80, 81
2, 161159, Note_on_c, 0, 80, 0
2, 161159, Note_on_c, 0, 88, 0
2, 161159, Note_on_c, 0, 92, 0
2, 161159, Note_on_c, 0, 76, 0
2, 161159, Note_on_c, 0, 87, 65
2, 161159, Note_on_c, 0, 75, 58
2, 161280, Note_on_c, 0, 75, 0
2, 161280, Note_on_c, 0, 87, 0
2, 161280, Note_on_c, 0, 88, 81
2, 161280, Note_on_c, 0, 80, 77
2, 161280, Note_on_c, 0, 76, 80
2, 161400, Note_on_c, 0, 76, 0
2, 161400, Note_on_c, 0, 88, 0
2, 161400, Note_on_c, 0, 82, 65
2, 161400, Note_on_c, 0, 70, 57
2, 161519, Note_on_c, 0, 70, 0
2, 161519, Note_on_c, 0, 82, 0
2, 161519, Note_on_c, 0, 83, 78
2, 161519, Note_on_c, 0, 71, 77
2, 161640, Note_on_c, 0, 71, 0
2, 161640, Note_on_c, 0, 83, 0
2, 161640, Note_on_c, 0, 80, 0
2, 161640, Note_on_c, 0, 84, 92
2, 161640, Note_on_c, 0, 80, 88
2, 161640, Note_on_c, 0, 72, 81
2, 161879, Note_on_c, 0, 72, 0
2, 161879, Note_on_c, 0, 84, 0
2, 161879, Note_on_c, 0, 83, 75
2, 161879, Note_on_c, 0, 71, 71
2, 162000, Note_on_c, 0, 71, 0
2, 162000, Note_on_c, 0, 83, 0
2, 162000, Note_on_c, 0, 80, 0
2, 162000, Note_on_c, 0, 84, 92
2, 162000, Note_on_c, 0, 80, 91
2, 162000, Note_on_c, 0, 72, 82
2, 162239, Note_on_c, 0, 72, 0
2, 162239, Note_on_c, 0, 84, 0
2, 162239, Note_on_c, 0, 83, 73
2, 162239, Note_on_c, 0, 71, 76
2, 162360, Note_on_c, 0, 71, 0
2, 162360, Note_on_c, 0, 83, 0
2, 162360, Note_on_c, 0, 80, 0
2, 162360, Note_on_c, 0, 84, 92
2, 162360, Note_on_c, 0, 80, 88
2, 162360, Note_on_c, 0, 72, 81
2, 162599, Note_on_c, 0, 72, 0
2, 162599, Note_on_c, 0, 84, 0
2, 162599, Note_on_c, 0, 79, 64
2, 162720, Note_on_c, 0, 79, 0
2, 162720, Note_on_c, 0, 80, 0
2, 162720, Note_on_c, 0, 80, 77
2, 162720, Note_on_c, 0, 73, 70
2, 162840, Note_on_c, 0, 73, 0
2, 162840, Note_on_c, 0, 80, 0
2, 162840, Note_on_c, 0, 81, 82
2, 162840, Note_on_c, 0, 69, 63
2, 162959, Note_on_c, 0, 69, 0
2, 162959, Note_on_c, 0, 81, 0
2, 162959, Note_on_c, 0, 82, 84
2, 162959, Note_on_c, 0, 70, 79
2, 163080, Note_on_c, 0, 70, 0
2, 163080, Note_on_c, 0, 82, 0
2, 163080, Note_on_c, 0, 83, 92
2, 163080, Note_on_c, 0, 76, 79
2, 163080, Note_on_c, 0, 71, 86
2, 163080, Note_on_c, 0, 68, 9
2, 163319, Note_on_c, 0, 71, 0
2, 163319, Note_on_c, 0, 83, 0
2, 163319, Note_on_c, 0, 83, 81
2, 163319, Note_on_c, 0, 71, 84
2, 163440, Note_on_c, 0, 71, 0
2, 163440, Note_on_c, 0, 83, 0
2, 163440, Note_on_c, 0, 68, 0
2, 163440, Note_on_c, 0, 85, 84
2, 163440, Note_on_c, 0, 73, 81
2, 163560, Note_on_c, 0, 73, 0
2, 163560, Note_on_c, 0, 85, 0
2, 163560, Note_on_c, 0, 78, 60
2, 163560, Note_on_c, 0, 66, 11
2, 163679, Note_on_c, 0, 66, 0
2, 163679, Note_on_c, 0, 78, 0
2, 163679, Note_on_c, 0, 80, 82
2, 163679, Note_on_c, 0, 68, 69
2, 163800, Note_on_c, 0, 68, 0
2, 163800, Note_on_c, 0, 80, 0
2, 163800, Note_on_c, 0, 76, 0
2, 163800, Note_on_c, 0, 81, 92
2, 163800, Note_on_c, 0, 75, 87
2, 163800, Note_on_c, 0, 69, 79
2, 163800, Note_on_c, 0, 66, 8
2, 164039, Note_on_c, 0, 69, 0
2, 164039, Note_on_c, 0, 81, 0
2, 164039, Note_on_c, 0, 81, 82
2, 164039, Note_on_c, 0, 69, 72
2, 164160, Note_on_c, 0, 69, 0
2, 164160, Note_on_c, 0, 66, 0
2, 164160, Note_on_c, 0, 75, 0
2, 164160, Note_on_c, 0, 81, 0
2, 164160, Note_on_c, 0, 83, 87
2, 164160, Note_on_c, 0, 74, 83
2, 164160, Note_on_c, 0, 71, 86
2, 164280, Note_on_c, 0, 71, 0
2, 164280, Note_on_c, 0, 83, 0
2, 164280, Note_on_c, 0, 77, 61
2, 164280, Note_on_c, 0, 65, 14
2, 164399, Note_on_c, 0, 65, 0
2, 164399, Note_on_c, 0, 77, 0
2, 164399, Note_on_c, 0, 78, 81
2, 164399, Note_on_c, 0, 66, 68
2, 164520, Note_on_c, 0, 66, 0
2, 164520, Note_on_c, 0, 78, 0
2, 164520, Note_on_c, 0, 74, 0
2, 164520, Note_on_c, 0, 80, 92
2, 164520, Note_on_c, 0, 73, 83
2, 164520, Note_on_c, 0, 68, 84
2, 164520, Note_on_c, 0, 65, 13
2, 164759, Note_on_c, 0, 68, 0
2, 164759, Note_on_c, 0, 80, 0
2, 164759, Note_on_c, 0, 80, 80
2, 164759, Note_on_c, 0, 68, 82
2, 164880, Note_on_c, 0, 68, 0
2, 164880, Note_on_c, 0, 80, 0
2, 164880, Note_on_c, 0, 65, 0
2, 164880, Note_on_c, 0, 81, 81
2, 164880, Note_on_c, 0, 64, 85
2, 164880, Note_on_c, 0, 69, 85
2, 165000, Note_on_c, 0, 69, 0
2, 165000, Note_on_c, 0, 64, 0
2, 165000, Note_on_c, 0, 81, 0
2, 165000, Note_on_c, 0, 74, 58
2, 165000, Note_on_c, 0, 63, 11
2, 165119, Note_on_c, 0, 63, 0
2, 165119, Note_on_c, 0, 74, 0
2, 165119, Note_on_c, 0, 76, 78
2, 165119, Note_on_c, 0, 64, 69
2, 165240, Note_on_c, 0, 64, 0
2, 165240, Note_on_c, 0, 76, 0
2, 165240, Note_on_c, 0, 73, 0
2, 165240, Note_on_c, 0, 78, 87
2, 165240, Note_on_c, 0, 72, 80
2, 165240, Note_on_c, 0, 66, 80
2, 165240, Note_on_c, 0, 63, 9
2, 165479, Note_on_c, 0, 66, 0
2, 165479, Note_on_c, 0, 78, 0
2, 165479, Note_on_c, 0, 78, 92
2, 165479, Note_on_c, 0, 66, 85
2, 165600, Note_on_c, 0, 66, 0
2, 165600, Note_on_c, 0, 63, 0
2, 165600, Note_on_c, 0, 72, 0
2, 165600, Note_on_c, 0, 78, 0
2, 165600, Note_on_c, 0, 80, 83
2, 165600, Note_on_c, 0, 74, 91
2, 165600, Note_on_c, 0, 68, 84
2, 165600, Note_on_c, 0, 62, 13
2, 165839, Note_on_c, 0, 62, 0
2, 165839, Note_on_c, 0, 74, 0
2, 165839, Note_on_c, 0, 74, 91
2, 165839, Note_on_c, 0, 62, 21
2, 165960, Note_on_c, 0, 62, 0
2, 165960, Note_on_c, 0, 80, 0
2, 165960, Note_on_c, 0, 68, 0
2, 165960, Note_on_c, 0, 74, 0
2, 165960, Note_on_c, 0, 81, 80
2, 165960, Note_on_c, 0, 73, 85
2, 165960, Note_on_c, 0, 69, 85
2, 165960, Note_on_c, 0, 61, 9
2, 166080, Note_on_c, 0, 61, 0
2, 166080, Note_on_c, 0, 73, 0
2, 166080, Note_on_c, 0, 74, 91
2, 166080, Note_on_c, 0, 62, 22
2, 166199, Note_on_c, 0, 62, 0
2, 166199, Note_on_c, 0, 74, 0
2, 166199, Note_on_c, 0, 75, 91
2, 166199, Note_on_c, 0, 63, 14
2, 166320, Note_on_c, 0, 63, 0
2, 166320, Note_on_c, 0, 81, 0
2, 166320, Note_on_c, 0, 69, 0
2, 166320, Note_on_c, 0, 75, 0
2, 166320, Note_on_c, 0, 76, 62
2, 166320, Note_on_c, 0, 72, 79
2, 166320, Note_on_c, 0, 64, 81
2, 166320, Note_on_c, 0, 70, 81
2, 166320, Note_on_c, 0, 60, 9
2, 166559, Note_on_c, 0, 72, 0
2, 166559, Note_on_c, 0, 70, 80
2, 166680, Note_on_c, 0, 70, 0
2, 166680, Note_on_c, 0, 60, 0
2, 166680, Note_on_c, 0, 76, 0
2, 166680, Note_on_c, 0, 64, 0
2, 166680, Note_on_c, 0, 70, 0
2, 166680, Note_on_c, 0, 71, 61
2, 166680, Note_on_c, 0, 64, 60
2, 166800, Note_on_c, 0, 71, 0
2, 166800, Note_on_c, 0, 70, 69
2, 166919, Note_on_c, 0, 70, 0
2, 166919, Note_on_c, 0, 71, 78
2, 167040, Note_on_c, 0, 71, 0
2, 167040, Note_on_c, 0, 64, 0
2, 167040, Note_on_c, 0, 72, 81
2, 167040, Note_on_c, 0, 64, 78
2, 167279, Note_on_c, 0, 72, 0
2, 167279, Note_on_c, 0, 67, 61
2, 167400, Note_on_c, 0, 67, 0
2, 167400, Note_on_c, 0, 64, 0
2, 167400, Note_on_c, 0, 68, 79
2, 167400, Note_on_c, 0, 64, 77
2, 167639, Note_on_c, 0, 68, 0
2, 167639, Note_on_c, 0, 68, 78
2, 167760, Note_on_c, 0, 68, 0
2, 167760, Note_on_c, 0, 64, 0
2, 167760, Note_on_c, 0, 69, 81
2, 167760, Note_on_c, 0, 64, 79
2, 167999, Note_on_c, 0, 69, 0
2, 167999, Note_on_c, 0, 63, 61
2, 168120, Note_on_c, 0, 63, 0
2, 168120, Note_on_c, 0, 64, 0
2, 168120, Note_on_c, 0, 66, 87
2, 168120, Note_on_c, 0, 64, 72
2, 168480, Note_on_c, 0, 64, 0
2, 168480, Note_on_c, 0, 66, 0
2, 168480, Note_on_c, 0, 68, 83
2, 168480, Note_on_c, 0, 64, 90
2, 168840, Note_on_c, 0, 64, 0
2, 168840, Note_on_c, 0, 68, 0
2, 168840, Note_on_c, 0, 59, 67
2, 168960, Note_on_c, 0, 59, 0
2, 168960, Note_on_c, 0, 63, 88
2, 169079, Note_on_c, 0, 63, 0
2, 169079, Note_on_c, 0, 64, 80
2, 169200, Note_on_c, 0, 64, 0
2, 169200, Note_on_c, 0, 68, 91
2, 169439, Note_on_c, 0, 68, 0
2, 169439, Note_on_c, 0, 68, 66
2, 169439, Note_on_c, 0, 66, 75
2, 169560, Note_on_c, 0, 66, 0
2, 169560, Note_on_c, 0, 68, 0
2, 169560, Note_on_c, 0, 71, 89
2, 169560, Note_on_c, 0, 64, 71
2, 169680, Note_on_c, 0, 71, 0
2, 169680, Note_on_c, 0, 75, 91
2, 169799, Note_on_c, 0, 75, 0
2, 169799, Note_on_c, 0, 64, 0
2, 169799, Note_on_c, 0, 76, 87
2, 169799, Note_on_c, 0, 63, 65
2, 169920, Note_on_c, 0, 63, 0
2, 169920, Note_on_c, 0, 76, 0
2, 169920, Note_on_c, 0, 80, 91
2, 169920, Note_on_c, 0, 61, 69
2, 170159, Note_on_c, 0, 80, 0
2, 170159, Note_on_c, 0, 76, 67
2, 170280, Note_on_c, 0, 76, 0
2, 170280, Note_on_c, 0, 61, 0
2, 170280, Note_on_c, 0, 71, 60
2, 170519, Note_on_c, 0, 71, 0
2, 170519, Note_on_c, 0, 69, 71
2, 170519, Note_on_c, 0, 59, 65
2, 170640, Note_on_c, 0, 59, 0
2, 170640, Note_on_c, 0, 69, 0
2, 170640, Note_on_c, 0, 68, 67
2, 170640, Note_on_c, 0, 63, 89
2, 170760, Note_on_c, 0, 63, 0
2, 170760, Note_on_c, 0, 64, 88
2, 170879, Note_on_c, 0, 64, 0
2, 170879, Note_on_c, 0, 68, 0
2, 170879, Note_on_c, 0, 71, 89
2, 170879, Note_on_c, 0, 68, 85
2, 171000, Note_on_c, 0, 68, 0
2, 171000, Note_on_c, 0, 71, 0
2, 171000, Note_on_c, 0, 75, 91
2, 171000, Note_on_c, 0, 71, 88
2, 171120, Note_on_c, 0, 75, 0
2, 171120, Note_on_c, 0, 76, 84
2, 171239, Note_on_c, 0, 76, 0
2, 171239, Note_on_c, 0, 71, 0
2, 171239, Note_on_c, 0, 80, 91
2, 171239, Note_on_c, 0, 69, 72
2, 171360, Note_on_c, 0, 69, 0
2, 171360, Note_on_c, 0, 80, 0
2, 171360, Note_on_c, 0, 83, 88
2, 171360, Note_on_c, 0, 68, 76
2, 171480, Note_on_c, 0, 68, 0
2, 171480, Note_on_c, 0, 75, 76
2, 171480, Note_on_c, 0, 63, 61
2, 171599, Note_on_c, 0, 63, 0
2, 171599, Note_on_c, 0, 75, 0
2, 171599, Note_on_c, 0, 76, 91
2, 171599, Note_on_c, 0, 66, 90
2, 171720, Note_on_c, 0, 66, 0
2, 171720, Note_on_c, 0, 76, 0
2, 171720, Note_on_c, 0, 83, 0
2, 171720, Note_on_c, 0, 83, 78
2, 171720, Note_on_c, 0, 68, 84
2, 171840, Note_on_c, 0, 68, 0
2, 171840, Note_on_c, 0, 83, 0
2, 171840, Note_on_c, 0, 85, 87
2, 171840, Note_on_c, 0, 71, 91
2, 171959, Note_on_c, 0, 71, 0
2, 171959, Note_on_c, 0, 85, 0
2, 171959, Note_on_c, 0, 87, 82
2, 171959, Note_on_c, 0, 75, 91
2, 172080, Note_on_c, 0, 75, 0
2, 172080, Note_on_c, 0, 87, 0
2, 172080, Note_on_c, 0, 88, 84
2, 172080, Note_on_c, 0, 76, 86
2, 172200, Note_on_c, 0, 76, 0
2, 172200, Note_on_c, 0, 66, 48
2, 172319, Note_on_c, 0, 66, 0
2, 172319, Note_on_c, 0, 88, 0
2, 172319, Note_on_c, 0, 87, 69
2, 172319, Note_on_c, 0, 69, 81
2, 172440, Note_on_c, 0, 69, 0
2, 172440, Note_on_c, 0, 87, 0
2, 172440, Note_on_c, 0, 88, 81
2, 172440, Note_on_c, 0, 70, 80
2, 172560, Note_on_c, 0, 70, 0
2, 172560, Note_on_c, 0, 88, 0
2, 172560, Note_on_c, 0, 89, 84
2, 172560, Note_on_c, 0, 73, 89
2, 172679, Note_on_c, 0, 73, 0
2, 172679, Note_on_c, 0, 89, 0
2, 172679, Note_on_c, 0, 90, 82
2, 172679, Note_on_c, 0, 76, 89
2, 172800, Note_on_c, 0, 76, 0
2, 172800, Note_on_c, 0, 90, 0
2, 172800, Note_on_c, 0, 91, 83
2, 172800, Note_on_c, 0, 88, 91
2, 172800, Note_on_c, 0, 79, 91
2, 172800, Note_on_c, 0, 76, 29
2, 172890, Note_on_c, 0, 79, 0
2, 172890, Note_on_c, 0, 91, 0
2, 172890, Note_on_c, 0, 92, 85
2, 172890, Note_on_c, 0, 80, 85
2, 172980, Note_on_c, 0, 80, 0
2, 172980, Note_on_c, 0, 92, 0
2, 172980, Note_on_c, 0, 93, 85
2, 172980, Note_on_c, 0, 81, 84
2, 173070, Note_on_c, 0, 81, 0
2, 173070, Note_on_c, 0, 93, 0
2, 173070, Note_on_c, 0, 94, 85
2, 173070, Note_on_c, 0, 82, 83
2, 173160, Note_on_c, 0, 82, 0
2, 173160, Note_on_c, 0, 76, 0
2, 173160, Note_on_c, 0, 88, 0
2, 173160, Note_on_c, 0, 94, 0
2, 173160, Note_on_c, 0, 92, 82
2, 173160, Note_on_c, 0, 95, 82
2, 173160, Note_on_c, 0, 80, 85
2, 173160, Note_on_c, 0, 83, 85
2, 173399, Note_on_c, 0, 83, 0
2, 173399, Note_on_c, 0, 92, 0
2, 173399, Note_on_c, 0, 95, 0
2, 173399, Note_on_c, 0, 80, 0
2, 173399, Note_on_c, 0, 81, 60
2, 173399, Note_on_c, 0, 87, 60
2, 173399, Note_on_c, 0, 69, 54
2, 173399, Note_on_c, 0, 75, 54
2, 173520, Note_on_c, 0, 75, 0
2, 173520, Note_on_c, 0, 81, 0
2, 173520, Note_on_c, 0, 87, 0
2, 173520, Note_on_c, 0, 69, 0
2, 173520, Note_on_c, 0, 80, 80
2, 173520, Note_on_c, 0, 88, 80
2, 173520, Note_on_c, 0, 68, 80
2, 173520, Note_on_c, 0, 71, 80
2, 173520, Note_on_c, 0, 76, 80
2, 173880, Note_on_c, 0, 76, 0
2, 173880, Note_on_c, 0, 68, 0
2, 173880, Note_on_c, 0, 80, 0
2, 173880, Note_on_c, 0, 88, 0
2, 173880, Note_on_c, 0, 71, 0
2, 174600, Note_on_c, 0, 76, 65
2, 174600, Note_on_c, 0, 73, 69
2, 174600, Note_on_c, 0, 67, 9
2, 174600, Note_on_c, 0, 69, 9
2, 174720, Note_on_c, 0, 73, 0
2, 174720, Note_on_c, 0, 74, 84
2, 174779, Note_on_c, 0, 76, 0
2, 174839, Note_on_c, 0, 74, 0
2, 174839, Note_on_c, 0, 75, 81
2, 174960, Note_on_c, 0, 75, 0
2, 174960, Note_on_c, 0, 67, 0
2, 174960, Note_on_c, 0, 69, 0
2, 174960, Note_on_c, 0, 67, 85
2, 174960, Note_on_c, 0, 69, 85
2, 174960, Note_on_c, 0, 73, 85
2, 174960, Note_on_c, 0, 76, 85
2, 175320, Note_on_c, 0, 81, 66
2, 175320, Note_on_c, 0, 93, 66
2, 175559, Note_on_c, 0, 76, 0
2, 175559, Note_on_c, 0, 73, 0
2, 175559, Note_on_c, 0, 67, 0
2, 175559, Note_on_c, 0, 69, 0
2, 175559, Note_on_c, 0, 69, 77
2, 175559, Note_on_c, 0, 73, 77
2, 175559, Note_on_c, 0, 76, 77
2, 175680, Note_on_c, 0, 76, 0
2, 175680, Note_on_c, 0, 69, 0
2, 175680, Note_on_c, 0, 81, 0
2, 175680, Note_on_c, 0, 93, 0
2, 175680, Note_on_c, 0, 73, 0
2, 175680, Note_on_c, 0, 81, 71
2, 175680, Note_on_c, 0, 78, 68
2, 175680, Note_on_c, 0, 74, 69
2, 175680, Note_on_c, 0, 69, 16
2, 175800, Note_on_c, 0, 74, 0
2, 175800, Note_on_c, 0, 78, 0
2, 175800, Note_on_c, 0, 76, 77
2, 175800, Note_on_c, 0, 73, 74
2, 175919, Note_on_c, 0, 73, 0
2, 175919, Note_on_c, 0, 76, 0
2, 175919, Note_on_c, 0, 78, 91
2, 175919, Note_on_c, 0, 74, 86
2, 176040, Note_on_c, 0, 74, 0
2, 176040, Note_on_c, 0, 78, 0
2, 176040, Note_on_c, 0, 69, 0
2, 176040, Note_on_c, 0, 76, 85
2, 176040, Note_on_c, 0, 73, 69
2, 176040, Note_on_c, 0, 69, 18
2, 176760, Note_on_c, 0, 69, 0
2, 176760, Note_on_c, 0, 81, 0
2, 176760, Note_on_c, 0, 76, 0
2, 176760, Note_on_c, 0, 73, 0
2, 176760, Note_on_c, 0, 83, 92
2, 176760, Note_on_c, 0, 69, 78
2, 176760, Note_on_c, 0, 73, 78
2, 176880, Note_on_c, 0, 73, 0
2, 176880, Note_on_c, 0, 69, 0
2, 176880, Note_on_c, 0, 74, 87
2, 176999, Note_on_c, 0, 74, 0
2, 176999, Note_on_c, 0, 75, 79
2, 177120, Note_on_c, 0, 75, 0
2, 177120, Note_on_c, 0, 73, 82
2, 177120, Note_on_c, 0, 76, 82
2, 177480, Note_on_c, 0, 76, 0
2, 177480, Note_on_c, 0, 73, 0
2, 177480, Note_on_c, 0, 83, 0
2, 177480, Note_on_c, 0, 83, 92
2, 177480, Note_on_c, 0, 73, 29
2, 177600, Note_on_c, 0, 74, 20
2, 177719, Note_on_c, 0, 74, 0
2, 177719, Note_on_c, 0, 75, 25
2, 177840, Note_on_c, 0, 75, 0
2, 177840, Note_on_c, 0, 83, 0
2, 177840, Note_on_c, 0, 85, 92
2, 177840, Note_on_c, 0, 76, 27
2, 178079, Note_on_c, 0, 76, 0
2, 178079, Note_on_c, 0, 76, 24
2, 178200, Note_on_c, 0, 76, 0
2, 178200, Note_on_c, 0, 85, 0
2, 178200, Note_on_c, 0, 73, 0
2, 178200, Note_on_c, 0, 86, 92
2, 178200, Note_on_c, 0, 78, 25
2, 178200, Note_on_c, 0, 74, 30
2, 178320, Note_on_c, 0, 78, 0
2, 178320, Note_on_c, 0, 76, 21
2, 178439, Note_on_c, 0, 76, 0
2, 178439, Note_on_c, 0, 78, 31
2, 178517, Note_on_c, 0, 86, 0
2, 178560, Note_on_c, 0, 78, 0
2, 178560, Note_on_c, 0, 83, 91
2, 178560, Note_on_c, 0, 76, 20
2, 178799, Note_on_c, 0, 76, 0
2, 178799, Note_on_c, 0, 71, 19
2, 178920, Note_on_c, 0, 71, 0
2, 178920, Note_on_c, 0, 83, 0
2, 178920, Note_on_c, 0, 74, 0
2, 178920, Note_on_c, 0, 85, 92
2, 178920, Note_on_c, 0, 73, 19
2, 179040, Note_on_c, 0, 74, 21
2, 179159, Note_on_c, 0, 74, 0
2, 179159, Note_on_c, 0, 75, 29
2, 179280, Note_on_c, 0, 75, 0
2, 179280, Note_on_c, 0, 76, 28
2, 179519, Note_on_c, 0, 76, 0
2, 179519, Note_on_c, 0, 73, 15
2, 179640, Note_on_c, 0, 73, 0
2, 179640, Note_on_c, 0, 73, 0
2, 179640, Note_on_c, 0, 85, 0
2, 179640, Note_on_c, 0, 86, 92
2, 179640, Note_on_c, 0, 78, 33
2, 179640, Note_on_c, 0, 74, 29
2, 179760, Note_on_c, 0, 74, 0
2, 179760, Note_on_c, 0, 75, 28
2, 179879, Note_on_c, 0, 75, 0
2, 179879, Note_on_c, 0, 76, 29
2, 180000, Note_on_c, 0, 76, 0
2, 180000, Note_on_c, 0, 78, 0
2, 180000, Note_on_c, 0, 78, 27
2, 180239, Note_on_c, 0, 78, 0
2, 180239, Note_on_c, 0, 73, 16
2, 180360, Note_on_c, 0, 73, 0
2, 180360, Note_on_c, 0, 86, 0
2, 180360, Note_on_c, 0, 87, 92
2, 180360, Note_on_c, 0, 79, 34
2, 180360, Note_on_c, 0, 74, 20
2, 180480, Note_on_c, 0, 79, 0
2, 180480, Note_on_c, 0, 76, 21
2, 180599, Note_on_c, 0, 76, 0
2, 180599, Note_on_c, 0, 78, 26
2, 180720, Note_on_c, 0, 78, 0
2, 180720, Note_on_c, 0, 87, 0
2, 180720, Note_on_c, 0, 88, 92
2, 180720, Note_on_c, 0, 79, 29
2, 180959, Note_on_c, 0, 79, 0
2, 180959, Note_on_c, 0, 79, 26
2, 181080, Note_on_c, 0, 79, 0
2, 181080, Note_on_c, 0, 88, 0
2, 181080, Note_on_c, 0, 90, 92
2, 181080, Note_on_c, 0, 81, 30
2, 181200, Note_on_c, 0, 81, 0
2, 181200, Note_on_c, 0, 79, 17
2, 181319, Note_on_c, 0, 79, 0
2, 181319, Note_on_c, 0, 81, 27
2, 181397, Note_on_c, 0, 90, 0
2, 181440, Note_on_c, 0, 81, 0
2, 181440, Note_on_c, 0, 86, 92
2, 181440, Note_on_c, 0, 79, 22
2, 181679, Note_on_c, 0, 79, 0
2, 181679, Note_on_c, 0, 74, 20
2, 181800, Note_on_c, 0, 86, 0
2, 181800, Note_on_c, 0, 74, 0
2, 181800, Note_on_c, 0, 88, 92
2, 181800, Note_on_c, 0, 76, 31
2, 181920, Note_on_c, 0, 76, 0
2, 181920, Note_on_c, 0, 77, 24
2, 182039, Note_on_c, 0, 77, 0
2, 182039, Note_on_c, 0, 78, 26
2, 182160, Note_on_c, 0, 78, 0
2, 182160, Note_on_c, 0, 74, 0
2, 182160, Note_on_c, 0, 79, 31
2, 182399, Note_on_c, 0, 79, 0
2, 182399, Note_on_c, 0, 79, 27
2, 182520, Note_on_c, 0, 79, 0
2, 182520, Note_on_c, 0, 88, 0
2, 182520, Note_on_c, 0, 90, 92
2, 182520, Note_on_c, 0, 81, 31
2, 182520, Note_on_c, 0, 74, 26
2, 182640, Note_on_c, 0, 81, 0
2, 182640, Note_on_c, 0, 79, 19
2, 182759, Note_on_c, 0, 79, 0
2, 182759, Note_on_c, 0, 81, 30
2, 182880, Note_on_c, 0, 83, 91
2, 183000, Note_on_c, 0, 83, 0
2, 183000, Note_on_c, 0, 85, 91
2, 183119, Note_on_c, 0, 85, 0
2, 183119, Note_on_c, 0, 86, 91
2, 183240, Note_on_c, 0, 86, 0
2, 183240, Note_on_c, 0, 90, 0
2, 183240, Note_on_c, 0, 74, 0
2, 183240, Note_on_c, 0, 81, 0
2, 183240, Note_on_c, 0, 91, 92
2, 183240, Note_on_c, 0, 87, 91
2, 183240, Note_on_c, 0, 83, 26
2, 183240, Note_on_c, 0, 75, 28
2, 183360, Note_on_c, 0, 87, 0
2, 183360, Note_on_c, 0, 88, 91
2, 183479, Note_on_c, 0, 88, 0
2, 183479, Note_on_c, 0, 89, 91
2, 183600, Note_on_c, 0, 89, 0
2, 183600, Note_on_c, 0, 91, 0
2, 183600, Note_on_c, 0, 75, 0
2, 183600, Note_on_c, 0, 95, 92
2, 183600, Note_on_c, 0, 90, 91
2, 183600, Note_on_c, 0, 75, 34
2, 183600, Note_on_c, 0, 78, 34
2, 183720, Note_on_c, 0, 90, 0
2, 183720, Note_on_c, 0, 91, 91
2, 183839, Note_on_c, 0, 91, 0
2, 183839, Note_on_c, 0, 93, 91
2, 183960, Note_on_c, 0, 93, 0
2, 183960, Note_on_c, 0, 83, 0
2, 183960, Note_on_c, 0, 95, 0
2, 183960, Note_on_c, 0, 95, 80
2, 184320, Note_on_c, 0, 95, 0
2, 184320, Note_on_c, 0, 78, 0
2, 184320, Note_on_c, 0, 90, 86
2, 184320, Note_on_c, 0, 81, 23
2, 184559, Note_on_c, 0, 83, 79
2, 184680, Note_on_c, 0, 83, 0
2, 184680, Note_on_c, 0, 81, 0
2, 184680, Note_on_c, 0, 90, 0
2, 184680, Note_on_c, 0, 91, 91
2, 184680, Note_on_c, 0, 87, 91
2, 184680, Note_on_c, 0, 79, 23
2, 184800, Note_on_c, 0, 87, 0
2, 184800, Note_on_c, 0, 88, 91
2, 184919, Note_on_c, 0, 88, 0
2, 184919, Note_on_c, 0, 90, 91
2, 184997, Note_on_c, 0, 91, 0
2, 185040, Note_on_c, 0, 75, 0
2, 185040, Note_on_c, 0, 90, 0
2, 185040, Note_on_c, 0, 91, 92
2, 185040, Note_on_c, 0, 76, 27
2, 185279, Note_on_c, 0, 88, 80
2, 185400, Note_on_c, 0, 88, 0
2, 185400, Note_on_c, 0, 91, 0
2, 185400, Note_on_c, 0, 86, 75
2, 185520, Note_on_c, 0, 85, 83
2, 185639, Note_on_c, 0, 85, 0
2, 185639, Note_on_c, 0, 86, 91
2, 185717, Note_on_c, 0, 86, 0
2, 185760, Note_on_c, 0, 79, 0
2, 185760, Note_on_c, 0, 76, 0
2, 185760, Note_on_c, 0, 86, 0
2, 185760, Note_on_c, 0, 88, 78
2, 185760, Note_on_c, 0, 85, 91
2, 185760, Note_on_c, 0, 81, 25
2, 185760, Note_on_c, 0, 76, 25
2, 185999, Note_on_c, 0, 81, 0
2, 185999, Note_on_c, 0, 85, 0
2, 185999, Note_on_c, 0, 81, 89
2, 186120, Note_on_c, 0, 81, 0
2, 186120, Note_on_c, 0, 88, 0
2, 186120, Note_on_c, 0, 90, 74
2, 186120, Note_on_c, 0, 85, 88
2, 186240, Note_on_c, 0, 85, 0
2, 186240, Note_on_c, 0, 86, 87
2, 186359, Note_on_c, 0, 86, 0
2, 186359, Note_on_c, 0, 88, 85
2, 186480, Note_on_c, 0, 88, 0
2, 186480, Note_on_c, 0, 90, 0
2, 186480, Note_on_c, 0, 76, 0
2, 186480, Note_on_c, 0, 90, 70
2, 186480, Note_on_c, 0, 78, 19
2, 186719, Note_on_c, 0, 86, 82
2, 186840, Note_on_c, 0, 86, 0
2, 186840, Note_on_c, 0, 90, 0
2, 186840, Note_on_c, 0, 85, 67
2, 186840, Note_on_c, 0, 73, 16
2, 186960, Note_on_c, 0, 83, 79
2, 187079, Note_on_c, 0, 83, 0
2, 187079, Note_on_c, 0, 85, 78
2, 187200, Note_on_c, 0, 78, 0
2, 187200, Note_on_c, 0, 73, 0
2, 187200, Note_on_c, 0, 85, 0
2, 187200, Note_on_c, 0, 83, 77
2, 187200, Note_on_c, 0, 71, 12
2, 187560, Note_on_c, 0, 83, 0
2, 187560, Note_on_c, 0, 85, 0
2, 187560, Note_on_c, 0, 83, 59
2, 187680, Note_on_c, 0, 81, 72
2, 187799, Note_on_c, 0, 81, 0
2, 187799, Note_on_c, 0, 79, 71
2, 187920, Note_on_c, 0, 79, 0
2, 187920, Note_on_c, 0, 83, 0
2, 187920, Note_on_c, 0, 71, 0
2, 187920, Note_on_c, 0, 86, 56
2, 187920, Note_on_c, 0, 78, 70
2, 187920, Note_on_c, 0, 74, 6
2, 188040, Note_on_c, 0, 74, 0
2, 188040, Note_on_c, 0, 78, 0
2, 188040, Note_on_c, 0, 76, 4
2, 188159, Note_on_c, 0, 76, 0
2, 188159, Note_on_c, 0, 74, 3
2, 188280, Note_on_c, 0, 74, 0
2, 188280, Note_on_c, 0, 86, 0
2, 188280, Note_on_c, 0, 88, 52
2, 188280, Note_on_c, 0, 79, 66
2, 188280, Note_on_c, 0, 73, 2
2, 188400, Note_on_c, 0, 73, 0
2, 188400, Note_on_c, 0, 71, 1
2, 188519, Note_on_c, 0, 71, 0
2, 188519, Note_on_c, 0, 69, 1
2, 188640, Note_on_c, 0, 69, 0
2, 188640, Note_on_c, 0, 79, 0
2, 188640, Note_on_c, 0, 88, 0
2, 189000, Note_on_c, 0, 90, 39
2, 189000, Note_on_c, 0, 78, 36
2, 189360, Note_on_c, 0, 78, 0
2, 189360, Note_on_c, 0, 90, 0
2, 189360, Note_on_c, 0, 85, 35
2, 189360, Note_on_c, 0, 73, 35
2, 189720, Note_on_c, 0, 73, 0
2, 189720, Note_on_c, 0, 85, 0
2, 189720, Note_on_c, 0, 83, 41
2, 189720, Note_on_c, 0, 71, 40
2, 190440, Note_on_c, 0, 71, 0
2, 190440, Note_on_c, 0, 83, 0
2, 190440, Note_on_c, 0, 86, 56
2, 190440, Note_on_c, 0, 74, 56
2, 190800, Note_on_c, 0, 74, 0
2, 190800, Note_on_c, 0, 86, 0
2, 190800, Note_on_c, 0, 81, 36
2, 190800, Note_on_c, 0, 69, 38
2, 191880, Note_on_c, 0, 69, 0
2, 191880, Note_on_c, 0, 81, 0
2, 191880, Note_on_c, 0, 83, 48
2, 191880, Note_on_c, 0, 71, 56
2, 192240, Note_on_c, 0, 71, 0
2, 192240, Note_on_c, 0, 83, 0
2, 192240, Note_on_c, 0, 76, 31
2, 192240, Note_on_c, 0, 64, 38
2, 192600, Note_on_c, 0, 64, 0
2, 192600, Note_on_c, 0, 76, 0
2, 192600, Note_on_c, 0, 81, 57
2, 192600, Note_on_c, 0, 69, 60
2, 192960, Note_on_c, 0, 69, 0
2, 192960, Note_on_c, 0, 81, 0
2, 192960, Note_on_c, 0, 74, 11
2, 193680, Note_on_c, 0, 74, 0
2, 193680, Note_on_c, 0, 78, 25
2, 193680, Note_on_c, 0, 66, 48
2, 194040, Note_on_c, 0, 66, 0
2, 194040, Note_on_c, 0, 78, 0
2, 194040, Note_on_c, 0, 81, 30
2, 194040, Note_on_c, 0, 69, 53
2, 194400, Note_on_c, 0, 69, 0
2, 194400, Note_on_c, 0, 81, 0
2, 194400, Note_on_c, 0, 82, 34
2, 194400, Note_on_c, 0, 70, 57
2, 194760, Note_on_c, 0, 70, 0
2, 194760, Note_on_c, 0, 82, 0
2, 194760, Note_on_c, 0, 86, 38
2, 194760, Note_on_c, 0, 74, 61
2, 195480, Note_on_c, 0, 74, 0
2, 195480, Note_on_c, 0, 86, 0
2, 195480, Note_on_c, 0, 89, 47
2, 195480, Note_on_c, 0, 77, 69
2, 195797, Note_on_c, 0, 77, 0
2, 195797, Note_on_c, 0, 89, 0
2, 195840, Note_on_c, 0, 81, 76
2, 195840, Note_on_c, 0, 93, 76
2, 195840, Note_on_c, 0, 69, 45
2, 196079, Note_on_c, 0, 86, 80
2, 196079, Note_on_c, 0, 74, 9
2, 196079, Note_on_c, 0, 78, 9
2, 196320, Note_on_c, 0, 78, 0
2, 196320, Note_on_c, 0, 86, 0
2, 196320, Note_on_c, 0, 74, 0
2, 196320, Note_on_c, 0, 86, 87
2, 196320, Note_on_c, 0, 74, 14
2, 196320, Note_on_c, 0, 78, 14
2, 196560, Note_on_c, 0, 78, 0
2, 196560, Note_on_c, 0, 69, 0
2, 196560, Note_on_c, 0, 81, 0
2, 196560, Note_on_c, 0, 93, 0
2, 196560, Note_on_c, 0, 74, 0
2, 196560, Note_on_c, 0, 86, 0
2, 196560, Note_on_c, 0, 83, 64
2, 196560, Note_on_c, 0, 95, 64
2, 196560, Note_on_c, 0, 86, 89
2, 196560, Note_on_c, 0, 74, 15
2, 196560, Note_on_c, 0, 78, 15
2, 196560, Note_on_c, 0, 71, 65
2, 196799, Note_on_c, 0, 78, 0
2, 196799, Note_on_c, 0, 74, 0
2, 196799, Note_on_c, 0, 86, 0
2, 196799, Note_on_c, 0, 86, 91
2, 196799, Note_on_c, 0, 74, 13
2, 196799, Note_on_c, 0, 78, 13
2, 197040, Note_on_c, 0, 78, 0
2, 197040, Note_on_c, 0, 86, 0
2, 197040, Note_on_c, 0, 74, 0
2, 197040, Note_on_c, 0, 86, 91
2, 197040, Note_on_c, 0, 74, 14
2, 197040, Note_on_c, 0, 78, 14
2, 197280, Note_on_c, 0, 78, 0
2, 197280, Note_on_c, 0, 86, 0
2, 197280, Note_on_c, 0, 74, 0
2, 197280, Note_on_c, 0, 76, 19
2, 197280, Note_on_c, 0, 79, 19
2, 197640, Note_on_c, 0, 79, 0
2, 197640, Note_on_c, 0, 71, 0
2, 197640, Note_on_c, 0, 83, 0
2, 197640, Note_on_c, 0, 95, 0
2, 197640, Note_on_c, 0, 76, 0
2, 197640, Note_on_c, 0, 81, 69
2, 197640, Note_on_c, 0, 93, 69
2, 197640, Note_on_c, 0, 69, 17
2, 197957, Note_on_c, 0, 69, 0
2, 197957, Note_on_c, 0, 93, 0
2, 197957, Note_on_c, 0, 81, 0
2, 198000, Note_on_c, 0, 79, 57
2, 198000, Note_on_c, 0, 91, 57
2, 198000, Note_on_c, 0, 67, 55
2, 198360, Note_on_c, 0, 91, 0
2, 198360, Note_on_c, 0, 79, 0
2, 198360, Note_on_c, 0, 88, 54
2, 198360, Note_on_c, 0, 64, 8
2, 198360, Note_on_c, 0, 76, 8
2, 198720, Note_on_c, 0, 76, 0
2, 198720, Note_on_c, 0, 67, 0
2, 198720, Note_on_c, 0, 88, 0
2, 198720, Note_on_c, 0, 64, 0
2, 199080, Note_on_c, 0, 90, 51
2, 199080, Note_on_c, 0, 78, 50
2, 199440, Note_on_c, 0, 78, 0
2, 199440, Note_on_c, 0, 90, 0
2, 199440, Note_on_c, 0, 85, 50
2, 199440, Note_on_c, 0, 73, 46
2, 199800, Note_on_c, 0, 73, 0
2, 199800, Note_on_c, 0, 85, 0
2, 199800, Note_on_c, 0, 83, 55
2, 199800, Note_on_c, 0, 71, 54
2, 200520, Note_on_c, 0, 71, 0
2, 200520, Note_on_c, 0, 83, 0
2, 200520, Note_on_c, 0, 86, 70
2, 200520, Note_on_c, 0, 74, 69
2, 200880, Note_on_c, 0, 74, 0
2, 200880, Note_on_c, 0, 86, 0
2, 200880, Note_on_c, 0, 81, 50
2, 200880, Note_on_c, 0, 69, 53
2, 201960, Note_on_c, 0, 69, 0
2, 201960, Note_on_c, 0, 81, 0
2, 201960, Note_on_c, 0, 83, 55
2, 201960, Note_on_c, 0, 71, 55
2, 202320, Note_on_c, 0, 71, 0
2, 202320, Note_on_c, 0, 83, 0
2, 202320, Note_on_c, 0, 76, 47
2, 202320, Note_on_c, 0, 64, 47
2, 202680, Note_on_c, 0, 64, 0
2, 202680, Note_on_c, 0, 76, 0
2, 202680, Note_on_c, 0, 81, 39
2, 202680, Note_on_c, 0, 69, 39
2, 203040, Note_on_c, 0, 69, 0
2, 203040, Note_on_c, 0, 81, 0
2, 203040, Note_on_c, 0, 74, 36
2, 203760, Note_on_c, 0, 74, 0
2, 203760, Note_on_c, 0, 78, 48
2, 203760, Note_on_c, 0, 66, 48
2, 204120, Note_on_c, 0, 66, 0
2, 204120, Note_on_c, 0, 78, 0
2, 204120, Note_on_c, 0, 81, 53
2, 204120, Note_on_c, 0, 69, 53
2, 204480, Note_on_c, 0, 69, 0
2, 204480, Note_on_c, 0, 81, 0
2, 204480, Note_on_c, 0, 82, 57
2, 204480, Note_on_c, 0, 70, 57
2, 204840, Note_on_c, 0, 70, 0
2, 204840, Note_on_c, 0, 82, 0
2, 204840, Note_on_c, 0, 86, 61
2, 204840, Note_on_c, 0, 74, 61
2, 205560, Note_on_c, 0, 74, 0
2, 205560, Note_on_c, 0, 86, 0
2, 205560, Note_on_c, 0, 89, 69
2, 205560, Note_on_c, 0, 77, 69
2, 205877, Note_on_c, 0, 77, 0
2, 205877, Note_on_c, 0, 89, 0
2, 205920, Note_on_c, 0, 81, 73
2, 205920, Note_on_c, 0, 93, 73
2, 205920, Note_on_c, 0, 69, 69
2, 206159, Note_on_c, 0, 86, 79
2, 206159, Note_on_c, 0, 74, 67
2, 206159, Note_on_c, 0, 77, 67
2, 206400, Note_on_c, 0, 77, 0
2, 206400, Note_on_c, 0, 86, 0
2, 206400, Note_on_c, 0, 74, 0
2, 206400, Note_on_c, 0, 86, 86
2, 206400, Note_on_c, 0, 74, 70
2, 206400, Note_on_c, 0, 77, 70
2, 206640, Note_on_c, 0, 77, 0
2, 206640, Note_on_c, 0, 69, 0
2, 206640, Note_on_c, 0, 81, 0
2, 206640, Note_on_c, 0, 93, 0
2, 206640, Note_on_c, 0, 74, 0
2, 206640, Note_on_c, 0, 86, 0
2, 206640, Note_on_c, 0, 83, 70
2, 206640, Note_on_c, 0, 95, 70
2, 206640, Note_on_c, 0, 86, 91
2, 206640, Note_on_c, 0, 74, 71
2, 206640, Note_on_c, 0, 77, 71
2, 206640, Note_on_c, 0, 71, 72
2, 206879, Note_on_c, 0, 77, 0
2, 206879, Note_on_c, 0, 74, 0
2, 206879, Note_on_c, 0, 86, 0
2, 206879, Note_on_c, 0, 86, 90
2, 206879, Note_on_c, 0, 74, 72
2, 206879, Note_on_c, 0, 77, 72
2, 207120, Note_on_c, 0, 77, 0
2, 207120, Note_on_c, 0, 86, 0
2, 207120, Note_on_c, 0, 74, 0
2, 207120, Note_on_c, 0, 86, 91
2, 207120, Note_on_c, 0, 74, 71
2, 207120, Note_on_c, 0, 77, 71
2, 207360, Note_on_c, 0, 77, 0
2, 207360, Note_on_c, 0, 86, 0
2, 207360, Note_on_c, 0, 74, 0
2, 207360, Note_on_c, 0, 74, 79
2, 207360, Note_on_c, 0, 78, 79
2, 207720, Note_on_c, 0, 78, 0
2, 207720, Note_on_c, 0, 71, 0
2, 207720, Note_on_c, 0, 83, 0
2, 207720, Note_on_c, 0, 95, 0
2, 207720, Note_on_c, 0, 74, 0
2, 207720, Note_on_c, 0, 81, 67
2, 207720, Note_on_c, 0, 93, 67
2, 207720, Note_on_c, 0, 69, 63
2, 208037, Note_on_c, 0, 69, 0
2, 208037, Note_on_c, 0, 93, 0
2, 208037, Note_on_c, 0, 81, 0
2, 208080, Note_on_c, 0, 78, 53
2, 208080, Note_on_c, 0, 90, 53
2, 208080, Note_on_c, 0, 66, 59
2, 208440, Note_on_c, 0, 66, 0
2, 208440, Note_on_c, 0, 90, 0
2, 208440, Note_on_c, 0, 78, 0
2, 208440, Note_on_c, 0, 86, 51
2, 208440, Note_on_c, 0, 62, 91
2, 208440, Note_on_c, 0, 74, 91
2, 208800, Note_on_c, 0, 74, 0
2, 208800, Note_on_c, 0, 62, 0
2, 208800, Note_on_c, 0, 86, 0
2, 209160, Note_on_c, 0, 81, 52
2, 209160, Note_on_c, 0, 69, 66
2, 209520, Note_on_c, 0, 69, 0
2, 209520, Note_on_c, 0, 81, 0
2, 209520, Note_on_c, 0, 85, 74
2, 209520, Note_on_c, 0, 73, 83
2, 209880, Note_on_c, 0, 73, 0
2, 209880, Note_on_c, 0, 85, 0
2, 209880, Note_on_c, 0, 88, 75
2, 209880, Note_on_c, 0, 76, 83
2, 210240, Note_on_c, 0, 76, 0
2, 210240, Note_on_c, 0, 88, 0
2, 210240, Note_on_c, 0, 91, 77
2, 210240, Note_on_c, 0, 79, 87
2, 210600, Note_on_c, 0, 79, 0
2, 210600, Note_on_c, 0, 91, 0
2, 210600, Note_on_c, 0, 90, 64
2, 210600, Note_on_c, 0, 78, 70
2, 211320, Note_on_c, 0, 78, 0
2, 211320, Note_on_c, 0, 90, 0
2, 211320, Note_on_c, 0, 86, 56
2, 211320, Note_on_c, 0, 74, 63
2, 212040, Note_on_c, 0, 74, 0
2, 212040, Note_on_c, 0, 86, 0
2, 212040, Note_on_c, 0, 88, 66
2, 212040, Note_on_c, 0, 76, 81
2, 212400, Note_on_c, 0, 76, 0
2, 212400, Note_on_c, 0, 88, 0
2, 212400, Note_on_c, 0, 85, 58
2, 212400, Note_on_c, 0, 73, 68
2, 213480, Note_on_c, 0, 73, 0
2, 213480, Note_on_c, 0, 85, 0
2, 213480, Note_on_c, 0, 86, 68
2, 213480, Note_on_c, 0, 74, 84
2, 213840, Note_on_c, 0, 74, 0
2, 213840, Note_on_c, 0, 86, 0
2, 213840, Note_on_c, 0, 83, 55
2, 213840, Note_on_c, 0, 71, 68
2, 214200, Note_on_c, 0, 71, 0
2, 214200, Note_on_c, 0, 83, 0
2, 214200, Note_on_c, 0, 86, 71
2, 214200, Note_on_c, 0, 74, 78
2, 214560, Note_on_c, 0, 74, 0
2, 214560, Note_on_c, 0, 86, 0
2, 214560, Note_on_c, 0, 83, 59
2, 214560, Note_on_c, 0, 71, 66
2, 214920, Note_on_c, 0, 71, 0
2, 214920, Note_on_c, 0, 83, 0
2, 214920, Note_on_c, 0, 85, 67
2, 214920, Note_on_c, 0, 73, 79
2, 215280, Note_on_c, 0, 73, 0
2, 215280, Note_on_c, 0, 85, 0
2, 215280, Note_on_c, 0, 81, 50
2, 215280, Note_on_c, 0, 69, 59
2, 216360, Note_on_c, 0, 69, 0
2, 216360, Note_on_c, 0, 81, 0
2, 216360, Note_on_c, 0, 84, 83
2, 216360, Note_on_c, 0, 72, 92
2, 216677, Note_on_c, 0, 72, 0
2, 216677, Note_on_c, 0, 84, 0
2, 216720, Note_on_c, 0, 81, 60
2, 216720, Note_on_c, 0, 69, 68
2, 217800, Note_on_c, 0, 69, 0
2, 217800, Note_on_c, 0, 81, 0
2, 217800, Note_on_c, 0, 83, 63
2, 217800, Note_on_c, 0, 71, 64
2, 218117, Note_on_c, 0, 71, 0
2, 218117, Note_on_c, 0, 83, 0
2, 218160, Note_on_c, 0, 81, 45
2, 218160, Note_on_c, 0, 69, 41
2, 219240, Note_on_c, 0, 69, 0
2, 219240, Note_on_c, 0, 81, 0
2, 219240, Note_on_c, 0, 81, 48
2, 219240, Note_on_c, 0, 69, 48
2, 219600, Note_on_c, 0, 69, 0
2, 219600, Note_on_c, 0, 81, 0
2, 219600, Note_on_c, 0, 85, 57
2, 219600, Note_on_c, 0, 73, 57
2, 219960, Note_on_c, 0, 73, 0
2, 219960, Note_on_c, 0, 85, 0
2, 219960, Note_on_c, 0, 88, 65
2, 219960, Note_on_c, 0, 76, 65
2, 220320, Note_on_c, 0, 76, 0
2, 220320, Note_on_c, 0, 88, 0
2, 220320, Note_on_c, 0, 90, 65
2, 220320, Note_on_c, 0, 78, 73
2, 220680, Note_on_c, 0, 78, 0
2, 220680, Note_on_c, 0, 90, 0
2, 220680, Note_on_c, 0, 91, 63
2, 220680, Note_on_c, 0, 79, 67
2, 221400, Note_on_c, 0, 79, 0
2, 221400, Note_on_c, 0, 91, 0
2, 221400, Note_on_c, 0, 86, 50
2, 221400, Note_on_c, 0, 74, 52
2, 221760, Note_on_c, 0, 74, 0
2, 221760, Note_on_c, 0, 86, 0
2, 221760, Note_on_c, 0, 88, 65
2, 221760, Note_on_c, 0, 76, 72
2, 222120, Note_on_c, 0, 76, 0
2, 222120, Note_on_c, 0, 88, 0
2, 222120, Note_on_c, 0, 90, 65
2, 222120, Note_on_c, 0, 78, 71
2, 222840, Note_on_c, 0, 78, 0
2, 222840, Note_on_c, 0, 90, 0
2, 222840, Note_on_c, 0, 85, 47
2, 222840, Note_on_c, 0, 73, 53
2, 223200, Note_on_c, 0, 73, 0
2, 223200, Note_on_c, 0, 85, 0
2, 223200, Note_on_c, 0, 86, 64
2, 223200, Note_on_c, 0, 74, 65
2, 223560, Note_on_c, 0, 74, 0
2, 223560, Note_on_c, 0, 86, 0
2, 223560, Note_on_c, 0, 88, 68
2, 223560, Note_on_c, 0, 76, 69
2, 223920, Note_on_c, 0, 76, 0
2, 223920, Note_on_c, 0, 88, 0
2, 223920, Note_on_c, 0, 83, 50
2, 223920, Note_on_c, 0, 71, 52
2, 224280, Note_on_c, 0, 71, 0
2, 224280, Note_on_c, 0, 83, 0
2, 224280, Note_on_c, 0, 86, 70
2, 224280, Note_on_c, 0, 74, 67
2, 224640, Note_on_c, 0, 74, 0
2, 224640, Note_on_c, 0, 86, 0
2, 224640, Note_on_c, 0, 83, 62
2, 224640, Note_on_c, 0, 71, 62
2, 225000, Note_on_c, 0, 71, 0
2, 225000, Note_on_c, 0, 83, 0
2, 225000, Note_on_c, 0, 85, 59
2, 225000, Note_on_c, 0, 73, 59
2, 225360, Note_on_c, 0, 73, 0
2, 225360, Note_on_c, 0, 85, 0
2, 225360, Note_on_c, 0, 81, 55
2, 225360, Note_on_c, 0, 69, 55
2, 226440, Note_on_c, 0, 69, 0
2, 226440, Note_on_c, 0, 81, 0
2, 226440, Note_on_c, 0, 84, 45
2, 226440, Note_on_c, 0, 72, 45
2, 226757, Note_on_c, 0, 72, 0
2, 226757, Note_on_c, 0, 84, 0
2, 226800, Note_on_c, 0, 81, 42
2, 226800, Note_on_c, 0, 69, 42
2, 227880, Note_on_c, 0, 69, 0
2, 227880, Note_on_c, 0, 81, 0
2, 227880, Note_on_c, 0, 83, 43
2, 227880, Note_on_c, 0, 71, 43
2, 228197, Note_on_c, 0, 71, 0
2, 228197, Note_on_c, 0, 83, 0
2, 228240, Note_on_c, 0, 81, 18
2, 228240, Note_on_c, 0, 69, 23
2, 229320, Note_on_c, 0, 69, 0
2, 229320, Note_on_c, 0, 81, 0
2, 229320, Note_on_c, 0, 69, 29
2, 229320, Note_on_c, 0, 57, 35
2, 229680, Note_on_c, 0, 57, 0
2, 229680, Note_on_c, 0, 69, 0
2, 229680, Note_on_c, 0, 73, 56
2, 229680, Note_on_c, 0, 61, 56
2, 230040, Note_on_c, 0, 61, 0
2, 230040, Note_on_c, 0, 73, 0
2, 230040, Note_on_c, 0, 76, 58
2, 230040, Note_on_c, 0, 64, 58
2, 230400, Note_on_c, 0, 64, 0
2, 230400, Note_on_c, 0, 76, 0
2, 230400, Note_on_c, 0, 73, 48
2, 230400, Note_on_c, 0, 81, 48
2, 230400, Note_on_c, 0, 69, 48
2, 231480, Note_on_c, 0, 69, 0
2, 231480, Note_on_c, 0, 81, 0
2, 231480, Note_on_c, 0, 73, 0
2, 231480, Note_on_c, 0, 83, 67
2, 231480, Note_on_c, 0, 71, 67
2, 231840, Note_on_c, 0, 71, 0
2, 231840, Note_on_c, 0, 83, 0
2, 231840, Note_on_c, 0, 85, 74
2, 231840, Note_on_c, 0, 79, 91
2, 231840, Note_on_c, 0, 81, 91
2, 231840, Note_on_c, 0, 73, 74
2, 232200, Note_on_c, 0, 73, 0
2, 232200, Note_on_c, 0, 85, 0
2, 232200, Note_on_c, 0, 86, 75
2, 232200, Note_on_c, 0, 74, 82
2, 232920, Note_on_c, 0, 74, 0
2, 232920, Note_on_c, 0, 86, 0
2, 232920, Note_on_c, 0, 85, 69
2, 232920, Note_on_c, 0, 73, 69
2, 233280, Note_on_c, 0, 73, 0
2, 233280, Note_on_c, 0, 85, 0
2, 233280, Note_on_c, 0, 79, 0
2, 233280, Note_on_c, 0, 85, 78
2, 233280, Note_on_c, 0, 78, 91
2, 233280, Note_on_c, 0, 73, 75
2, 233640, Note_on_c, 0, 73, 0
2, 233640, Note_on_c, 0, 85, 0
2, 233640, Note_on_c, 0, 83, 64
2, 233640, Note_on_c, 0, 71, 66
2, 234360, Note_on_c, 0, 71, 0
2, 234360, Note_on_c, 0, 83, 0
2, 234360, Note_on_c, 0, 81, 63
2, 234360, Note_on_c, 0, 69, 64
2, 234720, Note_on_c, 0, 69, 0
2, 234720, Note_on_c, 0, 81, 0
2, 234720, Note_on_c, 0, 78, 0
2, 234720, Note_on_c, 0, 81, 0
2, 234720, Note_on_c, 0, 81, 72
2, 234720, Note_on_c, 0, 73, 74
2, 234720, Note_on_c, 0, 76, 74
2, 234720, Note_on_c, 0, 69, 73
2, 235080, Note_on_c, 0, 69, 0
2, 235080, Note_on_c, 0, 81, 0
2, 235080, Note_on_c, 0, 78, 67
2, 235080, Note_on_c, 0, 57, 56
2, 235440, Note_on_c, 0, 57, 0
2, 235440, Note_on_c, 0, 61, 82
2, 235800, Note_on_c, 0, 61, 0
2, 235800, Note_on_c, 0, 78, 0
2, 235800, Note_on_c, 0, 76, 62
2, 235800, Note_on_c, 0, 64, 86
2, 236160, Note_on_c, 0, 64, 0
2, 236160, Note_on_c, 0, 73, 0
2, 236160, Note_on_c, 0, 76, 0
2, 236160, Note_on_c, 0, 76, 0
2, 236160, Note_on_c, 0, 73, 64
2, 236160, Note_on_c, 0, 69, 89
2, 236520, Note_on_c, 0, 73, 0
2, 236520, Note_on_c, 0, 74, 76
2, 236880, Note_on_c, 0, 74, 0
2, 236880, Note_on_c, 0, 73, 69
2, 237240, Note_on_c, 0, 73, 0
2, 237240, Note_on_c, 0, 69, 0
2, 237240, Note_on_c, 0, 71, 69
2, 237600, Note_on_c, 0, 71, 0
2, 237600, Note_on_c, 0, 69, 61
2, 237600, Note_on_c, 0, 73, 62
2, 237960, Note_on_c, 0, 73, 0
2, 237960, Note_on_c, 0, 74, 79
2, 238680, Note_on_c, 0, 74, 0
2, 238680, Note_on_c, 0, 73, 68
2, 239040, Note_on_c, 0, 73, 0
2, 239040, Note_on_c, 0, 73, 79
2, 239400, Note_on_c, 0, 73, 0
2, 239400, Note_on_c, 0, 69, 0
2, 239400, Note_on_c, 0, 71, 79
2, 240120, Note_on_c, 0, 71, 0
2, 240120, Note_on_c, 0, 73, 79
2, 240120, Note_on_c, 0, 69, 63
2, 240480, Note_on_c, 0, 69, 0
2, 240480, Note_on_c, 0, 73, 0
2, 240480, Note_on_c, 0, 74, 72
2, 240480, Note_on_c, 0, 69, 70
2, 240840, Note_on_c, 0, 69, 0
2, 240840, Note_on_c, 0, 74, 0
2, 240840, Note_on_c, 0, 74, 71
2, 240840, Note_on_c, 0, 66, 64
2, 241200, Note_on_c, 0, 74, 0
2, 241200, Note_on_c, 0, 78, 87
2, 241560, Note_on_c, 0, 78, 0
2, 241560, Note_on_c, 0, 66, 0
2, 241560, Note_on_c, 0, 81, 83
2, 241560, Note_on_c, 0, 64, 68
2, 241920, Note_on_c, 0, 64, 0
2, 241920, Note_on_c, 0, 81, 0
2, 241920, Note_on_c, 0, 78, 91
2, 241920, Note_on_c, 0, 86, 91
2, 241920, Note_on_c, 0, 74, 91
2, 243000, Note_on_c, 0, 74, 0
2, 243000, Note_on_c, 0, 86, 0
2, 243000, Note_on_c, 0, 78, 0
2, 243000, Note_on_c, 0, 88, 80
2, 243000, Note_on_c, 0, 76, 84
2, 243360, Note_on_c, 0, 76, 0
2, 243360, Note_on_c, 0, 88, 0
2, 243360, Note_on_c, 0, 90, 83
2, 243360, Note_on_c, 0, 84, 91
2, 243360, Note_on_c, 0, 86, 91
2, 243360, Note_on_c, 0, 78, 84
2, 243360, Note_on_c, 0, 72, 91
2, 243360, Note_on_c, 0, 74, 91
2, 243720, Note_on_c, 0, 78, 0
2, 243720, Note_on_c, 0, 90, 0
2, 243720, Note_on_c, 0, 91, 81
2, 243720, Note_on_c, 0, 79, 81
2, 244440, Note_on_c, 0, 79, 0
2, 244440, Note_on_c, 0, 91, 0
2, 244440, Note_on_c, 0, 90, 69
2, 244440, Note_on_c, 0, 78, 70
2, 244800, Note_on_c, 0, 78, 0
2, 244800, Note_on_c, 0, 84, 0
2, 244800, Note_on_c, 0, 72, 0
2, 244800, Note_on_c, 0, 90, 0
2, 244800, Note_on_c, 0, 90, 73
2, 244800, Note_on_c, 0, 83, 91
2, 244800, Note_on_c, 0, 78, 74
2, 244800, Note_on_c, 0, 71, 91
2, 245160, Note_on_c, 0, 78, 0
2, 245160, Note_on_c, 0, 90, 0
2, 245160, Note_on_c, 0, 88, 68
2, 245160, Note_on_c, 0, 76, 67
2, 245880, Note_on_c, 0, 76, 0
2, 245880, Note_on_c, 0, 88, 0
2, 245880, Note_on_c, 0, 86, 70
2, 245880, Note_on_c, 0, 74, 67
2, 246240, Note_on_c, 0, 74, 0
2, 246240, Note_on_c, 0, 71, 0
2, 246240, Note_on_c, 0, 83, 0
2, 246240, Note_on_c, 0, 74, 0
2, 246240, Note_on_c, 0, 86, 0
2, 246240, Note_on_c, 0, 86, 0
2, 246240, Note_on_c, 0, 86, 79
2, 246240, Note_on_c, 0, 78, 74
2, 246240, Note_on_c, 0, 81, 74
2, 246240, Note_on_c, 0, 74, 60
2, 246600, Note_on_c, 0, 74, 0
2, 246600, Note_on_c, 0, 86, 0
2, 246600, Note_on_c, 0, 83, 64
2, 246600, Note_on_c, 0, 62, 35
2, 246960, Note_on_c, 0, 62, 0
2, 246960, Note_on_c, 0, 66, 67
2, 247320, Note_on_c, 0, 66, 0
2, 247320, Note_on_c, 0, 83, 0
2, 247320, Note_on_c, 0, 81, 65
2, 247320, Note_on_c, 0, 69, 71
2, 247680, Note_on_c, 0, 69, 0
2, 247680, Note_on_c, 0, 78, 0
2, 247680, Note_on_c, 0, 81, 0
2, 247680, Note_on_c, 0, 81, 0
2, 247680, Note_on_c, 0, 78, 63
2, 247680, Note_on_c, 0, 74, 76
2, 248040, Note_on_c, 0, 78, 0
2, 248040, Note_on_c, 0, 79, 77
2, 248400, Note_on_c, 0, 79, 0
2, 248400, Note_on_c, 0, 78, 64
2, 248760, Note_on_c, 0, 78, 0
2, 248760, Note_on_c, 0, 74, 0
2, 248760, Note_on_c, 0, 76, 74
2, 249120, Note_on_c, 0, 76, 0
2, 249120, Note_on_c, 0, 74, 60
2, 249120, Note_on_c, 0, 78, 54
2, 249480, Note_on_c, 0, 78, 0
2, 249480, Note_on_c, 0, 79, 60
2, 250200, Note_on_c, 0, 79, 0
2, 250200, Note_on_c, 0, 78, 56
2, 250560, Note_on_c, 0, 78, 0
2, 250560, Note_on_c, 0, 78, 62
2, 250920, Note_on_c, 0, 78, 0
2, 250920, Note_on_c, 0, 74, 0
2, 250920, Note_on_c, 0, 76, 76
2, 251640, Note_on_c, 0, 76, 0
2, 251640, Note_on_c, 0, 74, 68
2, 252000, Note_on_c, 0, 67, 79
2, 252000, Note_on_c, 0, 71, 79
2, 252360, Note_on_c, 0, 74, 0
2, 252360, Note_on_c, 0, 71, 57
2, 252720, Note_on_c, 0, 71, 0
2, 252720, Note_on_c, 0, 74, 76
2, 252720, Note_on_c, 0, 62, 40
2, 253080, Note_on_c, 0, 62, 0
2, 253080, Note_on_c, 0, 74, 0
2, 253080, Note_on_c, 0, 79, 91
2, 253080, Note_on_c, 0, 67, 61
2, 253440, Note_on_c, 0, 67, 0
2, 253440, Note_on_c, 0, 67, 0
2, 253440, Note_on_c, 0, 71, 0
2, 253440, Note_on_c, 0, 79, 0
2, 253440, Note_on_c, 0, 83, 89
2, 253440, Note_on_c, 0, 71, 60
2, 254520, Note_on_c, 0, 71, 0
2, 254520, Note_on_c, 0, 83, 0
2, 254520, Note_on_c, 0, 85, 82
2, 254520, Note_on_c, 0, 73, 55
2, 254880, Note_on_c, 0, 73, 0
2, 254880, Note_on_c, 0, 85, 0
2, 254880, Note_on_c, 0, 74, 81
2, 254880, Note_on_c, 0, 86, 81
2, 255119, Note_on_c, 0, 67, 21
2, 255119, Note_on_c, 0, 71, 21
2, 255119, Note_on_c, 0, 79, 21
2, 255240, Note_on_c, 0, 86, 0
2, 255240, Note_on_c, 0, 74, 0
2, 255240, Note_on_c, 0, 76, 85
2, 255240, Note_on_c, 0, 88, 85
2, 255360, Note_on_c, 0, 71, 0
2, 255360, Note_on_c, 0, 79, 0
2, 255360, Note_on_c, 0, 67, 0
2, 255360, Note_on_c, 0, 67, 25
2, 255360, Note_on_c, 0, 71, 25
2, 255360, Note_on_c, 0, 79, 25
2, 255600, Note_on_c, 0, 79, 0
2, 255600, Note_on_c, 0, 67, 0
2, 255600, Note_on_c, 0, 71, 0
2, 255600, Note_on_c, 0, 67, 25
2, 255600, Note_on_c, 0, 71, 25
2, 255600, Note_on_c, 0, 79, 25
2, 255839, Note_on_c, 0, 79, 0
2, 255839, Note_on_c, 0, 67, 0
2, 255839, Note_on_c, 0, 71, 0
2, 255839, Note_on_c, 0, 67, 26
2, 255839, Note_on_c, 0, 71, 26
2, 255839, Note_on_c, 0, 79, 26
2, 255960, Note_on_c, 0, 76, 0
2, 255960, Note_on_c, 0, 88, 0
2, 255960, Note_on_c, 0, 74, 79
2, 255960, Note_on_c, 0, 86, 79
2, 256080, Note_on_c, 0, 71, 0
2, 256080, Note_on_c, 0, 79, 0
2, 256080, Note_on_c, 0, 67, 0
2, 256080, Note_on_c, 0, 67, 25
2, 256080, Note_on_c, 0, 71, 25
2, 256080, Note_on_c, 0, 79, 25
2, 256320, Note_on_c, 0, 79, 0
2, 256320, Note_on_c, 0, 67, 0
2, 256320, Note_on_c, 0, 71, 0
2, 256320, Note_on_c, 0, 70, 24
2, 256320, Note_on_c, 0, 79, 24
2, 256320, Note_on_c, 0, 67, 72
2, 256680, Note_on_c, 0, 79, 0
2, 256680, Note_on_c, 0, 70, 0
2, 256680, Note_on_c, 0, 86, 0
2, 256680, Note_on_c, 0, 74, 0
2, 256680, Note_on_c, 0, 70, 29
2, 257040, Note_on_c, 0, 70, 0
2, 257040, Note_on_c, 0, 67, 0
2, 257040, Note_on_c, 0, 74, 65
2, 257040, Note_on_c, 0, 62, 28
2, 257400, Note_on_c, 0, 62, 0
2, 257400, Note_on_c, 0, 74, 0
2, 257400, Note_on_c, 0, 79, 88
2, 257400, Note_on_c, 0, 67, 54
2, 257760, Note_on_c, 0, 67, 0
2, 257760, Note_on_c, 0, 79, 0
2, 257760, Note_on_c, 0, 82, 81
2, 257760, Note_on_c, 0, 70, 51
2, 258840, Note_on_c, 0, 70, 0
2, 258840, Note_on_c, 0, 82, 0
2, 258840, Note_on_c, 0, 84, 83
2, 258840, Note_on_c, 0, 72, 54
2, 259200, Note_on_c, 0, 72, 0
2, 259200, Note_on_c, 0, 84, 0
2, 259200, Note_on_c, 0, 74, 80
2, 259200, Note_on_c, 0, 86, 80
2, 259439, Note_on_c, 0, 67, 14
2, 259439, Note_on_c, 0, 70, 14
2, 259439, Note_on_c, 0, 79, 14
2, 259560, Note_on_c, 0, 86, 0
2, 259560, Note_on_c, 0, 74, 0
2, 259560, Note_on_c, 0, 75, 79
2, 259560, Note_on_c, 0, 87, 79
2, 259680, Note_on_c, 0, 70, 0
2, 259680, Note_on_c, 0, 79, 0
2, 259680, Note_on_c, 0, 67, 0
2, 259680, Note_on_c, 0, 67, 26
2, 259680, Note_on_c, 0, 70, 26
2, 259680, Note_on_c, 0, 79, 26
2, 259920, Note_on_c, 0, 79, 0
2, 259920, Note_on_c, 0, 67, 0
2, 259920, Note_on_c, 0, 70, 0
2, 259920, Note_on_c, 0, 67, 23
2, 259920, Note_on_c, 0, 70, 23
2, 259920, Note_on_c, 0, 79, 23
2, 260159, Note_on_c, 0, 79, 0
2, 260159, Note_on_c, 0, 67, 0
2, 260159, Note_on_c, 0, 70, 0
2, 260159, Note_on_c, 0, 67, 25
2, 260159, Note_on_c, 0, 70, 25
2, 260159, Note_on_c, 0, 79, 25
2, 260280, Note_on_c, 0, 75, 0
2, 260280, Note_on_c, 0, 87, 0
2, 260280, Note_on_c, 0, 74, 82
2, 260280, Note_on_c, 0, 86, 82
2, 260400, Note_on_c, 0, 70, 0
2, 260400, Note_on_c, 0, 79, 0
2, 260400, Note_on_c, 0, 67, 0
2, 260400, Note_on_c, 0, 67, 25
2, 260400, Note_on_c, 0, 70, 25
2, 260400, Note_on_c, 0, 79, 25
2, 260597, Note_on_c, 0, 74, 0
2, 260597, Note_on_c, 0, 86, 0
2, 260640, Note_on_c, 0, 70, 0
2, 260640, Note_on_c, 0, 67, 0
2, 260640, Note_on_c, 0, 79, 0
2, 260640, Note_on_c, 0, 70, 91
2, 261000, Note_on_c, 0, 70, 40
2, 261360, Note_on_c, 0, 70, 0
2, 261360, Note_on_c, 0, 74, 60
2, 261360, Note_on_c, 0, 62, 31
2, 261720, Note_on_c, 0, 62, 0
2, 261720, Note_on_c, 0, 74, 0
2, 261720, Note_on_c, 0, 79, 84
2, 261720, Note_on_c, 0, 67, 52
2, 262080, Note_on_c, 0, 67, 0
2, 262080, Note_on_c, 0, 79, 0
2, 262080, Note_on_c, 0, 70, 0
2, 262080, Note_on_c, 0, 82, 83
2, 262080, Note_on_c, 0, 70, 56
2, 263520, Note_on_c, 0, 69, 92
2, 263880, Note_on_c, 0, 70, 0
2, 263880, Note_on_c, 0, 82, 0
2, 263880, Note_on_c, 0, 70, 25
2, 264240, Note_on_c, 0, 70, 0
2, 264240, Note_on_c, 0, 74, 52
2, 264240, Note_on_c, 0, 62, 34
2, 264600, Note_on_c, 0, 62, 0
2, 264600, Note_on_c, 0, 74, 0
2, 264600, Note_on_c, 0, 81, 69
2, 264600, Note_on_c, 0, 69, 61
2, 264787, Note_on_c, 0, 69, 0
2, 264960, Note_on_c, 0, 69, 0
2, 264960, Note_on_c, 0, 81, 0
2, 264960, Note_on_c, 0, 82, 51
2, 264960, Note_on_c, 0, 68, 69
2, 264960, Note_on_c, 0, 70, 69
2, 266227, Note_on_c, 0, 68, 0
2, 266400, Note_on_c, 0, 67, 76
2, 266760, Note_on_c, 0, 70, 0
2, 266760, Note_on_c, 0, 82, 0
2, 266760, Note_on_c, 0, 70, 48
2, 267120, Note_on_c, 0, 70, 0
2, 267120, Note_on_c, 0, 75, 52
2, 267120, Note_on_c, 0, 70, 92
2, 267120, Note_on_c, 0, 63, 48
2, 267480, Note_on_c, 0, 63, 0
2, 267480, Note_on_c, 0, 67, 0
2, 267480, Note_on_c, 0, 75, 0
2, 267480, Note_on_c, 0, 79, 56
2, 267480, Note_on_c, 0, 67, 53
2, 267840, Note_on_c, 0, 67, 0
2, 267840, Note_on_c, 0, 79, 0
2, 267840, Note_on_c, 0, 70, 0
2, 267840, Note_on_c, 0, 82, 59
2, 267840, Note_on_c, 0, 78, 92
2, 267840, Note_on_c, 0, 70, 57
2, 267840, Note_on_c, 0, 66, 92
2, 268200, Note_on_c, 0, 70, 0
2, 268200, Note_on_c, 0, 82, 0
2, 268200, Note_on_c, 0, 87, 63
2, 268200, Note_on_c, 0, 75, 61
2, 268560, Note_on_c, 0, 78, 0
2, 268560, Note_on_c, 0, 78, 92
2, 268560, Note_on_c, 0, 82, 92
2, 268920, Note_on_c, 0, 75, 0
2, 268920, Note_on_c, 0, 87, 0
2, 268920, Note_on_c, 0, 90, 70
2, 268920, Note_on_c, 0, 78, 69
2, 269280, Note_on_c, 0, 78, 0
2, 269280, Note_on_c, 0, 66, 0
2, 269280, Note_on_c, 0, 82, 0
2, 269280, Note_on_c, 0, 78, 0
2, 269280, Note_on_c, 0, 90, 0
2, 269280, Note_on_c, 0, 82, 91
2, 269280, Note_on_c, 0, 94, 91
2, 269280, Note_on_c, 0, 87, 34
2, 269280, Note_on_c, 0, 75, 81
2, 269280, Note_on_c, 0, 79, 81
2, 269280, Note_on_c, 0, 70, 91
2, 269519, Note_on_c, 0, 79, 0
2, 269519, Note_on_c, 0, 75, 0
2, 269519, Note_on_c, 0, 87, 0
2, 269519, Note_on_c, 0, 87, 29
2, 269519, Note_on_c, 0, 75, 73
2, 269519, Note_on_c, 0, 79, 73
2, 269760, Note_on_c, 0, 79, 0
2, 269760, Note_on_c, 0, 87, 0
2, 269760, Note_on_c, 0, 75, 0
2, 269760, Note_on_c, 0, 87, 23
2, 269760, Note_on_c, 0, 75, 73
2, 269760, Note_on_c, 0, 79, 73
2, 270000, Note_on_c, 0, 79, 0
2, 270000, Note_on_c, 0, 82, 0
2, 270000, Note_on_c, 0, 94, 0
2, 270000, Note_on_c, 0, 70, 0
2, 270000, Note_on_c, 0, 75, 0
2, 270000, Note_on_c, 0, 87, 0
2, 270000, Note_on_c, 0, 84, 87
2, 270000, Note_on_c, 0, 96, 87
2, 270000, Note_on_c, 0, 87, 26
2, 270000, Note_on_c, 0, 75, 74
2, 270000, Note_on_c, 0, 79, 74
2, 270000, Note_on_c, 0, 72, 91
2, 270239, Note_on_c, 0, 79, 0
2, 270239, Note_on_c, 0, 75, 0
2, 270239, Note_on_c, 0, 87, 0
2, 270239, Note_on_c, 0, 87, 24
2, 270239, Note_on_c, 0, 75, 72
2, 270239, Note_on_c, 0, 79, 72
2, 270480, Note_on_c, 0, 79, 0
2, 270480, Note_on_c, 0, 87, 0
2, 270480, Note_on_c, 0, 75, 0
2, 270480, Note_on_c, 0, 87, 21
2, 270480, Note_on_c, 0, 75, 75
2, 270480, Note_on_c, 0, 79, 75
2, 270720, Note_on_c, 0, 79, 0
2, 270720, Note_on_c, 0, 87, 0
2, 270720, Note_on_c, 0, 75, 0
2, 271080, Note_on_c, 0, 72, 0
2, 271080, Note_on_c, 0, 96, 0
2, 271080, Note_on_c, 0, 84, 0
2, 271080, Note_on_c, 0, 82, 85
2, 271080, Note_on_c, 0, 86, 85
2, 271080, Note_on_c, 0, 94, 85
2, 271080, Note_on_c, 0, 70, 91
2, 271080, Note_on_c, 0, 74, 91
2, 271397, Note_on_c, 0, 94, 0
2, 271397, Note_on_c, 0, 82, 0
2, 271397, Note_on_c, 0, 86, 0
2, 271440, Note_on_c, 0, 70, 0
2, 271440, Note_on_c, 0, 74, 0
2, 271440, Note_on_c, 0, 81, 73
2, 271440, Note_on_c, 0, 85, 73
2, 271440, Note_on_c, 0, 93, 73
2, 271440, Note_on_c, 0, 69, 91
2, 271440, Note_on_c, 0, 73, 91
2, 271440, Note_on_c, 0, 79, 91
2, 272160, Note_on_c, 0, 79, 0
2, 272160, Note_on_c, 0, 85, 0
2, 272160, Note_on_c, 0, 93, 0
2, 272160, Note_on_c, 0, 81, 0
2, 272160, Note_on_c, 0, 73, 0
2, 272160, Note_on_c, 0, 69, 0
2, 272160, Note_on_c, 0, 81, 23
2, 272160, Note_on_c, 0, 86, 23
2, 272160, Note_on_c, 0, 74, 75
2, 272160, Note_on_c, 0, 78, 75
2, 272160, Note_on_c, 0, 69, 66
2, 272520, Note_on_c, 0, 78, 0
2, 272520, Note_on_c, 0, 74, 0
2, 272520, Note_on_c, 0, 81, 0
2, 272520, Note_on_c, 0, 86, 0
2, 272520, Note_on_c, 0, 90, 62
2, 272520, Note_on_c, 0, 78, 74
2, 272880, Note_on_c, 0, 78, 0
2, 272880, Note_on_c, 0, 90, 0
2, 272880, Note_on_c, 0, 69, 0
2, 272880, Note_on_c, 0, 85, 59
2, 272880, Note_on_c, 0, 77, 11
2, 272880, Note_on_c, 0, 73, 59
2, 272880, Note_on_c, 0, 68, 91
2, 272880, Note_on_c, 0, 74, 91
2, 273240, Note_on_c, 0, 73, 0
2, 273240, Note_on_c, 0, 85, 0
2, 273240, Note_on_c, 0, 83, 68
2, 273240, Note_on_c, 0, 71, 66
2, 273600, Note_on_c, 0, 77, 0
2, 273600, Note_on_c, 0, 74, 0
2, 273600, Note_on_c, 0, 68, 0
2, 273600, Note_on_c, 0, 78, 26
2, 273600, Note_on_c, 0, 69, 75
2, 273960, Note_on_c, 0, 83, 0
2, 273960, Note_on_c, 0, 71, 0
2, 273960, Note_on_c, 0, 86, 90
2, 273960, Note_on_c, 0, 74, 85
2, 274320, Note_on_c, 0, 74, 0
2, 274320, Note_on_c, 0, 69, 0
2, 274320, Note_on_c, 0, 78, 0
2, 274320, Note_on_c, 0, 86, 0
2, 274320, Note_on_c, 0, 81, 59
2, 274320, Note_on_c, 0, 78, 22
2, 274320, Note_on_c, 0, 69, 58
2, 274320, Note_on_c, 0, 66, 82
2, 275040, Note_on_c, 0, 66, 0
2, 275040, Note_on_c, 0, 78, 0
2, 275040, Note_on_c, 0, 76, 20
2, 275040, Note_on_c, 0, 64, 81
2, 275400, Note_on_c, 0, 69, 0
2, 275400, Note_on_c, 0, 81, 0
2, 275400, Note_on_c, 0, 83, 84
2, 275400, Note_on_c, 0, 71, 77
2, 275760, Note_on_c, 0, 71, 0
2, 275760, Note_on_c, 0, 64, 0
2, 275760, Note_on_c, 0, 76, 0
2, 275760, Note_on_c, 0, 83, 0
2, 275760, Note_on_c, 0, 76, 59
2, 275760, Note_on_c, 0, 73, 18
2, 275760, Note_on_c, 0, 64, 91
2, 276120, Note_on_c, 0, 76, 0
2, 276120, Note_on_c, 0, 81, 91
2, 276120, Note_on_c, 0, 69, 63
2, 276480, Note_on_c, 0, 69, 0
2, 276480, Note_on_c, 0, 73, 0
2, 276480, Note_on_c, 0, 64, 0
2, 276480, Note_on_c, 0, 81, 0
2, 276480, Note_on_c, 0, 74, 60
2, 276480, Note_on_c, 0, 66, 75
2, 276480, Note_on_c, 0, 69, 75
2, 277200, Note_on_c, 0, 69, 0
2, 277200, Note_on_c, 0, 66, 0
2, 277200, Note_on_c, 0, 74, 0
2, 277200, Note_on_c, 0, 78, 91
2, 277200, Note_on_c, 0, 74, 24
2, 277200, Note_on_c, 0, 66, 65
2, 277560, Note_on_c, 0, 66, 0
2, 277560, Note_on_c, 0, 78, 0
2, 277560, Note_on_c, 0, 81, 90
2, 277560, Note_on_c, 0, 69, 83
2, 277560, Note_on_c, 0, 66, 91
2, 277920, Note_on_c, 0, 66, 0
2, 277920, Note_on_c, 0, 74, 0
2, 277920, Note_on_c, 0, 81, 0
2, 277920, Note_on_c, 0, 69, 0
2, 277920, Note_on_c, 0, 82, 91
2, 277920, Note_on_c, 0, 77, 32
2, 277920, Note_on_c, 0, 70, 83
2, 278280, Note_on_c, 0, 70, 0
2, 278280, Note_on_c, 0, 82, 0
2, 278280, Note_on_c, 0, 86, 87
2, 278280, Note_on_c, 0, 74, 86
2, 278640, Note_on_c, 0, 77, 0
2, 278640, Note_on_c, 0, 77, 36
2, 278640, Note_on_c, 0, 82, 36
2, 279000, Note_on_c, 0, 74, 0
2, 279000, Note_on_c, 0, 86, 0
2, 279000, Note_on_c, 0, 89, 92
2, 279000, Note_on_c, 0, 77, 92
2, 279317, Note_on_c, 0, 89, 0
2, 279317, Note_on_c, 0, 77, 0
2, 279360, Note_on_c, 0, 82, 0
2, 279360, Note_on_c, 0, 77, 0
2, 279360, Note_on_c, 0, 81, 91
2, 279360, Note_on_c, 0, 86, 91
2, 279360, Note_on_c, 0, 89, 91
2, 279360, Note_on_c, 0, 93, 91
2, 279360, Note_on_c, 0, 74, 88
2, 279360, Note_on_c, 0, 77, 88
2, 279360, Note_on_c, 0, 69, 91
2, 280080, Note_on_c, 0, 69, 0
2, 280080, Note_on_c, 0, 81, 0
2, 280080, Note_on_c, 0, 93, 0
2, 280080, Note_on_c, 0, 83, 91
2, 280080, Note_on_c, 0, 95, 91
2, 280080, Note_on_c, 0, 71, 91
2, 280627, Note_on_c, 0, 77, 0
2, 280800, Note_on_c, 0, 89, 0
2, 280800, Note_on_c, 0, 90, 80
2, 280800, Note_on_c, 0, 78, 79
2, 281160, Note_on_c, 0, 78, 0
2, 281160, Note_on_c, 0, 95, 0
2, 281160, Note_on_c, 0, 71, 0
2, 281160, Note_on_c, 0, 74, 0
2, 281160, Note_on_c, 0, 86, 0
2, 281160, Note_on_c, 0, 90, 0
2, 281160, Note_on_c, 0, 83, 0
2, 281160, Note_on_c, 0, 81, 81
2, 281160, Note_on_c, 0, 93, 81
2, 281160, Note_on_c, 0, 69, 68
2, 281477, Note_on_c, 0, 69, 0
2, 281477, Note_on_c, 0, 93, 0
2, 281477, Note_on_c, 0, 81, 0
2, 281520, Note_on_c, 0, 78, 62
2, 281520, Note_on_c, 0, 90, 62
2, 281520, Note_on_c, 0, 66, 58
2, 281880, Note_on_c, 0, 66, 0
2, 281880, Note_on_c, 0, 90, 0
2, 281880, Note_on_c, 0, 78, 0
2, 281880, Note_on_c, 0, 86, 64
2, 281880, Note_on_c, 0, 62, 91
2, 281880, Note_on_c, 0, 74, 91
2, 282240, Note_on_c, 0, 74, 0
2, 282240, Note_on_c, 0, 62, 0
2, 282240, Note_on_c, 0, 86, 0
2, 282600, Note_on_c, 0, 81, 73
2, 282600, Note_on_c, 0, 69, 65
2, 282960, Note_on_c, 0, 69, 0
2, 282960, Note_on_c, 0, 81, 0
2, 282960, Note_on_c, 0, 85, 88
2, 282960, Note_on_c, 0, 73, 85
2, 283320, Note_on_c, 0, 73, 0
2, 283320, Note_on_c, 0, 85, 0
2, 283320, Note_on_c, 0, 88, 91
2, 283320, Note_on_c, 0, 76, 87
2, 283680, Note_on_c, 0, 76, 0
2, 283680, Note_on_c, 0, 88, 0
2, 283680, Note_on_c, 0, 91, 90
2, 283680, Note_on_c, 0, 79, 87
2, 284040, Note_on_c, 0, 79, 0
2, 284040, Note_on_c, 0, 91, 0
2, 284040, Note_on_c, 0, 90, 78
2, 284040, Note_on_c, 0, 78, 74
2, 284760, Note_on_c, 0, 78, 0
2, 284760, Note_on_c, 0, 90, 0
2, 284760, Note_on_c, 0, 86, 63
2, 284760, Note_on_c, 0, 74, 62
2, 285480, Note_on_c, 0, 74, 0
2, 285480, Note_on_c, 0, 86, 0
2, 285480, Note_on_c, 0, 88, 85
2, 285480, Note_on_c, 0, 76, 78
2, 285840, Note_on_c, 0, 76, 0
2, 285840, Note_on_c, 0, 88, 0
2, 285840, Note_on_c, 0, 85, 66
2, 285840, Note_on_c, 0, 73, 64
2, 286920, Note_on_c, 0, 73, 0
2, 286920, Note_on_c, 0, 85, 0
2, 286920, Note_on_c, 0, 86, 87
2, 286920, Note_on_c, 0, 74, 76
2, 287280, Note_on_c, 0, 74, 0
2, 287280, Note_on_c, 0, 86, 0
2, 287280, Note_on_c, 0, 83, 73
2, 287280, Note_on_c, 0, 71, 64
2, 287640, Note_on_c, 0, 71, 0
2, 287640, Note_on_c, 0, 83, 0
2, 287640, Note_on_c, 0, 86, 84
2, 287640, Note_on_c, 0, 74, 81
2, 288000, Note_on_c, 0, 74, 0
2, 288000, Note_on_c, 0, 86, 0
2, 288000, Note_on_c, 0, 83, 67
2, 288000, Note_on_c, 0, 71, 63
2, 288360, Note_on_c, 0, 71, 0
2, 288360, Note_on_c, 0, 83, 0
2, 288360, Note_on_c, 0, 85, 86
2, 288360, Note_on_c, 0, 73, 81
2, 288720, Note_on_c, 0, 73, 0
2, 288720, Note_on_c, 0, 85, 0
2, 288720, Note_on_c, 0, 81, 65
2, 288720, Note_on_c, 0, 69, 63
2, 289800, Note_on_c, 0, 69, 0
2, 289800, Note_on_c, 0, 81, 0
2, 289800, Note_on_c, 0, 84, 92
2, 289800, Note_on_c, 0, 72, 92
2, 290117, Note_on_c, 0, 72, 0
2, 290117, Note_on_c, 0, 84, 0
2, 290160, Note_on_c, 0, 81, 71
2, 290160, Note_on_c, 0, 69, 66
2, 291240, Note_on_c, 0, 69, 0
2, 291240, Note_on_c, 0, 81, 0
2, 291240, Note_on_c, 0, 83, 92
2, 291240, Note_on_c, 0, 71, 92
2, 291557, Note_on_c, 0, 71, 0
2, 291557, Note_on_c, 0, 83, 0
2, 291600, Note_on_c, 0, 81, 75
2, 291600, Note_on_c, 0, 69, 71
2, 292680, Note_on_c, 0, 69, 0
2, 292680, Note_on_c, 0, 81, 0
2, 292680, Note_on_c, 0, 81, 79
2, 292680, Note_on_c, 0, 69, 73
2, 293040, Note_on_c, 0, 69, 0
2, 293040, Note_on_c, 0, 81, 0
2, 293040, Note_on_c, 0, 85, 88
2, 293040, Note_on_c, 0, 73, 87
2, 293400, Note_on_c, 0, 73, 0
2, 293400, Note_on_c, 0, 85, 0
2, 293400, Note_on_c, 0, 88, 91
2, 293400, Note_on_c, 0, 76, 90
2, 293760, Note_on_c, 0, 76, 0
2, 293760, Note_on_c, 0, 88, 0
2, 293760, Note_on_c, 0, 90, 85
2, 293760, Note_on_c, 0, 78, 82
2, 294120, Note_on_c, 0, 78, 0
2, 294120, Note_on_c, 0, 90, 0
2, 294120, Note_on_c, 0, 91, 83
2, 294120, Note_on_c, 0, 79, 78
2, 294840, Note_on_c, 0, 79, 0
2, 294840, Note_on_c, 0, 91, 0
2, 294840, Note_on_c, 0, 86, 67
2, 294840, Note_on_c, 0, 74, 60
2, 295200, Note_on_c, 0, 74, 0
2, 295200, Note_on_c, 0, 86, 0
2, 295200, Note_on_c, 0, 88, 80
2, 295200, Note_on_c, 0, 76, 77
2, 295560, Note_on_c, 0, 76, 0
2, 295560, Note_on_c, 0, 88, 0
2, 295560, Note_on_c, 0, 90, 79
2, 295560, Note_on_c, 0, 78, 77
2, 296280, Note_on_c, 0, 78, 0
2, 296280, Note_on_c, 0, 90, 0
2, 296280, Note_on_c, 0, 85, 66
2, 296280, Note_on_c, 0, 73, 63
2, 296640, Note_on_c, 0, 73, 0
2, 296640, Note_on_c, 0, 85, 0
2, 296640, Note_on_c, 0, 86, 85
2, 296640, Note_on_c, 0, 74, 76
2, 297000, Note_on_c, 0, 74, 0
2, 297000, Note_on_c, 0, 86, 0
2, 297000, Note_on_c, 0, 88, 83
2, 297000, Note_on_c, 0, 76, 77
2, 297360, Note_on_c, 0, 76, 0
2, 297360, Note_on_c, 0, 88, 0
2, 297360, Note_on_c, 0, 83, 65
2, 297360, Note_on_c, 0, 71, 57
2, 297720, Note_on_c, 0, 71, 0
2, 297720, Note_on_c, 0, 83, 0
2, 297720, Note_on_c, 0, 86, 83
2, 297720, Note_on_c, 0, 74, 77
2, 298080, Note_on_c, 0, 74, 0
2, 298080, Note_on_c, 0, 86, 0
2, 298080, Note_on_c, 0, 83, 74
2, 298080, Note_on_c, 0, 71, 59
2, 298440, Note_on_c, 0, 71, 0
2, 298440, Note_on_c, 0, 83, 0
2, 298440, Note_on_c, 0, 85, 85
2, 298440, Note_on_c, 0, 73, 80
2, 298800, Note_on_c, 0, 73, 0
2, 298800, Note_on_c, 0, 85, 0
2, 298800, Note_on_c, 0, 81, 65
2, 298800, Note_on_c, 0, 69, 64
2, 299880, Note_on_c, 0, 69, 0
2, 299880, Note_on_c, 0, 81, 0
2, 299880, Note_on_c, 0, 84, 92
2, 299880, Note_on_c, 0, 72, 92
2, 300197, Note_on_c, 0, 72, 0
2, 300197, Note_on_c, 0, 84, 0
2, 300240, Note_on_c, 0, 81, 71
2, 300240, Note_on_c, 0, 69, 69
2, 301320, Note_on_c, 0, 69, 0
2, 301320, Note_on_c, 0, 81, 0
2, 301320, Note_on_c, 0, 83, 92
2, 301320, Note_on_c, 0, 71, 92
2, 301637, Note_on_c, 0, 71, 0
2, 301637, Note_on_c, 0, 83, 0
2, 301680, Note_on_c, 0, 81, 76
2, 301680, Note_on_c, 0, 69, 68
2, 302400, Note_on_c, 0, 69, 0
2, 302400, Note_on_c, 0, 81, 0
2, 302760, Note_on_c, 0, 71, 66
2, 303120, Note_on_c, 0, 71, 0
2, 303120, Note_on_c, 0, 74, 91
2, 303480, Note_on_c, 0, 74, 0
2, 303480, Note_on_c, 0, 79, 91
2, 303480, Note_on_c, 0, 71, 21
2, 303480, Note_on_c, 0, 74, 21
2, 303840, Note_on_c, 0, 79, 0
2, 303840, Note_on_c, 0, 81, 92
2, 304079, Note_on_c, 0, 74, 0
2, 304079, Note_on_c, 0, 71, 0
2, 304079, Note_on_c, 0, 62, 25
2, 304079, Note_on_c, 0, 71, 25
2, 304079, Note_on_c, 0, 74, 25
2, 304157, Note_on_c, 0, 81, 0
2, 304200, Note_on_c, 0, 83, 87
2, 304320, Note_on_c, 0, 62, 0
2, 304320, Note_on_c, 0, 74, 0
2, 304320, Note_on_c, 0, 71, 0
2, 304320, Note_on_c, 0, 62, 30
2, 304320, Note_on_c, 0, 71, 30
2, 304320, Note_on_c, 0, 74, 30
2, 304560, Note_on_c, 0, 74, 0
2, 304560, Note_on_c, 0, 71, 0
2, 304560, Note_on_c, 0, 62, 0
2, 304560, Note_on_c, 0, 62, 23
2, 304560, Note_on_c, 0, 71, 23
2, 304560, Note_on_c, 0, 74, 23
2, 304799, Note_on_c, 0, 74, 0
2, 304799, Note_on_c, 0, 71, 0
2, 304799, Note_on_c, 0, 62, 0
2, 304799, Note_on_c, 0, 62, 21
2, 304799, Note_on_c, 0, 71, 21
2, 304799, Note_on_c, 0, 74, 21
2, 304920, Note_on_c, 0, 83, 0
2, 304920, Note_on_c, 0, 78, 61
2, 305040, Note_on_c, 0, 62, 0
2, 305040, Note_on_c, 0, 74, 0
2, 305040, Note_on_c, 0, 71, 0
2, 305040, Note_on_c, 0, 62, 29
2, 305040, Note_on_c, 0, 71, 29
2, 305040, Note_on_c, 0, 74, 29
2, 305280, Note_on_c, 0, 74, 0
2, 305280, Note_on_c, 0, 78, 0
2, 305280, Note_on_c, 0, 62, 0
2, 305280, Note_on_c, 0, 71, 0
2, 305280, Note_on_c, 0, 79, 92
2, 305597, Note_on_c, 0, 79, 0
2, 305640, Note_on_c, 0, 81, 84
2, 306360, Note_on_c, 0, 81, 0
2, 306360, Note_on_c, 0, 76, 62
2, 306360, Note_on_c, 0, 71, 23
2, 306360, Note_on_c, 0, 74, 23
2, 306720, Note_on_c, 0, 76, 0
2, 306720, Note_on_c, 0, 78, 92
2, 306959, Note_on_c, 0, 74, 0
2, 306959, Note_on_c, 0, 71, 0
2, 306959, Note_on_c, 0, 62, 24
2, 306959, Note_on_c, 0, 71, 24
2, 306959, Note_on_c, 0, 74, 24
2, 307037, Note_on_c, 0, 78, 0
2, 307080, Note_on_c, 0, 79, 82
2, 307200, Note_on_c, 0, 62, 0
2, 307200, Note_on_c, 0, 74, 0
2, 307200, Note_on_c, 0, 71, 0
2, 307200, Note_on_c, 0, 62, 22
2, 307200, Note_on_c, 0, 71, 22
2, 307200, Note_on_c, 0, 74, 22
2, 307440, Note_on_c, 0, 74, 0
2, 307440, Note_on_c, 0, 71, 0
2, 307440, Note_on_c, 0, 62, 0
2, 307440, Note_on_c, 0, 62, 22
2, 307440, Note_on_c, 0, 71, 22
2, 307440, Note_on_c, 0, 74, 22
2, 307679, Note_on_c, 0, 74, 0
2, 307679, Note_on_c, 0, 71, 0
2, 307679, Note_on_c, 0, 62, 0
2, 307679, Note_on_c, 0, 62, 24
2, 307679, Note_on_c, 0, 71, 24
2, 307800, Note_on_c, 0, 79, 0
2, 307800, Note_on_c, 0, 67, 44
2, 307920, Note_on_c, 0, 71, 0
2, 307920, Note_on_c, 0, 62, 0
2, 307920, Note_on_c, 0, 62, 23
2, 307920, Note_on_c, 0, 71, 23
2, 308160, Note_on_c, 0, 71, 0
2, 308160, Note_on_c, 0, 62, 0
2, 308160, Note_on_c, 0, 67, 0
2, 308160, Note_on_c, 0, 69, 79
2, 308520, Note_on_c, 0, 69, 0
2, 308520, Note_on_c, 0, 71, 86
2, 308880, Note_on_c, 0, 71, 0
2, 308880, Note_on_c, 0, 74, 91
2, 309240, Note_on_c, 0, 74, 0
2, 309240, Note_on_c, 0, 79, 89
2, 309240, Note_on_c, 0, 71, 22
2, 309240, Note_on_c, 0, 74, 22
2, 309600, Note_on_c, 0, 79, 0
2, 309600, Note_on_c, 0, 81, 92
2, 309839, Note_on_c, 0, 74, 0
2, 309839, Note_on_c, 0, 71, 0
2, 309839, Note_on_c, 0, 62, 27
2, 309839, Note_on_c, 0, 71, 27
2, 309839, Note_on_c, 0, 74, 27
2, 309917, Note_on_c, 0, 81, 0
2, 309960, Note_on_c, 0, 83, 91
2, 310080, Note_on_c, 0, 62, 0
2, 310080, Note_on_c, 0, 74, 0
2, 310080, Note_on_c, 0, 71, 0
2, 310080, Note_on_c, 0, 62, 26
2, 310080, Note_on_c, 0, 71, 26
2, 310080, Note_on_c, 0, 74, 26
2, 310320, Note_on_c, 0, 74, 0
2, 310320, Note_on_c, 0, 71, 0
2, 310320, Note_on_c, 0, 62, 0
2, 310320, Note_on_c, 0, 62, 21
2, 310320, Note_on_c, 0, 71, 21
2, 310320, Note_on_c, 0, 74, 21
2, 310559, Note_on_c, 0, 74, 0
2, 310559, Note_on_c, 0, 71, 0
2, 310559, Note_on_c, 0, 62, 0
2, 310559, Note_on_c, 0, 62, 23
2, 310559, Note_on_c, 0, 71, 23
2, 310559, Note_on_c, 0, 74, 23
2, 310680, Note_on_c, 0, 83, 0
2, 310680, Note_on_c, 0, 78, 64
2, 310800, Note_on_c, 0, 62, 0
2, 310800, Note_on_c, 0, 74, 0
2, 310800, Note_on_c, 0, 71, 0
2, 310800, Note_on_c, 0, 62, 23
2, 310800, Note_on_c, 0, 71, 23
2, 310800, Note_on_c, 0, 74, 23
2, 311040, Note_on_c, 0, 74, 0
2, 311040, Note_on_c, 0, 78, 0
2, 311040, Note_on_c, 0, 62, 0
2, 311040, Note_on_c, 0, 71, 0
2, 311040, Note_on_c, 0, 79, 92
2, 311357, Note_on_c, 0, 79, 0
2, 311400, Note_on_c, 0, 81, 88
2, 312120, Note_on_c, 0, 81, 0
2, 312120, Note_on_c, 0, 76, 61
2, 312120, Note_on_c, 0, 71, 22
2, 312120, Note_on_c, 0, 74, 22
2, 312480, Note_on_c, 0, 76, 0
2, 312480, Note_on_c, 0, 78, 92
2, 312719, Note_on_c, 0, 74, 0
2, 312719, Note_on_c, 0, 71, 0
2, 312719, Note_on_c, 0, 62, 25
2, 312719, Note_on_c, 0, 71, 25
2, 312719, Note_on_c, 0, 74, 25
2, 312797, Note_on_c, 0, 78, 0
2, 312840, Note_on_c, 0, 79, 82
2, 312960, Note_on_c, 0, 62, 0
2, 312960, Note_on_c, 0, 74, 0
2, 312960, Note_on_c, 0, 71, 0
2, 312960, Note_on_c, 0, 62, 25
2, 312960, Note_on_c, 0, 71, 25
2, 312960, Note_on_c, 0, 74, 25
2, 313200, Note_on_c, 0, 74, 0
2, 313200, Note_on_c, 0, 71, 0
2, 313200, Note_on_c, 0, 62, 0
2, 313200, Note_on_c, 0, 62, 21
2, 313200, Note_on_c, 0, 71, 21
2, 313200, Note_on_c, 0, 74, 21
2, 313439, Note_on_c, 0, 74, 0
2, 313439, Note_on_c, 0, 71, 0
2, 313439, Note_on_c, 0, 62, 0
2, 313439, Note_on_c, 0, 62, 25
2, 313439, Note_on_c, 0, 71, 25
2, 313560, Note_on_c, 0, 79, 0
2, 313560, Note_on_c, 0, 74, 65
2, 313680, Note_on_c, 0, 71, 0
2, 313680, Note_on_c, 0, 62, 0
2, 313680, Note_on_c, 0, 62, 20
2, 313680, Note_on_c, 0, 71, 20
2, 313920, Note_on_c, 0, 71, 0
2, 313920, Note_on_c, 0, 62, 0
2, 313920, Note_on_c, 0, 74, 0
2, 313920, Note_on_c, 0, 76, 92
2, 314237, Note_on_c, 0, 76, 0
2, 314280, Note_on_c, 0, 78, 88
2, 315000, Note_on_c, 0, 78, 0
2, 315000, Note_on_c, 0, 73, 65
2, 315000, Note_on_c, 0, 67, 19
2, 315000, Note_on_c, 0, 70, 19
2, 315360, Note_on_c, 0, 73, 0
2, 315360, Note_on_c, 0, 74, 92
2, 315599, Note_on_c, 0, 70, 0
2, 315599, Note_on_c, 0, 67, 0
2, 315599, Note_on_c, 0, 64, 22
2, 315599, Note_on_c, 0, 67, 22
2, 315599, Note_on_c, 0, 70, 22
2, 315677, Note_on_c, 0, 74, 0
2, 315720, Note_on_c, 0, 76, 87
2, 315840, Note_on_c, 0, 64, 0
2, 315840, Note_on_c, 0, 70, 0
2, 315840, Note_on_c, 0, 67, 0
2, 315840, Note_on_c, 0, 64, 29
2, 315840, Note_on_c, 0, 67, 29
2, 315840, Note_on_c, 0, 70, 29
2, 316080, Note_on_c, 0, 70, 0
2, 316080, Note_on_c, 0, 67, 0
2, 316080, Note_on_c, 0, 64, 0
2, 316080, Note_on_c, 0, 64, 24
2, 316080, Note_on_c, 0, 67, 24
2, 316080, Note_on_c, 0, 70, 24
2, 316319, Note_on_c, 0, 70, 0
2, 316319, Note_on_c, 0, 67, 0
2, 316319, Note_on_c, 0, 64, 0
2, 316319, Note_on_c, 0, 64, 27
2, 316319, Note_on_c, 0, 67, 27
2, 316319, Note_on_c, 0, 70, 27
2, 316440, Note_on_c, 0, 76, 0
2, 316440, Note_on_c, 0, 70, 54
2, 316560, Note_on_c, 0, 64, 0
2, 316560, Note_on_c, 0, 70, 0
2, 316560, Note_on_c, 0, 67, 0
2, 316560, Note_on_c, 0, 64, 22
2, 316560, Note_on_c, 0, 67, 22
2, 316800, Note_on_c, 0, 70, 0
2, 316800, Note_on_c, 0, 73, 92
2, 317117, Note_on_c, 0, 73, 0
2, 317160, Note_on_c, 0, 67, 0
2, 317160, Note_on_c, 0, 64, 0
2, 317160, Note_on_c, 0, 74, 81
2, 317160, Note_on_c, 0, 67, 28
2, 317160, Note_on_c, 0, 70, 28
2, 317880, Note_on_c, 0, 70, 0
2, 317880, Note_on_c, 0, 67, 0
2, 317880, Note_on_c, 0, 74, 0
2, 317880, Note_on_c, 0, 69, 67
2, 317880, Note_on_c, 0, 62, 14
2, 317880, Note_on_c, 0, 64, 14
2, 318240, Note_on_c, 0, 69, 0
2, 318240, Note_on_c, 0, 70, 92
2, 318479, Note_on_c, 0, 64, 0
2, 318479, Note_on_c, 0, 62, 0
2, 318479, Note_on_c, 0, 62, 31
2, 318479, Note_on_c, 0, 64, 31
2, 318479, Note_on_c, 0, 67, 31
2, 318557, Note_on_c, 0, 70, 0
2, 318600, Note_on_c, 0, 72, 83
2, 318720, Note_on_c, 0, 62, 0
2, 318720, Note_on_c, 0, 67, 0
2, 318720, Note_on_c, 0, 64, 0
2, 318720, Note_on_c, 0, 62, 22
2, 318720, Note_on_c, 0, 64, 22
2, 318720, Note_on_c, 0, 67, 22
2, 318960, Note_on_c, 0, 67, 0
2, 318960, Note_on_c, 0, 64, 0
2, 318960, Note_on_c, 0, 62, 0
2, 318960, Note_on_c, 0, 62, 26
2, 318960, Note_on_c, 0, 64, 26
2, 318960, Note_on_c, 0, 67, 26
2, 319199, Note_on_c, 0, 67, 0
2, 319199, Note_on_c, 0, 64, 0
2, 319199, Note_on_c, 0, 62, 0
2, 319199, Note_on_c, 0, 62, 27
2, 319199, Note_on_c, 0, 67, 27
2, 319320, Note_on_c, 0, 72, 0
2, 319320, Note_on_c, 0, 64, 51
2, 319440, Note_on_c, 0, 67, 0
2, 319440, Note_on_c, 0, 62, 0
2, 319440, Note_on_c, 0, 62, 25
2, 319440, Note_on_c, 0, 67, 25
2, 319680, Note_on_c, 0, 67, 0
2, 319680, Note_on_c, 0, 62, 0
2, 319680, Note_on_c, 0, 64, 0
2, 319680, Note_on_c, 0, 66, 84
2, 319680, Note_on_c, 0, 62, 66
2, 319860, Note_on_c, 0, 62, 0
2, 320040, Note_on_c, 0, 66, 0
2, 320040, Note_on_c, 0, 78, 91
2, 320040, Note_on_c, 0, 66, 23
2, 320040, Note_on_c, 0, 69, 23
2, 320400, Note_on_c, 0, 69, 0
2, 320400, Note_on_c, 0, 66, 0
2, 320400, Note_on_c, 0, 78, 0
2, 320400, Note_on_c, 0, 73, 65
2, 320400, Note_on_c, 0, 65, 19
2, 320400, Note_on_c, 0, 68, 19
2, 320760, Note_on_c, 0, 73, 0
2, 320760, Note_on_c, 0, 71, 71
2, 321120, Note_on_c, 0, 68, 0
2, 321120, Note_on_c, 0, 65, 0
2, 321120, Note_on_c, 0, 66, 30
2, 321120, Note_on_c, 0, 69, 30
2, 321480, Note_on_c, 0, 71, 0
2, 321480, Note_on_c, 0, 74, 82
2, 321840, Note_on_c, 0, 74, 0
2, 321840, Note_on_c, 0, 69, 0
2, 321840, Note_on_c, 0, 66, 0
2, 321840, Note_on_c, 0, 69, 62
2, 321840, Note_on_c, 0, 66, 34
2, 322473, Note_on_c, 0, 66, 0
2, 322560, Note_on_c, 0, 64, 34
2, 322920, Note_on_c, 0, 69, 0
2, 322920, Note_on_c, 0, 72, 90
2, 323193, Note_on_c, 0, 64, 0
2, 323280, Note_on_c, 0, 72, 0
2, 323280, Note_on_c, 0, 66, 66
2, 323280, Note_on_c, 0, 63, 36
2, 323640, Note_on_c, 0, 66, 0
2, 323640, Note_on_c, 0, 71, 89
2, 323913, Note_on_c, 0, 63, 0
2, 324000, Note_on_c, 0, 62, 29
2, 324360, Note_on_c, 0, 71, 0
2, 324360, Note_on_c, 0, 71, 75
2, 324633, Note_on_c, 0, 62, 0
2, 324720, Note_on_c, 0, 71, 0
2, 324720, Note_on_c, 0, 64, 56
2, 324720, Note_on_c, 0, 61, 33
2, 325080, Note_on_c, 0, 64, 0
2, 325080, Note_on_c, 0, 69, 87
2, 325353, Note_on_c, 0, 61, 0
2, 325440, Note_on_c, 0, 60, 43
2, 325440, Note_on_c, 0, 64, 43
2, 325800, Note_on_c, 0, 69, 0
2, 325800, Note_on_c, 0, 69, 75
2, 326073, Note_on_c, 0, 64, 0
2, 326073, Note_on_c, 0, 60, 0
2, 326160, Note_on_c, 0, 69, 0
2, 326160, Note_on_c, 0, 62, 8
2, 326160, Note_on_c, 0, 59, 32
2, 326520, Note_on_c, 0, 67, 65
2, 326793, Note_on_c, 0, 59, 0
2, 326880, Note_on_c, 0, 62, 0
2, 326880, Note_on_c, 0, 58, 25
2, 326880, Note_on_c, 0, 61, 25
2, 327240, Note_on_c, 0, 67, 0
2, 327240, Note_on_c, 0, 67, 79
2, 327600, Note_on_c, 0, 67, 0
2, 327600, Note_on_c, 0, 61, 0
2, 327600, Note_on_c, 0, 58, 0
2, 327600, Note_on_c, 0, 61, 23
2, 327600, Note_on_c, 0, 57, 29
2, 327960, Note_on_c, 0, 66, 69
2, 328320, Note_on_c, 0, 57, 0
2, 328320, Note_on_c, 0, 61, 0
2, 328320, Note_on_c, 0, 56, 25
2, 328320, Note_on_c, 0, 59, 25
2, 328680, Note_on_c, 0, 66, 0
2, 328680, Note_on_c, 0, 66, 75
2, 329040, Note_on_c, 0, 66, 0
2, 329040, Note_on_c, 0, 59, 0
2, 329040, Note_on_c, 0, 56, 0
2, 329040, Note_on_c, 0, 59, 69
2, 329040, Note_on_c, 0, 55, 24
2, 329400, Note_on_c, 0, 59, 0
2, 329400, Note_on_c, 0, 64, 91
2, 329760, Note_on_c, 0, 62, 33
2, 330120, Note_on_c, 0, 64, 0
2, 330120, Note_on_c, 0, 66, 85
2, 330300, Note_on_c, 0, 55, 0
2, 330840, Note_on_c, 0, 66, 0
2, 330840, Note_on_c, 0, 62, 0
2, 330840, Note_on_c, 0, 67, 83
2, 330840, Note_on_c, 0, 61, 23
2, 331200, Note_on_c, 0, 61, 0
2, 331200, Note_on_c, 0, 67, 0
2, 331200, Note_on_c, 0, 66, 70
2, 331200, Note_on_c, 0, 57, 8
2, 331200, Note_on_c, 0, 62, 8
2, 331380, Note_on_c, 0, 66, 0
2, 331439, Note_on_c, 0, 62, 0
2, 331439, Note_on_c, 0, 57, 0
2, 331439, Note_on_c, 0, 57, 18
2, 331439, Note_on_c, 0, 62, 18
2, 331680, Note_on_c, 0, 62, 0
2, 331680, Note_on_c, 0, 57, 0
2, 331680, Note_on_c, 0, 57, 11
2, 331680, Note_on_c, 0, 62, 11
2, 331920, Note_on_c, 0, 62, 0
2, 331920, Note_on_c, 0, 57, 0
2, 331920, Note_on_c, 0, 65, 15
2, 331920, Note_on_c, 0, 62, 18
2, 331920, Note_on_c, 0, 56, 14
2, 332159, Note_on_c, 0, 56, 0
2, 332159, Note_on_c, 0, 65, 0
2, 332159, Note_on_c, 0, 65, 13
2, 332159, Note_on_c, 0, 56, 16
2, 332400, Note_on_c, 0, 56, 0
2, 332400, Note_on_c, 0, 65, 0
2, 332400, Note_on_c, 0, 65, 16
2, 332400, Note_on_c, 0, 56, 15
2, 332640, Note_on_c, 0, 56, 0
2, 332640, Note_on_c, 0, 65, 0
2, 332640, Note_on_c, 0, 62, 0
2, 332640, Note_on_c, 0, 64, 11
2, 332640, Note_on_c, 0, 55, 23
2, 332879, Note_on_c, 0, 55, 0
2, 332879, Note_on_c, 0, 64, 0
2, 332879, Note_on_c, 0, 64, 10
2, 332879, Note_on_c, 0, 55, 28
2, 333120, Note_on_c, 0, 55, 0
2, 333120, Note_on_c, 0, 64, 0
2, 333120, Note_on_c, 0, 64, 10
2, 333120, Note_on_c, 0, 55, 27
2, 333360, Note_on_c, 0, 55, 0
2, 333360, Note_on_c, 0, 64, 0
2, 333360, Note_on_c, 0, 64, 15
2, 333360, Note_on_c, 0, 55, 23
2, 333599, Note_on_c, 0, 55, 0
2, 333599, Note_on_c, 0, 64, 0
2, 333599, Note_on_c, 0, 64, 11
2, 333599, Note_on_c, 0, 55, 28
2, 333840, Note_on_c, 0, 55, 0
2, 333840, Note_on_c, 0, 64, 0
2, 333840, Note_on_c, 0, 64, 15
2, 333840, Note_on_c, 0, 55, 26
2, 334260, Note_on_c, 0, 55, 0
2, 334319, Note_on_c, 0, 64, 0
2, 334319, Note_on_c, 0, 64, 14
2, 334560, Note_on_c, 0, 64, 0
2, 334560, Note_on_c, 0, 64, 14
2, 334800, Note_on_c, 0, 64, 0
2, 334800, Note_on_c, 0, 63, 16
2, 335039, Note_on_c, 0, 63, 0
2, 335039, Note_on_c, 0, 63, 12
2, 335280, Note_on_c, 0, 63, 0
2, 335280, Note_on_c, 0, 63, 15
2, 335520, Note_on_c, 0, 63, 0
2, 335520, Note_on_c, 0, 63, 15
2, 335759, Note_on_c, 0, 63, 0
2, 335759, Note_on_c, 0, 63, 10
2, 336000, Note_on_c, 0, 63, 0
2, 336000, Note_on_c, 0, 63, 10
2, 336240, Note_on_c, 0, 63, 0
2, 336240, Note_on_c, 0, 62, 15
2, 336479, Note_on_c, 0, 62, 0
2, 336479, Note_on_c, 0, 62, 16
2, 336720, Note_on_c, 0, 62, 0
2, 336720, Note_on_c, 0, 62, 17
2, 336960, Note_on_c, 0, 62, 0
2, 336960, Note_on_c, 0, 62, 15
2, 337199, Note_on_c, 0, 62, 0
2, 337199, Note_on_c, 0, 62, 16
2, 337440, Note_on_c, 0, 62, 0
2, 337440, Note_on_c, 0, 62, 15
2, 337680, Note_on_c, 0, 62, 0
2, 337680, Note_on_c, 0, 60, 11
2, 337919, Note_on_c, 0, 60, 0
2, 337919, Note_on_c, 0, 60, 17
2, 338160, Note_on_c, 0, 60, 0
2, 338160, Note_on_c, 0, 60, 17
2, 338639, Note_on_c, 0, 60, 0
2, 338639, Note_on_c, 0, 60, 16
2, 338880, Note_on_c, 0, 60, 0
2, 338880, Note_on_c, 0, 60, 12
2, 339120, Note_on_c, 0, 60, 0
2, 339120, Note_on_c, 0, 59, 18
2, 339359, Note_on_c, 0, 59, 0
2, 339359, Note_on_c, 0, 59, 17
2, 339600, Note_on_c, 0, 59, 0
2, 339600, Note_on_c, 0, 59, 14
2, 339840, Note_on_c, 0, 55, 23
2, 340079, Note_on_c, 0, 59, 0
2, 340079, Note_on_c, 0, 59, 14
2, 340320, Note_on_c, 0, 59, 0
2, 340320, Note_on_c, 0, 59, 14
2, 340560, Note_on_c, 0, 59, 0
2, 340560, Note_on_c, 0, 57, 15
2, 340799, Note_on_c, 0, 57, 0
2, 340799, Note_on_c, 0, 57, 21
2, 341040, Note_on_c, 0, 57, 0
2, 341040, Note_on_c, 0, 57, 16
2, 341280, Note_on_c, 0, 57, 0
2, 341280, Note_on_c, 0, 55, 0
2, 342000, Note_on_c, 0, 56, 16
2, 342000, Note_on_c, 0, 50, 12
2, 342000, Note_on_c, 0, 53, 12
2, 342720, Note_on_c, 0, 53, 0
2, 342720, Note_on_c, 0, 54, 17
2, 343440, Note_on_c, 0, 56, 0
2, 343440, Note_on_c, 0, 57, 25
2, 344160, Note_on_c, 0, 57, 0
2, 344160, Note_on_c, 0, 59, 32
2, 344880, Note_on_c, 0, 59, 0
2, 344880, Note_on_c, 0, 54, 0
2, 344880, Note_on_c, 0, 50, 0
2, 344880, Note_on_c, 0, 60, 27
2, 344880, Note_on_c, 0, 51, 18
2, 344880, Note_on_c, 0, 55, 18
2, 345600, Note_on_c, 0, 51, 0
2, 345600, Note_on_c, 0, 52, 18
2, 346320, Note_on_c, 0, 52, 0
2, 346320, Note_on_c, 0, 55, 0
2, 346320, Note_on_c, 0, 60, 0
2, 346320, Note_on_c, 0, 61, 29
2, 346320, Note_on_c, 0, 54, 20
2, 346320, Note_on_c, 0, 57, 20
2, 347040, Note_on_c, 0, 57, 0
2, 347040, Note_on_c, 0, 61, 0
2, 347040, Note_on_c, 0, 61, 40
2, 347040, Note_on_c, 0, 57, 13
2, 347760, Note_on_c, 0, 54, 0
2, 347760, Note_on_c, 0, 55, 12
2, 349200, Note_on_c, 0, 69, 11
2, 349920, Note_on_c, 0, 69, 0
2, 349920, Note_on_c, 0, 61, 0
2, 349920, Note_on_c, 0, 57, 0
2, 349920, Note_on_c, 0, 55, 0
2, 349920, Note_on_c, 0, 69, 11
2, 349920, Note_on_c, 0, 61, 29
2, 349920, Note_on_c, 0, 55, 19
2, 349920, Note_on_c, 0, 57, 19
2, 352800, Note_on_c, 0, 57, 0
2, 352800, Note_on_c, 0, 69, 0
2, 352800, Note_on_c, 0, 61, 0
2, 352800, Note_on_c, 0, 55, 0
2, 352980, Note_on_c, 0, 74, 22
2, 353160, Note_on_c, 0, 74, 0
2, 353160, Note_on_c, 0, 78, 30
2, 353340, Note_on_c, 0, 78, 0
2, 353340, Note_on_c, 0, 81, 31
2, 353520, Note_on_c, 0, 81, 0
2, 353520, Note_on_c, 0, 85, 41
2, 353700, Note_on_c, 0, 85, 0
2, 353700, Note_on_c, 0, 86, 30
2, 353790, Note_on_c, 0, 88, 6
2, 353880, Note_on_c, 0, 88, 0
2, 353880, Note_on_c, 0, 86, 0
2, 353880, Note_on_c, 0, 90, 17
2, 353880, Note_on_c, 0, 83, 18
2, 353970, Note_on_c, 0, 90, 0
2, 353970, Note_on_c, 0, 88, 14
2, 354060, Note_on_c, 0, 88, 0
2, 354060, Note_on_c, 0, 86, 9
2, 354150, Note_on_c, 0, 86, 0
2, 354150, Note_on_c, 0, 88, 18
2, 354240, Note_on_c, 0, 88, 0
2, 354240, Note_on_c, 0, 86, 11
2, 354330, Note_on_c, 0, 86, 0
2, 354330, Note_on_c, 0, 79, 18
2, 354420, Note_on_c, 0, 79, 0
2, 354420, Note_on_c, 0, 83, 0
2, 354420, Note_on_c, 0, 81, 15
2, 354420, Note_on_c, 0, 74, 26
2, 354420, Note_on_c, 0, 78, 26
2, 354510, Note_on_c, 0, 78, 0
2, 354510, Note_on_c, 0, 74, 0
2, 354510, Note_on_c, 0, 76, 25
2, 354510, Note_on_c, 0, 79, 25
2, 354600, Note_on_c, 0, 79, 0
2, 354600, Note_on_c, 0, 76, 0
2, 354600, Note_on_c, 0, 81, 0
2, 354600, Note_on_c, 0, 78, 9
2, 354600, Note_on_c, 0, 74, 15
2, 354690, Note_on_c, 0, 78, 0
2, 354690, Note_on_c, 0, 76, 7
2, 354780, Note_on_c, 0, 76, 0
2, 354780, Note_on_c, 0, 74, 0
2, 354780, Note_on_c, 0, 74, 10
2, 354870, Note_on_c, 0, 74, 0
2, 354870, Note_on_c, 0, 76, 22
2, 354960, Note_on_c, 0, 76, 0
2, 354960, Note_on_c, 0, 74, 13
2, 355050, Note_on_c, 0, 67, 19
2, 355140, Note_on_c, 0, 67, 0
2, 355140, Note_on_c, 0, 74, 0
2, 355140, Note_on_c, 0, 73, 16
2, 355140, Note_on_c, 0, 62, 16
2, 355140, Note_on_c, 0, 66, 16
2, 355230, Note_on_c, 0, 66, 0
2, 355230, Note_on_c, 0, 62, 0
2, 355230, Note_on_c, 0, 64, 26
2, 355230, Note_on_c, 0, 67, 26
2, 355320, Note_on_c, 0, 67, 0
2, 355320, Note_on_c, 0, 64, 0
2, 355320, Note_on_c, 0, 73, 0
2, 355320, Note_on_c, 0, 71, 11
2, 355320, Note_on_c, 0, 66, 24
2, 355410, Note_on_c, 0, 66, 0
2, 355410, Note_on_c, 0, 64, 20
2, 355500, Note_on_c, 0, 64, 0
2, 355500, Note_on_c, 0, 62, 23
2, 355590, Note_on_c, 0, 62, 0
2, 355590, Note_on_c, 0, 64, 30
2, 355680, Note_on_c, 0, 64, 0
2, 355680, Note_on_c, 0, 62, 25
2, 355770, Note_on_c, 0, 62, 0
2, 355860, Note_on_c, 0, 71, 0
2, 355860, Note_on_c, 0, 69, 15
2, 356040, Note_on_c, 0, 69, 0
2, 356040, Note_on_c, 0, 62, 21
2, 356580, Note_on_c, 0, 62, 0
2, 356580, Note_on_c, 0, 66, 34
2, 356760, Note_on_c, 0, 66, 0
2, 356760, Note_on_c, 0, 62, 18
2, 357210, Note_on_c, 0, 62, 0
2, 357210, Note_on_c, 0, 64, 30
2, 357300, Note_on_c, 0, 64, 0
2, 357300, Note_on_c, 0, 62, 26
2, 357390, Note_on_c, 0, 62, 0
2, 357390, Note_on_c, 0, 64, 29
2, 357480, Note_on_c, 0, 64, 0
2, 357480, Note_on_c, 0, 62, 23
2, 357930, Note_on_c, 0, 62, 0
2, 357930, Note_on_c, 0, 64, 31
2, 358020, Note_on_c, 0, 64, 0
2, 358020, Note_on_c, 0, 62, 22
2, 358110, Note_on_c, 0, 62, 0
2, 358110, Note_on_c, 0, 64, 30
2, 358200, Note_on_c, 0, 64, 0
2, 358200, Note_on_c, 0, 62, 26
2, 358830, Note_on_c, 0, 62, 0
2, 358830, Note_on_c, 0, 64, 26
2, 358920, Note_on_c, 0, 64, 0
2, 358920, Note_on_c, 0, 62, 22
2, 359190, Note_on_c, 0, 62, 0
2, 359190, Note_on_c, 0, 64, 30
2, 359280, Note_on_c, 0, 64, 0
2, 359280, Note_on_c, 0, 62, 20
2, 359910, Note_on_c, 0, 62, 0
2, 359910, Note_on_c, 0, 59, 22
2, 360000, Note_on_c, 0, 59, 0
2, 360000, Note_on_c, 0, 57, 20
2, 360270, Note_on_c, 0, 57, 0
2, 364680, Note_on_c, 0, 75, 6
2, 364860, Note_on_c, 0, 75, 0
2, 364860, Note_on_c, 0, 74, 15
2, 365040, Note_on_c, 0, 74, 0
2, 365040, Note_on_c, 0, 74, 29
2, 365514, Note_on_c, 0, 74, 0
2, 365580, Note_on_c, 0, 69, 26
2, 365580, Note_on_c, 0, 81, 26
2, 365760, Note_on_c, 0, 81, 0
2, 365760, Note_on_c, 0, 69, 0
2, 366120, Note_on_c, 0, 75, 13
2, 366300, Note_on_c, 0, 75, 0
2, 366300, Note_on_c, 0, 74, 11
2, 366480, Note_on_c, 0, 74, 0
2, 366480, Note_on_c, 0, 74, 25
2, 366954, Note_on_c, 0, 74, 0
2, 367020, Note_on_c, 0, 67, 23
2, 367020, Note_on_c, 0, 79, 23
2, 367200, Note_on_c, 0, 79, 0
2, 367200, Note_on_c, 0, 67, 0
2, 367560, Note_on_c, 0, 75, 17
2, 367740, Note_on_c, 0, 75, 0
2, 367740, Note_on_c, 0, 74, 17
2, 367920, Note_on_c, 0, 74, 0
2, 367920, Note_on_c, 0, 74, 29
2, 368394, Note_on_c, 0, 74, 0
2, 368460, Note_on_c, 0, 66, 19
2, 368460, Note_on_c, 0, 78, 19
2, 368640, Note_on_c, 0, 78, 0
2, 368640, Note_on_c, 0, 66, 0
2, 369000, Note_on_c, 0, 75, 8
2, 369180, Note_on_c, 0, 75, 0
2, 369180, Note_on_c, 0, 74, 16
2, 369360, Note_on_c, 0, 74, 0
2, 369360, Note_on_c, 0, 74, 31
2, 369834, Note_on_c, 0, 74, 0
2, 369900, Note_on_c, 0, 65, 21
2, 369900, Note_on_c, 0, 77, 21
2, 370080, Note_on_c, 0, 77, 0
2, 370080, Note_on_c, 0, 65, 0
2, 373320, Note_on_c, 0, 75, 6
2, 373500, Note_on_c, 0, 75, 0
2, 373500, Note_on_c, 0, 74, 11
2, 373680, Note_on_c, 0, 74, 0
2, 373680, Note_on_c, 0, 74, 27
2, 374154, Note_on_c, 0, 74, 0
2, 374220, Note_on_c, 0, 69, 22
2, 374220, Note_on_c, 0, 81, 22
2, 374400, Note_on_c, 0, 81, 0
2, 374400, Note_on_c, 0, 69, 0
2, 374760, Note_on_c, 0, 75, 6
2, 374940, Note_on_c, 0, 75, 0
2, 374940, Note_on_c, 0, 74, 8
2, 375120, Note_on_c, 0, 74, 0
2, 375120, Note_on_c, 0, 74, 27
2, 375594, Note_on_c, 0, 74, 0
2, 375660, Note_on_c, 0, 67, 24
2, 375660, Note_on_c, 0, 79, 24
2, 375840, Note_on_c, 0, 79, 0
2, 375840, Note_on_c, 0, 67, 0
2, 376079, Note_on_c, 0, 79, 7
2, 376200, Note_on_c, 0, 79, 0
2, 376200, Note_on_c, 0, 81, 17
2, 376200, Note_on_c, 0, 69, 22
2, 376200, Note_on_c, 0, 76, 22
2, 376320, Note_on_c, 0, 81, 0
2, 376320, Note_on_c, 0, 83, 16
2, 376379, Note_on_c, 0, 76, 0
2, 376379, Note_on_c, 0, 69, 0
2, 376439, Note_on_c, 0, 83, 0
2, 376439, Note_on_c, 0, 85, 22
2, 376560, Note_on_c, 0, 85, 0
2, 376560, Note_on_c, 0, 86, 19
2, 376560, Note_on_c, 0, 69, 17
2, 376560, Note_on_c, 0, 74, 17
2, 376739, Note_on_c, 0, 74, 0
2, 376739, Note_on_c, 0, 69, 0
2, 376799, Note_on_c, 0, 86, 0
2, 376799, Note_on_c, 0, 86, 16
2, 376920, Note_on_c, 0, 86, 0
2, 376920, Note_on_c, 0, 88, 19
2, 376920, Note_on_c, 0, 69, 30
2, 376920, Note_on_c, 0, 76, 30
2, 377040, Note_on_c, 0, 88, 0
2, 377040, Note_on_c, 0, 86, 10
2, 377099, Note_on_c, 0, 76, 0
2, 377099, Note_on_c, 0, 69, 0
2, 377159, Note_on_c, 0, 86, 0
2, 377159, Note_on_c, 0, 88, 19
2, 377280, Note_on_c, 0, 88, 0
2, 377280, Note_on_c, 0, 86, 14
2, 377280, Note_on_c, 0, 69, 22
2, 377280, Note_on_c, 0, 74, 22
2, 377400, Note_on_c, 0, 74, 0
2, 377400, Note_on_c, 0, 69, 0
2, 377519, Note_on_c, 0, 67, 20
2, 377640, Note_on_c, 0, 67, 0
2, 377640, Note_on_c, 0, 86, 0
2, 377640, Note_on_c, 0, 69, 32
2, 377760, Note_on_c, 0, 69, 0
2, 377760, Note_on_c, 0, 71, 32
2, 377819, Note_on_c, 0, 71, 0
2, 377879, Note_on_c, 0, 73, 33
2, 377938, Note_on_c, 0, 73, 0
2, 378000, Note_on_c, 0, 74, 31
2, 378239, Note_on_c, 0, 74, 6
2, 378360, Note_on_c, 0, 74, 0
2, 378360, Note_on_c, 0, 74, 0
2, 378360, Note_on_c, 0, 76, 16
2, 378480, Note_on_c, 0, 76, 0
2, 378480, Note_on_c, 0, 74, 11
2, 378539, Note_on_c, 0, 74, 0
2, 378599, Note_on_c, 0, 76, 27
2, 378658, Note_on_c, 0, 76, 0
2, 378720, Note_on_c, 0, 74, 12
2, 378720, Note_on_c, 0, 62, 16
2, 378899, Note_on_c, 0, 74, 0
2, 379200, Note_on_c, 0, 62, 0
2, 379200, Note_on_c, 0, 62, 27
2, 379259, Note_on_c, 0, 62, 0
2, 379319, Note_on_c, 0, 62, 28
2, 379378, Note_on_c, 0, 62, 0
2, 379440, Note_on_c, 0, 62, 22
2, 379499, Note_on_c, 0, 62, 0
2, 379560, Note_on_c, 0, 62, 23
2, 379619, Note_on_c, 0, 62, 0
2, 379679, Note_on_c, 0, 62, 24
2, 379738, Note_on_c, 0, 62, 0
2, 379920, Note_on_c, 0, 62, 17
2, 379979, Note_on_c, 0, 62, 0
2, 380039, Note_on_c, 0, 62, 27
2, 380098, Note_on_c, 0, 62, 0
2, 380160, Note_on_c, 0, 62, 26
2, 380219, Note_on_c, 0, 62, 0
2, 380280, Note_on_c, 0, 62, 22
2, 380339, Note_on_c, 0, 62, 0
2, 380399, Note_on_c, 0, 62, 25
2, 380458, Note_on_c, 0, 62, 0
2, 380640, Note_on_c, 0, 62, 19
2, 380699, Note_on_c, 0, 62, 0
2, 380759, Note_on_c, 0, 62, 26
2, 380818, Note_on_c, 0, 62, 0
2, 380880, Note_on_c, 0, 62, 27
2, 380939, Note_on_c, 0, 62, 0
2, 381000, Note_on_c, 0, 62, 24
2, 381059, Note_on_c, 0, 62, 0
2, 381119, Note_on_c, 0, 62, 26
2, 381178, Note_on_c, 0, 62, 0
2, 381360, Note_on_c, 0, 62, 19
2, 381419, Note_on_c, 0, 62, 0
2, 381479, Note_on_c, 0, 62, 26
2, 381538, Note_on_c, 0, 62, 0
2, 381600, Note_on_c, 0, 62, 24
2, 381779, Note_on_c, 0, 62, 0
2, 381960, Note_on_c, 0, 70, 37
2, 381960, Note_on_c, 0, 82, 37
2, 382080, Note_on_c, 0, 62, 21
2, 382139, Note_on_c, 0, 62, 0
2, 382199, Note_on_c, 0, 62, 22
2, 382258, Note_on_c, 0, 62, 0
2, 382320, Note_on_c, 0, 82, 0
2, 382320, Note_on_c, 0, 70, 0
2, 382320, Note_on_c, 0, 68, 42
2, 382320, Note_on_c, 0, 80, 42
2, 382320, Note_on_c, 0, 62, 24
2, 382379, Note_on_c, 0, 62, 0
2, 382440, Note_on_c, 0, 62, 23
2, 382499, Note_on_c, 0, 62, 0
2, 382559, Note_on_c, 0, 62, 32
2, 382618, Note_on_c, 0, 62, 0
2, 382680, Note_on_c, 0, 80, 0
2, 382680, Note_on_c, 0, 68, 0
2, 382680, Note_on_c, 0, 66, 45
2, 382680, Note_on_c, 0, 78, 45
2, 382800, Note_on_c, 0, 62, 18
2, 382859, Note_on_c, 0, 62, 0
2, 382919, Note_on_c, 0, 62, 26
2, 382978, Note_on_c, 0, 62, 0
2, 383040, Note_on_c, 0, 78, 0
2, 383040, Note_on_c, 0, 66, 0
2, 383040, Note_on_c, 0, 65, 47
2, 383040, Note_on_c, 0, 77, 47
2, 383040, Note_on_c, 0, 62, 28
2, 383099, Note_on_c, 0, 62, 0
2, 383160, Note_on_c, 0, 62, 23
2, 383219, Note_on_c, 0, 62, 0
2, 383279, Note_on_c, 0, 62, 27
2, 383338, Note_on_c, 0, 62, 0
2, 383400, Note_on_c, 0, 77, 0
2, 383400, Note_on_c, 0, 65, 0
2, 383400, Note_on_c, 0, 75, 39
2, 383400, Note_on_c, 0, 63, 43
2, 383520, Note_on_c, 0, 62, 19
2, 383579, Note_on_c, 0, 62, 0
2, 383639, Note_on_c, 0, 62, 24
2, 383698, Note_on_c, 0, 62, 0
2, 383760, Note_on_c, 0, 63, 0
2, 383760, Note_on_c, 0, 75, 0
2, 383760, Note_on_c, 0, 74, 42
2, 383760, Note_on_c, 0, 62, 41
2, 383880, Note_on_c, 0, 62, 17
2, 383939, Note_on_c, 0, 62, 0
2, 383999, Note_on_c, 0, 62, 25
2, 384058, Note_on_c, 0, 62, 0
2, 384120, Note_on_c, 0, 62, 0
2, 384120, Note_on_c, 0, 74, 0
2, 384120, Note_on_c, 0, 72, 40
2, 384240, Note_on_c, 0, 62, 20
2, 384299, Note_on_c, 0, 62, 0
2, 384359, Note_on_c, 0, 62, 21
2, 384418, Note_on_c, 0, 62, 0
2, 384480, Note_on_c, 0, 72, 0
2, 384480, Note_on_c, 0, 70, 44
2, 384480, Note_on_c, 0, 62, 26
2, 384659, Note_on_c, 0, 62, 0
2, 384719, Note_on_c, 0, 70, 0
2, 384719, Note_on_c, 0, 65, 30
2, 384840, Note_on_c, 0, 65, 0
2, 384840, Note_on_c, 0, 66, 46
2, 384960, Note_on_c, 0, 66, 0
2, 384960, Note_on_c, 0, 68, 51
2, 385079, Note_on_c, 0, 68, 0
2, 385079, Note_on_c, 0, 69, 55
2, 385200, Note_on_c, 0, 69, 0
2, 385200, Note_on_c, 0, 70, 58
2, 385439, Note_on_c, 0, 70, 0
2, 385439, Note_on_c, 0, 70, 48
2, 385560, Note_on_c, 0, 70, 0
2, 385560, Note_on_c, 0, 71, 52
2, 385680, Note_on_c, 0, 71, 0
2, 385680, Note_on_c, 0, 70, 42
2, 385799, Note_on_c, 0, 70, 0
2, 385799, Note_on_c, 0, 71, 45
2, 385920, Note_on_c, 0, 71, 0
2, 385920, Note_on_c, 0, 70, 43
2, 386280, Note_on_c, 0, 70, 0
2, 386640, Note_on_c, 0, 65, 22
2, 387000, Note_on_c, 0, 65, 0
2, 387000, Note_on_c, 0, 77, 39
2, 387000, Note_on_c, 0, 74, 16
2, 387120, Note_on_c, 0, 74, 0
2, 387120, Note_on_c, 0, 75, 24
2, 387239, Note_on_c, 0, 75, 0
2, 387239, Note_on_c, 0, 77, 29
2, 387360, Note_on_c, 0, 77, 0
2, 387360, Note_on_c, 0, 77, 0
2, 387360, Note_on_c, 0, 79, 53
2, 387360, Note_on_c, 0, 75, 18
2, 387599, Note_on_c, 0, 75, 0
2, 387599, Note_on_c, 0, 77, 28
2, 387720, Note_on_c, 0, 77, 0
2, 387720, Note_on_c, 0, 75, 24
2, 387959, Note_on_c, 0, 74, 20
2, 388080, Note_on_c, 0, 74, 0
2, 388080, Note_on_c, 0, 72, 23
2, 388319, Note_on_c, 0, 72, 0
2, 388319, Note_on_c, 0, 70, 23
2, 388440, Note_on_c, 0, 70, 0
2, 388440, Note_on_c, 0, 75, 0
2, 388440, Note_on_c, 0, 79, 0
2, 388440, Note_on_c, 0, 72, 37
2, 388440, Note_on_c, 0, 75, 37
2, 388440, Note_on_c, 0, 68, 21
2, 388679, Note_on_c, 0, 68, 0
2, 388679, Note_on_c, 0, 67, 21
2, 388800, Note_on_c, 0, 67, 0
2, 388800, Note_on_c, 0, 75, 0
2, 388800, Note_on_c, 0, 72, 0
2, 388800, Note_on_c, 0, 74, 52
2, 388800, Note_on_c, 0, 77, 52
2, 388800, Note_on_c, 0, 65, 33
2, 389749, Note_on_c, 0, 65, 0
2, 389880, Note_on_c, 0, 77, 0
2, 389880, Note_on_c, 0, 74, 0
2, 389880, Note_on_c, 0, 70, 39
2, 389880, Note_on_c, 0, 74, 39
2, 389880, Note_on_c, 0, 62, 19
2, 390240, Note_on_c, 0, 62, 0
2, 390240, Note_on_c, 0, 74, 0
2, 390240, Note_on_c, 0, 70, 0
2, 390240, Note_on_c, 0, 72, 45
2, 390240, Note_on_c, 0, 75, 45
2, 390240, Note_on_c, 0, 63, 27
2, 391320, Note_on_c, 0, 63, 0
2, 391320, Note_on_c, 0, 75, 0
2, 391320, Note_on_c, 0, 72, 0
2, 391320, Note_on_c, 0, 69, 42
2, 391320, Note_on_c, 0, 72, 42
2, 391320, Note_on_c, 0, 60, 16
2, 391680, Note_on_c, 0, 60, 0
2, 391680, Note_on_c, 0, 72, 0
2, 391680, Note_on_c, 0, 69, 0
2, 391680, Note_on_c, 0, 70, 51
2, 391680, Note_on_c, 0, 74, 51
2, 391680, Note_on_c, 0, 62, 30
2, 391919, Note_on_c, 0, 62, 0
2, 391919, Note_on_c, 0, 62, 21
2, 392040, Note_on_c, 0, 62, 0
2, 392040, Note_on_c, 0, 74, 0
2, 392040, Note_on_c, 0, 70, 0
2, 392040, Note_on_c, 0, 60, 22
2, 392160, Note_on_c, 0, 60, 0
2, 392160, Note_on_c, 0, 62, 31
2, 392219, Note_on_c, 0, 62, 0
2, 392279, Note_on_c, 0, 60, 21
2, 392338, Note_on_c, 0, 60, 0
2, 392400, Note_on_c, 0, 62, 27
2, 392518, Note_on_c, 0, 62, 0
2, 392639, Note_on_c, 0, 63, 26
2, 392760, Note_on_c, 0, 63, 0
2, 392760, Note_on_c, 0, 65, 29
2, 392880, Note_on_c, 0, 65, 0
2, 392880, Note_on_c, 0, 67, 29
2, 392939, Note_on_c, 0, 67, 0
2, 392999, Note_on_c, 0, 65, 22
2, 393058, Note_on_c, 0, 65, 0
2, 393120, Note_on_c, 0, 67, 29
2, 393179, Note_on_c, 0, 67, 0
2, 393240, Note_on_c, 0, 69, 33
2, 393299, Note_on_c, 0, 69, 0
2, 393359, Note_on_c, 0, 70, 30
2, 393418, Note_on_c, 0, 70, 0
2, 393480, Note_on_c, 0, 72, 34
2, 393539, Note_on_c, 0, 72, 0
2, 393600, Note_on_c, 0, 74, 29
2, 393659, Note_on_c, 0, 74, 0
2, 393719, Note_on_c, 0, 72, 24
2, 393778, Note_on_c, 0, 72, 0
2, 393840, Note_on_c, 0, 74, 24
2, 394019, Note_on_c, 0, 74, 0
2, 394200, Note_on_c, 0, 85, 44
2, 394200, Note_on_c, 0, 73, 32
2, 394200, Note_on_c, 0, 76, 32
2, 394320, Note_on_c, 0, 85, 0
2, 394320, Note_on_c, 0, 86, 44
2, 394439, Note_on_c, 0, 86, 0
2, 394439, Note_on_c, 0, 88, 61
2, 394560, Note_on_c, 0, 88, 0
2, 394560, Note_on_c, 0, 76, 0
2, 394560, Note_on_c, 0, 73, 0
2, 394560, Note_on_c, 0, 90, 52
2, 394560, Note_on_c, 0, 74, 29
2, 394560, Note_on_c, 0, 78, 29
2, 394799, Note_on_c, 0, 90, 0
2, 394799, Note_on_c, 0, 88, 42
2, 394920, Note_on_c, 0, 88, 0
2, 394920, Note_on_c, 0, 86, 44
2, 394920, Note_on_c, 0, 73, 13
2, 395040, Note_on_c, 0, 73, 0
2, 395040, Note_on_c, 0, 74, 21
2, 395159, Note_on_c, 0, 86, 0
2, 395159, Note_on_c, 0, 74, 0
2, 395159, Note_on_c, 0, 85, 39
2, 395159, Note_on_c, 0, 76, 18
2, 395280, Note_on_c, 0, 76, 0
2, 395280, Note_on_c, 0, 85, 0
2, 395280, Note_on_c, 0, 83, 42
2, 395280, Note_on_c, 0, 78, 16
2, 395519, Note_on_c, 0, 83, 0
2, 395519, Note_on_c, 0, 81, 42
2, 395640, Note_on_c, 0, 81, 0
2, 395640, Note_on_c, 0, 78, 0
2, 395640, Note_on_c, 0, 78, 0
2, 395640, Note_on_c, 0, 74, 0
2, 395640, Note_on_c, 0, 79, 40
2, 395640, Note_on_c, 0, 71, 21
2, 395640, Note_on_c, 0, 74, 21
2, 395879, Note_on_c, 0, 79, 0
2, 395879, Note_on_c, 0, 78, 46
2, 396000, Note_on_c, 0, 78, 0
2, 396000, Note_on_c, 0, 74, 0
2, 396000, Note_on_c, 0, 71, 0
2, 396000, Note_on_c, 0, 73, 46
2, 396000, Note_on_c, 0, 76, 46
2, 396000, Note_on_c, 0, 64, 25
2, 396317, Note_on_c, 0, 64, 0
2, 396480, Note_on_c, 0, 62, 19
2, 396599, Note_on_c, 0, 62, 0
2, 396599, Note_on_c, 0, 64, 25
2, 396720, Note_on_c, 0, 64, 0
2, 396720, Note_on_c, 0, 66, 32
2, 396840, Note_on_c, 0, 66, 0
2, 396840, Note_on_c, 0, 62, 20
2, 396959, Note_on_c, 0, 62, 0
2, 396959, Note_on_c, 0, 64, 28
2, 397080, Note_on_c, 0, 64, 0
2, 397080, Note_on_c, 0, 76, 0
2, 397080, Note_on_c, 0, 73, 0
2, 397080, Note_on_c, 0, 70, 39
2, 397080, Note_on_c, 0, 73, 39
2, 397080, Note_on_c, 0, 66, 26
2, 397319, Note_on_c, 0, 66, 0
2, 397319, Note_on_c, 0, 64, 25
2, 397440, Note_on_c, 0, 64, 0
2, 397440, Note_on_c, 0, 73, 0
2, 397440, Note_on_c, 0, 70, 0
2, 397440, Note_on_c, 0, 71, 50
2, 397440, Note_on_c, 0, 74, 50
2, 397440, Note_on_c, 0, 62, 23
2, 398520, Note_on_c, 0, 62, 0
2, 398520, Note_on_c, 0, 74, 0
2, 398520, Note_on_c, 0, 71, 0
2, 398520, Note_on_c, 0, 68, 42
2, 398520, Note_on_c, 0, 71, 42
2, 398520, Note_on_c, 0, 59, 26
2, 398880, Note_on_c, 0, 59, 0
2, 398880, Note_on_c, 0, 71, 0
2, 398880, Note_on_c, 0, 68, 0
2, 398880, Note_on_c, 0, 70, 55
2, 398880, Note_on_c, 0, 73, 55
2, 398880, Note_on_c, 0, 61, 29
2, 399119, Note_on_c, 0, 61, 0
2, 399119, Note_on_c, 0, 64, 34
2, 399240, Note_on_c, 0, 64, 0
2, 399240, Note_on_c, 0, 73, 0
2, 399240, Note_on_c, 0, 70, 0
2, 399240, Note_on_c, 0, 62, 22
2, 399360, Note_on_c, 0, 62, 0
2, 399360, Note_on_c, 0, 61, 26
2, 399419, Note_on_c, 0, 61, 0
2, 399479, Note_on_c, 0, 62, 30
2, 399538, Note_on_c, 0, 62, 0
2, 399600, Note_on_c, 0, 61, 21
2, 399718, Note_on_c, 0, 61, 0
2, 399839, Note_on_c, 0, 62, 29
2, 399960, Note_on_c, 0, 62, 0
2, 399960, Note_on_c, 0, 64, 30
2, 400080, Note_on_c, 0, 64, 0
2, 400080, Note_on_c, 0, 66, 31
2, 400139, Note_on_c, 0, 66, 0
2, 400199, Note_on_c, 0, 64, 23
2, 400258, Note_on_c, 0, 64, 0
2, 400320, Note_on_c, 0, 66, 30
2, 400379, Note_on_c, 0, 66, 0
2, 400440, Note_on_c, 0, 68, 38
2, 400559, Note_on_c, 0, 68, 0
2, 400559, Note_on_c, 0, 69, 45
2, 400680, Note_on_c, 0, 69, 0
2, 400680, Note_on_c, 0, 71, 54
2, 400739, Note_on_c, 0, 71, 0
2, 400800, Note_on_c, 0, 73, 55
2, 400859, Note_on_c, 0, 73, 0
2, 400919, Note_on_c, 0, 71, 42
2, 400978, Note_on_c, 0, 71, 0
2, 401040, Note_on_c, 0, 73, 58
2, 401219, Note_on_c, 0, 73, 0
2, 401400, Note_on_c, 0, 75, 52
2, 401400, Note_on_c, 0, 63, 18
2, 401459, Note_on_c, 0, 63, 0
2, 401459, Note_on_c, 0, 75, 0
2, 401520, Note_on_c, 0, 77, 55
2, 401520, Note_on_c, 0, 65, 30
2, 401579, Note_on_c, 0, 65, 0
2, 401579, Note_on_c, 0, 77, 0
2, 401639, Note_on_c, 0, 75, 44
2, 401639, Note_on_c, 0, 63, 23
2, 401698, Note_on_c, 0, 63, 0
2, 401698, Note_on_c, 0, 75, 0
2, 401760, Note_on_c, 0, 77, 51
2, 401760, Note_on_c, 0, 65, 28
2, 401939, Note_on_c, 0, 65, 0
2, 401939, Note_on_c, 0, 77, 0
2, 402960, Note_on_c, 0, 59, 22
2, 403019, Note_on_c, 0, 59, 0
2, 403079, Note_on_c, 0, 60, 27
2, 403138, Note_on_c, 0, 60, 0
2, 403200, Note_on_c, 0, 61, 30
2, 403439, Note_on_c, 0, 61, 0
2, 403439, Note_on_c, 0, 65, 34
2, 403560, Note_on_c, 0, 65, 0
2, 403560, Note_on_c, 0, 66, 30
2, 403680, Note_on_c, 0, 66, 0
2, 403680, Note_on_c, 0, 65, 27
2, 403739, Note_on_c, 0, 65, 0
2, 403799, Note_on_c, 0, 66, 30
2, 403858, Note_on_c, 0, 66, 0
2, 403920, Note_on_c, 0, 65, 27
2, 404038, Note_on_c, 0, 65, 0
2, 404159, Note_on_c, 0, 68, 29
2, 404280, Note_on_c, 0, 68, 0
2, 404280, Note_on_c, 0, 85, 41
2, 404280, Note_on_c, 0, 70, 25
2, 404400, Note_on_c, 0, 70, 0
2, 404400, Note_on_c, 0, 71, 31
2, 404459, Note_on_c, 0, 71, 0
2, 404460, Note_on_c, 0, 85, 0
2, 404460, Note_on_c, 0, 87, 51
2, 404519, Note_on_c, 0, 72, 31
2, 404578, Note_on_c, 0, 72, 0
2, 404640, Note_on_c, 0, 87, 0
2, 404640, Note_on_c, 0, 89, 56
2, 404640, Note_on_c, 0, 73, 30
2, 404820, Note_on_c, 0, 89, 0
2, 404820, Note_on_c, 0, 87, 39
2, 404879, Note_on_c, 0, 73, 0
2, 404879, Note_on_c, 0, 70, 20
2, 405000, Note_on_c, 0, 70, 0
2, 405000, Note_on_c, 0, 87, 0
2, 405000, Note_on_c, 0, 85, 47
2, 405000, Note_on_c, 0, 69, 22
2, 405120, Note_on_c, 0, 69, 0
2, 405120, Note_on_c, 0, 70, 30
2, 405179, Note_on_c, 0, 70, 0
2, 405180, Note_on_c, 0, 85, 0
2, 405180, Note_on_c, 0, 87, 53
2, 405239, Note_on_c, 0, 69, 20
2, 405298, Note_on_c, 0, 69, 0
2, 405360, Note_on_c, 0, 87, 0
2, 405360, Note_on_c, 0, 85, 43
2, 405360, Note_on_c, 0, 70, 30
2, 405539, Note_on_c, 0, 70, 0
2, 405540, Note_on_c, 0, 85, 0
2, 405540, Note_on_c, 0, 78, 33
2, 405720, Note_on_c, 0, 78, 0
2, 405720, Note_on_c, 0, 77, 42
2, 405840, Note_on_c, 0, 59, 18
2, 405899, Note_on_c, 0, 59, 0
2, 405900, Note_on_c, 0, 77, 0
2, 405900, Note_on_c, 0, 78, 54
2, 405959, Note_on_c, 0, 60, 29
2, 406018, Note_on_c, 0, 60, 0
2, 406080, Note_on_c, 0, 78, 0
2, 406080, Note_on_c, 0, 77, 53
2, 406080, Note_on_c, 0, 61, 32
2, 406260, Note_on_c, 0, 77, 0
2, 406260, Note_on_c, 0, 72, 36
2, 406319, Note_on_c, 0, 61, 0
2, 406319, Note_on_c, 0, 65, 33
2, 406440, Note_on_c, 0, 65, 0
2, 406440, Note_on_c, 0, 72, 0
2, 406440, Note_on_c, 0, 70, 40
2, 406440, Note_on_c, 0, 66, 26
2, 406560, Note_on_c, 0, 66, 0
2, 406560, Note_on_c, 0, 65, 23
2, 406619, Note_on_c, 0, 65, 0
2, 406679, Note_on_c, 0, 66, 31
2, 406738, Note_on_c, 0, 66, 0
2, 406800, Note_on_c, 0, 70, 0
2, 406800, Note_on_c, 0, 65, 24
2, 406979, Note_on_c, 0, 65, 0
2, 408720, Note_on_c, 0, 59, 20
2, 408779, Note_on_c, 0, 59, 0
2, 408839, Note_on_c, 0, 59, 24
2, 408898, Note_on_c, 0, 59, 0
2, 408960, Note_on_c, 0, 60, 30
2, 409199, Note_on_c, 0, 60, 0
2, 409199, Note_on_c, 0, 60, 27
2, 409320, Note_on_c, 0, 60, 0
2, 409320, Note_on_c, 0, 62, 27
2, 409440, Note_on_c, 0, 62, 0
2, 409440, Note_on_c, 0, 63, 27
2, 409499, Note_on_c, 0, 63, 0
2, 409559, Note_on_c, 0, 64, 25
2, 409618, Note_on_c, 0, 64, 0
2, 409680, Note_on_c, 0, 65, 31
2, 409798, Note_on_c, 0, 65, 0
2, 409919, Note_on_c, 0, 65, 25
2, 410040, Note_on_c, 0, 65, 0
2, 410040, Note_on_c, 0, 73, 40
2, 410040, Note_on_c, 0, 67, 27
2, 410160, Note_on_c, 0, 67, 0
2, 410160, Note_on_c, 0, 65, 24
2, 410219, Note_on_c, 0, 65, 0
2, 410220, Note_on_c, 0, 73, 0
2, 410220, Note_on_c, 0, 75, 51
2, 410279, Note_on_c, 0, 67, 29
2, 410338, Note_on_c, 0, 67, 0
2, 410400, Note_on_c, 0, 75, 0
2, 410400, Note_on_c, 0, 77, 52
2, 410400, Note_on_c, 0, 65, 2
2, 410580, Note_on_c, 0, 73, 19
2, 410639, Note_on_c, 0, 77, 0
2, 410639, Note_on_c, 0, 77, 50
2, 410760, Note_on_c, 0, 77, 0
2, 410760, Note_on_c, 0, 73, 0
2, 410760, Note_on_c, 0, 65, 0
2, 410760, Note_on_c, 0, 79, 58
2, 410760, Note_on_c, 0, 72, 21
2, 410880, Note_on_c, 0, 79, 0
2, 410880, Note_on_c, 0, 77, 43
2, 410939, Note_on_c, 0, 77, 0
2, 410940, Note_on_c, 0, 72, 0
2, 410940, Note_on_c, 0, 73, 30
2, 410999, Note_on_c, 0, 79, 49
2, 411058, Note_on_c, 0, 79, 0
2, 411120, Note_on_c, 0, 73, 0
2, 411120, Note_on_c, 0, 80, 50
2, 411120, Note_on_c, 0, 72, 24
2, 411238, Note_on_c, 0, 80, 0
2, 411300, Note_on_c, 0, 72, 0
2, 411300, Note_on_c, 0, 67, 14
2, 411359, Note_on_c, 0, 68, 27
2, 411480, Note_on_c, 0, 68, 0
2, 411480, Note_on_c, 0, 67, 0
2, 411480, Note_on_c, 0, 70, 51
2, 411480, Note_on_c, 0, 65, 18
2, 411539, Note_on_c, 0, 70, 0
2, 411600, Note_on_c, 0, 68, 44
2, 411659, Note_on_c, 0, 68, 0
2, 411660, Note_on_c, 0, 65, 0
2, 411660, Note_on_c, 0, 67, 26
2, 411719, Note_on_c, 0, 70, 50
2, 411840, Note_on_c, 0, 70, 0
2, 411840, Note_on_c, 0, 67, 0
2, 411840, Note_on_c, 0, 68, 44
2, 411840, Note_on_c, 0, 65, 23
2, 412019, Note_on_c, 0, 68, 0
2, 412200, Note_on_c, 0, 65, 0
2, 413460, Note_on_c, 0, 85, 35
2, 413640, Note_on_c, 0, 85, 0
2, 413640, Note_on_c, 0, 86, 52
2, 413640, Note_on_c, 0, 65, 17
2, 413820, Note_on_c, 0, 86, 0
2, 413820, Note_on_c, 0, 88, 53
2, 414000, Note_on_c, 0, 88, 0
2, 414000, Note_on_c, 0, 89, 53
2, 414180, Note_on_c, 0, 89, 0
2, 414180, Note_on_c, 0, 88, 44
2, 414360, Note_on_c, 0, 88, 0
2, 414360, Note_on_c, 0, 65, 0
2, 414360, Note_on_c, 0, 86, 44
2, 414360, Note_on_c, 0, 64, 13
2, 414540, Note_on_c, 0, 86, 0
2, 414540, Note_on_c, 0, 76, 22
2, 414720, Note_on_c, 0, 76, 0
2, 414720, Note_on_c, 0, 74, 19
2, 414900, Note_on_c, 0, 74, 0
2, 414900, Note_on_c, 0, 64, 0
2, 414900, Note_on_c, 0, 84, 35
2, 415080, Note_on_c, 0, 84, 0
2, 415080, Note_on_c, 0, 83, 46
2, 415260, Note_on_c, 0, 83, 0
2, 415260, Note_on_c, 0, 72, 15
2, 415440, Note_on_c, 0, 72, 0
2, 415440, Note_on_c, 0, 71, 21
2, 415440, Note_on_c, 0, 63, 11
2, 415620, Note_on_c, 0, 71, 0
2, 415620, Note_on_c, 0, 81, 38
2, 415800, Note_on_c, 0, 81, 0
2, 415800, Note_on_c, 0, 63, 0
2, 415800, Note_on_c, 0, 80, 41
2, 415800, Note_on_c, 0, 64, 15
2, 415980, Note_on_c, 0, 80, 0
2, 415980, Note_on_c, 0, 81, 57
2, 416160, Note_on_c, 0, 81, 0
2, 416160, Note_on_c, 0, 64, 0
2, 416160, Note_on_c, 0, 80, 42
2, 416160, Note_on_c, 0, 65, 16
2, 416280, Note_on_c, 0, 71, 21
2, 416399, Note_on_c, 0, 71, 0
2, 416399, Note_on_c, 0, 72, 27
2, 416520, Note_on_c, 0, 72, 0
2, 416520, Note_on_c, 0, 80, 0
2, 416520, Note_on_c, 0, 86, 65
2, 416520, Note_on_c, 0, 74, 16
2, 416520, Note_on_c, 0, 68, 20
2, 416640, Note_on_c, 0, 74, 0
2, 416640, Note_on_c, 0, 77, 30
2, 416699, Note_on_c, 0, 86, 0
2, 416759, Note_on_c, 0, 77, 0
2, 416759, Note_on_c, 0, 74, 17
2, 416880, Note_on_c, 0, 74, 0
2, 416880, Note_on_c, 0, 68, 0
2, 416880, Note_on_c, 0, 84, 44
2, 416880, Note_on_c, 0, 76, 29
2, 416880, Note_on_c, 0, 69, 26
2, 417000, Note_on_c, 0, 76, 0
2, 417000, Note_on_c, 0, 72, 22
2, 417059, Note_on_c, 0, 84, 0
2, 417119, Note_on_c, 0, 72, 0
2, 417119, Note_on_c, 0, 76, 26
2, 417240, Note_on_c, 0, 76, 0
2, 417240, Note_on_c, 0, 69, 0
2, 417240, Note_on_c, 0, 83, 45
2, 417240, Note_on_c, 0, 74, 23
2, 417240, Note_on_c, 0, 71, 32
2, 417360, Note_on_c, 0, 74, 0
2, 417360, Note_on_c, 0, 77, 34
2, 417419, Note_on_c, 0, 83, 0
2, 417479, Note_on_c, 0, 77, 0
2, 417479, Note_on_c, 0, 74, 24
2, 417600, Note_on_c, 0, 74, 0
2, 417600, Note_on_c, 0, 65, 0
2, 417600, Note_on_c, 0, 71, 0
2, 417600, Note_on_c, 0, 81, 43
2, 417600, Note_on_c, 0, 72, 19
2, 417600, Note_on_c, 0, 64, 14
2, 417720, Note_on_c, 0, 72, 0
2, 417720, Note_on_c, 0, 76, 31
2, 417779, Note_on_c, 0, 81, 0
2, 417839, Note_on_c, 0, 76, 0
2, 417839, Note_on_c, 0, 72, 20
2, 417960, Note_on_c, 0, 72, 0
2, 417960, Note_on_c, 0, 64, 0
2, 417960, Note_on_c, 0, 80, 46
2, 417960, Note_on_c, 0, 74, 30
2, 417960, Note_on_c, 0, 65, 25
2, 418080, Note_on_c, 0, 74, 0
2, 418080, Note_on_c, 0, 77, 31
2, 418139, Note_on_c, 0, 80, 0
2, 418199, Note_on_c, 0, 77, 0
2, 418199, Note_on_c, 0, 74, 20
2, 418320, Note_on_c, 0, 74, 0
2, 418320, Note_on_c, 0, 77, 43
2, 418320, Note_on_c, 0, 71, 23
2, 418320, Note_on_c, 0, 67, 31
2, 418440, Note_on_c, 0, 71, 0
2, 418440, Note_on_c, 0, 74, 30
2, 418499, Note_on_c, 0, 77, 0
2, 418559, Note_on_c, 0, 74, 0
2, 418680, Note_on_c, 0, 65, 0
2, 418680, Note_on_c, 0, 67, 0
2, 418680, Note_on_c, 0, 76, 32
2, 418680, Note_on_c, 0, 64, 28
2, 418680, Note_on_c, 0, 68, 28
2, 418919, Note_on_c, 0, 76, 0
2, 418919, Note_on_c, 0, 76, 24
2, 419040, Note_on_c, 0, 76, 0
2, 419040, Note_on_c, 0, 68, 0
2, 419040, Note_on_c, 0, 64, 0
2, 419040, Note_on_c, 0, 75, 37
2, 419040, Note_on_c, 0, 63, 26
2, 419040, Note_on_c, 0, 70, 26
2, 419129, Note_on_c, 0, 75, 0
2, 419220, Note_on_c, 0, 72, 43
2, 419400, Note_on_c, 0, 72, 0
2, 419400, Note_on_c, 0, 70, 0
2, 419400, Note_on_c, 0, 63, 0
2, 419400, Note_on_c, 0, 73, 51
2, 419400, Note_on_c, 0, 64, 16
2, 419580, Note_on_c, 0, 73, 0
2, 419580, Note_on_c, 0, 75, 53
2, 419760, Note_on_c, 0, 75, 0
2, 419760, Note_on_c, 0, 76, 57
2, 419760, Note_on_c, 0, 68, 45
2, 419880, Note_on_c, 0, 68, 0
2, 419880, Note_on_c, 0, 67, 22
2, 419940, Note_on_c, 0, 76, 0
2, 419940, Note_on_c, 0, 84, 63
2, 419999, Note_on_c, 0, 67, 0
2, 419999, Note_on_c, 0, 68, 26
2, 420120, Note_on_c, 0, 68, 0
2, 420120, Note_on_c, 0, 84, 0
2, 420120, Note_on_c, 0, 64, 0
2, 420120, Note_on_c, 0, 85, 54
2, 420120, Note_on_c, 0, 67, 25
2, 420120, Note_on_c, 0, 63, 14
2, 420300, Note_on_c, 0, 85, 0
2, 420300, Note_on_c, 0, 87, 54
2, 420480, Note_on_c, 0, 87, 0
2, 420480, Note_on_c, 0, 67, 0
2, 420480, Note_on_c, 0, 88, 56
2, 420480, Note_on_c, 0, 68, 52
2, 420600, Note_on_c, 0, 68, 0
2, 420600, Note_on_c, 0, 67, 22
2, 420660, Note_on_c, 0, 88, 0
2, 420660, Note_on_c, 0, 63, 0
2, 420660, Note_on_c, 0, 87, 43
2, 420719, Note_on_c, 0, 67, 0
2, 420719, Note_on_c, 0, 68, 27
2, 420840, Note_on_c, 0, 68, 0
2, 420840, Note_on_c, 0, 87, 0
2, 420840, Note_on_c, 0, 85, 41
2, 420840, Note_on_c, 0, 67, 15
2, 421020, Note_on_c, 0, 85, 0
2, 421020, Note_on_c, 0, 75, 29
2, 421020, Note_on_c, 0, 71, 19
2, 421200, Note_on_c, 0, 71, 0
2, 421200, Note_on_c, 0, 75, 0
2, 421200, Note_on_c, 0, 67, 0
2, 421200, Note_on_c, 0, 73, 34
2, 421200, Note_on_c, 0, 70, 23
2, 421200, Note_on_c, 0, 68, 41
2, 421320, Note_on_c, 0, 68, 0
2, 421320, Note_on_c, 0, 67, 13
2, 421380, Note_on_c, 0, 70, 0
2, 421380, Note_on_c, 0, 73, 0
2, 421380, Note_on_c, 0, 83, 64
2, 421439, Note_on_c, 0, 67, 0
2, 421439, Note_on_c, 0, 68, 19
2, 421560, Note_on_c, 0, 68, 0
2, 421560, Note_on_c, 0, 83, 0
2, 421560, Note_on_c, 0, 82, 47
2, 421560, Note_on_c, 0, 67, 10
2, 421740, Note_on_c, 0, 82, 0
2, 421740, Note_on_c, 0, 71, 26
2, 421740, Note_on_c, 0, 68, 19
2, 421920, Note_on_c, 0, 68, 0
2, 421920, Note_on_c, 0, 71, 0
2, 421920, Note_on_c, 0, 67, 0
2, 421920, Note_on_c, 0, 70, 38
2, 421920, Note_on_c, 0, 67, 26
2, 422100, Note_on_c, 0, 70, 0
2, 422100, Note_on_c, 0, 80, 62
2, 422280, Note_on_c, 0, 80, 0
2, 422280, Note_on_c, 0, 67, 0
2, 422280, Note_on_c, 0, 79, 46
2, 422280, Note_on_c, 0, 67, 38
2, 422280, Note_on_c, 0, 73, 38
2, 422460, Note_on_c, 0, 79, 0
2, 422460, Note_on_c, 0, 80, 50
2, 422640, Note_on_c, 0, 80, 0
2, 422640, Note_on_c, 0, 73, 0
2, 422640, Note_on_c, 0, 67, 0
2, 422640, Note_on_c, 0, 79, 43
2, 422640, Note_on_c, 0, 68, 22
2, 422640, Note_on_c, 0, 71, 22
2, 423000, Note_on_c, 0, 71, 0
2, 423000, Note_on_c, 0, 68, 0
2, 423000, Note_on_c, 0, 79, 0
2, 423000, Note_on_c, 0, 70, 27
2, 423360, Note_on_c, 0, 70, 0
2, 423360, Note_on_c, 0, 71, 32
2, 423360, Note_on_c, 0, 68, 15
2, 423720, Note_on_c, 0, 68, 0
2, 423720, Note_on_c, 0, 71, 0
2, 423720, Note_on_c, 0, 73, 25
2, 423720, Note_on_c, 0, 67, 11
2, 424080, Note_on_c, 0, 67, 0
2, 424080, Note_on_c, 0, 66, 10
2, 424440, Note_on_c, 0, 66, 0
2, 424440, Note_on_c, 0, 67, 12
2, 424800, Note_on_c, 0, 67, 0
2, 424800, Note_on_c, 0, 73, 0
2, 424800, Note_on_c, 0, 69, 29
2, 424800, Note_on_c, 0, 74, 29
2, 425039, Note_on_c, 0, 84, 39
2, 425160, Note_on_c, 0, 84, 0
2, 425160, Note_on_c, 0, 74, 0
2, 425160, Note_on_c, 0, 69, 0
2, 425160, Note_on_c, 0, 85, 51
2, 425160, Note_on_c, 0, 66, 31
2, 425160, Note_on_c, 0, 74, 31
2, 425160, Note_on_c, 0, 78, 31
2, 425280, Note_on_c, 0, 85, 0
2, 425280, Note_on_c, 0, 86, 48
2, 425339, Note_on_c, 0, 86, 0
2, 425339, Note_on_c, 0, 78, 0
2, 425339, Note_on_c, 0, 74, 0
2, 425339, Note_on_c, 0, 66, 0
2, 425399, Note_on_c, 0, 85, 46
2, 425458, Note_on_c, 0, 85, 0
2, 425520, Note_on_c, 0, 86, 52
2, 425520, Note_on_c, 0, 67, 28
2, 425520, Note_on_c, 0, 74, 28
2, 425520, Note_on_c, 0, 79, 28
2, 425638, Note_on_c, 0, 86, 0
2, 425699, Note_on_c, 0, 67, 0
2, 425699, Note_on_c, 0, 74, 0
2, 425699, Note_on_c, 0, 79, 0
2, 425759, Note_on_c, 0, 76, 23
2, 425818, Note_on_c, 0, 76, 0
2, 425880, Note_on_c, 0, 78, 52
2, 425880, Note_on_c, 0, 66, 16
2, 425880, Note_on_c, 0, 72, 16
2, 425880, Note_on_c, 0, 74, 16
2, 425939, Note_on_c, 0, 78, 0
2, 426000, Note_on_c, 0, 79, 57
2, 426059, Note_on_c, 0, 79, 0
2, 426059, Note_on_c, 0, 74, 0
2, 426059, Note_on_c, 0, 72, 0
2, 426059, Note_on_c, 0, 66, 0
2, 426119, Note_on_c, 0, 78, 43
2, 426178, Note_on_c, 0, 78, 0
2, 426240, Note_on_c, 0, 79, 50
2, 426240, Note_on_c, 0, 67, 26
2, 426240, Note_on_c, 0, 70, 26
2, 426240, Note_on_c, 0, 74, 26
2, 426358, Note_on_c, 0, 74, 0
2, 426358, Note_on_c, 0, 70, 0
2, 426358, Note_on_c, 0, 67, 0
2, 426479, Note_on_c, 0, 72, 21
2, 426600, Note_on_c, 0, 72, 0
2, 426600, Note_on_c, 0, 79, 0
2, 426600, Note_on_c, 0, 73, 30
2, 426720, Note_on_c, 0, 73, 0
2, 426720, Note_on_c, 0, 74, 30
2, 426779, Note_on_c, 0, 74, 0
2, 426839, Note_on_c, 0, 73, 24
2, 426898, Note_on_c, 0, 73, 0
2, 426960, Note_on_c, 0, 74, 29
2, 427139, Note_on_c, 0, 74, 0
2, 427199, Note_on_c, 0, 79, 41
2, 427258, Note_on_c, 0, 79, 0
2, 427320, Note_on_c, 0, 81, 53
2, 427320, Note_on_c, 0, 66, 34
2, 427320, Note_on_c, 0, 69, 34
2, 427320, Note_on_c, 0, 78, 34
2, 427379, Note_on_c, 0, 81, 0
2, 427440, Note_on_c, 0, 82, 54
2, 427499, Note_on_c, 0, 82, 0
2, 427499, Note_on_c, 0, 78, 0
2, 427499, Note_on_c, 0, 69, 0
2, 427499, Note_on_c, 0, 66, 0
2, 427559, Note_on_c, 0, 84, 56
2, 427618, Note_on_c, 0, 84, 0
2, 427680, Note_on_c, 0, 85, 46
2, 427680, Note_on_c, 0, 65, 25
2, 427680, Note_on_c, 0, 73, 25
2, 427680, Note_on_c, 0, 77, 25
2, 427859, Note_on_c, 0, 77, 0
2, 427859, Note_on_c, 0, 73, 0
2, 427859, Note_on_c, 0, 65, 0
2, 427919, Note_on_c, 0, 85, 0
2, 427919, Note_on_c, 0, 83, 44
2, 428040, Note_on_c, 0, 83, 0
2, 428040, Note_on_c, 0, 84, 55
2, 428040, Note_on_c, 0, 65, 29
2, 428040, Note_on_c, 0, 73, 29
2, 428040, Note_on_c, 0, 77, 29
2, 428160, Note_on_c, 0, 84, 0
2, 428160, Note_on_c, 0, 85, 49
2, 428219, Note_on_c, 0, 85, 0
2, 428219, Note_on_c, 0, 77, 0
2, 428219, Note_on_c, 0, 73, 0
2, 428219, Note_on_c, 0, 65, 0
2, 428279, Note_on_c, 0, 84, 48
2, 428338, Note_on_c, 0, 84, 0
2, 428400, Note_on_c, 0, 85, 56
2, 428400, Note_on_c, 0, 66, 30
2, 428400, Note_on_c, 0, 73, 30
2, 428400, Note_on_c, 0, 78, 30
2, 428518, Note_on_c, 0, 85, 0
2, 428579, Note_on_c, 0, 66, 0
2, 428579, Note_on_c, 0, 73, 0
2, 428579, Note_on_c, 0, 78, 0
2, 428639, Note_on_c, 0, 75, 31
2, 428698, Note_on_c, 0, 75, 0
2, 428760, Note_on_c, 0, 77, 54
2, 428760, Note_on_c, 0, 65, 21
2, 428760, Note_on_c, 0, 71, 21
2, 428760, Note_on_c, 0, 73, 21
2, 428819, Note_on_c, 0, 77, 0
2, 428880, Note_on_c, 0, 78, 49
2, 428939, Note_on_c, 0, 78, 0
2, 428939, Note_on_c, 0, 73, 0
2, 428939, Note_on_c, 0, 71, 0
2, 428939, Note_on_c, 0, 65, 0
2, 428999, Note_on_c, 0, 77, 43
2, 429058, Note_on_c, 0, 77, 0
2, 429120, Note_on_c, 0, 78, 50
2, 429120, Note_on_c, 0, 66, 22
2, 429120, Note_on_c, 0, 69, 22
2, 429120, Note_on_c, 0, 73, 22
2, 429238, Note_on_c, 0, 73, 0
2, 429238, Note_on_c, 0, 69, 0
2, 429238, Note_on_c, 0, 66, 0
2, 429359, Note_on_c, 0, 71, 16
2, 429480, Note_on_c, 0, 71, 0
2, 429480, Note_on_c, 0, 78, 0
2, 429480, Note_on_c, 0, 72, 27
2, 429600, Note_on_c, 0, 72, 0
2, 429600, Note_on_c, 0, 73, 26
2, 429659, Note_on_c, 0, 73, 0
2, 429719, Note_on_c, 0, 72, 22
2, 429778, Note_on_c, 0, 72, 0
2, 429840, Note_on_c, 0, 73, 30
2, 430019, Note_on_c, 0, 73, 0
2, 430079, Note_on_c, 0, 78, 40
2, 430138, Note_on_c, 0, 78, 0
2, 430200, Note_on_c, 0, 80, 55
2, 430200, Note_on_c, 0, 65, 35
2, 430200, Note_on_c, 0, 68, 35
2, 430200, Note_on_c, 0, 77, 35
2, 430259, Note_on_c, 0, 80, 0
2, 430320, Note_on_c, 0, 81, 57
2, 430379, Note_on_c, 0, 81, 0
2, 430379, Note_on_c, 0, 77, 0
2, 430379, Note_on_c, 0, 68, 0
2, 430379, Note_on_c, 0, 65, 0
2, 430439, Note_on_c, 0, 83, 54
2, 430498, Note_on_c, 0, 83, 0
2, 430560, Note_on_c, 0, 84, 52
2, 430560, Note_on_c, 0, 64, 26
2, 430560, Note_on_c, 0, 72, 26
2, 430560, Note_on_c, 0, 76, 26
2, 430739, Note_on_c, 0, 76, 0
2, 430739, Note_on_c, 0, 72, 0
2, 430739, Note_on_c, 0, 64, 0
2, 430799, Note_on_c, 0, 84, 0
2, 430799, Note_on_c, 0, 82, 43
2, 430920, Note_on_c, 0, 82, 0
2, 430920, Note_on_c, 0, 83, 49
2, 430920, Note_on_c, 0, 64, 22
2, 430920, Note_on_c, 0, 72, 22
2, 430920, Note_on_c, 0, 76, 22
2, 431040, Note_on_c, 0, 83, 0
2, 431040, Note_on_c, 0, 84, 49
2, 431099, Note_on_c, 0, 84, 0
2, 431099, Note_on_c, 0, 76, 0
2, 431099, Note_on_c, 0, 72, 0
2, 431099, Note_on_c, 0, 64, 0
2, 431159, Note_on_c, 0, 83, 43
2, 431218, Note_on_c, 0, 83, 0
2, 431280, Note_on_c, 0, 84, 52
2, 431280, Note_on_c, 0, 65, 24
2, 431280, Note_on_c, 0, 72, 24
2, 431280, Note_on_c, 0, 77, 24
2, 431398, Note_on_c, 0, 84, 0
2, 431459, Note_on_c, 0, 65, 0
2, 431459, Note_on_c, 0, 72, 0
2, 431459, Note_on_c, 0, 77, 0
2, 431519, Note_on_c, 0, 74, 28
2, 431578, Note_on_c, 0, 74, 0
2, 431640, Note_on_c, 0, 76, 50
2, 431640, Note_on_c, 0, 64, 20
2, 431640, Note_on_c, 0, 70, 20
2, 431640, Note_on_c, 0, 72, 20
2, 431699, Note_on_c, 0, 76, 0
2, 431760, Note_on_c, 0, 77, 55
2, 431819, Note_on_c, 0, 77, 0
2, 431819, Note_on_c, 0, 72, 0
2, 431819, Note_on_c, 0, 70, 0
2, 431819, Note_on_c, 0, 64, 0
2, 431879, Note_on_c, 0, 76, 41
2, 431938, Note_on_c, 0, 76, 0
2, 432000, Note_on_c, 0, 77, 53
2, 432000, Note_on_c, 0, 65, 24
2, 432000, Note_on_c, 0, 68, 24
2, 432000, Note_on_c, 0, 72, 24
2, 432118, Note_on_c, 0, 72, 0
2, 432118, Note_on_c, 0, 68, 0
2, 432118, Note_on_c, 0, 65, 0
2, 432179, Note_on_c, 0, 77, 0
2, 432239, Note_on_c, 0, 70, 18
2, 432360, Note_on_c, 0, 70, 0
2, 432360, Note_on_c, 0, 71, 27
2, 432480, Note_on_c, 0, 71, 0
2, 432480, Note_on_c, 0, 72, 31
2, 432539, Note_on_c, 0, 72, 0
2, 432599, Note_on_c, 0, 71, 23
2, 432658, Note_on_c, 0, 71, 0
2, 432720, Note_on_c, 0, 72, 31
2, 432899, Note_on_c, 0, 72, 0
2, 433679, Note_on_c, 0, 63, 19
2, 433800, Note_on_c, 0, 63, 0
2, 433800, Note_on_c, 0, 64, 25
2, 433920, Note_on_c, 0, 64, 0
2, 433920, Note_on_c, 0, 65, 29
2, 433979, Note_on_c, 0, 65, 0
2, 434039, Note_on_c, 0, 64, 22
2, 434098, Note_on_c, 0, 64, 0
2, 434160, Note_on_c, 0, 65, 26
2, 434339, Note_on_c, 0, 65, 0
2, 434880, Note_on_c, 0, 59, 14
2, 435000, Note_on_c, 0, 59, 0
2, 435000, Note_on_c, 0, 60, 28
2, 435059, Note_on_c, 0, 60, 0
2, 435119, Note_on_c, 0, 59, 18
2, 435178, Note_on_c, 0, 59, 0
2, 435240, Note_on_c, 0, 60, 27
2, 435419, Note_on_c, 0, 60, 0
2, 445320, Note_on_c, 0, 65, 21
2, 445499, Note_on_c, 0, 65, 0
2, 445680, Note_on_c, 0, 63, 21
2, 445859, Note_on_c, 0, 63, 0
2, 446040, Note_on_c, 0, 61, 21
2, 446219, Note_on_c, 0, 61, 0
2, 446400, Note_on_c, 0, 60, 19
2, 446579, Note_on_c, 0, 60, 0
2, 448200, Note_on_c, 0, 77, 40
2, 448200, Note_on_c, 0, 68, 24
2, 448379, Note_on_c, 0, 77, 0
2, 448560, Note_on_c, 0, 75, 42
2, 448739, Note_on_c, 0, 75, 0
2, 448833, Note_on_c, 0, 68, 0
2, 448920, Note_on_c, 0, 73, 43
2, 448920, Note_on_c, 0, 67, 32
2, 448920, Note_on_c, 0, 65, 18
2, 449099, Note_on_c, 0, 65, 0
2, 449099, Note_on_c, 0, 73, 0
2, 449280, Note_on_c, 0, 72, 43
2, 449280, Note_on_c, 0, 63, 19
2, 449459, Note_on_c, 0, 63, 0
2, 449459, Note_on_c, 0, 72, 0
2, 449640, Note_on_c, 0, 67, 0
2, 449640, Note_on_c, 0, 70, 51
2, 449640, Note_on_c, 0, 65, 35
2, 449640, Note_on_c, 0, 61, 23
2, 449819, Note_on_c, 0, 61, 0
2, 449819, Note_on_c, 0, 70, 0
2, 450000, Note_on_c, 0, 68, 38
2, 450000, Note_on_c, 0, 60, 22
2, 450179, Note_on_c, 0, 60, 0
2, 450179, Note_on_c, 0, 68, 0
2, 450273, Note_on_c, 0, 65, 0
2, 450360, Note_on_c, 0, 67, 44
2, 450360, Note_on_c, 0, 63, 43
2, 450539, Note_on_c, 0, 67, 0
2, 450720, Note_on_c, 0, 65, 45
2, 450899, Note_on_c, 0, 65, 0
2, 451080, Note_on_c, 0, 63, 0
2, 451080, Note_on_c, 0, 80, 83
2, 451713, Note_on_c, 0, 80, 0
2, 451800, Note_on_c, 0, 79, 57
2, 452520, Note_on_c, 0, 79, 0
2, 452520, Note_on_c, 0, 77, 42
2, 452520, Note_on_c, 0, 72, 32
2, 452699, Note_on_c, 0, 77, 0
2, 452880, Note_on_c, 0, 75, 44
2, 453059, Note_on_c, 0, 75, 0
2, 453153, Note_on_c, 0, 72, 0
2, 453240, Note_on_c, 0, 73, 53
2, 453240, Note_on_c, 0, 70, 22
2, 453419, Note_on_c, 0, 70, 0
2, 453600, Note_on_c, 0, 68, 23
2, 453779, Note_on_c, 0, 68, 0
2, 453960, Note_on_c, 0, 73, 0
2, 453960, Note_on_c, 0, 85, 84
2, 453960, Note_on_c, 0, 66, 21
2, 454139, Note_on_c, 0, 66, 0
2, 454320, Note_on_c, 0, 65, 19
2, 454499, Note_on_c, 0, 65, 0
2, 454593, Note_on_c, 0, 85, 0
2, 454680, Note_on_c, 0, 84, 59
2, 454680, Note_on_c, 0, 63, 21
2, 454859, Note_on_c, 0, 63, 0
2, 455040, Note_on_c, 0, 61, 21
2, 455219, Note_on_c, 0, 61, 0
2, 455400, Note_on_c, 0, 84, 0
2, 455400, Note_on_c, 0, 82, 44
2, 455400, Note_on_c, 0, 73, 38
2, 455579, Note_on_c, 0, 73, 0
2, 455760, Note_on_c, 0, 82, 0
2, 455760, Note_on_c, 0, 80, 38
2, 455760, Note_on_c, 0, 72, 26
2, 455939, Note_on_c, 0, 72, 0
2, 456120, Note_on_c, 0, 80, 0
2, 456120, Note_on_c, 0, 78, 46
2, 456120, Note_on_c, 0, 70, 26
2, 456209, Note_on_c, 0, 78, 0
2, 456299, Note_on_c, 0, 70, 0
2, 456300, Note_on_c, 0, 85, 61
2, 456389, Note_on_c, 0, 85, 0
2, 456480, Note_on_c, 0, 84, 49
2, 456480, Note_on_c, 0, 68, 31
2, 456480, Note_on_c, 0, 77, 31
2, 456569, Note_on_c, 0, 84, 0
2, 456659, Note_on_c, 0, 77, 0
2, 456659, Note_on_c, 0, 68, 0
2, 456660, Note_on_c, 0, 82, 42
2, 456749, Note_on_c, 0, 82, 0
2, 456840, Note_on_c, 0, 80, 38
2, 456840, Note_on_c, 0, 66, 20
2, 456840, Note_on_c, 0, 75, 20
2, 456929, Note_on_c, 0, 80, 0
2, 457019, Note_on_c, 0, 75, 0
2, 457019, Note_on_c, 0, 66, 0
2, 457020, Note_on_c, 0, 78, 40
2, 457109, Note_on_c, 0, 78, 0
2, 457200, Note_on_c, 0, 77, 43
2, 457200, Note_on_c, 0, 73, 24
2, 457200, Note_on_c, 0, 65, 24
2, 457289, Note_on_c, 0, 77, 0
2, 457379, Note_on_c, 0, 73, 0
2, 457380, Note_on_c, 0, 75, 44
2, 457469, Note_on_c, 0, 75, 0
2, 457560, Note_on_c, 0, 85, 79
2, 457560, Note_on_c, 0, 73, 23
2, 457739, Note_on_c, 0, 73, 0
2, 458100, Note_on_c, 0, 73, 18
2, 458189, Note_on_c, 0, 73, 0
2, 458280, Note_on_c, 0, 85, 0
2, 458280, Note_on_c, 0, 84, 46
2, 458280, Note_on_c, 0, 73, 28
2, 458280, Note_on_c, 0, 72, 18
2, 458369, Note_on_c, 0, 72, 0
2, 458459, Note_on_c, 0, 84, 0
2, 458460, Note_on_c, 0, 70, 27
2, 458549, Note_on_c, 0, 70, 0
2, 458640, Note_on_c, 0, 82, 42
2, 458640, Note_on_c, 0, 68, 19
2, 458729, Note_on_c, 0, 68, 0
2, 458819, Note_on_c, 0, 82, 0
2, 458820, Note_on_c, 0, 66, 20
2, 458909, Note_on_c, 0, 66, 0
2, 458913, Note_on_c, 0, 73, 0
2, 459000, Note_on_c, 0, 65, 0
2, 459000, Note_on_c, 0, 80, 44
2, 459000, Note_on_c, 0, 73, 39
2, 459000, Note_on_c, 0, 72, 34
2, 459000, Note_on_c, 0, 65, 17
2, 459089, Note_on_c, 0, 65, 0
2, 459179, Note_on_c, 0, 72, 0
2, 459179, Note_on_c, 0, 80, 0
2, 459180, Note_on_c, 0, 63, 14
2, 459269, Note_on_c, 0, 63, 0
2, 459360, Note_on_c, 0, 78, 45
2, 459360, Note_on_c, 0, 70, 23
2, 459449, Note_on_c, 0, 78, 0
2, 459539, Note_on_c, 0, 70, 0
2, 459540, Note_on_c, 0, 85, 63
2, 459629, Note_on_c, 0, 85, 0
2, 459720, Note_on_c, 0, 73, 0
2, 459720, Note_on_c, 0, 84, 50
2, 459720, Note_on_c, 0, 68, 33
2, 459720, Note_on_c, 0, 77, 33
2, 459720, Note_on_c, 0, 72, 10
2, 459809, Note_on_c, 0, 84, 0
2, 459899, Note_on_c, 0, 68, 0
2, 459899, Note_on_c, 0, 77, 0
2, 459900, Note_on_c, 0, 82, 40
2, 459989, Note_on_c, 0, 82, 0
2, 460080, Note_on_c, 0, 80, 45
2, 460080, Note_on_c, 0, 66, 19
2, 460080, Note_on_c, 0, 75, 19
2, 460169, Note_on_c, 0, 80, 0
2, 460259, Note_on_c, 0, 75, 0
2, 460259, Note_on_c, 0, 66, 0
2, 460260, Note_on_c, 0, 78, 42
2, 460349, Note_on_c, 0, 78, 0
2, 460440, Note_on_c, 0, 72, 0
2, 460440, Note_on_c, 0, 77, 45
2, 460440, Note_on_c, 0, 73, 21
2, 460440, Note_on_c, 0, 65, 25
2, 460440, Note_on_c, 0, 70, 25
2, 460529, Note_on_c, 0, 73, 0
2, 460619, Note_on_c, 0, 77, 0
2, 460620, Note_on_c, 0, 77, 28
2, 460709, Note_on_c, 0, 77, 0
2, 460800, Note_on_c, 0, 85, 63
2, 460800, Note_on_c, 0, 75, 16
2, 460889, Note_on_c, 0, 75, 0
2, 460979, Note_on_c, 0, 85, 0
2, 460980, Note_on_c, 0, 73, 24
2, 461069, Note_on_c, 0, 73, 0
2, 461160, Note_on_c, 0, 65, 0
2, 461160, Note_on_c, 0, 70, 0
2, 461160, Note_on_c, 0, 84, 63
2, 461160, Note_on_c, 0, 68, 16
2, 461160, Note_on_c, 0, 72, 16
2, 461160, Note_on_c, 0, 63, 18
2, 461249, Note_on_c, 0, 72, 0
2, 461249, Note_on_c, 0, 68, 0
2, 461340, Note_on_c, 0, 70, 24
2, 461429, Note_on_c, 0, 70, 0
2, 461520, Note_on_c, 0, 68, 19
2, 461609, Note_on_c, 0, 68, 0
2, 461700, Note_on_c, 0, 66, 21
2, 461789, Note_on_c, 0, 66, 0
2, 461793, Note_on_c, 0, 84, 0
2, 461793, Note_on_c, 0, 63, 0
2, 461880, Note_on_c, 0, 82, 39
2, 461880, Note_on_c, 0, 65, 20
2, 461969, Note_on_c, 0, 65, 0
2, 462059, Note_on_c, 0, 82, 0
2, 462060, Note_on_c, 0, 80, 41
2, 462149, Note_on_c, 0, 80, 0
2, 462240, Note_on_c, 0, 80, 37
2, 462240, Note_on_c, 0, 78, 23
2, 462329, Note_on_c, 0, 78, 0
2, 462419, Note_on_c, 0, 80, 0
2, 462420, Note_on_c, 0, 77, 18
2, 462509, Note_on_c, 0, 77, 0
2, 462600, Note_on_c, 0, 87, 65
2, 462600, Note_on_c, 0, 75, 18
2, 462689, Note_on_c, 0, 75, 0
2, 462779, Note_on_c, 0, 87, 0
2, 462780, Note_on_c, 0, 73, 22
2, 462869, Note_on_c, 0, 73, 0
2, 462960, Note_on_c, 0, 85, 45
2, 462960, Note_on_c, 0, 71, 26
2, 463049, Note_on_c, 0, 71, 0
2, 463139, Note_on_c, 0, 85, 0
2, 463140, Note_on_c, 0, 70, 19
2, 463229, Note_on_c, 0, 70, 0
2, 463320, Note_on_c, 0, 83, 39
2, 463320, Note_on_c, 0, 68, 25
2, 463409, Note_on_c, 0, 68, 0
2, 463499, Note_on_c, 0, 83, 0
2, 463500, Note_on_c, 0, 80, 53
2, 463680, Note_on_c, 0, 82, 46
2, 463859, Note_on_c, 0, 82, 0
2, 463860, Note_on_c, 0, 80, 0
2, 463860, Note_on_c, 0, 78, 22
2, 463949, Note_on_c, 0, 78, 0
2, 464040, Note_on_c, 0, 80, 44
2, 464040, Note_on_c, 0, 77, 23
2, 464129, Note_on_c, 0, 77, 0
2, 464219, Note_on_c, 0, 80, 0
2, 464220, Note_on_c, 0, 75, 23
2, 464309, Note_on_c, 0, 75, 0
2, 464400, Note_on_c, 0, 89, 72
2, 464400, Note_on_c, 0, 74, 20
2, 464489, Note_on_c, 0, 74, 0
2, 464579, Note_on_c, 0, 89, 0
2, 464580, Note_on_c, 0, 82, 35
2, 464669, Note_on_c, 0, 82, 0
2, 464760, Note_on_c, 0, 87, 47
2, 464760, Note_on_c, 0, 80, 27
2, 464849, Note_on_c, 0, 80, 0
2, 464939, Note_on_c, 0, 87, 0
2, 464940, Note_on_c, 0, 78, 25
2, 465029, Note_on_c, 0, 78, 0
2, 465120, Note_on_c, 0, 86, 47
2, 465120, Note_on_c, 0, 77, 22
2, 465209, Note_on_c, 0, 77, 0
2, 465299, Note_on_c, 0, 86, 0
2, 465300, Note_on_c, 0, 75, 19
2, 465389, Note_on_c, 0, 75, 0
2, 465480, Note_on_c, 0, 83, 36
2, 465480, Note_on_c, 0, 74, 26
2, 465569, Note_on_c, 0, 74, 0
2, 465659, Note_on_c, 0, 83, 0
2, 465660, Note_on_c, 0, 71, 19
2, 465749, Note_on_c, 0, 71, 0
2, 465840, Note_on_c, 0, 82, 42
2, 465840, Note_on_c, 0, 70, 20
2, 465929, Note_on_c, 0, 70, 0
2, 466019, Note_on_c, 0, 82, 0
2, 466020, Note_on_c, 0, 68, 22
2, 466109, Note_on_c, 0, 68, 0
2, 466200, Note_on_c, 0, 80, 45
2, 466200, Note_on_c, 0, 67, 17
2, 466289, Note_on_c, 0, 67, 0
2, 466379, Note_on_c, 0, 80, 0
2, 466380, Note_on_c, 0, 65, 17
2, 466469, Note_on_c, 0, 65, 0
2, 466560, Note_on_c, 0, 79, 43
2, 466560, Note_on_c, 0, 67, 30
2, 466739, Note_on_c, 0, 67, 0
2, 466739, Note_on_c, 0, 79, 0
2, 466920, Note_on_c, 0, 79, 71
2, 466920, Note_on_c, 0, 91, 71
2, 467099, Note_on_c, 0, 91, 0
2, 467099, Note_on_c, 0, 79, 0
2, 467100, Note_on_c, 0, 79, 15
2, 467189, Note_on_c, 0, 79, 0
2, 467280, Note_on_c, 0, 89, 49
2, 467280, Note_on_c, 0, 77, 19
2, 467369, Note_on_c, 0, 77, 0
2, 467459, Note_on_c, 0, 89, 0
2, 467460, Note_on_c, 0, 75, 20
2, 467549, Note_on_c, 0, 75, 0
2, 467640, Note_on_c, 0, 75, 42
2, 467640, Note_on_c, 0, 87, 42
2, 467640, Note_on_c, 0, 74, 21
2, 467729, Note_on_c, 0, 74, 0
2, 467819, Note_on_c, 0, 87, 0
2, 467819, Note_on_c, 0, 75, 0
2, 467820, Note_on_c, 0, 72, 20
2, 467909, Note_on_c, 0, 72, 0
2, 468000, Note_on_c, 0, 86, 46
2, 468000, Note_on_c, 0, 71, 27
2, 468000, Note_on_c, 0, 74, 27
2, 468089, Note_on_c, 0, 86, 0
2, 468179, Note_on_c, 0, 74, 0
2, 468179, Note_on_c, 0, 71, 0
2, 468180, Note_on_c, 0, 91, 63
2, 468360, Note_on_c, 0, 91, 0
2, 468360, Note_on_c, 0, 89, 45
2, 468360, Note_on_c, 0, 72, 40
2, 468360, Note_on_c, 0, 84, 40
2, 468539, Note_on_c, 0, 84, 0
2, 468539, Note_on_c, 0, 72, 0
2, 468540, Note_on_c, 0, 89, 0
2, 468540, Note_on_c, 0, 87, 42
2, 468720, Note_on_c, 0, 87, 0
2, 468720, Note_on_c, 0, 86, 41
2, 468720, Note_on_c, 0, 71, 27
2, 468720, Note_on_c, 0, 83, 27
2, 468899, Note_on_c, 0, 83, 0
2, 468899, Note_on_c, 0, 71, 0
2, 468900, Note_on_c, 0, 86, 0
2, 468900, Note_on_c, 0, 84, 41
2, 469080, Note_on_c, 0, 84, 0
2, 469080, Note_on_c, 0, 83, 42
2, 469080, Note_on_c, 0, 68, 19
2, 469080, Note_on_c, 0, 80, 19
2, 469259, Note_on_c, 0, 80, 0
2, 469259, Note_on_c, 0, 68, 0
2, 469260, Note_on_c, 0, 83, 0
2, 469260, Note_on_c, 0, 80, 37
2, 469440, Note_on_c, 0, 80, 0
2, 469440, Note_on_c, 0, 79, 48
2, 469440, Note_on_c, 0, 67, 8
2, 469619, Note_on_c, 0, 79, 0
2, 469620, Note_on_c, 0, 67, 0
2, 469620, Note_on_c, 0, 79, 40
2, 469800, Note_on_c, 0, 79, 0
2, 469800, Note_on_c, 0, 79, 73
2, 469800, Note_on_c, 0, 91, 73
2, 469800, Note_on_c, 0, 77, 27
2, 469979, Note_on_c, 0, 91, 0
2, 469979, Note_on_c, 0, 79, 0
2, 469980, Note_on_c, 0, 77, 0
2, 469980, Note_on_c, 0, 75, 22
2, 470160, Note_on_c, 0, 75, 0
2, 470160, Note_on_c, 0, 77, 42
2, 470160, Note_on_c, 0, 89, 42
2, 470160, Note_on_c, 0, 74, 25
2, 470340, Note_on_c, 0, 74, 0
2, 470340, Note_on_c, 0, 72, 23
2, 470520, Note_on_c, 0, 72, 0
2, 470520, Note_on_c, 0, 89, 0
2, 470520, Note_on_c, 0, 77, 0
2, 470520, Note_on_c, 0, 75, 45
2, 470520, Note_on_c, 0, 87, 45
2, 470520, Note_on_c, 0, 71, 24
2, 470699, Note_on_c, 0, 87, 0
2, 470699, Note_on_c, 0, 75, 0
2, 470700, Note_on_c, 0, 71, 0
2, 470700, Note_on_c, 0, 68, 20
2, 470880, Note_on_c, 0, 68, 0
2, 470880, Note_on_c, 0, 86, 42
2, 470880, Note_on_c, 0, 74, 36
2, 470880, Note_on_c, 0, 67, 18
2, 471059, Note_on_c, 0, 86, 0
2, 471060, Note_on_c, 0, 74, 0
2, 471060, Note_on_c, 0, 91, 45
2, 471060, Note_on_c, 0, 79, 35
2, 471240, Note_on_c, 0, 79, 0
2, 471240, Note_on_c, 0, 91, 0
2, 471240, Note_on_c, 0, 67, 0
2, 471240, Note_on_c, 0, 89, 46
2, 471240, Note_on_c, 0, 84, 26
2, 471240, Note_on_c, 0, 77, 24
2, 471240, Note_on_c, 0, 72, 20
2, 471419, Note_on_c, 0, 84, 0
2, 471420, Note_on_c, 0, 89, 0
2, 471420, Note_on_c, 0, 77, 0
2, 471420, Note_on_c, 0, 87, 43
2, 471420, Note_on_c, 0, 75, 20
2, 471600, Note_on_c, 0, 75, 0
2, 471600, Note_on_c, 0, 87, 0
2, 471600, Note_on_c, 0, 72, 0
2, 471600, Note_on_c, 0, 86, 48
2, 471600, Note_on_c, 0, 83, 20
2, 471600, Note_on_c, 0, 74, 25
2, 471600, Note_on_c, 0, 71, 13
2, 471779, Note_on_c, 0, 83, 0
2, 471780, Note_on_c, 0, 86, 0
2, 471780, Note_on_c, 0, 74, 0
2, 471780, Note_on_c, 0, 84, 39
2, 471780, Note_on_c, 0, 72, 17
2, 471960, Note_on_c, 0, 72, 0
2, 471960, Note_on_c, 0, 84, 0
2, 471960, Note_on_c, 0, 71, 0
2, 471960, Note_on_c, 0, 83, 45
2, 471960, Note_on_c, 0, 68, 17
2, 472140, Note_on_c, 0, 83, 0
2, 472140, Note_on_c, 0, 80, 48
2, 472320, Note_on_c, 0, 80, 0
2, 472320, Note_on_c, 0, 68, 0
2, 472320, Note_on_c, 0, 79, 47
2, 472320, Note_on_c, 0, 67, 21
2, 472409, Note_on_c, 0, 79, 0
2, 472500, Note_on_c, 0, 91, 72
2, 472680, Note_on_c, 0, 91, 0
2, 472680, Note_on_c, 0, 67, 0
2, 472680, Note_on_c, 0, 89, 49
2, 472680, Note_on_c, 0, 71, 39
2, 472680, Note_on_c, 0, 74, 39
2, 472680, Note_on_c, 0, 79, 39
2, 472859, Note_on_c, 0, 79, 0
2, 472859, Note_on_c, 0, 74, 0
2, 472859, Note_on_c, 0, 71, 0
2, 472860, Note_on_c, 0, 89, 0
2, 472860, Note_on_c, 0, 87, 44
2, 473040, Note_on_c, 0, 87, 0
2, 473040, Note_on_c, 0, 86, 41
2, 473040, Note_on_c, 0, 68, 24
2, 473040, Note_on_c, 0, 72, 24
2, 473040, Note_on_c, 0, 77, 24
2, 473219, Note_on_c, 0, 77, 0
2, 473219, Note_on_c, 0, 72, 0
2, 473219, Note_on_c, 0, 68, 0
2, 473220, Note_on_c, 0, 86, 0
2, 473220, Note_on_c, 0, 84, 48
2, 473400, Note_on_c, 0, 84, 0
2, 473400, Note_on_c, 0, 83, 44
2, 473400, Note_on_c, 0, 71, 17
2, 473400, Note_on_c, 0, 75, 17
2, 473579, Note_on_c, 0, 75, 0
2, 473579, Note_on_c, 0, 71, 0
2, 473580, Note_on_c, 0, 83, 0
2, 473580, Note_on_c, 0, 80, 36
2, 473760, Note_on_c, 0, 80, 0
2, 473760, Note_on_c, 0, 79, 46
2, 473760, Note_on_c, 0, 71, 21
2, 473760, Note_on_c, 0, 74, 21
2, 473940, Note_on_c, 0, 74, 0
2, 473940, Note_on_c, 0, 71, 0
2, 473940, Note_on_c, 0, 79, 0
2, 473940, Note_on_c, 0, 91, 69
2, 473940, Note_on_c, 0, 79, 34
2, 474120, Note_on_c, 0, 79, 0
2, 474120, Note_on_c, 0, 91, 0
2, 474120, Note_on_c, 0, 89, 48
2, 474120, Note_on_c, 0, 77, 26
2, 474300, Note_on_c, 0, 77, 0
2, 474300, Note_on_c, 0, 89, 0
2, 474300, Note_on_c, 0, 87, 47
2, 474300, Note_on_c, 0, 75, 20
2, 474480, Note_on_c, 0, 75, 0
2, 474480, Note_on_c, 0, 87, 0
2, 474480, Note_on_c, 0, 86, 42
2, 474480, Note_on_c, 0, 74, 23
2, 474660, Note_on_c, 0, 74, 0
2, 474660, Note_on_c, 0, 86, 0
2, 474660, Note_on_c, 0, 84, 41
2, 474660, Note_on_c, 0, 72, 17
2, 474840, Note_on_c, 0, 72, 0
2, 474840, Note_on_c, 0, 84, 0
2, 474840, Note_on_c, 0, 83, 41
2, 474840, Note_on_c, 0, 71, 22
2, 475020, Note_on_c, 0, 71, 0
2, 475020, Note_on_c, 0, 83, 0
2, 475020, Note_on_c, 0, 80, 44
2, 475020, Note_on_c, 0, 68, 18
2, 475200, Note_on_c, 0, 68, 0
2, 475200, Note_on_c, 0, 80, 0
2, 475200, Note_on_c, 0, 79, 41
2, 475200, Note_on_c, 0, 67, 25
2, 475380, Note_on_c, 0, 67, 0
2, 475380, Note_on_c, 0, 79, 0
2, 475380, Note_on_c, 0, 91, 69
2, 475380, Note_on_c, 0, 79, 41
2, 475560, Note_on_c, 0, 79, 0
2, 475560, Note_on_c, 0, 91, 0
2, 475560, Note_on_c, 0, 89, 49
2, 475560, Note_on_c, 0, 67, 28
2, 475560, Note_on_c, 0, 71, 28
2, 475560, Note_on_c, 0, 75, 28
2, 475560, Note_on_c, 0, 79, 28
2, 475740, Note_on_c, 0, 89, 0
2, 475740, Note_on_c, 0, 87, 42
2, 475920, Note_on_c, 0, 87, 0
2, 475920, Note_on_c, 0, 79, 0
2, 475920, Note_on_c, 0, 67, 0
2, 475920, Note_on_c, 0, 71, 0
2, 475920, Note_on_c, 0, 75, 0
2, 475920, Note_on_c, 0, 86, 42
2, 475920, Note_on_c, 0, 65, 24
2, 475920, Note_on_c, 0, 68, 24
2, 475920, Note_on_c, 0, 71, 24
2, 475920, Note_on_c, 0, 77, 24
2, 476100, Note_on_c, 0, 86, 0
2, 476100, Note_on_c, 0, 84, 46
2, 476280, Note_on_c, 0, 84, 0
2, 476280, Note_on_c, 0, 77, 0
2, 476280, Note_on_c, 0, 65, 0
2, 476280, Note_on_c, 0, 68, 0
2, 476280, Note_on_c, 0, 71, 0
2, 476280, Note_on_c, 0, 83, 45
2, 476280, Note_on_c, 0, 67, 18
2, 476280, Note_on_c, 0, 71, 18
2, 476280, Note_on_c, 0, 75, 18
2, 476460, Note_on_c, 0, 83, 0
2, 476460, Note_on_c, 0, 80, 42
2, 476640, Note_on_c, 0, 80, 0
2, 476640, Note_on_c, 0, 75, 0
2, 476640, Note_on_c, 0, 71, 0
2, 476640, Note_on_c, 0, 67, 0
2, 476640, Note_on_c, 0, 79, 40
2, 476640, Note_on_c, 0, 67, 21
2, 476640, Note_on_c, 0, 71, 21
2, 476640, Note_on_c, 0, 74, 21
2, 476820, Note_on_c, 0, 74, 0
2, 476820, Note_on_c, 0, 79, 0
2, 476820, Note_on_c, 0, 67, 0
2, 476820, Note_on_c, 0, 71, 0
2, 476820, Note_on_c, 0, 91, 70
2, 476820, Note_on_c, 0, 79, 33
2, 477000, Note_on_c, 0, 79, 0
2, 477000, Note_on_c, 0, 91, 0
2, 477000, Note_on_c, 0, 89, 48
2, 477000, Note_on_c, 0, 77, 21
2, 477180, Note_on_c, 0, 77, 0
2, 477180, Note_on_c, 0, 89, 0
2, 477180, Note_on_c, 0, 87, 45
2, 477180, Note_on_c, 0, 75, 19
2, 477360, Note_on_c, 0, 75, 0
2, 477360, Note_on_c, 0, 87, 0
2, 477360, Note_on_c, 0, 86, 41
2, 477360, Note_on_c, 0, 74, 22
2, 477540, Note_on_c, 0, 74, 0
2, 477540, Note_on_c, 0, 86, 0
2, 477540, Note_on_c, 0, 84, 41
2, 477540, Note_on_c, 0, 72, 21
2, 477720, Note_on_c, 0, 72, 0
2, 477720, Note_on_c, 0, 84, 0
2, 477720, Note_on_c, 0, 83, 47
2, 477720, Note_on_c, 0, 71, 22
2, 477900, Note_on_c, 0, 71, 0
2, 477900, Note_on_c, 0, 83, 0
2, 477900, Note_on_c, 0, 80, 37
2, 477900, Note_on_c, 0, 68, 23
2, 478080, Note_on_c, 0, 68, 0
2, 478080, Note_on_c, 0, 80, 0
2, 478080, Note_on_c, 0, 79, 48
2, 478080, Note_on_c, 0, 67, 21
2, 478260, Note_on_c, 0, 67, 0
2, 478260, Note_on_c, 0, 83, 39
2, 478440, Note_on_c, 0, 83, 0
2, 478440, Note_on_c, 0, 79, 0
2, 478440, Note_on_c, 0, 95, 57
2, 478440, Note_on_c, 0, 82, 31
2, 478620, Note_on_c, 0, 82, 0
2, 478620, Note_on_c, 0, 80, 20
2, 478800, Note_on_c, 0, 80, 0
2, 478800, Note_on_c, 0, 95, 0
2, 478800, Note_on_c, 0, 94, 45
2, 478800, Note_on_c, 0, 78, 24
2, 478980, Note_on_c, 0, 78, 0
2, 478980, Note_on_c, 0, 77, 27
2, 479160, Note_on_c, 0, 77, 0
2, 479160, Note_on_c, 0, 94, 0
2, 479160, Note_on_c, 0, 92, 43
2, 479160, Note_on_c, 0, 75, 19
2, 479340, Note_on_c, 0, 75, 0
2, 479340, Note_on_c, 0, 73, 20
2, 479520, Note_on_c, 0, 73, 0
2, 479520, Note_on_c, 0, 92, 0
2, 479520, Note_on_c, 0, 90, 39
2, 479520, Note_on_c, 0, 71, 19
2, 479700, Note_on_c, 0, 83, 18
2, 479880, Note_on_c, 0, 83, 0
2, 479880, Note_on_c, 0, 90, 0
2, 479880, Note_on_c, 0, 89, 40
2, 479880, Note_on_c, 0, 82, 20
2, 480060, Note_on_c, 0, 82, 0
2, 480060, Note_on_c, 0, 80, 15
2, 480240, Note_on_c, 0, 80, 0
2, 480240, Note_on_c, 0, 89, 0
2, 480240, Note_on_c, 0, 87, 45
2, 480240, Note_on_c, 0, 78, 18
2, 480420, Note_on_c, 0, 78, 0
2, 480420, Note_on_c, 0, 77, 23
2, 480600, Note_on_c, 0, 77, 0
2, 480600, Note_on_c, 0, 87, 0
2, 480600, Note_on_c, 0, 85, 42
2, 480600, Note_on_c, 0, 75, 26
2, 480780, Note_on_c, 0, 75, 0
2, 480780, Note_on_c, 0, 73, 22
2, 480960, Note_on_c, 0, 73, 0
2, 480960, Note_on_c, 0, 85, 0
2, 480960, Note_on_c, 0, 71, 0
2, 480960, Note_on_c, 0, 83, 39
2, 480960, Note_on_c, 0, 71, 12
2, 481140, Note_on_c, 0, 83, 20
2, 481320, Note_on_c, 0, 83, 0
2, 481320, Note_on_c, 0, 83, 0
2, 481320, Note_on_c, 0, 95, 70
2, 481320, Note_on_c, 0, 82, 24
2, 481500, Note_on_c, 0, 82, 0
2, 481500, Note_on_c, 0, 80, 21
2, 481680, Note_on_c, 0, 80, 0
2, 481680, Note_on_c, 0, 95, 0
2, 481680, Note_on_c, 0, 94, 45
2, 481680, Note_on_c, 0, 78, 19
2, 481860, Note_on_c, 0, 78, 0
2, 481860, Note_on_c, 0, 77, 19
2, 482040, Note_on_c, 0, 77, 0
2, 482040, Note_on_c, 0, 94, 0
2, 482040, Note_on_c, 0, 92, 43
2, 482040, Note_on_c, 0, 75, 25
2, 482220, Note_on_c, 0, 75, 0
2, 482220, Note_on_c, 0, 73, 28
2, 482400, Note_on_c, 0, 73, 0
2, 482400, Note_on_c, 0, 92, 0
2, 482400, Note_on_c, 0, 71, 0
2, 482400, Note_on_c, 0, 90, 43
2, 482400, Note_on_c, 0, 71, 13
2, 482580, Note_on_c, 0, 83, 20
2, 482760, Note_on_c, 0, 83, 0
2, 482760, Note_on_c, 0, 90, 0
2, 482760, Note_on_c, 0, 89, 40
2, 482760, Note_on_c, 0, 82, 24
2, 482940, Note_on_c, 0, 82, 0
2, 482940, Note_on_c, 0, 80, 20
2, 483120, Note_on_c, 0, 80, 0
2, 483120, Note_on_c, 0, 89, 0
2, 483120, Note_on_c, 0, 87, 39
2, 483120, Note_on_c, 0, 78, 17
2, 483300, Note_on_c, 0, 78, 0
2, 483300, Note_on_c, 0, 77, 21
2, 483480, Note_on_c, 0, 77, 0
2, 483480, Note_on_c, 0, 87, 0
2, 483480, Note_on_c, 0, 85, 43
2, 483480, Note_on_c, 0, 75, 16
2, 483660, Note_on_c, 0, 75, 0
2, 483660, Note_on_c, 0, 73, 19
2, 483840, Note_on_c, 0, 73, 0
2, 483840, Note_on_c, 0, 85, 0
2, 483840, Note_on_c, 0, 71, 0
2, 483840, Note_on_c, 0, 83, 48
2, 483840, Note_on_c, 0, 65, 25
2, 483840, Note_on_c, 0, 68, 25
2, 483840, Note_on_c, 0, 71, 25
2, 484200, Note_on_c, 0, 71, 0
2, 484200, Note_on_c, 0, 83, 0
2, 484200, Note_on_c, 0, 65, 0
2, 484200, Note_on_c, 0, 68, 0
2, 484200, Note_on_c, 0, 95, 50
2, 484200, Note_on_c, 0, 83, 27
2, 484320, Note_on_c, 0, 83, 0
2, 484320, Note_on_c, 0, 95, 0
2, 484320, Note_on_c, 0, 94, 50
2, 484320, Note_on_c, 0, 82, 28
2, 484439, Note_on_c, 0, 82, 0
2, 484439, Note_on_c, 0, 94, 0
2, 484439, Note_on_c, 0, 92, 51
2, 484439, Note_on_c, 0, 80, 28
2, 484560, Note_on_c, 0, 80, 0
2, 484560, Note_on_c, 0, 92, 0
2, 484560, Note_on_c, 0, 90, 51
2, 484560, Note_on_c, 0, 78, 29
2, 484680, Note_on_c, 0, 78, 0
2, 484680, Note_on_c, 0, 90, 0
2, 484680, Note_on_c, 0, 89, 52
2, 484680, Note_on_c, 0, 77, 29
2, 484799, Note_on_c, 0, 77, 0
2, 484799, Note_on_c, 0, 89, 0
2, 484799, Note_on_c, 0, 87, 53
2, 484799, Note_on_c, 0, 75, 30
2, 484920, Note_on_c, 0, 75, 0
2, 484920, Note_on_c, 0, 87, 0
2, 484920, Note_on_c, 0, 85, 53
2, 484920, Note_on_c, 0, 73, 30
2, 485040, Note_on_c, 0, 73, 0
2, 485040, Note_on_c, 0, 85, 0
2, 485040, Note_on_c, 0, 83, 54
2, 485040, Note_on_c, 0, 71, 31
2, 485159, Note_on_c, 0, 71, 0
2, 485159, Note_on_c, 0, 83, 0
2, 485159, Note_on_c, 0, 83, 54
2, 485280, Note_on_c, 0, 82, 32
2, 485400, Note_on_c, 0, 82, 0
2, 485400, Note_on_c, 0, 80, 32
2, 485519, Note_on_c, 0, 80, 0
2, 485519, Note_on_c, 0, 78, 33
2, 485640, Note_on_c, 0, 78, 0
2, 485640, Note_on_c, 0, 77, 33
2, 485760, Note_on_c, 0, 77, 0
2, 485760, Note_on_c, 0, 75, 34
2, 485879, Note_on_c, 0, 75, 0
2, 485879, Note_on_c, 0, 73, 34
2, 486000, Note_on_c, 0, 73, 0
2, 486000, Note_on_c, 0, 71, 35
2, 486120, Note_on_c, 0, 71, 0
2, 486120, Note_on_c, 0, 83, 0
2, 486120, Note_on_c, 0, 95, 58
2, 486120, Note_on_c, 0, 83, 36
2, 486239, Note_on_c, 0, 83, 0
2, 486239, Note_on_c, 0, 95, 0
2, 486239, Note_on_c, 0, 94, 59
2, 486239, Note_on_c, 0, 82, 36
2, 486360, Note_on_c, 0, 82, 0
2, 486360, Note_on_c, 0, 94, 0
2, 486360, Note_on_c, 0, 92, 59
2, 486360, Note_on_c, 0, 80, 37
2, 486480, Note_on_c, 0, 80, 0
2, 486480, Note_on_c, 0, 92, 0
2, 486480, Note_on_c, 0, 90, 60
2, 486480, Note_on_c, 0, 78, 37
2, 486599, Note_on_c, 0, 78, 0
2, 486599, Note_on_c, 0, 90, 0
2, 486599, Note_on_c, 0, 89, 60
2, 486599, Note_on_c, 0, 77, 38
2, 486720, Note_on_c, 0, 77, 0
2, 486720, Note_on_c, 0, 89, 0
2, 486720, Note_on_c, 0, 87, 61
2, 486720, Note_on_c, 0, 75, 38
2, 486840, Note_on_c, 0, 75, 0
2, 486840, Note_on_c, 0, 87, 0
2, 486840, Note_on_c, 0, 85, 62
2, 486840, Note_on_c, 0, 73, 39
2, 486959, Note_on_c, 0, 73, 0
2, 486959, Note_on_c, 0, 85, 0
2, 486959, Note_on_c, 0, 83, 62
2, 486959, Note_on_c, 0, 71, 39
2, 487080, Note_on_c, 0, 71, 0
2, 487080, Note_on_c, 0, 83, 0
2, 487080, Note_on_c, 0, 92, 63
2, 487080, Note_on_c, 0, 95, 63
2, 487080, Note_on_c, 0, 83, 40
2, 487200, Note_on_c, 0, 83, 0
2, 487200, Note_on_c, 0, 95, 0
2, 487200, Note_on_c, 0, 92, 0
2, 487200, Note_on_c, 0, 90, 63
2, 487200, Note_on_c, 0, 94, 63
2, 487200, Note_on_c, 0, 82, 40
2, 487319, Note_on_c, 0, 82, 0
2, 487319, Note_on_c, 0, 94, 0
2, 487319, Note_on_c, 0, 90, 0
2, 487319, Note_on_c, 0, 89, 64
2, 487319, Note_on_c, 0, 92, 64
2, 487319, Note_on_c, 0, 80, 41
2, 487440, Note_on_c, 0, 80, 0
2, 487440, Note_on_c, 0, 92, 0
2, 487440, Note_on_c, 0, 89, 0
2, 487440, Note_on_c, 0, 87, 64
2, 487440, Note_on_c, 0, 90, 64
2, 487440, Note_on_c, 0, 78, 41
2, 487560, Note_on_c, 0, 78, 0
2, 487560, Note_on_c, 0, 90, 0
2, 487560, Note_on_c, 0, 87, 0
2, 487560, Note_on_c, 0, 85, 65
2, 487560, Note_on_c, 0, 89, 65
2, 487560, Note_on_c, 0, 77, 42
2, 487679, Note_on_c, 0, 77, 0
2, 487679, Note_on_c, 0, 89, 0
2, 487679, Note_on_c, 0, 85, 0
2, 487679, Note_on_c, 0, 83, 65
2, 487679, Note_on_c, 0, 87, 65
2, 487679, Note_on_c, 0, 75, 42
2, 487800, Note_on_c, 0, 75, 0
2, 487800, Note_on_c, 0, 87, 0
2, 487800, Note_on_c, 0, 83, 0
2, 487800, Note_on_c, 0, 82, 66
2, 487800, Note_on_c, 0, 85, 66
2, 487800, Note_on_c, 0, 73, 43
2, 487920, Note_on_c, 0, 73, 0
2, 487920, Note_on_c, 0, 85, 0
2, 487920, Note_on_c, 0, 82, 0
2, 487920, Note_on_c, 0, 80, 66
2, 487920, Note_on_c, 0, 71, 43
2, 488039, Note_on_c, 0, 71, 0
2, 488039, Note_on_c, 0, 80, 0
2, 488039, Note_on_c, 0, 82, 67
2, 488039, Note_on_c, 0, 78, 44
2, 488160, Note_on_c, 0, 78, 0
2, 488160, Note_on_c, 0, 82, 0
2, 488160, Note_on_c, 0, 80, 45
2, 488160, Note_on_c, 0, 77, 34
2, 488280, Note_on_c, 0, 77, 0
2, 488280, Note_on_c, 0, 80, 0
2, 488280, Note_on_c, 0, 78, 45
2, 488280, Note_on_c, 0, 75, 35
2, 488399, Note_on_c, 0, 75, 0
2, 488399, Note_on_c, 0, 78, 0
2, 488399, Note_on_c, 0, 77, 46
2, 488399, Note_on_c, 0, 73, 35
2, 488520, Note_on_c, 0, 73, 0
2, 488520, Note_on_c, 0, 77, 0
2, 488520, Note_on_c, 0, 75, 46
2, 488520, Note_on_c, 0, 71, 36
2, 488640, Note_on_c, 0, 71, 0
2, 488640, Note_on_c, 0, 75, 0
2, 488640, Note_on_c, 0, 73, 47
2, 488640, Note_on_c, 0, 70, 36
2, 488759, Note_on_c, 0, 70, 0
2, 488759, Note_on_c, 0, 73, 0
2, 488759, Note_on_c, 0, 71, 47
2, 488759, Note_on_c, 0, 68, 37
2, 488880, Note_on_c, 0, 68, 0
2, 488880, Note_on_c, 0, 71, 0
2, 488880, Note_on_c, 0, 70, 48
2, 488880, Note_on_c, 0, 66, 38
2, 489000, Note_on_c, 0, 66, 0
2, 489000, Note_on_c, 0, 70, 0
2, 489000, Note_on_c, 0, 68, 48
2, 489000, Note_on_c, 0, 65, 38
2, 489119, Note_on_c, 0, 65, 0
2, 489119, Note_on_c, 0, 68, 0
2, 489119, Note_on_c, 0, 66, 49
2, 489119, Note_on_c, 0, 63, 39
2, 489240, Note_on_c, 0, 63, 0
2, 489240, Note_on_c, 0, 66, 0
2, 489240, Note_on_c, 0, 65, 49
2, 489240, Note_on_c, 0, 61, 39
2, 489360, Note_on_c, 0, 61, 0
2, 489360, Note_on_c, 0, 65, 0
2, 489360, Note_on_c, 0, 63, 50
2, 489360, Note_on_c, 0, 59, 40
2, 489479, Note_on_c, 0, 59, 0
2, 489479, Note_on_c, 0, 63, 0
2, 489479, Note_on_c, 0, 61, 50
2, 489479, Note_on_c, 0, 58, 40
2, 489600, Note_on_c, 0, 58, 0
2, 489600, Note_on_c, 0, 61, 0
2, 489600, Note_on_c, 0, 76, 74
2, 489600, Note_on_c, 0, 56, 51
2, 489600, Note_on_c, 0, 59, 51
2, 489600, Note_on_c, 0, 64, 51
2, 489839, Note_on_c, 0, 64, 0
2, 489839, Note_on_c, 0, 76, 0
2, 489839, Note_on_c, 0, 56, 0
2, 489839, Note_on_c, 0, 59, 0
2, 489839, Note_on_c, 0, 78, 80
2, 489839, Note_on_c, 0, 69, 59
2, 489960, Note_on_c, 0, 69, 0
2, 489960, Note_on_c, 0, 78, 0
2, 489960, Note_on_c, 0, 76, 80
2, 489960, Note_on_c, 0, 80, 80
2, 489960, Note_on_c, 0, 68, 46
2, 489960, Note_on_c, 0, 64, 50
2, 490080, Note_on_c, 0, 68, 0
2, 490080, Note_on_c, 0, 76, 0
2, 490080, Note_on_c, 0, 80, 0
2, 490080, Note_on_c, 0, 78, 80
2, 490080, Note_on_c, 0, 81, 80
2, 490080, Note_on_c, 0, 69, 53
2, 490199, Note_on_c, 0, 69, 0
2, 490199, Note_on_c, 0, 81, 0
2, 490199, Note_on_c, 0, 78, 0
2, 490199, Note_on_c, 0, 79, 78
2, 490199, Note_on_c, 0, 82, 78
2, 490199, Note_on_c, 0, 70, 51
2, 490320, Note_on_c, 0, 70, 0
2, 490320, Note_on_c, 0, 64, 0
2, 490320, Note_on_c, 0, 79, 0
2, 490320, Note_on_c, 0, 82, 0
2, 490320, Note_on_c, 0, 80, 83
2, 490320, Note_on_c, 0, 83, 83
2, 490320, Note_on_c, 0, 68, 57
2, 490320, Note_on_c, 0, 71, 57
2, 490440, Note_on_c, 0, 71, 0
2, 490440, Note_on_c, 0, 80, 0
2, 490440, Note_on_c, 0, 83, 0
2, 490440, Note_on_c, 0, 68, 0
2, 490440, Note_on_c, 0, 81, 62
2, 490440, Note_on_c, 0, 69, 49
2, 490559, Note_on_c, 0, 69, 0
2, 490559, Note_on_c, 0, 81, 0
2, 490559, Note_on_c, 0, 82, 83
2, 490559, Note_on_c, 0, 70, 53
2, 490680, Note_on_c, 0, 70, 0
2, 490680, Note_on_c, 0, 82, 0
2, 490680, Note_on_c, 0, 83, 76
2, 490680, Note_on_c, 0, 71, 55
2, 490919, Note_on_c, 0, 71, 0
2, 490919, Note_on_c, 0, 83, 0
2, 490919, Note_on_c, 0, 83, 73
2, 490919, Note_on_c, 0, 71, 50
2, 491040, Note_on_c, 0, 71, 0
2, 491040, Note_on_c, 0, 83, 0
2, 491040, Note_on_c, 0, 76, 89
2, 491040, Note_on_c, 0, 88, 89
2, 491040, Note_on_c, 0, 85, 55
2, 491040, Note_on_c, 0, 73, 57
2, 491040, Note_on_c, 0, 68, 53
2, 491160, Note_on_c, 0, 73, 0
2, 491160, Note_on_c, 0, 85, 0
2, 491160, Note_on_c, 0, 83, 46
2, 491160, Note_on_c, 0, 71, 46
2, 491279, Note_on_c, 0, 71, 0
2, 491279, Note_on_c, 0, 83, 0
2, 491279, Note_on_c, 0, 85, 54
2, 491279, Note_on_c, 0, 73, 56
2, 491400, Note_on_c, 0, 73, 0
2, 491400, Note_on_c, 0, 68, 0
2, 491400, Note_on_c, 0, 76, 0
2, 491400, Note_on_c, 0, 88, 0
2, 491400, Note_on_c, 0, 85, 0
2, 491400, Note_on_c, 0, 92, 88
2, 491400, Note_on_c, 0, 80, 47
2, 491400, Note_on_c, 0, 83, 47
2, 491400, Note_on_c, 0, 71, 45
2, 491400, Note_on_c, 0, 68, 47
2, 491520, Note_on_c, 0, 71, 0
2, 491520, Note_on_c, 0, 69, 50
2, 491639, Note_on_c, 0, 69, 0
2, 491639, Note_on_c, 0, 70, 54
2, 491760, Note_on_c, 0, 70, 0
2, 491760, Note_on_c, 0, 68, 0
2, 491760, Note_on_c, 0, 71, 55
2, 491760, Note_on_c, 0, 68, 41
2, 491999, Note_on_c, 0, 71, 0
2, 491999, Note_on_c, 0, 83, 0
2, 491999, Note_on_c, 0, 80, 0
2, 491999, Note_on_c, 0, 83, 54
2, 491999, Note_on_c, 0, 71, 53
2, 492120, Note_on_c, 0, 71, 0
2, 492120, Note_on_c, 0, 68, 0
2, 492120, Note_on_c, 0, 92, 0
2, 492120, Note_on_c, 0, 83, 0
2, 492120, Note_on_c, 0, 78, 70
2, 492120, Note_on_c, 0, 90, 70
2, 492120, Note_on_c, 0, 85, 59
2, 492120, Note_on_c, 0, 70, 56
2, 492120, Note_on_c, 0, 73, 56
2, 492240, Note_on_c, 0, 73, 0
2, 492240, Note_on_c, 0, 85, 0
2, 492240, Note_on_c, 0, 70, 0
2, 492240, Note_on_c, 0, 83, 46
2, 492240, Note_on_c, 0, 71, 43
2, 492359, Note_on_c, 0, 71, 0
2, 492359, Note_on_c, 0, 83, 0
2, 492359, Note_on_c, 0, 85, 56
2, 492359, Note_on_c, 0, 73, 55
2, 492480, Note_on_c, 0, 73, 0
2, 492480, Note_on_c, 0, 78, 0
2, 492480, Note_on_c, 0, 90, 0
2, 492480, Note_on_c, 0, 85, 0
2, 492480, Note_on_c, 0, 88, 65
2, 492480, Note_on_c, 0, 81, 43
2, 492480, Note_on_c, 0, 69, 56
2, 492480, Note_on_c, 0, 76, 56
2, 492719, Note_on_c, 0, 76, 0
2, 492719, Note_on_c, 0, 69, 0
2, 492719, Note_on_c, 0, 81, 0
2, 492719, Note_on_c, 0, 81, 48
2, 492719, Note_on_c, 0, 69, 37
2, 492840, Note_on_c, 0, 69, 0
2, 492840, Note_on_c, 0, 81, 0
2, 492840, Note_on_c, 0, 76, 55
2, 492840, Note_on_c, 0, 83, 55
2, 492840, Note_on_c, 0, 68, 59
2, 492840, Note_on_c, 0, 71, 59
2, 492960, Note_on_c, 0, 71, 0
2, 492960, Note_on_c, 0, 83, 0
2, 492960, Note_on_c, 0, 68, 0
2, 492960, Note_on_c, 0, 76, 0
2, 492960, Note_on_c, 0, 81, 46
2, 492960, Note_on_c, 0, 69, 47
2, 493079, Note_on_c, 0, 69, 0
2, 493079, Note_on_c, 0, 81, 0
2, 493079, Note_on_c, 0, 83, 54
2, 493079, Note_on_c, 0, 71, 58
2, 493200, Note_on_c, 0, 71, 0
2, 493200, Note_on_c, 0, 83, 0
2, 493200, Note_on_c, 0, 88, 0
2, 493200, Note_on_c, 0, 87, 61
2, 493200, Note_on_c, 0, 80, 44
2, 493200, Note_on_c, 0, 68, 65
2, 493200, Note_on_c, 0, 75, 65
2, 493439, Note_on_c, 0, 75, 0
2, 493439, Note_on_c, 0, 68, 0
2, 493439, Note_on_c, 0, 80, 0
2, 493439, Note_on_c, 0, 78, 47
2, 493439, Note_on_c, 0, 66, 32
2, 493560, Note_on_c, 0, 66, 0
2, 493560, Note_on_c, 0, 78, 0
2, 493560, Note_on_c, 0, 87, 0
2, 493560, Note_on_c, 0, 85, 67
2, 493560, Note_on_c, 0, 80, 55
2, 493560, Note_on_c, 0, 73, 59
2, 493560, Note_on_c, 0, 68, 39
2, 493680, Note_on_c, 0, 68, 0
2, 493680, Note_on_c, 0, 80, 0
2, 493680, Note_on_c, 0, 78, 41
2, 493680, Note_on_c, 0, 66, 38
2, 493799, Note_on_c, 0, 66, 0
2, 493799, Note_on_c, 0, 78, 0
2, 493799, Note_on_c, 0, 80, 61
2, 493799, Note_on_c, 0, 68, 48
2, 493920, Note_on_c, 0, 68, 0
2, 493920, Note_on_c, 0, 85, 0
2, 493920, Note_on_c, 0, 73, 0
2, 493920, Note_on_c, 0, 80, 0
2, 493920, Note_on_c, 0, 84, 68
2, 493920, Note_on_c, 0, 76, 45
2, 493920, Note_on_c, 0, 64, 47
2, 493920, Note_on_c, 0, 72, 47
2, 494159, Note_on_c, 0, 72, 0
2, 494159, Note_on_c, 0, 64, 0
2, 494159, Note_on_c, 0, 76, 0
2, 494159, Note_on_c, 0, 78, 54
2, 494159, Note_on_c, 0, 66, 33
2, 494280, Note_on_c, 0, 66, 0
2, 494280, Note_on_c, 0, 78, 0
2, 494280, Note_on_c, 0, 84, 0
2, 494280, Note_on_c, 0, 85, 77
2, 494280, Note_on_c, 0, 78, 50
2, 494280, Note_on_c, 0, 66, 62
2, 494280, Note_on_c, 0, 73, 62
2, 494519, Note_on_c, 0, 73, 0
2, 494519, Note_on_c, 0, 66, 0
2, 494519, Note_on_c, 0, 78, 0
2, 494519, Note_on_c, 0, 80, 56
2, 494519, Note_on_c, 0, 68, 41
2, 494640, Note_on_c, 0, 68, 0
2, 494640, Note_on_c, 0, 80, 0
2, 494640, Note_on_c, 0, 85, 0
2, 494640, Note_on_c, 0, 77, 53
2, 494640, Note_on_c, 0, 80, 53
2, 494640, Note_on_c, 0, 68, 62
2, 494640, Note_on_c, 0, 74, 62
2, 494879, Note_on_c, 0, 74, 0
2, 494879, Note_on_c, 0, 77, 0
2, 494879, Note_on_c, 0, 80, 0
2, 494879, Note_on_c, 0, 68, 0
2, 494879, Note_on_c, 0, 78, 80
2, 494879, Note_on_c, 0, 81, 80
2, 494879, Note_on_c, 0, 69, 46
2, 495000, Note_on_c, 0, 69, 0
2, 495000, Note_on_c, 0, 81, 0
2, 495000, Note_on_c, 0, 78, 0
2, 495000, Note_on_c, 0, 78, 70
2, 495000, Note_on_c, 0, 81, 70
2, 495000, Note_on_c, 0, 69, 65
2, 495000, Note_on_c, 0, 75, 65
2, 495120, Note_on_c, 0, 75, 0
2, 495120, Note_on_c, 0, 78, 0
2, 495120, Note_on_c, 0, 81, 0
2, 495120, Note_on_c, 0, 69, 0
2, 495120, Note_on_c, 0, 82, 81
2, 495120, Note_on_c, 0, 70, 42
2, 495239, Note_on_c, 0, 70, 0
2, 495239, Note_on_c, 0, 82, 0
2, 495239, Note_on_c, 0, 83, 75
2, 495239, Note_on_c, 0, 71, 51
2, 495360, Note_on_c, 0, 71, 0
2, 495360, Note_on_c, 0, 83, 0
2, 495360, Note_on_c, 0, 76, 66
2, 495360, Note_on_c, 0, 80, 66
2, 495360, Note_on_c, 0, 68, 39
2, 495480, Note_on_c, 0, 68, 0
2, 495480, Note_on_c, 0, 80, 0
2, 495480, Note_on_c, 0, 76, 0
2, 495480, Note_on_c, 0, 78, 72
2, 495480, Note_on_c, 0, 81, 72
2, 495480, Note_on_c, 0, 69, 45
2, 495599, Note_on_c, 0, 69, 0
2, 495599, Note_on_c, 0, 81, 0
2, 495599, Note_on_c, 0, 78, 0
2, 495599, Note_on_c, 0, 79, 82
2, 495599, Note_on_c, 0, 82, 82
2, 495599, Note_on_c, 0, 70, 46
2, 495720, Note_on_c, 0, 70, 0
2, 495720, Note_on_c, 0, 82, 0
2, 495720, Note_on_c, 0, 79, 0
2, 495720, Note_on_c, 0, 80, 78
2, 495720, Note_on_c, 0, 83, 78
2, 495720, Note_on_c, 0, 68, 48
2, 495720, Note_on_c, 0, 71, 48
2, 495840, Note_on_c, 0, 71, 0
2, 495840, Note_on_c, 0, 80, 0
2, 495840, Note_on_c, 0, 83, 0
2, 495840, Note_on_c, 0, 68, 0
2, 495840, Note_on_c, 0, 81, 71
2, 495840, Note_on_c, 0, 69, 37
2, 495959, Note_on_c, 0, 69, 0
2, 495959, Note_on_c, 0, 81, 0
2, 495959, Note_on_c, 0, 82, 79
2, 495959, Note_on_c, 0, 70, 44
2, 496080, Note_on_c, 0, 70, 0
2, 496080, Note_on_c, 0, 82, 0
2, 496080, Note_on_c, 0, 83, 81
2, 496080, Note_on_c, 0, 71, 46
2, 496319, Note_on_c, 0, 71, 0
2, 496319, Note_on_c, 0, 83, 0
2, 496319, Note_on_c, 0, 80, 85
2, 496319, Note_on_c, 0, 85, 85
2, 496319, Note_on_c, 0, 68, 49
2, 496319, Note_on_c, 0, 73, 49
2, 496440, Note_on_c, 0, 73, 0
2, 496440, Note_on_c, 0, 80, 0
2, 496440, Note_on_c, 0, 85, 0
2, 496440, Note_on_c, 0, 68, 0
2, 496440, Note_on_c, 0, 83, 70
2, 496440, Note_on_c, 0, 80, 49
2, 496440, Note_on_c, 0, 68, 37
2, 496440, Note_on_c, 0, 71, 37
2, 496560, Note_on_c, 0, 85, 80
2, 496679, Note_on_c, 0, 85, 0
2, 496679, Note_on_c, 0, 87, 79
2, 496800, Note_on_c, 0, 87, 0
2, 496800, Note_on_c, 0, 88, 83
2, 496800, Note_on_c, 0, 76, 66
2, 496920, Note_on_c, 0, 76, 0
2, 496920, Note_on_c, 0, 80, 0
2, 496920, Note_on_c, 0, 83, 62
2, 496920, Note_on_c, 0, 71, 42
2, 497039, Note_on_c, 0, 71, 0
2, 497039, Note_on_c, 0, 83, 0
2, 497039, Note_on_c, 0, 85, 66
2, 497039, Note_on_c, 0, 73, 52
2, 497160, Note_on_c, 0, 73, 0
2, 497160, Note_on_c, 0, 71, 0
2, 497160, Note_on_c, 0, 68, 0
2, 497160, Note_on_c, 0, 88, 0
2, 497160, Note_on_c, 0, 85, 0
2, 497160, Note_on_c, 0, 83, 0
2, 497160, Note_on_c, 0, 92, 87
2, 497160, Note_on_c, 0, 80, 46
2, 497160, Note_on_c, 0, 83, 46
2, 497160, Note_on_c, 0, 71, 48
2, 497160, Note_on_c, 0, 68, 34
2, 497280, Note_on_c, 0, 71, 0
2, 497280, Note_on_c, 0, 69, 45
2, 497399, Note_on_c, 0, 69, 0
2, 497399, Note_on_c, 0, 70, 50
2, 497520, Note_on_c, 0, 70, 0
2, 497520, Note_on_c, 0, 68, 0
2, 497520, Note_on_c, 0, 71, 54
2, 497520, Note_on_c, 0, 68, 32
2, 497759, Note_on_c, 0, 71, 0
2, 497759, Note_on_c, 0, 83, 0
2, 497759, Note_on_c, 0, 80, 0
2, 497759, Note_on_c, 0, 83, 51
2, 497759, Note_on_c, 0, 71, 53
2, 497880, Note_on_c, 0, 71, 0
2, 497880, Note_on_c, 0, 68, 0
2, 497880, Note_on_c, 0, 92, 0
2, 497880, Note_on_c, 0, 83, 0
2, 497880, Note_on_c, 0, 90, 66
2, 497880, Note_on_c, 0, 85, 53
2, 497880, Note_on_c, 0, 78, 63
2, 497880, Note_on_c, 0, 73, 55
2, 498000, Note_on_c, 0, 73, 0
2, 498000, Note_on_c, 0, 85, 0
2, 498000, Note_on_c, 0, 83, 45
2, 498000, Note_on_c, 0, 71, 37
2, 498119, Note_on_c, 0, 71, 0
2, 498119, Note_on_c, 0, 90, 0
2, 498119, Note_on_c, 0, 78, 0
2, 498119, Note_on_c, 0, 83, 0
2, 498119, Note_on_c, 0, 88, 67
2, 498119, Note_on_c, 0, 85, 53
2, 498119, Note_on_c, 0, 76, 49
2, 498119, Note_on_c, 0, 73, 53
2, 498240, Note_on_c, 0, 73, 0
2, 498240, Note_on_c, 0, 88, 0
2, 498240, Note_on_c, 0, 85, 0
2, 498240, Note_on_c, 0, 76, 0
2, 498240, Note_on_c, 0, 88, 72
2, 498240, Note_on_c, 0, 81, 42
2, 498240, Note_on_c, 0, 76, 54
2, 498240, Note_on_c, 0, 69, 36
2, 498479, Note_on_c, 0, 69, 0
2, 498479, Note_on_c, 0, 81, 0
2, 498479, Note_on_c, 0, 81, 46
2, 498479, Note_on_c, 0, 69, 42
2, 498600, Note_on_c, 0, 69, 0
2, 498600, Note_on_c, 0, 81, 0
2, 498600, Note_on_c, 0, 83, 54
2, 498600, Note_on_c, 0, 71, 50
2, 498720, Note_on_c, 0, 71, 0
2, 498720, Note_on_c, 0, 83, 0
2, 498720, Note_on_c, 0, 81, 42
2, 498720, Note_on_c, 0, 69, 38
2, 498839, Note_on_c, 0, 69, 0
2, 498839, Note_on_c, 0, 88, 0
2, 498839, Note_on_c, 0, 76, 0
2, 498839, Note_on_c, 0, 81, 0
2, 498839, Note_on_c, 0, 87, 69
2, 498839, Note_on_c, 0, 83, 60
2, 498839, Note_on_c, 0, 75, 52
2, 498839, Note_on_c, 0, 71, 47
2, 498960, Note_on_c, 0, 71, 0
2, 498960, Note_on_c, 0, 87, 0
2, 498960, Note_on_c, 0, 83, 0
2, 498960, Note_on_c, 0, 75, 0
2, 498960, Note_on_c, 0, 87, 72
2, 498960, Note_on_c, 0, 80, 45
2, 498960, Note_on_c, 0, 75, 54
2, 498960, Note_on_c, 0, 68, 32
2, 499199, Note_on_c, 0, 68, 0
2, 499199, Note_on_c, 0, 80, 0
2, 499199, Note_on_c, 0, 78, 46
2, 499199, Note_on_c, 0, 66, 31
2, 499320, Note_on_c, 0, 66, 0
2, 499320, Note_on_c, 0, 78, 0
2, 499320, Note_on_c, 0, 80, 58
2, 499320, Note_on_c, 0, 68, 44
2, 499440, Note_on_c, 0, 68, 0
2, 499440, Note_on_c, 0, 80, 0
2, 499440, Note_on_c, 0, 78, 48
2, 499440, Note_on_c, 0, 66, 35
2, 499559, Note_on_c, 0, 66, 0
2, 499559, Note_on_c, 0, 87, 0
2, 499559, Note_on_c, 0, 75, 0
2, 499559, Note_on_c, 0, 78, 0
2, 499559, Note_on_c, 0, 85, 63
2, 499559, Note_on_c, 0, 80, 57
2, 499559, Note_on_c, 0, 73, 45
2, 499559, Note_on_c, 0, 68, 43
2, 499680, Note_on_c, 0, 68, 0
2, 499680, Note_on_c, 0, 85, 0
2, 499680, Note_on_c, 0, 80, 0
2, 499680, Note_on_c, 0, 73, 0
2, 499680, Note_on_c, 0, 78, 48
2, 499680, Note_on_c, 0, 73, 54
2, 499680, Note_on_c, 0, 66, 33
2, 499919, Note_on_c, 0, 66, 0
2, 499919, Note_on_c, 0, 78, 0
2, 499919, Note_on_c, 0, 81, 80
2, 499919, Note_on_c, 0, 69, 46
2, 500040, Note_on_c, 0, 69, 0
2, 500040, Note_on_c, 0, 81, 0
2, 500040, Note_on_c, 0, 73, 0
2, 500040, Note_on_c, 0, 77, 74
2, 500040, Note_on_c, 0, 80, 74
2, 500040, Note_on_c, 0, 68, 42
2, 500279, Note_on_c, 0, 68, 0
2, 500279, Note_on_c, 0, 80, 0
2, 500279, Note_on_c, 0, 77, 0
2, 500279, Note_on_c, 0, 83, 80
2, 500279, Note_on_c, 0, 71, 57
2, 500400, Note_on_c, 0, 71, 0
2, 500400, Note_on_c, 0, 83, 0
2, 500400, Note_on_c, 0, 76, 66
2, 500400, Note_on_c, 0, 81, 66
2, 500400, Note_on_c, 0, 69, 55
2, 500400, Note_on_c, 0, 73, 55
2, 500639, Note_on_c, 0, 73, 0
2, 500639, Note_on_c, 0, 76, 0
2, 500639, Note_on_c, 0, 81, 0
2, 500639, Note_on_c, 0, 69, 0
2, 500639, Note_on_c, 0, 78, 85
2, 500639, Note_on_c, 0, 85, 85
2, 500639, Note_on_c, 0, 75, 52
2, 500760, Note_on_c, 0, 75, 0
2, 500760, Note_on_c, 0, 85, 0
2, 500760, Note_on_c, 0, 78, 0
2, 500760, Note_on_c, 0, 76, 63
2, 500760, Note_on_c, 0, 80, 63
2, 500760, Note_on_c, 0, 68, 42
2, 500760, Note_on_c, 0, 74, 42
2, 500880, Note_on_c, 0, 74, 0
2, 500880, Note_on_c, 0, 76, 0
2, 500880, Note_on_c, 0, 80, 0
2, 500880, Note_on_c, 0, 68, 0
2, 500880, Note_on_c, 0, 81, 80
2, 500880, Note_on_c, 0, 69, 37
2, 500999, Note_on_c, 0, 69, 0
2, 500999, Note_on_c, 0, 81, 0
2, 500999, Note_on_c, 0, 83, 80
2, 500999, Note_on_c, 0, 71, 51
2, 501120, Note_on_c, 0, 71, 0
2, 501120, Note_on_c, 0, 83, 0
2, 501120, Note_on_c, 0, 81, 86
2, 501120, Note_on_c, 0, 85, 86
2, 501120, Note_on_c, 0, 69, 58
2, 501120, Note_on_c, 0, 73, 58
2, 501240, Note_on_c, 0, 73, 0
2, 501240, Note_on_c, 0, 81, 0
2, 501240, Note_on_c, 0, 85, 0
2, 501240, Note_on_c, 0, 69, 0
2, 501240, Note_on_c, 0, 86, 79
2, 501240, Note_on_c, 0, 74, 54
2, 501359, Note_on_c, 0, 74, 0
2, 501359, Note_on_c, 0, 86, 0
2, 501359, Note_on_c, 0, 87, 79
2, 501359, Note_on_c, 0, 75, 55
2, 501480, Note_on_c, 0, 75, 0
2, 501480, Note_on_c, 0, 87, 0
2, 501480, Note_on_c, 0, 85, 80
2, 501480, Note_on_c, 0, 88, 80
2, 501480, Note_on_c, 0, 73, 57
2, 501480, Note_on_c, 0, 76, 57
2, 501600, Note_on_c, 0, 76, 0
2, 501600, Note_on_c, 0, 85, 0
2, 501600, Note_on_c, 0, 88, 0
2, 501600, Note_on_c, 0, 73, 0
2, 501600, Note_on_c, 0, 86, 71
2, 501600, Note_on_c, 0, 74, 50
2, 501719, Note_on_c, 0, 74, 0
2, 501719, Note_on_c, 0, 86, 0
2, 501719, Note_on_c, 0, 87, 72
2, 501719, Note_on_c, 0, 75, 55
2, 501840, Note_on_c, 0, 75, 0
2, 501840, Note_on_c, 0, 87, 0
2, 501840, Note_on_c, 0, 88, 77
2, 501840, Note_on_c, 0, 85, 63
2, 501840, Note_on_c, 0, 69, 51
2, 501840, Note_on_c, 0, 73, 51
2, 501840, Note_on_c, 0, 76, 51
2, 502079, Note_on_c, 0, 76, 0
2, 502079, Note_on_c, 0, 69, 0
2, 502079, Note_on_c, 0, 73, 0
2, 502079, Note_on_c, 0, 85, 0
2, 502079, Note_on_c, 0, 88, 59
2, 502079, Note_on_c, 0, 76, 50
2, 502200, Note_on_c, 0, 76, 0
2, 502200, Note_on_c, 0, 88, 0
2, 502200, Note_on_c, 0, 88, 0
2, 502200, Note_on_c, 0, 93, 91
2, 502200, Note_on_c, 0, 90, 54
2, 502200, Note_on_c, 0, 74, 45
2, 502320, Note_on_c, 0, 74, 0
2, 502320, Note_on_c, 0, 90, 0
2, 502320, Note_on_c, 0, 88, 45
2, 502320, Note_on_c, 0, 76, 58
2, 502439, Note_on_c, 0, 76, 0
2, 502439, Note_on_c, 0, 88, 0
2, 502439, Note_on_c, 0, 86, 48
2, 502439, Note_on_c, 0, 78, 58
2, 502560, Note_on_c, 0, 78, 0
2, 502560, Note_on_c, 0, 86, 0
2, 502560, Note_on_c, 0, 93, 0
2, 502560, Note_on_c, 0, 97, 91
2, 502560, Note_on_c, 0, 88, 52
2, 502560, Note_on_c, 0, 73, 40
2, 502680, Note_on_c, 0, 73, 0
2, 502680, Note_on_c, 0, 88, 0
2, 502680, Note_on_c, 0, 86, 48
2, 502680, Note_on_c, 0, 74, 51
2, 502799, Note_on_c, 0, 74, 0
2, 502799, Note_on_c, 0, 86, 0
2, 502799, Note_on_c, 0, 85, 46
2, 502799, Note_on_c, 0, 76, 58
2, 502920, Note_on_c, 0, 76, 0
2, 502920, Note_on_c, 0, 85, 0
2, 502920, Note_on_c, 0, 97, 0
2, 502920, Note_on_c, 0, 90, 53
2, 502920, Note_on_c, 0, 86, 55
2, 502920, Note_on_c, 0, 71, 39
2, 503040, Note_on_c, 0, 71, 0
2, 503040, Note_on_c, 0, 86, 0
2, 503040, Note_on_c, 0, 85, 46
2, 503040, Note_on_c, 0, 73, 58
2, 503159, Note_on_c, 0, 73, 0
2, 503159, Note_on_c, 0, 85, 0
2, 503159, Note_on_c, 0, 83, 43
2, 503159, Note_on_c, 0, 74, 56
2, 503280, Note_on_c, 0, 74, 0
2, 503280, Note_on_c, 0, 83, 0
2, 503280, Note_on_c, 0, 85, 55
2, 503280, Note_on_c, 0, 69, 45
2, 503400, Note_on_c, 0, 69, 0
2, 503400, Note_on_c, 0, 85, 0
2, 503400, Note_on_c, 0, 83, 44
2, 503400, Note_on_c, 0, 71, 56
2, 503519, Note_on_c, 0, 71, 0
2, 503519, Note_on_c, 0, 83, 0
2, 503519, Note_on_c, 0, 81, 48
2, 503519, Note_on_c, 0, 73, 56
2, 503640, Note_on_c, 0, 73, 0
2, 503640, Note_on_c, 0, 81, 0
2, 503640, Note_on_c, 0, 90, 0
2, 503640, Note_on_c, 0, 92, 73
2, 503640, Note_on_c, 0, 83, 60
2, 503640, Note_on_c, 0, 68, 36
2, 503760, Note_on_c, 0, 68, 0
2, 503760, Note_on_c, 0, 83, 0
2, 503760, Note_on_c, 0, 81, 48
2, 503760, Note_on_c, 0, 69, 54
2, 503879, Note_on_c, 0, 69, 0
2, 503879, Note_on_c, 0, 81, 0
2, 503879, Note_on_c, 0, 83, 57
2, 503879, Note_on_c, 0, 71, 59
2, 504000, Note_on_c, 0, 71, 0
2, 504000, Note_on_c, 0, 83, 0
2, 504000, Note_on_c, 0, 92, 0
2, 504000, Note_on_c, 0, 93, 79
2, 504000, Note_on_c, 0, 81, 46
2, 504000, Note_on_c, 0, 69, 43
2, 504120, Note_on_c, 0, 69, 0
2, 504120, Note_on_c, 0, 81, 0
2, 504120, Note_on_c, 0, 83, 51
2, 504120, Note_on_c, 0, 71, 53
2, 504239, Note_on_c, 0, 71, 0
2, 504239, Note_on_c, 0, 83, 0
2, 504239, Note_on_c, 0, 84, 60
2, 504239, Note_on_c, 0, 72, 55
2, 504360, Note_on_c, 0, 72, 0
2, 504360, Note_on_c, 0, 84, 0
2, 504360, Note_on_c, 0, 93, 0
2, 504360, Note_on_c, 0, 81, 51
2, 504360, Note_on_c, 0, 85, 51
2, 504360, Note_on_c, 0, 69, 56
2, 504360, Note_on_c, 0, 73, 56
2, 504480, Note_on_c, 0, 73, 0
2, 504480, Note_on_c, 0, 81, 0
2, 504480, Note_on_c, 0, 85, 0
2, 504480, Note_on_c, 0, 69, 0
2, 504480, Note_on_c, 0, 83, 63
2, 504480, Note_on_c, 0, 71, 51
2, 504599, Note_on_c, 0, 71, 0
2, 504599, Note_on_c, 0, 83, 0
2, 504599, Note_on_c, 0, 84, 75
2, 504599, Note_on_c, 0, 72, 59
2, 504720, Note_on_c, 0, 72, 0
2, 504720, Note_on_c, 0, 84, 0
2, 504720, Note_on_c, 0, 85, 75
2, 504720, Note_on_c, 0, 81, 51
2, 504720, Note_on_c, 0, 66, 80
2, 504720, Note_on_c, 0, 69, 80
2, 504720, Note_on_c, 0, 73, 80
2, 504959, Note_on_c, 0, 73, 0
2, 504959, Note_on_c, 0, 66, 0
2, 504959, Note_on_c, 0, 69, 0
2, 504959, Note_on_c, 0, 81, 0
2, 504959, Note_on_c, 0, 85, 58
2, 504959, Note_on_c, 0, 73, 51
2, 505080, Note_on_c, 0, 73, 0
2, 505080, Note_on_c, 0, 85, 0
2, 505080, Note_on_c, 0, 85, 0
2, 505080, Note_on_c, 0, 90, 90
2, 505080, Note_on_c, 0, 86, 60
2, 505080, Note_on_c, 0, 72, 50
2, 505200, Note_on_c, 0, 72, 0
2, 505200, Note_on_c, 0, 86, 0
2, 505200, Note_on_c, 0, 85, 45
2, 505200, Note_on_c, 0, 73, 52
2, 505319, Note_on_c, 0, 73, 0
2, 505319, Note_on_c, 0, 85, 0
2, 505319, Note_on_c, 0, 84, 45
2, 505319, Note_on_c, 0, 74, 57
2, 505440, Note_on_c, 0, 74, 0
2, 505440, Note_on_c, 0, 84, 0
2, 505440, Note_on_c, 0, 90, 0
2, 505440, Note_on_c, 0, 93, 84
2, 505440, Note_on_c, 0, 85, 55
2, 505440, Note_on_c, 0, 69, 42
2, 505560, Note_on_c, 0, 69, 0
2, 505560, Note_on_c, 0, 85, 0
2, 505560, Note_on_c, 0, 83, 44
2, 505560, Note_on_c, 0, 71, 54
2, 505679, Note_on_c, 0, 71, 0
2, 505679, Note_on_c, 0, 83, 0
2, 505679, Note_on_c, 0, 85, 54
2, 505679, Note_on_c, 0, 73, 61
2, 505800, Note_on_c, 0, 73, 0
2, 505800, Note_on_c, 0, 85, 0
2, 505800, Note_on_c, 0, 83, 45
2, 505800, Note_on_c, 0, 68, 39
2, 505920, Note_on_c, 0, 68, 0
2, 505920, Note_on_c, 0, 83, 0
2, 505920, Note_on_c, 0, 81, 42
2, 505920, Note_on_c, 0, 69, 50
2, 506039, Note_on_c, 0, 69, 0
2, 506039, Note_on_c, 0, 81, 0
2, 506039, Note_on_c, 0, 80, 44
2, 506039, Note_on_c, 0, 71, 56
2, 506160, Note_on_c, 0, 71, 0
2, 506160, Note_on_c, 0, 80, 0
2, 506160, Note_on_c, 0, 93, 0
2, 506160, Note_on_c, 0, 85, 51
2, 506160, Note_on_c, 0, 81, 54
2, 506160, Note_on_c, 0, 66, 42
2, 506280, Note_on_c, 0, 66, 0
2, 506280, Note_on_c, 0, 81, 0
2, 506280, Note_on_c, 0, 80, 45
2, 506280, Note_on_c, 0, 68, 52
2, 506399, Note_on_c, 0, 68, 0
2, 506399, Note_on_c, 0, 80, 0
2, 506399, Note_on_c, 0, 78, 42
2, 506399, Note_on_c, 0, 69, 58
2, 506520, Note_on_c, 0, 69, 0
2, 506520, Note_on_c, 0, 78, 0
2, 506520, Note_on_c, 0, 80, 57
2, 506520, Note_on_c, 0, 64, 38
2, 506640, Note_on_c, 0, 64, 0
2, 506640, Note_on_c, 0, 85, 0
2, 506640, Note_on_c, 0, 87, 76
2, 506640, Note_on_c, 0, 66, 58
2, 506759, Note_on_c, 0, 66, 0
2, 506759, Note_on_c, 0, 87, 0
2, 506759, Note_on_c, 0, 88, 82
2, 506759, Note_on_c, 0, 68, 53
2, 506880, Note_on_c, 0, 68, 0
2, 506880, Note_on_c, 0, 88, 0
2, 506880, Note_on_c, 0, 80, 0
2, 506880, Note_on_c, 0, 78, 79
2, 506880, Note_on_c, 0, 90, 79
2, 506880, Note_on_c, 0, 63, 47
2, 506880, Note_on_c, 0, 66, 47
2, 507000, Note_on_c, 0, 66, 0
2, 507000, Note_on_c, 0, 63, 0
2, 507240, Note_on_c, 0, 90, 0
2, 507240, Note_on_c, 0, 78, 0
2, 507240, Note_on_c, 0, 64, 44
2, 507360, Note_on_c, 0, 64, 0
2, 507360, Note_on_c, 0, 66, 56
2, 507479, Note_on_c, 0, 66, 0
2, 507479, Note_on_c, 0, 68, 60
2, 507600, Note_on_c, 0, 68, 0
2, 507600, Note_on_c, 0, 69, 64
2, 507839, Note_on_c, 0, 75, 65
2, 507960, Note_on_c, 0, 75, 0
2, 507960, Note_on_c, 0, 76, 83
2, 508080, Note_on_c, 0, 76, 0
2, 508080, Note_on_c, 0, 78, 83
2, 508199, Note_on_c, 0, 78, 0
2, 508199, Note_on_c, 0, 69, 0
2, 508199, Note_on_c, 0, 80, 82
2, 508199, Note_on_c, 0, 71, 53
2, 508320, Note_on_c, 0, 71, 0
2, 508320, Note_on_c, 0, 80, 0
2, 508320, Note_on_c, 0, 81, 87
2, 508320, Note_on_c, 0, 71, 51
2, 508440, Note_on_c, 0, 71, 0
2, 508440, Note_on_c, 0, 73, 41
2, 508559, Note_on_c, 0, 73, 0
2, 508559, Note_on_c, 0, 75, 60
2, 508559, Note_on_c, 0, 69, 37
2, 508680, Note_on_c, 0, 69, 0
2, 508680, Note_on_c, 0, 75, 0
2, 508680, Note_on_c, 0, 73, 49
2, 508680, Note_on_c, 0, 76, 49
2, 508680, Note_on_c, 0, 68, 49
2, 508680, Note_on_c, 0, 69, 40
2, 509040, Note_on_c, 0, 68, 0
2, 509040, Note_on_c, 0, 66, 44
2, 509269, Note_on_c, 0, 81, 0
2, 509279, Note_on_c, 0, 73, 0
2, 509279, Note_on_c, 0, 76, 0
2, 509279, Note_on_c, 0, 73, 47
2, 509400, Note_on_c, 0, 73, 0
2, 509400, Note_on_c, 0, 69, 0
2, 509400, Note_on_c, 0, 80, 65
2, 509400, Note_on_c, 0, 73, 47
2, 509400, Note_on_c, 0, 69, 55
2, 509400, Note_on_c, 0, 64, 29
2, 509639, Note_on_c, 0, 69, 0
2, 509639, Note_on_c, 0, 80, 0
2, 509639, Note_on_c, 0, 66, 0
2, 509639, Note_on_c, 0, 76, 62
2, 509639, Note_on_c, 0, 68, 53
2, 509760, Note_on_c, 0, 68, 0
2, 509760, Note_on_c, 0, 64, 0
2, 509760, Note_on_c, 0, 73, 0
2, 509760, Note_on_c, 0, 76, 0
2, 509760, Note_on_c, 0, 78, 74
2, 509760, Note_on_c, 0, 66, 57
2, 509760, Note_on_c, 0, 69, 57
2, 509819, Note_on_c, 0, 69, 0
2, 509819, Note_on_c, 0, 66, 0
2, 510120, Note_on_c, 0, 78, 0
2, 510120, Note_on_c, 0, 68, 43
2, 510240, Note_on_c, 0, 68, 0
2, 510240, Note_on_c, 0, 69, 53
2, 510359, Note_on_c, 0, 69, 0
2, 510359, Note_on_c, 0, 71, 58
2, 510480, Note_on_c, 0, 71, 0
2, 510480, Note_on_c, 0, 73, 57
2, 510719, Note_on_c, 0, 78, 58
2, 510719, Note_on_c, 0, 69, 31
2, 510840, Note_on_c, 0, 69, 0
2, 510840, Note_on_c, 0, 78, 0
2, 510840, Note_on_c, 0, 80, 81
2, 510840, Note_on_c, 0, 69, 41
2, 510960, Note_on_c, 0, 80, 0
2, 510960, Note_on_c, 0, 81, 75
2, 511079, Note_on_c, 0, 81, 0
2, 511079, Note_on_c, 0, 73, 0
2, 511079, Note_on_c, 0, 83, 84
2, 511079, Note_on_c, 0, 75, 57
2, 511200, Note_on_c, 0, 75, 0
2, 511200, Note_on_c, 0, 83, 0
2, 511200, Note_on_c, 0, 85, 91
2, 511200, Note_on_c, 0, 75, 50
2, 511320, Note_on_c, 0, 75, 0
2, 511320, Note_on_c, 0, 76, 42
2, 511439, Note_on_c, 0, 76, 0
2, 511439, Note_on_c, 0, 78, 54
2, 511439, Note_on_c, 0, 73, 38
2, 511560, Note_on_c, 0, 73, 0
2, 511560, Note_on_c, 0, 78, 0
2, 511560, Note_on_c, 0, 69, 0
2, 511560, Note_on_c, 0, 76, 58
2, 511560, Note_on_c, 0, 80, 58
2, 511560, Note_on_c, 0, 71, 48
2, 511560, Note_on_c, 0, 73, 54
2, 511920, Note_on_c, 0, 71, 0
2, 511920, Note_on_c, 0, 69, 46
2, 512149, Note_on_c, 0, 85, 0
2, 512159, Note_on_c, 0, 76, 0
2, 512159, Note_on_c, 0, 80, 0
2, 512159, Note_on_c, 0, 76, 42
2, 512280, Note_on_c, 0, 73, 0
2, 512280, Note_on_c, 0, 69, 0
2, 512280, Note_on_c, 0, 83, 69
2, 512280, Note_on_c, 0, 73, 55
2, 512280, Note_on_c, 0, 69, 50
2, 512280, Note_on_c, 0, 68, 32
2, 512519, Note_on_c, 0, 83, 0
2, 512519, Note_on_c, 0, 73, 48
2, 512640, Note_on_c, 0, 73, 0
2, 512640, Note_on_c, 0, 68, 0
2, 512640, Note_on_c, 0, 76, 0
2, 512640, Note_on_c, 0, 73, 0
2, 512640, Note_on_c, 0, 69, 0
2, 512640, Note_on_c, 0, 81, 91
2, 512640, Note_on_c, 0, 75, 44
2, 512640, Note_on_c, 0, 66, 56
2, 512640, Note_on_c, 0, 71, 56
2, 512760, Note_on_c, 0, 75, 0
2, 512760, Note_on_c, 0, 78, 55
2, 512879, Note_on_c, 0, 78, 0
2, 512879, Note_on_c, 0, 80, 55
2, 513000, Note_on_c, 0, 80, 0
2, 513000, Note_on_c, 0, 81, 0
2, 513000, Note_on_c, 0, 66, 0
2, 513000, Note_on_c, 0, 71, 0
2, 513000, Note_on_c, 0, 75, 92
2, 513000, Note_on_c, 0, 78, 92
2, 513000, Note_on_c, 0, 81, 92
2, 513000, Note_on_c, 0, 66, 51
2, 513000, Note_on_c, 0, 69, 51
2, 513120, Note_on_c, 0, 69, 0
2, 513120, Note_on_c, 0, 66, 0
2, 513120, Note_on_c, 0, 66, 39
2, 513239, Note_on_c, 0, 66, 0
2, 513239, Note_on_c, 0, 68, 53
2, 513360, Note_on_c, 0, 68, 0
2, 513360, Note_on_c, 0, 69, 49
2, 513599, Note_on_c, 0, 69, 0
2, 513599, Note_on_c, 0, 81, 0
2, 513599, Note_on_c, 0, 78, 0
2, 513599, Note_on_c, 0, 75, 0
2, 513599, Note_on_c, 0, 80, 68
2, 513599, Note_on_c, 0, 71, 59
2, 513720, Note_on_c, 0, 71, 0
2, 513720, Note_on_c, 0, 80, 0
2, 513720, Note_on_c, 0, 73, 92
2, 513720, Note_on_c, 0, 76, 92
2, 513720, Note_on_c, 0, 81, 92
2, 513720, Note_on_c, 0, 64, 44
2, 513720, Note_on_c, 0, 69, 44
2, 514080, Note_on_c, 0, 64, 0
2, 514080, Note_on_c, 0, 81, 0
2, 514080, Note_on_c, 0, 73, 0
2, 514080, Note_on_c, 0, 76, 0
2, 514080, Note_on_c, 0, 71, 59
2, 514080, Note_on_c, 0, 75, 59
2, 514080, Note_on_c, 0, 66, 55
2, 514200, Note_on_c, 0, 75, 0
2, 514200, Note_on_c, 0, 71, 0
2, 514200, Note_on_c, 0, 78, 80
2, 514319, Note_on_c, 0, 78, 0
2, 514319, Note_on_c, 0, 80, 79
2, 514440, Note_on_c, 0, 80, 0
2, 514440, Note_on_c, 0, 69, 0
2, 514440, Note_on_c, 0, 66, 0
2, 514440, Note_on_c, 0, 81, 92
2, 514440, Note_on_c, 0, 75, 46
2, 514440, Note_on_c, 0, 78, 46
2, 514440, Note_on_c, 0, 69, 56
2, 514440, Note_on_c, 0, 66, 33
2, 514560, Note_on_c, 0, 66, 0
2, 514560, Note_on_c, 0, 66, 40
2, 514679, Note_on_c, 0, 66, 0
2, 514679, Note_on_c, 0, 68, 47
2, 514800, Note_on_c, 0, 68, 0
2, 514800, Note_on_c, 0, 69, 0
2, 514800, Note_on_c, 0, 69, 52
2, 514920, Note_on_c, 0, 81, 0
2, 514920, Note_on_c, 0, 81, 72
2, 515039, Note_on_c, 0, 81, 0
2, 515039, Note_on_c, 0, 69, 0
2, 515039, Note_on_c, 0, 80, 69
2, 515039, Note_on_c, 0, 71, 52
2, 515160, Note_on_c, 0, 71, 0
2, 515160, Note_on_c, 0, 75, 0
2, 515160, Note_on_c, 0, 78, 0
2, 515160, Note_on_c, 0, 80, 0
2, 515160, Note_on_c, 0, 73, 92
2, 515160, Note_on_c, 0, 76, 92
2, 515160, Note_on_c, 0, 81, 92
2, 515160, Note_on_c, 0, 69, 45
2, 515520, Note_on_c, 0, 76, 0
2, 515520, Note_on_c, 0, 73, 0
2, 515520, Note_on_c, 0, 71, 36
2, 515520, Note_on_c, 0, 75, 36
2, 515520, Note_on_c, 0, 66, 48
2, 515640, Note_on_c, 0, 75, 0
2, 515640, Note_on_c, 0, 71, 0
2, 515640, Note_on_c, 0, 78, 56
2, 515759, Note_on_c, 0, 78, 0
2, 515759, Note_on_c, 0, 80, 59
2, 515880, Note_on_c, 0, 80, 0
2, 515880, Note_on_c, 0, 69, 0
2, 515880, Note_on_c, 0, 81, 0
2, 515880, Note_on_c, 0, 66, 0
2, 515880, Note_on_c, 0, 75, 92
2, 515880, Note_on_c, 0, 81, 92
2, 515880, Note_on_c, 0, 66, 49
2, 515880, Note_on_c, 0, 69, 49
2, 516119, Note_on_c, 0, 69, 0
2, 516119, Note_on_c, 0, 75, 0
2, 516119, Note_on_c, 0, 81, 0
2, 516119, Note_on_c, 0, 66, 0
2, 516119, Note_on_c, 0, 73, 75
2, 516119, Note_on_c, 0, 81, 75
2, 516119, Note_on_c, 0, 64, 48
2, 516119, Note_on_c, 0, 69, 48
2, 516240, Note_on_c, 0, 69, 0
2, 516240, Note_on_c, 0, 73, 0
2, 516240, Note_on_c, 0, 81, 0
2, 516240, Note_on_c, 0, 64, 0
2, 516240, Note_on_c, 0, 81, 92
2, 516240, Note_on_c, 0, 75, 38
2, 516240, Note_on_c, 0, 69, 46
2, 516240, Note_on_c, 0, 66, 32
2, 516360, Note_on_c, 0, 81, 0
2, 516360, Note_on_c, 0, 78, 61
2, 516479, Note_on_c, 0, 78, 0
2, 516479, Note_on_c, 0, 80, 79
2, 516600, Note_on_c, 0, 80, 0
2, 516600, Note_on_c, 0, 69, 0
2, 516600, Note_on_c, 0, 81, 92
2, 516600, Note_on_c, 0, 69, 54
2, 516839, Note_on_c, 0, 69, 0
2, 516839, Note_on_c, 0, 81, 0
2, 516839, Note_on_c, 0, 75, 0
2, 516839, Note_on_c, 0, 84, 83
2, 516839, Note_on_c, 0, 76, 54
2, 516839, Note_on_c, 0, 67, 58
2, 516839, Note_on_c, 0, 72, 58
2, 516960, Note_on_c, 0, 72, 0
2, 516960, Note_on_c, 0, 76, 0
2, 516960, Note_on_c, 0, 66, 0
2, 516960, Note_on_c, 0, 84, 0
2, 516960, Note_on_c, 0, 67, 0
2, 516960, Note_on_c, 0, 78, 92
2, 516960, Note_on_c, 0, 84, 92
2, 516960, Note_on_c, 0, 69, 51
2, 516960, Note_on_c, 0, 72, 51
2, 517080, Note_on_c, 0, 84, 0
2, 517080, Note_on_c, 0, 78, 0
2, 517080, Note_on_c, 0, 81, 72
2, 517199, Note_on_c, 0, 81, 0
2, 517199, Note_on_c, 0, 83, 82
2, 517320, Note_on_c, 0, 83, 0
2, 517320, Note_on_c, 0, 72, 0
2, 517320, Note_on_c, 0, 78, 92
2, 517320, Note_on_c, 0, 84, 92
2, 517320, Note_on_c, 0, 72, 52
2, 517559, Note_on_c, 0, 72, 0
2, 517559, Note_on_c, 0, 69, 0
2, 517559, Note_on_c, 0, 78, 0
2, 517559, Note_on_c, 0, 84, 0
2, 517559, Note_on_c, 0, 76, 80
2, 517559, Note_on_c, 0, 84, 80
2, 517559, Note_on_c, 0, 67, 50
2, 517559, Note_on_c, 0, 72, 50
2, 517680, Note_on_c, 0, 72, 0
2, 517680, Note_on_c, 0, 76, 0
2, 517680, Note_on_c, 0, 84, 0
2, 517680, Note_on_c, 0, 67, 0
2, 517680, Note_on_c, 0, 84, 92
2, 517680, Note_on_c, 0, 78, 57
2, 517680, Note_on_c, 0, 69, 52
2, 517680, Note_on_c, 0, 72, 52
2, 517800, Note_on_c, 0, 84, 0
2, 517800, Note_on_c, 0, 81, 62
2, 517919, Note_on_c, 0, 81, 0
2, 517919, Note_on_c, 0, 83, 74
2, 518040, Note_on_c, 0, 83, 0
2, 518040, Note_on_c, 0, 72, 0
2, 518040, Note_on_c, 0, 84, 92
2, 518040, Note_on_c, 0, 72, 50
2, 518279, Note_on_c, 0, 72, 0
2, 518279, Note_on_c, 0, 84, 0
2, 518279, Note_on_c, 0, 69, 0
2, 518279, Note_on_c, 0, 84, 73
2, 518279, Note_on_c, 0, 67, 60
2, 518279, Note_on_c, 0, 72, 60
2, 518279, Note_on_c, 0, 76, 60
2, 518400, Note_on_c, 0, 76, 0
2, 518400, Note_on_c, 0, 67, 0
2, 518400, Note_on_c, 0, 78, 0
2, 518400, Note_on_c, 0, 84, 0
2, 518400, Note_on_c, 0, 72, 0
2, 518400, Note_on_c, 0, 84, 47
2, 518400, Note_on_c, 0, 86, 47
2, 518400, Note_on_c, 0, 69, 47
2, 518400, Note_on_c, 0, 72, 47
2, 518400, Note_on_c, 0, 74, 47
2, 518520, Note_on_c, 0, 74, 0
2, 518520, Note_on_c, 0, 69, 0
2, 518520, Note_on_c, 0, 84, 0
2, 518520, Note_on_c, 0, 86, 0
2, 518520, Note_on_c, 0, 72, 0
2, 518520, Note_on_c, 0, 96, 91
2, 518639, Note_on_c, 0, 96, 0
2, 518639, Note_on_c, 0, 97, 86
2, 518639, Note_on_c, 0, 85, 41
2, 518760, Note_on_c, 0, 85, 0
2, 518760, Note_on_c, 0, 97, 0
2, 518760, Note_on_c, 0, 98, 92
2, 518760, Note_on_c, 0, 86, 79
2, 518999, Note_on_c, 0, 86, 0
2, 518999, Note_on_c, 0, 98, 0
2, 518999, Note_on_c, 0, 95, 60
2, 518999, Note_on_c, 0, 83, 42
2, 519120, Note_on_c, 0, 83, 0
2, 519120, Note_on_c, 0, 95, 0
2, 519120, Note_on_c, 0, 96, 80
2, 519120, Note_on_c, 0, 84, 57
2, 519359, Note_on_c, 0, 84, 0
2, 519359, Note_on_c, 0, 96, 0
2, 519359, Note_on_c, 0, 93, 65
2, 519359, Note_on_c, 0, 81, 47
2, 519480, Note_on_c, 0, 81, 0
2, 519480, Note_on_c, 0, 93, 0
2, 519480, Note_on_c, 0, 95, 81
2, 519480, Note_on_c, 0, 83, 55
2, 519719, Note_on_c, 0, 83, 0
2, 519719, Note_on_c, 0, 95, 0
2, 519719, Note_on_c, 0, 90, 91
2, 519719, Note_on_c, 0, 78, 38
2, 519840, Note_on_c, 0, 78, 0
2, 519840, Note_on_c, 0, 90, 0
2, 519840, Note_on_c, 0, 91, 76
2, 519840, Note_on_c, 0, 79, 52
2, 520079, Note_on_c, 0, 79, 0
2, 520079, Note_on_c, 0, 91, 0
2, 520079, Note_on_c, 0, 88, 63
2, 520079, Note_on_c, 0, 76, 42
2, 520200, Note_on_c, 0, 76, 0
2, 520200, Note_on_c, 0, 88, 0
2, 520200, Note_on_c, 0, 90, 76
2, 520200, Note_on_c, 0, 78, 58
2, 520439, Note_on_c, 0, 78, 0
2, 520439, Note_on_c, 0, 90, 0
2, 520439, Note_on_c, 0, 86, 61
2, 520439, Note_on_c, 0, 74, 44
2, 520560, Note_on_c, 0, 74, 0
2, 520560, Note_on_c, 0, 86, 0
2, 520560, Note_on_c, 0, 88, 79
2, 520560, Note_on_c, 0, 76, 52
2, 520680, Note_on_c, 0, 76, 0
2, 520680, Note_on_c, 0, 88, 0
2, 520680, Note_on_c, 0, 83, 59
2, 520680, Note_on_c, 0, 71, 44
2, 520799, Note_on_c, 0, 71, 0
2, 520799, Note_on_c, 0, 83, 0
2, 520799, Note_on_c, 0, 84, 79
2, 520799, Note_on_c, 0, 72, 53
2, 520920, Note_on_c, 0, 72, 0
2, 520920, Note_on_c, 0, 84, 0
2, 520920, Note_on_c, 0, 78, 64
2, 520920, Note_on_c, 0, 81, 64
2, 520920, Note_on_c, 0, 66, 42
2, 520920, Note_on_c, 0, 69, 42
2, 521159, Note_on_c, 0, 69, 0
2, 521159, Note_on_c, 0, 78, 0
2, 521159, Note_on_c, 0, 81, 0
2, 521159, Note_on_c, 0, 66, 0
2, 521159, Note_on_c, 0, 86, 88
2, 521159, Note_on_c, 0, 74, 59
2, 521280, Note_on_c, 0, 74, 0
2, 521280, Note_on_c, 0, 86, 0
2, 521280, Note_on_c, 0, 79, 54
2, 521280, Note_on_c, 0, 67, 33
2, 521519, Note_on_c, 0, 67, 0
2, 521519, Note_on_c, 0, 79, 0
2, 521519, Note_on_c, 0, 81, 78
2, 521519, Note_on_c, 0, 66, 48
2, 521640, Note_on_c, 0, 66, 0
2, 521640, Note_on_c, 0, 81, 0
2, 521640, Note_on_c, 0, 79, 85
2, 521640, Note_on_c, 0, 83, 85
2, 521640, Note_on_c, 0, 67, 58
2, 521760, Note_on_c, 0, 67, 0
2, 521760, Note_on_c, 0, 83, 0
2, 521760, Note_on_c, 0, 79, 0
2, 521760, Note_on_c, 0, 81, 80
2, 521760, Note_on_c, 0, 84, 80
2, 521760, Note_on_c, 0, 69, 61
2, 521879, Note_on_c, 0, 69, 0
2, 521879, Note_on_c, 0, 84, 0
2, 521879, Note_on_c, 0, 81, 0
2, 521879, Note_on_c, 0, 82, 79
2, 521879, Note_on_c, 0, 85, 79
2, 521879, Note_on_c, 0, 70, 58
2, 522000, Note_on_c, 0, 70, 0
2, 522000, Note_on_c, 0, 85, 0
2, 522000, Note_on_c, 0, 82, 0
2, 522000, Note_on_c, 0, 83, 79
2, 522000, Note_on_c, 0, 86, 79
2, 522000, Note_on_c, 0, 67, 59
2, 522000, Note_on_c, 0, 71, 59
2, 522120, Note_on_c, 0, 71, 0
2, 522120, Note_on_c, 0, 83, 0
2, 522120, Note_on_c, 0, 86, 0
2, 522120, Note_on_c, 0, 67, 0
2, 522120, Note_on_c, 0, 84, 67
2, 522120, Note_on_c, 0, 72, 60
2, 522239, Note_on_c, 0, 72, 0
2, 522239, Note_on_c, 0, 84, 0
2, 522239, Note_on_c, 0, 85, 73
2, 522239, Note_on_c, 0, 73, 54
2, 522360, Note_on_c, 0, 73, 0
2, 522360, Note_on_c, 0, 85, 0
2, 522360, Note_on_c, 0, 86, 78
2, 522360, Note_on_c, 0, 71, 61
2, 522360, Note_on_c, 0, 74, 61
2, 522599, Note_on_c, 0, 74, 0
2, 522599, Note_on_c, 0, 71, 0
2, 522599, Note_on_c, 0, 86, 0
2, 522599, Note_on_c, 0, 86, 76
2, 522599, Note_on_c, 0, 71, 48
2, 522599, Note_on_c, 0, 74, 48
2, 522720, Note_on_c, 0, 74, 0
2, 522720, Note_on_c, 0, 71, 0
2, 522720, Note_on_c, 0, 86, 0
2, 522720, Note_on_c, 0, 79, 88
2, 522720, Note_on_c, 0, 91, 88
2, 522720, Note_on_c, 0, 88, 66
2, 522720, Note_on_c, 0, 76, 55
2, 522720, Note_on_c, 0, 71, 53
2, 522840, Note_on_c, 0, 76, 0
2, 522840, Note_on_c, 0, 88, 0
2, 522840, Note_on_c, 0, 86, 52
2, 522840, Note_on_c, 0, 74, 47
2, 522959, Note_on_c, 0, 74, 0
2, 522959, Note_on_c, 0, 86, 0
2, 522959, Note_on_c, 0, 88, 62
2, 522959, Note_on_c, 0, 76, 51
2, 523080, Note_on_c, 0, 76, 0
2, 523080, Note_on_c, 0, 71, 0
2, 523080, Note_on_c, 0, 79, 0
2, 523080, Note_on_c, 0, 91, 0
2, 523080, Note_on_c, 0, 88, 0
2, 523080, Note_on_c, 0, 83, 86
2, 523080, Note_on_c, 0, 95, 86
2, 523080, Note_on_c, 0, 86, 50
2, 523080, Note_on_c, 0, 74, 45
2, 523080, Note_on_c, 0, 71, 45
2, 523200, Note_on_c, 0, 74, 0
2, 523200, Note_on_c, 0, 72, 43
2, 523319, Note_on_c, 0, 72, 0
2, 523319, Note_on_c, 0, 73, 48
2, 523440, Note_on_c, 0, 73, 0
2, 523440, Note_on_c, 0, 74, 56
2, 523679, Note_on_c, 0, 74, 0
2, 523679, Note_on_c, 0, 86, 0
2, 523679, Note_on_c, 0, 86, 56
2, 523679, Note_on_c, 0, 71, 52
2, 523679, Note_on_c, 0, 74, 52
2, 523800, Note_on_c, 0, 74, 0
2, 523800, Note_on_c, 0, 95, 0
2, 523800, Note_on_c, 0, 83, 0
2, 523800, Note_on_c, 0, 71, 0
2, 523800, Note_on_c, 0, 71, 0
2, 523800, Note_on_c, 0, 86, 0
2, 523800, Note_on_c, 0, 81, 75
2, 523800, Note_on_c, 0, 93, 75
2, 523800, Note_on_c, 0, 88, 58
2, 523800, Note_on_c, 0, 72, 56
2, 523800, Note_on_c, 0, 76, 56
2, 523920, Note_on_c, 0, 76, 0
2, 523920, Note_on_c, 0, 88, 0
2, 523920, Note_on_c, 0, 72, 0
2, 523920, Note_on_c, 0, 86, 51
2, 523920, Note_on_c, 0, 74, 48
2, 524039, Note_on_c, 0, 74, 0
2, 524039, Note_on_c, 0, 86, 0
2, 524039, Note_on_c, 0, 88, 57
2, 524039, Note_on_c, 0, 76, 55
2, 524160, Note_on_c, 0, 76, 0
2, 524160, Note_on_c, 0, 81, 0
2, 524160, Note_on_c, 0, 93, 0
2, 524160, Note_on_c, 0, 88, 0
2, 524160, Note_on_c, 0, 91, 64
2, 524160, Note_on_c, 0, 84, 42
2, 524160, Note_on_c, 0, 79, 59
2, 524160, Note_on_c, 0, 72, 51
2, 524160, Note_on_c, 0, 76, 51
2, 524399, Note_on_c, 0, 76, 0
2, 524399, Note_on_c, 0, 84, 0
2, 524399, Note_on_c, 0, 72, 0
2, 524399, Note_on_c, 0, 84, 52
2, 524399, Note_on_c, 0, 69, 33
2, 524399, Note_on_c, 0, 72, 33
2, 524520, Note_on_c, 0, 72, 0
2, 524520, Note_on_c, 0, 84, 0
2, 524520, Note_on_c, 0, 69, 0
2, 524520, Note_on_c, 0, 86, 57
2, 524520, Note_on_c, 0, 71, 47
2, 524520, Note_on_c, 0, 74, 47
2, 524640, Note_on_c, 0, 74, 0
2, 524640, Note_on_c, 0, 86, 0
2, 524640, Note_on_c, 0, 71, 0
2, 524640, Note_on_c, 0, 84, 46
2, 524640, Note_on_c, 0, 72, 37
2, 524759, Note_on_c, 0, 72, 0
2, 524759, Note_on_c, 0, 84, 0
2, 524759, Note_on_c, 0, 86, 54
2, 524759, Note_on_c, 0, 74, 44
2, 524880, Note_on_c, 0, 74, 0
2, 524880, Note_on_c, 0, 91, 0
2, 524880, Note_on_c, 0, 79, 0
2, 524880, Note_on_c, 0, 86, 0
2, 524880, Note_on_c, 0, 90, 68
2, 524880, Note_on_c, 0, 83, 45
2, 524880, Note_on_c, 0, 78, 49
2, 524880, Note_on_c, 0, 71, 31
2, 525119, Note_on_c, 0, 71, 0
2, 525119, Note_on_c, 0, 83, 0
2, 525119, Note_on_c, 0, 81, 45
2, 525119, Note_on_c, 0, 69, 34
2, 525240, Note_on_c, 0, 69, 0
2, 525240, Note_on_c, 0, 90, 0
2, 525240, Note_on_c, 0, 78, 0
2, 525240, Note_on_c, 0, 81, 0
2, 525240, Note_on_c, 0, 88, 61
2, 525240, Note_on_c, 0, 83, 50
2, 525240, Note_on_c, 0, 76, 45
2, 525240, Note_on_c, 0, 71, 41
2, 525360, Note_on_c, 0, 71, 0
2, 525360, Note_on_c, 0, 83, 0
2, 525360, Note_on_c, 0, 81, 42
2, 525360, Note_on_c, 0, 69, 34
2, 525479, Note_on_c, 0, 69, 0
2, 525479, Note_on_c, 0, 81, 0
2, 525479, Note_on_c, 0, 83, 56
2, 525479, Note_on_c, 0, 71, 45
2, 525600, Note_on_c, 0, 71, 0
2, 525600, Note_on_c, 0, 88, 0
2, 525600, Note_on_c, 0, 76, 0
2, 525600, Note_on_c, 0, 83, 0
2, 525600, Note_on_c, 0, 79, 70
2, 525600, Note_on_c, 0, 87, 70
2, 525600, Note_on_c, 0, 75, 44
2, 525839, Note_on_c, 0, 87, 0
2, 525839, Note_on_c, 0, 79, 0
2, 525839, Note_on_c, 0, 81, 52
2, 525839, Note_on_c, 0, 69, 35
2, 525960, Note_on_c, 0, 69, 0
2, 525960, Note_on_c, 0, 81, 0
2, 525960, Note_on_c, 0, 75, 0
2, 525960, Note_on_c, 0, 81, 91
2, 525960, Note_on_c, 0, 88, 91
2, 525960, Note_on_c, 0, 69, 53
2, 525960, Note_on_c, 0, 76, 53
2, 526199, Note_on_c, 0, 76, 0
2, 526199, Note_on_c, 0, 81, 0
2, 526199, Note_on_c, 0, 88, 0
2, 526199, Note_on_c, 0, 69, 0
2, 526199, Note_on_c, 0, 83, 66
2, 526199, Note_on_c, 0, 71, 38
2, 526320, Note_on_c, 0, 71, 0
2, 526320, Note_on_c, 0, 83, 0
2, 526320, Note_on_c, 0, 80, 70
2, 526320, Note_on_c, 0, 83, 70
2, 526320, Note_on_c, 0, 71, 66
2, 526320, Note_on_c, 0, 77, 66
2, 526559, Note_on_c, 0, 77, 0
2, 526559, Note_on_c, 0, 80, 0
2, 526559, Note_on_c, 0, 83, 0
2, 526559, Note_on_c, 0, 71, 0
2, 526559, Note_on_c, 0, 81, 80
2, 526559, Note_on_c, 0, 84, 80
2, 526559, Note_on_c, 0, 72, 38
2, 526680, Note_on_c, 0, 72, 0
2, 526680, Note_on_c, 0, 84, 0
2, 526680, Note_on_c, 0, 81, 0
2, 526680, Note_on_c, 0, 84, 76
2, 526680, Note_on_c, 0, 81, 45
2, 526680, Note_on_c, 0, 72, 63
2, 526680, Note_on_c, 0, 78, 63
2, 526800, Note_on_c, 0, 78, 0
2, 526800, Note_on_c, 0, 72, 0
2, 526800, Note_on_c, 0, 84, 0
2, 526800, Note_on_c, 0, 85, 77
2, 526800, Note_on_c, 0, 73, 38
2, 526919, Note_on_c, 0, 73, 0
2, 526919, Note_on_c, 0, 85, 0
2, 526919, Note_on_c, 0, 86, 76
2, 526919, Note_on_c, 0, 74, 54
2, 527040, Note_on_c, 0, 74, 0
2, 527040, Note_on_c, 0, 86, 0
2, 527040, Note_on_c, 0, 81, 0
2, 527040, Note_on_c, 0, 83, 62
2, 527040, Note_on_c, 0, 79, 45
2, 527040, Note_on_c, 0, 71, 41
2, 527160, Note_on_c, 0, 71, 0
2, 527160, Note_on_c, 0, 83, 0
2, 527160, Note_on_c, 0, 84, 78
2, 527160, Note_on_c, 0, 72, 51
2, 527279, Note_on_c, 0, 72, 0
2, 527279, Note_on_c, 0, 84, 0
2, 527279, Note_on_c, 0, 85, 77
2, 527279, Note_on_c, 0, 73, 55
2, 527400, Note_on_c, 0, 73, 0
2, 527400, Note_on_c, 0, 85, 0
2, 527400, Note_on_c, 0, 79, 0
2, 527400, Note_on_c, 0, 83, 92
2, 527400, Note_on_c, 0, 86, 92
2, 527400, Note_on_c, 0, 68, 48
2, 527400, Note_on_c, 0, 71, 48
2, 527520, Note_on_c, 0, 71, 0
2, 527520, Note_on_c, 0, 68, 0
2, 527520, Note_on_c, 0, 72, 53
2, 527639, Note_on_c, 0, 72, 0
2, 527639, Note_on_c, 0, 73, 51
2, 527760, Note_on_c, 0, 73, 0
2, 527760, Note_on_c, 0, 74, 56
2, 527760, Note_on_c, 0, 71, 47
2, 527880, Note_on_c, 0, 74, 0
2, 527880, Note_on_c, 0, 83, 0
2, 527880, Note_on_c, 0, 86, 0
2, 527880, Note_on_c, 0, 88, 79
2, 527880, Note_on_c, 0, 76, 60
2, 527999, Note_on_c, 0, 76, 0
2, 527999, Note_on_c, 0, 88, 0
2, 527999, Note_on_c, 0, 86, 64
2, 527999, Note_on_c, 0, 74, 47
2, 528120, Note_on_c, 0, 74, 0
2, 528120, Note_on_c, 0, 86, 0
2, 528120, Note_on_c, 0, 88, 92
2, 528120, Note_on_c, 0, 76, 53
2, 528359, Note_on_c, 0, 76, 0
2, 528359, Note_on_c, 0, 88, 0
2, 528359, Note_on_c, 0, 83, 60
2, 528359, Note_on_c, 0, 71, 45
2, 528480, Note_on_c, 0, 71, 0
2, 528480, Note_on_c, 0, 83, 0
2, 528480, Note_on_c, 0, 71, 0
2, 528480, Note_on_c, 0, 84, 77
2, 528480, Note_on_c, 0, 81, 63
2, 528480, Note_on_c, 0, 69, 51
2, 528480, Note_on_c, 0, 72, 51
2, 528600, Note_on_c, 0, 72, 0
2, 528600, Note_on_c, 0, 69, 0
2, 528600, Note_on_c, 0, 84, 0
2, 528600, Note_on_c, 0, 86, 85
2, 528600, Note_on_c, 0, 74, 57
2, 528719, Note_on_c, 0, 74, 0
2, 528719, Note_on_c, 0, 86, 0
2, 528719, Note_on_c, 0, 87, 79
2, 528719, Note_on_c, 0, 75, 58
2, 528840, Note_on_c, 0, 75, 0
2, 528840, Note_on_c, 0, 87, 0
2, 528840, Note_on_c, 0, 81, 0
2, 528840, Note_on_c, 0, 84, 92
2, 528840, Note_on_c, 0, 88, 92
2, 528840, Note_on_c, 0, 69, 42
2, 528840, Note_on_c, 0, 72, 42
2, 528960, Note_on_c, 0, 72, 0
2, 528960, Note_on_c, 0, 69, 0
2, 528960, Note_on_c, 0, 74, 56
2, 529079, Note_on_c, 0, 74, 0
2, 529079, Note_on_c, 0, 75, 56
2, 529200, Note_on_c, 0, 75, 0
2, 529200, Note_on_c, 0, 76, 57
2, 529200, Note_on_c, 0, 72, 49
2, 529320, Note_on_c, 0, 76, 0
2, 529320, Note_on_c, 0, 84, 0
2, 529320, Note_on_c, 0, 88, 0
2, 529320, Note_on_c, 0, 90, 81
2, 529320, Note_on_c, 0, 78, 57
2, 529439, Note_on_c, 0, 78, 0
2, 529439, Note_on_c, 0, 90, 0
2, 529439, Note_on_c, 0, 88, 67
2, 529439, Note_on_c, 0, 76, 43
2, 529560, Note_on_c, 0, 76, 0
2, 529560, Note_on_c, 0, 88, 0
2, 529560, Note_on_c, 0, 90, 92
2, 529560, Note_on_c, 0, 78, 59
2, 529799, Note_on_c, 0, 78, 0
2, 529799, Note_on_c, 0, 90, 0
2, 529799, Note_on_c, 0, 84, 63
2, 529799, Note_on_c, 0, 72, 35
2, 529920, Note_on_c, 0, 72, 0
2, 529920, Note_on_c, 0, 84, 0
2, 529920, Note_on_c, 0, 72, 0
2, 529920, Note_on_c, 0, 86, 77
2, 529920, Note_on_c, 0, 83, 55
2, 529920, Note_on_c, 0, 71, 54
2, 529920, Note_on_c, 0, 74, 54
2, 530040, Note_on_c, 0, 74, 0
2, 530040, Note_on_c, 0, 71, 0
2, 530040, Note_on_c, 0, 86, 0
2, 530040, Note_on_c, 0, 88, 82
2, 530040, Note_on_c, 0, 76, 59
2, 530159, Note_on_c, 0, 76, 0
2, 530159, Note_on_c, 0, 88, 0
2, 530159, Note_on_c, 0, 89, 78
2, 530159, Note_on_c, 0, 77, 54
2, 530280, Note_on_c, 0, 77, 0
2, 530280, Note_on_c, 0, 89, 0
2, 530280, Note_on_c, 0, 83, 0
2, 530280, Note_on_c, 0, 86, 92
2, 530280, Note_on_c, 0, 90, 92
2, 530280, Note_on_c, 0, 71, 41
2, 530280, Note_on_c, 0, 74, 41
2, 530400, Note_on_c, 0, 74, 0
2, 530400, Note_on_c, 0, 71, 0
2, 530400, Note_on_c, 0, 76, 56
2, 530519, Note_on_c, 0, 76, 0
2, 530519, Note_on_c, 0, 77, 56
2, 530640, Note_on_c, 0, 77, 0
2, 530640, Note_on_c, 0, 78, 58
2, 530640, Note_on_c, 0, 74, 45
2, 530760, Note_on_c, 0, 78, 0
2, 530760, Note_on_c, 0, 86, 0
2, 530760, Note_on_c, 0, 90, 0
2, 530760, Note_on_c, 0, 91, 79
2, 530760, Note_on_c, 0, 79, 53
2, 530879, Note_on_c, 0, 79, 0
2, 530879, Note_on_c, 0, 91, 0
2, 530879, Note_on_c, 0, 90, 74
2, 530879, Note_on_c, 0, 78, 48
2, 531000, Note_on_c, 0, 78, 0
2, 531000, Note_on_c, 0, 90, 0
2, 531000, Note_on_c, 0, 91, 92
2, 531000, Note_on_c, 0, 79, 50
2, 531239, Note_on_c, 0, 79, 0
2, 531239, Note_on_c, 0, 91, 0
2, 531239, Note_on_c, 0, 86, 63
2, 531239, Note_on_c, 0, 74, 39
2, 531360, Note_on_c, 0, 74, 0
2, 531360, Note_on_c, 0, 86, 0
2, 531360, Note_on_c, 0, 74, 0
2, 531360, Note_on_c, 0, 88, 40
2, 531360, Note_on_c, 0, 72, 54
2, 531360, Note_on_c, 0, 76, 54
2, 531480, Note_on_c, 0, 76, 0
2, 531480, Note_on_c, 0, 72, 0
2, 531480, Note_on_c, 0, 88, 0
2, 531480, Note_on_c, 0, 89, 70
2, 531480, Note_on_c, 0, 77, 54
2, 531599, Note_on_c, 0, 77, 0
2, 531599, Note_on_c, 0, 89, 0
2, 531599, Note_on_c, 0, 90, 83
2, 531599, Note_on_c, 0, 78, 58
2, 531720, Note_on_c, 0, 78, 0
2, 531720, Note_on_c, 0, 90, 0
2, 531720, Note_on_c, 0, 91, 92
2, 531720, Note_on_c, 0, 76, 53
2, 531720, Note_on_c, 0, 79, 53
2, 531959, Note_on_c, 0, 79, 0
2, 531959, Note_on_c, 0, 76, 0
2, 531959, Note_on_c, 0, 91, 0
2, 531959, Note_on_c, 0, 88, 70
2, 531959, Note_on_c, 0, 76, 42
2, 532080, Note_on_c, 0, 76, 0
2, 532080, Note_on_c, 0, 88, 0
2, 532080, Note_on_c, 0, 90, 78
2, 532080, Note_on_c, 0, 74, 52
2, 532080, Note_on_c, 0, 78, 52
2, 532200, Note_on_c, 0, 78, 0
2, 532200, Note_on_c, 0, 74, 0
2, 532200, Note_on_c, 0, 90, 0
2, 532200, Note_on_c, 0, 91, 77
2, 532200, Note_on_c, 0, 79, 57
2, 532319, Note_on_c, 0, 79, 0
2, 532319, Note_on_c, 0, 91, 0
2, 532319, Note_on_c, 0, 92, 85
2, 532319, Note_on_c, 0, 80, 56
2, 532440, Note_on_c, 0, 80, 0
2, 532440, Note_on_c, 0, 92, 0
2, 532440, Note_on_c, 0, 93, 92
2, 532440, Note_on_c, 0, 78, 57
2, 532440, Note_on_c, 0, 81, 57
2, 532679, Note_on_c, 0, 81, 0
2, 532679, Note_on_c, 0, 78, 0
2, 532679, Note_on_c, 0, 93, 0
2, 532679, Note_on_c, 0, 90, 70
2, 532679, Note_on_c, 0, 78, 38
2, 532800, Note_on_c, 0, 78, 0
2, 532800, Note_on_c, 0, 90, 0
2, 532800, Note_on_c, 0, 91, 80
2, 532800, Note_on_c, 0, 76, 53
2, 532800, Note_on_c, 0, 79, 53
2, 532920, Note_on_c, 0, 79, 0
2, 532920, Note_on_c, 0, 76, 0
2, 532920, Note_on_c, 0, 91, 0
2, 532920, Note_on_c, 0, 93, 87
2, 532920, Note_on_c, 0, 81, 59
2, 533039, Note_on_c, 0, 81, 0
2, 533039, Note_on_c, 0, 93, 0
2, 533039, Note_on_c, 0, 94, 77
2, 533039, Note_on_c, 0, 82, 56
2, 533160, Note_on_c, 0, 82, 0
2, 533160, Note_on_c, 0, 94, 0
2, 533160, Note_on_c, 0, 91, 92
2, 533160, Note_on_c, 0, 95, 92
2, 533160, Note_on_c, 0, 79, 56
2, 533160, Note_on_c, 0, 83, 56
2, 533399, Note_on_c, 0, 83, 0
2, 533399, Note_on_c, 0, 91, 0
2, 533399, Note_on_c, 0, 95, 0
2, 533399, Note_on_c, 0, 79, 0
2, 533399, Note_on_c, 0, 93, 67
2, 533399, Note_on_c, 0, 81, 47
2, 533520, Note_on_c, 0, 81, 0
2, 533520, Note_on_c, 0, 93, 0
2, 533520, Note_on_c, 0, 91, 92
2, 533520, Note_on_c, 0, 95, 92
2, 533520, Note_on_c, 0, 79, 54
2, 533520, Note_on_c, 0, 83, 54
2, 533759, Note_on_c, 0, 83, 0
2, 533759, Note_on_c, 0, 91, 0
2, 533759, Note_on_c, 0, 95, 0
2, 533759, Note_on_c, 0, 79, 0
2, 533759, Note_on_c, 0, 93, 71
2, 533759, Note_on_c, 0, 81, 46
2, 533880, Note_on_c, 0, 81, 0
2, 533880, Note_on_c, 0, 93, 0
2, 533880, Note_on_c, 0, 91, 92
2, 533880, Note_on_c, 0, 95, 92
2, 533880, Note_on_c, 0, 79, 58
2, 533880, Note_on_c, 0, 83, 58
2, 534119, Note_on_c, 0, 83, 0
2, 534119, Note_on_c, 0, 91, 0
2, 534119, Note_on_c, 0, 95, 0
2, 534119, Note_on_c, 0, 79, 0
2, 534119, Note_on_c, 0, 90, 58
2, 534119, Note_on_c, 0, 78, 37
2, 534240, Note_on_c, 0, 78, 0
2, 534240, Note_on_c, 0, 90, 0
2, 534240, Note_on_c, 0, 88, 92
2, 534240, Note_on_c, 0, 91, 92
2, 534240, Note_on_c, 0, 76, 78
2, 534240, Note_on_c, 0, 79, 78
2, 534360, Note_on_c, 0, 79, 0
2, 534360, Note_on_c, 0, 88, 0
2, 534360, Note_on_c, 0, 91, 0
2, 534360, Note_on_c, 0, 76, 0
2, 534360, Note_on_c, 0, 85, 56
2, 534360, Note_on_c, 0, 73, 37
2, 534479, Note_on_c, 0, 73, 0
2, 534479, Note_on_c, 0, 85, 0
2, 534479, Note_on_c, 0, 86, 79
2, 534479, Note_on_c, 0, 74, 54
2, 534600, Note_on_c, 0, 74, 0
2, 534600, Note_on_c, 0, 86, 0
2, 534600, Note_on_c, 0, 87, 92
2, 534600, Note_on_c, 0, 75, 82
2, 534839, Note_on_c, 0, 75, 0
2, 534839, Note_on_c, 0, 87, 0
2, 534839, Note_on_c, 0, 86, 75
2, 534839, Note_on_c, 0, 74, 51
2, 534960, Note_on_c, 0, 74, 0
2, 534960, Note_on_c, 0, 86, 0
2, 534960, Note_on_c, 0, 87, 92
2, 534960, Note_on_c, 0, 75, 84
2, 535199, Note_on_c, 0, 75, 0
2, 535199, Note_on_c, 0, 87, 0
2, 535199, Note_on_c, 0, 86, 63
2, 535199, Note_on_c, 0, 74, 52
2, 535320, Note_on_c, 0, 74, 0
2, 535320, Note_on_c, 0, 86, 0
2, 535320, Note_on_c, 0, 87, 92
2, 535320, Note_on_c, 0, 75, 83
2, 535559, Note_on_c, 0, 75, 0
2, 535559, Note_on_c, 0, 87, 0
2, 535559, Note_on_c, 0, 82, 89
2, 535680, Note_on_c, 0, 82, 0
2, 535680, Note_on_c, 0, 83, 92
2, 535680, Note_on_c, 0, 76, 41
2, 535800, Note_on_c, 0, 83, 0
2, 535800, Note_on_c, 0, 84, 82
2, 535919, Note_on_c, 0, 84, 0
2, 535919, Note_on_c, 0, 85, 81
2, 536040, Note_on_c, 0, 85, 0
2, 536040, Note_on_c, 0, 76, 0
2, 536040, Note_on_c, 0, 83, 92
2, 536040, Note_on_c, 0, 86, 92
2, 536040, Note_on_c, 0, 74, 53
2, 536040, Note_on_c, 0, 77, 53
2, 536040, Note_on_c, 0, 71, 33
2, 536279, Note_on_c, 0, 86, 0
2, 536279, Note_on_c, 0, 83, 0
2, 536279, Note_on_c, 0, 86, 73
2, 536400, Note_on_c, 0, 86, 0
2, 536400, Note_on_c, 0, 77, 0
2, 536400, Note_on_c, 0, 74, 0
2, 536400, Note_on_c, 0, 88, 92
2, 536400, Note_on_c, 0, 72, 47
2, 536400, Note_on_c, 0, 76, 47
2, 536520, Note_on_c, 0, 88, 0
2, 536520, Note_on_c, 0, 81, 51
2, 536639, Note_on_c, 0, 81, 0
2, 536639, Note_on_c, 0, 83, 78
2, 536760, Note_on_c, 0, 83, 0
2, 536760, Note_on_c, 0, 71, 0
2, 536760, Note_on_c, 0, 72, 0
2, 536760, Note_on_c, 0, 76, 0
2, 536760, Note_on_c, 0, 81, 80
2, 536760, Note_on_c, 0, 84, 80
2, 536760, Note_on_c, 0, 72, 53
2, 536760, Note_on_c, 0, 76, 53
2, 536760, Note_on_c, 0, 69, 34
2, 536999, Note_on_c, 0, 84, 0
2, 536999, Note_on_c, 0, 81, 0
2, 536999, Note_on_c, 0, 84, 76
2, 537120, Note_on_c, 0, 84, 0
2, 537120, Note_on_c, 0, 76, 0
2, 537120, Note_on_c, 0, 72, 0
2, 537120, Note_on_c, 0, 86, 92
2, 537120, Note_on_c, 0, 71, 45
2, 537120, Note_on_c, 0, 74, 45
2, 537240, Note_on_c, 0, 86, 0
2, 537240, Note_on_c, 0, 80, 59
2, 537359, Note_on_c, 0, 80, 0
2, 537359, Note_on_c, 0, 81, 82
2, 537480, Note_on_c, 0, 81, 0
2, 537480, Note_on_c, 0, 69, 0
2, 537480, Note_on_c, 0, 71, 0
2, 537480, Note_on_c, 0, 74, 0
2, 537480, Note_on_c, 0, 80, 92
2, 537480, Note_on_c, 0, 83, 92
2, 537480, Note_on_c, 0, 71, 62
2, 537480, Note_on_c, 0, 74, 62
2, 537480, Note_on_c, 0, 68, 34
2, 537719, Note_on_c, 0, 83, 0
2, 537719, Note_on_c, 0, 80, 0
2, 537719, Note_on_c, 0, 83, 71
2, 537797, Note_on_c, 0, 74, 0
2, 537797, Note_on_c, 0, 71, 0
2, 537840, Note_on_c, 0, 68, 0
2, 537840, Note_on_c, 0, 83, 0
2, 537840, Note_on_c, 0, 76, 81
2, 537840, Note_on_c, 0, 79, 81
2, 537840, Note_on_c, 0, 84, 81
2, 537840, Note_on_c, 0, 69, 49
2, 537840, Note_on_c, 0, 72, 49
2, 537840, Note_on_c, 0, 67, 38
2, 538200, Note_on_c, 0, 67, 0
2, 538200, Note_on_c, 0, 79, 0
2, 538200, Note_on_c, 0, 84, 0
2, 538200, Note_on_c, 0, 76, 0
2, 538200, Note_on_c, 0, 72, 0
2, 538200, Note_on_c, 0, 69, 0
2, 538200, Note_on_c, 0, 78, 62
2, 538200, Note_on_c, 0, 66, 56
2, 538200, Note_on_c, 0, 72, 56
2, 538200, Note_on_c, 0, 74, 56
2, 538379, Note_on_c, 0, 74, 0
2, 538379, Note_on_c, 0, 78, 0
2, 538379, Note_on_c, 0, 66, 0
2, 538379, Note_on_c, 0, 72, 0
2, 538560, Note_on_c, 0, 79, 80
2, 538560, Note_on_c, 0, 67, 50
2, 538560, Note_on_c, 0, 71, 50
2, 538680, Note_on_c, 0, 71, 0
2, 538680, Note_on_c, 0, 67, 0
2, 538680, Note_on_c, 0, 79, 0
2, 538680, Note_on_c, 0, 81, 82
2, 538680, Note_on_c, 0, 69, 46
2, 538799, Note_on_c, 0, 69, 0
2, 538799, Note_on_c, 0, 81, 0
2, 538799, Note_on_c, 0, 82, 80
2, 538799, Note_on_c, 0, 70, 56
2, 538920, Note_on_c, 0, 70, 0
2, 538920, Note_on_c, 0, 82, 0
2, 538920, Note_on_c, 0, 83, 78
2, 538920, Note_on_c, 0, 71, 57
2, 539159, Note_on_c, 0, 71, 0
2, 539159, Note_on_c, 0, 83, 0
2, 539159, Note_on_c, 0, 81, 65
2, 539159, Note_on_c, 0, 69, 42
2, 539280, Note_on_c, 0, 69, 0
2, 539280, Note_on_c, 0, 81, 0
2, 539280, Note_on_c, 0, 79, 92
2, 539280, Note_on_c, 0, 67, 40
2, 539519, Note_on_c, 0, 67, 0
2, 539519, Note_on_c, 0, 79, 0
2, 539519, Note_on_c, 0, 78, 67
2, 539519, Note_on_c, 0, 66, 47
2, 539640, Note_on_c, 0, 66, 0
2, 539640, Note_on_c, 0, 78, 0
2, 539640, Note_on_c, 0, 76, 68
2, 539640, Note_on_c, 0, 64, 43
2, 539879, Note_on_c, 0, 64, 0
2, 539879, Note_on_c, 0, 76, 0
2, 539879, Note_on_c, 0, 74, 67
2, 539879, Note_on_c, 0, 62, 45
2, 540000, Note_on_c, 0, 62, 0
2, 540000, Note_on_c, 0, 74, 0
2, 540000, Note_on_c, 0, 72, 90
2, 540000, Note_on_c, 0, 60, 46
2, 540360, Note_on_c, 0, 60, 0
2, 540360, Note_on_c, 0, 72, 0
2, 540360, Note_on_c, 0, 71, 92
2, 540720, Note_on_c, 0, 71, 0
2, 540720, Note_on_c, 0, 69, 90
2, 541080, Note_on_c, 0, 69, 0
2, 541080, Note_on_c, 0, 67, 92
2, 541440, Note_on_c, 0, 67, 0
2, 541440, Note_on_c, 0, 66, 88
2, 541800, Note_on_c, 0, 66, 0
2, 541800, Note_on_c, 0, 66, 35
2, 542160, Note_on_c, 0, 64, 20
2, 542339, Note_on_c, 0, 64, 0
2, 542520, Note_on_c, 0, 62, 16
2, 542699, Note_on_c, 0, 62, 0
2, 542880, Note_on_c, 0, 61, 18
2, 543059, Note_on_c, 0, 61, 0
2, 547560, Note_on_c, 0, 66, 0
2, 547560, Note_on_c, 0, 66, 39
2, 547920, Note_on_c, 0, 64, 19
2, 548280, Note_on_c, 0, 64, 0
2, 548280, Note_on_c, 0, 62, 14
2, 548640, Note_on_c, 0, 62, 0
2, 548640, Note_on_c, 0, 61, 24
2, 549000, Note_on_c, 0, 61, 0
2, 549000, Note_on_c, 0, 61, 22
2, 549120, Note_on_c, 0, 61, 0
2, 549120, Note_on_c, 0, 62, 29
2, 549239, Note_on_c, 0, 62, 0
2, 549239, Note_on_c, 0, 64, 33
2, 549360, Note_on_c, 0, 64, 0
2, 549360, Note_on_c, 0, 66, 33
2, 549720, Note_on_c, 0, 66, 0
2, 550440, Note_on_c, 0, 73, 20
2, 550560, Note_on_c, 0, 73, 0
2, 550560, Note_on_c, 0, 74, 28
2, 550679, Note_on_c, 0, 74, 0
2, 550679, Note_on_c, 0, 76, 29
2, 550758, Note_on_c, 0, 66, 44
2, 550800, Note_on_c, 0, 66, 0
2, 550800, Note_on_c, 0, 76, 0
2, 550800, Note_on_c, 0, 66, 0
2, 550800, Note_on_c, 0, 78, 52
2, 550800, Note_on_c, 0, 66, 43
2, 551039, Note_on_c, 0, 78, 0
2, 551039, Note_on_c, 0, 76, 24
2, 551160, Note_on_c, 0, 76, 0
2, 551160, Note_on_c, 0, 74, 46
2, 551399, Note_on_c, 0, 74, 0
2, 551399, Note_on_c, 0, 73, 19
2, 551520, Note_on_c, 0, 73, 0
2, 551520, Note_on_c, 0, 71, 19
2, 551759, Note_on_c, 0, 71, 0
2, 551759, Note_on_c, 0, 69, 19
2, 551880, Note_on_c, 0, 69, 0
2, 551880, Note_on_c, 0, 68, 20
2, 552119, Note_on_c, 0, 66, 0
2, 552119, Note_on_c, 0, 67, 24
2, 552240, Note_on_c, 0, 67, 0
2, 552240, Note_on_c, 0, 68, 0
2, 552240, Note_on_c, 0, 66, 26
2, 553320, Note_on_c, 0, 61, 20
2, 553440, Note_on_c, 0, 61, 0
2, 553440, Note_on_c, 0, 62, 24
2, 553559, Note_on_c, 0, 62, 0
2, 553559, Note_on_c, 0, 64, 27
2, 553680, Note_on_c, 0, 64, 0
2, 553680, Note_on_c, 0, 66, 0
2, 553680, Note_on_c, 0, 66, 25
2, 553680, Note_on_c, 0, 66, 55
2, 553919, Note_on_c, 0, 66, 0
2, 553919, Note_on_c, 0, 64, 22
2, 554040, Note_on_c, 0, 64, 0
2, 554040, Note_on_c, 0, 62, 24
2, 554279, Note_on_c, 0, 62, 0
2, 554279, Note_on_c, 0, 61, 24
2, 554400, Note_on_c, 0, 61, 0
2, 554400, Note_on_c, 0, 59, 22
2, 554639, Note_on_c, 0, 59, 0
2, 555840, Note_on_c, 0, 66, 0
2, 555840, Note_on_c, 0, 66, 26
2, 556200, Note_on_c, 0, 61, 18
2, 556320, Note_on_c, 0, 61, 0
2, 556320, Note_on_c, 0, 62, 29
2, 556439, Note_on_c, 0, 62, 0
2, 556439, Note_on_c, 0, 64, 25
2, 556560, Note_on_c, 0, 64, 0
2, 556560, Note_on_c, 0, 66, 84
2, 557280, Note_on_c, 0, 66, 0
2, 557280, Note_on_c, 0, 64, 81
2, 557640, Note_on_c, 0, 73, 19
2, 557760, Note_on_c, 0, 73, 0
2, 557760, Note_on_c, 0, 74, 27
2, 557879, Note_on_c, 0, 74, 0
2, 557879, Note_on_c, 0, 76, 32
2, 558000, Note_on_c, 0, 76, 0
2, 558000, Note_on_c, 0, 78, 31
2, 558360, Note_on_c, 0, 78, 0
2, 558720, Note_on_c, 0, 64, 0
2, 558720, Note_on_c, 0, 66, 0
2, 558720, Note_on_c, 0, 62, 45
2, 558720, Note_on_c, 0, 66, 45
2, 558720, Note_on_c, 0, 71, 45
2, 560520, Note_on_c, 0, 71, 0
2, 560520, Note_on_c, 0, 66, 0
2, 560520, Note_on_c, 0, 62, 0
2, 560520, Note_on_c, 0, 73, 21
2, 560520, Note_on_c, 0, 64, 16
2, 560520, Note_on_c, 0, 66, 16
2, 560640, Note_on_c, 0, 73, 0
2, 560640, Note_on_c, 0, 74, 25
2, 560699, Note_on_c, 0, 66, 0
2, 560699, Note_on_c, 0, 64, 0
2, 560759, Note_on_c, 0, 74, 0
2, 560759, Note_on_c, 0, 76, 34
2, 560880, Note_on_c, 0, 76, 0
2, 560880, Note_on_c, 0, 78, 43
2, 560880, Note_on_c, 0, 62, 31
2, 560880, Note_on_c, 0, 66, 31
2, 560880, Note_on_c, 0, 71, 31
2, 561059, Note_on_c, 0, 71, 0
2, 561059, Note_on_c, 0, 66, 0
2, 561059, Note_on_c, 0, 62, 0
2, 561240, Note_on_c, 0, 64, 32
2, 561240, Note_on_c, 0, 66, 32
2, 561240, Note_on_c, 0, 73, 32
2, 561419, Note_on_c, 0, 73, 0
2, 561419, Note_on_c, 0, 66, 0
2, 561419, Note_on_c, 0, 64, 0
2, 561513, Note_on_c, 0, 78, 0
2, 561600, Note_on_c, 0, 62, 35
2, 561600, Note_on_c, 0, 66, 35
2, 561600, Note_on_c, 0, 71, 35
2, 563400, Note_on_c, 0, 71, 0
2, 563400, Note_on_c, 0, 66, 0
2, 563400, Note_on_c, 0, 62, 0
2, 563400, Note_on_c, 0, 85, 16
2, 563400, Note_on_c, 0, 64, 26
2, 563400, Note_on_c, 0, 66, 26
2, 563400, Note_on_c, 0, 73, 26
2, 563520, Note_on_c, 0, 85, 0
2, 563520, Note_on_c, 0, 86, 29
2, 563579, Note_on_c, 0, 64, 0
2, 563579, Note_on_c, 0, 73, 0
2, 563579, Note_on_c, 0, 66, 0
2, 563639, Note_on_c, 0, 86, 0
2, 563639, Note_on_c, 0, 88, 28
2, 563760, Note_on_c, 0, 88, 0
2, 563760, Note_on_c, 0, 90, 44
2, 563760, Note_on_c, 0, 62, 23
2, 563760, Note_on_c, 0, 66, 23
2, 563760, Note_on_c, 0, 71, 23
2, 563939, Note_on_c, 0, 71, 0
2, 563939, Note_on_c, 0, 66, 0
2, 563939, Note_on_c, 0, 62, 0
2, 564120, Note_on_c, 0, 64, 33
2, 564120, Note_on_c, 0, 66, 33
2, 564120, Note_on_c, 0, 73, 33
2, 564299, Note_on_c, 0, 73, 0
2, 564299, Note_on_c, 0, 66, 0
2, 564299, Note_on_c, 0, 64, 0
2, 564393, Note_on_c, 0, 90, 0
2, 564480, Note_on_c, 0, 62, 22
2, 564480, Note_on_c, 0, 66, 22
2, 564480, Note_on_c, 0, 71, 22
2, 564659, Note_on_c, 0, 71, 0
2, 564659, Note_on_c, 0, 66, 0
2, 564659, Note_on_c, 0, 62, 0
2, 564840, Note_on_c, 0, 69, 20
2, 564840, Note_on_c, 0, 64, 15
2, 564960, Note_on_c, 0, 69, 0
2, 564960, Note_on_c, 0, 71, 30
2, 565079, Note_on_c, 0, 71, 0
2, 565079, Note_on_c, 0, 73, 30
2, 565200, Note_on_c, 0, 73, 0
2, 565200, Note_on_c, 0, 64, 0
2, 565200, Note_on_c, 0, 74, 26
2, 565200, Note_on_c, 0, 66, 30
2, 565560, Note_on_c, 0, 74, 0
2, 565560, Note_on_c, 0, 73, 25
2, 565680, Note_on_c, 0, 73, 0
2, 565680, Note_on_c, 0, 74, 32
2, 565799, Note_on_c, 0, 74, 0
2, 565799, Note_on_c, 0, 76, 33
2, 565920, Note_on_c, 0, 76, 0
2, 565920, Note_on_c, 0, 78, 30
2, 566159, Note_on_c, 0, 78, 0
2, 566159, Note_on_c, 0, 76, 19
2, 566280, Note_on_c, 0, 76, 0
2, 566280, Note_on_c, 0, 66, 0
2, 566280, Note_on_c, 0, 74, 24
2, 566280, Note_on_c, 0, 64, 32
2, 566280, Note_on_c, 0, 66, 32
2, 566280, Note_on_c, 0, 73, 32
2, 566459, Note_on_c, 0, 73, 0
2, 566459, Note_on_c, 0, 66, 0
2, 566459, Note_on_c, 0, 64, 0
2, 566519, Note_on_c, 0, 74, 0
2, 566519, Note_on_c, 0, 73, 15
2, 566640, Note_on_c, 0, 73, 0
2, 566640, Note_on_c, 0, 71, 20
2, 566640, Note_on_c, 0, 62, 19
2, 566640, Note_on_c, 0, 66, 19
2, 566819, Note_on_c, 0, 66, 0
2, 566819, Note_on_c, 0, 62, 0
2, 567000, Note_on_c, 0, 71, 0
2, 567000, Note_on_c, 0, 73, 29
2, 567000, Note_on_c, 0, 64, 28
2, 567000, Note_on_c, 0, 66, 28
2, 567179, Note_on_c, 0, 66, 0
2, 567179, Note_on_c, 0, 64, 0
2, 567179, Note_on_c, 0, 73, 0
2, 567360, Note_on_c, 0, 71, 19
2, 567360, Note_on_c, 0, 62, 27
2, 567360, Note_on_c, 0, 66, 27
2, 567539, Note_on_c, 0, 66, 0
2, 567539, Note_on_c, 0, 62, 0
2, 567539, Note_on_c, 0, 71, 0
2, 567720, Note_on_c, 0, 69, 31
2, 567720, Note_on_c, 0, 64, 21
2, 567840, Note_on_c, 0, 69, 0
2, 567840, Note_on_c, 0, 71, 29
2, 567959, Note_on_c, 0, 71, 0
2, 567959, Note_on_c, 0, 73, 32
2, 568080, Note_on_c, 0, 73, 0
2, 568080, Note_on_c, 0, 64, 0
2, 568080, Note_on_c, 0, 66, 27
2, 568080, Note_on_c, 0, 74, 27
2, 568440, Note_on_c, 0, 85, 21
2, 568560, Note_on_c, 0, 85, 0
2, 568560, Note_on_c, 0, 86, 30
2, 568679, Note_on_c, 0, 86, 0
2, 568679, Note_on_c, 0, 88, 30
2, 568800, Note_on_c, 0, 88, 0
2, 568800, Note_on_c, 0, 90, 28
2, 569039, Note_on_c, 0, 90, 0
2, 569039, Note_on_c, 0, 88, 25
2, 569160, Note_on_c, 0, 88, 0
2, 569160, Note_on_c, 0, 74, 0
2, 569160, Note_on_c, 0, 66, 0
2, 569160, Note_on_c, 0, 86, 20
2, 569160, Note_on_c, 0, 64, 19
2, 569160, Note_on_c, 0, 66, 19
2, 569160, Note_on_c, 0, 73, 19
2, 569339, Note_on_c, 0, 73, 0
2, 569339, Note_on_c, 0, 66, 0
2, 569339, Note_on_c, 0, 64, 0
2, 569399, Note_on_c, 0, 86, 0
2, 569399, Note_on_c, 0, 85, 23
2, 569520, Note_on_c, 0, 85, 0
2, 569520, Note_on_c, 0, 83, 24
2, 569520, Note_on_c, 0, 62, 22
2, 569520, Note_on_c, 0, 66, 22
2, 569520, Note_on_c, 0, 71, 22
2, 569699, Note_on_c, 0, 71, 0
2, 569699, Note_on_c, 0, 66, 0
2, 569699, Note_on_c, 0, 62, 0
2, 569759, Note_on_c, 0, 83, 0
2, 569759, Note_on_c, 0, 81, 19
2, 569880, Note_on_c, 0, 81, 0
2, 569880, Note_on_c, 0, 80, 20
2, 569880, Note_on_c, 0, 62, 22
2, 569880, Note_on_c, 0, 66, 22
2, 569880, Note_on_c, 0, 71, 22
2, 570059, Note_on_c, 0, 71, 0
2, 570059, Note_on_c, 0, 66, 0
2, 570059, Note_on_c, 0, 62, 0
2, 570119, Note_on_c, 0, 80, 0
2, 570119, Note_on_c, 0, 79, 18
2, 570240, Note_on_c, 0, 79, 0
2, 570240, Note_on_c, 0, 78, 23
2, 570240, Note_on_c, 0, 66, 42
2, 570240, Note_on_c, 0, 73, 42
2, 570600, Note_on_c, 0, 78, 0
2, 572040, Note_on_c, 0, 73, 0
2, 572040, Note_on_c, 0, 66, 0
2, 572040, Note_on_c, 0, 73, 19
2, 572040, Note_on_c, 0, 66, 21
2, 572040, Note_on_c, 0, 71, 21
2, 572160, Note_on_c, 0, 73, 0
2, 572160, Note_on_c, 0, 74, 22
2, 572219, Note_on_c, 0, 71, 0
2, 572219, Note_on_c, 0, 66, 0
2, 572279, Note_on_c, 0, 74, 0
2, 572279, Note_on_c, 0, 76, 28
2, 572400, Note_on_c, 0, 76, 0
2, 572400, Note_on_c, 0, 78, 39
2, 572400, Note_on_c, 0, 66, 32
2, 572400, Note_on_c, 0, 73, 32
2, 572579, Note_on_c, 0, 73, 0
2, 572579, Note_on_c, 0, 66, 0
2, 572760, Note_on_c, 0, 66, 20
2, 572760, Note_on_c, 0, 71, 20
2, 572939, Note_on_c, 0, 71, 0
2, 572939, Note_on_c, 0, 66, 0
2, 573033, Note_on_c, 0, 78, 0
2, 573120, Note_on_c, 0, 66, 38
2, 573120, Note_on_c, 0, 73, 38
2, 574920, Note_on_c, 0, 73, 0
2, 574920, Note_on_c, 0, 66, 0
2, 574920, Note_on_c, 0, 85, 22
2, 574920, Note_on_c, 0, 66, 22
2, 574920, Note_on_c, 0, 71, 22
2, 575040, Note_on_c, 0, 85, 0
2, 575040, Note_on_c, 0, 86, 28
2, 575099, Note_on_c, 0, 71, 0
2, 575099, Note_on_c, 0, 66, 0
2, 575159, Note_on_c, 0, 86, 0
2, 575159, Note_on_c, 0, 88, 30
2, 575280, Note_on_c, 0, 88, 0
2, 575280, Note_on_c, 0, 90, 44
2, 575280, Note_on_c, 0, 66, 32
2, 575280, Note_on_c, 0, 73, 32
2, 575459, Note_on_c, 0, 73, 0
2, 575459, Note_on_c, 0, 66, 0
2, 575640, Note_on_c, 0, 66, 21
2, 575640, Note_on_c, 0, 71, 21
2, 575819, Note_on_c, 0, 71, 0
2, 575819, Note_on_c, 0, 66, 0
2, 575913, Note_on_c, 0, 90, 0
2, 576000, Note_on_c, 0, 73, 14
2, 576000, Note_on_c, 0, 66, 17
2, 576120, Note_on_c, 0, 73, 0
2, 576120, Note_on_c, 0, 74, 24
2, 576179, Note_on_c, 0, 66, 0
2, 576239, Note_on_c, 0, 74, 0
2, 576239, Note_on_c, 0, 76, 29
2, 576360, Note_on_c, 0, 76, 0
2, 576360, Note_on_c, 0, 74, 41
2, 576360, Note_on_c, 0, 78, 41
2, 576360, Note_on_c, 0, 66, 22
2, 576677, Note_on_c, 0, 78, 0
2, 576677, Note_on_c, 0, 74, 0
2, 576720, Note_on_c, 0, 73, 16
2, 576840, Note_on_c, 0, 73, 0
2, 576840, Note_on_c, 0, 74, 24
2, 576959, Note_on_c, 0, 74, 0
2, 576959, Note_on_c, 0, 76, 29
2, 577080, Note_on_c, 0, 76, 0
2, 577080, Note_on_c, 0, 66, 0
2, 577080, Note_on_c, 0, 78, 41
2, 577080, Note_on_c, 0, 73, 37
2, 577080, Note_on_c, 0, 66, 24
2, 577290, Note_on_c, 0, 78, 0
2, 577319, Note_on_c, 0, 73, 0
2, 577319, Note_on_c, 0, 71, 24
2, 577440, Note_on_c, 0, 71, 0
2, 577440, Note_on_c, 0, 69, 22
2, 577679, Note_on_c, 0, 69, 0
2, 577679, Note_on_c, 0, 68, 18
2, 577800, Note_on_c, 0, 68, 0
2, 577800, Note_on_c, 0, 66, 0
2, 577800, Note_on_c, 0, 66, 33
2, 577800, Note_on_c, 0, 71, 33
2, 577979, Note_on_c, 0, 71, 0
2, 577979, Note_on_c, 0, 66, 0
2, 578160, Note_on_c, 0, 66, 30
2, 578160, Note_on_c, 0, 73, 30
2, 578339, Note_on_c, 0, 73, 0
2, 578339, Note_on_c, 0, 66, 0
2, 578520, Note_on_c, 0, 66, 24
2, 578520, Note_on_c, 0, 71, 24
2, 578699, Note_on_c, 0, 71, 0
2, 578699, Note_on_c, 0, 66, 0
2, 578880, Note_on_c, 0, 73, 28
2, 578880, Note_on_c, 0, 66, 28
2, 579000, Note_on_c, 0, 73, 0
2, 579000, Note_on_c, 0, 74, 31
2, 579119, Note_on_c, 0, 74, 0
2, 579119, Note_on_c, 0, 76, 28
2, 579240, Note_on_c, 0, 76, 0
2, 579240, Note_on_c, 0, 66, 0
2, 579240, Note_on_c, 0, 66, 41
2, 579240, Note_on_c, 0, 74, 41
2, 579240, Note_on_c, 0, 78, 41
2, 579360, Note_on_c, 0, 81, 20
2, 579479, Note_on_c, 0, 81, 0
2, 579479, Note_on_c, 0, 83, 27
2, 579600, Note_on_c, 0, 83, 0
2, 579600, Note_on_c, 0, 85, 27
2, 579720, Note_on_c, 0, 85, 0
2, 579720, Note_on_c, 0, 86, 34
2, 579839, Note_on_c, 0, 86, 0
2, 579839, Note_on_c, 0, 88, 32
2, 579873, Note_on_c, 0, 78, 0
2, 579873, Note_on_c, 0, 66, 0
2, 579873, Note_on_c, 0, 74, 0
2, 579960, Note_on_c, 0, 88, 0
2, 579960, Note_on_c, 0, 90, 32
2, 579960, Note_on_c, 0, 66, 32
2, 579960, Note_on_c, 0, 73, 32
2, 580199, Note_on_c, 0, 90, 0
2, 580199, Note_on_c, 0, 83, 13
2, 580320, Note_on_c, 0, 83, 0
2, 580320, Note_on_c, 0, 81, 19
2, 580559, Note_on_c, 0, 81, 0
2, 580559, Note_on_c, 0, 80, 25
2, 580680, Note_on_c, 0, 80, 0
2, 580680, Note_on_c, 0, 73, 0
2, 580680, Note_on_c, 0, 66, 0
2, 580680, Note_on_c, 0, 78, 24
2, 580680, Note_on_c, 0, 66, 22
2, 580680, Note_on_c, 0, 71, 22
2, 580859, Note_on_c, 0, 71, 0
2, 580859, Note_on_c, 0, 66, 0
2, 581040, Note_on_c, 0, 78, 0
2, 581040, Note_on_c, 0, 66, 29
2, 581040, Note_on_c, 0, 73, 29
2, 581219, Note_on_c, 0, 73, 0
2, 581219, Note_on_c, 0, 66, 0
2, 581400, Note_on_c, 0, 66, 24
2, 581400, Note_on_c, 0, 71, 24
2, 581579, Note_on_c, 0, 71, 0
2, 581579, Note_on_c, 0, 66, 0
2, 581760, Note_on_c, 0, 78, 23
2, 581760, Note_on_c, 0, 74, 31
2, 581760, Note_on_c, 0, 66, 24
2, 582120, Note_on_c, 0, 66, 0
2, 582120, Note_on_c, 0, 74, 0
2, 582120, Note_on_c, 0, 74, 23
2, 582120, Note_on_c, 0, 66, 23
2, 582240, Note_on_c, 0, 74, 0
2, 582240, Note_on_c, 0, 71, 18
2, 582359, Note_on_c, 0, 71, 0
2, 582359, Note_on_c, 0, 72, 27
2, 582480, Note_on_c, 0, 72, 0
2, 582480, Note_on_c, 0, 66, 0
2, 582480, Note_on_c, 0, 73, 24
2, 582480, Note_on_c, 0, 66, 25
2, 582840, Note_on_c, 0, 66, 0
2, 582840, Note_on_c, 0, 73, 0
2, 582840, Note_on_c, 0, 72, 27
2, 582840, Note_on_c, 0, 66, 28
2, 583200, Note_on_c, 0, 66, 0
2, 583200, Note_on_c, 0, 72, 0
2, 583200, Note_on_c, 0, 71, 24
2, 583200, Note_on_c, 0, 66, 26
2, 583320, Note_on_c, 0, 78, 0
2, 583320, Note_on_c, 0, 79, 27
2, 583439, Note_on_c, 0, 79, 0
2, 583439, Note_on_c, 0, 81, 33
2, 583560, Note_on_c, 0, 81, 0
2, 583560, Note_on_c, 0, 66, 0
2, 583560, Note_on_c, 0, 71, 0
2, 583560, Note_on_c, 0, 83, 45
2, 583560, Note_on_c, 0, 72, 43
2, 583560, Note_on_c, 0, 67, 23
2, 583560, Note_on_c, 0, 71, 23
2, 583560, Note_on_c, 0, 63, 20
2, 583920, Note_on_c, 0, 63, 0
2, 583920, Note_on_c, 0, 72, 0
2, 583920, Note_on_c, 0, 73, 55
2, 583920, Note_on_c, 0, 64, 28
2, 584280, Note_on_c, 0, 64, 0
2, 584280, Note_on_c, 0, 71, 0
2, 584280, Note_on_c, 0, 73, 0
2, 584280, Note_on_c, 0, 67, 0
2, 584280, Note_on_c, 0, 72, 43
2, 584280, Note_on_c, 0, 63, 23
2, 584509, Note_on_c, 0, 83, 0
2, 584640, Note_on_c, 0, 63, 0
2, 584640, Note_on_c, 0, 72, 0
2, 584640, Note_on_c, 0, 78, 14
2, 584640, Note_on_c, 0, 71, 17
2, 584640, Note_on_c, 0, 66, 33
2, 585000, Note_on_c, 0, 66, 0
2, 585000, Note_on_c, 0, 71, 0
2, 585000, Note_on_c, 0, 72, 31
2, 585000, Note_on_c, 0, 66, 25
2, 585120, Note_on_c, 0, 72, 0
2, 585120, Note_on_c, 0, 69, 21
2, 585239, Note_on_c, 0, 69, 0
2, 585239, Note_on_c, 0, 70, 29
2, 585360, Note_on_c, 0, 70, 0
2, 585360, Note_on_c, 0, 66, 0
2, 585360, Note_on_c, 0, 71, 29
2, 585360, Note_on_c, 0, 66, 23
2, 585720, Note_on_c, 0, 66, 0
2, 585720, Note_on_c, 0, 71, 0
2, 585720, Note_on_c, 0, 70, 23
2, 585720, Note_on_c, 0, 66, 28
2, 585840, Note_on_c, 0, 66, 0
2, 585840, Note_on_c, 0, 64, 19
2, 585959, Note_on_c, 0, 64, 0
2, 585959, Note_on_c, 0, 65, 26
2, 586080, Note_on_c, 0, 65, 0
2, 586080, Note_on_c, 0, 70, 0
2, 586080, Note_on_c, 0, 69, 21
2, 586080, Note_on_c, 0, 66, 27
2, 586440, Note_on_c, 0, 66, 0
2, 586440, Note_on_c, 0, 69, 0
2, 586440, Note_on_c, 0, 68, 22
2, 586440, Note_on_c, 0, 66, 26
2, 586560, Note_on_c, 0, 66, 0
2, 586560, Note_on_c, 0, 64, 22
2, 586679, Note_on_c, 0, 64, 0
2, 586679, Note_on_c, 0, 65, 30
2, 586800, Note_on_c, 0, 65, 0
2, 586800, Note_on_c, 0, 66, 27
2, 587160, Note_on_c, 0, 66, 0
2, 587160, Note_on_c, 0, 68, 0
2, 587160, Note_on_c, 0, 67, 23
2, 587280, Note_on_c, 0, 65, 25
2, 587399, Note_on_c, 0, 65, 0
2, 587399, Note_on_c, 0, 65, 25
2, 587520, Note_on_c, 0, 65, 0
2, 587520, Note_on_c, 0, 67, 0
2, 587520, Note_on_c, 0, 78, 0
2, 587520, Note_on_c, 0, 78, 20
2, 587520, Note_on_c, 0, 66, 43
2, 587520, Note_on_c, 0, 70, 43
2, 587520, Note_on_c, 0, 73, 43
2, 589320, Note_on_c, 0, 73, 0
2, 589320, Note_on_c, 0, 78, 0
2, 589320, Note_on_c, 0, 66, 0
2, 589320, Note_on_c, 0, 70, 0
2, 589320, Note_on_c, 0, 75, 18
2, 589320, Note_on_c, 0, 66, 14
2, 589379, Note_on_c, 0, 66, 0
2, 589440, Note_on_c, 0, 75, 0
2, 589440, Note_on_c, 0, 76, 31
2, 589440, Note_on_c, 0, 66, 22
2, 589499, Note_on_c, 0, 66, 0
2, 589559, Note_on_c, 0, 76, 0
2, 589559, Note_on_c, 0, 77, 29
2, 589559, Note_on_c, 0, 66, 28
2, 589618, Note_on_c, 0, 66, 0
2, 589680, Note_on_c, 0, 77, 0
2, 589680, Note_on_c, 0, 78, 28
2, 589680, Note_on_c, 0, 66, 35
2, 589680, Note_on_c, 0, 70, 35
2, 589680, Note_on_c, 0, 73, 35
2, 589800, Note_on_c, 0, 78, 0
2, 589800, Note_on_c, 0, 75, 18
2, 589859, Note_on_c, 0, 66, 0
2, 589859, Note_on_c, 0, 73, 0
2, 589859, Note_on_c, 0, 70, 0
2, 589919, Note_on_c, 0, 75, 0
2, 589919, Note_on_c, 0, 77, 28
2, 590040, Note_on_c, 0, 77, 0
2, 590040, Note_on_c, 0, 78, 32
2, 590040, Note_on_c, 0, 66, 30
2, 590040, Note_on_c, 0, 70, 30
2, 590040, Note_on_c, 0, 75, 30
2, 590160, Note_on_c, 0, 78, 0
2, 590160, Note_on_c, 0, 76, 23
2, 590219, Note_on_c, 0, 66, 0
2, 590219, Note_on_c, 0, 75, 0
2, 590219, Note_on_c, 0, 70, 0
2, 590279, Note_on_c, 0, 76, 0
2, 590279, Note_on_c, 0, 77, 25
2, 590400, Note_on_c, 0, 77, 0
2, 590400, Note_on_c, 0, 78, 27
2, 590400, Note_on_c, 0, 66, 37
2, 590400, Note_on_c, 0, 70, 37
2, 590400, Note_on_c, 0, 73, 37
2, 590520, Note_on_c, 0, 78, 0
2, 590520, Note_on_c, 0, 75, 25
2, 590639, Note_on_c, 0, 75, 0
2, 590639, Note_on_c, 0, 77, 26
2, 590760, Note_on_c, 0, 77, 0
2, 590760, Note_on_c, 0, 78, 32
2, 592200, Note_on_c, 0, 78, 0
2, 592200, Note_on_c, 0, 73, 0
2, 592200, Note_on_c, 0, 70, 0
2, 592200, Note_on_c, 0, 66, 0
2, 592200, Note_on_c, 0, 75, 20
2, 592200, Note_on_c, 0, 66, 16
2, 592259, Note_on_c, 0, 66, 0
2, 592320, Note_on_c, 0, 75, 0
2, 592320, Note_on_c, 0, 76, 31
2, 592320, Note_on_c, 0, 66, 27
2, 592379, Note_on_c, 0, 66, 0
2, 592439, Note_on_c, 0, 76, 0
2, 592439, Note_on_c, 0, 77, 31
2, 592439, Note_on_c, 0, 66, 30
2, 592498, Note_on_c, 0, 66, 0
2, 592560, Note_on_c, 0, 77, 0
2, 592560, Note_on_c, 0, 78, 30
2, 592560, Note_on_c, 0, 66, 37
2, 592560, Note_on_c, 0, 70, 37
2, 592560, Note_on_c, 0, 73, 37
2, 592680, Note_on_c, 0, 78, 0
2, 592680, Note_on_c, 0, 75, 22
2, 592739, Note_on_c, 0, 66, 0
2, 592739, Note_on_c, 0, 73, 0
2, 592739, Note_on_c, 0, 70, 0
2, 592799, Note_on_c, 0, 75, 0
2, 592799, Note_on_c, 0, 77, 29
2, 592920, Note_on_c, 0, 77, 0
2, 592920, Note_on_c, 0, 78, 26
2, 592920, Note_on_c, 0, 66, 34
2, 592920, Note_on_c, 0, 70, 34
2, 592920, Note_on_c, 0, 75, 34
2, 593040, Note_on_c, 0, 78, 0
2, 593040, Note_on_c, 0, 76, 18
2, 593099, Note_on_c, 0, 66, 0
2, 593099, Note_on_c, 0, 75, 0
2, 593099, Note_on_c, 0, 70, 0
2, 593159, Note_on_c, 0, 76, 0
2, 593159, Note_on_c, 0, 77, 32
2, 593280, Note_on_c, 0, 77, 0
2, 593280, Note_on_c, 0, 78, 30
2, 593280, Note_on_c, 0, 66, 42
2, 593280, Note_on_c, 0, 70, 42
2, 593280, Note_on_c, 0, 73, 42
2, 593400, Note_on_c, 0, 78, 0
2, 593400, Note_on_c, 0, 82, 33
2, 593519, Note_on_c, 0, 82, 0
2, 593519, Note_on_c, 0, 83, 30
2, 593640, Note_on_c, 0, 83, 0
2, 593640, Note_on_c, 0, 82, 39
2, 593640, Note_on_c, 0, 85, 39
2, 593640, Note_on_c, 0, 78, 18
2, 593744, Note_on_c, 0, 85, 0
2, 593744, Note_on_c, 0, 82, 0
2, 593760, Note_on_c, 0, 82, 23
2, 593760, Note_on_c, 0, 85, 23
2, 593820, Note_on_c, 0, 66, 0
2, 593820, Note_on_c, 0, 73, 0
2, 593820, Note_on_c, 0, 70, 0
2, 593820, Note_on_c, 0, 66, 30
2, 593820, Note_on_c, 0, 70, 30
2, 593820, Note_on_c, 0, 73, 30
2, 593879, Note_on_c, 0, 85, 0
2, 593879, Note_on_c, 0, 82, 0
2, 593879, Note_on_c, 0, 82, 30
2, 593879, Note_on_c, 0, 85, 30
2, 594000, Note_on_c, 0, 85, 0
2, 594000, Note_on_c, 0, 73, 0
2, 594000, Note_on_c, 0, 70, 0
2, 594000, Note_on_c, 0, 66, 0
2, 594000, Note_on_c, 0, 82, 0
2, 594000, Note_on_c, 0, 82, 38
2, 594000, Note_on_c, 0, 85, 38
2, 594000, Note_on_c, 0, 66, 25
2, 594000, Note_on_c, 0, 70, 25
2, 594000, Note_on_c, 0, 73, 25
2, 594104, Note_on_c, 0, 85, 0
2, 594104, Note_on_c, 0, 82, 0
2, 594120, Note_on_c, 0, 82, 20
2, 594239, Note_on_c, 0, 82, 0
2, 594239, Note_on_c, 0, 83, 26
2, 594360, Note_on_c, 0, 83, 0
2, 594360, Note_on_c, 0, 78, 0
2, 594360, Note_on_c, 0, 82, 46
2, 594360, Note_on_c, 0, 85, 46
2, 594360, Note_on_c, 0, 78, 27
2, 594464, Note_on_c, 0, 85, 0
2, 594464, Note_on_c, 0, 82, 0
2, 594480, Note_on_c, 0, 82, 24
2, 594480, Note_on_c, 0, 85, 24
2, 594540, Note_on_c, 0, 66, 0
2, 594540, Note_on_c, 0, 70, 0
2, 594540, Note_on_c, 0, 73, 0
2, 594540, Note_on_c, 0, 66, 28
2, 594540, Note_on_c, 0, 70, 28
2, 594540, Note_on_c, 0, 73, 28
2, 594599, Note_on_c, 0, 85, 0
2, 594599, Note_on_c, 0, 82, 0
2, 594599, Note_on_c, 0, 82, 26
2, 594599, Note_on_c, 0, 85, 26
2, 594720, Note_on_c, 0, 85, 0
2, 594720, Note_on_c, 0, 73, 0
2, 594720, Note_on_c, 0, 70, 0
2, 594720, Note_on_c, 0, 66, 0
2, 594720, Note_on_c, 0, 82, 0
2, 594720, Note_on_c, 0, 82, 36
2, 594720, Note_on_c, 0, 85, 36
2, 594720, Note_on_c, 0, 66, 25
2, 594720, Note_on_c, 0, 70, 25
2, 594720, Note_on_c, 0, 73, 25
2, 594824, Note_on_c, 0, 85, 0
2, 594824, Note_on_c, 0, 82, 0
2, 594840, Note_on_c, 0, 82, 17
2, 594959, Note_on_c, 0, 82, 0
2, 594959, Note_on_c, 0, 83, 25
2, 595080, Note_on_c, 0, 83, 0
2, 595080, Note_on_c, 0, 78, 0
2, 595080, Note_on_c, 0, 82, 26
2, 595080, Note_on_c, 0, 85, 26
2, 595080, Note_on_c, 0, 78, 29
2, 595200, Note_on_c, 0, 85, 0
2, 595200, Note_on_c, 0, 82, 0
2, 595200, Note_on_c, 0, 82, 27
2, 595200, Note_on_c, 0, 85, 27
2, 595260, Note_on_c, 0, 66, 0
2, 595260, Note_on_c, 0, 70, 0
2, 595260, Note_on_c, 0, 73, 0
2, 595260, Note_on_c, 0, 66, 30
2, 595260, Note_on_c, 0, 70, 30
2, 595260, Note_on_c, 0, 73, 30
2, 595319, Note_on_c, 0, 85, 0
2, 595319, Note_on_c, 0, 82, 0
2, 595319, Note_on_c, 0, 82, 28
2, 595319, Note_on_c, 0, 85, 28
2, 595440, Note_on_c, 0, 85, 0
2, 595440, Note_on_c, 0, 73, 0
2, 595440, Note_on_c, 0, 70, 0
2, 595440, Note_on_c, 0, 66, 0
2, 595440, Note_on_c, 0, 82, 0
2, 595440, Note_on_c, 0, 82, 29
2, 595440, Note_on_c, 0, 85, 29
2, 595440, Note_on_c, 0, 66, 32
2, 595440, Note_on_c, 0, 70, 32
2, 595440, Note_on_c, 0, 73, 32
2, 595544, Note_on_c, 0, 85, 0
2, 595544, Note_on_c, 0, 82, 0
2, 595560, Note_on_c, 0, 82, 30
2, 595679, Note_on_c, 0, 82, 0
2, 595679, Note_on_c, 0, 83, 31
2, 595800, Note_on_c, 0, 83, 0
2, 595800, Note_on_c, 0, 78, 0
2, 595800, Note_on_c, 0, 82, 32
2, 595800, Note_on_c, 0, 85, 32
2, 595800, Note_on_c, 0, 78, 35
2, 595904, Note_on_c, 0, 85, 0
2, 595904, Note_on_c, 0, 82, 0
2, 595920, Note_on_c, 0, 82, 33
2, 595980, Note_on_c, 0, 66, 0
2, 595980, Note_on_c, 0, 70, 0
2, 595980, Note_on_c, 0, 73, 0
2, 595980, Note_on_c, 0, 66, 37
2, 595980, Note_on_c, 0, 70, 37
2, 595980, Note_on_c, 0, 73, 37
2, 596039, Note_on_c, 0, 82, 0
2, 596039, Note_on_c, 0, 83, 34
2, 596160, Note_on_c, 0, 83, 0
2, 596160, Note_on_c, 0, 73, 0
2, 596160, Note_on_c, 0, 70, 0
2, 596160, Note_on_c, 0, 66, 0
2, 596160, Note_on_c, 0, 81, 35
2, 596160, Note_on_c, 0, 85, 35
2, 596160, Note_on_c, 0, 66, 39
2, 596160, Note_on_c, 0, 69, 39
2, 596160, Note_on_c, 0, 73, 39
2, 596264, Note_on_c, 0, 85, 0
2, 596264, Note_on_c, 0, 81, 0
2, 596280, Note_on_c, 0, 81, 35
2, 596340, Note_on_c, 0, 66, 0
2, 596340, Note_on_c, 0, 69, 0
2, 596340, Note_on_c, 0, 73, 0
2, 596399, Note_on_c, 0, 81, 0
2, 596399, Note_on_c, 0, 83, 36
2, 596520, Note_on_c, 0, 83, 0
2, 596520, Note_on_c, 0, 78, 0
2, 596520, Note_on_c, 0, 81, 37
2, 596520, Note_on_c, 0, 85, 37
2, 596520, Note_on_c, 0, 69, 42
2, 596520, Note_on_c, 0, 73, 42
2, 596520, Note_on_c, 0, 78, 42
2, 597060, Note_on_c, 0, 78, 0
2, 597060, Note_on_c, 0, 69, 0
2, 597060, Note_on_c, 0, 73, 0
2, 597060, Note_on_c, 0, 69, 47
2, 597060, Note_on_c, 0, 73, 47
2, 597060, Note_on_c, 0, 78, 47
2, 597240, Note_on_c, 0, 78, 0
2, 597240, Note_on_c, 0, 69, 0
2, 597240, Note_on_c, 0, 81, 0
2, 597240, Note_on_c, 0, 85, 0
2, 597240, Note_on_c, 0, 73, 0
2, 597240, Note_on_c, 0, 81, 43
2, 597240, Note_on_c, 0, 85, 43
2, 597240, Note_on_c, 0, 69, 49
2, 597240, Note_on_c, 0, 73, 49
2, 597240, Note_on_c, 0, 78, 49
2, 597344, Note_on_c, 0, 85, 0
2, 597344, Note_on_c, 0, 81, 0
2, 597360, Note_on_c, 0, 81, 44
2, 597479, Note_on_c, 0, 81, 0
2, 597479, Note_on_c, 0, 83, 44
2, 597600, Note_on_c, 0, 83, 0
2, 597600, Note_on_c, 0, 81, 45
2, 597600, Note_on_c, 0, 85, 45
2, 597780, Note_on_c, 0, 73, 0
2, 597780, Note_on_c, 0, 78, 0
2, 597780, Note_on_c, 0, 69, 0
2, 597780, Note_on_c, 0, 66, 50
2, 597780, Note_on_c, 0, 69, 50
2, 597780, Note_on_c, 0, 73, 50
2, 597780, Note_on_c, 0, 78, 50
2, 597960, Note_on_c, 0, 78, 0
2, 597960, Note_on_c, 0, 81, 0
2, 597960, Note_on_c, 0, 66, 0
2, 597960, Note_on_c, 0, 85, 0
2, 597960, Note_on_c, 0, 73, 0
2, 597960, Note_on_c, 0, 69, 0
2, 597960, Note_on_c, 0, 81, 48
2, 597960, Note_on_c, 0, 85, 48
2, 597960, Note_on_c, 0, 66, 54
2, 597960, Note_on_c, 0, 69, 54
2, 597960, Note_on_c, 0, 73, 54
2, 597960, Note_on_c, 0, 78, 54
2, 598080, Note_on_c, 0, 85, 0
2, 598080, Note_on_c, 0, 81, 0
2, 598080, Note_on_c, 0, 81, 49
2, 598199, Note_on_c, 0, 81, 0
2, 598199, Note_on_c, 0, 83, 50
2, 598320, Note_on_c, 0, 83, 0
2, 598320, Note_on_c, 0, 81, 51
2, 598320, Note_on_c, 0, 85, 51
2, 598500, Note_on_c, 0, 73, 0
2, 598500, Note_on_c, 0, 66, 0
2, 598500, Note_on_c, 0, 69, 0
2, 598500, Note_on_c, 0, 78, 0
2, 598500, Note_on_c, 0, 66, 50
2, 598500, Note_on_c, 0, 69, 50
2, 598500, Note_on_c, 0, 73, 50
2, 598500, Note_on_c, 0, 78, 50
2, 598680, Note_on_c, 0, 78, 0
2, 598680, Note_on_c, 0, 85, 0
2, 598680, Note_on_c, 0, 66, 0
2, 598680, Note_on_c, 0, 81, 0
2, 598680, Note_on_c, 0, 73, 0
2, 598680, Note_on_c, 0, 69, 0
2, 598680, Note_on_c, 0, 78, 73
2, 598680, Note_on_c, 0, 81, 73
2, 598680, Note_on_c, 0, 87, 73
2, 598680, Note_on_c, 0, 66, 64
2, 598680, Note_on_c, 0, 69, 64
2, 598680, Note_on_c, 0, 71, 64
2, 598680, Note_on_c, 0, 75, 64
2, 599040, Note_on_c, 0, 75, 0
2, 599040, Note_on_c, 0, 69, 0
2, 599040, Note_on_c, 0, 81, 0
2, 599040, Note_on_c, 0, 87, 0
2, 599040, Note_on_c, 0, 78, 0
2, 599040, Note_on_c, 0, 71, 0
2, 599040, Note_on_c, 0, 66, 0
2, 599040, Note_on_c, 0, 76, 78
2, 599040, Note_on_c, 0, 80, 78
2, 599040, Note_on_c, 0, 88, 78
2, 599040, Note_on_c, 0, 68, 71
2, 599040, Note_on_c, 0, 71, 71
2, 599279, Note_on_c, 0, 71, 0
2, 599279, Note_on_c, 0, 88, 0
2, 599279, Note_on_c, 0, 76, 0
2, 599279, Note_on_c, 0, 80, 0
2, 599279, Note_on_c, 0, 68, 0
2, 599279, Note_on_c, 0, 78, 49
2, 599279, Note_on_c, 0, 69, 64
2, 599400, Note_on_c, 0, 69, 0
2, 599400, Note_on_c, 0, 78, 0
2, 599400, Note_on_c, 0, 76, 81
2, 599400, Note_on_c, 0, 80, 81
2, 599400, Note_on_c, 0, 68, 74
2, 599520, Note_on_c, 0, 68, 0
2, 599520, Note_on_c, 0, 80, 0
2, 599520, Note_on_c, 0, 76, 0
2, 599520, Note_on_c, 0, 78, 80
2, 599520, Note_on_c, 0, 81, 80
2, 599520, Note_on_c, 0, 69, 82
2, 599639, Note_on_c, 0, 69, 0
2, 599639, Note_on_c, 0, 81, 0
2, 599639, Note_on_c, 0, 78, 0
2, 599639, Note_on_c, 0, 79, 85
2, 599639, Note_on_c, 0, 82, 85
2, 599639, Note_on_c, 0, 70, 83
2, 599760, Note_on_c, 0, 70, 0
2, 599760, Note_on_c, 0, 82, 0
2, 599760, Note_on_c, 0, 79, 0
2, 599760, Note_on_c, 0, 80, 92
2, 599760, Note_on_c, 0, 83, 92
2, 599760, Note_on_c, 0, 71, 80
2, 599760, Note_on_c, 0, 68, 38
2, 599880, Note_on_c, 0, 71, 0
2, 599880, Note_on_c, 0, 69, 74
2, 599999, Note_on_c, 0, 69, 0
2, 599999, Note_on_c, 0, 70, 82
2, 600120, Note_on_c, 0, 70, 0
2, 600120, Note_on_c, 0, 68, 0
2, 600120, Note_on_c, 0, 71, 87
2, 600120, Note_on_c, 0, 68, 46
2, 600359, Note_on_c, 0, 71, 0
2, 600359, Note_on_c, 0, 80, 0
2, 600359, Note_on_c, 0, 83, 0
2, 600359, Note_on_c, 0, 83, 79
2, 600359, Note_on_c, 0, 71, 80
2, 600480, Note_on_c, 0, 71, 0
2, 600480, Note_on_c, 0, 83, 0
2, 600480, Note_on_c, 0, 68, 0
2, 600480, Note_on_c, 0, 76, 92
2, 600480, Note_on_c, 0, 80, 92
2, 600480, Note_on_c, 0, 85, 92
2, 600480, Note_on_c, 0, 73, 80
2, 600480, Note_on_c, 0, 68, 51
2, 600600, Note_on_c, 0, 73, 0
2, 600600, Note_on_c, 0, 85, 0
2, 600600, Note_on_c, 0, 76, 0
2, 600600, Note_on_c, 0, 80, 0
2, 600600, Note_on_c, 0, 83, 73
2, 600600, Note_on_c, 0, 71, 72
2, 600719, Note_on_c, 0, 71, 0
2, 600719, Note_on_c, 0, 83, 0
2, 600719, Note_on_c, 0, 85, 84
2, 600719, Note_on_c, 0, 73, 86
2, 600840, Note_on_c, 0, 73, 0
2, 600840, Note_on_c, 0, 85, 0
2, 600840, Note_on_c, 0, 68, 0
2, 600840, Note_on_c, 0, 76, 92
2, 600840, Note_on_c, 0, 80, 92
2, 600840, Note_on_c, 0, 83, 92
2, 600840, Note_on_c, 0, 71, 73
2, 600840, Note_on_c, 0, 68, 47
2, 600960, Note_on_c, 0, 71, 0
2, 600960, Note_on_c, 0, 69, 72
2, 601079, Note_on_c, 0, 69, 0
2, 601079, Note_on_c, 0, 70, 83
2, 601200, Note_on_c, 0, 70, 0
2, 601200, Note_on_c, 0, 68, 0
2, 601200, Note_on_c, 0, 71, 83
2, 601200, Note_on_c, 0, 68, 55
2, 601439, Note_on_c, 0, 71, 0
2, 601439, Note_on_c, 0, 76, 0
2, 601439, Note_on_c, 0, 83, 0
2, 601439, Note_on_c, 0, 80, 0
2, 601439, Note_on_c, 0, 83, 82
2, 601439, Note_on_c, 0, 71, 82
2, 601560, Note_on_c, 0, 71, 0
2, 601560, Note_on_c, 0, 83, 0
2, 601560, Note_on_c, 0, 68, 0
2, 601560, Note_on_c, 0, 81, 92
2, 601560, Note_on_c, 0, 85, 92
2, 601560, Note_on_c, 0, 73, 79
2, 601680, Note_on_c, 0, 73, 0
2, 601680, Note_on_c, 0, 85, 0
2, 601680, Note_on_c, 0, 81, 0
2, 601680, Note_on_c, 0, 83, 71
2, 601680, Note_on_c, 0, 80, 91
2, 601799, Note_on_c, 0, 80, 0
2, 601799, Note_on_c, 0, 83, 0
2, 601799, Note_on_c, 0, 85, 80
2, 601799, Note_on_c, 0, 78, 76
2, 601920, Note_on_c, 0, 78, 0
2, 601920, Note_on_c, 0, 85, 0
2, 601920, Note_on_c, 0, 81, 67
2, 601920, Note_on_c, 0, 69, 68
2, 601920, Note_on_c, 0, 73, 68
2, 601920, Note_on_c, 0, 76, 68
2, 602159, Note_on_c, 0, 76, 0
2, 602159, Note_on_c, 0, 81, 0
2, 602159, Note_on_c, 0, 69, 0
2, 602159, Note_on_c, 0, 73, 0
2, 602159, Note_on_c, 0, 81, 74
2, 602159, Note_on_c, 0, 69, 55
2, 602280, Note_on_c, 0, 69, 0
2, 602280, Note_on_c, 0, 81, 0
2, 602280, Note_on_c, 0, 80, 85
2, 602280, Note_on_c, 0, 83, 85
2, 602280, Note_on_c, 0, 71, 81
2, 602400, Note_on_c, 0, 71, 0
2, 602400, Note_on_c, 0, 83, 0
2, 602400, Note_on_c, 0, 80, 0
2, 602400, Note_on_c, 0, 81, 72
2, 602400, Note_on_c, 0, 78, 91
2, 602519, Note_on_c, 0, 78, 0
2, 602519, Note_on_c, 0, 81, 0
2, 602519, Note_on_c, 0, 83, 83
2, 602519, Note_on_c, 0, 76, 72
2, 602640, Note_on_c, 0, 76, 0
2, 602640, Note_on_c, 0, 83, 0
2, 602640, Note_on_c, 0, 80, 71
2, 602640, Note_on_c, 0, 68, 69
2, 602640, Note_on_c, 0, 71, 69
2, 602640, Note_on_c, 0, 75, 69
2, 602879, Note_on_c, 0, 75, 0
2, 602879, Note_on_c, 0, 80, 0
2, 602879, Note_on_c, 0, 68, 0
2, 602879, Note_on_c, 0, 71, 0
2, 602879, Note_on_c, 0, 78, 71
2, 602879, Note_on_c, 0, 66, 52
2, 603000, Note_on_c, 0, 66, 0
2, 603000, Note_on_c, 0, 78, 0
2, 603000, Note_on_c, 0, 76, 92
2, 603000, Note_on_c, 0, 80, 92
2, 603000, Note_on_c, 0, 68, 76
2, 603120, Note_on_c, 0, 68, 0
2, 603120, Note_on_c, 0, 80, 0
2, 603120, Note_on_c, 0, 76, 0
2, 603120, Note_on_c, 0, 78, 73
2, 603120, Note_on_c, 0, 75, 91
2, 603239, Note_on_c, 0, 75, 0
2, 603239, Note_on_c, 0, 78, 0
2, 603239, Note_on_c, 0, 80, 83
2, 603239, Note_on_c, 0, 73, 73
2, 603360, Note_on_c, 0, 73, 0
2, 603360, Note_on_c, 0, 80, 0
2, 603360, Note_on_c, 0, 76, 66
2, 603360, Note_on_c, 0, 72, 71
2, 603599, Note_on_c, 0, 72, 0
2, 603599, Note_on_c, 0, 76, 0
2, 603599, Note_on_c, 0, 75, 83
2, 603599, Note_on_c, 0, 78, 83
2, 603599, Note_on_c, 0, 66, 61
2, 603720, Note_on_c, 0, 66, 0
2, 603720, Note_on_c, 0, 78, 0
2, 603720, Note_on_c, 0, 75, 0
2, 603720, Note_on_c, 0, 75, 75
2, 603720, Note_on_c, 0, 78, 75
2, 603720, Note_on_c, 0, 73, 91
2, 603720, Note_on_c, 0, 66, 47
2, 603959, Note_on_c, 0, 66, 0
2, 603959, Note_on_c, 0, 75, 0
2, 603959, Note_on_c, 0, 78, 0
2, 603959, Note_on_c, 0, 76, 80
2, 603959, Note_on_c, 0, 80, 80
2, 603959, Note_on_c, 0, 68, 54
2, 604080, Note_on_c, 0, 68, 0
2, 604080, Note_on_c, 0, 73, 0
2, 604080, Note_on_c, 0, 76, 0
2, 604080, Note_on_c, 0, 80, 0
2, 604080, Note_on_c, 0, 77, 83
2, 604080, Note_on_c, 0, 80, 83
2, 604080, Note_on_c, 0, 74, 88
2, 604080, Note_on_c, 0, 68, 49
2, 604319, Note_on_c, 0, 68, 0
2, 604319, Note_on_c, 0, 77, 0
2, 604319, Note_on_c, 0, 80, 0
2, 604319, Note_on_c, 0, 78, 80
2, 604319, Note_on_c, 0, 81, 80
2, 604319, Note_on_c, 0, 69, 53
2, 604440, Note_on_c, 0, 69, 0
2, 604440, Note_on_c, 0, 74, 0
2, 604440, Note_on_c, 0, 78, 0
2, 604440, Note_on_c, 0, 81, 0
2, 604440, Note_on_c, 0, 78, 76
2, 604440, Note_on_c, 0, 81, 76
2, 604440, Note_on_c, 0, 75, 89
2, 604440, Note_on_c, 0, 69, 54
2, 604560, Note_on_c, 0, 69, 0
2, 604560, Note_on_c, 0, 78, 0
2, 604560, Note_on_c, 0, 81, 0
2, 604560, Note_on_c, 0, 82, 83
2, 604560, Note_on_c, 0, 70, 54
2, 604679, Note_on_c, 0, 70, 0
2, 604679, Note_on_c, 0, 82, 0
2, 604679, Note_on_c, 0, 83, 80
2, 604679, Note_on_c, 0, 71, 52
2, 604800, Note_on_c, 0, 71, 0
2, 604800, Note_on_c, 0, 83, 0
2, 604800, Note_on_c, 0, 75, 0
2, 604800, Note_on_c, 0, 76, 92
2, 604800, Note_on_c, 0, 80, 92
2, 604800, Note_on_c, 0, 68, 59
2, 604920, Note_on_c, 0, 68, 0
2, 604920, Note_on_c, 0, 80, 0
2, 604920, Note_on_c, 0, 76, 0
2, 604920, Note_on_c, 0, 78, 84
2, 604920, Note_on_c, 0, 81, 84
2, 604920, Note_on_c, 0, 69, 80
2, 605039, Note_on_c, 0, 69, 0
2, 605039, Note_on_c, 0, 81, 0
2, 605039, Note_on_c, 0, 78, 0
2, 605039, Note_on_c, 0, 79, 83
2, 605039, Note_on_c, 0, 82, 83
2, 605039, Note_on_c, 0, 70, 84
2, 605160, Note_on_c, 0, 70, 0
2, 605160, Note_on_c, 0, 82, 0
2, 605160, Note_on_c, 0, 79, 0
2, 605160, Note_on_c, 0, 80, 92
2, 605160, Note_on_c, 0, 83, 92
2, 605160, Note_on_c, 0, 71, 87
2, 605160, Note_on_c, 0, 68, 48
2, 605280, Note_on_c, 0, 68, 0
2, 605280, Note_on_c, 0, 69, 56
2, 605399, Note_on_c, 0, 69, 0
2, 605399, Note_on_c, 0, 70, 53
2, 605520, Note_on_c, 0, 70, 0
2, 605520, Note_on_c, 0, 71, 0
2, 605520, Note_on_c, 0, 71, 83
2, 605520, Note_on_c, 0, 68, 45
2, 605640, Note_on_c, 0, 71, 0
2, 605640, Note_on_c, 0, 80, 0
2, 605640, Note_on_c, 0, 83, 0
2, 605640, Note_on_c, 0, 85, 81
2, 605640, Note_on_c, 0, 73, 84
2, 605759, Note_on_c, 0, 73, 0
2, 605759, Note_on_c, 0, 85, 0
2, 605759, Note_on_c, 0, 83, 68
2, 605759, Note_on_c, 0, 71, 73
2, 605880, Note_on_c, 0, 71, 0
2, 605880, Note_on_c, 0, 83, 0
2, 605880, Note_on_c, 0, 85, 92
2, 605880, Note_on_c, 0, 73, 81
2, 606119, Note_on_c, 0, 73, 0
2, 606119, Note_on_c, 0, 85, 0
2, 606119, Note_on_c, 0, 80, 62
2, 606119, Note_on_c, 0, 68, 64
2, 606240, Note_on_c, 0, 68, 0
2, 606240, Note_on_c, 0, 80, 0
2, 606240, Note_on_c, 0, 68, 0
2, 606240, Note_on_c, 0, 78, 76
2, 606240, Note_on_c, 0, 81, 76
2, 606240, Note_on_c, 0, 69, 80
2, 606240, Note_on_c, 0, 66, 40
2, 606360, Note_on_c, 0, 69, 0
2, 606360, Note_on_c, 0, 78, 0
2, 606360, Note_on_c, 0, 81, 0
2, 606360, Note_on_c, 0, 83, 87
2, 606360, Note_on_c, 0, 71, 84
2, 606479, Note_on_c, 0, 71, 0
2, 606479, Note_on_c, 0, 83, 0
2, 606479, Note_on_c, 0, 84, 84
2, 606479, Note_on_c, 0, 72, 78
2, 606600, Note_on_c, 0, 72, 0
2, 606600, Note_on_c, 0, 84, 0
2, 606600, Note_on_c, 0, 66, 0
2, 606600, Note_on_c, 0, 81, 92
2, 606600, Note_on_c, 0, 85, 92
2, 606600, Note_on_c, 0, 73, 84
2, 606600, Note_on_c, 0, 69, 62
2, 606720, Note_on_c, 0, 69, 0
2, 606720, Note_on_c, 0, 71, 57
2, 606839, Note_on_c, 0, 71, 0
2, 606839, Note_on_c, 0, 72, 56
2, 606960, Note_on_c, 0, 72, 0
2, 606960, Note_on_c, 0, 73, 0
2, 606960, Note_on_c, 0, 73, 78
2, 606960, Note_on_c, 0, 69, 42
2, 607080, Note_on_c, 0, 73, 0
2, 607080, Note_on_c, 0, 81, 0
2, 607080, Note_on_c, 0, 85, 0
2, 607080, Note_on_c, 0, 87, 85
2, 607080, Note_on_c, 0, 75, 86
2, 607199, Note_on_c, 0, 75, 0
2, 607199, Note_on_c, 0, 87, 0
2, 607199, Note_on_c, 0, 85, 74
2, 607199, Note_on_c, 0, 73, 73
2, 607320, Note_on_c, 0, 73, 0
2, 607320, Note_on_c, 0, 85, 0
2, 607320, Note_on_c, 0, 87, 92
2, 607320, Note_on_c, 0, 75, 82
2, 607559, Note_on_c, 0, 75, 0
2, 607559, Note_on_c, 0, 87, 0
2, 607559, Note_on_c, 0, 81, 58
2, 607559, Note_on_c, 0, 69, 60
2, 607680, Note_on_c, 0, 69, 0
2, 607680, Note_on_c, 0, 81, 0
2, 607680, Note_on_c, 0, 69, 0
2, 607680, Note_on_c, 0, 80, 84
2, 607680, Note_on_c, 0, 83, 84
2, 607680, Note_on_c, 0, 71, 78
2, 607680, Note_on_c, 0, 68, 50
2, 607800, Note_on_c, 0, 71, 0
2, 607800, Note_on_c, 0, 80, 0
2, 607800, Note_on_c, 0, 83, 0
2, 607800, Note_on_c, 0, 85, 86
2, 607800, Note_on_c, 0, 73, 84
2, 607919, Note_on_c, 0, 73, 0
2, 607919, Note_on_c, 0, 85, 0
2, 607919, Note_on_c, 0, 86, 86
2, 607919, Note_on_c, 0, 74, 84
2, 608040, Note_on_c, 0, 74, 0
2, 608040, Note_on_c, 0, 86, 0
2, 608040, Note_on_c, 0, 68, 0
2, 608040, Note_on_c, 0, 83, 92
2, 608040, Note_on_c, 0, 87, 92
2, 608040, Note_on_c, 0, 75, 87
2, 608040, Note_on_c, 0, 71, 53
2, 608160, Note_on_c, 0, 71, 0
2, 608160, Note_on_c, 0, 73, 58
2, 608279, Note_on_c, 0, 73, 0
2, 608279, Note_on_c, 0, 74, 53
2, 608400, Note_on_c, 0, 74, 0
2, 608400, Note_on_c, 0, 75, 0
2, 608400, Note_on_c, 0, 75, 77
2, 608400, Note_on_c, 0, 71, 45
2, 608520, Note_on_c, 0, 75, 0
2, 608520, Note_on_c, 0, 83, 0
2, 608520, Note_on_c, 0, 87, 0
2, 608520, Note_on_c, 0, 88, 81
2, 608520, Note_on_c, 0, 76, 85
2, 608639, Note_on_c, 0, 76, 0
2, 608639, Note_on_c, 0, 88, 0
2, 608639, Note_on_c, 0, 87, 75
2, 608639, Note_on_c, 0, 75, 67
2, 608760, Note_on_c, 0, 75, 0
2, 608760, Note_on_c, 0, 87, 0
2, 608760, Note_on_c, 0, 88, 92
2, 608760, Note_on_c, 0, 76, 85
2, 608999, Note_on_c, 0, 76, 0
2, 608999, Note_on_c, 0, 88, 0
2, 608999, Note_on_c, 0, 83, 57
2, 608999, Note_on_c, 0, 71, 61
2, 609120, Note_on_c, 0, 71, 0
2, 609120, Note_on_c, 0, 83, 0
2, 609120, Note_on_c, 0, 71, 0
2, 609120, Note_on_c, 0, 81, 82
2, 609120, Note_on_c, 0, 85, 82
2, 609120, Note_on_c, 0, 73, 77
2, 609120, Note_on_c, 0, 69, 42
2, 609240, Note_on_c, 0, 73, 0
2, 609240, Note_on_c, 0, 81, 0
2, 609240, Note_on_c, 0, 85, 0
2, 609240, Note_on_c, 0, 86, 88
2, 609240, Note_on_c, 0, 74, 83
2, 609359, Note_on_c, 0, 74, 0
2, 609359, Note_on_c, 0, 86, 0
2, 609359, Note_on_c, 0, 87, 84
2, 609359, Note_on_c, 0, 75, 82
2, 609480, Note_on_c, 0, 75, 0
2, 609480, Note_on_c, 0, 87, 0
2, 609480, Note_on_c, 0, 69, 0
2, 609480, Note_on_c, 0, 85, 92
2, 609480, Note_on_c, 0, 88, 92
2, 609480, Note_on_c, 0, 73, 83
2, 609480, Note_on_c, 0, 76, 83
2, 609719, Note_on_c, 0, 76, 0
2, 609719, Note_on_c, 0, 85, 0
2, 609719, Note_on_c, 0, 88, 0
2, 609719, Note_on_c, 0, 73, 0
2, 609719, Note_on_c, 0, 85, 66
2, 609719, Note_on_c, 0, 73, 69
2, 609840, Note_on_c, 0, 73, 0
2, 609840, Note_on_c, 0, 85, 0
2, 609840, Note_on_c, 0, 83, 88
2, 609840, Note_on_c, 0, 87, 88
2, 609840, Note_on_c, 0, 71, 87
2, 609840, Note_on_c, 0, 75, 87
2, 609960, Note_on_c, 0, 75, 0
2, 609960, Note_on_c, 0, 83, 0
2, 609960, Note_on_c, 0, 87, 0
2, 609960, Note_on_c, 0, 71, 0
2, 609960, Note_on_c, 0, 88, 86
2, 609960, Note_on_c, 0, 76, 85
2, 610079, Note_on_c, 0, 76, 0
2, 610079, Note_on_c, 0, 88, 0
2, 610079, Note_on_c, 0, 89, 86
2, 610079, Note_on_c, 0, 77, 84
2, 610200, Note_on_c, 0, 77, 0
2, 610200, Note_on_c, 0, 89, 0
2, 610200, Note_on_c, 0, 87, 92
2, 610200, Note_on_c, 0, 90, 92
2, 610200, Note_on_c, 0, 75, 82
2, 610200, Note_on_c, 0, 78, 82
2, 610439, Note_on_c, 0, 78, 0
2, 610439, Note_on_c, 0, 87, 0
2, 610439, Note_on_c, 0, 90, 0
2, 610439, Note_on_c, 0, 75, 0
2, 610439, Note_on_c, 0, 87, 69
2, 610439, Note_on_c, 0, 75, 66
2, 610560, Note_on_c, 0, 75, 0
2, 610560, Note_on_c, 0, 87, 0
2, 610560, Note_on_c, 0, 85, 78
2, 610560, Note_on_c, 0, 88, 78
2, 610560, Note_on_c, 0, 73, 84
2, 610560, Note_on_c, 0, 76, 84
2, 610680, Note_on_c, 0, 76, 0
2, 610680, Note_on_c, 0, 85, 0
2, 610680, Note_on_c, 0, 88, 0
2, 610680, Note_on_c, 0, 73, 0
2, 610680, Note_on_c, 0, 90, 80
2, 610680, Note_on_c, 0, 78, 83
2, 610799, Note_on_c, 0, 78, 0
2, 610799, Note_on_c, 0, 90, 0
2, 610799, Note_on_c, 0, 91, 83
2, 610799, Note_on_c, 0, 79, 81
2, 610920, Note_on_c, 0, 79, 0
2, 610920, Note_on_c, 0, 91, 0
2, 610920, Note_on_c, 0, 88, 82
2, 610920, Note_on_c, 0, 92, 82
2, 610920, Note_on_c, 0, 76, 87
2, 610920, Note_on_c, 0, 80, 87
2, 611159, Note_on_c, 0, 80, 0
2, 611159, Note_on_c, 0, 88, 0
2, 611159, Note_on_c, 0, 92, 0
2, 611159, Note_on_c, 0, 76, 0
2, 611159, Note_on_c, 0, 90, 71
2, 611159, Note_on_c, 0, 78, 72
2, 611280, Note_on_c, 0, 78, 0
2, 611280, Note_on_c, 0, 90, 0
2, 611280, Note_on_c, 0, 88, 92
2, 611280, Note_on_c, 0, 92, 92
2, 611280, Note_on_c, 0, 76, 85
2, 611280, Note_on_c, 0, 80, 85
2, 611519, Note_on_c, 0, 80, 0
2, 611519, Note_on_c, 0, 88, 0
2, 611519, Note_on_c, 0, 92, 0
2, 611519, Note_on_c, 0, 76, 0
2, 611519, Note_on_c, 0, 90, 70
2, 611519, Note_on_c, 0, 78, 71
2, 611640, Note_on_c, 0, 78, 0
2, 611640, Note_on_c, 0, 90, 0
2, 611640, Note_on_c, 0, 88, 92
2, 611640, Note_on_c, 0, 92, 92
2, 611640, Note_on_c, 0, 76, 84
2, 611640, Note_on_c, 0, 80, 84
2, 611879, Note_on_c, 0, 80, 0
2, 611879, Note_on_c, 0, 88, 0
2, 611879, Note_on_c, 0, 92, 0
2, 611879, Note_on_c, 0, 76, 0
2, 611879, Note_on_c, 0, 87, 60
2, 611879, Note_on_c, 0, 75, 62
2, 612000, Note_on_c, 0, 75, 0
2, 612000, Note_on_c, 0, 87, 0
2, 612000, Note_on_c, 0, 85, 76
2, 612000, Note_on_c, 0, 88, 76
2, 612000, Note_on_c, 0, 73, 77
2, 612000, Note_on_c, 0, 76, 77
2, 612120, Note_on_c, 0, 76, 0
2, 612120, Note_on_c, 0, 85, 0
2, 612120, Note_on_c, 0, 88, 0
2, 612120, Note_on_c, 0, 73, 0
2, 612120, Note_on_c, 0, 90, 83
2, 612120, Note_on_c, 0, 78, 86
2, 612239, Note_on_c, 0, 78, 0
2, 612239, Note_on_c, 0, 90, 0
2, 612239, Note_on_c, 0, 91, 81
2, 612239, Note_on_c, 0, 79, 84
2, 612360, Note_on_c, 0, 79, 0
2, 612360, Note_on_c, 0, 91, 0
2, 612360, Note_on_c, 0, 88, 92
2, 612360, Note_on_c, 0, 92, 92
2, 612360, Note_on_c, 0, 76, 85
2, 612360, Note_on_c, 0, 80, 85
2, 612599, Note_on_c, 0, 80, 0
2, 612599, Note_on_c, 0, 88, 0
2, 612599, Note_on_c, 0, 92, 0
2, 612599, Note_on_c, 0, 76, 0
2, 612599, Note_on_c, 0, 90, 72
2, 612599, Note_on_c, 0, 78, 70
2, 612720, Note_on_c, 0, 78, 0
2, 612720, Note_on_c, 0, 90, 0
2, 612720, Note_on_c, 0, 88, 92
2, 612720, Note_on_c, 0, 92, 92
2, 612720, Note_on_c, 0, 76, 90
2, 612720, Note_on_c, 0, 80, 90
2, 612959, Note_on_c, 0, 80, 0
2, 612959, Note_on_c, 0, 88, 0
2, 612959, Note_on_c, 0, 92, 0
2, 612959, Note_on_c, 0, 76, 0
2, 612959, Note_on_c, 0, 90, 71
2, 612959, Note_on_c, 0, 78, 69
2, 613080, Note_on_c, 0, 78, 0
2, 613080, Note_on_c, 0, 90, 0
2, 613080, Note_on_c, 0, 88, 92
2, 613080, Note_on_c, 0, 92, 92
2, 613080, Note_on_c, 0, 76, 82
2, 613080, Note_on_c, 0, 80, 82
2, 613319, Note_on_c, 0, 80, 0
2, 613319, Note_on_c, 0, 88, 0
2, 613319, Note_on_c, 0, 92, 0
2, 613319, Note_on_c, 0, 76, 0
2, 613319, Note_on_c, 0, 87, 60
2, 613319, Note_on_c, 0, 78, 71
2, 613440, Note_on_c, 0, 78, 0
2, 613440, Note_on_c, 0, 87, 0
2, 613440, Note_on_c, 0, 85, 82
2, 613440, Note_on_c, 0, 88, 82
2, 613440, Note_on_c, 0, 73, 67
2, 613440, Note_on_c, 0, 76, 67
2, 613560, Note_on_c, 0, 76, 0
2, 613560, Note_on_c, 0, 85, 0
2, 613560, Note_on_c, 0, 88, 0
2, 613560, Note_on_c, 0, 73, 0
2, 613560, Note_on_c, 0, 90, 85
2, 613560, Note_on_c, 0, 78, 83
2, 613679, Note_on_c, 0, 78, 0
2, 613679, Note_on_c, 0, 90, 0
2, 613679, Note_on_c, 0, 91, 86
2, 613679, Note_on_c, 0, 79, 83
2, 613800, Note_on_c, 0, 79, 0
2, 613800, Note_on_c, 0, 91, 0
2, 613800, Note_on_c, 0, 84, 92
2, 613800, Note_on_c, 0, 92, 92
2, 613800, Note_on_c, 0, 72, 82
2, 613800, Note_on_c, 0, 80, 82
2, 614039, Note_on_c, 0, 80, 0
2, 614039, Note_on_c, 0, 84, 0
2, 614039, Note_on_c, 0, 92, 0
2, 614039, Note_on_c, 0, 72, 0
2, 614039, Note_on_c, 0, 92, 75
2, 614039, Note_on_c, 0, 80, 81
2, 614160, Note_on_c, 0, 80, 0
2, 614160, Note_on_c, 0, 92, 0
2, 614160, Note_on_c, 0, 84, 57
2, 614160, Note_on_c, 0, 72, 65
2, 614160, Note_on_c, 0, 77, 65
2, 614280, Note_on_c, 0, 77, 0
2, 614280, Note_on_c, 0, 72, 0
2, 614280, Note_on_c, 0, 84, 0
2, 614280, Note_on_c, 0, 86, 84
2, 614280, Note_on_c, 0, 74, 64
2, 614399, Note_on_c, 0, 74, 0
2, 614399, Note_on_c, 0, 86, 0
2, 614399, Note_on_c, 0, 87, 84
2, 614399, Note_on_c, 0, 75, 83
2, 614520, Note_on_c, 0, 75, 0
2, 614520, Note_on_c, 0, 87, 0
2, 614520, Note_on_c, 0, 81, 92
2, 614520, Note_on_c, 0, 84, 92
2, 614520, Note_on_c, 0, 88, 92
2, 614520, Note_on_c, 0, 72, 84
2, 614520, Note_on_c, 0, 76, 84
2, 614759, Note_on_c, 0, 76, 0
2, 614759, Note_on_c, 0, 88, 0
2, 614759, Note_on_c, 0, 81, 0
2, 614759, Note_on_c, 0, 84, 0
2, 614759, Note_on_c, 0, 72, 0
2, 614759, Note_on_c, 0, 88, 77
2, 614759, Note_on_c, 0, 76, 77
2, 614880, Note_on_c, 0, 76, 0
2, 614880, Note_on_c, 0, 88, 0
2, 614880, Note_on_c, 0, 85, 77
2, 614880, Note_on_c, 0, 88, 77
2, 614880, Note_on_c, 0, 73, 77
2, 614880, Note_on_c, 0, 76, 77
2, 615000, Note_on_c, 0, 76, 0
2, 615000, Note_on_c, 0, 85, 0
2, 615000, Note_on_c, 0, 88, 0
2, 615000, Note_on_c, 0, 73, 0
2, 615000, Note_on_c, 0, 90, 86
2, 615000, Note_on_c, 0, 78, 84
2, 615119, Note_on_c, 0, 78, 0
2, 615119, Note_on_c, 0, 90, 0
2, 615119, Note_on_c, 0, 91, 80
2, 615119, Note_on_c, 0, 79, 90
2, 615240, Note_on_c, 0, 79, 0
2, 615240, Note_on_c, 0, 91, 0
2, 615240, Note_on_c, 0, 84, 92
2, 615240, Note_on_c, 0, 92, 92
2, 615240, Note_on_c, 0, 72, 83
2, 615240, Note_on_c, 0, 80, 83
2, 615479, Note_on_c, 0, 80, 0
2, 615479, Note_on_c, 0, 84, 0
2, 615479, Note_on_c, 0, 92, 0
2, 615479, Note_on_c, 0, 72, 0
2, 615479, Note_on_c, 0, 92, 71
2, 615479, Note_on_c, 0, 80, 79
2, 615600, Note_on_c, 0, 80, 0
2, 615600, Note_on_c, 0, 92, 0
2, 615600, Note_on_c, 0, 84, 59
2, 615600, Note_on_c, 0, 72, 65
2, 615600, Note_on_c, 0, 77, 65
2, 615720, Note_on_c, 0, 77, 0
2, 615720, Note_on_c, 0, 72, 0
2, 615720, Note_on_c, 0, 84, 0
2, 615720, Note_on_c, 0, 86, 83
2, 615720, Note_on_c, 0, 74, 66
2, 615839, Note_on_c, 0, 74, 0
2, 615839, Note_on_c, 0, 86, 0
2, 615839, Note_on_c, 0, 87, 75
2, 615839, Note_on_c, 0, 75, 86
2, 615960, Note_on_c, 0, 75, 0
2, 615960, Note_on_c, 0, 87, 0
2, 615960, Note_on_c, 0, 81, 92
2, 615960, Note_on_c, 0, 84, 92
2, 615960, Note_on_c, 0, 88, 92
2, 615960, Note_on_c, 0, 72, 86
2, 615960, Note_on_c, 0, 76, 86
2, 616199, Note_on_c, 0, 76, 0
2, 616199, Note_on_c, 0, 88, 0
2, 616199, Note_on_c, 0, 81, 0
2, 616199, Note_on_c, 0, 84, 0
2, 616199, Note_on_c, 0, 72, 0
2, 616199, Note_on_c, 0, 88, 78
2, 616199, Note_on_c, 0, 76, 79
2, 616320, Note_on_c, 0, 76, 0
2, 616320, Note_on_c, 0, 88, 0
2, 616320, Note_on_c, 0, 85, 80
2, 616320, Note_on_c, 0, 88, 80
2, 616320, Note_on_c, 0, 73, 78
2, 616320, Note_on_c, 0, 76, 78
2, 616440, Note_on_c, 0, 76, 0
2, 616440, Note_on_c, 0, 85, 0
2, 616440, Note_on_c, 0, 88, 0
2, 616440, Note_on_c, 0, 73, 0
2, 616440, Note_on_c, 0, 90, 84
2, 616440, Note_on_c, 0, 78, 84
2, 616559, Note_on_c, 0, 78, 0
2, 616559, Note_on_c, 0, 90, 0
2, 616559, Note_on_c, 0, 91, 86
2, 616559, Note_on_c, 0, 79, 84
2, 616680, Note_on_c, 0, 79, 0
2, 616680, Note_on_c, 0, 91, 0
2, 616680, Note_on_c, 0, 88, 92
2, 616680, Note_on_c, 0, 92, 92
2, 616680, Note_on_c, 0, 80, 80
2, 616919, Note_on_c, 0, 92, 0
2, 616919, Note_on_c, 0, 88, 0
2, 616919, Note_on_c, 0, 80, 11
2, 617040, Note_on_c, 0, 80, 0
2, 617040, Note_on_c, 0, 80, 0
2, 617040, Note_on_c, 0, 78, 25
2, 617040, Note_on_c, 0, 81, 25
2, 617040, Note_on_c, 0, 66, 11
2, 617040, Note_on_c, 0, 69, 11
2, 617219, Note_on_c, 0, 69, 0
2, 617219, Note_on_c, 0, 66, 0
2, 617279, Note_on_c, 0, 81, 0
2, 617279, Note_on_c, 0, 78, 0
2, 617279, Note_on_c, 0, 81, 27
2, 617400, Note_on_c, 0, 81, 0
2, 617400, Note_on_c, 0, 80, 27
2, 617400, Note_on_c, 0, 83, 27
2, 617400, Note_on_c, 0, 68, 25
2, 617400, Note_on_c, 0, 71, 25
2, 617400, Note_on_c, 0, 76, 25
2, 617579, Note_on_c, 0, 76, 0
2, 617579, Note_on_c, 0, 68, 0
2, 617579, Note_on_c, 0, 71, 0
2, 617639, Note_on_c, 0, 83, 0
2, 617639, Note_on_c, 0, 80, 0
2, 617639, Note_on_c, 0, 83, 28
2, 617760, Note_on_c, 0, 83, 0
2, 617760, Note_on_c, 0, 85, 29
2, 617760, Note_on_c, 0, 68, 27
2, 617760, Note_on_c, 0, 73, 27
2, 617760, Note_on_c, 0, 76, 27
2, 617939, Note_on_c, 0, 76, 0
2, 617939, Note_on_c, 0, 73, 0
2, 617939, Note_on_c, 0, 68, 0
2, 617999, Note_on_c, 0, 85, 0
2, 617999, Note_on_c, 0, 85, 30
2, 618120, Note_on_c, 0, 85, 0
2, 618120, Note_on_c, 0, 84, 31
2, 618120, Note_on_c, 0, 87, 31
2, 618120, Note_on_c, 0, 66, 29
2, 618120, Note_on_c, 0, 72, 29
2, 618120, Note_on_c, 0, 75, 29
2, 618299, Note_on_c, 0, 75, 0
2, 618299, Note_on_c, 0, 66, 0
2, 618299, Note_on_c, 0, 72, 0
2, 618359, Note_on_c, 0, 87, 0
2, 618359, Note_on_c, 0, 84, 0
2, 618359, Note_on_c, 0, 87, 32
2, 618480, Note_on_c, 0, 87, 0
2, 618480, Note_on_c, 0, 83, 33
2, 618480, Note_on_c, 0, 88, 33
2, 618480, Note_on_c, 0, 71, 31
2, 618480, Note_on_c, 0, 73, 31
2, 618480, Note_on_c, 0, 76, 31
2, 618659, Note_on_c, 0, 76, 0
2, 618659, Note_on_c, 0, 71, 0
2, 618659, Note_on_c, 0, 73, 0
2, 618719, Note_on_c, 0, 88, 0
2, 618719, Note_on_c, 0, 83, 0
2, 618719, Note_on_c, 0, 88, 34
2, 618840, Note_on_c, 0, 88, 0
2, 618840, Note_on_c, 0, 87, 35
2, 618840, Note_on_c, 0, 90, 35
2, 618840, Note_on_c, 0, 71, 33
2, 618840, Note_on_c, 0, 75, 33
2, 618840, Note_on_c, 0, 78, 33
2, 619019, Note_on_c, 0, 78, 0
2, 619019, Note_on_c, 0, 71, 0
2, 619019, Note_on_c, 0, 75, 0
2, 619079, Note_on_c, 0, 90, 0
2, 619079, Note_on_c, 0, 87, 0
2, 619079, Note_on_c, 0, 90, 36
2, 619200, Note_on_c, 0, 90, 0
2, 619200, Note_on_c, 0, 86, 36
2, 619200, Note_on_c, 0, 92, 36
2, 619200, Note_on_c, 0, 71, 35
2, 619200, Note_on_c, 0, 74, 35
2, 619200, Note_on_c, 0, 80, 35
2, 619318, Note_on_c, 0, 80, 0
2, 619318, Note_on_c, 0, 71, 0
2, 619318, Note_on_c, 0, 74, 0
2, 619439, Note_on_c, 0, 92, 0
2, 619439, Note_on_c, 0, 86, 0
2, 619439, Note_on_c, 0, 86, 38
2, 619439, Note_on_c, 0, 74, 37
2, 619560, Note_on_c, 0, 74, 0
2, 619560, Note_on_c, 0, 86, 0
2, 619560, Note_on_c, 0, 80, 38
2, 619560, Note_on_c, 0, 87, 38
2, 619560, Note_on_c, 0, 92, 38
2, 619560, Note_on_c, 0, 71, 37
2, 619560, Note_on_c, 0, 75, 37
2, 619799, Note_on_c, 0, 75, 0
2, 619799, Note_on_c, 0, 92, 0
2, 619799, Note_on_c, 0, 80, 0
2, 619799, Note_on_c, 0, 87, 0
2, 619799, Note_on_c, 0, 71, 0
2, 619799, Note_on_c, 0, 87, 39
2, 619799, Note_on_c, 0, 75, 38
2, 619920, Note_on_c, 0, 75, 0
2, 619920, Note_on_c, 0, 87, 0
2, 619920, Note_on_c, 0, 80, 40
2, 619920, Note_on_c, 0, 88, 40
2, 619920, Note_on_c, 0, 92, 40
2, 619920, Note_on_c, 0, 71, 39
2, 619920, Note_on_c, 0, 76, 39
2, 620159, Note_on_c, 0, 76, 0
2, 620159, Note_on_c, 0, 92, 0
2, 620159, Note_on_c, 0, 80, 0
2, 620159, Note_on_c, 0, 88, 0
2, 620159, Note_on_c, 0, 71, 0
2, 620159, Note_on_c, 0, 88, 41
2, 620159, Note_on_c, 0, 76, 40
2, 620280, Note_on_c, 0, 76, 0
2, 620280, Note_on_c, 0, 88, 0
2, 620280, Note_on_c, 0, 80, 42
2, 620280, Note_on_c, 0, 88, 42
2, 620280, Note_on_c, 0, 92, 42
2, 620280, Note_on_c, 0, 72, 41
2, 620280, Note_on_c, 0, 76, 41
2, 620519, Note_on_c, 0, 76, 0
2, 620519, Note_on_c, 0, 92, 0
2, 620519, Note_on_c, 0, 80, 0
2, 620519, Note_on_c, 0, 88, 0
2, 620519, Note_on_c, 0, 72, 0
2, 620519, Note_on_c, 0, 90, 43
2, 620519, Note_on_c, 0, 78, 42
2, 620640, Note_on_c, 0, 78, 0
2, 620640, Note_on_c, 0, 90, 0
2, 620640, Note_on_c, 0, 80, 44
2, 620640, Note_on_c, 0, 88, 44
2, 620640, Note_on_c, 0, 92, 44
2, 620640, Note_on_c, 0, 73, 43
2, 620640, Note_on_c, 0, 76, 43
2, 620879, Note_on_c, 0, 76, 0
2, 620879, Note_on_c, 0, 92, 0
2, 620879, Note_on_c, 0, 80, 0
2, 620879, Note_on_c, 0, 88, 0
2, 620879, Note_on_c, 0, 73, 0
2, 620879, Note_on_c, 0, 92, 45
2, 620879, Note_on_c, 0, 80, 44
2, 621000, Note_on_c, 0, 80, 0
2, 621000, Note_on_c, 0, 92, 0
2, 621000, Note_on_c, 0, 88, 45
2, 621000, Note_on_c, 0, 93, 45
2, 621000, Note_on_c, 0, 81, 45
2, 621000, Note_on_c, 0, 76, 70
2, 621120, Note_on_c, 0, 81, 0
2, 621120, Note_on_c, 0, 88, 0
2, 621120, Note_on_c, 0, 93, 0
2, 621120, Note_on_c, 0, 92, 46
2, 621120, Note_on_c, 0, 80, 46
2, 621239, Note_on_c, 0, 80, 0
2, 621239, Note_on_c, 0, 92, 0
2, 621239, Note_on_c, 0, 93, 47
2, 621239, Note_on_c, 0, 81, 46
2, 621360, Note_on_c, 0, 81, 0
2, 621360, Note_on_c, 0, 93, 0
2, 621360, Note_on_c, 0, 88, 47
2, 621360, Note_on_c, 0, 94, 47
2, 621360, Note_on_c, 0, 82, 47
2, 621480, Note_on_c, 0, 82, 0
2, 621480, Note_on_c, 0, 94, 0
2, 621480, Note_on_c, 0, 88, 0
2, 621480, Note_on_c, 0, 93, 48
2, 621480, Note_on_c, 0, 81, 48
2, 621599, Note_on_c, 0, 81, 0
2, 621599, Note_on_c, 0, 93, 0
2, 621599, Note_on_c, 0, 94, 48
2, 621599, Note_on_c, 0, 82, 48
2, 621720, Note_on_c, 0, 82, 0
2, 621720, Note_on_c, 0, 94, 0
2, 621720, Note_on_c, 0, 88, 49
2, 621720, Note_on_c, 0, 95, 49
2, 621720, Note_on_c, 0, 83, 49
2, 621840, Note_on_c, 0, 83, 0
2, 621840, Note_on_c, 0, 95, 0
2, 621840, Note_on_c, 0, 88, 0
2, 621840, Note_on_c, 0, 94, 50
2, 621840, Note_on_c, 0, 82, 50
2, 621959, Note_on_c, 0, 82, 0
2, 621959, Note_on_c, 0, 94, 0
2, 621959, Note_on_c, 0, 95, 50
2, 621959, Note_on_c, 0, 83, 50
2, 622080, Note_on_c, 0, 83, 0
2, 622080, Note_on_c, 0, 95, 0
2, 622080, Note_on_c, 0, 76, 0
2, 622080, Note_on_c, 0, 88, 72
2, 622080, Note_on_c, 0, 90, 72
2, 622080, Note_on_c, 0, 97, 72
2, 622080, Note_on_c, 0, 76, 74
2, 622080, Note_on_c, 0, 78, 74
2, 622080, Note_on_c, 0, 85, 74
2, 622440, Note_on_c, 0, 85, 0
2, 622440, Note_on_c, 0, 90, 0
2, 622440, Note_on_c, 0, 97, 0
2, 622440, Note_on_c, 0, 88, 0
2, 622440, Note_on_c, 0, 78, 0
2, 622440, Note_on_c, 0, 76, 0
2, 623160, Note_on_c, 0, 73, 54
2, 623160, Note_on_c, 0, 68, 72
2, 623264, Note_on_c, 0, 68, 0
2, 623280, Note_on_c, 0, 66, 71
2, 623399, Note_on_c, 0, 66, 0
2, 623399, Note_on_c, 0, 68, 81
2, 623477, Note_on_c, 0, 73, 0
2, 623520, Note_on_c, 0, 68, 0
2, 623520, Note_on_c, 0, 66, 47
2, 623837, Note_on_c, 0, 66, 0
2, 624600, Note_on_c, 0, 73, 52
2, 624600, Note_on_c, 0, 68, 86
2, 624704, Note_on_c, 0, 68, 0
2, 624720, Note_on_c, 0, 66, 72
2, 624839, Note_on_c, 0, 66, 0
2, 624839, Note_on_c, 0, 68, 84
2, 624917, Note_on_c, 0, 73, 0
2, 624960, Note_on_c, 0, 68, 0
2, 624960, Note_on_c, 0, 61, 43
2, 624960, Note_on_c, 0, 66, 43
2, 625277, Note_on_c, 0, 66, 0
2, 625277, Note_on_c, 0, 61, 0
2, 625320, Note_on_c, 0, 61, 47
2, 625320, Note_on_c, 0, 64, 47
2, 625440, Note_on_c, 0, 64, 0
2, 625440, Note_on_c, 0, 61, 0
2, 625440, Note_on_c, 0, 66, 55
2, 625559, Note_on_c, 0, 66, 0
2, 625559, Note_on_c, 0, 67, 57
2, 625680, Note_on_c, 0, 67, 0
2, 625680, Note_on_c, 0, 61, 56
2, 625680, Note_on_c, 0, 64, 56
2, 625680, Note_on_c, 0, 68, 56
2, 625919, Note_on_c, 0, 68, 0
2, 625919, Note_on_c, 0, 64, 0
2, 625919, Note_on_c, 0, 61, 0
2, 625919, Note_on_c, 0, 66, 43
2, 626040, Note_on_c, 0, 66, 0
2, 626040, Note_on_c, 0, 68, 55
2, 626040, Note_on_c, 0, 73, 55
2, 626040, Note_on_c, 0, 76, 55
2, 626040, Note_on_c, 0, 80, 55
2, 626040, Note_on_c, 0, 61, 38
2, 626040, Note_on_c, 0, 64, 38
2, 626279, Note_on_c, 0, 64, 0
2, 626279, Note_on_c, 0, 61, 0
2, 626279, Note_on_c, 0, 63, 43
2, 626357, Note_on_c, 0, 76, 0
2, 626357, Note_on_c, 0, 80, 0
2, 626357, Note_on_c, 0, 68, 0
2, 626357, Note_on_c, 0, 73, 0
2, 626400, Note_on_c, 0, 63, 0
2, 626400, Note_on_c, 0, 78, 42
2, 626400, Note_on_c, 0, 66, 71
2, 626400, Note_on_c, 0, 61, 41
2, 626760, Note_on_c, 0, 61, 0
2, 626760, Note_on_c, 0, 66, 0
2, 626760, Note_on_c, 0, 61, 59
2, 626760, Note_on_c, 0, 64, 59
2, 626880, Note_on_c, 0, 64, 0
2, 626880, Note_on_c, 0, 61, 0
2, 626880, Note_on_c, 0, 66, 60
2, 626999, Note_on_c, 0, 66, 0
2, 626999, Note_on_c, 0, 67, 60
2, 627120, Note_on_c, 0, 67, 0
2, 627120, Note_on_c, 0, 61, 56
2, 627120, Note_on_c, 0, 64, 56
2, 627120, Note_on_c, 0, 68, 56
2, 627359, Note_on_c, 0, 68, 0
2, 627359, Note_on_c, 0, 64, 0
2, 627359, Note_on_c, 0, 61, 0
2, 627359, Note_on_c, 0, 66, 48
2, 627480, Note_on_c, 0, 66, 0
2, 627480, Note_on_c, 0, 78, 0
2, 627480, Note_on_c, 0, 68, 58
2, 627480, Note_on_c, 0, 73, 58
2, 627480, Note_on_c, 0, 76, 58
2, 627480, Note_on_c, 0, 80, 58
2, 627480, Note_on_c, 0, 61, 43
2, 627480, Note_on_c, 0, 64, 43
2, 627719, Note_on_c, 0, 64, 0
2, 627719, Note_on_c, 0, 61, 0
2, 627719, Note_on_c, 0, 63, 44
2, 627840, Note_on_c, 0, 63, 0
2, 627840, Note_on_c, 0, 80, 0
2, 627840, Note_on_c, 0, 68, 0
2, 627840, Note_on_c, 0, 73, 0
2, 627840, Note_on_c, 0, 76, 0
2, 627840, Note_on_c, 0, 78, 48
2, 627840, Note_on_c, 0, 66, 88
2, 627840, Note_on_c, 0, 61, 45
2, 628200, Note_on_c, 0, 61, 0
2, 628200, Note_on_c, 0, 66, 0
2, 628200, Note_on_c, 0, 66, 60
2, 628200, Note_on_c, 0, 61, 62
2, 628320, Note_on_c, 0, 61, 0
2, 628320, Note_on_c, 0, 63, 80
2, 628439, Note_on_c, 0, 63, 0
2, 628439, Note_on_c, 0, 64, 81
2, 628560, Note_on_c, 0, 64, 0
2, 628560, Note_on_c, 0, 66, 0
2, 628560, Note_on_c, 0, 64, 47
2, 628560, Note_on_c, 0, 66, 92
2, 628920, Note_on_c, 0, 64, 0
2, 628920, Note_on_c, 0, 78, 0
2, 628920, Note_on_c, 0, 61, 40
2, 629034, Note_on_c, 0, 66, 0
2, 629100, Note_on_c, 0, 68, 84
2, 629280, Note_on_c, 0, 68, 0
2, 629280, Note_on_c, 0, 68, 76
2, 629400, Note_on_c, 0, 68, 0
2, 629400, Note_on_c, 0, 69, 82
2, 629519, Note_on_c, 0, 69, 0
2, 629519, Note_on_c, 0, 71, 85
2, 629640, Note_on_c, 0, 71, 0
2, 629640, Note_on_c, 0, 61, 0
2, 629640, Note_on_c, 0, 73, 50
2, 629640, Note_on_c, 0, 61, 48
2, 629760, Note_on_c, 0, 63, 64
2, 629879, Note_on_c, 0, 63, 0
2, 629879, Note_on_c, 0, 64, 79
2, 630000, Note_on_c, 0, 64, 0
2, 630000, Note_on_c, 0, 61, 0
2, 630000, Note_on_c, 0, 66, 75
2, 630273, Note_on_c, 0, 73, 0
2, 630360, Note_on_c, 0, 75, 57
2, 630599, Note_on_c, 0, 75, 0
2, 630599, Note_on_c, 0, 76, 56
2, 630633, Note_on_c, 0, 66, 0
2, 630720, Note_on_c, 0, 76, 0
2, 630720, Note_on_c, 0, 76, 54
2, 630720, Note_on_c, 0, 78, 54
2, 630720, Note_on_c, 0, 64, 69
2, 630720, Note_on_c, 0, 66, 69
2, 630720, Note_on_c, 0, 73, 69
2, 631080, Note_on_c, 0, 73, 0
2, 631080, Note_on_c, 0, 64, 0
2, 631080, Note_on_c, 0, 76, 0
2, 631080, Note_on_c, 0, 78, 0
2, 631080, Note_on_c, 0, 66, 0
2, 631800, Note_on_c, 0, 73, 54
2, 631800, Note_on_c, 0, 68, 92
2, 631904, Note_on_c, 0, 68, 0
2, 631920, Note_on_c, 0, 66, 72
2, 632039, Note_on_c, 0, 66, 0
2, 632039, Note_on_c, 0, 68, 81
2, 632117, Note_on_c, 0, 73, 0
2, 632160, Note_on_c, 0, 68, 0
2, 632160, Note_on_c, 0, 66, 45
2, 632477, Note_on_c, 0, 66, 0
2, 633240, Note_on_c, 0, 73, 52
2, 633240, Note_on_c, 0, 68, 92
2, 633344, Note_on_c, 0, 68, 0
2, 633360, Note_on_c, 0, 66, 67
2, 633479, Note_on_c, 0, 66, 0
2, 633479, Note_on_c, 0, 68, 84
2, 633557, Note_on_c, 0, 73, 0
2, 633600, Note_on_c, 0, 68, 0
2, 633600, Note_on_c, 0, 61, 34
2, 633600, Note_on_c, 0, 66, 34
2, 633960, Note_on_c, 0, 66, 0
2, 633960, Note_on_c, 0, 61, 0
2, 633960, Note_on_c, 0, 61, 41
2, 633960, Note_on_c, 0, 64, 41
2, 634080, Note_on_c, 0, 64, 0
2, 634080, Note_on_c, 0, 61, 0
2, 634080, Note_on_c, 0, 66, 51
2, 634199, Note_on_c, 0, 66, 0
2, 634199, Note_on_c, 0, 67, 59
2, 634320, Note_on_c, 0, 67, 0
2, 634320, Note_on_c, 0, 61, 84
2, 634320, Note_on_c, 0, 64, 84
2, 634320, Note_on_c, 0, 68, 84
2, 634559, Note_on_c, 0, 68, 0
2, 634559, Note_on_c, 0, 64, 0
2, 634559, Note_on_c, 0, 61, 0
2, 634559, Note_on_c, 0, 66, 48
2, 634680, Note_on_c, 0, 66, 0
2, 634680, Note_on_c, 0, 68, 51
2, 634680, Note_on_c, 0, 73, 51
2, 634680, Note_on_c, 0, 76, 51
2, 634680, Note_on_c, 0, 80, 51
2, 634680, Note_on_c, 0, 61, 42
2, 634680, Note_on_c, 0, 64, 42
2, 634919, Note_on_c, 0, 64, 0
2, 634919, Note_on_c, 0, 61, 0
2, 634919, Note_on_c, 0, 63, 44
2, 634997, Note_on_c, 0, 76, 0
2, 634997, Note_on_c, 0, 80, 0
2, 634997, Note_on_c, 0, 68, 0
2, 634997, Note_on_c, 0, 73, 0
2, 635040, Note_on_c, 0, 63, 0
2, 635040, Note_on_c, 0, 78, 52
2, 635040, Note_on_c, 0, 66, 78
2, 635040, Note_on_c, 0, 61, 47
2, 635400, Note_on_c, 0, 61, 0
2, 635400, Note_on_c, 0, 66, 0
2, 635400, Note_on_c, 0, 61, 58
2, 635400, Note_on_c, 0, 64, 58
2, 635520, Note_on_c, 0, 64, 0
2, 635520, Note_on_c, 0, 61, 0
2, 635520, Note_on_c, 0, 66, 55
2, 635639, Note_on_c, 0, 66, 0
2, 635639, Note_on_c, 0, 67, 51
2, 635760, Note_on_c, 0, 67, 0
2, 635760, Note_on_c, 0, 61, 80
2, 635760, Note_on_c, 0, 64, 80
2, 635760, Note_on_c, 0, 68, 80
2, 635999, Note_on_c, 0, 68, 0
2, 635999, Note_on_c, 0, 64, 0
2, 635999, Note_on_c, 0, 61, 0
2, 635999, Note_on_c, 0, 66, 46
2, 636120, Note_on_c, 0, 66, 0
2, 636120, Note_on_c, 0, 78, 0
2, 636120, Note_on_c, 0, 68, 68
2, 636120, Note_on_c, 0, 73, 68
2, 636120, Note_on_c, 0, 76, 68
2, 636120, Note_on_c, 0, 80, 68
2, 636120, Note_on_c, 0, 61, 46
2, 636120, Note_on_c, 0, 64, 46
2, 636359, Note_on_c, 0, 64, 0
2, 636359, Note_on_c, 0, 61, 0
2, 636359, Note_on_c, 0, 63, 47
2, 636437, Note_on_c, 0, 76, 0
2, 636437, Note_on_c, 0, 80, 0
2, 636437, Note_on_c, 0, 68, 0
2, 636437, Note_on_c, 0, 73, 0
2, 636480, Note_on_c, 0, 63, 0
2, 636480, Note_on_c, 0, 78, 43
2, 636480, Note_on_c, 0, 66, 78
2, 636480, Note_on_c, 0, 61, 46
2, 636840, Note_on_c, 0, 61, 0
2, 636840, Note_on_c, 0, 66, 0
2, 636840, Note_on_c, 0, 66, 62
2, 636840, Note_on_c, 0, 61, 55
2, 636960, Note_on_c, 0, 61, 0
2, 636960, Note_on_c, 0, 63, 80
2, 637079, Note_on_c, 0, 63, 0
2, 637079, Note_on_c, 0, 64, 83
2, 637200, Note_on_c, 0, 64, 0
2, 637200, Note_on_c, 0, 66, 0
2, 637200, Note_on_c, 0, 64, 47
2, 637200, Note_on_c, 0, 66, 92
2, 637560, Note_on_c, 0, 64, 0
2, 637560, Note_on_c, 0, 78, 0
2, 637560, Note_on_c, 0, 61, 46
2, 637674, Note_on_c, 0, 66, 0
2, 637740, Note_on_c, 0, 68, 82
2, 637920, Note_on_c, 0, 68, 0
2, 637920, Note_on_c, 0, 68, 76
2, 638040, Note_on_c, 0, 68, 0
2, 638040, Note_on_c, 0, 70, 86
2, 638159, Note_on_c, 0, 70, 0
2, 638159, Note_on_c, 0, 71, 81
2, 638280, Note_on_c, 0, 71, 0
2, 638280, Note_on_c, 0, 61, 0
2, 638280, Note_on_c, 0, 73, 55
2, 638280, Note_on_c, 0, 61, 51
2, 638400, Note_on_c, 0, 61, 0
2, 638400, Note_on_c, 0, 63, 53
2, 638519, Note_on_c, 0, 63, 0
2, 638519, Note_on_c, 0, 64, 56
2, 638640, Note_on_c, 0, 64, 0
2, 638640, Note_on_c, 0, 66, 65
2, 638913, Note_on_c, 0, 73, 0
2, 639000, Note_on_c, 0, 75, 61
2, 639239, Note_on_c, 0, 75, 0
2, 639239, Note_on_c, 0, 76, 55
2, 639360, Note_on_c, 0, 76, 0
2, 639360, Note_on_c, 0, 78, 56
2, 640080, Note_on_c, 0, 66, 0
2, 640080, Note_on_c, 0, 66, 46
2, 640440, Note_on_c, 0, 78, 0
2, 640440, Note_on_c, 0, 80, 69
2, 640620, Note_on_c, 0, 66, 0
2, 640620, Note_on_c, 0, 68, 55
2, 640757, Note_on_c, 0, 80, 0
2, 640800, Note_on_c, 0, 68, 0
2, 640800, Note_on_c, 0, 78, 43
2, 640800, Note_on_c, 0, 68, 53
2, 640920, Note_on_c, 0, 68, 0
2, 640920, Note_on_c, 0, 70, 58
2, 641039, Note_on_c, 0, 70, 0
2, 641039, Note_on_c, 0, 71, 55
2, 641160, Note_on_c, 0, 71, 0
2, 641160, Note_on_c, 0, 73, 91
2, 641520, Note_on_c, 0, 66, 43
2, 641793, Note_on_c, 0, 73, 0
2, 641880, Note_on_c, 0, 78, 0
2, 641880, Note_on_c, 0, 80, 66
2, 641880, Note_on_c, 0, 73, 90
2, 642000, Note_on_c, 0, 73, 0
2, 642000, Note_on_c, 0, 75, 91
2, 642060, Note_on_c, 0, 66, 0
2, 642060, Note_on_c, 0, 68, 55
2, 642119, Note_on_c, 0, 75, 0
2, 642119, Note_on_c, 0, 76, 91
2, 642197, Note_on_c, 0, 80, 0
2, 642240, Note_on_c, 0, 76, 0
2, 642240, Note_on_c, 0, 68, 0
2, 642240, Note_on_c, 0, 78, 45
2, 642240, Note_on_c, 0, 68, 51
2, 642360, Note_on_c, 0, 68, 0
2, 642360, Note_on_c, 0, 70, 58
2, 642479, Note_on_c, 0, 70, 0
2, 642479, Note_on_c, 0, 71, 54
2, 642600, Note_on_c, 0, 71, 0
2, 642600, Note_on_c, 0, 72, 80
2, 642960, Note_on_c, 0, 68, 42
2, 643320, Note_on_c, 0, 78, 0
2, 643320, Note_on_c, 0, 80, 65
2, 643500, Note_on_c, 0, 68, 0
2, 643500, Note_on_c, 0, 69, 56
2, 643637, Note_on_c, 0, 80, 0
2, 643680, Note_on_c, 0, 69, 0
2, 643680, Note_on_c, 0, 72, 0
2, 643680, Note_on_c, 0, 78, 49
2, 643680, Note_on_c, 0, 73, 91
2, 643680, Note_on_c, 0, 69, 51
2, 643800, Note_on_c, 0, 69, 0
2, 643800, Note_on_c, 0, 71, 56
2, 643919, Note_on_c, 0, 71, 0
2, 643919, Note_on_c, 0, 72, 55
2, 644040, Note_on_c, 0, 72, 0
2, 644040, Note_on_c, 0, 73, 0
2, 644040, Note_on_c, 0, 73, 92
2, 644400, Note_on_c, 0, 69, 40
2, 644673, Note_on_c, 0, 73, 0
2, 644760, Note_on_c, 0, 78, 0
2, 644760, Note_on_c, 0, 80, 67
2, 644760, Note_on_c, 0, 73, 91
2, 644880, Note_on_c, 0, 73, 0
2, 644880, Note_on_c, 0, 75, 91
2, 644940, Note_on_c, 0, 69, 0
2, 644940, Note_on_c, 0, 71, 56
2, 644999, Note_on_c, 0, 75, 0
2, 644999, Note_on_c, 0, 76, 91
2, 645077, Note_on_c, 0, 80, 0
2, 645120, Note_on_c, 0, 76, 0
2, 645120, Note_on_c, 0, 71, 0
2, 645120, Note_on_c, 0, 81, 56
2, 645120, Note_on_c, 0, 78, 91
2, 645120, Note_on_c, 0, 71, 55
2, 645240, Note_on_c, 0, 71, 0
2, 645240, Note_on_c, 0, 72, 54
2, 645359, Note_on_c, 0, 72, 0
2, 645359, Note_on_c, 0, 73, 56
2, 645480, Note_on_c, 0, 73, 0
2, 645480, Note_on_c, 0, 78, 0
2, 645480, Note_on_c, 0, 74, 80
2, 646200, Note_on_c, 0, 81, 0
2, 646200, Note_on_c, 0, 83, 67
2, 646380, Note_on_c, 0, 71, 42
2, 646517, Note_on_c, 0, 83, 0
2, 646560, Note_on_c, 0, 71, 0
2, 646560, Note_on_c, 0, 74, 0
2, 646560, Note_on_c, 0, 81, 49
2, 646560, Note_on_c, 0, 76, 91
2, 646560, Note_on_c, 0, 71, 45
2, 646680, Note_on_c, 0, 71, 0
2, 646680, Note_on_c, 0, 73, 53
2, 646799, Note_on_c, 0, 73, 0
2, 646799, Note_on_c, 0, 74, 54
2, 646920, Note_on_c, 0, 74, 0
2, 646920, Note_on_c, 0, 76, 0
2, 646920, Note_on_c, 0, 76, 92
2, 647553, Note_on_c, 0, 76, 0
2, 647640, Note_on_c, 0, 81, 0
2, 647640, Note_on_c, 0, 83, 57
2, 647640, Note_on_c, 0, 76, 91
2, 647760, Note_on_c, 0, 76, 0
2, 647760, Note_on_c, 0, 78, 91
2, 647820, Note_on_c, 0, 71, 42
2, 647879, Note_on_c, 0, 78, 0
2, 647879, Note_on_c, 0, 80, 91
2, 648000, Note_on_c, 0, 80, 0
2, 648000, Note_on_c, 0, 71, 0
2, 648000, Note_on_c, 0, 83, 0
2, 648000, Note_on_c, 0, 81, 49
2, 648000, Note_on_c, 0, 73, 55
2, 648120, Note_on_c, 0, 73, 0
2, 648120, Note_on_c, 0, 75, 60
2, 648239, Note_on_c, 0, 75, 0
2, 648239, Note_on_c, 0, 76, 52
2, 648360, Note_on_c, 0, 76, 0
2, 648360, Note_on_c, 0, 81, 0
2, 648360, Note_on_c, 0, 83, 53
2, 648360, Note_on_c, 0, 78, 92
2, 648720, Note_on_c, 0, 83, 0
2, 648720, Note_on_c, 0, 81, 40
2, 649260, Note_on_c, 0, 71, 41
2, 649440, Note_on_c, 0, 71, 0
2, 649440, Note_on_c, 0, 72, 53
2, 649560, Note_on_c, 0, 72, 0
2, 649560, Note_on_c, 0, 74, 60
2, 649679, Note_on_c, 0, 74, 0
2, 649679, Note_on_c, 0, 75, 53
2, 649800, Note_on_c, 0, 75, 0
2, 649800, Note_on_c, 0, 81, 0
2, 649800, Note_on_c, 0, 78, 0
2, 649800, Note_on_c, 0, 83, 57
2, 649800, Note_on_c, 0, 76, 52
2, 650160, Note_on_c, 0, 83, 0
2, 650160, Note_on_c, 0, 81, 46
2, 650160, Note_on_c, 0, 72, 81
2, 650399, Note_on_c, 0, 76, 0
2, 650399, Note_on_c, 0, 75, 42
2, 650520, Note_on_c, 0, 75, 0
2, 650520, Note_on_c, 0, 81, 0
2, 650520, Note_on_c, 0, 83, 60
2, 650520, Note_on_c, 0, 76, 55
2, 650640, Note_on_c, 0, 78, 80
2, 650759, Note_on_c, 0, 78, 0
2, 650759, Note_on_c, 0, 80, 91
2, 650880, Note_on_c, 0, 80, 0
2, 650880, Note_on_c, 0, 76, 0
2, 650880, Note_on_c, 0, 83, 0
2, 650880, Note_on_c, 0, 72, 0
2, 650880, Note_on_c, 0, 81, 46
2, 650880, Note_on_c, 0, 71, 52
2, 650880, Note_on_c, 0, 75, 52
2, 651240, Note_on_c, 0, 75, 0
2, 651240, Note_on_c, 0, 71, 0
2, 651240, Note_on_c, 0, 69, 39
2, 651240, Note_on_c, 0, 71, 39
2, 651360, Note_on_c, 0, 71, 0
2, 651360, Note_on_c, 0, 69, 0
2, 651360, Note_on_c, 0, 66, 40
2, 651479, Note_on_c, 0, 66, 0
2, 651479, Note_on_c, 0, 73, 83
2, 651479, Note_on_c, 0, 68, 59
2, 651600, Note_on_c, 0, 68, 0
2, 651600, Note_on_c, 0, 73, 0
2, 651600, Note_on_c, 0, 75, 91
2, 651600, Note_on_c, 0, 69, 55
2, 651960, Note_on_c, 0, 81, 0
2, 651960, Note_on_c, 0, 83, 55
2, 652140, Note_on_c, 0, 69, 0
2, 652140, Note_on_c, 0, 71, 56
2, 652320, Note_on_c, 0, 71, 0
2, 652320, Note_on_c, 0, 83, 0
2, 652320, Note_on_c, 0, 75, 0
2, 652320, Note_on_c, 0, 81, 48
2, 652320, Note_on_c, 0, 76, 91
2, 652320, Note_on_c, 0, 71, 54
2, 652440, Note_on_c, 0, 71, 0
2, 652440, Note_on_c, 0, 73, 57
2, 652559, Note_on_c, 0, 73, 0
2, 652559, Note_on_c, 0, 75, 56
2, 652680, Note_on_c, 0, 75, 0
2, 652680, Note_on_c, 0, 76, 0
2, 652680, Note_on_c, 0, 73, 58
2, 652680, Note_on_c, 0, 76, 58
2, 652919, Note_on_c, 0, 76, 0
2, 652919, Note_on_c, 0, 73, 0
2, 652919, Note_on_c, 0, 75, 44
2, 653040, Note_on_c, 0, 75, 0
2, 653040, Note_on_c, 0, 76, 55
2, 653400, Note_on_c, 0, 81, 0
2, 653400, Note_on_c, 0, 83, 54
2, 653400, Note_on_c, 0, 78, 77
2, 653639, Note_on_c, 0, 78, 0
2, 653639, Note_on_c, 0, 76, 0
2, 653639, Note_on_c, 0, 80, 91
2, 653639, Note_on_c, 0, 76, 53
2, 653760, Note_on_c, 0, 76, 0
2, 653760, Note_on_c, 0, 80, 0
2, 653760, Note_on_c, 0, 83, 0
2, 653760, Note_on_c, 0, 81, 50
2, 653760, Note_on_c, 0, 78, 63
2, 653999, Note_on_c, 0, 78, 0
2, 653999, Note_on_c, 0, 73, 38
2, 654120, Note_on_c, 0, 73, 0
2, 654120, Note_on_c, 0, 81, 0
2, 654120, Note_on_c, 0, 83, 56
2, 654120, Note_on_c, 0, 75, 75
2, 654120, Note_on_c, 0, 66, 35
2, 654240, Note_on_c, 0, 66, 0
2, 654240, Note_on_c, 0, 66, 47
2, 654359, Note_on_c, 0, 66, 0
2, 654359, Note_on_c, 0, 75, 0
2, 654359, Note_on_c, 0, 76, 91
2, 654359, Note_on_c, 0, 68, 56
2, 654480, Note_on_c, 0, 68, 0
2, 654480, Note_on_c, 0, 76, 0
2, 654480, Note_on_c, 0, 83, 0
2, 654480, Note_on_c, 0, 81, 48
2, 654480, Note_on_c, 0, 78, 91
2, 654480, Note_on_c, 0, 69, 60
2, 654840, Note_on_c, 0, 81, 0
2, 654840, Note_on_c, 0, 83, 58
2, 655020, Note_on_c, 0, 69, 0
2, 655020, Note_on_c, 0, 78, 0
2, 655020, Note_on_c, 0, 80, 91
2, 655020, Note_on_c, 0, 71, 56
2, 655200, Note_on_c, 0, 71, 0
2, 655200, Note_on_c, 0, 80, 0
2, 655200, Note_on_c, 0, 83, 0
2, 655200, Note_on_c, 0, 81, 50
2, 655200, Note_on_c, 0, 71, 52
2, 655320, Note_on_c, 0, 71, 0
2, 655320, Note_on_c, 0, 73, 54
2, 655439, Note_on_c, 0, 73, 0
2, 655439, Note_on_c, 0, 75, 53
2, 655560, Note_on_c, 0, 75, 0
2, 655560, Note_on_c, 0, 81, 0
2, 655560, Note_on_c, 0, 83, 53
2, 655560, Note_on_c, 0, 81, 91
2, 655560, Note_on_c, 0, 69, 82
2, 655560, Note_on_c, 0, 76, 82
2, 655799, Note_on_c, 0, 76, 0
2, 655799, Note_on_c, 0, 69, 0
2, 655799, Note_on_c, 0, 81, 0
2, 655799, Note_on_c, 0, 80, 83
2, 655799, Note_on_c, 0, 73, 43
2, 655920, Note_on_c, 0, 73, 0
2, 655920, Note_on_c, 0, 80, 0
2, 655920, Note_on_c, 0, 83, 0
2, 655920, Note_on_c, 0, 81, 45
2, 655920, Note_on_c, 0, 75, 60
2, 656159, Note_on_c, 0, 75, 0
2, 656159, Note_on_c, 0, 76, 51
2, 656280, Note_on_c, 0, 76, 0
2, 656280, Note_on_c, 0, 81, 0
2, 656280, Note_on_c, 0, 83, 56
2, 656280, Note_on_c, 0, 78, 82
2, 656400, Note_on_c, 0, 78, 0
2, 656400, Note_on_c, 0, 79, 91
2, 656519, Note_on_c, 0, 79, 0
2, 656519, Note_on_c, 0, 80, 91
2, 656640, Note_on_c, 0, 80, 0
2, 656640, Note_on_c, 0, 83, 0
2, 656640, Note_on_c, 0, 81, 44
2, 656640, Note_on_c, 0, 77, 76
2, 656640, Note_on_c, 0, 69, 43
2, 657000, Note_on_c, 0, 69, 0
2, 657000, Note_on_c, 0, 77, 0
2, 657000, Note_on_c, 0, 69, 59
2, 657000, Note_on_c, 0, 74, 59
2, 657120, Note_on_c, 0, 74, 0
2, 657120, Note_on_c, 0, 69, 0
2, 657120, Note_on_c, 0, 75, 55
2, 657239, Note_on_c, 0, 75, 0
2, 657239, Note_on_c, 0, 76, 58
2, 657360, Note_on_c, 0, 76, 0
2, 657360, Note_on_c, 0, 77, 56
2, 657360, Note_on_c, 0, 69, 72
2, 657599, Note_on_c, 0, 77, 0
2, 657599, Note_on_c, 0, 76, 46
2, 657720, Note_on_c, 0, 76, 0
2, 657720, Note_on_c, 0, 81, 0
2, 657720, Note_on_c, 0, 81, 70
2, 657720, Note_on_c, 0, 84, 70
2, 657720, Note_on_c, 0, 74, 46
2, 657959, Note_on_c, 0, 74, 0
2, 657959, Note_on_c, 0, 72, 45
2, 658037, Note_on_c, 0, 84, 0
2, 658037, Note_on_c, 0, 81, 0
2, 658080, Note_on_c, 0, 69, 0
2, 658080, Note_on_c, 0, 72, 0
2, 658080, Note_on_c, 0, 81, 46
2, 658080, Note_on_c, 0, 77, 77
2, 658080, Note_on_c, 0, 71, 50
2, 658080, Note_on_c, 0, 69, 72
2, 658440, Note_on_c, 0, 69, 0
2, 658440, Note_on_c, 0, 71, 0
2, 658440, Note_on_c, 0, 77, 0
2, 658440, Note_on_c, 0, 69, 42
2, 658560, Note_on_c, 0, 69, 0
2, 658560, Note_on_c, 0, 69, 54
2, 658679, Note_on_c, 0, 69, 0
2, 658679, Note_on_c, 0, 69, 52
2, 658800, Note_on_c, 0, 69, 0
2, 658800, Note_on_c, 0, 69, 52
2, 659039, Note_on_c, 0, 69, 0
2, 659039, Note_on_c, 0, 69, 55
2, 659160, Note_on_c, 0, 69, 0
2, 659160, Note_on_c, 0, 81, 0
2, 659160, Note_on_c, 0, 81, 73
2, 659160, Note_on_c, 0, 84, 73
2, 659160, Note_on_c, 0, 69, 46
2, 659399, Note_on_c, 0, 69, 0
2, 659399, Note_on_c, 0, 69, 46
2, 659477, Note_on_c, 0, 84, 0
2, 659477, Note_on_c, 0, 81, 0
2, 659520, Note_on_c, 0, 69, 0
2, 659520, Note_on_c, 0, 81, 46
2, 659520, Note_on_c, 0, 78, 80
2, 659520, Note_on_c, 0, 69, 46
2, 659880, Note_on_c, 0, 69, 0
2, 659880, Note_on_c, 0, 78, 0
2, 659880, Note_on_c, 0, 69, 62
2, 659880, Note_on_c, 0, 75, 62
2, 660000, Note_on_c, 0, 75, 0
2, 660000, Note_on_c, 0, 69, 0
2, 660000, Note_on_c, 0, 76, 55
2, 660119, Note_on_c, 0, 76, 0
2, 660119, Note_on_c, 0, 77, 60
2, 660240, Note_on_c, 0, 77, 0
2, 660240, Note_on_c, 0, 78, 55
2, 660240, Note_on_c, 0, 69, 77
2, 660479, Note_on_c, 0, 78, 0
2, 660479, Note_on_c, 0, 76, 48
2, 660600, Note_on_c, 0, 76, 0
2, 660600, Note_on_c, 0, 81, 0
2, 660600, Note_on_c, 0, 81, 69
2, 660600, Note_on_c, 0, 85, 69
2, 660600, Note_on_c, 0, 75, 49
2, 660839, Note_on_c, 0, 75, 0
2, 660839, Note_on_c, 0, 73, 45
2, 660917, Note_on_c, 0, 85, 0
2, 660917, Note_on_c, 0, 81, 0
2, 660960, Note_on_c, 0, 69, 0
2, 660960, Note_on_c, 0, 73, 0
2, 660960, Note_on_c, 0, 81, 43
2, 660960, Note_on_c, 0, 78, 79
2, 660960, Note_on_c, 0, 72, 42
2, 660960, Note_on_c, 0, 69, 75
2, 661320, Note_on_c, 0, 69, 0
2, 661320, Note_on_c, 0, 72, 0
2, 661320, Note_on_c, 0, 78, 0
2, 661320, Note_on_c, 0, 69, 42
2, 661440, Note_on_c, 0, 69, 0
2, 661440, Note_on_c, 0, 69, 42
2, 661559, Note_on_c, 0, 69, 0
2, 661559, Note_on_c, 0, 69, 49
2, 661680, Note_on_c, 0, 69, 0
2, 661680, Note_on_c, 0, 69, 51
2, 661919, Note_on_c, 0, 69, 0
2, 661919, Note_on_c, 0, 69, 53
2, 662040, Note_on_c, 0, 69, 0
2, 662040, Note_on_c, 0, 81, 0
2, 662040, Note_on_c, 0, 81, 72
2, 662040, Note_on_c, 0, 85, 72
2, 662040, Note_on_c, 0, 69, 55
2, 662279, Note_on_c, 0, 69, 0
2, 662279, Note_on_c, 0, 69, 49
2, 662357, Note_on_c, 0, 85, 0
2, 662357, Note_on_c, 0, 81, 0
2, 662400, Note_on_c, 0, 69, 0
2, 662400, Note_on_c, 0, 81, 42
2, 662400, Note_on_c, 0, 69, 67
2, 662400, Note_on_c, 0, 76, 67
2, 662520, Note_on_c, 0, 76, 0
2, 662520, Note_on_c, 0, 69, 0
2, 662520, Note_on_c, 0, 81, 0
2, 662520, Note_on_c, 0, 93, 73
2, 662520, Note_on_c, 0, 77, 57
2, 662639, Note_on_c, 0, 77, 0
2, 662639, Note_on_c, 0, 93, 0
2, 662639, Note_on_c, 0, 93, 61
2, 662639, Note_on_c, 0, 78, 55
2, 662760, Note_on_c, 0, 78, 0
2, 662760, Note_on_c, 0, 93, 0
2, 662760, Note_on_c, 0, 100, 65
2, 662760, Note_on_c, 0, 71, 53
2, 662760, Note_on_c, 0, 76, 53
2, 662760, Note_on_c, 0, 79, 53
2, 662880, Note_on_c, 0, 100, 0
2, 662880, Note_on_c, 0, 93, 39
2, 662939, Note_on_c, 0, 71, 0
2, 662939, Note_on_c, 0, 79, 0
2, 662939, Note_on_c, 0, 76, 0
2, 662999, Note_on_c, 0, 93, 0
2, 662999, Note_on_c, 0, 88, 37
2, 663120, Note_on_c, 0, 88, 0
2, 663120, Note_on_c, 0, 93, 86
2, 663120, Note_on_c, 0, 69, 51
2, 663120, Note_on_c, 0, 73, 51
2, 663120, Note_on_c, 0, 76, 51
2, 663120, Note_on_c, 0, 79, 51
2, 663240, Note_on_c, 0, 93, 0
2, 663240, Note_on_c, 0, 88, 42
2, 663299, Note_on_c, 0, 76, 0
2, 663299, Note_on_c, 0, 79, 0
2, 663299, Note_on_c, 0, 69, 0
2, 663299, Note_on_c, 0, 73, 0
2, 663359, Note_on_c, 0, 88, 0
2, 663359, Note_on_c, 0, 93, 61
2, 663480, Note_on_c, 0, 93, 0
2, 663480, Note_on_c, 0, 100, 90
2, 663480, Note_on_c, 0, 71, 52
2, 663480, Note_on_c, 0, 76, 52
2, 663480, Note_on_c, 0, 79, 52
2, 663600, Note_on_c, 0, 100, 0
2, 663600, Note_on_c, 0, 93, 35
2, 663659, Note_on_c, 0, 71, 0
2, 663659, Note_on_c, 0, 79, 0
2, 663659, Note_on_c, 0, 76, 0
2, 663719, Note_on_c, 0, 93, 0
2, 663719, Note_on_c, 0, 88, 41
2, 663840, Note_on_c, 0, 88, 0
2, 663840, Note_on_c, 0, 93, 87
2, 663840, Note_on_c, 0, 69, 51
2, 663840, Note_on_c, 0, 73, 51
2, 663840, Note_on_c, 0, 76, 51
2, 663840, Note_on_c, 0, 79, 51
2, 663960, Note_on_c, 0, 93, 0
2, 663960, Note_on_c, 0, 88, 43
2, 664019, Note_on_c, 0, 76, 0
2, 664019, Note_on_c, 0, 79, 0
2, 664019, Note_on_c, 0, 69, 0
2, 664019, Note_on_c, 0, 73, 0
2, 664079, Note_on_c, 0, 88, 0
2, 664079, Note_on_c, 0, 93, 59
2, 664200, Note_on_c, 0, 93, 0
2, 664200, Note_on_c, 0, 100, 92
2, 664200, Note_on_c, 0, 71, 54
2, 664200, Note_on_c, 0, 76, 54
2, 664200, Note_on_c, 0, 79, 54
2, 664320, Note_on_c, 0, 100, 0
2, 664320, Note_on_c, 0, 93, 35
2, 664379, Note_on_c, 0, 71, 0
2, 664379, Note_on_c, 0, 79, 0
2, 664379, Note_on_c, 0, 76, 0
2, 664439, Note_on_c, 0, 93, 0
2, 664439, Note_on_c, 0, 88, 36
2, 664560, Note_on_c, 0, 88, 0
2, 664560, Note_on_c, 0, 93, 86
2, 664560, Note_on_c, 0, 69, 49
2, 664560, Note_on_c, 0, 73, 49
2, 664560, Note_on_c, 0, 76, 49
2, 664560, Note_on_c, 0, 79, 49
2, 664680, Note_on_c, 0, 93, 0
2, 664680, Note_on_c, 0, 88, 40
2, 664739, Note_on_c, 0, 76, 0
2, 664739, Note_on_c, 0, 79, 0
2, 664739, Note_on_c, 0, 69, 0
2, 664739, Note_on_c, 0, 73, 0
2, 664799, Note_on_c, 0, 88, 0
2, 664799, Note_on_c, 0, 93, 63
2, 664920, Note_on_c, 0, 93, 0
2, 664920, Note_on_c, 0, 100, 92
2, 664920, Note_on_c, 0, 71, 48
2, 664920, Note_on_c, 0, 76, 48
2, 664920, Note_on_c, 0, 79, 48
2, 665040, Note_on_c, 0, 100, 0
2, 665040, Note_on_c, 0, 93, 37
2, 665099, Note_on_c, 0, 71, 0
2, 665099, Note_on_c, 0, 79, 0
2, 665099, Note_on_c, 0, 76, 0
2, 665159, Note_on_c, 0, 93, 0
2, 665159, Note_on_c, 0, 88, 41
2, 665280, Note_on_c, 0, 88, 0
2, 665280, Note_on_c, 0, 84, 71
2, 665280, Note_on_c, 0, 87, 71
2, 665280, Note_on_c, 0, 89, 71
2, 665280, Note_on_c, 0, 69, 44
2, 665280, Note_on_c, 0, 72, 44
2, 665280, Note_on_c, 0, 75, 44
2, 665280, Note_on_c, 0, 77, 44
2, 665459, Note_on_c, 0, 77, 0
2, 665459, Note_on_c, 0, 72, 0
2, 665459, Note_on_c, 0, 87, 0
2, 665459, Note_on_c, 0, 89, 0
2, 665459, Note_on_c, 0, 84, 0
2, 665459, Note_on_c, 0, 75, 0
2, 665459, Note_on_c, 0, 69, 0
2, 665640, Note_on_c, 0, 84, 45
2, 665640, Note_on_c, 0, 72, 48
2, 665640, Note_on_c, 0, 75, 48
2, 665819, Note_on_c, 0, 75, 0
2, 665819, Note_on_c, 0, 72, 0
2, 665819, Note_on_c, 0, 84, 0
2, 666000, Note_on_c, 0, 84, 62
2, 666000, Note_on_c, 0, 87, 62
2, 666000, Note_on_c, 0, 89, 62
2, 666000, Note_on_c, 0, 69, 56
2, 666000, Note_on_c, 0, 72, 56
2, 666000, Note_on_c, 0, 75, 56
2, 666000, Note_on_c, 0, 77, 56
2, 666179, Note_on_c, 0, 77, 0
2, 666179, Note_on_c, 0, 72, 0
2, 666179, Note_on_c, 0, 87, 0
2, 666179, Note_on_c, 0, 89, 0
2, 666179, Note_on_c, 0, 84, 0
2, 666179, Note_on_c, 0, 75, 0
2, 666179, Note_on_c, 0, 69, 0
2, 666360, Note_on_c, 0, 84, 42
2, 666360, Note_on_c, 0, 72, 48
2, 666360, Note_on_c, 0, 75, 48
2, 666539, Note_on_c, 0, 75, 0
2, 666539, Note_on_c, 0, 72, 0
2, 666539, Note_on_c, 0, 84, 0
2, 666720, Note_on_c, 0, 84, 59
2, 666720, Note_on_c, 0, 87, 59
2, 666720, Note_on_c, 0, 89, 59
2, 666720, Note_on_c, 0, 69, 56
2, 666720, Note_on_c, 0, 72, 56
2, 666720, Note_on_c, 0, 75, 56
2, 666720, Note_on_c, 0, 77, 56
2, 666899, Note_on_c, 0, 77, 0
2, 666899, Note_on_c, 0, 72, 0
2, 666899, Note_on_c, 0, 87, 0
2, 666899, Note_on_c, 0, 89, 0
2, 666899, Note_on_c, 0, 84, 0
2, 666899, Note_on_c, 0, 75, 0
2, 666899, Note_on_c, 0, 69, 0
2, 667080, Note_on_c, 0, 84, 40
2, 667080, Note_on_c, 0, 72, 45
2, 667080, Note_on_c, 0, 75, 45
2, 667259, Note_on_c, 0, 75, 0
2, 667259, Note_on_c, 0, 72, 0
2, 667259, Note_on_c, 0, 84, 0
2, 667440, Note_on_c, 0, 84, 61
2, 667440, Note_on_c, 0, 87, 61
2, 667440, Note_on_c, 0, 89, 61
2, 667440, Note_on_c, 0, 69, 52
2, 667440, Note_on_c, 0, 72, 52
2, 667440, Note_on_c, 0, 75, 52
2, 667440, Note_on_c, 0, 77, 52
2, 667619, Note_on_c, 0, 77, 0
2, 667619, Note_on_c, 0, 72, 0
2, 667619, Note_on_c, 0, 87, 0
2, 667619, Note_on_c, 0, 89, 0
2, 667619, Note_on_c, 0, 84, 0
2, 667619, Note_on_c, 0, 75, 0
2, 667619, Note_on_c, 0, 69, 0
2, 667800, Note_on_c, 0, 84, 40
2, 667800, Note_on_c, 0, 72, 47
2, 667800, Note_on_c, 0, 75, 47
2, 667979, Note_on_c, 0, 75, 0
2, 667979, Note_on_c, 0, 72, 0
2, 667979, Note_on_c, 0, 84, 0
2, 668160, Note_on_c, 0, 87, 58
2, 668160, Note_on_c, 0, 84, 79
2, 668160, Note_on_c, 0, 77, 58
2, 668160, Note_on_c, 0, 72, 91
2, 668160, Note_on_c, 0, 75, 91
2, 668280, Note_on_c, 0, 87, 0
2, 668280, Note_on_c, 0, 89, 58
2, 668339, Note_on_c, 0, 77, 0
2, 668399, Note_on_c, 0, 89, 0
2, 668399, Note_on_c, 0, 90, 52
2, 668520, Note_on_c, 0, 90, 0
2, 668520, Note_on_c, 0, 84, 0
2, 668520, Note_on_c, 0, 96, 34
2, 668520, Note_on_c, 0, 91, 67
2, 668520, Note_on_c, 0, 84, 64
2, 668759, Note_on_c, 0, 91, 0
2, 668759, Note_on_c, 0, 89, 84
2, 668880, Note_on_c, 0, 89, 0
2, 668880, Note_on_c, 0, 84, 0
2, 668880, Note_on_c, 0, 72, 0
2, 668880, Note_on_c, 0, 75, 0
2, 668880, Note_on_c, 0, 96, 0
2, 668880, Note_on_c, 0, 91, 35
2, 668880, Note_on_c, 0, 87, 83
2, 668880, Note_on_c, 0, 79, 42
2, 668880, Note_on_c, 0, 72, 72
2, 669119, Note_on_c, 0, 87, 0
2, 669119, Note_on_c, 0, 86, 85
2, 669240, Note_on_c, 0, 86, 0
2, 669240, Note_on_c, 0, 91, 0
2, 669240, Note_on_c, 0, 79, 0
2, 669240, Note_on_c, 0, 89, 47
2, 669240, Note_on_c, 0, 84, 82
2, 669240, Note_on_c, 0, 77, 43
2, 669479, Note_on_c, 0, 84, 0
2, 669479, Note_on_c, 0, 82, 83
2, 669600, Note_on_c, 0, 82, 0
2, 669600, Note_on_c, 0, 77, 0
2, 669600, Note_on_c, 0, 72, 0
2, 669600, Note_on_c, 0, 81, 68
2, 669839, Note_on_c, 0, 81, 0
2, 669839, Note_on_c, 0, 79, 47
2, 669960, Note_on_c, 0, 79, 0
2, 669960, Note_on_c, 0, 89, 0
2, 669960, Note_on_c, 0, 87, 74
2, 669960, Note_on_c, 0, 77, 44
2, 670199, Note_on_c, 0, 77, 0
2, 670199, Note_on_c, 0, 76, 52
2, 670320, Note_on_c, 0, 76, 0
2, 670320, Note_on_c, 0, 87, 0
2, 670320, Note_on_c, 0, 81, 41
2, 670320, Note_on_c, 0, 75, 47
2, 670559, Note_on_c, 0, 75, 0
2, 670559, Note_on_c, 0, 74, 47
2, 670680, Note_on_c, 0, 74, 0
2, 670680, Note_on_c, 0, 81, 0
2, 670680, Note_on_c, 0, 79, 49
2, 670680, Note_on_c, 0, 72, 42
2, 670800, Note_on_c, 0, 72, 0
2, 670800, Note_on_c, 0, 73, 54
2, 670919, Note_on_c, 0, 73, 0
2, 670919, Note_on_c, 0, 74, 51
2, 671040, Note_on_c, 0, 74, 0
2, 671040, Note_on_c, 0, 79, 0
2, 671040, Note_on_c, 0, 77, 44
2, 671040, Note_on_c, 0, 72, 51
2, 671040, Note_on_c, 0, 75, 51
2, 671160, Note_on_c, 0, 77, 0
2, 671160, Note_on_c, 0, 77, 46
2, 671279, Note_on_c, 0, 77, 0
2, 671279, Note_on_c, 0, 78, 53
2, 671400, Note_on_c, 0, 78, 0
2, 671400, Note_on_c, 0, 75, 0
2, 671400, Note_on_c, 0, 72, 0
2, 671400, Note_on_c, 0, 84, 67
2, 671400, Note_on_c, 0, 79, 91
2, 671400, Note_on_c, 0, 72, 42
2, 671520, Note_on_c, 0, 72, 0
2, 671520, Note_on_c, 0, 73, 57
2, 671639, Note_on_c, 0, 73, 0
2, 671639, Note_on_c, 0, 79, 0
2, 671639, Note_on_c, 0, 77, 91
2, 671639, Note_on_c, 0, 74, 59
2, 671760, Note_on_c, 0, 74, 0
2, 671760, Note_on_c, 0, 77, 0
2, 671760, Note_on_c, 0, 84, 0
2, 671760, Note_on_c, 0, 79, 37
2, 671760, Note_on_c, 0, 75, 86
2, 671760, Note_on_c, 0, 67, 34
2, 671999, Note_on_c, 0, 75, 0
2, 671999, Note_on_c, 0, 74, 88
2, 672120, Note_on_c, 0, 74, 0
2, 672120, Note_on_c, 0, 67, 0
2, 672120, Note_on_c, 0, 79, 0
2, 672120, Note_on_c, 0, 77, 46
2, 672120, Note_on_c, 0, 72, 85
2, 672120, Note_on_c, 0, 65, 43
2, 672359, Note_on_c, 0, 72, 0
2, 672359, Note_on_c, 0, 70, 82
2, 672480, Note_on_c, 0, 70, 0
2, 672480, Note_on_c, 0, 65, 0
2, 672480, Note_on_c, 0, 77, 0
2, 672480, Note_on_c, 0, 75, 59
2, 672480, Note_on_c, 0, 69, 57
2, 672719, Note_on_c, 0, 69, 0
2, 672719, Note_on_c, 0, 67, 43
2, 672797, Note_on_c, 0, 75, 0
2, 672840, Note_on_c, 0, 67, 0
2, 672840, Note_on_c, 0, 69, 39
2, 672840, Note_on_c, 0, 65, 49
2, 673079, Note_on_c, 0, 65, 0
2, 673079, Note_on_c, 0, 64, 48
2, 673200, Note_on_c, 0, 64, 0
2, 673200, Note_on_c, 0, 63, 51
2, 673439, Note_on_c, 0, 63, 0
2, 673439, Note_on_c, 0, 62, 49
2, 673560, Note_on_c, 0, 62, 0
2, 673560, Note_on_c, 0, 69, 0
2, 673560, Note_on_c, 0, 67, 40
2, 673560, Note_on_c, 0, 60, 46
2, 673680, Note_on_c, 0, 60, 0
2, 673680, Note_on_c, 0, 61, 59
2, 673799, Note_on_c, 0, 61, 0
2, 673799, Note_on_c, 0, 62, 58
2, 673920, Note_on_c, 0, 62, 0
2, 673920, Note_on_c, 0, 67, 0
2, 673920, Note_on_c, 0, 65, 47
2, 673920, Note_on_c, 0, 63, 56
2, 673920, Note_on_c, 0, 60, 46
2, 674040, Note_on_c, 0, 60, 0
2, 674040, Note_on_c, 0, 61, 78
2, 674159, Note_on_c, 0, 61, 0
2, 674159, Note_on_c, 0, 62, 79
2, 674280, Note_on_c, 0, 62, 0
2, 674280, Note_on_c, 0, 63, 0
2, 674280, Note_on_c, 0, 65, 0
2, 674280, Note_on_c, 0, 67, 56
2, 674280, Note_on_c, 0, 63, 54
2, 674519, Note_on_c, 0, 63, 0
2, 674519, Note_on_c, 0, 62, 46
2, 674640, Note_on_c, 0, 62, 0
2, 674640, Note_on_c, 0, 60, 45
2, 675000, Note_on_c, 0, 60, 0
2, 675000, Note_on_c, 0, 67, 0
2, 675000, Note_on_c, 0, 65, 47
2, 675720, Note_on_c, 0, 65, 0
2, 675720, Note_on_c, 0, 63, 42
2, 676440, Note_on_c, 0, 63, 0
2, 676440, Note_on_c, 0, 60, 39
2, 677160, Note_on_c, 0, 60, 0
2, 677160, Note_on_c, 0, 57, 43
2, 677880, Note_on_c, 0, 57, 0
2, 677880, Note_on_c, 0, 55, 48
2, 678600, Note_on_c, 0, 55, 0
2, 678600, Note_on_c, 0, 53, 47
2, 679320, Note_on_c, 0, 53, 0
2, 679320, Note_on_c, 0, 51, 51
2, 679680, Note_on_c, 0, 51, 0
2, 679680, Note_on_c, 0, 51, 68
2, 680040, Note_on_c, 0, 57, 30
2, 680580, Note_on_c, 0, 57, 0
2, 680580, Note_on_c, 0, 56, 25
2, 680760, Note_on_c, 0, 56, 0
2, 680760, Note_on_c, 0, 59, 40
2, 681300, Note_on_c, 0, 59, 0
2, 681300, Note_on_c, 0, 57, 20
2, 681480, Note_on_c, 0, 57, 0
2, 681480, Note_on_c, 0, 51, 0
2, 681480, Note_on_c, 0, 61, 43
2, 681480, Note_on_c, 0, 52, 80
2, 681659, Note_on_c, 0, 52, 0
2, 681840, Note_on_c, 0, 56, 82
2, 682019, Note_on_c, 0, 56, 0
2, 682200, Note_on_c, 0, 54, 76
2, 682379, Note_on_c, 0, 54, 0
2, 682560, Note_on_c, 0, 57, 76
2, 682740, Note_on_c, 0, 61, 0
2, 682740, Note_on_c, 0, 57, 26
2, 682920, Note_on_c, 0, 57, 0
2, 682920, Note_on_c, 0, 61, 26
2, 683460, Note_on_c, 0, 61, 0
2, 683460, Note_on_c, 0, 59, 27
2, 683640, Note_on_c, 0, 59, 0
2, 683640, Note_on_c, 0, 63, 27
2, 683827, Note_on_c, 0, 57, 0
2, 684000, Note_on_c, 0, 57, 78
2, 684180, Note_on_c, 0, 63, 0
2, 684180, Note_on_c, 0, 61, 28
2, 684360, Note_on_c, 0, 61, 0
2, 684360, Note_on_c, 0, 57, 0
2, 684360, Note_on_c, 0, 64, 28
2, 684360, Note_on_c, 0, 56, 79
2, 684539, Note_on_c, 0, 56, 0
2, 684720, Note_on_c, 0, 59, 79
2, 684899, Note_on_c, 0, 59, 0
2, 685080, Note_on_c, 0, 57, 79
2, 685259, Note_on_c, 0, 57, 0
2, 685440, Note_on_c, 0, 57, 80
2, 685440, Note_on_c, 0, 61, 80
2, 685620, Note_on_c, 0, 64, 0
2, 685620, Note_on_c, 0, 63, 29
2, 685800, Note_on_c, 0, 63, 0
2, 685800, Note_on_c, 0, 66, 55
2, 686389, Note_on_c, 0, 61, 0
2, 686389, Note_on_c, 0, 57, 0
2, 686520, Note_on_c, 0, 59, 81
2, 686699, Note_on_c, 0, 59, 0
2, 686880, Note_on_c, 0, 63, 31
2, 687060, Note_on_c, 0, 66, 0
2, 687060, Note_on_c, 0, 64, 57
2, 687240, Note_on_c, 0, 64, 0
2, 687240, Note_on_c, 0, 68, 57
2, 687829, Note_on_c, 0, 63, 0
2, 687960, Note_on_c, 0, 59, 32
2, 688139, Note_on_c, 0, 59, 0
2, 688320, Note_on_c, 0, 61, 33
2, 688500, Note_on_c, 0, 68, 0
2, 688500, Note_on_c, 0, 66, 58
2, 688680, Note_on_c, 0, 66, 0
2, 688680, Note_on_c, 0, 69, 59
2, 688953, Note_on_c, 0, 61, 0
2, 689040, Note_on_c, 0, 64, 34
2, 689040, Note_on_c, 0, 61, 84
2, 689220, Note_on_c, 0, 61, 0
2, 690120, Note_on_c, 0, 64, 0
2, 690300, Note_on_c, 0, 69, 0
2, 690300, Note_on_c, 0, 64, 92
2, 690480, Note_on_c, 0, 68, 61
2, 690840, Note_on_c, 0, 64, 0
2, 690840, Note_on_c, 0, 59, 36
2, 690840, Note_on_c, 0, 63, 36
2, 690954, Note_on_c, 0, 68, 0
2, 691019, Note_on_c, 0, 63, 0
2, 691019, Note_on_c, 0, 59, 0
2, 691020, Note_on_c, 0, 66, 62
2, 691200, Note_on_c, 0, 66, 0
2, 691200, Note_on_c, 0, 69, 62
2, 691200, Note_on_c, 0, 59, 36
2, 691200, Note_on_c, 0, 63, 36
2, 691200, Note_on_c, 0, 66, 36
2, 691560, Note_on_c, 0, 69, 0
2, 691560, Note_on_c, 0, 69, 62
2, 692100, Note_on_c, 0, 69, 0
2, 692100, Note_on_c, 0, 68, 63
2, 692280, Note_on_c, 0, 68, 0
2, 692280, Note_on_c, 0, 71, 63
2, 692820, Note_on_c, 0, 71, 0
2, 692820, Note_on_c, 0, 69, 64
2, 693000, Note_on_c, 0, 69, 0
2, 693000, Note_on_c, 0, 59, 0
2, 693000, Note_on_c, 0, 63, 0
2, 693000, Note_on_c, 0, 66, 0
2, 693000, Note_on_c, 0, 73, 64
2, 693000, Note_on_c, 0, 57, 39
2, 693000, Note_on_c, 0, 61, 39
2, 693179, Note_on_c, 0, 61, 0
2, 693179, Note_on_c, 0, 57, 0
2, 693360, Note_on_c, 0, 57, 39
2, 693360, Note_on_c, 0, 64, 39
2, 693539, Note_on_c, 0, 64, 0
2, 693539, Note_on_c, 0, 57, 0
2, 693720, Note_on_c, 0, 59, 40
2, 693720, Note_on_c, 0, 63, 40
2, 693899, Note_on_c, 0, 63, 0
2, 693899, Note_on_c, 0, 59, 0
2, 694080, Note_on_c, 0, 59, 40
2, 694080, Note_on_c, 0, 63, 40
2, 694080, Note_on_c, 0, 66, 40
2, 694260, Note_on_c, 0, 73, 0
2, 694260, Note_on_c, 0, 66, 66
2, 694440, Note_on_c, 0, 66, 0
2, 694440, Note_on_c, 0, 69, 66
2, 694980, Note_on_c, 0, 69, 0
2, 694980, Note_on_c, 0, 68, 67
2, 695160, Note_on_c, 0, 68, 0
2, 695160, Note_on_c, 0, 71, 67
2, 695700, Note_on_c, 0, 71, 0
2, 695700, Note_on_c, 0, 69, 67
2, 695880, Note_on_c, 0, 69, 0
2, 695880, Note_on_c, 0, 59, 0
2, 695880, Note_on_c, 0, 63, 0
2, 695880, Note_on_c, 0, 66, 0
2, 695880, Note_on_c, 0, 73, 68
2, 695880, Note_on_c, 0, 57, 42
2, 695880, Note_on_c, 0, 61, 42
2, 696059, Note_on_c, 0, 61, 0
2, 696059, Note_on_c, 0, 57, 0
2, 696240, Note_on_c, 0, 57, 43
2, 696240, Note_on_c, 0, 64, 43
2, 696419, Note_on_c, 0, 64, 0
2, 696419, Note_on_c, 0, 57, 0
2, 696600, Note_on_c, 0, 59, 43
2, 696600, Note_on_c, 0, 63, 43
2, 696779, Note_on_c, 0, 63, 0
2, 696779, Note_on_c, 0, 59, 0
2, 696960, Note_on_c, 0, 63, 44
2, 696960, Note_on_c, 0, 66, 44
2, 697140, Note_on_c, 0, 73, 0
2, 697140, Note_on_c, 0, 71, 69
2, 697320, Note_on_c, 0, 71, 0
2, 697320, Note_on_c, 0, 75, 69
2, 697909, Note_on_c, 0, 66, 0
2, 697909, Note_on_c, 0, 63, 0
2, 698040, Note_on_c, 0, 64, 45
2, 698219, Note_on_c, 0, 64, 0
2, 698400, Note_on_c, 0, 64, 45
2, 698400, Note_on_c, 0, 68, 45
2, 698580, Note_on_c, 0, 75, 0
2, 698580, Note_on_c, 0, 73, 71
2, 698760, Note_on_c, 0, 73, 0
2, 698760, Note_on_c, 0, 76, 71
2, 699300, Note_on_c, 0, 76, 0
2, 699300, Note_on_c, 0, 74, 72
2, 699349, Note_on_c, 0, 68, 0
2, 699349, Note_on_c, 0, 64, 0
2, 699480, Note_on_c, 0, 74, 0
2, 699480, Note_on_c, 0, 77, 72
2, 699480, Note_on_c, 0, 65, 47
2, 699659, Note_on_c, 0, 65, 0
2, 699840, Note_on_c, 0, 65, 47
2, 699840, Note_on_c, 0, 68, 47
2, 700019, Note_on_c, 0, 68, 0
2, 700019, Note_on_c, 0, 65, 0
2, 700020, Note_on_c, 0, 77, 0
2, 700020, Note_on_c, 0, 75, 73
2, 700200, Note_on_c, 0, 75, 0
2, 700200, Note_on_c, 0, 78, 73
2, 700200, Note_on_c, 0, 66, 48
2, 700379, Note_on_c, 0, 66, 0
2, 700560, Note_on_c, 0, 66, 48
2, 700560, Note_on_c, 0, 69, 48
2, 701460, Note_on_c, 0, 78, 0
2, 701460, Note_on_c, 0, 76, 75
2, 701640, Note_on_c, 0, 76, 0
2, 701640, Note_on_c, 0, 69, 0
2, 701640, Note_on_c, 0, 66, 0
2, 701640, Note_on_c, 0, 79, 75
2, 701640, Note_on_c, 0, 67, 49
2, 701819, Note_on_c, 0, 67, 0
2, 702000, Note_on_c, 0, 70, 50
2, 702180, Note_on_c, 0, 79, 0
2, 702180, Note_on_c, 0, 73, 76
2, 702360, Note_on_c, 0, 73, 0
2, 702360, Note_on_c, 0, 76, 76
2, 702633, Note_on_c, 0, 70, 0
2, 702720, Note_on_c, 0, 76, 0
2, 702720, Note_on_c, 0, 71, 51
2, 702900, Note_on_c, 0, 75, 49
2, 703080, Note_on_c, 0, 75, 0
2, 703080, Note_on_c, 0, 78, 79
2, 703620, Note_on_c, 0, 78, 0
2, 703620, Note_on_c, 0, 76, 56
2, 703800, Note_on_c, 0, 76, 0
2, 703800, Note_on_c, 0, 80, 83
2, 704340, Note_on_c, 0, 80, 0
2, 704340, Note_on_c, 0, 78, 56
2, 704520, Note_on_c, 0, 78, 0
2, 704520, Note_on_c, 0, 71, 0
2, 704520, Note_on_c, 0, 81, 81
2, 704520, Note_on_c, 0, 64, 36
2, 704699, Note_on_c, 0, 64, 0
2, 704880, Note_on_c, 0, 64, 58
2, 704880, Note_on_c, 0, 69, 58
2, 705059, Note_on_c, 0, 69, 0
2, 705059, Note_on_c, 0, 64, 0
2, 705240, Note_on_c, 0, 66, 42
2, 705419, Note_on_c, 0, 66, 0
2, 705600, Note_on_c, 0, 71, 56
2, 705600, Note_on_c, 0, 66, 79
2, 705780, Note_on_c, 0, 81, 0
2, 705780, Note_on_c, 0, 75, 45
2, 705960, Note_on_c, 0, 75, 0
2, 705960, Note_on_c, 0, 78, 78
2, 706140, Note_on_c, 0, 66, 0
2, 706500, Note_on_c, 0, 78, 0
2, 706500, Note_on_c, 0, 76, 57
2, 706680, Note_on_c, 0, 76, 0
2, 706680, Note_on_c, 0, 80, 85
2, 707220, Note_on_c, 0, 80, 0
2, 707220, Note_on_c, 0, 78, 59
2, 707400, Note_on_c, 0, 78, 0
2, 707400, Note_on_c, 0, 71, 0
2, 707400, Note_on_c, 0, 81, 84
2, 707400, Note_on_c, 0, 64, 37
2, 707579, Note_on_c, 0, 64, 0
2, 707760, Note_on_c, 0, 64, 56
2, 707760, Note_on_c, 0, 69, 56
2, 707939, Note_on_c, 0, 69, 0
2, 707939, Note_on_c, 0, 64, 0
2, 708120, Note_on_c, 0, 66, 53
2, 708299, Note_on_c, 0, 66, 0
2, 708480, Note_on_c, 0, 66, 77
2, 708480, Note_on_c, 0, 71, 77
2, 708660, Note_on_c, 0, 81, 0
2, 708660, Note_on_c, 0, 78, 56
2, 708840, Note_on_c, 0, 78, 0
2, 708840, Note_on_c, 0, 81, 70
2, 708840, Note_on_c, 0, 75, 79
2, 708960, Note_on_c, 0, 75, 0
2, 708960, Note_on_c, 0, 76, 91
2, 709079, Note_on_c, 0, 76, 0
2, 709079, Note_on_c, 0, 77, 91
2, 709200, Note_on_c, 0, 77, 0
2, 709200, Note_on_c, 0, 78, 91
2, 709380, Note_on_c, 0, 81, 0
2, 709380, Note_on_c, 0, 80, 56
2, 709429, Note_on_c, 0, 66, 0
2, 709429, Note_on_c, 0, 71, 0
2, 709560, Note_on_c, 0, 78, 0
2, 709560, Note_on_c, 0, 80, 0
2, 709560, Note_on_c, 0, 83, 73
2, 709560, Note_on_c, 0, 76, 86
2, 709560, Note_on_c, 0, 64, 50
2, 709560, Note_on_c, 0, 68, 50
2, 709680, Note_on_c, 0, 76, 0
2, 709680, Note_on_c, 0, 78, 91
2, 709739, Note_on_c, 0, 68, 0
2, 709739, Note_on_c, 0, 64, 0
2, 709799, Note_on_c, 0, 78, 0
2, 709799, Note_on_c, 0, 79, 91
2, 709920, Note_on_c, 0, 79, 0
2, 709920, Note_on_c, 0, 80, 91
2, 709920, Note_on_c, 0, 68, 55
2, 709920, Note_on_c, 0, 73, 55
2, 710099, Note_on_c, 0, 73, 0
2, 710099, Note_on_c, 0, 68, 0
2, 710100, Note_on_c, 0, 83, 0
2, 710100, Note_on_c, 0, 81, 55
2, 710280, Note_on_c, 0, 81, 0
2, 710280, Note_on_c, 0, 80, 0
2, 710280, Note_on_c, 0, 85, 73
2, 710280, Note_on_c, 0, 78, 84
2, 710280, Note_on_c, 0, 66, 45
2, 710280, Note_on_c, 0, 69, 45
2, 710400, Note_on_c, 0, 78, 0
2, 710400, Note_on_c, 0, 79, 91
2, 710459, Note_on_c, 0, 69, 0
2, 710459, Note_on_c, 0, 66, 0
2, 710519, Note_on_c, 0, 79, 0
2, 710519, Note_on_c, 0, 80, 91
2, 710640, Note_on_c, 0, 80, 0
2, 710640, Note_on_c, 0, 81, 91
2, 710640, Note_on_c, 0, 69, 76
2, 710640, Note_on_c, 0, 75, 76
2, 710820, Note_on_c, 0, 85, 0
2, 710820, Note_on_c, 0, 83, 55
2, 710957, Note_on_c, 0, 75, 0
2, 710957, Note_on_c, 0, 69, 0
2, 711000, Note_on_c, 0, 81, 0
2, 711000, Note_on_c, 0, 83, 0
2, 711000, Note_on_c, 0, 87, 73
2, 711000, Note_on_c, 0, 69, 55
2, 711000, Note_on_c, 0, 75, 55
2, 711120, Note_on_c, 0, 75, 0
2, 711120, Note_on_c, 0, 69, 0
2, 711120, Note_on_c, 0, 71, 40
2, 711239, Note_on_c, 0, 71, 0
2, 711239, Note_on_c, 0, 73, 50
2, 711360, Note_on_c, 0, 73, 0
2, 711360, Note_on_c, 0, 75, 56
2, 711540, Note_on_c, 0, 87, 0
2, 711540, Note_on_c, 0, 85, 60
2, 711720, Note_on_c, 0, 85, 0
2, 711720, Note_on_c, 0, 75, 0
2, 711720, Note_on_c, 0, 88, 74
2, 711720, Note_on_c, 0, 83, 78
2, 711720, Note_on_c, 0, 76, 57
2, 711720, Note_on_c, 0, 71, 75
2, 711840, Note_on_c, 0, 71, 0
2, 711840, Note_on_c, 0, 83, 0
2, 711840, Note_on_c, 0, 85, 91
2, 711840, Note_on_c, 0, 73, 91
2, 711959, Note_on_c, 0, 73, 0
2, 711959, Note_on_c, 0, 85, 0
2, 711959, Note_on_c, 0, 87, 91
2, 711959, Note_on_c, 0, 75, 91
2, 712080, Note_on_c, 0, 75, 0
2, 712080, Note_on_c, 0, 88, 0
2, 712080, Note_on_c, 0, 76, 0
2, 712080, Note_on_c, 0, 87, 0
2, 712080, Note_on_c, 0, 88, 63
2, 712080, Note_on_c, 0, 76, 61
2, 712080, Note_on_c, 0, 71, 74
2, 712260, Note_on_c, 0, 88, 0
2, 712260, Note_on_c, 0, 87, 55
2, 712440, Note_on_c, 0, 87, 0
2, 712440, Note_on_c, 0, 78, 70
2, 712440, Note_on_c, 0, 90, 70
2, 712980, Note_on_c, 0, 90, 0
2, 712980, Note_on_c, 0, 78, 0
2, 712980, Note_on_c, 0, 88, 53
2, 713160, Note_on_c, 0, 88, 0
2, 713160, Note_on_c, 0, 80, 76
2, 713160, Note_on_c, 0, 92, 76
2, 713520, Note_on_c, 0, 71, 0
2, 713520, Note_on_c, 0, 76, 0
2, 713520, Note_on_c, 0, 74, 66
2, 713520, Note_on_c, 0, 77, 66
2, 713700, Note_on_c, 0, 80, 0
2, 713700, Note_on_c, 0, 92, 0
2, 713700, Note_on_c, 0, 89, 53
2, 713837, Note_on_c, 0, 74, 0
2, 713837, Note_on_c, 0, 77, 0
2, 713880, Note_on_c, 0, 89, 0
2, 713880, Note_on_c, 0, 92, 65
2, 713880, Note_on_c, 0, 80, 78
2, 713880, Note_on_c, 0, 86, 78
2, 713880, Note_on_c, 0, 74, 46
2, 714000, Note_on_c, 0, 74, 0
2, 714000, Note_on_c, 0, 92, 0
2, 714000, Note_on_c, 0, 88, 52
2, 714000, Note_on_c, 0, 76, 57
2, 714119, Note_on_c, 0, 76, 0
2, 714119, Note_on_c, 0, 88, 0
2, 714119, Note_on_c, 0, 89, 66
2, 714119, Note_on_c, 0, 77, 58
2, 714240, Note_on_c, 0, 77, 0
2, 714240, Note_on_c, 0, 89, 0
2, 714240, Note_on_c, 0, 86, 0
2, 714240, Note_on_c, 0, 90, 67
2, 714240, Note_on_c, 0, 75, 53
2, 714240, Note_on_c, 0, 78, 53
2, 714360, Note_on_c, 0, 78, 0
2, 714360, Note_on_c, 0, 75, 0
2, 714360, Note_on_c, 0, 79, 57
2, 714420, Note_on_c, 0, 90, 0
2, 714420, Note_on_c, 0, 90, 62
2, 714479, Note_on_c, 0, 79, 0
2, 714479, Note_on_c, 0, 80, 56
2, 714600, Note_on_c, 0, 80, 0
2, 714600, Note_on_c, 0, 90, 0
2, 714600, Note_on_c, 0, 80, 0
2, 714600, Note_on_c, 0, 93, 67
2, 714600, Note_on_c, 0, 78, 56
2, 714600, Note_on_c, 0, 81, 56
2, 714720, Note_on_c, 0, 81, 0
2, 714720, Note_on_c, 0, 78, 0
2, 714720, Note_on_c, 0, 93, 0
2, 714720, Note_on_c, 0, 91, 56
2, 714720, Note_on_c, 0, 83, 53
2, 714839, Note_on_c, 0, 83, 0
2, 714839, Note_on_c, 0, 91, 0
2, 714839, Note_on_c, 0, 84, 70
2, 714839, Note_on_c, 0, 92, 70
2, 714960, Note_on_c, 0, 92, 0
2, 714960, Note_on_c, 0, 84, 0
2, 714960, Note_on_c, 0, 85, 67
2, 714960, Note_on_c, 0, 93, 67
2, 714960, Note_on_c, 0, 78, 37
2, 714960, Note_on_c, 0, 81, 37
2, 715078, Note_on_c, 0, 81, 0
2, 715078, Note_on_c, 0, 78, 0
2, 715199, Note_on_c, 0, 93, 0
2, 715199, Note_on_c, 0, 85, 0
2, 715199, Note_on_c, 0, 92, 59
2, 715320, Note_on_c, 0, 92, 0
2, 715320, Note_on_c, 0, 90, 57
2, 715320, Note_on_c, 0, 83, 91
2, 715320, Note_on_c, 0, 75, 47
2, 715320, Note_on_c, 0, 71, 91
2, 715440, Note_on_c, 0, 75, 0
2, 715440, Note_on_c, 0, 76, 54
2, 715559, Note_on_c, 0, 76, 0
2, 715559, Note_on_c, 0, 90, 0
2, 715559, Note_on_c, 0, 92, 65
2, 715559, Note_on_c, 0, 77, 54
2, 715680, Note_on_c, 0, 77, 0
2, 715680, Note_on_c, 0, 92, 0
2, 715680, Note_on_c, 0, 71, 0
2, 715680, Note_on_c, 0, 90, 58
2, 715680, Note_on_c, 0, 75, 55
2, 715680, Note_on_c, 0, 78, 55
2, 715800, Note_on_c, 0, 78, 0
2, 715800, Note_on_c, 0, 75, 0
2, 715800, Note_on_c, 0, 79, 54
2, 715860, Note_on_c, 0, 90, 0
2, 715860, Note_on_c, 0, 90, 59
2, 715919, Note_on_c, 0, 79, 0
2, 715919, Note_on_c, 0, 80, 53
2, 716040, Note_on_c, 0, 80, 0
2, 716040, Note_on_c, 0, 90, 0
2, 716040, Note_on_c, 0, 83, 0
2, 716040, Note_on_c, 0, 93, 71
2, 716040, Note_on_c, 0, 78, 56
2, 716040, Note_on_c, 0, 81, 56
2, 716160, Note_on_c, 0, 81, 0
2, 716160, Note_on_c, 0, 78, 0
2, 716160, Note_on_c, 0, 93, 0
2, 716160, Note_on_c, 0, 91, 57
2, 716160, Note_on_c, 0, 83, 60
2, 716279, Note_on_c, 0, 83, 0
2, 716279, Note_on_c, 0, 91, 0
2, 716279, Note_on_c, 0, 84, 64
2, 716279, Note_on_c, 0, 92, 64
2, 716400, Note_on_c, 0, 92, 0
2, 716400, Note_on_c, 0, 84, 0
2, 716400, Note_on_c, 0, 85, 68
2, 716400, Note_on_c, 0, 93, 68
2, 716400, Note_on_c, 0, 78, 40
2, 716400, Note_on_c, 0, 81, 40
2, 716518, Note_on_c, 0, 81, 0
2, 716518, Note_on_c, 0, 78, 0
2, 716639, Note_on_c, 0, 93, 0
2, 716639, Note_on_c, 0, 85, 0
2, 716639, Note_on_c, 0, 92, 61
2, 716760, Note_on_c, 0, 92, 0
2, 716760, Note_on_c, 0, 90, 53
2, 716760, Note_on_c, 0, 83, 91
2, 716760, Note_on_c, 0, 75, 40
2, 716760, Note_on_c, 0, 71, 91
2, 716880, Note_on_c, 0, 75, 0
2, 716880, Note_on_c, 0, 76, 53
2, 716999, Note_on_c, 0, 76, 0
2, 716999, Note_on_c, 0, 90, 0
2, 716999, Note_on_c, 0, 92, 70
2, 716999, Note_on_c, 0, 77, 54
2, 717120, Note_on_c, 0, 77, 0
2, 717120, Note_on_c, 0, 92, 0
2, 717120, Note_on_c, 0, 71, 0
2, 717120, Note_on_c, 0, 90, 54
2, 717120, Note_on_c, 0, 69, 56
2, 717120, Note_on_c, 0, 75, 56
2, 717120, Note_on_c, 0, 78, 56
2, 717240, Note_on_c, 0, 90, 0
2, 717240, Note_on_c, 0, 91, 68
2, 717359, Note_on_c, 0, 91, 0
2, 717359, Note_on_c, 0, 92, 67
2, 717480, Note_on_c, 0, 92, 0
2, 717480, Note_on_c, 0, 75, 0
2, 717480, Note_on_c, 0, 83, 0
2, 717480, Note_on_c, 0, 69, 0
2, 717480, Note_on_c, 0, 78, 0
2, 717480, Note_on_c, 0, 93, 68
2, 717480, Note_on_c, 0, 83, 90
2, 717480, Note_on_c, 0, 75, 45
2, 717480, Note_on_c, 0, 69, 91
2, 717480, Note_on_c, 0, 71, 91
2, 717600, Note_on_c, 0, 75, 0
2, 717600, Note_on_c, 0, 75, 52
2, 717719, Note_on_c, 0, 75, 0
2, 717719, Note_on_c, 0, 93, 0
2, 717719, Note_on_c, 0, 88, 53
2, 717719, Note_on_c, 0, 76, 48
2, 717840, Note_on_c, 0, 76, 0
2, 717840, Note_on_c, 0, 83, 0
2, 717840, Note_on_c, 0, 88, 0
2, 717840, Note_on_c, 0, 90, 68
2, 717840, Note_on_c, 0, 83, 91
2, 717840, Note_on_c, 0, 75, 49
2, 717960, Note_on_c, 0, 90, 0
2, 717960, Note_on_c, 0, 91, 69
2, 718079, Note_on_c, 0, 91, 0
2, 718079, Note_on_c, 0, 92, 68
2, 718200, Note_on_c, 0, 92, 0
2, 718200, Note_on_c, 0, 83, 0
2, 718200, Note_on_c, 0, 69, 0
2, 718200, Note_on_c, 0, 71, 0
2, 718200, Note_on_c, 0, 75, 0
2, 718200, Note_on_c, 0, 93, 69
2, 718200, Note_on_c, 0, 83, 91
2, 718200, Note_on_c, 0, 75, 50
2, 718200, Note_on_c, 0, 69, 91
2, 718200, Note_on_c, 0, 71, 91
2, 718320, Note_on_c, 0, 75, 0
2, 718320, Note_on_c, 0, 93, 0
2, 718320, Note_on_c, 0, 87, 43
2, 718320, Note_on_c, 0, 75, 46
2, 718439, Note_on_c, 0, 75, 0
2, 718439, Note_on_c, 0, 87, 0
2, 718439, Note_on_c, 0, 88, 65
2, 718439, Note_on_c, 0, 73, 42
2, 718560, Note_on_c, 0, 73, 0
2, 718560, Note_on_c, 0, 83, 0
2, 718560, Note_on_c, 0, 88, 0
2, 718560, Note_on_c, 0, 90, 71
2, 718560, Note_on_c, 0, 83, 91
2, 718560, Note_on_c, 0, 75, 56
2, 718680, Note_on_c, 0, 90, 0
2, 718680, Note_on_c, 0, 91, 65
2, 718799, Note_on_c, 0, 91, 0
2, 718799, Note_on_c, 0, 92, 63
2, 718920, Note_on_c, 0, 92, 0
2, 718920, Note_on_c, 0, 83, 0
2, 718920, Note_on_c, 0, 69, 0
2, 718920, Note_on_c, 0, 71, 0
2, 718920, Note_on_c, 0, 75, 0
2, 718920, Note_on_c, 0, 93, 70
2, 718920, Note_on_c, 0, 83, 91
2, 718920, Note_on_c, 0, 69, 91
2, 718920, Note_on_c, 0, 71, 91
2, 719040, Note_on_c, 0, 83, 0
2, 719040, Note_on_c, 0, 83, 90
2, 719040, Note_on_c, 0, 73, 41
2, 719159, Note_on_c, 0, 73, 0
2, 719159, Note_on_c, 0, 83, 0
2, 719159, Note_on_c, 0, 83, 91
2, 719159, Note_on_c, 0, 74, 53
2, 719280, Note_on_c, 0, 74, 0
2, 719280, Note_on_c, 0, 83, 0
2, 719280, Note_on_c, 0, 83, 91
2, 719280, Note_on_c, 0, 75, 52
2, 719400, Note_on_c, 0, 83, 0
2, 719400, Note_on_c, 0, 81, 91
2, 719400, Note_on_c, 0, 85, 91
2, 719460, Note_on_c, 0, 93, 0
2, 719519, Note_on_c, 0, 81, 0
2, 719519, Note_on_c, 0, 75, 0
2, 719519, Note_on_c, 0, 85, 0
2, 719519, Note_on_c, 0, 83, 91
2, 719519, Note_on_c, 0, 87, 91
2, 719519, Note_on_c, 0, 75, 53
2, 719640, Note_on_c, 0, 75, 0
2, 719640, Note_on_c, 0, 83, 0
2, 719640, Note_on_c, 0, 69, 0
2, 719640, Note_on_c, 0, 71, 0
2, 719640, Note_on_c, 0, 87, 0
2, 719640, Note_on_c, 0, 85, 53
2, 719640, Note_on_c, 0, 88, 53
2, 719640, Note_on_c, 0, 76, 57
2, 719640, Note_on_c, 0, 69, 89
2, 719640, Note_on_c, 0, 71, 89
2, 719760, Note_on_c, 0, 76, 0
2, 719760, Note_on_c, 0, 85, 0
2, 719760, Note_on_c, 0, 88, 0
2, 719760, Note_on_c, 0, 87, 66
2, 719760, Note_on_c, 0, 90, 66
2, 719760, Note_on_c, 0, 75, 49
2, 719879, Note_on_c, 0, 75, 0
2, 719879, Note_on_c, 0, 87, 0
2, 719879, Note_on_c, 0, 90, 0
2, 719879, Note_on_c, 0, 88, 67
2, 719879, Note_on_c, 0, 92, 67
2, 719879, Note_on_c, 0, 76, 53
2, 720000, Note_on_c, 0, 76, 0
2, 720000, Note_on_c, 0, 88, 0
2, 720000, Note_on_c, 0, 71, 0
2, 720000, Note_on_c, 0, 69, 0
2, 720000, Note_on_c, 0, 92, 0
2, 720000, Note_on_c, 0, 83, 62
2, 720000, Note_on_c, 0, 90, 62
2, 720000, Note_on_c, 0, 93, 62
2, 720000, Note_on_c, 0, 69, 51
2, 720000, Note_on_c, 0, 71, 51
2, 720000, Note_on_c, 0, 75, 51
2, 720239, Note_on_c, 0, 75, 0
2, 720239, Note_on_c, 0, 90, 0
2, 720239, Note_on_c, 0, 93, 0
2, 720239, Note_on_c, 0, 83, 0
2, 720239, Note_on_c, 0, 71, 0
2, 720239, Note_on_c, 0, 69, 0
2, 720239, Note_on_c, 0, 82, 64
2, 720239, Note_on_c, 0, 70, 52
2, 720360, Note_on_c, 0, 70, 0
2, 720360, Note_on_c, 0, 82, 0
2, 720360, Note_on_c, 0, 83, 64
2, 720360, Note_on_c, 0, 71, 53
2, 720599, Note_on_c, 0, 71, 0
2, 720599, Note_on_c, 0, 83, 0
2, 720599, Note_on_c, 0, 78, 66
2, 720599, Note_on_c, 0, 66, 54
2, 720720, Note_on_c, 0, 66, 0
2, 720720, Note_on_c, 0, 78, 0
2, 720720, Note_on_c, 0, 80, 67
2, 720720, Note_on_c, 0, 68, 55
2, 720840, Note_on_c, 0, 68, 0
2, 720840, Note_on_c, 0, 80, 0
2, 720840, Note_on_c, 0, 81, 67
2, 720840, Note_on_c, 0, 69, 56
2, 720959, Note_on_c, 0, 69, 0
2, 720959, Note_on_c, 0, 81, 0
2, 720959, Note_on_c, 0, 83, 68
2, 720959, Note_on_c, 0, 71, 56
2, 721080, Note_on_c, 0, 71, 0
2, 721080, Note_on_c, 0, 83, 0
2, 721080, Note_on_c, 0, 85, 69
2, 721080, Note_on_c, 0, 73, 57
2, 721319, Note_on_c, 0, 73, 0
2, 721319, Note_on_c, 0, 85, 0
2, 721319, Note_on_c, 0, 80, 70
2, 721319, Note_on_c, 0, 68, 59
2, 721440, Note_on_c, 0, 68, 0
2, 721440, Note_on_c, 0, 80, 0
2, 721440, Note_on_c, 0, 81, 71
2, 721440, Note_on_c, 0, 69, 59
2, 721560, Note_on_c, 0, 69, 0
2, 721560, Note_on_c, 0, 81, 0
2, 721560, Note_on_c, 0, 83, 71
2, 721560, Note_on_c, 0, 71, 60
2, 721679, Note_on_c, 0, 71, 0
2, 721679, Note_on_c, 0, 83, 0
2, 721679, Note_on_c, 0, 85, 72
2, 721679, Note_on_c, 0, 73, 61
2, 721800, Note_on_c, 0, 73, 0
2, 721800, Note_on_c, 0, 85, 0
2, 721800, Note_on_c, 0, 87, 73
2, 721800, Note_on_c, 0, 75, 61
2, 722039, Note_on_c, 0, 75, 0
2, 722039, Note_on_c, 0, 87, 0
2, 722039, Note_on_c, 0, 81, 74
2, 722039, Note_on_c, 0, 69, 63
2, 722160, Note_on_c, 0, 69, 0
2, 722160, Note_on_c, 0, 81, 0
2, 722160, Note_on_c, 0, 83, 75
2, 722160, Note_on_c, 0, 71, 64
2, 722280, Note_on_c, 0, 71, 0
2, 722280, Note_on_c, 0, 83, 0
2, 722280, Note_on_c, 0, 85, 76
2, 722280, Note_on_c, 0, 73, 64
2, 722399, Note_on_c, 0, 73, 0
2, 722399, Note_on_c, 0, 85, 0
2, 722399, Note_on_c, 0, 87, 76
2, 722399, Note_on_c, 0, 75, 65
2, 722520, Note_on_c, 0, 75, 0
2, 722520, Note_on_c, 0, 87, 0
2, 722520, Note_on_c, 0, 88, 77
2, 722520, Note_on_c, 0, 76, 66
2, 722759, Note_on_c, 0, 76, 0
2, 722759, Note_on_c, 0, 88, 0
2, 722759, Note_on_c, 0, 83, 79
2, 722759, Note_on_c, 0, 71, 67
2, 722880, Note_on_c, 0, 71, 0
2, 722880, Note_on_c, 0, 83, 0
2, 722880, Note_on_c, 0, 85, 79
2, 722880, Note_on_c, 0, 73, 68
2, 723000, Note_on_c, 0, 73, 0
2, 723000, Note_on_c, 0, 85, 0
2, 723000, Note_on_c, 0, 86, 80
2, 723000, Note_on_c, 0, 74, 68
2, 723119, Note_on_c, 0, 74, 0
2, 723119, Note_on_c, 0, 86, 0
2, 723119, Note_on_c, 0, 88, 81
2, 723119, Note_on_c, 0, 76, 69
2, 723240, Note_on_c, 0, 76, 0
2, 723240, Note_on_c, 0, 88, 0
2, 723240, Note_on_c, 0, 90, 81
2, 723240, Note_on_c, 0, 78, 70
2, 723479, Note_on_c, 0, 78, 0
2, 723479, Note_on_c, 0, 90, 0
2, 723479, Note_on_c, 0, 85, 83
2, 723479, Note_on_c, 0, 73, 71
2, 723600, Note_on_c, 0, 73, 0
2, 723600, Note_on_c, 0, 85, 0
2, 723600, Note_on_c, 0, 86, 83
2, 723600, Note_on_c, 0, 74, 72
2, 723720, Note_on_c, 0, 74, 0
2, 723720, Note_on_c, 0, 86, 0
2, 723720, Note_on_c, 0, 88, 84
2, 723720, Note_on_c, 0, 76, 73
2, 723839, Note_on_c, 0, 76, 0
2, 723839, Note_on_c, 0, 88, 0
2, 723839, Note_on_c, 0, 90, 85
2, 723839, Note_on_c, 0, 78, 73
2, 723960, Note_on_c, 0, 78, 0
2, 723960, Note_on_c, 0, 90, 0
2, 723960, Note_on_c, 0, 92, 86
2, 723960, Note_on_c, 0, 80, 74
2, 723960, Note_on_c, 0, 71, 92
2, 724199, Note_on_c, 0, 80, 0
2, 724199, Note_on_c, 0, 92, 0
2, 724199, Note_on_c, 0, 87, 87
2, 724199, Note_on_c, 0, 75, 76
2, 724320, Note_on_c, 0, 75, 0
2, 724320, Note_on_c, 0, 87, 0
2, 724320, Note_on_c, 0, 89, 88
2, 724320, Note_on_c, 0, 77, 76
2, 724440, Note_on_c, 0, 77, 0
2, 724440, Note_on_c, 0, 89, 0
2, 724440, Note_on_c, 0, 90, 91
2, 724440, Note_on_c, 0, 78, 81
2, 724559, Note_on_c, 0, 78, 0
2, 724559, Note_on_c, 0, 90, 0
2, 724559, Note_on_c, 0, 92, 91
2, 724559, Note_on_c, 0, 80, 88
2, 724680, Note_on_c, 0, 80, 0
2, 724680, Note_on_c, 0, 92, 0
2, 724680, Note_on_c, 0, 71, 0
2, 724680, Note_on_c, 0, 93, 91
2, 724680, Note_on_c, 0, 81, 83
2, 724680, Note_on_c, 0, 73, 91
2, 725040, Note_on_c, 0, 81, 0
2, 725040, Note_on_c, 0, 93, 0
2, 725040, Note_on_c, 0, 82, 92
2, 725040, Note_on_c, 0, 94, 92
2, 725400, Note_on_c, 0, 94, 0
2, 725400, Note_on_c, 0, 82, 0
2, 725400, Note_on_c, 0, 73, 0
2, 725400, Note_on_c, 0, 83, 91
2, 725400, Note_on_c, 0, 95, 91
2, 725400, Note_on_c, 0, 69, 91
2, 725400, Note_on_c, 0, 75, 91
2, 725760, Note_on_c, 0, 75, 0
2, 725760, Note_on_c, 0, 83, 0
2, 725760, Note_on_c, 0, 95, 0
2, 725760, Note_on_c, 0, 69, 0
2, 725760, Note_on_c, 0, 68, 63
2, 725760, Note_on_c, 0, 76, 63
2, 725940, Note_on_c, 0, 76, 0
2, 725940, Note_on_c, 0, 68, 0
2, 726120, Note_on_c, 0, 92, 77
2, 726120, Note_on_c, 0, 80, 62
2, 726480, Note_on_c, 0, 80, 0
2, 726480, Note_on_c, 0, 92, 0
2, 726480, Note_on_c, 0, 87, 72
2, 726480, Note_on_c, 0, 75, 62
2, 726840, Note_on_c, 0, 75, 0
2, 726840, Note_on_c, 0, 87, 0
2, 726840, Note_on_c, 0, 85, 74
2, 726840, Note_on_c, 0, 73, 68
2, 727560, Note_on_c, 0, 73, 0
2, 727560, Note_on_c, 0, 85, 0
2, 727560, Note_on_c, 0, 88, 91
2, 727560, Note_on_c, 0, 76, 87
2, 727920, Note_on_c, 0, 76, 0
2, 727920, Note_on_c, 0, 88, 0
2, 727920, Note_on_c, 0, 83, 74
2, 727920, Note_on_c, 0, 71, 65
2, 729000, Note_on_c, 0, 71, 0
2, 729000, Note_on_c, 0, 83, 0
2, 729000, Note_on_c, 0, 85, 91
2, 729000, Note_on_c, 0, 73, 83
2, 729360, Note_on_c, 0, 73, 0
2, 729360, Note_on_c, 0, 85, 0
2, 729360, Note_on_c, 0, 78, 66
2, 729360, Note_on_c, 0, 66, 55
2, 729720, Note_on_c, 0, 66, 0
2, 729720, Note_on_c, 0, 78, 0
2, 729720, Note_on_c, 0, 83, 91
2, 729720, Note_on_c, 0, 71, 91
2, 730080, Note_on_c, 0, 71, 0
2, 730080, Note_on_c, 0, 83, 0
2, 730080, Note_on_c, 0, 76, 68
2, 730800, Note_on_c, 0, 76, 0
2, 730800, Note_on_c, 0, 80, 91
2, 730800, Note_on_c, 0, 68, 67
2, 731160, Note_on_c, 0, 68, 0
2, 731160, Note_on_c, 0, 80, 0
2, 731160, Note_on_c, 0, 83, 91
2, 731160, Note_on_c, 0, 71, 82
2, 731520, Note_on_c, 0, 71, 0
2, 731520, Note_on_c, 0, 83, 0
2, 731520, Note_on_c, 0, 84, 91
2, 731520, Note_on_c, 0, 72, 83
2, 731880, Note_on_c, 0, 72, 0
2, 731880, Note_on_c, 0, 84, 0
2, 731880, Note_on_c, 0, 88, 91
2, 731880, Note_on_c, 0, 76, 90
2, 732600, Note_on_c, 0, 76, 0
2, 732600, Note_on_c, 0, 88, 0
2, 732600, Note_on_c, 0, 79, 92
2, 732600, Note_on_c, 0, 91, 92
2, 732917, Note_on_c, 0, 91, 0
2, 732917, Note_on_c, 0, 79, 0
2, 732960, Note_on_c, 0, 83, 91
2, 732960, Note_on_c, 0, 95, 91
2, 732960, Note_on_c, 0, 68, 62
2, 733199, Note_on_c, 0, 68, 0
2, 733199, Note_on_c, 0, 66, 69
2, 733320, Note_on_c, 0, 66, 0
2, 733320, Note_on_c, 0, 68, 81
2, 733440, Note_on_c, 0, 68, 0
2, 733440, Note_on_c, 0, 69, 83
2, 733559, Note_on_c, 0, 69, 0
2, 733559, Note_on_c, 0, 70, 88
2, 733680, Note_on_c, 0, 70, 0
2, 733680, Note_on_c, 0, 95, 0
2, 733680, Note_on_c, 0, 83, 0
2, 733680, Note_on_c, 0, 85, 91
2, 733680, Note_on_c, 0, 97, 91
2, 733680, Note_on_c, 0, 71, 86
2, 733680, Note_on_c, 0, 68, 72
2, 733919, Note_on_c, 0, 71, 0
2, 733919, Note_on_c, 0, 71, 80
2, 734040, Note_on_c, 0, 71, 0
2, 734040, Note_on_c, 0, 73, 79
2, 734160, Note_on_c, 0, 73, 0
2, 734160, Note_on_c, 0, 71, 69
2, 734279, Note_on_c, 0, 71, 0
2, 734279, Note_on_c, 0, 73, 81
2, 734400, Note_on_c, 0, 73, 0
2, 734400, Note_on_c, 0, 68, 0
2, 734400, Note_on_c, 0, 71, 76
2, 734400, Note_on_c, 0, 68, 90
2, 734639, Note_on_c, 0, 71, 0
2, 734639, Note_on_c, 0, 71, 76
2, 734760, Note_on_c, 0, 71, 0
2, 734760, Note_on_c, 0, 68, 0
2, 734760, Note_on_c, 0, 97, 0
2, 734760, Note_on_c, 0, 85, 0
2, 734760, Note_on_c, 0, 83, 92
2, 734760, Note_on_c, 0, 95, 92
2, 734760, Note_on_c, 0, 73, 82
2, 734760, Note_on_c, 0, 68, 91
2, 734880, Note_on_c, 0, 73, 0
2, 734880, Note_on_c, 0, 71, 73
2, 734999, Note_on_c, 0, 71, 0
2, 734999, Note_on_c, 0, 73, 85
2, 735077, Note_on_c, 0, 83, 0
2, 735077, Note_on_c, 0, 95, 0
2, 735120, Note_on_c, 0, 68, 0
2, 735120, Note_on_c, 0, 73, 0
2, 735120, Note_on_c, 0, 81, 78
2, 735120, Note_on_c, 0, 93, 78
2, 735120, Note_on_c, 0, 69, 65
2, 735120, Note_on_c, 0, 66, 83
2, 735359, Note_on_c, 0, 69, 0
2, 735359, Note_on_c, 0, 69, 75
2, 735480, Note_on_c, 0, 69, 0
2, 735480, Note_on_c, 0, 66, 0
2, 735480, Note_on_c, 0, 93, 0
2, 735480, Note_on_c, 0, 81, 0
2, 735480, Note_on_c, 0, 78, 76
2, 735480, Note_on_c, 0, 90, 76
2, 735480, Note_on_c, 0, 66, 78
2, 735480, Note_on_c, 0, 71, 78
2, 735600, Note_on_c, 0, 71, 0
2, 735600, Note_on_c, 0, 66, 0
2, 735600, Note_on_c, 0, 69, 70
2, 735719, Note_on_c, 0, 69, 0
2, 735719, Note_on_c, 0, 71, 85
2, 735840, Note_on_c, 0, 71, 0
2, 735840, Note_on_c, 0, 90, 0
2, 735840, Note_on_c, 0, 78, 0
2, 735840, Note_on_c, 0, 68, 63
2, 735960, Note_on_c, 0, 68, 0
2, 736200, Note_on_c, 0, 92, 79
2, 736200, Note_on_c, 0, 80, 67
2, 736560, Note_on_c, 0, 80, 0
2, 736560, Note_on_c, 0, 92, 0
2, 736560, Note_on_c, 0, 87, 71
2, 736560, Note_on_c, 0, 75, 61
2, 736920, Note_on_c, 0, 75, 0
2, 736920, Note_on_c, 0, 87, 0
2, 736920, Note_on_c, 0, 85, 80
2, 736920, Note_on_c, 0, 73, 64
2, 737640, Note_on_c, 0, 73, 0
2, 737640, Note_on_c, 0, 85, 0
2, 737640, Note_on_c, 0, 88, 91
2, 737640, Note_on_c, 0, 76, 88
2, 738000, Note_on_c, 0, 76, 0
2, 738000, Note_on_c, 0, 88, 0
2, 738000, Note_on_c, 0, 83, 73
2, 738000, Note_on_c, 0, 71, 67
2, 739080, Note_on_c, 0, 71, 0
2, 739080, Note_on_c, 0, 83, 0
2, 739080, Note_on_c, 0, 85, 91
2, 739080, Note_on_c, 0, 73, 78
2, 739440, Note_on_c, 0, 73, 0
2, 739440, Note_on_c, 0, 85, 0
2, 739440, Note_on_c, 0, 78, 64
2, 739440, Note_on_c, 0, 66, 61
2, 739800, Note_on_c, 0, 66, 0
2, 739800, Note_on_c, 0, 78, 0
2, 739800, Note_on_c, 0, 83, 91
2, 739800, Note_on_c, 0, 71, 91
2, 740160, Note_on_c, 0, 71, 0
2, 740160, Note_on_c, 0, 83, 0
2, 740160, Note_on_c, 0, 76, 72
2, 740880, Note_on_c, 0, 76, 0
2, 740880, Note_on_c, 0, 80, 91
2, 740880, Note_on_c, 0, 68, 64
2, 741240, Note_on_c, 0, 68, 0
2, 741240, Note_on_c, 0, 80, 0
2, 741240, Note_on_c, 0, 83, 91
2, 741240, Note_on_c, 0, 71, 81
2, 741600, Note_on_c, 0, 71, 0
2, 741600, Note_on_c, 0, 83, 0
2, 741600, Note_on_c, 0, 84, 91
2, 741600, Note_on_c, 0, 72, 84
2, 741960, Note_on_c, 0, 72, 0
2, 741960, Note_on_c, 0, 84, 0
2, 741960, Note_on_c, 0, 88, 91
2, 741960, Note_on_c, 0, 76, 91
2, 742680, Note_on_c, 0, 76, 0
2, 742680, Note_on_c, 0, 88, 0
2, 742680, Note_on_c, 0, 79, 92
2, 742680, Note_on_c, 0, 91, 92
2, 742997, Note_on_c, 0, 91, 0
2, 742997, Note_on_c, 0, 79, 0
2, 743040, Note_on_c, 0, 83, 91
2, 743040, Note_on_c, 0, 95, 91
2, 743040, Note_on_c, 0, 67, 63
2, 743279, Note_on_c, 0, 67, 0
2, 743279, Note_on_c, 0, 66, 68
2, 743400, Note_on_c, 0, 66, 0
2, 743400, Note_on_c, 0, 67, 78
2, 743520, Note_on_c, 0, 67, 0
2, 743520, Note_on_c, 0, 69, 83
2, 743639, Note_on_c, 0, 69, 0
2, 743639, Note_on_c, 0, 70, 81
2, 743760, Note_on_c, 0, 70, 0
2, 743760, Note_on_c, 0, 95, 0
2, 743760, Note_on_c, 0, 83, 0
2, 743760, Note_on_c, 0, 85, 91
2, 743760, Note_on_c, 0, 97, 91
2, 743760, Note_on_c, 0, 71, 79
2, 743760, Note_on_c, 0, 67, 89
2, 743999, Note_on_c, 0, 71, 0
2, 743999, Note_on_c, 0, 71, 79
2, 744120, Note_on_c, 0, 71, 0
2, 744120, Note_on_c, 0, 73, 85
2, 744240, Note_on_c, 0, 73, 0
2, 744240, Note_on_c, 0, 71, 71
2, 744359, Note_on_c, 0, 71, 0
2, 744359, Note_on_c, 0, 73, 81
2, 744480, Note_on_c, 0, 73, 0
2, 744480, Note_on_c, 0, 67, 0
2, 744480, Note_on_c, 0, 71, 68
2, 744480, Note_on_c, 0, 68, 91
2, 744719, Note_on_c, 0, 71, 0
2, 744719, Note_on_c, 0, 71, 74
2, 744840, Note_on_c, 0, 71, 0
2, 744840, Note_on_c, 0, 68, 0
2, 744840, Note_on_c, 0, 97, 0
2, 744840, Note_on_c, 0, 85, 0
2, 744840, Note_on_c, 0, 83, 92
2, 744840, Note_on_c, 0, 95, 92
2, 744840, Note_on_c, 0, 73, 81
2, 744840, Note_on_c, 0, 68, 89
2, 744960, Note_on_c, 0, 73, 0
2, 744960, Note_on_c, 0, 71, 73
2, 745079, Note_on_c, 0, 71, 0
2, 745079, Note_on_c, 0, 73, 84
2, 745157, Note_on_c, 0, 83, 0
2, 745157, Note_on_c, 0, 95, 0
2, 745200, Note_on_c, 0, 68, 0
2, 745200, Note_on_c, 0, 73, 0
2, 745200, Note_on_c, 0, 80, 73
2, 745200, Note_on_c, 0, 92, 73
2, 745200, Note_on_c, 0, 71, 71
2, 745200, Note_on_c, 0, 68, 87
2, 745439, Note_on_c, 0, 71, 0
2, 745439, Note_on_c, 0, 75, 89
2, 745560, Note_on_c, 0, 75, 0
2, 745560, Note_on_c, 0, 68, 0
2, 745560, Note_on_c, 0, 92, 0
2, 745560, Note_on_c, 0, 80, 0
2, 745560, Note_on_c, 0, 76, 73
2, 745560, Note_on_c, 0, 88, 73
2, 745560, Note_on_c, 0, 68, 70
2, 745560, Note_on_c, 0, 71, 70
2, 745680, Note_on_c, 0, 88, 0
2, 745680, Note_on_c, 0, 76, 0
2, 745680, Note_on_c, 0, 78, 57
2, 745799, Note_on_c, 0, 78, 0
2, 745799, Note_on_c, 0, 80, 89
2, 745920, Note_on_c, 0, 80, 0
2, 745920, Note_on_c, 0, 68, 0
2, 745920, Note_on_c, 0, 71, 0
2, 745920, Note_on_c, 0, 81, 91
2, 745920, Note_on_c, 0, 69, 87
2, 745920, Note_on_c, 0, 71, 87
2, 745920, Note_on_c, 0, 75, 87
2, 745979, Note_on_c, 0, 75, 0
2, 745979, Note_on_c, 0, 81, 0
2, 745979, Note_on_c, 0, 69, 0
2, 745979, Note_on_c, 0, 71, 0
2, 746280, Note_on_c, 0, 83, 77
2, 746280, Note_on_c, 0, 71, 63
2, 746640, Note_on_c, 0, 71, 0
2, 746640, Note_on_c, 0, 83, 0
2, 746640, Note_on_c, 0, 87, 91
2, 746640, Note_on_c, 0, 75, 89
2, 747000, Note_on_c, 0, 75, 0
2, 747000, Note_on_c, 0, 87, 0
2, 747000, Note_on_c, 0, 90, 91
2, 747000, Note_on_c, 0, 78, 91
2, 747360, Note_on_c, 0, 78, 0
2, 747360, Note_on_c, 0, 90, 0
2, 747360, Note_on_c, 0, 93, 92
2, 747360, Note_on_c, 0, 81, 92
2, 747677, Note_on_c, 0, 81, 0
2, 747677, Note_on_c, 0, 93, 0
2, 747720, Note_on_c, 0, 92, 85
2, 747720, Note_on_c, 0, 80, 75
2, 748440, Note_on_c, 0, 80, 0
2, 748440, Note_on_c, 0, 92, 0
2, 748440, Note_on_c, 0, 88, 74
2, 748440, Note_on_c, 0, 76, 65
2, 748800, Note_on_c, 0, 76, 0
2, 748800, Note_on_c, 0, 88, 0
2, 748800, Note_on_c, 0, 92, 92
2, 748800, Note_on_c, 0, 80, 92
2, 749117, Note_on_c, 0, 80, 0
2, 749117, Note_on_c, 0, 92, 0
2, 749160, Note_on_c, 0, 90, 82
2, 749160, Note_on_c, 0, 78, 73
2, 749880, Note_on_c, 0, 78, 0
2, 749880, Note_on_c, 0, 90, 0
2, 749880, Note_on_c, 0, 87, 77
2, 749880, Note_on_c, 0, 75, 68
2, 750240, Note_on_c, 0, 75, 0
2, 750240, Note_on_c, 0, 87, 0
2, 750240, Note_on_c, 0, 90, 92
2, 750240, Note_on_c, 0, 78, 92
2, 750557, Note_on_c, 0, 78, 0
2, 750557, Note_on_c, 0, 90, 0
2, 750600, Note_on_c, 0, 88, 82
2, 750600, Note_on_c, 0, 76, 70
2, 751320, Note_on_c, 0, 76, 0
2, 751320, Note_on_c, 0, 88, 0
2, 751320, Note_on_c, 0, 85, 74
2, 751320, Note_on_c, 0, 73, 68
2, 751680, Note_on_c, 0, 73, 0
2, 751680, Note_on_c, 0, 85, 0
2, 751680, Note_on_c, 0, 87, 91
2, 751680, Note_on_c, 0, 75, 81
2, 752040, Note_on_c, 0, 75, 0
2, 752040, Note_on_c, 0, 87, 0
2, 752040, Note_on_c, 0, 83, 73
2, 752040, Note_on_c, 0, 71, 62
2, 752400, Note_on_c, 0, 71, 0
2, 752400, Note_on_c, 0, 83, 0
2, 752400, Note_on_c, 0, 87, 91
2, 752400, Note_on_c, 0, 75, 89
2, 752760, Note_on_c, 0, 75, 0
2, 752760, Note_on_c, 0, 87, 0
2, 752760, Note_on_c, 0, 90, 91
2, 752760, Note_on_c, 0, 78, 84
2, 753120, Note_on_c, 0, 78, 0
2, 753120, Note_on_c, 0, 90, 0
2, 753120, Note_on_c, 0, 92, 92
2, 753120, Note_on_c, 0, 80, 92
2, 753437, Note_on_c, 0, 80, 0
2, 753437, Note_on_c, 0, 92, 0
2, 753480, Note_on_c, 0, 93, 91
2, 753480, Note_on_c, 0, 81, 82
2, 754200, Note_on_c, 0, 81, 0
2, 754200, Note_on_c, 0, 93, 0
2, 754200, Note_on_c, 0, 88, 69
2, 754200, Note_on_c, 0, 76, 57
2, 754560, Note_on_c, 0, 76, 0
2, 754560, Note_on_c, 0, 88, 0
2, 754560, Note_on_c, 0, 90, 92
2, 754560, Note_on_c, 0, 78, 92
2, 754877, Note_on_c, 0, 78, 0
2, 754877, Note_on_c, 0, 90, 0
2, 754920, Note_on_c, 0, 92, 91
2, 754920, Note_on_c, 0, 80, 82
2, 755640, Note_on_c, 0, 80, 0
2, 755640, Note_on_c, 0, 92, 0
2, 755640, Note_on_c, 0, 87, 69
2, 755640, Note_on_c, 0, 75, 61
2, 756000, Note_on_c, 0, 75, 0
2, 756000, Note_on_c, 0, 87, 0
2, 756000, Note_on_c, 0, 88, 89
2, 756000, Note_on_c, 0, 76, 81
2, 756360, Note_on_c, 0, 76, 0
2, 756360, Note_on_c, 0, 88, 0
2, 756360, Note_on_c, 0, 90, 91
2, 756360, Note_on_c, 0, 78, 83
2, 756720, Note_on_c, 0, 78, 0
2, 756720, Note_on_c, 0, 90, 0
2, 756720, Note_on_c, 0, 85, 74
2, 756720, Note_on_c, 0, 73, 65
2, 757080, Note_on_c, 0, 73, 0
2, 757080, Note_on_c, 0, 85, 0
2, 757080, Note_on_c, 0, 88, 91
2, 757080, Note_on_c, 0, 76, 82
2, 757440, Note_on_c, 0, 76, 0
2, 757440, Note_on_c, 0, 88, 0
2, 757440, Note_on_c, 0, 87, 87
2, 757440, Note_on_c, 0, 75, 76
2, 757800, Note_on_c, 0, 75, 0
2, 757800, Note_on_c, 0, 87, 0
2, 757800, Note_on_c, 0, 83, 72
2, 757800, Note_on_c, 0, 71, 65
2, 758160, Note_on_c, 0, 71, 0
2, 758160, Note_on_c, 0, 83, 0
2, 758160, Note_on_c, 0, 87, 91
2, 758160, Note_on_c, 0, 75, 87
2, 758520, Note_on_c, 0, 75, 0
2, 758520, Note_on_c, 0, 87, 0
2, 758520, Note_on_c, 0, 90, 91
2, 758520, Note_on_c, 0, 78, 89
2, 758880, Note_on_c, 0, 78, 0
2, 758880, Note_on_c, 0, 90, 0
2, 758880, Note_on_c, 0, 81, 91
2, 758880, Note_on_c, 0, 93, 91
2, 759119, Note_on_c, 0, 66, 20
2, 759119, Note_on_c, 0, 69, 20
2, 759119, Note_on_c, 0, 71, 20
2, 759360, Note_on_c, 0, 71, 0
2, 759360, Note_on_c, 0, 66, 0
2, 759360, Note_on_c, 0, 69, 0
2, 759360, Note_on_c, 0, 66, 22
2, 759360, Note_on_c, 0, 69, 22
2, 759360, Note_on_c, 0, 71, 22
2, 759600, Note_on_c, 0, 71, 0
2, 759600, Note_on_c, 0, 66, 0
2, 759600, Note_on_c, 0, 69, 0
2, 759600, Note_on_c, 0, 66, 35
2, 759600, Note_on_c, 0, 69, 35
2, 759600, Note_on_c, 0, 71, 35
2, 759839, Note_on_c, 0, 71, 0
2, 759839, Note_on_c, 0, 66, 0
2, 759839, Note_on_c, 0, 69, 0
2, 759839, Note_on_c, 0, 66, 25
2, 759839, Note_on_c, 0, 69, 25
2, 759839, Note_on_c, 0, 71, 25
2, 760080, Note_on_c, 0, 71, 0
2, 760080, Note_on_c, 0, 66, 0
2, 760080, Note_on_c, 0, 69, 0
2, 760080, Note_on_c, 0, 66, 30
2, 760080, Note_on_c, 0, 69, 30
2, 760080, Note_on_c, 0, 71, 30
2, 760320, Note_on_c, 0, 71, 0
2, 760320, Note_on_c, 0, 66, 0
2, 760320, Note_on_c, 0, 69, 0
2, 760680, Note_on_c, 0, 93, 0
2, 760680, Note_on_c, 0, 81, 0
2, 760680, Note_on_c, 0, 81, 58
2, 760680, Note_on_c, 0, 69, 38
2, 761040, Note_on_c, 0, 69, 0
2, 761040, Note_on_c, 0, 81, 0
2, 761040, Note_on_c, 0, 85, 91
2, 761040, Note_on_c, 0, 73, 53
2, 761400, Note_on_c, 0, 73, 0
2, 761400, Note_on_c, 0, 85, 0
2, 761400, Note_on_c, 0, 88, 91
2, 761400, Note_on_c, 0, 76, 56
2, 761760, Note_on_c, 0, 76, 0
2, 761760, Note_on_c, 0, 88, 0
2, 761760, Note_on_c, 0, 81, 91
2, 761760, Note_on_c, 0, 93, 91
2, 761999, Note_on_c, 0, 64, 20
2, 761999, Note_on_c, 0, 69, 20
2, 761999, Note_on_c, 0, 71, 20
2, 762240, Note_on_c, 0, 71, 0
2, 762240, Note_on_c, 0, 64, 0
2, 762240, Note_on_c, 0, 69, 0
2, 762240, Note_on_c, 0, 64, 21
2, 762240, Note_on_c, 0, 69, 21
2, 762240, Note_on_c, 0, 71, 21
2, 762480, Note_on_c, 0, 71, 0
2, 762480, Note_on_c, 0, 64, 0
2, 762480, Note_on_c, 0, 69, 0
2, 762480, Note_on_c, 0, 64, 23
2, 762480, Note_on_c, 0, 69, 23
2, 762480, Note_on_c, 0, 71, 23
2, 762719, Note_on_c, 0, 71, 0
2, 762719, Note_on_c, 0, 64, 0
2, 762719, Note_on_c, 0, 69, 0
2, 762719, Note_on_c, 0, 64, 24
2, 762719, Note_on_c, 0, 69, 24
2, 762719, Note_on_c, 0, 71, 24
2, 762960, Note_on_c, 0, 71, 0
2, 762960, Note_on_c, 0, 64, 0
2, 762960, Note_on_c, 0, 69, 0
2, 762960, Note_on_c, 0, 64, 27
2, 762960, Note_on_c, 0, 69, 27
2, 762960, Note_on_c, 0, 71, 27
2, 763200, Note_on_c, 0, 71, 0
2, 763200, Note_on_c, 0, 64, 0
2, 763200, Note_on_c, 0, 69, 0
2, 763560, Note_on_c, 0, 93, 0
2, 763560, Note_on_c, 0, 81, 0
2, 763560, Note_on_c, 0, 83, 61
2, 763560, Note_on_c, 0, 71, 41
2, 763920, Note_on_c, 0, 71, 0
2, 763920, Note_on_c, 0, 83, 0
2, 763920, Note_on_c, 0, 87, 91
2, 763920, Note_on_c, 0, 75, 56
2, 764280, Note_on_c, 0, 75, 0
2, 764280, Note_on_c, 0, 87, 0
2, 764280, Note_on_c, 0, 90, 91
2, 764280, Note_on_c, 0, 78, 60
2, 764640, Note_on_c, 0, 78, 0
2, 764640, Note_on_c, 0, 90, 0
2, 764640, Note_on_c, 0, 83, 91
2, 764640, Note_on_c, 0, 95, 91
2, 765000, Note_on_c, 0, 59, 42
2, 765360, Note_on_c, 0, 59, 0
2, 765360, Note_on_c, 0, 63, 53
2, 765720, Note_on_c, 0, 63, 0
2, 765720, Note_on_c, 0, 66, 57
2, 766080, Note_on_c, 0, 66, 0
2, 766080, Note_on_c, 0, 71, 56
2, 766440, Note_on_c, 0, 95, 0
2, 766440, Note_on_c, 0, 83, 0
2, 766440, Note_on_c, 0, 83, 59
2, 766440, Note_on_c, 0, 71, 44
2, 766800, Note_on_c, 0, 83, 0
2, 766800, Note_on_c, 0, 71, 0
2, 766800, Note_on_c, 0, 87, 91
2, 766800, Note_on_c, 0, 75, 59
2, 767160, Note_on_c, 0, 75, 0
2, 767160, Note_on_c, 0, 87, 0
2, 767160, Note_on_c, 0, 92, 91
2, 767160, Note_on_c, 0, 80, 55
2, 767520, Note_on_c, 0, 80, 0
2, 767520, Note_on_c, 0, 92, 0
2, 767520, Note_on_c, 0, 71, 0
2, 767520, Note_on_c, 0, 83, 91
2, 767520, Note_on_c, 0, 95, 91
2, 767520, Note_on_c, 0, 71, 92
2, 767759, Note_on_c, 0, 69, 40
2, 767759, Note_on_c, 0, 75, 40
2, 768000, Note_on_c, 0, 75, 0
2, 768000, Note_on_c, 0, 69, 0
2, 768000, Note_on_c, 0, 69, 46
2, 768000, Note_on_c, 0, 75, 46
2, 768240, Note_on_c, 0, 75, 0
2, 768240, Note_on_c, 0, 71, 0
2, 768240, Note_on_c, 0, 69, 0
2, 768240, Note_on_c, 0, 69, 92
2, 768479, Note_on_c, 0, 71, 39
2, 768479, Note_on_c, 0, 75, 39
2, 768720, Note_on_c, 0, 75, 0
2, 768720, Note_on_c, 0, 71, 0
2, 768720, Note_on_c, 0, 71, 48
2, 768720, Note_on_c, 0, 75, 48
2, 768960, Note_on_c, 0, 75, 0
2, 768960, Note_on_c, 0, 69, 0
2, 768960, Note_on_c, 0, 71, 0
2, 768960, Note_on_c, 0, 68, 89
2, 769320, Note_on_c, 0, 95, 0
2, 769320, Note_on_c, 0, 83, 0
2, 769320, Note_on_c, 0, 83, 55
2, 769320, Note_on_c, 0, 71, 40
2, 769680, Note_on_c, 0, 71, 0
2, 769680, Note_on_c, 0, 83, 0
2, 769680, Note_on_c, 0, 88, 91
2, 769680, Note_on_c, 0, 76, 57
2, 770040, Note_on_c, 0, 76, 0
2, 770040, Note_on_c, 0, 88, 0
2, 770040, Note_on_c, 0, 92, 91
2, 770040, Note_on_c, 0, 80, 60
2, 770400, Note_on_c, 0, 80, 0
2, 770400, Note_on_c, 0, 92, 0
2, 770400, Note_on_c, 0, 68, 0
2, 770400, Note_on_c, 0, 83, 91
2, 770400, Note_on_c, 0, 95, 91
2, 770400, Note_on_c, 0, 67, 42
2, 770639, Note_on_c, 0, 71, 53
2, 770639, Note_on_c, 0, 76, 53
2, 770639, Note_on_c, 0, 79, 53
2, 770850, Note_on_c, 0, 79, 0
2, 770850, Note_on_c, 0, 71, 0
2, 770850, Note_on_c, 0, 76, 0
2, 770880, Note_on_c, 0, 71, 60
2, 770880, Note_on_c, 0, 76, 60
2, 770880, Note_on_c, 0, 79, 60
2, 771090, Note_on_c, 0, 79, 0
2, 771090, Note_on_c, 0, 71, 0
2, 771090, Note_on_c, 0, 76, 0
2, 771120, Note_on_c, 0, 67, 0
2, 771120, Note_on_c, 0, 69, 59
2, 771120, Note_on_c, 0, 73, 59
2, 771120, Note_on_c, 0, 79, 59
2, 771330, Note_on_c, 0, 79, 0
2, 771330, Note_on_c, 0, 69, 0
2, 771330, Note_on_c, 0, 73, 0
2, 771359, Note_on_c, 0, 69, 62
2, 771359, Note_on_c, 0, 73, 62
2, 771359, Note_on_c, 0, 79, 62
2, 771480, Note_on_c, 0, 95, 0
2, 771480, Note_on_c, 0, 83, 0
2, 771480, Note_on_c, 0, 85, 91
2, 771480, Note_on_c, 0, 97, 91
2, 771570, Note_on_c, 0, 73, 0
2, 771570, Note_on_c, 0, 79, 0
2, 771570, Note_on_c, 0, 69, 0
2, 771600, Note_on_c, 0, 69, 60
2, 771600, Note_on_c, 0, 73, 60
2, 771600, Note_on_c, 0, 79, 60
2, 771810, Note_on_c, 0, 79, 0
2, 771810, Note_on_c, 0, 69, 0
2, 771810, Note_on_c, 0, 73, 0
2, 771840, Note_on_c, 0, 85, 0
2, 771840, Note_on_c, 0, 97, 0
2, 771840, Note_on_c, 0, 86, 90
2, 771840, Note_on_c, 0, 98, 90
2, 771840, Note_on_c, 0, 69, 47
2, 771840, Note_on_c, 0, 74, 47
2, 771840, Note_on_c, 0, 78, 47
2, 772079, Note_on_c, 0, 78, 0
2, 772079, Note_on_c, 0, 69, 0
2, 772079, Note_on_c, 0, 74, 0
2, 772079, Note_on_c, 0, 74, 82
2, 772079, Note_on_c, 0, 78, 82
2, 772079, Note_on_c, 0, 81, 82
2, 772320, Note_on_c, 0, 81, 0
2, 772320, Note_on_c, 0, 74, 0
2, 772320, Note_on_c, 0, 78, 0
2, 772320, Note_on_c, 0, 74, 72
2, 772320, Note_on_c, 0, 78, 72
2, 772320, Note_on_c, 0, 81, 72
2, 772560, Note_on_c, 0, 81, 0
2, 772560, Note_on_c, 0, 74, 0
2, 772560, Note_on_c, 0, 86, 0
2, 772560, Note_on_c, 0, 98, 0
2, 772560, Note_on_c, 0, 78, 0
2, 772560, Note_on_c, 0, 85, 84
2, 772560, Note_on_c, 0, 97, 84
2, 772560, Note_on_c, 0, 74, 78
2, 772560, Note_on_c, 0, 78, 78
2, 772560, Note_on_c, 0, 81, 78
2, 772799, Note_on_c, 0, 81, 0
2, 772799, Note_on_c, 0, 74, 0
2, 772799, Note_on_c, 0, 78, 0
2, 772799, Note_on_c, 0, 74, 72
2, 772799, Note_on_c, 0, 78, 72
2, 772799, Note_on_c, 0, 81, 72
2, 773040, Note_on_c, 0, 81, 0
2, 773040, Note_on_c, 0, 74, 0
2, 773040, Note_on_c, 0, 78, 0
2, 773040, Note_on_c, 0, 74, 70
2, 773040, Note_on_c, 0, 78, 70
2, 773040, Note_on_c, 0, 81, 70
2, 773280, Note_on_c, 0, 81, 0
2, 773280, Note_on_c, 0, 74, 0
2, 773280, Note_on_c, 0, 85, 0
2, 773280, Note_on_c, 0, 97, 0
2, 773280, Note_on_c, 0, 78, 0
2, 773280, Note_on_c, 0, 84, 81
2, 773280, Note_on_c, 0, 96, 81
2, 773519, Note_on_c, 0, 72, 41
2, 773519, Note_on_c, 0, 78, 41
2, 773519, Note_on_c, 0, 81, 41
2, 773760, Note_on_c, 0, 81, 0
2, 773760, Note_on_c, 0, 72, 0
2, 773760, Note_on_c, 0, 78, 0
2, 773760, Note_on_c, 0, 72, 49
2, 773760, Note_on_c, 0, 78, 49
2, 773760, Note_on_c, 0, 81, 49
2, 774000, Note_on_c, 0, 81, 0
2, 774000, Note_on_c, 0, 72, 0
2, 774000, Note_on_c, 0, 78, 0
2, 774000, Note_on_c, 0, 72, 47
2, 774000, Note_on_c, 0, 78, 47
2, 774000, Note_on_c, 0, 81, 47
2, 774239, Note_on_c, 0, 81, 0
2, 774239, Note_on_c, 0, 72, 0
2, 774239, Note_on_c, 0, 78, 0
2, 774239, Note_on_c, 0, 71, 53
2, 774239, Note_on_c, 0, 78, 53
2, 774239, Note_on_c, 0, 81, 53
2, 774360, Note_on_c, 0, 96, 0
2, 774360, Note_on_c, 0, 84, 0
2, 774360, Note_on_c, 0, 83, 77
2, 774360, Note_on_c, 0, 95, 77
2, 774480, Note_on_c, 0, 78, 0
2, 774480, Note_on_c, 0, 81, 0
2, 774480, Note_on_c, 0, 71, 0
2, 774480, Note_on_c, 0, 71, 50
2, 774480, Note_on_c, 0, 78, 50
2, 774480, Note_on_c, 0, 81, 50
2, 774720, Note_on_c, 0, 81, 0
2, 774720, Note_on_c, 0, 71, 0
2, 774720, Note_on_c, 0, 95, 0
2, 774720, Note_on_c, 0, 83, 0
2, 774720, Note_on_c, 0, 78, 0
2, 774720, Note_on_c, 0, 83, 83
2, 774720, Note_on_c, 0, 95, 83
2, 774720, Note_on_c, 0, 71, 41
2, 774720, Note_on_c, 0, 76, 41
2, 774720, Note_on_c, 0, 80, 41
2, 775080, Note_on_c, 0, 80, 0
2, 775080, Note_on_c, 0, 71, 0
2, 775080, Note_on_c, 0, 83, 0
2, 775080, Note_on_c, 0, 95, 0
2, 775080, Note_on_c, 0, 76, 0
2, 775080, Note_on_c, 0, 85, 91
2, 775080, Note_on_c, 0, 97, 91
2, 775440, Note_on_c, 0, 64, 36
2, 775440, Note_on_c, 0, 68, 36
2, 775440, Note_on_c, 0, 59, 53
2, 775800, Note_on_c, 0, 97, 0
2, 775800, Note_on_c, 0, 85, 0
2, 775800, Note_on_c, 0, 83, 92
2, 775800, Note_on_c, 0, 95, 92
2, 776073, Note_on_c, 0, 59, 0
2, 776117, Note_on_c, 0, 83, 0
2, 776117, Note_on_c, 0, 95, 0
2, 776160, Note_on_c, 0, 81, 83
2, 776160, Note_on_c, 0, 93, 83
2, 776160, Note_on_c, 0, 61, 92
2, 776477, Note_on_c, 0, 93, 0
2, 776477, Note_on_c, 0, 81, 0
2, 776520, Note_on_c, 0, 80, 73
2, 776520, Note_on_c, 0, 92, 73
2, 776793, Note_on_c, 0, 61, 0
2, 776880, Note_on_c, 0, 68, 0
2, 776880, Note_on_c, 0, 64, 0
2, 776880, Note_on_c, 0, 68, 51
2, 776880, Note_on_c, 0, 71, 51
2, 776880, Note_on_c, 0, 63, 92
2, 777240, Note_on_c, 0, 80, 0
2, 777240, Note_on_c, 0, 92, 0
2, 777240, Note_on_c, 0, 78, 79
2, 777240, Note_on_c, 0, 90, 79
2, 777513, Note_on_c, 0, 63, 0
2, 777557, Note_on_c, 0, 78, 0
2, 777557, Note_on_c, 0, 90, 0
2, 777600, Note_on_c, 0, 80, 85
2, 777600, Note_on_c, 0, 92, 85
2, 777600, Note_on_c, 0, 64, 91
2, 777917, Note_on_c, 0, 64, 0
2, 777960, Note_on_c, 0, 80, 0
2, 777960, Note_on_c, 0, 71, 0
2, 777960, Note_on_c, 0, 68, 0
2, 777960, Note_on_c, 0, 92, 0
2, 777960, Note_on_c, 0, 78, 75
2, 777960, Note_on_c, 0, 90, 75
2, 777960, Note_on_c, 0, 66, 52
2, 778320, Note_on_c, 0, 90, 0
2, 778320, Note_on_c, 0, 78, 0
2, 778320, Note_on_c, 0, 76, 68
2, 778320, Note_on_c, 0, 88, 68
2, 778320, Note_on_c, 0, 59, 75
2, 778320, Note_on_c, 0, 64, 75
2, 778593, Note_on_c, 0, 66, 0
2, 778680, Note_on_c, 0, 76, 0
2, 778680, Note_on_c, 0, 88, 0
2, 778680, Note_on_c, 0, 75, 69
2, 778680, Note_on_c, 0, 87, 69
2, 778680, Note_on_c, 0, 68, 65
2, 779040, Note_on_c, 0, 87, 0
2, 779040, Note_on_c, 0, 75, 0
2, 779040, Note_on_c, 0, 76, 84
2, 779040, Note_on_c, 0, 88, 84
2, 779400, Note_on_c, 0, 88, 0
2, 779400, Note_on_c, 0, 64, 0
2, 779400, Note_on_c, 0, 68, 0
2, 779400, Note_on_c, 0, 59, 0
2, 779400, Note_on_c, 0, 76, 0
2, 779400, Note_on_c, 0, 75, 72
2, 779400, Note_on_c, 0, 87, 72
2, 779400, Note_on_c, 0, 69, 65
2, 779760, Note_on_c, 0, 87, 0
2, 779760, Note_on_c, 0, 75, 0
2, 779760, Note_on_c, 0, 73, 87
2, 779760, Note_on_c, 0, 85, 87
2, 779760, Note_on_c, 0, 64, 70
2, 779760, Note_on_c, 0, 68, 70
2, 780033, Note_on_c, 0, 69, 0
2, 780077, Note_on_c, 0, 73, 0
2, 780077, Note_on_c, 0, 85, 0
2, 780120, Note_on_c, 0, 83, 80
2, 780120, Note_on_c, 0, 71, 65
2, 780437, Note_on_c, 0, 71, 0
2, 780437, Note_on_c, 0, 83, 0
2, 780480, Note_on_c, 0, 64, 0
2, 780480, Note_on_c, 0, 68, 0
2, 780480, Note_on_c, 0, 76, 92
2, 780480, Note_on_c, 0, 88, 92
2, 780480, Note_on_c, 0, 64, 68
2, 780480, Note_on_c, 0, 68, 68
2, 780480, Note_on_c, 0, 73, 68
2, 780797, Note_on_c, 0, 88, 0
2, 780797, Note_on_c, 0, 76, 0
2, 780840, Note_on_c, 0, 80, 92
2, 780840, Note_on_c, 0, 92, 92
2, 781473, Note_on_c, 0, 92, 0
2, 781473, Note_on_c, 0, 80, 0
2, 781560, Note_on_c, 0, 78, 73
2, 781560, Note_on_c, 0, 90, 73
2, 781920, Note_on_c, 0, 90, 0
2, 781920, Note_on_c, 0, 78, 0
2, 781920, Note_on_c, 0, 76, 82
2, 781920, Note_on_c, 0, 88, 82
2, 782237, Note_on_c, 0, 88, 0
2, 782237, Note_on_c, 0, 76, 0
2, 782280, Note_on_c, 0, 75, 74
2, 782280, Note_on_c, 0, 87, 74
2, 783000, Note_on_c, 0, 87, 0
2, 783000, Note_on_c, 0, 75, 0
2, 783000, Note_on_c, 0, 76, 82
2, 783000, Note_on_c, 0, 88, 82
2, 783360, Note_on_c, 0, 88, 0
2, 783360, Note_on_c, 0, 68, 0
2, 783360, Note_on_c, 0, 73, 0
2, 783360, Note_on_c, 0, 64, 0
2, 783360, Note_on_c, 0, 76, 0
2, 783360, Note_on_c, 0, 75, 81
2, 783360, Note_on_c, 0, 87, 81
2, 783360, Note_on_c, 0, 63, 53
2, 783360, Note_on_c, 0, 68, 53
2, 783360, Note_on_c, 0, 71, 53
2, 783677, Note_on_c, 0, 87, 0
2, 783677, Note_on_c, 0, 75, 0
2, 783720, Note_on_c, 0, 85, 72
2, 783720, Note_on_c, 0, 73, 53
2, 783993, Note_on_c, 0, 68, 0
2, 783993, Note_on_c, 0, 71, 0
2, 783993, Note_on_c, 0, 63, 0
2, 784080, Note_on_c, 0, 73, 0
2, 784080, Note_on_c, 0, 64, 65
2, 784080, Note_on_c, 0, 68, 65
2, 784080, Note_on_c, 0, 73, 65
2, 784440, Note_on_c, 0, 85, 0
2, 784440, Note_on_c, 0, 75, 85
2, 784440, Note_on_c, 0, 87, 85
2, 784713, Note_on_c, 0, 73, 0
2, 784800, Note_on_c, 0, 75, 0
2, 784800, Note_on_c, 0, 87, 0
2, 784800, Note_on_c, 0, 73, 84
2, 784800, Note_on_c, 0, 85, 84
2, 785117, Note_on_c, 0, 85, 0
2, 785117, Note_on_c, 0, 73, 0
2, 785160, Note_on_c, 0, 83, 71
2, 785160, Note_on_c, 0, 71, 80
2, 785433, Note_on_c, 0, 68, 0
2, 785433, Note_on_c, 0, 64, 0
2, 785520, Note_on_c, 0, 71, 0
2, 785520, Note_on_c, 0, 63, 61
2, 785520, Note_on_c, 0, 68, 61
2, 785520, Note_on_c, 0, 71, 61
2, 785880, Note_on_c, 0, 83, 0
2, 785880, Note_on_c, 0, 73, 84
2, 785880, Note_on_c, 0, 85, 84
2, 786153, Note_on_c, 0, 63, 0
2, 786153, Note_on_c, 0, 71, 0
2, 786153, Note_on_c, 0, 68, 0
2, 786240, Note_on_c, 0, 73, 0
2, 786240, Note_on_c, 0, 85, 0
2, 786240, Note_on_c, 0, 83, 72
2, 786240, Note_on_c, 0, 73, 91
2, 786240, Note_on_c, 0, 76, 91
2, 786240, Note_on_c, 0, 61, 53
2, 786240, Note_on_c, 0, 64, 53
2, 786240, Note_on_c, 0, 69, 53
2, 786600, Note_on_c, 0, 83, 0
2, 786600, Note_on_c, 0, 81, 70
2, 786873, Note_on_c, 0, 64, 0
2, 786873, Note_on_c, 0, 61, 0
2, 786873, Note_on_c, 0, 69, 0
2, 786960, Note_on_c, 0, 73, 0
2, 786960, Note_on_c, 0, 76, 0
2, 786960, Note_on_c, 0, 81, 0
2, 786960, Note_on_c, 0, 80, 89
2, 786960, Note_on_c, 0, 72, 91
2, 786960, Note_on_c, 0, 76, 91
2, 786960, Note_on_c, 0, 60, 55
2, 786960, Note_on_c, 0, 64, 55
2, 786960, Note_on_c, 0, 68, 55
2, 787277, Note_on_c, 0, 68, 0
2, 787277, Note_on_c, 0, 60, 0
2, 787277, Note_on_c, 0, 80, 0
2, 787277, Note_on_c, 0, 64, 0
2, 787320, Note_on_c, 0, 72, 0
2, 787320, Note_on_c, 0, 76, 0
2, 787320, Note_on_c, 0, 78, 82
2, 787320, Note_on_c, 0, 73, 91
2, 787320, Note_on_c, 0, 76, 91
2, 787320, Note_on_c, 0, 61, 68
2, 787320, Note_on_c, 0, 64, 68
2, 787320, Note_on_c, 0, 69, 68
2, 787637, Note_on_c, 0, 69, 0
2, 787637, Note_on_c, 0, 61, 0
2, 787637, Note_on_c, 0, 78, 0
2, 787637, Note_on_c, 0, 64, 0
2, 787680, Note_on_c, 0, 73, 0
2, 787680, Note_on_c, 0, 76, 0
2, 787680, Note_on_c, 0, 76, 80
2, 787680, Note_on_c, 0, 80, 80
2, 787680, Note_on_c, 0, 64, 87
2, 787680, Note_on_c, 0, 68, 87
2, 788040, Note_on_c, 0, 80, 0
2, 788040, Note_on_c, 0, 76, 0
2, 788040, Note_on_c, 0, 88, 91
2, 788040, Note_on_c, 0, 76, 44
2, 788760, Note_on_c, 0, 76, 0
2, 788760, Note_on_c, 0, 88, 0
2, 788760, Note_on_c, 0, 87, 71
2, 788760, Note_on_c, 0, 75, 42
2, 789120, Note_on_c, 0, 75, 0
2, 789120, Note_on_c, 0, 87, 0
2, 789120, Note_on_c, 0, 85, 72
2, 789120, Note_on_c, 0, 73, 35
2, 789480, Note_on_c, 0, 73, 0
2, 789480, Note_on_c, 0, 85, 0
2, 789480, Note_on_c, 0, 83, 72
2, 789480, Note_on_c, 0, 71, 41
2, 789840, Note_on_c, 0, 71, 0
2, 789840, Note_on_c, 0, 83, 0
2, 789840, Note_on_c, 0, 81, 66
2, 789840, Note_on_c, 0, 69, 45
2, 790200, Note_on_c, 0, 69, 0
2, 790200, Note_on_c, 0, 81, 0
2, 790200, Note_on_c, 0, 80, 72
2, 790200, Note_on_c, 0, 68, 44
2, 790560, Note_on_c, 0, 68, 0
2, 790560, Note_on_c, 0, 68, 0
2, 790560, Note_on_c, 0, 64, 0
2, 790560, Note_on_c, 0, 80, 0
2, 790560, Note_on_c, 0, 78, 74
2, 790560, Note_on_c, 0, 76, 90
2, 790560, Note_on_c, 0, 66, 42
2, 790560, Note_on_c, 0, 64, 68
2, 790920, Note_on_c, 0, 66, 0
2, 790920, Note_on_c, 0, 78, 0
2, 790920, Note_on_c, 0, 80, 91
2, 790920, Note_on_c, 0, 68, 53
2, 791280, Note_on_c, 0, 68, 0
2, 791280, Note_on_c, 0, 80, 0
2, 791280, Note_on_c, 0, 78, 70
2, 791280, Note_on_c, 0, 66, 47
2, 791640, Note_on_c, 0, 66, 0
2, 791640, Note_on_c, 0, 64, 0
2, 791640, Note_on_c, 0, 76, 0
2, 791640, Note_on_c, 0, 78, 0
2, 791640, Note_on_c, 0, 76, 65
2, 791640, Note_on_c, 0, 64, 54
2, 791640, Note_on_c, 0, 68, 54
2, 792000, Note_on_c, 0, 68, 0
2, 792000, Note_on_c, 0, 64, 0
2, 792000, Note_on_c, 0, 76, 0
2, 792000, Note_on_c, 0, 78, 84
2, 792000, Note_on_c, 0, 76, 91
2, 792000, Note_on_c, 0, 66, 39
2, 792000, Note_on_c, 0, 64, 76
2, 792360, Note_on_c, 0, 66, 0
2, 792360, Note_on_c, 0, 78, 0
2, 792360, Note_on_c, 0, 85, 91
2, 792360, Note_on_c, 0, 73, 64
2, 792720, Note_on_c, 0, 73, 0
2, 792720, Note_on_c, 0, 85, 0
2, 792720, Note_on_c, 0, 80, 68
2, 792720, Note_on_c, 0, 68, 39
2, 793080, Note_on_c, 0, 68, 0
2, 793080, Note_on_c, 0, 80, 0
2, 793080, Note_on_c, 0, 78, 72
2, 793080, Note_on_c, 0, 66, 42
2, 793440, Note_on_c, 0, 66, 0
2, 793440, Note_on_c, 0, 78, 0
2, 793440, Note_on_c, 0, 78, 80
2, 793440, Note_on_c, 0, 66, 51
2, 793800, Note_on_c, 0, 66, 0
2, 793800, Note_on_c, 0, 64, 0
2, 793800, Note_on_c, 0, 76, 0
2, 793800, Note_on_c, 0, 78, 0
2, 793800, Note_on_c, 0, 75, 86
2, 793800, Note_on_c, 0, 81, 86
2, 793800, Note_on_c, 0, 69, 51
2, 793800, Note_on_c, 0, 63, 71
2, 794160, Note_on_c, 0, 69, 0
2, 794160, Note_on_c, 0, 75, 0
2, 794160, Note_on_c, 0, 81, 0
2, 794160, Note_on_c, 0, 75, 64
2, 794160, Note_on_c, 0, 63, 35
2, 794520, Note_on_c, 0, 63, 0
2, 794520, Note_on_c, 0, 75, 0
2, 794520, Note_on_c, 0, 63, 0
2, 794520, Note_on_c, 0, 73, 69
2, 794520, Note_on_c, 0, 61, 51
2, 794520, Note_on_c, 0, 64, 51
2, 794880, Note_on_c, 0, 64, 0
2, 794880, Note_on_c, 0, 61, 0
2, 794880, Note_on_c, 0, 73, 0
2, 794880, Note_on_c, 0, 75, 86
2, 794880, Note_on_c, 0, 63, 42
2, 795240, Note_on_c, 0, 63, 0
2, 795240, Note_on_c, 0, 75, 0
2, 795240, Note_on_c, 0, 78, 84
2, 795240, Note_on_c, 0, 66, 54
2, 795600, Note_on_c, 0, 66, 0
2, 795600, Note_on_c, 0, 73, 78
2, 795600, Note_on_c, 0, 61, 40
2, 795960, Note_on_c, 0, 61, 0
2, 795960, Note_on_c, 0, 73, 0
2, 795960, Note_on_c, 0, 71, 86
2, 795960, Note_on_c, 0, 59, 48
2, 796320, Note_on_c, 0, 59, 0
2, 796320, Note_on_c, 0, 71, 0
2, 796320, Note_on_c, 0, 70, 81
2, 796320, Note_on_c, 0, 58, 48
2, 796680, Note_on_c, 0, 58, 0
2, 796680, Note_on_c, 0, 70, 0
2, 796680, Note_on_c, 0, 69, 86
2, 796680, Note_on_c, 0, 59, 50
2, 797040, Note_on_c, 0, 59, 0
2, 797040, Note_on_c, 0, 69, 0
2, 797040, Note_on_c, 0, 78, 0
2, 797040, Note_on_c, 0, 76, 80
2, 797040, Note_on_c, 0, 61, 49
2, 797400, Note_on_c, 0, 61, 0
2, 797400, Note_on_c, 0, 59, 43
2, 797673, Note_on_c, 0, 76, 0
2, 797760, Note_on_c, 0, 59, 0
2, 797760, Note_on_c, 0, 68, 60
2, 797760, Note_on_c, 0, 76, 60
2, 797760, Note_on_c, 0, 64, 76
2, 797940, Note_on_c, 0, 64, 0
2, 798120, Note_on_c, 0, 76, 0
2, 798120, Note_on_c, 0, 68, 0
2, 798240, Note_on_c, 0, 66, 56
2, 798359, Note_on_c, 0, 66, 0
2, 798359, Note_on_c, 0, 67, 69
2, 798480, Note_on_c, 0, 67, 0
2, 798480, Note_on_c, 0, 68, 77
2, 798960, Note_on_c, 0, 68, 0
2, 798960, Note_on_c, 0, 69, 53
2, 798960, Note_on_c, 0, 66, 56
2, 799079, Note_on_c, 0, 66, 0
2, 799079, Note_on_c, 0, 69, 0
2, 799079, Note_on_c, 0, 71, 68
2, 799079, Note_on_c, 0, 67, 65
2, 799200, Note_on_c, 0, 67, 0
2, 799200, Note_on_c, 0, 71, 0
2, 799200, Note_on_c, 0, 72, 67
2, 799200, Note_on_c, 0, 68, 83
2, 799680, Note_on_c, 0, 68, 0
2, 799680, Note_on_c, 0, 72, 0
2, 799680, Note_on_c, 0, 74, 67
2, 799680, Note_on_c, 0, 66, 56
2, 799799, Note_on_c, 0, 66, 0
2, 799799, Note_on_c, 0, 74, 0
2, 799799, Note_on_c, 0, 75, 61
2, 799799, Note_on_c, 0, 67, 66
2, 799920, Note_on_c, 0, 67, 0
2, 799920, Note_on_c, 0, 75, 0
2, 799920, Note_on_c, 0, 76, 67
2, 799920, Note_on_c, 0, 68, 65
2, 800040, Note_on_c, 0, 76, 0
2, 800040, Note_on_c, 0, 78, 72
2, 800099, Note_on_c, 0, 68, 0
2, 800159, Note_on_c, 0, 78, 0
2, 800159, Note_on_c, 0, 79, 66
2, 800280, Note_on_c, 0, 79, 0
2, 800280, Note_on_c, 0, 80, 72
2, 800280, Note_on_c, 0, 68, 79
2, 800280, Note_on_c, 0, 71, 79
2, 800280, Note_on_c, 0, 76, 79
2, 800640, Note_on_c, 0, 76, 0
2, 800640, Note_on_c, 0, 80, 0
2, 800640, Note_on_c, 0, 68, 0
2, 800640, Note_on_c, 0, 71, 0
2, 801120, Note_on_c, 0, 66, 49
2, 801239, Note_on_c, 0, 66, 0
2, 801239, Note_on_c, 0, 67, 68
2, 801360, Note_on_c, 0, 67, 0
2, 801360, Note_on_c, 0, 68, 73
2, 801840, Note_on_c, 0, 68, 0
2, 801840, Note_on_c, 0, 74, 49
2, 801840, Note_on_c, 0, 66, 56
2, 801959, Note_on_c, 0, 66, 0
2, 801959, Note_on_c, 0, 74, 0
2, 801959, Note_on_c, 0, 75, 66
2, 801959, Note_on_c, 0, 67, 64
2, 802080, Note_on_c, 0, 67, 0
2, 802080, Note_on_c, 0, 75, 0
2, 802080, Note_on_c, 0, 76, 92
2, 802080, Note_on_c, 0, 68, 80
2, 802560, Note_on_c, 0, 68, 0
2, 802560, Note_on_c, 0, 76, 0
2, 802560, Note_on_c, 0, 78, 62
2, 802560, Note_on_c, 0, 74, 78
2, 802679, Note_on_c, 0, 74, 0
2, 802679, Note_on_c, 0, 78, 0
2, 802679, Note_on_c, 0, 79, 70
2, 802679, Note_on_c, 0, 75, 71
2, 802800, Note_on_c, 0, 75, 0
2, 802800, Note_on_c, 0, 79, 0
2, 802800, Note_on_c, 0, 80, 69
2, 802800, Note_on_c, 0, 68, 68
2, 802800, Note_on_c, 0, 76, 68
2, 802920, Note_on_c, 0, 80, 0
2, 802920, Note_on_c, 0, 81, 67
2, 803039, Note_on_c, 0, 81, 0
2, 803039, Note_on_c, 0, 83, 71
2, 803160, Note_on_c, 0, 83, 0
2, 803160, Note_on_c, 0, 76, 0
2, 803160, Note_on_c, 0, 68, 0
2, 803160, Note_on_c, 0, 84, 69
2, 803160, Note_on_c, 0, 69, 62
2, 803160, Note_on_c, 0, 72, 62
2, 803160, Note_on_c, 0, 76, 62
2, 803520, Note_on_c, 0, 76, 0
2, 803520, Note_on_c, 0, 84, 0
2, 803520, Note_on_c, 0, 69, 0
2, 803520, Note_on_c, 0, 72, 0
2, 804000, Note_on_c, 0, 66, 52
2, 804119, Note_on_c, 0, 66, 0
2, 804119, Note_on_c, 0, 67, 65
2, 804240, Note_on_c, 0, 67, 0
2, 804240, Note_on_c, 0, 68, 74
2, 804720, Note_on_c, 0, 68, 0
2, 804720, Note_on_c, 0, 74, 52
2, 804720, Note_on_c, 0, 66, 59
2, 804839, Note_on_c, 0, 66, 0
2, 804839, Note_on_c, 0, 74, 0
2, 804839, Note_on_c, 0, 75, 69
2, 804839, Note_on_c, 0, 67, 65
2, 804960, Note_on_c, 0, 67, 0
2, 804960, Note_on_c, 0, 75, 0
2, 804960, Note_on_c, 0, 76, 92
2, 804960, Note_on_c, 0, 68, 79
2, 805440, Note_on_c, 0, 68, 0
2, 805440, Note_on_c, 0, 76, 0
2, 805440, Note_on_c, 0, 82, 76
2, 805440, Note_on_c, 0, 66, 56
2, 805559, Note_on_c, 0, 66, 0
2, 805559, Note_on_c, 0, 82, 0
2, 805559, Note_on_c, 0, 83, 64
2, 805559, Note_on_c, 0, 67, 65
2, 805680, Note_on_c, 0, 67, 0
2, 805680, Note_on_c, 0, 83, 0
2, 805680, Note_on_c, 0, 84, 68
2, 805680, Note_on_c, 0, 68, 76
2, 805680, Note_on_c, 0, 72, 76
2, 805800, Note_on_c, 0, 84, 0
2, 805800, Note_on_c, 0, 86, 70
2, 805919, Note_on_c, 0, 86, 0
2, 805919, Note_on_c, 0, 88, 70
2, 806040, Note_on_c, 0, 88, 0
2, 806040, Note_on_c, 0, 72, 0
2, 806040, Note_on_c, 0, 68, 0
2, 806040, Note_on_c, 0, 89, 72
2, 806040, Note_on_c, 0, 65, 81
2, 806040, Note_on_c, 0, 68, 81
2, 806040, Note_on_c, 0, 72, 81
2, 806040, Note_on_c, 0, 77, 81
2, 806400, Note_on_c, 0, 77, 0
2, 806400, Note_on_c, 0, 68, 0
2, 806400, Note_on_c, 0, 89, 0
2, 806400, Note_on_c, 0, 65, 0
2, 806400, Note_on_c, 0, 72, 0
2, 806880, Note_on_c, 0, 66, 55
2, 806999, Note_on_c, 0, 66, 0
2, 806999, Note_on_c, 0, 67, 61
2, 807120, Note_on_c, 0, 67, 0
2, 807120, Note_on_c, 0, 68, 79
2, 807600, Note_on_c, 0, 68, 0
2, 807600, Note_on_c, 0, 74, 52
2, 807600, Note_on_c, 0, 66, 55
2, 807719, Note_on_c, 0, 66, 0
2, 807719, Note_on_c, 0, 74, 0
2, 807719, Note_on_c, 0, 75, 65
2, 807719, Note_on_c, 0, 67, 60
2, 807840, Note_on_c, 0, 67, 0
2, 807840, Note_on_c, 0, 75, 0
2, 807840, Note_on_c, 0, 76, 92
2, 807840, Note_on_c, 0, 68, 79
2, 808320, Note_on_c, 0, 68, 0
2, 808320, Note_on_c, 0, 76, 0
2, 808320, Note_on_c, 0, 86, 89
2, 808320, Note_on_c, 0, 66, 58
2, 808439, Note_on_c, 0, 66, 0
2, 808439, Note_on_c, 0, 86, 0
2, 808439, Note_on_c, 0, 87, 70
2, 808439, Note_on_c, 0, 67, 63
2, 808560, Note_on_c, 0, 67, 0
2, 808560, Note_on_c, 0, 87, 0
2, 808560, Note_on_c, 0, 88, 72
2, 808560, Note_on_c, 0, 68, 80
2, 808560, Note_on_c, 0, 76, 80
2, 808680, Note_on_c, 0, 88, 0
2, 808680, Note_on_c, 0, 90, 73
2, 808799, Note_on_c, 0, 90, 0
2, 808799, Note_on_c, 0, 91, 69
2, 808920, Note_on_c, 0, 91, 0
2, 808920, Note_on_c, 0, 76, 0
2, 808920, Note_on_c, 0, 68, 0
2, 808920, Note_on_c, 0, 92, 69
2, 808920, Note_on_c, 0, 68, 78
2, 808920, Note_on_c, 0, 71, 78
2, 808920, Note_on_c, 0, 75, 78
2, 808920, Note_on_c, 0, 80, 78
2, 809280, Note_on_c, 0, 80, 0
2, 809280, Note_on_c, 0, 71, 0
2, 809280, Note_on_c, 0, 92, 0
2, 809280, Note_on_c, 0, 68, 0
2, 809280, Note_on_c, 0, 75, 0
2, 809280, Note_on_c, 0, 88, 76
2, 809280, Note_on_c, 0, 68, 56
2, 809280, Note_on_c, 0, 71, 56
2, 809280, Note_on_c, 0, 76, 56
2, 809400, Note_on_c, 0, 88, 0
2, 809400, Note_on_c, 0, 90, 69
2, 809519, Note_on_c, 0, 90, 0
2, 809519, Note_on_c, 0, 91, 70
2, 809640, Note_on_c, 0, 91, 0
2, 809640, Note_on_c, 0, 68, 0
2, 809640, Note_on_c, 0, 71, 0
2, 809640, Note_on_c, 0, 76, 0
2, 809640, Note_on_c, 0, 92, 89
2, 810000, Note_on_c, 0, 92, 0
2, 810000, Note_on_c, 0, 80, 62
2, 810000, Note_on_c, 0, 68, 48
2, 810000, Note_on_c, 0, 64, 83
2, 810120, Note_on_c, 0, 68, 0
2, 810120, Note_on_c, 0, 80, 0
2, 810120, Note_on_c, 0, 81, 65
2, 810120, Note_on_c, 0, 69, 64
2, 810239, Note_on_c, 0, 69, 0
2, 810239, Note_on_c, 0, 81, 0
2, 810239, Note_on_c, 0, 82, 67
2, 810239, Note_on_c, 0, 70, 64
2, 810360, Note_on_c, 0, 70, 0
2, 810360, Note_on_c, 0, 82, 0
2, 810360, Note_on_c, 0, 64, 0
2, 810360, Note_on_c, 0, 83, 90
2, 810360, Note_on_c, 0, 68, 69
2, 810360, Note_on_c, 0, 71, 69
2, 810360, Note_on_c, 0, 64, 76
2, 810480, Note_on_c, 0, 83, 0
2, 810480, Note_on_c, 0, 85, 69
2, 810599, Note_on_c, 0, 85, 0
2, 810599, Note_on_c, 0, 87, 72
2, 810720, Note_on_c, 0, 87, 0
2, 810720, Note_on_c, 0, 64, 0
2, 810720, Note_on_c, 0, 88, 91
2, 810720, Note_on_c, 0, 64, 79
2, 810840, Note_on_c, 0, 88, 0
2, 810840, Note_on_c, 0, 90, 70
2, 810959, Note_on_c, 0, 90, 0
2, 810959, Note_on_c, 0, 68, 0
2, 810959, Note_on_c, 0, 71, 0
2, 810959, Note_on_c, 0, 91, 72
2, 810959, Note_on_c, 0, 64, 67
2, 810959, Note_on_c, 0, 68, 67
2, 810959, Note_on_c, 0, 73, 67
2, 811080, Note_on_c, 0, 73, 0
2, 811080, Note_on_c, 0, 64, 0
2, 811080, Note_on_c, 0, 64, 0
2, 811080, Note_on_c, 0, 91, 0
2, 811080, Note_on_c, 0, 68, 0
2, 811080, Note_on_c, 0, 92, 92
2, 811080, Note_on_c, 0, 64, 58
2, 811080, Note_on_c, 0, 68, 58
2, 811080, Note_on_c, 0, 71, 58
2, 811440, Note_on_c, 0, 71, 0
2, 811440, Note_on_c, 0, 92, 0
2, 811440, Note_on_c, 0, 64, 0
2, 811440, Note_on_c, 0, 68, 0
2, 811440, Note_on_c, 0, 80, 31
2, 811440, Note_on_c, 0, 68, 56
2, 811440, Note_on_c, 0, 64, 83
2, 811560, Note_on_c, 0, 68, 0
2, 811560, Note_on_c, 0, 80, 0
2, 811560, Note_on_c, 0, 81, 58
2, 811560, Note_on_c, 0, 69, 66
2, 811679, Note_on_c, 0, 69, 0
2, 811679, Note_on_c, 0, 81, 0
2, 811679, Note_on_c, 0, 82, 65
2, 811679, Note_on_c, 0, 70, 66
2, 811800, Note_on_c, 0, 70, 0
2, 811800, Note_on_c, 0, 82, 0
2, 811800, Note_on_c, 0, 64, 0
2, 811800, Note_on_c, 0, 83, 65
2, 811800, Note_on_c, 0, 68, 69
2, 811800, Note_on_c, 0, 71, 69
2, 811800, Note_on_c, 0, 64, 77
2, 811920, Note_on_c, 0, 83, 0
2, 811920, Note_on_c, 0, 85, 67
2, 812039, Note_on_c, 0, 85, 0
2, 812039, Note_on_c, 0, 87, 70
2, 812160, Note_on_c, 0, 87, 0
2, 812160, Note_on_c, 0, 64, 0
2, 812160, Note_on_c, 0, 88, 67
2, 812160, Note_on_c, 0, 64, 78
2, 812280, Note_on_c, 0, 88, 0
2, 812280, Note_on_c, 0, 90, 70
2, 812399, Note_on_c, 0, 90, 0
2, 812399, Note_on_c, 0, 68, 0
2, 812399, Note_on_c, 0, 71, 0
2, 812399, Note_on_c, 0, 91, 66
2, 812399, Note_on_c, 0, 64, 70
2, 812399, Note_on_c, 0, 68, 70
2, 812399, Note_on_c, 0, 73, 70
2, 812520, Note_on_c, 0, 73, 0
2, 812520, Note_on_c, 0, 64, 0
2, 812520, Note_on_c, 0, 64, 0
2, 812520, Note_on_c, 0, 91, 0
2, 812520, Note_on_c, 0, 68, 0
2, 812520, Note_on_c, 0, 92, 69
2, 812520, Note_on_c, 0, 64, 57
2, 812520, Note_on_c, 0, 68, 57
2, 812520, Note_on_c, 0, 71, 57
2, 812880, Note_on_c, 0, 71, 0
2, 812880, Note_on_c, 0, 92, 0
2, 812880, Note_on_c, 0, 64, 0
2, 812880, Note_on_c, 0, 68, 0
2, 812880, Note_on_c, 0, 80, 37
2, 812880, Note_on_c, 0, 68, 52
2, 812880, Note_on_c, 0, 64, 79
2, 813000, Note_on_c, 0, 68, 0
2, 813000, Note_on_c, 0, 80, 0
2, 813000, Note_on_c, 0, 81, 61
2, 813000, Note_on_c, 0, 69, 66
2, 813119, Note_on_c, 0, 69, 0
2, 813119, Note_on_c, 0, 81, 0
2, 813119, Note_on_c, 0, 82, 68
2, 813119, Note_on_c, 0, 70, 68
2, 813240, Note_on_c, 0, 70, 0
2, 813240, Note_on_c, 0, 82, 0
2, 813240, Note_on_c, 0, 64, 0
2, 813240, Note_on_c, 0, 83, 65
2, 813240, Note_on_c, 0, 68, 63
2, 813240, Note_on_c, 0, 71, 63
2, 813240, Note_on_c, 0, 64, 79
2, 813360, Note_on_c, 0, 83, 0
2, 813360, Note_on_c, 0, 85, 67
2, 813479, Note_on_c, 0, 85, 0
2, 813479, Note_on_c, 0, 87, 67
2, 813600, Note_on_c, 0, 87, 0
2, 813600, Note_on_c, 0, 64, 0
2, 813600, Note_on_c, 0, 88, 67
2, 813600, Note_on_c, 0, 64, 76
2, 813720, Note_on_c, 0, 88, 0
2, 813720, Note_on_c, 0, 90, 70
2, 813839, Note_on_c, 0, 90, 0
2, 813839, Note_on_c, 0, 68, 0
2, 813839, Note_on_c, 0, 71, 0
2, 813839, Note_on_c, 0, 91, 68
2, 813839, Note_on_c, 0, 64, 64
2, 813839, Note_on_c, 0, 68, 64
2, 813839, Note_on_c, 0, 73, 64
2, 813960, Note_on_c, 0, 73, 0
2, 813960, Note_on_c, 0, 64, 0
2, 813960, Note_on_c, 0, 64, 0
2, 813960, Note_on_c, 0, 91, 0
2, 813960, Note_on_c, 0, 68, 0
2, 813960, Note_on_c, 0, 92, 64
2, 813960, Note_on_c, 0, 64, 55
2, 813960, Note_on_c, 0, 68, 55
2, 813960, Note_on_c, 0, 71, 55
2, 814320, Note_on_c, 0, 71, 0
2, 814320, Note_on_c, 0, 92, 0
2, 814320, Note_on_c, 0, 64, 0
2, 814320, Note_on_c, 0, 68, 0
2, 814320, Note_on_c, 0, 80, 36
2, 814320, Note_on_c, 0, 68, 56
2, 814320, Note_on_c, 0, 64, 79
2, 814440, Note_on_c, 0, 68, 0
2, 814440, Note_on_c, 0, 80, 0
2, 814440, Note_on_c, 0, 81, 60
2, 814440, Note_on_c, 0, 69, 63
2, 814559, Note_on_c, 0, 69, 0
2, 814559, Note_on_c, 0, 81, 0
2, 814559, Note_on_c, 0, 82, 69
2, 814559, Note_on_c, 0, 70, 68
2, 814680, Note_on_c, 0, 70, 0
2, 814680, Note_on_c, 0, 82, 0
2, 814680, Note_on_c, 0, 64, 0
2, 814680, Note_on_c, 0, 83, 69
2, 814680, Note_on_c, 0, 68, 62
2, 814680, Note_on_c, 0, 71, 62
2, 814680, Note_on_c, 0, 64, 77
2, 814800, Note_on_c, 0, 83, 0
2, 814800, Note_on_c, 0, 85, 67
2, 814919, Note_on_c, 0, 85, 0
2, 814919, Note_on_c, 0, 87, 69
2, 815040, Note_on_c, 0, 87, 0
2, 815040, Note_on_c, 0, 64, 0
2, 815040, Note_on_c, 0, 88, 73
2, 815040, Note_on_c, 0, 64, 58
2, 815220, Note_on_c, 0, 64, 0
2, 815220, Note_on_c, 0, 68, 0
2, 815220, Note_on_c, 0, 71, 0
2, 815220, Note_on_c, 0, 88, 0
2, 815220, Note_on_c, 0, 92, 69
2, 815220, Note_on_c, 0, 80, 84
2, 815400, Note_on_c, 0, 80, 0
2, 815400, Note_on_c, 0, 92, 0
2, 815400, Note_on_c, 0, 87, 48
2, 815400, Note_on_c, 0, 75, 52
2, 815580, Note_on_c, 0, 75, 0
2, 815580, Note_on_c, 0, 87, 0
2, 815580, Note_on_c, 0, 85, 54
2, 815580, Note_on_c, 0, 73, 57
2, 815760, Note_on_c, 0, 73, 0
2, 815760, Note_on_c, 0, 85, 0
2, 815760, Note_on_c, 0, 83, 58
2, 815760, Note_on_c, 0, 71, 57
2, 815940, Note_on_c, 0, 71, 0
2, 815940, Note_on_c, 0, 83, 0
2, 815940, Note_on_c, 0, 88, 74
2, 815940, Note_on_c, 0, 76, 77
2, 816120, Note_on_c, 0, 76, 0
2, 816120, Note_on_c, 0, 88, 0
2, 816120, Note_on_c, 0, 83, 54
2, 816120, Note_on_c, 0, 71, 52
2, 816300, Note_on_c, 0, 71, 0
2, 816300, Note_on_c, 0, 83, 0
2, 816300, Note_on_c, 0, 81, 53
2, 816300, Note_on_c, 0, 69, 57
2, 816480, Note_on_c, 0, 69, 0
2, 816480, Note_on_c, 0, 81, 0
2, 816480, Note_on_c, 0, 80, 61
2, 816480, Note_on_c, 0, 68, 58
2, 816660, Note_on_c, 0, 68, 0
2, 816660, Note_on_c, 0, 80, 0
2, 816660, Note_on_c, 0, 83, 70
2, 816660, Note_on_c, 0, 71, 71
2, 816840, Note_on_c, 0, 71, 0
2, 816840, Note_on_c, 0, 83, 0
2, 816840, Note_on_c, 0, 80, 52
2, 816840, Note_on_c, 0, 68, 53
2, 817020, Note_on_c, 0, 68, 0
2, 817020, Note_on_c, 0, 80, 0
2, 817020, Note_on_c, 0, 78, 53
2, 817020, Note_on_c, 0, 66, 52
2, 817200, Note_on_c, 0, 66, 0
2, 817200, Note_on_c, 0, 78, 0
2, 817200, Note_on_c, 0, 76, 56
2, 817200, Note_on_c, 0, 64, 54
2, 817380, Note_on_c, 0, 64, 0
2, 817380, Note_on_c, 0, 76, 0
2, 817380, Note_on_c, 0, 80, 73
2, 817380, Note_on_c, 0, 68, 73
2, 817560, Note_on_c, 0, 68, 0
2, 817560, Note_on_c, 0, 80, 0
2, 817560, Note_on_c, 0, 75, 53
2, 817560, Note_on_c, 0, 63, 55
2, 817740, Note_on_c, 0, 63, 0
2, 817740, Note_on_c, 0, 75, 0
2, 817740, Note_on_c, 0, 73, 53
2, 817740, Note_on_c, 0, 61, 54
2, 817920, Note_on_c, 0, 61, 0
2, 817920, Note_on_c, 0, 73, 0
2, 817920, Note_on_c, 0, 71, 57
2, 817920, Note_on_c, 0, 59, 58
2, 818100, Note_on_c, 0, 59, 0
2, 818100, Note_on_c, 0, 71, 0
2, 818100, Note_on_c, 0, 80, 87
2, 818280, Note_on_c, 0, 80, 0
2, 818280, Note_on_c, 0, 75, 59
2, 818460, Note_on_c, 0, 75, 0
2, 818460, Note_on_c, 0, 73, 57
2, 818460, Note_on_c, 0, 61, 50
2, 818460, Note_on_c, 0, 64, 50
2, 818460, Note_on_c, 0, 69, 50
2, 818640, Note_on_c, 0, 69, 0
2, 818640, Note_on_c, 0, 73, 0
2, 818640, Note_on_c, 0, 61, 0
2, 818640, Note_on_c, 0, 64, 0
2, 818640, Note_on_c, 0, 71, 57
2, 818640, Note_on_c, 0, 59, 54
2, 818640, Note_on_c, 0, 64, 54
2, 818640, Note_on_c, 0, 68, 54
2, 818820, Note_on_c, 0, 71, 0
2, 818820, Note_on_c, 0, 76, 76
2, 819000, Note_on_c, 0, 76, 0
2, 819000, Note_on_c, 0, 68, 0
2, 819000, Note_on_c, 0, 64, 0
2, 819000, Note_on_c, 0, 59, 0
2, 819000, Note_on_c, 0, 71, 48
2, 819180, Note_on_c, 0, 71, 0
2, 819180, Note_on_c, 0, 69, 54
2, 819180, Note_on_c, 0, 61, 51
2, 819180, Note_on_c, 0, 64, 51
2, 819360, Note_on_c, 0, 64, 0
2, 819360, Note_on_c, 0, 61, 0
2, 819360, Note_on_c, 0, 69, 0
2, 819360, Note_on_c, 0, 68, 57
2, 819360, Note_on_c, 0, 59, 61
2, 819360, Note_on_c, 0, 64, 61
2, 819540, Note_on_c, 0, 68, 0
2, 819540, Note_on_c, 0, 71, 67
2, 819720, Note_on_c, 0, 71, 0
2, 819720, Note_on_c, 0, 64, 0
2, 819720, Note_on_c, 0, 59, 0
2, 819720, Note_on_c, 0, 68, 56
2, 819900, Note_on_c, 0, 68, 0
2, 819900, Note_on_c, 0, 66, 55
2, 819900, Note_on_c, 0, 61, 54
2, 820080, Note_on_c, 0, 61, 0
2, 820080, Note_on_c, 0, 66, 0
2, 820080, Note_on_c, 0, 64, 57
2, 820080, Note_on_c, 0, 59, 60
2, 820260, Note_on_c, 0, 64, 0
2, 820260, Note_on_c, 0, 68, 75
2, 820440, Note_on_c, 0, 68, 0
2, 820440, Note_on_c, 0, 59, 0
2, 820440, Note_on_c, 0, 63, 74
2, 820620, Note_on_c, 0, 63, 0
2, 820620, Note_on_c, 0, 61, 59
2, 820800, Note_on_c, 0, 61, 0
2, 820800, Note_on_c, 0, 59, 63
2, 821160, Note_on_c, 0, 59, 0
2, 821160, Note_on_c, 0, 68, 18
2, 821160, Note_on_c, 0, 64, 39
2, 821280, Note_on_c, 0, 68, 0
2, 821280, Note_on_c, 0, 70, 25
2, 821399, Note_on_c, 0, 70, 0
2, 821399, Note_on_c, 0, 72, 27
2, 821520, Note_on_c, 0, 72, 0
2, 821520, Note_on_c, 0, 73, 28
2, 821640, Note_on_c, 0, 73, 0
2, 821640, Note_on_c, 0, 74, 29
2, 821700, Note_on_c, 0, 64, 0
2, 821700, Note_on_c, 0, 68, 30
2, 821759, Note_on_c, 0, 74, 0
2, 821759, Note_on_c, 0, 75, 31
2, 821880, Note_on_c, 0, 75, 0
2, 821880, Note_on_c, 0, 68, 0
2, 821880, Note_on_c, 0, 76, 32
2, 821880, Note_on_c, 0, 68, 32
2, 822000, Note_on_c, 0, 76, 0
2, 822000, Note_on_c, 0, 78, 33
2, 822119, Note_on_c, 0, 78, 0
2, 822119, Note_on_c, 0, 79, 34
2, 822240, Note_on_c, 0, 79, 0
2, 822240, Note_on_c, 0, 68, 0
2, 822240, Note_on_c, 0, 80, 36
2, 822240, Note_on_c, 0, 68, 88
2, 822360, Note_on_c, 0, 80, 0
2, 822360, Note_on_c, 0, 82, 37
2, 822479, Note_on_c, 0, 82, 0
2, 822479, Note_on_c, 0, 84, 38
2, 822600, Note_on_c, 0, 84, 0
2, 822600, Note_on_c, 0, 85, 39
2, 822600, Note_on_c, 0, 73, 39
2, 822720, Note_on_c, 0, 85, 0
2, 822720, Note_on_c, 0, 86, 41
2, 822839, Note_on_c, 0, 86, 0
2, 822839, Note_on_c, 0, 87, 42
2, 822960, Note_on_c, 0, 87, 0
2, 822960, Note_on_c, 0, 73, 0
2, 822960, Note_on_c, 0, 88, 43
2, 822960, Note_on_c, 0, 76, 43
2, 823080, Note_on_c, 0, 88, 0
2, 823080, Note_on_c, 0, 90, 44
2, 823199, Note_on_c, 0, 90, 0
2, 823199, Note_on_c, 0, 91, 46
2, 823320, Note_on_c, 0, 91, 0
2, 823320, Note_on_c, 0, 76, 0
2, 823320, Note_on_c, 0, 92, 47
2, 823320, Note_on_c, 0, 71, 47
2, 823320, Note_on_c, 0, 75, 47
2, 823320, Note_on_c, 0, 80, 47
2, 823410, Note_on_c, 0, 92, 0
2, 823410, Note_on_c, 0, 93, 48
2, 823500, Note_on_c, 0, 93, 0
2, 823500, Note_on_c, 0, 94, 49
2, 823590, Note_on_c, 0, 94, 0
2, 823590, Note_on_c, 0, 95, 50
2, 823680, Note_on_c, 0, 95, 0
2, 823680, Note_on_c, 0, 80, 0
2, 823680, Note_on_c, 0, 68, 0
2, 823680, Note_on_c, 0, 71, 0
2, 823680, Note_on_c, 0, 75, 0
2, 823680, Note_on_c, 0, 88, 51
2, 823680, Note_on_c, 0, 100, 51
2, 823680, Note_on_c, 0, 68, 51
2, 823680, Note_on_c, 0, 71, 51
2, 823680, Note_on_c, 0, 76, 51
2, 824040, Note_on_c, 0, 76, 0
2, 824040, Note_on_c, 0, 68, 0
2, 824040, Note_on_c, 0, 88, 0
2, 824040, Note_on_c, 0, 100, 0
2, 824040, Note_on_c, 0, 71, 0
2, 824400, Note_on_c, 0, 64, 68
2, 824760, Note_on_c, 0, 64, 0
2, 824760, Note_on_c, 0, 64, 76
2, 824880, Note_on_c, 0, 64, 0
2, 824880, Note_on_c, 0, 64, 82
2, 824999, Note_on_c, 0, 64, 0
2, 824999, Note_on_c, 0, 64, 74
2, 825120, Note_on_c, 0, 64, 0
2, 825120, Note_on_c, 0, 64, 78
2, 825480, Note_on_c, 0, 64, 0
2, 825480, End_track
3, 0, Start_track
3, 0, Title_t, "Secondo"
3, 0, Program_c, 0, 0
3, 0, Control_c, 0, 7, 105
3, 0, Control_c, 0, 10, 48
3, 0, Control_c, 0, 91, 60
3, 0, Control_c, 0, 121, 0
3, 0, Control_c, 0, 121, 0
3, 0, Control_c, 0, 91, 60
3, 0, Control_c, 0, 10, 51
3, 0, Control_c, 0, 7, 100
3, 1080, Note_on_c, 0, 44, 61
3, 1080, Note_on_c, 0, 32, 56
3, 1184, Note_on_c, 0, 32, 0
3, 1184, Note_on_c, 0, 44, 0
3, 1200, Note_on_c, 0, 45, 62
3, 1200, Note_on_c, 0, 33, 64
3, 1304, Note_on_c, 0, 33, 0
3, 1304, Note_on_c, 0, 45, 0
3, 1319, Note_on_c, 0, 46, 67
3, 1319, Note_on_c, 0, 34, 67
3, 1425, Note_on_c, 0, 34, 0
3, 1425, Note_on_c, 0, 46, 0
3, 1440, Note_on_c, 0, 47, 102
3, 1440, Note_on_c, 0, 35, 102
3, 1800, Note_on_c, 0, 35, 0
3, 1800, Note_on_c, 0, 47, 0
3, 1800, Note_on_c, 0, 57, 101
3, 1800, Note_on_c, 0, 59, 101
3, 1800, Note_on_c, 0, 63, 101
3, 1800, Note_on_c, 0, 66, 101
3, 1800, Note_on_c, 0, 54, 101
3, 1979, Note_on_c, 0, 54, 0
3, 2160, Note_on_c, 0, 30, 90
3, 2264, Note_on_c, 0, 30, 0
3, 2280, Note_on_c, 0, 32, 101
3, 2384, Note_on_c, 0, 32, 0
3, 2399, Note_on_c, 0, 33, 102
3, 2505, Note_on_c, 0, 33, 0
3, 2520, Note_on_c, 0, 66, 0
3, 2520, Note_on_c, 0, 57, 0
3, 2520, Note_on_c, 0, 59, 0
3, 2520, Note_on_c, 0, 63, 0
3, 2520, Note_on_c, 0, 56, 85
3, 2520, Note_on_c, 0, 57, 85
3, 2520, Note_on_c, 0, 61, 85
3, 2520, Note_on_c, 0, 64, 85
3, 2880, Note_on_c, 0, 64, 0
3, 2880, Note_on_c, 0, 56, 0
3, 2880, Note_on_c, 0, 57, 0
3, 2880, Note_on_c, 0, 61, 0
3, 2880, Note_on_c, 0, 57, 91
3, 2880, Note_on_c, 0, 59, 91
3, 2880, Note_on_c, 0, 63, 91
3, 2880, Note_on_c, 0, 66, 91
3, 2880, Note_on_c, 0, 35, 102
3, 3240, Note_on_c, 0, 35, 0
3, 3240, Note_on_c, 0, 63, 0
3, 3240, Note_on_c, 0, 57, 0
3, 3240, Note_on_c, 0, 59, 0
3, 3240, Note_on_c, 0, 66, 0
3, 3240, Note_on_c, 0, 57, 100
3, 3240, Note_on_c, 0, 59, 100
3, 3240, Note_on_c, 0, 63, 100
3, 3240, Note_on_c, 0, 66, 100
3, 3240, Note_on_c, 0, 54, 101
3, 3419, Note_on_c, 0, 54, 0
3, 3600, Note_on_c, 0, 28, 84
3, 3704, Note_on_c, 0, 28, 0
3, 3720, Note_on_c, 0, 32, 102
3, 3824, Note_on_c, 0, 32, 0
3, 3839, Note_on_c, 0, 63, 0
3, 3839, Note_on_c, 0, 57, 0
3, 3839, Note_on_c, 0, 59, 0
3, 3839, Note_on_c, 0, 66, 0
3, 3839, Note_on_c, 0, 54, 86
3, 3839, Note_on_c, 0, 57, 86
3, 3839, Note_on_c, 0, 63, 86
3, 3839, Note_on_c, 0, 66, 86
3, 3839, Note_on_c, 0, 33, 102
3, 3945, Note_on_c, 0, 33, 0
3, 3960, Note_on_c, 0, 63, 0
3, 3960, Note_on_c, 0, 54, 0
3, 3960, Note_on_c, 0, 57, 0
3, 3960, Note_on_c, 0, 66, 0
3, 3960, Note_on_c, 0, 56, 77
3, 3960, Note_on_c, 0, 61, 77
3, 3960, Note_on_c, 0, 64, 77
3, 4320, Note_on_c, 0, 64, 0
3, 4320, Note_on_c, 0, 61, 0
3, 4320, Note_on_c, 0, 56, 0
3, 4320, Note_on_c, 0, 57, 95
3, 4320, Note_on_c, 0, 59, 95
3, 4320, Note_on_c, 0, 63, 95
3, 4320, Note_on_c, 0, 66, 95
3, 4320, Note_on_c, 0, 35, 101
3, 4680, Note_on_c, 0, 35, 0
3, 4680, Note_on_c, 0, 63, 0
3, 4680, Note_on_c, 0, 57, 0
3, 4680, Note_on_c, 0, 59, 0
3, 4680, Note_on_c, 0, 66, 0
3, 4680, Note_on_c, 0, 57, 100
3, 4680, Note_on_c, 0, 59, 100
3, 4680, Note_on_c, 0, 63, 100
3, 4680, Note_on_c, 0, 66, 100
3, 4680, Note_on_c, 0, 47, 102
3, 5279, Note_on_c, 0, 47, 0
3, 5279, Note_on_c, 0, 42, 79
3, 5313, Note_on_c, 0, 63, 0
3, 5313, Note_on_c, 0, 66, 0
3, 5313, Note_on_c, 0, 57, 0
3, 5313, Note_on_c, 0, 59, 0
3, 5400, Note_on_c, 0, 42, 0
3, 5400, Note_on_c, 0, 56, 102
3, 5400, Note_on_c, 0, 61, 102
3, 5400, Note_on_c, 0, 64, 102
3, 5400, Note_on_c, 0, 68, 102
3, 5400, Note_on_c, 0, 40, 82
3, 5999, Note_on_c, 0, 40, 0
3, 5999, Note_on_c, 0, 37, 82
3, 6120, Note_on_c, 0, 37, 0
3, 6120, Note_on_c, 0, 68, 0
3, 6120, Note_on_c, 0, 56, 0
3, 6120, Note_on_c, 0, 61, 0
3, 6120, Note_on_c, 0, 64, 0
3, 6120, Note_on_c, 0, 56, 89
3, 6120, Note_on_c, 0, 59, 89
3, 6120, Note_on_c, 0, 63, 89
3, 6120, Note_on_c, 0, 68, 89
3, 6120, Note_on_c, 0, 35, 81
3, 6359, Note_on_c, 0, 35, 0
3, 6359, Note_on_c, 0, 32, 79
3, 6480, Note_on_c, 0, 32, 0
3, 6480, Note_on_c, 0, 68, 0
3, 6480, Note_on_c, 0, 56, 0
3, 6480, Note_on_c, 0, 59, 0
3, 6480, Note_on_c, 0, 63, 0
3, 6480, Note_on_c, 0, 57, 78
3, 6480, Note_on_c, 0, 61, 78
3, 6480, Note_on_c, 0, 66, 78
3, 6480, Note_on_c, 0, 30, 86
3, 6600, Note_on_c, 0, 30, 0
3, 6600, Note_on_c, 0, 32, 89
3, 6719, Note_on_c, 0, 32, 0
3, 6719, Note_on_c, 0, 33, 89
3, 6840, Note_on_c, 0, 33, 0
3, 6840, Note_on_c, 0, 57, 0
3, 6840, Note_on_c, 0, 61, 0
3, 6840, Note_on_c, 0, 66, 0
3, 6840, Note_on_c, 0, 57, 76
3, 6840, Note_on_c, 0, 59, 76
3, 6840, Note_on_c, 0, 63, 76
3, 6840, Note_on_c, 0, 35, 92
3, 7200, Note_on_c, 0, 35, 0
3, 7200, Note_on_c, 0, 57, 0
3, 7200, Note_on_c, 0, 59, 0
3, 7200, Note_on_c, 0, 63, 0
3, 7200, Note_on_c, 0, 56, 89
3, 7200, Note_on_c, 0, 59, 89
3, 7200, Note_on_c, 0, 64, 89
3, 7200, Note_on_c, 0, 40, 101
3, 7200, Note_on_c, 0, 47, 101
3, 7560, Note_on_c, 0, 47, 0
3, 7560, Note_on_c, 0, 64, 0
3, 7560, Note_on_c, 0, 56, 0
3, 7560, Note_on_c, 0, 59, 0
3, 7560, Note_on_c, 0, 40, 0
3, 7560, Note_on_c, 0, 64, 87
3, 7920, Note_on_c, 0, 64, 0
3, 7920, Note_on_c, 0, 64, 90
3, 8040, Note_on_c, 0, 64, 0
3, 8040, Note_on_c, 0, 64, 92
3, 8159, Note_on_c, 0, 64, 0
3, 8159, Note_on_c, 0, 64, 88
3, 8280, Note_on_c, 0, 64, 0
3, 8280, Note_on_c, 0, 64, 102
3, 9000, Note_on_c, 0, 64, 0
3, 9000, Note_on_c, 0, 64, 85
3, 9000, Note_on_c, 0, 59, 76
3, 9120, Note_on_c, 0, 59, 0
3, 9120, Note_on_c, 0, 60, 95
3, 9239, Note_on_c, 0, 60, 0
3, 9239, Note_on_c, 0, 61, 94
3, 9360, Note_on_c, 0, 61, 0
3, 9360, Note_on_c, 0, 64, 0
3, 9360, Note_on_c, 0, 64, 85
3, 9360, Note_on_c, 0, 62, 102
3, 9599, Note_on_c, 0, 64, 0
3, 9599, Note_on_c, 0, 68, 99
3, 9720, Note_on_c, 0, 68, 0
3, 9720, Note_on_c, 0, 62, 0
3, 9720, Note_on_c, 0, 66, 102
3, 9720, Note_on_c, 0, 69, 102
3, 9720, Note_on_c, 0, 62, 102
3, 9840, Note_on_c, 0, 69, 0
3, 9840, Note_on_c, 0, 66, 0
3, 9840, Note_on_c, 0, 68, 80
3, 9959, Note_on_c, 0, 68, 0
3, 9959, Note_on_c, 0, 66, 82
3, 10080, Note_on_c, 0, 66, 0
3, 10080, Note_on_c, 0, 62, 0
3, 10080, Note_on_c, 0, 69, 95
3, 10080, Note_on_c, 0, 64, 39
3, 10080, Note_on_c, 0, 61, 81
3, 10319, Note_on_c, 0, 64, 0
3, 10319, Note_on_c, 0, 66, 52
3, 10440, Note_on_c, 0, 66, 0
3, 10440, Note_on_c, 0, 61, 0
3, 10440, Note_on_c, 0, 69, 0
3, 10440, Note_on_c, 0, 64, 102
3, 10440, Note_on_c, 0, 68, 102
3, 10440, Note_on_c, 0, 60, 102
3, 10560, Note_on_c, 0, 68, 0
3, 10560, Note_on_c, 0, 64, 0
3, 10560, Note_on_c, 0, 66, 81
3, 10679, Note_on_c, 0, 66, 0
3, 10679, Note_on_c, 0, 64, 83
3, 10800, Note_on_c, 0, 64, 0
3, 10800, Note_on_c, 0, 60, 0
3, 10800, Note_on_c, 0, 68, 97
3, 10800, Note_on_c, 0, 63, 48
3, 10800, Note_on_c, 0, 59, 86
3, 11039, Note_on_c, 0, 63, 0
3, 11039, Note_on_c, 0, 63, 50
3, 11160, Note_on_c, 0, 63, 0
3, 11160, Note_on_c, 0, 59, 0
3, 11160, Note_on_c, 0, 68, 0
3, 11160, Note_on_c, 0, 64, 102
3, 11160, Note_on_c, 0, 68, 102
3, 11160, Note_on_c, 0, 58, 102
3, 11160, Note_on_c, 0, 61, 102
3, 11280, Note_on_c, 0, 68, 0
3, 11280, Note_on_c, 0, 64, 0
3, 11280, Note_on_c, 0, 63, 70
3, 11399, Note_on_c, 0, 63, 0
3, 11399, Note_on_c, 0, 61, 78
3, 11520, Note_on_c, 0, 61, 0
3, 11520, Note_on_c, 0, 58, 0
3, 11520, Note_on_c, 0, 61, 0
3, 11520, Note_on_c, 0, 60, 94
3, 11520, Note_on_c, 0, 64, 94
3, 11520, Note_on_c, 0, 57, 79
3, 11699, Note_on_c, 0, 57, 0
3, 11759, Note_on_c, 0, 64, 0
3, 11759, Note_on_c, 0, 60, 0
3, 11759, Note_on_c, 0, 63, 85
3, 11880, Note_on_c, 0, 63, 0
3, 11880, Note_on_c, 0, 61, 88
3, 11880, Note_on_c, 0, 63, 88
3, 11880, Note_on_c, 0, 56, 87
3, 12059, Note_on_c, 0, 56, 0
3, 12119, Note_on_c, 0, 63, 0
3, 12119, Note_on_c, 0, 61, 0
3, 12119, Note_on_c, 0, 64, 93
3, 12240, Note_on_c, 0, 64, 0
3, 12240, Note_on_c, 0, 57, 88
3, 12240, Note_on_c, 0, 62, 88
3, 12240, Note_on_c, 0, 65, 88
3, 12240, Note_on_c, 0, 54, 86
3, 12419, Note_on_c, 0, 54, 0
3, 12479, Note_on_c, 0, 57, 0
3, 12479, Note_on_c, 0, 62, 0
3, 12479, Note_on_c, 0, 65, 0
3, 12479, Note_on_c, 0, 66, 93
3, 12600, Note_on_c, 0, 66, 0
3, 12600, Note_on_c, 0, 57, 88
3, 12600, Note_on_c, 0, 63, 88
3, 12600, Note_on_c, 0, 66, 88
3, 12600, Note_on_c, 0, 35, 80
3, 12600, Note_on_c, 0, 47, 80
3, 12779, Note_on_c, 0, 47, 0
3, 12779, Note_on_c, 0, 35, 0
3, 12960, Note_on_c, 0, 57, 0
3, 12960, Note_on_c, 0, 63, 0
3, 12960, Note_on_c, 0, 66, 0
3, 12960, Note_on_c, 0, 56, 81
3, 12960, Note_on_c, 0, 64, 81
3, 12960, Note_on_c, 0, 40, 92
3, 12960, Note_on_c, 0, 47, 92
3, 12960, Note_on_c, 0, 52, 92
3, 13320, Note_on_c, 0, 52, 0
3, 13320, Note_on_c, 0, 40, 0
3, 13320, Note_on_c, 0, 56, 0
3, 13320, Note_on_c, 0, 64, 0
3, 13320, Note_on_c, 0, 47, 0
3, 13320, Note_on_c, 0, 64, 87
3, 13440, Note_on_c, 0, 64, 0
3, 13440, Note_on_c, 0, 64, 87
3, 13559, Note_on_c, 0, 64, 0
3, 13559, Note_on_c, 0, 64, 85
3, 13680, Note_on_c, 0, 64, 0
3, 13680, Note_on_c, 0, 64, 102
3, 14279, Note_on_c, 0, 64, 0
3, 14279, Note_on_c, 0, 64, 96
3, 14400, Note_on_c, 0, 64, 0
3, 14400, Note_on_c, 0, 64, 87
3, 14639, Note_on_c, 0, 58, 74
3, 14760, Note_on_c, 0, 58, 0
3, 14760, Note_on_c, 0, 64, 0
3, 14760, Note_on_c, 0, 64, 88
3, 14760, Note_on_c, 0, 59, 93
3, 14880, Note_on_c, 0, 59, 0
3, 14880, Note_on_c, 0, 60, 92
3, 14999, Note_on_c, 0, 60, 0
3, 14999, Note_on_c, 0, 61, 96
3, 15120, Note_on_c, 0, 61, 0
3, 15120, Note_on_c, 0, 64, 0
3, 15120, Note_on_c, 0, 64, 92
3, 15120, Note_on_c, 0, 62, 102
3, 15359, Note_on_c, 0, 64, 0
3, 15359, Note_on_c, 0, 68, 100
3, 15480, Note_on_c, 0, 68, 0
3, 15480, Note_on_c, 0, 62, 0
3, 15480, Note_on_c, 0, 66, 91
3, 15480, Note_on_c, 0, 69, 91
3, 15480, Note_on_c, 0, 62, 102
3, 15600, Note_on_c, 0, 69, 0
3, 15600, Note_on_c, 0, 66, 0
3, 15600, Note_on_c, 0, 68, 84
3, 15719, Note_on_c, 0, 68, 0
3, 15719, Note_on_c, 0, 66, 84
3, 15840, Note_on_c, 0, 66, 0
3, 15840, Note_on_c, 0, 62, 0
3, 15840, Note_on_c, 0, 69, 98
3, 15840, Note_on_c, 0, 64, 56
3, 15840, Note_on_c, 0, 61, 80
3, 16079, Note_on_c, 0, 64, 0
3, 16079, Note_on_c, 0, 66, 59
3, 16200, Note_on_c, 0, 66, 0
3, 16200, Note_on_c, 0, 61, 0
3, 16200, Note_on_c, 0, 69, 0
3, 16200, Note_on_c, 0, 64, 81
3, 16200, Note_on_c, 0, 68, 81
3, 16200, Note_on_c, 0, 60, 92
3, 16320, Note_on_c, 0, 68, 0
3, 16320, Note_on_c, 0, 64, 0
3, 16320, Note_on_c, 0, 66, 83
3, 16439, Note_on_c, 0, 66, 0
3, 16439, Note_on_c, 0, 64, 78
3, 16517, Note_on_c, 0, 60, 0
3, 16560, Note_on_c, 0, 64, 0
3, 16560, Note_on_c, 0, 68, 100
3, 16560, Note_on_c, 0, 63, 46
3, 16560, Note_on_c, 0, 59, 85
3, 16799, Note_on_c, 0, 63, 0
3, 16799, Note_on_c, 0, 63, 48
3, 16920, Note_on_c, 0, 63, 0
3, 16920, Note_on_c, 0, 59, 0
3, 16920, Note_on_c, 0, 68, 0
3, 16920, Note_on_c, 0, 64, 89
3, 16920, Note_on_c, 0, 68, 89
3, 16920, Note_on_c, 0, 58, 102
3, 16920, Note_on_c, 0, 61, 102
3, 17040, Note_on_c, 0, 68, 0
3, 17040, Note_on_c, 0, 64, 0
3, 17040, Note_on_c, 0, 63, 72
3, 17159, Note_on_c, 0, 63, 0
3, 17159, Note_on_c, 0, 61, 81
3, 17237, Note_on_c, 0, 58, 0
3, 17237, Note_on_c, 0, 61, 0
3, 17280, Note_on_c, 0, 61, 0
3, 17280, Note_on_c, 0, 61, 100
3, 17280, Note_on_c, 0, 66, 100
3, 17280, Note_on_c, 0, 57, 83
3, 17640, Note_on_c, 0, 57, 0
3, 17640, Note_on_c, 0, 66, 0
3, 17640, Note_on_c, 0, 61, 0
3, 17640, Note_on_c, 0, 59, 95
3, 17640, Note_on_c, 0, 65, 95
3, 17640, Note_on_c, 0, 68, 95
3, 17640, Note_on_c, 0, 56, 79
3, 17760, Note_on_c, 0, 56, 0
3, 17760, Note_on_c, 0, 57, 88
3, 17879, Note_on_c, 0, 57, 0
3, 17879, Note_on_c, 0, 56, 87
3, 18000, Note_on_c, 0, 56, 0
3, 18000, Note_on_c, 0, 59, 0
3, 18000, Note_on_c, 0, 65, 0
3, 18000, Note_on_c, 0, 68, 0
3, 18000, Note_on_c, 0, 57, 92
3, 18000, Note_on_c, 0, 61, 92
3, 18000, Note_on_c, 0, 64, 92
3, 18000, Note_on_c, 0, 69, 92
3, 18000, Note_on_c, 0, 54, 85
3, 18120, Note_on_c, 0, 54, 0
3, 18120, Note_on_c, 0, 56, 91
3, 18239, Note_on_c, 0, 56, 0
3, 18239, Note_on_c, 0, 69, 0
3, 18239, Note_on_c, 0, 57, 0
3, 18239, Note_on_c, 0, 61, 0
3, 18239, Note_on_c, 0, 64, 0
3, 18239, Note_on_c, 0, 63, 72
3, 18239, Note_on_c, 0, 54, 85
3, 18360, Note_on_c, 0, 54, 0
3, 18360, Note_on_c, 0, 63, 0
3, 18360, Note_on_c, 0, 56, 97
3, 18360, Note_on_c, 0, 62, 97
3, 18360, Note_on_c, 0, 64, 97
3, 18360, Note_on_c, 0, 68, 97
3, 18360, Note_on_c, 0, 40, 85
3, 18360, Note_on_c, 0, 52, 85
3, 18720, Note_on_c, 0, 52, 0
3, 18720, Note_on_c, 0, 62, 0
3, 18720, Note_on_c, 0, 64, 0
3, 18720, Note_on_c, 0, 56, 0
3, 18720, Note_on_c, 0, 40, 0
3, 18720, Note_on_c, 0, 68, 0
3, 18720, Note_on_c, 0, 57, 97
3, 18720, Note_on_c, 0, 61, 97
3, 18720, Note_on_c, 0, 64, 97
3, 18720, Note_on_c, 0, 69, 97
3, 18720, Note_on_c, 0, 45, 92
3, 18720, Note_on_c, 0, 52, 92
3, 19080, Note_on_c, 0, 52, 0
3, 19080, Note_on_c, 0, 61, 0
3, 19080, Note_on_c, 0, 64, 0
3, 19080, Note_on_c, 0, 57, 0
3, 19080, Note_on_c, 0, 45, 0
3, 19080, Note_on_c, 0, 69, 0
3, 19440, Note_on_c, 0, 52, 102
3, 19440, Note_on_c, 0, 57, 102
3, 19440, Note_on_c, 0, 61, 102
3, 19440, Note_on_c, 0, 33, 98
3, 19440, Note_on_c, 0, 45, 98
3, 20520, Note_on_c, 0, 45, 0
3, 20520, Note_on_c, 0, 61, 0
3, 20520, Note_on_c, 0, 52, 0
3, 20520, Note_on_c, 0, 57, 0
3, 20520, Note_on_c, 0, 33, 0
3, 20520, Note_on_c, 0, 56, 101
3, 20520, Note_on_c, 0, 62, 101
3, 20520, Note_on_c, 0, 66, 101
3, 20520, Note_on_c, 0, 35, 88
3, 20520, Note_on_c, 0, 47, 88
3, 20699, Note_on_c, 0, 47, 0
3, 20699, Note_on_c, 0, 66, 0
3, 20699, Note_on_c, 0, 56, 0
3, 20699, Note_on_c, 0, 62, 0
3, 20699, Note_on_c, 0, 35, 0
3, 20880, Note_on_c, 0, 57, 90
3, 20880, Note_on_c, 0, 61, 90
3, 20880, Note_on_c, 0, 66, 90
3, 20880, Note_on_c, 0, 37, 88
3, 20880, Note_on_c, 0, 49, 88
3, 21059, Note_on_c, 0, 49, 0
3, 21059, Note_on_c, 0, 66, 0
3, 21059, Note_on_c, 0, 57, 0
3, 21059, Note_on_c, 0, 61, 0
3, 21059, Note_on_c, 0, 37, 0
3, 21240, Note_on_c, 0, 59, 84
3, 21240, Note_on_c, 0, 61, 84
3, 21240, Note_on_c, 0, 65, 84
3, 21240, Note_on_c, 0, 37, 84
3, 21240, Note_on_c, 0, 49, 84
3, 21419, Note_on_c, 0, 49, 0
3, 21419, Note_on_c, 0, 65, 0
3, 21419, Note_on_c, 0, 59, 0
3, 21419, Note_on_c, 0, 61, 0
3, 21419, Note_on_c, 0, 37, 0
3, 21600, Note_on_c, 0, 57, 93
3, 21600, Note_on_c, 0, 61, 93
3, 21600, Note_on_c, 0, 66, 93
3, 21600, Note_on_c, 0, 42, 85
3, 21600, Note_on_c, 0, 49, 85
3, 21779, Note_on_c, 0, 49, 0
3, 21779, Note_on_c, 0, 66, 0
3, 21779, Note_on_c, 0, 57, 0
3, 21779, Note_on_c, 0, 61, 0
3, 21779, Note_on_c, 0, 42, 0
3, 22320, Note_on_c, 0, 49, 99
3, 22320, Note_on_c, 0, 54, 99
3, 22320, Note_on_c, 0, 57, 99
3, 22320, Note_on_c, 0, 30, 100
3, 22320, Note_on_c, 0, 42, 100
3, 23040, Note_on_c, 0, 57, 0
3, 23040, Note_on_c, 0, 49, 0
3, 23040, Note_on_c, 0, 54, 0
3, 23400, Note_on_c, 0, 30, 0
3, 23400, Note_on_c, 0, 42, 0
3, 23400, Note_on_c, 0, 54, 88
3, 23400, Note_on_c, 0, 59, 88
3, 23400, Note_on_c, 0, 62, 88
3, 23400, Note_on_c, 0, 32, 88
3, 23400, Note_on_c, 0, 44, 88
3, 23579, Note_on_c, 0, 44, 0
3, 23579, Note_on_c, 0, 62, 0
3, 23579, Note_on_c, 0, 54, 0
3, 23579, Note_on_c, 0, 59, 0
3, 23579, Note_on_c, 0, 32, 0
3, 23760, Note_on_c, 0, 54, 79
3, 23760, Note_on_c, 0, 61, 79
3, 23760, Note_on_c, 0, 33, 79
3, 23760, Note_on_c, 0, 45, 79
3, 23939, Note_on_c, 0, 45, 0
3, 23939, Note_on_c, 0, 54, 0
3, 23939, Note_on_c, 0, 61, 0
3, 23939, Note_on_c, 0, 33, 0
3, 24120, Note_on_c, 0, 54, 71
3, 24120, Note_on_c, 0, 61, 71
3, 24120, Note_on_c, 0, 34, 71
3, 24120, Note_on_c, 0, 46, 71
3, 24299, Note_on_c, 0, 46, 0
3, 24299, Note_on_c, 0, 54, 0
3, 24299, Note_on_c, 0, 61, 0
3, 24299, Note_on_c, 0, 34, 0
3, 24480, Note_on_c, 0, 54, 34
3, 24480, Note_on_c, 0, 59, 34
3, 24480, Note_on_c, 0, 35, 41
3, 24480, Note_on_c, 0, 47, 41
3, 24719, Note_on_c, 0, 59, 0
3, 24719, Note_on_c, 0, 54, 0
3, 24719, Note_on_c, 0, 59, 41
3, 24719, Note_on_c, 0, 63, 41
3, 24840, Note_on_c, 0, 63, 0
3, 24840, Note_on_c, 0, 59, 0
3, 24840, Note_on_c, 0, 59, 39
3, 24840, Note_on_c, 0, 63, 39
3, 24840, Note_on_c, 0, 59, 23
3, 25200, Note_on_c, 0, 59, 0
3, 25200, Note_on_c, 0, 57, 29
3, 25439, Note_on_c, 0, 63, 0
3, 25439, Note_on_c, 0, 59, 0
3, 25439, Note_on_c, 0, 61, 38
3, 25439, Note_on_c, 0, 64, 38
3, 25560, Note_on_c, 0, 64, 0
3, 25560, Note_on_c, 0, 57, 0
3, 25560, Note_on_c, 0, 61, 0
3, 25560, Note_on_c, 0, 61, 36
3, 25560, Note_on_c, 0, 64, 36
3, 25560, Note_on_c, 0, 56, 23
3, 25920, Note_on_c, 0, 56, 0
3, 25920, Note_on_c, 0, 54, 22
3, 26159, Note_on_c, 0, 61, 0
3, 26159, Note_on_c, 0, 64, 0
3, 26159, Note_on_c, 0, 57, 31
3, 26159, Note_on_c, 0, 61, 31
3, 26280, Note_on_c, 0, 61, 0
3, 26280, Note_on_c, 0, 54, 0
3, 26280, Note_on_c, 0, 57, 0
3, 26280, Note_on_c, 0, 57, 33
3, 26280, Note_on_c, 0, 61, 33
3, 27360, Note_on_c, 0, 61, 0
3, 27360, Note_on_c, 0, 47, 0
3, 27360, Note_on_c, 0, 35, 0
3, 27360, Note_on_c, 0, 57, 0
3, 27360, Note_on_c, 0, 63, 42
3, 27360, Note_on_c, 0, 54, 28
3, 27360, Note_on_c, 0, 57, 28
3, 27360, Note_on_c, 0, 35, 39
3, 27360, Note_on_c, 0, 47, 39
3, 27599, Note_on_c, 0, 63, 0
3, 27599, Note_on_c, 0, 63, 45
3, 27599, Note_on_c, 0, 66, 45
3, 27720, Note_on_c, 0, 66, 0
3, 27720, Note_on_c, 0, 63, 0
3, 27720, Note_on_c, 0, 63, 41
3, 27720, Note_on_c, 0, 66, 41
3, 28080, Note_on_c, 0, 66, 0
3, 28080, Note_on_c, 0, 63, 0
3, 28080, Note_on_c, 0, 63, 30
3, 28080, Note_on_c, 0, 61, 20
3, 28440, Note_on_c, 0, 61, 0
3, 28440, Note_on_c, 0, 59, 20
3, 28800, Note_on_c, 0, 59, 0
3, 28800, Note_on_c, 0, 57, 0
3, 28800, Note_on_c, 0, 57, 39
3, 29039, Note_on_c, 0, 57, 0
3, 29039, Note_on_c, 0, 63, 0
3, 29039, Note_on_c, 0, 57, 39
3, 29039, Note_on_c, 0, 61, 39
3, 29039, Note_on_c, 0, 64, 39
3, 29160, Note_on_c, 0, 64, 0
3, 29160, Note_on_c, 0, 57, 0
3, 29160, Note_on_c, 0, 54, 0
3, 29160, Note_on_c, 0, 61, 0
3, 29160, Note_on_c, 0, 57, 37
3, 29160, Note_on_c, 0, 61, 37
3, 29160, Note_on_c, 0, 64, 37
3, 30240, Note_on_c, 0, 64, 0
3, 30240, Note_on_c, 0, 57, 0
3, 30240, Note_on_c, 0, 61, 0
3, 30240, Note_on_c, 0, 54, 65
3, 30240, Note_on_c, 0, 57, 65
3, 30240, Note_on_c, 0, 63, 65
3, 30600, Note_on_c, 0, 63, 0
3, 30600, Note_on_c, 0, 54, 0
3, 30600, Note_on_c, 0, 47, 0
3, 30600, Note_on_c, 0, 35, 0
3, 30600, Note_on_c, 0, 57, 0
3, 30600, Note_on_c, 0, 59, 67
3, 30600, Note_on_c, 0, 63, 67
3, 30600, Note_on_c, 0, 51, 80
3, 30839, Note_on_c, 0, 51, 0
3, 30839, Note_on_c, 0, 63, 0
3, 30839, Note_on_c, 0, 59, 0
3, 30839, Note_on_c, 0, 61, 69
3, 30839, Note_on_c, 0, 49, 70
3, 30960, Note_on_c, 0, 49, 0
3, 30960, Note_on_c, 0, 61, 0
3, 30960, Note_on_c, 0, 59, 70
3, 30960, Note_on_c, 0, 47, 67
3, 31199, Note_on_c, 0, 47, 0
3, 31199, Note_on_c, 0, 59, 0
3, 31199, Note_on_c, 0, 56, 62
3, 31199, Note_on_c, 0, 44, 71
3, 31320, Note_on_c, 0, 44, 0
3, 31320, Note_on_c, 0, 56, 0
3, 31320, Note_on_c, 0, 54, 102
3, 31320, Note_on_c, 0, 57, 102
3, 31320, Note_on_c, 0, 61, 102
3, 31320, Note_on_c, 0, 42, 72
3, 31559, Note_on_c, 0, 42, 0
3, 31559, Note_on_c, 0, 37, 67
3, 31680, Note_on_c, 0, 37, 0
3, 31680, Note_on_c, 0, 61, 0
3, 31680, Note_on_c, 0, 57, 0
3, 31680, Note_on_c, 0, 54, 0
3, 31680, Note_on_c, 0, 59, 80
3, 31680, Note_on_c, 0, 63, 80
3, 31680, Note_on_c, 0, 35, 102
3, 31680, Note_on_c, 0, 47, 102
3, 32040, Note_on_c, 0, 47, 0
3, 32040, Note_on_c, 0, 59, 0
3, 32040, Note_on_c, 0, 63, 0
3, 32040, Note_on_c, 0, 35, 0
3, 32040, Note_on_c, 0, 59, 72
3, 32040, Note_on_c, 0, 63, 72
3, 32040, Note_on_c, 0, 51, 82
3, 32160, Note_on_c, 0, 51, 0
3, 32160, Note_on_c, 0, 63, 0
3, 32160, Note_on_c, 0, 59, 0
3, 32160, Note_on_c, 0, 61, 67
3, 32160, Note_on_c, 0, 49, 72
3, 32279, Note_on_c, 0, 49, 0
3, 32279, Note_on_c, 0, 61, 0
3, 32279, Note_on_c, 0, 59, 69
3, 32279, Note_on_c, 0, 47, 63
3, 32400, Note_on_c, 0, 47, 0
3, 32400, Note_on_c, 0, 59, 0
3, 32400, Note_on_c, 0, 59, 74
3, 32400, Note_on_c, 0, 47, 70
3, 32639, Note_on_c, 0, 47, 0
3, 32639, Note_on_c, 0, 59, 0
3, 32639, Note_on_c, 0, 56, 68
3, 32639, Note_on_c, 0, 44, 68
3, 32760, Note_on_c, 0, 44, 0
3, 32760, Note_on_c, 0, 56, 0
3, 32760, Note_on_c, 0, 61, 102
3, 32760, Note_on_c, 0, 54, 23
3, 32760, Note_on_c, 0, 57, 23
3, 32760, Note_on_c, 0, 42, 64
3, 32880, Note_on_c, 0, 61, 0
3, 32880, Note_on_c, 0, 63, 78
3, 32999, Note_on_c, 0, 63, 0
3, 32999, Note_on_c, 0, 42, 0
3, 32999, Note_on_c, 0, 64, 81
3, 32999, Note_on_c, 0, 37, 62
3, 33120, Note_on_c, 0, 37, 0
3, 33120, Note_on_c, 0, 54, 0
3, 33120, Note_on_c, 0, 57, 0
3, 33120, Note_on_c, 0, 64, 0
3, 33120, Note_on_c, 0, 59, 68
3, 33120, Note_on_c, 0, 63, 68
3, 33120, Note_on_c, 0, 35, 102
3, 33120, Note_on_c, 0, 47, 102
3, 33480, Note_on_c, 0, 47, 0
3, 33480, Note_on_c, 0, 59, 0
3, 33480, Note_on_c, 0, 63, 0
3, 33480, Note_on_c, 0, 35, 0
3, 33480, Note_on_c, 0, 59, 72
3, 33480, Note_on_c, 0, 63, 72
3, 33719, Note_on_c, 0, 63, 0
3, 33719, Note_on_c, 0, 59, 0
3, 33719, Note_on_c, 0, 54, 75
3, 33719, Note_on_c, 0, 61, 75
3, 33840, Note_on_c, 0, 61, 0
3, 33840, Note_on_c, 0, 54, 0
3, 33840, Note_on_c, 0, 59, 76
3, 33840, Note_on_c, 0, 63, 76
3, 34439, Note_on_c, 0, 63, 0
3, 34439, Note_on_c, 0, 59, 0
3, 34439, Note_on_c, 0, 54, 82
3, 34439, Note_on_c, 0, 61, 82
3, 34560, Note_on_c, 0, 61, 0
3, 34560, Note_on_c, 0, 54, 0
3, 34560, Note_on_c, 0, 59, 83
3, 34560, Note_on_c, 0, 63, 83
3, 35159, Note_on_c, 0, 63, 0
3, 35159, Note_on_c, 0, 59, 0
3, 35159, Note_on_c, 0, 54, 89
3, 35159, Note_on_c, 0, 61, 89
3, 35280, Note_on_c, 0, 61, 0
3, 35280, Note_on_c, 0, 54, 0
3, 35280, Note_on_c, 0, 59, 90
3, 35280, Note_on_c, 0, 63, 90
3, 35640, Note_on_c, 0, 42, 61
3, 35640, Note_on_c, 0, 30, 26
3, 35760, Note_on_c, 0, 30, 0
3, 35760, Note_on_c, 0, 32, 24
3, 35879, Note_on_c, 0, 32, 0
3, 35879, Note_on_c, 0, 63, 0
3, 35879, Note_on_c, 0, 59, 0
3, 35879, Note_on_c, 0, 54, 96
3, 35879, Note_on_c, 0, 61, 96
3, 35879, Note_on_c, 0, 33, 29
3, 36000, Note_on_c, 0, 33, 0
3, 36000, Note_on_c, 0, 42, 0
3, 36000, Note_on_c, 0, 54, 0
3, 36000, Note_on_c, 0, 61, 0
3, 36000, Note_on_c, 0, 59, 94
3, 36000, Note_on_c, 0, 63, 94
3, 36000, Note_on_c, 0, 35, 102
3, 36360, Note_on_c, 0, 35, 0
3, 36360, Note_on_c, 0, 63, 0
3, 36360, Note_on_c, 0, 59, 0
3, 36360, Note_on_c, 0, 57, 96
3, 36360, Note_on_c, 0, 59, 96
3, 36360, Note_on_c, 0, 63, 96
3, 36360, Note_on_c, 0, 66, 96
3, 36360, Note_on_c, 0, 47, 101
3, 36959, Note_on_c, 0, 66, 0
3, 36959, Note_on_c, 0, 63, 0
3, 36959, Note_on_c, 0, 57, 0
3, 36959, Note_on_c, 0, 59, 0
3, 36959, Note_on_c, 0, 54, 87
3, 36959, Note_on_c, 0, 57, 87
3, 36959, Note_on_c, 0, 63, 87
3, 36959, Note_on_c, 0, 66, 87
3, 37080, Note_on_c, 0, 66, 0
3, 37080, Note_on_c, 0, 57, 0
3, 37080, Note_on_c, 0, 47, 0
3, 37080, Note_on_c, 0, 54, 0
3, 37080, Note_on_c, 0, 63, 0
3, 37080, Note_on_c, 0, 56, 84
3, 37080, Note_on_c, 0, 61, 84
3, 37080, Note_on_c, 0, 64, 84
3, 37080, Note_on_c, 0, 40, 97
3, 37080, Note_on_c, 0, 52, 97
3, 37679, Note_on_c, 0, 52, 0
3, 37679, Note_on_c, 0, 40, 0
3, 37679, Note_on_c, 0, 37, 84
3, 37679, Note_on_c, 0, 49, 84
3, 37800, Note_on_c, 0, 49, 0
3, 37800, Note_on_c, 0, 56, 0
3, 37800, Note_on_c, 0, 64, 0
3, 37800, Note_on_c, 0, 61, 0
3, 37800, Note_on_c, 0, 37, 0
3, 37800, Note_on_c, 0, 56, 101
3, 37800, Note_on_c, 0, 59, 101
3, 37800, Note_on_c, 0, 63, 101
3, 37800, Note_on_c, 0, 68, 101
3, 37800, Note_on_c, 0, 35, 80
3, 37800, Note_on_c, 0, 47, 80
3, 38160, Note_on_c, 0, 47, 0
3, 38160, Note_on_c, 0, 59, 0
3, 38160, Note_on_c, 0, 63, 0
3, 38160, Note_on_c, 0, 56, 0
3, 38160, Note_on_c, 0, 35, 0
3, 38160, Note_on_c, 0, 68, 0
3, 38160, Note_on_c, 0, 57, 85
3, 38160, Note_on_c, 0, 61, 85
3, 38160, Note_on_c, 0, 66, 85
3, 38160, Note_on_c, 0, 30, 73
3, 38280, Note_on_c, 0, 30, 0
3, 38280, Note_on_c, 0, 32, 92
3, 38399, Note_on_c, 0, 32, 0
3, 38399, Note_on_c, 0, 33, 90
3, 38520, Note_on_c, 0, 33, 0
3, 38520, Note_on_c, 0, 57, 0
3, 38520, Note_on_c, 0, 61, 0
3, 38520, Note_on_c, 0, 66, 0
3, 38520, Note_on_c, 0, 57, 75
3, 38520, Note_on_c, 0, 59, 75
3, 38520, Note_on_c, 0, 63, 75
3, 38520, Note_on_c, 0, 35, 96
3, 38759, Note_on_c, 0, 63, 0
3, 38759, Note_on_c, 0, 57, 0
3, 38759, Note_on_c, 0, 59, 0
3, 38759, Note_on_c, 0, 57, 83
3, 38759, Note_on_c, 0, 59, 83
3, 38759, Note_on_c, 0, 63, 83
3, 38880, Note_on_c, 0, 63, 0
3, 38880, Note_on_c, 0, 35, 0
3, 38880, Note_on_c, 0, 57, 0
3, 38880, Note_on_c, 0, 59, 0
3, 38880, Note_on_c, 0, 56, 91
3, 38880, Note_on_c, 0, 59, 91
3, 38880, Note_on_c, 0, 64, 91
3, 38880, Note_on_c, 0, 28, 95
3, 38880, Note_on_c, 0, 40, 95
3, 39240, Note_on_c, 0, 40, 0
3, 39240, Note_on_c, 0, 64, 0
3, 39240, Note_on_c, 0, 56, 0
3, 39240, Note_on_c, 0, 59, 0
3, 39240, Note_on_c, 0, 28, 0
3, 39240, Note_on_c, 0, 64, 93
3, 39600, Note_on_c, 0, 64, 0
3, 39600, Note_on_c, 0, 64, 87
3, 39600, Note_on_c, 0, 56, 56
3, 39600, Note_on_c, 0, 59, 56
3, 39600, Note_on_c, 0, 40, 72
3, 39600, Note_on_c, 0, 47, 72
3, 39960, Note_on_c, 0, 64, 0
3, 39960, Note_on_c, 0, 64, 89
3, 40199, Note_on_c, 0, 64, 0
3, 40199, Note_on_c, 0, 64, 87
3, 40320, Note_on_c, 0, 64, 0
3, 40320, Note_on_c, 0, 56, 0
3, 40320, Note_on_c, 0, 59, 0
3, 40320, Note_on_c, 0, 64, 86
3, 40440, Note_on_c, 0, 64, 0
3, 40440, Note_on_c, 0, 64, 85
3, 40559, Note_on_c, 0, 64, 0
3, 40559, Note_on_c, 0, 64, 90
3, 40680, Note_on_c, 0, 64, 0
3, 40680, Note_on_c, 0, 40, 0
3, 40680, Note_on_c, 0, 47, 0
3, 40680, Note_on_c, 0, 64, 89
3, 40680, Note_on_c, 0, 59, 101
3, 40800, Note_on_c, 0, 59, 0
3, 40800, Note_on_c, 0, 60, 95
3, 40919, Note_on_c, 0, 60, 0
3, 40919, Note_on_c, 0, 61, 94
3, 41040, Note_on_c, 0, 61, 0
3, 41040, Note_on_c, 0, 64, 0
3, 41040, Note_on_c, 0, 64, 87
3, 41040, Note_on_c, 0, 62, 102
3, 41279, Note_on_c, 0, 64, 0
3, 41279, Note_on_c, 0, 68, 100
3, 41400, Note_on_c, 0, 68, 0
3, 41400, Note_on_c, 0, 62, 0
3, 41400, Note_on_c, 0, 66, 96
3, 41400, Note_on_c, 0, 69, 96
3, 41400, Note_on_c, 0, 62, 87
3, 41760, Note_on_c, 0, 62, 0
3, 41760, Note_on_c, 0, 69, 0
3, 41760, Note_on_c, 0, 66, 0
3, 41760, Note_on_c, 0, 64, 74
3, 41760, Note_on_c, 0, 61, 80
3, 41939, Note_on_c, 0, 61, 0
3, 41999, Note_on_c, 0, 64, 0
3, 41999, Note_on_c, 0, 66, 92
3, 42120, Note_on_c, 0, 66, 0
3, 42120, Note_on_c, 0, 64, 95
3, 42120, Note_on_c, 0, 68, 95
3, 42120, Note_on_c, 0, 60, 79
3, 42299, Note_on_c, 0, 60, 0
3, 42480, Note_on_c, 0, 68, 0
3, 42480, Note_on_c, 0, 64, 0
3, 42480, Note_on_c, 0, 63, 73
3, 42480, Note_on_c, 0, 59, 82
3, 42659, Note_on_c, 0, 59, 0
3, 42719, Note_on_c, 0, 63, 0
3, 42719, Note_on_c, 0, 63, 89
3, 42840, Note_on_c, 0, 63, 0
3, 42840, Note_on_c, 0, 61, 90
3, 42840, Note_on_c, 0, 64, 90
3, 42840, Note_on_c, 0, 58, 85
3, 43019, Note_on_c, 0, 58, 0
3, 43200, Note_on_c, 0, 64, 0
3, 43200, Note_on_c, 0, 61, 0
3, 43200, Note_on_c, 0, 60, 88
3, 43200, Note_on_c, 0, 64, 88
3, 43200, Note_on_c, 0, 57, 87
3, 43379, Note_on_c, 0, 57, 0
3, 43439, Note_on_c, 0, 64, 0
3, 43439, Note_on_c, 0, 60, 0
3, 43439, Note_on_c, 0, 63, 78
3, 43560, Note_on_c, 0, 63, 0
3, 43560, Note_on_c, 0, 61, 87
3, 43560, Note_on_c, 0, 63, 87
3, 43560, Note_on_c, 0, 49, 84
3, 43560, Note_on_c, 0, 56, 84
3, 43799, Note_on_c, 0, 63, 0
3, 43799, Note_on_c, 0, 61, 0
3, 43799, Note_on_c, 0, 64, 93
3, 43920, Note_on_c, 0, 64, 0
3, 43920, Note_on_c, 0, 49, 0
3, 43920, Note_on_c, 0, 56, 0
3, 43920, Note_on_c, 0, 57, 96
3, 43920, Note_on_c, 0, 62, 96
3, 43920, Note_on_c, 0, 65, 96
3, 43920, Note_on_c, 0, 42, 86
3, 43920, Note_on_c, 0, 54, 86
3, 44159, Note_on_c, 0, 65, 0
3, 44159, Note_on_c, 0, 57, 0
3, 44159, Note_on_c, 0, 62, 0
3, 44159, Note_on_c, 0, 66, 92
3, 44280, Note_on_c, 0, 66, 0
3, 44280, Note_on_c, 0, 42, 0
3, 44280, Note_on_c, 0, 54, 0
3, 44280, Note_on_c, 0, 57, 90
3, 44280, Note_on_c, 0, 59, 90
3, 44280, Note_on_c, 0, 63, 90
3, 44280, Note_on_c, 0, 66, 90
3, 44280, Note_on_c, 0, 35, 77
3, 44280, Note_on_c, 0, 47, 77
3, 44640, Note_on_c, 0, 47, 0
3, 44640, Note_on_c, 0, 59, 0
3, 44640, Note_on_c, 0, 63, 0
3, 44640, Note_on_c, 0, 57, 0
3, 44640, Note_on_c, 0, 35, 0
3, 44640, Note_on_c, 0, 66, 0
3, 44640, Note_on_c, 0, 56, 82
3, 44640, Note_on_c, 0, 59, 82
3, 44640, Note_on_c, 0, 64, 82
3, 44640, Note_on_c, 0, 40, 91
3, 44640, Note_on_c, 0, 47, 91
3, 44640, Note_on_c, 0, 52, 91
3, 45000, Note_on_c, 0, 52, 0
3, 45000, Note_on_c, 0, 59, 0
3, 45000, Note_on_c, 0, 64, 0
3, 45000, Note_on_c, 0, 56, 0
3, 45000, Note_on_c, 0, 47, 0
3, 45000, Note_on_c, 0, 40, 0
3, 45000, Note_on_c, 0, 64, 89
3, 45360, Note_on_c, 0, 64, 0
3, 45360, Note_on_c, 0, 56, 84
3, 45360, Note_on_c, 0, 59, 84
3, 45360, Note_on_c, 0, 61, 84
3, 45360, Note_on_c, 0, 52, 42
3, 45360, Note_on_c, 0, 49, 76
3, 45360, Note_on_c, 0, 40, 23
3, 45599, Note_on_c, 0, 40, 0
3, 45599, Note_on_c, 0, 59, 0
3, 45599, Note_on_c, 0, 56, 0
3, 45599, Note_on_c, 0, 61, 0
3, 45599, Note_on_c, 0, 56, 84
3, 45599, Note_on_c, 0, 59, 84
3, 45599, Note_on_c, 0, 61, 84
3, 45599, Note_on_c, 0, 40, 26
3, 45720, Note_on_c, 0, 40, 0
3, 45720, Note_on_c, 0, 59, 0
3, 45720, Note_on_c, 0, 56, 0
3, 45720, Note_on_c, 0, 61, 0
3, 45720, Note_on_c, 0, 56, 90
3, 45720, Note_on_c, 0, 59, 90
3, 45720, Note_on_c, 0, 61, 90
3, 45720, Note_on_c, 0, 40, 23
3, 45959, Note_on_c, 0, 40, 0
3, 45959, Note_on_c, 0, 59, 0
3, 45959, Note_on_c, 0, 56, 0
3, 45959, Note_on_c, 0, 61, 0
3, 45959, Note_on_c, 0, 56, 93
3, 45959, Note_on_c, 0, 59, 93
3, 45959, Note_on_c, 0, 61, 93
3, 45959, Note_on_c, 0, 40, 33
3, 46080, Note_on_c, 0, 40, 0
3, 46080, Note_on_c, 0, 52, 0
3, 46080, Note_on_c, 0, 56, 0
3, 46080, Note_on_c, 0, 59, 0
3, 46080, Note_on_c, 0, 61, 0
3, 46080, Note_on_c, 0, 54, 88
3, 46080, Note_on_c, 0, 57, 88
3, 46080, Note_on_c, 0, 61, 88
3, 46080, Note_on_c, 0, 42, 100
3, 46713, Note_on_c, 0, 42, 0
3, 46713, Note_on_c, 0, 49, 0
3, 46800, Note_on_c, 0, 54, 0
3, 46800, Note_on_c, 0, 57, 0
3, 46800, Note_on_c, 0, 61, 0
3, 46800, Note_on_c, 0, 57, 94
3, 46800, Note_on_c, 0, 61, 94
3, 46800, Note_on_c, 0, 63, 94
3, 46800, Note_on_c, 0, 54, 54
3, 46800, Note_on_c, 0, 51, 89
3, 46800, Note_on_c, 0, 42, 26
3, 47039, Note_on_c, 0, 42, 0
3, 47039, Note_on_c, 0, 61, 0
3, 47039, Note_on_c, 0, 57, 0
3, 47039, Note_on_c, 0, 63, 0
3, 47039, Note_on_c, 0, 57, 94
3, 47039, Note_on_c, 0, 61, 94
3, 47039, Note_on_c, 0, 63, 94
3, 47039, Note_on_c, 0, 42, 23
3, 47160, Note_on_c, 0, 42, 0
3, 47160, Note_on_c, 0, 61, 0
3, 47160, Note_on_c, 0, 57, 0
3, 47160, Note_on_c, 0, 63, 0
3, 47160, Note_on_c, 0, 57, 88
3, 47160, Note_on_c, 0, 61, 88
3, 47160, Note_on_c, 0, 63, 88
3, 47160, Note_on_c, 0, 42, 22
3, 47399, Note_on_c, 0, 42, 0
3, 47399, Note_on_c, 0, 61, 0
3, 47399, Note_on_c, 0, 57, 0
3, 47399, Note_on_c, 0, 63, 0
3, 47399, Note_on_c, 0, 57, 89
3, 47399, Note_on_c, 0, 61, 89
3, 47399, Note_on_c, 0, 63, 89
3, 47399, Note_on_c, 0, 42, 27
3, 47520, Note_on_c, 0, 42, 0
3, 47520, Note_on_c, 0, 54, 0
3, 47520, Note_on_c, 0, 57, 0
3, 47520, Note_on_c, 0, 61, 0
3, 47520, Note_on_c, 0, 63, 0
3, 47520, Note_on_c, 0, 56, 89
3, 47520, Note_on_c, 0, 59, 89
3, 47520, Note_on_c, 0, 63, 89
3, 47520, Note_on_c, 0, 44, 100
3, 48153, Note_on_c, 0, 44, 0
3, 48153, Note_on_c, 0, 51, 0
3, 48240, Note_on_c, 0, 56, 0
3, 48240, Note_on_c, 0, 59, 0
3, 48240, Note_on_c, 0, 63, 0
3, 48240, Note_on_c, 0, 59, 89
3, 48240, Note_on_c, 0, 63, 89
3, 48240, Note_on_c, 0, 64, 89
3, 48240, Note_on_c, 0, 56, 41
3, 48240, Note_on_c, 0, 52, 91
3, 48240, Note_on_c, 0, 44, 30
3, 48479, Note_on_c, 0, 44, 0
3, 48479, Note_on_c, 0, 63, 0
3, 48479, Note_on_c, 0, 59, 0
3, 48479, Note_on_c, 0, 64, 0
3, 48479, Note_on_c, 0, 59, 93
3, 48479, Note_on_c, 0, 63, 93
3, 48479, Note_on_c, 0, 64, 93
3, 48479, Note_on_c, 0, 44, 25
3, 48600, Note_on_c, 0, 44, 0
3, 48600, Note_on_c, 0, 63, 0
3, 48600, Note_on_c, 0, 59, 0
3, 48600, Note_on_c, 0, 64, 0
3, 48600, Note_on_c, 0, 59, 86
3, 48600, Note_on_c, 0, 63, 86
3, 48600, Note_on_c, 0, 64, 86
3, 48600, Note_on_c, 0, 44, 24
3, 48839, Note_on_c, 0, 44, 0
3, 48839, Note_on_c, 0, 63, 0
3, 48839, Note_on_c, 0, 59, 0
3, 48839, Note_on_c, 0, 64, 0
3, 48839, Note_on_c, 0, 59, 88
3, 48839, Note_on_c, 0, 63, 88
3, 48839, Note_on_c, 0, 64, 88
3, 48839, Note_on_c, 0, 44, 26
3, 48960, Note_on_c, 0, 44, 0
3, 48960, Note_on_c, 0, 56, 0
3, 48960, Note_on_c, 0, 59, 0
3, 48960, Note_on_c, 0, 63, 0
3, 48960, Note_on_c, 0, 64, 0
3, 48960, Note_on_c, 0, 57, 90
3, 48960, Note_on_c, 0, 61, 90
3, 48960, Note_on_c, 0, 64, 90
3, 48960, Note_on_c, 0, 45, 87
3, 49199, Note_on_c, 0, 45, 0
3, 49199, Note_on_c, 0, 52, 0
3, 49199, Note_on_c, 0, 45, 80
3, 49320, Note_on_c, 0, 45, 0
3, 49320, Note_on_c, 0, 64, 0
3, 49320, Note_on_c, 0, 61, 0
3, 49320, Note_on_c, 0, 57, 0
3, 49320, Note_on_c, 0, 54, 86
3, 49320, Note_on_c, 0, 61, 86
3, 49320, Note_on_c, 0, 64, 86
3, 49320, Note_on_c, 0, 46, 92
3, 49559, Note_on_c, 0, 46, 0
3, 49559, Note_on_c, 0, 47, 92
3, 49680, Note_on_c, 0, 47, 0
3, 49680, Note_on_c, 0, 64, 0
3, 49680, Note_on_c, 0, 61, 0
3, 49680, Note_on_c, 0, 54, 0
3, 49680, Note_on_c, 0, 54, 80
3, 49680, Note_on_c, 0, 59, 80
3, 49680, Note_on_c, 0, 63, 80
3, 49680, Note_on_c, 0, 47, 88
3, 49919, Note_on_c, 0, 47, 0
3, 49919, Note_on_c, 0, 47, 90
3, 50040, Note_on_c, 0, 47, 0
3, 50040, Note_on_c, 0, 63, 0
3, 50040, Note_on_c, 0, 59, 0
3, 50040, Note_on_c, 0, 54, 0
3, 50040, Note_on_c, 0, 56, 96
3, 50040, Note_on_c, 0, 63, 96
3, 50040, Note_on_c, 0, 66, 96
3, 50040, Note_on_c, 0, 48, 85
3, 50279, Note_on_c, 0, 48, 0
3, 50279, Note_on_c, 0, 48, 85
3, 50400, Note_on_c, 0, 48, 0
3, 50400, Note_on_c, 0, 66, 0
3, 50400, Note_on_c, 0, 63, 0
3, 50400, Note_on_c, 0, 56, 0
3, 50400, Note_on_c, 0, 56, 80
3, 50400, Note_on_c, 0, 61, 80
3, 50400, Note_on_c, 0, 64, 80
3, 50400, Note_on_c, 0, 49, 91
3, 50760, Note_on_c, 0, 49, 0
3, 50760, Note_on_c, 0, 56, 0
3, 50760, Note_on_c, 0, 61, 0
3, 50760, Note_on_c, 0, 64, 0
3, 50760, Note_on_c, 0, 56, 102
3, 50760, Note_on_c, 0, 60, 102
3, 50760, Note_on_c, 0, 64, 102
3, 50760, Note_on_c, 0, 68, 102
3, 50760, Note_on_c, 0, 48, 102
3, 51120, Note_on_c, 0, 48, 0
3, 51120, Note_on_c, 0, 64, 0
3, 51120, Note_on_c, 0, 56, 0
3, 51120, Note_on_c, 0, 60, 0
3, 51120, Note_on_c, 0, 68, 0
3, 51120, Note_on_c, 0, 56, 102
3, 51120, Note_on_c, 0, 59, 102
3, 51120, Note_on_c, 0, 64, 102
3, 51120, Note_on_c, 0, 68, 102
3, 51120, Note_on_c, 0, 47, 102
3, 51480, Note_on_c, 0, 47, 0
3, 51480, Note_on_c, 0, 64, 0
3, 51480, Note_on_c, 0, 56, 0
3, 51480, Note_on_c, 0, 59, 0
3, 51480, Note_on_c, 0, 68, 0
3, 51480, Note_on_c, 0, 56, 102
3, 51480, Note_on_c, 0, 58, 102
3, 51480, Note_on_c, 0, 64, 102
3, 51480, Note_on_c, 0, 68, 102
3, 51480, Note_on_c, 0, 46, 102
3, 51840, Note_on_c, 0, 46, 0
3, 51840, Note_on_c, 0, 64, 0
3, 51840, Note_on_c, 0, 56, 0
3, 51840, Note_on_c, 0, 58, 0
3, 51840, Note_on_c, 0, 68, 0
3, 51840, Note_on_c, 0, 56, 102
3, 51840, Note_on_c, 0, 59, 102
3, 51840, Note_on_c, 0, 64, 102
3, 51840, Note_on_c, 0, 68, 102
3, 51840, Note_on_c, 0, 47, 102
3, 52200, Note_on_c, 0, 47, 0
3, 52200, Note_on_c, 0, 64, 0
3, 52200, Note_on_c, 0, 56, 0
3, 52200, Note_on_c, 0, 59, 0
3, 52200, Note_on_c, 0, 68, 0
3, 52200, Note_on_c, 0, 56, 86
3, 52200, Note_on_c, 0, 60, 86
3, 52200, Note_on_c, 0, 68, 86
3, 52200, Note_on_c, 0, 41, 95
3, 52200, Note_on_c, 0, 53, 95
3, 52560, Note_on_c, 0, 53, 0
3, 52560, Note_on_c, 0, 68, 0
3, 52560, Note_on_c, 0, 56, 0
3, 52560, Note_on_c, 0, 60, 0
3, 52560, Note_on_c, 0, 41, 0
3, 52560, Note_on_c, 0, 56, 83
3, 52560, Note_on_c, 0, 60, 83
3, 52560, Note_on_c, 0, 68, 83
3, 52560, Note_on_c, 0, 40, 86
3, 52560, Note_on_c, 0, 52, 86
3, 52920, Note_on_c, 0, 52, 0
3, 52920, Note_on_c, 0, 68, 0
3, 52920, Note_on_c, 0, 56, 0
3, 52920, Note_on_c, 0, 60, 0
3, 52920, Note_on_c, 0, 40, 0
3, 52920, Note_on_c, 0, 56, 86
3, 52920, Note_on_c, 0, 60, 86
3, 52920, Note_on_c, 0, 68, 86
3, 52920, Note_on_c, 0, 39, 85
3, 52920, Note_on_c, 0, 51, 85
3, 53159, Note_on_c, 0, 68, 0
3, 53159, Note_on_c, 0, 56, 0
3, 53159, Note_on_c, 0, 60, 0
3, 53159, Note_on_c, 0, 67, 82
3, 53280, Note_on_c, 0, 67, 0
3, 53280, Note_on_c, 0, 39, 0
3, 53280, Note_on_c, 0, 51, 0
3, 53280, Note_on_c, 0, 56, 92
3, 53280, Note_on_c, 0, 61, 92
3, 53280, Note_on_c, 0, 68, 92
3, 53280, Note_on_c, 0, 40, 92
3, 53280, Note_on_c, 0, 52, 92
3, 53640, Note_on_c, 0, 52, 0
3, 53640, Note_on_c, 0, 68, 0
3, 53640, Note_on_c, 0, 56, 0
3, 53640, Note_on_c, 0, 61, 0
3, 53640, Note_on_c, 0, 40, 0
3, 53640, Note_on_c, 0, 56, 81
3, 53640, Note_on_c, 0, 62, 81
3, 53640, Note_on_c, 0, 40, 102
3, 53640, Note_on_c, 0, 52, 102
3, 53957, Note_on_c, 0, 52, 0
3, 53957, Note_on_c, 0, 56, 0
3, 53957, Note_on_c, 0, 62, 0
3, 53957, Note_on_c, 0, 40, 0
3, 54000, Note_on_c, 0, 57, 79
3, 54000, Note_on_c, 0, 61, 79
3, 54000, Note_on_c, 0, 45, 82
3, 54360, Note_on_c, 0, 45, 0
3, 54360, Note_on_c, 0, 61, 0
3, 54360, Note_on_c, 0, 57, 0
3, 54360, Note_on_c, 0, 54, 98
3, 54360, Note_on_c, 0, 61, 98
3, 54360, Note_on_c, 0, 39, 102
3, 54360, Note_on_c, 0, 51, 102
3, 54677, Note_on_c, 0, 51, 0
3, 54677, Note_on_c, 0, 54, 0
3, 54677, Note_on_c, 0, 61, 0
3, 54677, Note_on_c, 0, 39, 0
3, 54720, Note_on_c, 0, 56, 85
3, 54720, Note_on_c, 0, 59, 85
3, 54720, Note_on_c, 0, 44, 75
3, 55080, Note_on_c, 0, 44, 0
3, 55080, Note_on_c, 0, 59, 0
3, 55080, Note_on_c, 0, 56, 0
3, 55080, Note_on_c, 0, 53, 97
3, 55080, Note_on_c, 0, 59, 97
3, 55080, Note_on_c, 0, 37, 102
3, 55080, Note_on_c, 0, 49, 102
3, 55397, Note_on_c, 0, 49, 0
3, 55397, Note_on_c, 0, 53, 0
3, 55397, Note_on_c, 0, 59, 0
3, 55397, Note_on_c, 0, 37, 0
3, 55440, Note_on_c, 0, 54, 82
3, 55440, Note_on_c, 0, 57, 82
3, 55440, Note_on_c, 0, 42, 76
3, 55800, Note_on_c, 0, 42, 0
3, 55800, Note_on_c, 0, 57, 0
3, 55800, Note_on_c, 0, 54, 0
3, 55800, Note_on_c, 0, 51, 102
3, 55800, Note_on_c, 0, 54, 102
3, 55800, Note_on_c, 0, 57, 102
3, 55800, Note_on_c, 0, 35, 102
3, 55800, Note_on_c, 0, 47, 102
3, 56117, Note_on_c, 0, 47, 0
3, 56117, Note_on_c, 0, 35, 0
3, 56160, Note_on_c, 0, 51, 0
3, 56160, Note_on_c, 0, 54, 0
3, 56160, Note_on_c, 0, 57, 0
3, 56160, Note_on_c, 0, 52, 91
3, 56160, Note_on_c, 0, 56, 91
3, 56160, Note_on_c, 0, 59, 91
3, 56160, Note_on_c, 0, 28, 102
3, 56160, Note_on_c, 0, 40, 102
3, 56280, Note_on_c, 0, 59, 0
3, 56280, Note_on_c, 0, 52, 0
3, 56280, Note_on_c, 0, 56, 0
3, 56280, Note_on_c, 0, 54, 80
3, 56399, Note_on_c, 0, 54, 0
3, 56399, Note_on_c, 0, 55, 91
3, 56520, Note_on_c, 0, 55, 0
3, 56520, Note_on_c, 0, 28, 0
3, 56520, Note_on_c, 0, 40, 0
3, 56520, Note_on_c, 0, 56, 89
3, 56759, Note_on_c, 0, 56, 0
3, 56759, Note_on_c, 0, 54, 87
3, 56880, Note_on_c, 0, 54, 0
3, 56880, Note_on_c, 0, 52, 83
3, 57119, Note_on_c, 0, 52, 0
3, 57119, Note_on_c, 0, 51, 86
3, 57240, Note_on_c, 0, 51, 0
3, 57240, Note_on_c, 0, 49, 84
3, 57479, Note_on_c, 0, 49, 0
3, 57479, Note_on_c, 0, 47, 86
3, 57600, Note_on_c, 0, 47, 0
3, 57600, Note_on_c, 0, 45, 102
3, 57960, Note_on_c, 0, 45, 0
3, 57960, Note_on_c, 0, 56, 102
3, 57960, Note_on_c, 0, 44, 101
3, 58320, Note_on_c, 0, 44, 0
3, 58320, Note_on_c, 0, 56, 0
3, 58320, Note_on_c, 0, 54, 102
3, 58320, Note_on_c, 0, 42, 102
3, 58680, Note_on_c, 0, 42, 0
3, 58680, Note_on_c, 0, 54, 0
3, 58680, Note_on_c, 0, 52, 102
3, 58680, Note_on_c, 0, 40, 102
3, 59040, Note_on_c, 0, 40, 0
3, 59040, Note_on_c, 0, 52, 0
3, 59040, Note_on_c, 0, 51, 102
3, 59040, Note_on_c, 0, 39, 86
3, 59400, Note_on_c, 0, 39, 0
3, 59676, Note_on_c, 0, 51, 56
3, 59718, Note_on_c, 0, 51, 0
3, 59718, Note_on_c, 0, 51, 59
3, 59760, Note_on_c, 0, 51, 0
3, 59760, Note_on_c, 0, 51, 0
3, 59760, Note_on_c, 0, 51, 56
3, 60480, Note_on_c, 0, 51, 0
3, 60480, Note_on_c, 0, 51, 57
3, 60522, Note_on_c, 0, 51, 0
3, 60522, Note_on_c, 0, 51, 63
3, 60564, Note_on_c, 0, 51, 0
3, 60564, Note_on_c, 0, 51, 59
3, 60840, Note_on_c, 0, 32, 49
3, 60840, Note_on_c, 0, 44, 49
3, 61019, Note_on_c, 0, 44, 0
3, 61019, Note_on_c, 0, 32, 0
3, 61200, Note_on_c, 0, 37, 65
3, 61200, Note_on_c, 0, 49, 65
3, 61379, Note_on_c, 0, 49, 0
3, 61379, Note_on_c, 0, 37, 0
3, 61560, Note_on_c, 0, 34, 55
3, 61560, Note_on_c, 0, 46, 55
3, 61739, Note_on_c, 0, 46, 0
3, 61739, Note_on_c, 0, 34, 0
3, 61920, Note_on_c, 0, 39, 51
3, 62280, Note_on_c, 0, 39, 0
3, 62556, Note_on_c, 0, 51, 61
3, 62598, Note_on_c, 0, 51, 0
3, 62598, Note_on_c, 0, 51, 58
3, 62640, Note_on_c, 0, 51, 0
3, 62640, Note_on_c, 0, 51, 0
3, 62640, Note_on_c, 0, 51, 59
3, 63360, Note_on_c, 0, 51, 0
3, 63360, Note_on_c, 0, 51, 59
3, 63402, Note_on_c, 0, 51, 0
3, 63402, Note_on_c, 0, 51, 55
3, 63444, Note_on_c, 0, 51, 0
3, 63444, Note_on_c, 0, 51, 55
3, 63720, Note_on_c, 0, 32, 27
3, 63720, Note_on_c, 0, 44, 27
3, 63899, Note_on_c, 0, 44, 0
3, 63899, Note_on_c, 0, 32, 0
3, 64080, Note_on_c, 0, 37, 39
3, 64080, Note_on_c, 0, 49, 39
3, 64259, Note_on_c, 0, 49, 0
3, 64259, Note_on_c, 0, 37, 0
3, 64440, Note_on_c, 0, 34, 35
3, 64440, Note_on_c, 0, 46, 35
3, 64619, Note_on_c, 0, 46, 0
3, 64619, Note_on_c, 0, 34, 0
3, 64800, Note_on_c, 0, 39, 35
3, 65160, Note_on_c, 0, 39, 0
3, 65436, Note_on_c, 0, 51, 61
3, 65478, Note_on_c, 0, 51, 0
3, 65478, Note_on_c, 0, 51, 55
3, 65520, Note_on_c, 0, 51, 0
3, 65520, Note_on_c, 0, 51, 0
3, 65520, Note_on_c, 0, 51, 59
3, 65880, Note_on_c, 0, 32, 33
3, 65880, Note_on_c, 0, 44, 33
3, 66240, Note_on_c, 0, 44, 0
3, 66240, Note_on_c, 0, 32, 0
3, 66240, Note_on_c, 0, 37, 45
3, 66240, Note_on_c, 0, 49, 45
3, 66600, Note_on_c, 0, 49, 0
3, 66600, Note_on_c, 0, 37, 0
3, 66876, Note_on_c, 0, 51, 57
3, 66918, Note_on_c, 0, 51, 0
3, 66918, Note_on_c, 0, 51, 60
3, 66960, Note_on_c, 0, 51, 0
3, 66960, Note_on_c, 0, 51, 0
3, 66960, Note_on_c, 0, 51, 52
3, 67320, Note_on_c, 0, 30, 31
3, 67320, Note_on_c, 0, 42, 31
3, 67680, Note_on_c, 0, 42, 0
3, 67680, Note_on_c, 0, 30, 0
3, 67680, Note_on_c, 0, 35, 36
3, 67680, Note_on_c, 0, 47, 36
3, 68040, Note_on_c, 0, 47, 0
3, 68040, Note_on_c, 0, 35, 0
3, 68358, Note_on_c, 0, 51, 76
3, 68400, Note_on_c, 0, 51, 0
3, 68400, Note_on_c, 0, 51, 0
3, 68400, Note_on_c, 0, 51, 74
3, 69120, Note_on_c, 0, 51, 0
3, 69120, Note_on_c, 0, 51, 58
3, 69162, Note_on_c, 0, 51, 0
3, 69162, Note_on_c, 0, 51, 58
3, 69204, Note_on_c, 0, 51, 0
3, 69204, Note_on_c, 0, 51, 57
3, 69480, Note_on_c, 0, 29, 50
3, 69480, Note_on_c, 0, 41, 50
3, 69840, Note_on_c, 0, 41, 0
3, 69840, Note_on_c, 0, 29, 0
3, 69840, Note_on_c, 0, 35, 65
3, 69840, Note_on_c, 0, 47, 65
3, 70200, Note_on_c, 0, 47, 0
3, 70200, Note_on_c, 0, 35, 0
3, 70200, Note_on_c, 0, 30, 54
3, 70200, Note_on_c, 0, 42, 54
3, 70560, Note_on_c, 0, 42, 0
3, 70560, Note_on_c, 0, 30, 0
3, 70560, Note_on_c, 0, 35, 63
3, 70560, Note_on_c, 0, 47, 63
3, 70920, Note_on_c, 0, 47, 0
3, 70920, Note_on_c, 0, 35, 0
3, 71196, Note_on_c, 0, 51, 55
3, 71238, Note_on_c, 0, 51, 0
3, 71238, Note_on_c, 0, 51, 59
3, 71280, Note_on_c, 0, 51, 0
3, 71280, Note_on_c, 0, 51, 0
3, 71280, Note_on_c, 0, 51, 57
3, 72000, Note_on_c, 0, 51, 0
3, 72000, Note_on_c, 0, 51, 62
3, 72042, Note_on_c, 0, 51, 0
3, 72042, Note_on_c, 0, 51, 60
3, 72084, Note_on_c, 0, 51, 0
3, 72084, Note_on_c, 0, 51, 59
3, 72360, Note_on_c, 0, 29, 33
3, 72360, Note_on_c, 0, 41, 33
3, 72720, Note_on_c, 0, 41, 0
3, 72720, Note_on_c, 0, 29, 0
3, 72720, Note_on_c, 0, 35, 40
3, 72720, Note_on_c, 0, 47, 40
3, 73080, Note_on_c, 0, 47, 0
3, 73080, Note_on_c, 0, 35, 0
3, 73080, Note_on_c, 0, 30, 34
3, 73080, Note_on_c, 0, 42, 34
3, 73440, Note_on_c, 0, 42, 0
3, 73440, Note_on_c, 0, 30, 0
3, 73440, Note_on_c, 0, 35, 40
3, 73440, Note_on_c, 0, 47, 40
3, 73800, Note_on_c, 0, 47, 0
3, 73800, Note_on_c, 0, 35, 0
3, 74076, Note_on_c, 0, 51, 59
3, 74118, Note_on_c, 0, 51, 0
3, 74118, Note_on_c, 0, 51, 59
3, 74160, Note_on_c, 0, 51, 0
3, 74160, Note_on_c, 0, 51, 0
3, 74160, Note_on_c, 0, 51, 59
3, 74520, Note_on_c, 0, 29, 27
3, 74520, Note_on_c, 0, 41, 27
3, 74880, Note_on_c, 0, 41, 0
3, 74880, Note_on_c, 0, 29, 0
3, 74880, Note_on_c, 0, 61, 74
3, 74880, Note_on_c, 0, 34, 36
3, 74880, Note_on_c, 0, 46, 36
3, 75240, Note_on_c, 0, 46, 0
3, 75240, Note_on_c, 0, 34, 0
3, 75516, Note_on_c, 0, 51, 56
3, 75558, Note_on_c, 0, 51, 0
3, 75558, Note_on_c, 0, 51, 57
3, 75600, Note_on_c, 0, 51, 0
3, 75600, Note_on_c, 0, 51, 0
3, 75600, Note_on_c, 0, 51, 56
3, 75960, Note_on_c, 0, 27, 27
3, 75960, Note_on_c, 0, 39, 27
3, 76147, Note_on_c, 0, 61, 0
3, 76320, Note_on_c, 0, 51, 0
3, 76320, Note_on_c, 0, 27, 0
3, 76320, Note_on_c, 0, 39, 0
3, 76320, Note_on_c, 0, 51, 70
3, 76320, Note_on_c, 0, 56, 70
3, 76320, Note_on_c, 0, 59, 70
3, 76320, Note_on_c, 0, 32, 38
3, 76320, Note_on_c, 0, 44, 38
3, 76680, Note_on_c, 0, 44, 0
3, 76680, Note_on_c, 0, 32, 0
3, 76680, Note_on_c, 0, 47, 42
3, 76800, Note_on_c, 0, 47, 0
3, 76800, Note_on_c, 0, 40, 37
3, 76919, Note_on_c, 0, 40, 0
3, 76919, Note_on_c, 0, 42, 42
3, 77040, Note_on_c, 0, 42, 0
3, 77040, Note_on_c, 0, 44, 35
3, 77400, Note_on_c, 0, 44, 0
3, 77400, Note_on_c, 0, 39, 30
3, 77760, Note_on_c, 0, 39, 0
3, 77760, Note_on_c, 0, 44, 41
3, 78120, Note_on_c, 0, 44, 0
3, 78120, Note_on_c, 0, 51, 0
3, 78120, Note_on_c, 0, 56, 0
3, 78120, Note_on_c, 0, 59, 0
3, 78120, Note_on_c, 0, 58, 31
3, 78120, Note_on_c, 0, 61, 31
3, 78120, Note_on_c, 0, 39, 33
3, 78120, Note_on_c, 0, 51, 33
3, 78179, Note_on_c, 0, 61, 0
3, 78179, Note_on_c, 0, 58, 0
3, 78240, Note_on_c, 0, 56, 25
3, 78240, Note_on_c, 0, 59, 25
3, 78299, Note_on_c, 0, 59, 0
3, 78299, Note_on_c, 0, 51, 0
3, 78299, Note_on_c, 0, 39, 0
3, 78299, Note_on_c, 0, 56, 0
3, 78359, Note_on_c, 0, 58, 31
3, 78359, Note_on_c, 0, 61, 31
3, 78418, Note_on_c, 0, 61, 0
3, 78418, Note_on_c, 0, 58, 0
3, 78480, Note_on_c, 0, 56, 23
3, 78480, Note_on_c, 0, 59, 23
3, 78480, Note_on_c, 0, 44, 31
3, 78480, Note_on_c, 0, 51, 31
3, 78659, Note_on_c, 0, 51, 0
3, 78659, Note_on_c, 0, 56, 0
3, 78659, Note_on_c, 0, 59, 0
3, 78659, Note_on_c, 0, 44, 0
3, 78840, Note_on_c, 0, 58, 26
3, 78840, Note_on_c, 0, 61, 26
3, 78840, Note_on_c, 0, 39, 27
3, 78840, Note_on_c, 0, 51, 27
3, 79019, Note_on_c, 0, 51, 0
3, 79019, Note_on_c, 0, 58, 0
3, 79019, Note_on_c, 0, 61, 0
3, 79019, Note_on_c, 0, 39, 0
3, 79200, Note_on_c, 0, 51, 27
3, 79200, Note_on_c, 0, 56, 27
3, 79200, Note_on_c, 0, 59, 27
3, 79200, Note_on_c, 0, 44, 19
3, 79560, Note_on_c, 0, 44, 0
3, 79560, Note_on_c, 0, 47, 27
3, 79680, Note_on_c, 0, 47, 0
3, 79680, Note_on_c, 0, 40, 25
3, 79799, Note_on_c, 0, 40, 0
3, 79799, Note_on_c, 0, 42, 25
3, 79920, Note_on_c, 0, 42, 0
3, 79920, Note_on_c, 0, 44, 28
3, 80280, Note_on_c, 0, 44, 0
3, 80280, Note_on_c, 0, 39, 19
3, 80640, Note_on_c, 0, 39, 0
3, 80640, Note_on_c, 0, 44, 26
3, 81000, Note_on_c, 0, 44, 0
3, 81000, Note_on_c, 0, 51, 0
3, 81000, Note_on_c, 0, 56, 0
3, 81000, Note_on_c, 0, 59, 0
3, 81000, Note_on_c, 0, 58, 29
3, 81000, Note_on_c, 0, 61, 29
3, 81000, Note_on_c, 0, 39, 29
3, 81000, Note_on_c, 0, 51, 29
3, 81059, Note_on_c, 0, 61, 0
3, 81059, Note_on_c, 0, 58, 0
3, 81120, Note_on_c, 0, 56, 20
3, 81120, Note_on_c, 0, 59, 20
3, 81179, Note_on_c, 0, 59, 0
3, 81179, Note_on_c, 0, 56, 0
3, 81239, Note_on_c, 0, 58, 28
3, 81239, Note_on_c, 0, 61, 28
3, 81298, Note_on_c, 0, 61, 0
3, 81298, Note_on_c, 0, 58, 0
3, 81360, Note_on_c, 0, 39, 0
3, 81360, Note_on_c, 0, 51, 0
3, 81360, Note_on_c, 0, 56, 25
3, 81360, Note_on_c, 0, 59, 25
3, 81360, Note_on_c, 0, 44, 23
3, 81360, Note_on_c, 0, 51, 23
3, 81539, Note_on_c, 0, 59, 0
3, 81539, Note_on_c, 0, 56, 0
3, 81720, Note_on_c, 0, 44, 0
3, 81720, Note_on_c, 0, 51, 0
3, 81720, Note_on_c, 0, 58, 24
3, 81720, Note_on_c, 0, 61, 24
3, 81720, Note_on_c, 0, 39, 22
3, 81720, Note_on_c, 0, 51, 22
3, 81899, Note_on_c, 0, 61, 0
3, 81899, Note_on_c, 0, 58, 0
3, 82080, Note_on_c, 0, 39, 0
3, 82080, Note_on_c, 0, 51, 0
3, 82080, Note_on_c, 0, 56, 27
3, 82080, Note_on_c, 0, 59, 27
3, 82080, Note_on_c, 0, 44, 25
3, 82080, Note_on_c, 0, 51, 25
3, 82259, Note_on_c, 0, 59, 0
3, 82259, Note_on_c, 0, 56, 0
3, 82440, Note_on_c, 0, 44, 0
3, 82440, Note_on_c, 0, 51, 0
3, 82440, Note_on_c, 0, 54, 25
3, 82440, Note_on_c, 0, 58, 25
3, 82440, Note_on_c, 0, 42, 17
3, 82619, Note_on_c, 0, 58, 0
3, 82619, Note_on_c, 0, 54, 0
3, 82800, Note_on_c, 0, 42, 0
3, 82800, Note_on_c, 0, 47, 27
3, 82800, Note_on_c, 0, 54, 27
3, 82800, Note_on_c, 0, 59, 27
3, 82800, Note_on_c, 0, 35, 26
3, 83039, Note_on_c, 0, 37, 25
3, 83160, Note_on_c, 0, 37, 0
3, 83160, Note_on_c, 0, 39, 34
3, 83280, Note_on_c, 0, 39, 0
3, 83280, Note_on_c, 0, 40, 42
3, 83399, Note_on_c, 0, 40, 0
3, 83399, Note_on_c, 0, 42, 51
3, 83520, Note_on_c, 0, 42, 0
3, 83520, Note_on_c, 0, 44, 82
3, 83880, Note_on_c, 0, 44, 0
3, 83880, Note_on_c, 0, 59, 0
3, 83880, Note_on_c, 0, 47, 0
3, 83880, Note_on_c, 0, 54, 0
3, 83880, Note_on_c, 0, 35, 0
3, 83880, Note_on_c, 0, 58, 28
3, 83880, Note_on_c, 0, 61, 28
3, 83880, Note_on_c, 0, 39, 29
3, 83880, Note_on_c, 0, 51, 29
3, 83939, Note_on_c, 0, 61, 0
3, 83939, Note_on_c, 0, 58, 0
3, 84000, Note_on_c, 0, 56, 24
3, 84000, Note_on_c, 0, 59, 24
3, 84059, Note_on_c, 0, 59, 0
3, 84059, Note_on_c, 0, 56, 0
3, 84119, Note_on_c, 0, 58, 30
3, 84119, Note_on_c, 0, 61, 30
3, 84178, Note_on_c, 0, 61, 0
3, 84178, Note_on_c, 0, 58, 0
3, 84240, Note_on_c, 0, 39, 0
3, 84240, Note_on_c, 0, 51, 0
3, 84240, Note_on_c, 0, 56, 24
3, 84240, Note_on_c, 0, 59, 24
3, 84240, Note_on_c, 0, 44, 26
3, 84240, Note_on_c, 0, 51, 26
3, 84419, Note_on_c, 0, 59, 0
3, 84419, Note_on_c, 0, 56, 0
3, 84600, Note_on_c, 0, 44, 0
3, 84600, Note_on_c, 0, 51, 0
3, 84600, Note_on_c, 0, 58, 30
3, 84600, Note_on_c, 0, 61, 30
3, 84600, Note_on_c, 0, 39, 21
3, 84600, Note_on_c, 0, 51, 21
3, 84779, Note_on_c, 0, 61, 0
3, 84779, Note_on_c, 0, 58, 0
3, 84960, Note_on_c, 0, 39, 0
3, 84960, Note_on_c, 0, 51, 0
3, 84960, Note_on_c, 0, 56, 28
3, 84960, Note_on_c, 0, 59, 28
3, 84960, Note_on_c, 0, 44, 23
3, 84960, Note_on_c, 0, 51, 23
3, 85139, Note_on_c, 0, 59, 0
3, 85139, Note_on_c, 0, 56, 0
3, 85320, Note_on_c, 0, 44, 0
3, 85320, Note_on_c, 0, 51, 0
3, 85320, Note_on_c, 0, 54, 26
3, 85320, Note_on_c, 0, 58, 26
3, 85320, Note_on_c, 0, 42, 22
3, 85499, Note_on_c, 0, 58, 0
3, 85499, Note_on_c, 0, 54, 0
3, 85680, Note_on_c, 0, 42, 0
3, 85680, Note_on_c, 0, 47, 28
3, 85680, Note_on_c, 0, 54, 28
3, 85680, Note_on_c, 0, 59, 28
3, 85680, Note_on_c, 0, 35, 60
3, 85800, Note_on_c, 0, 35, 25
3, 85919, Note_on_c, 0, 35, 0
3, 85919, Note_on_c, 0, 37, 30
3, 86040, Note_on_c, 0, 37, 0
3, 86040, Note_on_c, 0, 39, 35
3, 86160, Note_on_c, 0, 39, 0
3, 86160, Note_on_c, 0, 40, 41
3, 86279, Note_on_c, 0, 40, 0
3, 86279, Note_on_c, 0, 42, 46
3, 86400, Note_on_c, 0, 42, 0
3, 86400, Note_on_c, 0, 44, 81
3, 86760, Note_on_c, 0, 44, 0
3, 86760, Note_on_c, 0, 35, 0
3, 86760, Note_on_c, 0, 47, 0
3, 86760, Note_on_c, 0, 54, 0
3, 86760, Note_on_c, 0, 59, 0
3, 86760, Note_on_c, 0, 58, 28
3, 86760, Note_on_c, 0, 61, 28
3, 86760, Note_on_c, 0, 39, 58
3, 86760, Note_on_c, 0, 51, 58
3, 86819, Note_on_c, 0, 61, 0
3, 86819, Note_on_c, 0, 58, 0
3, 86880, Note_on_c, 0, 56, 31
3, 86880, Note_on_c, 0, 59, 31
3, 86939, Note_on_c, 0, 59, 0
3, 86939, Note_on_c, 0, 56, 0
3, 86999, Note_on_c, 0, 58, 27
3, 86999, Note_on_c, 0, 61, 27
3, 87058, Note_on_c, 0, 61, 0
3, 87058, Note_on_c, 0, 58, 0
3, 87120, Note_on_c, 0, 39, 0
3, 87120, Note_on_c, 0, 51, 0
3, 87120, Note_on_c, 0, 56, 23
3, 87120, Note_on_c, 0, 59, 23
3, 87120, Note_on_c, 0, 44, 55
3, 87120, Note_on_c, 0, 51, 55
3, 87299, Note_on_c, 0, 59, 0
3, 87299, Note_on_c, 0, 56, 0
3, 87480, Note_on_c, 0, 44, 0
3, 87480, Note_on_c, 0, 51, 0
3, 87480, Note_on_c, 0, 53, 25
3, 87480, Note_on_c, 0, 56, 25
3, 87480, Note_on_c, 0, 59, 25
3, 87480, Note_on_c, 0, 44, 47
3, 87480, Note_on_c, 0, 51, 47
3, 87659, Note_on_c, 0, 59, 0
3, 87659, Note_on_c, 0, 53, 0
3, 87659, Note_on_c, 0, 56, 0
3, 87840, Note_on_c, 0, 44, 0
3, 87840, Note_on_c, 0, 51, 0
3, 87840, Note_on_c, 0, 51, 27
3, 87840, Note_on_c, 0, 54, 27
3, 87840, Note_on_c, 0, 58, 27
3, 87840, Note_on_c, 0, 39, 41
3, 88200, Note_on_c, 0, 39, 0
3, 88200, Note_on_c, 0, 42, 53
3, 88320, Note_on_c, 0, 42, 0
3, 88320, Note_on_c, 0, 35, 43
3, 88439, Note_on_c, 0, 35, 0
3, 88439, Note_on_c, 0, 37, 53
3, 88560, Note_on_c, 0, 37, 0
3, 88560, Note_on_c, 0, 39, 54
3, 88920, Note_on_c, 0, 39, 0
3, 88920, Note_on_c, 0, 34, 45
3, 89280, Note_on_c, 0, 34, 0
3, 89280, Note_on_c, 0, 39, 53
3, 89640, Note_on_c, 0, 39, 0
3, 89640, Note_on_c, 0, 51, 0
3, 89640, Note_on_c, 0, 54, 0
3, 89640, Note_on_c, 0, 58, 0
3, 89640, Note_on_c, 0, 56, 25
3, 89640, Note_on_c, 0, 59, 25
3, 89640, Note_on_c, 0, 44, 59
3, 89640, Note_on_c, 0, 51, 59
3, 89640, Note_on_c, 0, 53, 59
3, 89699, Note_on_c, 0, 59, 0
3, 89699, Note_on_c, 0, 56, 0
3, 89760, Note_on_c, 0, 54, 26
3, 89760, Note_on_c, 0, 58, 26
3, 89819, Note_on_c, 0, 58, 0
3, 89819, Note_on_c, 0, 54, 0
3, 89879, Note_on_c, 0, 56, 28
3, 89879, Note_on_c, 0, 59, 28
3, 89938, Note_on_c, 0, 59, 0
3, 89938, Note_on_c, 0, 56, 0
3, 90000, Note_on_c, 0, 51, 0
3, 90000, Note_on_c, 0, 44, 0
3, 90000, Note_on_c, 0, 53, 0
3, 90000, Note_on_c, 0, 54, 23
3, 90000, Note_on_c, 0, 58, 23
3, 90000, Note_on_c, 0, 39, 49
3, 90000, Note_on_c, 0, 51, 49
3, 90179, Note_on_c, 0, 58, 0
3, 90179, Note_on_c, 0, 54, 0
3, 90360, Note_on_c, 0, 39, 0
3, 90360, Note_on_c, 0, 51, 0
3, 90360, Note_on_c, 0, 53, 27
3, 90360, Note_on_c, 0, 56, 27
3, 90360, Note_on_c, 0, 59, 27
3, 90360, Note_on_c, 0, 44, 47
3, 90360, Note_on_c, 0, 51, 47
3, 90539, Note_on_c, 0, 59, 0
3, 90539, Note_on_c, 0, 53, 0
3, 90539, Note_on_c, 0, 56, 0
3, 90720, Note_on_c, 0, 44, 0
3, 90720, Note_on_c, 0, 51, 0
3, 90720, Note_on_c, 0, 51, 26
3, 90720, Note_on_c, 0, 54, 26
3, 90720, Note_on_c, 0, 58, 26
3, 90720, Note_on_c, 0, 39, 40
3, 91080, Note_on_c, 0, 39, 0
3, 91080, Note_on_c, 0, 42, 50
3, 91200, Note_on_c, 0, 42, 0
3, 91200, Note_on_c, 0, 35, 43
3, 91319, Note_on_c, 0, 35, 0
3, 91319, Note_on_c, 0, 37, 53
3, 91440, Note_on_c, 0, 37, 0
3, 91440, Note_on_c, 0, 39, 51
3, 91800, Note_on_c, 0, 39, 0
3, 91800, Note_on_c, 0, 34, 43
3, 92160, Note_on_c, 0, 34, 0
3, 92160, Note_on_c, 0, 39, 56
3, 92520, Note_on_c, 0, 39, 0
3, 92520, Note_on_c, 0, 51, 0
3, 92520, Note_on_c, 0, 54, 0
3, 92520, Note_on_c, 0, 58, 0
3, 92520, Note_on_c, 0, 56, 24
3, 92520, Note_on_c, 0, 59, 24
3, 92520, Note_on_c, 0, 44, 64
3, 92520, Note_on_c, 0, 51, 64
3, 92520, Note_on_c, 0, 53, 64
3, 92579, Note_on_c, 0, 59, 0
3, 92579, Note_on_c, 0, 56, 0
3, 92640, Note_on_c, 0, 54, 22
3, 92640, Note_on_c, 0, 58, 22
3, 92699, Note_on_c, 0, 58, 0
3, 92699, Note_on_c, 0, 54, 0
3, 92759, Note_on_c, 0, 56, 22
3, 92759, Note_on_c, 0, 59, 22
3, 92818, Note_on_c, 0, 59, 0
3, 92818, Note_on_c, 0, 56, 0
3, 92880, Note_on_c, 0, 51, 0
3, 92880, Note_on_c, 0, 44, 0
3, 92880, Note_on_c, 0, 53, 0
3, 92880, Note_on_c, 0, 54, 22
3, 92880, Note_on_c, 0, 58, 22
3, 92880, Note_on_c, 0, 39, 45
3, 92880, Note_on_c, 0, 51, 45
3, 93059, Note_on_c, 0, 58, 0
3, 93059, Note_on_c, 0, 54, 0
3, 93240, Note_on_c, 0, 39, 0
3, 93240, Note_on_c, 0, 51, 0
3, 93240, Note_on_c, 0, 53, 28
3, 93240, Note_on_c, 0, 56, 28
3, 93240, Note_on_c, 0, 59, 28
3, 93240, Note_on_c, 0, 44, 49
3, 93240, Note_on_c, 0, 51, 49
3, 93419, Note_on_c, 0, 59, 0
3, 93419, Note_on_c, 0, 53, 0
3, 93419, Note_on_c, 0, 56, 0
3, 93600, Note_on_c, 0, 44, 0
3, 93600, Note_on_c, 0, 51, 0
3, 93600, Note_on_c, 0, 54, 26
3, 93600, Note_on_c, 0, 58, 26
3, 93600, Note_on_c, 0, 39, 52
3, 93600, Note_on_c, 0, 51, 52
3, 93779, Note_on_c, 0, 58, 0
3, 93779, Note_on_c, 0, 54, 0
3, 93960, Note_on_c, 0, 39, 0
3, 93960, Note_on_c, 0, 51, 0
3, 93960, Note_on_c, 0, 47, 30
3, 93960, Note_on_c, 0, 54, 30
3, 93960, Note_on_c, 0, 59, 30
3, 93960, Note_on_c, 0, 35, 89
3, 94320, Note_on_c, 0, 30, 20
3, 94559, Note_on_c, 0, 30, 0
3, 94559, Note_on_c, 0, 32, 26
3, 94680, Note_on_c, 0, 32, 0
3, 94680, Note_on_c, 0, 35, 0
3, 94680, Note_on_c, 0, 47, 0
3, 94680, Note_on_c, 0, 54, 0
3, 94680, Note_on_c, 0, 59, 0
3, 94680, Note_on_c, 0, 51, 24
3, 94680, Note_on_c, 0, 54, 24
3, 94680, Note_on_c, 0, 58, 24
3, 94680, Note_on_c, 0, 34, 29
3, 94800, Note_on_c, 0, 34, 0
3, 94800, Note_on_c, 0, 35, 26
3, 94919, Note_on_c, 0, 35, 0
3, 94919, Note_on_c, 0, 37, 31
3, 95040, Note_on_c, 0, 37, 0
3, 95040, Note_on_c, 0, 39, 27
3, 95400, Note_on_c, 0, 39, 0
3, 95400, Note_on_c, 0, 58, 0
3, 95400, Note_on_c, 0, 54, 0
3, 95400, Note_on_c, 0, 51, 0
3, 95400, Note_on_c, 0, 56, 29
3, 95400, Note_on_c, 0, 59, 29
3, 95400, Note_on_c, 0, 44, 34
3, 95400, Note_on_c, 0, 51, 34
3, 95400, Note_on_c, 0, 53, 34
3, 95459, Note_on_c, 0, 59, 0
3, 95459, Note_on_c, 0, 56, 0
3, 95520, Note_on_c, 0, 54, 23
3, 95520, Note_on_c, 0, 58, 23
3, 95579, Note_on_c, 0, 58, 0
3, 95579, Note_on_c, 0, 54, 0
3, 95639, Note_on_c, 0, 56, 28
3, 95639, Note_on_c, 0, 59, 28
3, 95698, Note_on_c, 0, 59, 0
3, 95698, Note_on_c, 0, 56, 0
3, 95760, Note_on_c, 0, 51, 0
3, 95760, Note_on_c, 0, 44, 0
3, 95760, Note_on_c, 0, 53, 0
3, 95760, Note_on_c, 0, 54, 22
3, 95760, Note_on_c, 0, 58, 22
3, 95760, Note_on_c, 0, 39, 25
3, 95760, Note_on_c, 0, 51, 25
3, 95939, Note_on_c, 0, 58, 0
3, 95939, Note_on_c, 0, 54, 0
3, 96120, Note_on_c, 0, 39, 0
3, 96120, Note_on_c, 0, 51, 0
3, 96120, Note_on_c, 0, 53, 25
3, 96120, Note_on_c, 0, 56, 25
3, 96120, Note_on_c, 0, 59, 25
3, 96120, Note_on_c, 0, 44, 25
3, 96120, Note_on_c, 0, 51, 25
3, 96299, Note_on_c, 0, 59, 0
3, 96299, Note_on_c, 0, 53, 0
3, 96299, Note_on_c, 0, 56, 0
3, 96480, Note_on_c, 0, 44, 0
3, 96480, Note_on_c, 0, 51, 0
3, 96480, Note_on_c, 0, 54, 24
3, 96480, Note_on_c, 0, 58, 24
3, 96480, Note_on_c, 0, 39, 23
3, 96480, Note_on_c, 0, 51, 23
3, 96659, Note_on_c, 0, 58, 0
3, 96659, Note_on_c, 0, 54, 0
3, 96840, Note_on_c, 0, 39, 0
3, 96840, Note_on_c, 0, 51, 0
3, 96840, Note_on_c, 0, 47, 31
3, 96840, Note_on_c, 0, 54, 31
3, 96840, Note_on_c, 0, 59, 31
3, 96840, Note_on_c, 0, 35, 85
3, 97320, Note_on_c, 0, 30, 19
3, 97439, Note_on_c, 0, 30, 0
3, 97439, Note_on_c, 0, 32, 25
3, 97560, Note_on_c, 0, 32, 0
3, 97560, Note_on_c, 0, 35, 0
3, 97560, Note_on_c, 0, 47, 0
3, 97560, Note_on_c, 0, 54, 0
3, 97560, Note_on_c, 0, 59, 0
3, 97560, Note_on_c, 0, 51, 26
3, 97560, Note_on_c, 0, 54, 26
3, 97560, Note_on_c, 0, 58, 26
3, 97560, Note_on_c, 0, 34, 32
3, 97680, Note_on_c, 0, 34, 0
3, 97680, Note_on_c, 0, 35, 38
3, 97799, Note_on_c, 0, 35, 0
3, 97799, Note_on_c, 0, 37, 44
3, 97920, Note_on_c, 0, 37, 0
3, 97920, Note_on_c, 0, 39, 53
3, 98280, Note_on_c, 0, 39, 0
3, 98280, Note_on_c, 0, 58, 0
3, 98280, Note_on_c, 0, 54, 0
3, 98280, Note_on_c, 0, 51, 0
3, 98280, Note_on_c, 0, 56, 31
3, 98280, Note_on_c, 0, 59, 31
3, 98280, Note_on_c, 0, 44, 57
3, 98280, Note_on_c, 0, 51, 57
3, 98280, Note_on_c, 0, 53, 57
3, 98339, Note_on_c, 0, 59, 0
3, 98339, Note_on_c, 0, 56, 0
3, 98400, Note_on_c, 0, 54, 27
3, 98400, Note_on_c, 0, 58, 27
3, 98459, Note_on_c, 0, 58, 0
3, 98459, Note_on_c, 0, 54, 0
3, 98519, Note_on_c, 0, 56, 27
3, 98519, Note_on_c, 0, 59, 27
3, 98578, Note_on_c, 0, 59, 0
3, 98578, Note_on_c, 0, 56, 0
3, 98640, Note_on_c, 0, 51, 0
3, 98640, Note_on_c, 0, 44, 0
3, 98640, Note_on_c, 0, 53, 0
3, 98640, Note_on_c, 0, 54, 23
3, 98640, Note_on_c, 0, 58, 23
3, 98640, Note_on_c, 0, 39, 49
3, 98640, Note_on_c, 0, 51, 49
3, 98819, Note_on_c, 0, 58, 0
3, 98819, Note_on_c, 0, 54, 0
3, 99000, Note_on_c, 0, 39, 0
3, 99000, Note_on_c, 0, 51, 0
3, 99000, Note_on_c, 0, 51, 29
3, 99000, Note_on_c, 0, 54, 29
3, 99000, Note_on_c, 0, 58, 29
3, 99179, Note_on_c, 0, 58, 0
3, 99179, Note_on_c, 0, 54, 0
3, 99179, Note_on_c, 0, 51, 0
3, 99360, Note_on_c, 0, 54, 45
3, 99360, Note_on_c, 0, 35, 47
3, 99360, Note_on_c, 0, 47, 47
3, 100080, Note_on_c, 0, 61, 49
3, 100440, Note_on_c, 0, 61, 0
3, 100440, Note_on_c, 0, 60, 47
3, 100560, Note_on_c, 0, 60, 0
3, 100560, Note_on_c, 0, 57, 55
3, 100679, Note_on_c, 0, 57, 0
3, 100679, Note_on_c, 0, 58, 58
3, 100800, Note_on_c, 0, 58, 0
3, 100800, Note_on_c, 0, 54, 0
3, 100800, Note_on_c, 0, 59, 59
3, 100800, Note_on_c, 0, 56, 53
3, 101160, Note_on_c, 0, 56, 0
3, 101160, Note_on_c, 0, 59, 0
3, 101160, Note_on_c, 0, 57, 56
3, 101160, Note_on_c, 0, 52, 50
3, 101219, Note_on_c, 0, 52, 0
3, 101280, Note_on_c, 0, 50, 48
3, 101339, Note_on_c, 0, 50, 0
3, 101399, Note_on_c, 0, 51, 51
3, 101458, Note_on_c, 0, 51, 0
3, 101520, Note_on_c, 0, 57, 0
3, 101520, Note_on_c, 0, 58, 61
3, 101520, Note_on_c, 0, 52, 49
3, 101579, Note_on_c, 0, 52, 0
3, 101640, Note_on_c, 0, 50, 48
3, 101699, Note_on_c, 0, 50, 0
3, 101759, Note_on_c, 0, 51, 53
3, 101818, Note_on_c, 0, 51, 0
3, 101880, Note_on_c, 0, 58, 0
3, 101880, Note_on_c, 0, 57, 54
3, 101880, Note_on_c, 0, 52, 53
3, 101939, Note_on_c, 0, 52, 0
3, 102000, Note_on_c, 0, 51, 49
3, 102059, Note_on_c, 0, 51, 0
3, 102119, Note_on_c, 0, 50, 53
3, 102178, Note_on_c, 0, 50, 0
3, 102240, Note_on_c, 0, 35, 0
3, 102240, Note_on_c, 0, 47, 0
3, 102240, Note_on_c, 0, 57, 0
3, 102240, Note_on_c, 0, 51, 63
3, 102240, Note_on_c, 0, 56, 63
3, 102240, Note_on_c, 0, 59, 63
3, 102240, Note_on_c, 0, 32, 101
3, 102240, Note_on_c, 0, 44, 101
3, 102600, Note_on_c, 0, 59, 0
3, 102600, Note_on_c, 0, 51, 0
3, 102600, Note_on_c, 0, 56, 0
3, 102600, Note_on_c, 0, 60, 66
3, 102600, Note_on_c, 0, 51, 48
3, 102960, Note_on_c, 0, 60, 0
3, 102960, Note_on_c, 0, 59, 58
3, 103320, Note_on_c, 0, 59, 0
3, 103320, Note_on_c, 0, 58, 55
3, 103680, Note_on_c, 0, 58, 0
3, 103680, Note_on_c, 0, 51, 0
3, 103680, Note_on_c, 0, 32, 0
3, 103680, Note_on_c, 0, 59, 59
3, 103680, Note_on_c, 0, 57, 59
3, 103800, Note_on_c, 0, 57, 0
3, 103800, Note_on_c, 0, 54, 48
3, 103919, Note_on_c, 0, 54, 0
3, 103919, Note_on_c, 0, 55, 50
3, 104040, Note_on_c, 0, 55, 0
3, 104040, Note_on_c, 0, 59, 0
3, 104040, Note_on_c, 0, 59, 58
3, 104040, Note_on_c, 0, 56, 54
3, 104160, Note_on_c, 0, 56, 0
3, 104160, Note_on_c, 0, 51, 52
3, 104160, Note_on_c, 0, 54, 52
3, 104279, Note_on_c, 0, 54, 0
3, 104279, Note_on_c, 0, 51, 0
3, 104279, Note_on_c, 0, 52, 52
3, 104279, Note_on_c, 0, 55, 52
3, 104400, Note_on_c, 0, 55, 0
3, 104400, Note_on_c, 0, 52, 0
3, 104400, Note_on_c, 0, 53, 48
3, 104400, Note_on_c, 0, 56, 48
3, 104400, Note_on_c, 0, 47, 44
3, 104400, Note_on_c, 0, 50, 44
3, 104520, Note_on_c, 0, 50, 0
3, 104520, Note_on_c, 0, 44, 0
3, 104520, Note_on_c, 0, 47, 0
3, 104520, Note_on_c, 0, 41, 46
3, 104520, Note_on_c, 0, 44, 46
3, 104639, Note_on_c, 0, 44, 0
3, 104639, Note_on_c, 0, 41, 0
3, 104639, Note_on_c, 0, 43, 53
3, 104639, Note_on_c, 0, 46, 53
3, 104760, Note_on_c, 0, 46, 0
3, 104760, Note_on_c, 0, 56, 0
3, 104760, Note_on_c, 0, 43, 0
3, 104760, Note_on_c, 0, 44, 51
3, 104760, Note_on_c, 0, 47, 51
3, 104880, Note_on_c, 0, 53, 0
3, 104880, Note_on_c, 0, 49, 47
3, 104999, Note_on_c, 0, 49, 0
3, 104999, Note_on_c, 0, 50, 54
3, 105120, Note_on_c, 0, 50, 0
3, 105120, Note_on_c, 0, 59, 0
3, 105120, Note_on_c, 0, 44, 0
3, 105120, Note_on_c, 0, 47, 0
3, 105120, Note_on_c, 0, 51, 54
3, 105120, Note_on_c, 0, 55, 54
3, 105120, Note_on_c, 0, 58, 54
3, 105120, Note_on_c, 0, 39, 45
3, 105120, Note_on_c, 0, 46, 45
3, 105480, Note_on_c, 0, 46, 0
3, 105480, Note_on_c, 0, 39, 0
3, 105480, Note_on_c, 0, 43, 25
3, 105600, Note_on_c, 0, 43, 0
3, 105600, Note_on_c, 0, 36, 18
3, 105719, Note_on_c, 0, 36, 0
3, 105719, Note_on_c, 0, 38, 21
3, 105840, Note_on_c, 0, 38, 0
3, 105840, Note_on_c, 0, 39, 26
3, 106200, Note_on_c, 0, 39, 0
3, 106200, Note_on_c, 0, 34, 20
3, 106560, Note_on_c, 0, 34, 0
3, 106560, Note_on_c, 0, 39, 95
3, 106920, Note_on_c, 0, 58, 0
3, 106920, Note_on_c, 0, 51, 0
3, 106920, Note_on_c, 0, 55, 0
3, 106920, Note_on_c, 0, 51, 62
3, 106920, Note_on_c, 0, 55, 62
3, 106920, Note_on_c, 0, 60, 62
3, 106920, Note_on_c, 0, 48, 20
3, 107099, Note_on_c, 0, 48, 0
3, 107099, Note_on_c, 0, 55, 0
3, 107099, Note_on_c, 0, 60, 0
3, 107099, Note_on_c, 0, 51, 0
3, 107280, Note_on_c, 0, 51, 59
3, 107280, Note_on_c, 0, 55, 59
3, 107280, Note_on_c, 0, 58, 59
3, 107280, Note_on_c, 0, 46, 26
3, 107459, Note_on_c, 0, 46, 0
3, 107459, Note_on_c, 0, 55, 0
3, 107459, Note_on_c, 0, 58, 0
3, 107459, Note_on_c, 0, 51, 0
3, 107640, Note_on_c, 0, 51, 60
3, 107640, Note_on_c, 0, 55, 60
3, 107640, Note_on_c, 0, 60, 60
3, 107640, Note_on_c, 0, 48, 24
3, 107819, Note_on_c, 0, 48, 0
3, 107819, Note_on_c, 0, 55, 0
3, 107819, Note_on_c, 0, 60, 0
3, 107819, Note_on_c, 0, 51, 0
3, 108000, Note_on_c, 0, 39, 0
3, 108000, Note_on_c, 0, 51, 52
3, 108000, Note_on_c, 0, 55, 52
3, 108000, Note_on_c, 0, 58, 52
3, 108000, Note_on_c, 0, 39, 24
3, 108000, Note_on_c, 0, 46, 24
3, 108360, Note_on_c, 0, 46, 0
3, 108360, Note_on_c, 0, 39, 0
3, 108360, Note_on_c, 0, 43, 23
3, 108480, Note_on_c, 0, 43, 0
3, 108480, Note_on_c, 0, 36, 23
3, 108599, Note_on_c, 0, 36, 0
3, 108599, Note_on_c, 0, 38, 25
3, 108720, Note_on_c, 0, 38, 0
3, 108720, Note_on_c, 0, 39, 30
3, 109080, Note_on_c, 0, 39, 0
3, 109080, Note_on_c, 0, 34, 26
3, 109440, Note_on_c, 0, 34, 0
3, 109440, Note_on_c, 0, 39, 100
3, 109800, Note_on_c, 0, 58, 0
3, 109800, Note_on_c, 0, 51, 0
3, 109800, Note_on_c, 0, 55, 0
3, 109800, Note_on_c, 0, 51, 61
3, 109800, Note_on_c, 0, 55, 61
3, 109800, Note_on_c, 0, 60, 61
3, 109800, Note_on_c, 0, 48, 23
3, 109979, Note_on_c, 0, 48, 0
3, 109979, Note_on_c, 0, 55, 0
3, 109979, Note_on_c, 0, 60, 0
3, 109979, Note_on_c, 0, 51, 0
3, 110160, Note_on_c, 0, 51, 58
3, 110160, Note_on_c, 0, 55, 58
3, 110160, Note_on_c, 0, 58, 58
3, 110160, Note_on_c, 0, 46, 25
3, 110339, Note_on_c, 0, 46, 0
3, 110339, Note_on_c, 0, 55, 0
3, 110339, Note_on_c, 0, 58, 0
3, 110339, Note_on_c, 0, 51, 0
3, 110520, Note_on_c, 0, 51, 65
3, 110520, Note_on_c, 0, 55, 65
3, 110520, Note_on_c, 0, 60, 65
3, 110520, Note_on_c, 0, 48, 26
3, 110699, Note_on_c, 0, 48, 0
3, 110699, Note_on_c, 0, 55, 0
3, 110699, Note_on_c, 0, 60, 0
3, 110699, Note_on_c, 0, 51, 0
3, 110880, Note_on_c, 0, 39, 0
3, 110880, Note_on_c, 0, 51, 61
3, 110880, Note_on_c, 0, 55, 61
3, 110880, Note_on_c, 0, 58, 61
3, 110880, Note_on_c, 0, 39, 27
3, 110880, Note_on_c, 0, 46, 27
3, 113760, Note_on_c, 0, 46, 0
3, 113760, Note_on_c, 0, 58, 0
3, 113760, Note_on_c, 0, 51, 0
3, 113760, Note_on_c, 0, 55, 0
3, 113760, Note_on_c, 0, 39, 0
3, 116280, Note_on_c, 0, 54, 63
3, 116280, Note_on_c, 0, 57, 63
3, 116280, Note_on_c, 0, 59, 63
3, 116280, Note_on_c, 0, 47, 40
3, 116640, Note_on_c, 0, 47, 0
3, 116640, Note_on_c, 0, 54, 0
3, 116640, Note_on_c, 0, 57, 0
3, 116640, Note_on_c, 0, 59, 0
3, 116640, Note_on_c, 0, 52, 91
3, 116640, Note_on_c, 0, 56, 91
3, 116640, Note_on_c, 0, 59, 91
3, 116640, Note_on_c, 0, 40, 76
3, 117000, Note_on_c, 0, 40, 0
3, 117000, Note_on_c, 0, 52, 0
3, 117000, Note_on_c, 0, 56, 0
3, 117000, Note_on_c, 0, 59, 0
3, 117000, Note_on_c, 0, 64, 101
3, 117360, Note_on_c, 0, 64, 0
3, 117360, Note_on_c, 0, 64, 90
3, 117480, Note_on_c, 0, 64, 0
3, 117480, Note_on_c, 0, 64, 90
3, 117599, Note_on_c, 0, 64, 0
3, 117599, Note_on_c, 0, 64, 88
3, 117720, Note_on_c, 0, 64, 0
3, 117720, Note_on_c, 0, 64, 96
3, 118440, Note_on_c, 0, 64, 0
3, 118440, Note_on_c, 0, 64, 89
3, 118440, Note_on_c, 0, 59, 76
3, 118560, Note_on_c, 0, 59, 0
3, 118560, Note_on_c, 0, 60, 91
3, 118679, Note_on_c, 0, 60, 0
3, 118679, Note_on_c, 0, 61, 95
3, 118800, Note_on_c, 0, 61, 0
3, 118800, Note_on_c, 0, 64, 0
3, 118800, Note_on_c, 0, 64, 95
3, 118800, Note_on_c, 0, 62, 102
3, 119039, Note_on_c, 0, 64, 0
3, 119039, Note_on_c, 0, 68, 101
3, 119160, Note_on_c, 0, 68, 0
3, 119160, Note_on_c, 0, 62, 0
3, 119160, Note_on_c, 0, 66, 92
3, 119160, Note_on_c, 0, 69, 92
3, 119160, Note_on_c, 0, 62, 102
3, 119280, Note_on_c, 0, 69, 0
3, 119280, Note_on_c, 0, 66, 0
3, 119280, Note_on_c, 0, 68, 85
3, 119399, Note_on_c, 0, 68, 0
3, 119399, Note_on_c, 0, 66, 81
3, 119520, Note_on_c, 0, 66, 0
3, 119520, Note_on_c, 0, 62, 0
3, 119520, Note_on_c, 0, 69, 95
3, 119520, Note_on_c, 0, 64, 70
3, 119520, Note_on_c, 0, 61, 82
3, 119759, Note_on_c, 0, 64, 0
3, 119759, Note_on_c, 0, 66, 56
3, 119880, Note_on_c, 0, 66, 0
3, 119880, Note_on_c, 0, 61, 0
3, 119880, Note_on_c, 0, 69, 0
3, 119880, Note_on_c, 0, 64, 63
3, 119880, Note_on_c, 0, 68, 63
3, 119880, Note_on_c, 0, 60, 102
3, 120000, Note_on_c, 0, 68, 0
3, 120000, Note_on_c, 0, 64, 0
3, 120000, Note_on_c, 0, 66, 47
3, 120119, Note_on_c, 0, 66, 0
3, 120119, Note_on_c, 0, 64, 42
3, 120240, Note_on_c, 0, 64, 0
3, 120240, Note_on_c, 0, 60, 0
3, 120240, Note_on_c, 0, 68, 81
3, 120240, Note_on_c, 0, 63, 44
3, 120240, Note_on_c, 0, 59, 87
3, 120479, Note_on_c, 0, 63, 0
3, 120479, Note_on_c, 0, 63, 48
3, 120600, Note_on_c, 0, 63, 0
3, 120600, Note_on_c, 0, 59, 0
3, 120600, Note_on_c, 0, 68, 0
3, 120600, Note_on_c, 0, 64, 85
3, 120600, Note_on_c, 0, 68, 85
3, 120600, Note_on_c, 0, 58, 102
3, 120600, Note_on_c, 0, 61, 102
3, 120720, Note_on_c, 0, 68, 0
3, 120720, Note_on_c, 0, 64, 0
3, 120720, Note_on_c, 0, 63, 72
3, 120839, Note_on_c, 0, 63, 0
3, 120839, Note_on_c, 0, 61, 82
3, 120960, Note_on_c, 0, 61, 0
3, 120960, Note_on_c, 0, 58, 0
3, 120960, Note_on_c, 0, 61, 0
3, 120960, Note_on_c, 0, 60, 93
3, 120960, Note_on_c, 0, 64, 93
3, 120960, Note_on_c, 0, 57, 84
3, 121199, Note_on_c, 0, 64, 0
3, 121199, Note_on_c, 0, 60, 0
3, 121199, Note_on_c, 0, 63, 82
3, 121320, Note_on_c, 0, 63, 0
3, 121320, Note_on_c, 0, 57, 0
3, 121320, Note_on_c, 0, 63, 83
3, 121320, Note_on_c, 0, 61, 47
3, 121320, Note_on_c, 0, 56, 80
3, 121559, Note_on_c, 0, 63, 0
3, 121559, Note_on_c, 0, 64, 93
3, 121680, Note_on_c, 0, 64, 0
3, 121680, Note_on_c, 0, 56, 0
3, 121680, Note_on_c, 0, 61, 0
3, 121680, Note_on_c, 0, 65, 95
3, 121680, Note_on_c, 0, 57, 52
3, 121680, Note_on_c, 0, 62, 52
3, 121680, Note_on_c, 0, 54, 85
3, 121919, Note_on_c, 0, 65, 0
3, 121919, Note_on_c, 0, 66, 97
3, 122040, Note_on_c, 0, 66, 0
3, 122040, Note_on_c, 0, 54, 0
3, 122040, Note_on_c, 0, 62, 0
3, 122040, Note_on_c, 0, 57, 0
3, 122040, Note_on_c, 0, 57, 88
3, 122040, Note_on_c, 0, 63, 88
3, 122040, Note_on_c, 0, 66, 88
3, 122040, Note_on_c, 0, 35, 80
3, 122040, Note_on_c, 0, 47, 80
3, 122400, Note_on_c, 0, 47, 0
3, 122400, Note_on_c, 0, 66, 0
3, 122400, Note_on_c, 0, 57, 0
3, 122400, Note_on_c, 0, 63, 0
3, 122400, Note_on_c, 0, 35, 0
3, 122400, Note_on_c, 0, 56, 80
3, 122400, Note_on_c, 0, 64, 80
3, 122400, Note_on_c, 0, 40, 93
3, 122400, Note_on_c, 0, 47, 93
3, 122400, Note_on_c, 0, 52, 93
3, 122760, Note_on_c, 0, 52, 0
3, 122760, Note_on_c, 0, 40, 0
3, 122760, Note_on_c, 0, 56, 0
3, 122760, Note_on_c, 0, 64, 0
3, 122760, Note_on_c, 0, 47, 0
3, 122760, Note_on_c, 0, 64, 89
3, 122880, Note_on_c, 0, 64, 0
3, 122880, Note_on_c, 0, 64, 87
3, 122999, Note_on_c, 0, 64, 0
3, 122999, Note_on_c, 0, 64, 88
3, 123120, Note_on_c, 0, 64, 0
3, 123120, Note_on_c, 0, 64, 102
3, 123719, Note_on_c, 0, 64, 0
3, 123719, Note_on_c, 0, 64, 88
3, 123840, Note_on_c, 0, 64, 0
3, 123840, Note_on_c, 0, 64, 89
3, 124079, Note_on_c, 0, 58, 77
3, 124200, Note_on_c, 0, 58, 0
3, 124200, Note_on_c, 0, 64, 0
3, 124200, Note_on_c, 0, 64, 89
3, 124200, Note_on_c, 0, 59, 86
3, 124320, Note_on_c, 0, 59, 0
3, 124320, Note_on_c, 0, 60, 94
3, 124439, Note_on_c, 0, 60, 0
3, 124439, Note_on_c, 0, 61, 94
3, 124560, Note_on_c, 0, 61, 0
3, 124560, Note_on_c, 0, 64, 0
3, 124560, Note_on_c, 0, 64, 86
3, 124560, Note_on_c, 0, 62, 102
3, 124799, Note_on_c, 0, 64, 0
3, 124799, Note_on_c, 0, 68, 98
3, 124920, Note_on_c, 0, 68, 0
3, 124920, Note_on_c, 0, 62, 0
3, 124920, Note_on_c, 0, 66, 95
3, 124920, Note_on_c, 0, 69, 95
3, 124920, Note_on_c, 0, 62, 100
3, 125040, Note_on_c, 0, 69, 0
3, 125040, Note_on_c, 0, 66, 0
3, 125040, Note_on_c, 0, 68, 84
3, 125159, Note_on_c, 0, 68, 0
3, 125159, Note_on_c, 0, 66, 83
3, 125237, Note_on_c, 0, 62, 0
3, 125280, Note_on_c, 0, 66, 0
3, 125280, Note_on_c, 0, 69, 97
3, 125280, Note_on_c, 0, 64, 56
3, 125280, Note_on_c, 0, 61, 82
3, 125519, Note_on_c, 0, 64, 0
3, 125519, Note_on_c, 0, 66, 63
3, 125640, Note_on_c, 0, 66, 0
3, 125640, Note_on_c, 0, 61, 0
3, 125640, Note_on_c, 0, 69, 0
3, 125640, Note_on_c, 0, 64, 80
3, 125640, Note_on_c, 0, 68, 80
3, 125640, Note_on_c, 0, 60, 100
3, 125760, Note_on_c, 0, 68, 0
3, 125760, Note_on_c, 0, 64, 0
3, 125760, Note_on_c, 0, 66, 80
3, 125879, Note_on_c, 0, 66, 0
3, 125879, Note_on_c, 0, 64, 81
3, 125957, Note_on_c, 0, 60, 0
3, 126000, Note_on_c, 0, 64, 0
3, 126000, Note_on_c, 0, 68, 96
3, 126000, Note_on_c, 0, 63, 42
3, 126000, Note_on_c, 0, 59, 82
3, 126239, Note_on_c, 0, 63, 0
3, 126239, Note_on_c, 0, 63, 50
3, 126360, Note_on_c, 0, 63, 0
3, 126360, Note_on_c, 0, 59, 0
3, 126360, Note_on_c, 0, 68, 0
3, 126360, Note_on_c, 0, 64, 89
3, 126360, Note_on_c, 0, 68, 89
3, 126360, Note_on_c, 0, 58, 102
3, 126360, Note_on_c, 0, 61, 102
3, 126480, Note_on_c, 0, 68, 0
3, 126480, Note_on_c, 0, 64, 0
3, 126480, Note_on_c, 0, 63, 70
3, 126599, Note_on_c, 0, 63, 0
3, 126599, Note_on_c, 0, 61, 78
3, 126677, Note_on_c, 0, 58, 0
3, 126677, Note_on_c, 0, 61, 0
3, 126720, Note_on_c, 0, 61, 0
3, 126720, Note_on_c, 0, 61, 101
3, 126720, Note_on_c, 0, 66, 101
3, 126720, Note_on_c, 0, 57, 81
3, 127080, Note_on_c, 0, 57, 0
3, 127080, Note_on_c, 0, 66, 0
3, 127080, Note_on_c, 0, 61, 0
3, 127080, Note_on_c, 0, 59, 96
3, 127080, Note_on_c, 0, 65, 96
3, 127080, Note_on_c, 0, 68, 96
3, 127080, Note_on_c, 0, 56, 86
3, 127200, Note_on_c, 0, 56, 0
3, 127200, Note_on_c, 0, 57, 94
3, 127319, Note_on_c, 0, 57, 0
3, 127319, Note_on_c, 0, 56, 85
3, 127440, Note_on_c, 0, 56, 0
3, 127440, Note_on_c, 0, 59, 0
3, 127440, Note_on_c, 0, 65, 0
3, 127440, Note_on_c, 0, 68, 0
3, 127440, Note_on_c, 0, 64, 79
3, 127440, Note_on_c, 0, 57, 46
3, 127440, Note_on_c, 0, 61, 46
3, 127440, Note_on_c, 0, 69, 46
3, 127440, Note_on_c, 0, 54, 84
3, 127560, Note_on_c, 0, 54, 0
3, 127560, Note_on_c, 0, 56, 91
3, 127679, Note_on_c, 0, 56, 0
3, 127679, Note_on_c, 0, 64, 0
3, 127679, Note_on_c, 0, 63, 82
3, 127679, Note_on_c, 0, 54, 85
3, 127800, Note_on_c, 0, 54, 0
3, 127800, Note_on_c, 0, 57, 0
3, 127800, Note_on_c, 0, 69, 0
3, 127800, Note_on_c, 0, 61, 0
3, 127800, Note_on_c, 0, 63, 0
3, 127800, Note_on_c, 0, 56, 101
3, 127800, Note_on_c, 0, 62, 101
3, 127800, Note_on_c, 0, 64, 101
3, 127800, Note_on_c, 0, 68, 101
3, 127800, Note_on_c, 0, 40, 83
3, 127800, Note_on_c, 0, 52, 83
3, 128160, Note_on_c, 0, 52, 0
3, 128160, Note_on_c, 0, 62, 0
3, 128160, Note_on_c, 0, 64, 0
3, 128160, Note_on_c, 0, 56, 0
3, 128160, Note_on_c, 0, 40, 0
3, 128160, Note_on_c, 0, 68, 0
3, 128160, Note_on_c, 0, 57, 92
3, 128160, Note_on_c, 0, 61, 92
3, 128160, Note_on_c, 0, 64, 92
3, 128160, Note_on_c, 0, 69, 92
3, 128160, Note_on_c, 0, 45, 89
3, 128160, Note_on_c, 0, 52, 89
3, 128520, Note_on_c, 0, 52, 0
3, 128520, Note_on_c, 0, 61, 0
3, 128520, Note_on_c, 0, 64, 0
3, 128520, Note_on_c, 0, 57, 0
3, 128520, Note_on_c, 0, 45, 0
3, 128520, Note_on_c, 0, 69, 0
3, 128880, Note_on_c, 0, 52, 102
3, 128880, Note_on_c, 0, 57, 102
3, 128880, Note_on_c, 0, 61, 102
3, 128880, Note_on_c, 0, 33, 101
3, 128880, Note_on_c, 0, 45, 101
3, 129960, Note_on_c, 0, 45, 0
3, 129960, Note_on_c, 0, 61, 0
3, 129960, Note_on_c, 0, 52, 0
3, 129960, Note_on_c, 0, 57, 0
3, 129960, Note_on_c, 0, 33, 0
3, 129960, Note_on_c, 0, 56, 101
3, 129960, Note_on_c, 0, 62, 101
3, 129960, Note_on_c, 0, 66, 101
3, 129960, Note_on_c, 0, 35, 92
3, 129960, Note_on_c, 0, 47, 92
3, 130139, Note_on_c, 0, 47, 0
3, 130139, Note_on_c, 0, 66, 0
3, 130139, Note_on_c, 0, 56, 0
3, 130139, Note_on_c, 0, 62, 0
3, 130139, Note_on_c, 0, 35, 0
3, 130320, Note_on_c, 0, 57, 88
3, 130320, Note_on_c, 0, 61, 88
3, 130320, Note_on_c, 0, 66, 88
3, 130320, Note_on_c, 0, 37, 92
3, 130320, Note_on_c, 0, 49, 92
3, 130499, Note_on_c, 0, 49, 0
3, 130499, Note_on_c, 0, 66, 0
3, 130499, Note_on_c, 0, 57, 0
3, 130499, Note_on_c, 0, 61, 0
3, 130499, Note_on_c, 0, 37, 0
3, 130680, Note_on_c, 0, 59, 83
3, 130680, Note_on_c, 0, 61, 83
3, 130680, Note_on_c, 0, 65, 83
3, 130680, Note_on_c, 0, 37, 85
3, 130680, Note_on_c, 0, 49, 85
3, 130859, Note_on_c, 0, 49, 0
3, 130859, Note_on_c, 0, 65, 0
3, 130859, Note_on_c, 0, 59, 0
3, 130859, Note_on_c, 0, 61, 0
3, 130859, Note_on_c, 0, 37, 0
3, 131040, Note_on_c, 0, 57, 91
3, 131040, Note_on_c, 0, 61, 91
3, 131040, Note_on_c, 0, 66, 91
3, 131040, Note_on_c, 0, 42, 86
3, 131040, Note_on_c, 0, 49, 86
3, 131219, Note_on_c, 0, 49, 0
3, 131219, Note_on_c, 0, 66, 0
3, 131219, Note_on_c, 0, 57, 0
3, 131219, Note_on_c, 0, 61, 0
3, 131219, Note_on_c, 0, 42, 0
3, 131760, Note_on_c, 0, 49, 101
3, 131760, Note_on_c, 0, 54, 101
3, 131760, Note_on_c, 0, 57, 101
3, 131760, Note_on_c, 0, 30, 99
3, 131760, Note_on_c, 0, 42, 99
3, 132480, Note_on_c, 0, 57, 0
3, 132480, Note_on_c, 0, 49, 0
3, 132480, Note_on_c, 0, 54, 0
3, 132840, Note_on_c, 0, 30, 0
3, 132840, Note_on_c, 0, 42, 0
3, 132840, Note_on_c, 0, 54, 75
3, 132840, Note_on_c, 0, 59, 75
3, 132840, Note_on_c, 0, 62, 75
3, 132840, Note_on_c, 0, 32, 89
3, 132840, Note_on_c, 0, 44, 89
3, 133019, Note_on_c, 0, 44, 0
3, 133019, Note_on_c, 0, 62, 0
3, 133019, Note_on_c, 0, 54, 0
3, 133019, Note_on_c, 0, 59, 0
3, 133019, Note_on_c, 0, 32, 0
3, 133200, Note_on_c, 0, 54, 83
3, 133200, Note_on_c, 0, 61, 83
3, 133200, Note_on_c, 0, 33, 83
3, 133200, Note_on_c, 0, 45, 83
3, 133379, Note_on_c, 0, 45, 0
3, 133379, Note_on_c, 0, 54, 0
3, 133379, Note_on_c, 0, 61, 0
3, 133379, Note_on_c, 0, 33, 0
3, 133560, Note_on_c, 0, 54, 85
3, 133560, Note_on_c, 0, 61, 85
3, 133560, Note_on_c, 0, 34, 91
3, 133560, Note_on_c, 0, 46, 91
3, 133739, Note_on_c, 0, 46, 0
3, 133739, Note_on_c, 0, 54, 0
3, 133739, Note_on_c, 0, 61, 0
3, 133739, Note_on_c, 0, 34, 0
3, 133920, Note_on_c, 0, 54, 89
3, 133920, Note_on_c, 0, 59, 89
3, 133920, Note_on_c, 0, 35, 87
3, 133920, Note_on_c, 0, 47, 87
3, 134159, Note_on_c, 0, 59, 0
3, 134159, Note_on_c, 0, 54, 0
3, 134159, Note_on_c, 0, 59, 98
3, 134159, Note_on_c, 0, 63, 98
3, 134280, Note_on_c, 0, 63, 0
3, 134280, Note_on_c, 0, 59, 0
3, 134280, Note_on_c, 0, 59, 94
3, 134280, Note_on_c, 0, 63, 94
3, 134280, Note_on_c, 0, 59, 44
3, 134640, Note_on_c, 0, 59, 0
3, 134640, Note_on_c, 0, 57, 51
3, 134879, Note_on_c, 0, 63, 0
3, 134879, Note_on_c, 0, 59, 0
3, 134879, Note_on_c, 0, 61, 93
3, 134879, Note_on_c, 0, 64, 93
3, 135000, Note_on_c, 0, 64, 0
3, 135000, Note_on_c, 0, 57, 0
3, 135000, Note_on_c, 0, 61, 0
3, 135000, Note_on_c, 0, 61, 91
3, 135000, Note_on_c, 0, 64, 91
3, 135000, Note_on_c, 0, 56, 46
3, 135360, Note_on_c, 0, 56, 0
3, 135360, Note_on_c, 0, 54, 46
3, 135599, Note_on_c, 0, 61, 0
3, 135599, Note_on_c, 0, 64, 0
3, 135599, Note_on_c, 0, 57, 74
3, 135599, Note_on_c, 0, 61, 74
3, 135720, Note_on_c, 0, 61, 0
3, 135720, Note_on_c, 0, 54, 0
3, 135720, Note_on_c, 0, 57, 0
3, 135720, Note_on_c, 0, 57, 90
3, 135720, Note_on_c, 0, 61, 90
3, 136800, Note_on_c, 0, 61, 0
3, 136800, Note_on_c, 0, 47, 0
3, 136800, Note_on_c, 0, 35, 0
3, 136800, Note_on_c, 0, 57, 0
3, 136800, Note_on_c, 0, 63, 90
3, 136800, Note_on_c, 0, 54, 52
3, 136800, Note_on_c, 0, 57, 52
3, 136800, Note_on_c, 0, 35, 87
3, 136800, Note_on_c, 0, 47, 87
3, 137039, Note_on_c, 0, 63, 0
3, 137039, Note_on_c, 0, 63, 97
3, 137039, Note_on_c, 0, 66, 97
3, 137160, Note_on_c, 0, 66, 0
3, 137160, Note_on_c, 0, 63, 0
3, 137160, Note_on_c, 0, 63, 90
3, 137160, Note_on_c, 0, 66, 90
3, 137520, Note_on_c, 0, 66, 0
3, 137520, Note_on_c, 0, 63, 0
3, 137520, Note_on_c, 0, 63, 79
3, 137520, Note_on_c, 0, 61, 41
3, 137880, Note_on_c, 0, 61, 0
3, 137880, Note_on_c, 0, 59, 45
3, 138240, Note_on_c, 0, 59, 0
3, 138240, Note_on_c, 0, 57, 0
3, 138240, Note_on_c, 0, 57, 84
3, 138479, Note_on_c, 0, 57, 0
3, 138479, Note_on_c, 0, 63, 0
3, 138479, Note_on_c, 0, 57, 96
3, 138479, Note_on_c, 0, 61, 96
3, 138479, Note_on_c, 0, 64, 96
3, 138600, Note_on_c, 0, 64, 0
3, 138600, Note_on_c, 0, 57, 0
3, 138600, Note_on_c, 0, 54, 0
3, 138600, Note_on_c, 0, 61, 0
3, 138600, Note_on_c, 0, 57, 87
3, 138600, Note_on_c, 0, 61, 87
3, 138600, Note_on_c, 0, 64, 87
3, 139680, Note_on_c, 0, 64, 0
3, 139680, Note_on_c, 0, 57, 0
3, 139680, Note_on_c, 0, 61, 0
3, 139680, Note_on_c, 0, 54, 84
3, 139680, Note_on_c, 0, 57, 84
3, 139680, Note_on_c, 0, 63, 84
3, 140040, Note_on_c, 0, 63, 0
3, 140040, Note_on_c, 0, 54, 0
3, 140040, Note_on_c, 0, 47, 0
3, 140040, Note_on_c, 0, 35, 0
3, 140040, Note_on_c, 0, 57, 0
3, 140040, Note_on_c, 0, 59, 84
3, 140040, Note_on_c, 0, 63, 84
3, 140040, Note_on_c, 0, 51, 98
3, 140279, Note_on_c, 0, 51, 0
3, 140279, Note_on_c, 0, 63, 0
3, 140279, Note_on_c, 0, 59, 0
3, 140279, Note_on_c, 0, 61, 82
3, 140279, Note_on_c, 0, 49, 84
3, 140400, Note_on_c, 0, 49, 0
3, 140400, Note_on_c, 0, 61, 0
3, 140400, Note_on_c, 0, 59, 85
3, 140400, Note_on_c, 0, 47, 85
3, 140639, Note_on_c, 0, 47, 0
3, 140639, Note_on_c, 0, 59, 0
3, 140639, Note_on_c, 0, 56, 81
3, 140639, Note_on_c, 0, 44, 84
3, 140760, Note_on_c, 0, 44, 0
3, 140760, Note_on_c, 0, 56, 0
3, 140760, Note_on_c, 0, 54, 102
3, 140760, Note_on_c, 0, 57, 102
3, 140760, Note_on_c, 0, 61, 102
3, 140760, Note_on_c, 0, 42, 86
3, 140999, Note_on_c, 0, 42, 0
3, 140999, Note_on_c, 0, 37, 78
3, 141120, Note_on_c, 0, 37, 0
3, 141120, Note_on_c, 0, 61, 0
3, 141120, Note_on_c, 0, 57, 0
3, 141120, Note_on_c, 0, 54, 0
3, 141120, Note_on_c, 0, 59, 96
3, 141120, Note_on_c, 0, 63, 96
3, 141120, Note_on_c, 0, 35, 102
3, 141120, Note_on_c, 0, 47, 102
3, 141480, Note_on_c, 0, 47, 0
3, 141480, Note_on_c, 0, 59, 0
3, 141480, Note_on_c, 0, 63, 0
3, 141480, Note_on_c, 0, 35, 0
3, 141480, Note_on_c, 0, 59, 90
3, 141480, Note_on_c, 0, 63, 90
3, 141480, Note_on_c, 0, 51, 95
3, 141600, Note_on_c, 0, 51, 0
3, 141600, Note_on_c, 0, 63, 0
3, 141600, Note_on_c, 0, 59, 0
3, 141600, Note_on_c, 0, 61, 81
3, 141600, Note_on_c, 0, 49, 83
3, 141719, Note_on_c, 0, 49, 0
3, 141719, Note_on_c, 0, 61, 0
3, 141719, Note_on_c, 0, 59, 82
3, 141719, Note_on_c, 0, 47, 82
3, 141840, Note_on_c, 0, 47, 0
3, 141840, Note_on_c, 0, 59, 0
3, 141840, Note_on_c, 0, 59, 90
3, 141840, Note_on_c, 0, 47, 86
3, 142079, Note_on_c, 0, 47, 0
3, 142079, Note_on_c, 0, 59, 0
3, 142079, Note_on_c, 0, 56, 88
3, 142079, Note_on_c, 0, 44, 83
3, 142200, Note_on_c, 0, 44, 0
3, 142200, Note_on_c, 0, 56, 0
3, 142200, Note_on_c, 0, 61, 102
3, 142200, Note_on_c, 0, 54, 42
3, 142200, Note_on_c, 0, 57, 42
3, 142200, Note_on_c, 0, 42, 84
3, 142320, Note_on_c, 0, 61, 0
3, 142320, Note_on_c, 0, 63, 96
3, 142439, Note_on_c, 0, 63, 0
3, 142439, Note_on_c, 0, 42, 0
3, 142439, Note_on_c, 0, 64, 92
3, 142439, Note_on_c, 0, 37, 84
3, 142560, Note_on_c, 0, 37, 0
3, 142560, Note_on_c, 0, 54, 0
3, 142560, Note_on_c, 0, 57, 0
3, 142560, Note_on_c, 0, 64, 0
3, 142560, Note_on_c, 0, 59, 81
3, 142560, Note_on_c, 0, 63, 81
3, 142560, Note_on_c, 0, 35, 102
3, 142560, Note_on_c, 0, 47, 102
3, 142920, Note_on_c, 0, 47, 0
3, 142920, Note_on_c, 0, 59, 0
3, 142920, Note_on_c, 0, 63, 0
3, 142920, Note_on_c, 0, 35, 0
3, 142920, Note_on_c, 0, 59, 86
3, 142920, Note_on_c, 0, 63, 86
3, 143159, Note_on_c, 0, 63, 0
3, 143159, Note_on_c, 0, 59, 0
3, 143159, Note_on_c, 0, 54, 75
3, 143159, Note_on_c, 0, 61, 75
3, 143280, Note_on_c, 0, 61, 0
3, 143280, Note_on_c, 0, 54, 0
3, 143280, Note_on_c, 0, 59, 96
3, 143280, Note_on_c, 0, 63, 96
3, 143879, Note_on_c, 0, 63, 0
3, 143879, Note_on_c, 0, 59, 0
3, 143879, Note_on_c, 0, 54, 80
3, 143879, Note_on_c, 0, 61, 80
3, 144000, Note_on_c, 0, 61, 0
3, 144000, Note_on_c, 0, 54, 0
3, 144000, Note_on_c, 0, 62, 101
3, 144000, Note_on_c, 0, 66, 101
3, 144360, Note_on_c, 0, 66, 0
3, 144360, Note_on_c, 0, 62, 0
3, 144360, Note_on_c, 0, 62, 89
3, 144360, Note_on_c, 0, 66, 89
3, 144599, Note_on_c, 0, 66, 0
3, 144599, Note_on_c, 0, 62, 0
3, 144599, Note_on_c, 0, 57, 84
3, 144599, Note_on_c, 0, 64, 84
3, 144720, Note_on_c, 0, 64, 0
3, 144720, Note_on_c, 0, 57, 0
3, 144720, Note_on_c, 0, 62, 90
3, 144720, Note_on_c, 0, 66, 90
3, 145319, Note_on_c, 0, 66, 0
3, 145319, Note_on_c, 0, 62, 0
3, 145319, Note_on_c, 0, 62, 93
3, 145319, Note_on_c, 0, 66, 93
3, 145440, Note_on_c, 0, 66, 0
3, 145440, Note_on_c, 0, 62, 0
3, 145440, Note_on_c, 0, 67, 92
3, 145800, Note_on_c, 0, 67, 0
3, 145800, Note_on_c, 0, 55, 85
3, 145800, Note_on_c, 0, 59, 85
3, 145800, Note_on_c, 0, 62, 85
3, 145800, Note_on_c, 0, 67, 85
3, 145800, Note_on_c, 0, 43, 77
3, 145800, Note_on_c, 0, 50, 77
3, 145979, Note_on_c, 0, 50, 0
3, 145979, Note_on_c, 0, 43, 0
3, 146160, Note_on_c, 0, 62, 0
3, 146160, Note_on_c, 0, 55, 0
3, 146160, Note_on_c, 0, 59, 0
3, 146160, Note_on_c, 0, 67, 0
3, 146160, Note_on_c, 0, 62, 84
3, 146160, Note_on_c, 0, 67, 84
3, 146160, Note_on_c, 0, 59, 50
3, 146160, Note_on_c, 0, 43, 102
3, 146160, Note_on_c, 0, 50, 102
3, 146520, Note_on_c, 0, 67, 0
3, 146520, Note_on_c, 0, 62, 0
3, 146520, Note_on_c, 0, 64, 102
3, 146520, Note_on_c, 0, 67, 102
3, 146880, Note_on_c, 0, 67, 0
3, 146880, Note_on_c, 0, 43, 0
3, 146880, Note_on_c, 0, 50, 0
3, 146880, Note_on_c, 0, 59, 0
3, 146880, Note_on_c, 0, 64, 0
3, 146880, Note_on_c, 0, 59, 102
3, 146880, Note_on_c, 0, 62, 102
3, 146880, Note_on_c, 0, 67, 102
3, 147240, Note_on_c, 0, 67, 0
3, 147240, Note_on_c, 0, 62, 0
3, 147240, Note_on_c, 0, 59, 0
3, 147240, Note_on_c, 0, 64, 102
3, 147240, Note_on_c, 0, 67, 102
3, 147600, Note_on_c, 0, 67, 0
3, 147600, Note_on_c, 0, 64, 0
3, 147600, Note_on_c, 0, 59, 102
3, 147600, Note_on_c, 0, 62, 102
3, 147600, Note_on_c, 0, 67, 102
3, 147960, Note_on_c, 0, 67, 0
3, 147960, Note_on_c, 0, 62, 0
3, 147960, Note_on_c, 0, 59, 0
3, 147960, Note_on_c, 0, 57, 102
3, 147960, Note_on_c, 0, 63, 102
3, 147960, Note_on_c, 0, 42, 102
3, 147960, Note_on_c, 0, 51, 102
3, 148320, Note_on_c, 0, 51, 0
3, 148320, Note_on_c, 0, 57, 0
3, 148320, Note_on_c, 0, 63, 0
3, 148320, Note_on_c, 0, 42, 0
3, 148320, Note_on_c, 0, 56, 102
3, 148320, Note_on_c, 0, 59, 102
3, 148320, Note_on_c, 0, 64, 102
3, 148320, Note_on_c, 0, 40, 102
3, 148320, Note_on_c, 0, 47, 102
3, 148320, Note_on_c, 0, 52, 102
3, 148680, Note_on_c, 0, 52, 0
3, 148680, Note_on_c, 0, 59, 0
3, 148680, Note_on_c, 0, 64, 0
3, 148680, Note_on_c, 0, 56, 0
3, 148680, Note_on_c, 0, 47, 0
3, 148680, Note_on_c, 0, 40, 0
3, 148680, Note_on_c, 0, 64, 86
3, 149040, Note_on_c, 0, 64, 0
3, 149040, Note_on_c, 0, 64, 83
3, 149040, Note_on_c, 0, 56, 51
3, 149040, Note_on_c, 0, 59, 51
3, 149040, Note_on_c, 0, 40, 78
3, 149040, Note_on_c, 0, 47, 78
3, 149400, Note_on_c, 0, 64, 0
3, 149400, Note_on_c, 0, 64, 89
3, 149639, Note_on_c, 0, 64, 0
3, 149639, Note_on_c, 0, 64, 87
3, 149760, Note_on_c, 0, 64, 0
3, 149760, Note_on_c, 0, 56, 0
3, 149760, Note_on_c, 0, 59, 0
3, 149760, Note_on_c, 0, 64, 84
3, 149880, Note_on_c, 0, 64, 0
3, 149880, Note_on_c, 0, 64, 94
3, 149999, Note_on_c, 0, 64, 0
3, 149999, Note_on_c, 0, 64, 89
3, 150120, Note_on_c, 0, 64, 0
3, 150120, Note_on_c, 0, 40, 0
3, 150120, Note_on_c, 0, 47, 0
3, 150120, Note_on_c, 0, 64, 91
3, 150120, Note_on_c, 0, 59, 101
3, 150240, Note_on_c, 0, 59, 0
3, 150240, Note_on_c, 0, 60, 95
3, 150359, Note_on_c, 0, 60, 0
3, 150359, Note_on_c, 0, 61, 92
3, 150480, Note_on_c, 0, 61, 0
3, 150480, Note_on_c, 0, 64, 0
3, 150480, Note_on_c, 0, 64, 90
3, 150480, Note_on_c, 0, 62, 102
3, 150719, Note_on_c, 0, 64, 0
3, 150719, Note_on_c, 0, 64, 101
3, 150719, Note_on_c, 0, 68, 101
3, 150840, Note_on_c, 0, 68, 0
3, 150840, Note_on_c, 0, 64, 0
3, 150840, Note_on_c, 0, 62, 0
3, 150840, Note_on_c, 0, 66, 93
3, 150840, Note_on_c, 0, 69, 93
3, 150840, Note_on_c, 0, 62, 84
3, 151200, Note_on_c, 0, 62, 0
3, 151200, Note_on_c, 0, 69, 0
3, 151200, Note_on_c, 0, 66, 0
3, 151200, Note_on_c, 0, 64, 75
3, 151200, Note_on_c, 0, 61, 84
3, 151379, Note_on_c, 0, 61, 0
3, 151439, Note_on_c, 0, 64, 0
3, 151439, Note_on_c, 0, 66, 92
3, 151560, Note_on_c, 0, 66, 0
3, 151560, Note_on_c, 0, 64, 95
3, 151560, Note_on_c, 0, 68, 95
3, 151560, Note_on_c, 0, 60, 80
3, 151739, Note_on_c, 0, 60, 0
3, 151920, Note_on_c, 0, 68, 0
3, 151920, Note_on_c, 0, 64, 0
3, 151920, Note_on_c, 0, 63, 77
3, 151920, Note_on_c, 0, 59, 86
3, 152099, Note_on_c, 0, 59, 0
3, 152159, Note_on_c, 0, 63, 0
3, 152159, Note_on_c, 0, 63, 89
3, 152280, Note_on_c, 0, 63, 0
3, 152280, Note_on_c, 0, 61, 91
3, 152280, Note_on_c, 0, 64, 91
3, 152280, Note_on_c, 0, 58, 85
3, 152459, Note_on_c, 0, 58, 0
3, 152640, Note_on_c, 0, 64, 0
3, 152640, Note_on_c, 0, 61, 0
3, 152640, Note_on_c, 0, 60, 88
3, 152640, Note_on_c, 0, 64, 88
3, 152640, Note_on_c, 0, 57, 88
3, 152819, Note_on_c, 0, 57, 0
3, 152879, Note_on_c, 0, 64, 0
3, 152879, Note_on_c, 0, 60, 0
3, 152879, Note_on_c, 0, 63, 84
3, 153000, Note_on_c, 0, 63, 0
3, 153000, Note_on_c, 0, 61, 85
3, 153000, Note_on_c, 0, 63, 85
3, 153000, Note_on_c, 0, 49, 83
3, 153000, Note_on_c, 0, 56, 83
3, 153239, Note_on_c, 0, 63, 0
3, 153239, Note_on_c, 0, 61, 0
3, 153239, Note_on_c, 0, 64, 93
3, 153360, Note_on_c, 0, 64, 0
3, 153360, Note_on_c, 0, 49, 0
3, 153360, Note_on_c, 0, 56, 0
3, 153360, Note_on_c, 0, 57, 95
3, 153360, Note_on_c, 0, 62, 95
3, 153360, Note_on_c, 0, 65, 95
3, 153360, Note_on_c, 0, 42, 85
3, 153360, Note_on_c, 0, 54, 85
3, 153599, Note_on_c, 0, 65, 0
3, 153599, Note_on_c, 0, 57, 0
3, 153599, Note_on_c, 0, 62, 0
3, 153599, Note_on_c, 0, 66, 90
3, 153720, Note_on_c, 0, 66, 0
3, 153720, Note_on_c, 0, 42, 0
3, 153720, Note_on_c, 0, 54, 0
3, 153720, Note_on_c, 0, 57, 88
3, 153720, Note_on_c, 0, 59, 88
3, 153720, Note_on_c, 0, 63, 88
3, 153720, Note_on_c, 0, 66, 88
3, 153720, Note_on_c, 0, 35, 80
3, 153720, Note_on_c, 0, 47, 80
3, 154080, Note_on_c, 0, 47, 0
3, 154080, Note_on_c, 0, 59, 0
3, 154080, Note_on_c, 0, 63, 0
3, 154080, Note_on_c, 0, 57, 0
3, 154080, Note_on_c, 0, 35, 0
3, 154080, Note_on_c, 0, 66, 0
3, 154080, Note_on_c, 0, 56, 83
3, 154080, Note_on_c, 0, 59, 83
3, 154080, Note_on_c, 0, 64, 83
3, 154080, Note_on_c, 0, 40, 91
3, 154080, Note_on_c, 0, 47, 91
3, 154080, Note_on_c, 0, 52, 91
3, 154440, Note_on_c, 0, 52, 0
3, 154440, Note_on_c, 0, 59, 0
3, 154440, Note_on_c, 0, 64, 0
3, 154440, Note_on_c, 0, 56, 0
3, 154440, Note_on_c, 0, 47, 0
3, 154440, Note_on_c, 0, 40, 0
3, 154440, Note_on_c, 0, 64, 91
3, 154800, Note_on_c, 0, 64, 0
3, 154800, Note_on_c, 0, 56, 72
3, 154800, Note_on_c, 0, 59, 72
3, 154800, Note_on_c, 0, 61, 72
3, 154800, Note_on_c, 0, 52, 43
3, 154800, Note_on_c, 0, 49, 81
3, 154800, Note_on_c, 0, 40, 101
3, 155039, Note_on_c, 0, 40, 0
3, 155039, Note_on_c, 0, 59, 0
3, 155039, Note_on_c, 0, 56, 0
3, 155039, Note_on_c, 0, 61, 0
3, 155039, Note_on_c, 0, 56, 88
3, 155039, Note_on_c, 0, 59, 88
3, 155039, Note_on_c, 0, 61, 88
3, 155039, Note_on_c, 0, 40, 101
3, 155160, Note_on_c, 0, 40, 0
3, 155160, Note_on_c, 0, 59, 0
3, 155160, Note_on_c, 0, 56, 0
3, 155160, Note_on_c, 0, 61, 0
3, 155160, Note_on_c, 0, 56, 90
3, 155160, Note_on_c, 0, 59, 90
3, 155160, Note_on_c, 0, 61, 90
3, 155160, Note_on_c, 0, 40, 101
3, 155399, Note_on_c, 0, 40, 0
3, 155399, Note_on_c, 0, 59, 0
3, 155399, Note_on_c, 0, 56, 0
3, 155399, Note_on_c, 0, 61, 0
3, 155399, Note_on_c, 0, 56, 86
3, 155399, Note_on_c, 0, 59, 86
3, 155399, Note_on_c, 0, 61, 86
3, 155399, Note_on_c, 0, 40, 99
3, 155520, Note_on_c, 0, 40, 0
3, 155520, Note_on_c, 0, 52, 0
3, 155520, Note_on_c, 0, 56, 0
3, 155520, Note_on_c, 0, 59, 0
3, 155520, Note_on_c, 0, 61, 0
3, 155520, Note_on_c, 0, 54, 90
3, 155520, Note_on_c, 0, 57, 90
3, 155520, Note_on_c, 0, 61, 90
3, 155520, Note_on_c, 0, 42, 102
3, 156153, Note_on_c, 0, 42, 0
3, 156240, Note_on_c, 0, 57, 0
3, 156240, Note_on_c, 0, 49, 0
3, 156240, Note_on_c, 0, 54, 0
3, 156240, Note_on_c, 0, 61, 0
3, 156240, Note_on_c, 0, 57, 92
3, 156240, Note_on_c, 0, 61, 92
3, 156240, Note_on_c, 0, 63, 92
3, 156240, Note_on_c, 0, 54, 57
3, 156240, Note_on_c, 0, 51, 91
3, 156240, Note_on_c, 0, 42, 100
3, 156479, Note_on_c, 0, 42, 0
3, 156479, Note_on_c, 0, 61, 0
3, 156479, Note_on_c, 0, 57, 0
3, 156479, Note_on_c, 0, 63, 0
3, 156479, Note_on_c, 0, 57, 85
3, 156479, Note_on_c, 0, 61, 85
3, 156479, Note_on_c, 0, 63, 85
3, 156479, Note_on_c, 0, 42, 101
3, 156600, Note_on_c, 0, 42, 0
3, 156600, Note_on_c, 0, 61, 0
3, 156600, Note_on_c, 0, 57, 0
3, 156600, Note_on_c, 0, 63, 0
3, 156600, Note_on_c, 0, 57, 88
3, 156600, Note_on_c, 0, 61, 88
3, 156600, Note_on_c, 0, 63, 88
3, 156600, Note_on_c, 0, 42, 99
3, 156839, Note_on_c, 0, 42, 0
3, 156839, Note_on_c, 0, 61, 0
3, 156839, Note_on_c, 0, 57, 0
3, 156839, Note_on_c, 0, 63, 0
3, 156839, Note_on_c, 0, 57, 88
3, 156839, Note_on_c, 0, 61, 88
3, 156839, Note_on_c, 0, 63, 88
3, 156839, Note_on_c, 0, 42, 101
3, 156960, Note_on_c, 0, 42, 0
3, 156960, Note_on_c, 0, 54, 0
3, 156960, Note_on_c, 0, 57, 0
3, 156960, Note_on_c, 0, 61, 0
3, 156960, Note_on_c, 0, 63, 0
3, 156960, Note_on_c, 0, 56, 89
3, 156960, Note_on_c, 0, 59, 89
3, 156960, Note_on_c, 0, 63, 89
3, 156960, Note_on_c, 0, 44, 102
3, 157593, Note_on_c, 0, 44, 0
3, 157680, Note_on_c, 0, 59, 0
3, 157680, Note_on_c, 0, 51, 0
3, 157680, Note_on_c, 0, 56, 0
3, 157680, Note_on_c, 0, 63, 0
3, 157680, Note_on_c, 0, 59, 92
3, 157680, Note_on_c, 0, 63, 92
3, 157680, Note_on_c, 0, 64, 92
3, 157680, Note_on_c, 0, 56, 52
3, 157680, Note_on_c, 0, 52, 90
3, 157680, Note_on_c, 0, 44, 101
3, 157919, Note_on_c, 0, 44, 0
3, 157919, Note_on_c, 0, 63, 0
3, 157919, Note_on_c, 0, 59, 0
3, 157919, Note_on_c, 0, 64, 0
3, 157919, Note_on_c, 0, 59, 88
3, 157919, Note_on_c, 0, 63, 88
3, 157919, Note_on_c, 0, 64, 88
3, 157919, Note_on_c, 0, 44, 96
3, 158040, Note_on_c, 0, 44, 0
3, 158040, Note_on_c, 0, 63, 0
3, 158040, Note_on_c, 0, 59, 0
3, 158040, Note_on_c, 0, 64, 0
3, 158040, Note_on_c, 0, 59, 89
3, 158040, Note_on_c, 0, 63, 89
3, 158040, Note_on_c, 0, 64, 89
3, 158040, Note_on_c, 0, 44, 101
3, 158279, Note_on_c, 0, 44, 0
3, 158279, Note_on_c, 0, 63, 0
3, 158279, Note_on_c, 0, 59, 0
3, 158279, Note_on_c, 0, 64, 0
3, 158279, Note_on_c, 0, 59, 89
3, 158279, Note_on_c, 0, 63, 89
3, 158279, Note_on_c, 0, 64, 89
3, 158279, Note_on_c, 0, 44, 98
3, 158400, Note_on_c, 0, 44, 0
3, 158400, Note_on_c, 0, 56, 0
3, 158400, Note_on_c, 0, 59, 0
3, 158400, Note_on_c, 0, 63, 0
3, 158400, Note_on_c, 0, 64, 0
3, 158400, Note_on_c, 0, 57, 86
3, 158400, Note_on_c, 0, 61, 86
3, 158400, Note_on_c, 0, 64, 86
3, 158400, Note_on_c, 0, 45, 88
3, 158639, Note_on_c, 0, 45, 0
3, 158639, Note_on_c, 0, 52, 0
3, 158639, Note_on_c, 0, 45, 79
3, 158760, Note_on_c, 0, 45, 0
3, 158760, Note_on_c, 0, 64, 0
3, 158760, Note_on_c, 0, 61, 0
3, 158760, Note_on_c, 0, 57, 0
3, 158760, Note_on_c, 0, 54, 88
3, 158760, Note_on_c, 0, 61, 88
3, 158760, Note_on_c, 0, 64, 88
3, 158760, Note_on_c, 0, 46, 87
3, 158999, Note_on_c, 0, 46, 0
3, 158999, Note_on_c, 0, 47, 93
3, 159120, Note_on_c, 0, 47, 0
3, 159120, Note_on_c, 0, 64, 0
3, 159120, Note_on_c, 0, 61, 0
3, 159120, Note_on_c, 0, 54, 0
3, 159120, Note_on_c, 0, 54, 85
3, 159120, Note_on_c, 0, 59, 85
3, 159120, Note_on_c, 0, 63, 85
3, 159120, Note_on_c, 0, 47, 88
3, 159359, Note_on_c, 0, 47, 0
3, 159359, Note_on_c, 0, 47, 87
3, 159480, Note_on_c, 0, 47, 0
3, 159480, Note_on_c, 0, 63, 0
3, 159480, Note_on_c, 0, 59, 0
3, 159480, Note_on_c, 0, 54, 0
3, 159480, Note_on_c, 0, 56, 92
3, 159480, Note_on_c, 0, 63, 92
3, 159480, Note_on_c, 0, 66, 92
3, 159480, Note_on_c, 0, 48, 92
3, 159719, Note_on_c, 0, 48, 0
3, 159719, Note_on_c, 0, 48, 85
3, 159840, Note_on_c, 0, 48, 0
3, 159840, Note_on_c, 0, 66, 0
3, 159840, Note_on_c, 0, 63, 0
3, 159840, Note_on_c, 0, 56, 0
3, 159840, Note_on_c, 0, 56, 81
3, 159840, Note_on_c, 0, 61, 81
3, 159840, Note_on_c, 0, 64, 81
3, 159840, Note_on_c, 0, 49, 89
3, 160200, Note_on_c, 0, 49, 0
3, 160200, Note_on_c, 0, 56, 0
3, 160200, Note_on_c, 0, 61, 0
3, 160200, Note_on_c, 0, 64, 0
3, 160200, Note_on_c, 0, 56, 102
3, 160200, Note_on_c, 0, 60, 102
3, 160200, Note_on_c, 0, 64, 102
3, 160200, Note_on_c, 0, 68, 102
3, 160200, Note_on_c, 0, 48, 102
3, 160560, Note_on_c, 0, 48, 0
3, 160560, Note_on_c, 0, 64, 0
3, 160560, Note_on_c, 0, 56, 0
3, 160560, Note_on_c, 0, 60, 0
3, 160560, Note_on_c, 0, 68, 0
3, 160560, Note_on_c, 0, 56, 102
3, 160560, Note_on_c, 0, 59, 102
3, 160560, Note_on_c, 0, 64, 102
3, 160560, Note_on_c, 0, 68, 102
3, 160560, Note_on_c, 0, 47, 102
3, 160920, Note_on_c, 0, 47, 0
3, 160920, Note_on_c, 0, 64, 0
3, 160920, Note_on_c, 0, 56, 0
3, 160920, Note_on_c, 0, 59, 0
3, 160920, Note_on_c, 0, 68, 0
3, 160920, Note_on_c, 0, 56, 102
3, 160920, Note_on_c, 0, 58, 102
3, 160920, Note_on_c, 0, 64, 102
3, 160920, Note_on_c, 0, 68, 102
3, 160920, Note_on_c, 0, 46, 102
3, 161280, Note_on_c, 0, 46, 0
3, 161280, Note_on_c, 0, 64, 0
3, 161280, Note_on_c, 0, 56, 0
3, 161280, Note_on_c, 0, 58, 0
3, 161280, Note_on_c, 0, 68, 0
3, 161280, Note_on_c, 0, 56, 102
3, 161280, Note_on_c, 0, 59, 102
3, 161280, Note_on_c, 0, 64, 102
3, 161280, Note_on_c, 0, 68, 102
3, 161280, Note_on_c, 0, 47, 102
3, 161640, Note_on_c, 0, 47, 0
3, 161640, Note_on_c, 0, 64, 0
3, 161640, Note_on_c, 0, 56, 0
3, 161640, Note_on_c, 0, 59, 0
3, 161640, Note_on_c, 0, 68, 0
3, 161640, Note_on_c, 0, 56, 92
3, 161640, Note_on_c, 0, 60, 92
3, 161640, Note_on_c, 0, 68, 92
3, 161640, Note_on_c, 0, 41, 94
3, 161640, Note_on_c, 0, 53, 94
3, 162000, Note_on_c, 0, 53, 0
3, 162000, Note_on_c, 0, 68, 0
3, 162000, Note_on_c, 0, 56, 0
3, 162000, Note_on_c, 0, 60, 0
3, 162000, Note_on_c, 0, 41, 0
3, 162000, Note_on_c, 0, 56, 87
3, 162000, Note_on_c, 0, 60, 87
3, 162000, Note_on_c, 0, 68, 87
3, 162000, Note_on_c, 0, 40, 86
3, 162000, Note_on_c, 0, 52, 86
3, 162360, Note_on_c, 0, 52, 0
3, 162360, Note_on_c, 0, 68, 0
3, 162360, Note_on_c, 0, 56, 0
3, 162360, Note_on_c, 0, 60, 0
3, 162360, Note_on_c, 0, 40, 0
3, 162360, Note_on_c, 0, 56, 86
3, 162360, Note_on_c, 0, 60, 86
3, 162360, Note_on_c, 0, 68, 86
3, 162360, Note_on_c, 0, 39, 90
3, 162360, Note_on_c, 0, 51, 90
3, 162599, Note_on_c, 0, 68, 0
3, 162599, Note_on_c, 0, 56, 0
3, 162599, Note_on_c, 0, 60, 0
3, 162599, Note_on_c, 0, 67, 82
3, 162720, Note_on_c, 0, 67, 0
3, 162720, Note_on_c, 0, 39, 0
3, 162720, Note_on_c, 0, 51, 0
3, 162720, Note_on_c, 0, 56, 90
3, 162720, Note_on_c, 0, 61, 90
3, 162720, Note_on_c, 0, 68, 90
3, 162720, Note_on_c, 0, 40, 93
3, 162720, Note_on_c, 0, 52, 93
3, 163080, Note_on_c, 0, 52, 0
3, 163080, Note_on_c, 0, 68, 0
3, 163080, Note_on_c, 0, 56, 0
3, 163080, Note_on_c, 0, 61, 0
3, 163080, Note_on_c, 0, 40, 0
3, 163080, Note_on_c, 0, 56, 79
3, 163080, Note_on_c, 0, 62, 79
3, 163080, Note_on_c, 0, 40, 95
3, 163080, Note_on_c, 0, 52, 95
3, 163397, Note_on_c, 0, 52, 0
3, 163397, Note_on_c, 0, 56, 0
3, 163397, Note_on_c, 0, 62, 0
3, 163397, Note_on_c, 0, 40, 0
3, 163440, Note_on_c, 0, 57, 80
3, 163440, Note_on_c, 0, 61, 80
3, 163440, Note_on_c, 0, 45, 76
3, 163800, Note_on_c, 0, 45, 0
3, 163800, Note_on_c, 0, 61, 0
3, 163800, Note_on_c, 0, 57, 0
3, 163800, Note_on_c, 0, 54, 94
3, 163800, Note_on_c, 0, 61, 94
3, 163800, Note_on_c, 0, 39, 102
3, 163800, Note_on_c, 0, 51, 102
3, 164117, Note_on_c, 0, 51, 0
3, 164117, Note_on_c, 0, 54, 0
3, 164117, Note_on_c, 0, 61, 0
3, 164117, Note_on_c, 0, 39, 0
3, 164160, Note_on_c, 0, 56, 83
3, 164160, Note_on_c, 0, 59, 83
3, 164160, Note_on_c, 0, 44, 77
3, 164520, Note_on_c, 0, 44, 0
3, 164520, Note_on_c, 0, 59, 0
3, 164520, Note_on_c, 0, 56, 0
3, 164520, Note_on_c, 0, 53, 99
3, 164520, Note_on_c, 0, 59, 99
3, 164520, Note_on_c, 0, 37, 102
3, 164520, Note_on_c, 0, 49, 102
3, 164837, Note_on_c, 0, 49, 0
3, 164837, Note_on_c, 0, 53, 0
3, 164837, Note_on_c, 0, 59, 0
3, 164837, Note_on_c, 0, 37, 0
3, 164880, Note_on_c, 0, 54, 85
3, 164880, Note_on_c, 0, 57, 85
3, 164880, Note_on_c, 0, 42, 80
3, 165240, Note_on_c, 0, 42, 0
3, 165240, Note_on_c, 0, 57, 0
3, 165240, Note_on_c, 0, 54, 0
3, 165240, Note_on_c, 0, 51, 98
3, 165240, Note_on_c, 0, 54, 98
3, 165240, Note_on_c, 0, 60, 98
3, 165240, Note_on_c, 0, 32, 89
3, 165240, Note_on_c, 0, 44, 89
3, 165600, Note_on_c, 0, 44, 0
3, 165600, Note_on_c, 0, 60, 0
3, 165600, Note_on_c, 0, 51, 0
3, 165600, Note_on_c, 0, 54, 0
3, 165600, Note_on_c, 0, 32, 0
3, 165600, Note_on_c, 0, 47, 87
3, 165600, Note_on_c, 0, 50, 87
3, 165600, Note_on_c, 0, 59, 87
3, 165600, Note_on_c, 0, 29, 86
3, 165600, Note_on_c, 0, 41, 86
3, 165960, Note_on_c, 0, 41, 0
3, 165960, Note_on_c, 0, 59, 0
3, 165960, Note_on_c, 0, 47, 0
3, 165960, Note_on_c, 0, 50, 0
3, 165960, Note_on_c, 0, 29, 0
3, 165960, Note_on_c, 0, 45, 88
3, 165960, Note_on_c, 0, 49, 88
3, 165960, Note_on_c, 0, 57, 88
3, 165960, Note_on_c, 0, 30, 88
3, 165960, Note_on_c, 0, 42, 88
3, 166320, Note_on_c, 0, 42, 0
3, 166320, Note_on_c, 0, 57, 0
3, 166320, Note_on_c, 0, 45, 0
3, 166320, Note_on_c, 0, 49, 0
3, 166320, Note_on_c, 0, 30, 0
3, 166320, Note_on_c, 0, 58, 89
3, 166320, Note_on_c, 0, 48, 50
3, 166320, Note_on_c, 0, 52, 50
3, 166320, Note_on_c, 0, 31, 92
3, 166320, Note_on_c, 0, 43, 92
3, 166559, Note_on_c, 0, 58, 0
3, 166559, Note_on_c, 0, 58, 87
3, 166680, Note_on_c, 0, 58, 0
3, 166680, Note_on_c, 0, 43, 0
3, 166680, Note_on_c, 0, 48, 0
3, 166680, Note_on_c, 0, 52, 0
3, 166680, Note_on_c, 0, 31, 0
3, 166680, Note_on_c, 0, 59, 88
3, 166680, Note_on_c, 0, 52, 47
3, 166680, Note_on_c, 0, 32, 91
3, 166680, Note_on_c, 0, 44, 91
3, 166800, Note_on_c, 0, 59, 0
3, 166800, Note_on_c, 0, 58, 81
3, 166919, Note_on_c, 0, 58, 0
3, 166919, Note_on_c, 0, 59, 93
3, 167040, Note_on_c, 0, 59, 0
3, 167040, Note_on_c, 0, 52, 0
3, 167040, Note_on_c, 0, 32, 0
3, 167040, Note_on_c, 0, 44, 0
3, 167040, Note_on_c, 0, 54, 90
3, 167040, Note_on_c, 0, 60, 90
3, 167040, Note_on_c, 0, 52, 49
3, 167040, Note_on_c, 0, 33, 89
3, 167040, Note_on_c, 0, 45, 89
3, 167279, Note_on_c, 0, 45, 0
3, 167279, Note_on_c, 0, 60, 0
3, 167279, Note_on_c, 0, 54, 0
3, 167279, Note_on_c, 0, 33, 0
3, 167279, Note_on_c, 0, 55, 80
3, 167279, Note_on_c, 0, 34, 75
3, 167400, Note_on_c, 0, 34, 0
3, 167400, Note_on_c, 0, 55, 0
3, 167400, Note_on_c, 0, 56, 90
3, 167400, Note_on_c, 0, 35, 88
3, 167520, Note_on_c, 0, 35, 0
3, 167520, Note_on_c, 0, 34, 81
3, 167639, Note_on_c, 0, 34, 0
3, 167639, Note_on_c, 0, 35, 85
3, 167760, Note_on_c, 0, 35, 0
3, 167760, Note_on_c, 0, 56, 0
3, 167760, Note_on_c, 0, 57, 86
3, 167760, Note_on_c, 0, 36, 91
3, 168120, Note_on_c, 0, 36, 0
3, 168120, Note_on_c, 0, 57, 0
3, 168120, Note_on_c, 0, 52, 0
3, 168120, Note_on_c, 0, 58, 90
3, 168120, Note_on_c, 0, 54, 53
3, 168120, Note_on_c, 0, 37, 84
3, 168359, Note_on_c, 0, 58, 0
3, 168359, Note_on_c, 0, 58, 89
3, 168480, Note_on_c, 0, 58, 0
3, 168480, Note_on_c, 0, 37, 0
3, 168480, Note_on_c, 0, 54, 0
3, 168480, Note_on_c, 0, 52, 88
3, 168480, Note_on_c, 0, 56, 88
3, 168480, Note_on_c, 0, 59, 88
3, 168480, Note_on_c, 0, 35, 83
3, 168522, Note_on_c, 0, 35, 0
3, 168522, Note_on_c, 0, 47, 100
3, 168564, Note_on_c, 0, 35, 93
3, 168719, Note_on_c, 0, 52, 0
3, 168719, Note_on_c, 0, 59, 0
3, 168719, Note_on_c, 0, 56, 0
3, 168719, Note_on_c, 0, 52, 84
3, 168719, Note_on_c, 0, 56, 84
3, 168840, Note_on_c, 0, 56, 0
3, 168840, Note_on_c, 0, 52, 0
3, 168840, Note_on_c, 0, 52, 92
3, 168840, Note_on_c, 0, 56, 92
3, 169439, Note_on_c, 0, 56, 0
3, 169439, Note_on_c, 0, 52, 0
3, 169439, Note_on_c, 0, 56, 91
3, 169439, Note_on_c, 0, 59, 91
3, 169560, Note_on_c, 0, 59, 0
3, 169560, Note_on_c, 0, 56, 0
3, 169560, Note_on_c, 0, 56, 93
3, 169560, Note_on_c, 0, 59, 93
3, 169920, Note_on_c, 0, 59, 0
3, 169920, Note_on_c, 0, 35, 0
3, 169920, Note_on_c, 0, 47, 0
3, 169920, Note_on_c, 0, 56, 0
3, 169920, Note_on_c, 0, 56, 84
3, 169920, Note_on_c, 0, 59, 84
3, 169920, Note_on_c, 0, 47, 1
3, 169920, Note_on_c, 0, 47, 0
3, 169920, Note_on_c, 0, 35, 72
3, 169920, Note_on_c, 0, 35, 83
3, 169962, Note_on_c, 0, 35, 0
3, 169962, Note_on_c, 0, 47, 101
3, 170159, Note_on_c, 0, 56, 0
3, 170159, Note_on_c, 0, 59, 0
3, 170159, Note_on_c, 0, 59, 88
3, 170280, Note_on_c, 0, 59, 0
3, 170280, Note_on_c, 0, 56, 86
3, 170879, Note_on_c, 0, 56, 0
3, 170879, Note_on_c, 0, 56, 92
3, 170879, Note_on_c, 0, 59, 92
3, 171000, Note_on_c, 0, 59, 0
3, 171000, Note_on_c, 0, 56, 0
3, 171000, Note_on_c, 0, 47, 0
3, 171000, Note_on_c, 0, 56, 90
3, 171000, Note_on_c, 0, 59, 90
3, 171000, Note_on_c, 0, 47, 1
3, 171000, Note_on_c, 0, 47, 0
3, 171000, Note_on_c, 0, 47, 85
3, 171120, Note_on_c, 0, 59, 0
3, 171120, Note_on_c, 0, 56, 0
3, 171120, Note_on_c, 0, 49, 80
3, 171239, Note_on_c, 0, 49, 0
3, 171239, Note_on_c, 0, 51, 87
3, 171360, Note_on_c, 0, 51, 0
3, 171360, Note_on_c, 0, 35, 0
3, 171360, Note_on_c, 0, 47, 0
3, 171360, Note_on_c, 0, 52, 98
3, 171360, Note_on_c, 0, 56, 98
3, 171360, Note_on_c, 0, 59, 98
3, 171360, Note_on_c, 0, 35, 73
3, 171402, Note_on_c, 0, 35, 0
3, 171402, Note_on_c, 0, 47, 101
3, 171444, Note_on_c, 0, 35, 88
3, 171599, Note_on_c, 0, 52, 0
3, 171599, Note_on_c, 0, 59, 0
3, 171599, Note_on_c, 0, 56, 0
3, 171599, Note_on_c, 0, 54, 82
3, 171720, Note_on_c, 0, 54, 0
3, 171720, Note_on_c, 0, 52, 101
3, 171720, Note_on_c, 0, 56, 101
3, 171720, Note_on_c, 0, 64, 101
3, 171996, Note_on_c, 0, 47, 0
3, 171996, Note_on_c, 0, 35, 72
3, 172038, Note_on_c, 0, 35, 0
3, 172038, Note_on_c, 0, 47, 99
3, 172080, Note_on_c, 0, 47, 0
3, 172080, Note_on_c, 0, 35, 0
3, 172080, Note_on_c, 0, 56, 0
3, 172080, Note_on_c, 0, 52, 0
3, 172080, Note_on_c, 0, 64, 0
3, 172080, Note_on_c, 0, 54, 91
3, 172080, Note_on_c, 0, 57, 91
3, 172080, Note_on_c, 0, 60, 91
3, 172080, Note_on_c, 0, 64, 91
3, 172080, Note_on_c, 0, 47, 1
3, 172080, Note_on_c, 0, 47, 0
3, 172080, Note_on_c, 0, 35, 79
3, 172259, Note_on_c, 0, 60, 0
3, 172259, Note_on_c, 0, 64, 0
3, 172259, Note_on_c, 0, 54, 0
3, 172259, Note_on_c, 0, 57, 0
3, 172440, Note_on_c, 0, 35, 0
3, 172440, Note_on_c, 0, 64, 88
3, 172440, Note_on_c, 0, 58, 63
3, 172440, Note_on_c, 0, 61, 63
3, 172440, Note_on_c, 0, 47, 101
3, 172440, Note_on_c, 0, 52, 101
3, 172440, Note_on_c, 0, 54, 101
3, 172560, Note_on_c, 0, 64, 0
3, 172560, Note_on_c, 0, 65, 94
3, 172679, Note_on_c, 0, 65, 0
3, 172679, Note_on_c, 0, 66, 92
3, 172800, Note_on_c, 0, 66, 0
3, 172800, Note_on_c, 0, 61, 0
3, 172800, Note_on_c, 0, 47, 0
3, 172800, Note_on_c, 0, 58, 0
3, 172800, Note_on_c, 0, 54, 0
3, 172800, Note_on_c, 0, 52, 0
3, 172800, Note_on_c, 0, 55, 93
3, 172800, Note_on_c, 0, 59, 93
3, 172800, Note_on_c, 0, 64, 93
3, 172800, Note_on_c, 0, 67, 93
3, 172800, Note_on_c, 0, 35, 75
3, 172856, Note_on_c, 0, 35, 0
3, 172872, Note_on_c, 0, 47, 97
3, 172928, Note_on_c, 0, 47, 0
3, 172944, Note_on_c, 0, 35, 75
3, 173000, Note_on_c, 0, 35, 0
3, 173015, Note_on_c, 0, 47, 97
3, 173072, Note_on_c, 0, 47, 0
3, 173087, Note_on_c, 0, 35, 75
3, 173143, Note_on_c, 0, 35, 0
3, 173159, Note_on_c, 0, 47, 97
3, 173160, Note_on_c, 0, 55, 0
3, 173160, Note_on_c, 0, 67, 0
3, 173160, Note_on_c, 0, 56, 91
3, 173160, Note_on_c, 0, 68, 91
3, 173160, Note_on_c, 0, 35, 90
3, 173160, Note_on_c, 0, 47, 90
3, 173215, Note_on_c, 0, 47, 0
3, 173231, Note_on_c, 0, 35, 75
3, 173287, Note_on_c, 0, 35, 0
3, 173399, Note_on_c, 0, 47, 0
3, 173399, Note_on_c, 0, 64, 0
3, 173399, Note_on_c, 0, 56, 0
3, 173399, Note_on_c, 0, 59, 0
3, 173399, Note_on_c, 0, 35, 0
3, 173399, Note_on_c, 0, 68, 0
3, 173399, Note_on_c, 0, 57, 74
3, 173399, Note_on_c, 0, 59, 74
3, 173399, Note_on_c, 0, 63, 74
3, 173399, Note_on_c, 0, 35, 85
3, 173399, Note_on_c, 0, 47, 85
3, 173520, Note_on_c, 0, 47, 0
3, 173520, Note_on_c, 0, 63, 0
3, 173520, Note_on_c, 0, 57, 0
3, 173520, Note_on_c, 0, 59, 0
3, 173520, Note_on_c, 0, 35, 0
3, 173520, Note_on_c, 0, 56, 88
3, 173520, Note_on_c, 0, 59, 88
3, 173520, Note_on_c, 0, 64, 88
3, 173520, Note_on_c, 0, 40, 96
3, 173520, Note_on_c, 0, 52, 96
3, 173880, Note_on_c, 0, 52, 0
3, 173880, Note_on_c, 0, 64, 0
3, 173880, Note_on_c, 0, 56, 0
3, 173880, Note_on_c, 0, 59, 0
3, 173880, Note_on_c, 0, 40, 0
3, 174240, Note_on_c, 0, 57, 95
3, 174240, Note_on_c, 0, 33, 79
3, 174600, Note_on_c, 0, 57, 0
3, 174600, Note_on_c, 0, 57, 94
3, 174600, Note_on_c, 0, 61, 94
3, 174600, Note_on_c, 0, 55, 52
3, 174600, Note_on_c, 0, 45, 78
3, 174720, Note_on_c, 0, 61, 0
3, 174720, Note_on_c, 0, 57, 0
3, 174720, Note_on_c, 0, 62, 98
3, 174779, Note_on_c, 0, 45, 0
3, 174839, Note_on_c, 0, 62, 0
3, 174839, Note_on_c, 0, 55, 0
3, 174839, Note_on_c, 0, 60, 94
3, 174839, Note_on_c, 0, 63, 94
3, 174839, Note_on_c, 0, 55, 47
3, 174960, Note_on_c, 0, 55, 0
3, 174960, Note_on_c, 0, 63, 0
3, 174960, Note_on_c, 0, 60, 0
3, 174960, Note_on_c, 0, 55, 93
3, 174960, Note_on_c, 0, 61, 93
3, 174960, Note_on_c, 0, 64, 93
3, 174960, Note_on_c, 0, 45, 88
3, 175559, Note_on_c, 0, 45, 0
3, 175559, Note_on_c, 0, 61, 0
3, 175559, Note_on_c, 0, 64, 0
3, 175559, Note_on_c, 0, 55, 0
3, 175559, Note_on_c, 0, 55, 87
3, 175559, Note_on_c, 0, 61, 87
3, 175559, Note_on_c, 0, 64, 87
3, 175559, Note_on_c, 0, 45, 89
3, 175680, Note_on_c, 0, 45, 0
3, 175680, Note_on_c, 0, 61, 0
3, 175680, Note_on_c, 0, 33, 0
3, 175680, Note_on_c, 0, 55, 0
3, 175680, Note_on_c, 0, 64, 0
3, 175680, Note_on_c, 0, 62, 96
3, 175680, Note_on_c, 0, 66, 96
3, 175680, Note_on_c, 0, 55, 50
3, 175680, Note_on_c, 0, 45, 89
3, 175800, Note_on_c, 0, 45, 0
3, 175800, Note_on_c, 0, 62, 0
3, 175800, Note_on_c, 0, 66, 0
3, 175800, Note_on_c, 0, 61, 87
3, 175800, Note_on_c, 0, 64, 87
3, 175800, Note_on_c, 0, 45, 89
3, 175919, Note_on_c, 0, 45, 0
3, 175919, Note_on_c, 0, 64, 0
3, 175919, Note_on_c, 0, 61, 0
3, 175919, Note_on_c, 0, 62, 95
3, 175919, Note_on_c, 0, 66, 95
3, 175919, Note_on_c, 0, 45, 86
3, 176040, Note_on_c, 0, 45, 0
3, 176040, Note_on_c, 0, 55, 0
3, 176040, Note_on_c, 0, 62, 0
3, 176040, Note_on_c, 0, 66, 0
3, 176040, Note_on_c, 0, 61, 83
3, 176040, Note_on_c, 0, 64, 83
3, 176040, Note_on_c, 0, 55, 50
3, 176040, Note_on_c, 0, 45, 84
3, 176400, Note_on_c, 0, 33, 87
3, 176760, Note_on_c, 0, 64, 0
3, 176760, Note_on_c, 0, 61, 0
3, 176760, Note_on_c, 0, 57, 75
3, 176760, Note_on_c, 0, 61, 75
3, 176880, Note_on_c, 0, 61, 0
3, 176880, Note_on_c, 0, 57, 0
3, 176880, Note_on_c, 0, 62, 86
3, 176999, Note_on_c, 0, 62, 0
3, 176999, Note_on_c, 0, 60, 98
3, 176999, Note_on_c, 0, 63, 98
3, 177120, Note_on_c, 0, 63, 0
3, 177120, Note_on_c, 0, 55, 0
3, 177120, Note_on_c, 0, 60, 0
3, 177120, Note_on_c, 0, 61, 99
3, 177120, Note_on_c, 0, 64, 99
3, 177120, Note_on_c, 0, 55, 52
3, 178200, Note_on_c, 0, 64, 0
3, 178200, Note_on_c, 0, 61, 0
3, 178200, Note_on_c, 0, 59, 85
3, 178200, Note_on_c, 0, 62, 85
3, 178920, Note_on_c, 0, 62, 0
3, 178920, Note_on_c, 0, 59, 0
3, 178920, Note_on_c, 0, 61, 90
3, 178920, Note_on_c, 0, 64, 90
3, 179640, Note_on_c, 0, 64, 0
3, 179640, Note_on_c, 0, 55, 0
3, 179640, Note_on_c, 0, 61, 0
3, 179640, Note_on_c, 0, 66, 98
3, 179640, Note_on_c, 0, 58, 54
3, 179640, Note_on_c, 0, 62, 42
3, 180360, Note_on_c, 0, 58, 0
3, 180360, Note_on_c, 0, 66, 0
3, 180360, Note_on_c, 0, 67, 93
3, 180360, Note_on_c, 0, 59, 54
3, 181080, Note_on_c, 0, 67, 0
3, 181080, Note_on_c, 0, 69, 96
3, 181440, Note_on_c, 0, 69, 0
3, 181440, Note_on_c, 0, 59, 0
3, 181440, Note_on_c, 0, 67, 82
3, 181440, Note_on_c, 0, 59, 47
3, 181800, Note_on_c, 0, 59, 0
3, 181800, Note_on_c, 0, 58, 46
3, 182160, Note_on_c, 0, 58, 0
3, 182160, Note_on_c, 0, 59, 52
3, 182520, Note_on_c, 0, 59, 0
3, 182520, Note_on_c, 0, 62, 0
3, 182520, Note_on_c, 0, 67, 0
3, 182520, Note_on_c, 0, 62, 91
3, 182520, Note_on_c, 0, 69, 91
3, 182520, Note_on_c, 0, 57, 55
3, 182520, Note_on_c, 0, 60, 55
3, 182880, Note_on_c, 0, 60, 0
3, 182880, Note_on_c, 0, 45, 0
3, 182880, Note_on_c, 0, 33, 0
3, 182880, Note_on_c, 0, 62, 0
3, 182880, Note_on_c, 0, 57, 0
3, 182880, Note_on_c, 0, 62, 86
3, 182880, Note_on_c, 0, 55, 52
3, 182880, Note_on_c, 0, 59, 52
3, 182880, Note_on_c, 0, 33, 91
3, 182880, Note_on_c, 0, 45, 91
3, 183240, Note_on_c, 0, 59, 0
3, 183240, Note_on_c, 0, 55, 0
3, 183240, Note_on_c, 0, 69, 0
3, 183240, Note_on_c, 0, 62, 0
3, 183240, Note_on_c, 0, 63, 93
3, 183240, Note_on_c, 0, 71, 93
3, 183240, Note_on_c, 0, 59, 52
3, 183600, Note_on_c, 0, 59, 0
3, 183600, Note_on_c, 0, 63, 0
3, 183600, Note_on_c, 0, 71, 0
3, 183600, Note_on_c, 0, 71, 87
3, 183600, Note_on_c, 0, 59, 51
3, 183600, Note_on_c, 0, 66, 61
3, 183600, Note_on_c, 0, 63, 60
3, 183960, Note_on_c, 0, 66, 0
3, 183960, Note_on_c, 0, 66, 47
3, 184320, Note_on_c, 0, 66, 0
3, 184320, Note_on_c, 0, 63, 0
3, 184320, Note_on_c, 0, 63, 68
3, 184320, Note_on_c, 0, 69, 68
3, 185040, Note_on_c, 0, 69, 0
3, 185040, Note_on_c, 0, 63, 0
3, 185040, Note_on_c, 0, 64, 48
3, 185040, Note_on_c, 0, 67, 48
3, 185760, Note_on_c, 0, 67, 0
3, 185760, Note_on_c, 0, 45, 0
3, 185760, Note_on_c, 0, 71, 0
3, 185760, Note_on_c, 0, 33, 0
3, 185760, Note_on_c, 0, 64, 0
3, 185760, Note_on_c, 0, 59, 0
3, 185760, Note_on_c, 0, 61, 88
3, 185760, Note_on_c, 0, 69, 88
3, 185760, Note_on_c, 0, 64, 51
3, 185760, Note_on_c, 0, 55, 51
3, 185760, Note_on_c, 0, 45, 88
3, 185760, Note_on_c, 0, 33, 88
3, 186120, Note_on_c, 0, 33, 0
3, 186480, Note_on_c, 0, 64, 0
3, 186480, Note_on_c, 0, 55, 0
3, 186480, Note_on_c, 0, 66, 43
3, 186480, Note_on_c, 0, 54, 80
3, 187200, Note_on_c, 0, 54, 0
3, 187200, Note_on_c, 0, 61, 0
3, 187200, Note_on_c, 0, 66, 0
3, 187200, Note_on_c, 0, 45, 0
3, 187200, Note_on_c, 0, 59, 36
3, 187200, Note_on_c, 0, 62, 36
3, 187200, Note_on_c, 0, 40, 72
3, 187200, Note_on_c, 0, 52, 72
3, 187560, Note_on_c, 0, 69, 0
3, 187560, Note_on_c, 0, 67, 69
3, 187920, Note_on_c, 0, 59, 0
3, 187920, Note_on_c, 0, 58, 29
3, 188280, Note_on_c, 0, 58, 0
3, 188280, Note_on_c, 0, 40, 0
3, 188280, Note_on_c, 0, 52, 0
3, 188280, Note_on_c, 0, 62, 0
3, 188280, Note_on_c, 0, 57, 25
3, 188280, Note_on_c, 0, 61, 25
3, 188280, Note_on_c, 0, 45, 67
3, 188280, Note_on_c, 0, 52, 67
3, 188640, Note_on_c, 0, 52, 0
3, 188640, Note_on_c, 0, 61, 0
3, 188640, Note_on_c, 0, 67, 0
3, 188640, Note_on_c, 0, 57, 0
3, 188640, Note_on_c, 0, 45, 0
3, 188640, Note_on_c, 0, 54, 21
3, 188640, Note_on_c, 0, 57, 21
3, 188640, Note_on_c, 0, 38, 32
3, 188640, Note_on_c, 0, 45, 32
3, 188640, Note_on_c, 0, 50, 32
3, 188879, Note_on_c, 0, 57, 0
3, 188879, Note_on_c, 0, 54, 0
3, 188879, Note_on_c, 0, 54, 31
3, 188879, Note_on_c, 0, 57, 31
3, 188879, Note_on_c, 0, 62, 31
3, 188879, Note_on_c, 0, 66, 31
3, 189120, Note_on_c, 0, 66, 0
3, 189120, Note_on_c, 0, 57, 0
3, 189120, Note_on_c, 0, 54, 0
3, 189120, Note_on_c, 0, 62, 0
3, 189120, Note_on_c, 0, 54, 32
3, 189120, Note_on_c, 0, 57, 32
3, 189120, Note_on_c, 0, 62, 32
3, 189120, Note_on_c, 0, 66, 32
3, 189360, Note_on_c, 0, 66, 0
3, 189360, Note_on_c, 0, 57, 0
3, 189360, Note_on_c, 0, 54, 0
3, 189360, Note_on_c, 0, 62, 0
3, 189360, Note_on_c, 0, 53, 22
3, 189360, Note_on_c, 0, 56, 22
3, 189599, Note_on_c, 0, 56, 0
3, 189599, Note_on_c, 0, 53, 0
3, 189599, Note_on_c, 0, 53, 34
3, 189599, Note_on_c, 0, 56, 34
3, 189599, Note_on_c, 0, 62, 34
3, 189599, Note_on_c, 0, 65, 34
3, 189840, Note_on_c, 0, 65, 0
3, 189840, Note_on_c, 0, 56, 0
3, 189840, Note_on_c, 0, 53, 0
3, 189840, Note_on_c, 0, 62, 0
3, 189840, Note_on_c, 0, 53, 33
3, 189840, Note_on_c, 0, 56, 33
3, 189840, Note_on_c, 0, 62, 33
3, 189840, Note_on_c, 0, 65, 33
3, 190080, Note_on_c, 0, 65, 0
3, 190080, Note_on_c, 0, 56, 0
3, 190080, Note_on_c, 0, 53, 0
3, 190080, Note_on_c, 0, 62, 0
3, 190080, Note_on_c, 0, 54, 24
3, 190080, Note_on_c, 0, 57, 24
3, 190319, Note_on_c, 0, 57, 0
3, 190319, Note_on_c, 0, 54, 0
3, 190319, Note_on_c, 0, 54, 37
3, 190319, Note_on_c, 0, 57, 37
3, 190319, Note_on_c, 0, 62, 37
3, 190319, Note_on_c, 0, 66, 37
3, 190560, Note_on_c, 0, 66, 0
3, 190560, Note_on_c, 0, 57, 0
3, 190560, Note_on_c, 0, 54, 0
3, 190560, Note_on_c, 0, 62, 0
3, 190560, Note_on_c, 0, 54, 28
3, 190560, Note_on_c, 0, 57, 28
3, 190560, Note_on_c, 0, 62, 28
3, 190560, Note_on_c, 0, 66, 28
3, 190800, Note_on_c, 0, 66, 0
3, 190800, Note_on_c, 0, 57, 0
3, 190800, Note_on_c, 0, 54, 0
3, 190800, Note_on_c, 0, 62, 0
3, 190800, Note_on_c, 0, 54, 27
3, 190800, Note_on_c, 0, 57, 27
3, 190800, Note_on_c, 0, 62, 27
3, 190800, Note_on_c, 0, 66, 27
3, 191039, Note_on_c, 0, 66, 0
3, 191039, Note_on_c, 0, 57, 0
3, 191039, Note_on_c, 0, 54, 0
3, 191039, Note_on_c, 0, 62, 0
3, 191039, Note_on_c, 0, 54, 23
3, 191039, Note_on_c, 0, 57, 23
3, 191039, Note_on_c, 0, 62, 23
3, 191039, Note_on_c, 0, 66, 23
3, 191280, Note_on_c, 0, 66, 0
3, 191280, Note_on_c, 0, 57, 0
3, 191280, Note_on_c, 0, 54, 0
3, 191280, Note_on_c, 0, 62, 0
3, 191280, Note_on_c, 0, 54, 24
3, 191280, Note_on_c, 0, 57, 24
3, 191280, Note_on_c, 0, 62, 24
3, 191280, Note_on_c, 0, 66, 24
3, 191520, Note_on_c, 0, 66, 0
3, 191520, Note_on_c, 0, 57, 0
3, 191520, Note_on_c, 0, 54, 0
3, 191520, Note_on_c, 0, 50, 0
3, 191520, Note_on_c, 0, 62, 0
3, 191520, Note_on_c, 0, 55, 23
3, 191520, Note_on_c, 0, 62, 23
3, 191520, Note_on_c, 0, 52, 41
3, 191759, Note_on_c, 0, 62, 0
3, 191759, Note_on_c, 0, 55, 0
3, 191759, Note_on_c, 0, 55, 30
3, 191759, Note_on_c, 0, 59, 30
3, 191759, Note_on_c, 0, 62, 30
3, 191759, Note_on_c, 0, 64, 30
3, 192000, Note_on_c, 0, 64, 0
3, 192000, Note_on_c, 0, 59, 0
3, 192000, Note_on_c, 0, 55, 0
3, 192000, Note_on_c, 0, 62, 0
3, 192000, Note_on_c, 0, 55, 22
3, 192000, Note_on_c, 0, 59, 22
3, 192000, Note_on_c, 0, 62, 22
3, 192240, Note_on_c, 0, 62, 0
3, 192240, Note_on_c, 0, 55, 0
3, 192240, Note_on_c, 0, 59, 0
3, 192240, Note_on_c, 0, 55, 24
3, 192240, Note_on_c, 0, 57, 24
3, 192240, Note_on_c, 0, 61, 24
3, 192479, Note_on_c, 0, 61, 0
3, 192479, Note_on_c, 0, 55, 0
3, 192479, Note_on_c, 0, 57, 0
3, 192479, Note_on_c, 0, 55, 24
3, 192479, Note_on_c, 0, 57, 24
3, 192479, Note_on_c, 0, 61, 24
3, 192720, Note_on_c, 0, 61, 0
3, 192720, Note_on_c, 0, 55, 0
3, 192720, Note_on_c, 0, 57, 0
3, 192720, Note_on_c, 0, 55, 27
3, 192720, Note_on_c, 0, 57, 27
3, 192720, Note_on_c, 0, 61, 27
3, 192720, Note_on_c, 0, 64, 27
3, 192960, Note_on_c, 0, 64, 0
3, 192960, Note_on_c, 0, 57, 0
3, 192960, Note_on_c, 0, 38, 0
3, 192960, Note_on_c, 0, 52, 0
3, 192960, Note_on_c, 0, 45, 0
3, 192960, Note_on_c, 0, 61, 0
3, 192960, Note_on_c, 0, 55, 0
3, 192960, Note_on_c, 0, 62, 24
3, 192960, Note_on_c, 0, 54, 22
3, 192960, Note_on_c, 0, 57, 22
3, 192960, Note_on_c, 0, 38, 32
3, 192960, Note_on_c, 0, 45, 32
3, 193199, Note_on_c, 0, 57, 0
3, 193199, Note_on_c, 0, 54, 0
3, 193199, Note_on_c, 0, 54, 23
3, 193199, Note_on_c, 0, 57, 23
3, 193440, Note_on_c, 0, 57, 0
3, 193440, Note_on_c, 0, 54, 0
3, 193440, Note_on_c, 0, 54, 26
3, 193440, Note_on_c, 0, 57, 26
3, 193680, Note_on_c, 0, 57, 0
3, 193680, Note_on_c, 0, 62, 0
3, 193680, Note_on_c, 0, 54, 0
3, 193680, Note_on_c, 0, 54, 30
3, 193680, Note_on_c, 0, 57, 30
3, 193680, Note_on_c, 0, 62, 30
3, 193919, Note_on_c, 0, 62, 0
3, 193919, Note_on_c, 0, 54, 0
3, 193919, Note_on_c, 0, 57, 0
3, 193919, Note_on_c, 0, 54, 25
3, 193919, Note_on_c, 0, 57, 25
3, 193919, Note_on_c, 0, 62, 25
3, 194160, Note_on_c, 0, 62, 0
3, 194160, Note_on_c, 0, 54, 0
3, 194160, Note_on_c, 0, 57, 0
3, 194160, Note_on_c, 0, 54, 29
3, 194160, Note_on_c, 0, 57, 29
3, 194160, Note_on_c, 0, 62, 29
3, 194160, Note_on_c, 0, 66, 29
3, 194400, Note_on_c, 0, 66, 0
3, 194400, Note_on_c, 0, 45, 0
3, 194400, Note_on_c, 0, 54, 0
3, 194400, Note_on_c, 0, 57, 0
3, 194400, Note_on_c, 0, 62, 0
3, 194400, Note_on_c, 0, 53, 25
3, 194400, Note_on_c, 0, 58, 25
3, 194400, Note_on_c, 0, 46, 34
3, 194639, Note_on_c, 0, 58, 0
3, 194639, Note_on_c, 0, 53, 0
3, 194639, Note_on_c, 0, 53, 31
3, 194639, Note_on_c, 0, 58, 31
3, 194639, Note_on_c, 0, 62, 31
3, 194880, Note_on_c, 0, 62, 0
3, 194880, Note_on_c, 0, 53, 0
3, 194880, Note_on_c, 0, 58, 0
3, 194880, Note_on_c, 0, 53, 30
3, 194880, Note_on_c, 0, 58, 30
3, 194880, Note_on_c, 0, 62, 30
3, 194880, Note_on_c, 0, 65, 30
3, 195120, Note_on_c, 0, 65, 0
3, 195120, Note_on_c, 0, 58, 0
3, 195120, Note_on_c, 0, 53, 0
3, 195120, Note_on_c, 0, 62, 0
3, 195120, Note_on_c, 0, 58, 33
3, 195120, Note_on_c, 0, 62, 33
3, 195120, Note_on_c, 0, 65, 33
3, 195120, Note_on_c, 0, 70, 33
3, 195359, Note_on_c, 0, 70, 0
3, 195359, Note_on_c, 0, 62, 0
3, 195359, Note_on_c, 0, 58, 0
3, 195359, Note_on_c, 0, 65, 0
3, 195359, Note_on_c, 0, 58, 28
3, 195359, Note_on_c, 0, 62, 28
3, 195359, Note_on_c, 0, 65, 28
3, 195359, Note_on_c, 0, 70, 28
3, 195600, Note_on_c, 0, 70, 0
3, 195600, Note_on_c, 0, 62, 0
3, 195600, Note_on_c, 0, 58, 0
3, 195600, Note_on_c, 0, 65, 0
3, 195600, Note_on_c, 0, 58, 27
3, 195600, Note_on_c, 0, 62, 27
3, 195600, Note_on_c, 0, 65, 27
3, 195600, Note_on_c, 0, 70, 27
3, 195840, Note_on_c, 0, 70, 0
3, 195840, Note_on_c, 0, 46, 0
3, 195840, Note_on_c, 0, 58, 0
3, 195840, Note_on_c, 0, 38, 0
3, 195840, Note_on_c, 0, 65, 0
3, 195840, Note_on_c, 0, 62, 0
3, 195840, Note_on_c, 0, 54, 14
3, 195840, Note_on_c, 0, 62, 14
3, 195840, Note_on_c, 0, 45, 37
3, 195840, Note_on_c, 0, 38, 26
3, 196079, Note_on_c, 0, 45, 0
3, 196079, Note_on_c, 0, 54, 0
3, 196079, Note_on_c, 0, 62, 0
3, 196079, Note_on_c, 0, 54, 23
3, 196079, Note_on_c, 0, 57, 23
3, 196079, Note_on_c, 0, 62, 23
3, 196079, Note_on_c, 0, 45, 33
3, 196320, Note_on_c, 0, 45, 0
3, 196320, Note_on_c, 0, 57, 0
3, 196320, Note_on_c, 0, 62, 0
3, 196320, Note_on_c, 0, 54, 0
3, 196320, Note_on_c, 0, 54, 25
3, 196320, Note_on_c, 0, 57, 25
3, 196320, Note_on_c, 0, 62, 25
3, 196320, Note_on_c, 0, 45, 37
3, 196560, Note_on_c, 0, 45, 0
3, 196560, Note_on_c, 0, 57, 0
3, 196560, Note_on_c, 0, 62, 0
3, 196560, Note_on_c, 0, 54, 0
3, 196560, Note_on_c, 0, 54, 24
3, 196560, Note_on_c, 0, 57, 24
3, 196560, Note_on_c, 0, 62, 24
3, 196560, Note_on_c, 0, 45, 38
3, 196799, Note_on_c, 0, 45, 0
3, 196799, Note_on_c, 0, 57, 0
3, 196799, Note_on_c, 0, 62, 0
3, 196799, Note_on_c, 0, 54, 0
3, 196799, Note_on_c, 0, 54, 27
3, 196799, Note_on_c, 0, 57, 27
3, 196799, Note_on_c, 0, 62, 27
3, 196799, Note_on_c, 0, 45, 37
3, 197040, Note_on_c, 0, 45, 0
3, 197040, Note_on_c, 0, 57, 0
3, 197040, Note_on_c, 0, 62, 0
3, 197040, Note_on_c, 0, 54, 0
3, 197040, Note_on_c, 0, 54, 30
3, 197040, Note_on_c, 0, 57, 30
3, 197040, Note_on_c, 0, 62, 30
3, 197040, Note_on_c, 0, 45, 34
3, 197280, Note_on_c, 0, 45, 0
3, 197280, Note_on_c, 0, 57, 0
3, 197280, Note_on_c, 0, 62, 0
3, 197280, Note_on_c, 0, 54, 0
3, 197280, Note_on_c, 0, 62, 26
3, 197280, Note_on_c, 0, 52, 22
3, 197280, Note_on_c, 0, 55, 22
3, 197280, Note_on_c, 0, 59, 22
3, 197280, Note_on_c, 0, 45, 37
3, 197519, Note_on_c, 0, 45, 0
3, 197519, Note_on_c, 0, 55, 0
3, 197519, Note_on_c, 0, 52, 0
3, 197519, Note_on_c, 0, 59, 0
3, 197519, Note_on_c, 0, 52, 25
3, 197519, Note_on_c, 0, 55, 25
3, 197519, Note_on_c, 0, 59, 25
3, 197519, Note_on_c, 0, 45, 36
3, 197760, Note_on_c, 0, 45, 0
3, 197760, Note_on_c, 0, 55, 0
3, 197760, Note_on_c, 0, 52, 0
3, 197760, Note_on_c, 0, 59, 0
3, 197760, Note_on_c, 0, 52, 22
3, 197760, Note_on_c, 0, 55, 22
3, 197760, Note_on_c, 0, 59, 22
3, 197760, Note_on_c, 0, 45, 35
3, 198000, Note_on_c, 0, 45, 0
3, 198000, Note_on_c, 0, 62, 0
3, 198000, Note_on_c, 0, 52, 0
3, 198000, Note_on_c, 0, 55, 0
3, 198000, Note_on_c, 0, 59, 0
3, 198000, Note_on_c, 0, 61, 18
3, 198000, Note_on_c, 0, 52, 20
3, 198000, Note_on_c, 0, 55, 20
3, 198000, Note_on_c, 0, 57, 20
3, 198000, Note_on_c, 0, 45, 34
3, 198239, Note_on_c, 0, 45, 0
3, 198239, Note_on_c, 0, 55, 0
3, 198239, Note_on_c, 0, 52, 0
3, 198239, Note_on_c, 0, 57, 0
3, 198239, Note_on_c, 0, 52, 18
3, 198239, Note_on_c, 0, 55, 18
3, 198239, Note_on_c, 0, 57, 18
3, 198239, Note_on_c, 0, 45, 36
3, 198480, Note_on_c, 0, 45, 0
3, 198480, Note_on_c, 0, 55, 0
3, 198480, Note_on_c, 0, 52, 0
3, 198480, Note_on_c, 0, 57, 0
3, 198480, Note_on_c, 0, 52, 24
3, 198480, Note_on_c, 0, 55, 24
3, 198480, Note_on_c, 0, 57, 24
3, 198480, Note_on_c, 0, 45, 37
3, 198720, Note_on_c, 0, 45, 0
3, 198720, Note_on_c, 0, 61, 0
3, 198720, Note_on_c, 0, 52, 0
3, 198720, Note_on_c, 0, 38, 0
3, 198720, Note_on_c, 0, 57, 0
3, 198720, Note_on_c, 0, 55, 0
3, 198720, Note_on_c, 0, 54, 19
3, 198720, Note_on_c, 0, 57, 19
3, 198720, Note_on_c, 0, 38, 39
3, 198720, Note_on_c, 0, 45, 39
3, 198720, Note_on_c, 0, 50, 39
3, 198959, Note_on_c, 0, 57, 0
3, 198959, Note_on_c, 0, 54, 0
3, 198959, Note_on_c, 0, 54, 36
3, 198959, Note_on_c, 0, 57, 36
3, 198959, Note_on_c, 0, 62, 36
3, 198959, Note_on_c, 0, 66, 36
3, 199200, Note_on_c, 0, 66, 0
3, 199200, Note_on_c, 0, 57, 0
3, 199200, Note_on_c, 0, 54, 0
3, 199200, Note_on_c, 0, 62, 0
3, 199200, Note_on_c, 0, 54, 27
3, 199200, Note_on_c, 0, 57, 27
3, 199200, Note_on_c, 0, 62, 27
3, 199200, Note_on_c, 0, 66, 27
3, 199440, Note_on_c, 0, 66, 0
3, 199440, Note_on_c, 0, 57, 0
3, 199440, Note_on_c, 0, 54, 0
3, 199440, Note_on_c, 0, 62, 0
3, 199440, Note_on_c, 0, 53, 23
3, 199440, Note_on_c, 0, 56, 23
3, 199679, Note_on_c, 0, 56, 0
3, 199679, Note_on_c, 0, 53, 0
3, 199679, Note_on_c, 0, 53, 37
3, 199679, Note_on_c, 0, 56, 37
3, 199679, Note_on_c, 0, 62, 37
3, 199679, Note_on_c, 0, 65, 37
3, 199920, Note_on_c, 0, 65, 0
3, 199920, Note_on_c, 0, 56, 0
3, 199920, Note_on_c, 0, 53, 0
3, 199920, Note_on_c, 0, 62, 0
3, 199920, Note_on_c, 0, 53, 28
3, 199920, Note_on_c, 0, 56, 28
3, 199920, Note_on_c, 0, 62, 28
3, 199920, Note_on_c, 0, 65, 28
3, 200160, Note_on_c, 0, 65, 0
3, 200160, Note_on_c, 0, 56, 0
3, 200160, Note_on_c, 0, 53, 0
3, 200160, Note_on_c, 0, 62, 0
3, 200160, Note_on_c, 0, 54, 22
3, 200160, Note_on_c, 0, 57, 22
3, 200399, Note_on_c, 0, 57, 0
3, 200399, Note_on_c, 0, 54, 0
3, 200399, Note_on_c, 0, 54, 31
3, 200399, Note_on_c, 0, 57, 31
3, 200399, Note_on_c, 0, 62, 31
3, 200399, Note_on_c, 0, 66, 31
3, 200640, Note_on_c, 0, 66, 0
3, 200640, Note_on_c, 0, 57, 0
3, 200640, Note_on_c, 0, 54, 0
3, 200640, Note_on_c, 0, 62, 0
3, 200640, Note_on_c, 0, 54, 26
3, 200640, Note_on_c, 0, 57, 26
3, 200640, Note_on_c, 0, 62, 26
3, 200640, Note_on_c, 0, 66, 26
3, 200880, Note_on_c, 0, 66, 0
3, 200880, Note_on_c, 0, 57, 0
3, 200880, Note_on_c, 0, 54, 0
3, 200880, Note_on_c, 0, 62, 0
3, 200880, Note_on_c, 0, 54, 24
3, 200880, Note_on_c, 0, 57, 24
3, 200880, Note_on_c, 0, 62, 24
3, 200880, Note_on_c, 0, 66, 24
3, 201119, Note_on_c, 0, 66, 0
3, 201119, Note_on_c, 0, 57, 0
3, 201119, Note_on_c, 0, 54, 0
3, 201119, Note_on_c, 0, 62, 0
3, 201119, Note_on_c, 0, 54, 24
3, 201119, Note_on_c, 0, 57, 24
3, 201119, Note_on_c, 0, 62, 24
3, 201119, Note_on_c, 0, 66, 24
3, 201360, Note_on_c, 0, 66, 0
3, 201360, Note_on_c, 0, 57, 0
3, 201360, Note_on_c, 0, 54, 0
3, 201360, Note_on_c, 0, 62, 0
3, 201360, Note_on_c, 0, 54, 30
3, 201360, Note_on_c, 0, 57, 30
3, 201360, Note_on_c, 0, 62, 30
3, 201360, Note_on_c, 0, 66, 30
3, 201600, Note_on_c, 0, 66, 0
3, 201600, Note_on_c, 0, 57, 0
3, 201600, Note_on_c, 0, 54, 0
3, 201600, Note_on_c, 0, 50, 0
3, 201600, Note_on_c, 0, 62, 0
3, 201600, Note_on_c, 0, 55, 21
3, 201600, Note_on_c, 0, 62, 21
3, 201600, Note_on_c, 0, 52, 38
3, 201839, Note_on_c, 0, 62, 0
3, 201839, Note_on_c, 0, 55, 0
3, 201839, Note_on_c, 0, 55, 25
3, 201839, Note_on_c, 0, 59, 25
3, 201839, Note_on_c, 0, 62, 25
3, 201839, Note_on_c, 0, 64, 25
3, 202080, Note_on_c, 0, 64, 0
3, 202080, Note_on_c, 0, 59, 0
3, 202080, Note_on_c, 0, 55, 0
3, 202080, Note_on_c, 0, 62, 0
3, 202080, Note_on_c, 0, 55, 20
3, 202080, Note_on_c, 0, 59, 20
3, 202080, Note_on_c, 0, 62, 20
3, 202320, Note_on_c, 0, 62, 0
3, 202320, Note_on_c, 0, 55, 0
3, 202320, Note_on_c, 0, 59, 0
3, 202320, Note_on_c, 0, 55, 28
3, 202320, Note_on_c, 0, 57, 28
3, 202320, Note_on_c, 0, 61, 28
3, 202559, Note_on_c, 0, 61, 0
3, 202559, Note_on_c, 0, 55, 0
3, 202559, Note_on_c, 0, 57, 0
3, 202559, Note_on_c, 0, 55, 25
3, 202559, Note_on_c, 0, 57, 25
3, 202559, Note_on_c, 0, 61, 25
3, 202800, Note_on_c, 0, 61, 0
3, 202800, Note_on_c, 0, 55, 0
3, 202800, Note_on_c, 0, 57, 0
3, 202800, Note_on_c, 0, 55, 30
3, 202800, Note_on_c, 0, 57, 30
3, 202800, Note_on_c, 0, 61, 30
3, 202800, Note_on_c, 0, 64, 30
3, 203040, Note_on_c, 0, 64, 0
3, 203040, Note_on_c, 0, 57, 0
3, 203040, Note_on_c, 0, 38, 0
3, 203040, Note_on_c, 0, 52, 0
3, 203040, Note_on_c, 0, 45, 0
3, 203040, Note_on_c, 0, 61, 0
3, 203040, Note_on_c, 0, 55, 0
3, 203040, Note_on_c, 0, 62, 23
3, 203040, Note_on_c, 0, 54, 29
3, 203040, Note_on_c, 0, 57, 29
3, 203040, Note_on_c, 0, 38, 35
3, 203040, Note_on_c, 0, 45, 35
3, 203279, Note_on_c, 0, 57, 0
3, 203279, Note_on_c, 0, 54, 0
3, 203279, Note_on_c, 0, 54, 21
3, 203279, Note_on_c, 0, 57, 21
3, 203520, Note_on_c, 0, 57, 0
3, 203520, Note_on_c, 0, 54, 0
3, 203520, Note_on_c, 0, 54, 25
3, 203520, Note_on_c, 0, 57, 25
3, 203760, Note_on_c, 0, 57, 0
3, 203760, Note_on_c, 0, 62, 0
3, 203760, Note_on_c, 0, 54, 0
3, 203760, Note_on_c, 0, 54, 29
3, 203760, Note_on_c, 0, 57, 29
3, 203760, Note_on_c, 0, 62, 29
3, 203999, Note_on_c, 0, 62, 0
3, 203999, Note_on_c, 0, 54, 0
3, 203999, Note_on_c, 0, 57, 0
3, 203999, Note_on_c, 0, 54, 25
3, 203999, Note_on_c, 0, 57, 25
3, 203999, Note_on_c, 0, 62, 25
3, 204240, Note_on_c, 0, 62, 0
3, 204240, Note_on_c, 0, 54, 0
3, 204240, Note_on_c, 0, 57, 0
3, 204240, Note_on_c, 0, 54, 33
3, 204240, Note_on_c, 0, 57, 33
3, 204240, Note_on_c, 0, 62, 33
3, 204240, Note_on_c, 0, 66, 33
3, 204480, Note_on_c, 0, 66, 0
3, 204480, Note_on_c, 0, 45, 0
3, 204480, Note_on_c, 0, 54, 0
3, 204480, Note_on_c, 0, 57, 0
3, 204480, Note_on_c, 0, 62, 0
3, 204480, Note_on_c, 0, 53, 22
3, 204480, Note_on_c, 0, 58, 22
3, 204480, Note_on_c, 0, 62, 22
3, 204480, Note_on_c, 0, 65, 22
3, 204480, Note_on_c, 0, 46, 36
3, 204719, Note_on_c, 0, 65, 0
3, 204719, Note_on_c, 0, 62, 0
3, 204719, Note_on_c, 0, 58, 0
3, 204719, Note_on_c, 0, 53, 0
3, 204719, Note_on_c, 0, 53, 27
3, 204719, Note_on_c, 0, 58, 27
3, 204719, Note_on_c, 0, 62, 27
3, 204719, Note_on_c, 0, 65, 27
3, 204960, Note_on_c, 0, 65, 0
3, 204960, Note_on_c, 0, 58, 0
3, 204960, Note_on_c, 0, 53, 0
3, 204960, Note_on_c, 0, 62, 0
3, 204960, Note_on_c, 0, 53, 27
3, 204960, Note_on_c, 0, 58, 27
3, 204960, Note_on_c, 0, 62, 27
3, 204960, Note_on_c, 0, 65, 27
3, 205200, Note_on_c, 0, 65, 0
3, 205200, Note_on_c, 0, 58, 0
3, 205200, Note_on_c, 0, 53, 0
3, 205200, Note_on_c, 0, 62, 0
3, 205200, Note_on_c, 0, 58, 35
3, 205200, Note_on_c, 0, 62, 35
3, 205200, Note_on_c, 0, 65, 35
3, 205200, Note_on_c, 0, 70, 35
3, 205439, Note_on_c, 0, 70, 0
3, 205439, Note_on_c, 0, 62, 0
3, 205439, Note_on_c, 0, 58, 0
3, 205439, Note_on_c, 0, 65, 0
3, 205439, Note_on_c, 0, 58, 28
3, 205439, Note_on_c, 0, 62, 28
3, 205439, Note_on_c, 0, 65, 28
3, 205439, Note_on_c, 0, 70, 28
3, 205680, Note_on_c, 0, 70, 0
3, 205680, Note_on_c, 0, 62, 0
3, 205680, Note_on_c, 0, 58, 0
3, 205680, Note_on_c, 0, 65, 0
3, 205680, Note_on_c, 0, 58, 27
3, 205680, Note_on_c, 0, 62, 27
3, 205680, Note_on_c, 0, 65, 27
3, 205680, Note_on_c, 0, 70, 27
3, 205920, Note_on_c, 0, 70, 0
3, 205920, Note_on_c, 0, 38, 0
3, 205920, Note_on_c, 0, 58, 0
3, 205920, Note_on_c, 0, 46, 0
3, 205920, Note_on_c, 0, 65, 0
3, 205920, Note_on_c, 0, 62, 0
3, 205920, Note_on_c, 0, 53, 11
3, 205920, Note_on_c, 0, 62, 11
3, 205920, Note_on_c, 0, 45, 34
3, 205920, Note_on_c, 0, 38, 38
3, 206159, Note_on_c, 0, 45, 0
3, 206159, Note_on_c, 0, 53, 0
3, 206159, Note_on_c, 0, 62, 0
3, 206159, Note_on_c, 0, 53, 30
3, 206159, Note_on_c, 0, 57, 30
3, 206159, Note_on_c, 0, 62, 30
3, 206159, Note_on_c, 0, 65, 30
3, 206159, Note_on_c, 0, 45, 35
3, 206400, Note_on_c, 0, 45, 0
3, 206400, Note_on_c, 0, 53, 0
3, 206400, Note_on_c, 0, 57, 0
3, 206400, Note_on_c, 0, 62, 0
3, 206400, Note_on_c, 0, 65, 0
3, 206400, Note_on_c, 0, 53, 25
3, 206400, Note_on_c, 0, 57, 25
3, 206400, Note_on_c, 0, 62, 25
3, 206400, Note_on_c, 0, 65, 25
3, 206400, Note_on_c, 0, 45, 36
3, 206640, Note_on_c, 0, 45, 0
3, 206640, Note_on_c, 0, 53, 0
3, 206640, Note_on_c, 0, 57, 0
3, 206640, Note_on_c, 0, 62, 0
3, 206640, Note_on_c, 0, 65, 0
3, 206640, Note_on_c, 0, 53, 25
3, 206640, Note_on_c, 0, 57, 25
3, 206640, Note_on_c, 0, 62, 25
3, 206640, Note_on_c, 0, 65, 25
3, 206640, Note_on_c, 0, 45, 35
3, 206879, Note_on_c, 0, 45, 0
3, 206879, Note_on_c, 0, 53, 0
3, 206879, Note_on_c, 0, 57, 0
3, 206879, Note_on_c, 0, 62, 0
3, 206879, Note_on_c, 0, 65, 0
3, 206879, Note_on_c, 0, 53, 30
3, 206879, Note_on_c, 0, 57, 30
3, 206879, Note_on_c, 0, 62, 30
3, 206879, Note_on_c, 0, 65, 30
3, 206879, Note_on_c, 0, 45, 40
3, 207120, Note_on_c, 0, 45, 0
3, 207120, Note_on_c, 0, 53, 0
3, 207120, Note_on_c, 0, 57, 0
3, 207120, Note_on_c, 0, 62, 0
3, 207120, Note_on_c, 0, 65, 0
3, 207120, Note_on_c, 0, 53, 20
3, 207120, Note_on_c, 0, 57, 20
3, 207120, Note_on_c, 0, 62, 20
3, 207120, Note_on_c, 0, 65, 20
3, 207120, Note_on_c, 0, 45, 35
3, 207360, Note_on_c, 0, 45, 0
3, 207360, Note_on_c, 0, 53, 0
3, 207360, Note_on_c, 0, 57, 0
3, 207360, Note_on_c, 0, 62, 0
3, 207360, Note_on_c, 0, 65, 0
3, 207360, Note_on_c, 0, 54, 26
3, 207360, Note_on_c, 0, 57, 26
3, 207360, Note_on_c, 0, 62, 26
3, 207360, Note_on_c, 0, 66, 26
3, 207360, Note_on_c, 0, 45, 33
3, 207599, Note_on_c, 0, 45, 0
3, 207599, Note_on_c, 0, 54, 0
3, 207599, Note_on_c, 0, 57, 0
3, 207599, Note_on_c, 0, 62, 0
3, 207599, Note_on_c, 0, 66, 0
3, 207599, Note_on_c, 0, 54, 25
3, 207599, Note_on_c, 0, 57, 25
3, 207599, Note_on_c, 0, 62, 25
3, 207599, Note_on_c, 0, 66, 25
3, 207599, Note_on_c, 0, 45, 37
3, 207840, Note_on_c, 0, 45, 0
3, 207840, Note_on_c, 0, 54, 0
3, 207840, Note_on_c, 0, 57, 0
3, 207840, Note_on_c, 0, 62, 0
3, 207840, Note_on_c, 0, 66, 0
3, 207840, Note_on_c, 0, 54, 20
3, 207840, Note_on_c, 0, 57, 20
3, 207840, Note_on_c, 0, 62, 20
3, 207840, Note_on_c, 0, 45, 38
3, 208080, Note_on_c, 0, 45, 0
3, 208080, Note_on_c, 0, 57, 0
3, 208080, Note_on_c, 0, 62, 0
3, 208080, Note_on_c, 0, 54, 0
3, 208080, Note_on_c, 0, 54, 23
3, 208080, Note_on_c, 0, 57, 23
3, 208080, Note_on_c, 0, 62, 23
3, 208080, Note_on_c, 0, 45, 40
3, 208319, Note_on_c, 0, 45, 0
3, 208319, Note_on_c, 0, 57, 0
3, 208319, Note_on_c, 0, 62, 0
3, 208319, Note_on_c, 0, 54, 0
3, 208319, Note_on_c, 0, 54, 21
3, 208319, Note_on_c, 0, 57, 21
3, 208319, Note_on_c, 0, 45, 35
3, 208560, Note_on_c, 0, 45, 0
3, 208560, Note_on_c, 0, 57, 0
3, 208560, Note_on_c, 0, 54, 0
3, 208560, Note_on_c, 0, 54, 26
3, 208560, Note_on_c, 0, 57, 26
3, 208560, Note_on_c, 0, 45, 35
3, 208800, Note_on_c, 0, 45, 0
3, 208800, Note_on_c, 0, 38, 0
3, 208800, Note_on_c, 0, 54, 0
3, 208800, Note_on_c, 0, 57, 0
3, 208800, Note_on_c, 0, 55, 32
3, 208800, Note_on_c, 0, 61, 32
3, 208800, Note_on_c, 0, 38, 43
3, 208800, Note_on_c, 0, 45, 43
3, 208800, Note_on_c, 0, 52, 43
3, 209039, Note_on_c, 0, 61, 0
3, 209039, Note_on_c, 0, 55, 0
3, 209039, Note_on_c, 0, 55, 31
3, 209039, Note_on_c, 0, 57, 31
3, 209039, Note_on_c, 0, 61, 31
3, 209039, Note_on_c, 0, 67, 31
3, 209280, Note_on_c, 0, 67, 0
3, 209280, Note_on_c, 0, 57, 0
3, 209280, Note_on_c, 0, 55, 0
3, 209280, Note_on_c, 0, 61, 0
3, 209280, Note_on_c, 0, 55, 27
3, 209280, Note_on_c, 0, 57, 27
3, 209280, Note_on_c, 0, 61, 27
3, 209280, Note_on_c, 0, 67, 27
3, 209520, Note_on_c, 0, 67, 0
3, 209520, Note_on_c, 0, 57, 0
3, 209520, Note_on_c, 0, 55, 0
3, 209520, Note_on_c, 0, 61, 0
3, 209520, Note_on_c, 0, 55, 31
3, 209520, Note_on_c, 0, 57, 31
3, 209520, Note_on_c, 0, 61, 31
3, 209520, Note_on_c, 0, 67, 31
3, 209759, Note_on_c, 0, 67, 0
3, 209759, Note_on_c, 0, 57, 0
3, 209759, Note_on_c, 0, 55, 0
3, 209759, Note_on_c, 0, 61, 0
3, 209759, Note_on_c, 0, 55, 24
3, 209759, Note_on_c, 0, 57, 24
3, 209759, Note_on_c, 0, 61, 24
3, 209759, Note_on_c, 0, 67, 24
3, 210000, Note_on_c, 0, 67, 0
3, 210000, Note_on_c, 0, 57, 0
3, 210000, Note_on_c, 0, 55, 0
3, 210000, Note_on_c, 0, 61, 0
3, 210000, Note_on_c, 0, 55, 26
3, 210000, Note_on_c, 0, 57, 26
3, 210000, Note_on_c, 0, 61, 26
3, 210000, Note_on_c, 0, 67, 26
3, 210240, Note_on_c, 0, 67, 0
3, 210240, Note_on_c, 0, 57, 0
3, 210240, Note_on_c, 0, 55, 0
3, 210240, Note_on_c, 0, 61, 0
3, 210240, Note_on_c, 0, 55, 21
3, 210240, Note_on_c, 0, 62, 21
3, 210479, Note_on_c, 0, 62, 0
3, 210479, Note_on_c, 0, 55, 0
3, 210479, Note_on_c, 0, 55, 29
3, 210479, Note_on_c, 0, 59, 29
3, 210479, Note_on_c, 0, 62, 29
3, 210479, Note_on_c, 0, 67, 29
3, 210720, Note_on_c, 0, 67, 0
3, 210720, Note_on_c, 0, 59, 0
3, 210720, Note_on_c, 0, 55, 0
3, 210720, Note_on_c, 0, 62, 0
3, 210720, Note_on_c, 0, 55, 27
3, 210720, Note_on_c, 0, 59, 27
3, 210720, Note_on_c, 0, 62, 27
3, 210720, Note_on_c, 0, 67, 27
3, 210960, Note_on_c, 0, 67, 0
3, 210960, Note_on_c, 0, 59, 0
3, 210960, Note_on_c, 0, 55, 0
3, 210960, Note_on_c, 0, 62, 0
3, 210960, Note_on_c, 0, 55, 30
3, 210960, Note_on_c, 0, 59, 30
3, 210960, Note_on_c, 0, 62, 30
3, 210960, Note_on_c, 0, 67, 30
3, 211199, Note_on_c, 0, 67, 0
3, 211199, Note_on_c, 0, 59, 0
3, 211199, Note_on_c, 0, 55, 0
3, 211199, Note_on_c, 0, 62, 0
3, 211199, Note_on_c, 0, 55, 29
3, 211199, Note_on_c, 0, 59, 29
3, 211199, Note_on_c, 0, 62, 29
3, 211199, Note_on_c, 0, 67, 29
3, 211440, Note_on_c, 0, 67, 0
3, 211440, Note_on_c, 0, 59, 0
3, 211440, Note_on_c, 0, 55, 0
3, 211440, Note_on_c, 0, 62, 0
3, 211440, Note_on_c, 0, 55, 25
3, 211440, Note_on_c, 0, 59, 25
3, 211440, Note_on_c, 0, 62, 25
3, 211440, Note_on_c, 0, 67, 25
3, 211680, Note_on_c, 0, 67, 0
3, 211680, Note_on_c, 0, 59, 0
3, 211680, Note_on_c, 0, 55, 0
3, 211680, Note_on_c, 0, 62, 0
3, 211680, Note_on_c, 0, 55, 18
3, 211680, Note_on_c, 0, 61, 18
3, 211919, Note_on_c, 0, 61, 0
3, 211919, Note_on_c, 0, 55, 0
3, 211919, Note_on_c, 0, 55, 30
3, 211919, Note_on_c, 0, 57, 30
3, 211919, Note_on_c, 0, 61, 30
3, 211919, Note_on_c, 0, 67, 30
3, 212160, Note_on_c, 0, 67, 0
3, 212160, Note_on_c, 0, 57, 0
3, 212160, Note_on_c, 0, 55, 0
3, 212160, Note_on_c, 0, 61, 0
3, 212160, Note_on_c, 0, 55, 24
3, 212160, Note_on_c, 0, 57, 24
3, 212160, Note_on_c, 0, 61, 24
3, 212160, Note_on_c, 0, 67, 24
3, 212400, Note_on_c, 0, 67, 0
3, 212400, Note_on_c, 0, 57, 0
3, 212400, Note_on_c, 0, 55, 0
3, 212400, Note_on_c, 0, 61, 0
3, 212400, Note_on_c, 0, 55, 28
3, 212400, Note_on_c, 0, 57, 28
3, 212400, Note_on_c, 0, 61, 28
3, 212400, Note_on_c, 0, 67, 28
3, 212639, Note_on_c, 0, 67, 0
3, 212639, Note_on_c, 0, 57, 0
3, 212639, Note_on_c, 0, 55, 0
3, 212639, Note_on_c, 0, 61, 0
3, 212639, Note_on_c, 0, 55, 24
3, 212639, Note_on_c, 0, 57, 24
3, 212639, Note_on_c, 0, 61, 24
3, 212639, Note_on_c, 0, 67, 24
3, 212880, Note_on_c, 0, 67, 0
3, 212880, Note_on_c, 0, 57, 0
3, 212880, Note_on_c, 0, 55, 0
3, 212880, Note_on_c, 0, 61, 0
3, 212880, Note_on_c, 0, 55, 27
3, 212880, Note_on_c, 0, 57, 27
3, 212880, Note_on_c, 0, 61, 27
3, 212880, Note_on_c, 0, 67, 27
3, 213120, Note_on_c, 0, 67, 0
3, 213120, Note_on_c, 0, 57, 0
3, 213120, Note_on_c, 0, 55, 0
3, 213120, Note_on_c, 0, 61, 0
3, 213120, Note_on_c, 0, 55, 21
3, 213120, Note_on_c, 0, 59, 21
3, 213359, Note_on_c, 0, 59, 0
3, 213359, Note_on_c, 0, 55, 0
3, 213359, Note_on_c, 0, 55, 32
3, 213359, Note_on_c, 0, 59, 32
3, 213359, Note_on_c, 0, 66, 32
3, 213600, Note_on_c, 0, 66, 0
3, 213600, Note_on_c, 0, 55, 0
3, 213600, Note_on_c, 0, 59, 0
3, 213600, Note_on_c, 0, 55, 27
3, 213600, Note_on_c, 0, 59, 27
3, 213600, Note_on_c, 0, 66, 27
3, 213840, Note_on_c, 0, 66, 0
3, 213840, Note_on_c, 0, 55, 0
3, 213840, Note_on_c, 0, 59, 0
3, 213840, Note_on_c, 0, 55, 21
3, 213840, Note_on_c, 0, 59, 21
3, 213840, Note_on_c, 0, 64, 21
3, 214079, Note_on_c, 0, 64, 0
3, 214079, Note_on_c, 0, 55, 0
3, 214079, Note_on_c, 0, 59, 0
3, 214079, Note_on_c, 0, 55, 25
3, 214079, Note_on_c, 0, 59, 25
3, 214079, Note_on_c, 0, 64, 25
3, 214320, Note_on_c, 0, 64, 0
3, 214320, Note_on_c, 0, 55, 0
3, 214320, Note_on_c, 0, 59, 0
3, 214320, Note_on_c, 0, 55, 27
3, 214320, Note_on_c, 0, 59, 27
3, 214320, Note_on_c, 0, 64, 27
3, 214560, Note_on_c, 0, 64, 0
3, 214560, Note_on_c, 0, 45, 0
3, 214560, Note_on_c, 0, 38, 0
3, 214560, Note_on_c, 0, 52, 0
3, 214560, Note_on_c, 0, 59, 0
3, 214560, Note_on_c, 0, 55, 0
3, 214560, Note_on_c, 0, 55, 16
3, 214560, Note_on_c, 0, 61, 16
3, 214560, Note_on_c, 0, 38, 34
3, 214560, Note_on_c, 0, 45, 34
3, 214560, Note_on_c, 0, 52, 34
3, 214799, Note_on_c, 0, 61, 0
3, 214799, Note_on_c, 0, 55, 0
3, 214799, Note_on_c, 0, 55, 26
3, 214799, Note_on_c, 0, 61, 26
3, 214799, Note_on_c, 0, 64, 26
3, 215040, Note_on_c, 0, 64, 0
3, 215040, Note_on_c, 0, 55, 0
3, 215040, Note_on_c, 0, 61, 0
3, 215040, Note_on_c, 0, 55, 28
3, 215040, Note_on_c, 0, 61, 28
3, 215040, Note_on_c, 0, 64, 28
3, 215280, Note_on_c, 0, 64, 0
3, 215280, Note_on_c, 0, 55, 0
3, 215280, Note_on_c, 0, 61, 0
3, 215280, Note_on_c, 0, 55, 27
3, 215280, Note_on_c, 0, 61, 27
3, 215280, Note_on_c, 0, 64, 27
3, 215519, Note_on_c, 0, 64, 0
3, 215519, Note_on_c, 0, 55, 0
3, 215519, Note_on_c, 0, 61, 0
3, 215519, Note_on_c, 0, 55, 27
3, 215519, Note_on_c, 0, 61, 27
3, 215519, Note_on_c, 0, 64, 27
3, 215760, Note_on_c, 0, 64, 0
3, 215760, Note_on_c, 0, 55, 0
3, 215760, Note_on_c, 0, 61, 0
3, 215760, Note_on_c, 0, 55, 24
3, 215760, Note_on_c, 0, 61, 24
3, 215760, Note_on_c, 0, 64, 24
3, 216000, Note_on_c, 0, 64, 0
3, 216000, Note_on_c, 0, 55, 0
3, 216000, Note_on_c, 0, 52, 0
3, 216000, Note_on_c, 0, 61, 0
3, 216000, Note_on_c, 0, 55, 21
3, 216000, Note_on_c, 0, 60, 21
3, 216000, Note_on_c, 0, 51, 32
3, 216239, Note_on_c, 0, 60, 0
3, 216239, Note_on_c, 0, 55, 0
3, 216239, Note_on_c, 0, 55, 28
3, 216239, Note_on_c, 0, 60, 28
3, 216239, Note_on_c, 0, 63, 28
3, 216480, Note_on_c, 0, 63, 0
3, 216480, Note_on_c, 0, 55, 0
3, 216480, Note_on_c, 0, 60, 0
3, 216480, Note_on_c, 0, 55, 27
3, 216480, Note_on_c, 0, 60, 27
3, 216480, Note_on_c, 0, 63, 27
3, 216720, Note_on_c, 0, 63, 0
3, 216720, Note_on_c, 0, 55, 0
3, 216720, Note_on_c, 0, 60, 0
3, 216720, Note_on_c, 0, 55, 26
3, 216720, Note_on_c, 0, 60, 26
3, 216720, Note_on_c, 0, 63, 26
3, 216959, Note_on_c, 0, 63, 0
3, 216959, Note_on_c, 0, 55, 0
3, 216959, Note_on_c, 0, 60, 0
3, 216959, Note_on_c, 0, 55, 25
3, 216959, Note_on_c, 0, 60, 25
3, 216959, Note_on_c, 0, 63, 25
3, 217200, Note_on_c, 0, 63, 0
3, 217200, Note_on_c, 0, 55, 0
3, 217200, Note_on_c, 0, 60, 0
3, 217200, Note_on_c, 0, 55, 26
3, 217200, Note_on_c, 0, 60, 26
3, 217200, Note_on_c, 0, 63, 26
3, 217440, Note_on_c, 0, 63, 0
3, 217440, Note_on_c, 0, 55, 0
3, 217440, Note_on_c, 0, 51, 0
3, 217440, Note_on_c, 0, 60, 0
3, 217440, Note_on_c, 0, 55, 26
3, 217440, Note_on_c, 0, 59, 26
3, 217440, Note_on_c, 0, 50, 38
3, 217679, Note_on_c, 0, 59, 0
3, 217679, Note_on_c, 0, 55, 0
3, 217679, Note_on_c, 0, 55, 29
3, 217679, Note_on_c, 0, 59, 29
3, 217679, Note_on_c, 0, 62, 29
3, 217920, Note_on_c, 0, 62, 0
3, 217920, Note_on_c, 0, 55, 0
3, 217920, Note_on_c, 0, 59, 0
3, 217920, Note_on_c, 0, 55, 26
3, 217920, Note_on_c, 0, 59, 26
3, 217920, Note_on_c, 0, 62, 26
3, 218160, Note_on_c, 0, 62, 0
3, 218160, Note_on_c, 0, 55, 0
3, 218160, Note_on_c, 0, 59, 0
3, 218160, Note_on_c, 0, 55, 25
3, 218160, Note_on_c, 0, 59, 25
3, 218160, Note_on_c, 0, 62, 25
3, 218399, Note_on_c, 0, 62, 0
3, 218399, Note_on_c, 0, 55, 0
3, 218399, Note_on_c, 0, 59, 0
3, 218399, Note_on_c, 0, 55, 30
3, 218399, Note_on_c, 0, 59, 30
3, 218399, Note_on_c, 0, 62, 30
3, 218640, Note_on_c, 0, 62, 0
3, 218640, Note_on_c, 0, 55, 0
3, 218640, Note_on_c, 0, 59, 0
3, 218640, Note_on_c, 0, 55, 24
3, 218640, Note_on_c, 0, 59, 24
3, 218640, Note_on_c, 0, 62, 24
3, 218880, Note_on_c, 0, 62, 0
3, 218880, Note_on_c, 0, 45, 0
3, 218880, Note_on_c, 0, 50, 0
3, 218880, Note_on_c, 0, 38, 0
3, 218880, Note_on_c, 0, 59, 0
3, 218880, Note_on_c, 0, 55, 0
3, 218880, Note_on_c, 0, 55, 20
3, 218880, Note_on_c, 0, 57, 20
3, 218880, Note_on_c, 0, 49, 36
3, 218880, Note_on_c, 0, 38, 39
3, 218880, Note_on_c, 0, 45, 39
3, 219119, Note_on_c, 0, 57, 0
3, 219119, Note_on_c, 0, 55, 0
3, 219119, Note_on_c, 0, 55, 31
3, 219119, Note_on_c, 0, 57, 31
3, 219119, Note_on_c, 0, 61, 31
3, 219360, Note_on_c, 0, 61, 0
3, 219360, Note_on_c, 0, 55, 0
3, 219360, Note_on_c, 0, 57, 0
3, 219360, Note_on_c, 0, 55, 29
3, 219360, Note_on_c, 0, 57, 29
3, 219360, Note_on_c, 0, 61, 29
3, 219600, Note_on_c, 0, 61, 0
3, 219600, Note_on_c, 0, 55, 0
3, 219600, Note_on_c, 0, 49, 0
3, 219600, Note_on_c, 0, 57, 0
3, 219600, Note_on_c, 0, 55, 32
3, 219600, Note_on_c, 0, 57, 32
3, 219600, Note_on_c, 0, 61, 32
3, 219600, Note_on_c, 0, 67, 32
3, 219600, Note_on_c, 0, 52, 39
3, 219839, Note_on_c, 0, 67, 0
3, 219839, Note_on_c, 0, 57, 0
3, 219839, Note_on_c, 0, 55, 0
3, 219839, Note_on_c, 0, 61, 0
3, 219839, Note_on_c, 0, 55, 21
3, 219839, Note_on_c, 0, 57, 21
3, 219839, Note_on_c, 0, 61, 21
3, 219839, Note_on_c, 0, 67, 21
3, 220080, Note_on_c, 0, 67, 0
3, 220080, Note_on_c, 0, 57, 0
3, 220080, Note_on_c, 0, 55, 0
3, 220080, Note_on_c, 0, 61, 0
3, 220080, Note_on_c, 0, 55, 28
3, 220080, Note_on_c, 0, 57, 28
3, 220080, Note_on_c, 0, 61, 28
3, 220080, Note_on_c, 0, 67, 28
3, 220320, Note_on_c, 0, 67, 0
3, 220320, Note_on_c, 0, 57, 0
3, 220320, Note_on_c, 0, 55, 0
3, 220320, Note_on_c, 0, 61, 0
3, 220320, Note_on_c, 0, 55, 26
3, 220320, Note_on_c, 0, 59, 26
3, 220320, Note_on_c, 0, 62, 26
3, 220320, Note_on_c, 0, 67, 26
3, 220559, Note_on_c, 0, 67, 0
3, 220559, Note_on_c, 0, 59, 0
3, 220559, Note_on_c, 0, 55, 0
3, 220559, Note_on_c, 0, 62, 0
3, 220559, Note_on_c, 0, 55, 27
3, 220559, Note_on_c, 0, 59, 27
3, 220559, Note_on_c, 0, 62, 27
3, 220559, Note_on_c, 0, 67, 27
3, 220800, Note_on_c, 0, 67, 0
3, 220800, Note_on_c, 0, 59, 0
3, 220800, Note_on_c, 0, 55, 0
3, 220800, Note_on_c, 0, 62, 0
3, 220800, Note_on_c, 0, 55, 23
3, 220800, Note_on_c, 0, 59, 23
3, 220800, Note_on_c, 0, 62, 23
3, 220800, Note_on_c, 0, 67, 23
3, 221040, Note_on_c, 0, 67, 0
3, 221040, Note_on_c, 0, 59, 0
3, 221040, Note_on_c, 0, 55, 0
3, 221040, Note_on_c, 0, 62, 0
3, 221040, Note_on_c, 0, 55, 26
3, 221040, Note_on_c, 0, 59, 26
3, 221040, Note_on_c, 0, 62, 26
3, 221040, Note_on_c, 0, 67, 26
3, 221279, Note_on_c, 0, 67, 0
3, 221279, Note_on_c, 0, 59, 0
3, 221279, Note_on_c, 0, 55, 0
3, 221279, Note_on_c, 0, 62, 0
3, 221279, Note_on_c, 0, 55, 27
3, 221279, Note_on_c, 0, 59, 27
3, 221279, Note_on_c, 0, 62, 27
3, 221279, Note_on_c, 0, 67, 27
3, 221520, Note_on_c, 0, 67, 0
3, 221520, Note_on_c, 0, 59, 0
3, 221520, Note_on_c, 0, 55, 0
3, 221520, Note_on_c, 0, 62, 0
3, 221520, Note_on_c, 0, 55, 29
3, 221520, Note_on_c, 0, 59, 29
3, 221520, Note_on_c, 0, 62, 29
3, 221520, Note_on_c, 0, 67, 29
3, 221760, Note_on_c, 0, 67, 0
3, 221760, Note_on_c, 0, 59, 0
3, 221760, Note_on_c, 0, 55, 0
3, 221760, Note_on_c, 0, 62, 0
3, 221760, Note_on_c, 0, 55, 18
3, 221760, Note_on_c, 0, 61, 18
3, 221999, Note_on_c, 0, 61, 0
3, 221999, Note_on_c, 0, 55, 0
3, 221999, Note_on_c, 0, 55, 31
3, 221999, Note_on_c, 0, 57, 31
3, 221999, Note_on_c, 0, 61, 31
3, 221999, Note_on_c, 0, 67, 31
3, 222240, Note_on_c, 0, 67, 0
3, 222240, Note_on_c, 0, 57, 0
3, 222240, Note_on_c, 0, 55, 0
3, 222240, Note_on_c, 0, 61, 0
3, 222240, Note_on_c, 0, 55, 28
3, 222240, Note_on_c, 0, 57, 28
3, 222240, Note_on_c, 0, 61, 28
3, 222240, Note_on_c, 0, 67, 28
3, 222480, Note_on_c, 0, 67, 0
3, 222480, Note_on_c, 0, 57, 0
3, 222480, Note_on_c, 0, 55, 0
3, 222480, Note_on_c, 0, 61, 0
3, 222480, Note_on_c, 0, 55, 25
3, 222480, Note_on_c, 0, 57, 25
3, 222480, Note_on_c, 0, 61, 25
3, 222480, Note_on_c, 0, 67, 25
3, 222719, Note_on_c, 0, 67, 0
3, 222719, Note_on_c, 0, 57, 0
3, 222719, Note_on_c, 0, 55, 0
3, 222719, Note_on_c, 0, 61, 0
3, 222719, Note_on_c, 0, 55, 25
3, 222719, Note_on_c, 0, 57, 25
3, 222719, Note_on_c, 0, 61, 25
3, 222719, Note_on_c, 0, 67, 25
3, 222960, Note_on_c, 0, 67, 0
3, 222960, Note_on_c, 0, 57, 0
3, 222960, Note_on_c, 0, 55, 0
3, 222960, Note_on_c, 0, 61, 0
3, 222960, Note_on_c, 0, 55, 25
3, 222960, Note_on_c, 0, 57, 25
3, 222960, Note_on_c, 0, 61, 25
3, 222960, Note_on_c, 0, 67, 25
3, 223200, Note_on_c, 0, 67, 0
3, 223200, Note_on_c, 0, 57, 0
3, 223200, Note_on_c, 0, 55, 0
3, 223200, Note_on_c, 0, 61, 0
3, 223200, Note_on_c, 0, 55, 20
3, 223200, Note_on_c, 0, 59, 20
3, 223200, Note_on_c, 0, 66, 20
3, 223439, Note_on_c, 0, 66, 0
3, 223439, Note_on_c, 0, 55, 0
3, 223439, Note_on_c, 0, 59, 0
3, 223439, Note_on_c, 0, 55, 27
3, 223439, Note_on_c, 0, 59, 27
3, 223439, Note_on_c, 0, 66, 27
3, 223680, Note_on_c, 0, 66, 0
3, 223680, Note_on_c, 0, 55, 0
3, 223680, Note_on_c, 0, 59, 0
3, 223680, Note_on_c, 0, 55, 23
3, 223680, Note_on_c, 0, 59, 23
3, 223680, Note_on_c, 0, 66, 23
3, 223920, Note_on_c, 0, 66, 0
3, 223920, Note_on_c, 0, 55, 0
3, 223920, Note_on_c, 0, 59, 0
3, 223920, Note_on_c, 0, 55, 22
3, 223920, Note_on_c, 0, 59, 22
3, 223920, Note_on_c, 0, 64, 22
3, 224159, Note_on_c, 0, 64, 0
3, 224159, Note_on_c, 0, 55, 0
3, 224159, Note_on_c, 0, 59, 0
3, 224159, Note_on_c, 0, 55, 21
3, 224159, Note_on_c, 0, 59, 21
3, 224159, Note_on_c, 0, 64, 21
3, 224400, Note_on_c, 0, 64, 0
3, 224400, Note_on_c, 0, 55, 0
3, 224400, Note_on_c, 0, 59, 0
3, 224400, Note_on_c, 0, 55, 26
3, 224400, Note_on_c, 0, 59, 26
3, 224400, Note_on_c, 0, 64, 26
3, 224640, Note_on_c, 0, 64, 0
3, 224640, Note_on_c, 0, 38, 0
3, 224640, Note_on_c, 0, 52, 0
3, 224640, Note_on_c, 0, 45, 0
3, 224640, Note_on_c, 0, 59, 0
3, 224640, Note_on_c, 0, 55, 0
3, 224640, Note_on_c, 0, 55, 19
3, 224640, Note_on_c, 0, 61, 19
3, 224640, Note_on_c, 0, 52, 39
3, 224640, Note_on_c, 0, 38, 33
3, 224640, Note_on_c, 0, 45, 33
3, 224879, Note_on_c, 0, 61, 0
3, 224879, Note_on_c, 0, 55, 0
3, 224879, Note_on_c, 0, 55, 31
3, 224879, Note_on_c, 0, 61, 31
3, 224879, Note_on_c, 0, 64, 31
3, 225120, Note_on_c, 0, 64, 0
3, 225120, Note_on_c, 0, 55, 0
3, 225120, Note_on_c, 0, 61, 0
3, 225120, Note_on_c, 0, 55, 25
3, 225120, Note_on_c, 0, 61, 25
3, 225120, Note_on_c, 0, 64, 25
3, 225360, Note_on_c, 0, 64, 0
3, 225360, Note_on_c, 0, 55, 0
3, 225360, Note_on_c, 0, 61, 0
3, 225360, Note_on_c, 0, 55, 25
3, 225360, Note_on_c, 0, 61, 25
3, 225360, Note_on_c, 0, 64, 25
3, 225599, Note_on_c, 0, 64, 0
3, 225599, Note_on_c, 0, 55, 0
3, 225599, Note_on_c, 0, 61, 0
3, 225599, Note_on_c, 0, 55, 27
3, 225599, Note_on_c, 0, 61, 27
3, 225599, Note_on_c, 0, 64, 27
3, 225840, Note_on_c, 0, 64, 0
3, 225840, Note_on_c, 0, 55, 0
3, 225840, Note_on_c, 0, 61, 0
3, 225840, Note_on_c, 0, 55, 26
3, 225840, Note_on_c, 0, 61, 26
3, 225840, Note_on_c, 0, 64, 26
3, 226080, Note_on_c, 0, 64, 0
3, 226080, Note_on_c, 0, 55, 0
3, 226080, Note_on_c, 0, 52, 0
3, 226080, Note_on_c, 0, 61, 0
3, 226080, Note_on_c, 0, 55, 19
3, 226080, Note_on_c, 0, 60, 19
3, 226080, Note_on_c, 0, 51, 33
3, 226319, Note_on_c, 0, 60, 0
3, 226319, Note_on_c, 0, 55, 0
3, 226319, Note_on_c, 0, 55, 31
3, 226319, Note_on_c, 0, 60, 31
3, 226319, Note_on_c, 0, 63, 31
3, 226560, Note_on_c, 0, 63, 0
3, 226560, Note_on_c, 0, 55, 0
3, 226560, Note_on_c, 0, 60, 0
3, 226560, Note_on_c, 0, 55, 27
3, 226560, Note_on_c, 0, 60, 27
3, 226560, Note_on_c, 0, 63, 27
3, 226800, Note_on_c, 0, 63, 0
3, 226800, Note_on_c, 0, 55, 0
3, 226800, Note_on_c, 0, 60, 0
3, 226800, Note_on_c, 0, 55, 27
3, 226800, Note_on_c, 0, 60, 27
3, 226800, Note_on_c, 0, 63, 27
3, 227039, Note_on_c, 0, 63, 0
3, 227039, Note_on_c, 0, 55, 0
3, 227039, Note_on_c, 0, 60, 0
3, 227039, Note_on_c, 0, 55, 25
3, 227039, Note_on_c, 0, 60, 25
3, 227039, Note_on_c, 0, 63, 25
3, 227280, Note_on_c, 0, 63, 0
3, 227280, Note_on_c, 0, 55, 0
3, 227280, Note_on_c, 0, 60, 0
3, 227280, Note_on_c, 0, 55, 27
3, 227280, Note_on_c, 0, 60, 27
3, 227280, Note_on_c, 0, 63, 27
3, 227520, Note_on_c, 0, 63, 0
3, 227520, Note_on_c, 0, 55, 0
3, 227520, Note_on_c, 0, 51, 0
3, 227520, Note_on_c, 0, 60, 0
3, 227520, Note_on_c, 0, 55, 26
3, 227520, Note_on_c, 0, 59, 26
3, 227520, Note_on_c, 0, 50, 38
3, 227759, Note_on_c, 0, 59, 0
3, 227759, Note_on_c, 0, 55, 0
3, 227759, Note_on_c, 0, 55, 29
3, 227759, Note_on_c, 0, 59, 29
3, 227759, Note_on_c, 0, 62, 29
3, 228000, Note_on_c, 0, 62, 0
3, 228000, Note_on_c, 0, 55, 0
3, 228000, Note_on_c, 0, 59, 0
3, 228000, Note_on_c, 0, 55, 19
3, 228000, Note_on_c, 0, 59, 19
3, 228000, Note_on_c, 0, 62, 19
3, 228240, Note_on_c, 0, 62, 0
3, 228240, Note_on_c, 0, 55, 0
3, 228240, Note_on_c, 0, 59, 0
3, 228240, Note_on_c, 0, 55, 27
3, 228240, Note_on_c, 0, 59, 27
3, 228240, Note_on_c, 0, 62, 27
3, 228479, Note_on_c, 0, 62, 0
3, 228479, Note_on_c, 0, 55, 0
3, 228479, Note_on_c, 0, 59, 0
3, 228479, Note_on_c, 0, 55, 27
3, 228479, Note_on_c, 0, 59, 27
3, 228479, Note_on_c, 0, 62, 27
3, 228720, Note_on_c, 0, 62, 0
3, 228720, Note_on_c, 0, 55, 0
3, 228720, Note_on_c, 0, 59, 0
3, 228720, Note_on_c, 0, 55, 24
3, 228720, Note_on_c, 0, 59, 24
3, 228720, Note_on_c, 0, 62, 24
3, 228960, Note_on_c, 0, 62, 0
3, 228960, Note_on_c, 0, 45, 0
3, 228960, Note_on_c, 0, 50, 0
3, 228960, Note_on_c, 0, 38, 0
3, 228960, Note_on_c, 0, 59, 0
3, 228960, Note_on_c, 0, 55, 0
3, 228960, Note_on_c, 0, 49, 22
3, 228960, Note_on_c, 0, 57, 22
3, 228960, Note_on_c, 0, 61, 22
3, 228960, Note_on_c, 0, 31, 29
3, 228960, Note_on_c, 0, 43, 29
3, 229199, Note_on_c, 0, 61, 0
3, 229199, Note_on_c, 0, 49, 0
3, 229199, Note_on_c, 0, 57, 0
3, 229199, Note_on_c, 0, 49, 22
3, 229199, Note_on_c, 0, 52, 22
3, 229440, Note_on_c, 0, 52, 0
3, 229440, Note_on_c, 0, 49, 0
3, 229440, Note_on_c, 0, 49, 23
3, 229440, Note_on_c, 0, 52, 23
3, 229680, Note_on_c, 0, 52, 0
3, 229680, Note_on_c, 0, 49, 0
3, 229680, Note_on_c, 0, 49, 25
3, 229680, Note_on_c, 0, 52, 25
3, 229680, Note_on_c, 0, 57, 25
3, 229919, Note_on_c, 0, 57, 0
3, 229919, Note_on_c, 0, 49, 0
3, 229919, Note_on_c, 0, 52, 0
3, 229919, Note_on_c, 0, 49, 25
3, 229919, Note_on_c, 0, 52, 25
3, 229919, Note_on_c, 0, 57, 25
3, 230160, Note_on_c, 0, 57, 0
3, 230160, Note_on_c, 0, 49, 0
3, 230160, Note_on_c, 0, 52, 0
3, 230160, Note_on_c, 0, 49, 28
3, 230160, Note_on_c, 0, 52, 28
3, 230160, Note_on_c, 0, 57, 28
3, 230400, Note_on_c, 0, 52, 0
3, 230400, Note_on_c, 0, 31, 0
3, 230400, Note_on_c, 0, 43, 0
3, 230400, Note_on_c, 0, 54, 25
3, 230400, Note_on_c, 0, 30, 36
3, 230400, Note_on_c, 0, 42, 36
3, 230639, Note_on_c, 0, 54, 0
3, 230639, Note_on_c, 0, 57, 0
3, 230639, Note_on_c, 0, 49, 0
3, 230639, Note_on_c, 0, 49, 19
3, 230639, Note_on_c, 0, 54, 19
3, 230639, Note_on_c, 0, 57, 19
3, 230880, Note_on_c, 0, 57, 0
3, 230880, Note_on_c, 0, 49, 0
3, 230880, Note_on_c, 0, 54, 0
3, 230880, Note_on_c, 0, 49, 25
3, 230880, Note_on_c, 0, 54, 25
3, 230880, Note_on_c, 0, 57, 25
3, 231120, Note_on_c, 0, 57, 0
3, 231120, Note_on_c, 0, 49, 0
3, 231120, Note_on_c, 0, 54, 0
3, 231120, Note_on_c, 0, 49, 28
3, 231120, Note_on_c, 0, 54, 28
3, 231120, Note_on_c, 0, 57, 28
3, 231359, Note_on_c, 0, 57, 0
3, 231359, Note_on_c, 0, 49, 0
3, 231359, Note_on_c, 0, 54, 0
3, 231359, Note_on_c, 0, 49, 25
3, 231359, Note_on_c, 0, 54, 25
3, 231359, Note_on_c, 0, 57, 25
3, 231600, Note_on_c, 0, 57, 0
3, 231600, Note_on_c, 0, 49, 0
3, 231600, Note_on_c, 0, 54, 0
3, 231600, Note_on_c, 0, 49, 26
3, 231600, Note_on_c, 0, 54, 26
3, 231600, Note_on_c, 0, 57, 26
3, 231840, Note_on_c, 0, 54, 0
3, 231840, Note_on_c, 0, 30, 0
3, 231840, Note_on_c, 0, 42, 0
3, 231840, Note_on_c, 0, 55, 25
3, 231840, Note_on_c, 0, 28, 32
3, 231840, Note_on_c, 0, 40, 32
3, 232079, Note_on_c, 0, 55, 0
3, 232079, Note_on_c, 0, 57, 0
3, 232079, Note_on_c, 0, 49, 0
3, 232079, Note_on_c, 0, 49, 27
3, 232079, Note_on_c, 0, 55, 27
3, 232079, Note_on_c, 0, 57, 27
3, 232320, Note_on_c, 0, 57, 0
3, 232320, Note_on_c, 0, 49, 0
3, 232320, Note_on_c, 0, 55, 0
3, 232320, Note_on_c, 0, 49, 22
3, 232320, Note_on_c, 0, 55, 22
3, 232320, Note_on_c, 0, 57, 22
3, 232560, Note_on_c, 0, 57, 0
3, 232560, Note_on_c, 0, 49, 0
3, 232560, Note_on_c, 0, 55, 0
3, 232560, Note_on_c, 0, 49, 25
3, 232560, Note_on_c, 0, 55, 25
3, 232560, Note_on_c, 0, 57, 25
3, 232799, Note_on_c, 0, 57, 0
3, 232799, Note_on_c, 0, 49, 0
3, 232799, Note_on_c, 0, 55, 0
3, 232799, Note_on_c, 0, 49, 22
3, 232799, Note_on_c, 0, 55, 22
3, 232799, Note_on_c, 0, 57, 22
3, 233040, Note_on_c, 0, 57, 0
3, 233040, Note_on_c, 0, 49, 0
3, 233040, Note_on_c, 0, 55, 0
3, 233040, Note_on_c, 0, 49, 24
3, 233040, Note_on_c, 0, 55, 24
3, 233040, Note_on_c, 0, 57, 24
3, 233280, Note_on_c, 0, 55, 0
3, 233280, Note_on_c, 0, 28, 0
3, 233280, Note_on_c, 0, 40, 0
3, 233280, Note_on_c, 0, 54, 24
3, 233280, Note_on_c, 0, 30, 36
3, 233280, Note_on_c, 0, 42, 36
3, 233519, Note_on_c, 0, 54, 0
3, 233519, Note_on_c, 0, 57, 0
3, 233519, Note_on_c, 0, 49, 0
3, 233519, Note_on_c, 0, 49, 25
3, 233519, Note_on_c, 0, 54, 25
3, 233519, Note_on_c, 0, 57, 25
3, 233760, Note_on_c, 0, 57, 0
3, 233760, Note_on_c, 0, 49, 0
3, 233760, Note_on_c, 0, 54, 0
3, 233760, Note_on_c, 0, 49, 22
3, 233760, Note_on_c, 0, 54, 22
3, 233760, Note_on_c, 0, 57, 22
3, 234000, Note_on_c, 0, 57, 0
3, 234000, Note_on_c, 0, 49, 0
3, 234000, Note_on_c, 0, 54, 0
3, 234000, Note_on_c, 0, 49, 28
3, 234000, Note_on_c, 0, 54, 28
3, 234000, Note_on_c, 0, 57, 28
3, 234239, Note_on_c, 0, 57, 0
3, 234239, Note_on_c, 0, 49, 0
3, 234239, Note_on_c, 0, 54, 0
3, 234239, Note_on_c, 0, 49, 23
3, 234239, Note_on_c, 0, 54, 23
3, 234239, Note_on_c, 0, 57, 23
3, 234480, Note_on_c, 0, 57, 0
3, 234480, Note_on_c, 0, 49, 0
3, 234480, Note_on_c, 0, 54, 0
3, 234480, Note_on_c, 0, 49, 26
3, 234480, Note_on_c, 0, 54, 26
3, 234480, Note_on_c, 0, 57, 26
3, 234720, Note_on_c, 0, 54, 0
3, 234720, Note_on_c, 0, 30, 0
3, 234720, Note_on_c, 0, 42, 0
3, 234720, Note_on_c, 0, 52, 27
3, 234720, Note_on_c, 0, 31, 36
3, 234720, Note_on_c, 0, 43, 36
3, 234959, Note_on_c, 0, 52, 0
3, 234959, Note_on_c, 0, 57, 0
3, 234959, Note_on_c, 0, 49, 0
3, 234959, Note_on_c, 0, 49, 21
3, 234959, Note_on_c, 0, 52, 21
3, 235200, Note_on_c, 0, 52, 0
3, 235200, Note_on_c, 0, 49, 0
3, 235200, Note_on_c, 0, 49, 27
3, 235200, Note_on_c, 0, 52, 27
3, 235440, Note_on_c, 0, 52, 0
3, 235440, Note_on_c, 0, 43, 0
3, 235440, Note_on_c, 0, 31, 0
3, 235440, Note_on_c, 0, 49, 0
3, 235440, Note_on_c, 0, 49, 26
3, 235440, Note_on_c, 0, 52, 26
3, 235440, Note_on_c, 0, 43, 35
3, 235679, Note_on_c, 0, 52, 0
3, 235679, Note_on_c, 0, 49, 0
3, 235679, Note_on_c, 0, 49, 30
3, 235679, Note_on_c, 0, 52, 30
3, 235679, Note_on_c, 0, 57, 30
3, 235920, Note_on_c, 0, 57, 0
3, 235920, Note_on_c, 0, 52, 0
3, 235920, Note_on_c, 0, 49, 0
3, 235920, Note_on_c, 0, 49, 29
3, 235920, Note_on_c, 0, 52, 29
3, 235920, Note_on_c, 0, 57, 29
3, 236160, Note_on_c, 0, 52, 0
3, 236160, Note_on_c, 0, 43, 0
3, 236160, Note_on_c, 0, 54, 27
3, 236160, Note_on_c, 0, 42, 37
3, 236399, Note_on_c, 0, 54, 0
3, 236399, Note_on_c, 0, 57, 0
3, 236399, Note_on_c, 0, 49, 0
3, 236399, Note_on_c, 0, 49, 29
3, 236399, Note_on_c, 0, 54, 29
3, 236399, Note_on_c, 0, 57, 29
3, 236640, Note_on_c, 0, 57, 0
3, 236640, Note_on_c, 0, 54, 0
3, 236640, Note_on_c, 0, 49, 0
3, 236640, Note_on_c, 0, 49, 23
3, 236640, Note_on_c, 0, 54, 23
3, 236640, Note_on_c, 0, 57, 23
3, 236880, Note_on_c, 0, 57, 0
3, 236880, Note_on_c, 0, 54, 0
3, 236880, Note_on_c, 0, 49, 0
3, 236880, Note_on_c, 0, 49, 22
3, 236880, Note_on_c, 0, 54, 22
3, 236880, Note_on_c, 0, 57, 22
3, 237119, Note_on_c, 0, 57, 0
3, 237119, Note_on_c, 0, 54, 0
3, 237119, Note_on_c, 0, 49, 0
3, 237119, Note_on_c, 0, 49, 25
3, 237119, Note_on_c, 0, 54, 25
3, 237119, Note_on_c, 0, 57, 25
3, 237360, Note_on_c, 0, 57, 0
3, 237360, Note_on_c, 0, 54, 0
3, 237360, Note_on_c, 0, 49, 0
3, 237360, Note_on_c, 0, 49, 26
3, 237360, Note_on_c, 0, 54, 26
3, 237360, Note_on_c, 0, 57, 26
3, 237600, Note_on_c, 0, 54, 0
3, 237600, Note_on_c, 0, 42, 0
3, 237600, Note_on_c, 0, 55, 24
3, 237600, Note_on_c, 0, 40, 34
3, 237839, Note_on_c, 0, 55, 0
3, 237839, Note_on_c, 0, 57, 0
3, 237839, Note_on_c, 0, 49, 0
3, 237839, Note_on_c, 0, 49, 23
3, 237839, Note_on_c, 0, 55, 23
3, 237839, Note_on_c, 0, 57, 23
3, 238080, Note_on_c, 0, 57, 0
3, 238080, Note_on_c, 0, 55, 0
3, 238080, Note_on_c, 0, 49, 0
3, 238080, Note_on_c, 0, 49, 26
3, 238080, Note_on_c, 0, 55, 26
3, 238080, Note_on_c, 0, 57, 26
3, 238320, Note_on_c, 0, 57, 0
3, 238320, Note_on_c, 0, 55, 0
3, 238320, Note_on_c, 0, 49, 0
3, 238320, Note_on_c, 0, 49, 25
3, 238320, Note_on_c, 0, 55, 25
3, 238320, Note_on_c, 0, 57, 25
3, 238559, Note_on_c, 0, 57, 0
3, 238559, Note_on_c, 0, 55, 0
3, 238559, Note_on_c, 0, 49, 0
3, 238559, Note_on_c, 0, 49, 30
3, 238559, Note_on_c, 0, 55, 30
3, 238559, Note_on_c, 0, 57, 30
3, 238800, Note_on_c, 0, 57, 0
3, 238800, Note_on_c, 0, 55, 0
3, 238800, Note_on_c, 0, 49, 0
3, 238800, Note_on_c, 0, 49, 25
3, 238800, Note_on_c, 0, 55, 25
3, 238800, Note_on_c, 0, 57, 25
3, 239040, Note_on_c, 0, 55, 0
3, 239040, Note_on_c, 0, 40, 0
3, 239040, Note_on_c, 0, 54, 26
3, 239040, Note_on_c, 0, 39, 37
3, 239279, Note_on_c, 0, 54, 0
3, 239279, Note_on_c, 0, 57, 0
3, 239279, Note_on_c, 0, 49, 0
3, 239279, Note_on_c, 0, 49, 26
3, 239279, Note_on_c, 0, 54, 26
3, 239279, Note_on_c, 0, 57, 26
3, 239520, Note_on_c, 0, 57, 0
3, 239520, Note_on_c, 0, 54, 0
3, 239520, Note_on_c, 0, 49, 0
3, 239520, Note_on_c, 0, 49, 27
3, 239520, Note_on_c, 0, 54, 27
3, 239520, Note_on_c, 0, 57, 27
3, 239760, Note_on_c, 0, 57, 0
3, 239760, Note_on_c, 0, 54, 0
3, 239760, Note_on_c, 0, 49, 0
3, 239760, Note_on_c, 0, 49, 24
3, 239760, Note_on_c, 0, 54, 24
3, 239760, Note_on_c, 0, 57, 24
3, 239999, Note_on_c, 0, 57, 0
3, 239999, Note_on_c, 0, 54, 0
3, 239999, Note_on_c, 0, 49, 0
3, 239999, Note_on_c, 0, 49, 22
3, 239999, Note_on_c, 0, 54, 22
3, 239999, Note_on_c, 0, 57, 22
3, 240240, Note_on_c, 0, 57, 0
3, 240240, Note_on_c, 0, 54, 0
3, 240240, Note_on_c, 0, 49, 0
3, 240240, Note_on_c, 0, 49, 24
3, 240240, Note_on_c, 0, 54, 24
3, 240240, Note_on_c, 0, 57, 24
3, 240480, Note_on_c, 0, 57, 0
3, 240480, Note_on_c, 0, 39, 0
3, 240480, Note_on_c, 0, 49, 0
3, 240480, Note_on_c, 0, 54, 0
3, 240480, Note_on_c, 0, 54, 25
3, 240480, Note_on_c, 0, 57, 25
3, 240480, Note_on_c, 0, 50, 17
3, 240480, Note_on_c, 0, 38, 32
3, 240719, Note_on_c, 0, 57, 0
3, 240719, Note_on_c, 0, 54, 0
3, 240719, Note_on_c, 0, 54, 29
3, 240719, Note_on_c, 0, 57, 29
3, 240719, Note_on_c, 0, 62, 29
3, 240960, Note_on_c, 0, 62, 0
3, 240960, Note_on_c, 0, 54, 0
3, 240960, Note_on_c, 0, 57, 0
3, 240960, Note_on_c, 0, 54, 28
3, 240960, Note_on_c, 0, 57, 28
3, 240960, Note_on_c, 0, 62, 28
3, 241200, Note_on_c, 0, 62, 0
3, 241200, Note_on_c, 0, 54, 0
3, 241200, Note_on_c, 0, 57, 0
3, 241200, Note_on_c, 0, 38, 0
3, 241200, Note_on_c, 0, 54, 24
3, 241200, Note_on_c, 0, 57, 24
3, 241200, Note_on_c, 0, 62, 24
3, 241200, Note_on_c, 0, 36, 47
3, 241200, Note_on_c, 0, 48, 47
3, 241439, Note_on_c, 0, 62, 0
3, 241439, Note_on_c, 0, 57, 0
3, 241439, Note_on_c, 0, 54, 0
3, 241439, Note_on_c, 0, 54, 28
3, 241439, Note_on_c, 0, 57, 28
3, 241439, Note_on_c, 0, 62, 28
3, 241680, Note_on_c, 0, 62, 0
3, 241680, Note_on_c, 0, 54, 0
3, 241680, Note_on_c, 0, 57, 0
3, 241680, Note_on_c, 0, 54, 22
3, 241680, Note_on_c, 0, 57, 22
3, 241920, Note_on_c, 0, 57, 0
3, 241920, Note_on_c, 0, 36, 0
3, 241920, Note_on_c, 0, 54, 0
3, 241920, Note_on_c, 0, 48, 0
3, 241920, Note_on_c, 0, 54, 32
3, 241920, Note_on_c, 0, 59, 32
3, 241920, Note_on_c, 0, 62, 32
3, 241920, Note_on_c, 0, 35, 34
3, 241920, Note_on_c, 0, 47, 34
3, 242159, Note_on_c, 0, 62, 0
3, 242159, Note_on_c, 0, 59, 0
3, 242159, Note_on_c, 0, 54, 0
3, 242159, Note_on_c, 0, 54, 27
3, 242159, Note_on_c, 0, 59, 27
3, 242159, Note_on_c, 0, 62, 27
3, 242400, Note_on_c, 0, 62, 0
3, 242400, Note_on_c, 0, 54, 0
3, 242400, Note_on_c, 0, 59, 0
3, 242400, Note_on_c, 0, 54, 23
3, 242400, Note_on_c, 0, 59, 23
3, 242400, Note_on_c, 0, 62, 23
3, 242640, Note_on_c, 0, 62, 0
3, 242640, Note_on_c, 0, 54, 0
3, 242640, Note_on_c, 0, 59, 0
3, 242640, Note_on_c, 0, 54, 26
3, 242640, Note_on_c, 0, 59, 26
3, 242640, Note_on_c, 0, 62, 26
3, 242879, Note_on_c, 0, 62, 0
3, 242879, Note_on_c, 0, 54, 0
3, 242879, Note_on_c, 0, 59, 0
3, 242879, Note_on_c, 0, 54, 25
3, 242879, Note_on_c, 0, 59, 25
3, 242879, Note_on_c, 0, 62, 25
3, 243120, Note_on_c, 0, 62, 0
3, 243120, Note_on_c, 0, 54, 0
3, 243120, Note_on_c, 0, 59, 0
3, 243120, Note_on_c, 0, 54, 22
3, 243120, Note_on_c, 0, 59, 22
3, 243120, Note_on_c, 0, 62, 22
3, 243360, Note_on_c, 0, 59, 0
3, 243360, Note_on_c, 0, 47, 0
3, 243360, Note_on_c, 0, 35, 0
3, 243360, Note_on_c, 0, 60, 32
3, 243360, Note_on_c, 0, 33, 33
3, 243360, Note_on_c, 0, 45, 33
3, 243599, Note_on_c, 0, 60, 0
3, 243599, Note_on_c, 0, 62, 0
3, 243599, Note_on_c, 0, 54, 0
3, 243599, Note_on_c, 0, 54, 23
3, 243599, Note_on_c, 0, 60, 23
3, 243599, Note_on_c, 0, 62, 23
3, 243840, Note_on_c, 0, 62, 0
3, 243840, Note_on_c, 0, 54, 0
3, 243840, Note_on_c, 0, 60, 0
3, 243840, Note_on_c, 0, 54, 29
3, 243840, Note_on_c, 0, 60, 29
3, 243840, Note_on_c, 0, 62, 29
3, 244080, Note_on_c, 0, 62, 0
3, 244080, Note_on_c, 0, 54, 0
3, 244080, Note_on_c, 0, 60, 0
3, 244080, Note_on_c, 0, 54, 24
3, 244080, Note_on_c, 0, 60, 24
3, 244080, Note_on_c, 0, 62, 24
3, 244319, Note_on_c, 0, 62, 0
3, 244319, Note_on_c, 0, 54, 0
3, 244319, Note_on_c, 0, 60, 0
3, 244319, Note_on_c, 0, 54, 23
3, 244319, Note_on_c, 0, 60, 23
3, 244319, Note_on_c, 0, 62, 23
3, 244560, Note_on_c, 0, 62, 0
3, 244560, Note_on_c, 0, 54, 0
3, 244560, Note_on_c, 0, 60, 0
3, 244560, Note_on_c, 0, 54, 27
3, 244560, Note_on_c, 0, 60, 27
3, 244560, Note_on_c, 0, 62, 27
3, 244800, Note_on_c, 0, 60, 0
3, 244800, Note_on_c, 0, 45, 0
3, 244800, Note_on_c, 0, 33, 0
3, 244800, Note_on_c, 0, 59, 25
3, 244800, Note_on_c, 0, 35, 37
3, 244800, Note_on_c, 0, 47, 37
3, 245039, Note_on_c, 0, 59, 0
3, 245039, Note_on_c, 0, 62, 0
3, 245039, Note_on_c, 0, 54, 0
3, 245039, Note_on_c, 0, 54, 21
3, 245039, Note_on_c, 0, 59, 21
3, 245039, Note_on_c, 0, 62, 21
3, 245280, Note_on_c, 0, 62, 0
3, 245280, Note_on_c, 0, 54, 0
3, 245280, Note_on_c, 0, 59, 0
3, 245280, Note_on_c, 0, 54, 23
3, 245280, Note_on_c, 0, 59, 23
3, 245280, Note_on_c, 0, 62, 23
3, 245520, Note_on_c, 0, 62, 0
3, 245520, Note_on_c, 0, 54, 0
3, 245520, Note_on_c, 0, 59, 0
3, 245520, Note_on_c, 0, 54, 28
3, 245520, Note_on_c, 0, 59, 28
3, 245520, Note_on_c, 0, 62, 28
3, 245759, Note_on_c, 0, 62, 0
3, 245759, Note_on_c, 0, 54, 0
3, 245759, Note_on_c, 0, 59, 0
3, 245759, Note_on_c, 0, 54, 28
3, 245759, Note_on_c, 0, 59, 28
3, 245759, Note_on_c, 0, 62, 28
3, 246000, Note_on_c, 0, 62, 0
3, 246000, Note_on_c, 0, 54, 0
3, 246000, Note_on_c, 0, 59, 0
3, 246000, Note_on_c, 0, 54, 25
3, 246000, Note_on_c, 0, 59, 25
3, 246000, Note_on_c, 0, 62, 25
3, 246240, Note_on_c, 0, 62, 0
3, 246240, Note_on_c, 0, 50, 0
3, 246240, Note_on_c, 0, 47, 0
3, 246240, Note_on_c, 0, 35, 0
3, 246240, Note_on_c, 0, 59, 0
3, 246240, Note_on_c, 0, 54, 0
3, 246240, Note_on_c, 0, 54, 25
3, 246240, Note_on_c, 0, 57, 25
3, 246240, Note_on_c, 0, 62, 25
3, 246240, Note_on_c, 0, 36, 37
3, 246240, Note_on_c, 0, 48, 37
3, 246479, Note_on_c, 0, 62, 0
3, 246479, Note_on_c, 0, 54, 0
3, 246479, Note_on_c, 0, 57, 0
3, 246479, Note_on_c, 0, 54, 21
3, 246479, Note_on_c, 0, 57, 21
3, 246720, Note_on_c, 0, 57, 0
3, 246720, Note_on_c, 0, 54, 0
3, 246720, Note_on_c, 0, 54, 22
3, 246720, Note_on_c, 0, 57, 22
3, 246960, Note_on_c, 0, 57, 0
3, 246960, Note_on_c, 0, 54, 0
3, 246960, Note_on_c, 0, 54, 32
3, 246960, Note_on_c, 0, 57, 32
3, 246960, Note_on_c, 0, 62, 32
3, 247199, Note_on_c, 0, 62, 0
3, 247199, Note_on_c, 0, 54, 0
3, 247199, Note_on_c, 0, 57, 0
3, 247199, Note_on_c, 0, 54, 29
3, 247199, Note_on_c, 0, 57, 29
3, 247199, Note_on_c, 0, 62, 29
3, 247440, Note_on_c, 0, 62, 0
3, 247440, Note_on_c, 0, 54, 0
3, 247440, Note_on_c, 0, 57, 0
3, 247440, Note_on_c, 0, 54, 28
3, 247440, Note_on_c, 0, 57, 28
3, 247440, Note_on_c, 0, 62, 28
3, 247680, Note_on_c, 0, 57, 0
3, 247680, Note_on_c, 0, 36, 0
3, 247680, Note_on_c, 0, 48, 0
3, 247680, Note_on_c, 0, 59, 24
3, 247680, Note_on_c, 0, 35, 33
3, 247680, Note_on_c, 0, 47, 33
3, 247919, Note_on_c, 0, 59, 0
3, 247919, Note_on_c, 0, 62, 0
3, 247919, Note_on_c, 0, 54, 0
3, 247919, Note_on_c, 0, 54, 30
3, 247919, Note_on_c, 0, 59, 30
3, 247919, Note_on_c, 0, 62, 30
3, 248160, Note_on_c, 0, 62, 0
3, 248160, Note_on_c, 0, 54, 0
3, 248160, Note_on_c, 0, 59, 0
3, 248160, Note_on_c, 0, 54, 22
3, 248160, Note_on_c, 0, 59, 22
3, 248160, Note_on_c, 0, 62, 22
3, 248400, Note_on_c, 0, 62, 0
3, 248400, Note_on_c, 0, 54, 0
3, 248400, Note_on_c, 0, 59, 0
3, 248400, Note_on_c, 0, 54, 25
3, 248400, Note_on_c, 0, 59, 25
3, 248400, Note_on_c, 0, 62, 25
3, 248639, Note_on_c, 0, 62, 0
3, 248639, Note_on_c, 0, 54, 0
3, 248639, Note_on_c, 0, 59, 0
3, 248639, Note_on_c, 0, 54, 19
3, 248639, Note_on_c, 0, 59, 19
3, 248639, Note_on_c, 0, 62, 19
3, 248880, Note_on_c, 0, 62, 0
3, 248880, Note_on_c, 0, 54, 0
3, 248880, Note_on_c, 0, 59, 0
3, 248880, Note_on_c, 0, 54, 24
3, 248880, Note_on_c, 0, 59, 24
3, 248880, Note_on_c, 0, 62, 24
3, 249120, Note_on_c, 0, 59, 0
3, 249120, Note_on_c, 0, 35, 0
3, 249120, Note_on_c, 0, 47, 0
3, 249120, Note_on_c, 0, 60, 22
3, 249120, Note_on_c, 0, 33, 35
3, 249120, Note_on_c, 0, 45, 35
3, 249359, Note_on_c, 0, 60, 0
3, 249359, Note_on_c, 0, 62, 0
3, 249359, Note_on_c, 0, 54, 0
3, 249359, Note_on_c, 0, 54, 24
3, 249359, Note_on_c, 0, 60, 24
3, 249359, Note_on_c, 0, 62, 24
3, 249600, Note_on_c, 0, 62, 0
3, 249600, Note_on_c, 0, 54, 0
3, 249600, Note_on_c, 0, 60, 0
3, 249600, Note_on_c, 0, 54, 25
3, 249600, Note_on_c, 0, 60, 25
3, 249600, Note_on_c, 0, 62, 25
3, 249840, Note_on_c, 0, 62, 0
3, 249840, Note_on_c, 0, 54, 0
3, 249840, Note_on_c, 0, 60, 0
3, 249840, Note_on_c, 0, 54, 26
3, 249840, Note_on_c, 0, 60, 26
3, 249840, Note_on_c, 0, 62, 26
3, 250079, Note_on_c, 0, 62, 0
3, 250079, Note_on_c, 0, 54, 0
3, 250079, Note_on_c, 0, 60, 0
3, 250079, Note_on_c, 0, 54, 28
3, 250079, Note_on_c, 0, 60, 28
3, 250079, Note_on_c, 0, 62, 28
3, 250320, Note_on_c, 0, 62, 0
3, 250320, Note_on_c, 0, 54, 0
3, 250320, Note_on_c, 0, 60, 0
3, 250320, Note_on_c, 0, 54, 27
3, 250320, Note_on_c, 0, 60, 27
3, 250320, Note_on_c, 0, 62, 27
3, 250560, Note_on_c, 0, 33, 0
3, 250560, Note_on_c, 0, 45, 0
3, 250560, Note_on_c, 0, 32, 36
3, 250560, Note_on_c, 0, 44, 36
3, 250799, Note_on_c, 0, 60, 0
3, 250799, Note_on_c, 0, 62, 0
3, 250799, Note_on_c, 0, 54, 0
3, 250799, Note_on_c, 0, 54, 22
3, 250799, Note_on_c, 0, 60, 22
3, 250799, Note_on_c, 0, 62, 22
3, 251040, Note_on_c, 0, 62, 0
3, 251040, Note_on_c, 0, 54, 0
3, 251040, Note_on_c, 0, 60, 0
3, 251040, Note_on_c, 0, 54, 28
3, 251040, Note_on_c, 0, 60, 28
3, 251040, Note_on_c, 0, 62, 28
3, 251280, Note_on_c, 0, 62, 0
3, 251280, Note_on_c, 0, 54, 0
3, 251280, Note_on_c, 0, 60, 0
3, 251280, Note_on_c, 0, 54, 21
3, 251280, Note_on_c, 0, 60, 21
3, 251280, Note_on_c, 0, 62, 21
3, 251519, Note_on_c, 0, 62, 0
3, 251519, Note_on_c, 0, 54, 0
3, 251519, Note_on_c, 0, 60, 0
3, 251519, Note_on_c, 0, 54, 26
3, 251519, Note_on_c, 0, 60, 26
3, 251519, Note_on_c, 0, 62, 26
3, 251760, Note_on_c, 0, 62, 0
3, 251760, Note_on_c, 0, 54, 0
3, 251760, Note_on_c, 0, 60, 0
3, 251760, Note_on_c, 0, 54, 24
3, 251760, Note_on_c, 0, 60, 24
3, 251760, Note_on_c, 0, 62, 24
3, 252000, Note_on_c, 0, 62, 0
3, 252000, Note_on_c, 0, 54, 0
3, 252000, Note_on_c, 0, 44, 0
3, 252000, Note_on_c, 0, 32, 0
3, 252000, Note_on_c, 0, 60, 0
3, 252000, Note_on_c, 0, 50, 26
3, 252000, Note_on_c, 0, 55, 26
3, 252000, Note_on_c, 0, 59, 26
3, 252000, Note_on_c, 0, 62, 26
3, 252000, Note_on_c, 0, 43, 37
3, 252000, Note_on_c, 0, 31, 28
3, 252239, Note_on_c, 0, 62, 0
3, 252239, Note_on_c, 0, 59, 0
3, 252239, Note_on_c, 0, 50, 0
3, 252239, Note_on_c, 0, 55, 0
3, 252239, Note_on_c, 0, 50, 23
3, 252239, Note_on_c, 0, 55, 23
3, 252239, Note_on_c, 0, 59, 23
3, 252360, Note_on_c, 0, 31, 0
3, 252480, Note_on_c, 0, 55, 0
3, 252480, Note_on_c, 0, 59, 0
3, 252480, Note_on_c, 0, 50, 0
3, 252480, Note_on_c, 0, 50, 28
3, 252480, Note_on_c, 0, 55, 28
3, 252480, Note_on_c, 0, 59, 28
3, 252720, Note_on_c, 0, 59, 0
3, 252720, Note_on_c, 0, 55, 0
3, 252720, Note_on_c, 0, 50, 0
3, 252720, Note_on_c, 0, 50, 25
3, 252720, Note_on_c, 0, 55, 25
3, 252720, Note_on_c, 0, 59, 25
3, 252959, Note_on_c, 0, 59, 0
3, 252959, Note_on_c, 0, 55, 0
3, 252959, Note_on_c, 0, 50, 0
3, 252959, Note_on_c, 0, 50, 24
3, 252959, Note_on_c, 0, 55, 24
3, 252959, Note_on_c, 0, 59, 24
3, 253200, Note_on_c, 0, 59, 0
3, 253200, Note_on_c, 0, 55, 0
3, 253200, Note_on_c, 0, 50, 0
3, 253200, Note_on_c, 0, 50, 21
3, 253200, Note_on_c, 0, 55, 21
3, 253200, Note_on_c, 0, 59, 21
3, 253440, Note_on_c, 0, 50, 0
3, 253440, Note_on_c, 0, 52, 23
3, 253440, Note_on_c, 0, 61, 23
3, 253679, Note_on_c, 0, 61, 0
3, 253679, Note_on_c, 0, 59, 0
3, 253679, Note_on_c, 0, 52, 0
3, 253679, Note_on_c, 0, 55, 0
3, 253679, Note_on_c, 0, 52, 26
3, 253679, Note_on_c, 0, 55, 26
3, 253679, Note_on_c, 0, 59, 26
3, 253679, Note_on_c, 0, 61, 26
3, 253920, Note_on_c, 0, 61, 0
3, 253920, Note_on_c, 0, 55, 0
3, 253920, Note_on_c, 0, 59, 0
3, 253920, Note_on_c, 0, 52, 0
3, 253920, Note_on_c, 0, 52, 28
3, 253920, Note_on_c, 0, 55, 28
3, 253920, Note_on_c, 0, 59, 28
3, 253920, Note_on_c, 0, 61, 28
3, 254160, Note_on_c, 0, 61, 0
3, 254160, Note_on_c, 0, 55, 0
3, 254160, Note_on_c, 0, 59, 0
3, 254160, Note_on_c, 0, 52, 0
3, 254160, Note_on_c, 0, 52, 25
3, 254160, Note_on_c, 0, 55, 25
3, 254160, Note_on_c, 0, 59, 25
3, 254160, Note_on_c, 0, 61, 25
3, 254399, Note_on_c, 0, 61, 0
3, 254399, Note_on_c, 0, 55, 0
3, 254399, Note_on_c, 0, 59, 0
3, 254399, Note_on_c, 0, 52, 0
3, 254399, Note_on_c, 0, 52, 24
3, 254399, Note_on_c, 0, 55, 24
3, 254399, Note_on_c, 0, 59, 24
3, 254399, Note_on_c, 0, 61, 24
3, 254640, Note_on_c, 0, 61, 0
3, 254640, Note_on_c, 0, 55, 0
3, 254640, Note_on_c, 0, 59, 0
3, 254640, Note_on_c, 0, 52, 0
3, 254640, Note_on_c, 0, 52, 25
3, 254640, Note_on_c, 0, 55, 25
3, 254640, Note_on_c, 0, 59, 25
3, 254640, Note_on_c, 0, 61, 25
3, 254880, Note_on_c, 0, 61, 0
3, 254880, Note_on_c, 0, 55, 0
3, 254880, Note_on_c, 0, 59, 0
3, 254880, Note_on_c, 0, 52, 0
3, 254880, Note_on_c, 0, 62, 26
3, 254880, Note_on_c, 0, 55, 30
3, 254880, Note_on_c, 0, 59, 30
3, 254880, Note_on_c, 0, 50, 28
3, 255240, Note_on_c, 0, 50, 0
3, 255240, Note_on_c, 0, 43, 0
3, 255240, Note_on_c, 0, 62, 0
3, 255240, Note_on_c, 0, 61, 38
3, 255873, Note_on_c, 0, 61, 0
3, 255960, Note_on_c, 0, 62, 26
3, 256320, Note_on_c, 0, 62, 0
3, 256320, Note_on_c, 0, 55, 0
3, 256320, Note_on_c, 0, 59, 0
3, 256320, Note_on_c, 0, 50, 23
3, 256320, Note_on_c, 0, 55, 23
3, 256320, Note_on_c, 0, 58, 23
3, 256320, Note_on_c, 0, 43, 30
3, 256320, Note_on_c, 0, 31, 26
3, 256559, Note_on_c, 0, 58, 0
3, 256559, Note_on_c, 0, 50, 0
3, 256559, Note_on_c, 0, 55, 0
3, 256559, Note_on_c, 0, 50, 28
3, 256559, Note_on_c, 0, 55, 28
3, 256559, Note_on_c, 0, 58, 28
3, 256680, Note_on_c, 0, 31, 0
3, 256800, Note_on_c, 0, 55, 0
3, 256800, Note_on_c, 0, 58, 0
3, 256800, Note_on_c, 0, 50, 0
3, 256800, Note_on_c, 0, 50, 28
3, 256800, Note_on_c, 0, 55, 28
3, 256800, Note_on_c, 0, 58, 28
3, 257040, Note_on_c, 0, 58, 0
3, 257040, Note_on_c, 0, 55, 0
3, 257040, Note_on_c, 0, 50, 0
3, 257040, Note_on_c, 0, 50, 27
3, 257040, Note_on_c, 0, 55, 27
3, 257040, Note_on_c, 0, 58, 27
3, 257279, Note_on_c, 0, 58, 0
3, 257279, Note_on_c, 0, 55, 0
3, 257279, Note_on_c, 0, 50, 0
3, 257279, Note_on_c, 0, 50, 24
3, 257279, Note_on_c, 0, 55, 24
3, 257279, Note_on_c, 0, 58, 24
3, 257520, Note_on_c, 0, 58, 0
3, 257520, Note_on_c, 0, 55, 0
3, 257520, Note_on_c, 0, 50, 0
3, 257520, Note_on_c, 0, 50, 23
3, 257520, Note_on_c, 0, 55, 23
3, 257520, Note_on_c, 0, 58, 23
3, 257760, Note_on_c, 0, 50, 0
3, 257760, Note_on_c, 0, 51, 32
3, 257760, Note_on_c, 0, 60, 32
3, 257999, Note_on_c, 0, 60, 0
3, 257999, Note_on_c, 0, 58, 0
3, 257999, Note_on_c, 0, 51, 0
3, 257999, Note_on_c, 0, 55, 0
3, 257999, Note_on_c, 0, 51, 26
3, 257999, Note_on_c, 0, 55, 26
3, 257999, Note_on_c, 0, 58, 26
3, 257999, Note_on_c, 0, 60, 26
3, 258240, Note_on_c, 0, 60, 0
3, 258240, Note_on_c, 0, 55, 0
3, 258240, Note_on_c, 0, 58, 0
3, 258240, Note_on_c, 0, 51, 0
3, 258240, Note_on_c, 0, 51, 23
3, 258240, Note_on_c, 0, 55, 23
3, 258240, Note_on_c, 0, 58, 23
3, 258240, Note_on_c, 0, 60, 23
3, 258480, Note_on_c, 0, 60, 0
3, 258480, Note_on_c, 0, 55, 0
3, 258480, Note_on_c, 0, 58, 0
3, 258480, Note_on_c, 0, 51, 0
3, 258480, Note_on_c, 0, 51, 23
3, 258480, Note_on_c, 0, 55, 23
3, 258480, Note_on_c, 0, 58, 23
3, 258480, Note_on_c, 0, 60, 23
3, 258719, Note_on_c, 0, 60, 0
3, 258719, Note_on_c, 0, 55, 0
3, 258719, Note_on_c, 0, 58, 0
3, 258719, Note_on_c, 0, 51, 0
3, 258719, Note_on_c, 0, 51, 22
3, 258719, Note_on_c, 0, 55, 22
3, 258719, Note_on_c, 0, 58, 22
3, 258719, Note_on_c, 0, 60, 22
3, 258960, Note_on_c, 0, 60, 0
3, 258960, Note_on_c, 0, 55, 0
3, 258960, Note_on_c, 0, 58, 0
3, 258960, Note_on_c, 0, 51, 0
3, 258960, Note_on_c, 0, 51, 24
3, 258960, Note_on_c, 0, 55, 24
3, 258960, Note_on_c, 0, 58, 24
3, 258960, Note_on_c, 0, 60, 24
3, 259200, Note_on_c, 0, 60, 0
3, 259200, Note_on_c, 0, 55, 0
3, 259200, Note_on_c, 0, 58, 0
3, 259200, Note_on_c, 0, 51, 0
3, 259200, Note_on_c, 0, 62, 27
3, 259200, Note_on_c, 0, 55, 30
3, 259200, Note_on_c, 0, 58, 30
3, 259200, Note_on_c, 0, 50, 30
3, 259560, Note_on_c, 0, 50, 0
3, 259560, Note_on_c, 0, 43, 0
3, 259560, Note_on_c, 0, 62, 0
3, 259560, Note_on_c, 0, 61, 35
3, 260193, Note_on_c, 0, 61, 0
3, 260280, Note_on_c, 0, 62, 27
3, 260640, Note_on_c, 0, 62, 0
3, 260640, Note_on_c, 0, 55, 0
3, 260640, Note_on_c, 0, 58, 0
3, 260640, Note_on_c, 0, 50, 24
3, 260640, Note_on_c, 0, 58, 24
3, 260640, Note_on_c, 0, 43, 33
3, 260879, Note_on_c, 0, 58, 0
3, 260879, Note_on_c, 0, 50, 0
3, 260879, Note_on_c, 0, 50, 25
3, 260879, Note_on_c, 0, 58, 25
3, 261120, Note_on_c, 0, 58, 0
3, 261120, Note_on_c, 0, 50, 0
3, 261120, Note_on_c, 0, 50, 29
3, 261120, Note_on_c, 0, 58, 29
3, 261360, Note_on_c, 0, 58, 0
3, 261360, Note_on_c, 0, 50, 0
3, 261360, Note_on_c, 0, 50, 27
3, 261360, Note_on_c, 0, 58, 27
3, 261599, Note_on_c, 0, 58, 0
3, 261599, Note_on_c, 0, 50, 0
3, 261599, Note_on_c, 0, 50, 24
3, 261599, Note_on_c, 0, 58, 24
3, 261840, Note_on_c, 0, 58, 0
3, 261840, Note_on_c, 0, 50, 0
3, 261840, Note_on_c, 0, 50, 26
3, 261840, Note_on_c, 0, 58, 26
3, 262080, Note_on_c, 0, 43, 0
3, 262080, Note_on_c, 0, 42, 33
3, 262319, Note_on_c, 0, 58, 0
3, 262319, Note_on_c, 0, 50, 0
3, 262319, Note_on_c, 0, 50, 25
3, 262319, Note_on_c, 0, 58, 25
3, 262560, Note_on_c, 0, 58, 0
3, 262560, Note_on_c, 0, 50, 0
3, 262560, Note_on_c, 0, 50, 30
3, 262560, Note_on_c, 0, 58, 30
3, 262800, Note_on_c, 0, 58, 0
3, 262800, Note_on_c, 0, 50, 0
3, 262800, Note_on_c, 0, 50, 23
3, 262800, Note_on_c, 0, 58, 23
3, 263039, Note_on_c, 0, 58, 0
3, 263039, Note_on_c, 0, 50, 0
3, 263039, Note_on_c, 0, 50, 28
3, 263039, Note_on_c, 0, 58, 28
3, 263280, Note_on_c, 0, 58, 0
3, 263280, Note_on_c, 0, 50, 0
3, 263280, Note_on_c, 0, 50, 22
3, 263280, Note_on_c, 0, 58, 22
3, 263520, Note_on_c, 0, 42, 0
3, 263520, Note_on_c, 0, 57, 46
3, 263520, Note_on_c, 0, 41, 34
3, 263520, Note_on_c, 0, 46, 34
3, 263759, Note_on_c, 0, 58, 0
3, 263759, Note_on_c, 0, 50, 0
3, 263759, Note_on_c, 0, 50, 26
3, 263759, Note_on_c, 0, 58, 26
3, 264000, Note_on_c, 0, 58, 0
3, 264000, Note_on_c, 0, 50, 0
3, 264000, Note_on_c, 0, 50, 26
3, 264000, Note_on_c, 0, 58, 26
3, 264240, Note_on_c, 0, 58, 0
3, 264240, Note_on_c, 0, 50, 0
3, 264240, Note_on_c, 0, 50, 28
3, 264240, Note_on_c, 0, 58, 28
3, 264479, Note_on_c, 0, 58, 0
3, 264479, Note_on_c, 0, 50, 0
3, 264479, Note_on_c, 0, 50, 24
3, 264479, Note_on_c, 0, 58, 24
3, 264720, Note_on_c, 0, 58, 0
3, 264720, Note_on_c, 0, 50, 0
3, 264720, Note_on_c, 0, 50, 29
3, 264720, Note_on_c, 0, 58, 29
3, 264960, Note_on_c, 0, 41, 0
3, 264960, Note_on_c, 0, 57, 0
3, 264960, Note_on_c, 0, 56, 49
3, 264960, Note_on_c, 0, 40, 34
3, 265199, Note_on_c, 0, 58, 0
3, 265199, Note_on_c, 0, 50, 0
3, 265199, Note_on_c, 0, 50, 25
3, 265199, Note_on_c, 0, 58, 25
3, 265440, Note_on_c, 0, 58, 0
3, 265440, Note_on_c, 0, 50, 0
3, 265440, Note_on_c, 0, 50, 23
3, 265440, Note_on_c, 0, 58, 23
3, 265680, Note_on_c, 0, 58, 0
3, 265680, Note_on_c, 0, 50, 0
3, 265680, Note_on_c, 0, 50, 27
3, 265680, Note_on_c, 0, 58, 27
3, 265919, Note_on_c, 0, 58, 0
3, 265919, Note_on_c, 0, 50, 0
3, 265919, Note_on_c, 0, 50, 24
3, 265919, Note_on_c, 0, 58, 24
3, 266160, Note_on_c, 0, 58, 0
3, 266160, Note_on_c, 0, 50, 0
3, 266160, Note_on_c, 0, 50, 27
3, 266160, Note_on_c, 0, 58, 27
3, 266400, Note_on_c, 0, 58, 0
3, 266400, Note_on_c, 0, 46, 0
3, 266400, Note_on_c, 0, 40, 0
3, 266400, Note_on_c, 0, 56, 0
3, 266400, Note_on_c, 0, 50, 0
3, 266400, Note_on_c, 0, 51, 27
3, 266400, Note_on_c, 0, 55, 27
3, 266400, Note_on_c, 0, 58, 27
3, 266400, Note_on_c, 0, 39, 40
3, 266400, Note_on_c, 0, 46, 40
3, 266639, Note_on_c, 0, 58, 0
3, 266639, Note_on_c, 0, 51, 0
3, 266639, Note_on_c, 0, 55, 0
3, 266639, Note_on_c, 0, 55, 27
3, 266639, Note_on_c, 0, 58, 27
3, 266880, Note_on_c, 0, 58, 0
3, 266880, Note_on_c, 0, 55, 0
3, 266880, Note_on_c, 0, 55, 29
3, 266880, Note_on_c, 0, 58, 29
3, 267120, Note_on_c, 0, 58, 0
3, 267120, Note_on_c, 0, 55, 0
3, 267120, Note_on_c, 0, 55, 21
3, 267120, Note_on_c, 0, 58, 21
3, 267359, Note_on_c, 0, 58, 0
3, 267359, Note_on_c, 0, 55, 0
3, 267359, Note_on_c, 0, 55, 30
3, 267359, Note_on_c, 0, 58, 30
3, 267600, Note_on_c, 0, 58, 0
3, 267600, Note_on_c, 0, 55, 0
3, 267600, Note_on_c, 0, 55, 23
3, 267600, Note_on_c, 0, 58, 23
3, 267840, Note_on_c, 0, 58, 0
3, 267840, Note_on_c, 0, 55, 0
3, 267840, Note_on_c, 0, 54, 29
3, 267840, Note_on_c, 0, 58, 29
3, 267840, Note_on_c, 0, 63, 29
3, 267840, Note_on_c, 0, 51, 34
3, 268079, Note_on_c, 0, 51, 0
3, 268079, Note_on_c, 0, 58, 0
3, 268079, Note_on_c, 0, 54, 0
3, 268079, Note_on_c, 0, 63, 0
3, 268079, Note_on_c, 0, 54, 25
3, 268079, Note_on_c, 0, 58, 25
3, 268079, Note_on_c, 0, 63, 25
3, 268079, Note_on_c, 0, 51, 33
3, 268320, Note_on_c, 0, 51, 0
3, 268320, Note_on_c, 0, 58, 0
3, 268320, Note_on_c, 0, 54, 0
3, 268320, Note_on_c, 0, 63, 0
3, 268320, Note_on_c, 0, 54, 20
3, 268320, Note_on_c, 0, 58, 20
3, 268320, Note_on_c, 0, 63, 20
3, 268320, Note_on_c, 0, 51, 36
3, 268560, Note_on_c, 0, 51, 0
3, 268560, Note_on_c, 0, 58, 0
3, 268560, Note_on_c, 0, 54, 0
3, 268560, Note_on_c, 0, 63, 0
3, 268560, Note_on_c, 0, 54, 22
3, 268560, Note_on_c, 0, 58, 22
3, 268560, Note_on_c, 0, 63, 22
3, 268560, Note_on_c, 0, 51, 35
3, 268799, Note_on_c, 0, 51, 0
3, 268799, Note_on_c, 0, 58, 0
3, 268799, Note_on_c, 0, 54, 0
3, 268799, Note_on_c, 0, 63, 0
3, 268799, Note_on_c, 0, 54, 25
3, 268799, Note_on_c, 0, 58, 25
3, 268799, Note_on_c, 0, 63, 25
3, 268799, Note_on_c, 0, 51, 36
3, 269040, Note_on_c, 0, 51, 0
3, 269040, Note_on_c, 0, 58, 0
3, 269040, Note_on_c, 0, 54, 0
3, 269040, Note_on_c, 0, 63, 0
3, 269040, Note_on_c, 0, 54, 23
3, 269040, Note_on_c, 0, 58, 23
3, 269040, Note_on_c, 0, 63, 23
3, 269040, Note_on_c, 0, 51, 35
3, 269280, Note_on_c, 0, 51, 0
3, 269280, Note_on_c, 0, 46, 0
3, 269280, Note_on_c, 0, 54, 0
3, 269280, Note_on_c, 0, 39, 0
3, 269280, Note_on_c, 0, 63, 0
3, 269280, Note_on_c, 0, 58, 0
3, 269280, Note_on_c, 0, 55, 23
3, 269280, Note_on_c, 0, 58, 23
3, 269280, Note_on_c, 0, 63, 23
3, 269280, Note_on_c, 0, 39, 34
3, 269280, Note_on_c, 0, 51, 34
3, 269280, Note_on_c, 0, 46, 34
3, 269519, Note_on_c, 0, 46, 0
3, 269519, Note_on_c, 0, 58, 0
3, 269519, Note_on_c, 0, 55, 0
3, 269519, Note_on_c, 0, 63, 0
3, 269519, Note_on_c, 0, 55, 27
3, 269519, Note_on_c, 0, 58, 27
3, 269519, Note_on_c, 0, 63, 27
3, 269519, Note_on_c, 0, 46, 37
3, 269760, Note_on_c, 0, 46, 0
3, 269760, Note_on_c, 0, 58, 0
3, 269760, Note_on_c, 0, 55, 0
3, 269760, Note_on_c, 0, 63, 0
3, 269760, Note_on_c, 0, 55, 21
3, 269760, Note_on_c, 0, 58, 21
3, 269760, Note_on_c, 0, 63, 21
3, 269760, Note_on_c, 0, 46, 37
3, 270000, Note_on_c, 0, 46, 0
3, 270000, Note_on_c, 0, 58, 0
3, 270000, Note_on_c, 0, 55, 0
3, 270000, Note_on_c, 0, 63, 0
3, 270000, Note_on_c, 0, 55, 24
3, 270000, Note_on_c, 0, 58, 24
3, 270000, Note_on_c, 0, 63, 24
3, 270000, Note_on_c, 0, 46, 33
3, 270239, Note_on_c, 0, 46, 0
3, 270239, Note_on_c, 0, 58, 0
3, 270239, Note_on_c, 0, 55, 0
3, 270239, Note_on_c, 0, 63, 0
3, 270239, Note_on_c, 0, 55, 25
3, 270239, Note_on_c, 0, 58, 25
3, 270239, Note_on_c, 0, 63, 25
3, 270239, Note_on_c, 0, 46, 37
3, 270480, Note_on_c, 0, 46, 0
3, 270480, Note_on_c, 0, 58, 0
3, 270480, Note_on_c, 0, 55, 0
3, 270480, Note_on_c, 0, 63, 0
3, 270480, Note_on_c, 0, 55, 28
3, 270480, Note_on_c, 0, 58, 28
3, 270480, Note_on_c, 0, 63, 28
3, 270480, Note_on_c, 0, 46, 37
3, 270720, Note_on_c, 0, 63, 0
3, 270720, Note_on_c, 0, 39, 0
3, 270720, Note_on_c, 0, 51, 0
3, 270720, Note_on_c, 0, 62, 21
3, 270720, Note_on_c, 0, 40, 37
3, 270720, Note_on_c, 0, 50, 37
3, 270959, Note_on_c, 0, 62, 0
3, 270959, Note_on_c, 0, 58, 0
3, 270959, Note_on_c, 0, 55, 0
3, 270959, Note_on_c, 0, 46, 0
3, 270959, Note_on_c, 0, 55, 18
3, 270959, Note_on_c, 0, 58, 18
3, 270959, Note_on_c, 0, 62, 18
3, 270959, Note_on_c, 0, 46, 39
3, 271200, Note_on_c, 0, 46, 0
3, 271200, Note_on_c, 0, 58, 0
3, 271200, Note_on_c, 0, 55, 0
3, 271200, Note_on_c, 0, 62, 0
3, 271200, Note_on_c, 0, 55, 24
3, 271200, Note_on_c, 0, 58, 24
3, 271200, Note_on_c, 0, 62, 24
3, 271200, Note_on_c, 0, 46, 37
3, 271440, Note_on_c, 0, 46, 0
3, 271440, Note_on_c, 0, 40, 0
3, 271440, Note_on_c, 0, 55, 0
3, 271440, Note_on_c, 0, 50, 0
3, 271440, Note_on_c, 0, 62, 0
3, 271440, Note_on_c, 0, 58, 0
3, 271440, Note_on_c, 0, 55, 27
3, 271440, Note_on_c, 0, 57, 27
3, 271440, Note_on_c, 0, 61, 27
3, 271440, Note_on_c, 0, 49, 25
3, 271440, Note_on_c, 0, 33, 24
3, 271440, Note_on_c, 0, 45, 36
3, 271679, Note_on_c, 0, 45, 0
3, 271679, Note_on_c, 0, 57, 0
3, 271679, Note_on_c, 0, 55, 0
3, 271679, Note_on_c, 0, 61, 0
3, 271679, Note_on_c, 0, 55, 24
3, 271679, Note_on_c, 0, 57, 24
3, 271679, Note_on_c, 0, 61, 24
3, 271679, Note_on_c, 0, 45, 35
3, 271920, Note_on_c, 0, 45, 0
3, 271920, Note_on_c, 0, 57, 0
3, 271920, Note_on_c, 0, 55, 0
3, 271920, Note_on_c, 0, 61, 0
3, 271920, Note_on_c, 0, 55, 29
3, 271920, Note_on_c, 0, 57, 29
3, 271920, Note_on_c, 0, 61, 29
3, 271920, Note_on_c, 0, 45, 33
3, 272160, Note_on_c, 0, 45, 0
3, 272160, Note_on_c, 0, 33, 0
3, 272160, Note_on_c, 0, 55, 0
3, 272160, Note_on_c, 0, 49, 0
3, 272160, Note_on_c, 0, 61, 0
3, 272160, Note_on_c, 0, 57, 0
3, 272160, Note_on_c, 0, 54, 26
3, 272160, Note_on_c, 0, 57, 26
3, 272160, Note_on_c, 0, 62, 26
3, 272160, Note_on_c, 0, 38, 43
3, 272160, Note_on_c, 0, 50, 43
3, 272160, Note_on_c, 0, 45, 37
3, 272399, Note_on_c, 0, 45, 0
3, 272399, Note_on_c, 0, 57, 0
3, 272399, Note_on_c, 0, 54, 0
3, 272399, Note_on_c, 0, 62, 0
3, 272399, Note_on_c, 0, 54, 24
3, 272399, Note_on_c, 0, 57, 24
3, 272399, Note_on_c, 0, 62, 24
3, 272399, Note_on_c, 0, 45, 36
3, 272640, Note_on_c, 0, 45, 0
3, 272640, Note_on_c, 0, 57, 0
3, 272640, Note_on_c, 0, 54, 0
3, 272640, Note_on_c, 0, 62, 0
3, 272640, Note_on_c, 0, 54, 24
3, 272640, Note_on_c, 0, 57, 24
3, 272640, Note_on_c, 0, 62, 24
3, 272640, Note_on_c, 0, 45, 33
3, 272880, Note_on_c, 0, 45, 0
3, 272880, Note_on_c, 0, 57, 0
3, 272880, Note_on_c, 0, 54, 0
3, 272880, Note_on_c, 0, 62, 0
3, 272880, Note_on_c, 0, 53, 23
3, 272880, Note_on_c, 0, 56, 23
3, 272880, Note_on_c, 0, 59, 23
3, 272880, Note_on_c, 0, 62, 23
3, 272880, Note_on_c, 0, 45, 43
3, 273119, Note_on_c, 0, 45, 0
3, 273119, Note_on_c, 0, 59, 0
3, 273119, Note_on_c, 0, 56, 0
3, 273119, Note_on_c, 0, 53, 0
3, 273119, Note_on_c, 0, 62, 0
3, 273119, Note_on_c, 0, 53, 25
3, 273119, Note_on_c, 0, 56, 25
3, 273119, Note_on_c, 0, 59, 25
3, 273119, Note_on_c, 0, 62, 25
3, 273119, Note_on_c, 0, 45, 35
3, 273360, Note_on_c, 0, 45, 0
3, 273360, Note_on_c, 0, 59, 0
3, 273360, Note_on_c, 0, 56, 0
3, 273360, Note_on_c, 0, 53, 0
3, 273360, Note_on_c, 0, 62, 0
3, 273360, Note_on_c, 0, 53, 27
3, 273360, Note_on_c, 0, 56, 27
3, 273360, Note_on_c, 0, 59, 27
3, 273360, Note_on_c, 0, 62, 27
3, 273360, Note_on_c, 0, 45, 31
3, 273600, Note_on_c, 0, 45, 0
3, 273600, Note_on_c, 0, 59, 0
3, 273600, Note_on_c, 0, 56, 0
3, 273600, Note_on_c, 0, 53, 0
3, 273600, Note_on_c, 0, 62, 0
3, 273600, Note_on_c, 0, 54, 26
3, 273600, Note_on_c, 0, 57, 26
3, 273600, Note_on_c, 0, 62, 26
3, 273600, Note_on_c, 0, 45, 40
3, 273839, Note_on_c, 0, 45, 0
3, 273839, Note_on_c, 0, 57, 0
3, 273839, Note_on_c, 0, 54, 0
3, 273839, Note_on_c, 0, 62, 0
3, 273839, Note_on_c, 0, 54, 24
3, 273839, Note_on_c, 0, 57, 24
3, 273839, Note_on_c, 0, 62, 24
3, 273839, Note_on_c, 0, 45, 34
3, 274080, Note_on_c, 0, 45, 0
3, 274080, Note_on_c, 0, 57, 0
3, 274080, Note_on_c, 0, 54, 0
3, 274080, Note_on_c, 0, 62, 0
3, 274080, Note_on_c, 0, 54, 22
3, 274080, Note_on_c, 0, 57, 22
3, 274080, Note_on_c, 0, 62, 22
3, 274080, Note_on_c, 0, 45, 40
3, 274320, Note_on_c, 0, 45, 0
3, 274320, Note_on_c, 0, 57, 0
3, 274320, Note_on_c, 0, 54, 0
3, 274320, Note_on_c, 0, 62, 0
3, 274320, Note_on_c, 0, 54, 26
3, 274320, Note_on_c, 0, 57, 26
3, 274320, Note_on_c, 0, 62, 26
3, 274320, Note_on_c, 0, 45, 32
3, 274559, Note_on_c, 0, 45, 0
3, 274559, Note_on_c, 0, 57, 0
3, 274559, Note_on_c, 0, 54, 0
3, 274559, Note_on_c, 0, 62, 0
3, 274559, Note_on_c, 0, 54, 26
3, 274559, Note_on_c, 0, 57, 26
3, 274559, Note_on_c, 0, 62, 26
3, 274559, Note_on_c, 0, 45, 33
3, 274800, Note_on_c, 0, 45, 0
3, 274800, Note_on_c, 0, 57, 0
3, 274800, Note_on_c, 0, 54, 0
3, 274800, Note_on_c, 0, 62, 0
3, 274800, Note_on_c, 0, 54, 26
3, 274800, Note_on_c, 0, 57, 26
3, 274800, Note_on_c, 0, 62, 26
3, 274800, Note_on_c, 0, 45, 36
3, 275040, Note_on_c, 0, 62, 0
3, 275040, Note_on_c, 0, 57, 0
3, 275040, Note_on_c, 0, 54, 0
3, 275040, Note_on_c, 0, 50, 0
3, 275040, Note_on_c, 0, 52, 24
3, 275040, Note_on_c, 0, 55, 24
3, 275040, Note_on_c, 0, 62, 24
3, 275279, Note_on_c, 0, 62, 0
3, 275279, Note_on_c, 0, 52, 0
3, 275279, Note_on_c, 0, 55, 0
3, 275279, Note_on_c, 0, 45, 0
3, 275279, Note_on_c, 0, 52, 28
3, 275279, Note_on_c, 0, 55, 28
3, 275279, Note_on_c, 0, 62, 28
3, 275279, Note_on_c, 0, 45, 31
3, 275520, Note_on_c, 0, 45, 0
3, 275520, Note_on_c, 0, 55, 0
3, 275520, Note_on_c, 0, 62, 0
3, 275520, Note_on_c, 0, 52, 0
3, 275520, Note_on_c, 0, 52, 24
3, 275520, Note_on_c, 0, 55, 24
3, 275520, Note_on_c, 0, 62, 24
3, 275520, Note_on_c, 0, 45, 31
3, 275760, Note_on_c, 0, 45, 0
3, 275760, Note_on_c, 0, 55, 0
3, 275760, Note_on_c, 0, 62, 0
3, 275760, Note_on_c, 0, 52, 0
3, 275760, Note_on_c, 0, 52, 25
3, 275760, Note_on_c, 0, 55, 25
3, 275760, Note_on_c, 0, 61, 25
3, 275760, Note_on_c, 0, 45, 32
3, 275999, Note_on_c, 0, 45, 0
3, 275999, Note_on_c, 0, 55, 0
3, 275999, Note_on_c, 0, 61, 0
3, 275999, Note_on_c, 0, 52, 0
3, 275999, Note_on_c, 0, 52, 26
3, 275999, Note_on_c, 0, 55, 26
3, 275999, Note_on_c, 0, 61, 26
3, 275999, Note_on_c, 0, 45, 32
3, 276240, Note_on_c, 0, 45, 0
3, 276240, Note_on_c, 0, 55, 0
3, 276240, Note_on_c, 0, 61, 0
3, 276240, Note_on_c, 0, 52, 0
3, 276240, Note_on_c, 0, 52, 26
3, 276240, Note_on_c, 0, 55, 26
3, 276240, Note_on_c, 0, 61, 26
3, 276240, Note_on_c, 0, 45, 38
3, 276480, Note_on_c, 0, 45, 0
3, 276480, Note_on_c, 0, 55, 0
3, 276480, Note_on_c, 0, 38, 0
3, 276480, Note_on_c, 0, 52, 0
3, 276480, Note_on_c, 0, 61, 0
3, 276480, Note_on_c, 0, 62, 26
3, 276480, Note_on_c, 0, 54, 31
3, 276480, Note_on_c, 0, 57, 31
3, 276480, Note_on_c, 0, 38, 37
3, 276480, Note_on_c, 0, 45, 37
3, 276536, Note_on_c, 0, 45, 0
3, 276536, Note_on_c, 0, 38, 0
3, 276552, Note_on_c, 0, 50, 37
3, 276608, Note_on_c, 0, 50, 0
3, 276624, Note_on_c, 0, 38, 37
3, 276624, Note_on_c, 0, 45, 37
3, 276680, Note_on_c, 0, 45, 0
3, 276680, Note_on_c, 0, 38, 0
3, 276695, Note_on_c, 0, 50, 37
3, 276719, Note_on_c, 0, 57, 0
3, 276719, Note_on_c, 0, 54, 0
3, 276719, Note_on_c, 0, 54, 25
3, 276719, Note_on_c, 0, 57, 25
3, 276752, Note_on_c, 0, 50, 0
3, 276767, Note_on_c, 0, 38, 37
3, 276767, Note_on_c, 0, 45, 37
3, 276823, Note_on_c, 0, 45, 0
3, 276823, Note_on_c, 0, 38, 0
3, 276839, Note_on_c, 0, 50, 37
3, 276895, Note_on_c, 0, 50, 0
3, 276911, Note_on_c, 0, 38, 37
3, 276911, Note_on_c, 0, 45, 37
3, 276960, Note_on_c, 0, 57, 0
3, 276960, Note_on_c, 0, 54, 0
3, 276960, Note_on_c, 0, 54, 24
3, 276960, Note_on_c, 0, 57, 24
3, 276967, Note_on_c, 0, 45, 0
3, 276967, Note_on_c, 0, 38, 0
3, 276982, Note_on_c, 0, 50, 37
3, 277038, Note_on_c, 0, 50, 0
3, 277054, Note_on_c, 0, 38, 37
3, 277054, Note_on_c, 0, 45, 37
3, 277110, Note_on_c, 0, 45, 0
3, 277110, Note_on_c, 0, 38, 0
3, 277125, Note_on_c, 0, 50, 37
3, 277182, Note_on_c, 0, 50, 0
3, 277197, Note_on_c, 0, 38, 37
3, 277197, Note_on_c, 0, 45, 37
3, 277200, Note_on_c, 0, 57, 0
3, 277200, Note_on_c, 0, 62, 0
3, 277200, Note_on_c, 0, 54, 0
3, 277200, Note_on_c, 0, 54, 32
3, 277200, Note_on_c, 0, 57, 32
3, 277200, Note_on_c, 0, 62, 32
3, 277200, Note_on_c, 0, 38, 31
3, 277200, Note_on_c, 0, 45, 31
3, 277254, Note_on_c, 0, 38, 0
3, 277254, Note_on_c, 0, 45, 0
3, 277256, Note_on_c, 0, 38, 0
3, 277256, Note_on_c, 0, 45, 0
3, 277269, Note_on_c, 0, 50, 37
3, 277272, Note_on_c, 0, 50, 38
3, 277325, Note_on_c, 0, 50, 0
3, 277328, Note_on_c, 0, 50, 0
3, 277344, Note_on_c, 0, 38, 31
3, 277344, Note_on_c, 0, 45, 31
3, 277400, Note_on_c, 0, 45, 0
3, 277400, Note_on_c, 0, 38, 0
3, 277415, Note_on_c, 0, 50, 38
3, 277439, Note_on_c, 0, 57, 0
3, 277439, Note_on_c, 0, 54, 0
3, 277439, Note_on_c, 0, 62, 0
3, 277439, Note_on_c, 0, 54, 23
3, 277439, Note_on_c, 0, 57, 23
3, 277439, Note_on_c, 0, 62, 23
3, 277472, Note_on_c, 0, 50, 0
3, 277487, Note_on_c, 0, 38, 31
3, 277487, Note_on_c, 0, 45, 31
3, 277543, Note_on_c, 0, 45, 0
3, 277543, Note_on_c, 0, 38, 0
3, 277559, Note_on_c, 0, 50, 38
3, 277615, Note_on_c, 0, 50, 0
3, 277631, Note_on_c, 0, 38, 31
3, 277631, Note_on_c, 0, 45, 31
3, 277680, Note_on_c, 0, 54, 0
3, 277680, Note_on_c, 0, 62, 0
3, 277680, Note_on_c, 0, 57, 0
3, 277680, Note_on_c, 0, 54, 24
3, 277680, Note_on_c, 0, 57, 24
3, 277680, Note_on_c, 0, 62, 24
3, 277687, Note_on_c, 0, 38, 0
3, 277687, Note_on_c, 0, 45, 0
3, 277702, Note_on_c, 0, 50, 38
3, 277758, Note_on_c, 0, 50, 0
3, 277774, Note_on_c, 0, 38, 31
3, 277774, Note_on_c, 0, 45, 31
3, 277830, Note_on_c, 0, 45, 0
3, 277830, Note_on_c, 0, 38, 0
3, 277845, Note_on_c, 0, 50, 38
3, 277902, Note_on_c, 0, 50, 0
3, 277917, Note_on_c, 0, 38, 31
3, 277917, Note_on_c, 0, 45, 31
3, 277920, Note_on_c, 0, 45, 0
3, 277920, Note_on_c, 0, 62, 0
3, 277920, Note_on_c, 0, 57, 0
3, 277920, Note_on_c, 0, 54, 0
3, 277920, Note_on_c, 0, 38, 0
3, 277920, Note_on_c, 0, 53, 24
3, 277920, Note_on_c, 0, 58, 24
3, 277920, Note_on_c, 0, 62, 24
3, 277920, Note_on_c, 0, 38, 34
3, 277920, Note_on_c, 0, 46, 34
3, 277976, Note_on_c, 0, 46, 0
3, 277976, Note_on_c, 0, 38, 0
3, 277992, Note_on_c, 0, 50, 32
3, 278048, Note_on_c, 0, 50, 0
3, 278064, Note_on_c, 0, 38, 34
3, 278064, Note_on_c, 0, 46, 34
3, 278120, Note_on_c, 0, 46, 0
3, 278120, Note_on_c, 0, 38, 0
3, 278135, Note_on_c, 0, 50, 32
3, 278159, Note_on_c, 0, 53, 0
3, 278159, Note_on_c, 0, 62, 0
3, 278159, Note_on_c, 0, 58, 0
3, 278159, Note_on_c, 0, 53, 24
3, 278159, Note_on_c, 0, 58, 24
3, 278159, Note_on_c, 0, 62, 24
3, 278192, Note_on_c, 0, 50, 0
3, 278207, Note_on_c, 0, 38, 34
3, 278207, Note_on_c, 0, 46, 34
3, 278263, Note_on_c, 0, 46, 0
3, 278263, Note_on_c, 0, 38, 0
3, 278279, Note_on_c, 0, 50, 32
3, 278335, Note_on_c, 0, 50, 0
3, 278351, Note_on_c, 0, 38, 34
3, 278351, Note_on_c, 0, 46, 34
3, 278400, Note_on_c, 0, 53, 0
3, 278400, Note_on_c, 0, 62, 0
3, 278400, Note_on_c, 0, 58, 0
3, 278400, Note_on_c, 0, 53, 25
3, 278400, Note_on_c, 0, 58, 25
3, 278400, Note_on_c, 0, 62, 25
3, 278407, Note_on_c, 0, 38, 0
3, 278407, Note_on_c, 0, 46, 0
3, 278422, Note_on_c, 0, 50, 32
3, 278478, Note_on_c, 0, 50, 0
3, 278494, Note_on_c, 0, 38, 34
3, 278494, Note_on_c, 0, 46, 34
3, 278550, Note_on_c, 0, 46, 0
3, 278550, Note_on_c, 0, 38, 0
3, 278565, Note_on_c, 0, 50, 32
3, 278622, Note_on_c, 0, 50, 0
3, 278637, Note_on_c, 0, 38, 34
3, 278637, Note_on_c, 0, 46, 34
3, 278640, Note_on_c, 0, 62, 0
3, 278640, Note_on_c, 0, 58, 0
3, 278640, Note_on_c, 0, 53, 0
3, 278640, Note_on_c, 0, 53, 34
3, 278640, Note_on_c, 0, 58, 34
3, 278640, Note_on_c, 0, 62, 34
3, 278640, Note_on_c, 0, 65, 34
3, 278640, Note_on_c, 0, 38, 36
3, 278640, Note_on_c, 0, 46, 36
3, 278694, Note_on_c, 0, 38, 0
3, 278694, Note_on_c, 0, 46, 0
3, 278696, Note_on_c, 0, 46, 0
3, 278696, Note_on_c, 0, 38, 0
3, 278709, Note_on_c, 0, 50, 32
3, 278712, Note_on_c, 0, 50, 41
3, 278765, Note_on_c, 0, 50, 0
3, 278768, Note_on_c, 0, 50, 0
3, 278784, Note_on_c, 0, 38, 36
3, 278784, Note_on_c, 0, 46, 36
3, 278840, Note_on_c, 0, 46, 0
3, 278840, Note_on_c, 0, 38, 0
3, 278855, Note_on_c, 0, 50, 41
3, 278879, Note_on_c, 0, 62, 0
3, 278879, Note_on_c, 0, 65, 0
3, 278879, Note_on_c, 0, 58, 0
3, 278879, Note_on_c, 0, 53, 0
3, 278879, Note_on_c, 0, 53, 28
3, 278879, Note_on_c, 0, 58, 28
3, 278879, Note_on_c, 0, 62, 28
3, 278879, Note_on_c, 0, 65, 28
3, 278912, Note_on_c, 0, 50, 0
3, 278927, Note_on_c, 0, 38, 36
3, 278927, Note_on_c, 0, 46, 36
3, 278983, Note_on_c, 0, 46, 0
3, 278983, Note_on_c, 0, 38, 0
3, 278999, Note_on_c, 0, 50, 41
3, 279055, Note_on_c, 0, 50, 0
3, 279071, Note_on_c, 0, 38, 36
3, 279071, Note_on_c, 0, 46, 36
3, 279120, Note_on_c, 0, 62, 0
3, 279120, Note_on_c, 0, 65, 0
3, 279120, Note_on_c, 0, 53, 0
3, 279120, Note_on_c, 0, 58, 0
3, 279120, Note_on_c, 0, 53, 27
3, 279120, Note_on_c, 0, 58, 27
3, 279120, Note_on_c, 0, 62, 27
3, 279120, Note_on_c, 0, 65, 27
3, 279127, Note_on_c, 0, 46, 0
3, 279127, Note_on_c, 0, 38, 0
3, 279142, Note_on_c, 0, 50, 41
3, 279198, Note_on_c, 0, 50, 0
3, 279214, Note_on_c, 0, 38, 36
3, 279214, Note_on_c, 0, 46, 36
3, 279270, Note_on_c, 0, 46, 0
3, 279270, Note_on_c, 0, 38, 0
3, 279285, Note_on_c, 0, 50, 41
3, 279342, Note_on_c, 0, 50, 0
3, 279357, Note_on_c, 0, 38, 36
3, 279357, Note_on_c, 0, 46, 36
3, 279360, Note_on_c, 0, 46, 0
3, 279360, Note_on_c, 0, 65, 0
3, 279360, Note_on_c, 0, 62, 0
3, 279360, Note_on_c, 0, 58, 0
3, 279360, Note_on_c, 0, 38, 0
3, 279360, Note_on_c, 0, 53, 0
3, 279360, Note_on_c, 0, 53, 23
3, 279360, Note_on_c, 0, 57, 23
3, 279360, Note_on_c, 0, 62, 23
3, 279360, Note_on_c, 0, 65, 23
3, 279459, Note_on_c, 0, 38, 25
3, 279510, Note_on_c, 0, 45, 35
3, 279537, Note_on_c, 0, 38, 0
3, 279555, Note_on_c, 0, 39, 34
3, 279574, Note_on_c, 0, 45, 0
3, 279594, Note_on_c, 0, 46, 25
3, 279599, Note_on_c, 0, 65, 0
3, 279599, Note_on_c, 0, 53, 0
3, 279599, Note_on_c, 0, 62, 0
3, 279599, Note_on_c, 0, 57, 0
3, 279599, Note_on_c, 0, 53, 26
3, 279599, Note_on_c, 0, 57, 26
3, 279599, Note_on_c, 0, 62, 26
3, 279599, Note_on_c, 0, 65, 26
3, 279633, Note_on_c, 0, 39, 0
3, 279651, Note_on_c, 0, 38, 34
3, 279660, Note_on_c, 0, 46, 0
3, 279677, Note_on_c, 0, 45, 29
3, 279727, Note_on_c, 0, 38, 0
3, 279743, Note_on_c, 0, 45, 0
3, 279746, Note_on_c, 0, 39, 25
3, 279761, Note_on_c, 0, 46, 19
3, 279820, Note_on_c, 0, 39, 0
3, 279828, Note_on_c, 0, 46, 0
3, 279838, Note_on_c, 0, 38, 30
3, 279840, Note_on_c, 0, 53, 0
3, 279840, Note_on_c, 0, 62, 0
3, 279840, Note_on_c, 0, 57, 0
3, 279840, Note_on_c, 0, 65, 0
3, 279840, Note_on_c, 0, 53, 26
3, 279840, Note_on_c, 0, 57, 26
3, 279840, Note_on_c, 0, 62, 26
3, 279840, Note_on_c, 0, 65, 26
3, 279847, Note_on_c, 0, 45, 39
3, 279911, Note_on_c, 0, 38, 0
3, 279914, Note_on_c, 0, 45, 0
3, 279930, Note_on_c, 0, 39, 28
3, 279934, Note_on_c, 0, 46, 31
3, 280003, Note_on_c, 0, 46, 0
3, 280003, Note_on_c, 0, 39, 0
3, 280021, Note_on_c, 0, 38, 38
3, 280021, Note_on_c, 0, 45, 34
3, 280080, Note_on_c, 0, 65, 0
3, 280080, Note_on_c, 0, 62, 0
3, 280080, Note_on_c, 0, 53, 0
3, 280080, Note_on_c, 0, 57, 0
3, 280080, Note_on_c, 0, 53, 29
3, 280080, Note_on_c, 0, 57, 29
3, 280080, Note_on_c, 0, 62, 29
3, 280080, Note_on_c, 0, 65, 29
3, 280090, Note_on_c, 0, 45, 0
3, 280094, Note_on_c, 0, 38, 0
3, 280110, Note_on_c, 0, 46, 25
3, 280111, Note_on_c, 0, 39, 23
3, 280180, Note_on_c, 0, 46, 0
3, 280183, Note_on_c, 0, 39, 0
3, 280200, Note_on_c, 0, 38, 39
3, 280200, Note_on_c, 0, 45, 38
3, 280270, Note_on_c, 0, 38, 0
3, 280271, Note_on_c, 0, 45, 0
3, 280287, Note_on_c, 0, 39, 29
3, 280291, Note_on_c, 0, 46, 25
3, 280319, Note_on_c, 0, 62, 0
3, 280319, Note_on_c, 0, 53, 0
3, 280319, Note_on_c, 0, 57, 0
3, 280319, Note_on_c, 0, 65, 0
3, 280319, Note_on_c, 0, 53, 26
3, 280319, Note_on_c, 0, 57, 26
3, 280319, Note_on_c, 0, 62, 26
3, 280319, Note_on_c, 0, 65, 26
3, 280356, Note_on_c, 0, 39, 0
3, 280364, Note_on_c, 0, 46, 0
3, 280373, Note_on_c, 0, 38, 32
3, 280384, Note_on_c, 0, 45, 37
3, 280440, Note_on_c, 0, 38, 0
3, 280457, Note_on_c, 0, 45, 0
3, 280458, Note_on_c, 0, 39, 27
3, 280478, Note_on_c, 0, 46, 20
3, 280526, Note_on_c, 0, 39, 0
3, 280543, Note_on_c, 0, 38, 32
3, 280553, Note_on_c, 0, 46, 0
3, 280560, Note_on_c, 0, 53, 0
3, 280560, Note_on_c, 0, 62, 0
3, 280560, Note_on_c, 0, 57, 0
3, 280560, Note_on_c, 0, 65, 0
3, 280560, Note_on_c, 0, 53, 27
3, 280560, Note_on_c, 0, 57, 27
3, 280560, Note_on_c, 0, 62, 27
3, 280560, Note_on_c, 0, 65, 27
3, 280572, Note_on_c, 0, 45, 36
3, 280610, Note_on_c, 0, 38, 0
3, 280626, Note_on_c, 0, 39, 25
3, 280647, Note_on_c, 0, 45, 0
3, 280668, Note_on_c, 0, 46, 28
3, 280692, Note_on_c, 0, 39, 0
3, 280707, Note_on_c, 0, 38, 36
3, 280744, Note_on_c, 0, 46, 0
3, 280765, Note_on_c, 0, 45, 35
3, 280772, Note_on_c, 0, 38, 0
3, 280789, Note_on_c, 0, 39, 31
3, 280800, Note_on_c, 0, 39, 0
3, 280800, Note_on_c, 0, 45, 0
3, 280800, Note_on_c, 0, 62, 0
3, 280800, Note_on_c, 0, 53, 0
3, 280800, Note_on_c, 0, 57, 0
3, 280800, Note_on_c, 0, 65, 0
3, 280800, Note_on_c, 0, 54, 28
3, 280800, Note_on_c, 0, 57, 28
3, 280800, Note_on_c, 0, 62, 28
3, 280800, Note_on_c, 0, 66, 28
3, 280899, Note_on_c, 0, 38, 38
3, 280899, Note_on_c, 0, 45, 39
3, 280977, Note_on_c, 0, 45, 0
3, 280977, Note_on_c, 0, 38, 0
3, 280993, Note_on_c, 0, 39, 25
3, 280993, Note_on_c, 0, 46, 23
3, 281039, Note_on_c, 0, 62, 0
3, 281039, Note_on_c, 0, 66, 0
3, 281039, Note_on_c, 0, 54, 0
3, 281039, Note_on_c, 0, 57, 0
3, 281039, Note_on_c, 0, 54, 26
3, 281039, Note_on_c, 0, 57, 26
3, 281039, Note_on_c, 0, 62, 26
3, 281039, Note_on_c, 0, 66, 26
3, 281067, Note_on_c, 0, 46, 0
3, 281067, Note_on_c, 0, 39, 0
3, 281084, Note_on_c, 0, 38, 30
3, 281084, Note_on_c, 0, 45, 36
3, 281157, Note_on_c, 0, 45, 0
3, 281157, Note_on_c, 0, 38, 0
3, 281174, Note_on_c, 0, 39, 30
3, 281174, Note_on_c, 0, 46, 34
3, 281246, Note_on_c, 0, 46, 0
3, 281246, Note_on_c, 0, 39, 0
3, 281261, Note_on_c, 0, 38, 27
3, 281261, Note_on_c, 0, 45, 31
3, 281280, Note_on_c, 0, 62, 0
3, 281280, Note_on_c, 0, 54, 0
3, 281280, Note_on_c, 0, 57, 0
3, 281280, Note_on_c, 0, 66, 0
3, 281280, Note_on_c, 0, 54, 20
3, 281280, Note_on_c, 0, 57, 20
3, 281280, Note_on_c, 0, 62, 20
3, 281330, Note_on_c, 0, 45, 0
3, 281330, Note_on_c, 0, 38, 0
3, 281347, Note_on_c, 0, 39, 23
3, 281347, Note_on_c, 0, 46, 31
3, 281415, Note_on_c, 0, 46, 0
3, 281415, Note_on_c, 0, 39, 0
3, 281430, Note_on_c, 0, 38, 36
3, 281430, Note_on_c, 0, 45, 29
3, 281496, Note_on_c, 0, 45, 0
3, 281496, Note_on_c, 0, 38, 0
3, 281512, Note_on_c, 0, 39, 29
3, 281512, Note_on_c, 0, 46, 31
3, 281520, Note_on_c, 0, 57, 0
3, 281520, Note_on_c, 0, 62, 0
3, 281520, Note_on_c, 0, 54, 0
3, 281520, Note_on_c, 0, 54, 21
3, 281520, Note_on_c, 0, 57, 21
3, 281520, Note_on_c, 0, 62, 21
3, 281576, Note_on_c, 0, 39, 0
3, 281576, Note_on_c, 0, 46, 0
3, 281593, Note_on_c, 0, 38, 39
3, 281593, Note_on_c, 0, 45, 38
3, 281658, Note_on_c, 0, 45, 0
3, 281658, Note_on_c, 0, 38, 0
3, 281676, Note_on_c, 0, 39, 25
3, 281676, Note_on_c, 0, 46, 21
3, 281742, Note_on_c, 0, 46, 0
3, 281742, Note_on_c, 0, 39, 0
3, 281759, Note_on_c, 0, 57, 0
3, 281759, Note_on_c, 0, 54, 0
3, 281759, Note_on_c, 0, 62, 0
3, 281759, Note_on_c, 0, 54, 21
3, 281759, Note_on_c, 0, 57, 21
3, 281762, Note_on_c, 0, 38, 35
3, 281762, Note_on_c, 0, 45, 34
3, 281829, Note_on_c, 0, 45, 0
3, 281829, Note_on_c, 0, 38, 0
3, 281849, Note_on_c, 0, 39, 36
3, 281849, Note_on_c, 0, 46, 34
3, 281918, Note_on_c, 0, 46, 0
3, 281918, Note_on_c, 0, 39, 0
3, 281939, Note_on_c, 0, 38, 34
3, 281939, Note_on_c, 0, 45, 37
3, 282000, Note_on_c, 0, 57, 0
3, 282000, Note_on_c, 0, 54, 0
3, 282000, Note_on_c, 0, 54, 25
3, 282000, Note_on_c, 0, 57, 25
3, 282011, Note_on_c, 0, 38, 0
3, 282011, Note_on_c, 0, 45, 0
3, 282032, Note_on_c, 0, 39, 26
3, 282032, Note_on_c, 0, 46, 32
3, 282105, Note_on_c, 0, 46, 0
3, 282105, Note_on_c, 0, 39, 0
3, 282126, Note_on_c, 0, 38, 31
3, 282126, Note_on_c, 0, 45, 29
3, 282201, Note_on_c, 0, 45, 0
3, 282201, Note_on_c, 0, 38, 0
3, 282223, Note_on_c, 0, 39, 31
3, 282223, Note_on_c, 0, 46, 25
3, 282240, Note_on_c, 0, 46, 0
3, 282240, Note_on_c, 0, 57, 0
3, 282240, Note_on_c, 0, 54, 0
3, 282240, Note_on_c, 0, 39, 0
3, 282240, Note_on_c, 0, 55, 30
3, 282240, Note_on_c, 0, 61, 30
3, 282240, Note_on_c, 0, 38, 37
3, 282240, Note_on_c, 0, 45, 37
3, 282240, Note_on_c, 0, 52, 37
3, 282479, Note_on_c, 0, 61, 0
3, 282479, Note_on_c, 0, 55, 0
3, 282479, Note_on_c, 0, 55, 38
3, 282479, Note_on_c, 0, 57, 38
3, 282479, Note_on_c, 0, 61, 38
3, 282479, Note_on_c, 0, 67, 38
3, 282720, Note_on_c, 0, 67, 0
3, 282720, Note_on_c, 0, 57, 0
3, 282720, Note_on_c, 0, 55, 0
3, 282720, Note_on_c, 0, 61, 0
3, 282720, Note_on_c, 0, 55, 28
3, 282720, Note_on_c, 0, 57, 28
3, 282720, Note_on_c, 0, 61, 28
3, 282720, Note_on_c, 0, 67, 28
3, 282960, Note_on_c, 0, 67, 0
3, 282960, Note_on_c, 0, 57, 0
3, 282960, Note_on_c, 0, 55, 0
3, 282960, Note_on_c, 0, 61, 0
3, 282960, Note_on_c, 0, 55, 29
3, 282960, Note_on_c, 0, 57, 29
3, 282960, Note_on_c, 0, 61, 29
3, 282960, Note_on_c, 0, 67, 29
3, 283199, Note_on_c, 0, 67, 0
3, 283199, Note_on_c, 0, 57, 0
3, 283199, Note_on_c, 0, 55, 0
3, 283199, Note_on_c, 0, 61, 0
3, 283199, Note_on_c, 0, 55, 25
3, 283199, Note_on_c, 0, 57, 25
3, 283199, Note_on_c, 0, 61, 25
3, 283199, Note_on_c, 0, 67, 25
3, 283440, Note_on_c, 0, 67, 0
3, 283440, Note_on_c, 0, 57, 0
3, 283440, Note_on_c, 0, 55, 0
3, 283440, Note_on_c, 0, 61, 0
3, 283440, Note_on_c, 0, 55, 28
3, 283440, Note_on_c, 0, 57, 28
3, 283440, Note_on_c, 0, 61, 28
3, 283440, Note_on_c, 0, 67, 28
3, 283680, Note_on_c, 0, 67, 0
3, 283680, Note_on_c, 0, 57, 0
3, 283680, Note_on_c, 0, 55, 0
3, 283680, Note_on_c, 0, 61, 0
3, 283680, Note_on_c, 0, 55, 14
3, 283680, Note_on_c, 0, 62, 14
3, 283919, Note_on_c, 0, 62, 0
3, 283919, Note_on_c, 0, 55, 0
3, 283919, Note_on_c, 0, 55, 32
3, 283919, Note_on_c, 0, 59, 32
3, 283919, Note_on_c, 0, 62, 32
3, 283919, Note_on_c, 0, 67, 32
3, 284160, Note_on_c, 0, 67, 0
3, 284160, Note_on_c, 0, 59, 0
3, 284160, Note_on_c, 0, 55, 0
3, 284160, Note_on_c, 0, 62, 0
3, 284160, Note_on_c, 0, 55, 24
3, 284160, Note_on_c, 0, 59, 24
3, 284160, Note_on_c, 0, 62, 24
3, 284160, Note_on_c, 0, 67, 24
3, 284400, Note_on_c, 0, 67, 0
3, 284400, Note_on_c, 0, 59, 0
3, 284400, Note_on_c, 0, 55, 0
3, 284400, Note_on_c, 0, 62, 0
3, 284400, Note_on_c, 0, 55, 29
3, 284400, Note_on_c, 0, 59, 29
3, 284400, Note_on_c, 0, 62, 29
3, 284400, Note_on_c, 0, 67, 29
3, 284639, Note_on_c, 0, 67, 0
3, 284639, Note_on_c, 0, 59, 0
3, 284639, Note_on_c, 0, 55, 0
3, 284639, Note_on_c, 0, 62, 0
3, 284639, Note_on_c, 0, 55, 27
3, 284639, Note_on_c, 0, 59, 27
3, 284639, Note_on_c, 0, 62, 27
3, 284639, Note_on_c, 0, 67, 27
3, 284880, Note_on_c, 0, 67, 0
3, 284880, Note_on_c, 0, 59, 0
3, 284880, Note_on_c, 0, 55, 0
3, 284880, Note_on_c, 0, 62, 0
3, 284880, Note_on_c, 0, 55, 19
3, 284880, Note_on_c, 0, 59, 19
3, 284880, Note_on_c, 0, 62, 19
3, 284880, Note_on_c, 0, 67, 19
3, 285120, Note_on_c, 0, 67, 0
3, 285120, Note_on_c, 0, 59, 0
3, 285120, Note_on_c, 0, 55, 0
3, 285120, Note_on_c, 0, 62, 0
3, 285120, Note_on_c, 0, 55, 16
3, 285120, Note_on_c, 0, 61, 16
3, 285359, Note_on_c, 0, 61, 0
3, 285359, Note_on_c, 0, 55, 0
3, 285359, Note_on_c, 0, 55, 33
3, 285359, Note_on_c, 0, 57, 33
3, 285359, Note_on_c, 0, 61, 33
3, 285359, Note_on_c, 0, 67, 33
3, 285600, Note_on_c, 0, 67, 0
3, 285600, Note_on_c, 0, 57, 0
3, 285600, Note_on_c, 0, 55, 0
3, 285600, Note_on_c, 0, 61, 0
3, 285600, Note_on_c, 0, 55, 24
3, 285600, Note_on_c, 0, 57, 24
3, 285600, Note_on_c, 0, 61, 24
3, 285600, Note_on_c, 0, 67, 24
3, 285840, Note_on_c, 0, 67, 0
3, 285840, Note_on_c, 0, 57, 0
3, 285840, Note_on_c, 0, 55, 0
3, 285840, Note_on_c, 0, 61, 0
3, 285840, Note_on_c, 0, 55, 22
3, 285840, Note_on_c, 0, 57, 22
3, 285840, Note_on_c, 0, 61, 22
3, 285840, Note_on_c, 0, 67, 22
3, 286079, Note_on_c, 0, 67, 0
3, 286079, Note_on_c, 0, 57, 0
3, 286079, Note_on_c, 0, 55, 0
3, 286079, Note_on_c, 0, 61, 0
3, 286079, Note_on_c, 0, 55, 26
3, 286079, Note_on_c, 0, 57, 26
3, 286079, Note_on_c, 0, 61, 26
3, 286079, Note_on_c, 0, 67, 26
3, 286320, Note_on_c, 0, 67, 0
3, 286320, Note_on_c, 0, 57, 0
3, 286320, Note_on_c, 0, 55, 0
3, 286320, Note_on_c, 0, 61, 0
3, 286320, Note_on_c, 0, 55, 26
3, 286320, Note_on_c, 0, 57, 26
3, 286320, Note_on_c, 0, 61, 26
3, 286320, Note_on_c, 0, 67, 26
3, 286560, Note_on_c, 0, 67, 0
3, 286560, Note_on_c, 0, 57, 0
3, 286560, Note_on_c, 0, 55, 0
3, 286560, Note_on_c, 0, 61, 0
3, 286560, Note_on_c, 0, 55, 19
3, 286560, Note_on_c, 0, 59, 19
3, 286799, Note_on_c, 0, 59, 0
3, 286799, Note_on_c, 0, 55, 0
3, 286799, Note_on_c, 0, 55, 33
3, 286799, Note_on_c, 0, 59, 33
3, 286799, Note_on_c, 0, 66, 33
3, 287040, Note_on_c, 0, 66, 0
3, 287040, Note_on_c, 0, 55, 0
3, 287040, Note_on_c, 0, 59, 0
3, 287040, Note_on_c, 0, 55, 30
3, 287040, Note_on_c, 0, 59, 30
3, 287040, Note_on_c, 0, 66, 30
3, 287280, Note_on_c, 0, 66, 0
3, 287280, Note_on_c, 0, 55, 0
3, 287280, Note_on_c, 0, 59, 0
3, 287280, Note_on_c, 0, 55, 22
3, 287280, Note_on_c, 0, 59, 22
3, 287280, Note_on_c, 0, 64, 22
3, 287519, Note_on_c, 0, 64, 0
3, 287519, Note_on_c, 0, 55, 0
3, 287519, Note_on_c, 0, 59, 0
3, 287519, Note_on_c, 0, 55, 22
3, 287519, Note_on_c, 0, 59, 22
3, 287519, Note_on_c, 0, 64, 22
3, 287760, Note_on_c, 0, 64, 0
3, 287760, Note_on_c, 0, 55, 0
3, 287760, Note_on_c, 0, 59, 0
3, 287760, Note_on_c, 0, 55, 24
3, 287760, Note_on_c, 0, 59, 24
3, 287760, Note_on_c, 0, 64, 24
3, 288000, Note_on_c, 0, 64, 0
3, 288000, Note_on_c, 0, 45, 0
3, 288000, Note_on_c, 0, 38, 0
3, 288000, Note_on_c, 0, 52, 0
3, 288000, Note_on_c, 0, 59, 0
3, 288000, Note_on_c, 0, 55, 0
3, 288000, Note_on_c, 0, 55, 20
3, 288000, Note_on_c, 0, 57, 20
3, 288000, Note_on_c, 0, 37, 34
3, 288000, Note_on_c, 0, 49, 34
3, 288239, Note_on_c, 0, 57, 0
3, 288239, Note_on_c, 0, 55, 0
3, 288239, Note_on_c, 0, 55, 36
3, 288239, Note_on_c, 0, 57, 36
3, 288239, Note_on_c, 0, 64, 36
3, 288480, Note_on_c, 0, 64, 0
3, 288480, Note_on_c, 0, 55, 0
3, 288480, Note_on_c, 0, 57, 0
3, 288480, Note_on_c, 0, 55, 25
3, 288480, Note_on_c, 0, 57, 25
3, 288480, Note_on_c, 0, 64, 25
3, 288720, Note_on_c, 0, 64, 0
3, 288720, Note_on_c, 0, 55, 0
3, 288720, Note_on_c, 0, 57, 0
3, 288720, Note_on_c, 0, 55, 24
3, 288720, Note_on_c, 0, 57, 24
3, 288720, Note_on_c, 0, 64, 24
3, 288959, Note_on_c, 0, 64, 0
3, 288959, Note_on_c, 0, 55, 0
3, 288959, Note_on_c, 0, 57, 0
3, 288959, Note_on_c, 0, 55, 26
3, 288959, Note_on_c, 0, 57, 26
3, 288959, Note_on_c, 0, 64, 26
3, 289200, Note_on_c, 0, 64, 0
3, 289200, Note_on_c, 0, 55, 0
3, 289200, Note_on_c, 0, 57, 0
3, 289200, Note_on_c, 0, 55, 28
3, 289200, Note_on_c, 0, 57, 28
3, 289200, Note_on_c, 0, 64, 28
3, 289440, Note_on_c, 0, 64, 0
3, 289440, Note_on_c, 0, 49, 0
3, 289440, Note_on_c, 0, 37, 0
3, 289440, Note_on_c, 0, 63, 35
3, 289440, Note_on_c, 0, 36, 35
3, 289440, Note_on_c, 0, 48, 35
3, 289679, Note_on_c, 0, 55, 0
3, 289679, Note_on_c, 0, 57, 0
3, 289679, Note_on_c, 0, 55, 36
3, 289679, Note_on_c, 0, 57, 36
3, 289679, Note_on_c, 0, 63, 36
3, 289800, Note_on_c, 0, 63, 0
3, 289920, Note_on_c, 0, 57, 0
3, 289920, Note_on_c, 0, 55, 0
3, 289920, Note_on_c, 0, 63, 0
3, 289920, Note_on_c, 0, 55, 33
3, 289920, Note_on_c, 0, 57, 33
3, 289920, Note_on_c, 0, 63, 33
3, 290160, Note_on_c, 0, 63, 0
3, 290160, Note_on_c, 0, 55, 0
3, 290160, Note_on_c, 0, 57, 0
3, 290160, Note_on_c, 0, 55, 24
3, 290160, Note_on_c, 0, 57, 24
3, 290160, Note_on_c, 0, 63, 24
3, 290399, Note_on_c, 0, 63, 0
3, 290399, Note_on_c, 0, 55, 0
3, 290399, Note_on_c, 0, 57, 0
3, 290399, Note_on_c, 0, 55, 26
3, 290399, Note_on_c, 0, 57, 26
3, 290399, Note_on_c, 0, 63, 26
3, 290640, Note_on_c, 0, 63, 0
3, 290640, Note_on_c, 0, 55, 0
3, 290640, Note_on_c, 0, 57, 0
3, 290640, Note_on_c, 0, 55, 24
3, 290640, Note_on_c, 0, 57, 24
3, 290640, Note_on_c, 0, 63, 24
3, 290880, Note_on_c, 0, 63, 0
3, 290880, Note_on_c, 0, 36, 0
3, 290880, Note_on_c, 0, 48, 0
3, 290880, Note_on_c, 0, 63, 26
3, 290880, Note_on_c, 0, 35, 38
3, 290880, Note_on_c, 0, 47, 38
3, 291119, Note_on_c, 0, 63, 0
3, 291119, Note_on_c, 0, 57, 0
3, 291119, Note_on_c, 0, 55, 0
3, 291119, Note_on_c, 0, 55, 29
3, 291119, Note_on_c, 0, 57, 29
3, 291119, Note_on_c, 0, 63, 29
3, 291360, Note_on_c, 0, 63, 0
3, 291360, Note_on_c, 0, 55, 0
3, 291360, Note_on_c, 0, 57, 0
3, 291360, Note_on_c, 0, 55, 20
3, 291360, Note_on_c, 0, 57, 20
3, 291360, Note_on_c, 0, 63, 20
3, 291600, Note_on_c, 0, 63, 0
3, 291600, Note_on_c, 0, 55, 0
3, 291600, Note_on_c, 0, 57, 0
3, 291600, Note_on_c, 0, 54, 29
3, 291600, Note_on_c, 0, 57, 29
3, 291600, Note_on_c, 0, 63, 29
3, 291839, Note_on_c, 0, 63, 0
3, 291839, Note_on_c, 0, 54, 0
3, 291839, Note_on_c, 0, 57, 0
3, 291839, Note_on_c, 0, 54, 25
3, 291839, Note_on_c, 0, 57, 25
3, 291839, Note_on_c, 0, 63, 25
3, 292080, Note_on_c, 0, 63, 0
3, 292080, Note_on_c, 0, 54, 0
3, 292080, Note_on_c, 0, 57, 0
3, 292080, Note_on_c, 0, 54, 23
3, 292080, Note_on_c, 0, 57, 23
3, 292080, Note_on_c, 0, 63, 23
3, 292320, Note_on_c, 0, 63, 0
3, 292320, Note_on_c, 0, 54, 0
3, 292320, Note_on_c, 0, 47, 0
3, 292320, Note_on_c, 0, 35, 0
3, 292320, Note_on_c, 0, 57, 0
3, 292320, Note_on_c, 0, 55, 24
3, 292320, Note_on_c, 0, 59, 24
3, 292320, Note_on_c, 0, 62, 24
3, 292320, Note_on_c, 0, 33, 32
3, 292320, Note_on_c, 0, 45, 32
3, 292559, Note_on_c, 0, 62, 0
3, 292559, Note_on_c, 0, 55, 0
3, 292559, Note_on_c, 0, 59, 0
3, 292559, Note_on_c, 0, 55, 26
3, 292559, Note_on_c, 0, 59, 26
3, 292559, Note_on_c, 0, 62, 26
3, 292800, Note_on_c, 0, 62, 0
3, 292800, Note_on_c, 0, 55, 0
3, 292800, Note_on_c, 0, 59, 0
3, 292800, Note_on_c, 0, 55, 24
3, 292800, Note_on_c, 0, 59, 24
3, 292800, Note_on_c, 0, 62, 24
3, 293040, Note_on_c, 0, 62, 0
3, 293040, Note_on_c, 0, 55, 0
3, 293040, Note_on_c, 0, 59, 0
3, 293040, Note_on_c, 0, 55, 21
3, 293040, Note_on_c, 0, 57, 21
3, 293040, Note_on_c, 0, 61, 21
3, 293279, Note_on_c, 0, 61, 0
3, 293279, Note_on_c, 0, 55, 0
3, 293279, Note_on_c, 0, 57, 0
3, 293279, Note_on_c, 0, 55, 23
3, 293279, Note_on_c, 0, 57, 23
3, 293279, Note_on_c, 0, 61, 23
3, 293520, Note_on_c, 0, 61, 0
3, 293520, Note_on_c, 0, 55, 0
3, 293520, Note_on_c, 0, 57, 0
3, 293520, Note_on_c, 0, 55, 23
3, 293520, Note_on_c, 0, 57, 23
3, 293520, Note_on_c, 0, 61, 23
3, 293760, Note_on_c, 0, 61, 0
3, 293760, Note_on_c, 0, 55, 0
3, 293760, Note_on_c, 0, 57, 0
3, 293760, Note_on_c, 0, 55, 25
3, 293760, Note_on_c, 0, 59, 25
3, 293760, Note_on_c, 0, 62, 25
3, 293999, Note_on_c, 0, 62, 0
3, 293999, Note_on_c, 0, 55, 0
3, 293999, Note_on_c, 0, 59, 0
3, 293999, Note_on_c, 0, 55, 25
3, 293999, Note_on_c, 0, 59, 25
3, 293999, Note_on_c, 0, 62, 25
3, 294240, Note_on_c, 0, 62, 0
3, 294240, Note_on_c, 0, 55, 0
3, 294240, Note_on_c, 0, 59, 0
3, 294240, Note_on_c, 0, 55, 21
3, 294240, Note_on_c, 0, 59, 21
3, 294240, Note_on_c, 0, 62, 21
3, 294480, Note_on_c, 0, 62, 0
3, 294480, Note_on_c, 0, 55, 0
3, 294480, Note_on_c, 0, 59, 0
3, 294480, Note_on_c, 0, 55, 32
3, 294480, Note_on_c, 0, 59, 32
3, 294480, Note_on_c, 0, 64, 32
3, 294719, Note_on_c, 0, 64, 0
3, 294719, Note_on_c, 0, 55, 0
3, 294719, Note_on_c, 0, 59, 0
3, 294719, Note_on_c, 0, 55, 28
3, 294719, Note_on_c, 0, 59, 28
3, 294719, Note_on_c, 0, 64, 28
3, 294960, Note_on_c, 0, 64, 0
3, 294960, Note_on_c, 0, 55, 0
3, 294960, Note_on_c, 0, 59, 0
3, 294960, Note_on_c, 0, 55, 24
3, 294960, Note_on_c, 0, 59, 24
3, 294960, Note_on_c, 0, 64, 24
3, 295200, Note_on_c, 0, 64, 0
3, 295200, Note_on_c, 0, 55, 0
3, 295200, Note_on_c, 0, 59, 0
3, 295200, Note_on_c, 0, 52, 24
3, 295200, Note_on_c, 0, 55, 24
3, 295200, Note_on_c, 0, 62, 24
3, 295439, Note_on_c, 0, 62, 0
3, 295439, Note_on_c, 0, 52, 0
3, 295439, Note_on_c, 0, 55, 0
3, 295439, Note_on_c, 0, 52, 26
3, 295439, Note_on_c, 0, 55, 26
3, 295439, Note_on_c, 0, 62, 26
3, 295680, Note_on_c, 0, 62, 0
3, 295680, Note_on_c, 0, 52, 0
3, 295680, Note_on_c, 0, 55, 0
3, 295680, Note_on_c, 0, 52, 24
3, 295680, Note_on_c, 0, 55, 24
3, 295680, Note_on_c, 0, 62, 24
3, 295920, Note_on_c, 0, 62, 0
3, 295920, Note_on_c, 0, 52, 0
3, 295920, Note_on_c, 0, 55, 0
3, 295920, Note_on_c, 0, 52, 24
3, 295920, Note_on_c, 0, 55, 24
3, 295920, Note_on_c, 0, 61, 24
3, 296159, Note_on_c, 0, 61, 0
3, 296159, Note_on_c, 0, 52, 0
3, 296159, Note_on_c, 0, 55, 0
3, 296159, Note_on_c, 0, 52, 20
3, 296159, Note_on_c, 0, 55, 20
3, 296159, Note_on_c, 0, 61, 20
3, 296400, Note_on_c, 0, 61, 0
3, 296400, Note_on_c, 0, 52, 0
3, 296400, Note_on_c, 0, 55, 0
3, 296400, Note_on_c, 0, 52, 23
3, 296400, Note_on_c, 0, 55, 23
3, 296400, Note_on_c, 0, 61, 23
3, 296640, Note_on_c, 0, 61, 0
3, 296640, Note_on_c, 0, 59, 22
3, 296879, Note_on_c, 0, 59, 0
3, 296879, Note_on_c, 0, 55, 0
3, 296879, Note_on_c, 0, 52, 0
3, 296879, Note_on_c, 0, 52, 27
3, 296879, Note_on_c, 0, 55, 27
3, 296879, Note_on_c, 0, 59, 27
3, 297120, Note_on_c, 0, 59, 0
3, 297120, Note_on_c, 0, 52, 0
3, 297120, Note_on_c, 0, 55, 0
3, 297120, Note_on_c, 0, 52, 25
3, 297120, Note_on_c, 0, 55, 25
3, 297120, Note_on_c, 0, 59, 25
3, 297360, Note_on_c, 0, 59, 0
3, 297360, Note_on_c, 0, 52, 0
3, 297360, Note_on_c, 0, 55, 0
3, 297360, Note_on_c, 0, 52, 30
3, 297360, Note_on_c, 0, 55, 30
3, 297360, Note_on_c, 0, 59, 30
3, 297599, Note_on_c, 0, 59, 0
3, 297599, Note_on_c, 0, 52, 0
3, 297599, Note_on_c, 0, 55, 0
3, 297599, Note_on_c, 0, 52, 27
3, 297599, Note_on_c, 0, 55, 27
3, 297599, Note_on_c, 0, 59, 27
3, 297840, Note_on_c, 0, 59, 0
3, 297840, Note_on_c, 0, 52, 0
3, 297840, Note_on_c, 0, 55, 0
3, 297840, Note_on_c, 0, 52, 29
3, 297840, Note_on_c, 0, 55, 29
3, 297840, Note_on_c, 0, 59, 29
3, 298080, Note_on_c, 0, 59, 0
3, 298080, Note_on_c, 0, 52, 0
3, 298080, Note_on_c, 0, 45, 0
3, 298080, Note_on_c, 0, 33, 0
3, 298080, Note_on_c, 0, 55, 0
3, 298080, Note_on_c, 0, 52, 33
3, 298080, Note_on_c, 0, 55, 33
3, 298080, Note_on_c, 0, 61, 33
3, 298080, Note_on_c, 0, 33, 35
3, 298080, Note_on_c, 0, 45, 35
3, 298319, Note_on_c, 0, 61, 0
3, 298319, Note_on_c, 0, 52, 0
3, 298319, Note_on_c, 0, 55, 0
3, 298319, Note_on_c, 0, 52, 28
3, 298319, Note_on_c, 0, 55, 28
3, 298319, Note_on_c, 0, 61, 28
3, 298560, Note_on_c, 0, 61, 0
3, 298560, Note_on_c, 0, 52, 0
3, 298560, Note_on_c, 0, 55, 0
3, 298560, Note_on_c, 0, 52, 26
3, 298560, Note_on_c, 0, 55, 26
3, 298560, Note_on_c, 0, 61, 26
3, 298800, Note_on_c, 0, 61, 0
3, 298800, Note_on_c, 0, 52, 0
3, 298800, Note_on_c, 0, 55, 0
3, 298800, Note_on_c, 0, 52, 25
3, 298800, Note_on_c, 0, 55, 25
3, 298800, Note_on_c, 0, 61, 25
3, 299039, Note_on_c, 0, 61, 0
3, 299039, Note_on_c, 0, 52, 0
3, 299039, Note_on_c, 0, 55, 0
3, 299039, Note_on_c, 0, 52, 22
3, 299039, Note_on_c, 0, 55, 22
3, 299039, Note_on_c, 0, 61, 22
3, 299280, Note_on_c, 0, 61, 0
3, 299280, Note_on_c, 0, 52, 0
3, 299280, Note_on_c, 0, 55, 0
3, 299280, Note_on_c, 0, 52, 30
3, 299280, Note_on_c, 0, 55, 30
3, 299280, Note_on_c, 0, 61, 30
3, 299520, Note_on_c, 0, 61, 0
3, 299520, Note_on_c, 0, 52, 0
3, 299520, Note_on_c, 0, 45, 0
3, 299520, Note_on_c, 0, 33, 0
3, 299520, Note_on_c, 0, 55, 0
3, 299520, Note_on_c, 0, 51, 24
3, 299520, Note_on_c, 0, 55, 24
3, 299520, Note_on_c, 0, 60, 24
3, 299520, Note_on_c, 0, 31, 32
3, 299520, Note_on_c, 0, 43, 32
3, 299759, Note_on_c, 0, 60, 0
3, 299759, Note_on_c, 0, 51, 0
3, 299759, Note_on_c, 0, 55, 0
3, 299759, Note_on_c, 0, 51, 22
3, 299759, Note_on_c, 0, 55, 22
3, 299759, Note_on_c, 0, 60, 22
3, 300000, Note_on_c, 0, 60, 0
3, 300000, Note_on_c, 0, 51, 0
3, 300000, Note_on_c, 0, 55, 0
3, 300000, Note_on_c, 0, 51, 27
3, 300000, Note_on_c, 0, 55, 27
3, 300000, Note_on_c, 0, 60, 27
3, 300240, Note_on_c, 0, 60, 0
3, 300240, Note_on_c, 0, 51, 0
3, 300240, Note_on_c, 0, 55, 0
3, 300240, Note_on_c, 0, 51, 28
3, 300240, Note_on_c, 0, 55, 28
3, 300240, Note_on_c, 0, 60, 28
3, 300479, Note_on_c, 0, 60, 0
3, 300479, Note_on_c, 0, 51, 0
3, 300479, Note_on_c, 0, 55, 0
3, 300479, Note_on_c, 0, 51, 26
3, 300479, Note_on_c, 0, 55, 26
3, 300479, Note_on_c, 0, 60, 26
3, 300720, Note_on_c, 0, 60, 0
3, 300720, Note_on_c, 0, 51, 0
3, 300720, Note_on_c, 0, 55, 0
3, 300720, Note_on_c, 0, 51, 27
3, 300720, Note_on_c, 0, 55, 27
3, 300720, Note_on_c, 0, 60, 27
3, 300960, Note_on_c, 0, 60, 0
3, 300960, Note_on_c, 0, 51, 0
3, 300960, Note_on_c, 0, 43, 0
3, 300960, Note_on_c, 0, 31, 0
3, 300960, Note_on_c, 0, 55, 0
3, 300960, Note_on_c, 0, 51, 26
3, 300960, Note_on_c, 0, 57, 26
3, 300960, Note_on_c, 0, 59, 26
3, 300960, Note_on_c, 0, 30, 36
3, 300960, Note_on_c, 0, 42, 36
3, 301199, Note_on_c, 0, 59, 0
3, 301199, Note_on_c, 0, 51, 0
3, 301199, Note_on_c, 0, 57, 0
3, 301199, Note_on_c, 0, 51, 21
3, 301199, Note_on_c, 0, 57, 21
3, 301199, Note_on_c, 0, 59, 21
3, 301440, Note_on_c, 0, 59, 0
3, 301440, Note_on_c, 0, 51, 0
3, 301440, Note_on_c, 0, 57, 0
3, 301440, Note_on_c, 0, 51, 23
3, 301440, Note_on_c, 0, 57, 23
3, 301440, Note_on_c, 0, 59, 23
3, 301680, Note_on_c, 0, 59, 0
3, 301680, Note_on_c, 0, 51, 0
3, 301680, Note_on_c, 0, 57, 0
3, 301680, Note_on_c, 0, 51, 23
3, 301680, Note_on_c, 0, 57, 23
3, 301680, Note_on_c, 0, 59, 23
3, 301919, Note_on_c, 0, 59, 0
3, 301919, Note_on_c, 0, 51, 0
3, 301919, Note_on_c, 0, 57, 0
3, 301919, Note_on_c, 0, 51, 26
3, 301919, Note_on_c, 0, 57, 26
3, 301919, Note_on_c, 0, 59, 26
3, 302160, Note_on_c, 0, 59, 0
3, 302160, Note_on_c, 0, 51, 0
3, 302160, Note_on_c, 0, 57, 0
3, 302160, Note_on_c, 0, 51, 23
3, 302160, Note_on_c, 0, 57, 23
3, 302160, Note_on_c, 0, 59, 23
3, 302400, Note_on_c, 0, 59, 0
3, 302400, Note_on_c, 0, 51, 0
3, 302400, Note_on_c, 0, 42, 0
3, 302400, Note_on_c, 0, 30, 0
3, 302400, Note_on_c, 0, 57, 0
3, 302400, Note_on_c, 0, 50, 25
3, 302400, Note_on_c, 0, 59, 25
3, 302400, Note_on_c, 0, 55, 19
3, 302400, Note_on_c, 0, 40, 35
3, 302400, Note_on_c, 0, 28, 28
3, 302639, Note_on_c, 0, 59, 0
3, 302639, Note_on_c, 0, 50, 0
3, 302639, Note_on_c, 0, 50, 30
3, 302639, Note_on_c, 0, 59, 30
3, 302639, Note_on_c, 0, 62, 30
3, 302880, Note_on_c, 0, 62, 0
3, 302880, Note_on_c, 0, 50, 0
3, 302880, Note_on_c, 0, 59, 0
3, 302880, Note_on_c, 0, 50, 23
3, 302880, Note_on_c, 0, 59, 23
3, 302880, Note_on_c, 0, 62, 23
3, 303120, Note_on_c, 0, 62, 0
3, 303120, Note_on_c, 0, 50, 0
3, 303120, Note_on_c, 0, 28, 0
3, 303120, Note_on_c, 0, 59, 0
3, 303120, Note_on_c, 0, 50, 25
3, 303120, Note_on_c, 0, 59, 25
3, 303120, Note_on_c, 0, 62, 25
3, 303359, Note_on_c, 0, 62, 0
3, 303359, Note_on_c, 0, 50, 0
3, 303359, Note_on_c, 0, 59, 0
3, 303359, Note_on_c, 0, 50, 23
3, 303359, Note_on_c, 0, 59, 23
3, 303359, Note_on_c, 0, 62, 23
3, 303600, Note_on_c, 0, 62, 0
3, 303600, Note_on_c, 0, 50, 0
3, 303600, Note_on_c, 0, 59, 0
3, 303600, Note_on_c, 0, 50, 20
3, 303600, Note_on_c, 0, 59, 20
3, 303600, Note_on_c, 0, 62, 20
3, 303840, Note_on_c, 0, 62, 0
3, 303840, Note_on_c, 0, 55, 0
3, 303840, Note_on_c, 0, 40, 0
3, 303840, Note_on_c, 0, 42, 48
3, 303840, Note_on_c, 0, 54, 48
3, 304920, Note_on_c, 0, 50, 0
3, 304920, Note_on_c, 0, 59, 0
3, 304920, Note_on_c, 0, 50, 27
3, 304920, Note_on_c, 0, 59, 27
3, 305280, Note_on_c, 0, 42, 0
3, 305280, Note_on_c, 0, 54, 0
3, 305280, Note_on_c, 0, 43, 38
3, 305280, Note_on_c, 0, 52, 38
3, 305519, Note_on_c, 0, 50, 0
3, 305519, Note_on_c, 0, 59, 0
3, 305519, Note_on_c, 0, 50, 31
3, 305519, Note_on_c, 0, 59, 31
3, 305519, Note_on_c, 0, 62, 31
3, 305760, Note_on_c, 0, 62, 0
3, 305760, Note_on_c, 0, 50, 0
3, 305760, Note_on_c, 0, 59, 0
3, 305760, Note_on_c, 0, 50, 24
3, 305760, Note_on_c, 0, 59, 24
3, 305760, Note_on_c, 0, 62, 24
3, 306000, Note_on_c, 0, 62, 0
3, 306000, Note_on_c, 0, 50, 0
3, 306000, Note_on_c, 0, 59, 0
3, 306000, Note_on_c, 0, 50, 24
3, 306000, Note_on_c, 0, 59, 24
3, 306000, Note_on_c, 0, 62, 24
3, 306239, Note_on_c, 0, 62, 0
3, 306239, Note_on_c, 0, 50, 0
3, 306239, Note_on_c, 0, 59, 0
3, 306239, Note_on_c, 0, 50, 30
3, 306239, Note_on_c, 0, 59, 30
3, 306239, Note_on_c, 0, 62, 30
3, 306480, Note_on_c, 0, 62, 0
3, 306480, Note_on_c, 0, 50, 0
3, 306480, Note_on_c, 0, 59, 0
3, 306480, Note_on_c, 0, 50, 22
3, 306480, Note_on_c, 0, 59, 22
3, 306480, Note_on_c, 0, 62, 22
3, 306720, Note_on_c, 0, 62, 0
3, 306720, Note_on_c, 0, 50, 0
3, 306720, Note_on_c, 0, 52, 0
3, 306720, Note_on_c, 0, 43, 0
3, 306720, Note_on_c, 0, 59, 0
3, 306720, Note_on_c, 0, 50, 22
3, 306720, Note_on_c, 0, 59, 22
3, 306720, Note_on_c, 0, 42, 35
3, 306720, Note_on_c, 0, 54, 35
3, 307800, Note_on_c, 0, 59, 0
3, 307800, Note_on_c, 0, 50, 0
3, 307800, Note_on_c, 0, 50, 24
3, 307800, Note_on_c, 0, 59, 24
3, 308160, Note_on_c, 0, 42, 0
3, 308160, Note_on_c, 0, 54, 0
3, 308160, Note_on_c, 0, 55, 26
3, 308160, Note_on_c, 0, 40, 29
3, 308399, Note_on_c, 0, 50, 0
3, 308399, Note_on_c, 0, 59, 0
3, 308399, Note_on_c, 0, 50, 30
3, 308399, Note_on_c, 0, 59, 30
3, 308399, Note_on_c, 0, 62, 30
3, 308640, Note_on_c, 0, 62, 0
3, 308640, Note_on_c, 0, 50, 0
3, 308640, Note_on_c, 0, 59, 0
3, 308640, Note_on_c, 0, 50, 26
3, 308640, Note_on_c, 0, 59, 26
3, 308640, Note_on_c, 0, 62, 26
3, 308880, Note_on_c, 0, 62, 0
3, 308880, Note_on_c, 0, 50, 0
3, 308880, Note_on_c, 0, 59, 0
3, 308880, Note_on_c, 0, 50, 30
3, 308880, Note_on_c, 0, 59, 30
3, 308880, Note_on_c, 0, 62, 30
3, 309119, Note_on_c, 0, 62, 0
3, 309119, Note_on_c, 0, 50, 0
3, 309119, Note_on_c, 0, 59, 0
3, 309119, Note_on_c, 0, 50, 23
3, 309119, Note_on_c, 0, 59, 23
3, 309119, Note_on_c, 0, 62, 23
3, 309360, Note_on_c, 0, 62, 0
3, 309360, Note_on_c, 0, 50, 0
3, 309360, Note_on_c, 0, 59, 0
3, 309360, Note_on_c, 0, 50, 29
3, 309360, Note_on_c, 0, 59, 29
3, 309360, Note_on_c, 0, 62, 29
3, 309600, Note_on_c, 0, 62, 0
3, 309600, Note_on_c, 0, 40, 0
3, 309600, Note_on_c, 0, 55, 0
3, 309600, Note_on_c, 0, 42, 44
3, 309600, Note_on_c, 0, 54, 44
3, 310680, Note_on_c, 0, 50, 0
3, 310680, Note_on_c, 0, 59, 0
3, 310680, Note_on_c, 0, 50, 24
3, 310680, Note_on_c, 0, 59, 24
3, 311040, Note_on_c, 0, 42, 0
3, 311040, Note_on_c, 0, 54, 0
3, 311040, Note_on_c, 0, 43, 39
3, 311040, Note_on_c, 0, 52, 39
3, 311279, Note_on_c, 0, 50, 0
3, 311279, Note_on_c, 0, 59, 0
3, 311279, Note_on_c, 0, 50, 30
3, 311279, Note_on_c, 0, 59, 30
3, 311279, Note_on_c, 0, 62, 30
3, 311520, Note_on_c, 0, 62, 0
3, 311520, Note_on_c, 0, 50, 0
3, 311520, Note_on_c, 0, 59, 0
3, 311520, Note_on_c, 0, 50, 22
3, 311520, Note_on_c, 0, 59, 22
3, 311520, Note_on_c, 0, 62, 22
3, 311760, Note_on_c, 0, 62, 0
3, 311760, Note_on_c, 0, 50, 0
3, 311760, Note_on_c, 0, 59, 0
3, 311760, Note_on_c, 0, 50, 27
3, 311760, Note_on_c, 0, 59, 27
3, 311760, Note_on_c, 0, 62, 27
3, 311999, Note_on_c, 0, 62, 0
3, 311999, Note_on_c, 0, 50, 0
3, 311999, Note_on_c, 0, 59, 0
3, 311999, Note_on_c, 0, 50, 24
3, 311999, Note_on_c, 0, 59, 24
3, 311999, Note_on_c, 0, 62, 24
3, 312240, Note_on_c, 0, 62, 0
3, 312240, Note_on_c, 0, 50, 0
3, 312240, Note_on_c, 0, 59, 0
3, 312240, Note_on_c, 0, 50, 27
3, 312240, Note_on_c, 0, 59, 27
3, 312240, Note_on_c, 0, 62, 27
3, 312480, Note_on_c, 0, 62, 0
3, 312480, Note_on_c, 0, 52, 0
3, 312480, Note_on_c, 0, 43, 0
3, 312480, Note_on_c, 0, 45, 33
3, 312480, Note_on_c, 0, 54, 33
3, 313560, Note_on_c, 0, 50, 0
3, 313560, Note_on_c, 0, 59, 0
3, 313560, Note_on_c, 0, 50, 26
3, 313560, Note_on_c, 0, 59, 26
3, 313920, Note_on_c, 0, 59, 0
3, 313920, Note_on_c, 0, 54, 0
3, 313920, Note_on_c, 0, 45, 0
3, 313920, Note_on_c, 0, 58, 26
3, 313920, Note_on_c, 0, 43, 36
3, 313920, Note_on_c, 0, 52, 36
3, 314159, Note_on_c, 0, 58, 0
3, 314159, Note_on_c, 0, 50, 0
3, 314159, Note_on_c, 0, 50, 30
3, 314159, Note_on_c, 0, 58, 30
3, 314159, Note_on_c, 0, 62, 30
3, 314400, Note_on_c, 0, 62, 0
3, 314400, Note_on_c, 0, 50, 0
3, 314400, Note_on_c, 0, 58, 0
3, 314400, Note_on_c, 0, 50, 24
3, 314400, Note_on_c, 0, 58, 24
3, 314400, Note_on_c, 0, 62, 24
3, 314640, Note_on_c, 0, 62, 0
3, 314640, Note_on_c, 0, 50, 0
3, 314640, Note_on_c, 0, 58, 0
3, 314640, Note_on_c, 0, 50, 26
3, 314640, Note_on_c, 0, 58, 26
3, 314640, Note_on_c, 0, 62, 26
3, 314879, Note_on_c, 0, 62, 0
3, 314879, Note_on_c, 0, 50, 0
3, 314879, Note_on_c, 0, 58, 0
3, 314879, Note_on_c, 0, 50, 26
3, 314879, Note_on_c, 0, 58, 26
3, 314879, Note_on_c, 0, 62, 26
3, 315120, Note_on_c, 0, 62, 0
3, 315120, Note_on_c, 0, 50, 0
3, 315120, Note_on_c, 0, 58, 0
3, 315120, Note_on_c, 0, 50, 26
3, 315120, Note_on_c, 0, 58, 26
3, 315120, Note_on_c, 0, 62, 26
3, 315360, Note_on_c, 0, 62, 0
3, 315360, Note_on_c, 0, 52, 0
3, 315360, Note_on_c, 0, 50, 0
3, 315360, Note_on_c, 0, 43, 0
3, 315360, Note_on_c, 0, 50, 22
3, 315360, Note_on_c, 0, 52, 35
3, 315360, Note_on_c, 0, 42, 32
3, 315720, Note_on_c, 0, 58, 0
3, 315720, Note_on_c, 0, 58, 22
3, 316440, Note_on_c, 0, 58, 0
3, 316440, Note_on_c, 0, 52, 0
3, 316440, Note_on_c, 0, 52, 28
3, 316440, Note_on_c, 0, 58, 28
3, 316800, Note_on_c, 0, 58, 0
3, 316800, Note_on_c, 0, 42, 0
3, 316800, Note_on_c, 0, 58, 24
3, 316800, Note_on_c, 0, 55, 17
3, 316800, Note_on_c, 0, 40, 29
3, 317039, Note_on_c, 0, 50, 0
3, 317039, Note_on_c, 0, 50, 29
3, 317039, Note_on_c, 0, 58, 29
3, 317160, Note_on_c, 0, 52, 0
3, 317160, Note_on_c, 0, 58, 0
3, 317280, Note_on_c, 0, 50, 0
3, 317280, Note_on_c, 0, 58, 0
3, 317280, Note_on_c, 0, 50, 26
3, 317280, Note_on_c, 0, 58, 26
3, 317520, Note_on_c, 0, 58, 0
3, 317520, Note_on_c, 0, 50, 0
3, 317520, Note_on_c, 0, 50, 22
3, 317520, Note_on_c, 0, 58, 22
3, 317759, Note_on_c, 0, 58, 0
3, 317759, Note_on_c, 0, 50, 0
3, 317759, Note_on_c, 0, 50, 28
3, 317759, Note_on_c, 0, 58, 28
3, 318000, Note_on_c, 0, 58, 0
3, 318000, Note_on_c, 0, 50, 0
3, 318000, Note_on_c, 0, 50, 27
3, 318000, Note_on_c, 0, 58, 27
3, 318240, Note_on_c, 0, 58, 0
3, 318240, Note_on_c, 0, 40, 0
3, 318240, Note_on_c, 0, 55, 0
3, 318240, Note_on_c, 0, 52, 23
3, 318240, Note_on_c, 0, 43, 34
3, 318600, Note_on_c, 0, 58, 23
3, 319320, Note_on_c, 0, 55, 25
3, 319680, Note_on_c, 0, 55, 0
3, 319680, Note_on_c, 0, 43, 0
3, 319680, Note_on_c, 0, 58, 0
3, 319680, Note_on_c, 0, 54, 24
3, 319680, Note_on_c, 0, 57, 24
3, 319680, Note_on_c, 0, 33, 34
3, 319680, Note_on_c, 0, 45, 34
3, 319919, Note_on_c, 0, 57, 0
3, 319919, Note_on_c, 0, 54, 0
3, 319919, Note_on_c, 0, 54, 32
3, 319919, Note_on_c, 0, 57, 32
3, 319919, Note_on_c, 0, 62, 32
3, 320040, Note_on_c, 0, 50, 0
3, 320160, Note_on_c, 0, 57, 0
3, 320160, Note_on_c, 0, 54, 0
3, 320160, Note_on_c, 0, 62, 0
3, 320160, Note_on_c, 0, 54, 28
3, 320160, Note_on_c, 0, 57, 28
3, 320160, Note_on_c, 0, 62, 28
3, 320400, Note_on_c, 0, 62, 0
3, 320400, Note_on_c, 0, 54, 0
3, 320400, Note_on_c, 0, 57, 0
3, 320400, Note_on_c, 0, 53, 23
3, 320400, Note_on_c, 0, 56, 23
3, 320400, Note_on_c, 0, 62, 23
3, 320639, Note_on_c, 0, 62, 0
3, 320639, Note_on_c, 0, 53, 0
3, 320639, Note_on_c, 0, 56, 0
3, 320639, Note_on_c, 0, 53, 25
3, 320639, Note_on_c, 0, 56, 25
3, 320639, Note_on_c, 0, 62, 25
3, 320880, Note_on_c, 0, 62, 0
3, 320880, Note_on_c, 0, 53, 0
3, 320880, Note_on_c, 0, 56, 0
3, 320880, Note_on_c, 0, 53, 29
3, 320880, Note_on_c, 0, 56, 29
3, 320880, Note_on_c, 0, 62, 29
3, 321120, Note_on_c, 0, 56, 0
3, 321120, Note_on_c, 0, 53, 0
3, 321120, Note_on_c, 0, 54, 21
3, 321120, Note_on_c, 0, 57, 21
3, 321359, Note_on_c, 0, 57, 0
3, 321359, Note_on_c, 0, 62, 0
3, 321359, Note_on_c, 0, 54, 0
3, 321359, Note_on_c, 0, 54, 25
3, 321359, Note_on_c, 0, 57, 25
3, 321359, Note_on_c, 0, 62, 25
3, 321600, Note_on_c, 0, 62, 0
3, 321600, Note_on_c, 0, 54, 0
3, 321600, Note_on_c, 0, 57, 0
3, 321600, Note_on_c, 0, 54, 24
3, 321600, Note_on_c, 0, 57, 24
3, 321600, Note_on_c, 0, 62, 24
3, 321840, Note_on_c, 0, 62, 0
3, 321840, Note_on_c, 0, 54, 0
3, 321840, Note_on_c, 0, 57, 0
3, 321840, Note_on_c, 0, 54, 25
3, 321840, Note_on_c, 0, 57, 25
3, 321840, Note_on_c, 0, 62, 25
3, 322079, Note_on_c, 0, 62, 0
3, 322079, Note_on_c, 0, 54, 0
3, 322079, Note_on_c, 0, 57, 0
3, 322079, Note_on_c, 0, 54, 21
3, 322079, Note_on_c, 0, 57, 21
3, 322079, Note_on_c, 0, 62, 21
3, 322320, Note_on_c, 0, 62, 0
3, 322320, Note_on_c, 0, 54, 0
3, 322320, Note_on_c, 0, 57, 0
3, 322320, Note_on_c, 0, 54, 24
3, 322320, Note_on_c, 0, 57, 24
3, 322320, Note_on_c, 0, 62, 24
3, 322560, Note_on_c, 0, 62, 0
3, 322560, Note_on_c, 0, 54, 0
3, 322560, Note_on_c, 0, 57, 0
3, 322560, Note_on_c, 0, 54, 20
3, 322560, Note_on_c, 0, 60, 20
3, 322799, Note_on_c, 0, 60, 0
3, 322799, Note_on_c, 0, 54, 0
3, 322799, Note_on_c, 0, 54, 24
3, 322799, Note_on_c, 0, 60, 24
3, 323040, Note_on_c, 0, 60, 0
3, 323040, Note_on_c, 0, 54, 0
3, 323040, Note_on_c, 0, 54, 28
3, 323040, Note_on_c, 0, 60, 28
3, 323280, Note_on_c, 0, 60, 0
3, 323280, Note_on_c, 0, 54, 0
3, 323280, Note_on_c, 0, 54, 26
3, 323280, Note_on_c, 0, 59, 26
3, 323519, Note_on_c, 0, 59, 0
3, 323519, Note_on_c, 0, 54, 0
3, 323519, Note_on_c, 0, 54, 27
3, 323519, Note_on_c, 0, 59, 27
3, 323760, Note_on_c, 0, 59, 0
3, 323760, Note_on_c, 0, 54, 0
3, 323760, Note_on_c, 0, 54, 22
3, 323760, Note_on_c, 0, 59, 22
3, 324000, Note_on_c, 0, 54, 0
3, 324000, Note_on_c, 0, 55, 19
3, 324239, Note_on_c, 0, 55, 0
3, 324239, Note_on_c, 0, 59, 0
3, 324239, Note_on_c, 0, 55, 25
3, 324239, Note_on_c, 0, 59, 25
3, 324480, Note_on_c, 0, 59, 0
3, 324480, Note_on_c, 0, 55, 0
3, 324480, Note_on_c, 0, 55, 25
3, 324480, Note_on_c, 0, 59, 25
3, 324720, Note_on_c, 0, 59, 0
3, 324720, Note_on_c, 0, 55, 0
3, 324720, Note_on_c, 0, 55, 25
3, 324720, Note_on_c, 0, 57, 25
3, 324959, Note_on_c, 0, 57, 0
3, 324959, Note_on_c, 0, 55, 0
3, 324959, Note_on_c, 0, 55, 29
3, 324959, Note_on_c, 0, 57, 29
3, 325200, Note_on_c, 0, 57, 0
3, 325200, Note_on_c, 0, 55, 0
3, 325200, Note_on_c, 0, 55, 23
3, 325200, Note_on_c, 0, 57, 23
3, 325440, Note_on_c, 0, 57, 0
3, 325440, Note_on_c, 0, 33, 0
3, 325440, Note_on_c, 0, 55, 0
3, 325440, Note_on_c, 0, 45, 0
3, 325440, Note_on_c, 0, 54, 24
3, 325440, Note_on_c, 0, 57, 24
3, 325440, Note_on_c, 0, 38, 32
3, 325679, Note_on_c, 0, 57, 0
3, 325679, Note_on_c, 0, 54, 0
3, 325679, Note_on_c, 0, 54, 27
3, 325679, Note_on_c, 0, 57, 27
3, 325920, Note_on_c, 0, 57, 0
3, 325920, Note_on_c, 0, 54, 0
3, 325920, Note_on_c, 0, 54, 27
3, 325920, Note_on_c, 0, 57, 27
3, 326160, Note_on_c, 0, 57, 0
3, 326160, Note_on_c, 0, 54, 0
3, 326160, Note_on_c, 0, 54, 25
3, 326160, Note_on_c, 0, 57, 25
3, 326399, Note_on_c, 0, 57, 0
3, 326399, Note_on_c, 0, 54, 0
3, 326399, Note_on_c, 0, 54, 24
3, 326399, Note_on_c, 0, 57, 24
3, 326640, Note_on_c, 0, 57, 0
3, 326640, Note_on_c, 0, 54, 0
3, 326640, Note_on_c, 0, 52, 25
3, 326640, Note_on_c, 0, 55, 25
3, 326880, Note_on_c, 0, 55, 0
3, 326880, Note_on_c, 0, 52, 0
3, 326880, Note_on_c, 0, 52, 25
3, 326880, Note_on_c, 0, 55, 25
3, 327119, Note_on_c, 0, 55, 0
3, 327119, Note_on_c, 0, 52, 0
3, 327119, Note_on_c, 0, 52, 26
3, 327119, Note_on_c, 0, 55, 26
3, 327360, Note_on_c, 0, 55, 0
3, 327360, Note_on_c, 0, 52, 0
3, 327360, Note_on_c, 0, 52, 28
3, 327360, Note_on_c, 0, 55, 28
3, 327600, Note_on_c, 0, 55, 0
3, 327600, Note_on_c, 0, 52, 0
3, 327600, Note_on_c, 0, 52, 24
3, 327600, Note_on_c, 0, 54, 24
3, 327839, Note_on_c, 0, 54, 0
3, 327839, Note_on_c, 0, 52, 0
3, 327839, Note_on_c, 0, 52, 30
3, 327839, Note_on_c, 0, 54, 30
3, 328080, Note_on_c, 0, 54, 0
3, 328080, Note_on_c, 0, 52, 0
3, 328080, Note_on_c, 0, 50, 29
3, 328080, Note_on_c, 0, 54, 29
3, 328320, Note_on_c, 0, 54, 0
3, 328320, Note_on_c, 0, 50, 0
3, 328320, Note_on_c, 0, 50, 29
3, 328320, Note_on_c, 0, 54, 29
3, 328559, Note_on_c, 0, 54, 0
3, 328559, Note_on_c, 0, 50, 0
3, 328559, Note_on_c, 0, 50, 26
3, 328559, Note_on_c, 0, 54, 26
3, 328800, Note_on_c, 0, 54, 0
3, 328800, Note_on_c, 0, 50, 0
3, 328800, Note_on_c, 0, 50, 22
3, 328800, Note_on_c, 0, 54, 22
3, 329040, Note_on_c, 0, 54, 0
3, 329040, Note_on_c, 0, 50, 0
3, 329040, Note_on_c, 0, 52, 26
3, 329279, Note_on_c, 0, 52, 0
3, 329279, Note_on_c, 0, 52, 23
3, 329400, Note_on_c, 0, 38, 0
3, 329400, Note_on_c, 0, 37, 32
3, 329520, Note_on_c, 0, 52, 0
3, 329520, Note_on_c, 0, 52, 25
3, 329760, Note_on_c, 0, 37, 0
3, 329760, Note_on_c, 0, 52, 0
3, 329760, Note_on_c, 0, 35, 33
3, 330120, Note_on_c, 0, 52, 0
3, 330120, Note_on_c, 0, 54, 25
3, 330480, Note_on_c, 0, 54, 0
3, 330480, Note_on_c, 0, 35, 0
3, 330480, Note_on_c, 0, 55, 28
3, 330480, Note_on_c, 0, 52, 23
3, 330480, Note_on_c, 0, 34, 32
3, 330719, Note_on_c, 0, 52, 0
3, 330719, Note_on_c, 0, 52, 25
3, 330840, Note_on_c, 0, 34, 0
3, 330840, Note_on_c, 0, 33, 32
3, 330960, Note_on_c, 0, 52, 0
3, 330960, Note_on_c, 0, 52, 24
3, 331200, Note_on_c, 0, 52, 0
3, 331200, Note_on_c, 0, 33, 0
3, 331200, Note_on_c, 0, 55, 0
3, 331200, Note_on_c, 0, 54, 28
3, 331200, Note_on_c, 0, 45, 47
3, 331200, Note_on_c, 0, 33, 28
3, 331560, Note_on_c, 0, 54, 0
3, 331560, Note_on_c, 0, 66, 82
3, 331920, Note_on_c, 0, 66, 0
3, 331920, Note_on_c, 0, 61, 48
3, 332280, Note_on_c, 0, 61, 0
3, 332280, Note_on_c, 0, 59, 51
3, 333000, Note_on_c, 0, 59, 0
3, 333000, Note_on_c, 0, 33, 0
3, 333000, Note_on_c, 0, 62, 61
3, 333360, Note_on_c, 0, 62, 0
3, 333360, Note_on_c, 0, 45, 0
3, 333360, Note_on_c, 0, 57, 56
3, 333360, Note_on_c, 0, 50, 40
3, 333360, Note_on_c, 0, 38, 29
3, 333720, Note_on_c, 0, 38, 0
3, 334080, Note_on_c, 0, 50, 0
3, 334080, Note_on_c, 0, 49, 36
3, 334080, Note_on_c, 0, 37, 23
3, 334440, Note_on_c, 0, 37, 0
3, 334440, Note_on_c, 0, 57, 0
3, 334440, Note_on_c, 0, 59, 58
3, 334800, Note_on_c, 0, 59, 0
3, 334800, Note_on_c, 0, 49, 0
3, 334800, Note_on_c, 0, 55, 18
3, 334800, Note_on_c, 0, 48, 34
3, 334800, Note_on_c, 0, 36, 29
3, 335160, Note_on_c, 0, 36, 0
3, 335160, Note_on_c, 0, 57, 52
3, 335520, Note_on_c, 0, 55, 0
3, 335520, Note_on_c, 0, 54, 25
3, 335880, Note_on_c, 0, 54, 0
3, 335880, Note_on_c, 0, 57, 0
3, 335880, Note_on_c, 0, 57, 57
3, 336240, Note_on_c, 0, 57, 0
3, 336240, Note_on_c, 0, 48, 0
3, 336240, Note_on_c, 0, 54, 53
3, 336240, Note_on_c, 0, 47, 34
3, 336240, Note_on_c, 0, 35, 31
3, 336600, Note_on_c, 0, 35, 0
3, 336600, Note_on_c, 0, 54, 0
3, 336600, Note_on_c, 0, 55, 59
3, 336960, Note_on_c, 0, 47, 0
3, 336960, Note_on_c, 0, 52, 22
3, 336960, Note_on_c, 0, 46, 35
3, 336960, Note_on_c, 0, 34, 31
3, 337320, Note_on_c, 0, 34, 0
3, 337320, Note_on_c, 0, 55, 0
3, 337320, Note_on_c, 0, 52, 0
3, 337320, Note_on_c, 0, 55, 60
3, 337680, Note_on_c, 0, 55, 0
3, 337680, Note_on_c, 0, 46, 0
3, 337680, Note_on_c, 0, 52, 55
3, 337680, Note_on_c, 0, 45, 40
3, 337680, Note_on_c, 0, 33, 28
3, 338040, Note_on_c, 0, 33, 0
3, 338040, Note_on_c, 0, 52, 0
3, 338040, Note_on_c, 0, 54, 63
3, 338400, Note_on_c, 0, 45, 0
3, 338400, Note_on_c, 0, 51, 24
3, 338400, Note_on_c, 0, 44, 28
3, 338400, Note_on_c, 0, 32, 30
3, 338760, Note_on_c, 0, 32, 0
3, 338760, Note_on_c, 0, 54, 0
3, 338760, Note_on_c, 0, 51, 0
3, 338760, Note_on_c, 0, 54, 59
3, 339120, Note_on_c, 0, 54, 0
3, 339120, Note_on_c, 0, 44, 0
3, 339120, Note_on_c, 0, 50, 51
3, 339120, Note_on_c, 0, 43, 30
3, 339120, Note_on_c, 0, 31, 25
3, 339480, Note_on_c, 0, 31, 0
3, 339480, Note_on_c, 0, 50, 0
3, 339480, Note_on_c, 0, 52, 60
3, 339840, Note_on_c, 0, 43, 0
3, 339840, Note_on_c, 0, 42, 33
3, 339840, Note_on_c, 0, 30, 33
3, 340200, Note_on_c, 0, 30, 0
3, 340200, Note_on_c, 0, 52, 0
3, 340200, Note_on_c, 0, 50, 59
3, 340560, Note_on_c, 0, 42, 0
3, 340560, Note_on_c, 0, 40, 36
3, 340560, Note_on_c, 0, 28, 26
3, 340920, Note_on_c, 0, 28, 0
3, 340920, Note_on_c, 0, 50, 0
3, 340920, Note_on_c, 0, 49, 57
3, 341280, Note_on_c, 0, 49, 0
3, 341280, Note_on_c, 0, 40, 0
3, 341280, Note_on_c, 0, 26, 30
3, 341280, Note_on_c, 0, 38, 30
3, 341640, Note_on_c, 0, 54, 53
3, 342000, Note_on_c, 0, 54, 0
3, 342000, Note_on_c, 0, 49, 65
3, 342317, Note_on_c, 0, 49, 0
3, 342360, Note_on_c, 0, 47, 56
3, 343080, Note_on_c, 0, 47, 0
3, 343080, Note_on_c, 0, 49, 64
3, 343440, Note_on_c, 0, 49, 0
3, 343440, Note_on_c, 0, 47, 68
3, 343757, Note_on_c, 0, 47, 0
3, 343800, Note_on_c, 0, 45, 57
3, 344520, Note_on_c, 0, 45, 0
3, 344520, Note_on_c, 0, 47, 59
3, 344880, Note_on_c, 0, 47, 0
3, 344880, Note_on_c, 0, 45, 67
3, 345197, Note_on_c, 0, 45, 0
3, 345240, Note_on_c, 0, 43, 55
3, 345960, Note_on_c, 0, 43, 0
3, 345960, Note_on_c, 0, 47, 66
3, 346320, Note_on_c, 0, 47, 0
3, 346320, Note_on_c, 0, 45, 71
3, 346637, Note_on_c, 0, 45, 0
3, 346680, Note_on_c, 0, 43, 51
3, 347040, Note_on_c, 0, 43, 0
3, 347040, Note_on_c, 0, 38, 0
3, 347040, Note_on_c, 0, 26, 0
3, 347040, Note_on_c, 0, 45, 75
3, 347040, Note_on_c, 0, 26, 32
3, 347040, Note_on_c, 0, 38, 32
3, 347357, Note_on_c, 0, 45, 0
3, 347400, Note_on_c, 0, 42, 56
3, 348120, Note_on_c, 0, 42, 0
3, 348120, Note_on_c, 0, 40, 58
3, 348840, Note_on_c, 0, 40, 0
3, 348840, Note_on_c, 0, 43, 58
3, 349200, Note_on_c, 0, 43, 0
3, 349200, Note_on_c, 0, 42, 59
3, 349560, Note_on_c, 0, 42, 0
3, 349560, Note_on_c, 0, 40, 55
3, 350280, Note_on_c, 0, 40, 0
3, 350280, Note_on_c, 0, 43, 65
3, 351000, Note_on_c, 0, 43, 0
3, 351000, Note_on_c, 0, 42, 60
3, 351720, Note_on_c, 0, 42, 0
3, 351720, Note_on_c, 0, 40, 57
3, 352440, Note_on_c, 0, 40, 0
3, 352440, Note_on_c, 0, 39, 64
3, 352800, Note_on_c, 0, 39, 0
3, 352800, Note_on_c, 0, 38, 0
3, 352800, Note_on_c, 0, 26, 0
3, 352800, Note_on_c, 0, 54, 30
3, 352800, Note_on_c, 0, 57, 30
3, 352800, Note_on_c, 0, 45, 46
3, 352800, Note_on_c, 0, 38, 28
3, 352835, Note_on_c, 0, 57, 0
3, 352835, Note_on_c, 0, 54, 0
3, 352845, Note_on_c, 0, 50, 25
3, 352880, Note_on_c, 0, 50, 0
3, 352890, Note_on_c, 0, 54, 30
3, 352890, Note_on_c, 0, 57, 30
3, 352925, Note_on_c, 0, 57, 0
3, 352925, Note_on_c, 0, 54, 0
3, 352935, Note_on_c, 0, 50, 25
3, 352970, Note_on_c, 0, 50, 0
3, 352980, Note_on_c, 0, 54, 30
3, 352980, Note_on_c, 0, 57, 30
3, 353015, Note_on_c, 0, 57, 0
3, 353015, Note_on_c, 0, 54, 0
3, 353025, Note_on_c, 0, 50, 25
3, 353060, Note_on_c, 0, 50, 0
3, 353070, Note_on_c, 0, 54, 30
3, 353070, Note_on_c, 0, 57, 30
3, 353105, Note_on_c, 0, 57, 0
3, 353105, Note_on_c, 0, 54, 0
3, 353115, Note_on_c, 0, 50, 25
3, 353150, Note_on_c, 0, 50, 0
3, 353160, Note_on_c, 0, 54, 30
3, 353160, Note_on_c, 0, 57, 30
3, 353195, Note_on_c, 0, 57, 0
3, 353195, Note_on_c, 0, 54, 0
3, 353205, Note_on_c, 0, 50, 25
3, 353240, Note_on_c, 0, 50, 0
3, 353250, Note_on_c, 0, 54, 30
3, 353250, Note_on_c, 0, 57, 30
3, 353285, Note_on_c, 0, 57, 0
3, 353285, Note_on_c, 0, 54, 0
3, 353295, Note_on_c, 0, 50, 25
3, 353330, Note_on_c, 0, 50, 0
3, 353340, Note_on_c, 0, 54, 30
3, 353340, Note_on_c, 0, 57, 30
3, 353375, Note_on_c, 0, 57, 0
3, 353375, Note_on_c, 0, 54, 0
3, 353385, Note_on_c, 0, 50, 25
3, 353420, Note_on_c, 0, 50, 0
3, 353430, Note_on_c, 0, 54, 30
3, 353430, Note_on_c, 0, 57, 30
3, 353465, Note_on_c, 0, 57, 0
3, 353465, Note_on_c, 0, 54, 0
3, 353475, Note_on_c, 0, 50, 25
3, 353510, Note_on_c, 0, 50, 0
3, 353520, Note_on_c, 0, 45, 0
3, 353520, Note_on_c, 0, 54, 30
3, 353520, Note_on_c, 0, 57, 30
3, 353520, Note_on_c, 0, 54, 26
3, 353520, Note_on_c, 0, 59, 26
3, 353520, Note_on_c, 0, 47, 43
3, 353555, Note_on_c, 0, 59, 0
3, 353555, Note_on_c, 0, 54, 0
3, 353555, Note_on_c, 0, 57, 0
3, 353555, Note_on_c, 0, 54, 0
3, 353565, Note_on_c, 0, 50, 25
3, 353600, Note_on_c, 0, 50, 0
3, 353610, Note_on_c, 0, 54, 26
3, 353610, Note_on_c, 0, 59, 26
3, 353645, Note_on_c, 0, 59, 0
3, 353645, Note_on_c, 0, 54, 0
3, 353655, Note_on_c, 0, 50, 25
3, 353690, Note_on_c, 0, 50, 0
3, 353700, Note_on_c, 0, 54, 26
3, 353700, Note_on_c, 0, 59, 26
3, 353735, Note_on_c, 0, 59, 0
3, 353735, Note_on_c, 0, 54, 0
3, 353745, Note_on_c, 0, 50, 25
3, 353780, Note_on_c, 0, 50, 0
3, 353790, Note_on_c, 0, 54, 26
3, 353790, Note_on_c, 0, 59, 26
3, 353825, Note_on_c, 0, 59, 0
3, 353825, Note_on_c, 0, 54, 0
3, 353835, Note_on_c, 0, 50, 25
3, 353870, Note_on_c, 0, 50, 0
3, 353880, Note_on_c, 0, 47, 0
3, 353880, Note_on_c, 0, 54, 26
3, 353880, Note_on_c, 0, 59, 26
3, 353880, Note_on_c, 0, 54, 29
3, 353880, Note_on_c, 0, 57, 29
3, 353880, Note_on_c, 0, 45, 33
3, 353897, Note_on_c, 0, 57, 0
3, 353897, Note_on_c, 0, 54, 0
3, 353903, Note_on_c, 0, 50, 21
3, 353915, Note_on_c, 0, 54, 0
3, 353915, Note_on_c, 0, 59, 0
3, 353919, Note_on_c, 0, 50, 0
3, 353925, Note_on_c, 0, 54, 29
3, 353925, Note_on_c, 0, 57, 29
3, 353942, Note_on_c, 0, 57, 0
3, 353942, Note_on_c, 0, 54, 0
3, 353948, Note_on_c, 0, 50, 21
3, 353964, Note_on_c, 0, 50, 0
3, 353970, Note_on_c, 0, 54, 29
3, 353970, Note_on_c, 0, 57, 29
3, 353987, Note_on_c, 0, 57, 0
3, 353987, Note_on_c, 0, 54, 0
3, 353993, Note_on_c, 0, 50, 21
3, 354009, Note_on_c, 0, 50, 0
3, 354015, Note_on_c, 0, 54, 29
3, 354015, Note_on_c, 0, 57, 29
3, 354032, Note_on_c, 0, 57, 0
3, 354032, Note_on_c, 0, 54, 0
3, 354038, Note_on_c, 0, 50, 21
3, 354054, Note_on_c, 0, 50, 0
3, 354060, Note_on_c, 0, 45, 0
3, 354060, Note_on_c, 0, 54, 29
3, 354060, Note_on_c, 0, 57, 29
3, 354060, Note_on_c, 0, 54, 31
3, 354060, Note_on_c, 0, 59, 31
3, 354060, Note_on_c, 0, 47, 36
3, 354077, Note_on_c, 0, 59, 0
3, 354077, Note_on_c, 0, 54, 0
3, 354077, Note_on_c, 0, 57, 0
3, 354077, Note_on_c, 0, 54, 0
3, 354083, Note_on_c, 0, 50, 21
3, 354099, Note_on_c, 0, 50, 0
3, 354105, Note_on_c, 0, 54, 31
3, 354105, Note_on_c, 0, 59, 31
3, 354122, Note_on_c, 0, 59, 0
3, 354122, Note_on_c, 0, 54, 0
3, 354128, Note_on_c, 0, 50, 21
3, 354144, Note_on_c, 0, 50, 0
3, 354150, Note_on_c, 0, 54, 31
3, 354150, Note_on_c, 0, 59, 31
3, 354167, Note_on_c, 0, 59, 0
3, 354167, Note_on_c, 0, 54, 0
3, 354173, Note_on_c, 0, 50, 21
3, 354189, Note_on_c, 0, 50, 0
3, 354195, Note_on_c, 0, 54, 31
3, 354195, Note_on_c, 0, 59, 31
3, 354212, Note_on_c, 0, 59, 0
3, 354212, Note_on_c, 0, 54, 0
3, 354218, Note_on_c, 0, 50, 21
3, 354234, Note_on_c, 0, 50, 0
3, 354240, Note_on_c, 0, 38, 0
3, 354240, Note_on_c, 0, 47, 0
3, 354240, Note_on_c, 0, 54, 31
3, 354240, Note_on_c, 0, 57, 31
3, 354240, Note_on_c, 0, 45, 34
3, 354240, Note_on_c, 0, 38, 33
3, 354275, Note_on_c, 0, 57, 0
3, 354275, Note_on_c, 0, 54, 0
3, 354285, Note_on_c, 0, 50, 19
3, 354320, Note_on_c, 0, 50, 0
3, 354330, Note_on_c, 0, 54, 31
3, 354330, Note_on_c, 0, 57, 31
3, 354365, Note_on_c, 0, 57, 0
3, 354365, Note_on_c, 0, 54, 0
3, 354375, Note_on_c, 0, 50, 19
3, 354410, Note_on_c, 0, 50, 0
3, 354420, Note_on_c, 0, 54, 31
3, 354420, Note_on_c, 0, 57, 31
3, 354455, Note_on_c, 0, 57, 0
3, 354455, Note_on_c, 0, 54, 0
3, 354465, Note_on_c, 0, 50, 19
3, 354500, Note_on_c, 0, 50, 0
3, 354510, Note_on_c, 0, 54, 31
3, 354510, Note_on_c, 0, 57, 31
3, 354545, Note_on_c, 0, 57, 0
3, 354545, Note_on_c, 0, 54, 0
3, 354555, Note_on_c, 0, 50, 19
3, 354590, Note_on_c, 0, 50, 0
3, 354600, Note_on_c, 0, 54, 31
3, 354600, Note_on_c, 0, 57, 31
3, 354635, Note_on_c, 0, 57, 0
3, 354635, Note_on_c, 0, 54, 0
3, 354645, Note_on_c, 0, 50, 19
3, 354680, Note_on_c, 0, 50, 0
3, 354690, Note_on_c, 0, 54, 31
3, 354690, Note_on_c, 0, 57, 31
3, 354725, Note_on_c, 0, 57, 0
3, 354725, Note_on_c, 0, 54, 0
3, 354735, Note_on_c, 0, 50, 19
3, 354770, Note_on_c, 0, 50, 0
3, 354780, Note_on_c, 0, 54, 31
3, 354780, Note_on_c, 0, 57, 31
3, 354815, Note_on_c, 0, 57, 0
3, 354815, Note_on_c, 0, 54, 0
3, 354825, Note_on_c, 0, 50, 19
3, 354860, Note_on_c, 0, 50, 0
3, 354870, Note_on_c, 0, 54, 31
3, 354870, Note_on_c, 0, 57, 31
3, 354905, Note_on_c, 0, 57, 0
3, 354905, Note_on_c, 0, 54, 0
3, 354915, Note_on_c, 0, 50, 19
3, 354950, Note_on_c, 0, 50, 0
3, 354960, Note_on_c, 0, 45, 0
3, 354960, Note_on_c, 0, 54, 31
3, 354960, Note_on_c, 0, 57, 31
3, 354960, Note_on_c, 0, 54, 33
3, 354960, Note_on_c, 0, 59, 33
3, 354960, Note_on_c, 0, 47, 38
3, 354995, Note_on_c, 0, 59, 0
3, 354995, Note_on_c, 0, 54, 0
3, 354995, Note_on_c, 0, 57, 0
3, 354995, Note_on_c, 0, 54, 0
3, 355005, Note_on_c, 0, 50, 20
3, 355040, Note_on_c, 0, 50, 0
3, 355050, Note_on_c, 0, 54, 33
3, 355050, Note_on_c, 0, 59, 33
3, 355085, Note_on_c, 0, 59, 0
3, 355085, Note_on_c, 0, 54, 0
3, 355095, Note_on_c, 0, 50, 20
3, 355130, Note_on_c, 0, 50, 0
3, 355140, Note_on_c, 0, 54, 33
3, 355140, Note_on_c, 0, 59, 33
3, 355175, Note_on_c, 0, 59, 0
3, 355175, Note_on_c, 0, 54, 0
3, 355185, Note_on_c, 0, 50, 20
3, 355220, Note_on_c, 0, 50, 0
3, 355230, Note_on_c, 0, 54, 33
3, 355230, Note_on_c, 0, 59, 33
3, 355265, Note_on_c, 0, 59, 0
3, 355265, Note_on_c, 0, 54, 0
3, 355275, Note_on_c, 0, 50, 20
3, 355310, Note_on_c, 0, 50, 0
3, 355320, Note_on_c, 0, 47, 0
3, 355320, Note_on_c, 0, 54, 33
3, 355320, Note_on_c, 0, 59, 33
3, 355320, Note_on_c, 0, 54, 34
3, 355320, Note_on_c, 0, 57, 34
3, 355320, Note_on_c, 0, 45, 35
3, 355337, Note_on_c, 0, 57, 0
3, 355337, Note_on_c, 0, 54, 0
3, 355343, Note_on_c, 0, 50, 21
3, 355355, Note_on_c, 0, 54, 0
3, 355355, Note_on_c, 0, 59, 0
3, 355359, Note_on_c, 0, 50, 0
3, 355365, Note_on_c, 0, 54, 34
3, 355365, Note_on_c, 0, 57, 34
3, 355382, Note_on_c, 0, 57, 0
3, 355382, Note_on_c, 0, 54, 0
3, 355388, Note_on_c, 0, 50, 21
3, 355404, Note_on_c, 0, 50, 0
3, 355410, Note_on_c, 0, 54, 34
3, 355410, Note_on_c, 0, 57, 34
3, 355427, Note_on_c, 0, 57, 0
3, 355427, Note_on_c, 0, 54, 0
3, 355433, Note_on_c, 0, 50, 21
3, 355449, Note_on_c, 0, 50, 0
3, 355455, Note_on_c, 0, 54, 34
3, 355455, Note_on_c, 0, 57, 34
3, 355472, Note_on_c, 0, 57, 0
3, 355472, Note_on_c, 0, 54, 0
3, 355478, Note_on_c, 0, 50, 21
3, 355494, Note_on_c, 0, 50, 0
3, 355500, Note_on_c, 0, 45, 0
3, 355500, Note_on_c, 0, 54, 34
3, 355500, Note_on_c, 0, 57, 34
3, 355500, Note_on_c, 0, 54, 31
3, 355500, Note_on_c, 0, 59, 31
3, 355500, Note_on_c, 0, 47, 35
3, 355517, Note_on_c, 0, 59, 0
3, 355517, Note_on_c, 0, 54, 0
3, 355517, Note_on_c, 0, 57, 0
3, 355517, Note_on_c, 0, 54, 0
3, 355523, Note_on_c, 0, 50, 15
3, 355539, Note_on_c, 0, 50, 0
3, 355545, Note_on_c, 0, 54, 31
3, 355545, Note_on_c, 0, 59, 31
3, 355562, Note_on_c, 0, 59, 0
3, 355562, Note_on_c, 0, 54, 0
3, 355568, Note_on_c, 0, 50, 15
3, 355584, Note_on_c, 0, 50, 0
3, 355590, Note_on_c, 0, 54, 31
3, 355590, Note_on_c, 0, 59, 31
3, 355607, Note_on_c, 0, 59, 0
3, 355607, Note_on_c, 0, 54, 0
3, 355613, Note_on_c, 0, 50, 15
3, 355629, Note_on_c, 0, 50, 0
3, 355635, Note_on_c, 0, 54, 31
3, 355635, Note_on_c, 0, 59, 31
3, 355652, Note_on_c, 0, 59, 0
3, 355652, Note_on_c, 0, 54, 0
3, 355658, Note_on_c, 0, 50, 15
3, 355674, Note_on_c, 0, 50, 0
3, 355680, Note_on_c, 0, 38, 0
3, 355680, Note_on_c, 0, 47, 0
3, 355680, Note_on_c, 0, 50, 22
3, 355680, Note_on_c, 0, 45, 34
3, 355680, Note_on_c, 0, 38, 33
3, 355770, Note_on_c, 0, 55, 19
3, 355860, Note_on_c, 0, 55, 0
3, 355860, Note_on_c, 0, 54, 23
3, 355950, Note_on_c, 0, 54, 0
3, 355950, Note_on_c, 0, 55, 29
3, 356040, Note_on_c, 0, 55, 0
3, 356040, Note_on_c, 0, 50, 0
3, 356040, Note_on_c, 0, 45, 0
3, 356040, Note_on_c, 0, 50, 26
3, 356040, Note_on_c, 0, 54, 26
3, 356040, Note_on_c, 0, 57, 26
3, 356040, Note_on_c, 0, 45, 32
3, 356220, Note_on_c, 0, 45, 0
3, 356220, Note_on_c, 0, 54, 0
3, 356220, Note_on_c, 0, 57, 0
3, 356220, Note_on_c, 0, 50, 0
3, 356220, Note_on_c, 0, 54, 25
3, 356220, Note_on_c, 0, 59, 25
3, 356220, Note_on_c, 0, 47, 37
3, 356237, Note_on_c, 0, 59, 0
3, 356237, Note_on_c, 0, 54, 0
3, 356243, Note_on_c, 0, 50, 20
3, 356259, Note_on_c, 0, 50, 0
3, 356265, Note_on_c, 0, 54, 25
3, 356265, Note_on_c, 0, 59, 25
3, 356282, Note_on_c, 0, 59, 0
3, 356282, Note_on_c, 0, 54, 0
3, 356288, Note_on_c, 0, 50, 20
3, 356304, Note_on_c, 0, 50, 0
3, 356310, Note_on_c, 0, 54, 25
3, 356310, Note_on_c, 0, 59, 25
3, 356327, Note_on_c, 0, 59, 0
3, 356327, Note_on_c, 0, 54, 0
3, 356333, Note_on_c, 0, 50, 20
3, 356349, Note_on_c, 0, 50, 0
3, 356355, Note_on_c, 0, 54, 25
3, 356355, Note_on_c, 0, 59, 25
3, 356372, Note_on_c, 0, 59, 0
3, 356372, Note_on_c, 0, 54, 0
3, 356378, Note_on_c, 0, 50, 20
3, 356394, Note_on_c, 0, 50, 0
3, 356400, Note_on_c, 0, 38, 0
3, 356400, Note_on_c, 0, 47, 0
3, 356400, Note_on_c, 0, 54, 25
3, 356400, Note_on_c, 0, 59, 25
3, 356400, Note_on_c, 0, 54, 30
3, 356400, Note_on_c, 0, 57, 30
3, 356400, Note_on_c, 0, 45, 32
3, 356400, Note_on_c, 0, 38, 35
3, 356417, Note_on_c, 0, 59, 0
3, 356417, Note_on_c, 0, 54, 0
3, 356435, Note_on_c, 0, 57, 0
3, 356435, Note_on_c, 0, 54, 0
3, 356445, Note_on_c, 0, 50, 25
3, 356480, Note_on_c, 0, 50, 0
3, 356490, Note_on_c, 0, 54, 30
3, 356490, Note_on_c, 0, 57, 30
3, 356525, Note_on_c, 0, 57, 0
3, 356525, Note_on_c, 0, 54, 0
3, 356535, Note_on_c, 0, 50, 25
3, 356570, Note_on_c, 0, 50, 0
3, 356580, Note_on_c, 0, 54, 30
3, 356580, Note_on_c, 0, 57, 30
3, 356615, Note_on_c, 0, 57, 0
3, 356615, Note_on_c, 0, 54, 0
3, 356625, Note_on_c, 0, 50, 25
3, 356660, Note_on_c, 0, 50, 0
3, 356670, Note_on_c, 0, 54, 30
3, 356670, Note_on_c, 0, 57, 30
3, 356705, Note_on_c, 0, 57, 0
3, 356705, Note_on_c, 0, 54, 0
3, 356715, Note_on_c, 0, 50, 25
3, 356750, Note_on_c, 0, 50, 0
3, 356760, Note_on_c, 0, 45, 0
3, 356760, Note_on_c, 0, 54, 30
3, 356760, Note_on_c, 0, 57, 30
3, 356760, Note_on_c, 0, 54, 27
3, 356760, Note_on_c, 0, 57, 27
3, 356760, Note_on_c, 0, 45, 36
3, 356795, Note_on_c, 0, 57, 0
3, 356795, Note_on_c, 0, 54, 0
3, 356940, Note_on_c, 0, 54, 0
3, 356940, Note_on_c, 0, 57, 0
3, 356940, Note_on_c, 0, 45, 0
3, 356940, Note_on_c, 0, 54, 27
3, 356940, Note_on_c, 0, 59, 27
3, 356940, Note_on_c, 0, 47, 42
3, 356957, Note_on_c, 0, 59, 0
3, 356957, Note_on_c, 0, 54, 0
3, 356963, Note_on_c, 0, 50, 23
3, 356979, Note_on_c, 0, 50, 0
3, 356985, Note_on_c, 0, 54, 27
3, 356985, Note_on_c, 0, 59, 27
3, 357002, Note_on_c, 0, 59, 0
3, 357002, Note_on_c, 0, 54, 0
3, 357008, Note_on_c, 0, 50, 23
3, 357024, Note_on_c, 0, 50, 0
3, 357030, Note_on_c, 0, 54, 27
3, 357030, Note_on_c, 0, 59, 27
3, 357047, Note_on_c, 0, 59, 0
3, 357047, Note_on_c, 0, 54, 0
3, 357053, Note_on_c, 0, 50, 23
3, 357069, Note_on_c, 0, 50, 0
3, 357075, Note_on_c, 0, 54, 27
3, 357075, Note_on_c, 0, 59, 27
3, 357092, Note_on_c, 0, 59, 0
3, 357092, Note_on_c, 0, 54, 0
3, 357098, Note_on_c, 0, 50, 23
3, 357114, Note_on_c, 0, 50, 0
3, 357120, Note_on_c, 0, 38, 0
3, 357120, Note_on_c, 0, 47, 0
3, 357120, Note_on_c, 0, 54, 29
3, 357120, Note_on_c, 0, 57, 29
3, 357120, Note_on_c, 0, 45, 39
3, 357120, Note_on_c, 0, 38, 34
3, 357155, Note_on_c, 0, 57, 0
3, 357155, Note_on_c, 0, 54, 0
3, 357165, Note_on_c, 0, 50, 23
3, 357200, Note_on_c, 0, 50, 0
3, 357210, Note_on_c, 0, 54, 29
3, 357210, Note_on_c, 0, 57, 29
3, 357245, Note_on_c, 0, 57, 0
3, 357245, Note_on_c, 0, 54, 0
3, 357255, Note_on_c, 0, 50, 23
3, 357290, Note_on_c, 0, 50, 0
3, 357300, Note_on_c, 0, 54, 29
3, 357300, Note_on_c, 0, 57, 29
3, 357335, Note_on_c, 0, 57, 0
3, 357335, Note_on_c, 0, 54, 0
3, 357345, Note_on_c, 0, 50, 23
3, 357380, Note_on_c, 0, 50, 0
3, 357390, Note_on_c, 0, 54, 29
3, 357390, Note_on_c, 0, 57, 29
3, 357425, Note_on_c, 0, 57, 0
3, 357425, Note_on_c, 0, 54, 0
3, 357435, Note_on_c, 0, 50, 23
3, 357470, Note_on_c, 0, 50, 0
3, 357480, Note_on_c, 0, 45, 0
3, 357480, Note_on_c, 0, 54, 29
3, 357480, Note_on_c, 0, 57, 29
3, 357480, Note_on_c, 0, 50, 30
3, 357480, Note_on_c, 0, 54, 30
3, 357480, Note_on_c, 0, 57, 30
3, 357480, Note_on_c, 0, 45, 40
3, 357515, Note_on_c, 0, 57, 0
3, 357515, Note_on_c, 0, 54, 0
3, 357660, Note_on_c, 0, 57, 0
3, 357660, Note_on_c, 0, 50, 0
3, 357660, Note_on_c, 0, 54, 0
3, 357660, Note_on_c, 0, 45, 0
3, 357840, Note_on_c, 0, 38, 0
3, 357840, Note_on_c, 0, 50, 21
3, 357840, Note_on_c, 0, 54, 21
3, 357840, Note_on_c, 0, 57, 21
3, 357840, Note_on_c, 0, 38, 30
3, 357840, Note_on_c, 0, 45, 30
3, 358019, Note_on_c, 0, 45, 0
3, 358019, Note_on_c, 0, 57, 0
3, 358019, Note_on_c, 0, 50, 0
3, 358019, Note_on_c, 0, 54, 0
3, 358019, Note_on_c, 0, 38, 0
3, 358560, Note_on_c, 0, 50, 21
3, 358560, Note_on_c, 0, 54, 21
3, 358560, Note_on_c, 0, 57, 21
3, 358560, Note_on_c, 0, 38, 28
3, 358560, Note_on_c, 0, 45, 28
3, 358739, Note_on_c, 0, 45, 0
3, 358739, Note_on_c, 0, 57, 0
3, 358739, Note_on_c, 0, 50, 0
3, 358739, Note_on_c, 0, 54, 0
3, 358739, Note_on_c, 0, 38, 0
3, 359640, Note_on_c, 0, 50, 17
3, 359640, Note_on_c, 0, 54, 17
3, 359640, Note_on_c, 0, 57, 17
3, 359640, Note_on_c, 0, 38, 34
3, 359640, Note_on_c, 0, 45, 34
3, 359819, Note_on_c, 0, 45, 0
3, 359819, Note_on_c, 0, 57, 0
3, 359819, Note_on_c, 0, 50, 0
3, 359819, Note_on_c, 0, 54, 0
3, 359819, Note_on_c, 0, 38, 0
3, 360270, Note_on_c, 0, 52, 17
3, 360360, Note_on_c, 0, 52, 0
3, 360360, Note_on_c, 0, 50, 22
3, 361679, Note_on_c, 0, 50, 0
3, 361679, Note_on_c, 0, 54, 63
3, 361800, Note_on_c, 0, 54, 0
3, 361800, Note_on_c, 0, 57, 68
3, 361920, Note_on_c, 0, 57, 0
3, 361920, Note_on_c, 0, 60, 63
3, 362039, Note_on_c, 0, 60, 0
3, 362039, Note_on_c, 0, 61, 64
3, 362160, Note_on_c, 0, 61, 0
3, 362160, Note_on_c, 0, 62, 90
3, 362520, Note_on_c, 0, 50, 47
3, 362520, Note_on_c, 0, 54, 47
3, 362520, Note_on_c, 0, 57, 47
3, 362520, Note_on_c, 0, 36, 29
3, 362520, Note_on_c, 0, 48, 29
3, 362700, Note_on_c, 0, 62, 0
3, 362700, Note_on_c, 0, 62, 61
3, 362880, Note_on_c, 0, 62, 0
3, 362880, Note_on_c, 0, 48, 0
3, 362880, Note_on_c, 0, 57, 0
3, 362880, Note_on_c, 0, 50, 0
3, 362880, Note_on_c, 0, 54, 0
3, 362880, Note_on_c, 0, 36, 0
3, 362880, Note_on_c, 0, 63, 57
3, 363000, Note_on_c, 0, 63, 0
3, 363000, Note_on_c, 0, 62, 57
3, 363119, Note_on_c, 0, 62, 0
3, 363119, Note_on_c, 0, 63, 60
3, 363240, Note_on_c, 0, 63, 0
3, 363240, Note_on_c, 0, 62, 79
3, 363600, Note_on_c, 0, 50, 39
3, 363600, Note_on_c, 0, 52, 39
3, 363600, Note_on_c, 0, 55, 39
3, 363600, Note_on_c, 0, 34, 28
3, 363600, Note_on_c, 0, 46, 28
3, 363839, Note_on_c, 0, 62, 0
3, 363839, Note_on_c, 0, 57, 60
3, 363960, Note_on_c, 0, 57, 0
3, 363960, Note_on_c, 0, 46, 0
3, 363960, Note_on_c, 0, 55, 0
3, 363960, Note_on_c, 0, 50, 0
3, 363960, Note_on_c, 0, 52, 0
3, 363960, Note_on_c, 0, 34, 0
3, 363960, Note_on_c, 0, 58, 63
3, 364080, Note_on_c, 0, 58, 0
3, 364080, Note_on_c, 0, 60, 66
3, 364199, Note_on_c, 0, 60, 0
3, 364199, Note_on_c, 0, 61, 67
3, 364320, Note_on_c, 0, 61, 0
3, 364320, Note_on_c, 0, 62, 87
3, 364559, Note_on_c, 0, 62, 0
3, 364559, Note_on_c, 0, 62, 55
3, 364680, Note_on_c, 0, 62, 0
3, 364680, Note_on_c, 0, 63, 29
3, 364680, Note_on_c, 0, 54, 20
3, 364680, Note_on_c, 0, 60, 20
3, 364680, Note_on_c, 0, 45, 29
3, 364680, Note_on_c, 0, 50, 29
3, 364800, Note_on_c, 0, 63, 0
3, 364800, Note_on_c, 0, 62, 22
3, 364919, Note_on_c, 0, 62, 0
3, 364919, Note_on_c, 0, 63, 31
3, 365040, Note_on_c, 0, 63, 0
3, 365040, Note_on_c, 0, 45, 0
3, 365040, Note_on_c, 0, 54, 0
3, 365040, Note_on_c, 0, 60, 0
3, 365040, Note_on_c, 0, 50, 0
3, 365040, Note_on_c, 0, 62, 22
3, 365279, Note_on_c, 0, 62, 0
3, 365279, Note_on_c, 0, 57, 20
3, 365400, Note_on_c, 0, 57, 0
3, 365400, Note_on_c, 0, 58, 18
3, 365400, Note_on_c, 0, 55, 18
3, 365400, Note_on_c, 0, 43, 27
3, 365400, Note_on_c, 0, 50, 27
3, 365520, Note_on_c, 0, 58, 0
3, 365520, Note_on_c, 0, 60, 31
3, 365639, Note_on_c, 0, 60, 0
3, 365639, Note_on_c, 0, 61, 28
3, 365760, Note_on_c, 0, 61, 0
3, 365760, Note_on_c, 0, 55, 0
3, 365760, Note_on_c, 0, 43, 0
3, 365760, Note_on_c, 0, 50, 0
3, 365760, Note_on_c, 0, 62, 51
3, 365999, Note_on_c, 0, 62, 0
3, 365999, Note_on_c, 0, 62, 25
3, 366120, Note_on_c, 0, 62, 0
3, 366120, Note_on_c, 0, 63, 28
3, 366120, Note_on_c, 0, 57, 24
3, 366120, Note_on_c, 0, 60, 24
3, 366120, Note_on_c, 0, 42, 26
3, 366120, Note_on_c, 0, 50, 26
3, 366240, Note_on_c, 0, 63, 0
3, 366240, Note_on_c, 0, 62, 19
3, 366359, Note_on_c, 0, 62, 0
3, 366359, Note_on_c, 0, 63, 25
3, 366480, Note_on_c, 0, 63, 0
3, 366480, Note_on_c, 0, 42, 0
3, 366480, Note_on_c, 0, 57, 0
3, 366480, Note_on_c, 0, 60, 0
3, 366480, Note_on_c, 0, 50, 0
3, 366480, Note_on_c, 0, 62, 25
3, 366719, Note_on_c, 0, 62, 0
3, 366719, Note_on_c, 0, 57, 26
3, 366840, Note_on_c, 0, 57, 0
3, 366840, Note_on_c, 0, 58, 26
3, 366840, Note_on_c, 0, 55, 18
3, 366840, Note_on_c, 0, 40, 30
3, 366840, Note_on_c, 0, 50, 30
3, 366960, Note_on_c, 0, 58, 0
3, 366960, Note_on_c, 0, 60, 28
3, 367079, Note_on_c, 0, 60, 0
3, 367079, Note_on_c, 0, 61, 28
3, 367200, Note_on_c, 0, 61, 0
3, 367200, Note_on_c, 0, 55, 0
3, 367200, Note_on_c, 0, 40, 0
3, 367200, Note_on_c, 0, 50, 0
3, 367200, Note_on_c, 0, 62, 54
3, 367439, Note_on_c, 0, 62, 0
3, 367439, Note_on_c, 0, 62, 23
3, 367560, Note_on_c, 0, 62, 0
3, 367560, Note_on_c, 0, 63, 28
3, 367560, Note_on_c, 0, 54, 17
3, 367560, Note_on_c, 0, 60, 17
3, 367560, Note_on_c, 0, 38, 29
3, 367560, Note_on_c, 0, 50, 29
3, 367680, Note_on_c, 0, 63, 0
3, 367680, Note_on_c, 0, 62, 22
3, 367799, Note_on_c, 0, 62, 0
3, 367799, Note_on_c, 0, 63, 27
3, 367920, Note_on_c, 0, 63, 0
3, 367920, Note_on_c, 0, 38, 0
3, 367920, Note_on_c, 0, 54, 0
3, 367920, Note_on_c, 0, 60, 0
3, 367920, Note_on_c, 0, 50, 0
3, 367920, Note_on_c, 0, 62, 25
3, 368159, Note_on_c, 0, 62, 0
3, 368159, Note_on_c, 0, 57, 22
3, 368280, Note_on_c, 0, 57, 0
3, 368280, Note_on_c, 0, 58, 27
3, 368280, Note_on_c, 0, 55, 18
3, 368280, Note_on_c, 0, 36, 33
3, 368280, Note_on_c, 0, 48, 33
3, 368280, Note_on_c, 0, 50, 33
3, 368400, Note_on_c, 0, 58, 0
3, 368400, Note_on_c, 0, 60, 30
3, 368519, Note_on_c, 0, 60, 0
3, 368519, Note_on_c, 0, 61, 26
3, 368640, Note_on_c, 0, 61, 0
3, 368640, Note_on_c, 0, 48, 0
3, 368640, Note_on_c, 0, 55, 0
3, 368640, Note_on_c, 0, 36, 0
3, 368640, Note_on_c, 0, 50, 0
3, 368640, Note_on_c, 0, 62, 49
3, 368879, Note_on_c, 0, 62, 0
3, 368879, Note_on_c, 0, 62, 21
3, 369000, Note_on_c, 0, 62, 0
3, 369000, Note_on_c, 0, 55, 26
3, 369000, Note_on_c, 0, 63, 26
3, 369000, Note_on_c, 0, 50, 25
3, 369000, Note_on_c, 0, 34, 33
3, 369000, Note_on_c, 0, 46, 33
3, 369120, Note_on_c, 0, 63, 0
3, 369120, Note_on_c, 0, 55, 0
3, 369120, Note_on_c, 0, 62, 19
3, 369239, Note_on_c, 0, 62, 0
3, 369239, Note_on_c, 0, 63, 27
3, 369360, Note_on_c, 0, 63, 0
3, 369360, Note_on_c, 0, 34, 0
3, 369360, Note_on_c, 0, 50, 0
3, 369360, Note_on_c, 0, 46, 0
3, 369360, Note_on_c, 0, 62, 24
3, 369599, Note_on_c, 0, 62, 0
3, 369599, Note_on_c, 0, 57, 23
3, 369720, Note_on_c, 0, 57, 0
3, 369720, Note_on_c, 0, 58, 27
3, 369720, Note_on_c, 0, 50, 19
3, 369720, Note_on_c, 0, 53, 19
3, 369720, Note_on_c, 0, 33, 27
3, 369720, Note_on_c, 0, 45, 27
3, 369840, Note_on_c, 0, 58, 0
3, 369840, Note_on_c, 0, 60, 30
3, 369959, Note_on_c, 0, 60, 0
3, 369959, Note_on_c, 0, 61, 31
3, 370080, Note_on_c, 0, 61, 0
3, 370080, Note_on_c, 0, 33, 0
3, 370080, Note_on_c, 0, 50, 0
3, 370080, Note_on_c, 0, 53, 0
3, 370080, Note_on_c, 0, 45, 0
3, 370080, Note_on_c, 0, 62, 30
3, 370080, Note_on_c, 0, 50, 32
3, 370080, Note_on_c, 0, 58, 32
3, 370080, Note_on_c, 0, 31, 31
3, 370080, Note_on_c, 0, 43, 31
3, 370200, Note_on_c, 0, 62, 0
3, 370200, Note_on_c, 0, 55, 24
3, 370319, Note_on_c, 0, 55, 0
3, 370319, Note_on_c, 0, 57, 29
3, 370440, Note_on_c, 0, 57, 0
3, 370440, Note_on_c, 0, 31, 0
3, 370440, Note_on_c, 0, 50, 0
3, 370440, Note_on_c, 0, 58, 0
3, 370440, Note_on_c, 0, 43, 0
3, 370440, Note_on_c, 0, 58, 25
3, 370440, Note_on_c, 0, 53, 21
3, 370440, Note_on_c, 0, 38, 41
3, 370440, Note_on_c, 0, 46, 41
3, 370440, Note_on_c, 0, 50, 41
3, 370560, Note_on_c, 0, 58, 0
3, 370560, Note_on_c, 0, 60, 28
3, 370679, Note_on_c, 0, 60, 0
3, 370679, Note_on_c, 0, 61, 31
3, 370800, Note_on_c, 0, 61, 0
3, 370800, Note_on_c, 0, 46, 0
3, 370800, Note_on_c, 0, 53, 0
3, 370800, Note_on_c, 0, 38, 0
3, 370800, Note_on_c, 0, 50, 0
3, 370800, Note_on_c, 0, 62, 61
3, 371160, Note_on_c, 0, 50, 19
3, 371160, Note_on_c, 0, 54, 19
3, 371160, Note_on_c, 0, 57, 19
3, 371160, Note_on_c, 0, 36, 30
3, 371160, Note_on_c, 0, 45, 30
3, 371340, Note_on_c, 0, 62, 0
3, 371340, Note_on_c, 0, 62, 24
3, 371520, Note_on_c, 0, 62, 0
3, 371520, Note_on_c, 0, 45, 0
3, 371520, Note_on_c, 0, 57, 0
3, 371520, Note_on_c, 0, 50, 0
3, 371520, Note_on_c, 0, 54, 0
3, 371520, Note_on_c, 0, 36, 0
3, 371520, Note_on_c, 0, 63, 27
3, 371640, Note_on_c, 0, 63, 0
3, 371640, Note_on_c, 0, 62, 24
3, 371759, Note_on_c, 0, 62, 0
3, 371759, Note_on_c, 0, 63, 22
3, 371880, Note_on_c, 0, 63, 0
3, 371880, Note_on_c, 0, 62, 47
3, 371880, Note_on_c, 0, 54, 23
3, 371880, Note_on_c, 0, 57, 23
3, 371880, Note_on_c, 0, 36, 30
3, 371880, Note_on_c, 0, 45, 30
3, 371880, Note_on_c, 0, 50, 30
3, 372240, Note_on_c, 0, 50, 0
3, 372240, Note_on_c, 0, 54, 0
3, 372240, Note_on_c, 0, 57, 0
3, 372240, Note_on_c, 0, 36, 0
3, 372240, Note_on_c, 0, 45, 0
3, 372240, Note_on_c, 0, 50, 27
3, 372240, Note_on_c, 0, 53, 27
3, 372240, Note_on_c, 0, 58, 27
3, 372240, Note_on_c, 0, 34, 30
3, 372240, Note_on_c, 0, 46, 30
3, 372479, Note_on_c, 0, 62, 0
3, 372479, Note_on_c, 0, 57, 19
3, 372600, Note_on_c, 0, 57, 0
3, 372600, Note_on_c, 0, 46, 0
3, 372600, Note_on_c, 0, 58, 0
3, 372600, Note_on_c, 0, 50, 0
3, 372600, Note_on_c, 0, 53, 0
3, 372600, Note_on_c, 0, 34, 0
3, 372600, Note_on_c, 0, 58, 26
3, 372720, Note_on_c, 0, 58, 0
3, 372720, Note_on_c, 0, 60, 28
3, 372839, Note_on_c, 0, 60, 0
3, 372839, Note_on_c, 0, 61, 29
3, 372960, Note_on_c, 0, 61, 0
3, 372960, Note_on_c, 0, 62, 56
3, 373199, Note_on_c, 0, 62, 0
3, 373199, Note_on_c, 0, 62, 22
3, 373320, Note_on_c, 0, 62, 0
3, 373320, Note_on_c, 0, 63, 26
3, 373320, Note_on_c, 0, 54, 19
3, 373320, Note_on_c, 0, 60, 19
3, 373320, Note_on_c, 0, 45, 32
3, 373320, Note_on_c, 0, 50, 32
3, 373440, Note_on_c, 0, 63, 0
3, 373440, Note_on_c, 0, 62, 25
3, 373559, Note_on_c, 0, 62, 0
3, 373559, Note_on_c, 0, 63, 25
3, 373680, Note_on_c, 0, 63, 0
3, 373680, Note_on_c, 0, 45, 0
3, 373680, Note_on_c, 0, 54, 0
3, 373680, Note_on_c, 0, 60, 0
3, 373680, Note_on_c, 0, 50, 0
3, 373680, Note_on_c, 0, 62, 22
3, 373919, Note_on_c, 0, 62, 0
3, 373919, Note_on_c, 0, 57, 26
3, 374040, Note_on_c, 0, 57, 0
3, 374040, Note_on_c, 0, 58, 28
3, 374040, Note_on_c, 0, 55, 17
3, 374040, Note_on_c, 0, 43, 31
3, 374040, Note_on_c, 0, 50, 31
3, 374160, Note_on_c, 0, 58, 0
3, 374160, Note_on_c, 0, 60, 28
3, 374279, Note_on_c, 0, 60, 0
3, 374279, Note_on_c, 0, 61, 32
3, 374400, Note_on_c, 0, 61, 0
3, 374400, Note_on_c, 0, 55, 0
3, 374400, Note_on_c, 0, 43, 0
3, 374400, Note_on_c, 0, 50, 0
3, 374400, Note_on_c, 0, 62, 57
3, 374639, Note_on_c, 0, 62, 0
3, 374639, Note_on_c, 0, 62, 24
3, 374760, Note_on_c, 0, 62, 0
3, 374760, Note_on_c, 0, 63, 25
3, 374760, Note_on_c, 0, 57, 19
3, 374760, Note_on_c, 0, 60, 19
3, 374760, Note_on_c, 0, 42, 27
3, 374760, Note_on_c, 0, 50, 27
3, 374880, Note_on_c, 0, 63, 0
3, 374880, Note_on_c, 0, 62, 21
3, 374939, Note_on_c, 0, 42, 0
3, 374939, Note_on_c, 0, 50, 0
3, 374999, Note_on_c, 0, 62, 0
3, 374999, Note_on_c, 0, 63, 27
3, 375120, Note_on_c, 0, 63, 0
3, 375120, Note_on_c, 0, 60, 0
3, 375120, Note_on_c, 0, 57, 0
3, 375120, Note_on_c, 0, 62, 24
3, 375120, Note_on_c, 0, 57, 24
3, 375120, Note_on_c, 0, 60, 24
3, 375120, Note_on_c, 0, 41, 34
3, 375120, Note_on_c, 0, 50, 34
3, 375299, Note_on_c, 0, 50, 0
3, 375299, Note_on_c, 0, 41, 0
3, 375359, Note_on_c, 0, 62, 0
3, 375359, Note_on_c, 0, 57, 21
3, 375480, Note_on_c, 0, 57, 0
3, 375480, Note_on_c, 0, 60, 0
3, 375480, Note_on_c, 0, 57, 0
3, 375480, Note_on_c, 0, 58, 28
3, 375480, Note_on_c, 0, 55, 16
3, 375480, Note_on_c, 0, 40, 37
3, 375480, Note_on_c, 0, 50, 37
3, 375600, Note_on_c, 0, 58, 0
3, 375600, Note_on_c, 0, 60, 26
3, 375659, Note_on_c, 0, 50, 0
3, 375659, Note_on_c, 0, 40, 0
3, 375719, Note_on_c, 0, 60, 0
3, 375719, Note_on_c, 0, 61, 33
3, 375840, Note_on_c, 0, 61, 0
3, 375840, Note_on_c, 0, 55, 0
3, 375840, Note_on_c, 0, 62, 32
3, 375840, Note_on_c, 0, 53, 22
3, 375840, Note_on_c, 0, 57, 22
3, 375840, Note_on_c, 0, 38, 37
3, 375840, Note_on_c, 0, 45, 37
3, 375840, Note_on_c, 0, 50, 37
3, 376019, Note_on_c, 0, 50, 0
3, 376019, Note_on_c, 0, 38, 0
3, 376019, Note_on_c, 0, 45, 0
3, 376200, Note_on_c, 0, 62, 0
3, 376200, Note_on_c, 0, 57, 0
3, 376200, Note_on_c, 0, 53, 0
3, 376200, Note_on_c, 0, 57, 34
3, 376200, Note_on_c, 0, 64, 34
3, 376200, Note_on_c, 0, 67, 34
3, 376200, Note_on_c, 0, 45, 38
3, 376200, Note_on_c, 0, 52, 38
3, 376379, Note_on_c, 0, 52, 0
3, 376379, Note_on_c, 0, 45, 0
3, 376560, Note_on_c, 0, 57, 0
3, 376560, Note_on_c, 0, 64, 0
3, 376560, Note_on_c, 0, 67, 0
3, 376560, Note_on_c, 0, 57, 24
3, 376560, Note_on_c, 0, 62, 24
3, 376560, Note_on_c, 0, 65, 24
3, 376560, Note_on_c, 0, 38, 30
3, 376560, Note_on_c, 0, 50, 30
3, 376739, Note_on_c, 0, 50, 0
3, 376739, Note_on_c, 0, 38, 0
3, 376920, Note_on_c, 0, 57, 0
3, 376920, Note_on_c, 0, 62, 0
3, 376920, Note_on_c, 0, 65, 0
3, 376920, Note_on_c, 0, 57, 25
3, 376920, Note_on_c, 0, 64, 25
3, 376920, Note_on_c, 0, 67, 25
3, 376920, Note_on_c, 0, 45, 41
3, 376920, Note_on_c, 0, 52, 41
3, 377099, Note_on_c, 0, 52, 0
3, 377099, Note_on_c, 0, 45, 0
3, 377280, Note_on_c, 0, 57, 0
3, 377280, Note_on_c, 0, 64, 0
3, 377280, Note_on_c, 0, 67, 0
3, 377280, Note_on_c, 0, 57, 24
3, 377280, Note_on_c, 0, 62, 24
3, 377280, Note_on_c, 0, 65, 24
3, 377280, Note_on_c, 0, 38, 30
3, 377280, Note_on_c, 0, 50, 30
3, 377459, Note_on_c, 0, 50, 0
3, 377459, Note_on_c, 0, 38, 0
3, 377640, Note_on_c, 0, 57, 0
3, 377640, Note_on_c, 0, 62, 0
3, 377640, Note_on_c, 0, 65, 0
3, 377640, Note_on_c, 0, 55, 27
3, 377640, Note_on_c, 0, 57, 27
3, 377640, Note_on_c, 0, 64, 27
3, 377640, Note_on_c, 0, 33, 31
3, 377819, Note_on_c, 0, 33, 0
3, 378000, Note_on_c, 0, 55, 0
3, 378000, Note_on_c, 0, 57, 0
3, 378000, Note_on_c, 0, 64, 0
3, 378000, Note_on_c, 0, 53, 24
3, 378000, Note_on_c, 0, 57, 24
3, 378000, Note_on_c, 0, 62, 24
3, 378000, Note_on_c, 0, 38, 41
3, 378179, Note_on_c, 0, 38, 0
3, 378360, Note_on_c, 0, 53, 0
3, 378360, Note_on_c, 0, 57, 0
3, 378360, Note_on_c, 0, 62, 0
3, 378360, Note_on_c, 0, 52, 24
3, 378360, Note_on_c, 0, 55, 24
3, 378360, Note_on_c, 0, 57, 24
3, 378360, Note_on_c, 0, 33, 35
3, 378539, Note_on_c, 0, 33, 0
3, 378720, Note_on_c, 0, 52, 0
3, 378720, Note_on_c, 0, 55, 0
3, 378720, Note_on_c, 0, 57, 0
3, 378720, Note_on_c, 0, 53, 31
3, 378720, Note_on_c, 0, 57, 31
3, 378720, Note_on_c, 0, 38, 29
3, 378899, Note_on_c, 0, 38, 0
3, 378899, Note_on_c, 0, 57, 0
3, 378899, Note_on_c, 0, 53, 0
3, 379080, Note_on_c, 0, 52, 70
3, 379080, Note_on_c, 0, 55, 70
3, 379080, Note_on_c, 0, 61, 70
3, 379080, Note_on_c, 0, 34, 55
3, 379080, Note_on_c, 0, 46, 55
3, 379440, Note_on_c, 0, 46, 0
3, 379440, Note_on_c, 0, 61, 0
3, 379440, Note_on_c, 0, 52, 0
3, 379440, Note_on_c, 0, 55, 0
3, 379440, Note_on_c, 0, 34, 0
3, 379440, Note_on_c, 0, 53, 32
3, 379440, Note_on_c, 0, 57, 32
3, 379440, Note_on_c, 0, 60, 32
3, 379440, Note_on_c, 0, 38, 26
3, 379440, Note_on_c, 0, 50, 26
3, 379619, Note_on_c, 0, 50, 0
3, 379619, Note_on_c, 0, 60, 0
3, 379619, Note_on_c, 0, 53, 0
3, 379619, Note_on_c, 0, 57, 0
3, 379619, Note_on_c, 0, 38, 0
3, 379800, Note_on_c, 0, 52, 56
3, 379800, Note_on_c, 0, 58, 56
3, 379800, Note_on_c, 0, 60, 56
3, 379800, Note_on_c, 0, 31, 49
3, 379800, Note_on_c, 0, 43, 49
3, 380160, Note_on_c, 0, 43, 0
3, 380160, Note_on_c, 0, 60, 0
3, 380160, Note_on_c, 0, 52, 0
3, 380160, Note_on_c, 0, 58, 0
3, 380160, Note_on_c, 0, 31, 0
3, 380160, Note_on_c, 0, 50, 38
3, 380160, Note_on_c, 0, 53, 38
3, 380160, Note_on_c, 0, 57, 38
3, 380160, Note_on_c, 0, 38, 17
3, 380339, Note_on_c, 0, 38, 0
3, 380339, Note_on_c, 0, 50, 0
3, 380339, Note_on_c, 0, 53, 0
3, 380339, Note_on_c, 0, 57, 0
3, 380520, Note_on_c, 0, 50, 61
3, 380520, Note_on_c, 0, 55, 61
3, 380520, Note_on_c, 0, 58, 61
3, 380520, Note_on_c, 0, 28, 50
3, 380520, Note_on_c, 0, 40, 50
3, 380880, Note_on_c, 0, 40, 0
3, 380880, Note_on_c, 0, 58, 0
3, 380880, Note_on_c, 0, 50, 0
3, 380880, Note_on_c, 0, 55, 0
3, 380880, Note_on_c, 0, 28, 0
3, 380880, Note_on_c, 0, 50, 35
3, 380880, Note_on_c, 0, 53, 35
3, 380880, Note_on_c, 0, 57, 35
3, 380880, Note_on_c, 0, 38, 26
3, 381059, Note_on_c, 0, 38, 0
3, 381059, Note_on_c, 0, 50, 0
3, 381059, Note_on_c, 0, 53, 0
3, 381059, Note_on_c, 0, 57, 0
3, 381240, Note_on_c, 0, 52, 58
3, 381240, Note_on_c, 0, 55, 58
3, 381240, Note_on_c, 0, 57, 58
3, 381240, Note_on_c, 0, 33, 56
3, 381240, Note_on_c, 0, 45, 56
3, 381600, Note_on_c, 0, 45, 0
3, 381600, Note_on_c, 0, 57, 0
3, 381600, Note_on_c, 0, 52, 0
3, 381600, Note_on_c, 0, 55, 0
3, 381600, Note_on_c, 0, 33, 0
3, 381600, Note_on_c, 0, 50, 34
3, 381600, Note_on_c, 0, 53, 34
3, 381600, Note_on_c, 0, 57, 34
3, 381600, Note_on_c, 0, 38, 21
3, 381779, Note_on_c, 0, 38, 0
3, 381779, Note_on_c, 0, 50, 0
3, 381779, Note_on_c, 0, 53, 0
3, 381779, Note_on_c, 0, 57, 0
3, 381960, Note_on_c, 0, 52, 68
3, 381960, Note_on_c, 0, 58, 68
3, 381960, Note_on_c, 0, 61, 68
3, 381960, Note_on_c, 0, 42, 54
3, 382320, Note_on_c, 0, 42, 0
3, 382320, Note_on_c, 0, 52, 0
3, 382320, Note_on_c, 0, 58, 0
3, 382320, Note_on_c, 0, 61, 0
3, 382320, Note_on_c, 0, 53, 32
3, 382320, Note_on_c, 0, 56, 32
3, 382320, Note_on_c, 0, 58, 32
3, 382320, Note_on_c, 0, 46, 30
3, 382499, Note_on_c, 0, 46, 0
3, 382499, Note_on_c, 0, 53, 0
3, 382499, Note_on_c, 0, 56, 0
3, 382499, Note_on_c, 0, 58, 0
3, 382680, Note_on_c, 0, 54, 59
3, 382680, Note_on_c, 0, 58, 59
3, 382680, Note_on_c, 0, 60, 59
3, 382680, Note_on_c, 0, 39, 52
3, 382680, Note_on_c, 0, 48, 52
3, 383040, Note_on_c, 0, 48, 0
3, 383040, Note_on_c, 0, 60, 0
3, 383040, Note_on_c, 0, 54, 0
3, 383040, Note_on_c, 0, 58, 0
3, 383040, Note_on_c, 0, 39, 0
3, 383040, Note_on_c, 0, 53, 31
3, 383040, Note_on_c, 0, 58, 31
3, 383040, Note_on_c, 0, 46, 25
3, 383040, Note_on_c, 0, 50, 25
3, 383219, Note_on_c, 0, 50, 0
3, 383219, Note_on_c, 0, 53, 0
3, 383219, Note_on_c, 0, 58, 0
3, 383219, Note_on_c, 0, 46, 0
3, 383400, Note_on_c, 0, 51, 62
3, 383400, Note_on_c, 0, 54, 62
3, 383400, Note_on_c, 0, 58, 62
3, 383400, Note_on_c, 0, 36, 41
3, 383760, Note_on_c, 0, 36, 0
3, 383760, Note_on_c, 0, 51, 0
3, 383760, Note_on_c, 0, 54, 0
3, 383760, Note_on_c, 0, 58, 0
3, 383760, Note_on_c, 0, 50, 37
3, 383760, Note_on_c, 0, 51, 37
3, 383760, Note_on_c, 0, 58, 37
3, 383760, Note_on_c, 0, 42, 25
3, 383939, Note_on_c, 0, 42, 0
3, 383939, Note_on_c, 0, 50, 0
3, 383939, Note_on_c, 0, 51, 0
3, 383939, Note_on_c, 0, 58, 0
3, 384120, Note_on_c, 0, 51, 65
3, 384120, Note_on_c, 0, 53, 65
3, 384120, Note_on_c, 0, 57, 65
3, 384120, Note_on_c, 0, 60, 65
3, 384120, Note_on_c, 0, 41, 33
3, 384120, Note_on_c, 0, 48, 33
3, 384299, Note_on_c, 0, 48, 0
3, 384299, Note_on_c, 0, 41, 0
3, 384480, Note_on_c, 0, 57, 0
3, 384480, Note_on_c, 0, 51, 0
3, 384480, Note_on_c, 0, 53, 0
3, 384480, Note_on_c, 0, 60, 0
3, 384480, Note_on_c, 0, 50, 37
3, 384480, Note_on_c, 0, 58, 37
3, 384480, Note_on_c, 0, 46, 21
3, 384659, Note_on_c, 0, 46, 0
3, 384659, Note_on_c, 0, 58, 0
3, 384659, Note_on_c, 0, 50, 0
3, 384840, Note_on_c, 0, 54, 42
3, 384840, Note_on_c, 0, 58, 42
3, 384840, Note_on_c, 0, 63, 42
3, 384840, Note_on_c, 0, 46, 26
3, 385019, Note_on_c, 0, 46, 0
3, 385200, Note_on_c, 0, 54, 0
3, 385200, Note_on_c, 0, 58, 0
3, 385200, Note_on_c, 0, 63, 0
3, 385200, Note_on_c, 0, 53, 34
3, 385200, Note_on_c, 0, 56, 34
3, 385200, Note_on_c, 0, 58, 34
3, 385200, Note_on_c, 0, 62, 34
3, 385200, Note_on_c, 0, 44, 18
3, 385379, Note_on_c, 0, 44, 0
3, 385560, Note_on_c, 0, 58, 0
3, 385560, Note_on_c, 0, 53, 0
3, 385560, Note_on_c, 0, 56, 0
3, 385560, Note_on_c, 0, 62, 0
3, 385560, Note_on_c, 0, 57, 34
3, 385560, Note_on_c, 0, 63, 34
3, 385560, Note_on_c, 0, 42, 30
3, 385560, Note_on_c, 0, 54, 30
3, 385739, Note_on_c, 0, 54, 0
3, 385739, Note_on_c, 0, 42, 0
3, 385740, Note_on_c, 0, 63, 0
3, 385740, Note_on_c, 0, 57, 0
3, 385740, Note_on_c, 0, 57, 32
3, 385740, Note_on_c, 0, 63, 32
3, 385920, Note_on_c, 0, 63, 0
3, 385920, Note_on_c, 0, 57, 0
3, 385920, Note_on_c, 0, 56, 30
3, 385920, Note_on_c, 0, 58, 30
3, 385920, Note_on_c, 0, 62, 30
3, 385920, Note_on_c, 0, 41, 22
3, 385920, Note_on_c, 0, 53, 22
3, 386038, Note_on_c, 0, 53, 0
3, 386038, Note_on_c, 0, 41, 0
3, 386159, Note_on_c, 0, 56, 0
3, 386159, Note_on_c, 0, 58, 0
3, 386159, Note_on_c, 0, 62, 0
3, 386159, Note_on_c, 0, 58, 29
3, 386159, Note_on_c, 0, 46, 25
3, 386280, Note_on_c, 0, 46, 0
3, 386280, Note_on_c, 0, 58, 0
3, 386280, Note_on_c, 0, 59, 40
3, 386280, Note_on_c, 0, 51, 25
3, 386280, Note_on_c, 0, 54, 25
3, 386280, Note_on_c, 0, 57, 25
3, 386280, Note_on_c, 0, 47, 29
3, 386280, Note_on_c, 0, 39, 40
3, 386400, Note_on_c, 0, 47, 0
3, 386400, Note_on_c, 0, 59, 0
3, 386400, Note_on_c, 0, 58, 34
3, 386400, Note_on_c, 0, 46, 33
3, 386519, Note_on_c, 0, 46, 0
3, 386519, Note_on_c, 0, 58, 0
3, 386519, Note_on_c, 0, 59, 32
3, 386519, Note_on_c, 0, 47, 26
3, 386640, Note_on_c, 0, 47, 0
3, 386640, Note_on_c, 0, 39, 0
3, 386640, Note_on_c, 0, 57, 0
3, 386640, Note_on_c, 0, 51, 0
3, 386640, Note_on_c, 0, 59, 0
3, 386640, Note_on_c, 0, 54, 0
3, 386640, Note_on_c, 0, 58, 33
3, 386640, Note_on_c, 0, 50, 24
3, 386640, Note_on_c, 0, 53, 24
3, 386640, Note_on_c, 0, 38, 30
3, 386640, Note_on_c, 0, 46, 30
3, 386729, Note_on_c, 0, 46, 0
3, 386729, Note_on_c, 0, 38, 0
3, 386820, Note_on_c, 0, 36, 24
3, 386820, Note_on_c, 0, 48, 24
3, 386879, Note_on_c, 0, 58, 0
3, 386879, Note_on_c, 0, 60, 38
3, 386909, Note_on_c, 0, 36, 0
3, 386909, Note_on_c, 0, 48, 0
3, 387000, Note_on_c, 0, 50, 0
3, 387000, Note_on_c, 0, 53, 0
3, 387000, Note_on_c, 0, 60, 0
3, 387000, Note_on_c, 0, 62, 42
3, 387000, Note_on_c, 0, 53, 28
3, 387000, Note_on_c, 0, 34, 27
3, 387000, Note_on_c, 0, 46, 27
3, 387089, Note_on_c, 0, 46, 0
3, 387089, Note_on_c, 0, 34, 0
3, 387120, Note_on_c, 0, 62, 0
3, 387120, Note_on_c, 0, 63, 36
3, 387180, Note_on_c, 0, 32, 19
3, 387180, Note_on_c, 0, 44, 19
3, 387239, Note_on_c, 0, 63, 0
3, 387239, Note_on_c, 0, 65, 41
3, 387269, Note_on_c, 0, 44, 0
3, 387269, Note_on_c, 0, 32, 0
3, 387360, Note_on_c, 0, 53, 0
3, 387360, Note_on_c, 0, 65, 0
3, 387360, Note_on_c, 0, 55, 44
3, 387360, Note_on_c, 0, 63, 44
3, 387360, Note_on_c, 0, 67, 44
3, 387360, Note_on_c, 0, 31, 64
3, 387360, Note_on_c, 0, 43, 64
3, 388440, Note_on_c, 0, 67, 0
3, 388440, Note_on_c, 0, 55, 0
3, 388440, Note_on_c, 0, 63, 0
3, 388440, Note_on_c, 0, 60, 27
3, 388440, Note_on_c, 0, 51, 20
3, 388560, Note_on_c, 0, 60, 0
3, 388560, Note_on_c, 0, 62, 34
3, 388679, Note_on_c, 0, 62, 0
3, 388679, Note_on_c, 0, 63, 34
3, 388800, Note_on_c, 0, 63, 0
3, 388800, Note_on_c, 0, 51, 0
3, 388800, Note_on_c, 0, 31, 0
3, 388800, Note_on_c, 0, 62, 36
3, 388800, Note_on_c, 0, 53, 25
3, 389039, Note_on_c, 0, 62, 0
3, 389039, Note_on_c, 0, 63, 40
3, 389160, Note_on_c, 0, 63, 0
3, 389160, Note_on_c, 0, 62, 35
3, 389399, Note_on_c, 0, 62, 0
3, 389399, Note_on_c, 0, 60, 34
3, 389520, Note_on_c, 0, 60, 0
3, 389520, Note_on_c, 0, 58, 37
3, 389759, Note_on_c, 0, 58, 0
3, 389759, Note_on_c, 0, 56, 36
3, 389880, Note_on_c, 0, 56, 0
3, 389880, Note_on_c, 0, 53, 0
3, 389880, Note_on_c, 0, 55, 38
3, 389880, Note_on_c, 0, 58, 38
3, 389880, Note_on_c, 0, 50, 18
3, 390000, Note_on_c, 0, 50, 0
3, 390000, Note_on_c, 0, 51, 22
3, 390119, Note_on_c, 0, 51, 0
3, 390119, Note_on_c, 0, 53, 30
3, 390240, Note_on_c, 0, 53, 0
3, 390240, Note_on_c, 0, 58, 0
3, 390240, Note_on_c, 0, 55, 0
3, 390240, Note_on_c, 0, 60, 34
3, 390240, Note_on_c, 0, 55, 26
3, 390240, Note_on_c, 0, 51, 23
3, 390479, Note_on_c, 0, 51, 0
3, 390479, Note_on_c, 0, 53, 28
3, 390600, Note_on_c, 0, 53, 0
3, 390600, Note_on_c, 0, 55, 0
3, 390600, Note_on_c, 0, 51, 24
3, 390839, Note_on_c, 0, 51, 0
3, 390839, Note_on_c, 0, 50, 25
3, 390960, Note_on_c, 0, 50, 0
3, 390960, Note_on_c, 0, 60, 0
3, 390960, Note_on_c, 0, 48, 27
3, 391199, Note_on_c, 0, 48, 0
3, 391199, Note_on_c, 0, 46, 22
3, 391320, Note_on_c, 0, 46, 0
3, 391320, Note_on_c, 0, 48, 28
3, 391320, Note_on_c, 0, 57, 28
3, 391320, Note_on_c, 0, 45, 23
3, 391559, Note_on_c, 0, 45, 0
3, 391559, Note_on_c, 0, 43, 22
3, 391680, Note_on_c, 0, 43, 0
3, 391680, Note_on_c, 0, 57, 0
3, 391680, Note_on_c, 0, 48, 0
3, 391680, Note_on_c, 0, 43, 0
3, 391680, Note_on_c, 0, 50, 26
3, 391680, Note_on_c, 0, 58, 26
3, 391680, Note_on_c, 0, 43, 26
3, 392040, Note_on_c, 0, 43, 0
3, 392040, Note_on_c, 0, 58, 0
3, 392040, Note_on_c, 0, 50, 0
3, 392040, Note_on_c, 0, 55, 32
3, 392040, Note_on_c, 0, 57, 32
3, 392040, Note_on_c, 0, 43, 34
3, 392040, Note_on_c, 0, 48, 34
3, 392219, Note_on_c, 0, 48, 0
3, 392219, Note_on_c, 0, 55, 0
3, 392219, Note_on_c, 0, 57, 0
3, 392219, Note_on_c, 0, 43, 0
3, 392400, Note_on_c, 0, 53, 38
3, 392400, Note_on_c, 0, 58, 38
3, 392400, Note_on_c, 0, 41, 32
3, 392400, Note_on_c, 0, 50, 32
3, 392579, Note_on_c, 0, 50, 0
3, 392579, Note_on_c, 0, 53, 0
3, 392579, Note_on_c, 0, 58, 0
3, 392579, Note_on_c, 0, 41, 0
3, 392760, Note_on_c, 0, 57, 39
3, 392760, Note_on_c, 0, 60, 39
3, 392760, Note_on_c, 0, 39, 29
3, 392760, Note_on_c, 0, 51, 29
3, 392939, Note_on_c, 0, 51, 0
3, 392939, Note_on_c, 0, 57, 0
3, 392939, Note_on_c, 0, 60, 0
3, 392939, Note_on_c, 0, 39, 0
3, 393120, Note_on_c, 0, 55, 39
3, 393120, Note_on_c, 0, 58, 39
3, 393120, Note_on_c, 0, 62, 39
3, 393120, Note_on_c, 0, 38, 23
3, 393120, Note_on_c, 0, 50, 23
3, 393299, Note_on_c, 0, 50, 0
3, 393299, Note_on_c, 0, 62, 0
3, 393299, Note_on_c, 0, 55, 0
3, 393299, Note_on_c, 0, 58, 0
3, 393299, Note_on_c, 0, 38, 0
3, 393480, Note_on_c, 0, 55, 41
3, 393480, Note_on_c, 0, 60, 41
3, 393480, Note_on_c, 0, 63, 41
3, 393480, Note_on_c, 0, 36, 24
3, 393480, Note_on_c, 0, 48, 24
3, 393659, Note_on_c, 0, 48, 0
3, 393659, Note_on_c, 0, 63, 0
3, 393659, Note_on_c, 0, 55, 0
3, 393659, Note_on_c, 0, 60, 0
3, 393659, Note_on_c, 0, 36, 0
3, 393840, Note_on_c, 0, 55, 35
3, 393840, Note_on_c, 0, 62, 35
3, 393840, Note_on_c, 0, 34, 23
3, 393840, Note_on_c, 0, 46, 23
3, 393929, Note_on_c, 0, 46, 0
3, 393929, Note_on_c, 0, 34, 0
3, 394019, Note_on_c, 0, 62, 0
3, 394019, Note_on_c, 0, 55, 0
3, 394020, Note_on_c, 0, 33, 23
3, 394020, Note_on_c, 0, 45, 23
3, 394109, Note_on_c, 0, 45, 0
3, 394109, Note_on_c, 0, 33, 0
3, 394200, Note_on_c, 0, 61, 32
3, 394200, Note_on_c, 0, 52, 21
3, 394200, Note_on_c, 0, 32, 25
3, 394200, Note_on_c, 0, 44, 25
3, 394289, Note_on_c, 0, 44, 0
3, 394289, Note_on_c, 0, 32, 0
3, 394320, Note_on_c, 0, 61, 0
3, 394320, Note_on_c, 0, 62, 42
3, 394380, Note_on_c, 0, 31, 25
3, 394380, Note_on_c, 0, 43, 25
3, 394439, Note_on_c, 0, 62, 0
3, 394439, Note_on_c, 0, 63, 39
3, 394469, Note_on_c, 0, 43, 0
3, 394469, Note_on_c, 0, 31, 0
3, 394560, Note_on_c, 0, 52, 0
3, 394560, Note_on_c, 0, 63, 0
3, 394560, Note_on_c, 0, 54, 47
3, 394560, Note_on_c, 0, 62, 47
3, 394560, Note_on_c, 0, 66, 47
3, 394560, Note_on_c, 0, 30, 37
3, 394560, Note_on_c, 0, 42, 37
3, 395640, Note_on_c, 0, 66, 0
3, 395640, Note_on_c, 0, 54, 0
3, 395640, Note_on_c, 0, 62, 0
3, 395640, Note_on_c, 0, 59, 35
3, 395640, Note_on_c, 0, 50, 25
3, 395760, Note_on_c, 0, 59, 0
3, 395760, Note_on_c, 0, 61, 34
3, 395879, Note_on_c, 0, 61, 0
3, 395879, Note_on_c, 0, 62, 34
3, 396000, Note_on_c, 0, 62, 0
3, 396000, Note_on_c, 0, 50, 0
3, 396000, Note_on_c, 0, 30, 0
3, 396000, Note_on_c, 0, 61, 33
3, 396000, Note_on_c, 0, 52, 29
3, 396239, Note_on_c, 0, 61, 0
3, 396239, Note_on_c, 0, 62, 40
3, 396360, Note_on_c, 0, 62, 0
3, 396360, Note_on_c, 0, 61, 59
3, 396599, Note_on_c, 0, 61, 0
3, 396599, Note_on_c, 0, 59, 34
3, 396720, Note_on_c, 0, 59, 0
3, 396720, Note_on_c, 0, 57, 65
3, 396720, Note_on_c, 0, 61, 65
3, 396959, Note_on_c, 0, 61, 0
3, 396959, Note_on_c, 0, 57, 0
3, 396959, Note_on_c, 0, 55, 36
3, 397080, Note_on_c, 0, 55, 0
3, 397080, Note_on_c, 0, 52, 0
3, 397080, Note_on_c, 0, 54, 44
3, 397080, Note_on_c, 0, 58, 44
3, 397080, Note_on_c, 0, 61, 44
3, 397080, Note_on_c, 0, 49, 23
3, 397200, Note_on_c, 0, 49, 0
3, 397200, Note_on_c, 0, 50, 28
3, 397319, Note_on_c, 0, 50, 0
3, 397319, Note_on_c, 0, 52, 27
3, 397440, Note_on_c, 0, 52, 0
3, 397440, Note_on_c, 0, 58, 0
3, 397440, Note_on_c, 0, 61, 0
3, 397440, Note_on_c, 0, 54, 0
3, 397440, Note_on_c, 0, 59, 34
3, 397440, Note_on_c, 0, 54, 24
3, 397440, Note_on_c, 0, 50, 26
3, 397679, Note_on_c, 0, 50, 0
3, 397679, Note_on_c, 0, 59, 0
3, 397679, Note_on_c, 0, 61, 34
3, 397679, Note_on_c, 0, 52, 27
3, 397800, Note_on_c, 0, 52, 0
3, 397800, Note_on_c, 0, 61, 0
3, 397800, Note_on_c, 0, 54, 0
3, 397800, Note_on_c, 0, 59, 34
3, 397800, Note_on_c, 0, 50, 26
3, 398039, Note_on_c, 0, 50, 0
3, 398039, Note_on_c, 0, 59, 0
3, 398039, Note_on_c, 0, 57, 35
3, 398039, Note_on_c, 0, 49, 23
3, 398160, Note_on_c, 0, 49, 0
3, 398160, Note_on_c, 0, 57, 0
3, 398160, Note_on_c, 0, 55, 37
3, 398160, Note_on_c, 0, 47, 22
3, 398399, Note_on_c, 0, 47, 0
3, 398399, Note_on_c, 0, 55, 0
3, 398399, Note_on_c, 0, 54, 32
3, 398399, Note_on_c, 0, 45, 21
3, 398520, Note_on_c, 0, 45, 0
3, 398520, Note_on_c, 0, 54, 0
3, 398520, Note_on_c, 0, 53, 33
3, 398520, Note_on_c, 0, 56, 33
3, 398520, Note_on_c, 0, 44, 30
3, 398520, Note_on_c, 0, 47, 30
3, 398759, Note_on_c, 0, 47, 0
3, 398759, Note_on_c, 0, 56, 0
3, 398759, Note_on_c, 0, 44, 0
3, 398759, Note_on_c, 0, 53, 0
3, 398759, Note_on_c, 0, 54, 29
3, 398759, Note_on_c, 0, 42, 21
3, 398880, Note_on_c, 0, 42, 0
3, 398880, Note_on_c, 0, 54, 0
3, 398880, Note_on_c, 0, 42, 0
3, 398880, Note_on_c, 0, 49, 43
3, 398880, Note_on_c, 0, 54, 43
3, 398880, Note_on_c, 0, 58, 43
3, 398880, Note_on_c, 0, 42, 24
3, 399240, Note_on_c, 0, 42, 0
3, 399240, Note_on_c, 0, 49, 0
3, 399240, Note_on_c, 0, 54, 0
3, 399240, Note_on_c, 0, 58, 0
3, 399240, Note_on_c, 0, 54, 38
3, 399240, Note_on_c, 0, 56, 38
3, 399240, Note_on_c, 0, 59, 38
3, 399240, Note_on_c, 0, 42, 30
3, 399240, Note_on_c, 0, 50, 30
3, 399419, Note_on_c, 0, 50, 0
3, 399419, Note_on_c, 0, 59, 0
3, 399419, Note_on_c, 0, 54, 0
3, 399419, Note_on_c, 0, 56, 0
3, 399419, Note_on_c, 0, 42, 0
3, 399600, Note_on_c, 0, 52, 32
3, 399600, Note_on_c, 0, 57, 32
3, 399600, Note_on_c, 0, 40, 27
3, 399600, Note_on_c, 0, 49, 27
3, 399779, Note_on_c, 0, 49, 0
3, 399779, Note_on_c, 0, 52, 0
3, 399779, Note_on_c, 0, 57, 0
3, 399779, Note_on_c, 0, 40, 0
3, 399960, Note_on_c, 0, 56, 36
3, 399960, Note_on_c, 0, 59, 36
3, 399960, Note_on_c, 0, 38, 27
3, 399960, Note_on_c, 0, 50, 27
3, 400139, Note_on_c, 0, 50, 0
3, 400139, Note_on_c, 0, 56, 0
3, 400139, Note_on_c, 0, 59, 0
3, 400139, Note_on_c, 0, 38, 0
3, 400320, Note_on_c, 0, 54, 40
3, 400320, Note_on_c, 0, 57, 40
3, 400320, Note_on_c, 0, 61, 40
3, 400320, Note_on_c, 0, 37, 27
3, 400320, Note_on_c, 0, 49, 27
3, 400499, Note_on_c, 0, 49, 0
3, 400499, Note_on_c, 0, 61, 0
3, 400499, Note_on_c, 0, 54, 0
3, 400499, Note_on_c, 0, 57, 0
3, 400499, Note_on_c, 0, 37, 0
3, 400680, Note_on_c, 0, 54, 40
3, 400680, Note_on_c, 0, 59, 40
3, 400680, Note_on_c, 0, 62, 40
3, 400680, Note_on_c, 0, 35, 25
3, 400680, Note_on_c, 0, 47, 25
3, 400859, Note_on_c, 0, 47, 0
3, 400859, Note_on_c, 0, 62, 0
3, 400859, Note_on_c, 0, 54, 0
3, 400859, Note_on_c, 0, 59, 0
3, 400859, Note_on_c, 0, 35, 0
3, 401040, Note_on_c, 0, 54, 35
3, 401040, Note_on_c, 0, 61, 35
3, 401040, Note_on_c, 0, 33, 24
3, 401040, Note_on_c, 0, 45, 24
3, 401129, Note_on_c, 0, 45, 0
3, 401129, Note_on_c, 0, 33, 0
3, 401219, Note_on_c, 0, 61, 0
3, 401219, Note_on_c, 0, 54, 0
3, 401220, Note_on_c, 0, 32, 23
3, 401220, Note_on_c, 0, 44, 23
3, 401309, Note_on_c, 0, 44, 0
3, 401309, Note_on_c, 0, 32, 0
3, 401400, Note_on_c, 0, 51, 34
3, 401400, Note_on_c, 0, 58, 34
3, 401400, Note_on_c, 0, 60, 34
3, 401400, Note_on_c, 0, 31, 26
3, 401400, Note_on_c, 0, 43, 26
3, 401489, Note_on_c, 0, 43, 0
3, 401489, Note_on_c, 0, 31, 0
3, 401579, Note_on_c, 0, 51, 0
3, 401579, Note_on_c, 0, 58, 0
3, 401579, Note_on_c, 0, 60, 0
3, 401580, Note_on_c, 0, 30, 22
3, 401580, Note_on_c, 0, 42, 22
3, 401669, Note_on_c, 0, 42, 0
3, 401669, Note_on_c, 0, 30, 0
3, 401760, Note_on_c, 0, 53, 33
3, 401760, Note_on_c, 0, 58, 33
3, 401760, Note_on_c, 0, 61, 33
3, 401760, Note_on_c, 0, 29, 18
3, 401816, Note_on_c, 0, 29, 0
3, 401832, Note_on_c, 0, 41, 29
3, 401888, Note_on_c, 0, 41, 0
3, 401904, Note_on_c, 0, 29, 18
3, 401960, Note_on_c, 0, 29, 0
3, 401975, Note_on_c, 0, 41, 29
3, 401999, Note_on_c, 0, 53, 0
3, 401999, Note_on_c, 0, 61, 0
3, 401999, Note_on_c, 0, 58, 0
3, 401999, Note_on_c, 0, 53, 29
3, 402032, Note_on_c, 0, 41, 0
3, 402047, Note_on_c, 0, 29, 18
3, 402103, Note_on_c, 0, 29, 0
3, 402119, Note_on_c, 0, 41, 29
3, 402120, Note_on_c, 0, 53, 0
3, 402120, Note_on_c, 0, 54, 35
3, 402175, Note_on_c, 0, 41, 0
3, 402191, Note_on_c, 0, 29, 18
3, 402240, Note_on_c, 0, 54, 0
3, 402240, Note_on_c, 0, 53, 37
3, 402247, Note_on_c, 0, 29, 0
3, 402262, Note_on_c, 0, 41, 29
3, 402299, Note_on_c, 0, 53, 0
3, 402318, Note_on_c, 0, 41, 0
3, 402334, Note_on_c, 0, 29, 18
3, 402359, Note_on_c, 0, 54, 32
3, 402390, Note_on_c, 0, 29, 0
3, 402405, Note_on_c, 0, 41, 29
3, 402418, Note_on_c, 0, 54, 0
3, 402462, Note_on_c, 0, 41, 0
3, 402477, Note_on_c, 0, 29, 18
3, 402480, Note_on_c, 0, 58, 51
3, 402480, Note_on_c, 0, 49, 24
3, 402480, Note_on_c, 0, 53, 24
3, 402480, Note_on_c, 0, 29, 17
3, 402534, Note_on_c, 0, 29, 0
3, 402536, Note_on_c, 0, 29, 0
3, 402549, Note_on_c, 0, 41, 29
3, 402552, Note_on_c, 0, 41, 33
3, 402605, Note_on_c, 0, 41, 0
3, 402608, Note_on_c, 0, 41, 0
3, 402624, Note_on_c, 0, 29, 17
3, 402680, Note_on_c, 0, 29, 0
3, 402690, Note_on_c, 0, 58, 0
3, 402695, Note_on_c, 0, 41, 33
3, 402719, Note_on_c, 0, 57, 36
3, 402752, Note_on_c, 0, 41, 0
3, 402767, Note_on_c, 0, 29, 17
3, 402823, Note_on_c, 0, 29, 0
3, 402839, Note_on_c, 0, 41, 33
3, 402840, Note_on_c, 0, 57, 0
3, 402840, Note_on_c, 0, 58, 63
3, 402895, Note_on_c, 0, 41, 0
3, 402911, Note_on_c, 0, 29, 17
3, 402967, Note_on_c, 0, 29, 0
3, 402982, Note_on_c, 0, 41, 33
3, 403038, Note_on_c, 0, 41, 0
3, 403054, Note_on_c, 0, 29, 17
3, 403110, Note_on_c, 0, 29, 0
3, 403125, Note_on_c, 0, 41, 33
3, 403182, Note_on_c, 0, 41, 0
3, 403197, Note_on_c, 0, 29, 17
3, 403200, Note_on_c, 0, 29, 0
3, 403200, Note_on_c, 0, 58, 0
3, 403200, Note_on_c, 0, 58, 37
3, 403200, Note_on_c, 0, 29, 18
3, 403256, Note_on_c, 0, 29, 0
3, 403272, Note_on_c, 0, 41, 25
3, 403328, Note_on_c, 0, 41, 0
3, 403344, Note_on_c, 0, 29, 18
3, 403400, Note_on_c, 0, 29, 0
3, 403415, Note_on_c, 0, 41, 25
3, 403472, Note_on_c, 0, 41, 0
3, 403487, Note_on_c, 0, 29, 18
3, 403543, Note_on_c, 0, 29, 0
3, 403559, Note_on_c, 0, 41, 25
3, 403615, Note_on_c, 0, 41, 0
3, 403631, Note_on_c, 0, 29, 18
3, 403687, Note_on_c, 0, 29, 0
3, 403702, Note_on_c, 0, 41, 25
3, 403758, Note_on_c, 0, 41, 0
3, 403774, Note_on_c, 0, 29, 18
3, 403830, Note_on_c, 0, 29, 0
3, 403845, Note_on_c, 0, 41, 25
3, 403902, Note_on_c, 0, 41, 0
3, 403917, Note_on_c, 0, 29, 18
3, 403920, Note_on_c, 0, 58, 0
3, 403920, Note_on_c, 0, 57, 28
3, 403920, Note_on_c, 0, 29, 17
3, 403974, Note_on_c, 0, 29, 0
3, 403976, Note_on_c, 0, 29, 0
3, 403989, Note_on_c, 0, 41, 25
3, 403992, Note_on_c, 0, 41, 28
3, 404045, Note_on_c, 0, 41, 0
3, 404048, Note_on_c, 0, 41, 0
3, 404064, Note_on_c, 0, 29, 17
3, 404120, Note_on_c, 0, 29, 0
3, 404135, Note_on_c, 0, 41, 28
3, 404192, Note_on_c, 0, 41, 0
3, 404207, Note_on_c, 0, 29, 17
3, 404263, Note_on_c, 0, 29, 0
3, 404279, Note_on_c, 0, 41, 28
3, 404335, Note_on_c, 0, 41, 0
3, 404351, Note_on_c, 0, 29, 17
3, 404407, Note_on_c, 0, 29, 0
3, 404422, Note_on_c, 0, 41, 28
3, 404478, Note_on_c, 0, 41, 0
3, 404494, Note_on_c, 0, 29, 17
3, 404550, Note_on_c, 0, 29, 0
3, 404565, Note_on_c, 0, 41, 28
3, 404622, Note_on_c, 0, 41, 0
3, 404637, Note_on_c, 0, 29, 17
3, 404640, Note_on_c, 0, 29, 0
3, 404640, Note_on_c, 0, 53, 0
3, 404640, Note_on_c, 0, 49, 0
3, 404640, Note_on_c, 0, 57, 0
3, 404640, Note_on_c, 0, 57, 50
3, 404640, Note_on_c, 0, 49, 26
3, 404640, Note_on_c, 0, 53, 26
3, 404640, Note_on_c, 0, 29, 18
3, 405000, Note_on_c, 0, 29, 0
3, 405000, Note_on_c, 0, 41, 33
3, 405179, Note_on_c, 0, 41, 0
3, 405273, Note_on_c, 0, 57, 0
3, 405360, Note_on_c, 0, 58, 38
3, 405360, Note_on_c, 0, 39, 24
3, 405539, Note_on_c, 0, 39, 0
3, 405599, Note_on_c, 0, 58, 0
3, 405599, Note_on_c, 0, 57, 38
3, 405720, Note_on_c, 0, 57, 0
3, 405720, Note_on_c, 0, 58, 65
3, 405720, Note_on_c, 0, 37, 23
3, 405899, Note_on_c, 0, 37, 0
3, 406080, Note_on_c, 0, 36, 29
3, 406080, Note_on_c, 0, 48, 29
3, 406259, Note_on_c, 0, 48, 0
3, 406259, Note_on_c, 0, 36, 0
3, 406440, Note_on_c, 0, 58, 0
3, 406440, Note_on_c, 0, 34, 25
3, 406440, Note_on_c, 0, 46, 25
3, 406619, Note_on_c, 0, 46, 0
3, 406619, Note_on_c, 0, 34, 0
3, 406800, Note_on_c, 0, 32, 23
3, 406800, Note_on_c, 0, 44, 23
3, 406979, Note_on_c, 0, 44, 0
3, 406979, Note_on_c, 0, 32, 0
3, 407039, Note_on_c, 0, 53, 0
3, 407039, Note_on_c, 0, 49, 0
3, 407039, Note_on_c, 0, 48, 23
3, 407160, Note_on_c, 0, 48, 0
3, 407160, Note_on_c, 0, 49, 21
3, 407160, Note_on_c, 0, 31, 28
3, 407160, Note_on_c, 0, 43, 28
3, 407249, Note_on_c, 0, 43, 0
3, 407249, Note_on_c, 0, 31, 0
3, 407280, Note_on_c, 0, 49, 0
3, 407280, Note_on_c, 0, 51, 27
3, 407339, Note_on_c, 0, 51, 0
3, 407340, Note_on_c, 0, 30, 20
3, 407340, Note_on_c, 0, 42, 20
3, 407399, Note_on_c, 0, 52, 28
3, 407429, Note_on_c, 0, 42, 0
3, 407429, Note_on_c, 0, 30, 0
3, 407458, Note_on_c, 0, 52, 0
3, 407520, Note_on_c, 0, 53, 33
3, 407520, Note_on_c, 0, 29, 23
3, 407520, Note_on_c, 0, 41, 23
3, 407638, Note_on_c, 0, 53, 0
3, 407759, Note_on_c, 0, 53, 38
3, 407818, Note_on_c, 0, 53, 0
3, 407880, Note_on_c, 0, 55, 40
3, 408000, Note_on_c, 0, 55, 0
3, 408000, Note_on_c, 0, 53, 33
3, 408059, Note_on_c, 0, 53, 0
3, 408119, Note_on_c, 0, 55, 36
3, 408178, Note_on_c, 0, 55, 0
3, 408240, Note_on_c, 0, 41, 0
3, 408240, Note_on_c, 0, 29, 0
3, 408240, Note_on_c, 0, 56, 45
3, 408240, Note_on_c, 0, 48, 17
3, 408240, Note_on_c, 0, 53, 17
3, 408240, Note_on_c, 0, 29, 16
3, 408296, Note_on_c, 0, 29, 0
3, 408312, Note_on_c, 0, 41, 28
3, 408368, Note_on_c, 0, 41, 0
3, 408384, Note_on_c, 0, 29, 16
3, 408440, Note_on_c, 0, 29, 0
3, 408450, Note_on_c, 0, 56, 0
3, 408455, Note_on_c, 0, 41, 28
3, 408479, Note_on_c, 0, 55, 34
3, 408512, Note_on_c, 0, 41, 0
3, 408527, Note_on_c, 0, 29, 16
3, 408583, Note_on_c, 0, 29, 0
3, 408599, Note_on_c, 0, 41, 28
3, 408600, Note_on_c, 0, 55, 0
3, 408600, Note_on_c, 0, 56, 41
3, 408655, Note_on_c, 0, 41, 0
3, 408671, Note_on_c, 0, 29, 16
3, 408727, Note_on_c, 0, 29, 0
3, 408742, Note_on_c, 0, 41, 28
3, 408798, Note_on_c, 0, 41, 0
3, 408814, Note_on_c, 0, 29, 16
3, 408870, Note_on_c, 0, 29, 0
3, 408885, Note_on_c, 0, 41, 28
3, 408942, Note_on_c, 0, 41, 0
3, 408957, Note_on_c, 0, 29, 16
3, 408960, Note_on_c, 0, 29, 0
3, 408960, Note_on_c, 0, 29, 20
3, 409016, Note_on_c, 0, 29, 0
3, 409032, Note_on_c, 0, 41, 31
3, 409088, Note_on_c, 0, 41, 0
3, 409104, Note_on_c, 0, 29, 20
3, 409160, Note_on_c, 0, 29, 0
3, 409175, Note_on_c, 0, 41, 31
3, 409232, Note_on_c, 0, 41, 0
3, 409247, Note_on_c, 0, 29, 20
3, 409303, Note_on_c, 0, 29, 0
3, 409319, Note_on_c, 0, 41, 31
3, 409375, Note_on_c, 0, 41, 0
3, 409391, Note_on_c, 0, 29, 20
3, 409447, Note_on_c, 0, 29, 0
3, 409462, Note_on_c, 0, 41, 31
3, 409518, Note_on_c, 0, 41, 0
3, 409534, Note_on_c, 0, 29, 20
3, 409590, Note_on_c, 0, 29, 0
3, 409605, Note_on_c, 0, 41, 31
3, 409662, Note_on_c, 0, 41, 0
3, 409677, Note_on_c, 0, 29, 20
3, 409680, Note_on_c, 0, 56, 0
3, 409680, Note_on_c, 0, 48, 0
3, 409680, Note_on_c, 0, 53, 0
3, 409680, Note_on_c, 0, 47, 40
3, 409680, Note_on_c, 0, 53, 40
3, 409680, Note_on_c, 0, 55, 40
3, 409680, Note_on_c, 0, 29, 23
3, 409734, Note_on_c, 0, 29, 0
3, 409736, Note_on_c, 0, 29, 0
3, 409749, Note_on_c, 0, 41, 31
3, 409752, Note_on_c, 0, 41, 33
3, 409805, Note_on_c, 0, 41, 0
3, 409808, Note_on_c, 0, 41, 0
3, 409824, Note_on_c, 0, 29, 23
3, 409880, Note_on_c, 0, 29, 0
3, 409895, Note_on_c, 0, 41, 33
3, 409952, Note_on_c, 0, 41, 0
3, 409967, Note_on_c, 0, 29, 23
3, 410023, Note_on_c, 0, 29, 0
3, 410039, Note_on_c, 0, 41, 33
3, 410095, Note_on_c, 0, 41, 0
3, 410111, Note_on_c, 0, 29, 23
3, 410167, Note_on_c, 0, 29, 0
3, 410182, Note_on_c, 0, 41, 33
3, 410238, Note_on_c, 0, 41, 0
3, 410254, Note_on_c, 0, 29, 23
3, 410310, Note_on_c, 0, 29, 0
3, 410325, Note_on_c, 0, 41, 33
3, 410382, Note_on_c, 0, 41, 0
3, 410397, Note_on_c, 0, 29, 23
3, 410400, Note_on_c, 0, 29, 0
3, 410400, Note_on_c, 0, 47, 0
3, 410400, Note_on_c, 0, 53, 0
3, 410400, Note_on_c, 0, 55, 0
3, 410400, Note_on_c, 0, 47, 38
3, 410400, Note_on_c, 0, 53, 38
3, 410400, Note_on_c, 0, 55, 38
3, 410400, Note_on_c, 0, 29, 20
3, 410760, Note_on_c, 0, 29, 0
3, 410760, Note_on_c, 0, 41, 33
3, 410939, Note_on_c, 0, 41, 0
3, 411033, Note_on_c, 0, 55, 0
3, 411033, Note_on_c, 0, 53, 0
3, 411033, Note_on_c, 0, 47, 0
3, 411120, Note_on_c, 0, 53, 26
3, 411120, Note_on_c, 0, 48, 30
3, 411120, Note_on_c, 0, 56, 30
3, 411120, Note_on_c, 0, 39, 25
3, 411299, Note_on_c, 0, 39, 0
3, 411480, Note_on_c, 0, 37, 28
3, 411659, Note_on_c, 0, 37, 0
3, 411840, Note_on_c, 0, 36, 24
3, 412019, Note_on_c, 0, 36, 0
3, 412079, Note_on_c, 0, 53, 0
3, 412079, Note_on_c, 0, 53, 41
3, 412200, Note_on_c, 0, 53, 0
3, 412200, Note_on_c, 0, 55, 37
3, 412200, Note_on_c, 0, 34, 30
3, 412200, Note_on_c, 0, 46, 30
3, 412320, Note_on_c, 0, 55, 0
3, 412320, Note_on_c, 0, 53, 32
3, 412379, Note_on_c, 0, 53, 0
3, 412379, Note_on_c, 0, 46, 0
3, 412379, Note_on_c, 0, 34, 0
3, 412439, Note_on_c, 0, 55, 34
3, 412498, Note_on_c, 0, 55, 0
3, 412560, Note_on_c, 0, 56, 0
3, 412560, Note_on_c, 0, 48, 0
3, 412560, Note_on_c, 0, 56, 39
3, 412560, Note_on_c, 0, 32, 26
3, 412560, Note_on_c, 0, 44, 26
3, 412649, Note_on_c, 0, 44, 0
3, 412649, Note_on_c, 0, 32, 0
3, 412678, Note_on_c, 0, 56, 0
3, 412740, Note_on_c, 0, 31, 25
3, 412740, Note_on_c, 0, 43, 25
3, 412799, Note_on_c, 0, 56, 41
3, 412829, Note_on_c, 0, 43, 0
3, 412829, Note_on_c, 0, 31, 0
3, 412920, Note_on_c, 0, 56, 0
3, 412920, Note_on_c, 0, 58, 41
3, 412920, Note_on_c, 0, 30, 22
3, 412920, Note_on_c, 0, 42, 22
3, 413009, Note_on_c, 0, 42, 0
3, 413009, Note_on_c, 0, 30, 0
3, 413040, Note_on_c, 0, 58, 0
3, 413040, Note_on_c, 0, 56, 35
3, 413099, Note_on_c, 0, 56, 0
3, 413100, Note_on_c, 0, 29, 25
3, 413100, Note_on_c, 0, 41, 25
3, 413159, Note_on_c, 0, 58, 35
3, 413189, Note_on_c, 0, 41, 0
3, 413189, Note_on_c, 0, 29, 0
3, 413218, Note_on_c, 0, 58, 0
3, 413280, Note_on_c, 0, 56, 33
3, 413280, Note_on_c, 0, 28, 23
3, 413280, Note_on_c, 0, 40, 23
3, 413459, Note_on_c, 0, 56, 0
3, 413640, Note_on_c, 0, 47, 36
3, 413640, Note_on_c, 0, 56, 36
3, 414000, Note_on_c, 0, 56, 0
3, 414000, Note_on_c, 0, 47, 0
3, 414000, Note_on_c, 0, 48, 46
3, 414000, Note_on_c, 0, 57, 46
3, 414120, Note_on_c, 0, 56, 28
3, 414239, Note_on_c, 0, 56, 0
3, 414239, Note_on_c, 0, 57, 39
3, 414360, Note_on_c, 0, 57, 0
3, 414360, Note_on_c, 0, 57, 0
3, 414360, Note_on_c, 0, 48, 0
3, 414360, Note_on_c, 0, 50, 34
3, 414360, Note_on_c, 0, 56, 34
3, 414360, Note_on_c, 0, 59, 34
3, 414720, Note_on_c, 0, 59, 0
3, 414720, Note_on_c, 0, 50, 0
3, 414720, Note_on_c, 0, 56, 0
3, 414720, Note_on_c, 0, 57, 33
3, 414720, Note_on_c, 0, 52, 28
3, 414720, Note_on_c, 0, 60, 28
3, 414840, Note_on_c, 0, 57, 0
3, 414840, Note_on_c, 0, 56, 32
3, 414959, Note_on_c, 0, 56, 0
3, 414959, Note_on_c, 0, 57, 37
3, 415080, Note_on_c, 0, 57, 0
3, 415080, Note_on_c, 0, 52, 0
3, 415080, Note_on_c, 0, 60, 0
3, 415080, Note_on_c, 0, 52, 28
3, 415080, Note_on_c, 0, 53, 28
3, 415080, Note_on_c, 0, 62, 28
3, 415260, Note_on_c, 0, 60, 31
3, 415440, Note_on_c, 0, 60, 0
3, 415440, Note_on_c, 0, 53, 0
3, 415440, Note_on_c, 0, 52, 0
3, 415440, Note_on_c, 0, 62, 0
3, 415440, Note_on_c, 0, 57, 29
3, 415440, Note_on_c, 0, 54, 20
3, 415440, Note_on_c, 0, 59, 22
3, 415560, Note_on_c, 0, 57, 0
3, 415560, Note_on_c, 0, 56, 33
3, 415679, Note_on_c, 0, 56, 0
3, 415679, Note_on_c, 0, 57, 39
3, 415800, Note_on_c, 0, 57, 0
3, 415800, Note_on_c, 0, 54, 0
3, 415800, Note_on_c, 0, 56, 35
3, 416160, Note_on_c, 0, 56, 0
3, 416160, Note_on_c, 0, 59, 0
3, 416160, Note_on_c, 0, 28, 0
3, 416160, Note_on_c, 0, 40, 0
3, 416160, Note_on_c, 0, 56, 33
3, 416160, Note_on_c, 0, 62, 33
3, 416160, Note_on_c, 0, 40, 23
3, 416520, Note_on_c, 0, 59, 31
3, 416880, Note_on_c, 0, 59, 0
3, 416880, Note_on_c, 0, 60, 36
3, 417240, Note_on_c, 0, 60, 0
3, 417240, Note_on_c, 0, 62, 37
3, 417600, Note_on_c, 0, 62, 0
3, 419040, Note_on_c, 0, 56, 0
3, 419040, Note_on_c, 0, 40, 0
3, 419040, Note_on_c, 0, 62, 0
3, 419040, Note_on_c, 0, 55, 31
3, 419040, Note_on_c, 0, 27, 23
3, 419040, Note_on_c, 0, 39, 23
3, 419400, Note_on_c, 0, 55, 0
3, 419400, Note_on_c, 0, 46, 34
3, 419400, Note_on_c, 0, 55, 34
3, 419760, Note_on_c, 0, 55, 0
3, 419760, Note_on_c, 0, 46, 0
3, 419760, Note_on_c, 0, 47, 34
3, 419760, Note_on_c, 0, 56, 34
3, 420120, Note_on_c, 0, 56, 0
3, 420120, Note_on_c, 0, 47, 0
3, 420120, Note_on_c, 0, 49, 38
3, 420120, Note_on_c, 0, 58, 38
3, 420480, Note_on_c, 0, 58, 0
3, 420480, Note_on_c, 0, 49, 0
3, 420480, Note_on_c, 0, 51, 35
3, 420480, Note_on_c, 0, 59, 35
3, 420840, Note_on_c, 0, 59, 0
3, 420840, Note_on_c, 0, 51, 0
3, 420840, Note_on_c, 0, 52, 44
3, 420840, Note_on_c, 0, 61, 44
3, 421020, Note_on_c, 0, 59, 29
3, 421200, Note_on_c, 0, 59, 0
3, 421200, Note_on_c, 0, 59, 26
3, 421380, Note_on_c, 0, 52, 0
3, 421380, Note_on_c, 0, 61, 0
3, 421380, Note_on_c, 0, 53, 41
3, 421380, Note_on_c, 0, 62, 41
3, 421560, Note_on_c, 0, 62, 0
3, 421560, Note_on_c, 0, 53, 0
3, 421560, Note_on_c, 0, 55, 42
3, 421560, Note_on_c, 0, 63, 42
3, 421920, Note_on_c, 0, 63, 0
3, 421920, Note_on_c, 0, 59, 0
3, 421920, Note_on_c, 0, 27, 0
3, 421920, Note_on_c, 0, 39, 0
3, 421920, Note_on_c, 0, 55, 0
3, 421920, Note_on_c, 0, 64, 44
3, 421920, Note_on_c, 0, 61, 26
3, 421920, Note_on_c, 0, 55, 23
3, 421920, Note_on_c, 0, 39, 34
3, 422040, Note_on_c, 0, 61, 0
3, 422040, Note_on_c, 0, 58, 24
3, 422159, Note_on_c, 0, 58, 0
3, 422159, Note_on_c, 0, 59, 22
3, 422280, Note_on_c, 0, 59, 0
3, 422280, Note_on_c, 0, 64, 0
3, 422280, Note_on_c, 0, 61, 33
3, 422280, Note_on_c, 0, 58, 50
3, 422400, Note_on_c, 0, 61, 0
3, 422400, Note_on_c, 0, 64, 40
3, 422519, Note_on_c, 0, 64, 0
3, 422519, Note_on_c, 0, 61, 25
3, 422640, Note_on_c, 0, 61, 0
3, 422640, Note_on_c, 0, 58, 0
3, 422640, Note_on_c, 0, 59, 53
3, 422760, Note_on_c, 0, 63, 30
3, 422879, Note_on_c, 0, 63, 0
3, 422879, Note_on_c, 0, 59, 28
3, 423000, Note_on_c, 0, 59, 0
3, 423000, Note_on_c, 0, 59, 0
3, 423000, Note_on_c, 0, 61, 39
3, 423000, Note_on_c, 0, 58, 46
3, 423120, Note_on_c, 0, 61, 0
3, 423120, Note_on_c, 0, 64, 39
3, 423239, Note_on_c, 0, 64, 0
3, 423239, Note_on_c, 0, 61, 32
3, 423360, Note_on_c, 0, 61, 0
3, 423360, Note_on_c, 0, 58, 0
3, 423360, Note_on_c, 0, 55, 0
3, 423360, Note_on_c, 0, 63, 41
3, 423360, Note_on_c, 0, 56, 52
3, 423480, Note_on_c, 0, 63, 0
3, 423480, Note_on_c, 0, 59, 34
3, 423599, Note_on_c, 0, 59, 0
3, 423599, Note_on_c, 0, 63, 39
3, 423720, Note_on_c, 0, 63, 0
3, 423720, Note_on_c, 0, 56, 0
3, 423720, Note_on_c, 0, 64, 38
3, 423720, Note_on_c, 0, 55, 47
3, 423840, Note_on_c, 0, 64, 0
3, 423840, Note_on_c, 0, 61, 33
3, 423959, Note_on_c, 0, 61, 0
3, 423959, Note_on_c, 0, 64, 41
3, 424080, Note_on_c, 0, 64, 0
3, 424080, Note_on_c, 0, 58, 33
3, 424080, Note_on_c, 0, 52, 44
3, 424200, Note_on_c, 0, 58, 0
3, 424200, Note_on_c, 0, 61, 39
3, 424319, Note_on_c, 0, 61, 0
3, 424319, Note_on_c, 0, 58, 34
3, 424440, Note_on_c, 0, 58, 0
3, 424440, Note_on_c, 0, 52, 0
3, 424440, Note_on_c, 0, 63, 46
3, 424440, Note_on_c, 0, 51, 45
3, 424679, Note_on_c, 0, 63, 0
3, 424679, Note_on_c, 0, 63, 33
3, 424800, Note_on_c, 0, 63, 0
3, 424800, Note_on_c, 0, 51, 0
3, 424800, Note_on_c, 0, 55, 0
3, 424800, Note_on_c, 0, 39, 0
3, 424800, Note_on_c, 0, 54, 33
3, 424800, Note_on_c, 0, 62, 33
3, 424800, Note_on_c, 0, 38, 24
3, 424800, Note_on_c, 0, 50, 24
3, 425160, Note_on_c, 0, 50, 0
3, 425160, Note_on_c, 0, 54, 0
3, 425160, Note_on_c, 0, 62, 0
3, 425160, Note_on_c, 0, 38, 0
3, 425160, Note_on_c, 0, 50, 32
3, 425160, Note_on_c, 0, 54, 32
3, 425160, Note_on_c, 0, 60, 32
3, 425160, Note_on_c, 0, 62, 32
3, 425160, Note_on_c, 0, 48, 25
3, 425339, Note_on_c, 0, 48, 0
3, 425339, Note_on_c, 0, 60, 0
3, 425339, Note_on_c, 0, 50, 0
3, 425339, Note_on_c, 0, 54, 0
3, 425339, Note_on_c, 0, 62, 0
3, 425520, Note_on_c, 0, 50, 36
3, 425520, Note_on_c, 0, 55, 36
3, 425520, Note_on_c, 0, 58, 36
3, 425520, Note_on_c, 0, 62, 36
3, 425520, Note_on_c, 0, 46, 23
3, 425699, Note_on_c, 0, 46, 0
3, 425699, Note_on_c, 0, 58, 0
3, 425699, Note_on_c, 0, 50, 0
3, 425699, Note_on_c, 0, 55, 0
3, 425699, Note_on_c, 0, 62, 0
3, 425880, Note_on_c, 0, 50, 31
3, 425880, Note_on_c, 0, 57, 31
3, 425880, Note_on_c, 0, 60, 31
3, 425880, Note_on_c, 0, 62, 31
3, 425880, Note_on_c, 0, 45, 26
3, 426059, Note_on_c, 0, 45, 0
3, 426059, Note_on_c, 0, 60, 0
3, 426059, Note_on_c, 0, 50, 0
3, 426059, Note_on_c, 0, 57, 0
3, 426059, Note_on_c, 0, 62, 0
3, 426240, Note_on_c, 0, 50, 35
3, 426240, Note_on_c, 0, 55, 35
3, 426240, Note_on_c, 0, 58, 35
3, 426240, Note_on_c, 0, 62, 35
3, 426240, Note_on_c, 0, 43, 23
3, 426419, Note_on_c, 0, 43, 0
3, 426419, Note_on_c, 0, 58, 0
3, 426419, Note_on_c, 0, 50, 0
3, 426419, Note_on_c, 0, 55, 0
3, 426419, Note_on_c, 0, 62, 0
3, 426600, Note_on_c, 0, 50, 38
3, 426600, Note_on_c, 0, 53, 38
3, 426600, Note_on_c, 0, 57, 38
3, 426600, Note_on_c, 0, 62, 38
3, 426600, Note_on_c, 0, 41, 23
3, 426779, Note_on_c, 0, 41, 0
3, 426779, Note_on_c, 0, 57, 0
3, 426779, Note_on_c, 0, 50, 0
3, 426779, Note_on_c, 0, 53, 0
3, 426779, Note_on_c, 0, 62, 0
3, 426960, Note_on_c, 0, 50, 35
3, 426960, Note_on_c, 0, 55, 35
3, 426960, Note_on_c, 0, 62, 35
3, 426960, Note_on_c, 0, 39, 32
3, 426960, Note_on_c, 0, 51, 32
3, 427139, Note_on_c, 0, 51, 0
3, 427139, Note_on_c, 0, 62, 0
3, 427139, Note_on_c, 0, 50, 0
3, 427139, Note_on_c, 0, 55, 0
3, 427139, Note_on_c, 0, 39, 0
3, 427320, Note_on_c, 0, 54, 36
3, 427320, Note_on_c, 0, 62, 36
3, 427320, Note_on_c, 0, 38, 25
3, 427320, Note_on_c, 0, 50, 25
3, 427499, Note_on_c, 0, 50, 0
3, 427499, Note_on_c, 0, 54, 0
3, 427499, Note_on_c, 0, 62, 0
3, 427499, Note_on_c, 0, 38, 0
3, 427680, Note_on_c, 0, 53, 30
3, 427680, Note_on_c, 0, 37, 27
3, 427680, Note_on_c, 0, 49, 27
3, 427859, Note_on_c, 0, 49, 0
3, 427859, Note_on_c, 0, 37, 0
3, 427859, Note_on_c, 0, 53, 0
3, 428040, Note_on_c, 0, 49, 49
3, 428040, Note_on_c, 0, 53, 49
3, 428040, Note_on_c, 0, 59, 49
3, 428040, Note_on_c, 0, 61, 49
3, 428040, Note_on_c, 0, 47, 21
3, 428219, Note_on_c, 0, 47, 0
3, 428219, Note_on_c, 0, 59, 0
3, 428219, Note_on_c, 0, 49, 0
3, 428219, Note_on_c, 0, 53, 0
3, 428219, Note_on_c, 0, 61, 0
3, 428400, Note_on_c, 0, 49, 39
3, 428400, Note_on_c, 0, 54, 39
3, 428400, Note_on_c, 0, 57, 39
3, 428400, Note_on_c, 0, 61, 39
3, 428400, Note_on_c, 0, 45, 30
3, 428579, Note_on_c, 0, 45, 0
3, 428579, Note_on_c, 0, 57, 0
3, 428579, Note_on_c, 0, 49, 0
3, 428579, Note_on_c, 0, 54, 0
3, 428579, Note_on_c, 0, 61, 0
3, 428760, Note_on_c, 0, 49, 37
3, 428760, Note_on_c, 0, 56, 37
3, 428760, Note_on_c, 0, 59, 37
3, 428760, Note_on_c, 0, 61, 37
3, 428760, Note_on_c, 0, 44, 22
3, 428939, Note_on_c, 0, 44, 0
3, 428939, Note_on_c, 0, 59, 0
3, 428939, Note_on_c, 0, 49, 0
3, 428939, Note_on_c, 0, 56, 0
3, 428939, Note_on_c, 0, 61, 0
3, 429120, Note_on_c, 0, 49, 36
3, 429120, Note_on_c, 0, 54, 36
3, 429120, Note_on_c, 0, 57, 36
3, 429120, Note_on_c, 0, 61, 36
3, 429120, Note_on_c, 0, 42, 25
3, 429299, Note_on_c, 0, 42, 0
3, 429299, Note_on_c, 0, 57, 0
3, 429299, Note_on_c, 0, 49, 0
3, 429299, Note_on_c, 0, 54, 0
3, 429299, Note_on_c, 0, 61, 0
3, 429480, Note_on_c, 0, 49, 38
3, 429480, Note_on_c, 0, 52, 38
3, 429480, Note_on_c, 0, 56, 38
3, 429480, Note_on_c, 0, 61, 38
3, 429480, Note_on_c, 0, 40, 24
3, 429659, Note_on_c, 0, 40, 0
3, 429659, Note_on_c, 0, 56, 0
3, 429659, Note_on_c, 0, 49, 0
3, 429659, Note_on_c, 0, 52, 0
3, 429659, Note_on_c, 0, 61, 0
3, 429840, Note_on_c, 0, 49, 37
3, 429840, Note_on_c, 0, 54, 37
3, 429840, Note_on_c, 0, 61, 37
3, 429840, Note_on_c, 0, 38, 30
3, 429840, Note_on_c, 0, 50, 30
3, 430019, Note_on_c, 0, 50, 0
3, 430019, Note_on_c, 0, 61, 0
3, 430019, Note_on_c, 0, 49, 0
3, 430019, Note_on_c, 0, 54, 0
3, 430019, Note_on_c, 0, 38, 0
3, 430200, Note_on_c, 0, 53, 38
3, 430200, Note_on_c, 0, 61, 38
3, 430200, Note_on_c, 0, 37, 25
3, 430200, Note_on_c, 0, 49, 25
3, 430379, Note_on_c, 0, 49, 0
3, 430379, Note_on_c, 0, 53, 0
3, 430379, Note_on_c, 0, 61, 0
3, 430379, Note_on_c, 0, 37, 0
3, 430560, Note_on_c, 0, 52, 31
3, 430560, Note_on_c, 0, 36, 24
3, 430560, Note_on_c, 0, 48, 24
3, 430739, Note_on_c, 0, 48, 0
3, 430739, Note_on_c, 0, 36, 0
3, 430739, Note_on_c, 0, 52, 0
3, 430920, Note_on_c, 0, 48, 44
3, 430920, Note_on_c, 0, 52, 44
3, 430920, Note_on_c, 0, 58, 44
3, 430920, Note_on_c, 0, 60, 44
3, 430920, Note_on_c, 0, 46, 20
3, 431099, Note_on_c, 0, 46, 0
3, 431099, Note_on_c, 0, 58, 0
3, 431099, Note_on_c, 0, 48, 0
3, 431099, Note_on_c, 0, 52, 0
3, 431099, Note_on_c, 0, 60, 0
3, 431280, Note_on_c, 0, 48, 37
3, 431280, Note_on_c, 0, 53, 37
3, 431280, Note_on_c, 0, 56, 37
3, 431280, Note_on_c, 0, 60, 37
3, 431280, Note_on_c, 0, 44, 24
3, 431459, Note_on_c, 0, 44, 0
3, 431459, Note_on_c, 0, 56, 0
3, 431459, Note_on_c, 0, 48, 0
3, 431459, Note_on_c, 0, 53, 0
3, 431459, Note_on_c, 0, 60, 0
3, 431640, Note_on_c, 0, 48, 32
3, 431640, Note_on_c, 0, 55, 32
3, 431640, Note_on_c, 0, 58, 32
3, 431640, Note_on_c, 0, 60, 32
3, 431640, Note_on_c, 0, 43, 20
3, 431819, Note_on_c, 0, 60, 0
3, 431819, Note_on_c, 0, 58, 0
3, 431819, Note_on_c, 0, 48, 0
3, 431819, Note_on_c, 0, 55, 0
3, 432000, Note_on_c, 0, 43, 0
3, 432000, Note_on_c, 0, 48, 35
3, 432000, Note_on_c, 0, 53, 35
3, 432000, Note_on_c, 0, 56, 35
3, 432000, Note_on_c, 0, 60, 35
3, 432000, Note_on_c, 0, 41, 24
3, 432179, Note_on_c, 0, 41, 0
3, 432179, Note_on_c, 0, 56, 0
3, 432179, Note_on_c, 0, 48, 0
3, 432179, Note_on_c, 0, 53, 0
3, 432179, Note_on_c, 0, 60, 0
3, 432360, Note_on_c, 0, 48, 37
3, 432360, Note_on_c, 0, 51, 37
3, 432360, Note_on_c, 0, 55, 37
3, 432360, Note_on_c, 0, 60, 37
3, 432360, Note_on_c, 0, 39, 25
3, 432539, Note_on_c, 0, 39, 0
3, 432539, Note_on_c, 0, 55, 0
3, 432539, Note_on_c, 0, 48, 0
3, 432539, Note_on_c, 0, 51, 0
3, 432539, Note_on_c, 0, 60, 0
3, 432720, Note_on_c, 0, 48, 36
3, 432720, Note_on_c, 0, 53, 36
3, 432720, Note_on_c, 0, 60, 36
3, 432720, Note_on_c, 0, 37, 30
3, 432720, Note_on_c, 0, 49, 30
3, 432899, Note_on_c, 0, 49, 0
3, 432899, Note_on_c, 0, 60, 0
3, 432899, Note_on_c, 0, 48, 0
3, 432899, Note_on_c, 0, 53, 0
3, 432899, Note_on_c, 0, 37, 0
3, 433080, Note_on_c, 0, 51, 35
3, 433080, Note_on_c, 0, 60, 35
3, 433080, Note_on_c, 0, 36, 25
3, 433080, Note_on_c, 0, 48, 25
3, 433259, Note_on_c, 0, 48, 0
3, 433259, Note_on_c, 0, 51, 0
3, 433259, Note_on_c, 0, 60, 0
3, 433259, Note_on_c, 0, 36, 0
3, 433440, Note_on_c, 0, 34, 26
3, 433440, Note_on_c, 0, 46, 26
3, 433619, Note_on_c, 0, 46, 0
3, 433619, Note_on_c, 0, 34, 0
3, 433800, Note_on_c, 0, 48, 29
3, 433800, Note_on_c, 0, 60, 29
3, 433800, Note_on_c, 0, 33, 26
3, 433800, Note_on_c, 0, 45, 26
3, 433979, Note_on_c, 0, 45, 0
3, 433979, Note_on_c, 0, 48, 0
3, 433979, Note_on_c, 0, 60, 0
3, 433979, Note_on_c, 0, 33, 0
3, 434520, Note_on_c, 0, 32, 16
3, 434520, Note_on_c, 0, 44, 16
3, 434699, Note_on_c, 0, 44, 0
3, 434699, Note_on_c, 0, 32, 0
3, 435240, Note_on_c, 0, 48, 34
3, 435240, Note_on_c, 0, 31, 17
3, 435240, Note_on_c, 0, 43, 17
3, 435419, Note_on_c, 0, 43, 0
3, 435419, Note_on_c, 0, 31, 0
3, 435419, Note_on_c, 0, 48, 0
3, 435960, Note_on_c, 0, 30, 17
3, 435960, Note_on_c, 0, 42, 17
3, 436139, Note_on_c, 0, 42, 0
3, 436139, Note_on_c, 0, 30, 0
3, 436320, Note_on_c, 0, 41, 31
3, 436320, Note_on_c, 0, 29, 28
3, 436499, Note_on_c, 0, 41, 0
3, 436680, Note_on_c, 0, 41, 36
3, 436739, Note_on_c, 0, 41, 0
3, 436800, Note_on_c, 0, 41, 34
3, 436859, Note_on_c, 0, 41, 0
3, 436919, Note_on_c, 0, 41, 39
3, 436978, Note_on_c, 0, 41, 0
3, 437040, Note_on_c, 0, 41, 36
3, 438120, Note_on_c, 0, 41, 0
3, 438120, Note_on_c, 0, 41, 34
3, 438179, Note_on_c, 0, 41, 0
3, 438240, Note_on_c, 0, 41, 34
3, 438299, Note_on_c, 0, 41, 0
3, 438359, Note_on_c, 0, 41, 37
3, 438418, Note_on_c, 0, 41, 0
3, 438480, Note_on_c, 0, 41, 36
3, 438840, Note_on_c, 0, 41, 0
3, 438840, Note_on_c, 0, 41, 34
3, 438899, Note_on_c, 0, 41, 0
3, 438960, Note_on_c, 0, 41, 35
3, 439019, Note_on_c, 0, 41, 0
3, 439079, Note_on_c, 0, 41, 37
3, 439138, Note_on_c, 0, 41, 0
3, 439200, Note_on_c, 0, 41, 34
3, 439560, Note_on_c, 0, 53, 28
3, 439739, Note_on_c, 0, 53, 0
3, 439920, Note_on_c, 0, 51, 33
3, 440099, Note_on_c, 0, 51, 0
3, 440280, Note_on_c, 0, 49, 30
3, 440459, Note_on_c, 0, 49, 0
3, 440640, Note_on_c, 0, 48, 32
3, 440819, Note_on_c, 0, 48, 0
3, 441000, Note_on_c, 0, 46, 35
3, 441179, Note_on_c, 0, 46, 0
3, 441360, Note_on_c, 0, 44, 36
3, 441539, Note_on_c, 0, 44, 0
3, 441720, Note_on_c, 0, 43, 38
3, 441899, Note_on_c, 0, 43, 0
3, 442080, Note_on_c, 0, 41, 0
3, 442080, Note_on_c, 0, 41, 22
3, 442440, Note_on_c, 0, 65, 26
3, 442619, Note_on_c, 0, 65, 0
3, 442800, Note_on_c, 0, 63, 35
3, 442979, Note_on_c, 0, 63, 0
3, 443160, Note_on_c, 0, 61, 30
3, 443339, Note_on_c, 0, 61, 0
3, 443520, Note_on_c, 0, 60, 32
3, 443699, Note_on_c, 0, 60, 0
3, 443880, Note_on_c, 0, 58, 31
3, 444059, Note_on_c, 0, 58, 0
3, 444240, Note_on_c, 0, 56, 33
3, 444600, Note_on_c, 0, 55, 20
3, 444779, Note_on_c, 0, 55, 0
3, 444960, Note_on_c, 0, 53, 21
3, 445139, Note_on_c, 0, 53, 0
3, 446400, Note_on_c, 0, 56, 0
3, 446400, Note_on_c, 0, 55, 22
3, 446760, Note_on_c, 0, 58, 35
3, 446939, Note_on_c, 0, 58, 0
3, 447120, Note_on_c, 0, 56, 28
3, 447299, Note_on_c, 0, 56, 0
3, 447300, Note_on_c, 0, 55, 0
3, 447480, Note_on_c, 0, 55, 33
3, 447659, Note_on_c, 0, 55, 0
3, 447840, Note_on_c, 0, 53, 37
3, 448200, Note_on_c, 0, 41, 0
3, 448200, Note_on_c, 0, 29, 0
3, 448200, Note_on_c, 0, 41, 26
3, 448320, Note_on_c, 0, 41, 0
3, 448320, Note_on_c, 0, 29, 20
3, 448439, Note_on_c, 0, 29, 0
3, 448439, Note_on_c, 0, 41, 28
3, 448560, Note_on_c, 0, 29, 20
3, 449280, Note_on_c, 0, 53, 0
3, 449280, Note_on_c, 0, 51, 18
3, 449640, Note_on_c, 0, 29, 0
3, 449640, Note_on_c, 0, 41, 0
3, 449640, Note_on_c, 0, 41, 25
3, 449760, Note_on_c, 0, 41, 0
3, 449760, Note_on_c, 0, 29, 14
3, 449879, Note_on_c, 0, 29, 0
3, 449879, Note_on_c, 0, 41, 33
3, 450000, Note_on_c, 0, 29, 25
3, 450360, Note_on_c, 0, 29, 0
3, 450360, Note_on_c, 0, 41, 0
3, 450360, Note_on_c, 0, 58, 28
3, 450360, Note_on_c, 0, 41, 21
3, 450480, Note_on_c, 0, 41, 0
3, 450480, Note_on_c, 0, 29, 17
3, 450539, Note_on_c, 0, 58, 0
3, 450599, Note_on_c, 0, 29, 0
3, 450599, Note_on_c, 0, 41, 34
3, 450720, Note_on_c, 0, 51, 0
3, 450720, Note_on_c, 0, 56, 33
3, 450720, Note_on_c, 0, 49, 22
3, 450720, Note_on_c, 0, 29, 26
3, 450899, Note_on_c, 0, 56, 0
3, 451080, Note_on_c, 0, 53, 44
3, 451080, Note_on_c, 0, 61, 44
3, 451259, Note_on_c, 0, 61, 0
3, 451259, Note_on_c, 0, 53, 0
3, 451440, Note_on_c, 0, 51, 33
3, 451440, Note_on_c, 0, 60, 33
3, 451619, Note_on_c, 0, 60, 0
3, 451619, Note_on_c, 0, 51, 0
3, 451800, Note_on_c, 0, 49, 0
3, 451800, Note_on_c, 0, 49, 32
3, 451800, Note_on_c, 0, 58, 32
3, 451979, Note_on_c, 0, 58, 0
3, 451979, Note_on_c, 0, 49, 0
3, 452160, Note_on_c, 0, 56, 33
3, 452160, Note_on_c, 0, 48, 22
3, 452339, Note_on_c, 0, 56, 0
3, 452520, Note_on_c, 0, 56, 33
3, 452699, Note_on_c, 0, 56, 0
3, 452880, Note_on_c, 0, 48, 0
3, 452880, Note_on_c, 0, 55, 36
3, 452880, Note_on_c, 0, 46, 22
3, 453059, Note_on_c, 0, 55, 0
3, 453240, Note_on_c, 0, 54, 33
3, 453419, Note_on_c, 0, 54, 0
3, 453600, Note_on_c, 0, 46, 0
3, 453600, Note_on_c, 0, 53, 38
3, 453600, Note_on_c, 0, 44, 28
3, 453779, Note_on_c, 0, 53, 0
3, 453960, Note_on_c, 0, 51, 38
3, 454139, Note_on_c, 0, 51, 0
3, 454320, Note_on_c, 0, 49, 31
3, 454499, Note_on_c, 0, 49, 0
3, 454680, Note_on_c, 0, 44, 0
3, 454680, Note_on_c, 0, 48, 32
3, 454680, Note_on_c, 0, 42, 24
3, 454859, Note_on_c, 0, 48, 0
3, 455040, Note_on_c, 0, 42, 0
3, 455040, Note_on_c, 0, 41, 0
3, 455040, Note_on_c, 0, 46, 33
3, 455040, Note_on_c, 0, 41, 39
3, 455219, Note_on_c, 0, 46, 0
3, 455760, Note_on_c, 0, 61, 29
3, 456840, Note_on_c, 0, 61, 0
3, 456840, Note_on_c, 0, 41, 0
3, 456840, Note_on_c, 0, 29, 0
3, 456840, Note_on_c, 0, 60, 32
3, 456840, Note_on_c, 0, 41, 25
3, 456960, Note_on_c, 0, 41, 0
3, 456960, Note_on_c, 0, 29, 19
3, 457079, Note_on_c, 0, 29, 0
3, 457079, Note_on_c, 0, 41, 24
3, 457200, Note_on_c, 0, 29, 27
3, 457920, Note_on_c, 0, 60, 0
3, 457920, Note_on_c, 0, 61, 39
3, 457920, Note_on_c, 0, 58, 33
3, 458280, Note_on_c, 0, 29, 0
3, 458280, Note_on_c, 0, 41, 0
3, 458280, Note_on_c, 0, 41, 26
3, 458400, Note_on_c, 0, 41, 0
3, 458400, Note_on_c, 0, 29, 19
3, 458519, Note_on_c, 0, 29, 0
3, 458519, Note_on_c, 0, 41, 33
3, 458640, Note_on_c, 0, 29, 23
3, 459000, Note_on_c, 0, 29, 0
3, 459000, Note_on_c, 0, 41, 0
3, 459000, Note_on_c, 0, 58, 0
3, 459000, Note_on_c, 0, 56, 24
3, 459000, Note_on_c, 0, 41, 28
3, 459120, Note_on_c, 0, 41, 0
3, 459120, Note_on_c, 0, 29, 15
3, 459239, Note_on_c, 0, 29, 0
3, 459239, Note_on_c, 0, 41, 24
3, 459360, Note_on_c, 0, 61, 0
3, 459360, Note_on_c, 0, 61, 37
3, 459360, Note_on_c, 0, 29, 25
3, 461160, Note_on_c, 0, 61, 0
3, 461160, Note_on_c, 0, 56, 0
3, 461160, Note_on_c, 0, 60, 36
3, 461160, Note_on_c, 0, 54, 28
3, 461520, Note_on_c, 0, 60, 0
3, 461520, Note_on_c, 0, 60, 35
3, 461699, Note_on_c, 0, 60, 0
3, 461880, Note_on_c, 0, 54, 0
3, 461880, Note_on_c, 0, 58, 37
3, 461880, Note_on_c, 0, 61, 37
3, 461880, Note_on_c, 0, 53, 20
3, 462059, Note_on_c, 0, 61, 0
3, 462059, Note_on_c, 0, 58, 0
3, 462240, Note_on_c, 0, 60, 30
3, 462240, Note_on_c, 0, 56, 22
3, 462419, Note_on_c, 0, 60, 0
3, 462600, Note_on_c, 0, 53, 0
3, 462600, Note_on_c, 0, 51, 43
3, 462600, Note_on_c, 0, 59, 43
3, 464400, Note_on_c, 0, 59, 0
3, 464400, Note_on_c, 0, 56, 0
3, 464400, Note_on_c, 0, 51, 0
3, 464400, Note_on_c, 0, 50, 44
3, 464400, Note_on_c, 0, 53, 44
3, 464400, Note_on_c, 0, 56, 44
3, 464400, Note_on_c, 0, 58, 44
3, 466200, Note_on_c, 0, 58, 0
3, 466200, Note_on_c, 0, 53, 0
3, 466200, Note_on_c, 0, 50, 0
3, 466200, Note_on_c, 0, 56, 0
3, 466200, Note_on_c, 0, 48, 40
3, 466200, Note_on_c, 0, 56, 40
3, 466200, Note_on_c, 0, 60, 40
3, 466560, Note_on_c, 0, 60, 0
3, 466560, Note_on_c, 0, 48, 0
3, 466560, Note_on_c, 0, 41, 0
3, 466560, Note_on_c, 0, 29, 0
3, 466560, Note_on_c, 0, 56, 0
3, 466560, Note_on_c, 0, 59, 38
3, 466560, Note_on_c, 0, 62, 38
3, 466560, Note_on_c, 0, 50, 26
3, 466560, Note_on_c, 0, 55, 26
3, 466560, Note_on_c, 0, 29, 22
3, 466560, Note_on_c, 0, 41, 22
3, 466920, Note_on_c, 0, 41, 0
3, 466920, Note_on_c, 0, 62, 0
3, 466920, Note_on_c, 0, 59, 0
3, 466920, Note_on_c, 0, 29, 0
3, 466920, Note_on_c, 0, 41, 24
3, 467040, Note_on_c, 0, 41, 0
3, 467040, Note_on_c, 0, 29, 21
3, 467159, Note_on_c, 0, 29, 0
3, 467159, Note_on_c, 0, 41, 33
3, 467280, Note_on_c, 0, 55, 0
3, 467280, Note_on_c, 0, 50, 0
3, 467280, Note_on_c, 0, 59, 42
3, 467280, Note_on_c, 0, 62, 42
3, 467280, Note_on_c, 0, 67, 42
3, 467280, Note_on_c, 0, 29, 29
3, 467640, Note_on_c, 0, 29, 0
3, 467640, Note_on_c, 0, 41, 0
3, 467640, Note_on_c, 0, 55, 27
3, 467640, Note_on_c, 0, 41, 30
3, 467640, Note_on_c, 0, 47, 30
3, 467640, Note_on_c, 0, 50, 30
3, 467820, Note_on_c, 0, 50, 0
3, 467820, Note_on_c, 0, 41, 0
3, 467820, Note_on_c, 0, 55, 0
3, 467820, Note_on_c, 0, 47, 0
3, 467820, Note_on_c, 0, 55, 31
3, 467820, Note_on_c, 0, 41, 24
3, 467820, Note_on_c, 0, 47, 24
3, 467820, Note_on_c, 0, 50, 24
3, 468000, Note_on_c, 0, 50, 0
3, 468000, Note_on_c, 0, 41, 0
3, 468000, Note_on_c, 0, 55, 0
3, 468000, Note_on_c, 0, 47, 0
3, 468000, Note_on_c, 0, 55, 37
3, 468000, Note_on_c, 0, 41, 25
3, 468000, Note_on_c, 0, 47, 25
3, 468000, Note_on_c, 0, 50, 25
3, 468360, Note_on_c, 0, 50, 0
3, 468360, Note_on_c, 0, 41, 0
3, 468360, Note_on_c, 0, 47, 0
3, 468360, Note_on_c, 0, 41, 18
3, 468480, Note_on_c, 0, 41, 0
3, 468480, Note_on_c, 0, 29, 21
3, 468599, Note_on_c, 0, 29, 0
3, 468599, Note_on_c, 0, 41, 34
3, 468720, Note_on_c, 0, 62, 0
3, 468720, Note_on_c, 0, 55, 0
3, 468720, Note_on_c, 0, 59, 0
3, 468720, Note_on_c, 0, 67, 0
3, 468720, Note_on_c, 0, 59, 45
3, 468720, Note_on_c, 0, 65, 45
3, 468720, Note_on_c, 0, 56, 21
3, 468720, Note_on_c, 0, 29, 27
3, 469080, Note_on_c, 0, 29, 0
3, 469080, Note_on_c, 0, 41, 0
3, 469080, Note_on_c, 0, 56, 0
3, 469080, Note_on_c, 0, 56, 26
3, 469080, Note_on_c, 0, 41, 32
3, 469080, Note_on_c, 0, 47, 32
3, 469080, Note_on_c, 0, 50, 32
3, 469260, Note_on_c, 0, 50, 0
3, 469260, Note_on_c, 0, 41, 0
3, 469260, Note_on_c, 0, 56, 0
3, 469260, Note_on_c, 0, 47, 0
3, 469260, Note_on_c, 0, 56, 27
3, 469260, Note_on_c, 0, 41, 25
3, 469260, Note_on_c, 0, 47, 25
3, 469260, Note_on_c, 0, 50, 25
3, 469353, Note_on_c, 0, 59, 0
3, 469353, Note_on_c, 0, 65, 0
3, 469440, Note_on_c, 0, 47, 0
3, 469440, Note_on_c, 0, 41, 0
3, 469440, Note_on_c, 0, 50, 0
3, 469440, Note_on_c, 0, 56, 0
3, 469440, Note_on_c, 0, 55, 50
3, 469440, Note_on_c, 0, 59, 50
3, 469440, Note_on_c, 0, 63, 50
3, 469440, Note_on_c, 0, 41, 29
3, 469440, Note_on_c, 0, 47, 29
3, 469440, Note_on_c, 0, 50, 29
3, 469800, Note_on_c, 0, 50, 0
3, 469800, Note_on_c, 0, 41, 0
3, 469800, Note_on_c, 0, 47, 0
3, 469800, Note_on_c, 0, 41, 18
3, 469920, Note_on_c, 0, 41, 0
3, 469920, Note_on_c, 0, 29, 11
3, 470039, Note_on_c, 0, 29, 0
3, 470039, Note_on_c, 0, 41, 30
3, 470073, Note_on_c, 0, 55, 0
3, 470073, Note_on_c, 0, 59, 0
3, 470073, Note_on_c, 0, 63, 0
3, 470160, Note_on_c, 0, 53, 45
3, 470160, Note_on_c, 0, 56, 45
3, 470160, Note_on_c, 0, 62, 45
3, 470160, Note_on_c, 0, 29, 23
3, 470520, Note_on_c, 0, 29, 0
3, 470520, Note_on_c, 0, 41, 0
3, 470520, Note_on_c, 0, 56, 30
3, 470520, Note_on_c, 0, 41, 33
3, 470520, Note_on_c, 0, 47, 33
3, 470520, Note_on_c, 0, 50, 33
3, 470700, Note_on_c, 0, 50, 0
3, 470700, Note_on_c, 0, 41, 0
3, 470700, Note_on_c, 0, 56, 0
3, 470700, Note_on_c, 0, 47, 0
3, 470700, Note_on_c, 0, 56, 28
3, 470700, Note_on_c, 0, 41, 25
3, 470700, Note_on_c, 0, 47, 25
3, 470700, Note_on_c, 0, 50, 25
3, 470793, Note_on_c, 0, 56, 0
3, 470880, Note_on_c, 0, 47, 0
3, 470880, Note_on_c, 0, 41, 0
3, 470880, Note_on_c, 0, 56, 0
3, 470880, Note_on_c, 0, 50, 0
3, 470880, Note_on_c, 0, 55, 38
3, 470880, Note_on_c, 0, 41, 25
3, 470880, Note_on_c, 0, 47, 25
3, 470880, Note_on_c, 0, 50, 25
3, 471240, Note_on_c, 0, 50, 0
3, 471240, Note_on_c, 0, 41, 0
3, 471240, Note_on_c, 0, 62, 0
3, 471240, Note_on_c, 0, 53, 0
3, 471240, Note_on_c, 0, 47, 0
3, 471240, Note_on_c, 0, 50, 45
3, 471240, Note_on_c, 0, 53, 45
3, 471240, Note_on_c, 0, 60, 45
3, 471240, Note_on_c, 0, 41, 21
3, 471360, Note_on_c, 0, 41, 0
3, 471360, Note_on_c, 0, 29, 18
3, 471479, Note_on_c, 0, 29, 0
3, 471479, Note_on_c, 0, 41, 33
3, 471600, Note_on_c, 0, 29, 24
3, 471873, Note_on_c, 0, 60, 0
3, 471873, Note_on_c, 0, 53, 0
3, 471873, Note_on_c, 0, 55, 0
3, 471873, Note_on_c, 0, 50, 0
3, 471960, Note_on_c, 0, 29, 0
3, 471960, Note_on_c, 0, 41, 0
3, 471960, Note_on_c, 0, 56, 33
3, 471960, Note_on_c, 0, 41, 28
3, 471960, Note_on_c, 0, 47, 28
3, 471960, Note_on_c, 0, 50, 28
3, 472140, Note_on_c, 0, 50, 0
3, 472140, Note_on_c, 0, 56, 0
3, 472140, Note_on_c, 0, 41, 0
3, 472140, Note_on_c, 0, 47, 0
3, 472140, Note_on_c, 0, 56, 40
3, 472140, Note_on_c, 0, 41, 31
3, 472140, Note_on_c, 0, 47, 31
3, 472140, Note_on_c, 0, 50, 31
3, 472320, Note_on_c, 0, 50, 0
3, 472320, Note_on_c, 0, 56, 0
3, 472320, Note_on_c, 0, 41, 0
3, 472320, Note_on_c, 0, 47, 0
3, 472320, Note_on_c, 0, 50, 26
3, 472320, Note_on_c, 0, 55, 26
3, 472320, Note_on_c, 0, 59, 26
3, 472320, Note_on_c, 0, 29, 22
3, 472320, Note_on_c, 0, 41, 22
3, 472680, Note_on_c, 0, 41, 0
3, 472680, Note_on_c, 0, 59, 0
3, 472680, Note_on_c, 0, 50, 0
3, 472680, Note_on_c, 0, 55, 0
3, 472680, Note_on_c, 0, 29, 0
3, 472680, Note_on_c, 0, 59, 32
3, 472680, Note_on_c, 0, 62, 32
3, 472680, Note_on_c, 0, 67, 32
3, 472680, Note_on_c, 0, 41, 33
3, 472680, Note_on_c, 0, 47, 33
3, 473040, Note_on_c, 0, 67, 0
3, 473040, Note_on_c, 0, 59, 0
3, 473040, Note_on_c, 0, 62, 0
3, 473040, Note_on_c, 0, 67, 93
3, 473040, Note_on_c, 0, 56, 24
3, 473040, Note_on_c, 0, 60, 24
3, 473040, Note_on_c, 0, 65, 24
3, 473400, Note_on_c, 0, 65, 0
3, 473400, Note_on_c, 0, 56, 0
3, 473400, Note_on_c, 0, 41, 0
3, 473400, Note_on_c, 0, 47, 0
3, 473400, Note_on_c, 0, 60, 0
3, 473400, Note_on_c, 0, 55, 19
3, 473400, Note_on_c, 0, 59, 19
3, 473400, Note_on_c, 0, 63, 19
3, 473400, Note_on_c, 0, 41, 28
3, 473400, Note_on_c, 0, 47, 28
3, 473580, Note_on_c, 0, 47, 0
3, 473580, Note_on_c, 0, 41, 0
3, 473580, Note_on_c, 0, 41, 22
3, 473580, Note_on_c, 0, 47, 22
3, 473760, Note_on_c, 0, 47, 0
3, 473760, Note_on_c, 0, 55, 0
3, 473760, Note_on_c, 0, 63, 0
3, 473760, Note_on_c, 0, 59, 0
3, 473760, Note_on_c, 0, 41, 0
3, 473760, Note_on_c, 0, 59, 23
3, 473760, Note_on_c, 0, 62, 23
3, 473760, Note_on_c, 0, 53, 29
3, 473760, Note_on_c, 0, 41, 41
3, 473760, Note_on_c, 0, 47, 41
3, 474120, Note_on_c, 0, 53, 0
3, 474120, Note_on_c, 0, 62, 0
3, 474120, Note_on_c, 0, 59, 0
3, 474120, Note_on_c, 0, 56, 23
3, 474120, Note_on_c, 0, 60, 23
3, 474120, Note_on_c, 0, 51, 26
3, 474480, Note_on_c, 0, 51, 0
3, 474480, Note_on_c, 0, 41, 0
3, 474480, Note_on_c, 0, 67, 0
3, 474480, Note_on_c, 0, 47, 0
3, 474480, Note_on_c, 0, 60, 0
3, 474480, Note_on_c, 0, 56, 0
3, 474480, Note_on_c, 0, 65, 76
3, 474480, Note_on_c, 0, 52, 22
3, 474480, Note_on_c, 0, 59, 22
3, 474480, Note_on_c, 0, 50, 26
3, 474480, Note_on_c, 0, 41, 35
3, 474480, Note_on_c, 0, 47, 35
3, 474840, Note_on_c, 0, 50, 0
3, 474840, Note_on_c, 0, 59, 0
3, 474840, Note_on_c, 0, 52, 0
3, 474840, Note_on_c, 0, 56, 24
3, 474840, Note_on_c, 0, 48, 28
3, 474840, Note_on_c, 0, 51, 28
3, 475200, Note_on_c, 0, 51, 0
3, 475200, Note_on_c, 0, 41, 0
3, 475200, Note_on_c, 0, 47, 0
3, 475200, Note_on_c, 0, 56, 0
3, 475200, Note_on_c, 0, 48, 0
3, 475200, Note_on_c, 0, 55, 25
3, 475200, Note_on_c, 0, 50, 24
3, 475200, Note_on_c, 0, 41, 37
3, 475200, Note_on_c, 0, 47, 37
3, 475380, Note_on_c, 0, 47, 0
3, 475380, Note_on_c, 0, 41, 0
3, 475380, Note_on_c, 0, 41, 34
3, 475380, Note_on_c, 0, 47, 34
3, 475560, Note_on_c, 0, 47, 0
3, 475560, Note_on_c, 0, 65, 0
3, 475560, Note_on_c, 0, 50, 0
3, 475560, Note_on_c, 0, 55, 0
3, 475560, Note_on_c, 0, 41, 0
3, 475560, Note_on_c, 0, 63, 75
3, 475560, Note_on_c, 0, 59, 24
3, 475560, Note_on_c, 0, 41, 31
3, 475560, Note_on_c, 0, 47, 31
3, 475920, Note_on_c, 0, 59, 0
3, 475920, Note_on_c, 0, 56, 26
3, 475920, Note_on_c, 0, 59, 26
3, 476280, Note_on_c, 0, 59, 0
3, 476280, Note_on_c, 0, 47, 0
3, 476280, Note_on_c, 0, 56, 0
3, 476280, Note_on_c, 0, 41, 0
3, 476280, Note_on_c, 0, 55, 29
3, 476280, Note_on_c, 0, 59, 29
3, 476280, Note_on_c, 0, 41, 35
3, 476280, Note_on_c, 0, 47, 35
3, 476460, Note_on_c, 0, 47, 0
3, 476460, Note_on_c, 0, 41, 0
3, 476460, Note_on_c, 0, 41, 33
3, 476460, Note_on_c, 0, 47, 33
3, 476640, Note_on_c, 0, 47, 0
3, 476640, Note_on_c, 0, 63, 0
3, 476640, Note_on_c, 0, 59, 0
3, 476640, Note_on_c, 0, 55, 0
3, 476640, Note_on_c, 0, 41, 0
3, 476640, Note_on_c, 0, 62, 76
3, 476640, Note_on_c, 0, 53, 27
3, 476640, Note_on_c, 0, 59, 27
3, 476640, Note_on_c, 0, 47, 27
3, 476640, Note_on_c, 0, 41, 33
3, 477000, Note_on_c, 0, 59, 0
3, 477000, Note_on_c, 0, 53, 0
3, 477000, Note_on_c, 0, 51, 33
3, 477000, Note_on_c, 0, 56, 33
3, 477000, Note_on_c, 0, 60, 33
3, 477360, Note_on_c, 0, 60, 0
3, 477360, Note_on_c, 0, 47, 0
3, 477360, Note_on_c, 0, 41, 0
3, 477360, Note_on_c, 0, 51, 0
3, 477360, Note_on_c, 0, 56, 0
3, 477360, Note_on_c, 0, 50, 25
3, 477360, Note_on_c, 0, 53, 25
3, 477360, Note_on_c, 0, 59, 25
3, 477360, Note_on_c, 0, 47, 23
3, 477360, Note_on_c, 0, 41, 36
3, 477720, Note_on_c, 0, 59, 0
3, 477720, Note_on_c, 0, 53, 0
3, 477720, Note_on_c, 0, 62, 0
3, 477720, Note_on_c, 0, 50, 0
3, 477720, Note_on_c, 0, 56, 55
3, 477720, Note_on_c, 0, 60, 55
3, 477720, Note_on_c, 0, 48, 22
3, 477720, Note_on_c, 0, 51, 22
3, 478080, Note_on_c, 0, 51, 0
3, 478080, Note_on_c, 0, 47, 0
3, 478080, Note_on_c, 0, 56, 0
3, 478080, Note_on_c, 0, 60, 0
3, 478080, Note_on_c, 0, 48, 0
3, 478080, Note_on_c, 0, 59, 58
3, 478080, Note_on_c, 0, 50, 28
3, 478080, Note_on_c, 0, 55, 28
3, 478080, Note_on_c, 0, 47, 28
3, 478440, Note_on_c, 0, 47, 0
3, 478440, Note_on_c, 0, 50, 0
3, 478440, Note_on_c, 0, 41, 0
3, 478440, Note_on_c, 0, 59, 0
3, 478440, Note_on_c, 0, 55, 0
3, 478440, Note_on_c, 0, 68, 63
3, 478440, Note_on_c, 0, 71, 63
3, 478440, Note_on_c, 0, 59, 28
3, 478440, Note_on_c, 0, 49, 27
3, 478440, Note_on_c, 0, 41, 36
3, 478620, Note_on_c, 0, 41, 0
3, 478620, Note_on_c, 0, 41, 35
3, 478800, Note_on_c, 0, 41, 0
3, 478800, Note_on_c, 0, 41, 31
3, 479073, Note_on_c, 0, 71, 0
3, 479073, Note_on_c, 0, 68, 0
3, 479160, Note_on_c, 0, 49, 0
3, 479160, Note_on_c, 0, 41, 0
3, 479160, Note_on_c, 0, 66, 45
3, 479160, Note_on_c, 0, 70, 45
3, 479160, Note_on_c, 0, 49, 24
3, 479160, Note_on_c, 0, 41, 37
3, 479340, Note_on_c, 0, 41, 0
3, 479340, Note_on_c, 0, 41, 35
3, 479520, Note_on_c, 0, 41, 0
3, 479520, Note_on_c, 0, 41, 39
3, 479880, Note_on_c, 0, 41, 0
3, 479880, Note_on_c, 0, 70, 0
3, 479880, Note_on_c, 0, 59, 0
3, 479880, Note_on_c, 0, 66, 0
3, 479880, Note_on_c, 0, 49, 0
3, 479880, Note_on_c, 0, 59, 45
3, 479880, Note_on_c, 0, 65, 45
3, 479880, Note_on_c, 0, 68, 45
3, 479880, Note_on_c, 0, 49, 25
3, 479880, Note_on_c, 0, 41, 35
3, 480060, Note_on_c, 0, 41, 0
3, 480060, Note_on_c, 0, 41, 34
3, 480240, Note_on_c, 0, 41, 0
3, 480240, Note_on_c, 0, 41, 40
3, 480513, Note_on_c, 0, 68, 0
3, 480513, Note_on_c, 0, 59, 0
3, 480513, Note_on_c, 0, 65, 0
3, 480600, Note_on_c, 0, 49, 0
3, 480600, Note_on_c, 0, 41, 0
3, 480600, Note_on_c, 0, 58, 41
3, 480600, Note_on_c, 0, 63, 41
3, 480600, Note_on_c, 0, 66, 41
3, 480600, Note_on_c, 0, 49, 27
3, 480600, Note_on_c, 0, 41, 34
3, 480780, Note_on_c, 0, 41, 0
3, 480780, Note_on_c, 0, 41, 40
3, 480960, Note_on_c, 0, 41, 0
3, 480960, Note_on_c, 0, 41, 37
3, 481320, Note_on_c, 0, 41, 0
3, 481320, Note_on_c, 0, 66, 0
3, 481320, Note_on_c, 0, 58, 0
3, 481320, Note_on_c, 0, 63, 0
3, 481320, Note_on_c, 0, 49, 0
3, 481320, Note_on_c, 0, 56, 50
3, 481320, Note_on_c, 0, 61, 50
3, 481320, Note_on_c, 0, 65, 50
3, 481320, Note_on_c, 0, 49, 26
3, 481320, Note_on_c, 0, 41, 34
3, 481500, Note_on_c, 0, 41, 0
3, 481500, Note_on_c, 0, 41, 34
3, 481680, Note_on_c, 0, 41, 0
3, 481680, Note_on_c, 0, 41, 38
3, 481953, Note_on_c, 0, 65, 0
3, 481953, Note_on_c, 0, 56, 0
3, 481953, Note_on_c, 0, 61, 0
3, 482040, Note_on_c, 0, 49, 0
3, 482040, Note_on_c, 0, 41, 0
3, 482040, Note_on_c, 0, 54, 44
3, 482040, Note_on_c, 0, 59, 44
3, 482040, Note_on_c, 0, 63, 44
3, 482040, Note_on_c, 0, 49, 28
3, 482040, Note_on_c, 0, 41, 36
3, 482220, Note_on_c, 0, 41, 0
3, 482220, Note_on_c, 0, 41, 35
3, 482400, Note_on_c, 0, 41, 0
3, 482400, Note_on_c, 0, 41, 35
3, 482760, Note_on_c, 0, 41, 0
3, 482760, Note_on_c, 0, 63, 0
3, 482760, Note_on_c, 0, 54, 0
3, 482760, Note_on_c, 0, 59, 0
3, 482760, Note_on_c, 0, 49, 0
3, 482760, Note_on_c, 0, 53, 46
3, 482760, Note_on_c, 0, 58, 46
3, 482760, Note_on_c, 0, 61, 46
3, 482760, Note_on_c, 0, 49, 27
3, 482760, Note_on_c, 0, 41, 35
3, 482940, Note_on_c, 0, 41, 0
3, 482940, Note_on_c, 0, 41, 42
3, 483120, Note_on_c, 0, 41, 0
3, 483120, Note_on_c, 0, 41, 34
3, 483393, Note_on_c, 0, 61, 0
3, 483393, Note_on_c, 0, 53, 0
3, 483393, Note_on_c, 0, 58, 0
3, 483480, Note_on_c, 0, 49, 0
3, 483480, Note_on_c, 0, 41, 0
3, 483480, Note_on_c, 0, 51, 48
3, 483480, Note_on_c, 0, 56, 48
3, 483480, Note_on_c, 0, 59, 48
3, 483480, Note_on_c, 0, 49, 26
3, 483480, Note_on_c, 0, 41, 33
3, 483660, Note_on_c, 0, 41, 0
3, 483660, Note_on_c, 0, 41, 36
3, 483797, Note_on_c, 0, 51, 0
3, 483797, Note_on_c, 0, 59, 0
3, 483797, Note_on_c, 0, 56, 0
3, 483840, Note_on_c, 0, 49, 0
3, 483840, Note_on_c, 0, 41, 0
3, 483840, Note_on_c, 0, 56, 35
3, 483840, Note_on_c, 0, 59, 35
3, 483840, Note_on_c, 0, 49, 25
3, 483840, Note_on_c, 0, 41, 35
3, 484020, Note_on_c, 0, 41, 0
3, 484020, Note_on_c, 0, 41, 36
3, 484200, Note_on_c, 0, 41, 0
3, 484200, Note_on_c, 0, 59, 0
3, 484200, Note_on_c, 0, 56, 0
3, 484200, Note_on_c, 0, 56, 37
3, 484200, Note_on_c, 0, 59, 37
3, 484200, Note_on_c, 0, 41, 37
3, 484380, Note_on_c, 0, 41, 0
3, 484380, Note_on_c, 0, 41, 38
3, 484560, Note_on_c, 0, 41, 0
3, 484560, Note_on_c, 0, 59, 0
3, 484560, Note_on_c, 0, 56, 0
3, 484560, Note_on_c, 0, 49, 0
3, 484560, Note_on_c, 0, 54, 39
3, 484560, Note_on_c, 0, 58, 39
3, 484560, Note_on_c, 0, 47, 28
3, 484560, Note_on_c, 0, 41, 39
3, 484740, Note_on_c, 0, 41, 0
3, 484740, Note_on_c, 0, 41, 39
3, 484920, Note_on_c, 0, 41, 0
3, 484920, Note_on_c, 0, 58, 0
3, 484920, Note_on_c, 0, 54, 0
3, 484920, Note_on_c, 0, 53, 40
3, 484920, Note_on_c, 0, 56, 40
3, 484920, Note_on_c, 0, 41, 40
3, 485100, Note_on_c, 0, 41, 0
3, 485100, Note_on_c, 0, 41, 41
3, 485280, Note_on_c, 0, 41, 0
3, 485280, Note_on_c, 0, 56, 0
3, 485280, Note_on_c, 0, 53, 0
3, 485280, Note_on_c, 0, 47, 0
3, 485280, Note_on_c, 0, 51, 42
3, 485280, Note_on_c, 0, 54, 42
3, 485280, Note_on_c, 0, 46, 32
3, 485280, Note_on_c, 0, 41, 42
3, 485460, Note_on_c, 0, 41, 0
3, 485460, Note_on_c, 0, 41, 43
3, 485640, Note_on_c, 0, 41, 0
3, 485640, Note_on_c, 0, 54, 0
3, 485640, Note_on_c, 0, 51, 0
3, 485640, Note_on_c, 0, 49, 43
3, 485640, Note_on_c, 0, 53, 43
3, 485640, Note_on_c, 0, 41, 43
3, 485820, Note_on_c, 0, 41, 0
3, 485820, Note_on_c, 0, 41, 44
3, 486000, Note_on_c, 0, 41, 0
3, 486000, Note_on_c, 0, 53, 0
3, 486000, Note_on_c, 0, 49, 0
3, 486000, Note_on_c, 0, 46, 0
3, 486000, Note_on_c, 0, 47, 45
3, 486000, Note_on_c, 0, 51, 45
3, 486000, Note_on_c, 0, 44, 35
3, 486000, Note_on_c, 0, 41, 45
3, 486180, Note_on_c, 0, 41, 0
3, 486180, Note_on_c, 0, 41, 46
3, 486360, Note_on_c, 0, 41, 0
3, 486360, Note_on_c, 0, 51, 0
3, 486360, Note_on_c, 0, 47, 0
3, 486360, Note_on_c, 0, 46, 47
3, 486360, Note_on_c, 0, 49, 47
3, 486360, Note_on_c, 0, 41, 47
3, 486540, Note_on_c, 0, 41, 0
3, 486540, Note_on_c, 0, 41, 47
3, 486720, Note_on_c, 0, 41, 0
3, 486720, Note_on_c, 0, 49, 0
3, 486720, Note_on_c, 0, 46, 0
3, 486720, Note_on_c, 0, 44, 0
3, 486720, Note_on_c, 0, 44, 48
3, 486720, Note_on_c, 0, 47, 48
3, 486720, Note_on_c, 0, 41, 38
3, 487080, Note_on_c, 0, 41, 0
3, 487080, Note_on_c, 0, 41, 40
3, 487440, Note_on_c, 0, 41, 0
3, 487440, Note_on_c, 0, 41, 41
3, 487529, Note_on_c, 0, 41, 0
3, 487620, Note_on_c, 0, 41, 42
3, 487709, Note_on_c, 0, 41, 0
3, 487800, Note_on_c, 0, 41, 43
3, 487800, Note_on_c, 0, 39, 43
3, 487889, Note_on_c, 0, 41, 0
3, 487980, Note_on_c, 0, 41, 44
3, 488069, Note_on_c, 0, 41, 0
3, 488160, Note_on_c, 0, 41, 44
3, 488249, Note_on_c, 0, 41, 0
3, 488340, Note_on_c, 0, 41, 45
3, 488429, Note_on_c, 0, 41, 0
3, 488520, Note_on_c, 0, 39, 0
3, 488520, Note_on_c, 0, 41, 46
3, 488520, Note_on_c, 0, 37, 46
3, 488609, Note_on_c, 0, 41, 0
3, 488700, Note_on_c, 0, 41, 47
3, 488789, Note_on_c, 0, 41, 0
3, 488880, Note_on_c, 0, 41, 48
3, 488969, Note_on_c, 0, 41, 0
3, 489060, Note_on_c, 0, 41, 48
3, 489149, Note_on_c, 0, 41, 0
3, 489240, Note_on_c, 0, 37, 0
3, 489240, Note_on_c, 0, 41, 49
3, 489240, Note_on_c, 0, 35, 49
3, 489329, Note_on_c, 0, 41, 0
3, 489420, Note_on_c, 0, 41, 50
3, 489509, Note_on_c, 0, 41, 0
3, 489600, Note_on_c, 0, 35, 0
3, 489600, Note_on_c, 0, 47, 0
3, 489600, Note_on_c, 0, 44, 0
3, 489600, Note_on_c, 0, 47, 61
3, 489600, Note_on_c, 0, 52, 61
3, 489600, Note_on_c, 0, 28, 51
3, 489600, Note_on_c, 0, 40, 51
3, 489960, Note_on_c, 0, 40, 0
3, 489960, Note_on_c, 0, 47, 0
3, 489960, Note_on_c, 0, 52, 0
3, 489960, Note_on_c, 0, 28, 0
3, 490320, Note_on_c, 0, 52, 51
3, 490320, Note_on_c, 0, 56, 51
3, 490320, Note_on_c, 0, 59, 51
3, 490320, Note_on_c, 0, 40, 40
3, 490320, Note_on_c, 0, 47, 40
3, 490499, Note_on_c, 0, 47, 0
3, 490499, Note_on_c, 0, 59, 0
3, 490499, Note_on_c, 0, 52, 0
3, 490499, Note_on_c, 0, 56, 0
3, 490499, Note_on_c, 0, 40, 0
3, 491040, Note_on_c, 0, 64, 52
3, 491099, Note_on_c, 0, 64, 0
3, 491160, Note_on_c, 0, 64, 60
3, 491219, Note_on_c, 0, 64, 0
3, 491279, Note_on_c, 0, 64, 60
3, 491338, Note_on_c, 0, 64, 0
3, 491400, Note_on_c, 0, 64, 63
3, 491400, Note_on_c, 0, 59, 48
3, 491520, Note_on_c, 0, 59, 0
3, 491520, Note_on_c, 0, 60, 51
3, 491639, Note_on_c, 0, 60, 0
3, 491639, Note_on_c, 0, 61, 54
3, 491760, Note_on_c, 0, 61, 0
3, 491760, Note_on_c, 0, 62, 80
3, 492120, Note_on_c, 0, 62, 0
3, 492120, Note_on_c, 0, 64, 0
3, 492120, Note_on_c, 0, 66, 70
3, 492120, Note_on_c, 0, 62, 73
3, 492480, Note_on_c, 0, 62, 0
3, 492480, Note_on_c, 0, 66, 0
3, 492480, Note_on_c, 0, 64, 57
3, 492480, Note_on_c, 0, 61, 47
3, 492840, Note_on_c, 0, 61, 0
3, 492840, Note_on_c, 0, 64, 0
3, 492840, Note_on_c, 0, 64, 85
3, 492840, Note_on_c, 0, 60, 75
3, 493200, Note_on_c, 0, 60, 0
3, 493200, Note_on_c, 0, 64, 0
3, 493200, Note_on_c, 0, 63, 57
3, 493200, Note_on_c, 0, 59, 48
3, 493560, Note_on_c, 0, 59, 0
3, 493560, Note_on_c, 0, 63, 0
3, 493560, Note_on_c, 0, 61, 93
3, 493560, Note_on_c, 0, 64, 93
3, 493560, Note_on_c, 0, 58, 70
3, 493920, Note_on_c, 0, 58, 0
3, 493920, Note_on_c, 0, 64, 0
3, 493920, Note_on_c, 0, 61, 0
3, 493920, Note_on_c, 0, 60, 47
3, 493920, Note_on_c, 0, 57, 46
3, 494099, Note_on_c, 0, 57, 0
3, 494159, Note_on_c, 0, 60, 0
3, 494159, Note_on_c, 0, 63, 66
3, 494280, Note_on_c, 0, 63, 0
3, 494280, Note_on_c, 0, 61, 63
3, 494280, Note_on_c, 0, 63, 63
3, 494280, Note_on_c, 0, 56, 47
3, 494459, Note_on_c, 0, 56, 0
3, 494519, Note_on_c, 0, 63, 0
3, 494519, Note_on_c, 0, 61, 0
3, 494519, Note_on_c, 0, 64, 64
3, 494640, Note_on_c, 0, 64, 0
3, 494640, Note_on_c, 0, 57, 68
3, 494640, Note_on_c, 0, 62, 68
3, 494640, Note_on_c, 0, 65, 68
3, 494640, Note_on_c, 0, 54, 54
3, 494819, Note_on_c, 0, 54, 0
3, 494879, Note_on_c, 0, 57, 0
3, 494879, Note_on_c, 0, 62, 0
3, 494879, Note_on_c, 0, 65, 0
3, 494879, Note_on_c, 0, 66, 63
3, 495000, Note_on_c, 0, 66, 0
3, 495000, Note_on_c, 0, 57, 63
3, 495000, Note_on_c, 0, 63, 63
3, 495000, Note_on_c, 0, 66, 63
3, 495000, Note_on_c, 0, 35, 42
3, 495000, Note_on_c, 0, 47, 42
3, 495360, Note_on_c, 0, 47, 0
3, 495360, Note_on_c, 0, 66, 0
3, 495360, Note_on_c, 0, 57, 0
3, 495360, Note_on_c, 0, 63, 0
3, 495360, Note_on_c, 0, 35, 0
3, 495360, Note_on_c, 0, 56, 54
3, 495360, Note_on_c, 0, 64, 54
3, 495360, Note_on_c, 0, 40, 54
3, 495360, Note_on_c, 0, 47, 54
3, 495360, Note_on_c, 0, 52, 54
3, 495720, Note_on_c, 0, 52, 0
3, 495720, Note_on_c, 0, 40, 0
3, 495720, Note_on_c, 0, 56, 0
3, 495720, Note_on_c, 0, 64, 0
3, 495720, Note_on_c, 0, 47, 0
3, 495720, Note_on_c, 0, 64, 62
3, 495720, Note_on_c, 0, 56, 61
3, 495720, Note_on_c, 0, 59, 61
3, 495720, Note_on_c, 0, 40, 48
3, 495720, Note_on_c, 0, 47, 48
3, 495720, Note_on_c, 0, 52, 48
3, 495899, Note_on_c, 0, 52, 0
3, 495899, Note_on_c, 0, 40, 0
3, 495899, Note_on_c, 0, 47, 0
3, 496080, Note_on_c, 0, 56, 0
3, 496080, Note_on_c, 0, 59, 0
3, 496440, Note_on_c, 0, 64, 0
3, 496440, Note_on_c, 0, 64, 63
3, 496440, Note_on_c, 0, 47, 46
3, 496440, Note_on_c, 0, 56, 46
3, 496619, Note_on_c, 0, 56, 0
3, 496619, Note_on_c, 0, 47, 0
3, 496679, Note_on_c, 0, 64, 0
3, 496679, Note_on_c, 0, 64, 55
3, 496800, Note_on_c, 0, 64, 0
3, 496800, Note_on_c, 0, 64, 59
3, 497039, Note_on_c, 0, 58, 42
3, 497160, Note_on_c, 0, 58, 0
3, 497160, Note_on_c, 0, 64, 0
3, 497160, Note_on_c, 0, 64, 58
3, 497160, Note_on_c, 0, 59, 53
3, 497280, Note_on_c, 0, 59, 0
3, 497280, Note_on_c, 0, 60, 55
3, 497399, Note_on_c, 0, 60, 0
3, 497399, Note_on_c, 0, 61, 56
3, 497520, Note_on_c, 0, 61, 0
3, 497520, Note_on_c, 0, 64, 0
3, 497520, Note_on_c, 0, 64, 65
3, 497520, Note_on_c, 0, 62, 77
3, 497880, Note_on_c, 0, 62, 0
3, 497880, Note_on_c, 0, 64, 0
3, 497880, Note_on_c, 0, 66, 95
3, 497880, Note_on_c, 0, 69, 95
3, 497880, Note_on_c, 0, 62, 74
3, 498240, Note_on_c, 0, 62, 0
3, 498240, Note_on_c, 0, 69, 0
3, 498240, Note_on_c, 0, 66, 0
3, 498240, Note_on_c, 0, 64, 53
3, 498240, Note_on_c, 0, 61, 52
3, 498600, Note_on_c, 0, 61, 0
3, 498600, Note_on_c, 0, 64, 0
3, 498600, Note_on_c, 0, 64, 93
3, 498600, Note_on_c, 0, 68, 93
3, 498600, Note_on_c, 0, 60, 70
3, 498960, Note_on_c, 0, 60, 0
3, 498960, Note_on_c, 0, 68, 0
3, 498960, Note_on_c, 0, 64, 0
3, 498960, Note_on_c, 0, 63, 49
3, 498960, Note_on_c, 0, 59, 47
3, 499320, Note_on_c, 0, 59, 0
3, 499320, Note_on_c, 0, 63, 0
3, 499320, Note_on_c, 0, 61, 83
3, 499320, Note_on_c, 0, 64, 83
3, 499320, Note_on_c, 0, 58, 75
3, 499680, Note_on_c, 0, 58, 0
3, 499680, Note_on_c, 0, 64, 0
3, 499680, Note_on_c, 0, 61, 0
3, 499680, Note_on_c, 0, 61, 52
3, 499680, Note_on_c, 0, 57, 47
3, 500040, Note_on_c, 0, 57, 0
3, 500040, Note_on_c, 0, 61, 0
3, 500040, Note_on_c, 0, 59, 68
3, 500040, Note_on_c, 0, 65, 68
3, 500040, Note_on_c, 0, 56, 50
3, 500160, Note_on_c, 0, 56, 0
3, 500160, Note_on_c, 0, 57, 57
3, 500279, Note_on_c, 0, 57, 0
3, 500279, Note_on_c, 0, 56, 47
3, 500400, Note_on_c, 0, 56, 0
3, 500400, Note_on_c, 0, 65, 0
3, 500400, Note_on_c, 0, 59, 0
3, 500400, Note_on_c, 0, 57, 60
3, 500400, Note_on_c, 0, 61, 60
3, 500400, Note_on_c, 0, 64, 60
3, 500400, Note_on_c, 0, 54, 49
3, 500520, Note_on_c, 0, 54, 0
3, 500520, Note_on_c, 0, 56, 56
3, 500639, Note_on_c, 0, 56, 0
3, 500639, Note_on_c, 0, 64, 0
3, 500639, Note_on_c, 0, 61, 0
3, 500639, Note_on_c, 0, 57, 0
3, 500639, Note_on_c, 0, 63, 56
3, 500639, Note_on_c, 0, 54, 46
3, 500760, Note_on_c, 0, 54, 0
3, 500760, Note_on_c, 0, 63, 0
3, 500760, Note_on_c, 0, 56, 50
3, 500760, Note_on_c, 0, 62, 50
3, 500760, Note_on_c, 0, 40, 50
3, 500760, Note_on_c, 0, 52, 50
3, 501120, Note_on_c, 0, 52, 0
3, 501120, Note_on_c, 0, 56, 0
3, 501120, Note_on_c, 0, 62, 0
3, 501120, Note_on_c, 0, 40, 0
3, 501120, Note_on_c, 0, 57, 57
3, 501120, Note_on_c, 0, 61, 57
3, 501120, Note_on_c, 0, 45, 50
3, 501120, Note_on_c, 0, 52, 50
3, 501480, Note_on_c, 0, 52, 0
3, 501480, Note_on_c, 0, 57, 0
3, 501480, Note_on_c, 0, 61, 0
3, 501480, Note_on_c, 0, 45, 0
3, 501840, Note_on_c, 0, 52, 79
3, 501840, Note_on_c, 0, 57, 79
3, 501840, Note_on_c, 0, 61, 79
3, 501840, Note_on_c, 0, 33, 65
3, 501840, Note_on_c, 0, 45, 65
3, 502920, Note_on_c, 0, 45, 0
3, 502920, Note_on_c, 0, 61, 0
3, 502920, Note_on_c, 0, 52, 0
3, 502920, Note_on_c, 0, 57, 0
3, 502920, Note_on_c, 0, 33, 0
3, 502920, Note_on_c, 0, 56, 70
3, 502920, Note_on_c, 0, 62, 70
3, 502920, Note_on_c, 0, 66, 70
3, 502920, Note_on_c, 0, 35, 53
3, 502920, Note_on_c, 0, 47, 53
3, 503099, Note_on_c, 0, 47, 0
3, 503099, Note_on_c, 0, 66, 0
3, 503099, Note_on_c, 0, 56, 0
3, 503099, Note_on_c, 0, 62, 0
3, 503099, Note_on_c, 0, 35, 0
3, 503280, Note_on_c, 0, 57, 63
3, 503280, Note_on_c, 0, 61, 63
3, 503280, Note_on_c, 0, 66, 63
3, 503280, Note_on_c, 0, 37, 59
3, 503280, Note_on_c, 0, 49, 59
3, 503459, Note_on_c, 0, 49, 0
3, 503459, Note_on_c, 0, 66, 0
3, 503459, Note_on_c, 0, 57, 0
3, 503459, Note_on_c, 0, 61, 0
3, 503459, Note_on_c, 0, 37, 0
3, 503640, Note_on_c, 0, 59, 57
3, 503640, Note_on_c, 0, 61, 57
3, 503640, Note_on_c, 0, 65, 57
3, 503640, Note_on_c, 0, 37, 50
3, 503640, Note_on_c, 0, 49, 50
3, 503819, Note_on_c, 0, 49, 0
3, 503819, Note_on_c, 0, 65, 0
3, 503819, Note_on_c, 0, 59, 0
3, 503819, Note_on_c, 0, 61, 0
3, 503819, Note_on_c, 0, 37, 0
3, 504000, Note_on_c, 0, 57, 63
3, 504000, Note_on_c, 0, 61, 63
3, 504000, Note_on_c, 0, 66, 63
3, 504000, Note_on_c, 0, 42, 52
3, 504000, Note_on_c, 0, 49, 52
3, 504179, Note_on_c, 0, 49, 0
3, 504179, Note_on_c, 0, 66, 0
3, 504179, Note_on_c, 0, 57, 0
3, 504179, Note_on_c, 0, 61, 0
3, 504179, Note_on_c, 0, 42, 0
3, 504720, Note_on_c, 0, 49, 73
3, 504720, Note_on_c, 0, 54, 73
3, 504720, Note_on_c, 0, 57, 73
3, 504720, Note_on_c, 0, 30, 66
3, 504720, Note_on_c, 0, 42, 66
3, 505800, Note_on_c, 0, 42, 0
3, 505800, Note_on_c, 0, 57, 0
3, 505800, Note_on_c, 0, 49, 0
3, 505800, Note_on_c, 0, 54, 0
3, 505800, Note_on_c, 0, 30, 0
3, 505800, Note_on_c, 0, 54, 75
3, 505800, Note_on_c, 0, 59, 75
3, 505800, Note_on_c, 0, 62, 75
3, 505800, Note_on_c, 0, 32, 55
3, 505800, Note_on_c, 0, 44, 55
3, 505979, Note_on_c, 0, 44, 0
3, 505979, Note_on_c, 0, 62, 0
3, 505979, Note_on_c, 0, 54, 0
3, 505979, Note_on_c, 0, 59, 0
3, 505979, Note_on_c, 0, 32, 0
3, 506160, Note_on_c, 0, 54, 59
3, 506160, Note_on_c, 0, 61, 59
3, 506160, Note_on_c, 0, 33, 49
3, 506160, Note_on_c, 0, 45, 49
3, 506339, Note_on_c, 0, 45, 0
3, 506339, Note_on_c, 0, 54, 0
3, 506339, Note_on_c, 0, 61, 0
3, 506339, Note_on_c, 0, 33, 0
3, 506520, Note_on_c, 0, 54, 58
3, 506520, Note_on_c, 0, 61, 58
3, 506520, Note_on_c, 0, 34, 51
3, 506520, Note_on_c, 0, 46, 51
3, 506699, Note_on_c, 0, 46, 0
3, 506699, Note_on_c, 0, 54, 0
3, 506699, Note_on_c, 0, 61, 0
3, 506699, Note_on_c, 0, 34, 0
3, 506880, Note_on_c, 0, 54, 60
3, 506880, Note_on_c, 0, 59, 60
3, 506880, Note_on_c, 0, 35, 50
3, 506880, Note_on_c, 0, 47, 50
3, 507119, Note_on_c, 0, 59, 0
3, 507119, Note_on_c, 0, 54, 0
3, 507119, Note_on_c, 0, 59, 93
3, 507119, Note_on_c, 0, 63, 93
3, 507240, Note_on_c, 0, 63, 0
3, 507240, Note_on_c, 0, 59, 0
3, 507240, Note_on_c, 0, 59, 66
3, 507240, Note_on_c, 0, 63, 66
3, 507240, Note_on_c, 0, 59, 45
3, 507600, Note_on_c, 0, 59, 0
3, 507600, Note_on_c, 0, 57, 44
3, 507839, Note_on_c, 0, 63, 0
3, 507839, Note_on_c, 0, 59, 0
3, 507839, Note_on_c, 0, 61, 66
3, 507839, Note_on_c, 0, 64, 66
3, 507960, Note_on_c, 0, 64, 0
3, 507960, Note_on_c, 0, 57, 0
3, 507960, Note_on_c, 0, 61, 0
3, 507960, Note_on_c, 0, 61, 58
3, 507960, Note_on_c, 0, 64, 58
3, 507960, Note_on_c, 0, 56, 45
3, 508320, Note_on_c, 0, 56, 0
3, 508320, Note_on_c, 0, 54, 43
3, 508559, Note_on_c, 0, 61, 0
3, 508559, Note_on_c, 0, 64, 0
3, 508559, Note_on_c, 0, 57, 56
3, 508559, Note_on_c, 0, 61, 56
3, 508680, Note_on_c, 0, 61, 0
3, 508680, Note_on_c, 0, 54, 0
3, 508680, Note_on_c, 0, 57, 0
3, 508680, Note_on_c, 0, 57, 61
3, 508680, Note_on_c, 0, 61, 61
3, 509760, Note_on_c, 0, 61, 0
3, 509760, Note_on_c, 0, 47, 0
3, 509760, Note_on_c, 0, 35, 0
3, 509760, Note_on_c, 0, 57, 0
3, 509760, Note_on_c, 0, 63, 71
3, 509760, Note_on_c, 0, 54, 52
3, 509760, Note_on_c, 0, 57, 52
3, 509760, Note_on_c, 0, 35, 52
3, 509760, Note_on_c, 0, 47, 52
3, 509999, Note_on_c, 0, 63, 0
3, 509999, Note_on_c, 0, 63, 68
3, 509999, Note_on_c, 0, 66, 68
3, 510120, Note_on_c, 0, 66, 0
3, 510120, Note_on_c, 0, 63, 0
3, 510120, Note_on_c, 0, 63, 60
3, 510120, Note_on_c, 0, 66, 60
3, 510480, Note_on_c, 0, 66, 0
3, 510480, Note_on_c, 0, 57, 0
3, 510480, Note_on_c, 0, 54, 0
3, 510480, Note_on_c, 0, 63, 0
3, 510480, Note_on_c, 0, 63, 56
3, 510480, Note_on_c, 0, 61, 62
3, 510840, Note_on_c, 0, 61, 0
3, 510840, Note_on_c, 0, 59, 50
3, 511200, Note_on_c, 0, 59, 0
3, 511200, Note_on_c, 0, 54, 49
3, 511200, Note_on_c, 0, 57, 49
3, 511439, Note_on_c, 0, 63, 0
3, 511439, Note_on_c, 0, 57, 67
3, 511439, Note_on_c, 0, 61, 67
3, 511439, Note_on_c, 0, 64, 67
3, 511560, Note_on_c, 0, 64, 0
3, 511560, Note_on_c, 0, 57, 0
3, 511560, Note_on_c, 0, 54, 0
3, 511560, Note_on_c, 0, 57, 0
3, 511560, Note_on_c, 0, 61, 0
3, 511560, Note_on_c, 0, 57, 66
3, 511560, Note_on_c, 0, 61, 66
3, 511560, Note_on_c, 0, 64, 66
3, 512640, Note_on_c, 0, 64, 0
3, 512640, Note_on_c, 0, 57, 0
3, 512640, Note_on_c, 0, 61, 0
3, 512640, Note_on_c, 0, 54, 57
3, 512640, Note_on_c, 0, 57, 57
3, 512640, Note_on_c, 0, 63, 57
3, 513000, Note_on_c, 0, 63, 0
3, 513000, Note_on_c, 0, 54, 0
3, 513000, Note_on_c, 0, 35, 0
3, 513000, Note_on_c, 0, 47, 0
3, 513000, Note_on_c, 0, 57, 0
3, 513000, Note_on_c, 0, 59, 58
3, 513000, Note_on_c, 0, 63, 58
3, 513000, Note_on_c, 0, 51, 59
3, 513239, Note_on_c, 0, 51, 0
3, 513239, Note_on_c, 0, 63, 0
3, 513239, Note_on_c, 0, 59, 0
3, 513239, Note_on_c, 0, 61, 58
3, 513239, Note_on_c, 0, 49, 47
3, 513360, Note_on_c, 0, 49, 0
3, 513360, Note_on_c, 0, 61, 0
3, 513360, Note_on_c, 0, 59, 56
3, 513360, Note_on_c, 0, 47, 48
3, 513599, Note_on_c, 0, 47, 0
3, 513599, Note_on_c, 0, 59, 0
3, 513599, Note_on_c, 0, 56, 59
3, 513599, Note_on_c, 0, 44, 49
3, 513720, Note_on_c, 0, 44, 0
3, 513720, Note_on_c, 0, 56, 0
3, 513720, Note_on_c, 0, 54, 77
3, 513720, Note_on_c, 0, 57, 77
3, 513720, Note_on_c, 0, 61, 77
3, 513720, Note_on_c, 0, 42, 53
3, 513959, Note_on_c, 0, 42, 0
3, 513959, Note_on_c, 0, 37, 42
3, 514080, Note_on_c, 0, 37, 0
3, 514080, Note_on_c, 0, 61, 0
3, 514080, Note_on_c, 0, 57, 0
3, 514080, Note_on_c, 0, 54, 0
3, 514080, Note_on_c, 0, 59, 66
3, 514080, Note_on_c, 0, 63, 66
3, 514080, Note_on_c, 0, 35, 62
3, 514080, Note_on_c, 0, 47, 62
3, 514440, Note_on_c, 0, 47, 0
3, 514440, Note_on_c, 0, 59, 0
3, 514440, Note_on_c, 0, 63, 0
3, 514440, Note_on_c, 0, 35, 0
3, 514440, Note_on_c, 0, 59, 62
3, 514440, Note_on_c, 0, 63, 62
3, 514440, Note_on_c, 0, 51, 54
3, 514560, Note_on_c, 0, 51, 0
3, 514560, Note_on_c, 0, 63, 0
3, 514560, Note_on_c, 0, 59, 0
3, 514560, Note_on_c, 0, 61, 54
3, 514560, Note_on_c, 0, 49, 50
3, 514679, Note_on_c, 0, 49, 0
3, 514679, Note_on_c, 0, 61, 0
3, 514679, Note_on_c, 0, 59, 61
3, 514679, Note_on_c, 0, 47, 48
3, 514800, Note_on_c, 0, 47, 0
3, 514800, Note_on_c, 0, 59, 0
3, 514800, Note_on_c, 0, 59, 64
3, 514800, Note_on_c, 0, 47, 53
3, 515039, Note_on_c, 0, 47, 0
3, 515039, Note_on_c, 0, 59, 0
3, 515039, Note_on_c, 0, 56, 58
3, 515039, Note_on_c, 0, 44, 50
3, 515160, Note_on_c, 0, 44, 0
3, 515160, Note_on_c, 0, 56, 0
3, 515160, Note_on_c, 0, 61, 72
3, 515160, Note_on_c, 0, 54, 51
3, 515160, Note_on_c, 0, 57, 51
3, 515160, Note_on_c, 0, 42, 45
3, 515280, Note_on_c, 0, 61, 0
3, 515280, Note_on_c, 0, 63, 68
3, 515399, Note_on_c, 0, 63, 0
3, 515399, Note_on_c, 0, 42, 0
3, 515399, Note_on_c, 0, 64, 68
3, 515399, Note_on_c, 0, 37, 42
3, 515520, Note_on_c, 0, 37, 0
3, 515520, Note_on_c, 0, 54, 0
3, 515520, Note_on_c, 0, 57, 0
3, 515520, Note_on_c, 0, 64, 0
3, 515520, Note_on_c, 0, 59, 60
3, 515520, Note_on_c, 0, 63, 60
3, 515520, Note_on_c, 0, 35, 56
3, 515520, Note_on_c, 0, 47, 56
3, 515880, Note_on_c, 0, 47, 0
3, 515880, Note_on_c, 0, 59, 0
3, 515880, Note_on_c, 0, 63, 0
3, 515880, Note_on_c, 0, 35, 0
3, 515880, Note_on_c, 0, 59, 61
3, 515880, Note_on_c, 0, 63, 61
3, 516119, Note_on_c, 0, 63, 0
3, 516119, Note_on_c, 0, 59, 0
3, 516119, Note_on_c, 0, 54, 58
3, 516119, Note_on_c, 0, 61, 58
3, 516240, Note_on_c, 0, 61, 0
3, 516240, Note_on_c, 0, 54, 0
3, 516240, Note_on_c, 0, 59, 81
3, 516240, Note_on_c, 0, 63, 81
3, 516839, Note_on_c, 0, 63, 0
3, 516839, Note_on_c, 0, 59, 0
3, 516839, Note_on_c, 0, 57, 71
3, 516839, Note_on_c, 0, 64, 71
3, 516960, Note_on_c, 0, 64, 0
3, 516960, Note_on_c, 0, 57, 0
3, 516960, Note_on_c, 0, 62, 77
3, 516960, Note_on_c, 0, 66, 77
3, 517277, Note_on_c, 0, 66, 0
3, 517277, Note_on_c, 0, 62, 0
3, 517320, Note_on_c, 0, 62, 60
3, 517320, Note_on_c, 0, 66, 60
3, 517559, Note_on_c, 0, 66, 0
3, 517559, Note_on_c, 0, 62, 0
3, 517559, Note_on_c, 0, 57, 52
3, 517559, Note_on_c, 0, 64, 52
3, 517680, Note_on_c, 0, 64, 0
3, 517680, Note_on_c, 0, 57, 0
3, 517680, Note_on_c, 0, 62, 76
3, 517680, Note_on_c, 0, 66, 76
3, 518040, Note_on_c, 0, 45, 46
3, 518040, Note_on_c, 0, 33, 49
3, 518160, Note_on_c, 0, 33, 0
3, 518160, Note_on_c, 0, 35, 62
3, 518279, Note_on_c, 0, 35, 0
3, 518279, Note_on_c, 0, 66, 0
3, 518279, Note_on_c, 0, 62, 0
3, 518279, Note_on_c, 0, 57, 54
3, 518279, Note_on_c, 0, 64, 54
3, 518279, Note_on_c, 0, 36, 60
3, 518400, Note_on_c, 0, 36, 0
3, 518400, Note_on_c, 0, 45, 0
3, 518400, Note_on_c, 0, 57, 0
3, 518400, Note_on_c, 0, 64, 0
3, 518400, Note_on_c, 0, 62, 64
3, 518400, Note_on_c, 0, 66, 64
3, 518400, Note_on_c, 0, 38, 44
3, 518760, Note_on_c, 0, 38, 0
3, 518760, Note_on_c, 0, 66, 0
3, 518760, Note_on_c, 0, 62, 0
3, 518760, Note_on_c, 0, 57, 71
3, 518760, Note_on_c, 0, 60, 71
3, 518760, Note_on_c, 0, 62, 71
3, 518760, Note_on_c, 0, 66, 71
3, 518760, Note_on_c, 0, 50, 57
3, 519359, Note_on_c, 0, 50, 0
3, 519359, Note_on_c, 0, 45, 46
3, 519393, Note_on_c, 0, 62, 0
3, 519393, Note_on_c, 0, 66, 0
3, 519393, Note_on_c, 0, 57, 0
3, 519393, Note_on_c, 0, 60, 0
3, 519480, Note_on_c, 0, 45, 0
3, 519480, Note_on_c, 0, 55, 72
3, 519480, Note_on_c, 0, 59, 72
3, 519480, Note_on_c, 0, 64, 72
3, 519480, Note_on_c, 0, 67, 72
3, 519480, Note_on_c, 0, 43, 46
3, 520079, Note_on_c, 0, 43, 0
3, 520079, Note_on_c, 0, 40, 46
3, 520200, Note_on_c, 0, 40, 0
3, 520200, Note_on_c, 0, 67, 0
3, 520200, Note_on_c, 0, 55, 0
3, 520200, Note_on_c, 0, 59, 0
3, 520200, Note_on_c, 0, 64, 0
3, 520200, Note_on_c, 0, 59, 60
3, 520200, Note_on_c, 0, 62, 60
3, 520200, Note_on_c, 0, 66, 60
3, 520200, Note_on_c, 0, 38, 51
3, 520200, Note_on_c, 0, 50, 51
3, 520439, Note_on_c, 0, 50, 0
3, 520439, Note_on_c, 0, 38, 0
3, 520439, Note_on_c, 0, 35, 40
3, 520560, Note_on_c, 0, 35, 0
3, 520560, Note_on_c, 0, 66, 0
3, 520560, Note_on_c, 0, 62, 0
3, 520560, Note_on_c, 0, 59, 0
3, 520560, Note_on_c, 0, 52, 50
3, 520560, Note_on_c, 0, 57, 50
3, 520560, Note_on_c, 0, 60, 50
3, 520560, Note_on_c, 0, 64, 50
3, 520560, Note_on_c, 0, 45, 63
3, 520560, Note_on_c, 0, 33, 59
3, 520680, Note_on_c, 0, 33, 0
3, 520680, Note_on_c, 0, 35, 62
3, 520799, Note_on_c, 0, 35, 0
3, 520799, Note_on_c, 0, 36, 64
3, 520920, Note_on_c, 0, 36, 0
3, 520920, Note_on_c, 0, 57, 0
3, 520920, Note_on_c, 0, 60, 0
3, 520920, Note_on_c, 0, 52, 0
3, 520920, Note_on_c, 0, 45, 0
3, 520920, Note_on_c, 0, 64, 0
3, 520920, Note_on_c, 0, 54, 55
3, 520920, Note_on_c, 0, 60, 55
3, 520920, Note_on_c, 0, 62, 55
3, 520920, Note_on_c, 0, 38, 46
3, 521280, Note_on_c, 0, 38, 0
3, 521280, Note_on_c, 0, 54, 0
3, 521280, Note_on_c, 0, 60, 0
3, 521280, Note_on_c, 0, 62, 0
3, 521280, Note_on_c, 0, 55, 57
3, 521280, Note_on_c, 0, 59, 57
3, 521280, Note_on_c, 0, 62, 57
3, 521280, Note_on_c, 0, 43, 61
3, 521280, Note_on_c, 0, 50, 61
3, 521519, Note_on_c, 0, 62, 0
3, 521519, Note_on_c, 0, 55, 0
3, 521519, Note_on_c, 0, 59, 0
3, 521519, Note_on_c, 0, 57, 52
3, 521640, Note_on_c, 0, 57, 0
3, 521640, Note_on_c, 0, 43, 0
3, 521640, Note_on_c, 0, 50, 0
3, 521640, Note_on_c, 0, 59, 63
3, 521760, Note_on_c, 0, 59, 0
3, 521760, Note_on_c, 0, 60, 67
3, 521879, Note_on_c, 0, 60, 0
3, 521879, Note_on_c, 0, 61, 66
3, 522000, Note_on_c, 0, 61, 0
3, 522000, Note_on_c, 0, 62, 64
3, 522000, Note_on_c, 0, 55, 54
3, 522000, Note_on_c, 0, 59, 54
3, 522000, Note_on_c, 0, 43, 43
3, 522000, Note_on_c, 0, 50, 43
3, 522360, Note_on_c, 0, 50, 0
3, 522360, Note_on_c, 0, 43, 0
3, 522599, Note_on_c, 0, 62, 0
3, 522599, Note_on_c, 0, 67, 73
3, 522720, Note_on_c, 0, 67, 0
3, 522720, Note_on_c, 0, 59, 0
3, 522720, Note_on_c, 0, 55, 0
3, 522720, Note_on_c, 0, 67, 66
3, 522779, Note_on_c, 0, 67, 0
3, 522840, Note_on_c, 0, 67, 68
3, 522899, Note_on_c, 0, 67, 0
3, 522959, Note_on_c, 0, 67, 59
3, 523018, Note_on_c, 0, 67, 0
3, 523080, Note_on_c, 0, 67, 61
3, 523080, Note_on_c, 0, 62, 42
3, 523200, Note_on_c, 0, 62, 0
3, 523200, Note_on_c, 0, 63, 54
3, 523319, Note_on_c, 0, 63, 0
3, 523319, Note_on_c, 0, 64, 53
3, 523440, Note_on_c, 0, 64, 0
3, 523440, Note_on_c, 0, 67, 0
3, 523440, Note_on_c, 0, 67, 64
3, 523440, Note_on_c, 0, 65, 83
3, 523800, Note_on_c, 0, 65, 0
3, 523800, Note_on_c, 0, 67, 0
3, 523800, Note_on_c, 0, 69, 66
3, 523800, Note_on_c, 0, 65, 50
3, 524160, Note_on_c, 0, 65, 0
3, 524160, Note_on_c, 0, 69, 0
3, 524160, Note_on_c, 0, 67, 56
3, 524160, Note_on_c, 0, 64, 43
3, 524339, Note_on_c, 0, 64, 0
3, 524520, Note_on_c, 0, 67, 0
3, 524520, Note_on_c, 0, 67, 56
3, 524520, Note_on_c, 0, 63, 43
3, 524699, Note_on_c, 0, 63, 0
3, 524880, Note_on_c, 0, 67, 0
3, 524880, Note_on_c, 0, 66, 52
3, 524880, Note_on_c, 0, 62, 43
3, 525059, Note_on_c, 0, 62, 0
3, 525119, Note_on_c, 0, 66, 0
3, 525119, Note_on_c, 0, 66, 64
3, 525240, Note_on_c, 0, 66, 0
3, 525240, Note_on_c, 0, 64, 69
3, 525240, Note_on_c, 0, 67, 69
3, 525240, Note_on_c, 0, 61, 49
3, 525419, Note_on_c, 0, 61, 0
3, 525600, Note_on_c, 0, 67, 0
3, 525600, Note_on_c, 0, 64, 0
3, 525600, Note_on_c, 0, 63, 60
3, 525600, Note_on_c, 0, 67, 60
3, 525600, Note_on_c, 0, 60, 50
3, 525779, Note_on_c, 0, 60, 0
3, 525839, Note_on_c, 0, 67, 0
3, 525839, Note_on_c, 0, 63, 0
3, 525839, Note_on_c, 0, 66, 54
3, 525960, Note_on_c, 0, 66, 0
3, 525960, Note_on_c, 0, 59, 58
3, 525960, Note_on_c, 0, 64, 58
3, 525960, Note_on_c, 0, 66, 58
3, 525960, Note_on_c, 0, 52, 43
3, 526139, Note_on_c, 0, 52, 0
3, 526199, Note_on_c, 0, 59, 0
3, 526199, Note_on_c, 0, 64, 0
3, 526199, Note_on_c, 0, 66, 0
3, 526199, Note_on_c, 0, 67, 63
3, 526320, Note_on_c, 0, 67, 0
3, 526320, Note_on_c, 0, 60, 63
3, 526320, Note_on_c, 0, 65, 63
3, 526320, Note_on_c, 0, 68, 63
3, 526320, Note_on_c, 0, 45, 54
3, 526320, Note_on_c, 0, 57, 54
3, 526499, Note_on_c, 0, 57, 0
3, 526499, Note_on_c, 0, 45, 0
3, 526559, Note_on_c, 0, 60, 0
3, 526559, Note_on_c, 0, 65, 0
3, 526559, Note_on_c, 0, 68, 0
3, 526559, Note_on_c, 0, 69, 67
3, 526680, Note_on_c, 0, 69, 0
3, 526680, Note_on_c, 0, 60, 56
3, 526680, Note_on_c, 0, 62, 56
3, 526680, Note_on_c, 0, 66, 56
3, 526680, Note_on_c, 0, 69, 56
3, 526680, Note_on_c, 0, 50, 48
3, 526680, Note_on_c, 0, 57, 48
3, 526859, Note_on_c, 0, 57, 0
3, 526859, Note_on_c, 0, 50, 0
3, 527040, Note_on_c, 0, 66, 0
3, 527040, Note_on_c, 0, 60, 0
3, 527040, Note_on_c, 0, 62, 0
3, 527040, Note_on_c, 0, 69, 0
3, 527040, Note_on_c, 0, 59, 58
3, 527040, Note_on_c, 0, 62, 58
3, 527040, Note_on_c, 0, 67, 58
3, 527040, Note_on_c, 0, 43, 55
3, 527040, Note_on_c, 0, 50, 55
3, 527040, Note_on_c, 0, 55, 55
3, 527219, Note_on_c, 0, 55, 0
3, 527219, Note_on_c, 0, 43, 0
3, 527219, Note_on_c, 0, 50, 0
3, 527400, Note_on_c, 0, 59, 0
3, 527400, Note_on_c, 0, 67, 0
3, 527400, Note_on_c, 0, 62, 0
3, 527760, Note_on_c, 0, 52, 57
3, 527760, Note_on_c, 0, 59, 57
3, 527760, Note_on_c, 0, 62, 57
3, 527760, Note_on_c, 0, 64, 57
3, 527760, Note_on_c, 0, 31, 46
3, 527760, Note_on_c, 0, 43, 46
3, 527999, Note_on_c, 0, 43, 0
3, 527999, Note_on_c, 0, 59, 0
3, 527999, Note_on_c, 0, 62, 0
3, 527999, Note_on_c, 0, 52, 0
3, 527999, Note_on_c, 0, 31, 0
3, 527999, Note_on_c, 0, 64, 0
3, 527999, Note_on_c, 0, 52, 59
3, 527999, Note_on_c, 0, 59, 59
3, 527999, Note_on_c, 0, 62, 59
3, 527999, Note_on_c, 0, 64, 59
3, 527999, Note_on_c, 0, 31, 51
3, 527999, Note_on_c, 0, 43, 51
3, 528120, Note_on_c, 0, 43, 0
3, 528120, Note_on_c, 0, 59, 0
3, 528120, Note_on_c, 0, 62, 0
3, 528120, Note_on_c, 0, 52, 0
3, 528120, Note_on_c, 0, 31, 0
3, 528120, Note_on_c, 0, 64, 0
3, 528120, Note_on_c, 0, 52, 61
3, 528120, Note_on_c, 0, 59, 61
3, 528120, Note_on_c, 0, 62, 61
3, 528120, Note_on_c, 0, 64, 61
3, 528120, Note_on_c, 0, 31, 52
3, 528120, Note_on_c, 0, 43, 52
3, 528359, Note_on_c, 0, 43, 0
3, 528359, Note_on_c, 0, 59, 0
3, 528359, Note_on_c, 0, 62, 0
3, 528359, Note_on_c, 0, 52, 0
3, 528359, Note_on_c, 0, 31, 0
3, 528359, Note_on_c, 0, 64, 0
3, 528359, Note_on_c, 0, 52, 63
3, 528359, Note_on_c, 0, 59, 63
3, 528359, Note_on_c, 0, 62, 63
3, 528359, Note_on_c, 0, 64, 63
3, 528359, Note_on_c, 0, 31, 55
3, 528359, Note_on_c, 0, 43, 55
3, 528480, Note_on_c, 0, 43, 0
3, 528480, Note_on_c, 0, 59, 0
3, 528480, Note_on_c, 0, 62, 0
3, 528480, Note_on_c, 0, 31, 0
3, 528480, Note_on_c, 0, 57, 58
3, 528480, Note_on_c, 0, 60, 58
3, 528480, Note_on_c, 0, 33, 63
3, 528480, Note_on_c, 0, 45, 63
3, 529113, Note_on_c, 0, 45, 0
3, 529113, Note_on_c, 0, 33, 0
3, 529200, Note_on_c, 0, 57, 0
3, 529200, Note_on_c, 0, 64, 0
3, 529200, Note_on_c, 0, 52, 0
3, 529200, Note_on_c, 0, 60, 0
3, 529200, Note_on_c, 0, 54, 66
3, 529200, Note_on_c, 0, 60, 66
3, 529200, Note_on_c, 0, 64, 66
3, 529200, Note_on_c, 0, 66, 66
3, 529200, Note_on_c, 0, 33, 50
3, 529200, Note_on_c, 0, 45, 50
3, 529439, Note_on_c, 0, 45, 0
3, 529439, Note_on_c, 0, 60, 0
3, 529439, Note_on_c, 0, 64, 0
3, 529439, Note_on_c, 0, 54, 0
3, 529439, Note_on_c, 0, 33, 0
3, 529439, Note_on_c, 0, 66, 0
3, 529439, Note_on_c, 0, 54, 65
3, 529439, Note_on_c, 0, 60, 65
3, 529439, Note_on_c, 0, 64, 65
3, 529439, Note_on_c, 0, 66, 65
3, 529439, Note_on_c, 0, 33, 53
3, 529439, Note_on_c, 0, 45, 53
3, 529560, Note_on_c, 0, 45, 0
3, 529560, Note_on_c, 0, 60, 0
3, 529560, Note_on_c, 0, 64, 0
3, 529560, Note_on_c, 0, 54, 0
3, 529560, Note_on_c, 0, 33, 0
3, 529560, Note_on_c, 0, 66, 0
3, 529560, Note_on_c, 0, 54, 60
3, 529560, Note_on_c, 0, 60, 60
3, 529560, Note_on_c, 0, 64, 60
3, 529560, Note_on_c, 0, 66, 60
3, 529560, Note_on_c, 0, 33, 54
3, 529560, Note_on_c, 0, 45, 54
3, 529799, Note_on_c, 0, 45, 0
3, 529799, Note_on_c, 0, 60, 0
3, 529799, Note_on_c, 0, 64, 0
3, 529799, Note_on_c, 0, 54, 0
3, 529799, Note_on_c, 0, 33, 0
3, 529799, Note_on_c, 0, 66, 0
3, 529799, Note_on_c, 0, 54, 56
3, 529799, Note_on_c, 0, 60, 56
3, 529799, Note_on_c, 0, 64, 56
3, 529799, Note_on_c, 0, 66, 56
3, 529799, Note_on_c, 0, 33, 47
3, 529799, Note_on_c, 0, 45, 47
3, 529920, Note_on_c, 0, 45, 0
3, 529920, Note_on_c, 0, 60, 0
3, 529920, Note_on_c, 0, 64, 0
3, 529920, Note_on_c, 0, 33, 0
3, 529920, Note_on_c, 0, 59, 59
3, 529920, Note_on_c, 0, 62, 59
3, 529920, Note_on_c, 0, 35, 55
3, 529920, Note_on_c, 0, 47, 55
3, 530640, Note_on_c, 0, 47, 0
3, 530640, Note_on_c, 0, 54, 0
3, 530640, Note_on_c, 0, 59, 0
3, 530640, Note_on_c, 0, 66, 0
3, 530640, Note_on_c, 0, 35, 0
3, 530640, Note_on_c, 0, 62, 0
3, 530640, Note_on_c, 0, 55, 62
3, 530640, Note_on_c, 0, 62, 62
3, 530640, Note_on_c, 0, 66, 62
3, 530640, Note_on_c, 0, 67, 62
3, 530640, Note_on_c, 0, 35, 49
3, 530640, Note_on_c, 0, 47, 49
3, 530879, Note_on_c, 0, 47, 0
3, 530879, Note_on_c, 0, 62, 0
3, 530879, Note_on_c, 0, 66, 0
3, 530879, Note_on_c, 0, 55, 0
3, 530879, Note_on_c, 0, 35, 0
3, 530879, Note_on_c, 0, 67, 0
3, 530879, Note_on_c, 0, 55, 63
3, 530879, Note_on_c, 0, 62, 63
3, 530879, Note_on_c, 0, 66, 63
3, 530879, Note_on_c, 0, 67, 63
3, 530879, Note_on_c, 0, 35, 48
3, 530879, Note_on_c, 0, 47, 48
3, 531000, Note_on_c, 0, 47, 0
3, 531000, Note_on_c, 0, 62, 0
3, 531000, Note_on_c, 0, 66, 0
3, 531000, Note_on_c, 0, 55, 0
3, 531000, Note_on_c, 0, 35, 0
3, 531000, Note_on_c, 0, 67, 0
3, 531000, Note_on_c, 0, 55, 59
3, 531000, Note_on_c, 0, 62, 59
3, 531000, Note_on_c, 0, 66, 59
3, 531000, Note_on_c, 0, 67, 59
3, 531000, Note_on_c, 0, 35, 55
3, 531000, Note_on_c, 0, 47, 55
3, 531239, Note_on_c, 0, 47, 0
3, 531239, Note_on_c, 0, 62, 0
3, 531239, Note_on_c, 0, 66, 0
3, 531239, Note_on_c, 0, 55, 0
3, 531239, Note_on_c, 0, 35, 0
3, 531239, Note_on_c, 0, 67, 0
3, 531239, Note_on_c, 0, 55, 60
3, 531239, Note_on_c, 0, 62, 60
3, 531239, Note_on_c, 0, 66, 60
3, 531239, Note_on_c, 0, 67, 60
3, 531239, Note_on_c, 0, 35, 48
3, 531239, Note_on_c, 0, 47, 48
3, 531360, Note_on_c, 0, 47, 0
3, 531360, Note_on_c, 0, 62, 0
3, 531360, Note_on_c, 0, 66, 0
3, 531360, Note_on_c, 0, 35, 0
3, 531360, Note_on_c, 0, 60, 59
3, 531360, Note_on_c, 0, 64, 59
3, 531360, Note_on_c, 0, 36, 53
3, 531360, Note_on_c, 0, 48, 53
3, 531720, Note_on_c, 0, 48, 0
3, 531720, Note_on_c, 0, 55, 0
3, 531720, Note_on_c, 0, 60, 0
3, 531720, Note_on_c, 0, 67, 0
3, 531720, Note_on_c, 0, 36, 0
3, 531720, Note_on_c, 0, 64, 0
3, 531720, Note_on_c, 0, 57, 64
3, 531720, Note_on_c, 0, 69, 64
3, 531720, Note_on_c, 0, 64, 69
3, 531720, Note_on_c, 0, 68, 69
3, 531720, Note_on_c, 0, 37, 53
3, 531720, Note_on_c, 0, 49, 53
3, 531899, Note_on_c, 0, 49, 0
3, 531899, Note_on_c, 0, 37, 0
3, 532080, Note_on_c, 0, 64, 0
3, 532080, Note_on_c, 0, 68, 0
3, 532080, Note_on_c, 0, 62, 47
3, 532080, Note_on_c, 0, 66, 47
3, 532080, Note_on_c, 0, 38, 51
3, 532080, Note_on_c, 0, 50, 51
3, 532259, Note_on_c, 0, 50, 0
3, 532259, Note_on_c, 0, 38, 0
3, 532440, Note_on_c, 0, 62, 0
3, 532440, Note_on_c, 0, 57, 0
3, 532440, Note_on_c, 0, 69, 0
3, 532440, Note_on_c, 0, 66, 0
3, 532440, Note_on_c, 0, 60, 70
3, 532440, Note_on_c, 0, 72, 70
3, 532440, Note_on_c, 0, 66, 54
3, 532440, Note_on_c, 0, 69, 54
3, 532440, Note_on_c, 0, 39, 56
3, 532440, Note_on_c, 0, 51, 56
3, 532619, Note_on_c, 0, 51, 0
3, 532619, Note_on_c, 0, 39, 0
3, 532800, Note_on_c, 0, 66, 0
3, 532800, Note_on_c, 0, 60, 0
3, 532800, Note_on_c, 0, 72, 0
3, 532800, Note_on_c, 0, 69, 0
3, 532800, Note_on_c, 0, 59, 56
3, 532800, Note_on_c, 0, 64, 56
3, 532800, Note_on_c, 0, 67, 56
3, 532800, Note_on_c, 0, 71, 56
3, 532800, Note_on_c, 0, 40, 55
3, 532800, Note_on_c, 0, 52, 55
3, 533039, Note_on_c, 0, 71, 0
3, 533039, Note_on_c, 0, 67, 0
3, 533039, Note_on_c, 0, 59, 0
3, 533039, Note_on_c, 0, 64, 0
3, 533039, Note_on_c, 0, 55, 48
3, 533039, Note_on_c, 0, 59, 48
3, 533039, Note_on_c, 0, 67, 48
3, 533160, Note_on_c, 0, 67, 0
3, 533160, Note_on_c, 0, 55, 0
3, 533160, Note_on_c, 0, 40, 0
3, 533160, Note_on_c, 0, 52, 0
3, 533160, Note_on_c, 0, 59, 0
3, 533160, Note_on_c, 0, 55, 53
3, 533160, Note_on_c, 0, 59, 53
3, 533160, Note_on_c, 0, 67, 53
3, 533160, Note_on_c, 0, 41, 54
3, 533160, Note_on_c, 0, 53, 54
3, 533339, Note_on_c, 0, 53, 0
3, 533339, Note_on_c, 0, 41, 0
3, 533399, Note_on_c, 0, 55, 0
3, 533399, Note_on_c, 0, 59, 0
3, 533399, Note_on_c, 0, 67, 0
3, 533399, Note_on_c, 0, 55, 63
3, 533399, Note_on_c, 0, 59, 63
3, 533399, Note_on_c, 0, 67, 63
3, 533520, Note_on_c, 0, 67, 0
3, 533520, Note_on_c, 0, 59, 0
3, 533520, Note_on_c, 0, 55, 0
3, 533520, Note_on_c, 0, 55, 61
3, 533520, Note_on_c, 0, 59, 61
3, 533520, Note_on_c, 0, 67, 61
3, 533520, Note_on_c, 0, 40, 49
3, 533520, Note_on_c, 0, 52, 49
3, 533699, Note_on_c, 0, 52, 0
3, 533699, Note_on_c, 0, 40, 0
3, 533759, Note_on_c, 0, 55, 0
3, 533759, Note_on_c, 0, 59, 0
3, 533759, Note_on_c, 0, 67, 0
3, 533759, Note_on_c, 0, 55, 65
3, 533759, Note_on_c, 0, 59, 65
3, 533759, Note_on_c, 0, 67, 65
3, 533880, Note_on_c, 0, 67, 0
3, 533880, Note_on_c, 0, 59, 0
3, 533880, Note_on_c, 0, 55, 0
3, 533880, Note_on_c, 0, 55, 62
3, 533880, Note_on_c, 0, 59, 62
3, 533880, Note_on_c, 0, 67, 62
3, 533880, Note_on_c, 0, 39, 51
3, 533880, Note_on_c, 0, 51, 51
3, 534059, Note_on_c, 0, 51, 0
3, 534059, Note_on_c, 0, 39, 0
3, 534119, Note_on_c, 0, 55, 0
3, 534119, Note_on_c, 0, 59, 0
3, 534119, Note_on_c, 0, 67, 0
3, 534119, Note_on_c, 0, 55, 61
3, 534119, Note_on_c, 0, 59, 61
3, 534119, Note_on_c, 0, 67, 61
3, 534240, Note_on_c, 0, 67, 0
3, 534240, Note_on_c, 0, 59, 0
3, 534240, Note_on_c, 0, 55, 0
3, 534240, Note_on_c, 0, 55, 62
3, 534240, Note_on_c, 0, 59, 62
3, 534240, Note_on_c, 0, 67, 62
3, 534240, Note_on_c, 0, 40, 52
3, 534240, Note_on_c, 0, 52, 52
3, 534479, Note_on_c, 0, 67, 0
3, 534479, Note_on_c, 0, 55, 0
3, 534479, Note_on_c, 0, 59, 0
3, 534479, Note_on_c, 0, 59, 69
3, 534479, Note_on_c, 0, 63, 69
3, 534479, Note_on_c, 0, 71, 69
3, 534600, Note_on_c, 0, 71, 0
3, 534600, Note_on_c, 0, 59, 0
3, 534600, Note_on_c, 0, 52, 0
3, 534600, Note_on_c, 0, 40, 0
3, 534600, Note_on_c, 0, 63, 0
3, 534600, Note_on_c, 0, 59, 64
3, 534600, Note_on_c, 0, 63, 64
3, 534600, Note_on_c, 0, 71, 64
3, 534600, Note_on_c, 0, 44, 54
3, 534600, Note_on_c, 0, 56, 54
3, 534839, Note_on_c, 0, 71, 0
3, 534839, Note_on_c, 0, 59, 0
3, 534839, Note_on_c, 0, 63, 0
3, 534839, Note_on_c, 0, 59, 57
3, 534839, Note_on_c, 0, 63, 57
3, 534839, Note_on_c, 0, 71, 57
3, 534960, Note_on_c, 0, 71, 0
3, 534960, Note_on_c, 0, 59, 0
3, 534960, Note_on_c, 0, 56, 0
3, 534960, Note_on_c, 0, 44, 0
3, 534960, Note_on_c, 0, 63, 0
3, 534960, Note_on_c, 0, 59, 60
3, 534960, Note_on_c, 0, 63, 60
3, 534960, Note_on_c, 0, 71, 60
3, 534960, Note_on_c, 0, 43, 45
3, 534960, Note_on_c, 0, 55, 45
3, 535199, Note_on_c, 0, 71, 0
3, 535199, Note_on_c, 0, 59, 0
3, 535199, Note_on_c, 0, 63, 0
3, 535199, Note_on_c, 0, 59, 60
3, 535199, Note_on_c, 0, 63, 60
3, 535199, Note_on_c, 0, 71, 60
3, 535320, Note_on_c, 0, 71, 0
3, 535320, Note_on_c, 0, 59, 0
3, 535320, Note_on_c, 0, 55, 0
3, 535320, Note_on_c, 0, 43, 0
3, 535320, Note_on_c, 0, 63, 0
3, 535320, Note_on_c, 0, 59, 63
3, 535320, Note_on_c, 0, 63, 63
3, 535320, Note_on_c, 0, 71, 63
3, 535320, Note_on_c, 0, 42, 46
3, 535320, Note_on_c, 0, 54, 46
3, 535559, Note_on_c, 0, 71, 0
3, 535559, Note_on_c, 0, 59, 0
3, 535559, Note_on_c, 0, 63, 0
3, 535559, Note_on_c, 0, 70, 58
3, 535680, Note_on_c, 0, 70, 0
3, 535680, Note_on_c, 0, 42, 0
3, 535680, Note_on_c, 0, 54, 0
3, 535680, Note_on_c, 0, 59, 68
3, 535680, Note_on_c, 0, 64, 68
3, 535680, Note_on_c, 0, 71, 68
3, 535680, Note_on_c, 0, 43, 54
3, 535680, Note_on_c, 0, 55, 54
3, 536040, Note_on_c, 0, 55, 0
3, 536040, Note_on_c, 0, 71, 0
3, 536040, Note_on_c, 0, 59, 0
3, 536040, Note_on_c, 0, 64, 0
3, 536040, Note_on_c, 0, 43, 0
3, 536040, Note_on_c, 0, 53, 51
3, 536040, Note_on_c, 0, 65, 51
3, 536040, Note_on_c, 0, 59, 39
3, 536040, Note_on_c, 0, 43, 40
3, 536400, Note_on_c, 0, 43, 0
3, 536400, Note_on_c, 0, 53, 0
3, 536400, Note_on_c, 0, 65, 0
3, 536400, Note_on_c, 0, 52, 55
3, 536400, Note_on_c, 0, 64, 55
3, 536400, Note_on_c, 0, 36, 58
3, 536400, Note_on_c, 0, 48, 58
3, 536760, Note_on_c, 0, 48, 0
3, 536760, Note_on_c, 0, 64, 0
3, 536760, Note_on_c, 0, 59, 0
3, 536760, Note_on_c, 0, 52, 0
3, 536760, Note_on_c, 0, 36, 0
3, 536760, Note_on_c, 0, 52, 60
3, 536760, Note_on_c, 0, 57, 60
3, 536760, Note_on_c, 0, 64, 60
3, 536760, Note_on_c, 0, 42, 57
3, 537077, Note_on_c, 0, 42, 0
3, 537120, Note_on_c, 0, 52, 0
3, 537120, Note_on_c, 0, 57, 0
3, 537120, Note_on_c, 0, 64, 0
3, 537120, Note_on_c, 0, 50, 51
3, 537120, Note_on_c, 0, 57, 51
3, 537120, Note_on_c, 0, 62, 51
3, 537120, Note_on_c, 0, 35, 55
3, 537120, Note_on_c, 0, 47, 55
3, 537480, Note_on_c, 0, 47, 0
3, 537480, Note_on_c, 0, 62, 0
3, 537480, Note_on_c, 0, 50, 0
3, 537480, Note_on_c, 0, 57, 0
3, 537480, Note_on_c, 0, 35, 0
3, 537480, Note_on_c, 0, 52, 61
3, 537480, Note_on_c, 0, 56, 61
3, 537480, Note_on_c, 0, 62, 61
3, 537480, Note_on_c, 0, 40, 42
3, 537840, Note_on_c, 0, 40, 0
3, 537840, Note_on_c, 0, 52, 0
3, 537840, Note_on_c, 0, 56, 0
3, 537840, Note_on_c, 0, 62, 0
3, 537840, Note_on_c, 0, 52, 59
3, 537840, Note_on_c, 0, 55, 59
3, 537840, Note_on_c, 0, 60, 59
3, 537840, Note_on_c, 0, 33, 56
3, 537840, Note_on_c, 0, 45, 56
3, 538200, Note_on_c, 0, 45, 0
3, 538200, Note_on_c, 0, 60, 0
3, 538200, Note_on_c, 0, 52, 0
3, 538200, Note_on_c, 0, 55, 0
3, 538200, Note_on_c, 0, 33, 0
3, 538200, Note_on_c, 0, 54, 65
3, 538200, Note_on_c, 0, 60, 65
3, 538200, Note_on_c, 0, 62, 65
3, 538200, Note_on_c, 0, 38, 58
3, 538200, Note_on_c, 0, 50, 58
3, 538379, Note_on_c, 0, 50, 0
3, 538379, Note_on_c, 0, 62, 0
3, 538379, Note_on_c, 0, 54, 0
3, 538379, Note_on_c, 0, 60, 0
3, 538379, Note_on_c, 0, 38, 0
3, 538560, Note_on_c, 0, 55, 62
3, 538560, Note_on_c, 0, 59, 62
3, 538560, Note_on_c, 0, 62, 62
3, 538560, Note_on_c, 0, 31, 45
3, 538560, Note_on_c, 0, 43, 45
3, 538680, Note_on_c, 0, 62, 0
3, 538680, Note_on_c, 0, 55, 0
3, 538680, Note_on_c, 0, 59, 0
3, 538680, Note_on_c, 0, 57, 59
3, 538739, Note_on_c, 0, 31, 0
3, 538739, Note_on_c, 0, 43, 0
3, 538799, Note_on_c, 0, 57, 0
3, 538799, Note_on_c, 0, 58, 60
3, 538920, Note_on_c, 0, 58, 0
3, 538920, Note_on_c, 0, 59, 68
3, 539159, Note_on_c, 0, 59, 0
3, 539159, Note_on_c, 0, 57, 59
3, 539280, Note_on_c, 0, 57, 0
3, 539280, Note_on_c, 0, 55, 58
3, 539519, Note_on_c, 0, 55, 0
3, 539519, Note_on_c, 0, 54, 66
3, 539640, Note_on_c, 0, 54, 0
3, 539640, Note_on_c, 0, 52, 56
3, 539879, Note_on_c, 0, 52, 0
3, 539879, Note_on_c, 0, 50, 61
3, 540000, Note_on_c, 0, 50, 0
3, 540000, Note_on_c, 0, 48, 57
3, 540360, Note_on_c, 0, 48, 0
3, 540360, Note_on_c, 0, 59, 96
3, 540360, Note_on_c, 0, 47, 67
3, 540720, Note_on_c, 0, 47, 0
3, 540720, Note_on_c, 0, 59, 0
3, 540720, Note_on_c, 0, 57, 81
3, 540720, Note_on_c, 0, 45, 76
3, 541080, Note_on_c, 0, 45, 0
3, 541080, Note_on_c, 0, 57, 0
3, 541080, Note_on_c, 0, 55, 82
3, 541080, Note_on_c, 0, 43, 70
3, 541440, Note_on_c, 0, 43, 0
3, 541440, Note_on_c, 0, 55, 0
3, 541440, Note_on_c, 0, 54, 41
3, 541440, Note_on_c, 0, 42, 49
3, 541800, Note_on_c, 0, 42, 0
3, 543240, Note_on_c, 0, 59, 35
3, 543240, Note_on_c, 0, 35, 34
3, 543240, Note_on_c, 0, 47, 34
3, 543419, Note_on_c, 0, 47, 0
3, 543419, Note_on_c, 0, 35, 0
3, 543419, Note_on_c, 0, 59, 0
3, 543600, Note_on_c, 0, 57, 39
3, 543600, Note_on_c, 0, 40, 48
3, 543600, Note_on_c, 0, 52, 48
3, 543779, Note_on_c, 0, 52, 0
3, 543779, Note_on_c, 0, 40, 0
3, 543779, Note_on_c, 0, 57, 0
3, 543960, Note_on_c, 0, 55, 41
3, 543960, Note_on_c, 0, 37, 43
3, 543960, Note_on_c, 0, 49, 43
3, 544139, Note_on_c, 0, 49, 0
3, 544139, Note_on_c, 0, 37, 0
3, 544139, Note_on_c, 0, 55, 0
3, 544320, Note_on_c, 0, 54, 0
3, 544320, Note_on_c, 0, 54, 46
3, 544320, Note_on_c, 0, 54, 46
3, 544320, Note_on_c, 0, 42, 39
3, 544499, Note_on_c, 0, 54, 0
3, 544680, Note_on_c, 0, 42, 0
3, 544680, Note_on_c, 0, 49, 40
3, 544800, Note_on_c, 0, 49, 0
3, 544800, Note_on_c, 0, 50, 46
3, 544919, Note_on_c, 0, 50, 0
3, 544919, Note_on_c, 0, 52, 44
3, 545040, Note_on_c, 0, 52, 0
3, 545040, Note_on_c, 0, 54, 0
3, 545040, Note_on_c, 0, 54, 50
3, 545760, Note_on_c, 0, 30, 34
3, 545880, Note_on_c, 0, 30, 0
3, 545880, Note_on_c, 0, 42, 54
3, 545999, Note_on_c, 0, 42, 0
3, 545999, Note_on_c, 0, 30, 41
3, 546058, Note_on_c, 0, 30, 0
3, 546120, Note_on_c, 0, 47, 35
3, 546120, Note_on_c, 0, 35, 52
3, 546299, Note_on_c, 0, 47, 0
3, 546480, Note_on_c, 0, 35, 0
3, 546480, Note_on_c, 0, 52, 52
3, 546480, Note_on_c, 0, 40, 56
3, 546659, Note_on_c, 0, 52, 0
3, 546840, Note_on_c, 0, 40, 0
3, 546840, Note_on_c, 0, 49, 50
3, 546840, Note_on_c, 0, 37, 40
3, 547019, Note_on_c, 0, 49, 0
3, 547200, Note_on_c, 0, 37, 0
3, 547200, Note_on_c, 0, 42, 50
3, 547560, Note_on_c, 0, 42, 0
3, 548280, Note_on_c, 0, 35, 40
3, 548280, Note_on_c, 0, 47, 40
3, 548640, Note_on_c, 0, 47, 0
3, 548640, Note_on_c, 0, 35, 0
3, 548640, Note_on_c, 0, 40, 50
3, 548640, Note_on_c, 0, 52, 50
3, 549000, Note_on_c, 0, 52, 0
3, 549000, Note_on_c, 0, 40, 0
3, 549000, Note_on_c, 0, 59, 33
3, 549179, Note_on_c, 0, 59, 0
3, 549360, Note_on_c, 0, 57, 41
3, 549539, Note_on_c, 0, 57, 0
3, 549720, Note_on_c, 0, 55, 42
3, 549720, Note_on_c, 0, 33, 40
3, 549720, Note_on_c, 0, 45, 40
3, 549899, Note_on_c, 0, 55, 0
3, 550080, Note_on_c, 0, 54, 0
3, 550080, Note_on_c, 0, 33, 0
3, 550080, Note_on_c, 0, 45, 0
3, 550080, Note_on_c, 0, 54, 44
3, 550080, Note_on_c, 0, 54, 46
3, 550080, Note_on_c, 0, 38, 43
3, 550080, Note_on_c, 0, 50, 43
3, 550440, Note_on_c, 0, 50, 0
3, 550440, Note_on_c, 0, 38, 0
3, 550440, Note_on_c, 0, 54, 0
3, 550758, Note_on_c, 0, 54, 47
3, 550800, Note_on_c, 0, 54, 0
3, 550800, Note_on_c, 0, 54, 0
3, 550800, Note_on_c, 0, 54, 47
3, 551880, Note_on_c, 0, 32, 40
3, 551880, Note_on_c, 0, 44, 40
3, 552240, Note_on_c, 0, 44, 0
3, 552240, Note_on_c, 0, 32, 0
3, 552240, Note_on_c, 0, 38, 48
3, 552240, Note_on_c, 0, 50, 48
3, 552600, Note_on_c, 0, 50, 0
3, 552600, Note_on_c, 0, 38, 0
3, 552600, Note_on_c, 0, 33, 40
3, 552600, Note_on_c, 0, 45, 40
3, 552960, Note_on_c, 0, 45, 0
3, 552960, Note_on_c, 0, 33, 0
3, 552960, Note_on_c, 0, 38, 50
3, 552960, Note_on_c, 0, 50, 50
3, 553320, Note_on_c, 0, 50, 0
3, 553320, Note_on_c, 0, 38, 0
3, 554639, Note_on_c, 0, 57, 38
3, 554760, Note_on_c, 0, 57, 0
3, 554760, Note_on_c, 0, 56, 43
3, 554760, Note_on_c, 0, 32, 41
3, 554760, Note_on_c, 0, 44, 41
3, 554999, Note_on_c, 0, 56, 0
3, 554999, Note_on_c, 0, 55, 45
3, 555120, Note_on_c, 0, 55, 0
3, 555120, Note_on_c, 0, 44, 0
3, 555120, Note_on_c, 0, 32, 0
3, 555120, Note_on_c, 0, 54, 0
3, 555120, Note_on_c, 0, 54, 43
3, 555120, Note_on_c, 0, 38, 49
3, 555120, Note_on_c, 0, 50, 49
3, 555480, Note_on_c, 0, 50, 0
3, 555480, Note_on_c, 0, 38, 0
3, 555480, Note_on_c, 0, 33, 41
3, 555480, Note_on_c, 0, 45, 41
3, 555840, Note_on_c, 0, 45, 0
3, 555840, Note_on_c, 0, 33, 0
3, 555840, Note_on_c, 0, 38, 51
3, 555840, Note_on_c, 0, 50, 51
3, 556200, Note_on_c, 0, 50, 0
3, 556200, Note_on_c, 0, 38, 0
3, 556920, Note_on_c, 0, 32, 38
3, 556920, Note_on_c, 0, 44, 38
3, 557280, Note_on_c, 0, 44, 0
3, 557280, Note_on_c, 0, 32, 0
3, 557280, Note_on_c, 0, 37, 47
3, 557280, Note_on_c, 0, 49, 47
3, 557640, Note_on_c, 0, 49, 0
3, 557640, Note_on_c, 0, 37, 0
3, 558360, Note_on_c, 0, 30, 45
3, 558360, Note_on_c, 0, 42, 45
3, 558720, Note_on_c, 0, 42, 0
3, 558720, Note_on_c, 0, 30, 0
3, 558720, Note_on_c, 0, 54, 0
3, 558720, Note_on_c, 0, 47, 50
3, 558720, Note_on_c, 0, 54, 50
3, 558720, Note_on_c, 0, 59, 50
3, 558720, Note_on_c, 0, 35, 40
3, 559080, Note_on_c, 0, 35, 0
3, 559080, Note_on_c, 0, 37, 48
3, 559200, Note_on_c, 0, 37, 0
3, 559200, Note_on_c, 0, 38, 46
3, 559319, Note_on_c, 0, 38, 0
3, 559319, Note_on_c, 0, 40, 49
3, 559440, Note_on_c, 0, 40, 0
3, 559440, Note_on_c, 0, 42, 52
3, 559679, Note_on_c, 0, 42, 0
3, 559679, Note_on_c, 0, 40, 39
3, 559800, Note_on_c, 0, 40, 0
3, 559800, Note_on_c, 0, 38, 45
3, 560039, Note_on_c, 0, 38, 0
3, 560039, Note_on_c, 0, 37, 46
3, 560160, Note_on_c, 0, 37, 0
3, 560160, Note_on_c, 0, 35, 42
3, 560520, Note_on_c, 0, 35, 0
3, 560520, Note_on_c, 0, 47, 0
3, 560520, Note_on_c, 0, 54, 0
3, 560520, Note_on_c, 0, 59, 0
3, 560520, Note_on_c, 0, 54, 50
3, 560520, Note_on_c, 0, 61, 50
3, 560520, Note_on_c, 0, 42, 54
3, 560699, Note_on_c, 0, 42, 0
3, 560699, Note_on_c, 0, 61, 0
3, 560699, Note_on_c, 0, 54, 0
3, 560880, Note_on_c, 0, 54, 45
3, 560880, Note_on_c, 0, 59, 45
3, 560880, Note_on_c, 0, 47, 53
3, 561059, Note_on_c, 0, 47, 0
3, 561059, Note_on_c, 0, 59, 0
3, 561059, Note_on_c, 0, 54, 0
3, 561240, Note_on_c, 0, 54, 47
3, 561240, Note_on_c, 0, 61, 47
3, 561240, Note_on_c, 0, 42, 43
3, 561419, Note_on_c, 0, 42, 0
3, 561419, Note_on_c, 0, 61, 0
3, 561419, Note_on_c, 0, 54, 0
3, 561600, Note_on_c, 0, 47, 54
3, 561600, Note_on_c, 0, 54, 54
3, 561600, Note_on_c, 0, 59, 54
3, 561960, Note_on_c, 0, 37, 34
3, 562050, Note_on_c, 0, 37, 0
3, 562050, Note_on_c, 0, 38, 44
3, 562140, Note_on_c, 0, 38, 0
3, 562140, Note_on_c, 0, 40, 44
3, 562230, Note_on_c, 0, 40, 0
3, 562230, Note_on_c, 0, 41, 45
3, 562320, Note_on_c, 0, 41, 0
3, 562320, Note_on_c, 0, 42, 45
3, 562559, Note_on_c, 0, 42, 0
3, 562559, Note_on_c, 0, 40, 48
3, 562680, Note_on_c, 0, 40, 0
3, 562680, Note_on_c, 0, 38, 39
3, 562919, Note_on_c, 0, 38, 0
3, 562919, Note_on_c, 0, 37, 45
3, 563040, Note_on_c, 0, 37, 0
3, 563040, Note_on_c, 0, 35, 48
3, 563400, Note_on_c, 0, 35, 0
3, 563400, Note_on_c, 0, 47, 0
3, 563400, Note_on_c, 0, 54, 0
3, 563400, Note_on_c, 0, 59, 0
3, 563400, Note_on_c, 0, 54, 45
3, 563400, Note_on_c, 0, 61, 45
3, 563400, Note_on_c, 0, 42, 52
3, 563579, Note_on_c, 0, 42, 0
3, 563579, Note_on_c, 0, 61, 0
3, 563579, Note_on_c, 0, 54, 0
3, 563760, Note_on_c, 0, 54, 43
3, 563760, Note_on_c, 0, 59, 43
3, 563760, Note_on_c, 0, 47, 54
3, 563939, Note_on_c, 0, 47, 0
3, 563939, Note_on_c, 0, 59, 0
3, 563939, Note_on_c, 0, 54, 0
3, 564120, Note_on_c, 0, 54, 52
3, 564120, Note_on_c, 0, 61, 52
3, 564120, Note_on_c, 0, 42, 42
3, 564299, Note_on_c, 0, 42, 0
3, 564299, Note_on_c, 0, 61, 0
3, 564299, Note_on_c, 0, 54, 0
3, 564480, Note_on_c, 0, 54, 43
3, 564480, Note_on_c, 0, 59, 43
3, 564480, Note_on_c, 0, 47, 48
3, 564659, Note_on_c, 0, 47, 0
3, 564659, Note_on_c, 0, 59, 0
3, 564659, Note_on_c, 0, 54, 0
3, 564840, Note_on_c, 0, 55, 51
3, 564840, Note_on_c, 0, 57, 51
3, 564840, Note_on_c, 0, 61, 51
3, 564840, Note_on_c, 0, 45, 44
3, 565019, Note_on_c, 0, 45, 0
3, 565019, Note_on_c, 0, 55, 0
3, 565019, Note_on_c, 0, 57, 0
3, 565019, Note_on_c, 0, 61, 0
3, 565200, Note_on_c, 0, 54, 49
3, 565200, Note_on_c, 0, 57, 49
3, 565200, Note_on_c, 0, 62, 49
3, 565200, Note_on_c, 0, 38, 43
3, 566280, Note_on_c, 0, 38, 0
3, 566280, Note_on_c, 0, 54, 0
3, 566280, Note_on_c, 0, 57, 0
3, 566280, Note_on_c, 0, 62, 0
3, 566280, Note_on_c, 0, 54, 43
3, 566280, Note_on_c, 0, 61, 43
3, 566280, Note_on_c, 0, 42, 47
3, 566459, Note_on_c, 0, 42, 0
3, 566459, Note_on_c, 0, 61, 0
3, 566459, Note_on_c, 0, 54, 0
3, 566640, Note_on_c, 0, 54, 40
3, 566640, Note_on_c, 0, 59, 40
3, 566640, Note_on_c, 0, 47, 49
3, 566819, Note_on_c, 0, 47, 0
3, 566819, Note_on_c, 0, 59, 0
3, 566819, Note_on_c, 0, 54, 0
3, 567000, Note_on_c, 0, 54, 48
3, 567000, Note_on_c, 0, 61, 48
3, 567000, Note_on_c, 0, 49, 51
3, 567000, Note_on_c, 0, 42, 66
3, 567120, Note_on_c, 0, 49, 0
3, 567120, Note_on_c, 0, 50, 49
3, 567179, Note_on_c, 0, 54, 0
3, 567179, Note_on_c, 0, 61, 0
3, 567239, Note_on_c, 0, 50, 0
3, 567239, Note_on_c, 0, 52, 49
3, 567360, Note_on_c, 0, 52, 0
3, 567360, Note_on_c, 0, 42, 0
3, 567360, Note_on_c, 0, 54, 57
3, 567360, Note_on_c, 0, 59, 57
3, 567360, Note_on_c, 0, 47, 40
3, 567539, Note_on_c, 0, 47, 0
3, 567629, Note_on_c, 0, 59, 0
3, 567629, Note_on_c, 0, 54, 0
3, 567720, Note_on_c, 0, 55, 47
3, 567720, Note_on_c, 0, 57, 47
3, 567720, Note_on_c, 0, 61, 47
3, 567720, Note_on_c, 0, 45, 39
3, 567899, Note_on_c, 0, 45, 0
3, 567899, Note_on_c, 0, 55, 0
3, 567899, Note_on_c, 0, 57, 0
3, 567899, Note_on_c, 0, 61, 0
3, 568080, Note_on_c, 0, 54, 53
3, 568080, Note_on_c, 0, 57, 53
3, 568080, Note_on_c, 0, 62, 53
3, 568080, Note_on_c, 0, 38, 41
3, 569160, Note_on_c, 0, 38, 0
3, 569160, Note_on_c, 0, 54, 0
3, 569160, Note_on_c, 0, 57, 0
3, 569160, Note_on_c, 0, 62, 0
3, 569160, Note_on_c, 0, 54, 41
3, 569160, Note_on_c, 0, 61, 41
3, 569160, Note_on_c, 0, 42, 50
3, 569339, Note_on_c, 0, 42, 0
3, 569339, Note_on_c, 0, 61, 0
3, 569339, Note_on_c, 0, 54, 0
3, 569520, Note_on_c, 0, 54, 38
3, 569520, Note_on_c, 0, 59, 38
3, 569520, Note_on_c, 0, 47, 55
3, 569699, Note_on_c, 0, 47, 0
3, 569699, Note_on_c, 0, 59, 0
3, 569699, Note_on_c, 0, 54, 0
3, 569880, Note_on_c, 0, 54, 43
3, 569880, Note_on_c, 0, 56, 43
3, 569880, Note_on_c, 0, 47, 43
3, 570059, Note_on_c, 0, 47, 0
3, 570059, Note_on_c, 0, 56, 0
3, 570059, Note_on_c, 0, 54, 0
3, 570240, Note_on_c, 0, 49, 68
3, 570240, Note_on_c, 0, 57, 68
3, 570240, Note_on_c, 0, 61, 68
3, 570240, Note_on_c, 0, 42, 38
3, 570600, Note_on_c, 0, 37, 55
3, 570720, Note_on_c, 0, 37, 0
3, 570720, Note_on_c, 0, 38, 62
3, 570839, Note_on_c, 0, 38, 0
3, 570839, Note_on_c, 0, 40, 67
3, 570960, Note_on_c, 0, 40, 0
3, 570960, Note_on_c, 0, 42, 0
3, 570960, Note_on_c, 0, 42, 43
3, 570960, Note_on_c, 0, 42, 62
3, 571199, Note_on_c, 0, 42, 0
3, 571199, Note_on_c, 0, 35, 58
3, 571320, Note_on_c, 0, 35, 0
3, 571320, Note_on_c, 0, 33, 55
3, 571559, Note_on_c, 0, 33, 0
3, 571559, Note_on_c, 0, 32, 58
3, 571680, Note_on_c, 0, 32, 0
3, 571680, Note_on_c, 0, 42, 0
3, 571680, Note_on_c, 0, 30, 30
3, 572040, Note_on_c, 0, 30, 0
3, 572040, Note_on_c, 0, 49, 0
3, 572040, Note_on_c, 0, 57, 0
3, 572040, Note_on_c, 0, 61, 0
3, 572040, Note_on_c, 0, 54, 49
3, 572040, Note_on_c, 0, 56, 49
3, 572040, Note_on_c, 0, 62, 49
3, 572040, Note_on_c, 0, 47, 55
3, 572219, Note_on_c, 0, 47, 0
3, 572219, Note_on_c, 0, 54, 0
3, 572219, Note_on_c, 0, 56, 0
3, 572219, Note_on_c, 0, 62, 0
3, 572400, Note_on_c, 0, 54, 47
3, 572400, Note_on_c, 0, 57, 47
3, 572400, Note_on_c, 0, 61, 47
3, 572400, Note_on_c, 0, 42, 40
3, 572579, Note_on_c, 0, 42, 0
3, 572579, Note_on_c, 0, 54, 0
3, 572579, Note_on_c, 0, 57, 0
3, 572579, Note_on_c, 0, 61, 0
3, 572760, Note_on_c, 0, 54, 48
3, 572760, Note_on_c, 0, 56, 48
3, 572760, Note_on_c, 0, 62, 48
3, 572760, Note_on_c, 0, 47, 46
3, 572939, Note_on_c, 0, 47, 0
3, 572939, Note_on_c, 0, 54, 0
3, 572939, Note_on_c, 0, 56, 0
3, 572939, Note_on_c, 0, 62, 0
3, 573120, Note_on_c, 0, 49, 54
3, 573120, Note_on_c, 0, 57, 54
3, 573120, Note_on_c, 0, 61, 54
3, 573120, Note_on_c, 0, 42, 43
3, 573480, Note_on_c, 0, 42, 0
3, 573480, Note_on_c, 0, 37, 36
3, 573570, Note_on_c, 0, 37, 0
3, 573570, Note_on_c, 0, 38, 47
3, 573660, Note_on_c, 0, 38, 0
3, 573660, Note_on_c, 0, 40, 47
3, 573750, Note_on_c, 0, 40, 0
3, 573750, Note_on_c, 0, 41, 44
3, 573840, Note_on_c, 0, 41, 0
3, 573840, Note_on_c, 0, 42, 45
3, 573840, Note_on_c, 0, 42, 70
3, 574079, Note_on_c, 0, 42, 0
3, 574079, Note_on_c, 0, 35, 38
3, 574200, Note_on_c, 0, 35, 0
3, 574200, Note_on_c, 0, 33, 45
3, 574439, Note_on_c, 0, 33, 0
3, 574439, Note_on_c, 0, 32, 39
3, 574560, Note_on_c, 0, 32, 0
3, 574560, Note_on_c, 0, 42, 0
3, 574560, Note_on_c, 0, 30, 47
3, 574920, Note_on_c, 0, 30, 0
3, 574920, Note_on_c, 0, 49, 0
3, 574920, Note_on_c, 0, 57, 0
3, 574920, Note_on_c, 0, 61, 0
3, 574920, Note_on_c, 0, 54, 51
3, 574920, Note_on_c, 0, 56, 51
3, 574920, Note_on_c, 0, 62, 51
3, 574920, Note_on_c, 0, 47, 54
3, 575099, Note_on_c, 0, 47, 0
3, 575099, Note_on_c, 0, 54, 0
3, 575099, Note_on_c, 0, 56, 0
3, 575099, Note_on_c, 0, 62, 0
3, 575280, Note_on_c, 0, 54, 41
3, 575280, Note_on_c, 0, 57, 41
3, 575280, Note_on_c, 0, 61, 41
3, 575280, Note_on_c, 0, 42, 43
3, 575459, Note_on_c, 0, 42, 0
3, 575459, Note_on_c, 0, 54, 0
3, 575459, Note_on_c, 0, 57, 0
3, 575459, Note_on_c, 0, 61, 0
3, 575640, Note_on_c, 0, 54, 49
3, 575640, Note_on_c, 0, 56, 49
3, 575640, Note_on_c, 0, 62, 49
3, 575640, Note_on_c, 0, 47, 49
3, 575819, Note_on_c, 0, 47, 0
3, 575819, Note_on_c, 0, 54, 0
3, 575819, Note_on_c, 0, 56, 0
3, 575819, Note_on_c, 0, 62, 0
3, 576000, Note_on_c, 0, 57, 48
3, 576000, Note_on_c, 0, 61, 48
3, 576000, Note_on_c, 0, 42, 45
3, 576000, Note_on_c, 0, 49, 45
3, 576179, Note_on_c, 0, 49, 0
3, 576179, Note_on_c, 0, 57, 0
3, 576179, Note_on_c, 0, 61, 0
3, 576179, Note_on_c, 0, 42, 0
3, 576360, Note_on_c, 0, 57, 42
3, 576360, Note_on_c, 0, 38, 51
3, 576360, Note_on_c, 0, 50, 51
3, 577080, Note_on_c, 0, 50, 0
3, 577080, Note_on_c, 0, 38, 0
3, 577080, Note_on_c, 0, 57, 0
3, 577080, Note_on_c, 0, 57, 64
3, 577080, Note_on_c, 0, 61, 64
3, 577080, Note_on_c, 0, 42, 59
3, 577080, Note_on_c, 0, 49, 59
3, 577800, Note_on_c, 0, 49, 0
3, 577800, Note_on_c, 0, 57, 0
3, 577800, Note_on_c, 0, 61, 0
3, 577800, Note_on_c, 0, 42, 0
3, 577800, Note_on_c, 0, 54, 47
3, 577800, Note_on_c, 0, 56, 47
3, 577800, Note_on_c, 0, 62, 47
3, 577800, Note_on_c, 0, 47, 44
3, 577979, Note_on_c, 0, 62, 0
3, 577979, Note_on_c, 0, 54, 0
3, 577979, Note_on_c, 0, 56, 0
3, 578160, Note_on_c, 0, 47, 0
3, 578160, Note_on_c, 0, 54, 40
3, 578160, Note_on_c, 0, 57, 40
3, 578160, Note_on_c, 0, 61, 40
3, 578160, Note_on_c, 0, 49, 45
3, 578160, Note_on_c, 0, 42, 64
3, 578280, Note_on_c, 0, 49, 0
3, 578280, Note_on_c, 0, 50, 45
3, 578339, Note_on_c, 0, 61, 0
3, 578339, Note_on_c, 0, 42, 0
3, 578339, Note_on_c, 0, 54, 0
3, 578339, Note_on_c, 0, 57, 0
3, 578399, Note_on_c, 0, 50, 0
3, 578399, Note_on_c, 0, 52, 46
3, 578520, Note_on_c, 0, 52, 0
3, 578520, Note_on_c, 0, 54, 48
3, 578520, Note_on_c, 0, 56, 48
3, 578520, Note_on_c, 0, 62, 48
3, 578520, Note_on_c, 0, 47, 45
3, 578699, Note_on_c, 0, 47, 0
3, 578699, Note_on_c, 0, 54, 0
3, 578699, Note_on_c, 0, 56, 0
3, 578699, Note_on_c, 0, 62, 0
3, 578880, Note_on_c, 0, 57, 41
3, 578880, Note_on_c, 0, 61, 41
3, 578880, Note_on_c, 0, 42, 47
3, 578880, Note_on_c, 0, 49, 47
3, 579059, Note_on_c, 0, 49, 0
3, 579059, Note_on_c, 0, 57, 0
3, 579059, Note_on_c, 0, 61, 0
3, 579059, Note_on_c, 0, 42, 0
3, 579240, Note_on_c, 0, 57, 37
3, 579240, Note_on_c, 0, 38, 47
3, 579240, Note_on_c, 0, 50, 47
3, 579960, Note_on_c, 0, 50, 0
3, 579960, Note_on_c, 0, 38, 0
3, 579960, Note_on_c, 0, 57, 0
3, 579960, Note_on_c, 0, 57, 66
3, 579960, Note_on_c, 0, 61, 66
3, 579960, Note_on_c, 0, 42, 56
3, 579960, Note_on_c, 0, 49, 56
3, 580680, Note_on_c, 0, 49, 0
3, 580680, Note_on_c, 0, 57, 0
3, 580680, Note_on_c, 0, 61, 0
3, 580680, Note_on_c, 0, 42, 0
3, 580680, Note_on_c, 0, 54, 48
3, 580680, Note_on_c, 0, 56, 48
3, 580680, Note_on_c, 0, 62, 48
3, 580680, Note_on_c, 0, 47, 42
3, 580859, Note_on_c, 0, 62, 0
3, 580859, Note_on_c, 0, 54, 0
3, 580859, Note_on_c, 0, 56, 0
3, 581040, Note_on_c, 0, 47, 0
3, 581040, Note_on_c, 0, 54, 39
3, 581040, Note_on_c, 0, 57, 39
3, 581040, Note_on_c, 0, 61, 39
3, 581040, Note_on_c, 0, 49, 46
3, 581040, Note_on_c, 0, 42, 60
3, 581160, Note_on_c, 0, 49, 0
3, 581160, Note_on_c, 0, 50, 51
3, 581219, Note_on_c, 0, 61, 0
3, 581219, Note_on_c, 0, 42, 0
3, 581219, Note_on_c, 0, 54, 0
3, 581219, Note_on_c, 0, 57, 0
3, 581279, Note_on_c, 0, 50, 0
3, 581279, Note_on_c, 0, 52, 48
3, 581400, Note_on_c, 0, 52, 0
3, 581400, Note_on_c, 0, 54, 39
3, 581400, Note_on_c, 0, 57, 39
3, 581400, Note_on_c, 0, 61, 39
3, 581400, Note_on_c, 0, 42, 37
3, 581579, Note_on_c, 0, 42, 0
3, 581579, Note_on_c, 0, 54, 0
3, 581579, Note_on_c, 0, 57, 0
3, 581579, Note_on_c, 0, 61, 0
3, 581760, Note_on_c, 0, 54, 40
3, 581760, Note_on_c, 0, 57, 40
3, 581760, Note_on_c, 0, 38, 49
3, 581760, Note_on_c, 0, 50, 49
3, 582480, Note_on_c, 0, 64, 40
3, 582840, Note_on_c, 0, 64, 0
3, 582840, Note_on_c, 0, 63, 42
3, 583200, Note_on_c, 0, 63, 0
3, 583200, Note_on_c, 0, 57, 0
3, 583200, Note_on_c, 0, 59, 41
3, 583200, Note_on_c, 0, 62, 41
3, 583560, Note_on_c, 0, 62, 0
3, 583560, Note_on_c, 0, 54, 0
3, 583560, Note_on_c, 0, 59, 0
3, 583560, Note_on_c, 0, 60, 39
3, 583560, Note_on_c, 0, 55, 50
3, 583619, Note_on_c, 0, 55, 0
3, 583680, Note_on_c, 0, 53, 40
3, 583739, Note_on_c, 0, 53, 0
3, 583799, Note_on_c, 0, 54, 45
3, 583858, Note_on_c, 0, 54, 0
3, 583920, Note_on_c, 0, 60, 0
3, 583920, Note_on_c, 0, 61, 48
3, 583920, Note_on_c, 0, 55, 44
3, 583979, Note_on_c, 0, 55, 0
3, 584040, Note_on_c, 0, 53, 43
3, 584099, Note_on_c, 0, 53, 0
3, 584159, Note_on_c, 0, 54, 50
3, 584218, Note_on_c, 0, 54, 0
3, 584280, Note_on_c, 0, 61, 0
3, 584280, Note_on_c, 0, 60, 44
3, 584280, Note_on_c, 0, 55, 48
3, 584339, Note_on_c, 0, 55, 0
3, 584400, Note_on_c, 0, 54, 45
3, 584459, Note_on_c, 0, 54, 0
3, 584519, Note_on_c, 0, 53, 45
3, 584578, Note_on_c, 0, 53, 0
3, 584640, Note_on_c, 0, 50, 0
3, 584640, Note_on_c, 0, 38, 0
3, 584640, Note_on_c, 0, 60, 0
3, 584640, Note_on_c, 0, 59, 50
3, 584640, Note_on_c, 0, 62, 50
3, 584640, Note_on_c, 0, 54, 47
3, 584640, Note_on_c, 0, 35, 45
3, 584640, Note_on_c, 0, 47, 45
3, 585000, Note_on_c, 0, 62, 0
3, 585000, Note_on_c, 0, 59, 0
3, 585000, Note_on_c, 0, 63, 50
3, 585360, Note_on_c, 0, 63, 0
3, 585360, Note_on_c, 0, 62, 44
3, 585720, Note_on_c, 0, 61, 63
3, 586080, Note_on_c, 0, 61, 0
3, 586080, Note_on_c, 0, 62, 0
3, 586080, Note_on_c, 0, 62, 51
3, 586080, Note_on_c, 0, 60, 46
3, 586139, Note_on_c, 0, 60, 0
3, 586200, Note_on_c, 0, 57, 48
3, 586259, Note_on_c, 0, 57, 0
3, 586319, Note_on_c, 0, 58, 55
3, 586378, Note_on_c, 0, 58, 0
3, 586440, Note_on_c, 0, 59, 54
3, 587160, Note_on_c, 0, 59, 0
3, 587160, Note_on_c, 0, 62, 0
3, 587160, Note_on_c, 0, 59, 40
3, 587160, Note_on_c, 0, 62, 40
3, 587520, Note_on_c, 0, 62, 0
3, 587520, Note_on_c, 0, 47, 0
3, 587520, Note_on_c, 0, 35, 0
3, 587520, Note_on_c, 0, 54, 0
3, 587520, Note_on_c, 0, 59, 0
3, 587520, Note_on_c, 0, 54, 56
3, 587520, Note_on_c, 0, 58, 56
3, 587520, Note_on_c, 0, 61, 56
3, 587520, Note_on_c, 0, 42, 35
3, 587880, Note_on_c, 0, 42, 0
3, 587880, Note_on_c, 0, 37, 37
3, 588000, Note_on_c, 0, 37, 0
3, 588000, Note_on_c, 0, 39, 50
3, 588119, Note_on_c, 0, 39, 0
3, 588119, Note_on_c, 0, 41, 47
3, 588240, Note_on_c, 0, 41, 0
3, 588240, Note_on_c, 0, 42, 42
3, 588600, Note_on_c, 0, 42, 0
3, 588600, Note_on_c, 0, 37, 40
3, 588779, Note_on_c, 0, 37, 0
3, 588960, Note_on_c, 0, 30, 51
3, 588960, Note_on_c, 0, 42, 51
3, 589139, Note_on_c, 0, 42, 0
3, 589139, Note_on_c, 0, 30, 0
3, 589320, Note_on_c, 0, 54, 0
3, 589320, Note_on_c, 0, 58, 0
3, 589320, Note_on_c, 0, 61, 0
3, 589320, Note_on_c, 0, 54, 51
3, 589320, Note_on_c, 0, 58, 51
3, 589320, Note_on_c, 0, 63, 51
3, 589320, Note_on_c, 0, 42, 51
3, 589499, Note_on_c, 0, 42, 0
3, 589499, Note_on_c, 0, 54, 0
3, 589499, Note_on_c, 0, 58, 0
3, 589499, Note_on_c, 0, 63, 0
3, 589680, Note_on_c, 0, 54, 45
3, 589680, Note_on_c, 0, 58, 45
3, 589680, Note_on_c, 0, 61, 45
3, 589680, Note_on_c, 0, 42, 46
3, 589859, Note_on_c, 0, 42, 0
3, 589859, Note_on_c, 0, 54, 0
3, 589859, Note_on_c, 0, 58, 0
3, 589859, Note_on_c, 0, 61, 0
3, 590040, Note_on_c, 0, 54, 54
3, 590040, Note_on_c, 0, 58, 54
3, 590040, Note_on_c, 0, 63, 54
3, 590040, Note_on_c, 0, 42, 45
3, 590219, Note_on_c, 0, 42, 0
3, 590219, Note_on_c, 0, 54, 0
3, 590219, Note_on_c, 0, 58, 0
3, 590219, Note_on_c, 0, 63, 0
3, 590400, Note_on_c, 0, 54, 45
3, 590400, Note_on_c, 0, 58, 45
3, 590400, Note_on_c, 0, 61, 45
3, 590400, Note_on_c, 0, 42, 44
3, 590579, Note_on_c, 0, 42, 0
3, 590760, Note_on_c, 0, 37, 38
3, 590880, Note_on_c, 0, 37, 0
3, 590880, Note_on_c, 0, 39, 45
3, 590999, Note_on_c, 0, 39, 0
3, 590999, Note_on_c, 0, 41, 50
3, 591120, Note_on_c, 0, 41, 0
3, 591120, Note_on_c, 0, 42, 45
3, 591480, Note_on_c, 0, 42, 0
3, 591480, Note_on_c, 0, 37, 43
3, 591659, Note_on_c, 0, 37, 0
3, 591840, Note_on_c, 0, 30, 48
3, 591840, Note_on_c, 0, 42, 48
3, 592019, Note_on_c, 0, 42, 0
3, 592019, Note_on_c, 0, 30, 0
3, 592200, Note_on_c, 0, 54, 0
3, 592200, Note_on_c, 0, 58, 0
3, 592200, Note_on_c, 0, 61, 0
3, 592200, Note_on_c, 0, 54, 51
3, 592200, Note_on_c, 0, 58, 51
3, 592200, Note_on_c, 0, 63, 51
3, 592200, Note_on_c, 0, 42, 44
3, 592379, Note_on_c, 0, 42, 0
3, 592560, Note_on_c, 0, 54, 0
3, 592560, Note_on_c, 0, 58, 0
3, 592560, Note_on_c, 0, 63, 0
3, 592560, Note_on_c, 0, 54, 40
3, 592560, Note_on_c, 0, 58, 40
3, 592560, Note_on_c, 0, 61, 40
3, 592560, Note_on_c, 0, 42, 45
3, 592739, Note_on_c, 0, 42, 0
3, 592920, Note_on_c, 0, 54, 0
3, 592920, Note_on_c, 0, 58, 0
3, 592920, Note_on_c, 0, 61, 0
3, 592920, Note_on_c, 0, 54, 46
3, 592920, Note_on_c, 0, 58, 46
3, 592920, Note_on_c, 0, 63, 46
3, 592920, Note_on_c, 0, 42, 45
3, 593099, Note_on_c, 0, 42, 0
3, 593280, Note_on_c, 0, 54, 0
3, 593280, Note_on_c, 0, 58, 0
3, 593280, Note_on_c, 0, 63, 0
3, 593280, Note_on_c, 0, 54, 47
3, 593280, Note_on_c, 0, 58, 47
3, 593280, Note_on_c, 0, 61, 47
3, 593280, Note_on_c, 0, 42, 51
3, 596160, Note_on_c, 0, 42, 0
3, 596160, Note_on_c, 0, 54, 0
3, 596160, Note_on_c, 0, 58, 0
3, 596160, Note_on_c, 0, 61, 0
3, 596520, Note_on_c, 0, 54, 50
3, 596520, Note_on_c, 0, 42, 52
3, 596700, Note_on_c, 0, 42, 0
3, 596700, Note_on_c, 0, 54, 0
3, 596700, Note_on_c, 0, 64, 51
3, 596700, Note_on_c, 0, 52, 55
3, 596880, Note_on_c, 0, 52, 0
3, 596880, Note_on_c, 0, 64, 0
3, 596880, Note_on_c, 0, 66, 53
3, 596880, Note_on_c, 0, 54, 58
3, 597354, Note_on_c, 0, 54, 0
3, 597354, Note_on_c, 0, 66, 0
3, 597420, Note_on_c, 0, 63, 59
3, 597420, Note_on_c, 0, 51, 68
3, 597600, Note_on_c, 0, 51, 0
3, 597600, Note_on_c, 0, 63, 0
3, 597600, Note_on_c, 0, 64, 61
3, 597600, Note_on_c, 0, 52, 71
3, 598140, Note_on_c, 0, 52, 0
3, 598140, Note_on_c, 0, 64, 0
3, 598140, Note_on_c, 0, 61, 67
3, 598140, Note_on_c, 0, 49, 66
3, 598320, Note_on_c, 0, 49, 0
3, 598320, Note_on_c, 0, 61, 0
3, 598320, Note_on_c, 0, 63, 69
3, 598320, Note_on_c, 0, 51, 85
3, 598637, Note_on_c, 0, 51, 0
3, 598637, Note_on_c, 0, 63, 0
3, 598680, Note_on_c, 0, 57, 90
3, 598680, Note_on_c, 0, 63, 90
3, 598680, Note_on_c, 0, 47, 86
3, 599040, Note_on_c, 0, 47, 0
3, 599040, Note_on_c, 0, 63, 0
3, 599040, Note_on_c, 0, 57, 0
3, 599040, Note_on_c, 0, 56, 90
3, 599040, Note_on_c, 0, 59, 90
3, 599040, Note_on_c, 0, 64, 90
3, 599040, Note_on_c, 0, 40, 90
3, 599040, Note_on_c, 0, 47, 90
3, 599040, Note_on_c, 0, 52, 90
3, 599400, Note_on_c, 0, 52, 0
3, 599400, Note_on_c, 0, 59, 0
3, 599400, Note_on_c, 0, 64, 0
3, 599400, Note_on_c, 0, 56, 0
3, 599400, Note_on_c, 0, 47, 0
3, 599400, Note_on_c, 0, 40, 0
3, 599400, Note_on_c, 0, 64, 93
3, 599760, Note_on_c, 0, 64, 0
3, 599760, Note_on_c, 0, 64, 88
3, 599760, Note_on_c, 0, 56, 77
3, 599760, Note_on_c, 0, 59, 77
3, 599760, Note_on_c, 0, 40, 83
3, 599760, Note_on_c, 0, 47, 83
3, 600359, Note_on_c, 0, 64, 0
3, 600359, Note_on_c, 0, 64, 87
3, 600480, Note_on_c, 0, 64, 0
3, 600480, Note_on_c, 0, 56, 0
3, 600480, Note_on_c, 0, 59, 0
3, 600480, Note_on_c, 0, 64, 91
3, 600600, Note_on_c, 0, 64, 0
3, 600600, Note_on_c, 0, 64, 88
3, 600719, Note_on_c, 0, 64, 0
3, 600719, Note_on_c, 0, 64, 92
3, 600840, Note_on_c, 0, 64, 0
3, 600840, Note_on_c, 0, 40, 0
3, 600840, Note_on_c, 0, 47, 0
3, 600840, Note_on_c, 0, 64, 87
3, 600840, Note_on_c, 0, 59, 97
3, 600960, Note_on_c, 0, 59, 0
3, 600960, Note_on_c, 0, 60, 95
3, 601079, Note_on_c, 0, 60, 0
3, 601079, Note_on_c, 0, 61, 96
3, 601200, Note_on_c, 0, 61, 0
3, 601200, Note_on_c, 0, 64, 0
3, 601200, Note_on_c, 0, 64, 86
3, 601200, Note_on_c, 0, 62, 102
3, 601439, Note_on_c, 0, 64, 0
3, 601439, Note_on_c, 0, 64, 98
3, 601439, Note_on_c, 0, 68, 98
3, 601560, Note_on_c, 0, 68, 0
3, 601560, Note_on_c, 0, 64, 0
3, 601560, Note_on_c, 0, 62, 0
3, 601560, Note_on_c, 0, 66, 94
3, 601560, Note_on_c, 0, 69, 94
3, 601560, Note_on_c, 0, 62, 102
3, 601920, Note_on_c, 0, 62, 0
3, 601920, Note_on_c, 0, 69, 0
3, 601920, Note_on_c, 0, 66, 0
3, 601920, Note_on_c, 0, 64, 73
3, 601920, Note_on_c, 0, 61, 84
3, 602099, Note_on_c, 0, 61, 0
3, 602159, Note_on_c, 0, 64, 0
3, 602159, Note_on_c, 0, 66, 96
3, 602280, Note_on_c, 0, 66, 0
3, 602280, Note_on_c, 0, 64, 94
3, 602280, Note_on_c, 0, 68, 94
3, 602280, Note_on_c, 0, 60, 81
3, 602459, Note_on_c, 0, 60, 0
3, 602640, Note_on_c, 0, 68, 0
3, 602640, Note_on_c, 0, 64, 0
3, 602640, Note_on_c, 0, 63, 78
3, 602640, Note_on_c, 0, 59, 86
3, 602819, Note_on_c, 0, 59, 0
3, 602879, Note_on_c, 0, 63, 0
3, 602879, Note_on_c, 0, 63, 81
3, 603000, Note_on_c, 0, 63, 0
3, 603000, Note_on_c, 0, 61, 90
3, 603000, Note_on_c, 0, 64, 90
3, 603000, Note_on_c, 0, 58, 83
3, 603179, Note_on_c, 0, 58, 0
3, 603360, Note_on_c, 0, 64, 0
3, 603360, Note_on_c, 0, 61, 0
3, 603360, Note_on_c, 0, 60, 87
3, 603360, Note_on_c, 0, 64, 87
3, 603360, Note_on_c, 0, 57, 87
3, 603539, Note_on_c, 0, 57, 0
3, 603599, Note_on_c, 0, 64, 0
3, 603599, Note_on_c, 0, 60, 0
3, 603599, Note_on_c, 0, 63, 84
3, 603720, Note_on_c, 0, 63, 0
3, 603720, Note_on_c, 0, 61, 82
3, 603720, Note_on_c, 0, 63, 82
3, 603720, Note_on_c, 0, 49, 77
3, 603720, Note_on_c, 0, 56, 77
3, 603899, Note_on_c, 0, 56, 0
3, 603899, Note_on_c, 0, 49, 0
3, 603959, Note_on_c, 0, 63, 0
3, 603959, Note_on_c, 0, 61, 0
3, 603959, Note_on_c, 0, 64, 94
3, 604080, Note_on_c, 0, 64, 0
3, 604080, Note_on_c, 0, 57, 89
3, 604080, Note_on_c, 0, 62, 89
3, 604080, Note_on_c, 0, 65, 89
3, 604080, Note_on_c, 0, 42, 82
3, 604080, Note_on_c, 0, 54, 82
3, 604319, Note_on_c, 0, 65, 0
3, 604319, Note_on_c, 0, 57, 0
3, 604319, Note_on_c, 0, 62, 0
3, 604319, Note_on_c, 0, 66, 91
3, 604440, Note_on_c, 0, 66, 0
3, 604440, Note_on_c, 0, 42, 0
3, 604440, Note_on_c, 0, 54, 0
3, 604440, Note_on_c, 0, 57, 88
3, 604440, Note_on_c, 0, 59, 88
3, 604440, Note_on_c, 0, 63, 88
3, 604440, Note_on_c, 0, 66, 88
3, 604440, Note_on_c, 0, 35, 76
3, 604440, Note_on_c, 0, 47, 76
3, 604800, Note_on_c, 0, 47, 0
3, 604800, Note_on_c, 0, 59, 0
3, 604800, Note_on_c, 0, 63, 0
3, 604800, Note_on_c, 0, 57, 0
3, 604800, Note_on_c, 0, 35, 0
3, 604800, Note_on_c, 0, 66, 0
3, 604800, Note_on_c, 0, 56, 82
3, 604800, Note_on_c, 0, 59, 82
3, 604800, Note_on_c, 0, 64, 82
3, 604800, Note_on_c, 0, 40, 97
3, 604800, Note_on_c, 0, 47, 97
3, 604800, Note_on_c, 0, 52, 97
3, 605160, Note_on_c, 0, 52, 0
3, 605160, Note_on_c, 0, 59, 0
3, 605160, Note_on_c, 0, 64, 0
3, 605160, Note_on_c, 0, 56, 0
3, 605160, Note_on_c, 0, 47, 0
3, 605160, Note_on_c, 0, 40, 0
3, 605160, Note_on_c, 0, 64, 88
3, 605520, Note_on_c, 0, 64, 0
3, 605520, Note_on_c, 0, 56, 78
3, 605520, Note_on_c, 0, 59, 78
3, 605520, Note_on_c, 0, 61, 78
3, 605520, Note_on_c, 0, 52, 65
3, 605520, Note_on_c, 0, 49, 89
3, 605520, Note_on_c, 0, 40, 85
3, 605759, Note_on_c, 0, 40, 0
3, 605759, Note_on_c, 0, 59, 0
3, 605759, Note_on_c, 0, 56, 0
3, 605759, Note_on_c, 0, 61, 0
3, 605759, Note_on_c, 0, 56, 86
3, 605759, Note_on_c, 0, 59, 86
3, 605759, Note_on_c, 0, 61, 86
3, 605759, Note_on_c, 0, 40, 86
3, 605880, Note_on_c, 0, 40, 0
3, 605880, Note_on_c, 0, 59, 0
3, 605880, Note_on_c, 0, 56, 0
3, 605880, Note_on_c, 0, 61, 0
3, 605880, Note_on_c, 0, 56, 87
3, 605880, Note_on_c, 0, 59, 87
3, 605880, Note_on_c, 0, 61, 87
3, 605880, Note_on_c, 0, 40, 89
3, 606119, Note_on_c, 0, 40, 0
3, 606119, Note_on_c, 0, 59, 0
3, 606119, Note_on_c, 0, 56, 0
3, 606119, Note_on_c, 0, 61, 0
3, 606119, Note_on_c, 0, 56, 88
3, 606119, Note_on_c, 0, 59, 88
3, 606119, Note_on_c, 0, 61, 88
3, 606119, Note_on_c, 0, 40, 84
3, 606240, Note_on_c, 0, 40, 0
3, 606240, Note_on_c, 0, 52, 0
3, 606240, Note_on_c, 0, 56, 0
3, 606240, Note_on_c, 0, 59, 0
3, 606240, Note_on_c, 0, 61, 0
3, 606240, Note_on_c, 0, 54, 86
3, 606240, Note_on_c, 0, 57, 86
3, 606240, Note_on_c, 0, 61, 86
3, 606240, Note_on_c, 0, 42, 95
3, 606873, Note_on_c, 0, 42, 0
3, 606873, Note_on_c, 0, 49, 0
3, 606960, Note_on_c, 0, 54, 0
3, 606960, Note_on_c, 0, 57, 0
3, 606960, Note_on_c, 0, 61, 0
3, 606960, Note_on_c, 0, 57, 95
3, 606960, Note_on_c, 0, 61, 95
3, 606960, Note_on_c, 0, 63, 95
3, 606960, Note_on_c, 0, 54, 76
3, 606960, Note_on_c, 0, 51, 98
3, 606960, Note_on_c, 0, 42, 89
3, 607199, Note_on_c, 0, 42, 0
3, 607199, Note_on_c, 0, 61, 0
3, 607199, Note_on_c, 0, 57, 0
3, 607199, Note_on_c, 0, 63, 0
3, 607199, Note_on_c, 0, 57, 87
3, 607199, Note_on_c, 0, 61, 87
3, 607199, Note_on_c, 0, 63, 87
3, 607199, Note_on_c, 0, 42, 85
3, 607320, Note_on_c, 0, 42, 0
3, 607320, Note_on_c, 0, 61, 0
3, 607320, Note_on_c, 0, 57, 0
3, 607320, Note_on_c, 0, 63, 0
3, 607320, Note_on_c, 0, 57, 88
3, 607320, Note_on_c, 0, 61, 88
3, 607320, Note_on_c, 0, 63, 88
3, 607320, Note_on_c, 0, 42, 83
3, 607559, Note_on_c, 0, 42, 0
3, 607559, Note_on_c, 0, 61, 0
3, 607559, Note_on_c, 0, 57, 0
3, 607559, Note_on_c, 0, 63, 0
3, 607559, Note_on_c, 0, 57, 88
3, 607559, Note_on_c, 0, 61, 88
3, 607559, Note_on_c, 0, 63, 88
3, 607559, Note_on_c, 0, 42, 87
3, 607680, Note_on_c, 0, 42, 0
3, 607680, Note_on_c, 0, 54, 0
3, 607680, Note_on_c, 0, 57, 0
3, 607680, Note_on_c, 0, 61, 0
3, 607680, Note_on_c, 0, 63, 0
3, 607680, Note_on_c, 0, 56, 90
3, 607680, Note_on_c, 0, 59, 90
3, 607680, Note_on_c, 0, 63, 90
3, 607680, Note_on_c, 0, 44, 98
3, 608313, Note_on_c, 0, 44, 0
3, 608313, Note_on_c, 0, 51, 0
3, 608400, Note_on_c, 0, 56, 0
3, 608400, Note_on_c, 0, 59, 0
3, 608400, Note_on_c, 0, 63, 0
3, 608400, Note_on_c, 0, 59, 91
3, 608400, Note_on_c, 0, 63, 91
3, 608400, Note_on_c, 0, 64, 91
3, 608400, Note_on_c, 0, 56, 73
3, 608400, Note_on_c, 0, 52, 102
3, 608400, Note_on_c, 0, 44, 88
3, 608639, Note_on_c, 0, 44, 0
3, 608639, Note_on_c, 0, 63, 0
3, 608639, Note_on_c, 0, 59, 0
3, 608639, Note_on_c, 0, 64, 0
3, 608639, Note_on_c, 0, 59, 91
3, 608639, Note_on_c, 0, 63, 91
3, 608639, Note_on_c, 0, 64, 91
3, 608639, Note_on_c, 0, 44, 89
3, 608760, Note_on_c, 0, 44, 0
3, 608760, Note_on_c, 0, 63, 0
3, 608760, Note_on_c, 0, 59, 0
3, 608760, Note_on_c, 0, 64, 0
3, 608760, Note_on_c, 0, 59, 87
3, 608760, Note_on_c, 0, 63, 87
3, 608760, Note_on_c, 0, 64, 87
3, 608760, Note_on_c, 0, 44, 89
3, 608999, Note_on_c, 0, 44, 0
3, 608999, Note_on_c, 0, 63, 0
3, 608999, Note_on_c, 0, 59, 0
3, 608999, Note_on_c, 0, 64, 0
3, 608999, Note_on_c, 0, 59, 84
3, 608999, Note_on_c, 0, 63, 84
3, 608999, Note_on_c, 0, 64, 84
3, 608999, Note_on_c, 0, 44, 84
3, 609120, Note_on_c, 0, 44, 0
3, 609120, Note_on_c, 0, 56, 0
3, 609120, Note_on_c, 0, 59, 0
3, 609120, Note_on_c, 0, 63, 0
3, 609120, Note_on_c, 0, 64, 0
3, 609120, Note_on_c, 0, 57, 83
3, 609120, Note_on_c, 0, 61, 83
3, 609120, Note_on_c, 0, 64, 83
3, 609120, Note_on_c, 0, 45, 85
3, 609359, Note_on_c, 0, 45, 0
3, 609359, Note_on_c, 0, 52, 0
3, 609359, Note_on_c, 0, 45, 77
3, 609480, Note_on_c, 0, 45, 0
3, 609480, Note_on_c, 0, 64, 0
3, 609480, Note_on_c, 0, 61, 0
3, 609480, Note_on_c, 0, 57, 0
3, 609480, Note_on_c, 0, 54, 88
3, 609480, Note_on_c, 0, 61, 88
3, 609480, Note_on_c, 0, 64, 88
3, 609480, Note_on_c, 0, 46, 89
3, 609719, Note_on_c, 0, 46, 0
3, 609719, Note_on_c, 0, 46, 86
3, 609840, Note_on_c, 0, 46, 0
3, 609840, Note_on_c, 0, 64, 0
3, 609840, Note_on_c, 0, 61, 0
3, 609840, Note_on_c, 0, 54, 0
3, 609840, Note_on_c, 0, 54, 88
3, 609840, Note_on_c, 0, 61, 88
3, 609840, Note_on_c, 0, 64, 88
3, 609840, Note_on_c, 0, 47, 89
3, 610079, Note_on_c, 0, 47, 0
3, 610079, Note_on_c, 0, 47, 88
3, 610200, Note_on_c, 0, 47, 0
3, 610200, Note_on_c, 0, 64, 0
3, 610200, Note_on_c, 0, 61, 0
3, 610200, Note_on_c, 0, 54, 0
3, 610200, Note_on_c, 0, 56, 94
3, 610200, Note_on_c, 0, 63, 94
3, 610200, Note_on_c, 0, 66, 94
3, 610200, Note_on_c, 0, 48, 94
3, 610439, Note_on_c, 0, 48, 0
3, 610439, Note_on_c, 0, 48, 92
3, 610560, Note_on_c, 0, 48, 0
3, 610560, Note_on_c, 0, 66, 0
3, 610560, Note_on_c, 0, 63, 0
3, 610560, Note_on_c, 0, 56, 0
3, 610560, Note_on_c, 0, 56, 84
3, 610560, Note_on_c, 0, 61, 84
3, 610560, Note_on_c, 0, 64, 84
3, 610560, Note_on_c, 0, 49, 92
3, 610920, Note_on_c, 0, 49, 0
3, 610920, Note_on_c, 0, 56, 0
3, 610920, Note_on_c, 0, 61, 0
3, 610920, Note_on_c, 0, 64, 0
3, 610920, Note_on_c, 0, 60, 98
3, 610920, Note_on_c, 0, 64, 98
3, 610920, Note_on_c, 0, 68, 98
3, 610920, Note_on_c, 0, 48, 101
3, 610920, Note_on_c, 0, 56, 101
3, 611280, Note_on_c, 0, 56, 0
3, 611280, Note_on_c, 0, 68, 0
3, 611280, Note_on_c, 0, 60, 0
3, 611280, Note_on_c, 0, 64, 0
3, 611280, Note_on_c, 0, 48, 0
3, 611280, Note_on_c, 0, 59, 94
3, 611280, Note_on_c, 0, 64, 94
3, 611280, Note_on_c, 0, 68, 94
3, 611280, Note_on_c, 0, 47, 93
3, 611280, Note_on_c, 0, 56, 93
3, 611640, Note_on_c, 0, 56, 0
3, 611640, Note_on_c, 0, 68, 0
3, 611640, Note_on_c, 0, 59, 0
3, 611640, Note_on_c, 0, 64, 0
3, 611640, Note_on_c, 0, 47, 0
3, 611640, Note_on_c, 0, 58, 88
3, 611640, Note_on_c, 0, 64, 88
3, 611640, Note_on_c, 0, 68, 88
3, 611640, Note_on_c, 0, 46, 89
3, 611640, Note_on_c, 0, 56, 89
3, 612000, Note_on_c, 0, 56, 0
3, 612000, Note_on_c, 0, 68, 0
3, 612000, Note_on_c, 0, 58, 0
3, 612000, Note_on_c, 0, 64, 0
3, 612000, Note_on_c, 0, 46, 0
3, 612000, Note_on_c, 0, 59, 87
3, 612000, Note_on_c, 0, 64, 87
3, 612000, Note_on_c, 0, 68, 87
3, 612000, Note_on_c, 0, 47, 89
3, 612000, Note_on_c, 0, 52, 89
3, 612000, Note_on_c, 0, 56, 89
3, 612360, Note_on_c, 0, 56, 0
3, 612360, Note_on_c, 0, 64, 0
3, 612360, Note_on_c, 0, 68, 0
3, 612360, Note_on_c, 0, 59, 0
3, 612360, Note_on_c, 0, 52, 0
3, 612360, Note_on_c, 0, 47, 0
3, 612360, Note_on_c, 0, 52, 71
3, 612360, Note_on_c, 0, 56, 71
3, 612360, Note_on_c, 0, 62, 71
3, 612360, Note_on_c, 0, 64, 71
3, 612360, Note_on_c, 0, 50, 79
3, 612599, Note_on_c, 0, 64, 0
3, 612599, Note_on_c, 0, 62, 0
3, 612599, Note_on_c, 0, 52, 0
3, 612599, Note_on_c, 0, 56, 0
3, 612599, Note_on_c, 0, 52, 90
3, 612599, Note_on_c, 0, 56, 90
3, 612599, Note_on_c, 0, 62, 90
3, 612599, Note_on_c, 0, 64, 90
3, 612720, Note_on_c, 0, 64, 0
3, 612720, Note_on_c, 0, 56, 0
3, 612720, Note_on_c, 0, 50, 0
3, 612720, Note_on_c, 0, 52, 0
3, 612720, Note_on_c, 0, 62, 0
3, 612720, Note_on_c, 0, 52, 85
3, 612720, Note_on_c, 0, 56, 85
3, 612720, Note_on_c, 0, 61, 85
3, 612720, Note_on_c, 0, 64, 85
3, 612720, Note_on_c, 0, 49, 82
3, 612959, Note_on_c, 0, 64, 0
3, 612959, Note_on_c, 0, 61, 0
3, 612959, Note_on_c, 0, 52, 0
3, 612959, Note_on_c, 0, 56, 0
3, 612959, Note_on_c, 0, 52, 86
3, 612959, Note_on_c, 0, 56, 86
3, 612959, Note_on_c, 0, 61, 86
3, 612959, Note_on_c, 0, 64, 86
3, 613080, Note_on_c, 0, 64, 0
3, 613080, Note_on_c, 0, 56, 0
3, 613080, Note_on_c, 0, 49, 0
3, 613080, Note_on_c, 0, 52, 0
3, 613080, Note_on_c, 0, 61, 0
3, 613080, Note_on_c, 0, 52, 86
3, 613080, Note_on_c, 0, 56, 86
3, 613080, Note_on_c, 0, 60, 86
3, 613080, Note_on_c, 0, 64, 86
3, 613080, Note_on_c, 0, 48, 82
3, 613319, Note_on_c, 0, 64, 0
3, 613319, Note_on_c, 0, 60, 0
3, 613319, Note_on_c, 0, 52, 0
3, 613319, Note_on_c, 0, 56, 0
3, 613319, Note_on_c, 0, 52, 88
3, 613319, Note_on_c, 0, 56, 88
3, 613319, Note_on_c, 0, 60, 88
3, 613319, Note_on_c, 0, 64, 88
3, 613440, Note_on_c, 0, 64, 0
3, 613440, Note_on_c, 0, 56, 0
3, 613440, Note_on_c, 0, 48, 0
3, 613440, Note_on_c, 0, 52, 0
3, 613440, Note_on_c, 0, 60, 0
3, 613440, Note_on_c, 0, 52, 89
3, 613440, Note_on_c, 0, 56, 89
3, 613440, Note_on_c, 0, 61, 89
3, 613440, Note_on_c, 0, 64, 89
3, 613440, Note_on_c, 0, 49, 92
3, 613800, Note_on_c, 0, 49, 0
3, 613800, Note_on_c, 0, 61, 0
3, 613800, Note_on_c, 0, 52, 0
3, 613800, Note_on_c, 0, 56, 0
3, 613800, Note_on_c, 0, 64, 0
3, 613800, Note_on_c, 0, 60, 100
3, 613800, Note_on_c, 0, 68, 100
3, 613800, Note_on_c, 0, 44, 95
3, 613800, Note_on_c, 0, 51, 95
3, 613800, Note_on_c, 0, 56, 95
3, 614039, Note_on_c, 0, 68, 0
3, 614039, Note_on_c, 0, 60, 0
3, 614039, Note_on_c, 0, 68, 87
3, 614160, Note_on_c, 0, 68, 0
3, 614160, Note_on_c, 0, 56, 0
3, 614160, Note_on_c, 0, 44, 0
3, 614160, Note_on_c, 0, 51, 0
3, 614160, Note_on_c, 0, 56, 88
3, 614160, Note_on_c, 0, 60, 88
3, 614160, Note_on_c, 0, 65, 88
3, 614160, Note_on_c, 0, 68, 88
3, 614160, Note_on_c, 0, 41, 88
3, 614160, Note_on_c, 0, 53, 88
3, 614520, Note_on_c, 0, 53, 0
3, 614520, Note_on_c, 0, 60, 0
3, 614520, Note_on_c, 0, 65, 0
3, 614520, Note_on_c, 0, 56, 0
3, 614520, Note_on_c, 0, 41, 0
3, 614520, Note_on_c, 0, 68, 0
3, 614520, Note_on_c, 0, 60, 94
3, 614520, Note_on_c, 0, 64, 94
3, 614520, Note_on_c, 0, 69, 94
3, 614520, Note_on_c, 0, 45, 89
3, 614520, Note_on_c, 0, 52, 89
3, 614520, Note_on_c, 0, 57, 89
3, 614759, Note_on_c, 0, 69, 0
3, 614759, Note_on_c, 0, 60, 0
3, 614759, Note_on_c, 0, 64, 0
3, 614759, Note_on_c, 0, 60, 88
3, 614759, Note_on_c, 0, 64, 88
3, 614759, Note_on_c, 0, 69, 88
3, 614880, Note_on_c, 0, 69, 0
3, 614880, Note_on_c, 0, 52, 0
3, 614880, Note_on_c, 0, 45, 0
3, 614880, Note_on_c, 0, 57, 0
3, 614880, Note_on_c, 0, 64, 0
3, 614880, Note_on_c, 0, 60, 0
3, 614880, Note_on_c, 0, 61, 84
3, 614880, Note_on_c, 0, 64, 84
3, 614880, Note_on_c, 0, 68, 84
3, 614880, Note_on_c, 0, 49, 85
3, 614880, Note_on_c, 0, 52, 85
3, 614880, Note_on_c, 0, 56, 85
3, 615240, Note_on_c, 0, 56, 0
3, 615240, Note_on_c, 0, 64, 0
3, 615240, Note_on_c, 0, 68, 0
3, 615240, Note_on_c, 0, 61, 0
3, 615240, Note_on_c, 0, 52, 0
3, 615240, Note_on_c, 0, 49, 0
3, 615240, Note_on_c, 0, 60, 91
3, 615240, Note_on_c, 0, 68, 91
3, 615240, Note_on_c, 0, 44, 89
3, 615240, Note_on_c, 0, 51, 89
3, 615240, Note_on_c, 0, 56, 89
3, 615479, Note_on_c, 0, 68, 0
3, 615479, Note_on_c, 0, 60, 0
3, 615479, Note_on_c, 0, 68, 91
3, 615600, Note_on_c, 0, 68, 0
3, 615600, Note_on_c, 0, 56, 0
3, 615600, Note_on_c, 0, 44, 0
3, 615600, Note_on_c, 0, 51, 0
3, 615600, Note_on_c, 0, 56, 89
3, 615600, Note_on_c, 0, 60, 89
3, 615600, Note_on_c, 0, 65, 89
3, 615600, Note_on_c, 0, 68, 89
3, 615600, Note_on_c, 0, 41, 88
3, 615600, Note_on_c, 0, 53, 88
3, 615960, Note_on_c, 0, 53, 0
3, 615960, Note_on_c, 0, 60, 0
3, 615960, Note_on_c, 0, 65, 0
3, 615960, Note_on_c, 0, 56, 0
3, 615960, Note_on_c, 0, 41, 0
3, 615960, Note_on_c, 0, 68, 0
3, 615960, Note_on_c, 0, 60, 93
3, 615960, Note_on_c, 0, 64, 93
3, 615960, Note_on_c, 0, 69, 93
3, 615960, Note_on_c, 0, 45, 94
3, 615960, Note_on_c, 0, 52, 94
3, 615960, Note_on_c, 0, 57, 94
3, 616199, Note_on_c, 0, 69, 0
3, 616199, Note_on_c, 0, 60, 0
3, 616199, Note_on_c, 0, 64, 0
3, 616199, Note_on_c, 0, 60, 88
3, 616199, Note_on_c, 0, 64, 88
3, 616199, Note_on_c, 0, 69, 88
3, 616320, Note_on_c, 0, 69, 0
3, 616320, Note_on_c, 0, 52, 0
3, 616320, Note_on_c, 0, 45, 0
3, 616320, Note_on_c, 0, 57, 0
3, 616320, Note_on_c, 0, 64, 0
3, 616320, Note_on_c, 0, 60, 0
3, 616320, Note_on_c, 0, 61, 81
3, 616320, Note_on_c, 0, 64, 81
3, 616320, Note_on_c, 0, 68, 81
3, 616320, Note_on_c, 0, 49, 84
3, 616320, Note_on_c, 0, 52, 84
3, 616320, Note_on_c, 0, 56, 84
3, 616680, Note_on_c, 0, 56, 0
3, 616680, Note_on_c, 0, 64, 0
3, 616680, Note_on_c, 0, 68, 0
3, 616680, Note_on_c, 0, 61, 0
3, 616680, Note_on_c, 0, 52, 0
3, 616680, Note_on_c, 0, 49, 0
3, 616680, Note_on_c, 0, 59, 100
3, 616680, Note_on_c, 0, 64, 100
3, 616680, Note_on_c, 0, 50, 102
3, 616680, Note_on_c, 0, 56, 102
3, 617040, Note_on_c, 0, 56, 0
3, 617040, Note_on_c, 0, 59, 0
3, 617040, Note_on_c, 0, 64, 0
3, 617040, Note_on_c, 0, 50, 0
3, 617040, Note_on_c, 0, 57, 38
3, 617040, Note_on_c, 0, 64, 38
3, 617040, Note_on_c, 0, 49, 29
3, 617040, Note_on_c, 0, 54, 29
3, 617219, Note_on_c, 0, 54, 0
3, 617219, Note_on_c, 0, 57, 0
3, 617219, Note_on_c, 0, 64, 0
3, 617219, Note_on_c, 0, 49, 0
3, 617400, Note_on_c, 0, 56, 34
3, 617400, Note_on_c, 0, 62, 34
3, 617400, Note_on_c, 0, 47, 32
3, 617400, Note_on_c, 0, 52, 32
3, 617579, Note_on_c, 0, 52, 0
3, 617579, Note_on_c, 0, 56, 0
3, 617579, Note_on_c, 0, 62, 0
3, 617579, Note_on_c, 0, 47, 0
3, 617760, Note_on_c, 0, 56, 34
3, 617760, Note_on_c, 0, 61, 34
3, 617760, Note_on_c, 0, 46, 35
3, 617760, Note_on_c, 0, 52, 35
3, 617939, Note_on_c, 0, 52, 0
3, 617939, Note_on_c, 0, 56, 0
3, 617939, Note_on_c, 0, 61, 0
3, 617939, Note_on_c, 0, 46, 0
3, 618120, Note_on_c, 0, 54, 39
3, 618120, Note_on_c, 0, 60, 39
3, 618120, Note_on_c, 0, 63, 39
3, 618120, Note_on_c, 0, 45, 31
3, 618120, Note_on_c, 0, 51, 31
3, 618299, Note_on_c, 0, 51, 0
3, 618299, Note_on_c, 0, 63, 0
3, 618299, Note_on_c, 0, 54, 0
3, 618299, Note_on_c, 0, 60, 0
3, 618299, Note_on_c, 0, 45, 0
3, 618480, Note_on_c, 0, 52, 39
3, 618480, Note_on_c, 0, 59, 39
3, 618480, Note_on_c, 0, 64, 39
3, 618480, Note_on_c, 0, 44, 35
3, 618480, Note_on_c, 0, 49, 35
3, 618659, Note_on_c, 0, 49, 0
3, 618659, Note_on_c, 0, 64, 0
3, 618659, Note_on_c, 0, 52, 0
3, 618659, Note_on_c, 0, 59, 0
3, 618659, Note_on_c, 0, 44, 0
3, 618840, Note_on_c, 0, 57, 41
3, 618840, Note_on_c, 0, 63, 41
3, 618840, Note_on_c, 0, 66, 41
3, 618840, Note_on_c, 0, 42, 36
3, 618840, Note_on_c, 0, 47, 36
3, 618840, Note_on_c, 0, 51, 36
3, 619019, Note_on_c, 0, 51, 0
3, 619019, Note_on_c, 0, 63, 0
3, 619019, Note_on_c, 0, 66, 0
3, 619019, Note_on_c, 0, 57, 0
3, 619019, Note_on_c, 0, 47, 0
3, 619019, Note_on_c, 0, 42, 0
3, 619200, Note_on_c, 0, 56, 35
3, 619200, Note_on_c, 0, 62, 35
3, 619200, Note_on_c, 0, 68, 35
3, 619200, Note_on_c, 0, 42, 35
3, 619200, Note_on_c, 0, 47, 35
3, 619200, Note_on_c, 0, 50, 35
3, 619379, Note_on_c, 0, 68, 0
3, 619379, Note_on_c, 0, 56, 0
3, 619379, Note_on_c, 0, 62, 0
3, 619560, Note_on_c, 0, 42, 0
3, 619560, Note_on_c, 0, 47, 0
3, 619560, Note_on_c, 0, 50, 0
3, 619560, Note_on_c, 0, 56, 39
3, 619560, Note_on_c, 0, 59, 39
3, 619560, Note_on_c, 0, 63, 39
3, 619560, Note_on_c, 0, 68, 39
3, 619560, Note_on_c, 0, 41, 39
3, 619560, Note_on_c, 0, 47, 39
3, 619560, Note_on_c, 0, 51, 39
3, 619739, Note_on_c, 0, 68, 0
3, 619739, Note_on_c, 0, 63, 0
3, 619739, Note_on_c, 0, 56, 0
3, 619739, Note_on_c, 0, 59, 0
3, 619920, Note_on_c, 0, 51, 0
3, 619920, Note_on_c, 0, 41, 0
3, 619920, Note_on_c, 0, 47, 0
3, 619920, Note_on_c, 0, 56, 42
3, 619920, Note_on_c, 0, 59, 42
3, 619920, Note_on_c, 0, 64, 42
3, 619920, Note_on_c, 0, 68, 42
3, 619920, Note_on_c, 0, 40, 42
3, 619920, Note_on_c, 0, 52, 42
3, 620099, Note_on_c, 0, 68, 0
3, 620099, Note_on_c, 0, 64, 0
3, 620099, Note_on_c, 0, 56, 0
3, 620099, Note_on_c, 0, 59, 0
3, 620280, Note_on_c, 0, 52, 0
3, 620280, Note_on_c, 0, 40, 0
3, 620280, Note_on_c, 0, 56, 45
3, 620280, Note_on_c, 0, 60, 45
3, 620280, Note_on_c, 0, 64, 45
3, 620280, Note_on_c, 0, 68, 45
3, 620280, Note_on_c, 0, 38, 45
3, 620280, Note_on_c, 0, 50, 45
3, 620459, Note_on_c, 0, 68, 0
3, 620459, Note_on_c, 0, 64, 0
3, 620459, Note_on_c, 0, 56, 0
3, 620459, Note_on_c, 0, 60, 0
3, 620640, Note_on_c, 0, 50, 0
3, 620640, Note_on_c, 0, 38, 0
3, 620640, Note_on_c, 0, 56, 48
3, 620640, Note_on_c, 0, 61, 48
3, 620640, Note_on_c, 0, 64, 48
3, 620640, Note_on_c, 0, 68, 48
3, 620640, Note_on_c, 0, 37, 48
3, 620640, Note_on_c, 0, 49, 48
3, 620819, Note_on_c, 0, 68, 0
3, 620819, Note_on_c, 0, 64, 0
3, 620819, Note_on_c, 0, 56, 0
3, 620819, Note_on_c, 0, 61, 0
3, 621000, Note_on_c, 0, 49, 0
3, 621000, Note_on_c, 0, 37, 0
3, 621000, Note_on_c, 0, 69, 51
3, 621000, Note_on_c, 0, 57, 87
3, 621000, Note_on_c, 0, 64, 87
3, 621000, Note_on_c, 0, 42, 51
3, 621000, Note_on_c, 0, 52, 51
3, 621120, Note_on_c, 0, 52, 0
3, 621120, Note_on_c, 0, 64, 0
3, 621120, Note_on_c, 0, 42, 0
3, 621120, Note_on_c, 0, 57, 0
3, 621120, Note_on_c, 0, 57, 88
3, 621120, Note_on_c, 0, 64, 88
3, 621120, Note_on_c, 0, 42, 52
3, 621120, Note_on_c, 0, 52, 52
3, 621239, Note_on_c, 0, 52, 0
3, 621239, Note_on_c, 0, 64, 0
3, 621239, Note_on_c, 0, 42, 0
3, 621239, Note_on_c, 0, 57, 0
3, 621239, Note_on_c, 0, 57, 89
3, 621239, Note_on_c, 0, 64, 89
3, 621239, Note_on_c, 0, 42, 53
3, 621239, Note_on_c, 0, 52, 53
3, 621360, Note_on_c, 0, 52, 0
3, 621360, Note_on_c, 0, 64, 0
3, 621360, Note_on_c, 0, 69, 0
3, 621360, Note_on_c, 0, 57, 0
3, 621360, Note_on_c, 0, 42, 0
3, 621360, Note_on_c, 0, 70, 54
3, 621360, Note_on_c, 0, 58, 90
3, 621360, Note_on_c, 0, 64, 90
3, 621360, Note_on_c, 0, 43, 54
3, 621360, Note_on_c, 0, 52, 54
3, 621480, Note_on_c, 0, 52, 0
3, 621480, Note_on_c, 0, 64, 0
3, 621480, Note_on_c, 0, 43, 0
3, 621480, Note_on_c, 0, 58, 0
3, 621480, Note_on_c, 0, 58, 91
3, 621480, Note_on_c, 0, 64, 91
3, 621480, Note_on_c, 0, 43, 56
3, 621480, Note_on_c, 0, 52, 56
3, 621599, Note_on_c, 0, 52, 0
3, 621599, Note_on_c, 0, 64, 0
3, 621599, Note_on_c, 0, 43, 0
3, 621599, Note_on_c, 0, 58, 0
3, 621599, Note_on_c, 0, 58, 92
3, 621599, Note_on_c, 0, 64, 92
3, 621599, Note_on_c, 0, 43, 57
3, 621599, Note_on_c, 0, 52, 57
3, 621720, Note_on_c, 0, 52, 0
3, 621720, Note_on_c, 0, 64, 0
3, 621720, Note_on_c, 0, 70, 0
3, 621720, Note_on_c, 0, 58, 0
3, 621720, Note_on_c, 0, 43, 0
3, 621720, Note_on_c, 0, 71, 58
3, 621720, Note_on_c, 0, 59, 93
3, 621720, Note_on_c, 0, 64, 93
3, 621720, Note_on_c, 0, 44, 58
3, 621720, Note_on_c, 0, 52, 58
3, 621840, Note_on_c, 0, 52, 0
3, 621840, Note_on_c, 0, 64, 0
3, 621840, Note_on_c, 0, 44, 0
3, 621840, Note_on_c, 0, 59, 0
3, 621840, Note_on_c, 0, 59, 94
3, 621840, Note_on_c, 0, 64, 94
3, 621840, Note_on_c, 0, 44, 59
3, 621840, Note_on_c, 0, 52, 59
3, 621959, Note_on_c, 0, 52, 0
3, 621959, Note_on_c, 0, 64, 0
3, 621959, Note_on_c, 0, 44, 0
3, 621959, Note_on_c, 0, 59, 0
3, 621959, Note_on_c, 0, 59, 95
3, 621959, Note_on_c, 0, 64, 95
3, 621959, Note_on_c, 0, 44, 60
3, 621959, Note_on_c, 0, 52, 60
3, 622080, Note_on_c, 0, 52, 0
3, 622080, Note_on_c, 0, 64, 0
3, 622080, Note_on_c, 0, 71, 0
3, 622080, Note_on_c, 0, 59, 0
3, 622080, Note_on_c, 0, 44, 0
3, 622080, Note_on_c, 0, 61, 61
3, 622080, Note_on_c, 0, 64, 61
3, 622080, Note_on_c, 0, 73, 61
3, 622080, Note_on_c, 0, 45, 61
3, 622080, Note_on_c, 0, 52, 61
3, 622080, Note_on_c, 0, 57, 61
3, 622440, Note_on_c, 0, 57, 0
3, 622440, Note_on_c, 0, 64, 0
3, 622440, Note_on_c, 0, 73, 0
3, 622440, Note_on_c, 0, 61, 0
3, 622440, Note_on_c, 0, 52, 0
3, 622440, Note_on_c, 0, 45, 0
3, 622440, Note_on_c, 0, 52, 41
3, 622440, Note_on_c, 0, 54, 41
3, 622440, Note_on_c, 0, 61, 41
3, 622560, Note_on_c, 0, 61, 0
3, 622560, Note_on_c, 0, 54, 0
3, 622560, Note_on_c, 0, 52, 0
3, 622560, Note_on_c, 0, 52, 56
3, 622560, Note_on_c, 0, 54, 56
3, 622560, Note_on_c, 0, 61, 56
3, 622679, Note_on_c, 0, 61, 0
3, 622679, Note_on_c, 0, 54, 0
3, 622679, Note_on_c, 0, 52, 0
3, 622679, Note_on_c, 0, 52, 62
3, 622679, Note_on_c, 0, 54, 62
3, 622679, Note_on_c, 0, 61, 62
3, 622800, Note_on_c, 0, 61, 0
3, 622800, Note_on_c, 0, 54, 0
3, 622800, Note_on_c, 0, 52, 0
3, 622800, Note_on_c, 0, 54, 67
3, 622800, Note_on_c, 0, 61, 67
3, 622800, Note_on_c, 0, 52, 79
3, 623160, Note_on_c, 0, 61, 0
3, 623160, Note_on_c, 0, 54, 0
3, 623160, Note_on_c, 0, 56, 56
3, 623160, Note_on_c, 0, 40, 51
3, 623339, Note_on_c, 0, 40, 0
3, 623520, Note_on_c, 0, 56, 0
3, 623520, Note_on_c, 0, 54, 69
3, 623520, Note_on_c, 0, 61, 69
3, 623520, Note_on_c, 0, 33, 67
3, 623520, Note_on_c, 0, 45, 67
3, 623699, Note_on_c, 0, 45, 0
3, 623699, Note_on_c, 0, 33, 0
3, 623880, Note_on_c, 0, 52, 0
3, 623880, Note_on_c, 0, 54, 0
3, 623880, Note_on_c, 0, 61, 0
3, 623880, Note_on_c, 0, 52, 63
3, 623880, Note_on_c, 0, 54, 63
3, 623880, Note_on_c, 0, 61, 63
3, 624000, Note_on_c, 0, 61, 0
3, 624000, Note_on_c, 0, 54, 0
3, 624000, Note_on_c, 0, 52, 0
3, 624000, Note_on_c, 0, 52, 58
3, 624000, Note_on_c, 0, 54, 58
3, 624000, Note_on_c, 0, 61, 58
3, 624119, Note_on_c, 0, 61, 0
3, 624119, Note_on_c, 0, 54, 0
3, 624119, Note_on_c, 0, 52, 0
3, 624119, Note_on_c, 0, 52, 57
3, 624119, Note_on_c, 0, 54, 57
3, 624119, Note_on_c, 0, 61, 57
3, 624240, Note_on_c, 0, 61, 0
3, 624240, Note_on_c, 0, 54, 0
3, 624240, Note_on_c, 0, 52, 0
3, 624240, Note_on_c, 0, 54, 59
3, 624240, Note_on_c, 0, 61, 59
3, 624240, Note_on_c, 0, 52, 97
3, 624600, Note_on_c, 0, 61, 0
3, 624600, Note_on_c, 0, 54, 0
3, 624600, Note_on_c, 0, 56, 53
3, 624600, Note_on_c, 0, 40, 49
3, 624779, Note_on_c, 0, 40, 0
3, 624960, Note_on_c, 0, 56, 0
3, 624960, Note_on_c, 0, 54, 61
3, 624960, Note_on_c, 0, 33, 63
3, 624960, Note_on_c, 0, 45, 63
3, 625139, Note_on_c, 0, 45, 0
3, 625139, Note_on_c, 0, 33, 0
3, 625320, Note_on_c, 0, 54, 0
3, 625320, Note_on_c, 0, 52, 0
3, 625320, Note_on_c, 0, 54, 59
3, 625440, Note_on_c, 0, 54, 0
3, 625440, Note_on_c, 0, 54, 63
3, 625559, Note_on_c, 0, 54, 0
3, 625559, Note_on_c, 0, 54, 63
3, 625680, Note_on_c, 0, 54, 0
3, 625680, Note_on_c, 0, 54, 64
3, 626040, Note_on_c, 0, 54, 0
3, 626040, Note_on_c, 0, 56, 62
3, 626040, Note_on_c, 0, 52, 101
3, 626040, Note_on_c, 0, 40, 64
3, 626357, Note_on_c, 0, 40, 0
3, 626400, Note_on_c, 0, 56, 0
3, 626400, Note_on_c, 0, 54, 56
3, 626400, Note_on_c, 0, 33, 64
3, 626400, Note_on_c, 0, 45, 64
3, 626760, Note_on_c, 0, 54, 0
3, 626760, Note_on_c, 0, 52, 0
3, 626760, Note_on_c, 0, 54, 60
3, 626819, Note_on_c, 0, 54, 0
3, 626880, Note_on_c, 0, 54, 58
3, 626939, Note_on_c, 0, 54, 0
3, 626999, Note_on_c, 0, 54, 64
3, 627058, Note_on_c, 0, 54, 0
3, 627120, Note_on_c, 0, 54, 63
3, 627299, Note_on_c, 0, 54, 0
3, 627480, Note_on_c, 0, 33, 0
3, 627480, Note_on_c, 0, 45, 0
3, 627480, Note_on_c, 0, 52, 63
3, 627480, Note_on_c, 0, 56, 63
3, 627480, Note_on_c, 0, 40, 59
3, 627659, Note_on_c, 0, 40, 0
3, 627840, Note_on_c, 0, 56, 0
3, 627840, Note_on_c, 0, 52, 0
3, 627840, Note_on_c, 0, 54, 57
3, 627840, Note_on_c, 0, 33, 63
3, 627840, Note_on_c, 0, 45, 63
3, 629280, Note_on_c, 0, 54, 0
3, 629280, Note_on_c, 0, 56, 59
3, 630000, Note_on_c, 0, 56, 0
3, 630000, Note_on_c, 0, 54, 55
3, 630000, Note_on_c, 0, 49, 85
3, 630120, Note_on_c, 0, 49, 0
3, 630120, Note_on_c, 0, 51, 101
3, 630239, Note_on_c, 0, 51, 0
3, 630239, Note_on_c, 0, 51, 100
3, 630360, Note_on_c, 0, 51, 0
3, 630360, Note_on_c, 0, 54, 0
3, 630360, Note_on_c, 0, 52, 61
3, 630360, Note_on_c, 0, 54, 101
3, 630720, Note_on_c, 0, 54, 0
3, 630720, Note_on_c, 0, 33, 0
3, 630720, Note_on_c, 0, 45, 0
3, 630720, Note_on_c, 0, 52, 0
3, 630720, Note_on_c, 0, 52, 79
3, 630720, Note_on_c, 0, 54, 79
3, 630720, Note_on_c, 0, 61, 79
3, 630720, Note_on_c, 0, 34, 63
3, 630720, Note_on_c, 0, 46, 63
3, 631080, Note_on_c, 0, 46, 0
3, 631080, Note_on_c, 0, 61, 0
3, 631080, Note_on_c, 0, 52, 0
3, 631080, Note_on_c, 0, 54, 0
3, 631080, Note_on_c, 0, 34, 0
3, 631080, Note_on_c, 0, 52, 66
3, 631080, Note_on_c, 0, 54, 66
3, 631080, Note_on_c, 0, 61, 66
3, 631139, Note_on_c, 0, 61, 0
3, 631139, Note_on_c, 0, 54, 0
3, 631139, Note_on_c, 0, 52, 0
3, 631200, Note_on_c, 0, 52, 60
3, 631200, Note_on_c, 0, 54, 60
3, 631200, Note_on_c, 0, 61, 60
3, 631259, Note_on_c, 0, 61, 0
3, 631259, Note_on_c, 0, 54, 0
3, 631259, Note_on_c, 0, 52, 0
3, 631319, Note_on_c, 0, 52, 60
3, 631319, Note_on_c, 0, 54, 60
3, 631319, Note_on_c, 0, 61, 60
3, 631378, Note_on_c, 0, 61, 0
3, 631378, Note_on_c, 0, 54, 0
3, 631378, Note_on_c, 0, 52, 0
3, 631440, Note_on_c, 0, 54, 57
3, 631440, Note_on_c, 0, 61, 57
3, 631440, Note_on_c, 0, 52, 90
3, 631800, Note_on_c, 0, 61, 0
3, 631800, Note_on_c, 0, 54, 0
3, 631800, Note_on_c, 0, 56, 55
3, 631800, Note_on_c, 0, 40, 53
3, 632160, Note_on_c, 0, 40, 0
3, 632160, Note_on_c, 0, 56, 0
3, 632160, Note_on_c, 0, 54, 70
3, 632160, Note_on_c, 0, 61, 70
3, 632160, Note_on_c, 0, 34, 66
3, 632160, Note_on_c, 0, 46, 66
3, 632339, Note_on_c, 0, 46, 0
3, 632339, Note_on_c, 0, 34, 0
3, 632520, Note_on_c, 0, 52, 0
3, 632520, Note_on_c, 0, 54, 0
3, 632520, Note_on_c, 0, 61, 0
3, 632520, Note_on_c, 0, 52, 64
3, 632520, Note_on_c, 0, 54, 64
3, 632520, Note_on_c, 0, 61, 64
3, 632640, Note_on_c, 0, 61, 0
3, 632640, Note_on_c, 0, 54, 0
3, 632640, Note_on_c, 0, 52, 0
3, 632640, Note_on_c, 0, 52, 60
3, 632640, Note_on_c, 0, 54, 60
3, 632640, Note_on_c, 0, 61, 60
3, 632759, Note_on_c, 0, 61, 0
3, 632759, Note_on_c, 0, 54, 0
3, 632759, Note_on_c, 0, 52, 0
3, 632759, Note_on_c, 0, 52, 58
3, 632759, Note_on_c, 0, 54, 58
3, 632759, Note_on_c, 0, 61, 58
3, 632880, Note_on_c, 0, 61, 0
3, 632880, Note_on_c, 0, 54, 0
3, 632880, Note_on_c, 0, 52, 0
3, 632880, Note_on_c, 0, 54, 60
3, 632880, Note_on_c, 0, 61, 60
3, 632880, Note_on_c, 0, 52, 94
3, 633240, Note_on_c, 0, 61, 0
3, 633240, Note_on_c, 0, 54, 0
3, 633240, Note_on_c, 0, 56, 55
3, 633240, Note_on_c, 0, 40, 48
3, 633419, Note_on_c, 0, 40, 0
3, 633600, Note_on_c, 0, 56, 0
3, 633600, Note_on_c, 0, 54, 61
3, 633600, Note_on_c, 0, 34, 72
3, 633600, Note_on_c, 0, 46, 72
3, 633779, Note_on_c, 0, 46, 0
3, 633779, Note_on_c, 0, 34, 0
3, 633960, Note_on_c, 0, 54, 0
3, 633960, Note_on_c, 0, 52, 0
3, 633960, Note_on_c, 0, 54, 63
3, 634019, Note_on_c, 0, 54, 0
3, 634080, Note_on_c, 0, 54, 67
3, 634139, Note_on_c, 0, 54, 0
3, 634199, Note_on_c, 0, 54, 61
3, 634258, Note_on_c, 0, 54, 0
3, 634320, Note_on_c, 0, 54, 63
3, 634499, Note_on_c, 0, 54, 0
3, 634680, Note_on_c, 0, 56, 66
3, 634680, Note_on_c, 0, 52, 100
3, 634680, Note_on_c, 0, 40, 63
3, 634997, Note_on_c, 0, 40, 0
3, 635040, Note_on_c, 0, 56, 0
3, 635040, Note_on_c, 0, 54, 62
3, 635040, Note_on_c, 0, 34, 65
3, 635040, Note_on_c, 0, 46, 65
3, 635400, Note_on_c, 0, 54, 0
3, 635400, Note_on_c, 0, 52, 0
3, 635400, Note_on_c, 0, 54, 57
3, 635459, Note_on_c, 0, 54, 0
3, 635520, Note_on_c, 0, 54, 62
3, 635579, Note_on_c, 0, 54, 0
3, 635639, Note_on_c, 0, 54, 64
3, 635698, Note_on_c, 0, 54, 0
3, 635760, Note_on_c, 0, 54, 60
3, 635939, Note_on_c, 0, 54, 0
3, 636120, Note_on_c, 0, 34, 0
3, 636120, Note_on_c, 0, 46, 0
3, 636120, Note_on_c, 0, 56, 65
3, 636120, Note_on_c, 0, 52, 96
3, 636120, Note_on_c, 0, 40, 67
3, 636437, Note_on_c, 0, 40, 0
3, 636480, Note_on_c, 0, 52, 0
3, 636480, Note_on_c, 0, 56, 0
3, 636480, Note_on_c, 0, 54, 54
3, 636480, Note_on_c, 0, 34, 70
3, 636480, Note_on_c, 0, 46, 70
3, 637920, Note_on_c, 0, 54, 0
3, 637920, Note_on_c, 0, 56, 63
3, 638640, Note_on_c, 0, 56, 0
3, 638640, Note_on_c, 0, 54, 62
3, 638640, Note_on_c, 0, 49, 83
3, 638760, Note_on_c, 0, 49, 0
3, 638760, Note_on_c, 0, 51, 95
3, 638879, Note_on_c, 0, 51, 0
3, 638879, Note_on_c, 0, 52, 96
3, 639000, Note_on_c, 0, 52, 0
3, 639000, Note_on_c, 0, 54, 0
3, 639000, Note_on_c, 0, 52, 54
3, 639000, Note_on_c, 0, 54, 101
3, 639360, Note_on_c, 0, 52, 0
3, 639360, Note_on_c, 0, 34, 0
3, 639360, Note_on_c, 0, 46, 0
3, 639360, Note_on_c, 0, 35, 62
3, 639360, Note_on_c, 0, 47, 62
3, 639720, Note_on_c, 0, 54, 0
3, 639720, Note_on_c, 0, 61, 80
3, 639720, Note_on_c, 0, 54, 102
3, 639720, Note_on_c, 0, 59, 102
3, 639840, Note_on_c, 0, 61, 0
3, 639840, Note_on_c, 0, 63, 69
3, 639959, Note_on_c, 0, 63, 0
3, 639959, Note_on_c, 0, 64, 64
3, 640080, Note_on_c, 0, 64, 0
3, 640080, Note_on_c, 0, 64, 65
3, 640353, Note_on_c, 0, 54, 0
3, 640353, Note_on_c, 0, 59, 0
3, 640440, Note_on_c, 0, 54, 102
3, 640440, Note_on_c, 0, 59, 102
3, 640757, Note_on_c, 0, 59, 0
3, 640757, Note_on_c, 0, 54, 0
3, 640800, Note_on_c, 0, 35, 0
3, 640800, Note_on_c, 0, 47, 0
3, 640800, Note_on_c, 0, 54, 58
3, 640800, Note_on_c, 0, 58, 58
3, 640800, Note_on_c, 0, 37, 61
3, 640800, Note_on_c, 0, 49, 61
3, 641160, Note_on_c, 0, 58, 0
3, 641160, Note_on_c, 0, 64, 0
3, 641160, Note_on_c, 0, 54, 0
3, 641160, Note_on_c, 0, 61, 54
3, 641160, Note_on_c, 0, 54, 102
3, 641160, Note_on_c, 0, 58, 102
3, 641280, Note_on_c, 0, 61, 0
3, 641280, Note_on_c, 0, 63, 59
3, 641399, Note_on_c, 0, 63, 0
3, 641399, Note_on_c, 0, 64, 61
3, 641520, Note_on_c, 0, 64, 0
3, 641520, Note_on_c, 0, 64, 67
3, 641793, Note_on_c, 0, 54, 0
3, 641793, Note_on_c, 0, 58, 0
3, 641880, Note_on_c, 0, 54, 102
3, 641880, Note_on_c, 0, 58, 102
3, 642153, Note_on_c, 0, 64, 0
3, 642197, Note_on_c, 0, 54, 0
3, 642197, Note_on_c, 0, 58, 0
3, 642240, Note_on_c, 0, 37, 0
3, 642240, Note_on_c, 0, 49, 0
3, 642240, Note_on_c, 0, 56, 56
3, 642240, Note_on_c, 0, 60, 56
3, 642240, Note_on_c, 0, 63, 56
3, 642240, Note_on_c, 0, 54, 102
3, 642240, Note_on_c, 0, 39, 63
3, 642240, Note_on_c, 0, 51, 63
3, 642557, Note_on_c, 0, 54, 0
3, 642600, Note_on_c, 0, 63, 0
3, 642600, Note_on_c, 0, 56, 0
3, 642600, Note_on_c, 0, 60, 0
3, 642600, Note_on_c, 0, 63, 57
3, 642600, Note_on_c, 0, 56, 102
3, 642600, Note_on_c, 0, 60, 102
3, 642720, Note_on_c, 0, 63, 0
3, 642720, Note_on_c, 0, 64, 62
3, 642839, Note_on_c, 0, 64, 0
3, 642839, Note_on_c, 0, 66, 65
3, 642960, Note_on_c, 0, 66, 0
3, 642960, Note_on_c, 0, 66, 76
3, 643233, Note_on_c, 0, 56, 0
3, 643233, Note_on_c, 0, 60, 0
3, 643320, Note_on_c, 0, 56, 102
3, 643320, Note_on_c, 0, 60, 102
3, 643637, Note_on_c, 0, 60, 0
3, 643637, Note_on_c, 0, 56, 0
3, 643680, Note_on_c, 0, 39, 0
3, 643680, Note_on_c, 0, 51, 0
3, 643680, Note_on_c, 0, 57, 58
3, 643680, Note_on_c, 0, 61, 58
3, 643680, Note_on_c, 0, 40, 60
3, 643680, Note_on_c, 0, 52, 60
3, 644040, Note_on_c, 0, 61, 0
3, 644040, Note_on_c, 0, 66, 0
3, 644040, Note_on_c, 0, 57, 0
3, 644040, Note_on_c, 0, 64, 53
3, 644040, Note_on_c, 0, 57, 102
3, 644040, Note_on_c, 0, 61, 102
3, 644160, Note_on_c, 0, 64, 0
3, 644160, Note_on_c, 0, 66, 69
3, 644279, Note_on_c, 0, 66, 0
3, 644279, Note_on_c, 0, 68, 71
3, 644400, Note_on_c, 0, 68, 0
3, 644400, Note_on_c, 0, 66, 68
3, 644673, Note_on_c, 0, 57, 0
3, 644673, Note_on_c, 0, 61, 0
3, 644760, Note_on_c, 0, 57, 102
3, 644760, Note_on_c, 0, 61, 102
3, 645077, Note_on_c, 0, 61, 0
3, 645077, Note_on_c, 0, 57, 0
3, 645120, Note_on_c, 0, 52, 0
3, 645120, Note_on_c, 0, 40, 0
3, 645120, Note_on_c, 0, 59, 58
3, 645120, Note_on_c, 0, 62, 58
3, 645120, Note_on_c, 0, 42, 63
3, 645120, Note_on_c, 0, 54, 63
3, 645480, Note_on_c, 0, 62, 0
3, 645480, Note_on_c, 0, 66, 0
3, 645480, Note_on_c, 0, 59, 0
3, 645480, Note_on_c, 0, 59, 102
3, 645480, Note_on_c, 0, 62, 102
3, 645600, Note_on_c, 0, 66, 58
3, 645719, Note_on_c, 0, 66, 0
3, 645719, Note_on_c, 0, 68, 65
3, 645840, Note_on_c, 0, 68, 0
3, 645840, Note_on_c, 0, 69, 76
3, 646113, Note_on_c, 0, 62, 0
3, 646113, Note_on_c, 0, 59, 0
3, 646200, Note_on_c, 0, 59, 102
3, 646200, Note_on_c, 0, 62, 102
3, 646517, Note_on_c, 0, 62, 0
3, 646517, Note_on_c, 0, 59, 0
3, 646560, Note_on_c, 0, 54, 0
3, 646560, Note_on_c, 0, 42, 0
3, 646560, Note_on_c, 0, 61, 61
3, 646560, Note_on_c, 0, 64, 61
3, 646560, Note_on_c, 0, 43, 56
3, 646560, Note_on_c, 0, 52, 56
3, 646920, Note_on_c, 0, 64, 0
3, 646920, Note_on_c, 0, 69, 0
3, 646920, Note_on_c, 0, 61, 0
3, 646920, Note_on_c, 0, 66, 58
3, 646920, Note_on_c, 0, 61, 102
3, 646920, Note_on_c, 0, 64, 102
3, 647040, Note_on_c, 0, 66, 0
3, 647040, Note_on_c, 0, 67, 59
3, 647159, Note_on_c, 0, 67, 0
3, 647159, Note_on_c, 0, 68, 67
3, 647280, Note_on_c, 0, 68, 0
3, 647280, Note_on_c, 0, 69, 79
3, 647553, Note_on_c, 0, 61, 0
3, 647553, Note_on_c, 0, 64, 0
3, 647640, Note_on_c, 0, 61, 102
3, 647640, Note_on_c, 0, 64, 102
3, 647957, Note_on_c, 0, 64, 0
3, 647957, Note_on_c, 0, 61, 0
3, 648000, Note_on_c, 0, 52, 0
3, 648000, Note_on_c, 0, 43, 0
3, 648000, Note_on_c, 0, 61, 59
3, 648000, Note_on_c, 0, 66, 59
3, 648000, Note_on_c, 0, 44, 59
3, 648000, Note_on_c, 0, 51, 59
3, 648360, Note_on_c, 0, 66, 0
3, 648360, Note_on_c, 0, 69, 0
3, 648360, Note_on_c, 0, 61, 0
3, 648360, Note_on_c, 0, 63, 56
3, 648360, Note_on_c, 0, 66, 56
3, 648360, Note_on_c, 0, 61, 82
3, 648480, Note_on_c, 0, 66, 0
3, 648480, Note_on_c, 0, 63, 0
3, 648480, Note_on_c, 0, 66, 53
3, 648599, Note_on_c, 0, 66, 0
3, 648599, Note_on_c, 0, 68, 67
3, 648720, Note_on_c, 0, 68, 0
3, 648720, Note_on_c, 0, 63, 64
3, 648720, Note_on_c, 0, 69, 64
3, 649080, Note_on_c, 0, 69, 0
3, 649080, Note_on_c, 0, 61, 0
3, 649080, Note_on_c, 0, 63, 0
3, 649080, Note_on_c, 0, 61, 63
3, 649080, Note_on_c, 0, 66, 63
3, 649080, Note_on_c, 0, 69, 63
3, 649440, Note_on_c, 0, 66, 0
3, 649440, Note_on_c, 0, 61, 0
3, 649440, Note_on_c, 0, 51, 0
3, 649440, Note_on_c, 0, 44, 0
3, 649440, Note_on_c, 0, 60, 58
3, 649440, Note_on_c, 0, 64, 58
3, 649440, Note_on_c, 0, 45, 101
3, 649440, Note_on_c, 0, 52, 101
3, 649800, Note_on_c, 0, 64, 0
3, 649800, Note_on_c, 0, 69, 0
3, 649800, Note_on_c, 0, 60, 0
3, 649800, Note_on_c, 0, 69, 61
3, 649800, Note_on_c, 0, 60, 102
3, 649800, Note_on_c, 0, 64, 102
3, 649800, Note_on_c, 0, 57, 53
3, 649920, Note_on_c, 0, 69, 0
3, 649920, Note_on_c, 0, 69, 59
3, 650039, Note_on_c, 0, 69, 0
3, 650039, Note_on_c, 0, 71, 64
3, 650160, Note_on_c, 0, 71, 0
3, 650160, Note_on_c, 0, 57, 0
3, 650160, Note_on_c, 0, 69, 58
3, 650160, Note_on_c, 0, 54, 57
3, 650433, Note_on_c, 0, 60, 0
3, 650433, Note_on_c, 0, 64, 0
3, 650520, Note_on_c, 0, 69, 0
3, 650520, Note_on_c, 0, 54, 0
3, 650520, Note_on_c, 0, 60, 71
3, 650520, Note_on_c, 0, 64, 71
3, 650520, Note_on_c, 0, 69, 71
3, 650520, Note_on_c, 0, 52, 58
3, 650520, Note_on_c, 0, 54, 58
3, 650837, Note_on_c, 0, 64, 0
3, 650837, Note_on_c, 0, 60, 0
3, 650880, Note_on_c, 0, 52, 0
3, 650880, Note_on_c, 0, 52, 0
3, 650880, Note_on_c, 0, 45, 0
3, 650880, Note_on_c, 0, 54, 0
3, 650880, Note_on_c, 0, 59, 61
3, 650880, Note_on_c, 0, 63, 61
3, 650880, Note_on_c, 0, 54, 67
3, 650880, Note_on_c, 0, 57, 67
3, 650880, Note_on_c, 0, 47, 98
3, 651000, Note_on_c, 0, 63, 0
3, 651000, Note_on_c, 0, 69, 0
3, 651000, Note_on_c, 0, 59, 0
3, 651000, Note_on_c, 0, 61, 42
3, 651119, Note_on_c, 0, 61, 0
3, 651119, Note_on_c, 0, 62, 61
3, 651240, Note_on_c, 0, 62, 0
3, 651240, Note_on_c, 0, 54, 0
3, 651240, Note_on_c, 0, 57, 0
3, 651240, Note_on_c, 0, 63, 92
3, 651479, Note_on_c, 0, 63, 0
3, 651479, Note_on_c, 0, 61, 56
3, 651600, Note_on_c, 0, 61, 0
3, 651600, Note_on_c, 0, 59, 58
3, 651839, Note_on_c, 0, 59, 0
3, 651839, Note_on_c, 0, 57, 58
3, 651960, Note_on_c, 0, 57, 0
3, 651960, Note_on_c, 0, 56, 62
3, 652199, Note_on_c, 0, 56, 0
3, 652199, Note_on_c, 0, 54, 60
3, 652320, Note_on_c, 0, 47, 0
3, 652320, Note_on_c, 0, 52, 68
3, 652320, Note_on_c, 0, 57, 68
3, 652320, Note_on_c, 0, 37, 53
3, 652320, Note_on_c, 0, 49, 53
3, 652680, Note_on_c, 0, 57, 0
3, 652680, Note_on_c, 0, 54, 0
3, 652680, Note_on_c, 0, 52, 0
3, 652680, Note_on_c, 0, 64, 75
3, 652919, Note_on_c, 0, 64, 0
3, 652919, Note_on_c, 0, 63, 58
3, 653040, Note_on_c, 0, 63, 0
3, 653040, Note_on_c, 0, 61, 56
3, 653279, Note_on_c, 0, 61, 0
3, 653279, Note_on_c, 0, 59, 59
3, 653400, Note_on_c, 0, 59, 0
3, 653400, Note_on_c, 0, 57, 56
3, 653639, Note_on_c, 0, 57, 0
3, 653639, Note_on_c, 0, 56, 58
3, 653760, Note_on_c, 0, 56, 0
3, 653760, Note_on_c, 0, 37, 0
3, 653760, Note_on_c, 0, 49, 0
3, 653760, Note_on_c, 0, 54, 65
3, 653760, Note_on_c, 0, 59, 65
3, 653760, Note_on_c, 0, 39, 64
3, 653760, Note_on_c, 0, 51, 64
3, 653880, Note_on_c, 0, 59, 0
3, 653880, Note_on_c, 0, 54, 0
3, 653880, Note_on_c, 0, 56, 51
3, 653999, Note_on_c, 0, 56, 0
3, 653999, Note_on_c, 0, 57, 66
3, 654120, Note_on_c, 0, 63, 95
3, 654359, Note_on_c, 0, 63, 0
3, 654359, Note_on_c, 0, 64, 99
3, 654480, Note_on_c, 0, 64, 0
3, 654480, Note_on_c, 0, 63, 89
3, 654719, Note_on_c, 0, 63, 0
3, 654719, Note_on_c, 0, 61, 90
3, 654840, Note_on_c, 0, 61, 0
3, 654840, Note_on_c, 0, 59, 90
3, 655079, Note_on_c, 0, 59, 0
3, 655079, Note_on_c, 0, 57, 94
3, 655200, Note_on_c, 0, 57, 0
3, 655200, Note_on_c, 0, 57, 0
3, 655200, Note_on_c, 0, 39, 0
3, 655200, Note_on_c, 0, 51, 0
3, 655200, Note_on_c, 0, 68, 83
3, 655200, Note_on_c, 0, 57, 101
3, 655200, Note_on_c, 0, 61, 101
3, 655200, Note_on_c, 0, 40, 68
3, 655200, Note_on_c, 0, 52, 68
3, 655799, Note_on_c, 0, 68, 0
3, 655799, Note_on_c, 0, 68, 58
3, 655920, Note_on_c, 0, 68, 0
3, 655920, Note_on_c, 0, 52, 0
3, 655920, Note_on_c, 0, 57, 0
3, 655920, Note_on_c, 0, 61, 0
3, 655920, Note_on_c, 0, 40, 0
3, 655920, Note_on_c, 0, 63, 55
3, 655920, Note_on_c, 0, 66, 55
3, 655920, Note_on_c, 0, 59, 93
3, 655920, Note_on_c, 0, 42, 66
3, 655920, Note_on_c, 0, 54, 66
3, 656159, Note_on_c, 0, 66, 0
3, 656159, Note_on_c, 0, 63, 0
3, 656159, Note_on_c, 0, 64, 56
3, 656280, Note_on_c, 0, 64, 0
3, 656280, Note_on_c, 0, 63, 55
3, 656519, Note_on_c, 0, 63, 0
3, 656519, Note_on_c, 0, 61, 56
3, 656640, Note_on_c, 0, 61, 0
3, 656640, Note_on_c, 0, 54, 0
3, 656640, Note_on_c, 0, 59, 0
3, 656640, Note_on_c, 0, 42, 0
3, 656640, Note_on_c, 0, 65, 66
3, 656640, Note_on_c, 0, 59, 95
3, 656640, Note_on_c, 0, 43, 57
3, 656640, Note_on_c, 0, 50, 57
3, 657000, Note_on_c, 0, 65, 0
3, 657000, Note_on_c, 0, 65, 62
3, 657120, Note_on_c, 0, 65, 0
3, 657120, Note_on_c, 0, 65, 64
3, 657239, Note_on_c, 0, 65, 0
3, 657239, Note_on_c, 0, 65, 58
3, 657360, Note_on_c, 0, 65, 0
3, 657360, Note_on_c, 0, 65, 91
3, 657599, Note_on_c, 0, 65, 0
3, 657599, Note_on_c, 0, 65, 61
3, 657720, Note_on_c, 0, 65, 0
3, 657720, Note_on_c, 0, 59, 0
3, 657720, Note_on_c, 0, 65, 92
3, 657720, Note_on_c, 0, 60, 101
3, 657959, Note_on_c, 0, 65, 0
3, 657959, Note_on_c, 0, 65, 56
3, 658080, Note_on_c, 0, 65, 0
3, 658080, Note_on_c, 0, 60, 0
3, 658080, Note_on_c, 0, 43, 0
3, 658080, Note_on_c, 0, 50, 0
3, 658080, Note_on_c, 0, 65, 63
3, 658080, Note_on_c, 0, 59, 96
3, 658080, Note_on_c, 0, 43, 64
3, 658080, Note_on_c, 0, 50, 64
3, 658440, Note_on_c, 0, 65, 0
3, 658440, Note_on_c, 0, 62, 57
3, 658560, Note_on_c, 0, 62, 0
3, 658560, Note_on_c, 0, 63, 66
3, 658679, Note_on_c, 0, 63, 0
3, 658679, Note_on_c, 0, 64, 70
3, 658800, Note_on_c, 0, 64, 0
3, 658800, Note_on_c, 0, 62, 56
3, 658800, Note_on_c, 0, 65, 102
3, 659039, Note_on_c, 0, 62, 0
3, 659039, Note_on_c, 0, 64, 64
3, 659160, Note_on_c, 0, 64, 0
3, 659160, Note_on_c, 0, 59, 0
3, 659160, Note_on_c, 0, 62, 59
3, 659160, Note_on_c, 0, 60, 102
3, 659399, Note_on_c, 0, 62, 0
3, 659399, Note_on_c, 0, 61, 59
3, 659477, Note_on_c, 0, 60, 0
3, 659520, Note_on_c, 0, 50, 0
3, 659520, Note_on_c, 0, 65, 0
3, 659520, Note_on_c, 0, 43, 0
3, 659520, Note_on_c, 0, 61, 0
3, 659520, Note_on_c, 0, 66, 78
3, 659520, Note_on_c, 0, 60, 98
3, 659520, Note_on_c, 0, 44, 66
3, 659520, Note_on_c, 0, 51, 66
3, 659880, Note_on_c, 0, 66, 0
3, 659880, Note_on_c, 0, 66, 64
3, 660000, Note_on_c, 0, 66, 0
3, 660000, Note_on_c, 0, 66, 59
3, 660119, Note_on_c, 0, 66, 0
3, 660119, Note_on_c, 0, 66, 60
3, 660240, Note_on_c, 0, 66, 0
3, 660240, Note_on_c, 0, 66, 82
3, 660479, Note_on_c, 0, 66, 0
3, 660479, Note_on_c, 0, 66, 59
3, 660600, Note_on_c, 0, 66, 0
3, 660600, Note_on_c, 0, 60, 0
3, 660600, Note_on_c, 0, 66, 83
3, 660600, Note_on_c, 0, 61, 101
3, 660839, Note_on_c, 0, 66, 0
3, 660839, Note_on_c, 0, 66, 64
3, 660960, Note_on_c, 0, 66, 0
3, 660960, Note_on_c, 0, 61, 0
3, 660960, Note_on_c, 0, 44, 0
3, 660960, Note_on_c, 0, 51, 0
3, 660960, Note_on_c, 0, 66, 59
3, 660960, Note_on_c, 0, 60, 92
3, 660960, Note_on_c, 0, 44, 64
3, 660960, Note_on_c, 0, 51, 64
3, 661320, Note_on_c, 0, 66, 0
3, 661320, Note_on_c, 0, 63, 53
3, 661440, Note_on_c, 0, 63, 0
3, 661440, Note_on_c, 0, 64, 56
3, 661559, Note_on_c, 0, 64, 0
3, 661559, Note_on_c, 0, 65, 65
3, 661680, Note_on_c, 0, 65, 0
3, 661680, Note_on_c, 0, 63, 54
3, 661680, Note_on_c, 0, 66, 102
3, 661919, Note_on_c, 0, 63, 0
3, 661919, Note_on_c, 0, 64, 65
3, 662040, Note_on_c, 0, 64, 0
3, 662040, Note_on_c, 0, 60, 0
3, 662040, Note_on_c, 0, 63, 51
3, 662040, Note_on_c, 0, 61, 102
3, 662279, Note_on_c, 0, 63, 0
3, 662279, Note_on_c, 0, 61, 53
3, 662357, Note_on_c, 0, 61, 0
3, 662400, Note_on_c, 0, 51, 0
3, 662400, Note_on_c, 0, 66, 0
3, 662400, Note_on_c, 0, 44, 0
3, 662400, Note_on_c, 0, 61, 0
3, 662400, Note_on_c, 0, 67, 72
3, 662400, Note_on_c, 0, 61, 94
3, 662400, Note_on_c, 0, 45, 62
3, 662400, Note_on_c, 0, 52, 62
3, 662760, Note_on_c, 0, 52, 0
3, 662760, Note_on_c, 0, 67, 0
3, 662760, Note_on_c, 0, 61, 0
3, 662760, Note_on_c, 0, 45, 0
3, 662760, Note_on_c, 0, 64, 55
3, 662760, Note_on_c, 0, 62, 99
3, 662880, Note_on_c, 0, 64, 0
3, 662880, Note_on_c, 0, 67, 69
3, 662999, Note_on_c, 0, 67, 0
3, 662999, Note_on_c, 0, 64, 55
3, 663120, Note_on_c, 0, 64, 0
3, 663120, Note_on_c, 0, 62, 0
3, 663120, Note_on_c, 0, 67, 62
3, 663120, Note_on_c, 0, 61, 93
3, 663240, Note_on_c, 0, 67, 0
3, 663240, Note_on_c, 0, 64, 53
3, 663359, Note_on_c, 0, 64, 0
3, 663359, Note_on_c, 0, 67, 69
3, 663480, Note_on_c, 0, 67, 0
3, 663480, Note_on_c, 0, 61, 0
3, 663480, Note_on_c, 0, 64, 60
3, 663480, Note_on_c, 0, 62, 101
3, 663600, Note_on_c, 0, 64, 0
3, 663600, Note_on_c, 0, 67, 70
3, 663719, Note_on_c, 0, 67, 0
3, 663719, Note_on_c, 0, 64, 52
3, 663840, Note_on_c, 0, 64, 0
3, 663840, Note_on_c, 0, 62, 0
3, 663840, Note_on_c, 0, 67, 70
3, 663840, Note_on_c, 0, 61, 91
3, 663960, Note_on_c, 0, 67, 0
3, 663960, Note_on_c, 0, 64, 53
3, 664079, Note_on_c, 0, 64, 0
3, 664079, Note_on_c, 0, 67, 69
3, 664200, Note_on_c, 0, 67, 0
3, 664200, Note_on_c, 0, 61, 0
3, 664200, Note_on_c, 0, 64, 52
3, 664200, Note_on_c, 0, 62, 100
3, 664320, Note_on_c, 0, 64, 0
3, 664320, Note_on_c, 0, 67, 63
3, 664439, Note_on_c, 0, 67, 0
3, 664439, Note_on_c, 0, 64, 56
3, 664560, Note_on_c, 0, 64, 0
3, 664560, Note_on_c, 0, 62, 0
3, 664560, Note_on_c, 0, 67, 64
3, 664560, Note_on_c, 0, 61, 91
3, 664680, Note_on_c, 0, 67, 0
3, 664680, Note_on_c, 0, 64, 55
3, 664799, Note_on_c, 0, 64, 0
3, 664799, Note_on_c, 0, 67, 70
3, 664920, Note_on_c, 0, 67, 0
3, 664920, Note_on_c, 0, 61, 0
3, 664920, Note_on_c, 0, 64, 51
3, 664920, Note_on_c, 0, 62, 101
3, 665040, Note_on_c, 0, 64, 0
3, 665040, Note_on_c, 0, 67, 68
3, 665159, Note_on_c, 0, 67, 0
3, 665159, Note_on_c, 0, 64, 49
3, 665280, Note_on_c, 0, 64, 0
3, 665280, Note_on_c, 0, 62, 0
3, 665280, Note_on_c, 0, 53, 61
3, 665280, Note_on_c, 0, 60, 61
3, 665280, Note_on_c, 0, 63, 61
3, 665280, Note_on_c, 0, 65, 61
3, 665280, Note_on_c, 0, 33, 48
3, 665280, Note_on_c, 0, 45, 48
3, 665459, Note_on_c, 0, 45, 0
3, 665459, Note_on_c, 0, 60, 0
3, 665459, Note_on_c, 0, 63, 0
3, 665459, Note_on_c, 0, 53, 0
3, 665459, Note_on_c, 0, 33, 0
3, 665459, Note_on_c, 0, 65, 0
3, 665640, Note_on_c, 0, 55, 67
3, 665640, Note_on_c, 0, 60, 67
3, 665640, Note_on_c, 0, 63, 67
3, 665640, Note_on_c, 0, 67, 67
3, 665640, Note_on_c, 0, 34, 62
3, 665640, Note_on_c, 0, 46, 62
3, 665819, Note_on_c, 0, 46, 0
3, 665819, Note_on_c, 0, 60, 0
3, 665819, Note_on_c, 0, 63, 0
3, 665819, Note_on_c, 0, 55, 0
3, 665819, Note_on_c, 0, 34, 0
3, 665819, Note_on_c, 0, 67, 0
3, 666000, Note_on_c, 0, 53, 55
3, 666000, Note_on_c, 0, 60, 55
3, 666000, Note_on_c, 0, 63, 55
3, 666000, Note_on_c, 0, 65, 55
3, 666000, Note_on_c, 0, 33, 55
3, 666000, Note_on_c, 0, 45, 55
3, 666179, Note_on_c, 0, 45, 0
3, 666179, Note_on_c, 0, 60, 0
3, 666179, Note_on_c, 0, 63, 0
3, 666179, Note_on_c, 0, 53, 0
3, 666179, Note_on_c, 0, 33, 0
3, 666179, Note_on_c, 0, 65, 0
3, 666360, Note_on_c, 0, 55, 65
3, 666360, Note_on_c, 0, 60, 65
3, 666360, Note_on_c, 0, 63, 65
3, 666360, Note_on_c, 0, 67, 65
3, 666360, Note_on_c, 0, 34, 62
3, 666360, Note_on_c, 0, 46, 62
3, 666539, Note_on_c, 0, 46, 0
3, 666539, Note_on_c, 0, 60, 0
3, 666539, Note_on_c, 0, 63, 0
3, 666539, Note_on_c, 0, 55, 0
3, 666539, Note_on_c, 0, 34, 0
3, 666539, Note_on_c, 0, 67, 0
3, 666720, Note_on_c, 0, 53, 57
3, 666720, Note_on_c, 0, 60, 57
3, 666720, Note_on_c, 0, 63, 57
3, 666720, Note_on_c, 0, 65, 57
3, 666720, Note_on_c, 0, 33, 58
3, 666720, Note_on_c, 0, 45, 58
3, 666899, Note_on_c, 0, 45, 0
3, 666899, Note_on_c, 0, 60, 0
3, 666899, Note_on_c, 0, 63, 0
3, 666899, Note_on_c, 0, 53, 0
3, 666899, Note_on_c, 0, 33, 0
3, 666899, Note_on_c, 0, 65, 0
3, 667080, Note_on_c, 0, 55, 64
3, 667080, Note_on_c, 0, 60, 64
3, 667080, Note_on_c, 0, 63, 64
3, 667080, Note_on_c, 0, 67, 64
3, 667080, Note_on_c, 0, 34, 63
3, 667080, Note_on_c, 0, 46, 63
3, 667259, Note_on_c, 0, 46, 0
3, 667259, Note_on_c, 0, 60, 0
3, 667259, Note_on_c, 0, 63, 0
3, 667259, Note_on_c, 0, 55, 0
3, 667259, Note_on_c, 0, 34, 0
3, 667259, Note_on_c, 0, 67, 0
3, 667440, Note_on_c, 0, 53, 60
3, 667440, Note_on_c, 0, 60, 60
3, 667440, Note_on_c, 0, 63, 60
3, 667440, Note_on_c, 0, 65, 60
3, 667440, Note_on_c, 0, 33, 59
3, 667440, Note_on_c, 0, 45, 59
3, 667619, Note_on_c, 0, 45, 0
3, 667619, Note_on_c, 0, 60, 0
3, 667619, Note_on_c, 0, 63, 0
3, 667619, Note_on_c, 0, 53, 0
3, 667619, Note_on_c, 0, 33, 0
3, 667619, Note_on_c, 0, 65, 0
3, 667800, Note_on_c, 0, 55, 60
3, 667800, Note_on_c, 0, 60, 60
3, 667800, Note_on_c, 0, 63, 60
3, 667800, Note_on_c, 0, 67, 60
3, 667800, Note_on_c, 0, 34, 63
3, 667800, Note_on_c, 0, 46, 63
3, 667979, Note_on_c, 0, 46, 0
3, 667979, Note_on_c, 0, 60, 0
3, 667979, Note_on_c, 0, 63, 0
3, 667979, Note_on_c, 0, 55, 0
3, 667979, Note_on_c, 0, 34, 0
3, 667979, Note_on_c, 0, 67, 0
3, 668160, Note_on_c, 0, 65, 58
3, 668160, Note_on_c, 0, 60, 101
3, 668160, Note_on_c, 0, 63, 101
3, 668160, Note_on_c, 0, 53, 89
3, 668160, Note_on_c, 0, 33, 61
3, 668160, Note_on_c, 0, 45, 61
3, 668880, Note_on_c, 0, 65, 0
3, 668880, Note_on_c, 0, 67, 65
3, 669240, Note_on_c, 0, 67, 0
3, 669240, Note_on_c, 0, 65, 59
3, 669600, Note_on_c, 0, 65, 0
3, 669600, Note_on_c, 0, 65, 102
3, 669960, Note_on_c, 0, 60, 0
3, 669960, Note_on_c, 0, 63, 0
3, 669960, Note_on_c, 0, 63, 100
3, 670320, Note_on_c, 0, 63, 0
3, 670320, Note_on_c, 0, 57, 86
3, 670680, Note_on_c, 0, 57, 0
3, 670680, Note_on_c, 0, 53, 0
3, 670680, Note_on_c, 0, 65, 0
3, 670680, Note_on_c, 0, 63, 56
3, 670680, Note_on_c, 0, 55, 90
3, 671040, Note_on_c, 0, 55, 0
3, 671040, Note_on_c, 0, 33, 0
3, 671040, Note_on_c, 0, 45, 0
3, 671040, Note_on_c, 0, 63, 0
3, 671040, Note_on_c, 0, 60, 60
3, 671040, Note_on_c, 0, 63, 60
3, 671040, Note_on_c, 0, 53, 97
3, 671040, Note_on_c, 0, 33, 65
3, 671040, Note_on_c, 0, 45, 65
3, 671760, Note_on_c, 0, 63, 0
3, 671760, Note_on_c, 0, 60, 0
3, 671760, Note_on_c, 0, 60, 94
3, 672480, Note_on_c, 0, 60, 0
3, 672480, Note_on_c, 0, 53, 0
3, 672480, Note_on_c, 0, 61, 78
3, 672480, Note_on_c, 0, 63, 78
3, 672480, Note_on_c, 0, 53, 100
3, 672797, Note_on_c, 0, 63, 0
3, 672797, Note_on_c, 0, 61, 0
3, 672840, Note_on_c, 0, 57, 55
3, 673560, Note_on_c, 0, 57, 0
3, 673560, Note_on_c, 0, 53, 0
3, 673560, Note_on_c, 0, 55, 63
3, 673560, Note_on_c, 0, 51, 88
3, 673920, Note_on_c, 0, 55, 0
3, 673920, Note_on_c, 0, 45, 0
3, 673920, Note_on_c, 0, 33, 0
3, 673920, Note_on_c, 0, 53, 99
3, 673920, Note_on_c, 0, 33, 65
3, 673920, Note_on_c, 0, 45, 65
3, 674879, Note_on_c, 0, 58, 56
3, 675000, Note_on_c, 0, 58, 0
3, 675000, Note_on_c, 0, 57, 57
3, 675239, Note_on_c, 0, 57, 0
3, 675239, Note_on_c, 0, 55, 59
3, 675360, Note_on_c, 0, 55, 0
3, 675360, Note_on_c, 0, 51, 0
3, 675360, Note_on_c, 0, 53, 0
3, 675360, Note_on_c, 0, 53, 66
3, 675360, Note_on_c, 0, 57, 66
3, 675480, Note_on_c, 0, 57, 0
3, 675480, Note_on_c, 0, 53, 0
3, 675480, Note_on_c, 0, 55, 59
3, 675599, Note_on_c, 0, 55, 0
3, 675599, Note_on_c, 0, 56, 59
3, 675720, Note_on_c, 0, 56, 0
3, 675720, Note_on_c, 0, 57, 61
3, 675959, Note_on_c, 0, 57, 0
3, 675959, Note_on_c, 0, 55, 58
3, 676080, Note_on_c, 0, 55, 0
3, 676080, Note_on_c, 0, 53, 55
3, 676319, Note_on_c, 0, 53, 0
3, 676319, Note_on_c, 0, 52, 60
3, 676440, Note_on_c, 0, 52, 0
3, 676440, Note_on_c, 0, 51, 62
3, 676679, Note_on_c, 0, 51, 0
3, 676679, Note_on_c, 0, 50, 60
3, 676800, Note_on_c, 0, 50, 0
3, 676800, Note_on_c, 0, 33, 0
3, 676800, Note_on_c, 0, 45, 0
3, 676800, Note_on_c, 0, 48, 57
3, 676800, Note_on_c, 0, 41, 62
3, 676800, Note_on_c, 0, 45, 62
3, 676920, Note_on_c, 0, 48, 0
3, 676920, Note_on_c, 0, 49, 66
3, 677039, Note_on_c, 0, 49, 0
3, 677039, Note_on_c, 0, 50, 64
3, 677160, Note_on_c, 0, 50, 0
3, 677160, Note_on_c, 0, 51, 64
3, 677160, Note_on_c, 0, 51, 89
3, 677339, Note_on_c, 0, 51, 0
3, 677520, Note_on_c, 0, 50, 96
3, 677699, Note_on_c, 0, 50, 0
3, 677880, Note_on_c, 0, 48, 97
3, 678059, Note_on_c, 0, 48, 0
3, 678240, Note_on_c, 0, 51, 0
3, 678240, Note_on_c, 0, 45, 0
3, 678240, Note_on_c, 0, 46, 52
3, 678419, Note_on_c, 0, 46, 0
3, 678600, Note_on_c, 0, 45, 61
3, 678779, Note_on_c, 0, 45, 0
3, 678960, Note_on_c, 0, 43, 56
3, 679139, Note_on_c, 0, 43, 0
3, 679320, Note_on_c, 0, 41, 0
3, 679320, Note_on_c, 0, 41, 58
3, 679499, Note_on_c, 0, 41, 0
3, 679680, Note_on_c, 0, 45, 30
3, 679680, Note_on_c, 0, 35, 84
3, 679680, Note_on_c, 0, 39, 86
3, 680040, Note_on_c, 0, 39, 0
3, 680040, Note_on_c, 0, 47, 33
3, 680099, Note_on_c, 0, 47, 0
3, 680160, Note_on_c, 0, 47, 32
3, 680219, Note_on_c, 0, 47, 0
3, 680279, Note_on_c, 0, 47, 39
3, 680338, Note_on_c, 0, 47, 0
3, 680400, Note_on_c, 0, 47, 33
3, 680579, Note_on_c, 0, 47, 0
3, 680760, Note_on_c, 0, 47, 38
3, 680819, Note_on_c, 0, 47, 0
3, 680880, Note_on_c, 0, 47, 36
3, 680939, Note_on_c, 0, 47, 0
3, 680999, Note_on_c, 0, 47, 38
3, 681058, Note_on_c, 0, 47, 0
3, 681120, Note_on_c, 0, 47, 37
3, 681299, Note_on_c, 0, 47, 0
3, 681480, Note_on_c, 0, 45, 0
3, 681480, Note_on_c, 0, 45, 29
3, 681600, Note_on_c, 0, 45, 0
3, 681600, Note_on_c, 0, 47, 34
3, 681719, Note_on_c, 0, 47, 0
3, 681719, Note_on_c, 0, 48, 43
3, 681840, Note_on_c, 0, 48, 0
3, 681840, Note_on_c, 0, 45, 64
3, 681840, Note_on_c, 0, 49, 64
3, 682079, Note_on_c, 0, 49, 0
3, 682079, Note_on_c, 0, 45, 0
3, 682079, Note_on_c, 0, 47, 30
3, 682200, Note_on_c, 0, 47, 0
3, 682200, Note_on_c, 0, 45, 41
3, 682200, Note_on_c, 0, 51, 41
3, 682439, Note_on_c, 0, 51, 0
3, 682439, Note_on_c, 0, 45, 0
3, 682439, Note_on_c, 0, 44, 30
3, 682560, Note_on_c, 0, 44, 0
3, 682560, Note_on_c, 0, 35, 0
3, 682560, Note_on_c, 0, 47, 35
3, 682560, Note_on_c, 0, 51, 35
3, 682560, Note_on_c, 0, 42, 35
3, 682560, Note_on_c, 0, 35, 101
3, 682920, Note_on_c, 0, 42, 0
3, 682920, Note_on_c, 0, 47, 97
3, 682979, Note_on_c, 0, 47, 0
3, 683040, Note_on_c, 0, 47, 97
3, 683099, Note_on_c, 0, 47, 0
3, 683159, Note_on_c, 0, 47, 97
3, 683218, Note_on_c, 0, 47, 0
3, 683280, Note_on_c, 0, 47, 97
3, 683459, Note_on_c, 0, 47, 0
3, 683640, Note_on_c, 0, 47, 98
3, 683699, Note_on_c, 0, 47, 0
3, 683760, Note_on_c, 0, 47, 98
3, 683819, Note_on_c, 0, 47, 0
3, 683827, Note_on_c, 0, 47, 0
3, 683879, Note_on_c, 0, 47, 98
3, 683938, Note_on_c, 0, 47, 0
3, 684000, Note_on_c, 0, 47, 98
3, 684179, Note_on_c, 0, 47, 0
3, 684360, Note_on_c, 0, 51, 0
3, 684360, Note_on_c, 0, 49, 38
3, 684480, Note_on_c, 0, 49, 0
3, 684480, Note_on_c, 0, 50, 38
3, 684599, Note_on_c, 0, 50, 0
3, 684599, Note_on_c, 0, 51, 38
3, 684720, Note_on_c, 0, 51, 0
3, 684720, Note_on_c, 0, 49, 38
3, 684720, Note_on_c, 0, 52, 38
3, 684959, Note_on_c, 0, 52, 0
3, 684959, Note_on_c, 0, 49, 0
3, 684959, Note_on_c, 0, 51, 38
3, 685080, Note_on_c, 0, 51, 0
3, 685080, Note_on_c, 0, 49, 39
3, 685080, Note_on_c, 0, 54, 39
3, 685319, Note_on_c, 0, 54, 0
3, 685319, Note_on_c, 0, 49, 0
3, 685319, Note_on_c, 0, 47, 39
3, 685440, Note_on_c, 0, 47, 0
3, 685440, Note_on_c, 0, 35, 0
3, 685440, Note_on_c, 0, 45, 39
3, 685440, Note_on_c, 0, 51, 39
3, 685440, Note_on_c, 0, 35, 39
3, 685800, Note_on_c, 0, 35, 0
3, 685800, Note_on_c, 0, 51, 0
3, 685800, Note_on_c, 0, 45, 0
3, 685800, Note_on_c, 0, 51, 40
3, 685800, Note_on_c, 0, 35, 40
3, 685920, Note_on_c, 0, 35, 0
3, 685920, Note_on_c, 0, 51, 0
3, 685920, Note_on_c, 0, 52, 40
3, 685920, Note_on_c, 0, 47, 40
3, 686039, Note_on_c, 0, 47, 0
3, 686039, Note_on_c, 0, 52, 0
3, 686039, Note_on_c, 0, 53, 40
3, 686039, Note_on_c, 0, 35, 40
3, 686160, Note_on_c, 0, 53, 0
3, 686160, Note_on_c, 0, 54, 40
3, 686160, Note_on_c, 0, 47, 40
3, 686278, Note_on_c, 0, 54, 0
3, 686399, Note_on_c, 0, 52, 40
3, 686520, Note_on_c, 0, 52, 0
3, 686520, Note_on_c, 0, 51, 40
3, 686520, Note_on_c, 0, 56, 40
3, 686759, Note_on_c, 0, 56, 0
3, 686759, Note_on_c, 0, 51, 0
3, 686759, Note_on_c, 0, 49, 41
3, 686880, Note_on_c, 0, 49, 0
3, 686880, Note_on_c, 0, 47, 0
3, 686880, Note_on_c, 0, 47, 41
3, 686880, Note_on_c, 0, 52, 41
3, 686880, Note_on_c, 0, 56, 41
3, 687240, Note_on_c, 0, 56, 0
3, 687240, Note_on_c, 0, 35, 0
3, 687240, Note_on_c, 0, 47, 0
3, 687240, Note_on_c, 0, 52, 0
3, 687240, Note_on_c, 0, 52, 41
3, 687240, Note_on_c, 0, 35, 41
3, 687360, Note_on_c, 0, 35, 0
3, 687360, Note_on_c, 0, 52, 0
3, 687360, Note_on_c, 0, 54, 42
3, 687360, Note_on_c, 0, 47, 42
3, 687479, Note_on_c, 0, 47, 0
3, 687479, Note_on_c, 0, 54, 0
3, 687479, Note_on_c, 0, 55, 42
3, 687479, Note_on_c, 0, 35, 42
3, 687600, Note_on_c, 0, 55, 0
3, 687600, Note_on_c, 0, 56, 42
3, 687600, Note_on_c, 0, 47, 42
3, 687718, Note_on_c, 0, 56, 0
3, 687839, Note_on_c, 0, 54, 42
3, 687960, Note_on_c, 0, 54, 0
3, 687960, Note_on_c, 0, 52, 42
3, 687960, Note_on_c, 0, 56, 42
3, 688199, Note_on_c, 0, 56, 0
3, 688199, Note_on_c, 0, 52, 0
3, 688199, Note_on_c, 0, 51, 43
3, 688320, Note_on_c, 0, 51, 0
3, 688320, Note_on_c, 0, 49, 43
3, 688320, Note_on_c, 0, 57, 43
3, 688680, Note_on_c, 0, 57, 0
3, 688680, Note_on_c, 0, 35, 0
3, 688680, Note_on_c, 0, 47, 0
3, 688680, Note_on_c, 0, 49, 0
3, 688680, Note_on_c, 0, 57, 43
3, 688680, Note_on_c, 0, 35, 43
3, 688800, Note_on_c, 0, 35, 0
3, 688800, Note_on_c, 0, 57, 0
3, 688800, Note_on_c, 0, 59, 43
3, 688800, Note_on_c, 0, 47, 43
3, 688919, Note_on_c, 0, 47, 0
3, 688919, Note_on_c, 0, 59, 0
3, 688919, Note_on_c, 0, 60, 43
3, 688919, Note_on_c, 0, 35, 43
3, 689040, Note_on_c, 0, 35, 0
3, 689040, Note_on_c, 0, 60, 0
3, 689040, Note_on_c, 0, 57, 44
3, 689040, Note_on_c, 0, 54, 102
3, 689040, Note_on_c, 0, 47, 44
3, 689279, Note_on_c, 0, 57, 0
3, 689279, Note_on_c, 0, 59, 44
3, 689400, Note_on_c, 0, 59, 0
3, 689400, Note_on_c, 0, 47, 0
3, 689400, Note_on_c, 0, 57, 44
3, 689400, Note_on_c, 0, 35, 44
3, 689520, Note_on_c, 0, 35, 0
3, 689520, Note_on_c, 0, 47, 44
3, 689639, Note_on_c, 0, 47, 0
3, 689639, Note_on_c, 0, 57, 0
3, 689639, Note_on_c, 0, 56, 44
3, 689639, Note_on_c, 0, 35, 44
3, 689760, Note_on_c, 0, 56, 0
3, 689760, Note_on_c, 0, 54, 0
3, 689760, Note_on_c, 0, 54, 102
3, 689760, Note_on_c, 0, 47, 45
3, 689880, Note_on_c, 0, 55, 45
3, 689999, Note_on_c, 0, 55, 0
3, 689999, Note_on_c, 0, 56, 45
3, 690120, Note_on_c, 0, 56, 0
3, 690120, Note_on_c, 0, 57, 45
3, 690359, Note_on_c, 0, 57, 0
3, 690359, Note_on_c, 0, 56, 45
3, 690480, Note_on_c, 0, 56, 0
3, 690480, Note_on_c, 0, 54, 45
3, 690719, Note_on_c, 0, 54, 0
3, 690719, Note_on_c, 0, 52, 46
3, 690840, Note_on_c, 0, 52, 0
3, 690840, Note_on_c, 0, 51, 46
3, 691079, Note_on_c, 0, 51, 0
3, 691079, Note_on_c, 0, 49, 46
3, 691200, Note_on_c, 0, 49, 0
3, 691200, Note_on_c, 0, 54, 0
3, 691200, Note_on_c, 0, 47, 0
3, 691200, Note_on_c, 0, 47, 46
3, 691560, Note_on_c, 0, 47, 0
3, 691560, Note_on_c, 0, 35, 0
3, 691560, Note_on_c, 0, 54, 47
3, 691560, Note_on_c, 0, 35, 47
3, 691680, Note_on_c, 0, 35, 0
3, 691680, Note_on_c, 0, 54, 0
3, 691680, Note_on_c, 0, 55, 47
3, 691680, Note_on_c, 0, 47, 47
3, 691799, Note_on_c, 0, 47, 0
3, 691799, Note_on_c, 0, 55, 0
3, 691799, Note_on_c, 0, 56, 47
3, 691799, Note_on_c, 0, 35, 47
3, 691920, Note_on_c, 0, 35, 0
3, 691920, Note_on_c, 0, 56, 0
3, 691920, Note_on_c, 0, 57, 47
3, 691920, Note_on_c, 0, 47, 47
3, 691920, Note_on_c, 0, 35, 102
3, 692038, Note_on_c, 0, 57, 0
3, 692159, Note_on_c, 0, 56, 48
3, 692280, Note_on_c, 0, 56, 0
3, 692280, Note_on_c, 0, 54, 48
3, 692519, Note_on_c, 0, 54, 0
3, 692519, Note_on_c, 0, 52, 48
3, 692640, Note_on_c, 0, 52, 0
3, 692640, Note_on_c, 0, 47, 0
3, 692640, Note_on_c, 0, 51, 48
3, 692640, Note_on_c, 0, 47, 48
3, 692760, Note_on_c, 0, 51, 0
3, 692760, Note_on_c, 0, 49, 48
3, 692879, Note_on_c, 0, 49, 0
3, 692879, Note_on_c, 0, 51, 48
3, 693000, Note_on_c, 0, 51, 0
3, 693000, Note_on_c, 0, 47, 0
3, 693000, Note_on_c, 0, 52, 49
3, 693118, Note_on_c, 0, 52, 0
3, 693239, Note_on_c, 0, 51, 49
3, 693360, Note_on_c, 0, 51, 0
3, 693360, Note_on_c, 0, 49, 49
3, 693360, Note_on_c, 0, 54, 49
3, 693599, Note_on_c, 0, 54, 0
3, 693599, Note_on_c, 0, 49, 0
3, 693599, Note_on_c, 0, 47, 49
3, 693720, Note_on_c, 0, 47, 0
3, 693720, Note_on_c, 0, 54, 50
3, 693720, Note_on_c, 0, 45, 50
3, 693959, Note_on_c, 0, 45, 0
3, 693959, Note_on_c, 0, 44, 50
3, 694080, Note_on_c, 0, 44, 0
3, 694080, Note_on_c, 0, 54, 0
3, 694080, Note_on_c, 0, 35, 0
3, 694080, Note_on_c, 0, 54, 50
3, 694080, Note_on_c, 0, 57, 50
3, 694080, Note_on_c, 0, 42, 50
3, 694080, Note_on_c, 0, 35, 102
3, 694259, Note_on_c, 0, 57, 0
3, 694259, Note_on_c, 0, 54, 0
3, 694440, Note_on_c, 0, 42, 0
3, 694440, Note_on_c, 0, 35, 0
3, 694440, Note_on_c, 0, 54, 50
3, 694440, Note_on_c, 0, 35, 102
3, 694560, Note_on_c, 0, 35, 0
3, 694560, Note_on_c, 0, 54, 0
3, 694560, Note_on_c, 0, 55, 51
3, 694560, Note_on_c, 0, 47, 102
3, 694679, Note_on_c, 0, 47, 0
3, 694679, Note_on_c, 0, 55, 0
3, 694679, Note_on_c, 0, 56, 51
3, 694679, Note_on_c, 0, 35, 102
3, 694800, Note_on_c, 0, 56, 0
3, 694800, Note_on_c, 0, 57, 51
3, 694800, Note_on_c, 0, 47, 51
3, 695039, Note_on_c, 0, 57, 0
3, 695039, Note_on_c, 0, 56, 51
3, 695160, Note_on_c, 0, 56, 0
3, 695160, Note_on_c, 0, 54, 51
3, 695399, Note_on_c, 0, 54, 0
3, 695399, Note_on_c, 0, 52, 52
3, 695520, Note_on_c, 0, 52, 0
3, 695520, Note_on_c, 0, 47, 0
3, 695520, Note_on_c, 0, 51, 52
3, 695520, Note_on_c, 0, 47, 52
3, 695640, Note_on_c, 0, 51, 0
3, 695640, Note_on_c, 0, 49, 52
3, 695700, Note_on_c, 0, 47, 0
3, 695759, Note_on_c, 0, 49, 0
3, 695759, Note_on_c, 0, 51, 52
3, 695880, Note_on_c, 0, 51, 0
3, 695880, Note_on_c, 0, 52, 52
3, 696119, Note_on_c, 0, 52, 0
3, 696119, Note_on_c, 0, 51, 53
3, 696240, Note_on_c, 0, 51, 0
3, 696240, Note_on_c, 0, 49, 53
3, 696240, Note_on_c, 0, 54, 53
3, 696479, Note_on_c, 0, 54, 0
3, 696479, Note_on_c, 0, 49, 0
3, 696479, Note_on_c, 0, 47, 53
3, 696600, Note_on_c, 0, 47, 0
3, 696600, Note_on_c, 0, 54, 53
3, 696600, Note_on_c, 0, 45, 53
3, 696839, Note_on_c, 0, 45, 0
3, 696839, Note_on_c, 0, 44, 53
3, 696960, Note_on_c, 0, 44, 0
3, 696960, Note_on_c, 0, 54, 0
3, 696960, Note_on_c, 0, 35, 0
3, 696960, Note_on_c, 0, 54, 54
3, 696960, Note_on_c, 0, 57, 54
3, 696960, Note_on_c, 0, 42, 54
3, 696960, Note_on_c, 0, 35, 102
3, 697320, Note_on_c, 0, 35, 0
3, 697320, Note_on_c, 0, 54, 0
3, 697320, Note_on_c, 0, 57, 0
3, 697320, Note_on_c, 0, 42, 0
3, 697320, Note_on_c, 0, 54, 54
3, 697320, Note_on_c, 0, 35, 102
3, 697440, Note_on_c, 0, 35, 0
3, 697440, Note_on_c, 0, 54, 0
3, 697440, Note_on_c, 0, 55, 54
3, 697440, Note_on_c, 0, 47, 102
3, 697559, Note_on_c, 0, 47, 0
3, 697559, Note_on_c, 0, 55, 0
3, 697559, Note_on_c, 0, 56, 54
3, 697559, Note_on_c, 0, 35, 102
3, 697680, Note_on_c, 0, 56, 0
3, 697680, Note_on_c, 0, 57, 55
3, 697680, Note_on_c, 0, 47, 55
3, 697919, Note_on_c, 0, 57, 0
3, 697919, Note_on_c, 0, 54, 55
3, 698040, Note_on_c, 0, 54, 0
3, 698040, Note_on_c, 0, 56, 55
3, 698040, Note_on_c, 0, 61, 55
3, 698160, Note_on_c, 0, 61, 0
3, 698160, Note_on_c, 0, 56, 0
3, 698160, Note_on_c, 0, 57, 55
3, 698279, Note_on_c, 0, 57, 0
3, 698279, Note_on_c, 0, 58, 55
3, 698400, Note_on_c, 0, 58, 0
3, 698400, Note_on_c, 0, 47, 0
3, 698400, Note_on_c, 0, 59, 55
3, 698400, Note_on_c, 0, 61, 55
3, 698579, Note_on_c, 0, 61, 0
3, 698579, Note_on_c, 0, 59, 0
3, 698760, Note_on_c, 0, 35, 0
3, 698760, Note_on_c, 0, 56, 56
3, 698760, Note_on_c, 0, 35, 102
3, 698880, Note_on_c, 0, 35, 0
3, 698880, Note_on_c, 0, 56, 0
3, 698880, Note_on_c, 0, 57, 56
3, 698880, Note_on_c, 0, 47, 102
3, 698999, Note_on_c, 0, 47, 0
3, 698999, Note_on_c, 0, 57, 0
3, 698999, Note_on_c, 0, 59, 56
3, 698999, Note_on_c, 0, 35, 102
3, 699120, Note_on_c, 0, 59, 0
3, 699120, Note_on_c, 0, 61, 56
3, 699120, Note_on_c, 0, 47, 56
3, 699359, Note_on_c, 0, 61, 0
3, 699359, Note_on_c, 0, 56, 57
3, 699480, Note_on_c, 0, 56, 0
3, 699480, Note_on_c, 0, 59, 57
3, 699480, Note_on_c, 0, 61, 57
3, 699600, Note_on_c, 0, 61, 0
3, 699600, Note_on_c, 0, 59, 0
3, 699600, Note_on_c, 0, 60, 57
3, 699719, Note_on_c, 0, 60, 0
3, 699719, Note_on_c, 0, 61, 57
3, 699840, Note_on_c, 0, 61, 0
3, 699840, Note_on_c, 0, 59, 57
3, 699840, Note_on_c, 0, 61, 57
3, 699840, Note_on_c, 0, 62, 57
3, 700200, Note_on_c, 0, 62, 0
3, 700200, Note_on_c, 0, 59, 0
3, 700200, Note_on_c, 0, 61, 0
3, 700200, Note_on_c, 0, 59, 58
3, 700200, Note_on_c, 0, 63, 58
3, 700200, Note_on_c, 0, 57, 102
3, 700320, Note_on_c, 0, 63, 0
3, 700320, Note_on_c, 0, 59, 0
3, 700320, Note_on_c, 0, 61, 58
3, 700439, Note_on_c, 0, 61, 0
3, 700439, Note_on_c, 0, 62, 58
3, 700560, Note_on_c, 0, 62, 0
3, 700560, Note_on_c, 0, 57, 0
3, 700560, Note_on_c, 0, 63, 58
3, 700560, Note_on_c, 0, 57, 102
3, 700560, Note_on_c, 0, 59, 102
3, 700799, Note_on_c, 0, 59, 0
3, 700799, Note_on_c, 0, 57, 0
3, 700799, Note_on_c, 0, 61, 102
3, 700920, Note_on_c, 0, 61, 0
3, 700920, Note_on_c, 0, 47, 0
3, 700920, Note_on_c, 0, 35, 0
3, 700920, Note_on_c, 0, 59, 102
3, 700920, Note_on_c, 0, 35, 102
3, 701040, Note_on_c, 0, 35, 0
3, 701040, Note_on_c, 0, 47, 102
3, 701159, Note_on_c, 0, 47, 0
3, 701159, Note_on_c, 0, 59, 0
3, 701159, Note_on_c, 0, 58, 102
3, 701159, Note_on_c, 0, 35, 102
3, 701280, Note_on_c, 0, 58, 0
3, 701280, Note_on_c, 0, 57, 102
3, 701280, Note_on_c, 0, 47, 59
3, 701519, Note_on_c, 0, 63, 0
3, 701519, Note_on_c, 0, 59, 59
3, 701640, Note_on_c, 0, 59, 0
3, 701640, Note_on_c, 0, 57, 0
3, 701640, Note_on_c, 0, 61, 59
3, 701640, Note_on_c, 0, 58, 102
3, 701760, Note_on_c, 0, 61, 0
3, 701760, Note_on_c, 0, 62, 60
3, 701879, Note_on_c, 0, 62, 0
3, 701879, Note_on_c, 0, 63, 60
3, 702000, Note_on_c, 0, 63, 0
3, 702000, Note_on_c, 0, 58, 0
3, 702000, Note_on_c, 0, 61, 60
3, 702000, Note_on_c, 0, 64, 60
3, 702000, Note_on_c, 0, 55, 102
3, 702239, Note_on_c, 0, 64, 0
3, 702239, Note_on_c, 0, 61, 0
3, 702239, Note_on_c, 0, 63, 60
3, 702360, Note_on_c, 0, 63, 0
3, 702360, Note_on_c, 0, 47, 0
3, 702360, Note_on_c, 0, 35, 0
3, 702360, Note_on_c, 0, 61, 60
3, 702360, Note_on_c, 0, 35, 102
3, 702480, Note_on_c, 0, 35, 0
3, 702480, Note_on_c, 0, 47, 102
3, 702599, Note_on_c, 0, 47, 0
3, 702599, Note_on_c, 0, 61, 0
3, 702599, Note_on_c, 0, 58, 61
3, 702599, Note_on_c, 0, 35, 102
3, 702720, Note_on_c, 0, 35, 0
3, 702720, Note_on_c, 0, 58, 0
3, 702720, Note_on_c, 0, 55, 0
3, 702720, Note_on_c, 0, 63, 61
3, 702720, Note_on_c, 0, 66, 61
3, 702720, Note_on_c, 0, 59, 102
3, 702720, Note_on_c, 0, 57, 102
3, 702720, Note_on_c, 0, 47, 61
3, 702720, Note_on_c, 0, 35, 102
3, 703080, Note_on_c, 0, 35, 0
3, 703080, Note_on_c, 0, 57, 0
3, 703080, Note_on_c, 0, 66, 0
3, 703080, Note_on_c, 0, 63, 0
3, 703080, Note_on_c, 0, 47, 0
3, 703080, Note_on_c, 0, 63, 54
3, 703080, Note_on_c, 0, 35, 98
3, 703200, Note_on_c, 0, 35, 0
3, 703200, Note_on_c, 0, 63, 0
3, 703200, Note_on_c, 0, 64, 63
3, 703200, Note_on_c, 0, 47, 101
3, 703319, Note_on_c, 0, 47, 0
3, 703319, Note_on_c, 0, 64, 0
3, 703319, Note_on_c, 0, 65, 62
3, 703319, Note_on_c, 0, 35, 91
3, 703440, Note_on_c, 0, 65, 0
3, 703440, Note_on_c, 0, 66, 66
3, 703440, Note_on_c, 0, 47, 49
3, 703679, Note_on_c, 0, 66, 0
3, 703679, Note_on_c, 0, 65, 56
3, 703800, Note_on_c, 0, 65, 0
3, 703800, Note_on_c, 0, 47, 0
3, 703800, Note_on_c, 0, 35, 0
3, 703800, Note_on_c, 0, 63, 62
3, 703800, Note_on_c, 0, 30, 52
3, 703800, Note_on_c, 0, 42, 52
3, 703979, Note_on_c, 0, 42, 0
3, 703979, Note_on_c, 0, 30, 0
3, 704039, Note_on_c, 0, 63, 0
3, 704039, Note_on_c, 0, 61, 61
3, 704160, Note_on_c, 0, 61, 0
3, 704160, Note_on_c, 0, 59, 0
3, 704160, Note_on_c, 0, 59, 54
3, 704160, Note_on_c, 0, 35, 64
3, 704160, Note_on_c, 0, 47, 64
3, 704399, Note_on_c, 0, 59, 0
3, 704399, Note_on_c, 0, 58, 60
3, 704520, Note_on_c, 0, 58, 0
3, 704520, Note_on_c, 0, 57, 70
3, 704520, Note_on_c, 0, 61, 70
3, 704759, Note_on_c, 0, 61, 0
3, 704759, Note_on_c, 0, 57, 0
3, 704759, Note_on_c, 0, 56, 57
3, 704880, Note_on_c, 0, 56, 0
3, 704880, Note_on_c, 0, 54, 75
3, 704880, Note_on_c, 0, 61, 75
3, 705119, Note_on_c, 0, 61, 0
3, 705119, Note_on_c, 0, 54, 0
3, 705119, Note_on_c, 0, 52, 54
3, 705240, Note_on_c, 0, 52, 0
3, 705240, Note_on_c, 0, 51, 70
3, 705240, Note_on_c, 0, 59, 70
3, 705479, Note_on_c, 0, 59, 0
3, 705479, Note_on_c, 0, 35, 0
3, 705479, Note_on_c, 0, 47, 0
3, 705479, Note_on_c, 0, 51, 0
3, 705479, Note_on_c, 0, 49, 59
3, 705600, Note_on_c, 0, 49, 0
3, 705600, Note_on_c, 0, 59, 56
3, 705600, Note_on_c, 0, 63, 56
3, 705600, Note_on_c, 0, 57, 101
3, 705600, Note_on_c, 0, 47, 61
3, 705839, Note_on_c, 0, 63, 0
3, 705839, Note_on_c, 0, 59, 0
3, 705839, Note_on_c, 0, 61, 54
3, 705960, Note_on_c, 0, 61, 0
3, 705960, Note_on_c, 0, 47, 0
3, 705960, Note_on_c, 0, 63, 65
3, 705960, Note_on_c, 0, 35, 70
3, 705960, Note_on_c, 0, 47, 70
3, 706080, Note_on_c, 0, 63, 0
3, 706080, Note_on_c, 0, 64, 66
3, 706199, Note_on_c, 0, 64, 0
3, 706199, Note_on_c, 0, 65, 65
3, 706320, Note_on_c, 0, 65, 0
3, 706320, Note_on_c, 0, 66, 70
3, 706559, Note_on_c, 0, 66, 0
3, 706559, Note_on_c, 0, 64, 56
3, 706593, Note_on_c, 0, 47, 0
3, 706593, Note_on_c, 0, 35, 0
3, 706680, Note_on_c, 0, 64, 0
3, 706680, Note_on_c, 0, 63, 56
3, 706680, Note_on_c, 0, 30, 54
3, 706680, Note_on_c, 0, 42, 54
3, 706859, Note_on_c, 0, 42, 0
3, 706859, Note_on_c, 0, 30, 0
3, 706919, Note_on_c, 0, 63, 0
3, 706919, Note_on_c, 0, 61, 52
3, 707040, Note_on_c, 0, 61, 0
3, 707040, Note_on_c, 0, 57, 0
3, 707040, Note_on_c, 0, 59, 58
3, 707040, Note_on_c, 0, 35, 70
3, 707040, Note_on_c, 0, 47, 70
3, 707279, Note_on_c, 0, 59, 0
3, 707279, Note_on_c, 0, 58, 58
3, 707400, Note_on_c, 0, 58, 0
3, 707400, Note_on_c, 0, 57, 67
3, 707400, Note_on_c, 0, 61, 67
3, 707639, Note_on_c, 0, 61, 0
3, 707639, Note_on_c, 0, 57, 0
3, 707639, Note_on_c, 0, 56, 55
3, 707760, Note_on_c, 0, 56, 0
3, 707760, Note_on_c, 0, 54, 72
3, 707760, Note_on_c, 0, 61, 72
3, 707999, Note_on_c, 0, 61, 0
3, 707999, Note_on_c, 0, 54, 0
3, 707999, Note_on_c, 0, 52, 53
3, 708120, Note_on_c, 0, 52, 0
3, 708120, Note_on_c, 0, 47, 0
3, 708120, Note_on_c, 0, 35, 0
3, 708120, Note_on_c, 0, 51, 70
3, 708120, Note_on_c, 0, 59, 70
3, 708120, Note_on_c, 0, 35, 62
3, 708120, Note_on_c, 0, 47, 62
3, 708359, Note_on_c, 0, 47, 0
3, 708359, Note_on_c, 0, 51, 0
3, 708359, Note_on_c, 0, 59, 0
3, 708359, Note_on_c, 0, 35, 0
3, 708359, Note_on_c, 0, 49, 61
3, 708480, Note_on_c, 0, 49, 0
3, 708480, Note_on_c, 0, 57, 65
3, 708480, Note_on_c, 0, 59, 65
3, 708480, Note_on_c, 0, 63, 65
3, 708480, Note_on_c, 0, 47, 58
3, 708840, Note_on_c, 0, 47, 0
3, 708840, Note_on_c, 0, 30, 52
3, 708840, Note_on_c, 0, 42, 52
3, 709200, Note_on_c, 0, 42, 0
3, 709200, Note_on_c, 0, 30, 0
3, 709200, Note_on_c, 0, 35, 66
3, 709200, Note_on_c, 0, 47, 66
3, 709429, Note_on_c, 0, 63, 0
3, 709429, Note_on_c, 0, 57, 0
3, 709429, Note_on_c, 0, 59, 0
3, 709560, Note_on_c, 0, 52, 50
3, 709560, Note_on_c, 0, 56, 50
3, 709560, Note_on_c, 0, 61, 50
3, 709739, Note_on_c, 0, 61, 0
3, 709739, Note_on_c, 0, 52, 0
3, 709739, Note_on_c, 0, 56, 0
3, 709920, Note_on_c, 0, 56, 66
3, 709920, Note_on_c, 0, 61, 66
3, 709920, Note_on_c, 0, 64, 66
3, 710099, Note_on_c, 0, 64, 0
3, 710099, Note_on_c, 0, 56, 0
3, 710099, Note_on_c, 0, 61, 0
3, 710280, Note_on_c, 0, 54, 56
3, 710280, Note_on_c, 0, 57, 56
3, 710280, Note_on_c, 0, 63, 56
3, 710459, Note_on_c, 0, 63, 0
3, 710459, Note_on_c, 0, 54, 0
3, 710459, Note_on_c, 0, 57, 0
3, 710640, Note_on_c, 0, 57, 82
3, 710640, Note_on_c, 0, 63, 82
3, 710640, Note_on_c, 0, 66, 82
3, 711000, Note_on_c, 0, 35, 0
3, 711000, Note_on_c, 0, 47, 0
3, 711000, Note_on_c, 0, 30, 58
3, 711000, Note_on_c, 0, 42, 58
3, 711179, Note_on_c, 0, 42, 0
3, 711179, Note_on_c, 0, 30, 0
3, 711360, Note_on_c, 0, 35, 81
3, 711360, Note_on_c, 0, 47, 81
3, 711720, Note_on_c, 0, 66, 0
3, 711720, Note_on_c, 0, 63, 0
3, 711720, Note_on_c, 0, 57, 0
3, 711720, Note_on_c, 0, 56, 54
3, 711720, Note_on_c, 0, 59, 54
3, 711720, Note_on_c, 0, 64, 54
3, 711899, Note_on_c, 0, 64, 0
3, 711899, Note_on_c, 0, 56, 0
3, 711899, Note_on_c, 0, 59, 0
3, 712080, Note_on_c, 0, 59, 81
3, 712080, Note_on_c, 0, 64, 81
3, 712080, Note_on_c, 0, 68, 81
3, 712309, Note_on_c, 0, 35, 0
3, 712309, Note_on_c, 0, 47, 0
3, 712440, Note_on_c, 0, 35, 50
3, 712560, Note_on_c, 0, 35, 0
3, 712560, Note_on_c, 0, 47, 69
3, 712679, Note_on_c, 0, 47, 0
3, 712679, Note_on_c, 0, 35, 51
3, 712800, Note_on_c, 0, 35, 0
3, 712800, Note_on_c, 0, 47, 71
3, 712800, Note_on_c, 0, 35, 101
3, 713160, Note_on_c, 0, 35, 0
3, 713160, Note_on_c, 0, 47, 0
3, 713160, Note_on_c, 0, 35, 101
3, 713280, Note_on_c, 0, 35, 0
3, 713280, Note_on_c, 0, 47, 101
3, 713399, Note_on_c, 0, 47, 0
3, 713399, Note_on_c, 0, 35, 88
3, 713520, Note_on_c, 0, 64, 0
3, 713520, Note_on_c, 0, 68, 0
3, 713520, Note_on_c, 0, 59, 0
3, 713520, Note_on_c, 0, 56, 58
3, 713520, Note_on_c, 0, 62, 58
3, 713520, Note_on_c, 0, 65, 58
3, 713520, Note_on_c, 0, 68, 58
3, 713520, Note_on_c, 0, 47, 55
3, 713880, Note_on_c, 0, 47, 0
3, 713880, Note_on_c, 0, 35, 0
3, 713880, Note_on_c, 0, 35, 101
3, 714000, Note_on_c, 0, 35, 0
3, 714000, Note_on_c, 0, 47, 101
3, 714119, Note_on_c, 0, 47, 0
3, 714119, Note_on_c, 0, 35, 88
3, 714240, Note_on_c, 0, 65, 0
3, 714240, Note_on_c, 0, 68, 0
3, 714240, Note_on_c, 0, 56, 0
3, 714240, Note_on_c, 0, 62, 0
3, 714240, Note_on_c, 0, 69, 63
3, 714240, Note_on_c, 0, 57, 101
3, 714240, Note_on_c, 0, 63, 101
3, 714240, Note_on_c, 0, 66, 101
3, 714240, Note_on_c, 0, 47, 101
3, 714420, Note_on_c, 0, 69, 0
3, 714420, Note_on_c, 0, 66, 56
3, 714600, Note_on_c, 0, 66, 0
3, 714600, Note_on_c, 0, 69, 70
3, 714960, Note_on_c, 0, 35, 0
3, 714960, Note_on_c, 0, 47, 0
3, 714960, Note_on_c, 0, 35, 101
3, 714960, Note_on_c, 0, 47, 101
3, 715320, Note_on_c, 0, 47, 0
3, 715320, Note_on_c, 0, 69, 0
3, 715320, Note_on_c, 0, 66, 0
3, 715320, Note_on_c, 0, 63, 0
3, 715320, Note_on_c, 0, 35, 0
3, 715320, Note_on_c, 0, 57, 0
3, 715320, Note_on_c, 0, 63, 47
3, 715320, Note_on_c, 0, 57, 96
3, 715320, Note_on_c, 0, 35, 102
3, 715320, Note_on_c, 0, 47, 102
3, 715440, Note_on_c, 0, 63, 0
3, 715440, Note_on_c, 0, 61, 62
3, 715440, Note_on_c, 0, 64, 62
3, 715559, Note_on_c, 0, 64, 0
3, 715559, Note_on_c, 0, 61, 0
3, 715559, Note_on_c, 0, 62, 66
3, 715559, Note_on_c, 0, 65, 66
3, 715637, Note_on_c, 0, 47, 0
3, 715637, Note_on_c, 0, 35, 0
3, 715680, Note_on_c, 0, 57, 0
3, 715680, Note_on_c, 0, 62, 0
3, 715680, Note_on_c, 0, 65, 0
3, 715680, Note_on_c, 0, 66, 63
3, 715680, Note_on_c, 0, 57, 101
3, 715680, Note_on_c, 0, 63, 101
3, 715680, Note_on_c, 0, 35, 54
3, 715680, Note_on_c, 0, 47, 54
3, 715860, Note_on_c, 0, 66, 0
3, 715860, Note_on_c, 0, 66, 59
3, 716040, Note_on_c, 0, 66, 0
3, 716040, Note_on_c, 0, 69, 72
3, 716400, Note_on_c, 0, 47, 0
3, 716400, Note_on_c, 0, 35, 0
3, 716400, Note_on_c, 0, 35, 58
3, 716400, Note_on_c, 0, 47, 58
3, 716760, Note_on_c, 0, 47, 0
3, 716760, Note_on_c, 0, 57, 0
3, 716760, Note_on_c, 0, 69, 0
3, 716760, Note_on_c, 0, 63, 0
3, 716760, Note_on_c, 0, 35, 0
3, 716760, Note_on_c, 0, 63, 53
3, 716760, Note_on_c, 0, 57, 100
3, 716760, Note_on_c, 0, 35, 71
3, 716760, Note_on_c, 0, 47, 71
3, 716880, Note_on_c, 0, 63, 0
3, 716880, Note_on_c, 0, 61, 62
3, 716880, Note_on_c, 0, 64, 62
3, 716999, Note_on_c, 0, 64, 0
3, 716999, Note_on_c, 0, 61, 0
3, 716999, Note_on_c, 0, 62, 70
3, 716999, Note_on_c, 0, 65, 70
3, 717077, Note_on_c, 0, 47, 0
3, 717077, Note_on_c, 0, 35, 0
3, 717120, Note_on_c, 0, 57, 0
3, 717120, Note_on_c, 0, 62, 0
3, 717120, Note_on_c, 0, 65, 0
3, 717120, Note_on_c, 0, 57, 64
3, 717120, Note_on_c, 0, 63, 64
3, 717120, Note_on_c, 0, 66, 64
3, 717120, Note_on_c, 0, 47, 59
3, 717120, Note_on_c, 0, 35, 99
3, 717480, Note_on_c, 0, 47, 0
3, 717480, Note_on_c, 0, 47, 59
3, 717660, Note_on_c, 0, 66, 0
3, 717660, Note_on_c, 0, 57, 0
3, 717660, Note_on_c, 0, 63, 0
3, 717660, Note_on_c, 0, 57, 65
3, 717660, Note_on_c, 0, 64, 65
3, 717660, Note_on_c, 0, 68, 65
3, 717753, Note_on_c, 0, 35, 0
3, 717840, Note_on_c, 0, 64, 0
3, 717840, Note_on_c, 0, 47, 0
3, 717840, Note_on_c, 0, 57, 0
3, 717840, Note_on_c, 0, 68, 0
3, 717840, Note_on_c, 0, 57, 57
3, 717840, Note_on_c, 0, 63, 57
3, 717840, Note_on_c, 0, 66, 57
3, 717840, Note_on_c, 0, 47, 66
3, 717840, Note_on_c, 0, 35, 102
3, 718200, Note_on_c, 0, 47, 0
3, 718200, Note_on_c, 0, 47, 65
3, 718380, Note_on_c, 0, 66, 0
3, 718380, Note_on_c, 0, 57, 0
3, 718380, Note_on_c, 0, 63, 0
3, 718380, Note_on_c, 0, 57, 57
3, 718380, Note_on_c, 0, 61, 57
3, 718380, Note_on_c, 0, 64, 57
3, 718473, Note_on_c, 0, 35, 0
3, 718560, Note_on_c, 0, 61, 0
3, 718560, Note_on_c, 0, 47, 0
3, 718560, Note_on_c, 0, 57, 0
3, 718560, Note_on_c, 0, 64, 0
3, 718560, Note_on_c, 0, 57, 65
3, 718560, Note_on_c, 0, 63, 65
3, 718560, Note_on_c, 0, 66, 65
3, 718560, Note_on_c, 0, 47, 58
3, 718560, Note_on_c, 0, 35, 102
3, 718920, Note_on_c, 0, 47, 0
3, 718920, Note_on_c, 0, 66, 0
3, 718920, Note_on_c, 0, 57, 0
3, 718920, Note_on_c, 0, 63, 0
3, 718920, Note_on_c, 0, 63, 54
3, 718920, Note_on_c, 0, 57, 101
3, 718920, Note_on_c, 0, 47, 62
3, 719040, Note_on_c, 0, 47, 0
3, 719040, Note_on_c, 0, 63, 0
3, 719040, Note_on_c, 0, 61, 65
3, 719040, Note_on_c, 0, 64, 65
3, 719040, Note_on_c, 0, 47, 59
3, 719159, Note_on_c, 0, 47, 0
3, 719159, Note_on_c, 0, 61, 0
3, 719159, Note_on_c, 0, 64, 0
3, 719159, Note_on_c, 0, 62, 62
3, 719159, Note_on_c, 0, 65, 62
3, 719159, Note_on_c, 0, 47, 65
3, 719193, Note_on_c, 0, 35, 0
3, 719280, Note_on_c, 0, 65, 0
3, 719280, Note_on_c, 0, 57, 0
3, 719280, Note_on_c, 0, 62, 0
3, 719280, Note_on_c, 0, 57, 65
3, 719280, Note_on_c, 0, 63, 65
3, 719280, Note_on_c, 0, 66, 65
3, 719280, Note_on_c, 0, 35, 102
3, 719519, Note_on_c, 0, 66, 0
3, 719519, Note_on_c, 0, 63, 0
3, 719519, Note_on_c, 0, 57, 0
3, 719519, Note_on_c, 0, 63, 59
3, 719519, Note_on_c, 0, 66, 59
3, 719640, Note_on_c, 0, 66, 0
3, 719640, Note_on_c, 0, 63, 0
3, 719640, Note_on_c, 0, 47, 0
3, 719640, Note_on_c, 0, 65, 67
3, 719640, Note_on_c, 0, 68, 67
3, 719640, Note_on_c, 0, 57, 100
3, 719640, Note_on_c, 0, 47, 60
3, 719760, Note_on_c, 0, 47, 0
3, 719760, Note_on_c, 0, 68, 0
3, 719760, Note_on_c, 0, 65, 0
3, 719760, Note_on_c, 0, 63, 54
3, 719760, Note_on_c, 0, 66, 54
3, 719760, Note_on_c, 0, 47, 64
3, 719879, Note_on_c, 0, 47, 0
3, 719879, Note_on_c, 0, 63, 0
3, 719879, Note_on_c, 0, 66, 0
3, 719879, Note_on_c, 0, 65, 67
3, 719879, Note_on_c, 0, 68, 67
3, 719879, Note_on_c, 0, 47, 61
3, 719913, Note_on_c, 0, 35, 0
3, 720000, Note_on_c, 0, 68, 0
3, 720000, Note_on_c, 0, 57, 0
3, 720000, Note_on_c, 0, 65, 0
3, 720000, Note_on_c, 0, 57, 58
3, 720000, Note_on_c, 0, 63, 58
3, 720000, Note_on_c, 0, 66, 58
3, 720000, Note_on_c, 0, 35, 101
3, 720360, Note_on_c, 0, 35, 0
3, 720360, Note_on_c, 0, 63, 0
3, 720360, Note_on_c, 0, 47, 0
3, 720360, Note_on_c, 0, 57, 0
3, 720360, Note_on_c, 0, 66, 0
3, 720360, Note_on_c, 0, 54, 63
3, 720360, Note_on_c, 0, 59, 63
3, 720360, Note_on_c, 0, 63, 63
3, 720360, Note_on_c, 0, 45, 71
3, 720834, Note_on_c, 0, 45, 0
3, 720900, Note_on_c, 0, 47, 64
3, 720993, Note_on_c, 0, 54, 0
3, 720993, Note_on_c, 0, 63, 0
3, 720993, Note_on_c, 0, 59, 0
3, 721080, Note_on_c, 0, 47, 0
3, 721080, Note_on_c, 0, 56, 74
3, 721080, Note_on_c, 0, 59, 74
3, 721080, Note_on_c, 0, 61, 74
3, 721080, Note_on_c, 0, 64, 74
3, 721080, Note_on_c, 0, 44, 71
3, 721620, Note_on_c, 0, 44, 0
3, 721620, Note_on_c, 0, 45, 62
3, 721800, Note_on_c, 0, 45, 0
3, 721800, Note_on_c, 0, 64, 0
3, 721800, Note_on_c, 0, 56, 0
3, 721800, Note_on_c, 0, 59, 0
3, 721800, Note_on_c, 0, 61, 0
3, 721800, Note_on_c, 0, 57, 75
3, 721800, Note_on_c, 0, 59, 75
3, 721800, Note_on_c, 0, 63, 75
3, 721800, Note_on_c, 0, 66, 75
3, 721800, Note_on_c, 0, 42, 69
3, 722340, Note_on_c, 0, 42, 0
3, 722340, Note_on_c, 0, 44, 64
3, 722433, Note_on_c, 0, 63, 0
3, 722433, Note_on_c, 0, 66, 0
3, 722433, Note_on_c, 0, 57, 0
3, 722433, Note_on_c, 0, 59, 0
3, 722520, Note_on_c, 0, 44, 0
3, 722520, Note_on_c, 0, 59, 85
3, 722520, Note_on_c, 0, 62, 85
3, 722520, Note_on_c, 0, 64, 85
3, 722520, Note_on_c, 0, 68, 85
3, 722520, Note_on_c, 0, 40, 63
3, 723060, Note_on_c, 0, 40, 0
3, 723060, Note_on_c, 0, 42, 63
3, 723240, Note_on_c, 0, 42, 0
3, 723240, Note_on_c, 0, 68, 0
3, 723240, Note_on_c, 0, 59, 0
3, 723240, Note_on_c, 0, 62, 0
3, 723240, Note_on_c, 0, 64, 0
3, 723240, Note_on_c, 0, 60, 77
3, 723240, Note_on_c, 0, 62, 77
3, 723240, Note_on_c, 0, 66, 77
3, 723240, Note_on_c, 0, 69, 77
3, 723240, Note_on_c, 0, 38, 82
3, 723240, Note_on_c, 0, 50, 82
3, 723873, Note_on_c, 0, 50, 0
3, 723873, Note_on_c, 0, 62, 0
3, 723873, Note_on_c, 0, 66, 0
3, 723873, Note_on_c, 0, 60, 0
3, 723873, Note_on_c, 0, 38, 0
3, 723873, Note_on_c, 0, 69, 0
3, 723960, Note_on_c, 0, 59, 70
3, 723960, Note_on_c, 0, 61, 70
3, 723960, Note_on_c, 0, 65, 70
3, 723960, Note_on_c, 0, 68, 70
3, 723960, Note_on_c, 0, 37, 69
3, 723960, Note_on_c, 0, 49, 69
3, 724680, Note_on_c, 0, 49, 0
3, 724680, Note_on_c, 0, 61, 0
3, 724680, Note_on_c, 0, 65, 0
3, 724680, Note_on_c, 0, 59, 0
3, 724680, Note_on_c, 0, 37, 0
3, 724680, Note_on_c, 0, 68, 0
3, 724680, Note_on_c, 0, 61, 66
3, 724680, Note_on_c, 0, 64, 66
3, 724680, Note_on_c, 0, 57, 101
3, 724680, Note_on_c, 0, 30, 65
3, 724680, Note_on_c, 0, 42, 65
3, 724997, Note_on_c, 0, 42, 0
3, 724997, Note_on_c, 0, 30, 0
3, 725040, Note_on_c, 0, 57, 0
3, 725040, Note_on_c, 0, 58, 101
3, 725040, Note_on_c, 0, 42, 70
3, 725040, Note_on_c, 0, 54, 70
3, 725313, Note_on_c, 0, 64, 0
3, 725313, Note_on_c, 0, 61, 0
3, 725400, Note_on_c, 0, 42, 0
3, 725400, Note_on_c, 0, 58, 0
3, 725400, Note_on_c, 0, 54, 0
3, 725400, Note_on_c, 0, 57, 54
3, 725400, Note_on_c, 0, 59, 54
3, 725400, Note_on_c, 0, 63, 54
3, 725400, Note_on_c, 0, 35, 59
3, 725400, Note_on_c, 0, 47, 59
3, 725760, Note_on_c, 0, 47, 0
3, 725760, Note_on_c, 0, 63, 0
3, 725760, Note_on_c, 0, 57, 0
3, 725760, Note_on_c, 0, 59, 0
3, 725760, Note_on_c, 0, 35, 0
3, 725760, Note_on_c, 0, 56, 28
3, 725760, Note_on_c, 0, 59, 28
3, 725760, Note_on_c, 0, 64, 28
3, 725760, Note_on_c, 0, 40, 43
3, 725760, Note_on_c, 0, 47, 43
3, 725760, Note_on_c, 0, 52, 43
3, 725999, Note_on_c, 0, 64, 0
3, 725999, Note_on_c, 0, 56, 0
3, 725999, Note_on_c, 0, 59, 0
3, 725999, Note_on_c, 0, 56, 33
3, 725999, Note_on_c, 0, 59, 33
3, 725999, Note_on_c, 0, 64, 33
3, 725999, Note_on_c, 0, 68, 33
3, 726240, Note_on_c, 0, 68, 0
3, 726240, Note_on_c, 0, 59, 0
3, 726240, Note_on_c, 0, 56, 0
3, 726240, Note_on_c, 0, 64, 0
3, 726240, Note_on_c, 0, 56, 29
3, 726240, Note_on_c, 0, 59, 29
3, 726240, Note_on_c, 0, 64, 29
3, 726240, Note_on_c, 0, 68, 29
3, 726480, Note_on_c, 0, 68, 0
3, 726480, Note_on_c, 0, 59, 0
3, 726480, Note_on_c, 0, 56, 0
3, 726480, Note_on_c, 0, 64, 0
3, 726480, Note_on_c, 0, 55, 13
3, 726480, Note_on_c, 0, 58, 13
3, 726719, Note_on_c, 0, 58, 0
3, 726719, Note_on_c, 0, 55, 0
3, 726719, Note_on_c, 0, 55, 38
3, 726719, Note_on_c, 0, 58, 38
3, 726719, Note_on_c, 0, 64, 38
3, 726719, Note_on_c, 0, 67, 38
3, 726960, Note_on_c, 0, 67, 0
3, 726960, Note_on_c, 0, 58, 0
3, 726960, Note_on_c, 0, 55, 0
3, 726960, Note_on_c, 0, 64, 0
3, 726960, Note_on_c, 0, 55, 24
3, 726960, Note_on_c, 0, 58, 24
3, 726960, Note_on_c, 0, 64, 24
3, 726960, Note_on_c, 0, 67, 24
3, 727200, Note_on_c, 0, 67, 0
3, 727200, Note_on_c, 0, 58, 0
3, 727200, Note_on_c, 0, 55, 0
3, 727200, Note_on_c, 0, 64, 0
3, 727200, Note_on_c, 0, 56, 22
3, 727200, Note_on_c, 0, 59, 22
3, 727439, Note_on_c, 0, 59, 0
3, 727439, Note_on_c, 0, 56, 0
3, 727439, Note_on_c, 0, 56, 36
3, 727439, Note_on_c, 0, 59, 36
3, 727439, Note_on_c, 0, 64, 36
3, 727439, Note_on_c, 0, 68, 36
3, 727680, Note_on_c, 0, 68, 0
3, 727680, Note_on_c, 0, 59, 0
3, 727680, Note_on_c, 0, 56, 0
3, 727680, Note_on_c, 0, 64, 0
3, 727680, Note_on_c, 0, 56, 29
3, 727680, Note_on_c, 0, 59, 29
3, 727680, Note_on_c, 0, 64, 29
3, 727680, Note_on_c, 0, 68, 29
3, 727920, Note_on_c, 0, 68, 0
3, 727920, Note_on_c, 0, 59, 0
3, 727920, Note_on_c, 0, 56, 0
3, 727920, Note_on_c, 0, 64, 0
3, 727920, Note_on_c, 0, 56, 23
3, 727920, Note_on_c, 0, 59, 23
3, 727920, Note_on_c, 0, 64, 23
3, 727920, Note_on_c, 0, 68, 23
3, 728159, Note_on_c, 0, 68, 0
3, 728159, Note_on_c, 0, 59, 0
3, 728159, Note_on_c, 0, 56, 0
3, 728159, Note_on_c, 0, 64, 0
3, 728159, Note_on_c, 0, 56, 25
3, 728159, Note_on_c, 0, 59, 25
3, 728159, Note_on_c, 0, 64, 25
3, 728159, Note_on_c, 0, 68, 25
3, 728400, Note_on_c, 0, 68, 0
3, 728400, Note_on_c, 0, 59, 0
3, 728400, Note_on_c, 0, 56, 0
3, 728400, Note_on_c, 0, 64, 0
3, 728400, Note_on_c, 0, 56, 28
3, 728400, Note_on_c, 0, 59, 28
3, 728400, Note_on_c, 0, 64, 28
3, 728400, Note_on_c, 0, 68, 28
3, 728640, Note_on_c, 0, 68, 0
3, 728640, Note_on_c, 0, 59, 0
3, 728640, Note_on_c, 0, 56, 0
3, 728640, Note_on_c, 0, 52, 0
3, 728640, Note_on_c, 0, 64, 0
3, 728640, Note_on_c, 0, 57, 17
3, 728640, Note_on_c, 0, 61, 17
3, 728640, Note_on_c, 0, 64, 17
3, 728640, Note_on_c, 0, 54, 39
3, 728879, Note_on_c, 0, 64, 0
3, 728879, Note_on_c, 0, 61, 0
3, 728879, Note_on_c, 0, 57, 0
3, 728879, Note_on_c, 0, 57, 26
3, 728879, Note_on_c, 0, 61, 26
3, 728879, Note_on_c, 0, 64, 26
3, 728879, Note_on_c, 0, 66, 26
3, 729120, Note_on_c, 0, 66, 0
3, 729120, Note_on_c, 0, 61, 0
3, 729120, Note_on_c, 0, 57, 0
3, 729120, Note_on_c, 0, 64, 0
3, 729120, Note_on_c, 0, 57, 20
3, 729120, Note_on_c, 0, 61, 20
3, 729120, Note_on_c, 0, 64, 20
3, 729360, Note_on_c, 0, 64, 0
3, 729360, Note_on_c, 0, 57, 0
3, 729360, Note_on_c, 0, 61, 0
3, 729360, Note_on_c, 0, 57, 25
3, 729360, Note_on_c, 0, 59, 25
3, 729360, Note_on_c, 0, 63, 25
3, 729599, Note_on_c, 0, 63, 0
3, 729599, Note_on_c, 0, 57, 0
3, 729599, Note_on_c, 0, 59, 0
3, 729599, Note_on_c, 0, 57, 25
3, 729599, Note_on_c, 0, 59, 25
3, 729599, Note_on_c, 0, 63, 25
3, 729840, Note_on_c, 0, 63, 0
3, 729840, Note_on_c, 0, 57, 0
3, 729840, Note_on_c, 0, 59, 0
3, 729840, Note_on_c, 0, 57, 32
3, 729840, Note_on_c, 0, 59, 32
3, 729840, Note_on_c, 0, 63, 32
3, 729840, Note_on_c, 0, 66, 32
3, 730080, Note_on_c, 0, 66, 0
3, 730080, Note_on_c, 0, 59, 0
3, 730080, Note_on_c, 0, 47, 0
3, 730080, Note_on_c, 0, 40, 0
3, 730080, Note_on_c, 0, 54, 0
3, 730080, Note_on_c, 0, 63, 0
3, 730080, Note_on_c, 0, 57, 0
3, 730080, Note_on_c, 0, 64, 20
3, 730080, Note_on_c, 0, 56, 101
3, 730080, Note_on_c, 0, 59, 101
3, 730080, Note_on_c, 0, 47, 30
3, 730080, Note_on_c, 0, 40, 101
3, 730319, Note_on_c, 0, 59, 0
3, 730319, Note_on_c, 0, 56, 0
3, 730319, Note_on_c, 0, 56, 101
3, 730319, Note_on_c, 0, 59, 101
3, 730560, Note_on_c, 0, 59, 0
3, 730560, Note_on_c, 0, 56, 0
3, 730560, Note_on_c, 0, 56, 101
3, 730560, Note_on_c, 0, 59, 101
3, 730800, Note_on_c, 0, 59, 0
3, 730800, Note_on_c, 0, 64, 0
3, 730800, Note_on_c, 0, 56, 0
3, 730800, Note_on_c, 0, 56, 101
3, 730800, Note_on_c, 0, 59, 101
3, 730800, Note_on_c, 0, 64, 101
3, 731039, Note_on_c, 0, 64, 0
3, 731039, Note_on_c, 0, 56, 0
3, 731039, Note_on_c, 0, 59, 0
3, 731039, Note_on_c, 0, 56, 101
3, 731039, Note_on_c, 0, 59, 101
3, 731039, Note_on_c, 0, 64, 101
3, 731280, Note_on_c, 0, 64, 0
3, 731280, Note_on_c, 0, 56, 0
3, 731280, Note_on_c, 0, 59, 0
3, 731280, Note_on_c, 0, 56, 101
3, 731280, Note_on_c, 0, 59, 101
3, 731280, Note_on_c, 0, 64, 101
3, 731280, Note_on_c, 0, 68, 101
3, 731520, Note_on_c, 0, 68, 0
3, 731520, Note_on_c, 0, 47, 0
3, 731520, Note_on_c, 0, 56, 0
3, 731520, Note_on_c, 0, 59, 0
3, 731520, Note_on_c, 0, 64, 0
3, 731520, Note_on_c, 0, 55, 18
3, 731520, Note_on_c, 0, 60, 18
3, 731520, Note_on_c, 0, 48, 38
3, 731759, Note_on_c, 0, 48, 0
3, 731759, Note_on_c, 0, 60, 0
3, 731759, Note_on_c, 0, 55, 0
3, 731759, Note_on_c, 0, 55, 26
3, 731759, Note_on_c, 0, 60, 26
3, 731759, Note_on_c, 0, 48, 38
3, 731759, Note_on_c, 0, 52, 38
3, 732000, Note_on_c, 0, 52, 0
3, 732000, Note_on_c, 0, 60, 0
3, 732000, Note_on_c, 0, 48, 0
3, 732000, Note_on_c, 0, 55, 0
3, 732000, Note_on_c, 0, 55, 31
3, 732000, Note_on_c, 0, 60, 31
3, 732000, Note_on_c, 0, 64, 31
3, 732000, Note_on_c, 0, 48, 31
3, 732000, Note_on_c, 0, 52, 31
3, 732240, Note_on_c, 0, 52, 0
3, 732240, Note_on_c, 0, 55, 0
3, 732240, Note_on_c, 0, 60, 0
3, 732240, Note_on_c, 0, 64, 0
3, 732240, Note_on_c, 0, 48, 0
3, 732240, Note_on_c, 0, 55, 37
3, 732240, Note_on_c, 0, 60, 37
3, 732240, Note_on_c, 0, 64, 37
3, 732240, Note_on_c, 0, 67, 37
3, 732240, Note_on_c, 0, 48, 33
3, 732240, Note_on_c, 0, 52, 33
3, 732479, Note_on_c, 0, 52, 0
3, 732479, Note_on_c, 0, 67, 0
3, 732479, Note_on_c, 0, 55, 0
3, 732479, Note_on_c, 0, 60, 0
3, 732479, Note_on_c, 0, 64, 0
3, 732479, Note_on_c, 0, 48, 0
3, 732479, Note_on_c, 0, 55, 31
3, 732479, Note_on_c, 0, 60, 31
3, 732479, Note_on_c, 0, 64, 31
3, 732479, Note_on_c, 0, 67, 31
3, 732479, Note_on_c, 0, 48, 36
3, 732479, Note_on_c, 0, 52, 36
3, 732720, Note_on_c, 0, 52, 0
3, 732720, Note_on_c, 0, 67, 0
3, 732720, Note_on_c, 0, 55, 0
3, 732720, Note_on_c, 0, 60, 0
3, 732720, Note_on_c, 0, 64, 0
3, 732720, Note_on_c, 0, 48, 0
3, 732720, Note_on_c, 0, 55, 26
3, 732720, Note_on_c, 0, 60, 26
3, 732720, Note_on_c, 0, 64, 26
3, 732720, Note_on_c, 0, 67, 26
3, 732720, Note_on_c, 0, 48, 35
3, 732720, Note_on_c, 0, 52, 35
3, 732960, Note_on_c, 0, 52, 0
3, 732960, Note_on_c, 0, 67, 0
3, 732960, Note_on_c, 0, 55, 0
3, 732960, Note_on_c, 0, 60, 0
3, 732960, Note_on_c, 0, 40, 0
3, 732960, Note_on_c, 0, 48, 0
3, 732960, Note_on_c, 0, 64, 0
3, 732960, Note_on_c, 0, 56, 17
3, 732960, Note_on_c, 0, 59, 17
3, 732960, Note_on_c, 0, 64, 17
3, 732960, Note_on_c, 0, 47, 32
3, 732960, Note_on_c, 0, 52, 32
3, 732960, Note_on_c, 0, 40, 96
3, 733199, Note_on_c, 0, 52, 0
3, 733199, Note_on_c, 0, 47, 0
3, 733199, Note_on_c, 0, 64, 0
3, 733199, Note_on_c, 0, 56, 0
3, 733199, Note_on_c, 0, 59, 0
3, 733199, Note_on_c, 0, 56, 24
3, 733199, Note_on_c, 0, 59, 24
3, 733199, Note_on_c, 0, 64, 24
3, 733199, Note_on_c, 0, 47, 32
3, 733199, Note_on_c, 0, 52, 32
3, 733440, Note_on_c, 0, 52, 0
3, 733440, Note_on_c, 0, 56, 0
3, 733440, Note_on_c, 0, 59, 0
3, 733440, Note_on_c, 0, 64, 0
3, 733440, Note_on_c, 0, 47, 0
3, 733440, Note_on_c, 0, 56, 24
3, 733440, Note_on_c, 0, 59, 24
3, 733440, Note_on_c, 0, 64, 24
3, 733440, Note_on_c, 0, 47, 35
3, 733440, Note_on_c, 0, 52, 35
3, 733680, Note_on_c, 0, 52, 0
3, 733680, Note_on_c, 0, 56, 0
3, 733680, Note_on_c, 0, 59, 0
3, 733680, Note_on_c, 0, 64, 0
3, 733680, Note_on_c, 0, 47, 0
3, 733680, Note_on_c, 0, 56, 22
3, 733680, Note_on_c, 0, 59, 22
3, 733680, Note_on_c, 0, 64, 22
3, 733680, Note_on_c, 0, 47, 35
3, 733680, Note_on_c, 0, 52, 35
3, 733919, Note_on_c, 0, 52, 0
3, 733919, Note_on_c, 0, 56, 0
3, 733919, Note_on_c, 0, 59, 0
3, 733919, Note_on_c, 0, 64, 0
3, 733919, Note_on_c, 0, 47, 0
3, 733919, Note_on_c, 0, 56, 26
3, 733919, Note_on_c, 0, 59, 26
3, 733919, Note_on_c, 0, 64, 26
3, 733919, Note_on_c, 0, 47, 37
3, 733919, Note_on_c, 0, 52, 37
3, 734160, Note_on_c, 0, 52, 0
3, 734160, Note_on_c, 0, 56, 0
3, 734160, Note_on_c, 0, 59, 0
3, 734160, Note_on_c, 0, 64, 0
3, 734160, Note_on_c, 0, 47, 0
3, 734160, Note_on_c, 0, 56, 24
3, 734160, Note_on_c, 0, 59, 24
3, 734160, Note_on_c, 0, 64, 24
3, 734160, Note_on_c, 0, 47, 36
3, 734160, Note_on_c, 0, 52, 36
3, 734400, Note_on_c, 0, 52, 0
3, 734400, Note_on_c, 0, 56, 0
3, 734400, Note_on_c, 0, 59, 0
3, 734400, Note_on_c, 0, 64, 0
3, 734400, Note_on_c, 0, 47, 0
3, 734400, Note_on_c, 0, 56, 23
3, 734400, Note_on_c, 0, 59, 23
3, 734400, Note_on_c, 0, 61, 79
3, 734400, Note_on_c, 0, 49, 36
3, 734400, Note_on_c, 0, 52, 36
3, 734639, Note_on_c, 0, 52, 0
3, 734639, Note_on_c, 0, 56, 0
3, 734639, Note_on_c, 0, 59, 0
3, 734639, Note_on_c, 0, 49, 0
3, 734639, Note_on_c, 0, 56, 26
3, 734639, Note_on_c, 0, 59, 26
3, 734639, Note_on_c, 0, 49, 37
3, 734639, Note_on_c, 0, 52, 37
3, 734880, Note_on_c, 0, 52, 0
3, 734880, Note_on_c, 0, 59, 0
3, 734880, Note_on_c, 0, 56, 0
3, 734880, Note_on_c, 0, 49, 0
3, 734880, Note_on_c, 0, 56, 28
3, 734880, Note_on_c, 0, 59, 28
3, 734880, Note_on_c, 0, 49, 35
3, 734880, Note_on_c, 0, 52, 35
3, 735120, Note_on_c, 0, 52, 0
3, 735120, Note_on_c, 0, 61, 0
3, 735120, Note_on_c, 0, 56, 0
3, 735120, Note_on_c, 0, 59, 0
3, 735120, Note_on_c, 0, 49, 0
3, 735120, Note_on_c, 0, 57, 26
3, 735120, Note_on_c, 0, 59, 26
3, 735120, Note_on_c, 0, 63, 101
3, 735120, Note_on_c, 0, 47, 35
3, 735120, Note_on_c, 0, 51, 35
3, 735359, Note_on_c, 0, 51, 0
3, 735359, Note_on_c, 0, 57, 0
3, 735359, Note_on_c, 0, 59, 0
3, 735359, Note_on_c, 0, 47, 0
3, 735359, Note_on_c, 0, 57, 29
3, 735359, Note_on_c, 0, 59, 29
3, 735359, Note_on_c, 0, 47, 38
3, 735359, Note_on_c, 0, 51, 38
3, 735600, Note_on_c, 0, 51, 0
3, 735600, Note_on_c, 0, 59, 0
3, 735600, Note_on_c, 0, 57, 0
3, 735600, Note_on_c, 0, 47, 0
3, 735600, Note_on_c, 0, 57, 24
3, 735600, Note_on_c, 0, 59, 24
3, 735600, Note_on_c, 0, 47, 35
3, 735600, Note_on_c, 0, 51, 35
3, 735840, Note_on_c, 0, 51, 0
3, 735840, Note_on_c, 0, 63, 0
3, 735840, Note_on_c, 0, 57, 0
3, 735840, Note_on_c, 0, 40, 0
3, 735840, Note_on_c, 0, 47, 0
3, 735840, Note_on_c, 0, 59, 0
3, 735840, Note_on_c, 0, 56, 30
3, 735840, Note_on_c, 0, 59, 30
3, 735840, Note_on_c, 0, 64, 30
3, 735840, Note_on_c, 0, 40, 35
3, 735840, Note_on_c, 0, 47, 35
3, 735840, Note_on_c, 0, 52, 35
3, 736079, Note_on_c, 0, 64, 0
3, 736079, Note_on_c, 0, 56, 0
3, 736079, Note_on_c, 0, 59, 0
3, 736079, Note_on_c, 0, 56, 34
3, 736079, Note_on_c, 0, 59, 34
3, 736079, Note_on_c, 0, 64, 34
3, 736079, Note_on_c, 0, 68, 34
3, 736320, Note_on_c, 0, 68, 0
3, 736320, Note_on_c, 0, 59, 0
3, 736320, Note_on_c, 0, 56, 0
3, 736320, Note_on_c, 0, 64, 0
3, 736320, Note_on_c, 0, 56, 25
3, 736320, Note_on_c, 0, 59, 25
3, 736320, Note_on_c, 0, 64, 25
3, 736320, Note_on_c, 0, 68, 25
3, 736560, Note_on_c, 0, 68, 0
3, 736560, Note_on_c, 0, 59, 0
3, 736560, Note_on_c, 0, 56, 0
3, 736560, Note_on_c, 0, 64, 0
3, 736560, Note_on_c, 0, 55, 19
3, 736560, Note_on_c, 0, 58, 19
3, 736799, Note_on_c, 0, 58, 0
3, 736799, Note_on_c, 0, 55, 0
3, 736799, Note_on_c, 0, 55, 30
3, 736799, Note_on_c, 0, 58, 30
3, 736799, Note_on_c, 0, 64, 30
3, 736799, Note_on_c, 0, 67, 30
3, 737040, Note_on_c, 0, 67, 0
3, 737040, Note_on_c, 0, 58, 0
3, 737040, Note_on_c, 0, 55, 0
3, 737040, Note_on_c, 0, 64, 0
3, 737040, Note_on_c, 0, 55, 23
3, 737040, Note_on_c, 0, 58, 23
3, 737040, Note_on_c, 0, 64, 23
3, 737040, Note_on_c, 0, 67, 23
3, 737280, Note_on_c, 0, 67, 0
3, 737280, Note_on_c, 0, 58, 0
3, 737280, Note_on_c, 0, 55, 0
3, 737280, Note_on_c, 0, 64, 0
3, 737280, Note_on_c, 0, 56, 22
3, 737280, Note_on_c, 0, 59, 22
3, 737519, Note_on_c, 0, 59, 0
3, 737519, Note_on_c, 0, 56, 0
3, 737519, Note_on_c, 0, 56, 37
3, 737519, Note_on_c, 0, 59, 37
3, 737519, Note_on_c, 0, 64, 37
3, 737519, Note_on_c, 0, 68, 37
3, 737760, Note_on_c, 0, 68, 0
3, 737760, Note_on_c, 0, 59, 0
3, 737760, Note_on_c, 0, 56, 0
3, 737760, Note_on_c, 0, 64, 0
3, 737760, Note_on_c, 0, 56, 27
3, 737760, Note_on_c, 0, 59, 27
3, 737760, Note_on_c, 0, 64, 27
3, 737760, Note_on_c, 0, 68, 27
3, 738000, Note_on_c, 0, 68, 0
3, 738000, Note_on_c, 0, 59, 0
3, 738000, Note_on_c, 0, 56, 0
3, 738000, Note_on_c, 0, 64, 0
3, 738000, Note_on_c, 0, 56, 23
3, 738000, Note_on_c, 0, 59, 23
3, 738000, Note_on_c, 0, 64, 23
3, 738000, Note_on_c, 0, 68, 23
3, 738239, Note_on_c, 0, 68, 0
3, 738239, Note_on_c, 0, 59, 0
3, 738239, Note_on_c, 0, 56, 0
3, 738239, Note_on_c, 0, 64, 0
3, 738239, Note_on_c, 0, 56, 23
3, 738239, Note_on_c, 0, 59, 23
3, 738239, Note_on_c, 0, 64, 23
3, 738239, Note_on_c, 0, 68, 23
3, 738480, Note_on_c, 0, 68, 0
3, 738480, Note_on_c, 0, 59, 0
3, 738480, Note_on_c, 0, 56, 0
3, 738480, Note_on_c, 0, 64, 0
3, 738480, Note_on_c, 0, 56, 27
3, 738480, Note_on_c, 0, 59, 27
3, 738480, Note_on_c, 0, 64, 27
3, 738480, Note_on_c, 0, 68, 27
3, 738720, Note_on_c, 0, 68, 0
3, 738720, Note_on_c, 0, 59, 0
3, 738720, Note_on_c, 0, 56, 0
3, 738720, Note_on_c, 0, 52, 0
3, 738720, Note_on_c, 0, 64, 0
3, 738720, Note_on_c, 0, 57, 21
3, 738720, Note_on_c, 0, 64, 21
3, 738720, Note_on_c, 0, 54, 36
3, 738959, Note_on_c, 0, 64, 0
3, 738959, Note_on_c, 0, 57, 0
3, 738959, Note_on_c, 0, 57, 25
3, 738959, Note_on_c, 0, 61, 25
3, 738959, Note_on_c, 0, 64, 25
3, 738959, Note_on_c, 0, 66, 25
3, 739200, Note_on_c, 0, 66, 0
3, 739200, Note_on_c, 0, 61, 0
3, 739200, Note_on_c, 0, 57, 0
3, 739200, Note_on_c, 0, 64, 0
3, 739200, Note_on_c, 0, 57, 26
3, 739200, Note_on_c, 0, 61, 26
3, 739200, Note_on_c, 0, 64, 26
3, 739440, Note_on_c, 0, 64, 0
3, 739440, Note_on_c, 0, 57, 0
3, 739440, Note_on_c, 0, 61, 0
3, 739440, Note_on_c, 0, 57, 24
3, 739440, Note_on_c, 0, 59, 24
3, 739440, Note_on_c, 0, 63, 24
3, 739679, Note_on_c, 0, 63, 0
3, 739679, Note_on_c, 0, 57, 0
3, 739679, Note_on_c, 0, 59, 0
3, 739679, Note_on_c, 0, 57, 24
3, 739679, Note_on_c, 0, 59, 24
3, 739679, Note_on_c, 0, 63, 24
3, 739920, Note_on_c, 0, 63, 0
3, 739920, Note_on_c, 0, 57, 0
3, 739920, Note_on_c, 0, 59, 0
3, 739920, Note_on_c, 0, 57, 28
3, 739920, Note_on_c, 0, 59, 28
3, 739920, Note_on_c, 0, 63, 28
3, 739920, Note_on_c, 0, 66, 28
3, 740160, Note_on_c, 0, 66, 0
3, 740160, Note_on_c, 0, 59, 0
3, 740160, Note_on_c, 0, 47, 0
3, 740160, Note_on_c, 0, 54, 0
3, 740160, Note_on_c, 0, 40, 0
3, 740160, Note_on_c, 0, 63, 0
3, 740160, Note_on_c, 0, 57, 0
3, 740160, Note_on_c, 0, 56, 19
3, 740160, Note_on_c, 0, 59, 19
3, 740160, Note_on_c, 0, 64, 101
3, 740160, Note_on_c, 0, 47, 34
3, 740160, Note_on_c, 0, 40, 101
3, 740399, Note_on_c, 0, 59, 0
3, 740399, Note_on_c, 0, 56, 0
3, 740399, Note_on_c, 0, 56, 28
3, 740399, Note_on_c, 0, 59, 28
3, 740640, Note_on_c, 0, 59, 0
3, 740640, Note_on_c, 0, 56, 0
3, 740640, Note_on_c, 0, 56, 25
3, 740640, Note_on_c, 0, 59, 25
3, 740880, Note_on_c, 0, 59, 0
3, 740880, Note_on_c, 0, 64, 0
3, 740880, Note_on_c, 0, 56, 0
3, 740880, Note_on_c, 0, 56, 29
3, 740880, Note_on_c, 0, 59, 29
3, 740880, Note_on_c, 0, 64, 29
3, 741119, Note_on_c, 0, 64, 0
3, 741119, Note_on_c, 0, 56, 0
3, 741119, Note_on_c, 0, 59, 0
3, 741119, Note_on_c, 0, 56, 28
3, 741119, Note_on_c, 0, 59, 28
3, 741119, Note_on_c, 0, 64, 28
3, 741360, Note_on_c, 0, 64, 0
3, 741360, Note_on_c, 0, 56, 0
3, 741360, Note_on_c, 0, 59, 0
3, 741360, Note_on_c, 0, 56, 31
3, 741360, Note_on_c, 0, 59, 31
3, 741360, Note_on_c, 0, 64, 31
3, 741360, Note_on_c, 0, 68, 31
3, 741600, Note_on_c, 0, 68, 0
3, 741600, Note_on_c, 0, 47, 0
3, 741600, Note_on_c, 0, 56, 0
3, 741600, Note_on_c, 0, 59, 0
3, 741600, Note_on_c, 0, 64, 0
3, 741600, Note_on_c, 0, 55, 14
3, 741600, Note_on_c, 0, 60, 14
3, 741600, Note_on_c, 0, 48, 33
3, 741839, Note_on_c, 0, 48, 0
3, 741839, Note_on_c, 0, 60, 0
3, 741839, Note_on_c, 0, 55, 0
3, 741839, Note_on_c, 0, 55, 23
3, 741839, Note_on_c, 0, 60, 23
3, 741839, Note_on_c, 0, 48, 39
3, 741839, Note_on_c, 0, 52, 39
3, 742080, Note_on_c, 0, 52, 0
3, 742080, Note_on_c, 0, 60, 0
3, 742080, Note_on_c, 0, 48, 0
3, 742080, Note_on_c, 0, 55, 0
3, 742080, Note_on_c, 0, 55, 30
3, 742080, Note_on_c, 0, 60, 30
3, 742080, Note_on_c, 0, 64, 30
3, 742080, Note_on_c, 0, 48, 39
3, 742080, Note_on_c, 0, 52, 39
3, 742320, Note_on_c, 0, 52, 0
3, 742320, Note_on_c, 0, 55, 0
3, 742320, Note_on_c, 0, 60, 0
3, 742320, Note_on_c, 0, 64, 0
3, 742320, Note_on_c, 0, 48, 0
3, 742320, Note_on_c, 0, 55, 31
3, 742320, Note_on_c, 0, 60, 31
3, 742320, Note_on_c, 0, 64, 31
3, 742320, Note_on_c, 0, 67, 31
3, 742320, Note_on_c, 0, 48, 35
3, 742320, Note_on_c, 0, 52, 35
3, 742559, Note_on_c, 0, 52, 0
3, 742559, Note_on_c, 0, 67, 0
3, 742559, Note_on_c, 0, 55, 0
3, 742559, Note_on_c, 0, 60, 0
3, 742559, Note_on_c, 0, 64, 0
3, 742559, Note_on_c, 0, 48, 0
3, 742559, Note_on_c, 0, 55, 24
3, 742559, Note_on_c, 0, 60, 24
3, 742559, Note_on_c, 0, 64, 24
3, 742559, Note_on_c, 0, 67, 24
3, 742559, Note_on_c, 0, 48, 34
3, 742559, Note_on_c, 0, 52, 34
3, 742800, Note_on_c, 0, 52, 0
3, 742800, Note_on_c, 0, 67, 0
3, 742800, Note_on_c, 0, 55, 0
3, 742800, Note_on_c, 0, 60, 0
3, 742800, Note_on_c, 0, 64, 0
3, 742800, Note_on_c, 0, 48, 0
3, 742800, Note_on_c, 0, 55, 18
3, 742800, Note_on_c, 0, 60, 18
3, 742800, Note_on_c, 0, 64, 18
3, 742800, Note_on_c, 0, 48, 34
3, 742800, Note_on_c, 0, 52, 34
3, 743040, Note_on_c, 0, 52, 0
3, 743040, Note_on_c, 0, 55, 0
3, 743040, Note_on_c, 0, 60, 0
3, 743040, Note_on_c, 0, 40, 0
3, 743040, Note_on_c, 0, 48, 0
3, 743040, Note_on_c, 0, 64, 0
3, 743040, Note_on_c, 0, 55, 28
3, 743040, Note_on_c, 0, 59, 28
3, 743040, Note_on_c, 0, 64, 28
3, 743040, Note_on_c, 0, 47, 36
3, 743040, Note_on_c, 0, 52, 36
3, 743040, Note_on_c, 0, 40, 101
3, 743279, Note_on_c, 0, 52, 0
3, 743279, Note_on_c, 0, 47, 0
3, 743279, Note_on_c, 0, 64, 0
3, 743279, Note_on_c, 0, 55, 0
3, 743279, Note_on_c, 0, 59, 0
3, 743279, Note_on_c, 0, 55, 22
3, 743279, Note_on_c, 0, 59, 22
3, 743279, Note_on_c, 0, 64, 22
3, 743279, Note_on_c, 0, 47, 37
3, 743279, Note_on_c, 0, 52, 37
3, 743520, Note_on_c, 0, 52, 0
3, 743520, Note_on_c, 0, 55, 0
3, 743520, Note_on_c, 0, 59, 0
3, 743520, Note_on_c, 0, 64, 0
3, 743520, Note_on_c, 0, 47, 0
3, 743520, Note_on_c, 0, 55, 27
3, 743520, Note_on_c, 0, 59, 27
3, 743520, Note_on_c, 0, 64, 27
3, 743520, Note_on_c, 0, 47, 34
3, 743520, Note_on_c, 0, 52, 34
3, 743760, Note_on_c, 0, 52, 0
3, 743760, Note_on_c, 0, 55, 0
3, 743760, Note_on_c, 0, 59, 0
3, 743760, Note_on_c, 0, 64, 0
3, 743760, Note_on_c, 0, 47, 0
3, 743760, Note_on_c, 0, 55, 29
3, 743760, Note_on_c, 0, 59, 29
3, 743760, Note_on_c, 0, 64, 29
3, 743760, Note_on_c, 0, 47, 37
3, 743760, Note_on_c, 0, 52, 37
3, 743999, Note_on_c, 0, 52, 0
3, 743999, Note_on_c, 0, 55, 0
3, 743999, Note_on_c, 0, 59, 0
3, 743999, Note_on_c, 0, 64, 0
3, 743999, Note_on_c, 0, 47, 0
3, 743999, Note_on_c, 0, 55, 26
3, 743999, Note_on_c, 0, 59, 26
3, 743999, Note_on_c, 0, 64, 26
3, 743999, Note_on_c, 0, 47, 35
3, 743999, Note_on_c, 0, 52, 35
3, 744240, Note_on_c, 0, 52, 0
3, 744240, Note_on_c, 0, 55, 0
3, 744240, Note_on_c, 0, 59, 0
3, 744240, Note_on_c, 0, 64, 0
3, 744240, Note_on_c, 0, 47, 0
3, 744240, Note_on_c, 0, 55, 25
3, 744240, Note_on_c, 0, 59, 25
3, 744240, Note_on_c, 0, 64, 25
3, 744240, Note_on_c, 0, 47, 36
3, 744240, Note_on_c, 0, 52, 36
3, 744480, Note_on_c, 0, 52, 0
3, 744480, Note_on_c, 0, 55, 0
3, 744480, Note_on_c, 0, 59, 0
3, 744480, Note_on_c, 0, 64, 0
3, 744480, Note_on_c, 0, 47, 0
3, 744480, Note_on_c, 0, 56, 26
3, 744480, Note_on_c, 0, 59, 26
3, 744480, Note_on_c, 0, 64, 26
3, 744480, Note_on_c, 0, 47, 36
3, 744480, Note_on_c, 0, 52, 36
3, 744719, Note_on_c, 0, 52, 0
3, 744719, Note_on_c, 0, 56, 0
3, 744719, Note_on_c, 0, 59, 0
3, 744719, Note_on_c, 0, 64, 0
3, 744719, Note_on_c, 0, 47, 0
3, 744719, Note_on_c, 0, 56, 23
3, 744719, Note_on_c, 0, 59, 23
3, 744719, Note_on_c, 0, 64, 23
3, 744719, Note_on_c, 0, 47, 33
3, 744719, Note_on_c, 0, 52, 33
3, 744960, Note_on_c, 0, 52, 0
3, 744960, Note_on_c, 0, 56, 0
3, 744960, Note_on_c, 0, 59, 0
3, 744960, Note_on_c, 0, 64, 0
3, 744960, Note_on_c, 0, 47, 0
3, 744960, Note_on_c, 0, 56, 28
3, 744960, Note_on_c, 0, 59, 28
3, 744960, Note_on_c, 0, 64, 28
3, 744960, Note_on_c, 0, 47, 37
3, 744960, Note_on_c, 0, 52, 37
3, 745200, Note_on_c, 0, 52, 0
3, 745200, Note_on_c, 0, 56, 0
3, 745200, Note_on_c, 0, 59, 0
3, 745200, Note_on_c, 0, 64, 0
3, 745200, Note_on_c, 0, 47, 0
3, 745200, Note_on_c, 0, 56, 19
3, 745200, Note_on_c, 0, 59, 19
3, 745200, Note_on_c, 0, 64, 19
3, 745200, Note_on_c, 0, 47, 34
3, 745200, Note_on_c, 0, 52, 34
3, 745439, Note_on_c, 0, 52, 0
3, 745439, Note_on_c, 0, 56, 0
3, 745439, Note_on_c, 0, 59, 0
3, 745439, Note_on_c, 0, 64, 0
3, 745439, Note_on_c, 0, 47, 0
3, 745439, Note_on_c, 0, 56, 23
3, 745439, Note_on_c, 0, 59, 23
3, 745439, Note_on_c, 0, 64, 23
3, 745439, Note_on_c, 0, 47, 32
3, 745439, Note_on_c, 0, 52, 32
3, 745680, Note_on_c, 0, 52, 0
3, 745680, Note_on_c, 0, 56, 0
3, 745680, Note_on_c, 0, 59, 0
3, 745680, Note_on_c, 0, 64, 0
3, 745680, Note_on_c, 0, 47, 0
3, 745680, Note_on_c, 0, 56, 27
3, 745680, Note_on_c, 0, 59, 27
3, 745680, Note_on_c, 0, 64, 27
3, 745680, Note_on_c, 0, 47, 35
3, 745680, Note_on_c, 0, 52, 35
3, 745920, Note_on_c, 0, 52, 0
3, 745920, Note_on_c, 0, 56, 0
3, 745920, Note_on_c, 0, 59, 0
3, 745920, Note_on_c, 0, 64, 0
3, 745920, Note_on_c, 0, 47, 0
3, 745920, Note_on_c, 0, 57, 21
3, 745920, Note_on_c, 0, 63, 21
3, 745920, Note_on_c, 0, 47, 40
3, 745920, Note_on_c, 0, 54, 40
3, 746159, Note_on_c, 0, 63, 0
3, 746159, Note_on_c, 0, 57, 0
3, 746159, Note_on_c, 0, 57, 32
3, 746159, Note_on_c, 0, 59, 32
3, 746159, Note_on_c, 0, 63, 32
3, 746159, Note_on_c, 0, 66, 32
3, 746400, Note_on_c, 0, 66, 0
3, 746400, Note_on_c, 0, 59, 0
3, 746400, Note_on_c, 0, 57, 0
3, 746400, Note_on_c, 0, 63, 0
3, 746400, Note_on_c, 0, 57, 23
3, 746400, Note_on_c, 0, 59, 23
3, 746400, Note_on_c, 0, 63, 23
3, 746400, Note_on_c, 0, 66, 23
3, 746640, Note_on_c, 0, 66, 0
3, 746640, Note_on_c, 0, 59, 0
3, 746640, Note_on_c, 0, 57, 0
3, 746640, Note_on_c, 0, 63, 0
3, 746640, Note_on_c, 0, 57, 26
3, 746640, Note_on_c, 0, 59, 26
3, 746640, Note_on_c, 0, 63, 26
3, 746640, Note_on_c, 0, 66, 26
3, 746879, Note_on_c, 0, 66, 0
3, 746879, Note_on_c, 0, 59, 0
3, 746879, Note_on_c, 0, 57, 0
3, 746879, Note_on_c, 0, 63, 0
3, 746879, Note_on_c, 0, 57, 21
3, 746879, Note_on_c, 0, 59, 21
3, 746879, Note_on_c, 0, 63, 21
3, 746879, Note_on_c, 0, 66, 21
3, 747120, Note_on_c, 0, 66, 0
3, 747120, Note_on_c, 0, 59, 0
3, 747120, Note_on_c, 0, 57, 0
3, 747120, Note_on_c, 0, 63, 0
3, 747120, Note_on_c, 0, 57, 26
3, 747120, Note_on_c, 0, 59, 26
3, 747120, Note_on_c, 0, 63, 26
3, 747120, Note_on_c, 0, 66, 26
3, 747360, Note_on_c, 0, 66, 0
3, 747360, Note_on_c, 0, 59, 0
3, 747360, Note_on_c, 0, 57, 0
3, 747360, Note_on_c, 0, 63, 0
3, 747360, Note_on_c, 0, 57, 25
3, 747360, Note_on_c, 0, 64, 25
3, 747599, Note_on_c, 0, 64, 0
3, 747599, Note_on_c, 0, 57, 0
3, 747599, Note_on_c, 0, 57, 33
3, 747599, Note_on_c, 0, 61, 33
3, 747599, Note_on_c, 0, 64, 33
3, 747599, Note_on_c, 0, 69, 33
3, 747840, Note_on_c, 0, 69, 0
3, 747840, Note_on_c, 0, 61, 0
3, 747840, Note_on_c, 0, 57, 0
3, 747840, Note_on_c, 0, 64, 0
3, 747840, Note_on_c, 0, 57, 31
3, 747840, Note_on_c, 0, 61, 31
3, 747840, Note_on_c, 0, 64, 31
3, 747840, Note_on_c, 0, 69, 31
3, 748080, Note_on_c, 0, 69, 0
3, 748080, Note_on_c, 0, 61, 0
3, 748080, Note_on_c, 0, 57, 0
3, 748080, Note_on_c, 0, 64, 0
3, 748080, Note_on_c, 0, 57, 27
3, 748080, Note_on_c, 0, 61, 27
3, 748080, Note_on_c, 0, 64, 27
3, 748080, Note_on_c, 0, 69, 27
3, 748319, Note_on_c, 0, 69, 0
3, 748319, Note_on_c, 0, 61, 0
3, 748319, Note_on_c, 0, 57, 0
3, 748319, Note_on_c, 0, 64, 0
3, 748319, Note_on_c, 0, 57, 27
3, 748319, Note_on_c, 0, 61, 27
3, 748319, Note_on_c, 0, 64, 27
3, 748319, Note_on_c, 0, 69, 27
3, 748560, Note_on_c, 0, 69, 0
3, 748560, Note_on_c, 0, 61, 0
3, 748560, Note_on_c, 0, 57, 0
3, 748560, Note_on_c, 0, 64, 0
3, 748560, Note_on_c, 0, 57, 27
3, 748560, Note_on_c, 0, 61, 27
3, 748560, Note_on_c, 0, 64, 27
3, 748560, Note_on_c, 0, 69, 27
3, 748800, Note_on_c, 0, 69, 0
3, 748800, Note_on_c, 0, 61, 0
3, 748800, Note_on_c, 0, 57, 0
3, 748800, Note_on_c, 0, 64, 0
3, 748800, Note_on_c, 0, 57, 17
3, 748800, Note_on_c, 0, 63, 17
3, 749039, Note_on_c, 0, 63, 0
3, 749039, Note_on_c, 0, 57, 0
3, 749039, Note_on_c, 0, 57, 36
3, 749039, Note_on_c, 0, 59, 36
3, 749039, Note_on_c, 0, 63, 36
3, 749039, Note_on_c, 0, 69, 36
3, 749280, Note_on_c, 0, 69, 0
3, 749280, Note_on_c, 0, 59, 0
3, 749280, Note_on_c, 0, 57, 0
3, 749280, Note_on_c, 0, 63, 0
3, 749280, Note_on_c, 0, 57, 25
3, 749280, Note_on_c, 0, 59, 25
3, 749280, Note_on_c, 0, 63, 25
3, 749280, Note_on_c, 0, 69, 25
3, 749520, Note_on_c, 0, 69, 0
3, 749520, Note_on_c, 0, 59, 0
3, 749520, Note_on_c, 0, 57, 0
3, 749520, Note_on_c, 0, 63, 0
3, 749520, Note_on_c, 0, 57, 25
3, 749520, Note_on_c, 0, 59, 25
3, 749520, Note_on_c, 0, 63, 25
3, 749520, Note_on_c, 0, 69, 25
3, 749759, Note_on_c, 0, 69, 0
3, 749759, Note_on_c, 0, 59, 0
3, 749759, Note_on_c, 0, 57, 0
3, 749759, Note_on_c, 0, 63, 0
3, 749759, Note_on_c, 0, 57, 23
3, 749759, Note_on_c, 0, 59, 23
3, 749759, Note_on_c, 0, 63, 23
3, 749759, Note_on_c, 0, 69, 23
3, 750000, Note_on_c, 0, 69, 0
3, 750000, Note_on_c, 0, 59, 0
3, 750000, Note_on_c, 0, 57, 0
3, 750000, Note_on_c, 0, 63, 0
3, 750000, Note_on_c, 0, 57, 26
3, 750000, Note_on_c, 0, 59, 26
3, 750000, Note_on_c, 0, 63, 26
3, 750000, Note_on_c, 0, 69, 26
3, 750240, Note_on_c, 0, 69, 0
3, 750240, Note_on_c, 0, 59, 0
3, 750240, Note_on_c, 0, 57, 0
3, 750240, Note_on_c, 0, 63, 0
3, 750240, Note_on_c, 0, 57, 14
3, 750240, Note_on_c, 0, 61, 14
3, 750479, Note_on_c, 0, 61, 0
3, 750479, Note_on_c, 0, 57, 0
3, 750479, Note_on_c, 0, 57, 35
3, 750479, Note_on_c, 0, 61, 35
3, 750479, Note_on_c, 0, 68, 35
3, 750720, Note_on_c, 0, 68, 0
3, 750720, Note_on_c, 0, 57, 0
3, 750720, Note_on_c, 0, 61, 0
3, 750720, Note_on_c, 0, 57, 25
3, 750720, Note_on_c, 0, 61, 25
3, 750720, Note_on_c, 0, 68, 25
3, 750960, Note_on_c, 0, 68, 0
3, 750960, Note_on_c, 0, 57, 0
3, 750960, Note_on_c, 0, 61, 0
3, 750960, Note_on_c, 0, 57, 21
3, 750960, Note_on_c, 0, 61, 21
3, 750960, Note_on_c, 0, 66, 21
3, 751199, Note_on_c, 0, 66, 0
3, 751199, Note_on_c, 0, 57, 0
3, 751199, Note_on_c, 0, 61, 0
3, 751199, Note_on_c, 0, 57, 23
3, 751199, Note_on_c, 0, 61, 23
3, 751199, Note_on_c, 0, 66, 23
3, 751440, Note_on_c, 0, 66, 0
3, 751440, Note_on_c, 0, 57, 0
3, 751440, Note_on_c, 0, 61, 0
3, 751440, Note_on_c, 0, 57, 25
3, 751440, Note_on_c, 0, 61, 25
3, 751440, Note_on_c, 0, 66, 25
3, 751680, Note_on_c, 0, 66, 0
3, 751680, Note_on_c, 0, 40, 0
3, 751680, Note_on_c, 0, 47, 0
3, 751680, Note_on_c, 0, 54, 0
3, 751680, Note_on_c, 0, 61, 0
3, 751680, Note_on_c, 0, 57, 0
3, 751680, Note_on_c, 0, 57, 23
3, 751680, Note_on_c, 0, 63, 23
3, 751680, Note_on_c, 0, 66, 23
3, 751680, Note_on_c, 0, 47, 37
3, 751680, Note_on_c, 0, 54, 37
3, 751680, Note_on_c, 0, 40, 101
3, 751919, Note_on_c, 0, 66, 0
3, 751919, Note_on_c, 0, 57, 0
3, 751919, Note_on_c, 0, 63, 0
3, 751919, Note_on_c, 0, 57, 24
3, 751919, Note_on_c, 0, 63, 24
3, 751919, Note_on_c, 0, 66, 24
3, 752160, Note_on_c, 0, 66, 0
3, 752160, Note_on_c, 0, 57, 0
3, 752160, Note_on_c, 0, 63, 0
3, 752160, Note_on_c, 0, 57, 28
3, 752160, Note_on_c, 0, 63, 28
3, 752160, Note_on_c, 0, 66, 28
3, 752400, Note_on_c, 0, 66, 0
3, 752400, Note_on_c, 0, 57, 0
3, 752400, Note_on_c, 0, 63, 0
3, 752400, Note_on_c, 0, 57, 24
3, 752400, Note_on_c, 0, 59, 24
3, 752400, Note_on_c, 0, 63, 24
3, 752400, Note_on_c, 0, 69, 24
3, 752639, Note_on_c, 0, 69, 0
3, 752639, Note_on_c, 0, 59, 0
3, 752639, Note_on_c, 0, 57, 0
3, 752639, Note_on_c, 0, 63, 0
3, 752639, Note_on_c, 0, 57, 25
3, 752639, Note_on_c, 0, 59, 25
3, 752639, Note_on_c, 0, 63, 25
3, 752639, Note_on_c, 0, 69, 25
3, 752880, Note_on_c, 0, 69, 0
3, 752880, Note_on_c, 0, 59, 0
3, 752880, Note_on_c, 0, 57, 0
3, 752880, Note_on_c, 0, 63, 0
3, 752880, Note_on_c, 0, 57, 21
3, 752880, Note_on_c, 0, 59, 21
3, 752880, Note_on_c, 0, 63, 21
3, 752880, Note_on_c, 0, 69, 21
3, 753120, Note_on_c, 0, 69, 0
3, 753120, Note_on_c, 0, 59, 0
3, 753120, Note_on_c, 0, 57, 0
3, 753120, Note_on_c, 0, 63, 0
3, 753120, Note_on_c, 0, 57, 16
3, 753120, Note_on_c, 0, 64, 16
3, 753359, Note_on_c, 0, 64, 0
3, 753359, Note_on_c, 0, 57, 0
3, 753359, Note_on_c, 0, 61, 32
3, 753359, Note_on_c, 0, 64, 32
3, 753359, Note_on_c, 0, 71, 32
3, 753600, Note_on_c, 0, 71, 0
3, 753600, Note_on_c, 0, 61, 0
3, 753600, Note_on_c, 0, 64, 0
3, 753600, Note_on_c, 0, 61, 28
3, 753600, Note_on_c, 0, 64, 28
3, 753600, Note_on_c, 0, 71, 28
3, 753840, Note_on_c, 0, 71, 0
3, 753840, Note_on_c, 0, 61, 0
3, 753840, Note_on_c, 0, 64, 0
3, 753840, Note_on_c, 0, 61, 19
3, 753840, Note_on_c, 0, 64, 19
3, 753840, Note_on_c, 0, 69, 19
3, 754079, Note_on_c, 0, 69, 0
3, 754079, Note_on_c, 0, 61, 0
3, 754079, Note_on_c, 0, 64, 0
3, 754079, Note_on_c, 0, 61, 25
3, 754079, Note_on_c, 0, 64, 25
3, 754079, Note_on_c, 0, 69, 25
3, 754320, Note_on_c, 0, 69, 0
3, 754320, Note_on_c, 0, 61, 0
3, 754320, Note_on_c, 0, 64, 0
3, 754320, Note_on_c, 0, 61, 23
3, 754320, Note_on_c, 0, 64, 23
3, 754320, Note_on_c, 0, 69, 23
3, 754560, Note_on_c, 0, 69, 0
3, 754560, Note_on_c, 0, 61, 0
3, 754560, Note_on_c, 0, 64, 0
3, 754560, Note_on_c, 0, 57, 17
3, 754560, Note_on_c, 0, 63, 17
3, 754799, Note_on_c, 0, 63, 0
3, 754799, Note_on_c, 0, 57, 0
3, 754799, Note_on_c, 0, 59, 28
3, 754799, Note_on_c, 0, 63, 28
3, 754799, Note_on_c, 0, 69, 28
3, 755040, Note_on_c, 0, 69, 0
3, 755040, Note_on_c, 0, 59, 0
3, 755040, Note_on_c, 0, 63, 0
3, 755040, Note_on_c, 0, 59, 26
3, 755040, Note_on_c, 0, 63, 26
3, 755040, Note_on_c, 0, 69, 26
3, 755280, Note_on_c, 0, 69, 0
3, 755280, Note_on_c, 0, 59, 0
3, 755280, Note_on_c, 0, 63, 0
3, 755280, Note_on_c, 0, 59, 24
3, 755280, Note_on_c, 0, 63, 24
3, 755280, Note_on_c, 0, 68, 24
3, 755519, Note_on_c, 0, 68, 0
3, 755519, Note_on_c, 0, 59, 0
3, 755519, Note_on_c, 0, 63, 0
3, 755519, Note_on_c, 0, 59, 25
3, 755519, Note_on_c, 0, 63, 25
3, 755519, Note_on_c, 0, 68, 25
3, 755760, Note_on_c, 0, 68, 0
3, 755760, Note_on_c, 0, 59, 0
3, 755760, Note_on_c, 0, 63, 0
3, 755760, Note_on_c, 0, 59, 26
3, 755760, Note_on_c, 0, 63, 26
3, 755760, Note_on_c, 0, 68, 26
3, 756000, Note_on_c, 0, 68, 0
3, 756000, Note_on_c, 0, 59, 0
3, 756000, Note_on_c, 0, 63, 0
3, 756000, Note_on_c, 0, 57, 18
3, 756000, Note_on_c, 0, 61, 18
3, 756239, Note_on_c, 0, 61, 0
3, 756239, Note_on_c, 0, 57, 0
3, 756239, Note_on_c, 0, 57, 37
3, 756239, Note_on_c, 0, 61, 37
3, 756239, Note_on_c, 0, 68, 37
3, 756480, Note_on_c, 0, 68, 0
3, 756480, Note_on_c, 0, 57, 0
3, 756480, Note_on_c, 0, 61, 0
3, 756480, Note_on_c, 0, 57, 24
3, 756480, Note_on_c, 0, 61, 24
3, 756480, Note_on_c, 0, 68, 24
3, 756720, Note_on_c, 0, 68, 0
3, 756720, Note_on_c, 0, 57, 0
3, 756720, Note_on_c, 0, 61, 0
3, 756720, Note_on_c, 0, 57, 21
3, 756720, Note_on_c, 0, 61, 21
3, 756720, Note_on_c, 0, 66, 21
3, 756959, Note_on_c, 0, 66, 0
3, 756959, Note_on_c, 0, 57, 0
3, 756959, Note_on_c, 0, 61, 0
3, 756959, Note_on_c, 0, 57, 25
3, 756959, Note_on_c, 0, 61, 25
3, 756959, Note_on_c, 0, 66, 25
3, 757200, Note_on_c, 0, 66, 0
3, 757200, Note_on_c, 0, 57, 0
3, 757200, Note_on_c, 0, 61, 0
3, 757200, Note_on_c, 0, 57, 26
3, 757200, Note_on_c, 0, 61, 26
3, 757200, Note_on_c, 0, 66, 26
3, 757440, Note_on_c, 0, 66, 0
3, 757440, Note_on_c, 0, 47, 0
3, 757440, Note_on_c, 0, 54, 0
3, 757440, Note_on_c, 0, 40, 0
3, 757440, Note_on_c, 0, 61, 0
3, 757440, Note_on_c, 0, 57, 0
3, 757440, Note_on_c, 0, 57, 21
3, 757440, Note_on_c, 0, 63, 21
3, 757440, Note_on_c, 0, 54, 37
3, 757440, Note_on_c, 0, 40, 101
3, 757440, Note_on_c, 0, 47, 101
3, 757679, Note_on_c, 0, 63, 0
3, 757679, Note_on_c, 0, 57, 0
3, 757679, Note_on_c, 0, 57, 28
3, 757679, Note_on_c, 0, 63, 28
3, 757679, Note_on_c, 0, 66, 28
3, 757920, Note_on_c, 0, 66, 0
3, 757920, Note_on_c, 0, 57, 0
3, 757920, Note_on_c, 0, 63, 0
3, 757920, Note_on_c, 0, 57, 23
3, 757920, Note_on_c, 0, 63, 23
3, 757920, Note_on_c, 0, 66, 23
3, 758160, Note_on_c, 0, 66, 0
3, 758160, Note_on_c, 0, 57, 0
3, 758160, Note_on_c, 0, 54, 0
3, 758160, Note_on_c, 0, 63, 0
3, 758160, Note_on_c, 0, 54, 21
3, 758160, Note_on_c, 0, 57, 21
3, 758160, Note_on_c, 0, 59, 21
3, 758399, Note_on_c, 0, 59, 0
3, 758399, Note_on_c, 0, 54, 0
3, 758399, Note_on_c, 0, 57, 0
3, 758399, Note_on_c, 0, 54, 26
3, 758399, Note_on_c, 0, 57, 26
3, 758399, Note_on_c, 0, 59, 26
3, 758640, Note_on_c, 0, 59, 0
3, 758640, Note_on_c, 0, 54, 0
3, 758640, Note_on_c, 0, 57, 0
3, 758640, Note_on_c, 0, 54, 28
3, 758640, Note_on_c, 0, 57, 28
3, 758640, Note_on_c, 0, 59, 28
3, 758880, Note_on_c, 0, 40, 0
3, 758880, Note_on_c, 0, 39, 101
3, 759119, Note_on_c, 0, 57, 0
3, 759119, Note_on_c, 0, 59, 0
3, 759119, Note_on_c, 0, 54, 0
3, 759119, Note_on_c, 0, 54, 26
3, 759119, Note_on_c, 0, 57, 26
3, 759119, Note_on_c, 0, 59, 26
3, 759360, Note_on_c, 0, 59, 0
3, 759360, Note_on_c, 0, 54, 0
3, 759360, Note_on_c, 0, 57, 0
3, 759360, Note_on_c, 0, 54, 29
3, 759360, Note_on_c, 0, 57, 29
3, 759360, Note_on_c, 0, 59, 29
3, 759600, Note_on_c, 0, 59, 0
3, 759600, Note_on_c, 0, 54, 0
3, 759600, Note_on_c, 0, 57, 0
3, 759600, Note_on_c, 0, 54, 25
3, 759600, Note_on_c, 0, 57, 25
3, 759600, Note_on_c, 0, 59, 25
3, 759839, Note_on_c, 0, 59, 0
3, 759839, Note_on_c, 0, 54, 0
3, 759839, Note_on_c, 0, 57, 0
3, 759839, Note_on_c, 0, 54, 27
3, 759839, Note_on_c, 0, 57, 27
3, 759839, Note_on_c, 0, 59, 27
3, 760080, Note_on_c, 0, 59, 0
3, 760080, Note_on_c, 0, 54, 0
3, 760080, Note_on_c, 0, 57, 0
3, 760080, Note_on_c, 0, 54, 24
3, 760080, Note_on_c, 0, 57, 24
3, 760080, Note_on_c, 0, 59, 24
3, 760320, Note_on_c, 0, 59, 0
3, 760320, Note_on_c, 0, 54, 0
3, 760320, Note_on_c, 0, 39, 0
3, 760320, Note_on_c, 0, 47, 0
3, 760320, Note_on_c, 0, 57, 0
3, 760320, Note_on_c, 0, 52, 24
3, 760320, Note_on_c, 0, 57, 24
3, 760320, Note_on_c, 0, 59, 24
3, 760320, Note_on_c, 0, 37, 34
3, 760320, Note_on_c, 0, 49, 34
3, 760559, Note_on_c, 0, 59, 0
3, 760559, Note_on_c, 0, 52, 0
3, 760559, Note_on_c, 0, 57, 0
3, 760559, Note_on_c, 0, 57, 31
3, 760559, Note_on_c, 0, 64, 31
3, 760559, Note_on_c, 0, 66, 31
3, 760800, Note_on_c, 0, 66, 0
3, 760800, Note_on_c, 0, 57, 0
3, 760800, Note_on_c, 0, 64, 0
3, 760800, Note_on_c, 0, 57, 31
3, 760800, Note_on_c, 0, 64, 31
3, 760800, Note_on_c, 0, 66, 31
3, 761040, Note_on_c, 0, 66, 0
3, 761040, Note_on_c, 0, 57, 0
3, 761040, Note_on_c, 0, 64, 0
3, 761040, Note_on_c, 0, 52, 22
3, 761040, Note_on_c, 0, 57, 22
3, 761040, Note_on_c, 0, 59, 22
3, 761279, Note_on_c, 0, 59, 0
3, 761279, Note_on_c, 0, 52, 0
3, 761279, Note_on_c, 0, 57, 0
3, 761279, Note_on_c, 0, 52, 23
3, 761279, Note_on_c, 0, 57, 23
3, 761279, Note_on_c, 0, 59, 23
3, 761520, Note_on_c, 0, 59, 0
3, 761520, Note_on_c, 0, 52, 0
3, 761520, Note_on_c, 0, 57, 0
3, 761520, Note_on_c, 0, 52, 30
3, 761520, Note_on_c, 0, 57, 30
3, 761520, Note_on_c, 0, 59, 30
3, 761760, Note_on_c, 0, 37, 0
3, 761760, Note_on_c, 0, 49, 0
3, 761760, Note_on_c, 0, 36, 31
3, 761760, Note_on_c, 0, 48, 31
3, 761999, Note_on_c, 0, 57, 0
3, 761999, Note_on_c, 0, 59, 0
3, 761999, Note_on_c, 0, 52, 0
3, 761999, Note_on_c, 0, 52, 24
3, 761999, Note_on_c, 0, 57, 24
3, 761999, Note_on_c, 0, 59, 24
3, 762240, Note_on_c, 0, 59, 0
3, 762240, Note_on_c, 0, 52, 0
3, 762240, Note_on_c, 0, 57, 0
3, 762240, Note_on_c, 0, 52, 25
3, 762240, Note_on_c, 0, 57, 25
3, 762240, Note_on_c, 0, 59, 25
3, 762480, Note_on_c, 0, 59, 0
3, 762480, Note_on_c, 0, 52, 0
3, 762480, Note_on_c, 0, 57, 0
3, 762480, Note_on_c, 0, 52, 22
3, 762480, Note_on_c, 0, 57, 22
3, 762480, Note_on_c, 0, 59, 22
3, 762719, Note_on_c, 0, 59, 0
3, 762719, Note_on_c, 0, 52, 0
3, 762719, Note_on_c, 0, 57, 0
3, 762719, Note_on_c, 0, 52, 24
3, 762719, Note_on_c, 0, 57, 24
3, 762719, Note_on_c, 0, 59, 24
3, 762960, Note_on_c, 0, 59, 0
3, 762960, Note_on_c, 0, 52, 0
3, 762960, Note_on_c, 0, 57, 0
3, 762960, Note_on_c, 0, 52, 26
3, 762960, Note_on_c, 0, 57, 26
3, 762960, Note_on_c, 0, 59, 26
3, 763200, Note_on_c, 0, 59, 0
3, 763200, Note_on_c, 0, 52, 0
3, 763200, Note_on_c, 0, 48, 0
3, 763200, Note_on_c, 0, 36, 0
3, 763200, Note_on_c, 0, 57, 0
3, 763200, Note_on_c, 0, 51, 23
3, 763200, Note_on_c, 0, 57, 23
3, 763200, Note_on_c, 0, 59, 23
3, 763200, Note_on_c, 0, 35, 36
3, 763200, Note_on_c, 0, 47, 36
3, 763439, Note_on_c, 0, 59, 0
3, 763439, Note_on_c, 0, 51, 0
3, 763439, Note_on_c, 0, 57, 0
3, 763439, Note_on_c, 0, 51, 26
3, 763439, Note_on_c, 0, 57, 26
3, 763439, Note_on_c, 0, 59, 26
3, 763680, Note_on_c, 0, 59, 0
3, 763680, Note_on_c, 0, 51, 0
3, 763680, Note_on_c, 0, 57, 0
3, 763680, Note_on_c, 0, 51, 24
3, 763680, Note_on_c, 0, 57, 24
3, 763680, Note_on_c, 0, 59, 24
3, 763920, Note_on_c, 0, 59, 0
3, 763920, Note_on_c, 0, 51, 0
3, 763920, Note_on_c, 0, 57, 0
3, 763920, Note_on_c, 0, 51, 20
3, 763920, Note_on_c, 0, 57, 20
3, 763920, Note_on_c, 0, 59, 20
3, 764159, Note_on_c, 0, 59, 0
3, 764159, Note_on_c, 0, 51, 0
3, 764159, Note_on_c, 0, 57, 0
3, 764159, Note_on_c, 0, 51, 25
3, 764159, Note_on_c, 0, 57, 25
3, 764159, Note_on_c, 0, 59, 25
3, 764400, Note_on_c, 0, 59, 0
3, 764400, Note_on_c, 0, 51, 0
3, 764400, Note_on_c, 0, 57, 0
3, 764400, Note_on_c, 0, 51, 22
3, 764400, Note_on_c, 0, 57, 22
3, 764400, Note_on_c, 0, 59, 22
3, 764640, Note_on_c, 0, 59, 0
3, 764640, Note_on_c, 0, 51, 0
3, 764640, Note_on_c, 0, 47, 0
3, 764640, Note_on_c, 0, 35, 0
3, 764640, Note_on_c, 0, 57, 0
3, 764640, Note_on_c, 0, 51, 25
3, 764640, Note_on_c, 0, 54, 25
3, 764640, Note_on_c, 0, 59, 25
3, 764640, Note_on_c, 0, 33, 31
3, 764640, Note_on_c, 0, 45, 31
3, 764879, Note_on_c, 0, 59, 0
3, 764879, Note_on_c, 0, 51, 0
3, 764879, Note_on_c, 0, 54, 0
3, 764879, Note_on_c, 0, 51, 25
3, 764879, Note_on_c, 0, 54, 25
3, 765120, Note_on_c, 0, 54, 0
3, 765120, Note_on_c, 0, 51, 0
3, 765120, Note_on_c, 0, 51, 28
3, 765120, Note_on_c, 0, 54, 28
3, 765360, Note_on_c, 0, 54, 0
3, 765360, Note_on_c, 0, 51, 0
3, 765360, Note_on_c, 0, 51, 28
3, 765360, Note_on_c, 0, 54, 28
3, 765599, Note_on_c, 0, 54, 0
3, 765599, Note_on_c, 0, 51, 0
3, 765599, Note_on_c, 0, 51, 28
3, 765599, Note_on_c, 0, 54, 28
3, 765599, Note_on_c, 0, 59, 28
3, 765840, Note_on_c, 0, 59, 0
3, 765840, Note_on_c, 0, 51, 0
3, 765840, Note_on_c, 0, 54, 0
3, 765840, Note_on_c, 0, 51, 27
3, 765840, Note_on_c, 0, 54, 27
3, 765840, Note_on_c, 0, 59, 27
3, 766080, Note_on_c, 0, 33, 0
3, 766080, Note_on_c, 0, 45, 0
3, 766080, Note_on_c, 0, 32, 32
3, 766080, Note_on_c, 0, 44, 32
3, 766319, Note_on_c, 0, 54, 0
3, 766319, Note_on_c, 0, 59, 0
3, 766319, Note_on_c, 0, 51, 0
3, 766319, Note_on_c, 0, 51, 30
3, 766319, Note_on_c, 0, 59, 30
3, 766319, Note_on_c, 0, 63, 30
3, 766560, Note_on_c, 0, 63, 0
3, 766560, Note_on_c, 0, 51, 0
3, 766560, Note_on_c, 0, 59, 0
3, 766560, Note_on_c, 0, 51, 24
3, 766560, Note_on_c, 0, 59, 24
3, 766560, Note_on_c, 0, 63, 24
3, 766800, Note_on_c, 0, 63, 0
3, 766800, Note_on_c, 0, 51, 0
3, 766800, Note_on_c, 0, 59, 0
3, 766800, Note_on_c, 0, 51, 29
3, 766800, Note_on_c, 0, 59, 29
3, 766800, Note_on_c, 0, 63, 29
3, 767039, Note_on_c, 0, 63, 0
3, 767039, Note_on_c, 0, 51, 0
3, 767039, Note_on_c, 0, 59, 0
3, 767039, Note_on_c, 0, 51, 23
3, 767039, Note_on_c, 0, 59, 23
3, 767039, Note_on_c, 0, 63, 23
3, 767280, Note_on_c, 0, 63, 0
3, 767280, Note_on_c, 0, 51, 0
3, 767280, Note_on_c, 0, 59, 0
3, 767280, Note_on_c, 0, 51, 26
3, 767280, Note_on_c, 0, 59, 26
3, 767280, Note_on_c, 0, 63, 26
3, 767520, Note_on_c, 0, 59, 0
3, 767520, Note_on_c, 0, 32, 0
3, 767520, Note_on_c, 0, 44, 0
3, 767520, Note_on_c, 0, 57, 25
3, 767520, Note_on_c, 0, 30, 33
3, 767520, Note_on_c, 0, 42, 33
3, 767759, Note_on_c, 0, 57, 0
3, 767759, Note_on_c, 0, 63, 0
3, 767759, Note_on_c, 0, 51, 0
3, 767759, Note_on_c, 0, 57, 24
3, 767759, Note_on_c, 0, 59, 24
3, 767759, Note_on_c, 0, 63, 24
3, 768000, Note_on_c, 0, 63, 0
3, 768000, Note_on_c, 0, 57, 0
3, 768000, Note_on_c, 0, 59, 0
3, 768000, Note_on_c, 0, 57, 30
3, 768000, Note_on_c, 0, 59, 30
3, 768000, Note_on_c, 0, 63, 30
3, 768240, Note_on_c, 0, 63, 0
3, 768240, Note_on_c, 0, 57, 0
3, 768240, Note_on_c, 0, 59, 0
3, 768240, Note_on_c, 0, 57, 27
3, 768240, Note_on_c, 0, 59, 27
3, 768240, Note_on_c, 0, 63, 27
3, 768479, Note_on_c, 0, 63, 0
3, 768479, Note_on_c, 0, 57, 0
3, 768479, Note_on_c, 0, 59, 0
3, 768479, Note_on_c, 0, 57, 22
3, 768479, Note_on_c, 0, 59, 22
3, 768479, Note_on_c, 0, 63, 22
3, 768720, Note_on_c, 0, 63, 0
3, 768720, Note_on_c, 0, 57, 0
3, 768720, Note_on_c, 0, 59, 0
3, 768720, Note_on_c, 0, 57, 24
3, 768720, Note_on_c, 0, 59, 24
3, 768720, Note_on_c, 0, 63, 24
3, 768960, Note_on_c, 0, 63, 0
3, 768960, Note_on_c, 0, 57, 0
3, 768960, Note_on_c, 0, 42, 0
3, 768960, Note_on_c, 0, 30, 0
3, 768960, Note_on_c, 0, 59, 0
3, 768960, Note_on_c, 0, 56, 21
3, 768960, Note_on_c, 0, 59, 21
3, 768960, Note_on_c, 0, 28, 26
3, 768960, Note_on_c, 0, 40, 91
3, 769199, Note_on_c, 0, 59, 0
3, 769199, Note_on_c, 0, 56, 0
3, 769199, Note_on_c, 0, 56, 33
3, 769199, Note_on_c, 0, 59, 33
3, 769199, Note_on_c, 0, 64, 33
3, 769320, Note_on_c, 0, 28, 0
3, 769440, Note_on_c, 0, 59, 0
3, 769440, Note_on_c, 0, 64, 0
3, 769440, Note_on_c, 0, 56, 0
3, 769440, Note_on_c, 0, 56, 28
3, 769440, Note_on_c, 0, 59, 28
3, 769440, Note_on_c, 0, 64, 28
3, 769680, Note_on_c, 0, 64, 0
3, 769680, Note_on_c, 0, 59, 0
3, 769680, Note_on_c, 0, 56, 0
3, 769680, Note_on_c, 0, 56, 29
3, 769680, Note_on_c, 0, 59, 29
3, 769680, Note_on_c, 0, 64, 29
3, 769680, Note_on_c, 0, 47, 26
3, 769919, Note_on_c, 0, 64, 0
3, 769919, Note_on_c, 0, 59, 0
3, 769919, Note_on_c, 0, 56, 0
3, 769919, Note_on_c, 0, 56, 24
3, 769919, Note_on_c, 0, 59, 24
3, 769919, Note_on_c, 0, 64, 24
3, 770160, Note_on_c, 0, 64, 0
3, 770160, Note_on_c, 0, 56, 0
3, 770160, Note_on_c, 0, 59, 0
3, 770160, Note_on_c, 0, 56, 27
3, 770160, Note_on_c, 0, 59, 27
3, 770160, Note_on_c, 0, 64, 27
3, 770400, Note_on_c, 0, 64, 0
3, 770400, Note_on_c, 0, 56, 0
3, 770400, Note_on_c, 0, 59, 0
3, 770400, Note_on_c, 0, 40, 0
3, 770400, Note_on_c, 0, 55, 20
3, 770400, Note_on_c, 0, 61, 20
3, 770400, Note_on_c, 0, 40, 101
3, 770639, Note_on_c, 0, 61, 0
3, 770639, Note_on_c, 0, 55, 0
3, 770639, Note_on_c, 0, 55, 37
3, 770639, Note_on_c, 0, 59, 37
3, 770639, Note_on_c, 0, 61, 37
3, 770639, Note_on_c, 0, 64, 37
3, 770850, Note_on_c, 0, 64, 0
3, 770850, Note_on_c, 0, 59, 0
3, 770850, Note_on_c, 0, 55, 0
3, 770850, Note_on_c, 0, 61, 0
3, 770880, Note_on_c, 0, 55, 40
3, 770880, Note_on_c, 0, 59, 40
3, 770880, Note_on_c, 0, 61, 40
3, 770880, Note_on_c, 0, 64, 40
3, 771090, Note_on_c, 0, 64, 0
3, 771090, Note_on_c, 0, 59, 0
3, 771090, Note_on_c, 0, 55, 0
3, 771090, Note_on_c, 0, 61, 0
3, 771120, Note_on_c, 0, 47, 0
3, 771120, Note_on_c, 0, 55, 41
3, 771120, Note_on_c, 0, 57, 41
3, 771120, Note_on_c, 0, 61, 41
3, 771120, Note_on_c, 0, 64, 41
3, 771120, Note_on_c, 0, 45, 33
3, 771330, Note_on_c, 0, 64, 0
3, 771330, Note_on_c, 0, 61, 0
3, 771330, Note_on_c, 0, 57, 0
3, 771330, Note_on_c, 0, 55, 0
3, 771359, Note_on_c, 0, 55, 40
3, 771359, Note_on_c, 0, 57, 40
3, 771359, Note_on_c, 0, 61, 40
3, 771359, Note_on_c, 0, 64, 40
3, 771359, Note_on_c, 0, 67, 40
3, 771570, Note_on_c, 0, 67, 0
3, 771570, Note_on_c, 0, 61, 0
3, 771570, Note_on_c, 0, 57, 0
3, 771570, Note_on_c, 0, 55, 0
3, 771570, Note_on_c, 0, 64, 0
3, 771600, Note_on_c, 0, 55, 36
3, 771600, Note_on_c, 0, 57, 36
3, 771600, Note_on_c, 0, 61, 36
3, 771600, Note_on_c, 0, 64, 36
3, 771600, Note_on_c, 0, 67, 36
3, 771810, Note_on_c, 0, 67, 0
3, 771810, Note_on_c, 0, 61, 0
3, 771810, Note_on_c, 0, 57, 0
3, 771810, Note_on_c, 0, 55, 0
3, 771810, Note_on_c, 0, 64, 0
3, 771840, Note_on_c, 0, 40, 0
3, 771840, Note_on_c, 0, 45, 0
3, 771840, Note_on_c, 0, 54, 24
3, 771840, Note_on_c, 0, 62, 24
3, 771840, Note_on_c, 0, 66, 24
3, 771840, Note_on_c, 0, 45, 40
3, 771840, Note_on_c, 0, 38, 101
3, 772079, Note_on_c, 0, 66, 0
3, 772079, Note_on_c, 0, 54, 0
3, 772079, Note_on_c, 0, 62, 0
3, 772079, Note_on_c, 0, 62, 57
3, 772079, Note_on_c, 0, 66, 57
3, 772079, Note_on_c, 0, 69, 57
3, 772320, Note_on_c, 0, 69, 0
3, 772320, Note_on_c, 0, 62, 0
3, 772320, Note_on_c, 0, 66, 0
3, 772320, Note_on_c, 0, 62, 54
3, 772320, Note_on_c, 0, 66, 54
3, 772320, Note_on_c, 0, 69, 54
3, 772560, Note_on_c, 0, 69, 0
3, 772560, Note_on_c, 0, 62, 0
3, 772560, Note_on_c, 0, 66, 0
3, 772560, Note_on_c, 0, 62, 51
3, 772560, Note_on_c, 0, 66, 51
3, 772560, Note_on_c, 0, 69, 51
3, 772799, Note_on_c, 0, 69, 0
3, 772799, Note_on_c, 0, 62, 0
3, 772799, Note_on_c, 0, 66, 0
3, 772799, Note_on_c, 0, 62, 47
3, 772799, Note_on_c, 0, 66, 47
3, 772799, Note_on_c, 0, 69, 47
3, 773040, Note_on_c, 0, 69, 0
3, 773040, Note_on_c, 0, 62, 0
3, 773040, Note_on_c, 0, 66, 0
3, 773040, Note_on_c, 0, 62, 50
3, 773040, Note_on_c, 0, 66, 50
3, 773040, Note_on_c, 0, 69, 50
3, 773280, Note_on_c, 0, 69, 0
3, 773280, Note_on_c, 0, 62, 0
3, 773280, Note_on_c, 0, 66, 0
3, 773280, Note_on_c, 0, 38, 0
3, 773280, Note_on_c, 0, 54, 15
3, 773280, Note_on_c, 0, 60, 15
3, 773280, Note_on_c, 0, 39, 101
3, 773519, Note_on_c, 0, 60, 0
3, 773519, Note_on_c, 0, 54, 0
3, 773519, Note_on_c, 0, 60, 35
3, 773519, Note_on_c, 0, 66, 35
3, 773519, Note_on_c, 0, 69, 35
3, 773760, Note_on_c, 0, 69, 0
3, 773760, Note_on_c, 0, 60, 0
3, 773760, Note_on_c, 0, 66, 0
3, 773760, Note_on_c, 0, 60, 30
3, 773760, Note_on_c, 0, 66, 30
3, 773760, Note_on_c, 0, 69, 30
3, 774000, Note_on_c, 0, 69, 0
3, 774000, Note_on_c, 0, 60, 0
3, 774000, Note_on_c, 0, 66, 0
3, 774000, Note_on_c, 0, 60, 24
3, 774000, Note_on_c, 0, 66, 24
3, 774000, Note_on_c, 0, 69, 24
3, 774239, Note_on_c, 0, 69, 0
3, 774239, Note_on_c, 0, 60, 0
3, 774239, Note_on_c, 0, 66, 0
3, 774239, Note_on_c, 0, 59, 29
3, 774239, Note_on_c, 0, 66, 29
3, 774239, Note_on_c, 0, 69, 29
3, 774360, Note_on_c, 0, 45, 0
3, 774360, Note_on_c, 0, 47, 38
3, 774480, Note_on_c, 0, 66, 0
3, 774480, Note_on_c, 0, 69, 0
3, 774480, Note_on_c, 0, 59, 0
3, 774480, Note_on_c, 0, 59, 23
3, 774480, Note_on_c, 0, 66, 23
3, 774480, Note_on_c, 0, 69, 23
3, 774720, Note_on_c, 0, 69, 0
3, 774720, Note_on_c, 0, 59, 0
3, 774720, Note_on_c, 0, 47, 0
3, 774720, Note_on_c, 0, 39, 0
3, 774720, Note_on_c, 0, 66, 0
3, 774720, Note_on_c, 0, 56, 21
3, 774720, Note_on_c, 0, 59, 21
3, 774720, Note_on_c, 0, 64, 21
3, 774720, Note_on_c, 0, 68, 21
3, 774720, Note_on_c, 0, 47, 35
3, 774720, Note_on_c, 0, 40, 101
3, 775080, Note_on_c, 0, 68, 0
3, 775080, Note_on_c, 0, 64, 0
3, 775080, Note_on_c, 0, 56, 0
3, 775080, Note_on_c, 0, 59, 0
3, 775440, Note_on_c, 0, 47, 0
3, 775440, Note_on_c, 0, 52, 21
3, 775440, Note_on_c, 0, 56, 21
3, 775440, Note_on_c, 0, 47, 45
3, 776073, Note_on_c, 0, 47, 0
3, 776160, Note_on_c, 0, 49, 81
3, 776160, Note_on_c, 0, 47, 61
3, 776520, Note_on_c, 0, 47, 0
3, 776520, Note_on_c, 0, 47, 52
3, 776793, Note_on_c, 0, 49, 0
3, 776880, Note_on_c, 0, 56, 0
3, 776880, Note_on_c, 0, 47, 0
3, 776880, Note_on_c, 0, 52, 0
3, 776880, Note_on_c, 0, 56, 25
3, 776880, Note_on_c, 0, 59, 25
3, 776880, Note_on_c, 0, 51, 102
3, 776880, Note_on_c, 0, 47, 59
3, 777240, Note_on_c, 0, 47, 0
3, 777240, Note_on_c, 0, 47, 56
3, 777513, Note_on_c, 0, 51, 0
3, 777600, Note_on_c, 0, 47, 0
3, 777600, Note_on_c, 0, 52, 102
3, 777686, Note_on_c, 0, 40, 35
3, 777711, Note_on_c, 0, 47, 38
3, 777753, Note_on_c, 0, 40, 0
3, 777767, Note_on_c, 0, 47, 0
3, 777770, Note_on_c, 0, 41, 27
3, 777783, Note_on_c, 0, 48, 28
3, 777838, Note_on_c, 0, 41, 0
3, 777839, Note_on_c, 0, 48, 0
3, 777855, Note_on_c, 0, 40, 39
3, 777855, Note_on_c, 0, 47, 32
3, 777911, Note_on_c, 0, 47, 0
3, 777917, Note_on_c, 0, 52, 0
3, 777922, Note_on_c, 0, 40, 0
3, 777928, Note_on_c, 0, 48, 25
3, 777938, Note_on_c, 0, 41, 32
3, 777960, Note_on_c, 0, 56, 0
3, 777960, Note_on_c, 0, 59, 0
3, 777960, Note_on_c, 0, 54, 37
3, 777986, Note_on_c, 0, 48, 0
3, 778002, Note_on_c, 0, 47, 30
3, 778004, Note_on_c, 0, 41, 0
3, 778019, Note_on_c, 0, 40, 36
3, 778061, Note_on_c, 0, 47, 0
3, 778077, Note_on_c, 0, 48, 36
3, 778084, Note_on_c, 0, 40, 0
3, 778101, Note_on_c, 0, 41, 28
3, 778136, Note_on_c, 0, 48, 0
3, 778153, Note_on_c, 0, 47, 28
3, 778166, Note_on_c, 0, 41, 0
3, 778181, Note_on_c, 0, 40, 28
3, 778213, Note_on_c, 0, 47, 0
3, 778229, Note_on_c, 0, 48, 36
3, 778244, Note_on_c, 0, 40, 0
3, 778260, Note_on_c, 0, 41, 26
3, 778289, Note_on_c, 0, 48, 0
3, 778306, Note_on_c, 0, 47, 39
3, 778322, Note_on_c, 0, 41, 0
3, 778338, Note_on_c, 0, 40, 40
3, 778368, Note_on_c, 0, 47, 0
3, 778383, Note_on_c, 0, 48, 31
3, 778400, Note_on_c, 0, 40, 0
3, 778416, Note_on_c, 0, 41, 25
3, 778445, Note_on_c, 0, 48, 0
3, 778462, Note_on_c, 0, 47, 29
3, 778478, Note_on_c, 0, 41, 0
3, 778493, Note_on_c, 0, 40, 31
3, 778524, Note_on_c, 0, 47, 0
3, 778542, Note_on_c, 0, 48, 27
3, 778555, Note_on_c, 0, 40, 0
3, 778569, Note_on_c, 0, 41, 30
3, 778593, Note_on_c, 0, 54, 0
3, 778605, Note_on_c, 0, 48, 0
3, 778622, Note_on_c, 0, 47, 29
3, 778629, Note_on_c, 0, 41, 0
3, 778645, Note_on_c, 0, 40, 27
3, 778680, Note_on_c, 0, 56, 37
3, 778686, Note_on_c, 0, 47, 0
3, 778704, Note_on_c, 0, 48, 26
3, 778706, Note_on_c, 0, 40, 0
3, 778719, Note_on_c, 0, 41, 25
3, 778769, Note_on_c, 0, 48, 0
3, 778779, Note_on_c, 0, 41, 0
3, 778787, Note_on_c, 0, 47, 39
3, 778793, Note_on_c, 0, 40, 36
3, 778850, Note_on_c, 0, 40, 0
3, 778853, Note_on_c, 0, 47, 0
3, 778866, Note_on_c, 0, 41, 28
3, 778870, Note_on_c, 0, 48, 21
3, 778923, Note_on_c, 0, 41, 0
3, 778936, Note_on_c, 0, 48, 0
3, 778937, Note_on_c, 0, 40, 33
3, 778954, Note_on_c, 0, 47, 30
3, 778994, Note_on_c, 0, 40, 0
3, 779009, Note_on_c, 0, 41, 23
3, 779022, Note_on_c, 0, 47, 0
3, 779039, Note_on_c, 0, 48, 20
3, 779040, Note_on_c, 0, 48, 0
3, 779040, Note_on_c, 0, 41, 0
3, 779105, Note_on_c, 0, 40, 26
3, 779105, Note_on_c, 0, 47, 32
3, 779156, Note_on_c, 0, 47, 0
3, 779156, Note_on_c, 0, 40, 0
3, 779168, Note_on_c, 0, 41, 27
3, 779168, Note_on_c, 0, 48, 27
3, 779219, Note_on_c, 0, 48, 0
3, 779219, Note_on_c, 0, 41, 0
3, 779230, Note_on_c, 0, 40, 39
3, 779230, Note_on_c, 0, 47, 32
3, 779279, Note_on_c, 0, 47, 0
3, 779279, Note_on_c, 0, 40, 0
3, 779291, Note_on_c, 0, 41, 29
3, 779291, Note_on_c, 0, 48, 24
3, 779338, Note_on_c, 0, 48, 0
3, 779338, Note_on_c, 0, 41, 0
3, 779351, Note_on_c, 0, 40, 37
3, 779351, Note_on_c, 0, 47, 34
3, 779399, Note_on_c, 0, 47, 0
3, 779399, Note_on_c, 0, 40, 0
3, 779400, Note_on_c, 0, 56, 0
3, 779400, Note_on_c, 0, 57, 25
3, 779410, Note_on_c, 0, 41, 25
3, 779410, Note_on_c, 0, 48, 20
3, 779456, Note_on_c, 0, 48, 0
3, 779456, Note_on_c, 0, 41, 0
3, 779468, Note_on_c, 0, 40, 31
3, 779468, Note_on_c, 0, 47, 29
3, 779513, Note_on_c, 0, 47, 0
3, 779513, Note_on_c, 0, 40, 0
3, 779524, Note_on_c, 0, 41, 28
3, 779524, Note_on_c, 0, 48, 28
3, 779569, Note_on_c, 0, 48, 0
3, 779569, Note_on_c, 0, 41, 0
3, 779580, Note_on_c, 0, 40, 27
3, 779580, Note_on_c, 0, 47, 29
3, 779625, Note_on_c, 0, 47, 0
3, 779625, Note_on_c, 0, 40, 0
3, 779635, Note_on_c, 0, 41, 26
3, 779635, Note_on_c, 0, 48, 38
3, 779679, Note_on_c, 0, 48, 0
3, 779679, Note_on_c, 0, 41, 0
3, 779688, Note_on_c, 0, 40, 32
3, 779688, Note_on_c, 0, 47, 34
3, 779730, Note_on_c, 0, 47, 0
3, 779730, Note_on_c, 0, 40, 0
3, 779742, Note_on_c, 0, 41, 29
3, 779742, Note_on_c, 0, 48, 26
3, 779760, Note_on_c, 0, 52, 85
3, 779784, Note_on_c, 0, 48, 0
3, 779784, Note_on_c, 0, 41, 0
3, 779794, Note_on_c, 0, 40, 24
3, 779794, Note_on_c, 0, 47, 37
3, 779835, Note_on_c, 0, 47, 0
3, 779835, Note_on_c, 0, 40, 0
3, 779847, Note_on_c, 0, 41, 22
3, 779847, Note_on_c, 0, 48, 29
3, 779889, Note_on_c, 0, 48, 0
3, 779889, Note_on_c, 0, 41, 0
3, 779901, Note_on_c, 0, 40, 31
3, 779901, Note_on_c, 0, 47, 34
3, 779943, Note_on_c, 0, 47, 0
3, 779943, Note_on_c, 0, 40, 0
3, 779955, Note_on_c, 0, 41, 23
3, 779955, Note_on_c, 0, 48, 23
3, 779999, Note_on_c, 0, 48, 0
3, 779999, Note_on_c, 0, 41, 0
3, 780012, Note_on_c, 0, 40, 31
3, 780012, Note_on_c, 0, 47, 25
3, 780057, Note_on_c, 0, 47, 0
3, 780057, Note_on_c, 0, 40, 0
3, 780068, Note_on_c, 0, 41, 27
3, 780068, Note_on_c, 0, 48, 27
3, 780113, Note_on_c, 0, 48, 0
3, 780113, Note_on_c, 0, 41, 0
3, 780120, Note_on_c, 0, 57, 0
3, 780120, Note_on_c, 0, 59, 41
3, 780126, Note_on_c, 0, 40, 37
3, 780126, Note_on_c, 0, 47, 30
3, 780171, Note_on_c, 0, 47, 0
3, 780171, Note_on_c, 0, 40, 0
3, 780185, Note_on_c, 0, 41, 29
3, 780185, Note_on_c, 0, 48, 30
3, 780231, Note_on_c, 0, 48, 0
3, 780231, Note_on_c, 0, 41, 0
3, 780245, Note_on_c, 0, 40, 40
3, 780245, Note_on_c, 0, 47, 28
3, 780293, Note_on_c, 0, 47, 0
3, 780293, Note_on_c, 0, 40, 0
3, 780306, Note_on_c, 0, 41, 30
3, 780306, Note_on_c, 0, 48, 27
3, 780354, Note_on_c, 0, 48, 0
3, 780354, Note_on_c, 0, 41, 0
3, 780368, Note_on_c, 0, 40, 35
3, 780368, Note_on_c, 0, 47, 29
3, 780417, Note_on_c, 0, 47, 0
3, 780417, Note_on_c, 0, 40, 0
3, 780431, Note_on_c, 0, 41, 31
3, 780431, Note_on_c, 0, 48, 25
3, 780437, Note_on_c, 0, 59, 0
3, 780480, Note_on_c, 0, 41, 0
3, 780480, Note_on_c, 0, 52, 0
3, 780480, Note_on_c, 0, 48, 0
3, 780480, Note_on_c, 0, 52, 40
3, 780480, Note_on_c, 0, 56, 40
3, 780480, Note_on_c, 0, 61, 40
3, 780480, Note_on_c, 0, 32, 47
3, 780527, Note_on_c, 0, 32, 0
3, 780539, Note_on_c, 0, 44, 70
3, 780585, Note_on_c, 0, 44, 0
3, 780598, Note_on_c, 0, 32, 47
3, 780645, Note_on_c, 0, 32, 0
3, 780657, Note_on_c, 0, 44, 70
3, 780704, Note_on_c, 0, 44, 0
3, 780716, Note_on_c, 0, 32, 47
3, 780763, Note_on_c, 0, 32, 0
3, 780776, Note_on_c, 0, 44, 70
3, 780822, Note_on_c, 0, 44, 0
3, 780834, Note_on_c, 0, 32, 47
3, 780881, Note_on_c, 0, 32, 0
3, 780894, Note_on_c, 0, 44, 70
3, 780940, Note_on_c, 0, 44, 0
3, 780953, Note_on_c, 0, 32, 47
3, 780999, Note_on_c, 0, 32, 0
3, 781012, Note_on_c, 0, 44, 70
3, 781058, Note_on_c, 0, 44, 0
3, 781071, Note_on_c, 0, 32, 47
3, 781117, Note_on_c, 0, 32, 0
3, 781130, Note_on_c, 0, 44, 70
3, 781176, Note_on_c, 0, 44, 0
3, 781189, Note_on_c, 0, 32, 47
3, 781200, Note_on_c, 0, 32, 50
3, 781235, Note_on_c, 0, 32, 0
3, 781247, Note_on_c, 0, 32, 0
3, 781248, Note_on_c, 0, 44, 70
3, 781259, Note_on_c, 0, 44, 66
3, 781294, Note_on_c, 0, 44, 0
3, 781305, Note_on_c, 0, 44, 0
3, 781318, Note_on_c, 0, 32, 50
3, 781365, Note_on_c, 0, 32, 0
3, 781377, Note_on_c, 0, 44, 66
3, 781424, Note_on_c, 0, 44, 0
3, 781436, Note_on_c, 0, 32, 50
3, 781483, Note_on_c, 0, 32, 0
3, 781496, Note_on_c, 0, 44, 66
3, 781542, Note_on_c, 0, 44, 0
3, 781554, Note_on_c, 0, 32, 50
3, 781601, Note_on_c, 0, 32, 0
3, 781614, Note_on_c, 0, 44, 66
3, 781660, Note_on_c, 0, 44, 0
3, 781673, Note_on_c, 0, 32, 50
3, 781719, Note_on_c, 0, 32, 0
3, 781732, Note_on_c, 0, 44, 66
3, 781778, Note_on_c, 0, 44, 0
3, 781791, Note_on_c, 0, 32, 50
3, 781837, Note_on_c, 0, 32, 0
3, 781850, Note_on_c, 0, 44, 66
3, 781896, Note_on_c, 0, 44, 0
3, 781909, Note_on_c, 0, 32, 50
3, 781920, Note_on_c, 0, 32, 0
3, 781920, Note_on_c, 0, 32, 49
3, 781967, Note_on_c, 0, 32, 0
3, 781979, Note_on_c, 0, 44, 63
3, 782025, Note_on_c, 0, 44, 0
3, 782038, Note_on_c, 0, 32, 49
3, 782085, Note_on_c, 0, 32, 0
3, 782097, Note_on_c, 0, 44, 63
3, 782144, Note_on_c, 0, 44, 0
3, 782156, Note_on_c, 0, 32, 49
3, 782203, Note_on_c, 0, 32, 0
3, 782216, Note_on_c, 0, 44, 63
3, 782262, Note_on_c, 0, 44, 0
3, 782274, Note_on_c, 0, 32, 49
3, 782321, Note_on_c, 0, 32, 0
3, 782334, Note_on_c, 0, 44, 63
3, 782380, Note_on_c, 0, 44, 0
3, 782393, Note_on_c, 0, 32, 49
3, 782439, Note_on_c, 0, 32, 0
3, 782452, Note_on_c, 0, 44, 63
3, 782498, Note_on_c, 0, 44, 0
3, 782511, Note_on_c, 0, 32, 49
3, 782557, Note_on_c, 0, 32, 0
3, 782570, Note_on_c, 0, 44, 63
3, 782616, Note_on_c, 0, 44, 0
3, 782629, Note_on_c, 0, 32, 49
3, 782640, Note_on_c, 0, 32, 47
3, 782675, Note_on_c, 0, 32, 0
3, 782687, Note_on_c, 0, 32, 0
3, 782688, Note_on_c, 0, 44, 63
3, 782699, Note_on_c, 0, 44, 67
3, 782734, Note_on_c, 0, 44, 0
3, 782745, Note_on_c, 0, 44, 0
3, 782758, Note_on_c, 0, 32, 47
3, 782805, Note_on_c, 0, 32, 0
3, 782817, Note_on_c, 0, 44, 67
3, 782864, Note_on_c, 0, 44, 0
3, 782876, Note_on_c, 0, 32, 47
3, 782923, Note_on_c, 0, 32, 0
3, 782936, Note_on_c, 0, 44, 67
3, 782982, Note_on_c, 0, 44, 0
3, 782994, Note_on_c, 0, 32, 47
3, 783041, Note_on_c, 0, 32, 0
3, 783054, Note_on_c, 0, 44, 67
3, 783100, Note_on_c, 0, 44, 0
3, 783113, Note_on_c, 0, 32, 47
3, 783159, Note_on_c, 0, 32, 0
3, 783172, Note_on_c, 0, 44, 67
3, 783218, Note_on_c, 0, 44, 0
3, 783231, Note_on_c, 0, 32, 47
3, 783277, Note_on_c, 0, 32, 0
3, 783290, Note_on_c, 0, 44, 67
3, 783336, Note_on_c, 0, 44, 0
3, 783349, Note_on_c, 0, 32, 47
3, 783360, Note_on_c, 0, 32, 0
3, 783360, Note_on_c, 0, 61, 0
3, 783360, Note_on_c, 0, 56, 0
3, 783360, Note_on_c, 0, 52, 0
3, 783360, Note_on_c, 0, 51, 36
3, 783360, Note_on_c, 0, 56, 36
3, 783360, Note_on_c, 0, 59, 36
3, 783360, Note_on_c, 0, 32, 45
3, 783407, Note_on_c, 0, 32, 0
3, 783419, Note_on_c, 0, 44, 68
3, 783465, Note_on_c, 0, 44, 0
3, 783478, Note_on_c, 0, 32, 45
3, 783525, Note_on_c, 0, 32, 0
3, 783537, Note_on_c, 0, 44, 68
3, 783584, Note_on_c, 0, 44, 0
3, 783596, Note_on_c, 0, 32, 45
3, 783643, Note_on_c, 0, 32, 0
3, 783656, Note_on_c, 0, 44, 68
3, 783702, Note_on_c, 0, 44, 0
3, 783714, Note_on_c, 0, 32, 45
3, 783761, Note_on_c, 0, 32, 0
3, 783774, Note_on_c, 0, 44, 68
3, 783820, Note_on_c, 0, 44, 0
3, 783833, Note_on_c, 0, 32, 45
3, 783879, Note_on_c, 0, 32, 0
3, 783892, Note_on_c, 0, 44, 68
3, 783938, Note_on_c, 0, 44, 0
3, 783951, Note_on_c, 0, 32, 45
3, 783993, Note_on_c, 0, 59, 0
3, 783993, Note_on_c, 0, 56, 0
3, 783993, Note_on_c, 0, 51, 0
3, 783997, Note_on_c, 0, 32, 0
3, 784010, Note_on_c, 0, 44, 68
3, 784056, Note_on_c, 0, 44, 0
3, 784069, Note_on_c, 0, 32, 45
3, 784080, Note_on_c, 0, 52, 38
3, 784080, Note_on_c, 0, 61, 38
3, 784080, Note_on_c, 0, 32, 51
3, 784115, Note_on_c, 0, 32, 0
3, 784127, Note_on_c, 0, 32, 0
3, 784128, Note_on_c, 0, 44, 68
3, 784139, Note_on_c, 0, 44, 70
3, 784174, Note_on_c, 0, 44, 0
3, 784185, Note_on_c, 0, 44, 0
3, 784198, Note_on_c, 0, 32, 51
3, 784245, Note_on_c, 0, 32, 0
3, 784257, Note_on_c, 0, 44, 70
3, 784304, Note_on_c, 0, 44, 0
3, 784316, Note_on_c, 0, 32, 51
3, 784363, Note_on_c, 0, 32, 0
3, 784376, Note_on_c, 0, 44, 70
3, 784422, Note_on_c, 0, 44, 0
3, 784434, Note_on_c, 0, 32, 51
3, 784481, Note_on_c, 0, 32, 0
3, 784494, Note_on_c, 0, 44, 70
3, 784540, Note_on_c, 0, 44, 0
3, 784553, Note_on_c, 0, 32, 51
3, 784599, Note_on_c, 0, 32, 0
3, 784612, Note_on_c, 0, 44, 70
3, 784658, Note_on_c, 0, 44, 0
3, 784671, Note_on_c, 0, 32, 51
3, 784713, Note_on_c, 0, 52, 0
3, 784717, Note_on_c, 0, 32, 0
3, 784730, Note_on_c, 0, 44, 70
3, 784776, Note_on_c, 0, 44, 0
3, 784789, Note_on_c, 0, 32, 51
3, 784800, Note_on_c, 0, 32, 0
3, 784800, Note_on_c, 0, 52, 85
3, 784800, Note_on_c, 0, 32, 49
3, 784847, Note_on_c, 0, 32, 0
3, 784859, Note_on_c, 0, 44, 66
3, 784905, Note_on_c, 0, 44, 0
3, 784918, Note_on_c, 0, 32, 49
3, 784965, Note_on_c, 0, 32, 0
3, 784977, Note_on_c, 0, 44, 66
3, 785024, Note_on_c, 0, 44, 0
3, 785036, Note_on_c, 0, 32, 49
3, 785083, Note_on_c, 0, 32, 0
3, 785096, Note_on_c, 0, 44, 66
3, 785142, Note_on_c, 0, 44, 0
3, 785154, Note_on_c, 0, 32, 49
3, 785201, Note_on_c, 0, 32, 0
3, 785214, Note_on_c, 0, 44, 66
3, 785260, Note_on_c, 0, 44, 0
3, 785273, Note_on_c, 0, 32, 49
3, 785319, Note_on_c, 0, 32, 0
3, 785332, Note_on_c, 0, 44, 66
3, 785378, Note_on_c, 0, 44, 0
3, 785391, Note_on_c, 0, 32, 49
3, 785437, Note_on_c, 0, 32, 0
3, 785450, Note_on_c, 0, 44, 66
3, 785496, Note_on_c, 0, 44, 0
3, 785509, Note_on_c, 0, 32, 49
3, 785520, Note_on_c, 0, 52, 0
3, 785520, Note_on_c, 0, 61, 0
3, 785520, Note_on_c, 0, 59, 31
3, 785520, Note_on_c, 0, 51, 85
3, 785520, Note_on_c, 0, 32, 50
3, 785555, Note_on_c, 0, 32, 0
3, 785567, Note_on_c, 0, 32, 0
3, 785568, Note_on_c, 0, 44, 66
3, 785579, Note_on_c, 0, 44, 68
3, 785614, Note_on_c, 0, 44, 0
3, 785625, Note_on_c, 0, 44, 0
3, 785638, Note_on_c, 0, 32, 50
3, 785685, Note_on_c, 0, 32, 0
3, 785697, Note_on_c, 0, 44, 68
3, 785744, Note_on_c, 0, 44, 0
3, 785756, Note_on_c, 0, 32, 50
3, 785803, Note_on_c, 0, 32, 0
3, 785816, Note_on_c, 0, 44, 68
3, 785862, Note_on_c, 0, 44, 0
3, 785874, Note_on_c, 0, 32, 50
3, 785921, Note_on_c, 0, 32, 0
3, 785934, Note_on_c, 0, 44, 68
3, 785980, Note_on_c, 0, 44, 0
3, 785993, Note_on_c, 0, 32, 50
3, 786039, Note_on_c, 0, 32, 0
3, 786052, Note_on_c, 0, 44, 68
3, 786098, Note_on_c, 0, 44, 0
3, 786111, Note_on_c, 0, 32, 50
3, 786153, Note_on_c, 0, 59, 0
3, 786157, Note_on_c, 0, 32, 0
3, 786170, Note_on_c, 0, 44, 68
3, 786216, Note_on_c, 0, 44, 0
3, 786229, Note_on_c, 0, 32, 50
3, 786240, Note_on_c, 0, 32, 0
3, 786240, Note_on_c, 0, 51, 0
3, 786240, Note_on_c, 0, 57, 37
3, 786240, Note_on_c, 0, 33, 58
3, 786240, Note_on_c, 0, 45, 58
3, 786305, Note_on_c, 0, 52, 38
3, 786356, Note_on_c, 0, 52, 0
3, 786368, Note_on_c, 0, 53, 31
3, 786419, Note_on_c, 0, 53, 0
3, 786430, Note_on_c, 0, 52, 33
3, 786479, Note_on_c, 0, 52, 0
3, 786491, Note_on_c, 0, 53, 36
3, 786538, Note_on_c, 0, 53, 0
3, 786551, Note_on_c, 0, 52, 32
3, 786599, Note_on_c, 0, 52, 0
3, 786610, Note_on_c, 0, 53, 29
3, 786656, Note_on_c, 0, 53, 0
3, 786668, Note_on_c, 0, 52, 32
3, 786713, Note_on_c, 0, 52, 0
3, 786724, Note_on_c, 0, 53, 28
3, 786769, Note_on_c, 0, 53, 0
3, 786780, Note_on_c, 0, 52, 30
3, 786825, Note_on_c, 0, 52, 0
3, 786835, Note_on_c, 0, 53, 38
3, 786873, Note_on_c, 0, 57, 0
3, 786879, Note_on_c, 0, 53, 0
3, 786888, Note_on_c, 0, 52, 41
3, 786930, Note_on_c, 0, 52, 0
3, 786942, Note_on_c, 0, 53, 29
3, 786960, Note_on_c, 0, 56, 33
3, 786984, Note_on_c, 0, 53, 0
3, 786994, Note_on_c, 0, 52, 40
3, 787035, Note_on_c, 0, 52, 0
3, 787047, Note_on_c, 0, 53, 23
3, 787089, Note_on_c, 0, 53, 0
3, 787101, Note_on_c, 0, 52, 37
3, 787143, Note_on_c, 0, 52, 0
3, 787155, Note_on_c, 0, 53, 32
3, 787199, Note_on_c, 0, 53, 0
3, 787212, Note_on_c, 0, 52, 44
3, 787257, Note_on_c, 0, 52, 0
3, 787268, Note_on_c, 0, 53, 31
3, 787277, Note_on_c, 0, 56, 0
3, 787313, Note_on_c, 0, 53, 0
3, 787320, Note_on_c, 0, 57, 38
3, 787326, Note_on_c, 0, 52, 29
3, 787371, Note_on_c, 0, 52, 0
3, 787385, Note_on_c, 0, 53, 33
3, 787431, Note_on_c, 0, 53, 0
3, 787445, Note_on_c, 0, 52, 41
3, 787493, Note_on_c, 0, 52, 0
3, 787506, Note_on_c, 0, 53, 23
3, 787554, Note_on_c, 0, 53, 0
3, 787568, Note_on_c, 0, 52, 37
3, 787617, Note_on_c, 0, 52, 0
3, 787631, Note_on_c, 0, 53, 24
3, 787637, Note_on_c, 0, 57, 0
3, 787680, Note_on_c, 0, 45, 0
3, 787680, Note_on_c, 0, 53, 0
3, 787680, Note_on_c, 0, 33, 0
3, 787680, Note_on_c, 0, 52, 22
3, 787680, Note_on_c, 0, 56, 22
3, 787680, Note_on_c, 0, 59, 22
3, 787680, Note_on_c, 0, 35, 53
3, 787736, Note_on_c, 0, 35, 0
3, 787752, Note_on_c, 0, 47, 66
3, 787808, Note_on_c, 0, 47, 0
3, 787824, Note_on_c, 0, 35, 53
3, 787880, Note_on_c, 0, 35, 0
3, 787895, Note_on_c, 0, 47, 66
3, 787952, Note_on_c, 0, 47, 0
3, 787967, Note_on_c, 0, 35, 53
3, 788023, Note_on_c, 0, 35, 0
3, 788039, Note_on_c, 0, 47, 66
3, 788095, Note_on_c, 0, 47, 0
3, 788111, Note_on_c, 0, 35, 53
3, 788167, Note_on_c, 0, 35, 0
3, 788182, Note_on_c, 0, 47, 66
3, 788238, Note_on_c, 0, 47, 0
3, 788254, Note_on_c, 0, 35, 53
3, 788310, Note_on_c, 0, 35, 0
3, 788325, Note_on_c, 0, 47, 66
3, 788382, Note_on_c, 0, 47, 0
3, 788397, Note_on_c, 0, 35, 53
3, 788400, Note_on_c, 0, 35, 49
3, 788454, Note_on_c, 0, 35, 0
3, 788456, Note_on_c, 0, 35, 0
3, 788469, Note_on_c, 0, 47, 66
3, 788472, Note_on_c, 0, 47, 65
3, 788525, Note_on_c, 0, 47, 0
3, 788528, Note_on_c, 0, 47, 0
3, 788544, Note_on_c, 0, 35, 49
3, 788600, Note_on_c, 0, 35, 0
3, 788615, Note_on_c, 0, 47, 65
3, 788672, Note_on_c, 0, 47, 0
3, 788687, Note_on_c, 0, 35, 49
3, 788743, Note_on_c, 0, 35, 0
3, 788759, Note_on_c, 0, 47, 65
3, 788815, Note_on_c, 0, 47, 0
3, 788831, Note_on_c, 0, 35, 49
3, 788887, Note_on_c, 0, 35, 0
3, 788902, Note_on_c, 0, 47, 65
3, 788958, Note_on_c, 0, 47, 0
3, 788974, Note_on_c, 0, 35, 49
3, 789030, Note_on_c, 0, 35, 0
3, 789045, Note_on_c, 0, 47, 65
3, 789102, Note_on_c, 0, 47, 0
3, 789117, Note_on_c, 0, 35, 49
3, 789120, Note_on_c, 0, 35, 0
3, 789120, Note_on_c, 0, 35, 50
3, 789176, Note_on_c, 0, 35, 0
3, 789192, Note_on_c, 0, 47, 66
3, 789248, Note_on_c, 0, 47, 0
3, 789264, Note_on_c, 0, 35, 50
3, 789320, Note_on_c, 0, 35, 0
3, 789335, Note_on_c, 0, 47, 66
3, 789392, Note_on_c, 0, 47, 0
3, 789407, Note_on_c, 0, 35, 50
3, 789463, Note_on_c, 0, 35, 0
3, 789479, Note_on_c, 0, 47, 66
3, 789535, Note_on_c, 0, 47, 0
3, 789551, Note_on_c, 0, 35, 50
3, 789607, Note_on_c, 0, 35, 0
3, 789622, Note_on_c, 0, 47, 66
3, 789678, Note_on_c, 0, 47, 0
3, 789694, Note_on_c, 0, 35, 50
3, 789750, Note_on_c, 0, 35, 0
3, 789765, Note_on_c, 0, 47, 66
3, 789822, Note_on_c, 0, 47, 0
3, 789837, Note_on_c, 0, 35, 50
3, 789840, Note_on_c, 0, 35, 53
3, 789894, Note_on_c, 0, 35, 0
3, 789896, Note_on_c, 0, 35, 0
3, 789909, Note_on_c, 0, 47, 66
3, 789912, Note_on_c, 0, 47, 69
3, 789965, Note_on_c, 0, 47, 0
3, 789968, Note_on_c, 0, 47, 0
3, 789984, Note_on_c, 0, 35, 53
3, 790040, Note_on_c, 0, 35, 0
3, 790055, Note_on_c, 0, 47, 69
3, 790112, Note_on_c, 0, 47, 0
3, 790127, Note_on_c, 0, 35, 53
3, 790183, Note_on_c, 0, 35, 0
3, 790199, Note_on_c, 0, 47, 69
3, 790255, Note_on_c, 0, 47, 0
3, 790271, Note_on_c, 0, 35, 53
3, 790327, Note_on_c, 0, 35, 0
3, 790342, Note_on_c, 0, 47, 69
3, 790398, Note_on_c, 0, 47, 0
3, 790414, Note_on_c, 0, 35, 53
3, 790470, Note_on_c, 0, 35, 0
3, 790485, Note_on_c, 0, 47, 69
3, 790542, Note_on_c, 0, 47, 0
3, 790557, Note_on_c, 0, 35, 53
3, 790560, Note_on_c, 0, 35, 0
3, 790560, Note_on_c, 0, 59, 0
3, 790560, Note_on_c, 0, 56, 0
3, 790560, Note_on_c, 0, 52, 0
3, 790560, Note_on_c, 0, 54, 28
3, 790560, Note_on_c, 0, 57, 28
3, 790560, Note_on_c, 0, 35, 56
3, 790616, Note_on_c, 0, 35, 0
3, 790632, Note_on_c, 0, 47, 70
3, 790688, Note_on_c, 0, 47, 0
3, 790704, Note_on_c, 0, 35, 56
3, 790760, Note_on_c, 0, 35, 0
3, 790775, Note_on_c, 0, 47, 70
3, 790832, Note_on_c, 0, 47, 0
3, 790847, Note_on_c, 0, 35, 56
3, 790903, Note_on_c, 0, 35, 0
3, 790919, Note_on_c, 0, 47, 70
3, 790975, Note_on_c, 0, 47, 0
3, 790991, Note_on_c, 0, 35, 56
3, 791047, Note_on_c, 0, 35, 0
3, 791062, Note_on_c, 0, 47, 70
3, 791118, Note_on_c, 0, 47, 0
3, 791134, Note_on_c, 0, 35, 56
3, 791190, Note_on_c, 0, 35, 0
3, 791205, Note_on_c, 0, 47, 70
3, 791262, Note_on_c, 0, 47, 0
3, 791277, Note_on_c, 0, 35, 56
3, 791280, Note_on_c, 0, 35, 45
3, 791334, Note_on_c, 0, 35, 0
3, 791336, Note_on_c, 0, 35, 0
3, 791349, Note_on_c, 0, 47, 70
3, 791352, Note_on_c, 0, 47, 70
3, 791405, Note_on_c, 0, 47, 0
3, 791408, Note_on_c, 0, 47, 0
3, 791424, Note_on_c, 0, 35, 45
3, 791480, Note_on_c, 0, 35, 0
3, 791495, Note_on_c, 0, 47, 70
3, 791552, Note_on_c, 0, 47, 0
3, 791567, Note_on_c, 0, 35, 45
3, 791623, Note_on_c, 0, 35, 0
3, 791639, Note_on_c, 0, 47, 70
3, 791640, Note_on_c, 0, 57, 0
3, 791640, Note_on_c, 0, 54, 0
3, 791640, Note_on_c, 0, 52, 27
3, 791640, Note_on_c, 0, 56, 27
3, 791640, Note_on_c, 0, 59, 27
3, 791695, Note_on_c, 0, 47, 0
3, 791711, Note_on_c, 0, 35, 45
3, 791767, Note_on_c, 0, 35, 0
3, 791782, Note_on_c, 0, 47, 70
3, 791838, Note_on_c, 0, 47, 0
3, 791854, Note_on_c, 0, 35, 45
3, 791910, Note_on_c, 0, 35, 0
3, 791925, Note_on_c, 0, 47, 70
3, 791982, Note_on_c, 0, 47, 0
3, 791997, Note_on_c, 0, 35, 45
3, 792000, Note_on_c, 0, 35, 0
3, 792000, Note_on_c, 0, 59, 0
3, 792000, Note_on_c, 0, 56, 0
3, 792000, Note_on_c, 0, 52, 0
3, 792000, Note_on_c, 0, 54, 19
3, 792000, Note_on_c, 0, 57, 19
3, 792000, Note_on_c, 0, 52, 36
3, 792093, Note_on_c, 0, 39, 32
3, 792132, Note_on_c, 0, 46, 31
3, 792166, Note_on_c, 0, 39, 0
3, 792184, Note_on_c, 0, 40, 34
3, 792191, Note_on_c, 0, 46, 0
3, 792208, Note_on_c, 0, 45, 41
3, 792257, Note_on_c, 0, 40, 0
3, 792269, Note_on_c, 0, 45, 0
3, 792274, Note_on_c, 0, 39, 35
3, 792285, Note_on_c, 0, 46, 28
3, 792346, Note_on_c, 0, 39, 0
3, 792347, Note_on_c, 0, 46, 0
3, 792363, Note_on_c, 0, 40, 24
3, 792364, Note_on_c, 0, 45, 38
3, 792426, Note_on_c, 0, 45, 0
3, 792433, Note_on_c, 0, 40, 0
3, 792443, Note_on_c, 0, 46, 29
3, 792450, Note_on_c, 0, 39, 41
3, 792505, Note_on_c, 0, 46, 0
3, 792519, Note_on_c, 0, 39, 0
3, 792523, Note_on_c, 0, 45, 29
3, 792537, Note_on_c, 0, 40, 28
3, 792587, Note_on_c, 0, 45, 0
3, 792605, Note_on_c, 0, 46, 32
3, 792606, Note_on_c, 0, 40, 0
3, 792623, Note_on_c, 0, 39, 37
3, 792669, Note_on_c, 0, 46, 0
3, 792688, Note_on_c, 0, 45, 37
3, 792690, Note_on_c, 0, 39, 0
3, 792707, Note_on_c, 0, 40, 34
3, 792754, Note_on_c, 0, 45, 0
3, 792771, Note_on_c, 0, 46, 32
3, 792775, Note_on_c, 0, 40, 0
3, 792791, Note_on_c, 0, 39, 36
3, 792837, Note_on_c, 0, 46, 0
3, 792855, Note_on_c, 0, 45, 31
3, 792857, Note_on_c, 0, 39, 0
3, 792873, Note_on_c, 0, 40, 24
3, 792923, Note_on_c, 0, 45, 0
3, 792939, Note_on_c, 0, 40, 0
3, 792941, Note_on_c, 0, 46, 20
3, 792955, Note_on_c, 0, 39, 36
3, 793008, Note_on_c, 0, 46, 0
3, 793020, Note_on_c, 0, 39, 0
3, 793028, Note_on_c, 0, 45, 31
3, 793035, Note_on_c, 0, 40, 29
3, 793097, Note_on_c, 0, 45, 0
3, 793098, Note_on_c, 0, 40, 0
3, 793114, Note_on_c, 0, 39, 41
3, 793117, Note_on_c, 0, 46, 29
3, 793176, Note_on_c, 0, 39, 0
3, 793187, Note_on_c, 0, 46, 0
3, 793193, Note_on_c, 0, 40, 29
3, 793205, Note_on_c, 0, 45, 31
3, 793254, Note_on_c, 0, 40, 0
3, 793270, Note_on_c, 0, 39, 50
3, 793275, Note_on_c, 0, 45, 0
3, 793295, Note_on_c, 0, 46, 30
3, 793332, Note_on_c, 0, 39, 0
3, 793346, Note_on_c, 0, 40, 27
3, 793367, Note_on_c, 0, 46, 0
3, 793387, Note_on_c, 0, 45, 28
3, 793406, Note_on_c, 0, 40, 0
3, 793422, Note_on_c, 0, 39, 36
3, 793440, Note_on_c, 0, 39, 0
3, 793440, Note_on_c, 0, 45, 0
3, 793533, Note_on_c, 0, 39, 39
3, 793533, Note_on_c, 0, 45, 44
3, 793606, Note_on_c, 0, 45, 0
3, 793606, Note_on_c, 0, 39, 0
3, 793622, Note_on_c, 0, 40, 24
3, 793622, Note_on_c, 0, 46, 26
3, 793692, Note_on_c, 0, 46, 0
3, 793692, Note_on_c, 0, 40, 0
3, 793709, Note_on_c, 0, 39, 35
3, 793709, Note_on_c, 0, 45, 36
3, 793778, Note_on_c, 0, 45, 0
3, 793778, Note_on_c, 0, 39, 0
3, 793793, Note_on_c, 0, 40, 32
3, 793793, Note_on_c, 0, 46, 35
3, 793800, Note_on_c, 0, 52, 0
3, 793800, Note_on_c, 0, 51, 34
3, 793860, Note_on_c, 0, 40, 0
3, 793860, Note_on_c, 0, 46, 0
3, 793876, Note_on_c, 0, 39, 31
3, 793876, Note_on_c, 0, 45, 31
3, 793942, Note_on_c, 0, 45, 0
3, 793942, Note_on_c, 0, 39, 0
3, 793956, Note_on_c, 0, 40, 34
3, 793956, Note_on_c, 0, 46, 32
3, 794019, Note_on_c, 0, 46, 0
3, 794019, Note_on_c, 0, 40, 0
3, 794035, Note_on_c, 0, 39, 35
3, 794035, Note_on_c, 0, 45, 41
3, 794097, Note_on_c, 0, 45, 0
3, 794097, Note_on_c, 0, 39, 0
3, 794111, Note_on_c, 0, 40, 35
3, 794111, Note_on_c, 0, 46, 40
3, 794171, Note_on_c, 0, 46, 0
3, 794171, Note_on_c, 0, 40, 0
3, 794186, Note_on_c, 0, 39, 37
3, 794186, Note_on_c, 0, 45, 31
3, 794244, Note_on_c, 0, 45, 0
3, 794244, Note_on_c, 0, 39, 0
3, 794261, Note_on_c, 0, 40, 34
3, 794261, Note_on_c, 0, 46, 32
3, 794322, Note_on_c, 0, 46, 0
3, 794322, Note_on_c, 0, 40, 0
3, 794340, Note_on_c, 0, 39, 26
3, 794340, Note_on_c, 0, 45, 35
3, 794402, Note_on_c, 0, 45, 0
3, 794402, Note_on_c, 0, 39, 0
3, 794420, Note_on_c, 0, 40, 34
3, 794420, Note_on_c, 0, 46, 39
3, 794484, Note_on_c, 0, 46, 0
3, 794484, Note_on_c, 0, 40, 0
3, 794503, Note_on_c, 0, 39, 34
3, 794503, Note_on_c, 0, 45, 39
3, 794520, Note_on_c, 0, 51, 0
3, 794520, Note_on_c, 0, 52, 39
3, 794569, Note_on_c, 0, 39, 0
3, 794569, Note_on_c, 0, 45, 0
3, 794588, Note_on_c, 0, 40, 29
3, 794588, Note_on_c, 0, 46, 26
3, 794655, Note_on_c, 0, 46, 0
3, 794655, Note_on_c, 0, 40, 0
3, 794675, Note_on_c, 0, 39, 38
3, 794675, Note_on_c, 0, 45, 35
3, 794744, Note_on_c, 0, 45, 0
3, 794744, Note_on_c, 0, 39, 0
3, 794763, Note_on_c, 0, 40, 31
3, 794763, Note_on_c, 0, 46, 32
3, 794834, Note_on_c, 0, 46, 0
3, 794834, Note_on_c, 0, 40, 0
3, 794855, Note_on_c, 0, 39, 36
3, 794855, Note_on_c, 0, 45, 36
3, 794880, Note_on_c, 0, 45, 0
3, 794880, Note_on_c, 0, 52, 0
3, 794880, Note_on_c, 0, 54, 0
3, 794880, Note_on_c, 0, 57, 0
3, 794880, Note_on_c, 0, 39, 0
3, 794880, Note_on_c, 0, 47, 36
3, 794880, Note_on_c, 0, 51, 36
3, 794880, Note_on_c, 0, 54, 36
3, 794880, Note_on_c, 0, 57, 36
3, 794880, Note_on_c, 0, 35, 27
3, 794984, Note_on_c, 0, 57, 0
3, 794984, Note_on_c, 0, 54, 0
3, 794984, Note_on_c, 0, 51, 0
3, 794984, Note_on_c, 0, 47, 0
3, 795000, Note_on_c, 0, 47, 30
3, 795000, Note_on_c, 0, 51, 30
3, 795000, Note_on_c, 0, 54, 30
3, 795000, Note_on_c, 0, 57, 30
3, 795104, Note_on_c, 0, 57, 0
3, 795104, Note_on_c, 0, 51, 0
3, 795104, Note_on_c, 0, 47, 0
3, 795104, Note_on_c, 0, 54, 0
3, 795119, Note_on_c, 0, 47, 39
3, 795119, Note_on_c, 0, 51, 39
3, 795119, Note_on_c, 0, 54, 39
3, 795119, Note_on_c, 0, 57, 39
3, 795225, Note_on_c, 0, 57, 0
3, 795225, Note_on_c, 0, 51, 0
3, 795225, Note_on_c, 0, 47, 0
3, 795225, Note_on_c, 0, 54, 0
3, 795240, Note_on_c, 0, 35, 0
3, 795240, Note_on_c, 0, 57, 26
3, 795240, Note_on_c, 0, 51, 41
3, 795240, Note_on_c, 0, 54, 41
3, 795240, Note_on_c, 0, 35, 38
3, 795296, Note_on_c, 0, 35, 0
3, 795312, Note_on_c, 0, 47, 50
3, 795368, Note_on_c, 0, 47, 0
3, 795384, Note_on_c, 0, 35, 38
3, 795440, Note_on_c, 0, 35, 0
3, 795455, Note_on_c, 0, 47, 50
3, 795512, Note_on_c, 0, 47, 0
3, 795527, Note_on_c, 0, 35, 38
3, 795583, Note_on_c, 0, 35, 0
3, 795599, Note_on_c, 0, 47, 50
3, 795655, Note_on_c, 0, 47, 0
3, 795671, Note_on_c, 0, 35, 38
3, 795727, Note_on_c, 0, 35, 0
3, 795742, Note_on_c, 0, 47, 50
3, 795798, Note_on_c, 0, 47, 0
3, 795814, Note_on_c, 0, 35, 38
3, 795870, Note_on_c, 0, 35, 0
3, 795885, Note_on_c, 0, 47, 50
3, 795942, Note_on_c, 0, 47, 0
3, 795957, Note_on_c, 0, 35, 38
3, 796014, Note_on_c, 0, 35, 0
3, 796029, Note_on_c, 0, 47, 50
3, 796085, Note_on_c, 0, 47, 0
3, 796101, Note_on_c, 0, 35, 38
3, 796157, Note_on_c, 0, 35, 0
3, 796172, Note_on_c, 0, 47, 50
3, 796229, Note_on_c, 0, 47, 0
3, 796244, Note_on_c, 0, 35, 38
3, 796301, Note_on_c, 0, 35, 0
3, 796316, Note_on_c, 0, 47, 50
3, 796320, Note_on_c, 0, 47, 0
3, 796320, Note_on_c, 0, 35, 28
3, 796359, Note_on_c, 0, 35, 0
3, 796371, Note_on_c, 0, 47, 40
3, 796410, Note_on_c, 0, 47, 0
3, 796421, Note_on_c, 0, 35, 28
3, 796461, Note_on_c, 0, 35, 0
3, 796472, Note_on_c, 0, 47, 40
3, 796511, Note_on_c, 0, 47, 0
3, 796523, Note_on_c, 0, 35, 28
3, 796562, Note_on_c, 0, 35, 0
3, 796573, Note_on_c, 0, 47, 40
3, 796613, Note_on_c, 0, 47, 0
3, 796624, Note_on_c, 0, 35, 28
3, 796663, Note_on_c, 0, 35, 0
3, 796674, Note_on_c, 0, 47, 40
3, 796714, Note_on_c, 0, 47, 0
3, 796725, Note_on_c, 0, 35, 28
3, 796764, Note_on_c, 0, 35, 0
3, 796776, Note_on_c, 0, 47, 40
3, 796815, Note_on_c, 0, 47, 0
3, 796826, Note_on_c, 0, 35, 28
3, 796866, Note_on_c, 0, 35, 0
3, 796877, Note_on_c, 0, 47, 40
3, 796916, Note_on_c, 0, 47, 0
3, 796928, Note_on_c, 0, 35, 28
3, 796967, Note_on_c, 0, 35, 0
3, 796978, Note_on_c, 0, 47, 40
3, 797018, Note_on_c, 0, 47, 0
3, 797029, Note_on_c, 0, 35, 28
3, 797040, Note_on_c, 0, 54, 0
3, 797040, Note_on_c, 0, 51, 0
3, 797040, Note_on_c, 0, 52, 35
3, 797040, Note_on_c, 0, 35, 30
3, 797068, Note_on_c, 0, 35, 0
3, 797079, Note_on_c, 0, 35, 0
3, 797079, Note_on_c, 0, 47, 40
3, 797091, Note_on_c, 0, 47, 46
3, 797119, Note_on_c, 0, 47, 0
3, 797130, Note_on_c, 0, 47, 0
3, 797141, Note_on_c, 0, 35, 30
3, 797181, Note_on_c, 0, 35, 0
3, 797192, Note_on_c, 0, 47, 46
3, 797231, Note_on_c, 0, 47, 0
3, 797243, Note_on_c, 0, 35, 30
3, 797282, Note_on_c, 0, 35, 0
3, 797293, Note_on_c, 0, 47, 46
3, 797333, Note_on_c, 0, 47, 0
3, 797344, Note_on_c, 0, 35, 30
3, 797383, Note_on_c, 0, 35, 0
3, 797394, Note_on_c, 0, 47, 46
3, 797434, Note_on_c, 0, 47, 0
3, 797445, Note_on_c, 0, 35, 30
3, 797484, Note_on_c, 0, 35, 0
3, 797496, Note_on_c, 0, 47, 46
3, 797535, Note_on_c, 0, 47, 0
3, 797546, Note_on_c, 0, 35, 30
3, 797586, Note_on_c, 0, 35, 0
3, 797597, Note_on_c, 0, 47, 46
3, 797636, Note_on_c, 0, 47, 0
3, 797648, Note_on_c, 0, 35, 30
3, 797687, Note_on_c, 0, 35, 0
3, 797698, Note_on_c, 0, 47, 46
3, 797738, Note_on_c, 0, 47, 0
3, 797749, Note_on_c, 0, 35, 30
3, 797760, Note_on_c, 0, 35, 0
3, 797760, Note_on_c, 0, 52, 0
3, 797760, Note_on_c, 0, 57, 0
3, 797760, Note_on_c, 0, 52, 68
3, 797760, Note_on_c, 0, 56, 68
3, 797760, Note_on_c, 0, 36, 76
3, 797760, Note_on_c, 0, 48, 76
3, 797999, Note_on_c, 0, 48, 0
3, 797999, Note_on_c, 0, 56, 0
3, 797999, Note_on_c, 0, 36, 0
3, 797999, Note_on_c, 0, 52, 0
3, 797999, Note_on_c, 0, 52, 71
3, 797999, Note_on_c, 0, 56, 71
3, 797999, Note_on_c, 0, 38, 66
3, 798120, Note_on_c, 0, 38, 0
3, 798120, Note_on_c, 0, 56, 0
3, 798120, Note_on_c, 0, 52, 0
3, 798120, Note_on_c, 0, 52, 101
3, 798120, Note_on_c, 0, 56, 101
3, 798120, Note_on_c, 0, 64, 101
3, 798120, Note_on_c, 0, 40, 88
3, 798437, Note_on_c, 0, 56, 0
3, 798480, Note_on_c, 0, 56, 79
3, 798719, Note_on_c, 0, 56, 0
3, 798719, Note_on_c, 0, 40, 0
3, 798719, Note_on_c, 0, 64, 0
3, 798719, Note_on_c, 0, 52, 0
3, 798719, Note_on_c, 0, 52, 71
3, 798719, Note_on_c, 0, 56, 71
3, 798719, Note_on_c, 0, 64, 71
3, 798719, Note_on_c, 0, 38, 67
3, 798840, Note_on_c, 0, 38, 0
3, 798840, Note_on_c, 0, 56, 0
3, 798840, Note_on_c, 0, 64, 0
3, 798840, Note_on_c, 0, 52, 0
3, 798840, Note_on_c, 0, 52, 85
3, 798840, Note_on_c, 0, 56, 85
3, 798840, Note_on_c, 0, 64, 85
3, 798840, Note_on_c, 0, 36, 80
3, 799157, Note_on_c, 0, 56, 0
3, 799200, Note_on_c, 0, 56, 72
3, 799439, Note_on_c, 0, 56, 0
3, 799439, Note_on_c, 0, 36, 0
3, 799439, Note_on_c, 0, 64, 0
3, 799439, Note_on_c, 0, 52, 0
3, 799439, Note_on_c, 0, 52, 72
3, 799439, Note_on_c, 0, 56, 72
3, 799439, Note_on_c, 0, 64, 72
3, 799439, Note_on_c, 0, 35, 70
3, 799560, Note_on_c, 0, 35, 0
3, 799560, Note_on_c, 0, 56, 0
3, 799560, Note_on_c, 0, 64, 0
3, 799560, Note_on_c, 0, 52, 0
3, 799560, Note_on_c, 0, 52, 88
3, 799560, Note_on_c, 0, 56, 88
3, 799560, Note_on_c, 0, 64, 88
3, 799560, Note_on_c, 0, 36, 90
3, 799877, Note_on_c, 0, 56, 0
3, 799920, Note_on_c, 0, 56, 70
3, 800159, Note_on_c, 0, 56, 0
3, 800159, Note_on_c, 0, 36, 0
3, 800159, Note_on_c, 0, 64, 0
3, 800159, Note_on_c, 0, 52, 0
3, 800159, Note_on_c, 0, 52, 71
3, 800159, Note_on_c, 0, 56, 71
3, 800159, Note_on_c, 0, 64, 71
3, 800159, Note_on_c, 0, 38, 77
3, 800280, Note_on_c, 0, 38, 0
3, 800280, Note_on_c, 0, 56, 0
3, 800280, Note_on_c, 0, 64, 0
3, 800280, Note_on_c, 0, 52, 0
3, 800280, Note_on_c, 0, 52, 87
3, 800280, Note_on_c, 0, 56, 87
3, 800280, Note_on_c, 0, 59, 87
3, 800280, Note_on_c, 0, 64, 87
3, 800280, Note_on_c, 0, 40, 84
3, 800597, Note_on_c, 0, 64, 0
3, 800597, Note_on_c, 0, 59, 0
3, 800597, Note_on_c, 0, 56, 0
3, 800597, Note_on_c, 0, 52, 0
3, 800640, Note_on_c, 0, 52, 72
3, 800640, Note_on_c, 0, 56, 72
3, 800640, Note_on_c, 0, 64, 72
3, 800640, Note_on_c, 0, 36, 80
3, 800640, Note_on_c, 0, 48, 80
3, 800879, Note_on_c, 0, 48, 0
3, 800879, Note_on_c, 0, 64, 0
3, 800879, Note_on_c, 0, 56, 0
3, 800879, Note_on_c, 0, 52, 0
3, 800879, Note_on_c, 0, 36, 0
3, 800879, Note_on_c, 0, 52, 70
3, 800879, Note_on_c, 0, 56, 70
3, 800879, Note_on_c, 0, 64, 70
3, 800879, Note_on_c, 0, 38, 63
3, 801000, Note_on_c, 0, 38, 0
3, 801000, Note_on_c, 0, 56, 0
3, 801000, Note_on_c, 0, 52, 0
3, 801000, Note_on_c, 0, 64, 0
3, 801000, Note_on_c, 0, 52, 87
3, 801000, Note_on_c, 0, 56, 87
3, 801000, Note_on_c, 0, 64, 87
3, 801317, Note_on_c, 0, 56, 0
3, 801360, Note_on_c, 0, 56, 70
3, 801599, Note_on_c, 0, 56, 0
3, 801599, Note_on_c, 0, 64, 0
3, 801599, Note_on_c, 0, 52, 0
3, 801599, Note_on_c, 0, 40, 0
3, 801599, Note_on_c, 0, 52, 71
3, 801599, Note_on_c, 0, 56, 71
3, 801599, Note_on_c, 0, 64, 71
3, 801599, Note_on_c, 0, 38, 68
3, 801720, Note_on_c, 0, 38, 0
3, 801720, Note_on_c, 0, 56, 0
3, 801720, Note_on_c, 0, 64, 0
3, 801720, Note_on_c, 0, 52, 0
3, 801720, Note_on_c, 0, 52, 81
3, 801720, Note_on_c, 0, 56, 81
3, 801720, Note_on_c, 0, 64, 81
3, 801720, Note_on_c, 0, 36, 78
3, 802319, Note_on_c, 0, 36, 0
3, 802319, Note_on_c, 0, 56, 0
3, 802319, Note_on_c, 0, 64, 0
3, 802319, Note_on_c, 0, 52, 0
3, 802319, Note_on_c, 0, 52, 72
3, 802319, Note_on_c, 0, 56, 72
3, 802319, Note_on_c, 0, 64, 72
3, 802319, Note_on_c, 0, 35, 74
3, 802440, Note_on_c, 0, 35, 0
3, 802440, Note_on_c, 0, 56, 0
3, 802440, Note_on_c, 0, 64, 0
3, 802440, Note_on_c, 0, 52, 0
3, 802440, Note_on_c, 0, 52, 85
3, 802440, Note_on_c, 0, 56, 85
3, 802440, Note_on_c, 0, 64, 85
3, 802440, Note_on_c, 0, 36, 85
3, 802757, Note_on_c, 0, 56, 0
3, 802800, Note_on_c, 0, 56, 79
3, 803039, Note_on_c, 0, 56, 0
3, 803039, Note_on_c, 0, 36, 0
3, 803039, Note_on_c, 0, 64, 0
3, 803039, Note_on_c, 0, 52, 0
3, 803039, Note_on_c, 0, 52, 72
3, 803039, Note_on_c, 0, 56, 72
3, 803039, Note_on_c, 0, 64, 72
3, 803039, Note_on_c, 0, 35, 69
3, 803160, Note_on_c, 0, 35, 0
3, 803160, Note_on_c, 0, 56, 0
3, 803160, Note_on_c, 0, 64, 0
3, 803160, Note_on_c, 0, 52, 0
3, 803160, Note_on_c, 0, 52, 67
3, 803160, Note_on_c, 0, 57, 67
3, 803160, Note_on_c, 0, 60, 67
3, 803160, Note_on_c, 0, 64, 67
3, 803160, Note_on_c, 0, 33, 72
3, 803280, Note_on_c, 0, 33, 0
3, 803280, Note_on_c, 0, 34, 77
3, 803399, Note_on_c, 0, 34, 0
3, 803399, Note_on_c, 0, 35, 73
3, 803520, Note_on_c, 0, 35, 0
3, 803520, Note_on_c, 0, 52, 0
3, 803520, Note_on_c, 0, 57, 0
3, 803520, Note_on_c, 0, 60, 0
3, 803520, Note_on_c, 0, 64, 0
3, 803520, Note_on_c, 0, 52, 69
3, 803520, Note_on_c, 0, 56, 69
3, 803520, Note_on_c, 0, 64, 69
3, 803520, Note_on_c, 0, 36, 77
3, 803759, Note_on_c, 0, 36, 0
3, 803759, Note_on_c, 0, 56, 0
3, 803759, Note_on_c, 0, 64, 0
3, 803759, Note_on_c, 0, 52, 0
3, 803759, Note_on_c, 0, 52, 73
3, 803759, Note_on_c, 0, 56, 73
3, 803759, Note_on_c, 0, 64, 73
3, 803759, Note_on_c, 0, 38, 75
3, 803880, Note_on_c, 0, 38, 0
3, 803880, Note_on_c, 0, 56, 0
3, 803880, Note_on_c, 0, 64, 0
3, 803880, Note_on_c, 0, 52, 0
3, 803880, Note_on_c, 0, 52, 84
3, 803880, Note_on_c, 0, 56, 84
3, 803880, Note_on_c, 0, 64, 84
3, 803880, Note_on_c, 0, 40, 86
3, 804197, Note_on_c, 0, 56, 0
3, 804240, Note_on_c, 0, 56, 72
3, 804479, Note_on_c, 0, 56, 0
3, 804479, Note_on_c, 0, 40, 0
3, 804479, Note_on_c, 0, 64, 0
3, 804479, Note_on_c, 0, 52, 0
3, 804479, Note_on_c, 0, 52, 73
3, 804479, Note_on_c, 0, 56, 73
3, 804479, Note_on_c, 0, 64, 73
3, 804479, Note_on_c, 0, 38, 67
3, 804600, Note_on_c, 0, 38, 0
3, 804600, Note_on_c, 0, 56, 0
3, 804600, Note_on_c, 0, 64, 0
3, 804600, Note_on_c, 0, 52, 0
3, 804600, Note_on_c, 0, 52, 85
3, 804600, Note_on_c, 0, 56, 85
3, 804600, Note_on_c, 0, 64, 85
3, 804600, Note_on_c, 0, 36, 82
3, 805199, Note_on_c, 0, 36, 0
3, 805199, Note_on_c, 0, 56, 0
3, 805199, Note_on_c, 0, 64, 0
3, 805199, Note_on_c, 0, 52, 0
3, 805199, Note_on_c, 0, 52, 74
3, 805199, Note_on_c, 0, 56, 74
3, 805199, Note_on_c, 0, 64, 74
3, 805199, Note_on_c, 0, 35, 69
3, 805320, Note_on_c, 0, 35, 0
3, 805320, Note_on_c, 0, 56, 0
3, 805320, Note_on_c, 0, 64, 0
3, 805320, Note_on_c, 0, 52, 0
3, 805320, Note_on_c, 0, 52, 83
3, 805320, Note_on_c, 0, 56, 83
3, 805320, Note_on_c, 0, 64, 83
3, 805320, Note_on_c, 0, 36, 86
3, 805637, Note_on_c, 0, 56, 0
3, 805680, Note_on_c, 0, 56, 73
3, 805919, Note_on_c, 0, 56, 0
3, 805919, Note_on_c, 0, 36, 0
3, 805919, Note_on_c, 0, 64, 0
3, 805919, Note_on_c, 0, 52, 0
3, 805919, Note_on_c, 0, 52, 76
3, 805919, Note_on_c, 0, 56, 76
3, 805919, Note_on_c, 0, 64, 76
3, 805919, Note_on_c, 0, 32, 74
3, 806040, Note_on_c, 0, 32, 0
3, 806040, Note_on_c, 0, 56, 0
3, 806040, Note_on_c, 0, 64, 0
3, 806040, Note_on_c, 0, 52, 0
3, 806040, Note_on_c, 0, 53, 58
3, 806040, Note_on_c, 0, 56, 58
3, 806040, Note_on_c, 0, 60, 58
3, 806040, Note_on_c, 0, 29, 78
3, 806357, Note_on_c, 0, 29, 0
3, 806400, Note_on_c, 0, 56, 0
3, 806400, Note_on_c, 0, 60, 0
3, 806400, Note_on_c, 0, 53, 0
3, 806400, Note_on_c, 0, 52, 82
3, 806400, Note_on_c, 0, 56, 82
3, 806400, Note_on_c, 0, 64, 82
3, 806400, Note_on_c, 0, 36, 80
3, 806639, Note_on_c, 0, 36, 0
3, 806639, Note_on_c, 0, 56, 0
3, 806639, Note_on_c, 0, 64, 0
3, 806639, Note_on_c, 0, 52, 0
3, 806639, Note_on_c, 0, 52, 71
3, 806639, Note_on_c, 0, 56, 71
3, 806639, Note_on_c, 0, 64, 71
3, 806639, Note_on_c, 0, 38, 75
3, 806760, Note_on_c, 0, 38, 0
3, 806760, Note_on_c, 0, 56, 0
3, 806760, Note_on_c, 0, 64, 0
3, 806760, Note_on_c, 0, 52, 0
3, 806760, Note_on_c, 0, 52, 78
3, 806760, Note_on_c, 0, 56, 78
3, 806760, Note_on_c, 0, 64, 78
3, 806760, Note_on_c, 0, 40, 86
3, 807077, Note_on_c, 0, 56, 0
3, 807120, Note_on_c, 0, 56, 73
3, 807359, Note_on_c, 0, 56, 0
3, 807359, Note_on_c, 0, 40, 0
3, 807359, Note_on_c, 0, 64, 0
3, 807359, Note_on_c, 0, 52, 0
3, 807359, Note_on_c, 0, 52, 68
3, 807359, Note_on_c, 0, 56, 68
3, 807359, Note_on_c, 0, 64, 68
3, 807359, Note_on_c, 0, 38, 68
3, 807480, Note_on_c, 0, 38, 0
3, 807480, Note_on_c, 0, 56, 0
3, 807480, Note_on_c, 0, 64, 0
3, 807480, Note_on_c, 0, 52, 0
3, 807480, Note_on_c, 0, 52, 85
3, 807480, Note_on_c, 0, 56, 85
3, 807480, Note_on_c, 0, 64, 85
3, 807480, Note_on_c, 0, 36, 82
3, 808079, Note_on_c, 0, 36, 0
3, 808079, Note_on_c, 0, 56, 0
3, 808079, Note_on_c, 0, 64, 0
3, 808079, Note_on_c, 0, 52, 0
3, 808079, Note_on_c, 0, 52, 70
3, 808079, Note_on_c, 0, 56, 70
3, 808079, Note_on_c, 0, 64, 70
3, 808079, Note_on_c, 0, 35, 68
3, 808200, Note_on_c, 0, 35, 0
3, 808200, Note_on_c, 0, 56, 0
3, 808200, Note_on_c, 0, 64, 0
3, 808200, Note_on_c, 0, 52, 0
3, 808200, Note_on_c, 0, 52, 82
3, 808200, Note_on_c, 0, 56, 82
3, 808200, Note_on_c, 0, 64, 82
3, 808200, Note_on_c, 0, 36, 88
3, 808517, Note_on_c, 0, 56, 0
3, 808560, Note_on_c, 0, 56, 73
3, 808799, Note_on_c, 0, 56, 0
3, 808799, Note_on_c, 0, 36, 0
3, 808799, Note_on_c, 0, 64, 0
3, 808799, Note_on_c, 0, 52, 0
3, 808799, Note_on_c, 0, 52, 71
3, 808799, Note_on_c, 0, 56, 71
3, 808799, Note_on_c, 0, 64, 71
3, 808799, Note_on_c, 0, 34, 68
3, 808920, Note_on_c, 0, 34, 0
3, 808920, Note_on_c, 0, 56, 0
3, 808920, Note_on_c, 0, 64, 0
3, 808920, Note_on_c, 0, 52, 0
3, 808920, Note_on_c, 0, 51, 68
3, 808920, Note_on_c, 0, 57, 68
3, 808920, Note_on_c, 0, 63, 68
3, 808920, Note_on_c, 0, 35, 84
3, 809237, Note_on_c, 0, 35, 0
3, 809280, Note_on_c, 0, 57, 0
3, 809280, Note_on_c, 0, 63, 0
3, 809280, Note_on_c, 0, 51, 0
3, 809280, Note_on_c, 0, 64, 78
3, 809280, Note_on_c, 0, 56, 38
3, 809280, Note_on_c, 0, 52, 93
3, 809280, Note_on_c, 0, 47, 86
3, 809640, Note_on_c, 0, 47, 0
3, 809640, Note_on_c, 0, 64, 0
3, 809640, Note_on_c, 0, 52, 0
3, 809640, Note_on_c, 0, 61, 74
3, 809640, Note_on_c, 0, 49, 89
3, 810273, Note_on_c, 0, 49, 0
3, 810273, Note_on_c, 0, 61, 0
3, 810360, Note_on_c, 0, 56, 0
3, 810360, Note_on_c, 0, 40, 0
3, 810360, Note_on_c, 0, 56, 71
3, 810360, Note_on_c, 0, 59, 71
3, 810360, Note_on_c, 0, 47, 65
3, 810360, Note_on_c, 0, 35, 93
3, 810539, Note_on_c, 0, 35, 0
3, 810539, Note_on_c, 0, 56, 0
3, 810539, Note_on_c, 0, 59, 0
3, 810720, Note_on_c, 0, 47, 0
3, 810720, Note_on_c, 0, 56, 34
3, 810720, Note_on_c, 0, 52, 101
3, 810720, Note_on_c, 0, 47, 71
3, 810720, Note_on_c, 0, 40, 101
3, 811080, Note_on_c, 0, 47, 0
3, 811080, Note_on_c, 0, 52, 0
3, 811080, Note_on_c, 0, 61, 89
3, 811080, Note_on_c, 0, 49, 88
3, 811713, Note_on_c, 0, 49, 0
3, 811713, Note_on_c, 0, 61, 0
3, 811800, Note_on_c, 0, 56, 0
3, 811800, Note_on_c, 0, 40, 0
3, 811800, Note_on_c, 0, 56, 70
3, 811800, Note_on_c, 0, 59, 70
3, 811800, Note_on_c, 0, 47, 75
3, 811800, Note_on_c, 0, 35, 95
3, 811979, Note_on_c, 0, 35, 0
3, 811979, Note_on_c, 0, 56, 0
3, 811979, Note_on_c, 0, 59, 0
3, 812160, Note_on_c, 0, 47, 0
3, 812160, Note_on_c, 0, 56, 34
3, 812160, Note_on_c, 0, 52, 101
3, 812160, Note_on_c, 0, 47, 69
3, 812160, Note_on_c, 0, 40, 101
3, 812520, Note_on_c, 0, 47, 0
3, 812520, Note_on_c, 0, 52, 0
3, 812520, Note_on_c, 0, 61, 84
3, 812520, Note_on_c, 0, 49, 87
3, 813153, Note_on_c, 0, 49, 0
3, 813153, Note_on_c, 0, 61, 0
3, 813240, Note_on_c, 0, 56, 0
3, 813240, Note_on_c, 0, 40, 0
3, 813240, Note_on_c, 0, 56, 74
3, 813240, Note_on_c, 0, 59, 74
3, 813240, Note_on_c, 0, 47, 68
3, 813240, Note_on_c, 0, 35, 94
3, 813419, Note_on_c, 0, 35, 0
3, 813419, Note_on_c, 0, 56, 0
3, 813419, Note_on_c, 0, 59, 0
3, 813600, Note_on_c, 0, 47, 0
3, 813600, Note_on_c, 0, 56, 38
3, 813600, Note_on_c, 0, 52, 101
3, 813600, Note_on_c, 0, 47, 75
3, 813600, Note_on_c, 0, 40, 101
3, 813960, Note_on_c, 0, 47, 0
3, 813960, Note_on_c, 0, 52, 0
3, 813960, Note_on_c, 0, 61, 89
3, 813960, Note_on_c, 0, 49, 85
3, 814593, Note_on_c, 0, 49, 0
3, 814593, Note_on_c, 0, 61, 0
3, 814680, Note_on_c, 0, 56, 0
3, 814680, Note_on_c, 0, 40, 0
3, 814680, Note_on_c, 0, 56, 70
3, 814680, Note_on_c, 0, 59, 70
3, 814680, Note_on_c, 0, 47, 66
3, 814680, Note_on_c, 0, 35, 96
3, 814859, Note_on_c, 0, 35, 0
3, 814859, Note_on_c, 0, 56, 0
3, 814859, Note_on_c, 0, 59, 0
3, 815040, Note_on_c, 0, 47, 0
3, 815040, Note_on_c, 0, 52, 73
3, 815040, Note_on_c, 0, 56, 73
3, 815040, Note_on_c, 0, 59, 73
3, 815040, Note_on_c, 0, 40, 74
3, 815040, Note_on_c, 0, 47, 74
3, 815219, Note_on_c, 0, 59, 0
3, 815219, Note_on_c, 0, 52, 0
3, 815219, Note_on_c, 0, 56, 0
3, 815400, Note_on_c, 0, 40, 0
3, 815400, Note_on_c, 0, 47, 0
3, 815580, Note_on_c, 0, 57, 61
3, 815580, Note_on_c, 0, 61, 61
3, 815580, Note_on_c, 0, 64, 61
3, 815580, Note_on_c, 0, 69, 61
3, 815580, Note_on_c, 0, 40, 64
3, 815580, Note_on_c, 0, 52, 64
3, 815760, Note_on_c, 0, 52, 0
3, 815760, Note_on_c, 0, 61, 0
3, 815760, Note_on_c, 0, 64, 0
3, 815760, Note_on_c, 0, 57, 0
3, 815760, Note_on_c, 0, 40, 0
3, 815760, Note_on_c, 0, 69, 0
3, 815760, Note_on_c, 0, 56, 62
3, 815760, Note_on_c, 0, 59, 62
3, 815760, Note_on_c, 0, 64, 62
3, 815760, Note_on_c, 0, 68, 62
3, 815760, Note_on_c, 0, 40, 74
3, 815760, Note_on_c, 0, 52, 74
3, 816120, Note_on_c, 0, 52, 0
3, 816120, Note_on_c, 0, 59, 0
3, 816120, Note_on_c, 0, 64, 0
3, 816120, Note_on_c, 0, 56, 0
3, 816120, Note_on_c, 0, 40, 0
3, 816120, Note_on_c, 0, 68, 0
3, 816300, Note_on_c, 0, 57, 61
3, 816300, Note_on_c, 0, 61, 61
3, 816300, Note_on_c, 0, 64, 61
3, 816300, Note_on_c, 0, 40, 62
3, 816300, Note_on_c, 0, 52, 62
3, 816480, Note_on_c, 0, 52, 0
3, 816480, Note_on_c, 0, 64, 0
3, 816480, Note_on_c, 0, 57, 0
3, 816480, Note_on_c, 0, 61, 0
3, 816480, Note_on_c, 0, 40, 0
3, 816480, Note_on_c, 0, 56, 71
3, 816480, Note_on_c, 0, 59, 71
3, 816480, Note_on_c, 0, 64, 71
3, 816480, Note_on_c, 0, 40, 67
3, 816480, Note_on_c, 0, 52, 67
3, 816840, Note_on_c, 0, 52, 0
3, 816840, Note_on_c, 0, 64, 0
3, 816840, Note_on_c, 0, 56, 0
3, 816840, Note_on_c, 0, 59, 0
3, 816840, Note_on_c, 0, 40, 0
3, 817020, Note_on_c, 0, 52, 60
3, 817020, Note_on_c, 0, 57, 60
3, 817020, Note_on_c, 0, 61, 60
3, 817020, Note_on_c, 0, 40, 59
3, 817020, Note_on_c, 0, 49, 59
3, 817200, Note_on_c, 0, 49, 0
3, 817200, Note_on_c, 0, 61, 0
3, 817200, Note_on_c, 0, 52, 0
3, 817200, Note_on_c, 0, 57, 0
3, 817200, Note_on_c, 0, 40, 0
3, 817200, Note_on_c, 0, 52, 67
3, 817200, Note_on_c, 0, 56, 67
3, 817200, Note_on_c, 0, 59, 67
3, 817200, Note_on_c, 0, 40, 68
3, 817200, Note_on_c, 0, 47, 68
3, 817560, Note_on_c, 0, 47, 0
3, 817560, Note_on_c, 0, 59, 0
3, 817560, Note_on_c, 0, 52, 0
3, 817560, Note_on_c, 0, 56, 0
3, 817560, Note_on_c, 0, 40, 0
3, 817740, Note_on_c, 0, 52, 61
3, 817740, Note_on_c, 0, 57, 61
3, 817740, Note_on_c, 0, 40, 64
3, 817740, Note_on_c, 0, 49, 64
3, 817920, Note_on_c, 0, 49, 0
3, 817920, Note_on_c, 0, 52, 0
3, 817920, Note_on_c, 0, 57, 0
3, 817920, Note_on_c, 0, 40, 0
3, 817920, Note_on_c, 0, 52, 68
3, 817920, Note_on_c, 0, 56, 68
3, 817920, Note_on_c, 0, 40, 66
3, 817920, Note_on_c, 0, 47, 66
3, 818280, Note_on_c, 0, 47, 0
3, 818280, Note_on_c, 0, 52, 0
3, 818280, Note_on_c, 0, 56, 0
3, 818280, Note_on_c, 0, 40, 0
3, 818460, Note_on_c, 0, 49, 64
3, 818460, Note_on_c, 0, 52, 64
3, 818460, Note_on_c, 0, 57, 64
3, 818460, Note_on_c, 0, 40, 65
3, 818640, Note_on_c, 0, 40, 0
3, 818640, Note_on_c, 0, 49, 0
3, 818640, Note_on_c, 0, 52, 0
3, 818640, Note_on_c, 0, 57, 0
3, 818640, Note_on_c, 0, 47, 72
3, 818640, Note_on_c, 0, 52, 72
3, 818640, Note_on_c, 0, 56, 72
3, 818640, Note_on_c, 0, 40, 71
3, 819000, Note_on_c, 0, 40, 0
3, 819000, Note_on_c, 0, 47, 0
3, 819000, Note_on_c, 0, 52, 0
3, 819000, Note_on_c, 0, 56, 0
3, 819180, Note_on_c, 0, 49, 62
3, 819180, Note_on_c, 0, 52, 62
3, 819180, Note_on_c, 0, 57, 62
3, 819180, Note_on_c, 0, 40, 65
3, 819360, Note_on_c, 0, 40, 0
3, 819360, Note_on_c, 0, 49, 0
3, 819360, Note_on_c, 0, 52, 0
3, 819360, Note_on_c, 0, 57, 0
3, 819360, Note_on_c, 0, 47, 66
3, 819360, Note_on_c, 0, 52, 66
3, 819360, Note_on_c, 0, 56, 66
3, 819360, Note_on_c, 0, 40, 69
3, 819720, Note_on_c, 0, 40, 0
3, 819720, Note_on_c, 0, 47, 0
3, 819720, Note_on_c, 0, 52, 0
3, 819720, Note_on_c, 0, 56, 0
3, 819900, Note_on_c, 0, 49, 65
3, 819900, Note_on_c, 0, 52, 65
3, 819900, Note_on_c, 0, 57, 65
3, 819900, Note_on_c, 0, 40, 64
3, 820080, Note_on_c, 0, 40, 0
3, 820080, Note_on_c, 0, 49, 0
3, 820080, Note_on_c, 0, 52, 0
3, 820080, Note_on_c, 0, 57, 0
3, 820080, Note_on_c, 0, 47, 69
3, 820080, Note_on_c, 0, 52, 69
3, 820080, Note_on_c, 0, 56, 69
3, 820080, Note_on_c, 0, 40, 74
3, 820440, Note_on_c, 0, 40, 0
3, 820440, Note_on_c, 0, 47, 0
3, 820440, Note_on_c, 0, 52, 0
3, 820440, Note_on_c, 0, 56, 0
3, 820620, Note_on_c, 0, 49, 63
3, 820620, Note_on_c, 0, 52, 63
3, 820620, Note_on_c, 0, 57, 63
3, 820620, Note_on_c, 0, 40, 59
3, 820800, Note_on_c, 0, 40, 0
3, 820800, Note_on_c, 0, 49, 0
3, 820800, Note_on_c, 0, 52, 0
3, 820800, Note_on_c, 0, 57, 0
3, 820800, Note_on_c, 0, 47, 67
3, 820800, Note_on_c, 0, 52, 67
3, 820800, Note_on_c, 0, 56, 67
3, 820800, Note_on_c, 0, 40, 73
3, 821160, Note_on_c, 0, 40, 0
3, 821160, Note_on_c, 0, 47, 0
3, 821160, Note_on_c, 0, 52, 0
3, 821160, Note_on_c, 0, 56, 0
3, 821160, Note_on_c, 0, 56, 33
3, 821160, Note_on_c, 0, 40, 47
3, 821160, Note_on_c, 0, 52, 47
3, 821520, Note_on_c, 0, 52, 0
3, 821520, Note_on_c, 0, 40, 0
3, 821520, Note_on_c, 0, 61, 75
3, 821520, Note_on_c, 0, 39, 38
3, 821520, Note_on_c, 0, 51, 38
3, 821700, Note_on_c, 0, 56, 0
3, 821700, Note_on_c, 0, 56, 40
3, 821880, Note_on_c, 0, 56, 0
3, 821880, Note_on_c, 0, 51, 0
3, 821880, Note_on_c, 0, 39, 0
3, 821880, Note_on_c, 0, 61, 0
3, 821880, Note_on_c, 0, 64, 79
3, 821880, Note_on_c, 0, 56, 42
3, 821880, Note_on_c, 0, 37, 42
3, 821880, Note_on_c, 0, 49, 42
3, 822240, Note_on_c, 0, 49, 0
3, 822240, Note_on_c, 0, 64, 0
3, 822240, Note_on_c, 0, 56, 0
3, 822240, Note_on_c, 0, 37, 0
3, 822240, Note_on_c, 0, 56, 82
3, 822240, Note_on_c, 0, 64, 82
3, 822240, Note_on_c, 0, 36, 46
3, 822240, Note_on_c, 0, 48, 46
3, 822600, Note_on_c, 0, 48, 0
3, 822600, Note_on_c, 0, 36, 0
3, 822600, Note_on_c, 0, 35, 49
3, 822600, Note_on_c, 0, 47, 49
3, 822960, Note_on_c, 0, 47, 0
3, 822960, Note_on_c, 0, 35, 0
3, 822960, Note_on_c, 0, 34, 53
3, 822960, Note_on_c, 0, 46, 53
3, 823320, Note_on_c, 0, 46, 0
3, 823320, Note_on_c, 0, 56, 0
3, 823320, Note_on_c, 0, 64, 0
3, 823320, Note_on_c, 0, 34, 0
3, 823320, Note_on_c, 0, 57, 94
3, 823320, Note_on_c, 0, 63, 94
3, 823320, Note_on_c, 0, 35, 57
3, 823320, Note_on_c, 0, 47, 57
3, 823680, Note_on_c, 0, 47, 0
3, 823680, Note_on_c, 0, 57, 0
3, 823680, Note_on_c, 0, 63, 0
3, 823680, Note_on_c, 0, 35, 0
3, 823680, Note_on_c, 0, 52, 98
3, 823680, Note_on_c, 0, 56, 98
3, 823680, Note_on_c, 0, 64, 98
3, 823680, Note_on_c, 0, 40, 61
3, 823680, Note_on_c, 0, 47, 61
3, 824040, Note_on_c, 0, 47, 0
3, 824040, Note_on_c, 0, 64, 0
3, 824040, Note_on_c, 0, 52, 0
3, 824040, Note_on_c, 0, 56, 0
3, 824040, Note_on_c, 0, 40, 0
3, 824400, Note_on_c, 0, 47, 77
3, 824400, Note_on_c, 0, 52, 77
3, 824400, Note_on_c, 0, 56, 77
3, 824400, Note_on_c, 0, 28, 77
3, 824400, Note_on_c, 0, 40, 77
3, 824760, Note_on_c, 0, 40, 0
3, 824760, Note_on_c, 0, 56, 0
3, 824760, Note_on_c, 0, 47, 0
3, 824760, Note_on_c, 0, 52, 0
3, 824760, Note_on_c, 0, 28, 0
3, 824760, Note_on_c, 0, 47, 90
3, 824760, Note_on_c, 0, 52, 90
3, 824760, Note_on_c, 0, 56, 90
3, 824760, Note_on_c, 0, 28, 87
3, 824760, Note_on_c, 0, 40, 87
3, 824880, Note_on_c, 0, 40, 0
3, 824880, Note_on_c, 0, 56, 0
3, 824880, Note_on_c, 0, 47, 0
3, 824880, Note_on_c, 0, 52, 0
3, 824880, Note_on_c, 0, 28, 0
3, 824880, Note_on_c, 0, 47, 88
3, 824880, Note_on_c, 0, 52, 88
3, 824880, Note_on_c, 0, 56, 88
3, 824880, Note_on_c, 0, 28, 88
3, 824880, Note_on_c, 0, 40, 88
3, 824999, Note_on_c, 0, 40, 0
3, 824999, Note_on_c, 0, 56, 0
3, 824999, Note_on_c, 0, 47, 0
3, 824999, Note_on_c, 0, 52, 0
3, 824999, Note_on_c, 0, 28, 0
3, 824999, Note_on_c, 0, 47, 86
3, 824999, Note_on_c, 0, 52, 86
3, 824999, Note_on_c, 0, 56, 86
3, 824999, Note_on_c, 0, 28, 86
3, 824999, Note_on_c, 0, 40, 86
3, 825120, Note_on_c, 0, 40, 0
3, 825120, Note_on_c, 0, 56, 0
3, 825120, Note_on_c, 0, 47, 0
3, 825120, Note_on_c, 0, 52, 0
3, 825120, Note_on_c, 0, 28, 0
3, 825120, Note_on_c, 0, 47, 90
3, 825120, Note_on_c, 0, 52, 90
3, 825120, Note_on_c, 0, 56, 90
3, 825120, Note_on_c, 0, 28, 84
3, 825120, Note_on_c, 0, 40, 84
3, 825480, Note_on_c, 0, 40, 0
3, 825480, Note_on_c, 0, 56, 0
3, 825480, Note_on_c, 0, 47, 0
3, 825480, Note_on_c, 0, 52, 0
3, 825480, Note_on_c, 0, 28, 0
3, 825480, End_track
0, 0, End_of_file
