0, 0, Header, 1, 2, 360
1, 0, Start_track
1, 0, Title_t, "The Bells  IV"
1, 0, Copyright_t, "Copyright (C) "
1, 0, Text_t, "Rach,aminoff\012"
1, 0, Time_signature, 4, 2, 24, 8
1, 0, Key_signature, 4, "major"
1, 0, Tempo, 1333333
1, 5400, Tempo, 1333333
1, 5423, Tempo, 1371429
1, 5445, Tempo, 1412097
1, 5468, Tempo, 1454898
1, 5490, Tempo, 1500750
1, 5513, Tempo, 1549187
1, 5535, Tempo, 1601281
1, 5558, Tempo, 1656543
1, 5580, Tempo, 1716247
1, 5615, Tempo, 1818182
1, 5760, Tempo, 1333333
1, 10080, Time_signature, 2, 2, 24, 8
1, 10800, Time_signature, 4, 2, 24, 8
1, 16920, Tempo, 1333333
1, 16943, Tempo, 1361779
1, 16965, Tempo, 1391466
1, 16988, Tempo, 1422475
1, 17010, Tempo, 1454898
1, 17033, Tempo, 1489203
1, 17055, Tempo, 1524778
1, 17078, Tempo, 1562093
1, 17100, Tempo, 1601281
1, 17123, Tempo, 1642486
1, 17145, Tempo, 1685867
1, 17168, Tempo, 1731602
1, 17207, Tempo, 1818182
1, 17280, Tempo, 1333333
1, 18000, Tempo, 1333333
1, 23400, Tempo, 1333333
1, 23423, Tempo, 1361779
1, 23445, Tempo, 1391466
1, 23468, Tempo, 1422475
1, 23490, Tempo, 1454898
1, 23513, Tempo, 1489203
1, 23535, Tempo, 1524778
1, 23558, Tempo, 1562093
1, 23580, Tempo, 1601281
1, 23603, Tempo, 1642486
1, 23625, Tempo, 1685867
1, 23648, Tempo, 1731602
1, 23687, Tempo, 1818182
1, 23760, Time_signature, 2, 2, 24, 8
1, 23760, Tempo, 1333333
1, 24480, Time_signature, 4, 2, 24, 8
1, 48960, Time_signature, 3, 2, 24, 8
1, 52200, Time_signature, 4, 2, 24, 8
1, 56520, Time_signature, 2, 2, 24, 8
1, 57240, Time_signature, 4, 2, 24, 8
1, 59580, Tempo, 1333333
1, 59603, Tempo, 1355932
1, 59625, Tempo, 1379310
1, 59648, Tempo, 1403509
1, 59670, Tempo, 1428571
1, 59693, Tempo, 1454545
1, 59715, Tempo, 1481481
1, 59738, Tempo, 1509434
1, 59760, Tempo, 1538462
1, 59783, Tempo, 1568627
1, 59805, Tempo, 1600000
1, 59828, Tempo, 1632653
1, 59850, Tempo, 1666667
1, 59873, Tempo, 1702128
1, 59895, Tempo, 1739130
1, 59918, Tempo, 1777778
1, 59940, Tempo, 1818182
1, 60120, Tempo, 1333333
1, 61560, Time_signature, 2, 2, 24, 8
1, 62280, Time_signature, 4, 2, 24, 8
1, 66060, Tempo, 1250000
1, 66420, Tempo, 1153846
1, 66600, Tempo, 1090909
1, 83880, Tempo, 1090909
1, 83953, Tempo, 1107215
1, 84026, Tempo, 1124016
1, 84099, Tempo, 1141553
1, 84173, Tempo, 1159420
1, 84246, Tempo, 1177856
1, 84319, Tempo, 1196888
1, 84392, Tempo, 1216792
1, 84465, Tempo, 1237113
1, 84538, Tempo, 1258125
1, 84611, Tempo, 1279863
1, 84684, Tempo, 1302649
1, 84758, Tempo, 1325967
1, 84831, Tempo, 1350135
1, 84904, Tempo, 1375201
1, 84977, Tempo, 1401542
1, 85050, Tempo, 1428571
1, 85140, Tempo, 1463415
1, 85320, Tempo, 1090909
1, 95400, Key_signature, 0, "major"
1, 95400, Tempo, 857143
1, 102600, Time_signature, 2, 2, 24, 8
1, 103320, Time_signature, 4, 2, 24, 8
1, 120600, Tempo, 857143
1, 120680, Tempo, 841043
1, 120761, Tempo, 825650
1, 120840, Tempo, 810701
1, 120921, Tempo, 796284
1, 121001, Tempo, 782473
1, 121081, Tempo, 769034
1, 121161, Tempo, 756144
1, 121241, Tempo, 743587
1, 121322, Tempo, 731440
1, 121402, Tempo, 719770
1, 121482, Tempo, 708383
1, 121562, Tempo, 697350
1, 121642, Tempo, 686735
1, 121722, Tempo, 676361
1, 121802, Tempo, 666297
1, 121883, Tempo, 656599
1, 121980, Tempo, 645161
1, 122040, Tempo, 666667
1, 127800, Tempo, 333333
1, 175320, Tempo, 333333
1, 175552, Tempo, 338295
1, 175784, Tempo, 343387
1, 176016, Tempo, 348655
1, 176248, Tempo, 354087
1, 176480, Tempo, 359669
1, 176944, Tempo, 371425
1, 177176, Tempo, 377572
1, 177408, Tempo, 383951
1, 177641, Tempo, 390549
1, 177872, Tempo, 397351
1, 178337, Tempo, 411749
1, 178569, Tempo, 419317
1, 178800, Tempo, 427198
1, 179033, Tempo, 435382
1, 179280, Tempo, 444444
1, 179640, Tempo, 1000000
1, 189720, Tempo, 1000000
1, 189883, Tempo, 1014885
1, 190046, Tempo, 1030220
1, 190209, Tempo, 1045843
1, 190373, Tempo, 1062135
1, 190536, Tempo, 1078943
1, 190699, Tempo, 1096291
1, 190862, Tempo, 1114206
1, 191188, Tempo, 1151631
1, 191351, Tempo, 1171417
1, 191514, Tempo, 1191895
1, 191678, Tempo, 1212856
1, 191841, Tempo, 1234822
1, 192004, Tempo, 1257598
1, 192167, Tempo, 1281230
1, 192330, Tempo, 1305767
1, 192507, Tempo, 1333333
1, 192600, Key_signature, 4, "major"
1, 192600, Tempo, 1333333
1, 204300, Tempo, 1333333
1, 204363, Tempo, 1354402
1, 204427, Tempo, 1376462
1, 204490, Tempo, 1398927
1, 204553, Tempo, 1422138
1, 204617, Tempo, 1446480
1, 204680, Tempo, 1471309
1, 204743, Tempo, 1497006
1, 204806, Tempo, 1523616
1, 204870, Tempo, 1551590
1, 204933, Tempo, 1580195
1, 204996, Tempo, 1609874
1, 205059, Tempo, 1641138
1, 205123, Tempo, 1673173
1, 205186, Tempo, 1706485
1, 205249, Tempo, 1741655
1, 205313, Tempo, 1777778
1, 205380, Tempo, 1818182
1, 205560, Key_signature, -5, "major"
1, 205560, Tempo, 1333333
1, 219240, Tempo, 1818182
1, 219263, Tempo, 1428571
1, 219277, Tempo, 1847291
1, 219285, Tempo, 1538462
1, 219308, Tempo, 1666667
1, 219313, Tempo, 1877347
1, 219330, Tempo, 1818182
1, 219350, Tempo, 1909004
1, 219386, Tempo, 1941119
1, 219423, Tempo, 1974334
1, 219459, Tempo, 2008704
1, 219496, Tempo, 2044990
1, 219533, Tempo, 2081888
1, 219569, Tempo, 2120141
1, 219606, Tempo, 2159827
1, 219642, Tempo, 2201835
1, 219679, Tempo, 2244669
1, 219716, Tempo, 2289203
1, 219752, Tempo, 2335539
1, 219789, Tempo, 2383790
1, 219825, Tempo, 2435065
1, 219870, Tempo, 2500000
1, 221310, Tempo, 5000000
1, 221400, Tempo, 2500000
1, 221400, End_track
2, 0, Start_track
2, 0, Title_t, "Piano"
2, 0, Program_c, 0, 0
2, 0, Control_c, 0, 7, 100
2, 0, Control_c, 0, 10, 64
2, 0, Control_c, 0, 91, 48
2, 0, Control_c, 0, 121, 0
2, 0, Control_c, 0, 64, 0
2, 0, Control_c, 0, 121, 0
2, 0, Control_c, 0, 64, 0
2, 0, Control_c, 0, 91, 48
2, 0, Control_c, 0, 10, 51
2, 0, Control_c, 0, 7, 100
2, 0, Note_on_c, 0, 37, 50
2, 21, Note_on_c, 0, 44, 50
2, 42, Note_on_c, 0, 49, 50
2, 63, Note_on_c, 0, 56, 50
2, 180, Note_on_c, 0, 68, 49
2, 180, Note_on_c, 0, 73, 49
2, 180, Note_on_c, 0, 80, 49
2, 360, Note_on_c, 0, 56, 0
2, 360, Note_on_c, 0, 49, 0
2, 360, Note_on_c, 0, 37, 0
2, 360, Note_on_c, 0, 44, 0
2, 360, Note_on_c, 0, 45, 47
2, 381, Note_on_c, 0, 52, 47
2, 402, Note_on_c, 0, 57, 47
2, 423, Note_on_c, 0, 64, 47
2, 540, Note_on_c, 0, 80, 0
2, 540, Note_on_c, 0, 73, 0
2, 540, Note_on_c, 0, 68, 0
2, 540, Note_on_c, 0, 61, 46
2, 540, Note_on_c, 0, 68, 46
2, 540, Note_on_c, 0, 73, 46
2, 720, Note_on_c, 0, 52, 0
2, 720, Note_on_c, 0, 64, 0
2, 720, Note_on_c, 0, 45, 0
2, 720, Note_on_c, 0, 57, 0
2, 720, Note_on_c, 0, 37, 44
2, 741, Note_on_c, 0, 44, 44
2, 762, Note_on_c, 0, 49, 44
2, 783, Note_on_c, 0, 56, 43
2, 900, Note_on_c, 0, 73, 0
2, 900, Note_on_c, 0, 68, 0
2, 900, Note_on_c, 0, 61, 0
2, 900, Note_on_c, 0, 68, 42
2, 900, Note_on_c, 0, 73, 42
2, 900, Note_on_c, 0, 80, 42
2, 1080, Note_on_c, 0, 44, 0
2, 1080, Note_on_c, 0, 56, 0
2, 1080, Note_on_c, 0, 37, 0
2, 1080, Note_on_c, 0, 49, 0
2, 1080, Note_on_c, 0, 45, 41
2, 1101, Note_on_c, 0, 52, 41
2, 1122, Note_on_c, 0, 57, 40
2, 1143, Note_on_c, 0, 64, 40
2, 1260, Note_on_c, 0, 80, 0
2, 1260, Note_on_c, 0, 73, 0
2, 1260, Note_on_c, 0, 68, 0
2, 1260, Note_on_c, 0, 61, 39
2, 1260, Note_on_c, 0, 68, 39
2, 1260, Note_on_c, 0, 73, 39
2, 1440, Note_on_c, 0, 52, 0
2, 1440, Note_on_c, 0, 64, 0
2, 1440, Note_on_c, 0, 45, 0
2, 1440, Note_on_c, 0, 57, 0
2, 1440, Note_on_c, 0, 37, 38
2, 1461, Note_on_c, 0, 44, 37
2, 1482, Note_on_c, 0, 49, 37
2, 1503, Note_on_c, 0, 56, 37
2, 1620, Note_on_c, 0, 73, 0
2, 1620, Note_on_c, 0, 68, 0
2, 1620, Note_on_c, 0, 61, 0
2, 1620, Note_on_c, 0, 68, 49
2, 1620, Note_on_c, 0, 73, 49
2, 1620, Note_on_c, 0, 80, 49
2, 1800, Note_on_c, 0, 44, 0
2, 1800, Note_on_c, 0, 56, 0
2, 1800, Note_on_c, 0, 37, 0
2, 1800, Note_on_c, 0, 49, 0
2, 1800, Note_on_c, 0, 45, 57
2, 1821, Note_on_c, 0, 52, 57
2, 1842, Note_on_c, 0, 57, 57
2, 1863, Note_on_c, 0, 64, 57
2, 1980, Note_on_c, 0, 80, 0
2, 1980, Note_on_c, 0, 73, 0
2, 1980, Note_on_c, 0, 68, 0
2, 1980, Note_on_c, 0, 68, 39
2, 1980, Note_on_c, 0, 73, 39
2, 1980, Note_on_c, 0, 61, 82
2, 2138, Note_on_c, 0, 61, 0
2, 2160, Note_on_c, 0, 57, 0
2, 2160, Note_on_c, 0, 64, 0
2, 2160, Note_on_c, 0, 45, 0
2, 2160, Note_on_c, 0, 52, 0
2, 2160, Note_on_c, 0, 71, 114
2, 2160, Note_on_c, 0, 37, 32
2, 2181, Note_on_c, 0, 44, 32
2, 2202, Note_on_c, 0, 49, 32
2, 2223, Note_on_c, 0, 56, 32
2, 2340, Note_on_c, 0, 73, 0
2, 2340, Note_on_c, 0, 68, 0
2, 2340, Note_on_c, 0, 68, 45
2, 2340, Note_on_c, 0, 73, 45
2, 2340, Note_on_c, 0, 80, 45
2, 2520, Note_on_c, 0, 49, 0
2, 2520, Note_on_c, 0, 37, 0
2, 2520, Note_on_c, 0, 44, 0
2, 2520, Note_on_c, 0, 56, 0
2, 2520, Note_on_c, 0, 45, 54
2, 2541, Note_on_c, 0, 52, 54
2, 2562, Note_on_c, 0, 57, 54
2, 2583, Note_on_c, 0, 64, 54
2, 2640, Note_on_c, 0, 71, 0
2, 2640, Note_on_c, 0, 69, 89
2, 2700, Note_on_c, 0, 80, 0
2, 2700, Note_on_c, 0, 73, 0
2, 2700, Note_on_c, 0, 68, 0
2, 2700, Note_on_c, 0, 61, 31
2, 2700, Note_on_c, 0, 73, 31
2, 2744, Note_on_c, 0, 69, 0
2, 2759, Note_on_c, 0, 66, 88
2, 2865, Note_on_c, 0, 66, 0
2, 2880, Note_on_c, 0, 57, 0
2, 2880, Note_on_c, 0, 64, 0
2, 2880, Note_on_c, 0, 45, 0
2, 2880, Note_on_c, 0, 52, 0
2, 2880, Note_on_c, 0, 68, 96
2, 2880, Note_on_c, 0, 37, 40
2, 2901, Note_on_c, 0, 44, 40
2, 2922, Note_on_c, 0, 49, 40
2, 2943, Note_on_c, 0, 56, 40
2, 3060, Note_on_c, 0, 73, 0
2, 3060, Note_on_c, 0, 61, 0
2, 3060, Note_on_c, 0, 68, 42
2, 3060, Note_on_c, 0, 73, 42
2, 3060, Note_on_c, 0, 80, 42
2, 3240, Note_on_c, 0, 49, 0
2, 3240, Note_on_c, 0, 37, 0
2, 3240, Note_on_c, 0, 44, 0
2, 3240, Note_on_c, 0, 56, 0
2, 3240, Note_on_c, 0, 45, 58
2, 3261, Note_on_c, 0, 52, 58
2, 3282, Note_on_c, 0, 57, 58
2, 3303, Note_on_c, 0, 64, 58
2, 3420, Note_on_c, 0, 68, 0
2, 3420, Note_on_c, 0, 73, 0
2, 3420, Note_on_c, 0, 80, 0
2, 3420, Note_on_c, 0, 61, 34
2, 3420, Note_on_c, 0, 68, 34
2, 3420, Note_on_c, 0, 73, 34
2, 3513, Note_on_c, 0, 68, 0
2, 3600, Note_on_c, 0, 57, 0
2, 3600, Note_on_c, 0, 64, 0
2, 3600, Note_on_c, 0, 45, 0
2, 3600, Note_on_c, 0, 52, 0
2, 3600, Note_on_c, 0, 37, 38
2, 3621, Note_on_c, 0, 44, 38
2, 3642, Note_on_c, 0, 49, 38
2, 3663, Note_on_c, 0, 56, 38
2, 3780, Note_on_c, 0, 73, 0
2, 3780, Note_on_c, 0, 61, 0
2, 3780, Note_on_c, 0, 68, 0
2, 3780, Note_on_c, 0, 68, 46
2, 3780, Note_on_c, 0, 73, 46
2, 3780, Note_on_c, 0, 80, 46
2, 3839, Note_on_c, 0, 66, 87
2, 3960, Note_on_c, 0, 44, 0
2, 3960, Note_on_c, 0, 56, 0
2, 3960, Note_on_c, 0, 37, 0
2, 3960, Note_on_c, 0, 49, 0
2, 3960, Note_on_c, 0, 45, 56
2, 3981, Note_on_c, 0, 52, 56
2, 4002, Note_on_c, 0, 57, 56
2, 4023, Note_on_c, 0, 64, 56
2, 4080, Note_on_c, 0, 66, 0
2, 4080, Note_on_c, 0, 64, 88
2, 4140, Note_on_c, 0, 68, 0
2, 4140, Note_on_c, 0, 80, 0
2, 4140, Note_on_c, 0, 73, 0
2, 4140, Note_on_c, 0, 61, 27
2, 4140, Note_on_c, 0, 73, 27
2, 4184, Note_on_c, 0, 64, 0
2, 4199, Note_on_c, 0, 68, 104
2, 4305, Note_on_c, 0, 68, 0
2, 4320, Note_on_c, 0, 57, 0
2, 4320, Note_on_c, 0, 64, 0
2, 4320, Note_on_c, 0, 45, 0
2, 4320, Note_on_c, 0, 52, 0
2, 4320, Note_on_c, 0, 64, 91
2, 4320, Note_on_c, 0, 37, 34
2, 4335, Note_on_c, 0, 44, 34
2, 4351, Note_on_c, 0, 49, 34
2, 4367, Note_on_c, 0, 56, 34
2, 4500, Note_on_c, 0, 73, 0
2, 4500, Note_on_c, 0, 61, 0
2, 4500, Note_on_c, 0, 68, 46
2, 4500, Note_on_c, 0, 73, 46
2, 4500, Note_on_c, 0, 80, 46
2, 4680, Note_on_c, 0, 49, 0
2, 4680, Note_on_c, 0, 37, 0
2, 4680, Note_on_c, 0, 44, 0
2, 4680, Note_on_c, 0, 56, 0
2, 4680, Note_on_c, 0, 45, 57
2, 4695, Note_on_c, 0, 52, 57
2, 4711, Note_on_c, 0, 57, 57
2, 4727, Note_on_c, 0, 64, 57
2, 4860, Note_on_c, 0, 73, 0
2, 4860, Note_on_c, 0, 80, 0
2, 4860, Note_on_c, 0, 68, 0
2, 4860, Note_on_c, 0, 61, 30
2, 4860, Note_on_c, 0, 68, 30
2, 4860, Note_on_c, 0, 73, 30
2, 4953, Note_on_c, 0, 64, 0
2, 5040, Note_on_c, 0, 52, 0
2, 5040, Note_on_c, 0, 64, 0
2, 5040, Note_on_c, 0, 45, 0
2, 5040, Note_on_c, 0, 57, 0
2, 5040, Note_on_c, 0, 37, 38
2, 5055, Note_on_c, 0, 44, 38
2, 5071, Note_on_c, 0, 49, 38
2, 5087, Note_on_c, 0, 56, 38
2, 5220, Note_on_c, 0, 73, 0
2, 5220, Note_on_c, 0, 61, 0
2, 5220, Note_on_c, 0, 68, 0
2, 5220, Note_on_c, 0, 68, 40
2, 5220, Note_on_c, 0, 73, 40
2, 5220, Note_on_c, 0, 80, 40
2, 5400, Note_on_c, 0, 44, 0
2, 5400, Note_on_c, 0, 56, 0
2, 5400, Note_on_c, 0, 37, 0
2, 5400, Note_on_c, 0, 49, 0
2, 5400, Note_on_c, 0, 66, 86
2, 5400, Note_on_c, 0, 45, 55
2, 5415, Note_on_c, 0, 52, 55
2, 5431, Note_on_c, 0, 57, 55
2, 5447, Note_on_c, 0, 64, 55
2, 5462, Note_on_c, 0, 66, 0
2, 5472, Note_on_c, 0, 65, 93
2, 5534, Note_on_c, 0, 65, 0
2, 5544, Note_on_c, 0, 64, 94
2, 5580, Note_on_c, 0, 80, 0
2, 5580, Note_on_c, 0, 73, 0
2, 5580, Note_on_c, 0, 68, 0
2, 5580, Note_on_c, 0, 61, 32
2, 5580, Note_on_c, 0, 68, 32
2, 5580, Note_on_c, 0, 73, 32
2, 5606, Note_on_c, 0, 64, 0
2, 5615, Note_on_c, 0, 63, 95
2, 5677, Note_on_c, 0, 63, 0
2, 5687, Note_on_c, 0, 65, 103
2, 5750, Note_on_c, 0, 65, 0
2, 5760, Note_on_c, 0, 52, 0
2, 5760, Note_on_c, 0, 64, 0
2, 5760, Note_on_c, 0, 45, 0
2, 5760, Note_on_c, 0, 57, 0
2, 5760, Note_on_c, 0, 64, 92
2, 5760, Note_on_c, 0, 37, 33
2, 5781, Note_on_c, 0, 44, 33
2, 5802, Note_on_c, 0, 49, 33
2, 5823, Note_on_c, 0, 56, 33
2, 5940, Note_on_c, 0, 73, 0
2, 5940, Note_on_c, 0, 61, 0
2, 5940, Note_on_c, 0, 68, 0
2, 5940, Note_on_c, 0, 68, 49
2, 5940, Note_on_c, 0, 73, 49
2, 5940, Note_on_c, 0, 80, 49
2, 6120, Note_on_c, 0, 44, 0
2, 6120, Note_on_c, 0, 56, 0
2, 6120, Note_on_c, 0, 37, 0
2, 6120, Note_on_c, 0, 49, 0
2, 6120, Note_on_c, 0, 45, 57
2, 6141, Note_on_c, 0, 52, 57
2, 6162, Note_on_c, 0, 57, 57
2, 6183, Note_on_c, 0, 64, 57
2, 6300, Note_on_c, 0, 73, 0
2, 6300, Note_on_c, 0, 80, 0
2, 6300, Note_on_c, 0, 68, 0
2, 6300, Note_on_c, 0, 61, 33
2, 6300, Note_on_c, 0, 68, 33
2, 6300, Note_on_c, 0, 73, 33
2, 6480, Note_on_c, 0, 52, 0
2, 6480, Note_on_c, 0, 64, 0
2, 6480, Note_on_c, 0, 45, 0
2, 6480, Note_on_c, 0, 57, 0
2, 6480, Note_on_c, 0, 37, 37
2, 6501, Note_on_c, 0, 44, 37
2, 6522, Note_on_c, 0, 49, 37
2, 6543, Note_on_c, 0, 56, 37
2, 6660, Note_on_c, 0, 68, 0
2, 6660, Note_on_c, 0, 73, 0
2, 6660, Note_on_c, 0, 61, 0
2, 6660, Note_on_c, 0, 68, 45
2, 6660, Note_on_c, 0, 73, 45
2, 6660, Note_on_c, 0, 80, 45
2, 6840, Note_on_c, 0, 80, 0
2, 6840, Note_on_c, 0, 56, 0
2, 6840, Note_on_c, 0, 44, 0
2, 6840, Note_on_c, 0, 49, 0
2, 6840, Note_on_c, 0, 37, 0
2, 6840, Note_on_c, 0, 64, 0
2, 6840, Note_on_c, 0, 68, 0
2, 6840, Note_on_c, 0, 73, 0
2, 6840, Note_on_c, 0, 69, 86
2, 6840, Note_on_c, 0, 72, 86
2, 6840, Note_on_c, 0, 76, 86
2, 6840, Note_on_c, 0, 57, 116
2, 6840, Note_on_c, 0, 60, 116
2, 6840, Note_on_c, 0, 64, 116
2, 7380, Note_on_c, 0, 50, 61
2, 7380, Note_on_c, 0, 57, 61
2, 7920, Note_on_c, 0, 50, 0
2, 7920, Note_on_c, 0, 57, 0
2, 7920, Note_on_c, 0, 41, 56
2, 7920, Note_on_c, 0, 48, 56
2, 8280, Note_on_c, 0, 48, 0
2, 8280, Note_on_c, 0, 41, 0
2, 8280, Note_on_c, 0, 33, 61
2, 8280, Note_on_c, 0, 40, 61
2, 8640, Note_on_c, 0, 40, 0
2, 8640, Note_on_c, 0, 57, 0
2, 8640, Note_on_c, 0, 64, 0
2, 8640, Note_on_c, 0, 72, 0
2, 8640, Note_on_c, 0, 76, 0
2, 8640, Note_on_c, 0, 60, 0
2, 8640, Note_on_c, 0, 69, 0
2, 8640, Note_on_c, 0, 33, 0
2, 8640, Note_on_c, 0, 37, 50
2, 8661, Note_on_c, 0, 44, 50
2, 8682, Note_on_c, 0, 49, 50
2, 8703, Note_on_c, 0, 56, 50
2, 8820, Note_on_c, 0, 68, 49
2, 8820, Note_on_c, 0, 73, 49
2, 8820, Note_on_c, 0, 80, 49
2, 9000, Note_on_c, 0, 56, 0
2, 9000, Note_on_c, 0, 49, 0
2, 9000, Note_on_c, 0, 37, 0
2, 9000, Note_on_c, 0, 44, 0
2, 9000, Note_on_c, 0, 45, 47
2, 9021, Note_on_c, 0, 52, 47
2, 9042, Note_on_c, 0, 57, 47
2, 9063, Note_on_c, 0, 64, 47
2, 9180, Note_on_c, 0, 80, 0
2, 9180, Note_on_c, 0, 73, 0
2, 9180, Note_on_c, 0, 68, 0
2, 9180, Note_on_c, 0, 61, 46
2, 9180, Note_on_c, 0, 68, 46
2, 9180, Note_on_c, 0, 73, 46
2, 9360, Note_on_c, 0, 52, 0
2, 9360, Note_on_c, 0, 64, 0
2, 9360, Note_on_c, 0, 45, 0
2, 9360, Note_on_c, 0, 57, 0
2, 9360, Note_on_c, 0, 37, 44
2, 9381, Note_on_c, 0, 44, 44
2, 9402, Note_on_c, 0, 49, 44
2, 9423, Note_on_c, 0, 56, 43
2, 9540, Note_on_c, 0, 73, 0
2, 9540, Note_on_c, 0, 68, 0
2, 9540, Note_on_c, 0, 61, 0
2, 9540, Note_on_c, 0, 68, 42
2, 9540, Note_on_c, 0, 73, 42
2, 9540, Note_on_c, 0, 80, 42
2, 9720, Note_on_c, 0, 44, 0
2, 9720, Note_on_c, 0, 56, 0
2, 9720, Note_on_c, 0, 37, 0
2, 9720, Note_on_c, 0, 49, 0
2, 9720, Note_on_c, 0, 61, 74
2, 9720, Note_on_c, 0, 45, 41
2, 9741, Note_on_c, 0, 52, 41
2, 9762, Note_on_c, 0, 57, 40
2, 9783, Note_on_c, 0, 64, 40
2, 9900, Note_on_c, 0, 80, 0
2, 9900, Note_on_c, 0, 73, 0
2, 9900, Note_on_c, 0, 68, 0
2, 9900, Note_on_c, 0, 68, 39
2, 9900, Note_on_c, 0, 73, 39
2, 9930, Note_on_c, 0, 61, 0
2, 9959, Note_on_c, 0, 73, 72
2, 10065, Note_on_c, 0, 73, 0
2, 10080, Note_on_c, 0, 52, 0
2, 10080, Note_on_c, 0, 64, 0
2, 10080, Note_on_c, 0, 45, 0
2, 10080, Note_on_c, 0, 57, 0
2, 10080, Note_on_c, 0, 71, 71
2, 10080, Note_on_c, 0, 37, 38
2, 10101, Note_on_c, 0, 44, 37
2, 10122, Note_on_c, 0, 49, 37
2, 10143, Note_on_c, 0, 56, 37
2, 10260, Note_on_c, 0, 73, 0
2, 10260, Note_on_c, 0, 68, 0
2, 10260, Note_on_c, 0, 68, 45
2, 10260, Note_on_c, 0, 73, 45
2, 10260, Note_on_c, 0, 80, 45
2, 10440, Note_on_c, 0, 49, 0
2, 10440, Note_on_c, 0, 37, 0
2, 10440, Note_on_c, 0, 44, 0
2, 10440, Note_on_c, 0, 56, 0
2, 10440, Note_on_c, 0, 45, 55
2, 10461, Note_on_c, 0, 52, 55
2, 10482, Note_on_c, 0, 57, 55
2, 10503, Note_on_c, 0, 64, 55
2, 10544, Note_on_c, 0, 71, 0
2, 10560, Note_on_c, 0, 69, 77
2, 10620, Note_on_c, 0, 80, 0
2, 10620, Note_on_c, 0, 73, 0
2, 10620, Note_on_c, 0, 68, 0
2, 10620, Note_on_c, 0, 61, 34
2, 10620, Note_on_c, 0, 73, 34
2, 10664, Note_on_c, 0, 69, 0
2, 10679, Note_on_c, 0, 66, 76
2, 10785, Note_on_c, 0, 66, 0
2, 10800, Note_on_c, 0, 57, 0
2, 10800, Note_on_c, 0, 64, 0
2, 10800, Note_on_c, 0, 45, 0
2, 10800, Note_on_c, 0, 52, 0
2, 10800, Note_on_c, 0, 68, 84
2, 10800, Note_on_c, 0, 37, 39
2, 10821, Note_on_c, 0, 44, 39
2, 10842, Note_on_c, 0, 49, 39
2, 10863, Note_on_c, 0, 56, 39
2, 10980, Note_on_c, 0, 73, 0
2, 10980, Note_on_c, 0, 61, 0
2, 10980, Note_on_c, 0, 73, 43
2, 10980, Note_on_c, 0, 80, 43
2, 11160, Note_on_c, 0, 49, 0
2, 11160, Note_on_c, 0, 37, 0
2, 11160, Note_on_c, 0, 44, 0
2, 11160, Note_on_c, 0, 56, 0
2, 11160, Note_on_c, 0, 45, 61
2, 11181, Note_on_c, 0, 52, 61
2, 11202, Note_on_c, 0, 57, 61
2, 11223, Note_on_c, 0, 64, 61
2, 11340, Note_on_c, 0, 73, 0
2, 11340, Note_on_c, 0, 80, 0
2, 11340, Note_on_c, 0, 61, 32
2, 11340, Note_on_c, 0, 68, 32
2, 11340, Note_on_c, 0, 73, 32
2, 11433, Note_on_c, 0, 68, 0
2, 11520, Note_on_c, 0, 57, 0
2, 11520, Note_on_c, 0, 45, 0
2, 11520, Note_on_c, 0, 52, 0
2, 11520, Note_on_c, 0, 64, 0
2, 11520, Note_on_c, 0, 37, 34
2, 11541, Note_on_c, 0, 44, 34
2, 11562, Note_on_c, 0, 49, 34
2, 11583, Note_on_c, 0, 56, 34
2, 11640, Note_on_c, 0, 64, 77
2, 11700, Note_on_c, 0, 73, 0
2, 11700, Note_on_c, 0, 61, 0
2, 11700, Note_on_c, 0, 68, 0
2, 11700, Note_on_c, 0, 68, 43
2, 11700, Note_on_c, 0, 73, 43
2, 11700, Note_on_c, 0, 80, 43
2, 11744, Note_on_c, 0, 64, 0
2, 11759, Note_on_c, 0, 66, 86
2, 11880, Note_on_c, 0, 49, 0
2, 11880, Note_on_c, 0, 37, 0
2, 11880, Note_on_c, 0, 44, 0
2, 11880, Note_on_c, 0, 56, 0
2, 11880, Note_on_c, 0, 45, 55
2, 11901, Note_on_c, 0, 52, 55
2, 11922, Note_on_c, 0, 57, 55
2, 11943, Note_on_c, 0, 64, 55
2, 12000, Note_on_c, 0, 66, 0
2, 12000, Note_on_c, 0, 64, 78
2, 12060, Note_on_c, 0, 80, 0
2, 12060, Note_on_c, 0, 73, 0
2, 12060, Note_on_c, 0, 68, 0
2, 12060, Note_on_c, 0, 61, 31
2, 12060, Note_on_c, 0, 73, 31
2, 12104, Note_on_c, 0, 64, 0
2, 12119, Note_on_c, 0, 68, 92
2, 12225, Note_on_c, 0, 68, 0
2, 12240, Note_on_c, 0, 57, 0
2, 12240, Note_on_c, 0, 64, 0
2, 12240, Note_on_c, 0, 45, 0
2, 12240, Note_on_c, 0, 52, 0
2, 12240, Note_on_c, 0, 64, 75
2, 12240, Note_on_c, 0, 37, 32
2, 12261, Note_on_c, 0, 44, 32
2, 12282, Note_on_c, 0, 49, 32
2, 12303, Note_on_c, 0, 56, 32
2, 12420, Note_on_c, 0, 73, 0
2, 12420, Note_on_c, 0, 61, 0
2, 12420, Note_on_c, 0, 68, 46
2, 12420, Note_on_c, 0, 73, 46
2, 12420, Note_on_c, 0, 80, 46
2, 12600, Note_on_c, 0, 49, 0
2, 12600, Note_on_c, 0, 37, 0
2, 12600, Note_on_c, 0, 44, 0
2, 12600, Note_on_c, 0, 56, 0
2, 12600, Note_on_c, 0, 45, 60
2, 12621, Note_on_c, 0, 52, 60
2, 12642, Note_on_c, 0, 57, 60
2, 12663, Note_on_c, 0, 64, 60
2, 12780, Note_on_c, 0, 73, 0
2, 12780, Note_on_c, 0, 80, 0
2, 12780, Note_on_c, 0, 68, 0
2, 12780, Note_on_c, 0, 61, 31
2, 12780, Note_on_c, 0, 68, 31
2, 12780, Note_on_c, 0, 73, 31
2, 12960, Note_on_c, 0, 52, 0
2, 12960, Note_on_c, 0, 64, 0
2, 12960, Note_on_c, 0, 45, 0
2, 12960, Note_on_c, 0, 57, 0
2, 12960, Note_on_c, 0, 37, 34
2, 12981, Note_on_c, 0, 44, 34
2, 13002, Note_on_c, 0, 49, 34
2, 13023, Note_on_c, 0, 56, 34
2, 13140, Note_on_c, 0, 64, 0
2, 13140, Note_on_c, 0, 68, 0
2, 13140, Note_on_c, 0, 73, 0
2, 13140, Note_on_c, 0, 61, 0
2, 13140, Note_on_c, 0, 68, 40
2, 13140, Note_on_c, 0, 73, 40
2, 13140, Note_on_c, 0, 80, 40
2, 13320, Note_on_c, 0, 37, 0
2, 13320, Note_on_c, 0, 49, 0
2, 13320, Note_on_c, 0, 56, 0
2, 13320, Note_on_c, 0, 44, 0
2, 13320, Note_on_c, 0, 63, 78
2, 13320, Note_on_c, 0, 45, 60
2, 13341, Note_on_c, 0, 52, 60
2, 13362, Note_on_c, 0, 57, 60
2, 13383, Note_on_c, 0, 64, 60
2, 13500, Note_on_c, 0, 80, 0
2, 13500, Note_on_c, 0, 73, 0
2, 13500, Note_on_c, 0, 68, 0
2, 13500, Note_on_c, 0, 68, 27
2, 13500, Note_on_c, 0, 73, 27
2, 13530, Note_on_c, 0, 63, 0
2, 13559, Note_on_c, 0, 61, 74
2, 13665, Note_on_c, 0, 61, 0
2, 13680, Note_on_c, 0, 57, 0
2, 13680, Note_on_c, 0, 64, 0
2, 13680, Note_on_c, 0, 45, 0
2, 13680, Note_on_c, 0, 52, 0
2, 13680, Note_on_c, 0, 63, 84
2, 13680, Note_on_c, 0, 37, 37
2, 13701, Note_on_c, 0, 44, 37
2, 13722, Note_on_c, 0, 49, 37
2, 13743, Note_on_c, 0, 56, 37
2, 13860, Note_on_c, 0, 73, 0
2, 13860, Note_on_c, 0, 68, 0
2, 13860, Note_on_c, 0, 68, 46
2, 13860, Note_on_c, 0, 73, 46
2, 13860, Note_on_c, 0, 80, 46
2, 14040, Note_on_c, 0, 49, 0
2, 14040, Note_on_c, 0, 37, 0
2, 14040, Note_on_c, 0, 44, 0
2, 14040, Note_on_c, 0, 56, 0
2, 14040, Note_on_c, 0, 40, 55
2, 14061, Note_on_c, 0, 47, 55
2, 14082, Note_on_c, 0, 52, 55
2, 14103, Note_on_c, 0, 57, 55
2, 14130, Note_on_c, 0, 63, 0
2, 14130, Note_on_c, 0, 64, 70
2, 14220, Note_on_c, 0, 64, 0
2, 14220, Note_on_c, 0, 80, 0
2, 14220, Note_on_c, 0, 73, 0
2, 14220, Note_on_c, 0, 68, 0
2, 14220, Note_on_c, 0, 68, 28
2, 14220, Note_on_c, 0, 73, 28
2, 14220, Note_on_c, 0, 59, 72
2, 14310, Note_on_c, 0, 59, 0
2, 14310, Note_on_c, 0, 61, 73
2, 14400, Note_on_c, 0, 61, 0
2, 14400, Note_on_c, 0, 40, 0
2, 14400, Note_on_c, 0, 52, 0
2, 14400, Note_on_c, 0, 57, 0
2, 14400, Note_on_c, 0, 47, 0
2, 14400, Note_on_c, 0, 63, 89
2, 14400, Note_on_c, 0, 37, 37
2, 14421, Note_on_c, 0, 44, 37
2, 14442, Note_on_c, 0, 49, 37
2, 14463, Note_on_c, 0, 56, 37
2, 14580, Note_on_c, 0, 73, 0
2, 14580, Note_on_c, 0, 68, 0
2, 14580, Note_on_c, 0, 68, 40
2, 14580, Note_on_c, 0, 73, 40
2, 14580, Note_on_c, 0, 80, 40
2, 14760, Note_on_c, 0, 49, 0
2, 14760, Note_on_c, 0, 37, 0
2, 14760, Note_on_c, 0, 44, 0
2, 14760, Note_on_c, 0, 56, 0
2, 14760, Note_on_c, 0, 40, 46
2, 14781, Note_on_c, 0, 47, 46
2, 14802, Note_on_c, 0, 52, 46
2, 14823, Note_on_c, 0, 57, 46
2, 14850, Note_on_c, 0, 63, 0
2, 14850, Note_on_c, 0, 64, 74
2, 14940, Note_on_c, 0, 64, 0
2, 14940, Note_on_c, 0, 80, 0
2, 14940, Note_on_c, 0, 73, 0
2, 14940, Note_on_c, 0, 68, 0
2, 14940, Note_on_c, 0, 68, 35
2, 14940, Note_on_c, 0, 73, 35
2, 14940, Note_on_c, 0, 59, 68
2, 15030, Note_on_c, 0, 59, 0
2, 15030, Note_on_c, 0, 61, 74
2, 15120, Note_on_c, 0, 61, 0
2, 15120, Note_on_c, 0, 40, 0
2, 15120, Note_on_c, 0, 52, 0
2, 15120, Note_on_c, 0, 57, 0
2, 15120, Note_on_c, 0, 47, 0
2, 15120, Note_on_c, 0, 63, 80
2, 15120, Note_on_c, 0, 37, 43
2, 15141, Note_on_c, 0, 44, 43
2, 15162, Note_on_c, 0, 49, 43
2, 15183, Note_on_c, 0, 56, 43
2, 15300, Note_on_c, 0, 73, 0
2, 15300, Note_on_c, 0, 68, 0
2, 15300, Note_on_c, 0, 68, 44
2, 15300, Note_on_c, 0, 73, 44
2, 15300, Note_on_c, 0, 80, 44
2, 15359, Note_on_c, 0, 63, 0
2, 15359, Note_on_c, 0, 64, 78
2, 15480, Note_on_c, 0, 64, 0
2, 15480, Note_on_c, 0, 56, 0
2, 15480, Note_on_c, 0, 37, 0
2, 15480, Note_on_c, 0, 44, 0
2, 15480, Note_on_c, 0, 49, 0
2, 15480, Note_on_c, 0, 61, 70
2, 15480, Note_on_c, 0, 40, 54
2, 15501, Note_on_c, 0, 47, 54
2, 15522, Note_on_c, 0, 52, 54
2, 15543, Note_on_c, 0, 57, 54
2, 15660, Note_on_c, 0, 80, 0
2, 15660, Note_on_c, 0, 68, 0
2, 15660, Note_on_c, 0, 73, 0
2, 15660, Note_on_c, 0, 68, 33
2, 15660, Note_on_c, 0, 73, 33
2, 15840, Note_on_c, 0, 47, 0
2, 15840, Note_on_c, 0, 57, 0
2, 15840, Note_on_c, 0, 40, 0
2, 15840, Note_on_c, 0, 52, 0
2, 15840, Note_on_c, 0, 37, 36
2, 15861, Note_on_c, 0, 44, 36
2, 15882, Note_on_c, 0, 49, 36
2, 15903, Note_on_c, 0, 56, 36
2, 16020, Note_on_c, 0, 68, 0
2, 16020, Note_on_c, 0, 73, 0
2, 16020, Note_on_c, 0, 68, 46
2, 16020, Note_on_c, 0, 73, 46
2, 16020, Note_on_c, 0, 80, 46
2, 16079, Note_on_c, 0, 61, 0
2, 16079, Note_on_c, 0, 63, 92
2, 16185, Note_on_c, 0, 63, 0
2, 16200, Note_on_c, 0, 49, 0
2, 16200, Note_on_c, 0, 68, 0
2, 16200, Note_on_c, 0, 56, 0
2, 16200, Note_on_c, 0, 44, 0
2, 16200, Note_on_c, 0, 80, 0
2, 16200, Note_on_c, 0, 73, 0
2, 16200, Note_on_c, 0, 37, 0
2, 16200, Note_on_c, 0, 65, 73
2, 16200, Note_on_c, 0, 68, 73
2, 16200, Note_on_c, 0, 72, 73
2, 16200, Note_on_c, 0, 60, 105
2, 16200, Note_on_c, 0, 53, 54
2, 16200, Note_on_c, 0, 56, 54
2, 16740, Note_on_c, 0, 60, 0
2, 16920, Note_on_c, 0, 62, 76
2, 16992, Note_on_c, 0, 62, 0
2, 16992, Note_on_c, 0, 61, 79
2, 17064, Note_on_c, 0, 61, 0
2, 17064, Note_on_c, 0, 60, 76
2, 17135, Note_on_c, 0, 60, 0
2, 17135, Note_on_c, 0, 59, 76
2, 17207, Note_on_c, 0, 59, 0
2, 17207, Note_on_c, 0, 61, 92
2, 17280, Note_on_c, 0, 61, 0
2, 17280, Note_on_c, 0, 60, 82
2, 17760, Note_on_c, 0, 60, 0
2, 17760, Note_on_c, 0, 62, 77
2, 17879, Note_on_c, 0, 62, 0
2, 17879, Note_on_c, 0, 61, 68
2, 18000, Note_on_c, 0, 61, 0
2, 18000, Note_on_c, 0, 60, 63
2, 18120, Note_on_c, 0, 60, 0
2, 18120, Note_on_c, 0, 59, 66
2, 18239, Note_on_c, 0, 59, 0
2, 18239, Note_on_c, 0, 61, 73
2, 18360, Note_on_c, 0, 61, 0
2, 18360, Note_on_c, 0, 60, 65
2, 18900, Note_on_c, 0, 60, 0
2, 18900, Note_on_c, 0, 59, 73
2, 19260, Note_on_c, 0, 59, 0
2, 19260, Note_on_c, 0, 60, 72
2, 19440, Note_on_c, 0, 60, 0
2, 19440, Note_on_c, 0, 68, 0
2, 19440, Note_on_c, 0, 72, 0
2, 19440, Note_on_c, 0, 65, 0
2, 19440, Note_on_c, 0, 56, 0
2, 19440, Note_on_c, 0, 53, 0
2, 19440, Note_on_c, 0, 61, 71
2, 19440, Note_on_c, 0, 37, 50
2, 19461, Note_on_c, 0, 44, 50
2, 19482, Note_on_c, 0, 49, 50
2, 19503, Note_on_c, 0, 56, 50
2, 19620, Note_on_c, 0, 68, 49
2, 19620, Note_on_c, 0, 73, 49
2, 19620, Note_on_c, 0, 80, 49
2, 19800, Note_on_c, 0, 56, 0
2, 19800, Note_on_c, 0, 49, 0
2, 19800, Note_on_c, 0, 61, 0
2, 19800, Note_on_c, 0, 44, 0
2, 19800, Note_on_c, 0, 37, 0
2, 19800, Note_on_c, 0, 45, 47
2, 19821, Note_on_c, 0, 52, 47
2, 19842, Note_on_c, 0, 57, 47
2, 19863, Note_on_c, 0, 64, 47
2, 19980, Note_on_c, 0, 80, 0
2, 19980, Note_on_c, 0, 68, 0
2, 19980, Note_on_c, 0, 73, 0
2, 19980, Note_on_c, 0, 68, 46
2, 19980, Note_on_c, 0, 73, 46
2, 19980, Note_on_c, 0, 61, 66
2, 20138, Note_on_c, 0, 61, 0
2, 20160, Note_on_c, 0, 57, 0
2, 20160, Note_on_c, 0, 64, 0
2, 20160, Note_on_c, 0, 45, 0
2, 20160, Note_on_c, 0, 52, 0
2, 20160, Note_on_c, 0, 68, 64
2, 20160, Note_on_c, 0, 37, 44
2, 20181, Note_on_c, 0, 44, 44
2, 20202, Note_on_c, 0, 49, 44
2, 20223, Note_on_c, 0, 56, 43
2, 20340, Note_on_c, 0, 73, 0
2, 20340, Note_on_c, 0, 68, 0
2, 20340, Note_on_c, 0, 73, 42
2, 20340, Note_on_c, 0, 80, 42
2, 20520, Note_on_c, 0, 49, 0
2, 20520, Note_on_c, 0, 37, 0
2, 20520, Note_on_c, 0, 44, 0
2, 20520, Note_on_c, 0, 56, 0
2, 20520, Note_on_c, 0, 45, 41
2, 20541, Note_on_c, 0, 52, 41
2, 20562, Note_on_c, 0, 57, 40
2, 20583, Note_on_c, 0, 64, 40
2, 20640, Note_on_c, 0, 68, 0
2, 20640, Note_on_c, 0, 66, 60
2, 20700, Note_on_c, 0, 73, 0
2, 20700, Note_on_c, 0, 80, 0
2, 20700, Note_on_c, 0, 61, 39
2, 20700, Note_on_c, 0, 68, 39
2, 20700, Note_on_c, 0, 73, 39
2, 20744, Note_on_c, 0, 66, 0
2, 20759, Note_on_c, 0, 63, 59
2, 20865, Note_on_c, 0, 63, 0
2, 20880, Note_on_c, 0, 64, 0
2, 20880, Note_on_c, 0, 45, 0
2, 20880, Note_on_c, 0, 52, 0
2, 20880, Note_on_c, 0, 57, 0
2, 20880, Note_on_c, 0, 64, 58
2, 20880, Note_on_c, 0, 37, 38
2, 20901, Note_on_c, 0, 44, 37
2, 20922, Note_on_c, 0, 49, 37
2, 20943, Note_on_c, 0, 56, 37
2, 21060, Note_on_c, 0, 73, 0
2, 21060, Note_on_c, 0, 61, 0
2, 21060, Note_on_c, 0, 68, 0
2, 21060, Note_on_c, 0, 68, 40
2, 21060, Note_on_c, 0, 73, 40
2, 21060, Note_on_c, 0, 80, 40
2, 21240, Note_on_c, 0, 44, 0
2, 21240, Note_on_c, 0, 56, 0
2, 21240, Note_on_c, 0, 37, 0
2, 21240, Note_on_c, 0, 49, 0
2, 21240, Note_on_c, 0, 45, 64
2, 21261, Note_on_c, 0, 52, 64
2, 21282, Note_on_c, 0, 57, 64
2, 21303, Note_on_c, 0, 64, 64
2, 21420, Note_on_c, 0, 73, 0
2, 21420, Note_on_c, 0, 80, 0
2, 21420, Note_on_c, 0, 68, 0
2, 21420, Note_on_c, 0, 61, 31
2, 21420, Note_on_c, 0, 68, 31
2, 21420, Note_on_c, 0, 73, 31
2, 21600, Note_on_c, 0, 52, 0
2, 21600, Note_on_c, 0, 64, 0
2, 21600, Note_on_c, 0, 45, 0
2, 21600, Note_on_c, 0, 57, 0
2, 21600, Note_on_c, 0, 37, 36
2, 21621, Note_on_c, 0, 44, 36
2, 21642, Note_on_c, 0, 49, 36
2, 21663, Note_on_c, 0, 56, 36
2, 21704, Note_on_c, 0, 64, 0
2, 21720, Note_on_c, 0, 63, 68
2, 21780, Note_on_c, 0, 73, 0
2, 21780, Note_on_c, 0, 68, 0
2, 21780, Note_on_c, 0, 61, 0
2, 21780, Note_on_c, 0, 68, 38
2, 21780, Note_on_c, 0, 73, 38
2, 21780, Note_on_c, 0, 80, 38
2, 21824, Note_on_c, 0, 63, 0
2, 21839, Note_on_c, 0, 59, 67
2, 21945, Note_on_c, 0, 59, 0
2, 21960, Note_on_c, 0, 44, 0
2, 21960, Note_on_c, 0, 56, 0
2, 21960, Note_on_c, 0, 37, 0
2, 21960, Note_on_c, 0, 49, 0
2, 21960, Note_on_c, 0, 61, 75
2, 21960, Note_on_c, 0, 40, 51
2, 21981, Note_on_c, 0, 45, 51
2, 22002, Note_on_c, 0, 52, 51
2, 22023, Note_on_c, 0, 57, 51
2, 22140, Note_on_c, 0, 80, 0
2, 22140, Note_on_c, 0, 68, 0
2, 22140, Note_on_c, 0, 73, 0
2, 22140, Note_on_c, 0, 68, 33
2, 22140, Note_on_c, 0, 73, 33
2, 22320, Note_on_c, 0, 45, 0
2, 22320, Note_on_c, 0, 57, 0
2, 22320, Note_on_c, 0, 40, 0
2, 22320, Note_on_c, 0, 52, 0
2, 22320, Note_on_c, 0, 37, 39
2, 22335, Note_on_c, 0, 44, 39
2, 22351, Note_on_c, 0, 49, 39
2, 22367, Note_on_c, 0, 56, 39
2, 22440, Note_on_c, 0, 61, 0
2, 22440, Note_on_c, 0, 59, 57
2, 22500, Note_on_c, 0, 68, 0
2, 22500, Note_on_c, 0, 73, 0
2, 22500, Note_on_c, 0, 68, 48
2, 22500, Note_on_c, 0, 73, 48
2, 22500, Note_on_c, 0, 80, 48
2, 22559, Note_on_c, 0, 59, 0
2, 22559, Note_on_c, 0, 56, 52
2, 22680, Note_on_c, 0, 56, 0
2, 22680, Note_on_c, 0, 56, 0
2, 22680, Note_on_c, 0, 68, 0
2, 22680, Note_on_c, 0, 49, 0
2, 22680, Note_on_c, 0, 44, 0
2, 22680, Note_on_c, 0, 80, 0
2, 22680, Note_on_c, 0, 73, 0
2, 22680, Note_on_c, 0, 37, 0
2, 22680, Note_on_c, 0, 62, 28
2, 22680, Note_on_c, 0, 65, 28
2, 22680, Note_on_c, 0, 69, 28
2, 22680, Note_on_c, 0, 57, 73
2, 22680, Note_on_c, 0, 50, 35
2, 22680, Note_on_c, 0, 53, 35
2, 23313, Note_on_c, 0, 57, 0
2, 23400, Note_on_c, 0, 59, 60
2, 23472, Note_on_c, 0, 59, 0
2, 23472, Note_on_c, 0, 58, 56
2, 23544, Note_on_c, 0, 58, 0
2, 23544, Note_on_c, 0, 57, 61
2, 23615, Note_on_c, 0, 57, 0
2, 23615, Note_on_c, 0, 56, 52
2, 23687, Note_on_c, 0, 56, 0
2, 23687, Note_on_c, 0, 58, 61
2, 23760, Note_on_c, 0, 58, 0
2, 23760, Note_on_c, 0, 57, 57
2, 24300, Note_on_c, 0, 57, 0
2, 24300, Note_on_c, 0, 59, 62
2, 24480, Note_on_c, 0, 59, 0
2, 24480, Note_on_c, 0, 53, 0
2, 24480, Note_on_c, 0, 69, 0
2, 24480, Note_on_c, 0, 62, 0
2, 24480, Note_on_c, 0, 65, 0
2, 24480, Note_on_c, 0, 50, 0
2, 24480, Note_on_c, 0, 56, 66
2, 24480, Note_on_c, 0, 37, 38
2, 24501, Note_on_c, 0, 44, 38
2, 24522, Note_on_c, 0, 49, 38
2, 24660, Note_on_c, 0, 68, 33
2, 24660, Note_on_c, 0, 73, 33
2, 24797, Note_on_c, 0, 56, 0
2, 24840, Note_on_c, 0, 49, 0
2, 24840, Note_on_c, 0, 37, 0
2, 24840, Note_on_c, 0, 44, 0
2, 24840, Note_on_c, 0, 45, 55
2, 24861, Note_on_c, 0, 52, 55
2, 24882, Note_on_c, 0, 57, 55
2, 24903, Note_on_c, 0, 64, 55
2, 25020, Note_on_c, 0, 73, 0
2, 25020, Note_on_c, 0, 68, 0
2, 25020, Note_on_c, 0, 68, 36
2, 25020, Note_on_c, 0, 73, 36
2, 25020, Note_on_c, 0, 61, 54
2, 25200, Note_on_c, 0, 61, 0
2, 25200, Note_on_c, 0, 64, 0
2, 25200, Note_on_c, 0, 45, 0
2, 25200, Note_on_c, 0, 52, 0
2, 25200, Note_on_c, 0, 57, 0
2, 25200, Note_on_c, 0, 59, 51
2, 25200, Note_on_c, 0, 37, 34
2, 25221, Note_on_c, 0, 44, 34
2, 25242, Note_on_c, 0, 49, 34
2, 25263, Note_on_c, 0, 56, 34
2, 25380, Note_on_c, 0, 73, 0
2, 25380, Note_on_c, 0, 68, 0
2, 25380, Note_on_c, 0, 68, 45
2, 25380, Note_on_c, 0, 73, 45
2, 25380, Note_on_c, 0, 80, 45
2, 25560, Note_on_c, 0, 49, 0
2, 25560, Note_on_c, 0, 37, 0
2, 25560, Note_on_c, 0, 44, 0
2, 25560, Note_on_c, 0, 56, 0
2, 25560, Note_on_c, 0, 45, 55
2, 25581, Note_on_c, 0, 52, 55
2, 25602, Note_on_c, 0, 57, 55
2, 25623, Note_on_c, 0, 64, 55
2, 25680, Note_on_c, 0, 59, 0
2, 25680, Note_on_c, 0, 57, 57
2, 25740, Note_on_c, 0, 80, 0
2, 25740, Note_on_c, 0, 73, 0
2, 25740, Note_on_c, 0, 68, 0
2, 25740, Note_on_c, 0, 61, 29
2, 25740, Note_on_c, 0, 68, 29
2, 25740, Note_on_c, 0, 73, 29
2, 25799, Note_on_c, 0, 57, 0
2, 25799, Note_on_c, 0, 56, 58
2, 25920, Note_on_c, 0, 56, 0
2, 25920, Note_on_c, 0, 64, 0
2, 25920, Note_on_c, 0, 61, 0
2, 25920, Note_on_c, 0, 52, 0
2, 25920, Note_on_c, 0, 45, 0
2, 25920, Note_on_c, 0, 73, 0
2, 25920, Note_on_c, 0, 68, 0
2, 25920, Note_on_c, 0, 57, 0
2, 25920, Note_on_c, 0, 58, 92
2, 25920, Note_on_c, 0, 61, 92
2, 25920, Note_on_c, 0, 65, 92
2, 25920, Note_on_c, 0, 55, 79
2, 25920, Note_on_c, 0, 46, 98
2, 25920, Note_on_c, 0, 49, 98
2, 25920, Note_on_c, 0, 53, 98
2, 26550, Note_on_c, 0, 55, 0
2, 26550, Note_on_c, 0, 56, 85
2, 26595, Note_on_c, 0, 56, 0
2, 26595, Note_on_c, 0, 55, 86
2, 26640, Note_on_c, 0, 55, 0
2, 26640, Note_on_c, 0, 54, 83
2, 26876, Note_on_c, 0, 54, 0
2, 26910, Note_on_c, 0, 55, 88
2, 26955, Note_on_c, 0, 55, 0
2, 26955, Note_on_c, 0, 54, 89
2, 27000, Note_on_c, 0, 54, 0
2, 27000, Note_on_c, 0, 53, 90
2, 27187, Note_on_c, 0, 53, 0
2, 27187, Note_on_c, 0, 46, 0
2, 27187, Note_on_c, 0, 61, 0
2, 27187, Note_on_c, 0, 65, 0
2, 27187, Note_on_c, 0, 58, 0
2, 27187, Note_on_c, 0, 49, 0
2, 27236, Note_on_c, 0, 53, 0
2, 27270, Note_on_c, 0, 54, 94
2, 27315, Note_on_c, 0, 54, 0
2, 27315, Note_on_c, 0, 53, 95
2, 27360, Note_on_c, 0, 53, 0
2, 27360, Note_on_c, 0, 55, 103
2, 27360, Note_on_c, 0, 59, 103
2, 27360, Note_on_c, 0, 64, 103
2, 27360, Note_on_c, 0, 52, 96
2, 27360, Note_on_c, 0, 49, 87
2, 27360, Note_on_c, 0, 40, 23
2, 27360, Note_on_c, 0, 47, 23
2, 27720, Note_on_c, 0, 47, 0
2, 27720, Note_on_c, 0, 49, 0
2, 27720, Note_on_c, 0, 59, 0
2, 27720, Note_on_c, 0, 64, 0
2, 27720, Note_on_c, 0, 55, 0
2, 27720, Note_on_c, 0, 40, 0
2, 27720, Note_on_c, 0, 52, 0
2, 27720, Note_on_c, 0, 49, 110
2, 27779, Note_on_c, 0, 49, 0
2, 27779, Note_on_c, 0, 49, 108
2, 27840, Note_on_c, 0, 49, 0
2, 27840, Note_on_c, 0, 49, 106
2, 27900, Note_on_c, 0, 49, 0
2, 27900, Note_on_c, 0, 49, 104
2, 27959, Note_on_c, 0, 49, 0
2, 27959, Note_on_c, 0, 49, 102
2, 28020, Note_on_c, 0, 49, 0
2, 28020, Note_on_c, 0, 49, 99
2, 28080, Note_on_c, 0, 49, 0
2, 28080, Note_on_c, 0, 49, 61
2, 28080, Note_on_c, 0, 34, 87
2, 28080, Note_on_c, 0, 41, 87
2, 28139, Note_on_c, 0, 49, 0
2, 28139, Note_on_c, 0, 49, 57
2, 28200, Note_on_c, 0, 49, 0
2, 28200, Note_on_c, 0, 49, 61
2, 28260, Note_on_c, 0, 49, 0
2, 28260, Note_on_c, 0, 49, 63
2, 28319, Note_on_c, 0, 49, 0
2, 28319, Note_on_c, 0, 49, 64
2, 28380, Note_on_c, 0, 49, 0
2, 28380, Note_on_c, 0, 49, 63
2, 28440, Note_on_c, 0, 49, 0
2, 28440, Note_on_c, 0, 41, 0
2, 28440, Note_on_c, 0, 34, 0
2, 28440, Note_on_c, 0, 49, 59
2, 28499, Note_on_c, 0, 49, 0
2, 28499, Note_on_c, 0, 49, 62
2, 28560, Note_on_c, 0, 49, 0
2, 28560, Note_on_c, 0, 49, 59
2, 28620, Note_on_c, 0, 49, 0
2, 28620, Note_on_c, 0, 49, 60
2, 28679, Note_on_c, 0, 49, 0
2, 28679, Note_on_c, 0, 49, 56
2, 28740, Note_on_c, 0, 49, 0
2, 28740, Note_on_c, 0, 49, 60
2, 28800, Note_on_c, 0, 49, 0
2, 28800, Note_on_c, 0, 49, 52
2, 28800, Note_on_c, 0, 40, 85
2, 28800, Note_on_c, 0, 47, 85
2, 28872, Note_on_c, 0, 49, 0
2, 28872, Note_on_c, 0, 50, 53
2, 28944, Note_on_c, 0, 50, 0
2, 28944, Note_on_c, 0, 49, 50
2, 29015, Note_on_c, 0, 49, 0
2, 29015, Note_on_c, 0, 48, 47
2, 29087, Note_on_c, 0, 48, 0
2, 29087, Note_on_c, 0, 50, 54
2, 29160, Note_on_c, 0, 50, 0
2, 29160, Note_on_c, 0, 47, 0
2, 29160, Note_on_c, 0, 40, 0
2, 29160, Note_on_c, 0, 49, 51
2, 29232, Note_on_c, 0, 49, 0
2, 29232, Note_on_c, 0, 50, 53
2, 29304, Note_on_c, 0, 50, 0
2, 29304, Note_on_c, 0, 49, 48
2, 29375, Note_on_c, 0, 49, 0
2, 29375, Note_on_c, 0, 48, 47
2, 29447, Note_on_c, 0, 48, 0
2, 29447, Note_on_c, 0, 50, 48
2, 29520, Note_on_c, 0, 50, 0
2, 29520, Note_on_c, 0, 49, 53
2, 29520, Note_on_c, 0, 34, 89
2, 29520, Note_on_c, 0, 41, 89
2, 29592, Note_on_c, 0, 49, 0
2, 29592, Note_on_c, 0, 50, 52
2, 29664, Note_on_c, 0, 50, 0
2, 29664, Note_on_c, 0, 49, 50
2, 29735, Note_on_c, 0, 49, 0
2, 29735, Note_on_c, 0, 48, 46
2, 29807, Note_on_c, 0, 48, 0
2, 29807, Note_on_c, 0, 50, 52
2, 29880, Note_on_c, 0, 50, 0
2, 29880, Note_on_c, 0, 41, 0
2, 29880, Note_on_c, 0, 34, 0
2, 29880, Note_on_c, 0, 49, 51
2, 29952, Note_on_c, 0, 49, 0
2, 29952, Note_on_c, 0, 50, 51
2, 30024, Note_on_c, 0, 50, 0
2, 30024, Note_on_c, 0, 49, 47
2, 30095, Note_on_c, 0, 49, 0
2, 30095, Note_on_c, 0, 48, 53
2, 30167, Note_on_c, 0, 48, 0
2, 30167, Note_on_c, 0, 50, 57
2, 30240, Note_on_c, 0, 50, 0
2, 30240, Note_on_c, 0, 49, 60
2, 30240, Note_on_c, 0, 40, 86
2, 30240, Note_on_c, 0, 47, 86
2, 30312, Note_on_c, 0, 49, 0
2, 30312, Note_on_c, 0, 50, 60
2, 30384, Note_on_c, 0, 50, 0
2, 30384, Note_on_c, 0, 49, 59
2, 30455, Note_on_c, 0, 49, 0
2, 30455, Note_on_c, 0, 48, 59
2, 30527, Note_on_c, 0, 48, 0
2, 30527, Note_on_c, 0, 50, 58
2, 30600, Note_on_c, 0, 50, 0
2, 30600, Note_on_c, 0, 47, 0
2, 30600, Note_on_c, 0, 40, 0
2, 30600, Note_on_c, 0, 49, 57
2, 30600, Note_on_c, 0, 33, 85
2, 30600, Note_on_c, 0, 40, 85
2, 30672, Note_on_c, 0, 49, 0
2, 30672, Note_on_c, 0, 50, 57
2, 30744, Note_on_c, 0, 50, 0
2, 30744, Note_on_c, 0, 49, 56
2, 30815, Note_on_c, 0, 49, 0
2, 30815, Note_on_c, 0, 48, 55
2, 30887, Note_on_c, 0, 48, 0
2, 30887, Note_on_c, 0, 50, 55
2, 30960, Note_on_c, 0, 50, 0
2, 30960, Note_on_c, 0, 40, 0
2, 30960, Note_on_c, 0, 33, 0
2, 30960, Note_on_c, 0, 49, 54
2, 31032, Note_on_c, 0, 49, 0
2, 31032, Note_on_c, 0, 50, 53
2, 31104, Note_on_c, 0, 50, 0
2, 31104, Note_on_c, 0, 49, 53
2, 31175, Note_on_c, 0, 49, 0
2, 31175, Note_on_c, 0, 48, 52
2, 31247, Note_on_c, 0, 48, 0
2, 31247, Note_on_c, 0, 50, 52
2, 31320, Note_on_c, 0, 50, 0
2, 31320, Note_on_c, 0, 49, 51
2, 31392, Note_on_c, 0, 49, 0
2, 31392, Note_on_c, 0, 50, 50
2, 31464, Note_on_c, 0, 50, 0
2, 31464, Note_on_c, 0, 49, 50
2, 31535, Note_on_c, 0, 49, 0
2, 31535, Note_on_c, 0, 48, 49
2, 31607, Note_on_c, 0, 48, 0
2, 31607, Note_on_c, 0, 50, 48
2, 31680, Note_on_c, 0, 50, 0
2, 31680, Note_on_c, 0, 49, 60
2, 31680, Note_on_c, 0, 44, 54
2, 31680, Note_on_c, 0, 37, 26
2, 31800, Note_on_c, 0, 44, 0
2, 31800, Note_on_c, 0, 45, 59
2, 31860, Note_on_c, 0, 49, 0
2, 31860, Note_on_c, 0, 71, 76
2, 31860, Note_on_c, 0, 80, 76
2, 31860, Note_on_c, 0, 83, 76
2, 31919, Note_on_c, 0, 45, 0
2, 31919, Note_on_c, 0, 46, 61
2, 32040, Note_on_c, 0, 46, 0
2, 32040, Note_on_c, 0, 37, 0
2, 32040, Note_on_c, 0, 47, 62
2, 32040, Note_on_c, 0, 40, 29
2, 32040, Note_on_c, 0, 52, 29
2, 32160, Note_on_c, 0, 47, 0
2, 32160, Note_on_c, 0, 46, 60
2, 32220, Note_on_c, 0, 80, 0
2, 32220, Note_on_c, 0, 83, 0
2, 32220, Note_on_c, 0, 71, 0
2, 32220, Note_on_c, 0, 68, 56
2, 32220, Note_on_c, 0, 76, 56
2, 32220, Note_on_c, 0, 80, 56
2, 32279, Note_on_c, 0, 46, 0
2, 32279, Note_on_c, 0, 45, 59
2, 32400, Note_on_c, 0, 45, 0
2, 32400, Note_on_c, 0, 40, 0
2, 32400, Note_on_c, 0, 52, 0
2, 32400, Note_on_c, 0, 44, 61
2, 32400, Note_on_c, 0, 37, 24
2, 32400, Note_on_c, 0, 49, 24
2, 32520, Note_on_c, 0, 44, 0
2, 32520, Note_on_c, 0, 45, 63
2, 32580, Note_on_c, 0, 68, 0
2, 32580, Note_on_c, 0, 80, 0
2, 32580, Note_on_c, 0, 76, 0
2, 32580, Note_on_c, 0, 64, 53
2, 32580, Note_on_c, 0, 73, 53
2, 32580, Note_on_c, 0, 76, 53
2, 32639, Note_on_c, 0, 45, 0
2, 32639, Note_on_c, 0, 47, 62
2, 32760, Note_on_c, 0, 47, 0
2, 32760, Note_on_c, 0, 37, 0
2, 32760, Note_on_c, 0, 49, 0
2, 32760, Note_on_c, 0, 49, 62
2, 32760, Note_on_c, 0, 45, 28
2, 32760, Note_on_c, 0, 57, 28
2, 32880, Note_on_c, 0, 49, 0
2, 32880, Note_on_c, 0, 47, 61
2, 32940, Note_on_c, 0, 64, 0
2, 32940, Note_on_c, 0, 76, 0
2, 32940, Note_on_c, 0, 73, 0
2, 32940, Note_on_c, 0, 61, 59
2, 32940, Note_on_c, 0, 69, 59
2, 32940, Note_on_c, 0, 73, 59
2, 32999, Note_on_c, 0, 47, 0
2, 32999, Note_on_c, 0, 45, 61
2, 33120, Note_on_c, 0, 45, 0
2, 33120, Note_on_c, 0, 73, 0
2, 33120, Note_on_c, 0, 61, 0
2, 33120, Note_on_c, 0, 57, 0
2, 33120, Note_on_c, 0, 45, 0
2, 33120, Note_on_c, 0, 69, 0
2, 33120, Note_on_c, 0, 49, 68
2, 33120, Note_on_c, 0, 37, 21
2, 33120, Note_on_c, 0, 44, 21
2, 33240, Note_on_c, 0, 49, 0
2, 33240, Note_on_c, 0, 50, 60
2, 33300, Note_on_c, 0, 71, 64
2, 33300, Note_on_c, 0, 80, 64
2, 33300, Note_on_c, 0, 83, 64
2, 33359, Note_on_c, 0, 50, 0
2, 33359, Note_on_c, 0, 51, 62
2, 33480, Note_on_c, 0, 51, 0
2, 33480, Note_on_c, 0, 44, 0
2, 33480, Note_on_c, 0, 37, 0
2, 33480, Note_on_c, 0, 52, 62
2, 33480, Note_on_c, 0, 40, 24
2, 33480, Note_on_c, 0, 47, 24
2, 33600, Note_on_c, 0, 52, 0
2, 33600, Note_on_c, 0, 51, 61
2, 33617, Note_on_c, 0, 71, 0
2, 33617, Note_on_c, 0, 83, 0
2, 33617, Note_on_c, 0, 80, 0
2, 33660, Note_on_c, 0, 68, 53
2, 33660, Note_on_c, 0, 76, 53
2, 33660, Note_on_c, 0, 80, 53
2, 33719, Note_on_c, 0, 51, 0
2, 33719, Note_on_c, 0, 50, 61
2, 33840, Note_on_c, 0, 50, 0
2, 33840, Note_on_c, 0, 40, 0
2, 33840, Note_on_c, 0, 47, 0
2, 33840, Note_on_c, 0, 49, 55
2, 33840, Note_on_c, 0, 37, 25
2, 33840, Note_on_c, 0, 44, 25
2, 33960, Note_on_c, 0, 49, 0
2, 33960, Note_on_c, 0, 51, 59
2, 34020, Note_on_c, 0, 68, 0
2, 34020, Note_on_c, 0, 80, 0
2, 34020, Note_on_c, 0, 76, 0
2, 34020, Note_on_c, 0, 64, 52
2, 34020, Note_on_c, 0, 73, 52
2, 34020, Note_on_c, 0, 76, 52
2, 34079, Note_on_c, 0, 51, 0
2, 34079, Note_on_c, 0, 52, 60
2, 34200, Note_on_c, 0, 52, 0
2, 34200, Note_on_c, 0, 37, 0
2, 34200, Note_on_c, 0, 44, 0
2, 34200, Note_on_c, 0, 54, 66
2, 34200, Note_on_c, 0, 45, 31
2, 34200, Note_on_c, 0, 57, 31
2, 34320, Note_on_c, 0, 54, 0
2, 34320, Note_on_c, 0, 56, 62
2, 34380, Note_on_c, 0, 64, 0
2, 34380, Note_on_c, 0, 76, 0
2, 34380, Note_on_c, 0, 73, 0
2, 34380, Note_on_c, 0, 61, 52
2, 34380, Note_on_c, 0, 69, 52
2, 34380, Note_on_c, 0, 73, 52
2, 34439, Note_on_c, 0, 56, 0
2, 34439, Note_on_c, 0, 57, 61
2, 34560, Note_on_c, 0, 57, 0
2, 34560, Note_on_c, 0, 73, 0
2, 34560, Note_on_c, 0, 61, 0
2, 34560, Note_on_c, 0, 57, 0
2, 34560, Note_on_c, 0, 45, 0
2, 34560, Note_on_c, 0, 69, 0
2, 34560, Note_on_c, 0, 59, 82
2, 34560, Note_on_c, 0, 37, 58
2, 34581, Note_on_c, 0, 44, 58
2, 34602, Note_on_c, 0, 49, 58
2, 34623, Note_on_c, 0, 56, 58
2, 34680, Note_on_c, 0, 59, 0
2, 34680, Note_on_c, 0, 57, 69
2, 34740, Note_on_c, 0, 68, 63
2, 34740, Note_on_c, 0, 76, 63
2, 34740, Note_on_c, 0, 80, 63
2, 34799, Note_on_c, 0, 57, 0
2, 34799, Note_on_c, 0, 56, 68
2, 34920, Note_on_c, 0, 56, 0
2, 34920, Note_on_c, 0, 49, 0
2, 34920, Note_on_c, 0, 37, 0
2, 34920, Note_on_c, 0, 56, 0
2, 34920, Note_on_c, 0, 44, 0
2, 34920, Note_on_c, 0, 61, 81
2, 34920, Note_on_c, 0, 45, 84
2, 34941, Note_on_c, 0, 52, 84
2, 34962, Note_on_c, 0, 57, 84
2, 34983, Note_on_c, 0, 64, 84
2, 35057, Note_on_c, 0, 80, 0
2, 35057, Note_on_c, 0, 68, 0
2, 35057, Note_on_c, 0, 76, 0
2, 35100, Note_on_c, 0, 64, 51
2, 35100, Note_on_c, 0, 76, 51
2, 35159, Note_on_c, 0, 61, 0
2, 35159, Note_on_c, 0, 73, 95
2, 35280, Note_on_c, 0, 73, 0
2, 35280, Note_on_c, 0, 57, 0
2, 35280, Note_on_c, 0, 64, 0
2, 35280, Note_on_c, 0, 45, 0
2, 35280, Note_on_c, 0, 52, 0
2, 35280, Note_on_c, 0, 71, 72
2, 35280, Note_on_c, 0, 37, 57
2, 35301, Note_on_c, 0, 44, 57
2, 35322, Note_on_c, 0, 49, 57
2, 35343, Note_on_c, 0, 56, 57
2, 35460, Note_on_c, 0, 76, 0
2, 35460, Note_on_c, 0, 64, 0
2, 35460, Note_on_c, 0, 61, 60
2, 35460, Note_on_c, 0, 64, 60
2, 35460, Note_on_c, 0, 73, 60
2, 35640, Note_on_c, 0, 49, 0
2, 35640, Note_on_c, 0, 37, 0
2, 35640, Note_on_c, 0, 44, 0
2, 35640, Note_on_c, 0, 56, 0
2, 35640, Note_on_c, 0, 45, 85
2, 35661, Note_on_c, 0, 52, 85
2, 35682, Note_on_c, 0, 57, 85
2, 35703, Note_on_c, 0, 64, 85
2, 35760, Note_on_c, 0, 71, 0
2, 35760, Note_on_c, 0, 69, 63
2, 35820, Note_on_c, 0, 73, 0
2, 35820, Note_on_c, 0, 64, 0
2, 35820, Note_on_c, 0, 61, 0
2, 35820, Note_on_c, 0, 57, 42
2, 35820, Note_on_c, 0, 61, 42
2, 35879, Note_on_c, 0, 69, 0
2, 35879, Note_on_c, 0, 66, 62
2, 36000, Note_on_c, 0, 66, 0
2, 36000, Note_on_c, 0, 61, 0
2, 36000, Note_on_c, 0, 57, 0
2, 36000, Note_on_c, 0, 45, 0
2, 36000, Note_on_c, 0, 64, 0
2, 36000, Note_on_c, 0, 57, 0
2, 36000, Note_on_c, 0, 52, 0
2, 36000, Note_on_c, 0, 71, 81
2, 36000, Note_on_c, 0, 37, 54
2, 36021, Note_on_c, 0, 44, 54
2, 36042, Note_on_c, 0, 49, 54
2, 36063, Note_on_c, 0, 56, 54
2, 36180, Note_on_c, 0, 73, 52
2, 36180, Note_on_c, 0, 80, 52
2, 36360, Note_on_c, 0, 56, 0
2, 36360, Note_on_c, 0, 49, 0
2, 36360, Note_on_c, 0, 44, 0
2, 36360, Note_on_c, 0, 37, 0
2, 36360, Note_on_c, 0, 45, 83
2, 36381, Note_on_c, 0, 52, 83
2, 36402, Note_on_c, 0, 57, 83
2, 36423, Note_on_c, 0, 64, 83
2, 36540, Note_on_c, 0, 73, 0
2, 36540, Note_on_c, 0, 80, 0
2, 36540, Note_on_c, 0, 61, 49
2, 36540, Note_on_c, 0, 68, 49
2, 36540, Note_on_c, 0, 73, 49
2, 36720, Note_on_c, 0, 57, 0
2, 36720, Note_on_c, 0, 52, 0
2, 36720, Note_on_c, 0, 45, 0
2, 36720, Note_on_c, 0, 64, 0
2, 36720, Note_on_c, 0, 37, 55
2, 36741, Note_on_c, 0, 44, 55
2, 36762, Note_on_c, 0, 49, 55
2, 36783, Note_on_c, 0, 56, 55
2, 36900, Note_on_c, 0, 71, 0
2, 36900, Note_on_c, 0, 68, 0
2, 36900, Note_on_c, 0, 73, 0
2, 36900, Note_on_c, 0, 61, 0
2, 36900, Note_on_c, 0, 68, 71
2, 36900, Note_on_c, 0, 73, 71
2, 36900, Note_on_c, 0, 80, 71
2, 37080, Note_on_c, 0, 37, 0
2, 37080, Note_on_c, 0, 49, 0
2, 37080, Note_on_c, 0, 56, 0
2, 37080, Note_on_c, 0, 44, 0
2, 37080, Note_on_c, 0, 66, 63
2, 37080, Note_on_c, 0, 45, 83
2, 37101, Note_on_c, 0, 52, 83
2, 37122, Note_on_c, 0, 57, 83
2, 37143, Note_on_c, 0, 64, 83
2, 37200, Note_on_c, 0, 66, 0
2, 37200, Note_on_c, 0, 64, 64
2, 37260, Note_on_c, 0, 80, 0
2, 37260, Note_on_c, 0, 73, 0
2, 37260, Note_on_c, 0, 68, 0
2, 37260, Note_on_c, 0, 61, 50
2, 37260, Note_on_c, 0, 68, 50
2, 37260, Note_on_c, 0, 73, 50
2, 37319, Note_on_c, 0, 64, 0
2, 37319, Note_on_c, 0, 63, 63
2, 37440, Note_on_c, 0, 63, 0
2, 37440, Note_on_c, 0, 52, 0
2, 37440, Note_on_c, 0, 64, 0
2, 37440, Note_on_c, 0, 45, 0
2, 37440, Note_on_c, 0, 57, 0
2, 37440, Note_on_c, 0, 63, 79
2, 37440, Note_on_c, 0, 37, 56
2, 37461, Note_on_c, 0, 44, 56
2, 37482, Note_on_c, 0, 49, 56
2, 37503, Note_on_c, 0, 56, 56
2, 37620, Note_on_c, 0, 73, 0
2, 37620, Note_on_c, 0, 61, 0
2, 37620, Note_on_c, 0, 68, 0
2, 37620, Note_on_c, 0, 68, 84
2, 37620, Note_on_c, 0, 73, 84
2, 37620, Note_on_c, 0, 80, 84
2, 37800, Note_on_c, 0, 44, 0
2, 37800, Note_on_c, 0, 56, 0
2, 37800, Note_on_c, 0, 37, 0
2, 37800, Note_on_c, 0, 49, 0
2, 37800, Note_on_c, 0, 37, 57
2, 37800, Note_on_c, 0, 52, 57
2, 37890, Note_on_c, 0, 63, 0
2, 37890, Note_on_c, 0, 64, 75
2, 37937, Note_on_c, 0, 80, 0
2, 37937, Note_on_c, 0, 73, 0
2, 37937, Note_on_c, 0, 68, 0
2, 37980, Note_on_c, 0, 52, 0
2, 37980, Note_on_c, 0, 37, 0
2, 37980, Note_on_c, 0, 64, 0
2, 37980, Note_on_c, 0, 73, 54
2, 37980, Note_on_c, 0, 61, 63
2, 37980, Note_on_c, 0, 39, 62
2, 37980, Note_on_c, 0, 54, 62
2, 38070, Note_on_c, 0, 61, 0
2, 38070, Note_on_c, 0, 62, 72
2, 38160, Note_on_c, 0, 62, 0
2, 38160, Note_on_c, 0, 54, 0
2, 38160, Note_on_c, 0, 39, 0
2, 38160, Note_on_c, 0, 73, 0
2, 38160, Note_on_c, 0, 59, 85
2, 38160, Note_on_c, 0, 63, 85
2, 38160, Note_on_c, 0, 61, 19
2, 38160, Note_on_c, 0, 40, 65
2, 38160, Note_on_c, 0, 55, 65
2, 38340, Note_on_c, 0, 67, 65
2, 38340, Note_on_c, 0, 73, 65
2, 38340, Note_on_c, 0, 79, 65
2, 38477, Note_on_c, 0, 59, 0
2, 38520, Note_on_c, 0, 55, 0
2, 38520, Note_on_c, 0, 40, 0
2, 38520, Note_on_c, 0, 61, 0
2, 38520, Note_on_c, 0, 28, 55
2, 38520, Note_on_c, 0, 40, 55
2, 38610, Note_on_c, 0, 63, 0
2, 38610, Note_on_c, 0, 64, 72
2, 38657, Note_on_c, 0, 79, 0
2, 38657, Note_on_c, 0, 73, 0
2, 38657, Note_on_c, 0, 67, 0
2, 38700, Note_on_c, 0, 40, 0
2, 38700, Note_on_c, 0, 28, 0
2, 38700, Note_on_c, 0, 64, 0
2, 38700, Note_on_c, 0, 70, 48
2, 38700, Note_on_c, 0, 73, 48
2, 38700, Note_on_c, 0, 61, 64
2, 38700, Note_on_c, 0, 58, 24
2, 38700, Note_on_c, 0, 30, 58
2, 38700, Note_on_c, 0, 42, 58
2, 38790, Note_on_c, 0, 61, 0
2, 38790, Note_on_c, 0, 62, 74
2, 38880, Note_on_c, 0, 62, 0
2, 38880, Note_on_c, 0, 42, 0
2, 38880, Note_on_c, 0, 58, 0
2, 38880, Note_on_c, 0, 70, 0
2, 38880, Note_on_c, 0, 73, 0
2, 38880, Note_on_c, 0, 30, 0
2, 38880, Note_on_c, 0, 57, 62
2, 38880, Note_on_c, 0, 52, 22
2, 38880, Note_on_c, 0, 61, 22
2, 38880, Note_on_c, 0, 63, 104
2, 38880, Note_on_c, 0, 31, 64
2, 38880, Note_on_c, 0, 43, 64
2, 39060, Note_on_c, 0, 66, 67
2, 39060, Note_on_c, 0, 73, 67
2, 39060, Note_on_c, 0, 78, 67
2, 39090, Note_on_c, 0, 63, 0
2, 39119, Note_on_c, 0, 64, 88
2, 39240, Note_on_c, 0, 64, 0
2, 39240, Note_on_c, 0, 31, 0
2, 39240, Note_on_c, 0, 43, 0
2, 39240, Note_on_c, 0, 61, 75
2, 39377, Note_on_c, 0, 78, 0
2, 39377, Note_on_c, 0, 73, 0
2, 39377, Note_on_c, 0, 66, 0
2, 39420, Note_on_c, 0, 57, 0
2, 39420, Note_on_c, 0, 68, 51
2, 39420, Note_on_c, 0, 73, 51
2, 39420, Note_on_c, 0, 56, 64
2, 39420, Note_on_c, 0, 32, 55
2, 39420, Note_on_c, 0, 44, 55
2, 39600, Note_on_c, 0, 44, 0
2, 39600, Note_on_c, 0, 32, 0
2, 39600, Note_on_c, 0, 73, 0
2, 39600, Note_on_c, 0, 61, 0
2, 39600, Note_on_c, 0, 52, 0
2, 39600, Note_on_c, 0, 68, 0
2, 39600, Note_on_c, 0, 56, 0
2, 39600, Note_on_c, 0, 55, 93
2, 39600, Note_on_c, 0, 61, 93
2, 39600, Note_on_c, 0, 33, 64
2, 39600, Note_on_c, 0, 45, 64
2, 39780, Note_on_c, 0, 65, 65
2, 39780, Note_on_c, 0, 73, 65
2, 39780, Note_on_c, 0, 77, 65
2, 39960, Note_on_c, 0, 45, 0
2, 39960, Note_on_c, 0, 33, 0
2, 39960, Note_on_c, 0, 61, 0
2, 39960, Note_on_c, 0, 61, 85
2, 40097, Note_on_c, 0, 65, 0
2, 40097, Note_on_c, 0, 77, 0
2, 40097, Note_on_c, 0, 73, 0
2, 40140, Note_on_c, 0, 61, 0
2, 40140, Note_on_c, 0, 73, 49
2, 40140, Note_on_c, 0, 34, 50
2, 40140, Note_on_c, 0, 46, 50
2, 40233, Note_on_c, 0, 55, 0
2, 40233, Note_on_c, 0, 61, 0
2, 40320, Note_on_c, 0, 34, 0
2, 40320, Note_on_c, 0, 73, 0
2, 40320, Note_on_c, 0, 46, 0
2, 40320, Note_on_c, 0, 61, 88
2, 40320, Note_on_c, 0, 50, 75
2, 40320, Note_on_c, 0, 54, 75
2, 40320, Note_on_c, 0, 35, 60
2, 40320, Note_on_c, 0, 47, 60
2, 40500, Note_on_c, 0, 64, 66
2, 40500, Note_on_c, 0, 73, 66
2, 40500, Note_on_c, 0, 76, 66
2, 40680, Note_on_c, 0, 47, 0
2, 40680, Note_on_c, 0, 35, 0
2, 40817, Note_on_c, 0, 64, 0
2, 40817, Note_on_c, 0, 76, 0
2, 40817, Note_on_c, 0, 73, 0
2, 40860, Note_on_c, 0, 50, 0
2, 40860, Note_on_c, 0, 54, 0
2, 40860, Note_on_c, 0, 61, 54
2, 40860, Note_on_c, 0, 73, 54
2, 40860, Note_on_c, 0, 37, 49
2, 40860, Note_on_c, 0, 44, 49
2, 40860, Note_on_c, 0, 52, 49
2, 41040, Note_on_c, 0, 52, 0
2, 41040, Note_on_c, 0, 61, 0
2, 41040, Note_on_c, 0, 73, 0
2, 41040, Note_on_c, 0, 37, 0
2, 41040, Note_on_c, 0, 44, 0
2, 41040, Note_on_c, 0, 38, 58
2, 41040, Note_on_c, 0, 45, 58
2, 41040, Note_on_c, 0, 53, 58
2, 41220, Note_on_c, 0, 53, 0
2, 41220, Note_on_c, 0, 45, 0
2, 41220, Note_on_c, 0, 38, 0
2, 41220, Note_on_c, 0, 62, 57
2, 41220, Note_on_c, 0, 73, 57
2, 41220, Note_on_c, 0, 74, 57
2, 41220, Note_on_c, 0, 39, 62
2, 41220, Note_on_c, 0, 45, 62
2, 41220, Note_on_c, 0, 54, 62
2, 41400, Note_on_c, 0, 54, 0
2, 41400, Note_on_c, 0, 39, 0
2, 41400, Note_on_c, 0, 45, 0
2, 41400, Note_on_c, 0, 40, 65
2, 41400, Note_on_c, 0, 47, 65
2, 41400, Note_on_c, 0, 55, 65
2, 41580, Note_on_c, 0, 55, 0
2, 41580, Note_on_c, 0, 40, 0
2, 41580, Note_on_c, 0, 62, 0
2, 41580, Note_on_c, 0, 74, 0
2, 41580, Note_on_c, 0, 73, 0
2, 41580, Note_on_c, 0, 47, 0
2, 41580, Note_on_c, 0, 61, 56
2, 41580, Note_on_c, 0, 73, 56
2, 41580, Note_on_c, 0, 41, 64
2, 41580, Note_on_c, 0, 48, 64
2, 41580, Note_on_c, 0, 56, 64
2, 41587, Note_on_c, 0, 61, 0
2, 41760, Note_on_c, 0, 73, 0
2, 41760, Note_on_c, 0, 41, 0
2, 41760, Note_on_c, 0, 61, 0
2, 41760, Note_on_c, 0, 56, 0
2, 41760, Note_on_c, 0, 48, 0
2, 41760, Note_on_c, 0, 73, 82
2, 41760, Note_on_c, 0, 66, 108
2, 41760, Note_on_c, 0, 42, 64
2, 41760, Note_on_c, 0, 49, 64
2, 41760, Note_on_c, 0, 57, 64
2, 41940, Note_on_c, 0, 57, 0
2, 41940, Note_on_c, 0, 42, 0
2, 41940, Note_on_c, 0, 49, 0
2, 42179, Note_on_c, 0, 66, 0
2, 42179, Note_on_c, 0, 73, 0
2, 42179, Note_on_c, 0, 70, 64
2, 42179, Note_on_c, 0, 75, 64
2, 42179, Note_on_c, 0, 67, 78
2, 42240, Note_on_c, 0, 67, 0
2, 42240, Note_on_c, 0, 75, 0
2, 42240, Note_on_c, 0, 70, 0
2, 42240, Note_on_c, 0, 69, 61
2, 42240, Note_on_c, 0, 74, 61
2, 42240, Note_on_c, 0, 66, 67
2, 42300, Note_on_c, 0, 66, 0
2, 42300, Note_on_c, 0, 74, 0
2, 42300, Note_on_c, 0, 69, 0
2, 42300, Note_on_c, 0, 68, 64
2, 42300, Note_on_c, 0, 73, 64
2, 42300, Note_on_c, 0, 65, 72
2, 42359, Note_on_c, 0, 65, 0
2, 42359, Note_on_c, 0, 73, 0
2, 42359, Note_on_c, 0, 68, 0
2, 42359, Note_on_c, 0, 69, 58
2, 42359, Note_on_c, 0, 72, 58
2, 42359, Note_on_c, 0, 64, 68
2, 42420, Note_on_c, 0, 64, 0
2, 42420, Note_on_c, 0, 72, 0
2, 42420, Note_on_c, 0, 69, 0
2, 42420, Note_on_c, 0, 70, 65
2, 42420, Note_on_c, 0, 74, 65
2, 42420, Note_on_c, 0, 65, 71
2, 42480, Note_on_c, 0, 65, 0
2, 42480, Note_on_c, 0, 74, 0
2, 42480, Note_on_c, 0, 70, 0
2, 42480, Note_on_c, 0, 69, 87
2, 42480, Note_on_c, 0, 73, 87
2, 42480, Note_on_c, 0, 66, 103
2, 42660, Note_on_c, 0, 66, 0
2, 42660, Note_on_c, 0, 73, 0
2, 42660, Note_on_c, 0, 69, 0
2, 42660, Note_on_c, 0, 70, 63
2, 42660, Note_on_c, 0, 75, 63
2, 42660, Note_on_c, 0, 67, 72
2, 42695, Note_on_c, 0, 67, 0
2, 42695, Note_on_c, 0, 75, 0
2, 42695, Note_on_c, 0, 70, 0
2, 42695, Note_on_c, 0, 69, 59
2, 42695, Note_on_c, 0, 74, 59
2, 42695, Note_on_c, 0, 66, 67
2, 42732, Note_on_c, 0, 66, 0
2, 42732, Note_on_c, 0, 74, 0
2, 42732, Note_on_c, 0, 69, 0
2, 42732, Note_on_c, 0, 68, 55
2, 42732, Note_on_c, 0, 73, 55
2, 42732, Note_on_c, 0, 65, 67
2, 42767, Note_on_c, 0, 65, 0
2, 42767, Note_on_c, 0, 73, 0
2, 42767, Note_on_c, 0, 68, 0
2, 42767, Note_on_c, 0, 69, 52
2, 42767, Note_on_c, 0, 72, 52
2, 42767, Note_on_c, 0, 64, 66
2, 42804, Note_on_c, 0, 64, 0
2, 42804, Note_on_c, 0, 72, 0
2, 42804, Note_on_c, 0, 69, 0
2, 42804, Note_on_c, 0, 70, 63
2, 42804, Note_on_c, 0, 74, 63
2, 42804, Note_on_c, 0, 65, 77
2, 42840, Note_on_c, 0, 65, 0
2, 42840, Note_on_c, 0, 74, 0
2, 42840, Note_on_c, 0, 70, 0
2, 42840, Note_on_c, 0, 69, 79
2, 42840, Note_on_c, 0, 73, 79
2, 42840, Note_on_c, 0, 66, 97
2, 43020, Note_on_c, 0, 66, 0
2, 43020, Note_on_c, 0, 73, 0
2, 43020, Note_on_c, 0, 69, 0
2, 43020, Note_on_c, 0, 70, 61
2, 43020, Note_on_c, 0, 75, 61
2, 43020, Note_on_c, 0, 67, 69
2, 43055, Note_on_c, 0, 67, 0
2, 43055, Note_on_c, 0, 75, 0
2, 43055, Note_on_c, 0, 70, 0
2, 43055, Note_on_c, 0, 69, 60
2, 43055, Note_on_c, 0, 74, 60
2, 43055, Note_on_c, 0, 66, 66
2, 43092, Note_on_c, 0, 66, 0
2, 43092, Note_on_c, 0, 74, 0
2, 43092, Note_on_c, 0, 69, 0
2, 43092, Note_on_c, 0, 68, 58
2, 43092, Note_on_c, 0, 73, 58
2, 43092, Note_on_c, 0, 65, 64
2, 43127, Note_on_c, 0, 65, 0
2, 43127, Note_on_c, 0, 73, 0
2, 43127, Note_on_c, 0, 68, 0
2, 43127, Note_on_c, 0, 69, 61
2, 43127, Note_on_c, 0, 72, 61
2, 43127, Note_on_c, 0, 64, 69
2, 43164, Note_on_c, 0, 64, 0
2, 43164, Note_on_c, 0, 72, 0
2, 43164, Note_on_c, 0, 69, 0
2, 43164, Note_on_c, 0, 70, 61
2, 43164, Note_on_c, 0, 74, 61
2, 43164, Note_on_c, 0, 65, 73
2, 43200, Note_on_c, 0, 65, 0
2, 43200, Note_on_c, 0, 74, 0
2, 43200, Note_on_c, 0, 70, 0
2, 43200, Note_on_c, 0, 66, 81
2, 43200, Note_on_c, 0, 69, 81
2, 43200, Note_on_c, 0, 73, 81
2, 43380, Note_on_c, 0, 61, 60
2, 43439, Note_on_c, 0, 61, 0
2, 43439, Note_on_c, 0, 62, 67
2, 43500, Note_on_c, 0, 62, 0
2, 43500, Note_on_c, 0, 63, 79
2, 43560, Note_on_c, 0, 63, 0
2, 43560, Note_on_c, 0, 64, 97
2, 43560, Note_on_c, 0, 57, 97
2, 43920, Note_on_c, 0, 50, 91
2, 44280, Note_on_c, 0, 50, 0
2, 44280, Note_on_c, 0, 64, 0
2, 44280, Note_on_c, 0, 57, 0
2, 44280, Note_on_c, 0, 63, 78
2, 44280, Note_on_c, 0, 42, 76
2, 44280, Note_on_c, 0, 45, 76
2, 44280, Note_on_c, 0, 49, 76
2, 44280, Note_on_c, 0, 51, 76
2, 44640, Note_on_c, 0, 51, 0
2, 44640, Note_on_c, 0, 69, 0
2, 44640, Note_on_c, 0, 42, 0
2, 44640, Note_on_c, 0, 66, 0
2, 44640, Note_on_c, 0, 73, 0
2, 44640, Note_on_c, 0, 63, 0
2, 44640, Note_on_c, 0, 45, 0
2, 44640, Note_on_c, 0, 49, 0
2, 44640, Note_on_c, 0, 64, 60
2, 44640, Note_on_c, 0, 68, 60
2, 44640, Note_on_c, 0, 73, 60
2, 44640, Note_on_c, 0, 61, 58
2, 44640, Note_on_c, 0, 37, 58
2, 44661, Note_on_c, 0, 44, 58
2, 44682, Note_on_c, 0, 49, 58
2, 44703, Note_on_c, 0, 56, 58
2, 44820, Note_on_c, 0, 61, 0
2, 44820, Note_on_c, 0, 73, 0
2, 44820, Note_on_c, 0, 64, 0
2, 44820, Note_on_c, 0, 68, 0
2, 44820, Note_on_c, 0, 68, 83
2, 44820, Note_on_c, 0, 73, 83
2, 44820, Note_on_c, 0, 80, 83
2, 45000, Note_on_c, 0, 37, 0
2, 45000, Note_on_c, 0, 49, 0
2, 45000, Note_on_c, 0, 56, 0
2, 45000, Note_on_c, 0, 44, 0
2, 45000, Note_on_c, 0, 45, 83
2, 45021, Note_on_c, 0, 52, 83
2, 45042, Note_on_c, 0, 57, 83
2, 45063, Note_on_c, 0, 64, 83
2, 45137, Note_on_c, 0, 80, 0
2, 45137, Note_on_c, 0, 73, 0
2, 45137, Note_on_c, 0, 68, 0
2, 45180, Note_on_c, 0, 61, 49
2, 45180, Note_on_c, 0, 68, 49
2, 45180, Note_on_c, 0, 73, 49
2, 45360, Note_on_c, 0, 52, 0
2, 45360, Note_on_c, 0, 64, 0
2, 45360, Note_on_c, 0, 45, 0
2, 45360, Note_on_c, 0, 57, 0
2, 45360, Note_on_c, 0, 37, 60
2, 45381, Note_on_c, 0, 44, 60
2, 45402, Note_on_c, 0, 49, 60
2, 45423, Note_on_c, 0, 56, 60
2, 45540, Note_on_c, 0, 73, 0
2, 45540, Note_on_c, 0, 68, 0
2, 45540, Note_on_c, 0, 61, 0
2, 45540, Note_on_c, 0, 68, 81
2, 45540, Note_on_c, 0, 73, 81
2, 45540, Note_on_c, 0, 80, 81
2, 45720, Note_on_c, 0, 44, 0
2, 45720, Note_on_c, 0, 56, 0
2, 45720, Note_on_c, 0, 37, 0
2, 45720, Note_on_c, 0, 49, 0
2, 45720, Note_on_c, 0, 45, 86
2, 45741, Note_on_c, 0, 52, 86
2, 45762, Note_on_c, 0, 57, 86
2, 45783, Note_on_c, 0, 64, 86
2, 45840, Note_on_c, 0, 57, 55
2, 45857, Note_on_c, 0, 80, 0
2, 45857, Note_on_c, 0, 73, 0
2, 45857, Note_on_c, 0, 68, 0
2, 45900, Note_on_c, 0, 61, 45
2, 45900, Note_on_c, 0, 68, 45
2, 45900, Note_on_c, 0, 73, 45
2, 45959, Note_on_c, 0, 57, 0
2, 45959, Note_on_c, 0, 56, 58
2, 46080, Note_on_c, 0, 56, 0
2, 46080, Note_on_c, 0, 45, 0
2, 46080, Note_on_c, 0, 61, 0
2, 46080, Note_on_c, 0, 64, 0
2, 46080, Note_on_c, 0, 52, 0
2, 46080, Note_on_c, 0, 73, 0
2, 46080, Note_on_c, 0, 68, 0
2, 46080, Note_on_c, 0, 57, 0
2, 46080, Note_on_c, 0, 55, 58
2, 46080, Note_on_c, 0, 49, 57
2, 46080, Note_on_c, 0, 53, 57
2, 46080, Note_on_c, 0, 34, 68
2, 46080, Note_on_c, 0, 37, 68
2, 46080, Note_on_c, 0, 41, 68
2, 46080, Note_on_c, 0, 46, 68
2, 46397, Note_on_c, 0, 55, 0
2, 46440, Note_on_c, 0, 57, 72
2, 46502, Note_on_c, 0, 57, 0
2, 46512, Note_on_c, 0, 56, 72
2, 46574, Note_on_c, 0, 56, 0
2, 46584, Note_on_c, 0, 55, 74
2, 46646, Note_on_c, 0, 55, 0
2, 46655, Note_on_c, 0, 54, 68
2, 46717, Note_on_c, 0, 54, 0
2, 46727, Note_on_c, 0, 56, 74
2, 46790, Note_on_c, 0, 56, 0
2, 46800, Note_on_c, 0, 55, 76
2, 47280, Note_on_c, 0, 55, 0
2, 47280, Note_on_c, 0, 54, 59
2, 47347, Note_on_c, 0, 41, 0
2, 47347, Note_on_c, 0, 37, 0
2, 47347, Note_on_c, 0, 34, 0
2, 47347, Note_on_c, 0, 46, 0
2, 47399, Note_on_c, 0, 54, 0
2, 47399, Note_on_c, 0, 55, 61
2, 47520, Note_on_c, 0, 55, 0
2, 47520, Note_on_c, 0, 53, 0
2, 47520, Note_on_c, 0, 49, 0
2, 47520, Note_on_c, 0, 52, 59
2, 47520, Note_on_c, 0, 56, 59
2, 47520, Note_on_c, 0, 37, 67
2, 47541, Note_on_c, 0, 44, 67
2, 47562, Note_on_c, 0, 49, 67
2, 47700, Note_on_c, 0, 56, 0
2, 47700, Note_on_c, 0, 52, 0
2, 47700, Note_on_c, 0, 68, 93
2, 47700, Note_on_c, 0, 73, 93
2, 47700, Note_on_c, 0, 80, 93
2, 47880, Note_on_c, 0, 44, 0
2, 47880, Note_on_c, 0, 49, 0
2, 47880, Note_on_c, 0, 37, 0
2, 47880, Note_on_c, 0, 45, 87
2, 47901, Note_on_c, 0, 52, 87
2, 47922, Note_on_c, 0, 57, 87
2, 47943, Note_on_c, 0, 64, 87
2, 48017, Note_on_c, 0, 68, 0
2, 48017, Note_on_c, 0, 80, 0
2, 48017, Note_on_c, 0, 73, 0
2, 48060, Note_on_c, 0, 61, 53
2, 48060, Note_on_c, 0, 68, 53
2, 48060, Note_on_c, 0, 73, 53
2, 48240, Note_on_c, 0, 52, 0
2, 48240, Note_on_c, 0, 64, 0
2, 48240, Note_on_c, 0, 45, 0
2, 48240, Note_on_c, 0, 57, 0
2, 48240, Note_on_c, 0, 37, 54
2, 48261, Note_on_c, 0, 44, 54
2, 48282, Note_on_c, 0, 49, 54
2, 48303, Note_on_c, 0, 56, 54
2, 48420, Note_on_c, 0, 73, 0
2, 48420, Note_on_c, 0, 68, 0
2, 48420, Note_on_c, 0, 61, 0
2, 48420, Note_on_c, 0, 68, 82
2, 48420, Note_on_c, 0, 73, 82
2, 48420, Note_on_c, 0, 80, 82
2, 48600, Note_on_c, 0, 44, 0
2, 48600, Note_on_c, 0, 56, 0
2, 48600, Note_on_c, 0, 37, 0
2, 48600, Note_on_c, 0, 49, 0
2, 48600, Note_on_c, 0, 45, 81
2, 48621, Note_on_c, 0, 52, 81
2, 48642, Note_on_c, 0, 57, 81
2, 48663, Note_on_c, 0, 64, 81
2, 48720, Note_on_c, 0, 56, 25
2, 48737, Note_on_c, 0, 80, 0
2, 48737, Note_on_c, 0, 73, 0
2, 48737, Note_on_c, 0, 68, 0
2, 48780, Note_on_c, 0, 61, 49
2, 48780, Note_on_c, 0, 68, 49
2, 48780, Note_on_c, 0, 73, 49
2, 48839, Note_on_c, 0, 56, 0
2, 48839, Note_on_c, 0, 57, 26
2, 48960, Note_on_c, 0, 57, 0
2, 48960, Note_on_c, 0, 57, 0
2, 48960, Note_on_c, 0, 61, 0
2, 48960, Note_on_c, 0, 64, 0
2, 48960, Note_on_c, 0, 52, 0
2, 48960, Note_on_c, 0, 73, 0
2, 48960, Note_on_c, 0, 68, 0
2, 48960, Note_on_c, 0, 45, 0
2, 48960, Note_on_c, 0, 65, 103
2, 48960, Note_on_c, 0, 69, 103
2, 48960, Note_on_c, 0, 62, 55
2, 48960, Note_on_c, 0, 59, 118
2, 49379, Note_on_c, 0, 62, 0
2, 49379, Note_on_c, 0, 65, 0
2, 49379, Note_on_c, 0, 69, 0
2, 49379, Note_on_c, 0, 64, 103
2, 49379, Note_on_c, 0, 70, 103
2, 49379, Note_on_c, 0, 61, 60
2, 49440, Note_on_c, 0, 61, 0
2, 49440, Note_on_c, 0, 70, 0
2, 49440, Note_on_c, 0, 64, 0
2, 49440, Note_on_c, 0, 65, 85
2, 49440, Note_on_c, 0, 69, 85
2, 49440, Note_on_c, 0, 62, 48
2, 49500, Note_on_c, 0, 62, 0
2, 49500, Note_on_c, 0, 69, 0
2, 49500, Note_on_c, 0, 65, 0
2, 49500, Note_on_c, 0, 68, 83
2, 49500, Note_on_c, 0, 64, 46
2, 49559, Note_on_c, 0, 64, 0
2, 49559, Note_on_c, 0, 68, 0
2, 49559, Note_on_c, 0, 65, 82
2, 49559, Note_on_c, 0, 69, 82
2, 49559, Note_on_c, 0, 62, 45
2, 49620, Note_on_c, 0, 62, 0
2, 49620, Note_on_c, 0, 69, 0
2, 49620, Note_on_c, 0, 65, 0
2, 49620, Note_on_c, 0, 64, 81
2, 49620, Note_on_c, 0, 71, 81
2, 49620, Note_on_c, 0, 61, 44
2, 49680, Note_on_c, 0, 61, 0
2, 49680, Note_on_c, 0, 71, 0
2, 49680, Note_on_c, 0, 64, 0
2, 49680, Note_on_c, 0, 65, 79
2, 49680, Note_on_c, 0, 69, 79
2, 49680, Note_on_c, 0, 62, 43
2, 49739, Note_on_c, 0, 62, 0
2, 49739, Note_on_c, 0, 69, 0
2, 49739, Note_on_c, 0, 65, 0
2, 49739, Note_on_c, 0, 64, 78
2, 49739, Note_on_c, 0, 70, 78
2, 49739, Note_on_c, 0, 61, 41
2, 49800, Note_on_c, 0, 61, 0
2, 49800, Note_on_c, 0, 70, 0
2, 49800, Note_on_c, 0, 64, 0
2, 49800, Note_on_c, 0, 65, 77
2, 49800, Note_on_c, 0, 69, 77
2, 49800, Note_on_c, 0, 62, 40
2, 49860, Note_on_c, 0, 62, 0
2, 49860, Note_on_c, 0, 69, 0
2, 49860, Note_on_c, 0, 65, 0
2, 49860, Note_on_c, 0, 68, 76
2, 49860, Note_on_c, 0, 64, 39
2, 49919, Note_on_c, 0, 64, 0
2, 49919, Note_on_c, 0, 68, 0
2, 49919, Note_on_c, 0, 65, 74
2, 49919, Note_on_c, 0, 69, 74
2, 49919, Note_on_c, 0, 62, 38
2, 49980, Note_on_c, 0, 62, 0
2, 49980, Note_on_c, 0, 69, 0
2, 49980, Note_on_c, 0, 65, 0
2, 49980, Note_on_c, 0, 64, 73
2, 49980, Note_on_c, 0, 71, 73
2, 49980, Note_on_c, 0, 61, 36
2, 50040, Note_on_c, 0, 61, 0
2, 50040, Note_on_c, 0, 59, 0
2, 50040, Note_on_c, 0, 64, 0
2, 50040, Note_on_c, 0, 71, 0
2, 50040, Note_on_c, 0, 61, 58
2, 50040, Note_on_c, 0, 64, 58
2, 50040, Note_on_c, 0, 68, 58
2, 50040, Note_on_c, 0, 37, 59
2, 50061, Note_on_c, 0, 44, 59
2, 50082, Note_on_c, 0, 49, 59
2, 50103, Note_on_c, 0, 56, 59
2, 50220, Note_on_c, 0, 68, 0
2, 50220, Note_on_c, 0, 61, 0
2, 50220, Note_on_c, 0, 64, 0
2, 50220, Note_on_c, 0, 68, 94
2, 50220, Note_on_c, 0, 73, 94
2, 50220, Note_on_c, 0, 80, 94
2, 50400, Note_on_c, 0, 44, 0
2, 50400, Note_on_c, 0, 56, 0
2, 50400, Note_on_c, 0, 37, 0
2, 50400, Note_on_c, 0, 49, 0
2, 50400, Note_on_c, 0, 45, 84
2, 50421, Note_on_c, 0, 52, 84
2, 50442, Note_on_c, 0, 57, 84
2, 50463, Note_on_c, 0, 64, 84
2, 50537, Note_on_c, 0, 80, 0
2, 50537, Note_on_c, 0, 73, 0
2, 50537, Note_on_c, 0, 68, 0
2, 50580, Note_on_c, 0, 61, 57
2, 50580, Note_on_c, 0, 68, 57
2, 50580, Note_on_c, 0, 73, 57
2, 50760, Note_on_c, 0, 52, 0
2, 50760, Note_on_c, 0, 64, 0
2, 50760, Note_on_c, 0, 45, 0
2, 50760, Note_on_c, 0, 57, 0
2, 50760, Note_on_c, 0, 37, 58
2, 50781, Note_on_c, 0, 44, 58
2, 50802, Note_on_c, 0, 49, 58
2, 50823, Note_on_c, 0, 56, 58
2, 50940, Note_on_c, 0, 73, 0
2, 50940, Note_on_c, 0, 68, 0
2, 50940, Note_on_c, 0, 61, 0
2, 50940, Note_on_c, 0, 68, 86
2, 50940, Note_on_c, 0, 73, 86
2, 50940, Note_on_c, 0, 80, 86
2, 51098, Note_on_c, 0, 80, 0
2, 51098, Note_on_c, 0, 68, 0
2, 51098, Note_on_c, 0, 73, 0
2, 51120, Note_on_c, 0, 56, 0
2, 51120, Note_on_c, 0, 37, 0
2, 51120, Note_on_c, 0, 49, 0
2, 51120, Note_on_c, 0, 44, 0
2, 51120, Note_on_c, 0, 68, 106
2, 51120, Note_on_c, 0, 72, 106
2, 51120, Note_on_c, 0, 65, 28
2, 51120, Note_on_c, 0, 62, 127
2, 51539, Note_on_c, 0, 65, 0
2, 51539, Note_on_c, 0, 68, 0
2, 51539, Note_on_c, 0, 72, 0
2, 51539, Note_on_c, 0, 69, 97
2, 51539, Note_on_c, 0, 74, 97
2, 51539, Note_on_c, 0, 66, 35
2, 51600, Note_on_c, 0, 66, 0
2, 51600, Note_on_c, 0, 74, 0
2, 51600, Note_on_c, 0, 69, 0
2, 51600, Note_on_c, 0, 68, 96
2, 51600, Note_on_c, 0, 73, 96
2, 51600, Note_on_c, 0, 65, 34
2, 51660, Note_on_c, 0, 65, 0
2, 51660, Note_on_c, 0, 73, 0
2, 51660, Note_on_c, 0, 68, 0
2, 51660, Note_on_c, 0, 69, 95
2, 51660, Note_on_c, 0, 72, 95
2, 51660, Note_on_c, 0, 64, 33
2, 51719, Note_on_c, 0, 64, 0
2, 51719, Note_on_c, 0, 72, 0
2, 51719, Note_on_c, 0, 69, 0
2, 51719, Note_on_c, 0, 68, 94
2, 51719, Note_on_c, 0, 71, 94
2, 51719, Note_on_c, 0, 65, 32
2, 51780, Note_on_c, 0, 65, 0
2, 51780, Note_on_c, 0, 71, 0
2, 51780, Note_on_c, 0, 68, 0
2, 51780, Note_on_c, 0, 67, 93
2, 51780, Note_on_c, 0, 73, 93
2, 51780, Note_on_c, 0, 64, 30
2, 51840, Note_on_c, 0, 64, 0
2, 51840, Note_on_c, 0, 73, 0
2, 51840, Note_on_c, 0, 67, 0
2, 51840, Note_on_c, 0, 68, 91
2, 51840, Note_on_c, 0, 72, 91
2, 51840, Note_on_c, 0, 65, 29
2, 51899, Note_on_c, 0, 65, 0
2, 51899, Note_on_c, 0, 72, 0
2, 51899, Note_on_c, 0, 68, 0
2, 51899, Note_on_c, 0, 69, 90
2, 51899, Note_on_c, 0, 74, 90
2, 51899, Note_on_c, 0, 66, 28
2, 51960, Note_on_c, 0, 66, 0
2, 51960, Note_on_c, 0, 74, 0
2, 51960, Note_on_c, 0, 69, 0
2, 51960, Note_on_c, 0, 68, 89
2, 51960, Note_on_c, 0, 73, 89
2, 51960, Note_on_c, 0, 65, 27
2, 52020, Note_on_c, 0, 65, 0
2, 52020, Note_on_c, 0, 73, 0
2, 52020, Note_on_c, 0, 68, 0
2, 52020, Note_on_c, 0, 69, 88
2, 52020, Note_on_c, 0, 72, 88
2, 52020, Note_on_c, 0, 64, 26
2, 52079, Note_on_c, 0, 64, 0
2, 52079, Note_on_c, 0, 62, 0
2, 52079, Note_on_c, 0, 69, 0
2, 52079, Note_on_c, 0, 72, 0
2, 52079, Note_on_c, 0, 68, 87
2, 52079, Note_on_c, 0, 71, 87
2, 52079, Note_on_c, 0, 65, 25
2, 52079, Note_on_c, 0, 63, 107
2, 52140, Note_on_c, 0, 65, 0
2, 52140, Note_on_c, 0, 68, 0
2, 52140, Note_on_c, 0, 71, 0
2, 52140, Note_on_c, 0, 69, 86
2, 52140, Note_on_c, 0, 72, 86
2, 52140, Note_on_c, 0, 64, 23
2, 52200, Note_on_c, 0, 64, 0
2, 52200, Note_on_c, 0, 63, 0
2, 52200, Note_on_c, 0, 69, 0
2, 52200, Note_on_c, 0, 72, 0
2, 52200, Note_on_c, 0, 64, 126
2, 52200, Note_on_c, 0, 68, 126
2, 52200, Note_on_c, 0, 73, 126
2, 52200, Note_on_c, 0, 37, 113
2, 52200, Note_on_c, 0, 44, 113
2, 52200, Note_on_c, 0, 49, 113
2, 52200, Note_on_c, 0, 56, 113
2, 52380, Note_on_c, 0, 73, 0
2, 52380, Note_on_c, 0, 64, 0
2, 52380, Note_on_c, 0, 68, 0
2, 52380, Note_on_c, 0, 68, 113
2, 52380, Note_on_c, 0, 73, 113
2, 52380, Note_on_c, 0, 80, 113
2, 52380, Note_on_c, 0, 56, 104
2, 52380, Note_on_c, 0, 61, 104
2, 52380, Note_on_c, 0, 64, 104
2, 52697, Note_on_c, 0, 80, 0
2, 52697, Note_on_c, 0, 73, 0
2, 52697, Note_on_c, 0, 68, 0
2, 52740, Note_on_c, 0, 64, 0
2, 52740, Note_on_c, 0, 56, 0
2, 52740, Note_on_c, 0, 61, 0
2, 52740, Note_on_c, 0, 73, 91
2, 52740, Note_on_c, 0, 61, 100
2, 52920, Note_on_c, 0, 61, 0
2, 52920, Note_on_c, 0, 56, 0
2, 52920, Note_on_c, 0, 49, 0
2, 52920, Note_on_c, 0, 37, 0
2, 52920, Note_on_c, 0, 73, 0
2, 52920, Note_on_c, 0, 44, 0
2, 52920, Note_on_c, 0, 57, 127
2, 52920, Note_on_c, 0, 69, 127
2, 52920, Note_on_c, 0, 25, 126
2, 52920, Note_on_c, 0, 37, 126
2, 53100, Note_on_c, 0, 76, 117
2, 53100, Note_on_c, 0, 80, 117
2, 53100, Note_on_c, 0, 84, 117
2, 53100, Note_on_c, 0, 88, 117
2, 53100, Note_on_c, 0, 60, 115
2, 53100, Note_on_c, 0, 64, 115
2, 53100, Note_on_c, 0, 68, 115
2, 53417, Note_on_c, 0, 68, 0
2, 53417, Note_on_c, 0, 88, 0
2, 53417, Note_on_c, 0, 64, 0
2, 53417, Note_on_c, 0, 84, 0
2, 53417, Note_on_c, 0, 60, 0
2, 53417, Note_on_c, 0, 76, 0
2, 53417, Note_on_c, 0, 80, 0
2, 53460, Note_on_c, 0, 66, 82
2, 53460, Note_on_c, 0, 72, 82
2, 53460, Note_on_c, 0, 75, 82
2, 53460, Note_on_c, 0, 78, 82
2, 53460, Note_on_c, 0, 57, 96
2, 53460, Note_on_c, 0, 63, 96
2, 53640, Note_on_c, 0, 63, 0
2, 53640, Note_on_c, 0, 25, 0
2, 53640, Note_on_c, 0, 78, 0
2, 53640, Note_on_c, 0, 37, 0
2, 53640, Note_on_c, 0, 66, 0
2, 53640, Note_on_c, 0, 57, 0
2, 53640, Note_on_c, 0, 75, 0
2, 53640, Note_on_c, 0, 72, 0
2, 53640, Note_on_c, 0, 32, 117
2, 53640, Note_on_c, 0, 44, 117
2, 53820, Note_on_c, 0, 75, 115
2, 53820, Note_on_c, 0, 78, 115
2, 53820, Note_on_c, 0, 84, 115
2, 53820, Note_on_c, 0, 87, 115
2, 53820, Note_on_c, 0, 60, 117
2, 53820, Note_on_c, 0, 63, 117
2, 53820, Note_on_c, 0, 66, 117
2, 54000, Note_on_c, 0, 57, 0
2, 54000, Note_on_c, 0, 69, 0
2, 54137, Note_on_c, 0, 75, 0
2, 54137, Note_on_c, 0, 87, 0
2, 54137, Note_on_c, 0, 63, 0
2, 54137, Note_on_c, 0, 78, 0
2, 54137, Note_on_c, 0, 60, 0
2, 54137, Note_on_c, 0, 66, 0
2, 54137, Note_on_c, 0, 84, 0
2, 54180, Note_on_c, 0, 64, 84
2, 54180, Note_on_c, 0, 68, 84
2, 54180, Note_on_c, 0, 73, 84
2, 54180, Note_on_c, 0, 76, 84
2, 54180, Note_on_c, 0, 52, 90
2, 54180, Note_on_c, 0, 56, 90
2, 54180, Note_on_c, 0, 61, 90
2, 54360, Note_on_c, 0, 61, 0
2, 54360, Note_on_c, 0, 68, 0
2, 54360, Note_on_c, 0, 32, 0
2, 54360, Note_on_c, 0, 73, 0
2, 54360, Note_on_c, 0, 44, 0
2, 54360, Note_on_c, 0, 64, 0
2, 54360, Note_on_c, 0, 52, 0
2, 54360, Note_on_c, 0, 76, 0
2, 54360, Note_on_c, 0, 56, 0
2, 54360, Note_on_c, 0, 53, 120
2, 54360, Note_on_c, 0, 65, 120
2, 54360, Note_on_c, 0, 25, 127
2, 54360, Note_on_c, 0, 37, 127
2, 54540, Note_on_c, 0, 73, 110
2, 54540, Note_on_c, 0, 76, 110
2, 54540, Note_on_c, 0, 85, 110
2, 54540, Note_on_c, 0, 57, 114
2, 54540, Note_on_c, 0, 61, 114
2, 54540, Note_on_c, 0, 64, 114
2, 54857, Note_on_c, 0, 64, 0
2, 54857, Note_on_c, 0, 61, 0
2, 54857, Note_on_c, 0, 85, 0
2, 54857, Note_on_c, 0, 57, 0
2, 54857, Note_on_c, 0, 73, 0
2, 54857, Note_on_c, 0, 76, 0
2, 54900, Note_on_c, 0, 62, 86
2, 54900, Note_on_c, 0, 71, 86
2, 54900, Note_on_c, 0, 74, 86
2, 54900, Note_on_c, 0, 53, 103
2, 54900, Note_on_c, 0, 56, 103
2, 54900, Note_on_c, 0, 59, 103
2, 55080, Note_on_c, 0, 59, 0
2, 55080, Note_on_c, 0, 25, 0
2, 55080, Note_on_c, 0, 56, 0
2, 55080, Note_on_c, 0, 37, 0
2, 55080, Note_on_c, 0, 62, 0
2, 55080, Note_on_c, 0, 53, 0
2, 55080, Note_on_c, 0, 74, 0
2, 55080, Note_on_c, 0, 71, 0
2, 55080, Note_on_c, 0, 28, 120
2, 55080, Note_on_c, 0, 40, 120
2, 55260, Note_on_c, 0, 71, 115
2, 55260, Note_on_c, 0, 74, 115
2, 55260, Note_on_c, 0, 83, 115
2, 55260, Note_on_c, 0, 53, 112
2, 55260, Note_on_c, 0, 59, 112
2, 55260, Note_on_c, 0, 62, 112
2, 55440, Note_on_c, 0, 53, 0
2, 55440, Note_on_c, 0, 65, 0
2, 55577, Note_on_c, 0, 53, 0
2, 55577, Note_on_c, 0, 71, 0
2, 55577, Note_on_c, 0, 74, 0
2, 55577, Note_on_c, 0, 59, 0
2, 55577, Note_on_c, 0, 62, 0
2, 55577, Note_on_c, 0, 83, 0
2, 55620, Note_on_c, 0, 61, 84
2, 55620, Note_on_c, 0, 69, 84
2, 55620, Note_on_c, 0, 73, 84
2, 55620, Note_on_c, 0, 52, 104
2, 55620, Note_on_c, 0, 57, 104
2, 55800, Note_on_c, 0, 57, 0
2, 55800, Note_on_c, 0, 73, 0
2, 55800, Note_on_c, 0, 40, 0
2, 55800, Note_on_c, 0, 61, 0
2, 55800, Note_on_c, 0, 28, 0
2, 55800, Note_on_c, 0, 52, 0
2, 55800, Note_on_c, 0, 69, 0
2, 55800, Note_on_c, 0, 50, 126
2, 55800, Note_on_c, 0, 62, 126
2, 55800, Note_on_c, 0, 25, 108
2, 55800, Note_on_c, 0, 37, 108
2, 55980, Note_on_c, 0, 69, 112
2, 55980, Note_on_c, 0, 73, 112
2, 55980, Note_on_c, 0, 81, 112
2, 55980, Note_on_c, 0, 57, 113
2, 55980, Note_on_c, 0, 61, 113
2, 56297, Note_on_c, 0, 61, 0
2, 56297, Note_on_c, 0, 57, 0
2, 56297, Note_on_c, 0, 81, 0
2, 56297, Note_on_c, 0, 69, 0
2, 56297, Note_on_c, 0, 73, 0
2, 56340, Note_on_c, 0, 50, 0
2, 56340, Note_on_c, 0, 62, 0
2, 56340, Note_on_c, 0, 59, 87
2, 56340, Note_on_c, 0, 68, 87
2, 56340, Note_on_c, 0, 71, 87
2, 56340, Note_on_c, 0, 61, 127
2, 56340, Note_on_c, 0, 49, 102
2, 56340, Note_on_c, 0, 56, 102
2, 56520, Note_on_c, 0, 56, 0
2, 56520, Note_on_c, 0, 37, 0
2, 56520, Note_on_c, 0, 71, 0
2, 56520, Note_on_c, 0, 25, 0
2, 56520, Note_on_c, 0, 59, 0
2, 56520, Note_on_c, 0, 68, 0
2, 56520, Note_on_c, 0, 61, 0
2, 56520, Note_on_c, 0, 49, 0
2, 56520, Note_on_c, 0, 59, 127
2, 56520, Note_on_c, 0, 68, 127
2, 56520, Note_on_c, 0, 71, 127
2, 56520, Note_on_c, 0, 60, 39
2, 56520, Note_on_c, 0, 63, 39
2, 56520, Note_on_c, 0, 56, 112
2, 56520, Note_on_c, 0, 39, 126
2, 56520, Note_on_c, 0, 48, 126
2, 56520, Note_on_c, 0, 51, 126
2, 56700, Note_on_c, 0, 68, 116
2, 56700, Note_on_c, 0, 80, 116
2, 56994, Note_on_c, 0, 71, 0
2, 56994, Note_on_c, 0, 59, 0
2, 56994, Note_on_c, 0, 68, 0
2, 57017, Note_on_c, 0, 68, 0
2, 57017, Note_on_c, 0, 80, 0
2, 57060, Note_on_c, 0, 56, 0
2, 57060, Note_on_c, 0, 72, 87
2, 57060, Note_on_c, 0, 63, 112
2, 57060, Note_on_c, 0, 66, 112
2, 57060, Note_on_c, 0, 69, 112
2, 57060, Note_on_c, 0, 60, 125
2, 57060, Note_on_c, 0, 51, 23
2, 57060, Note_on_c, 0, 54, 23
2, 57060, Note_on_c, 0, 57, 23
2, 57240, Note_on_c, 0, 57, 0
2, 57240, Note_on_c, 0, 72, 0
2, 57240, Note_on_c, 0, 39, 0
2, 57240, Note_on_c, 0, 66, 0
2, 57240, Note_on_c, 0, 48, 0
2, 57240, Note_on_c, 0, 60, 0
2, 57240, Note_on_c, 0, 51, 0
2, 57240, Note_on_c, 0, 63, 0
2, 57240, Note_on_c, 0, 51, 0
2, 57240, Note_on_c, 0, 69, 0
2, 57240, Note_on_c, 0, 63, 0
2, 57240, Note_on_c, 0, 54, 0
2, 57240, Note_on_c, 0, 60, 0
2, 57240, Note_on_c, 0, 56, 104
2, 57240, Note_on_c, 0, 59, 104
2, 57240, Note_on_c, 0, 64, 104
2, 57240, Note_on_c, 0, 68, 104
2, 57240, Note_on_c, 0, 40, 118
2, 57240, Note_on_c, 0, 52, 118
2, 57420, Note_on_c, 0, 68, 117
2, 57420, Note_on_c, 0, 80, 117
2, 57420, Note_on_c, 0, 47, 100
2, 57420, Note_on_c, 0, 59, 100
2, 57600, Note_on_c, 0, 47, 0
2, 57600, Note_on_c, 0, 59, 0
2, 57600, Note_on_c, 0, 48, 116
2, 57600, Note_on_c, 0, 60, 116
2, 57737, Note_on_c, 0, 80, 0
2, 57737, Note_on_c, 0, 68, 0
2, 57780, Note_on_c, 0, 56, 0
2, 57780, Note_on_c, 0, 59, 0
2, 57780, Note_on_c, 0, 64, 0
2, 57780, Note_on_c, 0, 48, 0
2, 57780, Note_on_c, 0, 60, 0
2, 57780, Note_on_c, 0, 68, 0
2, 57780, Note_on_c, 0, 73, 95
2, 57780, Note_on_c, 0, 61, 88
2, 57780, Note_on_c, 0, 49, 106
2, 57960, Note_on_c, 0, 49, 0
2, 57960, Note_on_c, 0, 73, 0
2, 57960, Note_on_c, 0, 52, 0
2, 57960, Note_on_c, 0, 40, 0
2, 57960, Note_on_c, 0, 61, 0
2, 57960, Note_on_c, 0, 56, 102
2, 57960, Note_on_c, 0, 62, 2
2, 57960, Note_on_c, 0, 58, 29
2, 57960, Note_on_c, 0, 50, 108
2, 57960, Note_on_c, 0, 41, 97
2, 58140, Note_on_c, 0, 68, 111
2, 58140, Note_on_c, 0, 80, 111
2, 58320, Note_on_c, 0, 50, 0
2, 58320, Note_on_c, 0, 62, 0
2, 58320, Note_on_c, 0, 61, 2
2, 58320, Note_on_c, 0, 49, 107
2, 58457, Note_on_c, 0, 68, 0
2, 58457, Note_on_c, 0, 80, 0
2, 58500, Note_on_c, 0, 61, 0
2, 58500, Note_on_c, 0, 56, 0
2, 58500, Note_on_c, 0, 49, 0
2, 58500, Note_on_c, 0, 74, 93
2, 58500, Note_on_c, 0, 68, 126
2, 58500, Note_on_c, 0, 62, 2
2, 58500, Note_on_c, 0, 50, 113
2, 58680, Note_on_c, 0, 50, 0
2, 58680, Note_on_c, 0, 58, 0
2, 58680, Note_on_c, 0, 74, 0
2, 58680, Note_on_c, 0, 41, 0
2, 58680, Note_on_c, 0, 62, 0
2, 58680, Note_on_c, 0, 68, 0
2, 58680, Note_on_c, 0, 57, 0
2, 58680, Note_on_c, 0, 57, 0
2, 58680, Note_on_c, 0, 68, 113
2, 58680, Note_on_c, 0, 61, 33
2, 58680, Note_on_c, 0, 49, 113
2, 58680, Note_on_c, 0, 42, 113
2, 58860, Note_on_c, 0, 68, 111
2, 58860, Note_on_c, 0, 80, 111
2, 59040, Note_on_c, 0, 49, 0
2, 59040, Note_on_c, 0, 61, 0
2, 59040, Note_on_c, 0, 48, 109
2, 59040, Note_on_c, 0, 60, 109
2, 59154, Note_on_c, 0, 68, 0
2, 59177, Note_on_c, 0, 68, 0
2, 59177, Note_on_c, 0, 80, 0
2, 59220, Note_on_c, 0, 60, 0
2, 59220, Note_on_c, 0, 48, 0
2, 59220, Note_on_c, 0, 63, 108
2, 59220, Note_on_c, 0, 75, 108
2, 59220, Note_on_c, 0, 67, 108
2, 59220, Note_on_c, 0, 49, 108
2, 59220, Note_on_c, 0, 61, 108
2, 59400, Note_on_c, 0, 61, 0
2, 59400, Note_on_c, 0, 63, 0
2, 59400, Note_on_c, 0, 75, 0
2, 59400, Note_on_c, 0, 42, 0
2, 59400, Note_on_c, 0, 49, 0
2, 59400, Note_on_c, 0, 67, 0
2, 59400, Note_on_c, 0, 60, 0
2, 59400, Note_on_c, 0, 60, 0
2, 59400, Note_on_c, 0, 57, 0
2, 59400, Note_on_c, 0, 57, 0
2, 59400, Note_on_c, 0, 66, 106
2, 59400, Note_on_c, 0, 56, 106
2, 59400, Note_on_c, 0, 44, 106
2, 59400, Note_on_c, 0, 54, 106
2, 59580, Note_on_c, 0, 68, 105
2, 59580, Note_on_c, 0, 80, 105
2, 59760, Note_on_c, 0, 56, 0
2, 59760, Note_on_c, 0, 57, 103
2, 59897, Note_on_c, 0, 68, 0
2, 59897, Note_on_c, 0, 80, 0
2, 59940, Note_on_c, 0, 66, 0
2, 59940, Note_on_c, 0, 57, 0
2, 59940, Note_on_c, 0, 76, 101
2, 59940, Note_on_c, 0, 64, 101
2, 59940, Note_on_c, 0, 56, 101
2, 60120, Note_on_c, 0, 56, 0
2, 60120, Note_on_c, 0, 76, 0
2, 60120, Note_on_c, 0, 44, 0
2, 60120, Note_on_c, 0, 54, 0
2, 60120, Note_on_c, 0, 64, 0
2, 60120, Note_on_c, 0, 60, 0
2, 60120, Note_on_c, 0, 60, 0
2, 60120, Note_on_c, 0, 52, 71
2, 60120, Note_on_c, 0, 61, 71
2, 60120, Note_on_c, 0, 37, 50
2, 60141, Note_on_c, 0, 44, 50
2, 60162, Note_on_c, 0, 49, 50
2, 60183, Note_on_c, 0, 56, 49
2, 60300, Note_on_c, 0, 61, 0
2, 60300, Note_on_c, 0, 52, 0
2, 60300, Note_on_c, 0, 68, 47
2, 60300, Note_on_c, 0, 80, 47
2, 60480, Note_on_c, 0, 49, 0
2, 60480, Note_on_c, 0, 37, 0
2, 60480, Note_on_c, 0, 44, 0
2, 60480, Note_on_c, 0, 56, 0
2, 60480, Note_on_c, 0, 45, 44
2, 60501, Note_on_c, 0, 52, 44
2, 60522, Note_on_c, 0, 57, 43
2, 60543, Note_on_c, 0, 64, 43
2, 60660, Note_on_c, 0, 80, 0
2, 60660, Note_on_c, 0, 68, 0
2, 60660, Note_on_c, 0, 61, 41
2, 60660, Note_on_c, 0, 73, 41
2, 60660, Note_on_c, 0, 68, 61
2, 60840, Note_on_c, 0, 68, 0
2, 60840, Note_on_c, 0, 64, 0
2, 60840, Note_on_c, 0, 45, 0
2, 60840, Note_on_c, 0, 52, 0
2, 60840, Note_on_c, 0, 57, 0
2, 60840, Note_on_c, 0, 64, 54
2, 60840, Note_on_c, 0, 37, 38
2, 60861, Note_on_c, 0, 44, 38
2, 60882, Note_on_c, 0, 49, 38
2, 60903, Note_on_c, 0, 56, 38
2, 61020, Note_on_c, 0, 64, 0
2, 61020, Note_on_c, 0, 61, 0
2, 61020, Note_on_c, 0, 73, 0
2, 61020, Note_on_c, 0, 68, 48
2, 61020, Note_on_c, 0, 80, 48
2, 61020, Note_on_c, 0, 61, 51
2, 61200, Note_on_c, 0, 61, 0
2, 61200, Note_on_c, 0, 49, 0
2, 61200, Note_on_c, 0, 56, 0
2, 61200, Note_on_c, 0, 37, 0
2, 61200, Note_on_c, 0, 44, 0
2, 61200, Note_on_c, 0, 57, 50
2, 61200, Note_on_c, 0, 45, 52
2, 61221, Note_on_c, 0, 52, 52
2, 61242, Note_on_c, 0, 64, 52
2, 61380, Note_on_c, 0, 57, 0
2, 61380, Note_on_c, 0, 68, 0
2, 61380, Note_on_c, 0, 80, 0
2, 61380, Note_on_c, 0, 61, 35
2, 61380, Note_on_c, 0, 73, 35
2, 61380, Note_on_c, 0, 68, 68
2, 61560, Note_on_c, 0, 68, 0
2, 61560, Note_on_c, 0, 52, 0
2, 61560, Note_on_c, 0, 64, 0
2, 61560, Note_on_c, 0, 45, 0
2, 61560, Note_on_c, 0, 64, 60
2, 61560, Note_on_c, 0, 37, 45
2, 61581, Note_on_c, 0, 44, 45
2, 61602, Note_on_c, 0, 49, 45
2, 61623, Note_on_c, 0, 56, 45
2, 61740, Note_on_c, 0, 64, 0
2, 61740, Note_on_c, 0, 73, 0
2, 61740, Note_on_c, 0, 61, 0
2, 61740, Note_on_c, 0, 68, 44
2, 61740, Note_on_c, 0, 80, 44
2, 61740, Note_on_c, 0, 61, 52
2, 61920, Note_on_c, 0, 61, 0
2, 61920, Note_on_c, 0, 49, 0
2, 61920, Note_on_c, 0, 56, 0
2, 61920, Note_on_c, 0, 37, 0
2, 61920, Note_on_c, 0, 44, 0
2, 61920, Note_on_c, 0, 57, 55
2, 61920, Note_on_c, 0, 45, 53
2, 61941, Note_on_c, 0, 52, 53
2, 61962, Note_on_c, 0, 64, 53
2, 62100, Note_on_c, 0, 57, 0
2, 62100, Note_on_c, 0, 68, 0
2, 62100, Note_on_c, 0, 80, 0
2, 62100, Note_on_c, 0, 61, 35
2, 62100, Note_on_c, 0, 73, 35
2, 62100, Note_on_c, 0, 68, 73
2, 62280, Note_on_c, 0, 68, 0
2, 62280, Note_on_c, 0, 52, 0
2, 62280, Note_on_c, 0, 64, 0
2, 62280, Note_on_c, 0, 45, 0
2, 62280, Note_on_c, 0, 64, 59
2, 62280, Note_on_c, 0, 37, 36
2, 62301, Note_on_c, 0, 44, 36
2, 62322, Note_on_c, 0, 49, 36
2, 62343, Note_on_c, 0, 56, 36
2, 62460, Note_on_c, 0, 64, 0
2, 62460, Note_on_c, 0, 73, 0
2, 62460, Note_on_c, 0, 61, 0
2, 62460, Note_on_c, 0, 68, 51
2, 62460, Note_on_c, 0, 80, 51
2, 62460, Note_on_c, 0, 61, 51
2, 62640, Note_on_c, 0, 61, 0
2, 62640, Note_on_c, 0, 49, 0
2, 62640, Note_on_c, 0, 56, 0
2, 62640, Note_on_c, 0, 37, 0
2, 62640, Note_on_c, 0, 44, 0
2, 62640, Note_on_c, 0, 57, 53
2, 62640, Note_on_c, 0, 45, 54
2, 62661, Note_on_c, 0, 52, 54
2, 62682, Note_on_c, 0, 64, 54
2, 62820, Note_on_c, 0, 57, 0
2, 62820, Note_on_c, 0, 68, 0
2, 62820, Note_on_c, 0, 80, 0
2, 62820, Note_on_c, 0, 73, 37
2, 62820, Note_on_c, 0, 68, 69
2, 63000, Note_on_c, 0, 68, 0
2, 63000, Note_on_c, 0, 64, 0
2, 63000, Note_on_c, 0, 45, 0
2, 63000, Note_on_c, 0, 52, 0
2, 63000, Note_on_c, 0, 64, 55
2, 63000, Note_on_c, 0, 71, 116
2, 63000, Note_on_c, 0, 37, 36
2, 63021, Note_on_c, 0, 44, 36
2, 63042, Note_on_c, 0, 49, 36
2, 63063, Note_on_c, 0, 56, 36
2, 63180, Note_on_c, 0, 64, 0
2, 63180, Note_on_c, 0, 73, 0
2, 63180, Note_on_c, 0, 68, 54
2, 63180, Note_on_c, 0, 80, 54
2, 63180, Note_on_c, 0, 61, 52
2, 63360, Note_on_c, 0, 61, 0
2, 63360, Note_on_c, 0, 49, 0
2, 63360, Note_on_c, 0, 37, 0
2, 63360, Note_on_c, 0, 44, 0
2, 63360, Note_on_c, 0, 56, 0
2, 63360, Note_on_c, 0, 57, 56
2, 63360, Note_on_c, 0, 45, 52
2, 63381, Note_on_c, 0, 52, 52
2, 63402, Note_on_c, 0, 64, 52
2, 63480, Note_on_c, 0, 71, 0
2, 63480, Note_on_c, 0, 69, 87
2, 63540, Note_on_c, 0, 57, 0
2, 63540, Note_on_c, 0, 68, 0
2, 63540, Note_on_c, 0, 80, 0
2, 63540, Note_on_c, 0, 61, 34
2, 63540, Note_on_c, 0, 73, 34
2, 63540, Note_on_c, 0, 73, 72
2, 63584, Note_on_c, 0, 69, 0
2, 63599, Note_on_c, 0, 66, 89
2, 63705, Note_on_c, 0, 66, 0
2, 63720, Note_on_c, 0, 73, 0
2, 63720, Note_on_c, 0, 52, 0
2, 63720, Note_on_c, 0, 45, 0
2, 63720, Note_on_c, 0, 64, 0
2, 63720, Note_on_c, 0, 73, 0
2, 63720, Note_on_c, 0, 61, 0
2, 63720, Note_on_c, 0, 61, 43
2, 63720, Note_on_c, 0, 73, 43
2, 63720, Note_on_c, 0, 64, 46
2, 63720, Note_on_c, 0, 68, 101
2, 63720, Note_on_c, 0, 37, 39
2, 63741, Note_on_c, 0, 44, 39
2, 63762, Note_on_c, 0, 49, 39
2, 63783, Note_on_c, 0, 56, 39
2, 63900, Note_on_c, 0, 64, 0
2, 63900, Note_on_c, 0, 61, 0
2, 63900, Note_on_c, 0, 73, 0
2, 63900, Note_on_c, 0, 68, 45
2, 63900, Note_on_c, 0, 80, 45
2, 63900, Note_on_c, 0, 64, 58
2, 64080, Note_on_c, 0, 64, 0
2, 64080, Note_on_c, 0, 44, 0
2, 64080, Note_on_c, 0, 56, 0
2, 64080, Note_on_c, 0, 37, 0
2, 64080, Note_on_c, 0, 49, 0
2, 64080, Note_on_c, 0, 61, 55
2, 64080, Note_on_c, 0, 40, 44
2, 64101, Note_on_c, 0, 47, 44
2, 64122, Note_on_c, 0, 56, 44
2, 64260, Note_on_c, 0, 61, 0
2, 64260, Note_on_c, 0, 68, 0
2, 64260, Note_on_c, 0, 80, 0
2, 64260, Note_on_c, 0, 61, 37
2, 64260, Note_on_c, 0, 73, 37
2, 64260, Note_on_c, 0, 71, 70
2, 64440, Note_on_c, 0, 71, 0
2, 64440, Note_on_c, 0, 47, 0
2, 64440, Note_on_c, 0, 56, 0
2, 64440, Note_on_c, 0, 40, 0
2, 64440, Note_on_c, 0, 68, 56
2, 64440, Note_on_c, 0, 37, 40
2, 64461, Note_on_c, 0, 44, 40
2, 64482, Note_on_c, 0, 49, 40
2, 64503, Note_on_c, 0, 56, 40
2, 64598, Note_on_c, 0, 68, 0
2, 64620, Note_on_c, 0, 68, 0
2, 64620, Note_on_c, 0, 73, 0
2, 64620, Note_on_c, 0, 61, 0
2, 64620, Note_on_c, 0, 68, 53
2, 64620, Note_on_c, 0, 80, 53
2, 64620, Note_on_c, 0, 64, 51
2, 64800, Note_on_c, 0, 64, 0
2, 64800, Note_on_c, 0, 44, 0
2, 64800, Note_on_c, 0, 49, 0
2, 64800, Note_on_c, 0, 56, 0
2, 64800, Note_on_c, 0, 37, 0
2, 64800, Note_on_c, 0, 61, 51
2, 64800, Note_on_c, 0, 66, 88
2, 64800, Note_on_c, 0, 40, 40
2, 64821, Note_on_c, 0, 47, 40
2, 64842, Note_on_c, 0, 56, 40
2, 64904, Note_on_c, 0, 66, 0
2, 64920, Note_on_c, 0, 64, 88
2, 64980, Note_on_c, 0, 61, 0
2, 64980, Note_on_c, 0, 68, 0
2, 64980, Note_on_c, 0, 80, 0
2, 64980, Note_on_c, 0, 61, 37
2, 64980, Note_on_c, 0, 73, 37
2, 64980, Note_on_c, 0, 71, 67
2, 65024, Note_on_c, 0, 64, 0
2, 65039, Note_on_c, 0, 63, 88
2, 65145, Note_on_c, 0, 63, 0
2, 65160, Note_on_c, 0, 71, 0
2, 65160, Note_on_c, 0, 40, 0
2, 65160, Note_on_c, 0, 56, 0
2, 65160, Note_on_c, 0, 47, 0
2, 65160, Note_on_c, 0, 68, 55
2, 65160, Note_on_c, 0, 63, 97
2, 65160, Note_on_c, 0, 44, 38
2, 65160, Note_on_c, 0, 37, 87
2, 65184, Note_on_c, 0, 51, 38
2, 65208, Note_on_c, 0, 56, 38
2, 65340, Note_on_c, 0, 68, 0
2, 65340, Note_on_c, 0, 61, 0
2, 65340, Note_on_c, 0, 73, 0
2, 65340, Note_on_c, 0, 68, 50
2, 65340, Note_on_c, 0, 80, 50
2, 65340, Note_on_c, 0, 61, 48
2, 65520, Note_on_c, 0, 61, 0
2, 65520, Note_on_c, 0, 56, 0
2, 65520, Note_on_c, 0, 44, 0
2, 65520, Note_on_c, 0, 51, 0
2, 65520, Note_on_c, 0, 57, 54
2, 65520, Note_on_c, 0, 45, 43
2, 65544, Note_on_c, 0, 52, 43
2, 65568, Note_on_c, 0, 57, 43
2, 65610, Note_on_c, 0, 63, 0
2, 65610, Note_on_c, 0, 64, 97
2, 65689, Note_on_c, 0, 64, 0
2, 65700, Note_on_c, 0, 57, 0
2, 65700, Note_on_c, 0, 80, 0
2, 65700, Note_on_c, 0, 68, 0
2, 65700, Note_on_c, 0, 73, 38
2, 65700, Note_on_c, 0, 71, 72
2, 65700, Note_on_c, 0, 61, 89
2, 65779, Note_on_c, 0, 61, 0
2, 65790, Note_on_c, 0, 62, 96
2, 65869, Note_on_c, 0, 62, 0
2, 65880, Note_on_c, 0, 71, 0
2, 65880, Note_on_c, 0, 45, 0
2, 65880, Note_on_c, 0, 52, 0
2, 65880, Note_on_c, 0, 57, 0
2, 65880, Note_on_c, 0, 37, 0
2, 65880, Note_on_c, 0, 68, 56
2, 65880, Note_on_c, 0, 63, 101
2, 65880, Note_on_c, 0, 44, 41
2, 65880, Note_on_c, 0, 37, 102
2, 65904, Note_on_c, 0, 51, 41
2, 65928, Note_on_c, 0, 56, 41
2, 66060, Note_on_c, 0, 68, 0
2, 66060, Note_on_c, 0, 73, 0
2, 66060, Note_on_c, 0, 68, 49
2, 66060, Note_on_c, 0, 80, 49
2, 66060, Note_on_c, 0, 61, 48
2, 66240, Note_on_c, 0, 61, 0
2, 66240, Note_on_c, 0, 51, 0
2, 66240, Note_on_c, 0, 44, 0
2, 66240, Note_on_c, 0, 56, 0
2, 66240, Note_on_c, 0, 57, 50
2, 66240, Note_on_c, 0, 45, 43
2, 66264, Note_on_c, 0, 52, 43
2, 66288, Note_on_c, 0, 57, 43
2, 66330, Note_on_c, 0, 63, 0
2, 66330, Note_on_c, 0, 64, 102
2, 66409, Note_on_c, 0, 64, 0
2, 66420, Note_on_c, 0, 57, 0
2, 66420, Note_on_c, 0, 80, 0
2, 66420, Note_on_c, 0, 68, 0
2, 66420, Note_on_c, 0, 73, 36
2, 66420, Note_on_c, 0, 71, 74
2, 66420, Note_on_c, 0, 59, 92
2, 66499, Note_on_c, 0, 59, 0
2, 66510, Note_on_c, 0, 61, 97
2, 66589, Note_on_c, 0, 61, 0
2, 66600, Note_on_c, 0, 71, 0
2, 66600, Note_on_c, 0, 45, 0
2, 66600, Note_on_c, 0, 52, 0
2, 66600, Note_on_c, 0, 57, 0
2, 66600, Note_on_c, 0, 73, 0
2, 66600, Note_on_c, 0, 37, 0
2, 66600, Note_on_c, 0, 68, 83
2, 66600, Note_on_c, 0, 63, 83
2, 66600, Note_on_c, 0, 37, 39
2, 66600, Note_on_c, 0, 46, 39
2, 66600, Note_on_c, 0, 52, 39
2, 66600, Note_on_c, 0, 56, 39
2, 66780, Note_on_c, 0, 68, 0
2, 66780, Note_on_c, 0, 68, 44
2, 66780, Note_on_c, 0, 80, 44
2, 66810, Note_on_c, 0, 63, 0
2, 66839, Note_on_c, 0, 64, 84
2, 66945, Note_on_c, 0, 64, 0
2, 66960, Note_on_c, 0, 61, 85
2, 67097, Note_on_c, 0, 80, 0
2, 67097, Note_on_c, 0, 68, 0
2, 67140, Note_on_c, 0, 73, 45
2, 67140, Note_on_c, 0, 76, 86
2, 67277, Note_on_c, 0, 61, 0
2, 67320, Note_on_c, 0, 73, 0
2, 67320, Note_on_c, 0, 56, 0
2, 67320, Note_on_c, 0, 52, 0
2, 67320, Note_on_c, 0, 46, 0
2, 67320, Note_on_c, 0, 76, 0
2, 67320, Note_on_c, 0, 37, 0
2, 67320, Note_on_c, 0, 73, 87
2, 67320, Note_on_c, 0, 38, 45
2, 67320, Note_on_c, 0, 47, 45
2, 67320, Note_on_c, 0, 53, 45
2, 67320, Note_on_c, 0, 57, 45
2, 67478, Note_on_c, 0, 73, 0
2, 67500, Note_on_c, 0, 81, 47
2, 67500, Note_on_c, 0, 69, 88
2, 67680, Note_on_c, 0, 69, 0
2, 67680, Note_on_c, 0, 65, 88
2, 67817, Note_on_c, 0, 81, 0
2, 67860, Note_on_c, 0, 65, 0
2, 67860, Note_on_c, 0, 61, 49
2, 67860, Note_on_c, 0, 73, 49
2, 67860, Note_on_c, 0, 73, 89
2, 68040, Note_on_c, 0, 73, 0
2, 68040, Note_on_c, 0, 61, 0
2, 68040, Note_on_c, 0, 47, 0
2, 68040, Note_on_c, 0, 53, 0
2, 68040, Note_on_c, 0, 38, 0
2, 68040, Note_on_c, 0, 73, 0
2, 68040, Note_on_c, 0, 57, 0
2, 68040, Note_on_c, 0, 70, 90
2, 68040, Note_on_c, 0, 39, 49
2, 68040, Note_on_c, 0, 49, 49
2, 68040, Note_on_c, 0, 55, 49
2, 68040, Note_on_c, 0, 58, 49
2, 68198, Note_on_c, 0, 70, 0
2, 68220, Note_on_c, 0, 70, 50
2, 68220, Note_on_c, 0, 82, 50
2, 68220, Note_on_c, 0, 67, 91
2, 68400, Note_on_c, 0, 67, 0
2, 68400, Note_on_c, 0, 63, 92
2, 68537, Note_on_c, 0, 70, 0
2, 68537, Note_on_c, 0, 82, 0
2, 68580, Note_on_c, 0, 63, 0
2, 68580, Note_on_c, 0, 61, 52
2, 68580, Note_on_c, 0, 73, 52
2, 68580, Note_on_c, 0, 79, 93
2, 68760, Note_on_c, 0, 79, 0
2, 68760, Note_on_c, 0, 61, 0
2, 68760, Note_on_c, 0, 49, 0
2, 68760, Note_on_c, 0, 55, 0
2, 68760, Note_on_c, 0, 39, 0
2, 68760, Note_on_c, 0, 73, 0
2, 68760, Note_on_c, 0, 58, 0
2, 68760, Note_on_c, 0, 76, 93
2, 68760, Note_on_c, 0, 40, 45
2, 68760, Note_on_c, 0, 49, 45
2, 68760, Note_on_c, 0, 59, 45
2, 68760, Note_on_c, 0, 55, 88
2, 68918, Note_on_c, 0, 76, 0
2, 68940, Note_on_c, 0, 71, 54
2, 68940, Note_on_c, 0, 83, 54
2, 68940, Note_on_c, 0, 73, 94
2, 69120, Note_on_c, 0, 73, 0
2, 69120, Note_on_c, 0, 71, 95
2, 69257, Note_on_c, 0, 71, 0
2, 69257, Note_on_c, 0, 83, 0
2, 69300, Note_on_c, 0, 55, 0
2, 69300, Note_on_c, 0, 71, 0
2, 69300, Note_on_c, 0, 61, 43
2, 69300, Note_on_c, 0, 73, 43
2, 69300, Note_on_c, 0, 76, 109
2, 69300, Note_on_c, 0, 56, 98
2, 69480, Note_on_c, 0, 56, 0
2, 69480, Note_on_c, 0, 73, 0
2, 69480, Note_on_c, 0, 59, 0
2, 69480, Note_on_c, 0, 40, 0
2, 69480, Note_on_c, 0, 49, 0
2, 69480, Note_on_c, 0, 76, 0
2, 69480, Note_on_c, 0, 61, 0
2, 69480, Note_on_c, 0, 73, 104
2, 69480, Note_on_c, 0, 50, 34
2, 69480, Note_on_c, 0, 57, 34
2, 69480, Note_on_c, 0, 41, 91
2, 69480, Note_on_c, 0, 61, 24
2, 69638, Note_on_c, 0, 73, 0
2, 69660, Note_on_c, 0, 85, 87
2, 69660, Note_on_c, 0, 69, 81
2, 69660, Note_on_c, 0, 73, 122
2, 69750, Note_on_c, 0, 85, 0
2, 69750, Note_on_c, 0, 83, 92
2, 69840, Note_on_c, 0, 83, 0
2, 69840, Note_on_c, 0, 69, 0
2, 69840, Note_on_c, 0, 85, 112
2, 69840, Note_on_c, 0, 65, 87
2, 69954, Note_on_c, 0, 61, 0
2, 69979, Note_on_c, 0, 41, 0
2, 69979, Note_on_c, 0, 42, 99
2, 70020, Note_on_c, 0, 42, 0
2, 70020, Note_on_c, 0, 65, 0
2, 70020, Note_on_c, 0, 73, 0
2, 70020, Note_on_c, 0, 81, 121
2, 70020, Note_on_c, 0, 54, 118
2, 70020, Note_on_c, 0, 62, 14
2, 70020, Note_on_c, 0, 74, 14
2, 70200, Note_on_c, 0, 74, 0
2, 70200, Note_on_c, 0, 54, 0
2, 70200, Note_on_c, 0, 57, 0
2, 70200, Note_on_c, 0, 50, 0
2, 70200, Note_on_c, 0, 81, 0
2, 70200, Note_on_c, 0, 62, 0
2, 70200, Note_on_c, 0, 75, 100
2, 70200, Note_on_c, 0, 57, 48
2, 70200, Note_on_c, 0, 61, 48
2, 70200, Note_on_c, 0, 43, 100
2, 70200, Note_on_c, 0, 51, 100
2, 70200, Note_on_c, 0, 63, 11
2, 70290, Note_on_c, 0, 85, 0
2, 70290, Note_on_c, 0, 83, 92
2, 70358, Note_on_c, 0, 75, 0
2, 70380, Note_on_c, 0, 83, 0
2, 70380, Note_on_c, 0, 85, 103
2, 70380, Note_on_c, 0, 73, 86
2, 70470, Note_on_c, 0, 85, 0
2, 70470, Note_on_c, 0, 81, 87
2, 70560, Note_on_c, 0, 81, 0
2, 70560, Note_on_c, 0, 73, 0
2, 70560, Note_on_c, 0, 85, 106
2, 70560, Note_on_c, 0, 69, 81
2, 70650, Note_on_c, 0, 85, 0
2, 70650, Note_on_c, 0, 75, 76
2, 70740, Note_on_c, 0, 75, 0
2, 70740, Note_on_c, 0, 69, 0
2, 70740, Note_on_c, 0, 51, 0
2, 70740, Note_on_c, 0, 43, 0
2, 70740, Note_on_c, 0, 63, 0
2, 70740, Note_on_c, 0, 85, 117
2, 70740, Note_on_c, 0, 76, 114
2, 70740, Note_on_c, 0, 44, 102
2, 70740, Note_on_c, 0, 52, 102
2, 70740, Note_on_c, 0, 64, 14
2, 70830, Note_on_c, 0, 85, 0
2, 70830, Note_on_c, 0, 83, 93
2, 70920, Note_on_c, 0, 83, 0
2, 70920, Note_on_c, 0, 64, 0
2, 70920, Note_on_c, 0, 61, 0
2, 70920, Note_on_c, 0, 76, 0
2, 70920, Note_on_c, 0, 57, 0
2, 70920, Note_on_c, 0, 52, 0
2, 70920, Note_on_c, 0, 44, 0
2, 70920, Note_on_c, 0, 85, 114
2, 70920, Note_on_c, 0, 73, 92
2, 70920, Note_on_c, 0, 61, 48
2, 70920, Note_on_c, 0, 63, 48
2, 70920, Note_on_c, 0, 65, 48
2, 70920, Note_on_c, 0, 45, 103
2, 70920, Note_on_c, 0, 53, 103
2, 71100, Note_on_c, 0, 73, 0
2, 71100, Note_on_c, 0, 69, 84
2, 71156, Note_on_c, 0, 85, 0
2, 71190, Note_on_c, 0, 81, 91
2, 71280, Note_on_c, 0, 81, 0
2, 71280, Note_on_c, 0, 69, 0
2, 71280, Note_on_c, 0, 85, 104
2, 71280, Note_on_c, 0, 66, 86
2, 71370, Note_on_c, 0, 85, 0
2, 71370, Note_on_c, 0, 75, 74
2, 71460, Note_on_c, 0, 75, 0
2, 71460, Note_on_c, 0, 66, 0
2, 71460, Note_on_c, 0, 85, 120
2, 71460, Note_on_c, 0, 73, 120
2, 71460, Note_on_c, 0, 81, 120
2, 71550, Note_on_c, 0, 85, 0
2, 71550, Note_on_c, 0, 83, 96
2, 71640, Note_on_c, 0, 83, 0
2, 71640, Note_on_c, 0, 45, 0
2, 71640, Note_on_c, 0, 53, 0
2, 71640, Note_on_c, 0, 61, 0
2, 71640, Note_on_c, 0, 65, 0
2, 71640, Note_on_c, 0, 81, 0
2, 71640, Note_on_c, 0, 73, 0
2, 71640, Note_on_c, 0, 63, 0
2, 71640, Note_on_c, 0, 85, 118
2, 71640, Note_on_c, 0, 78, 104
2, 71640, Note_on_c, 0, 61, 44
2, 71640, Note_on_c, 0, 64, 44
2, 71640, Note_on_c, 0, 66, 44
2, 71640, Note_on_c, 0, 46, 102
2, 71640, Note_on_c, 0, 54, 102
2, 71798, Note_on_c, 0, 78, 0
2, 71820, Note_on_c, 0, 73, 90
2, 71820, Note_on_c, 0, 76, 90
2, 71876, Note_on_c, 0, 85, 0
2, 71910, Note_on_c, 0, 83, 93
2, 72000, Note_on_c, 0, 83, 0
2, 72000, Note_on_c, 0, 46, 0
2, 72000, Note_on_c, 0, 54, 0
2, 72000, Note_on_c, 0, 61, 0
2, 72000, Note_on_c, 0, 66, 0
2, 72000, Note_on_c, 0, 76, 0
2, 72000, Note_on_c, 0, 73, 0
2, 72000, Note_on_c, 0, 64, 0
2, 72000, Note_on_c, 0, 85, 104
2, 72000, Note_on_c, 0, 73, 103
2, 72000, Note_on_c, 0, 79, 103
2, 72000, Note_on_c, 0, 61, 49
2, 72000, Note_on_c, 0, 65, 49
2, 72000, Note_on_c, 0, 67, 49
2, 72000, Note_on_c, 0, 47, 101
2, 72000, Note_on_c, 0, 55, 101
2, 72090, Note_on_c, 0, 85, 0
2, 72090, Note_on_c, 0, 81, 88
2, 72180, Note_on_c, 0, 81, 0
2, 72180, Note_on_c, 0, 73, 109
2, 72180, Note_on_c, 0, 85, 109
2, 72270, Note_on_c, 0, 85, 0
2, 72270, Note_on_c, 0, 73, 0
2, 72270, Note_on_c, 0, 71, 93
2, 72270, Note_on_c, 0, 83, 93
2, 72360, Note_on_c, 0, 83, 0
2, 72360, Note_on_c, 0, 55, 0
2, 72360, Note_on_c, 0, 73, 0
2, 72360, Note_on_c, 0, 67, 0
2, 72360, Note_on_c, 0, 79, 0
2, 72360, Note_on_c, 0, 65, 0
2, 72360, Note_on_c, 0, 61, 0
2, 72360, Note_on_c, 0, 47, 0
2, 72360, Note_on_c, 0, 71, 0
2, 72360, Note_on_c, 0, 73, 83
2, 72360, Note_on_c, 0, 81, 83
2, 72360, Note_on_c, 0, 85, 83
2, 72360, Note_on_c, 0, 56, 83
2, 72360, Note_on_c, 0, 61, 83
2, 72360, Note_on_c, 0, 64, 83
2, 72360, Note_on_c, 0, 68, 83
2, 72450, Note_on_c, 0, 85, 0
2, 72450, Note_on_c, 0, 73, 0
2, 72450, Note_on_c, 0, 81, 0
2, 72450, Note_on_c, 0, 75, 84
2, 72450, Note_on_c, 0, 83, 84
2, 72450, Note_on_c, 0, 87, 84
2, 72540, Note_on_c, 0, 87, 0
2, 72540, Note_on_c, 0, 75, 0
2, 72540, Note_on_c, 0, 83, 0
2, 72540, Note_on_c, 0, 76, 85
2, 72540, Note_on_c, 0, 81, 85
2, 72540, Note_on_c, 0, 85, 85
2, 72540, Note_on_c, 0, 88, 85
2, 72630, Note_on_c, 0, 88, 0
2, 72630, Note_on_c, 0, 56, 0
2, 72630, Note_on_c, 0, 76, 0
2, 72630, Note_on_c, 0, 64, 0
2, 72630, Note_on_c, 0, 61, 0
2, 72630, Note_on_c, 0, 68, 0
2, 72630, Note_on_c, 0, 81, 0
2, 72630, Note_on_c, 0, 85, 0
2, 72630, Note_on_c, 0, 75, 86
2, 72630, Note_on_c, 0, 80, 86
2, 72630, Note_on_c, 0, 83, 86
2, 72630, Note_on_c, 0, 87, 86
2, 72630, Note_on_c, 0, 30, 86
2, 72630, Note_on_c, 0, 42, 86
2, 72720, Note_on_c, 0, 42, 0
2, 72720, Note_on_c, 0, 80, 0
2, 72720, Note_on_c, 0, 83, 0
2, 72720, Note_on_c, 0, 75, 0
2, 72720, Note_on_c, 0, 30, 0
2, 72720, Note_on_c, 0, 87, 0
2, 72720, Note_on_c, 0, 76, 86
2, 72720, Note_on_c, 0, 81, 86
2, 72720, Note_on_c, 0, 85, 86
2, 72720, Note_on_c, 0, 88, 86
2, 72720, Note_on_c, 0, 52, 86
2, 72720, Note_on_c, 0, 57, 86
2, 72720, Note_on_c, 0, 64, 86
2, 72810, Note_on_c, 0, 88, 0
2, 72810, Note_on_c, 0, 85, 0
2, 72810, Note_on_c, 0, 76, 0
2, 72810, Note_on_c, 0, 81, 0
2, 72810, Note_on_c, 0, 73, 87
2, 72810, Note_on_c, 0, 78, 87
2, 72810, Note_on_c, 0, 81, 87
2, 72810, Note_on_c, 0, 85, 87
2, 72900, Note_on_c, 0, 85, 0
2, 72900, Note_on_c, 0, 78, 0
2, 72900, Note_on_c, 0, 73, 0
2, 72900, Note_on_c, 0, 81, 0
2, 72900, Note_on_c, 0, 76, 88
2, 72900, Note_on_c, 0, 81, 88
2, 72900, Note_on_c, 0, 85, 88
2, 72900, Note_on_c, 0, 88, 88
2, 72990, Note_on_c, 0, 88, 0
2, 72990, Note_on_c, 0, 81, 0
2, 72990, Note_on_c, 0, 64, 0
2, 72990, Note_on_c, 0, 57, 0
2, 72990, Note_on_c, 0, 52, 0
2, 72990, Note_on_c, 0, 85, 0
2, 72990, Note_on_c, 0, 76, 0
2, 72990, Note_on_c, 0, 71, 89
2, 72990, Note_on_c, 0, 76, 89
2, 72990, Note_on_c, 0, 80, 89
2, 72990, Note_on_c, 0, 83, 89
2, 72990, Note_on_c, 0, 25, 89
2, 72990, Note_on_c, 0, 37, 89
2, 73080, Note_on_c, 0, 37, 0
2, 73080, Note_on_c, 0, 76, 0
2, 73080, Note_on_c, 0, 80, 0
2, 73080, Note_on_c, 0, 71, 0
2, 73080, Note_on_c, 0, 25, 0
2, 73080, Note_on_c, 0, 83, 0
2, 73080, Note_on_c, 0, 76, 90
2, 73080, Note_on_c, 0, 81, 90
2, 73080, Note_on_c, 0, 85, 90
2, 73080, Note_on_c, 0, 88, 90
2, 73080, Note_on_c, 0, 45, 90
2, 73080, Note_on_c, 0, 52, 90
2, 73080, Note_on_c, 0, 57, 90
2, 73159, Note_on_c, 0, 88, 0
2, 73159, Note_on_c, 0, 85, 0
2, 73159, Note_on_c, 0, 76, 0
2, 73159, Note_on_c, 0, 81, 0
2, 73170, Note_on_c, 0, 68, 90
2, 73170, Note_on_c, 0, 73, 90
2, 73170, Note_on_c, 0, 76, 90
2, 73170, Note_on_c, 0, 80, 90
2, 73260, Note_on_c, 0, 80, 0
2, 73260, Note_on_c, 0, 73, 0
2, 73260, Note_on_c, 0, 68, 0
2, 73260, Note_on_c, 0, 76, 0
2, 73260, Note_on_c, 0, 76, 91
2, 73260, Note_on_c, 0, 81, 91
2, 73260, Note_on_c, 0, 85, 91
2, 73260, Note_on_c, 0, 88, 91
2, 73350, Note_on_c, 0, 88, 0
2, 73350, Note_on_c, 0, 81, 0
2, 73350, Note_on_c, 0, 57, 0
2, 73350, Note_on_c, 0, 52, 0
2, 73350, Note_on_c, 0, 45, 0
2, 73350, Note_on_c, 0, 85, 0
2, 73350, Note_on_c, 0, 76, 0
2, 73350, Note_on_c, 0, 75, 92
2, 73350, Note_on_c, 0, 80, 92
2, 73350, Note_on_c, 0, 83, 92
2, 73350, Note_on_c, 0, 87, 92
2, 73350, Note_on_c, 0, 30, 92
2, 73350, Note_on_c, 0, 42, 92
2, 73440, Note_on_c, 0, 42, 0
2, 73440, Note_on_c, 0, 80, 0
2, 73440, Note_on_c, 0, 83, 0
2, 73440, Note_on_c, 0, 75, 0
2, 73440, Note_on_c, 0, 30, 0
2, 73440, Note_on_c, 0, 87, 0
2, 73440, Note_on_c, 0, 76, 93
2, 73440, Note_on_c, 0, 81, 93
2, 73440, Note_on_c, 0, 85, 93
2, 73440, Note_on_c, 0, 88, 93
2, 73440, Note_on_c, 0, 52, 93
2, 73440, Note_on_c, 0, 57, 93
2, 73440, Note_on_c, 0, 64, 93
2, 73530, Note_on_c, 0, 88, 0
2, 73530, Note_on_c, 0, 85, 0
2, 73530, Note_on_c, 0, 76, 0
2, 73530, Note_on_c, 0, 81, 0
2, 73530, Note_on_c, 0, 73, 94
2, 73530, Note_on_c, 0, 78, 94
2, 73530, Note_on_c, 0, 81, 94
2, 73530, Note_on_c, 0, 85, 94
2, 73620, Note_on_c, 0, 85, 0
2, 73620, Note_on_c, 0, 78, 0
2, 73620, Note_on_c, 0, 73, 0
2, 73620, Note_on_c, 0, 81, 0
2, 73620, Note_on_c, 0, 78, 94
2, 73620, Note_on_c, 0, 81, 94
2, 73620, Note_on_c, 0, 85, 94
2, 73620, Note_on_c, 0, 90, 94
2, 73710, Note_on_c, 0, 90, 0
2, 73710, Note_on_c, 0, 81, 0
2, 73710, Note_on_c, 0, 64, 0
2, 73710, Note_on_c, 0, 57, 0
2, 73710, Note_on_c, 0, 52, 0
2, 73710, Note_on_c, 0, 85, 0
2, 73710, Note_on_c, 0, 78, 0
2, 73710, Note_on_c, 0, 80, 95
2, 73710, Note_on_c, 0, 83, 95
2, 73710, Note_on_c, 0, 88, 95
2, 73710, Note_on_c, 0, 92, 95
2, 73710, Note_on_c, 0, 25, 95
2, 73710, Note_on_c, 0, 37, 95
2, 73800, Note_on_c, 0, 37, 0
2, 73800, Note_on_c, 0, 83, 0
2, 73800, Note_on_c, 0, 88, 0
2, 73800, Note_on_c, 0, 80, 0
2, 73800, Note_on_c, 0, 25, 0
2, 73800, Note_on_c, 0, 92, 0
2, 73800, Note_on_c, 0, 81, 83
2, 73800, Note_on_c, 0, 85, 83
2, 73800, Note_on_c, 0, 88, 83
2, 73800, Note_on_c, 0, 93, 83
2, 73800, Note_on_c, 0, 45, 83
2, 73800, Note_on_c, 0, 52, 83
2, 73800, Note_on_c, 0, 57, 83
2, 73890, Note_on_c, 0, 93, 0
2, 73890, Note_on_c, 0, 88, 0
2, 73890, Note_on_c, 0, 81, 0
2, 73890, Note_on_c, 0, 85, 0
2, 73890, Note_on_c, 0, 83, 85
2, 73890, Note_on_c, 0, 85, 85
2, 73890, Note_on_c, 0, 88, 85
2, 73890, Note_on_c, 0, 95, 85
2, 73980, Note_on_c, 0, 95, 0
2, 73980, Note_on_c, 0, 85, 0
2, 73980, Note_on_c, 0, 83, 0
2, 73980, Note_on_c, 0, 88, 0
2, 73980, Note_on_c, 0, 85, 87
2, 73980, Note_on_c, 0, 88, 87
2, 73980, Note_on_c, 0, 93, 87
2, 73980, Note_on_c, 0, 97, 87
2, 74070, Note_on_c, 0, 97, 0
2, 74070, Note_on_c, 0, 88, 0
2, 74070, Note_on_c, 0, 57, 0
2, 74070, Note_on_c, 0, 52, 0
2, 74070, Note_on_c, 0, 45, 0
2, 74070, Note_on_c, 0, 93, 0
2, 74070, Note_on_c, 0, 85, 0
2, 74070, Note_on_c, 0, 83, 88
2, 74070, Note_on_c, 0, 87, 88
2, 74070, Note_on_c, 0, 92, 88
2, 74070, Note_on_c, 0, 95, 88
2, 74070, Note_on_c, 0, 30, 88
2, 74070, Note_on_c, 0, 42, 88
2, 74160, Note_on_c, 0, 42, 0
2, 74160, Note_on_c, 0, 87, 0
2, 74160, Note_on_c, 0, 92, 0
2, 74160, Note_on_c, 0, 83, 0
2, 74160, Note_on_c, 0, 30, 0
2, 74160, Note_on_c, 0, 95, 0
2, 74160, Note_on_c, 0, 85, 90
2, 74160, Note_on_c, 0, 88, 90
2, 74160, Note_on_c, 0, 93, 90
2, 74160, Note_on_c, 0, 97, 90
2, 74160, Note_on_c, 0, 52, 90
2, 74160, Note_on_c, 0, 57, 90
2, 74160, Note_on_c, 0, 64, 90
2, 74250, Note_on_c, 0, 97, 0
2, 74250, Note_on_c, 0, 93, 0
2, 74250, Note_on_c, 0, 85, 0
2, 74250, Note_on_c, 0, 88, 0
2, 74250, Note_on_c, 0, 81, 91
2, 74250, Note_on_c, 0, 85, 91
2, 74250, Note_on_c, 0, 90, 91
2, 74250, Note_on_c, 0, 93, 91
2, 74340, Note_on_c, 0, 93, 0
2, 74340, Note_on_c, 0, 85, 0
2, 74340, Note_on_c, 0, 52, 0
2, 74340, Note_on_c, 0, 64, 0
2, 74340, Note_on_c, 0, 57, 0
2, 74340, Note_on_c, 0, 90, 0
2, 74340, Note_on_c, 0, 81, 0
2, 74340, Note_on_c, 0, 85, 93
2, 74340, Note_on_c, 0, 88, 93
2, 74340, Note_on_c, 0, 93, 93
2, 74340, Note_on_c, 0, 97, 93
2, 74340, Note_on_c, 0, 45, 93
2, 74340, Note_on_c, 0, 52, 93
2, 74340, Note_on_c, 0, 57, 93
2, 74430, Note_on_c, 0, 97, 0
2, 74430, Note_on_c, 0, 93, 0
2, 74430, Note_on_c, 0, 85, 0
2, 74430, Note_on_c, 0, 88, 0
2, 74430, Note_on_c, 0, 80, 94
2, 74430, Note_on_c, 0, 83, 94
2, 74430, Note_on_c, 0, 88, 94
2, 74430, Note_on_c, 0, 92, 94
2, 74520, Note_on_c, 0, 92, 0
2, 74520, Note_on_c, 0, 83, 0
2, 74520, Note_on_c, 0, 80, 0
2, 74520, Note_on_c, 0, 88, 0
2, 74520, Note_on_c, 0, 85, 127
2, 74520, Note_on_c, 0, 88, 127
2, 74520, Note_on_c, 0, 93, 127
2, 74520, Note_on_c, 0, 97, 127
2, 74520, Note_on_c, 0, 25, 95
2, 74520, Note_on_c, 0, 37, 95
2, 74599, Note_on_c, 0, 97, 0
2, 74599, Note_on_c, 0, 85, 0
2, 74599, Note_on_c, 0, 93, 0
2, 74599, Note_on_c, 0, 88, 0
2, 74610, Note_on_c, 0, 76, 123
2, 74610, Note_on_c, 0, 80, 123
2, 74610, Note_on_c, 0, 85, 123
2, 74610, Note_on_c, 0, 88, 123
2, 74700, Note_on_c, 0, 88, 0
2, 74700, Note_on_c, 0, 52, 0
2, 74700, Note_on_c, 0, 85, 0
2, 74700, Note_on_c, 0, 45, 0
2, 74700, Note_on_c, 0, 57, 0
2, 74700, Note_on_c, 0, 80, 0
2, 74700, Note_on_c, 0, 76, 0
2, 74700, Note_on_c, 0, 81, 126
2, 74700, Note_on_c, 0, 85, 126
2, 74700, Note_on_c, 0, 88, 126
2, 74700, Note_on_c, 0, 93, 126
2, 74700, Note_on_c, 0, 52, 127
2, 74700, Note_on_c, 0, 57, 127
2, 74700, Note_on_c, 0, 64, 127
2, 74790, Note_on_c, 0, 93, 0
2, 74790, Note_on_c, 0, 85, 0
2, 74790, Note_on_c, 0, 81, 0
2, 74790, Note_on_c, 0, 88, 0
2, 74790, Note_on_c, 0, 80, 114
2, 74790, Note_on_c, 0, 83, 114
2, 74790, Note_on_c, 0, 87, 114
2, 74790, Note_on_c, 0, 92, 114
2, 74880, Note_on_c, 0, 92, 0
2, 74880, Note_on_c, 0, 25, 0
2, 74880, Note_on_c, 0, 64, 0
2, 74880, Note_on_c, 0, 37, 0
2, 74880, Note_on_c, 0, 52, 0
2, 74880, Note_on_c, 0, 57, 0
2, 74880, Note_on_c, 0, 83, 0
2, 74880, Note_on_c, 0, 80, 0
2, 74880, Note_on_c, 0, 87, 0
2, 74880, Note_on_c, 0, 81, 113
2, 74880, Note_on_c, 0, 85, 113
2, 74880, Note_on_c, 0, 88, 113
2, 74880, Note_on_c, 0, 93, 113
2, 74880, Note_on_c, 0, 45, 96
2, 74880, Note_on_c, 0, 52, 96
2, 74880, Note_on_c, 0, 57, 96
2, 74970, Note_on_c, 0, 93, 0
2, 74970, Note_on_c, 0, 88, 0
2, 74970, Note_on_c, 0, 81, 0
2, 74970, Note_on_c, 0, 85, 0
2, 74970, Note_on_c, 0, 78, 108
2, 74970, Note_on_c, 0, 81, 108
2, 74970, Note_on_c, 0, 85, 108
2, 74970, Note_on_c, 0, 90, 108
2, 75060, Note_on_c, 0, 90, 0
2, 75060, Note_on_c, 0, 81, 0
2, 75060, Note_on_c, 0, 45, 0
2, 75060, Note_on_c, 0, 57, 0
2, 75060, Note_on_c, 0, 52, 0
2, 75060, Note_on_c, 0, 85, 0
2, 75060, Note_on_c, 0, 78, 0
2, 75060, Note_on_c, 0, 81, 104
2, 75060, Note_on_c, 0, 85, 104
2, 75060, Note_on_c, 0, 88, 104
2, 75060, Note_on_c, 0, 93, 104
2, 75060, Note_on_c, 0, 25, 88
2, 75060, Note_on_c, 0, 37, 88
2, 75150, Note_on_c, 0, 93, 0
2, 75150, Note_on_c, 0, 88, 0
2, 75150, Note_on_c, 0, 81, 0
2, 75150, Note_on_c, 0, 85, 0
2, 75150, Note_on_c, 0, 76, 87
2, 75150, Note_on_c, 0, 80, 87
2, 75150, Note_on_c, 0, 83, 87
2, 75150, Note_on_c, 0, 88, 87
2, 75240, Note_on_c, 0, 88, 0
2, 75240, Note_on_c, 0, 37, 0
2, 75240, Note_on_c, 0, 76, 0
2, 75240, Note_on_c, 0, 25, 0
2, 75240, Note_on_c, 0, 83, 0
2, 75240, Note_on_c, 0, 80, 0
2, 75240, Note_on_c, 0, 81, 111
2, 75240, Note_on_c, 0, 85, 111
2, 75240, Note_on_c, 0, 88, 111
2, 75240, Note_on_c, 0, 93, 111
2, 75240, Note_on_c, 0, 30, 85
2, 75240, Note_on_c, 0, 42, 85
2, 75330, Note_on_c, 0, 42, 0
2, 75330, Note_on_c, 0, 85, 0
2, 75330, Note_on_c, 0, 88, 0
2, 75330, Note_on_c, 0, 81, 0
2, 75330, Note_on_c, 0, 30, 0
2, 75330, Note_on_c, 0, 93, 0
2, 75330, Note_on_c, 0, 73, 79
2, 75330, Note_on_c, 0, 76, 79
2, 75330, Note_on_c, 0, 80, 79
2, 75330, Note_on_c, 0, 85, 79
2, 75330, Note_on_c, 0, 52, 127
2, 75330, Note_on_c, 0, 57, 127
2, 75330, Note_on_c, 0, 64, 127
2, 75420, Note_on_c, 0, 85, 0
2, 75420, Note_on_c, 0, 80, 0
2, 75420, Note_on_c, 0, 73, 0
2, 75420, Note_on_c, 0, 76, 0
2, 75420, Note_on_c, 0, 76, 106
2, 75420, Note_on_c, 0, 81, 106
2, 75420, Note_on_c, 0, 85, 106
2, 75420, Note_on_c, 0, 88, 106
2, 75510, Note_on_c, 0, 88, 0
2, 75510, Note_on_c, 0, 81, 0
2, 75510, Note_on_c, 0, 52, 0
2, 75510, Note_on_c, 0, 64, 0
2, 75510, Note_on_c, 0, 57, 0
2, 75510, Note_on_c, 0, 85, 0
2, 75510, Note_on_c, 0, 76, 0
2, 75510, Note_on_c, 0, 75, 98
2, 75510, Note_on_c, 0, 80, 98
2, 75510, Note_on_c, 0, 83, 98
2, 75510, Note_on_c, 0, 87, 98
2, 75510, Note_on_c, 0, 25, 76
2, 75510, Note_on_c, 0, 37, 76
2, 75600, Note_on_c, 0, 37, 0
2, 75600, Note_on_c, 0, 80, 0
2, 75600, Note_on_c, 0, 83, 0
2, 75600, Note_on_c, 0, 75, 0
2, 75600, Note_on_c, 0, 25, 0
2, 75600, Note_on_c, 0, 87, 0
2, 75600, Note_on_c, 0, 76, 100
2, 75600, Note_on_c, 0, 81, 100
2, 75600, Note_on_c, 0, 85, 100
2, 75600, Note_on_c, 0, 88, 100
2, 75600, Note_on_c, 0, 45, 121
2, 75600, Note_on_c, 0, 52, 121
2, 75600, Note_on_c, 0, 57, 121
2, 75690, Note_on_c, 0, 88, 0
2, 75690, Note_on_c, 0, 85, 0
2, 75690, Note_on_c, 0, 76, 0
2, 75690, Note_on_c, 0, 81, 0
2, 75690, Note_on_c, 0, 73, 92
2, 75690, Note_on_c, 0, 78, 92
2, 75690, Note_on_c, 0, 81, 92
2, 75690, Note_on_c, 0, 85, 92
2, 75780, Note_on_c, 0, 85, 0
2, 75780, Note_on_c, 0, 78, 0
2, 75780, Note_on_c, 0, 73, 0
2, 75780, Note_on_c, 0, 81, 0
2, 75780, Note_on_c, 0, 76, 103
2, 75780, Note_on_c, 0, 81, 103
2, 75780, Note_on_c, 0, 85, 103
2, 75780, Note_on_c, 0, 88, 103
2, 75870, Note_on_c, 0, 88, 0
2, 75870, Note_on_c, 0, 81, 0
2, 75870, Note_on_c, 0, 57, 0
2, 75870, Note_on_c, 0, 52, 0
2, 75870, Note_on_c, 0, 45, 0
2, 75870, Note_on_c, 0, 85, 0
2, 75870, Note_on_c, 0, 76, 0
2, 75870, Note_on_c, 0, 71, 87
2, 75870, Note_on_c, 0, 76, 87
2, 75870, Note_on_c, 0, 80, 87
2, 75870, Note_on_c, 0, 83, 87
2, 75870, Note_on_c, 0, 30, 72
2, 75870, Note_on_c, 0, 42, 72
2, 75960, Note_on_c, 0, 42, 0
2, 75960, Note_on_c, 0, 76, 0
2, 75960, Note_on_c, 0, 80, 0
2, 75960, Note_on_c, 0, 71, 0
2, 75960, Note_on_c, 0, 30, 0
2, 75960, Note_on_c, 0, 83, 0
2, 75960, Note_on_c, 0, 76, 120
2, 75960, Note_on_c, 0, 81, 120
2, 75960, Note_on_c, 0, 85, 120
2, 75960, Note_on_c, 0, 88, 120
2, 75960, Note_on_c, 0, 52, 127
2, 75960, Note_on_c, 0, 57, 127
2, 75960, Note_on_c, 0, 64, 127
2, 76039, Note_on_c, 0, 88, 0
2, 76039, Note_on_c, 0, 85, 0
2, 76039, Note_on_c, 0, 76, 0
2, 76039, Note_on_c, 0, 81, 0
2, 76050, Note_on_c, 0, 68, 82
2, 76050, Note_on_c, 0, 73, 82
2, 76050, Note_on_c, 0, 76, 82
2, 76050, Note_on_c, 0, 80, 82
2, 76140, Note_on_c, 0, 80, 0
2, 76140, Note_on_c, 0, 73, 0
2, 76140, Note_on_c, 0, 68, 0
2, 76140, Note_on_c, 0, 76, 0
2, 76140, Note_on_c, 0, 73, 107
2, 76140, Note_on_c, 0, 81, 107
2, 76140, Note_on_c, 0, 85, 107
2, 76230, Note_on_c, 0, 85, 0
2, 76230, Note_on_c, 0, 64, 0
2, 76230, Note_on_c, 0, 57, 0
2, 76230, Note_on_c, 0, 52, 0
2, 76230, Note_on_c, 0, 81, 0
2, 76230, Note_on_c, 0, 73, 0
2, 76230, Note_on_c, 0, 71, 91
2, 76230, Note_on_c, 0, 80, 91
2, 76230, Note_on_c, 0, 83, 91
2, 76230, Note_on_c, 0, 25, 72
2, 76230, Note_on_c, 0, 37, 72
2, 76320, Note_on_c, 0, 37, 0
2, 76320, Note_on_c, 0, 83, 0
2, 76320, Note_on_c, 0, 71, 0
2, 76320, Note_on_c, 0, 80, 0
2, 76320, Note_on_c, 0, 25, 0
2, 76320, Note_on_c, 0, 73, 109
2, 76320, Note_on_c, 0, 81, 109
2, 76320, Note_on_c, 0, 85, 109
2, 76320, Note_on_c, 0, 45, 116
2, 76320, Note_on_c, 0, 52, 116
2, 76320, Note_on_c, 0, 57, 116
2, 76410, Note_on_c, 0, 85, 0
2, 76410, Note_on_c, 0, 73, 0
2, 76410, Note_on_c, 0, 81, 0
2, 76410, Note_on_c, 0, 69, 95
2, 76410, Note_on_c, 0, 78, 95
2, 76410, Note_on_c, 0, 81, 95
2, 76500, Note_on_c, 0, 81, 0
2, 76500, Note_on_c, 0, 69, 0
2, 76500, Note_on_c, 0, 78, 0
2, 76500, Note_on_c, 0, 73, 112
2, 76500, Note_on_c, 0, 81, 112
2, 76500, Note_on_c, 0, 85, 112
2, 76590, Note_on_c, 0, 85, 0
2, 76590, Note_on_c, 0, 45, 0
2, 76590, Note_on_c, 0, 57, 0
2, 76590, Note_on_c, 0, 52, 0
2, 76590, Note_on_c, 0, 81, 0
2, 76590, Note_on_c, 0, 73, 0
2, 76590, Note_on_c, 0, 68, 86
2, 76590, Note_on_c, 0, 76, 86
2, 76590, Note_on_c, 0, 80, 86
2, 76590, Note_on_c, 0, 30, 79
2, 76590, Note_on_c, 0, 42, 79
2, 76680, Note_on_c, 0, 42, 0
2, 76680, Note_on_c, 0, 80, 0
2, 76680, Note_on_c, 0, 68, 0
2, 76680, Note_on_c, 0, 76, 0
2, 76680, Note_on_c, 0, 30, 0
2, 76680, Note_on_c, 0, 73, 127
2, 76680, Note_on_c, 0, 81, 127
2, 76680, Note_on_c, 0, 85, 127
2, 76680, Note_on_c, 0, 52, 118
2, 76680, Note_on_c, 0, 57, 118
2, 76680, Note_on_c, 0, 64, 118
2, 76759, Note_on_c, 0, 85, 0
2, 76759, Note_on_c, 0, 73, 0
2, 76759, Note_on_c, 0, 81, 0
2, 76770, Note_on_c, 0, 64, 82
2, 76770, Note_on_c, 0, 73, 82
2, 76770, Note_on_c, 0, 76, 82
2, 76860, Note_on_c, 0, 76, 0
2, 76860, Note_on_c, 0, 64, 0
2, 76860, Note_on_c, 0, 73, 0
2, 76916, Note_on_c, 0, 52, 0
2, 76916, Note_on_c, 0, 64, 0
2, 76916, Note_on_c, 0, 57, 0
2, 76950, Note_on_c, 0, 37, 73
2, 77040, Note_on_c, 0, 37, 0
2, 77040, Note_on_c, 0, 69, 100
2, 77040, Note_on_c, 0, 73, 100
2, 77040, Note_on_c, 0, 76, 100
2, 77040, Note_on_c, 0, 81, 100
2, 77040, Note_on_c, 0, 45, 108
2, 77040, Note_on_c, 0, 52, 108
2, 77040, Note_on_c, 0, 57, 108
2, 77119, Note_on_c, 0, 81, 0
2, 77119, Note_on_c, 0, 76, 0
2, 77119, Note_on_c, 0, 69, 0
2, 77119, Note_on_c, 0, 73, 0
2, 77130, Note_on_c, 0, 68, 97
2, 77130, Note_on_c, 0, 71, 97
2, 77130, Note_on_c, 0, 75, 97
2, 77130, Note_on_c, 0, 80, 97
2, 77220, Note_on_c, 0, 80, 0
2, 77220, Note_on_c, 0, 71, 0
2, 77220, Note_on_c, 0, 68, 0
2, 77220, Note_on_c, 0, 75, 0
2, 77220, Note_on_c, 0, 69, 93
2, 77220, Note_on_c, 0, 73, 93
2, 77220, Note_on_c, 0, 76, 93
2, 77220, Note_on_c, 0, 81, 93
2, 77276, Note_on_c, 0, 52, 0
2, 77276, Note_on_c, 0, 45, 0
2, 77276, Note_on_c, 0, 57, 0
2, 77310, Note_on_c, 0, 73, 0
2, 77310, Note_on_c, 0, 69, 0
2, 77310, Note_on_c, 0, 76, 0
2, 77310, Note_on_c, 0, 81, 0
2, 77310, Note_on_c, 0, 66, 90
2, 77310, Note_on_c, 0, 69, 90
2, 77310, Note_on_c, 0, 73, 90
2, 77310, Note_on_c, 0, 78, 90
2, 77310, Note_on_c, 0, 42, 71
2, 77400, Note_on_c, 0, 42, 0
2, 77400, Note_on_c, 0, 73, 0
2, 77400, Note_on_c, 0, 66, 0
2, 77400, Note_on_c, 0, 69, 0
2, 77400, Note_on_c, 0, 78, 0
2, 77400, Note_on_c, 0, 52, 117
2, 77400, Note_on_c, 0, 57, 117
2, 77400, Note_on_c, 0, 64, 117
2, 77580, Note_on_c, 0, 69, 87
2, 77580, Note_on_c, 0, 73, 87
2, 77580, Note_on_c, 0, 76, 87
2, 77636, Note_on_c, 0, 64, 0
2, 77636, Note_on_c, 0, 52, 0
2, 77636, Note_on_c, 0, 57, 0
2, 77670, Note_on_c, 0, 69, 0
2, 77670, Note_on_c, 0, 73, 0
2, 77670, Note_on_c, 0, 76, 0
2, 77670, Note_on_c, 0, 64, 81
2, 77670, Note_on_c, 0, 68, 81
2, 77670, Note_on_c, 0, 71, 81
2, 77670, Note_on_c, 0, 37, 73
2, 77760, Note_on_c, 0, 37, 0
2, 77760, Note_on_c, 0, 64, 0
2, 77760, Note_on_c, 0, 68, 0
2, 77760, Note_on_c, 0, 71, 0
2, 77760, Note_on_c, 0, 45, 105
2, 77760, Note_on_c, 0, 52, 105
2, 77760, Note_on_c, 0, 57, 105
2, 77996, Note_on_c, 0, 57, 0
2, 77996, Note_on_c, 0, 52, 0
2, 77996, Note_on_c, 0, 45, 0
2, 78030, Note_on_c, 0, 69, 68
2, 78030, Note_on_c, 0, 73, 68
2, 78030, Note_on_c, 0, 76, 68
2, 78030, Note_on_c, 0, 42, 75
2, 78120, Note_on_c, 0, 42, 0
2, 78120, Note_on_c, 0, 69, 0
2, 78120, Note_on_c, 0, 73, 0
2, 78120, Note_on_c, 0, 76, 0
2, 78120, Note_on_c, 0, 61, 46
2, 78120, Note_on_c, 0, 68, 46
2, 78120, Note_on_c, 0, 52, 77
2, 78120, Note_on_c, 0, 57, 77
2, 78120, Note_on_c, 0, 64, 77
2, 78300, Note_on_c, 0, 68, 0
2, 78300, Note_on_c, 0, 61, 0
2, 78480, Note_on_c, 0, 57, 0
2, 78480, Note_on_c, 0, 52, 0
2, 78480, Note_on_c, 0, 64, 0
2, 78480, Note_on_c, 0, 57, 57
2, 78480, Note_on_c, 0, 37, 55
2, 78480, Note_on_c, 0, 45, 55
2, 78480, Note_on_c, 0, 52, 55
2, 78840, Note_on_c, 0, 52, 0
2, 78840, Note_on_c, 0, 57, 0
2, 78840, Note_on_c, 0, 37, 0
2, 78840, Note_on_c, 0, 45, 0
2, 78840, Note_on_c, 0, 56, 70
2, 78840, Note_on_c, 0, 64, 70
2, 78840, Note_on_c, 0, 42, 58
2, 78840, Note_on_c, 0, 49, 58
2, 79200, Note_on_c, 0, 49, 0
2, 79200, Note_on_c, 0, 56, 0
2, 79200, Note_on_c, 0, 64, 0
2, 79200, Note_on_c, 0, 42, 0
2, 79200, Note_on_c, 0, 57, 56
2, 79200, Note_on_c, 0, 37, 58
2, 79200, Note_on_c, 0, 45, 58
2, 79200, Note_on_c, 0, 52, 58
2, 79560, Note_on_c, 0, 52, 0
2, 79560, Note_on_c, 0, 57, 0
2, 79560, Note_on_c, 0, 37, 0
2, 79560, Note_on_c, 0, 45, 0
2, 79560, Note_on_c, 0, 56, 68
2, 79560, Note_on_c, 0, 64, 68
2, 79560, Note_on_c, 0, 42, 58
2, 79560, Note_on_c, 0, 49, 58
2, 79740, Note_on_c, 0, 80, 67
2, 79920, Note_on_c, 0, 49, 0
2, 79920, Note_on_c, 0, 42, 0
2, 79920, Note_on_c, 0, 56, 0
2, 79920, Note_on_c, 0, 64, 0
2, 79920, Note_on_c, 0, 57, 57
2, 79920, Note_on_c, 0, 37, 64
2, 79920, Note_on_c, 0, 45, 64
2, 79920, Note_on_c, 0, 52, 64
2, 80057, Note_on_c, 0, 80, 0
2, 80100, Note_on_c, 0, 73, 49
2, 80280, Note_on_c, 0, 73, 0
2, 80280, Note_on_c, 0, 52, 0
2, 80280, Note_on_c, 0, 57, 0
2, 80280, Note_on_c, 0, 37, 0
2, 80280, Note_on_c, 0, 45, 0
2, 80280, Note_on_c, 0, 56, 72
2, 80280, Note_on_c, 0, 64, 72
2, 80280, Note_on_c, 0, 42, 59
2, 80280, Note_on_c, 0, 49, 59
2, 80460, Note_on_c, 0, 68, 66
2, 80640, Note_on_c, 0, 49, 0
2, 80640, Note_on_c, 0, 42, 0
2, 80640, Note_on_c, 0, 56, 0
2, 80640, Note_on_c, 0, 64, 0
2, 80640, Note_on_c, 0, 57, 54
2, 80640, Note_on_c, 0, 37, 67
2, 80640, Note_on_c, 0, 45, 67
2, 80640, Note_on_c, 0, 52, 67
2, 80777, Note_on_c, 0, 68, 0
2, 80820, Note_on_c, 0, 61, 50
2, 81000, Note_on_c, 0, 61, 0
2, 81000, Note_on_c, 0, 52, 0
2, 81000, Note_on_c, 0, 57, 0
2, 81000, Note_on_c, 0, 37, 0
2, 81000, Note_on_c, 0, 45, 0
2, 81000, Note_on_c, 0, 56, 74
2, 81000, Note_on_c, 0, 64, 74
2, 81000, Note_on_c, 0, 42, 61
2, 81000, Note_on_c, 0, 49, 61
2, 81180, Note_on_c, 0, 80, 69
2, 81360, Note_on_c, 0, 49, 0
2, 81360, Note_on_c, 0, 42, 0
2, 81360, Note_on_c, 0, 56, 0
2, 81360, Note_on_c, 0, 64, 0
2, 81360, Note_on_c, 0, 57, 55
2, 81360, Note_on_c, 0, 37, 63
2, 81360, Note_on_c, 0, 45, 63
2, 81360, Note_on_c, 0, 52, 63
2, 81497, Note_on_c, 0, 80, 0
2, 81540, Note_on_c, 0, 73, 49
2, 81720, Note_on_c, 0, 73, 0
2, 81720, Note_on_c, 0, 52, 0
2, 81720, Note_on_c, 0, 57, 0
2, 81720, Note_on_c, 0, 37, 0
2, 81720, Note_on_c, 0, 45, 0
2, 81720, Note_on_c, 0, 56, 78
2, 81720, Note_on_c, 0, 64, 78
2, 81720, Note_on_c, 0, 42, 57
2, 81720, Note_on_c, 0, 49, 57
2, 81900, Note_on_c, 0, 68, 64
2, 82080, Note_on_c, 0, 49, 0
2, 82080, Note_on_c, 0, 42, 0
2, 82080, Note_on_c, 0, 56, 0
2, 82080, Note_on_c, 0, 64, 0
2, 82080, Note_on_c, 0, 62, 60
2, 82080, Note_on_c, 0, 41, 62
2, 82080, Note_on_c, 0, 50, 62
2, 82217, Note_on_c, 0, 68, 0
2, 82260, Note_on_c, 0, 59, 53
2, 82440, Note_on_c, 0, 59, 0
2, 82440, Note_on_c, 0, 50, 0
2, 82440, Note_on_c, 0, 41, 0
2, 82440, Note_on_c, 0, 62, 0
2, 82440, Note_on_c, 0, 61, 54
2, 82440, Note_on_c, 0, 42, 68
2, 82440, Note_on_c, 0, 49, 68
2, 82440, Note_on_c, 0, 57, 68
2, 82620, Note_on_c, 0, 80, 65
2, 82800, Note_on_c, 0, 57, 0
2, 82800, Note_on_c, 0, 49, 0
2, 82800, Note_on_c, 0, 61, 0
2, 82800, Note_on_c, 0, 42, 0
2, 82800, Note_on_c, 0, 57, 54
2, 82800, Note_on_c, 0, 37, 56
2, 82800, Note_on_c, 0, 45, 56
2, 82800, Note_on_c, 0, 52, 56
2, 82937, Note_on_c, 0, 80, 0
2, 82980, Note_on_c, 0, 73, 52
2, 83160, Note_on_c, 0, 73, 0
2, 83160, Note_on_c, 0, 52, 0
2, 83160, Note_on_c, 0, 57, 0
2, 83160, Note_on_c, 0, 37, 0
2, 83160, Note_on_c, 0, 45, 0
2, 83160, Note_on_c, 0, 61, 67
2, 83160, Note_on_c, 0, 42, 67
2, 83160, Note_on_c, 0, 49, 67
2, 83160, Note_on_c, 0, 57, 67
2, 83340, Note_on_c, 0, 68, 68
2, 83520, Note_on_c, 0, 57, 0
2, 83520, Note_on_c, 0, 49, 0
2, 83520, Note_on_c, 0, 61, 0
2, 83520, Note_on_c, 0, 42, 0
2, 83520, Note_on_c, 0, 59, 60
2, 83520, Note_on_c, 0, 56, 57
2, 83520, Note_on_c, 0, 39, 60
2, 83520, Note_on_c, 0, 47, 60
2, 83520, Note_on_c, 0, 54, 60
2, 83657, Note_on_c, 0, 68, 0
2, 83700, Note_on_c, 0, 57, 49
2, 83880, Note_on_c, 0, 57, 0
2, 83880, Note_on_c, 0, 54, 0
2, 83880, Note_on_c, 0, 39, 0
2, 83880, Note_on_c, 0, 59, 0
2, 83880, Note_on_c, 0, 47, 0
2, 83880, Note_on_c, 0, 60, 64
2, 83880, Note_on_c, 0, 38, 56
2, 83880, Note_on_c, 0, 45, 56
2, 83880, Note_on_c, 0, 54, 56
2, 84060, Note_on_c, 0, 64, 66
2, 84240, Note_on_c, 0, 54, 0
2, 84240, Note_on_c, 0, 45, 0
2, 84240, Note_on_c, 0, 38, 0
2, 84240, Note_on_c, 0, 56, 0
2, 84240, Note_on_c, 0, 60, 0
2, 84240, Note_on_c, 0, 61, 68
2, 84240, Note_on_c, 0, 54, 69
2, 84240, Note_on_c, 0, 33, 57
2, 84240, Note_on_c, 0, 45, 57
2, 84240, Note_on_c, 0, 52, 57
2, 84377, Note_on_c, 0, 64, 0
2, 84420, Note_on_c, 0, 57, 56
2, 84600, Note_on_c, 0, 57, 0
2, 84600, Note_on_c, 0, 52, 0
2, 84600, Note_on_c, 0, 33, 0
2, 84600, Note_on_c, 0, 61, 0
2, 84600, Note_on_c, 0, 45, 0
2, 84600, Note_on_c, 0, 59, 57
2, 84600, Note_on_c, 0, 38, 61
2, 84600, Note_on_c, 0, 45, 61
2, 84600, Note_on_c, 0, 54, 61
2, 84780, Note_on_c, 0, 64, 67
2, 84960, Note_on_c, 0, 54, 0
2, 84960, Note_on_c, 0, 45, 0
2, 84960, Note_on_c, 0, 38, 0
2, 84960, Note_on_c, 0, 54, 0
2, 84960, Note_on_c, 0, 59, 0
2, 84960, Note_on_c, 0, 60, 61
2, 84960, Note_on_c, 0, 53, 73
2, 84960, Note_on_c, 0, 44, 54
2, 85097, Note_on_c, 0, 64, 0
2, 85140, Note_on_c, 0, 57, 56
2, 85320, Note_on_c, 0, 57, 0
2, 85320, Note_on_c, 0, 44, 0
2, 85320, Note_on_c, 0, 53, 0
2, 85320, Note_on_c, 0, 60, 0
2, 85320, Note_on_c, 0, 52, 2
2, 85320, Note_on_c, 0, 61, 98
2, 85320, Note_on_c, 0, 33, 54
2, 85320, Note_on_c, 0, 45, 54
2, 85500, Note_on_c, 0, 80, 67
2, 85680, Note_on_c, 0, 45, 0
2, 85680, Note_on_c, 0, 33, 0
2, 85680, Note_on_c, 0, 52, 0
2, 85680, Note_on_c, 0, 38, 58
2, 85680, Note_on_c, 0, 45, 58
2, 85680, Note_on_c, 0, 54, 58
2, 85817, Note_on_c, 0, 80, 0
2, 85860, Note_on_c, 0, 72, 49
2, 85953, Note_on_c, 0, 61, 0
2, 86040, Note_on_c, 0, 54, 0
2, 86040, Note_on_c, 0, 45, 0
2, 86040, Note_on_c, 0, 38, 0
2, 86040, Note_on_c, 0, 72, 0
2, 86040, Note_on_c, 0, 52, 2
2, 86040, Note_on_c, 0, 61, 88
2, 86040, Note_on_c, 0, 33, 43
2, 86040, Note_on_c, 0, 45, 43
2, 86220, Note_on_c, 0, 80, 67
2, 86220, Note_on_c, 0, 64, 79
2, 86220, Note_on_c, 0, 76, 79
2, 86310, Note_on_c, 0, 76, 0
2, 86310, Note_on_c, 0, 64, 0
2, 86310, Note_on_c, 0, 63, 61
2, 86310, Note_on_c, 0, 75, 61
2, 86400, Note_on_c, 0, 75, 0
2, 86400, Note_on_c, 0, 52, 0
2, 86400, Note_on_c, 0, 45, 0
2, 86400, Note_on_c, 0, 33, 0
2, 86400, Note_on_c, 0, 63, 0
2, 86400, Note_on_c, 0, 64, 64
2, 86400, Note_on_c, 0, 76, 64
2, 86400, Note_on_c, 0, 38, 55
2, 86400, Note_on_c, 0, 45, 55
2, 86400, Note_on_c, 0, 54, 55
2, 86490, Note_on_c, 0, 76, 0
2, 86490, Note_on_c, 0, 64, 0
2, 86490, Note_on_c, 0, 60, 53
2, 86490, Note_on_c, 0, 72, 53
2, 86537, Note_on_c, 0, 80, 0
2, 86580, Note_on_c, 0, 60, 0
2, 86580, Note_on_c, 0, 72, 0
2, 86580, Note_on_c, 0, 72, 47
2, 86580, Note_on_c, 0, 64, 69
2, 86580, Note_on_c, 0, 76, 69
2, 86670, Note_on_c, 0, 76, 0
2, 86670, Note_on_c, 0, 64, 0
2, 86670, Note_on_c, 0, 57, 53
2, 86670, Note_on_c, 0, 69, 53
2, 86673, Note_on_c, 0, 61, 0
2, 86760, Note_on_c, 0, 57, 0
2, 86760, Note_on_c, 0, 45, 0
2, 86760, Note_on_c, 0, 38, 0
2, 86760, Note_on_c, 0, 54, 0
2, 86760, Note_on_c, 0, 69, 0
2, 86760, Note_on_c, 0, 72, 0
2, 86760, Note_on_c, 0, 60, 60
2, 86760, Note_on_c, 0, 52, 63
2, 86760, Note_on_c, 0, 33, 46
2, 86760, Note_on_c, 0, 45, 46
2, 86940, Note_on_c, 0, 68, 64
2, 87120, Note_on_c, 0, 45, 0
2, 87120, Note_on_c, 0, 33, 0
2, 87120, Note_on_c, 0, 52, 0
2, 87120, Note_on_c, 0, 38, 54
2, 87120, Note_on_c, 0, 45, 54
2, 87120, Note_on_c, 0, 54, 54
2, 87257, Note_on_c, 0, 68, 0
2, 87300, Note_on_c, 0, 60, 50
2, 87393, Note_on_c, 0, 60, 0
2, 87480, Note_on_c, 0, 54, 0
2, 87480, Note_on_c, 0, 45, 0
2, 87480, Note_on_c, 0, 38, 0
2, 87480, Note_on_c, 0, 60, 0
2, 87480, Note_on_c, 0, 60, 70
2, 87480, Note_on_c, 0, 52, 62
2, 87480, Note_on_c, 0, 33, 44
2, 87480, Note_on_c, 0, 45, 44
2, 87660, Note_on_c, 0, 68, 71
2, 87840, Note_on_c, 0, 45, 0
2, 87840, Note_on_c, 0, 33, 0
2, 87840, Note_on_c, 0, 52, 0
2, 87840, Note_on_c, 0, 38, 53
2, 87840, Note_on_c, 0, 45, 53
2, 87840, Note_on_c, 0, 54, 53
2, 87977, Note_on_c, 0, 68, 0
2, 88020, Note_on_c, 0, 60, 42
2, 88113, Note_on_c, 0, 60, 0
2, 88200, Note_on_c, 0, 54, 0
2, 88200, Note_on_c, 0, 45, 0
2, 88200, Note_on_c, 0, 38, 0
2, 88200, Note_on_c, 0, 60, 0
2, 88200, Note_on_c, 0, 60, 61
2, 88200, Note_on_c, 0, 32, 48
2, 88200, Note_on_c, 0, 44, 48
2, 88245, Note_on_c, 0, 60, 0
2, 88245, Note_on_c, 0, 54, 58
2, 88290, Note_on_c, 0, 54, 0
2, 88290, Note_on_c, 0, 60, 60
2, 88335, Note_on_c, 0, 60, 0
2, 88335, Note_on_c, 0, 54, 59
2, 88380, Note_on_c, 0, 54, 0
2, 88380, Note_on_c, 0, 60, 57
2, 88425, Note_on_c, 0, 60, 0
2, 88425, Note_on_c, 0, 54, 56
2, 88470, Note_on_c, 0, 54, 0
2, 88470, Note_on_c, 0, 60, 54
2, 88515, Note_on_c, 0, 60, 0
2, 88515, Note_on_c, 0, 54, 53
2, 88560, Note_on_c, 0, 54, 0
2, 88560, Note_on_c, 0, 44, 0
2, 88560, Note_on_c, 0, 32, 0
2, 88560, Note_on_c, 0, 60, 51
2, 88605, Note_on_c, 0, 60, 0
2, 88605, Note_on_c, 0, 54, 49
2, 88650, Note_on_c, 0, 54, 0
2, 88650, Note_on_c, 0, 60, 53
2, 88695, Note_on_c, 0, 60, 0
2, 88695, Note_on_c, 0, 54, 46
2, 88740, Note_on_c, 0, 54, 0
2, 88740, Note_on_c, 0, 60, 52
2, 88785, Note_on_c, 0, 60, 0
2, 88785, Note_on_c, 0, 54, 50
2, 88830, Note_on_c, 0, 54, 0
2, 88830, Note_on_c, 0, 60, 57
2, 88875, Note_on_c, 0, 60, 0
2, 88875, Note_on_c, 0, 54, 50
2, 88920, Note_on_c, 0, 54, 0
2, 88920, Note_on_c, 0, 60, 55
2, 88965, Note_on_c, 0, 60, 0
2, 88965, Note_on_c, 0, 54, 46
2, 89010, Note_on_c, 0, 54, 0
2, 89010, Note_on_c, 0, 60, 61
2, 89055, Note_on_c, 0, 60, 0
2, 89055, Note_on_c, 0, 54, 42
2, 89100, Note_on_c, 0, 54, 0
2, 89100, Note_on_c, 0, 60, 53
2, 89145, Note_on_c, 0, 60, 0
2, 89145, Note_on_c, 0, 54, 44
2, 89190, Note_on_c, 0, 54, 0
2, 89190, Note_on_c, 0, 60, 55
2, 89235, Note_on_c, 0, 60, 0
2, 89235, Note_on_c, 0, 54, 48
2, 89280, Note_on_c, 0, 54, 0
2, 89280, Note_on_c, 0, 60, 87
2, 89325, Note_on_c, 0, 54, 45
2, 89370, Note_on_c, 0, 54, 0
2, 89370, Note_on_c, 0, 60, 49
2, 89415, Note_on_c, 0, 60, 0
2, 89415, Note_on_c, 0, 54, 47
2, 89460, Note_on_c, 0, 54, 0
2, 89460, Note_on_c, 0, 60, 49
2, 89490, Note_on_c, 0, 60, 0
2, 89505, Note_on_c, 0, 60, 0
2, 89505, Note_on_c, 0, 54, 47
2, 89519, Note_on_c, 0, 71, 105
2, 89550, Note_on_c, 0, 54, 0
2, 89550, Note_on_c, 0, 60, 55
2, 89595, Note_on_c, 0, 60, 0
2, 89595, Note_on_c, 0, 54, 48
2, 89640, Note_on_c, 0, 54, 0
2, 89640, Note_on_c, 0, 71, 0
2, 89640, Note_on_c, 0, 69, 78
2, 89640, Note_on_c, 0, 60, 44
2, 89675, Note_on_c, 0, 60, 0
2, 89685, Note_on_c, 0, 54, 45
2, 89720, Note_on_c, 0, 54, 0
2, 89730, Note_on_c, 0, 60, 44
2, 89765, Note_on_c, 0, 60, 0
2, 89775, Note_on_c, 0, 54, 45
2, 89810, Note_on_c, 0, 54, 0
2, 89820, Note_on_c, 0, 60, 44
2, 89855, Note_on_c, 0, 60, 0
2, 89865, Note_on_c, 0, 54, 45
2, 89900, Note_on_c, 0, 54, 0
2, 89910, Note_on_c, 0, 60, 44
2, 89945, Note_on_c, 0, 60, 0
2, 89955, Note_on_c, 0, 54, 45
2, 89990, Note_on_c, 0, 54, 0
2, 90000, Note_on_c, 0, 57, 51
2, 90000, Note_on_c, 0, 32, 88
2, 90000, Note_on_c, 0, 44, 88
2, 90000, Note_on_c, 0, 66, 62
2, 90035, Note_on_c, 0, 66, 0
2, 90045, Note_on_c, 0, 60, 44
2, 90080, Note_on_c, 0, 60, 0
2, 90090, Note_on_c, 0, 66, 62
2, 90125, Note_on_c, 0, 66, 0
2, 90135, Note_on_c, 0, 60, 44
2, 90170, Note_on_c, 0, 60, 0
2, 90180, Note_on_c, 0, 66, 62
2, 90215, Note_on_c, 0, 66, 0
2, 90225, Note_on_c, 0, 60, 44
2, 90260, Note_on_c, 0, 60, 0
2, 90270, Note_on_c, 0, 66, 62
2, 90305, Note_on_c, 0, 66, 0
2, 90315, Note_on_c, 0, 60, 44
2, 90350, Note_on_c, 0, 60, 0
2, 90360, Note_on_c, 0, 44, 0
2, 90360, Note_on_c, 0, 32, 0
2, 90360, Note_on_c, 0, 57, 0
2, 90360, Note_on_c, 0, 57, 51
2, 90360, Note_on_c, 0, 65, 61
2, 90395, Note_on_c, 0, 65, 0
2, 90405, Note_on_c, 0, 60, 45
2, 90440, Note_on_c, 0, 60, 0
2, 90450, Note_on_c, 0, 65, 61
2, 90485, Note_on_c, 0, 65, 0
2, 90495, Note_on_c, 0, 60, 45
2, 90530, Note_on_c, 0, 60, 0
2, 90540, Note_on_c, 0, 65, 61
2, 90575, Note_on_c, 0, 65, 0
2, 90585, Note_on_c, 0, 60, 45
2, 90620, Note_on_c, 0, 60, 0
2, 90630, Note_on_c, 0, 65, 61
2, 90665, Note_on_c, 0, 65, 0
2, 90675, Note_on_c, 0, 60, 45
2, 90710, Note_on_c, 0, 60, 0
2, 90720, Note_on_c, 0, 57, 0
2, 90720, Note_on_c, 0, 69, 0
2, 90720, Note_on_c, 0, 68, 83
2, 90720, Note_on_c, 0, 56, 48
2, 90720, Note_on_c, 0, 64, 50
2, 90765, Note_on_c, 0, 64, 0
2, 90765, Note_on_c, 0, 57, 48
2, 90810, Note_on_c, 0, 57, 0
2, 90810, Note_on_c, 0, 64, 47
2, 90855, Note_on_c, 0, 64, 0
2, 90855, Note_on_c, 0, 57, 45
2, 90900, Note_on_c, 0, 57, 0
2, 90900, Note_on_c, 0, 64, 43
2, 90945, Note_on_c, 0, 64, 0
2, 90945, Note_on_c, 0, 57, 41
2, 90959, Note_on_c, 0, 68, 0
2, 90959, Note_on_c, 0, 64, 74
2, 90990, Note_on_c, 0, 57, 0
2, 90990, Note_on_c, 0, 64, 39
2, 91035, Note_on_c, 0, 64, 0
2, 91035, Note_on_c, 0, 57, 35
2, 91080, Note_on_c, 0, 57, 0
2, 91080, Note_on_c, 0, 64, 0
2, 91080, Note_on_c, 0, 56, 0
2, 91080, Note_on_c, 0, 66, 75
2, 91080, Note_on_c, 0, 63, 58
2, 91080, Note_on_c, 0, 54, 35
2, 91115, Note_on_c, 0, 63, 0
2, 91125, Note_on_c, 0, 57, 49
2, 91160, Note_on_c, 0, 57, 0
2, 91170, Note_on_c, 0, 63, 58
2, 91205, Note_on_c, 0, 63, 0
2, 91215, Note_on_c, 0, 57, 49
2, 91250, Note_on_c, 0, 57, 0
2, 91260, Note_on_c, 0, 63, 58
2, 91295, Note_on_c, 0, 63, 0
2, 91305, Note_on_c, 0, 57, 49
2, 91340, Note_on_c, 0, 57, 0
2, 91350, Note_on_c, 0, 63, 58
2, 91385, Note_on_c, 0, 63, 0
2, 91395, Note_on_c, 0, 57, 49
2, 91430, Note_on_c, 0, 57, 0
2, 91440, Note_on_c, 0, 54, 0
2, 91440, Note_on_c, 0, 62, 58
2, 91440, Note_on_c, 0, 53, 35
2, 91440, Note_on_c, 0, 32, 79
2, 91440, Note_on_c, 0, 44, 79
2, 91475, Note_on_c, 0, 62, 0
2, 91485, Note_on_c, 0, 57, 51
2, 91520, Note_on_c, 0, 57, 0
2, 91530, Note_on_c, 0, 62, 58
2, 91565, Note_on_c, 0, 62, 0
2, 91575, Note_on_c, 0, 57, 51
2, 91610, Note_on_c, 0, 57, 0
2, 91620, Note_on_c, 0, 62, 58
2, 91655, Note_on_c, 0, 62, 0
2, 91665, Note_on_c, 0, 57, 51
2, 91700, Note_on_c, 0, 57, 0
2, 91710, Note_on_c, 0, 62, 58
2, 91745, Note_on_c, 0, 62, 0
2, 91755, Note_on_c, 0, 57, 51
2, 91790, Note_on_c, 0, 57, 0
2, 91800, Note_on_c, 0, 44, 0
2, 91800, Note_on_c, 0, 32, 0
2, 91800, Note_on_c, 0, 53, 0
2, 91800, Note_on_c, 0, 61, 54
2, 91800, Note_on_c, 0, 52, 36
2, 91835, Note_on_c, 0, 61, 0
2, 91845, Note_on_c, 0, 57, 50
2, 91880, Note_on_c, 0, 57, 0
2, 91890, Note_on_c, 0, 61, 54
2, 91925, Note_on_c, 0, 61, 0
2, 91935, Note_on_c, 0, 57, 50
2, 91970, Note_on_c, 0, 57, 0
2, 91980, Note_on_c, 0, 66, 0
2, 91980, Note_on_c, 0, 61, 54
2, 92015, Note_on_c, 0, 61, 0
2, 92025, Note_on_c, 0, 57, 50
2, 92060, Note_on_c, 0, 57, 0
2, 92070, Note_on_c, 0, 61, 54
2, 92105, Note_on_c, 0, 61, 0
2, 92115, Note_on_c, 0, 57, 50
2, 92150, Note_on_c, 0, 57, 0
2, 92160, Note_on_c, 0, 52, 0
2, 92160, Note_on_c, 0, 68, 64
2, 92160, Note_on_c, 0, 62, 53
2, 92160, Note_on_c, 0, 53, 35
2, 92195, Note_on_c, 0, 62, 0
2, 92205, Note_on_c, 0, 58, 47
2, 92232, Note_on_c, 0, 68, 0
2, 92232, Note_on_c, 0, 67, 68
2, 92240, Note_on_c, 0, 58, 0
2, 92250, Note_on_c, 0, 62, 53
2, 92285, Note_on_c, 0, 62, 0
2, 92295, Note_on_c, 0, 58, 47
2, 92304, Note_on_c, 0, 67, 0
2, 92304, Note_on_c, 0, 66, 67
2, 92330, Note_on_c, 0, 58, 0
2, 92340, Note_on_c, 0, 62, 53
2, 92375, Note_on_c, 0, 62, 0
2, 92375, Note_on_c, 0, 66, 0
2, 92375, Note_on_c, 0, 65, 67
2, 92385, Note_on_c, 0, 58, 47
2, 92420, Note_on_c, 0, 58, 0
2, 92430, Note_on_c, 0, 62, 53
2, 92447, Note_on_c, 0, 65, 0
2, 92447, Note_on_c, 0, 67, 73
2, 92465, Note_on_c, 0, 62, 0
2, 92475, Note_on_c, 0, 58, 47
2, 92510, Note_on_c, 0, 58, 0
2, 92520, Note_on_c, 0, 67, 0
2, 92520, Note_on_c, 0, 53, 0
2, 92520, Note_on_c, 0, 66, 72
2, 92520, Note_on_c, 0, 61, 56
2, 92520, Note_on_c, 0, 52, 35
2, 92555, Note_on_c, 0, 61, 0
2, 92565, Note_on_c, 0, 57, 44
2, 92600, Note_on_c, 0, 57, 0
2, 92610, Note_on_c, 0, 61, 56
2, 92645, Note_on_c, 0, 61, 0
2, 92655, Note_on_c, 0, 57, 44
2, 92690, Note_on_c, 0, 57, 0
2, 92700, Note_on_c, 0, 61, 56
2, 92700, Note_on_c, 0, 32, 79
2, 92700, Note_on_c, 0, 44, 79
2, 92735, Note_on_c, 0, 61, 0
2, 92745, Note_on_c, 0, 57, 44
2, 92780, Note_on_c, 0, 57, 0
2, 92790, Note_on_c, 0, 61, 56
2, 92825, Note_on_c, 0, 61, 0
2, 92835, Note_on_c, 0, 57, 44
2, 92870, Note_on_c, 0, 57, 0
2, 92880, Note_on_c, 0, 52, 0
2, 92880, Note_on_c, 0, 60, 56
2, 92880, Note_on_c, 0, 51, 36
2, 92915, Note_on_c, 0, 60, 0
2, 92925, Note_on_c, 0, 56, 48
2, 92960, Note_on_c, 0, 56, 0
2, 92970, Note_on_c, 0, 60, 56
2, 93005, Note_on_c, 0, 60, 0
2, 93015, Note_on_c, 0, 56, 48
2, 93050, Note_on_c, 0, 56, 0
2, 93060, Note_on_c, 0, 44, 0
2, 93060, Note_on_c, 0, 32, 0
2, 93060, Note_on_c, 0, 60, 56
2, 93095, Note_on_c, 0, 60, 0
2, 93105, Note_on_c, 0, 56, 48
2, 93140, Note_on_c, 0, 56, 0
2, 93150, Note_on_c, 0, 60, 56
2, 93185, Note_on_c, 0, 60, 0
2, 93195, Note_on_c, 0, 56, 48
2, 93230, Note_on_c, 0, 56, 0
2, 93240, Note_on_c, 0, 51, 0
2, 93240, Note_on_c, 0, 59, 51
2, 93240, Note_on_c, 0, 50, 37
2, 93275, Note_on_c, 0, 59, 0
2, 93285, Note_on_c, 0, 55, 44
2, 93320, Note_on_c, 0, 55, 0
2, 93330, Note_on_c, 0, 59, 51
2, 93365, Note_on_c, 0, 59, 0
2, 93375, Note_on_c, 0, 55, 44
2, 93410, Note_on_c, 0, 55, 0
2, 93420, Note_on_c, 0, 66, 0
2, 93420, Note_on_c, 0, 59, 51
2, 93420, Note_on_c, 0, 28, 84
2, 93420, Note_on_c, 0, 40, 84
2, 93455, Note_on_c, 0, 59, 0
2, 93465, Note_on_c, 0, 55, 44
2, 93500, Note_on_c, 0, 55, 0
2, 93510, Note_on_c, 0, 59, 51
2, 93545, Note_on_c, 0, 59, 0
2, 93555, Note_on_c, 0, 55, 44
2, 93590, Note_on_c, 0, 55, 0
2, 93600, Note_on_c, 0, 50, 0
2, 93600, Note_on_c, 0, 68, 63
2, 93600, Note_on_c, 0, 60, 56
2, 93600, Note_on_c, 0, 51, 36
2, 93635, Note_on_c, 0, 60, 0
2, 93645, Note_on_c, 0, 56, 45
2, 93680, Note_on_c, 0, 56, 0
2, 93690, Note_on_c, 0, 60, 56
2, 93720, Note_on_c, 0, 68, 0
2, 93720, Note_on_c, 0, 65, 66
2, 93725, Note_on_c, 0, 60, 0
2, 93735, Note_on_c, 0, 56, 45
2, 93770, Note_on_c, 0, 56, 0
2, 93780, Note_on_c, 0, 40, 0
2, 93780, Note_on_c, 0, 28, 0
2, 93780, Note_on_c, 0, 60, 56
2, 93815, Note_on_c, 0, 60, 0
2, 93825, Note_on_c, 0, 56, 45
2, 93839, Note_on_c, 0, 65, 0
2, 93839, Note_on_c, 0, 67, 68
2, 93860, Note_on_c, 0, 56, 0
2, 93870, Note_on_c, 0, 60, 56
2, 93905, Note_on_c, 0, 60, 0
2, 93915, Note_on_c, 0, 56, 45
2, 93950, Note_on_c, 0, 56, 0
2, 93960, Note_on_c, 0, 67, 0
2, 93960, Note_on_c, 0, 51, 0
2, 93960, Note_on_c, 0, 66, 65
2, 93960, Note_on_c, 0, 61, 46
2, 93995, Note_on_c, 0, 61, 0
2, 94005, Note_on_c, 0, 57, 39
2, 94040, Note_on_c, 0, 57, 0
2, 94050, Note_on_c, 0, 61, 46
2, 94085, Note_on_c, 0, 61, 0
2, 94095, Note_on_c, 0, 57, 39
2, 94130, Note_on_c, 0, 57, 0
2, 94140, Note_on_c, 0, 61, 46
2, 94175, Note_on_c, 0, 61, 0
2, 94185, Note_on_c, 0, 57, 39
2, 94220, Note_on_c, 0, 57, 0
2, 94230, Note_on_c, 0, 61, 46
2, 94265, Note_on_c, 0, 61, 0
2, 94275, Note_on_c, 0, 57, 39
2, 94310, Note_on_c, 0, 57, 0
2, 94320, Note_on_c, 0, 66, 0
2, 94320, Note_on_c, 0, 51, 50
2, 94320, Note_on_c, 0, 60, 71
2, 94320, Note_on_c, 0, 44, 38
2, 94320, Note_on_c, 0, 32, 87
2, 94355, Note_on_c, 0, 60, 0
2, 94365, Note_on_c, 0, 56, 71
2, 94400, Note_on_c, 0, 56, 0
2, 94410, Note_on_c, 0, 60, 72
2, 94445, Note_on_c, 0, 60, 0
2, 94455, Note_on_c, 0, 56, 72
2, 94490, Note_on_c, 0, 56, 0
2, 94500, Note_on_c, 0, 60, 73
2, 94535, Note_on_c, 0, 60, 0
2, 94545, Note_on_c, 0, 56, 73
2, 94559, Note_on_c, 0, 44, 0
2, 94559, Note_on_c, 0, 43, 40
2, 94580, Note_on_c, 0, 56, 0
2, 94590, Note_on_c, 0, 60, 74
2, 94625, Note_on_c, 0, 60, 0
2, 94635, Note_on_c, 0, 56, 74
2, 94670, Note_on_c, 0, 56, 0
2, 94680, Note_on_c, 0, 32, 0
2, 94680, Note_on_c, 0, 43, 0
2, 94680, Note_on_c, 0, 60, 75
2, 94680, Note_on_c, 0, 44, 42
2, 94715, Note_on_c, 0, 60, 0
2, 94725, Note_on_c, 0, 56, 75
2, 94760, Note_on_c, 0, 56, 0
2, 94770, Note_on_c, 0, 60, 76
2, 94805, Note_on_c, 0, 60, 0
2, 94815, Note_on_c, 0, 56, 76
2, 94850, Note_on_c, 0, 56, 0
2, 94860, Note_on_c, 0, 60, 77
2, 94895, Note_on_c, 0, 60, 0
2, 94905, Note_on_c, 0, 56, 78
2, 94919, Note_on_c, 0, 44, 0
2, 94919, Note_on_c, 0, 42, 45
2, 94940, Note_on_c, 0, 56, 0
2, 94950, Note_on_c, 0, 60, 78
2, 94985, Note_on_c, 0, 60, 0
2, 94995, Note_on_c, 0, 56, 79
2, 95030, Note_on_c, 0, 56, 0
2, 95040, Note_on_c, 0, 42, 0
2, 95040, Note_on_c, 0, 51, 0
2, 95040, Note_on_c, 0, 51, 59
2, 95040, Note_on_c, 0, 60, 79
2, 95040, Note_on_c, 0, 43, 46
2, 95040, Note_on_c, 0, 31, 96
2, 95075, Note_on_c, 0, 60, 0
2, 95085, Note_on_c, 0, 55, 80
2, 95120, Note_on_c, 0, 55, 0
2, 95130, Note_on_c, 0, 60, 80
2, 95165, Note_on_c, 0, 60, 0
2, 95175, Note_on_c, 0, 55, 81
2, 95210, Note_on_c, 0, 55, 0
2, 95220, Note_on_c, 0, 60, 81
2, 95255, Note_on_c, 0, 60, 0
2, 95265, Note_on_c, 0, 55, 82
2, 95279, Note_on_c, 0, 43, 0
2, 95279, Note_on_c, 0, 40, 49
2, 95300, Note_on_c, 0, 55, 0
2, 95310, Note_on_c, 0, 60, 82
2, 95345, Note_on_c, 0, 60, 0
2, 95355, Note_on_c, 0, 55, 83
2, 95390, Note_on_c, 0, 55, 0
2, 95400, Note_on_c, 0, 31, 0
2, 95400, Note_on_c, 0, 51, 0
2, 95400, Note_on_c, 0, 40, 0
2, 95400, Note_on_c, 0, 50, 103
2, 95400, Note_on_c, 0, 56, 103
2, 95400, Note_on_c, 0, 60, 103
2, 95400, Note_on_c, 0, 41, 98
2, 95400, Note_on_c, 0, 29, 96
2, 95760, Note_on_c, 0, 29, 0
2, 96667, Note_on_c, 0, 60, 0
2, 96667, Note_on_c, 0, 50, 0
2, 96667, Note_on_c, 0, 56, 0
2, 96667, Note_on_c, 0, 41, 0
2, 96840, Note_on_c, 0, 53, 82
2, 96840, Note_on_c, 0, 59, 82
2, 96840, Note_on_c, 0, 50, 80
2, 96840, Note_on_c, 0, 44, 86
2, 96960, Note_on_c, 0, 44, 0
2, 96960, Note_on_c, 0, 43, 99
2, 97050, Note_on_c, 0, 53, 0
2, 97050, Note_on_c, 0, 50, 0
2, 97050, Note_on_c, 0, 59, 0
2, 97079, Note_on_c, 0, 43, 0
2, 97079, Note_on_c, 0, 62, 60
2, 97079, Note_on_c, 0, 53, 63
2, 97079, Note_on_c, 0, 59, 63
2, 97079, Note_on_c, 0, 50, 61
2, 97079, Note_on_c, 0, 44, 103
2, 97119, Note_on_c, 0, 62, 0
2, 97119, Note_on_c, 0, 61, 63
2, 97158, Note_on_c, 0, 61, 0
2, 97158, Note_on_c, 0, 60, 65
2, 97185, Note_on_c, 0, 59, 0
2, 97200, Note_on_c, 0, 44, 0
2, 97200, Note_on_c, 0, 60, 0
2, 97200, Note_on_c, 0, 59, 67
2, 97200, Note_on_c, 0, 41, 96
2, 97320, Note_on_c, 0, 41, 0
2, 97320, Note_on_c, 0, 53, 0
2, 97320, Note_on_c, 0, 50, 0
2, 97320, Note_on_c, 0, 59, 0
2, 97320, Note_on_c, 0, 53, 91
2, 97320, Note_on_c, 0, 50, 56
2, 97320, Note_on_c, 0, 43, 98
2, 97439, Note_on_c, 0, 43, 0
2, 97439, Note_on_c, 0, 56, 63
2, 97439, Note_on_c, 0, 40, 91
2, 97479, Note_on_c, 0, 56, 0
2, 97479, Note_on_c, 0, 58, 70
2, 97518, Note_on_c, 0, 58, 0
2, 97518, Note_on_c, 0, 59, 75
2, 97530, Note_on_c, 0, 53, 0
2, 97560, Note_on_c, 0, 40, 0
2, 97560, Note_on_c, 0, 50, 0
2, 97560, Note_on_c, 0, 59, 0
2, 97560, Note_on_c, 0, 60, 127
2, 97560, Note_on_c, 0, 56, 96
2, 97560, Note_on_c, 0, 50, 98
2, 97560, Note_on_c, 0, 41, 98
2, 98280, Note_on_c, 0, 41, 0
2, 98280, Note_on_c, 0, 60, 0
2, 98280, Note_on_c, 0, 56, 0
2, 98280, Note_on_c, 0, 50, 0
2, 98280, Note_on_c, 0, 60, 97
2, 98280, Note_on_c, 0, 56, 97
2, 98280, Note_on_c, 0, 49, 97
2, 98280, Note_on_c, 0, 41, 101
2, 99000, Note_on_c, 0, 41, 0
2, 99000, Note_on_c, 0, 60, 0
2, 99000, Note_on_c, 0, 56, 0
2, 99000, Note_on_c, 0, 49, 0
2, 99000, Note_on_c, 0, 53, 75
2, 99000, Note_on_c, 0, 59, 75
2, 99000, Note_on_c, 0, 50, 78
2, 99000, Note_on_c, 0, 44, 88
2, 99120, Note_on_c, 0, 44, 0
2, 99120, Note_on_c, 0, 43, 82
2, 99210, Note_on_c, 0, 53, 0
2, 99210, Note_on_c, 0, 50, 0
2, 99210, Note_on_c, 0, 59, 0
2, 99239, Note_on_c, 0, 43, 0
2, 99239, Note_on_c, 0, 62, 60
2, 99239, Note_on_c, 0, 53, 60
2, 99239, Note_on_c, 0, 59, 60
2, 99239, Note_on_c, 0, 50, 62
2, 99239, Note_on_c, 0, 44, 86
2, 99279, Note_on_c, 0, 62, 0
2, 99279, Note_on_c, 0, 61, 63
2, 99318, Note_on_c, 0, 61, 0
2, 99318, Note_on_c, 0, 60, 65
2, 99345, Note_on_c, 0, 59, 0
2, 99360, Note_on_c, 0, 44, 0
2, 99360, Note_on_c, 0, 60, 0
2, 99360, Note_on_c, 0, 59, 67
2, 99360, Note_on_c, 0, 41, 79
2, 99480, Note_on_c, 0, 41, 0
2, 99480, Note_on_c, 0, 53, 0
2, 99480, Note_on_c, 0, 50, 0
2, 99480, Note_on_c, 0, 59, 0
2, 99480, Note_on_c, 0, 53, 82
2, 99480, Note_on_c, 0, 50, 64
2, 99480, Note_on_c, 0, 43, 85
2, 99599, Note_on_c, 0, 43, 0
2, 99599, Note_on_c, 0, 56, 68
2, 99599, Note_on_c, 0, 40, 79
2, 99639, Note_on_c, 0, 56, 0
2, 99639, Note_on_c, 0, 58, 79
2, 99678, Note_on_c, 0, 58, 0
2, 99678, Note_on_c, 0, 59, 74
2, 99690, Note_on_c, 0, 53, 0
2, 99720, Note_on_c, 0, 40, 0
2, 99720, Note_on_c, 0, 50, 0
2, 99720, Note_on_c, 0, 59, 0
2, 99720, Note_on_c, 0, 48, 127
2, 99720, Note_on_c, 0, 56, 127
2, 99720, Note_on_c, 0, 60, 127
2, 99720, Note_on_c, 0, 44, 115
2, 99720, Note_on_c, 0, 32, 103
2, 99840, Note_on_c, 0, 44, 0
2, 99840, Note_on_c, 0, 55, 62
2, 99840, Note_on_c, 0, 43, 59
2, 99959, Note_on_c, 0, 43, 0
2, 99959, Note_on_c, 0, 55, 0
2, 99959, Note_on_c, 0, 56, 63
2, 99959, Note_on_c, 0, 44, 63
2, 100080, Note_on_c, 0, 44, 0
2, 100080, Note_on_c, 0, 56, 0
2, 100080, Note_on_c, 0, 53, 59
2, 100080, Note_on_c, 0, 41, 59
2, 100200, Note_on_c, 0, 41, 0
2, 100200, Note_on_c, 0, 60, 0
2, 100200, Note_on_c, 0, 56, 0
2, 100200, Note_on_c, 0, 48, 0
2, 100200, Note_on_c, 0, 53, 0
2, 100200, Note_on_c, 0, 47, 58
2, 100200, Note_on_c, 0, 55, 58
2, 100200, Note_on_c, 0, 59, 58
2, 100200, Note_on_c, 0, 43, 65
2, 100319, Note_on_c, 0, 43, 0
2, 100319, Note_on_c, 0, 52, 60
2, 100319, Note_on_c, 0, 40, 59
2, 100440, Note_on_c, 0, 40, 0
2, 100440, Note_on_c, 0, 47, 0
2, 100440, Note_on_c, 0, 59, 0
2, 100440, Note_on_c, 0, 32, 0
2, 100440, Note_on_c, 0, 52, 0
2, 100440, Note_on_c, 0, 55, 0
2, 100440, Note_on_c, 0, 48, 124
2, 100440, Note_on_c, 0, 56, 124
2, 100440, Note_on_c, 0, 60, 124
2, 100440, Note_on_c, 0, 44, 127
2, 100440, Note_on_c, 0, 32, 109
2, 100560, Note_on_c, 0, 44, 0
2, 100560, Note_on_c, 0, 55, 60
2, 100560, Note_on_c, 0, 43, 59
2, 100679, Note_on_c, 0, 43, 0
2, 100679, Note_on_c, 0, 55, 0
2, 100679, Note_on_c, 0, 56, 59
2, 100679, Note_on_c, 0, 44, 64
2, 100800, Note_on_c, 0, 44, 0
2, 100800, Note_on_c, 0, 56, 0
2, 100800, Note_on_c, 0, 53, 58
2, 100800, Note_on_c, 0, 41, 59
2, 100920, Note_on_c, 0, 41, 0
2, 100920, Note_on_c, 0, 60, 0
2, 100920, Note_on_c, 0, 56, 0
2, 100920, Note_on_c, 0, 48, 0
2, 100920, Note_on_c, 0, 53, 0
2, 100920, Note_on_c, 0, 47, 56
2, 100920, Note_on_c, 0, 55, 56
2, 100920, Note_on_c, 0, 59, 56
2, 100920, Note_on_c, 0, 43, 65
2, 101039, Note_on_c, 0, 43, 0
2, 101039, Note_on_c, 0, 52, 56
2, 101039, Note_on_c, 0, 40, 59
2, 101160, Note_on_c, 0, 40, 0
2, 101160, Note_on_c, 0, 47, 0
2, 101160, Note_on_c, 0, 59, 0
2, 101160, Note_on_c, 0, 32, 0
2, 101160, Note_on_c, 0, 52, 0
2, 101160, Note_on_c, 0, 55, 0
2, 101160, Note_on_c, 0, 48, 94
2, 101160, Note_on_c, 0, 56, 94
2, 101160, Note_on_c, 0, 60, 94
2, 101160, Note_on_c, 0, 44, 83
2, 101160, Note_on_c, 0, 32, 108
2, 101280, Note_on_c, 0, 44, 0
2, 101280, Note_on_c, 0, 55, 60
2, 101280, Note_on_c, 0, 43, 60
2, 101399, Note_on_c, 0, 43, 0
2, 101399, Note_on_c, 0, 55, 0
2, 101399, Note_on_c, 0, 56, 58
2, 101399, Note_on_c, 0, 44, 58
2, 101520, Note_on_c, 0, 44, 0
2, 101520, Note_on_c, 0, 56, 0
2, 101520, Note_on_c, 0, 53, 55
2, 101520, Note_on_c, 0, 41, 55
2, 101640, Note_on_c, 0, 41, 0
2, 101640, Note_on_c, 0, 53, 0
2, 101640, Note_on_c, 0, 55, 53
2, 101640, Note_on_c, 0, 43, 53
2, 101759, Note_on_c, 0, 43, 0
2, 101759, Note_on_c, 0, 55, 0
2, 101759, Note_on_c, 0, 52, 50
2, 101759, Note_on_c, 0, 40, 50
2, 101880, Note_on_c, 0, 40, 0
2, 101880, Note_on_c, 0, 60, 0
2, 101880, Note_on_c, 0, 56, 0
2, 101880, Note_on_c, 0, 48, 0
2, 101880, Note_on_c, 0, 52, 0
2, 101880, Note_on_c, 0, 32, 0
2, 101880, Note_on_c, 0, 60, 48
2, 101880, Note_on_c, 0, 44, 48
2, 101880, Note_on_c, 0, 56, 48
2, 102000, Note_on_c, 0, 56, 0
2, 102000, Note_on_c, 0, 44, 0
2, 102000, Note_on_c, 0, 43, 50
2, 102000, Note_on_c, 0, 55, 50
2, 102060, Note_on_c, 0, 60, 0
2, 102060, Note_on_c, 0, 60, 51
2, 102060, Note_on_c, 0, 62, 51
2, 102119, Note_on_c, 0, 62, 0
2, 102119, Note_on_c, 0, 43, 0
2, 102119, Note_on_c, 0, 55, 0
2, 102119, Note_on_c, 0, 60, 0
2, 102119, Note_on_c, 0, 60, 52
2, 102119, Note_on_c, 0, 62, 52
2, 102119, Note_on_c, 0, 44, 52
2, 102119, Note_on_c, 0, 56, 52
2, 102240, Note_on_c, 0, 56, 0
2, 102240, Note_on_c, 0, 44, 0
2, 102240, Note_on_c, 0, 41, 54
2, 102240, Note_on_c, 0, 53, 54
2, 102299, Note_on_c, 0, 62, 0
2, 102299, Note_on_c, 0, 60, 0
2, 102299, Note_on_c, 0, 57, 55
2, 102299, Note_on_c, 0, 59, 55
2, 102299, Note_on_c, 0, 62, 55
2, 102360, Note_on_c, 0, 62, 0
2, 102360, Note_on_c, 0, 57, 0
2, 102360, Note_on_c, 0, 53, 0
2, 102360, Note_on_c, 0, 41, 0
2, 102360, Note_on_c, 0, 59, 0
2, 102360, Note_on_c, 0, 57, 56
2, 102360, Note_on_c, 0, 59, 56
2, 102360, Note_on_c, 0, 62, 56
2, 102360, Note_on_c, 0, 43, 56
2, 102360, Note_on_c, 0, 55, 56
2, 102479, Note_on_c, 0, 55, 0
2, 102479, Note_on_c, 0, 43, 0
2, 102479, Note_on_c, 0, 40, 58
2, 102479, Note_on_c, 0, 52, 58
2, 102600, Note_on_c, 0, 52, 0
2, 102600, Note_on_c, 0, 57, 0
2, 102600, Note_on_c, 0, 62, 0
2, 102600, Note_on_c, 0, 59, 0
2, 102600, Note_on_c, 0, 40, 0
2, 103680, Note_on_c, 0, 59, 118
2, 103680, Note_on_c, 0, 63, 118
2, 103680, Note_on_c, 0, 44, 112
2, 103680, Note_on_c, 0, 51, 112
2, 103680, Note_on_c, 0, 56, 112
2, 104400, Note_on_c, 0, 56, 0
2, 104400, Note_on_c, 0, 44, 0
2, 104400, Note_on_c, 0, 51, 0
2, 104760, Note_on_c, 0, 63, 0
2, 104760, Note_on_c, 0, 59, 0
2, 104760, Note_on_c, 0, 75, 127
2, 104760, Note_on_c, 0, 66, 89
2, 104760, Note_on_c, 0, 69, 89
2, 104760, Note_on_c, 0, 72, 89
2, 104760, Note_on_c, 0, 38, 73
2, 104760, Note_on_c, 0, 45, 73
2, 104760, Note_on_c, 0, 54, 73
2, 104760, Note_on_c, 0, 60, 73
2, 105120, Note_on_c, 0, 72, 0
2, 105120, Note_on_c, 0, 69, 0
2, 105120, Note_on_c, 0, 66, 0
2, 105120, Note_on_c, 0, 66, 77
2, 105120, Note_on_c, 0, 69, 77
2, 105120, Note_on_c, 0, 72, 77
2, 105300, Note_on_c, 0, 75, 0
2, 105300, Note_on_c, 0, 77, 88
2, 105335, Note_on_c, 0, 77, 0
2, 105335, Note_on_c, 0, 75, 80
2, 105372, Note_on_c, 0, 75, 0
2, 105372, Note_on_c, 0, 75, 83
2, 105407, Note_on_c, 0, 75, 0
2, 105407, Note_on_c, 0, 74, 81
2, 105435, Note_on_c, 0, 72, 0
2, 105435, Note_on_c, 0, 69, 0
2, 105435, Note_on_c, 0, 66, 0
2, 105435, Note_on_c, 0, 65, 82
2, 105435, Note_on_c, 0, 68, 82
2, 105435, Note_on_c, 0, 71, 82
2, 105444, Note_on_c, 0, 74, 0
2, 105444, Note_on_c, 0, 76, 88
2, 105480, Note_on_c, 0, 76, 0
2, 105480, Note_on_c, 0, 71, 0
2, 105480, Note_on_c, 0, 65, 0
2, 105480, Note_on_c, 0, 68, 0
2, 105480, Note_on_c, 0, 75, 103
2, 105480, Note_on_c, 0, 66, 91
2, 105480, Note_on_c, 0, 69, 91
2, 105480, Note_on_c, 0, 72, 91
2, 105660, Note_on_c, 0, 75, 0
2, 105660, Note_on_c, 0, 77, 93
2, 105695, Note_on_c, 0, 77, 0
2, 105695, Note_on_c, 0, 75, 79
2, 105732, Note_on_c, 0, 75, 0
2, 105732, Note_on_c, 0, 75, 85
2, 105767, Note_on_c, 0, 75, 0
2, 105767, Note_on_c, 0, 74, 78
2, 105795, Note_on_c, 0, 72, 0
2, 105795, Note_on_c, 0, 69, 0
2, 105795, Note_on_c, 0, 66, 0
2, 105795, Note_on_c, 0, 65, 78
2, 105795, Note_on_c, 0, 68, 78
2, 105795, Note_on_c, 0, 71, 78
2, 105804, Note_on_c, 0, 74, 0
2, 105804, Note_on_c, 0, 76, 87
2, 105840, Note_on_c, 0, 76, 0
2, 105840, Note_on_c, 0, 71, 0
2, 105840, Note_on_c, 0, 65, 0
2, 105840, Note_on_c, 0, 68, 0
2, 105840, Note_on_c, 0, 75, 106
2, 105840, Note_on_c, 0, 66, 84
2, 105840, Note_on_c, 0, 69, 84
2, 105840, Note_on_c, 0, 72, 84
2, 106020, Note_on_c, 0, 75, 0
2, 106020, Note_on_c, 0, 77, 92
2, 106055, Note_on_c, 0, 77, 0
2, 106055, Note_on_c, 0, 75, 76
2, 106092, Note_on_c, 0, 75, 0
2, 106092, Note_on_c, 0, 75, 79
2, 106127, Note_on_c, 0, 75, 0
2, 106127, Note_on_c, 0, 74, 83
2, 106155, Note_on_c, 0, 72, 0
2, 106155, Note_on_c, 0, 69, 0
2, 106155, Note_on_c, 0, 66, 0
2, 106155, Note_on_c, 0, 65, 79
2, 106155, Note_on_c, 0, 68, 79
2, 106155, Note_on_c, 0, 71, 79
2, 106164, Note_on_c, 0, 74, 0
2, 106164, Note_on_c, 0, 76, 92
2, 106200, Note_on_c, 0, 76, 0
2, 106200, Note_on_c, 0, 45, 0
2, 106200, Note_on_c, 0, 65, 0
2, 106200, Note_on_c, 0, 38, 0
2, 106200, Note_on_c, 0, 60, 0
2, 106200, Note_on_c, 0, 71, 0
2, 106200, Note_on_c, 0, 68, 0
2, 106200, Note_on_c, 0, 54, 0
2, 106200, Note_on_c, 0, 75, 104
2, 106200, Note_on_c, 0, 65, 127
2, 106200, Note_on_c, 0, 68, 127
2, 106200, Note_on_c, 0, 71, 127
2, 106200, Control_c, 0, 64, 127
2, 106200, Note_on_c, 0, 44, 69
2, 106200, Note_on_c, 0, 51, 69
2, 106200, Note_on_c, 0, 56, 69
2, 106200, Note_on_c, 0, 59, 69
2, 106200, Note_on_c, 0, 63, 69
2, 106380, Note_on_c, 0, 71, 0
2, 106380, Note_on_c, 0, 68, 0
2, 106380, Note_on_c, 0, 75, 0
2, 106380, Note_on_c, 0, 65, 0
2, 107640, Note_on_c, 0, 51, 0
2, 107640, Note_on_c, 0, 44, 0
2, 107640, Note_on_c, 0, 63, 0
2, 107640, Note_on_c, 0, 56, 0
2, 107640, Note_on_c, 0, 59, 0
2, 107640, Note_on_c, 0, 63, 74
2, 107640, Note_on_c, 0, 53, 76
2, 107640, Note_on_c, 0, 59, 76
2, 107640, Control_c, 0, 64, 0
2, 107640, Note_on_c, 0, 56, 55
2, 107640, Note_on_c, 0, 37, 62
2, 107640, Note_on_c, 0, 44, 62
2, 107760, Note_on_c, 0, 56, 0
2, 107760, Note_on_c, 0, 55, 57
2, 107879, Note_on_c, 0, 55, 0
2, 107879, Note_on_c, 0, 56, 63
2, 108000, Note_on_c, 0, 56, 0
2, 108000, Note_on_c, 0, 54, 55
2, 108120, Note_on_c, 0, 54, 0
2, 108120, Note_on_c, 0, 56, 65
2, 108239, Note_on_c, 0, 56, 0
2, 108239, Note_on_c, 0, 63, 0
2, 108239, Note_on_c, 0, 65, 92
2, 108239, Note_on_c, 0, 53, 60
2, 108300, Note_on_c, 0, 65, 0
2, 108300, Note_on_c, 0, 64, 84
2, 108360, Note_on_c, 0, 64, 0
2, 108360, Note_on_c, 0, 53, 0
2, 108360, Note_on_c, 0, 63, 79
2, 108360, Note_on_c, 0, 56, 65
2, 108419, Note_on_c, 0, 63, 0
2, 108419, Note_on_c, 0, 62, 76
2, 108480, Note_on_c, 0, 62, 0
2, 108480, Note_on_c, 0, 56, 0
2, 108480, Note_on_c, 0, 64, 89
2, 108480, Note_on_c, 0, 55, 59
2, 108540, Note_on_c, 0, 64, 0
2, 108540, Note_on_c, 0, 63, 79
2, 108599, Note_on_c, 0, 55, 0
2, 108599, Note_on_c, 0, 56, 66
2, 108720, Note_on_c, 0, 56, 0
2, 108720, Note_on_c, 0, 54, 65
2, 108840, Note_on_c, 0, 54, 0
2, 108840, Note_on_c, 0, 57, 66
2, 108959, Note_on_c, 0, 57, 0
2, 108959, Note_on_c, 0, 53, 59
2, 109080, Note_on_c, 0, 53, 0
2, 109080, Note_on_c, 0, 56, 66
2, 109115, Note_on_c, 0, 63, 0
2, 109125, Note_on_c, 0, 59, 47
2, 109160, Note_on_c, 0, 59, 0
2, 109170, Note_on_c, 0, 63, 56
2, 109205, Note_on_c, 0, 63, 0
2, 109215, Note_on_c, 0, 59, 47
2, 109250, Note_on_c, 0, 59, 0
2, 109260, Note_on_c, 0, 63, 56
2, 109295, Note_on_c, 0, 63, 0
2, 109305, Note_on_c, 0, 59, 47
2, 109340, Note_on_c, 0, 59, 0
2, 109350, Note_on_c, 0, 63, 56
2, 109385, Note_on_c, 0, 63, 0
2, 109395, Note_on_c, 0, 59, 47
2, 109430, Note_on_c, 0, 59, 0
2, 109440, Note_on_c, 0, 56, 0
2, 109440, Note_on_c, 0, 63, 56
2, 109440, Note_on_c, 0, 55, 57
2, 109475, Note_on_c, 0, 63, 0
2, 109485, Note_on_c, 0, 59, 51
2, 109520, Note_on_c, 0, 59, 0
2, 109530, Note_on_c, 0, 63, 56
2, 109565, Note_on_c, 0, 63, 0
2, 109575, Note_on_c, 0, 59, 51
2, 109610, Note_on_c, 0, 59, 0
2, 109620, Note_on_c, 0, 63, 56
2, 109655, Note_on_c, 0, 63, 0
2, 109665, Note_on_c, 0, 59, 51
2, 109700, Note_on_c, 0, 59, 0
2, 109710, Note_on_c, 0, 63, 56
2, 109745, Note_on_c, 0, 63, 0
2, 109755, Note_on_c, 0, 59, 51
2, 109790, Note_on_c, 0, 59, 0
2, 109800, Note_on_c, 0, 55, 0
2, 109800, Note_on_c, 0, 53, 0
2, 109800, Note_on_c, 0, 44, 0
2, 109800, Note_on_c, 0, 59, 0
2, 109800, Note_on_c, 0, 37, 0
2, 109800, Note_on_c, 0, 63, 52
2, 109800, Note_on_c, 0, 56, 63
2, 109800, Note_on_c, 0, 37, 68
2, 109800, Note_on_c, 0, 49, 68
2, 109835, Note_on_c, 0, 63, 0
2, 109845, Note_on_c, 0, 59, 46
2, 109880, Note_on_c, 0, 59, 0
2, 109890, Note_on_c, 0, 63, 52
2, 109925, Note_on_c, 0, 63, 0
2, 109935, Note_on_c, 0, 59, 46
2, 109970, Note_on_c, 0, 59, 0
2, 109980, Note_on_c, 0, 63, 52
2, 110015, Note_on_c, 0, 63, 0
2, 110025, Note_on_c, 0, 59, 46
2, 110060, Note_on_c, 0, 59, 0
2, 110070, Note_on_c, 0, 63, 52
2, 110105, Note_on_c, 0, 63, 0
2, 110115, Note_on_c, 0, 59, 46
2, 110150, Note_on_c, 0, 59, 0
2, 110160, Note_on_c, 0, 49, 0
2, 110160, Note_on_c, 0, 37, 0
2, 110160, Note_on_c, 0, 56, 0
2, 110160, Note_on_c, 0, 63, 55
2, 110160, Note_on_c, 0, 55, 61
2, 110195, Note_on_c, 0, 63, 0
2, 110205, Note_on_c, 0, 59, 50
2, 110240, Note_on_c, 0, 59, 0
2, 110250, Note_on_c, 0, 63, 55
2, 110285, Note_on_c, 0, 63, 0
2, 110295, Note_on_c, 0, 59, 50
2, 110330, Note_on_c, 0, 59, 0
2, 110340, Note_on_c, 0, 63, 55
2, 110375, Note_on_c, 0, 63, 0
2, 110385, Note_on_c, 0, 59, 50
2, 110420, Note_on_c, 0, 59, 0
2, 110430, Note_on_c, 0, 63, 55
2, 110465, Note_on_c, 0, 63, 0
2, 110475, Note_on_c, 0, 59, 50
2, 110510, Note_on_c, 0, 59, 0
2, 110520, Note_on_c, 0, 55, 0
2, 110520, Note_on_c, 0, 64, 58
2, 110520, Note_on_c, 0, 56, 64
2, 110555, Note_on_c, 0, 64, 0
2, 110565, Note_on_c, 0, 59, 50
2, 110600, Note_on_c, 0, 59, 0
2, 110610, Note_on_c, 0, 64, 58
2, 110645, Note_on_c, 0, 64, 0
2, 110655, Note_on_c, 0, 59, 50
2, 110690, Note_on_c, 0, 59, 0
2, 110700, Note_on_c, 0, 64, 58
2, 110735, Note_on_c, 0, 64, 0
2, 110745, Note_on_c, 0, 59, 50
2, 110780, Note_on_c, 0, 59, 0
2, 110790, Note_on_c, 0, 64, 58
2, 110825, Note_on_c, 0, 64, 0
2, 110835, Note_on_c, 0, 59, 50
2, 110870, Note_on_c, 0, 59, 0
2, 110880, Note_on_c, 0, 56, 0
2, 110880, Note_on_c, 0, 63, 55
2, 110880, Note_on_c, 0, 55, 64
2, 110915, Note_on_c, 0, 63, 0
2, 110925, Note_on_c, 0, 58, 44
2, 110960, Note_on_c, 0, 58, 0
2, 110970, Note_on_c, 0, 63, 55
2, 111005, Note_on_c, 0, 63, 0
2, 111015, Note_on_c, 0, 58, 44
2, 111050, Note_on_c, 0, 58, 0
2, 111060, Note_on_c, 0, 63, 55
2, 111095, Note_on_c, 0, 63, 0
2, 111105, Note_on_c, 0, 58, 44
2, 111140, Note_on_c, 0, 58, 0
2, 111150, Note_on_c, 0, 63, 55
2, 111185, Note_on_c, 0, 63, 0
2, 111195, Note_on_c, 0, 58, 44
2, 111230, Note_on_c, 0, 58, 0
2, 111240, Note_on_c, 0, 55, 0
2, 111240, Note_on_c, 0, 59, 81
2, 111240, Note_on_c, 0, 63, 56
2, 111240, Note_on_c, 0, 57, 64
2, 111240, Note_on_c, 0, 37, 56
2, 111240, Note_on_c, 0, 49, 56
2, 111275, Note_on_c, 0, 63, 0
2, 111285, Note_on_c, 0, 57, 46
2, 111320, Note_on_c, 0, 57, 0
2, 111330, Note_on_c, 0, 63, 56
2, 111365, Note_on_c, 0, 63, 0
2, 111375, Note_on_c, 0, 57, 46
2, 111410, Note_on_c, 0, 57, 0
2, 111420, Note_on_c, 0, 63, 56
2, 111455, Note_on_c, 0, 63, 0
2, 111465, Note_on_c, 0, 57, 46
2, 111500, Note_on_c, 0, 57, 0
2, 111510, Note_on_c, 0, 63, 56
2, 111545, Note_on_c, 0, 63, 0
2, 111555, Note_on_c, 0, 57, 46
2, 111590, Note_on_c, 0, 57, 0
2, 111600, Note_on_c, 0, 49, 0
2, 111600, Note_on_c, 0, 57, 0
2, 111600, Note_on_c, 0, 37, 0
2, 111600, Note_on_c, 0, 65, 60
2, 111600, Note_on_c, 0, 55, 61
2, 111600, Note_on_c, 0, 38, 58
2, 111600, Note_on_c, 0, 50, 58
2, 111635, Note_on_c, 0, 65, 0
2, 111645, Note_on_c, 0, 59, 46
2, 111680, Note_on_c, 0, 59, 0
2, 111690, Note_on_c, 0, 65, 60
2, 111725, Note_on_c, 0, 65, 0
2, 111735, Note_on_c, 0, 59, 46
2, 111770, Note_on_c, 0, 59, 0
2, 111780, Note_on_c, 0, 59, 0
2, 111780, Note_on_c, 0, 65, 60
2, 111780, Note_on_c, 0, 70, 103
2, 111815, Note_on_c, 0, 65, 0
2, 111825, Note_on_c, 0, 59, 46
2, 111860, Note_on_c, 0, 59, 0
2, 111870, Note_on_c, 0, 65, 60
2, 111905, Note_on_c, 0, 65, 0
2, 111915, Note_on_c, 0, 59, 46
2, 111950, Note_on_c, 0, 59, 0
2, 111960, Note_on_c, 0, 70, 0
2, 111960, Note_on_c, 0, 50, 0
2, 111960, Note_on_c, 0, 55, 0
2, 111960, Note_on_c, 0, 38, 0
2, 111960, Note_on_c, 0, 68, 92
2, 111960, Note_on_c, 0, 65, 61
2, 111960, Note_on_c, 0, 56, 62
2, 111995, Note_on_c, 0, 65, 0
2, 112005, Note_on_c, 0, 59, 48
2, 112040, Note_on_c, 0, 59, 0
2, 112050, Note_on_c, 0, 65, 61
2, 112085, Note_on_c, 0, 65, 0
2, 112095, Note_on_c, 0, 59, 48
2, 112130, Note_on_c, 0, 59, 0
2, 112140, Note_on_c, 0, 65, 61
2, 112175, Note_on_c, 0, 65, 0
2, 112185, Note_on_c, 0, 59, 48
2, 112220, Note_on_c, 0, 59, 0
2, 112230, Note_on_c, 0, 65, 61
2, 112265, Note_on_c, 0, 65, 0
2, 112275, Note_on_c, 0, 59, 48
2, 112310, Note_on_c, 0, 59, 0
2, 112320, Note_on_c, 0, 56, 0
2, 112320, Note_on_c, 0, 67, 58
2, 112320, Note_on_c, 0, 58, 61
2, 112320, Note_on_c, 0, 43, 57
2, 112320, Note_on_c, 0, 50, 57
2, 112355, Note_on_c, 0, 67, 0
2, 112365, Note_on_c, 0, 59, 50
2, 112400, Note_on_c, 0, 59, 0
2, 112410, Note_on_c, 0, 67, 58
2, 112445, Note_on_c, 0, 67, 0
2, 112455, Note_on_c, 0, 59, 50
2, 112490, Note_on_c, 0, 59, 0
2, 112500, Note_on_c, 0, 67, 58
2, 112535, Note_on_c, 0, 67, 0
2, 112545, Note_on_c, 0, 59, 50
2, 112580, Note_on_c, 0, 59, 0
2, 112590, Note_on_c, 0, 67, 58
2, 112593, Note_on_c, 0, 68, 0
2, 112625, Note_on_c, 0, 67, 0
2, 112635, Note_on_c, 0, 59, 50
2, 112670, Note_on_c, 0, 59, 0
2, 112680, Note_on_c, 0, 50, 0
2, 112680, Note_on_c, 0, 58, 0
2, 112680, Note_on_c, 0, 43, 0
2, 112680, Note_on_c, 0, 65, 57
2, 112680, Note_on_c, 0, 56, 62
2, 112715, Note_on_c, 0, 65, 0
2, 112725, Note_on_c, 0, 59, 49
2, 112760, Note_on_c, 0, 59, 0
2, 112770, Note_on_c, 0, 65, 57
2, 112805, Note_on_c, 0, 65, 0
2, 112815, Note_on_c, 0, 59, 49
2, 112850, Note_on_c, 0, 59, 0
2, 112860, Note_on_c, 0, 65, 57
2, 112895, Note_on_c, 0, 65, 0
2, 112905, Note_on_c, 0, 59, 49
2, 112940, Note_on_c, 0, 59, 0
2, 112950, Note_on_c, 0, 65, 57
2, 112985, Note_on_c, 0, 65, 0
2, 112995, Note_on_c, 0, 59, 49
2, 113030, Note_on_c, 0, 59, 0
2, 113040, Note_on_c, 0, 56, 0
2, 113040, Note_on_c, 0, 67, 93
2, 113040, Note_on_c, 0, 64, 58
2, 113040, Note_on_c, 0, 55, 56
2, 113075, Note_on_c, 0, 64, 0
2, 113085, Note_on_c, 0, 57, 48
2, 113120, Note_on_c, 0, 57, 0
2, 113130, Note_on_c, 0, 64, 58
2, 113165, Note_on_c, 0, 64, 0
2, 113175, Note_on_c, 0, 57, 48
2, 113210, Note_on_c, 0, 57, 0
2, 113220, Note_on_c, 0, 64, 58
2, 113250, Note_on_c, 0, 67, 0
2, 113255, Note_on_c, 0, 64, 0
2, 113265, Note_on_c, 0, 57, 48
2, 113279, Note_on_c, 0, 64, 91
2, 113300, Note_on_c, 0, 57, 0
2, 113310, Note_on_c, 0, 64, 58
2, 113345, Note_on_c, 0, 64, 0
2, 113355, Note_on_c, 0, 57, 48
2, 113385, Note_on_c, 0, 64, 0
2, 113390, Note_on_c, 0, 57, 0
2, 113400, Note_on_c, 0, 55, 0
2, 113400, Note_on_c, 0, 65, 116
2, 113400, Note_on_c, 0, 63, 54
2, 113400, Note_on_c, 0, 53, 58
2, 113435, Note_on_c, 0, 63, 0
2, 113445, Note_on_c, 0, 56, 59
2, 113480, Note_on_c, 0, 56, 0
2, 113490, Note_on_c, 0, 63, 54
2, 113525, Note_on_c, 0, 63, 0
2, 113535, Note_on_c, 0, 56, 59
2, 113570, Note_on_c, 0, 56, 0
2, 113580, Note_on_c, 0, 63, 54
2, 113615, Note_on_c, 0, 63, 0
2, 113625, Note_on_c, 0, 56, 59
2, 113660, Note_on_c, 0, 56, 0
2, 113670, Note_on_c, 0, 63, 54
2, 113705, Note_on_c, 0, 63, 0
2, 113715, Note_on_c, 0, 56, 59
2, 113750, Note_on_c, 0, 56, 0
2, 113760, Note_on_c, 0, 62, 68
2, 113760, Note_on_c, 0, 31, 53
2, 113760, Note_on_c, 0, 43, 53
2, 113795, Note_on_c, 0, 62, 0
2, 113805, Note_on_c, 0, 56, 56
2, 113840, Note_on_c, 0, 56, 0
2, 113850, Note_on_c, 0, 62, 68
2, 113885, Note_on_c, 0, 62, 0
2, 113895, Note_on_c, 0, 56, 56
2, 113930, Note_on_c, 0, 56, 0
2, 113940, Note_on_c, 0, 62, 68
2, 113975, Note_on_c, 0, 62, 0
2, 113985, Note_on_c, 0, 56, 56
2, 114020, Note_on_c, 0, 56, 0
2, 114030, Note_on_c, 0, 62, 68
2, 114065, Note_on_c, 0, 62, 0
2, 114075, Note_on_c, 0, 56, 56
2, 114110, Note_on_c, 0, 56, 0
2, 114120, Note_on_c, 0, 62, 68
2, 114155, Note_on_c, 0, 62, 0
2, 114165, Note_on_c, 0, 56, 56
2, 114200, Note_on_c, 0, 56, 0
2, 114210, Note_on_c, 0, 62, 68
2, 114245, Note_on_c, 0, 62, 0
2, 114255, Note_on_c, 0, 56, 56
2, 114290, Note_on_c, 0, 56, 0
2, 114300, Note_on_c, 0, 62, 68
2, 114335, Note_on_c, 0, 62, 0
2, 114345, Note_on_c, 0, 56, 56
2, 114349, Note_on_c, 0, 65, 0
2, 114380, Note_on_c, 0, 56, 0
2, 114390, Note_on_c, 0, 62, 68
2, 114425, Note_on_c, 0, 62, 0
2, 114435, Note_on_c, 0, 56, 56
2, 114470, Note_on_c, 0, 56, 0
2, 114480, Note_on_c, 0, 53, 0
2, 114480, Note_on_c, 0, 31, 0
2, 114480, Note_on_c, 0, 43, 0
2, 114480, Note_on_c, 0, 67, 100
2, 114480, Note_on_c, 0, 52, 69
2, 114480, Note_on_c, 0, 61, 73
2, 114515, Note_on_c, 0, 61, 0
2, 114525, Note_on_c, 0, 57, 63
2, 114542, Note_on_c, 0, 67, 0
2, 114552, Note_on_c, 0, 66, 95
2, 114560, Note_on_c, 0, 57, 0
2, 114570, Note_on_c, 0, 61, 73
2, 114605, Note_on_c, 0, 61, 0
2, 114614, Note_on_c, 0, 66, 0
2, 114615, Note_on_c, 0, 57, 63
2, 114624, Note_on_c, 0, 65, 88
2, 114650, Note_on_c, 0, 57, 0
2, 114660, Note_on_c, 0, 61, 73
2, 114686, Note_on_c, 0, 65, 0
2, 114695, Note_on_c, 0, 61, 0
2, 114695, Note_on_c, 0, 64, 93
2, 114705, Note_on_c, 0, 57, 63
2, 114740, Note_on_c, 0, 57, 0
2, 114750, Note_on_c, 0, 61, 73
2, 114757, Note_on_c, 0, 64, 0
2, 114767, Note_on_c, 0, 66, 102
2, 114785, Note_on_c, 0, 61, 0
2, 114795, Note_on_c, 0, 57, 63
2, 114830, Note_on_c, 0, 57, 0
2, 114830, Note_on_c, 0, 66, 0
2, 114840, Note_on_c, 0, 52, 0
2, 114840, Note_on_c, 0, 65, 78
2, 114840, Note_on_c, 0, 60, 65
2, 114840, Note_on_c, 0, 51, 51
2, 114875, Note_on_c, 0, 60, 0
2, 114885, Note_on_c, 0, 56, 57
2, 114920, Note_on_c, 0, 56, 0
2, 114930, Note_on_c, 0, 60, 65
2, 114965, Note_on_c, 0, 60, 0
2, 114975, Note_on_c, 0, 56, 57
2, 115010, Note_on_c, 0, 56, 0
2, 115020, Note_on_c, 0, 60, 65
2, 115055, Note_on_c, 0, 60, 0
2, 115065, Note_on_c, 0, 56, 57
2, 115100, Note_on_c, 0, 56, 0
2, 115110, Note_on_c, 0, 60, 65
2, 115145, Note_on_c, 0, 60, 0
2, 115155, Note_on_c, 0, 56, 57
2, 115190, Note_on_c, 0, 56, 0
2, 115200, Note_on_c, 0, 51, 0
2, 115200, Note_on_c, 0, 50, 58
2, 115200, Note_on_c, 0, 59, 28
2, 115200, Note_on_c, 0, 31, 58
2, 115200, Note_on_c, 0, 43, 58
2, 115235, Note_on_c, 0, 59, 0
2, 115245, Note_on_c, 0, 55, 25
2, 115280, Note_on_c, 0, 55, 0
2, 115290, Note_on_c, 0, 59, 28
2, 115325, Note_on_c, 0, 59, 0
2, 115335, Note_on_c, 0, 55, 25
2, 115370, Note_on_c, 0, 55, 0
2, 115380, Note_on_c, 0, 59, 28
2, 115415, Note_on_c, 0, 59, 0
2, 115425, Note_on_c, 0, 55, 25
2, 115460, Note_on_c, 0, 55, 0
2, 115470, Note_on_c, 0, 59, 28
2, 115505, Note_on_c, 0, 59, 0
2, 115515, Note_on_c, 0, 55, 25
2, 115550, Note_on_c, 0, 55, 0
2, 115560, Note_on_c, 0, 43, 0
2, 115560, Note_on_c, 0, 31, 0
2, 115560, Note_on_c, 0, 50, 0
2, 115560, Note_on_c, 0, 53, 63
2, 115560, Note_on_c, 0, 60, 32
2, 115595, Note_on_c, 0, 60, 0
2, 115605, Note_on_c, 0, 56, 19
2, 115640, Note_on_c, 0, 56, 0
2, 115650, Note_on_c, 0, 60, 32
2, 115685, Note_on_c, 0, 60, 0
2, 115695, Note_on_c, 0, 56, 19
2, 115730, Note_on_c, 0, 56, 0
2, 115740, Note_on_c, 0, 60, 32
2, 115775, Note_on_c, 0, 60, 0
2, 115785, Note_on_c, 0, 56, 19
2, 115820, Note_on_c, 0, 56, 0
2, 115830, Note_on_c, 0, 60, 32
2, 115865, Note_on_c, 0, 60, 0
2, 115875, Note_on_c, 0, 56, 19
2, 115910, Note_on_c, 0, 56, 0
2, 115920, Note_on_c, 0, 53, 0
2, 115920, Note_on_c, 0, 65, 0
2, 115920, Note_on_c, 0, 67, 88
2, 115920, Note_on_c, 0, 52, 61
2, 115920, Note_on_c, 0, 61, 31
2, 115955, Note_on_c, 0, 61, 0
2, 115965, Note_on_c, 0, 57, 20
2, 116000, Note_on_c, 0, 57, 0
2, 116010, Note_on_c, 0, 61, 31
2, 116040, Note_on_c, 0, 67, 0
2, 116040, Note_on_c, 0, 64, 79
2, 116045, Note_on_c, 0, 61, 0
2, 116055, Note_on_c, 0, 57, 20
2, 116090, Note_on_c, 0, 57, 0
2, 116100, Note_on_c, 0, 61, 31
2, 116135, Note_on_c, 0, 61, 0
2, 116145, Note_on_c, 0, 57, 20
2, 116159, Note_on_c, 0, 64, 0
2, 116159, Note_on_c, 0, 66, 88
2, 116180, Note_on_c, 0, 57, 0
2, 116190, Note_on_c, 0, 61, 31
2, 116225, Note_on_c, 0, 61, 0
2, 116235, Note_on_c, 0, 57, 20
2, 116270, Note_on_c, 0, 57, 0
2, 116280, Note_on_c, 0, 66, 0
2, 116280, Note_on_c, 0, 52, 0
2, 116280, Note_on_c, 0, 65, 84
2, 116280, Note_on_c, 0, 60, 70
2, 116280, Note_on_c, 0, 53, 50
2, 116315, Note_on_c, 0, 60, 0
2, 116325, Note_on_c, 0, 56, 58
2, 116360, Note_on_c, 0, 56, 0
2, 116370, Note_on_c, 0, 60, 70
2, 116405, Note_on_c, 0, 60, 0
2, 116415, Note_on_c, 0, 56, 58
2, 116450, Note_on_c, 0, 56, 0
2, 116460, Note_on_c, 0, 60, 70
2, 116495, Note_on_c, 0, 60, 0
2, 116505, Note_on_c, 0, 56, 58
2, 116540, Note_on_c, 0, 56, 0
2, 116550, Note_on_c, 0, 60, 70
2, 116585, Note_on_c, 0, 60, 0
2, 116595, Note_on_c, 0, 56, 58
2, 116630, Note_on_c, 0, 56, 0
2, 116640, Note_on_c, 0, 53, 0
2, 116640, Note_on_c, 0, 59, 64
2, 116640, Note_on_c, 0, 55, 61
2, 116640, Note_on_c, 0, 43, 53
2, 116640, Note_on_c, 0, 51, 53
2, 116663, Note_on_c, 0, 59, 0
2, 116670, Note_on_c, 0, 59, 64
2, 116692, Note_on_c, 0, 59, 0
2, 116699, Note_on_c, 0, 59, 64
2, 116722, Note_on_c, 0, 59, 0
2, 116729, Note_on_c, 0, 59, 64
2, 116751, Note_on_c, 0, 59, 0
2, 116758, Note_on_c, 0, 59, 64
2, 116781, Note_on_c, 0, 59, 0
2, 116788, Note_on_c, 0, 59, 64
2, 116810, Note_on_c, 0, 59, 0
2, 116817, Note_on_c, 0, 59, 64
2, 116840, Note_on_c, 0, 59, 0
2, 116847, Note_on_c, 0, 59, 64
2, 116869, Note_on_c, 0, 59, 0
2, 116876, Note_on_c, 0, 59, 64
2, 116879, Note_on_c, 0, 55, 0
2, 116879, Note_on_c, 0, 59, 63
2, 116879, Note_on_c, 0, 54, 64
2, 116891, Note_on_c, 0, 59, 0
2, 116893, Note_on_c, 0, 55, 55
2, 116899, Note_on_c, 0, 59, 0
2, 116904, Note_on_c, 0, 55, 0
2, 116907, Note_on_c, 0, 59, 63
2, 116919, Note_on_c, 0, 59, 0
2, 116921, Note_on_c, 0, 55, 55
2, 116933, Note_on_c, 0, 55, 0
2, 116936, Note_on_c, 0, 59, 63
2, 116947, Note_on_c, 0, 59, 0
2, 116949, Note_on_c, 0, 55, 55
2, 116961, Note_on_c, 0, 55, 0
2, 116964, Note_on_c, 0, 59, 63
2, 116975, Note_on_c, 0, 59, 0
2, 116978, Note_on_c, 0, 55, 55
2, 116989, Note_on_c, 0, 55, 0
2, 116992, Note_on_c, 0, 59, 63
2, 117000, Note_on_c, 0, 51, 0
2, 117000, Note_on_c, 0, 43, 0
2, 117000, Note_on_c, 0, 65, 0
2, 117000, Note_on_c, 0, 54, 0
2, 117000, Note_on_c, 0, 65, 84
2, 117000, Note_on_c, 0, 59, 63
2, 117000, Note_on_c, 0, 50, 55
2, 117003, Note_on_c, 0, 59, 0
2, 117035, Note_on_c, 0, 59, 0
2, 117045, Note_on_c, 0, 53, 56
2, 117080, Note_on_c, 0, 53, 0
2, 117090, Note_on_c, 0, 59, 63
2, 117125, Note_on_c, 0, 59, 0
2, 117135, Note_on_c, 0, 53, 56
2, 117170, Note_on_c, 0, 53, 0
2, 117180, Note_on_c, 0, 65, 0
2, 117180, Note_on_c, 0, 56, 118
2, 117180, Note_on_c, 0, 68, 118
2, 117180, Note_on_c, 0, 59, 63
2, 117215, Note_on_c, 0, 59, 0
2, 117225, Note_on_c, 0, 53, 56
2, 117260, Note_on_c, 0, 53, 0
2, 117270, Note_on_c, 0, 59, 63
2, 117305, Note_on_c, 0, 59, 0
2, 117315, Note_on_c, 0, 53, 56
2, 117350, Note_on_c, 0, 53, 0
2, 117360, Note_on_c, 0, 59, 63
2, 117395, Note_on_c, 0, 59, 0
2, 117405, Note_on_c, 0, 53, 56
2, 117440, Note_on_c, 0, 53, 0
2, 117450, Note_on_c, 0, 59, 63
2, 117485, Note_on_c, 0, 59, 0
2, 117495, Note_on_c, 0, 53, 56
2, 117530, Note_on_c, 0, 53, 0
2, 117540, Note_on_c, 0, 59, 63
2, 117575, Note_on_c, 0, 59, 0
2, 117585, Note_on_c, 0, 53, 56
2, 117620, Note_on_c, 0, 53, 0
2, 117630, Note_on_c, 0, 59, 63
2, 117665, Note_on_c, 0, 59, 0
2, 117675, Note_on_c, 0, 53, 56
2, 117710, Note_on_c, 0, 53, 0
2, 117720, Note_on_c, 0, 50, 0
2, 117720, Note_on_c, 0, 51, 22
2, 117720, Note_on_c, 0, 60, 71
2, 117720, Note_on_c, 0, 32, 79
2, 117720, Note_on_c, 0, 44, 79
2, 117755, Note_on_c, 0, 60, 0
2, 117765, Note_on_c, 0, 54, 57
2, 117800, Note_on_c, 0, 54, 0
2, 117810, Note_on_c, 0, 60, 71
2, 117845, Note_on_c, 0, 60, 0
2, 117855, Note_on_c, 0, 54, 57
2, 117890, Note_on_c, 0, 54, 0
2, 117900, Note_on_c, 0, 60, 71
2, 117935, Note_on_c, 0, 60, 0
2, 117945, Note_on_c, 0, 54, 57
2, 117980, Note_on_c, 0, 54, 0
2, 117990, Note_on_c, 0, 60, 71
2, 118025, Note_on_c, 0, 60, 0
2, 118035, Note_on_c, 0, 54, 57
2, 118070, Note_on_c, 0, 54, 0
2, 118080, Note_on_c, 0, 44, 0
2, 118080, Note_on_c, 0, 68, 0
2, 118080, Note_on_c, 0, 56, 0
2, 118080, Note_on_c, 0, 32, 0
2, 118080, Note_on_c, 0, 60, 71
2, 118115, Note_on_c, 0, 60, 0
2, 118125, Note_on_c, 0, 54, 57
2, 118160, Note_on_c, 0, 54, 0
2, 118170, Note_on_c, 0, 60, 71
2, 118205, Note_on_c, 0, 60, 0
2, 118215, Note_on_c, 0, 54, 57
2, 118250, Note_on_c, 0, 54, 0
2, 118260, Note_on_c, 0, 60, 71
2, 118295, Note_on_c, 0, 60, 0
2, 118305, Note_on_c, 0, 54, 57
2, 118340, Note_on_c, 0, 54, 0
2, 118350, Note_on_c, 0, 60, 71
2, 118385, Note_on_c, 0, 60, 0
2, 118395, Note_on_c, 0, 54, 57
2, 118430, Note_on_c, 0, 54, 0
2, 118440, Note_on_c, 0, 60, 65
2, 118440, Note_on_c, 0, 45, 62
2, 118475, Note_on_c, 0, 60, 0
2, 118485, Note_on_c, 0, 54, 55
2, 118520, Note_on_c, 0, 54, 0
2, 118530, Note_on_c, 0, 60, 65
2, 118560, Note_on_c, 0, 45, 0
2, 118560, Note_on_c, 0, 44, 56
2, 118565, Note_on_c, 0, 60, 0
2, 118575, Note_on_c, 0, 54, 55
2, 118610, Note_on_c, 0, 54, 0
2, 118620, Note_on_c, 0, 60, 65
2, 118655, Note_on_c, 0, 60, 0
2, 118665, Note_on_c, 0, 54, 55
2, 118679, Note_on_c, 0, 44, 0
2, 118679, Note_on_c, 0, 45, 61
2, 118700, Note_on_c, 0, 54, 0
2, 118710, Note_on_c, 0, 60, 65
2, 118745, Note_on_c, 0, 60, 0
2, 118755, Note_on_c, 0, 54, 55
2, 118790, Note_on_c, 0, 54, 0
2, 118800, Note_on_c, 0, 45, 0
2, 118800, Note_on_c, 0, 60, 65
2, 118800, Note_on_c, 0, 43, 56
2, 118835, Note_on_c, 0, 60, 0
2, 118845, Note_on_c, 0, 54, 55
2, 118880, Note_on_c, 0, 54, 0
2, 118890, Note_on_c, 0, 60, 65
2, 118920, Note_on_c, 0, 43, 0
2, 118920, Note_on_c, 0, 44, 67
2, 118925, Note_on_c, 0, 60, 0
2, 118935, Note_on_c, 0, 54, 55
2, 118970, Note_on_c, 0, 54, 0
2, 118980, Note_on_c, 0, 60, 65
2, 119015, Note_on_c, 0, 60, 0
2, 119025, Note_on_c, 0, 54, 55
2, 119039, Note_on_c, 0, 44, 0
2, 119039, Note_on_c, 0, 42, 64
2, 119060, Note_on_c, 0, 54, 0
2, 119070, Note_on_c, 0, 60, 65
2, 119105, Note_on_c, 0, 60, 0
2, 119115, Note_on_c, 0, 54, 55
2, 119150, Note_on_c, 0, 54, 0
2, 119160, Note_on_c, 0, 42, 0
2, 119160, Note_on_c, 0, 51, 0
2, 119160, Note_on_c, 0, 50, 21
2, 119160, Note_on_c, 0, 59, 65
2, 119160, Note_on_c, 0, 43, 66
2, 119195, Note_on_c, 0, 59, 0
2, 119205, Note_on_c, 0, 53, 54
2, 119240, Note_on_c, 0, 53, 0
2, 119250, Note_on_c, 0, 59, 65
2, 119285, Note_on_c, 0, 59, 0
2, 119295, Note_on_c, 0, 53, 54
2, 119330, Note_on_c, 0, 53, 0
2, 119340, Note_on_c, 0, 59, 65
2, 119375, Note_on_c, 0, 59, 0
2, 119385, Note_on_c, 0, 53, 54
2, 119420, Note_on_c, 0, 53, 0
2, 119430, Note_on_c, 0, 59, 65
2, 119465, Note_on_c, 0, 59, 0
2, 119475, Note_on_c, 0, 53, 54
2, 119510, Note_on_c, 0, 53, 0
2, 119520, Note_on_c, 0, 43, 0
2, 119520, Note_on_c, 0, 59, 65
2, 119555, Note_on_c, 0, 59, 0
2, 119565, Note_on_c, 0, 53, 54
2, 119600, Note_on_c, 0, 53, 0
2, 119610, Note_on_c, 0, 59, 65
2, 119645, Note_on_c, 0, 59, 0
2, 119655, Note_on_c, 0, 53, 54
2, 119690, Note_on_c, 0, 53, 0
2, 119700, Note_on_c, 0, 59, 65
2, 119735, Note_on_c, 0, 59, 0
2, 119745, Note_on_c, 0, 53, 54
2, 119780, Note_on_c, 0, 53, 0
2, 119790, Note_on_c, 0, 59, 65
2, 119825, Note_on_c, 0, 59, 0
2, 119835, Note_on_c, 0, 53, 54
2, 119870, Note_on_c, 0, 53, 0
2, 119880, Note_on_c, 0, 59, 66
2, 119915, Note_on_c, 0, 59, 0
2, 119925, Note_on_c, 0, 53, 56
2, 119960, Note_on_c, 0, 53, 0
2, 119970, Note_on_c, 0, 59, 66
2, 120005, Note_on_c, 0, 59, 0
2, 120015, Note_on_c, 0, 53, 56
2, 120050, Note_on_c, 0, 53, 0
2, 120060, Note_on_c, 0, 57, 101
2, 120060, Note_on_c, 0, 69, 101
2, 120060, Note_on_c, 0, 59, 66
2, 120095, Note_on_c, 0, 59, 0
2, 120105, Note_on_c, 0, 53, 56
2, 120140, Note_on_c, 0, 53, 0
2, 120150, Note_on_c, 0, 59, 66
2, 120185, Note_on_c, 0, 59, 0
2, 120195, Note_on_c, 0, 53, 56
2, 120230, Note_on_c, 0, 53, 0
2, 120240, Note_on_c, 0, 59, 66
2, 120275, Note_on_c, 0, 59, 0
2, 120285, Note_on_c, 0, 53, 56
2, 120320, Note_on_c, 0, 53, 0
2, 120330, Note_on_c, 0, 59, 66
2, 120365, Note_on_c, 0, 59, 0
2, 120375, Note_on_c, 0, 53, 56
2, 120410, Note_on_c, 0, 53, 0
2, 120420, Note_on_c, 0, 59, 66
2, 120455, Note_on_c, 0, 59, 0
2, 120465, Note_on_c, 0, 53, 56
2, 120500, Note_on_c, 0, 53, 0
2, 120510, Note_on_c, 0, 59, 66
2, 120545, Note_on_c, 0, 59, 0
2, 120555, Note_on_c, 0, 53, 56
2, 120590, Note_on_c, 0, 53, 0
2, 120600, Note_on_c, 0, 50, 0
2, 120600, Note_on_c, 0, 51, 24
2, 120600, Note_on_c, 0, 60, 67
2, 120600, Note_on_c, 0, 44, 58
2, 120635, Note_on_c, 0, 60, 0
2, 120645, Note_on_c, 0, 54, 59
2, 120680, Note_on_c, 0, 54, 0
2, 120690, Note_on_c, 0, 60, 67
2, 120725, Note_on_c, 0, 60, 0
2, 120735, Note_on_c, 0, 54, 59
2, 120770, Note_on_c, 0, 54, 0
2, 120780, Note_on_c, 0, 60, 67
2, 120815, Note_on_c, 0, 60, 0
2, 120825, Note_on_c, 0, 54, 59
2, 120860, Note_on_c, 0, 54, 0
2, 120870, Note_on_c, 0, 60, 67
2, 120905, Note_on_c, 0, 60, 0
2, 120915, Note_on_c, 0, 54, 59
2, 120950, Note_on_c, 0, 54, 0
2, 120960, Note_on_c, 0, 44, 0
2, 120960, Note_on_c, 0, 57, 0
2, 120960, Note_on_c, 0, 69, 0
2, 120960, Note_on_c, 0, 51, 0
2, 120960, Note_on_c, 0, 52, 22
2, 120960, Note_on_c, 0, 61, 70
2, 120995, Note_on_c, 0, 61, 0
2, 121005, Note_on_c, 0, 55, 58
2, 121040, Note_on_c, 0, 55, 0
2, 121050, Note_on_c, 0, 61, 70
2, 121085, Note_on_c, 0, 61, 0
2, 121095, Note_on_c, 0, 55, 58
2, 121130, Note_on_c, 0, 55, 0
2, 121140, Note_on_c, 0, 58, 75
2, 121140, Note_on_c, 0, 70, 75
2, 121140, Note_on_c, 0, 61, 70
2, 121175, Note_on_c, 0, 61, 0
2, 121185, Note_on_c, 0, 55, 58
2, 121220, Note_on_c, 0, 55, 0
2, 121230, Note_on_c, 0, 61, 70
2, 121265, Note_on_c, 0, 61, 0
2, 121275, Note_on_c, 0, 55, 58
2, 121310, Note_on_c, 0, 55, 0
2, 121320, Note_on_c, 0, 61, 70
2, 121320, Note_on_c, 0, 45, 54
2, 121355, Note_on_c, 0, 61, 0
2, 121365, Note_on_c, 0, 55, 58
2, 121400, Note_on_c, 0, 55, 0
2, 121410, Note_on_c, 0, 61, 70
2, 121445, Note_on_c, 0, 61, 0
2, 121455, Note_on_c, 0, 55, 58
2, 121490, Note_on_c, 0, 55, 0
2, 121500, Note_on_c, 0, 61, 70
2, 121535, Note_on_c, 0, 61, 0
2, 121545, Note_on_c, 0, 55, 58
2, 121580, Note_on_c, 0, 55, 0
2, 121590, Note_on_c, 0, 61, 70
2, 121625, Note_on_c, 0, 61, 0
2, 121635, Note_on_c, 0, 55, 58
2, 121670, Note_on_c, 0, 55, 0
2, 121680, Note_on_c, 0, 45, 0
2, 121680, Note_on_c, 0, 52, 0
2, 121680, Note_on_c, 0, 58, 0
2, 121680, Note_on_c, 0, 70, 0
2, 121680, Note_on_c, 0, 52, 69
2, 121680, Note_on_c, 0, 55, 69
2, 121680, Note_on_c, 0, 61, 69
2, 121860, Note_on_c, 0, 61, 0
2, 121860, Note_on_c, 0, 55, 0
2, 121860, Note_on_c, 0, 52, 0
2, 121860, Note_on_c, 0, 65, 78
2, 121860, Note_on_c, 0, 58, 61
2, 121860, Note_on_c, 0, 43, 50
2, 121860, Note_on_c, 0, 50, 50
2, 121919, Note_on_c, 0, 58, 0
2, 121919, Note_on_c, 0, 57, 62
2, 121980, Note_on_c, 0, 57, 0
2, 121980, Note_on_c, 0, 56, 56
2, 122040, Note_on_c, 0, 56, 0
2, 122040, Note_on_c, 0, 65, 0
2, 122040, Note_on_c, 0, 43, 0
2, 122040, Note_on_c, 0, 50, 0
2, 122040, Note_on_c, 0, 55, 61
2, 122040, Note_on_c, 0, 62, 29
2, 122040, Note_on_c, 0, 39, 88
2, 122040, Note_on_c, 0, 46, 88
2, 122400, Note_on_c, 0, 46, 0
2, 122400, Note_on_c, 0, 55, 0
2, 122400, Note_on_c, 0, 62, 0
2, 122400, Note_on_c, 0, 39, 0
2, 122400, Note_on_c, 0, 58, 98
2, 122400, Note_on_c, 0, 70, 98
2, 122580, Note_on_c, 0, 53, 56
2, 122580, Note_on_c, 0, 58, 20
2, 122580, Note_on_c, 0, 65, 20
2, 122580, Note_on_c, 0, 38, 55
2, 122580, Note_on_c, 0, 43, 55
2, 122639, Note_on_c, 0, 53, 0
2, 122639, Note_on_c, 0, 52, 61
2, 122700, Note_on_c, 0, 52, 0
2, 122700, Note_on_c, 0, 51, 59
2, 122760, Note_on_c, 0, 51, 0
2, 122760, Note_on_c, 0, 38, 0
2, 122760, Note_on_c, 0, 58, 0
2, 122760, Note_on_c, 0, 65, 0
2, 122760, Note_on_c, 0, 43, 0
2, 122760, Note_on_c, 0, 55, 67
2, 122760, Note_on_c, 0, 58, 24
2, 122760, Note_on_c, 0, 50, 85
2, 122760, Note_on_c, 0, 31, 62
2, 122760, Note_on_c, 0, 38, 62
2, 122760, Note_on_c, 0, 43, 62
2, 123033, Note_on_c, 0, 70, 0
2, 123033, Note_on_c, 0, 58, 0
2, 123120, Note_on_c, 0, 31, 0
2, 123120, Note_on_c, 0, 55, 0
2, 123120, Note_on_c, 0, 50, 0
2, 123120, Note_on_c, 0, 43, 0
2, 123120, Note_on_c, 0, 38, 0
2, 123120, Note_on_c, 0, 58, 0
2, 123120, Note_on_c, 0, 58, 111
2, 123120, Note_on_c, 0, 70, 111
2, 123300, Note_on_c, 0, 58, 54
2, 123300, Note_on_c, 0, 65, 29
2, 123300, Note_on_c, 0, 43, 87
2, 123300, Note_on_c, 0, 50, 87
2, 123359, Note_on_c, 0, 58, 0
2, 123359, Note_on_c, 0, 57, 58
2, 123420, Note_on_c, 0, 57, 0
2, 123420, Note_on_c, 0, 56, 59
2, 123480, Note_on_c, 0, 56, 0
2, 123480, Note_on_c, 0, 43, 0
2, 123480, Note_on_c, 0, 65, 0
2, 123480, Note_on_c, 0, 50, 0
2, 123480, Note_on_c, 0, 55, 57
2, 123480, Note_on_c, 0, 62, 20
2, 123480, Note_on_c, 0, 39, 91
2, 123480, Note_on_c, 0, 46, 91
2, 123539, Note_on_c, 0, 55, 0
2, 123539, Note_on_c, 0, 54, 61
2, 123600, Note_on_c, 0, 54, 0
2, 123600, Note_on_c, 0, 53, 60
2, 123660, Note_on_c, 0, 46, 0
2, 123660, Note_on_c, 0, 62, 0
2, 123660, Note_on_c, 0, 39, 0
2, 123660, Note_on_c, 0, 58, 28
2, 123660, Note_on_c, 0, 65, 28
2, 123660, Note_on_c, 0, 38, 93
2, 123660, Note_on_c, 0, 43, 93
2, 123840, Note_on_c, 0, 43, 0
2, 123840, Note_on_c, 0, 65, 0
2, 123840, Note_on_c, 0, 70, 0
2, 123840, Note_on_c, 0, 58, 0
2, 123840, Note_on_c, 0, 53, 0
2, 123840, Note_on_c, 0, 38, 0
2, 123840, Note_on_c, 0, 58, 0
2, 123840, Note_on_c, 0, 58, 111
2, 123840, Note_on_c, 0, 70, 111
2, 124020, Note_on_c, 0, 52, 55
2, 124020, Note_on_c, 0, 55, 16
2, 124020, Note_on_c, 0, 58, 16
2, 124020, Note_on_c, 0, 31, 88
2, 124020, Note_on_c, 0, 38, 88
2, 124020, Note_on_c, 0, 43, 88
2, 124079, Note_on_c, 0, 52, 0
2, 124079, Note_on_c, 0, 51, 60
2, 124140, Note_on_c, 0, 51, 0
2, 124140, Note_on_c, 0, 50, 58
2, 124200, Note_on_c, 0, 50, 0
2, 124200, Note_on_c, 0, 43, 0
2, 124200, Note_on_c, 0, 31, 0
2, 124200, Note_on_c, 0, 58, 0
2, 124200, Note_on_c, 0, 55, 0
2, 124200, Note_on_c, 0, 38, 0
2, 124200, Note_on_c, 0, 58, 70
2, 124200, Note_on_c, 0, 65, 29
2, 124200, Note_on_c, 0, 50, 105
2, 124200, Note_on_c, 0, 43, 58
2, 124259, Note_on_c, 0, 58, 0
2, 124259, Note_on_c, 0, 57, 60
2, 124314, Note_on_c, 0, 70, 0
2, 124314, Note_on_c, 0, 58, 0
2, 124320, Note_on_c, 0, 57, 0
2, 124320, Note_on_c, 0, 56, 61
2, 124380, Note_on_c, 0, 56, 0
2, 124380, Note_on_c, 0, 43, 0
2, 124380, Note_on_c, 0, 50, 0
2, 124380, Note_on_c, 0, 65, 0
2, 124380, Note_on_c, 0, 58, 110
2, 124380, Note_on_c, 0, 70, 110
2, 124380, Note_on_c, 0, 55, 60
2, 124380, Note_on_c, 0, 62, 21
2, 124380, Note_on_c, 0, 39, 62
2, 124380, Note_on_c, 0, 46, 62
2, 124560, Note_on_c, 0, 46, 0
2, 124560, Note_on_c, 0, 62, 0
2, 124560, Note_on_c, 0, 55, 0
2, 124560, Note_on_c, 0, 39, 0
2, 124740, Note_on_c, 0, 50, 54
2, 124740, Note_on_c, 0, 55, 23
2, 124740, Note_on_c, 0, 58, 23
2, 124740, Note_on_c, 0, 31, 86
2, 124740, Note_on_c, 0, 38, 86
2, 124740, Note_on_c, 0, 43, 86
2, 124854, Note_on_c, 0, 58, 0
2, 124854, Note_on_c, 0, 70, 0
2, 124920, Note_on_c, 0, 31, 0
2, 124920, Note_on_c, 0, 50, 0
2, 124920, Note_on_c, 0, 58, 0
2, 124920, Note_on_c, 0, 43, 0
2, 124920, Note_on_c, 0, 38, 0
2, 124920, Note_on_c, 0, 55, 0
2, 124920, Note_on_c, 0, 58, 110
2, 124920, Note_on_c, 0, 70, 110
2, 125100, Note_on_c, 0, 58, 55
2, 125100, Note_on_c, 0, 65, 29
2, 125100, Note_on_c, 0, 43, 89
2, 125100, Note_on_c, 0, 50, 89
2, 125159, Note_on_c, 0, 58, 0
2, 125159, Note_on_c, 0, 57, 59
2, 125220, Note_on_c, 0, 57, 0
2, 125220, Note_on_c, 0, 56, 58
2, 125280, Note_on_c, 0, 56, 0
2, 125280, Note_on_c, 0, 43, 0
2, 125280, Note_on_c, 0, 65, 0
2, 125280, Note_on_c, 0, 50, 0
2, 125280, Note_on_c, 0, 55, 61
2, 125280, Note_on_c, 0, 58, 22
2, 125280, Note_on_c, 0, 62, 22
2, 125280, Note_on_c, 0, 39, 93
2, 125280, Note_on_c, 0, 46, 93
2, 125394, Note_on_c, 0, 70, 0
2, 125394, Note_on_c, 0, 58, 0
2, 125460, Note_on_c, 0, 55, 0
2, 125460, Note_on_c, 0, 62, 0
2, 125460, Note_on_c, 0, 58, 0
2, 125460, Note_on_c, 0, 46, 0
2, 125460, Note_on_c, 0, 39, 0
2, 125460, Note_on_c, 0, 58, 115
2, 125460, Note_on_c, 0, 70, 115
2, 125460, Note_on_c, 0, 53, 58
2, 125460, Note_on_c, 0, 65, 26
2, 125460, Note_on_c, 0, 38, 87
2, 125460, Note_on_c, 0, 43, 87
2, 125519, Note_on_c, 0, 53, 0
2, 125519, Note_on_c, 0, 52, 60
2, 125580, Note_on_c, 0, 52, 0
2, 125580, Note_on_c, 0, 51, 60
2, 125640, Note_on_c, 0, 51, 0
2, 125640, Note_on_c, 0, 38, 0
2, 125640, Note_on_c, 0, 65, 0
2, 125640, Note_on_c, 0, 43, 0
2, 125640, Note_on_c, 0, 53, 62
2, 125640, Note_on_c, 0, 58, 24
2, 125640, Note_on_c, 0, 62, 24
2, 125640, Note_on_c, 0, 31, 91
2, 125640, Note_on_c, 0, 38, 91
2, 125640, Note_on_c, 0, 43, 91
2, 125820, Note_on_c, 0, 43, 0
2, 125820, Note_on_c, 0, 38, 0
2, 125820, Note_on_c, 0, 62, 0
2, 125820, Note_on_c, 0, 58, 0
2, 125820, Note_on_c, 0, 53, 0
2, 125820, Note_on_c, 0, 31, 0
2, 125820, Note_on_c, 0, 58, 63
2, 125820, Note_on_c, 0, 65, 27
2, 125820, Note_on_c, 0, 43, 104
2, 125820, Note_on_c, 0, 50, 104
2, 125879, Note_on_c, 0, 58, 0
2, 125879, Note_on_c, 0, 57, 55
2, 125934, Note_on_c, 0, 70, 0
2, 125934, Note_on_c, 0, 58, 0
2, 125940, Note_on_c, 0, 57, 0
2, 125940, Note_on_c, 0, 56, 63
2, 126000, Note_on_c, 0, 56, 0
2, 126000, Note_on_c, 0, 50, 0
2, 126000, Note_on_c, 0, 43, 0
2, 126000, Note_on_c, 0, 65, 0
2, 126000, Note_on_c, 0, 58, 112
2, 126000, Note_on_c, 0, 70, 112
2, 126000, Note_on_c, 0, 55, 60
2, 126000, Note_on_c, 0, 62, 23
2, 126000, Note_on_c, 0, 39, 90
2, 126000, Note_on_c, 0, 46, 90
2, 126180, Note_on_c, 0, 46, 0
2, 126180, Note_on_c, 0, 62, 0
2, 126180, Note_on_c, 0, 55, 0
2, 126180, Note_on_c, 0, 39, 0
2, 126180, Note_on_c, 0, 53, 56
2, 126180, Note_on_c, 0, 58, 24
2, 126180, Note_on_c, 0, 65, 24
2, 126180, Note_on_c, 0, 38, 98
2, 126180, Note_on_c, 0, 43, 98
2, 126239, Note_on_c, 0, 53, 0
2, 126239, Note_on_c, 0, 52, 61
2, 126300, Note_on_c, 0, 52, 0
2, 126300, Note_on_c, 0, 51, 57
2, 126317, Note_on_c, 0, 58, 0
2, 126317, Note_on_c, 0, 70, 0
2, 126360, Note_on_c, 0, 38, 0
2, 126360, Note_on_c, 0, 65, 0
2, 126360, Note_on_c, 0, 58, 0
2, 126360, Note_on_c, 0, 51, 0
2, 126360, Note_on_c, 0, 43, 0
2, 126360, Note_on_c, 0, 50, 85
2, 126360, Note_on_c, 0, 55, 85
2, 126360, Note_on_c, 0, 58, 85
2, 126360, Note_on_c, 0, 31, 60
2, 126360, Note_on_c, 0, 38, 60
2, 126360, Note_on_c, 0, 43, 60
2, 126540, Note_on_c, 0, 43, 0
2, 126540, Note_on_c, 0, 55, 0
2, 126540, Note_on_c, 0, 58, 0
2, 126540, Note_on_c, 0, 50, 0
2, 126540, Note_on_c, 0, 38, 0
2, 126540, Note_on_c, 0, 31, 0
2, 126540, Note_on_c, 0, 65, 115
2, 126540, Note_on_c, 0, 58, 87
2, 126540, Note_on_c, 0, 43, 64
2, 126540, Note_on_c, 0, 50, 64
2, 126599, Note_on_c, 0, 58, 0
2, 126599, Note_on_c, 0, 57, 91
2, 126660, Note_on_c, 0, 57, 0
2, 126660, Note_on_c, 0, 56, 97
2, 126720, Note_on_c, 0, 56, 0
2, 126720, Note_on_c, 0, 65, 0
2, 126720, Note_on_c, 0, 43, 0
2, 126720, Note_on_c, 0, 50, 0
2, 126720, Note_on_c, 0, 70, 125
2, 126720, Note_on_c, 0, 74, 125
2, 126720, Note_on_c, 0, 77, 125
2, 126720, Note_on_c, 0, 55, 96
2, 126720, Note_on_c, 0, 39, 59
2, 126720, Note_on_c, 0, 46, 59
2, 126900, Note_on_c, 0, 46, 0
2, 126900, Note_on_c, 0, 55, 0
2, 126900, Note_on_c, 0, 39, 0
2, 126900, Note_on_c, 0, 53, 91
2, 126959, Note_on_c, 0, 53, 0
2, 126959, Note_on_c, 0, 52, 93
2, 127020, Note_on_c, 0, 52, 0
2, 127020, Note_on_c, 0, 51, 98
2, 127080, Note_on_c, 0, 51, 0
2, 127080, Note_on_c, 0, 74, 0
2, 127080, Note_on_c, 0, 77, 0
2, 127080, Note_on_c, 0, 70, 0
2, 127080, Note_on_c, 0, 67, 91
2, 127080, Note_on_c, 0, 70, 91
2, 127080, Note_on_c, 0, 74, 91
2, 127080, Note_on_c, 0, 31, 47
2, 127080, Note_on_c, 0, 38, 47
2, 127080, Note_on_c, 0, 43, 47
2, 127260, Note_on_c, 0, 43, 0
2, 127260, Note_on_c, 0, 31, 0
2, 127260, Note_on_c, 0, 38, 0
2, 127260, Note_on_c, 0, 65, 26
2, 127260, Note_on_c, 0, 58, 87
2, 127260, Note_on_c, 0, 43, 66
2, 127260, Note_on_c, 0, 50, 66
2, 127319, Note_on_c, 0, 58, 0
2, 127319, Note_on_c, 0, 57, 92
2, 127380, Note_on_c, 0, 57, 0
2, 127380, Note_on_c, 0, 56, 94
2, 127440, Note_on_c, 0, 56, 0
2, 127440, Note_on_c, 0, 43, 0
2, 127440, Note_on_c, 0, 74, 0
2, 127440, Note_on_c, 0, 67, 0
2, 127440, Note_on_c, 0, 70, 0
2, 127440, Note_on_c, 0, 50, 0
2, 127440, Note_on_c, 0, 65, 0
2, 127440, Note_on_c, 0, 70, 108
2, 127440, Note_on_c, 0, 74, 108
2, 127440, Note_on_c, 0, 77, 108
2, 127440, Note_on_c, 0, 55, 92
2, 127440, Note_on_c, 0, 39, 57
2, 127440, Note_on_c, 0, 46, 57
2, 127620, Note_on_c, 0, 46, 0
2, 127620, Note_on_c, 0, 55, 0
2, 127620, Note_on_c, 0, 39, 0
2, 127620, Note_on_c, 0, 53, 92
2, 127679, Note_on_c, 0, 53, 0
2, 127679, Note_on_c, 0, 52, 96
2, 127740, Note_on_c, 0, 52, 0
2, 127740, Note_on_c, 0, 50, 98
2, 127800, Note_on_c, 0, 50, 0
2, 127800, Note_on_c, 0, 74, 0
2, 127800, Note_on_c, 0, 77, 0
2, 127800, Note_on_c, 0, 70, 0
2, 127800, Note_on_c, 0, 62, 105
2, 127800, Note_on_c, 0, 65, 105
2, 127800, Note_on_c, 0, 68, 105
2, 127800, Note_on_c, 0, 56, 92
2, 127800, Note_on_c, 0, 53, 124
2, 127800, Note_on_c, 0, 40, 55
2, 127800, Note_on_c, 0, 50, 55
2, 128160, Note_on_c, 0, 53, 0
2, 128160, Note_on_c, 0, 68, 0
2, 128160, Note_on_c, 0, 62, 0
2, 128160, Note_on_c, 0, 65, 0
2, 128160, Note_on_c, 0, 52, 119
2, 128520, Note_on_c, 0, 52, 0
2, 128520, Note_on_c, 0, 53, 123
2, 128880, Note_on_c, 0, 53, 0
2, 128880, Note_on_c, 0, 52, 122
2, 129240, Note_on_c, 0, 52, 0
2, 129240, Note_on_c, 0, 56, 0
2, 129240, Note_on_c, 0, 58, 85
2, 129240, Note_on_c, 0, 53, 83
2, 129240, Note_on_c, 0, 46, 100
2, 129600, Note_on_c, 0, 53, 0
2, 129600, Note_on_c, 0, 50, 0
2, 129600, Note_on_c, 0, 40, 0
2, 129600, Note_on_c, 0, 50, 84
2, 129600, Note_on_c, 0, 40, 61
2, 129600, Note_on_c, 0, 44, 61
2, 129779, Note_on_c, 0, 44, 0
2, 129779, Note_on_c, 0, 40, 0
2, 129960, Note_on_c, 0, 50, 0
2, 129960, Note_on_c, 0, 52, 84
2, 129960, Note_on_c, 0, 46, 66
2, 129960, Note_on_c, 0, 50, 66
2, 130139, Note_on_c, 0, 50, 0
2, 130139, Note_on_c, 0, 46, 0
2, 130320, Note_on_c, 0, 52, 0
2, 130320, Note_on_c, 0, 53, 86
2, 130320, Note_on_c, 0, 40, 55
2, 130320, Note_on_c, 0, 44, 55
2, 130499, Note_on_c, 0, 44, 0
2, 130499, Note_on_c, 0, 40, 0
2, 130507, Note_on_c, 0, 46, 0
2, 130507, Note_on_c, 0, 58, 0
2, 130680, Note_on_c, 0, 53, 0
2, 130680, Note_on_c, 0, 58, 97
2, 130680, Note_on_c, 0, 52, 84
2, 130680, Note_on_c, 0, 46, 104
2, 130680, Note_on_c, 0, 50, 104
2, 131040, Note_on_c, 0, 50, 0
2, 131040, Note_on_c, 0, 46, 0
2, 131040, Note_on_c, 0, 52, 0
2, 131040, Note_on_c, 0, 53, 86
2, 131040, Note_on_c, 0, 40, 90
2, 131040, Note_on_c, 0, 44, 90
2, 131400, Note_on_c, 0, 44, 0
2, 131400, Note_on_c, 0, 40, 0
2, 131400, Note_on_c, 0, 53, 0
2, 131400, Note_on_c, 0, 50, 86
2, 131400, Note_on_c, 0, 46, 104
2, 131400, Note_on_c, 0, 50, 104
2, 131629, Note_on_c, 0, 58, 0
2, 131760, Note_on_c, 0, 50, 0
2, 131760, Note_on_c, 0, 46, 0
2, 131760, Note_on_c, 0, 50, 0
2, 131760, Note_on_c, 0, 58, 96
2, 131760, Note_on_c, 0, 52, 82
2, 131760, Note_on_c, 0, 40, 88
2, 131760, Note_on_c, 0, 44, 88
2, 132120, Note_on_c, 0, 44, 0
2, 132120, Note_on_c, 0, 40, 0
2, 132120, Note_on_c, 0, 52, 0
2, 132120, Note_on_c, 0, 53, 88
2, 132120, Note_on_c, 0, 46, 104
2, 132120, Note_on_c, 0, 50, 104
2, 132480, Note_on_c, 0, 50, 0
2, 132480, Note_on_c, 0, 46, 0
2, 132480, Note_on_c, 0, 53, 0
2, 132480, Note_on_c, 0, 52, 81
2, 132480, Note_on_c, 0, 40, 92
2, 132480, Note_on_c, 0, 44, 92
2, 132840, Note_on_c, 0, 44, 0
2, 132840, Note_on_c, 0, 58, 0
2, 132840, Note_on_c, 0, 52, 0
2, 132840, Note_on_c, 0, 40, 0
2, 132840, Note_on_c, 0, 58, 96
2, 132840, Note_on_c, 0, 53, 87
2, 132840, Note_on_c, 0, 46, 101
2, 132840, Note_on_c, 0, 50, 101
2, 133200, Note_on_c, 0, 50, 0
2, 133200, Note_on_c, 0, 46, 0
2, 133200, Note_on_c, 0, 53, 0
2, 133200, Note_on_c, 0, 50, 83
2, 133200, Note_on_c, 0, 40, 90
2, 133200, Note_on_c, 0, 44, 90
2, 133473, Note_on_c, 0, 58, 0
2, 133560, Note_on_c, 0, 50, 0
2, 133560, Note_on_c, 0, 40, 0
2, 133560, Note_on_c, 0, 44, 0
2, 133560, Note_on_c, 0, 62, 82
2, 133560, Note_on_c, 0, 65, 82
2, 133560, Note_on_c, 0, 56, 75
2, 133560, Note_on_c, 0, 47, 99
2, 133560, Note_on_c, 0, 40, 67
2, 134034, Note_on_c, 0, 65, 0
2, 134034, Note_on_c, 0, 62, 0
2, 134100, Note_on_c, 0, 61, 57
2, 134100, Note_on_c, 0, 64, 57
2, 134193, Note_on_c, 0, 56, 0
2, 134280, Note_on_c, 0, 61, 0
2, 134280, Note_on_c, 0, 64, 0
2, 134280, Note_on_c, 0, 62, 61
2, 134280, Note_on_c, 0, 65, 61
2, 134460, Note_on_c, 0, 65, 0
2, 134460, Note_on_c, 0, 62, 0
2, 134460, Note_on_c, 0, 59, 57
2, 134460, Note_on_c, 0, 62, 57
2, 134640, Note_on_c, 0, 62, 0
2, 134640, Note_on_c, 0, 59, 0
2, 134640, Note_on_c, 0, 47, 0
2, 134640, Note_on_c, 0, 61, 60
2, 134640, Note_on_c, 0, 64, 60
2, 134640, Note_on_c, 0, 47, 111
2, 134640, Note_on_c, 0, 55, 111
2, 134827, Note_on_c, 0, 40, 0
2, 135000, Note_on_c, 0, 47, 0
2, 135000, Note_on_c, 0, 61, 0
2, 135000, Note_on_c, 0, 64, 0
2, 135000, Note_on_c, 0, 55, 0
2, 135000, Note_on_c, 0, 62, 78
2, 135000, Note_on_c, 0, 65, 78
2, 135000, Note_on_c, 0, 56, 72
2, 135000, Note_on_c, 0, 47, 93
2, 135000, Note_on_c, 0, 40, 70
2, 135180, Note_on_c, 0, 80, 26
2, 135269, Note_on_c, 0, 80, 0
2, 135360, Note_on_c, 0, 77, 25
2, 135449, Note_on_c, 0, 77, 0
2, 135474, Note_on_c, 0, 65, 0
2, 135474, Note_on_c, 0, 62, 0
2, 135540, Note_on_c, 0, 61, 54
2, 135540, Note_on_c, 0, 64, 54
2, 135540, Note_on_c, 0, 80, 26
2, 135629, Note_on_c, 0, 80, 0
2, 135633, Note_on_c, 0, 56, 0
2, 135720, Note_on_c, 0, 61, 0
2, 135720, Note_on_c, 0, 64, 0
2, 135720, Note_on_c, 0, 62, 65
2, 135720, Note_on_c, 0, 65, 65
2, 135720, Note_on_c, 0, 74, 24
2, 135809, Note_on_c, 0, 74, 0
2, 135900, Note_on_c, 0, 62, 0
2, 135900, Note_on_c, 0, 65, 0
2, 135900, Note_on_c, 0, 59, 53
2, 135900, Note_on_c, 0, 62, 53
2, 135900, Note_on_c, 0, 77, 24
2, 135989, Note_on_c, 0, 77, 0
2, 136080, Note_on_c, 0, 59, 0
2, 136080, Note_on_c, 0, 62, 0
2, 136080, Note_on_c, 0, 47, 0
2, 136080, Note_on_c, 0, 61, 65
2, 136080, Note_on_c, 0, 64, 65
2, 136080, Note_on_c, 0, 70, 28
2, 136080, Note_on_c, 0, 55, 103
2, 136267, Note_on_c, 0, 40, 0
2, 136397, Note_on_c, 0, 70, 0
2, 136440, Note_on_c, 0, 61, 0
2, 136440, Note_on_c, 0, 64, 0
2, 136440, Note_on_c, 0, 55, 0
2, 136440, Note_on_c, 0, 62, 77
2, 136440, Note_on_c, 0, 65, 77
2, 136440, Note_on_c, 0, 56, 77
2, 136440, Note_on_c, 0, 47, 88
2, 136440, Note_on_c, 0, 40, 62
2, 136620, Note_on_c, 0, 80, 27
2, 136709, Note_on_c, 0, 80, 0
2, 136800, Note_on_c, 0, 77, 28
2, 136889, Note_on_c, 0, 77, 0
2, 136914, Note_on_c, 0, 65, 0
2, 136914, Note_on_c, 0, 62, 0
2, 136980, Note_on_c, 0, 61, 55
2, 136980, Note_on_c, 0, 64, 55
2, 136980, Note_on_c, 0, 80, 27
2, 137069, Note_on_c, 0, 80, 0
2, 137073, Note_on_c, 0, 56, 0
2, 137160, Note_on_c, 0, 61, 0
2, 137160, Note_on_c, 0, 47, 0
2, 137160, Note_on_c, 0, 64, 0
2, 137160, Note_on_c, 0, 62, 61
2, 137160, Note_on_c, 0, 65, 61
2, 137160, Note_on_c, 0, 74, 22
2, 137160, Note_on_c, 0, 56, 112
2, 137249, Note_on_c, 0, 74, 0
2, 137340, Note_on_c, 0, 77, 28
2, 137429, Note_on_c, 0, 77, 0
2, 137520, Note_on_c, 0, 65, 0
2, 137520, Note_on_c, 0, 62, 0
2, 137520, Note_on_c, 0, 61, 60
2, 137520, Note_on_c, 0, 64, 60
2, 137520, Note_on_c, 0, 70, 35
2, 137700, Note_on_c, 0, 64, 0
2, 137700, Note_on_c, 0, 61, 0
2, 137700, Note_on_c, 0, 62, 63
2, 137700, Note_on_c, 0, 65, 63
2, 137837, Note_on_c, 0, 70, 0
2, 137880, Note_on_c, 0, 62, 0
2, 137880, Note_on_c, 0, 56, 0
2, 137880, Note_on_c, 0, 40, 0
2, 137880, Note_on_c, 0, 65, 0
2, 137880, Note_on_c, 0, 60, 78
2, 137880, Note_on_c, 0, 66, 78
2, 137880, Note_on_c, 0, 69, 78
2, 137880, Note_on_c, 0, 54, 105
2, 137880, Note_on_c, 0, 40, 72
2, 137939, Note_on_c, 0, 69, 0
2, 137939, Note_on_c, 0, 60, 0
2, 137939, Note_on_c, 0, 66, 0
2, 138000, Note_on_c, 0, 61, 47
2, 138059, Note_on_c, 0, 61, 0
2, 138119, Note_on_c, 0, 62, 62
2, 138178, Note_on_c, 0, 62, 0
2, 138197, Note_on_c, 0, 54, 0
2, 138240, Note_on_c, 0, 66, 76
2, 138240, Note_on_c, 0, 69, 76
2, 138240, Note_on_c, 0, 63, 115
2, 138299, Note_on_c, 0, 63, 0
2, 138299, Note_on_c, 0, 69, 0
2, 138299, Note_on_c, 0, 66, 0
2, 138360, Note_on_c, 0, 67, 57
2, 138360, Note_on_c, 0, 64, 104
2, 138419, Note_on_c, 0, 64, 0
2, 138419, Note_on_c, 0, 67, 0
2, 138479, Note_on_c, 0, 81, 54
2, 138479, Note_on_c, 0, 68, 62
2, 138479, Note_on_c, 0, 65, 106
2, 138538, Note_on_c, 0, 65, 0
2, 138538, Note_on_c, 0, 68, 0
2, 138538, Note_on_c, 0, 81, 0
2, 138600, Note_on_c, 0, 80, 58
2, 138600, Note_on_c, 0, 66, 67
2, 138600, Note_on_c, 0, 69, 67
2, 138600, Note_on_c, 0, 63, 102
2, 138659, Note_on_c, 0, 69, 0
2, 138659, Note_on_c, 0, 66, 0
2, 138659, Note_on_c, 0, 80, 0
2, 138720, Note_on_c, 0, 79, 60
2, 138720, Note_on_c, 0, 70, 65
2, 138772, Note_on_c, 0, 40, 0
2, 138779, Note_on_c, 0, 70, 0
2, 138779, Note_on_c, 0, 79, 0
2, 138839, Note_on_c, 0, 78, 57
2, 138839, Note_on_c, 0, 71, 62
2, 138869, Note_on_c, 0, 63, 0
2, 138894, Note_on_c, 0, 28, 78
2, 138894, Note_on_c, 0, 40, 78
2, 138898, Note_on_c, 0, 71, 0
2, 138898, Note_on_c, 0, 78, 0
2, 138960, Note_on_c, 0, 77, 104
2, 138960, Note_on_c, 0, 68, 83
2, 138960, Note_on_c, 0, 72, 83
2, 138960, Note_on_c, 0, 56, 127
2, 138960, Note_on_c, 0, 62, 127
2, 138960, Note_on_c, 0, 65, 127
2, 139019, Note_on_c, 0, 72, 0
2, 139019, Note_on_c, 0, 68, 0
2, 139019, Note_on_c, 0, 77, 0
2, 139080, Note_on_c, 0, 73, 64
2, 139139, Note_on_c, 0, 73, 0
2, 139199, Note_on_c, 0, 74, 66
2, 139258, Note_on_c, 0, 74, 0
2, 139277, Note_on_c, 0, 40, 0
2, 139277, Note_on_c, 0, 28, 0
2, 139320, Note_on_c, 0, 62, 0
2, 139320, Note_on_c, 0, 65, 0
2, 139320, Note_on_c, 0, 56, 0
2, 139320, Note_on_c, 0, 40, 0
2, 139320, Note_on_c, 0, 40, 0
2, 139320, Note_on_c, 0, 28, 0
2, 139320, Note_on_c, 0, 28, 0
2, 139320, Note_on_c, 0, 60, 79
2, 139320, Note_on_c, 0, 66, 79
2, 139320, Note_on_c, 0, 69, 79
2, 139320, Note_on_c, 0, 54, 91
2, 139320, Note_on_c, 0, 40, 74
2, 139379, Note_on_c, 0, 69, 0
2, 139379, Note_on_c, 0, 60, 0
2, 139379, Note_on_c, 0, 66, 0
2, 139440, Note_on_c, 0, 61, 46
2, 139499, Note_on_c, 0, 61, 0
2, 139559, Note_on_c, 0, 62, 63
2, 139618, Note_on_c, 0, 62, 0
2, 139637, Note_on_c, 0, 54, 0
2, 139680, Note_on_c, 0, 66, 75
2, 139680, Note_on_c, 0, 69, 75
2, 139680, Note_on_c, 0, 63, 116
2, 139739, Note_on_c, 0, 63, 0
2, 139739, Note_on_c, 0, 69, 0
2, 139739, Note_on_c, 0, 66, 0
2, 139800, Note_on_c, 0, 67, 58
2, 139800, Note_on_c, 0, 64, 105
2, 139859, Note_on_c, 0, 64, 0
2, 139859, Note_on_c, 0, 67, 0
2, 139919, Note_on_c, 0, 81, 56
2, 139919, Note_on_c, 0, 68, 63
2, 139919, Note_on_c, 0, 65, 102
2, 139978, Note_on_c, 0, 65, 0
2, 139978, Note_on_c, 0, 68, 0
2, 139978, Note_on_c, 0, 81, 0
2, 140040, Note_on_c, 0, 80, 58
2, 140040, Note_on_c, 0, 66, 61
2, 140040, Note_on_c, 0, 69, 61
2, 140040, Note_on_c, 0, 63, 107
2, 140099, Note_on_c, 0, 69, 0
2, 140099, Note_on_c, 0, 66, 0
2, 140099, Note_on_c, 0, 80, 0
2, 140160, Note_on_c, 0, 79, 55
2, 140160, Note_on_c, 0, 70, 63
2, 140219, Note_on_c, 0, 70, 0
2, 140219, Note_on_c, 0, 79, 0
2, 140227, Note_on_c, 0, 40, 0
2, 140279, Note_on_c, 0, 78, 58
2, 140279, Note_on_c, 0, 71, 59
2, 140309, Note_on_c, 0, 63, 0
2, 140338, Note_on_c, 0, 71, 0
2, 140338, Note_on_c, 0, 78, 0
2, 140351, Note_on_c, 0, 28, 83
2, 140351, Note_on_c, 0, 40, 83
2, 140400, Note_on_c, 0, 77, 102
2, 140400, Note_on_c, 0, 68, 84
2, 140400, Note_on_c, 0, 72, 84
2, 140400, Note_on_c, 0, 56, 127
2, 140400, Note_on_c, 0, 62, 127
2, 140400, Note_on_c, 0, 65, 127
2, 140459, Note_on_c, 0, 72, 0
2, 140459, Note_on_c, 0, 68, 0
2, 140459, Note_on_c, 0, 77, 0
2, 140520, Note_on_c, 0, 73, 63
2, 140579, Note_on_c, 0, 73, 0
2, 140639, Note_on_c, 0, 74, 65
2, 140698, Note_on_c, 0, 74, 0
2, 140760, Note_on_c, 0, 56, 0
2, 140760, Note_on_c, 0, 65, 0
2, 140760, Note_on_c, 0, 62, 0
2, 140760, Note_on_c, 0, 80, 55
2, 140760, Note_on_c, 0, 66, 56
2, 140760, Note_on_c, 0, 69, 56
2, 140819, Note_on_c, 0, 69, 0
2, 140819, Note_on_c, 0, 80, 0
2, 140819, Note_on_c, 0, 66, 0
2, 140880, Note_on_c, 0, 79, 54
2, 140880, Note_on_c, 0, 70, 62
2, 140939, Note_on_c, 0, 70, 0
2, 140939, Note_on_c, 0, 79, 0
2, 140999, Note_on_c, 0, 78, 57
2, 140999, Note_on_c, 0, 71, 62
2, 141054, Note_on_c, 0, 40, 0
2, 141054, Note_on_c, 0, 28, 0
2, 141054, Note_on_c, 0, 40, 0
2, 141054, Note_on_c, 0, 40, 0
2, 141054, Note_on_c, 0, 28, 0
2, 141054, Note_on_c, 0, 28, 0
2, 141054, Note_on_c, 0, 28, 60
2, 141054, Note_on_c, 0, 40, 60
2, 141058, Note_on_c, 0, 78, 0
2, 141058, Note_on_c, 0, 71, 0
2, 141120, Note_on_c, 0, 77, 85
2, 141120, Note_on_c, 0, 68, 66
2, 141120, Note_on_c, 0, 72, 66
2, 141120, Note_on_c, 0, 56, 111
2, 141120, Note_on_c, 0, 62, 111
2, 141120, Note_on_c, 0, 65, 111
2, 141179, Note_on_c, 0, 72, 0
2, 141179, Note_on_c, 0, 68, 0
2, 141179, Note_on_c, 0, 77, 0
2, 141240, Note_on_c, 0, 73, 60
2, 141299, Note_on_c, 0, 73, 0
2, 141359, Note_on_c, 0, 74, 64
2, 141418, Note_on_c, 0, 74, 0
2, 141480, Note_on_c, 0, 56, 0
2, 141480, Note_on_c, 0, 65, 0
2, 141480, Note_on_c, 0, 62, 0
2, 141480, Note_on_c, 0, 80, 55
2, 141480, Note_on_c, 0, 66, 51
2, 141480, Note_on_c, 0, 69, 51
2, 141539, Note_on_c, 0, 69, 0
2, 141539, Note_on_c, 0, 80, 0
2, 141539, Note_on_c, 0, 66, 0
2, 141600, Note_on_c, 0, 79, 59
2, 141600, Note_on_c, 0, 70, 58
2, 141659, Note_on_c, 0, 70, 0
2, 141659, Note_on_c, 0, 79, 0
2, 141695, Note_on_c, 0, 28, 0
2, 141695, Note_on_c, 0, 40, 0
2, 141719, Note_on_c, 0, 78, 57
2, 141719, Note_on_c, 0, 71, 66
2, 141774, Note_on_c, 0, 40, 0
2, 141774, Note_on_c, 0, 40, 0
2, 141774, Note_on_c, 0, 28, 0
2, 141774, Note_on_c, 0, 28, 0
2, 141774, Note_on_c, 0, 28, 60
2, 141774, Note_on_c, 0, 40, 60
2, 141778, Note_on_c, 0, 71, 0
2, 141778, Note_on_c, 0, 78, 0
2, 141840, Note_on_c, 0, 77, 80
2, 141840, Note_on_c, 0, 68, 65
2, 141840, Note_on_c, 0, 72, 65
2, 141840, Note_on_c, 0, 56, 115
2, 141840, Note_on_c, 0, 62, 115
2, 141840, Note_on_c, 0, 65, 115
2, 141899, Note_on_c, 0, 72, 0
2, 141899, Note_on_c, 0, 68, 0
2, 141899, Note_on_c, 0, 77, 0
2, 141960, Note_on_c, 0, 73, 64
2, 142019, Note_on_c, 0, 73, 0
2, 142079, Note_on_c, 0, 74, 69
2, 142138, Note_on_c, 0, 74, 0
2, 142157, Note_on_c, 0, 40, 0
2, 142157, Note_on_c, 0, 28, 0
2, 142200, Note_on_c, 0, 62, 0
2, 142200, Note_on_c, 0, 65, 0
2, 142200, Note_on_c, 0, 56, 0
2, 142200, Note_on_c, 0, 63, 92
2, 142200, Note_on_c, 0, 66, 92
2, 142200, Note_on_c, 0, 57, 49
2, 142200, Note_on_c, 0, 41, 126
2, 142200, Note_on_c, 0, 48, 126
2, 142320, Note_on_c, 0, 57, 0
2, 142320, Note_on_c, 0, 59, 59
2, 142439, Note_on_c, 0, 59, 0
2, 142439, Note_on_c, 0, 60, 63
2, 142560, Note_on_c, 0, 60, 0
2, 142560, Note_on_c, 0, 41, 0
2, 142560, Note_on_c, 0, 63, 0
2, 142560, Note_on_c, 0, 66, 0
2, 142560, Note_on_c, 0, 48, 0
2, 142560, Note_on_c, 0, 61, 66
2, 142680, Note_on_c, 0, 61, 0
2, 142680, Note_on_c, 0, 62, 68
2, 142799, Note_on_c, 0, 62, 0
2, 142799, Note_on_c, 0, 65, 73
2, 142920, Note_on_c, 0, 65, 0
2, 142920, Note_on_c, 0, 81, 115
2, 142920, Note_on_c, 0, 72, 121
2, 142920, Note_on_c, 0, 56, 111
2, 142920, Note_on_c, 0, 63, 111
2, 142920, Note_on_c, 0, 66, 111
2, 143040, Note_on_c, 0, 81, 0
2, 143040, Note_on_c, 0, 78, 89
2, 143159, Note_on_c, 0, 78, 0
2, 143159, Note_on_c, 0, 75, 86
2, 143280, Note_on_c, 0, 75, 0
2, 143280, Note_on_c, 0, 80, 127
2, 143400, Note_on_c, 0, 80, 0
2, 143400, Note_on_c, 0, 77, 87
2, 143519, Note_on_c, 0, 77, 0
2, 143519, Note_on_c, 0, 74, 85
2, 143640, Note_on_c, 0, 74, 0
2, 143640, Note_on_c, 0, 66, 0
2, 143640, Note_on_c, 0, 72, 0
2, 143640, Note_on_c, 0, 56, 0
2, 143640, Note_on_c, 0, 63, 0
2, 143640, Note_on_c, 0, 40, 0
2, 143640, Note_on_c, 0, 40, 0
2, 143640, Note_on_c, 0, 28, 0
2, 143640, Note_on_c, 0, 28, 0
2, 143640, Note_on_c, 0, 78, 127
2, 143640, Note_on_c, 0, 66, 88
2, 143640, Note_on_c, 0, 57, 105
2, 143640, Note_on_c, 0, 41, 87
2, 143640, Note_on_c, 0, 48, 87
2, 143760, Note_on_c, 0, 57, 0
2, 143760, Note_on_c, 0, 78, 0
2, 143760, Note_on_c, 0, 75, 86
2, 143760, Note_on_c, 0, 59, 97
2, 143879, Note_on_c, 0, 59, 0
2, 143879, Note_on_c, 0, 75, 0
2, 143879, Note_on_c, 0, 72, 90
2, 143879, Note_on_c, 0, 60, 103
2, 144000, Note_on_c, 0, 60, 0
2, 144000, Note_on_c, 0, 48, 0
2, 144000, Note_on_c, 0, 66, 0
2, 144000, Note_on_c, 0, 41, 0
2, 144000, Note_on_c, 0, 72, 0
2, 144000, Note_on_c, 0, 61, 81
2, 144120, Note_on_c, 0, 61, 0
2, 144120, Note_on_c, 0, 62, 103
2, 144239, Note_on_c, 0, 62, 0
2, 144239, Note_on_c, 0, 65, 110
2, 144360, Note_on_c, 0, 65, 0
2, 144360, Note_on_c, 0, 81, 111
2, 144360, Note_on_c, 0, 72, 121
2, 144360, Note_on_c, 0, 56, 112
2, 144360, Note_on_c, 0, 63, 112
2, 144360, Note_on_c, 0, 66, 112
2, 144480, Note_on_c, 0, 81, 0
2, 144480, Note_on_c, 0, 78, 80
2, 144599, Note_on_c, 0, 78, 0
2, 144599, Note_on_c, 0, 75, 90
2, 144720, Note_on_c, 0, 75, 0
2, 144720, Note_on_c, 0, 80, 127
2, 144840, Note_on_c, 0, 80, 0
2, 144840, Note_on_c, 0, 77, 90
2, 144959, Note_on_c, 0, 77, 0
2, 144959, Note_on_c, 0, 74, 88
2, 145080, Note_on_c, 0, 74, 0
2, 145080, Note_on_c, 0, 66, 0
2, 145080, Note_on_c, 0, 72, 0
2, 145080, Note_on_c, 0, 56, 0
2, 145080, Note_on_c, 0, 63, 0
2, 145080, Note_on_c, 0, 78, 105
2, 145080, Note_on_c, 0, 66, 83
2, 145080, Note_on_c, 0, 41, 107
2, 145080, Note_on_c, 0, 48, 107
2, 145080, Note_on_c, 0, 57, 107
2, 145200, Note_on_c, 0, 66, 0
2, 145200, Note_on_c, 0, 68, 107
2, 145260, Note_on_c, 0, 78, 0
2, 145319, Note_on_c, 0, 68, 0
2, 145319, Note_on_c, 0, 69, 100
2, 145440, Note_on_c, 0, 69, 0
2, 145440, Note_on_c, 0, 57, 0
2, 145440, Note_on_c, 0, 41, 0
2, 145440, Note_on_c, 0, 48, 0
2, 145440, Note_on_c, 0, 70, 67
2, 145440, Note_on_c, 0, 58, 81
2, 145440, Note_on_c, 0, 52, 56
2, 145440, Note_on_c, 0, 43, 65
2, 145440, Note_on_c, 0, 49, 65
2, 145560, Note_on_c, 0, 52, 0
2, 145560, Note_on_c, 0, 53, 55
2, 145679, Note_on_c, 0, 53, 0
2, 145679, Note_on_c, 0, 54, 59
2, 145800, Note_on_c, 0, 54, 0
2, 145800, Note_on_c, 0, 55, 66
2, 145920, Note_on_c, 0, 55, 0
2, 145920, Note_on_c, 0, 57, 60
2, 146039, Note_on_c, 0, 57, 0
2, 146039, Note_on_c, 0, 70, 0
2, 146039, Note_on_c, 0, 67, 58
2, 146039, Note_on_c, 0, 58, 63
2, 146160, Note_on_c, 0, 58, 0
2, 146160, Note_on_c, 0, 58, 0
2, 146160, Note_on_c, 0, 67, 0
2, 146160, Note_on_c, 0, 63, 98
2, 146160, Note_on_c, 0, 75, 98
2, 146160, Note_on_c, 0, 60, 101
2, 146160, Note_on_c, 0, 69, 20
2, 146160, Note_on_c, 0, 51, 55
2, 146160, Note_on_c, 0, 66, 38
2, 146280, Note_on_c, 0, 69, 0
2, 146280, Note_on_c, 0, 67, 26
2, 146399, Note_on_c, 0, 67, 0
2, 146399, Note_on_c, 0, 69, 25
2, 146520, Note_on_c, 0, 69, 0
2, 146520, Note_on_c, 0, 66, 0
2, 146520, Note_on_c, 0, 60, 0
2, 146520, Note_on_c, 0, 49, 0
2, 146520, Note_on_c, 0, 63, 0
2, 146520, Note_on_c, 0, 43, 0
2, 146520, Note_on_c, 0, 51, 0
2, 146520, Note_on_c, 0, 75, 0
2, 146520, Note_on_c, 0, 67, 61
2, 146520, Note_on_c, 0, 70, 61
2, 146520, Note_on_c, 0, 61, 100
2, 146520, Note_on_c, 0, 55, 60
2, 146520, Note_on_c, 0, 45, 64
2, 146520, Note_on_c, 0, 52, 64
2, 146640, Note_on_c, 0, 55, 0
2, 146640, Note_on_c, 0, 56, 61
2, 146759, Note_on_c, 0, 56, 0
2, 146759, Note_on_c, 0, 57, 60
2, 146880, Note_on_c, 0, 57, 0
2, 146880, Note_on_c, 0, 58, 62
2, 147000, Note_on_c, 0, 58, 0
2, 147000, Note_on_c, 0, 59, 61
2, 147119, Note_on_c, 0, 59, 0
2, 147119, Note_on_c, 0, 70, 0
2, 147119, Note_on_c, 0, 67, 0
2, 147119, Note_on_c, 0, 66, 53
2, 147119, Note_on_c, 0, 69, 53
2, 147119, Note_on_c, 0, 60, 65
2, 147240, Note_on_c, 0, 60, 0
2, 147240, Note_on_c, 0, 45, 0
2, 147240, Note_on_c, 0, 52, 0
2, 147240, Note_on_c, 0, 66, 0
2, 147240, Note_on_c, 0, 69, 0
2, 147240, Note_on_c, 0, 67, 63
2, 147240, Note_on_c, 0, 70, 63
2, 147240, Note_on_c, 0, 53, 60
2, 147240, Note_on_c, 0, 58, 60
2, 147240, Note_on_c, 0, 46, 58
2, 147479, Note_on_c, 0, 70, 0
2, 147479, Note_on_c, 0, 67, 0
2, 147479, Note_on_c, 0, 64, 53
2, 147479, Note_on_c, 0, 67, 53
2, 147600, Note_on_c, 0, 67, 0
2, 147600, Note_on_c, 0, 53, 0
2, 147600, Note_on_c, 0, 58, 0
2, 147600, Note_on_c, 0, 61, 0
2, 147600, Note_on_c, 0, 64, 0
2, 147600, Note_on_c, 0, 63, 94
2, 147600, Note_on_c, 0, 75, 94
2, 147600, Note_on_c, 0, 66, 118
2, 147600, Note_on_c, 0, 69, 118
2, 147600, Note_on_c, 0, 54, 69
2, 147600, Note_on_c, 0, 60, 69
2, 147720, Note_on_c, 0, 69, 0
2, 147720, Note_on_c, 0, 66, 0
2, 147720, Note_on_c, 0, 67, 101
2, 147720, Note_on_c, 0, 70, 101
2, 147839, Note_on_c, 0, 70, 0
2, 147839, Note_on_c, 0, 67, 0
2, 147839, Note_on_c, 0, 69, 104
2, 147839, Note_on_c, 0, 72, 104
2, 147960, Note_on_c, 0, 72, 0
2, 147960, Note_on_c, 0, 60, 0
2, 147960, Note_on_c, 0, 63, 0
2, 147960, Note_on_c, 0, 75, 0
2, 147960, Note_on_c, 0, 46, 0
2, 147960, Note_on_c, 0, 69, 0
2, 147960, Note_on_c, 0, 54, 0
2, 147960, Note_on_c, 0, 73, 60
2, 147960, Note_on_c, 0, 64, 97
2, 147960, Note_on_c, 0, 70, 97
2, 147960, Note_on_c, 0, 48, 60
2, 147960, Note_on_c, 0, 55, 60
2, 147960, Note_on_c, 0, 58, 60
2, 148080, Note_on_c, 0, 73, 0
2, 148080, Note_on_c, 0, 74, 63
2, 148199, Note_on_c, 0, 74, 0
2, 148199, Note_on_c, 0, 75, 66
2, 148320, Note_on_c, 0, 75, 0
2, 148320, Note_on_c, 0, 70, 0
2, 148320, Note_on_c, 0, 48, 0
2, 148320, Note_on_c, 0, 64, 0
2, 148320, Note_on_c, 0, 58, 0
2, 148320, Note_on_c, 0, 55, 0
2, 148320, Note_on_c, 0, 76, 68
2, 148320, Note_on_c, 0, 64, 105
2, 148320, Note_on_c, 0, 70, 105
2, 148320, Note_on_c, 0, 42, 55
2, 148320, Note_on_c, 0, 49, 55
2, 148320, Note_on_c, 0, 54, 55
2, 148440, Note_on_c, 0, 76, 0
2, 148440, Note_on_c, 0, 78, 71
2, 148559, Note_on_c, 0, 78, 0
2, 148559, Note_on_c, 0, 81, 81
2, 148680, Note_on_c, 0, 81, 0
2, 148680, Note_on_c, 0, 70, 0
2, 148680, Note_on_c, 0, 42, 0
2, 148680, Note_on_c, 0, 64, 0
2, 148680, Note_on_c, 0, 54, 0
2, 148680, Note_on_c, 0, 49, 0
2, 148680, Note_on_c, 0, 85, 127
2, 148680, Note_on_c, 0, 74, 127
2, 148680, Note_on_c, 0, 79, 127
2, 148680, Note_on_c, 0, 63, 103
2, 148680, Note_on_c, 0, 70, 103
2, 148800, Note_on_c, 0, 85, 0
2, 148800, Note_on_c, 0, 82, 94
2, 148919, Note_on_c, 0, 82, 0
2, 148919, Note_on_c, 0, 79, 85
2, 149040, Note_on_c, 0, 79, 0
2, 149040, Note_on_c, 0, 84, 127
2, 149160, Note_on_c, 0, 84, 0
2, 149160, Note_on_c, 0, 81, 90
2, 149279, Note_on_c, 0, 81, 0
2, 149279, Note_on_c, 0, 78, 84
2, 149400, Note_on_c, 0, 78, 0
2, 149400, Note_on_c, 0, 79, 0
2, 149400, Note_on_c, 0, 74, 0
2, 149400, Note_on_c, 0, 63, 0
2, 149400, Note_on_c, 0, 70, 0
2, 149400, Note_on_c, 0, 82, 108
2, 149400, Note_on_c, 0, 70, 92
2, 149400, Note_on_c, 0, 48, 77
2, 149400, Note_on_c, 0, 55, 77
2, 149400, Note_on_c, 0, 64, 77
2, 149520, Note_on_c, 0, 82, 0
2, 149520, Note_on_c, 0, 79, 93
2, 149639, Note_on_c, 0, 79, 0
2, 149639, Note_on_c, 0, 70, 0
2, 149639, Note_on_c, 0, 76, 90
2, 149639, Note_on_c, 0, 69, 101
2, 149760, Note_on_c, 0, 69, 0
2, 149760, Note_on_c, 0, 55, 0
2, 149760, Note_on_c, 0, 64, 0
2, 149760, Note_on_c, 0, 48, 0
2, 149760, Note_on_c, 0, 76, 0
2, 149760, Note_on_c, 0, 70, 60
2, 149760, Note_on_c, 0, 64, 49
2, 149760, Note_on_c, 0, 58, 52
2, 149760, Note_on_c, 0, 61, 52
2, 149760, Note_on_c, 0, 54, 65
2, 149880, Note_on_c, 0, 54, 0
2, 149880, Note_on_c, 0, 70, 0
2, 149880, Note_on_c, 0, 71, 62
2, 149880, Note_on_c, 0, 53, 57
2, 149999, Note_on_c, 0, 53, 0
2, 149999, Note_on_c, 0, 71, 0
2, 149999, Note_on_c, 0, 72, 63
2, 149999, Note_on_c, 0, 52, 60
2, 150120, Note_on_c, 0, 52, 0
2, 150120, Note_on_c, 0, 61, 0
2, 150120, Note_on_c, 0, 64, 0
2, 150120, Note_on_c, 0, 58, 0
2, 150120, Note_on_c, 0, 72, 0
2, 150120, Note_on_c, 0, 73, 65
2, 150120, Note_on_c, 0, 67, 67
2, 150120, Note_on_c, 0, 58, 59
2, 150120, Note_on_c, 0, 61, 59
2, 150120, Note_on_c, 0, 51, 59
2, 150359, Note_on_c, 0, 73, 0
2, 150359, Note_on_c, 0, 70, 68
2, 150480, Note_on_c, 0, 70, 0
2, 150480, Note_on_c, 0, 51, 0
2, 150480, Note_on_c, 0, 67, 0
2, 150480, Note_on_c, 0, 58, 0
2, 150480, Note_on_c, 0, 61, 0
2, 150480, Note_on_c, 0, 63, 69
2, 150480, Note_on_c, 0, 75, 69
2, 150480, Note_on_c, 0, 66, 61
2, 150480, Note_on_c, 0, 72, 39
2, 150480, Note_on_c, 0, 60, 54
2, 150480, Note_on_c, 0, 57, 66
2, 150600, Note_on_c, 0, 57, 0
2, 150600, Note_on_c, 0, 72, 0
2, 150600, Note_on_c, 0, 73, 39
2, 150600, Note_on_c, 0, 56, 59
2, 150719, Note_on_c, 0, 56, 0
2, 150719, Note_on_c, 0, 73, 0
2, 150719, Note_on_c, 0, 75, 41
2, 150719, Note_on_c, 0, 55, 59
2, 150840, Note_on_c, 0, 55, 0
2, 150840, Note_on_c, 0, 75, 0
2, 150840, Note_on_c, 0, 66, 0
2, 150840, Note_on_c, 0, 63, 0
2, 150840, Note_on_c, 0, 75, 0
2, 150840, Note_on_c, 0, 60, 0
2, 150840, Note_on_c, 0, 76, 103
2, 150840, Note_on_c, 0, 64, 82
2, 150840, Note_on_c, 0, 70, 82
2, 150840, Note_on_c, 0, 54, 66
2, 150840, Note_on_c, 0, 58, 66
2, 150840, Note_on_c, 0, 61, 66
2, 151079, Note_on_c, 0, 76, 0
2, 151079, Note_on_c, 0, 61, 41
2, 151200, Note_on_c, 0, 61, 0
2, 151200, Note_on_c, 0, 61, 0
2, 151200, Note_on_c, 0, 54, 0
2, 151200, Note_on_c, 0, 64, 0
2, 151200, Note_on_c, 0, 70, 0
2, 151200, Note_on_c, 0, 58, 0
2, 151200, Note_on_c, 0, 63, 58
2, 151200, Note_on_c, 0, 58, 59
2, 151200, Note_on_c, 0, 60, 59
2, 151200, Note_on_c, 0, 51, 36
2, 151200, Note_on_c, 0, 63, 36
2, 151200, Note_on_c, 0, 46, 58
2, 151200, Note_on_c, 0, 54, 58
2, 151320, Note_on_c, 0, 63, 0
2, 151320, Note_on_c, 0, 64, 66
2, 151439, Note_on_c, 0, 64, 0
2, 151439, Note_on_c, 0, 66, 65
2, 151560, Note_on_c, 0, 66, 0
2, 151560, Note_on_c, 0, 46, 0
2, 151560, Note_on_c, 0, 60, 0
2, 151560, Note_on_c, 0, 51, 0
2, 151560, Note_on_c, 0, 58, 0
2, 151560, Note_on_c, 0, 54, 0
2, 151560, Note_on_c, 0, 63, 0
2, 151560, Note_on_c, 0, 67, 91
2, 151560, Note_on_c, 0, 55, 74
2, 151560, Note_on_c, 0, 61, 74
2, 151560, Note_on_c, 0, 40, 53
2, 151560, Note_on_c, 0, 49, 53
2, 151799, Note_on_c, 0, 67, 0
2, 151799, Note_on_c, 0, 64, 59
2, 151920, Note_on_c, 0, 64, 0
2, 151920, Note_on_c, 0, 49, 0
2, 151920, Note_on_c, 0, 55, 0
2, 151920, Note_on_c, 0, 61, 0
2, 151920, Note_on_c, 0, 40, 0
2, 151920, Note_on_c, 0, 66, 65
2, 151920, Note_on_c, 0, 60, 71
2, 151920, Note_on_c, 0, 63, 68
2, 151920, Note_on_c, 0, 51, 69
2, 151920, Note_on_c, 0, 54, 69
2, 151920, Note_on_c, 0, 58, 69
2, 152040, Note_on_c, 0, 66, 0
2, 152040, Note_on_c, 0, 67, 63
2, 152159, Note_on_c, 0, 67, 0
2, 152159, Note_on_c, 0, 69, 63
2, 152280, Note_on_c, 0, 69, 0
2, 152280, Note_on_c, 0, 63, 0
2, 152280, Note_on_c, 0, 51, 0
2, 152280, Note_on_c, 0, 60, 0
2, 152280, Note_on_c, 0, 58, 0
2, 152280, Note_on_c, 0, 54, 0
2, 152280, Note_on_c, 0, 70, 60
2, 152280, Note_on_c, 0, 58, 73
2, 152280, Note_on_c, 0, 61, 73
2, 152280, Note_on_c, 0, 43, 57
2, 152280, Note_on_c, 0, 52, 57
2, 152519, Note_on_c, 0, 70, 0
2, 152519, Note_on_c, 0, 67, 63
2, 152640, Note_on_c, 0, 67, 0
2, 152640, Note_on_c, 0, 52, 0
2, 152640, Note_on_c, 0, 58, 0
2, 152640, Note_on_c, 0, 61, 0
2, 152640, Note_on_c, 0, 43, 0
2, 152640, Note_on_c, 0, 69, 64
2, 152640, Note_on_c, 0, 63, 76
2, 152640, Note_on_c, 0, 54, 76
2, 152640, Note_on_c, 0, 58, 76
2, 152640, Note_on_c, 0, 60, 76
2, 152760, Note_on_c, 0, 69, 0
2, 152760, Note_on_c, 0, 70, 65
2, 152879, Note_on_c, 0, 70, 0
2, 152879, Note_on_c, 0, 72, 66
2, 153000, Note_on_c, 0, 72, 0
2, 153000, Note_on_c, 0, 58, 0
2, 153000, Note_on_c, 0, 63, 0
2, 153000, Note_on_c, 0, 54, 0
2, 153000, Note_on_c, 0, 60, 0
2, 153000, Note_on_c, 0, 73, 67
2, 153000, Note_on_c, 0, 61, 80
2, 153000, Note_on_c, 0, 64, 80
2, 153000, Note_on_c, 0, 46, 58
2, 153000, Note_on_c, 0, 55, 58
2, 153239, Note_on_c, 0, 73, 0
2, 153239, Note_on_c, 0, 70, 69
2, 153360, Note_on_c, 0, 70, 0
2, 153360, Note_on_c, 0, 55, 0
2, 153360, Note_on_c, 0, 61, 0
2, 153360, Note_on_c, 0, 64, 0
2, 153360, Note_on_c, 0, 46, 0
2, 153360, Note_on_c, 0, 72, 70
2, 153360, Note_on_c, 0, 63, 83
2, 153360, Note_on_c, 0, 58, 67
2, 153360, Note_on_c, 0, 60, 67
2, 153480, Note_on_c, 0, 72, 0
2, 153480, Note_on_c, 0, 73, 71
2, 153599, Note_on_c, 0, 73, 0
2, 153599, Note_on_c, 0, 75, 72
2, 153720, Note_on_c, 0, 75, 0
2, 153720, Note_on_c, 0, 63, 0
2, 153720, Note_on_c, 0, 58, 0
2, 153720, Note_on_c, 0, 60, 0
2, 153720, Note_on_c, 0, 64, 102
2, 153720, Note_on_c, 0, 76, 102
2, 153720, Note_on_c, 0, 54, 63
2, 153720, Note_on_c, 0, 58, 63
2, 153720, Note_on_c, 0, 61, 63
2, 153959, Note_on_c, 0, 76, 0
2, 153959, Note_on_c, 0, 64, 0
2, 153959, Note_on_c, 0, 64, 83
2, 153959, Note_on_c, 0, 76, 83
2, 154080, Note_on_c, 0, 76, 0
2, 154080, Note_on_c, 0, 58, 0
2, 154080, Note_on_c, 0, 61, 0
2, 154080, Note_on_c, 0, 54, 0
2, 154080, Note_on_c, 0, 64, 0
2, 154080, Note_on_c, 0, 66, 90
2, 154080, Note_on_c, 0, 75, 90
2, 154080, Note_on_c, 0, 78, 90
2, 154080, Note_on_c, 0, 63, 85
2, 154080, Note_on_c, 0, 48, 86
2, 154080, Note_on_c, 0, 54, 86
2, 154080, Note_on_c, 0, 57, 86
2, 154200, Note_on_c, 0, 78, 0
2, 154200, Note_on_c, 0, 66, 0
2, 154200, Note_on_c, 0, 75, 0
2, 154200, Note_on_c, 0, 79, 86
2, 154319, Note_on_c, 0, 79, 0
2, 154319, Note_on_c, 0, 81, 91
2, 154440, Note_on_c, 0, 81, 0
2, 154440, Note_on_c, 0, 48, 0
2, 154440, Note_on_c, 0, 63, 0
2, 154440, Note_on_c, 0, 54, 0
2, 154440, Note_on_c, 0, 57, 0
2, 154440, Note_on_c, 0, 70, 114
2, 154440, Note_on_c, 0, 73, 114
2, 154440, Note_on_c, 0, 82, 114
2, 154440, Note_on_c, 0, 64, 85
2, 154440, Note_on_c, 0, 43, 84
2, 154440, Note_on_c, 0, 52, 84
2, 154440, Note_on_c, 0, 58, 84
2, 154679, Note_on_c, 0, 82, 0
2, 154679, Note_on_c, 0, 70, 0
2, 154679, Note_on_c, 0, 73, 0
2, 154679, Note_on_c, 0, 79, 78
2, 154800, Note_on_c, 0, 79, 0
2, 154800, Note_on_c, 0, 58, 0
2, 154800, Note_on_c, 0, 64, 0
2, 154800, Note_on_c, 0, 52, 0
2, 154800, Note_on_c, 0, 43, 0
2, 154800, Note_on_c, 0, 69, 83
2, 154800, Note_on_c, 0, 75, 83
2, 154800, Note_on_c, 0, 81, 83
2, 154800, Note_on_c, 0, 63, 81
2, 154800, Note_on_c, 0, 54, 91
2, 154800, Note_on_c, 0, 57, 91
2, 154800, Note_on_c, 0, 61, 91
2, 154920, Note_on_c, 0, 81, 0
2, 154920, Note_on_c, 0, 69, 0
2, 154920, Note_on_c, 0, 75, 0
2, 154920, Note_on_c, 0, 82, 89
2, 155039, Note_on_c, 0, 82, 0
2, 155039, Note_on_c, 0, 84, 89
2, 155160, Note_on_c, 0, 84, 0
2, 155160, Note_on_c, 0, 54, 0
2, 155160, Note_on_c, 0, 63, 0
2, 155160, Note_on_c, 0, 57, 0
2, 155160, Note_on_c, 0, 61, 0
2, 155160, Note_on_c, 0, 73, 114
2, 155160, Note_on_c, 0, 79, 114
2, 155160, Note_on_c, 0, 85, 114
2, 155160, Note_on_c, 0, 64, 83
2, 155160, Note_on_c, 0, 46, 87
2, 155160, Note_on_c, 0, 55, 87
2, 155160, Note_on_c, 0, 61, 87
2, 155399, Note_on_c, 0, 85, 0
2, 155399, Note_on_c, 0, 73, 0
2, 155399, Note_on_c, 0, 79, 0
2, 155399, Note_on_c, 0, 82, 76
2, 155520, Note_on_c, 0, 82, 0
2, 155520, Note_on_c, 0, 61, 0
2, 155520, Note_on_c, 0, 64, 0
2, 155520, Note_on_c, 0, 55, 0
2, 155520, Note_on_c, 0, 46, 0
2, 155520, Note_on_c, 0, 72, 92
2, 155520, Note_on_c, 0, 75, 92
2, 155520, Note_on_c, 0, 84, 92
2, 155520, Note_on_c, 0, 63, 81
2, 155520, Note_on_c, 0, 54, 82
2, 155520, Note_on_c, 0, 57, 82
2, 155520, Note_on_c, 0, 61, 82
2, 155640, Note_on_c, 0, 84, 0
2, 155640, Note_on_c, 0, 72, 0
2, 155640, Note_on_c, 0, 75, 0
2, 155640, Note_on_c, 0, 85, 90
2, 155759, Note_on_c, 0, 85, 0
2, 155759, Note_on_c, 0, 87, 88
2, 155880, Note_on_c, 0, 87, 0
2, 155880, Note_on_c, 0, 54, 0
2, 155880, Note_on_c, 0, 63, 0
2, 155880, Note_on_c, 0, 57, 0
2, 155880, Note_on_c, 0, 61, 0
2, 155880, Note_on_c, 0, 76, 115
2, 155880, Note_on_c, 0, 79, 115
2, 155880, Note_on_c, 0, 88, 115
2, 155880, Note_on_c, 0, 64, 85
2, 155880, Note_on_c, 0, 49, 75
2, 155880, Note_on_c, 0, 55, 75
2, 155880, Note_on_c, 0, 58, 75
2, 156119, Note_on_c, 0, 88, 0
2, 156119, Note_on_c, 0, 76, 0
2, 156119, Note_on_c, 0, 79, 0
2, 156119, Note_on_c, 0, 85, 75
2, 156240, Note_on_c, 0, 85, 0
2, 156240, Note_on_c, 0, 58, 0
2, 156240, Note_on_c, 0, 64, 0
2, 156240, Note_on_c, 0, 55, 0
2, 156240, Note_on_c, 0, 49, 0
2, 156240, Note_on_c, 0, 75, 88
2, 156240, Note_on_c, 0, 87, 88
2, 156240, Note_on_c, 0, 63, 81
2, 156240, Note_on_c, 0, 49, 85
2, 156240, Note_on_c, 0, 54, 85
2, 156240, Note_on_c, 0, 57, 85
2, 156240, Note_on_c, 0, 61, 85
2, 156360, Note_on_c, 0, 87, 0
2, 156360, Note_on_c, 0, 75, 0
2, 156360, Note_on_c, 0, 88, 89
2, 156479, Note_on_c, 0, 88, 0
2, 156479, Note_on_c, 0, 90, 88
2, 156600, Note_on_c, 0, 90, 0
2, 156600, Note_on_c, 0, 63, 0
2, 156600, Note_on_c, 0, 54, 0
2, 156600, Note_on_c, 0, 49, 0
2, 156600, Note_on_c, 0, 61, 0
2, 156600, Note_on_c, 0, 57, 0
2, 156600, Note_on_c, 0, 79, 117
2, 156600, Note_on_c, 0, 91, 117
2, 156600, Note_on_c, 0, 64, 87
2, 156600, Note_on_c, 0, 45, 109
2, 156600, Note_on_c, 0, 55, 109
2, 156600, Note_on_c, 0, 60, 109
2, 156780, Note_on_c, 0, 91, 0
2, 156780, Note_on_c, 0, 79, 0
2, 156780, Note_on_c, 0, 90, 108
2, 156870, Note_on_c, 0, 90, 0
2, 156870, Note_on_c, 0, 79, 87
2, 156960, Note_on_c, 0, 79, 0
2, 156960, Note_on_c, 0, 55, 0
2, 156960, Note_on_c, 0, 45, 0
2, 156960, Note_on_c, 0, 60, 0
2, 156960, Note_on_c, 0, 64, 0
2, 156960, Note_on_c, 0, 91, 126
2, 156960, Note_on_c, 0, 67, 122
2, 157050, Note_on_c, 0, 91, 0
2, 157050, Note_on_c, 0, 79, 86
2, 157140, Note_on_c, 0, 79, 0
2, 157140, Note_on_c, 0, 88, 126
2, 157230, Note_on_c, 0, 88, 0
2, 157230, Note_on_c, 0, 79, 90
2, 157320, Note_on_c, 0, 79, 0
2, 157320, Note_on_c, 0, 67, 0
2, 157320, Note_on_c, 0, 91, 126
2, 157320, Note_on_c, 0, 64, 98
2, 157320, Note_on_c, 0, 45, 112
2, 157320, Note_on_c, 0, 52, 112
2, 157320, Note_on_c, 0, 55, 112
2, 157320, Note_on_c, 0, 60, 112
2, 157410, Note_on_c, 0, 91, 0
2, 157410, Note_on_c, 0, 79, 85
2, 157500, Note_on_c, 0, 79, 0
2, 157500, Note_on_c, 0, 84, 123
2, 157590, Note_on_c, 0, 84, 0
2, 157590, Note_on_c, 0, 79, 102
2, 157680, Note_on_c, 0, 79, 0
2, 157680, Note_on_c, 0, 64, 0
2, 157680, Note_on_c, 0, 91, 126
2, 157680, Note_on_c, 0, 60, 97
2, 157770, Note_on_c, 0, 91, 0
2, 157770, Note_on_c, 0, 79, 87
2, 157860, Note_on_c, 0, 79, 0
2, 157860, Note_on_c, 0, 81, 119
2, 157950, Note_on_c, 0, 81, 0
2, 157950, Note_on_c, 0, 79, 109
2, 157953, Note_on_c, 0, 55, 0
2, 157953, Note_on_c, 0, 52, 0
2, 157953, Note_on_c, 0, 45, 0
2, 157953, Note_on_c, 0, 60, 0
2, 158040, Note_on_c, 0, 60, 0
2, 158040, Note_on_c, 0, 79, 0
2, 158040, Note_on_c, 0, 91, 126
2, 158040, Note_on_c, 0, 54, 103
2, 158040, Note_on_c, 0, 36, 110
2, 158040, Note_on_c, 0, 45, 110
2, 158040, Note_on_c, 0, 52, 110
2, 158130, Note_on_c, 0, 91, 0
2, 158130, Note_on_c, 0, 79, 85
2, 158220, Note_on_c, 0, 79, 0
2, 158220, Note_on_c, 0, 90, 126
2, 158310, Note_on_c, 0, 90, 0
2, 158310, Note_on_c, 0, 79, 90
2, 158400, Note_on_c, 0, 79, 0
2, 158400, Note_on_c, 0, 54, 0
2, 158400, Note_on_c, 0, 91, 126
2, 158400, Note_on_c, 0, 67, 127
2, 158490, Note_on_c, 0, 91, 0
2, 158490, Note_on_c, 0, 79, 84
2, 158580, Note_on_c, 0, 79, 0
2, 158580, Note_on_c, 0, 88, 126
2, 158670, Note_on_c, 0, 88, 0
2, 158670, Note_on_c, 0, 79, 91
2, 158673, Note_on_c, 0, 45, 0
2, 158673, Note_on_c, 0, 52, 0
2, 158673, Note_on_c, 0, 36, 0
2, 158760, Note_on_c, 0, 67, 0
2, 158760, Note_on_c, 0, 79, 0
2, 158760, Note_on_c, 0, 91, 126
2, 158760, Note_on_c, 0, 64, 105
2, 158760, Note_on_c, 0, 45, 127
2, 158760, Note_on_c, 0, 52, 127
2, 158760, Note_on_c, 0, 55, 127
2, 158760, Note_on_c, 0, 60, 127
2, 158850, Note_on_c, 0, 91, 0
2, 158850, Note_on_c, 0, 79, 82
2, 158940, Note_on_c, 0, 79, 0
2, 158940, Note_on_c, 0, 84, 118
2, 159030, Note_on_c, 0, 84, 0
2, 159030, Note_on_c, 0, 79, 99
2, 159120, Note_on_c, 0, 79, 0
2, 159120, Note_on_c, 0, 64, 0
2, 159120, Note_on_c, 0, 91, 126
2, 159120, Note_on_c, 0, 60, 96
2, 159210, Note_on_c, 0, 91, 0
2, 159210, Note_on_c, 0, 79, 90
2, 159300, Note_on_c, 0, 79, 0
2, 159300, Note_on_c, 0, 81, 112
2, 159390, Note_on_c, 0, 81, 0
2, 159390, Note_on_c, 0, 79, 104
2, 159393, Note_on_c, 0, 55, 0
2, 159393, Note_on_c, 0, 52, 0
2, 159393, Note_on_c, 0, 45, 0
2, 159393, Note_on_c, 0, 60, 0
2, 159480, Note_on_c, 0, 60, 0
2, 159480, Note_on_c, 0, 79, 0
2, 159480, Note_on_c, 0, 91, 126
2, 159480, Note_on_c, 0, 54, 104
2, 159480, Note_on_c, 0, 36, 117
2, 159480, Note_on_c, 0, 45, 117
2, 159480, Note_on_c, 0, 52, 117
2, 159570, Note_on_c, 0, 91, 0
2, 159570, Note_on_c, 0, 79, 87
2, 159660, Note_on_c, 0, 79, 0
2, 159660, Note_on_c, 0, 90, 126
2, 159750, Note_on_c, 0, 90, 0
2, 159750, Note_on_c, 0, 79, 85
2, 159840, Note_on_c, 0, 79, 0
2, 159840, Note_on_c, 0, 54, 0
2, 159840, Note_on_c, 0, 91, 126
2, 159840, Note_on_c, 0, 67, 127
2, 159930, Note_on_c, 0, 91, 0
2, 159930, Note_on_c, 0, 79, 89
2, 160020, Note_on_c, 0, 79, 0
2, 160020, Note_on_c, 0, 88, 126
2, 160110, Note_on_c, 0, 88, 0
2, 160110, Note_on_c, 0, 79, 91
2, 160113, Note_on_c, 0, 45, 0
2, 160113, Note_on_c, 0, 52, 0
2, 160113, Note_on_c, 0, 36, 0
2, 160200, Note_on_c, 0, 67, 0
2, 160200, Note_on_c, 0, 79, 0
2, 160200, Note_on_c, 0, 91, 126
2, 160200, Note_on_c, 0, 64, 104
2, 160200, Note_on_c, 0, 45, 127
2, 160200, Note_on_c, 0, 52, 127
2, 160200, Note_on_c, 0, 55, 127
2, 160200, Note_on_c, 0, 60, 127
2, 160290, Note_on_c, 0, 91, 0
2, 160290, Note_on_c, 0, 79, 87
2, 160380, Note_on_c, 0, 79, 0
2, 160380, Note_on_c, 0, 84, 121
2, 160470, Note_on_c, 0, 84, 0
2, 160470, Note_on_c, 0, 79, 97
2, 160560, Note_on_c, 0, 79, 0
2, 160560, Note_on_c, 0, 64, 0
2, 160560, Note_on_c, 0, 91, 126
2, 160560, Note_on_c, 0, 60, 98
2, 160650, Note_on_c, 0, 91, 0
2, 160650, Note_on_c, 0, 79, 89
2, 160740, Note_on_c, 0, 79, 0
2, 160740, Note_on_c, 0, 81, 115
2, 160830, Note_on_c, 0, 81, 0
2, 160830, Note_on_c, 0, 79, 105
2, 160833, Note_on_c, 0, 55, 0
2, 160833, Note_on_c, 0, 52, 0
2, 160833, Note_on_c, 0, 45, 0
2, 160833, Note_on_c, 0, 60, 0
2, 160920, Note_on_c, 0, 60, 0
2, 160920, Note_on_c, 0, 79, 0
2, 160920, Note_on_c, 0, 91, 126
2, 160920, Note_on_c, 0, 54, 102
2, 160920, Note_on_c, 0, 36, 118
2, 160920, Note_on_c, 0, 45, 118
2, 160920, Note_on_c, 0, 52, 118
2, 161010, Note_on_c, 0, 91, 0
2, 161010, Note_on_c, 0, 79, 86
2, 161100, Note_on_c, 0, 79, 0
2, 161100, Note_on_c, 0, 90, 126
2, 161190, Note_on_c, 0, 90, 0
2, 161190, Note_on_c, 0, 79, 90
2, 161280, Note_on_c, 0, 79, 0
2, 161280, Note_on_c, 0, 54, 0
2, 161280, Note_on_c, 0, 91, 126
2, 161280, Note_on_c, 0, 67, 127
2, 161370, Note_on_c, 0, 91, 0
2, 161370, Note_on_c, 0, 79, 87
2, 161460, Note_on_c, 0, 79, 0
2, 161460, Note_on_c, 0, 88, 126
2, 161550, Note_on_c, 0, 88, 0
2, 161550, Note_on_c, 0, 79, 92
2, 161553, Note_on_c, 0, 45, 0
2, 161553, Note_on_c, 0, 52, 0
2, 161553, Note_on_c, 0, 36, 0
2, 161640, Note_on_c, 0, 67, 0
2, 161640, Note_on_c, 0, 79, 0
2, 161640, Note_on_c, 0, 91, 126
2, 161640, Note_on_c, 0, 64, 107
2, 161640, Note_on_c, 0, 45, 127
2, 161640, Note_on_c, 0, 52, 127
2, 161640, Note_on_c, 0, 55, 127
2, 161640, Note_on_c, 0, 60, 127
2, 161730, Note_on_c, 0, 91, 0
2, 161730, Note_on_c, 0, 79, 87
2, 161820, Note_on_c, 0, 79, 0
2, 161820, Note_on_c, 0, 84, 121
2, 161910, Note_on_c, 0, 84, 0
2, 161910, Note_on_c, 0, 79, 97
2, 162000, Note_on_c, 0, 79, 0
2, 162000, Note_on_c, 0, 64, 0
2, 162000, Note_on_c, 0, 91, 126
2, 162000, Note_on_c, 0, 60, 101
2, 162090, Note_on_c, 0, 91, 0
2, 162090, Note_on_c, 0, 79, 88
2, 162180, Note_on_c, 0, 79, 0
2, 162180, Note_on_c, 0, 81, 113
2, 162270, Note_on_c, 0, 81, 0
2, 162270, Note_on_c, 0, 79, 106
2, 162273, Note_on_c, 0, 55, 0
2, 162273, Note_on_c, 0, 52, 0
2, 162273, Note_on_c, 0, 45, 0
2, 162273, Note_on_c, 0, 60, 0
2, 162360, Note_on_c, 0, 60, 0
2, 162360, Note_on_c, 0, 79, 0
2, 162360, Note_on_c, 0, 54, 74
2, 162360, Note_on_c, 0, 36, 109
2, 162360, Note_on_c, 0, 45, 109
2, 162360, Note_on_c, 0, 52, 109
2, 162720, Note_on_c, 0, 52, 0
2, 162720, Note_on_c, 0, 54, 0
2, 162720, Note_on_c, 0, 36, 0
2, 162720, Note_on_c, 0, 45, 0
2, 162720, Note_on_c, 0, 80, 103
2, 162720, Note_on_c, 0, 84, 103
2, 162720, Note_on_c, 0, 88, 103
2, 162720, Note_on_c, 0, 26, 120
2, 162720, Note_on_c, 0, 38, 120
2, 162900, Note_on_c, 0, 88, 0
2, 162900, Note_on_c, 0, 80, 0
2, 162900, Note_on_c, 0, 84, 0
2, 162900, Note_on_c, 0, 78, 106
2, 162900, Note_on_c, 0, 82, 106
2, 162900, Note_on_c, 0, 86, 106
2, 163080, Note_on_c, 0, 86, 0
2, 163080, Note_on_c, 0, 78, 0
2, 163080, Note_on_c, 0, 82, 0
2, 163080, Note_on_c, 0, 80, 114
2, 163080, Note_on_c, 0, 84, 114
2, 163080, Note_on_c, 0, 88, 114
2, 163080, Note_on_c, 0, 54, 94
2, 163080, Note_on_c, 0, 60, 94
2, 163080, Note_on_c, 0, 64, 94
2, 163080, Note_on_c, 0, 68, 94
2, 163260, Note_on_c, 0, 88, 0
2, 163260, Note_on_c, 0, 84, 0
2, 163260, Note_on_c, 0, 80, 0
2, 163260, Note_on_c, 0, 80, 101
2, 163260, Note_on_c, 0, 84, 101
2, 163260, Note_on_c, 0, 76, 127
2, 163440, Note_on_c, 0, 84, 0
2, 163440, Note_on_c, 0, 80, 0
2, 163440, Note_on_c, 0, 80, 123
2, 163440, Note_on_c, 0, 84, 123
2, 163440, Note_on_c, 0, 88, 123
2, 163620, Note_on_c, 0, 88, 0
2, 163620, Note_on_c, 0, 84, 0
2, 163620, Note_on_c, 0, 76, 0
2, 163620, Note_on_c, 0, 80, 0
2, 163620, Note_on_c, 0, 78, 96
2, 163620, Note_on_c, 0, 82, 96
2, 163620, Note_on_c, 0, 74, 127
2, 163800, Note_on_c, 0, 82, 0
2, 163800, Note_on_c, 0, 78, 0
2, 163800, Note_on_c, 0, 38, 0
2, 163800, Note_on_c, 0, 54, 0
2, 163800, Note_on_c, 0, 26, 0
2, 163800, Note_on_c, 0, 68, 0
2, 163800, Note_on_c, 0, 64, 0
2, 163800, Note_on_c, 0, 60, 0
2, 163800, Note_on_c, 0, 80, 127
2, 163800, Note_on_c, 0, 84, 127
2, 163800, Note_on_c, 0, 88, 127
2, 163800, Note_on_c, 0, 26, 127
2, 163800, Note_on_c, 0, 38, 127
2, 163980, Note_on_c, 0, 88, 0
2, 163980, Note_on_c, 0, 84, 0
2, 163980, Note_on_c, 0, 74, 0
2, 163980, Note_on_c, 0, 80, 0
2, 163980, Note_on_c, 0, 72, 94
2, 163980, Note_on_c, 0, 80, 94
2, 163980, Note_on_c, 0, 76, 127
2, 164160, Note_on_c, 0, 80, 0
2, 164160, Note_on_c, 0, 72, 0
2, 164160, Note_on_c, 0, 80, 126
2, 164160, Note_on_c, 0, 84, 126
2, 164160, Note_on_c, 0, 88, 126
2, 164160, Note_on_c, 0, 54, 93
2, 164160, Note_on_c, 0, 60, 93
2, 164160, Note_on_c, 0, 64, 93
2, 164160, Note_on_c, 0, 68, 93
2, 164340, Note_on_c, 0, 88, 0
2, 164340, Note_on_c, 0, 80, 0
2, 164340, Note_on_c, 0, 76, 0
2, 164340, Note_on_c, 0, 84, 0
2, 164340, Note_on_c, 0, 78, 108
2, 164340, Note_on_c, 0, 82, 108
2, 164340, Note_on_c, 0, 86, 108
2, 164340, Note_on_c, 0, 72, 123
2, 164520, Note_on_c, 0, 72, 0
2, 164520, Note_on_c, 0, 86, 0
2, 164520, Note_on_c, 0, 78, 0
2, 164520, Note_on_c, 0, 82, 0
2, 164520, Note_on_c, 0, 80, 122
2, 164520, Note_on_c, 0, 84, 122
2, 164520, Note_on_c, 0, 88, 122
2, 164700, Note_on_c, 0, 88, 0
2, 164700, Note_on_c, 0, 84, 0
2, 164700, Note_on_c, 0, 80, 0
2, 164700, Note_on_c, 0, 80, 103
2, 164700, Note_on_c, 0, 84, 103
2, 164700, Note_on_c, 0, 76, 127
2, 164880, Note_on_c, 0, 84, 0
2, 164880, Note_on_c, 0, 80, 0
2, 164880, Note_on_c, 0, 68, 0
2, 164880, Note_on_c, 0, 26, 0
2, 164880, Note_on_c, 0, 38, 0
2, 164880, Note_on_c, 0, 60, 0
2, 164880, Note_on_c, 0, 64, 0
2, 164880, Note_on_c, 0, 54, 0
2, 164880, Note_on_c, 0, 80, 121
2, 164880, Note_on_c, 0, 84, 121
2, 164880, Note_on_c, 0, 88, 121
2, 164880, Note_on_c, 0, 26, 127
2, 164880, Note_on_c, 0, 38, 127
2, 165060, Note_on_c, 0, 88, 0
2, 165060, Note_on_c, 0, 84, 0
2, 165060, Note_on_c, 0, 76, 0
2, 165060, Note_on_c, 0, 80, 0
2, 165060, Note_on_c, 0, 74, 101
2, 165060, Note_on_c, 0, 78, 101
2, 165060, Note_on_c, 0, 82, 101
2, 165060, Note_on_c, 0, 70, 116
2, 165240, Note_on_c, 0, 82, 0
2, 165240, Note_on_c, 0, 78, 0
2, 165240, Note_on_c, 0, 74, 0
2, 165240, Note_on_c, 0, 80, 127
2, 165240, Note_on_c, 0, 84, 127
2, 165240, Note_on_c, 0, 88, 127
2, 165240, Note_on_c, 0, 54, 96
2, 165240, Note_on_c, 0, 60, 96
2, 165240, Note_on_c, 0, 64, 96
2, 165240, Note_on_c, 0, 68, 96
2, 165420, Note_on_c, 0, 88, 0
2, 165420, Note_on_c, 0, 80, 0
2, 165420, Note_on_c, 0, 70, 0
2, 165420, Note_on_c, 0, 84, 0
2, 165420, Note_on_c, 0, 72, 89
2, 165420, Note_on_c, 0, 80, 89
2, 165420, Note_on_c, 0, 76, 127
2, 165600, Note_on_c, 0, 80, 0
2, 165600, Note_on_c, 0, 72, 0
2, 165600, Note_on_c, 0, 38, 0
2, 165600, Note_on_c, 0, 26, 0
2, 165600, Note_on_c, 0, 80, 126
2, 165600, Note_on_c, 0, 84, 126
2, 165600, Note_on_c, 0, 88, 126
2, 165600, Note_on_c, 0, 26, 112
2, 165600, Note_on_c, 0, 38, 112
2, 165780, Note_on_c, 0, 88, 0
2, 165780, Note_on_c, 0, 84, 0
2, 165780, Note_on_c, 0, 80, 0
2, 165780, Note_on_c, 0, 76, 0
2, 165780, Note_on_c, 0, 78, 110
2, 165780, Note_on_c, 0, 82, 110
2, 165780, Note_on_c, 0, 86, 110
2, 165780, Note_on_c, 0, 68, 115
2, 165960, Note_on_c, 0, 86, 0
2, 165960, Note_on_c, 0, 82, 0
2, 165960, Note_on_c, 0, 78, 0
2, 165960, Note_on_c, 0, 54, 0
2, 165960, Note_on_c, 0, 64, 0
2, 165960, Note_on_c, 0, 68, 0
2, 165960, Note_on_c, 0, 60, 0
2, 165960, Note_on_c, 0, 80, 119
2, 165960, Note_on_c, 0, 84, 119
2, 165960, Note_on_c, 0, 88, 119
2, 165960, Note_on_c, 0, 54, 112
2, 165960, Note_on_c, 0, 60, 112
2, 165960, Note_on_c, 0, 64, 112
2, 165960, Note_on_c, 0, 68, 112
2, 166140, Note_on_c, 0, 88, 0
2, 166140, Note_on_c, 0, 80, 0
2, 166140, Note_on_c, 0, 68, 0
2, 166140, Note_on_c, 0, 84, 0
2, 166140, Note_on_c, 0, 80, 102
2, 166140, Note_on_c, 0, 84, 102
2, 166140, Note_on_c, 0, 76, 127
2, 166320, Note_on_c, 0, 84, 0
2, 166320, Note_on_c, 0, 80, 0
2, 166320, Note_on_c, 0, 38, 0
2, 166320, Note_on_c, 0, 26, 0
2, 166320, Note_on_c, 0, 80, 123
2, 166320, Note_on_c, 0, 84, 123
2, 166320, Note_on_c, 0, 88, 123
2, 166320, Note_on_c, 0, 26, 127
2, 166320, Note_on_c, 0, 38, 127
2, 166500, Note_on_c, 0, 88, 0
2, 166500, Note_on_c, 0, 84, 0
2, 166500, Note_on_c, 0, 80, 0
2, 166500, Note_on_c, 0, 76, 0
2, 166500, Note_on_c, 0, 78, 100
2, 166500, Note_on_c, 0, 82, 100
2, 166500, Note_on_c, 0, 74, 127
2, 166680, Note_on_c, 0, 82, 0
2, 166680, Note_on_c, 0, 78, 0
2, 166680, Note_on_c, 0, 54, 0
2, 166680, Note_on_c, 0, 64, 0
2, 166680, Note_on_c, 0, 68, 0
2, 166680, Note_on_c, 0, 60, 0
2, 166680, Note_on_c, 0, 80, 127
2, 166680, Note_on_c, 0, 84, 127
2, 166680, Note_on_c, 0, 88, 127
2, 166680, Note_on_c, 0, 54, 112
2, 166680, Note_on_c, 0, 60, 112
2, 166680, Note_on_c, 0, 64, 112
2, 166680, Note_on_c, 0, 68, 112
2, 166860, Note_on_c, 0, 88, 0
2, 166860, Note_on_c, 0, 80, 0
2, 166860, Note_on_c, 0, 74, 0
2, 166860, Note_on_c, 0, 84, 0
2, 166860, Note_on_c, 0, 72, 94
2, 166860, Note_on_c, 0, 80, 94
2, 166860, Note_on_c, 0, 76, 127
2, 167040, Note_on_c, 0, 76, 0
2, 167040, Note_on_c, 0, 60, 0
2, 167040, Note_on_c, 0, 64, 0
2, 167040, Note_on_c, 0, 38, 0
2, 167040, Note_on_c, 0, 26, 0
2, 167040, Note_on_c, 0, 68, 0
2, 167040, Note_on_c, 0, 72, 0
2, 167040, Note_on_c, 0, 54, 0
2, 167040, Note_on_c, 0, 80, 0
2, 167040, Note_on_c, 0, 81, 126
2, 167040, Note_on_c, 0, 85, 126
2, 167040, Note_on_c, 0, 89, 126
2, 167040, Note_on_c, 0, 77, 127
2, 167040, Note_on_c, 0, 26, 110
2, 167040, Note_on_c, 0, 38, 110
2, 167220, Note_on_c, 0, 77, 0
2, 167220, Note_on_c, 0, 89, 0
2, 167220, Note_on_c, 0, 81, 0
2, 167220, Note_on_c, 0, 85, 0
2, 167220, Note_on_c, 0, 79, 111
2, 167220, Note_on_c, 0, 84, 111
2, 167220, Note_on_c, 0, 88, 111
2, 167220, Note_on_c, 0, 73, 122
2, 167400, Note_on_c, 0, 88, 0
2, 167400, Note_on_c, 0, 84, 0
2, 167400, Note_on_c, 0, 79, 0
2, 167400, Note_on_c, 0, 81, 117
2, 167400, Note_on_c, 0, 85, 117
2, 167400, Note_on_c, 0, 89, 117
2, 167400, Note_on_c, 0, 55, 101
2, 167400, Note_on_c, 0, 61, 101
2, 167400, Note_on_c, 0, 65, 101
2, 167400, Note_on_c, 0, 69, 101
2, 167580, Note_on_c, 0, 89, 0
2, 167580, Note_on_c, 0, 81, 0
2, 167580, Note_on_c, 0, 73, 0
2, 167580, Note_on_c, 0, 85, 0
2, 167580, Note_on_c, 0, 81, 101
2, 167580, Note_on_c, 0, 85, 101
2, 167580, Note_on_c, 0, 77, 127
2, 167760, Note_on_c, 0, 77, 0
2, 167760, Note_on_c, 0, 85, 0
2, 167760, Note_on_c, 0, 81, 0
2, 167760, Note_on_c, 0, 81, 124
2, 167760, Note_on_c, 0, 85, 124
2, 167760, Note_on_c, 0, 89, 124
2, 167760, Note_on_c, 0, 69, 114
2, 167940, Note_on_c, 0, 89, 0
2, 167940, Note_on_c, 0, 85, 0
2, 167940, Note_on_c, 0, 81, 0
2, 167940, Note_on_c, 0, 73, 89
2, 167940, Note_on_c, 0, 77, 89
2, 167940, Note_on_c, 0, 81, 89
2, 168120, Note_on_c, 0, 81, 0
2, 168120, Note_on_c, 0, 69, 0
2, 168120, Note_on_c, 0, 65, 0
2, 168120, Note_on_c, 0, 69, 0
2, 168120, Note_on_c, 0, 55, 0
2, 168120, Note_on_c, 0, 26, 0
2, 168120, Note_on_c, 0, 73, 0
2, 168120, Note_on_c, 0, 61, 0
2, 168120, Note_on_c, 0, 38, 0
2, 168120, Note_on_c, 0, 77, 0
2, 168120, Note_on_c, 0, 57, 126
2, 168120, Note_on_c, 0, 62, 126
2, 168120, Note_on_c, 0, 65, 126
2, 168120, Note_on_c, 0, 69, 126
2, 168120, Note_on_c, 0, 45, 96
2, 168120, Note_on_c, 0, 53, 96
2, 168480, Note_on_c, 0, 69, 127
2, 168480, Note_on_c, 0, 81, 127
2, 168600, Note_on_c, 0, 77, 102
2, 168719, Note_on_c, 0, 77, 0
2, 168719, Note_on_c, 0, 74, 100
2, 168840, Note_on_c, 0, 74, 0
2, 168840, Note_on_c, 0, 81, 0
2, 168840, Note_on_c, 0, 69, 0
2, 168840, Note_on_c, 0, 65, 127
2, 168840, Note_on_c, 0, 77, 127
2, 168960, Note_on_c, 0, 74, 103
2, 169079, Note_on_c, 0, 74, 0
2, 169079, Note_on_c, 0, 71, 102
2, 169200, Note_on_c, 0, 71, 0
2, 169200, Note_on_c, 0, 77, 0
2, 169200, Note_on_c, 0, 65, 0
2, 169200, Note_on_c, 0, 62, 127
2, 169200, Note_on_c, 0, 74, 127
2, 169320, Note_on_c, 0, 69, 102
2, 169439, Note_on_c, 0, 69, 0
2, 169439, Note_on_c, 0, 65, 98
2, 169560, Note_on_c, 0, 65, 0
2, 169560, Note_on_c, 0, 74, 0
2, 169560, Note_on_c, 0, 53, 0
2, 169560, Note_on_c, 0, 65, 0
2, 169560, Note_on_c, 0, 62, 0
2, 169560, Note_on_c, 0, 45, 0
2, 169560, Note_on_c, 0, 69, 0
2, 169560, Note_on_c, 0, 62, 0
2, 169560, Note_on_c, 0, 57, 0
2, 169560, Note_on_c, 0, 68, 119
2, 169560, Note_on_c, 0, 59, 127
2, 169560, Note_on_c, 0, 71, 127
2, 169560, Note_on_c, 0, 38, 105
2, 169560, Note_on_c, 0, 50, 105
2, 169680, Note_on_c, 0, 68, 0
2, 169680, Note_on_c, 0, 65, 101
2, 169799, Note_on_c, 0, 65, 0
2, 169799, Note_on_c, 0, 68, 123
2, 169920, Note_on_c, 0, 68, 0
2, 169920, Note_on_c, 0, 59, 0
2, 169920, Note_on_c, 0, 71, 0
2, 169920, Note_on_c, 0, 65, 127
2, 169920, Note_on_c, 0, 77, 127
2, 170040, Note_on_c, 0, 71, 99
2, 170159, Note_on_c, 0, 71, 0
2, 170159, Note_on_c, 0, 68, 103
2, 170280, Note_on_c, 0, 68, 0
2, 170280, Note_on_c, 0, 77, 0
2, 170280, Note_on_c, 0, 50, 0
2, 170280, Note_on_c, 0, 38, 0
2, 170280, Note_on_c, 0, 65, 0
2, 170280, Note_on_c, 0, 67, 107
2, 170280, Note_on_c, 0, 62, 127
2, 170280, Note_on_c, 0, 74, 127
2, 170280, Note_on_c, 0, 41, 113
2, 170280, Note_on_c, 0, 53, 113
2, 170400, Note_on_c, 0, 67, 0
2, 170400, Note_on_c, 0, 71, 123
2, 170519, Note_on_c, 0, 71, 0
2, 170519, Note_on_c, 0, 67, 99
2, 170640, Note_on_c, 0, 67, 0
2, 170640, Note_on_c, 0, 62, 0
2, 170640, Note_on_c, 0, 74, 0
2, 170640, Note_on_c, 0, 59, 125
2, 170640, Note_on_c, 0, 71, 125
2, 170760, Note_on_c, 0, 67, 100
2, 170879, Note_on_c, 0, 67, 0
2, 170879, Note_on_c, 0, 62, 98
2, 171000, Note_on_c, 0, 62, 0
2, 171000, Note_on_c, 0, 71, 0
2, 171000, Note_on_c, 0, 53, 0
2, 171000, Note_on_c, 0, 41, 0
2, 171000, Note_on_c, 0, 59, 0
2, 171000, Note_on_c, 0, 66, 118
2, 171000, Note_on_c, 0, 56, 127
2, 171000, Note_on_c, 0, 68, 127
2, 171000, Note_on_c, 0, 35, 104
2, 171000, Note_on_c, 0, 47, 104
2, 171120, Note_on_c, 0, 66, 0
2, 171120, Note_on_c, 0, 62, 102
2, 171239, Note_on_c, 0, 62, 0
2, 171239, Note_on_c, 0, 66, 126
2, 171360, Note_on_c, 0, 66, 0
2, 171360, Note_on_c, 0, 56, 0
2, 171360, Note_on_c, 0, 68, 0
2, 171360, Note_on_c, 0, 65, 127
2, 171360, Note_on_c, 0, 77, 127
2, 171480, Note_on_c, 0, 74, 106
2, 171599, Note_on_c, 0, 74, 0
2, 171599, Note_on_c, 0, 69, 94
2, 171720, Note_on_c, 0, 69, 0
2, 171720, Note_on_c, 0, 77, 0
2, 171720, Note_on_c, 0, 47, 0
2, 171720, Note_on_c, 0, 35, 0
2, 171720, Note_on_c, 0, 65, 0
2, 171720, Note_on_c, 0, 65, 113
2, 171720, Note_on_c, 0, 62, 113
2, 171720, Note_on_c, 0, 74, 113
2, 171720, Note_on_c, 0, 45, 113
2, 171720, Note_on_c, 0, 57, 113
2, 171840, Note_on_c, 0, 65, 0
2, 171840, Note_on_c, 0, 69, 112
2, 171959, Note_on_c, 0, 69, 0
2, 171959, Note_on_c, 0, 65, 111
2, 172080, Note_on_c, 0, 65, 0
2, 172080, Note_on_c, 0, 62, 0
2, 172080, Note_on_c, 0, 74, 0
2, 172080, Note_on_c, 0, 59, 110
2, 172080, Note_on_c, 0, 71, 110
2, 172200, Note_on_c, 0, 65, 110
2, 172319, Note_on_c, 0, 65, 0
2, 172319, Note_on_c, 0, 62, 109
2, 172440, Note_on_c, 0, 62, 0
2, 172440, Note_on_c, 0, 71, 0
2, 172440, Note_on_c, 0, 57, 0
2, 172440, Note_on_c, 0, 45, 0
2, 172440, Note_on_c, 0, 59, 0
2, 172440, Note_on_c, 0, 64, 108
2, 172440, Note_on_c, 0, 56, 108
2, 172440, Note_on_c, 0, 68, 108
2, 172440, Note_on_c, 0, 38, 108
2, 172440, Note_on_c, 0, 50, 108
2, 172560, Note_on_c, 0, 64, 0
2, 172560, Note_on_c, 0, 59, 108
2, 172679, Note_on_c, 0, 59, 0
2, 172679, Note_on_c, 0, 64, 107
2, 172800, Note_on_c, 0, 64, 0
2, 172800, Note_on_c, 0, 56, 0
2, 172800, Note_on_c, 0, 68, 0
2, 172800, Note_on_c, 0, 62, 106
2, 172800, Note_on_c, 0, 74, 106
2, 172920, Note_on_c, 0, 71, 105
2, 173039, Note_on_c, 0, 71, 0
2, 173039, Note_on_c, 0, 68, 105
2, 173160, Note_on_c, 0, 68, 0
2, 173160, Note_on_c, 0, 74, 0
2, 173160, Note_on_c, 0, 50, 0
2, 173160, Note_on_c, 0, 38, 0
2, 173160, Note_on_c, 0, 62, 0
2, 173160, Note_on_c, 0, 63, 104
2, 173160, Note_on_c, 0, 59, 104
2, 173160, Note_on_c, 0, 71, 104
2, 173160, Note_on_c, 0, 41, 104
2, 173160, Note_on_c, 0, 53, 104
2, 173280, Note_on_c, 0, 63, 0
2, 173280, Note_on_c, 0, 68, 103
2, 173399, Note_on_c, 0, 68, 0
2, 173399, Note_on_c, 0, 63, 103
2, 173520, Note_on_c, 0, 63, 0
2, 173520, Note_on_c, 0, 59, 0
2, 173520, Note_on_c, 0, 71, 0
2, 173520, Note_on_c, 0, 56, 102
2, 173520, Note_on_c, 0, 68, 102
2, 173640, Note_on_c, 0, 63, 101
2, 173759, Note_on_c, 0, 63, 0
2, 173759, Note_on_c, 0, 59, 101
2, 173880, Note_on_c, 0, 59, 0
2, 173880, Note_on_c, 0, 68, 0
2, 173880, Note_on_c, 0, 53, 0
2, 173880, Note_on_c, 0, 41, 0
2, 173880, Note_on_c, 0, 56, 0
2, 173880, Note_on_c, 0, 56, 94
2, 173880, Note_on_c, 0, 53, 115
2, 173880, Note_on_c, 0, 65, 115
2, 173880, Note_on_c, 0, 34, 89
2, 173880, Note_on_c, 0, 46, 89
2, 174000, Note_on_c, 0, 56, 0
2, 174000, Note_on_c, 0, 62, 113
2, 174119, Note_on_c, 0, 62, 0
2, 174119, Note_on_c, 0, 56, 95
2, 174240, Note_on_c, 0, 56, 0
2, 174240, Note_on_c, 0, 53, 0
2, 174240, Note_on_c, 0, 65, 0
2, 174240, Note_on_c, 0, 62, 114
2, 174240, Note_on_c, 0, 59, 127
2, 174240, Note_on_c, 0, 71, 127
2, 174360, Note_on_c, 0, 62, 0
2, 174360, Note_on_c, 0, 65, 111
2, 174479, Note_on_c, 0, 65, 0
2, 174479, Note_on_c, 0, 62, 92
2, 174600, Note_on_c, 0, 62, 0
2, 174600, Note_on_c, 0, 59, 0
2, 174600, Note_on_c, 0, 46, 0
2, 174600, Note_on_c, 0, 34, 0
2, 174600, Note_on_c, 0, 71, 0
2, 174600, Note_on_c, 0, 61, 95
2, 174600, Note_on_c, 0, 56, 122
2, 174600, Note_on_c, 0, 68, 122
2, 174600, Note_on_c, 0, 44, 108
2, 174600, Note_on_c, 0, 52, 108
2, 174720, Note_on_c, 0, 61, 0
2, 174720, Note_on_c, 0, 64, 111
2, 174839, Note_on_c, 0, 64, 0
2, 174839, Note_on_c, 0, 61, 93
2, 174960, Note_on_c, 0, 61, 0
2, 174960, Note_on_c, 0, 56, 0
2, 174960, Note_on_c, 0, 68, 0
2, 174960, Note_on_c, 0, 52, 114
2, 174960, Note_on_c, 0, 64, 114
2, 175080, Note_on_c, 0, 61, 89
2, 175199, Note_on_c, 0, 61, 0
2, 175199, Note_on_c, 0, 56, 89
2, 175320, Note_on_c, 0, 56, 0
2, 175320, Note_on_c, 0, 64, 0
2, 175320, Note_on_c, 0, 52, 0
2, 175320, Note_on_c, 0, 44, 0
2, 175320, Note_on_c, 0, 52, 0
2, 175320, Note_on_c, 0, 61, 100
2, 175320, Note_on_c, 0, 52, 96
2, 175320, Note_on_c, 0, 37, 100
2, 175320, Note_on_c, 0, 49, 100
2, 175440, Note_on_c, 0, 56, 99
2, 175559, Note_on_c, 0, 56, 0
2, 175559, Note_on_c, 0, 61, 99
2, 175680, Note_on_c, 0, 61, 0
2, 175680, Note_on_c, 0, 61, 0
2, 175680, Note_on_c, 0, 68, 99
2, 175800, Note_on_c, 0, 64, 98
2, 175919, Note_on_c, 0, 64, 0
2, 175919, Note_on_c, 0, 68, 98
2, 175997, Note_on_c, 0, 68, 0
2, 176040, Note_on_c, 0, 52, 0
2, 176040, Note_on_c, 0, 49, 0
2, 176040, Note_on_c, 0, 37, 0
2, 176040, Note_on_c, 0, 68, 0
2, 176040, Note_on_c, 0, 64, 98
2, 176040, Note_on_c, 0, 67, 98
2, 176040, Note_on_c, 0, 59, 94
2, 176040, Note_on_c, 0, 71, 94
2, 176040, Note_on_c, 0, 40, 98
2, 176040, Note_on_c, 0, 55, 98
2, 176160, Note_on_c, 0, 67, 97
2, 176279, Note_on_c, 0, 67, 0
2, 176279, Note_on_c, 0, 64, 97
2, 176357, Note_on_c, 0, 64, 0
2, 176400, Note_on_c, 0, 64, 0
2, 176400, Note_on_c, 0, 61, 97
2, 176400, Note_on_c, 0, 67, 97
2, 176520, Note_on_c, 0, 67, 0
2, 176520, Note_on_c, 0, 64, 96
2, 176639, Note_on_c, 0, 64, 0
2, 176639, Note_on_c, 0, 67, 96
2, 176705, Note_on_c, 0, 33, 96
2, 176717, Note_on_c, 0, 61, 0
2, 176760, Note_on_c, 0, 55, 0
2, 176760, Note_on_c, 0, 71, 0
2, 176760, Note_on_c, 0, 59, 0
2, 176760, Note_on_c, 0, 40, 0
2, 176760, Note_on_c, 0, 67, 0
2, 176760, Note_on_c, 0, 58, 96
2, 176760, Note_on_c, 0, 70, 92
2, 176760, Note_on_c, 0, 45, 96
2, 176760, Note_on_c, 0, 52, 96
2, 176760, Note_on_c, 0, 55, 96
2, 176880, Note_on_c, 0, 64, 95
2, 176999, Note_on_c, 0, 64, 0
2, 176999, Note_on_c, 0, 61, 95
2, 177077, Note_on_c, 0, 58, 0
2, 177120, Note_on_c, 0, 61, 0
2, 177120, Note_on_c, 0, 67, 95
2, 177437, Note_on_c, 0, 67, 0
2, 177480, Note_on_c, 0, 55, 0
2, 177480, Note_on_c, 0, 52, 0
2, 177480, Note_on_c, 0, 70, 0
2, 177480, Note_on_c, 0, 33, 0
2, 177480, Note_on_c, 0, 67, 0
2, 177480, Note_on_c, 0, 45, 0
2, 177480, Note_on_c, 0, 64, 93
2, 177480, Note_on_c, 0, 69, 93
2, 177480, Note_on_c, 0, 57, 90
2, 177480, Note_on_c, 0, 43, 93
2, 177480, Note_on_c, 0, 55, 93
2, 177600, Note_on_c, 0, 61, 93
2, 177719, Note_on_c, 0, 61, 0
2, 177719, Note_on_c, 0, 57, 93
2, 177797, Note_on_c, 0, 64, 0
2, 177840, Note_on_c, 0, 57, 0
2, 177840, Note_on_c, 0, 61, 92
2, 178157, Note_on_c, 0, 61, 0
2, 178200, Note_on_c, 0, 55, 0
2, 178200, Note_on_c, 0, 69, 0
2, 178200, Note_on_c, 0, 57, 0
2, 178200, Note_on_c, 0, 43, 0
2, 178200, Note_on_c, 0, 56, 91
2, 178200, Note_on_c, 0, 68, 91
2, 178200, Note_on_c, 0, 36, 91
2, 178200, Note_on_c, 0, 51, 91
2, 178320, Note_on_c, 0, 63, 91
2, 178439, Note_on_c, 0, 63, 0
2, 178439, Note_on_c, 0, 60, 91
2, 178517, Note_on_c, 0, 56, 0
2, 178560, Note_on_c, 0, 60, 0
2, 178560, Note_on_c, 0, 66, 90
2, 178877, Note_on_c, 0, 66, 0
2, 178920, Note_on_c, 0, 51, 0
2, 178920, Note_on_c, 0, 36, 0
2, 178920, Note_on_c, 0, 68, 0
2, 178920, Note_on_c, 0, 63, 89
2, 178920, Note_on_c, 0, 67, 89
2, 178920, Note_on_c, 0, 39, 89
2, 178920, Note_on_c, 0, 51, 89
2, 179040, Note_on_c, 0, 59, 89
2, 179159, Note_on_c, 0, 59, 0
2, 179159, Note_on_c, 0, 55, 89
2, 179237, Note_on_c, 0, 63, 0
2, 179280, Note_on_c, 0, 55, 0
2, 179280, Note_on_c, 0, 59, 88
2, 179597, Note_on_c, 0, 59, 0
2, 179640, Note_on_c, 0, 51, 0
2, 179640, Note_on_c, 0, 39, 0
2, 179640, Note_on_c, 0, 67, 0
2, 179640, Note_on_c, 0, 59, 54
2, 179640, Note_on_c, 0, 54, 99
2, 179640, Note_on_c, 0, 62, 99
2, 179640, Note_on_c, 0, 66, 99
2, 179640, Note_on_c, 0, 31, 59
2, 179640, Note_on_c, 0, 38, 59
2, 179640, Note_on_c, 0, 43, 59
2, 179699, Note_on_c, 0, 59, 0
2, 179699, Note_on_c, 0, 62, 64
2, 179760, Note_on_c, 0, 62, 0
2, 179760, Note_on_c, 0, 66, 68
2, 179820, Note_on_c, 0, 66, 0
2, 179820, Note_on_c, 0, 62, 0
2, 179820, Note_on_c, 0, 38, 0
2, 179820, Note_on_c, 0, 66, 0
2, 179820, Note_on_c, 0, 54, 0
2, 179820, Note_on_c, 0, 43, 0
2, 179820, Note_on_c, 0, 31, 0
2, 179820, Note_on_c, 0, 74, 75
2, 179820, Note_on_c, 0, 62, 64
2, 180000, Note_on_c, 0, 62, 0
2, 180000, Note_on_c, 0, 74, 0
2, 180000, Note_on_c, 0, 59, 57
2, 180180, Note_on_c, 0, 59, 0
2, 180180, Note_on_c, 0, 58, 67
2, 180180, Note_on_c, 0, 62, 67
2, 180180, Note_on_c, 0, 67, 67
2, 180180, Note_on_c, 0, 55, 55
2, 180180, Note_on_c, 0, 40, 55
2, 180180, Note_on_c, 0, 46, 55
2, 180360, Note_on_c, 0, 55, 0
2, 180360, Note_on_c, 0, 52, 54
2, 180497, Note_on_c, 0, 67, 0
2, 180497, Note_on_c, 0, 58, 0
2, 180497, Note_on_c, 0, 62, 0
2, 180540, Note_on_c, 0, 46, 0
2, 180540, Note_on_c, 0, 40, 0
2, 180540, Note_on_c, 0, 52, 0
2, 180540, Note_on_c, 0, 66, 64
2, 180540, Note_on_c, 0, 62, 72
2, 180540, Note_on_c, 0, 31, 57
2, 180540, Note_on_c, 0, 38, 57
2, 180540, Note_on_c, 0, 43, 57
2, 180720, Note_on_c, 0, 62, 0
2, 180720, Note_on_c, 0, 59, 62
2, 180857, Note_on_c, 0, 66, 0
2, 180900, Note_on_c, 0, 43, 0
2, 180900, Note_on_c, 0, 38, 0
2, 180900, Note_on_c, 0, 31, 0
2, 180900, Note_on_c, 0, 59, 0
2, 180900, Note_on_c, 0, 58, 75
2, 180900, Note_on_c, 0, 62, 75
2, 180900, Note_on_c, 0, 67, 75
2, 180900, Note_on_c, 0, 55, 59
2, 180900, Note_on_c, 0, 40, 65
2, 180900, Note_on_c, 0, 46, 65
2, 181080, Note_on_c, 0, 55, 0
2, 181080, Note_on_c, 0, 52, 57
2, 181260, Note_on_c, 0, 52, 0
2, 181260, Note_on_c, 0, 46, 0
2, 181260, Note_on_c, 0, 67, 0
2, 181260, Note_on_c, 0, 58, 0
2, 181260, Note_on_c, 0, 62, 0
2, 181260, Note_on_c, 0, 40, 0
2, 181260, Note_on_c, 0, 65, 73
2, 181260, Note_on_c, 0, 61, 74
2, 181260, Note_on_c, 0, 31, 62
2, 181260, Note_on_c, 0, 37, 62
2, 181260, Note_on_c, 0, 43, 62
2, 181440, Note_on_c, 0, 61, 0
2, 181440, Note_on_c, 0, 58, 63
2, 181577, Note_on_c, 0, 65, 0
2, 181620, Note_on_c, 0, 43, 0
2, 181620, Note_on_c, 0, 37, 0
2, 181620, Note_on_c, 0, 31, 0
2, 181620, Note_on_c, 0, 58, 0
2, 181620, Note_on_c, 0, 57, 71
2, 181620, Note_on_c, 0, 61, 71
2, 181620, Note_on_c, 0, 66, 71
2, 181620, Note_on_c, 0, 54, 55
2, 181620, Note_on_c, 0, 40, 62
2, 181620, Note_on_c, 0, 45, 62
2, 181800, Note_on_c, 0, 54, 0
2, 181800, Note_on_c, 0, 51, 60
2, 181937, Note_on_c, 0, 66, 0
2, 181937, Note_on_c, 0, 57, 0
2, 181937, Note_on_c, 0, 61, 0
2, 181980, Note_on_c, 0, 45, 0
2, 181980, Note_on_c, 0, 40, 0
2, 181980, Note_on_c, 0, 51, 0
2, 181980, Note_on_c, 0, 65, 68
2, 181980, Note_on_c, 0, 61, 73
2, 181980, Note_on_c, 0, 31, 62
2, 181980, Note_on_c, 0, 37, 62
2, 181980, Note_on_c, 0, 43, 62
2, 182160, Note_on_c, 0, 61, 0
2, 182160, Note_on_c, 0, 58, 63
2, 182297, Note_on_c, 0, 65, 0
2, 182340, Note_on_c, 0, 43, 0
2, 182340, Note_on_c, 0, 37, 0
2, 182340, Note_on_c, 0, 31, 0
2, 182340, Note_on_c, 0, 58, 0
2, 182340, Note_on_c, 0, 57, 75
2, 182340, Note_on_c, 0, 61, 75
2, 182340, Note_on_c, 0, 66, 75
2, 182340, Note_on_c, 0, 54, 52
2, 182340, Note_on_c, 0, 40, 58
2, 182340, Note_on_c, 0, 45, 58
2, 182520, Note_on_c, 0, 54, 0
2, 182520, Note_on_c, 0, 51, 53
2, 182700, Note_on_c, 0, 51, 0
2, 182700, Note_on_c, 0, 45, 0
2, 182700, Note_on_c, 0, 66, 0
2, 182700, Note_on_c, 0, 57, 0
2, 182700, Note_on_c, 0, 61, 0
2, 182700, Note_on_c, 0, 40, 0
2, 182700, Note_on_c, 0, 64, 67
2, 182700, Note_on_c, 0, 60, 75
2, 182700, Note_on_c, 0, 31, 61
2, 182700, Note_on_c, 0, 38, 61
2, 182700, Note_on_c, 0, 43, 61
2, 182880, Note_on_c, 0, 60, 0
2, 182880, Note_on_c, 0, 57, 61
2, 183017, Note_on_c, 0, 64, 0
2, 183060, Note_on_c, 0, 43, 0
2, 183060, Note_on_c, 0, 38, 0
2, 183060, Note_on_c, 0, 31, 0
2, 183060, Note_on_c, 0, 57, 0
2, 183060, Note_on_c, 0, 56, 78
2, 183060, Note_on_c, 0, 60, 78
2, 183060, Note_on_c, 0, 65, 78
2, 183060, Note_on_c, 0, 53, 61
2, 183060, Note_on_c, 0, 38, 60
2, 183060, Note_on_c, 0, 44, 60
2, 183240, Note_on_c, 0, 53, 0
2, 183240, Note_on_c, 0, 50, 55
2, 183377, Note_on_c, 0, 65, 0
2, 183377, Note_on_c, 0, 56, 0
2, 183377, Note_on_c, 0, 60, 0
2, 183420, Note_on_c, 0, 44, 0
2, 183420, Note_on_c, 0, 38, 0
2, 183420, Note_on_c, 0, 50, 0
2, 183420, Note_on_c, 0, 64, 64
2, 183420, Note_on_c, 0, 60, 77
2, 183420, Note_on_c, 0, 31, 58
2, 183420, Note_on_c, 0, 38, 58
2, 183420, Note_on_c, 0, 43, 58
2, 183600, Note_on_c, 0, 60, 0
2, 183600, Note_on_c, 0, 57, 64
2, 183737, Note_on_c, 0, 64, 0
2, 183780, Note_on_c, 0, 43, 0
2, 183780, Note_on_c, 0, 38, 0
2, 183780, Note_on_c, 0, 31, 0
2, 183780, Note_on_c, 0, 57, 0
2, 183780, Note_on_c, 0, 56, 76
2, 183780, Note_on_c, 0, 60, 76
2, 183780, Note_on_c, 0, 65, 76
2, 183780, Note_on_c, 0, 53, 61
2, 183780, Note_on_c, 0, 38, 62
2, 183780, Note_on_c, 0, 44, 62
2, 183960, Note_on_c, 0, 53, 0
2, 183960, Note_on_c, 0, 50, 56
2, 184118, Note_on_c, 0, 65, 0
2, 184118, Note_on_c, 0, 56, 0
2, 184118, Note_on_c, 0, 60, 0
2, 184140, Note_on_c, 0, 44, 0
2, 184140, Note_on_c, 0, 38, 0
2, 184140, Note_on_c, 0, 50, 0
2, 184140, Note_on_c, 0, 63, 68
2, 184140, Note_on_c, 0, 59, 67
2, 184140, Note_on_c, 0, 31, 56
2, 184140, Note_on_c, 0, 39, 56
2, 184140, Note_on_c, 0, 43, 56
2, 184320, Note_on_c, 0, 59, 0
2, 184320, Note_on_c, 0, 55, 61
2, 184457, Note_on_c, 0, 63, 0
2, 184500, Note_on_c, 0, 43, 0
2, 184500, Note_on_c, 0, 39, 0
2, 184500, Note_on_c, 0, 31, 0
2, 184500, Note_on_c, 0, 55, 0
2, 184500, Note_on_c, 0, 55, 71
2, 184500, Note_on_c, 0, 58, 71
2, 184500, Note_on_c, 0, 64, 71
2, 184500, Note_on_c, 0, 52, 60
2, 184500, Note_on_c, 0, 36, 59
2, 184500, Note_on_c, 0, 43, 59
2, 184680, Note_on_c, 0, 52, 0
2, 184680, Note_on_c, 0, 48, 57
2, 184817, Note_on_c, 0, 64, 0
2, 184817, Note_on_c, 0, 55, 0
2, 184817, Note_on_c, 0, 58, 0
2, 184860, Note_on_c, 0, 43, 0
2, 184860, Note_on_c, 0, 36, 0
2, 184860, Note_on_c, 0, 48, 0
2, 184860, Note_on_c, 0, 63, 65
2, 184860, Note_on_c, 0, 59, 63
2, 184860, Note_on_c, 0, 31, 53
2, 184860, Note_on_c, 0, 39, 53
2, 184860, Note_on_c, 0, 43, 53
2, 185040, Note_on_c, 0, 59, 0
2, 185040, Note_on_c, 0, 55, 58
2, 185177, Note_on_c, 0, 63, 0
2, 185220, Note_on_c, 0, 43, 0
2, 185220, Note_on_c, 0, 39, 0
2, 185220, Note_on_c, 0, 31, 0
2, 185220, Note_on_c, 0, 55, 0
2, 185220, Note_on_c, 0, 55, 76
2, 185220, Note_on_c, 0, 58, 76
2, 185220, Note_on_c, 0, 64, 76
2, 185220, Note_on_c, 0, 52, 61
2, 185220, Note_on_c, 0, 36, 59
2, 185220, Note_on_c, 0, 43, 59
2, 185400, Note_on_c, 0, 52, 0
2, 185400, Note_on_c, 0, 48, 58
2, 185558, Note_on_c, 0, 64, 0
2, 185558, Note_on_c, 0, 55, 0
2, 185558, Note_on_c, 0, 58, 0
2, 185580, Note_on_c, 0, 43, 0
2, 185580, Note_on_c, 0, 36, 0
2, 185580, Note_on_c, 0, 48, 0
2, 185580, Note_on_c, 0, 61, 65
2, 185580, Note_on_c, 0, 58, 68
2, 185580, Note_on_c, 0, 30, 61
2, 185580, Note_on_c, 0, 37, 61
2, 185580, Note_on_c, 0, 42, 61
2, 185760, Note_on_c, 0, 58, 0
2, 185760, Note_on_c, 0, 55, 59
2, 185897, Note_on_c, 0, 61, 0
2, 185940, Note_on_c, 0, 42, 0
2, 185940, Note_on_c, 0, 37, 0
2, 185940, Note_on_c, 0, 30, 0
2, 185940, Note_on_c, 0, 55, 0
2, 185940, Note_on_c, 0, 55, 70
2, 185940, Note_on_c, 0, 62, 70
2, 185940, Note_on_c, 0, 52, 54
2, 185940, Note_on_c, 0, 35, 62
2, 185940, Note_on_c, 0, 40, 62
2, 185940, Note_on_c, 0, 47, 62
2, 186120, Note_on_c, 0, 52, 0
2, 186120, Note_on_c, 0, 49, 59
2, 186257, Note_on_c, 0, 55, 0
2, 186257, Note_on_c, 0, 62, 0
2, 186300, Note_on_c, 0, 40, 0
2, 186300, Note_on_c, 0, 35, 0
2, 186300, Note_on_c, 0, 49, 0
2, 186300, Note_on_c, 0, 47, 0
2, 186300, Note_on_c, 0, 60, 71
2, 186300, Note_on_c, 0, 57, 68
2, 186300, Note_on_c, 0, 30, 58
2, 186300, Note_on_c, 0, 36, 58
2, 186300, Note_on_c, 0, 42, 58
2, 186480, Note_on_c, 0, 57, 0
2, 186480, Note_on_c, 0, 54, 58
2, 186617, Note_on_c, 0, 60, 0
2, 186660, Note_on_c, 0, 42, 0
2, 186660, Note_on_c, 0, 36, 0
2, 186660, Note_on_c, 0, 30, 0
2, 186660, Note_on_c, 0, 54, 0
2, 186660, Note_on_c, 0, 54, 75
2, 186660, Note_on_c, 0, 61, 75
2, 186660, Note_on_c, 0, 51, 62
2, 186660, Note_on_c, 0, 34, 62
2, 186660, Note_on_c, 0, 39, 62
2, 186660, Note_on_c, 0, 46, 62
2, 186840, Note_on_c, 0, 51, 0
2, 186840, Note_on_c, 0, 48, 59
2, 187020, Note_on_c, 0, 48, 0
2, 187020, Note_on_c, 0, 46, 0
2, 187020, Note_on_c, 0, 34, 0
2, 187020, Note_on_c, 0, 54, 0
2, 187020, Note_on_c, 0, 61, 0
2, 187020, Note_on_c, 0, 39, 0
2, 187020, Note_on_c, 0, 57, 55
2, 187020, Note_on_c, 0, 60, 55
2, 187020, Note_on_c, 0, 55, 65
2, 187020, Note_on_c, 0, 33, 58
2, 187020, Note_on_c, 0, 40, 58
2, 187020, Note_on_c, 0, 45, 58
2, 187200, Note_on_c, 0, 55, 0
2, 187200, Note_on_c, 0, 52, 54
2, 187200, Note_on_c, 0, 76, 109
2, 187380, Note_on_c, 0, 52, 0
2, 187380, Note_on_c, 0, 40, 0
2, 187380, Note_on_c, 0, 45, 0
2, 187380, Note_on_c, 0, 33, 0
2, 187380, Note_on_c, 0, 57, 0
2, 187380, Note_on_c, 0, 60, 0
2, 187380, Note_on_c, 0, 50, 60
2, 187380, Note_on_c, 0, 54, 60
2, 187380, Note_on_c, 0, 48, 57
2, 187380, Note_on_c, 0, 38, 57
2, 187380, Note_on_c, 0, 45, 57
2, 187560, Note_on_c, 0, 48, 0
2, 187560, Note_on_c, 0, 76, 0
2, 187560, Note_on_c, 0, 45, 51
2, 187560, Note_on_c, 0, 72, 83
2, 187740, Note_on_c, 0, 45, 0
2, 187740, Note_on_c, 0, 38, 0
2, 187740, Note_on_c, 0, 54, 0
2, 187740, Note_on_c, 0, 50, 0
2, 187740, Note_on_c, 0, 45, 0
2, 187740, Note_on_c, 0, 57, 70
2, 187740, Note_on_c, 0, 60, 70
2, 187740, Note_on_c, 0, 55, 72
2, 187740, Note_on_c, 0, 33, 60
2, 187740, Note_on_c, 0, 40, 60
2, 187740, Note_on_c, 0, 45, 60
2, 187920, Note_on_c, 0, 55, 0
2, 187920, Note_on_c, 0, 72, 0
2, 187920, Note_on_c, 0, 52, 59
2, 187920, Note_on_c, 0, 66, 71
2, 188100, Note_on_c, 0, 52, 0
2, 188100, Note_on_c, 0, 40, 0
2, 188100, Note_on_c, 0, 45, 0
2, 188100, Note_on_c, 0, 33, 0
2, 188100, Note_on_c, 0, 57, 0
2, 188100, Note_on_c, 0, 60, 0
2, 188100, Note_on_c, 0, 50, 61
2, 188100, Note_on_c, 0, 54, 61
2, 188100, Note_on_c, 0, 48, 59
2, 188100, Note_on_c, 0, 38, 61
2, 188100, Note_on_c, 0, 45, 61
2, 188280, Note_on_c, 0, 45, 0
2, 188280, Note_on_c, 0, 48, 0
2, 188280, Note_on_c, 0, 45, 59
2, 188460, Note_on_c, 0, 45, 0
2, 188460, Note_on_c, 0, 38, 0
2, 188460, Note_on_c, 0, 54, 0
2, 188460, Note_on_c, 0, 50, 0
2, 188460, Note_on_c, 0, 67, 80
2, 188460, Note_on_c, 0, 57, 82
2, 188460, Note_on_c, 0, 60, 82
2, 188460, Note_on_c, 0, 33, 63
2, 188460, Note_on_c, 0, 40, 63
2, 188460, Note_on_c, 0, 45, 63
2, 188640, Note_on_c, 0, 67, 0
2, 188640, Note_on_c, 0, 66, 0
2, 188640, Note_on_c, 0, 64, 53
2, 188640, Note_on_c, 0, 76, 107
2, 188820, Note_on_c, 0, 64, 0
2, 188820, Note_on_c, 0, 40, 0
2, 188820, Note_on_c, 0, 45, 0
2, 188820, Note_on_c, 0, 33, 0
2, 188820, Note_on_c, 0, 60, 0
2, 188820, Note_on_c, 0, 57, 0
2, 188820, Note_on_c, 0, 60, 54
2, 188820, Note_on_c, 0, 54, 62
2, 188820, Note_on_c, 0, 38, 66
2, 188820, Note_on_c, 0, 45, 66
2, 188820, Note_on_c, 0, 50, 66
2, 189000, Note_on_c, 0, 60, 0
2, 189000, Note_on_c, 0, 76, 0
2, 189000, Note_on_c, 0, 57, 63
2, 189000, Note_on_c, 0, 72, 81
2, 189180, Note_on_c, 0, 57, 0
2, 189180, Note_on_c, 0, 45, 0
2, 189180, Note_on_c, 0, 54, 0
2, 189180, Note_on_c, 0, 38, 0
2, 189180, Note_on_c, 0, 50, 0
2, 189180, Note_on_c, 0, 67, 76
2, 189180, Note_on_c, 0, 57, 70
2, 189180, Note_on_c, 0, 60, 70
2, 189180, Note_on_c, 0, 33, 63
2, 189180, Note_on_c, 0, 40, 63
2, 189180, Note_on_c, 0, 45, 63
2, 189360, Note_on_c, 0, 67, 0
2, 189360, Note_on_c, 0, 72, 0
2, 189360, Note_on_c, 0, 64, 59
2, 189360, Note_on_c, 0, 69, 83
2, 189540, Note_on_c, 0, 64, 0
2, 189540, Note_on_c, 0, 40, 0
2, 189540, Note_on_c, 0, 45, 0
2, 189540, Note_on_c, 0, 33, 0
2, 189540, Note_on_c, 0, 60, 0
2, 189540, Note_on_c, 0, 57, 0
2, 189540, Note_on_c, 0, 60, 54
2, 189540, Note_on_c, 0, 54, 54
2, 189540, Note_on_c, 0, 38, 65
2, 189540, Note_on_c, 0, 45, 65
2, 189540, Note_on_c, 0, 50, 65
2, 189720, Note_on_c, 0, 60, 0
2, 189720, Note_on_c, 0, 69, 0
2, 189720, Note_on_c, 0, 57, 51
2, 189720, Note_on_c, 0, 66, 76
2, 189900, Note_on_c, 0, 57, 0
2, 189900, Note_on_c, 0, 45, 0
2, 189900, Note_on_c, 0, 54, 0
2, 189900, Note_on_c, 0, 38, 0
2, 189900, Note_on_c, 0, 50, 0
2, 189900, Note_on_c, 0, 57, 67
2, 189900, Note_on_c, 0, 60, 67
2, 189900, Note_on_c, 0, 55, 68
2, 189900, Note_on_c, 0, 33, 58
2, 189900, Note_on_c, 0, 40, 58
2, 189900, Note_on_c, 0, 45, 58
2, 190080, Note_on_c, 0, 55, 0
2, 190080, Note_on_c, 0, 66, 0
2, 190080, Note_on_c, 0, 52, 59
2, 190080, Note_on_c, 0, 76, 108
2, 190260, Note_on_c, 0, 52, 0
2, 190260, Note_on_c, 0, 40, 0
2, 190260, Note_on_c, 0, 45, 0
2, 190260, Note_on_c, 0, 33, 0
2, 190260, Note_on_c, 0, 57, 0
2, 190260, Note_on_c, 0, 60, 0
2, 190260, Note_on_c, 0, 50, 58
2, 190260, Note_on_c, 0, 54, 58
2, 190260, Note_on_c, 0, 48, 59
2, 190260, Note_on_c, 0, 38, 60
2, 190260, Note_on_c, 0, 45, 60
2, 190440, Note_on_c, 0, 48, 0
2, 190440, Note_on_c, 0, 76, 0
2, 190440, Note_on_c, 0, 45, 55
2, 190440, Note_on_c, 0, 72, 75
2, 190620, Note_on_c, 0, 45, 0
2, 190620, Note_on_c, 0, 38, 0
2, 190620, Note_on_c, 0, 54, 0
2, 190620, Note_on_c, 0, 50, 0
2, 190620, Note_on_c, 0, 45, 0
2, 190620, Note_on_c, 0, 76, 76
2, 190620, Note_on_c, 0, 60, 78
2, 190620, Note_on_c, 0, 33, 61
2, 190620, Note_on_c, 0, 40, 61
2, 190620, Note_on_c, 0, 45, 61
2, 190800, Note_on_c, 0, 76, 0
2, 190800, Note_on_c, 0, 72, 0
2, 190800, Note_on_c, 0, 72, 53
2, 190800, Note_on_c, 0, 76, 95
2, 190980, Note_on_c, 0, 72, 0
2, 190980, Note_on_c, 0, 40, 0
2, 190980, Note_on_c, 0, 60, 0
2, 190980, Note_on_c, 0, 33, 0
2, 190980, Note_on_c, 0, 45, 0
2, 190980, Note_on_c, 0, 69, 55
2, 190980, Note_on_c, 0, 60, 63
2, 190980, Note_on_c, 0, 38, 64
2, 190980, Note_on_c, 0, 45, 64
2, 190980, Note_on_c, 0, 54, 64
2, 191160, Note_on_c, 0, 69, 0
2, 191160, Note_on_c, 0, 76, 0
2, 191160, Note_on_c, 0, 66, 55
2, 191160, Note_on_c, 0, 69, 74
2, 191340, Note_on_c, 0, 66, 0
2, 191340, Note_on_c, 0, 45, 0
2, 191340, Note_on_c, 0, 60, 0
2, 191340, Note_on_c, 0, 38, 0
2, 191340, Note_on_c, 0, 54, 0
2, 191340, Note_on_c, 0, 67, 56
2, 191340, Note_on_c, 0, 57, 59
2, 191340, Note_on_c, 0, 60, 59
2, 191340, Note_on_c, 0, 33, 56
2, 191340, Note_on_c, 0, 40, 56
2, 191340, Note_on_c, 0, 45, 56
2, 191520, Note_on_c, 0, 67, 0
2, 191520, Note_on_c, 0, 69, 0
2, 191520, Note_on_c, 0, 64, 55
2, 191520, Note_on_c, 0, 76, 99
2, 191700, Note_on_c, 0, 64, 0
2, 191700, Note_on_c, 0, 40, 0
2, 191700, Note_on_c, 0, 45, 0
2, 191700, Note_on_c, 0, 33, 0
2, 191700, Note_on_c, 0, 60, 0
2, 191700, Note_on_c, 0, 57, 0
2, 191700, Note_on_c, 0, 60, 55
2, 191700, Note_on_c, 0, 54, 56
2, 191700, Note_on_c, 0, 38, 64
2, 191700, Note_on_c, 0, 45, 64
2, 191700, Note_on_c, 0, 50, 64
2, 191880, Note_on_c, 0, 60, 0
2, 191880, Note_on_c, 0, 76, 0
2, 191880, Note_on_c, 0, 57, 55
2, 191880, Note_on_c, 0, 72, 81
2, 192060, Note_on_c, 0, 57, 0
2, 192060, Note_on_c, 0, 45, 0
2, 192060, Note_on_c, 0, 54, 0
2, 192060, Note_on_c, 0, 38, 0
2, 192060, Note_on_c, 0, 50, 0
2, 192060, Note_on_c, 0, 64, 68
2, 192060, Note_on_c, 0, 52, 64
2, 192060, Note_on_c, 0, 56, 64
2, 192060, Note_on_c, 0, 60, 64
2, 192060, Note_on_c, 0, 32, 52
2, 192060, Note_on_c, 0, 40, 52
2, 192060, Note_on_c, 0, 44, 52
2, 192240, Note_on_c, 0, 64, 0
2, 192240, Note_on_c, 0, 72, 0
2, 192240, Note_on_c, 0, 60, 59
2, 192240, Note_on_c, 0, 80, 102
2, 192420, Note_on_c, 0, 60, 0
2, 192420, Note_on_c, 0, 56, 0
2, 192420, Note_on_c, 0, 40, 0
2, 192420, Note_on_c, 0, 52, 0
2, 192420, Note_on_c, 0, 60, 0
2, 192420, Note_on_c, 0, 44, 0
2, 192420, Note_on_c, 0, 32, 0
2, 192420, Note_on_c, 0, 57, 57
2, 192420, Note_on_c, 0, 50, 59
2, 192420, Note_on_c, 0, 54, 59
2, 192420, Note_on_c, 0, 38, 61
2, 192420, Note_on_c, 0, 45, 61
2, 192600, Note_on_c, 0, 45, 0
2, 192600, Note_on_c, 0, 57, 0
2, 192600, Note_on_c, 0, 50, 0
2, 192600, Note_on_c, 0, 54, 0
2, 192600, Note_on_c, 0, 38, 0
2, 192600, Note_on_c, 0, 56, 51
2, 192600, Note_on_c, 0, 52, 52
2, 192600, Note_on_c, 0, 37, 47
2, 192621, Note_on_c, 0, 44, 47
2, 192642, Note_on_c, 0, 49, 47
2, 192780, Note_on_c, 0, 52, 0
2, 192780, Note_on_c, 0, 80, 0
2, 192780, Note_on_c, 0, 56, 0
2, 192780, Note_on_c, 0, 61, 90
2, 192780, Note_on_c, 0, 73, 90
2, 192960, Note_on_c, 0, 37, 0
2, 192960, Note_on_c, 0, 49, 0
2, 192960, Note_on_c, 0, 44, 0
2, 192960, Note_on_c, 0, 45, 73
2, 192981, Note_on_c, 0, 52, 73
2, 193002, Note_on_c, 0, 57, 73
2, 193023, Note_on_c, 0, 64, 73
2, 193140, Note_on_c, 0, 61, 0
2, 193140, Note_on_c, 0, 73, 0
2, 193140, Note_on_c, 0, 80, 102
2, 193140, Note_on_c, 0, 68, 64
2, 193320, Note_on_c, 0, 68, 0
2, 193320, Note_on_c, 0, 64, 0
2, 193320, Note_on_c, 0, 45, 0
2, 193320, Note_on_c, 0, 52, 0
2, 193320, Note_on_c, 0, 57, 0
2, 193320, Note_on_c, 0, 64, 48
2, 193320, Note_on_c, 0, 37, 47
2, 193341, Note_on_c, 0, 44, 47
2, 193362, Note_on_c, 0, 49, 47
2, 193383, Note_on_c, 0, 56, 47
2, 193457, Note_on_c, 0, 80, 0
2, 193500, Note_on_c, 0, 64, 0
2, 193500, Note_on_c, 0, 73, 73
2, 193500, Note_on_c, 0, 61, 43
2, 193680, Note_on_c, 0, 61, 0
2, 193680, Note_on_c, 0, 56, 0
2, 193680, Note_on_c, 0, 37, 0
2, 193680, Note_on_c, 0, 44, 0
2, 193680, Note_on_c, 0, 49, 0
2, 193680, Note_on_c, 0, 57, 47
2, 193680, Note_on_c, 0, 45, 71
2, 193701, Note_on_c, 0, 52, 71
2, 193722, Note_on_c, 0, 64, 71
2, 193817, Note_on_c, 0, 73, 0
2, 193860, Note_on_c, 0, 57, 0
2, 193860, Note_on_c, 0, 80, 95
2, 193860, Note_on_c, 0, 68, 65
2, 194040, Note_on_c, 0, 68, 0
2, 194040, Note_on_c, 0, 64, 0
2, 194040, Note_on_c, 0, 52, 0
2, 194040, Note_on_c, 0, 45, 0
2, 194040, Note_on_c, 0, 64, 45
2, 194040, Note_on_c, 0, 37, 47
2, 194061, Note_on_c, 0, 44, 47
2, 194082, Note_on_c, 0, 49, 47
2, 194103, Note_on_c, 0, 56, 47
2, 194198, Note_on_c, 0, 80, 0
2, 194220, Note_on_c, 0, 64, 0
2, 194220, Note_on_c, 0, 73, 70
2, 194220, Note_on_c, 0, 61, 42
2, 194400, Note_on_c, 0, 61, 0
2, 194400, Note_on_c, 0, 56, 0
2, 194400, Note_on_c, 0, 37, 0
2, 194400, Note_on_c, 0, 44, 0
2, 194400, Note_on_c, 0, 49, 0
2, 194400, Note_on_c, 0, 57, 44
2, 194400, Note_on_c, 0, 45, 62
2, 194421, Note_on_c, 0, 52, 62
2, 194442, Note_on_c, 0, 64, 62
2, 194537, Note_on_c, 0, 73, 0
2, 194580, Note_on_c, 0, 57, 0
2, 194580, Note_on_c, 0, 80, 93
2, 194580, Note_on_c, 0, 68, 60
2, 194760, Note_on_c, 0, 68, 0
2, 194760, Note_on_c, 0, 64, 0
2, 194760, Note_on_c, 0, 52, 0
2, 194760, Note_on_c, 0, 45, 0
2, 194760, Note_on_c, 0, 64, 46
2, 194760, Note_on_c, 0, 37, 48
2, 194781, Note_on_c, 0, 44, 48
2, 194802, Note_on_c, 0, 49, 48
2, 194823, Note_on_c, 0, 56, 48
2, 194897, Note_on_c, 0, 80, 0
2, 194940, Note_on_c, 0, 64, 0
2, 194940, Note_on_c, 0, 73, 73
2, 194940, Note_on_c, 0, 61, 41
2, 195120, Note_on_c, 0, 61, 0
2, 195120, Note_on_c, 0, 56, 0
2, 195120, Note_on_c, 0, 37, 0
2, 195120, Note_on_c, 0, 44, 0
2, 195120, Note_on_c, 0, 49, 0
2, 195120, Note_on_c, 0, 57, 53
2, 195120, Note_on_c, 0, 45, 61
2, 195141, Note_on_c, 0, 52, 61
2, 195162, Note_on_c, 0, 64, 61
2, 195257, Note_on_c, 0, 73, 0
2, 195300, Note_on_c, 0, 57, 0
2, 195300, Note_on_c, 0, 68, 87
2, 195300, Note_on_c, 0, 80, 87
2, 195300, Note_on_c, 0, 71, 63
2, 195458, Note_on_c, 0, 68, 0
2, 195480, Note_on_c, 0, 45, 0
2, 195480, Note_on_c, 0, 52, 0
2, 195480, Note_on_c, 0, 64, 0
2, 195480, Note_on_c, 0, 71, 0
2, 195480, Note_on_c, 0, 68, 46
2, 195480, Note_on_c, 0, 37, 43
2, 195501, Note_on_c, 0, 44, 43
2, 195522, Note_on_c, 0, 49, 43
2, 195543, Note_on_c, 0, 56, 43
2, 195638, Note_on_c, 0, 80, 0
2, 195660, Note_on_c, 0, 68, 0
2, 195660, Note_on_c, 0, 61, 71
2, 195660, Note_on_c, 0, 73, 71
2, 195660, Note_on_c, 0, 64, 47
2, 195840, Note_on_c, 0, 64, 0
2, 195840, Note_on_c, 0, 56, 0
2, 195840, Note_on_c, 0, 37, 0
2, 195840, Note_on_c, 0, 44, 0
2, 195840, Note_on_c, 0, 49, 0
2, 195840, Note_on_c, 0, 61, 42
2, 195840, Note_on_c, 0, 40, 47
2, 195861, Note_on_c, 0, 47, 47
2, 195882, Note_on_c, 0, 56, 47
2, 195977, Note_on_c, 0, 73, 0
2, 195977, Note_on_c, 0, 61, 0
2, 196020, Note_on_c, 0, 61, 0
2, 196020, Note_on_c, 0, 68, 93
2, 196020, Note_on_c, 0, 80, 93
2, 196020, Note_on_c, 0, 71, 66
2, 196200, Note_on_c, 0, 71, 0
2, 196200, Note_on_c, 0, 47, 0
2, 196200, Note_on_c, 0, 56, 0
2, 196200, Note_on_c, 0, 40, 0
2, 196200, Note_on_c, 0, 68, 46
2, 196200, Note_on_c, 0, 37, 49
2, 196221, Note_on_c, 0, 44, 49
2, 196242, Note_on_c, 0, 49, 49
2, 196263, Note_on_c, 0, 56, 49
2, 196337, Note_on_c, 0, 68, 0
2, 196337, Note_on_c, 0, 80, 0
2, 196380, Note_on_c, 0, 68, 0
2, 196380, Note_on_c, 0, 61, 74
2, 196380, Note_on_c, 0, 73, 74
2, 196380, Note_on_c, 0, 64, 44
2, 196560, Note_on_c, 0, 64, 0
2, 196560, Note_on_c, 0, 49, 0
2, 196560, Note_on_c, 0, 56, 0
2, 196560, Note_on_c, 0, 37, 0
2, 196560, Note_on_c, 0, 44, 0
2, 196560, Note_on_c, 0, 61, 48
2, 196560, Note_on_c, 0, 40, 50
2, 196581, Note_on_c, 0, 47, 50
2, 196602, Note_on_c, 0, 56, 50
2, 196697, Note_on_c, 0, 73, 0
2, 196697, Note_on_c, 0, 61, 0
2, 196740, Note_on_c, 0, 61, 0
2, 196740, Note_on_c, 0, 68, 93
2, 196740, Note_on_c, 0, 80, 93
2, 196740, Note_on_c, 0, 71, 57
2, 196898, Note_on_c, 0, 68, 0
2, 196920, Note_on_c, 0, 47, 0
2, 196920, Note_on_c, 0, 40, 0
2, 196920, Note_on_c, 0, 56, 0
2, 196920, Note_on_c, 0, 71, 0
2, 196920, Note_on_c, 0, 68, 43
2, 196920, Note_on_c, 0, 37, 48
2, 196941, Note_on_c, 0, 44, 48
2, 196962, Note_on_c, 0, 49, 48
2, 196983, Note_on_c, 0, 56, 48
2, 197078, Note_on_c, 0, 80, 0
2, 197100, Note_on_c, 0, 68, 0
2, 197100, Note_on_c, 0, 61, 73
2, 197100, Note_on_c, 0, 73, 73
2, 197100, Note_on_c, 0, 64, 46
2, 197280, Note_on_c, 0, 64, 0
2, 197280, Note_on_c, 0, 56, 0
2, 197280, Note_on_c, 0, 37, 0
2, 197280, Note_on_c, 0, 44, 0
2, 197280, Note_on_c, 0, 49, 0
2, 197280, Note_on_c, 0, 61, 45
2, 197280, Note_on_c, 0, 40, 51
2, 197301, Note_on_c, 0, 47, 51
2, 197322, Note_on_c, 0, 56, 51
2, 197417, Note_on_c, 0, 73, 0
2, 197417, Note_on_c, 0, 61, 0
2, 197460, Note_on_c, 0, 61, 0
2, 197460, Note_on_c, 0, 68, 92
2, 197460, Note_on_c, 0, 80, 92
2, 197460, Note_on_c, 0, 71, 63
2, 197640, Note_on_c, 0, 71, 0
2, 197640, Note_on_c, 0, 47, 0
2, 197640, Note_on_c, 0, 56, 0
2, 197640, Note_on_c, 0, 40, 0
2, 197640, Note_on_c, 0, 68, 46
2, 197640, Note_on_c, 0, 37, 53
2, 197661, Note_on_c, 0, 44, 53
2, 197682, Note_on_c, 0, 49, 53
2, 197703, Note_on_c, 0, 56, 53
2, 197777, Note_on_c, 0, 68, 0
2, 197777, Note_on_c, 0, 80, 0
2, 197820, Note_on_c, 0, 68, 0
2, 197820, Note_on_c, 0, 61, 78
2, 197820, Note_on_c, 0, 73, 78
2, 197820, Note_on_c, 0, 64, 39
2, 198000, Note_on_c, 0, 64, 0
2, 198000, Note_on_c, 0, 49, 0
2, 198000, Note_on_c, 0, 56, 0
2, 198000, Note_on_c, 0, 37, 0
2, 198000, Note_on_c, 0, 44, 0
2, 198000, Note_on_c, 0, 61, 49
2, 198000, Note_on_c, 0, 45, 59
2, 198021, Note_on_c, 0, 52, 59
2, 198042, Note_on_c, 0, 57, 59
2, 198063, Note_on_c, 0, 64, 59
2, 198137, Note_on_c, 0, 73, 0
2, 198137, Note_on_c, 0, 61, 0
2, 198180, Note_on_c, 0, 61, 0
2, 198180, Note_on_c, 0, 68, 94
2, 198180, Note_on_c, 0, 80, 94
2, 198180, Note_on_c, 0, 76, 67
2, 198360, Note_on_c, 0, 76, 0
2, 198360, Note_on_c, 0, 57, 0
2, 198360, Note_on_c, 0, 64, 0
2, 198360, Note_on_c, 0, 45, 0
2, 198360, Note_on_c, 0, 52, 0
2, 198360, Note_on_c, 0, 73, 52
2, 198360, Note_on_c, 0, 37, 46
2, 198381, Note_on_c, 0, 44, 46
2, 198402, Note_on_c, 0, 49, 46
2, 198423, Note_on_c, 0, 56, 46
2, 198518, Note_on_c, 0, 80, 0
2, 198518, Note_on_c, 0, 68, 0
2, 198540, Note_on_c, 0, 73, 0
2, 198540, Note_on_c, 0, 61, 73
2, 198540, Note_on_c, 0, 73, 73
2, 198540, Note_on_c, 0, 68, 46
2, 198720, Note_on_c, 0, 68, 0
2, 198720, Note_on_c, 0, 49, 0
2, 198720, Note_on_c, 0, 56, 0
2, 198720, Note_on_c, 0, 37, 0
2, 198720, Note_on_c, 0, 44, 0
2, 198720, Note_on_c, 0, 64, 44
2, 198720, Note_on_c, 0, 45, 52
2, 198741, Note_on_c, 0, 52, 52
2, 198762, Note_on_c, 0, 57, 52
2, 198857, Note_on_c, 0, 73, 0
2, 198857, Note_on_c, 0, 61, 0
2, 198900, Note_on_c, 0, 64, 0
2, 198900, Note_on_c, 0, 68, 92
2, 198900, Note_on_c, 0, 80, 92
2, 198900, Note_on_c, 0, 76, 62
2, 199080, Note_on_c, 0, 76, 0
2, 199080, Note_on_c, 0, 52, 0
2, 199080, Note_on_c, 0, 57, 0
2, 199080, Note_on_c, 0, 45, 0
2, 199080, Note_on_c, 0, 73, 50
2, 199080, Note_on_c, 0, 37, 48
2, 199101, Note_on_c, 0, 44, 48
2, 199122, Note_on_c, 0, 49, 48
2, 199143, Note_on_c, 0, 56, 48
2, 199217, Note_on_c, 0, 68, 0
2, 199217, Note_on_c, 0, 80, 0
2, 199260, Note_on_c, 0, 73, 0
2, 199260, Note_on_c, 0, 61, 71
2, 199260, Note_on_c, 0, 73, 71
2, 199260, Note_on_c, 0, 68, 43
2, 199418, Note_on_c, 0, 73, 0
2, 199418, Note_on_c, 0, 61, 0
2, 199440, Note_on_c, 0, 49, 0
2, 199440, Note_on_c, 0, 56, 0
2, 199440, Note_on_c, 0, 37, 0
2, 199440, Note_on_c, 0, 68, 0
2, 199440, Note_on_c, 0, 44, 0
2, 199440, Note_on_c, 0, 62, 53
2, 199440, Note_on_c, 0, 59, 44
2, 199440, Note_on_c, 0, 41, 50
2, 199461, Note_on_c, 0, 50, 50
2, 199482, Note_on_c, 0, 56, 50
2, 199679, Note_on_c, 0, 59, 0
2, 199679, Note_on_c, 0, 58, 45
2, 199800, Note_on_c, 0, 58, 0
2, 199800, Note_on_c, 0, 56, 0
2, 199800, Note_on_c, 0, 62, 0
2, 199800, Note_on_c, 0, 41, 0
2, 199800, Note_on_c, 0, 50, 0
2, 199800, Note_on_c, 0, 61, 54
2, 199800, Note_on_c, 0, 57, 60
2, 199800, Note_on_c, 0, 42, 46
2, 199821, Note_on_c, 0, 49, 46
2, 199980, Note_on_c, 0, 57, 0
2, 199980, Note_on_c, 0, 61, 0
2, 199980, Note_on_c, 0, 80, 66
2, 200160, Note_on_c, 0, 42, 0
2, 200160, Note_on_c, 0, 49, 0
2, 200160, Note_on_c, 0, 76, 46
2, 200160, Note_on_c, 0, 64, 73
2, 200160, Note_on_c, 0, 37, 54
2, 200181, Note_on_c, 0, 45, 54
2, 200202, Note_on_c, 0, 52, 54
2, 200223, Note_on_c, 0, 56, 54
2, 200340, Note_on_c, 0, 76, 0
2, 200340, Note_on_c, 0, 80, 0
2, 200340, Note_on_c, 0, 73, 61
2, 200520, Note_on_c, 0, 73, 0
2, 200520, Note_on_c, 0, 56, 0
2, 200520, Note_on_c, 0, 45, 0
2, 200520, Note_on_c, 0, 37, 0
2, 200520, Note_on_c, 0, 64, 0
2, 200520, Note_on_c, 0, 52, 0
2, 200520, Note_on_c, 0, 69, 45
2, 200520, Note_on_c, 0, 61, 58
2, 200520, Note_on_c, 0, 42, 51
2, 200541, Note_on_c, 0, 49, 51
2, 200562, Note_on_c, 0, 57, 51
2, 200700, Note_on_c, 0, 69, 0
2, 200700, Note_on_c, 0, 66, 61
2, 200880, Note_on_c, 0, 66, 0
2, 200880, Note_on_c, 0, 57, 0
2, 200880, Note_on_c, 0, 61, 0
2, 200880, Note_on_c, 0, 42, 0
2, 200880, Note_on_c, 0, 49, 0
2, 200880, Note_on_c, 0, 57, 59
2, 200880, Note_on_c, 0, 60, 48
2, 200880, Note_on_c, 0, 39, 48
2, 200901, Note_on_c, 0, 48, 48
2, 200922, Note_on_c, 0, 54, 48
2, 201119, Note_on_c, 0, 60, 0
2, 201119, Note_on_c, 0, 56, 45
2, 201240, Note_on_c, 0, 56, 0
2, 201240, Note_on_c, 0, 54, 0
2, 201240, Note_on_c, 0, 57, 0
2, 201240, Note_on_c, 0, 39, 0
2, 201240, Note_on_c, 0, 48, 0
2, 201240, Note_on_c, 0, 59, 53
2, 201240, Note_on_c, 0, 55, 52
2, 201240, Note_on_c, 0, 40, 47
2, 201261, Note_on_c, 0, 47, 47
2, 201420, Note_on_c, 0, 55, 0
2, 201420, Note_on_c, 0, 59, 0
2, 201420, Note_on_c, 0, 78, 75
2, 201600, Note_on_c, 0, 40, 0
2, 201600, Note_on_c, 0, 47, 0
2, 201600, Note_on_c, 0, 74, 42
2, 201600, Note_on_c, 0, 62, 58
2, 201600, Note_on_c, 0, 35, 56
2, 201621, Note_on_c, 0, 43, 56
2, 201642, Note_on_c, 0, 50, 56
2, 201663, Note_on_c, 0, 54, 56
2, 201737, Note_on_c, 0, 78, 0
2, 201780, Note_on_c, 0, 74, 0
2, 201780, Note_on_c, 0, 71, 59
2, 201960, Note_on_c, 0, 71, 0
2, 201960, Note_on_c, 0, 54, 0
2, 201960, Note_on_c, 0, 43, 0
2, 201960, Note_on_c, 0, 35, 0
2, 201960, Note_on_c, 0, 62, 0
2, 201960, Note_on_c, 0, 50, 0
2, 201960, Note_on_c, 0, 67, 43
2, 201960, Note_on_c, 0, 59, 54
2, 201960, Note_on_c, 0, 40, 51
2, 201981, Note_on_c, 0, 47, 51
2, 202002, Note_on_c, 0, 55, 51
2, 202140, Note_on_c, 0, 67, 0
2, 202140, Note_on_c, 0, 64, 71
2, 202320, Note_on_c, 0, 47, 0
2, 202320, Note_on_c, 0, 55, 0
2, 202320, Note_on_c, 0, 59, 0
2, 202320, Note_on_c, 0, 40, 0
2, 202320, Note_on_c, 0, 54, 48
2, 202320, Note_on_c, 0, 60, 48
2, 202320, Note_on_c, 0, 32, 41
2, 202341, Note_on_c, 0, 44, 41
2, 202457, Note_on_c, 0, 64, 0
2, 202559, Note_on_c, 0, 54, 0
2, 202559, Note_on_c, 0, 60, 0
2, 202559, Note_on_c, 0, 56, 45
2, 202680, Note_on_c, 0, 56, 0
2, 202680, Note_on_c, 0, 32, 0
2, 202680, Note_on_c, 0, 44, 0
2, 202680, Note_on_c, 0, 33, 0
2, 202680, Note_on_c, 0, 33, 0
2, 202680, Note_on_c, 0, 61, 66
2, 202680, Note_on_c, 0, 56, 54
2, 202680, Note_on_c, 0, 33, 62
2, 202680, Note_on_c, 0, 45, 51
2, 202860, Note_on_c, 0, 56, 0
2, 202860, Note_on_c, 0, 76, 64
2, 202860, Note_on_c, 0, 52, 46
2, 203040, Note_on_c, 0, 52, 0
2, 203040, Note_on_c, 0, 33, 0
2, 203040, Note_on_c, 0, 73, 54
2, 203040, Note_on_c, 0, 54, 48
2, 203040, Note_on_c, 0, 38, 60
2, 203220, Note_on_c, 0, 73, 0
2, 203220, Note_on_c, 0, 61, 0
2, 203220, Note_on_c, 0, 76, 0
2, 203220, Note_on_c, 0, 69, 55
2, 203220, Note_on_c, 0, 62, 65
2, 203400, Note_on_c, 0, 62, 0
2, 203400, Note_on_c, 0, 45, 0
2, 203400, Note_on_c, 0, 54, 0
2, 203400, Note_on_c, 0, 38, 0
2, 203400, Note_on_c, 0, 69, 0
2, 203400, Note_on_c, 0, 66, 58
2, 203400, Note_on_c, 0, 59, 62
2, 203400, Note_on_c, 0, 50, 45
2, 203400, Note_on_c, 0, 31, 60
2, 203400, Note_on_c, 0, 43, 55
2, 203580, Note_on_c, 0, 66, 0
2, 203580, Note_on_c, 0, 74, 63
2, 203760, Note_on_c, 0, 31, 0
2, 203760, Note_on_c, 0, 50, 0
2, 203760, Note_on_c, 0, 71, 57
2, 203760, Note_on_c, 0, 52, 52
2, 203760, Note_on_c, 0, 37, 68
2, 203940, Note_on_c, 0, 71, 0
2, 203940, Note_on_c, 0, 74, 0
2, 203940, Note_on_c, 0, 59, 0
2, 203940, Note_on_c, 0, 67, 57
2, 203940, Note_on_c, 0, 61, 67
2, 204120, Note_on_c, 0, 61, 0
2, 204120, Note_on_c, 0, 43, 0
2, 204120, Note_on_c, 0, 37, 0
2, 204120, Note_on_c, 0, 52, 0
2, 204120, Note_on_c, 0, 67, 0
2, 204120, Note_on_c, 0, 64, 55
2, 204120, Note_on_c, 0, 58, 59
2, 204120, Note_on_c, 0, 42, 43
2, 204120, Note_on_c, 0, 49, 43
2, 204120, Note_on_c, 0, 30, 55
2, 204300, Note_on_c, 0, 64, 0
2, 204300, Note_on_c, 0, 73, 65
2, 204300, Note_on_c, 0, 61, 55
2, 204480, Note_on_c, 0, 61, 0
2, 204480, Note_on_c, 0, 42, 0
2, 204480, Note_on_c, 0, 30, 0
2, 204480, Note_on_c, 0, 58, 0
2, 204480, Note_on_c, 0, 49, 0
2, 204480, Note_on_c, 0, 57, 56
2, 204480, Note_on_c, 0, 35, 66
2, 204480, Note_on_c, 0, 51, 66
2, 204660, Note_on_c, 0, 57, 0
2, 204660, Note_on_c, 0, 73, 0
2, 204660, Note_on_c, 0, 66, 56
2, 204660, Note_on_c, 0, 54, 61
2, 204840, Note_on_c, 0, 54, 0
2, 204840, Note_on_c, 0, 51, 0
2, 204840, Note_on_c, 0, 35, 0
2, 204840, Note_on_c, 0, 50, 59
2, 204840, Note_on_c, 0, 56, 67
2, 204840, Note_on_c, 0, 63, 67
2, 204840, Note_on_c, 0, 40, 61
2, 204840, Note_on_c, 0, 47, 61
2, 205020, Note_on_c, 0, 63, 0
2, 205020, Note_on_c, 0, 56, 0
2, 205020, Note_on_c, 0, 66, 0
2, 205020, Note_on_c, 0, 50, 0
2, 205020, Note_on_c, 0, 67, 75
2, 205020, Note_on_c, 0, 47, 56
2, 205020, Note_on_c, 0, 55, 59
2, 205020, Note_on_c, 0, 61, 59
2, 205200, Note_on_c, 0, 61, 0
2, 205200, Note_on_c, 0, 47, 0
2, 205200, Note_on_c, 0, 47, 0
2, 205200, Note_on_c, 0, 40, 0
2, 205200, Note_on_c, 0, 55, 0
2, 205200, Note_on_c, 0, 44, 58
2, 205200, Note_on_c, 0, 54, 56
2, 205200, Note_on_c, 0, 60, 56
2, 205200, Note_on_c, 0, 39, 64
2, 205200, Note_on_c, 0, 48, 64
2, 205380, Note_on_c, 0, 44, 0
2, 205380, Note_on_c, 0, 67, 0
2, 205380, Note_on_c, 0, 68, 75
2, 205380, Note_on_c, 0, 41, 58
2, 205560, Note_on_c, 0, 41, 0
2, 205560, Note_on_c, 0, 48, 0
2, 205560, Note_on_c, 0, 54, 0
2, 205560, Note_on_c, 0, 60, 0
2, 205560, Note_on_c, 0, 68, 0
2, 205560, Note_on_c, 0, 39, 0
2, 205560, Note_on_c, 0, 53, 77
2, 205560, Note_on_c, 0, 61, 77
2, 205560, Note_on_c, 0, 68, 77
2, 205560, Control_c, 0, 64, 127
2, 205560, Note_on_c, 0, 37, 46
2, 205560, Note_on_c, 0, 44, 46
2, 205650, Note_on_c, 0, 37, 56
2, 205740, Note_on_c, 0, 37, 0
2, 205740, Note_on_c, 0, 80, 64
2, 205740, Note_on_c, 0, 44, 63
2, 205830, Note_on_c, 0, 44, 0
2, 205830, Note_on_c, 0, 49, 72
2, 205920, Note_on_c, 0, 49, 0
2, 205920, Note_on_c, 0, 53, 65
2, 206010, Note_on_c, 0, 53, 0
2, 206010, Note_on_c, 0, 56, 64
2, 206100, Note_on_c, 0, 56, 0
2, 206100, Note_on_c, 0, 80, 0
2, 206100, Note_on_c, 0, 73, 54
2, 206100, Note_on_c, 0, 61, 68
2, 206190, Note_on_c, 0, 61, 0
2, 206190, Note_on_c, 0, 65, 69
2, 206280, Note_on_c, 0, 65, 0
2, 206280, Note_on_c, 0, 73, 0
2, 206280, Control_c, 0, 64, 0
2, 206280, Control_c, 0, 64, 127
2, 206280, Note_on_c, 0, 68, 66
2, 206370, Note_on_c, 0, 68, 0
2, 206370, Note_on_c, 0, 53, 55
2, 206460, Note_on_c, 0, 53, 0
2, 206460, Note_on_c, 0, 80, 63
2, 206460, Note_on_c, 0, 56, 62
2, 206550, Note_on_c, 0, 56, 0
2, 206550, Note_on_c, 0, 61, 65
2, 206640, Note_on_c, 0, 61, 0
2, 206640, Note_on_c, 0, 65, 62
2, 206640, Note_on_c, 0, 56, 84
2, 206730, Note_on_c, 0, 65, 0
2, 206730, Note_on_c, 0, 68, 70
2, 206820, Note_on_c, 0, 68, 0
2, 206820, Note_on_c, 0, 80, 0
2, 206820, Note_on_c, 0, 73, 54
2, 206820, Note_on_c, 0, 73, 70
2, 206850, Note_on_c, 0, 56, 0
2, 206879, Note_on_c, 0, 63, 101
2, 206910, Note_on_c, 0, 73, 0
2, 206910, Note_on_c, 0, 80, 77
2, 206985, Note_on_c, 0, 63, 0
2, 207000, Note_on_c, 0, 73, 0
2, 207000, Note_on_c, 0, 61, 0
2, 207000, Note_on_c, 0, 53, 0
2, 207000, Note_on_c, 0, 37, 0
2, 207000, Note_on_c, 0, 44, 0
2, 207000, Note_on_c, 0, 68, 0
2, 207000, Note_on_c, 0, 80, 0
2, 207000, Note_on_c, 0, 53, 69
2, 207000, Note_on_c, 0, 58, 69
2, 207000, Note_on_c, 0, 61, 72
2, 207000, Control_c, 0, 64, 0
2, 207000, Control_c, 0, 64, 127
2, 207000, Note_on_c, 0, 34, 51
2, 207000, Note_on_c, 0, 46, 51
2, 207090, Note_on_c, 0, 46, 65
2, 207180, Note_on_c, 0, 46, 0
2, 207180, Note_on_c, 0, 80, 65
2, 207180, Note_on_c, 0, 53, 79
2, 207270, Note_on_c, 0, 53, 0
2, 207270, Note_on_c, 0, 58, 79
2, 207360, Note_on_c, 0, 58, 0
2, 207360, Note_on_c, 0, 61, 77
2, 207450, Note_on_c, 0, 61, 0
2, 207450, Note_on_c, 0, 58, 66
2, 207540, Note_on_c, 0, 58, 0
2, 207540, Note_on_c, 0, 80, 0
2, 207540, Note_on_c, 0, 73, 59
2, 207540, Note_on_c, 0, 61, 76
2, 207630, Note_on_c, 0, 61, 0
2, 207630, Note_on_c, 0, 65, 79
2, 207633, Note_on_c, 0, 61, 0
2, 207720, Note_on_c, 0, 73, 0
2, 207720, Note_on_c, 0, 65, 0
2, 207720, Note_on_c, 0, 61, 65
2, 207720, Control_c, 0, 64, 0
2, 207720, Control_c, 0, 64, 127
2, 207720, Note_on_c, 0, 70, 80
2, 207810, Note_on_c, 0, 70, 0
2, 207810, Note_on_c, 0, 53, 62
2, 207900, Note_on_c, 0, 53, 0
2, 207900, Note_on_c, 0, 61, 0
2, 207900, Note_on_c, 0, 80, 63
2, 207900, Note_on_c, 0, 63, 89
2, 207900, Note_on_c, 0, 58, 74
2, 207990, Note_on_c, 0, 58, 0
2, 207990, Note_on_c, 0, 61, 73
2, 208080, Note_on_c, 0, 61, 0
2, 208080, Note_on_c, 0, 65, 80
2, 208170, Note_on_c, 0, 65, 0
2, 208170, Note_on_c, 0, 70, 84
2, 208217, Note_on_c, 0, 63, 0
2, 208260, Note_on_c, 0, 80, 0
2, 208260, Note_on_c, 0, 70, 0
2, 208260, Note_on_c, 0, 73, 58
2, 208260, Note_on_c, 0, 73, 89
2, 208260, Note_on_c, 0, 66, 73
2, 208350, Note_on_c, 0, 73, 0
2, 208350, Note_on_c, 0, 61, 58
2, 208418, Note_on_c, 0, 66, 0
2, 208440, Note_on_c, 0, 73, 0
2, 208440, Note_on_c, 0, 53, 0
2, 208440, Note_on_c, 0, 58, 0
2, 208440, Note_on_c, 0, 34, 0
2, 208440, Note_on_c, 0, 61, 0
2, 208440, Note_on_c, 0, 46, 0
2, 208440, Note_on_c, 0, 57, 74
2, 208440, Note_on_c, 0, 61, 74
2, 208440, Note_on_c, 0, 64, 83
2, 208440, Control_c, 0, 64, 0
2, 208440, Control_c, 0, 64, 127
2, 208440, Note_on_c, 0, 42, 54
2, 208440, Note_on_c, 0, 54, 54
2, 208530, Note_on_c, 0, 42, 67
2, 208620, Note_on_c, 0, 42, 0
2, 208620, Note_on_c, 0, 80, 66
2, 208620, Note_on_c, 0, 49, 79
2, 208710, Note_on_c, 0, 49, 0
2, 208710, Note_on_c, 0, 52, 74
2, 208800, Note_on_c, 0, 52, 0
2, 208800, Note_on_c, 0, 57, 77
2, 208890, Note_on_c, 0, 57, 0
2, 208890, Note_on_c, 0, 61, 80
2, 208980, Note_on_c, 0, 61, 0
2, 208980, Note_on_c, 0, 80, 0
2, 208980, Note_on_c, 0, 73, 55
2, 208980, Note_on_c, 0, 64, 77
2, 209070, Note_on_c, 0, 64, 0
2, 209070, Note_on_c, 0, 61, 64
2, 209160, Note_on_c, 0, 73, 0
2, 209160, Note_on_c, 0, 61, 0
2, 209160, Control_c, 0, 64, 0
2, 209160, Control_c, 0, 64, 127
2, 209160, Note_on_c, 0, 69, 81
2, 209250, Note_on_c, 0, 69, 0
2, 209250, Note_on_c, 0, 54, 64
2, 209340, Note_on_c, 0, 64, 0
2, 209340, Note_on_c, 0, 54, 0
2, 209340, Note_on_c, 0, 73, 59
2, 209340, Note_on_c, 0, 85, 59
2, 209340, Note_on_c, 0, 66, 78
2, 209340, Note_on_c, 0, 57, 73
2, 209430, Note_on_c, 0, 57, 0
2, 209430, Note_on_c, 0, 61, 79
2, 209520, Note_on_c, 0, 61, 0
2, 209520, Note_on_c, 0, 66, 0
2, 209520, Note_on_c, 0, 68, 75
2, 209520, Note_on_c, 0, 64, 77
2, 209610, Note_on_c, 0, 64, 0
2, 209610, Note_on_c, 0, 61, 63
2, 209700, Note_on_c, 0, 68, 0
2, 209700, Note_on_c, 0, 73, 0
2, 209700, Note_on_c, 0, 85, 0
2, 209700, Note_on_c, 0, 61, 0
2, 209700, Note_on_c, 0, 68, 57
2, 209700, Note_on_c, 0, 80, 57
2, 209700, Note_on_c, 0, 71, 82
2, 209700, Note_on_c, 0, 64, 79
2, 209790, Note_on_c, 0, 64, 0
2, 209790, Control_c, 0, 64, 0
2, 209790, Note_on_c, 0, 73, 89
2, 209880, Note_on_c, 0, 73, 0
2, 209880, Note_on_c, 0, 42, 0
2, 209880, Note_on_c, 0, 68, 0
2, 209880, Note_on_c, 0, 54, 0
2, 209880, Note_on_c, 0, 57, 0
2, 209880, Note_on_c, 0, 71, 0
2, 209880, Note_on_c, 0, 80, 0
2, 209880, Note_on_c, 0, 61, 0
2, 209880, Note_on_c, 0, 57, 84
2, 209880, Note_on_c, 0, 60, 84
2, 209880, Note_on_c, 0, 66, 84
2, 209880, Note_on_c, 0, 68, 78
2, 209880, Control_c, 0, 64, 127
2, 209880, Note_on_c, 0, 38, 52
2, 209880, Note_on_c, 0, 54, 52
2, 209970, Note_on_c, 0, 50, 61
2, 210060, Note_on_c, 0, 50, 0
2, 210060, Note_on_c, 0, 80, 79
2, 210060, Note_on_c, 0, 57, 76
2, 210150, Note_on_c, 0, 57, 0
2, 210150, Note_on_c, 0, 60, 78
2, 210197, Note_on_c, 0, 68, 0
2, 210240, Note_on_c, 0, 60, 0
2, 210240, Note_on_c, 0, 69, 74
2, 210240, Note_on_c, 0, 62, 78
2, 210330, Note_on_c, 0, 62, 0
2, 210330, Note_on_c, 0, 57, 63
2, 210377, Note_on_c, 0, 80, 0
2, 210420, Note_on_c, 0, 57, 0
2, 210420, Note_on_c, 0, 74, 59
2, 210420, Note_on_c, 0, 60, 80
2, 210510, Note_on_c, 0, 60, 0
2, 210510, Note_on_c, 0, 62, 77
2, 210600, Note_on_c, 0, 62, 0
2, 210600, Note_on_c, 0, 74, 0
2, 210600, Control_c, 0, 64, 0
2, 210600, Control_c, 0, 64, 127
2, 210600, Note_on_c, 0, 66, 74
2, 210690, Note_on_c, 0, 66, 0
2, 210690, Note_on_c, 0, 62, 68
2, 210780, Note_on_c, 0, 62, 0
2, 210780, Note_on_c, 0, 69, 0
2, 210780, Note_on_c, 0, 74, 78
2, 210780, Note_on_c, 0, 86, 78
2, 210780, Note_on_c, 0, 71, 85
2, 210780, Note_on_c, 0, 66, 76
2, 210870, Note_on_c, 0, 66, 0
2, 210870, Note_on_c, 0, 69, 76
2, 210960, Note_on_c, 0, 69, 0
2, 210960, Note_on_c, 0, 74, 87
2, 211050, Note_on_c, 0, 74, 0
2, 211050, Note_on_c, 0, 78, 78
2, 211097, Note_on_c, 0, 74, 0
2, 211097, Note_on_c, 0, 71, 0
2, 211097, Note_on_c, 0, 86, 0
2, 211140, Note_on_c, 0, 78, 0
2, 211140, Note_on_c, 0, 62, 49
2, 211140, Note_on_c, 0, 74, 49
2, 211140, Note_on_c, 0, 72, 71
2, 211140, Note_on_c, 0, 81, 79
2, 211230, Note_on_c, 0, 81, 0
2, 211230, Control_c, 0, 64, 0
2, 211230, Note_on_c, 0, 86, 83
2, 211320, Note_on_c, 0, 86, 0
2, 211320, Note_on_c, 0, 74, 0
2, 211320, Note_on_c, 0, 66, 0
2, 211320, Note_on_c, 0, 54, 0
2, 211320, Note_on_c, 0, 60, 0
2, 211320, Note_on_c, 0, 38, 0
2, 211320, Note_on_c, 0, 72, 0
2, 211320, Note_on_c, 0, 62, 0
2, 211320, Note_on_c, 0, 57, 0
2, 211320, Note_on_c, 0, 61, 80
2, 211320, Note_on_c, 0, 66, 80
2, 211320, Note_on_c, 0, 69, 80
2, 211320, Note_on_c, 0, 73, 91
2, 211320, Control_c, 0, 64, 127
2, 211320, Note_on_c, 0, 39, 50
2, 211320, Note_on_c, 0, 54, 50
2, 211410, Note_on_c, 0, 51, 61
2, 211500, Note_on_c, 0, 51, 0
2, 211500, Note_on_c, 0, 68, 80
2, 211500, Note_on_c, 0, 80, 80
2, 211500, Note_on_c, 0, 57, 76
2, 211590, Note_on_c, 0, 57, 0
2, 211590, Note_on_c, 0, 61, 79
2, 211680, Note_on_c, 0, 61, 0
2, 211680, Note_on_c, 0, 73, 51
2, 211680, Note_on_c, 0, 66, 86
2, 211770, Note_on_c, 0, 73, 0
2, 211770, Note_on_c, 0, 66, 43
2, 211794, Note_on_c, 0, 73, 0
2, 211817, Note_on_c, 0, 80, 0
2, 211817, Note_on_c, 0, 68, 0
2, 211860, Note_on_c, 0, 66, 0
2, 211860, Note_on_c, 0, 66, 0
2, 211860, Note_on_c, 0, 73, 58
2, 211860, Note_on_c, 0, 75, 77
2, 211860, Note_on_c, 0, 61, 64
2, 211950, Note_on_c, 0, 78, 48
2, 212040, Note_on_c, 0, 78, 0
2, 212040, Note_on_c, 0, 54, 0
2, 212040, Note_on_c, 0, 66, 0
2, 212040, Note_on_c, 0, 69, 0
2, 212040, Note_on_c, 0, 39, 0
2, 212040, Note_on_c, 0, 61, 0
2, 212040, Note_on_c, 0, 75, 0
2, 212040, Note_on_c, 0, 73, 0
2, 212040, Note_on_c, 0, 61, 0
2, 212040, Note_on_c, 0, 76, 74
2, 212040, Note_on_c, 0, 64, 75
2, 212040, Note_on_c, 0, 72, 75
2, 212040, Control_c, 0, 64, 0
2, 212040, Control_c, 0, 64, 127
2, 212040, Note_on_c, 0, 54, 56
2, 212040, Note_on_c, 0, 60, 56
2, 212040, Note_on_c, 0, 45, 65
2, 212130, Note_on_c, 0, 60, 57
2, 212220, Note_on_c, 0, 60, 0
2, 212220, Note_on_c, 0, 76, 0
2, 212220, Note_on_c, 0, 76, 101
2, 212220, Note_on_c, 0, 88, 101
2, 212220, Note_on_c, 0, 64, 66
2, 212220, Note_on_c, 0, 78, 85
2, 212310, Note_on_c, 0, 64, 0
2, 212310, Note_on_c, 0, 66, 69
2, 212400, Note_on_c, 0, 66, 0
2, 212400, Note_on_c, 0, 45, 0
2, 212400, Note_on_c, 0, 72, 71
2, 212400, Note_on_c, 0, 44, 68
2, 212400, Note_on_c, 0, 56, 71
2, 212490, Note_on_c, 0, 72, 0
2, 212490, Note_on_c, 0, 68, 57
2, 212537, Note_on_c, 0, 78, 0
2, 212537, Note_on_c, 0, 76, 0
2, 212537, Note_on_c, 0, 88, 0
2, 212580, Note_on_c, 0, 68, 0
2, 212580, Note_on_c, 0, 64, 55
2, 212580, Note_on_c, 0, 76, 55
2, 212580, Note_on_c, 0, 72, 68
2, 212580, Note_on_c, 0, 79, 77
2, 212670, Note_on_c, 0, 72, 0
2, 212670, Note_on_c, 0, 76, 69
2, 212760, Note_on_c, 0, 76, 0
2, 212760, Note_on_c, 0, 72, 0
2, 212760, Note_on_c, 0, 56, 0
2, 212760, Note_on_c, 0, 60, 0
2, 212760, Note_on_c, 0, 44, 0
2, 212760, Note_on_c, 0, 64, 0
2, 212760, Note_on_c, 0, 79, 0
2, 212760, Note_on_c, 0, 76, 0
2, 212760, Note_on_c, 0, 64, 0
2, 212760, Note_on_c, 0, 54, 0
2, 212760, Note_on_c, 0, 65, 63
2, 212760, Note_on_c, 0, 68, 63
2, 212760, Note_on_c, 0, 80, 75
2, 212760, Control_c, 0, 64, 0
2, 212760, Control_c, 0, 64, 127
2, 212760, Note_on_c, 0, 37, 51
2, 212760, Note_on_c, 0, 44, 51
2, 212760, Note_on_c, 0, 53, 51
2, 212760, Note_on_c, 0, 56, 51
2, 212760, Note_on_c, 0, 61, 51
2, 212850, Note_on_c, 0, 37, 62
2, 212940, Note_on_c, 0, 37, 0
2, 212940, Note_on_c, 0, 80, 64
2, 212940, Note_on_c, 0, 92, 64
2, 212940, Note_on_c, 0, 44, 72
2, 213030, Note_on_c, 0, 44, 0
2, 213030, Note_on_c, 0, 49, 74
2, 213120, Note_on_c, 0, 49, 0
2, 213120, Note_on_c, 0, 53, 77
2, 213210, Note_on_c, 0, 53, 0
2, 213210, Note_on_c, 0, 56, 77
2, 213300, Note_on_c, 0, 80, 0
2, 213300, Note_on_c, 0, 92, 0
2, 213300, Note_on_c, 0, 56, 0
2, 213300, Note_on_c, 0, 73, 54
2, 213300, Note_on_c, 0, 85, 54
2, 213300, Note_on_c, 0, 61, 85
2, 213390, Note_on_c, 0, 61, 0
2, 213390, Note_on_c, 0, 65, 80
2, 213480, Note_on_c, 0, 80, 0
2, 213480, Note_on_c, 0, 65, 0
2, 213480, Note_on_c, 0, 80, 71
2, 213480, Control_c, 0, 64, 0
2, 213480, Control_c, 0, 64, 127
2, 213480, Note_on_c, 0, 68, 78
2, 213600, Note_on_c, 0, 68, 0
2, 213600, Note_on_c, 0, 73, 81
2, 213660, Note_on_c, 0, 80, 0
2, 213660, Note_on_c, 0, 73, 0
2, 213660, Note_on_c, 0, 85, 0
2, 213660, Note_on_c, 0, 68, 60
2, 213660, Note_on_c, 0, 80, 60
2, 213719, Note_on_c, 0, 73, 0
2, 213719, Note_on_c, 0, 77, 81
2, 213840, Note_on_c, 0, 77, 0
2, 213840, Note_on_c, 0, 80, 54
2, 213840, Note_on_c, 0, 73, 76
2, 213930, Note_on_c, 0, 80, 0
2, 213930, Note_on_c, 0, 85, 67
2, 214020, Note_on_c, 0, 85, 0
2, 214020, Note_on_c, 0, 80, 0
2, 214020, Note_on_c, 0, 68, 0
2, 214020, Note_on_c, 0, 89, 69
2, 214079, Note_on_c, 0, 73, 0
2, 214079, Control_c, 0, 64, 0
2, 214079, Note_on_c, 0, 85, 106
2, 214110, Note_on_c, 0, 89, 0
2, 214110, Note_on_c, 0, 92, 68
2, 214200, Note_on_c, 0, 92, 0
2, 214200, Note_on_c, 0, 68, 0
2, 214200, Note_on_c, 0, 53, 0
2, 214200, Note_on_c, 0, 44, 0
2, 214200, Note_on_c, 0, 37, 0
2, 214200, Note_on_c, 0, 61, 0
2, 214200, Note_on_c, 0, 85, 0
2, 214200, Note_on_c, 0, 65, 0
2, 214200, Note_on_c, 0, 56, 0
2, 214200, Note_on_c, 0, 84, 103
2, 214200, Control_c, 0, 64, 127
2, 214200, Note_on_c, 0, 37, 53
2, 214200, Note_on_c, 0, 44, 53
2, 214200, Note_on_c, 0, 53, 53
2, 214290, Note_on_c, 0, 68, 56
2, 214380, Note_on_c, 0, 68, 0
2, 214380, Note_on_c, 0, 73, 71
2, 214380, Note_on_c, 0, 56, 56
2, 214470, Note_on_c, 0, 73, 0
2, 214470, Note_on_c, 0, 77, 67
2, 214560, Note_on_c, 0, 77, 0
2, 214560, Note_on_c, 0, 56, 0
2, 214560, Note_on_c, 0, 80, 68
2, 214560, Note_on_c, 0, 61, 67
2, 214650, Note_on_c, 0, 80, 0
2, 214650, Note_on_c, 0, 68, 42
2, 214740, Note_on_c, 0, 68, 0
2, 214740, Note_on_c, 0, 61, 0
2, 214740, Note_on_c, 0, 73, 67
2, 214740, Note_on_c, 0, 65, 71
2, 214830, Note_on_c, 0, 73, 0
2, 214830, Note_on_c, 0, 77, 68
2, 214920, Note_on_c, 0, 77, 0
2, 214920, Note_on_c, 0, 65, 0
2, 214920, Note_on_c, 0, 80, 69
2, 214920, Note_on_c, 0, 68, 69
2, 215010, Note_on_c, 0, 80, 0
2, 215010, Note_on_c, 0, 68, 45
2, 215100, Note_on_c, 0, 68, 0
2, 215100, Note_on_c, 0, 68, 0
2, 215100, Note_on_c, 0, 84, 0
2, 215100, Note_on_c, 0, 73, 68
2, 215100, Note_on_c, 0, 82, 76
2, 215100, Control_c, 0, 64, 0
2, 215100, Control_c, 0, 64, 127
2, 215100, Note_on_c, 0, 56, 54
2, 215190, Note_on_c, 0, 73, 0
2, 215190, Note_on_c, 0, 77, 69
2, 215280, Note_on_c, 0, 77, 0
2, 215280, Note_on_c, 0, 56, 0
2, 215280, Note_on_c, 0, 80, 70
2, 215280, Note_on_c, 0, 61, 70
2, 215370, Note_on_c, 0, 80, 0
2, 215370, Note_on_c, 0, 68, 41
2, 215460, Note_on_c, 0, 68, 0
2, 215460, Note_on_c, 0, 61, 0
2, 215460, Note_on_c, 0, 82, 0
2, 215460, Note_on_c, 0, 73, 63
2, 215460, Note_on_c, 0, 79, 74
2, 215460, Note_on_c, 0, 65, 73
2, 215550, Note_on_c, 0, 73, 0
2, 215550, Note_on_c, 0, 77, 65
2, 215640, Note_on_c, 0, 77, 0
2, 215640, Note_on_c, 0, 65, 0
2, 215640, Note_on_c, 0, 79, 0
2, 215640, Note_on_c, 0, 80, 64
2, 215640, Note_on_c, 0, 80, 87
2, 215640, Control_c, 0, 64, 0
2, 215640, Note_on_c, 0, 68, 71
2, 215730, Note_on_c, 0, 80, 0
2, 215730, Note_on_c, 0, 68, 45
2, 215820, Note_on_c, 0, 68, 0
2, 215820, Note_on_c, 0, 68, 0
2, 215820, Note_on_c, 0, 53, 0
2, 215820, Note_on_c, 0, 37, 0
2, 215820, Note_on_c, 0, 44, 0
2, 215820, Note_on_c, 0, 73, 62
2, 215820, Control_c, 0, 64, 127
2, 215820, Note_on_c, 0, 58, 56
2, 215820, Note_on_c, 0, 37, 62
2, 215820, Note_on_c, 0, 44, 62
2, 215820, Note_on_c, 0, 53, 62
2, 215910, Note_on_c, 0, 73, 0
2, 215910, Note_on_c, 0, 77, 67
2, 216000, Note_on_c, 0, 77, 0
2, 216000, Note_on_c, 0, 58, 0
2, 216000, Note_on_c, 0, 80, 69
2, 216000, Note_on_c, 0, 61, 64
2, 216090, Note_on_c, 0, 80, 0
2, 216090, Note_on_c, 0, 68, 43
2, 216180, Note_on_c, 0, 68, 0
2, 216180, Note_on_c, 0, 61, 0
2, 216180, Note_on_c, 0, 73, 63
2, 216180, Note_on_c, 0, 65, 68
2, 216270, Note_on_c, 0, 73, 0
2, 216270, Note_on_c, 0, 77, 67
2, 216360, Note_on_c, 0, 77, 0
2, 216360, Note_on_c, 0, 65, 0
2, 216360, Note_on_c, 0, 80, 69
2, 216360, Note_on_c, 0, 68, 66
2, 216450, Note_on_c, 0, 80, 0
2, 216450, Note_on_c, 0, 68, 42
2, 216540, Note_on_c, 0, 68, 0
2, 216540, Note_on_c, 0, 68, 0
2, 216540, Note_on_c, 0, 73, 64
2, 216540, Control_c, 0, 64, 0
2, 216540, Control_c, 0, 64, 127
2, 216540, Note_on_c, 0, 57, 52
2, 216630, Note_on_c, 0, 73, 0
2, 216630, Note_on_c, 0, 80, 0
2, 216630, Note_on_c, 0, 77, 67
2, 216630, Note_on_c, 0, 77, 76
2, 216720, Note_on_c, 0, 77, 0
2, 216720, Note_on_c, 0, 57, 0
2, 216720, Note_on_c, 0, 77, 0
2, 216720, Note_on_c, 0, 78, 65
2, 216720, Note_on_c, 0, 78, 85
2, 216720, Note_on_c, 0, 61, 63
2, 216810, Note_on_c, 0, 78, 0
2, 216810, Note_on_c, 0, 73, 52
2, 216840, Note_on_c, 0, 78, 0
2, 216840, Note_on_c, 0, 77, 78
2, 216900, Note_on_c, 0, 61, 0
2, 216900, Note_on_c, 0, 73, 0
2, 216900, Note_on_c, 0, 65, 68
2, 216959, Note_on_c, 0, 77, 0
2, 216959, Note_on_c, 0, 68, 50
2, 216959, Note_on_c, 0, 80, 94
2, 217020, Note_on_c, 0, 68, 0
2, 217080, Note_on_c, 0, 65, 0
2, 217080, Note_on_c, 0, 80, 0
2, 217080, Note_on_c, 0, 77, 91
2, 217080, Control_c, 0, 64, 0
2, 217080, Note_on_c, 0, 68, 66
2, 217170, Note_on_c, 0, 68, 50
2, 217260, Note_on_c, 0, 68, 0
2, 217260, Note_on_c, 0, 53, 0
2, 217260, Note_on_c, 0, 37, 0
2, 217260, Note_on_c, 0, 44, 0
2, 217260, Note_on_c, 0, 68, 0
2, 217260, Note_on_c, 0, 73, 66
2, 217260, Control_c, 0, 64, 127
2, 217260, Note_on_c, 0, 56, 53
2, 217260, Note_on_c, 0, 37, 60
2, 217260, Note_on_c, 0, 44, 60
2, 217260, Note_on_c, 0, 53, 60
2, 217350, Note_on_c, 0, 73, 0
2, 217350, Note_on_c, 0, 77, 67
2, 217440, Note_on_c, 0, 77, 0
2, 217440, Note_on_c, 0, 56, 0
2, 217440, Note_on_c, 0, 80, 65
2, 217440, Note_on_c, 0, 61, 65
2, 217530, Note_on_c, 0, 80, 0
2, 217530, Note_on_c, 0, 68, 45
2, 217620, Note_on_c, 0, 68, 0
2, 217620, Note_on_c, 0, 61, 0
2, 217620, Note_on_c, 0, 73, 61
2, 217620, Note_on_c, 0, 65, 67
2, 217710, Note_on_c, 0, 73, 0
2, 217710, Note_on_c, 0, 77, 69
2, 217800, Note_on_c, 0, 77, 0
2, 217800, Note_on_c, 0, 65, 0
2, 217800, Note_on_c, 0, 80, 71
2, 217800, Note_on_c, 0, 68, 67
2, 217890, Note_on_c, 0, 80, 0
2, 217890, Note_on_c, 0, 68, 45
2, 217980, Note_on_c, 0, 68, 0
2, 217980, Note_on_c, 0, 68, 0
2, 217980, Note_on_c, 0, 77, 0
2, 217980, Note_on_c, 0, 75, 69
2, 217980, Note_on_c, 0, 75, 67
2, 217980, Control_c, 0, 64, 0
2, 217980, Control_c, 0, 64, 127
2, 217980, Note_on_c, 0, 56, 52
2, 218070, Note_on_c, 0, 75, 0
2, 218070, Note_on_c, 0, 77, 66
2, 218160, Note_on_c, 0, 77, 0
2, 218160, Note_on_c, 0, 56, 0
2, 218160, Note_on_c, 0, 80, 65
2, 218160, Note_on_c, 0, 61, 74
2, 218250, Note_on_c, 0, 80, 0
2, 218280, Note_on_c, 0, 75, 0
2, 218280, Note_on_c, 0, 73, 66
2, 218340, Note_on_c, 0, 61, 0
2, 218340, Note_on_c, 0, 68, 53
2, 218340, Note_on_c, 0, 65, 68
2, 218384, Note_on_c, 0, 73, 0
2, 218399, Note_on_c, 0, 75, 72
2, 218430, Note_on_c, 0, 68, 0
2, 218505, Note_on_c, 0, 75, 0
2, 218520, Note_on_c, 0, 65, 0
2, 218520, Note_on_c, 0, 80, 57
2, 218520, Note_on_c, 0, 73, 69
2, 218520, Control_c, 0, 64, 0
2, 218520, Control_c, 0, 64, 127
2, 218520, Note_on_c, 0, 68, 65
2, 218610, Note_on_c, 0, 80, 0
2, 218610, Note_on_c, 0, 68, 48
2, 218700, Note_on_c, 0, 68, 0
2, 218700, Note_on_c, 0, 68, 0
2, 218700, Note_on_c, 0, 73, 66
2, 218700, Note_on_c, 0, 56, 52
2, 218790, Note_on_c, 0, 73, 0
2, 218790, Note_on_c, 0, 77, 62
2, 218880, Note_on_c, 0, 77, 0
2, 218880, Note_on_c, 0, 56, 0
2, 218880, Note_on_c, 0, 80, 67
2, 218880, Note_on_c, 0, 61, 63
2, 218970, Note_on_c, 0, 80, 0
2, 218970, Note_on_c, 0, 68, 50
2, 219060, Note_on_c, 0, 68, 0
2, 219060, Note_on_c, 0, 61, 0
2, 219060, Note_on_c, 0, 73, 69
2, 219060, Note_on_c, 0, 65, 65
2, 219150, Note_on_c, 0, 73, 0
2, 219150, Note_on_c, 0, 77, 69
2, 219240, Note_on_c, 0, 77, 0
2, 219240, Note_on_c, 0, 65, 0
2, 219240, Note_on_c, 0, 53, 0
2, 219240, Note_on_c, 0, 37, 0
2, 219240, Note_on_c, 0, 44, 0
2, 219240, Note_on_c, 0, 80, 60
2, 219240, Note_on_c, 0, 68, 56
2, 219240, Note_on_c, 0, 42, 61
2, 219251, Note_on_c, 0, 49, 61
2, 219263, Note_on_c, 0, 58, 61
2, 219274, Note_on_c, 0, 61, 61
2, 219285, Note_on_c, 0, 65, 61
2, 219330, Note_on_c, 0, 80, 0
2, 219330, Note_on_c, 0, 70, 62
2, 219420, Note_on_c, 0, 70, 0
2, 219420, Note_on_c, 0, 68, 0
2, 219420, Note_on_c, 0, 73, 64
2, 219420, Note_on_c, 0, 70, 69
2, 219510, Note_on_c, 0, 73, 0
2, 219510, Note_on_c, 0, 77, 66
2, 219578, Note_on_c, 0, 70, 0
2, 219600, Note_on_c, 0, 77, 0
2, 219600, Note_on_c, 0, 80, 68
2, 219600, Note_on_c, 0, 73, 67
2, 219690, Note_on_c, 0, 80, 0
2, 219690, Note_on_c, 0, 70, 70
2, 219758, Note_on_c, 0, 73, 0
2, 219780, Note_on_c, 0, 70, 0
2, 219780, Note_on_c, 0, 73, 71
2, 219780, Note_on_c, 0, 77, 68
2, 219787, Note_on_c, 0, 73, 0
2, 219870, Note_on_c, 0, 73, 0
2, 219870, Note_on_c, 0, 77, 83
2, 219938, Note_on_c, 0, 77, 0
2, 219960, Note_on_c, 0, 61, 0
2, 219960, Note_on_c, 0, 58, 0
2, 219960, Note_on_c, 0, 49, 0
2, 219960, Note_on_c, 0, 42, 0
2, 219960, Note_on_c, 0, 77, 0
2, 219960, Note_on_c, 0, 65, 0
2, 219960, Note_on_c, 0, 80, 119
2, 219960, Note_on_c, 0, 85, 119
2, 219960, Note_on_c, 0, 89, 119
2, 219960, Note_on_c, 0, 92, 119
2, 219960, Note_on_c, 0, 37, 61
2, 219960, Note_on_c, 0, 44, 61
2, 219960, Note_on_c, 0, 53, 61
2, 219960, Note_on_c, 0, 56, 61
2, 219960, Note_on_c, 0, 61, 61
2, 219960, Note_on_c, 0, 65, 61
2, 221400, Note_on_c, 0, 65, 0
2, 221400, Note_on_c, 0, 89, 0
2, 221400, Note_on_c, 0, 92, 0
2, 221400, Note_on_c, 0, 80, 0
2, 221400, Note_on_c, 0, 37, 0
2, 221400, Note_on_c, 0, 85, 0
2, 221400, Note_on_c, 0, 56, 0
2, 221400, Note_on_c, 0, 53, 0
2, 221400, Note_on_c, 0, 44, 0
2, 221400, Note_on_c, 0, 61, 0
2, 221400, End_track
0, 0, End_of_file
