0, 0, Header, 1, 2, 360
1, 0, Start_track
1, 0, Title_t, "untitled"
1, 0, Time_signature, 7, 3, 12, 8
1, 0, Key_signature, 4, "major"
1, 0, Tempo, 1333333
1, 1260, Time_signature, 2, 2, 24, 8
1, 1800, Tempo, 1333333
1, 1823, Tempo, 1379628
1, 1845, Tempo, 1429252
1, 1868, Tempo, 1482946
1, 1890, Tempo, 1540436
1, 1913, Tempo, 1602564
1, 1935, Tempo, 1669914
1, 1979, Tempo, 1818182
1, 1980, Time_signature, 4, 2, 24, 8
1, 1980, Tempo, 1333333
1, 5220, Tempo, 1428571
1, 5580, Tempo, 1333333
1, 7740, Tempo, 1276596
1, 8100, Tempo, 1250000
1, 8460, Tempo, 1224490
1, 8640, Tempo, 1200000
1, 11700, Tempo, 1200000
1, 11723, Tempo, 1220008
1, 11745, Tempo, 1240438
1, 11768, Tempo, 1261830
1, 11790, Tempo, 1283697
1, 11813, Tempo, 1306620
1, 11835, Tempo, 1330082
1, 11858, Tempo, 1354708
1, 11880, Tempo, 1380262
1, 11903, Tempo, 1406470
1, 11925, Tempo, 1434034
1, 11948, Tempo, 1462345
1, 11970, Tempo, 1492166
1, 11993, Tempo, 1522843
1, 12015, Tempo, 1555210
1, 12059, Tempo, 1621622
1, 12060, Tempo, 1200000
1, 16560, Tempo, 1200000
1, 16583, Tempo, 1240695
1, 16605, Tempo, 1284247
1, 16628, Tempo, 1330672
1, 16650, Tempo, 1380898
1, 16673, Tempo, 1435063
1, 16695, Tempo, 1493652
1, 16739, Tempo, 1621622
1, 16740, Tempo, 1200000
1, 18000, Tempo, 1200000
1, 18023, Tempo, 1240695
1, 18045, Tempo, 1284247
1, 18068, Tempo, 1330672
1, 18090, Tempo, 1380898
1, 18113, Tempo, 1435063
1, 18135, Tempo, 1493652
1, 18179, Tempo, 1621622
1, 18180, Tempo, 1200000
1, 19440, Tempo, 1200000
1, 19463, Tempo, 1240695
1, 19485, Tempo, 1284247
1, 19508, Tempo, 1330672
1, 19530, Tempo, 1380898
1, 19553, Tempo, 1435063
1, 19575, Tempo, 1493652
1, 19619, Tempo, 1621622
1, 19620, Tempo, 1200000
1, 22140, Time_signature, 2, 2, 24, 8
1, 22140, Tempo, 1224490
1, 22500, Tempo, 1250000
1, 22860, Time_signature, 9, 3, 12, 8
1, 22860, Tempo, 1276596
1, 23400, Tempo, 1304348
1, 23940, Tempo, 1333333
1, 24480, Time_signature, 7, 3, 12, 8
1, 24480, Tempo, 1333333
1, 25740, Time_signature, 2, 2, 24, 8
1, 26280, Tempo, 1333333
1, 26303, Tempo, 1379628
1, 26325, Tempo, 1429252
1, 26348, Tempo, 1482946
1, 26370, Tempo, 1540436
1, 26393, Tempo, 1602564
1, 26415, Tempo, 1669914
1, 26459, Tempo, 1818182
1, 26460, Time_signature, 4, 2, 24, 8
1, 26460, Tempo, 1333333
1, 29700, Tempo, 1428571
1, 30060, Tempo, 1333333
1, 32220, Tempo, 1276596
1, 32580, Tempo, 1250000
1, 32940, Tempo, 1224490
1, 33120, Tempo, 1200000
1, 36180, Tempo, 1200000
1, 36203, Tempo, 1220008
1, 36225, Tempo, 1240438
1, 36248, Tempo, 1261830
1, 36270, Tempo, 1283697
1, 36293, Tempo, 1306620
1, 36315, Tempo, 1330082
1, 36338, Tempo, 1354708
1, 36360, Tempo, 1380262
1, 36383, Tempo, 1406470
1, 36405, Tempo, 1434034
1, 36428, Tempo, 1462345
1, 36450, Tempo, 1492166
1, 36473, Tempo, 1522843
1, 36495, Tempo, 1555210
1, 36539, Tempo, 1621622
1, 36540, Tempo, 1200000
1, 41040, Tempo, 1200000
1, 41063, Tempo, 1240695
1, 41085, Tempo, 1284247
1, 41108, Tempo, 1330672
1, 41130, Tempo, 1380898
1, 41153, Tempo, 1435063
1, 41175, Tempo, 1493652
1, 41219, Tempo, 1621622
1, 41220, Tempo, 1200000
1, 42480, Tempo, 1200000
1, 42503, Tempo, 1240695
1, 42525, Tempo, 1284247
1, 42548, Tempo, 1330672
1, 42570, Tempo, 1380898
1, 42593, Tempo, 1435063
1, 42615, Tempo, 1493652
1, 42659, Tempo, 1621622
1, 42660, Tempo, 1200000
1, 43920, Tempo, 1200000
1, 43943, Tempo, 1240695
1, 43965, Tempo, 1284247
1, 43988, Tempo, 1330672
1, 44010, Tempo, 1380898
1, 44033, Tempo, 1435063
1, 44055, Tempo, 1493652
1, 44099, Tempo, 1621622
1, 44100, Tempo, 1200000
1, 46620, Time_signature, 2, 2, 24, 8
1, 46620, Tempo, 1224490
1, 46980, Tempo, 1250000
1, 47340, Time_signature, 4, 2, 24, 8
1, 47340, Tempo, 1111111
1, 51120, Tempo, 1132075
1, 51300, Tempo, 1153846
1, 51480, Tempo, 1176471
1, 51660, Tempo, 1111111
1, 52020, Tempo, 1132075
1, 52380, Tempo, 1153846
1, 52830, Tempo, 1176471
1, 53100, Tempo, 1200000
1, 54000, Tempo, 1111111
1, 56880, Tempo, 1132075
1, 57060, Tempo, 1153846
1, 57240, Tempo, 1176471
1, 57420, Tempo, 1153846
1, 58140, Tempo, 1132075
1, 58500, Tempo, 1111111
1, 60120, Tempo, 1111111
1, 60143, Tempo, 1148545
1, 60165, Tempo, 1188825
1, 60188, Tempo, 1231780
1, 60210, Tempo, 1278228
1, 60233, Tempo, 1328021
1, 60255, Tempo, 1381852
1, 60299, Tempo, 1500000
1, 60300, Tempo, 1111111
1, 61920, Tempo, 1111111
1, 61943, Tempo, 1148545
1, 61965, Tempo, 1188825
1, 61988, Tempo, 1231780
1, 62010, Tempo, 1278228
1, 62033, Tempo, 1328021
1, 62055, Tempo, 1381852
1, 62099, Tempo, 1500000
1, 62100, Tempo, 1111111
1, 63360, Tempo, 1153846
1, 63383, Tempo, 1191422
1, 63405, Tempo, 1231527
1, 63428, Tempo, 1274156
1, 63450, Tempo, 1320132
1, 63473, Tempo, 1369550
1, 63495, Tempo, 1422812
1, 63539, Tempo, 1538462
1, 63540, Tempo, 1153846
1, 64620, Time_signature, 2, 2, 24, 8
1, 64620, Tempo, 1200000
1, 65340, Time_signature, 4, 2, 24, 8
1, 65340, Tempo, 1111111
1, 69120, Tempo, 1132075
1, 69300, Tempo, 1153846
1, 69480, Tempo, 1176471
1, 69660, Tempo, 1111111
1, 70020, Tempo, 1132075
1, 70380, Tempo, 1153846
1, 70830, Tempo, 1176471
1, 71100, Tempo, 1200000
1, 72000, Tempo, 1111111
1, 74880, Tempo, 1132075
1, 75060, Tempo, 1153846
1, 75240, Tempo, 1176471
1, 75420, Tempo, 1153846
1, 76140, Tempo, 1132075
1, 76500, Tempo, 1111111
1, 78120, Tempo, 1111111
1, 78143, Tempo, 1148545
1, 78165, Tempo, 1188825
1, 78188, Tempo, 1231780
1, 78210, Tempo, 1278228
1, 78233, Tempo, 1328021
1, 78255, Tempo, 1381852
1, 78299, Tempo, 1500000
1, 78300, Tempo, 1111111
1, 79920, Tempo, 1111111
1, 79943, Tempo, 1148545
1, 79965, Tempo, 1188825
1, 79988, Tempo, 1231780
1, 80010, Tempo, 1278228
1, 80033, Tempo, 1328021
1, 80055, Tempo, 1381852
1, 80099, Tempo, 1500000
1, 80100, Tempo, 1111111
1, 81360, Tempo, 1153846
1, 81383, Tempo, 1191422
1, 81405, Tempo, 1231527
1, 81428, Tempo, 1274156
1, 81450, Tempo, 1320132
1, 81473, Tempo, 1369550
1, 81495, Tempo, 1422812
1, 81539, Tempo, 1538462
1, 81540, Tempo, 1153846
1, 82620, Time_signature, 2, 2, 24, 8
1, 82620, Tempo, 1200000
1, 83340, Tempo, 1200000
1, 83880, Tempo, 1276596
1, 85500, Time_signature, 4, 2, 24, 8
1, 88380, Tempo, 1304348
1, 88560, Tempo, 1333333
1, 88740, Tempo, 1363636
1, 88920, Tempo, 1395349
1, 89100, Tempo, 1428571
1, 89280, Tempo, 1500000
1, 89460, Tempo, 1578947
1, 89820, Tempo, 1276596
1, 91260, Tempo, 1428571
1, 92700, Time_signature, 2, 2, 24, 8
1, 92700, Tempo, 1428571
1, 92742, Tempo, 1451028
1, 92784, Tempo, 1473839
1, 92827, Tempo, 1497753
1, 92869, Tempo, 1522070
1, 92911, Tempo, 1547588
1, 92953, Tempo, 1573564
1, 92996, Tempo, 1600854
1, 93038, Tempo, 1629107
1, 93080, Tempo, 1657917
1, 93122, Tempo, 1688239
1, 93164, Tempo, 1719198
1, 93206, Tempo, 1751825
1, 93249, Tempo, 1785714
1, 93291, Tempo, 1820388
1, 93333, Tempo, 1857010
1, 93375, Tempo, 1894537
1, 93419, Tempo, 1935484
1, 93420, Time_signature, 4, 2, 24, 8
1, 93420, Tempo, 1276596
1, 94770, Tempo, 5000000
1, 94860, Tempo, 1276596
1, 94860, End_track
2, 0, Start_track
2, 0, Title_t, "Piano"
2, 0, Program_c, 0, 0
2, 0, Control_c, 0, 7, 110
2, 0, Control_c, 0, 10, 64
2, 0, Control_c, 0, 91, 60
2, 0, Control_c, 0, 121, 0
2, 0, Control_c, 0, 121, 0
2, 0, Control_c, 0, 91, 60
2, 0, Control_c, 0, 10, 51
2, 0, Control_c, 0, 7, 100
2, 0, Note_on_c, 0, 61, 50
2, 0, Note_on_c, 0, 64, 50
2, 0, Note_on_c, 0, 68, 50
2, 180, Note_on_c, 0, 68, 0
2, 180, Note_on_c, 0, 64, 0
2, 180, Note_on_c, 0, 61, 0
2, 180, Note_on_c, 0, 64, 52
2, 180, Note_on_c, 0, 68, 52
2, 180, Note_on_c, 0, 61, 60
2, 360, Note_on_c, 0, 68, 0
2, 360, Note_on_c, 0, 64, 0
2, 360, Note_on_c, 0, 76, 100
2, 360, Note_on_c, 0, 64, 59
2, 360, Note_on_c, 0, 68, 59
2, 450, Note_on_c, 0, 76, 0
2, 450, Note_on_c, 0, 75, 98
2, 540, Note_on_c, 0, 75, 0
2, 540, Note_on_c, 0, 68, 0
2, 540, Note_on_c, 0, 64, 0
2, 540, Note_on_c, 0, 61, 0
2, 540, Note_on_c, 0, 76, 107
2, 540, Note_on_c, 0, 61, 53
2, 540, Note_on_c, 0, 64, 53
2, 540, Note_on_c, 0, 68, 53
2, 540, Note_on_c, 0, 59, 64
2, 720, Note_on_c, 0, 68, 0
2, 720, Note_on_c, 0, 64, 0
2, 720, Note_on_c, 0, 61, 0
2, 720, Note_on_c, 0, 61, 56
2, 720, Note_on_c, 0, 64, 56
2, 720, Note_on_c, 0, 68, 56
2, 900, Note_on_c, 0, 68, 0
2, 900, Note_on_c, 0, 61, 0
2, 900, Note_on_c, 0, 64, 0
2, 900, Note_on_c, 0, 61, 55
2, 900, Note_on_c, 0, 64, 55
2, 900, Note_on_c, 0, 68, 55
2, 1080, Note_on_c, 0, 68, 0
2, 1080, Note_on_c, 0, 61, 0
2, 1080, Note_on_c, 0, 64, 0
2, 1080, Note_on_c, 0, 76, 0
2, 1080, Note_on_c, 0, 73, 98
2, 1080, Note_on_c, 0, 61, 51
2, 1080, Note_on_c, 0, 64, 51
2, 1080, Note_on_c, 0, 68, 51
2, 1170, Note_on_c, 0, 73, 0
2, 1170, Note_on_c, 0, 75, 110
2, 1260, Note_on_c, 0, 75, 0
2, 1260, Note_on_c, 0, 68, 0
2, 1260, Note_on_c, 0, 59, 0
2, 1260, Note_on_c, 0, 61, 0
2, 1260, Note_on_c, 0, 64, 0
2, 1260, Note_on_c, 0, 76, 112
2, 1260, Note_on_c, 0, 61, 56
2, 1260, Note_on_c, 0, 64, 56
2, 1260, Note_on_c, 0, 68, 56
2, 1260, Note_on_c, 0, 57, 62
2, 1440, Note_on_c, 0, 68, 0
2, 1440, Note_on_c, 0, 64, 0
2, 1440, Note_on_c, 0, 76, 0
2, 1440, Note_on_c, 0, 61, 0
2, 1440, Note_on_c, 0, 75, 104
2, 1440, Note_on_c, 0, 61, 59
2, 1440, Note_on_c, 0, 64, 59
2, 1440, Note_on_c, 0, 68, 59
2, 1530, Note_on_c, 0, 75, 0
2, 1530, Note_on_c, 0, 73, 101
2, 1620, Note_on_c, 0, 73, 0
2, 1620, Note_on_c, 0, 68, 0
2, 1620, Note_on_c, 0, 64, 0
2, 1620, Note_on_c, 0, 61, 0
2, 1620, Note_on_c, 0, 75, 109
2, 1620, Note_on_c, 0, 61, 52
2, 1620, Note_on_c, 0, 63, 52
2, 1620, Note_on_c, 0, 66, 52
2, 1800, Note_on_c, 0, 66, 0
2, 1800, Note_on_c, 0, 61, 0
2, 1800, Note_on_c, 0, 63, 0
2, 1800, Note_on_c, 0, 75, 0
2, 1800, Note_on_c, 0, 71, 99
2, 1800, Note_on_c, 0, 59, 53
2, 1800, Note_on_c, 0, 63, 53
2, 1800, Note_on_c, 0, 66, 53
2, 1890, Note_on_c, 0, 71, 0
2, 1890, Note_on_c, 0, 73, 104
2, 1980, Note_on_c, 0, 73, 0
2, 1980, Note_on_c, 0, 66, 0
2, 1980, Note_on_c, 0, 57, 0
2, 1980, Note_on_c, 0, 59, 0
2, 1980, Note_on_c, 0, 63, 0
2, 1980, Note_on_c, 0, 75, 116
2, 1980, Note_on_c, 0, 59, 56
2, 1980, Note_on_c, 0, 63, 56
2, 1980, Note_on_c, 0, 66, 56
2, 1980, Note_on_c, 0, 56, 64
2, 2160, Note_on_c, 0, 66, 0
2, 2160, Note_on_c, 0, 63, 0
2, 2160, Note_on_c, 0, 59, 0
2, 2160, Note_on_c, 0, 59, 59
2, 2160, Note_on_c, 0, 63, 59
2, 2160, Note_on_c, 0, 66, 59
2, 2340, Note_on_c, 0, 66, 0
2, 2340, Note_on_c, 0, 59, 0
2, 2340, Note_on_c, 0, 63, 0
2, 2340, Note_on_c, 0, 59, 51
2, 2340, Note_on_c, 0, 63, 51
2, 2340, Note_on_c, 0, 66, 51
2, 2520, Note_on_c, 0, 66, 0
2, 2520, Note_on_c, 0, 59, 0
2, 2520, Note_on_c, 0, 63, 0
2, 2520, Note_on_c, 0, 59, 55
2, 2520, Note_on_c, 0, 63, 55
2, 2520, Note_on_c, 0, 66, 55
2, 2700, Note_on_c, 0, 66, 0
2, 2700, Note_on_c, 0, 59, 0
2, 2700, Note_on_c, 0, 63, 0
2, 2700, Note_on_c, 0, 59, 50
2, 2700, Note_on_c, 0, 61, 50
2, 2700, Note_on_c, 0, 64, 50
2, 2880, Note_on_c, 0, 64, 0
2, 2880, Note_on_c, 0, 59, 0
2, 2880, Note_on_c, 0, 61, 0
2, 2880, Note_on_c, 0, 75, 0
2, 2880, Note_on_c, 0, 73, 102
2, 2880, Note_on_c, 0, 59, 49
2, 2880, Note_on_c, 0, 61, 49
2, 2880, Note_on_c, 0, 64, 49
2, 2970, Note_on_c, 0, 73, 0
2, 2970, Note_on_c, 0, 71, 101
2, 3060, Note_on_c, 0, 71, 0
2, 3060, Note_on_c, 0, 64, 0
2, 3060, Note_on_c, 0, 56, 0
2, 3060, Note_on_c, 0, 59, 0
2, 3060, Note_on_c, 0, 61, 0
2, 3060, Note_on_c, 0, 73, 111
2, 3060, Note_on_c, 0, 57, 56
2, 3060, Note_on_c, 0, 61, 56
2, 3060, Note_on_c, 0, 64, 56
2, 3060, Note_on_c, 0, 54, 65
2, 3240, Note_on_c, 0, 64, 0
2, 3240, Note_on_c, 0, 61, 0
2, 3240, Note_on_c, 0, 73, 0
2, 3240, Note_on_c, 0, 57, 0
2, 3240, Note_on_c, 0, 69, 96
2, 3240, Note_on_c, 0, 57, 57
2, 3240, Note_on_c, 0, 61, 57
2, 3240, Note_on_c, 0, 64, 57
2, 3330, Note_on_c, 0, 69, 0
2, 3330, Note_on_c, 0, 71, 115
2, 3420, Note_on_c, 0, 71, 0
2, 3420, Note_on_c, 0, 64, 0
2, 3420, Note_on_c, 0, 54, 0
2, 3420, Note_on_c, 0, 57, 0
2, 3420, Note_on_c, 0, 61, 0
2, 3420, Note_on_c, 0, 73, 112
2, 3420, Note_on_c, 0, 56, 57
2, 3420, Note_on_c, 0, 61, 57
2, 3420, Note_on_c, 0, 64, 57
2, 3420, Note_on_c, 0, 52, 64
2, 3600, Note_on_c, 0, 64, 0
2, 3600, Note_on_c, 0, 61, 0
2, 3600, Note_on_c, 0, 56, 0
2, 3600, Note_on_c, 0, 56, 55
2, 3600, Note_on_c, 0, 61, 55
2, 3600, Note_on_c, 0, 64, 55
2, 3780, Note_on_c, 0, 64, 0
2, 3780, Note_on_c, 0, 56, 0
2, 3780, Note_on_c, 0, 61, 0
2, 3780, Note_on_c, 0, 56, 58
2, 3780, Note_on_c, 0, 61, 58
2, 3780, Note_on_c, 0, 64, 58
2, 3960, Note_on_c, 0, 64, 0
2, 3960, Note_on_c, 0, 56, 0
2, 3960, Note_on_c, 0, 61, 0
2, 3960, Note_on_c, 0, 56, 55
2, 3960, Note_on_c, 0, 61, 55
2, 3960, Note_on_c, 0, 64, 55
2, 4140, Note_on_c, 0, 64, 0
2, 4140, Note_on_c, 0, 56, 0
2, 4140, Note_on_c, 0, 61, 0
2, 4140, Note_on_c, 0, 52, 0
2, 4140, Note_on_c, 0, 66, 71
2, 4140, Note_on_c, 0, 56, 48
2, 4140, Note_on_c, 0, 61, 48
2, 4140, Note_on_c, 0, 51, 67
2, 4320, Note_on_c, 0, 61, 0
2, 4320, Note_on_c, 0, 56, 0
2, 4320, Note_on_c, 0, 73, 0
2, 4320, Note_on_c, 0, 66, 0
2, 4320, Note_on_c, 0, 71, 100
2, 4320, Note_on_c, 0, 66, 78
2, 4320, Note_on_c, 0, 56, 58
2, 4320, Note_on_c, 0, 61, 58
2, 4410, Note_on_c, 0, 71, 0
2, 4410, Note_on_c, 0, 69, 102
2, 4500, Note_on_c, 0, 69, 0
2, 4500, Note_on_c, 0, 61, 0
2, 4500, Note_on_c, 0, 51, 0
2, 4500, Note_on_c, 0, 66, 0
2, 4500, Note_on_c, 0, 56, 0
2, 4500, Note_on_c, 0, 68, 99
2, 4500, Note_on_c, 0, 66, 82
2, 4500, Note_on_c, 0, 56, 51
2, 4500, Note_on_c, 0, 60, 51
2, 4500, Note_on_c, 0, 50, 62
2, 4680, Note_on_c, 0, 60, 0
2, 4680, Note_on_c, 0, 56, 0
2, 4680, Note_on_c, 0, 66, 0
2, 4680, Note_on_c, 0, 66, 81
2, 4680, Note_on_c, 0, 56, 56
2, 4680, Note_on_c, 0, 60, 56
2, 4770, Note_on_c, 0, 68, 0
2, 4770, Note_on_c, 0, 66, 104
2, 4860, Note_on_c, 0, 66, 0
2, 4860, Note_on_c, 0, 60, 0
2, 4860, Note_on_c, 0, 50, 0
2, 4860, Note_on_c, 0, 66, 0
2, 4860, Note_on_c, 0, 56, 0
2, 4860, Note_on_c, 0, 68, 110
2, 4860, Note_on_c, 0, 66, 81
2, 4860, Note_on_c, 0, 56, 52
2, 4860, Note_on_c, 0, 59, 52
2, 4860, Note_on_c, 0, 49, 65
2, 5040, Note_on_c, 0, 59, 0
2, 5040, Note_on_c, 0, 56, 0
2, 5040, Note_on_c, 0, 66, 0
2, 5040, Note_on_c, 0, 66, 75
2, 5040, Note_on_c, 0, 56, 52
2, 5040, Note_on_c, 0, 59, 52
2, 5130, Note_on_c, 0, 68, 0
2, 5130, Note_on_c, 0, 69, 114
2, 5220, Note_on_c, 0, 69, 0
2, 5220, Note_on_c, 0, 59, 0
2, 5220, Note_on_c, 0, 56, 0
2, 5220, Note_on_c, 0, 66, 0
2, 5220, Note_on_c, 0, 68, 102
2, 5220, Note_on_c, 0, 65, 74
2, 5220, Note_on_c, 0, 56, 53
2, 5220, Note_on_c, 0, 59, 53
2, 5400, Note_on_c, 0, 59, 0
2, 5400, Note_on_c, 0, 65, 0
2, 5400, Note_on_c, 0, 56, 0
2, 5400, Note_on_c, 0, 65, 80
2, 5400, Note_on_c, 0, 56, 57
2, 5400, Note_on_c, 0, 59, 57
2, 5580, Note_on_c, 0, 59, 0
2, 5580, Note_on_c, 0, 65, 0
2, 5580, Note_on_c, 0, 56, 0
2, 5580, Note_on_c, 0, 57, 60
2, 5580, Note_on_c, 0, 61, 60
2, 5580, Note_on_c, 0, 64, 60
2, 5580, Note_on_c, 0, 42, 64
2, 5670, Note_on_c, 0, 68, 0
2, 5670, Note_on_c, 0, 69, 108
2, 5760, Note_on_c, 0, 69, 0
2, 5760, Note_on_c, 0, 57, 0
2, 5760, Note_on_c, 0, 61, 0
2, 5760, Note_on_c, 0, 64, 0
2, 5760, Note_on_c, 0, 73, 108
2, 5760, Note_on_c, 0, 57, 58
2, 5760, Note_on_c, 0, 61, 58
2, 5760, Note_on_c, 0, 64, 58
2, 5850, Note_on_c, 0, 73, 0
2, 5850, Note_on_c, 0, 76, 118
2, 5940, Note_on_c, 0, 76, 0
2, 5940, Note_on_c, 0, 64, 0
2, 5940, Note_on_c, 0, 57, 0
2, 5940, Note_on_c, 0, 42, 0
2, 5940, Note_on_c, 0, 49, 0
2, 5940, Note_on_c, 0, 61, 0
2, 5940, Note_on_c, 0, 78, 119
2, 5940, Note_on_c, 0, 66, 65
2, 5940, Note_on_c, 0, 69, 65
2, 5940, Note_on_c, 0, 75, 65
2, 5940, Note_on_c, 0, 35, 61
2, 5940, Note_on_c, 0, 47, 61
2, 6120, Note_on_c, 0, 75, 0
2, 6120, Note_on_c, 0, 69, 0
2, 6120, Note_on_c, 0, 66, 0
2, 6120, Note_on_c, 0, 57, 43
2, 6120, Note_on_c, 0, 59, 43
2, 6120, Note_on_c, 0, 63, 43
2, 6210, Note_on_c, 0, 78, 0
2, 6210, Note_on_c, 0, 80, 111
2, 6300, Note_on_c, 0, 80, 0
2, 6300, Note_on_c, 0, 63, 0
2, 6300, Note_on_c, 0, 57, 0
2, 6300, Note_on_c, 0, 47, 0
2, 6300, Note_on_c, 0, 35, 0
2, 6300, Note_on_c, 0, 59, 0
2, 6300, Note_on_c, 0, 76, 91
2, 6300, Note_on_c, 0, 64, 64
2, 6300, Note_on_c, 0, 68, 64
2, 6300, Note_on_c, 0, 73, 64
2, 6300, Note_on_c, 0, 37, 66
2, 6300, Note_on_c, 0, 49, 66
2, 6480, Note_on_c, 0, 73, 0
2, 6480, Note_on_c, 0, 68, 0
2, 6480, Note_on_c, 0, 64, 0
2, 6480, Note_on_c, 0, 56, 46
2, 6480, Note_on_c, 0, 61, 46
2, 6480, Note_on_c, 0, 64, 46
2, 6660, Note_on_c, 0, 64, 0
2, 6660, Note_on_c, 0, 37, 0
2, 6660, Note_on_c, 0, 49, 0
2, 6660, Note_on_c, 0, 56, 0
2, 6660, Note_on_c, 0, 61, 0
2, 6660, Note_on_c, 0, 64, 74
2, 6660, Note_on_c, 0, 66, 74
2, 6660, Note_on_c, 0, 57, 46
2, 6660, Note_on_c, 0, 42, 62
2, 6840, Note_on_c, 0, 66, 0
2, 6840, Note_on_c, 0, 76, 0
2, 6840, Note_on_c, 0, 64, 0
2, 6840, Note_on_c, 0, 74, 103
2, 6840, Note_on_c, 0, 62, 77
2, 6840, Note_on_c, 0, 66, 77
2, 6840, Note_on_c, 0, 54, 88
2, 6998, Note_on_c, 0, 54, 0
2, 7020, Note_on_c, 0, 57, 0
2, 7020, Note_on_c, 0, 74, 0
2, 7020, Note_on_c, 0, 42, 0
2, 7020, Note_on_c, 0, 66, 0
2, 7020, Note_on_c, 0, 62, 0
2, 7020, Note_on_c, 0, 73, 100
2, 7020, Note_on_c, 0, 61, 82
2, 7020, Note_on_c, 0, 68, 82
2, 7020, Note_on_c, 0, 44, 65
2, 7020, Note_on_c, 0, 52, 88
2, 7200, Note_on_c, 0, 68, 0
2, 7200, Note_on_c, 0, 61, 0
2, 7200, Note_on_c, 0, 61, 85
2, 7200, Note_on_c, 0, 68, 85
2, 7200, Note_on_c, 0, 56, 49
2, 7337, Note_on_c, 0, 52, 0
2, 7380, Note_on_c, 0, 68, 0
2, 7380, Note_on_c, 0, 61, 0
2, 7380, Note_on_c, 0, 60, 76
2, 7380, Note_on_c, 0, 66, 76
2, 7380, Note_on_c, 0, 51, 90
2, 7403, Note_on_c, 0, 73, 0
2, 7403, Note_on_c, 0, 72, 78
2, 7425, Note_on_c, 0, 72, 0
2, 7425, Note_on_c, 0, 73, 86
2, 7448, Note_on_c, 0, 73, 0
2, 7448, Note_on_c, 0, 72, 74
2, 7470, Note_on_c, 0, 72, 0
2, 7470, Note_on_c, 0, 73, 86
2, 7493, Note_on_c, 0, 73, 0
2, 7493, Note_on_c, 0, 72, 80
2, 7515, Note_on_c, 0, 72, 0
2, 7515, Note_on_c, 0, 73, 83
2, 7538, Note_on_c, 0, 73, 0
2, 7538, Note_on_c, 0, 72, 77
2, 7560, Note_on_c, 0, 72, 0
2, 7560, Note_on_c, 0, 56, 0
2, 7560, Note_on_c, 0, 60, 0
2, 7560, Note_on_c, 0, 66, 0
2, 7560, Note_on_c, 0, 73, 83
2, 7560, Note_on_c, 0, 56, 65
2, 7560, Note_on_c, 0, 60, 65
2, 7560, Note_on_c, 0, 66, 65
2, 7583, Note_on_c, 0, 73, 0
2, 7583, Note_on_c, 0, 72, 79
2, 7605, Note_on_c, 0, 72, 0
2, 7605, Note_on_c, 0, 73, 82
2, 7628, Note_on_c, 0, 73, 0
2, 7628, Note_on_c, 0, 72, 80
2, 7650, Note_on_c, 0, 72, 0
2, 7650, Note_on_c, 0, 73, 85
2, 7673, Note_on_c, 0, 73, 0
2, 7673, Note_on_c, 0, 72, 77
2, 7695, Note_on_c, 0, 72, 0
2, 7695, Note_on_c, 0, 70, 78
2, 7697, Note_on_c, 0, 51, 0
2, 7718, Note_on_c, 0, 70, 0
2, 7718, Note_on_c, 0, 72, 86
2, 7740, Note_on_c, 0, 72, 0
2, 7740, Note_on_c, 0, 60, 0
2, 7740, Note_on_c, 0, 44, 0
2, 7740, Note_on_c, 0, 66, 0
2, 7740, Note_on_c, 0, 56, 0
2, 7740, Note_on_c, 0, 73, 112
2, 7740, Note_on_c, 0, 61, 70
2, 7740, Note_on_c, 0, 64, 70
2, 7740, Note_on_c, 0, 37, 72
2, 7740, Note_on_c, 0, 49, 72
2, 7920, Note_on_c, 0, 64, 0
2, 7920, Note_on_c, 0, 61, 0
2, 7920, Note_on_c, 0, 56, 81
2, 7920, Note_on_c, 0, 61, 81
2, 7920, Note_on_c, 0, 64, 81
2, 8100, Note_on_c, 0, 64, 0
2, 8100, Note_on_c, 0, 56, 0
2, 8100, Note_on_c, 0, 61, 0
2, 8100, Note_on_c, 0, 56, 81
2, 8100, Note_on_c, 0, 61, 81
2, 8100, Note_on_c, 0, 64, 81
2, 8280, Note_on_c, 0, 64, 0
2, 8280, Note_on_c, 0, 56, 0
2, 8280, Note_on_c, 0, 61, 0
2, 8280, Note_on_c, 0, 64, 91
2, 8280, Note_on_c, 0, 68, 91
2, 8280, Note_on_c, 0, 61, 51
2, 8370, Note_on_c, 0, 61, 0
2, 8370, Note_on_c, 0, 59, 51
2, 8460, Note_on_c, 0, 59, 0
2, 8460, Note_on_c, 0, 68, 0
2, 8460, Note_on_c, 0, 37, 0
2, 8460, Note_on_c, 0, 73, 0
2, 8460, Note_on_c, 0, 49, 0
2, 8460, Note_on_c, 0, 64, 0
2, 8460, Note_on_c, 0, 61, 60
2, 8640, Note_on_c, 0, 61, 0
2, 8640, Note_on_c, 0, 73, 98
2, 8640, Note_on_c, 0, 64, 78
2, 8640, Note_on_c, 0, 68, 78
2, 8640, Note_on_c, 0, 59, 52
2, 8730, Note_on_c, 0, 59, 0
2, 8730, Note_on_c, 0, 58, 50
2, 8820, Note_on_c, 0, 58, 0
2, 8820, Note_on_c, 0, 68, 0
2, 8820, Note_on_c, 0, 64, 0
2, 8820, Note_on_c, 0, 61, 81
2, 8820, Note_on_c, 0, 64, 81
2, 8820, Note_on_c, 0, 68, 81
2, 8820, Note_on_c, 0, 59, 55
2, 9000, Note_on_c, 0, 59, 0
2, 9000, Note_on_c, 0, 73, 0
2, 9000, Note_on_c, 0, 64, 0
2, 9000, Note_on_c, 0, 61, 0
2, 9000, Note_on_c, 0, 71, 102
2, 9000, Note_on_c, 0, 61, 77
2, 9000, Note_on_c, 0, 64, 77
2, 9000, Note_on_c, 0, 55, 52
2, 9090, Note_on_c, 0, 55, 0
2, 9090, Note_on_c, 0, 56, 59
2, 9180, Note_on_c, 0, 56, 0
2, 9180, Note_on_c, 0, 64, 0
2, 9180, Note_on_c, 0, 68, 0
2, 9180, Note_on_c, 0, 71, 0
2, 9180, Note_on_c, 0, 61, 0
2, 9180, Note_on_c, 0, 70, 107
2, 9180, Note_on_c, 0, 58, 73
2, 9180, Note_on_c, 0, 37, 62
2, 9180, Note_on_c, 0, 49, 62
2, 9360, Note_on_c, 0, 61, 69
2, 9360, Note_on_c, 0, 64, 69
2, 9360, Note_on_c, 0, 68, 69
2, 9540, Note_on_c, 0, 68, 0
2, 9540, Note_on_c, 0, 61, 0
2, 9540, Note_on_c, 0, 64, 0
2, 9540, Note_on_c, 0, 61, 80
2, 9540, Note_on_c, 0, 64, 80
2, 9540, Note_on_c, 0, 68, 80
2, 9720, Note_on_c, 0, 68, 0
2, 9720, Note_on_c, 0, 61, 0
2, 9720, Note_on_c, 0, 58, 0
2, 9720, Note_on_c, 0, 64, 0
2, 9720, Note_on_c, 0, 58, 94
2, 9720, Note_on_c, 0, 64, 94
2, 9720, Note_on_c, 0, 70, 80
2, 9810, Note_on_c, 0, 70, 0
2, 9810, Note_on_c, 0, 68, 75
2, 9900, Note_on_c, 0, 68, 0
2, 9900, Note_on_c, 0, 37, 0
2, 9900, Note_on_c, 0, 58, 0
2, 9900, Note_on_c, 0, 49, 0
2, 9900, Note_on_c, 0, 64, 0
2, 9900, Note_on_c, 0, 58, 88
2, 9900, Note_on_c, 0, 64, 88
2, 9900, Note_on_c, 0, 70, 83
2, 9900, Note_on_c, 0, 49, 65
2, 10080, Note_on_c, 0, 70, 0
2, 10080, Note_on_c, 0, 64, 0
2, 10080, Note_on_c, 0, 70, 0
2, 10080, Note_on_c, 0, 58, 0
2, 10080, Note_on_c, 0, 70, 108
2, 10080, Note_on_c, 0, 58, 80
2, 10080, Note_on_c, 0, 64, 80
2, 10080, Note_on_c, 0, 68, 78
2, 10170, Note_on_c, 0, 68, 0
2, 10170, Note_on_c, 0, 67, 76
2, 10260, Note_on_c, 0, 67, 0
2, 10260, Note_on_c, 0, 64, 0
2, 10260, Note_on_c, 0, 49, 0
2, 10260, Note_on_c, 0, 70, 0
2, 10260, Note_on_c, 0, 58, 0
2, 10260, Note_on_c, 0, 71, 109
2, 10260, Note_on_c, 0, 58, 81
2, 10260, Note_on_c, 0, 63, 81
2, 10260, Note_on_c, 0, 68, 83
2, 10260, Note_on_c, 0, 51, 69
2, 10440, Note_on_c, 0, 51, 0
2, 10440, Note_on_c, 0, 63, 0
2, 10440, Note_on_c, 0, 71, 0
2, 10440, Note_on_c, 0, 58, 0
2, 10440, Note_on_c, 0, 68, 0
2, 10440, Note_on_c, 0, 73, 111
2, 10440, Note_on_c, 0, 58, 75
2, 10440, Note_on_c, 0, 61, 75
2, 10440, Note_on_c, 0, 67, 79
2, 10440, Note_on_c, 0, 52, 67
2, 10530, Note_on_c, 0, 67, 0
2, 10530, Note_on_c, 0, 66, 75
2, 10620, Note_on_c, 0, 66, 0
2, 10620, Note_on_c, 0, 52, 0
2, 10620, Note_on_c, 0, 73, 0
2, 10620, Note_on_c, 0, 58, 0
2, 10620, Note_on_c, 0, 61, 0
2, 10620, Note_on_c, 0, 73, 104
2, 10620, Note_on_c, 0, 59, 83
2, 10620, Note_on_c, 0, 63, 83
2, 10620, Note_on_c, 0, 67, 79
2, 10620, Note_on_c, 0, 58, 51
2, 10620, Note_on_c, 0, 44, 58
2, 10620, Note_on_c, 0, 51, 77
2, 10800, Note_on_c, 0, 58, 0
2, 10800, Note_on_c, 0, 63, 0
2, 10800, Note_on_c, 0, 73, 0
2, 10800, Note_on_c, 0, 59, 0
2, 10800, Note_on_c, 0, 71, 96
2, 10800, Note_on_c, 0, 59, 86
2, 10800, Note_on_c, 0, 63, 86
2, 10800, Note_on_c, 0, 58, 58
2, 10890, Note_on_c, 0, 71, 0
2, 10890, Note_on_c, 0, 73, 110
2, 10980, Note_on_c, 0, 73, 0
2, 10980, Note_on_c, 0, 58, 0
2, 10980, Note_on_c, 0, 59, 0
2, 10980, Note_on_c, 0, 67, 0
2, 10980, Note_on_c, 0, 63, 0
2, 10980, Note_on_c, 0, 75, 112
2, 10980, Note_on_c, 0, 63, 79
2, 10980, Note_on_c, 0, 68, 88
2, 10980, Note_on_c, 0, 59, 62
2, 11160, Note_on_c, 0, 59, 0
2, 11160, Note_on_c, 0, 51, 0
2, 11160, Note_on_c, 0, 63, 0
2, 11160, Note_on_c, 0, 63, 82
2, 11160, Note_on_c, 0, 59, 54
2, 11160, Note_on_c, 0, 56, 86
2, 11250, Note_on_c, 0, 56, 0
2, 11250, Note_on_c, 0, 54, 79
2, 11340, Note_on_c, 0, 54, 0
2, 11340, Note_on_c, 0, 59, 0
2, 11340, Note_on_c, 0, 63, 0
2, 11340, Note_on_c, 0, 63, 78
2, 11340, Note_on_c, 0, 59, 56
2, 11340, Note_on_c, 0, 56, 84
2, 11520, Note_on_c, 0, 56, 0
2, 11520, Note_on_c, 0, 44, 0
2, 11520, Note_on_c, 0, 75, 0
2, 11520, Note_on_c, 0, 63, 0
2, 11520, Note_on_c, 0, 59, 0
2, 11520, Note_on_c, 0, 68, 91
2, 11520, Note_on_c, 0, 63, 79
2, 11520, Note_on_c, 0, 59, 56
2, 11520, Note_on_c, 0, 54, 77
2, 11610, Note_on_c, 0, 54, 0
2, 11610, Note_on_c, 0, 68, 0
2, 11610, Note_on_c, 0, 70, 107
2, 11610, Note_on_c, 0, 53, 75
2, 11700, Note_on_c, 0, 53, 0
2, 11700, Note_on_c, 0, 59, 0
2, 11700, Note_on_c, 0, 70, 0
2, 11700, Note_on_c, 0, 63, 0
2, 11700, Note_on_c, 0, 71, 107
2, 11700, Note_on_c, 0, 63, 83
2, 11700, Note_on_c, 0, 59, 56
2, 11700, Note_on_c, 0, 54, 78
2, 11880, Note_on_c, 0, 54, 0
2, 11880, Note_on_c, 0, 63, 0
2, 11880, Note_on_c, 0, 59, 0
2, 11880, Note_on_c, 0, 71, 0
2, 11880, Note_on_c, 0, 73, 114
2, 11880, Note_on_c, 0, 63, 80
2, 11880, Note_on_c, 0, 59, 56
2, 11880, Note_on_c, 0, 53, 82
2, 11970, Note_on_c, 0, 53, 0
2, 11970, Note_on_c, 0, 73, 0
2, 11970, Note_on_c, 0, 75, 110
2, 11970, Note_on_c, 0, 51, 77
2, 12060, Note_on_c, 0, 51, 0
2, 12060, Note_on_c, 0, 68, 0
2, 12060, Note_on_c, 0, 59, 0
2, 12060, Note_on_c, 0, 63, 0
2, 12060, Note_on_c, 0, 75, 0
2, 12060, Note_on_c, 0, 77, 113
2, 12060, Note_on_c, 0, 65, 83
2, 12060, Note_on_c, 0, 59, 57
2, 12060, Note_on_c, 0, 44, 63
2, 12060, Note_on_c, 0, 50, 79
2, 12240, Note_on_c, 0, 59, 0
2, 12240, Note_on_c, 0, 65, 0
2, 12240, Note_on_c, 0, 65, 87
2, 12240, Note_on_c, 0, 59, 51
2, 12420, Note_on_c, 0, 59, 0
2, 12420, Note_on_c, 0, 65, 0
2, 12420, Note_on_c, 0, 65, 84
2, 12420, Note_on_c, 0, 59, 56
2, 12600, Note_on_c, 0, 59, 0
2, 12600, Note_on_c, 0, 65, 0
2, 12600, Note_on_c, 0, 65, 87
2, 12600, Note_on_c, 0, 68, 71
2, 12600, Note_on_c, 0, 59, 57
2, 12690, Note_on_c, 0, 68, 0
2, 12690, Note_on_c, 0, 66, 78
2, 12780, Note_on_c, 0, 66, 0
2, 12780, Note_on_c, 0, 59, 0
2, 12780, Note_on_c, 0, 65, 0
2, 12780, Note_on_c, 0, 65, 81
2, 12780, Note_on_c, 0, 68, 88
2, 12780, Note_on_c, 0, 59, 57
2, 12960, Note_on_c, 0, 59, 0
2, 12960, Note_on_c, 0, 50, 0
2, 12960, Note_on_c, 0, 77, 0
2, 12960, Note_on_c, 0, 65, 0
2, 12960, Note_on_c, 0, 68, 0
2, 12960, Note_on_c, 0, 74, 81
2, 12960, Note_on_c, 0, 66, 75
2, 12960, Note_on_c, 0, 59, 58
2, 12960, Note_on_c, 0, 51, 77
2, 13050, Note_on_c, 0, 66, 0
2, 13050, Note_on_c, 0, 65, 73
2, 13140, Note_on_c, 0, 65, 0
2, 13140, Note_on_c, 0, 59, 0
2, 13140, Note_on_c, 0, 74, 0
2, 13140, Note_on_c, 0, 75, 89
2, 13140, Note_on_c, 0, 66, 81
2, 13140, Note_on_c, 0, 59, 57
2, 13320, Note_on_c, 0, 59, 0
2, 13320, Note_on_c, 0, 75, 0
2, 13320, Note_on_c, 0, 66, 0
2, 13320, Note_on_c, 0, 51, 0
2, 13320, Note_on_c, 0, 77, 98
2, 13320, Note_on_c, 0, 65, 76
2, 13320, Note_on_c, 0, 59, 54
2, 13320, Note_on_c, 0, 53, 99
2, 13320, Note_on_c, 0, 62, 99
2, 13410, Note_on_c, 0, 62, 0
2, 13410, Note_on_c, 0, 65, 0
2, 13410, Note_on_c, 0, 53, 0
2, 13410, Note_on_c, 0, 66, 83
2, 13410, Note_on_c, 0, 51, 83
2, 13410, Note_on_c, 0, 63, 83
2, 13500, Note_on_c, 0, 63, 0
2, 13500, Note_on_c, 0, 59, 0
2, 13500, Note_on_c, 0, 44, 0
2, 13500, Note_on_c, 0, 77, 0
2, 13500, Note_on_c, 0, 51, 0
2, 13500, Note_on_c, 0, 66, 0
2, 13500, Note_on_c, 0, 77, 106
2, 13500, Note_on_c, 0, 65, 84
2, 13500, Note_on_c, 0, 68, 84
2, 13500, Note_on_c, 0, 58, 54
2, 13500, Note_on_c, 0, 42, 61
2, 13500, Note_on_c, 0, 50, 74
2, 13680, Note_on_c, 0, 58, 0
2, 13680, Note_on_c, 0, 65, 0
2, 13680, Note_on_c, 0, 77, 0
2, 13680, Note_on_c, 0, 75, 106
2, 13680, Note_on_c, 0, 65, 107
2, 13680, Note_on_c, 0, 58, 57
2, 13770, Note_on_c, 0, 75, 0
2, 13770, Note_on_c, 0, 77, 102
2, 13860, Note_on_c, 0, 77, 0
2, 13860, Note_on_c, 0, 58, 0
2, 13860, Note_on_c, 0, 68, 0
2, 13860, Note_on_c, 0, 65, 0
2, 13860, Note_on_c, 0, 50, 0
2, 13860, Note_on_c, 0, 78, 98
2, 13860, Note_on_c, 0, 66, 111
2, 13860, Note_on_c, 0, 58, 63
2, 13860, Note_on_c, 0, 63, 63
2, 13860, Note_on_c, 0, 51, 79
2, 14040, Note_on_c, 0, 51, 0
2, 14040, Note_on_c, 0, 42, 0
2, 14040, Note_on_c, 0, 66, 0
2, 14040, Note_on_c, 0, 58, 0
2, 14040, Note_on_c, 0, 63, 0
2, 14040, Note_on_c, 0, 63, 107
2, 14040, Note_on_c, 0, 66, 107
2, 14040, Note_on_c, 0, 58, 56
2, 14130, Note_on_c, 0, 58, 0
2, 14130, Note_on_c, 0, 57, 54
2, 14220, Note_on_c, 0, 57, 0
2, 14220, Note_on_c, 0, 66, 0
2, 14220, Note_on_c, 0, 63, 0
2, 14220, Note_on_c, 0, 63, 104
2, 14220, Note_on_c, 0, 66, 104
2, 14220, Note_on_c, 0, 58, 94
2, 14400, Note_on_c, 0, 66, 0
2, 14400, Note_on_c, 0, 78, 0
2, 14400, Note_on_c, 0, 63, 0
2, 14400, Note_on_c, 0, 77, 100
2, 14400, Note_on_c, 0, 63, 80
2, 14400, Note_on_c, 0, 66, 80
2, 14580, Note_on_c, 0, 66, 0
2, 14580, Note_on_c, 0, 63, 0
2, 14580, Note_on_c, 0, 77, 0
2, 14580, Note_on_c, 0, 75, 99
2, 14580, Note_on_c, 0, 63, 82
2, 14580, Note_on_c, 0, 66, 82
2, 14760, Note_on_c, 0, 66, 0
2, 14760, Note_on_c, 0, 63, 0
2, 14760, Note_on_c, 0, 75, 0
2, 14760, Note_on_c, 0, 73, 99
2, 14760, Note_on_c, 0, 61, 75
2, 14760, Note_on_c, 0, 65, 75
2, 14940, Note_on_c, 0, 65, 0
2, 14940, Note_on_c, 0, 58, 0
2, 14940, Note_on_c, 0, 73, 0
2, 14940, Note_on_c, 0, 61, 0
2, 14940, Note_on_c, 0, 61, 66
2, 14940, Note_on_c, 0, 63, 66
2, 14940, Note_on_c, 0, 57, 63
2, 14940, Note_on_c, 0, 75, 76
2, 15120, Note_on_c, 0, 57, 0
2, 15120, Note_on_c, 0, 61, 0
2, 15120, Note_on_c, 0, 63, 0
2, 15120, Note_on_c, 0, 61, 75
2, 15120, Note_on_c, 0, 63, 75
2, 15120, Note_on_c, 0, 57, 64
2, 15210, Note_on_c, 0, 57, 0
2, 15210, Note_on_c, 0, 56, 65
2, 15300, Note_on_c, 0, 56, 0
2, 15300, Note_on_c, 0, 63, 0
2, 15300, Note_on_c, 0, 61, 0
2, 15300, Note_on_c, 0, 61, 81
2, 15300, Note_on_c, 0, 63, 81
2, 15300, Note_on_c, 0, 57, 77
2, 15300, Note_on_c, 0, 30, 69
2, 15300, Note_on_c, 0, 42, 69
2, 15480, Note_on_c, 0, 63, 0
2, 15480, Note_on_c, 0, 75, 0
2, 15480, Note_on_c, 0, 61, 0
2, 15480, Note_on_c, 0, 61, 82
2, 15480, Note_on_c, 0, 63, 82
2, 15480, Note_on_c, 0, 73, 76
2, 15570, Note_on_c, 0, 73, 0
2, 15570, Note_on_c, 0, 72, 80
2, 15660, Note_on_c, 0, 72, 0
2, 15660, Note_on_c, 0, 63, 0
2, 15660, Note_on_c, 0, 61, 0
2, 15660, Note_on_c, 0, 61, 82
2, 15660, Note_on_c, 0, 63, 82
2, 15660, Note_on_c, 0, 73, 82
2, 15840, Note_on_c, 0, 63, 0
2, 15840, Note_on_c, 0, 61, 0
2, 15840, Note_on_c, 0, 57, 0
2, 15840, Note_on_c, 0, 61, 82
2, 15840, Note_on_c, 0, 63, 82
2, 15840, Note_on_c, 0, 56, 62
2, 15930, Note_on_c, 0, 56, 0
2, 15930, Note_on_c, 0, 55, 66
2, 15933, Note_on_c, 0, 30, 0
2, 15933, Note_on_c, 0, 42, 0
2, 16020, Note_on_c, 0, 61, 0
2, 16020, Note_on_c, 0, 63, 0
2, 16020, Note_on_c, 0, 55, 0
2, 16020, Note_on_c, 0, 61, 85
2, 16020, Note_on_c, 0, 63, 85
2, 16020, Note_on_c, 0, 56, 78
2, 16020, Note_on_c, 0, 29, 76
2, 16020, Note_on_c, 0, 41, 76
2, 16200, Note_on_c, 0, 63, 0
2, 16200, Note_on_c, 0, 73, 0
2, 16200, Note_on_c, 0, 61, 0
2, 16200, Note_on_c, 0, 68, 81
2, 16200, Note_on_c, 0, 61, 47
2, 16200, Note_on_c, 0, 63, 47
2, 16290, Note_on_c, 0, 68, 0
2, 16290, Note_on_c, 0, 70, 86
2, 16337, Note_on_c, 0, 56, 0
2, 16337, Note_on_c, 0, 41, 0
2, 16337, Note_on_c, 0, 29, 0
2, 16380, Note_on_c, 0, 63, 0
2, 16380, Note_on_c, 0, 61, 0
2, 16380, Note_on_c, 0, 70, 0
2, 16380, Note_on_c, 0, 72, 91
2, 16380, Note_on_c, 0, 60, 90
2, 16380, Note_on_c, 0, 63, 90
2, 16380, Note_on_c, 0, 28, 67
2, 16380, Note_on_c, 0, 40, 67
2, 16560, Note_on_c, 0, 63, 0
2, 16560, Note_on_c, 0, 72, 0
2, 16560, Note_on_c, 0, 60, 0
2, 16560, Note_on_c, 0, 73, 101
2, 16560, Note_on_c, 0, 56, 78
2, 16560, Note_on_c, 0, 60, 78
2, 16560, Note_on_c, 0, 63, 78
2, 16650, Note_on_c, 0, 73, 0
2, 16650, Note_on_c, 0, 75, 106
2, 16740, Note_on_c, 0, 75, 0
2, 16740, Note_on_c, 0, 63, 0
2, 16740, Note_on_c, 0, 56, 0
2, 16740, Note_on_c, 0, 60, 0
2, 16740, Note_on_c, 0, 64, 127
2, 16740, Note_on_c, 0, 76, 127
2, 16740, Note_on_c, 0, 56, 90
2, 16740, Note_on_c, 0, 61, 90
2, 16920, Note_on_c, 0, 61, 0
2, 16920, Note_on_c, 0, 56, 0
2, 16920, Note_on_c, 0, 61, 89
2, 16920, Note_on_c, 0, 56, 102
2, 16920, Note_on_c, 0, 44, 53
2, 17010, Note_on_c, 0, 44, 0
2, 17010, Note_on_c, 0, 56, 0
2, 17010, Note_on_c, 0, 58, 107
2, 17010, Note_on_c, 0, 46, 56
2, 17100, Note_on_c, 0, 46, 0
2, 17100, Note_on_c, 0, 40, 0
2, 17100, Note_on_c, 0, 61, 0
2, 17100, Note_on_c, 0, 64, 0
2, 17100, Note_on_c, 0, 28, 0
2, 17100, Note_on_c, 0, 58, 0
2, 17100, Note_on_c, 0, 59, 122
2, 17100, Note_on_c, 0, 47, 58
2, 17100, Note_on_c, 0, 40, 68
2, 17280, Note_on_c, 0, 76, 0
2, 17280, Note_on_c, 0, 75, 94
2, 17280, Note_on_c, 0, 56, 81
2, 17280, Note_on_c, 0, 61, 81
2, 17460, Note_on_c, 0, 61, 0
2, 17460, Note_on_c, 0, 75, 0
2, 17460, Note_on_c, 0, 56, 0
2, 17460, Note_on_c, 0, 73, 85
2, 17460, Note_on_c, 0, 56, 90
2, 17460, Note_on_c, 0, 61, 90
2, 17640, Note_on_c, 0, 61, 0
2, 17640, Note_on_c, 0, 73, 0
2, 17640, Note_on_c, 0, 40, 0
2, 17640, Note_on_c, 0, 56, 0
2, 17640, Note_on_c, 0, 71, 77
2, 17640, Note_on_c, 0, 59, 92
2, 17640, Note_on_c, 0, 61, 92
2, 17640, Note_on_c, 0, 42, 67
2, 17640, Note_on_c, 0, 54, 87
2, 17733, Note_on_c, 0, 59, 0
2, 17820, Note_on_c, 0, 42, 0
2, 17820, Note_on_c, 0, 71, 0
2, 17820, Note_on_c, 0, 59, 0
2, 17820, Note_on_c, 0, 47, 0
2, 17820, Note_on_c, 0, 54, 0
2, 17820, Note_on_c, 0, 61, 0
2, 17820, Note_on_c, 0, 71, 99
2, 17820, Note_on_c, 0, 59, 66
2, 17820, Note_on_c, 0, 61, 66
2, 17820, Note_on_c, 0, 52, 57
2, 17820, Note_on_c, 0, 44, 66
2, 17820, Note_on_c, 0, 47, 74
2, 18000, Note_on_c, 0, 44, 0
2, 18000, Note_on_c, 0, 52, 0
2, 18000, Note_on_c, 0, 61, 0
2, 18000, Note_on_c, 0, 71, 0
2, 18000, Note_on_c, 0, 59, 0
2, 18000, Note_on_c, 0, 70, 100
2, 18000, Note_on_c, 0, 59, 65
2, 18000, Note_on_c, 0, 61, 65
2, 18000, Note_on_c, 0, 54, 57
2, 18000, Note_on_c, 0, 42, 63
2, 18090, Note_on_c, 0, 70, 0
2, 18090, Note_on_c, 0, 71, 103
2, 18180, Note_on_c, 0, 71, 0
2, 18180, Note_on_c, 0, 42, 0
2, 18180, Note_on_c, 0, 61, 0
2, 18180, Note_on_c, 0, 47, 0
2, 18180, Note_on_c, 0, 59, 0
2, 18180, Note_on_c, 0, 54, 0
2, 18180, Note_on_c, 0, 73, 106
2, 18180, Note_on_c, 0, 61, 75
2, 18180, Note_on_c, 0, 68, 75
2, 18180, Note_on_c, 0, 28, 62
2, 18180, Note_on_c, 0, 40, 62
2, 18360, Note_on_c, 0, 68, 0
2, 18360, Note_on_c, 0, 61, 0
2, 18360, Note_on_c, 0, 61, 56
2, 18360, Note_on_c, 0, 59, 49
2, 18360, Note_on_c, 0, 55, 75
2, 18450, Note_on_c, 0, 55, 0
2, 18450, Note_on_c, 0, 54, 77
2, 18540, Note_on_c, 0, 54, 0
2, 18540, Note_on_c, 0, 59, 0
2, 18540, Note_on_c, 0, 61, 0
2, 18540, Note_on_c, 0, 61, 63
2, 18540, Note_on_c, 0, 59, 52
2, 18540, Note_on_c, 0, 55, 95
2, 18720, Note_on_c, 0, 59, 0
2, 18720, Note_on_c, 0, 61, 0
2, 18720, Note_on_c, 0, 73, 0
2, 18720, Note_on_c, 0, 71, 97
2, 18720, Note_on_c, 0, 61, 65
2, 18720, Note_on_c, 0, 59, 58
2, 18810, Note_on_c, 0, 71, 0
2, 18810, Note_on_c, 0, 70, 102
2, 18900, Note_on_c, 0, 70, 0
2, 18900, Note_on_c, 0, 59, 0
2, 18900, Note_on_c, 0, 28, 0
2, 18900, Note_on_c, 0, 61, 0
2, 18900, Note_on_c, 0, 40, 0
2, 18900, Note_on_c, 0, 71, 105
2, 18900, Note_on_c, 0, 59, 62
2, 18900, Note_on_c, 0, 61, 62
2, 18900, Note_on_c, 0, 27, 65
2, 18900, Note_on_c, 0, 39, 65
2, 19014, Note_on_c, 0, 55, 0
2, 19080, Note_on_c, 0, 61, 0
2, 19080, Note_on_c, 0, 71, 0
2, 19080, Note_on_c, 0, 59, 0
2, 19080, Note_on_c, 0, 66, 77
2, 19080, Note_on_c, 0, 61, 63
2, 19080, Note_on_c, 0, 58, 54
2, 19080, Note_on_c, 0, 54, 81
2, 19170, Note_on_c, 0, 54, 0
2, 19170, Note_on_c, 0, 66, 0
2, 19170, Note_on_c, 0, 68, 82
2, 19170, Note_on_c, 0, 53, 81
2, 19260, Note_on_c, 0, 53, 0
2, 19260, Note_on_c, 0, 39, 0
2, 19260, Note_on_c, 0, 58, 0
2, 19260, Note_on_c, 0, 27, 0
2, 19260, Note_on_c, 0, 68, 0
2, 19260, Note_on_c, 0, 61, 0
2, 19260, Note_on_c, 0, 70, 87
2, 19260, Note_on_c, 0, 58, 65
2, 19260, Note_on_c, 0, 61, 65
2, 19260, Note_on_c, 0, 26, 61
2, 19260, Note_on_c, 0, 38, 61
2, 19260, Note_on_c, 0, 54, 84
2, 19440, Note_on_c, 0, 61, 0
2, 19440, Note_on_c, 0, 70, 0
2, 19440, Note_on_c, 0, 58, 0
2, 19440, Note_on_c, 0, 71, 97
2, 19440, Note_on_c, 0, 54, 66
2, 19440, Note_on_c, 0, 58, 66
2, 19440, Note_on_c, 0, 61, 66
2, 19530, Note_on_c, 0, 71, 0
2, 19530, Note_on_c, 0, 73, 102
2, 19620, Note_on_c, 0, 73, 0
2, 19620, Note_on_c, 0, 61, 0
2, 19620, Note_on_c, 0, 54, 0
2, 19620, Note_on_c, 0, 54, 0
2, 19620, Note_on_c, 0, 58, 0
2, 19620, Note_on_c, 0, 62, 127
2, 19620, Note_on_c, 0, 74, 127
2, 19620, Note_on_c, 0, 54, 89
2, 19620, Note_on_c, 0, 59, 89
2, 19800, Note_on_c, 0, 59, 0
2, 19800, Note_on_c, 0, 54, 0
2, 19800, Note_on_c, 0, 59, 91
2, 19800, Note_on_c, 0, 54, 102
2, 19800, Note_on_c, 0, 42, 50
2, 19890, Note_on_c, 0, 42, 0
2, 19890, Note_on_c, 0, 54, 0
2, 19890, Note_on_c, 0, 56, 109
2, 19890, Note_on_c, 0, 44, 53
2, 19980, Note_on_c, 0, 44, 0
2, 19980, Note_on_c, 0, 38, 0
2, 19980, Note_on_c, 0, 59, 0
2, 19980, Note_on_c, 0, 26, 0
2, 19980, Note_on_c, 0, 56, 0
2, 19980, Note_on_c, 0, 57, 122
2, 19980, Note_on_c, 0, 45, 56
2, 19980, Note_on_c, 0, 38, 69
2, 20160, Note_on_c, 0, 74, 0
2, 20160, Note_on_c, 0, 73, 94
2, 20160, Note_on_c, 0, 54, 82
2, 20160, Note_on_c, 0, 59, 82
2, 20340, Note_on_c, 0, 59, 0
2, 20340, Note_on_c, 0, 73, 0
2, 20340, Note_on_c, 0, 54, 0
2, 20340, Note_on_c, 0, 71, 85
2, 20340, Note_on_c, 0, 54, 86
2, 20340, Note_on_c, 0, 59, 86
2, 20520, Note_on_c, 0, 59, 0
2, 20520, Note_on_c, 0, 71, 0
2, 20520, Note_on_c, 0, 54, 0
2, 20520, Note_on_c, 0, 69, 77
2, 20520, Note_on_c, 0, 59, 91
2, 20520, Note_on_c, 0, 54, 83
2, 20613, Note_on_c, 0, 57, 0
2, 20700, Note_on_c, 0, 59, 0
2, 20700, Note_on_c, 0, 45, 0
2, 20700, Note_on_c, 0, 38, 0
2, 20700, Note_on_c, 0, 69, 0
2, 20700, Note_on_c, 0, 54, 0
2, 20700, Note_on_c, 0, 68, 100
2, 20700, Note_on_c, 0, 56, 65
2, 20700, Note_on_c, 0, 59, 65
2, 20700, Note_on_c, 0, 53, 60
2, 20700, Note_on_c, 0, 38, 65
2, 20880, Note_on_c, 0, 53, 0
2, 20880, Note_on_c, 0, 59, 0
2, 20880, Note_on_c, 0, 56, 0
2, 20880, Note_on_c, 0, 56, 66
2, 20880, Note_on_c, 0, 59, 66
2, 20880, Note_on_c, 0, 53, 63
2, 21060, Note_on_c, 0, 53, 0
2, 21060, Note_on_c, 0, 56, 0
2, 21060, Note_on_c, 0, 38, 0
2, 21060, Note_on_c, 0, 59, 0
2, 21060, Note_on_c, 0, 56, 68
2, 21060, Note_on_c, 0, 59, 68
2, 21060, Note_on_c, 0, 52, 53
2, 21060, Note_on_c, 0, 37, 62
2, 21240, Note_on_c, 0, 52, 0
2, 21240, Note_on_c, 0, 59, 0
2, 21240, Note_on_c, 0, 56, 0
2, 21240, Note_on_c, 0, 56, 61
2, 21240, Note_on_c, 0, 59, 61
2, 21240, Note_on_c, 0, 52, 56
2, 21420, Note_on_c, 0, 52, 0
2, 21420, Note_on_c, 0, 37, 0
2, 21420, Note_on_c, 0, 68, 0
2, 21420, Note_on_c, 0, 56, 0
2, 21420, Note_on_c, 0, 59, 0
2, 21420, Note_on_c, 0, 67, 100
2, 21420, Note_on_c, 0, 58, 64
2, 21420, Note_on_c, 0, 52, 56
2, 21420, Note_on_c, 0, 55, 56
2, 21420, Note_on_c, 0, 49, 69
2, 21600, Note_on_c, 0, 49, 0
2, 21600, Note_on_c, 0, 58, 0
2, 21600, Note_on_c, 0, 59, 69
2, 21600, Note_on_c, 0, 47, 67
2, 21780, Note_on_c, 0, 47, 0
2, 21780, Note_on_c, 0, 59, 0
2, 21780, Note_on_c, 0, 61, 64
2, 21780, Note_on_c, 0, 46, 67
2, 21960, Note_on_c, 0, 46, 0
2, 21960, Note_on_c, 0, 67, 0
2, 21960, Note_on_c, 0, 52, 0
2, 21960, Note_on_c, 0, 55, 0
2, 21960, Note_on_c, 0, 61, 0
2, 21960, Note_on_c, 0, 61, 111
2, 21960, Note_on_c, 0, 73, 111
2, 21960, Note_on_c, 0, 63, 68
2, 21960, Note_on_c, 0, 55, 55
2, 21960, Note_on_c, 0, 45, 64
2, 22050, Note_on_c, 0, 63, 0
2, 22050, Note_on_c, 0, 64, 70
2, 22140, Note_on_c, 0, 64, 0
2, 22140, Note_on_c, 0, 45, 0
2, 22140, Note_on_c, 0, 73, 0
2, 22140, Note_on_c, 0, 55, 0
2, 22140, Note_on_c, 0, 61, 0
2, 22140, Note_on_c, 0, 66, 106
2, 22140, Note_on_c, 0, 60, 60
2, 22140, Note_on_c, 0, 54, 52
2, 22140, Note_on_c, 0, 44, 67
2, 22163, Note_on_c, 0, 75, 106
2, 22320, Note_on_c, 0, 44, 0
2, 22320, Note_on_c, 0, 54, 0
2, 22320, Note_on_c, 0, 60, 0
2, 22320, Note_on_c, 0, 64, 74
2, 22320, Note_on_c, 0, 57, 60
2, 22320, Note_on_c, 0, 49, 70
2, 22320, Note_on_c, 0, 52, 70
2, 22410, Note_on_c, 0, 57, 0
2, 22410, Note_on_c, 0, 64, 0
2, 22410, Note_on_c, 0, 66, 0
2, 22410, Note_on_c, 0, 75, 0
2, 22410, Note_on_c, 0, 67, 99
2, 22410, Note_on_c, 0, 73, 99
2, 22410, Note_on_c, 0, 58, 62
2, 22500, Note_on_c, 0, 58, 0
2, 22500, Note_on_c, 0, 52, 0
2, 22500, Note_on_c, 0, 49, 0
2, 22500, Note_on_c, 0, 67, 0
2, 22500, Note_on_c, 0, 73, 0
2, 22500, Note_on_c, 0, 68, 92
2, 22500, Note_on_c, 0, 71, 92
2, 22500, Note_on_c, 0, 65, 56
2, 22500, Note_on_c, 0, 59, 54
2, 22500, Note_on_c, 0, 50, 70
2, 22500, Note_on_c, 0, 53, 70
2, 22590, Note_on_c, 0, 71, 0
2, 22590, Note_on_c, 0, 68, 0
2, 22590, Note_on_c, 0, 73, 106
2, 22680, Note_on_c, 0, 73, 0
2, 22680, Note_on_c, 0, 53, 0
2, 22680, Note_on_c, 0, 65, 0
2, 22680, Note_on_c, 0, 59, 0
2, 22680, Note_on_c, 0, 50, 0
2, 22680, Note_on_c, 0, 67, 96
2, 22680, Note_on_c, 0, 70, 96
2, 22680, Note_on_c, 0, 63, 61
2, 22680, Note_on_c, 0, 61, 57
2, 22680, Note_on_c, 0, 51, 68
2, 22860, Note_on_c, 0, 51, 0
2, 22860, Note_on_c, 0, 67, 0
2, 22860, Note_on_c, 0, 70, 0
2, 22860, Note_on_c, 0, 63, 0
2, 22860, Note_on_c, 0, 61, 0
2, 22860, Note_on_c, 0, 59, 102
2, 22860, Note_on_c, 0, 63, 102
2, 22860, Note_on_c, 0, 68, 102
2, 22860, Note_on_c, 0, 56, 68
2, 23040, Note_on_c, 0, 56, 0
2, 23040, Note_on_c, 0, 56, 66
2, 23220, Note_on_c, 0, 56, 0
2, 23220, Note_on_c, 0, 56, 64
2, 23400, Note_on_c, 0, 56, 0
2, 23400, Note_on_c, 0, 63, 0
2, 23400, Note_on_c, 0, 68, 0
2, 23400, Note_on_c, 0, 59, 0
2, 23400, Note_on_c, 0, 76, 81
2, 23400, Note_on_c, 0, 80, 81
2, 23400, Note_on_c, 0, 72, 61
2, 23400, Note_on_c, 0, 68, 51
2, 23400, Note_on_c, 0, 56, 64
2, 23490, Note_on_c, 0, 68, 0
2, 23490, Note_on_c, 0, 80, 0
2, 23490, Note_on_c, 0, 76, 0
2, 23490, Note_on_c, 0, 75, 59
2, 23490, Note_on_c, 0, 78, 59
2, 23490, Note_on_c, 0, 66, 49
2, 23580, Note_on_c, 0, 66, 0
2, 23580, Note_on_c, 0, 75, 0
2, 23580, Note_on_c, 0, 72, 0
2, 23580, Note_on_c, 0, 78, 0
2, 23580, Note_on_c, 0, 76, 70
2, 23580, Note_on_c, 0, 80, 70
2, 23580, Note_on_c, 0, 71, 61
2, 23580, Note_on_c, 0, 64, 73
2, 23580, Note_on_c, 0, 68, 73
2, 23738, Note_on_c, 0, 68, 0
2, 23738, Note_on_c, 0, 64, 0
2, 23760, Note_on_c, 0, 80, 0
2, 23760, Note_on_c, 0, 76, 0
2, 23760, Note_on_c, 0, 71, 0
2, 23760, Note_on_c, 0, 75, 61
2, 23760, Note_on_c, 0, 78, 61
2, 23760, Note_on_c, 0, 69, 62
2, 23760, Note_on_c, 0, 66, 51
2, 23850, Note_on_c, 0, 66, 0
2, 23850, Note_on_c, 0, 75, 0
2, 23850, Note_on_c, 0, 78, 0
2, 23850, Note_on_c, 0, 73, 62
2, 23850, Note_on_c, 0, 76, 62
2, 23850, Note_on_c, 0, 64, 56
2, 23940, Note_on_c, 0, 64, 0
2, 23940, Note_on_c, 0, 69, 0
2, 23940, Note_on_c, 0, 56, 0
2, 23940, Note_on_c, 0, 73, 0
2, 23940, Note_on_c, 0, 76, 0
2, 23940, Note_on_c, 0, 78, 65
2, 23940, Note_on_c, 0, 74, 70
2, 23940, Note_on_c, 0, 69, 101
2, 23940, Note_on_c, 0, 66, 69
2, 23940, Note_on_c, 0, 62, 75
2, 24030, Note_on_c, 0, 74, 0
2, 24030, Note_on_c, 0, 62, 0
2, 24030, Note_on_c, 0, 73, 65
2, 24030, Note_on_c, 0, 63, 69
2, 24098, Note_on_c, 0, 66, 0
2, 24120, Note_on_c, 0, 73, 0
2, 24120, Note_on_c, 0, 78, 0
2, 24120, Note_on_c, 0, 63, 0
2, 24120, Note_on_c, 0, 76, 63
2, 24120, Note_on_c, 0, 72, 60
2, 24120, Note_on_c, 0, 68, 69
2, 24120, Note_on_c, 0, 56, 64
2, 24120, Note_on_c, 0, 64, 106
2, 24210, Note_on_c, 0, 64, 0
2, 24210, Note_on_c, 0, 76, 0
2, 24210, Note_on_c, 0, 75, 66
2, 24210, Note_on_c, 0, 78, 66
2, 24210, Note_on_c, 0, 63, 79
2, 24278, Note_on_c, 0, 68, 0
2, 24300, Note_on_c, 0, 63, 0
2, 24300, Note_on_c, 0, 75, 0
2, 24300, Note_on_c, 0, 56, 0
2, 24300, Note_on_c, 0, 72, 0
2, 24300, Note_on_c, 0, 69, 0
2, 24300, Note_on_c, 0, 78, 0
2, 24300, Note_on_c, 0, 73, 69
2, 24300, Note_on_c, 0, 76, 69
2, 24300, Note_on_c, 0, 80, 69
2, 24300, Note_on_c, 0, 61, 92
2, 24300, Note_on_c, 0, 64, 92
2, 24300, Note_on_c, 0, 68, 92
2, 24480, Note_on_c, 0, 68, 0
2, 24480, Note_on_c, 0, 61, 0
2, 24480, Note_on_c, 0, 73, 0
2, 24480, Note_on_c, 0, 76, 0
2, 24480, Note_on_c, 0, 62, 0
2, 24480, Note_on_c, 0, 64, 0
2, 24480, Note_on_c, 0, 80, 0
2, 24480, Note_on_c, 0, 61, 51
2, 24480, Note_on_c, 0, 64, 51
2, 24480, Note_on_c, 0, 68, 51
2, 24660, Note_on_c, 0, 68, 0
2, 24660, Note_on_c, 0, 64, 0
2, 24660, Note_on_c, 0, 61, 0
2, 24660, Note_on_c, 0, 64, 57
2, 24660, Note_on_c, 0, 68, 57
2, 24660, Note_on_c, 0, 61, 56
2, 24840, Note_on_c, 0, 68, 0
2, 24840, Note_on_c, 0, 64, 0
2, 24840, Note_on_c, 0, 76, 81
2, 24840, Note_on_c, 0, 64, 55
2, 24840, Note_on_c, 0, 68, 55
2, 24930, Note_on_c, 0, 76, 0
2, 24930, Note_on_c, 0, 75, 87
2, 25020, Note_on_c, 0, 75, 0
2, 25020, Note_on_c, 0, 68, 0
2, 25020, Note_on_c, 0, 64, 0
2, 25020, Note_on_c, 0, 61, 0
2, 25020, Note_on_c, 0, 76, 93
2, 25020, Note_on_c, 0, 61, 58
2, 25020, Note_on_c, 0, 64, 58
2, 25020, Note_on_c, 0, 68, 58
2, 25020, Note_on_c, 0, 59, 62
2, 25200, Note_on_c, 0, 68, 0
2, 25200, Note_on_c, 0, 64, 0
2, 25200, Note_on_c, 0, 61, 0
2, 25200, Note_on_c, 0, 61, 57
2, 25200, Note_on_c, 0, 64, 57
2, 25200, Note_on_c, 0, 68, 57
2, 25380, Note_on_c, 0, 68, 0
2, 25380, Note_on_c, 0, 61, 0
2, 25380, Note_on_c, 0, 64, 0
2, 25380, Note_on_c, 0, 61, 54
2, 25380, Note_on_c, 0, 64, 54
2, 25380, Note_on_c, 0, 68, 54
2, 25560, Note_on_c, 0, 68, 0
2, 25560, Note_on_c, 0, 61, 0
2, 25560, Note_on_c, 0, 64, 0
2, 25560, Note_on_c, 0, 76, 0
2, 25560, Note_on_c, 0, 73, 85
2, 25560, Note_on_c, 0, 61, 61
2, 25560, Note_on_c, 0, 64, 61
2, 25560, Note_on_c, 0, 68, 61
2, 25650, Note_on_c, 0, 73, 0
2, 25650, Note_on_c, 0, 75, 93
2, 25740, Note_on_c, 0, 75, 0
2, 25740, Note_on_c, 0, 68, 0
2, 25740, Note_on_c, 0, 59, 0
2, 25740, Note_on_c, 0, 61, 0
2, 25740, Note_on_c, 0, 64, 0
2, 25740, Note_on_c, 0, 76, 94
2, 25740, Note_on_c, 0, 61, 58
2, 25740, Note_on_c, 0, 64, 58
2, 25740, Note_on_c, 0, 68, 58
2, 25740, Note_on_c, 0, 57, 64
2, 25920, Note_on_c, 0, 68, 0
2, 25920, Note_on_c, 0, 64, 0
2, 25920, Note_on_c, 0, 76, 0
2, 25920, Note_on_c, 0, 61, 0
2, 25920, Note_on_c, 0, 75, 86
2, 25920, Note_on_c, 0, 61, 52
2, 25920, Note_on_c, 0, 64, 52
2, 25920, Note_on_c, 0, 68, 52
2, 26010, Note_on_c, 0, 75, 0
2, 26010, Note_on_c, 0, 73, 87
2, 26100, Note_on_c, 0, 73, 0
2, 26100, Note_on_c, 0, 68, 0
2, 26100, Note_on_c, 0, 64, 0
2, 26100, Note_on_c, 0, 61, 0
2, 26100, Note_on_c, 0, 75, 97
2, 26100, Note_on_c, 0, 61, 54
2, 26100, Note_on_c, 0, 63, 54
2, 26100, Note_on_c, 0, 66, 54
2, 26280, Note_on_c, 0, 66, 0
2, 26280, Note_on_c, 0, 61, 0
2, 26280, Note_on_c, 0, 63, 0
2, 26280, Note_on_c, 0, 75, 0
2, 26280, Note_on_c, 0, 71, 80
2, 26280, Note_on_c, 0, 59, 54
2, 26280, Note_on_c, 0, 63, 54
2, 26280, Note_on_c, 0, 66, 54
2, 26370, Note_on_c, 0, 71, 0
2, 26370, Note_on_c, 0, 73, 93
2, 26460, Note_on_c, 0, 73, 0
2, 26460, Note_on_c, 0, 66, 0
2, 26460, Note_on_c, 0, 57, 0
2, 26460, Note_on_c, 0, 59, 0
2, 26460, Note_on_c, 0, 63, 0
2, 26460, Note_on_c, 0, 75, 92
2, 26460, Note_on_c, 0, 59, 55
2, 26460, Note_on_c, 0, 63, 55
2, 26460, Note_on_c, 0, 66, 55
2, 26460, Note_on_c, 0, 56, 62
2, 26640, Note_on_c, 0, 66, 0
2, 26640, Note_on_c, 0, 63, 0
2, 26640, Note_on_c, 0, 59, 0
2, 26640, Note_on_c, 0, 59, 51
2, 26640, Note_on_c, 0, 63, 51
2, 26640, Note_on_c, 0, 66, 51
2, 26820, Note_on_c, 0, 66, 0
2, 26820, Note_on_c, 0, 59, 0
2, 26820, Note_on_c, 0, 63, 0
2, 26820, Note_on_c, 0, 59, 56
2, 26820, Note_on_c, 0, 63, 56
2, 26820, Note_on_c, 0, 66, 56
2, 27000, Note_on_c, 0, 66, 0
2, 27000, Note_on_c, 0, 59, 0
2, 27000, Note_on_c, 0, 63, 0
2, 27000, Note_on_c, 0, 59, 52
2, 27000, Note_on_c, 0, 63, 52
2, 27000, Note_on_c, 0, 66, 52
2, 27180, Note_on_c, 0, 66, 0
2, 27180, Note_on_c, 0, 59, 0
2, 27180, Note_on_c, 0, 63, 0
2, 27180, Note_on_c, 0, 59, 53
2, 27180, Note_on_c, 0, 61, 53
2, 27180, Note_on_c, 0, 64, 53
2, 27360, Note_on_c, 0, 64, 0
2, 27360, Note_on_c, 0, 59, 0
2, 27360, Note_on_c, 0, 61, 0
2, 27360, Note_on_c, 0, 75, 0
2, 27360, Note_on_c, 0, 73, 89
2, 27360, Note_on_c, 0, 59, 53
2, 27360, Note_on_c, 0, 61, 53
2, 27360, Note_on_c, 0, 64, 53
2, 27450, Note_on_c, 0, 73, 0
2, 27450, Note_on_c, 0, 71, 86
2, 27540, Note_on_c, 0, 71, 0
2, 27540, Note_on_c, 0, 64, 0
2, 27540, Note_on_c, 0, 56, 0
2, 27540, Note_on_c, 0, 59, 0
2, 27540, Note_on_c, 0, 61, 0
2, 27540, Note_on_c, 0, 73, 92
2, 27540, Note_on_c, 0, 57, 56
2, 27540, Note_on_c, 0, 61, 56
2, 27540, Note_on_c, 0, 64, 56
2, 27540, Note_on_c, 0, 54, 69
2, 27720, Note_on_c, 0, 64, 0
2, 27720, Note_on_c, 0, 61, 0
2, 27720, Note_on_c, 0, 73, 0
2, 27720, Note_on_c, 0, 57, 0
2, 27720, Note_on_c, 0, 69, 80
2, 27720, Note_on_c, 0, 57, 56
2, 27720, Note_on_c, 0, 61, 56
2, 27720, Note_on_c, 0, 64, 56
2, 27810, Note_on_c, 0, 69, 0
2, 27810, Note_on_c, 0, 71, 92
2, 27900, Note_on_c, 0, 71, 0
2, 27900, Note_on_c, 0, 64, 0
2, 27900, Note_on_c, 0, 54, 0
2, 27900, Note_on_c, 0, 57, 0
2, 27900, Note_on_c, 0, 61, 0
2, 27900, Note_on_c, 0, 73, 95
2, 27900, Note_on_c, 0, 56, 57
2, 27900, Note_on_c, 0, 61, 57
2, 27900, Note_on_c, 0, 64, 57
2, 27900, Note_on_c, 0, 52, 59
2, 28080, Note_on_c, 0, 64, 0
2, 28080, Note_on_c, 0, 61, 0
2, 28080, Note_on_c, 0, 56, 0
2, 28080, Note_on_c, 0, 56, 56
2, 28080, Note_on_c, 0, 61, 56
2, 28080, Note_on_c, 0, 64, 56
2, 28260, Note_on_c, 0, 64, 0
2, 28260, Note_on_c, 0, 56, 0
2, 28260, Note_on_c, 0, 61, 0
2, 28260, Note_on_c, 0, 56, 62
2, 28260, Note_on_c, 0, 61, 62
2, 28260, Note_on_c, 0, 64, 62
2, 28440, Note_on_c, 0, 64, 0
2, 28440, Note_on_c, 0, 56, 0
2, 28440, Note_on_c, 0, 61, 0
2, 28440, Note_on_c, 0, 56, 57
2, 28440, Note_on_c, 0, 61, 57
2, 28440, Note_on_c, 0, 64, 57
2, 28620, Note_on_c, 0, 64, 0
2, 28620, Note_on_c, 0, 56, 0
2, 28620, Note_on_c, 0, 61, 0
2, 28620, Note_on_c, 0, 52, 0
2, 28620, Note_on_c, 0, 66, 57
2, 28620, Note_on_c, 0, 56, 47
2, 28620, Note_on_c, 0, 61, 47
2, 28620, Note_on_c, 0, 51, 64
2, 28800, Note_on_c, 0, 61, 0
2, 28800, Note_on_c, 0, 56, 0
2, 28800, Note_on_c, 0, 73, 0
2, 28800, Note_on_c, 0, 66, 0
2, 28800, Note_on_c, 0, 71, 85
2, 28800, Note_on_c, 0, 66, 65
2, 28800, Note_on_c, 0, 56, 51
2, 28800, Note_on_c, 0, 61, 51
2, 28890, Note_on_c, 0, 71, 0
2, 28890, Note_on_c, 0, 69, 85
2, 28980, Note_on_c, 0, 69, 0
2, 28980, Note_on_c, 0, 61, 0
2, 28980, Note_on_c, 0, 51, 0
2, 28980, Note_on_c, 0, 66, 0
2, 28980, Note_on_c, 0, 56, 0
2, 28980, Note_on_c, 0, 68, 82
2, 28980, Note_on_c, 0, 66, 65
2, 28980, Note_on_c, 0, 56, 52
2, 28980, Note_on_c, 0, 60, 52
2, 28980, Note_on_c, 0, 50, 64
2, 29160, Note_on_c, 0, 60, 0
2, 29160, Note_on_c, 0, 56, 0
2, 29160, Note_on_c, 0, 66, 0
2, 29160, Note_on_c, 0, 66, 68
2, 29160, Note_on_c, 0, 56, 51
2, 29160, Note_on_c, 0, 60, 51
2, 29250, Note_on_c, 0, 68, 0
2, 29250, Note_on_c, 0, 66, 83
2, 29340, Note_on_c, 0, 66, 0
2, 29340, Note_on_c, 0, 60, 0
2, 29340, Note_on_c, 0, 50, 0
2, 29340, Note_on_c, 0, 66, 0
2, 29340, Note_on_c, 0, 56, 0
2, 29340, Note_on_c, 0, 68, 93
2, 29340, Note_on_c, 0, 66, 69
2, 29340, Note_on_c, 0, 56, 53
2, 29340, Note_on_c, 0, 59, 53
2, 29340, Note_on_c, 0, 49, 59
2, 29520, Note_on_c, 0, 59, 0
2, 29520, Note_on_c, 0, 56, 0
2, 29520, Note_on_c, 0, 66, 0
2, 29520, Note_on_c, 0, 66, 63
2, 29520, Note_on_c, 0, 56, 57
2, 29520, Note_on_c, 0, 59, 57
2, 29610, Note_on_c, 0, 68, 0
2, 29610, Note_on_c, 0, 69, 89
2, 29700, Note_on_c, 0, 69, 0
2, 29700, Note_on_c, 0, 59, 0
2, 29700, Note_on_c, 0, 56, 0
2, 29700, Note_on_c, 0, 66, 0
2, 29700, Note_on_c, 0, 68, 91
2, 29700, Note_on_c, 0, 65, 63
2, 29700, Note_on_c, 0, 56, 55
2, 29700, Note_on_c, 0, 59, 55
2, 29880, Note_on_c, 0, 59, 0
2, 29880, Note_on_c, 0, 65, 0
2, 29880, Note_on_c, 0, 56, 0
2, 29880, Note_on_c, 0, 65, 68
2, 29880, Note_on_c, 0, 56, 55
2, 29880, Note_on_c, 0, 59, 55
2, 30060, Note_on_c, 0, 59, 0
2, 30060, Note_on_c, 0, 65, 0
2, 30060, Note_on_c, 0, 56, 0
2, 30060, Note_on_c, 0, 57, 57
2, 30060, Note_on_c, 0, 61, 57
2, 30060, Note_on_c, 0, 64, 57
2, 30060, Note_on_c, 0, 42, 65
2, 30150, Note_on_c, 0, 68, 0
2, 30150, Note_on_c, 0, 69, 90
2, 30240, Note_on_c, 0, 69, 0
2, 30240, Note_on_c, 0, 57, 0
2, 30240, Note_on_c, 0, 61, 0
2, 30240, Note_on_c, 0, 64, 0
2, 30240, Note_on_c, 0, 73, 95
2, 30240, Note_on_c, 0, 57, 56
2, 30240, Note_on_c, 0, 61, 56
2, 30240, Note_on_c, 0, 64, 56
2, 30330, Note_on_c, 0, 73, 0
2, 30330, Note_on_c, 0, 76, 96
2, 30420, Note_on_c, 0, 76, 0
2, 30420, Note_on_c, 0, 64, 0
2, 30420, Note_on_c, 0, 57, 0
2, 30420, Note_on_c, 0, 42, 0
2, 30420, Note_on_c, 0, 49, 0
2, 30420, Note_on_c, 0, 61, 0
2, 30420, Note_on_c, 0, 78, 96
2, 30420, Note_on_c, 0, 66, 69
2, 30420, Note_on_c, 0, 69, 69
2, 30420, Note_on_c, 0, 75, 69
2, 30420, Note_on_c, 0, 35, 63
2, 30420, Note_on_c, 0, 47, 63
2, 30600, Note_on_c, 0, 75, 0
2, 30600, Note_on_c, 0, 69, 0
2, 30600, Note_on_c, 0, 66, 0
2, 30600, Note_on_c, 0, 57, 40
2, 30600, Note_on_c, 0, 59, 40
2, 30600, Note_on_c, 0, 63, 40
2, 30690, Note_on_c, 0, 78, 0
2, 30690, Note_on_c, 0, 80, 100
2, 30780, Note_on_c, 0, 80, 0
2, 30780, Note_on_c, 0, 63, 0
2, 30780, Note_on_c, 0, 57, 0
2, 30780, Note_on_c, 0, 47, 0
2, 30780, Note_on_c, 0, 35, 0
2, 30780, Note_on_c, 0, 59, 0
2, 30780, Note_on_c, 0, 76, 87
2, 30780, Note_on_c, 0, 64, 68
2, 30780, Note_on_c, 0, 68, 68
2, 30780, Note_on_c, 0, 73, 68
2, 30780, Note_on_c, 0, 37, 70
2, 30780, Note_on_c, 0, 49, 70
2, 30960, Note_on_c, 0, 73, 0
2, 30960, Note_on_c, 0, 68, 0
2, 30960, Note_on_c, 0, 64, 0
2, 30960, Note_on_c, 0, 56, 45
2, 30960, Note_on_c, 0, 61, 45
2, 30960, Note_on_c, 0, 64, 45
2, 31140, Note_on_c, 0, 64, 0
2, 31140, Note_on_c, 0, 37, 0
2, 31140, Note_on_c, 0, 49, 0
2, 31140, Note_on_c, 0, 56, 0
2, 31140, Note_on_c, 0, 61, 0
2, 31140, Note_on_c, 0, 64, 57
2, 31140, Note_on_c, 0, 66, 57
2, 31140, Note_on_c, 0, 57, 49
2, 31140, Note_on_c, 0, 42, 58
2, 31320, Note_on_c, 0, 66, 0
2, 31320, Note_on_c, 0, 76, 0
2, 31320, Note_on_c, 0, 64, 0
2, 31320, Note_on_c, 0, 74, 87
2, 31320, Note_on_c, 0, 62, 64
2, 31320, Note_on_c, 0, 66, 64
2, 31320, Note_on_c, 0, 54, 84
2, 31478, Note_on_c, 0, 54, 0
2, 31500, Note_on_c, 0, 57, 0
2, 31500, Note_on_c, 0, 74, 0
2, 31500, Note_on_c, 0, 42, 0
2, 31500, Note_on_c, 0, 66, 0
2, 31500, Note_on_c, 0, 62, 0
2, 31500, Note_on_c, 0, 73, 88
2, 31500, Note_on_c, 0, 61, 70
2, 31500, Note_on_c, 0, 68, 70
2, 31500, Note_on_c, 0, 44, 62
2, 31500, Note_on_c, 0, 52, 87
2, 31680, Note_on_c, 0, 68, 0
2, 31680, Note_on_c, 0, 61, 0
2, 31680, Note_on_c, 0, 61, 62
2, 31680, Note_on_c, 0, 68, 62
2, 31680, Note_on_c, 0, 56, 52
2, 31817, Note_on_c, 0, 52, 0
2, 31860, Note_on_c, 0, 68, 0
2, 31860, Note_on_c, 0, 61, 0
2, 31860, Note_on_c, 0, 60, 57
2, 31860, Note_on_c, 0, 66, 57
2, 31860, Note_on_c, 0, 51, 90
2, 31883, Note_on_c, 0, 73, 0
2, 31883, Note_on_c, 0, 72, 60
2, 31905, Note_on_c, 0, 72, 0
2, 31905, Note_on_c, 0, 73, 66
2, 31928, Note_on_c, 0, 73, 0
2, 31928, Note_on_c, 0, 72, 62
2, 31950, Note_on_c, 0, 72, 0
2, 31950, Note_on_c, 0, 73, 68
2, 31973, Note_on_c, 0, 73, 0
2, 31973, Note_on_c, 0, 72, 60
2, 31995, Note_on_c, 0, 72, 0
2, 31995, Note_on_c, 0, 73, 69
2, 32018, Note_on_c, 0, 73, 0
2, 32018, Note_on_c, 0, 72, 58
2, 32040, Note_on_c, 0, 72, 0
2, 32040, Note_on_c, 0, 56, 0
2, 32040, Note_on_c, 0, 60, 0
2, 32040, Note_on_c, 0, 66, 0
2, 32040, Note_on_c, 0, 73, 69
2, 32040, Note_on_c, 0, 56, 71
2, 32040, Note_on_c, 0, 60, 71
2, 32040, Note_on_c, 0, 66, 71
2, 32063, Note_on_c, 0, 73, 0
2, 32063, Note_on_c, 0, 72, 61
2, 32085, Note_on_c, 0, 72, 0
2, 32085, Note_on_c, 0, 73, 66
2, 32108, Note_on_c, 0, 73, 0
2, 32108, Note_on_c, 0, 72, 63
2, 32130, Note_on_c, 0, 72, 0
2, 32130, Note_on_c, 0, 73, 68
2, 32153, Note_on_c, 0, 73, 0
2, 32153, Note_on_c, 0, 72, 59
2, 32175, Note_on_c, 0, 72, 0
2, 32175, Note_on_c, 0, 70, 62
2, 32177, Note_on_c, 0, 51, 0
2, 32198, Note_on_c, 0, 70, 0
2, 32198, Note_on_c, 0, 72, 67
2, 32220, Note_on_c, 0, 72, 0
2, 32220, Note_on_c, 0, 60, 0
2, 32220, Note_on_c, 0, 44, 0
2, 32220, Note_on_c, 0, 66, 0
2, 32220, Note_on_c, 0, 56, 0
2, 32220, Note_on_c, 0, 73, 90
2, 32220, Note_on_c, 0, 61, 58
2, 32220, Note_on_c, 0, 64, 58
2, 32220, Note_on_c, 0, 37, 70
2, 32220, Note_on_c, 0, 49, 70
2, 32400, Note_on_c, 0, 64, 0
2, 32400, Note_on_c, 0, 61, 0
2, 32400, Note_on_c, 0, 56, 64
2, 32400, Note_on_c, 0, 61, 64
2, 32400, Note_on_c, 0, 64, 64
2, 32580, Note_on_c, 0, 64, 0
2, 32580, Note_on_c, 0, 56, 0
2, 32580, Note_on_c, 0, 61, 0
2, 32580, Note_on_c, 0, 56, 65
2, 32580, Note_on_c, 0, 61, 65
2, 32580, Note_on_c, 0, 64, 65
2, 32760, Note_on_c, 0, 64, 0
2, 32760, Note_on_c, 0, 56, 0
2, 32760, Note_on_c, 0, 61, 0
2, 32760, Note_on_c, 0, 64, 70
2, 32760, Note_on_c, 0, 68, 70
2, 32760, Note_on_c, 0, 61, 50
2, 32850, Note_on_c, 0, 61, 0
2, 32850, Note_on_c, 0, 59, 56
2, 32940, Note_on_c, 0, 59, 0
2, 32940, Note_on_c, 0, 68, 0
2, 32940, Note_on_c, 0, 37, 0
2, 32940, Note_on_c, 0, 73, 0
2, 32940, Note_on_c, 0, 49, 0
2, 32940, Note_on_c, 0, 64, 0
2, 32940, Note_on_c, 0, 61, 58
2, 33120, Note_on_c, 0, 61, 0
2, 33120, Note_on_c, 0, 73, 82
2, 33120, Note_on_c, 0, 64, 56
2, 33120, Note_on_c, 0, 68, 56
2, 33120, Note_on_c, 0, 59, 53
2, 33210, Note_on_c, 0, 59, 0
2, 33210, Note_on_c, 0, 58, 52
2, 33300, Note_on_c, 0, 58, 0
2, 33300, Note_on_c, 0, 68, 0
2, 33300, Note_on_c, 0, 64, 0
2, 33300, Note_on_c, 0, 61, 70
2, 33300, Note_on_c, 0, 64, 70
2, 33300, Note_on_c, 0, 68, 70
2, 33300, Note_on_c, 0, 59, 53
2, 33480, Note_on_c, 0, 59, 0
2, 33480, Note_on_c, 0, 73, 0
2, 33480, Note_on_c, 0, 64, 0
2, 33480, Note_on_c, 0, 61, 0
2, 33480, Note_on_c, 0, 71, 89
2, 33480, Note_on_c, 0, 61, 62
2, 33480, Note_on_c, 0, 64, 62
2, 33480, Note_on_c, 0, 55, 49
2, 33570, Note_on_c, 0, 55, 0
2, 33570, Note_on_c, 0, 56, 61
2, 33660, Note_on_c, 0, 56, 0
2, 33660, Note_on_c, 0, 64, 0
2, 33660, Note_on_c, 0, 68, 0
2, 33660, Note_on_c, 0, 71, 0
2, 33660, Note_on_c, 0, 61, 0
2, 33660, Note_on_c, 0, 70, 85
2, 33660, Note_on_c, 0, 58, 55
2, 33660, Note_on_c, 0, 37, 59
2, 33660, Note_on_c, 0, 49, 59
2, 33840, Note_on_c, 0, 61, 69
2, 33840, Note_on_c, 0, 64, 69
2, 33840, Note_on_c, 0, 68, 69
2, 34020, Note_on_c, 0, 68, 0
2, 34020, Note_on_c, 0, 61, 0
2, 34020, Note_on_c, 0, 64, 0
2, 34020, Note_on_c, 0, 61, 80
2, 34020, Note_on_c, 0, 64, 80
2, 34020, Note_on_c, 0, 68, 80
2, 34200, Note_on_c, 0, 68, 0
2, 34200, Note_on_c, 0, 61, 0
2, 34200, Note_on_c, 0, 58, 0
2, 34200, Note_on_c, 0, 64, 0
2, 34200, Note_on_c, 0, 58, 75
2, 34200, Note_on_c, 0, 64, 75
2, 34200, Note_on_c, 0, 70, 81
2, 34290, Note_on_c, 0, 70, 0
2, 34290, Note_on_c, 0, 68, 77
2, 34380, Note_on_c, 0, 68, 0
2, 34380, Note_on_c, 0, 37, 0
2, 34380, Note_on_c, 0, 58, 0
2, 34380, Note_on_c, 0, 49, 0
2, 34380, Note_on_c, 0, 64, 0
2, 34380, Note_on_c, 0, 58, 71
2, 34380, Note_on_c, 0, 64, 71
2, 34380, Note_on_c, 0, 70, 85
2, 34380, Note_on_c, 0, 49, 62
2, 34560, Note_on_c, 0, 70, 0
2, 34560, Note_on_c, 0, 64, 0
2, 34560, Note_on_c, 0, 70, 0
2, 34560, Note_on_c, 0, 58, 0
2, 34560, Note_on_c, 0, 70, 92
2, 34560, Note_on_c, 0, 58, 62
2, 34560, Note_on_c, 0, 64, 62
2, 34560, Note_on_c, 0, 68, 77
2, 34650, Note_on_c, 0, 68, 0
2, 34650, Note_on_c, 0, 67, 78
2, 34740, Note_on_c, 0, 67, 0
2, 34740, Note_on_c, 0, 64, 0
2, 34740, Note_on_c, 0, 49, 0
2, 34740, Note_on_c, 0, 70, 0
2, 34740, Note_on_c, 0, 58, 0
2, 34740, Note_on_c, 0, 71, 94
2, 34740, Note_on_c, 0, 58, 67
2, 34740, Note_on_c, 0, 63, 67
2, 34740, Note_on_c, 0, 68, 83
2, 34740, Note_on_c, 0, 51, 73
2, 34920, Note_on_c, 0, 51, 0
2, 34920, Note_on_c, 0, 63, 0
2, 34920, Note_on_c, 0, 71, 0
2, 34920, Note_on_c, 0, 58, 0
2, 34920, Note_on_c, 0, 68, 0
2, 34920, Note_on_c, 0, 73, 94
2, 34920, Note_on_c, 0, 58, 62
2, 34920, Note_on_c, 0, 61, 62
2, 34920, Note_on_c, 0, 67, 78
2, 34920, Note_on_c, 0, 52, 65
2, 35010, Note_on_c, 0, 67, 0
2, 35010, Note_on_c, 0, 66, 74
2, 35100, Note_on_c, 0, 66, 0
2, 35100, Note_on_c, 0, 52, 0
2, 35100, Note_on_c, 0, 73, 0
2, 35100, Note_on_c, 0, 58, 0
2, 35100, Note_on_c, 0, 61, 0
2, 35100, Note_on_c, 0, 73, 101
2, 35100, Note_on_c, 0, 59, 72
2, 35100, Note_on_c, 0, 63, 72
2, 35100, Note_on_c, 0, 67, 82
2, 35100, Note_on_c, 0, 58, 47
2, 35100, Note_on_c, 0, 44, 63
2, 35100, Note_on_c, 0, 51, 78
2, 35280, Note_on_c, 0, 58, 0
2, 35280, Note_on_c, 0, 63, 0
2, 35280, Note_on_c, 0, 73, 0
2, 35280, Note_on_c, 0, 59, 0
2, 35280, Note_on_c, 0, 71, 84
2, 35280, Note_on_c, 0, 59, 68
2, 35280, Note_on_c, 0, 63, 68
2, 35280, Note_on_c, 0, 58, 57
2, 35370, Note_on_c, 0, 71, 0
2, 35370, Note_on_c, 0, 73, 100
2, 35460, Note_on_c, 0, 73, 0
2, 35460, Note_on_c, 0, 58, 0
2, 35460, Note_on_c, 0, 59, 0
2, 35460, Note_on_c, 0, 67, 0
2, 35460, Note_on_c, 0, 63, 0
2, 35460, Note_on_c, 0, 75, 95
2, 35460, Note_on_c, 0, 63, 68
2, 35460, Note_on_c, 0, 68, 88
2, 35460, Note_on_c, 0, 59, 52
2, 35640, Note_on_c, 0, 59, 0
2, 35640, Note_on_c, 0, 51, 0
2, 35640, Note_on_c, 0, 63, 0
2, 35640, Note_on_c, 0, 63, 63
2, 35640, Note_on_c, 0, 59, 56
2, 35640, Note_on_c, 0, 56, 82
2, 35730, Note_on_c, 0, 56, 0
2, 35730, Note_on_c, 0, 54, 75
2, 35820, Note_on_c, 0, 54, 0
2, 35820, Note_on_c, 0, 59, 0
2, 35820, Note_on_c, 0, 63, 0
2, 35820, Note_on_c, 0, 63, 66
2, 35820, Note_on_c, 0, 59, 50
2, 35820, Note_on_c, 0, 56, 81
2, 36000, Note_on_c, 0, 56, 0
2, 36000, Note_on_c, 0, 44, 0
2, 36000, Note_on_c, 0, 75, 0
2, 36000, Note_on_c, 0, 63, 0
2, 36000, Note_on_c, 0, 59, 0
2, 36000, Note_on_c, 0, 68, 79
2, 36000, Note_on_c, 0, 63, 70
2, 36000, Note_on_c, 0, 59, 56
2, 36000, Note_on_c, 0, 54, 83
2, 36090, Note_on_c, 0, 54, 0
2, 36090, Note_on_c, 0, 68, 0
2, 36090, Note_on_c, 0, 70, 88
2, 36090, Note_on_c, 0, 53, 79
2, 36180, Note_on_c, 0, 53, 0
2, 36180, Note_on_c, 0, 59, 0
2, 36180, Note_on_c, 0, 70, 0
2, 36180, Note_on_c, 0, 63, 0
2, 36180, Note_on_c, 0, 71, 93
2, 36180, Note_on_c, 0, 63, 66
2, 36180, Note_on_c, 0, 59, 53
2, 36180, Note_on_c, 0, 54, 85
2, 36360, Note_on_c, 0, 54, 0
2, 36360, Note_on_c, 0, 63, 0
2, 36360, Note_on_c, 0, 59, 0
2, 36360, Note_on_c, 0, 71, 0
2, 36360, Note_on_c, 0, 73, 95
2, 36360, Note_on_c, 0, 63, 72
2, 36360, Note_on_c, 0, 59, 52
2, 36360, Note_on_c, 0, 53, 79
2, 36450, Note_on_c, 0, 53, 0
2, 36450, Note_on_c, 0, 73, 0
2, 36450, Note_on_c, 0, 75, 96
2, 36450, Note_on_c, 0, 51, 80
2, 36540, Note_on_c, 0, 51, 0
2, 36540, Note_on_c, 0, 68, 0
2, 36540, Note_on_c, 0, 59, 0
2, 36540, Note_on_c, 0, 63, 0
2, 36540, Note_on_c, 0, 75, 0
2, 36540, Note_on_c, 0, 77, 100
2, 36540, Note_on_c, 0, 65, 75
2, 36540, Note_on_c, 0, 59, 52
2, 36540, Note_on_c, 0, 44, 69
2, 36540, Note_on_c, 0, 50, 74
2, 36720, Note_on_c, 0, 59, 0
2, 36720, Note_on_c, 0, 65, 0
2, 36720, Note_on_c, 0, 65, 66
2, 36720, Note_on_c, 0, 59, 56
2, 36900, Note_on_c, 0, 59, 0
2, 36900, Note_on_c, 0, 65, 0
2, 36900, Note_on_c, 0, 65, 67
2, 36900, Note_on_c, 0, 59, 55
2, 37080, Note_on_c, 0, 59, 0
2, 37080, Note_on_c, 0, 65, 0
2, 37080, Note_on_c, 0, 65, 59
2, 37080, Note_on_c, 0, 68, 73
2, 37080, Note_on_c, 0, 59, 55
2, 37170, Note_on_c, 0, 68, 0
2, 37170, Note_on_c, 0, 66, 79
2, 37260, Note_on_c, 0, 66, 0
2, 37260, Note_on_c, 0, 59, 0
2, 37260, Note_on_c, 0, 65, 0
2, 37260, Note_on_c, 0, 65, 64
2, 37260, Note_on_c, 0, 68, 82
2, 37260, Note_on_c, 0, 59, 60
2, 37440, Note_on_c, 0, 59, 0
2, 37440, Note_on_c, 0, 50, 0
2, 37440, Note_on_c, 0, 77, 0
2, 37440, Note_on_c, 0, 65, 0
2, 37440, Note_on_c, 0, 68, 0
2, 37440, Note_on_c, 0, 74, 65
2, 37440, Note_on_c, 0, 66, 75
2, 37440, Note_on_c, 0, 59, 59
2, 37440, Note_on_c, 0, 51, 84
2, 37530, Note_on_c, 0, 66, 0
2, 37530, Note_on_c, 0, 65, 80
2, 37620, Note_on_c, 0, 65, 0
2, 37620, Note_on_c, 0, 59, 0
2, 37620, Note_on_c, 0, 74, 0
2, 37620, Note_on_c, 0, 75, 74
2, 37620, Note_on_c, 0, 66, 83
2, 37620, Note_on_c, 0, 59, 56
2, 37800, Note_on_c, 0, 59, 0
2, 37800, Note_on_c, 0, 75, 0
2, 37800, Note_on_c, 0, 66, 0
2, 37800, Note_on_c, 0, 51, 0
2, 37800, Note_on_c, 0, 77, 82
2, 37800, Note_on_c, 0, 65, 84
2, 37800, Note_on_c, 0, 59, 53
2, 37800, Note_on_c, 0, 53, 95
2, 37800, Note_on_c, 0, 62, 95
2, 37890, Note_on_c, 0, 62, 0
2, 37890, Note_on_c, 0, 65, 0
2, 37890, Note_on_c, 0, 53, 0
2, 37890, Note_on_c, 0, 66, 81
2, 37890, Note_on_c, 0, 51, 90
2, 37890, Note_on_c, 0, 63, 90
2, 37980, Note_on_c, 0, 63, 0
2, 37980, Note_on_c, 0, 59, 0
2, 37980, Note_on_c, 0, 44, 0
2, 37980, Note_on_c, 0, 77, 0
2, 37980, Note_on_c, 0, 51, 0
2, 37980, Note_on_c, 0, 66, 0
2, 37980, Note_on_c, 0, 77, 91
2, 37980, Note_on_c, 0, 65, 65
2, 37980, Note_on_c, 0, 68, 85
2, 37980, Note_on_c, 0, 58, 54
2, 37980, Note_on_c, 0, 42, 67
2, 37980, Note_on_c, 0, 50, 74
2, 38160, Note_on_c, 0, 58, 0
2, 38160, Note_on_c, 0, 65, 0
2, 38160, Note_on_c, 0, 77, 0
2, 38160, Note_on_c, 0, 75, 91
2, 38160, Note_on_c, 0, 65, 89
2, 38160, Note_on_c, 0, 58, 53
2, 38250, Note_on_c, 0, 75, 0
2, 38250, Note_on_c, 0, 77, 87
2, 38340, Note_on_c, 0, 77, 0
2, 38340, Note_on_c, 0, 58, 0
2, 38340, Note_on_c, 0, 68, 0
2, 38340, Note_on_c, 0, 65, 0
2, 38340, Note_on_c, 0, 50, 0
2, 38340, Note_on_c, 0, 78, 82
2, 38340, Note_on_c, 0, 66, 99
2, 38340, Note_on_c, 0, 58, 60
2, 38340, Note_on_c, 0, 63, 60
2, 38340, Note_on_c, 0, 51, 79
2, 38520, Note_on_c, 0, 51, 0
2, 38520, Note_on_c, 0, 42, 0
2, 38520, Note_on_c, 0, 66, 0
2, 38520, Note_on_c, 0, 58, 0
2, 38520, Note_on_c, 0, 63, 0
2, 38520, Note_on_c, 0, 63, 91
2, 38520, Note_on_c, 0, 66, 91
2, 38520, Note_on_c, 0, 58, 57
2, 38610, Note_on_c, 0, 58, 0
2, 38610, Note_on_c, 0, 57, 51
2, 38700, Note_on_c, 0, 57, 0
2, 38700, Note_on_c, 0, 66, 0
2, 38700, Note_on_c, 0, 63, 0
2, 38700, Note_on_c, 0, 63, 94
2, 38700, Note_on_c, 0, 66, 94
2, 38700, Note_on_c, 0, 58, 96
2, 38880, Note_on_c, 0, 66, 0
2, 38880, Note_on_c, 0, 78, 0
2, 38880, Note_on_c, 0, 63, 0
2, 38880, Note_on_c, 0, 77, 88
2, 38880, Note_on_c, 0, 63, 68
2, 38880, Note_on_c, 0, 66, 68
2, 39060, Note_on_c, 0, 66, 0
2, 39060, Note_on_c, 0, 63, 0
2, 39060, Note_on_c, 0, 77, 0
2, 39060, Note_on_c, 0, 75, 82
2, 39060, Note_on_c, 0, 63, 65
2, 39060, Note_on_c, 0, 66, 65
2, 39240, Note_on_c, 0, 66, 0
2, 39240, Note_on_c, 0, 63, 0
2, 39240, Note_on_c, 0, 75, 0
2, 39240, Note_on_c, 0, 73, 81
2, 39240, Note_on_c, 0, 61, 65
2, 39240, Note_on_c, 0, 65, 65
2, 39420, Note_on_c, 0, 65, 0
2, 39420, Note_on_c, 0, 58, 0
2, 39420, Note_on_c, 0, 73, 0
2, 39420, Note_on_c, 0, 61, 0
2, 39420, Note_on_c, 0, 61, 46
2, 39420, Note_on_c, 0, 63, 46
2, 39420, Note_on_c, 0, 57, 60
2, 39420, Note_on_c, 0, 75, 74
2, 39600, Note_on_c, 0, 57, 0
2, 39600, Note_on_c, 0, 61, 0
2, 39600, Note_on_c, 0, 63, 0
2, 39600, Note_on_c, 0, 61, 64
2, 39600, Note_on_c, 0, 63, 64
2, 39600, Note_on_c, 0, 57, 63
2, 39690, Note_on_c, 0, 57, 0
2, 39690, Note_on_c, 0, 56, 67
2, 39780, Note_on_c, 0, 56, 0
2, 39780, Note_on_c, 0, 63, 0
2, 39780, Note_on_c, 0, 61, 0
2, 39780, Note_on_c, 0, 61, 65
2, 39780, Note_on_c, 0, 63, 65
2, 39780, Note_on_c, 0, 57, 79
2, 39780, Note_on_c, 0, 30, 71
2, 39780, Note_on_c, 0, 42, 71
2, 39960, Note_on_c, 0, 63, 0
2, 39960, Note_on_c, 0, 75, 0
2, 39960, Note_on_c, 0, 61, 0
2, 39960, Note_on_c, 0, 61, 65
2, 39960, Note_on_c, 0, 63, 65
2, 39960, Note_on_c, 0, 73, 79
2, 40050, Note_on_c, 0, 73, 0
2, 40050, Note_on_c, 0, 72, 80
2, 40140, Note_on_c, 0, 72, 0
2, 40140, Note_on_c, 0, 63, 0
2, 40140, Note_on_c, 0, 61, 0
2, 40140, Note_on_c, 0, 61, 63
2, 40140, Note_on_c, 0, 63, 63
2, 40140, Note_on_c, 0, 73, 87
2, 40320, Note_on_c, 0, 63, 0
2, 40320, Note_on_c, 0, 61, 0
2, 40320, Note_on_c, 0, 57, 0
2, 40320, Note_on_c, 0, 61, 63
2, 40320, Note_on_c, 0, 63, 63
2, 40320, Note_on_c, 0, 56, 64
2, 40410, Note_on_c, 0, 56, 0
2, 40410, Note_on_c, 0, 55, 60
2, 40413, Note_on_c, 0, 30, 0
2, 40413, Note_on_c, 0, 42, 0
2, 40500, Note_on_c, 0, 61, 0
2, 40500, Note_on_c, 0, 63, 0
2, 40500, Note_on_c, 0, 55, 0
2, 40500, Note_on_c, 0, 61, 65
2, 40500, Note_on_c, 0, 63, 65
2, 40500, Note_on_c, 0, 56, 77
2, 40500, Note_on_c, 0, 29, 75
2, 40500, Note_on_c, 0, 41, 75
2, 40680, Note_on_c, 0, 63, 0
2, 40680, Note_on_c, 0, 73, 0
2, 40680, Note_on_c, 0, 61, 0
2, 40680, Note_on_c, 0, 68, 65
2, 40680, Note_on_c, 0, 61, 44
2, 40680, Note_on_c, 0, 63, 44
2, 40770, Note_on_c, 0, 68, 0
2, 40770, Note_on_c, 0, 70, 71
2, 40817, Note_on_c, 0, 56, 0
2, 40817, Note_on_c, 0, 41, 0
2, 40817, Note_on_c, 0, 29, 0
2, 40860, Note_on_c, 0, 63, 0
2, 40860, Note_on_c, 0, 61, 0
2, 40860, Note_on_c, 0, 70, 0
2, 40860, Note_on_c, 0, 72, 76
2, 40860, Note_on_c, 0, 60, 91
2, 40860, Note_on_c, 0, 63, 91
2, 40860, Note_on_c, 0, 28, 64
2, 40860, Note_on_c, 0, 40, 64
2, 41040, Note_on_c, 0, 63, 0
2, 41040, Note_on_c, 0, 72, 0
2, 41040, Note_on_c, 0, 60, 0
2, 41040, Note_on_c, 0, 73, 86
2, 41040, Note_on_c, 0, 56, 78
2, 41040, Note_on_c, 0, 60, 78
2, 41040, Note_on_c, 0, 63, 78
2, 41130, Note_on_c, 0, 73, 0
2, 41130, Note_on_c, 0, 75, 91
2, 41220, Note_on_c, 0, 75, 0
2, 41220, Note_on_c, 0, 63, 0
2, 41220, Note_on_c, 0, 56, 0
2, 41220, Note_on_c, 0, 60, 0
2, 41220, Note_on_c, 0, 64, 127
2, 41220, Note_on_c, 0, 76, 127
2, 41220, Note_on_c, 0, 56, 81
2, 41220, Note_on_c, 0, 61, 81
2, 41400, Note_on_c, 0, 61, 0
2, 41400, Note_on_c, 0, 56, 0
2, 41400, Note_on_c, 0, 61, 87
2, 41400, Note_on_c, 0, 56, 100
2, 41400, Note_on_c, 0, 44, 51
2, 41490, Note_on_c, 0, 44, 0
2, 41490, Note_on_c, 0, 56, 0
2, 41490, Note_on_c, 0, 58, 108
2, 41490, Note_on_c, 0, 46, 56
2, 41580, Note_on_c, 0, 46, 0
2, 41580, Note_on_c, 0, 40, 0
2, 41580, Note_on_c, 0, 61, 0
2, 41580, Note_on_c, 0, 64, 0
2, 41580, Note_on_c, 0, 28, 0
2, 41580, Note_on_c, 0, 58, 0
2, 41580, Note_on_c, 0, 59, 124
2, 41580, Note_on_c, 0, 47, 55
2, 41580, Note_on_c, 0, 40, 62
2, 41760, Note_on_c, 0, 76, 0
2, 41760, Note_on_c, 0, 75, 94
2, 41760, Note_on_c, 0, 56, 85
2, 41760, Note_on_c, 0, 61, 85
2, 41940, Note_on_c, 0, 61, 0
2, 41940, Note_on_c, 0, 75, 0
2, 41940, Note_on_c, 0, 56, 0
2, 41940, Note_on_c, 0, 73, 85
2, 41940, Note_on_c, 0, 56, 92
2, 41940, Note_on_c, 0, 61, 92
2, 42120, Note_on_c, 0, 61, 0
2, 42120, Note_on_c, 0, 73, 0
2, 42120, Note_on_c, 0, 40, 0
2, 42120, Note_on_c, 0, 56, 0
2, 42120, Note_on_c, 0, 71, 77
2, 42120, Note_on_c, 0, 59, 88
2, 42120, Note_on_c, 0, 61, 88
2, 42120, Note_on_c, 0, 42, 65
2, 42120, Note_on_c, 0, 54, 85
2, 42213, Note_on_c, 0, 59, 0
2, 42300, Note_on_c, 0, 42, 0
2, 42300, Note_on_c, 0, 71, 0
2, 42300, Note_on_c, 0, 59, 0
2, 42300, Note_on_c, 0, 47, 0
2, 42300, Note_on_c, 0, 54, 0
2, 42300, Note_on_c, 0, 61, 0
2, 42300, Note_on_c, 0, 71, 106
2, 42300, Note_on_c, 0, 59, 61
2, 42300, Note_on_c, 0, 61, 61
2, 42300, Note_on_c, 0, 52, 57
2, 42300, Note_on_c, 0, 44, 65
2, 42300, Note_on_c, 0, 47, 74
2, 42480, Note_on_c, 0, 44, 0
2, 42480, Note_on_c, 0, 52, 0
2, 42480, Note_on_c, 0, 61, 0
2, 42480, Note_on_c, 0, 71, 0
2, 42480, Note_on_c, 0, 59, 0
2, 42480, Note_on_c, 0, 70, 98
2, 42480, Note_on_c, 0, 59, 62
2, 42480, Note_on_c, 0, 61, 62
2, 42480, Note_on_c, 0, 54, 57
2, 42480, Note_on_c, 0, 42, 62
2, 42570, Note_on_c, 0, 70, 0
2, 42570, Note_on_c, 0, 71, 104
2, 42660, Note_on_c, 0, 71, 0
2, 42660, Note_on_c, 0, 42, 0
2, 42660, Note_on_c, 0, 61, 0
2, 42660, Note_on_c, 0, 47, 0
2, 42660, Note_on_c, 0, 59, 0
2, 42660, Note_on_c, 0, 54, 0
2, 42660, Note_on_c, 0, 73, 102
2, 42660, Note_on_c, 0, 61, 78
2, 42660, Note_on_c, 0, 68, 78
2, 42660, Note_on_c, 0, 28, 63
2, 42660, Note_on_c, 0, 40, 63
2, 42840, Note_on_c, 0, 68, 0
2, 42840, Note_on_c, 0, 61, 0
2, 42840, Note_on_c, 0, 61, 54
2, 42840, Note_on_c, 0, 59, 54
2, 42840, Note_on_c, 0, 55, 72
2, 42930, Note_on_c, 0, 55, 0
2, 42930, Note_on_c, 0, 54, 80
2, 43020, Note_on_c, 0, 54, 0
2, 43020, Note_on_c, 0, 59, 0
2, 43020, Note_on_c, 0, 61, 0
2, 43020, Note_on_c, 0, 61, 67
2, 43020, Note_on_c, 0, 59, 51
2, 43020, Note_on_c, 0, 55, 92
2, 43200, Note_on_c, 0, 59, 0
2, 43200, Note_on_c, 0, 61, 0
2, 43200, Note_on_c, 0, 73, 0
2, 43200, Note_on_c, 0, 71, 100
2, 43200, Note_on_c, 0, 61, 65
2, 43200, Note_on_c, 0, 59, 57
2, 43290, Note_on_c, 0, 71, 0
2, 43290, Note_on_c, 0, 70, 99
2, 43380, Note_on_c, 0, 70, 0
2, 43380, Note_on_c, 0, 59, 0
2, 43380, Note_on_c, 0, 28, 0
2, 43380, Note_on_c, 0, 61, 0
2, 43380, Note_on_c, 0, 40, 0
2, 43380, Note_on_c, 0, 71, 108
2, 43380, Note_on_c, 0, 59, 61
2, 43380, Note_on_c, 0, 61, 61
2, 43380, Note_on_c, 0, 27, 61
2, 43380, Note_on_c, 0, 39, 61
2, 43494, Note_on_c, 0, 55, 0
2, 43560, Note_on_c, 0, 61, 0
2, 43560, Note_on_c, 0, 71, 0
2, 43560, Note_on_c, 0, 59, 0
2, 43560, Note_on_c, 0, 66, 77
2, 43560, Note_on_c, 0, 61, 67
2, 43560, Note_on_c, 0, 58, 53
2, 43560, Note_on_c, 0, 54, 79
2, 43650, Note_on_c, 0, 54, 0
2, 43650, Note_on_c, 0, 66, 0
2, 43650, Note_on_c, 0, 68, 82
2, 43650, Note_on_c, 0, 53, 73
2, 43740, Note_on_c, 0, 53, 0
2, 43740, Note_on_c, 0, 39, 0
2, 43740, Note_on_c, 0, 58, 0
2, 43740, Note_on_c, 0, 27, 0
2, 43740, Note_on_c, 0, 68, 0
2, 43740, Note_on_c, 0, 61, 0
2, 43740, Note_on_c, 0, 70, 87
2, 43740, Note_on_c, 0, 58, 63
2, 43740, Note_on_c, 0, 61, 63
2, 43740, Note_on_c, 0, 26, 59
2, 43740, Note_on_c, 0, 38, 59
2, 43740, Note_on_c, 0, 54, 79
2, 43920, Note_on_c, 0, 61, 0
2, 43920, Note_on_c, 0, 70, 0
2, 43920, Note_on_c, 0, 58, 0
2, 43920, Note_on_c, 0, 71, 97
2, 43920, Note_on_c, 0, 54, 63
2, 43920, Note_on_c, 0, 58, 63
2, 43920, Note_on_c, 0, 61, 63
2, 44010, Note_on_c, 0, 71, 0
2, 44010, Note_on_c, 0, 73, 102
2, 44100, Note_on_c, 0, 73, 0
2, 44100, Note_on_c, 0, 61, 0
2, 44100, Note_on_c, 0, 54, 0
2, 44100, Note_on_c, 0, 54, 0
2, 44100, Note_on_c, 0, 58, 0
2, 44100, Note_on_c, 0, 62, 127
2, 44100, Note_on_c, 0, 74, 127
2, 44100, Note_on_c, 0, 54, 86
2, 44100, Note_on_c, 0, 59, 86
2, 44280, Note_on_c, 0, 59, 0
2, 44280, Note_on_c, 0, 54, 0
2, 44280, Note_on_c, 0, 59, 92
2, 44280, Note_on_c, 0, 54, 97
2, 44280, Note_on_c, 0, 42, 51
2, 44370, Note_on_c, 0, 42, 0
2, 44370, Note_on_c, 0, 54, 0
2, 44370, Note_on_c, 0, 56, 108
2, 44370, Note_on_c, 0, 44, 56
2, 44460, Note_on_c, 0, 44, 0
2, 44460, Note_on_c, 0, 38, 0
2, 44460, Note_on_c, 0, 59, 0
2, 44460, Note_on_c, 0, 26, 0
2, 44460, Note_on_c, 0, 56, 0
2, 44460, Note_on_c, 0, 57, 123
2, 44460, Note_on_c, 0, 45, 59
2, 44460, Note_on_c, 0, 38, 70
2, 44640, Note_on_c, 0, 74, 0
2, 44640, Note_on_c, 0, 73, 94
2, 44640, Note_on_c, 0, 54, 79
2, 44640, Note_on_c, 0, 59, 79
2, 44820, Note_on_c, 0, 59, 0
2, 44820, Note_on_c, 0, 73, 0
2, 44820, Note_on_c, 0, 54, 0
2, 44820, Note_on_c, 0, 71, 85
2, 44820, Note_on_c, 0, 54, 86
2, 44820, Note_on_c, 0, 59, 86
2, 45000, Note_on_c, 0, 59, 0
2, 45000, Note_on_c, 0, 71, 0
2, 45000, Note_on_c, 0, 54, 0
2, 45000, Note_on_c, 0, 69, 77
2, 45000, Note_on_c, 0, 59, 92
2, 45000, Note_on_c, 0, 54, 82
2, 45093, Note_on_c, 0, 57, 0
2, 45180, Note_on_c, 0, 59, 0
2, 45180, Note_on_c, 0, 45, 0
2, 45180, Note_on_c, 0, 38, 0
2, 45180, Note_on_c, 0, 69, 0
2, 45180, Note_on_c, 0, 54, 0
2, 45180, Note_on_c, 0, 68, 100
2, 45180, Note_on_c, 0, 56, 68
2, 45180, Note_on_c, 0, 59, 68
2, 45180, Note_on_c, 0, 53, 61
2, 45180, Note_on_c, 0, 38, 64
2, 45360, Note_on_c, 0, 53, 0
2, 45360, Note_on_c, 0, 59, 0
2, 45360, Note_on_c, 0, 56, 0
2, 45360, Note_on_c, 0, 56, 62
2, 45360, Note_on_c, 0, 59, 62
2, 45360, Note_on_c, 0, 53, 56
2, 45540, Note_on_c, 0, 53, 0
2, 45540, Note_on_c, 0, 56, 0
2, 45540, Note_on_c, 0, 38, 0
2, 45540, Note_on_c, 0, 59, 0
2, 45540, Note_on_c, 0, 56, 68
2, 45540, Note_on_c, 0, 59, 68
2, 45540, Note_on_c, 0, 52, 56
2, 45540, Note_on_c, 0, 37, 65
2, 45720, Note_on_c, 0, 52, 0
2, 45720, Note_on_c, 0, 59, 0
2, 45720, Note_on_c, 0, 56, 0
2, 45720, Note_on_c, 0, 56, 61
2, 45720, Note_on_c, 0, 59, 61
2, 45720, Note_on_c, 0, 52, 55
2, 45900, Note_on_c, 0, 52, 0
2, 45900, Note_on_c, 0, 37, 0
2, 45900, Note_on_c, 0, 68, 0
2, 45900, Note_on_c, 0, 56, 0
2, 45900, Note_on_c, 0, 59, 0
2, 45900, Note_on_c, 0, 67, 98
2, 45900, Note_on_c, 0, 58, 63
2, 45900, Note_on_c, 0, 52, 54
2, 45900, Note_on_c, 0, 55, 54
2, 45900, Note_on_c, 0, 49, 74
2, 46080, Note_on_c, 0, 49, 0
2, 46080, Note_on_c, 0, 58, 0
2, 46080, Note_on_c, 0, 59, 69
2, 46080, Note_on_c, 0, 47, 66
2, 46260, Note_on_c, 0, 47, 0
2, 46260, Note_on_c, 0, 59, 0
2, 46260, Note_on_c, 0, 61, 71
2, 46260, Note_on_c, 0, 46, 66
2, 46440, Note_on_c, 0, 46, 0
2, 46440, Note_on_c, 0, 67, 0
2, 46440, Note_on_c, 0, 52, 0
2, 46440, Note_on_c, 0, 55, 0
2, 46440, Note_on_c, 0, 61, 0
2, 46440, Note_on_c, 0, 61, 112
2, 46440, Note_on_c, 0, 73, 112
2, 46440, Note_on_c, 0, 63, 70
2, 46440, Note_on_c, 0, 55, 53
2, 46440, Note_on_c, 0, 45, 64
2, 46530, Note_on_c, 0, 63, 0
2, 46530, Note_on_c, 0, 64, 70
2, 46620, Note_on_c, 0, 64, 0
2, 46620, Note_on_c, 0, 45, 0
2, 46620, Note_on_c, 0, 73, 0
2, 46620, Note_on_c, 0, 55, 0
2, 46620, Note_on_c, 0, 61, 0
2, 46620, Note_on_c, 0, 66, 108
2, 46620, Note_on_c, 0, 60, 63
2, 46620, Note_on_c, 0, 54, 55
2, 46620, Note_on_c, 0, 44, 67
2, 46643, Note_on_c, 0, 75, 108
2, 46800, Note_on_c, 0, 44, 0
2, 46800, Note_on_c, 0, 54, 0
2, 46800, Note_on_c, 0, 60, 0
2, 46800, Note_on_c, 0, 64, 73
2, 46800, Note_on_c, 0, 57, 53
2, 46800, Note_on_c, 0, 49, 69
2, 46800, Note_on_c, 0, 52, 69
2, 46890, Note_on_c, 0, 57, 0
2, 46890, Note_on_c, 0, 64, 0
2, 46890, Note_on_c, 0, 66, 0
2, 46890, Note_on_c, 0, 75, 0
2, 46890, Note_on_c, 0, 67, 99
2, 46890, Note_on_c, 0, 73, 99
2, 46890, Note_on_c, 0, 58, 55
2, 46980, Note_on_c, 0, 58, 0
2, 46980, Note_on_c, 0, 52, 0
2, 46980, Note_on_c, 0, 49, 0
2, 46980, Note_on_c, 0, 67, 0
2, 46980, Note_on_c, 0, 73, 0
2, 46980, Note_on_c, 0, 68, 94
2, 46980, Note_on_c, 0, 71, 94
2, 46980, Note_on_c, 0, 65, 59
2, 46980, Note_on_c, 0, 59, 58
2, 46980, Note_on_c, 0, 50, 69
2, 46980, Note_on_c, 0, 53, 69
2, 47070, Note_on_c, 0, 71, 0
2, 47070, Note_on_c, 0, 68, 0
2, 47070, Note_on_c, 0, 73, 102
2, 47160, Note_on_c, 0, 73, 0
2, 47160, Note_on_c, 0, 53, 0
2, 47160, Note_on_c, 0, 65, 0
2, 47160, Note_on_c, 0, 59, 0
2, 47160, Note_on_c, 0, 50, 0
2, 47160, Note_on_c, 0, 67, 96
2, 47160, Note_on_c, 0, 70, 96
2, 47160, Note_on_c, 0, 63, 61
2, 47160, Note_on_c, 0, 61, 55
2, 47160, Note_on_c, 0, 51, 68
2, 47340, Note_on_c, 0, 51, 0
2, 47340, Note_on_c, 0, 67, 0
2, 47340, Note_on_c, 0, 70, 0
2, 47340, Note_on_c, 0, 63, 0
2, 47340, Note_on_c, 0, 61, 0
2, 47340, Note_on_c, 0, 68, 85
2, 47340, Note_on_c, 0, 59, 76
2, 47340, Note_on_c, 0, 63, 76
2, 47340, Note_on_c, 0, 56, 53
2, 47520, Note_on_c, 0, 63, 0
2, 47520, Note_on_c, 0, 59, 0
2, 47520, Note_on_c, 0, 59, 77
2, 47520, Note_on_c, 0, 63, 77
2, 47700, Note_on_c, 0, 63, 0
2, 47700, Note_on_c, 0, 59, 0
2, 47700, Note_on_c, 0, 59, 74
2, 47700, Note_on_c, 0, 63, 74
2, 47880, Note_on_c, 0, 56, 0
2, 47880, Note_on_c, 0, 54, 49
2, 47970, Note_on_c, 0, 54, 0
2, 47970, Note_on_c, 0, 56, 60
2, 48060, Note_on_c, 0, 56, 0
2, 48060, Note_on_c, 0, 59, 0
2, 48060, Note_on_c, 0, 62, 0
2, 48060, Note_on_c, 0, 68, 0
2, 48060, Note_on_c, 0, 63, 0
2, 48060, Note_on_c, 0, 57, 82
2, 48240, Note_on_c, 0, 75, 82
2, 48240, Note_on_c, 0, 60, 83
2, 48240, Note_on_c, 0, 63, 83
2, 48240, Note_on_c, 0, 66, 83
2, 48420, Note_on_c, 0, 66, 0
2, 48420, Note_on_c, 0, 60, 0
2, 48420, Note_on_c, 0, 63, 0
2, 48420, Note_on_c, 0, 60, 68
2, 48420, Note_on_c, 0, 63, 68
2, 48420, Note_on_c, 0, 66, 68
2, 48600, Note_on_c, 0, 66, 0
2, 48600, Note_on_c, 0, 60, 0
2, 48600, Note_on_c, 0, 63, 0
2, 48600, Note_on_c, 0, 75, 0
2, 48600, Note_on_c, 0, 73, 91
2, 48600, Note_on_c, 0, 66, 64
2, 48600, Note_on_c, 0, 60, 59
2, 48600, Note_on_c, 0, 63, 59
2, 48690, Note_on_c, 0, 66, 0
2, 48690, Note_on_c, 0, 64, 82
2, 48690, Note_on_c, 0, 68, 82
2, 48780, Note_on_c, 0, 68, 0
2, 48780, Note_on_c, 0, 73, 0
2, 48780, Note_on_c, 0, 63, 0
2, 48780, Note_on_c, 0, 57, 0
2, 48780, Note_on_c, 0, 64, 0
2, 48780, Note_on_c, 0, 60, 0
2, 48780, Note_on_c, 0, 72, 87
2, 48780, Note_on_c, 0, 63, 74
2, 48780, Note_on_c, 0, 66, 74
2, 48780, Note_on_c, 0, 32, 62
2, 48960, Note_on_c, 0, 32, 0
2, 48960, Note_on_c, 0, 66, 0
2, 48960, Note_on_c, 0, 63, 0
2, 48960, Note_on_c, 0, 60, 76
2, 48960, Note_on_c, 0, 63, 76
2, 48960, Note_on_c, 0, 66, 76
2, 48960, Note_on_c, 0, 44, 75
2, 48960, Note_on_c, 0, 51, 75
2, 49140, Note_on_c, 0, 66, 0
2, 49140, Note_on_c, 0, 63, 0
2, 49140, Note_on_c, 0, 72, 0
2, 49140, Note_on_c, 0, 60, 0
2, 49140, Note_on_c, 0, 75, 93
2, 49140, Note_on_c, 0, 63, 71
2, 49140, Note_on_c, 0, 66, 71
2, 49140, Note_on_c, 0, 60, 50
2, 49320, Note_on_c, 0, 60, 0
2, 49320, Note_on_c, 0, 63, 0
2, 49320, Note_on_c, 0, 51, 0
2, 49320, Note_on_c, 0, 44, 0
2, 49320, Note_on_c, 0, 66, 0
2, 49320, Note_on_c, 0, 66, 82
2, 49320, Note_on_c, 0, 69, 82
2, 49320, Note_on_c, 0, 60, 51
2, 49320, Note_on_c, 0, 57, 70
2, 49410, Note_on_c, 0, 57, 0
2, 49410, Note_on_c, 0, 69, 0
2, 49410, Note_on_c, 0, 66, 0
2, 49410, Note_on_c, 0, 64, 72
2, 49410, Note_on_c, 0, 68, 72
2, 49410, Note_on_c, 0, 56, 63
2, 49500, Note_on_c, 0, 56, 0
2, 49500, Note_on_c, 0, 64, 0
2, 49500, Note_on_c, 0, 68, 0
2, 49500, Note_on_c, 0, 60, 0
2, 49500, Note_on_c, 0, 66, 79
2, 49500, Note_on_c, 0, 69, 79
2, 49500, Note_on_c, 0, 60, 54
2, 49500, Note_on_c, 0, 57, 67
2, 49680, Note_on_c, 0, 57, 0
2, 49680, Note_on_c, 0, 69, 0
2, 49680, Note_on_c, 0, 75, 0
2, 49680, Note_on_c, 0, 66, 0
2, 49680, Note_on_c, 0, 60, 0
2, 49680, Note_on_c, 0, 75, 92
2, 49680, Note_on_c, 0, 64, 68
2, 49680, Note_on_c, 0, 68, 68
2, 49680, Note_on_c, 0, 57, 53
2, 49680, Note_on_c, 0, 60, 53
2, 49680, Note_on_c, 0, 56, 63
2, 49770, Note_on_c, 0, 56, 0
2, 49770, Note_on_c, 0, 64, 0
2, 49770, Note_on_c, 0, 68, 0
2, 49770, Note_on_c, 0, 63, 73
2, 49770, Note_on_c, 0, 66, 73
2, 49770, Note_on_c, 0, 54, 67
2, 49860, Note_on_c, 0, 54, 0
2, 49860, Note_on_c, 0, 57, 0
2, 49860, Note_on_c, 0, 60, 0
2, 49860, Note_on_c, 0, 63, 0
2, 49860, Note_on_c, 0, 66, 0
2, 49860, Note_on_c, 0, 64, 80
2, 49860, Note_on_c, 0, 68, 80
2, 49860, Note_on_c, 0, 57, 55
2, 49860, Note_on_c, 0, 60, 55
2, 49860, Note_on_c, 0, 56, 75
2, 50040, Note_on_c, 0, 56, 0
2, 50040, Note_on_c, 0, 64, 0
2, 50040, Note_on_c, 0, 68, 0
2, 50040, Note_on_c, 0, 75, 0
2, 50040, Note_on_c, 0, 60, 0
2, 50040, Note_on_c, 0, 57, 0
2, 50040, Note_on_c, 0, 73, 84
2, 50040, Note_on_c, 0, 63, 70
2, 50040, Note_on_c, 0, 66, 70
2, 50040, Note_on_c, 0, 57, 55
2, 50040, Note_on_c, 0, 60, 55
2, 50040, Note_on_c, 0, 54, 66
2, 50130, Note_on_c, 0, 54, 0
2, 50130, Note_on_c, 0, 63, 0
2, 50130, Note_on_c, 0, 66, 0
2, 50130, Note_on_c, 0, 64, 80
2, 50130, Note_on_c, 0, 68, 80
2, 50130, Note_on_c, 0, 56, 65
2, 50220, Note_on_c, 0, 56, 0
2, 50220, Note_on_c, 0, 57, 0
2, 50220, Note_on_c, 0, 73, 0
2, 50220, Note_on_c, 0, 60, 0
2, 50220, Note_on_c, 0, 68, 0
2, 50220, Note_on_c, 0, 64, 0
2, 50220, Note_on_c, 0, 72, 93
2, 50220, Note_on_c, 0, 63, 70
2, 50220, Note_on_c, 0, 66, 70
2, 50220, Note_on_c, 0, 69, 96
2, 50220, Note_on_c, 0, 60, 57
2, 50220, Note_on_c, 0, 57, 63
2, 50400, Note_on_c, 0, 60, 0
2, 50400, Note_on_c, 0, 66, 0
2, 50400, Note_on_c, 0, 63, 0
2, 50400, Note_on_c, 0, 60, 74
2, 50400, Note_on_c, 0, 63, 74
2, 50400, Note_on_c, 0, 66, 74
2, 50580, Note_on_c, 0, 66, 0
2, 50580, Note_on_c, 0, 60, 0
2, 50580, Note_on_c, 0, 72, 0
2, 50580, Note_on_c, 0, 63, 0
2, 50580, Note_on_c, 0, 75, 94
2, 50580, Note_on_c, 0, 63, 76
2, 50580, Note_on_c, 0, 66, 76
2, 50580, Note_on_c, 0, 60, 51
2, 50760, Note_on_c, 0, 60, 0
2, 50760, Note_on_c, 0, 63, 0
2, 50760, Note_on_c, 0, 69, 0
2, 50760, Note_on_c, 0, 57, 0
2, 50760, Note_on_c, 0, 66, 0
2, 50760, Note_on_c, 0, 60, 67
2, 50760, Note_on_c, 0, 63, 67
2, 50760, Note_on_c, 0, 66, 76
2, 50850, Note_on_c, 0, 66, 0
2, 50850, Note_on_c, 0, 64, 89
2, 50850, Note_on_c, 0, 68, 89
2, 50940, Note_on_c, 0, 68, 0
2, 50940, Note_on_c, 0, 63, 0
2, 50940, Note_on_c, 0, 64, 0
2, 50940, Note_on_c, 0, 60, 0
2, 50940, Note_on_c, 0, 57, 71
2, 50940, Note_on_c, 0, 61, 71
2, 50940, Note_on_c, 0, 66, 84
2, 50940, Note_on_c, 0, 69, 84
2, 50940, Note_on_c, 0, 42, 59
2, 50940, Note_on_c, 0, 49, 59
2, 51120, Note_on_c, 0, 61, 0
2, 51120, Note_on_c, 0, 75, 0
2, 51120, Note_on_c, 0, 57, 0
2, 51120, Note_on_c, 0, 76, 95
2, 51120, Note_on_c, 0, 57, 76
2, 51120, Note_on_c, 0, 61, 76
2, 51300, Note_on_c, 0, 61, 0
2, 51300, Note_on_c, 0, 76, 0
2, 51300, Note_on_c, 0, 57, 0
2, 51300, Note_on_c, 0, 75, 90
2, 51300, Note_on_c, 0, 57, 77
2, 51300, Note_on_c, 0, 61, 77
2, 51480, Note_on_c, 0, 61, 0
2, 51480, Note_on_c, 0, 75, 0
2, 51480, Note_on_c, 0, 66, 0
2, 51480, Note_on_c, 0, 69, 0
2, 51480, Note_on_c, 0, 57, 0
2, 51480, Note_on_c, 0, 73, 88
2, 51480, Note_on_c, 0, 57, 78
2, 51480, Note_on_c, 0, 61, 78
2, 51480, Note_on_c, 0, 64, 77
2, 51480, Note_on_c, 0, 68, 77
2, 51570, Note_on_c, 0, 68, 0
2, 51570, Note_on_c, 0, 64, 0
2, 51570, Note_on_c, 0, 66, 70
2, 51660, Note_on_c, 0, 66, 0
2, 51660, Note_on_c, 0, 61, 0
2, 51660, Note_on_c, 0, 73, 0
2, 51660, Note_on_c, 0, 42, 0
2, 51660, Note_on_c, 0, 49, 0
2, 51660, Note_on_c, 0, 57, 0
2, 51660, Note_on_c, 0, 71, 88
2, 51660, Note_on_c, 0, 57, 81
2, 51660, Note_on_c, 0, 59, 81
2, 51660, Note_on_c, 0, 63, 81
2, 51660, Note_on_c, 0, 68, 87
2, 51660, Note_on_c, 0, 35, 61
2, 51660, Note_on_c, 0, 47, 61
2, 51840, Note_on_c, 0, 63, 0
2, 51840, Note_on_c, 0, 59, 0
2, 51840, Note_on_c, 0, 71, 0
2, 51840, Note_on_c, 0, 57, 0
2, 51840, Note_on_c, 0, 73, 90
2, 51840, Note_on_c, 0, 57, 72
2, 51840, Note_on_c, 0, 59, 72
2, 51840, Note_on_c, 0, 63, 72
2, 52020, Note_on_c, 0, 63, 0
2, 52020, Note_on_c, 0, 57, 0
2, 52020, Note_on_c, 0, 73, 0
2, 52020, Note_on_c, 0, 59, 0
2, 52020, Note_on_c, 0, 75, 91
2, 52020, Note_on_c, 0, 57, 77
2, 52020, Note_on_c, 0, 59, 77
2, 52020, Note_on_c, 0, 63, 77
2, 52200, Note_on_c, 0, 63, 0
2, 52200, Note_on_c, 0, 57, 0
2, 52200, Note_on_c, 0, 75, 0
2, 52200, Note_on_c, 0, 68, 0
2, 52200, Note_on_c, 0, 59, 0
2, 52200, Note_on_c, 0, 71, 81
2, 52200, Note_on_c, 0, 57, 77
2, 52200, Note_on_c, 0, 59, 77
2, 52200, Note_on_c, 0, 66, 76
2, 52290, Note_on_c, 0, 66, 0
2, 52290, Note_on_c, 0, 64, 81
2, 52380, Note_on_c, 0, 64, 0
2, 52380, Note_on_c, 0, 59, 0
2, 52380, Note_on_c, 0, 71, 0
2, 52380, Note_on_c, 0, 35, 0
2, 52380, Note_on_c, 0, 47, 0
2, 52380, Note_on_c, 0, 57, 0
2, 52380, Note_on_c, 0, 68, 85
2, 52380, Note_on_c, 0, 56, 75
2, 52380, Note_on_c, 0, 59, 75
2, 52380, Note_on_c, 0, 66, 83
2, 52380, Note_on_c, 0, 51, 52
2, 52380, Note_on_c, 0, 44, 68
2, 52560, Note_on_c, 0, 59, 0
2, 52560, Note_on_c, 0, 56, 0
2, 52560, Note_on_c, 0, 56, 73
2, 52560, Note_on_c, 0, 59, 73
2, 52740, Note_on_c, 0, 59, 0
2, 52740, Note_on_c, 0, 51, 0
2, 52740, Note_on_c, 0, 56, 0
2, 52740, Note_on_c, 0, 56, 76
2, 52740, Note_on_c, 0, 60, 76
2, 52740, Note_on_c, 0, 52, 56
2, 52830, Note_on_c, 0, 68, 0
2, 52830, Note_on_c, 0, 70, 95
2, 52920, Note_on_c, 0, 70, 0
2, 52920, Note_on_c, 0, 52, 0
2, 52920, Note_on_c, 0, 56, 0
2, 52920, Note_on_c, 0, 66, 0
2, 52920, Note_on_c, 0, 60, 0
2, 52920, Note_on_c, 0, 72, 94
2, 52920, Note_on_c, 0, 56, 75
2, 52920, Note_on_c, 0, 60, 75
2, 52920, Note_on_c, 0, 64, 77
2, 52920, Note_on_c, 0, 54, 55
2, 53010, Note_on_c, 0, 64, 0
2, 53010, Note_on_c, 0, 72, 0
2, 53010, Note_on_c, 0, 78, 99
2, 53010, Note_on_c, 0, 63, 75
2, 53100, Note_on_c, 0, 63, 0
2, 53100, Note_on_c, 0, 54, 0
2, 53100, Note_on_c, 0, 56, 0
2, 53100, Note_on_c, 0, 44, 0
2, 53100, Note_on_c, 0, 78, 0
2, 53100, Note_on_c, 0, 60, 0
2, 53100, Note_on_c, 0, 76, 88
2, 53100, Note_on_c, 0, 64, 88
2, 53100, Note_on_c, 0, 68, 88
2, 53100, Note_on_c, 0, 37, 60
2, 53100, Note_on_c, 0, 52, 79
2, 53280, Note_on_c, 0, 56, 48
2, 53280, Note_on_c, 0, 61, 48
2, 53460, Note_on_c, 0, 61, 0
2, 53460, Note_on_c, 0, 56, 0
2, 53460, Note_on_c, 0, 56, 59
2, 53460, Note_on_c, 0, 61, 59
2, 53640, Note_on_c, 0, 61, 0
2, 53640, Note_on_c, 0, 64, 0
2, 53640, Note_on_c, 0, 52, 0
2, 53640, Note_on_c, 0, 68, 0
2, 53640, Note_on_c, 0, 37, 0
2, 53640, Note_on_c, 0, 56, 0
2, 53640, Note_on_c, 0, 73, 89
2, 53640, Note_on_c, 0, 64, 64
2, 53640, Note_on_c, 0, 68, 64
2, 53640, Note_on_c, 0, 61, 75
2, 53730, Note_on_c, 0, 61, 0
2, 53730, Note_on_c, 0, 73, 0
2, 53730, Note_on_c, 0, 71, 70
2, 53730, Note_on_c, 0, 59, 69
2, 53820, Note_on_c, 0, 59, 0
2, 53820, Note_on_c, 0, 76, 0
2, 53820, Note_on_c, 0, 68, 0
2, 53820, Note_on_c, 0, 64, 0
2, 53820, Note_on_c, 0, 71, 0
2, 53820, Note_on_c, 0, 73, 80
2, 53820, Note_on_c, 0, 64, 58
2, 53820, Note_on_c, 0, 68, 58
2, 53820, Note_on_c, 0, 61, 70
2, 54000, Note_on_c, 0, 61, 0
2, 54000, Note_on_c, 0, 73, 0
2, 54000, Note_on_c, 0, 64, 0
2, 54000, Note_on_c, 0, 68, 0
2, 54000, Note_on_c, 0, 76, 87
2, 54000, Note_on_c, 0, 71, 71
2, 54000, Note_on_c, 0, 64, 53
2, 54000, Note_on_c, 0, 68, 53
2, 54000, Note_on_c, 0, 59, 68
2, 54090, Note_on_c, 0, 59, 0
2, 54090, Note_on_c, 0, 71, 0
2, 54090, Note_on_c, 0, 70, 69
2, 54090, Note_on_c, 0, 58, 64
2, 54180, Note_on_c, 0, 58, 0
2, 54180, Note_on_c, 0, 68, 0
2, 54180, Note_on_c, 0, 70, 0
2, 54180, Note_on_c, 0, 64, 0
2, 54180, Note_on_c, 0, 71, 79
2, 54180, Note_on_c, 0, 64, 53
2, 54180, Note_on_c, 0, 68, 53
2, 54180, Note_on_c, 0, 59, 60
2, 54360, Note_on_c, 0, 59, 0
2, 54360, Note_on_c, 0, 64, 0
2, 54360, Note_on_c, 0, 76, 0
2, 54360, Note_on_c, 0, 71, 0
2, 54360, Note_on_c, 0, 68, 0
2, 54360, Note_on_c, 0, 75, 90
2, 54360, Note_on_c, 0, 67, 72
2, 54360, Note_on_c, 0, 61, 50
2, 54360, Note_on_c, 0, 64, 50
2, 54360, Note_on_c, 0, 55, 67
2, 54450, Note_on_c, 0, 55, 0
2, 54450, Note_on_c, 0, 67, 0
2, 54450, Note_on_c, 0, 68, 79
2, 54450, Note_on_c, 0, 56, 66
2, 54540, Note_on_c, 0, 56, 0
2, 54540, Note_on_c, 0, 75, 0
2, 54540, Note_on_c, 0, 64, 0
2, 54540, Note_on_c, 0, 61, 0
2, 54540, Note_on_c, 0, 68, 0
2, 54540, Note_on_c, 0, 73, 85
2, 54540, Note_on_c, 0, 64, 73
2, 54540, Note_on_c, 0, 67, 73
2, 54540, Note_on_c, 0, 70, 95
2, 54540, Note_on_c, 0, 58, 50
2, 54540, Note_on_c, 0, 49, 60
2, 54540, Note_on_c, 0, 55, 60
2, 54720, Note_on_c, 0, 58, 0
2, 54720, Note_on_c, 0, 67, 0
2, 54720, Note_on_c, 0, 64, 0
2, 54720, Note_on_c, 0, 64, 76
2, 54720, Note_on_c, 0, 67, 76
2, 54720, Note_on_c, 0, 58, 53
2, 54900, Note_on_c, 0, 58, 0
2, 54900, Note_on_c, 0, 64, 0
2, 54900, Note_on_c, 0, 73, 0
2, 54900, Note_on_c, 0, 67, 0
2, 54900, Note_on_c, 0, 76, 98
2, 54900, Note_on_c, 0, 64, 76
2, 54900, Note_on_c, 0, 67, 76
2, 54900, Note_on_c, 0, 37, 74
2, 55080, Note_on_c, 0, 67, 0
2, 55080, Note_on_c, 0, 70, 0
2, 55080, Note_on_c, 0, 55, 0
2, 55080, Note_on_c, 0, 49, 0
2, 55080, Note_on_c, 0, 64, 0
2, 55080, Note_on_c, 0, 73, 86
2, 55080, Note_on_c, 0, 64, 48
2, 55080, Note_on_c, 0, 68, 48
2, 55080, Note_on_c, 0, 61, 77
2, 55170, Note_on_c, 0, 61, 0
2, 55170, Note_on_c, 0, 73, 0
2, 55170, Note_on_c, 0, 71, 73
2, 55170, Note_on_c, 0, 59, 66
2, 55260, Note_on_c, 0, 59, 0
2, 55260, Note_on_c, 0, 37, 0
2, 55260, Note_on_c, 0, 68, 0
2, 55260, Note_on_c, 0, 64, 0
2, 55260, Note_on_c, 0, 71, 0
2, 55260, Note_on_c, 0, 73, 77
2, 55260, Note_on_c, 0, 64, 56
2, 55260, Note_on_c, 0, 68, 56
2, 55260, Note_on_c, 0, 61, 73
2, 55440, Note_on_c, 0, 61, 0
2, 55440, Note_on_c, 0, 64, 0
2, 55440, Note_on_c, 0, 76, 0
2, 55440, Note_on_c, 0, 73, 0
2, 55440, Note_on_c, 0, 68, 0
2, 55440, Note_on_c, 0, 76, 86
2, 55440, Note_on_c, 0, 71, 70
2, 55440, Note_on_c, 0, 64, 52
2, 55440, Note_on_c, 0, 68, 52
2, 55440, Note_on_c, 0, 59, 61
2, 55530, Note_on_c, 0, 59, 0
2, 55530, Note_on_c, 0, 71, 0
2, 55530, Note_on_c, 0, 70, 75
2, 55530, Note_on_c, 0, 58, 63
2, 55620, Note_on_c, 0, 58, 0
2, 55620, Note_on_c, 0, 76, 0
2, 55620, Note_on_c, 0, 68, 0
2, 55620, Note_on_c, 0, 64, 0
2, 55620, Note_on_c, 0, 70, 0
2, 55620, Note_on_c, 0, 75, 88
2, 55620, Note_on_c, 0, 71, 80
2, 55620, Note_on_c, 0, 64, 53
2, 55620, Note_on_c, 0, 68, 53
2, 55620, Note_on_c, 0, 59, 67
2, 55800, Note_on_c, 0, 59, 0
2, 55800, Note_on_c, 0, 64, 0
2, 55800, Note_on_c, 0, 75, 0
2, 55800, Note_on_c, 0, 71, 0
2, 55800, Note_on_c, 0, 68, 0
2, 55800, Note_on_c, 0, 73, 87
2, 55800, Note_on_c, 0, 67, 68
2, 55800, Note_on_c, 0, 61, 46
2, 55800, Note_on_c, 0, 64, 46
2, 55800, Note_on_c, 0, 55, 58
2, 55890, Note_on_c, 0, 55, 0
2, 55890, Note_on_c, 0, 73, 0
2, 55890, Note_on_c, 0, 67, 0
2, 55890, Note_on_c, 0, 71, 87
2, 55890, Note_on_c, 0, 68, 82
2, 55890, Note_on_c, 0, 56, 62
2, 55980, Note_on_c, 0, 56, 0
2, 55980, Note_on_c, 0, 71, 0
2, 55980, Note_on_c, 0, 64, 0
2, 55980, Note_on_c, 0, 61, 0
2, 55980, Note_on_c, 0, 68, 0
2, 55980, Note_on_c, 0, 73, 95
2, 55980, Note_on_c, 0, 64, 72
2, 55980, Note_on_c, 0, 67, 72
2, 55980, Note_on_c, 0, 70, 71
2, 55980, Note_on_c, 0, 58, 52
2, 55980, Note_on_c, 0, 49, 63
2, 55980, Note_on_c, 0, 55, 63
2, 56160, Note_on_c, 0, 58, 0
2, 56160, Note_on_c, 0, 67, 0
2, 56160, Note_on_c, 0, 64, 0
2, 56160, Note_on_c, 0, 64, 76
2, 56160, Note_on_c, 0, 67, 76
2, 56160, Note_on_c, 0, 58, 55
2, 56340, Note_on_c, 0, 58, 0
2, 56340, Note_on_c, 0, 64, 0
2, 56340, Note_on_c, 0, 73, 0
2, 56340, Note_on_c, 0, 67, 0
2, 56340, Note_on_c, 0, 76, 100
2, 56340, Note_on_c, 0, 64, 78
2, 56340, Note_on_c, 0, 67, 78
2, 56340, Note_on_c, 0, 37, 77
2, 56520, Note_on_c, 0, 67, 0
2, 56520, Note_on_c, 0, 70, 0
2, 56520, Note_on_c, 0, 55, 0
2, 56520, Note_on_c, 0, 49, 0
2, 56520, Note_on_c, 0, 64, 0
2, 56520, Note_on_c, 0, 64, 75
2, 56520, Note_on_c, 0, 67, 75
2, 56520, Note_on_c, 0, 69, 76
2, 56520, Note_on_c, 0, 57, 50
2, 56610, Note_on_c, 0, 57, 0
2, 56610, Note_on_c, 0, 69, 0
2, 56610, Note_on_c, 0, 68, 74
2, 56610, Note_on_c, 0, 56, 51
2, 56700, Note_on_c, 0, 56, 0
2, 56700, Note_on_c, 0, 37, 0
2, 56700, Note_on_c, 0, 67, 0
2, 56700, Note_on_c, 0, 64, 0
2, 56700, Note_on_c, 0, 68, 0
2, 56700, Note_on_c, 0, 64, 74
2, 56700, Note_on_c, 0, 67, 74
2, 56700, Note_on_c, 0, 69, 83
2, 56700, Note_on_c, 0, 49, 56
2, 56700, Note_on_c, 0, 57, 56
2, 56880, Note_on_c, 0, 67, 0
2, 56880, Note_on_c, 0, 76, 0
2, 56880, Note_on_c, 0, 64, 0
2, 56880, Note_on_c, 0, 78, 90
2, 56880, Note_on_c, 0, 57, 71
2, 56880, Note_on_c, 0, 64, 71
2, 56880, Note_on_c, 0, 67, 71
2, 57060, Note_on_c, 0, 67, 0
2, 57060, Note_on_c, 0, 78, 0
2, 57060, Note_on_c, 0, 57, 0
2, 57060, Note_on_c, 0, 64, 0
2, 57060, Note_on_c, 0, 76, 87
2, 57060, Note_on_c, 0, 64, 75
2, 57060, Note_on_c, 0, 67, 75
2, 57060, Note_on_c, 0, 37, 82
2, 57240, Note_on_c, 0, 67, 0
2, 57240, Note_on_c, 0, 69, 0
2, 57240, Note_on_c, 0, 57, 0
2, 57240, Note_on_c, 0, 49, 0
2, 57240, Note_on_c, 0, 76, 0
2, 57240, Note_on_c, 0, 75, 88
2, 57240, Note_on_c, 0, 68, 77
2, 57240, Note_on_c, 0, 61, 66
2, 57240, Note_on_c, 0, 56, 64
2, 57330, Note_on_c, 0, 56, 0
2, 57330, Note_on_c, 0, 68, 0
2, 57330, Note_on_c, 0, 67, 80
2, 57330, Note_on_c, 0, 55, 66
2, 57420, Note_on_c, 0, 55, 0
2, 57420, Note_on_c, 0, 37, 0
2, 57420, Note_on_c, 0, 61, 0
2, 57420, Note_on_c, 0, 64, 0
2, 57420, Note_on_c, 0, 67, 0
2, 57420, Note_on_c, 0, 75, 0
2, 57420, Note_on_c, 0, 73, 85
2, 57420, Note_on_c, 0, 64, 85
2, 57420, Note_on_c, 0, 68, 85
2, 57420, Note_on_c, 0, 61, 56
2, 57420, Note_on_c, 0, 56, 67
2, 57420, Note_on_c, 0, 49, 87
2, 57600, Note_on_c, 0, 56, 0
2, 57600, Note_on_c, 0, 61, 0
2, 57600, Note_on_c, 0, 68, 0
2, 57600, Note_on_c, 0, 73, 0
2, 57600, Note_on_c, 0, 64, 0
2, 57600, Note_on_c, 0, 75, 96
2, 57600, Note_on_c, 0, 64, 69
2, 57600, Note_on_c, 0, 61, 58
2, 57600, Note_on_c, 0, 52, 64
2, 57690, Note_on_c, 0, 52, 0
2, 57690, Note_on_c, 0, 64, 0
2, 57690, Note_on_c, 0, 66, 80
2, 57690, Note_on_c, 0, 54, 66
2, 57780, Note_on_c, 0, 54, 0
2, 57780, Note_on_c, 0, 49, 0
2, 57780, Note_on_c, 0, 61, 0
2, 57780, Note_on_c, 0, 75, 0
2, 57780, Note_on_c, 0, 66, 0
2, 57780, Note_on_c, 0, 76, 92
2, 57780, Note_on_c, 0, 64, 72
2, 57780, Note_on_c, 0, 67, 81
2, 57780, Note_on_c, 0, 55, 55
2, 57780, Note_on_c, 0, 61, 55
2, 57780, Note_on_c, 0, 47, 60
2, 57960, Note_on_c, 0, 61, 0
2, 57960, Note_on_c, 0, 55, 0
2, 57960, Note_on_c, 0, 64, 0
2, 57960, Note_on_c, 0, 76, 0
2, 57960, Note_on_c, 0, 73, 89
2, 57960, Note_on_c, 0, 64, 74
2, 57960, Note_on_c, 0, 55, 53
2, 57960, Note_on_c, 0, 61, 53
2, 58140, Note_on_c, 0, 61, 0
2, 58140, Note_on_c, 0, 47, 0
2, 58140, Note_on_c, 0, 73, 0
2, 58140, Note_on_c, 0, 64, 0
2, 58140, Note_on_c, 0, 55, 0
2, 58140, Note_on_c, 0, 69, 83
2, 58140, Note_on_c, 0, 61, 77
2, 58140, Note_on_c, 0, 64, 77
2, 58140, Note_on_c, 0, 55, 50
2, 58140, Note_on_c, 0, 45, 59
2, 58320, Note_on_c, 0, 55, 0
2, 58320, Note_on_c, 0, 64, 0
2, 58320, Note_on_c, 0, 61, 0
2, 58320, Note_on_c, 0, 61, 76
2, 58320, Note_on_c, 0, 64, 76
2, 58320, Note_on_c, 0, 55, 52
2, 58500, Note_on_c, 0, 55, 0
2, 58500, Note_on_c, 0, 61, 0
2, 58500, Note_on_c, 0, 64, 0
2, 58500, Note_on_c, 0, 61, 76
2, 58500, Note_on_c, 0, 64, 76
2, 58500, Note_on_c, 0, 55, 54
2, 58590, Note_on_c, 0, 69, 0
2, 58590, Note_on_c, 0, 71, 93
2, 58680, Note_on_c, 0, 71, 0
2, 58680, Note_on_c, 0, 55, 0
2, 58680, Note_on_c, 0, 61, 0
2, 58680, Note_on_c, 0, 45, 0
2, 58680, Note_on_c, 0, 67, 0
2, 58680, Note_on_c, 0, 64, 0
2, 58680, Note_on_c, 0, 73, 94
2, 58680, Note_on_c, 0, 55, 54
2, 58680, Note_on_c, 0, 45, 70
2, 58680, Note_on_c, 0, 57, 70
2, 58770, Note_on_c, 0, 57, 0
2, 58770, Note_on_c, 0, 45, 0
2, 58770, Note_on_c, 0, 73, 0
2, 58770, Note_on_c, 0, 76, 94
2, 58770, Note_on_c, 0, 47, 56
2, 58860, Note_on_c, 0, 47, 0
2, 58860, Note_on_c, 0, 76, 0
2, 58860, Note_on_c, 0, 55, 0
2, 58860, Note_on_c, 0, 66, 97
2, 58860, Note_on_c, 0, 69, 97
2, 58860, Note_on_c, 0, 78, 97
2, 58860, Note_on_c, 0, 49, 68
2, 58860, Note_on_c, 0, 61, 68
2, 58860, Note_on_c, 0, 38, 55
2, 58860, Note_on_c, 0, 54, 73
2, 58860, Note_on_c, 0, 57, 73
2, 59040, Note_on_c, 0, 61, 0
2, 59040, Note_on_c, 0, 49, 0
2, 59040, Note_on_c, 0, 48, 55
2, 59040, Note_on_c, 0, 60, 55
2, 59130, Note_on_c, 0, 60, 0
2, 59130, Note_on_c, 0, 48, 0
2, 59130, Note_on_c, 0, 47, 57
2, 59130, Note_on_c, 0, 59, 57
2, 59220, Note_on_c, 0, 59, 0
2, 59220, Note_on_c, 0, 47, 0
2, 59220, Note_on_c, 0, 48, 53
2, 59220, Note_on_c, 0, 60, 53
2, 59400, Note_on_c, 0, 60, 0
2, 59400, Note_on_c, 0, 48, 0
2, 59400, Note_on_c, 0, 54, 0
2, 59400, Note_on_c, 0, 57, 0
2, 59400, Note_on_c, 0, 44, 51
2, 59400, Note_on_c, 0, 56, 51
2, 59400, Note_on_c, 0, 54, 74
2, 59490, Note_on_c, 0, 56, 0
2, 59490, Note_on_c, 0, 44, 0
2, 59490, Note_on_c, 0, 45, 55
2, 59490, Note_on_c, 0, 57, 55
2, 59580, Note_on_c, 0, 57, 0
2, 59580, Note_on_c, 0, 69, 0
2, 59580, Note_on_c, 0, 54, 0
2, 59580, Note_on_c, 0, 66, 0
2, 59580, Note_on_c, 0, 38, 0
2, 59580, Note_on_c, 0, 45, 0
2, 59580, Note_on_c, 0, 78, 0
2, 59580, Note_on_c, 0, 68, 80
2, 59580, Note_on_c, 0, 56, 70
2, 59580, Note_on_c, 0, 59, 74
2, 59580, Note_on_c, 0, 54, 57
2, 59580, Note_on_c, 0, 38, 5
2, 59580, Note_on_c, 0, 38, 0
2, 59580, Note_on_c, 0, 39, 70
2, 59580, Note_on_c, 0, 47, 78
2, 59760, Note_on_c, 0, 56, 0
2, 59760, Note_on_c, 0, 54, 0
2, 59760, Note_on_c, 0, 56, 72
2, 59760, Note_on_c, 0, 54, 59
2, 59940, Note_on_c, 0, 54, 0
2, 59940, Note_on_c, 0, 47, 0
2, 59940, Note_on_c, 0, 56, 0
2, 59940, Note_on_c, 0, 56, 62
2, 59940, Note_on_c, 0, 54, 85
2, 60030, Note_on_c, 0, 56, 0
2, 60030, Note_on_c, 0, 59, 0
2, 60030, Note_on_c, 0, 48, 60
2, 60030, Note_on_c, 0, 60, 60
2, 60120, Note_on_c, 0, 60, 0
2, 60120, Note_on_c, 0, 68, 0
2, 60120, Note_on_c, 0, 48, 0
2, 60120, Note_on_c, 0, 66, 101
2, 60120, Note_on_c, 0, 73, 101
2, 60120, Note_on_c, 0, 78, 101
2, 60120, Note_on_c, 0, 49, 59
2, 60120, Note_on_c, 0, 61, 59
2, 60210, Note_on_c, 0, 61, 0
2, 60210, Note_on_c, 0, 49, 0
2, 60210, Note_on_c, 0, 50, 48
2, 60300, Note_on_c, 0, 50, 0
2, 60300, Note_on_c, 0, 78, 0
2, 60300, Note_on_c, 0, 66, 0
2, 60300, Note_on_c, 0, 54, 0
2, 60300, Note_on_c, 0, 39, 0
2, 60300, Note_on_c, 0, 73, 0
2, 60300, Note_on_c, 0, 68, 95
2, 60300, Note_on_c, 0, 72, 95
2, 60300, Note_on_c, 0, 80, 95
2, 60300, Note_on_c, 0, 51, 69
2, 60300, Note_on_c, 0, 63, 69
2, 60300, Note_on_c, 0, 40, 63
2, 60300, Note_on_c, 0, 56, 93
2, 60300, Note_on_c, 0, 60, 93
2, 60480, Note_on_c, 0, 63, 0
2, 60480, Note_on_c, 0, 51, 0
2, 60480, Note_on_c, 0, 50, 54
2, 60480, Note_on_c, 0, 62, 54
2, 60570, Note_on_c, 0, 62, 0
2, 60570, Note_on_c, 0, 50, 0
2, 60570, Note_on_c, 0, 49, 60
2, 60570, Note_on_c, 0, 61, 60
2, 60660, Note_on_c, 0, 61, 0
2, 60660, Note_on_c, 0, 49, 0
2, 60660, Note_on_c, 0, 50, 62
2, 60660, Note_on_c, 0, 62, 62
2, 60840, Note_on_c, 0, 62, 0
2, 60840, Note_on_c, 0, 50, 0
2, 60840, Note_on_c, 0, 56, 0
2, 60840, Note_on_c, 0, 60, 0
2, 60840, Note_on_c, 0, 59, 78
2, 60840, Note_on_c, 0, 47, 51
2, 60840, Note_on_c, 0, 56, 82
2, 60930, Note_on_c, 0, 47, 0
2, 60930, Note_on_c, 0, 59, 0
2, 60930, Note_on_c, 0, 60, 78
2, 60930, Note_on_c, 0, 48, 58
2, 61020, Note_on_c, 0, 48, 0
2, 61020, Note_on_c, 0, 40, 0
2, 61020, Note_on_c, 0, 56, 0
2, 61020, Note_on_c, 0, 60, 0
2, 61020, Note_on_c, 0, 61, 77
2, 61020, Note_on_c, 0, 49, 60
2, 61020, Note_on_c, 0, 40, 5
2, 61020, Note_on_c, 0, 40, 0
2, 61020, Note_on_c, 0, 41, 64
2, 61020, Note_on_c, 0, 56, 85
2, 61020, Note_on_c, 0, 60, 85
2, 61200, Note_on_c, 0, 60, 0
2, 61200, Note_on_c, 0, 56, 0
2, 61200, Note_on_c, 0, 56, 76
2, 61200, Note_on_c, 0, 60, 76
2, 61380, Note_on_c, 0, 60, 0
2, 61380, Note_on_c, 0, 61, 0
2, 61380, Note_on_c, 0, 41, 0
2, 61380, Note_on_c, 0, 49, 0
2, 61380, Note_on_c, 0, 68, 0
2, 61380, Note_on_c, 0, 72, 0
2, 61380, Note_on_c, 0, 80, 0
2, 61380, Note_on_c, 0, 56, 0
2, 61380, Note_on_c, 0, 78, 88
2, 61380, Note_on_c, 0, 60, 73
2, 61380, Note_on_c, 0, 48, 54
2, 61380, Note_on_c, 0, 39, 65
2, 61380, Note_on_c, 0, 54, 75
2, 61380, Note_on_c, 0, 57, 75
2, 61560, Note_on_c, 0, 57, 0
2, 61560, Note_on_c, 0, 39, 0
2, 61560, Note_on_c, 0, 60, 0
2, 61560, Note_on_c, 0, 54, 0
2, 61560, Note_on_c, 0, 56, 72
2, 61560, Note_on_c, 0, 38, 65
2, 61560, Note_on_c, 0, 54, 78
2, 61650, Note_on_c, 0, 56, 0
2, 61650, Note_on_c, 0, 57, 74
2, 61740, Note_on_c, 0, 57, 0
2, 61740, Note_on_c, 0, 54, 0
2, 61740, Note_on_c, 0, 48, 0
2, 61740, Note_on_c, 0, 78, 0
2, 61740, Note_on_c, 0, 38, 0
2, 61740, Note_on_c, 0, 65, 85
2, 61740, Note_on_c, 0, 68, 85
2, 61740, Note_on_c, 0, 71, 85
2, 61740, Note_on_c, 0, 77, 85
2, 61740, Note_on_c, 0, 37, 73
2, 61740, Note_on_c, 0, 49, 73
2, 61920, Note_on_c, 0, 49, 0
2, 61920, Note_on_c, 0, 68, 0
2, 61920, Note_on_c, 0, 71, 0
2, 61920, Note_on_c, 0, 65, 0
2, 61920, Note_on_c, 0, 37, 0
2, 61920, Note_on_c, 0, 77, 0
2, 61920, Note_on_c, 0, 63, 87
2, 61920, Note_on_c, 0, 69, 87
2, 61920, Note_on_c, 0, 75, 87
2, 61920, Note_on_c, 0, 53, 50
2, 61920, Note_on_c, 0, 57, 50
2, 61920, Note_on_c, 0, 49, 67
2, 62010, Note_on_c, 0, 57, 0
2, 62010, Note_on_c, 0, 53, 0
2, 62010, Note_on_c, 0, 75, 0
2, 62010, Note_on_c, 0, 63, 0
2, 62010, Note_on_c, 0, 69, 0
2, 62010, Note_on_c, 0, 65, 95
2, 62010, Note_on_c, 0, 68, 95
2, 62010, Note_on_c, 0, 77, 95
2, 62010, Note_on_c, 0, 56, 54
2, 62100, Note_on_c, 0, 56, 0
2, 62100, Note_on_c, 0, 68, 0
2, 62100, Note_on_c, 0, 49, 0
2, 62100, Note_on_c, 0, 65, 0
2, 62100, Note_on_c, 0, 77, 0
2, 62100, Note_on_c, 0, 66, 92
2, 62100, Note_on_c, 0, 69, 92
2, 62100, Note_on_c, 0, 78, 92
2, 62100, Note_on_c, 0, 30, 65
2, 62100, Note_on_c, 0, 42, 65
2, 62280, Note_on_c, 0, 49, 49
2, 62280, Note_on_c, 0, 54, 49
2, 62280, Note_on_c, 0, 57, 49
2, 62460, Note_on_c, 0, 57, 0
2, 62460, Note_on_c, 0, 54, 0
2, 62460, Note_on_c, 0, 42, 0
2, 62460, Note_on_c, 0, 30, 0
2, 62460, Note_on_c, 0, 66, 0
2, 62460, Note_on_c, 0, 49, 0
2, 62460, Note_on_c, 0, 49, 73
2, 62640, Note_on_c, 0, 69, 0
2, 62640, Note_on_c, 0, 78, 0
2, 62640, Note_on_c, 0, 66, 89
2, 62640, Note_on_c, 0, 69, 89
2, 62640, Note_on_c, 0, 76, 89
2, 62640, Note_on_c, 0, 54, 54
2, 62640, Note_on_c, 0, 57, 54
2, 62640, Note_on_c, 0, 61, 54
2, 62820, Note_on_c, 0, 61, 0
2, 62820, Note_on_c, 0, 54, 0
2, 62820, Note_on_c, 0, 66, 0
2, 62820, Note_on_c, 0, 69, 0
2, 62820, Note_on_c, 0, 49, 0
2, 62820, Note_on_c, 0, 57, 0
2, 62820, Note_on_c, 0, 76, 0
2, 62820, Note_on_c, 0, 66, 85
2, 62820, Note_on_c, 0, 75, 85
2, 62820, Note_on_c, 0, 54, 55
2, 62820, Note_on_c, 0, 57, 55
2, 62820, Note_on_c, 0, 61, 55
2, 62820, Note_on_c, 0, 51, 74
2, 63000, Note_on_c, 0, 51, 0
2, 63000, Note_on_c, 0, 75, 0
2, 63000, Note_on_c, 0, 54, 0
2, 63000, Note_on_c, 0, 66, 0
2, 63000, Note_on_c, 0, 61, 0
2, 63000, Note_on_c, 0, 57, 0
2, 63000, Note_on_c, 0, 73, 85
2, 63000, Note_on_c, 0, 65, 90
2, 63000, Note_on_c, 0, 57, 52
2, 63000, Note_on_c, 0, 61, 52
2, 63000, Note_on_c, 0, 53, 66
2, 63090, Note_on_c, 0, 65, 0
2, 63090, Note_on_c, 0, 63, 74
2, 63180, Note_on_c, 0, 63, 0
2, 63180, Note_on_c, 0, 53, 0
2, 63180, Note_on_c, 0, 73, 0
2, 63180, Note_on_c, 0, 57, 0
2, 63180, Note_on_c, 0, 61, 0
2, 63180, Note_on_c, 0, 72, 88
2, 63180, Note_on_c, 0, 60, 79
2, 63180, Note_on_c, 0, 64, 79
2, 63180, Note_on_c, 0, 52, 51
2, 63180, Note_on_c, 0, 56, 51
2, 63180, Note_on_c, 0, 42, 68
2, 63360, Note_on_c, 0, 56, 0
2, 63360, Note_on_c, 0, 52, 0
2, 63360, Note_on_c, 0, 64, 0
2, 63360, Note_on_c, 0, 72, 0
2, 63360, Note_on_c, 0, 60, 0
2, 63360, Note_on_c, 0, 71, 90
2, 63360, Note_on_c, 0, 60, 69
2, 63360, Note_on_c, 0, 62, 69
2, 63360, Note_on_c, 0, 54, 53
2, 63360, Note_on_c, 0, 57, 53
2, 63450, Note_on_c, 0, 62, 0
2, 63450, Note_on_c, 0, 60, 0
2, 63450, Note_on_c, 0, 71, 0
2, 63450, Note_on_c, 0, 72, 93
2, 63450, Note_on_c, 0, 63, 82
2, 63540, Note_on_c, 0, 63, 0
2, 63540, Note_on_c, 0, 57, 0
2, 63540, Note_on_c, 0, 72, 0
2, 63540, Note_on_c, 0, 54, 0
2, 63540, Note_on_c, 0, 73, 92
2, 63540, Note_on_c, 0, 64, 81
2, 63540, Note_on_c, 0, 57, 66
2, 63540, Note_on_c, 0, 61, 66
2, 63540, Note_on_c, 0, 52, 63
2, 63720, Note_on_c, 0, 61, 0
2, 63720, Note_on_c, 0, 57, 0
2, 63720, Note_on_c, 0, 57, 59
2, 63720, Note_on_c, 0, 61, 59
2, 63900, Note_on_c, 0, 61, 0
2, 63900, Note_on_c, 0, 57, 0
2, 63900, Note_on_c, 0, 57, 54
2, 63900, Note_on_c, 0, 61, 54
2, 64080, Note_on_c, 0, 61, 0
2, 64080, Note_on_c, 0, 73, 0
2, 64080, Note_on_c, 0, 64, 0
2, 64080, Note_on_c, 0, 57, 0
2, 64080, Note_on_c, 0, 71, 87
2, 64080, Note_on_c, 0, 63, 71
2, 64080, Note_on_c, 0, 57, 58
2, 64080, Note_on_c, 0, 61, 58
2, 64170, Note_on_c, 0, 63, 0
2, 64170, Note_on_c, 0, 64, 73
2, 64260, Note_on_c, 0, 64, 0
2, 64260, Note_on_c, 0, 61, 0
2, 64260, Note_on_c, 0, 42, 0
2, 64260, Note_on_c, 0, 52, 0
2, 64260, Note_on_c, 0, 57, 0
2, 64260, Note_on_c, 0, 66, 80
2, 64260, Note_on_c, 0, 57, 61
2, 64260, Note_on_c, 0, 61, 61
2, 64260, Note_on_c, 0, 51, 62
2, 64440, Note_on_c, 0, 51, 0
2, 64440, Note_on_c, 0, 57, 0
2, 64440, Note_on_c, 0, 71, 0
2, 64440, Note_on_c, 0, 66, 0
2, 64440, Note_on_c, 0, 61, 0
2, 64440, Note_on_c, 0, 69, 89
2, 64440, Note_on_c, 0, 64, 73
2, 64440, Note_on_c, 0, 57, 52
2, 64440, Note_on_c, 0, 59, 52
2, 64440, Note_on_c, 0, 50, 63
2, 64530, Note_on_c, 0, 50, 0
2, 64530, Note_on_c, 0, 64, 0
2, 64530, Note_on_c, 0, 66, 81
2, 64530, Note_on_c, 0, 51, 67
2, 64620, Note_on_c, 0, 51, 0
2, 64620, Note_on_c, 0, 69, 0
2, 64620, Note_on_c, 0, 59, 0
2, 64620, Note_on_c, 0, 57, 0
2, 64620, Note_on_c, 0, 66, 0
2, 64620, Note_on_c, 0, 68, 82
2, 64620, Note_on_c, 0, 56, 65
2, 64620, Note_on_c, 0, 61, 65
2, 64620, Note_on_c, 0, 68, 71
2, 64620, Note_on_c, 0, 52, 49
2, 64620, Note_on_c, 0, 44, 58
2, 64800, Note_on_c, 0, 52, 0
2, 64800, Note_on_c, 0, 61, 0
2, 64800, Note_on_c, 0, 56, 0
2, 64800, Note_on_c, 0, 57, 76
2, 64800, Note_on_c, 0, 61, 76
2, 64800, Note_on_c, 0, 54, 55
2, 64890, Note_on_c, 0, 68, 0
2, 64890, Note_on_c, 0, 66, 85
2, 64980, Note_on_c, 0, 66, 0
2, 64980, Note_on_c, 0, 54, 0
2, 64980, Note_on_c, 0, 57, 0
2, 64980, Note_on_c, 0, 61, 0
2, 64980, Note_on_c, 0, 64, 87
2, 64980, Note_on_c, 0, 58, 72
2, 64980, Note_on_c, 0, 61, 72
2, 64980, Note_on_c, 0, 55, 57
2, 65070, Note_on_c, 0, 64, 0
2, 65070, Note_on_c, 0, 66, 90
2, 65160, Note_on_c, 0, 66, 0
2, 65160, Note_on_c, 0, 55, 0
2, 65160, Note_on_c, 0, 58, 0
2, 65160, Note_on_c, 0, 61, 0
2, 65160, Note_on_c, 0, 63, 86
2, 65160, Note_on_c, 0, 60, 74
2, 65160, Note_on_c, 0, 56, 60
2, 65340, Note_on_c, 0, 60, 0
2, 65340, Note_on_c, 0, 63, 0
2, 65340, Note_on_c, 0, 68, 0
2, 65340, Note_on_c, 0, 44, 0
2, 65340, Note_on_c, 0, 61, 87
2, 65340, Note_on_c, 0, 49, 56
2, 65340, Note_on_c, 0, 52, 70
2, 65520, Note_on_c, 0, 52, 0
2, 65520, Note_on_c, 0, 61, 82
2, 65520, Note_on_c, 0, 64, 82
2, 65700, Note_on_c, 0, 64, 0
2, 65700, Note_on_c, 0, 61, 0
2, 65700, Note_on_c, 0, 61, 64
2, 65700, Note_on_c, 0, 64, 64
2, 65880, Note_on_c, 0, 64, 0
2, 65880, Note_on_c, 0, 61, 0
2, 65880, Note_on_c, 0, 56, 0
2, 65880, Note_on_c, 0, 49, 0
2, 65880, Note_on_c, 0, 54, 52
2, 65970, Note_on_c, 0, 54, 0
2, 65970, Note_on_c, 0, 56, 54
2, 66060, Note_on_c, 0, 56, 0
2, 66060, Note_on_c, 0, 61, 0
2, 66060, Note_on_c, 0, 57, 82
2, 66240, Note_on_c, 0, 75, 86
2, 66240, Note_on_c, 0, 60, 68
2, 66240, Note_on_c, 0, 63, 68
2, 66240, Note_on_c, 0, 66, 68
2, 66420, Note_on_c, 0, 66, 0
2, 66420, Note_on_c, 0, 60, 0
2, 66420, Note_on_c, 0, 63, 0
2, 66420, Note_on_c, 0, 60, 66
2, 66420, Note_on_c, 0, 63, 66
2, 66420, Note_on_c, 0, 66, 66
2, 66600, Note_on_c, 0, 66, 0
2, 66600, Note_on_c, 0, 60, 0
2, 66600, Note_on_c, 0, 63, 0
2, 66600, Note_on_c, 0, 75, 0
2, 66600, Note_on_c, 0, 73, 85
2, 66600, Note_on_c, 0, 66, 88
2, 66600, Note_on_c, 0, 60, 59
2, 66600, Note_on_c, 0, 63, 59
2, 66690, Note_on_c, 0, 66, 0
2, 66690, Note_on_c, 0, 64, 81
2, 66690, Note_on_c, 0, 68, 81
2, 66780, Note_on_c, 0, 68, 0
2, 66780, Note_on_c, 0, 73, 0
2, 66780, Note_on_c, 0, 63, 0
2, 66780, Note_on_c, 0, 57, 0
2, 66780, Note_on_c, 0, 64, 0
2, 66780, Note_on_c, 0, 60, 0
2, 66780, Note_on_c, 0, 72, 84
2, 66780, Note_on_c, 0, 63, 73
2, 66780, Note_on_c, 0, 66, 73
2, 66780, Note_on_c, 0, 32, 60
2, 66960, Note_on_c, 0, 32, 0
2, 66960, Note_on_c, 0, 66, 0
2, 66960, Note_on_c, 0, 63, 0
2, 66960, Note_on_c, 0, 60, 72
2, 66960, Note_on_c, 0, 63, 72
2, 66960, Note_on_c, 0, 66, 72
2, 66960, Note_on_c, 0, 44, 66
2, 66960, Note_on_c, 0, 51, 66
2, 67140, Note_on_c, 0, 66, 0
2, 67140, Note_on_c, 0, 63, 0
2, 67140, Note_on_c, 0, 72, 0
2, 67140, Note_on_c, 0, 60, 0
2, 67140, Note_on_c, 0, 75, 101
2, 67140, Note_on_c, 0, 63, 75
2, 67140, Note_on_c, 0, 66, 75
2, 67140, Note_on_c, 0, 60, 50
2, 67320, Note_on_c, 0, 60, 0
2, 67320, Note_on_c, 0, 63, 0
2, 67320, Note_on_c, 0, 51, 0
2, 67320, Note_on_c, 0, 44, 0
2, 67320, Note_on_c, 0, 66, 0
2, 67320, Note_on_c, 0, 66, 85
2, 67320, Note_on_c, 0, 69, 85
2, 67320, Note_on_c, 0, 60, 52
2, 67320, Note_on_c, 0, 57, 76
2, 67410, Note_on_c, 0, 57, 0
2, 67410, Note_on_c, 0, 69, 0
2, 67410, Note_on_c, 0, 66, 0
2, 67410, Note_on_c, 0, 64, 72
2, 67410, Note_on_c, 0, 68, 72
2, 67410, Note_on_c, 0, 56, 67
2, 67500, Note_on_c, 0, 56, 0
2, 67500, Note_on_c, 0, 64, 0
2, 67500, Note_on_c, 0, 68, 0
2, 67500, Note_on_c, 0, 60, 0
2, 67500, Note_on_c, 0, 66, 79
2, 67500, Note_on_c, 0, 69, 79
2, 67500, Note_on_c, 0, 60, 52
2, 67500, Note_on_c, 0, 57, 65
2, 67680, Note_on_c, 0, 57, 0
2, 67680, Note_on_c, 0, 69, 0
2, 67680, Note_on_c, 0, 75, 0
2, 67680, Note_on_c, 0, 66, 0
2, 67680, Note_on_c, 0, 60, 0
2, 67680, Note_on_c, 0, 75, 93
2, 67680, Note_on_c, 0, 64, 74
2, 67680, Note_on_c, 0, 68, 74
2, 67680, Note_on_c, 0, 57, 60
2, 67680, Note_on_c, 0, 60, 60
2, 67680, Note_on_c, 0, 56, 61
2, 67770, Note_on_c, 0, 56, 0
2, 67770, Note_on_c, 0, 64, 0
2, 67770, Note_on_c, 0, 68, 0
2, 67770, Note_on_c, 0, 63, 71
2, 67770, Note_on_c, 0, 66, 71
2, 67770, Note_on_c, 0, 54, 62
2, 67860, Note_on_c, 0, 54, 0
2, 67860, Note_on_c, 0, 57, 0
2, 67860, Note_on_c, 0, 60, 0
2, 67860, Note_on_c, 0, 63, 0
2, 67860, Note_on_c, 0, 66, 0
2, 67860, Note_on_c, 0, 64, 77
2, 67860, Note_on_c, 0, 68, 77
2, 67860, Note_on_c, 0, 57, 57
2, 67860, Note_on_c, 0, 60, 57
2, 67860, Note_on_c, 0, 56, 70
2, 68040, Note_on_c, 0, 56, 0
2, 68040, Note_on_c, 0, 64, 0
2, 68040, Note_on_c, 0, 68, 0
2, 68040, Note_on_c, 0, 75, 0
2, 68040, Note_on_c, 0, 60, 0
2, 68040, Note_on_c, 0, 57, 0
2, 68040, Note_on_c, 0, 73, 82
2, 68040, Note_on_c, 0, 63, 74
2, 68040, Note_on_c, 0, 66, 74
2, 68040, Note_on_c, 0, 57, 52
2, 68040, Note_on_c, 0, 60, 52
2, 68040, Note_on_c, 0, 54, 66
2, 68130, Note_on_c, 0, 54, 0
2, 68130, Note_on_c, 0, 63, 0
2, 68130, Note_on_c, 0, 66, 0
2, 68130, Note_on_c, 0, 64, 79
2, 68130, Note_on_c, 0, 68, 79
2, 68130, Note_on_c, 0, 56, 67
2, 68220, Note_on_c, 0, 56, 0
2, 68220, Note_on_c, 0, 57, 0
2, 68220, Note_on_c, 0, 73, 0
2, 68220, Note_on_c, 0, 60, 0
2, 68220, Note_on_c, 0, 68, 0
2, 68220, Note_on_c, 0, 64, 0
2, 68220, Note_on_c, 0, 72, 84
2, 68220, Note_on_c, 0, 63, 69
2, 68220, Note_on_c, 0, 66, 69
2, 68220, Note_on_c, 0, 69, 82
2, 68220, Note_on_c, 0, 60, 56
2, 68220, Note_on_c, 0, 57, 70
2, 68400, Note_on_c, 0, 60, 0
2, 68400, Note_on_c, 0, 66, 0
2, 68400, Note_on_c, 0, 63, 0
2, 68400, Note_on_c, 0, 60, 72
2, 68400, Note_on_c, 0, 63, 72
2, 68400, Note_on_c, 0, 66, 72
2, 68580, Note_on_c, 0, 66, 0
2, 68580, Note_on_c, 0, 60, 0
2, 68580, Note_on_c, 0, 72, 0
2, 68580, Note_on_c, 0, 63, 0
2, 68580, Note_on_c, 0, 75, 97
2, 68580, Note_on_c, 0, 63, 74
2, 68580, Note_on_c, 0, 66, 74
2, 68580, Note_on_c, 0, 60, 51
2, 68760, Note_on_c, 0, 60, 0
2, 68760, Note_on_c, 0, 63, 0
2, 68760, Note_on_c, 0, 69, 0
2, 68760, Note_on_c, 0, 57, 0
2, 68760, Note_on_c, 0, 66, 0
2, 68760, Note_on_c, 0, 60, 66
2, 68760, Note_on_c, 0, 63, 66
2, 68760, Note_on_c, 0, 66, 76
2, 68850, Note_on_c, 0, 66, 0
2, 68850, Note_on_c, 0, 64, 86
2, 68850, Note_on_c, 0, 68, 86
2, 68940, Note_on_c, 0, 68, 0
2, 68940, Note_on_c, 0, 63, 0
2, 68940, Note_on_c, 0, 64, 0
2, 68940, Note_on_c, 0, 60, 0
2, 68940, Note_on_c, 0, 57, 71
2, 68940, Note_on_c, 0, 61, 71
2, 68940, Note_on_c, 0, 66, 84
2, 68940, Note_on_c, 0, 69, 84
2, 68940, Note_on_c, 0, 42, 58
2, 68940, Note_on_c, 0, 49, 58
2, 69120, Note_on_c, 0, 61, 0
2, 69120, Note_on_c, 0, 75, 0
2, 69120, Note_on_c, 0, 57, 0
2, 69120, Note_on_c, 0, 76, 93
2, 69120, Note_on_c, 0, 57, 75
2, 69120, Note_on_c, 0, 61, 75
2, 69300, Note_on_c, 0, 61, 0
2, 69300, Note_on_c, 0, 76, 0
2, 69300, Note_on_c, 0, 57, 0
2, 69300, Note_on_c, 0, 75, 88
2, 69300, Note_on_c, 0, 57, 77
2, 69300, Note_on_c, 0, 61, 77
2, 69480, Note_on_c, 0, 61, 0
2, 69480, Note_on_c, 0, 75, 0
2, 69480, Note_on_c, 0, 66, 0
2, 69480, Note_on_c, 0, 69, 0
2, 69480, Note_on_c, 0, 57, 0
2, 69480, Note_on_c, 0, 73, 87
2, 69480, Note_on_c, 0, 57, 82
2, 69480, Note_on_c, 0, 61, 82
2, 69480, Note_on_c, 0, 64, 75
2, 69480, Note_on_c, 0, 68, 75
2, 69570, Note_on_c, 0, 68, 0
2, 69570, Note_on_c, 0, 64, 0
2, 69570, Note_on_c, 0, 66, 73
2, 69660, Note_on_c, 0, 66, 0
2, 69660, Note_on_c, 0, 61, 0
2, 69660, Note_on_c, 0, 73, 0
2, 69660, Note_on_c, 0, 42, 0
2, 69660, Note_on_c, 0, 49, 0
2, 69660, Note_on_c, 0, 57, 0
2, 69660, Note_on_c, 0, 71, 90
2, 69660, Note_on_c, 0, 57, 78
2, 69660, Note_on_c, 0, 59, 78
2, 69660, Note_on_c, 0, 63, 78
2, 69660, Note_on_c, 0, 68, 87
2, 69660, Note_on_c, 0, 35, 62
2, 69660, Note_on_c, 0, 47, 62
2, 69840, Note_on_c, 0, 63, 0
2, 69840, Note_on_c, 0, 59, 0
2, 69840, Note_on_c, 0, 71, 0
2, 69840, Note_on_c, 0, 57, 0
2, 69840, Note_on_c, 0, 73, 91
2, 69840, Note_on_c, 0, 57, 72
2, 69840, Note_on_c, 0, 59, 72
2, 69840, Note_on_c, 0, 63, 72
2, 70020, Note_on_c, 0, 63, 0
2, 70020, Note_on_c, 0, 57, 0
2, 70020, Note_on_c, 0, 73, 0
2, 70020, Note_on_c, 0, 59, 0
2, 70020, Note_on_c, 0, 75, 94
2, 70020, Note_on_c, 0, 57, 78
2, 70020, Note_on_c, 0, 59, 78
2, 70020, Note_on_c, 0, 63, 78
2, 70200, Note_on_c, 0, 63, 0
2, 70200, Note_on_c, 0, 57, 0
2, 70200, Note_on_c, 0, 75, 0
2, 70200, Note_on_c, 0, 68, 0
2, 70200, Note_on_c, 0, 59, 0
2, 70200, Note_on_c, 0, 71, 82
2, 70200, Note_on_c, 0, 57, 74
2, 70200, Note_on_c, 0, 59, 74
2, 70200, Note_on_c, 0, 66, 79
2, 70290, Note_on_c, 0, 66, 0
2, 70290, Note_on_c, 0, 64, 73
2, 70380, Note_on_c, 0, 64, 0
2, 70380, Note_on_c, 0, 59, 0
2, 70380, Note_on_c, 0, 71, 0
2, 70380, Note_on_c, 0, 35, 0
2, 70380, Note_on_c, 0, 47, 0
2, 70380, Note_on_c, 0, 57, 0
2, 70380, Note_on_c, 0, 68, 86
2, 70380, Note_on_c, 0, 56, 74
2, 70380, Note_on_c, 0, 59, 74
2, 70380, Note_on_c, 0, 66, 85
2, 70380, Note_on_c, 0, 51, 53
2, 70380, Note_on_c, 0, 44, 65
2, 70560, Note_on_c, 0, 59, 0
2, 70560, Note_on_c, 0, 56, 0
2, 70560, Note_on_c, 0, 56, 76
2, 70560, Note_on_c, 0, 59, 76
2, 70740, Note_on_c, 0, 59, 0
2, 70740, Note_on_c, 0, 51, 0
2, 70740, Note_on_c, 0, 56, 0
2, 70740, Note_on_c, 0, 56, 79
2, 70740, Note_on_c, 0, 60, 79
2, 70740, Note_on_c, 0, 52, 56
2, 70830, Note_on_c, 0, 68, 0
2, 70830, Note_on_c, 0, 70, 93
2, 70920, Note_on_c, 0, 70, 0
2, 70920, Note_on_c, 0, 52, 0
2, 70920, Note_on_c, 0, 56, 0
2, 70920, Note_on_c, 0, 66, 0
2, 70920, Note_on_c, 0, 60, 0
2, 70920, Note_on_c, 0, 72, 94
2, 70920, Note_on_c, 0, 56, 76
2, 70920, Note_on_c, 0, 60, 76
2, 70920, Note_on_c, 0, 64, 77
2, 70920, Note_on_c, 0, 54, 61
2, 71010, Note_on_c, 0, 64, 0
2, 71010, Note_on_c, 0, 72, 0
2, 71010, Note_on_c, 0, 78, 103
2, 71010, Note_on_c, 0, 63, 77
2, 71100, Note_on_c, 0, 63, 0
2, 71100, Note_on_c, 0, 54, 0
2, 71100, Note_on_c, 0, 56, 0
2, 71100, Note_on_c, 0, 44, 0
2, 71100, Note_on_c, 0, 78, 0
2, 71100, Note_on_c, 0, 60, 0
2, 71100, Note_on_c, 0, 76, 87
2, 71100, Note_on_c, 0, 64, 86
2, 71100, Note_on_c, 0, 68, 86
2, 71100, Note_on_c, 0, 37, 61
2, 71100, Note_on_c, 0, 52, 92
2, 71280, Note_on_c, 0, 56, 54
2, 71280, Note_on_c, 0, 61, 54
2, 71460, Note_on_c, 0, 61, 0
2, 71460, Note_on_c, 0, 56, 0
2, 71460, Note_on_c, 0, 56, 56
2, 71460, Note_on_c, 0, 61, 56
2, 71640, Note_on_c, 0, 61, 0
2, 71640, Note_on_c, 0, 64, 0
2, 71640, Note_on_c, 0, 52, 0
2, 71640, Note_on_c, 0, 68, 0
2, 71640, Note_on_c, 0, 37, 0
2, 71640, Note_on_c, 0, 56, 0
2, 71640, Note_on_c, 0, 73, 84
2, 71640, Note_on_c, 0, 64, 65
2, 71640, Note_on_c, 0, 68, 65
2, 71640, Note_on_c, 0, 61, 84
2, 71730, Note_on_c, 0, 61, 0
2, 71730, Note_on_c, 0, 73, 0
2, 71730, Note_on_c, 0, 71, 70
2, 71730, Note_on_c, 0, 59, 62
2, 71820, Note_on_c, 0, 59, 0
2, 71820, Note_on_c, 0, 76, 0
2, 71820, Note_on_c, 0, 68, 0
2, 71820, Note_on_c, 0, 64, 0
2, 71820, Note_on_c, 0, 71, 0
2, 71820, Note_on_c, 0, 73, 75
2, 71820, Note_on_c, 0, 64, 59
2, 71820, Note_on_c, 0, 68, 59
2, 71820, Note_on_c, 0, 61, 69
2, 72000, Note_on_c, 0, 61, 0
2, 72000, Note_on_c, 0, 73, 0
2, 72000, Note_on_c, 0, 64, 0
2, 72000, Note_on_c, 0, 68, 0
2, 72000, Note_on_c, 0, 76, 86
2, 72000, Note_on_c, 0, 71, 68
2, 72000, Note_on_c, 0, 64, 52
2, 72000, Note_on_c, 0, 68, 52
2, 72000, Note_on_c, 0, 59, 60
2, 72090, Note_on_c, 0, 59, 0
2, 72090, Note_on_c, 0, 71, 0
2, 72090, Note_on_c, 0, 70, 75
2, 72090, Note_on_c, 0, 58, 66
2, 72180, Note_on_c, 0, 58, 0
2, 72180, Note_on_c, 0, 68, 0
2, 72180, Note_on_c, 0, 70, 0
2, 72180, Note_on_c, 0, 64, 0
2, 72180, Note_on_c, 0, 71, 82
2, 72180, Note_on_c, 0, 64, 53
2, 72180, Note_on_c, 0, 68, 53
2, 72180, Note_on_c, 0, 59, 73
2, 72360, Note_on_c, 0, 59, 0
2, 72360, Note_on_c, 0, 64, 0
2, 72360, Note_on_c, 0, 76, 0
2, 72360, Note_on_c, 0, 71, 0
2, 72360, Note_on_c, 0, 68, 0
2, 72360, Note_on_c, 0, 75, 90
2, 72360, Note_on_c, 0, 67, 67
2, 72360, Note_on_c, 0, 61, 48
2, 72360, Note_on_c, 0, 64, 48
2, 72360, Note_on_c, 0, 55, 60
2, 72450, Note_on_c, 0, 55, 0
2, 72450, Note_on_c, 0, 67, 0
2, 72450, Note_on_c, 0, 68, 77
2, 72450, Note_on_c, 0, 56, 62
2, 72540, Note_on_c, 0, 56, 0
2, 72540, Note_on_c, 0, 75, 0
2, 72540, Note_on_c, 0, 64, 0
2, 72540, Note_on_c, 0, 61, 0
2, 72540, Note_on_c, 0, 68, 0
2, 72540, Note_on_c, 0, 73, 89
2, 72540, Note_on_c, 0, 64, 70
2, 72540, Note_on_c, 0, 67, 70
2, 72540, Note_on_c, 0, 70, 95
2, 72540, Note_on_c, 0, 58, 50
2, 72540, Note_on_c, 0, 49, 65
2, 72540, Note_on_c, 0, 55, 65
2, 72720, Note_on_c, 0, 58, 0
2, 72720, Note_on_c, 0, 67, 0
2, 72720, Note_on_c, 0, 64, 0
2, 72720, Note_on_c, 0, 64, 74
2, 72720, Note_on_c, 0, 67, 74
2, 72720, Note_on_c, 0, 58, 58
2, 72900, Note_on_c, 0, 58, 0
2, 72900, Note_on_c, 0, 64, 0
2, 72900, Note_on_c, 0, 73, 0
2, 72900, Note_on_c, 0, 67, 0
2, 72900, Note_on_c, 0, 76, 95
2, 72900, Note_on_c, 0, 64, 75
2, 72900, Note_on_c, 0, 67, 75
2, 72900, Note_on_c, 0, 37, 72
2, 73080, Note_on_c, 0, 67, 0
2, 73080, Note_on_c, 0, 70, 0
2, 73080, Note_on_c, 0, 55, 0
2, 73080, Note_on_c, 0, 49, 0
2, 73080, Note_on_c, 0, 64, 0
2, 73080, Note_on_c, 0, 73, 87
2, 73080, Note_on_c, 0, 64, 51
2, 73080, Note_on_c, 0, 68, 51
2, 73080, Note_on_c, 0, 61, 83
2, 73170, Note_on_c, 0, 61, 0
2, 73170, Note_on_c, 0, 73, 0
2, 73170, Note_on_c, 0, 71, 76
2, 73170, Note_on_c, 0, 59, 63
2, 73260, Note_on_c, 0, 59, 0
2, 73260, Note_on_c, 0, 37, 0
2, 73260, Note_on_c, 0, 68, 0
2, 73260, Note_on_c, 0, 64, 0
2, 73260, Note_on_c, 0, 71, 0
2, 73260, Note_on_c, 0, 73, 75
2, 73260, Note_on_c, 0, 64, 51
2, 73260, Note_on_c, 0, 68, 51
2, 73260, Note_on_c, 0, 61, 70
2, 73440, Note_on_c, 0, 61, 0
2, 73440, Note_on_c, 0, 64, 0
2, 73440, Note_on_c, 0, 76, 0
2, 73440, Note_on_c, 0, 73, 0
2, 73440, Note_on_c, 0, 68, 0
2, 73440, Note_on_c, 0, 76, 89
2, 73440, Note_on_c, 0, 71, 73
2, 73440, Note_on_c, 0, 64, 55
2, 73440, Note_on_c, 0, 68, 55
2, 73440, Note_on_c, 0, 59, 62
2, 73530, Note_on_c, 0, 59, 0
2, 73530, Note_on_c, 0, 71, 0
2, 73530, Note_on_c, 0, 70, 71
2, 73530, Note_on_c, 0, 58, 64
2, 73620, Note_on_c, 0, 58, 0
2, 73620, Note_on_c, 0, 76, 0
2, 73620, Note_on_c, 0, 68, 0
2, 73620, Note_on_c, 0, 64, 0
2, 73620, Note_on_c, 0, 70, 0
2, 73620, Note_on_c, 0, 75, 86
2, 73620, Note_on_c, 0, 71, 78
2, 73620, Note_on_c, 0, 64, 58
2, 73620, Note_on_c, 0, 68, 58
2, 73620, Note_on_c, 0, 59, 64
2, 73800, Note_on_c, 0, 59, 0
2, 73800, Note_on_c, 0, 64, 0
2, 73800, Note_on_c, 0, 75, 0
2, 73800, Note_on_c, 0, 71, 0
2, 73800, Note_on_c, 0, 68, 0
2, 73800, Note_on_c, 0, 73, 84
2, 73800, Note_on_c, 0, 67, 71
2, 73800, Note_on_c, 0, 61, 50
2, 73800, Note_on_c, 0, 64, 50
2, 73800, Note_on_c, 0, 55, 61
2, 73890, Note_on_c, 0, 55, 0
2, 73890, Note_on_c, 0, 73, 0
2, 73890, Note_on_c, 0, 67, 0
2, 73890, Note_on_c, 0, 71, 85
2, 73890, Note_on_c, 0, 68, 78
2, 73890, Note_on_c, 0, 56, 65
2, 73980, Note_on_c, 0, 56, 0
2, 73980, Note_on_c, 0, 71, 0
2, 73980, Note_on_c, 0, 64, 0
2, 73980, Note_on_c, 0, 61, 0
2, 73980, Note_on_c, 0, 68, 0
2, 73980, Note_on_c, 0, 73, 92
2, 73980, Note_on_c, 0, 64, 73
2, 73980, Note_on_c, 0, 67, 73
2, 73980, Note_on_c, 0, 70, 77
2, 73980, Note_on_c, 0, 58, 49
2, 73980, Note_on_c, 0, 49, 61
2, 73980, Note_on_c, 0, 55, 61
2, 74160, Note_on_c, 0, 58, 0
2, 74160, Note_on_c, 0, 67, 0
2, 74160, Note_on_c, 0, 64, 0
2, 74160, Note_on_c, 0, 64, 77
2, 74160, Note_on_c, 0, 67, 77
2, 74160, Note_on_c, 0, 58, 56
2, 74340, Note_on_c, 0, 58, 0
2, 74340, Note_on_c, 0, 64, 0
2, 74340, Note_on_c, 0, 73, 0
2, 74340, Note_on_c, 0, 67, 0
2, 74340, Note_on_c, 0, 76, 97
2, 74340, Note_on_c, 0, 64, 76
2, 74340, Note_on_c, 0, 67, 76
2, 74340, Note_on_c, 0, 37, 81
2, 74520, Note_on_c, 0, 67, 0
2, 74520, Note_on_c, 0, 70, 0
2, 74520, Note_on_c, 0, 55, 0
2, 74520, Note_on_c, 0, 49, 0
2, 74520, Note_on_c, 0, 64, 0
2, 74520, Note_on_c, 0, 64, 77
2, 74520, Note_on_c, 0, 67, 77
2, 74520, Note_on_c, 0, 69, 81
2, 74520, Note_on_c, 0, 57, 47
2, 74610, Note_on_c, 0, 57, 0
2, 74610, Note_on_c, 0, 69, 0
2, 74610, Note_on_c, 0, 68, 77
2, 74610, Note_on_c, 0, 56, 57
2, 74700, Note_on_c, 0, 56, 0
2, 74700, Note_on_c, 0, 37, 0
2, 74700, Note_on_c, 0, 67, 0
2, 74700, Note_on_c, 0, 64, 0
2, 74700, Note_on_c, 0, 68, 0
2, 74700, Note_on_c, 0, 64, 81
2, 74700, Note_on_c, 0, 67, 81
2, 74700, Note_on_c, 0, 69, 86
2, 74700, Note_on_c, 0, 49, 58
2, 74700, Note_on_c, 0, 57, 58
2, 74880, Note_on_c, 0, 67, 0
2, 74880, Note_on_c, 0, 76, 0
2, 74880, Note_on_c, 0, 64, 0
2, 74880, Note_on_c, 0, 78, 89
2, 74880, Note_on_c, 0, 57, 74
2, 74880, Note_on_c, 0, 64, 74
2, 74880, Note_on_c, 0, 67, 74
2, 75060, Note_on_c, 0, 67, 0
2, 75060, Note_on_c, 0, 78, 0
2, 75060, Note_on_c, 0, 57, 0
2, 75060, Note_on_c, 0, 64, 0
2, 75060, Note_on_c, 0, 76, 90
2, 75060, Note_on_c, 0, 64, 73
2, 75060, Note_on_c, 0, 67, 73
2, 75060, Note_on_c, 0, 37, 75
2, 75240, Note_on_c, 0, 67, 0
2, 75240, Note_on_c, 0, 69, 0
2, 75240, Note_on_c, 0, 57, 0
2, 75240, Note_on_c, 0, 49, 0
2, 75240, Note_on_c, 0, 76, 0
2, 75240, Note_on_c, 0, 75, 86
2, 75240, Note_on_c, 0, 68, 78
2, 75240, Note_on_c, 0, 61, 59
2, 75240, Note_on_c, 0, 56, 67
2, 75330, Note_on_c, 0, 56, 0
2, 75330, Note_on_c, 0, 68, 0
2, 75330, Note_on_c, 0, 67, 76
2, 75330, Note_on_c, 0, 55, 66
2, 75420, Note_on_c, 0, 55, 0
2, 75420, Note_on_c, 0, 37, 0
2, 75420, Note_on_c, 0, 61, 0
2, 75420, Note_on_c, 0, 64, 0
2, 75420, Note_on_c, 0, 67, 0
2, 75420, Note_on_c, 0, 75, 0
2, 75420, Note_on_c, 0, 73, 88
2, 75420, Note_on_c, 0, 64, 81
2, 75420, Note_on_c, 0, 68, 81
2, 75420, Note_on_c, 0, 61, 56
2, 75420, Note_on_c, 0, 56, 68
2, 75420, Note_on_c, 0, 49, 95
2, 75600, Note_on_c, 0, 56, 0
2, 75600, Note_on_c, 0, 61, 0
2, 75600, Note_on_c, 0, 68, 0
2, 75600, Note_on_c, 0, 73, 0
2, 75600, Note_on_c, 0, 64, 0
2, 75600, Note_on_c, 0, 75, 95
2, 75600, Note_on_c, 0, 64, 66
2, 75600, Note_on_c, 0, 61, 53
2, 75600, Note_on_c, 0, 52, 65
2, 75690, Note_on_c, 0, 52, 0
2, 75690, Note_on_c, 0, 64, 0
2, 75690, Note_on_c, 0, 66, 81
2, 75690, Note_on_c, 0, 54, 65
2, 75780, Note_on_c, 0, 54, 0
2, 75780, Note_on_c, 0, 49, 0
2, 75780, Note_on_c, 0, 61, 0
2, 75780, Note_on_c, 0, 75, 0
2, 75780, Note_on_c, 0, 66, 0
2, 75780, Note_on_c, 0, 76, 93
2, 75780, Note_on_c, 0, 64, 67
2, 75780, Note_on_c, 0, 67, 80
2, 75780, Note_on_c, 0, 55, 52
2, 75780, Note_on_c, 0, 61, 52
2, 75780, Note_on_c, 0, 47, 61
2, 75960, Note_on_c, 0, 61, 0
2, 75960, Note_on_c, 0, 55, 0
2, 75960, Note_on_c, 0, 64, 0
2, 75960, Note_on_c, 0, 76, 0
2, 75960, Note_on_c, 0, 73, 86
2, 75960, Note_on_c, 0, 64, 81
2, 75960, Note_on_c, 0, 55, 60
2, 75960, Note_on_c, 0, 61, 60
2, 76140, Note_on_c, 0, 61, 0
2, 76140, Note_on_c, 0, 47, 0
2, 76140, Note_on_c, 0, 73, 0
2, 76140, Note_on_c, 0, 64, 0
2, 76140, Note_on_c, 0, 55, 0
2, 76140, Note_on_c, 0, 69, 83
2, 76140, Note_on_c, 0, 61, 75
2, 76140, Note_on_c, 0, 64, 75
2, 76140, Note_on_c, 0, 55, 52
2, 76140, Note_on_c, 0, 45, 61
2, 76320, Note_on_c, 0, 55, 0
2, 76320, Note_on_c, 0, 64, 0
2, 76320, Note_on_c, 0, 61, 0
2, 76320, Note_on_c, 0, 61, 73
2, 76320, Note_on_c, 0, 64, 73
2, 76320, Note_on_c, 0, 55, 54
2, 76500, Note_on_c, 0, 55, 0
2, 76500, Note_on_c, 0, 61, 0
2, 76500, Note_on_c, 0, 64, 0
2, 76500, Note_on_c, 0, 61, 73
2, 76500, Note_on_c, 0, 64, 73
2, 76500, Note_on_c, 0, 55, 61
2, 76590, Note_on_c, 0, 69, 0
2, 76590, Note_on_c, 0, 71, 98
2, 76680, Note_on_c, 0, 71, 0
2, 76680, Note_on_c, 0, 55, 0
2, 76680, Note_on_c, 0, 61, 0
2, 76680, Note_on_c, 0, 45, 0
2, 76680, Note_on_c, 0, 67, 0
2, 76680, Note_on_c, 0, 64, 0
2, 76680, Note_on_c, 0, 73, 93
2, 76680, Note_on_c, 0, 55, 55
2, 76680, Note_on_c, 0, 45, 75
2, 76680, Note_on_c, 0, 57, 75
2, 76770, Note_on_c, 0, 57, 0
2, 76770, Note_on_c, 0, 45, 0
2, 76770, Note_on_c, 0, 73, 0
2, 76770, Note_on_c, 0, 76, 94
2, 76770, Note_on_c, 0, 47, 59
2, 76860, Note_on_c, 0, 47, 0
2, 76860, Note_on_c, 0, 76, 0
2, 76860, Note_on_c, 0, 55, 0
2, 76860, Note_on_c, 0, 66, 93
2, 76860, Note_on_c, 0, 69, 93
2, 76860, Note_on_c, 0, 78, 93
2, 76860, Note_on_c, 0, 49, 58
2, 76860, Note_on_c, 0, 61, 58
2, 76860, Note_on_c, 0, 38, 58
2, 76860, Note_on_c, 0, 54, 72
2, 76860, Note_on_c, 0, 57, 72
2, 77040, Note_on_c, 0, 61, 0
2, 77040, Note_on_c, 0, 49, 0
2, 77040, Note_on_c, 0, 48, 55
2, 77040, Note_on_c, 0, 60, 55
2, 77130, Note_on_c, 0, 60, 0
2, 77130, Note_on_c, 0, 48, 0
2, 77130, Note_on_c, 0, 47, 52
2, 77130, Note_on_c, 0, 59, 52
2, 77220, Note_on_c, 0, 59, 0
2, 77220, Note_on_c, 0, 47, 0
2, 77220, Note_on_c, 0, 48, 60
2, 77220, Note_on_c, 0, 60, 60
2, 77400, Note_on_c, 0, 60, 0
2, 77400, Note_on_c, 0, 48, 0
2, 77400, Note_on_c, 0, 54, 0
2, 77400, Note_on_c, 0, 57, 0
2, 77400, Note_on_c, 0, 44, 51
2, 77400, Note_on_c, 0, 56, 51
2, 77400, Note_on_c, 0, 54, 77
2, 77490, Note_on_c, 0, 56, 0
2, 77490, Note_on_c, 0, 44, 0
2, 77490, Note_on_c, 0, 45, 59
2, 77490, Note_on_c, 0, 57, 59
2, 77580, Note_on_c, 0, 57, 0
2, 77580, Note_on_c, 0, 69, 0
2, 77580, Note_on_c, 0, 54, 0
2, 77580, Note_on_c, 0, 66, 0
2, 77580, Note_on_c, 0, 38, 0
2, 77580, Note_on_c, 0, 45, 0
2, 77580, Note_on_c, 0, 78, 0
2, 77580, Note_on_c, 0, 68, 77
2, 77580, Note_on_c, 0, 56, 65
2, 77580, Note_on_c, 0, 59, 75
2, 77580, Note_on_c, 0, 54, 53
2, 77580, Note_on_c, 0, 38, 5
2, 77580, Note_on_c, 0, 38, 0
2, 77580, Note_on_c, 0, 39, 67
2, 77580, Note_on_c, 0, 47, 68
2, 77760, Note_on_c, 0, 56, 0
2, 77760, Note_on_c, 0, 54, 0
2, 77760, Note_on_c, 0, 56, 77
2, 77760, Note_on_c, 0, 54, 55
2, 77940, Note_on_c, 0, 54, 0
2, 77940, Note_on_c, 0, 47, 0
2, 77940, Note_on_c, 0, 56, 0
2, 77940, Note_on_c, 0, 56, 55
2, 77940, Note_on_c, 0, 54, 82
2, 78030, Note_on_c, 0, 56, 0
2, 78030, Note_on_c, 0, 59, 0
2, 78030, Note_on_c, 0, 48, 61
2, 78030, Note_on_c, 0, 60, 61
2, 78120, Note_on_c, 0, 60, 0
2, 78120, Note_on_c, 0, 68, 0
2, 78120, Note_on_c, 0, 48, 0
2, 78120, Note_on_c, 0, 66, 104
2, 78120, Note_on_c, 0, 73, 104
2, 78120, Note_on_c, 0, 78, 104
2, 78120, Note_on_c, 0, 49, 63
2, 78120, Note_on_c, 0, 61, 63
2, 78210, Note_on_c, 0, 61, 0
2, 78210, Note_on_c, 0, 49, 0
2, 78210, Note_on_c, 0, 50, 50
2, 78300, Note_on_c, 0, 50, 0
2, 78300, Note_on_c, 0, 78, 0
2, 78300, Note_on_c, 0, 66, 0
2, 78300, Note_on_c, 0, 54, 0
2, 78300, Note_on_c, 0, 39, 0
2, 78300, Note_on_c, 0, 73, 0
2, 78300, Note_on_c, 0, 68, 95
2, 78300, Note_on_c, 0, 72, 95
2, 78300, Note_on_c, 0, 80, 95
2, 78300, Note_on_c, 0, 51, 75
2, 78300, Note_on_c, 0, 63, 75
2, 78300, Note_on_c, 0, 40, 72
2, 78300, Note_on_c, 0, 56, 98
2, 78300, Note_on_c, 0, 60, 98
2, 78480, Note_on_c, 0, 63, 0
2, 78480, Note_on_c, 0, 51, 0
2, 78480, Note_on_c, 0, 50, 56
2, 78480, Note_on_c, 0, 62, 56
2, 78570, Note_on_c, 0, 62, 0
2, 78570, Note_on_c, 0, 50, 0
2, 78570, Note_on_c, 0, 49, 55
2, 78570, Note_on_c, 0, 61, 55
2, 78660, Note_on_c, 0, 61, 0
2, 78660, Note_on_c, 0, 49, 0
2, 78660, Note_on_c, 0, 50, 57
2, 78660, Note_on_c, 0, 62, 57
2, 78840, Note_on_c, 0, 62, 0
2, 78840, Note_on_c, 0, 50, 0
2, 78840, Note_on_c, 0, 56, 0
2, 78840, Note_on_c, 0, 60, 0
2, 78840, Note_on_c, 0, 59, 79
2, 78840, Note_on_c, 0, 47, 48
2, 78840, Note_on_c, 0, 56, 76
2, 78930, Note_on_c, 0, 47, 0
2, 78930, Note_on_c, 0, 59, 0
2, 78930, Note_on_c, 0, 60, 81
2, 78930, Note_on_c, 0, 48, 53
2, 79020, Note_on_c, 0, 48, 0
2, 79020, Note_on_c, 0, 40, 0
2, 79020, Note_on_c, 0, 56, 0
2, 79020, Note_on_c, 0, 60, 0
2, 79020, Note_on_c, 0, 61, 78
2, 79020, Note_on_c, 0, 49, 57
2, 79020, Note_on_c, 0, 40, 5
2, 79020, Note_on_c, 0, 40, 0
2, 79020, Note_on_c, 0, 41, 69
2, 79020, Note_on_c, 0, 56, 85
2, 79020, Note_on_c, 0, 60, 85
2, 79200, Note_on_c, 0, 60, 0
2, 79200, Note_on_c, 0, 56, 0
2, 79200, Note_on_c, 0, 56, 87
2, 79200, Note_on_c, 0, 60, 87
2, 79380, Note_on_c, 0, 60, 0
2, 79380, Note_on_c, 0, 61, 0
2, 79380, Note_on_c, 0, 41, 0
2, 79380, Note_on_c, 0, 49, 0
2, 79380, Note_on_c, 0, 68, 0
2, 79380, Note_on_c, 0, 72, 0
2, 79380, Note_on_c, 0, 80, 0
2, 79380, Note_on_c, 0, 56, 0
2, 79380, Note_on_c, 0, 78, 89
2, 79380, Note_on_c, 0, 60, 79
2, 79380, Note_on_c, 0, 48, 52
2, 79380, Note_on_c, 0, 39, 63
2, 79380, Note_on_c, 0, 54, 77
2, 79380, Note_on_c, 0, 57, 77
2, 79560, Note_on_c, 0, 57, 0
2, 79560, Note_on_c, 0, 39, 0
2, 79560, Note_on_c, 0, 60, 0
2, 79560, Note_on_c, 0, 54, 0
2, 79560, Note_on_c, 0, 56, 71
2, 79560, Note_on_c, 0, 38, 63
2, 79560, Note_on_c, 0, 54, 74
2, 79650, Note_on_c, 0, 56, 0
2, 79650, Note_on_c, 0, 57, 71
2, 79740, Note_on_c, 0, 57, 0
2, 79740, Note_on_c, 0, 54, 0
2, 79740, Note_on_c, 0, 48, 0
2, 79740, Note_on_c, 0, 78, 0
2, 79740, Note_on_c, 0, 38, 0
2, 79740, Note_on_c, 0, 65, 88
2, 79740, Note_on_c, 0, 68, 88
2, 79740, Note_on_c, 0, 71, 88
2, 79740, Note_on_c, 0, 77, 88
2, 79740, Note_on_c, 0, 37, 72
2, 79740, Note_on_c, 0, 49, 72
2, 79920, Note_on_c, 0, 49, 0
2, 79920, Note_on_c, 0, 68, 0
2, 79920, Note_on_c, 0, 71, 0
2, 79920, Note_on_c, 0, 65, 0
2, 79920, Note_on_c, 0, 37, 0
2, 79920, Note_on_c, 0, 77, 0
2, 79920, Note_on_c, 0, 63, 91
2, 79920, Note_on_c, 0, 69, 91
2, 79920, Note_on_c, 0, 75, 91
2, 79920, Note_on_c, 0, 53, 51
2, 79920, Note_on_c, 0, 57, 51
2, 79920, Note_on_c, 0, 49, 67
2, 80010, Note_on_c, 0, 57, 0
2, 80010, Note_on_c, 0, 53, 0
2, 80010, Note_on_c, 0, 75, 0
2, 80010, Note_on_c, 0, 63, 0
2, 80010, Note_on_c, 0, 69, 0
2, 80010, Note_on_c, 0, 65, 97
2, 80010, Note_on_c, 0, 68, 97
2, 80010, Note_on_c, 0, 77, 97
2, 80010, Note_on_c, 0, 56, 52
2, 80100, Note_on_c, 0, 56, 0
2, 80100, Note_on_c, 0, 68, 0
2, 80100, Note_on_c, 0, 49, 0
2, 80100, Note_on_c, 0, 65, 0
2, 80100, Note_on_c, 0, 77, 0
2, 80100, Note_on_c, 0, 66, 90
2, 80100, Note_on_c, 0, 69, 90
2, 80100, Note_on_c, 0, 78, 90
2, 80100, Note_on_c, 0, 30, 68
2, 80100, Note_on_c, 0, 42, 68
2, 80280, Note_on_c, 0, 49, 47
2, 80280, Note_on_c, 0, 54, 47
2, 80280, Note_on_c, 0, 57, 47
2, 80460, Note_on_c, 0, 57, 0
2, 80460, Note_on_c, 0, 54, 0
2, 80460, Note_on_c, 0, 42, 0
2, 80460, Note_on_c, 0, 30, 0
2, 80460, Note_on_c, 0, 66, 0
2, 80460, Note_on_c, 0, 49, 0
2, 80460, Note_on_c, 0, 49, 71
2, 80640, Note_on_c, 0, 69, 0
2, 80640, Note_on_c, 0, 78, 0
2, 80640, Note_on_c, 0, 66, 88
2, 80640, Note_on_c, 0, 69, 88
2, 80640, Note_on_c, 0, 76, 88
2, 80640, Note_on_c, 0, 54, 52
2, 80640, Note_on_c, 0, 57, 52
2, 80640, Note_on_c, 0, 61, 52
2, 80820, Note_on_c, 0, 61, 0
2, 80820, Note_on_c, 0, 54, 0
2, 80820, Note_on_c, 0, 66, 0
2, 80820, Note_on_c, 0, 69, 0
2, 80820, Note_on_c, 0, 49, 0
2, 80820, Note_on_c, 0, 57, 0
2, 80820, Note_on_c, 0, 76, 0
2, 80820, Note_on_c, 0, 66, 88
2, 80820, Note_on_c, 0, 75, 88
2, 80820, Note_on_c, 0, 54, 56
2, 80820, Note_on_c, 0, 57, 56
2, 80820, Note_on_c, 0, 61, 56
2, 80820, Note_on_c, 0, 51, 67
2, 81000, Note_on_c, 0, 51, 0
2, 81000, Note_on_c, 0, 75, 0
2, 81000, Note_on_c, 0, 54, 0
2, 81000, Note_on_c, 0, 66, 0
2, 81000, Note_on_c, 0, 61, 0
2, 81000, Note_on_c, 0, 57, 0
2, 81000, Note_on_c, 0, 73, 89
2, 81000, Note_on_c, 0, 65, 88
2, 81000, Note_on_c, 0, 57, 53
2, 81000, Note_on_c, 0, 61, 53
2, 81000, Note_on_c, 0, 53, 70
2, 81090, Note_on_c, 0, 65, 0
2, 81090, Note_on_c, 0, 63, 73
2, 81180, Note_on_c, 0, 63, 0
2, 81180, Note_on_c, 0, 53, 0
2, 81180, Note_on_c, 0, 73, 0
2, 81180, Note_on_c, 0, 57, 0
2, 81180, Note_on_c, 0, 61, 0
2, 81180, Note_on_c, 0, 72, 86
2, 81180, Note_on_c, 0, 60, 81
2, 81180, Note_on_c, 0, 64, 81
2, 81180, Note_on_c, 0, 52, 50
2, 81180, Note_on_c, 0, 56, 50
2, 81180, Note_on_c, 0, 42, 71
2, 81360, Note_on_c, 0, 56, 0
2, 81360, Note_on_c, 0, 52, 0
2, 81360, Note_on_c, 0, 64, 0
2, 81360, Note_on_c, 0, 72, 0
2, 81360, Note_on_c, 0, 60, 0
2, 81360, Note_on_c, 0, 71, 91
2, 81360, Note_on_c, 0, 60, 69
2, 81360, Note_on_c, 0, 62, 69
2, 81360, Note_on_c, 0, 54, 56
2, 81360, Note_on_c, 0, 57, 56
2, 81450, Note_on_c, 0, 62, 0
2, 81450, Note_on_c, 0, 60, 0
2, 81450, Note_on_c, 0, 71, 0
2, 81450, Note_on_c, 0, 72, 90
2, 81450, Note_on_c, 0, 63, 82
2, 81540, Note_on_c, 0, 63, 0
2, 81540, Note_on_c, 0, 57, 0
2, 81540, Note_on_c, 0, 72, 0
2, 81540, Note_on_c, 0, 54, 0
2, 81540, Note_on_c, 0, 73, 95
2, 81540, Note_on_c, 0, 64, 78
2, 81540, Note_on_c, 0, 57, 58
2, 81540, Note_on_c, 0, 61, 58
2, 81540, Note_on_c, 0, 52, 68
2, 81720, Note_on_c, 0, 61, 0
2, 81720, Note_on_c, 0, 57, 0
2, 81720, Note_on_c, 0, 57, 59
2, 81720, Note_on_c, 0, 61, 59
2, 81900, Note_on_c, 0, 61, 0
2, 81900, Note_on_c, 0, 57, 0
2, 81900, Note_on_c, 0, 57, 56
2, 81900, Note_on_c, 0, 61, 56
2, 82080, Note_on_c, 0, 61, 0
2, 82080, Note_on_c, 0, 73, 0
2, 82080, Note_on_c, 0, 64, 0
2, 82080, Note_on_c, 0, 57, 0
2, 82080, Note_on_c, 0, 71, 87
2, 82080, Note_on_c, 0, 63, 73
2, 82080, Note_on_c, 0, 57, 58
2, 82080, Note_on_c, 0, 61, 58
2, 82170, Note_on_c, 0, 63, 0
2, 82170, Note_on_c, 0, 64, 76
2, 82260, Note_on_c, 0, 64, 0
2, 82260, Note_on_c, 0, 61, 0
2, 82260, Note_on_c, 0, 42, 0
2, 82260, Note_on_c, 0, 52, 0
2, 82260, Note_on_c, 0, 57, 0
2, 82260, Note_on_c, 0, 66, 82
2, 82260, Note_on_c, 0, 57, 54
2, 82260, Note_on_c, 0, 61, 54
2, 82260, Note_on_c, 0, 51, 63
2, 82440, Note_on_c, 0, 51, 0
2, 82440, Note_on_c, 0, 57, 0
2, 82440, Note_on_c, 0, 71, 0
2, 82440, Note_on_c, 0, 66, 0
2, 82440, Note_on_c, 0, 61, 0
2, 82440, Note_on_c, 0, 69, 84
2, 82440, Note_on_c, 0, 64, 68
2, 82440, Note_on_c, 0, 57, 54
2, 82440, Note_on_c, 0, 59, 54
2, 82440, Note_on_c, 0, 50, 66
2, 82530, Note_on_c, 0, 50, 0
2, 82530, Note_on_c, 0, 64, 0
2, 82530, Note_on_c, 0, 66, 79
2, 82530, Note_on_c, 0, 51, 66
2, 82620, Note_on_c, 0, 51, 0
2, 82620, Note_on_c, 0, 69, 0
2, 82620, Note_on_c, 0, 59, 0
2, 82620, Note_on_c, 0, 57, 0
2, 82620, Note_on_c, 0, 66, 0
2, 82620, Note_on_c, 0, 68, 87
2, 82620, Note_on_c, 0, 56, 71
2, 82620, Note_on_c, 0, 61, 71
2, 82620, Note_on_c, 0, 68, 69
2, 82620, Note_on_c, 0, 52, 54
2, 82620, Note_on_c, 0, 44, 62
2, 82800, Note_on_c, 0, 52, 0
2, 82800, Note_on_c, 0, 61, 0
2, 82800, Note_on_c, 0, 56, 0
2, 82800, Note_on_c, 0, 57, 75
2, 82800, Note_on_c, 0, 61, 75
2, 82800, Note_on_c, 0, 54, 56
2, 82890, Note_on_c, 0, 68, 0
2, 82890, Note_on_c, 0, 66, 86
2, 82980, Note_on_c, 0, 66, 0
2, 82980, Note_on_c, 0, 54, 0
2, 82980, Note_on_c, 0, 57, 0
2, 82980, Note_on_c, 0, 61, 0
2, 82980, Note_on_c, 0, 64, 87
2, 82980, Note_on_c, 0, 58, 76
2, 82980, Note_on_c, 0, 61, 76
2, 82980, Note_on_c, 0, 55, 58
2, 83070, Note_on_c, 0, 64, 0
2, 83070, Note_on_c, 0, 66, 93
2, 83160, Note_on_c, 0, 66, 0
2, 83160, Note_on_c, 0, 55, 0
2, 83160, Note_on_c, 0, 58, 0
2, 83160, Note_on_c, 0, 61, 0
2, 83160, Note_on_c, 0, 63, 86
2, 83160, Note_on_c, 0, 60, 77
2, 83160, Note_on_c, 0, 56, 60
2, 83340, Note_on_c, 0, 60, 0
2, 83340, Note_on_c, 0, 63, 0
2, 83340, Note_on_c, 0, 68, 0
2, 83340, Note_on_c, 0, 44, 0
2, 83340, Note_on_c, 0, 61, 107
2, 83340, Note_on_c, 0, 52, 56
2, 83340, Note_on_c, 0, 37, 66
2, 83340, Note_on_c, 0, 44, 66
2, 83340, Note_on_c, 0, 49, 66
2, 83520, Note_on_c, 0, 49, 0
2, 83520, Note_on_c, 0, 37, 0
2, 83520, Note_on_c, 0, 52, 0
2, 83520, Note_on_c, 0, 44, 0
2, 83520, Note_on_c, 0, 61, 67
2, 83520, Note_on_c, 0, 64, 67
2, 83700, Note_on_c, 0, 64, 0
2, 83700, Note_on_c, 0, 61, 0
2, 83700, Note_on_c, 0, 61, 56
2, 83700, Note_on_c, 0, 64, 56
2, 83880, Note_on_c, 0, 64, 0
2, 83880, Note_on_c, 0, 61, 0
2, 83880, Note_on_c, 0, 64, 59
2, 83880, Note_on_c, 0, 61, 63
2, 83880, Note_on_c, 0, 68, 63
2, 83970, Note_on_c, 0, 64, 0
2, 83970, Note_on_c, 0, 63, 61
2, 84060, Note_on_c, 0, 63, 0
2, 84060, Note_on_c, 0, 68, 0
2, 84060, Note_on_c, 0, 61, 0
2, 84060, Note_on_c, 0, 61, 0
2, 84060, Note_on_c, 0, 64, 65
2, 84060, Note_on_c, 0, 61, 75
2, 84060, Note_on_c, 0, 47, 63
2, 84240, Note_on_c, 0, 61, 0
2, 84240, Note_on_c, 0, 56, 0
2, 84240, Note_on_c, 0, 61, 78
2, 84240, Note_on_c, 0, 56, 57
2, 84420, Note_on_c, 0, 56, 0
2, 84420, Note_on_c, 0, 61, 0
2, 84420, Note_on_c, 0, 64, 104
2, 84420, Note_on_c, 0, 56, 59
2, 84420, Note_on_c, 0, 61, 59
2, 84600, Note_on_c, 0, 61, 0
2, 84600, Note_on_c, 0, 64, 0
2, 84600, Note_on_c, 0, 56, 0
2, 84600, Note_on_c, 0, 64, 0
2, 84600, Note_on_c, 0, 61, 61
2, 84600, Note_on_c, 0, 66, 103
2, 84600, Note_on_c, 0, 56, 58
2, 84690, Note_on_c, 0, 61, 0
2, 84690, Note_on_c, 0, 63, 64
2, 84780, Note_on_c, 0, 63, 0
2, 84780, Note_on_c, 0, 56, 0
2, 84780, Note_on_c, 0, 66, 0
2, 84780, Note_on_c, 0, 47, 0
2, 84780, Note_on_c, 0, 68, 100
2, 84780, Note_on_c, 0, 64, 66
2, 84780, Note_on_c, 0, 57, 81
2, 84780, Note_on_c, 0, 61, 81
2, 84870, Note_on_c, 0, 61, 0
2, 84870, Note_on_c, 0, 57, 0
2, 84870, Note_on_c, 0, 45, 60
2, 84870, Note_on_c, 0, 52, 60
2, 84960, Note_on_c, 0, 64, 0
2, 84960, Note_on_c, 0, 68, 0
2, 84960, Note_on_c, 0, 66, 88
2, 84960, Note_on_c, 0, 63, 54
2, 85050, Note_on_c, 0, 63, 0
2, 85050, Note_on_c, 0, 66, 0
2, 85050, Note_on_c, 0, 68, 92
2, 85050, Note_on_c, 0, 61, 51
2, 85140, Note_on_c, 0, 61, 0
2, 85140, Note_on_c, 0, 52, 0
2, 85140, Note_on_c, 0, 45, 0
2, 85140, Note_on_c, 0, 68, 0
2, 85140, Note_on_c, 0, 69, 96
2, 85140, Note_on_c, 0, 63, 57
2, 85140, Note_on_c, 0, 57, 66
2, 85230, Note_on_c, 0, 57, 0
2, 85230, Note_on_c, 0, 45, 67
2, 85230, Note_on_c, 0, 54, 67
2, 85320, Note_on_c, 0, 63, 0
2, 85320, Note_on_c, 0, 69, 0
2, 85320, Note_on_c, 0, 68, 83
2, 85320, Note_on_c, 0, 59, 49
2, 85410, Note_on_c, 0, 59, 0
2, 85410, Note_on_c, 0, 68, 0
2, 85410, Note_on_c, 0, 69, 96
2, 85410, Note_on_c, 0, 61, 56
2, 85500, Note_on_c, 0, 61, 0
2, 85500, Note_on_c, 0, 54, 0
2, 85500, Note_on_c, 0, 45, 0
2, 85500, Note_on_c, 0, 69, 0
2, 85500, Note_on_c, 0, 71, 95
2, 85500, Note_on_c, 0, 63, 62
2, 85500, Note_on_c, 0, 59, 68
2, 85590, Note_on_c, 0, 59, 0
2, 85590, Note_on_c, 0, 44, 53
2, 85590, Note_on_c, 0, 51, 53
2, 85680, Note_on_c, 0, 51, 0
2, 85680, Note_on_c, 0, 44, 0
2, 85680, Note_on_c, 0, 54, 67
2, 85770, Note_on_c, 0, 54, 0
2, 85770, Note_on_c, 0, 59, 68
2, 85860, Note_on_c, 0, 59, 0
2, 85860, Note_on_c, 0, 66, 79
2, 85950, Note_on_c, 0, 66, 0
2, 85950, Note_on_c, 0, 78, 85
2, 86040, Note_on_c, 0, 78, 0
2, 86040, Note_on_c, 0, 71, 0
2, 86040, Note_on_c, 0, 69, 88
2, 86040, Note_on_c, 0, 51, 56
2, 86040, Note_on_c, 0, 54, 56
2, 86040, Note_on_c, 0, 59, 56
2, 86130, Note_on_c, 0, 69, 0
2, 86130, Note_on_c, 0, 71, 93
2, 86220, Note_on_c, 0, 71, 0
2, 86220, Note_on_c, 0, 59, 0
2, 86220, Note_on_c, 0, 54, 0
2, 86220, Note_on_c, 0, 51, 0
2, 86220, Note_on_c, 0, 61, 95
2, 86220, Note_on_c, 0, 73, 95
2, 86220, Note_on_c, 0, 52, 66
2, 86220, Note_on_c, 0, 57, 66
2, 86220, Note_on_c, 0, 44, 82
2, 86400, Note_on_c, 0, 57, 0
2, 86400, Note_on_c, 0, 52, 0
2, 86400, Note_on_c, 0, 63, 0
2, 86400, Note_on_c, 0, 61, 51
2, 86400, Note_on_c, 0, 52, 62
2, 86490, Note_on_c, 0, 61, 0
2, 86490, Note_on_c, 0, 59, 52
2, 86580, Note_on_c, 0, 59, 0
2, 86580, Note_on_c, 0, 52, 0
2, 86580, Note_on_c, 0, 73, 0
2, 86580, Note_on_c, 0, 44, 0
2, 86580, Note_on_c, 0, 61, 0
2, 86580, Note_on_c, 0, 63, 95
2, 86580, Note_on_c, 0, 75, 95
2, 86580, Note_on_c, 0, 61, 55
2, 86580, Note_on_c, 0, 51, 72
2, 86580, Note_on_c, 0, 57, 72
2, 86670, Note_on_c, 0, 57, 0
2, 86670, Note_on_c, 0, 51, 0
2, 86670, Note_on_c, 0, 42, 61
2, 86670, Note_on_c, 0, 49, 61
2, 86760, Note_on_c, 0, 61, 0
2, 86760, Note_on_c, 0, 57, 52
2, 86850, Note_on_c, 0, 57, 0
2, 86850, Note_on_c, 0, 59, 56
2, 86940, Note_on_c, 0, 59, 0
2, 86940, Note_on_c, 0, 42, 0
2, 86940, Note_on_c, 0, 63, 0
2, 86940, Note_on_c, 0, 75, 0
2, 86940, Note_on_c, 0, 49, 0
2, 86940, Note_on_c, 0, 64, 95
2, 86940, Note_on_c, 0, 76, 95
2, 86940, Note_on_c, 0, 61, 58
2, 86940, Note_on_c, 0, 56, 71
2, 87030, Note_on_c, 0, 56, 0
2, 87030, Note_on_c, 0, 40, 58
2, 87030, Note_on_c, 0, 49, 58
2, 87120, Note_on_c, 0, 49, 0
2, 87120, Note_on_c, 0, 40, 0
2, 87120, Note_on_c, 0, 52, 67
2, 87210, Note_on_c, 0, 52, 0
2, 87210, Note_on_c, 0, 56, 72
2, 87300, Note_on_c, 0, 56, 0
2, 87300, Note_on_c, 0, 61, 77
2, 87390, Note_on_c, 0, 61, 0
2, 87390, Note_on_c, 0, 64, 72
2, 87480, Note_on_c, 0, 64, 0
2, 87480, Note_on_c, 0, 64, 0
2, 87480, Note_on_c, 0, 76, 0
2, 87480, Note_on_c, 0, 66, 97
2, 87480, Note_on_c, 0, 78, 97
2, 87480, Note_on_c, 0, 73, 78
2, 87570, Note_on_c, 0, 73, 0
2, 87570, Note_on_c, 0, 85, 87
2, 87660, Note_on_c, 0, 85, 0
2, 87660, Note_on_c, 0, 78, 0
2, 87660, Note_on_c, 0, 66, 0
2, 87660, Note_on_c, 0, 68, 92
2, 87660, Note_on_c, 0, 73, 92
2, 87660, Note_on_c, 0, 80, 92
2, 87660, Note_on_c, 0, 39, 61
2, 87660, Note_on_c, 0, 49, 61
2, 87750, Note_on_c, 0, 49, 0
2, 87750, Note_on_c, 0, 39, 0
2, 87750, Note_on_c, 0, 54, 70
2, 87840, Note_on_c, 0, 54, 0
2, 87840, Note_on_c, 0, 61, 0
2, 87840, Note_on_c, 0, 59, 53
2, 87840, Note_on_c, 0, 61, 76
2, 87930, Note_on_c, 0, 61, 0
2, 87930, Note_on_c, 0, 59, 0
2, 87930, Note_on_c, 0, 57, 58
2, 87930, Note_on_c, 0, 66, 78
2, 88020, Note_on_c, 0, 66, 0
2, 88020, Note_on_c, 0, 57, 0
2, 88020, Note_on_c, 0, 56, 51
2, 88020, Note_on_c, 0, 38, 56
2, 88020, Note_on_c, 0, 48, 56
2, 88110, Note_on_c, 0, 48, 0
2, 88110, Note_on_c, 0, 38, 0
2, 88110, Note_on_c, 0, 60, 83
2, 88200, Note_on_c, 0, 60, 0
2, 88200, Note_on_c, 0, 66, 79
2, 88290, Note_on_c, 0, 66, 0
2, 88290, Note_on_c, 0, 56, 0
2, 88290, Note_on_c, 0, 54, 56
2, 88290, Note_on_c, 0, 72, 77
2, 88380, Note_on_c, 0, 72, 0
2, 88380, Note_on_c, 0, 54, 0
2, 88380, Note_on_c, 0, 56, 57
2, 88470, Note_on_c, 0, 37, 56
2, 88470, Note_on_c, 0, 44, 56
2, 88560, Note_on_c, 0, 44, 0
2, 88560, Note_on_c, 0, 73, 0
2, 88560, Note_on_c, 0, 80, 0
2, 88560, Note_on_c, 0, 68, 0
2, 88560, Note_on_c, 0, 37, 0
2, 88560, Note_on_c, 0, 69, 90
2, 88560, Note_on_c, 0, 81, 90
2, 88560, Note_on_c, 0, 49, 72
2, 88650, Note_on_c, 0, 49, 0
2, 88650, Note_on_c, 0, 56, 0
2, 88650, Note_on_c, 0, 57, 59
2, 88740, Note_on_c, 0, 57, 0
2, 88740, Note_on_c, 0, 81, 0
2, 88740, Note_on_c, 0, 69, 0
2, 88740, Note_on_c, 0, 71, 99
2, 88740, Note_on_c, 0, 83, 99
2, 88740, Note_on_c, 0, 56, 63
2, 88740, Note_on_c, 0, 49, 58
2, 88830, Note_on_c, 0, 49, 0
2, 88830, Note_on_c, 0, 65, 78
2, 88920, Note_on_c, 0, 65, 0
2, 88920, Note_on_c, 0, 83, 0
2, 88920, Note_on_c, 0, 71, 0
2, 88920, Note_on_c, 0, 73, 89
2, 88920, Note_on_c, 0, 85, 89
2, 88920, Note_on_c, 0, 68, 80
2, 89010, Note_on_c, 0, 68, 0
2, 89010, Note_on_c, 0, 80, 82
2, 89100, Note_on_c, 0, 80, 0
2, 89100, Note_on_c, 0, 85, 0
2, 89100, Note_on_c, 0, 73, 0
2, 89100, Note_on_c, 0, 69, 89
2, 89100, Note_on_c, 0, 81, 89
2, 89100, Note_on_c, 0, 73, 74
2, 89100, Note_on_c, 0, 42, 61
2, 89100, Note_on_c, 0, 49, 61
2, 89190, Note_on_c, 0, 56, 0
2, 89190, Note_on_c, 0, 57, 55
2, 89280, Note_on_c, 0, 57, 0
2, 89280, Note_on_c, 0, 81, 0
2, 89280, Note_on_c, 0, 69, 0
2, 89280, Note_on_c, 0, 68, 83
2, 89280, Note_on_c, 0, 80, 83
2, 89280, Note_on_c, 0, 61, 57
2, 89370, Note_on_c, 0, 61, 0
2, 89370, Note_on_c, 0, 65, 61
2, 89460, Note_on_c, 0, 65, 0
2, 89460, Note_on_c, 0, 80, 0
2, 89460, Note_on_c, 0, 73, 0
2, 89460, Note_on_c, 0, 49, 0
2, 89460, Note_on_c, 0, 42, 0
2, 89460, Note_on_c, 0, 68, 0
2, 89460, Note_on_c, 0, 78, 83
2, 89460, Note_on_c, 0, 66, 80
2, 89460, Note_on_c, 0, 69, 70
2, 89460, Note_on_c, 0, 57, 53
2, 89460, Note_on_c, 0, 47, 65
2, 89477, Note_on_c, 0, 63, 53
2, 89640, Note_on_c, 0, 63, 0
2, 89640, Note_on_c, 0, 66, 0
2, 89640, Note_on_c, 0, 78, 0
2, 89640, Note_on_c, 0, 57, 0
2, 89640, Note_on_c, 0, 76, 87
2, 89640, Note_on_c, 0, 68, 83
2, 89640, Note_on_c, 0, 57, 56
2, 89640, Note_on_c, 0, 61, 56
2, 89730, Note_on_c, 0, 61, 0
2, 89730, Note_on_c, 0, 76, 0
2, 89730, Note_on_c, 0, 57, 0
2, 89730, Note_on_c, 0, 78, 90
2, 89730, Note_on_c, 0, 63, 59
2, 89820, Note_on_c, 0, 63, 0
2, 89820, Note_on_c, 0, 47, 0
2, 89820, Note_on_c, 0, 69, 0
2, 89820, Note_on_c, 0, 68, 0
2, 89820, Note_on_c, 0, 78, 0
2, 89820, Note_on_c, 0, 80, 90
2, 89820, Note_on_c, 0, 68, 88
2, 89820, Note_on_c, 0, 73, 88
2, 89820, Note_on_c, 0, 64, 55
2, 89820, Note_on_c, 0, 49, 70
2, 89820, Note_on_c, 0, 56, 70
2, 90000, Note_on_c, 0, 73, 0
2, 90000, Note_on_c, 0, 68, 0
2, 90000, Note_on_c, 0, 68, 80
2, 90000, Note_on_c, 0, 73, 80
2, 90180, Note_on_c, 0, 73, 0
2, 90180, Note_on_c, 0, 56, 0
2, 90180, Note_on_c, 0, 49, 0
2, 90180, Note_on_c, 0, 68, 0
2, 90180, Note_on_c, 0, 66, 69
2, 90180, Note_on_c, 0, 69, 69
2, 90180, Note_on_c, 0, 42, 64
2, 90180, Note_on_c, 0, 49, 64
2, 90270, Note_on_c, 0, 49, 0
2, 90270, Note_on_c, 0, 42, 0
2, 90270, Note_on_c, 0, 57, 70
2, 90360, Note_on_c, 0, 57, 0
2, 90360, Note_on_c, 0, 69, 0
2, 90360, Note_on_c, 0, 64, 0
2, 90360, Note_on_c, 0, 80, 0
2, 90360, Note_on_c, 0, 66, 0
2, 90360, Note_on_c, 0, 78, 84
2, 90360, Note_on_c, 0, 66, 75
2, 90360, Note_on_c, 0, 69, 75
2, 90360, Note_on_c, 0, 62, 52
2, 90360, Note_on_c, 0, 52, 59
2, 90450, Note_on_c, 0, 52, 0
2, 90450, Note_on_c, 0, 54, 67
2, 90540, Note_on_c, 0, 54, 0
2, 90540, Note_on_c, 0, 62, 0
2, 90540, Note_on_c, 0, 78, 0
2, 90540, Note_on_c, 0, 66, 0
2, 90540, Note_on_c, 0, 69, 0
2, 90540, Note_on_c, 0, 76, 86
2, 90540, Note_on_c, 0, 64, 72
2, 90540, Note_on_c, 0, 68, 72
2, 90540, Note_on_c, 0, 61, 48
2, 90540, Note_on_c, 0, 56, 71
2, 90720, Note_on_c, 0, 68, 0
2, 90720, Note_on_c, 0, 64, 0
2, 90720, Note_on_c, 0, 64, 75
2, 90720, Note_on_c, 0, 68, 75
2, 90900, Note_on_c, 0, 68, 0
2, 90900, Note_on_c, 0, 56, 0
2, 90900, Note_on_c, 0, 64, 0
2, 90900, Note_on_c, 0, 76, 0
2, 90900, Note_on_c, 0, 75, 87
2, 90900, Note_on_c, 0, 63, 73
2, 90900, Note_on_c, 0, 66, 73
2, 90900, Note_on_c, 0, 44, 58
2, 90923, Note_on_c, 0, 61, 0
2, 90923, Note_on_c, 0, 54, 58
2, 90923, Note_on_c, 0, 60, 54
2, 90945, Note_on_c, 0, 60, 0
2, 90945, Note_on_c, 0, 61, 55
2, 90968, Note_on_c, 0, 61, 0
2, 90968, Note_on_c, 0, 60, 55
2, 90990, Note_on_c, 0, 60, 0
2, 90990, Note_on_c, 0, 61, 54
2, 91013, Note_on_c, 0, 61, 0
2, 91013, Note_on_c, 0, 60, 52
2, 91035, Note_on_c, 0, 60, 0
2, 91035, Note_on_c, 0, 61, 64
2, 91058, Note_on_c, 0, 61, 0
2, 91058, Note_on_c, 0, 60, 51
2, 91080, Note_on_c, 0, 60, 0
2, 91080, Note_on_c, 0, 63, 0
2, 91080, Note_on_c, 0, 66, 0
2, 91080, Note_on_c, 0, 63, 78
2, 91080, Note_on_c, 0, 66, 78
2, 91080, Note_on_c, 0, 61, 58
2, 91103, Note_on_c, 0, 61, 0
2, 91103, Note_on_c, 0, 60, 53
2, 91125, Note_on_c, 0, 60, 0
2, 91125, Note_on_c, 0, 61, 53
2, 91148, Note_on_c, 0, 61, 0
2, 91148, Note_on_c, 0, 60, 52
2, 91170, Note_on_c, 0, 60, 0
2, 91170, Note_on_c, 0, 61, 54
2, 91193, Note_on_c, 0, 61, 0
2, 91193, Note_on_c, 0, 60, 57
2, 91215, Note_on_c, 0, 60, 0
2, 91215, Note_on_c, 0, 58, 48
2, 91238, Note_on_c, 0, 58, 0
2, 91238, Note_on_c, 0, 60, 60
2, 91260, Note_on_c, 0, 60, 0
2, 91260, Note_on_c, 0, 66, 0
2, 91260, Note_on_c, 0, 75, 0
2, 91260, Note_on_c, 0, 54, 0
2, 91260, Note_on_c, 0, 44, 0
2, 91260, Note_on_c, 0, 63, 0
2, 91260, Note_on_c, 0, 73, 64
2, 91260, Note_on_c, 0, 61, 71
2, 91260, Note_on_c, 0, 64, 71
2, 91260, Note_on_c, 0, 73, 114
2, 91260, Note_on_c, 0, 57, 50
2, 91260, Note_on_c, 0, 45, 66
2, 91260, Note_on_c, 0, 52, 66
2, 91350, Note_on_c, 0, 57, 0
2, 91350, Note_on_c, 0, 56, 51
2, 91440, Note_on_c, 0, 56, 0
2, 91440, Note_on_c, 0, 52, 0
2, 91440, Note_on_c, 0, 61, 0
2, 91440, Note_on_c, 0, 64, 0
2, 91440, Note_on_c, 0, 45, 0
2, 91440, Note_on_c, 0, 63, 80
2, 91440, Note_on_c, 0, 66, 80
2, 91440, Note_on_c, 0, 57, 58
2, 91530, Note_on_c, 0, 57, 0
2, 91530, Note_on_c, 0, 59, 58
2, 91620, Note_on_c, 0, 59, 0
2, 91620, Note_on_c, 0, 66, 0
2, 91620, Note_on_c, 0, 63, 0
2, 91620, Note_on_c, 0, 64, 81
2, 91620, Note_on_c, 0, 68, 81
2, 91620, Note_on_c, 0, 61, 60
2, 91710, Note_on_c, 0, 61, 0
2, 91710, Note_on_c, 0, 62, 63
2, 91800, Note_on_c, 0, 62, 0
2, 91800, Note_on_c, 0, 68, 0
2, 91800, Note_on_c, 0, 64, 0
2, 91800, Note_on_c, 0, 73, 0
2, 91800, Note_on_c, 0, 69, 92
2, 91800, Note_on_c, 0, 73, 92
2, 91800, Note_on_c, 0, 65, 69
2, 91800, Note_on_c, 0, 61, 54
2, 91800, Note_on_c, 0, 61, 73
2, 91890, Note_on_c, 0, 61, 0
2, 91890, Note_on_c, 0, 69, 0
2, 91890, Note_on_c, 0, 73, 0
2, 91890, Note_on_c, 0, 68, 86
2, 91890, Note_on_c, 0, 71, 86
2, 91890, Note_on_c, 0, 59, 53
2, 91980, Note_on_c, 0, 59, 0
2, 91980, Note_on_c, 0, 61, 0
2, 91980, Note_on_c, 0, 65, 0
2, 91980, Note_on_c, 0, 68, 0
2, 91980, Note_on_c, 0, 71, 0
2, 91980, Note_on_c, 0, 69, 93
2, 91980, Note_on_c, 0, 73, 93
2, 91980, Note_on_c, 0, 64, 71
2, 91980, Note_on_c, 0, 61, 61
2, 91980, Note_on_c, 0, 57, 61
2, 92160, Note_on_c, 0, 57, 0
2, 92160, Note_on_c, 0, 64, 0
2, 92160, Note_on_c, 0, 69, 0
2, 92160, Note_on_c, 0, 73, 0
2, 92160, Note_on_c, 0, 61, 0
2, 92160, Note_on_c, 0, 68, 78
2, 92160, Note_on_c, 0, 71, 78
2, 92160, Note_on_c, 0, 63, 70
2, 92160, Note_on_c, 0, 59, 57
2, 92160, Note_on_c, 0, 59, 71
2, 92250, Note_on_c, 0, 59, 0
2, 92250, Note_on_c, 0, 71, 0
2, 92250, Note_on_c, 0, 68, 0
2, 92250, Note_on_c, 0, 66, 83
2, 92250, Note_on_c, 0, 69, 83
2, 92250, Note_on_c, 0, 57, 62
2, 92340, Note_on_c, 0, 57, 0
2, 92340, Note_on_c, 0, 66, 0
2, 92340, Note_on_c, 0, 63, 0
2, 92340, Note_on_c, 0, 69, 0
2, 92340, Note_on_c, 0, 62, 88
2, 92340, Note_on_c, 0, 71, 88
2, 92340, Note_on_c, 0, 67, 87
2, 92340, Note_on_c, 0, 55, 65
2, 92430, Note_on_c, 0, 55, 0
2, 92430, Note_on_c, 0, 67, 0
2, 92430, Note_on_c, 0, 66, 71
2, 92430, Note_on_c, 0, 56, 67
2, 92520, Note_on_c, 0, 56, 0
2, 92520, Note_on_c, 0, 59, 0
2, 92520, Note_on_c, 0, 71, 0
2, 92520, Note_on_c, 0, 62, 0
2, 92520, Note_on_c, 0, 66, 0
2, 92520, Note_on_c, 0, 69, 76
2, 92520, Note_on_c, 0, 65, 71
2, 92520, Note_on_c, 0, 61, 58
2, 92520, Note_on_c, 0, 57, 68
2, 92610, Note_on_c, 0, 57, 0
2, 92610, Note_on_c, 0, 69, 0
2, 92610, Note_on_c, 0, 68, 69
2, 92610, Note_on_c, 0, 71, 69
2, 92610, Note_on_c, 0, 56, 67
2, 92700, Note_on_c, 0, 56, 0
2, 92700, Note_on_c, 0, 65, 0
2, 92700, Note_on_c, 0, 73, 0
2, 92700, Note_on_c, 0, 61, 0
2, 92700, Note_on_c, 0, 71, 0
2, 92700, Note_on_c, 0, 68, 0
2, 92700, Note_on_c, 0, 73, 63
2, 92700, Note_on_c, 0, 66, 80
2, 92700, Note_on_c, 0, 69, 80
2, 92700, Note_on_c, 0, 61, 54
2, 92700, Note_on_c, 0, 54, 63
2, 92790, Note_on_c, 0, 54, 0
2, 92790, Note_on_c, 0, 51, 64
2, 92880, Note_on_c, 0, 51, 0
2, 92880, Note_on_c, 0, 69, 0
2, 92880, Note_on_c, 0, 66, 0
2, 92880, Note_on_c, 0, 66, 53
2, 92880, Note_on_c, 0, 69, 53
2, 92880, Note_on_c, 0, 52, 66
2, 92970, Note_on_c, 0, 52, 0
2, 92970, Note_on_c, 0, 54, 73
2, 93060, Note_on_c, 0, 54, 0
2, 93060, Note_on_c, 0, 69, 0
2, 93060, Note_on_c, 0, 66, 0
2, 93060, Note_on_c, 0, 64, 41
2, 93060, Note_on_c, 0, 68, 41
2, 93060, Note_on_c, 0, 56, 68
2, 93150, Note_on_c, 0, 56, 0
2, 93150, Note_on_c, 0, 57, 69
2, 93240, Note_on_c, 0, 57, 0
2, 93240, Note_on_c, 0, 68, 0
2, 93240, Note_on_c, 0, 64, 0
2, 93240, Note_on_c, 0, 63, 49
2, 93240, Note_on_c, 0, 66, 49
2, 93240, Note_on_c, 0, 56, 61
2, 93420, Note_on_c, 0, 56, 0
2, 93420, Note_on_c, 0, 63, 0
2, 93420, Note_on_c, 0, 66, 0
2, 93420, Note_on_c, 0, 61, 0
2, 93420, Note_on_c, 0, 61, 51
2, 93420, Note_on_c, 0, 64, 51
2, 93420, Note_on_c, 0, 49, 47
2, 93600, Note_on_c, 0, 64, 0
2, 93600, Note_on_c, 0, 61, 0
2, 93600, Note_on_c, 0, 64, 57
2, 93600, Note_on_c, 0, 68, 57
2, 93690, Note_on_c, 0, 49, 0
2, 93690, Note_on_c, 0, 56, 55
2, 93780, Note_on_c, 0, 56, 0
2, 93780, Note_on_c, 0, 68, 0
2, 93780, Note_on_c, 0, 64, 0
2, 93780, Note_on_c, 0, 64, 51
2, 93780, Note_on_c, 0, 68, 51
2, 93780, Note_on_c, 0, 61, 47
2, 93960, Note_on_c, 0, 68, 0
2, 93960, Note_on_c, 0, 64, 0
2, 93960, Note_on_c, 0, 64, 50
2, 93960, Note_on_c, 0, 68, 50
2, 94140, Note_on_c, 0, 68, 0
2, 94140, Note_on_c, 0, 64, 0
2, 94140, Note_on_c, 0, 64, 47
2, 94140, Note_on_c, 0, 68, 47
2, 94320, Note_on_c, 0, 68, 0
2, 94320, Note_on_c, 0, 64, 0
2, 94320, Note_on_c, 0, 64, 48
2, 94320, Note_on_c, 0, 68, 48
2, 94680, Note_on_c, 0, 68, 0
2, 94680, Note_on_c, 0, 64, 0
2, 94680, Note_on_c, 0, 64, 50
2, 94680, Note_on_c, 0, 68, 50
2, 94860, Note_on_c, 0, 68, 0
2, 94860, Note_on_c, 0, 61, 0
2, 94860, Note_on_c, 0, 73, 0
2, 94860, Note_on_c, 0, 64, 0
2, 94860, End_track
0, 0, End_of_file
