0, 0, Header, 1, 4, 384
1, 0, Start_track
1, 0, Title_t, "untitled"
1, 0, Sequencer_specific, 3, 0, 0, 65
1, 0, Time_signature, 4, 2, 24, 8
1, 0, Key_signature, 0, "major"
1, 0, Tempo, 483871
1, 187508, Tempo, 521739
1, 189616, Tempo, 483871
1, 241532, Tempo, 521739
1, 243640, Tempo, 483871
1, 267264, Tempo, 483871
1, 267424, Tempo, 487805
1, 267584, Tempo, 491803
1, 267744, Tempo, 495868
1, 267904, Tempo, 500000
1, 268064, Tempo, 504202
1, 268224, Tempo, 508475
1, 268384, Tempo, 512821
1, 268544, Tempo, 517241
1, 268704, Tempo, 521739
1, 268864, Tempo, 526316
1, 269024, Tempo, 530973
1, 269184, Tempo, 535714
1, 269344, Tempo, 540541
1, 269504, Tempo, 545455
1, 269504, End_track
2, 0, Start_track
2, 0, Title_t, "Vocalise"
2, 0, Control_c, 0, 0, 0
2, 0, Control_c, 0, 7, 105
2, 0, Control_c, 0, 10, 79
2, 0, Control_c, 0, 32, 0
2, 1, Program_c, 0, 52
2, 1848, Note_on_c, 0, 79, 60
2, 1848, Control_c, 0, 93, 127
2, 1848, Control_c, 0, 11, 127
2, 2116, Note_on_c, 0, 78, 71
2, 2132, Note_on_c, 0, 79, 0
2, 2432, Note_on_c, 0, 79, 71
2, 2472, Note_on_c, 0, 78, 0
2, 3980, Note_on_c, 0, 76, 65
2, 4004, Note_on_c, 0, 79, 0
2, 4208, Note_on_c, 0, 78, 65
2, 4232, Note_on_c, 0, 76, 0
2, 4488, Note_on_c, 0, 79, 73
2, 4504, Note_on_c, 0, 78, 0
2, 5032, Note_on_c, 0, 78, 73
2, 5072, Note_on_c, 0, 79, 0
2, 5256, Note_on_c, 0, 76, 81
2, 5276, Note_on_c, 0, 78, 0
2, 5520, Note_on_c, 0, 78, 65
2, 5552, Note_on_c, 0, 76, 0
2, 6068, Note_on_c, 0, 74, 67
2, 6092, Note_on_c, 0, 78, 0
2, 6316, Note_on_c, 0, 76, 69
2, 6360, Note_on_c, 0, 74, 0
2, 6608, Note_on_c, 0, 78, 60
2, 6648, Note_on_c, 0, 76, 0
2, 9048, Note_on_c, 0, 76, 59
2, 9108, Note_on_c, 0, 78, 0
2, 9300, Note_on_c, 0, 74, 70
2, 9304, Note_on_c, 0, 76, 0
2, 9568, Note_on_c, 0, 76, 70
2, 9592, Note_on_c, 0, 74, 0
2, 10120, Note_on_c, 0, 72, 70
2, 10172, Note_on_c, 0, 76, 0
2, 10360, Note_on_c, 0, 74, 70
2, 10392, Note_on_c, 0, 72, 0
2, 10632, Note_on_c, 0, 76, 75
2, 10652, Note_on_c, 0, 74, 0
2, 13176, Note_on_c, 0, 74, 56
2, 13208, Note_on_c, 0, 76, 0
2, 13428, Note_on_c, 0, 72, 76
2, 13436, Note_on_c, 0, 74, 0
2, 13740, Note_on_c, 0, 71, 70
2, 13764, Note_on_c, 0, 72, 0
2, 14540, Note_on_c, 0, 71, 0
2, 14548, Note_on_c, 0, 69, 71
2, 14880, Note_on_c, 0, 69, 0
2, 14880, Note_on_c, 0, 71, 73
2, 15732, Note_on_c, 0, 72, 53
2, 15764, Note_on_c, 0, 71, 0
2, 16124, Note_on_c, 0, 71, 52
2, 16164, Note_on_c, 0, 72, 0
2, 17584, Note_on_c, 0, 72, 79
2, 17608, Note_on_c, 0, 71, 0
2, 17860, Note_on_c, 0, 72, 0
2, 17888, Note_on_c, 0, 76, 82
2, 18140, Note_on_c, 0, 76, 0
2, 18156, Note_on_c, 0, 79, 83
2, 18524, Note_on_c, 0, 81, 86
2, 18552, Note_on_c, 0, 79, 0
2, 19532, Note_on_c, 0, 83, 87
2, 19552, Note_on_c, 0, 81, 0
2, 19912, Note_on_c, 0, 79, 81
2, 19928, Note_on_c, 0, 83, 0
2, 21612, Note_on_c, 0, 77, 64
2, 21652, Note_on_c, 0, 79, 0
2, 22212, Note_on_c, 0, 76, 70
2, 22248, Note_on_c, 0, 77, 0
2, 23540, Note_on_c, 0, 75, 69
2, 23576, Note_on_c, 0, 76, 0
2, 23744, Note_on_c, 0, 76, 70
2, 23760, Note_on_c, 0, 75, 0
2, 23868, Note_on_c, 0, 75, 67
2, 23872, Note_on_c, 0, 76, 0
2, 23960, Note_on_c, 0, 75, 0
2, 23960, Note_on_c, 0, 76, 68
2, 24048, Note_on_c, 0, 75, 59
2, 24052, Note_on_c, 0, 76, 0
2, 24120, Note_on_c, 0, 76, 70
2, 24124, Note_on_c, 0, 75, 0
2, 24196, Note_on_c, 0, 75, 58
2, 24200, Note_on_c, 0, 76, 0
2, 24272, Note_on_c, 0, 76, 66
2, 24284, Note_on_c, 0, 75, 0
2, 24344, Note_on_c, 0, 75, 47
2, 24352, Note_on_c, 0, 76, 0
2, 24424, Note_on_c, 0, 75, 0
2, 24424, Note_on_c, 0, 76, 67
2, 24512, Note_on_c, 0, 75, 61
2, 24520, Note_on_c, 0, 76, 0
2, 24608, Note_on_c, 0, 75, 0
2, 24608, Note_on_c, 0, 73, 54
2, 24740, Note_on_c, 0, 73, 0
2, 24748, Note_on_c, 0, 75, 65
2, 24888, Note_on_c, 0, 75, 0
2, 24956, Note_on_c, 0, 76, 61
2, 27164, Note_on_c, 0, 76, 0
2, 27524, Note_on_c, 0, 76, 82
2, 28584, Note_on_c, 0, 74, 82
2, 28624, Note_on_c, 0, 76, 0
2, 29136, Note_on_c, 0, 73, 76
2, 29184, Note_on_c, 0, 74, 0
2, 31500, Note_on_c, 0, 73, 0
2, 31656, Note_on_c, 0, 73, 65
2, 32192, Note_on_c, 0, 74, 81
2, 32196, Note_on_c, 0, 73, 0
2, 32688, Note_on_c, 0, 76, 82
2, 32708, Note_on_c, 0, 74, 0
2, 33160, Note_on_c, 0, 76, 0
2, 33264, Note_on_c, 0, 76, 84
2, 33796, Note_on_c, 0, 74, 81
2, 33824, Note_on_c, 0, 76, 0
2, 34064, Note_on_c, 0, 76, 89
2, 34088, Note_on_c, 0, 74, 0
2, 34352, Note_on_c, 0, 78, 79
2, 34368, Note_on_c, 0, 76, 0
2, 35880, Note_on_c, 0, 78, 0
2, 35912, Note_on_c, 0, 71, 54
2, 36136, Note_on_c, 0, 73, 69
2, 36156, Note_on_c, 0, 71, 0
2, 36432, Note_on_c, 0, 73, 0
2, 36444, Note_on_c, 0, 74, 79
2, 36964, Note_on_c, 0, 76, 85
2, 36980, Note_on_c, 0, 74, 0
2, 37208, Note_on_c, 0, 76, 0
2, 37212, Note_on_c, 0, 78, 83
2, 37532, Note_on_c, 0, 80, 82
2, 37572, Note_on_c, 0, 78, 0
2, 39864, Note_on_c, 0, 80, 0
2, 39928, Note_on_c, 0, 77, 78
2, 40408, Note_on_c, 0, 78, 83
2, 40452, Note_on_c, 0, 77, 0
2, 40840, Note_on_c, 0, 80, 79
2, 40944, Note_on_c, 0, 78, 0
2, 41252, Note_on_c, 0, 80, 0
2, 41348, Note_on_c, 0, 80, 84
2, 41900, Note_on_c, 0, 78, 80
2, 41936, Note_on_c, 0, 80, 0
2, 42164, Note_on_c, 0, 80, 89
2, 42216, Note_on_c, 0, 78, 0
2, 42488, Note_on_c, 0, 81, 88
2, 42532, Note_on_c, 0, 80, 0
2, 44100, Note_on_c, 0, 80, 69
2, 44140, Note_on_c, 0, 81, 0
2, 44600, Note_on_c, 0, 78, 68
2, 44624, Note_on_c, 0, 80, 0
2, 45128, Note_on_c, 0, 78, 0
2, 45132, Note_on_c, 0, 76, 75
2, 45648, Note_on_c, 0, 78, 69
2, 45676, Note_on_c, 0, 76, 0
2, 47232, Note_on_c, 0, 76, 69
2, 47280, Note_on_c, 0, 78, 0
2, 47492, Note_on_c, 0, 75, 76
2, 47500, Note_on_c, 0, 76, 0
2, 47804, Note_on_c, 0, 76, 79
2, 47824, Note_on_c, 0, 75, 0
2, 49156, Note_on_c, 0, 76, 0
2, 49448, Note_on_c, 0, 71, 50
2, 49716, Note_on_c, 0, 73, 75
2, 49796, Note_on_c, 0, 71, 0
2, 49988, Note_on_c, 0, 75, 76
2, 50032, Note_on_c, 0, 73, 0
2, 50536, Note_on_c, 0, 76, 85
2, 50544, Note_on_c, 0, 75, 0
2, 50788, Note_on_c, 0, 78, 85
2, 50820, Note_on_c, 0, 76, 0
2, 51092, Note_on_c, 0, 79, 92
2, 51128, Note_on_c, 0, 78, 0
2, 52724, Note_on_c, 0, 79, 0
2, 52744, Note_on_c, 0, 78, 62
2, 53308, Note_on_c, 0, 76, 68
2, 53348, Note_on_c, 0, 78, 0
2, 53872, Note_on_c, 0, 74, 72
2, 53896, Note_on_c, 0, 76, 0
2, 54328, Note_on_c, 0, 74, 0
2, 54400, Note_on_c, 0, 74, 66
2, 54964, Note_on_c, 0, 73, 67
2, 55004, Note_on_c, 0, 74, 0
2, 55216, Note_on_c, 0, 74, 84
2, 55220, Note_on_c, 0, 73, 0
2, 55496, Note_on_c, 0, 76, 76
2, 55536, Note_on_c, 0, 74, 0
2, 57084, Note_on_c, 0, 74, 69
2, 57088, Note_on_c, 0, 76, 0
2, 57336, Note_on_c, 0, 73, 80
2, 57352, Note_on_c, 0, 74, 0
2, 57608, Note_on_c, 0, 74, 81
2, 57640, Note_on_c, 0, 73, 0
2, 58196, Note_on_c, 0, 74, 0
2, 58208, Note_on_c, 0, 69, 75
2, 58472, Note_on_c, 0, 71, 79
2, 58504, Note_on_c, 0, 69, 0
2, 58740, Note_on_c, 0, 73, 78
2, 58772, Note_on_c, 0, 71, 0
2, 59276, Note_on_c, 0, 74, 82
2, 59288, Note_on_c, 0, 73, 0
2, 59524, Note_on_c, 0, 76, 92
2, 59552, Note_on_c, 0, 74, 0
2, 59832, Note_on_c, 0, 77, 93
2, 59864, Note_on_c, 0, 76, 0
2, 61416, Note_on_c, 0, 76, 82
2, 61432, Note_on_c, 0, 77, 0
2, 61932, Note_on_c, 0, 74, 68
2, 61968, Note_on_c, 0, 76, 0
2, 62492, Note_on_c, 0, 72, 64
2, 62512, Note_on_c, 0, 74, 0
2, 63068, Note_on_c, 0, 71, 66
2, 63084, Note_on_c, 0, 72, 0
2, 65264, Note_on_c, 0, 70, 46
2, 65304, Note_on_c, 0, 71, 0
2, 67028, Note_on_c, 0, 70, 0
2, 67036, Note_on_c, 0, 76, 74
2, 67664, Note_on_c, 0, 78, 62
2, 67676, Note_on_c, 0, 76, 0
2, 68616, Note_on_c, 0, 76, 58
2, 68660, Note_on_c, 0, 78, 0
2, 68948, Note_on_c, 0, 74, 59
2, 68960, Note_on_c, 0, 76, 0
2, 69256, Note_on_c, 0, 74, 0
2, 69264, Note_on_c, 0, 76, 57
2, 69624, Note_on_c, 0, 73, 48
2, 69664, Note_on_c, 0, 76, 0
2, 70260, Note_on_c, 0, 73, 0
2, 70428, Note_on_c, 0, 71, 47
2, 71864, Note_on_c, 0, 71, 0
2, 76432, Note_on_c, 0, 79, 60
2, 76700, Note_on_c, 0, 78, 71
2, 76716, Note_on_c, 0, 79, 0
2, 77016, Note_on_c, 0, 79, 71
2, 77056, Note_on_c, 0, 78, 0
2, 78564, Note_on_c, 0, 76, 65
2, 78588, Note_on_c, 0, 79, 0
2, 78792, Note_on_c, 0, 78, 65
2, 78816, Note_on_c, 0, 76, 0
2, 79072, Note_on_c, 0, 79, 73
2, 79088, Note_on_c, 0, 78, 0
2, 79616, Note_on_c, 0, 78, 73
2, 79656, Note_on_c, 0, 79, 0
2, 79840, Note_on_c, 0, 76, 81
2, 79860, Note_on_c, 0, 78, 0
2, 80104, Note_on_c, 0, 78, 65
2, 80136, Note_on_c, 0, 76, 0
2, 80652, Note_on_c, 0, 74, 67
2, 80676, Note_on_c, 0, 78, 0
2, 80900, Note_on_c, 0, 76, 69
2, 80944, Note_on_c, 0, 74, 0
2, 81192, Note_on_c, 0, 78, 60
2, 81232, Note_on_c, 0, 76, 0
2, 83632, Note_on_c, 0, 76, 59
2, 83692, Note_on_c, 0, 78, 0
2, 83884, Note_on_c, 0, 74, 70
2, 83888, Note_on_c, 0, 76, 0
2, 84152, Note_on_c, 0, 76, 70
2, 84176, Note_on_c, 0, 74, 0
2, 84704, Note_on_c, 0, 72, 70
2, 84756, Note_on_c, 0, 76, 0
2, 84944, Note_on_c, 0, 74, 70
2, 84976, Note_on_c, 0, 72, 0
2, 85216, Note_on_c, 0, 76, 75
2, 85236, Note_on_c, 0, 74, 0
2, 87760, Note_on_c, 0, 74, 56
2, 87792, Note_on_c, 0, 76, 0
2, 88012, Note_on_c, 0, 72, 76
2, 88020, Note_on_c, 0, 74, 0
2, 88324, Note_on_c, 0, 71, 70
2, 88348, Note_on_c, 0, 72, 0
2, 89124, Note_on_c, 0, 71, 0
2, 89132, Note_on_c, 0, 69, 71
2, 89464, Note_on_c, 0, 69, 0
2, 89464, Note_on_c, 0, 71, 73
2, 90316, Note_on_c, 0, 72, 53
2, 90348, Note_on_c, 0, 71, 0
2, 90708, Note_on_c, 0, 71, 52
2, 90748, Note_on_c, 0, 72, 0
2, 92168, Note_on_c, 0, 72, 79
2, 92192, Note_on_c, 0, 71, 0
2, 92444, Note_on_c, 0, 72, 0
2, 92472, Note_on_c, 0, 76, 82
2, 92724, Note_on_c, 0, 76, 0
2, 92740, Note_on_c, 0, 79, 83
2, 93108, Note_on_c, 0, 81, 86
2, 93136, Note_on_c, 0, 79, 0
2, 94116, Note_on_c, 0, 83, 87
2, 94136, Note_on_c, 0, 81, 0
2, 94496, Note_on_c, 0, 79, 81
2, 94512, Note_on_c, 0, 83, 0
2, 96196, Note_on_c, 0, 77, 64
2, 96236, Note_on_c, 0, 79, 0
2, 96796, Note_on_c, 0, 76, 70
2, 96832, Note_on_c, 0, 77, 0
2, 98124, Note_on_c, 0, 75, 69
2, 98160, Note_on_c, 0, 76, 0
2, 98328, Note_on_c, 0, 76, 70
2, 98344, Note_on_c, 0, 75, 0
2, 98452, Note_on_c, 0, 75, 67
2, 98456, Note_on_c, 0, 76, 0
2, 98544, Note_on_c, 0, 75, 0
2, 98544, Note_on_c, 0, 76, 68
2, 98632, Note_on_c, 0, 75, 59
2, 98636, Note_on_c, 0, 76, 0
2, 98704, Note_on_c, 0, 76, 70
2, 98708, Note_on_c, 0, 75, 0
2, 98780, Note_on_c, 0, 75, 58
2, 98784, Note_on_c, 0, 76, 0
2, 98856, Note_on_c, 0, 76, 66
2, 98868, Note_on_c, 0, 75, 0
2, 98928, Note_on_c, 0, 75, 47
2, 98936, Note_on_c, 0, 76, 0
2, 99008, Note_on_c, 0, 75, 0
2, 99008, Note_on_c, 0, 76, 67
2, 99096, Note_on_c, 0, 75, 61
2, 99104, Note_on_c, 0, 76, 0
2, 99192, Note_on_c, 0, 75, 0
2, 99192, Note_on_c, 0, 73, 54
2, 99324, Note_on_c, 0, 73, 0
2, 99332, Note_on_c, 0, 75, 65
2, 99472, Note_on_c, 0, 75, 0
2, 99540, Note_on_c, 0, 76, 61
2, 101748, Note_on_c, 0, 76, 0
2, 102108, Note_on_c, 0, 76, 82
2, 103168, Note_on_c, 0, 74, 82
2, 103208, Note_on_c, 0, 76, 0
2, 103720, Note_on_c, 0, 73, 76
2, 103768, Note_on_c, 0, 74, 0
2, 106084, Note_on_c, 0, 73, 0
2, 106240, Note_on_c, 0, 73, 65
2, 106776, Note_on_c, 0, 74, 81
2, 106780, Note_on_c, 0, 73, 0
2, 107272, Note_on_c, 0, 76, 82
2, 107292, Note_on_c, 0, 74, 0
2, 107744, Note_on_c, 0, 76, 0
2, 107848, Note_on_c, 0, 76, 84
2, 108380, Note_on_c, 0, 74, 81
2, 108408, Note_on_c, 0, 76, 0
2, 108648, Note_on_c, 0, 76, 89
2, 108672, Note_on_c, 0, 74, 0
2, 108936, Note_on_c, 0, 78, 79
2, 108952, Note_on_c, 0, 76, 0
2, 110464, Note_on_c, 0, 78, 0
2, 110496, Note_on_c, 0, 71, 54
2, 110720, Note_on_c, 0, 73, 69
2, 110740, Note_on_c, 0, 71, 0
2, 111016, Note_on_c, 0, 73, 0
2, 111028, Note_on_c, 0, 74, 79
2, 111548, Note_on_c, 0, 76, 85
2, 111564, Note_on_c, 0, 74, 0
2, 111792, Note_on_c, 0, 76, 0
2, 111796, Note_on_c, 0, 78, 83
2, 112116, Note_on_c, 0, 80, 82
2, 112156, Note_on_c, 0, 78, 0
2, 114416, Note_on_c, 0, 77, 78
2, 114448, Note_on_c, 0, 80, 0
2, 114928, Note_on_c, 0, 78, 83
2, 114940, Note_on_c, 0, 77, 0
2, 115424, Note_on_c, 0, 80, 79
2, 115464, Note_on_c, 0, 78, 0
2, 115836, Note_on_c, 0, 80, 0
2, 115932, Note_on_c, 0, 80, 84
2, 116484, Note_on_c, 0, 78, 80
2, 116520, Note_on_c, 0, 80, 0
2, 116748, Note_on_c, 0, 80, 89
2, 116800, Note_on_c, 0, 78, 0
2, 117072, Note_on_c, 0, 81, 88
2, 117116, Note_on_c, 0, 80, 0
2, 118684, Note_on_c, 0, 80, 69
2, 118724, Note_on_c, 0, 81, 0
2, 119184, Note_on_c, 0, 78, 68
2, 119208, Note_on_c, 0, 80, 0
2, 119712, Note_on_c, 0, 78, 0
2, 119716, Note_on_c, 0, 76, 75
2, 120232, Note_on_c, 0, 78, 69
2, 120260, Note_on_c, 0, 76, 0
2, 121816, Note_on_c, 0, 76, 69
2, 121864, Note_on_c, 0, 78, 0
2, 122076, Note_on_c, 0, 75, 76
2, 122084, Note_on_c, 0, 76, 0
2, 122388, Note_on_c, 0, 76, 79
2, 122408, Note_on_c, 0, 75, 0
2, 124032, Note_on_c, 0, 71, 50
2, 124048, Note_on_c, 0, 76, 0
2, 124300, Note_on_c, 0, 73, 75
2, 124380, Note_on_c, 0, 71, 0
2, 124572, Note_on_c, 0, 75, 76
2, 124616, Note_on_c, 0, 73, 0
2, 125120, Note_on_c, 0, 76, 85
2, 125128, Note_on_c, 0, 75, 0
2, 125372, Note_on_c, 0, 78, 85
2, 125404, Note_on_c, 0, 76, 0
2, 125676, Note_on_c, 0, 79, 92
2, 125712, Note_on_c, 0, 78, 0
2, 127308, Note_on_c, 0, 79, 0
2, 127328, Note_on_c, 0, 78, 62
2, 127892, Note_on_c, 0, 76, 68
2, 127932, Note_on_c, 0, 78, 0
2, 128456, Note_on_c, 0, 74, 72
2, 128480, Note_on_c, 0, 76, 0
2, 128912, Note_on_c, 0, 74, 0
2, 128984, Note_on_c, 0, 74, 66
2, 129548, Note_on_c, 0, 73, 67
2, 129588, Note_on_c, 0, 74, 0
2, 129800, Note_on_c, 0, 74, 84
2, 129804, Note_on_c, 0, 73, 0
2, 130080, Note_on_c, 0, 76, 76
2, 130120, Note_on_c, 0, 74, 0
2, 131668, Note_on_c, 0, 74, 69
2, 131672, Note_on_c, 0, 76, 0
2, 131920, Note_on_c, 0, 73, 80
2, 131936, Note_on_c, 0, 74, 0
2, 132192, Note_on_c, 0, 74, 81
2, 132224, Note_on_c, 0, 73, 0
2, 132780, Note_on_c, 0, 74, 0
2, 132792, Note_on_c, 0, 69, 75
2, 133056, Note_on_c, 0, 71, 79
2, 133088, Note_on_c, 0, 69, 0
2, 133324, Note_on_c, 0, 73, 78
2, 133356, Note_on_c, 0, 71, 0
2, 133860, Note_on_c, 0, 74, 82
2, 133872, Note_on_c, 0, 73, 0
2, 134108, Note_on_c, 0, 76, 92
2, 134136, Note_on_c, 0, 74, 0
2, 134416, Note_on_c, 0, 77, 93
2, 134448, Note_on_c, 0, 76, 0
2, 136000, Note_on_c, 0, 76, 82
2, 136016, Note_on_c, 0, 77, 0
2, 136516, Note_on_c, 0, 74, 68
2, 136552, Note_on_c, 0, 76, 0
2, 137076, Note_on_c, 0, 72, 64
2, 137096, Note_on_c, 0, 74, 0
2, 137652, Note_on_c, 0, 71, 66
2, 137668, Note_on_c, 0, 72, 0
2, 139848, Note_on_c, 0, 70, 46
2, 139888, Note_on_c, 0, 71, 0
2, 141612, Note_on_c, 0, 70, 0
2, 141620, Note_on_c, 0, 76, 74
2, 142248, Note_on_c, 0, 78, 62
2, 142260, Note_on_c, 0, 76, 0
2, 143200, Note_on_c, 0, 76, 58
2, 143244, Note_on_c, 0, 78, 0
2, 143532, Note_on_c, 0, 74, 59
2, 143544, Note_on_c, 0, 76, 0
2, 143840, Note_on_c, 0, 74, 0
2, 143848, Note_on_c, 0, 76, 57
2, 144208, Note_on_c, 0, 73, 48
2, 144248, Note_on_c, 0, 76, 0
2, 144844, Note_on_c, 0, 73, 0
2, 145004, Note_on_c, 0, 71, 47
2, 146324, Note_on_c, 0, 71, 0
2, 147772, Note_on_c, 0, 78, 81
2, 148812, Note_on_c, 0, 76, 83
2, 148852, Note_on_c, 0, 78, 0
2, 149372, Note_on_c, 0, 75, 81
2, 149412, Note_on_c, 0, 76, 0
2, 150360, Note_on_c, 0, 78, 70
2, 150412, Note_on_c, 0, 75, 0
2, 150912, Note_on_c, 0, 78, 0
2, 151896, Note_on_c, 0, 78, 79
2, 152948, Note_on_c, 0, 76, 76
2, 152952, Note_on_c, 0, 78, 0
2, 153532, Note_on_c, 0, 75, 85
2, 153556, Note_on_c, 0, 76, 0
2, 154604, Note_on_c, 0, 78, 58
2, 154748, Note_on_c, 0, 75, 0
2, 156116, Note_on_c, 0, 78, 0
2, 156364, Note_on_c, 0, 79, 76
2, 156912, Note_on_c, 0, 78, 77
2, 156964, Note_on_c, 0, 79, 0
2, 157472, Note_on_c, 0, 76, 77
2, 157480, Note_on_c, 0, 78, 0
2, 157980, Note_on_c, 0, 74, 80
2, 158020, Note_on_c, 0, 76, 0
2, 158544, Note_on_c, 0, 76, 84
2, 158588, Note_on_c, 0, 74, 0
2, 159080, Note_on_c, 0, 78, 77
2, 159124, Note_on_c, 0, 76, 0
2, 159656, Note_on_c, 0, 74, 80
2, 159680, Note_on_c, 0, 78, 0
2, 160212, Note_on_c, 0, 71, 68
2, 160228, Note_on_c, 0, 74, 0
2, 161552, Note_on_c, 0, 71, 0
2, 161560, Note_on_c, 0, 73, 71
2, 161900, Note_on_c, 0, 75, 85
2, 162004, Note_on_c, 0, 73, 0
2, 162272, Note_on_c, 0, 81, 86
2, 162292, Note_on_c, 0, 75, 0
2, 162728, Note_on_c, 0, 79, 85
2, 162756, Note_on_c, 0, 81, 0
2, 164916, Note_on_c, 0, 79, 0
2, 165204, Note_on_c, 0, 79, 88
2, 166200, Note_on_c, 0, 78, 85
2, 166236, Note_on_c, 0, 79, 0
2, 166736, Note_on_c, 0, 76, 82
2, 166744, Note_on_c, 0, 78, 0
2, 167724, Note_on_c, 0, 79, 77
2, 167740, Note_on_c, 0, 76, 0
2, 168940, Note_on_c, 0, 79, 0
2, 169192, Note_on_c, 0, 79, 82
2, 169732, Note_on_c, 0, 78, 84
2, 169776, Note_on_c, 0, 79, 0
2, 170232, Note_on_c, 0, 76, 80
2, 170264, Note_on_c, 0, 78, 0
2, 170500, Note_on_c, 0, 74, 82
2, 170524, Note_on_c, 0, 76, 0
2, 170816, Note_on_c, 0, 76, 93
2, 170840, Note_on_c, 0, 74, 0
2, 171816, Note_on_c, 0, 79, 74
2, 171824, Note_on_c, 0, 76, 0
2, 173356, Note_on_c, 0, 81, 88
2, 173384, Note_on_c, 0, 79, 0
2, 173900, Note_on_c, 0, 79, 88
2, 173932, Note_on_c, 0, 81, 0
2, 174440, Note_on_c, 0, 78, 85
2, 174488, Note_on_c, 0, 79, 0
2, 174956, Note_on_c, 0, 76, 84
2, 174980, Note_on_c, 0, 78, 0
2, 175472, Note_on_c, 0, 78, 81
2, 175516, Note_on_c, 0, 76, 0
2, 175996, Note_on_c, 0, 79, 88
2, 176040, Note_on_c, 0, 78, 0
2, 176520, Note_on_c, 0, 76, 86
2, 176544, Note_on_c, 0, 79, 0
2, 177076, Note_on_c, 0, 76, 0
2, 177080, Note_on_c, 0, 72, 81
2, 178336, Note_on_c, 0, 74, 93
2, 178344, Note_on_c, 0, 72, 0
2, 178640, Note_on_c, 0, 76, 92
2, 178672, Note_on_c, 0, 74, 0
2, 178916, Note_on_c, 0, 76, 0
2, 178932, Note_on_c, 0, 79, 97
2, 179312, Note_on_c, 0, 81, 93
2, 179316, Note_on_c, 0, 79, 0
2, 181308, Note_on_c, 0, 71, 70
2, 181324, Note_on_c, 0, 81, 0
2, 182540, Note_on_c, 0, 71, 0
2, 182808, Note_on_c, 0, 81, 96
2, 183404, Note_on_c, 0, 83, 96
2, 183408, Note_on_c, 0, 81, 0
2, 186296, Note_on_c, 0, 83, 0
2, 186536, Note_on_c, 0, 81, 83
2, 187508, Note_on_c, 0, 80, 81
2, 187656, Note_on_c, 0, 81, 0
2, 187992, Note_on_c, 0, 78, 84
2, 188092, Note_on_c, 0, 80, 0
2, 188216, Note_on_c, 0, 80, 90
2, 188316, Note_on_c, 0, 78, 0
2, 188492, Note_on_c, 0, 81, 89
2, 188548, Note_on_c, 0, 80, 0
2, 190132, Note_on_c, 0, 79, 71
2, 190160, Note_on_c, 0, 81, 0
2, 190688, Note_on_c, 0, 78, 70
2, 190732, Note_on_c, 0, 79, 0
2, 191220, Note_on_c, 0, 76, 78
2, 191224, Note_on_c, 0, 78, 0
2, 191832, Note_on_c, 0, 75, 65
2, 191868, Note_on_c, 0, 76, 0
2, 192424, Note_on_c, 0, 74, 74
2, 192432, Note_on_c, 0, 75, 0
2, 192740, Note_on_c, 0, 75, 85
2, 192756, Note_on_c, 0, 74, 0
2, 193116, Note_on_c, 0, 76, 84
2, 193144, Note_on_c, 0, 75, 0
2, 194756, Note_on_c, 0, 74, 82
2, 194768, Note_on_c, 0, 76, 0
2, 195772, Note_on_c, 0, 72, 72
2, 195808, Note_on_c, 0, 74, 0
2, 196384, Note_on_c, 0, 72, 0
2, 196420, Note_on_c, 0, 71, 74
2, 197328, Note_on_c, 0, 69, 80
2, 197332, Note_on_c, 0, 71, 0
2, 197652, Note_on_c, 0, 67, 73
2, 197744, Note_on_c, 0, 69, 0
2, 197992, Note_on_c, 0, 69, 77
2, 198008, Note_on_c, 0, 67, 0
2, 198408, Note_on_c, 0, 66, 60
2, 198436, Note_on_c, 0, 69, 0
2, 199116, Note_on_c, 0, 66, 0
2, 199232, Note_on_c, 0, 64, 40
2, 200712, Note_on_c, 0, 64, 0
2, 201796, Note_on_c, 0, 78, 81
2, 202836, Note_on_c, 0, 76, 83
2, 202876, Note_on_c, 0, 78, 0
2, 203396, Note_on_c, 0, 75, 81
2, 203436, Note_on_c, 0, 76, 0
2, 204384, Note_on_c, 0, 78, 70
2, 204436, Note_on_c, 0, 75, 0
2, 204936, Note_on_c, 0, 78, 0
2, 205920, Note_on_c, 0, 78, 79
2, 206972, Note_on_c, 0, 76, 76
2, 206976, Note_on_c, 0, 78, 0
2, 207556, Note_on_c, 0, 75, 85
2, 207580, Note_on_c, 0, 76, 0
2, 208628, Note_on_c, 0, 78, 58
2, 208772, Note_on_c, 0, 75, 0
2, 210140, Note_on_c, 0, 78, 0
2, 210388, Note_on_c, 0, 79, 76
2, 210936, Note_on_c, 0, 78, 77
2, 210988, Note_on_c, 0, 79, 0
2, 211496, Note_on_c, 0, 76, 77
2, 211504, Note_on_c, 0, 78, 0
2, 212004, Note_on_c, 0, 74, 80
2, 212044, Note_on_c, 0, 76, 0
2, 212568, Note_on_c, 0, 76, 84
2, 212612, Note_on_c, 0, 74, 0
2, 213104, Note_on_c, 0, 78, 77
2, 213148, Note_on_c, 0, 76, 0
2, 213680, Note_on_c, 0, 74, 80
2, 213704, Note_on_c, 0, 78, 0
2, 214236, Note_on_c, 0, 71, 68
2, 214252, Note_on_c, 0, 74, 0
2, 215576, Note_on_c, 0, 71, 0
2, 215584, Note_on_c, 0, 73, 71
2, 215924, Note_on_c, 0, 75, 85
2, 216028, Note_on_c, 0, 73, 0
2, 216296, Note_on_c, 0, 81, 86
2, 216316, Note_on_c, 0, 75, 0
2, 216752, Note_on_c, 0, 79, 85
2, 216780, Note_on_c, 0, 81, 0
2, 218940, Note_on_c, 0, 79, 0
2, 219228, Note_on_c, 0, 79, 88
2, 220224, Note_on_c, 0, 78, 85
2, 220260, Note_on_c, 0, 79, 0
2, 220760, Note_on_c, 0, 76, 82
2, 220768, Note_on_c, 0, 78, 0
2, 221748, Note_on_c, 0, 79, 77
2, 221764, Note_on_c, 0, 76, 0
2, 222964, Note_on_c, 0, 79, 0
2, 223216, Note_on_c, 0, 79, 82
2, 223756, Note_on_c, 0, 78, 84
2, 223800, Note_on_c, 0, 79, 0
2, 224256, Note_on_c, 0, 76, 80
2, 224288, Note_on_c, 0, 78, 0
2, 224524, Note_on_c, 0, 74, 82
2, 224548, Note_on_c, 0, 76, 0
2, 224840, Note_on_c, 0, 76, 93
2, 224864, Note_on_c, 0, 74, 0
2, 225840, Note_on_c, 0, 79, 74
2, 225848, Note_on_c, 0, 76, 0
2, 227380, Note_on_c, 0, 81, 88
2, 227408, Note_on_c, 0, 79, 0
2, 227924, Note_on_c, 0, 79, 88
2, 227956, Note_on_c, 0, 81, 0
2, 228464, Note_on_c, 0, 78, 85
2, 228512, Note_on_c, 0, 79, 0
2, 228980, Note_on_c, 0, 76, 84
2, 229004, Note_on_c, 0, 78, 0
2, 229496, Note_on_c, 0, 78, 81
2, 229540, Note_on_c, 0, 76, 0
2, 230020, Note_on_c, 0, 79, 88
2, 230064, Note_on_c, 0, 78, 0
2, 230544, Note_on_c, 0, 76, 86
2, 230568, Note_on_c, 0, 79, 0
2, 231100, Note_on_c, 0, 76, 0
2, 231104, Note_on_c, 0, 72, 81
2, 232360, Note_on_c, 0, 74, 93
2, 232368, Note_on_c, 0, 72, 0
2, 232664, Note_on_c, 0, 76, 92
2, 232696, Note_on_c, 0, 74, 0
2, 232940, Note_on_c, 0, 76, 0
2, 232956, Note_on_c, 0, 79, 97
2, 233336, Note_on_c, 0, 81, 93
2, 233340, Note_on_c, 0, 79, 0
2, 235332, Note_on_c, 0, 71, 70
2, 235348, Note_on_c, 0, 81, 0
2, 236564, Note_on_c, 0, 71, 0
2, 236832, Note_on_c, 0, 81, 96
2, 237428, Note_on_c, 0, 83, 96
2, 237432, Note_on_c, 0, 81, 0
2, 240320, Note_on_c, 0, 83, 0
2, 240560, Note_on_c, 0, 81, 83
2, 241532, Note_on_c, 0, 80, 81
2, 241680, Note_on_c, 0, 81, 0
2, 242016, Note_on_c, 0, 78, 84
2, 242116, Note_on_c, 0, 80, 0
2, 242240, Note_on_c, 0, 80, 90
2, 242340, Note_on_c, 0, 78, 0
2, 242516, Note_on_c, 0, 81, 89
2, 242572, Note_on_c, 0, 80, 0
2, 244156, Note_on_c, 0, 79, 71
2, 244184, Note_on_c, 0, 81, 0
2, 244712, Note_on_c, 0, 78, 70
2, 244756, Note_on_c, 0, 79, 0
2, 245244, Note_on_c, 0, 76, 78
2, 245248, Note_on_c, 0, 78, 0
2, 245856, Note_on_c, 0, 75, 65
2, 245892, Note_on_c, 0, 76, 0
2, 246448, Note_on_c, 0, 74, 74
2, 246456, Note_on_c, 0, 75, 0
2, 246764, Note_on_c, 0, 75, 85
2, 246780, Note_on_c, 0, 74, 0
2, 247140, Note_on_c, 0, 76, 84
2, 247168, Note_on_c, 0, 75, 0
2, 248780, Note_on_c, 0, 74, 82
2, 248792, Note_on_c, 0, 76, 0
2, 249796, Note_on_c, 0, 72, 72
2, 249832, Note_on_c, 0, 74, 0
2, 250408, Note_on_c, 0, 72, 0
2, 250444, Note_on_c, 0, 71, 74
2, 251352, Note_on_c, 0, 69, 80
2, 251356, Note_on_c, 0, 71, 0
2, 251676, Note_on_c, 0, 67, 73
2, 251768, Note_on_c, 0, 69, 0
2, 252016, Note_on_c, 0, 69, 77
2, 252032, Note_on_c, 0, 67, 0
2, 252432, Note_on_c, 0, 66, 60
2, 252460, Note_on_c, 0, 69, 0
2, 253140, Note_on_c, 0, 66, 0
2, 253256, Note_on_c, 0, 64, 40
2, 254736, Note_on_c, 0, 64, 0
2, 256436, Note_on_c, 0, 67, 59
2, 256952, Note_on_c, 0, 69, 69
2, 256960, Note_on_c, 0, 67, 0
2, 257456, Note_on_c, 0, 71, 69
2, 257460, Note_on_c, 0, 69, 0
2, 257944, Note_on_c, 0, 71, 0
2, 257944, Note_on_c, 0, 69, 64
2, 258192, Note_on_c, 0, 69, 0
2, 258192, Note_on_c, 0, 71, 70
2, 258424, Note_on_c, 0, 71, 0
2, 258432, Note_on_c, 0, 72, 72
2, 258940, Note_on_c, 0, 71, 66
2, 258944, Note_on_c, 0, 72, 0
2, 259268, Note_on_c, 0, 71, 0
2, 259272, Note_on_c, 0, 72, 75
2, 259568, Note_on_c, 0, 74, 73
2, 259604, Note_on_c, 0, 72, 0
2, 260864, Note_on_c, 0, 74, 0
2, 260872, Note_on_c, 0, 72, 68
2, 261124, Note_on_c, 0, 72, 0
2, 261136, Note_on_c, 0, 74, 82
2, 261456, Note_on_c, 0, 74, 0
2, 261456, Note_on_c, 0, 76, 80
2, 262492, Note_on_c, 0, 78, 79
2, 262524, Note_on_c, 0, 76, 0
2, 263520, Note_on_c, 0, 78, 0
2, 263540, Note_on_c, 0, 79, 86
2, 265012, Note_on_c, 0, 81, 90
2, 265028, Note_on_c, 0, 79, 0
2, 265568, Note_on_c, 0, 83, 93
2, 265616, Note_on_c, 0, 81, 0
2, 268076, Note_on_c, 0, 83, 0
2, 268076, Note_on_c, 0, 84, 103
2, 268636, Note_on_c, 0, 86, 93
2, 268676, Note_on_c, 0, 84, 0
2, 269216, Note_on_c, 0, 88, 93
2, 269260, Note_on_c, 0, 86, 0
2, 269820, Note_on_c, 0, 84, 94
2, 269856, Note_on_c, 0, 88, 0
2, 270288, Note_on_c, 0, 83, 90
2, 270316, Note_on_c, 0, 84, 0
2, 270780, Note_on_c, 0, 81, 78
2, 270808, Note_on_c, 0, 83, 0
2, 271360, Note_on_c, 0, 79, 78
2, 271392, Note_on_c, 0, 81, 0
2, 271640, Note_on_c, 0, 79, 0
2, 271644, Note_on_c, 0, 81, 78
2, 271992, Note_on_c, 0, 83, 84
2, 272024, Note_on_c, 0, 81, 0
2, 273672, Note_on_c, 0, 81, 82
2, 273680, Note_on_c, 0, 83, 0
2, 274332, Note_on_c, 0, 79, 81
2, 274364, Note_on_c, 0, 81, 0
2, 275404, Note_on_c, 0, 78, 71
2, 275440, Note_on_c, 0, 79, 0
2, 275568, Note_on_c, 0, 79, 63
2, 275584, Note_on_c, 0, 78, 0
2, 275684, Note_on_c, 0, 79, 0
2, 275684, Note_on_c, 0, 78, 67
2, 275744, Note_on_c, 0, 79, 69
2, 275760, Note_on_c, 0, 78, 0
2, 275836, Note_on_c, 0, 79, 0
2, 275840, Note_on_c, 0, 78, 62
2, 275900, Note_on_c, 0, 79, 70
2, 275912, Note_on_c, 0, 78, 0
2, 275968, Note_on_c, 0, 78, 58
2, 275980, Note_on_c, 0, 79, 0
2, 276048, Note_on_c, 0, 79, 70
2, 276064, Note_on_c, 0, 78, 0
2, 276120, Note_on_c, 0, 79, 0
2, 276132, Note_on_c, 0, 78, 35
2, 276172, Note_on_c, 0, 78, 0
2, 276176, Note_on_c, 0, 79, 68
2, 276264, Note_on_c, 0, 78, 62
2, 276304, Note_on_c, 0, 79, 0
2, 276360, Note_on_c, 0, 78, 0
2, 276360, Note_on_c, 0, 76, 66
2, 276460, Note_on_c, 0, 78, 68
2, 276476, Note_on_c, 0, 76, 0
2, 276624, Note_on_c, 0, 78, 0
2, 276640, Note_on_c, 0, 76, 77
2, 281280, Note_on_c, 0, 64, 58
2, 281292, Note_on_c, 0, 76, 0
2, 288208, Note_on_c, 0, 64, 0
2, 288208, End_track
3, 0, Start_track
3, 0, Title_t, "Serge Rachmaninoff"
3, 0, Control_c, 0, 0, 0
3, 0, Control_c, 0, 7, 105
3, 0, Control_c, 0, 10, 47
3, 0, Control_c, 0, 93, 100
3, 0, Control_c, 0, 32, 0
3, 1, Program_c, 0, 0
3, 2520, Note_on_c, 0, 71, 50
3, 2520, Control_c, 0, 7, 100
3, 2524, Note_on_c, 0, 62, 38
3, 2532, Note_on_c, 0, 67, 45
3, 2540, Note_on_c, 0, 64, 37
3, 2736, Control_c, 0, 64, 56
3, 2752, Control_c, 0, 64, 88
3, 2768, Control_c, 0, 64, 127
3, 2820, Note_on_c, 0, 64, 0
3, 2828, Note_on_c, 0, 71, 0
3, 2840, Note_on_c, 0, 67, 0
3, 3080, Note_on_c, 0, 71, 40
3, 3092, Note_on_c, 0, 67, 35
3, 3092, Control_c, 0, 64, 88
3, 3104, Note_on_c, 0, 64, 32
3, 3108, Control_c, 0, 64, 56
3, 3124, Control_c, 0, 64, 40
3, 3168, Control_c, 0, 64, 104
3, 3184, Control_c, 0, 64, 127
3, 3288, Note_on_c, 0, 67, 0
3, 3292, Note_on_c, 0, 64, 0
3, 3292, Note_on_c, 0, 71, 0
3, 3596, Note_on_c, 0, 71, 33
3, 3604, Note_on_c, 0, 67, 28
3, 3608, Note_on_c, 0, 64, 25
3, 3740, Note_on_c, 0, 64, 0
3, 3760, Note_on_c, 0, 67, 0
3, 3780, Note_on_c, 0, 71, 0
3, 4068, Note_on_c, 0, 71, 35
3, 4068, Note_on_c, 0, 64, 32
3, 4068, Note_on_c, 0, 67, 35
3, 4212, Note_on_c, 0, 64, 0
3, 4216, Note_on_c, 0, 71, 0
3, 4220, Note_on_c, 0, 67, 0
3, 4480, Note_on_c, 0, 62, 0
3, 4588, Note_on_c, 0, 71, 36
3, 4596, Note_on_c, 0, 60, 39
3, 4600, Note_on_c, 0, 67, 32
3, 4604, Note_on_c, 0, 64, 24
3, 4640, Control_c, 0, 64, 72
3, 4656, Control_c, 0, 64, 24
3, 4672, Control_c, 0, 64, 0
3, 4784, Control_c, 0, 64, 72
3, 4800, Control_c, 0, 64, 127
3, 4828, Note_on_c, 0, 64, 0
3, 4840, Note_on_c, 0, 71, 0
3, 4852, Note_on_c, 0, 67, 0
3, 5072, Note_on_c, 0, 71, 47
3, 5080, Note_on_c, 0, 67, 38
3, 5092, Note_on_c, 0, 64, 32
3, 5380, Note_on_c, 0, 67, 0
3, 5384, Note_on_c, 0, 71, 0
3, 5396, Note_on_c, 0, 64, 0
3, 5596, Note_on_c, 0, 69, 51
3, 5596, Note_on_c, 0, 64, 36
3, 5604, Note_on_c, 0, 66, 30
3, 5712, Control_c, 0, 64, 88
3, 5728, Control_c, 0, 64, 40
3, 5740, Control_c, 0, 64, 0
3, 5836, Control_c, 0, 64, 72
3, 5852, Control_c, 0, 64, 127
3, 5920, Note_on_c, 0, 64, 0
3, 5948, Note_on_c, 0, 69, 0
3, 5964, Note_on_c, 0, 66, 0
3, 6140, Note_on_c, 0, 69, 49
3, 6152, Note_on_c, 0, 66, 24
3, 6156, Note_on_c, 0, 62, 23
3, 6360, Note_on_c, 0, 62, 0
3, 6372, Note_on_c, 0, 66, 0
3, 6376, Note_on_c, 0, 69, 0
3, 6588, Note_on_c, 0, 60, 0
3, 6696, Note_on_c, 0, 69, 47
3, 6704, Note_on_c, 0, 62, 32
3, 6708, Note_on_c, 0, 66, 26
3, 6712, Note_on_c, 0, 59, 40
3, 6736, Control_c, 0, 64, 72
3, 6748, Control_c, 0, 64, 0
3, 6872, Control_c, 0, 64, 40
3, 6888, Control_c, 0, 64, 88
3, 6904, Note_on_c, 0, 62, 0
3, 6908, Note_on_c, 0, 66, 0
3, 6908, Control_c, 0, 64, 127
3, 6916, Note_on_c, 0, 69, 0
3, 7172, Note_on_c, 0, 69, 45
3, 7176, Note_on_c, 0, 62, 36
3, 7184, Note_on_c, 0, 66, 28
3, 7304, Note_on_c, 0, 62, 0
3, 7328, Note_on_c, 0, 66, 0
3, 7328, Note_on_c, 0, 69, 0
3, 7396, Note_on_c, 0, 59, 0
3, 7632, Note_on_c, 0, 69, 51
3, 7640, Note_on_c, 0, 62, 31
3, 7648, Note_on_c, 0, 66, 25
3, 7752, Note_on_c, 0, 69, 0
3, 7816, Note_on_c, 0, 66, 0
3, 7816, Note_on_c, 0, 62, 0
3, 8088, Note_on_c, 0, 69, 50
3, 8088, Note_on_c, 0, 66, 35
3, 8096, Note_on_c, 0, 62, 39
3, 8196, Note_on_c, 0, 66, 0
3, 8348, Note_on_c, 0, 62, 0
3, 8368, Note_on_c, 0, 69, 0
3, 8552, Note_on_c, 0, 67, 40
3, 8564, Note_on_c, 0, 62, 21
3, 8576, Note_on_c, 0, 64, 30
3, 8672, Control_c, 0, 64, 104
3, 8716, Control_c, 0, 64, 127
3, 8828, Note_on_c, 0, 67, 0
3, 8832, Note_on_c, 0, 64, 0
3, 8868, Note_on_c, 0, 62, 0
3, 9084, Note_on_c, 0, 67, 51
3, 9100, Note_on_c, 0, 62, 31
3, 9108, Note_on_c, 0, 64, 29
3, 9344, Note_on_c, 0, 64, 0
3, 9348, Note_on_c, 0, 62, 0
3, 9360, Note_on_c, 0, 67, 0
3, 9628, Note_on_c, 0, 67, 45
3, 9628, Note_on_c, 0, 64, 37
3, 9628, Note_on_c, 0, 57, 35
3, 9628, Note_on_c, 0, 60, 39
3, 9692, Control_c, 0, 64, 88
3, 9704, Control_c, 0, 64, 0
3, 9832, Control_c, 0, 64, 72
3, 9848, Control_c, 0, 64, 127
3, 9880, Note_on_c, 0, 64, 0
3, 9896, Note_on_c, 0, 60, 0
3, 9916, Note_on_c, 0, 67, 0
3, 10168, Note_on_c, 0, 67, 48
3, 10172, Note_on_c, 0, 60, 44
3, 10196, Note_on_c, 0, 64, 34
3, 10416, Note_on_c, 0, 67, 0
3, 10424, Note_on_c, 0, 64, 0
3, 10460, Note_on_c, 0, 60, 0
3, 10564, Note_on_c, 0, 57, 0
3, 10704, Note_on_c, 0, 59, 45
3, 10716, Note_on_c, 0, 64, 38
3, 10716, Note_on_c, 0, 55, 47
3, 10716, Note_on_c, 0, 67, 41
3, 10764, Control_c, 0, 64, 56
3, 10780, Control_c, 0, 64, 0
3, 10916, Control_c, 0, 64, 72
3, 10932, Control_c, 0, 64, 127
3, 10964, Note_on_c, 0, 67, 0
3, 10972, Note_on_c, 0, 59, 0
3, 10976, Note_on_c, 0, 64, 0
3, 11196, Note_on_c, 0, 67, 48
3, 11200, Note_on_c, 0, 64, 44
3, 11204, Note_on_c, 0, 59, 40
3, 11340, Note_on_c, 0, 64, 0
3, 11356, Note_on_c, 0, 59, 0
3, 11404, Note_on_c, 0, 67, 0
3, 11648, Note_on_c, 0, 67, 51
3, 11648, Note_on_c, 0, 71, 63
3, 11652, Note_on_c, 0, 59, 35
3, 11664, Note_on_c, 0, 64, 48
3, 11824, Note_on_c, 0, 64, 0
3, 11840, Note_on_c, 0, 67, 0
3, 11848, Note_on_c, 0, 59, 0
3, 12120, Note_on_c, 0, 67, 51
3, 12128, Note_on_c, 0, 59, 37
3, 12144, Note_on_c, 0, 64, 45
3, 12288, Note_on_c, 0, 71, 0
3, 12392, Note_on_c, 0, 59, 0
3, 12400, Note_on_c, 0, 64, 0
3, 12536, Note_on_c, 0, 67, 0
3, 12596, Note_on_c, 0, 55, 0
3, 12628, Note_on_c, 0, 69, 57
3, 12636, Note_on_c, 0, 54, 37
3, 12636, Note_on_c, 0, 59, 33
3, 12644, Note_on_c, 0, 64, 43
3, 12696, Control_c, 0, 64, 72
3, 12712, Control_c, 0, 64, 0
3, 12836, Control_c, 0, 64, 72
3, 12852, Control_c, 0, 64, 127
3, 12924, Note_on_c, 0, 64, 0
3, 12924, Note_on_c, 0, 59, 0
3, 12952, Note_on_c, 0, 69, 0
3, 13152, Note_on_c, 0, 69, 48
3, 13164, Note_on_c, 0, 59, 34
3, 13172, Note_on_c, 0, 64, 47
3, 13532, Note_on_c, 0, 64, 0
3, 13560, Note_on_c, 0, 59, 0
3, 13568, Note_on_c, 0, 54, 0
3, 13584, Note_on_c, 0, 69, 0
3, 13772, Note_on_c, 0, 69, 46
3, 13780, Note_on_c, 0, 63, 34
3, 13784, Note_on_c, 0, 59, 30
3, 13788, Note_on_c, 0, 53, 36
3, 13844, Control_c, 0, 64, 104
3, 13860, Control_c, 0, 64, 56
3, 13876, Control_c, 0, 64, 0
3, 14012, Control_c, 0, 64, 56
3, 14032, Control_c, 0, 64, 127
3, 14088, Note_on_c, 0, 59, 0
3, 14104, Note_on_c, 0, 69, 0
3, 14104, Note_on_c, 0, 63, 0
3, 14308, Note_on_c, 0, 69, 43
3, 14316, Note_on_c, 0, 63, 28
3, 14316, Note_on_c, 0, 59, 29
3, 14584, Note_on_c, 0, 69, 0
3, 14600, Note_on_c, 0, 59, 0
3, 14600, Note_on_c, 0, 63, 0
3, 14696, Note_on_c, 0, 53, 0
3, 14948, Note_on_c, 0, 69, 34
3, 14952, Note_on_c, 0, 59, 32
3, 14952, Note_on_c, 0, 62, 43
3, 14972, Note_on_c, 0, 52, 45
3, 15036, Control_c, 0, 64, 56
3, 15052, Control_c, 0, 64, 0
3, 15160, Control_c, 0, 64, 40
3, 15180, Control_c, 0, 64, 104
3, 15192, Control_c, 0, 64, 127
3, 15232, Note_on_c, 0, 62, 0
3, 15240, Note_on_c, 0, 59, 0
3, 15272, Note_on_c, 0, 69, 0
3, 15524, Note_on_c, 0, 69, 63
3, 15536, Note_on_c, 0, 59, 45
3, 15544, Note_on_c, 0, 62, 49
3, 15816, Note_on_c, 0, 59, 0
3, 15852, Note_on_c, 0, 62, 0
3, 15876, Note_on_c, 0, 69, 0
3, 16184, Note_on_c, 0, 68, 44
3, 16196, Note_on_c, 0, 62, 42
3, 16196, Note_on_c, 0, 59, 34
3, 16320, Control_c, 0, 64, 104
3, 16336, Control_c, 0, 64, 56
3, 16352, Control_c, 0, 64, 0
3, 16460, Control_c, 0, 64, 56
3, 16476, Control_c, 0, 64, 127
3, 16556, Note_on_c, 0, 62, 0
3, 16568, Note_on_c, 0, 59, 0
3, 16588, Note_on_c, 0, 68, 0
3, 16768, Note_on_c, 0, 68, 45
3, 16784, Note_on_c, 0, 62, 43
3, 16784, Note_on_c, 0, 59, 38
3, 17076, Note_on_c, 0, 62, 0
3, 17100, Note_on_c, 0, 59, 0
3, 17156, Note_on_c, 0, 68, 0
3, 17388, Note_on_c, 0, 67, 55
3, 17400, Note_on_c, 0, 60, 44
3, 17408, Note_on_c, 0, 45, 50
3, 17416, Note_on_c, 0, 64, 37
3, 17452, Control_c, 0, 64, 40
3, 17468, Control_c, 0, 64, 0
3, 17592, Control_c, 0, 64, 56
3, 17604, Control_c, 0, 64, 127
3, 17736, Note_on_c, 0, 64, 0
3, 17764, Note_on_c, 0, 60, 0
3, 17804, Note_on_c, 0, 67, 0
3, 17964, Note_on_c, 0, 67, 63
3, 17972, Note_on_c, 0, 64, 56
3, 17980, Note_on_c, 0, 60, 48
3, 18164, Note_on_c, 0, 52, 0
3, 18176, Note_on_c, 0, 45, 0
3, 18236, Note_on_c, 0, 64, 0
3, 18272, Note_on_c, 0, 67, 0
3, 18276, Note_on_c, 0, 60, 0
3, 18616, Note_on_c, 0, 66, 62
3, 18632, Note_on_c, 0, 62, 56
3, 18640, Note_on_c, 0, 60, 47
3, 18648, Note_on_c, 0, 38, 54
3, 18656, Note_on_c, 0, 50, 45
3, 18736, Control_c, 0, 64, 72
3, 18748, Control_c, 0, 64, 0
3, 18856, Control_c, 0, 64, 40
3, 18872, Control_c, 0, 64, 127
3, 19004, Note_on_c, 0, 60, 0
3, 19020, Note_on_c, 0, 62, 0
3, 19056, Note_on_c, 0, 66, 0
3, 19252, Note_on_c, 0, 66, 61
3, 19268, Note_on_c, 0, 62, 57
3, 19272, Note_on_c, 0, 60, 50
3, 19516, Note_on_c, 0, 38, 0
3, 19544, Note_on_c, 0, 50, 0
3, 19592, Note_on_c, 0, 62, 0
3, 19596, Note_on_c, 0, 60, 0
3, 19648, Note_on_c, 0, 66, 0
3, 19944, Note_on_c, 0, 67, 57
3, 19956, Note_on_c, 0, 59, 40
3, 19956, Note_on_c, 0, 64, 50
3, 19980, Note_on_c, 0, 52, 48
3, 19984, Note_on_c, 0, 40, 54
3, 20052, Control_c, 0, 64, 72
3, 20064, Control_c, 0, 64, 0
3, 20188, Control_c, 0, 64, 104
3, 20204, Control_c, 0, 64, 127
3, 20236, Note_on_c, 0, 64, 0
3, 20256, Note_on_c, 0, 67, 0
3, 20260, Note_on_c, 0, 59, 0
3, 20476, Note_on_c, 0, 67, 49
3, 20484, Note_on_c, 0, 64, 46
3, 20484, Note_on_c, 0, 59, 39
3, 20620, Note_on_c, 0, 40, 0
3, 20712, Note_on_c, 0, 52, 0
3, 20720, Note_on_c, 0, 64, 0
3, 20728, Note_on_c, 0, 59, 0
3, 20820, Note_on_c, 0, 67, 0
3, 21064, Note_on_c, 0, 69, 49
3, 21064, Note_on_c, 0, 60, 40
3, 21064, Note_on_c, 0, 67, 41
3, 21064, Note_on_c, 0, 45, 54
3, 21148, Control_c, 0, 64, 56
3, 21164, Control_c, 0, 64, 0
3, 21256, Control_c, 0, 64, 24
3, 21272, Control_c, 0, 64, 104
3, 21284, Control_c, 0, 64, 127
3, 21376, Note_on_c, 0, 67, 0
3, 21376, Note_on_c, 0, 69, 0
3, 21384, Note_on_c, 0, 60, 0
3, 21696, Note_on_c, 0, 69, 53
3, 21708, Note_on_c, 0, 65, 48
3, 21708, Note_on_c, 0, 60, 36
3, 21720, Note_on_c, 0, 57, 29
3, 21800, Control_c, 0, 64, 88
3, 21812, Control_c, 0, 64, 24
3, 21828, Control_c, 0, 64, 0
3, 21892, Control_c, 0, 64, 40
3, 21908, Control_c, 0, 64, 127
3, 21964, Note_on_c, 0, 45, 0
3, 21992, Note_on_c, 0, 69, 0
3, 22012, Note_on_c, 0, 60, 0
3, 22012, Note_on_c, 0, 65, 0
3, 22024, Note_on_c, 0, 57, 0
3, 22304, Note_on_c, 0, 71, 63
3, 22304, Note_on_c, 0, 55, 34
3, 22304, Note_on_c, 0, 47, 54
3, 22304, Note_on_c, 0, 64, 35
3, 22304, Note_on_c, 0, 59, 35
3, 22420, Control_c, 0, 64, 72
3, 22436, Control_c, 0, 64, 0
3, 22544, Control_c, 0, 64, 88
3, 22556, Control_c, 0, 64, 127
3, 22572, Note_on_c, 0, 64, 0
3, 22604, Note_on_c, 0, 59, 0
3, 22660, Note_on_c, 0, 71, 0
3, 22848, Note_on_c, 0, 71, 69
3, 22872, Note_on_c, 0, 59, 48
3, 22880, Note_on_c, 0, 64, 42
3, 23160, Note_on_c, 0, 64, 0
3, 23220, Note_on_c, 0, 59, 0
3, 23312, Note_on_c, 0, 55, 0
3, 23328, Note_on_c, 0, 71, 0
3, 23496, Note_on_c, 0, 69, 53
3, 23500, Note_on_c, 0, 63, 31
3, 23508, Note_on_c, 0, 59, 33
3, 23528, Note_on_c, 0, 54, 36
3, 23628, Control_c, 0, 64, 56
3, 23644, Control_c, 0, 64, 0
3, 23768, Control_c, 0, 64, 104
3, 23784, Control_c, 0, 64, 127
3, 23916, Note_on_c, 0, 59, 0
3, 23920, Note_on_c, 0, 69, 0
3, 23948, Note_on_c, 0, 63, 0
3, 24200, Note_on_c, 0, 69, 38
3, 24208, Note_on_c, 0, 59, 25
3, 24212, Note_on_c, 0, 63, 24
3, 24440, Note_on_c, 0, 47, 0
3, 24516, Note_on_c, 0, 54, 0
3, 24520, Note_on_c, 0, 59, 0
3, 24528, Note_on_c, 0, 69, 0
3, 24572, Note_on_c, 0, 63, 0
3, 25120, Note_on_c, 0, 67, 39
3, 25124, Note_on_c, 0, 59, 31
3, 25124, Note_on_c, 0, 64, 39
3, 25148, Note_on_c, 0, 52, 36
3, 25148, Note_on_c, 0, 40, 56
3, 25192, Control_c, 0, 64, 56
3, 25208, Control_c, 0, 64, 0
3, 25332, Control_c, 0, 64, 88
3, 25348, Control_c, 0, 64, 127
3, 25412, Note_on_c, 0, 59, 0
3, 25420, Note_on_c, 0, 67, 0
3, 25420, Note_on_c, 0, 64, 0
3, 25668, Note_on_c, 0, 67, 37
3, 25672, Note_on_c, 0, 64, 30
3, 25680, Note_on_c, 0, 59, 27
3, 25848, Note_on_c, 0, 67, 0
3, 25872, Note_on_c, 0, 59, 0
3, 25896, Note_on_c, 0, 64, 0
3, 26100, Note_on_c, 0, 40, 0
3, 26136, Note_on_c, 0, 59, 34
3, 26140, Note_on_c, 0, 67, 41
3, 26144, Note_on_c, 0, 64, 35
3, 26152, Note_on_c, 0, 52, 0
3, 26228, Note_on_c, 0, 59, 0
3, 26256, Note_on_c, 0, 64, 0
3, 26268, Note_on_c, 0, 67, 0
3, 26612, Note_on_c, 0, 71, 52
3, 26620, Note_on_c, 0, 67, 43
3, 26636, Note_on_c, 0, 64, 68
3, 26872, Note_on_c, 0, 62, 70
3, 26888, Note_on_c, 0, 64, 0
3, 26932, Note_on_c, 0, 71, 0
3, 26960, Note_on_c, 0, 67, 0
3, 27120, Note_on_c, 0, 62, 0
3, 27140, Note_on_c, 0, 64, 77
3, 27148, Note_on_c, 0, 67, 36
3, 27148, Note_on_c, 0, 71, 38
3, 27364, Note_on_c, 0, 71, 0
3, 27428, Note_on_c, 0, 67, 0
3, 27436, Note_on_c, 0, 64, 0
3, 27704, Note_on_c, 0, 62, 59
3, 27704, Note_on_c, 0, 64, 32
3, 27704, Note_on_c, 0, 67, 36
3, 27704, Note_on_c, 0, 71, 44
3, 27780, Control_c, 0, 64, 72
3, 27792, Control_c, 0, 64, 0
3, 27888, Control_c, 0, 64, 104
3, 27904, Note_on_c, 0, 62, 0
3, 27904, Control_c, 0, 64, 127
3, 27928, Note_on_c, 0, 61, 60
3, 27960, Note_on_c, 0, 71, 0
3, 27968, Note_on_c, 0, 64, 0
3, 28012, Note_on_c, 0, 67, 0
3, 28164, Note_on_c, 0, 61, 0
3, 28180, Note_on_c, 0, 62, 67
3, 28196, Note_on_c, 0, 71, 34
3, 28196, Note_on_c, 0, 67, 29
3, 28204, Note_on_c, 0, 64, 31
3, 28244, Control_c, 0, 64, 104
3, 28256, Control_c, 0, 64, 40
3, 28276, Control_c, 0, 64, 0
3, 28324, Control_c, 0, 64, 88
3, 28336, Control_c, 0, 64, 127
3, 28468, Note_on_c, 0, 71, 0
3, 28484, Note_on_c, 0, 64, 0
3, 28520, Note_on_c, 0, 62, 0
3, 28524, Note_on_c, 0, 67, 0
3, 28680, Note_on_c, 0, 58, 66
3, 28700, Note_on_c, 0, 67, 34
3, 28708, Note_on_c, 0, 71, 42
3, 28708, Note_on_c, 0, 64, 40
3, 28708, Control_c, 0, 64, 104
3, 28724, Control_c, 0, 64, 24
3, 28740, Control_c, 0, 64, 0
3, 28784, Control_c, 0, 64, 56
3, 28800, Control_c, 0, 64, 127
3, 28924, Note_on_c, 0, 71, 0
3, 28924, Note_on_c, 0, 58, 0
3, 28936, Note_on_c, 0, 59, 72
3, 28940, Note_on_c, 0, 64, 0
3, 29008, Note_on_c, 0, 59, 0
3, 29020, Note_on_c, 0, 67, 0
3, 29236, Note_on_c, 0, 61, 61
3, 29288, Note_on_c, 0, 52, 50
3, 29296, Note_on_c, 0, 40, 55
3, 29296, Control_c, 0, 64, 88
3, 29312, Control_c, 0, 64, 0
3, 29452, Control_c, 0, 64, 56
3, 29468, Control_c, 0, 64, 104
3, 29484, Control_c, 0, 64, 127
3, 29756, Note_on_c, 0, 71, 57
3, 29768, Note_on_c, 0, 67, 40
3, 29772, Note_on_c, 0, 64, 42
3, 29920, Note_on_c, 0, 71, 0
3, 29936, Note_on_c, 0, 64, 0
3, 29944, Note_on_c, 0, 67, 0
3, 30240, Note_on_c, 0, 71, 59
3, 30244, Note_on_c, 0, 67, 40
3, 30264, Note_on_c, 0, 64, 39
3, 30336, Note_on_c, 0, 64, 0
3, 30372, Note_on_c, 0, 67, 0
3, 30396, Note_on_c, 0, 61, 0
3, 30400, Note_on_c, 0, 71, 0
3, 30716, Note_on_c, 0, 73, 78
3, 30732, Note_on_c, 0, 61, 41
3, 30744, Note_on_c, 0, 67, 46
3, 30924, Note_on_c, 0, 73, 0
3, 30956, Note_on_c, 0, 67, 0
3, 30976, Note_on_c, 0, 71, 78
3, 31036, Note_on_c, 0, 61, 0
3, 31064, Note_on_c, 0, 52, 0
3, 31168, Note_on_c, 0, 71, 0
3, 31264, Note_on_c, 0, 73, 79
3, 31280, Note_on_c, 0, 61, 46
3, 31288, Note_on_c, 0, 52, 39
3, 31292, Note_on_c, 0, 67, 42
3, 31356, Control_c, 0, 64, 104
3, 31372, Control_c, 0, 64, 24
3, 31388, Control_c, 0, 64, 0
3, 31464, Control_c, 0, 64, 56
3, 31480, Control_c, 0, 64, 127
3, 31520, Note_on_c, 0, 73, 0
3, 31544, Note_on_c, 0, 67, 0
3, 31580, Note_on_c, 0, 61, 0
3, 31780, Note_on_c, 0, 71, 72
3, 31796, Note_on_c, 0, 61, 43
3, 31816, Note_on_c, 0, 67, 44
3, 32060, Note_on_c, 0, 40, 0
3, 32072, Note_on_c, 0, 71, 0
3, 32088, Note_on_c, 0, 70, 68
3, 32172, Note_on_c, 0, 67, 0
3, 32212, Note_on_c, 0, 70, 0
3, 32224, Note_on_c, 0, 52, 0
3, 32228, Note_on_c, 0, 61, 0
3, 32352, Note_on_c, 0, 71, 70
3, 32364, Note_on_c, 0, 61, 38
3, 32364, Note_on_c, 0, 54, 42
3, 32372, Note_on_c, 0, 66, 41
3, 32440, Control_c, 0, 64, 104
3, 32456, Control_c, 0, 64, 40
3, 32472, Control_c, 0, 64, 0
3, 32564, Control_c, 0, 64, 56
3, 32580, Control_c, 0, 64, 127
3, 32608, Note_on_c, 0, 66, 0
3, 32696, Note_on_c, 0, 71, 0
3, 32712, Note_on_c, 0, 61, 0
3, 32816, Note_on_c, 0, 54, 0
3, 32832, Note_on_c, 0, 70, 71
3, 32844, Note_on_c, 0, 61, 38
3, 32856, Note_on_c, 0, 55, 42
3, 32856, Note_on_c, 0, 64, 48
3, 32892, Control_c, 0, 64, 40
3, 32908, Control_c, 0, 64, 0
3, 32984, Control_c, 0, 64, 88
3, 32992, Note_on_c, 0, 70, 0
3, 33000, Control_c, 0, 64, 127
3, 33044, Note_on_c, 0, 64, 0
3, 33076, Note_on_c, 0, 69, 73
3, 33176, Note_on_c, 0, 69, 0
3, 33236, Note_on_c, 0, 61, 0
3, 33252, Note_on_c, 0, 55, 0
3, 33408, Note_on_c, 0, 70, 74
3, 33408, Note_on_c, 0, 61, 31
3, 33408, Note_on_c, 0, 62, 51
3, 33408, Note_on_c, 0, 47, 54
3, 33408, Note_on_c, 0, 54, 42
3, 33408, Note_on_c, 0, 66, 47
3, 33528, Control_c, 0, 64, 104
3, 33544, Control_c, 0, 64, 40
3, 33560, Control_c, 0, 64, 0
3, 33652, Control_c, 0, 64, 127
3, 33664, Note_on_c, 0, 62, 0
3, 33700, Note_on_c, 0, 66, 0
3, 33708, Note_on_c, 0, 61, 0
3, 33928, Note_on_c, 0, 66, 33
3, 33936, Note_on_c, 0, 61, 37
3, 33956, Note_on_c, 0, 62, 47
3, 34128, Note_on_c, 0, 62, 0
3, 34180, Note_on_c, 0, 66, 0
3, 34180, Note_on_c, 0, 61, 0
3, 34224, Note_on_c, 0, 70, 0
3, 34444, Note_on_c, 0, 66, 24
3, 34448, Note_on_c, 0, 71, 49
3, 34452, Note_on_c, 0, 62, 38
3, 34552, Control_c, 0, 64, 104
3, 34564, Control_c, 0, 64, 24
3, 34580, Control_c, 0, 64, 0
3, 34640, Control_c, 0, 64, 40
3, 34656, Control_c, 0, 64, 104
3, 34672, Control_c, 0, 64, 127
3, 34712, Note_on_c, 0, 47, 0
3, 34720, Note_on_c, 0, 54, 0
3, 34732, Note_on_c, 0, 62, 0
3, 34752, Note_on_c, 0, 71, 0
3, 34780, Note_on_c, 0, 66, 0
3, 34948, Note_on_c, 0, 66, 31
3, 34956, Note_on_c, 0, 59, 65
3, 34956, Note_on_c, 0, 71, 30
3, 34968, Note_on_c, 0, 62, 35
3, 35152, Note_on_c, 0, 59, 0
3, 35188, Note_on_c, 0, 62, 0
3, 35188, Note_on_c, 0, 57, 72
3, 35328, Note_on_c, 0, 66, 0
3, 35400, Note_on_c, 0, 57, 0
3, 35460, Note_on_c, 0, 66, 32
3, 35464, Note_on_c, 0, 59, 66
3, 35468, Note_on_c, 0, 62, 36
3, 35588, Control_c, 0, 64, 40
3, 35600, Control_c, 0, 64, 0
3, 35664, Control_c, 0, 64, 40
3, 35680, Control_c, 0, 64, 104
3, 35696, Control_c, 0, 64, 127
3, 35752, Note_on_c, 0, 62, 0
3, 35772, Note_on_c, 0, 66, 0
3, 35868, Note_on_c, 0, 59, 0
3, 35956, Note_on_c, 0, 57, 59
3, 35956, Note_on_c, 0, 66, 38
3, 35964, Note_on_c, 0, 62, 40
3, 36144, Note_on_c, 0, 57, 0
3, 36192, Note_on_c, 0, 56, 54
3, 36264, Note_on_c, 0, 62, 0
3, 36276, Note_on_c, 0, 66, 0
3, 36452, Note_on_c, 0, 56, 0
3, 36472, Note_on_c, 0, 66, 29
3, 36488, Note_on_c, 0, 57, 67
3, 36488, Note_on_c, 0, 62, 31
3, 36592, Control_c, 0, 64, 104
3, 36608, Control_c, 0, 64, 24
3, 36624, Control_c, 0, 64, 0
3, 36688, Control_c, 0, 64, 40
3, 36700, Control_c, 0, 64, 127
3, 36812, Note_on_c, 0, 62, 0
3, 36812, Note_on_c, 0, 66, 0
3, 36948, Note_on_c, 0, 57, 0
3, 36976, Note_on_c, 0, 66, 35
3, 36984, Note_on_c, 0, 56, 66
3, 36992, Note_on_c, 0, 62, 36
3, 37228, Note_on_c, 0, 54, 77
3, 37256, Note_on_c, 0, 56, 0
3, 37304, Note_on_c, 0, 66, 0
3, 37320, Note_on_c, 0, 54, 0
3, 37372, Note_on_c, 0, 62, 0
3, 37548, Note_on_c, 0, 53, 73
3, 37548, Note_on_c, 0, 47, 55
3, 37552, Note_on_c, 0, 68, 36
3, 37552, Note_on_c, 0, 62, 39
3, 37616, Control_c, 0, 64, 104
3, 37632, Control_c, 0, 64, 56
3, 37644, Control_c, 0, 64, 0
3, 37788, Control_c, 0, 64, 56
3, 37800, Control_c, 0, 64, 127
3, 37840, Note_on_c, 0, 62, 0
3, 37848, Note_on_c, 0, 68, 0
3, 38060, Note_on_c, 0, 68, 38
3, 38076, Note_on_c, 0, 62, 36
3, 38096, Control_c, 0, 64, 56
3, 38112, Control_c, 0, 64, 0
3, 38156, Control_c, 0, 64, 24
3, 38172, Control_c, 0, 64, 72
3, 38188, Control_c, 0, 64, 127
3, 38292, Note_on_c, 0, 62, 0
3, 38296, Note_on_c, 0, 68, 0
3, 38516, Note_on_c, 0, 68, 43
3, 38524, Note_on_c, 0, 62, 41
3, 38672, Note_on_c, 0, 71, 0
3, 38792, Note_on_c, 0, 62, 0
3, 38872, Note_on_c, 0, 68, 0
3, 39036, Note_on_c, 0, 68, 46
3, 39044, Note_on_c, 0, 71, 71
3, 39060, Note_on_c, 0, 62, 50
3, 39220, Note_on_c, 0, 71, 0
3, 39284, Note_on_c, 0, 69, 79
3, 39352, Note_on_c, 0, 68, 0
3, 39356, Note_on_c, 0, 62, 0
3, 39476, Note_on_c, 0, 69, 0
3, 39560, Note_on_c, 0, 68, 46
3, 39560, Note_on_c, 0, 71, 68
3, 39576, Note_on_c, 0, 62, 45
3, 39628, Control_c, 0, 64, 88
3, 39644, Control_c, 0, 64, 24
3, 39660, Control_c, 0, 64, 0
3, 39720, Control_c, 0, 64, 40
3, 39740, Control_c, 0, 64, 127
3, 39868, Note_on_c, 0, 62, 0
3, 39880, Note_on_c, 0, 71, 0
3, 39972, Note_on_c, 0, 68, 0
3, 39988, Note_on_c, 0, 53, 0
3, 40048, Note_on_c, 0, 69, 65
3, 40064, Note_on_c, 0, 62, 46
3, 40076, Note_on_c, 0, 54, 36
3, 40144, Control_c, 0, 64, 72
3, 40160, Control_c, 0, 64, 0
3, 40216, Control_c, 0, 64, 40
3, 40232, Control_c, 0, 64, 127
3, 40248, Note_on_c, 0, 68, 64
3, 40252, Note_on_c, 0, 69, 0
3, 40316, Note_on_c, 0, 62, 0
3, 40492, Note_on_c, 0, 68, 0
3, 40500, Note_on_c, 0, 69, 72
3, 40520, Note_on_c, 0, 62, 54
3, 40576, Control_c, 0, 64, 56
3, 40588, Control_c, 0, 64, 0
3, 40636, Control_c, 0, 64, 40
3, 40652, Control_c, 0, 64, 88
3, 40668, Control_c, 0, 64, 127
3, 40784, Note_on_c, 0, 62, 0
3, 40880, Note_on_c, 0, 69, 0
3, 40948, Note_on_c, 0, 54, 0
3, 40948, Note_on_c, 0, 68, 58
3, 40968, Note_on_c, 0, 65, 60
3, 40968, Note_on_c, 0, 56, 42
3, 40968, Note_on_c, 0, 62, 51
3, 40996, Control_c, 0, 64, 56
3, 41008, Control_c, 0, 64, 0
3, 41056, Control_c, 0, 64, 104
3, 41060, Note_on_c, 0, 65, 0
3, 41072, Control_c, 0, 64, 127
3, 41200, Note_on_c, 0, 69, 76
3, 41200, Note_on_c, 0, 54, 38
3, 41212, Note_on_c, 0, 47, 0
3, 41216, Note_on_c, 0, 66, 53
3, 41248, Note_on_c, 0, 56, 0
3, 41248, Note_on_c, 0, 68, 0
3, 41272, Note_on_c, 0, 62, 0
3, 41312, Note_on_c, 0, 66, 0
3, 41328, Note_on_c, 0, 54, 0
3, 41332, Note_on_c, 0, 69, 0
3, 41512, Note_on_c, 0, 71, 78
3, 41512, Note_on_c, 0, 68, 52
3, 41520, Note_on_c, 0, 61, 48
3, 41540, Note_on_c, 0, 45, 55
3, 41548, Note_on_c, 0, 53, 48
3, 41596, Control_c, 0, 64, 40
3, 41616, Control_c, 0, 64, 0
3, 41720, Control_c, 0, 64, 56
3, 41736, Control_c, 0, 64, 127
3, 41848, Note_on_c, 0, 68, 0
3, 41856, Note_on_c, 0, 61, 0
3, 42028, Note_on_c, 0, 68, 58
3, 42040, Note_on_c, 0, 61, 38
3, 42348, Note_on_c, 0, 68, 0
3, 42352, Note_on_c, 0, 61, 0
3, 42456, Note_on_c, 0, 53, 0
3, 42584, Note_on_c, 0, 71, 0
3, 42608, Note_on_c, 0, 69, 60
3, 42612, Note_on_c, 0, 54, 49
3, 42620, Note_on_c, 0, 61, 36
3, 42640, Note_on_c, 0, 66, 31
3, 42716, Control_c, 0, 64, 56
3, 42732, Control_c, 0, 64, 0
3, 42808, Control_c, 0, 64, 56
3, 42816, Note_on_c, 0, 45, 0
3, 42824, Control_c, 0, 64, 127
3, 42864, Note_on_c, 0, 54, 0
3, 42872, Note_on_c, 0, 61, 0
3, 42880, Note_on_c, 0, 66, 0
3, 42904, Note_on_c, 0, 69, 0
3, 43140, Note_on_c, 0, 61, 66
3, 43152, Note_on_c, 0, 69, 35
3, 43152, Note_on_c, 0, 66, 24
3, 43320, Note_on_c, 0, 61, 0
3, 43368, Note_on_c, 0, 60, 74
3, 43448, Note_on_c, 0, 66, 0
3, 43464, Note_on_c, 0, 69, 0
3, 43488, Note_on_c, 0, 60, 0
3, 43640, Note_on_c, 0, 61, 62
3, 43656, Note_on_c, 0, 69, 38
3, 43660, Note_on_c, 0, 66, 22
3, 43780, Control_c, 0, 64, 56
3, 43796, Control_c, 0, 64, 0
3, 43892, Control_c, 0, 64, 72
3, 43908, Control_c, 0, 64, 127
3, 43936, Note_on_c, 0, 69, 0
3, 43960, Note_on_c, 0, 66, 0
3, 44132, Note_on_c, 0, 69, 53
3, 44144, Note_on_c, 0, 66, 34
3, 44424, Note_on_c, 0, 69, 0
3, 44440, Note_on_c, 0, 66, 0
3, 44648, Note_on_c, 0, 69, 60
3, 44652, Note_on_c, 0, 66, 35
3, 44892, Note_on_c, 0, 69, 0
3, 44984, Note_on_c, 0, 66, 0
3, 45144, Note_on_c, 0, 68, 44
3, 45144, Note_on_c, 0, 64, 44
3, 45284, Control_c, 0, 64, 88
3, 45300, Control_c, 0, 64, 0
3, 45380, Control_c, 0, 64, 40
3, 45396, Control_c, 0, 64, 104
3, 45408, Control_c, 0, 64, 127
3, 45420, Note_on_c, 0, 68, 0
3, 45484, Note_on_c, 0, 64, 0
3, 45728, Note_on_c, 0, 66, 46
3, 45740, Note_on_c, 0, 64, 36
3, 45812, Control_c, 0, 64, 72
3, 45828, Control_c, 0, 64, 0
3, 45872, Control_c, 0, 64, 24
3, 45888, Control_c, 0, 64, 88
3, 45904, Control_c, 0, 64, 127
3, 45976, Note_on_c, 0, 61, 0
3, 46068, Note_on_c, 0, 66, 0
3, 46124, Note_on_c, 0, 64, 0
3, 46232, Note_on_c, 0, 60, 65
3, 46248, Note_on_c, 0, 66, 35
3, 46252, Note_on_c, 0, 64, 48
3, 46364, Note_on_c, 0, 60, 0
3, 46468, Note_on_c, 0, 64, 0
3, 46476, Note_on_c, 0, 59, 65
3, 46492, Note_on_c, 0, 66, 0
3, 46640, Note_on_c, 0, 59, 0
3, 46760, Note_on_c, 0, 60, 66
3, 46788, Note_on_c, 0, 66, 40
3, 46792, Note_on_c, 0, 64, 42
3, 46796, Note_on_c, 0, 45, 41
3, 46800, Note_on_c, 0, 33, 35
3, 46864, Control_c, 0, 64, 104
3, 46880, Control_c, 0, 64, 40
3, 46896, Control_c, 0, 64, 0
3, 47020, Control_c, 0, 64, 40
3, 47036, Control_c, 0, 64, 104
3, 47052, Control_c, 0, 64, 127
3, 47092, Note_on_c, 0, 66, 0
3, 47144, Note_on_c, 0, 64, 0
3, 47344, Note_on_c, 0, 66, 45
3, 47376, Note_on_c, 0, 64, 31
3, 47540, Note_on_c, 0, 66, 0
3, 47588, Note_on_c, 0, 64, 0
3, 47716, Note_on_c, 0, 60, 0
3, 47808, Note_on_c, 0, 60, 15
3, 47808, Note_on_c, 0, 66, 44
3, 47836, Note_on_c, 0, 64, 40
3, 48072, Note_on_c, 0, 45, 0
3, 48116, Note_on_c, 0, 33, 0
3, 48120, Note_on_c, 0, 66, 0
3, 48164, Note_on_c, 0, 64, 0
3, 48232, Note_on_c, 0, 60, 0
3, 48304, Note_on_c, 0, 59, 60
3, 48312, Note_on_c, 0, 66, 42
3, 48324, Note_on_c, 0, 64, 54
3, 48488, Note_on_c, 0, 66, 0
3, 48496, Note_on_c, 0, 64, 0
3, 48496, Note_on_c, 0, 59, 0
3, 48548, Note_on_c, 0, 58, 65
3, 48744, Note_on_c, 0, 58, 0
3, 48820, Note_on_c, 0, 59, 59
3, 48840, Note_on_c, 0, 66, 48
3, 48856, Note_on_c, 0, 64, 53
3, 48868, Note_on_c, 0, 32, 52
3, 48868, Note_on_c, 0, 44, 39
3, 48908, Control_c, 0, 64, 72
3, 48924, Control_c, 0, 64, 0
3, 49032, Control_c, 0, 64, 40
3, 49048, Control_c, 0, 64, 104
3, 49064, Control_c, 0, 64, 127
3, 49108, Note_on_c, 0, 66, 0
3, 49132, Note_on_c, 0, 64, 0
3, 49364, Note_on_c, 0, 66, 45
3, 49392, Note_on_c, 0, 64, 42
3, 49652, Note_on_c, 0, 66, 0
3, 49704, Note_on_c, 0, 64, 0
3, 49744, Note_on_c, 0, 44, 0
3, 49796, Note_on_c, 0, 32, 0
3, 50048, Note_on_c, 0, 66, 50
3, 50052, Note_on_c, 0, 63, 47
3, 50080, Note_on_c, 0, 31, 49
3, 50080, Note_on_c, 0, 43, 42
3, 50132, Control_c, 0, 64, 88
3, 50148, Control_c, 0, 64, 24
3, 50164, Control_c, 0, 64, 0
3, 50260, Control_c, 0, 64, 72
3, 50272, Control_c, 0, 64, 127
3, 50344, Note_on_c, 0, 66, 0
3, 50372, Note_on_c, 0, 63, 0
3, 50448, Note_on_c, 0, 59, 0
3, 50596, Note_on_c, 0, 66, 62
3, 50604, Note_on_c, 0, 63, 52
3, 50608, Note_on_c, 0, 59, 52
3, 50940, Note_on_c, 0, 59, 0
3, 50976, Note_on_c, 0, 63, 0
3, 50996, Note_on_c, 0, 66, 0
3, 51180, Note_on_c, 0, 64, 52
3, 51184, Note_on_c, 0, 59, 39
3, 51264, Control_c, 0, 64, 104
3, 51280, Control_c, 0, 64, 40
3, 51296, Control_c, 0, 64, 0
3, 51360, Control_c, 0, 64, 56
3, 51372, Control_c, 0, 64, 127
3, 51408, Note_on_c, 0, 31, 0
3, 51444, Note_on_c, 0, 43, 0
3, 51568, Note_on_c, 0, 59, 0
3, 51588, Note_on_c, 0, 64, 0
3, 51696, Note_on_c, 0, 47, 50
3, 51704, Note_on_c, 0, 64, 49
3, 51704, Note_on_c, 0, 59, 42
3, 51916, Note_on_c, 0, 47, 0
3, 51916, Note_on_c, 0, 49, 70
3, 51928, Note_on_c, 0, 61, 59
3, 51932, Note_on_c, 0, 64, 0
3, 51980, Note_on_c, 0, 59, 0
3, 52156, Note_on_c, 0, 61, 0
3, 52200, Note_on_c, 0, 49, 0
3, 52208, Note_on_c, 0, 62, 67
3, 52224, Note_on_c, 0, 50, 55
3, 52236, Note_on_c, 0, 43, 45
3, 52316, Control_c, 0, 64, 104
3, 52332, Control_c, 0, 64, 40
3, 52348, Control_c, 0, 64, 0
3, 52472, Control_c, 0, 64, 56
3, 52488, Control_c, 0, 64, 127
3, 52740, Note_on_c, 0, 59, 35
3, 52748, Note_on_c, 0, 64, 49
3, 53068, Note_on_c, 0, 64, 0
3, 53108, Note_on_c, 0, 59, 0
3, 53284, Note_on_c, 0, 64, 46
3, 53288, Note_on_c, 0, 59, 38
3, 53556, Note_on_c, 0, 59, 0
3, 53600, Note_on_c, 0, 64, 0
3, 53664, Note_on_c, 0, 62, 0
3, 53676, Note_on_c, 0, 43, 0
3, 53844, Note_on_c, 0, 57, 31
3, 53852, Note_on_c, 0, 64, 43
3, 53856, Note_on_c, 0, 62, 29
3, 53868, Note_on_c, 0, 45, 40
3, 53976, Control_c, 0, 64, 56
3, 53992, Control_c, 0, 64, 0
3, 54052, Control_c, 0, 64, 40
3, 54068, Control_c, 0, 64, 104
3, 54080, Control_c, 0, 64, 127
3, 54176, Note_on_c, 0, 62, 0
3, 54184, Note_on_c, 0, 64, 0
3, 54236, Note_on_c, 0, 57, 0
3, 54412, Note_on_c, 0, 45, 0
3, 54436, Note_on_c, 0, 55, 52
3, 54444, Note_on_c, 0, 47, 53
3, 54448, Note_on_c, 0, 64, 48
3, 54456, Note_on_c, 0, 62, 45
3, 54532, Control_c, 0, 64, 56
3, 54548, Control_c, 0, 64, 0
3, 54640, Control_c, 0, 64, 40
3, 54656, Control_c, 0, 64, 104
3, 54672, Control_c, 0, 64, 127
3, 54812, Note_on_c, 0, 64, 0
3, 54812, Note_on_c, 0, 55, 0
3, 54832, Note_on_c, 0, 62, 0
3, 54980, Note_on_c, 0, 47, 0
3, 55004, Note_on_c, 0, 64, 46
3, 55008, Note_on_c, 0, 62, 38
3, 55012, Note_on_c, 0, 57, 44
3, 55028, Note_on_c, 0, 45, 32
3, 55060, Control_c, 0, 64, 40
3, 55072, Control_c, 0, 64, 0
3, 55152, Control_c, 0, 64, 88
3, 55168, Control_c, 0, 64, 127
3, 55236, Note_on_c, 0, 50, 0
3, 55264, Note_on_c, 0, 45, 0
3, 55320, Note_on_c, 0, 57, 0
3, 55368, Note_on_c, 0, 64, 0
3, 55404, Note_on_c, 0, 62, 0
3, 55588, Note_on_c, 0, 64, 50
3, 55592, Note_on_c, 0, 59, 44
3, 55592, Note_on_c, 0, 62, 44
3, 55604, Note_on_c, 0, 43, 48
3, 55616, Note_on_c, 0, 31, 50
3, 55664, Control_c, 0, 64, 72
3, 55680, Control_c, 0, 64, 0
3, 55756, Control_c, 0, 64, 56
3, 55772, Control_c, 0, 64, 127
3, 55876, Note_on_c, 0, 59, 0
3, 55956, Note_on_c, 0, 64, 0
3, 55972, Note_on_c, 0, 62, 0
3, 56132, Note_on_c, 0, 58, 43
3, 56144, Note_on_c, 0, 64, 55
3, 56144, Note_on_c, 0, 62, 51
3, 56376, Note_on_c, 0, 58, 0
3, 56384, Note_on_c, 0, 57, 70
3, 56392, Note_on_c, 0, 64, 0
3, 56412, Note_on_c, 0, 62, 0
3, 56568, Note_on_c, 0, 57, 0
3, 56676, Note_on_c, 0, 58, 44
3, 56692, Note_on_c, 0, 62, 52
3, 56696, Note_on_c, 0, 64, 46
3, 56808, Control_c, 0, 64, 72
3, 56824, Control_c, 0, 64, 0
3, 56916, Control_c, 0, 64, 56
3, 56936, Control_c, 0, 64, 127
3, 56968, Note_on_c, 0, 64, 0
3, 57044, Note_on_c, 0, 62, 0
3, 57244, Note_on_c, 0, 64, 51
3, 57244, Note_on_c, 0, 62, 42
3, 57392, Note_on_c, 0, 43, 0
3, 57408, Note_on_c, 0, 31, 0
3, 57456, Note_on_c, 0, 64, 0
3, 57552, Note_on_c, 0, 62, 0
3, 57708, Note_on_c, 0, 62, 37
3, 57716, Note_on_c, 0, 64, 61
3, 57736, Note_on_c, 0, 30, 51
3, 57744, Note_on_c, 0, 42, 45
3, 57804, Control_c, 0, 64, 88
3, 57816, Control_c, 0, 64, 0
3, 57908, Control_c, 0, 64, 24
3, 57924, Control_c, 0, 64, 104
3, 57940, Control_c, 0, 64, 127
3, 57984, Note_on_c, 0, 64, 0
3, 58016, Note_on_c, 0, 62, 0
3, 58084, Note_on_c, 0, 58, 0
3, 58200, Note_on_c, 0, 64, 61
3, 58200, Note_on_c, 0, 61, 46
3, 58208, Note_on_c, 0, 57, 46
3, 58448, Note_on_c, 0, 61, 0
3, 58472, Note_on_c, 0, 57, 0
3, 58492, Note_on_c, 0, 56, 57
3, 58552, Note_on_c, 0, 64, 0
3, 58624, Note_on_c, 0, 30, 0
3, 58652, Note_on_c, 0, 56, 0
3, 58656, Note_on_c, 0, 42, 0
3, 58812, Note_on_c, 0, 64, 60
3, 58812, Note_on_c, 0, 61, 44
3, 58828, Note_on_c, 0, 57, 38
3, 58836, Note_on_c, 0, 41, 46
3, 58848, Note_on_c, 0, 29, 55
3, 58904, Control_c, 0, 64, 72
3, 58916, Control_c, 0, 64, 0
3, 59024, Control_c, 0, 64, 56
3, 59040, Control_c, 0, 64, 127
3, 59116, Note_on_c, 0, 64, 0
3, 59160, Note_on_c, 0, 61, 0
3, 59380, Note_on_c, 0, 64, 62
3, 59392, Note_on_c, 0, 61, 38
3, 59660, Note_on_c, 0, 64, 0
3, 59704, Note_on_c, 0, 57, 0
3, 59712, Note_on_c, 0, 61, 0
3, 59884, Note_on_c, 0, 62, 55
3, 59892, Note_on_c, 0, 57, 38
3, 59972, Control_c, 0, 64, 72
3, 59988, Control_c, 0, 64, 0
3, 60080, Control_c, 0, 64, 104
3, 60096, Control_c, 0, 64, 127
3, 60108, Note_on_c, 0, 29, 0
3, 60152, Note_on_c, 0, 41, 0
3, 60240, Note_on_c, 0, 57, 0
3, 60276, Note_on_c, 0, 62, 0
3, 60396, Note_on_c, 0, 62, 57
3, 60404, Note_on_c, 0, 45, 65
3, 60416, Note_on_c, 0, 57, 48
3, 60620, Note_on_c, 0, 45, 0
3, 60648, Note_on_c, 0, 59, 65
3, 60652, Note_on_c, 0, 47, 65
3, 60672, Note_on_c, 0, 62, 0
3, 60692, Note_on_c, 0, 57, 0
3, 60904, Note_on_c, 0, 47, 0
3, 60920, Note_on_c, 0, 59, 0
3, 60924, Note_on_c, 0, 60, 77
3, 60952, Note_on_c, 0, 48, 55
3, 60960, Note_on_c, 0, 41, 48
3, 61056, Control_c, 0, 64, 40
3, 61072, Control_c, 0, 64, 0
3, 61180, Control_c, 0, 64, 72
3, 61196, Control_c, 0, 64, 127
3, 61416, Note_on_c, 0, 62, 48
3, 61420, Note_on_c, 0, 57, 36
3, 61800, Note_on_c, 0, 57, 0
3, 61808, Note_on_c, 0, 62, 0
3, 61972, Note_on_c, 0, 62, 48
3, 61972, Note_on_c, 0, 57, 32
3, 62296, Note_on_c, 0, 57, 0
3, 62308, Note_on_c, 0, 62, 0
3, 62488, Note_on_c, 0, 62, 51
3, 62496, Note_on_c, 0, 57, 43
3, 62768, Note_on_c, 0, 41, 0
3, 62788, Note_on_c, 0, 60, 0
3, 62800, Note_on_c, 0, 62, 0
3, 62908, Note_on_c, 0, 57, 0
3, 63000, Note_on_c, 0, 48, 0
3, 63092, Note_on_c, 0, 56, 51
3, 63100, Note_on_c, 0, 62, 59
3, 63100, Note_on_c, 0, 41, 48
3, 63100, Note_on_c, 0, 59, 45
3, 63192, Control_c, 0, 64, 56
3, 63208, Control_c, 0, 64, 0
3, 63304, Control_c, 0, 64, 72
3, 63316, Control_c, 0, 64, 127
3, 63476, Note_on_c, 0, 62, 0
3, 63484, Note_on_c, 0, 59, 0
3, 63488, Note_on_c, 0, 56, 0
3, 63636, Note_on_c, 0, 56, 53
3, 63648, Note_on_c, 0, 59, 47
3, 63652, Note_on_c, 0, 62, 51
3, 64060, Note_on_c, 0, 56, 0
3, 64064, Note_on_c, 0, 62, 0
3, 64116, Note_on_c, 0, 59, 0
3, 64200, Note_on_c, 0, 41, 0
3, 64232, Note_on_c, 0, 55, 52
3, 64240, Note_on_c, 0, 40, 50
3, 64256, Note_on_c, 0, 59, 31
3, 64260, Note_on_c, 0, 62, 39
3, 64368, Control_c, 0, 64, 56
3, 64388, Control_c, 0, 64, 0
3, 64496, Control_c, 0, 64, 88
3, 64512, Control_c, 0, 64, 127
3, 64568, Note_on_c, 0, 55, 0
3, 64576, Note_on_c, 0, 62, 0
3, 64600, Note_on_c, 0, 59, 0
3, 64784, Note_on_c, 0, 62, 39
3, 64784, Note_on_c, 0, 55, 36
3, 64792, Note_on_c, 0, 59, 24
3, 64960, Note_on_c, 0, 40, 0
3, 65012, Note_on_c, 0, 59, 0
3, 65100, Note_on_c, 0, 55, 0
3, 65164, Note_on_c, 0, 62, 0
3, 65372, Note_on_c, 0, 61, 48
3, 65384, Note_on_c, 0, 58, 40
3, 65400, Note_on_c, 0, 55, 42
3, 65408, Note_on_c, 0, 52, 46
3, 65484, Control_c, 0, 64, 88
3, 65500, Control_c, 0, 64, 24
3, 65516, Control_c, 0, 64, 0
3, 65608, Control_c, 0, 64, 88
3, 65624, Control_c, 0, 64, 127
3, 65884, Note_on_c, 0, 61, 0
3, 65924, Note_on_c, 0, 52, 0
3, 65924, Note_on_c, 0, 62, 49
3, 65952, Note_on_c, 0, 50, 48
3, 66028, Control_c, 0, 64, 72
3, 66040, Control_c, 0, 64, 0
3, 66136, Control_c, 0, 64, 88
3, 66152, Control_c, 0, 64, 127
3, 66416, Note_on_c, 0, 50, 0
3, 66472, Note_on_c, 0, 64, 42
3, 66472, Note_on_c, 0, 49, 47
3, 66568, Control_c, 0, 64, 72
3, 66584, Control_c, 0, 64, 0
3, 66696, Control_c, 0, 64, 72
3, 66712, Control_c, 0, 64, 127
3, 66740, Note_on_c, 0, 55, 0
3, 66748, Note_on_c, 0, 58, 0
3, 66748, Note_on_c, 0, 62, 0
3, 66772, Note_on_c, 0, 64, 0
3, 66792, Note_on_c, 0, 49, 0
3, 67080, Note_on_c, 0, 66, 60
3, 67092, Note_on_c, 0, 57, 44
3, 67092, Note_on_c, 0, 64, 55
3, 67108, Note_on_c, 0, 48, 50
3, 67128, Control_c, 0, 64, 88
3, 67144, Control_c, 0, 64, 0
3, 67252, Control_c, 0, 64, 56
3, 67268, Control_c, 0, 64, 127
3, 67400, Note_on_c, 0, 67, 80
3, 67432, Note_on_c, 0, 48, 0
3, 67476, Note_on_c, 0, 66, 0
3, 67480, Note_on_c, 0, 57, 0
3, 67480, Note_on_c, 0, 64, 0
3, 67520, Note_on_c, 0, 67, 0
3, 67756, Note_on_c, 0, 69, 68
3, 67772, Note_on_c, 0, 63, 41
3, 67772, Note_on_c, 0, 57, 42
3, 67796, Note_on_c, 0, 47, 51
3, 67852, Control_c, 0, 64, 56
3, 67872, Control_c, 0, 64, 0
3, 67964, Control_c, 0, 64, 56
3, 67980, Control_c, 0, 64, 127
3, 68040, Note_on_c, 0, 57, 0
3, 68136, Note_on_c, 0, 63, 0
3, 68356, Note_on_c, 0, 60, 41
3, 68368, Note_on_c, 0, 67, 35
3, 68368, Note_on_c, 0, 52, 41
3, 68368, Note_on_c, 0, 55, 40
3, 68396, Control_c, 0, 64, 88
3, 68400, Control_c, 0, 64, 0
3, 68464, Note_on_c, 0, 47, 0
3, 68472, Control_c, 0, 64, 88
3, 68488, Control_c, 0, 64, 127
3, 68644, Note_on_c, 0, 69, 0
3, 68700, Note_on_c, 0, 55, 0
3, 68704, Note_on_c, 0, 52, 0
3, 68732, Note_on_c, 0, 70, 66
3, 68764, Note_on_c, 0, 61, 38
3, 68776, Note_on_c, 0, 67, 0
3, 68780, Note_on_c, 0, 60, 0
3, 68836, Note_on_c, 0, 70, 0
3, 69028, Note_on_c, 0, 61, 0
3, 69100, Note_on_c, 0, 71, 57
3, 69104, Note_on_c, 0, 62, 48
3, 69116, Note_on_c, 0, 68, 42
3, 69120, Note_on_c, 0, 56, 32
3, 69136, Note_on_c, 0, 53, 39
3, 69156, Control_c, 0, 64, 104
3, 69172, Control_c, 0, 64, 24
3, 69188, Control_c, 0, 64, 0
3, 69268, Control_c, 0, 64, 56
3, 69284, Control_c, 0, 64, 127
3, 69432, Note_on_c, 0, 73, 69
3, 69456, Note_on_c, 0, 68, 0
3, 69476, Note_on_c, 0, 71, 0
3, 69496, Note_on_c, 0, 62, 0
3, 69612, Note_on_c, 0, 53, 0
3, 69760, Note_on_c, 0, 73, 0
3, 69780, Note_on_c, 0, 56, 0
3, 69820, Note_on_c, 0, 70, 53
3, 69840, Note_on_c, 0, 66, 40
3, 69852, Note_on_c, 0, 64, 40
3, 69864, Note_on_c, 0, 54, 29
3, 69980, Control_c, 0, 64, 72
3, 69996, Control_c, 0, 64, 0
3, 70072, Control_c, 0, 64, 40
3, 70088, Control_c, 0, 64, 104
3, 70104, Control_c, 0, 64, 127
3, 70136, Note_on_c, 0, 54, 0
3, 70192, Note_on_c, 0, 66, 0
3, 70204, Note_on_c, 0, 64, 0
3, 70204, Note_on_c, 0, 70, 0
3, 70472, Note_on_c, 0, 71, 47
3, 70476, Note_on_c, 0, 62, 39
3, 70476, Note_on_c, 0, 66, 29
3, 70516, Note_on_c, 0, 59, 38
3, 70520, Control_c, 0, 64, 104
3, 70536, Control_c, 0, 64, 40
3, 70552, Control_c, 0, 64, 0
3, 70628, Control_c, 0, 64, 40
3, 70644, Control_c, 0, 64, 104
3, 70660, Control_c, 0, 64, 127
3, 70712, Note_on_c, 0, 59, 0
3, 71016, Note_on_c, 0, 59, 57
3, 71168, Note_on_c, 0, 59, 0
3, 71284, Note_on_c, 0, 62, 0
3, 71300, Note_on_c, 0, 66, 0
3, 71448, Note_on_c, 0, 71, 0
3, 71464, Note_on_c, 0, 59, 48
3, 71960, Note_on_c, 0, 83, 75
3, 71968, Note_on_c, 0, 71, 53
3, 71976, Note_on_c, 0, 75, 52
3, 71984, Note_on_c, 0, 79, 57
3, 72092, Note_on_c, 0, 71, 0
3, 72164, Note_on_c, 0, 83, 0
3, 72212, Note_on_c, 0, 79, 0
3, 72240, Note_on_c, 0, 81, 78
3, 72252, Note_on_c, 0, 78, 55
3, 72252, Note_on_c, 0, 69, 50
3, 72288, Note_on_c, 0, 75, 0
3, 72328, Note_on_c, 0, 59, 0
3, 72332, Note_on_c, 0, 78, 0
3, 72340, Note_on_c, 0, 69, 0
3, 72392, Note_on_c, 0, 81, 0
3, 72540, Note_on_c, 0, 83, 76
3, 72548, Note_on_c, 0, 79, 57
3, 72556, Note_on_c, 0, 74, 48
3, 72556, Note_on_c, 0, 59, 35
3, 72568, Note_on_c, 0, 71, 16
3, 72592, Note_on_c, 0, 67, 20
3, 72596, Control_c, 0, 64, 104
3, 72612, Control_c, 0, 64, 40
3, 72628, Control_c, 0, 64, 0
3, 72704, Control_c, 0, 64, 72
3, 72716, Control_c, 0, 64, 127
3, 72784, Note_on_c, 0, 71, 0
3, 72784, Note_on_c, 0, 74, 0
3, 72784, Note_on_c, 0, 79, 0
3, 72792, Note_on_c, 0, 83, 0
3, 72992, Note_on_c, 0, 67, 0
3, 73020, Note_on_c, 0, 81, 70
3, 73020, Note_on_c, 0, 78, 55
3, 73032, Note_on_c, 0, 69, 38
3, 73036, Note_on_c, 0, 73, 48
3, 73156, Note_on_c, 0, 81, 0
3, 73208, Note_on_c, 0, 69, 0
3, 73220, Note_on_c, 0, 78, 0
3, 73244, Note_on_c, 0, 73, 0
3, 73276, Note_on_c, 0, 79, 68
3, 73276, Note_on_c, 0, 76, 66
3, 73340, Note_on_c, 0, 76, 0
3, 73404, Note_on_c, 0, 79, 0
3, 73564, Note_on_c, 0, 81, 70
3, 73564, Note_on_c, 0, 77, 67
3, 73564, Note_on_c, 0, 69, 34
3, 73564, Note_on_c, 0, 65, 34
3, 73564, Note_on_c, 0, 73, 30
3, 73588, Control_c, 0, 64, 88
3, 73604, Control_c, 0, 64, 24
3, 73616, Control_c, 0, 64, 0
3, 73696, Control_c, 0, 64, 24
3, 73712, Control_c, 0, 64, 104
3, 73728, Control_c, 0, 64, 127
3, 73816, Note_on_c, 0, 65, 0
3, 73820, Note_on_c, 0, 77, 0
3, 73856, Note_on_c, 0, 76, 50
3, 73856, Note_on_c, 0, 66, 44
3, 73880, Note_on_c, 0, 69, 0
3, 73920, Note_on_c, 0, 73, 0
3, 73960, Note_on_c, 0, 66, 0
3, 73988, Note_on_c, 0, 76, 0
3, 74052, Note_on_c, 0, 81, 0
3, 74088, Note_on_c, 0, 59, 0
3, 74148, Note_on_c, 0, 79, 67
3, 74148, Note_on_c, 0, 67, 41
3, 74148, Note_on_c, 0, 59, 37
3, 74148, Note_on_c, 0, 71, 35
3, 74148, Note_on_c, 0, 75, 51
3, 74176, Control_c, 0, 64, 88
3, 74192, Control_c, 0, 64, 24
3, 74204, Control_c, 0, 64, 0
3, 74300, Control_c, 0, 64, 127
3, 74404, Note_on_c, 0, 67, 0
3, 74448, Note_on_c, 0, 79, 0
3, 74488, Note_on_c, 0, 81, 57
3, 74488, Note_on_c, 0, 78, 48
3, 74488, Note_on_c, 0, 66, 49
3, 74544, Note_on_c, 0, 75, 0
3, 74620, Note_on_c, 0, 71, 0
3, 74640, Note_on_c, 0, 78, 0
3, 74640, Note_on_c, 0, 59, 0
3, 74660, Note_on_c, 0, 66, 0
3, 74696, Note_on_c, 0, 81, 0
3, 74828, Note_on_c, 0, 79, 57
3, 74828, Note_on_c, 0, 71, 34
3, 74828, Note_on_c, 0, 64, 36
3, 74828, Note_on_c, 0, 67, 29
3, 74828, Note_on_c, 0, 76, 39
3, 74888, Control_c, 0, 64, 104
3, 74904, Control_c, 0, 64, 40
3, 74916, Control_c, 0, 64, 0
3, 74972, Note_on_c, 0, 76, 0
3, 74980, Control_c, 0, 64, 40
3, 74996, Control_c, 0, 64, 127
3, 75004, Note_on_c, 0, 67, 0
3, 75060, Note_on_c, 0, 71, 0
3, 75168, Note_on_c, 0, 64, 0
3, 75180, Note_on_c, 0, 79, 0
3, 75408, Note_on_c, 0, 71, 34
3, 75408, Note_on_c, 0, 67, 29
3, 75408, Note_on_c, 0, 64, 28
3, 75408, Control_c, 0, 7, 100
3, 75620, Note_on_c, 0, 67, 0
3, 75656, Note_on_c, 0, 71, 0
3, 75664, Note_on_c, 0, 64, 0
3, 75920, Note_on_c, 0, 64, 30
3, 75920, Note_on_c, 0, 71, 32
3, 75920, Note_on_c, 0, 67, 30
3, 76088, Note_on_c, 0, 67, 0
3, 76104, Note_on_c, 0, 71, 0
3, 76108, Note_on_c, 0, 64, 0
3, 76432, Note_on_c, 0, 71, 33
3, 76432, Note_on_c, 0, 67, 30
3, 76432, Note_on_c, 0, 64, 33
3, 76600, Note_on_c, 0, 64, 0
3, 76600, Note_on_c, 0, 67, 0
3, 76600, Note_on_c, 0, 71, 0
3, 77052, Note_on_c, 0, 62, 38
3, 77052, Note_on_c, 0, 67, 45
3, 77052, Note_on_c, 0, 64, 37
3, 77052, Note_on_c, 0, 71, 50
3, 77064, Control_c, 0, 7, 100
3, 77320, Control_c, 0, 64, 56
3, 77332, Note_on_c, 0, 64, 0
3, 77336, Control_c, 0, 64, 88
3, 77352, Control_c, 0, 64, 127
3, 77360, Note_on_c, 0, 71, 0
3, 77360, Note_on_c, 0, 67, 0
3, 77664, Note_on_c, 0, 71, 47
3, 77676, Note_on_c, 0, 67, 39
3, 77676, Control_c, 0, 64, 88
3, 77688, Note_on_c, 0, 64, 32
3, 77692, Control_c, 0, 64, 56
3, 77708, Control_c, 0, 64, 40
3, 77752, Control_c, 0, 64, 104
3, 77768, Control_c, 0, 64, 127
3, 77872, Note_on_c, 0, 67, 0
3, 77876, Note_on_c, 0, 64, 0
3, 77876, Note_on_c, 0, 71, 0
3, 78180, Note_on_c, 0, 71, 48
3, 78188, Note_on_c, 0, 67, 37
3, 78192, Note_on_c, 0, 64, 34
3, 78324, Note_on_c, 0, 64, 0
3, 78344, Note_on_c, 0, 67, 0
3, 78364, Note_on_c, 0, 71, 0
3, 78652, Note_on_c, 0, 71, 35
3, 78652, Note_on_c, 0, 64, 32
3, 78652, Note_on_c, 0, 67, 35
3, 78796, Note_on_c, 0, 64, 0
3, 78800, Note_on_c, 0, 71, 0
3, 78804, Note_on_c, 0, 67, 0
3, 79008, Note_on_c, 0, 62, 0
3, 79172, Note_on_c, 0, 71, 36
3, 79180, Note_on_c, 0, 60, 39
3, 79184, Note_on_c, 0, 67, 32
3, 79188, Note_on_c, 0, 64, 24
3, 79224, Control_c, 0, 64, 72
3, 79240, Control_c, 0, 64, 24
3, 79256, Control_c, 0, 64, 0
3, 79368, Control_c, 0, 64, 72
3, 79384, Control_c, 0, 64, 127
3, 79412, Note_on_c, 0, 64, 0
3, 79424, Note_on_c, 0, 71, 0
3, 79436, Note_on_c, 0, 67, 0
3, 79656, Note_on_c, 0, 71, 47
3, 79664, Note_on_c, 0, 67, 38
3, 79676, Note_on_c, 0, 64, 32
3, 79964, Note_on_c, 0, 67, 0
3, 79968, Note_on_c, 0, 71, 0
3, 79980, Note_on_c, 0, 64, 0
3, 80180, Note_on_c, 0, 69, 51
3, 80180, Note_on_c, 0, 64, 36
3, 80188, Note_on_c, 0, 66, 30
3, 80296, Control_c, 0, 64, 88
3, 80312, Control_c, 0, 64, 40
3, 80324, Control_c, 0, 64, 0
3, 80420, Control_c, 0, 64, 72
3, 80436, Control_c, 0, 64, 127
3, 80504, Note_on_c, 0, 64, 0
3, 80532, Note_on_c, 0, 69, 0
3, 80548, Note_on_c, 0, 66, 0
3, 80724, Note_on_c, 0, 69, 49
3, 80736, Note_on_c, 0, 66, 24
3, 80740, Note_on_c, 0, 62, 23
3, 80944, Note_on_c, 0, 62, 0
3, 80956, Note_on_c, 0, 66, 0
3, 80960, Note_on_c, 0, 69, 0
3, 81172, Note_on_c, 0, 60, 0
3, 81280, Note_on_c, 0, 69, 47
3, 81288, Note_on_c, 0, 62, 32
3, 81292, Note_on_c, 0, 66, 26
3, 81296, Note_on_c, 0, 59, 40
3, 81320, Control_c, 0, 64, 72
3, 81332, Control_c, 0, 64, 0
3, 81456, Control_c, 0, 64, 40
3, 81472, Control_c, 0, 64, 88
3, 81488, Note_on_c, 0, 62, 0
3, 81492, Note_on_c, 0, 66, 0
3, 81492, Control_c, 0, 64, 127
3, 81500, Note_on_c, 0, 69, 0
3, 81756, Note_on_c, 0, 69, 45
3, 81760, Note_on_c, 0, 62, 36
3, 81768, Note_on_c, 0, 66, 28
3, 81888, Note_on_c, 0, 62, 0
3, 81912, Note_on_c, 0, 66, 0
3, 81912, Note_on_c, 0, 69, 0
3, 81980, Note_on_c, 0, 59, 0
3, 82216, Note_on_c, 0, 69, 51
3, 82224, Note_on_c, 0, 62, 31
3, 82232, Note_on_c, 0, 66, 25
3, 82336, Note_on_c, 0, 69, 0
3, 82400, Note_on_c, 0, 66, 0
3, 82400, Note_on_c, 0, 62, 0
3, 82672, Note_on_c, 0, 69, 50
3, 82672, Note_on_c, 0, 66, 35
3, 82680, Note_on_c, 0, 62, 39
3, 82780, Note_on_c, 0, 66, 0
3, 82932, Note_on_c, 0, 62, 0
3, 82952, Note_on_c, 0, 69, 0
3, 83136, Note_on_c, 0, 67, 40
3, 83148, Note_on_c, 0, 62, 21
3, 83160, Note_on_c, 0, 64, 30
3, 83256, Control_c, 0, 64, 104
3, 83300, Control_c, 0, 64, 127
3, 83412, Note_on_c, 0, 67, 0
3, 83416, Note_on_c, 0, 64, 0
3, 83452, Note_on_c, 0, 62, 0
3, 83668, Note_on_c, 0, 67, 51
3, 83684, Note_on_c, 0, 62, 31
3, 83692, Note_on_c, 0, 64, 29
3, 83928, Note_on_c, 0, 64, 0
3, 83932, Note_on_c, 0, 62, 0
3, 83944, Note_on_c, 0, 67, 0
3, 84212, Note_on_c, 0, 67, 45
3, 84212, Note_on_c, 0, 64, 37
3, 84212, Note_on_c, 0, 57, 35
3, 84212, Note_on_c, 0, 60, 39
3, 84276, Control_c, 0, 64, 88
3, 84288, Control_c, 0, 64, 0
3, 84416, Control_c, 0, 64, 72
3, 84432, Control_c, 0, 64, 127
3, 84464, Note_on_c, 0, 64, 0
3, 84480, Note_on_c, 0, 60, 0
3, 84500, Note_on_c, 0, 67, 0
3, 84752, Note_on_c, 0, 67, 48
3, 84756, Note_on_c, 0, 60, 44
3, 84780, Note_on_c, 0, 64, 34
3, 85000, Note_on_c, 0, 67, 0
3, 85008, Note_on_c, 0, 64, 0
3, 85044, Note_on_c, 0, 60, 0
3, 85148, Note_on_c, 0, 57, 0
3, 85288, Note_on_c, 0, 59, 45
3, 85300, Note_on_c, 0, 64, 38
3, 85300, Note_on_c, 0, 55, 47
3, 85300, Note_on_c, 0, 67, 41
3, 85348, Control_c, 0, 64, 56
3, 85364, Control_c, 0, 64, 0
3, 85500, Control_c, 0, 64, 72
3, 85516, Control_c, 0, 64, 127
3, 85548, Note_on_c, 0, 67, 0
3, 85556, Note_on_c, 0, 59, 0
3, 85560, Note_on_c, 0, 64, 0
3, 85780, Note_on_c, 0, 67, 48
3, 85784, Note_on_c, 0, 64, 44
3, 85788, Note_on_c, 0, 59, 40
3, 85924, Note_on_c, 0, 64, 0
3, 85940, Note_on_c, 0, 59, 0
3, 85988, Note_on_c, 0, 67, 0
3, 86232, Note_on_c, 0, 67, 51
3, 86236, Note_on_c, 0, 59, 35
3, 86248, Note_on_c, 0, 64, 48
3, 86408, Note_on_c, 0, 64, 0
3, 86424, Note_on_c, 0, 67, 0
3, 86432, Note_on_c, 0, 59, 0
3, 86704, Note_on_c, 0, 67, 51
3, 86712, Note_on_c, 0, 59, 37
3, 86728, Note_on_c, 0, 64, 45
3, 86976, Note_on_c, 0, 59, 0
3, 86984, Note_on_c, 0, 64, 0
3, 87120, Note_on_c, 0, 67, 0
3, 87180, Note_on_c, 0, 55, 0
3, 87212, Note_on_c, 0, 69, 51
3, 87220, Note_on_c, 0, 54, 37
3, 87220, Note_on_c, 0, 59, 33
3, 87228, Note_on_c, 0, 64, 43
3, 87280, Control_c, 0, 64, 72
3, 87296, Control_c, 0, 64, 0
3, 87420, Control_c, 0, 64, 72
3, 87436, Control_c, 0, 64, 127
3, 87508, Note_on_c, 0, 64, 0
3, 87508, Note_on_c, 0, 59, 0
3, 87536, Note_on_c, 0, 69, 0
3, 87736, Note_on_c, 0, 69, 48
3, 87748, Note_on_c, 0, 59, 34
3, 87756, Note_on_c, 0, 64, 47
3, 88116, Note_on_c, 0, 64, 0
3, 88144, Note_on_c, 0, 59, 0
3, 88152, Note_on_c, 0, 54, 0
3, 88168, Note_on_c, 0, 69, 0
3, 88356, Note_on_c, 0, 69, 46
3, 88364, Note_on_c, 0, 63, 34
3, 88368, Note_on_c, 0, 59, 30
3, 88372, Note_on_c, 0, 53, 36
3, 88428, Control_c, 0, 64, 104
3, 88444, Control_c, 0, 64, 56
3, 88460, Control_c, 0, 64, 0
3, 88596, Control_c, 0, 64, 56
3, 88616, Control_c, 0, 64, 127
3, 88672, Note_on_c, 0, 59, 0
3, 88688, Note_on_c, 0, 69, 0
3, 88688, Note_on_c, 0, 63, 0
3, 88892, Note_on_c, 0, 69, 43
3, 88900, Note_on_c, 0, 63, 28
3, 88900, Note_on_c, 0, 59, 29
3, 89168, Note_on_c, 0, 69, 0
3, 89184, Note_on_c, 0, 59, 0
3, 89184, Note_on_c, 0, 63, 0
3, 89280, Note_on_c, 0, 53, 0
3, 89532, Note_on_c, 0, 69, 34
3, 89536, Note_on_c, 0, 59, 32
3, 89536, Note_on_c, 0, 62, 43
3, 89556, Note_on_c, 0, 52, 45
3, 89620, Control_c, 0, 64, 56
3, 89636, Control_c, 0, 64, 0
3, 89744, Control_c, 0, 64, 40
3, 89764, Control_c, 0, 64, 104
3, 89776, Control_c, 0, 64, 127
3, 89816, Note_on_c, 0, 62, 0
3, 89824, Note_on_c, 0, 59, 0
3, 89856, Note_on_c, 0, 69, 0
3, 90108, Note_on_c, 0, 69, 63
3, 90120, Note_on_c, 0, 59, 45
3, 90128, Note_on_c, 0, 62, 49
3, 90400, Note_on_c, 0, 59, 0
3, 90436, Note_on_c, 0, 62, 0
3, 90460, Note_on_c, 0, 69, 0
3, 90768, Note_on_c, 0, 68, 44
3, 90780, Note_on_c, 0, 62, 42
3, 90780, Note_on_c, 0, 59, 34
3, 90904, Control_c, 0, 64, 104
3, 90920, Control_c, 0, 64, 56
3, 90936, Control_c, 0, 64, 0
3, 91044, Control_c, 0, 64, 56
3, 91060, Control_c, 0, 64, 127
3, 91140, Note_on_c, 0, 62, 0
3, 91152, Note_on_c, 0, 59, 0
3, 91172, Note_on_c, 0, 68, 0
3, 91352, Note_on_c, 0, 68, 45
3, 91368, Note_on_c, 0, 62, 43
3, 91368, Note_on_c, 0, 59, 38
3, 91660, Note_on_c, 0, 62, 0
3, 91684, Note_on_c, 0, 59, 0
3, 91740, Note_on_c, 0, 68, 0
3, 91972, Note_on_c, 0, 67, 55
3, 91984, Note_on_c, 0, 60, 44
3, 91992, Note_on_c, 0, 45, 50
3, 92000, Note_on_c, 0, 64, 37
3, 92036, Control_c, 0, 64, 40
3, 92052, Control_c, 0, 64, 0
3, 92176, Control_c, 0, 64, 56
3, 92188, Control_c, 0, 64, 127
3, 92320, Note_on_c, 0, 64, 0
3, 92348, Note_on_c, 0, 60, 0
3, 92388, Note_on_c, 0, 67, 0
3, 92548, Note_on_c, 0, 67, 63
3, 92556, Note_on_c, 0, 64, 56
3, 92564, Note_on_c, 0, 60, 48
3, 92748, Note_on_c, 0, 52, 0
3, 92760, Note_on_c, 0, 45, 0
3, 92820, Note_on_c, 0, 64, 0
3, 92856, Note_on_c, 0, 67, 0
3, 92860, Note_on_c, 0, 60, 0
3, 93200, Note_on_c, 0, 66, 62
3, 93216, Note_on_c, 0, 62, 56
3, 93224, Note_on_c, 0, 60, 47
3, 93232, Note_on_c, 0, 38, 54
3, 93240, Note_on_c, 0, 50, 45
3, 93320, Control_c, 0, 64, 72
3, 93332, Control_c, 0, 64, 0
3, 93440, Control_c, 0, 64, 40
3, 93456, Control_c, 0, 64, 127
3, 93588, Note_on_c, 0, 60, 0
3, 93604, Note_on_c, 0, 62, 0
3, 93640, Note_on_c, 0, 66, 0
3, 93836, Note_on_c, 0, 66, 61
3, 93852, Note_on_c, 0, 62, 57
3, 93856, Note_on_c, 0, 60, 50
3, 94100, Note_on_c, 0, 38, 0
3, 94128, Note_on_c, 0, 50, 0
3, 94176, Note_on_c, 0, 62, 0
3, 94180, Note_on_c, 0, 60, 0
3, 94232, Note_on_c, 0, 66, 0
3, 94528, Note_on_c, 0, 67, 57
3, 94540, Note_on_c, 0, 59, 40
3, 94540, Note_on_c, 0, 64, 50
3, 94564, Note_on_c, 0, 52, 48
3, 94568, Note_on_c, 0, 40, 54
3, 94636, Control_c, 0, 64, 72
3, 94648, Control_c, 0, 64, 0
3, 94772, Control_c, 0, 64, 104
3, 94788, Control_c, 0, 64, 127
3, 94820, Note_on_c, 0, 64, 0
3, 94840, Note_on_c, 0, 67, 0
3, 94844, Note_on_c, 0, 59, 0
3, 95060, Note_on_c, 0, 67, 49
3, 95068, Note_on_c, 0, 64, 46
3, 95068, Note_on_c, 0, 59, 39
3, 95204, Note_on_c, 0, 40, 0
3, 95296, Note_on_c, 0, 52, 0
3, 95304, Note_on_c, 0, 64, 0
3, 95312, Note_on_c, 0, 59, 0
3, 95404, Note_on_c, 0, 67, 0
3, 95648, Note_on_c, 0, 69, 49
3, 95648, Note_on_c, 0, 60, 40
3, 95648, Note_on_c, 0, 67, 41
3, 95664, Note_on_c, 0, 45, 54
3, 95732, Control_c, 0, 64, 56
3, 95748, Control_c, 0, 64, 0
3, 95840, Control_c, 0, 64, 24
3, 95856, Control_c, 0, 64, 104
3, 95868, Control_c, 0, 64, 127
3, 95960, Note_on_c, 0, 67, 0
3, 95960, Note_on_c, 0, 69, 0
3, 95968, Note_on_c, 0, 60, 0
3, 96280, Note_on_c, 0, 69, 53
3, 96292, Note_on_c, 0, 65, 48
3, 96292, Note_on_c, 0, 60, 36
3, 96304, Note_on_c, 0, 57, 29
3, 96384, Control_c, 0, 64, 88
3, 96396, Control_c, 0, 64, 24
3, 96412, Control_c, 0, 64, 0
3, 96476, Control_c, 0, 64, 40
3, 96492, Control_c, 0, 64, 127
3, 96564, Note_on_c, 0, 45, 0
3, 96576, Note_on_c, 0, 69, 0
3, 96596, Note_on_c, 0, 60, 0
3, 96596, Note_on_c, 0, 65, 0
3, 96608, Note_on_c, 0, 57, 0
3, 96888, Note_on_c, 0, 71, 63
3, 96908, Note_on_c, 0, 59, 35
3, 96932, Note_on_c, 0, 64, 35
3, 96940, Note_on_c, 0, 47, 54
3, 96940, Note_on_c, 0, 55, 34
3, 97004, Control_c, 0, 64, 72
3, 97020, Control_c, 0, 64, 0
3, 97128, Control_c, 0, 64, 88
3, 97140, Control_c, 0, 64, 127
3, 97200, Note_on_c, 0, 64, 0
3, 97208, Note_on_c, 0, 59, 0
3, 97244, Note_on_c, 0, 71, 0
3, 97432, Note_on_c, 0, 71, 69
3, 97456, Note_on_c, 0, 59, 48
3, 97464, Note_on_c, 0, 64, 42
3, 97744, Note_on_c, 0, 64, 0
3, 97804, Note_on_c, 0, 59, 0
3, 97912, Note_on_c, 0, 71, 0
3, 97948, Note_on_c, 0, 55, 0
3, 98080, Note_on_c, 0, 69, 53
3, 98084, Note_on_c, 0, 63, 31
3, 98092, Note_on_c, 0, 59, 33
3, 98112, Note_on_c, 0, 54, 36
3, 98212, Control_c, 0, 64, 56
3, 98228, Control_c, 0, 64, 0
3, 98352, Control_c, 0, 64, 104
3, 98368, Control_c, 0, 64, 127
3, 98500, Note_on_c, 0, 59, 0
3, 98504, Note_on_c, 0, 69, 0
3, 98532, Note_on_c, 0, 63, 0
3, 98784, Note_on_c, 0, 69, 38
3, 98792, Note_on_c, 0, 59, 25
3, 98796, Note_on_c, 0, 63, 24
3, 99076, Note_on_c, 0, 47, 0
3, 99100, Note_on_c, 0, 54, 0
3, 99104, Note_on_c, 0, 59, 0
3, 99112, Note_on_c, 0, 69, 0
3, 99156, Note_on_c, 0, 63, 0
3, 99704, Note_on_c, 0, 67, 39
3, 99708, Note_on_c, 0, 59, 31
3, 99708, Note_on_c, 0, 64, 39
3, 99732, Note_on_c, 0, 52, 36
3, 99732, Note_on_c, 0, 40, 48
3, 99776, Control_c, 0, 64, 56
3, 99792, Control_c, 0, 64, 0
3, 99916, Control_c, 0, 64, 88
3, 99932, Control_c, 0, 64, 127
3, 99996, Note_on_c, 0, 59, 0
3, 100004, Note_on_c, 0, 67, 0
3, 100004, Note_on_c, 0, 64, 0
3, 100252, Note_on_c, 0, 67, 37
3, 100256, Note_on_c, 0, 64, 30
3, 100264, Note_on_c, 0, 59, 27
3, 100432, Note_on_c, 0, 67, 0
3, 100456, Note_on_c, 0, 59, 0
3, 100480, Note_on_c, 0, 64, 0
3, 100684, Note_on_c, 0, 40, 0
3, 100720, Note_on_c, 0, 59, 34
3, 100724, Note_on_c, 0, 67, 41
3, 100728, Note_on_c, 0, 64, 35
3, 100736, Note_on_c, 0, 52, 0
3, 100812, Note_on_c, 0, 59, 0
3, 100840, Note_on_c, 0, 64, 0
3, 100852, Note_on_c, 0, 67, 0
3, 101196, Note_on_c, 0, 71, 52
3, 101204, Note_on_c, 0, 67, 43
3, 101220, Note_on_c, 0, 64, 55
3, 101456, Note_on_c, 0, 62, 70
3, 101472, Note_on_c, 0, 64, 0
3, 101516, Note_on_c, 0, 71, 0
3, 101544, Note_on_c, 0, 67, 0
3, 101704, Note_on_c, 0, 62, 0
3, 101724, Note_on_c, 0, 64, 77
3, 101732, Note_on_c, 0, 67, 36
3, 101732, Note_on_c, 0, 71, 38
3, 101948, Note_on_c, 0, 71, 0
3, 102012, Note_on_c, 0, 67, 0
3, 102020, Note_on_c, 0, 64, 0
3, 102292, Note_on_c, 0, 64, 32
3, 102292, Note_on_c, 0, 71, 44
3, 102292, Note_on_c, 0, 62, 59
3, 102292, Note_on_c, 0, 67, 36
3, 102364, Control_c, 0, 64, 72
3, 102376, Control_c, 0, 64, 0
3, 102472, Control_c, 0, 64, 104
3, 102488, Control_c, 0, 64, 127
3, 102492, Note_on_c, 0, 62, 0
3, 102512, Note_on_c, 0, 61, 60
3, 102548, Note_on_c, 0, 71, 0
3, 102556, Note_on_c, 0, 64, 0
3, 102600, Note_on_c, 0, 67, 0
3, 102748, Note_on_c, 0, 61, 0
3, 102764, Note_on_c, 0, 62, 67
3, 102780, Note_on_c, 0, 71, 34
3, 102780, Note_on_c, 0, 67, 29
3, 102788, Note_on_c, 0, 64, 31
3, 102828, Control_c, 0, 64, 104
3, 102840, Control_c, 0, 64, 40
3, 102860, Control_c, 0, 64, 0
3, 102908, Control_c, 0, 64, 88
3, 102920, Control_c, 0, 64, 127
3, 103052, Note_on_c, 0, 71, 0
3, 103068, Note_on_c, 0, 64, 0
3, 103104, Note_on_c, 0, 62, 0
3, 103108, Note_on_c, 0, 67, 0
3, 103264, Note_on_c, 0, 58, 66
3, 103284, Note_on_c, 0, 67, 34
3, 103292, Note_on_c, 0, 71, 42
3, 103292, Note_on_c, 0, 64, 40
3, 103292, Control_c, 0, 64, 104
3, 103308, Control_c, 0, 64, 24
3, 103324, Control_c, 0, 64, 0
3, 103368, Control_c, 0, 64, 56
3, 103384, Control_c, 0, 64, 127
3, 103508, Note_on_c, 0, 71, 0
3, 103508, Note_on_c, 0, 58, 0
3, 103520, Note_on_c, 0, 59, 72
3, 103524, Note_on_c, 0, 64, 0
3, 103592, Note_on_c, 0, 59, 0
3, 103604, Note_on_c, 0, 67, 0
3, 103820, Note_on_c, 0, 61, 72
3, 103872, Note_on_c, 0, 52, 50
3, 103880, Note_on_c, 0, 40, 37
3, 103880, Control_c, 0, 64, 88
3, 103896, Control_c, 0, 64, 0
3, 104036, Control_c, 0, 64, 56
3, 104052, Control_c, 0, 64, 104
3, 104068, Control_c, 0, 64, 127
3, 104340, Note_on_c, 0, 71, 57
3, 104352, Note_on_c, 0, 67, 40
3, 104356, Note_on_c, 0, 64, 42
3, 104504, Note_on_c, 0, 71, 0
3, 104520, Note_on_c, 0, 64, 0
3, 104528, Note_on_c, 0, 67, 0
3, 104824, Note_on_c, 0, 71, 59
3, 104828, Note_on_c, 0, 67, 40
3, 104848, Note_on_c, 0, 64, 34
3, 104920, Note_on_c, 0, 64, 0
3, 104956, Note_on_c, 0, 67, 0
3, 104980, Note_on_c, 0, 61, 0
3, 104984, Note_on_c, 0, 71, 0
3, 105300, Note_on_c, 0, 73, 72
3, 105316, Note_on_c, 0, 61, 41
3, 105328, Note_on_c, 0, 67, 46
3, 105508, Note_on_c, 0, 73, 0
3, 105540, Note_on_c, 0, 67, 0
3, 105560, Note_on_c, 0, 71, 78
3, 105620, Note_on_c, 0, 61, 0
3, 105648, Note_on_c, 0, 52, 0
3, 105752, Note_on_c, 0, 71, 0
3, 105848, Note_on_c, 0, 73, 79
3, 105864, Note_on_c, 0, 61, 46
3, 105872, Note_on_c, 0, 52, 39
3, 105876, Note_on_c, 0, 67, 42
3, 105940, Control_c, 0, 64, 104
3, 105956, Control_c, 0, 64, 24
3, 105972, Control_c, 0, 64, 0
3, 106048, Control_c, 0, 64, 56
3, 106064, Control_c, 0, 64, 127
3, 106104, Note_on_c, 0, 73, 0
3, 106128, Note_on_c, 0, 67, 0
3, 106164, Note_on_c, 0, 61, 0
3, 106364, Note_on_c, 0, 71, 65
3, 106380, Note_on_c, 0, 61, 36
3, 106400, Note_on_c, 0, 67, 40
3, 106644, Note_on_c, 0, 40, 0
3, 106656, Note_on_c, 0, 71, 0
3, 106672, Note_on_c, 0, 70, 62
3, 106756, Note_on_c, 0, 67, 0
3, 106796, Note_on_c, 0, 70, 0
3, 106808, Note_on_c, 0, 52, 0
3, 106812, Note_on_c, 0, 61, 0
3, 106936, Note_on_c, 0, 71, 68
3, 106948, Note_on_c, 0, 61, 33
3, 106948, Note_on_c, 0, 54, 41
3, 106956, Note_on_c, 0, 66, 41
3, 107024, Control_c, 0, 64, 104
3, 107040, Control_c, 0, 64, 40
3, 107056, Control_c, 0, 64, 0
3, 107148, Control_c, 0, 64, 56
3, 107164, Control_c, 0, 64, 127
3, 107192, Note_on_c, 0, 66, 0
3, 107280, Note_on_c, 0, 71, 0
3, 107296, Note_on_c, 0, 61, 0
3, 107400, Note_on_c, 0, 54, 0
3, 107416, Note_on_c, 0, 70, 66
3, 107428, Note_on_c, 0, 61, 38
3, 107440, Note_on_c, 0, 55, 42
3, 107440, Note_on_c, 0, 64, 48
3, 107476, Control_c, 0, 64, 40
3, 107492, Control_c, 0, 64, 0
3, 107568, Control_c, 0, 64, 88
3, 107576, Note_on_c, 0, 70, 0
3, 107584, Control_c, 0, 64, 127
3, 107628, Note_on_c, 0, 64, 0
3, 107660, Note_on_c, 0, 69, 73
3, 107760, Note_on_c, 0, 69, 0
3, 107820, Note_on_c, 0, 61, 0
3, 107836, Note_on_c, 0, 55, 0
3, 107992, Note_on_c, 0, 70, 67
3, 108000, Note_on_c, 0, 61, 31
3, 108004, Note_on_c, 0, 66, 47
3, 108024, Note_on_c, 0, 62, 51
3, 108036, Note_on_c, 0, 54, 24
3, 108056, Note_on_c, 0, 47, 32
3, 108112, Control_c, 0, 64, 104
3, 108128, Control_c, 0, 64, 40
3, 108144, Control_c, 0, 64, 0
3, 108236, Control_c, 0, 64, 127
3, 108280, Note_on_c, 0, 62, 0
3, 108296, Note_on_c, 0, 66, 0
3, 108300, Note_on_c, 0, 61, 0
3, 108512, Note_on_c, 0, 66, 33
3, 108520, Note_on_c, 0, 61, 37
3, 108540, Note_on_c, 0, 62, 47
3, 108712, Note_on_c, 0, 62, 0
3, 108764, Note_on_c, 0, 66, 0
3, 108764, Note_on_c, 0, 61, 0
3, 108808, Note_on_c, 0, 70, 0
3, 109028, Note_on_c, 0, 66, 24
3, 109032, Note_on_c, 0, 71, 49
3, 109036, Note_on_c, 0, 62, 38
3, 109136, Control_c, 0, 64, 104
3, 109148, Control_c, 0, 64, 24
3, 109164, Control_c, 0, 64, 0
3, 109224, Control_c, 0, 64, 40
3, 109240, Control_c, 0, 64, 104
3, 109256, Control_c, 0, 64, 127
3, 109316, Note_on_c, 0, 62, 0
3, 109336, Note_on_c, 0, 71, 0
3, 109348, Note_on_c, 0, 54, 0
3, 109360, Note_on_c, 0, 47, 0
3, 109364, Note_on_c, 0, 66, 0
3, 109532, Note_on_c, 0, 66, 31
3, 109540, Note_on_c, 0, 59, 65
3, 109540, Note_on_c, 0, 71, 30
3, 109552, Note_on_c, 0, 62, 35
3, 109736, Note_on_c, 0, 59, 0
3, 109772, Note_on_c, 0, 62, 0
3, 109772, Note_on_c, 0, 57, 72
3, 109912, Note_on_c, 0, 66, 0
3, 109984, Note_on_c, 0, 57, 0
3, 110044, Note_on_c, 0, 66, 32
3, 110048, Note_on_c, 0, 59, 66
3, 110052, Note_on_c, 0, 62, 36
3, 110172, Control_c, 0, 64, 40
3, 110184, Control_c, 0, 64, 0
3, 110248, Control_c, 0, 64, 40
3, 110264, Control_c, 0, 64, 104
3, 110280, Control_c, 0, 64, 127
3, 110336, Note_on_c, 0, 62, 0
3, 110356, Note_on_c, 0, 66, 0
3, 110452, Note_on_c, 0, 59, 0
3, 110540, Note_on_c, 0, 57, 59
3, 110540, Note_on_c, 0, 66, 38
3, 110548, Note_on_c, 0, 62, 40
3, 110728, Note_on_c, 0, 57, 0
3, 110776, Note_on_c, 0, 56, 54
3, 110848, Note_on_c, 0, 62, 0
3, 110860, Note_on_c, 0, 66, 0
3, 111036, Note_on_c, 0, 56, 0
3, 111056, Note_on_c, 0, 66, 29
3, 111072, Note_on_c, 0, 57, 67
3, 111072, Note_on_c, 0, 62, 31
3, 111176, Control_c, 0, 64, 104
3, 111192, Control_c, 0, 64, 24
3, 111208, Control_c, 0, 64, 0
3, 111272, Control_c, 0, 64, 40
3, 111284, Control_c, 0, 64, 127
3, 111396, Note_on_c, 0, 62, 0
3, 111396, Note_on_c, 0, 66, 0
3, 111532, Note_on_c, 0, 57, 0
3, 111560, Note_on_c, 0, 66, 35
3, 111568, Note_on_c, 0, 56, 66
3, 111576, Note_on_c, 0, 62, 36
3, 111812, Note_on_c, 0, 54, 77
3, 111840, Note_on_c, 0, 56, 0
3, 111888, Note_on_c, 0, 66, 0
3, 111904, Note_on_c, 0, 54, 0
3, 111956, Note_on_c, 0, 62, 0
3, 112132, Note_on_c, 0, 53, 73
3, 112136, Note_on_c, 0, 68, 24
3, 112144, Note_on_c, 0, 62, 29
3, 112172, Note_on_c, 0, 47, 38
3, 112200, Control_c, 0, 64, 104
3, 112216, Control_c, 0, 64, 56
3, 112228, Control_c, 0, 64, 0
3, 112372, Control_c, 0, 64, 56
3, 112384, Control_c, 0, 64, 127
3, 112432, Note_on_c, 0, 62, 0
3, 112432, Note_on_c, 0, 68, 0
3, 112644, Note_on_c, 0, 68, 38
3, 112660, Note_on_c, 0, 62, 36
3, 112680, Control_c, 0, 64, 56
3, 112696, Control_c, 0, 64, 0
3, 112740, Control_c, 0, 64, 24
3, 112756, Control_c, 0, 64, 72
3, 112772, Control_c, 0, 64, 127
3, 112876, Note_on_c, 0, 62, 0
3, 112880, Note_on_c, 0, 68, 0
3, 113100, Note_on_c, 0, 68, 43
3, 113108, Note_on_c, 0, 62, 41
3, 113256, Note_on_c, 0, 71, 0
3, 113376, Note_on_c, 0, 62, 0
3, 113456, Note_on_c, 0, 68, 0
3, 113620, Note_on_c, 0, 68, 46
3, 113628, Note_on_c, 0, 71, 71
3, 113644, Note_on_c, 0, 62, 50
3, 113804, Note_on_c, 0, 71, 0
3, 113868, Note_on_c, 0, 69, 79
3, 113936, Note_on_c, 0, 68, 0
3, 113940, Note_on_c, 0, 62, 0
3, 114060, Note_on_c, 0, 69, 0
3, 114144, Note_on_c, 0, 68, 46
3, 114144, Note_on_c, 0, 71, 68
3, 114160, Note_on_c, 0, 62, 45
3, 114212, Control_c, 0, 64, 88
3, 114228, Control_c, 0, 64, 24
3, 114244, Control_c, 0, 64, 0
3, 114304, Control_c, 0, 64, 40
3, 114324, Control_c, 0, 64, 127
3, 114452, Note_on_c, 0, 62, 0
3, 114464, Note_on_c, 0, 71, 0
3, 114556, Note_on_c, 0, 68, 0
3, 114572, Note_on_c, 0, 53, 0
3, 114632, Note_on_c, 0, 69, 65
3, 114648, Note_on_c, 0, 62, 46
3, 114660, Note_on_c, 0, 54, 36
3, 114728, Control_c, 0, 64, 72
3, 114744, Control_c, 0, 64, 0
3, 114800, Control_c, 0, 64, 40
3, 114816, Control_c, 0, 64, 127
3, 114832, Note_on_c, 0, 68, 64
3, 114836, Note_on_c, 0, 69, 0
3, 114900, Note_on_c, 0, 62, 0
3, 115076, Note_on_c, 0, 68, 0
3, 115084, Note_on_c, 0, 69, 72
3, 115104, Note_on_c, 0, 62, 54
3, 115160, Control_c, 0, 64, 56
3, 115172, Control_c, 0, 64, 0
3, 115220, Control_c, 0, 64, 40
3, 115236, Control_c, 0, 64, 88
3, 115252, Control_c, 0, 64, 127
3, 115368, Note_on_c, 0, 62, 0
3, 115464, Note_on_c, 0, 69, 0
3, 115532, Note_on_c, 0, 54, 0
3, 115532, Note_on_c, 0, 68, 58
3, 115552, Note_on_c, 0, 65, 60
3, 115552, Note_on_c, 0, 56, 42
3, 115552, Note_on_c, 0, 62, 51
3, 115580, Control_c, 0, 64, 56
3, 115592, Control_c, 0, 64, 0
3, 115640, Control_c, 0, 64, 104
3, 115644, Note_on_c, 0, 65, 0
3, 115656, Control_c, 0, 64, 127
3, 115784, Note_on_c, 0, 69, 76
3, 115784, Note_on_c, 0, 54, 38
3, 115800, Note_on_c, 0, 66, 53
3, 115832, Note_on_c, 0, 56, 0
3, 115832, Note_on_c, 0, 68, 0
3, 115836, Note_on_c, 0, 47, 0
3, 115856, Note_on_c, 0, 62, 0
3, 115896, Note_on_c, 0, 66, 0
3, 115912, Note_on_c, 0, 54, 0
3, 115916, Note_on_c, 0, 69, 0
3, 116096, Note_on_c, 0, 71, 78
3, 116096, Note_on_c, 0, 68, 52
3, 116104, Note_on_c, 0, 61, 48
3, 116124, Note_on_c, 0, 45, 55
3, 116132, Note_on_c, 0, 53, 48
3, 116180, Control_c, 0, 64, 40
3, 116200, Control_c, 0, 64, 0
3, 116304, Control_c, 0, 64, 56
3, 116320, Control_c, 0, 64, 127
3, 116432, Note_on_c, 0, 68, 0
3, 116440, Note_on_c, 0, 61, 0
3, 116612, Note_on_c, 0, 68, 58
3, 116624, Note_on_c, 0, 61, 38
3, 116932, Note_on_c, 0, 68, 0
3, 116936, Note_on_c, 0, 61, 0
3, 117040, Note_on_c, 0, 53, 0
3, 117168, Note_on_c, 0, 71, 0
3, 117192, Note_on_c, 0, 69, 60
3, 117196, Note_on_c, 0, 54, 49
3, 117204, Note_on_c, 0, 61, 36
3, 117224, Note_on_c, 0, 66, 31
3, 117300, Control_c, 0, 64, 56
3, 117316, Control_c, 0, 64, 0
3, 117392, Control_c, 0, 64, 56
3, 117400, Note_on_c, 0, 45, 0
3, 117408, Control_c, 0, 64, 127
3, 117448, Note_on_c, 0, 54, 0
3, 117456, Note_on_c, 0, 61, 0
3, 117464, Note_on_c, 0, 66, 0
3, 117488, Note_on_c, 0, 69, 0
3, 117724, Note_on_c, 0, 61, 66
3, 117736, Note_on_c, 0, 69, 35
3, 117736, Note_on_c, 0, 66, 24
3, 117904, Note_on_c, 0, 61, 0
3, 117952, Note_on_c, 0, 60, 74
3, 118032, Note_on_c, 0, 66, 0
3, 118048, Note_on_c, 0, 69, 0
3, 118072, Note_on_c, 0, 60, 0
3, 118224, Note_on_c, 0, 61, 62
3, 118240, Note_on_c, 0, 69, 38
3, 118244, Note_on_c, 0, 66, 22
3, 118364, Control_c, 0, 64, 56
3, 118380, Control_c, 0, 64, 0
3, 118476, Control_c, 0, 64, 72
3, 118492, Control_c, 0, 64, 127
3, 118520, Note_on_c, 0, 69, 0
3, 118544, Note_on_c, 0, 66, 0
3, 118716, Note_on_c, 0, 69, 53
3, 118728, Note_on_c, 0, 66, 34
3, 119008, Note_on_c, 0, 69, 0
3, 119024, Note_on_c, 0, 66, 0
3, 119232, Note_on_c, 0, 69, 60
3, 119236, Note_on_c, 0, 66, 35
3, 119476, Note_on_c, 0, 69, 0
3, 119568, Note_on_c, 0, 66, 0
3, 119728, Note_on_c, 0, 68, 44
3, 119752, Note_on_c, 0, 64, 38
3, 119868, Control_c, 0, 64, 88
3, 119884, Control_c, 0, 64, 0
3, 119964, Control_c, 0, 64, 40
3, 119980, Control_c, 0, 64, 104
3, 119992, Control_c, 0, 64, 127
3, 120004, Note_on_c, 0, 68, 0
3, 120092, Note_on_c, 0, 64, 0
3, 120312, Note_on_c, 0, 66, 46
3, 120324, Note_on_c, 0, 64, 36
3, 120396, Control_c, 0, 64, 72
3, 120412, Control_c, 0, 64, 0
3, 120456, Control_c, 0, 64, 24
3, 120472, Control_c, 0, 64, 88
3, 120488, Control_c, 0, 64, 127
3, 120560, Note_on_c, 0, 61, 0
3, 120652, Note_on_c, 0, 66, 0
3, 120708, Note_on_c, 0, 64, 0
3, 120816, Note_on_c, 0, 60, 65
3, 120832, Note_on_c, 0, 66, 35
3, 120836, Note_on_c, 0, 64, 48
3, 120948, Note_on_c, 0, 60, 0
3, 121052, Note_on_c, 0, 64, 0
3, 121060, Note_on_c, 0, 59, 65
3, 121076, Note_on_c, 0, 66, 0
3, 121224, Note_on_c, 0, 59, 0
3, 121344, Note_on_c, 0, 60, 66
3, 121372, Note_on_c, 0, 66, 40
3, 121376, Note_on_c, 0, 64, 42
3, 121380, Note_on_c, 0, 45, 41
3, 121384, Note_on_c, 0, 33, 35
3, 121448, Control_c, 0, 64, 104
3, 121464, Control_c, 0, 64, 40
3, 121480, Control_c, 0, 64, 0
3, 121604, Control_c, 0, 64, 40
3, 121620, Control_c, 0, 64, 104
3, 121636, Control_c, 0, 64, 127
3, 121676, Note_on_c, 0, 66, 0
3, 121728, Note_on_c, 0, 64, 0
3, 121928, Note_on_c, 0, 66, 45
3, 121960, Note_on_c, 0, 64, 31
3, 122124, Note_on_c, 0, 66, 0
3, 122172, Note_on_c, 0, 64, 0
3, 122300, Note_on_c, 0, 60, 0
3, 122392, Note_on_c, 0, 60, 15
3, 122392, Note_on_c, 0, 66, 44
3, 122420, Note_on_c, 0, 64, 40
3, 122656, Note_on_c, 0, 45, 0
3, 122700, Note_on_c, 0, 33, 0
3, 122704, Note_on_c, 0, 66, 0
3, 122748, Note_on_c, 0, 64, 0
3, 122816, Note_on_c, 0, 60, 0
3, 122888, Note_on_c, 0, 59, 60
3, 122896, Note_on_c, 0, 66, 42
3, 122908, Note_on_c, 0, 64, 54
3, 123072, Note_on_c, 0, 66, 0
3, 123080, Note_on_c, 0, 64, 0
3, 123080, Note_on_c, 0, 59, 0
3, 123132, Note_on_c, 0, 58, 65
3, 123328, Note_on_c, 0, 58, 0
3, 123404, Note_on_c, 0, 59, 59
3, 123424, Note_on_c, 0, 66, 48
3, 123440, Note_on_c, 0, 64, 53
3, 123452, Note_on_c, 0, 32, 44
3, 123452, Note_on_c, 0, 44, 32
3, 123492, Control_c, 0, 64, 72
3, 123508, Control_c, 0, 64, 0
3, 123616, Control_c, 0, 64, 40
3, 123632, Control_c, 0, 64, 104
3, 123648, Control_c, 0, 64, 127
3, 123692, Note_on_c, 0, 66, 0
3, 123716, Note_on_c, 0, 64, 0
3, 123948, Note_on_c, 0, 66, 45
3, 123976, Note_on_c, 0, 64, 42
3, 124236, Note_on_c, 0, 66, 0
3, 124288, Note_on_c, 0, 64, 0
3, 124328, Note_on_c, 0, 44, 0
3, 124380, Note_on_c, 0, 32, 0
3, 124632, Note_on_c, 0, 66, 50
3, 124636, Note_on_c, 0, 63, 47
3, 124664, Note_on_c, 0, 31, 38
3, 124664, Note_on_c, 0, 43, 31
3, 124716, Control_c, 0, 64, 88
3, 124732, Control_c, 0, 64, 24
3, 124748, Control_c, 0, 64, 0
3, 124844, Control_c, 0, 64, 72
3, 124856, Control_c, 0, 64, 127
3, 124928, Note_on_c, 0, 66, 0
3, 124956, Note_on_c, 0, 63, 0
3, 125032, Note_on_c, 0, 59, 0
3, 125180, Note_on_c, 0, 66, 62
3, 125188, Note_on_c, 0, 63, 52
3, 125192, Note_on_c, 0, 59, 52
3, 125524, Note_on_c, 0, 59, 0
3, 125560, Note_on_c, 0, 63, 0
3, 125580, Note_on_c, 0, 66, 0
3, 125764, Note_on_c, 0, 64, 52
3, 125768, Note_on_c, 0, 59, 39
3, 125848, Control_c, 0, 64, 104
3, 125864, Control_c, 0, 64, 40
3, 125880, Control_c, 0, 64, 0
3, 125944, Control_c, 0, 64, 56
3, 125956, Control_c, 0, 64, 127
3, 125992, Note_on_c, 0, 31, 0
3, 126028, Note_on_c, 0, 43, 0
3, 126152, Note_on_c, 0, 59, 0
3, 126172, Note_on_c, 0, 64, 0
3, 126280, Note_on_c, 0, 47, 50
3, 126288, Note_on_c, 0, 64, 49
3, 126288, Note_on_c, 0, 59, 42
3, 126500, Note_on_c, 0, 47, 0
3, 126500, Note_on_c, 0, 49, 70
3, 126512, Note_on_c, 0, 61, 59
3, 126516, Note_on_c, 0, 64, 0
3, 126564, Note_on_c, 0, 59, 0
3, 126740, Note_on_c, 0, 61, 0
3, 126784, Note_on_c, 0, 49, 0
3, 126792, Note_on_c, 0, 62, 67
3, 126808, Note_on_c, 0, 50, 55
3, 126820, Note_on_c, 0, 43, 45
3, 126900, Control_c, 0, 64, 104
3, 126916, Control_c, 0, 64, 40
3, 126932, Control_c, 0, 64, 0
3, 127056, Control_c, 0, 64, 56
3, 127072, Control_c, 0, 64, 127
3, 127324, Note_on_c, 0, 59, 35
3, 127332, Note_on_c, 0, 64, 49
3, 127652, Note_on_c, 0, 64, 0
3, 127692, Note_on_c, 0, 59, 0
3, 127868, Note_on_c, 0, 64, 46
3, 127872, Note_on_c, 0, 59, 38
3, 128140, Note_on_c, 0, 59, 0
3, 128184, Note_on_c, 0, 64, 0
3, 128248, Note_on_c, 0, 62, 0
3, 128260, Note_on_c, 0, 43, 0
3, 128428, Note_on_c, 0, 57, 31
3, 128436, Note_on_c, 0, 64, 43
3, 128440, Note_on_c, 0, 62, 29
3, 128452, Note_on_c, 0, 45, 40
3, 128560, Control_c, 0, 64, 56
3, 128576, Control_c, 0, 64, 0
3, 128636, Control_c, 0, 64, 40
3, 128652, Control_c, 0, 64, 104
3, 128664, Control_c, 0, 64, 127
3, 128760, Note_on_c, 0, 62, 0
3, 128768, Note_on_c, 0, 64, 0
3, 128820, Note_on_c, 0, 57, 0
3, 128996, Note_on_c, 0, 45, 0
3, 129020, Note_on_c, 0, 55, 52
3, 129028, Note_on_c, 0, 47, 53
3, 129032, Note_on_c, 0, 64, 48
3, 129040, Note_on_c, 0, 62, 45
3, 129116, Control_c, 0, 64, 56
3, 129132, Control_c, 0, 64, 0
3, 129224, Control_c, 0, 64, 40
3, 129240, Control_c, 0, 64, 104
3, 129256, Control_c, 0, 64, 127
3, 129396, Note_on_c, 0, 64, 0
3, 129396, Note_on_c, 0, 55, 0
3, 129416, Note_on_c, 0, 62, 0
3, 129564, Note_on_c, 0, 47, 0
3, 129588, Note_on_c, 0, 64, 46
3, 129592, Note_on_c, 0, 62, 38
3, 129596, Note_on_c, 0, 57, 44
3, 129612, Note_on_c, 0, 45, 32
3, 129644, Control_c, 0, 64, 40
3, 129656, Control_c, 0, 64, 0
3, 129736, Control_c, 0, 64, 88
3, 129752, Control_c, 0, 64, 127
3, 129820, Note_on_c, 0, 50, 0
3, 129848, Note_on_c, 0, 45, 0
3, 129904, Note_on_c, 0, 57, 0
3, 129952, Note_on_c, 0, 64, 0
3, 129988, Note_on_c, 0, 62, 0
3, 130172, Note_on_c, 0, 64, 50
3, 130176, Note_on_c, 0, 59, 44
3, 130176, Note_on_c, 0, 62, 44
3, 130188, Note_on_c, 0, 43, 37
3, 130200, Note_on_c, 0, 31, 36
3, 130248, Control_c, 0, 64, 72
3, 130264, Control_c, 0, 64, 0
3, 130340, Control_c, 0, 64, 56
3, 130356, Control_c, 0, 64, 127
3, 130460, Note_on_c, 0, 59, 0
3, 130540, Note_on_c, 0, 64, 0
3, 130556, Note_on_c, 0, 62, 0
3, 130716, Note_on_c, 0, 58, 43
3, 130728, Note_on_c, 0, 64, 55
3, 130728, Note_on_c, 0, 62, 51
3, 130960, Note_on_c, 0, 58, 0
3, 130968, Note_on_c, 0, 57, 70
3, 130976, Note_on_c, 0, 64, 0
3, 130996, Note_on_c, 0, 62, 0
3, 131152, Note_on_c, 0, 57, 0
3, 131260, Note_on_c, 0, 58, 44
3, 131276, Note_on_c, 0, 62, 52
3, 131280, Note_on_c, 0, 64, 46
3, 131392, Control_c, 0, 64, 72
3, 131408, Control_c, 0, 64, 0
3, 131500, Control_c, 0, 64, 56
3, 131520, Control_c, 0, 64, 127
3, 131552, Note_on_c, 0, 64, 0
3, 131628, Note_on_c, 0, 62, 0
3, 131828, Note_on_c, 0, 64, 51
3, 131828, Note_on_c, 0, 62, 42
3, 131976, Note_on_c, 0, 43, 0
3, 131992, Note_on_c, 0, 31, 0
3, 132040, Note_on_c, 0, 64, 0
3, 132136, Note_on_c, 0, 62, 0
3, 132292, Note_on_c, 0, 62, 37
3, 132300, Note_on_c, 0, 64, 61
3, 132320, Note_on_c, 0, 30, 34
3, 132328, Note_on_c, 0, 42, 26
3, 132388, Control_c, 0, 64, 88
3, 132400, Control_c, 0, 64, 0
3, 132492, Control_c, 0, 64, 24
3, 132508, Control_c, 0, 64, 104
3, 132524, Control_c, 0, 64, 127
3, 132568, Note_on_c, 0, 64, 0
3, 132600, Note_on_c, 0, 62, 0
3, 132668, Note_on_c, 0, 58, 0
3, 132784, Note_on_c, 0, 64, 61
3, 132784, Note_on_c, 0, 61, 46
3, 132792, Note_on_c, 0, 57, 46
3, 133032, Note_on_c, 0, 61, 0
3, 133056, Note_on_c, 0, 57, 0
3, 133076, Note_on_c, 0, 56, 57
3, 133136, Note_on_c, 0, 64, 0
3, 133208, Note_on_c, 0, 30, 0
3, 133236, Note_on_c, 0, 56, 0
3, 133240, Note_on_c, 0, 42, 0
3, 133396, Note_on_c, 0, 64, 60
3, 133396, Note_on_c, 0, 61, 44
3, 133412, Note_on_c, 0, 57, 38
3, 133420, Note_on_c, 0, 41, 46
3, 133432, Note_on_c, 0, 29, 42
3, 133488, Control_c, 0, 64, 72
3, 133500, Control_c, 0, 64, 0
3, 133608, Control_c, 0, 64, 56
3, 133624, Control_c, 0, 64, 127
3, 133700, Note_on_c, 0, 64, 0
3, 133744, Note_on_c, 0, 61, 0
3, 133964, Note_on_c, 0, 64, 62
3, 133976, Note_on_c, 0, 61, 38
3, 134244, Note_on_c, 0, 64, 0
3, 134288, Note_on_c, 0, 57, 0
3, 134296, Note_on_c, 0, 61, 0
3, 134468, Note_on_c, 0, 62, 55
3, 134476, Note_on_c, 0, 57, 38
3, 134556, Control_c, 0, 64, 72
3, 134572, Control_c, 0, 64, 0
3, 134664, Control_c, 0, 64, 104
3, 134680, Control_c, 0, 64, 127
3, 134692, Note_on_c, 0, 29, 0
3, 134736, Note_on_c, 0, 41, 0
3, 134824, Note_on_c, 0, 57, 0
3, 134860, Note_on_c, 0, 62, 0
3, 134980, Note_on_c, 0, 62, 57
3, 134988, Note_on_c, 0, 45, 65
3, 135000, Note_on_c, 0, 57, 48
3, 135204, Note_on_c, 0, 45, 0
3, 135232, Note_on_c, 0, 59, 65
3, 135236, Note_on_c, 0, 47, 65
3, 135256, Note_on_c, 0, 62, 0
3, 135276, Note_on_c, 0, 57, 0
3, 135488, Note_on_c, 0, 47, 0
3, 135504, Note_on_c, 0, 59, 0
3, 135508, Note_on_c, 0, 60, 77
3, 135536, Note_on_c, 0, 48, 55
3, 135544, Note_on_c, 0, 41, 48
3, 135640, Control_c, 0, 64, 40
3, 135656, Control_c, 0, 64, 0
3, 135764, Control_c, 0, 64, 72
3, 135780, Control_c, 0, 64, 127
3, 136000, Note_on_c, 0, 62, 48
3, 136004, Note_on_c, 0, 57, 36
3, 136384, Note_on_c, 0, 57, 0
3, 136392, Note_on_c, 0, 62, 0
3, 136556, Note_on_c, 0, 62, 48
3, 136556, Note_on_c, 0, 57, 32
3, 136880, Note_on_c, 0, 57, 0
3, 136892, Note_on_c, 0, 62, 0
3, 137072, Note_on_c, 0, 62, 51
3, 137080, Note_on_c, 0, 57, 43
3, 137352, Note_on_c, 0, 41, 0
3, 137372, Note_on_c, 0, 60, 0
3, 137384, Note_on_c, 0, 62, 0
3, 137492, Note_on_c, 0, 57, 0
3, 137584, Note_on_c, 0, 48, 0
3, 137676, Note_on_c, 0, 56, 51
3, 137684, Note_on_c, 0, 62, 59
3, 137688, Note_on_c, 0, 59, 45
3, 137704, Note_on_c, 0, 41, 40
3, 137776, Control_c, 0, 64, 56
3, 137792, Control_c, 0, 64, 0
3, 137888, Control_c, 0, 64, 72
3, 137900, Control_c, 0, 64, 127
3, 138060, Note_on_c, 0, 62, 0
3, 138072, Note_on_c, 0, 56, 0
3, 138072, Note_on_c, 0, 59, 0
3, 138220, Note_on_c, 0, 56, 53
3, 138232, Note_on_c, 0, 59, 47
3, 138236, Note_on_c, 0, 62, 51
3, 138644, Note_on_c, 0, 56, 0
3, 138648, Note_on_c, 0, 62, 0
3, 138700, Note_on_c, 0, 59, 0
3, 138804, Note_on_c, 0, 41, 0
3, 138816, Note_on_c, 0, 55, 52
3, 138824, Note_on_c, 0, 40, 47
3, 138840, Note_on_c, 0, 59, 27
3, 138844, Note_on_c, 0, 62, 39
3, 138952, Control_c, 0, 64, 56
3, 138972, Control_c, 0, 64, 0
3, 139080, Control_c, 0, 64, 88
3, 139096, Control_c, 0, 64, 127
3, 139152, Note_on_c, 0, 55, 0
3, 139160, Note_on_c, 0, 62, 0
3, 139184, Note_on_c, 0, 59, 0
3, 139368, Note_on_c, 0, 62, 39
3, 139368, Note_on_c, 0, 55, 36
3, 139376, Note_on_c, 0, 59, 24
3, 139544, Note_on_c, 0, 40, 0
3, 139596, Note_on_c, 0, 59, 0
3, 139684, Note_on_c, 0, 55, 0
3, 139748, Note_on_c, 0, 62, 0
3, 139956, Note_on_c, 0, 61, 48
3, 139968, Note_on_c, 0, 58, 40
3, 139984, Note_on_c, 0, 55, 42
3, 139992, Note_on_c, 0, 52, 46
3, 140068, Control_c, 0, 64, 88
3, 140084, Control_c, 0, 64, 24
3, 140100, Control_c, 0, 64, 0
3, 140192, Control_c, 0, 64, 88
3, 140208, Control_c, 0, 64, 127
3, 140468, Note_on_c, 0, 61, 0
3, 140508, Note_on_c, 0, 52, 0
3, 140508, Note_on_c, 0, 62, 49
3, 140536, Note_on_c, 0, 50, 39
3, 140612, Control_c, 0, 64, 72
3, 140624, Control_c, 0, 64, 0
3, 140720, Control_c, 0, 64, 88
3, 140736, Control_c, 0, 64, 127
3, 141000, Note_on_c, 0, 50, 0
3, 141056, Note_on_c, 0, 64, 42
3, 141068, Note_on_c, 0, 49, 28
3, 141152, Control_c, 0, 64, 72
3, 141168, Control_c, 0, 64, 0
3, 141280, Control_c, 0, 64, 72
3, 141296, Control_c, 0, 64, 127
3, 141324, Note_on_c, 0, 55, 0
3, 141332, Note_on_c, 0, 58, 0
3, 141332, Note_on_c, 0, 62, 0
3, 141356, Note_on_c, 0, 64, 0
3, 141388, Note_on_c, 0, 49, 0
3, 141664, Note_on_c, 0, 66, 60
3, 141676, Note_on_c, 0, 57, 44
3, 141676, Note_on_c, 0, 64, 55
3, 141692, Note_on_c, 0, 48, 47
3, 141712, Control_c, 0, 64, 88
3, 141728, Control_c, 0, 64, 0
3, 141836, Control_c, 0, 64, 56
3, 141852, Control_c, 0, 64, 127
3, 141984, Note_on_c, 0, 67, 80
3, 142016, Note_on_c, 0, 48, 0
3, 142060, Note_on_c, 0, 66, 0
3, 142064, Note_on_c, 0, 57, 0
3, 142064, Note_on_c, 0, 64, 0
3, 142104, Note_on_c, 0, 67, 0
3, 142340, Note_on_c, 0, 69, 68
3, 142356, Note_on_c, 0, 63, 38
3, 142356, Note_on_c, 0, 57, 39
3, 142380, Note_on_c, 0, 47, 45
3, 142436, Control_c, 0, 64, 56
3, 142456, Control_c, 0, 64, 0
3, 142548, Control_c, 0, 64, 56
3, 142564, Control_c, 0, 64, 127
3, 142624, Note_on_c, 0, 57, 0
3, 142720, Note_on_c, 0, 63, 0
3, 142940, Note_on_c, 0, 60, 41
3, 142952, Note_on_c, 0, 67, 35
3, 142980, Control_c, 0, 64, 88
3, 142996, Note_on_c, 0, 52, 34
3, 142996, Control_c, 0, 64, 0
3, 143004, Note_on_c, 0, 55, 30
3, 143048, Note_on_c, 0, 47, 0
3, 143056, Control_c, 0, 64, 88
3, 143072, Control_c, 0, 64, 127
3, 143228, Note_on_c, 0, 69, 0
3, 143316, Note_on_c, 0, 70, 66
3, 143332, Note_on_c, 0, 52, 0
3, 143336, Note_on_c, 0, 55, 0
3, 143348, Note_on_c, 0, 61, 38
3, 143360, Note_on_c, 0, 67, 0
3, 143364, Note_on_c, 0, 60, 0
3, 143420, Note_on_c, 0, 70, 0
3, 143612, Note_on_c, 0, 61, 0
3, 143684, Note_on_c, 0, 71, 57
3, 143688, Note_on_c, 0, 62, 48
3, 143700, Note_on_c, 0, 68, 42
3, 143704, Note_on_c, 0, 56, 32
3, 143720, Note_on_c, 0, 53, 39
3, 143740, Control_c, 0, 64, 104
3, 143756, Control_c, 0, 64, 24
3, 143772, Control_c, 0, 64, 0
3, 143852, Control_c, 0, 64, 56
3, 143868, Control_c, 0, 64, 127
3, 144016, Note_on_c, 0, 73, 69
3, 144040, Note_on_c, 0, 68, 0
3, 144060, Note_on_c, 0, 71, 0
3, 144080, Note_on_c, 0, 62, 0
3, 144196, Note_on_c, 0, 53, 0
3, 144344, Note_on_c, 0, 73, 0
3, 144364, Note_on_c, 0, 56, 0
3, 144404, Note_on_c, 0, 70, 53
3, 144424, Note_on_c, 0, 66, 40
3, 144436, Note_on_c, 0, 64, 40
3, 144448, Note_on_c, 0, 54, 29
3, 144564, Control_c, 0, 64, 72
3, 144580, Control_c, 0, 64, 0
3, 144656, Control_c, 0, 64, 40
3, 144672, Control_c, 0, 64, 104
3, 144688, Control_c, 0, 64, 127
3, 144720, Note_on_c, 0, 54, 0
3, 144776, Note_on_c, 0, 66, 0
3, 144788, Note_on_c, 0, 64, 0
3, 144788, Note_on_c, 0, 70, 0
3, 145056, Note_on_c, 0, 71, 47
3, 145060, Note_on_c, 0, 62, 39
3, 145060, Note_on_c, 0, 66, 37
3, 145060, Note_on_c, 0, 59, 38
3, 145104, Control_c, 0, 64, 104
3, 145120, Control_c, 0, 64, 40
3, 145256, Note_on_c, 0, 59, 0
3, 145472, Note_on_c, 0, 62, 0
3, 145476, Note_on_c, 0, 66, 0
3, 145668, Note_on_c, 0, 62, 41
3, 145668, Note_on_c, 0, 66, 43
3, 145676, Note_on_c, 0, 59, 24
3, 145920, Note_on_c, 0, 71, 0
3, 146044, Note_on_c, 0, 66, 0
3, 146056, Note_on_c, 0, 62, 0
3, 146172, Control_c, 0, 64, 24
3, 146188, Control_c, 0, 64, 40
3, 146220, Control_c, 0, 64, 56
3, 146244, Note_on_c, 0, 66, 38
3, 146248, Note_on_c, 0, 62, 40
3, 146252, Control_c, 0, 64, 72
3, 146268, Control_c, 0, 64, 88
3, 146300, Control_c, 0, 64, 104
3, 146316, Control_c, 0, 64, 127
3, 146552, Note_on_c, 0, 62, 0
3, 146660, Note_on_c, 0, 59, 0
3, 146752, Note_on_c, 0, 57, 66
3, 146752, Control_c, 0, 7, 100
3, 146968, Note_on_c, 0, 57, 0
3, 146996, Note_on_c, 0, 59, 81
3, 147024, Note_on_c, 0, 66, 0
3, 147260, Note_on_c, 0, 59, 0
3, 147264, Note_on_c, 0, 60, 82
3, 147384, Control_c, 0, 64, 104
3, 147400, Control_c, 0, 64, 56
3, 147416, Control_c, 0, 64, 0
3, 147596, Control_c, 0, 64, 24
3, 147612, Control_c, 0, 64, 40
3, 147628, Control_c, 0, 64, 56
3, 147756, Control_c, 0, 64, 0
3, 147800, Note_on_c, 0, 63, 34
3, 147804, Note_on_c, 0, 66, 34
3, 147816, Note_on_c, 0, 69, 45
3, 147848, Control_c, 0, 64, 40
3, 147864, Control_c, 0, 64, 88
3, 147880, Control_c, 0, 64, 127
3, 148000, Note_on_c, 0, 66, 0
3, 148004, Note_on_c, 0, 63, 0
3, 148028, Note_on_c, 0, 69, 0
3, 148384, Note_on_c, 0, 63, 23
3, 148396, Note_on_c, 0, 66, 25
3, 148400, Note_on_c, 0, 69, 35
3, 148616, Note_on_c, 0, 63, 0
3, 148628, Note_on_c, 0, 66, 0
3, 148636, Note_on_c, 0, 69, 0
3, 148704, Note_on_c, 0, 60, 0
3, 148844, Note_on_c, 0, 69, 71
3, 148852, Note_on_c, 0, 63, 54
3, 148860, Note_on_c, 0, 66, 53
3, 149040, Note_on_c, 0, 69, 0
3, 149064, Note_on_c, 0, 66, 0
3, 149068, Note_on_c, 0, 63, 0
3, 149080, Note_on_c, 0, 71, 84
3, 149220, Note_on_c, 0, 71, 0
3, 149376, Control_c, 0, 64, 56
3, 149392, Control_c, 0, 64, 0
3, 149416, Note_on_c, 0, 72, 96
3, 149428, Note_on_c, 0, 63, 65
3, 149428, Note_on_c, 0, 66, 58
3, 149432, Note_on_c, 0, 69, 72
3, 149444, Note_on_c, 0, 35, 64
3, 149524, Control_c, 0, 64, 56
3, 149540, Note_on_c, 0, 35, 0
3, 149540, Control_c, 0, 64, 127
3, 149628, Note_on_c, 0, 66, 0
3, 149676, Note_on_c, 0, 63, 0
3, 149680, Note_on_c, 0, 69, 0
3, 149912, Note_on_c, 0, 69, 66
3, 149924, Note_on_c, 0, 63, 57
3, 149928, Note_on_c, 0, 66, 51
3, 149936, Note_on_c, 0, 54, 45
3, 149936, Note_on_c, 0, 47, 48
3, 150028, Note_on_c, 0, 54, 0
3, 150052, Note_on_c, 0, 47, 0
3, 150196, Note_on_c, 0, 66, 0
3, 150204, Note_on_c, 0, 63, 0
3, 150236, Note_on_c, 0, 69, 0
3, 150444, Note_on_c, 0, 69, 63
3, 150452, Note_on_c, 0, 63, 45
3, 150452, Note_on_c, 0, 66, 40
3, 150504, Note_on_c, 0, 72, 0
3, 150576, Note_on_c, 0, 66, 0
3, 150604, Note_on_c, 0, 63, 0
3, 150656, Note_on_c, 0, 69, 0
3, 150968, Note_on_c, 0, 72, 82
3, 150984, Note_on_c, 0, 63, 44
3, 150988, Note_on_c, 0, 69, 64
3, 150992, Note_on_c, 0, 60, 59
3, 151140, Note_on_c, 0, 72, 0
3, 151172, Note_on_c, 0, 60, 0
3, 151188, Note_on_c, 0, 69, 0
3, 151216, Note_on_c, 0, 71, 76
3, 151220, Note_on_c, 0, 59, 46
3, 151264, Note_on_c, 0, 63, 0
3, 151308, Note_on_c, 0, 59, 0
3, 151356, Note_on_c, 0, 71, 0
3, 151480, Note_on_c, 0, 72, 81
3, 151496, Note_on_c, 0, 69, 54
3, 151500, Note_on_c, 0, 63, 38
3, 151512, Note_on_c, 0, 60, 51
3, 151572, Control_c, 0, 64, 104
3, 151588, Control_c, 0, 64, 0
3, 151696, Control_c, 0, 64, 56
3, 151712, Control_c, 0, 64, 127
3, 151804, Note_on_c, 0, 63, 0
3, 151804, Note_on_c, 0, 69, 0
3, 151812, Note_on_c, 0, 72, 0
3, 151844, Note_on_c, 0, 60, 0
3, 151964, Note_on_c, 0, 67, 59
3, 151964, Note_on_c, 0, 71, 73
3, 151972, Note_on_c, 0, 59, 55
3, 151980, Note_on_c, 0, 63, 39
3, 152044, Note_on_c, 0, 67, 0
3, 152168, Note_on_c, 0, 71, 0
3, 152180, Note_on_c, 0, 59, 0
3, 152196, Note_on_c, 0, 69, 70
3, 152200, Note_on_c, 0, 66, 59
3, 152204, Note_on_c, 0, 57, 49
3, 152252, Note_on_c, 0, 63, 0
3, 152296, Note_on_c, 0, 66, 0
3, 152356, Note_on_c, 0, 69, 0
3, 152404, Note_on_c, 0, 57, 0
3, 152448, Note_on_c, 0, 71, 69
3, 152452, Note_on_c, 0, 67, 60
3, 152452, Note_on_c, 0, 63, 49
3, 152460, Note_on_c, 0, 59, 53
3, 152500, Control_c, 0, 64, 56
3, 152516, Control_c, 0, 64, 0
3, 152624, Note_on_c, 0, 67, 0
3, 152628, Control_c, 0, 64, 56
3, 152644, Control_c, 0, 64, 127
3, 152756, Note_on_c, 0, 63, 0
3, 152788, Note_on_c, 0, 59, 0
3, 152836, Note_on_c, 0, 71, 0
3, 152916, Control_c, 0, 64, 88
3, 152928, Note_on_c, 0, 69, 68
3, 152932, Note_on_c, 0, 63, 51
3, 152932, Control_c, 0, 64, 56
3, 152936, Note_on_c, 0, 66, 52
3, 152940, Note_on_c, 0, 57, 46
3, 152944, Note_on_c, 0, 60, 47
3, 152948, Control_c, 0, 64, 40
3, 152964, Control_c, 0, 64, 56
3, 152976, Control_c, 0, 64, 88
3, 152992, Control_c, 0, 64, 127
3, 153052, Note_on_c, 0, 66, 0
3, 153108, Note_on_c, 0, 69, 0
3, 153144, Note_on_c, 0, 60, 0
3, 153148, Note_on_c, 0, 71, 72
3, 153152, Note_on_c, 0, 57, 0
3, 153156, Note_on_c, 0, 67, 59
3, 153160, Note_on_c, 0, 59, 63
3, 153224, Note_on_c, 0, 67, 0
3, 153280, Note_on_c, 0, 63, 0
3, 153316, Note_on_c, 0, 71, 0
3, 153364, Note_on_c, 0, 59, 0
3, 153544, Note_on_c, 0, 72, 86
3, 153556, Control_c, 0, 64, 88
3, 153560, Note_on_c, 0, 60, 68
3, 153560, Note_on_c, 0, 63, 48
3, 153564, Note_on_c, 0, 69, 62
3, 153564, Note_on_c, 0, 66, 46
3, 153572, Control_c, 0, 64, 0
3, 153684, Control_c, 0, 64, 72
3, 153692, Note_on_c, 0, 60, 0
3, 153700, Control_c, 0, 64, 127
3, 153760, Note_on_c, 0, 66, 0
3, 153804, Note_on_c, 0, 69, 0
3, 153840, Note_on_c, 0, 63, 0
3, 154056, Note_on_c, 0, 35, 64
3, 154060, Note_on_c, 0, 69, 54
3, 154060, Note_on_c, 0, 63, 46
3, 154068, Note_on_c, 0, 66, 46
3, 154132, Note_on_c, 0, 35, 0
3, 154308, Note_on_c, 0, 66, 0
3, 154316, Note_on_c, 0, 63, 0
3, 154376, Note_on_c, 0, 69, 0
3, 154576, Note_on_c, 0, 69, 49
3, 154584, Note_on_c, 0, 63, 35
3, 154588, Note_on_c, 0, 54, 45
3, 154596, Note_on_c, 0, 66, 35
3, 154624, Note_on_c, 0, 47, 40
3, 154708, Control_c, 0, 64, 104
3, 154724, Control_c, 0, 64, 40
3, 154744, Control_c, 0, 64, 0
3, 154836, Control_c, 0, 64, 88
3, 154852, Control_c, 0, 64, 127
3, 154968, Note_on_c, 0, 66, 0
3, 154976, Note_on_c, 0, 63, 0
3, 154980, Note_on_c, 0, 69, 0
3, 155208, Note_on_c, 0, 72, 0
3, 155244, Note_on_c, 0, 69, 70
3, 155252, Note_on_c, 0, 63, 46
3, 155252, Note_on_c, 0, 66, 50
3, 155348, Note_on_c, 0, 66, 0
3, 155432, Note_on_c, 0, 63, 0
3, 155444, Note_on_c, 0, 69, 0
3, 155516, Note_on_c, 0, 71, 80
3, 155520, Note_on_c, 0, 67, 68
3, 155536, Note_on_c, 0, 69, 36
3, 155572, Note_on_c, 0, 47, 0
3, 155576, Note_on_c, 0, 69, 0
3, 155580, Note_on_c, 0, 54, 0
3, 155584, Note_on_c, 0, 67, 0
3, 155624, Note_on_c, 0, 71, 0
3, 155860, Note_on_c, 0, 72, 85
3, 155876, Note_on_c, 0, 60, 55
3, 155880, Note_on_c, 0, 64, 62
3, 155884, Note_on_c, 0, 69, 50
3, 155900, Note_on_c, 0, 52, 44
3, 155904, Note_on_c, 0, 45, 47
3, 155944, Control_c, 0, 64, 56
3, 155960, Control_c, 0, 64, 0
3, 156100, Control_c, 0, 64, 88
3, 156116, Control_c, 0, 64, 127
3, 156192, Note_on_c, 0, 64, 0
3, 156244, Note_on_c, 0, 60, 0
3, 156436, Note_on_c, 0, 60, 54
3, 156444, Note_on_c, 0, 64, 55
3, 156692, Note_on_c, 0, 64, 0
3, 156708, Note_on_c, 0, 60, 0
3, 156956, Note_on_c, 0, 64, 50
3, 156960, Note_on_c, 0, 60, 46
3, 157004, Note_on_c, 0, 69, 0
3, 157080, Note_on_c, 0, 72, 0
3, 157172, Note_on_c, 0, 60, 0
3, 157244, Note_on_c, 0, 64, 0
3, 157480, Note_on_c, 0, 71, 77
3, 157492, Note_on_c, 0, 67, 58
3, 157500, Note_on_c, 0, 60, 44
3, 157512, Note_on_c, 0, 64, 37
3, 157724, Note_on_c, 0, 71, 0
3, 157728, Note_on_c, 0, 52, 0
3, 157764, Note_on_c, 0, 45, 0
3, 157768, Note_on_c, 0, 67, 0
3, 157776, Note_on_c, 0, 69, 84
3, 157784, Note_on_c, 0, 64, 0
3, 157844, Note_on_c, 0, 60, 0
3, 157908, Note_on_c, 0, 69, 0
3, 158120, Note_on_c, 0, 71, 89
3, 158120, Note_on_c, 0, 66, 48
3, 158124, Note_on_c, 0, 60, 51
3, 158132, Note_on_c, 0, 62, 56
3, 158160, Note_on_c, 0, 38, 36
3, 158168, Note_on_c, 0, 50, 30
3, 158228, Control_c, 0, 64, 88
3, 158244, Control_c, 0, 64, 0
3, 158368, Control_c, 0, 64, 56
3, 158388, Control_c, 0, 64, 127
3, 158432, Note_on_c, 0, 62, 0
3, 158464, Note_on_c, 0, 60, 0
3, 158476, Note_on_c, 0, 66, 0
3, 158628, Note_on_c, 0, 66, 46
3, 158644, Note_on_c, 0, 60, 56
3, 158648, Note_on_c, 0, 62, 58
3, 158912, Note_on_c, 0, 62, 0
3, 158924, Note_on_c, 0, 60, 0
3, 158952, Note_on_c, 0, 66, 0
3, 159128, Note_on_c, 0, 66, 30
3, 159140, Note_on_c, 0, 60, 38
3, 159148, Note_on_c, 0, 62, 44
3, 159436, Note_on_c, 0, 71, 0
3, 159460, Note_on_c, 0, 60, 0
3, 159480, Note_on_c, 0, 62, 0
3, 159496, Note_on_c, 0, 66, 0
3, 159660, Note_on_c, 0, 69, 77
3, 159676, Note_on_c, 0, 62, 60
3, 159680, Note_on_c, 0, 60, 47
3, 159812, Note_on_c, 0, 38, 0
3, 159904, Note_on_c, 0, 69, 0
3, 159940, Note_on_c, 0, 67, 75
3, 159948, Note_on_c, 0, 50, 0
3, 159968, Note_on_c, 0, 62, 0
3, 159992, Note_on_c, 0, 60, 0
3, 160124, Note_on_c, 0, 67, 0
3, 160308, Note_on_c, 0, 69, 85
3, 160324, Note_on_c, 0, 62, 58
3, 160336, Note_on_c, 0, 59, 43
3, 160356, Note_on_c, 0, 54, 35
3, 160356, Note_on_c, 0, 47, 44
3, 160400, Control_c, 0, 64, 104
3, 160416, Control_c, 0, 64, 0
3, 160580, Control_c, 0, 64, 40
3, 160596, Control_c, 0, 64, 88
3, 160612, Control_c, 0, 64, 127
3, 160632, Note_on_c, 0, 62, 0
3, 160648, Note_on_c, 0, 59, 0
3, 160888, Note_on_c, 0, 62, 54
3, 160896, Note_on_c, 0, 59, 46
3, 161176, Note_on_c, 0, 62, 0
3, 161204, Note_on_c, 0, 54, 0
3, 161248, Note_on_c, 0, 59, 0
3, 161460, Note_on_c, 0, 63, 40
3, 161472, Note_on_c, 0, 55, 50
3, 161480, Note_on_c, 0, 59, 24
3, 161556, Control_c, 0, 64, 104
3, 161572, Control_c, 0, 64, 24
3, 161584, Control_c, 0, 64, 0
3, 161664, Control_c, 0, 64, 40
3, 161680, Control_c, 0, 64, 127
3, 161836, Note_on_c, 0, 59, 0
3, 161848, Note_on_c, 0, 63, 0
3, 161864, Note_on_c, 0, 69, 0
3, 161956, Note_on_c, 0, 55, 0
3, 161960, Note_on_c, 0, 67, 66
3, 161964, Note_on_c, 0, 63, 23
3, 161976, Note_on_c, 0, 59, 39
3, 161980, Note_on_c, 0, 57, 53
3, 162032, Control_c, 0, 64, 72
3, 162052, Control_c, 0, 64, 0
3, 162116, Control_c, 0, 64, 56
3, 162132, Control_c, 0, 64, 127
3, 162172, Note_on_c, 0, 57, 0
3, 162188, Note_on_c, 0, 47, 0
3, 162216, Note_on_c, 0, 67, 0
3, 162232, Note_on_c, 0, 63, 0
3, 162260, Note_on_c, 0, 66, 75
3, 162320, Note_on_c, 0, 59, 0
3, 162448, Note_on_c, 0, 66, 0
3, 162524, Note_on_c, 0, 40, 58
3, 162692, Note_on_c, 0, 55, 60
3, 162696, Note_on_c, 0, 67, 68
3, 162712, Note_on_c, 0, 64, 55
3, 162712, Note_on_c, 0, 59, 48
3, 162724, Control_c, 0, 64, 104
3, 162740, Control_c, 0, 64, 40
3, 162756, Control_c, 0, 64, 0
3, 162964, Control_c, 0, 64, 127
3, 163016, Note_on_c, 0, 64, 0
3, 163032, Note_on_c, 0, 59, 0
3, 163276, Note_on_c, 0, 59, 50
3, 163284, Note_on_c, 0, 64, 51
3, 163468, Note_on_c, 0, 64, 0
3, 163484, Note_on_c, 0, 59, 0
3, 163588, Note_on_c, 0, 40, 0
3, 163600, Note_on_c, 0, 55, 0
3, 163768, Note_on_c, 0, 59, 40
3, 163784, Note_on_c, 0, 64, 36
3, 163840, Note_on_c, 0, 59, 0
3, 163876, Note_on_c, 0, 64, 0
3, 163912, Note_on_c, 0, 67, 0
3, 164268, Note_on_c, 0, 76, 84
3, 164284, Note_on_c, 0, 64, 51
3, 164296, Note_on_c, 0, 71, 54
3, 164300, Note_on_c, 0, 67, 39
3, 164496, Note_on_c, 0, 71, 0
3, 164508, Note_on_c, 0, 76, 0
3, 164524, Note_on_c, 0, 64, 0
3, 164528, Note_on_c, 0, 74, 83
3, 164540, Note_on_c, 0, 62, 60
3, 164572, Note_on_c, 0, 67, 0
3, 164720, Note_on_c, 0, 62, 0
3, 164736, Note_on_c, 0, 74, 0
3, 164816, Note_on_c, 0, 76, 80
3, 164836, Note_on_c, 0, 71, 51
3, 164840, Note_on_c, 0, 67, 46
3, 164852, Note_on_c, 0, 64, 47
3, 164932, Control_c, 0, 64, 88
3, 164948, Control_c, 0, 64, 0
3, 165044, Control_c, 0, 64, 40
3, 165060, Control_c, 0, 64, 127
3, 165136, Note_on_c, 0, 71, 0
3, 165156, Note_on_c, 0, 67, 0
3, 165176, Note_on_c, 0, 64, 0
3, 165196, Note_on_c, 0, 76, 0
3, 165368, Note_on_c, 0, 74, 79
3, 165368, Note_on_c, 0, 67, 50
3, 165368, Note_on_c, 0, 71, 62
3, 165368, Note_on_c, 0, 62, 54
3, 165536, Note_on_c, 0, 71, 0
3, 165568, Note_on_c, 0, 62, 0
3, 165572, Note_on_c, 0, 74, 0
3, 165616, Note_on_c, 0, 67, 0
3, 165620, Note_on_c, 0, 73, 77
3, 165628, Note_on_c, 0, 61, 56
3, 165836, Note_on_c, 0, 73, 0
3, 165852, Note_on_c, 0, 61, 0
3, 165884, Note_on_c, 0, 74, 77
3, 165892, Note_on_c, 0, 62, 53
3, 165896, Note_on_c, 0, 71, 58
3, 165908, Note_on_c, 0, 67, 47
3, 165976, Control_c, 0, 64, 72
3, 165988, Control_c, 0, 64, 0
3, 166052, Control_c, 0, 64, 40
3, 166068, Control_c, 0, 64, 104
3, 166084, Control_c, 0, 64, 127
3, 166108, Note_on_c, 0, 71, 0
3, 166184, Note_on_c, 0, 67, 0
3, 166328, Note_on_c, 0, 62, 0
3, 166404, Note_on_c, 0, 74, 0
3, 166420, Note_on_c, 0, 70, 70
3, 166432, Note_on_c, 0, 58, 52
3, 166440, Note_on_c, 0, 64, 55
3, 166544, Note_on_c, 0, 64, 0
3, 166572, Note_on_c, 0, 58, 0
3, 166576, Note_on_c, 0, 70, 0
3, 166636, Note_on_c, 0, 59, 60
3, 166636, Note_on_c, 0, 71, 79
3, 166676, Note_on_c, 0, 59, 0
3, 166740, Note_on_c, 0, 71, 0
3, 166936, Note_on_c, 0, 73, 80
3, 166936, Note_on_c, 0, 61, 60
3, 166936, Note_on_c, 0, 70, 64
3, 166936, Note_on_c, 0, 52, 16
3, 166936, Note_on_c, 0, 58, 31
3, 166936, Note_on_c, 0, 67, 58
3, 167028, Control_c, 0, 64, 104
3, 167044, Control_c, 0, 64, 0
3, 167088, Note_on_c, 0, 52, 0
3, 167092, Note_on_c, 0, 58, 0
3, 167160, Control_c, 0, 64, 127
3, 167180, Note_on_c, 0, 67, 0
3, 167264, Note_on_c, 0, 70, 0
3, 167276, Note_on_c, 0, 61, 0
3, 167452, Note_on_c, 0, 70, 59
3, 167460, Note_on_c, 0, 61, 43
3, 167472, Note_on_c, 0, 67, 53
3, 167636, Note_on_c, 0, 67, 0
3, 167636, Note_on_c, 0, 70, 0
3, 167672, Note_on_c, 0, 61, 0
3, 167928, Note_on_c, 0, 70, 45
3, 167944, Note_on_c, 0, 61, 37
3, 167956, Note_on_c, 0, 67, 44
3, 167956, Note_on_c, 0, 40, 40
3, 168096, Note_on_c, 0, 40, 0
3, 168104, Note_on_c, 0, 61, 0
3, 168104, Note_on_c, 0, 67, 0
3, 168148, Note_on_c, 0, 70, 0
3, 168176, Note_on_c, 0, 73, 0
3, 168500, Note_on_c, 0, 76, 84
3, 168516, Note_on_c, 0, 64, 57
3, 168516, Note_on_c, 0, 67, 53
3, 168528, Note_on_c, 0, 71, 53
3, 168532, Control_c, 0, 64, 72
3, 168548, Control_c, 0, 64, 24
3, 168564, Control_c, 0, 64, 0
3, 168580, Control_c, 0, 64, 40
3, 168600, Control_c, 0, 64, 88
3, 168616, Control_c, 0, 64, 127
3, 168692, Note_on_c, 0, 71, 0
3, 168692, Note_on_c, 0, 76, 0
3, 168732, Note_on_c, 0, 64, 0
3, 168736, Note_on_c, 0, 74, 83
3, 168748, Note_on_c, 0, 62, 62
3, 168792, Note_on_c, 0, 67, 0
3, 168836, Note_on_c, 0, 62, 0
3, 168916, Note_on_c, 0, 74, 0
3, 169004, Note_on_c, 0, 76, 82
3, 169020, Note_on_c, 0, 71, 62
3, 169024, Note_on_c, 0, 67, 48
3, 169032, Note_on_c, 0, 64, 58
3, 169092, Control_c, 0, 64, 56
3, 169108, Control_c, 0, 64, 0
3, 169224, Control_c, 0, 64, 56
3, 169240, Control_c, 0, 64, 127
3, 169332, Note_on_c, 0, 71, 0
3, 169348, Note_on_c, 0, 67, 0
3, 169360, Note_on_c, 0, 64, 0
3, 169376, Note_on_c, 0, 76, 0
3, 169480, Note_on_c, 0, 74, 80
3, 169484, Note_on_c, 0, 62, 58
3, 169492, Note_on_c, 0, 71, 64
3, 169500, Note_on_c, 0, 67, 46
3, 169656, Note_on_c, 0, 62, 0
3, 169660, Note_on_c, 0, 74, 0
3, 169664, Note_on_c, 0, 71, 0
3, 169692, Note_on_c, 0, 73, 75
3, 169708, Note_on_c, 0, 61, 48
3, 169740, Note_on_c, 0, 67, 0
3, 169884, Note_on_c, 0, 73, 0
3, 169908, Note_on_c, 0, 61, 0
3, 169940, Note_on_c, 0, 74, 76
3, 169948, Note_on_c, 0, 62, 55
3, 169952, Note_on_c, 0, 71, 65
3, 169960, Control_c, 0, 64, 104
3, 169964, Note_on_c, 0, 67, 52
3, 169976, Control_c, 0, 64, 0
3, 170072, Note_on_c, 0, 71, 0
3, 170072, Control_c, 0, 64, 104
3, 170088, Control_c, 0, 64, 127
3, 170124, Note_on_c, 0, 67, 0
3, 170224, Note_on_c, 0, 62, 0
3, 170300, Note_on_c, 0, 74, 0
3, 170364, Note_on_c, 0, 70, 72
3, 170380, Note_on_c, 0, 58, 49
3, 170384, Note_on_c, 0, 64, 55
3, 170516, Note_on_c, 0, 58, 0
3, 170520, Note_on_c, 0, 64, 0
3, 170536, Note_on_c, 0, 70, 0
3, 170584, Note_on_c, 0, 59, 61
3, 170584, Note_on_c, 0, 71, 81
3, 170652, Note_on_c, 0, 59, 0
3, 170732, Note_on_c, 0, 71, 0
3, 170856, Note_on_c, 0, 73, 79
3, 170864, Note_on_c, 0, 70, 64
3, 170864, Note_on_c, 0, 61, 60
3, 170884, Note_on_c, 0, 67, 56
3, 170888, Note_on_c, 0, 58, 40
3, 170904, Note_on_c, 0, 52, 54
3, 170904, Control_c, 0, 64, 40
3, 170920, Control_c, 0, 64, 0
3, 171048, Control_c, 0, 64, 104
3, 171064, Control_c, 0, 64, 127
3, 171160, Note_on_c, 0, 67, 0
3, 171180, Note_on_c, 0, 61, 0
3, 171180, Note_on_c, 0, 70, 0
3, 171212, Note_on_c, 0, 58, 0
3, 171224, Note_on_c, 0, 52, 0
3, 171360, Note_on_c, 0, 70, 59
3, 171364, Note_on_c, 0, 61, 44
3, 171376, Note_on_c, 0, 67, 53
3, 171596, Note_on_c, 0, 70, 0
3, 171608, Note_on_c, 0, 67, 0
3, 171628, Note_on_c, 0, 61, 0
3, 171852, Note_on_c, 0, 70, 51
3, 171852, Note_on_c, 0, 61, 40
3, 171868, Note_on_c, 0, 40, 51
3, 171876, Note_on_c, 0, 67, 44
3, 171996, Note_on_c, 0, 40, 0
3, 172012, Note_on_c, 0, 61, 0
3, 172028, Note_on_c, 0, 67, 0
3, 172036, Note_on_c, 0, 73, 0
3, 172052, Note_on_c, 0, 70, 0
3, 172368, Note_on_c, 0, 72, 78
3, 172372, Note_on_c, 0, 70, 53
3, 172388, Note_on_c, 0, 67, 63
3, 172400, Note_on_c, 0, 60, 55
3, 172412, Control_c, 0, 64, 104
3, 172456, Control_c, 0, 64, 127
3, 172528, Note_on_c, 0, 72, 0
3, 172564, Note_on_c, 0, 70, 0
3, 172568, Note_on_c, 0, 67, 0
3, 172572, Note_on_c, 0, 60, 0
3, 172612, Note_on_c, 0, 71, 83
3, 172624, Note_on_c, 0, 59, 59
3, 172720, Note_on_c, 0, 59, 0
3, 172768, Note_on_c, 0, 71, 0
3, 172904, Note_on_c, 0, 70, 65
3, 172916, Note_on_c, 0, 72, 86
3, 172932, Note_on_c, 0, 67, 62
3, 172936, Note_on_c, 0, 60, 60
3, 172936, Control_c, 0, 64, 56
3, 172944, Note_on_c, 0, 52, 59
3, 172952, Control_c, 0, 64, 0
3, 173128, Control_c, 0, 64, 127
3, 173184, Note_on_c, 0, 60, 0
3, 173228, Note_on_c, 0, 67, 0
3, 173244, Note_on_c, 0, 70, 0
3, 173448, Note_on_c, 0, 70, 58
3, 173460, Note_on_c, 0, 60, 55
3, 173464, Note_on_c, 0, 67, 58
3, 173576, Note_on_c, 0, 52, 0
3, 173664, Note_on_c, 0, 70, 0
3, 173688, Note_on_c, 0, 67, 0
3, 173688, Note_on_c, 0, 60, 0
3, 173940, Note_on_c, 0, 70, 49
3, 173952, Note_on_c, 0, 60, 53
3, 173952, Note_on_c, 0, 67, 58
3, 173976, Note_on_c, 0, 40, 41
3, 174104, Note_on_c, 0, 60, 0
3, 174108, Note_on_c, 0, 40, 0
3, 174200, Note_on_c, 0, 70, 0
3, 174204, Note_on_c, 0, 67, 0
3, 174284, Note_on_c, 0, 72, 0
3, 174440, Note_on_c, 0, 71, 74
3, 174460, Note_on_c, 0, 64, 61
3, 174468, Note_on_c, 0, 59, 56
3, 174468, Note_on_c, 0, 67, 46
3, 174508, Note_on_c, 0, 67, 0
3, 174632, Note_on_c, 0, 59, 0
3, 174636, Note_on_c, 0, 71, 0
3, 174716, Note_on_c, 0, 58, 46
3, 174720, Note_on_c, 0, 64, 0
3, 174724, Note_on_c, 0, 70, 69
3, 174856, Note_on_c, 0, 70, 0
3, 174948, Note_on_c, 0, 58, 0
3, 175044, Note_on_c, 0, 71, 73
3, 175056, Note_on_c, 0, 67, 56
3, 175064, Note_on_c, 0, 64, 47
3, 175076, Note_on_c, 0, 59, 46
3, 175084, Note_on_c, 0, 52, 46
3, 175084, Control_c, 0, 64, 104
3, 175100, Control_c, 0, 64, 24
3, 175116, Control_c, 0, 64, 0
3, 175308, Control_c, 0, 64, 127
3, 175384, Note_on_c, 0, 67, 0
3, 175400, Note_on_c, 0, 64, 0
3, 175580, Note_on_c, 0, 67, 66
3, 175588, Note_on_c, 0, 64, 56
3, 175596, Note_on_c, 0, 55, 52
3, 175616, Note_on_c, 0, 59, 0
3, 175676, Note_on_c, 0, 71, 0
3, 175684, Note_on_c, 0, 52, 0
3, 175816, Note_on_c, 0, 55, 0
3, 175836, Note_on_c, 0, 69, 77
3, 175840, Note_on_c, 0, 67, 0
3, 175844, Note_on_c, 0, 57, 62
3, 175884, Note_on_c, 0, 64, 0
3, 175892, Note_on_c, 0, 69, 0
3, 175956, Note_on_c, 0, 57, 0
3, 176152, Note_on_c, 0, 70, 72
3, 176156, Note_on_c, 0, 58, 51
3, 176168, Note_on_c, 0, 67, 58
3, 176176, Note_on_c, 0, 64, 59
3, 176200, Note_on_c, 0, 50, 51
3, 176236, Control_c, 0, 64, 56
3, 176252, Control_c, 0, 64, 0
3, 176396, Control_c, 0, 64, 88
3, 176412, Control_c, 0, 64, 127
3, 176428, Note_on_c, 0, 64, 0
3, 176456, Note_on_c, 0, 58, 0
3, 176464, Note_on_c, 0, 67, 0
3, 176656, Note_on_c, 0, 67, 60
3, 176660, Note_on_c, 0, 58, 39
3, 176676, Note_on_c, 0, 64, 51
3, 176844, Note_on_c, 0, 64, 0
3, 176868, Note_on_c, 0, 58, 0
3, 176876, Note_on_c, 0, 67, 0
3, 176992, Note_on_c, 0, 50, 0
3, 177128, Note_on_c, 0, 58, 44
3, 177140, Note_on_c, 0, 67, 55
3, 177140, Note_on_c, 0, 64, 57
3, 177152, Note_on_c, 0, 48, 56
3, 177212, Control_c, 0, 64, 88
3, 177228, Control_c, 0, 64, 0
3, 177356, Control_c, 0, 64, 88
3, 177372, Control_c, 0, 64, 127
3, 177388, Note_on_c, 0, 64, 0
3, 177408, Note_on_c, 0, 58, 0
3, 177420, Note_on_c, 0, 67, 0
3, 177616, Note_on_c, 0, 58, 43
3, 177628, Note_on_c, 0, 67, 51
3, 177632, Note_on_c, 0, 64, 55
3, 177860, Note_on_c, 0, 67, 0
3, 177864, Note_on_c, 0, 64, 0
3, 177892, Note_on_c, 0, 58, 0
3, 178112, Note_on_c, 0, 58, 32
3, 178120, Note_on_c, 0, 67, 41
3, 178124, Note_on_c, 0, 64, 42
3, 178260, Note_on_c, 0, 64, 0
3, 178280, Note_on_c, 0, 67, 0
3, 178324, Note_on_c, 0, 70, 0
3, 178368, Note_on_c, 0, 48, 0
3, 178380, Note_on_c, 0, 58, 0
3, 178664, Note_on_c, 0, 60, 75
3, 178676, Note_on_c, 0, 48, 64
3, 178676, Note_on_c, 0, 58, 48
3, 178884, Note_on_c, 0, 60, 0
3, 178904, Note_on_c, 0, 48, 0
3, 178940, Note_on_c, 0, 62, 79
3, 178960, Note_on_c, 0, 50, 64
3, 179000, Note_on_c, 0, 58, 0
3, 179132, Note_on_c, 0, 62, 0
3, 179172, Note_on_c, 0, 50, 0
3, 179304, Note_on_c, 0, 64, 78
3, 179320, Note_on_c, 0, 60, 68
3, 179328, Note_on_c, 0, 57, 54
3, 179332, Note_on_c, 0, 52, 58
3, 179340, Note_on_c, 0, 41, 48
3, 179356, Control_c, 0, 64, 104
3, 179372, Control_c, 0, 64, 24
3, 179388, Control_c, 0, 64, 0
3, 179548, Control_c, 0, 64, 88
3, 179564, Control_c, 0, 64, 127
3, 179832, Note_on_c, 0, 63, 71
3, 179848, Note_on_c, 0, 52, 0
3, 179848, Note_on_c, 0, 51, 59
3, 179880, Note_on_c, 0, 64, 0
3, 179988, Note_on_c, 0, 60, 0
3, 180012, Note_on_c, 0, 63, 0
3, 180096, Note_on_c, 0, 62, 74
3, 180112, Note_on_c, 0, 51, 0
3, 180120, Note_on_c, 0, 50, 62
3, 180316, Note_on_c, 0, 50, 0
3, 180340, Note_on_c, 0, 62, 0
3, 180344, Note_on_c, 0, 63, 76
3, 180352, Note_on_c, 0, 51, 53
3, 180412, Control_c, 0, 64, 56
3, 180432, Control_c, 0, 64, 0
3, 180528, Control_c, 0, 64, 56
3, 180540, Control_c, 0, 64, 127
3, 180596, Note_on_c, 0, 51, 0
3, 180620, Note_on_c, 0, 57, 0
3, 180756, Note_on_c, 0, 63, 0
3, 180796, Note_on_c, 0, 59, 65
3, 180804, Note_on_c, 0, 47, 44
3, 180820, Note_on_c, 0, 57, 41
3, 181008, Note_on_c, 0, 41, 0
3, 181036, Note_on_c, 0, 59, 0
3, 181040, Note_on_c, 0, 47, 0
3, 181048, Note_on_c, 0, 60, 75
3, 181052, Note_on_c, 0, 48, 63
3, 181068, Note_on_c, 0, 57, 0
3, 181264, Note_on_c, 0, 60, 0
3, 181356, Note_on_c, 0, 48, 0
3, 181400, Note_on_c, 0, 62, 66
3, 181416, Note_on_c, 0, 59, 54
3, 181420, Note_on_c, 0, 57, 51
3, 181424, Note_on_c, 0, 50, 53
3, 181444, Note_on_c, 0, 42, 37
3, 181500, Control_c, 0, 64, 56
3, 181516, Control_c, 0, 64, 0
3, 181680, Control_c, 0, 64, 104
3, 181696, Control_c, 0, 64, 127
3, 181716, Note_on_c, 0, 59, 0
3, 181752, Note_on_c, 0, 57, 0
3, 181920, Note_on_c, 0, 59, 54
3, 181928, Note_on_c, 0, 57, 43
3, 182140, Note_on_c, 0, 59, 0
3, 182148, Note_on_c, 0, 57, 0
3, 182388, Note_on_c, 0, 59, 48
3, 182400, Note_on_c, 0, 57, 38
3, 182468, Note_on_c, 0, 62, 0
3, 182632, Note_on_c, 0, 59, 0
3, 182656, Note_on_c, 0, 63, 75
3, 182668, Note_on_c, 0, 50, 0
3, 182680, Note_on_c, 0, 51, 57
3, 182716, Note_on_c, 0, 57, 0
3, 182796, Note_on_c, 0, 63, 0
3, 182956, Note_on_c, 0, 51, 0
3, 182984, Note_on_c, 0, 64, 85
3, 183000, Note_on_c, 0, 59, 65
3, 183004, Note_on_c, 0, 52, 59
3, 183004, Note_on_c, 0, 57, 51
3, 183092, Note_on_c, 0, 42, 0
3, 183204, Note_on_c, 0, 52, 0
3, 183220, Note_on_c, 0, 64, 0
3, 183236, Note_on_c, 0, 59, 0
3, 183236, Note_on_c, 0, 65, 89
3, 183236, Note_on_c, 0, 53, 60
3, 183284, Note_on_c, 0, 57, 0
3, 183308, Note_on_c, 0, 53, 0
3, 183328, Note_on_c, 0, 65, 0
3, 183544, Note_on_c, 0, 44, 25
3, 183544, Note_on_c, 0, 66, 87
3, 183560, Note_on_c, 0, 54, 62
3, 183564, Note_on_c, 0, 62, 78
3, 183568, Note_on_c, 0, 59, 67
3, 183568, Note_on_c, 0, 43, 71
3, 183600, Control_c, 0, 64, 88
3, 183616, Control_c, 0, 64, 0
3, 183640, Note_on_c, 0, 44, 0
3, 183760, Control_c, 0, 64, 56
3, 183776, Control_c, 0, 64, 127
3, 183784, Note_on_c, 0, 44, 23
3, 183996, Note_on_c, 0, 54, 0
3, 184044, Note_on_c, 0, 66, 0
3, 184084, Note_on_c, 0, 65, 77
3, 184084, Note_on_c, 0, 53, 61
3, 184216, Note_on_c, 0, 65, 0
3, 184244, Note_on_c, 0, 53, 0
3, 184292, Note_on_c, 0, 44, 0
3, 184296, Note_on_c, 0, 62, 0
3, 184316, Note_on_c, 0, 52, 62
3, 184328, Note_on_c, 0, 64, 84
3, 184516, Note_on_c, 0, 52, 0
3, 184576, Note_on_c, 0, 64, 0
3, 184596, Note_on_c, 0, 65, 77
3, 184608, Note_on_c, 0, 53, 60
3, 184688, Control_c, 0, 64, 56
3, 184704, Control_c, 0, 64, 0
3, 184784, Control_c, 0, 64, 88
3, 184800, Control_c, 0, 64, 127
3, 184984, Note_on_c, 0, 59, 0
3, 185008, Note_on_c, 0, 53, 0
3, 185128, Note_on_c, 0, 62, 69
3, 185132, Note_on_c, 0, 59, 55
3, 185144, Note_on_c, 0, 50, 58
3, 185220, Note_on_c, 0, 65, 0
3, 185324, Note_on_c, 0, 43, 0
3, 185344, Note_on_c, 0, 50, 0
3, 185348, Note_on_c, 0, 62, 0
3, 185360, Note_on_c, 0, 51, 65
3, 185360, Note_on_c, 0, 63, 79
3, 185408, Note_on_c, 0, 59, 0
3, 185520, Note_on_c, 0, 63, 0
3, 185644, Note_on_c, 0, 51, 0
3, 185648, Note_on_c, 0, 64, 79
3, 185668, Note_on_c, 0, 62, 53
3, 185672, Note_on_c, 0, 59, 49
3, 185672, Note_on_c, 0, 44, 50
3, 185672, Note_on_c, 0, 52, 55
3, 185728, Control_c, 0, 64, 24
3, 185744, Control_c, 0, 64, 0
3, 185852, Note_on_c, 0, 62, 0
3, 185856, Control_c, 0, 64, 72
3, 185872, Control_c, 0, 64, 127
3, 185916, Note_on_c, 0, 59, 0
3, 186148, Note_on_c, 0, 62, 54
3, 186156, Note_on_c, 0, 59, 45
3, 186364, Note_on_c, 0, 62, 0
3, 186396, Note_on_c, 0, 52, 0
3, 186408, Note_on_c, 0, 64, 0
3, 186424, Note_on_c, 0, 59, 0
3, 186580, Note_on_c, 0, 44, 0
3, 186612, Note_on_c, 0, 63, 75
3, 186640, Note_on_c, 0, 42, 43
3, 186644, Note_on_c, 0, 51, 40
3, 186672, Note_on_c, 0, 57, 22
3, 186704, Note_on_c, 0, 60, 6
3, 186720, Control_c, 0, 64, 40
3, 186736, Control_c, 0, 64, 0
3, 186816, Control_c, 0, 64, 56
3, 186828, Note_on_c, 0, 60, 0
3, 186832, Control_c, 0, 64, 127
3, 186912, Note_on_c, 0, 57, 0
3, 186916, Note_on_c, 0, 42, 0
3, 187064, Note_on_c, 0, 59, 58
3, 187084, Note_on_c, 0, 41, 50
3, 187084, Note_on_c, 0, 57, 51
3, 187300, Note_on_c, 0, 63, 0
3, 187304, Note_on_c, 0, 59, 0
3, 187316, Note_on_c, 0, 60, 74
3, 187360, Note_on_c, 0, 41, 0
3, 187372, Note_on_c, 0, 57, 0
3, 187436, Note_on_c, 0, 51, 0
3, 187440, Note_on_c, 0, 60, 0
3, 187612, Note_on_c, 0, 62, 74
3, 187620, Note_on_c, 0, 56, 51
3, 187624, Note_on_c, 0, 59, 62
3, 187644, Note_on_c, 0, 40, 45
3, 187656, Note_on_c, 0, 52, 36
3, 187680, Control_c, 0, 64, 72
3, 187696, Control_c, 0, 64, 0
3, 187808, Control_c, 0, 64, 88
3, 187824, Control_c, 0, 64, 127
3, 187912, Note_on_c, 0, 56, 0
3, 187924, Note_on_c, 0, 59, 0
3, 188012, Note_on_c, 0, 62, 0
3, 188056, Note_on_c, 0, 60, 74
3, 188064, Note_on_c, 0, 56, 44
3, 188156, Note_on_c, 0, 52, 0
3, 188232, Note_on_c, 0, 40, 0
3, 188232, Note_on_c, 0, 60, 0
3, 188268, Note_on_c, 0, 59, 70
3, 188308, Note_on_c, 0, 56, 0
3, 188340, Note_on_c, 0, 59, 0
3, 188612, Note_on_c, 0, 60, 74
3, 188620, Note_on_c, 0, 52, 49
3, 188632, Note_on_c, 0, 57, 44
3, 188648, Note_on_c, 0, 45, 37
3, 188656, Note_on_c, 0, 33, 36
3, 188704, Control_c, 0, 64, 72
3, 188720, Control_c, 0, 64, 0
3, 188900, Control_c, 0, 64, 72
3, 188904, Note_on_c, 0, 57, 0
3, 188912, Note_on_c, 0, 52, 0
3, 188916, Control_c, 0, 64, 127
3, 189164, Note_on_c, 0, 52, 50
3, 189164, Note_on_c, 0, 57, 44
3, 189208, Note_on_c, 0, 33, 0
3, 189256, Note_on_c, 0, 45, 0
3, 189384, Note_on_c, 0, 52, 0
3, 189604, Note_on_c, 0, 57, 0
3, 189616, Note_on_c, 0, 52, 73
3, 189812, Note_on_c, 0, 60, 0
3, 190080, Note_on_c, 0, 60, 57
3, 190080, Note_on_c, 0, 57, 41
3, 190288, Note_on_c, 0, 57, 0
3, 190316, Note_on_c, 0, 60, 0
3, 190528, Note_on_c, 0, 52, 0
3, 190612, Note_on_c, 0, 54, 58
3, 190628, Note_on_c, 0, 60, 54
3, 190644, Note_on_c, 0, 57, 33
3, 190736, Control_c, 0, 64, 40
3, 190752, Control_c, 0, 64, 0
3, 190852, Control_c, 0, 64, 88
3, 190868, Note_on_c, 0, 57, 0
3, 190868, Control_c, 0, 64, 127
3, 190904, Note_on_c, 0, 60, 0
3, 191196, Note_on_c, 0, 67, 56
3, 191212, Note_on_c, 0, 64, 60
3, 191216, Note_on_c, 0, 54, 0
3, 191220, Note_on_c, 0, 55, 68
3, 191228, Note_on_c, 0, 60, 40
3, 191248, Control_c, 0, 64, 56
3, 191268, Control_c, 0, 64, 0
3, 191284, Control_c, 0, 64, 24
3, 191300, Control_c, 0, 64, 72
3, 191316, Control_c, 0, 64, 127
3, 191360, Note_on_c, 0, 67, 0
3, 191368, Note_on_c, 0, 55, 0
3, 191460, Note_on_c, 0, 64, 0
3, 191504, Note_on_c, 0, 66, 61
3, 191508, Note_on_c, 0, 60, 0
3, 191652, Note_on_c, 0, 66, 0
3, 191864, Note_on_c, 0, 67, 69
3, 191876, Note_on_c, 0, 63, 46
3, 191892, Note_on_c, 0, 60, 45
3, 191892, Note_on_c, 0, 59, 56
3, 191896, Note_on_c, 0, 45, 63
3, 191968, Control_c, 0, 64, 104
3, 191988, Control_c, 0, 64, 24
3, 192004, Control_c, 0, 64, 0
3, 192116, Control_c, 0, 64, 56
3, 192132, Control_c, 0, 64, 127
3, 192292, Note_on_c, 0, 67, 0
3, 192308, Note_on_c, 0, 60, 0
3, 192316, Note_on_c, 0, 59, 0
3, 192328, Note_on_c, 0, 63, 0
3, 192504, Note_on_c, 0, 65, 65
3, 192508, Note_on_c, 0, 60, 53
3, 192520, Note_on_c, 0, 63, 40
3, 192528, Note_on_c, 0, 57, 39
3, 192612, Control_c, 0, 64, 56
3, 192628, Control_c, 0, 64, 0
3, 192736, Control_c, 0, 64, 88
3, 192752, Control_c, 0, 64, 127
3, 192828, Note_on_c, 0, 65, 0
3, 192844, Note_on_c, 0, 66, 69
3, 192868, Note_on_c, 0, 63, 0
3, 192928, Note_on_c, 0, 60, 0
3, 193016, Note_on_c, 0, 66, 0
3, 193028, Note_on_c, 0, 57, 0
3, 193204, Note_on_c, 0, 67, 74
3, 193228, Note_on_c, 0, 60, 43
3, 193228, Note_on_c, 0, 64, 45
3, 193236, Note_on_c, 0, 55, 53
3, 193316, Control_c, 0, 64, 40
3, 193332, Control_c, 0, 64, 0
3, 193508, Control_c, 0, 64, 127
3, 193520, Note_on_c, 0, 64, 0
3, 193540, Note_on_c, 0, 60, 0
3, 193732, Note_on_c, 0, 64, 56
3, 193744, Note_on_c, 0, 60, 56
3, 194068, Note_on_c, 0, 60, 0
3, 194076, Note_on_c, 0, 64, 0
3, 194264, Note_on_c, 0, 64, 55
3, 194276, Note_on_c, 0, 60, 45
3, 194564, Note_on_c, 0, 60, 0
3, 194596, Note_on_c, 0, 64, 0
3, 194628, Note_on_c, 0, 67, 0
3, 194796, Note_on_c, 0, 66, 60
3, 194816, Note_on_c, 0, 60, 49
3, 194828, Note_on_c, 0, 64, 51
3, 195060, Note_on_c, 0, 64, 0
3, 195064, Note_on_c, 0, 66, 0
3, 195088, Note_on_c, 0, 67, 73
3, 195168, Note_on_c, 0, 60, 0
3, 195320, Note_on_c, 0, 67, 0
3, 195352, Note_on_c, 0, 55, 0
3, 195416, Note_on_c, 0, 69, 67
3, 195428, Note_on_c, 0, 64, 55
3, 195432, Note_on_c, 0, 54, 44
3, 195440, Note_on_c, 0, 60, 39
3, 195524, Control_c, 0, 64, 56
3, 195540, Control_c, 0, 64, 0
3, 195636, Control_c, 0, 64, 40
3, 195648, Control_c, 0, 64, 127
3, 195720, Note_on_c, 0, 64, 0
3, 195760, Note_on_c, 0, 54, 0
3, 195840, Note_on_c, 0, 60, 0
3, 195928, Note_on_c, 0, 69, 0
3, 195988, Note_on_c, 0, 67, 59
3, 195988, Note_on_c, 0, 53, 39
3, 195996, Note_on_c, 0, 62, 56
3, 196004, Note_on_c, 0, 60, 48
3, 196108, Note_on_c, 0, 45, 0
3, 196200, Note_on_c, 0, 53, 0
3, 196228, Note_on_c, 0, 54, 54
3, 196244, Note_on_c, 0, 69, 74
3, 196248, Note_on_c, 0, 62, 0
3, 196296, Note_on_c, 0, 67, 0
3, 196332, Note_on_c, 0, 60, 0
3, 196348, Note_on_c, 0, 69, 0
3, 196532, Note_on_c, 0, 54, 0
3, 196612, Note_on_c, 0, 71, 75
3, 196628, Note_on_c, 0, 59, 45
3, 196632, Note_on_c, 0, 64, 51
3, 196636, Note_on_c, 0, 55, 41
3, 196656, Note_on_c, 0, 47, 48
3, 196696, Control_c, 0, 64, 40
3, 196708, Control_c, 0, 64, 0
3, 196820, Control_c, 0, 64, 40
3, 196836, Control_c, 0, 64, 127
3, 196932, Note_on_c, 0, 59, 0
3, 196972, Note_on_c, 0, 55, 0
3, 197004, Note_on_c, 0, 64, 0
3, 197168, Note_on_c, 0, 69, 58
3, 197172, Note_on_c, 0, 60, 54
3, 197176, Note_on_c, 0, 64, 49
3, 197196, Note_on_c, 0, 57, 52
3, 197268, Control_c, 0, 64, 88
3, 197284, Control_c, 0, 64, 0
3, 197364, Control_c, 0, 64, 56
3, 197384, Control_c, 0, 64, 127
3, 197476, Note_on_c, 0, 60, 0
3, 197496, Note_on_c, 0, 64, 0
3, 197508, Note_on_c, 0, 69, 0
3, 197612, Note_on_c, 0, 57, 0
3, 197768, Note_on_c, 0, 67, 60
3, 197772, Note_on_c, 0, 61, 43
3, 197780, Note_on_c, 0, 64, 57
3, 197792, Note_on_c, 0, 58, 51
3, 197880, Control_c, 0, 64, 104
3, 197896, Control_c, 0, 64, 56
3, 197912, Control_c, 0, 64, 0
3, 198036, Control_c, 0, 64, 56
3, 198052, Control_c, 0, 64, 127
3, 198064, Note_on_c, 0, 64, 0
3, 198168, Note_on_c, 0, 61, 0
3, 198204, Note_on_c, 0, 67, 0
3, 198264, Note_on_c, 0, 58, 0
3, 198468, Note_on_c, 0, 69, 56
3, 198468, Note_on_c, 0, 66, 37
3, 198480, Note_on_c, 0, 63, 40
3, 198496, Note_on_c, 0, 59, 43
3, 198568, Control_c, 0, 64, 104
3, 198584, Control_c, 0, 64, 40
3, 198600, Control_c, 0, 64, 0
3, 198772, Control_c, 0, 64, 56
3, 198788, Control_c, 0, 64, 104
3, 198804, Control_c, 0, 64, 127
3, 198920, Note_on_c, 0, 66, 0
3, 198956, Note_on_c, 0, 69, 0
3, 198960, Note_on_c, 0, 47, 0
3, 198992, Note_on_c, 0, 63, 0
3, 199040, Note_on_c, 0, 59, 0
3, 199304, Note_on_c, 0, 67, 55
3, 199316, Note_on_c, 0, 64, 52
3, 199316, Note_on_c, 0, 59, 37
3, 199328, Note_on_c, 0, 52, 41
3, 199384, Control_c, 0, 64, 88
3, 199400, Control_c, 0, 64, 24
3, 199416, Control_c, 0, 64, 0
3, 199544, Control_c, 0, 64, 72
3, 199560, Control_c, 0, 64, 127
3, 199624, Note_on_c, 0, 64, 0
3, 199628, Note_on_c, 0, 67, 0
3, 199832, Note_on_c, 0, 67, 47
3, 199836, Note_on_c, 0, 64, 48
3, 200060, Note_on_c, 0, 64, 0
3, 200076, Note_on_c, 0, 67, 0
3, 200296, Note_on_c, 0, 67, 43
3, 200296, Note_on_c, 0, 64, 45
3, 200492, Note_on_c, 0, 59, 0
3, 200508, Note_on_c, 0, 64, 0
3, 200544, Note_on_c, 0, 67, 0
3, 200776, Note_on_c, 0, 57, 66
3, 200776, Control_c, 0, 7, 100
3, 200832, Note_on_c, 0, 71, 0
3, 200992, Note_on_c, 0, 57, 0
3, 201020, Note_on_c, 0, 59, 81
3, 201216, Note_on_c, 0, 52, 0
3, 201284, Note_on_c, 0, 59, 0
3, 201288, Note_on_c, 0, 60, 82
3, 201408, Control_c, 0, 64, 104
3, 201424, Control_c, 0, 64, 56
3, 201440, Control_c, 0, 64, 0
3, 201620, Control_c, 0, 64, 24
3, 201636, Control_c, 0, 64, 40
3, 201652, Control_c, 0, 64, 56
3, 201780, Control_c, 0, 64, 0
3, 201824, Note_on_c, 0, 63, 34
3, 201828, Note_on_c, 0, 66, 34
3, 201840, Note_on_c, 0, 69, 45
3, 201872, Control_c, 0, 64, 40
3, 201888, Control_c, 0, 64, 88
3, 201904, Control_c, 0, 64, 127
3, 202024, Note_on_c, 0, 66, 0
3, 202028, Note_on_c, 0, 63, 0
3, 202052, Note_on_c, 0, 69, 0
3, 202408, Note_on_c, 0, 63, 23
3, 202420, Note_on_c, 0, 66, 25
3, 202424, Note_on_c, 0, 69, 35
3, 202640, Note_on_c, 0, 63, 0
3, 202652, Note_on_c, 0, 66, 0
3, 202660, Note_on_c, 0, 69, 0
3, 202728, Note_on_c, 0, 60, 0
3, 202868, Note_on_c, 0, 69, 71
3, 202876, Note_on_c, 0, 63, 54
3, 202884, Note_on_c, 0, 66, 53
3, 203064, Note_on_c, 0, 69, 0
3, 203088, Note_on_c, 0, 66, 0
3, 203092, Note_on_c, 0, 63, 0
3, 203104, Note_on_c, 0, 71, 84
3, 203244, Note_on_c, 0, 71, 0
3, 203400, Control_c, 0, 64, 56
3, 203416, Control_c, 0, 64, 0
3, 203440, Note_on_c, 0, 72, 96
3, 203452, Note_on_c, 0, 63, 65
3, 203452, Note_on_c, 0, 66, 58
3, 203456, Note_on_c, 0, 69, 72
3, 203468, Note_on_c, 0, 35, 64
3, 203548, Control_c, 0, 64, 56
3, 203564, Control_c, 0, 64, 127
3, 203652, Note_on_c, 0, 66, 0
3, 203704, Note_on_c, 0, 69, 0
3, 203780, Note_on_c, 0, 63, 0
3, 203828, Note_on_c, 0, 35, 0
3, 203936, Note_on_c, 0, 69, 66
3, 203948, Note_on_c, 0, 63, 57
3, 203952, Note_on_c, 0, 66, 51
3, 203960, Note_on_c, 0, 54, 45
3, 203960, Note_on_c, 0, 47, 48
3, 204052, Note_on_c, 0, 54, 0
3, 204076, Note_on_c, 0, 47, 0
3, 204220, Note_on_c, 0, 66, 0
3, 204228, Note_on_c, 0, 63, 0
3, 204260, Note_on_c, 0, 69, 0
3, 204468, Note_on_c, 0, 69, 63
3, 204476, Note_on_c, 0, 63, 45
3, 204476, Note_on_c, 0, 66, 40
3, 204528, Note_on_c, 0, 72, 0
3, 204600, Note_on_c, 0, 66, 0
3, 204628, Note_on_c, 0, 63, 0
3, 204680, Note_on_c, 0, 69, 0
3, 204992, Note_on_c, 0, 72, 82
3, 205008, Note_on_c, 0, 63, 44
3, 205012, Note_on_c, 0, 69, 64
3, 205016, Note_on_c, 0, 60, 59
3, 205164, Note_on_c, 0, 72, 0
3, 205196, Note_on_c, 0, 60, 0
3, 205212, Note_on_c, 0, 69, 0
3, 205240, Note_on_c, 0, 71, 76
3, 205244, Note_on_c, 0, 59, 46
3, 205288, Note_on_c, 0, 63, 0
3, 205332, Note_on_c, 0, 59, 0
3, 205380, Note_on_c, 0, 71, 0
3, 205504, Note_on_c, 0, 72, 81
3, 205520, Note_on_c, 0, 69, 54
3, 205524, Note_on_c, 0, 63, 38
3, 205536, Note_on_c, 0, 60, 51
3, 205596, Control_c, 0, 64, 104
3, 205612, Control_c, 0, 64, 0
3, 205720, Control_c, 0, 64, 56
3, 205736, Control_c, 0, 64, 127
3, 205828, Note_on_c, 0, 63, 0
3, 205828, Note_on_c, 0, 69, 0
3, 205836, Note_on_c, 0, 72, 0
3, 205868, Note_on_c, 0, 60, 0
3, 205988, Note_on_c, 0, 67, 59
3, 205988, Note_on_c, 0, 71, 73
3, 205996, Note_on_c, 0, 59, 55
3, 206004, Note_on_c, 0, 63, 39
3, 206068, Note_on_c, 0, 67, 0
3, 206192, Note_on_c, 0, 71, 0
3, 206204, Note_on_c, 0, 59, 0
3, 206220, Note_on_c, 0, 69, 70
3, 206224, Note_on_c, 0, 66, 59
3, 206228, Note_on_c, 0, 57, 49
3, 206276, Note_on_c, 0, 63, 0
3, 206320, Note_on_c, 0, 66, 0
3, 206380, Note_on_c, 0, 69, 0
3, 206428, Note_on_c, 0, 57, 0
3, 206472, Note_on_c, 0, 71, 69
3, 206476, Note_on_c, 0, 67, 60
3, 206476, Note_on_c, 0, 63, 49
3, 206484, Note_on_c, 0, 59, 53
3, 206524, Control_c, 0, 64, 56
3, 206540, Control_c, 0, 64, 0
3, 206648, Note_on_c, 0, 67, 0
3, 206652, Control_c, 0, 64, 56
3, 206668, Control_c, 0, 64, 127
3, 206780, Note_on_c, 0, 63, 0
3, 206812, Note_on_c, 0, 59, 0
3, 206860, Note_on_c, 0, 71, 0
3, 206940, Control_c, 0, 64, 88
3, 206952, Note_on_c, 0, 69, 68
3, 206956, Note_on_c, 0, 63, 51
3, 206956, Control_c, 0, 64, 56
3, 206960, Note_on_c, 0, 66, 52
3, 206964, Note_on_c, 0, 57, 46
3, 206968, Note_on_c, 0, 60, 47
3, 206972, Control_c, 0, 64, 40
3, 206988, Control_c, 0, 64, 56
3, 207000, Control_c, 0, 64, 88
3, 207016, Control_c, 0, 64, 127
3, 207076, Note_on_c, 0, 66, 0
3, 207132, Note_on_c, 0, 69, 0
3, 207168, Note_on_c, 0, 60, 0
3, 207172, Note_on_c, 0, 71, 72
3, 207176, Note_on_c, 0, 57, 0
3, 207180, Note_on_c, 0, 67, 59
3, 207184, Note_on_c, 0, 59, 63
3, 207248, Note_on_c, 0, 67, 0
3, 207304, Note_on_c, 0, 63, 0
3, 207340, Note_on_c, 0, 71, 0
3, 207388, Note_on_c, 0, 59, 0
3, 207568, Note_on_c, 0, 72, 86
3, 207580, Control_c, 0, 64, 88
3, 207584, Note_on_c, 0, 60, 68
3, 207584, Note_on_c, 0, 63, 48
3, 207588, Note_on_c, 0, 69, 62
3, 207588, Note_on_c, 0, 66, 46
3, 207596, Control_c, 0, 64, 0
3, 207708, Control_c, 0, 64, 72
3, 207716, Note_on_c, 0, 60, 0
3, 207724, Control_c, 0, 64, 127
3, 207784, Note_on_c, 0, 66, 0
3, 207828, Note_on_c, 0, 69, 0
3, 207864, Note_on_c, 0, 63, 0
3, 208080, Note_on_c, 0, 35, 64
3, 208084, Note_on_c, 0, 69, 54
3, 208084, Note_on_c, 0, 63, 46
3, 208092, Note_on_c, 0, 66, 46
3, 208156, Note_on_c, 0, 35, 0
3, 208332, Note_on_c, 0, 66, 0
3, 208340, Note_on_c, 0, 63, 0
3, 208400, Note_on_c, 0, 69, 0
3, 208600, Note_on_c, 0, 69, 49
3, 208608, Note_on_c, 0, 63, 35
3, 208612, Note_on_c, 0, 54, 45
3, 208620, Note_on_c, 0, 66, 35
3, 208648, Note_on_c, 0, 47, 40
3, 208732, Control_c, 0, 64, 104
3, 208748, Control_c, 0, 64, 40
3, 208768, Control_c, 0, 64, 0
3, 208860, Control_c, 0, 64, 88
3, 208876, Control_c, 0, 64, 127
3, 208992, Note_on_c, 0, 66, 0
3, 209000, Note_on_c, 0, 63, 0
3, 209004, Note_on_c, 0, 69, 0
3, 209232, Note_on_c, 0, 72, 0
3, 209268, Note_on_c, 0, 69, 70
3, 209276, Note_on_c, 0, 63, 46
3, 209276, Note_on_c, 0, 66, 50
3, 209372, Note_on_c, 0, 66, 0
3, 209456, Note_on_c, 0, 63, 0
3, 209468, Note_on_c, 0, 69, 0
3, 209540, Note_on_c, 0, 71, 80
3, 209544, Note_on_c, 0, 67, 68
3, 209560, Note_on_c, 0, 69, 36
3, 209596, Note_on_c, 0, 47, 0
3, 209600, Note_on_c, 0, 69, 0
3, 209604, Note_on_c, 0, 54, 0
3, 209608, Note_on_c, 0, 67, 0
3, 209648, Note_on_c, 0, 71, 0
3, 209884, Note_on_c, 0, 72, 85
3, 209900, Note_on_c, 0, 60, 55
3, 209904, Note_on_c, 0, 64, 62
3, 209908, Note_on_c, 0, 69, 50
3, 209924, Note_on_c, 0, 52, 44
3, 209928, Note_on_c, 0, 45, 47
3, 209968, Control_c, 0, 64, 56
3, 209984, Control_c, 0, 64, 0
3, 210124, Control_c, 0, 64, 88
3, 210140, Control_c, 0, 64, 127
3, 210216, Note_on_c, 0, 64, 0
3, 210268, Note_on_c, 0, 60, 0
3, 210460, Note_on_c, 0, 60, 54
3, 210468, Note_on_c, 0, 64, 55
3, 210716, Note_on_c, 0, 64, 0
3, 210732, Note_on_c, 0, 60, 0
3, 210980, Note_on_c, 0, 64, 50
3, 210984, Note_on_c, 0, 60, 46
3, 211028, Note_on_c, 0, 69, 0
3, 211104, Note_on_c, 0, 72, 0
3, 211196, Note_on_c, 0, 60, 0
3, 211268, Note_on_c, 0, 64, 0
3, 211504, Note_on_c, 0, 71, 77
3, 211516, Note_on_c, 0, 67, 58
3, 211524, Note_on_c, 0, 60, 44
3, 211536, Note_on_c, 0, 64, 37
3, 211748, Note_on_c, 0, 71, 0
3, 211752, Note_on_c, 0, 52, 0
3, 211788, Note_on_c, 0, 45, 0
3, 211792, Note_on_c, 0, 67, 0
3, 211800, Note_on_c, 0, 69, 84
3, 211808, Note_on_c, 0, 64, 0
3, 211868, Note_on_c, 0, 60, 0
3, 211932, Note_on_c, 0, 69, 0
3, 212144, Note_on_c, 0, 71, 89
3, 212144, Note_on_c, 0, 66, 48
3, 212148, Note_on_c, 0, 60, 51
3, 212156, Note_on_c, 0, 62, 56
3, 212184, Note_on_c, 0, 38, 36
3, 212192, Note_on_c, 0, 50, 30
3, 212252, Control_c, 0, 64, 88
3, 212268, Control_c, 0, 64, 0
3, 212392, Control_c, 0, 64, 56
3, 212412, Control_c, 0, 64, 127
3, 212456, Note_on_c, 0, 62, 0
3, 212488, Note_on_c, 0, 60, 0
3, 212500, Note_on_c, 0, 66, 0
3, 212652, Note_on_c, 0, 66, 46
3, 212668, Note_on_c, 0, 60, 56
3, 212672, Note_on_c, 0, 62, 58
3, 212936, Note_on_c, 0, 62, 0
3, 212948, Note_on_c, 0, 60, 0
3, 212976, Note_on_c, 0, 66, 0
3, 213152, Note_on_c, 0, 66, 30
3, 213164, Note_on_c, 0, 60, 38
3, 213172, Note_on_c, 0, 62, 44
3, 213460, Note_on_c, 0, 71, 0
3, 213484, Note_on_c, 0, 60, 0
3, 213504, Note_on_c, 0, 62, 0
3, 213520, Note_on_c, 0, 66, 0
3, 213684, Note_on_c, 0, 69, 77
3, 213700, Note_on_c, 0, 62, 60
3, 213704, Note_on_c, 0, 60, 47
3, 213836, Note_on_c, 0, 38, 0
3, 213928, Note_on_c, 0, 69, 0
3, 213964, Note_on_c, 0, 67, 75
3, 213972, Note_on_c, 0, 50, 0
3, 213992, Note_on_c, 0, 62, 0
3, 214016, Note_on_c, 0, 60, 0
3, 214148, Note_on_c, 0, 67, 0
3, 214332, Note_on_c, 0, 69, 85
3, 214348, Note_on_c, 0, 62, 58
3, 214360, Note_on_c, 0, 59, 43
3, 214380, Note_on_c, 0, 54, 35
3, 214380, Note_on_c, 0, 47, 44
3, 214424, Control_c, 0, 64, 104
3, 214440, Control_c, 0, 64, 0
3, 214604, Control_c, 0, 64, 40
3, 214620, Control_c, 0, 64, 88
3, 214636, Control_c, 0, 64, 127
3, 214656, Note_on_c, 0, 62, 0
3, 214672, Note_on_c, 0, 59, 0
3, 214912, Note_on_c, 0, 62, 54
3, 214920, Note_on_c, 0, 59, 46
3, 215200, Note_on_c, 0, 62, 0
3, 215228, Note_on_c, 0, 54, 0
3, 215272, Note_on_c, 0, 59, 0
3, 215484, Note_on_c, 0, 63, 40
3, 215496, Note_on_c, 0, 55, 50
3, 215504, Note_on_c, 0, 59, 24
3, 215580, Control_c, 0, 64, 104
3, 215596, Control_c, 0, 64, 24
3, 215608, Control_c, 0, 64, 0
3, 215688, Control_c, 0, 64, 40
3, 215704, Control_c, 0, 64, 127
3, 215860, Note_on_c, 0, 59, 0
3, 215872, Note_on_c, 0, 63, 0
3, 215888, Note_on_c, 0, 69, 0
3, 215980, Note_on_c, 0, 55, 0
3, 215984, Note_on_c, 0, 67, 66
3, 215988, Note_on_c, 0, 63, 23
3, 216000, Note_on_c, 0, 59, 39
3, 216004, Note_on_c, 0, 57, 53
3, 216056, Control_c, 0, 64, 72
3, 216076, Control_c, 0, 64, 0
3, 216140, Control_c, 0, 64, 56
3, 216156, Control_c, 0, 64, 127
3, 216196, Note_on_c, 0, 57, 0
3, 216212, Note_on_c, 0, 47, 0
3, 216240, Note_on_c, 0, 67, 0
3, 216256, Note_on_c, 0, 63, 0
3, 216284, Note_on_c, 0, 66, 75
3, 216344, Note_on_c, 0, 59, 0
3, 216472, Note_on_c, 0, 66, 0
3, 216548, Note_on_c, 0, 40, 58
3, 216716, Note_on_c, 0, 55, 60
3, 216720, Note_on_c, 0, 67, 68
3, 216736, Note_on_c, 0, 64, 55
3, 216736, Note_on_c, 0, 59, 48
3, 216748, Control_c, 0, 64, 104
3, 216764, Control_c, 0, 64, 40
3, 216780, Control_c, 0, 64, 0
3, 216988, Control_c, 0, 64, 127
3, 217040, Note_on_c, 0, 64, 0
3, 217056, Note_on_c, 0, 59, 0
3, 217300, Note_on_c, 0, 59, 50
3, 217308, Note_on_c, 0, 64, 51
3, 217492, Note_on_c, 0, 64, 0
3, 217508, Note_on_c, 0, 59, 0
3, 217612, Note_on_c, 0, 40, 0
3, 217624, Note_on_c, 0, 55, 0
3, 217792, Note_on_c, 0, 59, 40
3, 217808, Note_on_c, 0, 64, 36
3, 217864, Note_on_c, 0, 59, 0
3, 217900, Note_on_c, 0, 64, 0
3, 217936, Note_on_c, 0, 67, 0
3, 218292, Note_on_c, 0, 76, 84
3, 218308, Note_on_c, 0, 64, 51
3, 218320, Note_on_c, 0, 71, 54
3, 218324, Note_on_c, 0, 67, 39
3, 218520, Note_on_c, 0, 71, 0
3, 218532, Note_on_c, 0, 76, 0
3, 218548, Note_on_c, 0, 64, 0
3, 218552, Note_on_c, 0, 74, 83
3, 218564, Note_on_c, 0, 62, 60
3, 218596, Note_on_c, 0, 67, 0
3, 218744, Note_on_c, 0, 62, 0
3, 218760, Note_on_c, 0, 74, 0
3, 218840, Note_on_c, 0, 76, 80
3, 218860, Note_on_c, 0, 71, 51
3, 218864, Note_on_c, 0, 67, 46
3, 218876, Note_on_c, 0, 64, 47
3, 218956, Control_c, 0, 64, 88
3, 218972, Control_c, 0, 64, 0
3, 219068, Control_c, 0, 64, 40
3, 219084, Control_c, 0, 64, 127
3, 219160, Note_on_c, 0, 71, 0
3, 219180, Note_on_c, 0, 67, 0
3, 219200, Note_on_c, 0, 64, 0
3, 219220, Note_on_c, 0, 76, 0
3, 219400, Note_on_c, 0, 74, 79
3, 219400, Note_on_c, 0, 62, 54
3, 219400, Note_on_c, 0, 71, 62
3, 219400, Note_on_c, 0, 67, 50
3, 219568, Note_on_c, 0, 71, 0
3, 219600, Note_on_c, 0, 62, 0
3, 219604, Note_on_c, 0, 74, 0
3, 219644, Note_on_c, 0, 73, 77
3, 219648, Note_on_c, 0, 67, 0
3, 219652, Note_on_c, 0, 61, 56
3, 219860, Note_on_c, 0, 73, 0
3, 219876, Note_on_c, 0, 61, 0
3, 219908, Note_on_c, 0, 74, 77
3, 219916, Note_on_c, 0, 62, 53
3, 219920, Note_on_c, 0, 71, 58
3, 219932, Note_on_c, 0, 67, 47
3, 220000, Control_c, 0, 64, 72
3, 220012, Control_c, 0, 64, 0
3, 220076, Control_c, 0, 64, 40
3, 220092, Control_c, 0, 64, 104
3, 220108, Control_c, 0, 64, 127
3, 220132, Note_on_c, 0, 71, 0
3, 220208, Note_on_c, 0, 67, 0
3, 220352, Note_on_c, 0, 62, 0
3, 220428, Note_on_c, 0, 74, 0
3, 220444, Note_on_c, 0, 70, 70
3, 220456, Note_on_c, 0, 58, 52
3, 220464, Note_on_c, 0, 64, 55
3, 220568, Note_on_c, 0, 64, 0
3, 220596, Note_on_c, 0, 58, 0
3, 220600, Note_on_c, 0, 70, 0
3, 220652, Note_on_c, 0, 59, 60
3, 220652, Note_on_c, 0, 71, 79
3, 220692, Note_on_c, 0, 59, 0
3, 220756, Note_on_c, 0, 71, 0
3, 220960, Note_on_c, 0, 73, 80
3, 220968, Note_on_c, 0, 61, 60
3, 220968, Note_on_c, 0, 70, 64
3, 220988, Note_on_c, 0, 67, 58
3, 221052, Control_c, 0, 64, 104
3, 221068, Control_c, 0, 64, 0
3, 221112, Note_on_c, 0, 52, 16
3, 221112, Note_on_c, 0, 58, 31
3, 221184, Control_c, 0, 64, 127
3, 221232, Note_on_c, 0, 67, 0
3, 221264, Note_on_c, 0, 52, 0
3, 221268, Note_on_c, 0, 58, 0
3, 221296, Note_on_c, 0, 70, 0
3, 221308, Note_on_c, 0, 61, 0
3, 221476, Note_on_c, 0, 70, 59
3, 221484, Note_on_c, 0, 61, 43
3, 221496, Note_on_c, 0, 67, 53
3, 221660, Note_on_c, 0, 67, 0
3, 221660, Note_on_c, 0, 70, 0
3, 221696, Note_on_c, 0, 61, 0
3, 221952, Note_on_c, 0, 70, 45
3, 221968, Note_on_c, 0, 61, 37
3, 221980, Note_on_c, 0, 67, 44
3, 221980, Note_on_c, 0, 40, 40
3, 222120, Note_on_c, 0, 40, 0
3, 222128, Note_on_c, 0, 61, 0
3, 222128, Note_on_c, 0, 67, 0
3, 222172, Note_on_c, 0, 70, 0
3, 222200, Note_on_c, 0, 73, 0
3, 222524, Note_on_c, 0, 76, 84
3, 222540, Note_on_c, 0, 64, 57
3, 222540, Note_on_c, 0, 67, 53
3, 222552, Note_on_c, 0, 71, 53
3, 222556, Control_c, 0, 64, 72
3, 222572, Control_c, 0, 64, 24
3, 222588, Control_c, 0, 64, 0
3, 222604, Control_c, 0, 64, 40
3, 222624, Control_c, 0, 64, 88
3, 222640, Control_c, 0, 64, 127
3, 222716, Note_on_c, 0, 71, 0
3, 222716, Note_on_c, 0, 76, 0
3, 222756, Note_on_c, 0, 64, 0
3, 222760, Note_on_c, 0, 74, 83
3, 222772, Note_on_c, 0, 62, 62
3, 222816, Note_on_c, 0, 67, 0
3, 222860, Note_on_c, 0, 62, 0
3, 222940, Note_on_c, 0, 74, 0
3, 223028, Note_on_c, 0, 76, 82
3, 223044, Note_on_c, 0, 71, 62
3, 223048, Note_on_c, 0, 67, 48
3, 223056, Note_on_c, 0, 64, 58
3, 223116, Control_c, 0, 64, 56
3, 223132, Control_c, 0, 64, 0
3, 223248, Control_c, 0, 64, 56
3, 223264, Control_c, 0, 64, 127
3, 223356, Note_on_c, 0, 71, 0
3, 223372, Note_on_c, 0, 67, 0
3, 223384, Note_on_c, 0, 64, 0
3, 223400, Note_on_c, 0, 76, 0
3, 223504, Note_on_c, 0, 74, 80
3, 223508, Note_on_c, 0, 62, 58
3, 223516, Note_on_c, 0, 71, 64
3, 223524, Note_on_c, 0, 67, 46
3, 223680, Note_on_c, 0, 62, 0
3, 223684, Note_on_c, 0, 74, 0
3, 223688, Note_on_c, 0, 71, 0
3, 223716, Note_on_c, 0, 73, 75
3, 223732, Note_on_c, 0, 61, 48
3, 223764, Note_on_c, 0, 67, 0
3, 223908, Note_on_c, 0, 73, 0
3, 223932, Note_on_c, 0, 61, 0
3, 223964, Note_on_c, 0, 74, 76
3, 223972, Note_on_c, 0, 62, 55
3, 223976, Note_on_c, 0, 71, 65
3, 223984, Control_c, 0, 64, 104
3, 223988, Note_on_c, 0, 67, 52
3, 224000, Control_c, 0, 64, 0
3, 224096, Note_on_c, 0, 71, 0
3, 224096, Control_c, 0, 64, 104
3, 224112, Control_c, 0, 64, 127
3, 224148, Note_on_c, 0, 67, 0
3, 224248, Note_on_c, 0, 62, 0
3, 224324, Note_on_c, 0, 74, 0
3, 224388, Note_on_c, 0, 70, 72
3, 224404, Note_on_c, 0, 58, 49
3, 224408, Note_on_c, 0, 64, 55
3, 224540, Note_on_c, 0, 58, 0
3, 224544, Note_on_c, 0, 64, 0
3, 224560, Note_on_c, 0, 70, 0
3, 224608, Note_on_c, 0, 59, 61
3, 224608, Note_on_c, 0, 71, 81
3, 224676, Note_on_c, 0, 59, 0
3, 224756, Note_on_c, 0, 71, 0
3, 224880, Note_on_c, 0, 73, 79
3, 224888, Note_on_c, 0, 70, 64
3, 224888, Note_on_c, 0, 61, 60
3, 224908, Note_on_c, 0, 67, 56
3, 224912, Note_on_c, 0, 58, 40
3, 224928, Note_on_c, 0, 52, 54
3, 224928, Control_c, 0, 64, 40
3, 224944, Control_c, 0, 64, 0
3, 225072, Control_c, 0, 64, 104
3, 225088, Control_c, 0, 64, 127
3, 225184, Note_on_c, 0, 67, 0
3, 225204, Note_on_c, 0, 61, 0
3, 225204, Note_on_c, 0, 70, 0
3, 225236, Note_on_c, 0, 58, 0
3, 225248, Note_on_c, 0, 52, 0
3, 225384, Note_on_c, 0, 70, 59
3, 225388, Note_on_c, 0, 61, 44
3, 225400, Note_on_c, 0, 67, 53
3, 225620, Note_on_c, 0, 70, 0
3, 225632, Note_on_c, 0, 67, 0
3, 225652, Note_on_c, 0, 61, 0
3, 225876, Note_on_c, 0, 70, 51
3, 225876, Note_on_c, 0, 61, 40
3, 225892, Note_on_c, 0, 40, 51
3, 225900, Note_on_c, 0, 67, 44
3, 226020, Note_on_c, 0, 40, 0
3, 226036, Note_on_c, 0, 61, 0
3, 226052, Note_on_c, 0, 67, 0
3, 226060, Note_on_c, 0, 73, 0
3, 226076, Note_on_c, 0, 70, 0
3, 226392, Note_on_c, 0, 72, 78
3, 226396, Note_on_c, 0, 70, 53
3, 226412, Note_on_c, 0, 67, 63
3, 226424, Note_on_c, 0, 60, 55
3, 226436, Control_c, 0, 64, 104
3, 226480, Control_c, 0, 64, 127
3, 226552, Note_on_c, 0, 72, 0
3, 226588, Note_on_c, 0, 70, 0
3, 226592, Note_on_c, 0, 67, 0
3, 226596, Note_on_c, 0, 60, 0
3, 226636, Note_on_c, 0, 71, 83
3, 226648, Note_on_c, 0, 59, 59
3, 226744, Note_on_c, 0, 59, 0
3, 226792, Note_on_c, 0, 71, 0
3, 226928, Note_on_c, 0, 70, 65
3, 226940, Note_on_c, 0, 72, 86
3, 226956, Note_on_c, 0, 67, 62
3, 226960, Note_on_c, 0, 60, 60
3, 226960, Control_c, 0, 64, 56
3, 226968, Note_on_c, 0, 52, 59
3, 226976, Control_c, 0, 64, 0
3, 227152, Control_c, 0, 64, 127
3, 227208, Note_on_c, 0, 60, 0
3, 227252, Note_on_c, 0, 67, 0
3, 227268, Note_on_c, 0, 70, 0
3, 227472, Note_on_c, 0, 70, 58
3, 227484, Note_on_c, 0, 60, 55
3, 227488, Note_on_c, 0, 67, 58
3, 227600, Note_on_c, 0, 52, 0
3, 227688, Note_on_c, 0, 70, 0
3, 227712, Note_on_c, 0, 67, 0
3, 227712, Note_on_c, 0, 60, 0
3, 227964, Note_on_c, 0, 70, 49
3, 227976, Note_on_c, 0, 60, 53
3, 227976, Note_on_c, 0, 67, 58
3, 228000, Note_on_c, 0, 40, 41
3, 228128, Note_on_c, 0, 60, 0
3, 228132, Note_on_c, 0, 40, 0
3, 228224, Note_on_c, 0, 70, 0
3, 228228, Note_on_c, 0, 67, 0
3, 228308, Note_on_c, 0, 72, 0
3, 228464, Note_on_c, 0, 71, 74
3, 228484, Note_on_c, 0, 64, 61
3, 228492, Note_on_c, 0, 59, 56
3, 228492, Note_on_c, 0, 67, 46
3, 228532, Note_on_c, 0, 67, 0
3, 228656, Note_on_c, 0, 59, 0
3, 228660, Note_on_c, 0, 71, 0
3, 228740, Note_on_c, 0, 58, 46
3, 228744, Note_on_c, 0, 64, 0
3, 228748, Note_on_c, 0, 70, 69
3, 228880, Note_on_c, 0, 70, 0
3, 228972, Note_on_c, 0, 58, 0
3, 229068, Note_on_c, 0, 71, 73
3, 229080, Note_on_c, 0, 67, 56
3, 229088, Note_on_c, 0, 64, 47
3, 229100, Note_on_c, 0, 59, 46
3, 229108, Note_on_c, 0, 52, 46
3, 229108, Control_c, 0, 64, 104
3, 229124, Control_c, 0, 64, 24
3, 229140, Control_c, 0, 64, 0
3, 229332, Control_c, 0, 64, 127
3, 229408, Note_on_c, 0, 67, 0
3, 229424, Note_on_c, 0, 64, 0
3, 229604, Note_on_c, 0, 67, 66
3, 229612, Note_on_c, 0, 64, 56
3, 229620, Note_on_c, 0, 55, 52
3, 229640, Note_on_c, 0, 59, 0
3, 229700, Note_on_c, 0, 71, 0
3, 229708, Note_on_c, 0, 52, 0
3, 229840, Note_on_c, 0, 55, 0
3, 229860, Note_on_c, 0, 69, 77
3, 229864, Note_on_c, 0, 67, 0
3, 229868, Note_on_c, 0, 57, 62
3, 229908, Note_on_c, 0, 64, 0
3, 229916, Note_on_c, 0, 69, 0
3, 229980, Note_on_c, 0, 57, 0
3, 230176, Note_on_c, 0, 70, 72
3, 230180, Note_on_c, 0, 58, 51
3, 230192, Note_on_c, 0, 67, 58
3, 230200, Note_on_c, 0, 64, 59
3, 230224, Note_on_c, 0, 50, 51
3, 230260, Control_c, 0, 64, 56
3, 230276, Control_c, 0, 64, 0
3, 230420, Control_c, 0, 64, 88
3, 230436, Control_c, 0, 64, 127
3, 230452, Note_on_c, 0, 64, 0
3, 230480, Note_on_c, 0, 58, 0
3, 230488, Note_on_c, 0, 67, 0
3, 230680, Note_on_c, 0, 67, 60
3, 230684, Note_on_c, 0, 58, 39
3, 230700, Note_on_c, 0, 64, 51
3, 230868, Note_on_c, 0, 64, 0
3, 230892, Note_on_c, 0, 58, 0
3, 230900, Note_on_c, 0, 67, 0
3, 231016, Note_on_c, 0, 50, 0
3, 231152, Note_on_c, 0, 58, 44
3, 231164, Note_on_c, 0, 67, 55
3, 231164, Note_on_c, 0, 64, 57
3, 231176, Note_on_c, 0, 48, 56
3, 231236, Control_c, 0, 64, 88
3, 231252, Control_c, 0, 64, 0
3, 231380, Control_c, 0, 64, 88
3, 231396, Control_c, 0, 64, 127
3, 231412, Note_on_c, 0, 64, 0
3, 231432, Note_on_c, 0, 58, 0
3, 231444, Note_on_c, 0, 67, 0
3, 231640, Note_on_c, 0, 58, 43
3, 231652, Note_on_c, 0, 67, 51
3, 231656, Note_on_c, 0, 64, 55
3, 231884, Note_on_c, 0, 67, 0
3, 231888, Note_on_c, 0, 64, 0
3, 231916, Note_on_c, 0, 58, 0
3, 232136, Note_on_c, 0, 58, 32
3, 232144, Note_on_c, 0, 67, 41
3, 232148, Note_on_c, 0, 64, 42
3, 232284, Note_on_c, 0, 64, 0
3, 232304, Note_on_c, 0, 67, 0
3, 232348, Note_on_c, 0, 70, 0
3, 232392, Note_on_c, 0, 48, 0
3, 232404, Note_on_c, 0, 58, 0
3, 232688, Note_on_c, 0, 60, 75
3, 232700, Note_on_c, 0, 48, 64
3, 232700, Note_on_c, 0, 58, 48
3, 232908, Note_on_c, 0, 60, 0
3, 232928, Note_on_c, 0, 48, 0
3, 232964, Note_on_c, 0, 62, 79
3, 232984, Note_on_c, 0, 50, 64
3, 233024, Note_on_c, 0, 58, 0
3, 233156, Note_on_c, 0, 62, 0
3, 233196, Note_on_c, 0, 50, 0
3, 233328, Note_on_c, 0, 64, 84
3, 233344, Note_on_c, 0, 60, 68
3, 233352, Note_on_c, 0, 57, 54
3, 233356, Note_on_c, 0, 52, 58
3, 233364, Note_on_c, 0, 41, 48
3, 233380, Control_c, 0, 64, 104
3, 233396, Control_c, 0, 64, 24
3, 233412, Control_c, 0, 64, 0
3, 233572, Control_c, 0, 64, 88
3, 233588, Control_c, 0, 64, 127
3, 233856, Note_on_c, 0, 63, 78
3, 233872, Note_on_c, 0, 52, 0
3, 233872, Note_on_c, 0, 51, 59
3, 233904, Note_on_c, 0, 64, 0
3, 234012, Note_on_c, 0, 60, 0
3, 234036, Note_on_c, 0, 63, 0
3, 234120, Note_on_c, 0, 62, 74
3, 234136, Note_on_c, 0, 51, 0
3, 234144, Note_on_c, 0, 50, 62
3, 234340, Note_on_c, 0, 50, 0
3, 234364, Note_on_c, 0, 62, 0
3, 234368, Note_on_c, 0, 63, 77
3, 234376, Note_on_c, 0, 51, 53
3, 234436, Control_c, 0, 64, 56
3, 234456, Control_c, 0, 64, 0
3, 234552, Control_c, 0, 64, 56
3, 234564, Control_c, 0, 64, 127
3, 234620, Note_on_c, 0, 51, 0
3, 234644, Note_on_c, 0, 57, 0
3, 234780, Note_on_c, 0, 63, 0
3, 234820, Note_on_c, 0, 59, 71
3, 234828, Note_on_c, 0, 47, 44
3, 234844, Note_on_c, 0, 57, 41
3, 235032, Note_on_c, 0, 41, 0
3, 235060, Note_on_c, 0, 59, 0
3, 235064, Note_on_c, 0, 47, 0
3, 235072, Note_on_c, 0, 60, 75
3, 235076, Note_on_c, 0, 48, 63
3, 235092, Note_on_c, 0, 57, 0
3, 235288, Note_on_c, 0, 60, 0
3, 235380, Note_on_c, 0, 48, 0
3, 235424, Note_on_c, 0, 62, 76
3, 235440, Note_on_c, 0, 59, 54
3, 235444, Note_on_c, 0, 57, 51
3, 235448, Note_on_c, 0, 50, 53
3, 235468, Note_on_c, 0, 42, 37
3, 235524, Control_c, 0, 64, 56
3, 235540, Control_c, 0, 64, 0
3, 235704, Control_c, 0, 64, 104
3, 235720, Control_c, 0, 64, 127
3, 235740, Note_on_c, 0, 59, 0
3, 235776, Note_on_c, 0, 57, 0
3, 235944, Note_on_c, 0, 59, 54
3, 235952, Note_on_c, 0, 57, 43
3, 236164, Note_on_c, 0, 59, 0
3, 236172, Note_on_c, 0, 57, 0
3, 236412, Note_on_c, 0, 59, 48
3, 236424, Note_on_c, 0, 57, 38
3, 236492, Note_on_c, 0, 62, 0
3, 236656, Note_on_c, 0, 59, 0
3, 236680, Note_on_c, 0, 63, 75
3, 236692, Note_on_c, 0, 50, 0
3, 236704, Note_on_c, 0, 51, 57
3, 236740, Note_on_c, 0, 57, 0
3, 236820, Note_on_c, 0, 63, 0
3, 236980, Note_on_c, 0, 51, 0
3, 237008, Note_on_c, 0, 64, 85
3, 237024, Note_on_c, 0, 59, 65
3, 237028, Note_on_c, 0, 52, 59
3, 237028, Note_on_c, 0, 57, 51
3, 237116, Note_on_c, 0, 42, 0
3, 237228, Note_on_c, 0, 52, 0
3, 237244, Note_on_c, 0, 64, 0
3, 237260, Note_on_c, 0, 59, 0
3, 237260, Note_on_c, 0, 65, 89
3, 237260, Note_on_c, 0, 53, 60
3, 237308, Note_on_c, 0, 57, 0
3, 237332, Note_on_c, 0, 53, 0
3, 237352, Note_on_c, 0, 65, 0
3, 237568, Note_on_c, 0, 44, 25
3, 237568, Note_on_c, 0, 66, 87
3, 237584, Note_on_c, 0, 54, 62
3, 237588, Note_on_c, 0, 62, 78
3, 237592, Note_on_c, 0, 59, 67
3, 237592, Note_on_c, 0, 43, 71
3, 237624, Control_c, 0, 64, 88
3, 237640, Control_c, 0, 64, 0
3, 237664, Note_on_c, 0, 44, 0
3, 237784, Control_c, 0, 64, 56
3, 237800, Control_c, 0, 64, 127
3, 237808, Note_on_c, 0, 44, 23
3, 238020, Note_on_c, 0, 54, 0
3, 238068, Note_on_c, 0, 66, 0
3, 238108, Note_on_c, 0, 65, 77
3, 238108, Note_on_c, 0, 53, 61
3, 238240, Note_on_c, 0, 65, 0
3, 238268, Note_on_c, 0, 53, 0
3, 238316, Note_on_c, 0, 44, 0
3, 238320, Note_on_c, 0, 62, 0
3, 238340, Note_on_c, 0, 52, 62
3, 238352, Note_on_c, 0, 64, 84
3, 238540, Note_on_c, 0, 52, 0
3, 238600, Note_on_c, 0, 64, 0
3, 238620, Note_on_c, 0, 65, 77
3, 238632, Note_on_c, 0, 53, 60
3, 238712, Control_c, 0, 64, 56
3, 238728, Control_c, 0, 64, 0
3, 238808, Control_c, 0, 64, 88
3, 238824, Control_c, 0, 64, 127
3, 239008, Note_on_c, 0, 59, 0
3, 239032, Note_on_c, 0, 53, 0
3, 239152, Note_on_c, 0, 62, 69
3, 239156, Note_on_c, 0, 59, 55
3, 239168, Note_on_c, 0, 50, 58
3, 239244, Note_on_c, 0, 65, 0
3, 239348, Note_on_c, 0, 43, 0
3, 239368, Note_on_c, 0, 50, 0
3, 239372, Note_on_c, 0, 62, 0
3, 239384, Note_on_c, 0, 51, 65
3, 239384, Note_on_c, 0, 63, 79
3, 239432, Note_on_c, 0, 59, 0
3, 239544, Note_on_c, 0, 63, 0
3, 239668, Note_on_c, 0, 51, 0
3, 239672, Note_on_c, 0, 64, 79
3, 239692, Note_on_c, 0, 62, 53
3, 239696, Note_on_c, 0, 59, 49
3, 239696, Note_on_c, 0, 44, 50
3, 239696, Note_on_c, 0, 52, 55
3, 239752, Control_c, 0, 64, 24
3, 239768, Control_c, 0, 64, 0
3, 239876, Note_on_c, 0, 62, 0
3, 239880, Control_c, 0, 64, 72
3, 239896, Control_c, 0, 64, 127
3, 239940, Note_on_c, 0, 59, 0
3, 240172, Note_on_c, 0, 62, 54
3, 240180, Note_on_c, 0, 59, 45
3, 240388, Note_on_c, 0, 62, 0
3, 240420, Note_on_c, 0, 52, 0
3, 240432, Note_on_c, 0, 64, 0
3, 240448, Note_on_c, 0, 59, 0
3, 240604, Note_on_c, 0, 44, 0
3, 240636, Note_on_c, 0, 63, 75
3, 240664, Note_on_c, 0, 42, 43
3, 240668, Note_on_c, 0, 51, 40
3, 240696, Note_on_c, 0, 57, 22
3, 240728, Note_on_c, 0, 60, 6
3, 240744, Control_c, 0, 64, 40
3, 240760, Control_c, 0, 64, 0
3, 240840, Control_c, 0, 64, 56
3, 240852, Note_on_c, 0, 60, 0
3, 240856, Control_c, 0, 64, 127
3, 240936, Note_on_c, 0, 57, 0
3, 240940, Note_on_c, 0, 42, 0
3, 241088, Note_on_c, 0, 59, 58
3, 241108, Note_on_c, 0, 41, 50
3, 241108, Note_on_c, 0, 57, 51
3, 241324, Note_on_c, 0, 63, 0
3, 241328, Note_on_c, 0, 59, 0
3, 241340, Note_on_c, 0, 60, 74
3, 241384, Note_on_c, 0, 41, 0
3, 241396, Note_on_c, 0, 57, 0
3, 241460, Note_on_c, 0, 51, 0
3, 241464, Note_on_c, 0, 60, 0
3, 241636, Note_on_c, 0, 62, 74
3, 241644, Note_on_c, 0, 56, 51
3, 241648, Note_on_c, 0, 59, 62
3, 241668, Note_on_c, 0, 40, 45
3, 241680, Note_on_c, 0, 52, 36
3, 241704, Control_c, 0, 64, 72
3, 241720, Control_c, 0, 64, 0
3, 241832, Control_c, 0, 64, 88
3, 241848, Control_c, 0, 64, 127
3, 241936, Note_on_c, 0, 56, 0
3, 241948, Note_on_c, 0, 59, 0
3, 242036, Note_on_c, 0, 62, 0
3, 242080, Note_on_c, 0, 60, 74
3, 242088, Note_on_c, 0, 56, 44
3, 242180, Note_on_c, 0, 52, 0
3, 242256, Note_on_c, 0, 40, 0
3, 242256, Note_on_c, 0, 60, 0
3, 242292, Note_on_c, 0, 59, 70
3, 242332, Note_on_c, 0, 56, 0
3, 242364, Note_on_c, 0, 59, 0
3, 242636, Note_on_c, 0, 60, 74
3, 242644, Note_on_c, 0, 52, 49
3, 242656, Note_on_c, 0, 57, 44
3, 242672, Note_on_c, 0, 45, 37
3, 242680, Note_on_c, 0, 33, 36
3, 242728, Control_c, 0, 64, 72
3, 242744, Control_c, 0, 64, 0
3, 242924, Control_c, 0, 64, 72
3, 242928, Note_on_c, 0, 57, 0
3, 242936, Note_on_c, 0, 52, 0
3, 242940, Control_c, 0, 64, 127
3, 243188, Note_on_c, 0, 52, 50
3, 243188, Note_on_c, 0, 57, 44
3, 243232, Note_on_c, 0, 33, 0
3, 243280, Note_on_c, 0, 45, 0
3, 243408, Note_on_c, 0, 52, 0
3, 243628, Note_on_c, 0, 57, 0
3, 243640, Note_on_c, 0, 52, 73
3, 243836, Note_on_c, 0, 60, 0
3, 244104, Note_on_c, 0, 60, 57
3, 244104, Note_on_c, 0, 57, 41
3, 244312, Note_on_c, 0, 57, 0
3, 244340, Note_on_c, 0, 60, 0
3, 244552, Note_on_c, 0, 52, 0
3, 244636, Note_on_c, 0, 54, 58
3, 244652, Note_on_c, 0, 60, 54
3, 244668, Note_on_c, 0, 57, 33
3, 244760, Control_c, 0, 64, 40
3, 244776, Control_c, 0, 64, 0
3, 244876, Control_c, 0, 64, 88
3, 244892, Note_on_c, 0, 57, 0
3, 244892, Control_c, 0, 64, 127
3, 244928, Note_on_c, 0, 60, 0
3, 245220, Note_on_c, 0, 67, 56
3, 245236, Note_on_c, 0, 64, 60
3, 245240, Note_on_c, 0, 54, 0
3, 245244, Note_on_c, 0, 55, 68
3, 245252, Note_on_c, 0, 60, 40
3, 245272, Control_c, 0, 64, 56
3, 245292, Control_c, 0, 64, 0
3, 245308, Control_c, 0, 64, 24
3, 245324, Control_c, 0, 64, 72
3, 245340, Control_c, 0, 64, 127
3, 245384, Note_on_c, 0, 67, 0
3, 245392, Note_on_c, 0, 55, 0
3, 245484, Note_on_c, 0, 64, 0
3, 245528, Note_on_c, 0, 66, 61
3, 245532, Note_on_c, 0, 60, 0
3, 245676, Note_on_c, 0, 66, 0
3, 245888, Note_on_c, 0, 67, 69
3, 245900, Note_on_c, 0, 63, 46
3, 245916, Note_on_c, 0, 60, 45
3, 245916, Note_on_c, 0, 59, 56
3, 245920, Note_on_c, 0, 45, 63
3, 245992, Control_c, 0, 64, 104
3, 246012, Control_c, 0, 64, 24
3, 246028, Control_c, 0, 64, 0
3, 246140, Control_c, 0, 64, 56
3, 246156, Control_c, 0, 64, 127
3, 246316, Note_on_c, 0, 67, 0
3, 246332, Note_on_c, 0, 60, 0
3, 246340, Note_on_c, 0, 59, 0
3, 246352, Note_on_c, 0, 63, 0
3, 246528, Note_on_c, 0, 65, 58
3, 246532, Note_on_c, 0, 60, 53
3, 246544, Note_on_c, 0, 63, 33
3, 246552, Note_on_c, 0, 57, 39
3, 246636, Control_c, 0, 64, 56
3, 246652, Control_c, 0, 64, 0
3, 246760, Control_c, 0, 64, 88
3, 246776, Control_c, 0, 64, 127
3, 246852, Note_on_c, 0, 65, 0
3, 246868, Note_on_c, 0, 66, 69
3, 246892, Note_on_c, 0, 63, 0
3, 246952, Note_on_c, 0, 60, 0
3, 247040, Note_on_c, 0, 66, 0
3, 247052, Note_on_c, 0, 57, 0
3, 247228, Note_on_c, 0, 67, 72
3, 247252, Note_on_c, 0, 60, 43
3, 247252, Note_on_c, 0, 64, 45
3, 247260, Note_on_c, 0, 55, 53
3, 247340, Control_c, 0, 64, 40
3, 247356, Control_c, 0, 64, 0
3, 247532, Control_c, 0, 64, 127
3, 247544, Note_on_c, 0, 64, 0
3, 247564, Note_on_c, 0, 60, 0
3, 247756, Note_on_c, 0, 64, 56
3, 247768, Note_on_c, 0, 60, 56
3, 248092, Note_on_c, 0, 60, 0
3, 248100, Note_on_c, 0, 64, 0
3, 248288, Note_on_c, 0, 64, 55
3, 248300, Note_on_c, 0, 60, 45
3, 248588, Note_on_c, 0, 60, 0
3, 248620, Note_on_c, 0, 64, 0
3, 248652, Note_on_c, 0, 67, 0
3, 248820, Note_on_c, 0, 66, 60
3, 248840, Note_on_c, 0, 60, 49
3, 248852, Note_on_c, 0, 64, 51
3, 249084, Note_on_c, 0, 64, 0
3, 249088, Note_on_c, 0, 66, 0
3, 249112, Note_on_c, 0, 67, 73
3, 249192, Note_on_c, 0, 60, 0
3, 249344, Note_on_c, 0, 67, 0
3, 249376, Note_on_c, 0, 55, 0
3, 249440, Note_on_c, 0, 69, 67
3, 249452, Note_on_c, 0, 64, 55
3, 249456, Note_on_c, 0, 54, 44
3, 249464, Note_on_c, 0, 60, 39
3, 249548, Control_c, 0, 64, 56
3, 249564, Control_c, 0, 64, 0
3, 249660, Control_c, 0, 64, 40
3, 249672, Control_c, 0, 64, 127
3, 249744, Note_on_c, 0, 64, 0
3, 249784, Note_on_c, 0, 54, 0
3, 249864, Note_on_c, 0, 60, 0
3, 249952, Note_on_c, 0, 69, 0
3, 250012, Note_on_c, 0, 67, 59
3, 250012, Note_on_c, 0, 53, 39
3, 250020, Note_on_c, 0, 62, 56
3, 250028, Note_on_c, 0, 60, 48
3, 250132, Note_on_c, 0, 45, 0
3, 250224, Note_on_c, 0, 53, 0
3, 250252, Note_on_c, 0, 54, 54
3, 250268, Note_on_c, 0, 69, 74
3, 250272, Note_on_c, 0, 62, 0
3, 250320, Note_on_c, 0, 67, 0
3, 250356, Note_on_c, 0, 60, 0
3, 250372, Note_on_c, 0, 69, 0
3, 250556, Note_on_c, 0, 54, 0
3, 250636, Note_on_c, 0, 71, 75
3, 250652, Note_on_c, 0, 59, 45
3, 250656, Note_on_c, 0, 64, 51
3, 250660, Note_on_c, 0, 55, 41
3, 250680, Note_on_c, 0, 47, 48
3, 250720, Control_c, 0, 64, 40
3, 250732, Control_c, 0, 64, 0
3, 250844, Control_c, 0, 64, 40
3, 250860, Control_c, 0, 64, 127
3, 250956, Note_on_c, 0, 59, 0
3, 250996, Note_on_c, 0, 55, 0
3, 251028, Note_on_c, 0, 64, 0
3, 251192, Note_on_c, 0, 69, 58
3, 251196, Note_on_c, 0, 60, 54
3, 251200, Note_on_c, 0, 64, 49
3, 251220, Note_on_c, 0, 57, 52
3, 251292, Control_c, 0, 64, 88
3, 251308, Control_c, 0, 64, 0
3, 251388, Control_c, 0, 64, 56
3, 251408, Control_c, 0, 64, 127
3, 251500, Note_on_c, 0, 60, 0
3, 251520, Note_on_c, 0, 64, 0
3, 251532, Note_on_c, 0, 69, 0
3, 251636, Note_on_c, 0, 57, 0
3, 251792, Note_on_c, 0, 67, 60
3, 251796, Note_on_c, 0, 61, 43
3, 251804, Note_on_c, 0, 64, 57
3, 251816, Note_on_c, 0, 58, 51
3, 251904, Control_c, 0, 64, 104
3, 251920, Control_c, 0, 64, 56
3, 251936, Control_c, 0, 64, 0
3, 252060, Control_c, 0, 64, 56
3, 252076, Control_c, 0, 64, 127
3, 252088, Note_on_c, 0, 64, 0
3, 252192, Note_on_c, 0, 61, 0
3, 252228, Note_on_c, 0, 67, 0
3, 252288, Note_on_c, 0, 58, 0
3, 252492, Note_on_c, 0, 69, 56
3, 252492, Note_on_c, 0, 66, 37
3, 252504, Note_on_c, 0, 63, 40
3, 252520, Note_on_c, 0, 59, 43
3, 252592, Control_c, 0, 64, 104
3, 252608, Control_c, 0, 64, 40
3, 252624, Control_c, 0, 64, 0
3, 252796, Control_c, 0, 64, 56
3, 252812, Control_c, 0, 64, 104
3, 252828, Control_c, 0, 64, 127
3, 252944, Note_on_c, 0, 66, 0
3, 252980, Note_on_c, 0, 69, 0
3, 252984, Note_on_c, 0, 47, 0
3, 253016, Note_on_c, 0, 63, 0
3, 253064, Note_on_c, 0, 59, 0
3, 253328, Note_on_c, 0, 67, 55
3, 253340, Note_on_c, 0, 64, 52
3, 253340, Note_on_c, 0, 59, 37
3, 253352, Note_on_c, 0, 52, 41
3, 253408, Control_c, 0, 64, 88
3, 253424, Control_c, 0, 64, 24
3, 253440, Control_c, 0, 64, 0
3, 253568, Control_c, 0, 64, 72
3, 253584, Control_c, 0, 64, 127
3, 253648, Note_on_c, 0, 64, 0
3, 253652, Note_on_c, 0, 67, 0
3, 253856, Note_on_c, 0, 67, 47
3, 253860, Note_on_c, 0, 64, 48
3, 254084, Note_on_c, 0, 64, 0
3, 254100, Note_on_c, 0, 67, 0
3, 254320, Note_on_c, 0, 67, 43
3, 254320, Note_on_c, 0, 64, 45
3, 254376, Note_on_c, 0, 67, 30
3, 254400, Note_on_c, 0, 64, 25
3, 254472, Note_on_c, 0, 67, 0
3, 254516, Note_on_c, 0, 64, 0
3, 254516, Note_on_c, 0, 59, 0
3, 254532, Note_on_c, 0, 64, 0
3, 254568, Note_on_c, 0, 67, 0
3, 254820, Note_on_c, 0, 79, 84
3, 254836, Note_on_c, 0, 64, 36
3, 254844, Note_on_c, 0, 67, 37
3, 254856, Note_on_c, 0, 71, 0
3, 254860, Note_on_c, 0, 71, 32
3, 254976, Note_on_c, 0, 52, 0
3, 255012, Note_on_c, 0, 79, 0
3, 255052, Note_on_c, 0, 71, 0
3, 255076, Note_on_c, 0, 78, 88
3, 255096, Note_on_c, 0, 64, 0
3, 255120, Note_on_c, 0, 67, 0
3, 255220, Note_on_c, 0, 78, 0
3, 255384, Note_on_c, 0, 79, 89
3, 255412, Note_on_c, 0, 71, 51
3, 255412, Control_c, 0, 64, 104
3, 255420, Note_on_c, 0, 67, 47
3, 255420, Note_on_c, 0, 62, 28
3, 255424, Note_on_c, 0, 64, 32
3, 255428, Control_c, 0, 64, 40
3, 255444, Control_c, 0, 64, 0
3, 255588, Control_c, 0, 64, 88
3, 255604, Control_c, 0, 64, 127
3, 255644, Note_on_c, 0, 64, 0
3, 255684, Note_on_c, 0, 71, 0
3, 255696, Note_on_c, 0, 67, 0
3, 255892, Note_on_c, 0, 64, 39
3, 255896, Note_on_c, 0, 71, 48
3, 255900, Note_on_c, 0, 67, 34
3, 256112, Note_on_c, 0, 64, 0
3, 256184, Note_on_c, 0, 71, 0
3, 256192, Note_on_c, 0, 67, 0
3, 256388, Note_on_c, 0, 64, 43
3, 256392, Note_on_c, 0, 67, 40
3, 256392, Note_on_c, 0, 71, 48
3, 256572, Note_on_c, 0, 67, 0
3, 256628, Note_on_c, 0, 64, 0
3, 256644, Note_on_c, 0, 71, 0
3, 256804, Note_on_c, 0, 79, 0
3, 256892, Note_on_c, 0, 76, 82
3, 256904, Note_on_c, 0, 67, 55
3, 256916, Note_on_c, 0, 71, 47
3, 256932, Note_on_c, 0, 64, 35
3, 256952, Note_on_c, 0, 71, 0
3, 257116, Note_on_c, 0, 76, 0
3, 257136, Note_on_c, 0, 78, 88
3, 257168, Note_on_c, 0, 64, 0
3, 257188, Note_on_c, 0, 67, 0
3, 257252, Note_on_c, 0, 62, 0
3, 257304, Note_on_c, 0, 78, 0
3, 257436, Note_on_c, 0, 79, 90
3, 257456, Note_on_c, 0, 71, 55
3, 257456, Note_on_c, 0, 67, 55
3, 257460, Note_on_c, 0, 60, 41
3, 257464, Note_on_c, 0, 64, 39
3, 257524, Control_c, 0, 64, 72
3, 257544, Control_c, 0, 64, 0
3, 257668, Control_c, 0, 64, 40
3, 257684, Control_c, 0, 64, 127
3, 257732, Note_on_c, 0, 79, 0
3, 257756, Note_on_c, 0, 64, 0
3, 257800, Note_on_c, 0, 67, 0
3, 257824, Note_on_c, 0, 71, 0
3, 257912, Note_on_c, 0, 78, 87
3, 257940, Note_on_c, 0, 64, 49
3, 257944, Note_on_c, 0, 67, 60
3, 257956, Note_on_c, 0, 71, 37
3, 258104, Note_on_c, 0, 78, 0
3, 258124, Note_on_c, 0, 71, 0
3, 258148, Note_on_c, 0, 76, 89
3, 258164, Note_on_c, 0, 64, 0
3, 258176, Note_on_c, 0, 67, 0
3, 258240, Note_on_c, 0, 76, 0
3, 258440, Note_on_c, 0, 78, 78
3, 258464, Note_on_c, 0, 66, 47
3, 258464, Note_on_c, 0, 69, 61
3, 258480, Note_on_c, 0, 64, 41
3, 258516, Control_c, 0, 64, 72
3, 258532, Control_c, 0, 64, 24
3, 258548, Control_c, 0, 64, 0
3, 258676, Control_c, 0, 64, 104
3, 258692, Control_c, 0, 64, 127
3, 258808, Note_on_c, 0, 69, 0
3, 258812, Note_on_c, 0, 66, 0
3, 258812, Note_on_c, 0, 78, 0
3, 258924, Note_on_c, 0, 64, 0
3, 258992, Note_on_c, 0, 74, 75
3, 259012, Note_on_c, 0, 66, 35
3, 259024, Note_on_c, 0, 62, 44
3, 259028, Note_on_c, 0, 69, 44
3, 259176, Note_on_c, 0, 74, 0
3, 259240, Note_on_c, 0, 76, 87
3, 259292, Note_on_c, 0, 69, 0
3, 259304, Note_on_c, 0, 66, 0
3, 259340, Note_on_c, 0, 76, 0
3, 259376, Note_on_c, 0, 62, 0
3, 259376, Note_on_c, 0, 60, 0
3, 259532, Note_on_c, 0, 78, 83
3, 259536, Note_on_c, 0, 62, 32
3, 259552, Note_on_c, 0, 66, 45
3, 259560, Note_on_c, 0, 69, 57
3, 259564, Note_on_c, 0, 59, 38
3, 259592, Control_c, 0, 64, 72
3, 259608, Control_c, 0, 64, 24
3, 259624, Control_c, 0, 64, 0
3, 259720, Control_c, 0, 64, 40
3, 259736, Control_c, 0, 64, 127
3, 259792, Note_on_c, 0, 62, 0
3, 259808, Note_on_c, 0, 69, 0
3, 259808, Note_on_c, 0, 66, 0
3, 260008, Note_on_c, 0, 62, 30
3, 260012, Note_on_c, 0, 69, 45
3, 260024, Note_on_c, 0, 66, 32
3, 260212, Note_on_c, 0, 69, 0
3, 260224, Note_on_c, 0, 66, 0
3, 260236, Note_on_c, 0, 62, 0
3, 260456, Note_on_c, 0, 62, 45
3, 260460, Note_on_c, 0, 66, 36
3, 260464, Note_on_c, 0, 69, 55
3, 260656, Note_on_c, 0, 69, 0
3, 260676, Note_on_c, 0, 66, 0
3, 260688, Note_on_c, 0, 62, 0
3, 260952, Note_on_c, 0, 69, 40
3, 260964, Note_on_c, 0, 66, 30
3, 260972, Note_on_c, 0, 62, 42
3, 261104, Note_on_c, 0, 69, 0
3, 261244, Note_on_c, 0, 66, 0
3, 261256, Note_on_c, 0, 78, 0
3, 261324, Note_on_c, 0, 62, 0
3, 261484, Note_on_c, 0, 67, 46
3, 261488, Note_on_c, 0, 60, 45
3, 261488, Note_on_c, 0, 64, 33
3, 261608, Control_c, 0, 64, 56
3, 261628, Control_c, 0, 64, 0
3, 261704, Control_c, 0, 64, 56
3, 261720, Control_c, 0, 64, 127
3, 261752, Note_on_c, 0, 64, 0
3, 261760, Note_on_c, 0, 60, 0
3, 261780, Note_on_c, 0, 67, 0
3, 261992, Note_on_c, 0, 76, 86
3, 262008, Note_on_c, 0, 64, 60
3, 262012, Note_on_c, 0, 67, 55
3, 262028, Note_on_c, 0, 60, 49
3, 262164, Note_on_c, 0, 76, 0
3, 262204, Note_on_c, 0, 67, 0
3, 262204, Note_on_c, 0, 59, 0
3, 262220, Note_on_c, 0, 74, 89
3, 262272, Note_on_c, 0, 64, 0
3, 262336, Note_on_c, 0, 74, 0
3, 262336, Note_on_c, 0, 60, 0
3, 262504, Note_on_c, 0, 76, 88
3, 262520, Note_on_c, 0, 66, 44
3, 262524, Note_on_c, 0, 64, 54
3, 262536, Note_on_c, 0, 60, 39
3, 262552, Note_on_c, 0, 57, 36
3, 262568, Control_c, 0, 64, 72
3, 262584, Control_c, 0, 64, 0
3, 262696, Control_c, 0, 64, 88
3, 262712, Control_c, 0, 64, 127
3, 262772, Note_on_c, 0, 60, 0
3, 262828, Note_on_c, 0, 64, 0
3, 262836, Note_on_c, 0, 66, 0
3, 262936, Note_on_c, 0, 76, 0
3, 263012, Note_on_c, 0, 72, 79
3, 263024, Note_on_c, 0, 60, 48
3, 263028, Note_on_c, 0, 66, 43
3, 263032, Note_on_c, 0, 64, 48
3, 263228, Note_on_c, 0, 72, 0
3, 263244, Note_on_c, 0, 74, 82
3, 263280, Note_on_c, 0, 66, 0
3, 263304, Note_on_c, 0, 64, 0
3, 263344, Note_on_c, 0, 57, 0
3, 263348, Note_on_c, 0, 74, 0
3, 263412, Note_on_c, 0, 60, 0
3, 263540, Note_on_c, 0, 76, 78
3, 263556, Note_on_c, 0, 67, 46
3, 263564, Note_on_c, 0, 64, 36
3, 263568, Note_on_c, 0, 59, 39
3, 263576, Note_on_c, 0, 55, 39
3, 263628, Control_c, 0, 64, 56
3, 263644, Control_c, 0, 64, 0
3, 263752, Control_c, 0, 64, 104
3, 263768, Control_c, 0, 64, 127
3, 263848, Note_on_c, 0, 59, 0
3, 263860, Note_on_c, 0, 64, 0
3, 263860, Note_on_c, 0, 67, 0
3, 264040, Note_on_c, 0, 67, 46
3, 264040, Note_on_c, 0, 64, 38
3, 264044, Note_on_c, 0, 59, 45
3, 264256, Note_on_c, 0, 59, 0
3, 264304, Note_on_c, 0, 67, 0
3, 264304, Note_on_c, 0, 64, 0
3, 264508, Note_on_c, 0, 59, 43
3, 264536, Note_on_c, 0, 67, 44
3, 264536, Note_on_c, 0, 64, 31
3, 264736, Note_on_c, 0, 59, 0
3, 264768, Note_on_c, 0, 64, 0
3, 264772, Note_on_c, 0, 67, 0
3, 264976, Note_on_c, 0, 59, 48
3, 264996, Note_on_c, 0, 67, 43
3, 265012, Note_on_c, 0, 64, 31
3, 265212, Note_on_c, 0, 67, 0
3, 265232, Note_on_c, 0, 55, 0
3, 265288, Note_on_c, 0, 64, 0
3, 265292, Note_on_c, 0, 59, 0
3, 265488, Note_on_c, 0, 69, 42
3, 265492, Note_on_c, 0, 54, 32
3, 265492, Note_on_c, 0, 59, 35
3, 265500, Note_on_c, 0, 64, 25
3, 265580, Control_c, 0, 64, 72
3, 265592, Control_c, 0, 64, 0
3, 265692, Control_c, 0, 64, 72
3, 265700, Note_on_c, 0, 76, 0
3, 265708, Control_c, 0, 64, 127
3, 265744, Note_on_c, 0, 64, 0
3, 265752, Note_on_c, 0, 59, 0
3, 265800, Note_on_c, 0, 69, 0
3, 265944, Note_on_c, 0, 74, 83
3, 265968, Note_on_c, 0, 64, 60
3, 265968, Note_on_c, 0, 69, 57
3, 265988, Note_on_c, 0, 59, 35
3, 266124, Note_on_c, 0, 74, 0
3, 266200, Note_on_c, 0, 69, 0
3, 266200, Note_on_c, 0, 72, 85
3, 266240, Note_on_c, 0, 64, 0
3, 266260, Note_on_c, 0, 54, 0
3, 266360, Note_on_c, 0, 59, 0
3, 266380, Note_on_c, 0, 72, 0
3, 266496, Note_on_c, 0, 71, 78
3, 266508, Note_on_c, 0, 57, 40
3, 266512, Note_on_c, 0, 63, 43
3, 266524, Note_on_c, 0, 69, 55
3, 266524, Note_on_c, 0, 53, 36
3, 266568, Control_c, 0, 64, 72
3, 266584, Control_c, 0, 64, 0
3, 266700, Control_c, 0, 64, 88
3, 266716, Control_c, 0, 64, 127
3, 266740, Note_on_c, 0, 69, 0
3, 266752, Note_on_c, 0, 63, 0
3, 266776, Note_on_c, 0, 57, 0
3, 266984, Note_on_c, 0, 63, 35
3, 266988, Note_on_c, 0, 57, 34
3, 267220, Note_on_c, 0, 71, 0
3, 267232, Note_on_c, 0, 69, 78
3, 267304, Note_on_c, 0, 63, 0
3, 267308, Note_on_c, 0, 57, 0
3, 267312, Note_on_c, 0, 69, 0
3, 267368, Note_on_c, 0, 53, 0
3, 267556, Note_on_c, 0, 71, 71
3, 267568, Note_on_c, 0, 62, 53
3, 267584, Note_on_c, 0, 69, 50
3, 267588, Note_on_c, 0, 52, 61
3, 267588, Note_on_c, 0, 59, 47
3, 267676, Control_c, 0, 64, 88
3, 267692, Control_c, 0, 64, 24
3, 267708, Control_c, 0, 64, 0
3, 267788, Control_c, 0, 64, 40
3, 267804, Control_c, 0, 64, 127
3, 267876, Note_on_c, 0, 69, 0
3, 267908, Note_on_c, 0, 59, 0
3, 267908, Note_on_c, 0, 62, 0
3, 268092, Note_on_c, 0, 62, 38
3, 268096, Note_on_c, 0, 69, 42
3, 268116, Note_on_c, 0, 59, 29
3, 268248, Note_on_c, 0, 71, 0
3, 268316, Note_on_c, 0, 69, 0
3, 268348, Note_on_c, 0, 72, 71
3, 268476, Note_on_c, 0, 59, 0
3, 268492, Note_on_c, 0, 62, 0
3, 268524, Note_on_c, 0, 72, 0
3, 268664, Note_on_c, 0, 71, 66
3, 268680, Note_on_c, 0, 68, 51
3, 268684, Note_on_c, 0, 62, 42
3, 268696, Note_on_c, 0, 64, 52
3, 268696, Note_on_c, 0, 59, 36
3, 268780, Control_c, 0, 64, 88
3, 268796, Control_c, 0, 64, 40
3, 268812, Control_c, 0, 64, 0
3, 268908, Control_c, 0, 64, 72
3, 268924, Control_c, 0, 64, 127
3, 268976, Note_on_c, 0, 59, 0
3, 269012, Note_on_c, 0, 64, 0
3, 269016, Note_on_c, 0, 62, 0
3, 269028, Note_on_c, 0, 68, 0
3, 269180, Note_on_c, 0, 68, 35
3, 269196, Note_on_c, 0, 62, 33
3, 269200, Note_on_c, 0, 64, 43
3, 269204, Note_on_c, 0, 59, 43
3, 269316, Note_on_c, 0, 52, 0
3, 269324, Note_on_c, 0, 59, 0
3, 269372, Note_on_c, 0, 68, 0
3, 269404, Note_on_c, 0, 64, 0
3, 269444, Note_on_c, 0, 62, 0
3, 269680, Note_on_c, 0, 67, 60
3, 269696, Note_on_c, 0, 60, 49
3, 269696, Note_on_c, 0, 64, 53
3, 269696, Control_c, 0, 64, 56
3, 269712, Control_c, 0, 64, 0
3, 269724, Note_on_c, 0, 52, 44
3, 269732, Note_on_c, 0, 45, 61
3, 269772, Control_c, 0, 64, 56
3, 269788, Note_on_c, 0, 60, 0
3, 269788, Control_c, 0, 64, 127
3, 269816, Note_on_c, 0, 64, 0
3, 269860, Note_on_c, 0, 67, 0
3, 269864, Note_on_c, 0, 45, 0
3, 269864, Note_on_c, 0, 52, 0
3, 269880, Note_on_c, 0, 71, 0
3, 270004, Note_on_c, 0, 72, 87
3, 270256, Note_on_c, 0, 76, 92
3, 270288, Note_on_c, 0, 67, 56
3, 270288, Note_on_c, 0, 64, 59
3, 270296, Note_on_c, 0, 60, 60
3, 270324, Note_on_c, 0, 64, 0
3, 270332, Note_on_c, 0, 67, 0
3, 270344, Note_on_c, 0, 60, 0
3, 270448, Note_on_c, 0, 72, 0
3, 270456, Note_on_c, 0, 76, 0
3, 270484, Note_on_c, 0, 79, 93
3, 270572, Control_c, 0, 64, 40
3, 270588, Control_c, 0, 64, 0
3, 270600, Note_on_c, 0, 50, 70
3, 270652, Control_c, 0, 64, 72
3, 270664, Note_on_c, 0, 60, 73
3, 270668, Note_on_c, 0, 50, 0
3, 270668, Control_c, 0, 64, 127
3, 270780, Note_on_c, 0, 79, 0
3, 270836, Note_on_c, 0, 81, 90
3, 270836, Note_on_c, 0, 66, 39
3, 270856, Note_on_c, 0, 72, 71
3, 270896, Note_on_c, 0, 60, 0
3, 271160, Note_on_c, 0, 72, 0
3, 271276, Note_on_c, 0, 66, 0
3, 271312, Note_on_c, 0, 81, 0
3, 271376, Note_on_c, 0, 83, 86
3, 271404, Note_on_c, 0, 72, 64
3, 271404, Note_on_c, 0, 64, 52
3, 271416, Note_on_c, 0, 60, 44
3, 271588, Note_on_c, 0, 83, 0
3, 271600, Note_on_c, 0, 64, 0
3, 271620, Note_on_c, 0, 72, 0
3, 271668, Note_on_c, 0, 66, 69
3, 271712, Note_on_c, 0, 60, 0
3, 271772, Note_on_c, 0, 66, 0
3, 272004, Note_on_c, 0, 79, 78
3, 272032, Note_on_c, 0, 76, 54
3, 272032, Note_on_c, 0, 67, 46
3, 272032, Note_on_c, 0, 71, 42
3, 272048, Note_on_c, 0, 52, 54
3, 272048, Note_on_c, 0, 59, 37
3, 272128, Control_c, 0, 64, 72
3, 272144, Control_c, 0, 64, 0
3, 272268, Control_c, 0, 64, 88
3, 272284, Control_c, 0, 64, 127
3, 272352, Note_on_c, 0, 76, 0
3, 272360, Note_on_c, 0, 71, 0
3, 272572, Note_on_c, 0, 76, 56
3, 272576, Note_on_c, 0, 71, 49
3, 272800, Note_on_c, 0, 71, 0
3, 272808, Note_on_c, 0, 67, 0
3, 272908, Note_on_c, 0, 52, 0
3, 272920, Note_on_c, 0, 76, 0
3, 273036, Note_on_c, 0, 59, 0
3, 273112, Note_on_c, 0, 72, 46
3, 273112, Note_on_c, 0, 69, 39
3, 273136, Note_on_c, 0, 57, 48
3, 273280, Control_c, 0, 64, 56
3, 273296, Control_c, 0, 64, 0
3, 273392, Control_c, 0, 64, 88
3, 273408, Control_c, 0, 64, 127
3, 273452, Note_on_c, 0, 72, 0
3, 273460, Note_on_c, 0, 69, 0
3, 273660, Note_on_c, 0, 57, 0
3, 273668, Note_on_c, 0, 79, 0
3, 273696, Note_on_c, 0, 77, 74
3, 273704, Note_on_c, 0, 55, 58
3, 273720, Note_on_c, 0, 69, 42
3, 273720, Note_on_c, 0, 72, 52
3, 273920, Note_on_c, 0, 72, 0
3, 273940, Note_on_c, 0, 55, 0
3, 273976, Note_on_c, 0, 57, 58
3, 274108, Note_on_c, 0, 69, 0
3, 274144, Note_on_c, 0, 77, 0
3, 274272, Note_on_c, 0, 76, 73
3, 274292, Note_on_c, 0, 57, 0
3, 274300, Note_on_c, 0, 71, 46
3, 274304, Note_on_c, 0, 59, 60
3, 274312, Note_on_c, 0, 67, 40
3, 274384, Control_c, 0, 64, 88
3, 274400, Control_c, 0, 64, 24
3, 274416, Control_c, 0, 64, 0
3, 274512, Control_c, 0, 64, 104
3, 274528, Control_c, 0, 64, 127
3, 274628, Note_on_c, 0, 67, 0
3, 274628, Note_on_c, 0, 71, 0
3, 274828, Note_on_c, 0, 71, 48
3, 274840, Note_on_c, 0, 67, 43
3, 274984, Note_on_c, 0, 67, 0
3, 274988, Note_on_c, 0, 71, 0
3, 275068, Note_on_c, 0, 59, 0
3, 275116, Note_on_c, 0, 59, 22
3, 275352, Note_on_c, 0, 76, 0
3, 275368, Note_on_c, 0, 69, 45
3, 275372, Note_on_c, 0, 75, 71
3, 275380, Note_on_c, 0, 66, 38
3, 275424, Control_c, 0, 64, 56
3, 275440, Control_c, 0, 64, 0
3, 275516, Note_on_c, 0, 75, 0
3, 275520, Note_on_c, 0, 76, 70
3, 275520, Control_c, 0, 64, 88
3, 275536, Control_c, 0, 64, 127
3, 275612, Note_on_c, 0, 76, 0
3, 275620, Note_on_c, 0, 75, 67
3, 275696, Note_on_c, 0, 75, 0
3, 275700, Note_on_c, 0, 76, 68
3, 275768, Note_on_c, 0, 75, 56
3, 275772, Note_on_c, 0, 66, 0
3, 275772, Note_on_c, 0, 69, 0
3, 275776, Note_on_c, 0, 76, 0
3, 275848, Note_on_c, 0, 75, 0
3, 275856, Note_on_c, 0, 76, 68
3, 275928, Note_on_c, 0, 75, 56
3, 275932, Note_on_c, 0, 76, 0
3, 275980, Note_on_c, 0, 66, 35
3, 275988, Note_on_c, 0, 69, 43
3, 276008, Note_on_c, 0, 75, 0
3, 276016, Note_on_c, 0, 76, 63
3, 276060, Note_on_c, 0, 76, 0
3, 276120, Note_on_c, 0, 75, 25
3, 276148, Note_on_c, 0, 75, 0
3, 276164, Note_on_c, 0, 76, 67
3, 276236, Note_on_c, 0, 75, 67
3, 276252, Note_on_c, 0, 76, 0
3, 276328, Note_on_c, 0, 75, 0
3, 276356, Note_on_c, 0, 73, 59
3, 276364, Note_on_c, 0, 69, 0
3, 276364, Note_on_c, 0, 66, 0
3, 276456, Note_on_c, 0, 75, 71
3, 276480, Note_on_c, 0, 73, 0
3, 276516, Note_on_c, 0, 75, 0
3, 276640, Note_on_c, 0, 59, 0
3, 276732, Note_on_c, 0, 76, 77
3, 276744, Note_on_c, 0, 64, 49
3, 276748, Note_on_c, 0, 60, 43
3, 276756, Note_on_c, 0, 67, 48
3, 276768, Control_c, 0, 64, 56
3, 276784, Control_c, 0, 64, 0
3, 276912, Control_c, 0, 64, 72
3, 276928, Control_c, 0, 64, 127
3, 277004, Note_on_c, 0, 60, 0
3, 277016, Note_on_c, 0, 59, 53
3, 277020, Note_on_c, 0, 67, 0
3, 277204, Note_on_c, 0, 64, 0
3, 277252, Note_on_c, 0, 59, 0
3, 277264, Note_on_c, 0, 69, 58
3, 277264, Control_c, 0, 64, 88
3, 277272, Note_on_c, 0, 66, 36
3, 277280, Note_on_c, 0, 60, 53
3, 277284, Control_c, 0, 64, 24
3, 277296, Control_c, 0, 64, 0
3, 277348, Control_c, 0, 64, 56
3, 277364, Control_c, 0, 64, 104
3, 277380, Control_c, 0, 64, 127
3, 277396, Note_on_c, 0, 66, 0
3, 277456, Note_on_c, 0, 69, 0
3, 277492, Note_on_c, 0, 60, 0
3, 277532, Note_on_c, 0, 62, 61
3, 277764, Note_on_c, 0, 62, 0
3, 277776, Note_on_c, 0, 71, 53
3, 277788, Note_on_c, 0, 67, 41
3, 277800, Note_on_c, 0, 64, 56
3, 278008, Note_on_c, 0, 71, 0
3, 278024, Note_on_c, 0, 65, 70
3, 278032, Note_on_c, 0, 67, 0
3, 278036, Note_on_c, 0, 64, 0
3, 278064, Note_on_c, 0, 76, 0
3, 278304, Note_on_c, 0, 65, 0
3, 278320, Note_on_c, 0, 76, 75
3, 278320, Control_c, 0, 64, 56
3, 278332, Note_on_c, 0, 68, 46
3, 278332, Note_on_c, 0, 72, 70
3, 278336, Note_on_c, 0, 64, 62
3, 278336, Control_c, 0, 64, 0
3, 278412, Note_on_c, 0, 72, 0
3, 278416, Control_c, 0, 64, 72
3, 278432, Control_c, 0, 64, 127
3, 278540, Note_on_c, 0, 76, 0
3, 278580, Note_on_c, 0, 68, 0
3, 278584, Note_on_c, 0, 64, 0
3, 278596, Note_on_c, 0, 74, 83
3, 278600, Note_on_c, 0, 71, 66
3, 278600, Note_on_c, 0, 62, 58
3, 278684, Note_on_c, 0, 71, 0
3, 278752, Note_on_c, 0, 74, 0
3, 278800, Note_on_c, 0, 62, 0
3, 278888, Note_on_c, 0, 76, 81
3, 278904, Note_on_c, 0, 67, 57
3, 278904, Note_on_c, 0, 72, 70
3, 278920, Note_on_c, 0, 64, 41
3, 278924, Note_on_c, 0, 60, 48
3, 278976, Control_c, 0, 64, 56
3, 278996, Control_c, 0, 64, 0
3, 279088, Control_c, 0, 64, 88
3, 279104, Control_c, 0, 64, 127
3, 279164, Note_on_c, 0, 76, 0
3, 279172, Note_on_c, 0, 72, 0
3, 279196, Note_on_c, 0, 67, 0
3, 279424, Note_on_c, 0, 74, 66
3, 279428, Note_on_c, 0, 60, 0
3, 279432, Note_on_c, 0, 64, 0
3, 279436, Note_on_c, 0, 71, 60
3, 279444, Note_on_c, 0, 62, 49
3, 279444, Note_on_c, 0, 66, 46
3, 279456, Control_c, 0, 64, 88
3, 279472, Control_c, 0, 64, 24
3, 279488, Control_c, 0, 64, 0
3, 279536, Control_c, 0, 64, 56
3, 279548, Note_on_c, 0, 64, 4
3, 279552, Control_c, 0, 64, 127
3, 279616, Note_on_c, 0, 74, 0
3, 279656, Note_on_c, 0, 71, 0
3, 279696, Note_on_c, 0, 72, 78
3, 279712, Note_on_c, 0, 69, 61
3, 279716, Note_on_c, 0, 62, 0
3, 279720, Note_on_c, 0, 60, 39
3, 279724, Note_on_c, 0, 66, 0
3, 279760, Note_on_c, 0, 69, 0
3, 279776, Note_on_c, 0, 64, 0
3, 279852, Note_on_c, 0, 72, 0
3, 279852, Note_on_c, 0, 60, 0
3, 279980, Note_on_c, 0, 74, 74
3, 279992, Note_on_c, 0, 70, 58
3, 279996, Note_on_c, 0, 58, 37
3, 279996, Note_on_c, 0, 65, 49
3, 280004, Control_c, 0, 64, 72
3, 280008, Note_on_c, 0, 62, 42
3, 280020, Control_c, 0, 64, 0
3, 280112, Control_c, 0, 64, 56
3, 280128, Control_c, 0, 64, 127
3, 280228, Note_on_c, 0, 58, 0
3, 280244, Note_on_c, 0, 70, 0
3, 280272, Note_on_c, 0, 69, 52
3, 280272, Note_on_c, 0, 59, 24
3, 280368, Note_on_c, 0, 69, 0
3, 280380, Note_on_c, 0, 62, 0
3, 280452, Note_on_c, 0, 59, 0
3, 280500, Note_on_c, 0, 65, 0
3, 280512, Note_on_c, 0, 74, 0
3, 280580, Note_on_c, 0, 72, 69
3, 280596, Note_on_c, 0, 68, 44
3, 280604, Note_on_c, 0, 64, 37
3, 280612, Control_c, 0, 64, 104
3, 280620, Note_on_c, 0, 60, 47
3, 280628, Control_c, 0, 64, 40
3, 280644, Control_c, 0, 64, 0
3, 280720, Control_c, 0, 64, 72
3, 280736, Control_c, 0, 64, 127
3, 280816, Note_on_c, 0, 72, 0
3, 280852, Note_on_c, 0, 68, 0
3, 280852, Note_on_c, 0, 60, 0
3, 280872, Note_on_c, 0, 74, 69
3, 280880, Note_on_c, 0, 59, 46
3, 280892, Note_on_c, 0, 71, 58
3, 280968, Note_on_c, 0, 71, 0
3, 280996, Note_on_c, 0, 74, 0
3, 281104, Note_on_c, 0, 64, 0
3, 281128, Note_on_c, 0, 59, 0
3, 281216, Note_on_c, 0, 64, 30
3, 281220, Note_on_c, 0, 76, 76
3, 281220, Control_c, 0, 64, 88
3, 281236, Note_on_c, 0, 57, 50
3, 281236, Note_on_c, 0, 72, 63
3, 281236, Control_c, 0, 64, 0
3, 281244, Note_on_c, 0, 69, 51
3, 281332, Control_c, 0, 64, 56
3, 281348, Control_c, 0, 64, 127
3, 281392, Note_on_c, 0, 57, 0
3, 281520, Note_on_c, 0, 54, 54
3, 281584, Note_on_c, 0, 69, 0
3, 281588, Note_on_c, 0, 72, 0
3, 281724, Note_on_c, 0, 54, 0
3, 281800, Note_on_c, 0, 55, 58
3, 281800, Note_on_c, 0, 72, 52
3, 281812, Note_on_c, 0, 69, 40
3, 282012, Note_on_c, 0, 72, 0
3, 282040, Note_on_c, 0, 55, 0
3, 282092, Note_on_c, 0, 57, 59
3, 282180, Note_on_c, 0, 69, 0
3, 282196, Note_on_c, 0, 57, 0
3, 282444, Note_on_c, 0, 71, 43
3, 282456, Note_on_c, 0, 59, 55
3, 282456, Note_on_c, 0, 67, 42
3, 282516, Control_c, 0, 64, 72
3, 282532, Control_c, 0, 64, 24
3, 282548, Control_c, 0, 64, 0
3, 282628, Control_c, 0, 64, 40
3, 282644, Control_c, 0, 64, 127
3, 282792, Note_on_c, 0, 59, 0
3, 282816, Note_on_c, 0, 60, 51
3, 282864, Note_on_c, 0, 67, 0
3, 282888, Note_on_c, 0, 71, 0
3, 283156, Note_on_c, 0, 60, 0
3, 283264, Note_on_c, 0, 69, 47
3, 283272, Note_on_c, 0, 66, 39
3, 283284, Note_on_c, 0, 59, 52
3, 283428, Control_c, 0, 64, 88
3, 283444, Control_c, 0, 64, 40
3, 283460, Control_c, 0, 64, 0
3, 283572, Control_c, 0, 64, 24
3, 283588, Control_c, 0, 64, 88
3, 283600, Control_c, 0, 64, 127
3, 283720, Note_on_c, 0, 66, 0
3, 283736, Note_on_c, 0, 59, 0
3, 283740, Note_on_c, 0, 69, 0
3, 283804, Note_on_c, 0, 64, 0
3, 284144, Note_on_c, 0, 67, 41
3, 284144, Note_on_c, 0, 64, 35
3, 284148, Note_on_c, 0, 52, 51
3, 284212, Control_c, 0, 64, 72
3, 284228, Control_c, 0, 64, 0
3, 284324, Control_c, 0, 64, 72
3, 284340, Control_c, 0, 64, 127
3, 284416, Note_on_c, 0, 64, 0
3, 284444, Note_on_c, 0, 67, 0
3, 284672, Note_on_c, 0, 64, 34
3, 284688, Note_on_c, 0, 67, 31
3, 284856, Note_on_c, 0, 67, 0
3, 284864, Note_on_c, 0, 64, 0
3, 284916, Note_on_c, 0, 59, 58
3, 285196, Note_on_c, 0, 67, 42
3, 285204, Note_on_c, 0, 64, 52
3, 285300, Note_on_c, 0, 67, 0
3, 285320, Note_on_c, 0, 59, 0
3, 285692, Note_on_c, 0, 71, 33
3, 285692, Note_on_c, 0, 67, 27
3, 285856, Note_on_c, 0, 71, 0
3, 285860, Note_on_c, 0, 67, 0
3, 286212, Note_on_c, 0, 71, 31
3, 286224, Note_on_c, 0, 67, 29
3, 286404, Note_on_c, 0, 67, 0
3, 286424, Note_on_c, 0, 71, 0
3, 286764, Note_on_c, 0, 71, 21
3, 286768, Note_on_c, 0, 67, 25
3, 287436, Note_on_c, 0, 67, 0
3, 287456, Note_on_c, 0, 71, 0
3, 287712, Note_on_c, 0, 76, 0
3, 287824, Note_on_c, 0, 67, 16
3, 287832, Note_on_c, 0, 71, 16
3, 288096, Note_on_c, 0, 67, 0
3, 288112, Note_on_c, 0, 71, 0
3, 288124, Note_on_c, 0, 52, 0
3, 288144, Note_on_c, 0, 64, 0
3, 289092, Control_c, 0, 64, 104
3, 289112, Control_c, 0, 64, 72
3, 289128, Control_c, 0, 64, 24
3, 289144, Control_c, 0, 64, 0
3, 289144, End_track
4, 0, Start_track
4, 0, Title_t, "Robert Finley: JV1080"
4, 0, End_track
0, 0, End_of_file
