0, 0, Header, 0, 1, 480
1, 0, Start_track
1, 0, Title_t, "Sheep May Graze Benjamin K"
1, 0, Tempo, 512820
1, 0, Time_signature, 4, 2, 24, 8
1, 0, Control_c, 0, 91, 91
1, 0, Text_t, "Sheep May Safely Graze by Bach/Petri"
1, 0, Text_t, "Performed May 29, 2004 by Benjamin Kim"
1, 0, Text_t, "From a live recital at the Second International Piano-e-Competition"
1, 0, Instrument_name_t, "Yamaha Disklavier Pro concert grand piano, model DCFIIISAPRO"
1, 0, Sequencer_specific, 39, 67, 113, 0, 1, 0, 1, 0, 83, 104, 101, 101, 112, 32, 77, 97, 121, 32, 71, 114, 97, 122, 101, 32, 66, 101, 110, 106, 97, 109, 105, 110, 32, 75, 105, 109, 32, 32, 32, 32
1, 0, Sequencer_specific, 6, 67, 113, 0, 0, 0, 67
1, 0, Sequencer_specific, 5, 67, 123, 12, 2, 1
1, 0, System_exclusive, 5, 126, 127, 9, 1, 247
1, 1, System_exclusive, 8, 67, 16, 76, 0, 0, 126, 0, 247
1, 5, Control_c, 0, 11, 110
1, 6, Control_c, 0, 32, 0
1, 7, Program_c, 0, 0
1, 8, Control_c, 0, 7, 120
1, 120, Control_c, 0, 0, 0
1, 203, Control_c, 0, 64, 15
1, 203, Control_c, 0, 67, 6
1, 398, Control_c, 0, 64, 31
1, 398, Control_c, 0, 67, 12
1, 593, Control_c, 0, 64, 45
1, 593, Control_c, 0, 67, 18
1, 788, Control_c, 0, 64, 63
1, 788, Control_c, 0, 67, 24
1, 983, Control_c, 0, 64, 75
1, 983, Control_c, 0, 67, 30
1, 1178, Control_c, 0, 64, 93
1, 1178, Control_c, 0, 67, 36
1, 1373, Control_c, 0, 64, 105
1, 1373, Control_c, 0, 67, 42
1, 1568, Control_c, 0, 64, 127
1, 1568, Control_c, 0, 67, 49
1, 1958, Note_on_c, 0, 77, 48
1, 1961, Note_on_c, 0, 46, 42
1, 1974, Note_on_c, 0, 74, 41
1, 1982, Note_on_c, 0, 58, 29
1, 2133, Note_off_c, 0, 46, 56
1, 2157, Note_off_c, 0, 74, 56
1, 2186, Note_off_c, 0, 58, 39
1, 2200, Note_off_c, 0, 77, 56
1, 2430, Control_c, 0, 67, 45
1, 2540, Note_on_c, 0, 77, 58
1, 2554, Note_on_c, 0, 74, 41
1, 2558, Control_c, 0, 67, 41
1, 2563, Note_on_c, 0, 46, 30
1, 2574, Note_on_c, 0, 58, 15
1, 2642, Note_off_c, 0, 46, 53
1, 2652, Note_off_c, 0, 74, 51
1, 2658, Note_off_c, 0, 58, 40
1, 2689, Control_c, 0, 67, 36
1, 2744, Control_c, 0, 67, 32
1, 2797, Note_on_c, 0, 74, 68
1, 2802, Note_off_c, 0, 77, 39
1, 2835, Control_c, 0, 67, 28
1, 2835, Note_on_c, 0, 70, 44
1, 2870, Note_off_c, 0, 70, 51
1, 2920, Note_off_c, 0, 74, 57
1, 3069, Note_on_c, 0, 77, 65
1, 3087, Note_on_c, 0, 58, 26
1, 3089, Note_on_c, 0, 74, 47
1, 3101, Note_on_c, 0, 46, 29
1, 3200, Note_off_c, 0, 74, 53
1, 3209, Note_off_c, 0, 46, 50
1, 3247, Note_off_c, 0, 58, 36
1, 3266, Note_off_c, 0, 77, 62
1, 3640, Note_on_c, 0, 77, 62
1, 3654, Note_on_c, 0, 74, 43
1, 3655, Note_on_c, 0, 58, 31
1, 3670, Note_on_c, 0, 46, 30
1, 3709, Note_off_c, 0, 74, 52
1, 3734, Note_off_c, 0, 58, 49
1, 3740, Note_off_c, 0, 46, 46
1, 3812, Note_off_c, 0, 77, 50
1, 3880, Note_on_c, 0, 74, 65
1, 3928, Note_on_c, 0, 70, 37
1, 3983, Note_off_c, 0, 70, 46
1, 4007, Note_off_c, 0, 74, 57
1, 4153, Control_c, 0, 64, 122
1, 4167, Note_on_c, 0, 74, 55
1, 4169, Note_on_c, 0, 55, 38
1, 4170, Note_on_c, 0, 77, 67
1, 4171, Control_c, 0, 64, 114
1, 4174, Note_on_c, 0, 46, 39
1, 4190, Control_c, 0, 64, 99
1, 4208, Control_c, 0, 64, 80
1, 4227, Control_c, 0, 64, 63
1, 4247, Control_c, 0, 64, 54
1, 4265, Control_c, 0, 64, 56
1, 4281, Control_c, 0, 64, 59
1, 4300, Control_c, 0, 64, 60
1, 4319, Control_c, 0, 64, 63
1, 4338, Control_c, 0, 64, 68
1, 4356, Control_c, 0, 64, 75
1, 4374, Control_c, 0, 64, 85
1, 4392, Control_c, 0, 64, 94
1, 4412, Control_c, 0, 64, 102
1, 4420, Note_off_c, 0, 55, 40
1, 4429, Control_c, 0, 64, 108
1, 4431, Note_off_c, 0, 74, 62
1, 4435, Note_off_c, 0, 46, 36
1, 4448, Control_c, 0, 64, 112
1, 4485, Control_c, 0, 64, 116
1, 4584, Note_off_c, 0, 77, 59
1, 4668, Control_c, 0, 64, 111
1, 4689, Control_c, 0, 64, 104
1, 4706, Note_on_c, 0, 79, 67
1, 4706, Control_c, 0, 64, 94
1, 4709, Note_on_c, 0, 75, 55
1, 4719, Note_on_c, 0, 46, 37
1, 4725, Control_c, 0, 64, 85
1, 4729, Note_on_c, 0, 55, 29
1, 4742, Control_c, 0, 64, 82
1, 4779, Control_c, 0, 64, 86
1, 4796, Control_c, 0, 64, 90
1, 4816, Control_c, 0, 64, 95
1, 4832, Control_c, 0, 64, 100
1, 4851, Control_c, 0, 64, 104
1, 4878, Note_off_c, 0, 75, 64
1, 4919, Note_off_c, 0, 46, 41
1, 4937, Note_off_c, 0, 79, 62
1, 4981, Control_c, 0, 67, 32
1, 5202, Note_off_c, 0, 55, 38
1, 5253, Control_c, 0, 64, 97
1, 5254, Note_on_c, 0, 79, 63
1, 5261, Note_on_c, 0, 51, 36
1, 5270, Note_on_c, 0, 75, 52
1, 5271, Control_c, 0, 64, 85
1, 5278, Note_on_c, 0, 46, 35
1, 5290, Control_c, 0, 64, 67
1, 5308, Control_c, 0, 64, 42
1, 5326, Control_c, 0, 64, 15
1, 5363, Control_c, 0, 64, 20
1, 5382, Control_c, 0, 64, 30
1, 5401, Control_c, 0, 64, 42
1, 5419, Control_c, 0, 64, 54
1, 5438, Control_c, 0, 64, 61
1, 5456, Control_c, 0, 64, 65
1, 5474, Control_c, 0, 64, 69
1, 5475, Control_c, 0, 67, 36
1, 5493, Control_c, 0, 64, 76
1, 5510, Control_c, 0, 64, 84
1, 5516, Note_off_c, 0, 46, 39
1, 5528, Control_c, 0, 64, 92
1, 5537, Note_off_c, 0, 51, 41
1, 5547, Control_c, 0, 64, 98
1, 5581, Note_off_c, 0, 79, 58
1, 5583, Control_c, 0, 64, 104
1, 5622, Control_c, 0, 64, 108
1, 5801, Note_on_c, 0, 82, 57
1, 5819, Note_on_c, 0, 51, 33
1, 5827, Note_on_c, 0, 79, 46
1, 5828, Note_on_c, 0, 46, 27
1, 5888, Note_off_c, 0, 46, 46
1, 5961, Note_off_c, 0, 79, 51
1, 6019, Note_off_c, 0, 82, 62
1, 6044, Note_off_c, 0, 75, 38
1, 6058, Note_off_c, 0, 51, 32
1, 6395, Note_on_c, 0, 75, 58
1, 6404, Note_on_c, 0, 72, 44
1, 6411, Note_on_c, 0, 57, 32
1, 6419, Note_on_c, 0, 48, 32
1, 6426, Control_c, 0, 64, 104
1, 6440, Note_on_c, 0, 46, 30
1, 6446, Control_c, 0, 64, 96
1, 6462, Control_c, 0, 64, 81
1, 6483, Control_c, 0, 64, 64
1, 6501, Control_c, 0, 64, 44
1, 6518, Control_c, 0, 64, 37
1, 6556, Control_c, 0, 64, 46
1, 6574, Control_c, 0, 64, 54
1, 6593, Control_c, 0, 64, 60
1, 6613, Control_c, 0, 64, 66
1, 6629, Control_c, 0, 64, 70
1, 6647, Control_c, 0, 64, 76
1, 6666, Control_c, 0, 64, 82
1, 6680, Note_off_c, 0, 48, 37
1, 6683, Note_off_c, 0, 75, 62
1, 6685, Note_off_c, 0, 46, 41
1, 6685, Control_c, 0, 64, 88
1, 6692, Note_off_c, 0, 57, 42
1, 6702, Control_c, 0, 64, 94
1, 6705, Note_off_c, 0, 72, 53
1, 6716, Control_c, 0, 64, 100
1, 6734, Control_c, 0, 64, 105
1, 6772, Control_c, 0, 64, 109
1, 6947, Note_on_c, 0, 75, 63
1, 6951, Note_on_c, 0, 72, 51
1, 6966, Note_on_c, 0, 57, 27
1, 6977, Note_on_c, 0, 46, 25
1, 6981, Note_on_c, 0, 48, 29
1, 7029, Note_off_c, 0, 72, 50
1, 7136, Note_off_c, 0, 57, 35
1, 7143, Note_off_c, 0, 75, 59
1, 7162, Note_off_c, 0, 46, 31
1, 7173, Note_off_c, 0, 48, 30
1, 7184, Note_on_c, 0, 72, 68
1, 7212, Note_on_c, 0, 69, 46
1, 7269, Note_off_c, 0, 69, 47
1, 7296, Note_off_c, 0, 72, 56
1, 7440, Note_on_c, 0, 75, 71
1, 7457, Note_on_c, 0, 72, 43
1, 7466, Control_c, 0, 64, 102
1, 7470, Note_on_c, 0, 57, 23
1, 7480, Note_on_c, 0, 46, 22
1, 7485, Control_c, 0, 64, 94
1, 7490, Note_on_c, 0, 48, 27
1, 7505, Control_c, 0, 64, 81
1, 7523, Control_c, 0, 64, 70
1, 7542, Control_c, 0, 64, 66
1, 7559, Control_c, 0, 64, 67
1, 7578, Control_c, 0, 64, 70
1, 7596, Control_c, 0, 64, 75
1, 7615, Control_c, 0, 64, 80
1, 7632, Control_c, 0, 64, 85
1, 7651, Control_c, 0, 64, 89
1, 7654, Note_off_c, 0, 57, 38
1, 7672, Note_off_c, 0, 48, 23
1, 7678, Note_off_c, 0, 75, 61
1, 7687, Note_off_c, 0, 46, 21
1, 7687, Note_off_c, 0, 72, 41
1, 7687, Control_c, 0, 64, 95
1, 7725, Control_c, 0, 64, 100
1, 7763, Control_c, 0, 64, 105
1, 7886, Control_c, 0, 64, 99
1, 7904, Control_c, 0, 64, 95
1, 7925, Control_c, 0, 64, 91
1, 7985, Note_on_c, 0, 75, 69
1, 7988, Note_on_c, 0, 57, 27
1, 7995, Note_on_c, 0, 72, 50
1, 7996, Note_on_c, 0, 48, 33
1, 8013, Note_on_c, 0, 46, 20
1, 8075, Note_off_c, 0, 72, 47
1, 8151, Note_off_c, 0, 46, 30
1, 8167, Note_off_c, 0, 75, 59
1, 8176, Note_off_c, 0, 57, 37
1, 8227, Note_on_c, 0, 72, 69
1, 8241, Note_off_c, 0, 48, 37
1, 8248, Note_on_c, 0, 69, 50
1, 8291, Note_off_c, 0, 69, 52
1, 8345, Note_off_c, 0, 72, 59
1, 8481, Note_on_c, 0, 75, 65
1, 8496, Note_on_c, 0, 57, 30
1, 8496, Control_c, 0, 64, 84
1, 8501, Note_on_c, 0, 53, 34
1, 8507, Note_on_c, 0, 46, 28
1, 8515, Control_c, 0, 64, 72
1, 8518, Note_on_c, 0, 72, 36
1, 8533, Control_c, 0, 64, 54
1, 8552, Control_c, 0, 64, 34
1, 8605, Control_c, 0, 64, 44
1, 8626, Control_c, 0, 64, 52
1, 8643, Control_c, 0, 64, 59
1, 8662, Control_c, 0, 64, 65
1, 8680, Control_c, 0, 64, 70
1, 8700, Control_c, 0, 64, 78
1, 8717, Control_c, 0, 64, 86
1, 8730, Note_off_c, 0, 75, 65
1, 8735, Control_c, 0, 64, 94
1, 8737, Note_off_c, 0, 46, 39
1, 8740, Note_off_c, 0, 53, 39
1, 8740, Note_off_c, 0, 57, 38
1, 8753, Control_c, 0, 64, 102
1, 8773, Control_c, 0, 64, 108
1, 8804, Control_c, 0, 64, 112
1, 8966, Note_off_c, 0, 72, 41
1, 9030, Note_on_c, 0, 81, 66
1, 9042, Note_on_c, 0, 75, 50
1, 9049, Note_on_c, 0, 53, 32
1, 9055, Note_on_c, 0, 57, 25
1, 9060, Note_on_c, 0, 46, 25
1, 9100, Control_c, 0, 64, 108
1, 9229, Note_off_c, 0, 81, 61
1, 9234, Note_off_c, 0, 53, 34
1, 9237, Note_off_c, 0, 75, 57
1, 9242, Note_off_c, 0, 57, 32
1, 9250, Note_off_c, 0, 46, 29
1, 9555, Note_on_c, 0, 57, 25
1, 9555, Note_on_c, 0, 53, 32
1, 9559, Note_on_c, 0, 46, 27
1, 9562, Note_on_c, 0, 81, 63
1, 9578, Note_on_c, 0, 72, 39
1, 9702, Note_off_c, 0, 46, 36
1, 9721, Note_off_c, 0, 53, 35
1, 9777, Note_off_c, 0, 57, 28
1, 9840, Note_off_c, 0, 72, 43
1, 10098, Note_on_c, 0, 75, 48
1, 10101, Note_on_c, 0, 84, 55
1, 10115, Note_on_c, 0, 46, 32
1, 10118, Note_on_c, 0, 53, 29
1, 10122, Note_on_c, 0, 57, 20
1, 10151, Note_off_c, 0, 81, 60
1, 10189, Note_off_c, 0, 46, 59
1, 10201, Note_off_c, 0, 53, 51
1, 10216, Note_off_c, 0, 75, 55
1, 10276, Note_off_c, 0, 57, 52
1, 10338, Note_off_c, 0, 84, 61
1, 10697, Note_on_c, 0, 65, 32
1, 10704, Note_on_c, 0, 62, 34
1, 10707, Note_on_c, 0, 82, 55
1, 10707, Note_on_c, 0, 74, 44
1, 10707, Note_on_c, 0, 58, 32
1, 10730, Control_c, 0, 64, 104
1, 10749, Control_c, 0, 64, 93
1, 10750, Control_c, 0, 67, 32
1, 10768, Control_c, 0, 64, 72
1, 10785, Control_c, 0, 64, 43
1, 10805, Control_c, 0, 64, 0
1, 10841, Control_c, 0, 64, 15
1, 10842, Control_c, 0, 67, 27
1, 10859, Control_c, 0, 64, 32
1, 10878, Control_c, 0, 64, 47
1, 10897, Control_c, 0, 64, 58
1, 10913, Control_c, 0, 64, 65
1, 10932, Control_c, 0, 64, 71
1, 10950, Control_c, 0, 64, 78
1, 10970, Control_c, 0, 64, 87
1, 10987, Control_c, 0, 64, 96
1, 10998, Note_off_c, 0, 74, 61
1, 11001, Note_off_c, 0, 62, 42
1, 11004, Control_c, 0, 64, 106
1, 11013, Note_off_c, 0, 58, 40
1, 11014, Note_off_c, 0, 65, 43
1, 11023, Control_c, 0, 64, 114
1, 11043, Control_c, 0, 64, 120
1, 11134, Note_off_c, 0, 82, 60
1, 11195, Note_on_c, 0, 58, 38
1, 11214, Note_on_c, 0, 62, 40
1, 11227, Note_on_c, 0, 65, 32
1, 11323, Note_on_c, 0, 84, 53
1, 11323, Note_on_c, 0, 75, 43
1, 11358, Note_off_c, 0, 75, 52
1, 11451, Note_on_c, 0, 86, 57
1, 11458, Note_on_c, 0, 77, 58
1, 11495, Note_off_c, 0, 62, 43
1, 11510, Note_off_c, 0, 65, 42
1, 11513, Note_off_c, 0, 84, 38
1, 11529, Note_off_c, 0, 77, 50
1, 11547, Note_off_c, 0, 86, 56
1, 11549, Note_off_c, 0, 58, 37
1, 11705, Note_on_c, 0, 65, 35
1, 11718, Note_on_c, 0, 58, 41
1, 11718, Note_on_c, 0, 62, 34
1, 11721, Control_c, 0, 64, 108
1, 11724, Note_on_c, 0, 82, 68
1, 11730, Note_on_c, 0, 57, 44
1, 11740, Control_c, 0, 64, 89
1, 11753, Note_on_c, 0, 74, 37
1, 11759, Control_c, 0, 64, 67
1, 11775, Control_c, 0, 64, 54
1, 11794, Control_c, 0, 64, 58
1, 11812, Control_c, 0, 64, 63
1, 11832, Control_c, 0, 64, 72
1, 11848, Control_c, 0, 64, 83
1, 11867, Control_c, 0, 64, 93
1, 11885, Control_c, 0, 64, 99
1, 11906, Note_off_c, 0, 74, 43
1, 11939, Control_c, 0, 64, 103
1, 11951, Note_on_c, 0, 86, 65
1, 11963, Note_on_c, 0, 77, 60
1, 11967, Note_off_c, 0, 82, 55
1, 11977, Note_off_c, 0, 57, 37
1, 12008, Note_off_c, 0, 62, 41
1, 12008, Note_off_c, 0, 65, 42
1, 12016, Note_off_c, 0, 58, 32
1, 12026, Note_off_c, 0, 77, 59
1, 12107, Note_off_c, 0, 86, 56
1, 12199, Note_on_c, 0, 84, 69
1, 12200, Note_on_c, 0, 62, 36
1, 12203, Note_on_c, 0, 57, 43
1, 12206, Note_on_c, 0, 65, 34
1, 12207, Note_on_c, 0, 58, 29
1, 12221, Note_on_c, 0, 75, 52
1, 12273, Note_off_c, 0, 75, 65
1, 12307, Note_off_c, 0, 84, 63
1, 12332, Note_off_c, 0, 57, 52
1, 12409, Note_off_c, 0, 65, 38
1, 12435, Note_off_c, 0, 62, 41
1, 12447, Note_on_c, 0, 77, 71
1, 12461, Note_on_c, 0, 72, 53
1, 12481, Poly_aftertouch_c, 0, 58, 22
1, 12493, Note_off_c, 0, 72, 57
1, 12512, Note_off_c, 0, 58, 25
1, 12552, Note_off_c, 0, 77, 58
1, 12741, Note_on_c, 0, 58, 20
1, 12746, Note_on_c, 0, 82, 62
1, 12755, Note_on_c, 0, 55, 33
1, 12763, Note_on_c, 0, 74, 45
1, 12767, Control_c, 0, 64, 92
1, 12771, Note_on_c, 0, 65, 25
1, 12772, Note_on_c, 0, 62, 31
1, 12786, Control_c, 0, 64, 76
1, 12803, Control_c, 0, 64, 52
1, 12822, Control_c, 0, 64, 13
1, 12858, Control_c, 0, 64, 18
1, 12867, Note_off_c, 0, 74, 0
1, 12868, Note_on_c, 0, 74, 14
1, 12875, Control_c, 0, 64, 31
1, 12896, Control_c, 0, 64, 45
1, 12915, Control_c, 0, 64, 57
1, 12932, Control_c, 0, 64, 64
1, 12952, Control_c, 0, 64, 69
1, 12970, Control_c, 0, 64, 74
1, 12989, Note_off_c, 0, 62, 41
1, 12991, Control_c, 0, 64, 80
1, 13001, Note_off_c, 0, 65, 41
1, 13001, Note_off_c, 0, 58, 34
1, 13005, Note_off_c, 0, 55, 39
1, 13008, Control_c, 0, 64, 87
1, 13024, Control_c, 0, 64, 94
1, 13037, Note_off_c, 0, 74, 44
1, 13042, Control_c, 0, 64, 102
1, 13061, Control_c, 0, 64, 107
1, 13170, Note_off_c, 0, 82, 55
1, 13241, Note_on_c, 0, 62, 36
1, 13249, Note_on_c, 0, 55, 31
1, 13249, Note_on_c, 0, 65, 26
1, 13257, Note_on_c, 0, 58, 25
1, 13323, Note_on_c, 0, 84, 59
1, 13342, Note_on_c, 0, 75, 28
1, 13395, Note_off_c, 0, 75, 42
1, 13434, Note_off_c, 0, 55, 43
1, 13444, Note_off_c, 0, 65, 42
1, 13458, Note_on_c, 0, 86, 60
1, 13484, Note_off_c, 0, 62, 43
1, 13486, Note_on_c, 0, 77, 53
1, 13507, Note_off_c, 0, 84, 56
1, 13514, Note_off_c, 0, 77, 59
1, 13546, Poly_aftertouch_c, 0, 58, 24
1, 13584, Note_off_c, 0, 86, 58
1, 13647, Control_c, 0, 64, 111
1, 13697, Note_off_c, 0, 58, 0
1, 13739, Control_c, 0, 64, 105
1, 13750, Note_on_c, 0, 82, 54
1, 13755, Note_on_c, 0, 53, 39
1, 13759, Control_c, 0, 64, 91
1, 13762, Note_on_c, 0, 74, 43
1, 13769, Note_on_c, 0, 62, 37
1, 13777, Control_c, 0, 64, 69
1, 13787, Note_on_c, 0, 65, 22
1, 13794, Control_c, 0, 64, 45
1, 13809, Poly_aftertouch_c, 0, 58, 32
1, 13811, Control_c, 0, 64, 41
1, 13830, Control_c, 0, 64, 47
1, 13850, Control_c, 0, 64, 57
1, 13868, Control_c, 0, 64, 66
1, 13886, Control_c, 0, 64, 74
1, 13905, Control_c, 0, 64, 82
1, 13924, Control_c, 0, 64, 90
1, 13942, Control_c, 0, 64, 97
1, 13955, Note_off_c, 0, 74, 44
1, 13958, Control_c, 0, 64, 101
1, 13989, Note_on_c, 0, 86, 70
1, 14002, Note_on_c, 0, 77, 61
1, 14006, Note_off_c, 0, 65, 40
1, 14021, Note_off_c, 0, 82, 34
1, 14023, Note_off_c, 0, 62, 41
1, 14046, Note_off_c, 0, 77, 62
1, 14046, Poly_aftertouch_c, 0, 58, 0
1, 14052, Control_c, 0, 64, 105
1, 14057, Note_off_c, 0, 53, 36
1, 14179, Note_off_c, 0, 86, 44
1, 14243, Note_on_c, 0, 84, 67
1, 14250, Note_on_c, 0, 58, 41
1, 14259, Note_on_c, 0, 75, 57
1, 14263, Note_on_c, 0, 62, 45
1, 14263, Note_on_c, 0, 53, 37
1, 14300, Note_off_c, 0, 75, 67
1, 14318, Note_off_c, 0, 62, 63
1, 14327, Note_off_c, 0, 58, 55
1, 14337, Poly_aftertouch_c, 0, 65, 127
1, 14339, Note_off_c, 0, 53, 53
1, 14344, Note_off_c, 0, 84, 55
1, 14356, Poly_aftertouch_c, 0, 65, 0
1, 14503, Note_on_c, 0, 77, 70
1, 14512, Note_on_c, 0, 72, 55
1, 14546, Note_off_c, 0, 72, 57
1, 14581, Note_off_c, 0, 77, 60
1, 14775, Note_on_c, 0, 82, 63
1, 14784, Control_c, 0, 64, 88
1, 14793, Note_on_c, 0, 58, 35
1, 14797, Note_on_c, 0, 55, 37
1, 14798, Note_on_c, 0, 74, 49
1, 14804, Control_c, 0, 64, 66
1, 14810, Note_on_c, 0, 51, 31
1, 14811, Note_on_c, 0, 62, 34
1, 14822, Control_c, 0, 64, 42
1, 14861, Control_c, 0, 64, 45
1, 14879, Control_c, 0, 64, 56
1, 14895, Control_c, 0, 64, 67
1, 14911, Note_off_c, 0, 74, 56
1, 14914, Control_c, 0, 64, 77
1, 14934, Control_c, 0, 64, 91
1, 14951, Control_c, 0, 64, 105
1, 14956, Note_off_c, 0, 82, 64
1, 14968, Control_c, 0, 64, 115
1, 15016, Note_off_c, 0, 51, 43
1, 15022, Note_off_c, 0, 62, 43
1, 15039, Note_off_c, 0, 58, 36
1, 15042, Control_c, 0, 64, 119
1, 15085, Note_off_c, 0, 55, 38
1, 15284, Note_on_c, 0, 55, 29
1, 15294, Note_on_c, 0, 86, 64
1, 15294, Note_on_c, 0, 51, 33
1, 15308, Note_on_c, 0, 62, 24
1, 15333, Note_on_c, 0, 82, 13
1, 15336, Note_on_c, 0, 58, 20
1, 15397, Note_on_c, 0, 87, 64
1, 15402, Note_off_c, 0, 51, 48
1, 15414, Note_off_c, 0, 86, 62
1, 15423, Note_off_c, 0, 82, 36
1, 15445, Note_on_c, 0, 84, 38
1, 15453, Note_off_c, 0, 58, 36
1, 15486, Note_off_c, 0, 84, 55
1, 15490, Note_off_c, 0, 55, 47
1, 15520, Note_on_c, 0, 89, 66
1, 15535, Note_off_c, 0, 87, 50
1, 15537, Note_on_c, 0, 86, 60
1, 15554, Note_off_c, 0, 62, 43
1, 15583, Note_off_c, 0, 86, 64
1, 15600, Note_off_c, 0, 89, 63
1, 15791, Note_on_c, 0, 86, 66
1, 15792, Note_on_c, 0, 53, 39
1, 15794, Control_c, 0, 64, 115
1, 15806, Note_on_c, 0, 82, 60
1, 15806, Note_on_c, 0, 58, 35
1, 15806, Note_on_c, 0, 62, 29
1, 15813, Control_c, 0, 64, 100
1, 15830, Control_c, 0, 64, 77
1, 15850, Control_c, 0, 64, 52
1, 15868, Control_c, 0, 64, 41
1, 15886, Control_c, 0, 64, 46
1, 15903, Control_c, 0, 64, 57
1, 15916, Note_off_c, 0, 82, 59
1, 15921, Control_c, 0, 64, 67
1, 15942, Control_c, 0, 64, 76
1, 15959, Control_c, 0, 64, 84
1, 15978, Control_c, 0, 64, 91
1, 15997, Control_c, 0, 64, 96
1, 16016, Control_c, 0, 64, 100
1, 16049, Note_on_c, 0, 82, 75
1, 16051, Note_off_c, 0, 86, 60
1, 16052, Control_c, 0, 64, 106
1, 16059, Note_on_c, 0, 74, 62
1, 16076, Note_off_c, 0, 58, 37
1, 16080, Note_off_c, 0, 53, 43
1, 16098, Note_off_c, 0, 62, 43
1, 16127, Note_off_c, 0, 82, 62
1, 16128, Control_c, 0, 64, 113
1, 16130, Control_c, 0, 67, 23
1, 16147, Control_c, 0, 64, 118
1, 16164, Control_c, 0, 64, 124
1, 16203, Note_off_c, 0, 74, 61
1, 16278, Control_c, 0, 64, 112
1, 16310, Note_on_c, 0, 84, 69
1, 16310, Control_c, 0, 64, 95
1, 16312, Note_on_c, 0, 53, 41
1, 16312, Note_on_c, 0, 58, 40
1, 16316, Note_on_c, 0, 75, 58
1, 16316, Note_on_c, 0, 62, 34
1, 16316, Control_c, 0, 64, 83
1, 16353, Control_c, 0, 64, 93
1, 16371, Control_c, 0, 64, 108
1, 16388, Control_c, 0, 64, 127
1, 16431, Note_off_c, 0, 75, 38
1, 16500, Note_off_c, 0, 84, 52
1, 16520, Note_off_c, 0, 58, 53
1, 16552, Note_off_c, 0, 62, 40
1, 16557, Note_on_c, 0, 81, 64
1, 16560, Note_on_c, 0, 77, 58
1, 16578, Note_off_c, 0, 53, 42
1, 16600, Note_off_c, 0, 77, 62
1, 16655, Note_off_c, 0, 81, 61
1, 16795, Control_c, 0, 64, 122
1, 16813, Control_c, 0, 64, 100
1, 16828, Note_on_c, 0, 82, 64
1, 16832, Control_c, 0, 64, 72
1, 16832, Note_on_c, 0, 62, 31
1, 16834, Note_on_c, 0, 58, 36
1, 16840, Note_on_c, 0, 74, 49
1, 16851, Control_c, 0, 64, 38
1, 16853, Note_on_c, 0, 55, 25
1, 16870, Control_c, 0, 64, 16
1, 16888, Control_c, 0, 64, 26
1, 16907, Control_c, 0, 64, 48
1, 16926, Control_c, 0, 64, 64
1, 16944, Control_c, 0, 64, 76
1, 16964, Control_c, 0, 64, 90
1, 16981, Control_c, 0, 64, 105
1, 16985, Note_off_c, 0, 74, 60
1, 16999, Control_c, 0, 64, 116
1, 17007, Note_off_c, 0, 82, 62
1, 17038, Note_off_c, 0, 58, 41
1, 17054, Control_c, 0, 64, 120
1, 17060, Note_off_c, 0, 62, 42
1, 17106, Note_off_c, 0, 55, 39
1, 17382, Note_on_c, 0, 53, 32
1, 17391, Note_on_c, 0, 58, 33
1, 17395, Note_on_c, 0, 86, 56
1, 17397, Note_on_c, 0, 82, 46
1, 17430, Note_on_c, 0, 62, 11
1, 17438, Note_off_c, 0, 53, 56
1, 17442, Note_off_c, 0, 82, 52
1, 17481, Note_on_c, 0, 87, 55
1, 17498, Note_off_c, 0, 86, 56
1, 17614, Note_on_c, 0, 51, 51
1, 17619, Note_on_c, 0, 89, 62
1, 17643, Note_on_c, 0, 86, 50
1, 17653, Note_off_c, 0, 87, 33
1, 17685, Note_off_c, 0, 86, 62
1, 17712, Note_off_c, 0, 89, 60
1, 17735, Note_off_c, 0, 51, 53
1, 17827, Note_off_c, 0, 58, 38
1, 17897, Control_c, 0, 64, 115
1, 17917, Note_on_c, 0, 86, 62
1, 17917, Control_c, 0, 64, 100
1, 17922, Note_on_c, 0, 53, 52
1, 17935, Control_c, 0, 64, 80
1, 17936, Note_on_c, 0, 82, 48
1, 17954, Control_c, 0, 64, 65
1, 17965, Note_off_c, 0, 62, 45
1, 17971, Control_c, 0, 64, 64
1, 17992, Control_c, 0, 64, 69
1, 18008, Control_c, 0, 64, 77
1, 18027, Control_c, 0, 64, 90
1, 18039, Note_off_c, 0, 82, 50
1, 18045, Control_c, 0, 64, 101
1, 18064, Control_c, 0, 64, 110
1, 18065, Control_c, 0, 67, 27
1, 18083, Note_off_c, 0, 53, 62
1, 18101, Control_c, 0, 64, 114
1, 18221, Note_on_c, 0, 82, 64
1, 18222, Note_off_c, 0, 86, 35
1, 18246, Note_on_c, 0, 74, 41
1, 18276, Note_off_c, 0, 82, 50
1, 18323, Note_off_c, 0, 74, 46
1, 18519, Control_c, 0, 64, 110
1, 18528, Note_on_c, 0, 84, 57
1, 18531, Note_on_c, 0, 75, 53
1, 18535, Note_on_c, 0, 41, 34
1, 18538, Control_c, 0, 64, 106
1, 18556, Control_c, 0, 64, 92
1, 18575, Control_c, 0, 64, 68
1, 18593, Control_c, 0, 64, 8
1, 18612, Control_c, 0, 64, 0
1, 18684, Control_c, 0, 64, 29
1, 18702, Control_c, 0, 64, 54
1, 18720, Control_c, 0, 64, 65
1, 18739, Control_c, 0, 64, 73
1, 18757, Control_c, 0, 64, 83
1, 18777, Control_c, 0, 64, 92
1, 18795, Control_c, 0, 64, 99
1, 18813, Control_c, 0, 64, 105
1, 18842, Note_off_c, 0, 41, 43
1, 18851, Control_c, 0, 64, 110
1, 18883, Note_off_c, 0, 75, 54
1, 18886, Control_c, 0, 64, 114
1, 18902, Note_on_c, 0, 81, 58
1, 18903, Note_on_c, 0, 72, 52
1, 18904, Note_off_c, 0, 84, 35
1, 18924, Control_c, 0, 64, 121
1, 18942, Control_c, 0, 64, 126
1, 19028, Note_off_c, 0, 81, 60
1, 19075, Note_off_c, 0, 72, 61
1, 19402, Note_on_c, 0, 46, 32
1, 19429, Note_on_c, 0, 58, 16
1, 19565, Note_on_c, 0, 70, 69
1, 19587, Note_on_c, 0, 82, 53
1, 19599, Note_on_c, 0, 74, 48
1, 19713, Control_c, 0, 64, 115
1, 19730, Control_c, 0, 64, 91
1, 19749, Control_c, 0, 64, 62
1, 19767, Control_c, 0, 64, 0
1, 19822, Control_c, 0, 64, 18
1, 19840, Control_c, 0, 64, 41
1, 19858, Control_c, 0, 64, 55
1, 19876, Control_c, 0, 64, 64
1, 19895, Control_c, 0, 64, 71
1, 19896, Control_c, 0, 67, 23
1, 19913, Control_c, 0, 64, 80
1, 19932, Control_c, 0, 64, 93
1, 19950, Control_c, 0, 64, 106
1, 19964, Note_off_c, 0, 46, 42
1, 19967, Control_c, 0, 64, 114
1, 19969, Control_c, 0, 67, 19
1, 19988, Control_c, 0, 64, 118
1, 20057, Control_c, 0, 64, 124
1, 20075, Control_c, 0, 67, 14
1, 20089, Note_off_c, 0, 58, 41
1, 20128, Note_off_c, 0, 74, 39
1, 20128, Control_c, 0, 67, 10
1, 20374, Note_off_c, 0, 82, 32
1, 20542, Note_on_c, 0, 65, 19
1, 20552, Note_on_c, 0, 62, 24
1, 20555, Note_on_c, 0, 58, 6
1, 20769, Note_off_c, 0, 58, 38
1, 20770, Note_off_c, 0, 62, 40
1, 20778, Note_off_c, 0, 65, 42
1, 20857, Note_off_c, 0, 70, 48
1, 21137, Note_on_c, 0, 62, 27
1, 21142, Note_on_c, 0, 58, 24
1, 21152, Note_on_c, 0, 65, 16
1, 21200, Note_on_c, 0, 74, 60
1, 21267, Note_on_c, 0, 70, 15
1, 21342, Note_off_c, 0, 70, 0
1, 21361, Note_off_c, 0, 58, 40
1, 21367, Note_off_c, 0, 62, 41
1, 21373, Note_off_c, 0, 65, 41
1, 21715, Note_on_c, 0, 58, 23
1, 21727, Note_on_c, 0, 62, 26
1, 21732, Note_on_c, 0, 65, 23
1, 21765, Note_on_c, 0, 72, 69
1, 21860, Note_off_c, 0, 62, 50
1, 21880, Note_off_c, 0, 58, 36
1, 21881, Note_off_c, 0, 74, 61
1, 21908, Note_off_c, 0, 65, 43
1, 22112, Note_off_c, 0, 72, 60
1, 22130, Poly_aftertouch_c, 0, 70, 0
1, 22231, Note_on_c, 0, 63, 36
1, 22255, Note_on_c, 0, 67, 25
1, 22268, Note_on_c, 0, 58, 26
1, 22288, Note_on_c, 0, 72, 62
1, 22318, Note_on_c, 0, 70, 35
1, 22351, Control_c, 0, 64, 109
1, 22368, Control_c, 0, 64, 85
1, 22388, Control_c, 0, 64, 59
1, 22406, Control_c, 0, 64, 30
1, 22441, Control_c, 0, 64, 39
1, 22460, Control_c, 0, 64, 50
1, 22478, Control_c, 0, 64, 61
1, 22498, Control_c, 0, 64, 69
1, 22516, Control_c, 0, 64, 77
1, 22535, Control_c, 0, 64, 86
1, 22554, Control_c, 0, 64, 95
1, 22555, Note_off_c, 0, 63, 52
1, 22563, Note_off_c, 0, 58, 37
1, 22571, Control_c, 0, 64, 105
1, 22581, Note_off_c, 0, 67, 41
1, 22589, Control_c, 0, 64, 112
1, 22608, Control_c, 0, 64, 117
1, 22616, Note_off_c, 0, 70, 37
1, 22773, Note_on_c, 0, 63, 31
1, 22782, Note_on_c, 0, 70, 36
1, 22792, Control_c, 0, 64, 105
1, 22794, Note_on_c, 0, 67, 21
1, 22810, Note_on_c, 0, 58, 24
1, 22811, Control_c, 0, 64, 90
1, 22843, Control_c, 0, 64, 78
1, 22862, Control_c, 0, 64, 76
1, 22863, Control_c, 0, 67, 0
1, 22880, Control_c, 0, 64, 80
1, 22889, Note_off_c, 0, 70, 0
1, 22899, Control_c, 0, 64, 88
1, 22917, Control_c, 0, 64, 100
1, 22927, Note_on_c, 0, 70, 17
1, 22934, Control_c, 0, 64, 111
1, 22953, Control_c, 0, 64, 116
1, 23021, Note_off_c, 0, 63, 42
1, 23024, Note_off_c, 0, 70, 42
1, 23027, Control_c, 0, 64, 122
1, 23035, Note_off_c, 0, 67, 40
1, 23047, Note_off_c, 0, 58, 36
1, 23323, Note_on_c, 0, 70, 40
1, 23328, Note_on_c, 0, 63, 29
1, 23331, Note_on_c, 0, 58, 29
1, 23354, Note_on_c, 0, 67, 18
1, 23516, Note_off_c, 0, 70, 48
1, 23529, Note_off_c, 0, 72, 63
1, 23538, Note_off_c, 0, 67, 43
1, 23543, Note_off_c, 0, 63, 37
1, 23549, Note_off_c, 0, 58, 37
1, 23598, Control_c, 0, 64, 126
1, 23861, Note_on_c, 0, 63, 31
1, 23874, Note_on_c, 0, 58, 29
1, 23879, Note_on_c, 0, 74, 70
1, 23896, Note_on_c, 0, 67, 18
1, 23903, Note_on_c, 0, 70, 44
1, 23972, Note_off_c, 0, 67, 53
1, 24106, Note_off_c, 0, 70, 60
1, 24143, Note_off_c, 0, 74, 63
1, 24151, Note_off_c, 0, 58, 39
1, 24155, Note_off_c, 0, 63, 39
1, 24381, Note_on_c, 0, 60, 33
1, 24400, Note_on_c, 0, 57, 29
1, 24428, Note_on_c, 0, 65, 23
1, 24443, Note_on_c, 0, 75, 67
1, 24471, Note_on_c, 0, 72, 33
1, 24497, Control_c, 0, 64, 122
1, 24517, Control_c, 0, 64, 106
1, 24535, Control_c, 0, 64, 85
1, 24552, Control_c, 0, 64, 66
1, 24571, Control_c, 0, 64, 52
1, 24608, Control_c, 0, 64, 58
1, 24626, Control_c, 0, 64, 65
1, 24644, Control_c, 0, 64, 72
1, 24662, Control_c, 0, 64, 81
1, 24681, Control_c, 0, 64, 90
1, 24715, Control_c, 0, 64, 99
1, 24734, Control_c, 0, 64, 107
1, 24738, Note_off_c, 0, 65, 41
1, 24740, Note_off_c, 0, 57, 42
1, 24749, Note_off_c, 0, 60, 41
1, 24750, Control_c, 0, 64, 114
1, 24770, Control_c, 0, 64, 120
1, 24775, Note_off_c, 0, 72, 41
1, 24806, Control_c, 0, 64, 125
1, 24953, Control_c, 0, 64, 121
1, 24965, Note_on_c, 0, 72, 42
1, 24967, Note_on_c, 0, 60, 35
1, 24971, Control_c, 0, 64, 102
1, 24974, Note_on_c, 0, 57, 31
1, 24991, Control_c, 0, 64, 78
1, 25010, Control_c, 0, 64, 60
1, 25015, Note_on_c, 0, 65, 14
1, 25028, Control_c, 0, 64, 53
1, 25064, Control_c, 0, 64, 59
1, 25084, Control_c, 0, 64, 66
1, 25100, Control_c, 0, 64, 76
1, 25118, Control_c, 0, 64, 90
1, 25137, Control_c, 0, 64, 107
1, 25156, Control_c, 0, 64, 120
1, 25174, Control_c, 0, 64, 127
1, 25275, Note_off_c, 0, 65, 42
1, 25277, Note_off_c, 0, 72, 41
1, 25279, Note_off_c, 0, 57, 42
1, 25281, Note_off_c, 0, 60, 43
1, 25495, Note_on_c, 0, 60, 31
1, 25498, Note_on_c, 0, 57, 30
1, 25523, Note_on_c, 0, 65, 17
1, 25526, Note_on_c, 0, 79, 63
1, 25541, Note_on_c, 0, 72, 39
1, 25543, Control_c, 0, 64, 107
1, 25559, Control_c, 0, 64, 81
1, 25579, Control_c, 0, 64, 47
1, 25584, Note_off_c, 0, 75, 64
1, 25597, Control_c, 0, 64, 0
1, 25687, Control_c, 0, 64, 35
1, 25706, Control_c, 0, 64, 54
1, 25724, Control_c, 0, 64, 64
1, 25742, Control_c, 0, 64, 71
1, 25759, Control_c, 0, 64, 82
1, 25779, Control_c, 0, 64, 97
1, 25797, Control_c, 0, 64, 113
1, 25814, Note_off_c, 0, 60, 39
1, 25814, Control_c, 0, 64, 126
1, 25822, Note_off_c, 0, 65, 42
1, 25826, Note_off_c, 0, 57, 42
1, 25859, Note_off_c, 0, 72, 41
1, 26045, Note_on_c, 0, 57, 33
1, 26061, Note_on_c, 0, 60, 25
1, 26065, Note_on_c, 0, 77, 63
1, 26066, Note_off_c, 0, 79, 61
1, 26071, Note_on_c, 0, 65, 25
1, 26089, Note_on_c, 0, 72, 42
1, 26110, Control_c, 0, 64, 105
1, 26130, Control_c, 0, 64, 86
1, 26149, Control_c, 0, 64, 74
1, 26168, Control_c, 0, 64, 77
1, 26186, Control_c, 0, 64, 88
1, 26202, Control_c, 0, 64, 107
1, 26222, Control_c, 0, 64, 127
1, 26297, Note_off_c, 0, 72, 47
1, 26306, Note_off_c, 0, 65, 39
1, 26316, Note_off_c, 0, 57, 42
1, 26319, Note_off_c, 0, 60, 45
1, 26338, Note_off_c, 0, 77, 61
1, 26593, Note_on_c, 0, 62, 31
1, 26606, Control_c, 0, 64, 116
1, 26607, Note_on_c, 0, 58, 22
1, 26609, Note_on_c, 0, 65, 21
1, 26624, Control_c, 0, 64, 91
1, 26642, Control_c, 0, 64, 65
1, 26646, Note_on_c, 0, 75, 52
1, 26661, Control_c, 0, 64, 27
1, 26678, Note_on_c, 0, 70, 15
1, 26679, Control_c, 0, 64, 13
1, 26697, Control_c, 0, 64, 26
1, 26715, Control_c, 0, 64, 46
1, 26733, Control_c, 0, 64, 62
1, 26751, Control_c, 0, 64, 72
1, 26770, Control_c, 0, 64, 85
1, 26773, Note_off_c, 0, 70, 47
1, 26789, Control_c, 0, 64, 101
1, 26807, Control_c, 0, 64, 116
1, 26827, Control_c, 0, 64, 125
1, 26830, Note_off_c, 0, 75, 62
1, 26871, Note_on_c, 0, 74, 47
1, 26878, Note_off_c, 0, 65, 42
1, 26882, Note_off_c, 0, 58, 42
1, 26900, Note_off_c, 0, 62, 43
1, 26943, Note_off_c, 0, 74, 61
1, 26969, Note_on_c, 0, 75, 58
1, 27023, Note_off_c, 0, 75, 57
1, 27058, Note_on_c, 0, 74, 58
1, 27067, Note_on_c, 0, 62, 33
1, 27070, Note_on_c, 0, 58, 29
1, 27095, Note_off_c, 0, 74, 65
1, 27111, Note_on_c, 0, 65, 17
1, 27133, Note_on_c, 0, 75, 53
1, 27160, Note_off_c, 0, 75, 62
1, 27179, Note_on_c, 0, 74, 65
1, 27215, Note_off_c, 0, 74, 66
1, 27249, Note_off_c, 0, 62, 49
1, 27251, Note_on_c, 0, 75, 58
1, 27254, Note_off_c, 0, 65, 38
1, 27270, Note_off_c, 0, 58, 36
1, 27288, Note_off_c, 0, 75, 57
1, 27304, Note_on_c, 0, 74, 57
1, 27496, Note_on_c, 0, 62, 31
1, 27499, Note_on_c, 0, 58, 28
1, 27519, Note_off_c, 0, 74, 62
1, 27520, Control_c, 0, 64, 110
1, 27530, Note_on_c, 0, 72, 63
1, 27533, Note_on_c, 0, 65, 31
1, 27539, Control_c, 0, 64, 83
1, 27558, Control_c, 0, 64, 47
1, 27578, Control_c, 0, 64, 0
1, 27631, Control_c, 0, 64, 29
1, 27650, Control_c, 0, 64, 52
1, 27669, Control_c, 0, 64, 64
1, 27686, Control_c, 0, 64, 72
1, 27704, Control_c, 0, 64, 85
1, 27722, Control_c, 0, 64, 100
1, 27742, Control_c, 0, 64, 114
1, 27760, Control_c, 0, 64, 122
1, 27779, Control_c, 0, 64, 126
1, 27784, Note_off_c, 0, 62, 41
1, 27800, Poly_aftertouch_c, 0, 65, 24
1, 27805, Note_off_c, 0, 72, 53
1, 27808, Note_off_c, 0, 58, 38
1, 27826, Note_off_c, 0, 65, 41
1, 28051, Note_on_c, 0, 70, 61
1, 28055, Note_on_c, 0, 62, 45
1, 28070, Note_on_c, 0, 58, 36
1, 28143, Note_off_c, 0, 62, 59
1, 28203, Note_off_c, 0, 58, 56
1, 28432, Note_off_c, 0, 70, 30
1, 28581, Note_on_c, 0, 46, 34
1, 28607, Note_on_c, 0, 74, 63
1, 28615, Note_on_c, 0, 58, 29
1, 28620, Note_on_c, 0, 67, 48
1, 28625, Note_on_c, 0, 62, 42
1, 28641, Control_c, 0, 64, 121
1, 28659, Control_c, 0, 64, 111
1, 28679, Control_c, 0, 64, 89
1, 28698, Control_c, 0, 64, 57
1, 28715, Control_c, 0, 64, 0
1, 28789, Control_c, 0, 64, 43
1, 28807, Control_c, 0, 64, 61
1, 28827, Control_c, 0, 64, 73
1, 28845, Control_c, 0, 64, 87
1, 28849, Note_off_c, 0, 58, 41
1, 28856, Note_off_c, 0, 46, 42
1, 28861, Control_c, 0, 64, 104
1, 28881, Control_c, 0, 64, 118
1, 28899, Control_c, 0, 64, 123
1, 28911, Note_off_c, 0, 62, 55
1, 28930, Note_off_c, 0, 74, 61
1, 28951, Note_off_c, 0, 67, 56
1, 29048, Control_c, 0, 64, 127
1, 29122, Note_on_c, 0, 70, 69
1, 29124, Note_on_c, 0, 67, 49
1, 29139, Note_on_c, 0, 46, 29
1, 29148, Note_on_c, 0, 58, 21
1, 29148, Note_on_c, 0, 62, 42
1, 29156, Control_c, 0, 64, 123
1, 29195, Control_c, 0, 64, 116
1, 29212, Control_c, 0, 64, 111
1, 29325, Note_off_c, 0, 46, 41
1, 29342, Note_off_c, 0, 58, 37
1, 29364, Note_off_c, 0, 70, 60
1, 29371, Note_off_c, 0, 62, 55
1, 29371, Note_off_c, 0, 67, 61
1, 29664, Note_on_c, 0, 69, 67
1, 29675, Note_on_c, 0, 65, 55
1, 29678, Note_on_c, 0, 46, 33
1, 29679, Note_on_c, 0, 58, 29
1, 29688, Control_c, 0, 64, 104
1, 29694, Note_on_c, 0, 62, 44
1, 29697, Poly_aftertouch_c, 0, 50, 0
1, 29705, Control_c, 0, 64, 90
1, 29724, Control_c, 0, 64, 68
1, 29742, Control_c, 0, 64, 30
1, 29756, Control_c, 0, 64, 0
1, 29775, Control_c, 0, 64, 8
1, 29791, Control_c, 0, 64, 40
1, 29810, Control_c, 0, 64, 59
1, 29828, Control_c, 0, 64, 68
1, 29848, Control_c, 0, 64, 75
1, 29866, Control_c, 0, 64, 84
1, 29884, Control_c, 0, 64, 94
1, 29904, Control_c, 0, 64, 103
1, 29920, Note_off_c, 0, 46, 39
1, 29922, Control_c, 0, 64, 109
1, 29928, Note_off_c, 0, 58, 39
1, 29948, Note_off_c, 0, 62, 55
1, 29958, Control_c, 0, 64, 113
1, 29981, Note_off_c, 0, 65, 58
1, 30049, Control_c, 0, 64, 117
1, 30108, Note_off_c, 0, 69, 24
1, 30189, Note_on_c, 0, 67, 63
1, 30210, Note_on_c, 0, 58, 34
1, 30215, Note_on_c, 0, 65, 52
1, 30215, Control_c, 0, 64, 112
1, 30233, Note_on_c, 0, 46, 32
1, 30233, Note_on_c, 0, 62, 29
1, 30236, Control_c, 0, 64, 102
1, 30253, Control_c, 0, 64, 85
1, 30273, Control_c, 0, 64, 69
1, 30291, Control_c, 0, 64, 62
1, 30309, Control_c, 0, 64, 65
1, 30344, Control_c, 0, 64, 69
1, 30356, Note_off_c, 0, 46, 37
1, 30361, Control_c, 0, 64, 77
1, 30364, Note_off_c, 0, 58, 45
1, 30381, Control_c, 0, 64, 88
1, 30400, Control_c, 0, 64, 99
1, 30416, Control_c, 0, 64, 106
1, 30423, Note_off_c, 0, 62, 52
1, 30434, Control_c, 0, 64, 111
1, 30445, Note_off_c, 0, 65, 61
1, 30472, Control_c, 0, 64, 115
1, 30480, Note_off_c, 0, 67, 61
1, 30655, Control_c, 0, 64, 110
1, 30705, Note_on_c, 0, 46, 33
1, 30719, Note_on_c, 0, 55, 27
1, 30727, Control_c, 0, 64, 106
1, 30764, Control_c, 0, 64, 96
1, 30766, Note_on_c, 0, 72, 63
1, 30784, Control_c, 0, 64, 85
1, 30792, Note_on_c, 0, 60, 33
1, 30793, Note_on_c, 0, 64, 43
1, 30803, Control_c, 0, 64, 69
1, 30822, Control_c, 0, 64, 42
1, 30840, Control_c, 0, 64, 0
1, 30949, Control_c, 0, 64, 41
1, 30968, Control_c, 0, 64, 60
1, 30987, Control_c, 0, 64, 68
1, 31004, Control_c, 0, 64, 76
1, 31024, Control_c, 0, 64, 86
1, 31033, Note_off_c, 0, 55, 41
1, 31041, Note_off_c, 0, 46, 41
1, 31041, Control_c, 0, 64, 96
1, 31044, Note_off_c, 0, 64, 59
1, 31061, Control_c, 0, 64, 103
1, 31074, Note_off_c, 0, 60, 42
1, 31297, Control_c, 0, 64, 95
1, 31314, Control_c, 0, 64, 79
1, 31320, Note_on_c, 0, 64, 49
1, 31326, Note_on_c, 0, 55, 29
1, 31327, Note_on_c, 0, 46, 30
1, 31332, Control_c, 0, 64, 60
1, 31338, Note_on_c, 0, 60, 26
1, 31352, Control_c, 0, 64, 44
1, 31389, Control_c, 0, 64, 54
1, 31408, Control_c, 0, 64, 64
1, 31425, Control_c, 0, 64, 71
1, 31443, Control_c, 0, 64, 79
1, 31463, Control_c, 0, 64, 85
1, 31480, Control_c, 0, 64, 89
1, 31483, Note_off_c, 0, 64, 62
1, 31494, Note_off_c, 0, 46, 36
1, 31509, Note_off_c, 0, 55, 37
1, 31517, Control_c, 0, 64, 95
1, 31528, Note_off_c, 0, 60, 43
1, 31554, Control_c, 0, 64, 100
1, 31849, Control_c, 0, 64, 89
1, 31864, Note_on_c, 0, 45, 34
1, 31865, Note_on_c, 0, 65, 39
1, 31867, Note_on_c, 0, 60, 28
1, 31867, Control_c, 0, 64, 72
1, 31870, Note_on_c, 0, 57, 20
1, 31883, Control_c, 0, 64, 45
1, 31903, Control_c, 0, 64, 0
1, 31940, Control_c, 0, 64, 21
1, 31959, Control_c, 0, 64, 47
1, 31978, Control_c, 0, 64, 62
1, 31996, Control_c, 0, 64, 70
1, 32016, Control_c, 0, 64, 78
1, 32021, Note_off_c, 0, 57, 42
1, 32034, Control_c, 0, 64, 87
1, 32050, Control_c, 0, 64, 95
1, 32059, Note_off_c, 0, 72, 56
1, 32068, Control_c, 0, 64, 100
1, 32106, Control_c, 0, 64, 104
1, 32109, Note_off_c, 0, 45, 39
1, 32161, Note_off_c, 0, 65, 48
1, 32409, Note_on_c, 0, 46, 38
1, 32420, Note_on_c, 0, 74, 65
1, 32421, Note_on_c, 0, 65, 53
1, 32435, Control_c, 0, 64, 100
1, 32453, Control_c, 0, 64, 91
1, 32469, Note_on_c, 0, 55, 13
1, 32471, Control_c, 0, 64, 74
1, 32490, Control_c, 0, 64, 59
1, 32509, Control_c, 0, 64, 55
1, 32525, Control_c, 0, 64, 60
1, 32543, Control_c, 0, 64, 67
1, 32563, Control_c, 0, 64, 75
1, 32581, Control_c, 0, 64, 85
1, 32591, Note_off_c, 0, 60, 0
1, 32598, Note_off_c, 0, 74, 62
1, 32599, Control_c, 0, 64, 94
1, 32617, Control_c, 0, 64, 101
1, 32635, Control_c, 0, 64, 107
1, 32655, Control_c, 0, 64, 111
1, 32664, Poly_aftertouch_c, 0, 60, 24
1, 32665, Note_off_c, 0, 65, 60
1, 32672, Note_off_c, 0, 55, 0
1, 32691, Control_c, 0, 64, 116
1, 32699, Poly_aftertouch_c, 0, 60, 0
1, 32764, Control_c, 0, 64, 120
1, 32831, Note_off_c, 0, 46, 42
1, 32975, Note_on_c, 0, 48, 37
1, 32985, Control_c, 0, 64, 115
1, 32986, Note_on_c, 0, 69, 61
1, 32989, Poly_aftertouch_c, 0, 55, 24
1, 33005, Note_on_c, 0, 65, 42
1, 33016, Note_on_c, 0, 60, 24
1, 33022, Control_c, 0, 64, 104
1, 33037, Poly_aftertouch_c, 0, 55, 0
1, 33040, Control_c, 0, 64, 89
1, 33057, Control_c, 0, 64, 67
1, 33077, Control_c, 0, 64, 23
1, 33096, Control_c, 0, 64, 0
1, 33167, Control_c, 0, 64, 22
1, 33184, Control_c, 0, 64, 48
1, 33204, Control_c, 0, 64, 62
1, 33220, Control_c, 0, 64, 70
1, 33240, Control_c, 0, 64, 80
1, 33258, Control_c, 0, 64, 92
1, 33276, Control_c, 0, 64, 103
1, 33289, Note_off_c, 0, 48, 40
1, 33290, Note_off_c, 0, 60, 40
1, 33294, Control_c, 0, 64, 111
1, 33331, Control_c, 0, 64, 115
1, 33360, Note_off_c, 0, 65, 40
1, 33443, Control_c, 0, 64, 120
1, 33533, Control_c, 0, 64, 112
1, 33538, Note_on_c, 0, 65, 42
1, 33551, Control_c, 0, 64, 101
1, 33560, Note_on_c, 0, 48, 33
1, 33571, Control_c, 0, 64, 84
1, 33578, Note_on_c, 0, 60, 31
1, 33590, Control_c, 0, 64, 67
1, 33608, Control_c, 0, 64, 61
1, 33626, Control_c, 0, 64, 66
1, 33646, Control_c, 0, 64, 73
1, 33664, Control_c, 0, 64, 84
1, 33680, Control_c, 0, 64, 97
1, 33699, Control_c, 0, 64, 107
1, 33727, Note_off_c, 0, 48, 39
1, 33737, Control_c, 0, 64, 111
1, 33799, Note_off_c, 0, 65, 58
1, 33812, Note_off_c, 0, 60, 41
1, 33885, Control_c, 0, 64, 115
1, 34097, Note_off_c, 0, 69, 55
1, 34119, Control_c, 0, 64, 109
1, 34122, Note_on_c, 0, 67, 54
1, 34137, Note_on_c, 0, 64, 40
1, 34137, Control_c, 0, 64, 104
1, 34140, Note_on_c, 0, 58, 33
1, 34156, Control_c, 0, 64, 94
1, 34157, Note_on_c, 0, 48, 23
1, 34159, Note_on_c, 0, 60, 29
1, 34175, Control_c, 0, 64, 75
1, 34193, Control_c, 0, 64, 48
1, 34212, Control_c, 0, 64, 0
1, 34284, Control_c, 0, 64, 24
1, 34304, Control_c, 0, 64, 46
1, 34322, Control_c, 0, 64, 60
1, 34340, Control_c, 0, 64, 68
1, 34359, Control_c, 0, 64, 76
1, 34379, Control_c, 0, 64, 84
1, 34396, Control_c, 0, 64, 92
1, 34413, Control_c, 0, 64, 100
1, 34421, Note_off_c, 0, 58, 40
1, 34434, Control_c, 0, 64, 106
1, 34437, Note_off_c, 0, 48, 38
1, 34451, Control_c, 0, 64, 110
1, 34486, Control_c, 0, 64, 114
1, 34633, Note_off_c, 0, 64, 42
1, 34672, Control_c, 0, 64, 109
1, 34687, Note_on_c, 0, 58, 35
1, 34689, Control_c, 0, 64, 102
1, 34693, Note_on_c, 0, 48, 32
1, 34704, Note_on_c, 0, 65, 59
1, 34707, Control_c, 0, 64, 95
1, 34726, Control_c, 0, 64, 89
1, 34781, Control_c, 0, 64, 94
1, 34788, Note_off_c, 0, 67, 37
1, 34819, Control_c, 0, 64, 102
1, 34838, Control_c, 0, 64, 106
1, 34855, Control_c, 0, 64, 110
1, 34902, Note_off_c, 0, 48, 40
1, 34958, Note_off_c, 0, 58, 40
1, 34970, Note_off_c, 0, 65, 58
1, 35033, Note_off_c, 0, 60, 42
1, 35256, Control_c, 0, 64, 105
1, 35267, Note_on_c, 0, 53, 41
1, 35268, Note_on_c, 0, 57, 36
1, 35275, Control_c, 0, 64, 99
1, 35280, Note_on_c, 0, 65, 57
1, 35294, Control_c, 0, 64, 85
1, 35298, Note_on_c, 0, 60, 30
1, 35313, Control_c, 0, 64, 64
1, 35331, Control_c, 0, 64, 15
1, 35348, Control_c, 0, 64, 0
1, 35421, Control_c, 0, 64, 24
1, 35441, Control_c, 0, 64, 49
1, 35459, Control_c, 0, 64, 62
1, 35478, Control_c, 0, 64, 69
1, 35496, Control_c, 0, 64, 75
1, 35515, Control_c, 0, 64, 83
1, 35534, Control_c, 0, 64, 92
1, 35551, Control_c, 0, 64, 100
1, 35569, Control_c, 0, 64, 105
1, 35583, Note_off_c, 0, 57, 42
1, 35584, Note_off_c, 0, 60, 42
1, 35596, Note_off_c, 0, 53, 36
1, 35606, Control_c, 0, 64, 110
1, 35641, Control_c, 0, 64, 115
1, 35825, Note_on_c, 0, 53, 35
1, 35827, Control_c, 0, 64, 107
1, 35842, Note_on_c, 0, 60, 38
1, 35845, Control_c, 0, 64, 94
1, 35846, Note_on_c, 0, 57, 34
1, 35863, Control_c, 0, 64, 73
1, 35881, Control_c, 0, 64, 49
1, 35900, Control_c, 0, 64, 35
1, 35919, Control_c, 0, 64, 40
1, 35952, Control_c, 0, 64, 51
1, 35973, Control_c, 0, 64, 62
1, 35990, Control_c, 0, 64, 69
1, 36009, Control_c, 0, 64, 75
1, 36025, Control_c, 0, 64, 83
1, 36045, Control_c, 0, 64, 91
1, 36063, Control_c, 0, 64, 100
1, 36080, Control_c, 0, 64, 107
1, 36118, Control_c, 0, 64, 111
1, 36136, Note_off_c, 0, 60, 41
1, 36167, Note_off_c, 0, 53, 42
1, 36175, Note_off_c, 0, 57, 32
1, 36193, Control_c, 0, 64, 115
1, 36375, Control_c, 0, 64, 109
1, 36392, Note_on_c, 0, 57, 26
1, 36393, Control_c, 0, 64, 99
1, 36401, Note_on_c, 0, 60, 34
1, 36405, Note_on_c, 0, 51, 37
1, 36412, Control_c, 0, 64, 81
1, 36430, Control_c, 0, 64, 61
1, 36450, Control_c, 0, 64, 36
1, 36469, Control_c, 0, 64, 29
1, 36485, Control_c, 0, 64, 35
1, 36504, Control_c, 0, 64, 48
1, 36522, Control_c, 0, 64, 59
1, 36543, Control_c, 0, 64, 66
1, 36560, Control_c, 0, 64, 71
1, 36577, Control_c, 0, 64, 76
1, 36595, Control_c, 0, 64, 83
1, 36615, Control_c, 0, 64, 90
1, 36633, Control_c, 0, 64, 97
1, 36647, Note_off_c, 0, 60, 36
1, 36651, Control_c, 0, 64, 103
1, 36670, Note_off_c, 0, 51, 39
1, 36670, Note_off_c, 0, 57, 40
1, 36670, Control_c, 0, 64, 107
1, 36708, Control_c, 0, 64, 112
1, 36762, Control_c, 0, 64, 118
1, 36797, Control_c, 0, 64, 123
1, 36926, Control_c, 0, 64, 115
1, 36942, Control_c, 0, 64, 101
1, 36956, Note_on_c, 0, 51, 34
1, 36962, Control_c, 0, 64, 80
1, 36972, Note_on_c, 0, 60, 27
1, 36975, Note_on_c, 0, 57, 19
1, 36981, Control_c, 0, 64, 59
1, 37000, Control_c, 0, 64, 46
1, 37017, Control_c, 0, 64, 50
1, 37037, Control_c, 0, 64, 59
1, 37053, Control_c, 0, 64, 68
1, 37073, Control_c, 0, 64, 77
1, 37090, Control_c, 0, 64, 87
1, 37110, Control_c, 0, 64, 98
1, 37129, Control_c, 0, 64, 110
1, 37136, Note_off_c, 0, 60, 46
1, 37147, Note_off_c, 0, 57, 51
1, 37147, Control_c, 0, 64, 123
1, 37160, Note_off_c, 0, 65, 61
1, 37164, Control_c, 0, 64, 127
1, 37232, Poly_aftertouch_c, 0, 51, 24
1, 37298, Note_off_c, 0, 51, 26
1, 37655, Note_on_c, 0, 50, 37
1, 37666, Note_on_c, 0, 58, 31
1, 37669, Note_on_c, 0, 65, 55
1, 37681, Control_c, 0, 64, 123
1, 37699, Control_c, 0, 64, 105
1, 37705, Note_on_c, 0, 77, 41
1, 37707, Note_on_c, 0, 74, 42
1, 37717, Control_c, 0, 64, 77
1, 37734, Control_c, 0, 64, 32
1, 37752, Control_c, 0, 64, 0
1, 37824, Control_c, 0, 64, 34
1, 37844, Control_c, 0, 64, 57
1, 37862, Control_c, 0, 64, 68
1, 37880, Control_c, 0, 64, 79
1, 37897, Control_c, 0, 64, 93
1, 37905, Note_off_c, 0, 58, 42
1, 37916, Control_c, 0, 64, 108
1, 37932, Note_off_c, 0, 50, 39
1, 37934, Control_c, 0, 64, 121
1, 37953, Control_c, 0, 64, 127
1, 37969, Note_off_c, 0, 77, 42
1, 37976, Note_off_c, 0, 74, 42
1, 38220, Note_on_c, 0, 50, 39
1, 38234, Note_on_c, 0, 74, 49
1, 38236, Note_on_c, 0, 77, 48
1, 38241, Note_on_c, 0, 58, 26
1, 38296, Note_off_c, 0, 74, 56
1, 38338, Note_off_c, 0, 77, 39
1, 38359, Note_off_c, 0, 50, 54
1, 38376, Note_off_c, 0, 58, 42
1, 38460, Note_on_c, 0, 74, 55
1, 38463, Note_on_c, 0, 70, 55
1, 38533, Note_off_c, 0, 70, 56
1, 38554, Note_off_c, 0, 74, 62
1, 38688, Note_off_c, 0, 65, 41
1, 38726, Note_on_c, 0, 68, 68
1, 38731, Note_on_c, 0, 74, 55
1, 38760, Control_c, 0, 64, 113
1, 38761, Note_on_c, 0, 46, 28
1, 38770, Note_on_c, 0, 77, 51
1, 38778, Note_on_c, 0, 58, 26
1, 38779, Control_c, 0, 64, 84
1, 38799, Control_c, 0, 64, 52
1, 38816, Control_c, 0, 64, 15
1, 38835, Control_c, 0, 64, 24
1, 38853, Control_c, 0, 64, 48
1, 38871, Control_c, 0, 64, 65
1, 38890, Control_c, 0, 64, 77
1, 38908, Control_c, 0, 64, 90
1, 38926, Control_c, 0, 64, 102
1, 38944, Control_c, 0, 64, 112
1, 38963, Control_c, 0, 64, 117
1, 38979, Note_off_c, 0, 74, 59
1, 38990, Note_off_c, 0, 46, 41
1, 39007, Note_off_c, 0, 58, 35
1, 39010, Note_off_c, 0, 77, 40
1, 39019, Control_c, 0, 64, 123
1, 39037, Control_c, 0, 64, 127
1, 39085, Note_off_c, 0, 68, 60
1, 39264, Note_on_c, 0, 46, 44
1, 39266, Note_on_c, 0, 67, 71
1, 39290, Note_on_c, 0, 58, 27
1, 39294, Note_on_c, 0, 77, 57
1, 39320, Note_on_c, 0, 74, 26
1, 39371, Note_off_c, 0, 74, 43
1, 39414, Note_off_c, 0, 77, 59
1, 39492, Note_on_c, 0, 74, 60
1, 39496, Note_on_c, 0, 70, 65
1, 39502, Note_off_c, 0, 46, 44
1, 39520, Note_off_c, 0, 58, 38
1, 39529, Note_off_c, 0, 67, 36
1, 39582, Note_off_c, 0, 70, 50
1, 39604, Note_off_c, 0, 74, 57
1, 39784, Note_on_c, 0, 67, 73
1, 39785, Note_on_c, 0, 51, 48
1, 39787, Note_on_c, 0, 74, 59
1, 39817, Note_on_c, 0, 58, 23
1, 39824, Control_c, 0, 64, 117
1, 39826, Note_on_c, 0, 77, 48
1, 39843, Control_c, 0, 64, 87
1, 39861, Control_c, 0, 64, 21
1, 39879, Control_c, 0, 64, 0
1, 39990, Control_c, 0, 64, 41
1, 40008, Control_c, 0, 64, 60
1, 40026, Control_c, 0, 64, 72
1, 40045, Control_c, 0, 64, 86
1, 40048, Note_off_c, 0, 74, 59
1, 40064, Control_c, 0, 64, 102
1, 40080, Control_c, 0, 64, 115
1, 40094, Note_off_c, 0, 77, 49
1, 40098, Control_c, 0, 64, 123
1, 40126, Note_off_c, 0, 58, 40
1, 40130, Note_off_c, 0, 51, 41
1, 40136, Control_c, 0, 64, 127
1, 40297, Note_on_c, 0, 51, 42
1, 40308, Note_on_c, 0, 79, 51
1, 40316, Note_on_c, 0, 75, 48
1, 40319, Note_on_c, 0, 58, 25
1, 40321, Control_c, 0, 64, 114
1, 40338, Control_c, 0, 64, 92
1, 40358, Control_c, 0, 64, 70
1, 40377, Control_c, 0, 64, 59
1, 40393, Control_c, 0, 64, 62
1, 40412, Control_c, 0, 64, 69
1, 40430, Control_c, 0, 64, 80
1, 40450, Control_c, 0, 64, 95
1, 40467, Control_c, 0, 64, 109
1, 40487, Control_c, 0, 64, 118
1, 40501, Note_off_c, 0, 79, 57
1, 40506, Control_c, 0, 64, 123
1, 40545, Note_off_c, 0, 75, 54
1, 40553, Note_off_c, 0, 58, 40
1, 40750, Note_off_c, 0, 51, 36
1, 40833, Control_c, 0, 64, 112
1, 40851, Control_c, 0, 64, 91
1, 40868, Note_on_c, 0, 50, 38
1, 40870, Control_c, 0, 64, 66
1, 40874, Note_on_c, 0, 79, 48
1, 40874, Note_on_c, 0, 75, 46
1, 40883, Note_on_c, 0, 58, 16
1, 40888, Control_c, 0, 64, 39
1, 40925, Control_c, 0, 64, 50
1, 40943, Control_c, 0, 64, 62
1, 40961, Control_c, 0, 64, 72
1, 40980, Control_c, 0, 64, 83
1, 40999, Control_c, 0, 64, 94
1, 41000, Note_off_c, 0, 67, 57
1, 41015, Control_c, 0, 64, 107
1, 41022, Note_off_c, 0, 79, 63
1, 41030, Note_off_c, 0, 75, 56
1, 41033, Control_c, 0, 64, 118
1, 41052, Control_c, 0, 64, 124
1, 41083, Note_off_c, 0, 58, 38
1, 41096, Note_off_c, 0, 50, 43
1, 41386, Note_on_c, 0, 69, 70
1, 41390, Note_on_c, 0, 82, 64
1, 41394, Note_on_c, 0, 79, 55
1, 41397, Note_on_c, 0, 58, 42
1, 41403, Control_c, 0, 64, 117
1, 41406, Note_on_c, 0, 50, 44
1, 41422, Control_c, 0, 64, 99
1, 41440, Control_c, 0, 64, 86
1, 41476, Control_c, 0, 64, 94
1, 41495, Control_c, 0, 64, 108
1, 41513, Control_c, 0, 64, 127
1, 41527, Note_off_c, 0, 79, 54
1, 41532, Note_off_c, 0, 82, 60
1, 41565, Note_off_c, 0, 58, 54
1, 41665, Note_off_c, 0, 50, 40
1, 41935, Note_on_c, 0, 70, 76
1, 41944, Note_on_c, 0, 51, 32
1, 41944, Note_on_c, 0, 60, 21
1, 41949, Note_on_c, 0, 48, 32
1, 41953, Note_off_c, 0, 69, 61
1, 41959, Note_on_c, 0, 75, 54
1, 41969, Note_on_c, 0, 79, 54
1, 41990, Control_c, 0, 64, 108
1, 42008, Control_c, 0, 64, 79
1, 42027, Control_c, 0, 64, 44
1, 42046, Control_c, 0, 64, 0
1, 42103, Control_c, 0, 64, 28
1, 42119, Control_c, 0, 64, 54
1, 42137, Control_c, 0, 64, 69
1, 42156, Control_c, 0, 64, 83
1, 42176, Control_c, 0, 64, 101
1, 42192, Control_c, 0, 64, 120
1, 42210, Control_c, 0, 64, 127
1, 42222, Note_off_c, 0, 75, 62
1, 42237, Note_off_c, 0, 79, 55
1, 42241, Poly_aftertouch_c, 0, 51, 20
1, 42246, Note_off_c, 0, 51, 30
1, 42252, Note_off_c, 0, 60, 42
1, 42256, Note_off_c, 0, 48, 38
1, 42437, Note_off_c, 0, 70, 56
1, 42469, Note_on_c, 0, 75, 50
1, 42470, Note_on_c, 0, 79, 47
1, 42477, Note_on_c, 0, 51, 35
1, 42517, Note_on_c, 0, 48, 15
1, 42518, Note_on_c, 0, 60, 6
1, 42535, Note_off_c, 0, 75, 60
1, 42630, Note_off_c, 0, 79, 37
1, 42718, Note_off_c, 0, 60, 41
1, 42728, Note_on_c, 0, 72, 58
1, 42731, Note_off_c, 0, 51, 40
1, 42738, Note_on_c, 0, 75, 55
1, 42739, Note_off_c, 0, 48, 34
1, 42786, Note_off_c, 0, 72, 54
1, 42810, Note_off_c, 0, 75, 47
1, 42997, Note_on_c, 0, 74, 76
1, 43011, Note_on_c, 0, 60, 28
1, 43015, Note_on_c, 0, 51, 33
1, 43031, Note_on_c, 0, 75, 51
1, 43032, Note_on_c, 0, 48, 29
1, 43055, Control_c, 0, 64, 118
1, 43073, Control_c, 0, 64, 97
1, 43093, Control_c, 0, 64, 72
1, 43111, Control_c, 0, 64, 49
1, 43128, Control_c, 0, 64, 45
1, 43148, Control_c, 0, 64, 52
1, 43165, Control_c, 0, 64, 62
1, 43184, Control_c, 0, 64, 74
1, 43196, Control_c, 0, 64, 87
1, 43214, Control_c, 0, 64, 101
1, 43230, Note_off_c, 0, 60, 41
1, 43233, Control_c, 0, 64, 114
1, 43252, Control_c, 0, 64, 125
1, 43274, Note_off_c, 0, 48, 35
1, 43275, Note_off_c, 0, 51, 30
1, 43311, Note_off_c, 0, 75, 40
1, 43358, Note_off_c, 0, 74, 56
1, 43363, Poly_aftertouch_c, 0, 79, 0
1, 43519, Note_on_c, 0, 72, 78
1, 43521, Note_on_c, 0, 60, 43
1, 43534, Note_on_c, 0, 51, 40
1, 43548, Note_on_c, 0, 48, 29
1, 43557, Note_on_c, 0, 79, 41
1, 43606, Note_off_c, 0, 79, 46
1, 43710, Note_off_c, 0, 60, 40
1, 43751, Note_on_c, 0, 75, 70
1, 43771, Note_off_c, 0, 72, 58
1, 43840, Note_off_c, 0, 75, 60
1, 43859, Note_off_c, 0, 48, 31
1, 43866, Note_off_c, 0, 51, 30
1, 44043, Note_on_c, 0, 69, 67
1, 44046, Note_on_c, 0, 53, 41
1, 44054, Note_on_c, 0, 60, 27
1, 44062, Note_on_c, 0, 75, 56
1, 44078, Note_on_c, 0, 79, 52
1, 44095, Control_c, 0, 64, 112
1, 44114, Control_c, 0, 64, 82
1, 44131, Control_c, 0, 64, 48
1, 44149, Control_c, 0, 64, 0
1, 44206, Control_c, 0, 64, 29
1, 44223, Control_c, 0, 64, 58
1, 44243, Control_c, 0, 64, 75
1, 44262, Control_c, 0, 64, 96
1, 44279, Control_c, 0, 64, 123
1, 44297, Control_c, 0, 64, 127
1, 44338, Note_off_c, 0, 79, 61
1, 44342, Note_off_c, 0, 75, 62
1, 44352, Note_off_c, 0, 53, 30
1, 44446, Note_off_c, 0, 60, 36
1, 44616, Note_on_c, 0, 81, 55
1, 44616, Note_on_c, 0, 77, 53
1, 44630, Note_on_c, 0, 53, 33
1, 44645, Note_on_c, 0, 60, 25
1, 44697, Note_off_c, 0, 53, 62
1, 44768, Note_off_c, 0, 81, 62
1, 44784, Note_off_c, 0, 77, 35
1, 44838, Note_off_c, 0, 60, 47
1, 44845, Note_off_c, 0, 69, 59
1, 45140, Control_c, 0, 64, 120
1, 45156, Note_on_c, 0, 67, 78
1, 45157, Control_c, 0, 64, 88
1, 45176, Control_c, 0, 64, 59
1, 45177, Note_on_c, 0, 81, 61
1, 45177, Note_on_c, 0, 60, 51
1, 45178, Note_on_c, 0, 77, 54
1, 45183, Note_on_c, 0, 51, 45
1, 45186, Note_on_c, 0, 57, 38
1, 45195, Control_c, 0, 64, 49
1, 45215, Control_c, 0, 64, 58
1, 45231, Control_c, 0, 64, 69
1, 45252, Control_c, 0, 64, 89
1, 45259, Note_off_c, 0, 51, 59
1, 45266, Note_off_c, 0, 57, 62
1, 45271, Control_c, 0, 64, 123
1, 45288, Control_c, 0, 64, 127
1, 45352, Note_off_c, 0, 67, 60
1, 45354, Note_off_c, 0, 60, 62
1, 45369, Note_off_c, 0, 77, 63
1, 45377, Note_off_c, 0, 81, 59
1, 45735, Note_on_c, 0, 81, 60
1, 45736, Note_on_c, 0, 65, 76
1, 45737, Note_on_c, 0, 84, 62
1, 45744, Note_on_c, 0, 60, 55
1, 45756, Note_on_c, 0, 57, 53
1, 45819, Note_off_c, 0, 57, 59
1, 45855, Note_off_c, 0, 60, 52
1, 45872, Note_off_c, 0, 65, 62
1, 45953, Note_off_c, 0, 81, 62
1, 46027, Note_off_c, 0, 84, 62
1, 46297, Note_on_c, 0, 50, 30
1, 46299, Note_on_c, 0, 53, 38
1, 46312, Note_on_c, 0, 58, 36
1, 46351, Note_on_c, 0, 77, 73
1, 46403, Control_c, 0, 64, 122
1, 46420, Control_c, 0, 64, 97
1, 46440, Control_c, 0, 64, 70
1, 46458, Control_c, 0, 64, 39
1, 46475, Control_c, 0, 64, 30
1, 46493, Control_c, 0, 64, 35
1, 46513, Control_c, 0, 64, 46
1, 46531, Control_c, 0, 64, 60
1, 46549, Control_c, 0, 64, 70
1, 46569, Control_c, 0, 64, 81
1, 46587, Control_c, 0, 64, 94
1, 46606, Control_c, 0, 64, 110
1, 46624, Control_c, 0, 64, 125
1, 46634, Note_off_c, 0, 50, 43
1, 46644, Note_off_c, 0, 77, 55
1, 46656, Note_off_c, 0, 58, 37
1, 46680, Note_off_c, 0, 53, 34
1, 46876, Note_on_c, 0, 58, 33
1, 46881, Note_on_c, 0, 53, 37
1, 46882, Note_on_c, 0, 82, 64
1, 46897, Note_on_c, 0, 74, 47
1, 46902, Note_on_c, 0, 50, 27
1, 46977, Note_on_c, 0, 84, 67
1, 47003, Note_off_c, 0, 50, 46
1, 47042, Note_off_c, 0, 82, 57
1, 47090, Note_on_c, 0, 86, 66
1, 47111, Note_off_c, 0, 58, 36
1, 47112, Note_off_c, 0, 84, 60
1, 47114, Note_off_c, 0, 53, 40
1, 47185, Note_off_c, 0, 74, 42
1, 47231, Note_off_c, 0, 86, 54
1, 47372, Note_on_c, 0, 79, 76
1, 47389, Note_on_c, 0, 58, 44
1, 47393, Note_on_c, 0, 74, 53
1, 47393, Control_c, 0, 64, 107
1, 47394, Note_on_c, 0, 51, 43
1, 47399, Note_on_c, 0, 55, 46
1, 47403, Note_on_c, 0, 82, 53
1, 47409, Control_c, 0, 64, 58
1, 47428, Control_c, 0, 64, 0
1, 47522, Control_c, 0, 64, 35
1, 47541, Control_c, 0, 64, 57
1, 47559, Control_c, 0, 64, 68
1, 47576, Control_c, 0, 64, 83
1, 47596, Control_c, 0, 64, 106
1, 47612, Note_off_c, 0, 55, 61
1, 47614, Control_c, 0, 64, 127
1, 47643, Note_off_c, 0, 58, 60
1, 47646, Note_off_c, 0, 51, 35
1, 47646, Note_on_c, 0, 86, 68
1, 47670, Note_off_c, 0, 82, 54
1, 47721, Note_off_c, 0, 79, 60
1, 47741, Note_off_c, 0, 86, 55
1, 47806, Note_off_c, 0, 74, 54
1, 47874, Note_on_c, 0, 77, 76
1, 47881, Note_on_c, 0, 84, 66
1, 47888, Control_c, 0, 64, 110
1, 47898, Note_on_c, 0, 57, 45
1, 47902, Note_on_c, 0, 60, 47
1, 47906, Control_c, 0, 64, 77
1, 47913, Note_on_c, 0, 51, 39
1, 47926, Control_c, 0, 64, 51
1, 47945, Control_c, 0, 64, 54
1, 47964, Control_c, 0, 64, 66
1, 47982, Control_c, 0, 64, 85
1, 47993, Note_off_c, 0, 57, 62
1, 47999, Note_off_c, 0, 60, 61
1, 47999, Control_c, 0, 64, 117
1, 48020, Control_c, 0, 64, 127
1, 48059, Note_off_c, 0, 51, 54
1, 48060, Note_off_c, 0, 84, 62
1, 48097, Note_off_c, 0, 77, 62
1, 48142, Note_on_c, 0, 72, 59
1, 48180, Note_off_c, 0, 72, 66
1, 48390, Note_on_c, 0, 58, 31
1, 48391, Note_on_c, 0, 50, 38
1, 48394, Note_on_c, 0, 46, 33
1, 48411, Note_on_c, 0, 77, 74
1, 48438, Control_c, 0, 64, 116
1, 48438, Note_on_c, 0, 70, 53
1, 48452, Note_on_c, 0, 82, 44
1, 48455, Control_c, 0, 64, 88
1, 48476, Control_c, 0, 64, 55
1, 48494, Control_c, 0, 64, 0
1, 48584, Control_c, 0, 64, 40
1, 48604, Control_c, 0, 64, 63
1, 48622, Control_c, 0, 64, 76
1, 48641, Control_c, 0, 64, 91
1, 48659, Control_c, 0, 64, 106
1, 48677, Control_c, 0, 64, 119
1, 48689, Note_off_c, 0, 58, 38
1, 48696, Note_off_c, 0, 50, 41
1, 48696, Control_c, 0, 64, 127
1, 48716, Note_off_c, 0, 46, 40
1, 48942, Note_on_c, 0, 74, 73
1, 48963, Note_on_c, 0, 46, 28
1, 48967, Note_on_c, 0, 50, 29
1, 48974, Note_on_c, 0, 58, 30
1, 48982, Note_off_c, 0, 82, 42
1, 48998, Note_off_c, 0, 77, 61
1, 49029, Note_off_c, 0, 46, 46
1, 49059, Note_off_c, 0, 74, 63
1, 49088, Note_off_c, 0, 50, 55
1, 49094, Note_off_c, 0, 70, 65
1, 49174, Note_off_c, 0, 58, 35
1, 49488, Note_on_c, 0, 51, 36
1, 49495, Note_on_c, 0, 48, 35
1, 49498, Note_on_c, 0, 72, 63
1, 49500, Control_c, 0, 64, 122
1, 49502, Note_on_c, 0, 63, 42
1, 49508, Note_on_c, 0, 58, 25
1, 49519, Control_c, 0, 64, 96
1, 49538, Control_c, 0, 64, 61
1, 49556, Control_c, 0, 64, 0
1, 49651, Control_c, 0, 64, 30
1, 49666, Control_c, 0, 64, 57
1, 49686, Control_c, 0, 64, 69
1, 49704, Control_c, 0, 64, 78
1, 49722, Control_c, 0, 64, 89
1, 49741, Control_c, 0, 64, 100
1, 49758, Control_c, 0, 64, 113
1, 49762, Note_off_c, 0, 48, 41
1, 49764, Note_off_c, 0, 51, 41
1, 49771, Note_off_c, 0, 58, 35
1, 49775, Control_c, 0, 64, 125
1, 50054, Note_on_c, 0, 70, 66
1, 50064, Note_on_c, 0, 51, 32
1, 50072, Note_off_c, 0, 72, 61
1, 50076, Note_on_c, 0, 48, 30
1, 50085, Note_on_c, 0, 58, 21
1, 50160, Note_off_c, 0, 63, 59
1, 50244, Note_off_c, 0, 51, 36
1, 50265, Note_off_c, 0, 70, 63
1, 50285, Note_off_c, 0, 48, 35
1, 50291, Note_off_c, 0, 58, 37
1, 50608, Note_on_c, 0, 50, 33
1, 50612, Note_on_c, 0, 53, 34
1, 50633, Note_on_c, 0, 58, 26
1, 50644, Note_on_c, 0, 77, 64
1, 50676, Control_c, 0, 64, 99
1, 50693, Control_c, 0, 64, 67
1, 50711, Control_c, 0, 64, 0
1, 50767, Control_c, 0, 64, 49
1, 50787, Control_c, 0, 64, 67
1, 50804, Control_c, 0, 64, 82
1, 50824, Control_c, 0, 64, 102
1, 50841, Control_c, 0, 64, 121
1, 50860, Control_c, 0, 64, 127
1, 50867, Note_off_c, 0, 77, 64
1, 50934, Note_off_c, 0, 58, 35
1, 50960, Note_off_c, 0, 53, 37
1, 50972, Note_off_c, 0, 50, 42
1, 51169, Note_on_c, 0, 53, 40
1, 51175, Note_on_c, 0, 50, 27
1, 51180, Note_on_c, 0, 82, 53
1, 51199, Note_on_c, 0, 58, 23
1, 51204, Note_on_c, 0, 74, 21
1, 51245, Note_off_c, 0, 50, 59
1, 51271, Note_on_c, 0, 84, 62
1, 51279, Note_off_c, 0, 82, 60
1, 51292, Note_off_c, 0, 53, 57
1, 51379, Note_off_c, 0, 84, 63
1, 51385, Note_on_c, 0, 86, 52
1, 51396, Note_off_c, 0, 58, 41
1, 51428, Note_off_c, 0, 86, 48
1, 51452, Note_off_c, 0, 74, 33
1, 51648, Control_c, 0, 64, 109
1, 51657, Note_on_c, 0, 51, 40
1, 51660, Note_on_c, 0, 79, 64
1, 51666, Control_c, 0, 64, 81
1, 51682, Note_on_c, 0, 55, 35
1, 51686, Control_c, 0, 64, 61
1, 51692, Note_on_c, 0, 58, 22
1, 51705, Control_c, 0, 64, 60
1, 51713, Note_on_c, 0, 74, 14
1, 51722, Control_c, 0, 64, 64
1, 51734, Note_on_c, 0, 82, 19
1, 51739, Control_c, 0, 64, 72
1, 51761, Control_c, 0, 64, 84
1, 51778, Control_c, 0, 64, 98
1, 51796, Control_c, 0, 64, 113
1, 51815, Control_c, 0, 64, 127
1, 51840, Note_off_c, 0, 55, 52
1, 51875, Note_off_c, 0, 58, 47
1, 51918, Note_off_c, 0, 51, 29
1, 51944, Note_on_c, 0, 86, 52
1, 51971, Note_off_c, 0, 82, 39
1, 52006, Note_off_c, 0, 86, 56
1, 52011, Note_off_c, 0, 79, 60
1, 52082, Note_off_c, 0, 74, 30
1, 52161, Control_c, 0, 64, 113
1, 52167, Note_on_c, 0, 77, 72
1, 52177, Control_c, 0, 64, 81
1, 52181, Note_on_c, 0, 84, 60
1, 52191, Note_on_c, 0, 60, 37
1, 52192, Note_on_c, 0, 57, 40
1, 52196, Control_c, 0, 64, 45
1, 52203, Note_on_c, 0, 51, 39
1, 52215, Control_c, 0, 64, 26
1, 52234, Control_c, 0, 64, 41
1, 52252, Control_c, 0, 64, 61
1, 52271, Control_c, 0, 64, 77
1, 52291, Control_c, 0, 64, 102
1, 52304, Note_off_c, 0, 57, 62
1, 52307, Control_c, 0, 64, 127
1, 52309, Note_off_c, 0, 60, 60
1, 52339, Note_off_c, 0, 84, 64
1, 52350, Note_off_c, 0, 51, 61
1, 52358, Note_off_c, 0, 77, 63
1, 52414, Note_on_c, 0, 72, 50
1, 52449, Note_off_c, 0, 72, 58
1, 52688, Note_on_c, 0, 50, 38
1, 52694, Note_on_c, 0, 77, 69
1, 52696, Note_on_c, 0, 58, 38
1, 52698, Note_on_c, 0, 46, 32
1, 52713, Note_on_c, 0, 70, 52
1, 52730, Note_on_c, 0, 82, 39
1, 52770, Control_c, 0, 64, 89
1, 52796, Control_c, 0, 64, 29
1, 52815, Control_c, 0, 64, 0
1, 52927, Control_c, 0, 64, 27
1, 52947, Control_c, 0, 64, 43
1, 52981, Control_c, 0, 64, 48
1, 53000, Control_c, 0, 64, 58
1, 53019, Control_c, 0, 64, 68
1, 53035, Control_c, 0, 64, 78
1, 53044, Note_off_c, 0, 50, 41
1, 53054, Control_c, 0, 64, 89
1, 53073, Control_c, 0, 64, 101
1, 53090, Note_off_c, 0, 58, 40
1, 53090, Control_c, 0, 64, 111
1, 53098, Note_off_c, 0, 46, 44
1, 53108, Control_c, 0, 64, 116
1, 53147, Control_c, 0, 64, 122
1, 53165, Control_c, 0, 64, 126
1, 53252, Note_on_c, 0, 74, 71
1, 53252, Note_on_c, 0, 46, 43
1, 53281, Note_on_c, 0, 58, 15
1, 53292, Note_on_c, 0, 50, 41
1, 53297, Note_off_c, 0, 82, 40
1, 53331, Note_off_c, 0, 77, 58
1, 53370, Note_off_c, 0, 74, 63
1, 53397, Note_off_c, 0, 50, 61
1, 53407, Note_off_c, 0, 70, 62
1, 53439, Note_off_c, 0, 46, 36
1, 53499, Note_off_c, 0, 58, 40
1, 53790, Note_on_c, 0, 53, 34
1, 53799, Note_on_c, 0, 58, 32
1, 53804, Note_on_c, 0, 50, 41
1, 53806, Note_on_c, 0, 72, 64
1, 53820, Note_on_c, 0, 65, 37
1, 53823, Control_c, 0, 64, 122
1, 53842, Control_c, 0, 64, 112
1, 53862, Control_c, 0, 64, 94
1, 53880, Control_c, 0, 64, 69
1, 53917, Control_c, 0, 64, 0
1, 54007, Control_c, 0, 64, 36
1, 54027, Control_c, 0, 64, 56
1, 54043, Control_c, 0, 64, 67
1, 54062, Control_c, 0, 64, 76
1, 54081, Control_c, 0, 64, 87
1, 54099, Control_c, 0, 64, 97
1, 54114, Note_off_c, 0, 50, 42
1, 54117, Control_c, 0, 64, 105
1, 54127, Note_off_c, 0, 53, 42
1, 54130, Note_off_c, 0, 58, 38
1, 54136, Control_c, 0, 64, 110
1, 54175, Control_c, 0, 64, 115
1, 54209, Control_c, 0, 64, 122
1, 54301, Control_c, 0, 64, 112
1, 54308, Note_on_c, 0, 50, 35
1, 54318, Note_on_c, 0, 70, 69
1, 54320, Control_c, 0, 64, 99
1, 54321, Note_on_c, 0, 53, 30
1, 54321, Note_on_c, 0, 58, 26
1, 54338, Control_c, 0, 64, 85
1, 54358, Control_c, 0, 64, 75
1, 54377, Control_c, 0, 64, 70
1, 54394, Control_c, 0, 64, 73
1, 54415, Control_c, 0, 64, 80
1, 54424, Note_off_c, 0, 72, 62
1, 54429, Control_c, 0, 64, 91
1, 54449, Control_c, 0, 64, 101
1, 54468, Control_c, 0, 64, 106
1, 54482, Note_off_c, 0, 58, 53
1, 54525, Note_off_c, 0, 65, 42
1, 54562, Control_c, 0, 64, 111
1, 54573, Note_off_c, 0, 50, 41
1, 54599, Note_off_c, 0, 70, 53
1, 54851, Control_c, 0, 64, 107
1, 54867, Note_on_c, 0, 60, 30
1, 54888, Control_c, 0, 64, 103
1, 54893, Note_on_c, 0, 48, 36
1, 54900, Note_on_c, 0, 75, 63
1, 54904, Control_c, 0, 64, 97
1, 54920, Note_off_c, 0, 53, 42
1, 54922, Control_c, 0, 64, 85
1, 54925, Note_on_c, 0, 70, 44
1, 54928, Note_on_c, 0, 67, 32
1, 54943, Control_c, 0, 64, 66
1, 54962, Control_c, 0, 64, 29
1, 54978, Control_c, 0, 64, 0
1, 55071, Control_c, 0, 64, 28
1, 55091, Control_c, 0, 64, 51
1, 55109, Control_c, 0, 64, 63
1, 55126, Control_c, 0, 64, 72
1, 55144, Control_c, 0, 64, 84
1, 55163, Control_c, 0, 64, 98
1, 55178, Note_off_c, 0, 60, 41
1, 55182, Control_c, 0, 64, 109
1, 55200, Control_c, 0, 64, 116
1, 55217, Note_off_c, 0, 70, 52
1, 55227, Note_off_c, 0, 48, 38
1, 55242, Note_off_c, 0, 67, 48
1, 55255, Control_c, 0, 64, 121
1, 55418, Note_on_c, 0, 70, 50
1, 55420, Control_c, 0, 64, 110
1, 55437, Note_on_c, 0, 48, 23
1, 55441, Note_on_c, 0, 67, 22
1, 55441, Control_c, 0, 64, 94
1, 55459, Control_c, 0, 64, 73
1, 55468, Note_on_c, 0, 60, 18
1, 55477, Control_c, 0, 64, 52
1, 55496, Control_c, 0, 64, 45
1, 55513, Control_c, 0, 64, 50
1, 55532, Control_c, 0, 64, 57
1, 55550, Control_c, 0, 64, 65
1, 55568, Control_c, 0, 64, 72
1, 55602, Control_c, 0, 64, 81
1, 55619, Control_c, 0, 64, 93
1, 55637, Control_c, 0, 64, 106
1, 55645, Note_off_c, 0, 70, 59
1, 55657, Control_c, 0, 64, 115
1, 55682, Note_off_c, 0, 67, 51
1, 55694, Note_off_c, 0, 60, 29
1, 55712, Control_c, 0, 64, 120
1, 55768, Poly_aftertouch_c, 0, 48, 24
1, 55825, Note_off_c, 0, 48, 36
1, 55932, Control_c, 0, 64, 116
1, 55971, Control_c, 0, 64, 110
1, 55988, Note_on_c, 0, 69, 45
1, 55988, Control_c, 0, 64, 99
1, 56006, Control_c, 0, 64, 79
1, 56006, Note_on_c, 0, 53, 34
1, 56021, Note_on_c, 0, 65, 35
1, 56024, Control_c, 0, 64, 54
1, 56044, Control_c, 0, 64, 0
1, 56067, Poly_aftertouch_c, 0, 60, 127
1, 56117, Control_c, 0, 64, 32
1, 56135, Control_c, 0, 64, 52
1, 56152, Control_c, 0, 64, 62
1, 56172, Control_c, 0, 64, 70
1, 56190, Control_c, 0, 64, 78
1, 56208, Control_c, 0, 64, 89
1, 56227, Control_c, 0, 64, 99
1, 56245, Poly_aftertouch_c, 0, 60, 0
1, 56245, Control_c, 0, 64, 107
1, 56265, Control_c, 0, 64, 112
1, 56291, Note_off_c, 0, 53, 41
1, 56297, Note_off_c, 0, 69, 54
1, 56299, Control_c, 0, 64, 119
1, 56333, Note_off_c, 0, 65, 37
1, 56356, Control_c, 0, 64, 123
1, 56566, Note_on_c, 0, 77, 60
1, 56584, Note_on_c, 0, 69, 36
1, 56588, Note_on_c, 0, 53, 19
1, 56598, Note_on_c, 0, 65, 27
1, 56603, Note_off_c, 0, 75, 40
1, 56619, Poly_aftertouch_c, 0, 60, 127
1, 56657, Poly_aftertouch_c, 0, 60, 0
1, 56756, Note_off_c, 0, 77, 63
1, 56809, Note_off_c, 0, 65, 40
1, 56939, Note_off_c, 0, 69, 41
1, 57034, Control_c, 0, 64, 119
1, 57088, Control_c, 0, 64, 115
1, 57112, Note_on_c, 0, 74, 60
1, 57114, Note_on_c, 0, 46, 37
1, 57124, Control_c, 0, 64, 110
1, 57134, Note_on_c, 0, 58, 26
1, 57137, Note_on_c, 0, 70, 37
1, 57143, Control_c, 0, 64, 101
1, 57144, Note_on_c, 0, 65, 29
1, 57162, Control_c, 0, 64, 85
1, 57181, Control_c, 0, 64, 62
1, 57199, Control_c, 0, 64, 16
1, 57208, Note_off_c, 0, 53, 40
1, 57218, Control_c, 0, 64, 0
1, 57254, Control_c, 0, 64, 30
1, 57272, Control_c, 0, 64, 50
1, 57291, Control_c, 0, 64, 60
1, 57307, Control_c, 0, 64, 69
1, 57327, Control_c, 0, 64, 79
1, 57345, Control_c, 0, 64, 92
1, 57349, Note_off_c, 0, 65, 54
1, 57364, Control_c, 0, 64, 104
1, 57383, Control_c, 0, 64, 112
1, 57389, Note_off_c, 0, 70, 42
1, 57490, Control_c, 0, 64, 117
1, 57523, Note_off_c, 0, 74, 34
1, 57655, Control_c, 0, 64, 112
1, 57671, Note_on_c, 0, 72, 64
1, 57674, Control_c, 0, 64, 101
1, 57676, Note_on_c, 0, 63, 53
1, 57681, Note_on_c, 0, 69, 57
1, 57689, Note_on_c, 0, 48, 41
1, 57692, Control_c, 0, 64, 81
1, 57710, Control_c, 0, 64, 60
1, 57716, Note_off_c, 0, 46, 47
1, 57728, Control_c, 0, 64, 44
1, 57747, Control_c, 0, 64, 47
1, 57766, Control_c, 0, 64, 57
1, 57783, Control_c, 0, 64, 68
1, 57802, Control_c, 0, 64, 78
1, 57820, Control_c, 0, 64, 89
1, 57839, Control_c, 0, 64, 101
1, 57857, Control_c, 0, 64, 109
1, 57879, Note_off_c, 0, 69, 63
1, 57927, Note_off_c, 0, 63, 61
1, 57949, Control_c, 0, 64, 113
1, 57993, Note_off_c, 0, 58, 38
1, 58196, Note_on_c, 0, 50, 46
1, 58197, Note_on_c, 0, 70, 69
1, 58204, Note_off_c, 0, 72, 60
1, 58205, Note_on_c, 0, 65, 54
1, 58207, Control_c, 0, 64, 107
1, 58219, Note_on_c, 0, 62, 46
1, 58226, Control_c, 0, 64, 98
1, 58242, Note_off_c, 0, 48, 40
1, 58242, Control_c, 0, 64, 79
1, 58261, Control_c, 0, 64, 54
1, 58280, Control_c, 0, 64, 0
1, 58317, Control_c, 0, 64, 17
1, 58336, Control_c, 0, 64, 43
1, 58355, Control_c, 0, 64, 59
1, 58373, Control_c, 0, 64, 68
1, 58392, Control_c, 0, 64, 78
1, 58425, Control_c, 0, 64, 90
1, 58443, Control_c, 0, 64, 103
1, 58461, Control_c, 0, 64, 110
1, 58485, Note_off_c, 0, 62, 54
1, 58516, Note_off_c, 0, 70, 55
1, 58531, Note_off_c, 0, 65, 54
1, 58723, Note_off_c, 0, 50, 53
1, 58752, Note_on_c, 0, 51, 48
1, 58757, Note_on_c, 0, 72, 66
1, 58768, Note_on_c, 0, 67, 46
1, 58783, Note_on_c, 0, 60, 38
1, 58791, Control_c, 0, 64, 102
1, 58811, Control_c, 0, 64, 88
1, 58830, Control_c, 0, 64, 68
1, 58848, Control_c, 0, 64, 42
1, 58868, Control_c, 0, 64, 22
1, 58903, Control_c, 0, 64, 39
1, 58922, Control_c, 0, 64, 54
1, 58941, Control_c, 0, 64, 63
1, 58957, Control_c, 0, 64, 69
1, 58965, Note_off_c, 0, 60, 58
1, 58975, Control_c, 0, 64, 76
1, 58995, Control_c, 0, 64, 86
1, 59013, Control_c, 0, 64, 97
1, 59032, Control_c, 0, 64, 106
1, 59050, Control_c, 0, 64, 111
1, 59052, Note_off_c, 0, 72, 55
1, 59093, Note_off_c, 0, 67, 46
1, 59105, Control_c, 0, 64, 116
1, 59123, Control_c, 0, 64, 120
1, 59161, Control_c, 0, 64, 124
1, 59308, Control_c, 0, 64, 120
1, 59330, Note_on_c, 0, 69, 61
1, 59346, Note_on_c, 0, 53, 41
1, 59358, Control_c, 0, 64, 114
1, 59360, Note_on_c, 0, 65, 46
1, 59367, Note_on_c, 0, 60, 32
1, 59379, Control_c, 0, 64, 107
1, 59396, Control_c, 0, 64, 91
1, 59415, Control_c, 0, 64, 70
1, 59422, Note_off_c, 0, 51, 36
1, 59433, Control_c, 0, 64, 36
1, 59453, Control_c, 0, 64, 0
1, 59509, Control_c, 0, 64, 23
1, 59527, Control_c, 0, 64, 45
1, 59546, Control_c, 0, 64, 58
1, 59565, Control_c, 0, 64, 65
1, 59581, Control_c, 0, 64, 70
1, 59600, Control_c, 0, 64, 78
1, 59619, Control_c, 0, 64, 87
1, 59626, Note_off_c, 0, 65, 55
1, 59638, Control_c, 0, 64, 96
1, 59644, Note_off_c, 0, 60, 51
1, 59654, Control_c, 0, 64, 103
1, 59691, Control_c, 0, 64, 108
1, 59727, Note_off_c, 0, 53, 34
1, 59728, Control_c, 0, 64, 113
1, 59877, Control_c, 0, 64, 104
1, 59893, Control_c, 0, 64, 87
1, 59910, Note_on_c, 0, 53, 31
1, 59912, Control_c, 0, 64, 68
1, 59912, Note_on_c, 0, 65, 43
1, 59919, Note_on_c, 0, 60, 33
1, 59932, Control_c, 0, 64, 49
1, 59950, Control_c, 0, 64, 43
1, 59968, Control_c, 0, 64, 49
1, 59988, Control_c, 0, 64, 59
1, 60006, Control_c, 0, 64, 67
1, 60025, Control_c, 0, 64, 75
1, 60041, Control_c, 0, 64, 83
1, 60061, Control_c, 0, 64, 91
1, 60079, Control_c, 0, 64, 99
1, 60098, Control_c, 0, 64, 105
1, 60112, Note_off_c, 0, 60, 51
1, 60179, Note_off_c, 0, 65, 43
1, 60187, Control_c, 0, 64, 110
1, 60226, Control_c, 0, 64, 114
1, 60480, Control_c, 0, 64, 110
1, 60490, Note_on_c, 0, 65, 50
1, 60498, Note_on_c, 0, 41, 36
1, 60500, Control_c, 0, 64, 103
1, 60514, Note_on_c, 0, 63, 38
1, 60515, Control_c, 0, 64, 89
1, 60536, Control_c, 0, 64, 70
1, 60553, Control_c, 0, 64, 42
1, 60573, Control_c, 0, 64, 0
1, 60609, Control_c, 0, 64, 9
1, 60627, Control_c, 0, 64, 30
1, 60646, Control_c, 0, 64, 48
1, 60664, Control_c, 0, 64, 60
1, 60684, Control_c, 0, 64, 67
1, 60701, Control_c, 0, 64, 75
1, 60721, Control_c, 0, 64, 87
1, 60738, Control_c, 0, 64, 99
1, 60756, Control_c, 0, 64, 109
1, 60773, Control_c, 0, 64, 114
1, 60828, Control_c, 0, 64, 118
1, 60840, Note_off_c, 0, 41, 42
1, 60851, Note_off_c, 0, 63, 47
1, 60854, Note_off_c, 0, 69, 58
1, 60858, Note_off_c, 0, 65, 60
1, 60865, Control_c, 0, 64, 125
1, 60875, Note_off_c, 0, 53, 42
1, 61146, Note_on_c, 0, 41, 35
1, 61159, Note_on_c, 0, 70, 71
1, 61166, Note_on_c, 0, 65, 52
1, 61178, Note_on_c, 0, 63, 40
1, 61183, Note_on_c, 0, 53, 15
1, 61238, Note_off_c, 0, 41, 57
1, 61355, Note_off_c, 0, 53, 45
1, 61399, Note_off_c, 0, 65, 62
1, 61402, Note_off_c, 0, 63, 58
1, 61494, Note_off_c, 0, 70, 62
1, 61926, Note_on_c, 0, 50, 37
1, 61931, Note_on_c, 0, 70, 60
1, 61933, Note_on_c, 0, 46, 35
1, 61950, Note_on_c, 0, 77, 52
1, 61956, Note_on_c, 0, 58, 29
1, 61963, Note_on_c, 0, 74, 43
1, 61967, Control_c, 0, 64, 121
1, 62003, Control_c, 0, 64, 110
1, 62021, Control_c, 0, 64, 96
1, 62041, Control_c, 0, 64, 73
1, 62059, Control_c, 0, 64, 29
1, 62078, Control_c, 0, 64, 0
1, 62184, Control_c, 0, 64, 43
1, 62204, Control_c, 0, 64, 58
1, 62221, Control_c, 0, 64, 67
1, 62239, Control_c, 0, 64, 77
1, 62257, Control_c, 0, 64, 90
1, 62276, Control_c, 0, 64, 102
1, 62278, Note_off_c, 0, 46, 41
1, 62293, Control_c, 0, 64, 111
1, 62294, Note_off_c, 0, 77, 54
1, 62327, Note_off_c, 0, 58, 36
1, 62332, Control_c, 0, 64, 115
1, 62338, Note_off_c, 0, 74, 37
1, 62368, Control_c, 0, 64, 123
1, 62386, Control_c, 0, 64, 127
1, 62557, Note_on_c, 0, 77, 58
1, 62578, Note_on_c, 0, 58, 26
1, 62581, Note_on_c, 0, 46, 34
1, 62595, Note_on_c, 0, 74, 32
1, 62641, Note_off_c, 0, 70, 31
1, 62666, Note_off_c, 0, 74, 59
1, 62712, Note_off_c, 0, 46, 38
1, 62754, Note_off_c, 0, 58, 33
1, 62762, Note_off_c, 0, 77, 56
1, 62820, Note_on_c, 0, 74, 61
1, 62849, Note_on_c, 0, 70, 39
1, 62921, Note_off_c, 0, 74, 60
1, 62945, Note_off_c, 0, 70, 0
1, 63015, Poly_aftertouch_c, 0, 70, 0
1, 63065, Note_on_c, 0, 77, 68
1, 63078, Note_on_c, 0, 58, 30
1, 63099, Note_on_c, 0, 74, 48
1, 63113, Note_on_c, 0, 46, 31
1, 63167, Note_off_c, 0, 74, 52
1, 63203, Note_off_c, 0, 46, 52
1, 63254, Note_off_c, 0, 77, 62
1, 63279, Note_off_c, 0, 58, 34
1, 63623, Note_on_c, 0, 77, 68
1, 63630, Note_on_c, 0, 58, 37
1, 63634, Note_on_c, 0, 74, 47
1, 63652, Note_on_c, 0, 46, 35
1, 63703, Note_off_c, 0, 74, 52
1, 63739, Note_off_c, 0, 46, 51
1, 63785, Note_off_c, 0, 58, 38
1, 63868, Note_off_c, 0, 77, 58
1, 63871, Note_on_c, 0, 74, 74
1, 63920, Note_on_c, 0, 70, 31
1, 63991, Note_off_c, 0, 70, 0
1, 64040, Note_on_c, 0, 70, 24
1, 64065, Note_off_c, 0, 74, 56
1, 64158, Note_on_c, 0, 77, 74
1, 64167, Control_c, 0, 64, 120
1, 64183, Note_on_c, 0, 55, 36
1, 64186, Control_c, 0, 64, 113
1, 64199, Note_on_c, 0, 46, 34
1, 64207, Control_c, 0, 64, 94
1, 64208, Note_off_c, 0, 70, 43
1, 64219, Note_on_c, 0, 74, 50
1, 64223, Control_c, 0, 64, 69
1, 64244, Control_c, 0, 64, 26
1, 64251, Note_off_c, 0, 50, 40
1, 64261, Control_c, 0, 64, 0
1, 64296, Control_c, 0, 64, 38
1, 64316, Control_c, 0, 64, 58
1, 64334, Control_c, 0, 64, 68
1, 64352, Control_c, 0, 64, 76
1, 64369, Control_c, 0, 64, 87
1, 64388, Control_c, 0, 64, 101
1, 64407, Control_c, 0, 64, 113
1, 64413, Note_off_c, 0, 74, 63
1, 64426, Control_c, 0, 64, 119
1, 64469, Note_off_c, 0, 55, 40
1, 64472, Note_off_c, 0, 46, 37
1, 64517, Control_c, 0, 64, 123
1, 64683, Control_c, 0, 64, 117
1, 64684, Note_on_c, 0, 46, 33
1, 64694, Note_off_c, 0, 77, 59
1, 64696, Note_on_c, 0, 75, 58
1, 64701, Control_c, 0, 64, 107
1, 64702, Note_on_c, 0, 79, 72
1, 64716, Note_on_c, 0, 55, 25
1, 64722, Control_c, 0, 64, 91
1, 64738, Control_c, 0, 64, 77
1, 64757, Control_c, 0, 64, 69
1, 64776, Control_c, 0, 64, 72
1, 64794, Control_c, 0, 64, 79
1, 64810, Control_c, 0, 64, 90
1, 64830, Control_c, 0, 64, 102
1, 64849, Control_c, 0, 64, 113
1, 64867, Control_c, 0, 64, 120
1, 64870, Note_off_c, 0, 46, 27
1, 64891, Note_off_c, 0, 75, 55
1, 64904, Control_c, 0, 64, 124
1, 64967, Note_off_c, 0, 79, 60
1, 65281, Note_on_c, 0, 79, 62
1, 65282, Note_off_c, 0, 55, 42
1, 65287, Note_on_c, 0, 51, 34
1, 65300, Note_on_c, 0, 75, 44
1, 65304, Control_c, 0, 64, 113
1, 65306, Note_on_c, 0, 46, 24
1, 65323, Control_c, 0, 64, 91
1, 65342, Control_c, 0, 64, 67
1, 65360, Control_c, 0, 64, 40
1, 65379, Control_c, 0, 64, 32
1, 65397, Control_c, 0, 64, 39
1, 65417, Control_c, 0, 64, 50
1, 65434, Control_c, 0, 64, 60
1, 65452, Control_c, 0, 64, 68
1, 65471, Control_c, 0, 64, 77
1, 65490, Control_c, 0, 64, 90
1, 65507, Control_c, 0, 64, 105
1, 65525, Control_c, 0, 64, 119
1, 65534, Note_off_c, 0, 46, 42
1, 65544, Control_c, 0, 64, 126
1, 65568, Note_off_c, 0, 79, 57
1, 65574, Note_off_c, 0, 51, 42
1, 65805, Note_on_c, 0, 82, 59
1, 65811, Note_on_c, 0, 51, 25
1, 65825, Note_on_c, 0, 46, 29
1, 65831, Note_on_c, 0, 79, 45
1, 65916, Note_off_c, 0, 46, 43
1, 66002, Note_off_c, 0, 79, 52
1, 66022, Note_off_c, 0, 82, 62
1, 66079, Note_off_c, 0, 75, 58
1, 66336, Note_off_c, 0, 51, 40
1, 66372, Note_on_c, 0, 48, 32
1, 66381, Note_on_c, 0, 55, 36
1, 66381, Note_on_c, 0, 46, 31
1, 66447, Note_on_c, 0, 79, 68
1, 66461, Note_on_c, 0, 75, 52
1, 66467, Note_on_c, 0, 72, 37
1, 66483, Control_c, 0, 64, 116
1, 66501, Control_c, 0, 64, 93
1, 66520, Control_c, 0, 64, 68
1, 66536, Control_c, 0, 64, 39
1, 66575, Control_c, 0, 64, 52
1, 66593, Control_c, 0, 64, 68
1, 66611, Control_c, 0, 64, 85
1, 66632, Control_c, 0, 64, 110
1, 66649, Control_c, 0, 64, 127
1, 66686, Note_off_c, 0, 75, 59
1, 66700, Note_off_c, 0, 79, 61
1, 66705, Note_off_c, 0, 72, 53
1, 66735, Note_off_c, 0, 55, 41
1, 66767, Note_off_c, 0, 48, 39
1, 66774, Note_off_c, 0, 46, 41
1, 66961, Note_on_c, 0, 46, 39
1, 66982, Note_on_c, 0, 75, 79
1, 66990, Note_on_c, 0, 48, 24
1, 67004, Note_on_c, 0, 55, 30
1, 67031, Note_on_c, 0, 72, 35
1, 67123, Note_off_c, 0, 46, 36
1, 67132, Note_off_c, 0, 55, 46
1, 67210, Note_on_c, 0, 69, 60
1, 67231, Note_off_c, 0, 75, 63
1, 67244, Note_off_c, 0, 72, 55
1, 67263, Note_off_c, 0, 69, 56
1, 67460, Note_on_c, 0, 45, 32
1, 67465, Note_on_c, 0, 53, 35
1, 67482, Note_on_c, 0, 74, 77
1, 67488, Note_on_c, 0, 51, 38
1, 67507, Note_on_c, 0, 75, 61
1, 67510, Note_off_c, 0, 48, 35
1, 67529, Control_c, 0, 64, 119
1, 67546, Control_c, 0, 64, 98
1, 67565, Control_c, 0, 64, 73
1, 67584, Control_c, 0, 64, 47
1, 67602, Control_c, 0, 64, 37
1, 67619, Control_c, 0, 64, 46
1, 67638, Control_c, 0, 64, 61
1, 67657, Control_c, 0, 64, 74
1, 67676, Control_c, 0, 64, 90
1, 67694, Control_c, 0, 64, 109
1, 67712, Control_c, 0, 64, 124
1, 67753, Note_off_c, 0, 75, 60
1, 67756, Note_off_c, 0, 74, 62
1, 67780, Note_off_c, 0, 51, 43
1, 67782, Note_off_c, 0, 45, 39
1, 67791, Note_off_c, 0, 53, 43
1, 68010, Note_on_c, 0, 72, 78
1, 68014, Note_on_c, 0, 45, 24
1, 68016, Note_on_c, 0, 53, 23
1, 68026, Note_on_c, 0, 51, 33
1, 68029, Note_on_c, 0, 75, 58
1, 68156, Note_off_c, 0, 45, 44
1, 68190, Note_off_c, 0, 75, 59
1, 68216, Note_off_c, 0, 53, 41
1, 68222, Note_off_c, 0, 51, 35
1, 68233, Note_off_c, 0, 72, 61
1, 68241, Note_on_c, 0, 69, 63
1, 68284, Note_off_c, 0, 69, 59
1, 68486, Note_on_c, 0, 46, 33
1, 68496, Note_on_c, 0, 51, 36
1, 68507, Note_on_c, 0, 53, 31
1, 68520, Note_on_c, 0, 77, 76
1, 68556, Note_on_c, 0, 72, 49
1, 68563, Note_on_c, 0, 81, 52
1, 68586, Control_c, 0, 64, 113
1, 68606, Control_c, 0, 64, 93
1, 68623, Control_c, 0, 64, 68
1, 68643, Control_c, 0, 64, 32
1, 68661, Control_c, 0, 64, 0
1, 68711, Control_c, 0, 64, 17
1, 68731, Control_c, 0, 64, 38
1, 68749, Control_c, 0, 64, 55
1, 68768, Control_c, 0, 64, 65
1, 68785, Control_c, 0, 64, 73
1, 68804, Control_c, 0, 64, 85
1, 68822, Note_off_c, 0, 81, 63
1, 68822, Control_c, 0, 64, 99
1, 68831, Note_off_c, 0, 72, 39
1, 68833, Note_off_c, 0, 46, 42
1, 68835, Note_off_c, 0, 51, 42
1, 68841, Control_c, 0, 64, 112
1, 68845, Note_off_c, 0, 53, 41
1, 68859, Control_c, 0, 64, 121
1, 68895, Control_c, 0, 64, 125
1, 69080, Control_c, 0, 64, 118
1, 69097, Note_on_c, 0, 82, 58
1, 69099, Control_c, 0, 64, 106
1, 69100, Note_on_c, 0, 46, 35
1, 69105, Note_on_c, 0, 50, 38
1, 69109, Note_on_c, 0, 74, 49
1, 69117, Control_c, 0, 64, 86
1, 69121, Note_on_c, 0, 53, 29
1, 69136, Control_c, 0, 64, 66
1, 69154, Control_c, 0, 64, 51
1, 69190, Control_c, 0, 64, 58
1, 69209, Control_c, 0, 64, 66
1, 69230, Control_c, 0, 64, 74
1, 69246, Control_c, 0, 64, 84
1, 69263, Control_c, 0, 64, 94
1, 69264, Control_c, 0, 67, 8
1, 69282, Control_c, 0, 64, 104
1, 69298, Note_off_c, 0, 50, 48
1, 69300, Control_c, 0, 64, 111
1, 69301, Note_off_c, 0, 53, 35
1, 69319, Control_c, 0, 64, 116
1, 69336, Note_off_c, 0, 74, 41
1, 69347, Note_off_c, 0, 82, 56
1, 69357, Control_c, 0, 64, 121
1, 69430, Control_c, 0, 64, 126
1, 69431, Control_c, 0, 67, 12
1, 69571, Note_off_c, 0, 46, 34
1, 69575, Control_c, 0, 64, 122
1, 69594, Control_c, 0, 64, 116
1, 69612, Control_c, 0, 64, 101
1, 69613, Control_c, 0, 67, 16
1, 69621, Note_on_c, 0, 82, 57
1, 69646, Control_c, 0, 64, 78
1, 69649, Note_on_c, 0, 74, 47
1, 69650, Note_on_c, 0, 51, 36
1, 69655, Note_on_c, 0, 55, 33
1, 69666, Control_c, 0, 64, 49
1, 69685, Control_c, 0, 64, 0
1, 69722, Control_c, 0, 64, 24
1, 69738, Control_c, 0, 64, 47
1, 69757, Control_c, 0, 64, 62
1, 69775, Control_c, 0, 64, 70
1, 69794, Control_c, 0, 64, 81
1, 69806, Note_off_c, 0, 77, 61
1, 69811, Control_c, 0, 64, 95
1, 69831, Control_c, 0, 64, 109
1, 69848, Control_c, 0, 64, 120
1, 69864, Note_off_c, 0, 74, 59
1, 69866, Control_c, 0, 64, 124
1, 69872, Note_off_c, 0, 55, 42
1, 69878, Note_off_c, 0, 51, 43
1, 70193, Note_off_c, 0, 82, 64
1, 70198, Note_on_c, 0, 79, 63
1, 70209, Note_on_c, 0, 51, 40
1, 70216, Control_c, 0, 64, 106
1, 70222, Note_on_c, 0, 84, 49
1, 70223, Note_on_c, 0, 75, 40
1, 70230, Note_on_c, 0, 55, 30
1, 70235, Control_c, 0, 64, 80
1, 70255, Control_c, 0, 64, 55
1, 70273, Control_c, 0, 64, 44
1, 70292, Control_c, 0, 64, 49
1, 70311, Control_c, 0, 64, 60
1, 70329, Control_c, 0, 64, 70
1, 70343, Note_off_c, 0, 51, 60
1, 70345, Control_c, 0, 64, 82
1, 70347, Control_c, 0, 67, 22
1, 70365, Control_c, 0, 64, 95
1, 70384, Control_c, 0, 64, 110
1, 70401, Control_c, 0, 64, 123
1, 70406, Note_off_c, 0, 55, 47
1, 70419, Control_c, 0, 64, 127
1, 70472, Note_off_c, 0, 75, 40
1, 70491, Control_c, 0, 67, 26
1, 70620, Control_c, 0, 67, 30
1, 70644, Note_off_c, 0, 84, 30
1, 70660, Note_off_c, 0, 79, 36
1, 70746, Control_c, 0, 67, 34
1, 70797, Note_on_c, 0, 53, 34
1, 70803, Control_c, 0, 64, 119
1, 70804, Control_c, 0, 67, 40
1, 70812, Note_on_c, 0, 58, 33
1, 70822, Control_c, 0, 64, 94
1, 70823, Control_c, 0, 67, 44
1, 70826, Note_on_c, 0, 74, 65
1, 70835, Note_on_c, 0, 62, 33
1, 70840, Control_c, 0, 64, 65
1, 70844, Control_c, 0, 67, 48
1, 70858, Control_c, 0, 64, 15
1, 70876, Control_c, 0, 67, 53
1, 70894, Control_c, 0, 64, 42
1, 70912, Control_c, 0, 64, 62
1, 70913, Control_c, 0, 67, 57
1, 70931, Control_c, 0, 64, 76
1, 70950, Control_c, 0, 64, 92
1, 70966, Control_c, 0, 64, 109
1, 70973, Note_off_c, 0, 74, 57
1, 70986, Control_c, 0, 64, 124
1, 71064, Note_off_c, 0, 53, 38
1, 71102, Note_off_c, 0, 62, 44
1, 71124, Note_off_c, 0, 58, 38
1, 71355, Note_on_c, 0, 58, 30
1, 71373, Note_on_c, 0, 53, 35
1, 71378, Note_on_c, 0, 62, 26
1, 71387, Note_on_c, 0, 86, 53
1, 71396, Note_on_c, 0, 82, 18
1, 71449, Note_off_c, 0, 62, 46
1, 71458, Note_off_c, 0, 82, 37
1, 71484, Note_on_c, 0, 87, 49
1, 71486, Note_off_c, 0, 58, 51
1, 71503, Note_off_c, 0, 53, 62
1, 71519, Note_off_c, 0, 86, 54
1, 71594, Poly_aftertouch_c, 0, 84, 0
1, 71612, Note_off_c, 0, 87, 49
1, 71612, Note_on_c, 0, 89, 53
1, 71665, Poly_aftertouch_c, 0, 86, 127
1, 71712, Poly_aftertouch_c, 0, 86, 0
1, 71718, Note_off_c, 0, 89, 55
1, 71924, Note_on_c, 0, 41, 39
1, 71925, Note_on_c, 0, 86, 58
1, 71938, Control_c, 0, 64, 120
1, 71943, Note_on_c, 0, 82, 43
1, 71958, Control_c, 0, 64, 93
1, 71965, Note_on_c, 0, 53, 25
1, 71977, Control_c, 0, 64, 67
1, 71995, Control_c, 0, 64, 49
1, 72014, Control_c, 0, 64, 51
1, 72032, Control_c, 0, 64, 60
1, 72052, Control_c, 0, 64, 72
1, 72058, Note_off_c, 0, 82, 58
1, 72067, Control_c, 0, 64, 88
1, 72086, Control_c, 0, 64, 105
1, 72105, Control_c, 0, 64, 119
1, 72124, Control_c, 0, 64, 127
1, 72215, Note_on_c, 0, 82, 41
1, 72217, Note_off_c, 0, 86, 37
1, 72219, Note_on_c, 0, 74, 39
1, 72234, Note_off_c, 0, 53, 42
1, 72236, Note_off_c, 0, 41, 43
1, 72249, Note_off_c, 0, 82, 54
1, 72277, Note_off_c, 0, 74, 49
1, 72543, Control_c, 0, 67, 53
1, 72548, Note_on_c, 0, 77, 52
1, 72551, Note_on_c, 0, 72, 56
1, 72561, Control_c, 0, 64, 104
1, 72563, Note_on_c, 0, 41, 39
1, 72566, Note_on_c, 0, 53, 34
1, 72567, Note_on_c, 0, 75, 46
1, 72581, Control_c, 0, 64, 85
1, 72599, Control_c, 0, 64, 77
1, 72615, Control_c, 0, 64, 80
1, 72635, Control_c, 0, 64, 88
1, 72654, Control_c, 0, 64, 102
1, 72672, Note_off_c, 0, 72, 61
1, 72672, Control_c, 0, 64, 118
1, 72691, Control_c, 0, 64, 127
1, 72701, Note_off_c, 0, 41, 54
1, 72754, Note_off_c, 0, 75, 30
1, 72764, Control_c, 0, 67, 49
1, 72772, Note_off_c, 0, 53, 52
1, 72784, Note_off_c, 0, 77, 57
1, 72851, Note_on_c, 0, 70, 66
1, 72861, Note_on_c, 0, 81, 58
1, 72930, Control_c, 0, 67, 45
1, 72969, Note_off_c, 0, 81, 59
1, 72986, Control_c, 0, 67, 40
1, 73008, Note_off_c, 0, 70, 56
1, 73021, Control_c, 0, 67, 35
1, 73094, Control_c, 0, 67, 30
1, 73150, Control_c, 0, 67, 25
1, 73205, Note_on_c, 0, 58, 26
1, 73207, Note_on_c, 0, 46, 26
1, 73231, Note_on_c, 0, 70, 47
1, 73236, Note_on_c, 0, 74, 51
1, 73240, Control_c, 0, 64, 123
1, 73246, Note_on_c, 0, 82, 44
1, 73261, Control_c, 0, 64, 115
1, 73280, Control_c, 0, 64, 104
1, 73297, Control_c, 0, 64, 88
1, 73315, Control_c, 0, 64, 70
1, 73333, Control_c, 0, 64, 47
1, 73353, Control_c, 0, 64, 0
1, 73355, Control_c, 0, 67, 21
1, 73497, Control_c, 0, 67, 16
1, 73515, Control_c, 0, 64, 11
1, 73535, Control_c, 0, 64, 41
1, 73550, Control_c, 0, 64, 59
1, 73550, Control_c, 0, 67, 11
1, 73570, Control_c, 0, 64, 70
1, 73590, Control_c, 0, 64, 85
1, 73606, Control_c, 0, 64, 107
1, 73626, Control_c, 0, 64, 127
1, 73659, Note_off_c, 0, 58, 37
1, 73675, Note_off_c, 0, 46, 43
1, 73692, Note_off_c, 0, 74, 29
1, 73827, Control_c, 0, 67, 0
1, 73908, Note_off_c, 0, 82, 36
1, 73915, Note_on_c, 0, 77, 51
1, 73916, Note_on_c, 0, 74, 43
1, 73935, Note_on_c, 0, 46, 26
1, 73946, Note_on_c, 0, 58, 16
1, 73962, Note_off_c, 0, 70, 33
1, 74006, Note_off_c, 0, 74, 61
1, 74079, Note_off_c, 0, 77, 60
1, 74111, Note_off_c, 0, 46, 34
1, 74112, Note_off_c, 0, 58, 31
1, 74173, Note_on_c, 0, 74, 54
1, 74198, Note_on_c, 0, 70, 28
1, 74222, Note_off_c, 0, 74, 58
1, 74246, Note_off_c, 0, 70, 49
1, 74445, Note_on_c, 0, 77, 58
1, 74465, Note_on_c, 0, 46, 22
1, 74469, Note_on_c, 0, 58, 20
1, 74475, Note_on_c, 0, 74, 40
1, 74595, Note_off_c, 0, 58, 32
1, 74598, Note_off_c, 0, 46, 35
1, 74606, Note_off_c, 0, 77, 61
1, 74609, Note_off_c, 0, 74, 56
1, 74987, Note_on_c, 0, 77, 57
1, 75005, Note_on_c, 0, 74, 35
1, 75009, Note_on_c, 0, 58, 33
1, 75015, Note_on_c, 0, 46, 32
1, 75078, Note_off_c, 0, 74, 42
1, 75095, Note_off_c, 0, 46, 54
1, 75100, Note_off_c, 0, 58, 49
1, 75197, Note_off_c, 0, 77, 56
1, 75232, Note_on_c, 0, 74, 64
1, 75291, Note_on_c, 0, 70, 26
1, 75366, Note_off_c, 0, 70, 39
1, 75403, Note_off_c, 0, 74, 47
1, 75527, Note_on_c, 0, 77, 61
1, 75527, Note_on_c, 0, 55, 30
1, 75542, Control_c, 0, 64, 121
1, 75543, Note_on_c, 0, 74, 49
1, 75544, Note_on_c, 0, 46, 29
1, 75559, Control_c, 0, 64, 95
1, 75579, Control_c, 0, 64, 68
1, 75597, Control_c, 0, 64, 39
1, 75616, Control_c, 0, 64, 33
1, 75652, Control_c, 0, 64, 41
1, 75670, Control_c, 0, 64, 48
1, 75690, Control_c, 0, 64, 59
1, 75707, Control_c, 0, 64, 69
1, 75727, Control_c, 0, 64, 79
1, 75746, Control_c, 0, 64, 91
1, 75763, Control_c, 0, 64, 101
1, 75783, Control_c, 0, 64, 108
1, 75793, Note_off_c, 0, 74, 62
1, 75798, Control_c, 0, 64, 115
1, 75819, Control_c, 0, 64, 121
1, 75836, Control_c, 0, 64, 126
1, 75839, Note_off_c, 0, 55, 41
1, 75848, Note_off_c, 0, 46, 38
1, 76043, Note_off_c, 0, 77, 60
1, 76061, Note_on_c, 0, 46, 30
1, 76064, Note_on_c, 0, 75, 48
1, 76065, Note_on_c, 0, 79, 61
1, 76076, Control_c, 0, 64, 112
1, 76090, Note_on_c, 0, 55, 28
1, 76094, Control_c, 0, 64, 94
1, 76112, Control_c, 0, 64, 80
1, 76130, Control_c, 0, 64, 75
1, 76149, Control_c, 0, 64, 79
1, 76168, Control_c, 0, 64, 87
1, 76201, Control_c, 0, 64, 100
1, 76219, Control_c, 0, 64, 112
1, 76239, Control_c, 0, 64, 121
1, 76256, Note_off_c, 0, 75, 64
1, 76256, Control_c, 0, 64, 126
1, 76297, Note_off_c, 0, 46, 44
1, 76326, Note_off_c, 0, 79, 61
1, 76605, Control_c, 0, 64, 118
1, 76607, Note_on_c, 0, 79, 59
1, 76623, Control_c, 0, 64, 98
1, 76626, Note_on_c, 0, 75, 42
1, 76628, Note_off_c, 0, 55, 40
1, 76631, Note_on_c, 0, 51, 36
1, 76637, Note_on_c, 0, 46, 25
1, 76641, Control_c, 0, 64, 71
1, 76661, Control_c, 0, 64, 29
1, 76680, Control_c, 0, 64, 0
1, 76735, Control_c, 0, 64, 30
1, 76754, Control_c, 0, 64, 54
1, 76771, Control_c, 0, 64, 68
1, 76792, Control_c, 0, 64, 79
1, 76807, Control_c, 0, 64, 91
1, 76826, Control_c, 0, 64, 101
1, 76845, Control_c, 0, 64, 108
1, 76863, Control_c, 0, 64, 112
1, 76900, Note_off_c, 0, 46, 38
1, 76900, Control_c, 0, 64, 119
1, 76902, Note_off_c, 0, 79, 60
1, 76906, Note_off_c, 0, 51, 39
1, 76974, Control_c, 0, 64, 123
1, 77104, Control_c, 0, 64, 127
1, 77144, Note_on_c, 0, 51, 30
1, 77161, Note_on_c, 0, 82, 53
1, 77162, Note_on_c, 0, 46, 26
1, 77184, Note_on_c, 0, 79, 37
1, 77281, Note_off_c, 0, 79, 56
1, 77290, Note_off_c, 0, 46, 37
1, 77321, Note_off_c, 0, 75, 39
1, 77333, Note_off_c, 0, 82, 63
1, 77389, Note_off_c, 0, 51, 38
1, 77687, Note_on_c, 0, 75, 57
1, 77699, Note_on_c, 0, 72, 42
1, 77705, Note_on_c, 0, 57, 39
1, 77710, Note_on_c, 0, 46, 36
1, 77725, Control_c, 0, 64, 117
1, 77727, Note_on_c, 0, 48, 29
1, 77742, Control_c, 0, 64, 91
1, 77761, Control_c, 0, 64, 60
1, 77779, Control_c, 0, 64, 0
1, 77835, Control_c, 0, 64, 37
1, 77854, Control_c, 0, 64, 59
1, 77872, Control_c, 0, 64, 70
1, 77892, Control_c, 0, 64, 82
1, 77909, Control_c, 0, 64, 97
1, 77927, Control_c, 0, 64, 113
1, 77946, Control_c, 0, 64, 127
1, 77956, Note_off_c, 0, 75, 62
1, 78007, Note_off_c, 0, 48, 22
1, 78008, Note_off_c, 0, 72, 46
1, 78010, Note_off_c, 0, 46, 33
1, 78016, Note_off_c, 0, 57, 35
1, 78223, Note_on_c, 0, 72, 44
1, 78227, Note_on_c, 0, 75, 56
1, 78232, Note_on_c, 0, 46, 28
1, 78239, Note_on_c, 0, 57, 23
1, 78266, Note_on_c, 0, 48, 8
1, 78293, Note_off_c, 0, 72, 58
1, 78389, Note_off_c, 0, 48, 35
1, 78404, Note_off_c, 0, 75, 58
1, 78423, Note_off_c, 0, 57, 35
1, 78460, Note_off_c, 0, 46, 39
1, 78467, Note_on_c, 0, 72, 59
1, 78496, Note_on_c, 0, 69, 34
1, 78553, Note_off_c, 0, 69, 47
1, 78561, Note_off_c, 0, 72, 53
1, 78719, Note_on_c, 0, 46, 24
1, 78733, Note_on_c, 0, 57, 24
1, 78738, Note_on_c, 0, 75, 60
1, 78748, Note_on_c, 0, 72, 40
1, 78769, Note_on_c, 0, 48, 23
1, 78865, Note_off_c, 0, 72, 51
1, 78880, Note_off_c, 0, 48, 36
1, 78885, Note_off_c, 0, 75, 62
1, 78893, Note_off_c, 0, 57, 38
1, 78928, Note_off_c, 0, 46, 38
1, 79281, Note_on_c, 0, 57, 20
1, 79281, Note_on_c, 0, 46, 19
1, 79286, Note_on_c, 0, 48, 29
1, 79288, Note_on_c, 0, 75, 58
1, 79307, Note_on_c, 0, 72, 37
1, 79375, Note_off_c, 0, 72, 58
1, 79457, Note_off_c, 0, 46, 29
1, 79457, Note_off_c, 0, 57, 42
1, 79476, Note_off_c, 0, 75, 54
1, 79517, Note_off_c, 0, 48, 38
1, 79520, Note_on_c, 0, 72, 66
1, 79555, Note_on_c, 0, 69, 26
1, 79609, Note_off_c, 0, 69, 51
1, 79612, Note_off_c, 0, 72, 58
1, 79772, Note_on_c, 0, 75, 61
1, 79777, Note_on_c, 0, 46, 35
1, 79783, Note_on_c, 0, 53, 41
1, 79791, Note_on_c, 0, 57, 23
1, 79794, Note_on_c, 0, 72, 29
1, 79799, Control_c, 0, 64, 100
1, 79818, Control_c, 0, 64, 66
1, 79836, Control_c, 0, 64, 0
1, 79961, Control_c, 0, 64, 15
1, 79980, Control_c, 0, 64, 54
1, 79999, Control_c, 0, 64, 73
1, 80016, Control_c, 0, 64, 91
1, 80034, Control_c, 0, 64, 109
1, 80053, Control_c, 0, 64, 124
1, 80059, Note_off_c, 0, 75, 65
1, 80126, Note_off_c, 0, 53, 41
1, 80138, Note_off_c, 0, 57, 34
1, 80144, Note_off_c, 0, 46, 39
1, 80254, Note_off_c, 0, 72, 41
1, 80315, Note_on_c, 0, 81, 68
1, 80328, Note_on_c, 0, 75, 46
1, 80339, Note_on_c, 0, 53, 30
1, 80339, Note_on_c, 0, 46, 38
1, 80342, Note_on_c, 0, 57, 22
1, 80368, Control_c, 0, 64, 104
1, 80385, Control_c, 0, 64, 79
1, 80405, Control_c, 0, 64, 64
1, 80442, Control_c, 0, 64, 72
1, 80461, Control_c, 0, 64, 90
1, 80477, Control_c, 0, 64, 119
1, 80497, Control_c, 0, 64, 127
1, 80529, Note_off_c, 0, 81, 61
1, 80552, Note_off_c, 0, 57, 39
1, 80558, Note_off_c, 0, 75, 61
1, 80573, Note_off_c, 0, 46, 32
1, 80578, Note_off_c, 0, 53, 40
1, 80873, Note_on_c, 0, 81, 63
1, 80879, Control_c, 0, 64, 119
1, 80881, Note_on_c, 0, 53, 31
1, 80889, Note_on_c, 0, 46, 23
1, 80897, Control_c, 0, 64, 95
1, 80897, Note_on_c, 0, 57, 23
1, 80897, Note_on_c, 0, 72, 34
1, 80917, Control_c, 0, 64, 72
1, 80936, Control_c, 0, 64, 55
1, 80971, Control_c, 0, 64, 60
1, 80990, Control_c, 0, 64, 70
1, 81009, Control_c, 0, 64, 84
1, 81026, Control_c, 0, 64, 99
1, 81043, Control_c, 0, 64, 114
1, 81063, Control_c, 0, 64, 127
1, 81071, Note_off_c, 0, 57, 36
1, 81100, Note_off_c, 0, 46, 38
1, 81103, Note_off_c, 0, 53, 42
1, 81238, Note_off_c, 0, 72, 41
1, 81404, Note_on_c, 0, 46, 23
1, 81415, Note_on_c, 0, 84, 55
1, 81431, Note_on_c, 0, 53, 27
1, 81432, Note_on_c, 0, 75, 38
1, 81450, Note_on_c, 0, 57, 20
1, 81462, Note_off_c, 0, 81, 56
1, 81505, Note_off_c, 0, 53, 58
1, 81509, Note_off_c, 0, 46, 56
1, 81523, Note_off_c, 0, 75, 58
1, 81574, Note_off_c, 0, 57, 52
1, 81681, Note_off_c, 0, 84, 59
1, 81987, Note_on_c, 0, 62, 36
1, 81989, Note_on_c, 0, 82, 57
1, 82006, Note_on_c, 0, 74, 35
1, 82010, Note_on_c, 0, 65, 21
1, 82013, Note_on_c, 0, 58, 28
1, 82072, Control_c, 0, 64, 110
1, 82091, Control_c, 0, 64, 85
1, 82109, Control_c, 0, 64, 61
1, 82126, Control_c, 0, 64, 41
1, 82164, Control_c, 0, 64, 51
1, 82182, Control_c, 0, 64, 63
1, 82199, Control_c, 0, 64, 74
1, 82218, Control_c, 0, 64, 88
1, 82237, Control_c, 0, 64, 104
1, 82255, Control_c, 0, 64, 120
1, 82274, Control_c, 0, 64, 127
1, 82283, Note_off_c, 0, 74, 42
1, 82304, Note_off_c, 0, 58, 41
1, 82316, Note_off_c, 0, 65, 50
1, 82328, Note_off_c, 0, 62, 42
1, 82405, Note_off_c, 0, 82, 62
1, 82489, Note_on_c, 0, 62, 38
1, 82491, Note_on_c, 0, 58, 34
1, 82500, Note_on_c, 0, 65, 37
1, 82601, Note_on_c, 0, 84, 57
1, 82606, Note_on_c, 0, 75, 42
1, 82641, Note_off_c, 0, 75, 54
1, 82721, Note_on_c, 0, 86, 64
1, 82756, Note_on_c, 0, 77, 52
1, 82796, Note_off_c, 0, 84, 48
1, 82799, Note_off_c, 0, 62, 41
1, 82806, Note_off_c, 0, 65, 41
1, 82816, Note_off_c, 0, 77, 62
1, 82820, Note_off_c, 0, 58, 41
1, 82901, Note_off_c, 0, 86, 38
1, 82971, Control_c, 0, 64, 108
1, 82986, Note_on_c, 0, 58, 36
1, 82989, Control_c, 0, 64, 78
1, 82989, Note_on_c, 0, 62, 33
1, 82989, Note_on_c, 0, 65, 30
1, 82995, Note_on_c, 0, 82, 64
1, 83011, Control_c, 0, 64, 32
1, 83012, Note_on_c, 0, 57, 34
1, 83019, Note_on_c, 0, 74, 38
1, 83028, Control_c, 0, 64, 0
1, 83082, Control_c, 0, 64, 16
1, 83101, Control_c, 0, 64, 51
1, 83119, Control_c, 0, 64, 67
1, 83137, Control_c, 0, 64, 77
1, 83156, Control_c, 0, 64, 88
1, 83174, Control_c, 0, 64, 99
1, 83192, Control_c, 0, 64, 110
1, 83204, Note_off_c, 0, 74, 41
1, 83210, Control_c, 0, 64, 119
1, 83229, Control_c, 0, 64, 124
1, 83244, Note_on_c, 0, 86, 69
1, 83264, Note_on_c, 0, 77, 51
1, 83269, Note_off_c, 0, 82, 57
1, 83298, Note_off_c, 0, 77, 58
1, 83305, Note_off_c, 0, 62, 43
1, 83309, Note_off_c, 0, 65, 42
1, 83322, Note_off_c, 0, 58, 39
1, 83331, Note_off_c, 0, 57, 42
1, 83426, Note_off_c, 0, 86, 55
1, 83491, Note_on_c, 0, 84, 68
1, 83493, Note_on_c, 0, 57, 41
1, 83503, Note_on_c, 0, 62, 33
1, 83509, Note_on_c, 0, 58, 30
1, 83515, Note_on_c, 0, 65, 32
1, 83516, Note_on_c, 0, 75, 49
1, 83543, Note_off_c, 0, 75, 62
1, 83607, Note_off_c, 0, 84, 60
1, 83710, Note_off_c, 0, 57, 37
1, 83725, Note_off_c, 0, 65, 38
1, 83745, Note_on_c, 0, 77, 69
1, 83766, Note_off_c, 0, 62, 43
1, 83769, Note_on_c, 0, 72, 36
1, 83808, Note_off_c, 0, 72, 49
1, 83846, Note_off_c, 0, 77, 60
1, 83851, Note_off_c, 0, 58, 29
1, 84031, Note_on_c, 0, 82, 54
1, 84035, Control_c, 0, 64, 109
1, 84042, Note_on_c, 0, 62, 31
1, 84047, Poly_aftertouch_c, 0, 58, 127
1, 84054, Control_c, 0, 64, 85
1, 84055, Note_on_c, 0, 74, 22
1, 84056, Note_on_c, 0, 55, 28
1, 84075, Control_c, 0, 64, 55
1, 84076, Note_on_c, 0, 65, 13
1, 84090, Control_c, 0, 64, 0
1, 84184, Control_c, 0, 64, 39
1, 84202, Control_c, 0, 64, 59
1, 84222, Control_c, 0, 64, 70
1, 84238, Control_c, 0, 64, 81
1, 84257, Control_c, 0, 64, 95
1, 84277, Control_c, 0, 64, 108
1, 84294, Control_c, 0, 64, 118
1, 84296, Note_off_c, 0, 74, 44
1, 84304, Note_off_c, 0, 62, 42
1, 84309, Note_off_c, 0, 65, 38
1, 84311, Control_c, 0, 64, 124
1, 84331, Note_off_c, 0, 55, 41
1, 84333, Poly_aftertouch_c, 0, 58, 0
1, 84442, Note_off_c, 0, 82, 52
1, 84540, Note_on_c, 0, 58, 20
1, 84542, Note_on_c, 0, 55, 30
1, 84545, Note_on_c, 0, 62, 40
1, 84560, Note_on_c, 0, 65, 24
1, 84652, Note_on_c, 0, 84, 56
1, 84655, Note_on_c, 0, 75, 43
1, 84689, Note_off_c, 0, 75, 60
1, 84751, Note_off_c, 0, 65, 42
1, 84751, Note_off_c, 0, 55, 37
1, 84773, Note_on_c, 0, 86, 55
1, 84791, Note_off_c, 0, 62, 45
1, 84812, Note_on_c, 0, 77, 44
1, 84823, Note_off_c, 0, 84, 61
1, 84847, Note_off_c, 0, 77, 53
1, 84899, Note_off_c, 0, 86, 58
1, 84966, Poly_aftertouch_c, 0, 58, 24
1, 84990, Note_off_c, 0, 58, 0
1, 85055, Note_on_c, 0, 53, 38
1, 85061, Note_on_c, 0, 82, 49
1, 85062, Note_on_c, 0, 62, 40
1, 85063, Control_c, 0, 64, 115
1, 85064, Note_on_c, 0, 65, 6
1, 85066, Note_on_c, 0, 74, 45
1, 85080, Control_c, 0, 64, 91
1, 85098, Control_c, 0, 64, 62
1, 85118, Control_c, 0, 64, 21
1, 85155, Control_c, 0, 64, 41
1, 85173, Control_c, 0, 64, 60
1, 85193, Control_c, 0, 64, 71
1, 85210, Control_c, 0, 64, 82
1, 85226, Poly_aftertouch_c, 0, 58, 32
1, 85228, Control_c, 0, 64, 92
1, 85247, Control_c, 0, 64, 100
1, 85256, Note_off_c, 0, 74, 35
1, 85264, Control_c, 0, 64, 106
1, 85283, Control_c, 0, 64, 110
1, 85291, Note_on_c, 0, 86, 58
1, 85319, Note_on_c, 0, 77, 47
1, 85321, Control_c, 0, 64, 115
1, 85328, Note_off_c, 0, 65, 35
1, 85331, Note_off_c, 0, 82, 34
1, 85352, Note_off_c, 0, 77, 57
1, 85354, Note_off_c, 0, 62, 42
1, 85377, Control_c, 0, 64, 119
1, 85404, Note_off_c, 0, 53, 38
1, 85413, Control_c, 0, 64, 124
1, 85436, Poly_aftertouch_c, 0, 58, 0
1, 85470, Note_off_c, 0, 86, 50
1, 85562, Note_on_c, 0, 84, 60
1, 85562, Note_on_c, 0, 58, 26
1, 85578, Note_on_c, 0, 75, 45
1, 85589, Note_on_c, 0, 62, 33
1, 85598, Note_on_c, 0, 53, 38
1, 85631, Note_off_c, 0, 75, 56
1, 85642, Poly_aftertouch_c, 0, 65, 127
1, 85666, Note_off_c, 0, 62, 59
1, 85669, Note_off_c, 0, 84, 60
1, 85672, Poly_aftertouch_c, 0, 65, 0
1, 85707, Note_off_c, 0, 58, 48
1, 85709, Note_off_c, 0, 53, 57
1, 85808, Note_on_c, 0, 77, 58
1, 85818, Note_on_c, 0, 72, 39
1, 85857, Note_off_c, 0, 72, 52
1, 85878, Note_off_c, 0, 77, 53
1, 86075, Control_c, 0, 64, 114
1, 86092, Note_on_c, 0, 82, 59
1, 86093, Control_c, 0, 64, 86
1, 86100, Note_on_c, 0, 55, 42
1, 86103, Note_on_c, 0, 74, 40
1, 86108, Note_on_c, 0, 51, 30
1, 86113, Control_c, 0, 64, 54
1, 86114, Note_on_c, 0, 58, 22
1, 86122, Note_on_c, 0, 62, 25
1, 86130, Control_c, 0, 64, 0
1, 86149, Control_c, 0, 64, 18
1, 86169, Control_c, 0, 64, 43
1, 86186, Control_c, 0, 64, 64
1, 86204, Control_c, 0, 64, 79
1, 86223, Control_c, 0, 64, 100
1, 86243, Control_c, 0, 64, 124
1, 86246, Note_off_c, 0, 74, 47
1, 86260, Note_off_c, 0, 82, 64
1, 86376, Note_off_c, 0, 55, 41
1, 86380, Note_off_c, 0, 62, 40
1, 86384, Note_off_c, 0, 51, 37
1, 86395, Note_off_c, 0, 58, 34
1, 86625, Note_on_c, 0, 55, 39
1, 86628, Note_on_c, 0, 82, 34
1, 86630, Note_on_c, 0, 86, 60
1, 86640, Note_on_c, 0, 51, 30
1, 86655, Note_on_c, 0, 62, 32
1, 86673, Note_off_c, 0, 82, 46
1, 86713, Note_off_c, 0, 86, 63
1, 86723, Note_on_c, 0, 87, 44
1, 86724, Note_off_c, 0, 51, 40
1, 86751, Note_on_c, 0, 84, 33
1, 86759, Poly_aftertouch_c, 0, 58, 127
1, 86798, Note_off_c, 0, 84, 52
1, 86826, Note_off_c, 0, 55, 48
1, 86830, Poly_aftertouch_c, 0, 58, 0
1, 86830, Note_on_c, 0, 89, 60
1, 86842, Note_on_c, 0, 86, 52
1, 86878, Note_off_c, 0, 62, 44
1, 86881, Note_off_c, 0, 87, 30
1, 86900, Note_off_c, 0, 86, 60
1, 86903, Note_off_c, 0, 89, 63
1, 87110, Note_on_c, 0, 62, 32
1, 87116, Note_on_c, 0, 53, 34
1, 87120, Note_on_c, 0, 86, 62
1, 87123, Note_on_c, 0, 58, 42
1, 87136, Note_on_c, 0, 82, 52
1, 87138, Control_c, 0, 64, 94
1, 87158, Control_c, 0, 64, 63
1, 87178, Control_c, 0, 64, 15
1, 87212, Control_c, 0, 64, 43
1, 87232, Control_c, 0, 64, 66
1, 87249, Control_c, 0, 64, 82
1, 87262, Note_off_c, 0, 82, 63
1, 87268, Control_c, 0, 64, 104
1, 87288, Control_c, 0, 64, 123
1, 87305, Control_c, 0, 64, 127
1, 87341, Note_off_c, 0, 86, 57
1, 87385, Note_on_c, 0, 74, 61
1, 87386, Note_on_c, 0, 82, 67
1, 87438, Note_off_c, 0, 58, 40
1, 87440, Note_off_c, 0, 53, 42
1, 87443, Note_off_c, 0, 62, 42
1, 87460, Note_off_c, 0, 82, 58
1, 87507, Note_off_c, 0, 74, 50
1, 87629, Note_on_c, 0, 58, 37
1, 87630, Note_on_c, 0, 53, 36
1, 87635, Note_on_c, 0, 84, 66
1, 87635, Note_on_c, 0, 62, 31
1, 87642, Note_on_c, 0, 75, 59
1, 87651, Control_c, 0, 64, 104
1, 87670, Control_c, 0, 64, 77
1, 87687, Control_c, 0, 64, 61
1, 87706, Control_c, 0, 64, 64
1, 87725, Control_c, 0, 64, 73
1, 87737, Note_off_c, 0, 75, 61
1, 87743, Control_c, 0, 64, 91
1, 87762, Control_c, 0, 64, 118
1, 87781, Control_c, 0, 64, 127
1, 87883, Note_on_c, 0, 81, 63
1, 87883, Note_on_c, 0, 77, 60
1, 87920, Note_off_c, 0, 58, 42
1, 87928, Note_off_c, 0, 53, 42
1, 87931, Note_off_c, 0, 77, 64
1, 87936, Note_off_c, 0, 62, 43
1, 87964, Note_off_c, 0, 84, 27
1, 87967, Note_off_c, 0, 81, 61
1, 88112, Control_c, 0, 64, 108
1, 88128, Control_c, 0, 64, 79
1, 88147, Control_c, 0, 64, 47
1, 88151, Note_on_c, 0, 82, 52
1, 88165, Control_c, 0, 64, 0
1, 88165, Note_on_c, 0, 62, 20
1, 88169, Note_on_c, 0, 74, 50
1, 88181, Note_on_c, 0, 55, 13
1, 88184, Control_c, 0, 64, 13
1, 88187, Note_on_c, 0, 58, 19
1, 88204, Control_c, 0, 64, 45
1, 88222, Control_c, 0, 64, 66
1, 88241, Control_c, 0, 64, 83
1, 88260, Control_c, 0, 64, 108
1, 88278, Control_c, 0, 64, 127
1, 88305, Note_off_c, 0, 74, 46
1, 88330, Note_off_c, 0, 82, 64
1, 88417, Note_off_c, 0, 58, 38
1, 88424, Note_off_c, 0, 62, 43
1, 88473, Note_off_c, 0, 55, 40
1, 88701, Note_on_c, 0, 53, 46
1, 88702, Note_on_c, 0, 82, 43
1, 88714, Note_on_c, 0, 86, 54
1, 88722, Note_on_c, 0, 58, 31
1, 88734, Note_on_c, 0, 62, 20
1, 88751, Note_off_c, 0, 53, 61
1, 88752, Note_off_c, 0, 82, 50
1, 88814, Note_off_c, 0, 86, 57
1, 88825, Note_on_c, 0, 84, 43
1, 88827, Note_on_c, 0, 87, 44
1, 88864, Note_off_c, 0, 84, 55
1, 88949, Note_on_c, 0, 89, 50
1, 88954, Note_on_c, 0, 51, 51
1, 88961, Note_on_c, 0, 86, 44
1, 89008, Note_off_c, 0, 86, 64
1, 89015, Note_off_c, 0, 87, 28
1, 89049, Note_off_c, 0, 89, 61
1, 89058, Note_off_c, 0, 51, 55
1, 89185, Note_off_c, 0, 58, 37
1, 89213, Control_c, 0, 64, 98
1, 89217, Poly_aftertouch_c, 0, 62, 24
1, 89228, Note_on_c, 0, 53, 46
1, 89231, Control_c, 0, 64, 70
1, 89238, Note_on_c, 0, 86, 55
1, 89246, Note_off_c, 0, 62, 45
1, 89249, Control_c, 0, 64, 55
1, 89267, Note_on_c, 0, 82, 38
1, 89268, Control_c, 0, 64, 61
1, 89276, Control_c, 0, 64, 71
1, 89308, Control_c, 0, 64, 90
1, 89327, Control_c, 0, 64, 121
1, 89343, Note_off_c, 0, 82, 43
1, 89345, Control_c, 0, 64, 127
1, 89395, Note_off_c, 0, 53, 62
1, 89430, Note_off_c, 0, 86, 39
1, 89499, Note_on_c, 0, 82, 55
1, 89503, Poly_aftertouch_c, 0, 53, 127
1, 89524, Note_on_c, 0, 74, 50
1, 89540, Note_off_c, 0, 82, 66
1, 89587, Note_off_c, 0, 74, 53
1, 89802, Note_on_c, 0, 84, 44
1, 89810, Note_on_c, 0, 75, 42
1, 89825, Control_c, 0, 64, 111
1, 89834, Note_on_c, 0, 41, 40
1, 89845, Control_c, 0, 64, 82
1, 89863, Control_c, 0, 64, 60
1, 89882, Control_c, 0, 64, 55
1, 89901, Control_c, 0, 64, 60
1, 89918, Control_c, 0, 64, 68
1, 89936, Control_c, 0, 64, 81
1, 89955, Control_c, 0, 64, 102
1, 89974, Control_c, 0, 64, 127
1, 89984, Note_off_c, 0, 41, 53
1, 90050, Poly_aftertouch_c, 0, 53, 0
1, 90053, Note_off_c, 0, 75, 54
1, 90078, Note_off_c, 0, 84, 38
1, 90151, Note_on_c, 0, 72, 47
1, 90159, Note_on_c, 0, 81, 44
1, 90265, Note_off_c, 0, 81, 43
1, 90269, Note_off_c, 0, 72, 38
1, 90577, Note_on_c, 0, 58, 29
1, 90585, Note_on_c, 0, 46, 26
1, 90707, Note_on_c, 0, 74, 68
1, 90717, Note_on_c, 0, 82, 62
1, 90817, Control_c, 0, 64, 113
1, 90838, Control_c, 0, 64, 84
1, 90853, Control_c, 0, 64, 38
1, 90871, Control_c, 0, 64, 0
1, 91056, Control_c, 0, 64, 22
1, 91075, Control_c, 0, 64, 48
1, 91091, Control_c, 0, 64, 62
1, 91111, Control_c, 0, 64, 68
1, 91129, Control_c, 0, 64, 72
1, 91148, Control_c, 0, 64, 78
1, 91173, Note_off_c, 0, 58, 41
1, 91178, Control_c, 0, 64, 89
1, 91199, Control_c, 0, 64, 103
1, 91218, Control_c, 0, 64, 117
1, 91236, Control_c, 0, 64, 127
1, 91508, Note_on_c, 0, 58, 32
1, 91533, Note_off_c, 0, 46, 39
1, 91693, Note_off_c, 0, 82, 38
1, 91700, Note_off_c, 0, 58, 48
1, 91735, Note_off_c, 0, 74, 38
1, 92037, Note_on_c, 0, 62, 39
1, 92055, Note_on_c, 0, 58, 28
1, 92084, Note_on_c, 0, 79, 73
1, 92114, Note_on_c, 0, 74, 49
1, 92317, Note_off_c, 0, 58, 42
1, 92321, Note_off_c, 0, 74, 62
1, 92350, Note_off_c, 0, 62, 43
1, 92589, Note_on_c, 0, 58, 44
1, 92596, Note_on_c, 0, 74, 62
1, 92613, Note_on_c, 0, 62, 31
1, 92732, Note_off_c, 0, 74, 63
1, 92798, Note_off_c, 0, 79, 58
1, 92851, Note_off_c, 0, 62, 44
1, 93018, Note_off_c, 0, 58, 41
1, 93131, Note_on_c, 0, 62, 34
1, 93141, Note_on_c, 0, 57, 39
1, 93168, Note_on_c, 0, 78, 73
1, 93176, Note_on_c, 0, 74, 43
1, 93196, Note_on_c, 0, 72, 52
1, 93216, Control_c, 0, 64, 119
1, 93235, Control_c, 0, 64, 104
1, 93254, Control_c, 0, 64, 80
1, 93270, Control_c, 0, 64, 47
1, 93288, Control_c, 0, 64, 0
1, 93345, Control_c, 0, 64, 38
1, 93363, Control_c, 0, 64, 56
1, 93384, Control_c, 0, 64, 65
1, 93401, Control_c, 0, 64, 74
1, 93420, Control_c, 0, 64, 87
1, 93437, Control_c, 0, 64, 104
1, 93456, Control_c, 0, 64, 119
1, 93474, Control_c, 0, 64, 127
1, 93475, Note_off_c, 0, 74, 53
1, 93502, Note_off_c, 0, 57, 41
1, 93512, Note_off_c, 0, 62, 43
1, 93513, Note_off_c, 0, 72, 62
1, 93715, Note_on_c, 0, 74, 64
1, 93716, Note_on_c, 0, 57, 34
1, 93735, Note_on_c, 0, 62, 29
1, 93746, Note_on_c, 0, 72, 31
1, 93829, Note_off_c, 0, 72, 50
1, 93902, Note_off_c, 0, 74, 53
1, 93955, Note_off_c, 0, 62, 42
1, 94030, Note_off_c, 0, 57, 41
1, 94284, Note_on_c, 0, 58, 33
1, 94286, Note_on_c, 0, 74, 48
1, 94303, Note_on_c, 0, 62, 31
1, 94305, Note_on_c, 0, 70, 41
1, 94317, Control_c, 0, 64, 111
1, 94337, Control_c, 0, 64, 94
1, 94354, Control_c, 0, 64, 68
1, 94372, Control_c, 0, 64, 14
1, 94391, Control_c, 0, 64, 0
1, 94446, Control_c, 0, 64, 15
1, 94463, Control_c, 0, 64, 42
1, 94483, Control_c, 0, 64, 59
1, 94500, Control_c, 0, 64, 71
1, 94520, Control_c, 0, 64, 85
1, 94539, Control_c, 0, 64, 102
1, 94545, Note_off_c, 0, 58, 53
1, 94556, Control_c, 0, 64, 116
1, 94575, Control_c, 0, 64, 124
1, 94611, Note_off_c, 0, 70, 57
1, 94629, Note_off_c, 0, 74, 60
1, 94632, Note_off_c, 0, 62, 45
1, 94742, Note_off_c, 0, 78, 45
1, 94918, Note_on_c, 0, 58, 33
1, 94924, Note_on_c, 0, 62, 39
1, 94933, Note_on_c, 0, 79, 79
1, 94958, Note_on_c, 0, 74, 50
1, 94967, Note_on_c, 0, 70, 46
1, 95119, Note_off_c, 0, 74, 57
1, 95165, Note_off_c, 0, 70, 63
1, 95306, Note_off_c, 0, 58, 39
1, 95407, Note_off_c, 0, 62, 41
1, 95426, Note_on_c, 0, 60, 43
1, 95430, Note_on_c, 0, 67, 37
1, 95493, Note_on_c, 0, 75, 74
1, 95507, Note_on_c, 0, 69, 48
1, 95539, Note_off_c, 0, 79, 59
1, 95545, Control_c, 0, 64, 118
1, 95565, Control_c, 0, 64, 99
1, 95583, Control_c, 0, 64, 72
1, 95602, Control_c, 0, 64, 18
1, 95619, Control_c, 0, 64, 0
1, 95674, Control_c, 0, 64, 36
1, 95694, Control_c, 0, 64, 55
1, 95712, Control_c, 0, 64, 66
1, 95731, Control_c, 0, 64, 76
1, 95746, Note_off_c, 0, 69, 51
1, 95748, Note_off_c, 0, 60, 57
1, 95749, Control_c, 0, 64, 90
1, 95767, Control_c, 0, 64, 105
1, 95784, Control_c, 0, 64, 116
1, 95804, Control_c, 0, 64, 120
1, 95806, Note_off_c, 0, 67, 36
1, 95855, Control_c, 0, 64, 124
1, 96000, Note_on_c, 0, 60, 27
1, 96006, Note_on_c, 0, 67, 42
1, 96021, Note_on_c, 0, 69, 45
1, 96139, Note_off_c, 0, 67, 57
1, 96264, Note_off_c, 0, 69, 36
1, 96271, Note_off_c, 0, 60, 42
1, 96304, Note_off_c, 0, 75, 53
1, 96532, Note_on_c, 0, 62, 40
1, 96547, Note_on_c, 0, 74, 73
1, 96554, Note_on_c, 0, 66, 28
1, 96579, Note_on_c, 0, 69, 41
1, 96631, Control_c, 0, 64, 113
1, 96649, Control_c, 0, 64, 93
1, 96668, Control_c, 0, 64, 68
1, 96687, Control_c, 0, 64, 26
1, 96703, Control_c, 0, 64, 0
1, 96740, Control_c, 0, 64, 20
1, 96760, Control_c, 0, 64, 44
1, 96791, Control_c, 0, 64, 57
1, 96810, Control_c, 0, 64, 64
1, 96828, Control_c, 0, 64, 70
1, 96848, Control_c, 0, 64, 78
1, 96866, Control_c, 0, 64, 88
1, 96884, Control_c, 0, 64, 98
1, 96900, Note_off_c, 0, 66, 42
1, 96903, Control_c, 0, 64, 105
1, 96907, Note_off_c, 0, 62, 42
1, 96913, Note_off_c, 0, 69, 37
1, 96922, Control_c, 0, 64, 110
1, 96976, Control_c, 0, 64, 115
1, 97029, Control_c, 0, 64, 119
1, 97080, Note_on_c, 0, 62, 36
1, 97081, Note_on_c, 0, 69, 55
1, 97108, Note_on_c, 0, 66, 35
1, 97178, Control_c, 0, 64, 123
1, 97250, Note_off_c, 0, 66, 54
1, 97335, Note_off_c, 0, 69, 62
1, 97371, Note_off_c, 0, 62, 42
1, 97624, Note_on_c, 0, 55, 40
1, 97635, Note_on_c, 0, 62, 32
1, 97661, Note_off_c, 0, 74, 35
1, 97669, Note_on_c, 0, 72, 65
1, 97676, Control_c, 0, 64, 118
1, 97684, Note_on_c, 0, 67, 43
1, 97694, Control_c, 0, 64, 113
1, 97726, Control_c, 0, 64, 104
1, 97744, Control_c, 0, 64, 91
1, 97766, Control_c, 0, 64, 72
1, 97782, Control_c, 0, 64, 49
1, 97800, Control_c, 0, 64, 35
1, 97838, Control_c, 0, 64, 49
1, 97857, Control_c, 0, 64, 59
1, 97875, Control_c, 0, 64, 65
1, 97890, Note_off_c, 0, 72, 64
1, 97891, Control_c, 0, 64, 70
1, 97897, Note_on_c, 0, 70, 65
1, 97912, Control_c, 0, 64, 77
1, 97931, Control_c, 0, 64, 86
1, 97949, Control_c, 0, 64, 93
1, 97966, Control_c, 0, 64, 99
1, 97983, Note_off_c, 0, 70, 60
1, 97984, Control_c, 0, 64, 104
1, 97985, Note_off_c, 0, 55, 41
1, 98016, Note_on_c, 0, 72, 73
1, 98018, Note_off_c, 0, 62, 43
1, 98022, Note_off_c, 0, 67, 52
1, 98022, Control_c, 0, 64, 110
1, 98057, Control_c, 0, 64, 115
1, 98088, Note_off_c, 0, 72, 60
1, 98108, Note_on_c, 0, 70, 69
1, 98134, Note_on_c, 0, 55, 48
1, 98151, Note_off_c, 0, 70, 66
1, 98168, Note_on_c, 0, 72, 64
1, 98169, Note_on_c, 0, 62, 36
1, 98221, Note_off_c, 0, 55, 55
1, 98222, Note_off_c, 0, 72, 61
1, 98223, Control_c, 0, 64, 119
1, 98233, Note_on_c, 0, 70, 71
1, 98281, Note_off_c, 0, 70, 62
1, 98297, Note_on_c, 0, 72, 62
1, 98356, Note_on_c, 0, 70, 63
1, 98367, Note_off_c, 0, 72, 60
1, 98373, Note_off_c, 0, 62, 42
1, 98556, Control_c, 0, 64, 115
1, 98590, Control_c, 0, 64, 107
1, 98598, Note_on_c, 0, 69, 73
1, 98610, Control_c, 0, 64, 95
1, 98615, Note_on_c, 0, 53, 38
1, 98622, Note_off_c, 0, 70, 51
1, 98629, Control_c, 0, 64, 73
1, 98629, Note_on_c, 0, 55, 31
1, 98630, Note_on_c, 0, 62, 40
1, 98661, Control_c, 0, 64, 36
1, 98679, Control_c, 0, 64, 0
1, 98754, Control_c, 0, 64, 33
1, 98772, Control_c, 0, 64, 54
1, 98792, Control_c, 0, 64, 64
1, 98810, Control_c, 0, 64, 72
1, 98827, Control_c, 0, 64, 83
1, 98845, Control_c, 0, 64, 97
1, 98865, Control_c, 0, 64, 108
1, 98884, Control_c, 0, 64, 113
1, 98919, Control_c, 0, 64, 119
1, 98938, Control_c, 0, 64, 124
1, 98951, Note_off_c, 0, 62, 43
1, 98955, Note_off_c, 0, 53, 42
1, 98966, Note_off_c, 0, 55, 40
1, 99118, Note_on_c, 0, 67, 72
1, 99133, Note_on_c, 0, 53, 41
1, 99136, Note_on_c, 0, 62, 40
1, 99140, Note_on_c, 0, 55, 38
1, 99213, Note_off_c, 0, 62, 61
1, 99220, Note_off_c, 0, 55, 60
1, 99243, Note_off_c, 0, 69, 58
1, 99259, Note_off_c, 0, 53, 60
1, 99402, Note_off_c, 0, 67, 56
1, 99610, Note_on_c, 0, 55, 36
1, 99616, Note_on_c, 0, 60, 31
1, 99628, Note_on_c, 0, 51, 28
1, 99668, Note_on_c, 0, 72, 73
1, 99696, Note_on_c, 0, 67, 44
1, 99731, Control_c, 0, 64, 104
1, 99748, Control_c, 0, 64, 73
1, 99765, Control_c, 0, 64, 0
1, 99876, Control_c, 0, 64, 50
1, 99895, Control_c, 0, 64, 72
1, 99912, Control_c, 0, 64, 90
1, 99930, Control_c, 0, 64, 111
1, 99949, Control_c, 0, 64, 127
1, 99999, Note_off_c, 0, 67, 54
1, 100001, Note_off_c, 0, 55, 50
1, 100039, Note_off_c, 0, 60, 42
1, 100052, Note_off_c, 0, 51, 41
1, 100181, Note_on_c, 0, 67, 49
1, 100197, Note_on_c, 0, 55, 36
1, 100199, Note_on_c, 0, 51, 41
1, 100200, Note_on_c, 0, 60, 27
1, 100318, Note_off_c, 0, 67, 53
1, 100379, Note_off_c, 0, 60, 38
1, 100459, Note_off_c, 0, 55, 39
1, 100564, Note_off_c, 0, 51, 33
1, 100724, Note_on_c, 0, 50, 40
1, 100740, Note_on_c, 0, 55, 34
1, 100741, Note_on_c, 0, 59, 33
1, 100743, Note_off_c, 0, 72, 47
1, 100747, Note_on_c, 0, 74, 73
1, 100766, Note_on_c, 0, 67, 50
1, 100777, Note_on_c, 0, 65, 40
1, 100793, Control_c, 0, 64, 123
1, 100811, Control_c, 0, 64, 112
1, 100830, Control_c, 0, 64, 93
1, 100846, Control_c, 0, 64, 66
1, 100865, Control_c, 0, 64, 0
1, 100921, Control_c, 0, 64, 13
1, 100940, Control_c, 0, 64, 43
1, 100960, Control_c, 0, 64, 57
1, 100978, Control_c, 0, 64, 65
1, 100996, Control_c, 0, 64, 73
1, 101013, Control_c, 0, 64, 83
1, 101032, Control_c, 0, 64, 95
1, 101050, Control_c, 0, 64, 104
1, 101059, Note_off_c, 0, 67, 60
1, 101068, Control_c, 0, 64, 109
1, 101086, Note_off_c, 0, 50, 42
1, 101089, Note_off_c, 0, 55, 42
1, 101092, Note_off_c, 0, 65, 39
1, 101095, Note_off_c, 0, 59, 42
1, 101141, Control_c, 0, 64, 114
1, 101143, Note_off_c, 0, 74, 57
1, 101161, Control_c, 0, 64, 120
1, 101270, Control_c, 0, 64, 124
1, 101292, Note_on_c, 0, 50, 33
1, 101293, Note_on_c, 0, 55, 36
1, 101294, Note_on_c, 0, 71, 74
1, 101295, Note_on_c, 0, 59, 32
1, 101307, Note_on_c, 0, 67, 60
1, 101321, Note_on_c, 0, 65, 51
1, 101457, Note_off_c, 0, 65, 51
1, 101490, Note_off_c, 0, 59, 35
1, 101530, Note_off_c, 0, 50, 42
1, 101537, Note_off_c, 0, 67, 60
1, 101557, Note_off_c, 0, 55, 40
1, 101594, Note_off_c, 0, 71, 59
1, 101802, Note_on_c, 0, 55, 25
1, 101802, Control_c, 0, 64, 119
1, 101813, Note_on_c, 0, 60, 28
1, 101816, Note_on_c, 0, 51, 34
1, 101839, Control_c, 0, 64, 113
1, 101854, Note_on_c, 0, 72, 68
1, 101858, Control_c, 0, 64, 109
1, 101867, Note_on_c, 0, 67, 50
1, 101878, Control_c, 0, 64, 105
1, 101896, Control_c, 0, 64, 99
1, 101914, Control_c, 0, 64, 90
1, 101933, Control_c, 0, 64, 78
1, 101950, Control_c, 0, 64, 60
1, 101968, Control_c, 0, 64, 18
1, 101987, Control_c, 0, 64, 0
1, 102059, Control_c, 0, 64, 30
1, 102079, Control_c, 0, 64, 48
1, 102097, Control_c, 0, 64, 58
1, 102116, Control_c, 0, 64, 63
1, 102136, Control_c, 0, 64, 69
1, 102149, Note_off_c, 0, 60, 51
1, 102153, Control_c, 0, 64, 77
1, 102162, Note_off_c, 0, 55, 48
1, 102163, Note_off_c, 0, 67, 56
1, 102169, Control_c, 0, 64, 85
1, 102179, Note_off_c, 0, 51, 41
1, 102188, Control_c, 0, 64, 94
1, 102207, Control_c, 0, 64, 101
1, 102226, Control_c, 0, 64, 105
1, 102302, Control_c, 0, 64, 109
1, 102384, Note_on_c, 0, 67, 44
1, 102392, Control_c, 0, 64, 101
1, 102423, Note_on_c, 0, 60, 32
1, 102424, Control_c, 0, 64, 93
1, 102427, Note_on_c, 0, 51, 29
1, 102438, Note_on_c, 0, 55, 22
1, 102443, Control_c, 0, 64, 83
1, 102462, Control_c, 0, 64, 80
1, 102481, Control_c, 0, 64, 83
1, 102499, Control_c, 0, 64, 88
1, 102517, Control_c, 0, 64, 95
1, 102537, Control_c, 0, 64, 101
1, 102574, Note_off_c, 0, 60, 48
1, 102614, Note_off_c, 0, 67, 51
1, 102642, Note_off_c, 0, 55, 52
1, 102667, Note_off_c, 0, 51, 47
1, 102944, Note_on_c, 0, 67, 59
1, 102945, Note_on_c, 0, 47, 38
1, 102949, Note_on_c, 0, 55, 39
1, 102962, Note_on_c, 0, 65, 48
1, 102976, Control_c, 0, 64, 95
1, 102995, Control_c, 0, 64, 84
1, 103013, Control_c, 0, 64, 64
1, 103052, Control_c, 0, 64, 0
1, 103124, Control_c, 0, 64, 38
1, 103142, Control_c, 0, 64, 55
1, 103162, Control_c, 0, 64, 64
1, 103178, Control_c, 0, 64, 70
1, 103197, Control_c, 0, 64, 78
1, 103216, Control_c, 0, 64, 88
1, 103232, Note_off_c, 0, 65, 55
1, 103232, Note_off_c, 0, 47, 42
1, 103233, Control_c, 0, 64, 97
1, 103252, Control_c, 0, 64, 104
1, 103253, Note_off_c, 0, 55, 41
1, 103258, Note_off_c, 0, 67, 61
1, 103329, Control_c, 0, 64, 108
1, 103432, Note_off_c, 0, 72, 35
1, 103494, Note_on_c, 0, 74, 79
1, 103496, Note_on_c, 0, 47, 44
1, 103507, Note_on_c, 0, 67, 59
1, 103507, Note_on_c, 0, 55, 41
1, 103519, Note_on_c, 0, 65, 54
1, 103562, Note_off_c, 0, 47, 59
1, 103609, Note_off_c, 0, 55, 57
1, 103695, Note_off_c, 0, 65, 59
1, 103710, Note_off_c, 0, 74, 63
1, 103736, Note_off_c, 0, 67, 56
1, 104032, Note_on_c, 0, 55, 37
1, 104038, Note_on_c, 0, 48, 31
1, 104046, Note_on_c, 0, 60, 36
1, 104055, Note_on_c, 0, 75, 79
1, 104069, Note_on_c, 0, 67, 55
1, 104081, Note_on_c, 0, 63, 40
1, 104114, Control_c, 0, 64, 102
1, 104134, Control_c, 0, 64, 91
1, 104151, Control_c, 0, 64, 72
1, 104171, Control_c, 0, 64, 38
1, 104190, Control_c, 0, 64, 0
1, 104264, Control_c, 0, 64, 25
1, 104296, Control_c, 0, 64, 53
1, 104305, Note_off_c, 0, 63, 53
1, 104314, Control_c, 0, 64, 68
1, 104335, Control_c, 0, 64, 80
1, 104352, Control_c, 0, 64, 96
1, 104354, Note_off_c, 0, 67, 53
1, 104369, Control_c, 0, 64, 112
1, 104380, Note_off_c, 0, 60, 42
1, 104382, Note_off_c, 0, 55, 42
1, 104386, Control_c, 0, 64, 121
1, 104409, Note_off_c, 0, 48, 40
1, 104462, Control_c, 0, 64, 125
1, 104614, Note_on_c, 0, 67, 65
1, 104619, Note_on_c, 0, 48, 37
1, 104628, Note_on_c, 0, 55, 41
1, 104631, Note_on_c, 0, 60, 38
1, 104636, Note_on_c, 0, 63, 53
1, 104687, Note_off_c, 0, 60, 63
1, 104711, Note_off_c, 0, 48, 56
1, 104718, Note_off_c, 0, 55, 62
1, 104729, Note_off_c, 0, 63, 57
1, 104730, Note_off_c, 0, 67, 62
1, 104755, Note_off_c, 0, 75, 62
1, 105150, Note_on_c, 0, 77, 82
1, 105157, Control_c, 0, 64, 119
1, 105164, Note_on_c, 0, 68, 65
1, 105165, Note_on_c, 0, 50, 44
1, 105169, Note_on_c, 0, 47, 42
1, 105176, Note_on_c, 0, 56, 42
1, 105176, Control_c, 0, 64, 114
1, 105179, Note_on_c, 0, 65, 51
1, 105195, Control_c, 0, 64, 101
1, 105228, Control_c, 0, 64, 78
1, 105245, Control_c, 0, 64, 46
1, 105264, Control_c, 0, 64, 0
1, 105338, Control_c, 0, 64, 33
1, 105356, Control_c, 0, 64, 55
1, 105375, Control_c, 0, 64, 66
1, 105393, Control_c, 0, 64, 76
1, 105413, Control_c, 0, 64, 87
1, 105431, Control_c, 0, 64, 98
1, 105432, Note_off_c, 0, 50, 50
1, 105433, Note_off_c, 0, 65, 61
1, 105438, Note_off_c, 0, 47, 55
1, 105448, Control_c, 0, 64, 105
1, 105471, Note_off_c, 0, 68, 60
1, 105485, Control_c, 0, 64, 112
1, 105504, Note_off_c, 0, 77, 57
1, 105521, Control_c, 0, 64, 118
1, 105543, Note_off_c, 0, 56, 39
1, 105558, Control_c, 0, 64, 122
1, 105701, Note_on_c, 0, 74, 86
1, 105711, Note_on_c, 0, 50, 51
1, 105723, Note_on_c, 0, 47, 44
1, 105728, Note_on_c, 0, 55, 50
1, 105728, Note_on_c, 0, 65, 58
1, 105729, Note_on_c, 0, 67, 52
1, 105794, Note_off_c, 0, 47, 58
1, 105813, Note_off_c, 0, 50, 62
1, 105840, Note_off_c, 0, 74, 64
1, 105843, Note_off_c, 0, 67, 59
1, 105845, Note_off_c, 0, 55, 62
1, 105846, Note_off_c, 0, 65, 63
1, 105945, Control_c, 0, 64, 127
1, 106250, Note_on_c, 0, 55, 46
1, 106267, Note_on_c, 0, 60, 38
1, 106269, Note_on_c, 0, 48, 41
1, 106277, Note_on_c, 0, 75, 80
1, 106284, Note_on_c, 0, 67, 58
1, 106328, Control_c, 0, 64, 117
1, 106331, Note_on_c, 0, 63, 31
1, 106347, Control_c, 0, 64, 100
1, 106367, Control_c, 0, 64, 73
1, 106383, Control_c, 0, 64, 19
1, 106401, Control_c, 0, 64, 0
1, 106474, Control_c, 0, 64, 28
1, 106493, Control_c, 0, 64, 55
1, 106512, Control_c, 0, 64, 68
1, 106514, Note_off_c, 0, 55, 57
1, 106530, Control_c, 0, 64, 80
1, 106535, Note_off_c, 0, 67, 48
1, 106537, Note_off_c, 0, 60, 57
1, 106549, Control_c, 0, 64, 95
1, 106555, Note_off_c, 0, 63, 35
1, 106556, Note_off_c, 0, 48, 39
1, 106561, Control_c, 0, 64, 110
1, 106579, Control_c, 0, 64, 120
1, 106615, Control_c, 0, 64, 126
1, 106782, Note_on_c, 0, 67, 67
1, 106786, Note_on_c, 0, 55, 44
1, 106790, Note_on_c, 0, 60, 44
1, 106791, Note_on_c, 0, 48, 42
1, 106801, Note_on_c, 0, 63, 48
1, 106854, Note_off_c, 0, 63, 60
1, 106868, Note_off_c, 0, 67, 61
1, 106893, Note_off_c, 0, 75, 55
1, 106911, Note_off_c, 0, 60, 58
1, 106915, Note_off_c, 0, 48, 38
1, 107183, Note_off_c, 0, 55, 38
1, 107336, Note_on_c, 0, 53, 42
1, 107344, Note_on_c, 0, 59, 41
1, 107350, Note_on_c, 0, 50, 40
1, 107374, Note_on_c, 0, 79, 81
1, 107387, Note_on_c, 0, 67, 53
1, 107441, Control_c, 0, 64, 104
1, 107460, Control_c, 0, 64, 79
1, 107479, Control_c, 0, 64, 48
1, 107497, Control_c, 0, 64, 0
1, 107534, Control_c, 0, 64, 16
1, 107552, Control_c, 0, 64, 49
1, 107570, Control_c, 0, 64, 67
1, 107589, Control_c, 0, 64, 81
1, 107607, Control_c, 0, 64, 103
1, 107624, Control_c, 0, 64, 126
1, 107670, Note_off_c, 0, 50, 42
1, 107682, Note_off_c, 0, 59, 59
1, 107682, Note_off_c, 0, 53, 52
1, 107685, Note_off_c, 0, 67, 56
1, 107828, Note_off_c, 0, 79, 49
1, 107879, Note_on_c, 0, 53, 38
1, 107901, Note_on_c, 0, 59, 39
1, 107904, Note_on_c, 0, 50, 48
1, 107904, Note_on_c, 0, 77, 84
1, 107927, Note_on_c, 0, 67, 63
1, 108039, Note_off_c, 0, 50, 61
1, 108040, Note_off_c, 0, 59, 58
1, 108048, Note_off_c, 0, 53, 53
1, 108158, Note_off_c, 0, 67, 37
1, 108162, Note_off_c, 0, 77, 59
1, 108446, Note_on_c, 0, 55, 38
1, 108452, Note_on_c, 0, 60, 31
1, 108454, Note_on_c, 0, 51, 40
1, 108473, Note_on_c, 0, 79, 81
1, 108482, Note_on_c, 0, 72, 57
1, 108503, Note_on_c, 0, 67, 40
1, 108557, Control_c, 0, 64, 102
1, 108576, Control_c, 0, 64, 70
1, 108595, Control_c, 0, 64, 18
1, 108614, Control_c, 0, 64, 0
1, 108650, Control_c, 0, 64, 21
1, 108670, Control_c, 0, 64, 52
1, 108688, Control_c, 0, 64, 67
1, 108707, Control_c, 0, 64, 79
1, 108724, Control_c, 0, 64, 92
1, 108742, Control_c, 0, 64, 106
1, 108761, Control_c, 0, 64, 122
1, 108780, Control_c, 0, 64, 127
1, 108786, Note_off_c, 0, 72, 56
1, 108800, Note_off_c, 0, 51, 37
1, 108820, Note_off_c, 0, 55, 41
1, 108844, Note_off_c, 0, 67, 36
1, 108866, Note_off_c, 0, 60, 41
1, 109046, Note_on_c, 0, 55, 30
1, 109051, Note_on_c, 0, 72, 60
1, 109055, Note_on_c, 0, 60, 41
1, 109056, Note_on_c, 0, 67, 45
1, 109075, Note_on_c, 0, 51, 28
1, 109119, Note_off_c, 0, 55, 60
1, 109132, Note_off_c, 0, 51, 50
1, 109272, Note_off_c, 0, 67, 60
1, 109272, Note_off_c, 0, 79, 61
1, 109326, Note_off_c, 0, 60, 30
1, 109332, Note_off_c, 0, 72, 55
1, 109627, Note_on_c, 0, 65, 60
1, 109629, Note_on_c, 0, 60, 51
1, 109644, Note_on_c, 0, 53, 42
1, 109645, Note_on_c, 0, 80, 80
1, 109660, Note_on_c, 0, 72, 43
1, 109682, Note_on_c, 0, 68, 36
1, 109735, Control_c, 0, 64, 107
1, 109753, Control_c, 0, 64, 80
1, 109765, Note_off_c, 0, 72, 0
1, 109766, Note_on_c, 0, 72, 6
1, 109772, Control_c, 0, 64, 46
1, 109790, Control_c, 0, 64, 0
1, 109827, Control_c, 0, 64, 12
1, 109847, Control_c, 0, 64, 45
1, 109865, Control_c, 0, 64, 64
1, 109898, Control_c, 0, 64, 74
1, 109915, Control_c, 0, 64, 86
1, 109935, Control_c, 0, 64, 102
1, 109943, Note_off_c, 0, 53, 61
1, 109953, Control_c, 0, 64, 120
1, 109970, Control_c, 0, 64, 127
1, 109978, Note_off_c, 0, 65, 62
1, 110030, Note_off_c, 0, 60, 53
1, 110087, Note_off_c, 0, 68, 40
1, 110091, Note_off_c, 0, 72, 36
1, 110236, Note_on_c, 0, 72, 58
1, 110239, Note_on_c, 0, 63, 68
1, 110244, Note_on_c, 0, 68, 38
1, 110252, Note_on_c, 0, 60, 41
1, 110275, Note_on_c, 0, 53, 46
1, 110477, Note_off_c, 0, 80, 56
1, 110527, Note_off_c, 0, 72, 57
1, 110538, Note_off_c, 0, 53, 32
1, 110555, Note_off_c, 0, 68, 58
1, 110571, Note_off_c, 0, 60, 54
1, 110574, Note_off_c, 0, 63, 61
1, 110798, Note_on_c, 0, 62, 58
1, 110810, Note_on_c, 0, 71, 64
1, 110835, Note_on_c, 0, 55, 46
1, 110841, Note_on_c, 0, 53, 37
1, 110847, Note_on_c, 0, 67, 41
1, 110889, Control_c, 0, 64, 120
1, 110905, Control_c, 0, 64, 102
1, 110924, Control_c, 0, 64, 76
1, 110942, Control_c, 0, 64, 42
1, 110962, Control_c, 0, 64, 0
1, 111036, Control_c, 0, 64, 39
1, 111055, Control_c, 0, 64, 60
1, 111070, Control_c, 0, 64, 72
1, 111090, Control_c, 0, 64, 83
1, 111108, Control_c, 0, 64, 94
1, 111109, Note_off_c, 0, 67, 34
1, 111127, Control_c, 0, 64, 106
1, 111144, Control_c, 0, 64, 114
1, 111162, Control_c, 0, 64, 118
1, 111211, Note_off_c, 0, 55, 31
1, 111211, Note_off_c, 0, 62, 59
1, 111217, Control_c, 0, 64, 123
1, 111229, Note_off_c, 0, 53, 40
1, 111373, Note_on_c, 0, 67, 47
1, 111382, Note_on_c, 0, 62, 51
1, 111417, Note_on_c, 0, 53, 31
1, 111417, Note_on_c, 0, 55, 28
1, 111439, Control_c, 0, 64, 127
1, 111557, Note_off_c, 0, 55, 37
1, 111562, Note_off_c, 0, 53, 37
1, 111562, Note_off_c, 0, 62, 49
1, 111603, Note_off_c, 0, 67, 51
1, 111662, Note_off_c, 0, 71, 56
1, 111976, Note_on_c, 0, 55, 37
1, 111985, Note_on_c, 0, 72, 67
1, 111988, Note_on_c, 0, 60, 35
1, 111991, Note_on_c, 0, 51, 43
1, 112005, Note_on_c, 0, 67, 45
1, 112024, Control_c, 0, 64, 121
1, 112043, Control_c, 0, 64, 103
1, 112064, Control_c, 0, 64, 79
1, 112079, Control_c, 0, 64, 55
1, 112098, Control_c, 0, 64, 41
1, 112117, Control_c, 0, 64, 46
1, 112136, Control_c, 0, 64, 57
1, 112154, Control_c, 0, 64, 68
1, 112172, Control_c, 0, 64, 78
1, 112192, Control_c, 0, 64, 93
1, 112210, Control_c, 0, 64, 110
1, 112227, Control_c, 0, 64, 124
1, 112253, Note_off_c, 0, 67, 55
1, 112321, Note_off_c, 0, 60, 42
1, 112400, Note_off_c, 0, 72, 29
1, 112485, Note_off_c, 0, 55, 42
1, 112492, Note_off_c, 0, 51, 36
1, 112529, Note_on_c, 0, 74, 77
1, 112530, Note_on_c, 0, 60, 36
1, 112534, Note_on_c, 0, 53, 47
1, 112553, Note_on_c, 0, 68, 52
1, 112556, Control_c, 0, 64, 119
1, 112561, Note_on_c, 0, 72, 35
1, 112576, Control_c, 0, 64, 107
1, 112595, Control_c, 0, 64, 91
1, 112612, Control_c, 0, 64, 77
1, 112632, Control_c, 0, 64, 71
1, 112649, Control_c, 0, 64, 73
1, 112668, Control_c, 0, 64, 80
1, 112702, Control_c, 0, 64, 91
1, 112721, Control_c, 0, 64, 105
1, 112738, Control_c, 0, 64, 116
1, 112758, Control_c, 0, 64, 122
1, 112794, Control_c, 0, 64, 127
1, 112799, Note_off_c, 0, 72, 19
1, 112854, Note_off_c, 0, 68, 50
1, 112883, Note_off_c, 0, 53, 57
1, 113008, Note_off_c, 0, 74, 50
1, 113107, Note_on_c, 0, 75, 64
1, 113126, Control_c, 0, 64, 123
1, 113126, Note_on_c, 0, 55, 39
1, 113135, Note_on_c, 0, 72, 46
1, 113139, Note_on_c, 0, 67, 27
1, 113145, Control_c, 0, 64, 112
1, 113162, Control_c, 0, 64, 93
1, 113176, Note_off_c, 0, 60, 37
1, 113178, Control_c, 0, 64, 70
1, 113200, Control_c, 0, 64, 30
1, 113218, Control_c, 0, 64, 0
1, 113291, Control_c, 0, 64, 28
1, 113309, Control_c, 0, 64, 54
1, 113328, Control_c, 0, 64, 67
1, 113347, Control_c, 0, 64, 76
1, 113366, Control_c, 0, 64, 87
1, 113384, Control_c, 0, 64, 100
1, 113389, Note_off_c, 0, 55, 42
1, 113401, Control_c, 0, 64, 112
1, 113403, Note_off_c, 0, 67, 42
1, 113420, Control_c, 0, 64, 120
1, 113422, Note_off_c, 0, 72, 37
1, 113438, Control_c, 0, 64, 124
1, 113439, Control_c, 0, 67, 8
1, 113605, Control_c, 0, 67, 12
1, 113669, Note_on_c, 0, 55, 37
1, 113682, Note_on_c, 0, 72, 55
1, 113688, Note_on_c, 0, 67, 32
1, 113746, Control_c, 0, 67, 16
1, 113784, Control_c, 0, 67, 20
1, 113805, Note_off_c, 0, 75, 57
1, 113819, Control_c, 0, 67, 25
1, 113857, Control_c, 0, 67, 30
1, 113870, Note_off_c, 0, 72, 59
1, 113895, Control_c, 0, 67, 35
1, 113916, Note_off_c, 0, 67, 57
1, 113932, Control_c, 0, 67, 39
1, 113986, Control_c, 0, 67, 44
1, 114299, Note_on_c, 0, 74, 63
1, 114304, Note_on_c, 0, 43, 39
1, 114307, Note_on_c, 0, 71, 43
1, 114326, Note_on_c, 0, 65, 38
1, 114354, Control_c, 0, 64, 115
1, 114375, Control_c, 0, 64, 94
1, 114391, Control_c, 0, 64, 64
1, 114408, Control_c, 0, 64, 0
1, 114501, Control_c, 0, 64, 37
1, 114519, Control_c, 0, 64, 57
1, 114537, Control_c, 0, 64, 66
1, 114571, Control_c, 0, 64, 72
1, 114590, Control_c, 0, 64, 77
1, 114609, Control_c, 0, 64, 85
1, 114627, Control_c, 0, 64, 96
1, 114642, Note_off_c, 0, 43, 41
1, 114644, Control_c, 0, 64, 108
1, 114663, Control_c, 0, 64, 118
1, 114682, Control_c, 0, 64, 122
1, 114728, Note_off_c, 0, 71, 59
1, 114735, Control_c, 0, 64, 126
1, 114919, Note_on_c, 0, 72, 64
1, 114930, Note_on_c, 0, 43, 39
1, 114993, Note_off_c, 0, 74, 53
1, 115004, Note_off_c, 0, 43, 56
1, 115091, Poly_aftertouch_c, 0, 55, 24
1, 115130, Note_off_c, 0, 55, 40
1, 115155, Note_off_c, 0, 65, 44
1, 115218, Note_off_c, 0, 72, 62
1, 115627, Note_on_c, 0, 72, 59
1, 115647, Note_on_c, 0, 51, 36
1, 115650, Note_on_c, 0, 48, 30
1, 115655, Note_on_c, 0, 79, 49
1, 115659, Note_on_c, 0, 75, 46
1, 115661, Note_on_c, 0, 60, 25
1, 115691, Control_c, 0, 64, 112
1, 115710, Control_c, 0, 64, 87
1, 115731, Control_c, 0, 64, 59
1, 115748, Control_c, 0, 64, 0
1, 115821, Control_c, 0, 64, 36
1, 115839, Control_c, 0, 64, 58
1, 115858, Control_c, 0, 64, 69
1, 115876, Control_c, 0, 64, 79
1, 115894, Control_c, 0, 64, 93
1, 115911, Control_c, 0, 64, 108
1, 115931, Control_c, 0, 64, 121
1, 115949, Control_c, 0, 64, 127
1, 115989, Note_off_c, 0, 48, 36
1, 115997, Note_off_c, 0, 60, 41
1, 116012, Note_off_c, 0, 79, 56
1, 116027, Note_off_c, 0, 75, 40
1, 116254, Note_on_c, 0, 79, 43
1, 116260, Note_on_c, 0, 75, 52
1, 116276, Note_on_c, 0, 60, 25
1, 116288, Note_on_c, 0, 48, 24
1, 116319, Note_off_c, 0, 72, 52
1, 116320, Control_c, 0, 67, 40
1, 116338, Note_off_c, 0, 75, 53
1, 116479, Note_off_c, 0, 60, 38
1, 116485, Note_off_c, 0, 48, 40
1, 116510, Note_off_c, 0, 79, 41
1, 116516, Note_on_c, 0, 75, 55
1, 116526, Note_on_c, 0, 72, 45
1, 116608, Note_off_c, 0, 75, 58
1, 116771, Note_on_c, 0, 75, 48
1, 116779, Note_on_c, 0, 79, 50
1, 116787, Note_on_c, 0, 60, 20
1, 116801, Note_on_c, 0, 48, 27
1, 116887, Note_off_c, 0, 72, 25
1, 116981, Note_off_c, 0, 75, 51
1, 116990, Note_off_c, 0, 79, 59
1, 116997, Note_off_c, 0, 60, 42
1, 117006, Note_off_c, 0, 48, 39
1, 117326, Note_on_c, 0, 60, 29
1, 117330, Note_on_c, 0, 79, 52
1, 117336, Note_on_c, 0, 48, 37
1, 117343, Note_on_c, 0, 75, 42
1, 117442, Note_off_c, 0, 75, 54
1, 117534, Note_off_c, 0, 48, 32
1, 117553, Note_off_c, 0, 51, 48
1, 117578, Note_on_c, 0, 75, 61
1, 117579, Note_off_c, 0, 79, 34
1, 117609, Note_on_c, 0, 72, 37
1, 117678, Note_off_c, 0, 75, 51
1, 117839, Control_c, 0, 64, 112
1, 117840, Note_on_c, 0, 75, 51
1, 117844, Note_on_c, 0, 79, 63
1, 117857, Control_c, 0, 64, 84
1, 117861, Note_on_c, 0, 56, 39
1, 117877, Control_c, 0, 64, 54
1, 117878, Note_on_c, 0, 48, 19
1, 117896, Control_c, 0, 64, 36
1, 117914, Control_c, 0, 64, 43
1, 117924, Note_off_c, 0, 72, 40
1, 117929, Control_c, 0, 64, 56
1, 117950, Control_c, 0, 64, 67
1, 117969, Control_c, 0, 64, 77
1, 117987, Control_c, 0, 64, 89
1, 118004, Control_c, 0, 64, 102
1, 118017, Note_off_c, 0, 60, 38
1, 118021, Control_c, 0, 64, 115
1, 118043, Control_c, 0, 64, 125
1, 118050, Note_off_c, 0, 75, 63
1, 118103, Note_off_c, 0, 79, 60
1, 118112, Note_off_c, 0, 48, 39
1, 118127, Note_off_c, 0, 56, 55
1, 118226, Control_c, 0, 67, 35
1, 118264, Control_c, 0, 67, 29
1, 118280, Control_c, 0, 67, 25
1, 118299, Control_c, 0, 67, 21
1, 118335, Control_c, 0, 67, 16
1, 118370, Control_c, 0, 67, 11
1, 118400, Note_on_c, 0, 56, 34
1, 118404, Note_on_c, 0, 80, 63
1, 118414, Note_on_c, 0, 77, 47
1, 118429, Note_on_c, 0, 48, 30
1, 118625, Note_off_c, 0, 48, 33
1, 118675, Note_off_c, 0, 80, 60
1, 118702, Note_off_c, 0, 77, 38
1, 118876, Note_off_c, 0, 56, 40
1, 118954, Note_on_c, 0, 80, 59
1, 118959, Note_on_c, 0, 77, 44
1, 118960, Note_on_c, 0, 53, 40
1, 118991, Note_on_c, 0, 48, 27
1, 118996, Control_c, 0, 64, 108
1, 119015, Control_c, 0, 64, 81
1, 119035, Control_c, 0, 64, 53
1, 119055, Control_c, 0, 64, 23
1, 119088, Control_c, 0, 64, 43
1, 119107, Control_c, 0, 64, 58
1, 119126, Control_c, 0, 64, 66
1, 119144, Control_c, 0, 64, 72
1, 119164, Control_c, 0, 64, 80
1, 119180, Control_c, 0, 64, 91
1, 119200, Control_c, 0, 64, 105
1, 119217, Control_c, 0, 64, 118
1, 119234, Note_off_c, 0, 80, 56
1, 119235, Control_c, 0, 64, 125
1, 119262, Note_off_c, 0, 53, 43
1, 119264, Note_off_c, 0, 48, 35
1, 119509, Note_on_c, 0, 53, 35
1, 119512, Note_on_c, 0, 84, 53
1, 119524, Note_on_c, 0, 80, 45
1, 119559, Note_on_c, 0, 48, 19
1, 119588, Note_off_c, 0, 77, 43
1, 119683, Note_off_c, 0, 84, 58
1, 119691, Note_off_c, 0, 80, 44
1, 119751, Note_off_c, 0, 53, 40
1, 119811, Note_off_c, 0, 48, 27
1, 120068, Note_on_c, 0, 77, 58
1, 120078, Note_on_c, 0, 74, 45
1, 120091, Note_on_c, 0, 50, 31
1, 120092, Note_on_c, 0, 48, 25
1, 120092, Note_on_c, 0, 59, 34
1, 120133, Control_c, 0, 64, 104
1, 120152, Control_c, 0, 64, 80
1, 120173, Control_c, 0, 64, 58
1, 120205, Control_c, 0, 64, 41
1, 120242, Control_c, 0, 64, 48
1, 120261, Control_c, 0, 64, 57
1, 120278, Control_c, 0, 64, 64
1, 120297, Control_c, 0, 64, 71
1, 120315, Control_c, 0, 64, 80
1, 120334, Control_c, 0, 64, 90
1, 120350, Control_c, 0, 64, 99
1, 120370, Control_c, 0, 64, 108
1, 120378, Note_off_c, 0, 77, 61
1, 120383, Note_off_c, 0, 59, 43
1, 120388, Control_c, 0, 64, 113
1, 120393, Note_off_c, 0, 50, 39
1, 120394, Note_off_c, 0, 74, 57
1, 120410, Note_off_c, 0, 48, 36
1, 120426, Control_c, 0, 64, 118
1, 120481, Control_c, 0, 64, 123
1, 120617, Note_on_c, 0, 77, 61
1, 120630, Note_on_c, 0, 48, 20
1, 120631, Note_on_c, 0, 50, 26
1, 120639, Note_on_c, 0, 74, 35
1, 120643, Note_on_c, 0, 59, 26
1, 120747, Note_off_c, 0, 74, 53
1, 120781, Note_off_c, 0, 77, 56
1, 120840, Note_off_c, 0, 59, 43
1, 120847, Note_off_c, 0, 48, 38
1, 120854, Note_off_c, 0, 50, 44
1, 120876, Note_on_c, 0, 74, 61
1, 120900, Note_on_c, 0, 71, 30
1, 120905, Control_c, 0, 64, 127
1, 120958, Note_off_c, 0, 71, 46
1, 120968, Note_off_c, 0, 74, 57
1, 121135, Note_on_c, 0, 77, 60
1, 121138, Note_on_c, 0, 59, 23
1, 121145, Note_on_c, 0, 74, 41
1, 121161, Note_on_c, 0, 50, 27
1, 121175, Note_on_c, 0, 48, 18
1, 121280, Note_off_c, 0, 74, 39
1, 121291, Note_off_c, 0, 77, 62
1, 121327, Note_off_c, 0, 48, 34
1, 121330, Note_off_c, 0, 59, 43
1, 121350, Note_off_c, 0, 50, 35
1, 121652, Note_on_c, 0, 59, 23
1, 121667, Note_on_c, 0, 50, 36
1, 121678, Note_on_c, 0, 77, 59
1, 121690, Note_on_c, 0, 74, 36
1, 121770, Poly_aftertouch_c, 0, 48, 127
1, 121774, Note_off_c, 0, 74, 62
1, 121851, Poly_aftertouch_c, 0, 48, 0
1, 121862, Note_off_c, 0, 77, 59
1, 121903, Note_on_c, 0, 74, 60
1, 121916, Note_off_c, 0, 59, 39
1, 121916, Note_on_c, 0, 71, 38
1, 121941, Note_off_c, 0, 71, 53
1, 121945, Note_off_c, 0, 50, 39
1, 121959, Note_off_c, 0, 74, 57
1, 122173, Note_on_c, 0, 77, 62
1, 122173, Note_on_c, 0, 59, 25
1, 122185, Note_on_c, 0, 74, 45
1, 122189, Control_c, 0, 64, 121
1, 122190, Note_on_c, 0, 55, 35
1, 122198, Note_on_c, 0, 48, 27
1, 122207, Control_c, 0, 64, 103
1, 122227, Control_c, 0, 64, 76
1, 122245, Control_c, 0, 64, 43
1, 122263, Control_c, 0, 64, 0
1, 122283, Control_c, 0, 64, 16
1, 122301, Control_c, 0, 64, 45
1, 122320, Control_c, 0, 64, 64
1, 122338, Control_c, 0, 64, 76
1, 122358, Control_c, 0, 64, 89
1, 122374, Control_c, 0, 64, 103
1, 122393, Control_c, 0, 64, 117
1, 122411, Control_c, 0, 64, 126
1, 122413, Note_off_c, 0, 77, 63
1, 122445, Note_off_c, 0, 48, 39
1, 122455, Note_off_c, 0, 59, 41
1, 122482, Note_off_c, 0, 55, 41
1, 122707, Note_on_c, 0, 83, 61
1, 122720, Note_on_c, 0, 77, 43
1, 122720, Note_on_c, 0, 55, 28
1, 122741, Note_on_c, 0, 59, 19
1, 122741, Note_on_c, 0, 48, 25
1, 122761, Note_off_c, 0, 74, 36
1, 122896, Note_off_c, 0, 83, 63
1, 122921, Note_off_c, 0, 48, 31
1, 122922, Note_off_c, 0, 77, 54
1, 122930, Note_off_c, 0, 59, 43
1, 122936, Note_off_c, 0, 55, 40
1, 123263, Note_on_c, 0, 59, 29
1, 123267, Note_on_c, 0, 83, 58
1, 123276, Note_on_c, 0, 55, 34
1, 123283, Note_on_c, 0, 74, 30
1, 123294, Note_on_c, 0, 48, 24
1, 123402, Note_off_c, 0, 48, 36
1, 123451, Note_off_c, 0, 55, 36
1, 123459, Note_off_c, 0, 59, 43
1, 123494, Control_c, 0, 67, 15
1, 123532, Note_off_c, 0, 74, 39
1, 123566, Control_c, 0, 67, 20
1, 123639, Control_c, 0, 67, 24
1, 123751, Control_c, 0, 67, 29
1, 123808, Note_on_c, 0, 48, 33
1, 123817, Note_on_c, 0, 77, 34
1, 123820, Note_on_c, 0, 86, 60
1, 123822, Control_c, 0, 67, 33
1, 123827, Note_on_c, 0, 59, 25
1, 123834, Note_on_c, 0, 55, 23
1, 123850, Note_off_c, 0, 83, 52
1, 123894, Note_off_c, 0, 48, 56
1, 123897, Control_c, 0, 67, 39
1, 123902, Note_off_c, 0, 55, 47
1, 123950, Control_c, 0, 67, 44
1, 123968, Note_off_c, 0, 77, 43
1, 123988, Control_c, 0, 67, 49
1, 123995, Note_off_c, 0, 59, 49
1, 124008, Note_off_c, 0, 86, 62
1, 124023, Control_c, 0, 67, 54
1, 124389, Note_on_c, 0, 63, 37
1, 124392, Note_on_c, 0, 84, 56
1, 124394, Note_on_c, 0, 75, 48
1, 124407, Note_on_c, 0, 60, 27
1, 124414, Note_on_c, 0, 67, 35
1, 124429, Control_c, 0, 64, 107
1, 124448, Control_c, 0, 64, 78
1, 124465, Control_c, 0, 64, 44
1, 124483, Control_c, 0, 64, 0
1, 124520, Control_c, 0, 64, 36
1, 124538, Control_c, 0, 64, 58
1, 124556, Control_c, 0, 64, 70
1, 124575, Control_c, 0, 64, 81
1, 124594, Control_c, 0, 64, 97
1, 124612, Control_c, 0, 64, 116
1, 124630, Note_off_c, 0, 84, 65
1, 124630, Control_c, 0, 64, 127
1, 124641, Note_off_c, 0, 75, 65
1, 124649, Note_off_c, 0, 60, 41
1, 124666, Note_off_c, 0, 63, 52
1, 124677, Note_off_c, 0, 67, 40
1, 124892, Note_on_c, 0, 63, 35
1, 124911, Note_on_c, 0, 60, 42
1, 124919, Note_on_c, 0, 67, 36
1, 124995, Note_on_c, 0, 86, 56
1, 124999, Note_on_c, 0, 77, 49
1, 125023, Note_off_c, 0, 86, 64
1, 125036, Note_off_c, 0, 77, 55
1, 125069, Note_off_c, 0, 67, 51
1, 125091, Note_off_c, 0, 60, 57
1, 125096, Note_off_c, 0, 63, 55
1, 125128, Note_on_c, 0, 87, 67
1, 125174, Note_on_c, 0, 79, 6
1, 125303, Note_off_c, 0, 87, 57
1, 125345, Note_off_c, 0, 79, 37
1, 125402, Control_c, 0, 64, 119
1, 125406, Note_on_c, 0, 63, 39
1, 125408, Note_on_c, 0, 84, 62
1, 125411, Note_on_c, 0, 58, 45
1, 125418, Note_on_c, 0, 75, 52
1, 125418, Note_on_c, 0, 67, 37
1, 125421, Control_c, 0, 64, 92
1, 125437, Control_c, 0, 64, 64
1, 125458, Control_c, 0, 64, 32
1, 125459, Note_on_c, 0, 60, 17
1, 125492, Control_c, 0, 64, 51
1, 125511, Control_c, 0, 64, 65
1, 125530, Control_c, 0, 64, 75
1, 125548, Control_c, 0, 64, 85
1, 125568, Control_c, 0, 64, 93
1, 125586, Control_c, 0, 64, 102
1, 125606, Control_c, 0, 64, 112
1, 125614, Note_off_c, 0, 75, 39
1, 125623, Control_c, 0, 64, 121
1, 125639, Control_c, 0, 64, 127
1, 125646, Note_on_c, 0, 87, 65
1, 125651, Note_on_c, 0, 79, 60
1, 125671, Note_off_c, 0, 63, 50
1, 125699, Note_off_c, 0, 60, 38
1, 125700, Note_off_c, 0, 67, 43
1, 125707, Note_off_c, 0, 79, 58
1, 125707, Note_off_c, 0, 84, 55
1, 125737, Note_off_c, 0, 58, 35
1, 125781, Note_off_c, 0, 87, 61
1, 125912, Note_on_c, 0, 86, 74
1, 125914, Note_on_c, 0, 58, 52
1, 125924, Note_on_c, 0, 77, 54
1, 125932, Control_c, 0, 67, 58
1, 125942, Note_on_c, 0, 63, 34
1, 125950, Note_on_c, 0, 67, 28
1, 125974, Note_off_c, 0, 77, 58
1, 126004, Poly_aftertouch_c, 0, 60, 127
1, 126045, Note_off_c, 0, 58, 58
1, 126045, Poly_aftertouch_c, 0, 60, 0
1, 126080, Note_off_c, 0, 67, 34
1, 126124, Note_off_c, 0, 63, 37
1, 126159, Note_on_c, 0, 79, 69
1, 126172, Control_c, 0, 67, 62
1, 126176, Note_on_c, 0, 74, 55
1, 126178, Note_off_c, 0, 86, 54
1, 126207, Note_off_c, 0, 74, 57
1, 126245, Note_off_c, 0, 79, 54
1, 126284, Control_c, 0, 67, 66
1, 126426, Note_on_c, 0, 60, 41
1, 126431, Note_on_c, 0, 56, 40
1, 126438, Note_on_c, 0, 84, 66
1, 126441, Note_on_c, 0, 63, 42
1, 126447, Note_on_c, 0, 75, 52
1, 126449, Control_c, 0, 64, 119
1, 126450, Note_on_c, 0, 67, 27
1, 126469, Control_c, 0, 64, 90
1, 126488, Control_c, 0, 64, 44
1, 126505, Control_c, 0, 64, 0
1, 126579, Control_c, 0, 64, 18
1, 126597, Control_c, 0, 64, 52
1, 126616, Control_c, 0, 64, 70
1, 126634, Control_c, 0, 64, 85
1, 126652, Control_c, 0, 64, 106
1, 126670, Control_c, 0, 64, 124
1, 126682, Note_off_c, 0, 84, 64
1, 126692, Note_off_c, 0, 75, 63
1, 126740, Note_off_c, 0, 56, 52
1, 126745, Note_off_c, 0, 67, 42
1, 126748, Note_off_c, 0, 60, 31
1, 126759, Note_off_c, 0, 63, 36
1, 126934, Note_on_c, 0, 56, 47
1, 126934, Note_on_c, 0, 60, 45
1, 126943, Note_on_c, 0, 63, 43
1, 126950, Note_on_c, 0, 67, 36
1, 127021, Note_on_c, 0, 86, 64
1, 127044, Note_on_c, 0, 77, 38
1, 127053, Note_off_c, 0, 86, 69
1, 127077, Note_off_c, 0, 56, 51
1, 127090, Note_off_c, 0, 77, 50
1, 127152, Note_off_c, 0, 63, 55
1, 127152, Note_off_c, 0, 60, 56
1, 127162, Note_on_c, 0, 79, 51
1, 127165, Note_on_c, 0, 87, 57
1, 127168, Note_off_c, 0, 67, 38
1, 127359, Note_off_c, 0, 87, 53
1, 127375, Note_off_c, 0, 79, 34
1, 127404, Control_c, 0, 64, 119
1, 127422, Control_c, 0, 64, 92
1, 127435, Note_on_c, 0, 60, 38
1, 127440, Note_on_c, 0, 84, 64
1, 127440, Control_c, 0, 64, 58
1, 127447, Note_on_c, 0, 63, 38
1, 127451, Note_on_c, 0, 55, 37
1, 127452, Note_on_c, 0, 75, 51
1, 127458, Note_on_c, 0, 67, 23
1, 127459, Control_c, 0, 64, 0
1, 127497, Control_c, 0, 64, 21
1, 127514, Control_c, 0, 64, 50
1, 127533, Control_c, 0, 64, 64
1, 127551, Control_c, 0, 64, 71
1, 127569, Control_c, 0, 64, 77
1, 127587, Control_c, 0, 64, 85
1, 127605, Control_c, 0, 64, 95
1, 127625, Control_c, 0, 64, 106
1, 127642, Control_c, 0, 64, 114
1, 127673, Note_off_c, 0, 75, 39
1, 127695, Note_on_c, 0, 79, 59
1, 127696, Note_on_c, 0, 87, 65
1, 127713, Control_c, 0, 64, 118
1, 127751, Control_c, 0, 64, 127
1, 127763, Note_off_c, 0, 67, 40
1, 127767, Note_off_c, 0, 60, 35
1, 127778, Note_off_c, 0, 55, 40
1, 127785, Note_off_c, 0, 63, 29
1, 127800, Note_off_c, 0, 79, 54
1, 127826, Note_off_c, 0, 87, 60
1, 127841, Note_off_c, 0, 84, 30
1, 127946, Note_on_c, 0, 60, 43
1, 127950, Note_on_c, 0, 77, 59
1, 127953, Note_on_c, 0, 86, 66
1, 127958, Note_on_c, 0, 63, 41
1, 127959, Note_on_c, 0, 67, 29
1, 127960, Note_on_c, 0, 55, 40
1, 127993, Note_off_c, 0, 77, 65
1, 128005, Note_off_c, 0, 67, 48
1, 128006, Note_off_c, 0, 63, 60
1, 128020, Note_off_c, 0, 60, 63
1, 128051, Note_off_c, 0, 55, 60
1, 128115, Note_off_c, 0, 86, 48
1, 128167, Note_on_c, 0, 79, 69
1, 128260, Note_off_c, 0, 79, 56
1, 128260, Poly_aftertouch_c, 0, 75, 0
1, 128464, Note_on_c, 0, 84, 69
1, 128468, Control_c, 0, 64, 115
1, 128470, Note_on_c, 0, 56, 46
1, 128474, Note_on_c, 0, 60, 41
1, 128475, Note_on_c, 0, 53, 39
1, 128486, Control_c, 0, 64, 84
1, 128491, Note_on_c, 0, 63, 36
1, 128507, Control_c, 0, 64, 52
1, 128524, Control_c, 0, 64, 36
1, 128542, Control_c, 0, 64, 50
1, 128561, Control_c, 0, 64, 67
1, 128579, Control_c, 0, 64, 85
1, 128613, Control_c, 0, 64, 110
1, 128632, Control_c, 0, 64, 127
1, 128655, Note_off_c, 0, 84, 63
1, 128699, Note_off_c, 0, 56, 55
1, 128714, Note_off_c, 0, 63, 54
1, 128719, Note_off_c, 0, 60, 54
1, 128745, Note_off_c, 0, 53, 41
1, 128992, Note_on_c, 0, 84, 51
1, 128994, Note_on_c, 0, 87, 70
1, 128998, Note_on_c, 0, 56, 41
1, 129011, Note_on_c, 0, 63, 38
1, 129022, Note_on_c, 0, 60, 34
1, 129029, Note_on_c, 0, 53, 30
1, 129041, Note_off_c, 0, 84, 56
1, 129086, Note_off_c, 0, 87, 60
1, 129102, Note_on_c, 0, 89, 59
1, 129134, Note_on_c, 0, 86, 31
1, 129186, Note_off_c, 0, 86, 45
1, 129222, Note_on_c, 0, 91, 52
1, 129225, Note_on_c, 0, 87, 56
1, 129252, Note_off_c, 0, 87, 61
1, 129255, Note_off_c, 0, 89, 60
1, 129259, Note_off_c, 0, 63, 37
1, 129284, Note_off_c, 0, 91, 64
1, 129316, Note_off_c, 0, 60, 42
1, 129327, Note_off_c, 0, 56, 55
1, 129428, Note_off_c, 0, 53, 39
1, 129472, Note_on_c, 0, 60, 47
1, 129479, Note_on_c, 0, 87, 64
1, 129482, Note_on_c, 0, 84, 59
1, 129488, Note_on_c, 0, 55, 54
1, 129492, Note_on_c, 0, 63, 39
1, 129516, Control_c, 0, 64, 90
1, 129548, Control_c, 0, 64, 51
1, 129567, Control_c, 0, 64, 0
1, 129604, Control_c, 0, 64, 40
1, 129622, Control_c, 0, 64, 64
1, 129632, Note_off_c, 0, 84, 60
1, 129642, Control_c, 0, 64, 78
1, 129660, Control_c, 0, 64, 94
1, 129679, Control_c, 0, 64, 106
1, 129698, Control_c, 0, 64, 112
1, 129724, Note_off_c, 0, 87, 63
1, 129745, Note_on_c, 0, 84, 73
1, 129753, Note_on_c, 0, 75, 59
1, 129764, Note_off_c, 0, 63, 51
1, 129772, Note_off_c, 0, 55, 56
1, 129775, Note_off_c, 0, 60, 39
1, 129808, Control_c, 0, 64, 116
1, 129813, Note_off_c, 0, 75, 49
1, 129827, Control_c, 0, 64, 120
1, 129862, Control_c, 0, 64, 124
1, 129865, Note_off_c, 0, 84, 47
1, 130002, Note_on_c, 0, 86, 69
1, 130008, Note_on_c, 0, 55, 45
1, 130019, Note_on_c, 0, 77, 62
1, 130027, Note_on_c, 0, 60, 39
1, 130038, Note_on_c, 0, 63, 34
1, 130067, Note_off_c, 0, 77, 59
1, 130227, Note_off_c, 0, 63, 36
1, 130231, Note_off_c, 0, 60, 37
1, 130238, Note_on_c, 0, 83, 62
1, 130243, Note_off_c, 0, 86, 37
1, 130251, Note_off_c, 0, 55, 38
1, 130317, Note_off_c, 0, 83, 62
1, 130521, Control_c, 0, 64, 118
1, 130532, Note_on_c, 0, 56, 42
1, 130540, Control_c, 0, 64, 90
1, 130542, Note_on_c, 0, 75, 53
1, 130543, Note_on_c, 0, 60, 46
1, 130547, Note_on_c, 0, 63, 36
1, 130548, Note_on_c, 0, 84, 62
1, 130560, Control_c, 0, 64, 52
1, 130578, Control_c, 0, 64, 0
1, 130635, Control_c, 0, 64, 38
1, 130651, Control_c, 0, 64, 59
1, 130670, Control_c, 0, 64, 70
1, 130688, Control_c, 0, 64, 80
1, 130708, Note_off_c, 0, 75, 64
1, 130709, Control_c, 0, 64, 93
1, 130711, Control_c, 0, 67, 70
1, 130726, Control_c, 0, 64, 105
1, 130740, Note_off_c, 0, 84, 64
1, 130743, Control_c, 0, 64, 112
1, 130772, Note_off_c, 0, 56, 57
1, 130776, Note_off_c, 0, 63, 50
1, 130781, Control_c, 0, 64, 117
1, 130799, Control_c, 0, 64, 121
1, 130804, Note_off_c, 0, 60, 38
1, 130819, Control_c, 0, 64, 127
1, 131034, Note_on_c, 0, 84, 49
1, 131062, Note_on_c, 0, 87, 61
1, 131068, Note_on_c, 0, 55, 45
1, 131087, Note_off_c, 0, 84, 49
1, 131093, Note_on_c, 0, 63, 22
1, 131094, Note_on_c, 0, 60, 27
1, 131162, Note_off_c, 0, 87, 59
1, 131163, Note_on_c, 0, 89, 53
1, 131281, Note_on_c, 0, 91, 60
1, 131306, Note_on_c, 0, 53, 47
1, 131324, Note_on_c, 0, 87, 49
1, 131337, Note_off_c, 0, 89, 36
1, 131340, Note_off_c, 0, 91, 53
1, 131359, Note_off_c, 0, 55, 32
1, 131365, Note_off_c, 0, 87, 66
1, 131529, Note_off_c, 0, 53, 38
1, 131594, Note_on_c, 0, 84, 60
1, 131601, Note_on_c, 0, 87, 57
1, 131603, Note_on_c, 0, 55, 45
1, 131604, Control_c, 0, 64, 107
1, 131623, Control_c, 0, 64, 75
1, 131643, Control_c, 0, 64, 33
1, 131661, Control_c, 0, 64, 0
1, 131680, Control_c, 0, 64, 22
1, 131698, Control_c, 0, 64, 49
1, 131699, Note_off_c, 0, 84, 60
1, 131717, Control_c, 0, 64, 65
1, 131734, Control_c, 0, 64, 73
1, 131752, Control_c, 0, 64, 83
1, 131754, Control_c, 0, 67, 74
1, 131758, Note_off_c, 0, 55, 61
1, 131772, Control_c, 0, 64, 95
1, 131776, Note_off_c, 0, 60, 55
1, 131791, Control_c, 0, 64, 110
1, 131807, Control_c, 0, 64, 124
1, 131826, Note_off_c, 0, 63, 51
1, 131868, Note_on_c, 0, 84, 50
1, 131869, Note_off_c, 0, 87, 60
1, 131889, Note_on_c, 0, 75, 49
1, 131952, Note_off_c, 0, 84, 62
1, 131957, Note_off_c, 0, 75, 61
1, 132181, Note_on_c, 0, 67, 43
1, 132185, Note_on_c, 0, 59, 40
1, 132186, Note_on_c, 0, 86, 50
1, 132191, Note_on_c, 0, 77, 40
1, 132193, Control_c, 0, 64, 103
1, 132197, Note_on_c, 0, 55, 33
1, 132198, Note_on_c, 0, 62, 35
1, 132214, Control_c, 0, 64, 72
1, 132250, Control_c, 0, 64, 0
1, 132286, Control_c, 0, 64, 14
1, 132304, Control_c, 0, 64, 48
1, 132323, Control_c, 0, 64, 64
1, 132341, Control_c, 0, 64, 73
1, 132374, Control_c, 0, 64, 83
1, 132392, Control_c, 0, 64, 95
1, 132410, Control_c, 0, 64, 108
1, 132430, Control_c, 0, 64, 118
1, 132440, Note_off_c, 0, 59, 43
1, 132448, Control_c, 0, 64, 122
1, 132450, Note_off_c, 0, 55, 35
1, 132452, Note_off_c, 0, 62, 45
1, 132455, Note_off_c, 0, 86, 37
1, 132501, Note_on_c, 0, 83, 52
1, 132504, Control_c, 0, 64, 127
1, 132509, Note_off_c, 0, 77, 51
1, 132510, Note_on_c, 0, 74, 49
1, 132534, Note_off_c, 0, 67, 53
1, 132539, Control_c, 0, 67, 70
1, 132609, Note_off_c, 0, 74, 54
1, 132611, Control_c, 0, 67, 65
1, 132686, Control_c, 0, 67, 60
1, 132978, Note_off_c, 0, 83, 58
1, 132992, Note_on_c, 0, 67, 64
1, 133001, Note_on_c, 0, 79, 41
1, 133008, Note_on_c, 0, 63, 45
1, 133011, Note_on_c, 0, 84, 50
1, 133012, Note_on_c, 0, 60, 42
1, 133036, Note_on_c, 0, 75, 21
1, 133092, Control_c, 0, 64, 115
1, 133109, Control_c, 0, 64, 94
1, 133129, Control_c, 0, 64, 68
1, 133147, Control_c, 0, 64, 19
1, 133166, Control_c, 0, 64, 0
1, 133183, Control_c, 0, 67, 56
1, 133240, Control_c, 0, 64, 38
1, 133257, Control_c, 0, 64, 61
1, 133275, Control_c, 0, 64, 74
1, 133308, Control_c, 0, 64, 87
1, 133325, Note_off_c, 0, 60, 0
1, 133328, Control_c, 0, 64, 102
1, 133345, Control_c, 0, 64, 115
1, 133358, Poly_aftertouch_c, 0, 60, 24
1, 133364, Control_c, 0, 64, 125
1, 133367, Note_off_c, 0, 84, 61
1, 133387, Note_off_c, 0, 79, 49
1, 133405, Note_off_c, 0, 67, 59
1, 133408, Poly_aftertouch_c, 0, 60, 0
1, 133446, Note_off_c, 0, 75, 51
1, 133456, Note_off_c, 0, 63, 48
1, 133530, Control_c, 0, 67, 60
1, 133920, Note_on_c, 0, 48, 26
1, 133933, Note_on_c, 0, 63, 33
1, 134036, Poly_aftertouch_c, 0, 60, 127
1, 134094, Poly_aftertouch_c, 0, 60, 0
1, 134128, Note_off_c, 0, 48, 38
1, 134156, Note_off_c, 0, 63, 52
1, 134545, Note_on_c, 0, 48, 32
1, 134566, Note_on_c, 0, 60, 18
1, 134579, Note_on_c, 0, 70, 59
1, 134580, Note_on_c, 0, 63, 38
1, 134737, Note_off_c, 0, 48, 40
1, 134754, Note_off_c, 0, 63, 56
1, 134759, Control_c, 0, 67, 56
1, 134774, Note_off_c, 0, 60, 41
1, 134871, Control_c, 0, 67, 49
1, 134890, Control_c, 0, 67, 44
1, 134908, Control_c, 0, 67, 39
1, 134925, Control_c, 0, 67, 34
1, 134943, Note_off_c, 0, 70, 54
1, 134945, Control_c, 0, 67, 29
1, 134963, Control_c, 0, 67, 23
1, 134981, Control_c, 0, 67, 17
1, 135038, Control_c, 0, 67, 13
1, 135075, Control_c, 0, 67, 9
1, 135098, Note_on_c, 0, 48, 35
1, 135109, Note_on_c, 0, 60, 24
1, 135126, Note_on_c, 0, 69, 71
1, 135170, Note_on_c, 0, 63, 46
1, 135209, Note_off_c, 0, 48, 55
1, 135232, Note_off_c, 0, 60, 55
1, 135356, Note_off_c, 0, 63, 58
1, 135374, Note_off_c, 0, 69, 63
1, 135616, Note_on_c, 0, 58, 32
1, 135617, Note_on_c, 0, 50, 36
1, 135711, Note_on_c, 0, 70, 70
1, 135733, Note_on_c, 0, 65, 42
1, 135804, Control_c, 0, 64, 112
1, 135823, Control_c, 0, 64, 86
1, 135842, Control_c, 0, 64, 60
1, 135858, Control_c, 0, 64, 28
1, 135877, Control_c, 0, 64, 24
1, 135896, Control_c, 0, 64, 30
1, 135915, Control_c, 0, 64, 42
1, 135932, Control_c, 0, 64, 57
1, 135952, Control_c, 0, 64, 70
1, 135970, Control_c, 0, 64, 82
1, 135989, Control_c, 0, 64, 94
1, 136007, Control_c, 0, 64, 103
1, 136025, Control_c, 0, 64, 109
1, 136047, Note_off_c, 0, 65, 42
1, 136062, Note_off_c, 0, 58, 39
1, 136062, Control_c, 0, 64, 115
1, 136070, Note_off_c, 0, 50, 40
1, 136131, Control_c, 0, 64, 120
1, 136275, Note_on_c, 0, 50, 35
1, 136278, Control_c, 0, 64, 114
1, 136282, Note_on_c, 0, 58, 31
1, 136293, Note_on_c, 0, 65, 39
1, 136297, Control_c, 0, 64, 103
1, 136316, Control_c, 0, 64, 84
1, 136334, Control_c, 0, 64, 63
1, 136353, Control_c, 0, 64, 49
1, 136370, Control_c, 0, 64, 51
1, 136389, Control_c, 0, 64, 58
1, 136408, Control_c, 0, 64, 66
1, 136426, Control_c, 0, 64, 76
1, 136445, Control_c, 0, 64, 86
1, 136464, Control_c, 0, 64, 96
1, 136483, Control_c, 0, 64, 104
1, 136500, Control_c, 0, 64, 108
1, 136533, Note_off_c, 0, 65, 42
1, 136533, Note_off_c, 0, 58, 35
1, 136553, Note_off_c, 0, 50, 39
1, 136591, Control_c, 0, 64, 112
1, 136775, Control_c, 0, 64, 103
1, 136790, Note_on_c, 0, 50, 37
1, 136794, Control_c, 0, 64, 90
1, 136803, Note_on_c, 0, 65, 40
1, 136809, Note_on_c, 0, 58, 29
1, 136813, Control_c, 0, 64, 76
1, 136832, Control_c, 0, 64, 67
1, 136869, Control_c, 0, 64, 70
1, 136888, Control_c, 0, 64, 75
1, 136907, Control_c, 0, 64, 82
1, 136925, Control_c, 0, 64, 89
1, 136944, Control_c, 0, 64, 95
1, 136962, Control_c, 0, 64, 100
1, 136980, Control_c, 0, 64, 105
1, 136999, Control_c, 0, 64, 109
1, 137013, Note_off_c, 0, 50, 43
1, 137022, Note_off_c, 0, 65, 38
1, 137057, Note_off_c, 0, 58, 37
1, 137327, Note_on_c, 0, 50, 37
1, 137344, Control_c, 0, 64, 102
1, 137350, Note_on_c, 0, 74, 68
1, 137353, Note_on_c, 0, 58, 28
1, 137363, Control_c, 0, 64, 90
1, 137383, Note_on_c, 0, 65, 30
1, 137383, Control_c, 0, 64, 74
1, 137400, Control_c, 0, 64, 63
1, 137436, Control_c, 0, 64, 67
1, 137453, Note_off_c, 0, 70, 62
1, 137454, Control_c, 0, 64, 74
1, 137474, Control_c, 0, 64, 83
1, 137493, Control_c, 0, 64, 91
1, 137500, Note_off_c, 0, 50, 51
1, 137509, Control_c, 0, 64, 97
1, 137546, Control_c, 0, 64, 103
1, 137564, Note_off_c, 0, 58, 54
1, 137584, Control_c, 0, 64, 108
1, 137620, Note_off_c, 0, 65, 41
1, 137666, Note_off_c, 0, 74, 56
1, 137864, Note_on_c, 0, 52, 36
1, 137884, Note_on_c, 0, 60, 26
1, 137920, Note_on_c, 0, 72, 68
1, 137932, Control_c, 0, 64, 104
1, 137945, Note_on_c, 0, 67, 43
1, 137952, Control_c, 0, 64, 98
1, 137984, Control_c, 0, 64, 88
1, 138003, Control_c, 0, 64, 75
1, 138021, Control_c, 0, 64, 59
1, 138040, Control_c, 0, 64, 36
1, 138059, Control_c, 0, 64, 13
1, 138132, Control_c, 0, 64, 30
1, 138151, Control_c, 0, 64, 49
1, 138169, Control_c, 0, 64, 63
1, 138188, Control_c, 0, 64, 71
1, 138206, Control_c, 0, 64, 78
1, 138224, Control_c, 0, 64, 84
1, 138241, Control_c, 0, 64, 90
1, 138261, Control_c, 0, 64, 95
1, 138279, Control_c, 0, 64, 99
1, 138299, Note_off_c, 0, 67, 54
1, 138313, Note_off_c, 0, 60, 41
1, 138316, Control_c, 0, 64, 105
1, 138330, Note_off_c, 0, 52, 40
1, 138469, Note_on_c, 0, 67, 47
1, 138490, Note_on_c, 0, 60, 24
1, 138495, Note_on_c, 0, 52, 30
1, 138704, Note_off_c, 0, 60, 39
1, 138706, Note_off_c, 0, 52, 43
1, 138763, Note_off_c, 0, 67, 50
1, 139004, Note_on_c, 0, 52, 32
1, 139006, Note_on_c, 0, 60, 27
1, 139020, Note_on_c, 0, 70, 68
1, 139045, Note_on_c, 0, 67, 40
1, 139049, Note_off_c, 0, 72, 53
1, 139225, Note_off_c, 0, 52, 40
1, 139236, Note_off_c, 0, 60, 43
1, 139263, Note_off_c, 0, 67, 36
1, 139432, Note_off_c, 0, 70, 60
1, 139486, Note_on_c, 0, 52, 39
1, 139495, Note_on_c, 0, 60, 34
1, 139530, Note_on_c, 0, 69, 71
1, 139562, Note_on_c, 0, 67, 47
1, 139762, Note_on_c, 0, 70, 77
1, 139808, Note_off_c, 0, 60, 38
1, 139811, Note_off_c, 0, 69, 58
1, 139831, Note_off_c, 0, 67, 34
1, 139833, Note_off_c, 0, 52, 40
1, 139899, Note_off_c, 0, 70, 59
1, 140024, Note_on_c, 0, 60, 29
1, 140041, Control_c, 0, 64, 100
1, 140046, Note_on_c, 0, 53, 32
1, 140055, Note_on_c, 0, 70, 65
1, 140060, Control_c, 0, 64, 94
1, 140069, Note_on_c, 0, 65, 48
1, 140078, Control_c, 0, 64, 77
1, 140078, Control_c, 0, 67, 0
1, 140096, Control_c, 0, 64, 31
1, 140115, Control_c, 0, 64, 0
1, 140227, Control_c, 0, 64, 22
1, 140244, Control_c, 0, 64, 46
1, 140262, Control_c, 0, 64, 62
1, 140268, Note_off_c, 0, 70, 65
1, 140278, Note_on_c, 0, 69, 63
1, 140281, Control_c, 0, 64, 71
1, 140301, Control_c, 0, 64, 80
1, 140317, Control_c, 0, 64, 88
1, 140336, Control_c, 0, 64, 92
1, 140347, Note_off_c, 0, 53, 41
1, 140359, Note_off_c, 0, 69, 62
1, 140388, Note_off_c, 0, 60, 43
1, 140393, Note_on_c, 0, 70, 62
1, 140409, Control_c, 0, 64, 96
1, 140434, Note_off_c, 0, 70, 68
1, 140452, Note_on_c, 0, 69, 65
1, 140465, Control_c, 0, 64, 100
1, 140495, Note_off_c, 0, 69, 61
1, 140520, Control_c, 0, 64, 93
1, 140529, Note_on_c, 0, 70, 69
1, 140536, Note_on_c, 0, 60, 42
1, 140538, Control_c, 0, 64, 81
1, 140545, Note_on_c, 0, 53, 34
1, 140555, Control_c, 0, 64, 73
1, 140563, Note_off_c, 0, 70, 67
1, 140574, Control_c, 0, 64, 76
1, 140580, Note_on_c, 0, 69, 63
1, 140595, Control_c, 0, 64, 83
1, 140612, Control_c, 0, 64, 96
1, 140622, Note_off_c, 0, 69, 61
1, 140630, Control_c, 0, 64, 113
1, 140650, Control_c, 0, 64, 127
1, 140656, Note_on_c, 0, 70, 68
1, 140703, Note_on_c, 0, 69, 70
1, 140711, Note_off_c, 0, 70, 61
1, 140754, Note_off_c, 0, 60, 63
1, 140796, Note_off_c, 0, 53, 42
1, 140797, Note_off_c, 0, 69, 62
1, 140840, Note_on_c, 0, 69, 45
1, 140986, Poly_aftertouch_c, 0, 65, 24
1, 141007, Note_on_c, 0, 67, 78
1, 141014, Control_c, 0, 64, 112
1, 141017, Note_on_c, 0, 52, 42
1, 141025, Note_on_c, 0, 61, 48
1, 141026, Note_off_c, 0, 65, 42
1, 141032, Control_c, 0, 64, 76
1, 141052, Control_c, 0, 64, 0
1, 141165, Control_c, 0, 64, 32
1, 141180, Control_c, 0, 64, 48
1, 141198, Control_c, 0, 64, 56
1, 141212, Note_off_c, 0, 69, 62
1, 141217, Control_c, 0, 64, 64
1, 141236, Control_c, 0, 64, 74
1, 141254, Control_c, 0, 64, 88
1, 141272, Control_c, 0, 64, 106
1, 141291, Control_c, 0, 64, 119
1, 141297, Note_off_c, 0, 52, 38
1, 141311, Control_c, 0, 64, 123
1, 141319, Note_off_c, 0, 61, 48
1, 141403, Control_c, 0, 64, 127
1, 141496, Note_on_c, 0, 52, 40
1, 141518, Note_on_c, 0, 61, 40
1, 141531, Note_on_c, 0, 65, 79
1, 141551, Note_off_c, 0, 67, 55
1, 141597, Note_off_c, 0, 52, 60
1, 141615, Note_off_c, 0, 61, 55
1, 141723, Note_off_c, 0, 65, 57
1, 142030, Note_on_c, 0, 53, 31
1, 142055, Note_on_c, 0, 57, 35
1, 142064, Note_on_c, 0, 50, 37
1, 142069, Note_on_c, 0, 62, 32
1, 142120, Note_on_c, 0, 77, 78
1, 142154, Note_on_c, 0, 81, 46
1, 142173, Control_c, 0, 64, 113
1, 142188, Control_c, 0, 64, 91
1, 142207, Control_c, 0, 64, 59
1, 142227, Control_c, 0, 64, 0
1, 142320, Control_c, 0, 64, 23
1, 142337, Control_c, 0, 64, 52
1, 142355, Control_c, 0, 64, 66
1, 142373, Control_c, 0, 64, 76
1, 142394, Control_c, 0, 64, 90
1, 142407, Note_off_c, 0, 62, 43
1, 142412, Control_c, 0, 64, 101
1, 142419, Note_off_c, 0, 50, 41
1, 142425, Note_off_c, 0, 57, 41
1, 142426, Control_c, 0, 64, 108
1, 142438, Note_off_c, 0, 81, 50
1, 142438, Note_off_c, 0, 53, 40
1, 142623, Note_on_c, 0, 53, 44
1, 142635, Note_on_c, 0, 50, 36
1, 142637, Note_on_c, 0, 81, 48
1, 142643, Note_on_c, 0, 57, 33
1, 142674, Note_on_c, 0, 62, 18
1, 142681, Note_off_c, 0, 77, 58
1, 142740, Note_off_c, 0, 62, 48
1, 142775, Note_off_c, 0, 57, 56
1, 142847, Note_off_c, 0, 53, 35
1, 142853, Note_off_c, 0, 50, 36
1, 142891, Note_on_c, 0, 77, 67
1, 142971, Note_off_c, 0, 81, 34
1, 142985, Note_off_c, 0, 77, 58
1, 143156, Note_on_c, 0, 48, 45
1, 143163, Note_on_c, 0, 76, 80
1, 143169, Note_on_c, 0, 57, 33
1, 143175, Note_on_c, 0, 50, 38
1, 143179, Control_c, 0, 64, 104
1, 143198, Control_c, 0, 64, 98
1, 143208, Note_on_c, 0, 77, 45
1, 143215, Control_c, 0, 64, 84
1, 143228, Note_on_c, 0, 81, 40
1, 143233, Control_c, 0, 64, 60
1, 143253, Control_c, 0, 64, 0
1, 143327, Control_c, 0, 64, 37
1, 143345, Control_c, 0, 64, 57
1, 143362, Control_c, 0, 64, 70
1, 143381, Control_c, 0, 64, 84
1, 143401, Control_c, 0, 64, 100
1, 143418, Control_c, 0, 64, 110
1, 143433, Note_off_c, 0, 57, 41
1, 143440, Note_off_c, 0, 50, 46
1, 143440, Note_off_c, 0, 48, 35
1, 143493, Control_c, 0, 64, 114
1, 143519, Note_off_c, 0, 77, 45
1, 143541, Note_off_c, 0, 81, 29
1, 143649, Note_off_c, 0, 76, 56
1, 143677, Note_on_c, 0, 48, 34
1, 143701, Note_on_c, 0, 50, 43
1, 143707, Note_on_c, 0, 57, 38
1, 143713, Note_on_c, 0, 74, 80
1, 143742, Note_on_c, 0, 81, 46
1, 143775, Note_off_c, 0, 50, 61
1, 143798, Note_off_c, 0, 48, 53
1, 143809, Note_off_c, 0, 57, 45
1, 143953, Note_on_c, 0, 77, 64
1, 143987, Note_off_c, 0, 74, 57
1, 144021, Note_off_c, 0, 81, 36
1, 144076, Note_off_c, 0, 77, 61
1, 144207, Note_on_c, 0, 57, 39
1, 144210, Note_on_c, 0, 50, 41
1, 144210, Note_on_c, 0, 46, 42
1, 144224, Control_c, 0, 64, 110
1, 144231, Note_on_c, 0, 74, 75
1, 144241, Control_c, 0, 64, 103
1, 144242, Note_on_c, 0, 77, 60
1, 144249, Note_on_c, 0, 81, 63
1, 144263, Control_c, 0, 64, 88
1, 144281, Control_c, 0, 64, 65
1, 144297, Control_c, 0, 64, 0
1, 144390, Control_c, 0, 64, 35
1, 144410, Control_c, 0, 64, 54
1, 144428, Control_c, 0, 64, 64
1, 144442, Note_off_c, 0, 77, 61
1, 144443, Note_off_c, 0, 57, 55
1, 144446, Control_c, 0, 64, 73
1, 144465, Control_c, 0, 64, 84
1, 144483, Control_c, 0, 64, 96
1, 144500, Control_c, 0, 64, 105
1, 144504, Note_off_c, 0, 46, 44
1, 144513, Note_off_c, 0, 81, 61
1, 144539, Note_off_c, 0, 50, 40
1, 144607, Control_c, 0, 64, 109
1, 144781, Note_on_c, 0, 46, 38
1, 144791, Control_c, 0, 64, 102
1, 144792, Note_on_c, 0, 82, 63
1, 144793, Note_on_c, 0, 79, 54
1, 144796, Note_on_c, 0, 55, 38
1, 144800, Note_on_c, 0, 50, 36
1, 144809, Control_c, 0, 64, 87
1, 144829, Control_c, 0, 64, 66
1, 144847, Control_c, 0, 64, 37
1, 144866, Control_c, 0, 64, 13
1, 144884, Control_c, 0, 64, 19
1, 144903, Control_c, 0, 64, 38
1, 144921, Control_c, 0, 64, 54
1, 144939, Control_c, 0, 64, 64
1, 144956, Control_c, 0, 64, 71
1, 144976, Control_c, 0, 64, 80
1, 144992, Control_c, 0, 64, 90
1, 145012, Control_c, 0, 64, 99
1, 145030, Control_c, 0, 64, 105
1, 145048, Note_off_c, 0, 82, 62
1, 145073, Note_off_c, 0, 50, 42
1, 145084, Note_off_c, 0, 79, 58
1, 145098, Note_off_c, 0, 55, 40
1, 145123, Control_c, 0, 64, 111
1, 145126, Note_off_c, 0, 46, 43
1, 145141, Control_c, 0, 64, 115
1, 145306, Control_c, 0, 64, 111
1, 145319, Note_on_c, 0, 79, 57
1, 145321, Note_on_c, 0, 55, 38
1, 145324, Note_on_c, 0, 50, 41
1, 145326, Control_c, 0, 64, 97
1, 145328, Note_on_c, 0, 82, 58
1, 145333, Note_on_c, 0, 45, 35
1, 145344, Control_c, 0, 64, 74
1, 145363, Control_c, 0, 64, 44
1, 145379, Control_c, 0, 64, 0
1, 145418, Control_c, 0, 64, 32
1, 145436, Control_c, 0, 64, 51
1, 145467, Control_c, 0, 64, 61
1, 145486, Control_c, 0, 64, 66
1, 145505, Control_c, 0, 64, 70
1, 145524, Control_c, 0, 64, 74
1, 145542, Control_c, 0, 64, 78
1, 145548, Note_off_c, 0, 55, 55
1, 145559, Control_c, 0, 64, 83
1, 145561, Note_off_c, 0, 74, 55
1, 145579, Control_c, 0, 64, 86
1, 145602, Note_off_c, 0, 45, 37
1, 145615, Control_c, 0, 64, 92
1, 145622, Note_off_c, 0, 50, 38
1, 145653, Control_c, 0, 64, 99
1, 145690, Control_c, 0, 64, 104
1, 145779, Control_c, 0, 64, 110
1, 145817, Control_c, 0, 64, 114
1, 145873, Note_on_c, 0, 45, 37
1, 145878, Note_on_c, 0, 53, 38
1, 145888, Note_on_c, 0, 50, 35
1, 145891, Note_on_c, 0, 77, 78
1, 145900, Note_on_c, 0, 86, 49
1, 145911, Control_c, 0, 64, 119
1, 145931, Note_off_c, 0, 82, 58
1, 145957, Note_off_c, 0, 45, 53
1, 145959, Note_off_c, 0, 79, 61
1, 145995, Note_off_c, 0, 86, 57
1, 146001, Note_off_c, 0, 53, 54
1, 146038, Control_c, 0, 64, 124
1, 146077, Note_off_c, 0, 77, 64
1, 146102, Note_off_c, 0, 50, 44
1, 146365, Note_on_c, 0, 46, 34
1, 146366, Note_on_c, 0, 43, 41
1, 146424, Note_on_c, 0, 55, 32
1, 146436, Note_on_c, 0, 76, 73
1, 146460, Control_c, 0, 64, 119
1, 146475, Note_on_c, 0, 70, 49
1, 146476, Control_c, 0, 64, 114
1, 146496, Control_c, 0, 64, 102
1, 146516, Control_c, 0, 64, 79
1, 146533, Control_c, 0, 64, 40
1, 146552, Control_c, 0, 64, 0
1, 146606, Control_c, 0, 64, 17
1, 146624, Control_c, 0, 64, 45
1, 146643, Control_c, 0, 64, 60
1, 146660, Control_c, 0, 64, 68
1, 146679, Note_off_c, 0, 55, 42
1, 146679, Control_c, 0, 64, 75
1, 146692, Note_off_c, 0, 43, 42
1, 146697, Control_c, 0, 64, 83
1, 146711, Note_off_c, 0, 46, 42
1, 146717, Control_c, 0, 64, 91
1, 146736, Control_c, 0, 64, 97
1, 146738, Note_off_c, 0, 70, 42
1, 146772, Control_c, 0, 64, 103
1, 146811, Control_c, 0, 64, 107
1, 146829, Control_c, 0, 64, 112
1, 146831, Note_off_c, 0, 76, 63
1, 146848, Control_c, 0, 64, 117
1, 146867, Control_c, 0, 64, 121
1, 146940, Note_on_c, 0, 46, 37
1, 146943, Note_on_c, 0, 77, 78
1, 146957, Control_c, 0, 64, 127
1, 146961, Note_on_c, 0, 70, 58
1, 146963, Note_on_c, 0, 43, 24
1, 146976, Note_on_c, 0, 55, 21
1, 146998, Note_off_c, 0, 70, 58
1, 147109, Note_off_c, 0, 55, 46
1, 147140, Note_off_c, 0, 43, 36
1, 147160, Note_off_c, 0, 77, 46
1, 147174, Note_off_c, 0, 46, 41
1, 147187, Note_on_c, 0, 79, 79
1, 147208, Note_on_c, 0, 67, 62
1, 147260, Note_off_c, 0, 79, 60
1, 147374, Note_off_c, 0, 67, 24
1, 147443, Note_on_c, 0, 46, 43
1, 147467, Note_on_c, 0, 55, 31
1, 147478, Note_on_c, 0, 76, 68
1, 147481, Note_on_c, 0, 70, 60
1, 147484, Note_on_c, 0, 43, 30
1, 147508, Control_c, 0, 64, 120
1, 147526, Control_c, 0, 64, 98
1, 147545, Control_c, 0, 64, 70
1, 147564, Control_c, 0, 64, 15
1, 147581, Control_c, 0, 64, 0
1, 147619, Control_c, 0, 64, 23
1, 147636, Control_c, 0, 64, 45
1, 147654, Control_c, 0, 64, 57
1, 147672, Control_c, 0, 64, 64
1, 147687, Note_off_c, 0, 46, 36
1, 147689, Control_c, 0, 64, 70
1, 147710, Control_c, 0, 64, 78
1, 147715, Note_off_c, 0, 55, 41
1, 147723, Note_off_c, 0, 43, 41
1, 147729, Control_c, 0, 64, 87
1, 147747, Control_c, 0, 64, 95
1, 147765, Control_c, 0, 64, 102
1, 147775, Note_off_c, 0, 70, 58
1, 147801, Note_off_c, 0, 76, 56
1, 147802, Control_c, 0, 64, 107
1, 147876, Control_c, 0, 64, 114
1, 147911, Control_c, 0, 64, 118
1, 147977, Note_on_c, 0, 46, 44
1, 147987, Note_on_c, 0, 43, 39
1, 147995, Note_on_c, 0, 55, 35
1, 147999, Note_on_c, 0, 74, 74
1, 148010, Note_on_c, 0, 70, 61
1, 148072, Note_off_c, 0, 55, 58
1, 148232, Note_on_c, 0, 67, 65
1, 148239, Note_off_c, 0, 74, 60
1, 148267, Note_off_c, 0, 43, 40
1, 148281, Note_off_c, 0, 70, 62
1, 148344, Note_off_c, 0, 67, 57
1, 148439, Note_off_c, 0, 46, 40
1, 148500, Note_on_c, 0, 52, 40
1, 148506, Note_on_c, 0, 45, 35
1, 148516, Note_on_c, 0, 73, 75
1, 148532, Note_on_c, 0, 67, 47
1, 148554, Control_c, 0, 64, 114
1, 148574, Control_c, 0, 64, 109
1, 148590, Control_c, 0, 64, 98
1, 148610, Control_c, 0, 64, 76
1, 148628, Control_c, 0, 64, 36
1, 148646, Control_c, 0, 64, 0
1, 148722, Control_c, 0, 64, 24
1, 148740, Control_c, 0, 64, 50
1, 148756, Control_c, 0, 64, 63
1, 148775, Control_c, 0, 64, 72
1, 148794, Control_c, 0, 64, 81
1, 148813, Control_c, 0, 64, 90
1, 148829, Control_c, 0, 64, 98
1, 148836, Note_off_c, 0, 45, 40
1, 148836, Note_off_c, 0, 52, 40
1, 148847, Control_c, 0, 64, 104
1, 148867, Control_c, 0, 64, 108
1, 148904, Control_c, 0, 64, 112
1, 148996, Control_c, 0, 64, 116
1, 149041, Note_on_c, 0, 45, 35
1, 149050, Note_on_c, 0, 76, 71
1, 149052, Note_on_c, 0, 52, 29
1, 149088, Control_c, 0, 64, 123
1, 149106, Control_c, 0, 64, 127
1, 149181, Note_off_c, 0, 67, 53
1, 149244, Note_off_c, 0, 73, 55
1, 149274, Note_off_c, 0, 45, 48
1, 149286, Note_off_c, 0, 76, 53
1, 149319, Note_off_c, 0, 52, 42
1, 149619, Note_on_c, 0, 43, 37
1, 149620, Note_on_c, 0, 52, 35
1, 149624, Note_on_c, 0, 71, 78
1, 149641, Note_on_c, 0, 49, 35
1, 149650, Note_on_c, 0, 73, 62
1, 149654, Note_on_c, 0, 76, 58
1, 149656, Control_c, 0, 64, 123
1, 149676, Control_c, 0, 64, 100
1, 149692, Control_c, 0, 64, 69
1, 149710, Control_c, 0, 64, 0
1, 149748, Control_c, 0, 64, 23
1, 149764, Control_c, 0, 64, 54
1, 149784, Control_c, 0, 64, 70
1, 149802, Control_c, 0, 64, 85
1, 149821, Control_c, 0, 64, 106
1, 149839, Control_c, 0, 64, 127
1, 149840, Note_off_c, 0, 43, 41
1, 149882, Note_off_c, 0, 52, 43
1, 149895, Note_off_c, 0, 49, 41
1, 149926, Note_off_c, 0, 76, 64
1, 149942, Note_off_c, 0, 73, 63
1, 149969, Note_off_c, 0, 71, 60
1, 150185, Note_on_c, 0, 69, 80
1, 150197, Note_on_c, 0, 52, 46
1, 150198, Note_on_c, 0, 43, 47
1, 150200, Note_on_c, 0, 81, 68
1, 150213, Note_on_c, 0, 49, 37
1, 150286, Note_off_c, 0, 52, 58
1, 150309, Note_off_c, 0, 49, 54
1, 150324, Note_off_c, 0, 43, 60
1, 150407, Note_off_c, 0, 69, 59
1, 150439, Note_off_c, 0, 81, 61
1, 150732, Note_on_c, 0, 42, 37
1, 150743, Note_on_c, 0, 50, 36
1, 150779, Note_on_c, 0, 72, 73
1, 150822, Note_on_c, 0, 81, 43
1, 150825, Note_on_c, 0, 75, 57
1, 150854, Control_c, 0, 64, 112
1, 150873, Control_c, 0, 64, 85
1, 150894, Control_c, 0, 64, 55
1, 150910, Control_c, 0, 64, 0
1, 150983, Control_c, 0, 64, 22
1, 151002, Control_c, 0, 64, 52
1, 151021, Control_c, 0, 64, 68
1, 151040, Control_c, 0, 64, 80
1, 151058, Control_c, 0, 64, 93
1, 151084, Note_off_c, 0, 50, 42
1, 151090, Control_c, 0, 64, 102
1, 151109, Note_off_c, 0, 42, 42
1, 151110, Control_c, 0, 64, 109
1, 151116, Note_off_c, 0, 75, 53
1, 151128, Control_c, 0, 64, 114
1, 151146, Control_c, 0, 64, 118
1, 151175, Note_off_c, 0, 81, 38
1, 151181, Control_c, 0, 64, 124
1, 151334, Note_on_c, 0, 81, 55
1, 151343, Note_on_c, 0, 42, 30
1, 151355, Note_on_c, 0, 75, 55
1, 151360, Note_on_c, 0, 50, 34
1, 151463, Note_off_c, 0, 75, 49
1, 151506, Note_off_c, 0, 81, 50
1, 151539, Note_off_c, 0, 42, 40
1, 151543, Note_off_c, 0, 50, 32
1, 151583, Note_on_c, 0, 78, 59
1, 151669, Note_off_c, 0, 78, 58
1, 151851, Note_on_c, 0, 81, 57
1, 151853, Note_on_c, 0, 38, 39
1, 151853, Note_on_c, 0, 78, 46
1, 151866, Note_on_c, 0, 50, 29
1, 151902, Control_c, 0, 64, 99
1, 151919, Control_c, 0, 64, 71
1, 151939, Control_c, 0, 64, 28
1, 151958, Control_c, 0, 64, 0
1, 151996, Control_c, 0, 64, 23
1, 152027, Control_c, 0, 64, 50
1, 152046, Control_c, 0, 64, 66
1, 152065, Control_c, 0, 64, 78
1, 152083, Control_c, 0, 64, 90
1, 152099, Control_c, 0, 64, 101
1, 152119, Control_c, 0, 64, 108
1, 152153, Note_off_c, 0, 78, 39
1, 152158, Note_off_c, 0, 38, 38
1, 152167, Note_off_c, 0, 50, 42
1, 152173, Control_c, 0, 64, 113
1, 152195, Note_off_c, 0, 81, 46
1, 152213, Control_c, 0, 64, 120
1, 152249, Control_c, 0, 64, 124
1, 152266, Control_c, 0, 67, 8
1, 152377, Note_on_c, 0, 81, 48
1, 152384, Note_on_c, 0, 50, 14
1, 152392, Note_on_c, 0, 38, 32
1, 152400, Note_on_c, 0, 78, 51
1, 152460, Note_off_c, 0, 78, 53
1, 152465, Note_off_c, 0, 72, 43
1, 152608, Note_off_c, 0, 81, 33
1, 152631, Note_on_c, 0, 78, 55
1, 152634, Note_on_c, 0, 74, 54
1, 152636, Note_off_c, 0, 38, 33
1, 152636, Note_off_c, 0, 50, 42
1, 152709, Note_off_c, 0, 78, 51
1, 152869, Note_on_c, 0, 78, 50
1, 152872, Note_on_c, 0, 81, 60
1, 152880, Control_c, 0, 64, 118
1, 152882, Note_on_c, 0, 43, 41
1, 152889, Note_on_c, 0, 50, 14
1, 152900, Control_c, 0, 64, 97
1, 152917, Control_c, 0, 64, 70
1, 152950, Control_c, 0, 64, 45
1, 152968, Control_c, 0, 64, 51
1, 152988, Control_c, 0, 64, 63
1, 153005, Control_c, 0, 64, 78
1, 153023, Control_c, 0, 64, 97
1, 153041, Control_c, 0, 64, 116
1, 153060, Control_c, 0, 64, 127
1, 153064, Note_off_c, 0, 81, 61
1, 153107, Note_off_c, 0, 78, 58
1, 153121, Note_off_c, 0, 43, 41
1, 153143, Note_off_c, 0, 50, 40
1, 153173, Note_off_c, 0, 74, 57
1, 153431, Note_on_c, 0, 43, 37
1, 153438, Note_on_c, 0, 82, 61
1, 153451, Note_on_c, 0, 79, 49
1, 153513, Note_on_c, 0, 50, 12
1, 153602, Note_off_c, 0, 82, 59
1, 153607, Note_off_c, 0, 50, 43
1, 153617, Note_off_c, 0, 79, 59
1, 153665, Note_off_c, 0, 43, 42
1, 153959, Control_c, 0, 64, 122
1, 153974, Note_on_c, 0, 41, 36
1, 153980, Note_on_c, 0, 70, 69
1, 153980, Control_c, 0, 64, 97
1, 153996, Note_on_c, 0, 82, 60
1, 153997, Control_c, 0, 64, 68
1, 154011, Note_on_c, 0, 79, 48
1, 154015, Control_c, 0, 64, 34
1, 154015, Note_on_c, 0, 50, 21
1, 154052, Control_c, 0, 64, 45
1, 154072, Control_c, 0, 64, 62
1, 154090, Control_c, 0, 64, 76
1, 154093, Note_off_c, 0, 79, 48
1, 154109, Control_c, 0, 64, 91
1, 154126, Control_c, 0, 64, 108
1, 154144, Control_c, 0, 64, 127
1, 154150, Note_off_c, 0, 70, 62
1, 154154, Note_off_c, 0, 82, 63
1, 154224, Note_off_c, 0, 41, 40
1, 154247, Note_off_c, 0, 50, 42
1, 154519, Note_on_c, 0, 72, 75
1, 154525, Note_on_c, 0, 86, 67
1, 154537, Note_on_c, 0, 41, 38
1, 154549, Note_on_c, 0, 50, 34
1, 154582, Note_off_c, 0, 86, 53
1, 154595, Note_off_c, 0, 72, 61
1, 154614, Note_off_c, 0, 50, 55
1, 154645, Note_off_c, 0, 41, 48
1, 154780, Note_on_c, 0, 69, 57
1, 154822, Note_off_c, 0, 69, 64
1, 155086, Note_on_c, 0, 79, 58
1, 155097, Note_on_c, 0, 70, 70
1, 155099, Note_on_c, 0, 84, 57
1, 155108, Note_on_c, 0, 40, 33
1, 155116, Note_on_c, 0, 48, 30
1, 155134, Control_c, 0, 64, 101
1, 155153, Control_c, 0, 64, 66
1, 155171, Control_c, 0, 64, 0
1, 155209, Control_c, 0, 64, 17
1, 155218, Poly_aftertouch_c, 0, 83, 0
1, 155227, Control_c, 0, 64, 52
1, 155246, Control_c, 0, 64, 67
1, 155264, Control_c, 0, 64, 76
1, 155281, Control_c, 0, 64, 86
1, 155301, Control_c, 0, 64, 94
1, 155318, Control_c, 0, 64, 102
1, 155338, Control_c, 0, 64, 109
1, 155352, Note_off_c, 0, 40, 33
1, 155353, Control_c, 0, 64, 114
1, 155361, Note_off_c, 0, 48, 38
1, 155382, Note_off_c, 0, 84, 43
1, 155390, Control_c, 0, 64, 119
1, 155430, Control_c, 0, 64, 126
1, 155432, Note_off_c, 0, 79, 33
1, 155438, Note_off_c, 0, 70, 56
1, 155609, Note_on_c, 0, 48, 19
1, 155619, Note_on_c, 0, 40, 31
1, 155622, Note_on_c, 0, 84, 49
1, 155629, Note_on_c, 0, 79, 56
1, 155650, Control_c, 0, 67, 12
1, 155694, Note_off_c, 0, 79, 52
1, 155771, Note_off_c, 0, 84, 60
1, 155781, Note_off_c, 0, 40, 49
1, 155803, Note_off_c, 0, 48, 36
1, 155894, Note_on_c, 0, 79, 57
1, 155904, Note_on_c, 0, 76, 55
1, 155946, Note_off_c, 0, 79, 60
1, 156004, Note_off_c, 0, 76, 57
1, 156132, Note_on_c, 0, 36, 41
1, 156154, Note_on_c, 0, 76, 58
1, 156161, Note_on_c, 0, 79, 54
1, 156190, Note_on_c, 0, 48, 17
1, 156352, Note_off_c, 0, 79, 61
1, 156367, Note_off_c, 0, 76, 60
1, 156375, Note_off_c, 0, 36, 40
1, 156400, Note_off_c, 0, 48, 41
1, 156668, Note_on_c, 0, 79, 56
1, 156696, Note_on_c, 0, 76, 47
1, 156708, Note_on_c, 0, 36, 30
1, 156725, Note_on_c, 0, 48, 11
1, 156768, Note_off_c, 0, 76, 60
1, 156854, Note_off_c, 0, 79, 52
1, 156915, Note_on_c, 0, 76, 51
1, 156942, Note_on_c, 0, 72, 49
1, 156955, Note_off_c, 0, 48, 40
1, 156974, Note_off_c, 0, 36, 40
1, 157001, Note_off_c, 0, 76, 63
1, 157188, Control_c, 0, 64, 115
1, 157197, Note_on_c, 0, 41, 41
1, 157204, Note_on_c, 0, 79, 50
1, 157208, Note_on_c, 0, 76, 41
1, 157208, Control_c, 0, 64, 87
1, 157225, Control_c, 0, 64, 52
1, 157239, Note_on_c, 0, 48, 22
1, 157242, Control_c, 0, 64, 0
1, 157316, Control_c, 0, 64, 39
1, 157334, Control_c, 0, 64, 59
1, 157355, Control_c, 0, 64, 70
1, 157372, Control_c, 0, 64, 81
1, 157391, Control_c, 0, 64, 93
1, 157398, Note_off_c, 0, 79, 62
1, 157405, Note_off_c, 0, 76, 58
1, 157408, Control_c, 0, 64, 104
1, 157428, Control_c, 0, 64, 112
1, 157459, Note_off_c, 0, 72, 39
1, 157475, Note_off_c, 0, 41, 41
1, 157495, Note_off_c, 0, 48, 38
1, 157500, Control_c, 0, 64, 116
1, 157536, Control_c, 0, 64, 121
1, 157644, Control_c, 0, 67, 8
1, 157754, Note_on_c, 0, 69, 60
1, 157757, Note_on_c, 0, 41, 38
1, 157771, Note_on_c, 0, 81, 48
1, 157787, Note_on_c, 0, 77, 47
1, 157788, Note_on_c, 0, 48, 35
1, 157858, Note_off_c, 0, 41, 61
1, 157900, Note_off_c, 0, 48, 55
1, 157946, Note_off_c, 0, 81, 51
1, 157976, Note_off_c, 0, 77, 57
1, 157998, Note_off_c, 0, 69, 56
1, 158291, Control_c, 0, 64, 116
1, 158301, Note_on_c, 0, 41, 37
1, 158308, Control_c, 0, 64, 93
1, 158312, Note_on_c, 0, 77, 51
1, 158313, Note_on_c, 0, 69, 58
1, 158316, Note_on_c, 0, 53, 29
1, 158324, Note_on_c, 0, 81, 48
1, 158326, Control_c, 0, 64, 57
1, 158343, Control_c, 0, 64, 0
1, 158417, Control_c, 0, 64, 21
1, 158436, Control_c, 0, 64, 50
1, 158454, Control_c, 0, 64, 64
1, 158472, Control_c, 0, 64, 73
1, 158490, Control_c, 0, 64, 82
1, 158509, Control_c, 0, 64, 93
1, 158519, Note_off_c, 0, 77, 62
1, 158525, Control_c, 0, 64, 103
1, 158531, Note_off_c, 0, 81, 62
1, 158535, Note_off_c, 0, 41, 45
1, 158559, Control_c, 0, 64, 111
1, 158560, Note_off_c, 0, 69, 56
1, 158579, Control_c, 0, 64, 116
1, 158587, Note_off_c, 0, 53, 41
1, 158598, Control_c, 0, 64, 121
1, 158617, Control_c, 0, 64, 126
1, 158892, Note_on_c, 0, 84, 44
1, 158898, Note_on_c, 0, 81, 42
1, 158915, Note_on_c, 0, 41, 30
1, 158923, Note_on_c, 0, 53, 20
1, 159014, Note_off_c, 0, 84, 59
1, 159019, Note_off_c, 0, 81, 56
1, 159071, Note_off_c, 0, 41, 36
1, 159095, Note_off_c, 0, 53, 42
1, 159131, Control_c, 0, 67, 12
1, 159204, Control_c, 0, 67, 16
1, 159241, Control_c, 0, 67, 20
1, 159297, Control_c, 0, 67, 28
1, 159333, Control_c, 0, 67, 33
1, 159390, Control_c, 0, 67, 38
1, 159514, Control_c, 0, 67, 42
1, 159552, Control_c, 0, 67, 46
1, 159606, Control_c, 0, 67, 50
1, 159639, Note_on_c, 0, 75, 59
1, 159644, Note_on_c, 0, 53, 23
1, 159644, Note_on_c, 0, 41, 32
1, 159656, Note_on_c, 0, 69, 39
1, 159658, Note_on_c, 0, 72, 39
1, 159679, Control_c, 0, 67, 54
1, 159717, Control_c, 0, 64, 108
1, 159719, Control_c, 0, 67, 58
1, 159734, Control_c, 0, 64, 84
1, 159754, Control_c, 0, 64, 52
1, 159756, Control_c, 0, 67, 62
1, 159773, Control_c, 0, 64, 0
1, 159790, Control_c, 0, 67, 67
1, 159826, Control_c, 0, 64, 35
1, 159827, Control_c, 0, 67, 71
1, 159846, Control_c, 0, 64, 54
1, 159864, Control_c, 0, 64, 64
1, 159883, Control_c, 0, 64, 70
1, 159902, Control_c, 0, 64, 76
1, 159904, Control_c, 0, 67, 75
1, 159920, Control_c, 0, 64, 84
1, 159939, Control_c, 0, 64, 93
1, 159956, Control_c, 0, 64, 100
1, 159957, Control_c, 0, 67, 79
1, 159960, Note_off_c, 0, 53, 39
1, 159975, Control_c, 0, 64, 107
1, 159981, Note_off_c, 0, 41, 41
1, 159993, Control_c, 0, 64, 111
1, 160010, Note_off_c, 0, 72, 37
1, 160010, Control_c, 0, 67, 83
1, 160023, Note_off_c, 0, 69, 39
1, 160029, Control_c, 0, 64, 118
1, 160047, Control_c, 0, 64, 124
1, 160211, Note_on_c, 0, 72, 47
1, 160214, Note_on_c, 0, 69, 37
1, 160246, Note_on_c, 0, 41, 24
1, 160270, Note_on_c, 0, 53, 9
1, 160340, Note_off_c, 0, 69, 52
1, 160353, Note_off_c, 0, 72, 50
1, 160432, Note_off_c, 0, 53, 36
1, 160457, Note_on_c, 0, 69, 46
1, 160467, Note_off_c, 0, 41, 44
1, 160475, Note_on_c, 0, 65, 30
1, 160551, Note_off_c, 0, 69, 54
1, 160605, Note_off_c, 0, 65, 29
1, 160736, Note_on_c, 0, 41, 23
1, 160744, Note_on_c, 0, 72, 45
1, 160752, Note_on_c, 0, 69, 40
1, 160757, Note_on_c, 0, 53, 6
1, 160886, Note_off_c, 0, 53, 38
1, 160905, Note_off_c, 0, 41, 35
1, 160919, Note_off_c, 0, 69, 50
1, 160924, Note_off_c, 0, 72, 52
1, 161253, Note_on_c, 0, 41, 28
1, 161254, Note_on_c, 0, 69, 47
1, 161270, Note_on_c, 0, 53, 19
1, 161273, Note_on_c, 0, 72, 46
1, 161329, Note_off_c, 0, 69, 55
1, 161411, Note_off_c, 0, 72, 53
1, 161500, Note_off_c, 0, 41, 39
1, 161507, Note_on_c, 0, 69, 59
1, 161510, Note_off_c, 0, 53, 39
1, 161533, Note_on_c, 0, 65, 33
1, 161574, Note_off_c, 0, 65, 48
1, 161600, Note_off_c, 0, 69, 60
1, 161768, Note_on_c, 0, 72, 53
1, 161773, Note_on_c, 0, 46, 38
1, 161786, Note_on_c, 0, 53, 30
1, 161787, Note_on_c, 0, 69, 33
1, 161810, Control_c, 0, 64, 120
1, 161829, Control_c, 0, 64, 93
1, 161849, Control_c, 0, 64, 67
1, 161867, Control_c, 0, 64, 35
1, 161884, Control_c, 0, 64, 23
1, 161922, Control_c, 0, 64, 35
1, 161940, Control_c, 0, 64, 49
1, 161957, Control_c, 0, 64, 60
1, 161977, Control_c, 0, 64, 67
1, 161993, Control_c, 0, 64, 73
1, 162013, Control_c, 0, 64, 79
1, 162030, Control_c, 0, 64, 85
1, 162049, Control_c, 0, 64, 92
1, 162051, Note_off_c, 0, 46, 40
1, 162069, Control_c, 0, 64, 100
1, 162086, Control_c, 0, 64, 111
1, 162106, Control_c, 0, 64, 124
1, 162138, Note_off_c, 0, 72, 60
1, 162148, Note_off_c, 0, 53, 42
1, 162155, Note_off_c, 0, 69, 42
1, 162319, Note_on_c, 0, 74, 64
1, 162320, Note_off_c, 0, 75, 58
1, 162323, Note_on_c, 0, 70, 50
1, 162343, Control_c, 0, 64, 119
1, 162343, Note_on_c, 0, 53, 29
1, 162344, Note_on_c, 0, 46, 37
1, 162360, Control_c, 0, 64, 102
1, 162379, Control_c, 0, 64, 85
1, 162395, Control_c, 0, 64, 75
1, 162433, Control_c, 0, 64, 83
1, 162452, Control_c, 0, 64, 92
1, 162469, Control_c, 0, 64, 102
1, 162487, Control_c, 0, 64, 108
1, 162498, Note_off_c, 0, 70, 63
1, 162554, Note_off_c, 0, 74, 64
1, 162561, Control_c, 0, 64, 112
1, 162571, Note_off_c, 0, 53, 41
1, 162574, Note_off_c, 0, 46, 42
1, 162581, Control_c, 0, 67, 79
1, 162800, Control_c, 0, 64, 107
1, 162809, Note_on_c, 0, 46, 39
1, 162812, Note_on_c, 0, 53, 38
1, 162818, Control_c, 0, 64, 97
1, 162834, Note_on_c, 0, 74, 68
1, 162837, Control_c, 0, 64, 75
1, 162856, Note_on_c, 0, 70, 48
1, 162856, Control_c, 0, 64, 35
1, 162874, Control_c, 0, 64, 0
1, 163004, Control_c, 0, 64, 47
1, 163022, Control_c, 0, 64, 59
1, 163041, Control_c, 0, 64, 63
1, 163059, Control_c, 0, 64, 70
1, 163077, Control_c, 0, 64, 79
1, 163095, Control_c, 0, 64, 94
1, 163114, Control_c, 0, 64, 111
1, 163115, Control_c, 0, 67, 75
1, 163125, Note_off_c, 0, 74, 60
1, 163132, Control_c, 0, 64, 126
1, 163133, Note_off_c, 0, 46, 40
1, 163151, Control_c, 0, 67, 71
1, 163186, Control_c, 0, 67, 67
1, 163218, Note_off_c, 0, 70, 62
1, 163223, Control_c, 0, 67, 62
1, 163295, Control_c, 0, 67, 57
1, 163377, Note_on_c, 0, 77, 69
1, 163383, Note_on_c, 0, 74, 52
1, 163387, Control_c, 0, 64, 102
1, 163388, Note_on_c, 0, 50, 45
1, 163394, Note_on_c, 0, 46, 37
1, 163403, Control_c, 0, 64, 75
1, 163417, Note_off_c, 0, 53, 45
1, 163421, Control_c, 0, 64, 51
1, 163441, Control_c, 0, 64, 48
1, 163460, Control_c, 0, 64, 59
1, 163461, Control_c, 0, 67, 53
1, 163479, Control_c, 0, 64, 73
1, 163497, Control_c, 0, 64, 91
1, 163499, Control_c, 0, 67, 49
1, 163516, Control_c, 0, 64, 112
1, 163534, Control_c, 0, 64, 127
1, 163534, Control_c, 0, 67, 40
1, 163551, Control_c, 0, 67, 32
1, 163554, Note_off_c, 0, 74, 50
1, 163570, Control_c, 0, 67, 23
1, 163588, Control_c, 0, 67, 17
1, 163607, Control_c, 0, 67, 13
1, 163625, Control_c, 0, 67, 9
1, 163625, Note_on_c, 0, 76, 72
1, 163635, Note_off_c, 0, 77, 53
1, 163664, Control_c, 0, 67, 0
1, 163672, Note_off_c, 0, 46, 42
1, 163745, Note_off_c, 0, 76, 61
1, 163888, Note_on_c, 0, 43, 39
1, 163890, Note_on_c, 0, 55, 37
1, 163907, Note_on_c, 0, 77, 69
1, 163910, Note_off_c, 0, 50, 37
1, 163914, Note_on_c, 0, 71, 55
1, 163918, Note_on_c, 0, 74, 52
1, 163921, Control_c, 0, 64, 121
1, 163941, Control_c, 0, 64, 104
1, 163958, Control_c, 0, 64, 77
1, 163977, Control_c, 0, 64, 36
1, 163995, Control_c, 0, 64, 0
1, 164088, Control_c, 0, 64, 32
1, 164104, Control_c, 0, 64, 55
1, 164124, Control_c, 0, 64, 67
1, 164143, Control_c, 0, 64, 74
1, 164156, Control_c, 0, 64, 82
1, 164176, Note_off_c, 0, 74, 48
1, 164188, Control_c, 0, 64, 87
1, 164195, Note_off_c, 0, 71, 50
1, 164197, Note_off_c, 0, 43, 41
1, 164207, Control_c, 0, 64, 93
1, 164208, Note_off_c, 0, 55, 40
1, 164226, Control_c, 0, 64, 99
1, 164245, Control_c, 0, 64, 106
1, 164261, Control_c, 0, 64, 111
1, 164281, Control_c, 0, 64, 116
1, 164299, Control_c, 0, 64, 121
1, 164317, Control_c, 0, 64, 126
1, 164447, Note_on_c, 0, 74, 59
1, 164462, Note_on_c, 0, 71, 55
1, 164468, Note_on_c, 0, 43, 36
1, 164473, Note_on_c, 0, 55, 28
1, 164482, Control_c, 0, 64, 115
1, 164500, Control_c, 0, 64, 86
1, 164521, Control_c, 0, 64, 59
1, 164537, Control_c, 0, 64, 48
1, 164556, Control_c, 0, 64, 55
1, 164560, Note_off_c, 0, 71, 57
1, 164574, Control_c, 0, 64, 66
1, 164592, Control_c, 0, 64, 78
1, 164611, Control_c, 0, 64, 90
1, 164629, Control_c, 0, 64, 99
1, 164649, Control_c, 0, 64, 106
1, 164658, Note_off_c, 0, 74, 40
1, 164679, Note_on_c, 0, 71, 58
1, 164684, Control_c, 0, 64, 113
1, 164697, Note_on_c, 0, 67, 47
1, 164704, Note_off_c, 0, 43, 42
1, 164705, Control_c, 0, 64, 117
1, 164722, Control_c, 0, 64, 122
1, 164726, Note_off_c, 0, 55, 40
1, 164740, Control_c, 0, 64, 127
1, 164752, Note_off_c, 0, 67, 52
1, 164768, Note_off_c, 0, 71, 57
1, 164925, Control_c, 0, 64, 110
1, 164943, Control_c, 0, 64, 84
1, 164943, Note_on_c, 0, 74, 60
1, 164946, Note_on_c, 0, 71, 52
1, 164951, Note_on_c, 0, 43, 39
1, 164956, Note_on_c, 0, 55, 22
1, 164961, Control_c, 0, 64, 51
1, 164982, Control_c, 0, 64, 0
1, 165019, Control_c, 0, 64, 21
1, 165036, Control_c, 0, 64, 51
1, 165054, Control_c, 0, 64, 65
1, 165073, Control_c, 0, 64, 74
1, 165092, Control_c, 0, 64, 82
1, 165126, Control_c, 0, 64, 90
1, 165144, Control_c, 0, 64, 98
1, 165163, Control_c, 0, 64, 106
1, 165181, Control_c, 0, 64, 111
1, 165183, Note_off_c, 0, 43, 44
1, 165184, Note_off_c, 0, 71, 57
1, 165187, Note_off_c, 0, 74, 58
1, 165199, Note_off_c, 0, 55, 42
1, 165216, Control_c, 0, 64, 115
1, 165254, Control_c, 0, 64, 123
1, 165271, Control_c, 0, 64, 127
1, 165457, Control_c, 0, 64, 118
1, 165467, Note_on_c, 0, 43, 45
1, 165468, Note_on_c, 0, 71, 61
1, 165475, Control_c, 0, 64, 97
1, 165480, Note_on_c, 0, 55, 36
1, 165494, Control_c, 0, 64, 80
1, 165497, Note_on_c, 0, 74, 54
1, 165512, Control_c, 0, 64, 74
1, 165531, Control_c, 0, 64, 78
1, 165549, Control_c, 0, 64, 88
1, 165568, Control_c, 0, 64, 102
1, 165588, Control_c, 0, 64, 116
1, 165594, Note_off_c, 0, 74, 61
1, 165606, Control_c, 0, 64, 125
1, 165608, Note_off_c, 0, 71, 50
1, 165698, Note_on_c, 0, 71, 51
1, 165744, Note_on_c, 0, 67, 26
1, 165751, Note_off_c, 0, 55, 40
1, 165775, Note_off_c, 0, 71, 59
1, 165793, Note_off_c, 0, 67, 51
1, 165801, Note_off_c, 0, 43, 37
1, 165963, Note_on_c, 0, 48, 40
1, 165973, Control_c, 0, 64, 119
1, 165977, Note_on_c, 0, 74, 61
1, 165987, Note_on_c, 0, 71, 40
1, 165989, Note_on_c, 0, 55, 23
1, 165992, Control_c, 0, 64, 89
1, 166011, Control_c, 0, 64, 54
1, 166030, Control_c, 0, 64, 0
1, 166101, Control_c, 0, 64, 27
1, 166120, Control_c, 0, 64, 52
1, 166136, Control_c, 0, 64, 64
1, 166156, Control_c, 0, 64, 72
1, 166174, Control_c, 0, 64, 80
1, 166190, Note_off_c, 0, 71, 54
1, 166192, Control_c, 0, 64, 90
1, 166205, Note_off_c, 0, 74, 63
1, 166211, Control_c, 0, 64, 102
1, 166230, Control_c, 0, 64, 113
1, 166248, Control_c, 0, 64, 120
1, 166267, Control_c, 0, 64, 124
1, 166272, Note_off_c, 0, 48, 37
1, 166281, Note_off_c, 0, 55, 41
1, 166361, Note_off_c, 0, 77, 38
1, 166513, Note_on_c, 0, 76, 73
1, 166519, Note_on_c, 0, 48, 45
1, 166522, Note_on_c, 0, 55, 34
1, 166522, Note_on_c, 0, 72, 56
1, 166563, Control_c, 0, 64, 101
1, 166582, Control_c, 0, 64, 80
1, 166599, Control_c, 0, 64, 67
1, 166617, Control_c, 0, 64, 65
1, 166637, Control_c, 0, 64, 71
1, 166655, Control_c, 0, 64, 82
1, 166672, Control_c, 0, 64, 97
1, 166689, Control_c, 0, 64, 111
1, 166709, Control_c, 0, 64, 118
1, 166737, Note_off_c, 0, 72, 57
1, 166739, Note_off_c, 0, 76, 64
1, 166741, Note_off_c, 0, 48, 54
1, 166764, Control_c, 0, 64, 123
1, 166767, Note_off_c, 0, 55, 41
1, 166821, Control_c, 0, 64, 127
1, 167033, Note_on_c, 0, 48, 39
1, 167054, Note_on_c, 0, 76, 74
1, 167061, Note_on_c, 0, 55, 27
1, 167069, Note_on_c, 0, 72, 52
1, 167129, Control_c, 0, 64, 95
1, 167146, Control_c, 0, 64, 39
1, 167164, Control_c, 0, 64, 0
1, 167221, Control_c, 0, 64, 18
1, 167240, Control_c, 0, 64, 48
1, 167257, Control_c, 0, 64, 62
1, 167277, Control_c, 0, 64, 72
1, 167296, Control_c, 0, 64, 84
1, 167313, Control_c, 0, 64, 103
1, 167332, Control_c, 0, 64, 118
1, 167351, Control_c, 0, 64, 125
1, 167367, Note_off_c, 0, 48, 41
1, 167412, Note_off_c, 0, 55, 39
1, 167413, Note_off_c, 0, 76, 62
1, 167578, Note_on_c, 0, 79, 76
1, 167585, Note_on_c, 0, 48, 44
1, 167591, Note_on_c, 0, 76, 58
1, 167606, Note_on_c, 0, 55, 29
1, 167765, Note_off_c, 0, 48, 57
1, 167791, Note_off_c, 0, 55, 36
1, 167794, Note_off_c, 0, 76, 60
1, 167800, Note_off_c, 0, 72, 38
1, 167816, Note_off_c, 0, 79, 57
1, 168127, Note_on_c, 0, 48, 36
1, 168135, Note_on_c, 0, 46, 40
1, 168160, Note_on_c, 0, 55, 35
1, 168179, Note_on_c, 0, 76, 80
1, 168187, Note_on_c, 0, 79, 67
1, 168247, Control_c, 0, 64, 114
1, 168267, Control_c, 0, 64, 86
1, 168285, Control_c, 0, 64, 53
1, 168304, Control_c, 0, 64, 0
1, 168357, Control_c, 0, 64, 17
1, 168377, Control_c, 0, 64, 44
1, 168395, Control_c, 0, 64, 61
1, 168414, Control_c, 0, 64, 72
1, 168432, Control_c, 0, 64, 84
1, 168434, Note_off_c, 0, 79, 57
1, 168452, Control_c, 0, 64, 96
1, 168455, Note_off_c, 0, 55, 41
1, 168459, Note_off_c, 0, 48, 47
1, 168468, Note_off_c, 0, 46, 42
1, 168469, Control_c, 0, 64, 106
1, 168487, Control_c, 0, 64, 112
1, 168559, Control_c, 0, 64, 117
1, 168598, Control_c, 0, 64, 122
1, 168691, Control_c, 0, 64, 127
1, 168715, Note_on_c, 0, 46, 35
1, 168720, Note_on_c, 0, 79, 57
1, 168746, Note_on_c, 0, 55, 32
1, 168761, Note_on_c, 0, 48, 23
1, 168940, Note_off_c, 0, 55, 36
1, 168954, Note_off_c, 0, 76, 59
1, 168984, Note_off_c, 0, 79, 62
1, 168985, Note_on_c, 0, 72, 58
1, 169021, Note_off_c, 0, 48, 34
1, 169042, Note_off_c, 0, 46, 41
1, 169058, Note_off_c, 0, 72, 46
1, 169262, Note_on_c, 0, 48, 39
1, 169271, Note_on_c, 0, 74, 77
1, 169288, Note_on_c, 0, 45, 38
1, 169294, Note_on_c, 0, 53, 37
1, 169298, Note_on_c, 0, 77, 58
1, 169306, Note_on_c, 0, 81, 47
1, 169350, Control_c, 0, 64, 116
1, 169370, Control_c, 0, 64, 90
1, 169389, Control_c, 0, 64, 60
1, 169405, Control_c, 0, 64, 0
1, 169442, Control_c, 0, 64, 24
1, 169461, Control_c, 0, 64, 49
1, 169479, Control_c, 0, 64, 64
1, 169496, Control_c, 0, 64, 74
1, 169515, Control_c, 0, 64, 84
1, 169534, Control_c, 0, 64, 93
1, 169541, Note_off_c, 0, 81, 36
1, 169552, Control_c, 0, 64, 100
1, 169563, Note_off_c, 0, 45, 37
1, 169571, Control_c, 0, 64, 104
1, 169574, Note_off_c, 0, 53, 41
1, 169577, Note_off_c, 0, 77, 57
1, 169586, Note_off_c, 0, 48, 41
1, 169609, Control_c, 0, 64, 108
1, 169662, Control_c, 0, 64, 113
1, 169700, Control_c, 0, 64, 119
1, 169773, Control_c, 0, 64, 123
1, 169806, Control_c, 0, 64, 127
1, 169832, Note_on_c, 0, 72, 80
1, 169833, Note_on_c, 0, 48, 36
1, 169835, Note_on_c, 0, 53, 35
1, 169837, Note_on_c, 0, 45, 41
1, 169858, Note_on_c, 0, 81, 58
1, 169885, Note_off_c, 0, 74, 27
1, 169927, Note_off_c, 0, 53, 55
1, 169932, Note_off_c, 0, 45, 48
1, 169971, Note_off_c, 0, 48, 50
1, 170063, Note_off_c, 0, 81, 58
1, 170088, Note_on_c, 0, 77, 60
1, 170090, Note_off_c, 0, 72, 56
1, 170163, Note_off_c, 0, 77, 64
1, 170366, Note_on_c, 0, 43, 36
1, 170379, Note_on_c, 0, 70, 70
1, 170384, Note_on_c, 0, 82, 68
1, 170386, Note_on_c, 0, 52, 31
1, 170398, Note_on_c, 0, 48, 29
1, 170414, Note_on_c, 0, 76, 42
1, 170415, Control_c, 0, 64, 115
1, 170432, Control_c, 0, 64, 86
1, 170452, Control_c, 0, 64, 52
1, 170471, Control_c, 0, 64, 0
1, 170527, Control_c, 0, 64, 35
1, 170545, Control_c, 0, 64, 58
1, 170564, Control_c, 0, 64, 70
1, 170580, Control_c, 0, 64, 83
1, 170600, Control_c, 0, 64, 96
1, 170603, Note_off_c, 0, 82, 58
1, 170619, Control_c, 0, 64, 107
1, 170632, Note_off_c, 0, 43, 41
1, 170636, Control_c, 0, 64, 115
1, 170672, Control_c, 0, 64, 120
1, 170677, Note_off_c, 0, 52, 41
1, 170688, Note_off_c, 0, 48, 36
1, 170689, Note_off_c, 0, 70, 65
1, 170767, Note_off_c, 0, 76, 42
1, 170920, Note_on_c, 0, 52, 25
1, 170923, Note_on_c, 0, 48, 20
1, 170927, Note_on_c, 0, 43, 32
1, 170938, Note_on_c, 0, 84, 56
1, 170942, Note_on_c, 0, 79, 48
1, 170965, Control_c, 0, 64, 124
1, 171048, Note_off_c, 0, 84, 61
1, 171078, Note_off_c, 0, 79, 63
1, 171116, Note_off_c, 0, 43, 41
1, 171126, Note_off_c, 0, 48, 42
1, 171128, Note_off_c, 0, 52, 41
1, 171472, Note_on_c, 0, 43, 33
1, 171482, Note_on_c, 0, 52, 29
1, 171486, Note_on_c, 0, 48, 30
1, 171492, Note_on_c, 0, 69, 74
1, 171496, Note_on_c, 0, 82, 58
1, 171505, Note_on_c, 0, 76, 55
1, 171554, Control_c, 0, 64, 111
1, 171572, Control_c, 0, 64, 87
1, 171589, Control_c, 0, 64, 62
1, 171608, Control_c, 0, 64, 31
1, 171645, Control_c, 0, 64, 44
1, 171678, Control_c, 0, 64, 59
1, 171698, Control_c, 0, 64, 70
1, 171717, Control_c, 0, 64, 81
1, 171735, Control_c, 0, 64, 91
1, 171751, Control_c, 0, 64, 100
1, 171772, Control_c, 0, 64, 106
1, 171789, Control_c, 0, 64, 111
1, 171792, Poly_aftertouch_c, 0, 48, 24
1, 171807, Control_c, 0, 64, 115
1, 171816, Note_off_c, 0, 43, 41
1, 171836, Note_off_c, 0, 48, 39
1, 171836, Control_c, 0, 64, 120
1, 171852, Note_off_c, 0, 69, 60
1, 171872, Note_off_c, 0, 52, 41
1, 171873, Note_off_c, 0, 76, 34
1, 172097, Note_on_c, 0, 52, 30
1, 172105, Note_on_c, 0, 43, 33
1, 172132, Note_on_c, 0, 48, 24
1, 172133, Note_on_c, 0, 76, 59
1, 172133, Note_on_c, 0, 70, 70
1, 172151, Control_c, 0, 64, 124
1, 172209, Note_off_c, 0, 82, 34
1, 172317, Note_off_c, 0, 70, 63
1, 172350, Note_off_c, 0, 76, 63
1, 172372, Note_off_c, 0, 48, 38
1, 172384, Note_off_c, 0, 52, 44
1, 172389, Note_off_c, 0, 43, 37
1, 172448, Note_on_c, 0, 67, 78
1, 172583, Note_off_c, 0, 67, 60
1, 172703, Note_on_c, 0, 45, 38
1, 172739, Note_on_c, 0, 53, 16
1, 172740, Note_on_c, 0, 48, 22
1, 172772, Note_on_c, 0, 72, 70
1, 172790, Note_on_c, 0, 65, 43
1, 172849, Control_c, 0, 64, 116
1, 172867, Control_c, 0, 64, 100
1, 172886, Control_c, 0, 64, 76
1, 172904, Control_c, 0, 64, 44
1, 172922, Control_c, 0, 64, 0
1, 172979, Control_c, 0, 64, 19
1, 172995, Control_c, 0, 64, 47
1, 173013, Control_c, 0, 64, 63
1, 173031, Control_c, 0, 64, 74
1, 173050, Control_c, 0, 64, 84
1, 173067, Control_c, 0, 64, 94
1, 173084, Note_on_c, 0, 70, 77
1, 173086, Control_c, 0, 64, 102
1, 173095, Note_off_c, 0, 48, 41
1, 173100, Note_off_c, 0, 53, 40
1, 173104, Control_c, 0, 64, 108
1, 173110, Note_off_c, 0, 45, 40
1, 173135, Note_off_c, 0, 72, 62
1, 173143, Control_c, 0, 64, 113
1, 173235, Control_c, 0, 64, 117
1, 173324, Control_c, 0, 64, 110
1, 173332, Note_on_c, 0, 45, 28
1, 173338, Note_on_c, 0, 53, 37
1, 173342, Control_c, 0, 64, 98
1, 173344, Note_on_c, 0, 48, 38
1, 173347, Note_on_c, 0, 69, 74
1, 173363, Control_c, 0, 64, 82
1, 173381, Control_c, 0, 64, 71
1, 173385, Note_off_c, 0, 70, 63
1, 173419, Control_c, 0, 64, 76
1, 173438, Control_c, 0, 64, 85
1, 173453, Control_c, 0, 64, 97
1, 173474, Control_c, 0, 64, 105
1, 173506, Note_off_c, 0, 65, 42
1, 173521, Note_off_c, 0, 45, 36
1, 173563, Control_c, 0, 64, 110
1, 173569, Note_off_c, 0, 48, 36
1, 173601, Note_on_c, 0, 70, 80
1, 173636, Note_off_c, 0, 69, 61
1, 173636, Control_c, 0, 64, 114
1, 173655, Note_off_c, 0, 53, 41
1, 173853, Note_off_c, 0, 70, 62
1, 173866, Note_on_c, 0, 72, 68
1, 173874, Note_on_c, 0, 53, 38
1, 173875, Control_c, 0, 64, 104
1, 173877, Note_on_c, 0, 46, 32
1, 173881, Note_on_c, 0, 50, 32
1, 173894, Note_on_c, 0, 65, 36
1, 173894, Control_c, 0, 64, 88
1, 173912, Control_c, 0, 64, 66
1, 173930, Control_c, 0, 64, 37
1, 173948, Control_c, 0, 64, 21
1, 173985, Control_c, 0, 64, 30
1, 174003, Control_c, 0, 64, 46
1, 174021, Control_c, 0, 64, 62
1, 174039, Control_c, 0, 64, 73
1, 174059, Control_c, 0, 64, 84
1, 174078, Control_c, 0, 64, 94
1, 174096, Control_c, 0, 64, 100
1, 174114, Control_c, 0, 64, 104
1, 174117, Note_off_c, 0, 50, 41
1, 174133, Note_off_c, 0, 72, 60
1, 174134, Control_c, 0, 64, 108
1, 174142, Note_on_c, 0, 70, 73
1, 174152, Control_c, 0, 64, 112
1, 174156, Note_off_c, 0, 46, 42
1, 174175, Note_off_c, 0, 53, 43
1, 174189, Control_c, 0, 64, 116
1, 174375, Control_c, 0, 64, 111
1, 174388, Note_on_c, 0, 46, 28
1, 174391, Note_off_c, 0, 70, 62
1, 174392, Control_c, 0, 64, 98
1, 174395, Note_on_c, 0, 72, 70
1, 174398, Note_on_c, 0, 50, 32
1, 174405, Note_on_c, 0, 53, 26
1, 174411, Control_c, 0, 64, 76
1, 174429, Control_c, 0, 64, 54
1, 174447, Control_c, 0, 64, 43
1, 174481, Control_c, 0, 64, 49
1, 174501, Control_c, 0, 64, 59
1, 174518, Control_c, 0, 64, 70
1, 174537, Control_c, 0, 64, 83
1, 174556, Control_c, 0, 64, 96
1, 174573, Control_c, 0, 64, 108
1, 174592, Control_c, 0, 64, 115
1, 174628, Control_c, 0, 64, 119
1, 174680, Note_on_c, 0, 74, 68
1, 174721, Control_c, 0, 64, 124
1, 174729, Note_off_c, 0, 65, 43
1, 174730, Note_off_c, 0, 72, 61
1, 174809, Note_off_c, 0, 74, 63
1, 174838, Note_off_c, 0, 46, 42
1, 174913, Note_off_c, 0, 50, 42
1, 174986, Note_on_c, 0, 48, 40
1, 175014, Note_on_c, 0, 69, 56
1, 175042, Note_on_c, 0, 60, 34
1, 175047, Note_on_c, 0, 65, 35
1, 175089, Control_c, 0, 64, 119
1, 175105, Control_c, 0, 64, 110
1, 175107, Note_off_c, 0, 53, 39
1, 175124, Control_c, 0, 64, 92
1, 175143, Control_c, 0, 64, 68
1, 175161, Control_c, 0, 64, 30
1, 175180, Control_c, 0, 64, 0
1, 175236, Control_c, 0, 64, 9
1, 175253, Control_c, 0, 64, 43
1, 175271, Control_c, 0, 64, 62
1, 175291, Control_c, 0, 64, 73
1, 175309, Control_c, 0, 64, 82
1, 175326, Control_c, 0, 64, 90
1, 175345, Control_c, 0, 64, 97
1, 175361, Note_off_c, 0, 48, 40
1, 175364, Control_c, 0, 64, 107
1, 175382, Note_off_c, 0, 65, 52
1, 175383, Control_c, 0, 64, 116
1, 175393, Note_off_c, 0, 60, 42
1, 175413, Control_c, 0, 64, 121
1, 175527, Control_c, 0, 67, 8
1, 175568, Note_on_c, 0, 65, 50
1, 175569, Note_on_c, 0, 48, 31
1, 175571, Note_on_c, 0, 60, 38
1, 175599, Control_c, 0, 67, 13
1, 175653, Control_c, 0, 67, 17
1, 175710, Control_c, 0, 67, 22
1, 175742, Note_off_c, 0, 65, 47
1, 175765, Control_c, 0, 67, 27
1, 175776, Note_off_c, 0, 60, 46
1, 175801, Note_off_c, 0, 48, 0
1, 175801, Control_c, 0, 67, 32
1, 175838, Control_c, 0, 67, 39
1, 175858, Control_c, 0, 67, 43
1, 175893, Control_c, 0, 67, 49
1, 175930, Control_c, 0, 67, 54
1, 175985, Control_c, 0, 67, 58
1, 176150, Control_c, 0, 64, 117
1, 176172, Note_on_c, 0, 36, 29
1, 176173, Note_on_c, 0, 58, 44
1, 176173, Note_on_c, 0, 67, 62
1, 176190, Control_c, 0, 64, 113
1, 176193, Note_on_c, 0, 64, 39
1, 176206, Control_c, 0, 64, 106
1, 176216, Note_off_c, 0, 69, 62
1, 176224, Control_c, 0, 64, 88
1, 176244, Control_c, 0, 64, 60
1, 176261, Control_c, 0, 64, 0
1, 176367, Control_c, 0, 64, 42
1, 176387, Control_c, 0, 64, 60
1, 176405, Control_c, 0, 64, 71
1, 176424, Control_c, 0, 64, 81
1, 176442, Control_c, 0, 64, 90
1, 176462, Control_c, 0, 64, 98
1, 176480, Control_c, 0, 64, 106
1, 176498, Control_c, 0, 64, 113
1, 176505, Note_off_c, 0, 36, 36
1, 176516, Control_c, 0, 64, 120
1, 176534, Control_c, 0, 64, 125
1, 176556, Note_off_c, 0, 64, 47
1, 176633, Note_off_c, 0, 58, 59
1, 176853, Note_on_c, 0, 65, 58
1, 176882, Note_on_c, 0, 36, 26
1, 176884, Note_off_c, 0, 67, 52
1, 177002, Note_off_c, 0, 36, 39
1, 177040, Poly_aftertouch_c, 0, 48, 24
1, 177086, Poly_aftertouch_c, 0, 48, 0
1, 177136, Note_off_c, 0, 65, 51
1, 177498, Note_on_c, 0, 41, 20
1, 177500, Note_on_c, 0, 65, 52
1, 177512, Note_on_c, 0, 53, 21
1, 177515, Note_on_c, 0, 57, 38
1, 177530, Note_on_c, 0, 60, 33
1, 177579, Control_c, 0, 64, 115
1, 177596, Control_c, 0, 64, 101
1, 177615, Control_c, 0, 64, 81
1, 177634, Control_c, 0, 64, 50
1, 177651, Control_c, 0, 64, 0
1, 177653, Control_c, 0, 67, 66
1, 177668, Control_c, 0, 67, 70
1, 177798, Control_c, 0, 64, 24
1, 177816, Control_c, 0, 64, 52
1, 177836, Control_c, 0, 64, 65
1, 177837, Control_c, 0, 67, 65
1, 177853, Control_c, 0, 64, 74
1, 177873, Control_c, 0, 64, 86
1, 177892, Control_c, 0, 64, 97
1, 177893, Note_off_c, 0, 53, 41
1, 177893, Control_c, 0, 67, 60
1, 177908, Control_c, 0, 64, 107
1, 177926, Control_c, 0, 64, 113
1, 177945, Control_c, 0, 64, 121
1, 177947, Control_c, 0, 67, 56
1, 177964, Control_c, 0, 64, 127
1, 177981, Control_c, 0, 67, 51
1, 178018, Control_c, 0, 67, 45
1, 178056, Control_c, 0, 67, 38
1, 178092, Control_c, 0, 67, 33
1, 178124, Note_on_c, 0, 53, 30
1, 178130, Control_c, 0, 64, 117
1, 178147, Control_c, 0, 64, 97
1, 178168, Control_c, 0, 64, 75
1, 178170, Control_c, 0, 67, 29
1, 178186, Control_c, 0, 64, 60
1, 178235, Control_c, 0, 64, 66
1, 178254, Control_c, 0, 64, 74
1, 178274, Control_c, 0, 64, 83
1, 178276, Control_c, 0, 67, 24
1, 178292, Control_c, 0, 64, 92
1, 178310, Control_c, 0, 64, 99
1, 178311, Control_c, 0, 67, 19
1, 178329, Control_c, 0, 64, 107
1, 178332, Control_c, 0, 67, 14
1, 178335, Note_off_c, 0, 53, 42
1, 178348, Control_c, 0, 64, 112
1, 178366, Control_c, 0, 67, 9
1, 178382, Control_c, 0, 64, 117
1, 178421, Control_c, 0, 64, 124
1, 178715, Note_on_c, 0, 53, 31
1, 178752, Control_c, 0, 64, 120
1, 178929, Note_off_c, 0, 53, 37
1, 179100, Control_c, 0, 67, 14
1, 179139, Control_c, 0, 67, 19
1, 179170, Control_c, 0, 67, 23
1, 179188, Control_c, 0, 67, 28
1, 179226, Control_c, 0, 67, 33
1, 179405, Note_on_c, 0, 53, 27
1, 179465, Control_c, 0, 67, 38
1, 179504, Control_c, 0, 67, 45
1, 179516, Control_c, 0, 67, 51
1, 179536, Control_c, 0, 64, 115
1, 179538, Control_c, 0, 67, 57
1, 179553, Control_c, 0, 64, 108
1, 179554, Control_c, 0, 67, 63
1, 179571, Control_c, 0, 64, 94
1, 179572, Control_c, 0, 67, 68
1, 179589, Control_c, 0, 64, 77
1, 179592, Control_c, 0, 67, 73
1, 179608, Control_c, 0, 64, 65
1, 179611, Control_c, 0, 67, 79
1, 179625, Control_c, 0, 64, 63
1, 179627, Control_c, 0, 67, 86
1, 179644, Control_c, 0, 64, 66
1, 179645, Control_c, 0, 67, 92
1, 179647, Note_off_c, 0, 53, 42
1, 179662, Control_c, 0, 64, 70
1, 179663, Control_c, 0, 67, 98
1, 179681, Control_c, 0, 64, 75
1, 179683, Control_c, 0, 67, 104
1, 179701, Control_c, 0, 64, 82
1, 179702, Control_c, 0, 67, 110
1, 179719, Control_c, 0, 64, 91
1, 179720, Control_c, 0, 67, 118
1, 179728, Note_off_c, 0, 57, 40
1, 179737, Control_c, 0, 64, 101
1, 179738, Control_c, 0, 67, 124
1, 179743, Note_off_c, 0, 60, 40
1, 179756, Control_c, 0, 64, 109
1, 179791, Poly_aftertouch_c, 0, 41, 24
1, 179791, Control_c, 0, 64, 113
1, 179826, Note_off_c, 0, 41, 43
1, 179827, Control_c, 0, 64, 118
1, 179847, Note_off_c, 0, 65, 54
1, 179901, Control_c, 0, 64, 124
1, 180725, Note_on_c, 0, 70, 41
1, 180735, Note_on_c, 0, 46, 23
1, 180736, Note_on_c, 0, 62, 35
1, 180740, Note_on_c, 0, 65, 35
1, 180747, Note_on_c, 0, 34, 19
1, 180818, Control_c, 0, 64, 112
1, 180836, Control_c, 0, 64, 96
1, 180856, Control_c, 0, 64, 74
1, 180874, Control_c, 0, 64, 42
1, 180893, Control_c, 0, 64, 0
1, 181003, Control_c, 0, 64, 26
1, 181035, Control_c, 0, 64, 46
1, 181053, Control_c, 0, 64, 57
1, 181072, Control_c, 0, 64, 65
1, 181091, Control_c, 0, 64, 72
1, 181109, Control_c, 0, 64, 81
1, 181128, Control_c, 0, 64, 92
1, 181147, Control_c, 0, 64, 101
1, 181166, Control_c, 0, 64, 108
1, 181170, Note_off_c, 0, 34, 40
1, 181182, Control_c, 0, 64, 112
1, 181202, Control_c, 0, 64, 117
1, 181220, Control_c, 0, 64, 121
1, 181238, Control_c, 0, 64, 127
1, 181295, Note_off_c, 0, 46, 40
1, 181449, Note_off_c, 0, 65, 37
1, 181570, Note_off_c, 0, 62, 40
1, 181715, Note_on_c, 0, 58, 32
1, 181978, Note_off_c, 0, 70, 58
1, 181995, Note_off_c, 0, 58, 42
1, 182481, Note_on_c, 0, 62, 29
1, 182483, Note_on_c, 0, 58, 23
1, 182508, Note_on_c, 0, 65, 20
1, 182540, Note_on_c, 0, 74, 50
1, 182582, Note_on_c, 0, 70, 20
1, 182686, Note_off_c, 0, 70, 0
1, 182740, Note_off_c, 0, 58, 38
1, 182759, Note_off_c, 0, 65, 41
1, 182763, Note_off_c, 0, 62, 44
1, 183085, Note_on_c, 0, 58, 26
1, 183093, Note_on_c, 0, 62, 28
1, 183098, Note_on_c, 0, 65, 28
1, 183113, Note_on_c, 0, 72, 57
1, 183182, Note_off_c, 0, 74, 61
1, 183265, Note_off_c, 0, 62, 49
1, 183273, Note_off_c, 0, 65, 52
1, 183294, Note_off_c, 0, 58, 35
1, 183364, Poly_aftertouch_c, 0, 70, 0
1, 183401, Note_off_c, 0, 72, 62
1, 183617, Note_on_c, 0, 63, 32
1, 183628, Note_on_c, 0, 67, 27
1, 183630, Note_on_c, 0, 58, 26
1, 183647, Note_on_c, 0, 72, 56
1, 183661, Control_c, 0, 64, 118
1, 183680, Control_c, 0, 64, 106
1, 183691, Note_on_c, 0, 70, 30
1, 183698, Control_c, 0, 64, 85
1, 183718, Control_c, 0, 64, 58
1, 183737, Control_c, 0, 64, 0
1, 183765, Note_off_c, 0, 70, 0
1, 183810, Control_c, 0, 64, 26
1, 183841, Control_c, 0, 64, 43
1, 183860, Control_c, 0, 64, 55
1, 183878, Control_c, 0, 64, 62
1, 183898, Control_c, 0, 64, 68
1, 183917, Control_c, 0, 64, 78
1, 183935, Control_c, 0, 64, 91
1, 183954, Control_c, 0, 64, 105
1, 183961, Note_off_c, 0, 58, 40
1, 183972, Note_off_c, 0, 63, 41
1, 183972, Control_c, 0, 64, 118
1, 183973, Note_off_c, 0, 67, 42
1, 183989, Control_c, 0, 64, 127
1, 183990, Poly_aftertouch_c, 0, 70, 0
1, 184170, Note_on_c, 0, 63, 24
1, 184176, Note_on_c, 0, 58, 28
1, 184194, Note_on_c, 0, 70, 30
1, 184206, Note_on_c, 0, 67, 25
1, 184210, Control_c, 0, 64, 121
1, 184228, Control_c, 0, 64, 103
1, 184247, Control_c, 0, 64, 83
1, 184266, Control_c, 0, 64, 68
1, 184284, Control_c, 0, 64, 63
1, 184302, Control_c, 0, 64, 68
1, 184321, Control_c, 0, 64, 74
1, 184338, Control_c, 0, 64, 82
1, 184357, Control_c, 0, 64, 88
1, 184376, Control_c, 0, 64, 94
1, 184395, Control_c, 0, 64, 98
1, 184414, Control_c, 0, 64, 103
1, 184415, Control_c, 0, 67, 120
1, 184426, Note_off_c, 0, 58, 34
1, 184429, Note_off_c, 0, 67, 41
1, 184433, Note_off_c, 0, 70, 40
1, 184433, Note_off_c, 0, 63, 36
1, 184433, Control_c, 0, 64, 108
1, 184433, Control_c, 0, 67, 115
1, 184448, Control_c, 0, 64, 114
1, 184449, Control_c, 0, 67, 106
1, 184469, Control_c, 0, 64, 120
1, 184470, Control_c, 0, 67, 93
1, 184487, Control_c, 0, 64, 124
1, 184488, Control_c, 0, 67, 76
1, 184505, Control_c, 0, 67, 56
1, 184525, Control_c, 0, 67, 44
1, 184726, Note_on_c, 0, 63, 31
1, 184731, Note_on_c, 0, 58, 29
1, 184733, Note_on_c, 0, 70, 30
1, 184772, Note_on_c, 0, 67, 19
1, 184913, Note_off_c, 0, 70, 45
1, 184930, Note_off_c, 0, 72, 62
1, 184942, Control_c, 0, 67, 40
1, 184967, Note_off_c, 0, 63, 33
1, 184974, Note_off_c, 0, 58, 36
1, 184979, Note_off_c, 0, 67, 38
1, 185272, Note_on_c, 0, 63, 28
1, 185273, Note_on_c, 0, 58, 28
1, 185276, Note_on_c, 0, 74, 61
1, 185312, Note_on_c, 0, 70, 31
1, 185318, Note_on_c, 0, 67, 20
1, 185407, Note_off_c, 0, 67, 49
1, 185427, Note_off_c, 0, 70, 0
1, 185428, Note_on_c, 0, 70, 6
1, 185455, Control_c, 0, 67, 44
1, 185492, Control_c, 0, 67, 50
1, 185509, Control_c, 0, 67, 55
1, 185528, Control_c, 0, 67, 61
1, 185543, Note_off_c, 0, 74, 63
1, 185548, Note_off_c, 0, 70, 46
1, 185549, Control_c, 0, 67, 66
1, 185574, Note_off_c, 0, 58, 36
1, 185604, Note_off_c, 0, 63, 41
1, 185621, Control_c, 0, 67, 70
1, 185639, Control_c, 0, 67, 74
1, 185657, Control_c, 0, 67, 83
1, 185676, Control_c, 0, 67, 92
1, 185708, Control_c, 0, 67, 97
1, 185744, Control_c, 0, 67, 102
1, 185782, Control_c, 0, 67, 106
1, 185826, Note_on_c, 0, 60, 29
1, 185839, Note_on_c, 0, 57, 29
1, 185866, Note_on_c, 0, 65, 27
1, 185874, Note_on_c, 0, 75, 62
1, 185902, Note_on_c, 0, 72, 35
1, 185911, Control_c, 0, 67, 110
1, 185931, Control_c, 0, 64, 114
1, 185947, Control_c, 0, 64, 98
1, 185966, Control_c, 0, 64, 76
1, 185985, Control_c, 0, 64, 50
1, 186003, Control_c, 0, 64, 19
1, 186040, Control_c, 0, 64, 31
1, 186059, Control_c, 0, 64, 44
1, 186078, Control_c, 0, 64, 52
1, 186095, Control_c, 0, 64, 59
1, 186113, Control_c, 0, 64, 63
1, 186133, Control_c, 0, 64, 68
1, 186151, Control_c, 0, 64, 75
1, 186168, Control_c, 0, 64, 83
1, 186175, Note_off_c, 0, 65, 42
1, 186177, Note_off_c, 0, 57, 41
1, 186189, Control_c, 0, 64, 90
1, 186190, Note_off_c, 0, 60, 40
1, 186196, Note_off_c, 0, 72, 39
1, 186205, Control_c, 0, 64, 97
1, 186225, Control_c, 0, 64, 103
1, 186242, Control_c, 0, 64, 108
1, 186262, Control_c, 0, 64, 112
1, 186334, Control_c, 0, 64, 117
1, 186371, Control_c, 0, 64, 123
1, 186433, Note_on_c, 0, 60, 21
1, 186440, Note_on_c, 0, 57, 29
1, 186450, Note_on_c, 0, 72, 39
1, 186463, Control_c, 0, 64, 127
1, 186472, Note_on_c, 0, 65, 15
1, 186686, Note_off_c, 0, 72, 42
1, 186686, Note_off_c, 0, 57, 37
1, 186696, Note_off_c, 0, 60, 30
1, 186720, Note_off_c, 0, 65, 36
1, 187001, Note_on_c, 0, 57, 23
1, 187010, Note_on_c, 0, 60, 15
1, 187013, Note_on_c, 0, 65, 15
1, 187019, Note_on_c, 0, 79, 56
1, 187026, Note_off_c, 0, 75, 58
1, 187041, Note_on_c, 0, 72, 25
1, 187167, Note_off_c, 0, 72, 30
1, 187206, Note_off_c, 0, 60, 43
1, 187220, Note_off_c, 0, 65, 40
1, 187231, Note_off_c, 0, 57, 39
1, 187439, Note_off_c, 0, 79, 33
1, 187522, Note_on_c, 0, 60, 27
1, 187551, Note_on_c, 0, 57, 17
1, 187575, Note_on_c, 0, 77, 63
1, 187593, Note_on_c, 0, 65, 18
1, 187614, Note_on_c, 0, 72, 29
1, 187710, Note_off_c, 0, 72, 39
1, 187727, Note_off_c, 0, 57, 37
1, 187737, Note_off_c, 0, 60, 43
1, 187754, Note_off_c, 0, 65, 38
1, 187760, Note_off_c, 0, 77, 61
1, 188020, Note_on_c, 0, 58, 31
1, 188022, Note_on_c, 0, 62, 29
1, 188047, Note_on_c, 0, 65, 15
1, 188070, Note_on_c, 0, 75, 55
1, 188074, Control_c, 0, 64, 111
1, 188094, Control_c, 0, 64, 86
1, 188112, Control_c, 0, 64, 58
1, 188169, Control_c, 0, 64, 30
1, 188178, Poly_aftertouch_c, 0, 70, 127
1, 188185, Control_c, 0, 64, 49
1, 188204, Control_c, 0, 64, 59
1, 188222, Control_c, 0, 64, 64
1, 188242, Control_c, 0, 64, 67
1, 188246, Poly_aftertouch_c, 0, 70, 0
1, 188260, Control_c, 0, 64, 72
1, 188277, Control_c, 0, 64, 80
1, 188284, Note_off_c, 0, 75, 61
1, 188296, Control_c, 0, 64, 88
1, 188315, Control_c, 0, 64, 94
1, 188316, Note_on_c, 0, 74, 50
1, 188338, Note_off_c, 0, 65, 42
1, 188352, Note_off_c, 0, 62, 45
1, 188354, Note_off_c, 0, 58, 40
1, 188370, Control_c, 0, 64, 99
1, 188399, Note_off_c, 0, 74, 53
1, 188407, Control_c, 0, 64, 105
1, 188433, Note_on_c, 0, 75, 54
1, 188444, Control_c, 0, 64, 109
1, 188476, Note_off_c, 0, 75, 65
1, 188532, Control_c, 0, 64, 115
1, 188535, Note_on_c, 0, 58, 35
1, 188535, Note_on_c, 0, 74, 53
1, 188536, Note_on_c, 0, 62, 31
1, 188559, Note_on_c, 0, 65, 17
1, 188568, Control_c, 0, 64, 120
1, 188574, Note_off_c, 0, 74, 61
1, 188602, Note_on_c, 0, 75, 56
1, 188643, Control_c, 0, 64, 124
1, 188659, Note_off_c, 0, 75, 54
1, 188679, Note_on_c, 0, 74, 48
1, 188711, Note_off_c, 0, 74, 59
1, 188728, Note_off_c, 0, 65, 40
1, 188733, Note_off_c, 0, 62, 37
1, 188744, Note_off_c, 0, 58, 35
1, 188751, Poly_aftertouch_c, 0, 75, 0
1, 188804, Note_on_c, 0, 74, 55
1, 188994, Note_off_c, 0, 74, 62
1, 189031, Note_on_c, 0, 72, 59
1, 189047, Control_c, 0, 64, 114
1, 189047, Note_on_c, 0, 62, 31
1, 189048, Note_on_c, 0, 58, 30
1, 189064, Control_c, 0, 64, 94
1, 189084, Control_c, 0, 64, 69
1, 189103, Control_c, 0, 64, 38
1, 189106, Note_on_c, 0, 65, 11
1, 189121, Control_c, 0, 64, 30
1, 189140, Control_c, 0, 64, 40
1, 189159, Control_c, 0, 64, 55
1, 189178, Control_c, 0, 64, 65
1, 189196, Control_c, 0, 64, 71
1, 189212, Control_c, 0, 64, 75
1, 189232, Control_c, 0, 64, 80
1, 189250, Control_c, 0, 64, 87
1, 189269, Control_c, 0, 64, 94
1, 189287, Control_c, 0, 64, 99
1, 189303, Note_off_c, 0, 62, 41
1, 189318, Note_off_c, 0, 65, 39
1, 189335, Note_off_c, 0, 58, 37
1, 189337, Note_off_c, 0, 72, 55
1, 189360, Control_c, 0, 64, 106
1, 189380, Control_c, 0, 64, 113
1, 189399, Control_c, 0, 64, 119
1, 189504, Control_c, 0, 64, 124
1, 189563, Note_on_c, 0, 58, 29
1, 189567, Note_on_c, 0, 70, 60
1, 189596, Note_on_c, 0, 62, 36
1, 189682, Note_off_c, 0, 62, 59
1, 189762, Note_off_c, 0, 58, 48
1, 189870, Note_off_c, 0, 70, 34
1, 190109, Note_on_c, 0, 46, 32
1, 190140, Note_on_c, 0, 58, 13
1, 190156, Note_on_c, 0, 74, 56
1, 190173, Note_on_c, 0, 67, 46
1, 190180, Note_on_c, 0, 62, 33
1, 190185, Control_c, 0, 64, 118
1, 190203, Control_c, 0, 64, 107
1, 190221, Control_c, 0, 64, 89
1, 190239, Control_c, 0, 64, 68
1, 190259, Control_c, 0, 64, 43
1, 190276, Control_c, 0, 64, 28
1, 190314, Control_c, 0, 64, 32
1, 190333, Control_c, 0, 64, 43
1, 190351, Control_c, 0, 64, 56
1, 190383, Control_c, 0, 64, 65
1, 190385, Control_c, 0, 67, 106
1, 190401, Control_c, 0, 64, 72
1, 190417, Note_off_c, 0, 58, 40
1, 190419, Control_c, 0, 64, 81
1, 190437, Note_off_c, 0, 46, 42
1, 190439, Control_c, 0, 64, 91
1, 190453, Note_off_c, 0, 74, 59
1, 190458, Control_c, 0, 64, 99
1, 190477, Control_c, 0, 64, 104
1, 190496, Note_off_c, 0, 62, 44
1, 190515, Control_c, 0, 67, 101
1, 190532, Control_c, 0, 64, 108
1, 190550, Control_c, 0, 67, 97
1, 190554, Note_off_c, 0, 67, 42
1, 190587, Control_c, 0, 64, 112
1, 190605, Control_c, 0, 67, 91
1, 190641, Control_c, 0, 67, 85
1, 190692, Note_on_c, 0, 70, 66
1, 190696, Control_c, 0, 67, 81
1, 190701, Note_on_c, 0, 67, 41
1, 190710, Note_on_c, 0, 46, 27
1, 190722, Note_on_c, 0, 58, 15
1, 190736, Note_on_c, 0, 62, 39
1, 190751, Control_c, 0, 67, 76
1, 190771, Control_c, 0, 64, 116
1, 190845, Control_c, 0, 67, 72
1, 190880, Control_c, 0, 67, 68
1, 190896, Note_off_c, 0, 58, 37
1, 190896, Note_off_c, 0, 46, 39
1, 190919, Note_off_c, 0, 67, 58
1, 190958, Note_off_c, 0, 62, 41
1, 190971, Note_off_c, 0, 70, 38
1, 191141, Poly_aftertouch_c, 0, 50, 127
1, 191212, Control_c, 0, 64, 112
1, 191217, Note_on_c, 0, 46, 31
1, 191227, Poly_aftertouch_c, 0, 50, 0
1, 191230, Note_on_c, 0, 69, 58
1, 191244, Note_on_c, 0, 65, 46
1, 191248, Note_on_c, 0, 58, 19
1, 191267, Note_on_c, 0, 62, 32
1, 191286, Control_c, 0, 64, 104
1, 191304, Control_c, 0, 64, 89
1, 191337, Control_c, 0, 64, 69
1, 191356, Control_c, 0, 64, 44
1, 191374, Control_c, 0, 64, 32
1, 191393, Control_c, 0, 64, 36
1, 191409, Control_c, 0, 64, 47
1, 191430, Control_c, 0, 64, 56
1, 191447, Control_c, 0, 64, 62
1, 191466, Control_c, 0, 64, 67
1, 191485, Control_c, 0, 64, 73
1, 191504, Control_c, 0, 64, 80
1, 191522, Control_c, 0, 64, 88
1, 191540, Control_c, 0, 64, 93
1, 191558, Control_c, 0, 67, 64
1, 191565, Note_off_c, 0, 58, 38
1, 191577, Note_off_c, 0, 62, 44
1, 191578, Note_off_c, 0, 46, 43
1, 191585, Note_off_c, 0, 65, 57
1, 191593, Control_c, 0, 67, 56
1, 191620, Note_off_c, 0, 69, 49
1, 191632, Control_c, 0, 64, 97
1, 191724, Control_c, 0, 67, 52
1, 191790, Note_on_c, 0, 67, 61
1, 191815, Note_on_c, 0, 62, 35
1, 191825, Note_on_c, 0, 65, 45
1, 191827, Note_on_c, 0, 58, 34
1, 191830, Note_on_c, 0, 46, 38
1, 191836, Control_c, 0, 64, 93
1, 191856, Control_c, 0, 64, 89
1, 191871, Control_c, 0, 64, 82
1, 191891, Control_c, 0, 64, 78
1, 191900, Note_off_c, 0, 46, 53
1, 191923, Note_off_c, 0, 58, 53
1, 191927, Control_c, 0, 64, 80
1, 191946, Control_c, 0, 64, 83
1, 191965, Control_c, 0, 64, 85
1, 191997, Note_off_c, 0, 62, 38
1, 191999, Note_off_c, 0, 65, 63
1, 192002, Control_c, 0, 64, 87
1, 192039, Note_off_c, 0, 67, 59
1, 192111, Control_c, 0, 64, 92
1, 192318, Note_on_c, 0, 46, 29
1, 192325, Note_on_c, 0, 55, 24
1, 192368, Note_on_c, 0, 72, 62
1, 192390, Note_on_c, 0, 64, 36
1, 192394, Note_on_c, 0, 60, 25
1, 192421, Control_c, 0, 64, 86
1, 192441, Control_c, 0, 64, 75
1, 192459, Control_c, 0, 64, 59
1, 192477, Control_c, 0, 64, 38
1, 192495, Control_c, 0, 64, 30
1, 192531, Control_c, 0, 64, 44
1, 192550, Control_c, 0, 64, 55
1, 192567, Control_c, 0, 64, 62
1, 192586, Control_c, 0, 64, 67
1, 192605, Control_c, 0, 64, 72
1, 192623, Control_c, 0, 64, 78
1, 192629, Note_off_c, 0, 55, 43
1, 192631, Note_off_c, 0, 46, 41
1, 192642, Control_c, 0, 64, 86
1, 192643, Note_off_c, 0, 60, 40
1, 192660, Control_c, 0, 64, 94
1, 192679, Control_c, 0, 64, 98
1, 192692, Note_off_c, 0, 64, 40
1, 192751, Control_c, 0, 64, 106
1, 192771, Control_c, 0, 64, 112
1, 192790, Control_c, 0, 64, 118
1, 192806, Control_c, 0, 67, 48
1, 192909, Note_on_c, 0, 64, 37
1, 192919, Control_c, 0, 64, 114
1, 192932, Note_on_c, 0, 46, 31
1, 192938, Control_c, 0, 64, 105
1, 192942, Note_on_c, 0, 55, 29
1, 192945, Note_on_c, 0, 60, 27
1, 192954, Control_c, 0, 64, 92
1, 192973, Control_c, 0, 64, 77
1, 192992, Control_c, 0, 64, 66
1, 193010, Control_c, 0, 64, 64
1, 193027, Control_c, 0, 64, 67
1, 193045, Control_c, 0, 64, 72
1, 193065, Control_c, 0, 64, 80
1, 193084, Control_c, 0, 64, 88
1, 193102, Control_c, 0, 64, 94
1, 193121, Control_c, 0, 64, 99
1, 193125, Note_off_c, 0, 46, 32
1, 193132, Note_off_c, 0, 55, 34
1, 193137, Note_off_c, 0, 60, 41
1, 193157, Note_off_c, 0, 64, 43
1, 193158, Control_c, 0, 64, 103
1, 193281, Control_c, 0, 64, 108
1, 193465, Control_c, 0, 64, 104
1, 193485, Control_c, 0, 64, 99
1, 193500, Note_on_c, 0, 65, 40
1, 193504, Control_c, 0, 64, 85
1, 193507, Note_on_c, 0, 57, 26
1, 193508, Note_on_c, 0, 45, 32
1, 193511, Note_on_c, 0, 60, 31
1, 193524, Control_c, 0, 64, 66
1, 193541, Control_c, 0, 64, 44
1, 193560, Control_c, 0, 64, 33
1, 193596, Control_c, 0, 64, 44
1, 193614, Control_c, 0, 64, 55
1, 193633, Control_c, 0, 64, 64
1, 193652, Control_c, 0, 64, 70
1, 193669, Control_c, 0, 64, 77
1, 193690, Control_c, 0, 64, 84
1, 193697, Note_off_c, 0, 57, 41
1, 193706, Control_c, 0, 64, 90
1, 193724, Control_c, 0, 64, 94
1, 193725, Note_off_c, 0, 72, 40
1, 193759, Control_c, 0, 64, 98
1, 193772, Note_off_c, 0, 65, 55
1, 193791, Note_off_c, 0, 45, 40
1, 193834, Control_c, 0, 64, 103
1, 193836, Note_off_c, 0, 60, 40
1, 193962, Control_c, 0, 64, 108
1, 194052, Note_on_c, 0, 65, 47
1, 194055, Note_on_c, 0, 46, 41
1, 194064, Note_on_c, 0, 74, 61
1, 194092, Note_on_c, 0, 55, 15
1, 194250, Note_off_c, 0, 74, 64
1, 194291, Note_off_c, 0, 65, 62
1, 194545, Note_off_c, 0, 46, 43
1, 194587, Control_c, 0, 64, 104
1, 194632, Note_on_c, 0, 69, 60
1, 194635, Note_on_c, 0, 48, 30
1, 194640, Control_c, 0, 64, 96
1, 194648, Note_on_c, 0, 65, 37
1, 194659, Control_c, 0, 64, 89
1, 194663, Note_on_c, 0, 60, 33
1, 194677, Control_c, 0, 64, 74
1, 194695, Control_c, 0, 64, 52
1, 194713, Control_c, 0, 64, 0
1, 194752, Note_off_c, 0, 65, 0
1, 194752, Note_on_c, 0, 65, 10
1, 194770, Note_off_c, 0, 55, 42
1, 194788, Control_c, 0, 64, 23
1, 194808, Control_c, 0, 64, 47
1, 194824, Control_c, 0, 64, 60
1, 194843, Control_c, 0, 64, 68
1, 194861, Control_c, 0, 64, 75
1, 194881, Control_c, 0, 64, 80
1, 194899, Control_c, 0, 64, 86
1, 194906, Note_off_c, 0, 48, 39
1, 194915, Control_c, 0, 64, 90
1, 194918, Note_off_c, 0, 60, 42
1, 194953, Control_c, 0, 64, 95
1, 194962, Note_off_c, 0, 65, 43
1, 194990, Control_c, 0, 64, 100
1, 195028, Control_c, 0, 64, 104
1, 195196, Note_on_c, 0, 65, 46
1, 195201, Note_on_c, 0, 48, 32
1, 195207, Note_on_c, 0, 60, 35
1, 195267, Note_off_c, 0, 48, 49
1, 195373, Note_off_c, 0, 65, 60
1, 195404, Note_off_c, 0, 60, 43
1, 195656, Note_off_c, 0, 69, 20
1, 195740, Note_on_c, 0, 58, 40
1, 195750, Note_on_c, 0, 64, 44
1, 195751, Note_on_c, 0, 67, 55
1, 195766, Note_on_c, 0, 48, 24
1, 195777, Control_c, 0, 64, 100
1, 195777, Note_on_c, 0, 60, 23
1, 195795, Control_c, 0, 64, 90
1, 195815, Control_c, 0, 64, 74
1, 195833, Control_c, 0, 64, 55
1, 195849, Control_c, 0, 64, 36
1, 195906, Control_c, 0, 64, 45
1, 195924, Control_c, 0, 64, 55
1, 195944, Control_c, 0, 64, 64
1, 195962, Control_c, 0, 64, 70
1, 195982, Control_c, 0, 64, 76
1, 196012, Control_c, 0, 64, 82
1, 196032, Control_c, 0, 64, 85
1, 196058, Note_off_c, 0, 48, 39
1, 196066, Note_off_c, 0, 58, 41
1, 196068, Control_c, 0, 64, 92
1, 196106, Control_c, 0, 64, 97
1, 196195, Note_off_c, 0, 64, 53
1, 196312, Note_on_c, 0, 58, 35
1, 196317, Note_on_c, 0, 65, 62
1, 196321, Note_on_c, 0, 48, 39
1, 196326, Control_c, 0, 64, 101
1, 196381, Note_off_c, 0, 67, 37
1, 196538, Note_off_c, 0, 48, 40
1, 196566, Control_c, 0, 64, 105
1, 196573, Note_off_c, 0, 58, 39
1, 196595, Note_off_c, 0, 60, 42
1, 196605, Note_off_c, 0, 65, 58
1, 196843, Control_c, 0, 67, 52
1, 196863, Note_on_c, 0, 53, 38
1, 196870, Note_on_c, 0, 57, 35
1, 196877, Note_on_c, 0, 65, 57
1, 196882, Control_c, 0, 64, 101
1, 196898, Note_on_c, 0, 60, 40
1, 196917, Control_c, 0, 64, 89
1, 196950, Control_c, 0, 64, 74
1, 196969, Control_c, 0, 64, 54
1, 196987, Control_c, 0, 64, 30
1, 197006, Control_c, 0, 64, 26
1, 197042, Control_c, 0, 64, 35
1, 197060, Control_c, 0, 64, 47
1, 197079, Control_c, 0, 64, 59
1, 197097, Control_c, 0, 64, 66
1, 197100, Control_c, 0, 67, 56
1, 197117, Control_c, 0, 64, 72
1, 197135, Control_c, 0, 64, 77
1, 197154, Control_c, 0, 64, 81
1, 197155, Control_c, 0, 67, 61
1, 197172, Control_c, 0, 64, 87
1, 197175, Note_off_c, 0, 60, 38
1, 197190, Control_c, 0, 64, 92
1, 197191, Control_c, 0, 67, 65
1, 197208, Control_c, 0, 64, 96
1, 197219, Note_off_c, 0, 53, 38
1, 197226, Control_c, 0, 67, 70
1, 197243, Note_off_c, 0, 57, 36
1, 197263, Control_c, 0, 67, 75
1, 197300, Control_c, 0, 64, 100
1, 197301, Control_c, 0, 67, 79
1, 197336, Control_c, 0, 67, 84
1, 197393, Control_c, 0, 67, 88
1, 197459, Note_on_c, 0, 57, 31
1, 197474, Note_on_c, 0, 53, 31
1, 197483, Control_c, 0, 67, 92
1, 197486, Note_on_c, 0, 60, 32
1, 197502, Control_c, 0, 64, 90
1, 197521, Control_c, 0, 64, 78
1, 197539, Control_c, 0, 64, 66
1, 197541, Control_c, 0, 67, 96
1, 197559, Control_c, 0, 64, 59
1, 197576, Control_c, 0, 64, 62
1, 197596, Control_c, 0, 64, 66
1, 197615, Control_c, 0, 64, 72
1, 197633, Control_c, 0, 64, 78
1, 197650, Control_c, 0, 64, 84
1, 197652, Control_c, 0, 67, 101
1, 197668, Control_c, 0, 64, 88
1, 197691, Note_off_c, 0, 60, 41
1, 197706, Control_c, 0, 64, 92
1, 197723, Note_off_c, 0, 57, 35
1, 197739, Note_off_c, 0, 53, 42
1, 197761, Control_c, 0, 64, 96
1, 198052, Control_c, 0, 64, 87
1, 198053, Note_on_c, 0, 51, 31
1, 198069, Note_on_c, 0, 57, 29
1, 198070, Control_c, 0, 64, 74
1, 198077, Note_on_c, 0, 60, 22
1, 198089, Control_c, 0, 64, 58
1, 198108, Control_c, 0, 64, 43
1, 198143, Control_c, 0, 64, 47
1, 198162, Control_c, 0, 64, 54
1, 198181, Control_c, 0, 64, 62
1, 198198, Control_c, 0, 64, 68
1, 198217, Control_c, 0, 64, 74
1, 198235, Control_c, 0, 64, 81
1, 198254, Control_c, 0, 64, 87
1, 198291, Control_c, 0, 64, 93
1, 198317, Note_off_c, 0, 60, 40
1, 198320, Note_off_c, 0, 51, 39
1, 198349, Note_off_c, 0, 57, 35
1, 198384, Control_c, 0, 64, 99
1, 198603, Control_c, 0, 64, 88
1, 198622, Control_c, 0, 64, 75
1, 198624, Note_on_c, 0, 51, 27
1, 198629, Note_on_c, 0, 57, 20
1, 198634, Note_on_c, 0, 60, 25
1, 198640, Control_c, 0, 64, 61
1, 198658, Control_c, 0, 64, 54
1, 198676, Control_c, 0, 64, 56
1, 198695, Control_c, 0, 64, 61
1, 198714, Control_c, 0, 64, 66
1, 198732, Control_c, 0, 64, 71
1, 198751, Control_c, 0, 64, 78
1, 198770, Control_c, 0, 64, 85
1, 198788, Control_c, 0, 64, 93
1, 198820, Control_c, 0, 64, 97
1, 198829, Note_off_c, 0, 60, 39
1, 198844, Note_off_c, 0, 65, 61
1, 198874, Note_off_c, 0, 57, 42
1, 198931, Control_c, 0, 64, 101
1, 198965, Note_off_c, 0, 51, 28
1, 199060, Control_c, 0, 64, 105
1, 199314, Note_on_c, 0, 50, 36
1, 199315, Note_on_c, 0, 65, 59
1, 199317, Control_c, 0, 64, 101
1, 199320, Note_on_c, 0, 58, 27
1, 199336, Control_c, 0, 64, 94
1, 199341, Note_on_c, 0, 77, 36
1, 199343, Note_on_c, 0, 74, 40
1, 199354, Control_c, 0, 64, 79
1, 199372, Control_c, 0, 64, 58
1, 199391, Control_c, 0, 64, 29
1, 199409, Control_c, 0, 64, 18
1, 199446, Control_c, 0, 64, 25
1, 199466, Control_c, 0, 64, 37
1, 199484, Control_c, 0, 64, 54
1, 199504, Control_c, 0, 64, 65
1, 199519, Control_c, 0, 64, 73
1, 199538, Control_c, 0, 64, 81
1, 199559, Control_c, 0, 64, 88
1, 199566, Note_off_c, 0, 58, 40
1, 199576, Control_c, 0, 64, 92
1, 199583, Note_off_c, 0, 50, 41
1, 199611, Control_c, 0, 64, 98
1, 199639, Note_off_c, 0, 77, 41
1, 199648, Note_off_c, 0, 74, 40
1, 199649, Control_c, 0, 64, 104
1, 199650, Control_c, 0, 67, 97
1, 199667, Control_c, 0, 64, 109
1, 199706, Control_c, 0, 64, 113
1, 199792, Control_c, 0, 67, 93
1, 199827, Control_c, 0, 67, 89
1, 199860, Note_on_c, 0, 74, 46
1, 199870, Note_on_c, 0, 77, 44
1, 199879, Note_on_c, 0, 50, 28
1, 199883, Note_on_c, 0, 58, 24
1, 199922, Control_c, 0, 67, 85
1, 199958, Note_off_c, 0, 74, 53
1, 200012, Note_off_c, 0, 50, 52
1, 200015, Note_off_c, 0, 77, 53
1, 200065, Note_off_c, 0, 58, 32
1, 200097, Note_on_c, 0, 70, 56
1, 200118, Note_on_c, 0, 74, 51
1, 200163, Note_off_c, 0, 70, 55
1, 200192, Note_off_c, 0, 74, 53
1, 200315, Note_off_c, 0, 65, 41
1, 200372, Note_on_c, 0, 68, 67
1, 200377, Note_on_c, 0, 46, 39
1, 200381, Control_c, 0, 64, 108
1, 200384, Note_on_c, 0, 74, 47
1, 200400, Control_c, 0, 64, 100
1, 200410, Note_on_c, 0, 77, 49
1, 200416, Note_on_c, 0, 58, 21
1, 200419, Control_c, 0, 64, 80
1, 200438, Control_c, 0, 64, 54
1, 200455, Control_c, 0, 64, 0
1, 200492, Control_c, 0, 64, 30
1, 200492, Control_c, 0, 67, 81
1, 200511, Control_c, 0, 64, 52
1, 200528, Control_c, 0, 64, 65
1, 200545, Control_c, 0, 64, 72
1, 200565, Control_c, 0, 64, 79
1, 200584, Control_c, 0, 64, 85
1, 200602, Control_c, 0, 64, 91
1, 200604, Control_c, 0, 67, 76
1, 200607, Note_off_c, 0, 74, 38
1, 200613, Note_off_c, 0, 58, 34
1, 200621, Control_c, 0, 64, 99
1, 200623, Note_off_c, 0, 46, 40
1, 200623, Control_c, 0, 67, 70
1, 200633, Note_off_c, 0, 77, 33
1, 200636, Control_c, 0, 64, 106
1, 200636, Control_c, 0, 67, 61
1, 200656, Control_c, 0, 64, 110
1, 200657, Control_c, 0, 67, 51
1, 200688, Control_c, 0, 67, 43
1, 200706, Control_c, 0, 67, 36
1, 200716, Note_off_c, 0, 68, 62
1, 200743, Control_c, 0, 67, 31
1, 200910, Note_on_c, 0, 67, 71
1, 200914, Note_on_c, 0, 46, 42
1, 200926, Note_on_c, 0, 74, 55
1, 200936, Note_on_c, 0, 77, 55
1, 200940, Note_on_c, 0, 58, 25
1, 201032, Note_off_c, 0, 74, 47
1, 201136, Note_off_c, 0, 67, 38
1, 201150, Note_on_c, 0, 70, 65
1, 201169, Control_c, 0, 67, 35
1, 201171, Note_on_c, 0, 74, 48
1, 201207, Note_off_c, 0, 70, 49
1, 201207, Note_off_c, 0, 58, 37
1, 201213, Note_off_c, 0, 46, 40
1, 201237, Note_off_c, 0, 74, 54
1, 201240, Note_off_c, 0, 77, 25
1, 201418, Note_on_c, 0, 51, 43
1, 201428, Note_on_c, 0, 67, 65
1, 201430, Note_on_c, 0, 58, 23
1, 201444, Note_on_c, 0, 74, 55
1, 201447, Control_c, 0, 64, 104
1, 201453, Note_on_c, 0, 77, 47
1, 201463, Control_c, 0, 64, 93
1, 201464, Control_c, 0, 67, 39
1, 201482, Control_c, 0, 64, 72
1, 201500, Control_c, 0, 64, 48
1, 201520, Control_c, 0, 64, 29
1, 201555, Control_c, 0, 64, 43
1, 201573, Control_c, 0, 64, 55
1, 201593, Control_c, 0, 64, 64
1, 201625, Control_c, 0, 64, 70
1, 201644, Control_c, 0, 64, 77
1, 201653, Note_off_c, 0, 74, 59
1, 201662, Control_c, 0, 64, 84
1, 201681, Control_c, 0, 64, 90
1, 201693, Note_off_c, 0, 58, 41
1, 201696, Note_off_c, 0, 77, 54
1, 201698, Control_c, 0, 64, 95
1, 201706, Note_off_c, 0, 51, 40
1, 201718, Control_c, 0, 64, 99
1, 201792, Control_c, 0, 64, 104
1, 201980, Note_on_c, 0, 51, 37
1, 201994, Note_on_c, 0, 79, 51
1, 201996, Note_on_c, 0, 75, 51
1, 202012, Note_on_c, 0, 58, 25
1, 202193, Note_off_c, 0, 79, 56
1, 202200, Note_off_c, 0, 58, 37
1, 202230, Note_off_c, 0, 75, 43
1, 202421, Note_off_c, 0, 51, 40
1, 202513, Note_on_c, 0, 50, 35
1, 202527, Control_c, 0, 64, 99
1, 202533, Note_on_c, 0, 75, 48
1, 202535, Note_on_c, 0, 79, 36
1, 202536, Note_on_c, 0, 58, 24
1, 202556, Control_c, 0, 64, 87
1, 202575, Control_c, 0, 64, 68
1, 202594, Control_c, 0, 64, 44
1, 202613, Control_c, 0, 64, 31
1, 202648, Control_c, 0, 64, 45
1, 202667, Control_c, 0, 64, 60
1, 202687, Control_c, 0, 64, 70
1, 202704, Control_c, 0, 64, 82
1, 202718, Note_off_c, 0, 67, 47
1, 202721, Control_c, 0, 64, 92
1, 202740, Control_c, 0, 64, 100
1, 202745, Note_off_c, 0, 79, 56
1, 202752, Note_off_c, 0, 75, 63
1, 202759, Control_c, 0, 64, 105
1, 202780, Note_off_c, 0, 58, 38
1, 202796, Control_c, 0, 64, 112
1, 202815, Control_c, 0, 64, 117
1, 202818, Note_off_c, 0, 50, 41
1, 202833, Control_c, 0, 64, 122
1, 202869, Control_c, 0, 64, 127
1, 203091, Note_on_c, 0, 69, 62
1, 203095, Note_on_c, 0, 58, 30
1, 203095, Note_on_c, 0, 50, 37
1, 203098, Note_on_c, 0, 82, 48
1, 203107, Note_on_c, 0, 79, 50
1, 203181, Note_off_c, 0, 79, 59
1, 203221, Note_off_c, 0, 58, 54
1, 203226, Note_off_c, 0, 82, 52
1, 203340, Note_off_c, 0, 50, 39
1, 203639, Note_on_c, 0, 51, 34
1, 203647, Note_on_c, 0, 70, 66
1, 203650, Note_on_c, 0, 60, 25
1, 203652, Note_off_c, 0, 69, 59
1, 203657, Control_c, 0, 64, 121
1, 203672, Note_on_c, 0, 48, 30
1, 203677, Control_c, 0, 64, 115
1, 203678, Note_on_c, 0, 75, 48
1, 203694, Control_c, 0, 64, 97
1, 203705, Note_on_c, 0, 79, 41
1, 203712, Control_c, 0, 64, 71
1, 203735, Control_c, 0, 64, 34
1, 203752, Control_c, 0, 64, 0
1, 203789, Control_c, 0, 64, 22
1, 203806, Control_c, 0, 64, 44
1, 203825, Control_c, 0, 64, 60
1, 203842, Control_c, 0, 64, 69
1, 203862, Control_c, 0, 64, 76
1, 203880, Control_c, 0, 64, 85
1, 203895, Note_off_c, 0, 75, 58
1, 203899, Control_c, 0, 64, 94
1, 203918, Control_c, 0, 64, 101
1, 203935, Note_off_c, 0, 60, 42
1, 203937, Control_c, 0, 64, 106
1, 203963, Note_off_c, 0, 48, 35
1, 203964, Note_off_c, 0, 51, 31
1, 203978, Note_off_c, 0, 79, 37
1, 204028, Control_c, 0, 64, 110
1, 204050, Note_off_c, 0, 70, 48
1, 204156, Note_on_c, 0, 75, 55
1, 204159, Note_on_c, 0, 51, 37
1, 204180, Note_on_c, 0, 48, 22
1, 204182, Note_on_c, 0, 79, 30
1, 204207, Note_on_c, 0, 60, 10
1, 204226, Note_off_c, 0, 75, 54
1, 204387, Note_on_c, 0, 75, 57
1, 204404, Note_on_c, 0, 72, 51
1, 204450, Poly_aftertouch_c, 0, 51, 20
1, 204455, Note_off_c, 0, 51, 32
1, 204456, Note_off_c, 0, 60, 42
1, 204469, Poly_aftertouch_c, 0, 48, 24
1, 204496, Note_off_c, 0, 48, 37
1, 204497, Note_off_c, 0, 75, 56
1, 204510, Note_off_c, 0, 72, 59
1, 204525, Note_off_c, 0, 79, 21
1, 204687, Note_on_c, 0, 74, 67
1, 204704, Note_on_c, 0, 48, 29
1, 204709, Note_on_c, 0, 51, 36
1, 204714, Note_on_c, 0, 60, 28
1, 204716, Note_on_c, 0, 75, 47
1, 204722, Control_c, 0, 64, 106
1, 204740, Control_c, 0, 64, 96
1, 204745, Note_on_c, 0, 79, 27
1, 204759, Control_c, 0, 64, 78
1, 204778, Control_c, 0, 64, 57
1, 204796, Control_c, 0, 64, 47
1, 204816, Control_c, 0, 64, 52
1, 204835, Control_c, 0, 64, 60
1, 204852, Control_c, 0, 64, 68
1, 204871, Control_c, 0, 64, 78
1, 204890, Control_c, 0, 64, 90
1, 204908, Control_c, 0, 64, 99
1, 204925, Control_c, 0, 64, 106
1, 204944, Note_off_c, 0, 60, 41
1, 204944, Control_c, 0, 64, 110
1, 204970, Note_off_c, 0, 48, 34
1, 204971, Note_off_c, 0, 51, 37
1, 204978, Note_off_c, 0, 75, 28
1, 205003, Poly_aftertouch_c, 0, 79, 24
1, 205052, Note_off_c, 0, 74, 56
1, 205055, Note_off_c, 0, 79, 38
1, 205192, Note_on_c, 0, 72, 71
1, 205195, Note_on_c, 0, 51, 38
1, 205202, Note_on_c, 0, 79, 54
1, 205202, Note_on_c, 0, 48, 32
1, 205213, Note_on_c, 0, 60, 28
1, 205444, Note_on_c, 0, 75, 69
1, 205453, Note_off_c, 0, 60, 42
1, 205456, Note_off_c, 0, 72, 62
1, 205468, Note_off_c, 0, 79, 27
1, 205521, Note_off_c, 0, 75, 62
1, 205607, Note_off_c, 0, 51, 39
1, 205611, Note_off_c, 0, 48, 31
1, 205731, Note_on_c, 0, 69, 64
1, 205743, Note_on_c, 0, 75, 53
1, 205743, Note_on_c, 0, 53, 33
1, 205753, Note_on_c, 0, 79, 52
1, 205753, Note_on_c, 0, 60, 27
1, 205771, Control_c, 0, 64, 96
1, 205789, Control_c, 0, 64, 77
1, 205808, Control_c, 0, 64, 56
1, 205827, Control_c, 0, 64, 40
1, 205862, Control_c, 0, 64, 47
1, 205880, Control_c, 0, 64, 55
1, 205900, Control_c, 0, 64, 64
1, 205916, Control_c, 0, 64, 74
1, 205935, Control_c, 0, 64, 85
1, 205944, Note_off_c, 0, 75, 55
1, 205955, Control_c, 0, 64, 97
1, 205973, Control_c, 0, 64, 106
1, 205974, Note_off_c, 0, 79, 63
1, 205979, Note_off_c, 0, 53, 37
1, 205990, Control_c, 0, 64, 110
1, 206027, Control_c, 0, 64, 115
1, 206045, Control_c, 0, 64, 120
1, 206065, Control_c, 0, 64, 124
1, 206070, Note_off_c, 0, 60, 39
1, 206273, Note_on_c, 0, 77, 56
1, 206274, Note_on_c, 0, 81, 58
1, 206309, Note_on_c, 0, 53, 35
1, 206331, Note_on_c, 0, 60, 12
1, 206371, Note_off_c, 0, 53, 61
1, 206428, Note_off_c, 0, 81, 58
1, 206448, Note_off_c, 0, 77, 59
1, 206517, Note_off_c, 0, 69, 59
1, 206525, Note_off_c, 0, 60, 43
1, 206815, Control_c, 0, 64, 110
1, 206821, Note_on_c, 0, 67, 76
1, 206833, Control_c, 0, 64, 86
1, 206834, Note_on_c, 0, 60, 45
1, 206840, Note_on_c, 0, 77, 53
1, 206841, Note_on_c, 0, 51, 41
1, 206849, Note_on_c, 0, 81, 53
1, 206851, Control_c, 0, 64, 62
1, 206869, Note_on_c, 0, 57, 7
1, 206870, Control_c, 0, 64, 53
1, 206890, Control_c, 0, 64, 60
1, 206908, Control_c, 0, 64, 70
1, 206925, Control_c, 0, 64, 86
1, 206931, Note_off_c, 0, 51, 50
1, 206942, Control_c, 0, 64, 108
1, 206949, Note_off_c, 0, 57, 44
1, 206961, Control_c, 0, 64, 127
1, 206999, Control_c, 0, 67, 46
1, 207007, Note_off_c, 0, 60, 58
1, 207014, Note_off_c, 0, 67, 59
1, 207038, Note_off_c, 0, 77, 62
1, 207055, Control_c, 0, 67, 51
1, 207063, Note_off_c, 0, 81, 62
1, 207090, Control_c, 0, 67, 56
1, 207109, Control_c, 0, 67, 61
1, 207128, Control_c, 0, 67, 67
1, 207145, Control_c, 0, 67, 71
1, 207387, Note_on_c, 0, 65, 73
1, 207403, Note_on_c, 0, 84, 57
1, 207404, Note_on_c, 0, 81, 54
1, 207414, Note_on_c, 0, 60, 45
1, 207416, Note_on_c, 0, 57, 43
1, 207462, Note_off_c, 0, 57, 64
1, 207479, Note_off_c, 0, 60, 55
1, 207507, Note_off_c, 0, 65, 63
1, 207587, Note_off_c, 0, 81, 62
1, 207652, Note_off_c, 0, 84, 63
1, 207942, Note_on_c, 0, 50, 37
1, 207944, Note_on_c, 0, 58, 33
1, 207948, Note_on_c, 0, 53, 40
1, 207998, Note_on_c, 0, 77, 72
1, 208007, Control_c, 0, 67, 75
1, 208044, Control_c, 0, 64, 113
1, 208063, Control_c, 0, 64, 87
1, 208082, Control_c, 0, 64, 59
1, 208098, Control_c, 0, 64, 26
1, 208155, Control_c, 0, 64, 43
1, 208188, Control_c, 0, 64, 61
1, 208207, Control_c, 0, 64, 75
1, 208227, Control_c, 0, 64, 90
1, 208244, Control_c, 0, 64, 104
1, 208245, Control_c, 0, 67, 79
1, 208261, Control_c, 0, 64, 114
1, 208280, Control_c, 0, 64, 118
1, 208287, Note_off_c, 0, 77, 60
1, 208289, Note_off_c, 0, 50, 41
1, 208305, Note_off_c, 0, 53, 39
1, 208316, Note_off_c, 0, 58, 35
1, 208316, Control_c, 0, 64, 123
1, 208372, Control_c, 0, 64, 127
1, 208374, Control_c, 0, 67, 83
1, 208502, Note_on_c, 0, 58, 41
1, 208506, Note_on_c, 0, 53, 33
1, 208521, Note_on_c, 0, 82, 59
1, 208538, Note_on_c, 0, 50, 34
1, 208557, Note_on_c, 0, 74, 41
1, 208624, Note_on_c, 0, 84, 59
1, 208646, Note_off_c, 0, 50, 46
1, 208669, Note_off_c, 0, 82, 52
1, 208714, Note_off_c, 0, 53, 43
1, 208744, Note_on_c, 0, 86, 63
1, 208762, Note_off_c, 0, 84, 60
1, 208764, Note_off_c, 0, 58, 31
1, 208808, Note_off_c, 0, 74, 35
1, 208832, Note_off_c, 0, 86, 58
1, 208997, Control_c, 0, 64, 114
1, 208999, Note_on_c, 0, 79, 71
1, 209016, Control_c, 0, 64, 89
1, 209019, Note_on_c, 0, 51, 43
1, 209030, Note_on_c, 0, 58, 34
1, 209033, Control_c, 0, 64, 55
1, 209043, Note_on_c, 0, 55, 36
1, 209051, Control_c, 0, 64, 0
1, 209053, Note_on_c, 0, 74, 22
1, 209077, Note_on_c, 0, 82, 28
1, 209123, Control_c, 0, 64, 42
1, 209142, Control_c, 0, 64, 64
1, 209161, Control_c, 0, 64, 77
1, 209180, Control_c, 0, 64, 91
1, 209195, Control_c, 0, 64, 103
1, 209197, Note_off_c, 0, 55, 56
1, 209215, Control_c, 0, 64, 112
1, 209231, Note_off_c, 0, 58, 42
1, 209253, Note_off_c, 0, 51, 37
1, 209264, Note_off_c, 0, 82, 39
1, 209269, Control_c, 0, 64, 116
1, 209278, Note_on_c, 0, 86, 63
1, 209285, Control_c, 0, 67, 87
1, 209307, Control_c, 0, 64, 122
1, 209326, Control_c, 0, 64, 126
1, 209355, Note_off_c, 0, 79, 61
1, 209362, Note_off_c, 0, 86, 57
1, 209428, Note_off_c, 0, 74, 41
1, 209500, Note_on_c, 0, 77, 81
1, 209509, Control_c, 0, 64, 122
1, 209516, Note_on_c, 0, 84, 63
1, 209528, Note_on_c, 0, 60, 41
1, 209528, Control_c, 0, 64, 101
1, 209543, Note_on_c, 0, 51, 40
1, 209545, Note_on_c, 0, 57, 31
1, 209546, Control_c, 0, 64, 84
1, 209579, Note_off_c, 0, 60, 54
1, 209585, Control_c, 0, 64, 93
1, 209590, Note_off_c, 0, 57, 52
1, 209605, Control_c, 0, 64, 111
1, 209622, Control_c, 0, 64, 127
1, 209649, Note_off_c, 0, 51, 57
1, 209677, Note_off_c, 0, 84, 62
1, 209699, Note_off_c, 0, 77, 62
1, 209750, Note_on_c, 0, 72, 47
1, 209781, Note_off_c, 0, 72, 56
1, 209880, Control_c, 0, 67, 91
1, 209997, Note_on_c, 0, 50, 38
1, 210007, Note_on_c, 0, 58, 25
1, 210007, Control_c, 0, 67, 96
1, 210011, Note_on_c, 0, 77, 73
1, 210013, Note_on_c, 0, 46, 45
1, 210027, Control_c, 0, 64, 112
1, 210060, Control_c, 0, 64, 87
1, 210067, Note_on_c, 0, 82, 38
1, 210072, Note_on_c, 0, 70, 42
1, 210080, Control_c, 0, 64, 57
1, 210098, Control_c, 0, 64, 0
1, 210100, Control_c, 0, 67, 100
1, 210189, Control_c, 0, 64, 39
1, 210205, Control_c, 0, 64, 63
1, 210224, Control_c, 0, 64, 76
1, 210244, Control_c, 0, 64, 91
1, 210249, Note_off_c, 0, 58, 39
1, 210262, Control_c, 0, 64, 101
1, 210280, Control_c, 0, 64, 109
1, 210282, Note_off_c, 0, 50, 41
1, 210300, Control_c, 0, 64, 114
1, 210304, Note_off_c, 0, 46, 40
1, 210337, Control_c, 0, 64, 120
1, 210372, Control_c, 0, 64, 125
1, 210532, Note_on_c, 0, 50, 34
1, 210548, Note_on_c, 0, 46, 34
1, 210556, Note_on_c, 0, 74, 71
1, 210562, Note_off_c, 0, 82, 39
1, 210562, Note_on_c, 0, 58, 32
1, 210631, Note_off_c, 0, 46, 56
1, 210637, Note_off_c, 0, 77, 61
1, 210676, Note_off_c, 0, 74, 63
1, 210727, Note_off_c, 0, 70, 61
1, 210732, Note_off_c, 0, 50, 36
1, 210733, Note_off_c, 0, 58, 36
1, 211085, Note_on_c, 0, 51, 39
1, 211091, Note_on_c, 0, 72, 62
1, 211097, Note_on_c, 0, 48, 32
1, 211107, Note_on_c, 0, 63, 45
1, 211110, Note_on_c, 0, 58, 23
1, 211124, Control_c, 0, 67, 104
1, 211140, Control_c, 0, 64, 116
1, 211160, Control_c, 0, 64, 97
1, 211178, Control_c, 0, 64, 71
1, 211196, Control_c, 0, 64, 33
1, 211215, Control_c, 0, 64, 0
1, 211216, Control_c, 0, 67, 108
1, 211253, Control_c, 0, 64, 16
1, 211271, Control_c, 0, 64, 44
1, 211290, Control_c, 0, 64, 62
1, 211307, Control_c, 0, 64, 73
1, 211308, Control_c, 0, 67, 113
1, 211327, Control_c, 0, 64, 85
1, 211344, Control_c, 0, 64, 95
1, 211348, Note_off_c, 0, 58, 39
1, 211359, Note_off_c, 0, 51, 40
1, 211362, Note_off_c, 0, 48, 39
1, 211362, Control_c, 0, 64, 104
1, 211379, Control_c, 0, 64, 111
1, 211435, Control_c, 0, 64, 115
1, 211473, Control_c, 0, 64, 120
1, 211616, Note_on_c, 0, 70, 64
1, 211633, Note_on_c, 0, 51, 31
1, 211655, Note_on_c, 0, 48, 29
1, 211661, Note_off_c, 0, 72, 62
1, 211669, Note_on_c, 0, 58, 23
1, 211713, Note_off_c, 0, 63, 59
1, 211778, Note_off_c, 0, 51, 38
1, 211806, Note_off_c, 0, 70, 64
1, 211836, Note_off_c, 0, 48, 41
1, 211856, Note_off_c, 0, 58, 32
1, 212144, Note_on_c, 0, 50, 38
1, 212171, Note_on_c, 0, 53, 36
1, 212186, Note_on_c, 0, 58, 24
1, 212206, Control_c, 0, 64, 109
1, 212207, Note_on_c, 0, 77, 67
1, 212224, Control_c, 0, 64, 87
1, 212242, Control_c, 0, 64, 55
1, 212261, Control_c, 0, 64, 0
1, 212297, Control_c, 0, 64, 29
1, 212315, Control_c, 0, 64, 58
1, 212333, Control_c, 0, 64, 73
1, 212353, Control_c, 0, 64, 89
1, 212371, Control_c, 0, 64, 107
1, 212389, Control_c, 0, 64, 124
1, 212416, Note_off_c, 0, 77, 63
1, 212454, Note_off_c, 0, 58, 33
1, 212464, Note_off_c, 0, 50, 41
1, 212568, Note_off_c, 0, 53, 34
1, 212704, Note_on_c, 0, 53, 25
1, 212733, Note_on_c, 0, 82, 56
1, 212734, Note_on_c, 0, 50, 27
1, 212755, Note_on_c, 0, 58, 27
1, 212769, Note_on_c, 0, 74, 24
1, 212819, Note_off_c, 0, 50, 58
1, 212832, Note_on_c, 0, 84, 62
1, 212886, Note_off_c, 0, 53, 49
1, 212923, Note_off_c, 0, 82, 48
1, 212949, Note_off_c, 0, 58, 34
1, 212956, Note_on_c, 0, 86, 63
1, 212966, Note_off_c, 0, 84, 63
1, 212968, Note_off_c, 0, 74, 29
1, 213064, Note_off_c, 0, 86, 57
1, 213208, Note_on_c, 0, 79, 70
1, 213214, Control_c, 0, 64, 107
1, 213231, Note_on_c, 0, 51, 41
1, 213231, Control_c, 0, 64, 81
1, 213235, Note_on_c, 0, 74, 40
1, 213247, Note_on_c, 0, 55, 38
1, 213248, Control_c, 0, 64, 59
1, 213253, Note_on_c, 0, 58, 21
1, 213257, Note_on_c, 0, 82, 33
1, 213270, Control_c, 0, 64, 51
1, 213287, Control_c, 0, 64, 56
1, 213306, Control_c, 0, 64, 64
1, 213324, Control_c, 0, 64, 74
1, 213344, Control_c, 0, 64, 87
1, 213362, Control_c, 0, 64, 102
1, 213373, Note_off_c, 0, 55, 59
1, 213377, Note_off_c, 0, 82, 38
1, 213379, Control_c, 0, 64, 115
1, 213398, Control_c, 0, 64, 123
1, 213403, Note_off_c, 0, 58, 35
1, 213416, Control_c, 0, 64, 127
1, 213440, Note_off_c, 0, 51, 31
1, 213466, Note_on_c, 0, 86, 65
1, 213523, Note_off_c, 0, 79, 62
1, 213536, Note_off_c, 0, 86, 61
1, 213630, Note_off_c, 0, 74, 42
1, 213692, Control_c, 0, 64, 116
1, 213704, Note_on_c, 0, 77, 78
1, 213711, Control_c, 0, 64, 97
1, 213718, Note_on_c, 0, 84, 65
1, 213729, Control_c, 0, 64, 83
1, 213735, Note_on_c, 0, 60, 40
1, 213738, Note_on_c, 0, 51, 38
1, 213739, Note_on_c, 0, 57, 35
1, 213768, Control_c, 0, 64, 91
1, 213778, Note_off_c, 0, 57, 59
1, 213795, Note_off_c, 0, 60, 49
1, 213801, Control_c, 0, 64, 107
1, 213820, Control_c, 0, 64, 127
1, 213849, Note_off_c, 0, 51, 58
1, 213882, Note_off_c, 0, 84, 63
1, 213921, Note_off_c, 0, 77, 63
1, 213955, Note_on_c, 0, 72, 65
1, 213991, Note_off_c, 0, 72, 63
1, 214076, Control_c, 0, 67, 109
1, 214149, Control_c, 0, 67, 101
1, 214168, Control_c, 0, 67, 95
1, 214184, Control_c, 0, 67, 87
1, 214192, Note_on_c, 0, 46, 37
1, 214195, Note_on_c, 0, 50, 38
1, 214203, Control_c, 0, 67, 79
1, 214207, Note_on_c, 0, 58, 30
1, 214222, Control_c, 0, 67, 73
1, 214236, Note_on_c, 0, 77, 73
1, 214259, Control_c, 0, 67, 68
1, 214268, Note_on_c, 0, 70, 51
1, 214277, Note_on_c, 0, 82, 59
1, 214332, Control_c, 0, 64, 117
1, 214352, Control_c, 0, 64, 82
1, 214370, Control_c, 0, 64, 0
1, 214499, Control_c, 0, 64, 49
1, 214517, Control_c, 0, 64, 70
1, 214536, Control_c, 0, 64, 86
1, 214555, Control_c, 0, 64, 103
1, 214561, Note_off_c, 0, 50, 41
1, 214563, Note_off_c, 0, 58, 38
1, 214574, Control_c, 0, 64, 116
1, 214579, Note_off_c, 0, 46, 42
1, 214591, Control_c, 0, 64, 120
1, 214629, Control_c, 0, 64, 125
1, 214775, Note_on_c, 0, 46, 36
1, 214776, Note_on_c, 0, 74, 72
1, 214792, Control_c, 0, 64, 121
1, 214805, Note_on_c, 0, 50, 39
1, 214814, Note_on_c, 0, 58, 20
1, 214846, Control_c, 0, 64, 125
1, 214882, Note_off_c, 0, 82, 39
1, 214892, Note_off_c, 0, 50, 56
1, 214927, Note_off_c, 0, 46, 38
1, 214931, Note_off_c, 0, 77, 61
1, 214955, Note_off_c, 0, 74, 63
1, 215000, Note_off_c, 0, 70, 63
1, 215013, Note_off_c, 0, 58, 39
1, 215285, Note_on_c, 0, 50, 36
1, 215294, Note_on_c, 0, 53, 37
1, 215299, Note_on_c, 0, 58, 24
1, 215311, Note_on_c, 0, 72, 64
1, 215320, Note_on_c, 0, 65, 45
1, 215344, Control_c, 0, 64, 112
1, 215362, Control_c, 0, 64, 90
1, 215381, Control_c, 0, 64, 64
1, 215399, Control_c, 0, 64, 26
1, 215419, Control_c, 0, 64, 0
1, 215437, Control_c, 0, 64, 15
1, 215456, Control_c, 0, 64, 37
1, 215474, Control_c, 0, 64, 52
1, 215494, Control_c, 0, 64, 62
1, 215510, Control_c, 0, 64, 70
1, 215529, Control_c, 0, 64, 79
1, 215548, Control_c, 0, 64, 90
1, 215566, Control_c, 0, 64, 101
1, 215583, Control_c, 0, 64, 108
1, 215598, Note_off_c, 0, 58, 39
1, 215598, Note_off_c, 0, 50, 42
1, 215601, Control_c, 0, 64, 113
1, 215620, Note_off_c, 0, 53, 40
1, 215673, Control_c, 0, 64, 118
1, 215711, Control_c, 0, 64, 124
1, 215820, Control_c, 0, 64, 118
1, 215837, Control_c, 0, 64, 108
1, 215853, Note_on_c, 0, 50, 43
1, 215854, Note_on_c, 0, 70, 69
1, 215856, Control_c, 0, 64, 95
1, 215863, Note_on_c, 0, 53, 23
1, 215872, Note_on_c, 0, 58, 31
1, 215874, Control_c, 0, 64, 85
1, 215911, Control_c, 0, 64, 88
1, 215932, Control_c, 0, 64, 95
1, 215949, Control_c, 0, 64, 104
1, 215968, Control_c, 0, 64, 112
1, 215988, Note_off_c, 0, 72, 60
1, 215996, Note_off_c, 0, 58, 50
1, 215996, Control_c, 0, 64, 116
1, 216014, Note_off_c, 0, 65, 35
1, 216029, Control_c, 0, 64, 120
1, 216065, Control_c, 0, 64, 124
1, 216069, Note_off_c, 0, 70, 63
1, 216085, Note_off_c, 0, 50, 38
1, 216382, Note_on_c, 0, 48, 38
1, 216387, Note_on_c, 0, 60, 32
1, 216397, Note_on_c, 0, 75, 66
1, 216405, Note_on_c, 0, 70, 48
1, 216415, Control_c, 0, 64, 112
1, 216427, Note_on_c, 0, 67, 41
1, 216433, Control_c, 0, 64, 95
1, 216451, Control_c, 0, 64, 72
1, 216470, Control_c, 0, 64, 43
1, 216488, Control_c, 0, 64, 0
1, 216524, Control_c, 0, 64, 25
1, 216543, Control_c, 0, 64, 43
1, 216562, Control_c, 0, 64, 57
1, 216595, Control_c, 0, 64, 65
1, 216602, Note_off_c, 0, 53, 44
1, 216614, Control_c, 0, 64, 73
1, 216633, Control_c, 0, 64, 85
1, 216652, Control_c, 0, 64, 99
1, 216669, Control_c, 0, 64, 109
1, 216677, Note_off_c, 0, 70, 60
1, 216687, Note_off_c, 0, 67, 54
1, 216687, Control_c, 0, 64, 115
1, 216689, Note_off_c, 0, 48, 40
1, 216699, Note_off_c, 0, 60, 42
1, 216725, Control_c, 0, 64, 119
1, 216760, Control_c, 0, 64, 125
1, 216908, Control_c, 0, 64, 120
1, 216928, Control_c, 0, 64, 111
1, 216947, Control_c, 0, 64, 96
1, 216949, Note_on_c, 0, 70, 52
1, 216951, Note_on_c, 0, 60, 22
1, 216955, Note_on_c, 0, 48, 29
1, 216964, Control_c, 0, 64, 79
1, 216966, Note_on_c, 0, 67, 40
1, 216980, Control_c, 0, 64, 70
1, 217018, Control_c, 0, 64, 76
1, 217037, Control_c, 0, 64, 84
1, 217057, Control_c, 0, 64, 93
1, 217059, Note_off_c, 0, 70, 62
1, 217074, Control_c, 0, 64, 100
1, 217111, Control_c, 0, 64, 105
1, 217126, Note_off_c, 0, 67, 38
1, 217156, Note_off_c, 0, 60, 42
1, 217165, Control_c, 0, 64, 113
1, 217184, Control_c, 0, 64, 118
1, 217211, Note_off_c, 0, 48, 36
1, 217220, Control_c, 0, 64, 124
1, 217459, Control_c, 0, 64, 116
1, 217477, Control_c, 0, 64, 104
1, 217486, Note_on_c, 0, 53, 40
1, 217487, Note_on_c, 0, 69, 45
1, 217496, Control_c, 0, 64, 85
1, 217530, Control_c, 0, 64, 63
1, 217530, Note_on_c, 0, 60, 22
1, 217539, Note_on_c, 0, 65, 27
1, 217547, Control_c, 0, 64, 31
1, 217568, Control_c, 0, 64, 12
1, 217605, Control_c, 0, 64, 26
1, 217622, Control_c, 0, 64, 37
1, 217641, Control_c, 0, 64, 50
1, 217660, Control_c, 0, 64, 60
1, 217678, Control_c, 0, 64, 68
1, 217696, Control_c, 0, 64, 75
1, 217713, Control_c, 0, 64, 85
1, 217733, Control_c, 0, 64, 96
1, 217750, Note_off_c, 0, 60, 41
1, 217750, Control_c, 0, 64, 106
1, 217769, Note_off_c, 0, 53, 37
1, 217770, Control_c, 0, 64, 112
1, 217806, Note_off_c, 0, 65, 39
1, 217808, Control_c, 0, 64, 117
1, 217842, Control_c, 0, 64, 121
1, 217844, Note_off_c, 0, 69, 39
1, 218043, Note_on_c, 0, 53, 38
1, 218044, Note_on_c, 0, 77, 64
1, 218047, Note_on_c, 0, 60, 35
1, 218050, Note_on_c, 0, 69, 40
1, 218077, Note_on_c, 0, 65, 38
1, 218142, Note_off_c, 0, 60, 59
1, 218208, Note_off_c, 0, 75, 26
1, 218213, Note_off_c, 0, 77, 61
1, 218214, Control_c, 0, 64, 125
1, 218262, Note_off_c, 0, 65, 44
1, 218332, Note_off_c, 0, 69, 41
1, 218609, Note_on_c, 0, 74, 67
1, 218612, Note_on_c, 0, 70, 53
1, 218616, Note_on_c, 0, 46, 43
1, 218628, Note_on_c, 0, 65, 38
1, 218631, Control_c, 0, 64, 114
1, 218639, Note_on_c, 0, 58, 22
1, 218651, Control_c, 0, 64, 99
1, 218669, Control_c, 0, 64, 76
1, 218688, Control_c, 0, 64, 51
1, 218697, Note_off_c, 0, 53, 41
1, 218705, Control_c, 0, 64, 34
1, 218725, Control_c, 0, 64, 39
1, 218745, Control_c, 0, 64, 52
1, 218762, Control_c, 0, 64, 64
1, 218780, Control_c, 0, 64, 72
1, 218798, Control_c, 0, 64, 84
1, 218818, Note_off_c, 0, 65, 54
1, 218818, Note_off_c, 0, 70, 57
1, 218818, Control_c, 0, 64, 99
1, 218835, Control_c, 0, 64, 112
1, 218852, Control_c, 0, 64, 120
1, 218908, Control_c, 0, 67, 73
1, 218944, Control_c, 0, 64, 124
1, 218963, Control_c, 0, 67, 78
1, 218980, Note_off_c, 0, 74, 38
1, 219001, Control_c, 0, 67, 83
1, 219163, Note_on_c, 0, 72, 69
1, 219166, Control_c, 0, 64, 117
1, 219167, Control_c, 0, 67, 87
1, 219175, Note_on_c, 0, 63, 54
1, 219175, Note_on_c, 0, 48, 48
1, 219179, Note_on_c, 0, 69, 52
1, 219184, Control_c, 0, 64, 102
1, 219204, Control_c, 0, 64, 83
1, 219205, Control_c, 0, 67, 94
1, 219206, Note_off_c, 0, 46, 50
1, 219221, Control_c, 0, 64, 65
1, 219224, Control_c, 0, 67, 99
1, 219240, Control_c, 0, 64, 52
1, 219257, Control_c, 0, 67, 103
1, 219277, Control_c, 0, 64, 60
1, 219295, Control_c, 0, 64, 70
1, 219313, Control_c, 0, 64, 80
1, 219331, Control_c, 0, 64, 92
1, 219337, Note_off_c, 0, 58, 36
1, 219350, Control_c, 0, 64, 103
1, 219364, Note_off_c, 0, 69, 63
1, 219368, Control_c, 0, 64, 112
1, 219400, Control_c, 0, 64, 116
1, 219420, Note_off_c, 0, 63, 59
1, 219512, Control_c, 0, 64, 121
1, 219697, Control_c, 0, 64, 115
1, 219705, Note_on_c, 0, 70, 67
1, 219707, Note_off_c, 0, 72, 62
1, 219707, Note_on_c, 0, 65, 52
1, 219715, Control_c, 0, 64, 106
1, 219726, Note_on_c, 0, 50, 52
1, 219726, Note_on_c, 0, 62, 47
1, 219734, Control_c, 0, 64, 88
1, 219736, Control_c, 0, 67, 107
1, 219741, Note_off_c, 0, 48, 51
1, 219754, Control_c, 0, 64, 68
1, 219771, Control_c, 0, 64, 45
1, 219788, Control_c, 0, 64, 41
1, 219807, Control_c, 0, 64, 47
1, 219825, Control_c, 0, 64, 58
1, 219844, Control_c, 0, 64, 66
1, 219863, Control_c, 0, 64, 73
1, 219881, Control_c, 0, 64, 80
1, 219901, Control_c, 0, 64, 87
1, 219918, Control_c, 0, 64, 94
1, 219938, Control_c, 0, 64, 101
1, 219954, Control_c, 0, 64, 106
1, 219962, Note_off_c, 0, 62, 50
1, 220000, Note_off_c, 0, 65, 56
1, 220011, Control_c, 0, 64, 110
1, 220017, Note_off_c, 0, 70, 52
1, 220137, Control_c, 0, 64, 114
1, 220256, Note_on_c, 0, 72, 64
1, 220261, Note_on_c, 0, 67, 52
1, 220267, Control_c, 0, 64, 110
1, 220273, Note_on_c, 0, 51, 48
1, 220275, Note_off_c, 0, 50, 57
1, 220275, Note_on_c, 0, 60, 44
1, 220285, Control_c, 0, 64, 101
1, 220304, Control_c, 0, 64, 85
1, 220323, Control_c, 0, 64, 64
1, 220357, Control_c, 0, 64, 39
1, 220375, Control_c, 0, 64, 26
1, 220412, Control_c, 0, 64, 36
1, 220431, Control_c, 0, 64, 49
1, 220448, Control_c, 0, 64, 60
1, 220468, Control_c, 0, 64, 68
1, 220486, Control_c, 0, 64, 76
1, 220503, Control_c, 0, 64, 88
1, 220520, Note_off_c, 0, 72, 54
1, 220521, Control_c, 0, 64, 101
1, 220540, Control_c, 0, 64, 109
1, 220542, Note_off_c, 0, 67, 59
1, 220563, Note_off_c, 0, 60, 41
1, 220594, Control_c, 0, 64, 113
1, 220632, Control_c, 0, 64, 119
1, 220669, Control_c, 0, 64, 124
1, 220851, Note_on_c, 0, 69, 64
1, 220851, Control_c, 0, 64, 120
1, 220866, Note_on_c, 0, 60, 41
1, 220867, Note_on_c, 0, 53, 40
1, 220869, Control_c, 0, 64, 116
1, 220872, Note_on_c, 0, 65, 46
1, 220890, Control_c, 0, 64, 104
1, 220908, Control_c, 0, 64, 84
1, 220928, Control_c, 0, 64, 58
1, 220945, Control_c, 0, 64, 0
1, 220973, Note_off_c, 0, 51, 41
1, 221018, Control_c, 0, 64, 25
1, 221037, Control_c, 0, 64, 46
1, 221054, Control_c, 0, 64, 59
1, 221073, Control_c, 0, 64, 66
1, 221091, Control_c, 0, 64, 71
1, 221110, Control_c, 0, 64, 78
1, 221115, Note_off_c, 0, 65, 60
1, 221129, Control_c, 0, 64, 85
1, 221147, Control_c, 0, 64, 91
1, 221156, Note_off_c, 0, 60, 42
1, 221164, Control_c, 0, 64, 97
1, 221185, Control_c, 0, 64, 101
1, 221220, Control_c, 0, 64, 107
1, 221235, Note_off_c, 0, 53, 43
1, 221258, Control_c, 0, 64, 114
1, 221290, Control_c, 0, 64, 119
1, 221309, Control_c, 0, 64, 123
1, 221437, Note_on_c, 0, 53, 33
1, 221444, Note_on_c, 0, 65, 50
1, 221449, Note_on_c, 0, 60, 45
1, 221456, Control_c, 0, 64, 108
1, 221474, Control_c, 0, 64, 90
1, 221494, Control_c, 0, 64, 71
1, 221512, Control_c, 0, 64, 56
1, 221550, Control_c, 0, 64, 62
1, 221568, Control_c, 0, 64, 70
1, 221585, Control_c, 0, 64, 80
1, 221604, Control_c, 0, 64, 91
1, 221623, Control_c, 0, 64, 101
1, 221641, Control_c, 0, 64, 108
1, 221657, Control_c, 0, 64, 112
1, 221665, Note_off_c, 0, 60, 57
1, 221721, Note_off_c, 0, 65, 60
1, 221733, Control_c, 0, 64, 117
1, 221733, Control_c, 0, 67, 111
1, 221771, Control_c, 0, 64, 121
1, 221825, Control_c, 0, 67, 115
1, 221917, Control_c, 0, 67, 120
1, 222008, Control_c, 0, 67, 124
1, 222064, Control_c, 0, 64, 114
1, 222065, Note_on_c, 0, 41, 39
1, 222066, Note_on_c, 0, 65, 51
1, 222083, Control_c, 0, 64, 108
1, 222092, Note_on_c, 0, 63, 36
1, 222102, Control_c, 0, 64, 95
1, 222120, Control_c, 0, 64, 75
1, 222138, Control_c, 0, 64, 49
1, 222155, Control_c, 0, 64, 0
1, 222244, Control_c, 0, 64, 19
1, 222263, Control_c, 0, 64, 42
1, 222282, Control_c, 0, 64, 57
1, 222300, Control_c, 0, 64, 65
1, 222318, Control_c, 0, 64, 70
1, 222338, Control_c, 0, 64, 76
1, 222356, Control_c, 0, 64, 84
1, 222374, Control_c, 0, 64, 94
1, 222391, Control_c, 0, 64, 106
1, 222410, Control_c, 0, 64, 114
1, 222429, Control_c, 0, 64, 118
1, 222432, Note_off_c, 0, 41, 39
1, 222464, Control_c, 0, 64, 125
1, 222475, Note_off_c, 0, 63, 37
1, 222480, Note_off_c, 0, 53, 41
1, 222481, Note_off_c, 0, 69, 55
1, 222586, Note_off_c, 0, 65, 35
1, 222826, Note_on_c, 0, 70, 64
1, 222827, Note_on_c, 0, 41, 33
1, 222844, Note_on_c, 0, 65, 50
1, 222856, Note_on_c, 0, 63, 40
1, 222862, Note_on_c, 0, 53, 18
1, 222920, Note_off_c, 0, 41, 58
1, 223016, Note_off_c, 0, 65, 61
1, 223022, Note_off_c, 0, 53, 48
1, 223024, Note_off_c, 0, 63, 55
1, 223114, Note_off_c, 0, 70, 62
1, 223583, Note_on_c, 0, 50, 43
1, 223596, Note_on_c, 0, 58, 34
1, 223603, Note_on_c, 0, 46, 29
1, 223603, Note_on_c, 0, 70, 63
1, 223628, Note_on_c, 0, 77, 49
1, 223629, Note_on_c, 0, 74, 40
1, 223676, Control_c, 0, 64, 103
1, 223694, Control_c, 0, 64, 78
1, 223713, Control_c, 0, 64, 49
1, 223730, Control_c, 0, 64, 0
1, 223822, Control_c, 0, 64, 26
1, 223840, Control_c, 0, 64, 45
1, 223858, Control_c, 0, 64, 58
1, 223877, Control_c, 0, 64, 66
1, 223895, Control_c, 0, 64, 71
1, 223915, Control_c, 0, 64, 76
1, 223933, Control_c, 0, 64, 84
1, 223952, Control_c, 0, 64, 94
1, 223962, Note_off_c, 0, 46, 42
1, 223969, Control_c, 0, 64, 106
1, 223978, Note_off_c, 0, 74, 25
1, 223989, Control_c, 0, 64, 115
1, 223995, Note_off_c, 0, 58, 39
1, 224007, Control_c, 0, 64, 122
1, 224013, Note_off_c, 0, 77, 38
1, 224025, Control_c, 0, 64, 126
1, 224273, Note_on_c, 0, 77, 55
1, 224276, Note_on_c, 0, 46, 28
1, 224278, Note_on_c, 0, 58, 25
1, 224279, Note_on_c, 0, 74, 37
1, 224374, Note_off_c, 0, 70, 37
1, 224378, Note_off_c, 0, 74, 59
1, 224452, Note_off_c, 0, 58, 34
1, 224467, Note_off_c, 0, 46, 33
1, 224476, Note_off_c, 0, 77, 35
1, 224508, Note_on_c, 0, 74, 62
1, 224514, Note_on_c, 0, 70, 46
1, 224572, Note_off_c, 0, 74, 49
1, 224621, Note_off_c, 0, 70, 35
1, 224779, Note_on_c, 0, 77, 59
1, 224782, Note_on_c, 0, 58, 34
1, 224793, Note_on_c, 0, 74, 46
1, 224804, Note_on_c, 0, 46, 29
1, 224908, Note_off_c, 0, 46, 52
1, 224936, Note_off_c, 0, 58, 36
1, 224946, Note_off_c, 0, 77, 58
1, 224972, Note_off_c, 0, 74, 36
1, 225335, Note_on_c, 0, 58, 38
1, 225340, Note_on_c, 0, 77, 61
1, 225359, Note_on_c, 0, 74, 48
1, 225376, Note_on_c, 0, 46, 29
1, 225421, Note_off_c, 0, 74, 56
1, 225431, Note_off_c, 0, 58, 48
1, 225465, Note_off_c, 0, 46, 54
1, 225509, Note_off_c, 0, 77, 60
1, 225567, Note_on_c, 0, 74, 68
1, 225603, Note_on_c, 0, 70, 48
1, 225701, Note_off_c, 0, 74, 53
1, 225789, Note_off_c, 0, 70, 35
1, 225849, Note_on_c, 0, 77, 65
1, 225860, Control_c, 0, 64, 110
1, 225862, Note_on_c, 0, 74, 54
1, 225867, Note_on_c, 0, 55, 33
1, 225869, Note_on_c, 0, 46, 29
1, 225878, Control_c, 0, 64, 88
1, 225895, Control_c, 0, 64, 62
1, 225914, Control_c, 0, 64, 23
1, 225918, Note_off_c, 0, 50, 35
1, 225932, Control_c, 0, 64, 0
1, 225965, Control_c, 0, 64, 15
1, 225984, Control_c, 0, 64, 38
1, 226002, Control_c, 0, 64, 56
1, 226021, Control_c, 0, 64, 66
1, 226040, Control_c, 0, 64, 75
1, 226058, Control_c, 0, 64, 87
1, 226076, Control_c, 0, 64, 103
1, 226096, Control_c, 0, 64, 118
1, 226112, Control_c, 0, 64, 125
1, 226131, Note_off_c, 0, 74, 62
1, 226157, Note_off_c, 0, 46, 39
1, 226160, Note_off_c, 0, 55, 41
1, 226404, Note_on_c, 0, 46, 33
1, 226410, Note_on_c, 0, 79, 63
1, 226410, Note_on_c, 0, 55, 19
1, 226410, Note_on_c, 0, 75, 52
1, 226414, Note_off_c, 0, 77, 56
1, 226443, Control_c, 0, 64, 119
1, 226463, Control_c, 0, 64, 110
1, 226480, Control_c, 0, 64, 101
1, 226555, Control_c, 0, 64, 108
1, 226559, Note_off_c, 0, 75, 60
1, 226572, Control_c, 0, 64, 112
1, 226615, Note_off_c, 0, 46, 30
1, 226635, Note_off_c, 0, 79, 63
1, 226645, Control_c, 0, 64, 116
1, 226683, Control_c, 0, 64, 120
1, 226956, Control_c, 0, 64, 115
1, 226970, Note_on_c, 0, 79, 52
1, 226974, Control_c, 0, 64, 101
1, 226975, Note_on_c, 0, 51, 35
1, 226980, Note_on_c, 0, 46, 29
1, 226984, Note_on_c, 0, 75, 41
1, 226992, Control_c, 0, 64, 80
1, 227012, Control_c, 0, 64, 53
1, 227030, Control_c, 0, 64, 0
1, 227043, Note_off_c, 0, 55, 41
1, 227085, Control_c, 0, 64, 29
1, 227103, Control_c, 0, 64, 50
1, 227121, Control_c, 0, 64, 62
1, 227138, Control_c, 0, 64, 70
1, 227158, Control_c, 0, 64, 77
1, 227176, Control_c, 0, 64, 86
1, 227195, Note_off_c, 0, 46, 41
1, 227195, Control_c, 0, 64, 95
1, 227213, Control_c, 0, 64, 103
1, 227230, Note_off_c, 0, 79, 58
1, 227232, Control_c, 0, 64, 108
1, 227259, Note_off_c, 0, 51, 39
1, 227305, Control_c, 0, 64, 114
1, 227342, Control_c, 0, 64, 119
1, 227455, Note_on_c, 0, 51, 26
1, 227487, Note_on_c, 0, 46, 36
1, 227488, Note_on_c, 0, 82, 53
1, 227516, Note_on_c, 0, 79, 34
1, 227579, Control_c, 0, 64, 124
1, 227610, Note_off_c, 0, 79, 59
1, 227616, Note_off_c, 0, 46, 38
1, 227646, Note_off_c, 0, 75, 41
1, 227661, Note_off_c, 0, 82, 64
1, 227864, Note_off_c, 0, 51, 38
1, 228053, Control_c, 0, 67, 120
1, 228061, Note_on_c, 0, 46, 33
1, 228078, Note_on_c, 0, 48, 31
1, 228096, Note_on_c, 0, 55, 26
1, 228110, Note_on_c, 0, 79, 72
1, 228133, Note_on_c, 0, 75, 52
1, 228148, Control_c, 0, 64, 114
1, 228168, Control_c, 0, 64, 99
1, 228170, Note_on_c, 0, 72, 31
1, 228186, Control_c, 0, 64, 80
1, 228187, Control_c, 0, 67, 114
1, 228205, Control_c, 0, 64, 65
1, 228222, Control_c, 0, 64, 55
1, 228224, Control_c, 0, 67, 106
1, 228240, Control_c, 0, 64, 59
1, 228241, Control_c, 0, 67, 102
1, 228259, Control_c, 0, 64, 66
1, 228261, Control_c, 0, 67, 97
1, 228277, Control_c, 0, 64, 77
1, 228278, Control_c, 0, 67, 92
1, 228295, Control_c, 0, 64, 92
1, 228298, Control_c, 0, 67, 86
1, 228314, Control_c, 0, 64, 112
1, 228315, Control_c, 0, 67, 79
1, 228332, Control_c, 0, 64, 127
1, 228333, Control_c, 0, 67, 72
1, 228338, Note_off_c, 0, 75, 61
1, 228341, Note_off_c, 0, 72, 42
1, 228350, Control_c, 0, 67, 65
1, 228358, Note_off_c, 0, 79, 63
1, 228368, Control_c, 0, 67, 59
1, 228380, Note_off_c, 0, 55, 41
1, 228388, Control_c, 0, 67, 55
1, 228422, Note_off_c, 0, 46, 41
1, 228432, Note_off_c, 0, 48, 38
1, 228611, Note_on_c, 0, 75, 80
1, 228617, Note_on_c, 0, 46, 32
1, 228634, Note_on_c, 0, 48, 28
1, 228642, Note_on_c, 0, 55, 34
1, 228662, Note_on_c, 0, 72, 41
1, 228701, Note_off_c, 0, 46, 43
1, 228717, Note_off_c, 0, 55, 53
1, 228872, Note_on_c, 0, 69, 47
1, 228874, Note_off_c, 0, 75, 62
1, 228895, Note_off_c, 0, 72, 39
1, 228912, Note_off_c, 0, 69, 57
1, 229119, Note_on_c, 0, 45, 35
1, 229128, Note_on_c, 0, 74, 75
1, 229133, Note_on_c, 0, 51, 40
1, 229144, Note_on_c, 0, 53, 36
1, 229158, Note_on_c, 0, 75, 48
1, 229175, Control_c, 0, 64, 123
1, 229194, Control_c, 0, 64, 101
1, 229198, Note_off_c, 0, 48, 39
1, 229213, Control_c, 0, 64, 74
1, 229228, Control_c, 0, 64, 45
1, 229247, Control_c, 0, 64, 33
1, 229286, Control_c, 0, 64, 49
1, 229303, Control_c, 0, 64, 58
1, 229322, Control_c, 0, 64, 66
1, 229341, Control_c, 0, 64, 74
1, 229359, Control_c, 0, 64, 86
1, 229377, Control_c, 0, 64, 102
1, 229393, Note_off_c, 0, 74, 64
1, 229395, Control_c, 0, 64, 117
1, 229400, Note_off_c, 0, 51, 40
1, 229402, Note_off_c, 0, 45, 39
1, 229405, Note_off_c, 0, 75, 57
1, 229414, Control_c, 0, 64, 125
1, 229415, Control_c, 0, 67, 51
1, 229440, Note_off_c, 0, 53, 43
1, 229642, Note_on_c, 0, 72, 78
1, 229652, Note_on_c, 0, 53, 24
1, 229656, Note_on_c, 0, 75, 59
1, 229674, Note_on_c, 0, 45, 28
1, 229678, Note_on_c, 0, 51, 33
1, 229826, Note_off_c, 0, 45, 38
1, 229838, Note_off_c, 0, 75, 58
1, 229853, Note_off_c, 0, 51, 37
1, 229859, Note_off_c, 0, 53, 38
1, 229866, Note_off_c, 0, 72, 63
1, 229890, Note_on_c, 0, 69, 56
1, 229937, Note_off_c, 0, 69, 61
1, 230150, Note_on_c, 0, 53, 30
1, 230151, Note_on_c, 0, 51, 38
1, 230152, Note_on_c, 0, 46, 32
1, 230175, Note_on_c, 0, 77, 76
1, 230201, Note_on_c, 0, 72, 52
1, 230206, Note_on_c, 0, 81, 60
1, 230220, Control_c, 0, 64, 106
1, 230240, Control_c, 0, 64, 82
1, 230257, Control_c, 0, 64, 56
1, 230276, Control_c, 0, 64, 23
1, 230330, Control_c, 0, 64, 38
1, 230351, Control_c, 0, 64, 54
1, 230368, Control_c, 0, 64, 66
1, 230386, Control_c, 0, 64, 76
1, 230403, Control_c, 0, 64, 89
1, 230410, Note_off_c, 0, 81, 61
1, 230422, Control_c, 0, 64, 103
1, 230427, Note_off_c, 0, 72, 53
1, 230441, Control_c, 0, 64, 114
1, 230447, Note_off_c, 0, 46, 42
1, 230454, Note_off_c, 0, 51, 41
1, 230458, Note_off_c, 0, 53, 41
1, 230460, Control_c, 0, 64, 119
1, 230550, Control_c, 0, 64, 123
1, 230713, Control_c, 0, 67, 55
1, 230733, Control_c, 0, 64, 119
1, 230742, Note_on_c, 0, 82, 62
1, 230752, Control_c, 0, 64, 105
1, 230754, Note_on_c, 0, 46, 35
1, 230757, Note_on_c, 0, 50, 36
1, 230758, Note_on_c, 0, 74, 30
1, 230762, Note_on_c, 0, 53, 31
1, 230770, Control_c, 0, 64, 82
1, 230771, Control_c, 0, 67, 60
1, 230789, Control_c, 0, 64, 59
1, 230807, Control_c, 0, 64, 38
1, 230807, Control_c, 0, 67, 64
1, 230843, Control_c, 0, 64, 48
1, 230844, Control_c, 0, 67, 68
1, 230862, Control_c, 0, 64, 60
1, 230878, Control_c, 0, 64, 69
1, 230880, Control_c, 0, 67, 74
1, 230897, Control_c, 0, 64, 77
1, 230915, Control_c, 0, 64, 87
1, 230918, Control_c, 0, 67, 80
1, 230934, Control_c, 0, 64, 94
1, 230941, Note_off_c, 0, 50, 47
1, 230950, Note_off_c, 0, 53, 38
1, 230953, Control_c, 0, 64, 100
1, 230955, Control_c, 0, 67, 85
1, 230972, Control_c, 0, 64, 105
1, 230987, Note_off_c, 0, 74, 42
1, 231010, Control_c, 0, 64, 111
1, 231011, Control_c, 0, 67, 90
1, 231045, Control_c, 0, 64, 115
1, 231046, Control_c, 0, 67, 95
1, 231055, Note_off_c, 0, 82, 34
1, 231083, Control_c, 0, 64, 120
1, 231084, Control_c, 0, 67, 100
1, 231117, Control_c, 0, 67, 104
1, 231155, Control_c, 0, 67, 108
1, 231192, Control_c, 0, 67, 113
1, 231230, Control_c, 0, 64, 115
1, 231231, Control_c, 0, 67, 117
1, 231247, Control_c, 0, 64, 105
1, 231254, Note_on_c, 0, 82, 55
1, 231261, Note_on_c, 0, 74, 43
1, 231264, Control_c, 0, 64, 87
1, 231276, Note_on_c, 0, 51, 33
1, 231283, Control_c, 0, 64, 64
1, 231286, Control_c, 0, 67, 122
1, 231293, Note_on_c, 0, 55, 28
1, 231302, Control_c, 0, 64, 38
1, 231321, Control_c, 0, 64, 34
1, 231332, Note_off_c, 0, 46, 29
1, 231336, Control_c, 0, 64, 40
1, 231338, Control_c, 0, 67, 127
1, 231353, Note_off_c, 0, 77, 60
1, 231356, Control_c, 0, 64, 52
1, 231376, Control_c, 0, 64, 63
1, 231394, Control_c, 0, 64, 72
1, 231413, Control_c, 0, 64, 82
1, 231432, Control_c, 0, 64, 92
1, 231450, Control_c, 0, 64, 100
1, 231468, Control_c, 0, 64, 106
1, 231474, Note_off_c, 0, 74, 62
1, 231495, Note_off_c, 0, 51, 34
1, 231497, Note_off_c, 0, 55, 32
1, 231524, Control_c, 0, 64, 110
1, 231574, Control_c, 0, 64, 114
1, 231611, Control_c, 0, 64, 119
1, 231685, Control_c, 0, 64, 124
1, 231789, Note_off_c, 0, 82, 48
1, 231814, Control_c, 0, 64, 117
1, 231819, Note_on_c, 0, 51, 36
1, 231821, Note_on_c, 0, 79, 64
1, 231831, Control_c, 0, 64, 103
1, 231845, Note_on_c, 0, 84, 49
1, 231846, Note_on_c, 0, 75, 41
1, 231850, Control_c, 0, 64, 83
1, 231863, Note_on_c, 0, 55, 29
1, 231870, Control_c, 0, 64, 66
1, 231886, Control_c, 0, 64, 57
1, 231904, Control_c, 0, 64, 60
1, 231923, Control_c, 0, 64, 68
1, 231942, Control_c, 0, 64, 77
1, 231962, Control_c, 0, 64, 89
1, 231966, Note_off_c, 0, 51, 56
1, 231979, Control_c, 0, 64, 99
1, 231999, Control_c, 0, 64, 109
1, 232007, Note_off_c, 0, 55, 48
1, 232018, Control_c, 0, 64, 116
1, 232034, Control_c, 0, 64, 121
1, 232105, Note_off_c, 0, 75, 44
1, 232155, Note_off_c, 0, 79, 58
1, 232189, Note_off_c, 0, 84, 40
1, 232403, Control_c, 0, 64, 102
1, 232420, Control_c, 0, 64, 74
1, 232426, Note_on_c, 0, 74, 67
1, 232430, Note_on_c, 0, 53, 31
1, 232438, Control_c, 0, 64, 34
1, 232439, Note_on_c, 0, 58, 19
1, 232450, Note_on_c, 0, 62, 22
1, 232457, Control_c, 0, 64, 0
1, 232476, Control_c, 0, 64, 16
1, 232508, Control_c, 0, 64, 45
1, 232527, Control_c, 0, 64, 62
1, 232546, Control_c, 0, 64, 74
1, 232565, Control_c, 0, 64, 86
1, 232584, Control_c, 0, 64, 100
1, 232592, Note_off_c, 0, 74, 59
1, 232602, Control_c, 0, 64, 116
1, 232621, Control_c, 0, 64, 127
1, 232696, Note_off_c, 0, 53, 39
1, 232713, Note_off_c, 0, 58, 40
1, 232718, Note_off_c, 0, 62, 43
1, 232977, Note_on_c, 0, 58, 32
1, 232986, Note_on_c, 0, 82, 33
1, 232994, Note_on_c, 0, 86, 58
1, 232996, Note_on_c, 0, 53, 39
1, 233002, Note_on_c, 0, 62, 20
1, 233030, Note_off_c, 0, 82, 53
1, 233060, Note_off_c, 0, 62, 51
1, 233072, Note_off_c, 0, 58, 55
1, 233087, Note_off_c, 0, 86, 62
1, 233101, Note_on_c, 0, 87, 52
1, 233105, Note_on_c, 0, 84, 21
1, 233112, Note_off_c, 0, 53, 60
1, 233162, Note_off_c, 0, 84, 44
1, 233199, Note_on_c, 0, 89, 49
1, 233218, Note_on_c, 0, 86, 47
1, 233235, Note_off_c, 0, 87, 35
1, 233264, Note_off_c, 0, 86, 63
1, 233312, Note_off_c, 0, 89, 62
1, 233537, Note_on_c, 0, 86, 58
1, 233537, Control_c, 0, 64, 122
1, 233547, Note_on_c, 0, 41, 33
1, 233550, Note_on_c, 0, 82, 48
1, 233556, Control_c, 0, 64, 97
1, 233574, Control_c, 0, 64, 69
1, 233593, Control_c, 0, 64, 52
1, 233610, Control_c, 0, 64, 57
1, 233613, Poly_aftertouch_c, 0, 53, 127
1, 233629, Control_c, 0, 64, 66
1, 233647, Control_c, 0, 64, 76
1, 233666, Control_c, 0, 64, 92
1, 233672, Note_off_c, 0, 82, 54
1, 233684, Control_c, 0, 64, 108
1, 233702, Control_c, 0, 64, 119
1, 233750, Note_off_c, 0, 86, 56
1, 233807, Note_off_c, 0, 41, 42
1, 233811, Control_c, 0, 64, 125
1, 233824, Note_on_c, 0, 82, 50
1, 233833, Note_on_c, 0, 74, 49
1, 233839, Poly_aftertouch_c, 0, 53, 0
1, 233856, Note_off_c, 0, 82, 63
1, 233893, Note_off_c, 0, 74, 59
1, 234139, Note_on_c, 0, 72, 58
1, 234141, Note_on_c, 0, 77, 63
1, 234142, Note_on_c, 0, 41, 36
1, 234155, Note_on_c, 0, 53, 25
1, 234159, Note_on_c, 0, 75, 42
1, 234204, Note_off_c, 0, 41, 57
1, 234236, Note_off_c, 0, 72, 58
1, 234274, Note_off_c, 0, 75, 29
1, 234316, Note_off_c, 0, 53, 47
1, 234468, Note_on_c, 0, 70, 66
1, 234475, Note_on_c, 0, 81, 57
1, 234483, Note_off_c, 0, 77, 0
1, 234547, Note_off_c, 0, 81, 59
1, 234594, Poly_aftertouch_c, 0, 77, 20
1, 234603, Poly_aftertouch_c, 0, 77, 0
1, 234604, Note_off_c, 0, 70, 57
1, 234807, Note_on_c, 0, 58, 26
1, 234814, Note_on_c, 0, 46, 25
1, 234826, Note_on_c, 0, 82, 53
1, 234833, Note_on_c, 0, 74, 53
1, 234840, Control_c, 0, 64, 116
1, 234846, Note_on_c, 0, 70, 44
1, 234858, Control_c, 0, 64, 93
1, 234878, Control_c, 0, 64, 61
1, 234896, Control_c, 0, 64, 0
1, 235063, Control_c, 0, 64, 11
1, 235079, Control_c, 0, 64, 37
1, 235098, Control_c, 0, 64, 55
1, 235112, Note_off_c, 0, 74, 52
1, 235117, Control_c, 0, 64, 66
1, 235136, Control_c, 0, 64, 73
1, 235153, Control_c, 0, 64, 81
1, 235172, Note_off_c, 0, 46, 42
1, 235173, Note_off_c, 0, 58, 36
1, 235173, Control_c, 0, 64, 89
1, 235193, Control_c, 0, 64, 95
1, 235194, Control_c, 0, 67, 121
1, 235210, Control_c, 0, 64, 101
1, 235227, Control_c, 0, 64, 105
1, 235229, Control_c, 0, 67, 116
1, 235265, Control_c, 0, 64, 111
1, 235283, Control_c, 0, 67, 112
1, 235301, Control_c, 0, 64, 115
1, 235334, Control_c, 0, 67, 107
1, 235352, Control_c, 0, 64, 120
1, 235371, Control_c, 0, 67, 103
1, 235389, Control_c, 0, 64, 127
1, 235425, Control_c, 0, 67, 98
1, 235482, Control_c, 0, 67, 93
1, 235494, Note_on_c, 0, 77, 53
1, 235495, Note_on_c, 0, 74, 47
1, 235506, Note_on_c, 0, 46, 30
1, 235509, Note_on_c, 0, 58, 21
1, 235525, Note_off_c, 0, 82, 34
1, 235554, Control_c, 0, 67, 89
1, 235560, Note_off_c, 0, 74, 53
1, 235589, Note_off_c, 0, 70, 35
1, 235644, Note_off_c, 0, 46, 36
1, 235645, Control_c, 0, 67, 83
1, 235674, Note_off_c, 0, 77, 59
1, 235679, Note_off_c, 0, 58, 30
1, 235683, Control_c, 0, 67, 79
1, 235745, Note_on_c, 0, 74, 55
1, 235750, Note_on_c, 0, 70, 49
1, 235758, Control_c, 0, 67, 75
1, 235807, Note_off_c, 0, 74, 53
1, 235811, Note_off_c, 0, 70, 53
1, 236014, Note_on_c, 0, 77, 53
1, 236018, Note_on_c, 0, 74, 42
1, 236019, Note_on_c, 0, 58, 22
1, 236023, Note_on_c, 0, 46, 29
1, 236154, Note_off_c, 0, 74, 51
1, 236158, Note_off_c, 0, 58, 33
1, 236159, Note_off_c, 0, 77, 61
1, 236177, Note_off_c, 0, 46, 37
1, 236547, Note_on_c, 0, 77, 59
1, 236555, Note_on_c, 0, 58, 35
1, 236559, Note_on_c, 0, 74, 48
1, 236563, Note_on_c, 0, 46, 34
1, 236584, Control_c, 0, 67, 71
1, 236631, Note_off_c, 0, 74, 53
1, 236658, Control_c, 0, 67, 67
1, 236659, Note_off_c, 0, 58, 54
1, 236678, Note_off_c, 0, 46, 50
1, 236747, Note_off_c, 0, 77, 59
1, 236778, Note_on_c, 0, 74, 67
1, 236809, Note_on_c, 0, 70, 43
1, 236898, Note_off_c, 0, 74, 58
1, 236914, Note_off_c, 0, 70, 0
1, 237002, Poly_aftertouch_c, 0, 70, 0
1, 237045, Note_on_c, 0, 77, 68
1, 237060, Note_on_c, 0, 55, 28
1, 237061, Note_on_c, 0, 74, 49
1, 237063, Control_c, 0, 64, 119
1, 237066, Note_on_c, 0, 46, 31
1, 237080, Control_c, 0, 64, 101
1, 237099, Control_c, 0, 64, 79
1, 237116, Control_c, 0, 64, 57
1, 237136, Control_c, 0, 64, 35
1, 237204, Control_c, 0, 64, 44
1, 237224, Control_c, 0, 64, 51
1, 237241, Control_c, 0, 64, 59
1, 237261, Control_c, 0, 64, 66
1, 237277, Control_c, 0, 64, 75
1, 237297, Control_c, 0, 64, 88
1, 237310, Note_off_c, 0, 46, 42
1, 237314, Control_c, 0, 64, 102
1, 237321, Note_off_c, 0, 55, 42
1, 237331, Note_off_c, 0, 74, 62
1, 237332, Control_c, 0, 64, 114
1, 237352, Control_c, 0, 64, 120
1, 237444, Control_c, 0, 64, 126
1, 237547, Note_off_c, 0, 77, 55
1, 237600, Note_on_c, 0, 79, 62
1, 237606, Note_on_c, 0, 75, 48
1, 237606, Note_on_c, 0, 46, 37
1, 237622, Note_on_c, 0, 55, 28
1, 237648, Control_c, 0, 64, 113
1, 237666, Control_c, 0, 64, 101
1, 237683, Control_c, 0, 64, 89
1, 237701, Control_c, 0, 64, 83
1, 237721, Control_c, 0, 64, 85
1, 237737, Control_c, 0, 64, 90
1, 237749, Note_off_c, 0, 75, 61
1, 237755, Control_c, 0, 64, 99
1, 237775, Control_c, 0, 64, 110
1, 237793, Control_c, 0, 64, 117
1, 237834, Note_off_c, 0, 79, 59
1, 237847, Note_off_c, 0, 46, 35
1, 238015, Control_c, 0, 64, 121
1, 238176, Note_on_c, 0, 79, 57
1, 238177, Control_c, 0, 64, 115
1, 238191, Note_on_c, 0, 75, 35
1, 238193, Control_c, 0, 64, 106
1, 238193, Note_on_c, 0, 51, 32
1, 238194, Note_on_c, 0, 46, 27
1, 238212, Control_c, 0, 64, 90
1, 238221, Note_off_c, 0, 55, 37
1, 238231, Control_c, 0, 64, 72
1, 238250, Control_c, 0, 64, 51
1, 238269, Control_c, 0, 64, 39
1, 238287, Control_c, 0, 64, 41
1, 238308, Control_c, 0, 64, 48
1, 238324, Control_c, 0, 64, 55
1, 238342, Control_c, 0, 64, 62
1, 238360, Control_c, 0, 64, 68
1, 238378, Control_c, 0, 64, 75
1, 238397, Control_c, 0, 64, 86
1, 238416, Control_c, 0, 64, 97
1, 238432, Control_c, 0, 64, 108
1, 238442, Note_off_c, 0, 46, 34
1, 238452, Control_c, 0, 64, 113
1, 238481, Note_off_c, 0, 79, 57
1, 238492, Note_off_c, 0, 51, 41
1, 238527, Control_c, 0, 64, 118
1, 238692, Note_on_c, 0, 51, 25
1, 238714, Note_on_c, 0, 82, 50
1, 238722, Note_on_c, 0, 46, 34
1, 238733, Note_on_c, 0, 79, 41
1, 238856, Note_off_c, 0, 46, 36
1, 238856, Control_c, 0, 64, 123
1, 238885, Note_off_c, 0, 79, 54
1, 238912, Note_off_c, 0, 82, 61
1, 238946, Note_off_c, 0, 75, 42
1, 238969, Note_off_c, 0, 51, 38
1, 239241, Control_c, 0, 64, 119
1, 239274, Note_on_c, 0, 75, 57
1, 239290, Note_on_c, 0, 72, 41
1, 239291, Note_on_c, 0, 57, 36
1, 239294, Control_c, 0, 64, 112
1, 239299, Note_on_c, 0, 46, 36
1, 239308, Note_on_c, 0, 48, 35
1, 239313, Control_c, 0, 64, 105
1, 239332, Control_c, 0, 64, 90
1, 239352, Control_c, 0, 64, 68
1, 239367, Control_c, 0, 64, 34
1, 239386, Control_c, 0, 64, 0
1, 239424, Control_c, 0, 64, 16
1, 239442, Control_c, 0, 64, 34
1, 239463, Control_c, 0, 64, 47
1, 239479, Control_c, 0, 64, 55
1, 239499, Control_c, 0, 64, 61
1, 239519, Control_c, 0, 64, 66
1, 239534, Control_c, 0, 64, 71
1, 239553, Control_c, 0, 64, 78
1, 239559, Note_off_c, 0, 75, 62
1, 239572, Control_c, 0, 64, 86
1, 239590, Control_c, 0, 64, 92
1, 239600, Note_off_c, 0, 57, 41
1, 239607, Note_off_c, 0, 72, 50
1, 239622, Note_off_c, 0, 46, 39
1, 239625, Note_off_c, 0, 48, 34
1, 239625, Control_c, 0, 64, 98
1, 239663, Control_c, 0, 64, 103
1, 239822, Note_on_c, 0, 46, 37
1, 239823, Note_on_c, 0, 72, 45
1, 239823, Note_on_c, 0, 75, 57
1, 239829, Note_on_c, 0, 48, 32
1, 239843, Note_on_c, 0, 57, 29
1, 239886, Control_c, 0, 64, 107
1, 239926, Note_off_c, 0, 72, 55
1, 240024, Note_off_c, 0, 57, 36
1, 240034, Note_off_c, 0, 75, 56
1, 240071, Note_off_c, 0, 46, 41
1, 240073, Note_off_c, 0, 48, 38
1, 240081, Note_on_c, 0, 72, 57
1, 240106, Note_on_c, 0, 69, 41
1, 240159, Control_c, 0, 64, 111
1, 240175, Note_off_c, 0, 69, 56
1, 240186, Note_off_c, 0, 72, 57
1, 240334, Note_on_c, 0, 57, 33
1, 240345, Note_on_c, 0, 75, 59
1, 240347, Note_on_c, 0, 72, 47
1, 240355, Note_on_c, 0, 48, 29
1, 240356, Note_on_c, 0, 46, 25
1, 240526, Note_off_c, 0, 72, 37
1, 240539, Note_off_c, 0, 75, 63
1, 240541, Note_off_c, 0, 57, 39
1, 240568, Note_off_c, 0, 46, 36
1, 240586, Note_off_c, 0, 48, 38
1, 240862, Note_on_c, 0, 57, 23
1, 240867, Note_on_c, 0, 72, 47
1, 240868, Note_on_c, 0, 75, 62
1, 240871, Note_on_c, 0, 48, 30
1, 240909, Note_on_c, 0, 46, 13
1, 240947, Note_off_c, 0, 72, 56
1, 241010, Note_off_c, 0, 46, 40
1, 241082, Note_off_c, 0, 57, 38
1, 241088, Note_off_c, 0, 75, 59
1, 241114, Note_on_c, 0, 72, 64
1, 241145, Note_on_c, 0, 69, 40
1, 241176, Note_off_c, 0, 48, 39
1, 241181, Note_off_c, 0, 69, 54
1, 241225, Note_off_c, 0, 72, 61
1, 241382, Note_on_c, 0, 53, 37
1, 241382, Note_on_c, 0, 75, 60
1, 241387, Note_on_c, 0, 46, 32
1, 241389, Control_c, 0, 64, 106
1, 241394, Note_on_c, 0, 57, 26
1, 241395, Note_on_c, 0, 72, 38
1, 241406, Control_c, 0, 64, 94
1, 241424, Control_c, 0, 64, 74
1, 241443, Control_c, 0, 64, 48
1, 241462, Control_c, 0, 64, 0
1, 241498, Control_c, 0, 64, 30
1, 241515, Control_c, 0, 64, 48
1, 241535, Control_c, 0, 64, 59
1, 241554, Control_c, 0, 64, 65
1, 241572, Control_c, 0, 64, 71
1, 241591, Control_c, 0, 64, 78
1, 241612, Control_c, 0, 64, 88
1, 241614, Note_off_c, 0, 75, 64
1, 241627, Control_c, 0, 64, 97
1, 241636, Note_off_c, 0, 57, 39
1, 241643, Control_c, 0, 64, 104
1, 241660, Note_off_c, 0, 46, 32
1, 241669, Note_off_c, 0, 53, 40
1, 241682, Control_c, 0, 64, 108
1, 241737, Control_c, 0, 64, 113
1, 241843, Note_off_c, 0, 72, 39
1, 241930, Note_on_c, 0, 81, 63
1, 241936, Note_on_c, 0, 75, 45
1, 241938, Note_on_c, 0, 46, 31
1, 241945, Note_on_c, 0, 53, 24
1, 241964, Note_on_c, 0, 57, 14
1, 242128, Note_off_c, 0, 81, 61
1, 242136, Note_off_c, 0, 57, 36
1, 242142, Note_off_c, 0, 46, 43
1, 242162, Note_off_c, 0, 75, 64
1, 242168, Note_off_c, 0, 53, 41
1, 242455, Note_on_c, 0, 53, 29
1, 242461, Note_on_c, 0, 81, 56
1, 242462, Note_on_c, 0, 46, 29
1, 242470, Note_on_c, 0, 72, 39
1, 242477, Note_on_c, 0, 57, 14
1, 242646, Note_off_c, 0, 57, 39
1, 242652, Note_off_c, 0, 46, 33
1, 242659, Note_off_c, 0, 53, 43
1, 242781, Note_off_c, 0, 72, 39
1, 242784, Control_c, 0, 67, 71
1, 242927, Control_c, 0, 67, 76
1, 243014, Note_on_c, 0, 84, 52
1, 243018, Note_on_c, 0, 75, 34
1, 243021, Control_c, 0, 67, 81
1, 243029, Note_on_c, 0, 53, 22
1, 243029, Note_on_c, 0, 46, 31
1, 243038, Note_on_c, 0, 57, 24
1, 243076, Control_c, 0, 67, 86
1, 243086, Note_off_c, 0, 81, 54
1, 243110, Note_off_c, 0, 46, 56
1, 243115, Note_off_c, 0, 53, 57
1, 243149, Control_c, 0, 67, 91
1, 243173, Note_off_c, 0, 75, 56
1, 243211, Note_off_c, 0, 57, 39
1, 243223, Control_c, 0, 67, 95
1, 243298, Note_off_c, 0, 84, 39
1, 243315, Control_c, 0, 67, 102
1, 243333, Control_c, 0, 67, 106
1, 243369, Control_c, 0, 67, 111
1, 243443, Control_c, 0, 67, 115
1, 243600, Note_on_c, 0, 58, 33
1, 243608, Control_c, 0, 64, 109
1, 243608, Note_on_c, 0, 65, 28
1, 243609, Note_on_c, 0, 82, 55
1, 243612, Note_on_c, 0, 74, 45
1, 243628, Control_c, 0, 64, 103
1, 243631, Note_on_c, 0, 62, 35
1, 243646, Control_c, 0, 64, 89
1, 243664, Control_c, 0, 64, 68
1, 243667, Control_c, 0, 67, 119
1, 243684, Control_c, 0, 64, 33
1, 243702, Control_c, 0, 64, 0
1, 243771, Control_c, 0, 64, 26
1, 243790, Control_c, 0, 64, 47
1, 243808, Control_c, 0, 64, 61
1, 243826, Control_c, 0, 64, 70
1, 243844, Control_c, 0, 64, 80
1, 243863, Control_c, 0, 64, 91
1, 243881, Control_c, 0, 64, 101
1, 243900, Control_c, 0, 64, 106
1, 243921, Note_off_c, 0, 74, 51
1, 243940, Note_off_c, 0, 58, 39
1, 243952, Note_off_c, 0, 65, 45
1, 243955, Note_off_c, 0, 62, 41
1, 243956, Control_c, 0, 64, 112
1, 243974, Control_c, 0, 64, 117
1, 243992, Control_c, 0, 64, 123
1, 244010, Control_c, 0, 64, 127
1, 244036, Note_off_c, 0, 82, 53
1, 244124, Note_on_c, 0, 58, 40
1, 244141, Note_on_c, 0, 62, 37
1, 244150, Note_on_c, 0, 65, 28
1, 244247, Note_on_c, 0, 84, 58
1, 244261, Note_on_c, 0, 75, 37
1, 244298, Note_off_c, 0, 75, 49
1, 244354, Note_on_c, 0, 86, 58
1, 244389, Note_on_c, 0, 77, 54
1, 244432, Note_off_c, 0, 77, 63
1, 244441, Note_off_c, 0, 62, 42
1, 244445, Note_off_c, 0, 84, 37
1, 244456, Note_off_c, 0, 65, 42
1, 244476, Note_off_c, 0, 58, 35
1, 244489, Note_off_c, 0, 86, 55
1, 244612, Note_on_c, 0, 62, 35
1, 244612, Note_on_c, 0, 58, 32
1, 244617, Note_on_c, 0, 65, 38
1, 244627, Note_on_c, 0, 82, 69
1, 244631, Note_on_c, 0, 57, 41
1, 244634, Note_on_c, 0, 74, 50
1, 244636, Control_c, 0, 64, 110
1, 244656, Control_c, 0, 64, 89
1, 244656, Control_c, 0, 67, 125
1, 244687, Control_c, 0, 64, 66
1, 244705, Control_c, 0, 64, 44
1, 244743, Control_c, 0, 64, 53
1, 244760, Control_c, 0, 64, 62
1, 244778, Control_c, 0, 64, 69
1, 244796, Control_c, 0, 64, 75
1, 244807, Note_off_c, 0, 74, 54
1, 244814, Control_c, 0, 64, 80
1, 244833, Control_c, 0, 64, 85
1, 244853, Control_c, 0, 64, 89
1, 244886, Note_on_c, 0, 86, 67
1, 244889, Control_c, 0, 64, 95
1, 244903, Note_on_c, 0, 77, 56
1, 244904, Note_off_c, 0, 57, 51
1, 244911, Note_off_c, 0, 62, 43
1, 244918, Note_off_c, 0, 58, 38
1, 244921, Note_off_c, 0, 65, 42
1, 244926, Control_c, 0, 64, 101
1, 244933, Note_off_c, 0, 82, 38
1, 244952, Note_off_c, 0, 77, 63
1, 245001, Control_c, 0, 64, 105
1, 245069, Note_off_c, 0, 86, 54
1, 245134, Note_on_c, 0, 57, 40
1, 245138, Note_on_c, 0, 84, 65
1, 245139, Note_on_c, 0, 62, 39
1, 245149, Note_on_c, 0, 58, 27
1, 245152, Note_on_c, 0, 65, 38
1, 245153, Note_on_c, 0, 75, 54
1, 245205, Note_off_c, 0, 75, 62
1, 245250, Note_off_c, 0, 84, 62
1, 245319, Note_off_c, 0, 57, 56
1, 245377, Note_off_c, 0, 65, 45
1, 245380, Note_on_c, 0, 77, 64
1, 245386, Note_off_c, 0, 62, 43
1, 245396, Note_on_c, 0, 72, 50
1, 245431, Note_off_c, 0, 72, 56
1, 245464, Note_off_c, 0, 77, 60
1, 245553, Poly_aftertouch_c, 0, 58, 24
1, 245584, Note_off_c, 0, 58, 0
1, 245662, Control_c, 0, 64, 100
1, 245679, Control_c, 0, 64, 96
1, 245681, Note_on_c, 0, 82, 50
1, 245688, Note_on_c, 0, 55, 33
1, 245695, Control_c, 0, 64, 87
1, 245699, Note_on_c, 0, 62, 31
1, 245708, Note_on_c, 0, 74, 33
1, 245715, Control_c, 0, 64, 72
1, 245715, Note_on_c, 0, 65, 23
1, 245736, Control_c, 0, 64, 45
1, 245753, Control_c, 0, 64, 0
1, 245825, Poly_aftertouch_c, 0, 58, 32
1, 245864, Control_c, 0, 64, 36
1, 245883, Control_c, 0, 64, 53
1, 245900, Control_c, 0, 64, 61
1, 245920, Control_c, 0, 64, 65
1, 245929, Note_off_c, 0, 74, 48
1, 245936, Control_c, 0, 64, 69
1, 245956, Control_c, 0, 64, 74
1, 245964, Note_off_c, 0, 65, 42
1, 245971, Note_off_c, 0, 62, 38
1, 245974, Control_c, 0, 64, 80
1, 245977, Note_off_c, 0, 55, 42
1, 245980, Poly_aftertouch_c, 0, 58, 0
1, 245993, Control_c, 0, 64, 88
1, 246012, Control_c, 0, 64, 95
1, 246030, Control_c, 0, 64, 101
1, 246068, Control_c, 0, 64, 106
1, 246091, Note_off_c, 0, 82, 53
1, 246140, Control_c, 0, 64, 113
1, 246158, Control_c, 0, 64, 118
1, 246205, Note_on_c, 0, 62, 39
1, 246208, Note_on_c, 0, 58, 16
1, 246211, Note_on_c, 0, 55, 37
1, 246220, Note_on_c, 0, 65, 32
1, 246250, Control_c, 0, 64, 124
1, 246289, Note_on_c, 0, 84, 54
1, 246293, Note_on_c, 0, 75, 43
1, 246324, Note_off_c, 0, 75, 60
1, 246396, Note_off_c, 0, 55, 36
1, 246409, Note_off_c, 0, 65, 38
1, 246412, Note_on_c, 0, 86, 53
1, 246435, Note_off_c, 0, 62, 43
1, 246440, Note_on_c, 0, 77, 54
1, 246471, Note_off_c, 0, 84, 61
1, 246476, Note_off_c, 0, 77, 64
1, 246505, Note_off_c, 0, 58, 29
1, 246565, Note_off_c, 0, 86, 55
1, 246712, Note_on_c, 0, 82, 50
1, 246715, Poly_aftertouch_c, 0, 58, 127
1, 246716, Note_on_c, 0, 62, 42
1, 246716, Note_on_c, 0, 74, 39
1, 246716, Note_on_c, 0, 53, 38
1, 246716, Control_c, 0, 64, 105
1, 246716, Note_on_c, 0, 65, 24
1, 246733, Control_c, 0, 64, 80
1, 246751, Control_c, 0, 64, 52
1, 246770, Control_c, 0, 64, 38
1, 246787, Control_c, 0, 64, 45
1, 246805, Control_c, 0, 64, 54
1, 246824, Control_c, 0, 64, 62
1, 246842, Control_c, 0, 64, 68
1, 246860, Control_c, 0, 64, 72
1, 246879, Control_c, 0, 64, 76
1, 246883, Note_off_c, 0, 74, 38
1, 246897, Control_c, 0, 64, 81
1, 246916, Control_c, 0, 64, 85
1, 246932, Note_on_c, 0, 86, 61
1, 246934, Control_c, 0, 64, 87
1, 246946, Note_on_c, 0, 77, 49
1, 246954, Note_off_c, 0, 65, 39
1, 246973, Note_off_c, 0, 82, 36
1, 246981, Note_off_c, 0, 62, 44
1, 246989, Note_off_c, 0, 77, 50
1, 246992, Poly_aftertouch_c, 0, 58, 0
1, 247006, Note_off_c, 0, 53, 39
1, 247010, Control_c, 0, 64, 94
1, 247028, Control_c, 0, 64, 101
1, 247046, Control_c, 0, 64, 106
1, 247138, Control_c, 0, 64, 114
1, 247144, Note_off_c, 0, 86, 39
1, 247158, Control_c, 0, 64, 120
1, 247175, Control_c, 0, 64, 124
1, 247180, Note_on_c, 0, 58, 37
1, 247191, Note_on_c, 0, 84, 61
1, 247201, Note_on_c, 0, 53, 32
1, 247206, Note_on_c, 0, 62, 43
1, 247207, Note_on_c, 0, 75, 49
1, 247244, Note_off_c, 0, 75, 64
1, 247250, Poly_aftertouch_c, 0, 65, 127
1, 247266, Note_off_c, 0, 84, 60
1, 247271, Note_off_c, 0, 62, 62
1, 247284, Note_off_c, 0, 53, 57
1, 247287, Note_off_c, 0, 58, 56
1, 247301, Poly_aftertouch_c, 0, 65, 0
1, 247428, Note_on_c, 0, 77, 62
1, 247445, Note_on_c, 0, 72, 39
1, 247498, Note_off_c, 0, 72, 53
1, 247530, Note_off_c, 0, 77, 61
1, 247686, Control_c, 0, 64, 113
1, 247704, Control_c, 0, 64, 90
1, 247714, Note_on_c, 0, 82, 60
1, 247723, Control_c, 0, 64, 65
1, 247729, Note_on_c, 0, 55, 36
1, 247730, Note_on_c, 0, 74, 48
1, 247741, Control_c, 0, 64, 33
1, 247746, Note_on_c, 0, 62, 33
1, 247751, Note_on_c, 0, 58, 27
1, 247754, Note_on_c, 0, 51, 32
1, 247760, Control_c, 0, 64, 25
1, 247779, Control_c, 0, 64, 32
1, 247797, Control_c, 0, 64, 49
1, 247816, Control_c, 0, 64, 64
1, 247817, Control_c, 0, 67, 120
1, 247833, Control_c, 0, 64, 74
1, 247836, Note_off_c, 0, 74, 57
1, 247853, Control_c, 0, 64, 86
1, 247855, Control_c, 0, 67, 115
1, 247872, Control_c, 0, 64, 101
1, 247885, Note_off_c, 0, 82, 65
1, 247889, Control_c, 0, 64, 114
1, 247909, Control_c, 0, 64, 120
1, 247951, Note_off_c, 0, 51, 32
1, 247954, Note_off_c, 0, 55, 41
1, 247963, Note_off_c, 0, 58, 36
1, 247963, Note_off_c, 0, 62, 38
1, 247982, Control_c, 0, 64, 125
1, 248203, Note_on_c, 0, 55, 38
1, 248219, Note_on_c, 0, 82, 51
1, 248226, Note_on_c, 0, 62, 29
1, 248227, Note_on_c, 0, 86, 55
1, 248252, Note_off_c, 0, 82, 55
1, 248269, Poly_aftertouch_c, 0, 51, 127
1, 248309, Note_off_c, 0, 86, 63
1, 248309, Note_on_c, 0, 87, 58
1, 248320, Poly_aftertouch_c, 0, 51, 0
1, 248363, Poly_aftertouch_c, 0, 58, 127
1, 248390, Note_off_c, 0, 55, 48
1, 248427, Poly_aftertouch_c, 0, 58, 0
1, 248441, Poly_aftertouch_c, 0, 84, 0
1, 248449, Note_on_c, 0, 86, 62
1, 248460, Note_on_c, 0, 89, 66
1, 248467, Note_off_c, 0, 62, 43
1, 248474, Note_off_c, 0, 87, 37
1, 248493, Note_off_c, 0, 86, 57
1, 248537, Note_off_c, 0, 89, 58
1, 248696, Control_c, 0, 64, 121
1, 248714, Control_c, 0, 64, 97
1, 248721, Note_on_c, 0, 86, 64
1, 248726, Note_on_c, 0, 58, 40
1, 248730, Note_on_c, 0, 82, 60
1, 248732, Note_on_c, 0, 62, 37
1, 248734, Control_c, 0, 64, 68
1, 248737, Note_on_c, 0, 53, 36
1, 248752, Control_c, 0, 64, 38
1, 248772, Control_c, 0, 64, 42
1, 248789, Control_c, 0, 64, 53
1, 248809, Control_c, 0, 64, 65
1, 248826, Control_c, 0, 64, 75
1, 248846, Control_c, 0, 64, 87
1, 248856, Note_off_c, 0, 82, 63
1, 248863, Control_c, 0, 64, 97
1, 248881, Control_c, 0, 64, 105
1, 248922, Note_off_c, 0, 86, 57
1, 248986, Note_on_c, 0, 82, 64
1, 248987, Note_off_c, 0, 53, 40
1, 248989, Note_on_c, 0, 74, 57
1, 248990, Control_c, 0, 64, 110
1, 249008, Note_off_c, 0, 58, 40
1, 249021, Note_off_c, 0, 62, 42
1, 249030, Note_off_c, 0, 82, 57
1, 249067, Note_off_c, 0, 74, 46
1, 249212, Control_c, 0, 64, 105
1, 249231, Note_on_c, 0, 58, 42
1, 249231, Control_c, 0, 64, 90
1, 249234, Note_on_c, 0, 84, 61
1, 249236, Note_on_c, 0, 75, 58
1, 249247, Note_on_c, 0, 53, 40
1, 249250, Control_c, 0, 64, 70
1, 249255, Note_on_c, 0, 62, 19
1, 249266, Control_c, 0, 64, 56
1, 249284, Control_c, 0, 64, 60
1, 249304, Control_c, 0, 64, 67
1, 249322, Control_c, 0, 64, 77
1, 249356, Control_c, 0, 64, 89
1, 249366, Note_off_c, 0, 75, 59
1, 249375, Control_c, 0, 64, 100
1, 249393, Control_c, 0, 64, 108
1, 249412, Control_c, 0, 64, 112
1, 249453, Note_off_c, 0, 84, 58
1, 249494, Note_off_c, 0, 58, 45
1, 249518, Note_on_c, 0, 81, 64
1, 249528, Note_on_c, 0, 77, 47
1, 249530, Note_off_c, 0, 62, 42
1, 249546, Note_off_c, 0, 53, 36
1, 249576, Note_off_c, 0, 77, 48
1, 249627, Note_off_c, 0, 81, 58
1, 249797, Control_c, 0, 64, 101
1, 249808, Note_on_c, 0, 55, 42
1, 249810, Note_on_c, 0, 82, 61
1, 249811, Note_on_c, 0, 62, 40
1, 249815, Control_c, 0, 64, 82
1, 249821, Note_on_c, 0, 74, 51
1, 249824, Note_on_c, 0, 58, 34
1, 249835, Control_c, 0, 64, 59
1, 249853, Control_c, 0, 64, 44
1, 249873, Control_c, 0, 64, 48
1, 249891, Control_c, 0, 64, 58
1, 249908, Control_c, 0, 64, 67
1, 249926, Control_c, 0, 64, 76
1, 249946, Control_c, 0, 64, 87
1, 249964, Control_c, 0, 64, 96
1, 249965, Note_off_c, 0, 74, 60
1, 249981, Control_c, 0, 64, 104
1, 249997, Note_off_c, 0, 82, 63
1, 250000, Control_c, 0, 64, 109
1, 250048, Note_off_c, 0, 58, 39
1, 250053, Note_off_c, 0, 62, 44
1, 250090, Note_off_c, 0, 55, 39
1, 250093, Control_c, 0, 64, 113
1, 250222, Control_c, 0, 64, 118
1, 250371, Note_on_c, 0, 53, 40
1, 250374, Note_on_c, 0, 58, 39
1, 250389, Note_on_c, 0, 86, 55
1, 250394, Note_on_c, 0, 62, 27
1, 250402, Note_on_c, 0, 82, 35
1, 250441, Note_off_c, 0, 53, 60
1, 250442, Note_off_c, 0, 82, 56
1, 250498, Note_on_c, 0, 87, 53
1, 250520, Note_on_c, 0, 84, 33
1, 250531, Note_off_c, 0, 86, 37
1, 250563, Note_off_c, 0, 84, 55
1, 250611, Note_off_c, 0, 87, 54
1, 250637, Note_on_c, 0, 89, 59
1, 250646, Note_on_c, 0, 51, 41
1, 250650, Note_on_c, 0, 86, 50
1, 250677, Control_c, 0, 64, 124
1, 250707, Note_off_c, 0, 86, 62
1, 250748, Note_off_c, 0, 89, 62
1, 250787, Note_off_c, 0, 51, 49
1, 250883, Note_off_c, 0, 58, 40
1, 250936, Control_c, 0, 64, 114
1, 250954, Control_c, 0, 64, 96
1, 250963, Note_on_c, 0, 86, 59
1, 250972, Note_on_c, 0, 53, 44
1, 250974, Control_c, 0, 64, 73
1, 250979, Note_on_c, 0, 82, 48
1, 250992, Control_c, 0, 64, 47
1, 251011, Control_c, 0, 64, 35
1, 251030, Control_c, 0, 64, 43
1, 251038, Note_off_c, 0, 62, 44
1, 251048, Control_c, 0, 64, 55
1, 251065, Control_c, 0, 64, 66
1, 251083, Control_c, 0, 64, 75
1, 251103, Control_c, 0, 64, 85
1, 251122, Control_c, 0, 64, 95
1, 251129, Note_off_c, 0, 82, 61
1, 251137, Control_c, 0, 64, 105
1, 251157, Control_c, 0, 64, 113
1, 251175, Control_c, 0, 64, 118
1, 251239, Note_off_c, 0, 53, 59
1, 251245, Control_c, 0, 64, 122
1, 251314, Note_off_c, 0, 86, 34
1, 251326, Note_on_c, 0, 82, 56
1, 251332, Note_on_c, 0, 74, 51
1, 251382, Note_off_c, 0, 82, 58
1, 251392, Control_c, 0, 64, 126
1, 251429, Note_off_c, 0, 74, 53
1, 251705, Note_on_c, 0, 84, 50
1, 251705, Note_on_c, 0, 75, 46
1, 251725, Control_c, 0, 64, 121
1, 251730, Note_on_c, 0, 41, 37
1, 251763, Control_c, 0, 64, 108
1, 251780, Control_c, 0, 64, 88
1, 251798, Control_c, 0, 64, 60
1, 251817, Control_c, 0, 64, 0
1, 251835, Poly_aftertouch_c, 0, 53, 0
1, 251908, Control_c, 0, 64, 37
1, 251927, Control_c, 0, 64, 55
1, 251945, Control_c, 0, 64, 64
1, 251965, Control_c, 0, 64, 70
1, 251983, Control_c, 0, 64, 74
1, 252000, Control_c, 0, 64, 79
1, 252018, Control_c, 0, 64, 87
1, 252037, Control_c, 0, 64, 99
1, 252056, Control_c, 0, 64, 110
1, 252073, Control_c, 0, 64, 115
1, 252096, Note_off_c, 0, 75, 59
1, 252200, Control_c, 0, 64, 121
1, 252251, Note_off_c, 0, 84, 44
1, 252253, Note_on_c, 0, 81, 53
1, 252281, Note_on_c, 0, 72, 32
1, 252292, Control_c, 0, 64, 126
1, 252408, Note_off_c, 0, 81, 63
1, 252421, Note_off_c, 0, 41, 41
1, 252455, Note_off_c, 0, 72, 42
1, 253176, Note_on_c, 0, 82, 49
1, 253176, Note_on_c, 0, 74, 39
1, 253189, Note_on_c, 0, 70, 38
1, 253200, Note_on_c, 0, 34, 19
1, 253204, Note_on_c, 0, 46, 30
1, 253245, Control_c, 0, 64, 121
1, 253263, Control_c, 0, 64, 116
1, 253280, Control_c, 0, 64, 111
1, 253300, Control_c, 0, 64, 107
1, 253317, Control_c, 0, 64, 102
1, 253337, Control_c, 0, 64, 97
1, 253355, Control_c, 0, 64, 92
1, 253374, Control_c, 0, 64, 86
1, 253393, Control_c, 0, 64, 79
1, 253409, Control_c, 0, 64, 70
1, 253429, Control_c, 0, 64, 62
1, 253447, Control_c, 0, 64, 57
1, 253520, Control_c, 0, 64, 53
1, 253538, Control_c, 0, 64, 51
1, 253594, Control_c, 0, 64, 48
1, 253613, Control_c, 0, 64, 44
1, 253632, Control_c, 0, 64, 36
1, 253649, Control_c, 0, 64, 32
1, 253705, Control_c, 0, 64, 24
1, 253722, Control_c, 0, 64, 14
1, 253740, Control_c, 0, 64, 0
1, 254787, Control_c, 0, 67, 111
1, 254895, Control_c, 0, 67, 104
1, 255150, Control_c, 0, 67, 99
1, 255188, Control_c, 0, 67, 95
1, 255298, Control_c, 0, 67, 91
1, 255446, Control_c, 0, 67, 87
1, 255704, Control_c, 0, 64, 12
1, 255722, Control_c, 0, 64, 20
1, 255741, Control_c, 0, 64, 27
1, 255758, Control_c, 0, 64, 33
1, 255776, Control_c, 0, 64, 37
1, 255796, Control_c, 0, 64, 40
1, 255814, Control_c, 0, 64, 43
1, 255831, Control_c, 0, 64, 45
1, 255849, Control_c, 0, 64, 47
1, 255887, Control_c, 0, 64, 50
1, 255921, Control_c, 0, 64, 52
1, 255939, Control_c, 0, 64, 55
1, 255959, Control_c, 0, 64, 57
1, 256012, Control_c, 0, 64, 59
1, 256031, Control_c, 0, 64, 60
1, 256050, Control_c, 0, 64, 62
1, 256066, Control_c, 0, 64, 63
1, 256104, Control_c, 0, 64, 64
1, 256123, Control_c, 0, 64, 65
1, 256141, Control_c, 0, 64, 67
1, 256160, Control_c, 0, 64, 68
1, 256216, Control_c, 0, 64, 70
1, 256253, Control_c, 0, 64, 73
1, 256270, Control_c, 0, 64, 75
1, 256307, Control_c, 0, 64, 78
1, 256325, Control_c, 0, 64, 80
1, 256343, Control_c, 0, 64, 85
1, 256363, Control_c, 0, 64, 91
1, 256380, Control_c, 0, 64, 96
1, 256418, Control_c, 0, 64, 100
1, 256509, Control_c, 0, 64, 104
1, 256545, Control_c, 0, 64, 110
1, 256582, Control_c, 0, 64, 114
1, 256638, Control_c, 0, 64, 119
1, 256677, Control_c, 0, 64, 125
1, 257260, Control_c, 0, 64, 120
1, 257316, Control_c, 0, 64, 115
1, 257353, Control_c, 0, 64, 108
1, 257371, Control_c, 0, 64, 103
1, 257407, Control_c, 0, 64, 99
1, 257480, Control_c, 0, 64, 94
1, 257499, Control_c, 0, 67, 82
1, 257684, Control_c, 0, 64, 90
1, 257757, Control_c, 0, 64, 87
1, 257791, Control_c, 0, 64, 85
1, 257809, Control_c, 0, 64, 83
1, 257847, Control_c, 0, 64, 80
1, 257864, Control_c, 0, 64, 78
1, 257868, Poly_aftertouch_c, 0, 34, 24
1, 257881, Control_c, 0, 64, 76
1, 257901, Control_c, 0, 64, 74
1, 257937, Control_c, 0, 64, 72
1, 257974, Control_c, 0, 64, 69
1, 257992, Control_c, 0, 64, 67
1, 258011, Control_c, 0, 64, 66
1, 258049, Control_c, 0, 64, 65
1, 258085, Control_c, 0, 64, 63
1, 258103, Control_c, 0, 64, 62
1, 258158, Control_c, 0, 64, 61
1, 258173, Poly_aftertouch_c, 0, 70, 24
1, 258181, Poly_aftertouch_c, 0, 46, 24
1, 258187, Poly_aftertouch_c, 0, 34, 22
1, 258193, Control_c, 0, 64, 60
1, 258231, Control_c, 0, 64, 58
1, 258288, Control_c, 0, 64, 55
1, 258318, Note_off_c, 0, 34, 19
1, 258362, Control_c, 0, 64, 53
1, 258376, Poly_aftertouch_c, 0, 82, 24
1, 258413, Note_off_c, 0, 70, 22
1, 258414, Control_c, 0, 64, 51
1, 258417, Note_off_c, 0, 46, 19
1, 258422, Note_off_c, 0, 82, 33
1, 258463, Note_off_c, 0, 74, 33
1, 258471, Control_c, 0, 64, 49
1, 258545, Control_c, 0, 64, 47
1, 258619, Control_c, 0, 64, 45
1, 258744, Control_c, 0, 64, 43
1, 259002, Control_c, 0, 64, 41
1, 259200, End_track
0, 0, End_of_file
