0, 0, Header, 1, 3, 240
1, 0, Start_track
1, 0, Title_t, "--------"
1, 0, Time_signature, 3, 3, 12, 8
1, 0, Key_signature, 0, "major"
1, 0, Tempo, 833333
1, 0, End_track
2, 0, Start_track
2, 0, Title_t, "Harpsichord RH"
2, 0, Program_c, 0, 6
2, 0, Control_c, 0, 7, 100
2, 0, Control_c, 0, 10, 80
2, 60, Note_on_c, 0, 76, 107
2, 170, Note_on_c, 0, 76, 0
2, 180, Note_on_c, 0, 75, 107
2, 290, Note_on_c, 0, 75, 0
2, 300, Note_on_c, 0, 74, 107
2, 415, Note_on_c, 0, 74, 0
2, 420, Note_on_c, 0, 73, 107
2, 530, Note_on_c, 0, 73, 0
2, 540, Note_on_c, 0, 71, 107
2, 650, Note_on_c, 0, 71, 0
2, 660, Note_on_c, 0, 69, 107
2, 775, Note_on_c, 0, 69, 0
2, 780, Note_on_c, 0, 68, 107
2, 890, Note_on_c, 0, 68, 0
2, 900, Note_on_c, 0, 66, 107
2, 1010, Note_on_c, 0, 66, 0
2, 1020, Note_on_c, 0, 68, 107
2, 1075, Note_on_c, 0, 68, 0
2, 1080, Note_on_c, 0, 68, 107
2, 1139, Note_on_c, 0, 68, 0
2, 1140, Note_on_c, 0, 71, 107
2, 1169, Note_on_c, 0, 71, 0
2, 1170, Note_on_c, 0, 69, 107
2, 1199, Note_on_c, 0, 69, 0
2, 1200, Note_on_c, 0, 71, 107
2, 1259, Note_on_c, 0, 71, 0
2, 1260, Note_on_c, 0, 68, 107
2, 1289, Note_on_c, 0, 68, 0
2, 1290, Note_on_c, 0, 66, 107
2, 1319, Note_on_c, 0, 66, 0
2, 1320, Note_on_c, 0, 68, 107
2, 1379, Note_on_c, 0, 68, 0
2, 1380, Note_on_c, 0, 64, 107
2, 1409, Note_on_c, 0, 64, 0
2, 1410, Note_on_c, 0, 63, 107
2, 1439, Note_on_c, 0, 63, 0
2, 1440, Note_on_c, 0, 64, 107
2, 1560, Note_on_c, 0, 64, 0
2, 1560, Note_on_c, 0, 66, 107
2, 1680, Note_on_c, 0, 66, 0
2, 1680, Note_on_c, 0, 68, 107
2, 1800, Note_on_c, 0, 68, 0
2, 1800, Note_on_c, 0, 69, 107
2, 1920, Note_on_c, 0, 69, 0
2, 1920, Note_on_c, 0, 71, 107
2, 2040, Note_on_c, 0, 71, 0
2, 2040, Note_on_c, 0, 73, 107
2, 2160, Note_on_c, 0, 73, 0
2, 2160, Note_on_c, 0, 75, 107
2, 2278, Note_on_c, 0, 75, 0
2, 2280, Note_on_c, 0, 76, 107
2, 2339, Note_on_c, 0, 76, 0
2, 2340, Note_on_c, 0, 75, 107
2, 2399, Note_on_c, 0, 75, 0
2, 2400, Note_on_c, 0, 73, 107
2, 2459, Note_on_c, 0, 73, 0
2, 2460, Note_on_c, 0, 71, 107
2, 2519, Note_on_c, 0, 71, 0
2, 2520, Note_on_c, 0, 76, 107
2, 2640, Note_on_c, 0, 76, 0
2, 2640, Note_on_c, 0, 64, 107
2, 2760, Note_on_c, 0, 64, 0
2, 2940, Note_on_c, 0, 80, 107
2, 3060, Note_on_c, 0, 80, 0
2, 3060, Note_on_c, 0, 76, 107
2, 3180, Note_on_c, 0, 76, 0
2, 3180, Note_on_c, 0, 73, 107
2, 3299, Note_on_c, 0, 73, 0
2, 3300, Note_on_c, 0, 76, 107
2, 3329, Note_on_c, 0, 76, 0
2, 3330, Note_on_c, 0, 75, 107
2, 3359, Note_on_c, 0, 75, 0
2, 3360, Note_on_c, 0, 76, 107
2, 3419, Note_on_c, 0, 76, 0
2, 3420, Note_on_c, 0, 73, 107
2, 3479, Note_on_c, 0, 73, 0
2, 3480, Note_on_c, 0, 70, 107
2, 3539, Note_on_c, 0, 70, 0
2, 3540, Note_on_c, 0, 66, 107
2, 3660, Note_on_c, 0, 66, 0
2, 3660, Note_on_c, 0, 78, 107
2, 3780, Note_on_c, 0, 78, 0
2, 3780, Note_on_c, 0, 75, 107
2, 3900, Note_on_c, 0, 75, 0
2, 3900, Note_on_c, 0, 71, 107
2, 4019, Note_on_c, 0, 71, 0
2, 4020, Note_on_c, 0, 75, 107
2, 4049, Note_on_c, 0, 75, 0
2, 4050, Note_on_c, 0, 73, 107
2, 4079, Note_on_c, 0, 73, 0
2, 4080, Note_on_c, 0, 75, 107
2, 4139, Note_on_c, 0, 75, 0
2, 4140, Note_on_c, 0, 71, 107
2, 4199, Note_on_c, 0, 71, 0
2, 4200, Note_on_c, 0, 68, 107
2, 4259, Note_on_c, 0, 68, 0
2, 4260, Note_on_c, 0, 64, 107
2, 4380, Note_on_c, 0, 64, 0
2, 4380, Note_on_c, 0, 76, 107
2, 4500, Note_on_c, 0, 76, 0
2, 4500, Note_on_c, 0, 73, 107
2, 4620, Note_on_c, 0, 73, 0
2, 4620, Note_on_c, 0, 70, 107
2, 4740, Note_on_c, 0, 70, 0
2, 4740, Note_on_c, 0, 80, 107
2, 4860, Note_on_c, 0, 80, 0
2, 4860, Note_on_c, 0, 78, 107
2, 4980, Note_on_c, 0, 78, 0
2, 4980, Note_on_c, 0, 76, 107
2, 5100, Note_on_c, 0, 76, 0
2, 5100, Note_on_c, 0, 75, 107
2, 5220, Note_on_c, 0, 75, 0
2, 5220, Note_on_c, 0, 73, 107
2, 5340, Note_on_c, 0, 73, 0
2, 5340, Note_on_c, 0, 71, 107
2, 5400, Note_on_c, 0, 71, 0
2, 5400, Note_on_c, 0, 70, 107
2, 5459, Note_on_c, 0, 70, 0
2, 5460, Note_on_c, 0, 64, 107
2, 5489, Note_on_c, 0, 64, 0
2, 5490, Note_on_c, 0, 63, 107
2, 5519, Note_on_c, 0, 63, 0
2, 5520, Note_on_c, 0, 64, 107
2, 5579, Note_on_c, 0, 64, 0
2, 5580, Note_on_c, 0, 70, 107
2, 5609, Note_on_c, 0, 70, 0
2, 5610, Note_on_c, 0, 68, 107
2, 5639, Note_on_c, 0, 68, 0
2, 5640, Note_on_c, 0, 70, 107
2, 5699, Note_on_c, 0, 70, 0
2, 5700, Note_on_c, 0, 71, 107
2, 5729, Note_on_c, 0, 71, 0
2, 5730, Note_on_c, 0, 70, 107
2, 5759, Note_on_c, 0, 70, 0
2, 5760, Note_on_c, 0, 71, 107
2, 5819, Note_on_c, 0, 71, 0
2, 5820, Note_on_c, 0, 63, 107
2, 5879, Note_on_c, 0, 63, 0
2, 5880, Note_on_c, 0, 61, 107
2, 5939, Note_on_c, 0, 61, 0
2, 5940, Note_on_c, 0, 71, 107
2, 5999, Note_on_c, 0, 71, 0
2, 6000, Note_on_c, 0, 61, 107
2, 6059, Note_on_c, 0, 61, 0
2, 6060, Note_on_c, 0, 70, 107
2, 6119, Note_on_c, 0, 70, 0
2, 6120, Note_on_c, 0, 71, 107
2, 6240, Note_on_c, 0, 71, 0
2, 6300, Note_on_c, 0, 71, 107
2, 6360, Note_on_c, 0, 71, 0
2, 6360, Note_on_c, 0, 75, 107
2, 6420, Note_on_c, 0, 75, 0
2, 6420, Note_on_c, 0, 78, 107
2, 6480, Note_on_c, 0, 78, 0
2, 6480, Note_on_c, 0, 83, 107
2, 6600, Note_on_c, 0, 83, 0
2, 6660, Note_on_c, 0, 83, 107
2, 6720, Note_on_c, 0, 83, 0
2, 6720, Note_on_c, 0, 78, 107
2, 6780, Note_on_c, 0, 78, 0
2, 6780, Note_on_c, 0, 75, 107
2, 6840, Note_on_c, 0, 75, 0
2, 6840, Note_on_c, 0, 71, 107
2, 6900, Note_on_c, 0, 71, 0
2, 6900, Note_on_c, 0, 66, 107
2, 6960, Note_on_c, 0, 66, 0
2, 6960, Note_on_c, 0, 63, 107
2, 7020, Note_on_c, 0, 63, 0
2, 7020, Note_on_c, 0, 59, 107
2, 7116, Note_on_c, 0, 59, 0
2, 7260, Note_on_c, 0, 76, 107
2, 7370, Note_on_c, 0, 76, 0
2, 7380, Note_on_c, 0, 75, 107
2, 7490, Note_on_c, 0, 75, 0
2, 7500, Note_on_c, 0, 74, 107
2, 7615, Note_on_c, 0, 74, 0
2, 7620, Note_on_c, 0, 73, 107
2, 7730, Note_on_c, 0, 73, 0
2, 7740, Note_on_c, 0, 71, 107
2, 7850, Note_on_c, 0, 71, 0
2, 7860, Note_on_c, 0, 69, 107
2, 7975, Note_on_c, 0, 69, 0
2, 7980, Note_on_c, 0, 68, 107
2, 8090, Note_on_c, 0, 68, 0
2, 8100, Note_on_c, 0, 66, 107
2, 8210, Note_on_c, 0, 66, 0
2, 8220, Note_on_c, 0, 68, 107
2, 8275, Note_on_c, 0, 68, 0
2, 8280, Note_on_c, 0, 68, 107
2, 8339, Note_on_c, 0, 68, 0
2, 8340, Note_on_c, 0, 71, 107
2, 8369, Note_on_c, 0, 71, 0
2, 8370, Note_on_c, 0, 69, 107
2, 8399, Note_on_c, 0, 69, 0
2, 8400, Note_on_c, 0, 71, 107
2, 8459, Note_on_c, 0, 71, 0
2, 8460, Note_on_c, 0, 68, 107
2, 8489, Note_on_c, 0, 68, 0
2, 8490, Note_on_c, 0, 66, 107
2, 8519, Note_on_c, 0, 66, 0
2, 8520, Note_on_c, 0, 68, 107
2, 8579, Note_on_c, 0, 68, 0
2, 8580, Note_on_c, 0, 64, 107
2, 8609, Note_on_c, 0, 64, 0
2, 8610, Note_on_c, 0, 63, 107
2, 8639, Note_on_c, 0, 63, 0
2, 8640, Note_on_c, 0, 64, 107
2, 8760, Note_on_c, 0, 64, 0
2, 8760, Note_on_c, 0, 66, 107
2, 8880, Note_on_c, 0, 66, 0
2, 8880, Note_on_c, 0, 68, 107
2, 9000, Note_on_c, 0, 68, 0
2, 9000, Note_on_c, 0, 69, 107
2, 9120, Note_on_c, 0, 69, 0
2, 9120, Note_on_c, 0, 71, 107
2, 9240, Note_on_c, 0, 71, 0
2, 9240, Note_on_c, 0, 73, 107
2, 9360, Note_on_c, 0, 73, 0
2, 9360, Note_on_c, 0, 75, 107
2, 9478, Note_on_c, 0, 75, 0
2, 9480, Note_on_c, 0, 76, 107
2, 9539, Note_on_c, 0, 76, 0
2, 9540, Note_on_c, 0, 75, 107
2, 9599, Note_on_c, 0, 75, 0
2, 9600, Note_on_c, 0, 73, 107
2, 9659, Note_on_c, 0, 73, 0
2, 9660, Note_on_c, 0, 71, 107
2, 9719, Note_on_c, 0, 71, 0
2, 9720, Note_on_c, 0, 76, 107
2, 9840, Note_on_c, 0, 76, 0
2, 9840, Note_on_c, 0, 64, 107
2, 9960, Note_on_c, 0, 64, 0
2, 10140, Note_on_c, 0, 80, 107
2, 10260, Note_on_c, 0, 80, 0
2, 10260, Note_on_c, 0, 76, 107
2, 10380, Note_on_c, 0, 76, 0
2, 10380, Note_on_c, 0, 73, 107
2, 10499, Note_on_c, 0, 73, 0
2, 10500, Note_on_c, 0, 76, 107
2, 10529, Note_on_c, 0, 76, 0
2, 10530, Note_on_c, 0, 75, 107
2, 10559, Note_on_c, 0, 75, 0
2, 10560, Note_on_c, 0, 76, 107
2, 10619, Note_on_c, 0, 76, 0
2, 10620, Note_on_c, 0, 73, 107
2, 10679, Note_on_c, 0, 73, 0
2, 10680, Note_on_c, 0, 70, 107
2, 10739, Note_on_c, 0, 70, 0
2, 10740, Note_on_c, 0, 66, 107
2, 10860, Note_on_c, 0, 66, 0
2, 10860, Note_on_c, 0, 78, 107
2, 10980, Note_on_c, 0, 78, 0
2, 10980, Note_on_c, 0, 75, 107
2, 11100, Note_on_c, 0, 75, 0
2, 11100, Note_on_c, 0, 71, 107
2, 11219, Note_on_c, 0, 71, 0
2, 11220, Note_on_c, 0, 75, 107
2, 11249, Note_on_c, 0, 75, 0
2, 11250, Note_on_c, 0, 73, 107
2, 11279, Note_on_c, 0, 73, 0
2, 11280, Note_on_c, 0, 75, 107
2, 11339, Note_on_c, 0, 75, 0
2, 11340, Note_on_c, 0, 71, 107
2, 11399, Note_on_c, 0, 71, 0
2, 11400, Note_on_c, 0, 68, 107
2, 11459, Note_on_c, 0, 68, 0
2, 11460, Note_on_c, 0, 64, 107
2, 11580, Note_on_c, 0, 64, 0
2, 11580, Note_on_c, 0, 76, 107
2, 11700, Note_on_c, 0, 76, 0
2, 11700, Note_on_c, 0, 73, 107
2, 11820, Note_on_c, 0, 73, 0
2, 11820, Note_on_c, 0, 70, 107
2, 11940, Note_on_c, 0, 70, 0
2, 11940, Note_on_c, 0, 80, 107
2, 12060, Note_on_c, 0, 80, 0
2, 12060, Note_on_c, 0, 78, 107
2, 12180, Note_on_c, 0, 78, 0
2, 12180, Note_on_c, 0, 76, 107
2, 12300, Note_on_c, 0, 76, 0
2, 12300, Note_on_c, 0, 75, 107
2, 12420, Note_on_c, 0, 75, 0
2, 12420, Note_on_c, 0, 73, 107
2, 12540, Note_on_c, 0, 73, 0
2, 12540, Note_on_c, 0, 71, 107
2, 12600, Note_on_c, 0, 71, 0
2, 12600, Note_on_c, 0, 70, 107
2, 12659, Note_on_c, 0, 70, 0
2, 12660, Note_on_c, 0, 64, 107
2, 12689, Note_on_c, 0, 64, 0
2, 12690, Note_on_c, 0, 63, 107
2, 12719, Note_on_c, 0, 63, 0
2, 12720, Note_on_c, 0, 64, 107
2, 12779, Note_on_c, 0, 64, 0
2, 12780, Note_on_c, 0, 70, 107
2, 12809, Note_on_c, 0, 70, 0
2, 12810, Note_on_c, 0, 68, 107
2, 12839, Note_on_c, 0, 68, 0
2, 12840, Note_on_c, 0, 70, 107
2, 12899, Note_on_c, 0, 70, 0
2, 12900, Note_on_c, 0, 71, 107
2, 12929, Note_on_c, 0, 71, 0
2, 12930, Note_on_c, 0, 70, 107
2, 12959, Note_on_c, 0, 70, 0
2, 12960, Note_on_c, 0, 71, 107
2, 13019, Note_on_c, 0, 71, 0
2, 13020, Note_on_c, 0, 63, 107
2, 13079, Note_on_c, 0, 63, 0
2, 13080, Note_on_c, 0, 61, 107
2, 13139, Note_on_c, 0, 61, 0
2, 13140, Note_on_c, 0, 71, 107
2, 13199, Note_on_c, 0, 71, 0
2, 13200, Note_on_c, 0, 61, 107
2, 13259, Note_on_c, 0, 61, 0
2, 13260, Note_on_c, 0, 70, 107
2, 13319, Note_on_c, 0, 70, 0
2, 13320, Note_on_c, 0, 71, 107
2, 13440, Note_on_c, 0, 71, 0
2, 13500, Note_on_c, 0, 71, 107
2, 13560, Note_on_c, 0, 71, 0
2, 13560, Note_on_c, 0, 75, 107
2, 13620, Note_on_c, 0, 75, 0
2, 13620, Note_on_c, 0, 78, 107
2, 13680, Note_on_c, 0, 78, 0
2, 13680, Note_on_c, 0, 83, 107
2, 13800, Note_on_c, 0, 83, 0
2, 13860, Note_on_c, 0, 83, 107
2, 13920, Note_on_c, 0, 83, 0
2, 13920, Note_on_c, 0, 78, 107
2, 13980, Note_on_c, 0, 78, 0
2, 13980, Note_on_c, 0, 75, 107
2, 14040, Note_on_c, 0, 75, 0
2, 14040, Note_on_c, 0, 71, 107
2, 14100, Note_on_c, 0, 71, 0
2, 14100, Note_on_c, 0, 66, 107
2, 14160, Note_on_c, 0, 66, 0
2, 14160, Note_on_c, 0, 63, 107
2, 14220, Note_on_c, 0, 63, 0
2, 14220, Note_on_c, 0, 59, 107
2, 14316, Note_on_c, 0, 59, 0
2, 14400, Note_on_c, 0, 59, 107
2, 14460, Note_on_c, 0, 59, 0
2, 14520, Note_on_c, 0, 61, 107
2, 14640, Note_on_c, 0, 61, 0
2, 14640, Note_on_c, 0, 63, 107
2, 14760, Note_on_c, 0, 63, 0
2, 14760, Note_on_c, 0, 64, 107
2, 14880, Note_on_c, 0, 64, 0
2, 14880, Note_on_c, 0, 66, 107
2, 15000, Note_on_c, 0, 66, 0
2, 15000, Note_on_c, 0, 68, 107
2, 15120, Note_on_c, 0, 68, 0
2, 15120, Note_on_c, 0, 70, 107
2, 15240, Note_on_c, 0, 70, 0
2, 15240, Note_on_c, 0, 71, 107
2, 15300, Note_on_c, 0, 71, 0
2, 15300, Note_on_c, 0, 70, 107
2, 15360, Note_on_c, 0, 70, 0
2, 15360, Note_on_c, 0, 68, 107
2, 15420, Note_on_c, 0, 68, 0
2, 15420, Note_on_c, 0, 66, 107
2, 15480, Note_on_c, 0, 66, 0
2, 15480, Note_on_c, 0, 71, 107
2, 15600, Note_on_c, 0, 71, 0
2, 15600, Note_on_c, 0, 59, 107
2, 15720, Note_on_c, 0, 59, 0
2, 15900, Note_on_c, 0, 83, 107
2, 16020, Note_on_c, 0, 83, 0
2, 16020, Note_on_c, 0, 82, 107
2, 16140, Note_on_c, 0, 82, 0
2, 16140, Note_on_c, 0, 81, 107
2, 16260, Note_on_c, 0, 81, 0
2, 16260, Note_on_c, 0, 80, 107
2, 16380, Note_on_c, 0, 80, 0
2, 16380, Note_on_c, 0, 78, 107
2, 16500, Note_on_c, 0, 78, 0
2, 16500, Note_on_c, 0, 76, 107
2, 16620, Note_on_c, 0, 76, 0
2, 16620, Note_on_c, 0, 75, 107
2, 16740, Note_on_c, 0, 75, 0
2, 16740, Note_on_c, 0, 73, 107
2, 16860, Note_on_c, 0, 73, 0
2, 16860, Note_on_c, 0, 75, 107
2, 16890, Note_on_c, 0, 75, 0
2, 16920, Note_on_c, 0, 75, 107
2, 16979, Note_on_c, 0, 75, 0
2, 16980, Note_on_c, 0, 78, 107
2, 17009, Note_on_c, 0, 78, 0
2, 17010, Note_on_c, 0, 76, 107
2, 17039, Note_on_c, 0, 76, 0
2, 17040, Note_on_c, 0, 78, 107
2, 17099, Note_on_c, 0, 78, 0
2, 17100, Note_on_c, 0, 75, 107
2, 17129, Note_on_c, 0, 75, 0
2, 17130, Note_on_c, 0, 73, 107
2, 17159, Note_on_c, 0, 73, 0
2, 17160, Note_on_c, 0, 75, 107
2, 17219, Note_on_c, 0, 75, 0
2, 17220, Note_on_c, 0, 71, 107
2, 17249, Note_on_c, 0, 71, 0
2, 17250, Note_on_c, 0, 70, 107
2, 17279, Note_on_c, 0, 70, 0
2, 17280, Note_on_c, 0, 71, 107
2, 17339, Note_on_c, 0, 71, 0
2, 17340, Note_on_c, 0, 75, 107
2, 17369, Note_on_c, 0, 75, 0
2, 17370, Note_on_c, 0, 73, 107
2, 17399, Note_on_c, 0, 73, 0
2, 17400, Note_on_c, 0, 75, 107
2, 17459, Note_on_c, 0, 75, 0
2, 17460, Note_on_c, 0, 80, 107
2, 17489, Note_on_c, 0, 80, 0
2, 17490, Note_on_c, 0, 79, 107
2, 17519, Note_on_c, 0, 79, 0
2, 17520, Note_on_c, 0, 80, 107
2, 17579, Note_on_c, 0, 80, 0
2, 17580, Note_on_c, 0, 73, 107
2, 17609, Note_on_c, 0, 73, 0
2, 17610, Note_on_c, 0, 71, 107
2, 17639, Note_on_c, 0, 71, 0
2, 17640, Note_on_c, 0, 73, 107
2, 17699, Note_on_c, 0, 73, 0
2, 17700, Note_on_c, 0, 76, 107
2, 17729, Note_on_c, 0, 76, 0
2, 17730, Note_on_c, 0, 75, 107
2, 17759, Note_on_c, 0, 75, 0
2, 17760, Note_on_c, 0, 76, 107
2, 17819, Note_on_c, 0, 76, 0
2, 17820, Note_on_c, 0, 82, 107
2, 17849, Note_on_c, 0, 82, 0
2, 17850, Note_on_c, 0, 80, 107
2, 17879, Note_on_c, 0, 80, 0
2, 17880, Note_on_c, 0, 82, 107
2, 17939, Note_on_c, 0, 82, 0
2, 17940, Note_on_c, 0, 75, 107
2, 17969, Note_on_c, 0, 75, 0
2, 17970, Note_on_c, 0, 73, 107
2, 17999, Note_on_c, 0, 73, 0
2, 18000, Note_on_c, 0, 75, 107
2, 18059, Note_on_c, 0, 75, 0
2, 18060, Note_on_c, 0, 80, 107
2, 18089, Note_on_c, 0, 80, 0
2, 18090, Note_on_c, 0, 79, 107
2, 18119, Note_on_c, 0, 79, 0
2, 18120, Note_on_c, 0, 80, 107
2, 18179, Note_on_c, 0, 80, 0
2, 18180, Note_on_c, 0, 83, 107
2, 18209, Note_on_c, 0, 83, 0
2, 18210, Note_on_c, 0, 82, 107
2, 18239, Note_on_c, 0, 82, 0
2, 18240, Note_on_c, 0, 83, 107
2, 18299, Note_on_c, 0, 83, 0
2, 18300, Note_on_c, 0, 75, 107
2, 18329, Note_on_c, 0, 75, 0
2, 18330, Note_on_c, 0, 74, 107
2, 18359, Note_on_c, 0, 74, 0
2, 18360, Note_on_c, 0, 75, 107
2, 18419, Note_on_c, 0, 75, 0
2, 18420, Note_on_c, 0, 82, 107
2, 18449, Note_on_c, 0, 82, 0
2, 18450, Note_on_c, 0, 80, 107
2, 18479, Note_on_c, 0, 80, 0
2, 18480, Note_on_c, 0, 82, 107
2, 18539, Note_on_c, 0, 82, 0
2, 18540, Note_on_c, 0, 79, 107
2, 18569, Note_on_c, 0, 79, 0
2, 18570, Note_on_c, 0, 77, 107
2, 18599, Note_on_c, 0, 77, 0
2, 18600, Note_on_c, 0, 79, 107
2, 18659, Note_on_c, 0, 79, 0
2, 18660, Note_on_c, 0, 75, 107
2, 18689, Note_on_c, 0, 75, 0
2, 18690, Note_on_c, 0, 74, 107
2, 18719, Note_on_c, 0, 74, 0
2, 18720, Note_on_c, 0, 74, 107
2, 18780, Note_on_c, 0, 74, 0
2, 18780, Note_on_c, 0, 81, 107
2, 18900, Note_on_c, 0, 81, 0
2, 18900, Note_on_c, 0, 80, 107
2, 19020, Note_on_c, 0, 80, 0
2, 19020, Note_on_c, 0, 78, 107
2, 19139, Note_on_c, 0, 78, 0
2, 19140, Note_on_c, 0, 76, 107
2, 19169, Note_on_c, 0, 76, 0
2, 19170, Note_on_c, 0, 75, 107
2, 19199, Note_on_c, 0, 75, 0
2, 19200, Note_on_c, 0, 76, 107
2, 19259, Note_on_c, 0, 76, 0
2, 19260, Note_on_c, 0, 73, 107
2, 19289, Note_on_c, 0, 73, 0
2, 19290, Note_on_c, 0, 72, 107
2, 19319, Note_on_c, 0, 72, 0
2, 19320, Note_on_c, 0, 73, 107
2, 19379, Note_on_c, 0, 73, 0
2, 19380, Note_on_c, 0, 76, 107
2, 19409, Note_on_c, 0, 76, 0
2, 19410, Note_on_c, 0, 75, 107
2, 19439, Note_on_c, 0, 75, 0
2, 19440, Note_on_c, 0, 76, 107
2, 19500, Note_on_c, 0, 76, 0
2, 19500, Note_on_c, 0, 80, 107
2, 19620, Note_on_c, 0, 80, 0
2, 19620, Note_on_c, 0, 78, 107
2, 19740, Note_on_c, 0, 78, 0
2, 19740, Note_on_c, 0, 76, 107
2, 19859, Note_on_c, 0, 76, 0
2, 19860, Note_on_c, 0, 75, 107
2, 19889, Note_on_c, 0, 75, 0
2, 19890, Note_on_c, 0, 73, 107
2, 19919, Note_on_c, 0, 73, 0
2, 19920, Note_on_c, 0, 75, 107
2, 19979, Note_on_c, 0, 75, 0
2, 19980, Note_on_c, 0, 71, 107
2, 20009, Note_on_c, 0, 71, 0
2, 20010, Note_on_c, 0, 70, 107
2, 20039, Note_on_c, 0, 70, 0
2, 20040, Note_on_c, 0, 71, 107
2, 20099, Note_on_c, 0, 71, 0
2, 20100, Note_on_c, 0, 73, 107
2, 20129, Note_on_c, 0, 73, 0
2, 20130, Note_on_c, 0, 71, 107
2, 20159, Note_on_c, 0, 71, 0
2, 20160, Note_on_c, 0, 73, 107
2, 20220, Note_on_c, 0, 73, 0
2, 20220, Note_on_c, 0, 76, 107
2, 20340, Note_on_c, 0, 76, 0
2, 20340, Note_on_c, 0, 75, 107
2, 20460, Note_on_c, 0, 75, 0
2, 20460, Note_on_c, 0, 73, 107
2, 20580, Note_on_c, 0, 73, 0
2, 20580, Note_on_c, 0, 71, 107
2, 20610, Note_on_c, 0, 71, 0
2, 20610, Note_on_c, 0, 70, 107
2, 20640, Note_on_c, 0, 70, 0
2, 20640, Note_on_c, 0, 71, 107
2, 20700, Note_on_c, 0, 71, 0
2, 20700, Note_on_c, 0, 68, 107
2, 20730, Note_on_c, 0, 68, 0
2, 20730, Note_on_c, 0, 67, 107
2, 20760, Note_on_c, 0, 67, 0
2, 20760, Note_on_c, 0, 68, 107
2, 20820, Note_on_c, 0, 68, 0
2, 20820, Note_on_c, 0, 69, 107
2, 20850, Note_on_c, 0, 69, 0
2, 20880, Note_on_c, 0, 69, 107
2, 20940, Note_on_c, 0, 69, 0
2, 20940, Note_on_c, 0, 73, 107
2, 20970, Note_on_c, 0, 73, 0
2, 20970, Note_on_c, 0, 71, 107
2, 21000, Note_on_c, 0, 71, 0
2, 21000, Note_on_c, 0, 73, 107
2, 21060, Note_on_c, 0, 73, 0
2, 21060, Note_on_c, 0, 69, 107
2, 21090, Note_on_c, 0, 69, 0
2, 21090, Note_on_c, 0, 68, 107
2, 21120, Note_on_c, 0, 68, 0
2, 21120, Note_on_c, 0, 69, 107
2, 21180, Note_on_c, 0, 69, 0
2, 21180, Note_on_c, 0, 76, 107
2, 21210, Note_on_c, 0, 76, 0
2, 21240, Note_on_c, 0, 76, 107
2, 21299, Note_on_c, 0, 76, 0
2, 21300, Note_on_c, 0, 67, 107
2, 21329, Note_on_c, 0, 67, 0
2, 21330, Note_on_c, 0, 65, 107
2, 21359, Note_on_c, 0, 65, 0
2, 21360, Note_on_c, 0, 67, 107
2, 21419, Note_on_c, 0, 67, 0
2, 21420, Note_on_c, 0, 70, 107
2, 21449, Note_on_c, 0, 70, 0
2, 21450, Note_on_c, 0, 68, 107
2, 21479, Note_on_c, 0, 68, 0
2, 21480, Note_on_c, 0, 70, 107
2, 21539, Note_on_c, 0, 70, 0
2, 21540, Note_on_c, 0, 59, 107
2, 21569, Note_on_c, 0, 59, 0
2, 21570, Note_on_c, 0, 58, 107
2, 21599, Note_on_c, 0, 58, 0
2, 21600, Note_on_c, 0, 59, 107
2, 21659, Note_on_c, 0, 59, 0
2, 21660, Note_on_c, 0, 68, 107
2, 21719, Note_on_c, 0, 68, 0
2, 21720, Note_on_c, 0, 64, 107
2, 21779, Note_on_c, 0, 64, 0
2, 21780, Note_on_c, 0, 61, 107
2, 21839, Note_on_c, 0, 61, 0
2, 21840, Note_on_c, 0, 58, 107
2, 21899, Note_on_c, 0, 58, 0
2, 21900, Note_on_c, 0, 67, 107
2, 21959, Note_on_c, 0, 67, 0
2, 21960, Note_on_c, 0, 68, 107
2, 22019, Note_on_c, 0, 68, 0
2, 22020, Note_on_c, 0, 63, 107
2, 22079, Note_on_c, 0, 63, 0
2, 22080, Note_on_c, 0, 59, 107
2, 22139, Note_on_c, 0, 59, 0
2, 22140, Note_on_c, 0, 56, 107
2, 22199, Note_on_c, 0, 56, 0
2, 22320, Note_on_c, 0, 64, 107
2, 22440, Note_on_c, 0, 64, 0
2, 22440, Note_on_c, 0, 66, 107
2, 22560, Note_on_c, 0, 66, 0
2, 22560, Note_on_c, 0, 68, 107
2, 22680, Note_on_c, 0, 68, 0
2, 22680, Note_on_c, 0, 69, 107
2, 22800, Note_on_c, 0, 69, 0
2, 22800, Note_on_c, 0, 71, 107
2, 22920, Note_on_c, 0, 71, 0
2, 22920, Note_on_c, 0, 73, 107
2, 23040, Note_on_c, 0, 73, 0
2, 23040, Note_on_c, 0, 75, 107
2, 23160, Note_on_c, 0, 75, 0
2, 23160, Note_on_c, 0, 76, 107
2, 23220, Note_on_c, 0, 76, 0
2, 23220, Note_on_c, 0, 75, 107
2, 23280, Note_on_c, 0, 75, 0
2, 23280, Note_on_c, 0, 73, 107
2, 23340, Note_on_c, 0, 73, 0
2, 23340, Note_on_c, 0, 71, 107
2, 23400, Note_on_c, 0, 71, 0
2, 23400, Note_on_c, 0, 76, 107
2, 23576, Note_on_c, 0, 76, 0
2, 23580, Note_on_c, 0, 71, 107
2, 23609, Note_on_c, 0, 71, 0
2, 23610, Note_on_c, 0, 69, 107
2, 23639, Note_on_c, 0, 69, 0
2, 23640, Note_on_c, 0, 71, 107
2, 23699, Note_on_c, 0, 71, 0
2, 23700, Note_on_c, 0, 68, 107
2, 23729, Note_on_c, 0, 68, 0
2, 23730, Note_on_c, 0, 66, 107
2, 23759, Note_on_c, 0, 66, 0
2, 23760, Note_on_c, 0, 68, 107
2, 23820, Note_on_c, 0, 68, 0
2, 23820, Note_on_c, 0, 76, 107
2, 23940, Note_on_c, 0, 76, 0
2, 23940, Note_on_c, 0, 75, 107
2, 24060, Note_on_c, 0, 75, 0
2, 24060, Note_on_c, 0, 74, 107
2, 24180, Note_on_c, 0, 74, 0
2, 24180, Note_on_c, 0, 73, 107
2, 24300, Note_on_c, 0, 73, 0
2, 24300, Note_on_c, 0, 71, 107
2, 24420, Note_on_c, 0, 71, 0
2, 24420, Note_on_c, 0, 69, 107
2, 24540, Note_on_c, 0, 69, 0
2, 24540, Note_on_c, 0, 68, 107
2, 24660, Note_on_c, 0, 68, 0
2, 24660, Note_on_c, 0, 66, 107
2, 24780, Note_on_c, 0, 66, 0
2, 24780, Note_on_c, 0, 68, 107
2, 24810, Note_on_c, 0, 68, 0
2, 24840, Note_on_c, 0, 68, 107
2, 24899, Note_on_c, 0, 68, 0
2, 24900, Note_on_c, 0, 71, 107
2, 24929, Note_on_c, 0, 71, 0
2, 24930, Note_on_c, 0, 69, 107
2, 24959, Note_on_c, 0, 69, 0
2, 24960, Note_on_c, 0, 71, 107
2, 25019, Note_on_c, 0, 71, 0
2, 25020, Note_on_c, 0, 68, 107
2, 25049, Note_on_c, 0, 68, 0
2, 25050, Note_on_c, 0, 66, 107
2, 25079, Note_on_c, 0, 66, 0
2, 25080, Note_on_c, 0, 68, 107
2, 25139, Note_on_c, 0, 68, 0
2, 25140, Note_on_c, 0, 64, 107
2, 25169, Note_on_c, 0, 64, 0
2, 25170, Note_on_c, 0, 63, 107
2, 25199, Note_on_c, 0, 63, 0
2, 25200, Note_on_c, 0, 64, 107
2, 25320, Note_on_c, 0, 64, 0
2, 25320, Note_on_c, 0, 66, 107
2, 25440, Note_on_c, 0, 66, 0
2, 25440, Note_on_c, 0, 69, 107
2, 25560, Note_on_c, 0, 69, 0
2, 25560, Note_on_c, 0, 71, 107
2, 25680, Note_on_c, 0, 71, 0
2, 25680, Note_on_c, 0, 75, 107
2, 25800, Note_on_c, 0, 75, 0
2, 25800, Note_on_c, 0, 78, 107
2, 25920, Note_on_c, 0, 78, 0
2, 25920, Note_on_c, 0, 63, 107
2, 26040, Note_on_c, 0, 63, 0
2, 26040, Note_on_c, 0, 64, 107
2, 26160, Note_on_c, 0, 64, 0
2, 26160, Note_on_c, 0, 68, 107
2, 26280, Note_on_c, 0, 68, 0
2, 26280, Note_on_c, 0, 69, 107
2, 26400, Note_on_c, 0, 69, 0
2, 26400, Note_on_c, 0, 73, 107
2, 26520, Note_on_c, 0, 73, 0
2, 26520, Note_on_c, 0, 76, 107
2, 26640, Note_on_c, 0, 76, 0
2, 26640, Note_on_c, 0, 61, 107
2, 26760, Note_on_c, 0, 61, 0
2, 26760, Note_on_c, 0, 66, 107
2, 26880, Note_on_c, 0, 66, 0
2, 26880, Note_on_c, 0, 69, 107
2, 27000, Note_on_c, 0, 69, 0
2, 27000, Note_on_c, 0, 71, 107
2, 27120, Note_on_c, 0, 71, 0
2, 27120, Note_on_c, 0, 73, 107
2, 27240, Note_on_c, 0, 73, 0
2, 27240, Note_on_c, 0, 75, 107
2, 27360, Note_on_c, 0, 75, 0
2, 27360, Note_on_c, 0, 76, 107
2, 27480, Note_on_c, 0, 76, 0
2, 27480, Note_on_c, 0, 73, 107
2, 27600, Note_on_c, 0, 73, 0
2, 27600, Note_on_c, 0, 69, 107
2, 27720, Note_on_c, 0, 69, 0
2, 27720, Note_on_c, 0, 78, 107
2, 28139, Note_on_c, 0, 78, 0
2, 28140, Note_on_c, 0, 76, 107
2, 28199, Note_on_c, 0, 76, 0
2, 28200, Note_on_c, 0, 75, 107
2, 28259, Note_on_c, 0, 75, 0
2, 28260, Note_on_c, 0, 73, 107
2, 28319, Note_on_c, 0, 73, 0
2, 28320, Note_on_c, 0, 71, 107
2, 28379, Note_on_c, 0, 71, 0
2, 28380, Note_on_c, 0, 69, 107
2, 28439, Note_on_c, 0, 69, 0
2, 28440, Note_on_c, 0, 68, 107
2, 28499, Note_on_c, 0, 68, 0
2, 28500, Note_on_c, 0, 64, 107
2, 28529, Note_on_c, 0, 64, 0
2, 28530, Note_on_c, 0, 63, 107
2, 28559, Note_on_c, 0, 63, 0
2, 28560, Note_on_c, 0, 64, 107
2, 28619, Note_on_c, 0, 64, 0
2, 28620, Note_on_c, 0, 68, 107
2, 28649, Note_on_c, 0, 68, 0
2, 28650, Note_on_c, 0, 66, 107
2, 28679, Note_on_c, 0, 66, 0
2, 28680, Note_on_c, 0, 68, 107
2, 28739, Note_on_c, 0, 68, 0
2, 28740, Note_on_c, 0, 71, 107
2, 28769, Note_on_c, 0, 71, 0
2, 28770, Note_on_c, 0, 69, 107
2, 28799, Note_on_c, 0, 69, 0
2, 28800, Note_on_c, 0, 71, 107
2, 28859, Note_on_c, 0, 71, 0
2, 28860, Note_on_c, 0, 68, 107
2, 28889, Note_on_c, 0, 68, 0
2, 28890, Note_on_c, 0, 66, 107
2, 28919, Note_on_c, 0, 66, 0
2, 28920, Note_on_c, 0, 68, 107
2, 28979, Note_on_c, 0, 68, 0
2, 28980, Note_on_c, 0, 71, 107
2, 29009, Note_on_c, 0, 71, 0
2, 29010, Note_on_c, 0, 69, 107
2, 29039, Note_on_c, 0, 69, 0
2, 29040, Note_on_c, 0, 71, 107
2, 29099, Note_on_c, 0, 71, 0
2, 29100, Note_on_c, 0, 76, 107
2, 29129, Note_on_c, 0, 76, 0
2, 29130, Note_on_c, 0, 75, 107
2, 29159, Note_on_c, 0, 75, 0
2, 29160, Note_on_c, 0, 76, 107
2, 29219, Note_on_c, 0, 76, 0
2, 29220, Note_on_c, 0, 71, 107
2, 29279, Note_on_c, 0, 71, 0
2, 29280, Note_on_c, 0, 68, 107
2, 29339, Note_on_c, 0, 68, 0
2, 29340, Note_on_c, 0, 64, 107
2, 29458, Note_on_c, 0, 64, 0
2, 29520, Note_on_c, 0, 59, 107
2, 29580, Note_on_c, 0, 59, 0
2, 29640, Note_on_c, 0, 61, 107
2, 29760, Note_on_c, 0, 61, 0
2, 29760, Note_on_c, 0, 63, 107
2, 29880, Note_on_c, 0, 63, 0
2, 29880, Note_on_c, 0, 64, 107
2, 30000, Note_on_c, 0, 64, 0
2, 30000, Note_on_c, 0, 66, 107
2, 30120, Note_on_c, 0, 66, 0
2, 30120, Note_on_c, 0, 68, 107
2, 30240, Note_on_c, 0, 68, 0
2, 30240, Note_on_c, 0, 70, 107
2, 30360, Note_on_c, 0, 70, 0
2, 30360, Note_on_c, 0, 71, 107
2, 30420, Note_on_c, 0, 71, 0
2, 30420, Note_on_c, 0, 70, 107
2, 30480, Note_on_c, 0, 70, 0
2, 30480, Note_on_c, 0, 68, 107
2, 30540, Note_on_c, 0, 68, 0
2, 30540, Note_on_c, 0, 66, 107
2, 30600, Note_on_c, 0, 66, 0
2, 30600, Note_on_c, 0, 71, 107
2, 30720, Note_on_c, 0, 71, 0
2, 30720, Note_on_c, 0, 59, 107
2, 30840, Note_on_c, 0, 59, 0
2, 31020, Note_on_c, 0, 83, 107
2, 31140, Note_on_c, 0, 83, 0
2, 31140, Note_on_c, 0, 82, 107
2, 31260, Note_on_c, 0, 82, 0
2, 31260, Note_on_c, 0, 81, 107
2, 31380, Note_on_c, 0, 81, 0
2, 31380, Note_on_c, 0, 80, 107
2, 31500, Note_on_c, 0, 80, 0
2, 31500, Note_on_c, 0, 78, 107
2, 31620, Note_on_c, 0, 78, 0
2, 31620, Note_on_c, 0, 76, 107
2, 31740, Note_on_c, 0, 76, 0
2, 31740, Note_on_c, 0, 75, 107
2, 31860, Note_on_c, 0, 75, 0
2, 31860, Note_on_c, 0, 73, 107
2, 31980, Note_on_c, 0, 73, 0
2, 31980, Note_on_c, 0, 75, 107
2, 32010, Note_on_c, 0, 75, 0
2, 32040, Note_on_c, 0, 75, 107
2, 32099, Note_on_c, 0, 75, 0
2, 32100, Note_on_c, 0, 78, 107
2, 32129, Note_on_c, 0, 78, 0
2, 32130, Note_on_c, 0, 76, 107
2, 32159, Note_on_c, 0, 76, 0
2, 32160, Note_on_c, 0, 78, 107
2, 32219, Note_on_c, 0, 78, 0
2, 32220, Note_on_c, 0, 75, 107
2, 32249, Note_on_c, 0, 75, 0
2, 32250, Note_on_c, 0, 73, 107
2, 32279, Note_on_c, 0, 73, 0
2, 32280, Note_on_c, 0, 75, 107
2, 32339, Note_on_c, 0, 75, 0
2, 32340, Note_on_c, 0, 71, 107
2, 32369, Note_on_c, 0, 71, 0
2, 32370, Note_on_c, 0, 70, 107
2, 32399, Note_on_c, 0, 70, 0
2, 32400, Note_on_c, 0, 71, 107
2, 32459, Note_on_c, 0, 71, 0
2, 32460, Note_on_c, 0, 75, 107
2, 32489, Note_on_c, 0, 75, 0
2, 32490, Note_on_c, 0, 73, 107
2, 32519, Note_on_c, 0, 73, 0
2, 32520, Note_on_c, 0, 75, 107
2, 32579, Note_on_c, 0, 75, 0
2, 32580, Note_on_c, 0, 80, 107
2, 32609, Note_on_c, 0, 80, 0
2, 32610, Note_on_c, 0, 79, 107
2, 32639, Note_on_c, 0, 79, 0
2, 32640, Note_on_c, 0, 80, 107
2, 32699, Note_on_c, 0, 80, 0
2, 32700, Note_on_c, 0, 73, 107
2, 32729, Note_on_c, 0, 73, 0
2, 32730, Note_on_c, 0, 71, 107
2, 32759, Note_on_c, 0, 71, 0
2, 32760, Note_on_c, 0, 73, 107
2, 32819, Note_on_c, 0, 73, 0
2, 32820, Note_on_c, 0, 76, 107
2, 32849, Note_on_c, 0, 76, 0
2, 32850, Note_on_c, 0, 75, 107
2, 32879, Note_on_c, 0, 75, 0
2, 32880, Note_on_c, 0, 76, 107
2, 32939, Note_on_c, 0, 76, 0
2, 32940, Note_on_c, 0, 82, 107
2, 32969, Note_on_c, 0, 82, 0
2, 32970, Note_on_c, 0, 80, 107
2, 32999, Note_on_c, 0, 80, 0
2, 33000, Note_on_c, 0, 82, 107
2, 33059, Note_on_c, 0, 82, 0
2, 33060, Note_on_c, 0, 75, 107
2, 33089, Note_on_c, 0, 75, 0
2, 33090, Note_on_c, 0, 73, 107
2, 33119, Note_on_c, 0, 73, 0
2, 33120, Note_on_c, 0, 75, 107
2, 33179, Note_on_c, 0, 75, 0
2, 33180, Note_on_c, 0, 80, 107
2, 33209, Note_on_c, 0, 80, 0
2, 33210, Note_on_c, 0, 79, 107
2, 33239, Note_on_c, 0, 79, 0
2, 33240, Note_on_c, 0, 80, 107
2, 33299, Note_on_c, 0, 80, 0
2, 33300, Note_on_c, 0, 83, 107
2, 33329, Note_on_c, 0, 83, 0
2, 33330, Note_on_c, 0, 82, 107
2, 33359, Note_on_c, 0, 82, 0
2, 33360, Note_on_c, 0, 83, 107
2, 33419, Note_on_c, 0, 83, 0
2, 33420, Note_on_c, 0, 75, 107
2, 33449, Note_on_c, 0, 75, 0
2, 33450, Note_on_c, 0, 74, 107
2, 33479, Note_on_c, 0, 74, 0
2, 33480, Note_on_c, 0, 75, 107
2, 33539, Note_on_c, 0, 75, 0
2, 33540, Note_on_c, 0, 82, 107
2, 33569, Note_on_c, 0, 82, 0
2, 33570, Note_on_c, 0, 80, 107
2, 33599, Note_on_c, 0, 80, 0
2, 33600, Note_on_c, 0, 82, 107
2, 33659, Note_on_c, 0, 82, 0
2, 33660, Note_on_c, 0, 79, 107
2, 33689, Note_on_c, 0, 79, 0
2, 33690, Note_on_c, 0, 77, 107
2, 33719, Note_on_c, 0, 77, 0
2, 33720, Note_on_c, 0, 79, 107
2, 33779, Note_on_c, 0, 79, 0
2, 33780, Note_on_c, 0, 75, 107
2, 33809, Note_on_c, 0, 75, 0
2, 33810, Note_on_c, 0, 74, 107
2, 33839, Note_on_c, 0, 74, 0
2, 33840, Note_on_c, 0, 74, 107
2, 33900, Note_on_c, 0, 74, 0
2, 33900, Note_on_c, 0, 81, 107
2, 34020, Note_on_c, 0, 81, 0
2, 34020, Note_on_c, 0, 80, 107
2, 34140, Note_on_c, 0, 80, 0
2, 34140, Note_on_c, 0, 78, 107
2, 34259, Note_on_c, 0, 78, 0
2, 34260, Note_on_c, 0, 76, 107
2, 34289, Note_on_c, 0, 76, 0
2, 34290, Note_on_c, 0, 75, 107
2, 34319, Note_on_c, 0, 75, 0
2, 34320, Note_on_c, 0, 76, 107
2, 34379, Note_on_c, 0, 76, 0
2, 34380, Note_on_c, 0, 73, 107
2, 34409, Note_on_c, 0, 73, 0
2, 34410, Note_on_c, 0, 72, 107
2, 34439, Note_on_c, 0, 72, 0
2, 34440, Note_on_c, 0, 73, 107
2, 34499, Note_on_c, 0, 73, 0
2, 34500, Note_on_c, 0, 76, 107
2, 34529, Note_on_c, 0, 76, 0
2, 34530, Note_on_c, 0, 75, 107
2, 34559, Note_on_c, 0, 75, 0
2, 34560, Note_on_c, 0, 76, 107
2, 34620, Note_on_c, 0, 76, 0
2, 34620, Note_on_c, 0, 80, 107
2, 34740, Note_on_c, 0, 80, 0
2, 34740, Note_on_c, 0, 78, 107
2, 34860, Note_on_c, 0, 78, 0
2, 34860, Note_on_c, 0, 76, 107
2, 34979, Note_on_c, 0, 76, 0
2, 34980, Note_on_c, 0, 75, 107
2, 35009, Note_on_c, 0, 75, 0
2, 35010, Note_on_c, 0, 73, 107
2, 35039, Note_on_c, 0, 73, 0
2, 35040, Note_on_c, 0, 75, 107
2, 35099, Note_on_c, 0, 75, 0
2, 35100, Note_on_c, 0, 71, 107
2, 35129, Note_on_c, 0, 71, 0
2, 35130, Note_on_c, 0, 70, 107
2, 35159, Note_on_c, 0, 70, 0
2, 35160, Note_on_c, 0, 71, 107
2, 35219, Note_on_c, 0, 71, 0
2, 35220, Note_on_c, 0, 73, 107
2, 35249, Note_on_c, 0, 73, 0
2, 35250, Note_on_c, 0, 71, 107
2, 35279, Note_on_c, 0, 71, 0
2, 35280, Note_on_c, 0, 73, 107
2, 35340, Note_on_c, 0, 73, 0
2, 35340, Note_on_c, 0, 76, 107
2, 35460, Note_on_c, 0, 76, 0
2, 35460, Note_on_c, 0, 75, 107
2, 35580, Note_on_c, 0, 75, 0
2, 35580, Note_on_c, 0, 73, 107
2, 35700, Note_on_c, 0, 73, 0
2, 35700, Note_on_c, 0, 71, 107
2, 35730, Note_on_c, 0, 71, 0
2, 35730, Note_on_c, 0, 70, 107
2, 35760, Note_on_c, 0, 70, 0
2, 35760, Note_on_c, 0, 71, 107
2, 35820, Note_on_c, 0, 71, 0
2, 35820, Note_on_c, 0, 68, 107
2, 35850, Note_on_c, 0, 68, 0
2, 35850, Note_on_c, 0, 67, 107
2, 35880, Note_on_c, 0, 67, 0
2, 35880, Note_on_c, 0, 68, 107
2, 35940, Note_on_c, 0, 68, 0
2, 35940, Note_on_c, 0, 69, 107
2, 35970, Note_on_c, 0, 69, 0
2, 36000, Note_on_c, 0, 69, 107
2, 36060, Note_on_c, 0, 69, 0
2, 36060, Note_on_c, 0, 73, 107
2, 36090, Note_on_c, 0, 73, 0
2, 36090, Note_on_c, 0, 71, 107
2, 36120, Note_on_c, 0, 71, 0
2, 36120, Note_on_c, 0, 73, 107
2, 36180, Note_on_c, 0, 73, 0
2, 36180, Note_on_c, 0, 69, 107
2, 36210, Note_on_c, 0, 69, 0
2, 36210, Note_on_c, 0, 68, 107
2, 36240, Note_on_c, 0, 68, 0
2, 36240, Note_on_c, 0, 69, 107
2, 36300, Note_on_c, 0, 69, 0
2, 36300, Note_on_c, 0, 76, 107
2, 36330, Note_on_c, 0, 76, 0
2, 36360, Note_on_c, 0, 76, 107
2, 36419, Note_on_c, 0, 76, 0
2, 36420, Note_on_c, 0, 67, 107
2, 36449, Note_on_c, 0, 67, 0
2, 36450, Note_on_c, 0, 65, 107
2, 36479, Note_on_c, 0, 65, 0
2, 36480, Note_on_c, 0, 67, 107
2, 36539, Note_on_c, 0, 67, 0
2, 36540, Note_on_c, 0, 70, 107
2, 36569, Note_on_c, 0, 70, 0
2, 36570, Note_on_c, 0, 68, 107
2, 36599, Note_on_c, 0, 68, 0
2, 36600, Note_on_c, 0, 70, 107
2, 36659, Note_on_c, 0, 70, 0
2, 36660, Note_on_c, 0, 59, 107
2, 36689, Note_on_c, 0, 59, 0
2, 36690, Note_on_c, 0, 58, 107
2, 36719, Note_on_c, 0, 58, 0
2, 36720, Note_on_c, 0, 59, 107
2, 36779, Note_on_c, 0, 59, 0
2, 36780, Note_on_c, 0, 68, 107
2, 36839, Note_on_c, 0, 68, 0
2, 36840, Note_on_c, 0, 64, 107
2, 36899, Note_on_c, 0, 64, 0
2, 36900, Note_on_c, 0, 61, 107
2, 36959, Note_on_c, 0, 61, 0
2, 36960, Note_on_c, 0, 58, 107
2, 37019, Note_on_c, 0, 58, 0
2, 37020, Note_on_c, 0, 67, 107
2, 37079, Note_on_c, 0, 67, 0
2, 37080, Note_on_c, 0, 68, 107
2, 37139, Note_on_c, 0, 68, 0
2, 37140, Note_on_c, 0, 63, 107
2, 37199, Note_on_c, 0, 63, 0
2, 37200, Note_on_c, 0, 59, 107
2, 37259, Note_on_c, 0, 59, 0
2, 37260, Note_on_c, 0, 56, 107
2, 37319, Note_on_c, 0, 56, 0
2, 37440, Note_on_c, 0, 64, 107
2, 37560, Note_on_c, 0, 64, 0
2, 37560, Note_on_c, 0, 66, 107
2, 37680, Note_on_c, 0, 66, 0
2, 37680, Note_on_c, 0, 68, 107
2, 37800, Note_on_c, 0, 68, 0
2, 37800, Note_on_c, 0, 69, 107
2, 37920, Note_on_c, 0, 69, 0
2, 37920, Note_on_c, 0, 71, 107
2, 38040, Note_on_c, 0, 71, 0
2, 38040, Note_on_c, 0, 73, 107
2, 38160, Note_on_c, 0, 73, 0
2, 38160, Note_on_c, 0, 75, 107
2, 38280, Note_on_c, 0, 75, 0
2, 38280, Note_on_c, 0, 76, 107
2, 38340, Note_on_c, 0, 76, 0
2, 38340, Note_on_c, 0, 75, 107
2, 38400, Note_on_c, 0, 75, 0
2, 38400, Note_on_c, 0, 73, 107
2, 38460, Note_on_c, 0, 73, 0
2, 38460, Note_on_c, 0, 71, 107
2, 38520, Note_on_c, 0, 71, 0
2, 38520, Note_on_c, 0, 76, 107
2, 38696, Note_on_c, 0, 76, 0
2, 38700, Note_on_c, 0, 71, 107
2, 38729, Note_on_c, 0, 71, 0
2, 38730, Note_on_c, 0, 69, 107
2, 38759, Note_on_c, 0, 69, 0
2, 38760, Note_on_c, 0, 71, 107
2, 38819, Note_on_c, 0, 71, 0
2, 38820, Note_on_c, 0, 68, 107
2, 38849, Note_on_c, 0, 68, 0
2, 38850, Note_on_c, 0, 66, 107
2, 38879, Note_on_c, 0, 66, 0
2, 38880, Note_on_c, 0, 68, 107
2, 38940, Note_on_c, 0, 68, 0
2, 38940, Note_on_c, 0, 76, 107
2, 39060, Note_on_c, 0, 76, 0
2, 39060, Note_on_c, 0, 75, 107
2, 39180, Note_on_c, 0, 75, 0
2, 39180, Note_on_c, 0, 74, 107
2, 39300, Note_on_c, 0, 74, 0
2, 39300, Note_on_c, 0, 73, 107
2, 39420, Note_on_c, 0, 73, 0
2, 39420, Note_on_c, 0, 71, 107
2, 39540, Note_on_c, 0, 71, 0
2, 39540, Note_on_c, 0, 69, 107
2, 39660, Note_on_c, 0, 69, 0
2, 39660, Note_on_c, 0, 68, 107
2, 39780, Note_on_c, 0, 68, 0
2, 39780, Note_on_c, 0, 66, 107
2, 39900, Note_on_c, 0, 66, 0
2, 39900, Note_on_c, 0, 68, 107
2, 39930, Note_on_c, 0, 68, 0
2, 39960, Note_on_c, 0, 68, 107
2, 40019, Note_on_c, 0, 68, 0
2, 40020, Note_on_c, 0, 71, 107
2, 40049, Note_on_c, 0, 71, 0
2, 40050, Note_on_c, 0, 69, 107
2, 40079, Note_on_c, 0, 69, 0
2, 40080, Note_on_c, 0, 71, 107
2, 40139, Note_on_c, 0, 71, 0
2, 40140, Note_on_c, 0, 68, 107
2, 40169, Note_on_c, 0, 68, 0
2, 40170, Note_on_c, 0, 66, 107
2, 40199, Note_on_c, 0, 66, 0
2, 40200, Note_on_c, 0, 68, 107
2, 40259, Note_on_c, 0, 68, 0
2, 40260, Note_on_c, 0, 64, 107
2, 40289, Note_on_c, 0, 64, 0
2, 40290, Note_on_c, 0, 63, 107
2, 40319, Note_on_c, 0, 63, 0
2, 40320, Note_on_c, 0, 64, 107
2, 40440, Note_on_c, 0, 64, 0
2, 40440, Note_on_c, 0, 66, 107
2, 40560, Note_on_c, 0, 66, 0
2, 40560, Note_on_c, 0, 69, 107
2, 40680, Note_on_c, 0, 69, 0
2, 40680, Note_on_c, 0, 71, 107
2, 40800, Note_on_c, 0, 71, 0
2, 40800, Note_on_c, 0, 75, 107
2, 40920, Note_on_c, 0, 75, 0
2, 40920, Note_on_c, 0, 78, 107
2, 41040, Note_on_c, 0, 78, 0
2, 41040, Note_on_c, 0, 63, 107
2, 41160, Note_on_c, 0, 63, 0
2, 41160, Note_on_c, 0, 64, 107
2, 41280, Note_on_c, 0, 64, 0
2, 41280, Note_on_c, 0, 68, 107
2, 41400, Note_on_c, 0, 68, 0
2, 41400, Note_on_c, 0, 69, 107
2, 41520, Note_on_c, 0, 69, 0
2, 41520, Note_on_c, 0, 73, 107
2, 41640, Note_on_c, 0, 73, 0
2, 41640, Note_on_c, 0, 76, 107
2, 41760, Note_on_c, 0, 76, 0
2, 41760, Note_on_c, 0, 61, 107
2, 41880, Note_on_c, 0, 61, 0
2, 41880, Note_on_c, 0, 66, 107
2, 42000, Note_on_c, 0, 66, 0
2, 42000, Note_on_c, 0, 69, 107
2, 42120, Note_on_c, 0, 69, 0
2, 42120, Note_on_c, 0, 71, 107
2, 42240, Note_on_c, 0, 71, 0
2, 42240, Note_on_c, 0, 73, 107
2, 42360, Note_on_c, 0, 73, 0
2, 42360, Note_on_c, 0, 75, 107
2, 42480, Note_on_c, 0, 75, 0
2, 42480, Note_on_c, 0, 76, 107
2, 42600, Note_on_c, 0, 76, 0
2, 42600, Note_on_c, 0, 73, 107
2, 42720, Note_on_c, 0, 73, 0
2, 42720, Note_on_c, 0, 69, 107
2, 42840, Note_on_c, 0, 69, 0
2, 42840, Note_on_c, 0, 78, 107
2, 43259, Note_on_c, 0, 78, 0
2, 43260, Note_on_c, 0, 76, 107
2, 43319, Note_on_c, 0, 76, 0
2, 43320, Note_on_c, 0, 75, 107
2, 43379, Note_on_c, 0, 75, 0
2, 43380, Note_on_c, 0, 73, 107
2, 43439, Note_on_c, 0, 73, 0
2, 43440, Note_on_c, 0, 71, 107
2, 43499, Note_on_c, 0, 71, 0
2, 43500, Note_on_c, 0, 69, 107
2, 43559, Note_on_c, 0, 69, 0
2, 43560, Note_on_c, 0, 68, 107
2, 43619, Note_on_c, 0, 68, 0
2, 43620, Note_on_c, 0, 64, 107
2, 43649, Note_on_c, 0, 64, 0
2, 43650, Note_on_c, 0, 63, 107
2, 43679, Note_on_c, 0, 63, 0
2, 43680, Note_on_c, 0, 64, 107
2, 43739, Note_on_c, 0, 64, 0
2, 43740, Note_on_c, 0, 68, 107
2, 43769, Note_on_c, 0, 68, 0
2, 43770, Note_on_c, 0, 66, 107
2, 43799, Note_on_c, 0, 66, 0
2, 43800, Note_on_c, 0, 68, 107
2, 43859, Note_on_c, 0, 68, 0
2, 43860, Note_on_c, 0, 71, 107
2, 43889, Note_on_c, 0, 71, 0
2, 43890, Note_on_c, 0, 69, 107
2, 43919, Note_on_c, 0, 69, 0
2, 43920, Note_on_c, 0, 71, 107
2, 43979, Note_on_c, 0, 71, 0
2, 43980, Note_on_c, 0, 68, 107
2, 44009, Note_on_c, 0, 68, 0
2, 44010, Note_on_c, 0, 66, 107
2, 44039, Note_on_c, 0, 66, 0
2, 44040, Note_on_c, 0, 68, 107
2, 44099, Note_on_c, 0, 68, 0
2, 44100, Note_on_c, 0, 71, 107
2, 44129, Note_on_c, 0, 71, 0
2, 44130, Note_on_c, 0, 69, 107
2, 44159, Note_on_c, 0, 69, 0
2, 44160, Note_on_c, 0, 71, 107
2, 44219, Note_on_c, 0, 71, 0
2, 44220, Note_on_c, 0, 76, 107
2, 44249, Note_on_c, 0, 76, 0
2, 44250, Note_on_c, 0, 75, 107
2, 44279, Note_on_c, 0, 75, 0
2, 44280, Note_on_c, 0, 76, 107
2, 44339, Note_on_c, 0, 76, 0
2, 44340, Note_on_c, 0, 71, 107
2, 44399, Note_on_c, 0, 71, 0
2, 44400, Note_on_c, 0, 68, 107
2, 44459, Note_on_c, 0, 68, 0
2, 44460, Note_on_c, 0, 64, 107
2, 44832, Note_on_c, 0, 64, 0
2, 44832, End_track
3, 0, Start_track
3, 0, Title_t, "Harpsichord LH"
3, 0, Program_c, 0, 6
3, 0, Control_c, 0, 7, 100
3, 0, Control_c, 0, 10, 48
3, 0, Note_on_c, 0, 52, 107
3, 110, Note_on_c, 0, 52, 0
3, 120, Note_on_c, 0, 54, 107
3, 230, Note_on_c, 0, 54, 0
3, 240, Note_on_c, 0, 56, 107
3, 350, Note_on_c, 0, 56, 0
3, 360, Note_on_c, 0, 57, 107
3, 470, Note_on_c, 0, 57, 0
3, 480, Note_on_c, 0, 59, 107
3, 590, Note_on_c, 0, 59, 0
3, 600, Note_on_c, 0, 61, 107
3, 710, Note_on_c, 0, 61, 0
3, 720, Note_on_c, 0, 63, 107
3, 830, Note_on_c, 0, 63, 0
3, 840, Note_on_c, 0, 64, 107
3, 895, Note_on_c, 0, 64, 0
3, 900, Note_on_c, 0, 63, 107
3, 955, Note_on_c, 0, 63, 0
3, 960, Note_on_c, 0, 61, 107
3, 1015, Note_on_c, 0, 61, 0
3, 1020, Note_on_c, 0, 59, 107
3, 1075, Note_on_c, 0, 59, 0
3, 1080, Note_on_c, 0, 64, 107
3, 1190, Note_on_c, 0, 64, 0
3, 1200, Note_on_c, 0, 52, 107
3, 1421, Note_on_c, 0, 52, 0
3, 1500, Note_on_c, 0, 52, 107
3, 1610, Note_on_c, 0, 52, 0
3, 1620, Note_on_c, 0, 51, 107
3, 1730, Note_on_c, 0, 51, 0
3, 1740, Note_on_c, 0, 50, 107
3, 1855, Note_on_c, 0, 50, 0
3, 1860, Note_on_c, 0, 49, 107
3, 1970, Note_on_c, 0, 49, 0
3, 1980, Note_on_c, 0, 47, 107
3, 2090, Note_on_c, 0, 47, 0
3, 2100, Note_on_c, 0, 45, 107
3, 2215, Note_on_c, 0, 45, 0
3, 2220, Note_on_c, 0, 44, 107
3, 2330, Note_on_c, 0, 44, 0
3, 2340, Note_on_c, 0, 42, 107
3, 2450, Note_on_c, 0, 42, 0
3, 2460, Note_on_c, 0, 44, 107
3, 2515, Note_on_c, 0, 44, 0
3, 2520, Note_on_c, 0, 44, 107
3, 2575, Note_on_c, 0, 44, 0
3, 2580, Note_on_c, 0, 47, 107
3, 2608, Note_on_c, 0, 47, 0
3, 2610, Note_on_c, 0, 45, 107
3, 2638, Note_on_c, 0, 45, 0
3, 2640, Note_on_c, 0, 47, 107
3, 2695, Note_on_c, 0, 47, 0
3, 2700, Note_on_c, 0, 44, 107
3, 2728, Note_on_c, 0, 44, 0
3, 2730, Note_on_c, 0, 42, 107
3, 2758, Note_on_c, 0, 42, 0
3, 2760, Note_on_c, 0, 44, 107
3, 2815, Note_on_c, 0, 44, 0
3, 2820, Note_on_c, 0, 40, 107
3, 2848, Note_on_c, 0, 40, 0
3, 2850, Note_on_c, 0, 39, 107
3, 2878, Note_on_c, 0, 39, 0
3, 2880, Note_on_c, 0, 40, 107
3, 2990, Note_on_c, 0, 40, 0
3, 3000, Note_on_c, 0, 49, 107
3, 3110, Note_on_c, 0, 49, 0
3, 3120, Note_on_c, 0, 52, 107
3, 3230, Note_on_c, 0, 52, 0
3, 3240, Note_on_c, 0, 54, 107
3, 3350, Note_on_c, 0, 54, 0
3, 3360, Note_on_c, 0, 58, 107
3, 3470, Note_on_c, 0, 58, 0
3, 3480, Note_on_c, 0, 61, 107
3, 3590, Note_on_c, 0, 61, 0
3, 3600, Note_on_c, 0, 39, 107
3, 3710, Note_on_c, 0, 39, 0
3, 3720, Note_on_c, 0, 47, 107
3, 3830, Note_on_c, 0, 47, 0
3, 3840, Note_on_c, 0, 51, 107
3, 3950, Note_on_c, 0, 51, 0
3, 3960, Note_on_c, 0, 52, 107
3, 4070, Note_on_c, 0, 52, 0
3, 4080, Note_on_c, 0, 56, 107
3, 4190, Note_on_c, 0, 56, 0
3, 4200, Note_on_c, 0, 59, 107
3, 4310, Note_on_c, 0, 59, 0
3, 4320, Note_on_c, 0, 37, 107
3, 4430, Note_on_c, 0, 37, 0
3, 4440, Note_on_c, 0, 49, 107
3, 4550, Note_on_c, 0, 49, 0
3, 4560, Note_on_c, 0, 52, 107
3, 4670, Note_on_c, 0, 52, 0
3, 4680, Note_on_c, 0, 54, 107
3, 4790, Note_on_c, 0, 54, 0
3, 4800, Note_on_c, 0, 56, 107
3, 4910, Note_on_c, 0, 56, 0
3, 4920, Note_on_c, 0, 58, 107
3, 5030, Note_on_c, 0, 58, 0
3, 5040, Note_on_c, 0, 59, 107
3, 5150, Note_on_c, 0, 59, 0
3, 5160, Note_on_c, 0, 52, 107
3, 5270, Note_on_c, 0, 52, 0
3, 5280, Note_on_c, 0, 56, 107
3, 5390, Note_on_c, 0, 56, 0
3, 5400, Note_on_c, 0, 54, 107
3, 5455, Note_on_c, 0, 54, 0
3, 5460, Note_on_c, 0, 61, 107
3, 5515, Note_on_c, 0, 61, 0
3, 5520, Note_on_c, 0, 58, 107
3, 5575, Note_on_c, 0, 58, 0
3, 5580, Note_on_c, 0, 61, 107
3, 5635, Note_on_c, 0, 61, 0
3, 5640, Note_on_c, 0, 52, 107
3, 5695, Note_on_c, 0, 52, 0
3, 5700, Note_on_c, 0, 61, 107
3, 5755, Note_on_c, 0, 61, 0
3, 5760, Note_on_c, 0, 51, 107
3, 5870, Note_on_c, 0, 51, 0
3, 5880, Note_on_c, 0, 52, 107
3, 5990, Note_on_c, 0, 52, 0
3, 6000, Note_on_c, 0, 54, 107
3, 6110, Note_on_c, 0, 54, 0
3, 6120, Note_on_c, 0, 47, 107
3, 6179, Note_on_c, 0, 47, 0
3, 6180, Note_on_c, 0, 59, 107
3, 6209, Note_on_c, 0, 59, 0
3, 6210, Note_on_c, 0, 58, 107
3, 6239, Note_on_c, 0, 58, 0
3, 6240, Note_on_c, 0, 59, 107
3, 6299, Note_on_c, 0, 59, 0
3, 6300, Note_on_c, 0, 54, 107
3, 6329, Note_on_c, 0, 54, 0
3, 6330, Note_on_c, 0, 52, 107
3, 6359, Note_on_c, 0, 52, 0
3, 6360, Note_on_c, 0, 54, 107
3, 6419, Note_on_c, 0, 54, 0
3, 6420, Note_on_c, 0, 51, 107
3, 6449, Note_on_c, 0, 51, 0
3, 6450, Note_on_c, 0, 49, 107
3, 6479, Note_on_c, 0, 49, 0
3, 6480, Note_on_c, 0, 51, 107
3, 6535, Note_on_c, 0, 51, 0
3, 6540, Note_on_c, 0, 54, 107
3, 6568, Note_on_c, 0, 54, 0
3, 6570, Note_on_c, 0, 52, 107
3, 6598, Note_on_c, 0, 52, 0
3, 6600, Note_on_c, 0, 54, 107
3, 6655, Note_on_c, 0, 54, 0
3, 6660, Note_on_c, 0, 51, 107
3, 6688, Note_on_c, 0, 51, 0
3, 6690, Note_on_c, 0, 49, 107
3, 6718, Note_on_c, 0, 49, 0
3, 6720, Note_on_c, 0, 51, 107
3, 6775, Note_on_c, 0, 51, 0
3, 6780, Note_on_c, 0, 47, 107
3, 6808, Note_on_c, 0, 47, 0
3, 6810, Note_on_c, 0, 46, 107
3, 6838, Note_on_c, 0, 46, 0
3, 6840, Note_on_c, 0, 47, 107
3, 7061, Note_on_c, 0, 47, 0
3, 7080, Note_on_c, 0, 35, 107
3, 7190, Note_on_c, 0, 35, 0
3, 7200, Note_on_c, 0, 52, 107
3, 7310, Note_on_c, 0, 52, 0
3, 7320, Note_on_c, 0, 54, 107
3, 7430, Note_on_c, 0, 54, 0
3, 7440, Note_on_c, 0, 56, 107
3, 7550, Note_on_c, 0, 56, 0
3, 7560, Note_on_c, 0, 57, 107
3, 7670, Note_on_c, 0, 57, 0
3, 7680, Note_on_c, 0, 59, 107
3, 7790, Note_on_c, 0, 59, 0
3, 7800, Note_on_c, 0, 61, 107
3, 7910, Note_on_c, 0, 61, 0
3, 7920, Note_on_c, 0, 63, 107
3, 8030, Note_on_c, 0, 63, 0
3, 8040, Note_on_c, 0, 64, 107
3, 8095, Note_on_c, 0, 64, 0
3, 8100, Note_on_c, 0, 63, 107
3, 8155, Note_on_c, 0, 63, 0
3, 8160, Note_on_c, 0, 61, 107
3, 8215, Note_on_c, 0, 61, 0
3, 8220, Note_on_c, 0, 59, 107
3, 8275, Note_on_c, 0, 59, 0
3, 8280, Note_on_c, 0, 64, 107
3, 8390, Note_on_c, 0, 64, 0
3, 8400, Note_on_c, 0, 52, 107
3, 8621, Note_on_c, 0, 52, 0
3, 8700, Note_on_c, 0, 52, 107
3, 8810, Note_on_c, 0, 52, 0
3, 8820, Note_on_c, 0, 51, 107
3, 8930, Note_on_c, 0, 51, 0
3, 8940, Note_on_c, 0, 50, 107
3, 9055, Note_on_c, 0, 50, 0
3, 9060, Note_on_c, 0, 49, 107
3, 9170, Note_on_c, 0, 49, 0
3, 9180, Note_on_c, 0, 47, 107
3, 9290, Note_on_c, 0, 47, 0
3, 9300, Note_on_c, 0, 45, 107
3, 9415, Note_on_c, 0, 45, 0
3, 9420, Note_on_c, 0, 44, 107
3, 9530, Note_on_c, 0, 44, 0
3, 9540, Note_on_c, 0, 42, 107
3, 9650, Note_on_c, 0, 42, 0
3, 9660, Note_on_c, 0, 44, 107
3, 9715, Note_on_c, 0, 44, 0
3, 9720, Note_on_c, 0, 44, 107
3, 9775, Note_on_c, 0, 44, 0
3, 9780, Note_on_c, 0, 47, 107
3, 9808, Note_on_c, 0, 47, 0
3, 9810, Note_on_c, 0, 45, 107
3, 9838, Note_on_c, 0, 45, 0
3, 9840, Note_on_c, 0, 47, 107
3, 9895, Note_on_c, 0, 47, 0
3, 9900, Note_on_c, 0, 44, 107
3, 9928, Note_on_c, 0, 44, 0
3, 9930, Note_on_c, 0, 42, 107
3, 9958, Note_on_c, 0, 42, 0
3, 9960, Note_on_c, 0, 44, 107
3, 10015, Note_on_c, 0, 44, 0
3, 10020, Note_on_c, 0, 40, 107
3, 10048, Note_on_c, 0, 40, 0
3, 10050, Note_on_c, 0, 39, 107
3, 10078, Note_on_c, 0, 39, 0
3, 10080, Note_on_c, 0, 40, 107
3, 10190, Note_on_c, 0, 40, 0
3, 10200, Note_on_c, 0, 49, 107
3, 10310, Note_on_c, 0, 49, 0
3, 10320, Note_on_c, 0, 52, 107
3, 10430, Note_on_c, 0, 52, 0
3, 10440, Note_on_c, 0, 54, 107
3, 10550, Note_on_c, 0, 54, 0
3, 10560, Note_on_c, 0, 58, 107
3, 10670, Note_on_c, 0, 58, 0
3, 10680, Note_on_c, 0, 61, 107
3, 10790, Note_on_c, 0, 61, 0
3, 10800, Note_on_c, 0, 39, 107
3, 10910, Note_on_c, 0, 39, 0
3, 10920, Note_on_c, 0, 47, 107
3, 11030, Note_on_c, 0, 47, 0
3, 11040, Note_on_c, 0, 51, 107
3, 11150, Note_on_c, 0, 51, 0
3, 11160, Note_on_c, 0, 52, 107
3, 11270, Note_on_c, 0, 52, 0
3, 11280, Note_on_c, 0, 56, 107
3, 11390, Note_on_c, 0, 56, 0
3, 11400, Note_on_c, 0, 59, 107
3, 11510, Note_on_c, 0, 59, 0
3, 11520, Note_on_c, 0, 37, 107
3, 11630, Note_on_c, 0, 37, 0
3, 11640, Note_on_c, 0, 49, 107
3, 11750, Note_on_c, 0, 49, 0
3, 11760, Note_on_c, 0, 52, 107
3, 11870, Note_on_c, 0, 52, 0
3, 11880, Note_on_c, 0, 54, 107
3, 11990, Note_on_c, 0, 54, 0
3, 12000, Note_on_c, 0, 56, 107
3, 12110, Note_on_c, 0, 56, 0
3, 12120, Note_on_c, 0, 58, 107
3, 12230, Note_on_c, 0, 58, 0
3, 12240, Note_on_c, 0, 59, 107
3, 12350, Note_on_c, 0, 59, 0
3, 12360, Note_on_c, 0, 52, 107
3, 12470, Note_on_c, 0, 52, 0
3, 12480, Note_on_c, 0, 56, 107
3, 12590, Note_on_c, 0, 56, 0
3, 12600, Note_on_c, 0, 54, 107
3, 12655, Note_on_c, 0, 54, 0
3, 12660, Note_on_c, 0, 61, 107
3, 12715, Note_on_c, 0, 61, 0
3, 12720, Note_on_c, 0, 58, 107
3, 12775, Note_on_c, 0, 58, 0
3, 12780, Note_on_c, 0, 61, 107
3, 12835, Note_on_c, 0, 61, 0
3, 12840, Note_on_c, 0, 52, 107
3, 12895, Note_on_c, 0, 52, 0
3, 12900, Note_on_c, 0, 61, 107
3, 12955, Note_on_c, 0, 61, 0
3, 12960, Note_on_c, 0, 51, 107
3, 13070, Note_on_c, 0, 51, 0
3, 13080, Note_on_c, 0, 52, 107
3, 13190, Note_on_c, 0, 52, 0
3, 13200, Note_on_c, 0, 54, 107
3, 13310, Note_on_c, 0, 54, 0
3, 13320, Note_on_c, 0, 47, 107
3, 13379, Note_on_c, 0, 47, 0
3, 13380, Note_on_c, 0, 59, 107
3, 13409, Note_on_c, 0, 59, 0
3, 13410, Note_on_c, 0, 58, 107
3, 13439, Note_on_c, 0, 58, 0
3, 13440, Note_on_c, 0, 59, 107
3, 13499, Note_on_c, 0, 59, 0
3, 13500, Note_on_c, 0, 54, 107
3, 13529, Note_on_c, 0, 54, 0
3, 13530, Note_on_c, 0, 52, 107
3, 13559, Note_on_c, 0, 52, 0
3, 13560, Note_on_c, 0, 54, 107
3, 13619, Note_on_c, 0, 54, 0
3, 13620, Note_on_c, 0, 51, 107
3, 13649, Note_on_c, 0, 51, 0
3, 13650, Note_on_c, 0, 49, 107
3, 13679, Note_on_c, 0, 49, 0
3, 13680, Note_on_c, 0, 51, 107
3, 13735, Note_on_c, 0, 51, 0
3, 13740, Note_on_c, 0, 54, 107
3, 13768, Note_on_c, 0, 54, 0
3, 13770, Note_on_c, 0, 52, 107
3, 13798, Note_on_c, 0, 52, 0
3, 13800, Note_on_c, 0, 54, 107
3, 13855, Note_on_c, 0, 54, 0
3, 13860, Note_on_c, 0, 51, 107
3, 13888, Note_on_c, 0, 51, 0
3, 13890, Note_on_c, 0, 49, 107
3, 13918, Note_on_c, 0, 49, 0
3, 13920, Note_on_c, 0, 51, 107
3, 13975, Note_on_c, 0, 51, 0
3, 13980, Note_on_c, 0, 47, 107
3, 14008, Note_on_c, 0, 47, 0
3, 14010, Note_on_c, 0, 46, 107
3, 14038, Note_on_c, 0, 46, 0
3, 14040, Note_on_c, 0, 47, 107
3, 14261, Note_on_c, 0, 47, 0
3, 14280, Note_on_c, 0, 35, 107
3, 14390, Note_on_c, 0, 35, 0
3, 14460, Note_on_c, 0, 59, 107
3, 14570, Note_on_c, 0, 59, 0
3, 14580, Note_on_c, 0, 58, 107
3, 14690, Note_on_c, 0, 58, 0
3, 14700, Note_on_c, 0, 57, 107
3, 14815, Note_on_c, 0, 57, 0
3, 14820, Note_on_c, 0, 56, 107
3, 14930, Note_on_c, 0, 56, 0
3, 14940, Note_on_c, 0, 54, 107
3, 15050, Note_on_c, 0, 54, 0
3, 15060, Note_on_c, 0, 52, 107
3, 15175, Note_on_c, 0, 52, 0
3, 15180, Note_on_c, 0, 51, 107
3, 15290, Note_on_c, 0, 51, 0
3, 15300, Note_on_c, 0, 49, 107
3, 15410, Note_on_c, 0, 49, 0
3, 15420, Note_on_c, 0, 51, 107
3, 15475, Note_on_c, 0, 51, 0
3, 15480, Note_on_c, 0, 51, 107
3, 15539, Note_on_c, 0, 51, 0
3, 15540, Note_on_c, 0, 54, 107
3, 15569, Note_on_c, 0, 54, 0
3, 15570, Note_on_c, 0, 52, 107
3, 15599, Note_on_c, 0, 52, 0
3, 15600, Note_on_c, 0, 54, 107
3, 15659, Note_on_c, 0, 54, 0
3, 15660, Note_on_c, 0, 51, 107
3, 15689, Note_on_c, 0, 51, 0
3, 15690, Note_on_c, 0, 49, 107
3, 15719, Note_on_c, 0, 49, 0
3, 15720, Note_on_c, 0, 51, 107
3, 15779, Note_on_c, 0, 51, 0
3, 15780, Note_on_c, 0, 47, 107
3, 15809, Note_on_c, 0, 47, 0
3, 15810, Note_on_c, 0, 46, 107
3, 15839, Note_on_c, 0, 46, 0
3, 15840, Note_on_c, 0, 47, 107
3, 15950, Note_on_c, 0, 47, 0
3, 15960, Note_on_c, 0, 49, 107
3, 16070, Note_on_c, 0, 49, 0
3, 16080, Note_on_c, 0, 51, 107
3, 16190, Note_on_c, 0, 51, 0
3, 16200, Note_on_c, 0, 52, 107
3, 16310, Note_on_c, 0, 52, 0
3, 16320, Note_on_c, 0, 54, 107
3, 16430, Note_on_c, 0, 54, 0
3, 16440, Note_on_c, 0, 56, 107
3, 16550, Note_on_c, 0, 56, 0
3, 16560, Note_on_c, 0, 58, 107
3, 16670, Note_on_c, 0, 58, 0
3, 16680, Note_on_c, 0, 59, 107
3, 16735, Note_on_c, 0, 59, 0
3, 16740, Note_on_c, 0, 58, 107
3, 16795, Note_on_c, 0, 58, 0
3, 16800, Note_on_c, 0, 56, 107
3, 16855, Note_on_c, 0, 56, 0
3, 16860, Note_on_c, 0, 54, 107
3, 16915, Note_on_c, 0, 54, 0
3, 16920, Note_on_c, 0, 59, 107
3, 17030, Note_on_c, 0, 59, 0
3, 17040, Note_on_c, 0, 47, 107
3, 17261, Note_on_c, 0, 47, 0
3, 17280, Note_on_c, 0, 56, 107
3, 17390, Note_on_c, 0, 56, 0
3, 17400, Note_on_c, 0, 59, 107
3, 17510, Note_on_c, 0, 59, 0
3, 17520, Note_on_c, 0, 63, 107
3, 17630, Note_on_c, 0, 63, 0
3, 17640, Note_on_c, 0, 55, 107
3, 17750, Note_on_c, 0, 55, 0
3, 17760, Note_on_c, 0, 58, 107
3, 17870, Note_on_c, 0, 58, 0
3, 17880, Note_on_c, 0, 63, 107
3, 17990, Note_on_c, 0, 63, 0
3, 18000, Note_on_c, 0, 56, 107
3, 18110, Note_on_c, 0, 56, 0
3, 18120, Note_on_c, 0, 59, 107
3, 18230, Note_on_c, 0, 59, 0
3, 18240, Note_on_c, 0, 63, 107
3, 18350, Note_on_c, 0, 63, 0
3, 18360, Note_on_c, 0, 51, 107
3, 18470, Note_on_c, 0, 51, 0
3, 18480, Note_on_c, 0, 63, 107
3, 18590, Note_on_c, 0, 63, 0
3, 18600, Note_on_c, 0, 61, 107
3, 18710, Note_on_c, 0, 61, 0
3, 18720, Note_on_c, 0, 60, 107
3, 18830, Note_on_c, 0, 60, 0
3, 18840, Note_on_c, 0, 61, 107
3, 18950, Note_on_c, 0, 61, 0
3, 18960, Note_on_c, 0, 63, 107
3, 19070, Note_on_c, 0, 63, 0
3, 19080, Note_on_c, 0, 56, 107
3, 19190, Note_on_c, 0, 56, 0
3, 19200, Note_on_c, 0, 61, 107
3, 19310, Note_on_c, 0, 61, 0
3, 19320, Note_on_c, 0, 59, 107
3, 19430, Note_on_c, 0, 59, 0
3, 19440, Note_on_c, 0, 58, 107
3, 19550, Note_on_c, 0, 58, 0
3, 19560, Note_on_c, 0, 59, 107
3, 19670, Note_on_c, 0, 59, 0
3, 19680, Note_on_c, 0, 61, 107
3, 19790, Note_on_c, 0, 61, 0
3, 19800, Note_on_c, 0, 54, 107
3, 19910, Note_on_c, 0, 54, 0
3, 19920, Note_on_c, 0, 59, 107
3, 20030, Note_on_c, 0, 59, 0
3, 20040, Note_on_c, 0, 63, 107
3, 20150, Note_on_c, 0, 63, 0
3, 20160, Note_on_c, 0, 55, 107
3, 20270, Note_on_c, 0, 55, 0
3, 20280, Note_on_c, 0, 56, 107
3, 20390, Note_on_c, 0, 56, 0
3, 20400, Note_on_c, 0, 58, 107
3, 20510, Note_on_c, 0, 58, 0
3, 20520, Note_on_c, 0, 51, 107
3, 20630, Note_on_c, 0, 51, 0
3, 20640, Note_on_c, 0, 56, 107
3, 20750, Note_on_c, 0, 56, 0
3, 20760, Note_on_c, 0, 59, 107
3, 20870, Note_on_c, 0, 59, 0
3, 20880, Note_on_c, 0, 49, 107
3, 21101, Note_on_c, 0, 49, 0
3, 21120, Note_on_c, 0, 61, 107
3, 21350, Note_on_c, 0, 61, 0
3, 21360, Note_on_c, 0, 58, 107
3, 21470, Note_on_c, 0, 58, 0
3, 21480, Note_on_c, 0, 55, 107
3, 21590, Note_on_c, 0, 55, 0
3, 21600, Note_on_c, 0, 56, 107
3, 21710, Note_on_c, 0, 56, 0
3, 21720, Note_on_c, 0, 49, 107
3, 21830, Note_on_c, 0, 49, 0
3, 21840, Note_on_c, 0, 51, 107
3, 21950, Note_on_c, 0, 51, 0
3, 21960, Note_on_c, 0, 44, 107
3, 22126, Note_on_c, 0, 44, 0
3, 22140, Note_on_c, 0, 44, 107
3, 22195, Note_on_c, 0, 44, 0
3, 22200, Note_on_c, 0, 56, 107
3, 22255, Note_on_c, 0, 56, 0
3, 22260, Note_on_c, 0, 54, 107
3, 22375, Note_on_c, 0, 54, 0
3, 22380, Note_on_c, 0, 52, 107
3, 22490, Note_on_c, 0, 52, 0
3, 22500, Note_on_c, 0, 51, 107
3, 22610, Note_on_c, 0, 51, 0
3, 22620, Note_on_c, 0, 50, 107
3, 22735, Note_on_c, 0, 50, 0
3, 22740, Note_on_c, 0, 49, 107
3, 22850, Note_on_c, 0, 49, 0
3, 22860, Note_on_c, 0, 47, 107
3, 22970, Note_on_c, 0, 47, 0
3, 22980, Note_on_c, 0, 45, 107
3, 23095, Note_on_c, 0, 45, 0
3, 23100, Note_on_c, 0, 44, 107
3, 23210, Note_on_c, 0, 44, 0
3, 23220, Note_on_c, 0, 42, 107
3, 23330, Note_on_c, 0, 42, 0
3, 23340, Note_on_c, 0, 44, 107
3, 23395, Note_on_c, 0, 44, 0
3, 23400, Note_on_c, 0, 44, 107
3, 23455, Note_on_c, 0, 44, 0
3, 23460, Note_on_c, 0, 47, 107
3, 23488, Note_on_c, 0, 47, 0
3, 23490, Note_on_c, 0, 45, 107
3, 23518, Note_on_c, 0, 45, 0
3, 23520, Note_on_c, 0, 47, 107
3, 23575, Note_on_c, 0, 47, 0
3, 23580, Note_on_c, 0, 44, 107
3, 23608, Note_on_c, 0, 44, 0
3, 23610, Note_on_c, 0, 42, 107
3, 23638, Note_on_c, 0, 42, 0
3, 23640, Note_on_c, 0, 44, 107
3, 23695, Note_on_c, 0, 44, 0
3, 23700, Note_on_c, 0, 40, 107
3, 23728, Note_on_c, 0, 40, 0
3, 23730, Note_on_c, 0, 39, 107
3, 23758, Note_on_c, 0, 39, 0
3, 23760, Note_on_c, 0, 40, 107
3, 23870, Note_on_c, 0, 40, 0
3, 23880, Note_on_c, 0, 42, 107
3, 23990, Note_on_c, 0, 42, 0
3, 24000, Note_on_c, 0, 44, 107
3, 24110, Note_on_c, 0, 44, 0
3, 24120, Note_on_c, 0, 45, 107
3, 24230, Note_on_c, 0, 45, 0
3, 24240, Note_on_c, 0, 47, 107
3, 24350, Note_on_c, 0, 47, 0
3, 24360, Note_on_c, 0, 49, 107
3, 24470, Note_on_c, 0, 49, 0
3, 24480, Note_on_c, 0, 51, 107
3, 24590, Note_on_c, 0, 51, 0
3, 24600, Note_on_c, 0, 52, 107
3, 24655, Note_on_c, 0, 52, 0
3, 24660, Note_on_c, 0, 51, 107
3, 24715, Note_on_c, 0, 51, 0
3, 24720, Note_on_c, 0, 49, 107
3, 24775, Note_on_c, 0, 49, 0
3, 24780, Note_on_c, 0, 47, 107
3, 24835, Note_on_c, 0, 47, 0
3, 24840, Note_on_c, 0, 52, 107
3, 25006, Note_on_c, 0, 52, 0
3, 25020, Note_on_c, 0, 59, 107
3, 25048, Note_on_c, 0, 59, 0
3, 25050, Note_on_c, 0, 57, 107
3, 25078, Note_on_c, 0, 57, 0
3, 25080, Note_on_c, 0, 59, 107
3, 25135, Note_on_c, 0, 59, 0
3, 25140, Note_on_c, 0, 56, 107
3, 25168, Note_on_c, 0, 56, 0
3, 25170, Note_on_c, 0, 54, 107
3, 25198, Note_on_c, 0, 54, 0
3, 25200, Note_on_c, 0, 56, 107
3, 25255, Note_on_c, 0, 56, 0
3, 25260, Note_on_c, 0, 61, 107
3, 25370, Note_on_c, 0, 61, 0
3, 25380, Note_on_c, 0, 57, 107
3, 25490, Note_on_c, 0, 57, 0
3, 25500, Note_on_c, 0, 54, 107
3, 25619, Note_on_c, 0, 54, 0
3, 25620, Note_on_c, 0, 57, 107
3, 25649, Note_on_c, 0, 57, 0
3, 25650, Note_on_c, 0, 56, 107
3, 25679, Note_on_c, 0, 56, 0
3, 25680, Note_on_c, 0, 57, 107
3, 25739, Note_on_c, 0, 57, 0
3, 25740, Note_on_c, 0, 54, 107
3, 25799, Note_on_c, 0, 54, 0
3, 25800, Note_on_c, 0, 51, 107
3, 25859, Note_on_c, 0, 51, 0
3, 25860, Note_on_c, 0, 47, 107
3, 25975, Note_on_c, 0, 47, 0
3, 25980, Note_on_c, 0, 59, 107
3, 26090, Note_on_c, 0, 59, 0
3, 26100, Note_on_c, 0, 56, 107
3, 26210, Note_on_c, 0, 56, 0
3, 26220, Note_on_c, 0, 52, 107
3, 26339, Note_on_c, 0, 52, 0
3, 26340, Note_on_c, 0, 56, 107
3, 26369, Note_on_c, 0, 56, 0
3, 26370, Note_on_c, 0, 54, 107
3, 26399, Note_on_c, 0, 54, 0
3, 26400, Note_on_c, 0, 56, 107
3, 26459, Note_on_c, 0, 56, 0
3, 26460, Note_on_c, 0, 52, 107
3, 26519, Note_on_c, 0, 52, 0
3, 26520, Note_on_c, 0, 49, 107
3, 26579, Note_on_c, 0, 49, 0
3, 26580, Note_on_c, 0, 45, 107
3, 26695, Note_on_c, 0, 45, 0
3, 26700, Note_on_c, 0, 57, 107
3, 26810, Note_on_c, 0, 57, 0
3, 26820, Note_on_c, 0, 54, 107
3, 26930, Note_on_c, 0, 54, 0
3, 26940, Note_on_c, 0, 51, 107
3, 27055, Note_on_c, 0, 51, 0
3, 27060, Note_on_c, 0, 61, 107
3, 27170, Note_on_c, 0, 61, 0
3, 27180, Note_on_c, 0, 59, 107
3, 27290, Note_on_c, 0, 59, 0
3, 27300, Note_on_c, 0, 57, 107
3, 27415, Note_on_c, 0, 57, 0
3, 27420, Note_on_c, 0, 56, 107
3, 27530, Note_on_c, 0, 56, 0
3, 27540, Note_on_c, 0, 54, 107
3, 27650, Note_on_c, 0, 54, 0
3, 27660, Note_on_c, 0, 52, 107
3, 27715, Note_on_c, 0, 52, 0
3, 27720, Note_on_c, 0, 51, 107
3, 27779, Note_on_c, 0, 51, 0
3, 27780, Note_on_c, 0, 57, 107
3, 27809, Note_on_c, 0, 57, 0
3, 27810, Note_on_c, 0, 56, 107
3, 27839, Note_on_c, 0, 56, 0
3, 27840, Note_on_c, 0, 57, 107
3, 27899, Note_on_c, 0, 57, 0
3, 27900, Note_on_c, 0, 51, 107
3, 27929, Note_on_c, 0, 51, 0
3, 27930, Note_on_c, 0, 49, 107
3, 27959, Note_on_c, 0, 49, 0
3, 27960, Note_on_c, 0, 51, 107
3, 28019, Note_on_c, 0, 51, 0
3, 28020, Note_on_c, 0, 56, 107
3, 28049, Note_on_c, 0, 56, 0
3, 28050, Note_on_c, 0, 54, 107
3, 28079, Note_on_c, 0, 54, 0
3, 28080, Note_on_c, 0, 56, 107
3, 28190, Note_on_c, 0, 56, 0
3, 28200, Note_on_c, 0, 57, 107
3, 28310, Note_on_c, 0, 57, 0
3, 28320, Note_on_c, 0, 59, 107
3, 28430, Note_on_c, 0, 59, 0
3, 28440, Note_on_c, 0, 52, 107
3, 28606, Note_on_c, 0, 52, 0
3, 28620, Note_on_c, 0, 64, 107
3, 28675, Note_on_c, 0, 64, 0
3, 28680, Note_on_c, 0, 59, 107
3, 28735, Note_on_c, 0, 59, 0
3, 28740, Note_on_c, 0, 56, 107
3, 28795, Note_on_c, 0, 56, 0
3, 28800, Note_on_c, 0, 52, 107
3, 28855, Note_on_c, 0, 52, 0
3, 28860, Note_on_c, 0, 59, 107
3, 28915, Note_on_c, 0, 59, 0
3, 28920, Note_on_c, 0, 56, 107
3, 28975, Note_on_c, 0, 56, 0
3, 28980, Note_on_c, 0, 52, 107
3, 29035, Note_on_c, 0, 52, 0
3, 29040, Note_on_c, 0, 47, 107
3, 29095, Note_on_c, 0, 47, 0
3, 29100, Note_on_c, 0, 44, 107
3, 29155, Note_on_c, 0, 44, 0
3, 29160, Note_on_c, 0, 40, 107
3, 29381, Note_on_c, 0, 40, 0
3, 29400, Note_on_c, 0, 52, 107
3, 29510, Note_on_c, 0, 52, 0
3, 29580, Note_on_c, 0, 59, 107
3, 29690, Note_on_c, 0, 59, 0
3, 29700, Note_on_c, 0, 58, 107
3, 29810, Note_on_c, 0, 58, 0
3, 29820, Note_on_c, 0, 57, 107
3, 29935, Note_on_c, 0, 57, 0
3, 29940, Note_on_c, 0, 56, 107
3, 30050, Note_on_c, 0, 56, 0
3, 30060, Note_on_c, 0, 54, 107
3, 30170, Note_on_c, 0, 54, 0
3, 30180, Note_on_c, 0, 52, 107
3, 30295, Note_on_c, 0, 52, 0
3, 30300, Note_on_c, 0, 51, 107
3, 30410, Note_on_c, 0, 51, 0
3, 30420, Note_on_c, 0, 49, 107
3, 30530, Note_on_c, 0, 49, 0
3, 30540, Note_on_c, 0, 51, 107
3, 30595, Note_on_c, 0, 51, 0
3, 30600, Note_on_c, 0, 51, 107
3, 30659, Note_on_c, 0, 51, 0
3, 30660, Note_on_c, 0, 54, 107
3, 30689, Note_on_c, 0, 54, 0
3, 30690, Note_on_c, 0, 52, 107
3, 30719, Note_on_c, 0, 52, 0
3, 30720, Note_on_c, 0, 54, 107
3, 30779, Note_on_c, 0, 54, 0
3, 30780, Note_on_c, 0, 51, 107
3, 30809, Note_on_c, 0, 51, 0
3, 30810, Note_on_c, 0, 49, 107
3, 30839, Note_on_c, 0, 49, 0
3, 30840, Note_on_c, 0, 51, 107
3, 30899, Note_on_c, 0, 51, 0
3, 30900, Note_on_c, 0, 47, 107
3, 30929, Note_on_c, 0, 47, 0
3, 30930, Note_on_c, 0, 46, 107
3, 30959, Note_on_c, 0, 46, 0
3, 30960, Note_on_c, 0, 47, 107
3, 31070, Note_on_c, 0, 47, 0
3, 31080, Note_on_c, 0, 49, 107
3, 31190, Note_on_c, 0, 49, 0
3, 31200, Note_on_c, 0, 51, 107
3, 31310, Note_on_c, 0, 51, 0
3, 31320, Note_on_c, 0, 52, 107
3, 31430, Note_on_c, 0, 52, 0
3, 31440, Note_on_c, 0, 54, 107
3, 31550, Note_on_c, 0, 54, 0
3, 31560, Note_on_c, 0, 56, 107
3, 31670, Note_on_c, 0, 56, 0
3, 31680, Note_on_c, 0, 58, 107
3, 31790, Note_on_c, 0, 58, 0
3, 31800, Note_on_c, 0, 59, 107
3, 31855, Note_on_c, 0, 59, 0
3, 31860, Note_on_c, 0, 58, 107
3, 31915, Note_on_c, 0, 58, 0
3, 31920, Note_on_c, 0, 56, 107
3, 31975, Note_on_c, 0, 56, 0
3, 31980, Note_on_c, 0, 54, 107
3, 32035, Note_on_c, 0, 54, 0
3, 32040, Note_on_c, 0, 59, 107
3, 32150, Note_on_c, 0, 59, 0
3, 32160, Note_on_c, 0, 47, 107
3, 32381, Note_on_c, 0, 47, 0
3, 32400, Note_on_c, 0, 56, 107
3, 32510, Note_on_c, 0, 56, 0
3, 32520, Note_on_c, 0, 59, 107
3, 32630, Note_on_c, 0, 59, 0
3, 32640, Note_on_c, 0, 63, 107
3, 32750, Note_on_c, 0, 63, 0
3, 32760, Note_on_c, 0, 55, 107
3, 32870, Note_on_c, 0, 55, 0
3, 32880, Note_on_c, 0, 58, 107
3, 32990, Note_on_c, 0, 58, 0
3, 33000, Note_on_c, 0, 63, 107
3, 33110, Note_on_c, 0, 63, 0
3, 33120, Note_on_c, 0, 56, 107
3, 33230, Note_on_c, 0, 56, 0
3, 33240, Note_on_c, 0, 59, 107
3, 33350, Note_on_c, 0, 59, 0
3, 33360, Note_on_c, 0, 63, 107
3, 33470, Note_on_c, 0, 63, 0
3, 33480, Note_on_c, 0, 51, 107
3, 33590, Note_on_c, 0, 51, 0
3, 33600, Note_on_c, 0, 63, 107
3, 33710, Note_on_c, 0, 63, 0
3, 33720, Note_on_c, 0, 61, 107
3, 33830, Note_on_c, 0, 61, 0
3, 33840, Note_on_c, 0, 60, 107
3, 33950, Note_on_c, 0, 60, 0
3, 33960, Note_on_c, 0, 61, 107
3, 34070, Note_on_c, 0, 61, 0
3, 34080, Note_on_c, 0, 63, 107
3, 34190, Note_on_c, 0, 63, 0
3, 34200, Note_on_c, 0, 56, 107
3, 34310, Note_on_c, 0, 56, 0
3, 34320, Note_on_c, 0, 61, 107
3, 34430, Note_on_c, 0, 61, 0
3, 34440, Note_on_c, 0, 59, 107
3, 34550, Note_on_c, 0, 59, 0
3, 34560, Note_on_c, 0, 58, 107
3, 34670, Note_on_c, 0, 58, 0
3, 34680, Note_on_c, 0, 59, 107
3, 34790, Note_on_c, 0, 59, 0
3, 34800, Note_on_c, 0, 61, 107
3, 34910, Note_on_c, 0, 61, 0
3, 34920, Note_on_c, 0, 54, 107
3, 35030, Note_on_c, 0, 54, 0
3, 35040, Note_on_c, 0, 59, 107
3, 35150, Note_on_c, 0, 59, 0
3, 35160, Note_on_c, 0, 63, 107
3, 35270, Note_on_c, 0, 63, 0
3, 35280, Note_on_c, 0, 55, 107
3, 35390, Note_on_c, 0, 55, 0
3, 35400, Note_on_c, 0, 56, 107
3, 35510, Note_on_c, 0, 56, 0
3, 35520, Note_on_c, 0, 58, 107
3, 35630, Note_on_c, 0, 58, 0
3, 35640, Note_on_c, 0, 51, 107
3, 35750, Note_on_c, 0, 51, 0
3, 35760, Note_on_c, 0, 56, 107
3, 35870, Note_on_c, 0, 56, 0
3, 35880, Note_on_c, 0, 59, 107
3, 35990, Note_on_c, 0, 59, 0
3, 36000, Note_on_c, 0, 49, 107
3, 36221, Note_on_c, 0, 49, 0
3, 36240, Note_on_c, 0, 61, 107
3, 36470, Note_on_c, 0, 61, 0
3, 36480, Note_on_c, 0, 58, 107
3, 36590, Note_on_c, 0, 58, 0
3, 36600, Note_on_c, 0, 55, 107
3, 36710, Note_on_c, 0, 55, 0
3, 36720, Note_on_c, 0, 56, 107
3, 36830, Note_on_c, 0, 56, 0
3, 36840, Note_on_c, 0, 49, 107
3, 36950, Note_on_c, 0, 49, 0
3, 36960, Note_on_c, 0, 51, 107
3, 37070, Note_on_c, 0, 51, 0
3, 37080, Note_on_c, 0, 44, 107
3, 37246, Note_on_c, 0, 44, 0
3, 37260, Note_on_c, 0, 44, 107
3, 37315, Note_on_c, 0, 44, 0
3, 37320, Note_on_c, 0, 56, 107
3, 37375, Note_on_c, 0, 56, 0
3, 37380, Note_on_c, 0, 54, 107
3, 37495, Note_on_c, 0, 54, 0
3, 37500, Note_on_c, 0, 52, 107
3, 37610, Note_on_c, 0, 52, 0
3, 37620, Note_on_c, 0, 51, 107
3, 37730, Note_on_c, 0, 51, 0
3, 37740, Note_on_c, 0, 50, 107
3, 37855, Note_on_c, 0, 50, 0
3, 37860, Note_on_c, 0, 49, 107
3, 37970, Note_on_c, 0, 49, 0
3, 37980, Note_on_c, 0, 47, 107
3, 38090, Note_on_c, 0, 47, 0
3, 38100, Note_on_c, 0, 45, 107
3, 38215, Note_on_c, 0, 45, 0
3, 38220, Note_on_c, 0, 44, 107
3, 38330, Note_on_c, 0, 44, 0
3, 38340, Note_on_c, 0, 42, 107
3, 38450, Note_on_c, 0, 42, 0
3, 38460, Note_on_c, 0, 44, 107
3, 38515, Note_on_c, 0, 44, 0
3, 38520, Note_on_c, 0, 44, 107
3, 38575, Note_on_c, 0, 44, 0
3, 38580, Note_on_c, 0, 47, 107
3, 38608, Note_on_c, 0, 47, 0
3, 38610, Note_on_c, 0, 45, 107
3, 38638, Note_on_c, 0, 45, 0
3, 38640, Note_on_c, 0, 47, 107
3, 38695, Note_on_c, 0, 47, 0
3, 38700, Note_on_c, 0, 44, 107
3, 38728, Note_on_c, 0, 44, 0
3, 38730, Note_on_c, 0, 42, 107
3, 38758, Note_on_c, 0, 42, 0
3, 38760, Note_on_c, 0, 44, 107
3, 38815, Note_on_c, 0, 44, 0
3, 38820, Note_on_c, 0, 40, 107
3, 38848, Note_on_c, 0, 40, 0
3, 38850, Note_on_c, 0, 39, 107
3, 38878, Note_on_c, 0, 39, 0
3, 38880, Note_on_c, 0, 40, 107
3, 38990, Note_on_c, 0, 40, 0
3, 39000, Note_on_c, 0, 42, 107
3, 39110, Note_on_c, 0, 42, 0
3, 39120, Note_on_c, 0, 44, 107
3, 39230, Note_on_c, 0, 44, 0
3, 39240, Note_on_c, 0, 45, 107
3, 39350, Note_on_c, 0, 45, 0
3, 39360, Note_on_c, 0, 47, 107
3, 39470, Note_on_c, 0, 47, 0
3, 39480, Note_on_c, 0, 49, 107
3, 39590, Note_on_c, 0, 49, 0
3, 39600, Note_on_c, 0, 51, 107
3, 39710, Note_on_c, 0, 51, 0
3, 39720, Note_on_c, 0, 52, 107
3, 39775, Note_on_c, 0, 52, 0
3, 39780, Note_on_c, 0, 51, 107
3, 39835, Note_on_c, 0, 51, 0
3, 39840, Note_on_c, 0, 49, 107
3, 39895, Note_on_c, 0, 49, 0
3, 39900, Note_on_c, 0, 47, 107
3, 39955, Note_on_c, 0, 47, 0
3, 39960, Note_on_c, 0, 52, 107
3, 40126, Note_on_c, 0, 52, 0
3, 40140, Note_on_c, 0, 59, 107
3, 40168, Note_on_c, 0, 59, 0
3, 40170, Note_on_c, 0, 57, 107
3, 40198, Note_on_c, 0, 57, 0
3, 40200, Note_on_c, 0, 59, 107
3, 40255, Note_on_c, 0, 59, 0
3, 40260, Note_on_c, 0, 56, 107
3, 40288, Note_on_c, 0, 56, 0
3, 40290, Note_on_c, 0, 54, 107
3, 40318, Note_on_c, 0, 54, 0
3, 40320, Note_on_c, 0, 56, 107
3, 40375, Note_on_c, 0, 56, 0
3, 40380, Note_on_c, 0, 61, 107
3, 40490, Note_on_c, 0, 61, 0
3, 40500, Note_on_c, 0, 57, 107
3, 40610, Note_on_c, 0, 57, 0
3, 40620, Note_on_c, 0, 54, 107
3, 40739, Note_on_c, 0, 54, 0
3, 40740, Note_on_c, 0, 57, 107
3, 40769, Note_on_c, 0, 57, 0
3, 40770, Note_on_c, 0, 56, 107
3, 40799, Note_on_c, 0, 56, 0
3, 40800, Note_on_c, 0, 57, 107
3, 40859, Note_on_c, 0, 57, 0
3, 40860, Note_on_c, 0, 54, 107
3, 40919, Note_on_c, 0, 54, 0
3, 40920, Note_on_c, 0, 51, 107
3, 40979, Note_on_c, 0, 51, 0
3, 40980, Note_on_c, 0, 47, 107
3, 41095, Note_on_c, 0, 47, 0
3, 41100, Note_on_c, 0, 59, 107
3, 41210, Note_on_c, 0, 59, 0
3, 41220, Note_on_c, 0, 56, 107
3, 41330, Note_on_c, 0, 56, 0
3, 41340, Note_on_c, 0, 52, 107
3, 41459, Note_on_c, 0, 52, 0
3, 41460, Note_on_c, 0, 56, 107
3, 41489, Note_on_c, 0, 56, 0
3, 41490, Note_on_c, 0, 54, 107
3, 41519, Note_on_c, 0, 54, 0
3, 41520, Note_on_c, 0, 56, 107
3, 41579, Note_on_c, 0, 56, 0
3, 41580, Note_on_c, 0, 52, 107
3, 41639, Note_on_c, 0, 52, 0
3, 41640, Note_on_c, 0, 49, 107
3, 41699, Note_on_c, 0, 49, 0
3, 41700, Note_on_c, 0, 45, 107
3, 41815, Note_on_c, 0, 45, 0
3, 41820, Note_on_c, 0, 57, 107
3, 41930, Note_on_c, 0, 57, 0
3, 41940, Note_on_c, 0, 54, 107
3, 42050, Note_on_c, 0, 54, 0
3, 42060, Note_on_c, 0, 51, 107
3, 42175, Note_on_c, 0, 51, 0
3, 42180, Note_on_c, 0, 61, 107
3, 42290, Note_on_c, 0, 61, 0
3, 42300, Note_on_c, 0, 59, 107
3, 42410, Note_on_c, 0, 59, 0
3, 42420, Note_on_c, 0, 57, 107
3, 42535, Note_on_c, 0, 57, 0
3, 42540, Note_on_c, 0, 56, 107
3, 42650, Note_on_c, 0, 56, 0
3, 42660, Note_on_c, 0, 54, 107
3, 42770, Note_on_c, 0, 54, 0
3, 42780, Note_on_c, 0, 52, 107
3, 42835, Note_on_c, 0, 52, 0
3, 42840, Note_on_c, 0, 51, 107
3, 42899, Note_on_c, 0, 51, 0
3, 42900, Note_on_c, 0, 57, 107
3, 42929, Note_on_c, 0, 57, 0
3, 42930, Note_on_c, 0, 56, 107
3, 42959, Note_on_c, 0, 56, 0
3, 42960, Note_on_c, 0, 57, 107
3, 43019, Note_on_c, 0, 57, 0
3, 43020, Note_on_c, 0, 51, 107
3, 43049, Note_on_c, 0, 51, 0
3, 43050, Note_on_c, 0, 49, 107
3, 43079, Note_on_c, 0, 49, 0
3, 43080, Note_on_c, 0, 51, 107
3, 43139, Note_on_c, 0, 51, 0
3, 43140, Note_on_c, 0, 56, 107
3, 43169, Note_on_c, 0, 56, 0
3, 43170, Note_on_c, 0, 54, 107
3, 43199, Note_on_c, 0, 54, 0
3, 43200, Note_on_c, 0, 56, 107
3, 43310, Note_on_c, 0, 56, 0
3, 43320, Note_on_c, 0, 57, 107
3, 43430, Note_on_c, 0, 57, 0
3, 43440, Note_on_c, 0, 59, 107
3, 43550, Note_on_c, 0, 59, 0
3, 43560, Note_on_c, 0, 52, 107
3, 43726, Note_on_c, 0, 52, 0
3, 43740, Note_on_c, 0, 64, 107
3, 43795, Note_on_c, 0, 64, 0
3, 43800, Note_on_c, 0, 59, 107
3, 43855, Note_on_c, 0, 59, 0
3, 43860, Note_on_c, 0, 56, 107
3, 43915, Note_on_c, 0, 56, 0
3, 43920, Note_on_c, 0, 52, 107
3, 43975, Note_on_c, 0, 52, 0
3, 43980, Note_on_c, 0, 59, 107
3, 44035, Note_on_c, 0, 59, 0
3, 44040, Note_on_c, 0, 56, 107
3, 44095, Note_on_c, 0, 56, 0
3, 44100, Note_on_c, 0, 52, 107
3, 44155, Note_on_c, 0, 52, 0
3, 44160, Note_on_c, 0, 47, 107
3, 44215, Note_on_c, 0, 47, 0
3, 44220, Note_on_c, 0, 44, 107
3, 44275, Note_on_c, 0, 44, 0
3, 44280, Note_on_c, 0, 40, 107
3, 44501, Note_on_c, 0, 40, 0
3, 44520, Note_on_c, 0, 52, 107
3, 44832, Note_on_c, 0, 52, 0
3, 44832, End_track
0, 0, End_of_file
