0, 0, Header, 1, 2, 384
1, 0, Start_track
1, 0, Title_t, "--------"
1, 0, Text_t, "harpsichord: John Sankey\012"
1, 0, Time_signature, 4, 2, 24, 8
1, 0, Key_signature, 0, "major"
1, 0, Tempo, 500000
1, 0, End_track
2, 0, Start_track
2, 0, Title_t, "Piano 1"
2, 0, Program_c, 0, 6
2, 0, Control_c, 0, 7, 100
2, 0, Program_c, 0, 6
2, 0, Pitch_bend_c, 0, 8192
2, 0, Program_c, 0, 6
2, 0, Pitch_bend_c, 0, 7792
2, 0, Program_c, 0, 6
2, 0, Pitch_bend_c, 0, 7876
2, 0, Program_c, 0, 6
2, 0, Pitch_bend_c, 0, 7952
2, 0, Program_c, 0, 6
2, 0, Pitch_bend_c, 0, 7792
2, 0, Program_c, 0, 6
2, 0, Pitch_bend_c, 0, 8112
2, 0, Program_c, 0, 6
2, 0, Pitch_bend_c, 0, 7712
2, 0, Program_c, 0, 6
2, 0, Pitch_bend_c, 0, 8037
2, 0, Program_c, 0, 6
2, 0, Pitch_bend_c, 0, 7872
2, 0, Program_c, 0, 6
2, 0, Pitch_bend_c, 0, 7712
2, 0, Program_c, 0, 6
2, 0, Pitch_bend_c, 0, 8032
2, 0, Program_c, 0, 6
2, 0, Pitch_bend_c, 0, 7872
2, 48, Note_on_c, 0, 43, 102
2, 392, Note_on_c, 0, 67, 102
2, 734, Note_on_c, 0, 43, 0
2, 736, Note_on_c, 0, 47, 102
2, 906, Note_on_c, 0, 67, 0
2, 908, Note_on_c, 0, 66, 102
2, 1078, Note_on_c, 0, 66, 0
2, 1080, Note_on_c, 0, 67, 102
2, 1250, Note_on_c, 0, 67, 0
2, 1252, Note_on_c, 0, 69, 102
2, 1422, Note_on_c, 0, 69, 0
2, 1422, Note_on_c, 0, 47, 0
2, 1424, Note_on_c, 0, 43, 102
2, 1424, Note_on_c, 0, 71, 102
2, 1594, Note_on_c, 0, 71, 0
2, 1596, Note_on_c, 0, 72, 102
2, 1766, Note_on_c, 0, 72, 0
2, 1768, Note_on_c, 0, 74, 102
2, 1938, Note_on_c, 0, 74, 0
2, 1940, Note_on_c, 0, 71, 102
2, 2110, Note_on_c, 0, 71, 0
2, 2110, Note_on_c, 0, 43, 0
2, 2112, Note_on_c, 0, 48, 102
2, 2112, Note_on_c, 0, 76, 102
2, 2282, Note_on_c, 0, 76, 0
2, 2284, Note_on_c, 0, 74, 102
2, 2454, Note_on_c, 0, 74, 0
2, 2456, Note_on_c, 0, 72, 102
2, 2626, Note_on_c, 0, 72, 0
2, 2628, Note_on_c, 0, 71, 102
2, 2798, Note_on_c, 0, 71, 0
2, 2798, Note_on_c, 0, 48, 0
2, 2800, Note_on_c, 0, 50, 102
2, 2800, Note_on_c, 0, 69, 102
2, 2970, Note_on_c, 0, 69, 0
2, 2972, Note_on_c, 0, 67, 102
2, 3142, Note_on_c, 0, 67, 0
2, 3144, Note_on_c, 0, 66, 102
2, 3314, Note_on_c, 0, 66, 0
2, 3316, Note_on_c, 0, 64, 102
2, 3486, Note_on_c, 0, 64, 0
2, 3486, Note_on_c, 0, 50, 0
2, 3488, Note_on_c, 0, 38, 102
2, 3488, Note_on_c, 0, 62, 102
2, 3658, Note_on_c, 0, 62, 0
2, 3660, Note_on_c, 0, 72, 102
2, 3830, Note_on_c, 0, 72, 0
2, 3832, Note_on_c, 0, 71, 102
2, 4002, Note_on_c, 0, 71, 0
2, 4004, Note_on_c, 0, 69, 102
2, 4174, Note_on_c, 0, 69, 0
2, 4174, Note_on_c, 0, 38, 0
2, 4176, Note_on_c, 0, 43, 102
2, 4176, Note_on_c, 0, 71, 102
2, 4520, Note_on_c, 0, 62, 102
2, 4862, Note_on_c, 0, 43, 0
2, 4864, Note_on_c, 0, 55, 102
2, 5034, Note_on_c, 0, 62, 0
2, 5034, Note_on_c, 0, 71, 0
2, 5036, Note_on_c, 0, 61, 102
2, 5036, Note_on_c, 0, 69, 102
2, 5206, Note_on_c, 0, 69, 0
2, 5206, Note_on_c, 0, 61, 0
2, 5208, Note_on_c, 0, 62, 102
2, 5208, Note_on_c, 0, 71, 102
2, 5378, Note_on_c, 0, 71, 0
2, 5378, Note_on_c, 0, 62, 0
2, 5380, Note_on_c, 0, 64, 102
2, 5380, Note_on_c, 0, 73, 102
2, 5550, Note_on_c, 0, 73, 0
2, 5550, Note_on_c, 0, 64, 0
2, 5550, Note_on_c, 0, 55, 0
2, 5552, Note_on_c, 0, 54, 102
2, 5552, Note_on_c, 0, 66, 102
2, 5552, Note_on_c, 0, 74, 102
2, 5722, Note_on_c, 0, 66, 0
2, 5724, Note_on_c, 0, 67, 102
2, 5894, Note_on_c, 0, 67, 0
2, 5896, Note_on_c, 0, 69, 102
2, 6066, Note_on_c, 0, 69, 0
2, 6068, Note_on_c, 0, 66, 102
2, 6238, Note_on_c, 0, 66, 0
2, 6238, Note_on_c, 0, 54, 0
2, 6240, Note_on_c, 0, 55, 102
2, 6240, Note_on_c, 0, 71, 102
2, 6410, Note_on_c, 0, 71, 0
2, 6412, Note_on_c, 0, 69, 102
2, 6582, Note_on_c, 0, 69, 0
2, 6584, Note_on_c, 0, 67, 102
2, 6754, Note_on_c, 0, 67, 0
2, 6756, Note_on_c, 0, 66, 102
2, 6926, Note_on_c, 0, 66, 0
2, 6926, Note_on_c, 0, 55, 0
2, 6928, Note_on_c, 0, 57, 102
2, 6928, Note_on_c, 0, 64, 102
2, 7098, Note_on_c, 0, 64, 0
2, 7100, Note_on_c, 0, 62, 102
2, 7270, Note_on_c, 0, 62, 0
2, 7272, Note_on_c, 0, 61, 102
2, 7442, Note_on_c, 0, 61, 0
2, 7444, Note_on_c, 0, 59, 102
2, 7614, Note_on_c, 0, 59, 0
2, 7614, Note_on_c, 0, 57, 0
2, 7614, Note_on_c, 0, 74, 0
2, 7616, Note_on_c, 0, 45, 102
2, 7616, Note_on_c, 0, 57, 102
2, 7616, Note_on_c, 0, 73, 102
2, 7786, Note_on_c, 0, 57, 0
2, 7788, Note_on_c, 0, 67, 102
2, 7958, Note_on_c, 0, 67, 0
2, 7960, Note_on_c, 0, 66, 102
2, 8130, Note_on_c, 0, 66, 0
2, 8132, Note_on_c, 0, 64, 102
2, 8302, Note_on_c, 0, 64, 0
2, 8302, Note_on_c, 0, 73, 0
2, 8302, Note_on_c, 0, 45, 0
2, 8304, Note_on_c, 0, 50, 102
2, 8304, Note_on_c, 0, 66, 102
2, 8304, Note_on_c, 0, 74, 102
2, 8474, Note_on_c, 0, 66, 0
2, 8476, Note_on_c, 0, 57, 102
2, 8646, Note_on_c, 0, 57, 0
2, 8648, Note_on_c, 0, 59, 102
2, 8818, Note_on_c, 0, 59, 0
2, 8820, Note_on_c, 0, 61, 102
2, 8985, Note_on_c, 0, 50, 0
2, 8990, Note_on_c, 0, 61, 0
2, 8992, Note_on_c, 0, 62, 102
2, 9162, Note_on_c, 0, 62, 0
2, 9162, Note_on_c, 0, 74, 0
2, 9164, Note_on_c, 0, 64, 102
2, 9164, Note_on_c, 0, 73, 102
2, 9334, Note_on_c, 0, 73, 0
2, 9334, Note_on_c, 0, 64, 0
2, 9336, Note_on_c, 0, 66, 102
2, 9336, Note_on_c, 0, 74, 102
2, 9506, Note_on_c, 0, 74, 0
2, 9506, Note_on_c, 0, 66, 0
2, 9508, Note_on_c, 0, 67, 102
2, 9508, Note_on_c, 0, 76, 102
2, 9678, Note_on_c, 0, 76, 0
2, 9678, Note_on_c, 0, 67, 0
2, 9680, Note_on_c, 0, 69, 102
2, 9680, Note_on_c, 0, 78, 102
2, 9850, Note_on_c, 0, 78, 0
2, 9850, Note_on_c, 0, 69, 0
2, 9852, Note_on_c, 0, 71, 102
2, 9852, Note_on_c, 0, 79, 102
2, 10022, Note_on_c, 0, 79, 0
2, 10022, Note_on_c, 0, 71, 0
2, 10024, Note_on_c, 0, 72, 102
2, 10024, Note_on_c, 0, 81, 102
2, 10194, Note_on_c, 0, 81, 0
2, 10194, Note_on_c, 0, 72, 0
2, 10196, Note_on_c, 0, 69, 102
2, 10196, Note_on_c, 0, 78, 102
2, 10366, Note_on_c, 0, 78, 0
2, 10366, Note_on_c, 0, 69, 0
2, 10368, Note_on_c, 0, 74, 102
2, 10368, Note_on_c, 0, 83, 102
2, 10538, Note_on_c, 0, 83, 0
2, 10540, Note_on_c, 0, 81, 102
2, 10710, Note_on_c, 0, 81, 0
2, 10710, Note_on_c, 0, 74, 0
2, 10712, Note_on_c, 0, 71, 102
2, 10712, Note_on_c, 0, 79, 102
2, 10882, Note_on_c, 0, 79, 0
2, 10884, Note_on_c, 0, 78, 102
2, 11054, Note_on_c, 0, 78, 0
2, 11054, Note_on_c, 0, 71, 0
2, 11056, Note_on_c, 0, 67, 102
2, 11056, Note_on_c, 0, 76, 102
2, 11226, Note_on_c, 0, 76, 0
2, 11228, Note_on_c, 0, 74, 102
2, 11398, Note_on_c, 0, 74, 0
2, 11398, Note_on_c, 0, 67, 0
2, 11400, Note_on_c, 0, 64, 102
2, 11400, Note_on_c, 0, 72, 102
2, 11570, Note_on_c, 0, 72, 0
2, 11572, Note_on_c, 0, 71, 102
2, 11742, Note_on_c, 0, 71, 0
2, 11742, Note_on_c, 0, 64, 0
2, 11744, Note_on_c, 0, 72, 102
2, 11744, Note_on_c, 0, 69, 102
2, 11914, Note_on_c, 0, 69, 0
2, 11916, Note_on_c, 0, 79, 102
2, 12086, Note_on_c, 0, 79, 0
2, 12088, Note_on_c, 0, 78, 102
2, 12258, Note_on_c, 0, 78, 0
2, 12260, Note_on_c, 0, 76, 102
2, 12430, Note_on_c, 0, 76, 0
2, 12432, Note_on_c, 0, 74, 102
2, 12602, Note_on_c, 0, 72, 0
2, 12604, Note_on_c, 0, 72, 102
2, 12774, Note_on_c, 0, 72, 0
2, 12776, Note_on_c, 0, 55, 102
2, 12776, Note_on_c, 0, 71, 102
2, 12946, Note_on_c, 0, 71, 0
2, 12948, Note_on_c, 0, 69, 102
2, 13118, Note_on_c, 0, 69, 0
2, 13120, Note_on_c, 0, 71, 102
2, 13290, Note_on_c, 0, 55, 0
2, 13290, Note_on_c, 0, 74, 0
2, 13292, Note_on_c, 0, 54, 102
2, 13292, Note_on_c, 0, 74, 102
2, 13462, Note_on_c, 0, 74, 0
2, 13462, Note_on_c, 0, 54, 0
2, 13464, Note_on_c, 0, 55, 102
2, 13464, Note_on_c, 0, 76, 102
2, 13634, Note_on_c, 0, 76, 0
2, 13634, Note_on_c, 0, 55, 0
2, 13636, Note_on_c, 0, 57, 102
2, 13636, Note_on_c, 0, 78, 102
2, 13806, Note_on_c, 0, 78, 0
2, 13806, Note_on_c, 0, 57, 0
2, 13808, Note_on_c, 0, 59, 102
2, 13808, Note_on_c, 0, 79, 102
2, 13978, Note_on_c, 0, 59, 0
2, 13978, Note_on_c, 0, 71, 0
2, 13980, Note_on_c, 0, 60, 102
2, 13980, Note_on_c, 0, 69, 102
2, 14150, Note_on_c, 0, 69, 0
2, 14150, Note_on_c, 0, 60, 0
2, 14152, Note_on_c, 0, 62, 102
2, 14152, Note_on_c, 0, 71, 102
2, 14322, Note_on_c, 0, 71, 0
2, 14322, Note_on_c, 0, 62, 0
2, 14324, Note_on_c, 0, 59, 102
2, 14324, Note_on_c, 0, 67, 102
2, 14494, Note_on_c, 0, 67, 0
2, 14494, Note_on_c, 0, 59, 0
2, 14496, Note_on_c, 0, 64, 102
2, 14496, Note_on_c, 0, 72, 102
2, 14666, Note_on_c, 0, 64, 0
2, 14668, Note_on_c, 0, 62, 102
2, 14838, Note_on_c, 0, 62, 0
2, 14838, Note_on_c, 0, 79, 0
2, 14840, Note_on_c, 0, 60, 102
2, 14840, Note_on_c, 0, 76, 102
2, 15010, Note_on_c, 0, 60, 0
2, 15012, Note_on_c, 0, 59, 102
2, 15177, Note_on_c, 0, 72, 0
2, 15182, Note_on_c, 0, 59, 0
2, 15182, Note_on_c, 0, 76, 0
2, 15184, Note_on_c, 0, 57, 102
2, 15184, Note_on_c, 0, 72, 102
2, 15354, Note_on_c, 0, 57, 0
2, 15356, Note_on_c, 0, 55, 102
2, 15526, Note_on_c, 0, 55, 0
2, 15528, Note_on_c, 0, 54, 102
2, 15528, Note_on_c, 0, 69, 102
2, 15698, Note_on_c, 0, 54, 0
2, 15700, Note_on_c, 0, 52, 102
2, 15870, Note_on_c, 0, 52, 0
2, 15870, Note_on_c, 0, 69, 0
2, 15872, Note_on_c, 0, 50, 102
2, 15872, Note_on_c, 0, 78, 102
2, 16026, Note_on_c, 0, 72, 0
2, 16042, Note_on_c, 0, 50, 0
2, 16044, Note_on_c, 0, 60, 102
2, 16044, Note_on_c, 0, 76, 102
2, 16214, Note_on_c, 0, 76, 0
2, 16214, Note_on_c, 0, 60, 0
2, 16216, Note_on_c, 0, 59, 102
2, 16216, Note_on_c, 0, 74, 102
2, 16386, Note_on_c, 0, 74, 0
2, 16386, Note_on_c, 0, 59, 0
2, 16388, Note_on_c, 0, 57, 102
2, 16388, Note_on_c, 0, 72, 102
2, 16558, Note_on_c, 0, 72, 0
2, 16558, Note_on_c, 0, 57, 0
2, 16560, Note_on_c, 0, 62, 102
2, 16560, Note_on_c, 0, 71, 102
2, 16730, Note_on_c, 0, 62, 0
2, 16732, Note_on_c, 0, 60, 102
2, 16902, Note_on_c, 0, 60, 0
2, 16902, Note_on_c, 0, 78, 0
2, 16904, Note_on_c, 0, 59, 102
2, 16904, Note_on_c, 0, 74, 102
2, 17074, Note_on_c, 0, 59, 0
2, 17076, Note_on_c, 0, 57, 102
2, 17241, Note_on_c, 0, 71, 0
2, 17246, Note_on_c, 0, 57, 0
2, 17246, Note_on_c, 0, 74, 0
2, 17248, Note_on_c, 0, 55, 102
2, 17248, Note_on_c, 0, 71, 102
2, 17418, Note_on_c, 0, 55, 0
2, 17420, Note_on_c, 0, 54, 102
2, 17590, Note_on_c, 0, 54, 0
2, 17592, Note_on_c, 0, 52, 102
2, 17592, Note_on_c, 0, 67, 102
2, 17762, Note_on_c, 0, 52, 0
2, 17764, Note_on_c, 0, 50, 102
2, 17934, Note_on_c, 0, 50, 0
2, 17934, Note_on_c, 0, 67, 0
2, 17936, Note_on_c, 0, 48, 102
2, 17936, Note_on_c, 0, 76, 102
2, 18090, Note_on_c, 0, 71, 0
2, 18106, Note_on_c, 0, 48, 0
2, 18108, Note_on_c, 0, 59, 102
2, 18108, Note_on_c, 0, 74, 102
2, 18278, Note_on_c, 0, 74, 0
2, 18278, Note_on_c, 0, 59, 0
2, 18280, Note_on_c, 0, 57, 102
2, 18280, Note_on_c, 0, 72, 102
2, 18450, Note_on_c, 0, 72, 0
2, 18450, Note_on_c, 0, 57, 0
2, 18452, Note_on_c, 0, 55, 102
2, 18452, Note_on_c, 0, 71, 102
2, 18622, Note_on_c, 0, 71, 0
2, 18622, Note_on_c, 0, 55, 0
2, 18624, Note_on_c, 0, 60, 102
2, 18624, Note_on_c, 0, 69, 102
2, 18794, Note_on_c, 0, 60, 0
2, 18796, Note_on_c, 0, 59, 102
2, 18966, Note_on_c, 0, 59, 0
2, 18966, Note_on_c, 0, 76, 0
2, 18968, Note_on_c, 0, 57, 102
2, 18968, Note_on_c, 0, 72, 102
2, 19138, Note_on_c, 0, 57, 0
2, 19140, Note_on_c, 0, 55, 102
2, 19305, Note_on_c, 0, 69, 0
2, 19310, Note_on_c, 0, 55, 0
2, 19310, Note_on_c, 0, 72, 0
2, 19312, Note_on_c, 0, 54, 102
2, 19312, Note_on_c, 0, 69, 102
2, 19482, Note_on_c, 0, 54, 0
2, 19484, Note_on_c, 0, 52, 102
2, 19654, Note_on_c, 0, 52, 0
2, 19656, Note_on_c, 0, 51, 102
2, 19656, Note_on_c, 0, 66, 102
2, 19826, Note_on_c, 0, 51, 0
2, 19828, Note_on_c, 0, 49, 102
2, 19998, Note_on_c, 0, 49, 0
2, 19998, Note_on_c, 0, 66, 0
2, 20000, Note_on_c, 0, 47, 102
2, 20000, Note_on_c, 0, 75, 102
2, 20154, Note_on_c, 0, 69, 0
2, 20170, Note_on_c, 0, 47, 0
2, 20172, Note_on_c, 0, 57, 102
2, 20172, Note_on_c, 0, 72, 102
2, 20342, Note_on_c, 0, 72, 0
2, 20342, Note_on_c, 0, 57, 0
2, 20344, Note_on_c, 0, 55, 102
2, 20344, Note_on_c, 0, 71, 102
2, 20514, Note_on_c, 0, 71, 0
2, 20514, Note_on_c, 0, 55, 0
2, 20516, Note_on_c, 0, 54, 102
2, 20516, Note_on_c, 0, 69, 102
2, 20686, Note_on_c, 0, 69, 0
2, 20686, Note_on_c, 0, 54, 0
2, 20686, Note_on_c, 0, 75, 0
2, 20688, Note_on_c, 0, 52, 102
2, 20688, Note_on_c, 0, 67, 102
2, 20688, Note_on_c, 0, 76, 102
2, 20858, Note_on_c, 0, 67, 0
2, 20860, Note_on_c, 0, 69, 102
2, 21030, Note_on_c, 0, 69, 0
2, 21032, Note_on_c, 0, 67, 102
2, 21202, Note_on_c, 0, 67, 0
2, 21202, Note_on_c, 0, 52, 0
2, 21204, Note_on_c, 0, 51, 102
2, 21204, Note_on_c, 0, 66, 102
2, 21374, Note_on_c, 0, 66, 0
2, 21374, Note_on_c, 0, 51, 0
2, 21376, Note_on_c, 0, 52, 102
2, 21376, Note_on_c, 0, 64, 102
2, 21546, Note_on_c, 0, 64, 0
2, 21546, Note_on_c, 0, 52, 0
2, 21548, Note_on_c, 0, 76, 0
2, 21548, Note_on_c, 0, 54, 102
2, 21548, Note_on_c, 0, 63, 102
2, 21718, Note_on_c, 0, 63, 0
2, 21718, Note_on_c, 0, 54, 0
2, 21720, Note_on_c, 0, 55, 102
2, 21720, Note_on_c, 0, 64, 102
2, 21890, Note_on_c, 0, 64, 0
2, 21890, Note_on_c, 0, 55, 0
2, 21892, Note_on_c, 0, 57, 102
2, 21892, Note_on_c, 0, 66, 102
2, 22062, Note_on_c, 0, 66, 0
2, 22062, Note_on_c, 0, 57, 0
2, 22064, Note_on_c, 0, 59, 102
2, 22064, Note_on_c, 0, 67, 102
2, 22064, Note_on_c, 0, 76, 102
2, 22234, Note_on_c, 0, 67, 0
2, 22236, Note_on_c, 0, 69, 102
2, 22406, Note_on_c, 0, 69, 0
2, 22406, Note_on_c, 0, 59, 0
2, 22408, Note_on_c, 0, 52, 102
2, 22408, Note_on_c, 0, 71, 102
2, 22578, Note_on_c, 0, 71, 0
2, 22580, Note_on_c, 0, 67, 102
2, 22750, Note_on_c, 0, 67, 0
2, 22750, Note_on_c, 0, 52, 0
2, 22752, Note_on_c, 0, 57, 102
2, 22752, Note_on_c, 0, 72, 102
2, 22922, Note_on_c, 0, 72, 0
2, 22924, Note_on_c, 0, 71, 102
2, 23094, Note_on_c, 0, 71, 0
2, 23094, Note_on_c, 0, 57, 0
2, 23096, Note_on_c, 0, 54, 102
2, 23096, Note_on_c, 0, 69, 102
2, 23266, Note_on_c, 0, 69, 0
2, 23268, Note_on_c, 0, 67, 102
2, 23438, Note_on_c, 0, 67, 0
2, 23438, Note_on_c, 0, 54, 0
2, 23438, Note_on_c, 0, 76, 0
2, 23440, Note_on_c, 0, 59, 102
2, 23440, Note_on_c, 0, 66, 102
2, 23440, Note_on_c, 0, 74, 102
2, 23610, Note_on_c, 0, 66, 0
2, 23612, Note_on_c, 0, 64, 102
2, 23782, Note_on_c, 0, 64, 0
2, 23782, Note_on_c, 0, 74, 0
2, 23784, Note_on_c, 0, 62, 102
2, 23784, Note_on_c, 0, 72, 102
2, 23954, Note_on_c, 0, 62, 0
2, 23956, Note_on_c, 0, 60, 102
2, 24121, Note_on_c, 0, 59, 0
2, 24126, Note_on_c, 0, 60, 0
2, 24126, Note_on_c, 0, 72, 0
2, 24128, Note_on_c, 0, 59, 102
2, 24128, Note_on_c, 0, 74, 102
2, 24298, Note_on_c, 0, 59, 0
2, 24300, Note_on_c, 0, 69, 102
2, 24470, Note_on_c, 0, 69, 0
2, 24472, Note_on_c, 0, 57, 102
2, 24472, Note_on_c, 0, 68, 102
2, 24642, Note_on_c, 0, 68, 0
2, 24644, Note_on_c, 0, 66, 102
2, 24814, Note_on_c, 0, 66, 0
2, 24814, Note_on_c, 0, 57, 0
2, 24816, Note_on_c, 0, 56, 102
2, 24816, Note_on_c, 0, 64, 102
2, 24986, Note_on_c, 0, 74, 0
2, 24988, Note_on_c, 0, 74, 102
2, 25158, Note_on_c, 0, 74, 0
2, 25158, Note_on_c, 0, 56, 0
2, 25160, Note_on_c, 0, 57, 102
2, 25160, Note_on_c, 0, 72, 102
2, 25330, Note_on_c, 0, 72, 0
2, 25330, Note_on_c, 0, 57, 0
2, 25332, Note_on_c, 0, 59, 102
2, 25332, Note_on_c, 0, 71, 102
2, 25502, Note_on_c, 0, 71, 0
2, 25502, Note_on_c, 0, 59, 0
2, 25504, Note_on_c, 0, 60, 102
2, 25504, Note_on_c, 0, 69, 102
2, 25674, Note_on_c, 0, 69, 0
2, 25676, Note_on_c, 0, 68, 102
2, 25846, Note_on_c, 0, 68, 0
2, 25846, Note_on_c, 0, 60, 0
2, 25848, Note_on_c, 0, 59, 102
2, 25848, Note_on_c, 0, 69, 102
2, 26018, Note_on_c, 0, 69, 0
2, 26020, Note_on_c, 0, 71, 102
2, 26190, Note_on_c, 0, 71, 0
2, 26190, Note_on_c, 0, 59, 0
2, 26192, Note_on_c, 0, 57, 102
2, 26192, Note_on_c, 0, 72, 102
2, 26362, Note_on_c, 0, 72, 0
2, 26364, Note_on_c, 0, 74, 102
2, 26534, Note_on_c, 0, 74, 0
2, 26534, Note_on_c, 0, 57, 0
2, 26536, Note_on_c, 0, 60, 102
2, 26536, Note_on_c, 0, 76, 102
2, 26706, Note_on_c, 0, 76, 0
2, 26708, Note_on_c, 0, 72, 102
2, 26878, Note_on_c, 0, 72, 0
2, 26878, Note_on_c, 0, 64, 0
2, 26880, Note_on_c, 0, 62, 102
2, 26880, Note_on_c, 0, 77, 102
2, 27050, Note_on_c, 0, 77, 0
2, 27052, Note_on_c, 0, 76, 102
2, 27222, Note_on_c, 0, 76, 0
2, 27222, Note_on_c, 0, 60, 0
2, 27224, Note_on_c, 0, 59, 102
2, 27224, Note_on_c, 0, 74, 102
2, 27394, Note_on_c, 0, 74, 0
2, 27394, Note_on_c, 0, 59, 0
2, 27396, Note_on_c, 0, 57, 102
2, 27396, Note_on_c, 0, 72, 102
2, 27566, Note_on_c, 0, 72, 0
2, 27566, Note_on_c, 0, 57, 0
2, 27568, Note_on_c, 0, 56, 102
2, 27568, Note_on_c, 0, 71, 102
2, 27738, Note_on_c, 0, 71, 0
2, 27740, Note_on_c, 0, 69, 102
2, 27910, Note_on_c, 0, 69, 0
2, 27910, Note_on_c, 0, 56, 0
2, 27912, Note_on_c, 0, 59, 102
2, 27912, Note_on_c, 0, 68, 102
2, 28082, Note_on_c, 0, 68, 0
2, 28084, Note_on_c, 0, 66, 102
2, 28254, Note_on_c, 0, 66, 0
2, 28254, Note_on_c, 0, 59, 0
2, 28256, Note_on_c, 0, 56, 102
2, 28256, Note_on_c, 0, 64, 102
2, 28426, Note_on_c, 0, 64, 0
2, 28428, Note_on_c, 0, 74, 102
2, 28598, Note_on_c, 0, 74, 0
2, 28598, Note_on_c, 0, 56, 0
2, 28600, Note_on_c, 0, 52, 102
2, 28600, Note_on_c, 0, 72, 102
2, 28770, Note_on_c, 0, 72, 0
2, 28772, Note_on_c, 0, 71, 102
2, 28942, Note_on_c, 0, 71, 0
2, 28942, Note_on_c, 0, 52, 0
2, 28942, Note_on_c, 0, 62, 0
2, 28944, Note_on_c, 0, 54, 102
2, 28944, Note_on_c, 0, 60, 102
2, 28944, Note_on_c, 0, 69, 102
2, 29114, Note_on_c, 0, 69, 0
2, 29116, Note_on_c, 0, 68, 102
2, 29286, Note_on_c, 0, 68, 0
2, 29286, Note_on_c, 0, 60, 0
2, 29286, Note_on_c, 0, 54, 0
2, 29288, Note_on_c, 0, 56, 102
2, 29288, Note_on_c, 0, 59, 102
2, 29288, Note_on_c, 0, 69, 102
2, 29458, Note_on_c, 0, 69, 0
2, 29460, Note_on_c, 0, 71, 102
2, 29630, Note_on_c, 0, 71, 0
2, 29630, Note_on_c, 0, 59, 0
2, 29630, Note_on_c, 0, 56, 0
2, 29632, Note_on_c, 0, 57, 102
2, 29632, Note_on_c, 0, 72, 102
2, 29802, Note_on_c, 0, 72, 0
2, 29804, Note_on_c, 0, 74, 102
2, 29974, Note_on_c, 0, 74, 0
2, 29974, Note_on_c, 0, 57, 0
2, 29976, Note_on_c, 0, 51, 102
2, 29976, Note_on_c, 0, 60, 102
2, 29976, Note_on_c, 0, 76, 102
2, 30146, Note_on_c, 0, 76, 0
2, 30148, Note_on_c, 0, 78, 102
2, 30318, Note_on_c, 0, 78, 0
2, 30318, Note_on_c, 0, 60, 0
2, 30318, Note_on_c, 0, 51, 0
2, 30320, Note_on_c, 0, 52, 102
2, 30320, Note_on_c, 0, 59, 102
2, 30320, Note_on_c, 0, 79, 102
2, 30490, Note_on_c, 0, 79, 0
2, 30492, Note_on_c, 0, 81, 102
2, 30662, Note_on_c, 0, 81, 0
2, 30662, Note_on_c, 0, 59, 0
2, 30662, Note_on_c, 0, 52, 0
2, 30664, Note_on_c, 0, 55, 102
2, 30664, Note_on_c, 0, 64, 102
2, 30664, Note_on_c, 0, 83, 102
2, 30834, Note_on_c, 0, 83, 0
2, 30836, Note_on_c, 0, 79, 102
2, 31006, Note_on_c, 0, 79, 0
2, 31006, Note_on_c, 0, 55, 0
2, 31008, Note_on_c, 0, 57, 102
2, 31008, Note_on_c, 0, 84, 102
2, 31178, Note_on_c, 0, 84, 0
2, 31180, Note_on_c, 0, 83, 102
2, 31350, Note_on_c, 0, 83, 0
2, 31350, Note_on_c, 0, 64, 0
2, 31352, Note_on_c, 0, 60, 102
2, 31352, Note_on_c, 0, 81, 102
2, 31522, Note_on_c, 0, 81, 0
2, 31524, Note_on_c, 0, 79, 102
2, 31689, Note_on_c, 0, 57, 0
2, 31694, Note_on_c, 0, 79, 0
2, 31694, Note_on_c, 0, 60, 0
2, 31696, Note_on_c, 0, 57, 102
2, 31696, Note_on_c, 0, 78, 102
2, 31866, Note_on_c, 0, 78, 0
2, 31868, Note_on_c, 0, 76, 102
2, 32038, Note_on_c, 0, 76, 0
2, 32040, Note_on_c, 0, 54, 102
2, 32040, Note_on_c, 0, 75, 102
2, 32210, Note_on_c, 0, 75, 0
2, 32212, Note_on_c, 0, 73, 102
2, 32382, Note_on_c, 0, 73, 0
2, 32382, Note_on_c, 0, 54, 0
2, 32384, Note_on_c, 0, 63, 102
2, 32384, Note_on_c, 0, 71, 102
2, 32538, Note_on_c, 0, 57, 0
2, 32554, Note_on_c, 0, 71, 0
2, 32556, Note_on_c, 0, 60, 102
2, 32556, Note_on_c, 0, 81, 102
2, 32726, Note_on_c, 0, 81, 0
2, 32726, Note_on_c, 0, 60, 0
2, 32728, Note_on_c, 0, 59, 102
2, 32728, Note_on_c, 0, 79, 102
2, 32898, Note_on_c, 0, 79, 0
2, 32898, Note_on_c, 0, 59, 0
2, 32900, Note_on_c, 0, 57, 102
2, 32900, Note_on_c, 0, 78, 102
2, 33070, Note_on_c, 0, 78, 0
2, 33070, Note_on_c, 0, 57, 0
2, 33072, Note_on_c, 0, 55, 102
2, 33072, Note_on_c, 0, 83, 102
2, 33242, Note_on_c, 0, 83, 0
2, 33244, Note_on_c, 0, 81, 102
2, 33414, Note_on_c, 0, 81, 0
2, 33414, Note_on_c, 0, 63, 0
2, 33416, Note_on_c, 0, 59, 102
2, 33416, Note_on_c, 0, 79, 102
2, 33586, Note_on_c, 0, 79, 0
2, 33588, Note_on_c, 0, 78, 102
2, 33753, Note_on_c, 0, 55, 0
2, 33758, Note_on_c, 0, 78, 0
2, 33758, Note_on_c, 0, 59, 0
2, 33760, Note_on_c, 0, 55, 102
2, 33760, Note_on_c, 0, 76, 102
2, 33930, Note_on_c, 0, 76, 0
2, 33932, Note_on_c, 0, 74, 102
2, 34102, Note_on_c, 0, 74, 0
2, 34104, Note_on_c, 0, 52, 102
2, 34104, Note_on_c, 0, 73, 102
2, 34274, Note_on_c, 0, 73, 0
2, 34276, Note_on_c, 0, 71, 102
2, 34446, Note_on_c, 0, 71, 0
2, 34446, Note_on_c, 0, 52, 0
2, 34448, Note_on_c, 0, 61, 102
2, 34448, Note_on_c, 0, 69, 102
2, 34602, Note_on_c, 0, 55, 0
2, 34618, Note_on_c, 0, 69, 0
2, 34620, Note_on_c, 0, 59, 102
2, 34620, Note_on_c, 0, 79, 102
2, 34790, Note_on_c, 0, 79, 0
2, 34790, Note_on_c, 0, 59, 0
2, 34792, Note_on_c, 0, 57, 102
2, 34792, Note_on_c, 0, 78, 102
2, 34962, Note_on_c, 0, 78, 0
2, 34962, Note_on_c, 0, 57, 0
2, 34964, Note_on_c, 0, 55, 102
2, 34964, Note_on_c, 0, 76, 102
2, 35134, Note_on_c, 0, 76, 0
2, 35134, Note_on_c, 0, 55, 0
2, 35136, Note_on_c, 0, 54, 102
2, 35136, Note_on_c, 0, 81, 102
2, 35306, Note_on_c, 0, 81, 0
2, 35308, Note_on_c, 0, 79, 102
2, 35478, Note_on_c, 0, 79, 0
2, 35478, Note_on_c, 0, 61, 0
2, 35480, Note_on_c, 0, 57, 102
2, 35480, Note_on_c, 0, 78, 102
2, 35650, Note_on_c, 0, 78, 0
2, 35652, Note_on_c, 0, 76, 102
2, 35817, Note_on_c, 0, 54, 0
2, 35822, Note_on_c, 0, 76, 0
2, 35822, Note_on_c, 0, 57, 0
2, 35824, Note_on_c, 0, 54, 102
2, 35824, Note_on_c, 0, 74, 102
2, 35994, Note_on_c, 0, 74, 0
2, 35996, Note_on_c, 0, 73, 102
2, 36166, Note_on_c, 0, 73, 0
2, 36168, Note_on_c, 0, 50, 102
2, 36168, Note_on_c, 0, 71, 102
2, 36338, Note_on_c, 0, 71, 0
2, 36340, Note_on_c, 0, 69, 102
2, 36510, Note_on_c, 0, 69, 0
2, 36510, Note_on_c, 0, 50, 0
2, 36512, Note_on_c, 0, 59, 102
2, 36512, Note_on_c, 0, 67, 102
2, 36666, Note_on_c, 0, 54, 0
2, 36682, Note_on_c, 0, 67, 0
2, 36684, Note_on_c, 0, 57, 102
2, 36684, Note_on_c, 0, 78, 102
2, 36854, Note_on_c, 0, 78, 0
2, 36854, Note_on_c, 0, 57, 0
2, 36856, Note_on_c, 0, 55, 102
2, 36856, Note_on_c, 0, 76, 102
2, 37026, Note_on_c, 0, 76, 0
2, 37026, Note_on_c, 0, 55, 0
2, 37028, Note_on_c, 0, 54, 102
2, 37028, Note_on_c, 0, 74, 102
2, 37198, Note_on_c, 0, 74, 0
2, 37198, Note_on_c, 0, 54, 0
2, 37200, Note_on_c, 0, 52, 102
2, 37200, Note_on_c, 0, 79, 102
2, 37370, Note_on_c, 0, 79, 0
2, 37372, Note_on_c, 0, 78, 102
2, 37542, Note_on_c, 0, 78, 0
2, 37542, Note_on_c, 0, 59, 0
2, 37544, Note_on_c, 0, 55, 102
2, 37544, Note_on_c, 0, 76, 102
2, 37714, Note_on_c, 0, 76, 0
2, 37716, Note_on_c, 0, 74, 102
2, 37881, Note_on_c, 0, 52, 0
2, 37886, Note_on_c, 0, 74, 0
2, 37886, Note_on_c, 0, 55, 0
2, 37888, Note_on_c, 0, 52, 102
2, 37888, Note_on_c, 0, 73, 102
2, 38058, Note_on_c, 0, 73, 0
2, 38060, Note_on_c, 0, 71, 102
2, 38230, Note_on_c, 0, 71, 0
2, 38232, Note_on_c, 0, 49, 102
2, 38232, Note_on_c, 0, 70, 102
2, 38402, Note_on_c, 0, 70, 0
2, 38404, Note_on_c, 0, 68, 102
2, 38574, Note_on_c, 0, 68, 0
2, 38574, Note_on_c, 0, 49, 0
2, 38576, Note_on_c, 0, 58, 102
2, 38576, Note_on_c, 0, 66, 102
2, 38730, Note_on_c, 0, 52, 0
2, 38746, Note_on_c, 0, 66, 0
2, 38748, Note_on_c, 0, 55, 102
2, 38748, Note_on_c, 0, 76, 102
2, 38918, Note_on_c, 0, 76, 0
2, 38918, Note_on_c, 0, 55, 0
2, 38920, Note_on_c, 0, 54, 102
2, 38920, Note_on_c, 0, 74, 102
2, 39090, Note_on_c, 0, 74, 0
2, 39090, Note_on_c, 0, 54, 0
2, 39092, Note_on_c, 0, 52, 102
2, 39092, Note_on_c, 0, 73, 102
2, 39262, Note_on_c, 0, 73, 0
2, 39262, Note_on_c, 0, 52, 0
2, 39262, Note_on_c, 0, 58, 0
2, 39264, Note_on_c, 0, 50, 102
2, 39264, Note_on_c, 0, 59, 102
2, 39264, Note_on_c, 0, 78, 102
2, 39434, Note_on_c, 0, 78, 0
2, 39436, Note_on_c, 0, 76, 102
2, 39606, Note_on_c, 0, 76, 0
2, 39608, Note_on_c, 0, 74, 102
2, 39778, Note_on_c, 0, 74, 0
2, 39780, Note_on_c, 0, 73, 102
2, 39950, Note_on_c, 0, 73, 0
2, 39950, Note_on_c, 0, 50, 0
2, 39952, Note_on_c, 0, 55, 102
2, 39952, Note_on_c, 0, 71, 102
2, 40122, Note_on_c, 0, 59, 0
2, 40124, Note_on_c, 0, 58, 102
2, 40294, Note_on_c, 0, 58, 0
2, 40296, Note_on_c, 0, 59, 102
2, 40466, Note_on_c, 0, 59, 0
2, 40468, Note_on_c, 0, 61, 102
2, 40638, Note_on_c, 0, 61, 0
2, 40638, Note_on_c, 0, 55, 0
2, 40640, Note_on_c, 0, 54, 102
2, 40640, Note_on_c, 0, 62, 102
2, 40810, Note_on_c, 0, 62, 0
2, 40812, Note_on_c, 0, 64, 102
2, 40982, Note_on_c, 0, 64, 0
2, 40984, Note_on_c, 0, 66, 102
2, 41154, Note_on_c, 0, 66, 0
2, 41156, Note_on_c, 0, 62, 102
2, 41326, Note_on_c, 0, 62, 0
2, 41326, Note_on_c, 0, 54, 0
2, 41328, Note_on_c, 0, 52, 102
2, 41328, Note_on_c, 0, 67, 102
2, 41498, Note_on_c, 0, 67, 0
2, 41500, Note_on_c, 0, 66, 102
2, 41670, Note_on_c, 0, 66, 0
2, 41672, Note_on_c, 0, 64, 102
2, 41842, Note_on_c, 0, 64, 0
2, 41844, Note_on_c, 0, 62, 102
2, 42014, Note_on_c, 0, 62, 0
2, 42014, Note_on_c, 0, 52, 0
2, 42016, Note_on_c, 0, 54, 102
2, 42016, Note_on_c, 0, 61, 102
2, 42186, Note_on_c, 0, 61, 0
2, 42188, Note_on_c, 0, 59, 102
2, 42358, Note_on_c, 0, 59, 0
2, 42360, Note_on_c, 0, 58, 102
2, 42530, Note_on_c, 0, 58, 0
2, 42532, Note_on_c, 0, 56, 102
2, 42702, Note_on_c, 0, 56, 0
2, 42702, Note_on_c, 0, 54, 0
2, 42702, Note_on_c, 0, 71, 0
2, 42704, Note_on_c, 0, 42, 102
2, 42704, Note_on_c, 0, 54, 102
2, 42704, Note_on_c, 0, 70, 102
2, 42874, Note_on_c, 0, 54, 0
2, 42876, Note_on_c, 0, 64, 102
2, 43046, Note_on_c, 0, 64, 0
2, 43048, Note_on_c, 0, 62, 102
2, 43218, Note_on_c, 0, 62, 0
2, 43220, Note_on_c, 0, 61, 102
2, 43390, Note_on_c, 0, 61, 0
2, 43390, Note_on_c, 0, 70, 0
2, 43390, Note_on_c, 0, 42, 0
2, 43392, Note_on_c, 0, 47, 102
2, 43392, Note_on_c, 0, 62, 102
2, 43392, Note_on_c, 0, 71, 102
2, 43562, Note_on_c, 0, 62, 0
2, 43564, Note_on_c, 0, 66, 102
2, 43734, Note_on_c, 0, 66, 0
2, 43736, Note_on_c, 0, 68, 102
2, 43906, Note_on_c, 0, 68, 0
2, 43908, Note_on_c, 0, 70, 102
2, 44073, Note_on_c, 0, 71, 0
2, 44078, Note_on_c, 0, 70, 0
2, 44080, Note_on_c, 0, 71, 102
2, 44250, Note_on_c, 0, 47, 0
2, 44252, Note_on_c, 0, 45, 102
2, 44422, Note_on_c, 0, 45, 0
2, 44422, Note_on_c, 0, 71, 0
2, 44424, Note_on_c, 0, 47, 102
2, 44424, Note_on_c, 0, 72, 102
2, 44424, Note_on_c, 0, 76, 102
2, 44594, Note_on_c, 0, 47, 0
2, 44596, Note_on_c, 0, 48, 102
2, 44766, Note_on_c, 0, 48, 0
2, 44766, Note_on_c, 0, 76, 0
2, 44766, Note_on_c, 0, 72, 0
2, 44768, Note_on_c, 0, 50, 102
2, 44768, Note_on_c, 0, 71, 102
2, 44768, Note_on_c, 0, 74, 102
2, 44938, Note_on_c, 0, 50, 0
2, 44940, Note_on_c, 0, 52, 102
2, 45110, Note_on_c, 0, 52, 0
2, 45110, Note_on_c, 0, 74, 0
2, 45110, Note_on_c, 0, 71, 0
2, 45112, Note_on_c, 0, 53, 102
2, 45112, Note_on_c, 0, 69, 102
2, 45112, Note_on_c, 0, 72, 102
2, 45282, Note_on_c, 0, 53, 0
2, 45284, Note_on_c, 0, 48, 102
2, 45454, Note_on_c, 0, 48, 0
2, 45454, Note_on_c, 0, 72, 0
2, 45454, Note_on_c, 0, 69, 0
2, 45456, Note_on_c, 0, 50, 102
2, 45456, Note_on_c, 0, 68, 102
2, 45456, Note_on_c, 0, 71, 102
2, 45626, Note_on_c, 0, 50, 0
2, 45628, Note_on_c, 0, 52, 102
2, 45798, Note_on_c, 0, 52, 0
2, 45798, Note_on_c, 0, 71, 0
2, 45800, Note_on_c, 0, 50, 102
2, 45800, Note_on_c, 0, 77, 102
2, 45970, Note_on_c, 0, 50, 0
2, 45972, Note_on_c, 0, 48, 102
2, 46142, Note_on_c, 0, 48, 0
2, 46142, Note_on_c, 0, 77, 0
2, 46144, Note_on_c, 0, 47, 102
2, 46144, Note_on_c, 0, 76, 102
2, 46314, Note_on_c, 0, 47, 0
2, 46316, Note_on_c, 0, 45, 102
2, 46486, Note_on_c, 0, 45, 0
2, 46486, Note_on_c, 0, 76, 0
2, 46488, Note_on_c, 0, 44, 102
2, 46488, Note_on_c, 0, 74, 102
2, 46658, Note_on_c, 0, 44, 0
2, 46660, Note_on_c, 0, 42, 102
2, 46830, Note_on_c, 0, 42, 0
2, 46830, Note_on_c, 0, 74, 0
2, 46832, Note_on_c, 0, 40, 102
2, 46832, Note_on_c, 0, 72, 102
2, 47002, Note_on_c, 0, 40, 0
2, 47004, Note_on_c, 0, 50, 102
2, 47174, Note_on_c, 0, 50, 0
2, 47174, Note_on_c, 0, 72, 0
2, 47176, Note_on_c, 0, 48, 102
2, 47176, Note_on_c, 0, 71, 102
2, 47346, Note_on_c, 0, 48, 0
2, 47348, Note_on_c, 0, 47, 102
2, 47518, Note_on_c, 0, 47, 0
2, 47518, Note_on_c, 0, 71, 0
2, 47520, Note_on_c, 0, 45, 102
2, 47520, Note_on_c, 0, 72, 102
2, 47690, Note_on_c, 0, 68, 0
2, 47692, Note_on_c, 0, 64, 102
2, 47862, Note_on_c, 0, 64, 0
2, 47864, Note_on_c, 0, 66, 102
2, 48034, Note_on_c, 0, 66, 0
2, 48036, Note_on_c, 0, 68, 102
2, 48206, Note_on_c, 0, 68, 0
2, 48208, Note_on_c, 0, 69, 102
2, 48378, Note_on_c, 0, 45, 0
2, 48380, Note_on_c, 0, 43, 102
2, 48550, Note_on_c, 0, 43, 0
2, 48550, Note_on_c, 0, 69, 0
2, 48550, Note_on_c, 0, 72, 0
2, 48552, Note_on_c, 0, 45, 102
2, 48552, Note_on_c, 0, 71, 102
2, 48552, Note_on_c, 0, 74, 102
2, 48722, Note_on_c, 0, 45, 0
2, 48724, Note_on_c, 0, 47, 102
2, 48894, Note_on_c, 0, 47, 0
2, 48894, Note_on_c, 0, 74, 0
2, 48894, Note_on_c, 0, 71, 0
2, 48896, Note_on_c, 0, 48, 102
2, 48896, Note_on_c, 0, 69, 102
2, 48896, Note_on_c, 0, 72, 102
2, 49066, Note_on_c, 0, 48, 0
2, 49068, Note_on_c, 0, 50, 102
2, 49238, Note_on_c, 0, 50, 0
2, 49238, Note_on_c, 0, 72, 0
2, 49238, Note_on_c, 0, 69, 0
2, 49240, Note_on_c, 0, 52, 102
2, 49240, Note_on_c, 0, 67, 102
2, 49240, Note_on_c, 0, 71, 102
2, 49410, Note_on_c, 0, 52, 0
2, 49412, Note_on_c, 0, 47, 102
2, 49582, Note_on_c, 0, 47, 0
2, 49582, Note_on_c, 0, 71, 0
2, 49582, Note_on_c, 0, 67, 0
2, 49584, Note_on_c, 0, 48, 102
2, 49584, Note_on_c, 0, 66, 102
2, 49584, Note_on_c, 0, 69, 102
2, 49754, Note_on_c, 0, 48, 0
2, 49756, Note_on_c, 0, 50, 102
2, 49926, Note_on_c, 0, 50, 0
2, 49926, Note_on_c, 0, 69, 0
2, 49928, Note_on_c, 0, 48, 102
2, 49928, Note_on_c, 0, 76, 102
2, 50098, Note_on_c, 0, 48, 0
2, 50100, Note_on_c, 0, 47, 102
2, 50270, Note_on_c, 0, 47, 0
2, 50270, Note_on_c, 0, 76, 0
2, 50272, Note_on_c, 0, 45, 102
2, 50272, Note_on_c, 0, 74, 102
2, 50442, Note_on_c, 0, 45, 0
2, 50444, Note_on_c, 0, 43, 102
2, 50614, Note_on_c, 0, 43, 0
2, 50614, Note_on_c, 0, 74, 0
2, 50616, Note_on_c, 0, 42, 102
2, 50616, Note_on_c, 0, 72, 102
2, 50786, Note_on_c, 0, 42, 0
2, 50788, Note_on_c, 0, 40, 102
2, 50958, Note_on_c, 0, 40, 0
2, 50958, Note_on_c, 0, 72, 0
2, 50960, Note_on_c, 0, 38, 102
2, 50960, Note_on_c, 0, 71, 102
2, 51130, Note_on_c, 0, 38, 0
2, 51132, Note_on_c, 0, 48, 102
2, 51302, Note_on_c, 0, 48, 0
2, 51302, Note_on_c, 0, 71, 0
2, 51304, Note_on_c, 0, 47, 102
2, 51304, Note_on_c, 0, 69, 102
2, 51474, Note_on_c, 0, 47, 0
2, 51476, Note_on_c, 0, 45, 102
2, 51646, Note_on_c, 0, 45, 0
2, 51646, Note_on_c, 0, 69, 0
2, 51648, Note_on_c, 0, 43, 102
2, 51648, Note_on_c, 0, 71, 102
2, 51818, Note_on_c, 0, 66, 0
2, 51820, Note_on_c, 0, 62, 102
2, 51990, Note_on_c, 0, 62, 0
2, 51990, Note_on_c, 0, 43, 0
2, 51992, Note_on_c, 0, 47, 102
2, 51992, Note_on_c, 0, 64, 102
2, 52162, Note_on_c, 0, 64, 0
2, 52164, Note_on_c, 0, 66, 102
2, 52329, Note_on_c, 0, 71, 0
2, 52334, Note_on_c, 0, 66, 0
2, 52334, Note_on_c, 0, 47, 0
2, 52336, Note_on_c, 0, 50, 102
2, 52336, Note_on_c, 0, 67, 102
2, 52506, Note_on_c, 0, 67, 0
2, 52508, Note_on_c, 0, 66, 102
2, 52678, Note_on_c, 0, 66, 0
2, 52678, Note_on_c, 0, 50, 0
2, 52680, Note_on_c, 0, 54, 102
2, 52680, Note_on_c, 0, 67, 102
2, 52850, Note_on_c, 0, 67, 0
2, 52852, Note_on_c, 0, 69, 102
2, 53022, Note_on_c, 0, 69, 0
2, 53022, Note_on_c, 0, 54, 0
2, 53024, Note_on_c, 0, 55, 102
2, 53024, Note_on_c, 0, 71, 102
2, 53024, Note_on_c, 0, 79, 102
2, 53194, Note_on_c, 0, 71, 0
2, 53196, Note_on_c, 0, 72, 102
2, 53366, Note_on_c, 0, 72, 0
2, 53366, Note_on_c, 0, 55, 0
2, 53368, Note_on_c, 0, 59, 102
2, 53368, Note_on_c, 0, 74, 102
2, 53538, Note_on_c, 0, 74, 0
2, 53540, Note_on_c, 0, 71, 102
2, 53710, Note_on_c, 0, 71, 0
2, 53710, Note_on_c, 0, 59, 0
2, 53712, Note_on_c, 0, 60, 102
2, 53712, Note_on_c, 0, 76, 102
2, 53882, Note_on_c, 0, 76, 0
2, 53884, Note_on_c, 0, 74, 102
2, 54054, Note_on_c, 0, 74, 0
2, 54054, Note_on_c, 0, 60, 0
2, 54056, Note_on_c, 0, 57, 102
2, 54056, Note_on_c, 0, 72, 102
2, 54226, Note_on_c, 0, 72, 0
2, 54228, Note_on_c, 0, 71, 102
2, 54398, Note_on_c, 0, 71, 0
2, 54398, Note_on_c, 0, 57, 0
2, 54400, Note_on_c, 0, 62, 102
2, 54400, Note_on_c, 0, 69, 102
2, 54570, Note_on_c, 0, 69, 0
2, 54570, Note_on_c, 0, 79, 0
2, 54572, Note_on_c, 0, 67, 102
2, 54572, Note_on_c, 0, 83, 102
2, 54742, Note_on_c, 0, 83, 0
2, 54742, Note_on_c, 0, 67, 0
2, 54744, Note_on_c, 0, 66, 102
2, 54744, Note_on_c, 0, 81, 102
2, 54914, Note_on_c, 0, 81, 0
2, 54914, Note_on_c, 0, 66, 0
2, 54916, Note_on_c, 0, 64, 102
2, 54916, Note_on_c, 0, 79, 102
2, 55081, Note_on_c, 0, 62, 0
2, 55086, Note_on_c, 0, 79, 0
2, 55086, Note_on_c, 0, 64, 0
2, 55088, Note_on_c, 0, 62, 102
2, 55088, Note_on_c, 0, 78, 102
2, 55258, Note_on_c, 0, 62, 0
2, 55260, Note_on_c, 0, 64, 102
2, 55260, Note_on_c, 0, 72, 102
2, 55430, Note_on_c, 0, 72, 0
2, 55430, Note_on_c, 0, 64, 0
2, 55432, Note_on_c, 0, 62, 102
2, 55432, Note_on_c, 0, 71, 102
2, 55602, Note_on_c, 0, 71, 0
2, 55602, Note_on_c, 0, 62, 0
2, 55604, Note_on_c, 0, 60, 102
2, 55604, Note_on_c, 0, 69, 102
2, 55774, Note_on_c, 0, 69, 0
2, 55774, Note_on_c, 0, 60, 0
2, 55774, Note_on_c, 0, 78, 0
2, 55776, Note_on_c, 0, 59, 102
2, 55776, Note_on_c, 0, 74, 102
2, 55776, Note_on_c, 0, 77, 102
2, 55946, Note_on_c, 0, 74, 0
2, 55948, Note_on_c, 0, 72, 102
2, 56118, Note_on_c, 0, 72, 0
2, 56118, Note_on_c, 0, 59, 0
2, 56120, Note_on_c, 0, 55, 102
2, 56120, Note_on_c, 0, 71, 102
2, 56290, Note_on_c, 0, 71, 0
2, 56292, Note_on_c, 0, 69, 102
2, 56462, Note_on_c, 0, 69, 0
2, 56462, Note_on_c, 0, 55, 0
2, 56464, Note_on_c, 0, 60, 102
2, 56464, Note_on_c, 0, 67, 102
2, 56634, Note_on_c, 0, 67, 0
2, 56634, Note_on_c, 0, 77, 0
2, 56636, Note_on_c, 0, 65, 102
2, 56636, Note_on_c, 0, 81, 102
2, 56806, Note_on_c, 0, 81, 0
2, 56806, Note_on_c, 0, 65, 0
2, 56808, Note_on_c, 0, 64, 102
2, 56808, Note_on_c, 0, 79, 102
2, 56978, Note_on_c, 0, 79, 0
2, 56978, Note_on_c, 0, 64, 0
2, 56980, Note_on_c, 0, 62, 102
2, 56980, Note_on_c, 0, 77, 102
2, 57145, Note_on_c, 0, 60, 0
2, 57150, Note_on_c, 0, 77, 0
2, 57150, Note_on_c, 0, 62, 0
2, 57152, Note_on_c, 0, 60, 102
2, 57152, Note_on_c, 0, 76, 102
2, 57322, Note_on_c, 0, 60, 0
2, 57324, Note_on_c, 0, 62, 102
2, 57324, Note_on_c, 0, 71, 102
2, 57494, Note_on_c, 0, 71, 0
2, 57494, Note_on_c, 0, 62, 0
2, 57496, Note_on_c, 0, 60, 102
2, 57496, Note_on_c, 0, 69, 102
2, 57666, Note_on_c, 0, 69, 0
2, 57666, Note_on_c, 0, 60, 0
2, 57668, Note_on_c, 0, 59, 102
2, 57668, Note_on_c, 0, 67, 102
2, 57838, Note_on_c, 0, 67, 0
2, 57838, Note_on_c, 0, 59, 0
2, 57840, Note_on_c, 0, 57, 102
2, 57840, Note_on_c, 0, 72, 102
2, 58010, Note_on_c, 0, 72, 0
2, 58012, Note_on_c, 0, 71, 102
2, 58182, Note_on_c, 0, 71, 0
2, 58182, Note_on_c, 0, 57, 0
2, 58184, Note_on_c, 0, 54, 102
2, 58184, Note_on_c, 0, 69, 102
2, 58354, Note_on_c, 0, 69, 0
2, 58356, Note_on_c, 0, 67, 102
2, 58526, Note_on_c, 0, 67, 0
2, 58526, Note_on_c, 0, 54, 0
2, 58528, Note_on_c, 0, 59, 102
2, 58528, Note_on_c, 0, 66, 102
2, 58698, Note_on_c, 0, 66, 0
2, 58698, Note_on_c, 0, 76, 0
2, 58700, Note_on_c, 0, 64, 102
2, 58700, Note_on_c, 0, 79, 102
2, 58870, Note_on_c, 0, 79, 0
2, 58870, Note_on_c, 0, 64, 0
2, 58872, Note_on_c, 0, 62, 102
2, 58872, Note_on_c, 0, 78, 102
2, 59042, Note_on_c, 0, 78, 0
2, 59042, Note_on_c, 0, 62, 0
2, 59044, Note_on_c, 0, 60, 102
2, 59044, Note_on_c, 0, 76, 102
2, 59209, Note_on_c, 0, 59, 0
2, 59214, Note_on_c, 0, 76, 0
2, 59214, Note_on_c, 0, 60, 0
2, 59216, Note_on_c, 0, 59, 102
2, 59216, Note_on_c, 0, 74, 102
2, 59386, Note_on_c, 0, 59, 0
2, 59388, Note_on_c, 0, 60, 102
2, 59388, Note_on_c, 0, 69, 102
2, 59558, Note_on_c, 0, 69, 0
2, 59558, Note_on_c, 0, 60, 0
2, 59560, Note_on_c, 0, 59, 102
2, 59560, Note_on_c, 0, 67, 102
2, 59730, Note_on_c, 0, 67, 0
2, 59730, Note_on_c, 0, 59, 0
2, 59732, Note_on_c, 0, 57, 102
2, 59732, Note_on_c, 0, 66, 102
2, 59902, Note_on_c, 0, 66, 0
2, 59902, Note_on_c, 0, 57, 0
2, 59904, Note_on_c, 0, 55, 102
2, 59904, Note_on_c, 0, 71, 102
2, 60074, Note_on_c, 0, 71, 0
2, 60076, Note_on_c, 0, 69, 102
2, 60246, Note_on_c, 0, 69, 0
2, 60246, Note_on_c, 0, 55, 0
2, 60248, Note_on_c, 0, 52, 102
2, 60248, Note_on_c, 0, 67, 102
2, 60418, Note_on_c, 0, 67, 0
2, 60420, Note_on_c, 0, 66, 102
2, 60590, Note_on_c, 0, 66, 0
2, 60590, Note_on_c, 0, 52, 0
2, 60592, Note_on_c, 0, 57, 102
2, 60592, Note_on_c, 0, 64, 102
2, 60762, Note_on_c, 0, 64, 0
2, 60762, Note_on_c, 0, 74, 0
2, 60764, Note_on_c, 0, 62, 102
2, 60764, Note_on_c, 0, 77, 102
2, 60934, Note_on_c, 0, 77, 0
2, 60934, Note_on_c, 0, 62, 0
2, 60936, Note_on_c, 0, 60, 102
2, 60936, Note_on_c, 0, 76, 102
2, 61106, Note_on_c, 0, 76, 0
2, 61106, Note_on_c, 0, 60, 0
2, 61108, Note_on_c, 0, 59, 102
2, 61108, Note_on_c, 0, 74, 102
2, 61273, Note_on_c, 0, 57, 0
2, 61278, Note_on_c, 0, 74, 0
2, 61278, Note_on_c, 0, 59, 0
2, 61280, Note_on_c, 0, 57, 102
2, 61280, Note_on_c, 0, 72, 102
2, 61450, Note_on_c, 0, 57, 0
2, 61452, Note_on_c, 0, 59, 102
2, 61452, Note_on_c, 0, 67, 102
2, 61622, Note_on_c, 0, 67, 0
2, 61622, Note_on_c, 0, 59, 0
2, 61624, Note_on_c, 0, 57, 102
2, 61624, Note_on_c, 0, 66, 102
2, 61794, Note_on_c, 0, 66, 0
2, 61794, Note_on_c, 0, 57, 0
2, 61796, Note_on_c, 0, 55, 102
2, 61796, Note_on_c, 0, 64, 102
2, 61966, Note_on_c, 0, 64, 0
2, 61966, Note_on_c, 0, 55, 0
2, 61968, Note_on_c, 0, 54, 102
2, 61968, Note_on_c, 0, 62, 102
2, 62138, Note_on_c, 0, 54, 0
2, 62138, Note_on_c, 0, 72, 0
2, 62140, Note_on_c, 0, 52, 102
2, 62140, Note_on_c, 0, 72, 102
2, 62310, Note_on_c, 0, 72, 0
2, 62310, Note_on_c, 0, 52, 0
2, 62312, Note_on_c, 0, 50, 102
2, 62312, Note_on_c, 0, 71, 102
2, 62482, Note_on_c, 0, 71, 0
2, 62482, Note_on_c, 0, 50, 0
2, 62484, Note_on_c, 0, 48, 102
2, 62484, Note_on_c, 0, 69, 102
2, 62649, Note_on_c, 0, 62, 0
2, 62654, Note_on_c, 0, 69, 0
2, 62654, Note_on_c, 0, 48, 0
2, 62656, Note_on_c, 0, 47, 102
2, 62656, Note_on_c, 0, 67, 102
2, 62826, Note_on_c, 0, 67, 0
2, 62826, Note_on_c, 0, 47, 0
2, 62828, Note_on_c, 0, 45, 102
2, 62828, Note_on_c, 0, 66, 102
2, 62998, Note_on_c, 0, 66, 0
2, 62998, Note_on_c, 0, 45, 0
2, 63000, Note_on_c, 0, 43, 102
2, 63000, Note_on_c, 0, 67, 102
2, 63170, Note_on_c, 0, 67, 0
2, 63170, Note_on_c, 0, 43, 0
2, 63172, Note_on_c, 0, 42, 102
2, 63172, Note_on_c, 0, 69, 102
2, 63342, Note_on_c, 0, 69, 0
2, 63342, Note_on_c, 0, 42, 0
2, 63344, Note_on_c, 0, 43, 102
2, 63344, Note_on_c, 0, 67, 102
2, 63344, Note_on_c, 0, 71, 102
2, 63514, Note_on_c, 0, 71, 0
2, 63514, Note_on_c, 0, 43, 0
2, 63516, Note_on_c, 0, 45, 102
2, 63516, Note_on_c, 0, 72, 102
2, 63686, Note_on_c, 0, 72, 0
2, 63686, Note_on_c, 0, 45, 0
2, 63688, Note_on_c, 0, 47, 102
2, 63688, Note_on_c, 0, 74, 102
2, 63858, Note_on_c, 0, 74, 0
2, 63858, Note_on_c, 0, 47, 0
2, 63860, Note_on_c, 0, 43, 102
2, 63860, Note_on_c, 0, 71, 102
2, 64030, Note_on_c, 0, 71, 0
2, 64030, Note_on_c, 0, 43, 0
2, 64032, Note_on_c, 0, 48, 102
2, 64032, Note_on_c, 0, 76, 102
2, 64202, Note_on_c, 0, 76, 0
2, 64202, Note_on_c, 0, 48, 0
2, 64204, Note_on_c, 0, 45, 102
2, 64204, Note_on_c, 0, 74, 102
2, 64374, Note_on_c, 0, 74, 0
2, 64374, Note_on_c, 0, 45, 0
2, 64376, Note_on_c, 0, 47, 102
2, 64376, Note_on_c, 0, 72, 102
2, 64546, Note_on_c, 0, 72, 0
2, 64546, Note_on_c, 0, 47, 0
2, 64548, Note_on_c, 0, 48, 102
2, 64548, Note_on_c, 0, 71, 102
2, 64718, Note_on_c, 0, 71, 0
2, 64718, Note_on_c, 0, 48, 0
2, 64718, Note_on_c, 0, 67, 0
2, 64720, Note_on_c, 0, 50, 102
2, 64720, Note_on_c, 0, 69, 102
2, 64897, Note_on_c, 0, 67, 102
2, 65072, Note_on_c, 0, 67, 0
2, 65072, Note_on_c, 0, 50, 0
2, 65074, Note_on_c, 0, 48, 102
2, 65074, Note_on_c, 0, 66, 102
2, 65249, Note_on_c, 0, 66, 0
2, 65259, Note_on_c, 0, 64, 102
2, 65421, Note_on_c, 0, 69, 0
2, 65434, Note_on_c, 0, 48, 0
2, 65435, Note_on_c, 0, 64, 0
2, 65445, Note_on_c, 0, 62, 102
2, 65445, Note_on_c, 0, 66, 102
2, 65445, Note_on_c, 0, 50, 102
2, 65652, Note_on_c, 0, 62, 0
2, 65654, Note_on_c, 0, 72, 102
2, 65861, Note_on_c, 0, 72, 0
2, 65863, Note_on_c, 0, 71, 102
2, 65863, Note_on_c, 0, 38, 102
2, 66070, Note_on_c, 0, 71, 0
2, 66072, Note_on_c, 0, 69, 102
2, 66280, Note_on_c, 0, 69, 0
2, 66280, Note_on_c, 0, 38, 0
2, 66280, Note_on_c, 0, 50, 0
2, 66280, Note_on_c, 0, 66, 0
2, 66316, Note_on_c, 0, 71, 102
2, 66316, Note_on_c, 0, 43, 102
2, 66316, Note_on_c, 0, 67, 102
2, 68516, Note_on_c, 0, 67, 0
2, 68516, Note_on_c, 0, 43, 0
2, 68516, Note_on_c, 0, 71, 0
2, 68516, End_track
0, 0, End_of_file
