0, 0, Header, 1, 2, 384
1, 0, Start_track
1, 0, Title_t, "--------"
1, 0, Text_t, "harpsichord: John Sankey\012"
1, 0, Time_signature, 4, 2, 24, 8
1, 0, Key_signature, 0, "major"
1, 0, Tempo, 500000
1, 0, End_track
2, 0, Start_track
2, 0, Title_t, "Piano 1"
2, 0, Program_c, 0, 6
2, 0, Control_c, 0, 7, 100
2, 0, Program_c, 0, 6
2, 0, Pitch_bend_c, 0, 8192
2, 0, Program_c, 0, 6
2, 0, Pitch_bend_c, 0, 7792
2, 0, Program_c, 0, 6
2, 0, Pitch_bend_c, 0, 7876
2, 0, Program_c, 0, 6
2, 0, Pitch_bend_c, 0, 7952
2, 0, Program_c, 0, 6
2, 0, Pitch_bend_c, 0, 7792
2, 0, Program_c, 0, 6
2, 0, Pitch_bend_c, 0, 8112
2, 0, Program_c, 0, 6
2, 0, Pitch_bend_c, 0, 7712
2, 0, Program_c, 0, 6
2, 0, Pitch_bend_c, 0, 8037
2, 0, Program_c, 0, 6
2, 0, Pitch_bend_c, 0, 7872
2, 0, Program_c, 0, 6
2, 0, Pitch_bend_c, 0, 7712
2, 0, Program_c, 0, 6
2, 0, Pitch_bend_c, 0, 8032
2, 0, Program_c, 0, 6
2, 0, Pitch_bend_c, 0, 7872
2, 48, Note_on_c, 0, 45, 102
2, 48, Note_on_c, 0, 69, 102
2, 149, Note_on_c, 0, 69, 0
2, 151, Note_on_c, 0, 68, 102
2, 252, Note_on_c, 0, 68, 0
2, 254, Note_on_c, 0, 69, 102
2, 458, Note_on_c, 0, 45, 0
2, 460, Note_on_c, 0, 57, 102
2, 869, Note_on_c, 0, 57, 0
2, 869, Note_on_c, 0, 69, 0
2, 871, Note_on_c, 0, 56, 102
2, 871, Note_on_c, 0, 71, 102
2, 1261, Note_on_c, 0, 71, 0
2, 1274, Note_on_c, 0, 56, 0
2, 1283, Note_on_c, 0, 57, 102
2, 1283, Note_on_c, 0, 72, 102
2, 1384, Note_on_c, 0, 72, 0
2, 1386, Note_on_c, 0, 71, 102
2, 1487, Note_on_c, 0, 71, 0
2, 1489, Note_on_c, 0, 72, 102
2, 1693, Note_on_c, 0, 57, 0
2, 1695, Note_on_c, 0, 52, 102
2, 2104, Note_on_c, 0, 52, 0
2, 2104, Note_on_c, 0, 72, 0
2, 2106, Note_on_c, 0, 53, 102
2, 2106, Note_on_c, 0, 74, 102
2, 2496, Note_on_c, 0, 74, 0
2, 2509, Note_on_c, 0, 53, 0
2, 2518, Note_on_c, 0, 50, 102
2, 2518, Note_on_c, 0, 72, 102
2, 2927, Note_on_c, 0, 72, 0
2, 2927, Note_on_c, 0, 50, 0
2, 2929, Note_on_c, 0, 52, 102
2, 2929, Note_on_c, 0, 72, 102
2, 3030, Note_on_c, 0, 72, 0
2, 3032, Note_on_c, 0, 71, 102
2, 3133, Note_on_c, 0, 71, 0
2, 3135, Note_on_c, 0, 72, 102
2, 3216, Note_on_c, 0, 72, 0
2, 3237, Note_on_c, 0, 71, 102
2, 3318, Note_on_c, 0, 71, 0
2, 3337, Note_on_c, 0, 52, 0
2, 3339, Note_on_c, 0, 40, 102
2, 3339, Note_on_c, 0, 72, 102
2, 3420, Note_on_c, 0, 72, 0
2, 3441, Note_on_c, 0, 71, 102
2, 3522, Note_on_c, 0, 71, 0
2, 3543, Note_on_c, 0, 72, 102
2, 3624, Note_on_c, 0, 72, 0
2, 3645, Note_on_c, 0, 71, 102
2, 3726, Note_on_c, 0, 71, 0
2, 3739, Note_on_c, 0, 40, 0
2, 3748, Note_on_c, 0, 45, 102
2, 3748, Note_on_c, 0, 69, 102
2, 3952, Note_on_c, 0, 69, 0
2, 3954, Note_on_c, 0, 71, 102
2, 4158, Note_on_c, 0, 71, 0
2, 4158, Note_on_c, 0, 45, 0
2, 4160, Note_on_c, 0, 57, 102
2, 4160, Note_on_c, 0, 72, 102
2, 4364, Note_on_c, 0, 72, 0
2, 4364, Note_on_c, 0, 57, 0
2, 4366, Note_on_c, 0, 59, 102
2, 4366, Note_on_c, 0, 74, 102
2, 4552, Note_on_c, 0, 74, 0
2, 4563, Note_on_c, 0, 59, 0
2, 4572, Note_on_c, 0, 60, 102
2, 4572, Note_on_c, 0, 76, 102
2, 4758, Note_on_c, 0, 76, 0
2, 4769, Note_on_c, 0, 60, 0
2, 4778, Note_on_c, 0, 57, 102
2, 4778, Note_on_c, 0, 78, 102
2, 4964, Note_on_c, 0, 78, 0
2, 4975, Note_on_c, 0, 57, 0
2, 4984, Note_on_c, 0, 64, 102
2, 4984, Note_on_c, 0, 79, 102
2, 5085, Note_on_c, 0, 64, 0
2, 5087, Note_on_c, 0, 63, 102
2, 5188, Note_on_c, 0, 63, 0
2, 5188, Note_on_c, 0, 79, 0
2, 5190, Note_on_c, 0, 64, 102
2, 5190, Note_on_c, 0, 78, 102
2, 5394, Note_on_c, 0, 78, 0
2, 5396, Note_on_c, 0, 52, 102
2, 5396, Note_on_c, 0, 79, 102
2, 5597, Note_on_c, 0, 64, 0
2, 5599, Note_on_c, 0, 79, 0
2, 5601, Note_on_c, 0, 81, 102
2, 5787, Note_on_c, 0, 81, 0
2, 5804, Note_on_c, 0, 52, 0
2, 5806, Note_on_c, 0, 63, 102
2, 5806, Note_on_c, 0, 66, 102
2, 5806, Note_on_c, 0, 83, 102
2, 5992, Note_on_c, 0, 83, 0
2, 6011, Note_on_c, 0, 84, 102
2, 6195, Note_on_c, 0, 66, 0
2, 6197, Note_on_c, 0, 84, 0
2, 6208, Note_on_c, 0, 63, 0
2, 6217, Note_on_c, 0, 64, 102
2, 6217, Note_on_c, 0, 67, 102
2, 6217, Note_on_c, 0, 83, 102
2, 6421, Note_on_c, 0, 83, 0
2, 6423, Note_on_c, 0, 81, 102
2, 6627, Note_on_c, 0, 81, 0
2, 6627, Note_on_c, 0, 64, 0
2, 6629, Note_on_c, 0, 59, 102
2, 6629, Note_on_c, 0, 79, 102
2, 6833, Note_on_c, 0, 79, 0
2, 6835, Note_on_c, 0, 78, 102
2, 7021, Note_on_c, 0, 78, 0
2, 7038, Note_on_c, 0, 59, 0
2, 7038, Note_on_c, 0, 67, 0
2, 7040, Note_on_c, 0, 60, 102
2, 7040, Note_on_c, 0, 69, 102
2, 7040, Note_on_c, 0, 76, 102
2, 7226, Note_on_c, 0, 76, 0
2, 7245, Note_on_c, 0, 75, 102
2, 7429, Note_on_c, 0, 69, 0
2, 7431, Note_on_c, 0, 75, 0
2, 7442, Note_on_c, 0, 60, 0
2, 7451, Note_on_c, 0, 57, 102
2, 7451, Note_on_c, 0, 67, 102
2, 7451, Note_on_c, 0, 76, 102
2, 7655, Note_on_c, 0, 76, 0
2, 7657, Note_on_c, 0, 78, 102
2, 7861, Note_on_c, 0, 78, 0
2, 7861, Note_on_c, 0, 67, 0
2, 7861, Note_on_c, 0, 57, 0
2, 7863, Note_on_c, 0, 59, 102
2, 7863, Note_on_c, 0, 66, 102
2, 7863, Note_on_c, 0, 76, 102
2, 8120, Note_on_c, 0, 75, 102
2, 8135, Note_on_c, 0, 76, 0
2, 8186, Note_on_c, 0, 75, 0
2, 8197, Note_on_c, 0, 76, 102
2, 8263, Note_on_c, 0, 76, 0
2, 8272, Note_on_c, 0, 59, 0
2, 8274, Note_on_c, 0, 47, 102
2, 8274, Note_on_c, 0, 75, 102
2, 8460, Note_on_c, 0, 75, 0
2, 8479, Note_on_c, 0, 76, 102
2, 8665, Note_on_c, 0, 76, 0
2, 8676, Note_on_c, 0, 47, 0
2, 8682, Note_on_c, 0, 66, 0
2, 8684, Note_on_c, 0, 52, 102
2, 8684, Note_on_c, 0, 64, 102
2, 8684, Note_on_c, 0, 76, 102
2, 8888, Note_on_c, 0, 64, 0
2, 8890, Note_on_c, 0, 66, 102
2, 9094, Note_on_c, 0, 66, 0
2, 9096, Note_on_c, 0, 67, 102
2, 9300, Note_on_c, 0, 67, 0
2, 9302, Note_on_c, 0, 69, 102
2, 9488, Note_on_c, 0, 69, 0
2, 9499, Note_on_c, 0, 52, 0
2, 9505, Note_on_c, 0, 76, 0
2, 9507, Note_on_c, 0, 71, 102
2, 9507, Note_on_c, 0, 79, 102
2, 9693, Note_on_c, 0, 71, 0
2, 9712, Note_on_c, 0, 73, 102
2, 9898, Note_on_c, 0, 73, 0
2, 9917, Note_on_c, 0, 74, 102
2, 10101, Note_on_c, 0, 79, 0
2, 10122, Note_on_c, 0, 82, 102
2, 10326, Note_on_c, 0, 82, 0
2, 10328, Note_on_c, 0, 81, 102
2, 10532, Note_on_c, 0, 81, 0
2, 10534, Note_on_c, 0, 79, 102
2, 10720, Note_on_c, 0, 79, 0
2, 10739, Note_on_c, 0, 77, 102
2, 10925, Note_on_c, 0, 77, 0
2, 10944, Note_on_c, 0, 76, 102
2, 11130, Note_on_c, 0, 76, 0
2, 11149, Note_on_c, 0, 77, 102
2, 11353, Note_on_c, 0, 74, 0
2, 11355, Note_on_c, 0, 76, 102
2, 11559, Note_on_c, 0, 76, 0
2, 11561, Note_on_c, 0, 74, 102
2, 11765, Note_on_c, 0, 74, 0
2, 11767, Note_on_c, 0, 72, 102
2, 11960, Note_on_c, 0, 72, 0
2, 11973, Note_on_c, 0, 71, 102
2, 12166, Note_on_c, 0, 71, 0
2, 12179, Note_on_c, 0, 69, 102
2, 12372, Note_on_c, 0, 69, 0
2, 12385, Note_on_c, 0, 68, 102
2, 12589, Note_on_c, 0, 77, 0
2, 12591, Note_on_c, 0, 77, 102
2, 12795, Note_on_c, 0, 77, 0
2, 12797, Note_on_c, 0, 76, 102
2, 13001, Note_on_c, 0, 76, 0
2, 13003, Note_on_c, 0, 74, 102
2, 13196, Note_on_c, 0, 74, 0
2, 13209, Note_on_c, 0, 72, 102
2, 13402, Note_on_c, 0, 72, 0
2, 13415, Note_on_c, 0, 71, 102
2, 13608, Note_on_c, 0, 71, 0
2, 13619, Note_on_c, 0, 68, 0
2, 13621, Note_on_c, 0, 69, 102
2, 13621, Note_on_c, 0, 72, 102
2, 13825, Note_on_c, 0, 72, 0
2, 13825, Note_on_c, 0, 69, 0
2, 13827, Note_on_c, 0, 65, 102
2, 13827, Note_on_c, 0, 74, 102
2, 14031, Note_on_c, 0, 74, 0
2, 14031, Note_on_c, 0, 65, 0
2, 14033, Note_on_c, 0, 64, 102
2, 14033, Note_on_c, 0, 72, 102
2, 14237, Note_on_c, 0, 72, 0
2, 14237, Note_on_c, 0, 64, 0
2, 14239, Note_on_c, 0, 62, 102
2, 14239, Note_on_c, 0, 71, 102
2, 14443, Note_on_c, 0, 71, 0
2, 14443, Note_on_c, 0, 62, 0
2, 14445, Note_on_c, 0, 60, 102
2, 14445, Note_on_c, 0, 69, 102
2, 14634, Note_on_c, 0, 69, 0
2, 14634, Note_on_c, 0, 60, 0
2, 14651, Note_on_c, 0, 59, 102
2, 14651, Note_on_c, 0, 68, 102
2, 14837, Note_on_c, 0, 68, 0
2, 14837, Note_on_c, 0, 59, 0
2, 14856, Note_on_c, 0, 45, 102
2, 14856, Note_on_c, 0, 60, 102
2, 14856, Note_on_c, 0, 69, 102
2, 15060, Note_on_c, 0, 60, 0
2, 15062, Note_on_c, 0, 59, 102
2, 15266, Note_on_c, 0, 59, 0
2, 15268, Note_on_c, 0, 60, 102
2, 15472, Note_on_c, 0, 60, 0
2, 15474, Note_on_c, 0, 62, 102
2, 15660, Note_on_c, 0, 62, 0
2, 15677, Note_on_c, 0, 45, 0
2, 15679, Note_on_c, 0, 47, 102
2, 15679, Note_on_c, 0, 64, 102
2, 15865, Note_on_c, 0, 64, 0
2, 15884, Note_on_c, 0, 65, 102
2, 16070, Note_on_c, 0, 65, 0
2, 16081, Note_on_c, 0, 47, 0
2, 16090, Note_on_c, 0, 48, 102
2, 16090, Note_on_c, 0, 64, 102
2, 16294, Note_on_c, 0, 64, 0
2, 16296, Note_on_c, 0, 62, 102
2, 16500, Note_on_c, 0, 62, 0
2, 16502, Note_on_c, 0, 60, 102
2, 16706, Note_on_c, 0, 60, 0
2, 16706, Note_on_c, 0, 69, 0
2, 16708, Note_on_c, 0, 59, 102
2, 16708, Note_on_c, 0, 71, 102
2, 16894, Note_on_c, 0, 71, 0
2, 16894, Note_on_c, 0, 59, 0
2, 16911, Note_on_c, 0, 48, 0
2, 16913, Note_on_c, 0, 50, 102
2, 16913, Note_on_c, 0, 57, 102
2, 16913, Note_on_c, 0, 72, 102
2, 17099, Note_on_c, 0, 72, 0
2, 17099, Note_on_c, 0, 57, 0
2, 17118, Note_on_c, 0, 56, 102
2, 17118, Note_on_c, 0, 74, 102
2, 17304, Note_on_c, 0, 74, 0
2, 17304, Note_on_c, 0, 56, 0
2, 17315, Note_on_c, 0, 50, 0
2, 17324, Note_on_c, 0, 48, 102
2, 17324, Note_on_c, 0, 57, 102
2, 17324, Note_on_c, 0, 76, 102
2, 17528, Note_on_c, 0, 76, 0
2, 17528, Note_on_c, 0, 57, 0
2, 17530, Note_on_c, 0, 59, 102
2, 17530, Note_on_c, 0, 77, 102
2, 17734, Note_on_c, 0, 77, 0
2, 17734, Note_on_c, 0, 59, 0
2, 17734, Note_on_c, 0, 48, 0
2, 17736, Note_on_c, 0, 47, 102
2, 17736, Note_on_c, 0, 57, 102
2, 17736, Note_on_c, 0, 76, 102
2, 17940, Note_on_c, 0, 76, 0
2, 17942, Note_on_c, 0, 74, 102
2, 17961, Note_on_c, 0, 57, 0
2, 17961, Note_on_c, 0, 56, 102
2, 18042, Note_on_c, 0, 56, 0
2, 18055, Note_on_c, 0, 57, 102
2, 18128, Note_on_c, 0, 74, 0
2, 18137, Note_on_c, 0, 57, 0
2, 18148, Note_on_c, 0, 56, 102
2, 18148, Note_on_c, 0, 72, 102
2, 18334, Note_on_c, 0, 72, 0
2, 18353, Note_on_c, 0, 71, 102
2, 18537, Note_on_c, 0, 56, 0
2, 18539, Note_on_c, 0, 71, 0
2, 18556, Note_on_c, 0, 47, 0
2, 18558, Note_on_c, 0, 45, 102
2, 18558, Note_on_c, 0, 57, 102
2, 18558, Note_on_c, 0, 72, 102
2, 18762, Note_on_c, 0, 45, 0
2, 18764, Note_on_c, 0, 47, 102
2, 18968, Note_on_c, 0, 47, 0
2, 18968, Note_on_c, 0, 57, 0
2, 18970, Note_on_c, 0, 48, 102
2, 18970, Note_on_c, 0, 64, 102
2, 19174, Note_on_c, 0, 48, 0
2, 19176, Note_on_c, 0, 50, 102
2, 19373, Note_on_c, 0, 50, 0
2, 19379, Note_on_c, 0, 64, 0
2, 19381, Note_on_c, 0, 52, 102
2, 19381, Note_on_c, 0, 69, 102
2, 19578, Note_on_c, 0, 52, 0
2, 19587, Note_on_c, 0, 54, 102
2, 19784, Note_on_c, 0, 54, 0
2, 19790, Note_on_c, 0, 72, 0
2, 19792, Note_on_c, 0, 55, 102
2, 19792, Note_on_c, 0, 71, 102
2, 19996, Note_on_c, 0, 55, 0
2, 19998, Note_on_c, 0, 57, 102
2, 20182, Note_on_c, 0, 69, 0
2, 20201, Note_on_c, 0, 57, 0
2, 20203, Note_on_c, 0, 59, 102
2, 20203, Note_on_c, 0, 62, 102
2, 20407, Note_on_c, 0, 59, 0
2, 20409, Note_on_c, 0, 60, 102
2, 20606, Note_on_c, 0, 60, 0
2, 20612, Note_on_c, 0, 62, 0
2, 20614, Note_on_c, 0, 62, 102
2, 20614, Note_on_c, 0, 67, 102
2, 20811, Note_on_c, 0, 62, 0
2, 20820, Note_on_c, 0, 64, 102
2, 21017, Note_on_c, 0, 64, 0
2, 21021, Note_on_c, 0, 67, 0
2, 21023, Note_on_c, 0, 71, 0
2, 21025, Note_on_c, 0, 65, 102
2, 21025, Note_on_c, 0, 69, 102
2, 21229, Note_on_c, 0, 69, 0
2, 21231, Note_on_c, 0, 67, 102
2, 21432, Note_on_c, 0, 65, 0
2, 21434, Note_on_c, 0, 67, 0
2, 21436, Note_on_c, 0, 65, 102
2, 21436, Note_on_c, 0, 69, 102
2, 21640, Note_on_c, 0, 69, 0
2, 21642, Note_on_c, 0, 67, 102
2, 21642, Note_on_c, 0, 71, 102
2, 21828, Note_on_c, 0, 71, 0
2, 21828, Note_on_c, 0, 67, 0
2, 21847, Note_on_c, 0, 69, 102
2, 21847, Note_on_c, 0, 72, 102
2, 22033, Note_on_c, 0, 72, 0
2, 22033, Note_on_c, 0, 69, 0
2, 22052, Note_on_c, 0, 71, 102
2, 22052, Note_on_c, 0, 74, 102
2, 22238, Note_on_c, 0, 74, 0
2, 22238, Note_on_c, 0, 71, 0
2, 22249, Note_on_c, 0, 65, 0
2, 22258, Note_on_c, 0, 64, 102
2, 22258, Note_on_c, 0, 72, 102
2, 22258, Note_on_c, 0, 76, 102
2, 22462, Note_on_c, 0, 76, 0
2, 22464, Note_on_c, 0, 77, 102
2, 22665, Note_on_c, 0, 64, 0
2, 22667, Note_on_c, 0, 77, 0
2, 22667, Note_on_c, 0, 72, 0
2, 22669, Note_on_c, 0, 64, 102
2, 22669, Note_on_c, 0, 79, 102
2, 22873, Note_on_c, 0, 79, 0
2, 22875, Note_on_c, 0, 65, 102
2, 22875, Note_on_c, 0, 81, 102
2, 23061, Note_on_c, 0, 81, 0
2, 23061, Note_on_c, 0, 65, 0
2, 23080, Note_on_c, 0, 67, 102
2, 23080, Note_on_c, 0, 83, 102
2, 23266, Note_on_c, 0, 83, 0
2, 23266, Note_on_c, 0, 67, 0
2, 23285, Note_on_c, 0, 69, 102
2, 23285, Note_on_c, 0, 84, 102
2, 23471, Note_on_c, 0, 84, 0
2, 23471, Note_on_c, 0, 69, 0
2, 23482, Note_on_c, 0, 64, 0
2, 23491, Note_on_c, 0, 62, 102
2, 23491, Note_on_c, 0, 71, 102
2, 23491, Note_on_c, 0, 77, 102
2, 23695, Note_on_c, 0, 77, 0
2, 23697, Note_on_c, 0, 81, 102
2, 23901, Note_on_c, 0, 81, 0
2, 23901, Note_on_c, 0, 71, 0
2, 23903, Note_on_c, 0, 69, 102
2, 23903, Note_on_c, 0, 79, 102
2, 24107, Note_on_c, 0, 79, 0
2, 24109, Note_on_c, 0, 77, 102
2, 24295, Note_on_c, 0, 77, 0
2, 24312, Note_on_c, 0, 69, 0
2, 24314, Note_on_c, 0, 71, 102
2, 24314, Note_on_c, 0, 76, 102
2, 24500, Note_on_c, 0, 76, 0
2, 24519, Note_on_c, 0, 74, 102
2, 24703, Note_on_c, 0, 71, 0
2, 24705, Note_on_c, 0, 74, 0
2, 24722, Note_on_c, 0, 62, 0
2, 24724, Note_on_c, 0, 48, 102
2, 24724, Note_on_c, 0, 72, 102
2, 24724, Note_on_c, 0, 76, 102
2, 24928, Note_on_c, 0, 48, 0
2, 24930, Note_on_c, 0, 52, 102
2, 25134, Note_on_c, 0, 52, 0
2, 25134, Note_on_c, 0, 76, 0
2, 25134, Note_on_c, 0, 72, 0
2, 25136, Note_on_c, 0, 55, 102
2, 25136, Note_on_c, 0, 64, 102
2, 25136, Note_on_c, 0, 72, 102
2, 25340, Note_on_c, 0, 55, 0
2, 25342, Note_on_c, 0, 60, 102
2, 25546, Note_on_c, 0, 72, 0
2, 25546, Note_on_c, 0, 64, 0
2, 25548, Note_on_c, 0, 65, 102
2, 25548, Note_on_c, 0, 74, 102
2, 25745, Note_on_c, 0, 60, 0
2, 25754, Note_on_c, 0, 59, 102
2, 25938, Note_on_c, 0, 74, 0
2, 25938, Note_on_c, 0, 65, 0
2, 25951, Note_on_c, 0, 59, 0
2, 25960, Note_on_c, 0, 60, 102
2, 25960, Note_on_c, 0, 67, 102
2, 25960, Note_on_c, 0, 76, 102
2, 26164, Note_on_c, 0, 60, 0
2, 26166, Note_on_c, 0, 55, 102
2, 26370, Note_on_c, 0, 55, 0
2, 26372, Note_on_c, 0, 52, 102
2, 26576, Note_on_c, 0, 52, 0
2, 26578, Note_on_c, 0, 48, 102
2, 26782, Note_on_c, 0, 76, 0
2, 26782, Note_on_c, 0, 67, 0
2, 26784, Note_on_c, 0, 69, 102
2, 26784, Note_on_c, 0, 77, 102
2, 26981, Note_on_c, 0, 48, 0
2, 26990, Note_on_c, 0, 47, 102
2, 27174, Note_on_c, 0, 77, 0
2, 27174, Note_on_c, 0, 69, 0
2, 27187, Note_on_c, 0, 47, 0
2, 27196, Note_on_c, 0, 48, 102
2, 27196, Note_on_c, 0, 67, 102
2, 27196, Note_on_c, 0, 76, 102
2, 27400, Note_on_c, 0, 48, 0
2, 27402, Note_on_c, 0, 52, 102
2, 27606, Note_on_c, 0, 52, 0
2, 27606, Note_on_c, 0, 76, 0
2, 27606, Note_on_c, 0, 67, 0
2, 27608, Note_on_c, 0, 55, 102
2, 27608, Note_on_c, 0, 65, 102
2, 27608, Note_on_c, 0, 76, 102
2, 27743, Note_on_c, 0, 76, 0
2, 27745, Note_on_c, 0, 74, 102
2, 27811, Note_on_c, 0, 55, 0
2, 27813, Note_on_c, 0, 74, 0
2, 27813, Note_on_c, 0, 60, 102
2, 27813, Note_on_c, 0, 76, 102
2, 27882, Note_on_c, 0, 76, 0
2, 27882, Note_on_c, 0, 74, 102
2, 27951, Note_on_c, 0, 74, 0
2, 27951, Note_on_c, 0, 76, 102
2, 28011, Note_on_c, 0, 60, 0
2, 28020, Note_on_c, 0, 76, 0
2, 28020, Note_on_c, 0, 59, 102
2, 28020, Note_on_c, 0, 74, 102
2, 28217, Note_on_c, 0, 59, 0
2, 28226, Note_on_c, 0, 60, 102
2, 28406, Note_on_c, 0, 74, 0
2, 28423, Note_on_c, 0, 60, 0
2, 28429, Note_on_c, 0, 65, 0
2, 28431, Note_on_c, 0, 48, 102
2, 28431, Note_on_c, 0, 64, 102
2, 28431, Note_on_c, 0, 72, 102
2, 28635, Note_on_c, 0, 72, 0
2, 28637, Note_on_c, 0, 67, 102
2, 28838, Note_on_c, 0, 64, 0
2, 28840, Note_on_c, 0, 67, 0
2, 28840, Note_on_c, 0, 48, 0
2, 28842, Note_on_c, 0, 60, 102
2, 28842, Note_on_c, 0, 69, 102
2, 29046, Note_on_c, 0, 69, 0
2, 29048, Note_on_c, 0, 71, 102
2, 29234, Note_on_c, 0, 71, 0
2, 29251, Note_on_c, 0, 60, 0
2, 29253, Note_on_c, 0, 59, 102
2, 29253, Note_on_c, 0, 72, 102
2, 29439, Note_on_c, 0, 72, 0
2, 29458, Note_on_c, 0, 74, 102
2, 29644, Note_on_c, 0, 74, 0
2, 29655, Note_on_c, 0, 59, 0
2, 29664, Note_on_c, 0, 57, 102
2, 29664, Note_on_c, 0, 76, 102
2, 29868, Note_on_c, 0, 57, 0
2, 29870, Note_on_c, 0, 69, 102
2, 30074, Note_on_c, 0, 69, 0
2, 30076, Note_on_c, 0, 67, 102
2, 30076, Note_on_c, 0, 72, 102
2, 30280, Note_on_c, 0, 67, 0
2, 30282, Note_on_c, 0, 65, 102
2, 30479, Note_on_c, 0, 65, 0
2, 30485, Note_on_c, 0, 72, 0
2, 30485, Note_on_c, 0, 76, 0
2, 30487, Note_on_c, 0, 64, 102
2, 30487, Note_on_c, 0, 74, 102
2, 30487, Note_on_c, 0, 77, 102
2, 30684, Note_on_c, 0, 64, 0
2, 30693, Note_on_c, 0, 62, 102
2, 30877, Note_on_c, 0, 77, 0
2, 30877, Note_on_c, 0, 74, 0
2, 30890, Note_on_c, 0, 62, 0
2, 30899, Note_on_c, 0, 60, 102
2, 30899, Note_on_c, 0, 76, 102
2, 30899, Note_on_c, 0, 79, 102
2, 31000, Note_on_c, 0, 76, 0
2, 31002, Note_on_c, 0, 74, 102
2, 31103, Note_on_c, 0, 74, 0
2, 31103, Note_on_c, 0, 60, 0
2, 31105, Note_on_c, 0, 64, 102
2, 31105, Note_on_c, 0, 76, 102
2, 31309, Note_on_c, 0, 64, 0
2, 31311, Note_on_c, 0, 67, 102
2, 31515, Note_on_c, 0, 67, 0
2, 31517, Note_on_c, 0, 72, 102
2, 31721, Note_on_c, 0, 76, 0
2, 31721, Note_on_c, 0, 79, 0
2, 31723, Note_on_c, 0, 77, 102
2, 31723, Note_on_c, 0, 81, 102
2, 31920, Note_on_c, 0, 72, 0
2, 31929, Note_on_c, 0, 71, 102
2, 32113, Note_on_c, 0, 81, 0
2, 32113, Note_on_c, 0, 77, 0
2, 32126, Note_on_c, 0, 71, 0
2, 32135, Note_on_c, 0, 72, 102
2, 32135, Note_on_c, 0, 76, 102
2, 32135, Note_on_c, 0, 79, 102
2, 32339, Note_on_c, 0, 72, 0
2, 32341, Note_on_c, 0, 60, 102
2, 32545, Note_on_c, 0, 60, 0
2, 32545, Note_on_c, 0, 79, 0
2, 32545, Note_on_c, 0, 76, 0
2, 32547, Note_on_c, 0, 72, 102
2, 32547, Note_on_c, 0, 74, 102
2, 32547, Note_on_c, 0, 79, 102
2, 32751, Note_on_c, 0, 72, 0
2, 32753, Note_on_c, 0, 71, 102
2, 32856, Note_on_c, 0, 79, 0
2, 32856, Note_on_c, 0, 77, 102
2, 32937, Note_on_c, 0, 77, 0
2, 32950, Note_on_c, 0, 71, 0
2, 32959, Note_on_c, 0, 69, 102
2, 32959, Note_on_c, 0, 79, 102
2, 33040, Note_on_c, 0, 79, 0
2, 33061, Note_on_c, 0, 77, 102
2, 33142, Note_on_c, 0, 77, 0
2, 33155, Note_on_c, 0, 69, 0
2, 33164, Note_on_c, 0, 71, 102
2, 33164, Note_on_c, 0, 79, 102
2, 33245, Note_on_c, 0, 79, 0
2, 33266, Note_on_c, 0, 77, 102
2, 33347, Note_on_c, 0, 77, 0
2, 33360, Note_on_c, 0, 71, 0
2, 33360, Note_on_c, 0, 74, 0
2, 33369, Note_on_c, 0, 72, 102
2, 33369, Note_on_c, 0, 76, 102
2, 33562, Note_on_c, 0, 72, 0
2, 33575, Note_on_c, 0, 74, 102
2, 33779, Note_on_c, 0, 74, 0
2, 33781, Note_on_c, 0, 60, 102
2, 33781, Note_on_c, 0, 72, 102
2, 33985, Note_on_c, 0, 72, 0
2, 33987, Note_on_c, 0, 70, 102
2, 34173, Note_on_c, 0, 70, 0
2, 34190, Note_on_c, 0, 60, 0
2, 34192, Note_on_c, 0, 61, 102
2, 34192, Note_on_c, 0, 69, 102
2, 34378, Note_on_c, 0, 69, 0
2, 34397, Note_on_c, 0, 67, 102
2, 34583, Note_on_c, 0, 67, 0
2, 34594, Note_on_c, 0, 61, 0
2, 34603, Note_on_c, 0, 62, 102
2, 34603, Note_on_c, 0, 65, 102
2, 34807, Note_on_c, 0, 62, 0
2, 34809, Note_on_c, 0, 67, 102
2, 35013, Note_on_c, 0, 67, 0
2, 35013, Note_on_c, 0, 65, 0
2, 35013, Note_on_c, 0, 76, 0
2, 35015, Note_on_c, 0, 65, 102
2, 35015, Note_on_c, 0, 69, 102
2, 35015, Note_on_c, 0, 74, 102
2, 35219, Note_on_c, 0, 65, 0
2, 35221, Note_on_c, 0, 64, 102
2, 35418, Note_on_c, 0, 64, 0
2, 35424, Note_on_c, 0, 74, 0
2, 35426, Note_on_c, 0, 62, 102
2, 35426, Note_on_c, 0, 76, 102
2, 35623, Note_on_c, 0, 62, 0
2, 35632, Note_on_c, 0, 61, 102
2, 35816, Note_on_c, 0, 76, 0
2, 35829, Note_on_c, 0, 61, 0
2, 35838, Note_on_c, 0, 62, 102
2, 35838, Note_on_c, 0, 77, 102
2, 36042, Note_on_c, 0, 62, 0
2, 36044, Note_on_c, 0, 64, 102
2, 36248, Note_on_c, 0, 64, 0
2, 36248, Note_on_c, 0, 69, 0
2, 36250, Note_on_c, 0, 62, 102
2, 36250, Note_on_c, 0, 69, 102
2, 36454, Note_on_c, 0, 62, 0
2, 36456, Note_on_c, 0, 60, 102
2, 36653, Note_on_c, 0, 60, 0
2, 36659, Note_on_c, 0, 69, 0
2, 36659, Note_on_c, 0, 77, 0
2, 36661, Note_on_c, 0, 58, 102
2, 36661, Note_on_c, 0, 73, 102
2, 36661, Note_on_c, 0, 79, 102
2, 36858, Note_on_c, 0, 58, 0
2, 36867, Note_on_c, 0, 57, 102
2, 37051, Note_on_c, 0, 79, 0
2, 37051, Note_on_c, 0, 73, 0
2, 37064, Note_on_c, 0, 57, 0
2, 37073, Note_on_c, 0, 55, 102
2, 37073, Note_on_c, 0, 74, 102
2, 37073, Note_on_c, 0, 77, 102
2, 37277, Note_on_c, 0, 55, 0
2, 37279, Note_on_c, 0, 53, 102
2, 37483, Note_on_c, 0, 53, 0
2, 37485, Note_on_c, 0, 55, 102
2, 37588, Note_on_c, 0, 77, 0
2, 37588, Note_on_c, 0, 76, 102
2, 37689, Note_on_c, 0, 76, 0
2, 37689, Note_on_c, 0, 55, 0
2, 37691, Note_on_c, 0, 58, 102
2, 37691, Note_on_c, 0, 77, 102
2, 37772, Note_on_c, 0, 77, 0
2, 37793, Note_on_c, 0, 76, 102
2, 37874, Note_on_c, 0, 76, 0
2, 37887, Note_on_c, 0, 58, 0
2, 37893, Note_on_c, 0, 74, 0
2, 37895, Note_on_c, 0, 57, 102
2, 37895, Note_on_c, 0, 73, 102
2, 37895, Note_on_c, 0, 77, 102
2, 37976, Note_on_c, 0, 77, 0
2, 37997, Note_on_c, 0, 76, 102
2, 38078, Note_on_c, 0, 76, 0
2, 38091, Note_on_c, 0, 57, 0
2, 38100, Note_on_c, 0, 55, 102
2, 38100, Note_on_c, 0, 77, 102
2, 38181, Note_on_c, 0, 77, 0
2, 38202, Note_on_c, 0, 76, 102
2, 38283, Note_on_c, 0, 76, 0
2, 38285, Note_on_c, 0, 73, 0
2, 38296, Note_on_c, 0, 55, 0
2, 38305, Note_on_c, 0, 53, 102
2, 38305, Note_on_c, 0, 74, 102
2, 38509, Note_on_c, 0, 53, 0
2, 38511, Note_on_c, 0, 55, 102
2, 38511, Note_on_c, 0, 69, 102
2, 38715, Note_on_c, 0, 69, 0
2, 38715, Note_on_c, 0, 55, 0
2, 38717, Note_on_c, 0, 53, 102
2, 38717, Note_on_c, 0, 71, 102
2, 38906, Note_on_c, 0, 74, 0
2, 38921, Note_on_c, 0, 71, 0
2, 38921, Note_on_c, 0, 53, 0
2, 38923, Note_on_c, 0, 52, 102
2, 38923, Note_on_c, 0, 73, 102
2, 39109, Note_on_c, 0, 73, 0
2, 39120, Note_on_c, 0, 52, 0
2, 39129, Note_on_c, 0, 50, 102
2, 39129, Note_on_c, 0, 74, 102
2, 39315, Note_on_c, 0, 74, 0
2, 39326, Note_on_c, 0, 50, 0
2, 39335, Note_on_c, 0, 49, 102
2, 39335, Note_on_c, 0, 76, 102
2, 39521, Note_on_c, 0, 76, 0
2, 39532, Note_on_c, 0, 49, 0
2, 39541, Note_on_c, 0, 50, 102
2, 39541, Note_on_c, 0, 77, 102
2, 39745, Note_on_c, 0, 50, 0
2, 39747, Note_on_c, 0, 53, 102
2, 39951, Note_on_c, 0, 53, 0
2, 39953, Note_on_c, 0, 57, 102
2, 39953, Note_on_c, 0, 74, 102
2, 40157, Note_on_c, 0, 57, 0
2, 40159, Note_on_c, 0, 62, 102
2, 40363, Note_on_c, 0, 74, 0
2, 40363, Note_on_c, 0, 77, 0
2, 40365, Note_on_c, 0, 76, 102
2, 40365, Note_on_c, 0, 79, 102
2, 40562, Note_on_c, 0, 62, 0
2, 40571, Note_on_c, 0, 61, 102
2, 40755, Note_on_c, 0, 79, 0
2, 40755, Note_on_c, 0, 76, 0
2, 40768, Note_on_c, 0, 61, 0
2, 40777, Note_on_c, 0, 62, 102
2, 40777, Note_on_c, 0, 77, 102
2, 40777, Note_on_c, 0, 81, 102
2, 40981, Note_on_c, 0, 62, 0
2, 40983, Note_on_c, 0, 57, 102
2, 41187, Note_on_c, 0, 57, 0
2, 41189, Note_on_c, 0, 53, 102
2, 41393, Note_on_c, 0, 53, 0
2, 41395, Note_on_c, 0, 50, 102
2, 41599, Note_on_c, 0, 81, 0
2, 41599, Note_on_c, 0, 77, 0
2, 41601, Note_on_c, 0, 79, 102
2, 41601, Note_on_c, 0, 82, 102
2, 41798, Note_on_c, 0, 50, 0
2, 41807, Note_on_c, 0, 49, 102
2, 41991, Note_on_c, 0, 82, 0
2, 41991, Note_on_c, 0, 79, 0
2, 42004, Note_on_c, 0, 49, 0
2, 42013, Note_on_c, 0, 50, 102
2, 42013, Note_on_c, 0, 77, 102
2, 42013, Note_on_c, 0, 81, 102
2, 42217, Note_on_c, 0, 50, 0
2, 42219, Note_on_c, 0, 53, 102
2, 42423, Note_on_c, 0, 53, 0
2, 42423, Note_on_c, 0, 81, 0
2, 42423, Note_on_c, 0, 77, 0
2, 42425, Note_on_c, 0, 57, 102
2, 42425, Note_on_c, 0, 76, 102
2, 42425, Note_on_c, 0, 81, 102
2, 42505, Note_on_c, 0, 79, 102
2, 42508, Note_on_c, 0, 81, 0
2, 42580, Note_on_c, 0, 81, 102
2, 42588, Note_on_c, 0, 79, 0
2, 42628, Note_on_c, 0, 57, 0
2, 42630, Note_on_c, 0, 62, 102
2, 42655, Note_on_c, 0, 79, 102
2, 42664, Note_on_c, 0, 81, 0
2, 42827, Note_on_c, 0, 62, 0
2, 42836, Note_on_c, 0, 61, 102
2, 43033, Note_on_c, 0, 61, 0
2, 43042, Note_on_c, 0, 62, 102
2, 43170, Note_on_c, 0, 79, 0
2, 43239, Note_on_c, 0, 62, 0
2, 43239, Note_on_c, 0, 76, 0
2, 43248, Note_on_c, 0, 50, 102
2, 43248, Note_on_c, 0, 77, 102
2, 43452, Note_on_c, 0, 77, 0
2, 43454, Note_on_c, 0, 81, 102
2, 43555, Note_on_c, 0, 81, 0
2, 43557, Note_on_c, 0, 79, 102
2, 43658, Note_on_c, 0, 79, 0
2, 43658, Note_on_c, 0, 50, 0
2, 43660, Note_on_c, 0, 53, 102
2, 43660, Note_on_c, 0, 74, 102
2, 43660, Note_on_c, 0, 77, 102
2, 43864, Note_on_c, 0, 77, 0
2, 43866, Note_on_c, 0, 81, 102
2, 44052, Note_on_c, 0, 81, 0
2, 44069, Note_on_c, 0, 74, 0
2, 44069, Note_on_c, 0, 53, 0
2, 44071, Note_on_c, 0, 57, 102
2, 44071, Note_on_c, 0, 73, 102
2, 44071, Note_on_c, 0, 76, 102
2, 44257, Note_on_c, 0, 76, 0
2, 44276, Note_on_c, 0, 81, 102
2, 44460, Note_on_c, 0, 73, 0
2, 44462, Note_on_c, 0, 81, 0
2, 44473, Note_on_c, 0, 57, 0
2, 44482, Note_on_c, 0, 50, 102
2, 44482, Note_on_c, 0, 74, 102
2, 44482, Note_on_c, 0, 77, 102
2, 44686, Note_on_c, 0, 74, 0
2, 44686, Note_on_c, 0, 50, 0
2, 44688, Note_on_c, 0, 53, 102
2, 44688, Note_on_c, 0, 74, 102
2, 44789, Note_on_c, 0, 74, 0
2, 44789, Note_on_c, 0, 53, 0
2, 44791, Note_on_c, 0, 52, 102
2, 44791, Note_on_c, 0, 72, 102
2, 44892, Note_on_c, 0, 72, 0
2, 44892, Note_on_c, 0, 52, 0
2, 44894, Note_on_c, 0, 50, 102
2, 44894, Note_on_c, 0, 71, 102
2, 45098, Note_on_c, 0, 71, 0
2, 45098, Note_on_c, 0, 50, 0
2, 45100, Note_on_c, 0, 53, 102
2, 45100, Note_on_c, 0, 74, 102
2, 45286, Note_on_c, 0, 74, 0
2, 45297, Note_on_c, 0, 53, 0
2, 45306, Note_on_c, 0, 48, 102
2, 45306, Note_on_c, 0, 69, 102
2, 45492, Note_on_c, 0, 69, 0
2, 45503, Note_on_c, 0, 48, 0
2, 45512, Note_on_c, 0, 53, 102
2, 45512, Note_on_c, 0, 74, 102
2, 45698, Note_on_c, 0, 74, 0
2, 45709, Note_on_c, 0, 53, 0
2, 45718, Note_on_c, 0, 47, 102
2, 45718, Note_on_c, 0, 67, 102
2, 45922, Note_on_c, 0, 77, 0
2, 45924, Note_on_c, 0, 79, 102
2, 46025, Note_on_c, 0, 79, 0
2, 46027, Note_on_c, 0, 77, 102
2, 46128, Note_on_c, 0, 77, 0
2, 46128, Note_on_c, 0, 67, 0
2, 46128, Note_on_c, 0, 47, 0
2, 46130, Note_on_c, 0, 48, 102
2, 46130, Note_on_c, 0, 72, 102
2, 46130, Note_on_c, 0, 76, 102
2, 46334, Note_on_c, 0, 76, 0
2, 46336, Note_on_c, 0, 79, 102
2, 46522, Note_on_c, 0, 79, 0
2, 46539, Note_on_c, 0, 72, 0
2, 46539, Note_on_c, 0, 48, 0
2, 46541, Note_on_c, 0, 55, 102
2, 46541, Note_on_c, 0, 71, 102
2, 46541, Note_on_c, 0, 74, 102
2, 46727, Note_on_c, 0, 74, 0
2, 46746, Note_on_c, 0, 79, 102
2, 46930, Note_on_c, 0, 71, 0
2, 46932, Note_on_c, 0, 79, 0
2, 46943, Note_on_c, 0, 55, 0
2, 46952, Note_on_c, 0, 60, 102
2, 46952, Note_on_c, 0, 72, 102
2, 46952, Note_on_c, 0, 76, 102
2, 47156, Note_on_c, 0, 72, 0
2, 47156, Note_on_c, 0, 60, 0
2, 47158, Note_on_c, 0, 64, 102
2, 47158, Note_on_c, 0, 72, 102
2, 47259, Note_on_c, 0, 72, 0
2, 47259, Note_on_c, 0, 64, 0
2, 47261, Note_on_c, 0, 62, 102
2, 47261, Note_on_c, 0, 71, 102
2, 47362, Note_on_c, 0, 71, 0
2, 47362, Note_on_c, 0, 62, 0
2, 47364, Note_on_c, 0, 60, 102
2, 47364, Note_on_c, 0, 69, 102
2, 47568, Note_on_c, 0, 69, 0
2, 47568, Note_on_c, 0, 60, 0
2, 47570, Note_on_c, 0, 64, 102
2, 47570, Note_on_c, 0, 72, 102
2, 47756, Note_on_c, 0, 72, 0
2, 47767, Note_on_c, 0, 64, 0
2, 47776, Note_on_c, 0, 59, 102
2, 47776, Note_on_c, 0, 67, 102
2, 47962, Note_on_c, 0, 67, 0
2, 47973, Note_on_c, 0, 59, 0
2, 47982, Note_on_c, 0, 64, 102
2, 47982, Note_on_c, 0, 72, 102
2, 48168, Note_on_c, 0, 72, 0
2, 48179, Note_on_c, 0, 64, 0
2, 48188, Note_on_c, 0, 57, 102
2, 48188, Note_on_c, 0, 66, 102
2, 48392, Note_on_c, 0, 76, 0
2, 48394, Note_on_c, 0, 74, 102
2, 48495, Note_on_c, 0, 74, 0
2, 48497, Note_on_c, 0, 72, 102
2, 48598, Note_on_c, 0, 72, 0
2, 48598, Note_on_c, 0, 66, 0
2, 48598, Note_on_c, 0, 57, 0
2, 48600, Note_on_c, 0, 59, 102
2, 48600, Note_on_c, 0, 67, 102
2, 48600, Note_on_c, 0, 71, 102
2, 48804, Note_on_c, 0, 71, 0
2, 48806, Note_on_c, 0, 74, 102
2, 48992, Note_on_c, 0, 74, 0
2, 49009, Note_on_c, 0, 67, 0
2, 49009, Note_on_c, 0, 59, 0
2, 49011, Note_on_c, 0, 62, 102
2, 49011, Note_on_c, 0, 66, 102
2, 49011, Note_on_c, 0, 69, 102
2, 49197, Note_on_c, 0, 69, 0
2, 49216, Note_on_c, 0, 74, 102
2, 49400, Note_on_c, 0, 66, 0
2, 49402, Note_on_c, 0, 74, 0
2, 49413, Note_on_c, 0, 62, 0
2, 49422, Note_on_c, 0, 55, 102
2, 49422, Note_on_c, 0, 67, 102
2, 49422, Note_on_c, 0, 71, 102
2, 49626, Note_on_c, 0, 71, 0
2, 49628, Note_on_c, 0, 71, 102
2, 49832, Note_on_c, 0, 71, 0
2, 49832, Note_on_c, 0, 55, 0
2, 49834, Note_on_c, 0, 43, 102
2, 49834, Note_on_c, 0, 74, 102
2, 50038, Note_on_c, 0, 74, 0
2, 50040, Note_on_c, 0, 79, 102
2, 50244, Note_on_c, 0, 43, 0
2, 50246, Note_on_c, 0, 45, 102
2, 50430, Note_on_c, 0, 79, 0
2, 50451, Note_on_c, 0, 78, 102
2, 50637, Note_on_c, 0, 78, 0
2, 50648, Note_on_c, 0, 45, 0
2, 50657, Note_on_c, 0, 47, 102
2, 50657, Note_on_c, 0, 79, 102
2, 50861, Note_on_c, 0, 79, 0
2, 50863, Note_on_c, 0, 74, 102
2, 51067, Note_on_c, 0, 74, 0
2, 51067, Note_on_c, 0, 67, 0
2, 51069, Note_on_c, 0, 55, 102
2, 51069, Note_on_c, 0, 71, 102
2, 51273, Note_on_c, 0, 71, 0
2, 51275, Note_on_c, 0, 67, 102
2, 51479, Note_on_c, 0, 55, 0
2, 51479, Note_on_c, 0, 47, 0
2, 51481, Note_on_c, 0, 48, 102
2, 51481, Note_on_c, 0, 57, 102
2, 51665, Note_on_c, 0, 67, 0
2, 51686, Note_on_c, 0, 66, 102
2, 51870, Note_on_c, 0, 57, 0
2, 51872, Note_on_c, 0, 66, 0
2, 51883, Note_on_c, 0, 48, 0
2, 51892, Note_on_c, 0, 47, 102
2, 51892, Note_on_c, 0, 59, 102
2, 51892, Note_on_c, 0, 67, 102
2, 52096, Note_on_c, 0, 67, 0
2, 52098, Note_on_c, 0, 62, 102
2, 52302, Note_on_c, 0, 62, 0
2, 52302, Note_on_c, 0, 47, 0
2, 52304, Note_on_c, 0, 45, 102
2, 52304, Note_on_c, 0, 64, 102
2, 52407, Note_on_c, 0, 59, 0
2, 52508, Note_on_c, 0, 64, 0
2, 52510, Note_on_c, 0, 62, 102
2, 52696, Note_on_c, 0, 62, 0
2, 52715, Note_on_c, 0, 60, 102
2, 52715, Note_on_c, 0, 64, 102
2, 52901, Note_on_c, 0, 64, 0
2, 52920, Note_on_c, 0, 66, 102
2, 53104, Note_on_c, 0, 60, 0
2, 53106, Note_on_c, 0, 66, 0
2, 53123, Note_on_c, 0, 45, 0
2, 53125, Note_on_c, 0, 43, 102
2, 53125, Note_on_c, 0, 59, 102
2, 53125, Note_on_c, 0, 67, 102
2, 53329, Note_on_c, 0, 67, 0
2, 53331, Note_on_c, 0, 74, 102
2, 53535, Note_on_c, 0, 74, 0
2, 53535, Note_on_c, 0, 59, 0
2, 53535, Note_on_c, 0, 43, 0
2, 53537, Note_on_c, 0, 55, 102
2, 53537, Note_on_c, 0, 57, 102
2, 53537, Note_on_c, 0, 72, 102
2, 53741, Note_on_c, 0, 72, 0
2, 53743, Note_on_c, 0, 71, 102
2, 53929, Note_on_c, 0, 71, 0
2, 53946, Note_on_c, 0, 55, 0
2, 53948, Note_on_c, 0, 54, 102
2, 53948, Note_on_c, 0, 72, 102
2, 54134, Note_on_c, 0, 72, 0
2, 54153, Note_on_c, 0, 74, 102
2, 54339, Note_on_c, 0, 74, 0
2, 54350, Note_on_c, 0, 54, 0
2, 54350, Note_on_c, 0, 57, 0
2, 54359, Note_on_c, 0, 55, 102
2, 54359, Note_on_c, 0, 71, 102
2, 54552, Note_on_c, 0, 55, 0
2, 54565, Note_on_c, 0, 55, 102
2, 54769, Note_on_c, 0, 55, 0
2, 54769, Note_on_c, 0, 71, 0
2, 54771, Note_on_c, 0, 57, 102
2, 54771, Note_on_c, 0, 72, 102
2, 54975, Note_on_c, 0, 57, 0
2, 54977, Note_on_c, 0, 55, 102
2, 55163, Note_on_c, 0, 55, 0
2, 55180, Note_on_c, 0, 72, 0
2, 55182, Note_on_c, 0, 53, 102
2, 55182, Note_on_c, 0, 57, 102
2, 55182, Note_on_c, 0, 74, 102
2, 55368, Note_on_c, 0, 57, 0
2, 55387, Note_on_c, 0, 59, 102
2, 55571, Note_on_c, 0, 74, 0
2, 55573, Note_on_c, 0, 59, 0
2, 55584, Note_on_c, 0, 53, 0
2, 55593, Note_on_c, 0, 52, 102
2, 55593, Note_on_c, 0, 60, 102
2, 55593, Note_on_c, 0, 67, 102
2, 55786, Note_on_c, 0, 67, 0
2, 55797, Note_on_c, 0, 60, 0
2, 55799, Note_on_c, 0, 67, 102
2, 56003, Note_on_c, 0, 67, 0
2, 56005, Note_on_c, 0, 65, 102
2, 56005, Note_on_c, 0, 69, 102
2, 56209, Note_on_c, 0, 65, 0
2, 56211, Note_on_c, 0, 64, 102
2, 56397, Note_on_c, 0, 64, 0
2, 56414, Note_on_c, 0, 69, 0
2, 56414, Note_on_c, 0, 52, 0
2, 56416, Note_on_c, 0, 50, 102
2, 56416, Note_on_c, 0, 65, 102
2, 56416, Note_on_c, 0, 71, 102
2, 56602, Note_on_c, 0, 65, 0
2, 56621, Note_on_c, 0, 67, 102
2, 56805, Note_on_c, 0, 71, 0
2, 56807, Note_on_c, 0, 67, 0
2, 56818, Note_on_c, 0, 50, 0
2, 56827, Note_on_c, 0, 48, 102
2, 56827, Note_on_c, 0, 64, 102
2, 56827, Note_on_c, 0, 72, 102
2, 57031, Note_on_c, 0, 48, 0
2, 57033, Note_on_c, 0, 52, 102
2, 57237, Note_on_c, 0, 52, 0
2, 57237, Note_on_c, 0, 64, 0
2, 57239, Note_on_c, 0, 54, 102
2, 57239, Note_on_c, 0, 62, 102
2, 57443, Note_on_c, 0, 54, 0
2, 57445, Note_on_c, 0, 52, 102
2, 57642, Note_on_c, 0, 52, 0
2, 57648, Note_on_c, 0, 72, 0
2, 57650, Note_on_c, 0, 54, 102
2, 57650, Note_on_c, 0, 71, 102
2, 57847, Note_on_c, 0, 54, 0
2, 57856, Note_on_c, 0, 56, 102
2, 58053, Note_on_c, 0, 56, 0
2, 58059, Note_on_c, 0, 62, 0
2, 58061, Note_on_c, 0, 57, 102
2, 58061, Note_on_c, 0, 60, 102
2, 58245, Note_on_c, 0, 71, 0
2, 58264, Note_on_c, 0, 57, 0
2, 58266, Note_on_c, 0, 52, 102
2, 58266, Note_on_c, 0, 69, 102
2, 58470, Note_on_c, 0, 52, 0
2, 58470, Note_on_c, 0, 60, 0
2, 58472, Note_on_c, 0, 50, 102
2, 58472, Note_on_c, 0, 59, 102
2, 58676, Note_on_c, 0, 50, 0
2, 58676, Note_on_c, 0, 69, 0
2, 58678, Note_on_c, 0, 48, 102
2, 58678, Note_on_c, 0, 69, 102
2, 58875, Note_on_c, 0, 48, 0
2, 58881, Note_on_c, 0, 59, 0
2, 58883, Note_on_c, 0, 50, 102
2, 58883, Note_on_c, 0, 59, 102
2, 59067, Note_on_c, 0, 69, 0
2, 59080, Note_on_c, 0, 50, 0
2, 59089, Note_on_c, 0, 52, 102
2, 59089, Note_on_c, 0, 68, 102
2, 59273, Note_on_c, 0, 59, 0
2, 59275, Note_on_c, 0, 68, 0
2, 59286, Note_on_c, 0, 52, 0
2, 59295, Note_on_c, 0, 48, 102
2, 59295, Note_on_c, 0, 57, 102
2, 59295, Note_on_c, 0, 69, 102
2, 59499, Note_on_c, 0, 69, 0
2, 59501, Note_on_c, 0, 72, 102
2, 59705, Note_on_c, 0, 72, 0
2, 59705, Note_on_c, 0, 57, 0
2, 59707, Note_on_c, 0, 57, 102
2, 59707, Note_on_c, 0, 76, 102
2, 59911, Note_on_c, 0, 76, 0
2, 59913, Note_on_c, 0, 81, 102
2, 60117, Note_on_c, 0, 57, 0
2, 60117, Note_on_c, 0, 48, 0
2, 60119, Note_on_c, 0, 52, 102
2, 60119, Note_on_c, 0, 59, 102
2, 60303, Note_on_c, 0, 81, 0
2, 60324, Note_on_c, 0, 80, 102
2, 60508, Note_on_c, 0, 59, 0
2, 60510, Note_on_c, 0, 80, 0
2, 60521, Note_on_c, 0, 52, 0
2, 60530, Note_on_c, 0, 57, 102
2, 60530, Note_on_c, 0, 60, 102
2, 60530, Note_on_c, 0, 81, 102
2, 60734, Note_on_c, 0, 81, 0
2, 60736, Note_on_c, 0, 76, 102
2, 60940, Note_on_c, 0, 76, 0
2, 60940, Note_on_c, 0, 57, 0
2, 60942, Note_on_c, 0, 55, 102
2, 60942, Note_on_c, 0, 72, 102
2, 61146, Note_on_c, 0, 72, 0
2, 61148, Note_on_c, 0, 69, 102
2, 61352, Note_on_c, 0, 55, 0
2, 61352, Note_on_c, 0, 60, 0
2, 61354, Note_on_c, 0, 53, 102
2, 61354, Note_on_c, 0, 62, 102
2, 61538, Note_on_c, 0, 69, 0
2, 61559, Note_on_c, 0, 68, 102
2, 61743, Note_on_c, 0, 62, 0
2, 61745, Note_on_c, 0, 68, 0
2, 61756, Note_on_c, 0, 53, 0
2, 61765, Note_on_c, 0, 52, 102
2, 61765, Note_on_c, 0, 60, 102
2, 61765, Note_on_c, 0, 69, 102
2, 61969, Note_on_c, 0, 69, 0
2, 61971, Note_on_c, 0, 72, 102
2, 62175, Note_on_c, 0, 72, 0
2, 62175, Note_on_c, 0, 60, 0
2, 62177, Note_on_c, 0, 59, 102
2, 62177, Note_on_c, 0, 76, 102
2, 62381, Note_on_c, 0, 76, 0
2, 62383, Note_on_c, 0, 81, 102
2, 62569, Note_on_c, 0, 81, 0
2, 62586, Note_on_c, 0, 52, 0
2, 62588, Note_on_c, 0, 50, 102
2, 62588, Note_on_c, 0, 80, 102
2, 62774, Note_on_c, 0, 80, 0
2, 62793, Note_on_c, 0, 83, 102
2, 62979, Note_on_c, 0, 83, 0
2, 62990, Note_on_c, 0, 50, 0
2, 62999, Note_on_c, 0, 48, 102
2, 62999, Note_on_c, 0, 76, 102
2, 63203, Note_on_c, 0, 59, 0
2, 63205, Note_on_c, 0, 52, 102
2, 63409, Note_on_c, 0, 52, 0
2, 63409, Note_on_c, 0, 76, 0
2, 63411, Note_on_c, 0, 54, 102
2, 63411, Note_on_c, 0, 69, 102
2, 63615, Note_on_c, 0, 54, 0
2, 63617, Note_on_c, 0, 56, 102
2, 63803, Note_on_c, 0, 56, 0
2, 63820, Note_on_c, 0, 69, 0
2, 63820, Note_on_c, 0, 48, 0
2, 63822, Note_on_c, 0, 47, 102
2, 63822, Note_on_c, 0, 57, 102
2, 63822, Note_on_c, 0, 71, 102
2, 64008, Note_on_c, 0, 57, 0
2, 64027, Note_on_c, 0, 56, 102
2, 64211, Note_on_c, 0, 71, 0
2, 64213, Note_on_c, 0, 56, 0
2, 64224, Note_on_c, 0, 47, 0
2, 64233, Note_on_c, 0, 45, 102
2, 64233, Note_on_c, 0, 57, 102
2, 64233, Note_on_c, 0, 72, 102
2, 64437, Note_on_c, 0, 57, 0
2, 64439, Note_on_c, 0, 60, 102
2, 64643, Note_on_c, 0, 60, 0
2, 64645, Note_on_c, 0, 64, 102
2, 64849, Note_on_c, 0, 64, 0
2, 64851, Note_on_c, 0, 69, 102
2, 65055, Note_on_c, 0, 72, 0
2, 65055, Note_on_c, 0, 45, 0
2, 65057, Note_on_c, 0, 47, 102
2, 65057, Note_on_c, 0, 74, 102
2, 65241, Note_on_c, 0, 69, 0
2, 65262, Note_on_c, 0, 68, 102
2, 65446, Note_on_c, 0, 74, 0
2, 65448, Note_on_c, 0, 68, 0
2, 65459, Note_on_c, 0, 47, 0
2, 65468, Note_on_c, 0, 48, 102
2, 65468, Note_on_c, 0, 69, 102
2, 65468, Note_on_c, 0, 76, 102
2, 65672, Note_on_c, 0, 69, 0
2, 65674, Note_on_c, 0, 64, 102
2, 65878, Note_on_c, 0, 64, 0
2, 65880, Note_on_c, 0, 60, 102
2, 66084, Note_on_c, 0, 60, 0
2, 66086, Note_on_c, 0, 57, 102
2, 66290, Note_on_c, 0, 76, 0
2, 66290, Note_on_c, 0, 48, 0
2, 66292, Note_on_c, 0, 50, 102
2, 66292, Note_on_c, 0, 77, 102
2, 66476, Note_on_c, 0, 57, 0
2, 66497, Note_on_c, 0, 56, 102
2, 66681, Note_on_c, 0, 77, 0
2, 66683, Note_on_c, 0, 56, 0
2, 66694, Note_on_c, 0, 50, 0
2, 66703, Note_on_c, 0, 48, 102
2, 66703, Note_on_c, 0, 57, 102
2, 66703, Note_on_c, 0, 76, 102
2, 66907, Note_on_c, 0, 57, 0
2, 66909, Note_on_c, 0, 60, 102
2, 67113, Note_on_c, 0, 60, 0
2, 67113, Note_on_c, 0, 76, 0
2, 67113, Note_on_c, 0, 48, 0
2, 67115, Note_on_c, 0, 47, 102
2, 67115, Note_on_c, 0, 64, 102
2, 67115, Note_on_c, 0, 76, 102
2, 67196, Note_on_c, 0, 74, 102
2, 67198, Note_on_c, 0, 76, 0
2, 67277, Note_on_c, 0, 76, 102
2, 67279, Note_on_c, 0, 74, 0
2, 67318, Note_on_c, 0, 64, 0
2, 67320, Note_on_c, 0, 69, 102
2, 67359, Note_on_c, 0, 74, 102
2, 67361, Note_on_c, 0, 76, 0
2, 67440, Note_on_c, 0, 76, 102
2, 67442, Note_on_c, 0, 74, 0
2, 67506, Note_on_c, 0, 69, 0
2, 67523, Note_on_c, 0, 76, 0
2, 67523, Note_on_c, 0, 74, 102
2, 67525, Note_on_c, 0, 68, 102
2, 67711, Note_on_c, 0, 68, 0
2, 67730, Note_on_c, 0, 69, 102
2, 67876, Note_on_c, 0, 74, 0
2, 67917, Note_on_c, 0, 69, 0
2, 67934, Note_on_c, 0, 47, 0
2, 67936, Note_on_c, 0, 45, 102
2, 67936, Note_on_c, 0, 57, 102
2, 67936, Note_on_c, 0, 72, 102
2, 68129, Note_on_c, 0, 72, 0
2, 68140, Note_on_c, 0, 57, 0
2, 68142, Note_on_c, 0, 72, 102
2, 68243, Note_on_c, 0, 72, 0
2, 68245, Note_on_c, 0, 71, 102
2, 68346, Note_on_c, 0, 71, 0
2, 68346, Note_on_c, 0, 45, 0
2, 68348, Note_on_c, 0, 48, 102
2, 68348, Note_on_c, 0, 69, 102
2, 68348, Note_on_c, 0, 76, 102
2, 68552, Note_on_c, 0, 69, 0
2, 68554, Note_on_c, 0, 72, 102
2, 68740, Note_on_c, 0, 72, 0
2, 68757, Note_on_c, 0, 48, 0
2, 68759, Note_on_c, 0, 45, 102
2, 68759, Note_on_c, 0, 67, 102
2, 68945, Note_on_c, 0, 67, 0
2, 68964, Note_on_c, 0, 72, 102
2, 69150, Note_on_c, 0, 72, 0
2, 69161, Note_on_c, 0, 45, 0
2, 69170, Note_on_c, 0, 50, 102
2, 69170, Note_on_c, 0, 66, 102
2, 69374, Note_on_c, 0, 66, 0
2, 69376, Note_on_c, 0, 71, 102
2, 69477, Note_on_c, 0, 71, 0
2, 69479, Note_on_c, 0, 69, 102
2, 69580, Note_on_c, 0, 69, 0
2, 69580, Note_on_c, 0, 50, 0
2, 69580, Note_on_c, 0, 76, 0
2, 69582, Note_on_c, 0, 47, 102
2, 69582, Note_on_c, 0, 68, 102
2, 69582, Note_on_c, 0, 74, 102
2, 69786, Note_on_c, 0, 68, 0
2, 69788, Note_on_c, 0, 71, 102
2, 69974, Note_on_c, 0, 71, 0
2, 69991, Note_on_c, 0, 47, 0
2, 69993, Note_on_c, 0, 45, 102
2, 69993, Note_on_c, 0, 66, 102
2, 70179, Note_on_c, 0, 66, 0
2, 70198, Note_on_c, 0, 71, 102
2, 70384, Note_on_c, 0, 71, 0
2, 70395, Note_on_c, 0, 45, 0
2, 70404, Note_on_c, 0, 44, 102
2, 70404, Note_on_c, 0, 64, 102
2, 70608, Note_on_c, 0, 74, 0
2, 70610, Note_on_c, 0, 76, 102
2, 70711, Note_on_c, 0, 76, 0
2, 70713, Note_on_c, 0, 74, 102
2, 70814, Note_on_c, 0, 74, 0
2, 70814, Note_on_c, 0, 44, 0
2, 70816, Note_on_c, 0, 45, 102
2, 70816, Note_on_c, 0, 72, 102
2, 71020, Note_on_c, 0, 72, 0
2, 71022, Note_on_c, 0, 76, 102
2, 71208, Note_on_c, 0, 76, 0
2, 71225, Note_on_c, 0, 45, 0
2, 71227, Note_on_c, 0, 43, 102
2, 71227, Note_on_c, 0, 71, 102
2, 71413, Note_on_c, 0, 71, 0
2, 71432, Note_on_c, 0, 76, 102
2, 71618, Note_on_c, 0, 76, 0
2, 71629, Note_on_c, 0, 43, 0
2, 71638, Note_on_c, 0, 42, 102
2, 71638, Note_on_c, 0, 69, 102
2, 71842, Note_on_c, 0, 69, 0
2, 71844, Note_on_c, 0, 74, 102
2, 71945, Note_on_c, 0, 74, 0
2, 71947, Note_on_c, 0, 72, 102
2, 72048, Note_on_c, 0, 72, 0
2, 72048, Note_on_c, 0, 42, 0
2, 72048, Note_on_c, 0, 64, 0
2, 72050, Note_on_c, 0, 41, 102
2, 72050, Note_on_c, 0, 62, 102
2, 72050, Note_on_c, 0, 71, 102
2, 72254, Note_on_c, 0, 71, 0
2, 72256, Note_on_c, 0, 74, 102
2, 72442, Note_on_c, 0, 74, 0
2, 72459, Note_on_c, 0, 41, 0
2, 72461, Note_on_c, 0, 53, 102
2, 72461, Note_on_c, 0, 69, 102
2, 72647, Note_on_c, 0, 69, 0
2, 72666, Note_on_c, 0, 74, 102
2, 72852, Note_on_c, 0, 74, 0
2, 72863, Note_on_c, 0, 53, 0
2, 72872, Note_on_c, 0, 52, 102
2, 72872, Note_on_c, 0, 68, 102
2, 73076, Note_on_c, 0, 62, 0
2, 73078, Note_on_c, 0, 64, 102
2, 73179, Note_on_c, 0, 64, 0
2, 73181, Note_on_c, 0, 62, 102
2, 73282, Note_on_c, 0, 62, 0
2, 73282, Note_on_c, 0, 68, 0
2, 73284, Note_on_c, 0, 60, 102
2, 73284, Note_on_c, 0, 69, 102
2, 73488, Note_on_c, 0, 60, 0
2, 73490, Note_on_c, 0, 64, 102
2, 73676, Note_on_c, 0, 64, 0
2, 73693, Note_on_c, 0, 69, 0
2, 73695, Note_on_c, 0, 59, 102
2, 73695, Note_on_c, 0, 71, 102
2, 73881, Note_on_c, 0, 59, 0
2, 73900, Note_on_c, 0, 64, 102
2, 74084, Note_on_c, 0, 71, 0
2, 74086, Note_on_c, 0, 64, 0
2, 74105, Note_on_c, 0, 57, 102
2, 74105, Note_on_c, 0, 72, 102
2, 74312, Note_on_c, 0, 52, 0
2, 74314, Note_on_c, 0, 52, 102
2, 74417, Note_on_c, 0, 52, 0
2, 74419, Note_on_c, 0, 50, 102
2, 74522, Note_on_c, 0, 50, 0
2, 74522, Note_on_c, 0, 57, 0
2, 74524, Note_on_c, 0, 48, 102
2, 74524, Note_on_c, 0, 69, 102
2, 74731, Note_on_c, 0, 48, 0
2, 74733, Note_on_c, 0, 52, 102
2, 74934, Note_on_c, 0, 52, 0
2, 74941, Note_on_c, 0, 69, 0
2, 74941, Note_on_c, 0, 72, 0
2, 74943, Note_on_c, 0, 47, 102
2, 74943, Note_on_c, 0, 68, 102
2, 74943, Note_on_c, 0, 74, 102
2, 75144, Note_on_c, 0, 47, 0
2, 75153, Note_on_c, 0, 52, 102
2, 75341, Note_on_c, 0, 74, 0
2, 75341, Note_on_c, 0, 68, 0
2, 75354, Note_on_c, 0, 52, 0
2, 75363, Note_on_c, 0, 45, 102
2, 75363, Note_on_c, 0, 69, 102
2, 75363, Note_on_c, 0, 72, 102
2, 75570, Note_on_c, 0, 45, 0
2, 75572, Note_on_c, 0, 59, 102
2, 75675, Note_on_c, 0, 59, 0
2, 75677, Note_on_c, 0, 57, 102
2, 75780, Note_on_c, 0, 57, 0
2, 75780, Note_on_c, 0, 72, 0
2, 75780, Note_on_c, 0, 69, 0
2, 75782, Note_on_c, 0, 56, 102
2, 75782, Note_on_c, 0, 62, 102
2, 75782, Note_on_c, 0, 72, 102
2, 75989, Note_on_c, 0, 56, 0
2, 75991, Note_on_c, 0, 59, 102
2, 76052, Note_on_c, 0, 71, 102
2, 76059, Note_on_c, 0, 72, 0
2, 76107, Note_on_c, 0, 71, 0
2, 76127, Note_on_c, 0, 72, 102
2, 76182, Note_on_c, 0, 72, 0
2, 76193, Note_on_c, 0, 59, 0
2, 76202, Note_on_c, 0, 52, 102
2, 76202, Note_on_c, 0, 71, 102
2, 76257, Note_on_c, 0, 71, 0
2, 76277, Note_on_c, 0, 72, 102
2, 76332, Note_on_c, 0, 72, 0
2, 76352, Note_on_c, 0, 71, 102
2, 76404, Note_on_c, 0, 52, 0
2, 76413, Note_on_c, 0, 56, 102
2, 76614, Note_on_c, 0, 56, 0
2, 76642, Note_on_c, 0, 71, 0
2, 76655, Note_on_c, 0, 48, 102
2, 76851, Note_on_c, 0, 62, 0
2, 76885, Note_on_c, 0, 76, 102
2, 76998, Note_on_c, 0, 76, 0
2, 77000, Note_on_c, 0, 74, 102
2, 77113, Note_on_c, 0, 74, 0
2, 77113, Note_on_c, 0, 48, 0
2, 77115, Note_on_c, 0, 50, 102
2, 77115, Note_on_c, 0, 72, 102
2, 77115, Note_on_c, 0, 81, 102
2, 77343, Note_on_c, 0, 72, 0
2, 77345, Note_on_c, 0, 76, 102
2, 77554, Note_on_c, 0, 76, 0
2, 77573, Note_on_c, 0, 81, 0
2, 77573, Note_on_c, 0, 50, 0
2, 77575, Note_on_c, 0, 52, 102
2, 77575, Note_on_c, 0, 71, 102
2, 77575, Note_on_c, 0, 80, 102
2, 77784, Note_on_c, 0, 71, 0
2, 77806, Note_on_c, 0, 76, 102
2, 78012, Note_on_c, 0, 80, 0
2, 78014, Note_on_c, 0, 76, 0
2, 78026, Note_on_c, 0, 52, 0
2, 78036, Note_on_c, 0, 45, 102
2, 78036, Note_on_c, 0, 74, 102
2, 78036, Note_on_c, 0, 81, 102
2, 78948, Note_on_c, 0, 74, 0
2, 78958, Note_on_c, 0, 73, 102
2, 80336, Note_on_c, 0, 73, 0
2, 80434, Note_on_c, 0, 81, 0
2, 80434, Note_on_c, 0, 45, 0
2, 80434, End_track
0, 0, End_of_file
