0, 0, Header, 1, 3, 480
1, 0, Start_track
1, 0, Title_t, "Bach's 3rd English Suite: 2. Allemande"
1, 0, Time_signature, 4, 2, 24, 8
1, 0, Key_signature, -2, "major"
1, 0, Tempo, 1000000
1, 22081, Tempo, 967742
1, 22185, Tempo, 983607
1, 22237, Tempo, 1000000
1, 22289, Tempo, 1016949
1, 22341, Tempo, 1034483
1, 22393, Tempo, 1052632
1, 22445, Tempo, 1071429
1, 22497, Tempo, 1090909
1, 22549, Tempo, 1111111
1, 23649, Tempo, 1200000
1, 23665, Tempo, 1132075
1, 23821, Tempo, 1153846
1, 23925, Tempo, 1176471
1, 24145, Tempo, 1276596
1, 24249, Tempo, 1304348
1, 24301, Tempo, 1333333
1, 24405, Tempo, 1363636
1, 24457, Tempo, 1395349
1, 24625, Tempo, 1428571
1, 24677, Tempo, 1500000
1, 24729, Tempo, 1578947
1, 24781, Tempo, 1666667
1, 24833, Tempo, 1818182
1, 24897, Tempo, 1071429
1, 44934, Tempo, 1016949
1, 45038, Tempo, 1034483
1, 45090, Tempo, 1052632
1, 45142, Tempo, 1071429
1, 45194, Tempo, 1090909
1, 45246, Tempo, 1111111
1, 45298, Tempo, 1132075
1, 45350, Tempo, 1153846
1, 45402, Tempo, 1176471
1, 45454, Tempo, 1200000
1, 45506, Tempo, 1224490
1, 45558, Tempo, 1250000
1, 46054, Tempo, 1071429
1, 46210, Tempo, 1090909
1, 46314, Tempo, 1111111
1, 46418, Tempo, 1132075
1, 46522, Tempo, 1153846
1, 46626, Tempo, 1176471
1, 46730, Tempo, 1200000
1, 46834, Tempo, 1224490
1, 46938, Tempo, 1250000
1, 47042, Tempo, 1276596
1, 47146, Tempo, 1304348
1, 47171, Tempo, 1428571
1, 47223, Tempo, 1500000
1, 47275, Tempo, 1578947
1, 47327, Tempo, 1666667
1, 47379, Tempo, 1764706
1, 47431, Tempo, 1875000
1, 47907, Tempo, 1132075
1, 47915, Tempo, 1071429
1, 47967, Tempo, 1016949
1, 67985, Tempo, 1016949
1, 68089, Tempo, 1034483
1, 68141, Tempo, 1052632
1, 68193, Tempo, 1071429
1, 68245, Tempo, 1090909
1, 68297, Tempo, 1111111
1, 68349, Tempo, 1132075
1, 68401, Tempo, 1153846
1, 68453, Tempo, 1176471
1, 68505, Tempo, 1200000
1, 68557, Tempo, 1224490
1, 68609, Tempo, 1250000
1, 69145, Tempo, 1016949
1, 69249, Tempo, 1034483
1, 69301, Tempo, 1052632
1, 69353, Tempo, 1071429
1, 69457, Tempo, 1090909
1, 69509, Tempo, 1111111
1, 69561, Tempo, 1132075
1, 69665, Tempo, 1153846
1, 69717, Tempo, 1176471
1, 69769, Tempo, 1200000
1, 69873, Tempo, 1224490
1, 69925, Tempo, 1250000
1, 69977, Tempo, 1276596
1, 70081, Tempo, 1304348
1, 70133, Tempo, 1333333
1, 70185, Tempo, 1363636
1, 70289, Tempo, 1395349
1, 70341, Tempo, 1428571
1, 70393, Tempo, 1463415
1, 70497, Tempo, 1500000
1, 70905, Tempo, 1200000
1, 70957, Tempo, 1132075
1, 71009, Tempo, 1071429
1, 91119, Tempo, 1200000
1, 91131, Tempo, 1132075
1, 91287, Tempo, 1153846
1, 91391, Tempo, 1176471
1, 91495, Tempo, 1200000
1, 91599, Tempo, 1224490
1, 91703, Tempo, 1250000
1, 92159, Tempo, 1071429
1, 92263, Tempo, 1090909
1, 92315, Tempo, 1111111
1, 92367, Tempo, 1132075
1, 92419, Tempo, 1153846
1, 92471, Tempo, 1176471
1, 92523, Tempo, 1200000
1, 92575, Tempo, 1224490
1, 92627, Tempo, 1250000
1, 92679, Tempo, 1276596
1, 92731, Tempo, 1304348
1, 92783, Tempo, 1333333
1, 92835, Tempo, 1363636
1, 92887, Tempo, 1395349
1, 92939, Tempo, 1428571
1, 92991, Tempo, 1463415
1, 93095, Tempo, 1500000
1, 93147, Tempo, 1538462
1, 93199, Tempo, 1578947
1, 93251, Tempo, 1621622
1, 93303, Tempo, 1666667
1, 93355, Tempo, 1714286
1, 93407, Tempo, 1764706
1, 93459, Tempo, 1818182
1, 93511, Tempo, 1875000
1, 93563, Tempo, 1935484
1, 93659, Tempo, 3157895
1, 93659, End_track
2, 0, Start_track
2, 0, Title_t, "Piano 1"
2, 0, Program_c, 0, 6
2, 0, Control_c, 0, 7, 115
2, 0, Control_c, 0, 10, 80
2, 0, Control_c, 0, 91, 127
2, 0, Control_c, 0, 121, 127
2, 1802, Note_on_c, 0, 70, 101
2, 1878, Note_on_c, 0, 70, 0
2, 1930, Note_on_c, 0, 67, 101
2, 1931, Note_on_c, 0, 70, 101
2, 2048, Control_c, 0, 64, 127
2, 2268, Control_c, 0, 64, 0
2, 2277, Note_on_c, 0, 67, 0
2, 2516, Note_on_c, 0, 70, 0
2, 2519, Note_on_c, 0, 79, 101
2, 2632, Note_on_c, 0, 79, 0
2, 2633, Note_on_c, 0, 78, 101
2, 2752, Note_on_c, 0, 79, 101
2, 2763, Note_on_c, 0, 78, 0
2, 2871, Note_on_c, 0, 79, 0
2, 2878, Note_on_c, 0, 69, 101
2, 2878, Note_on_c, 0, 72, 101
2, 2914, Control_c, 0, 64, 127
2, 2989, Control_c, 0, 64, 0
2, 3114, Note_on_c, 0, 69, 0
2, 3478, Note_on_c, 0, 81, 101
2, 3534, Note_on_c, 0, 72, 0
2, 3589, Note_on_c, 0, 81, 0
2, 3589, Note_on_c, 0, 79, 101
2, 3709, Note_on_c, 0, 81, 101
2, 3757, Note_on_c, 0, 79, 0
2, 3824, Note_on_c, 0, 81, 0
2, 3829, Note_on_c, 0, 74, 101
2, 3869, Control_c, 0, 64, 127
2, 3958, Note_on_c, 0, 67, 101
2, 4001, Note_on_c, 0, 74, 0
2, 4073, Note_on_c, 0, 70, 101
2, 4075, Note_on_c, 0, 67, 0
2, 4178, Control_c, 0, 64, 0
2, 4191, Note_on_c, 0, 74, 101
2, 4201, Note_on_c, 0, 70, 0
2, 4318, Note_on_c, 0, 79, 101
2, 4322, Note_on_c, 0, 74, 0
2, 4438, Note_on_c, 0, 82, 101
2, 4445, Note_on_c, 0, 79, 0
2, 4559, Note_on_c, 0, 81, 101
2, 4629, Note_on_c, 0, 82, 0
2, 4673, Note_on_c, 0, 79, 101
2, 4680, Note_on_c, 0, 81, 0
2, 4788, Control_c, 0, 64, 127
2, 4798, Note_on_c, 0, 78, 100
2, 4805, Note_on_c, 0, 79, 0
2, 4921, Note_on_c, 0, 79, 98
2, 4929, Note_on_c, 0, 78, 0
2, 4943, Control_c, 0, 64, 0
2, 5042, Note_on_c, 0, 81, 96
2, 5050, Note_on_c, 0, 79, 0
2, 5161, Note_on_c, 0, 75, 94
2, 5164, Note_on_c, 0, 81, 0
2, 5281, Note_on_c, 0, 74, 92
2, 5285, Note_on_c, 0, 75, 0
2, 5399, Note_on_c, 0, 72, 90
2, 5400, Note_on_c, 0, 74, 0
2, 5521, Note_on_c, 0, 70, 88
2, 5532, Note_on_c, 0, 72, 0
2, 5638, Note_on_c, 0, 70, 0
2, 5639, Note_on_c, 0, 69, 86
2, 5762, Note_on_c, 0, 70, 82
2, 5774, Note_on_c, 0, 69, 0
2, 5803, Control_c, 0, 64, 127
2, 5882, Note_on_c, 0, 67, 82
2, 5962, Control_c, 0, 64, 0
2, 5975, Note_on_c, 0, 67, 0
2, 6309, Note_on_c, 0, 70, 0
2, 6359, Note_on_c, 0, 70, 82
2, 6479, Note_on_c, 0, 72, 82
2, 6489, Note_on_c, 0, 70, 0
2, 6601, Note_on_c, 0, 75, 82
2, 6653, Note_on_c, 0, 72, 0
2, 6716, Note_on_c, 0, 75, 0
2, 6719, Note_on_c, 0, 69, 82
2, 6785, Control_c, 0, 64, 127
2, 6841, Note_on_c, 0, 65, 82
2, 6927, Note_on_c, 0, 65, 0
2, 7064, Control_c, 0, 64, 0
2, 7276, Note_on_c, 0, 69, 0
2, 7319, Note_on_c, 0, 69, 81
2, 7439, Note_on_c, 0, 70, 81
2, 7448, Note_on_c, 0, 69, 0
2, 7559, Note_on_c, 0, 74, 81
2, 7563, Note_on_c, 0, 70, 0
2, 7675, Note_on_c, 0, 74, 0
2, 7679, Note_on_c, 0, 67, 81
2, 7801, Note_on_c, 0, 63, 81
2, 7819, Control_c, 0, 64, 127
2, 7876, Note_on_c, 0, 63, 0
2, 8051, Control_c, 0, 64, 0
2, 8223, Note_on_c, 0, 67, 0
2, 8279, Note_on_c, 0, 67, 81
2, 8401, Note_on_c, 0, 69, 81
2, 8410, Note_on_c, 0, 67, 0
2, 8519, Note_on_c, 0, 72, 80
2, 8522, Note_on_c, 0, 69, 0
2, 8639, Note_on_c, 0, 66, 80
2, 8647, Note_on_c, 0, 72, 0
2, 8759, Note_on_c, 0, 69, 80
2, 8765, Note_on_c, 0, 66, 0
2, 8881, Note_on_c, 0, 72, 80
2, 8929, Note_on_c, 0, 69, 0
2, 8999, Note_on_c, 0, 74, 80
2, 9006, Note_on_c, 0, 72, 0
2, 9116, Note_on_c, 0, 74, 0
2, 9119, Note_on_c, 0, 67, 80
2, 9241, Note_on_c, 0, 70, 80
2, 9246, Note_on_c, 0, 67, 0
2, 9359, Note_on_c, 0, 74, 80
2, 9362, Note_on_c, 0, 70, 0
2, 9479, Note_on_c, 0, 75, 80
2, 9483, Note_on_c, 0, 74, 0
2, 9598, Note_on_c, 0, 75, 0
2, 9599, Note_on_c, 0, 69, 80
2, 9718, Note_on_c, 0, 72, 80
2, 9724, Note_on_c, 0, 69, 0
2, 9835, Note_on_c, 0, 72, 0
2, 9838, Note_on_c, 0, 74, 79
2, 9952, Note_on_c, 0, 78, 81
2, 9961, Note_on_c, 0, 74, 0
2, 10070, Note_on_c, 0, 70, 82
2, 10072, Note_on_c, 0, 78, 0
2, 10189, Note_on_c, 0, 74, 84
2, 10200, Note_on_c, 0, 70, 0
2, 10298, Note_on_c, 0, 74, 0
2, 10310, Note_on_c, 0, 78, 85
2, 10428, Note_on_c, 0, 79, 86
2, 10438, Note_on_c, 0, 78, 0
2, 10550, Note_on_c, 0, 81, 88
2, 10559, Note_on_c, 0, 79, 0
2, 10595, Control_c, 0, 64, 127
2, 10670, Note_on_c, 0, 79, 89
2, 10682, Note_on_c, 0, 81, 0
2, 10791, Note_on_c, 0, 78, 91
2, 10803, Note_on_c, 0, 79, 0
2, 10879, Control_c, 0, 64, 0
2, 10910, Note_on_c, 0, 76, 92
2, 10920, Note_on_c, 0, 78, 0
2, 11030, Note_on_c, 0, 74, 94
2, 11034, Note_on_c, 0, 76, 0
2, 11150, Note_on_c, 0, 75, 95
2, 11157, Note_on_c, 0, 74, 0
2, 11278, Note_on_c, 0, 75, 0
2, 11278, Note_on_c, 0, 77, 97
2, 11335, Note_on_c, 0, 75, 97
2, 11340, Note_on_c, 0, 77, 0
2, 11397, Note_on_c, 0, 75, 0
2, 11398, Note_on_c, 0, 74, 98
2, 11456, Note_on_c, 0, 75, 99
2, 11460, Note_on_c, 0, 74, 0
2, 11518, Note_on_c, 0, 75, 0
2, 11519, Note_on_c, 0, 71, 99
2, 11519, Note_on_c, 0, 74, 99
2, 11519, Note_on_c, 0, 77, 99
2, 11547, Control_c, 0, 64, 127
2, 11821, Control_c, 0, 64, 0
2, 11999, Note_on_c, 0, 74, 0
2, 12119, Note_on_c, 0, 71, 0
2, 12121, Note_on_c, 0, 72, 100
2, 12240, Note_on_c, 0, 72, 0
2, 12241, Note_on_c, 0, 74, 100
2, 12303, Note_on_c, 0, 72, 100
2, 12305, Note_on_c, 0, 74, 0
2, 12361, Note_on_c, 0, 71, 101
2, 12363, Note_on_c, 0, 72, 0
2, 12427, Note_on_c, 0, 72, 101
2, 12429, Note_on_c, 0, 71, 0
2, 12477, Note_on_c, 0, 74, 101
2, 12535, Note_on_c, 0, 72, 0
2, 12596, Note_on_c, 0, 74, 0
2, 12597, Note_on_c, 0, 75, 101
2, 12667, Note_on_c, 0, 77, 0
2, 12725, Note_on_c, 0, 75, 0
2, 12727, Note_on_c, 0, 77, 101
2, 12790, Note_on_c, 0, 75, 102
2, 12793, Note_on_c, 0, 77, 0
2, 12848, Note_on_c, 0, 74, 102
2, 12850, Note_on_c, 0, 75, 0
2, 12910, Note_on_c, 0, 75, 102
2, 12911, Note_on_c, 0, 74, 0
2, 12963, Note_on_c, 0, 77, 102
2, 12967, Note_on_c, 0, 75, 0
2, 13077, Note_on_c, 0, 80, 102
2, 13082, Note_on_c, 0, 77, 0
2, 13193, Note_on_c, 0, 80, 0
2, 13193, Note_on_c, 0, 79, 103
2, 13305, Note_on_c, 0, 77, 103
2, 13309, Note_on_c, 0, 79, 0
2, 13421, Note_on_c, 0, 77, 0
2, 13441, Note_on_c, 0, 75, 103
2, 13476, Control_c, 0, 64, 127
2, 13561, Note_on_c, 0, 72, 104
2, 13563, Note_on_c, 0, 75, 0
2, 13663, Control_c, 0, 64, 0
2, 13679, Note_on_c, 0, 75, 102
2, 13681, Note_on_c, 0, 72, 0
2, 13799, Note_on_c, 0, 79, 100
2, 13801, Note_on_c, 0, 75, 0
2, 13919, Note_on_c, 0, 84, 99
2, 13921, Note_on_c, 0, 79, 0
2, 14038, Note_on_c, 0, 82, 97
2, 14047, Note_on_c, 0, 84, 0
2, 14158, Note_on_c, 0, 81, 95
2, 14170, Note_on_c, 0, 82, 0
2, 14275, Note_on_c, 0, 81, 0
2, 14278, Note_on_c, 0, 79, 93
2, 14387, Note_on_c, 0, 79, 0
2, 14392, Note_on_c, 0, 78, 91
2, 14519, Note_on_c, 0, 78, 0
2, 14519, Note_on_c, 0, 79, 89
2, 14577, Control_c, 0, 64, 127
2, 14638, Note_on_c, 0, 81, 87
2, 14642, Note_on_c, 0, 79, 0
2, 14679, Control_c, 0, 64, 0
2, 14753, Note_on_c, 0, 75, 85
2, 14760, Note_on_c, 0, 81, 0
2, 14841, Control_c, 0, 64, 127
2, 14879, Note_on_c, 0, 74, 84
2, 14880, Note_on_c, 0, 75, 0
2, 14961, Control_c, 0, 64, 0
2, 15001, Note_on_c, 0, 72, 82
2, 15014, Note_on_c, 0, 74, 0
2, 15087, Control_c, 0, 64, 127
2, 15119, Note_on_c, 0, 70, 80
2, 15121, Note_on_c, 0, 72, 0
2, 15193, Control_c, 0, 64, 0
2, 15232, Note_on_c, 0, 69, 78
2, 15234, Note_on_c, 0, 70, 0
2, 15313, Control_c, 0, 64, 127
2, 15359, Note_on_c, 0, 70, 76
2, 15365, Note_on_c, 0, 69, 0
2, 15506, Control_c, 0, 64, 0
2, 15597, Control_c, 0, 64, 127
2, 15599, Note_on_c, 0, 58, 73
2, 15719, Note_on_c, 0, 62, 73
2, 15721, Note_on_c, 0, 58, 0
2, 15837, Control_c, 0, 64, 0
2, 15838, Note_on_c, 0, 62, 0
2, 15839, Note_on_c, 0, 67, 73
2, 15938, Control_c, 0, 64, 127
2, 15959, Note_on_c, 0, 67, 0
2, 15959, Note_on_c, 0, 65, 73
2, 16079, Note_on_c, 0, 63, 73
2, 16082, Note_on_c, 0, 65, 0
2, 16198, Note_on_c, 0, 63, 0
2, 16199, Note_on_c, 0, 62, 73
2, 16299, Control_c, 0, 64, 0
2, 16313, Note_on_c, 0, 62, 0
2, 16313, Note_on_c, 0, 70, 0
2, 16317, Note_on_c, 0, 61, 73
2, 16317, Note_on_c, 0, 69, 73
2, 16437, Note_on_c, 0, 61, 0
2, 16437, Note_on_c, 0, 62, 73
2, 16563, Note_on_c, 0, 64, 73
2, 16566, Note_on_c, 0, 62, 0
2, 16652, Note_on_c, 0, 64, 0
2, 16673, Note_on_c, 0, 58, 73
2, 16797, Note_on_c, 0, 58, 0
2, 16797, Note_on_c, 0, 57, 73
2, 16924, Note_on_c, 0, 57, 0
2, 17283, Control_c, 0, 64, 127
2, 17402, Note_on_c, 0, 62, 74
2, 17482, Control_c, 0, 64, 0
2, 17519, Note_on_c, 0, 62, 0
2, 17521, Note_on_c, 0, 65, 75
2, 17524, Note_on_c, 0, 69, 0
2, 17636, Note_on_c, 0, 65, 0
2, 17639, Note_on_c, 0, 69, 76
2, 17761, Note_on_c, 0, 74, 78
2, 17766, Note_on_c, 0, 69, 0
2, 17881, Note_on_c, 0, 77, 79
2, 17882, Note_on_c, 0, 74, 0
2, 17998, Note_on_c, 0, 76, 80
2, 18001, Note_on_c, 0, 77, 0
2, 18118, Note_on_c, 0, 74, 82
2, 18124, Note_on_c, 0, 76, 0
2, 18232, Note_on_c, 0, 73, 83
2, 18241, Note_on_c, 0, 74, 0
2, 18359, Note_on_c, 0, 74, 84
2, 18372, Note_on_c, 0, 73, 0
2, 18479, Note_on_c, 0, 76, 84
2, 18487, Note_on_c, 0, 74, 0
2, 18591, Note_on_c, 0, 76, 0
2, 18591, Note_on_c, 0, 70, 83
2, 18712, Note_on_c, 0, 69, 81
2, 18720, Note_on_c, 0, 70, 0
2, 18831, Note_on_c, 0, 67, 80
2, 18837, Note_on_c, 0, 69, 0
2, 18952, Note_on_c, 0, 65, 78
2, 18961, Note_on_c, 0, 67, 0
2, 19069, Note_on_c, 0, 64, 76
2, 19072, Note_on_c, 0, 65, 0
2, 19191, Note_on_c, 0, 66, 75
2, 19203, Note_on_c, 0, 64, 0
2, 19257, Control_c, 0, 64, 127
2, 19319, Note_on_c, 0, 67, 73
2, 19320, Control_c, 0, 64, 0
2, 19366, Note_on_c, 0, 66, 0
2, 19439, Note_on_c, 0, 69, 73
2, 19442, Note_on_c, 0, 67, 0
2, 19558, Note_on_c, 0, 63, 73
2, 19569, Note_on_c, 0, 69, 0
2, 19680, Note_on_c, 0, 62, 73
2, 19691, Note_on_c, 0, 63, 0
2, 19714, Control_c, 0, 64, 127
2, 19798, Note_on_c, 0, 60, 73
2, 19799, Note_on_c, 0, 62, 0
2, 19826, Control_c, 0, 64, 0
2, 19919, Note_on_c, 0, 58, 73
2, 19931, Note_on_c, 0, 60, 0
2, 20031, Note_on_c, 0, 57, 73
2, 20035, Note_on_c, 0, 58, 0
2, 20158, Note_on_c, 0, 58, 73
2, 20195, Control_c, 0, 64, 127
2, 20206, Note_on_c, 0, 57, 0
2, 20210, Control_c, 0, 64, 0
2, 20278, Note_on_c, 0, 60, 73
2, 20322, Note_on_c, 0, 58, 0
2, 20398, Note_on_c, 0, 62, 73
2, 20404, Note_on_c, 0, 60, 0
2, 20518, Note_on_c, 0, 56, 73
2, 20531, Note_on_c, 0, 62, 0
2, 20627, Control_c, 0, 64, 127
2, 20641, Note_on_c, 0, 55, 73
2, 20654, Note_on_c, 0, 56, 0
2, 20715, Control_c, 0, 64, 0
2, 20759, Note_on_c, 0, 53, 73
2, 20762, Note_on_c, 0, 55, 0
2, 20879, Note_on_c, 0, 51, 73
2, 20923, Note_on_c, 0, 53, 0
2, 20991, Note_on_c, 0, 50, 73
2, 20994, Note_on_c, 0, 51, 0
2, 21112, Note_on_c, 0, 49, 73
2, 21121, Note_on_c, 0, 50, 0
2, 21123, Control_c, 0, 64, 127
2, 21238, Note_on_c, 0, 50, 73
2, 21283, Note_on_c, 0, 49, 0
2, 21337, Control_c, 0, 64, 0
2, 21358, Note_on_c, 0, 52, 73
2, 21366, Note_on_c, 0, 50, 0
2, 21479, Note_on_c, 0, 46, 73
2, 21489, Note_on_c, 0, 52, 0
2, 21600, Note_on_c, 0, 45, 73
2, 21648, Note_on_c, 0, 46, 0
2, 21694, Note_on_c, 0, 45, 0
2, 21841, Note_on_c, 0, 73, 73
2, 22074, Note_on_c, 0, 73, 0
2, 22079, Note_on_c, 0, 74, 76
2, 22090, Control_c, 0, 64, 127
2, 22184, Control_c, 0, 64, 0
2, 22198, Note_on_c, 0, 76, 78
2, 22319, Note_on_c, 0, 77, 80
2, 22376, Note_on_c, 0, 76, 0
2, 22432, Note_on_c, 0, 82, 82
2, 22476, Note_on_c, 0, 77, 0
2, 22548, Note_on_c, 0, 73, 84
2, 22549, Note_on_c, 0, 77, 84
2, 22559, Note_on_c, 0, 74, 0
2, 22561, Note_on_c, 0, 82, 0
2, 22594, Note_on_c, 0, 76, 85
2, 22604, Note_on_c, 0, 77, 0
2, 22605, Control_c, 0, 64, 127
2, 22639, Control_c, 0, 64, 0
2, 22641, Note_on_c, 0, 77, 85
2, 22643, Note_on_c, 0, 76, 0
2, 22672, Note_on_c, 0, 77, 0
2, 22686, Note_on_c, 0, 76, 86
2, 22720, Note_on_c, 0, 76, 0
2, 22722, Note_on_c, 0, 77, 87
2, 22773, Note_on_c, 0, 77, 0
2, 22784, Note_on_c, 0, 76, 88
2, 22868, Note_on_c, 0, 73, 0
2, 22885, Note_on_c, 0, 76, 0
2, 22914, Note_on_c, 0, 74, 90
2, 23015, Note_on_c, 0, 74, 0
2, 23016, Control_c, 0, 64, 127
2, 23039, Note_on_c, 0, 74, 92
2, 23161, Note_on_c, 0, 72, 92
2, 23275, Control_c, 0, 64, 0
2, 23279, Note_on_c, 0, 70, 91
2, 23281, Note_on_c, 0, 72, 0
2, 23397, Note_on_c, 0, 70, 0
2, 23398, Note_on_c, 0, 69, 90
2, 23519, Note_on_c, 0, 67, 88
2, 23520, Note_on_c, 0, 69, 0
2, 23638, Note_on_c, 0, 69, 87
2, 23643, Note_on_c, 0, 67, 0
2, 23761, Note_on_c, 0, 70, 85
2, 23766, Note_on_c, 0, 69, 0
2, 23999, Note_on_c, 0, 74, 0
2, 24006, Note_on_c, 0, 69, 83
2, 24007, Note_on_c, 0, 74, 83
2, 24012, Note_on_c, 0, 66, 82
2, 24020, Control_c, 0, 64, 127
2, 24031, Note_on_c, 0, 70, 0
2, 24121, Control_c, 0, 64, 0
2, 24182, Control_c, 0, 64, 127
2, 24369, Control_c, 0, 64, 0
2, 24429, Control_c, 0, 64, 127
2, 24728, Note_on_c, 0, 74, 0
2, 24733, Note_on_c, 0, 66, 0
2, 24754, Note_on_c, 0, 69, 0
2, 24846, Note_on_c, 0, 70, 71
2, 24847, Control_c, 0, 64, 0
2, 24922, Note_on_c, 0, 70, 0
2, 24968, Note_on_c, 0, 67, 71
2, 24969, Note_on_c, 0, 70, 71
2, 25315, Note_on_c, 0, 67, 0
2, 25554, Note_on_c, 0, 70, 0
2, 25565, Note_on_c, 0, 79, 71
2, 25678, Note_on_c, 0, 79, 0
2, 25683, Note_on_c, 0, 78, 71
2, 25803, Note_on_c, 0, 79, 71
2, 25813, Note_on_c, 0, 78, 0
2, 25922, Note_on_c, 0, 79, 0
2, 25925, Note_on_c, 0, 69, 71
2, 25925, Note_on_c, 0, 72, 71
2, 25961, Control_c, 0, 64, 127
2, 26042, Control_c, 0, 64, 0
2, 26161, Note_on_c, 0, 69, 0
2, 26525, Note_on_c, 0, 81, 71
2, 26581, Note_on_c, 0, 72, 0
2, 26636, Note_on_c, 0, 81, 0
2, 26642, Note_on_c, 0, 79, 71
2, 26762, Note_on_c, 0, 81, 71
2, 26810, Note_on_c, 0, 79, 0
2, 26877, Note_on_c, 0, 81, 0
2, 26882, Note_on_c, 0, 74, 71
2, 27005, Note_on_c, 0, 67, 71
2, 27054, Note_on_c, 0, 74, 0
2, 27122, Note_on_c, 0, 67, 0
2, 27123, Note_on_c, 0, 70, 71
2, 27243, Note_on_c, 0, 74, 71
2, 27251, Note_on_c, 0, 70, 0
2, 27365, Note_on_c, 0, 79, 71
2, 27374, Note_on_c, 0, 74, 0
2, 27485, Note_on_c, 0, 82, 71
2, 27492, Note_on_c, 0, 79, 0
2, 27605, Note_on_c, 0, 81, 71
2, 27676, Note_on_c, 0, 82, 0
2, 27723, Note_on_c, 0, 79, 71
2, 27726, Note_on_c, 0, 81, 0
2, 27845, Note_on_c, 0, 78, 72
2, 27855, Note_on_c, 0, 79, 0
2, 27865, Control_c, 0, 64, 127
2, 27946, Note_on_c, 0, 50, 51
2, 27966, Note_on_c, 0, 79, 71
2, 27976, Note_on_c, 0, 78, 0
2, 28067, Control_c, 0, 64, 0
2, 28086, Note_on_c, 0, 81, 71
2, 28095, Note_on_c, 0, 79, 0
2, 28167, Note_on_c, 0, 50, 0
2, 28206, Note_on_c, 0, 75, 70
2, 28208, Note_on_c, 0, 81, 0
2, 28326, Note_on_c, 0, 74, 69
2, 28330, Note_on_c, 0, 75, 0
2, 28445, Note_on_c, 0, 74, 0
2, 28445, Note_on_c, 0, 72, 69
2, 28566, Note_on_c, 0, 70, 68
2, 28578, Note_on_c, 0, 72, 0
2, 28683, Note_on_c, 0, 70, 0
2, 28685, Note_on_c, 0, 69, 67
2, 28806, Note_on_c, 0, 70, 67
2, 28820, Note_on_c, 0, 69, 0
2, 28926, Note_on_c, 0, 67, 66
2, 29019, Note_on_c, 0, 67, 0
2, 29353, Note_on_c, 0, 70, 0
2, 29405, Note_on_c, 0, 70, 66
2, 29525, Note_on_c, 0, 72, 66
2, 29535, Note_on_c, 0, 70, 0
2, 29646, Note_on_c, 0, 75, 66
2, 29699, Note_on_c, 0, 72, 0
2, 29761, Note_on_c, 0, 75, 0
2, 29765, Note_on_c, 0, 69, 66
2, 29859, Control_c, 0, 64, 127
2, 29886, Note_on_c, 0, 65, 66
2, 29917, Control_c, 0, 64, 0
2, 29972, Note_on_c, 0, 65, 0
2, 30322, Note_on_c, 0, 69, 0
2, 30365, Note_on_c, 0, 69, 66
2, 30485, Note_on_c, 0, 70, 66
2, 30494, Note_on_c, 0, 69, 0
2, 30605, Note_on_c, 0, 74, 66
2, 30609, Note_on_c, 0, 70, 0
2, 30721, Note_on_c, 0, 74, 0
2, 30725, Note_on_c, 0, 67, 66
2, 30791, Control_c, 0, 64, 127
2, 30846, Note_on_c, 0, 63, 66
2, 30921, Note_on_c, 0, 63, 0
2, 30926, Control_c, 0, 64, 0
2, 31269, Note_on_c, 0, 67, 0
2, 31325, Note_on_c, 0, 67, 66
2, 31446, Note_on_c, 0, 69, 66
2, 31456, Note_on_c, 0, 67, 0
2, 31565, Note_on_c, 0, 72, 66
2, 31567, Note_on_c, 0, 69, 0
2, 31685, Note_on_c, 0, 66, 66
2, 31693, Note_on_c, 0, 72, 0
2, 31805, Note_on_c, 0, 69, 66
2, 31811, Note_on_c, 0, 66, 0
2, 31926, Note_on_c, 0, 72, 66
2, 31937, Control_c, 0, 64, 127
2, 31975, Note_on_c, 0, 69, 0
2, 32045, Note_on_c, 0, 74, 66
2, 32051, Note_on_c, 0, 72, 0
2, 32113, Control_c, 0, 64, 0
2, 32162, Note_on_c, 0, 74, 0
2, 32165, Note_on_c, 0, 67, 66
2, 32286, Note_on_c, 0, 70, 66
2, 32292, Note_on_c, 0, 67, 0
2, 32405, Note_on_c, 0, 74, 66
2, 32407, Note_on_c, 0, 70, 0
2, 32525, Note_on_c, 0, 75, 66
2, 32529, Note_on_c, 0, 74, 0
2, 32644, Note_on_c, 0, 75, 0
2, 32645, Note_on_c, 0, 69, 66
2, 32765, Note_on_c, 0, 72, 68
2, 32770, Note_on_c, 0, 69, 0
2, 32882, Note_on_c, 0, 72, 0
2, 32885, Note_on_c, 0, 74, 69
2, 33003, Note_on_c, 0, 78, 71
2, 33008, Note_on_c, 0, 74, 0
2, 33122, Note_on_c, 0, 70, 73
2, 33123, Note_on_c, 0, 78, 0
2, 33242, Note_on_c, 0, 74, 75
2, 33252, Note_on_c, 0, 70, 0
2, 33351, Note_on_c, 0, 74, 0
2, 33362, Note_on_c, 0, 78, 77
2, 33482, Note_on_c, 0, 79, 79
2, 33490, Note_on_c, 0, 78, 0
2, 33602, Note_on_c, 0, 81, 81
2, 33613, Note_on_c, 0, 79, 0
2, 33659, Control_c, 0, 64, 127
2, 33722, Note_on_c, 0, 79, 83
2, 33734, Note_on_c, 0, 81, 0
2, 33843, Note_on_c, 0, 78, 85
2, 33855, Note_on_c, 0, 79, 0
2, 33962, Note_on_c, 0, 76, 86
2, 33972, Note_on_c, 0, 78, 0
2, 34047, Control_c, 0, 64, 0
2, 34082, Note_on_c, 0, 74, 87
2, 34086, Note_on_c, 0, 76, 0
2, 34202, Note_on_c, 0, 75, 88
2, 34209, Note_on_c, 0, 74, 0
2, 34325, Note_on_c, 0, 77, 88
2, 34330, Note_on_c, 0, 75, 0
2, 34387, Note_on_c, 0, 77, 0
2, 34391, Note_on_c, 0, 75, 89
2, 34445, Note_on_c, 0, 74, 89
2, 34453, Note_on_c, 0, 75, 0
2, 34507, Note_on_c, 0, 74, 0
2, 34512, Note_on_c, 0, 75, 90
2, 34565, Note_on_c, 0, 71, 90
2, 34565, Note_on_c, 0, 74, 90
2, 34565, Note_on_c, 0, 77, 90
2, 34574, Note_on_c, 0, 75, 0
2, 35045, Note_on_c, 0, 74, 0
2, 35165, Note_on_c, 0, 71, 0
2, 35166, Note_on_c, 0, 72, 94
2, 35285, Note_on_c, 0, 72, 0
2, 35286, Note_on_c, 0, 74, 96
2, 35339, Note_on_c, 0, 72, 95
2, 35350, Note_on_c, 0, 74, 0
2, 35399, Note_on_c, 0, 72, 0
2, 35406, Note_on_c, 0, 71, 94
2, 35460, Note_on_c, 0, 72, 93
2, 35474, Note_on_c, 0, 71, 0
2, 35524, Note_on_c, 0, 74, 92
2, 35568, Note_on_c, 0, 72, 0
2, 35643, Note_on_c, 0, 74, 0
2, 35644, Note_on_c, 0, 75, 90
2, 35713, Note_on_c, 0, 77, 0
2, 35767, Note_on_c, 0, 77, 88
2, 35772, Note_on_c, 0, 75, 0
2, 35833, Note_on_c, 0, 77, 0
2, 35837, Note_on_c, 0, 75, 87
2, 35888, Note_on_c, 0, 74, 86
2, 35897, Note_on_c, 0, 75, 0
2, 35941, Note_on_c, 0, 75, 85
2, 35951, Note_on_c, 0, 74, 0
2, 35998, Note_on_c, 0, 75, 0
2, 36006, Note_on_c, 0, 77, 84
2, 36124, Note_on_c, 0, 80, 82
2, 36125, Note_on_c, 0, 77, 0
2, 36240, Note_on_c, 0, 80, 0
2, 36243, Note_on_c, 0, 79, 80
2, 36359, Note_on_c, 0, 79, 0
2, 36361, Note_on_c, 0, 77, 78
2, 36477, Note_on_c, 0, 77, 0
2, 36486, Note_on_c, 0, 75, 75
2, 36524, Control_c, 0, 64, 127
2, 36606, Note_on_c, 0, 72, 75
2, 36608, Note_on_c, 0, 75, 0
2, 36725, Note_on_c, 0, 75, 75
2, 36726, Note_on_c, 0, 72, 0
2, 36812, Control_c, 0, 64, 0
2, 36845, Note_on_c, 0, 79, 75
2, 36847, Note_on_c, 0, 75, 0
2, 36965, Note_on_c, 0, 84, 75
2, 36967, Note_on_c, 0, 79, 0
2, 37085, Note_on_c, 0, 82, 75
2, 37093, Note_on_c, 0, 84, 0
2, 37205, Note_on_c, 0, 81, 75
2, 37217, Note_on_c, 0, 82, 0
2, 37322, Note_on_c, 0, 81, 0
2, 37325, Note_on_c, 0, 79, 75
2, 37434, Note_on_c, 0, 79, 0
2, 37443, Note_on_c, 0, 78, 75
2, 37565, Note_on_c, 0, 79, 75
2, 37570, Note_on_c, 0, 78, 0
2, 37685, Note_on_c, 0, 81, 75
2, 37688, Note_on_c, 0, 79, 0
2, 37727, Control_c, 0, 64, 127
2, 37782, Control_c, 0, 64, 0
2, 37803, Note_on_c, 0, 75, 75
2, 37807, Note_on_c, 0, 81, 0
2, 37925, Note_on_c, 0, 74, 75
2, 37926, Control_c, 0, 64, 127
2, 37930, Note_on_c, 0, 75, 0
2, 38042, Control_c, 0, 64, 0
2, 38046, Note_on_c, 0, 72, 75
2, 38060, Note_on_c, 0, 74, 0
2, 38165, Note_on_c, 0, 70, 75
2, 38166, Note_on_c, 0, 72, 0
2, 38168, Control_c, 0, 64, 127
2, 38280, Note_on_c, 0, 70, 0
2, 38283, Note_on_c, 0, 69, 75
2, 38294, Control_c, 0, 64, 0
2, 38405, Note_on_c, 0, 70, 75
2, 38416, Note_on_c, 0, 69, 0
2, 38446, Control_c, 0, 64, 127
2, 38645, Note_on_c, 0, 58, 76
2, 38667, Control_c, 0, 64, 0
2, 38765, Note_on_c, 0, 62, 79
2, 38767, Note_on_c, 0, 58, 0
2, 38884, Note_on_c, 0, 62, 0
2, 38885, Note_on_c, 0, 67, 82
2, 39005, Note_on_c, 0, 67, 0
2, 39005, Note_on_c, 0, 65, 84
2, 39125, Note_on_c, 0, 63, 85
2, 39128, Note_on_c, 0, 65, 0
2, 39244, Note_on_c, 0, 63, 0
2, 39245, Note_on_c, 0, 62, 84
2, 39359, Note_on_c, 0, 62, 0
2, 39359, Note_on_c, 0, 70, 0
2, 39364, Note_on_c, 0, 61, 82
2, 39364, Note_on_c, 0, 69, 82
2, 39484, Note_on_c, 0, 61, 0
2, 39484, Note_on_c, 0, 62, 81
2, 39606, Note_on_c, 0, 64, 80
2, 39613, Note_on_c, 0, 62, 0
2, 39695, Note_on_c, 0, 64, 0
2, 39723, Note_on_c, 0, 58, 78
2, 39844, Note_on_c, 0, 57, 77
2, 39847, Note_on_c, 0, 58, 0
2, 39971, Note_on_c, 0, 57, 0
2, 40350, Control_c, 0, 64, 127
2, 40446, Note_on_c, 0, 62, 71
2, 40563, Note_on_c, 0, 62, 0
2, 40566, Note_on_c, 0, 65, 72
2, 40571, Note_on_c, 0, 69, 0
2, 40641, Control_c, 0, 64, 0
2, 40681, Note_on_c, 0, 65, 0
2, 40685, Note_on_c, 0, 69, 72
2, 40806, Note_on_c, 0, 74, 73
2, 40812, Note_on_c, 0, 69, 0
2, 40926, Note_on_c, 0, 77, 74
2, 40927, Note_on_c, 0, 74, 0
2, 41045, Note_on_c, 0, 76, 74
2, 41046, Note_on_c, 0, 77, 0
2, 41165, Note_on_c, 0, 74, 75
2, 41171, Note_on_c, 0, 76, 0
2, 41283, Note_on_c, 0, 73, 75
2, 41288, Note_on_c, 0, 74, 0
2, 41306, Control_c, 0, 64, 127
2, 41405, Note_on_c, 0, 74, 76
2, 41423, Note_on_c, 0, 73, 0
2, 41423, Control_c, 0, 64, 0
2, 41525, Note_on_c, 0, 76, 77
2, 41533, Note_on_c, 0, 74, 0
2, 41553, Control_c, 0, 64, 127
2, 41637, Note_on_c, 0, 76, 0
2, 41643, Note_on_c, 0, 70, 78
2, 41675, Control_c, 0, 64, 0
2, 41763, Note_on_c, 0, 69, 78
2, 41772, Note_on_c, 0, 70, 0
2, 41804, Control_c, 0, 64, 127
2, 41883, Note_on_c, 0, 67, 79
2, 41888, Note_on_c, 0, 69, 0
2, 41970, Control_c, 0, 64, 0
2, 42003, Note_on_c, 0, 65, 80
2, 42013, Note_on_c, 0, 67, 0
2, 42122, Note_on_c, 0, 64, 80
2, 42123, Note_on_c, 0, 65, 0
2, 42243, Note_on_c, 0, 66, 81
2, 42256, Note_on_c, 0, 64, 0
2, 42293, Control_c, 0, 64, 127
2, 42365, Note_on_c, 0, 67, 82
2, 42418, Note_on_c, 0, 66, 0
2, 42433, Control_c, 0, 64, 0
2, 42485, Note_on_c, 0, 69, 82
2, 42488, Note_on_c, 0, 67, 0
2, 42605, Note_on_c, 0, 63, 83
2, 42615, Note_on_c, 0, 69, 0
2, 42725, Note_on_c, 0, 62, 84
2, 42731, Control_c, 0, 64, 127
2, 42738, Note_on_c, 0, 63, 0
2, 42844, Note_on_c, 0, 62, 0
2, 42845, Note_on_c, 0, 60, 84
2, 42851, Control_c, 0, 64, 0
2, 42965, Note_on_c, 0, 58, 85
2, 42978, Note_on_c, 0, 60, 0
2, 43081, Note_on_c, 0, 58, 0
2, 43083, Note_on_c, 0, 57, 86
2, 43205, Note_on_c, 0, 58, 86
2, 43242, Control_c, 0, 64, 127
2, 43258, Note_on_c, 0, 57, 0
2, 43325, Note_on_c, 0, 60, 87
2, 43350, Control_c, 0, 64, 0
2, 43369, Note_on_c, 0, 58, 0
2, 43445, Note_on_c, 0, 62, 88
2, 43451, Note_on_c, 0, 60, 0
2, 43565, Note_on_c, 0, 56, 88
2, 43578, Note_on_c, 0, 62, 0
2, 43659, Control_c, 0, 64, 127
2, 43686, Note_on_c, 0, 55, 89
2, 43701, Note_on_c, 0, 56, 0
2, 43784, Control_c, 0, 64, 0
2, 43805, Note_on_c, 0, 53, 90
2, 43807, Note_on_c, 0, 55, 0
2, 43918, Control_c, 0, 64, 127
2, 43925, Note_on_c, 0, 51, 90
2, 43969, Note_on_c, 0, 53, 0
2, 44040, Note_on_c, 0, 51, 0
2, 44043, Note_on_c, 0, 50, 91
2, 44047, Control_c, 0, 64, 0
2, 44163, Note_on_c, 0, 49, 92
2, 44165, Control_c, 0, 64, 127
2, 44173, Note_on_c, 0, 50, 0
2, 44285, Note_on_c, 0, 50, 93
2, 44334, Note_on_c, 0, 49, 0
2, 44405, Note_on_c, 0, 52, 93
2, 44413, Note_on_c, 0, 50, 0
2, 44525, Note_on_c, 0, 46, 94
2, 44536, Note_on_c, 0, 52, 0
2, 44540, Control_c, 0, 64, 0
2, 44645, Note_on_c, 0, 45, 95
2, 44694, Note_on_c, 0, 46, 0
2, 44739, Note_on_c, 0, 45, 0
2, 44886, Note_on_c, 0, 73, 97
2, 45119, Note_on_c, 0, 73, 0
2, 45125, Note_on_c, 0, 74, 99
2, 45245, Note_on_c, 0, 76, 99
2, 45365, Note_on_c, 0, 77, 100
2, 45423, Note_on_c, 0, 76, 0
2, 45483, Note_on_c, 0, 82, 101
2, 45522, Note_on_c, 0, 77, 0
2, 45602, Note_on_c, 0, 73, 102
2, 45602, Note_on_c, 0, 77, 102
2, 45605, Note_on_c, 0, 74, 0
2, 45612, Note_on_c, 0, 82, 0
2, 45650, Note_on_c, 0, 76, 102
2, 45657, Note_on_c, 0, 77, 0
2, 45697, Note_on_c, 0, 77, 103
2, 45699, Note_on_c, 0, 76, 0
2, 45728, Note_on_c, 0, 77, 0
2, 45743, Note_on_c, 0, 76, 103
2, 45777, Note_on_c, 0, 76, 0
2, 45778, Note_on_c, 0, 77, 103
2, 45829, Note_on_c, 0, 77, 0
2, 45840, Note_on_c, 0, 76, 104
2, 45922, Note_on_c, 0, 73, 0
2, 45941, Note_on_c, 0, 76, 0
2, 45963, Note_on_c, 0, 74, 104
2, 46064, Note_on_c, 0, 74, 0
2, 46085, Note_on_c, 0, 74, 105
2, 46206, Note_on_c, 0, 72, 105
2, 46227, Control_c, 0, 64, 127
2, 46325, Note_on_c, 0, 70, 103
2, 46326, Note_on_c, 0, 72, 0
2, 46443, Note_on_c, 0, 70, 0
2, 46445, Note_on_c, 0, 69, 101
2, 46482, Control_c, 0, 64, 0
2, 46565, Note_on_c, 0, 67, 99
2, 46567, Note_on_c, 0, 69, 0
2, 46685, Note_on_c, 0, 69, 97
2, 46689, Note_on_c, 0, 67, 0
2, 46806, Note_on_c, 0, 70, 95
2, 46813, Note_on_c, 0, 69, 0
2, 47045, Note_on_c, 0, 74, 0
2, 47047, Note_on_c, 0, 69, 91
2, 47047, Note_on_c, 0, 74, 91
2, 47049, Note_on_c, 0, 66, 91
2, 47076, Note_on_c, 0, 70, 0
2, 47085, Control_c, 0, 64, 127
2, 47406, Control_c, 0, 64, 0
2, 47538, Control_c, 0, 64, 127
2, 47768, Note_on_c, 0, 74, 0
2, 47770, Note_on_c, 0, 66, 0
2, 47795, Note_on_c, 0, 69, 0
2, 47826, Control_c, 0, 64, 0
2, 47882, Note_on_c, 0, 69, 96
2, 47929, Note_on_c, 0, 69, 0
2, 48005, Note_on_c, 0, 69, 96
2, 48066, Control_c, 0, 64, 127
2, 48126, Note_on_c, 0, 81, 96
2, 48127, Note_on_c, 0, 69, 0
2, 48237, Note_on_c, 0, 81, 0
2, 48243, Note_on_c, 0, 78, 96
2, 48363, Note_on_c, 0, 74, 96
2, 48369, Note_on_c, 0, 78, 0
2, 48424, Control_c, 0, 64, 0
2, 48478, Note_on_c, 0, 69, 96
2, 48482, Note_on_c, 0, 74, 0
2, 48597, Note_on_c, 0, 66, 96
2, 48600, Note_on_c, 0, 69, 0
2, 48718, Note_on_c, 0, 67, 96
2, 48723, Note_on_c, 0, 66, 0
2, 48834, Note_on_c, 0, 67, 0
2, 48837, Note_on_c, 0, 69, 96
2, 48952, Note_on_c, 0, 69, 0
2, 48954, Note_on_c, 0, 71, 96
2, 49070, Note_on_c, 0, 71, 0
2, 49073, Note_on_c, 0, 69, 96
2, 49190, Note_on_c, 0, 69, 0
2, 49193, Note_on_c, 0, 67, 96
2, 49309, Note_on_c, 0, 67, 0
2, 49310, Note_on_c, 0, 72, 96
2, 49425, Note_on_c, 0, 72, 0
2, 49428, Note_on_c, 0, 74, 96
2, 49548, Note_on_c, 0, 74, 0
2, 49550, Note_on_c, 0, 75, 96
2, 49670, Note_on_c, 0, 75, 0
2, 49684, Note_on_c, 0, 77, 96
2, 49771, Note_on_c, 0, 77, 0
2, 49796, Note_on_c, 0, 79, 96
2, 49907, Note_on_c, 0, 75, 96
2, 49909, Note_on_c, 0, 79, 0
2, 49938, Control_c, 0, 64, 127
2, 49961, Note_on_c, 0, 75, 0
2, 49965, Note_on_c, 0, 77, 96
2, 49990, Note_on_c, 0, 75, 96
2, 50019, Note_on_c, 0, 77, 0
2, 50043, Control_c, 0, 64, 0
2, 50156, Note_on_c, 0, 74, 96
2, 50170, Note_on_c, 0, 75, 0
2, 50281, Note_on_c, 0, 72, 96
2, 50283, Note_on_c, 0, 74, 0
2, 50405, Note_on_c, 0, 79, 96
2, 50406, Note_on_c, 0, 72, 0
2, 50683, Note_on_c, 0, 79, 0
2, 50760, Note_on_c, 0, 79, 96
2, 50826, Note_on_c, 0, 79, 0
2, 50885, Note_on_c, 0, 79, 96
2, 50898, Control_c, 0, 64, 127
2, 50978, Control_c, 0, 64, 0
2, 51006, Note_on_c, 0, 70, 96
2, 51014, Note_on_c, 0, 79, 0
2, 51123, Note_on_c, 0, 69, 95
2, 51124, Note_on_c, 0, 70, 0
2, 51229, Note_on_c, 0, 69, 0
2, 51238, Note_on_c, 0, 72, 93
2, 51345, Note_on_c, 0, 72, 0
2, 51353, Note_on_c, 0, 70, 91
2, 51367, Note_on_c, 0, 72, 91
2, 51411, Note_on_c, 0, 70, 0
2, 51414, Note_on_c, 0, 70, 90
2, 51416, Note_on_c, 0, 72, 0
2, 51491, Note_on_c, 0, 69, 89
2, 51502, Note_on_c, 0, 70, 0
2, 51599, Note_on_c, 0, 69, 0
2, 51605, Note_on_c, 0, 67, 87
2, 51716, Note_on_c, 0, 67, 0
2, 51718, Note_on_c, 0, 76, 85
2, 51828, Note_on_c, 0, 76, 0
2, 51839, Note_on_c, 0, 77, 83
2, 51883, Control_c, 0, 64, 127
2, 52014, Control_c, 0, 64, 0
2, 52199, Note_on_c, 0, 75, 81
2, 52206, Note_on_c, 0, 77, 0
2, 52316, Control_c, 0, 64, 127
2, 52318, Note_on_c, 0, 74, 81
2, 52330, Note_on_c, 0, 75, 0
2, 52378, Control_c, 0, 64, 0
2, 52442, Note_on_c, 0, 72, 80
2, 52444, Note_on_c, 0, 74, 0
2, 52534, Control_c, 0, 64, 127
2, 52556, Note_on_c, 0, 72, 0
2, 52557, Note_on_c, 0, 70, 80
2, 52623, Control_c, 0, 64, 0
2, 52683, Note_on_c, 0, 69, 80
2, 52690, Note_on_c, 0, 70, 0
2, 52802, Note_on_c, 0, 67, 80
2, 52803, Control_c, 0, 64, 127
2, 52805, Note_on_c, 0, 69, 0
2, 52916, Note_on_c, 0, 67, 0
2, 52919, Note_on_c, 0, 65, 79
2, 52931, Control_c, 0, 64, 0
2, 53040, Note_on_c, 0, 67, 80
2, 53043, Note_on_c, 0, 65, 0
2, 53155, Note_on_c, 0, 70, 81
2, 53161, Note_on_c, 0, 67, 0
2, 53274, Note_on_c, 0, 72, 82
2, 53279, Note_on_c, 0, 70, 0
2, 53292, Control_c, 0, 64, 127
2, 53397, Note_on_c, 0, 74, 84
2, 53401, Note_on_c, 0, 72, 0
2, 53423, Control_c, 0, 64, 0
2, 53516, Note_on_c, 0, 75, 85
2, 53520, Note_on_c, 0, 74, 0
2, 53629, Note_on_c, 0, 75, 0
2, 53634, Note_on_c, 0, 72, 86
2, 53752, Note_on_c, 0, 70, 87
2, 53754, Note_on_c, 0, 72, 0
2, 53755, Control_c, 0, 64, 127
2, 53876, Note_on_c, 0, 69, 89
2, 53889, Note_on_c, 0, 70, 0
2, 53935, Control_c, 0, 64, 0
2, 53988, Note_on_c, 0, 69, 0
2, 53992, Note_on_c, 0, 67, 90
2, 54110, Note_on_c, 0, 67, 0
2, 54112, Note_on_c, 0, 65, 91
2, 54243, Note_on_c, 0, 77, 93
2, 54249, Note_on_c, 0, 65, 0
2, 54251, Control_c, 0, 64, 127
2, 54436, Control_c, 0, 64, 0
2, 54588, Note_on_c, 0, 77, 0
2, 54596, Note_on_c, 0, 69, 96
2, 54717, Note_on_c, 0, 70, 97
2, 54726, Note_on_c, 0, 69, 0
2, 54834, Note_on_c, 0, 75, 99
2, 54835, Note_on_c, 0, 70, 0
2, 54957, Note_on_c, 0, 74, 100
2, 54964, Note_on_c, 0, 75, 0
2, 55073, Note_on_c, 0, 74, 0
2, 55077, Note_on_c, 0, 72, 101
2, 55164, Control_c, 0, 64, 127
2, 55187, Note_on_c, 0, 72, 0
2, 55194, Note_on_c, 0, 74, 102
2, 55196, Note_on_c, 0, 69, 102
2, 55227, Note_on_c, 0, 72, 103
2, 55246, Note_on_c, 0, 74, 0
2, 55270, Note_on_c, 0, 72, 0
2, 55275, Note_on_c, 0, 74, 102
2, 55316, Note_on_c, 0, 72, 102
2, 55318, Note_on_c, 0, 74, 0
2, 55335, Control_c, 0, 64, 0
2, 55512, Note_on_c, 0, 69, 0
2, 55516, Note_on_c, 0, 72, 0
2, 55553, Note_on_c, 0, 70, 98
2, 55645, Control_c, 0, 64, 127
2, 55680, Note_on_c, 0, 70, 0
2, 55684, Note_on_c, 0, 70, 95
2, 55826, Control_c, 0, 64, 0
2, 56279, Note_on_c, 0, 74, 82
2, 56331, Note_on_c, 0, 70, 0
2, 56403, Note_on_c, 0, 72, 78
2, 56406, Note_on_c, 0, 74, 0
2, 56521, Note_on_c, 0, 74, 78
2, 56525, Note_on_c, 0, 72, 0
2, 56640, Control_c, 0, 64, 127
2, 56642, Note_on_c, 0, 63, 78
2, 56697, Note_on_c, 0, 74, 0
2, 56758, Note_on_c, 0, 63, 0
2, 56759, Note_on_c, 0, 62, 78
2, 56871, Control_c, 0, 64, 0
2, 56876, Note_on_c, 0, 62, 0
2, 56878, Note_on_c, 0, 60, 78
2, 57237, Note_on_c, 0, 69, 78
2, 57245, Note_on_c, 0, 60, 0
2, 57345, Note_on_c, 0, 69, 0
2, 57350, Note_on_c, 0, 70, 78
2, 57470, Note_on_c, 0, 72, 78
2, 57475, Note_on_c, 0, 70, 0
2, 57591, Note_on_c, 0, 72, 0
2, 57593, Note_on_c, 0, 66, 78
2, 57615, Control_c, 0, 64, 127
2, 57717, Note_on_c, 0, 74, 78
2, 57729, Note_on_c, 0, 66, 0
2, 57839, Note_on_c, 0, 69, 78
2, 57841, Note_on_c, 0, 74, 0
2, 57847, Control_c, 0, 64, 0
2, 57956, Note_on_c, 0, 66, 78
2, 57968, Note_on_c, 0, 69, 0
2, 58076, Note_on_c, 0, 66, 0
2, 58079, Note_on_c, 0, 62, 78
2, 58198, Note_on_c, 0, 61, 78
2, 58202, Note_on_c, 0, 62, 0
2, 58318, Note_on_c, 0, 61, 0
2, 58319, Note_on_c, 0, 62, 78
2, 58437, Note_on_c, 0, 64, 78
2, 58441, Note_on_c, 0, 62, 0
2, 58557, Note_on_c, 0, 66, 78
2, 58560, Note_on_c, 0, 64, 0
2, 58585, Control_c, 0, 64, 127
2, 58659, Control_c, 0, 64, 0
2, 58678, Note_on_c, 0, 64, 78
2, 58681, Note_on_c, 0, 66, 0
2, 58796, Note_on_c, 0, 64, 0
2, 58799, Note_on_c, 0, 62, 78
2, 58918, Note_on_c, 0, 67, 78
2, 58921, Note_on_c, 0, 62, 0
2, 59036, Note_on_c, 0, 67, 0
2, 59039, Note_on_c, 0, 69, 78
2, 59099, Control_c, 0, 64, 127
2, 59161, Control_c, 0, 64, 0
2, 59161, Note_on_c, 0, 70, 78
2, 59165, Note_on_c, 0, 69, 0
2, 59281, Note_on_c, 0, 72, 78
2, 59284, Note_on_c, 0, 70, 0
2, 59398, Note_on_c, 0, 72, 0
2, 59398, Note_on_c, 0, 74, 78
2, 59524, Note_on_c, 0, 70, 78
2, 59531, Note_on_c, 0, 74, 0
2, 59539, Control_c, 0, 64, 127
2, 59645, Note_on_c, 0, 69, 79
2, 59652, Note_on_c, 0, 70, 0
2, 59681, Control_c, 0, 64, 0
2, 59763, Note_on_c, 0, 69, 0
2, 59763, Note_on_c, 0, 67, 81
2, 59884, Note_on_c, 0, 67, 0
2, 59885, Note_on_c, 0, 69, 83
2, 60002, Note_on_c, 0, 70, 84
2, 60005, Note_on_c, 0, 69, 0
2, 60122, Note_on_c, 0, 72, 86
2, 60124, Note_on_c, 0, 70, 0
2, 60237, Note_on_c, 0, 74, 88
2, 60238, Note_on_c, 0, 72, 0
2, 60359, Note_on_c, 0, 75, 89
2, 60365, Note_on_c, 0, 74, 0
2, 60479, Note_on_c, 0, 77, 91
2, 60487, Note_on_c, 0, 75, 0
2, 60491, Control_c, 0, 64, 127
2, 60616, Note_on_c, 0, 77, 0
2, 60712, Control_c, 0, 64, 0
2, 60721, Note_on_c, 0, 70, 94
2, 60854, Note_on_c, 0, 70, 0
2, 60959, Note_on_c, 0, 80, 98
2, 60996, Note_on_c, 0, 79, 98
2, 61005, Note_on_c, 0, 80, 0
2, 61030, Note_on_c, 0, 80, 99
2, 61040, Note_on_c, 0, 79, 0
2, 61305, Note_on_c, 0, 80, 0
2, 61325, Note_on_c, 0, 82, 100
2, 61448, Note_on_c, 0, 79, 100
2, 61449, Note_on_c, 0, 82, 0
2, 61478, Control_c, 0, 64, 127
2, 61564, Note_on_c, 0, 77, 100
2, 61591, Control_c, 0, 64, 0
2, 61680, Note_on_c, 0, 77, 0
2, 61681, Note_on_c, 0, 75, 101
2, 61803, Note_on_c, 0, 74, 101
2, 61804, Note_on_c, 0, 75, 0
2, 61895, Control_c, 0, 64, 127
2, 61919, Note_on_c, 0, 72, 102
2, 61920, Note_on_c, 0, 74, 0
2, 62034, Note_on_c, 0, 74, 102
2, 62040, Note_on_c, 0, 72, 0
2, 62045, Control_c, 0, 64, 0
2, 62149, Note_on_c, 0, 74, 0
2, 62156, Note_on_c, 0, 75, 101
2, 62274, Note_on_c, 0, 70, 101
2, 62275, Note_on_c, 0, 75, 0
2, 62393, Note_on_c, 0, 79, 0
2, 62396, Note_on_c, 0, 77, 101
2, 62397, Note_on_c, 0, 69, 101
2, 62399, Note_on_c, 0, 70, 0
2, 62430, Control_c, 0, 64, 127
2, 62453, Control_c, 0, 64, 0
2, 62879, Note_on_c, 0, 69, 0
2, 62880, Note_on_c, 0, 68, 101
2, 62907, Control_c, 0, 64, 127
2, 63003, Note_on_c, 0, 75, 101
2, 63058, Control_c, 0, 64, 0
2, 63067, Note_on_c, 0, 77, 0
2, 63125, Note_on_c, 0, 74, 101
2, 63169, Note_on_c, 0, 75, 0
2, 63238, Note_on_c, 0, 74, 0
2, 63241, Note_on_c, 0, 72, 101
2, 63377, Note_on_c, 0, 71, 101
2, 63410, Note_on_c, 0, 72, 0
2, 63419, Note_on_c, 0, 72, 101
2, 63430, Note_on_c, 0, 71, 0
2, 63441, Note_on_c, 0, 72, 0
2, 63446, Note_on_c, 0, 71, 101
2, 63467, Note_on_c, 0, 69, 101
2, 63487, Note_on_c, 0, 68, 0
2, 63595, Note_on_c, 0, 69, 0
2, 63624, Note_on_c, 0, 67, 101
2, 63766, Note_on_c, 0, 71, 0
2, 63852, Note_on_c, 0, 75, 101
2, 63906, Note_on_c, 0, 75, 0
2, 63910, Note_on_c, 0, 74, 101
2, 63927, Control_c, 0, 64, 127
2, 63957, Note_on_c, 0, 75, 101
2, 63959, Note_on_c, 0, 74, 0
2, 63963, Control_c, 0, 64, 0
2, 64150, Note_on_c, 0, 75, 0
2, 64207, Note_on_c, 0, 75, 101
2, 64278, Note_on_c, 0, 75, 0
2, 64283, Control_c, 0, 64, 127
2, 64322, Note_on_c, 0, 67, 0
2, 64327, Note_on_c, 0, 69, 98
2, 64329, Note_on_c, 0, 75, 98
2, 64401, Control_c, 0, 64, 0
2, 64449, Note_on_c, 0, 74, 96
2, 64456, Note_on_c, 0, 75, 0
2, 64559, Note_on_c, 0, 74, 0
2, 64565, Note_on_c, 0, 72, 94
2, 64674, Note_on_c, 0, 69, 0
2, 64676, Note_on_c, 0, 72, 0
2, 64677, Note_on_c, 0, 70, 92
2, 64798, Note_on_c, 0, 69, 90
2, 64806, Note_on_c, 0, 70, 0
2, 64917, Note_on_c, 0, 70, 88
2, 64925, Note_on_c, 0, 69, 0
2, 65034, Note_on_c, 0, 72, 86
2, 65039, Note_on_c, 0, 70, 0
2, 65155, Note_on_c, 0, 67, 84
2, 65167, Note_on_c, 0, 72, 0
2, 65272, Note_on_c, 0, 66, 82
2, 65273, Note_on_c, 0, 67, 0
2, 65305, Control_c, 0, 64, 127
2, 65390, Note_on_c, 0, 67, 79
2, 65393, Note_on_c, 0, 66, 0
2, 65443, Control_c, 0, 64, 0
2, 65514, Note_on_c, 0, 69, 79
2, 65519, Note_on_c, 0, 67, 0
2, 65714, Note_on_c, 0, 69, 0
2, 65751, Note_on_c, 0, 69, 79
2, 65802, Note_on_c, 0, 69, 0
2, 65805, Note_on_c, 0, 67, 79
2, 65830, Note_on_c, 0, 67, 0
2, 65834, Note_on_c, 0, 69, 79
2, 66085, Note_on_c, 0, 69, 0
2, 66118, Note_on_c, 0, 69, 79
2, 66195, Note_on_c, 0, 69, 0
2, 66243, Note_on_c, 0, 69, 79
2, 66362, Note_on_c, 0, 67, 80
2, 66364, Note_on_c, 0, 69, 0
2, 66477, Note_on_c, 0, 66, 83
2, 66480, Note_on_c, 0, 67, 0
2, 66594, Note_on_c, 0, 67, 85
2, 66598, Note_on_c, 0, 66, 0
2, 66712, Note_on_c, 0, 67, 0
2, 66713, Note_on_c, 0, 72, 87
2, 66835, Note_on_c, 0, 70, 90
2, 66948, Note_on_c, 0, 69, 92
2, 66949, Note_on_c, 0, 70, 0
2, 66955, Note_on_c, 0, 72, 0
2, 67067, Note_on_c, 0, 67, 94
2, 67068, Note_on_c, 0, 72, 94
2, 67069, Note_on_c, 0, 69, 0
2, 67131, Note_on_c, 0, 72, 0
2, 67184, Note_on_c, 0, 67, 0
2, 67191, Note_on_c, 0, 69, 97
2, 67194, Note_on_c, 0, 72, 97
2, 67761, Note_on_c, 0, 72, 0
2, 67776, Note_on_c, 0, 69, 0
2, 67926, Note_on_c, 0, 66, 111
2, 68168, Note_on_c, 0, 67, 116
2, 68172, Note_on_c, 0, 66, 0
2, 68191, Control_c, 0, 64, 127
2, 68282, Note_on_c, 0, 69, 116
2, 68294, Control_c, 0, 64, 0
2, 68329, Note_on_c, 0, 67, 0
2, 68402, Note_on_c, 0, 70, 116
2, 68404, Note_on_c, 0, 67, 116
2, 68414, Note_on_c, 0, 69, 0
2, 68521, Note_on_c, 0, 75, 117
2, 68523, Note_on_c, 0, 70, 0
2, 68589, Note_on_c, 0, 75, 0
2, 68636, Note_on_c, 0, 67, 0
2, 68637, Note_on_c, 0, 66, 117
2, 68640, Note_on_c, 0, 70, 117
2, 68650, Control_c, 0, 64, 127
2, 68676, Note_on_c, 0, 69, 118
2, 68684, Note_on_c, 0, 70, 0
2, 68708, Note_on_c, 0, 70, 118
2, 68723, Note_on_c, 0, 69, 0
2, 68740, Control_c, 0, 64, 0
2, 68752, Note_on_c, 0, 70, 0
2, 68754, Note_on_c, 0, 69, 118
2, 68962, Note_on_c, 0, 66, 0
2, 69004, Note_on_c, 0, 69, 0
2, 69005, Note_on_c, 0, 67, 119
2, 69106, Note_on_c, 0, 67, 0
2, 69109, Note_on_c, 0, 67, 119
2, 69178, Control_c, 0, 64, 127
2, 69237, Note_on_c, 0, 65, 119
2, 69356, Note_on_c, 0, 65, 0
2, 69356, Note_on_c, 0, 63, 117
2, 69437, Control_c, 0, 64, 0
2, 69478, Note_on_c, 0, 62, 114
2, 69481, Note_on_c, 0, 63, 0
2, 69599, Note_on_c, 0, 60, 111
2, 69602, Note_on_c, 0, 62, 0
2, 69719, Note_on_c, 0, 62, 109
2, 69846, Note_on_c, 0, 62, 0
2, 69851, Note_on_c, 0, 63, 106
2, 70069, Note_on_c, 0, 67, 0
2, 70079, Note_on_c, 0, 60, 0
2, 70080, Note_on_c, 0, 67, 101
2, 70080, Note_on_c, 0, 62, 101
2, 70080, Note_on_c, 0, 58, 101
2, 70082, Control_c, 0, 64, 127
2, 70091, Note_on_c, 0, 63, 0
2, 70183, Control_c, 0, 64, 0
2, 70860, Note_on_c, 0, 67, 0
2, 70860, Note_on_c, 0, 62, 0
2, 70860, Note_on_c, 0, 58, 0
2, 70922, Note_on_c, 0, 69, 96
2, 70969, Note_on_c, 0, 69, 0
2, 71045, Note_on_c, 0, 69, 96
2, 71166, Note_on_c, 0, 81, 96
2, 71167, Note_on_c, 0, 69, 0
2, 71277, Note_on_c, 0, 81, 0
2, 71283, Note_on_c, 0, 78, 96
2, 71403, Note_on_c, 0, 74, 96
2, 71409, Note_on_c, 0, 78, 0
2, 71518, Note_on_c, 0, 69, 96
2, 71522, Note_on_c, 0, 74, 0
2, 71637, Note_on_c, 0, 66, 96
2, 71640, Note_on_c, 0, 69, 0
2, 71758, Note_on_c, 0, 67, 96
2, 71763, Note_on_c, 0, 66, 0
2, 71874, Note_on_c, 0, 67, 0
2, 71877, Note_on_c, 0, 69, 96
2, 71992, Note_on_c, 0, 69, 0
2, 71994, Note_on_c, 0, 71, 96
2, 72110, Note_on_c, 0, 71, 0
2, 72113, Note_on_c, 0, 69, 96
2, 72230, Note_on_c, 0, 69, 0
2, 72233, Note_on_c, 0, 67, 96
2, 72349, Note_on_c, 0, 67, 0
2, 72350, Note_on_c, 0, 72, 96
2, 72465, Note_on_c, 0, 72, 0
2, 72468, Note_on_c, 0, 74, 96
2, 72588, Note_on_c, 0, 74, 0
2, 72590, Note_on_c, 0, 75, 96
2, 72710, Note_on_c, 0, 75, 0
2, 72724, Note_on_c, 0, 77, 96
2, 72811, Note_on_c, 0, 77, 0
2, 72836, Note_on_c, 0, 79, 96
2, 72947, Note_on_c, 0, 75, 96
2, 72949, Note_on_c, 0, 79, 0
2, 72989, Control_c, 0, 64, 127
2, 72989, Note_on_c, 0, 77, 96
2, 73001, Note_on_c, 0, 75, 0
2, 73014, Note_on_c, 0, 75, 96
2, 73043, Note_on_c, 0, 77, 0
2, 73084, Control_c, 0, 64, 0
2, 73194, Note_on_c, 0, 75, 0
2, 73196, Note_on_c, 0, 74, 96
2, 73321, Note_on_c, 0, 72, 96
2, 73323, Note_on_c, 0, 74, 0
2, 73445, Note_on_c, 0, 79, 96
2, 73446, Note_on_c, 0, 72, 0
2, 73723, Note_on_c, 0, 79, 0
2, 73800, Note_on_c, 0, 79, 96
2, 73866, Note_on_c, 0, 79, 0
2, 73925, Note_on_c, 0, 79, 96
2, 74046, Note_on_c, 0, 70, 96
2, 74054, Note_on_c, 0, 79, 0
2, 74163, Note_on_c, 0, 69, 95
2, 74164, Note_on_c, 0, 70, 0
2, 74269, Note_on_c, 0, 69, 0
2, 74278, Note_on_c, 0, 72, 93
2, 74385, Note_on_c, 0, 72, 0
2, 74393, Note_on_c, 0, 70, 91
2, 74407, Note_on_c, 0, 72, 91
2, 74451, Note_on_c, 0, 70, 0
2, 74454, Note_on_c, 0, 70, 90
2, 74456, Note_on_c, 0, 72, 0
2, 74531, Note_on_c, 0, 69, 89
2, 74542, Note_on_c, 0, 70, 0
2, 74639, Note_on_c, 0, 69, 0
2, 74645, Note_on_c, 0, 67, 87
2, 74756, Note_on_c, 0, 67, 0
2, 74758, Note_on_c, 0, 76, 85
2, 74868, Note_on_c, 0, 76, 0
2, 74879, Note_on_c, 0, 77, 83
2, 75239, Note_on_c, 0, 75, 81
2, 75246, Note_on_c, 0, 77, 0
2, 75358, Note_on_c, 0, 74, 81
2, 75370, Note_on_c, 0, 75, 0
2, 75482, Note_on_c, 0, 72, 80
2, 75484, Note_on_c, 0, 74, 0
2, 75596, Note_on_c, 0, 72, 0
2, 75597, Note_on_c, 0, 70, 80
2, 75723, Note_on_c, 0, 69, 80
2, 75730, Note_on_c, 0, 70, 0
2, 75842, Note_on_c, 0, 67, 80
2, 75845, Note_on_c, 0, 69, 0
2, 75907, Control_c, 0, 64, 127
2, 75956, Note_on_c, 0, 67, 0
2, 75959, Note_on_c, 0, 65, 79
2, 75970, Control_c, 0, 64, 0
2, 76080, Note_on_c, 0, 67, 80
2, 76083, Note_on_c, 0, 65, 0
2, 76195, Note_on_c, 0, 70, 81
2, 76201, Note_on_c, 0, 67, 0
2, 76314, Note_on_c, 0, 72, 82
2, 76319, Note_on_c, 0, 70, 0
2, 76361, Control_c, 0, 64, 127
2, 76432, Control_c, 0, 64, 0
2, 76437, Note_on_c, 0, 74, 84
2, 76441, Note_on_c, 0, 72, 0
2, 76556, Note_on_c, 0, 75, 85
2, 76560, Note_on_c, 0, 74, 0
2, 76669, Note_on_c, 0, 75, 0
2, 76674, Note_on_c, 0, 72, 86
2, 76792, Note_on_c, 0, 70, 87
2, 76794, Note_on_c, 0, 72, 0
2, 76815, Control_c, 0, 64, 127
2, 76916, Note_on_c, 0, 69, 89
2, 76929, Note_on_c, 0, 70, 0
2, 76931, Control_c, 0, 64, 0
2, 77028, Note_on_c, 0, 69, 0
2, 77032, Note_on_c, 0, 67, 90
2, 77150, Note_on_c, 0, 67, 0
2, 77152, Note_on_c, 0, 65, 91
2, 77283, Note_on_c, 0, 77, 93
2, 77289, Note_on_c, 0, 65, 0
2, 77295, Control_c, 0, 64, 127
2, 77402, Control_c, 0, 64, 0
2, 77628, Note_on_c, 0, 77, 0
2, 77636, Note_on_c, 0, 69, 96
2, 77757, Note_on_c, 0, 70, 97
2, 77766, Note_on_c, 0, 69, 0
2, 77771, Control_c, 0, 64, 127
2, 77831, Control_c, 0, 64, 0
2, 77874, Note_on_c, 0, 75, 99
2, 77875, Note_on_c, 0, 70, 0
2, 77997, Note_on_c, 0, 74, 100
2, 78004, Note_on_c, 0, 75, 0
2, 78113, Note_on_c, 0, 74, 0
2, 78117, Note_on_c, 0, 72, 101
2, 78187, Control_c, 0, 64, 127
2, 78227, Note_on_c, 0, 72, 0
2, 78236, Note_on_c, 0, 69, 102
2, 78266, Note_on_c, 0, 74, 102
2, 78299, Note_on_c, 0, 72, 103
2, 78318, Note_on_c, 0, 74, 0
2, 78342, Note_on_c, 0, 72, 0
2, 78347, Note_on_c, 0, 74, 102
2, 78355, Control_c, 0, 64, 0
2, 78388, Note_on_c, 0, 72, 102
2, 78390, Note_on_c, 0, 74, 0
2, 78552, Note_on_c, 0, 69, 0
2, 78588, Note_on_c, 0, 72, 0
2, 78593, Note_on_c, 0, 70, 98
2, 78690, Control_c, 0, 64, 127
2, 78720, Note_on_c, 0, 70, 0
2, 78724, Note_on_c, 0, 70, 95
2, 78803, Control_c, 0, 64, 0
2, 79319, Note_on_c, 0, 74, 82
2, 79371, Note_on_c, 0, 70, 0
2, 79443, Note_on_c, 0, 72, 78
2, 79446, Note_on_c, 0, 74, 0
2, 79561, Note_on_c, 0, 74, 78
2, 79565, Note_on_c, 0, 72, 0
2, 79664, Control_c, 0, 64, 127
2, 79682, Note_on_c, 0, 63, 78
2, 79737, Note_on_c, 0, 74, 0
2, 79798, Note_on_c, 0, 63, 0
2, 79799, Note_on_c, 0, 62, 78
2, 79827, Control_c, 0, 64, 0
2, 79916, Note_on_c, 0, 62, 0
2, 79918, Note_on_c, 0, 60, 78
2, 80203, Control_c, 0, 64, 127
2, 80212, Control_c, 0, 64, 0
2, 80277, Note_on_c, 0, 69, 78
2, 80285, Note_on_c, 0, 60, 0
2, 80385, Note_on_c, 0, 69, 0
2, 80390, Note_on_c, 0, 70, 78
2, 80510, Note_on_c, 0, 72, 78
2, 80515, Note_on_c, 0, 70, 0
2, 80631, Note_on_c, 0, 72, 0
2, 80633, Note_on_c, 0, 66, 78
2, 80647, Control_c, 0, 64, 127
2, 80737, Control_c, 0, 64, 0
2, 80757, Note_on_c, 0, 74, 78
2, 80769, Note_on_c, 0, 66, 0
2, 80879, Note_on_c, 0, 69, 78
2, 80881, Note_on_c, 0, 74, 0
2, 80996, Note_on_c, 0, 66, 78
2, 81008, Note_on_c, 0, 69, 0
2, 81116, Note_on_c, 0, 66, 0
2, 81119, Note_on_c, 0, 62, 78
2, 81238, Note_on_c, 0, 61, 78
2, 81242, Note_on_c, 0, 62, 0
2, 81358, Note_on_c, 0, 61, 0
2, 81359, Note_on_c, 0, 62, 78
2, 81477, Note_on_c, 0, 64, 78
2, 81481, Note_on_c, 0, 62, 0
2, 81597, Note_on_c, 0, 66, 78
2, 81600, Note_on_c, 0, 64, 0
2, 81612, Control_c, 0, 64, 127
2, 81662, Control_c, 0, 64, 0
2, 81718, Note_on_c, 0, 64, 78
2, 81721, Note_on_c, 0, 66, 0
2, 81836, Note_on_c, 0, 64, 0
2, 81839, Note_on_c, 0, 62, 78
2, 81958, Note_on_c, 0, 67, 78
2, 81961, Note_on_c, 0, 62, 0
2, 82076, Note_on_c, 0, 67, 0
2, 82079, Note_on_c, 0, 69, 78
2, 82106, Control_c, 0, 64, 127
2, 82146, Control_c, 0, 64, 0
2, 82201, Note_on_c, 0, 70, 78
2, 82205, Note_on_c, 0, 69, 0
2, 82321, Note_on_c, 0, 72, 78
2, 82324, Note_on_c, 0, 70, 0
2, 82438, Note_on_c, 0, 72, 0
2, 82438, Note_on_c, 0, 74, 78
2, 82546, Control_c, 0, 64, 127
2, 82564, Note_on_c, 0, 70, 78
2, 82571, Note_on_c, 0, 74, 0
2, 82671, Control_c, 0, 64, 0
2, 82685, Note_on_c, 0, 69, 79
2, 82692, Note_on_c, 0, 70, 0
2, 82803, Note_on_c, 0, 69, 0
2, 82803, Note_on_c, 0, 67, 81
2, 82924, Note_on_c, 0, 67, 0
2, 82925, Note_on_c, 0, 69, 83
2, 82994, Control_c, 0, 64, 127
2, 83042, Note_on_c, 0, 70, 84
2, 83045, Note_on_c, 0, 69, 0
2, 83080, Control_c, 0, 64, 0
2, 83162, Note_on_c, 0, 72, 86
2, 83164, Note_on_c, 0, 70, 0
2, 83277, Note_on_c, 0, 74, 88
2, 83278, Note_on_c, 0, 72, 0
2, 83399, Note_on_c, 0, 75, 89
2, 83405, Note_on_c, 0, 74, 0
2, 83519, Note_on_c, 0, 77, 91
2, 83527, Note_on_c, 0, 75, 0
2, 83656, Note_on_c, 0, 77, 0
2, 83761, Note_on_c, 0, 70, 94
2, 83894, Note_on_c, 0, 70, 0
2, 83999, Note_on_c, 0, 80, 98
2, 84028, Note_on_c, 0, 79, 98
2, 84045, Note_on_c, 0, 80, 0
2, 84078, Note_on_c, 0, 80, 99
2, 84115, Note_on_c, 0, 79, 0
2, 84346, Note_on_c, 0, 80, 0
2, 84365, Note_on_c, 0, 82, 100
2, 84488, Note_on_c, 0, 79, 100
2, 84489, Note_on_c, 0, 82, 0
2, 84516, Control_c, 0, 64, 127
2, 84604, Note_on_c, 0, 77, 100
2, 84626, Control_c, 0, 64, 0
2, 84720, Note_on_c, 0, 77, 0
2, 84721, Note_on_c, 0, 75, 101
2, 84843, Note_on_c, 0, 74, 101
2, 84844, Note_on_c, 0, 75, 0
2, 84940, Control_c, 0, 64, 127
2, 84959, Note_on_c, 0, 72, 102
2, 84960, Note_on_c, 0, 74, 0
2, 85057, Control_c, 0, 64, 0
2, 85074, Note_on_c, 0, 74, 102
2, 85080, Note_on_c, 0, 72, 0
2, 85189, Note_on_c, 0, 74, 0
2, 85196, Note_on_c, 0, 75, 101
2, 85314, Note_on_c, 0, 70, 101
2, 85315, Note_on_c, 0, 75, 0
2, 85433, Note_on_c, 0, 79, 0
2, 85436, Note_on_c, 0, 77, 101
2, 85437, Note_on_c, 0, 69, 101
2, 85439, Note_on_c, 0, 70, 0
2, 85919, Note_on_c, 0, 69, 0
2, 85920, Note_on_c, 0, 68, 101
2, 85940, Control_c, 0, 64, 127
2, 85991, Control_c, 0, 64, 0
2, 86043, Note_on_c, 0, 75, 101
2, 86107, Note_on_c, 0, 77, 0
2, 86165, Note_on_c, 0, 74, 101
2, 86209, Note_on_c, 0, 75, 0
2, 86278, Note_on_c, 0, 74, 0
2, 86281, Note_on_c, 0, 72, 101
2, 86417, Note_on_c, 0, 71, 101
2, 86425, Control_c, 0, 64, 127
2, 86450, Note_on_c, 0, 72, 0
2, 86452, Control_c, 0, 64, 0
2, 86459, Note_on_c, 0, 72, 101
2, 86470, Note_on_c, 0, 71, 0
2, 86481, Note_on_c, 0, 72, 0
2, 86486, Note_on_c, 0, 71, 101
2, 86507, Note_on_c, 0, 69, 101
2, 86527, Note_on_c, 0, 68, 0
2, 86635, Note_on_c, 0, 69, 0
2, 86664, Note_on_c, 0, 67, 101
2, 86806, Note_on_c, 0, 71, 0
2, 86892, Note_on_c, 0, 75, 101
2, 86928, Control_c, 0, 64, 127
2, 86946, Note_on_c, 0, 75, 0
2, 86950, Note_on_c, 0, 74, 101
2, 86997, Note_on_c, 0, 75, 101
2, 86999, Note_on_c, 0, 74, 0
2, 87010, Control_c, 0, 64, 0
2, 87190, Note_on_c, 0, 75, 0
2, 87247, Note_on_c, 0, 75, 101
2, 87318, Note_on_c, 0, 75, 0
2, 87362, Note_on_c, 0, 67, 0
2, 87367, Note_on_c, 0, 69, 98
2, 87369, Note_on_c, 0, 75, 98
2, 87489, Note_on_c, 0, 74, 96
2, 87496, Note_on_c, 0, 75, 0
2, 87599, Note_on_c, 0, 74, 0
2, 87605, Note_on_c, 0, 72, 94
2, 87714, Note_on_c, 0, 69, 0
2, 87716, Note_on_c, 0, 72, 0
2, 87717, Note_on_c, 0, 70, 92
2, 87838, Note_on_c, 0, 69, 90
2, 87846, Note_on_c, 0, 70, 0
2, 87957, Note_on_c, 0, 70, 88
2, 87965, Note_on_c, 0, 69, 0
2, 88074, Note_on_c, 0, 72, 86
2, 88079, Note_on_c, 0, 70, 0
2, 88195, Note_on_c, 0, 67, 84
2, 88207, Note_on_c, 0, 72, 0
2, 88312, Note_on_c, 0, 66, 82
2, 88313, Note_on_c, 0, 67, 0
2, 88430, Note_on_c, 0, 67, 79
2, 88433, Note_on_c, 0, 66, 0
2, 88554, Note_on_c, 0, 69, 79
2, 88559, Note_on_c, 0, 67, 0
2, 88754, Note_on_c, 0, 69, 0
2, 88791, Note_on_c, 0, 69, 79
2, 88842, Note_on_c, 0, 69, 0
2, 88845, Note_on_c, 0, 67, 79
2, 88870, Note_on_c, 0, 67, 0
2, 88874, Note_on_c, 0, 69, 79
2, 89125, Note_on_c, 0, 69, 0
2, 89158, Note_on_c, 0, 69, 79
2, 89235, Note_on_c, 0, 69, 0
2, 89283, Note_on_c, 0, 69, 79
2, 89299, Control_c, 0, 64, 127
2, 89366, Control_c, 0, 64, 0
2, 89402, Note_on_c, 0, 67, 80
2, 89404, Note_on_c, 0, 69, 0
2, 89517, Note_on_c, 0, 66, 83
2, 89520, Note_on_c, 0, 67, 0
2, 89634, Note_on_c, 0, 67, 85
2, 89638, Note_on_c, 0, 66, 0
2, 89752, Note_on_c, 0, 67, 0
2, 89753, Note_on_c, 0, 72, 87
2, 89875, Note_on_c, 0, 70, 90
2, 89988, Note_on_c, 0, 69, 92
2, 89989, Note_on_c, 0, 70, 0
2, 89995, Note_on_c, 0, 72, 0
2, 90107, Note_on_c, 0, 67, 94
2, 90108, Note_on_c, 0, 72, 94
2, 90109, Note_on_c, 0, 69, 0
2, 90171, Note_on_c, 0, 72, 0
2, 90219, Control_c, 0, 64, 127
2, 90224, Note_on_c, 0, 67, 0
2, 90231, Note_on_c, 0, 69, 97
2, 90233, Control_c, 0, 64, 0
2, 90234, Note_on_c, 0, 72, 97
2, 90801, Note_on_c, 0, 72, 0
2, 90816, Note_on_c, 0, 69, 0
2, 90966, Note_on_c, 0, 66, 111
2, 91161, Control_c, 0, 64, 127
2, 91208, Note_on_c, 0, 67, 116
2, 91212, Note_on_c, 0, 66, 0
2, 91253, Control_c, 0, 64, 0
2, 91322, Note_on_c, 0, 69, 116
2, 91369, Note_on_c, 0, 67, 0
2, 91442, Note_on_c, 0, 70, 116
2, 91444, Note_on_c, 0, 67, 116
2, 91454, Note_on_c, 0, 69, 0
2, 91561, Note_on_c, 0, 75, 117
2, 91563, Note_on_c, 0, 70, 0
2, 91629, Note_on_c, 0, 75, 0
2, 91676, Note_on_c, 0, 67, 0
2, 91677, Note_on_c, 0, 66, 117
2, 91712, Note_on_c, 0, 70, 117
2, 91740, Note_on_c, 0, 69, 118
2, 91756, Note_on_c, 0, 70, 0
2, 91772, Note_on_c, 0, 70, 118
2, 91787, Note_on_c, 0, 69, 0
2, 91816, Note_on_c, 0, 70, 0
2, 91818, Note_on_c, 0, 69, 118
2, 92002, Note_on_c, 0, 66, 0
2, 92045, Note_on_c, 0, 67, 119
2, 92058, Note_on_c, 0, 69, 0
2, 92146, Note_on_c, 0, 67, 0
2, 92149, Note_on_c, 0, 67, 119
2, 92277, Note_on_c, 0, 65, 119
2, 92396, Note_on_c, 0, 65, 0
2, 92396, Note_on_c, 0, 63, 117
2, 92518, Note_on_c, 0, 62, 114
2, 92521, Note_on_c, 0, 63, 0
2, 92639, Note_on_c, 0, 60, 111
2, 92642, Note_on_c, 0, 62, 0
2, 92759, Note_on_c, 0, 62, 109
2, 92886, Note_on_c, 0, 62, 0
2, 92891, Note_on_c, 0, 63, 106
2, 93109, Note_on_c, 0, 67, 0
2, 93119, Note_on_c, 0, 60, 0
2, 93120, Note_on_c, 0, 67, 101
2, 93120, Note_on_c, 0, 62, 101
2, 93120, Note_on_c, 0, 58, 101
2, 93131, Note_on_c, 0, 63, 0
2, 93575, Control_c, 0, 64, 127
2, 93900, Note_on_c, 0, 67, 0
2, 93900, Note_on_c, 0, 62, 0
2, 93900, Note_on_c, 0, 58, 0
2, 93968, Control_c, 0, 64, 0
2, 94080, Control_c, 0, 121, 127
2, 94080, End_track
3, 0, Start_track
3, 0, Title_t, "seq. by David Siu  dss@po.cwru.edu"
3, 0, Program_c, 0, 6
3, 0, Control_c, 0, 7, 115
3, 0, Control_c, 0, 10, 47
3, 2051, Note_on_c, 0, 43, 101
3, 2168, Note_on_c, 0, 46, 101
3, 2170, Note_on_c, 0, 43, 0
3, 2288, Note_on_c, 0, 50, 101
3, 2296, Note_on_c, 0, 46, 0
3, 2406, Note_on_c, 0, 55, 101
3, 2410, Note_on_c, 0, 50, 0
3, 2522, Note_on_c, 0, 58, 101
3, 2525, Note_on_c, 0, 55, 0
3, 2643, Note_on_c, 0, 57, 101
3, 2705, Note_on_c, 0, 58, 0
3, 2753, Note_on_c, 0, 57, 0
3, 2759, Note_on_c, 0, 55, 101
3, 2877, Note_on_c, 0, 54, 101
3, 2882, Note_on_c, 0, 55, 0
3, 2997, Note_on_c, 0, 55, 101
3, 3005, Note_on_c, 0, 54, 0
3, 3116, Note_on_c, 0, 57, 101
3, 3119, Note_on_c, 0, 55, 0
3, 3234, Note_on_c, 0, 51, 101
3, 3246, Note_on_c, 0, 57, 0
3, 3349, Note_on_c, 0, 51, 0
3, 3351, Note_on_c, 0, 50, 101
3, 3472, Note_on_c, 0, 48, 101
3, 3475, Note_on_c, 0, 50, 0
3, 3593, Note_on_c, 0, 46, 101
3, 3595, Note_on_c, 0, 48, 0
3, 3713, Note_on_c, 0, 45, 101
3, 3720, Note_on_c, 0, 46, 0
3, 3839, Note_on_c, 0, 46, 101
3, 3845, Note_on_c, 0, 45, 0
3, 4440, Note_on_c, 0, 50, 101
3, 4445, Note_on_c, 0, 46, 0
3, 4560, Note_on_c, 0, 48, 101
3, 4566, Note_on_c, 0, 50, 0
3, 4672, Note_on_c, 0, 48, 0
3, 4676, Note_on_c, 0, 51, 101
3, 4799, Note_on_c, 0, 50, 100
3, 4806, Note_on_c, 0, 51, 0
3, 5397, Note_on_c, 0, 52, 90
3, 5401, Note_on_c, 0, 50, 0
3, 5516, Note_on_c, 0, 54, 88
3, 5522, Note_on_c, 0, 52, 0
3, 5636, Note_on_c, 0, 50, 86
3, 5638, Note_on_c, 0, 54, 0
3, 5765, Note_on_c, 0, 50, 0
3, 5775, Note_on_c, 0, 55, 82
3, 5999, Note_on_c, 0, 65, 82
3, 6121, Note_on_c, 0, 62, 82
3, 6123, Note_on_c, 0, 65, 0
3, 6243, Note_on_c, 0, 63, 82
3, 6254, Note_on_c, 0, 62, 0
3, 6480, Note_on_c, 0, 51, 82
3, 6495, Note_on_c, 0, 55, 0
3, 6723, Note_on_c, 0, 53, 82
3, 6725, Note_on_c, 0, 51, 0
3, 6788, Note_on_c, 0, 63, 0
3, 6956, Note_on_c, 0, 63, 82
3, 7077, Note_on_c, 0, 60, 82
3, 7085, Note_on_c, 0, 63, 0
3, 7199, Note_on_c, 0, 62, 81
3, 7208, Note_on_c, 0, 60, 0
3, 7438, Note_on_c, 0, 53, 0
3, 7439, Note_on_c, 0, 50, 81
3, 7677, Note_on_c, 0, 51, 81
3, 7680, Note_on_c, 0, 50, 0
3, 7793, Note_on_c, 0, 62, 0
3, 7918, Note_on_c, 0, 62, 81
3, 8038, Note_on_c, 0, 58, 81
3, 8040, Note_on_c, 0, 62, 0
3, 8157, Note_on_c, 0, 60, 81
3, 8163, Note_on_c, 0, 58, 0
3, 8399, Note_on_c, 0, 48, 81
3, 8406, Note_on_c, 0, 51, 0
3, 8647, Note_on_c, 0, 50, 80
3, 8654, Note_on_c, 0, 48, 0
3, 8878, Note_on_c, 0, 57, 80
3, 8896, Note_on_c, 0, 60, 0
3, 9124, Note_on_c, 0, 58, 80
3, 9170, Note_on_c, 0, 57, 0
3, 9362, Note_on_c, 0, 55, 80
3, 9367, Note_on_c, 0, 58, 0
3, 9604, Note_on_c, 0, 54, 80
3, 9614, Note_on_c, 0, 55, 0
3, 9838, Note_on_c, 0, 48, 79
3, 9839, Note_on_c, 0, 50, 0
3, 9843, Note_on_c, 0, 57, 79
3, 9847, Note_on_c, 0, 54, 0
3, 10073, Note_on_c, 0, 57, 0
3, 10078, Note_on_c, 0, 46, 82
3, 10081, Note_on_c, 0, 50, 82
3, 10087, Note_on_c, 0, 48, 0
3, 10325, Note_on_c, 0, 43, 85
3, 10326, Note_on_c, 0, 46, 0
3, 10556, Note_on_c, 0, 43, 0
3, 10558, Note_on_c, 0, 38, 88
3, 10795, Note_on_c, 0, 38, 0
3, 10798, Note_on_c, 0, 62, 91
3, 10804, Note_on_c, 0, 50, 0
3, 11157, Note_on_c, 0, 60, 95
3, 11168, Note_on_c, 0, 62, 0
3, 11279, Note_on_c, 0, 59, 97
3, 11285, Note_on_c, 0, 60, 0
3, 11398, Note_on_c, 0, 57, 98
3, 11406, Note_on_c, 0, 59, 0
3, 11519, Note_on_c, 0, 55, 99
3, 11526, Note_on_c, 0, 57, 0
3, 11641, Note_on_c, 0, 50, 99
3, 11646, Note_on_c, 0, 55, 0
3, 11762, Note_on_c, 0, 55, 99
3, 11770, Note_on_c, 0, 50, 0
3, 11883, Note_on_c, 0, 59, 99
3, 11886, Note_on_c, 0, 55, 0
3, 12006, Note_on_c, 0, 62, 100
3, 12012, Note_on_c, 0, 59, 0
3, 12122, Note_on_c, 0, 63, 100
3, 12125, Note_on_c, 0, 62, 0
3, 12244, Note_on_c, 0, 62, 100
3, 12256, Note_on_c, 0, 63, 0
3, 12357, Note_on_c, 0, 62, 0
3, 12361, Note_on_c, 0, 60, 101
3, 12480, Note_on_c, 0, 59, 101
3, 12481, Note_on_c, 0, 60, 0
3, 12601, Note_on_c, 0, 60, 101
3, 12608, Note_on_c, 0, 59, 0
3, 12720, Note_on_c, 0, 62, 101
3, 12722, Note_on_c, 0, 60, 0
3, 12838, Note_on_c, 0, 56, 102
3, 12841, Note_on_c, 0, 62, 0
3, 12955, Note_on_c, 0, 55, 102
3, 12958, Note_on_c, 0, 56, 0
3, 13076, Note_on_c, 0, 53, 102
3, 13077, Note_on_c, 0, 55, 0
3, 13194, Note_on_c, 0, 51, 103
3, 13198, Note_on_c, 0, 53, 0
3, 13315, Note_on_c, 0, 51, 0
3, 13317, Note_on_c, 0, 50, 103
3, 13437, Note_on_c, 0, 48, 103
3, 13444, Note_on_c, 0, 50, 0
3, 13929, Note_on_c, 0, 48, 0
3, 14036, Note_on_c, 0, 48, 97
3, 14159, Note_on_c, 0, 51, 95
3, 14169, Note_on_c, 0, 48, 0
3, 14283, Note_on_c, 0, 55, 93
3, 14292, Note_on_c, 0, 51, 0
3, 14402, Note_on_c, 0, 55, 0
3, 14402, Note_on_c, 0, 60, 91
3, 14582, Note_on_c, 0, 60, 0
3, 14635, Note_on_c, 0, 50, 87
3, 14637, Note_on_c, 0, 48, 87
3, 14804, Note_on_c, 0, 50, 0
3, 14819, Note_on_c, 0, 48, 0
3, 14875, Note_on_c, 0, 46, 84
3, 14875, Note_on_c, 0, 52, 84
3, 15059, Note_on_c, 0, 52, 0
3, 15064, Note_on_c, 0, 46, 0
3, 15115, Note_on_c, 0, 45, 80
3, 15117, Note_on_c, 0, 54, 80
3, 15268, Note_on_c, 0, 54, 0
3, 15283, Note_on_c, 0, 45, 0
3, 15363, Note_on_c, 0, 43, 76
3, 15484, Note_on_c, 0, 55, 73
3, 15611, Note_on_c, 0, 55, 0
3, 16918, Note_on_c, 0, 55, 73
3, 17039, Note_on_c, 0, 53, 73
3, 17048, Note_on_c, 0, 55, 0
3, 17162, Note_on_c, 0, 52, 73
3, 17170, Note_on_c, 0, 53, 0
3, 17208, Note_on_c, 0, 43, 0
3, 17285, Note_on_c, 0, 52, 0
3, 17286, Note_on_c, 0, 50, 73
3, 17287, Note_on_c, 0, 41, 73
3, 17756, Note_on_c, 0, 50, 0
3, 17759, Note_on_c, 0, 41, 0
3, 17993, Note_on_c, 0, 57, 80
3, 17995, Note_on_c, 0, 53, 80
3, 18235, Note_on_c, 0, 52, 83
3, 18235, Note_on_c, 0, 55, 83
3, 18241, Note_on_c, 0, 53, 0
3, 18244, Note_on_c, 0, 57, 0
3, 18476, Note_on_c, 0, 50, 84
3, 18480, Note_on_c, 0, 52, 0
3, 18662, Note_on_c, 0, 50, 0
3, 18705, Note_on_c, 0, 55, 0
3, 18716, Note_on_c, 0, 52, 81
3, 18723, Note_on_c, 0, 49, 81
3, 18957, Note_on_c, 0, 45, 78
3, 19034, Note_on_c, 0, 49, 0
3, 19074, Note_on_c, 0, 52, 0
3, 19192, Note_on_c, 0, 45, 0
3, 19193, Note_on_c, 0, 50, 75
3, 19434, Note_on_c, 0, 50, 0
3, 19438, Note_on_c, 0, 48, 73
3, 19674, Note_on_c, 0, 46, 73
3, 19676, Note_on_c, 0, 48, 0
3, 19860, Note_on_c, 0, 46, 0
3, 19914, Note_on_c, 0, 45, 73
3, 20093, Note_on_c, 0, 45, 0
3, 20156, Note_on_c, 0, 43, 73
3, 20387, Note_on_c, 0, 43, 0
3, 20397, Note_on_c, 0, 41, 73
3, 20563, Note_on_c, 0, 41, 0
3, 20636, Note_on_c, 0, 39, 73
3, 20804, Note_on_c, 0, 39, 0
3, 20869, Note_on_c, 0, 38, 73
3, 21060, Note_on_c, 0, 38, 0
3, 21124, Note_on_c, 0, 37, 73
3, 21671, Note_on_c, 0, 37, 0
3, 21717, Note_on_c, 0, 43, 73
3, 21838, Note_on_c, 0, 41, 73
3, 21848, Note_on_c, 0, 43, 0
3, 21955, Note_on_c, 0, 40, 74
3, 21960, Note_on_c, 0, 41, 0
3, 22081, Note_on_c, 0, 41, 76
3, 22091, Note_on_c, 0, 40, 0
3, 22316, Note_on_c, 0, 43, 80
3, 22320, Note_on_c, 0, 41, 0
3, 22559, Note_on_c, 0, 45, 84
3, 22605, Note_on_c, 0, 43, 0
3, 22716, Note_on_c, 0, 45, 0
3, 22799, Note_on_c, 0, 45, 88
3, 23037, Note_on_c, 0, 38, 92
3, 23040, Note_on_c, 0, 45, 0
3, 23562, Note_on_c, 0, 38, 0
3, 23873, Note_on_c, 0, 61, 84
3, 24004, Note_on_c, 0, 62, 83
3, 24015, Note_on_c, 0, 61, 0
3, 24124, Note_on_c, 0, 54, 83
3, 24246, Note_on_c, 0, 55, 80
3, 24251, Note_on_c, 0, 54, 0
3, 24369, Note_on_c, 0, 57, 78
3, 24373, Note_on_c, 0, 55, 0
3, 24485, Note_on_c, 0, 50, 75
3, 24496, Note_on_c, 0, 57, 0
3, 24774, Note_on_c, 0, 62, 0
3, 24785, Note_on_c, 0, 50, 0
3, 25089, Note_on_c, 0, 43, 71
3, 25208, Note_on_c, 0, 43, 0
3, 25208, Note_on_c, 0, 46, 71
3, 25328, Note_on_c, 0, 50, 71
3, 25336, Note_on_c, 0, 46, 0
3, 25447, Note_on_c, 0, 55, 71
3, 25450, Note_on_c, 0, 50, 0
3, 25566, Note_on_c, 0, 55, 0
3, 25566, Note_on_c, 0, 58, 71
3, 25686, Note_on_c, 0, 57, 71
3, 25749, Note_on_c, 0, 58, 0
3, 25796, Note_on_c, 0, 57, 0
3, 25805, Note_on_c, 0, 55, 71
3, 25924, Note_on_c, 0, 54, 71
3, 25928, Note_on_c, 0, 55, 0
3, 26044, Note_on_c, 0, 55, 71
3, 26052, Note_on_c, 0, 54, 0
3, 26164, Note_on_c, 0, 57, 71
3, 26166, Note_on_c, 0, 55, 0
3, 26283, Note_on_c, 0, 51, 71
3, 26294, Note_on_c, 0, 57, 0
3, 26398, Note_on_c, 0, 51, 0
3, 26403, Note_on_c, 0, 50, 71
3, 26523, Note_on_c, 0, 48, 71
3, 26527, Note_on_c, 0, 50, 0
3, 26643, Note_on_c, 0, 46, 71
3, 26646, Note_on_c, 0, 48, 0
3, 26763, Note_on_c, 0, 45, 71
3, 26770, Note_on_c, 0, 46, 0
3, 26885, Note_on_c, 0, 46, 71
3, 26895, Note_on_c, 0, 45, 0
3, 27485, Note_on_c, 0, 50, 71
3, 27491, Note_on_c, 0, 46, 0
3, 27605, Note_on_c, 0, 48, 71
3, 27611, Note_on_c, 0, 50, 0
3, 27717, Note_on_c, 0, 48, 0
3, 27724, Note_on_c, 0, 51, 71
3, 27845, Note_on_c, 0, 50, 72
3, 27854, Note_on_c, 0, 51, 0
3, 28444, Note_on_c, 0, 52, 69
3, 28447, Note_on_c, 0, 50, 0
3, 28564, Note_on_c, 0, 54, 68
3, 28569, Note_on_c, 0, 52, 0
3, 28684, Note_on_c, 0, 50, 67
3, 28686, Note_on_c, 0, 54, 0
3, 28810, Note_on_c, 0, 55, 67
3, 28813, Note_on_c, 0, 50, 0
3, 29045, Note_on_c, 0, 65, 66
3, 29166, Note_on_c, 0, 62, 66
3, 29169, Note_on_c, 0, 65, 0
3, 29286, Note_on_c, 0, 63, 66
3, 29299, Note_on_c, 0, 62, 0
3, 29525, Note_on_c, 0, 51, 66
3, 29530, Note_on_c, 0, 55, 0
3, 29766, Note_on_c, 0, 53, 66
3, 29770, Note_on_c, 0, 51, 0
3, 29831, Note_on_c, 0, 63, 0
3, 30004, Note_on_c, 0, 63, 66
3, 30124, Note_on_c, 0, 60, 66
3, 30133, Note_on_c, 0, 63, 0
3, 30245, Note_on_c, 0, 62, 66
3, 30255, Note_on_c, 0, 60, 0
3, 30481, Note_on_c, 0, 53, 0
3, 30485, Note_on_c, 0, 50, 66
3, 30724, Note_on_c, 0, 51, 66
3, 30726, Note_on_c, 0, 50, 0
3, 30839, Note_on_c, 0, 62, 0
3, 30965, Note_on_c, 0, 62, 66
3, 31085, Note_on_c, 0, 58, 66
3, 31087, Note_on_c, 0, 62, 0
3, 31204, Note_on_c, 0, 60, 66
3, 31210, Note_on_c, 0, 58, 0
3, 31445, Note_on_c, 0, 48, 66
3, 31453, Note_on_c, 0, 51, 0
3, 31687, Note_on_c, 0, 50, 66
3, 31700, Note_on_c, 0, 48, 0
3, 31925, Note_on_c, 0, 57, 66
3, 31943, Note_on_c, 0, 60, 0
3, 32166, Note_on_c, 0, 58, 66
3, 32217, Note_on_c, 0, 57, 0
3, 32406, Note_on_c, 0, 55, 66
3, 32409, Note_on_c, 0, 58, 0
3, 32646, Note_on_c, 0, 54, 66
3, 32658, Note_on_c, 0, 55, 0
3, 32879, Note_on_c, 0, 50, 0
3, 32885, Note_on_c, 0, 48, 69
3, 32886, Note_on_c, 0, 57, 70
3, 32889, Note_on_c, 0, 54, 0
3, 33116, Note_on_c, 0, 57, 0
3, 33125, Note_on_c, 0, 46, 73
3, 33126, Note_on_c, 0, 50, 73
3, 33134, Note_on_c, 0, 48, 0
3, 33367, Note_on_c, 0, 43, 77
3, 33373, Note_on_c, 0, 46, 0
3, 33598, Note_on_c, 0, 43, 0
3, 33605, Note_on_c, 0, 38, 81
3, 33842, Note_on_c, 0, 38, 0
3, 33845, Note_on_c, 0, 62, 85
3, 33849, Note_on_c, 0, 50, 0
3, 34204, Note_on_c, 0, 60, 88
3, 34215, Note_on_c, 0, 62, 0
3, 34325, Note_on_c, 0, 59, 88
3, 34332, Note_on_c, 0, 60, 0
3, 34445, Note_on_c, 0, 57, 89
3, 34452, Note_on_c, 0, 59, 0
3, 34565, Note_on_c, 0, 55, 90
3, 34573, Note_on_c, 0, 57, 0
3, 34686, Note_on_c, 0, 50, 91
3, 34692, Note_on_c, 0, 55, 0
3, 34806, Note_on_c, 0, 55, 91
3, 34815, Note_on_c, 0, 50, 0
3, 34926, Note_on_c, 0, 59, 92
3, 34930, Note_on_c, 0, 55, 0
3, 35047, Note_on_c, 0, 62, 93
3, 35055, Note_on_c, 0, 59, 0
3, 35166, Note_on_c, 0, 62, 0
3, 35166, Note_on_c, 0, 63, 94
3, 35286, Note_on_c, 0, 62, 96
3, 35300, Note_on_c, 0, 63, 0
3, 35399, Note_on_c, 0, 62, 0
3, 35406, Note_on_c, 0, 60, 94
3, 35525, Note_on_c, 0, 59, 92
3, 35526, Note_on_c, 0, 60, 0
3, 35646, Note_on_c, 0, 60, 90
3, 35653, Note_on_c, 0, 59, 0
3, 35765, Note_on_c, 0, 62, 88
3, 35767, Note_on_c, 0, 60, 0
3, 35885, Note_on_c, 0, 56, 86
3, 35886, Note_on_c, 0, 62, 0
3, 36004, Note_on_c, 0, 55, 84
3, 36005, Note_on_c, 0, 56, 0
3, 36124, Note_on_c, 0, 53, 82
3, 36126, Note_on_c, 0, 55, 0
3, 36243, Note_on_c, 0, 51, 80
3, 36246, Note_on_c, 0, 53, 0
3, 36364, Note_on_c, 0, 51, 0
3, 36364, Note_on_c, 0, 50, 78
3, 36484, Note_on_c, 0, 48, 75
3, 36491, Note_on_c, 0, 50, 0
3, 36976, Note_on_c, 0, 48, 0
3, 37084, Note_on_c, 0, 48, 75
3, 37205, Note_on_c, 0, 51, 75
3, 37217, Note_on_c, 0, 48, 0
3, 37326, Note_on_c, 0, 55, 75
3, 37338, Note_on_c, 0, 51, 0
3, 37445, Note_on_c, 0, 55, 0
3, 37446, Note_on_c, 0, 60, 75
3, 37626, Note_on_c, 0, 60, 0
3, 37684, Note_on_c, 0, 48, 75
3, 37684, Note_on_c, 0, 50, 75
3, 37853, Note_on_c, 0, 50, 0
3, 37866, Note_on_c, 0, 48, 0
3, 37924, Note_on_c, 0, 46, 75
3, 37924, Note_on_c, 0, 52, 75
3, 38108, Note_on_c, 0, 52, 0
3, 38113, Note_on_c, 0, 46, 0
3, 38164, Note_on_c, 0, 45, 75
3, 38164, Note_on_c, 0, 54, 75
3, 38315, Note_on_c, 0, 54, 0
3, 38332, Note_on_c, 0, 45, 0
3, 38406, Note_on_c, 0, 43, 75
3, 38526, Note_on_c, 0, 55, 75
3, 38653, Note_on_c, 0, 55, 0
3, 39965, Note_on_c, 0, 55, 75
3, 40085, Note_on_c, 0, 53, 74
3, 40095, Note_on_c, 0, 55, 0
3, 40206, Note_on_c, 0, 52, 73
3, 40216, Note_on_c, 0, 53, 0
3, 40251, Note_on_c, 0, 43, 0
3, 40327, Note_on_c, 0, 41, 71
3, 40327, Note_on_c, 0, 50, 71
3, 40329, Note_on_c, 0, 52, 0
3, 40797, Note_on_c, 0, 50, 0
3, 40799, Note_on_c, 0, 41, 0
3, 41043, Note_on_c, 0, 57, 74
3, 41044, Note_on_c, 0, 53, 74
3, 41284, Note_on_c, 0, 52, 76
3, 41284, Note_on_c, 0, 55, 76
3, 41290, Note_on_c, 0, 53, 0
3, 41294, Note_on_c, 0, 57, 0
3, 41524, Note_on_c, 0, 50, 77
3, 41529, Note_on_c, 0, 52, 0
3, 41710, Note_on_c, 0, 50, 0
3, 41754, Note_on_c, 0, 55, 0
3, 41764, Note_on_c, 0, 52, 78
3, 41766, Note_on_c, 0, 49, 78
3, 42004, Note_on_c, 0, 45, 80
3, 42077, Note_on_c, 0, 49, 0
3, 42122, Note_on_c, 0, 52, 0
3, 42239, Note_on_c, 0, 45, 0
3, 42243, Note_on_c, 0, 50, 81
3, 42484, Note_on_c, 0, 50, 0
3, 42485, Note_on_c, 0, 48, 82
3, 42723, Note_on_c, 0, 48, 0
3, 42723, Note_on_c, 0, 46, 84
3, 42909, Note_on_c, 0, 46, 0
3, 42963, Note_on_c, 0, 45, 85
3, 43142, Note_on_c, 0, 45, 0
3, 43204, Note_on_c, 0, 43, 86
3, 43435, Note_on_c, 0, 43, 0
3, 43444, Note_on_c, 0, 41, 88
3, 43610, Note_on_c, 0, 41, 0
3, 43684, Note_on_c, 0, 39, 89
3, 43852, Note_on_c, 0, 39, 0
3, 43922, Note_on_c, 0, 38, 90
3, 44113, Note_on_c, 0, 38, 0
3, 44166, Note_on_c, 0, 37, 92
3, 44713, Note_on_c, 0, 37, 0
3, 44764, Note_on_c, 0, 43, 96
3, 44885, Note_on_c, 0, 41, 97
3, 44895, Note_on_c, 0, 43, 0
3, 45004, Note_on_c, 0, 40, 98
3, 45007, Note_on_c, 0, 41, 0
3, 45126, Note_on_c, 0, 41, 99
3, 45140, Note_on_c, 0, 40, 0
3, 45364, Note_on_c, 0, 43, 100
3, 45365, Note_on_c, 0, 41, 0
3, 45605, Note_on_c, 0, 45, 102
3, 45653, Note_on_c, 0, 43, 0
3, 45762, Note_on_c, 0, 45, 0
3, 45845, Note_on_c, 0, 45, 104
3, 46084, Note_on_c, 0, 38, 105
3, 46086, Note_on_c, 0, 45, 0
3, 46609, Note_on_c, 0, 38, 0
3, 46923, Note_on_c, 0, 61, 93
3, 47046, Note_on_c, 0, 62, 91
3, 47065, Note_on_c, 0, 61, 0
3, 47166, Note_on_c, 0, 54, 89
3, 47287, Note_on_c, 0, 55, 87
3, 47293, Note_on_c, 0, 54, 0
3, 47408, Note_on_c, 0, 57, 85
3, 47414, Note_on_c, 0, 55, 0
3, 47527, Note_on_c, 0, 50, 83
3, 47535, Note_on_c, 0, 57, 0
3, 47826, Note_on_c, 0, 62, 0
3, 47827, Note_on_c, 0, 50, 0
3, 48006, Note_on_c, 0, 50, 96
3, 48599, Note_on_c, 0, 50, 0
3, 48602, Note_on_c, 0, 57, 96
3, 48723, Note_on_c, 0, 58, 96
3, 48732, Note_on_c, 0, 57, 0
3, 48836, Note_on_c, 0, 58, 0
3, 48837, Note_on_c, 0, 60, 96
3, 48957, Note_on_c, 0, 53, 96
3, 48963, Note_on_c, 0, 60, 0
3, 49195, Note_on_c, 0, 51, 96
3, 49197, Note_on_c, 0, 60, 96
3, 49203, Note_on_c, 0, 53, 0
3, 49435, Note_on_c, 0, 53, 96
3, 49439, Note_on_c, 0, 51, 0
3, 49677, Note_on_c, 0, 59, 96
3, 49682, Note_on_c, 0, 60, 0
3, 49683, Note_on_c, 0, 55, 96
3, 49684, Note_on_c, 0, 53, 0
3, 49862, Note_on_c, 0, 59, 0
3, 49921, Note_on_c, 0, 48, 96
3, 49925, Note_on_c, 0, 55, 0
3, 50041, Note_on_c, 0, 60, 96
3, 50046, Note_on_c, 0, 48, 0
3, 50158, Note_on_c, 0, 60, 0
3, 50162, Note_on_c, 0, 55, 96
3, 50274, Note_on_c, 0, 51, 96
3, 50277, Note_on_c, 0, 55, 0
3, 50395, Note_on_c, 0, 48, 96
3, 50398, Note_on_c, 0, 51, 0
3, 50517, Note_on_c, 0, 47, 96
3, 50520, Note_on_c, 0, 48, 0
3, 50636, Note_on_c, 0, 48, 96
3, 50641, Note_on_c, 0, 47, 0
3, 50748, Note_on_c, 0, 48, 0
3, 50754, Note_on_c, 0, 50, 96
3, 50877, Note_on_c, 0, 52, 96
3, 50886, Note_on_c, 0, 50, 0
3, 50995, Note_on_c, 0, 50, 97
3, 50999, Note_on_c, 0, 52, 0
3, 51125, Note_on_c, 0, 48, 95
3, 51133, Note_on_c, 0, 50, 0
3, 51239, Note_on_c, 0, 48, 0
3, 51241, Note_on_c, 0, 53, 93
3, 51359, Note_on_c, 0, 53, 0
3, 51360, Note_on_c, 0, 55, 91
3, 51477, Note_on_c, 0, 57, 89
3, 51479, Note_on_c, 0, 55, 0
3, 51596, Note_on_c, 0, 58, 87
3, 51600, Note_on_c, 0, 57, 0
3, 51716, Note_on_c, 0, 60, 85
3, 51722, Note_on_c, 0, 58, 0
3, 51837, Note_on_c, 0, 57, 83
3, 51838, Note_on_c, 0, 60, 0
3, 51948, Note_on_c, 0, 57, 0
3, 51953, Note_on_c, 0, 55, 81
3, 52079, Note_on_c, 0, 53, 81
3, 52083, Note_on_c, 0, 55, 0
3, 52179, Note_on_c, 0, 53, 0
3, 52324, Note_on_c, 0, 58, 81
3, 52452, Note_on_c, 0, 58, 0
3, 52563, Note_on_c, 0, 50, 80
3, 52690, Note_on_c, 0, 50, 0
3, 52800, Note_on_c, 0, 51, 80
3, 52942, Note_on_c, 0, 51, 0
3, 53041, Note_on_c, 0, 39, 80
3, 53161, Note_on_c, 0, 39, 0
3, 53282, Note_on_c, 0, 51, 83
3, 53406, Note_on_c, 0, 51, 0
3, 53518, Note_on_c, 0, 48, 85
3, 53634, Note_on_c, 0, 48, 0
3, 53756, Note_on_c, 0, 53, 87
3, 53876, Note_on_c, 0, 41, 89
3, 53877, Note_on_c, 0, 53, 0
3, 53995, Note_on_c, 0, 45, 90
3, 54003, Note_on_c, 0, 41, 0
3, 54116, Note_on_c, 0, 48, 91
3, 54122, Note_on_c, 0, 45, 0
3, 54235, Note_on_c, 0, 51, 92
3, 54236, Note_on_c, 0, 48, 0
3, 54354, Note_on_c, 0, 55, 94
3, 54360, Note_on_c, 0, 51, 0
3, 54479, Note_on_c, 0, 53, 95
3, 54485, Note_on_c, 0, 55, 0
3, 54596, Note_on_c, 0, 51, 96
3, 54599, Note_on_c, 0, 53, 0
3, 54719, Note_on_c, 0, 50, 97
3, 54727, Note_on_c, 0, 51, 0
3, 54834, Note_on_c, 0, 48, 99
3, 54839, Note_on_c, 0, 50, 0
3, 54952, Note_on_c, 0, 46, 100
3, 54955, Note_on_c, 0, 48, 0
3, 55074, Note_on_c, 0, 51, 101
3, 55077, Note_on_c, 0, 46, 0
3, 55199, Note_on_c, 0, 53, 102
3, 55209, Note_on_c, 0, 51, 0
3, 55373, Note_on_c, 0, 53, 0
3, 55443, Note_on_c, 0, 41, 100
3, 55554, Note_on_c, 0, 41, 0
3, 55674, Note_on_c, 0, 46, 95
3, 55802, Note_on_c, 0, 58, 93
3, 55814, Note_on_c, 0, 46, 0
3, 55921, Note_on_c, 0, 58, 0
3, 55924, Note_on_c, 0, 53, 90
3, 56043, Note_on_c, 0, 50, 87
3, 56046, Note_on_c, 0, 53, 0
3, 56155, Note_on_c, 0, 50, 0
3, 56157, Note_on_c, 0, 46, 85
3, 56276, Note_on_c, 0, 43, 82
3, 56279, Note_on_c, 0, 46, 0
3, 56393, Note_on_c, 0, 45, 78
3, 56394, Note_on_c, 0, 43, 0
3, 56519, Note_on_c, 0, 46, 78
3, 56527, Note_on_c, 0, 45, 0
3, 56638, Note_on_c, 0, 48, 78
3, 56640, Note_on_c, 0, 46, 0
3, 56756, Note_on_c, 0, 46, 78
3, 56763, Note_on_c, 0, 48, 0
3, 56878, Note_on_c, 0, 45, 78
3, 56884, Note_on_c, 0, 46, 0
3, 56997, Note_on_c, 0, 50, 78
3, 56998, Note_on_c, 0, 45, 0
3, 57111, Note_on_c, 0, 50, 0
3, 57117, Note_on_c, 0, 52, 78
3, 57235, Note_on_c, 0, 54, 78
3, 57238, Note_on_c, 0, 52, 0
3, 57353, Note_on_c, 0, 54, 0
3, 57354, Note_on_c, 0, 55, 78
3, 57474, Note_on_c, 0, 57, 78
3, 57483, Note_on_c, 0, 55, 0
3, 57597, Note_on_c, 0, 50, 78
3, 57599, Note_on_c, 0, 57, 0
3, 58194, Note_on_c, 0, 50, 0
3, 58194, Note_on_c, 0, 55, 78
3, 58314, Note_on_c, 0, 54, 78
3, 58320, Note_on_c, 0, 55, 0
3, 58434, Note_on_c, 0, 55, 78
3, 58435, Note_on_c, 0, 54, 0
3, 58559, Note_on_c, 0, 48, 78
3, 58564, Note_on_c, 0, 55, 0
3, 58703, Note_on_c, 0, 48, 0
3, 58798, Note_on_c, 0, 46, 78
3, 58803, Note_on_c, 0, 55, 78
3, 59042, Note_on_c, 0, 48, 78
3, 59049, Note_on_c, 0, 46, 0
3, 59272, Note_on_c, 0, 48, 0
3, 59277, Note_on_c, 0, 54, 78
3, 59281, Note_on_c, 0, 55, 0
3, 59281, Note_on_c, 0, 50, 78
3, 59517, Note_on_c, 0, 50, 0
3, 59522, Note_on_c, 0, 55, 78
3, 59523, Note_on_c, 0, 54, 0
3, 59638, Note_on_c, 0, 43, 79
3, 59686, Note_on_c, 0, 55, 0
3, 59761, Note_on_c, 0, 46, 81
3, 59764, Note_on_c, 0, 43, 0
3, 59881, Note_on_c, 0, 50, 83
3, 59887, Note_on_c, 0, 46, 0
3, 60003, Note_on_c, 0, 55, 84
3, 60006, Note_on_c, 0, 50, 0
3, 60106, Note_on_c, 0, 55, 0
3, 60119, Note_on_c, 0, 55, 86
3, 60236, Note_on_c, 0, 55, 0
3, 60239, Note_on_c, 0, 53, 88
3, 60361, Note_on_c, 0, 51, 89
3, 60364, Note_on_c, 0, 53, 0
3, 60482, Note_on_c, 0, 51, 0
3, 60482, Note_on_c, 0, 50, 91
3, 60593, Note_on_c, 0, 50, 0
3, 60594, Note_on_c, 0, 51, 93
3, 60717, Note_on_c, 0, 51, 0
3, 60718, Note_on_c, 0, 53, 94
3, 60838, Note_on_c, 0, 48, 96
3, 60840, Note_on_c, 0, 53, 0
3, 60956, Note_on_c, 0, 48, 0
3, 60960, Note_on_c, 0, 46, 98
3, 61073, Note_on_c, 0, 44, 99
3, 61083, Note_on_c, 0, 46, 0
3, 61195, Note_on_c, 0, 43, 99
3, 61205, Note_on_c, 0, 44, 0
3, 61312, Note_on_c, 0, 41, 99
3, 61319, Note_on_c, 0, 43, 0
3, 61437, Note_on_c, 0, 39, 100
3, 61443, Note_on_c, 0, 41, 0
3, 61916, Note_on_c, 0, 39, 0
3, 61920, Note_on_c, 0, 51, 102
3, 62513, Note_on_c, 0, 67, 101
3, 62521, Note_on_c, 0, 51, 0
3, 62635, Note_on_c, 0, 65, 101
3, 62638, Note_on_c, 0, 67, 0
3, 62757, Note_on_c, 0, 63, 101
3, 62765, Note_on_c, 0, 65, 0
3, 62879, Note_on_c, 0, 62, 101
3, 62887, Note_on_c, 0, 63, 0
3, 63000, Note_on_c, 0, 63, 101
3, 63009, Note_on_c, 0, 62, 0
3, 63119, Note_on_c, 0, 65, 101
3, 63122, Note_on_c, 0, 63, 0
3, 63237, Note_on_c, 0, 56, 101
3, 63243, Note_on_c, 0, 65, 0
3, 63358, Note_on_c, 0, 55, 101
3, 63359, Note_on_c, 0, 56, 0
3, 63483, Note_on_c, 0, 53, 101
3, 63490, Note_on_c, 0, 55, 0
3, 63600, Note_on_c, 0, 51, 101
3, 63602, Note_on_c, 0, 53, 0
3, 63722, Note_on_c, 0, 50, 101
3, 63730, Note_on_c, 0, 51, 0
3, 63846, Note_on_c, 0, 48, 101
3, 63850, Note_on_c, 0, 50, 0
3, 63964, Note_on_c, 0, 50, 101
3, 64007, Note_on_c, 0, 48, 0
3, 64079, Note_on_c, 0, 50, 0
3, 64083, Note_on_c, 0, 51, 101
3, 64192, Note_on_c, 0, 43, 101
3, 64210, Note_on_c, 0, 51, 0
3, 64319, Note_on_c, 0, 43, 0
3, 64325, Note_on_c, 0, 42, 98
3, 64560, Note_on_c, 0, 43, 94
3, 64562, Note_on_c, 0, 42, 0
3, 64796, Note_on_c, 0, 43, 0
3, 64801, Note_on_c, 0, 48, 90
3, 64991, Note_on_c, 0, 48, 0
3, 65037, Note_on_c, 0, 45, 86
3, 65204, Note_on_c, 0, 45, 0
3, 65285, Note_on_c, 0, 50, 82
3, 65579, Note_on_c, 0, 50, 0
3, 65638, Note_on_c, 0, 63, 79
3, 65763, Note_on_c, 0, 62, 79
3, 65768, Note_on_c, 0, 63, 0
3, 65877, Note_on_c, 0, 62, 0
3, 65881, Note_on_c, 0, 60, 79
3, 66001, Note_on_c, 0, 58, 79
3, 66003, Note_on_c, 0, 60, 0
3, 66119, Note_on_c, 0, 57, 79
3, 66125, Note_on_c, 0, 58, 0
3, 66243, Note_on_c, 0, 58, 79
3, 66253, Note_on_c, 0, 57, 0
3, 66362, Note_on_c, 0, 60, 80
3, 66365, Note_on_c, 0, 58, 0
3, 66476, Note_on_c, 0, 60, 0
3, 66481, Note_on_c, 0, 62, 83
3, 66602, Note_on_c, 0, 62, 0
3, 66603, Note_on_c, 0, 58, 85
3, 66722, Note_on_c, 0, 57, 87
3, 66731, Note_on_c, 0, 58, 0
3, 66838, Note_on_c, 0, 57, 0
3, 66841, Note_on_c, 0, 55, 90
3, 66959, Note_on_c, 0, 54, 92
3, 66963, Note_on_c, 0, 55, 0
3, 67077, Note_on_c, 0, 52, 94
3, 67079, Note_on_c, 0, 54, 0
3, 67199, Note_on_c, 0, 54, 97
3, 67208, Note_on_c, 0, 52, 0
3, 67317, Note_on_c, 0, 55, 99
3, 67323, Note_on_c, 0, 54, 0
3, 67436, Note_on_c, 0, 57, 101
3, 67437, Note_on_c, 0, 55, 0
3, 67551, Note_on_c, 0, 57, 0
3, 67554, Note_on_c, 0, 51, 104
3, 67679, Note_on_c, 0, 50, 106
3, 67689, Note_on_c, 0, 51, 0
3, 67802, Note_on_c, 0, 48, 108
3, 67807, Note_on_c, 0, 50, 0
3, 67918, Note_on_c, 0, 46, 111
3, 67921, Note_on_c, 0, 48, 0
3, 68035, Note_on_c, 0, 46, 0
3, 68036, Note_on_c, 0, 45, 113
3, 68098, Note_on_c, 0, 45, 0
3, 68167, Note_on_c, 0, 46, 116
3, 68317, Note_on_c, 0, 46, 0
3, 68404, Note_on_c, 0, 48, 116
3, 68557, Note_on_c, 0, 48, 0
3, 68642, Note_on_c, 0, 50, 117
3, 68787, Note_on_c, 0, 50, 0
3, 68877, Note_on_c, 0, 38, 118
3, 69020, Note_on_c, 0, 38, 0
3, 69121, Note_on_c, 0, 43, 119
3, 69482, Note_on_c, 0, 43, 0
3, 69963, Note_on_c, 0, 54, 103
3, 70085, Note_on_c, 0, 55, 101
3, 70090, Note_on_c, 0, 54, 0
3, 70208, Note_on_c, 0, 46, 98
3, 70330, Note_on_c, 0, 48, 95
3, 70335, Note_on_c, 0, 46, 0
3, 70448, Note_on_c, 0, 48, 0
3, 70450, Note_on_c, 0, 50, 93
3, 70581, Note_on_c, 0, 43, 90
3, 70607, Note_on_c, 0, 50, 0
3, 70865, Note_on_c, 0, 55, 0
3, 70881, Note_on_c, 0, 43, 0
3, 71046, Note_on_c, 0, 50, 96
3, 71639, Note_on_c, 0, 50, 0
3, 71642, Note_on_c, 0, 57, 96
3, 71763, Note_on_c, 0, 58, 96
3, 71772, Note_on_c, 0, 57, 0
3, 71876, Note_on_c, 0, 58, 0
3, 71877, Note_on_c, 0, 60, 96
3, 71997, Note_on_c, 0, 53, 96
3, 72003, Note_on_c, 0, 60, 0
3, 72235, Note_on_c, 0, 51, 96
3, 72237, Note_on_c, 0, 60, 96
3, 72243, Note_on_c, 0, 53, 0
3, 72475, Note_on_c, 0, 53, 96
3, 72479, Note_on_c, 0, 51, 0
3, 72717, Note_on_c, 0, 59, 96
3, 72722, Note_on_c, 0, 60, 0
3, 72723, Note_on_c, 0, 55, 96
3, 72724, Note_on_c, 0, 53, 0
3, 72902, Note_on_c, 0, 59, 0
3, 72961, Note_on_c, 0, 48, 96
3, 72965, Note_on_c, 0, 55, 0
3, 73081, Note_on_c, 0, 60, 96
3, 73086, Note_on_c, 0, 48, 0
3, 73198, Note_on_c, 0, 60, 0
3, 73202, Note_on_c, 0, 55, 96
3, 73314, Note_on_c, 0, 51, 96
3, 73317, Note_on_c, 0, 55, 0
3, 73435, Note_on_c, 0, 48, 96
3, 73438, Note_on_c, 0, 51, 0
3, 73557, Note_on_c, 0, 47, 96
3, 73560, Note_on_c, 0, 48, 0
3, 73676, Note_on_c, 0, 48, 96
3, 73681, Note_on_c, 0, 47, 0
3, 73788, Note_on_c, 0, 48, 0
3, 73794, Note_on_c, 0, 50, 96
3, 73917, Note_on_c, 0, 52, 96
3, 73926, Note_on_c, 0, 50, 0
3, 74035, Note_on_c, 0, 50, 97
3, 74039, Note_on_c, 0, 52, 0
3, 74165, Note_on_c, 0, 48, 95
3, 74173, Note_on_c, 0, 50, 0
3, 74279, Note_on_c, 0, 48, 0
3, 74281, Note_on_c, 0, 53, 93
3, 74399, Note_on_c, 0, 53, 0
3, 74400, Note_on_c, 0, 55, 91
3, 74517, Note_on_c, 0, 57, 89
3, 74519, Note_on_c, 0, 55, 0
3, 74636, Note_on_c, 0, 58, 87
3, 74640, Note_on_c, 0, 57, 0
3, 74756, Note_on_c, 0, 60, 85
3, 74762, Note_on_c, 0, 58, 0
3, 74877, Note_on_c, 0, 57, 83
3, 74878, Note_on_c, 0, 60, 0
3, 74988, Note_on_c, 0, 57, 0
3, 74993, Note_on_c, 0, 55, 81
3, 75119, Note_on_c, 0, 53, 81
3, 75123, Note_on_c, 0, 55, 0
3, 75219, Note_on_c, 0, 53, 0
3, 75364, Note_on_c, 0, 58, 81
3, 75492, Note_on_c, 0, 58, 0
3, 75603, Note_on_c, 0, 50, 80
3, 75730, Note_on_c, 0, 50, 0
3, 75840, Note_on_c, 0, 51, 80
3, 75982, Note_on_c, 0, 51, 0
3, 76081, Note_on_c, 0, 39, 80
3, 76201, Note_on_c, 0, 39, 0
3, 76322, Note_on_c, 0, 51, 83
3, 76446, Note_on_c, 0, 51, 0
3, 76558, Note_on_c, 0, 48, 85
3, 76674, Note_on_c, 0, 48, 0
3, 76796, Note_on_c, 0, 53, 87
3, 76916, Note_on_c, 0, 41, 89
3, 76917, Note_on_c, 0, 53, 0
3, 77035, Note_on_c, 0, 45, 90
3, 77043, Note_on_c, 0, 41, 0
3, 77156, Note_on_c, 0, 48, 91
3, 77162, Note_on_c, 0, 45, 0
3, 77275, Note_on_c, 0, 51, 92
3, 77276, Note_on_c, 0, 48, 0
3, 77394, Note_on_c, 0, 55, 94
3, 77400, Note_on_c, 0, 51, 0
3, 77519, Note_on_c, 0, 53, 95
3, 77525, Note_on_c, 0, 55, 0
3, 77636, Note_on_c, 0, 51, 96
3, 77639, Note_on_c, 0, 53, 0
3, 77759, Note_on_c, 0, 50, 97
3, 77767, Note_on_c, 0, 51, 0
3, 77874, Note_on_c, 0, 48, 99
3, 77879, Note_on_c, 0, 50, 0
3, 77992, Note_on_c, 0, 46, 100
3, 77995, Note_on_c, 0, 48, 0
3, 78114, Note_on_c, 0, 51, 101
3, 78117, Note_on_c, 0, 46, 0
3, 78239, Note_on_c, 0, 53, 102
3, 78249, Note_on_c, 0, 51, 0
3, 78413, Note_on_c, 0, 53, 0
3, 78483, Note_on_c, 0, 41, 100
3, 78594, Note_on_c, 0, 41, 0
3, 78714, Note_on_c, 0, 46, 95
3, 78842, Note_on_c, 0, 58, 93
3, 78854, Note_on_c, 0, 46, 0
3, 78961, Note_on_c, 0, 58, 0
3, 78964, Note_on_c, 0, 53, 90
3, 79083, Note_on_c, 0, 50, 87
3, 79086, Note_on_c, 0, 53, 0
3, 79195, Note_on_c, 0, 50, 0
3, 79197, Note_on_c, 0, 46, 85
3, 79316, Note_on_c, 0, 43, 82
3, 79319, Note_on_c, 0, 46, 0
3, 79433, Note_on_c, 0, 45, 78
3, 79434, Note_on_c, 0, 43, 0
3, 79559, Note_on_c, 0, 46, 78
3, 79567, Note_on_c, 0, 45, 0
3, 79678, Note_on_c, 0, 48, 78
3, 79680, Note_on_c, 0, 46, 0
3, 79796, Note_on_c, 0, 46, 78
3, 79803, Note_on_c, 0, 48, 0
3, 79918, Note_on_c, 0, 45, 78
3, 79924, Note_on_c, 0, 46, 0
3, 80037, Note_on_c, 0, 50, 78
3, 80038, Note_on_c, 0, 45, 0
3, 80151, Note_on_c, 0, 50, 0
3, 80157, Note_on_c, 0, 52, 78
3, 80275, Note_on_c, 0, 54, 78
3, 80278, Note_on_c, 0, 52, 0
3, 80393, Note_on_c, 0, 54, 0
3, 80394, Note_on_c, 0, 55, 78
3, 80514, Note_on_c, 0, 57, 78
3, 80523, Note_on_c, 0, 55, 0
3, 80637, Note_on_c, 0, 50, 78
3, 80639, Note_on_c, 0, 57, 0
3, 81234, Note_on_c, 0, 50, 0
3, 81234, Note_on_c, 0, 55, 78
3, 81354, Note_on_c, 0, 54, 78
3, 81360, Note_on_c, 0, 55, 0
3, 81474, Note_on_c, 0, 55, 78
3, 81475, Note_on_c, 0, 54, 0
3, 81599, Note_on_c, 0, 48, 78
3, 81604, Note_on_c, 0, 55, 0
3, 81743, Note_on_c, 0, 48, 0
3, 81838, Note_on_c, 0, 46, 78
3, 81843, Note_on_c, 0, 55, 78
3, 82082, Note_on_c, 0, 48, 78
3, 82089, Note_on_c, 0, 46, 0
3, 82312, Note_on_c, 0, 48, 0
3, 82317, Note_on_c, 0, 54, 78
3, 82321, Note_on_c, 0, 55, 0
3, 82321, Note_on_c, 0, 50, 78
3, 82557, Note_on_c, 0, 50, 0
3, 82562, Note_on_c, 0, 55, 78
3, 82563, Note_on_c, 0, 54, 0
3, 82678, Note_on_c, 0, 43, 79
3, 82726, Note_on_c, 0, 55, 0
3, 82801, Note_on_c, 0, 46, 81
3, 82804, Note_on_c, 0, 43, 0
3, 82921, Note_on_c, 0, 50, 83
3, 82927, Note_on_c, 0, 46, 0
3, 83043, Note_on_c, 0, 55, 84
3, 83046, Note_on_c, 0, 50, 0
3, 83146, Note_on_c, 0, 55, 0
3, 83159, Note_on_c, 0, 55, 86
3, 83276, Note_on_c, 0, 55, 0
3, 83279, Note_on_c, 0, 53, 88
3, 83401, Note_on_c, 0, 51, 89
3, 83404, Note_on_c, 0, 53, 0
3, 83522, Note_on_c, 0, 51, 0
3, 83522, Note_on_c, 0, 50, 91
3, 83633, Note_on_c, 0, 50, 0
3, 83634, Note_on_c, 0, 51, 93
3, 83757, Note_on_c, 0, 51, 0
3, 83758, Note_on_c, 0, 53, 94
3, 83878, Note_on_c, 0, 48, 96
3, 83880, Note_on_c, 0, 53, 0
3, 83996, Note_on_c, 0, 48, 0
3, 84000, Note_on_c, 0, 46, 98
3, 84113, Note_on_c, 0, 44, 99
3, 84123, Note_on_c, 0, 46, 0
3, 84235, Note_on_c, 0, 43, 99
3, 84245, Note_on_c, 0, 44, 0
3, 84352, Note_on_c, 0, 41, 99
3, 84359, Note_on_c, 0, 43, 0
3, 84477, Note_on_c, 0, 39, 100
3, 84483, Note_on_c, 0, 41, 0
3, 84956, Note_on_c, 0, 39, 0
3, 84960, Note_on_c, 0, 51, 102
3, 85553, Note_on_c, 0, 67, 101
3, 85561, Note_on_c, 0, 51, 0
3, 85675, Note_on_c, 0, 65, 101
3, 85678, Note_on_c, 0, 67, 0
3, 85797, Note_on_c, 0, 63, 101
3, 85805, Note_on_c, 0, 65, 0
3, 85919, Note_on_c, 0, 62, 101
3, 85927, Note_on_c, 0, 63, 0
3, 86040, Note_on_c, 0, 63, 101
3, 86049, Note_on_c, 0, 62, 0
3, 86159, Note_on_c, 0, 65, 101
3, 86162, Note_on_c, 0, 63, 0
3, 86277, Note_on_c, 0, 56, 101
3, 86283, Note_on_c, 0, 65, 0
3, 86398, Note_on_c, 0, 55, 101
3, 86399, Note_on_c, 0, 56, 0
3, 86523, Note_on_c, 0, 53, 101
3, 86530, Note_on_c, 0, 55, 0
3, 86640, Note_on_c, 0, 51, 101
3, 86642, Note_on_c, 0, 53, 0
3, 86762, Note_on_c, 0, 50, 101
3, 86770, Note_on_c, 0, 51, 0
3, 86886, Note_on_c, 0, 48, 101
3, 86890, Note_on_c, 0, 50, 0
3, 87004, Note_on_c, 0, 50, 101
3, 87047, Note_on_c, 0, 48, 0
3, 87119, Note_on_c, 0, 50, 0
3, 87123, Note_on_c, 0, 51, 101
3, 87232, Note_on_c, 0, 43, 101
3, 87250, Note_on_c, 0, 51, 0
3, 87359, Note_on_c, 0, 43, 0
3, 87365, Note_on_c, 0, 42, 98
3, 87600, Note_on_c, 0, 43, 94
3, 87602, Note_on_c, 0, 42, 0
3, 87836, Note_on_c, 0, 43, 0
3, 87841, Note_on_c, 0, 48, 90
3, 88031, Note_on_c, 0, 48, 0
3, 88077, Note_on_c, 0, 45, 86
3, 88244, Note_on_c, 0, 45, 0
3, 88325, Note_on_c, 0, 50, 82
3, 88619, Note_on_c, 0, 50, 0
3, 88678, Note_on_c, 0, 63, 79
3, 88803, Note_on_c, 0, 62, 79
3, 88808, Note_on_c, 0, 63, 0
3, 88917, Note_on_c, 0, 62, 0
3, 88921, Note_on_c, 0, 60, 79
3, 89041, Note_on_c, 0, 58, 79
3, 89043, Note_on_c, 0, 60, 0
3, 89159, Note_on_c, 0, 57, 79
3, 89165, Note_on_c, 0, 58, 0
3, 89283, Note_on_c, 0, 58, 79
3, 89293, Note_on_c, 0, 57, 0
3, 89402, Note_on_c, 0, 60, 80
3, 89405, Note_on_c, 0, 58, 0
3, 89516, Note_on_c, 0, 60, 0
3, 89521, Note_on_c, 0, 62, 83
3, 89642, Note_on_c, 0, 62, 0
3, 89643, Note_on_c, 0, 58, 85
3, 89762, Note_on_c, 0, 57, 87
3, 89771, Note_on_c, 0, 58, 0
3, 89878, Note_on_c, 0, 57, 0
3, 89881, Note_on_c, 0, 55, 90
3, 89999, Note_on_c, 0, 54, 92
3, 90003, Note_on_c, 0, 55, 0
3, 90117, Note_on_c, 0, 52, 94
3, 90119, Note_on_c, 0, 54, 0
3, 90239, Note_on_c, 0, 54, 97
3, 90248, Note_on_c, 0, 52, 0
3, 90357, Note_on_c, 0, 55, 99
3, 90363, Note_on_c, 0, 54, 0
3, 90476, Note_on_c, 0, 57, 101
3, 90477, Note_on_c, 0, 55, 0
3, 90591, Note_on_c, 0, 57, 0
3, 90594, Note_on_c, 0, 51, 104
3, 90719, Note_on_c, 0, 50, 106
3, 90729, Note_on_c, 0, 51, 0
3, 90842, Note_on_c, 0, 48, 108
3, 90847, Note_on_c, 0, 50, 0
3, 90958, Note_on_c, 0, 46, 111
3, 90961, Note_on_c, 0, 48, 0
3, 91075, Note_on_c, 0, 46, 0
3, 91076, Note_on_c, 0, 45, 113
3, 91138, Note_on_c, 0, 45, 0
3, 91207, Note_on_c, 0, 46, 116
3, 91357, Note_on_c, 0, 46, 0
3, 91444, Note_on_c, 0, 48, 116
3, 91597, Note_on_c, 0, 48, 0
3, 91682, Note_on_c, 0, 50, 117
3, 91827, Note_on_c, 0, 50, 0
3, 91917, Note_on_c, 0, 38, 118
3, 92060, Note_on_c, 0, 38, 0
3, 92161, Note_on_c, 0, 43, 119
3, 92522, Note_on_c, 0, 43, 0
3, 93003, Note_on_c, 0, 54, 103
3, 93125, Note_on_c, 0, 55, 101
3, 93130, Note_on_c, 0, 54, 0
3, 93248, Note_on_c, 0, 46, 98
3, 93370, Note_on_c, 0, 48, 95
3, 93375, Note_on_c, 0, 46, 0
3, 93488, Note_on_c, 0, 48, 0
3, 93490, Note_on_c, 0, 50, 93
3, 93621, Note_on_c, 0, 43, 90
3, 93647, Note_on_c, 0, 50, 0
3, 93895, Note_on_c, 0, 55, 0
3, 93911, Note_on_c, 0, 43, 0
3, 93911, End_track
0, 0, End_of_file
