0, 0, Header, 1, 2, 384
1, 0, Start_track
1, 0, Title_t, "--------"
1, 0, Text_t, "harpsichord: John Sankey\012"
1, 0, Time_signature, 4, 2, 24, 8
1, 0, Key_signature, 0, "major"
1, 0, Tempo, 909091
1, 38400, Time_signature, 6, 3, 12, 8
1, 38400, Tempo, 895522
1, 72960, Tempo, 983607
1, 102912, Time_signature, 4, 2, 24, 8
1, 102912, Tempo, 821918
1, 129024, Time_signature, 6, 3, 12, 8
1, 129024, Tempo, 750000
1, 158976, Tempo, 759494
1, 164736, Tempo, 714286
1, 164736, End_track
2, 0, Start_track
2, 0, Title_t, "Ger.8l"
2, 0, Program_c, 0, 6
2, 0, Control_c, 0, 7, 100
2, 0, Program_c, 0, 7
2, 0, Pitch_bend_c, 0, 8192
2, 0, Program_c, 0, 7
2, 0, Pitch_bend_c, 0, 7790
2, 0, Program_c, 0, 7
2, 0, Pitch_bend_c, 0, 7876
2, 0, Program_c, 0, 7
2, 0, Pitch_bend_c, 0, 7952
2, 0, Program_c, 0, 7
2, 0, Pitch_bend_c, 0, 7792
2, 0, Program_c, 0, 7
2, 0, Pitch_bend_c, 0, 8112
2, 0, Program_c, 0, 7
2, 0, Pitch_bend_c, 0, 7710
2, 0, Program_c, 0, 7
2, 0, Pitch_bend_c, 0, 8037
2, 0, Program_c, 0, 7
2, 0, Pitch_bend_c, 0, 7870
2, 0, Program_c, 0, 7
2, 0, Pitch_bend_c, 0, 7712
2, 0, Program_c, 0, 7
2, 0, Pitch_bend_c, 0, 8032
2, 0, Program_c, 0, 7
2, 0, Pitch_bend_c, 0, 7872
2, 96, Note_on_c, 0, 66, 102
2, 191, Note_on_c, 0, 66, 0
2, 192, Note_on_c, 0, 71, 102
2, 287, Note_on_c, 0, 71, 0
2, 288, Note_on_c, 0, 70, 102
2, 383, Note_on_c, 0, 70, 0
2, 384, Note_on_c, 0, 71, 102
2, 431, Note_on_c, 0, 71, 0
2, 432, Note_on_c, 0, 70, 102
2, 479, Note_on_c, 0, 70, 0
2, 480, Note_on_c, 0, 54, 102
2, 480, Note_on_c, 0, 71, 102
2, 575, Note_on_c, 0, 54, 0
2, 576, Note_on_c, 0, 59, 102
2, 671, Note_on_c, 0, 59, 0
2, 671, Note_on_c, 0, 71, 0
2, 672, Note_on_c, 0, 58, 102
2, 672, Note_on_c, 0, 73, 102
2, 767, Note_on_c, 0, 73, 0
2, 767, Note_on_c, 0, 58, 0
2, 768, Note_on_c, 0, 59, 102
2, 768, Note_on_c, 0, 74, 102
2, 863, Note_on_c, 0, 74, 0
2, 864, Note_on_c, 0, 71, 102
2, 959, Note_on_c, 0, 71, 0
2, 959, Note_on_c, 0, 59, 0
2, 960, Note_on_c, 0, 61, 102
2, 960, Note_on_c, 0, 76, 102
2, 1055, Note_on_c, 0, 76, 0
2, 1056, Note_on_c, 0, 71, 102
2, 1151, Note_on_c, 0, 71, 0
2, 1151, Note_on_c, 0, 61, 0
2, 1152, Note_on_c, 0, 62, 102
2, 1152, Note_on_c, 0, 78, 102
2, 1247, Note_on_c, 0, 62, 0
2, 1248, Note_on_c, 0, 59, 102
2, 1343, Note_on_c, 0, 59, 0
2, 1343, Note_on_c, 0, 78, 0
2, 1344, Note_on_c, 0, 67, 102
2, 1344, Note_on_c, 0, 71, 102
2, 1439, Note_on_c, 0, 67, 0
2, 1440, Note_on_c, 0, 66, 102
2, 1535, Note_on_c, 0, 66, 0
2, 1536, Note_on_c, 0, 67, 102
2, 1583, Note_on_c, 0, 67, 0
2, 1584, Note_on_c, 0, 66, 102
2, 1594, Note_on_c, 0, 71, 0
2, 1631, Note_on_c, 0, 66, 0
2, 1632, Note_on_c, 0, 67, 102
2, 1632, Note_on_c, 0, 71, 102
2, 1727, Note_on_c, 0, 71, 0
2, 1728, Note_on_c, 0, 76, 102
2, 1823, Note_on_c, 0, 76, 0
2, 1823, Note_on_c, 0, 67, 0
2, 1824, Note_on_c, 0, 66, 102
2, 1824, Note_on_c, 0, 74, 102
2, 1919, Note_on_c, 0, 74, 0
2, 1919, Note_on_c, 0, 66, 0
2, 1920, Note_on_c, 0, 64, 102
2, 1920, Note_on_c, 0, 79, 102
2, 2015, Note_on_c, 0, 79, 0
2, 2016, Note_on_c, 0, 76, 102
2, 2111, Note_on_c, 0, 76, 0
2, 2111, Note_on_c, 0, 64, 0
2, 2112, Note_on_c, 0, 61, 102
2, 2112, Note_on_c, 0, 82, 102
2, 2207, Note_on_c, 0, 82, 0
2, 2208, Note_on_c, 0, 83, 102
2, 2303, Note_on_c, 0, 83, 0
2, 2303, Note_on_c, 0, 61, 0
2, 2304, Note_on_c, 0, 66, 102
2, 2304, Note_on_c, 0, 73, 102
2, 2399, Note_on_c, 0, 73, 0
2, 2400, Note_on_c, 0, 79, 102
2, 2495, Note_on_c, 0, 79, 0
2, 2495, Note_on_c, 0, 66, 0
2, 2496, Note_on_c, 0, 54, 102
2, 2496, Note_on_c, 0, 78, 102
2, 2591, Note_on_c, 0, 78, 0
2, 2592, Note_on_c, 0, 76, 102
2, 2687, Note_on_c, 0, 76, 0
2, 2687, Note_on_c, 0, 54, 0
2, 2688, Note_on_c, 0, 59, 102
2, 2688, Note_on_c, 0, 74, 102
2, 2783, Note_on_c, 0, 74, 0
2, 2784, Note_on_c, 0, 78, 102
2, 2879, Note_on_c, 0, 78, 0
2, 2879, Note_on_c, 0, 59, 0
2, 2880, Note_on_c, 0, 61, 102
2, 2880, Note_on_c, 0, 71, 102
2, 2975, Note_on_c, 0, 71, 0
2, 2976, Note_on_c, 0, 70, 102
2, 3071, Note_on_c, 0, 70, 0
2, 3071, Note_on_c, 0, 61, 0
2, 3072, Note_on_c, 0, 62, 102
2, 3072, Note_on_c, 0, 71, 102
2, 3167, Note_on_c, 0, 71, 0
2, 3168, Note_on_c, 0, 74, 102
2, 3263, Note_on_c, 0, 74, 0
2, 3263, Note_on_c, 0, 62, 0
2, 3264, Note_on_c, 0, 59, 102
2, 3264, Note_on_c, 0, 67, 102
2, 3359, Note_on_c, 0, 67, 0
2, 3360, Note_on_c, 0, 66, 102
2, 3455, Note_on_c, 0, 66, 0
2, 3455, Note_on_c, 0, 59, 0
2, 3456, Note_on_c, 0, 52, 102
2, 3456, Note_on_c, 0, 67, 102
2, 3551, Note_on_c, 0, 52, 0
2, 3552, Note_on_c, 0, 59, 102
2, 3596, Note_on_c, 0, 67, 0
2, 3647, Note_on_c, 0, 59, 0
2, 3648, Note_on_c, 0, 64, 102
2, 3648, Note_on_c, 0, 83, 102
2, 3743, Note_on_c, 0, 64, 0
2, 3744, Note_on_c, 0, 62, 102
2, 3839, Note_on_c, 0, 62, 0
2, 3840, Note_on_c, 0, 61, 102
2, 3935, Note_on_c, 0, 83, 0
2, 3936, Note_on_c, 0, 79, 102
2, 4031, Note_on_c, 0, 79, 0
2, 4031, Note_on_c, 0, 61, 0
2, 4032, Note_on_c, 0, 59, 102
2, 4032, Note_on_c, 0, 76, 102
2, 4127, Note_on_c, 0, 76, 0
2, 4128, Note_on_c, 0, 74, 102
2, 4223, Note_on_c, 0, 74, 0
2, 4223, Note_on_c, 0, 59, 0
2, 4224, Note_on_c, 0, 57, 102
2, 4224, Note_on_c, 0, 73, 102
2, 4319, Note_on_c, 0, 73, 0
2, 4320, Note_on_c, 0, 76, 102
2, 4415, Note_on_c, 0, 76, 0
2, 4415, Note_on_c, 0, 57, 0
2, 4416, Note_on_c, 0, 55, 102
2, 4416, Note_on_c, 0, 69, 102
2, 4511, Note_on_c, 0, 69, 0
2, 4512, Note_on_c, 0, 67, 102
2, 4607, Note_on_c, 0, 67, 0
2, 4607, Note_on_c, 0, 55, 0
2, 4608, Note_on_c, 0, 54, 102
2, 4608, Note_on_c, 0, 69, 102
2, 4703, Note_on_c, 0, 69, 0
2, 4704, Note_on_c, 0, 73, 102
2, 4799, Note_on_c, 0, 73, 0
2, 4799, Note_on_c, 0, 54, 0
2, 4800, Note_on_c, 0, 52, 102
2, 4800, Note_on_c, 0, 66, 102
2, 4895, Note_on_c, 0, 66, 0
2, 4896, Note_on_c, 0, 64, 102
2, 4991, Note_on_c, 0, 64, 0
2, 4991, Note_on_c, 0, 52, 0
2, 4992, Note_on_c, 0, 50, 102
2, 4992, Note_on_c, 0, 66, 102
2, 5087, Note_on_c, 0, 50, 0
2, 5088, Note_on_c, 0, 57, 102
2, 5132, Note_on_c, 0, 66, 0
2, 5183, Note_on_c, 0, 57, 0
2, 5184, Note_on_c, 0, 62, 102
2, 5184, Note_on_c, 0, 81, 102
2, 5279, Note_on_c, 0, 62, 0
2, 5280, Note_on_c, 0, 61, 102
2, 5375, Note_on_c, 0, 61, 0
2, 5376, Note_on_c, 0, 59, 102
2, 5471, Note_on_c, 0, 81, 0
2, 5472, Note_on_c, 0, 78, 102
2, 5567, Note_on_c, 0, 78, 0
2, 5567, Note_on_c, 0, 59, 0
2, 5568, Note_on_c, 0, 57, 102
2, 5568, Note_on_c, 0, 74, 102
2, 5663, Note_on_c, 0, 74, 0
2, 5664, Note_on_c, 0, 73, 102
2, 5759, Note_on_c, 0, 73, 0
2, 5759, Note_on_c, 0, 57, 0
2, 5760, Note_on_c, 0, 55, 102
2, 5760, Note_on_c, 0, 71, 102
2, 5855, Note_on_c, 0, 71, 0
2, 5856, Note_on_c, 0, 74, 102
2, 5951, Note_on_c, 0, 74, 0
2, 5951, Note_on_c, 0, 55, 0
2, 5952, Note_on_c, 0, 54, 102
2, 5952, Note_on_c, 0, 67, 102
2, 6047, Note_on_c, 0, 67, 0
2, 6048, Note_on_c, 0, 66, 102
2, 6143, Note_on_c, 0, 66, 0
2, 6143, Note_on_c, 0, 54, 0
2, 6144, Note_on_c, 0, 52, 102
2, 6144, Note_on_c, 0, 67, 102
2, 6239, Note_on_c, 0, 67, 0
2, 6240, Note_on_c, 0, 71, 102
2, 6335, Note_on_c, 0, 71, 0
2, 6335, Note_on_c, 0, 52, 0
2, 6336, Note_on_c, 0, 50, 102
2, 6336, Note_on_c, 0, 76, 102
2, 6431, Note_on_c, 0, 76, 0
2, 6432, Note_on_c, 0, 74, 102
2, 6527, Note_on_c, 0, 74, 0
2, 6527, Note_on_c, 0, 50, 0
2, 6528, Note_on_c, 0, 49, 102
2, 6528, Note_on_c, 0, 76, 102
2, 6623, Note_on_c, 0, 49, 0
2, 6624, Note_on_c, 0, 52, 102
2, 6719, Note_on_c, 0, 52, 0
2, 6720, Note_on_c, 0, 57, 102
2, 6788, Note_on_c, 0, 76, 0
2, 6815, Note_on_c, 0, 57, 0
2, 6816, Note_on_c, 0, 55, 102
2, 6816, Note_on_c, 0, 64, 102
2, 6911, Note_on_c, 0, 64, 0
2, 6911, Note_on_c, 0, 55, 0
2, 6912, Note_on_c, 0, 57, 102
2, 6912, Note_on_c, 0, 66, 102
2, 7007, Note_on_c, 0, 66, 0
2, 7008, Note_on_c, 0, 69, 102
2, 7103, Note_on_c, 0, 69, 0
2, 7104, Note_on_c, 0, 74, 102
2, 7199, Note_on_c, 0, 74, 0
2, 7199, Note_on_c, 0, 57, 0
2, 7200, Note_on_c, 0, 54, 102
2, 7200, Note_on_c, 0, 73, 102
2, 7295, Note_on_c, 0, 73, 0
2, 7295, Note_on_c, 0, 54, 0
2, 7296, Note_on_c, 0, 47, 102
2, 7296, Note_on_c, 0, 74, 102
2, 7391, Note_on_c, 0, 47, 0
2, 7392, Note_on_c, 0, 54, 102
2, 7487, Note_on_c, 0, 54, 0
2, 7488, Note_on_c, 0, 59, 102
2, 7566, Note_on_c, 0, 74, 0
2, 7583, Note_on_c, 0, 59, 0
2, 7584, Note_on_c, 0, 57, 102
2, 7584, Note_on_c, 0, 71, 102
2, 7679, Note_on_c, 0, 71, 0
2, 7679, Note_on_c, 0, 57, 0
2, 7680, Note_on_c, 0, 55, 102
2, 7680, Note_on_c, 0, 76, 102
2, 7775, Note_on_c, 0, 76, 0
2, 7776, Note_on_c, 0, 79, 102
2, 7871, Note_on_c, 0, 79, 0
2, 7871, Note_on_c, 0, 55, 0
2, 7872, Note_on_c, 0, 57, 102
2, 7872, Note_on_c, 0, 83, 102
2, 7967, Note_on_c, 0, 83, 0
2, 7968, Note_on_c, 0, 73, 102
2, 8063, Note_on_c, 0, 73, 0
2, 8063, Note_on_c, 0, 57, 0
2, 8064, Note_on_c, 0, 50, 102
2, 8064, Note_on_c, 0, 74, 102
2, 8128, Note_on_c, 0, 74, 0
2, 8160, Note_on_c, 0, 66, 102
2, 8255, Note_on_c, 0, 66, 0
2, 8256, Note_on_c, 0, 71, 102
2, 8351, Note_on_c, 0, 71, 0
2, 8352, Note_on_c, 0, 70, 102
2, 8447, Note_on_c, 0, 70, 0
2, 8448, Note_on_c, 0, 71, 102
2, 8504, Note_on_c, 0, 50, 0
2, 8544, Note_on_c, 0, 47, 102
2, 8639, Note_on_c, 0, 47, 0
2, 8640, Note_on_c, 0, 55, 102
2, 8735, Note_on_c, 0, 55, 0
2, 8736, Note_on_c, 0, 54, 102
2, 8831, Note_on_c, 0, 54, 0
2, 8832, Note_on_c, 0, 55, 102
2, 8888, Note_on_c, 0, 71, 0
2, 8928, Note_on_c, 0, 70, 102
2, 9023, Note_on_c, 0, 70, 0
2, 9023, Note_on_c, 0, 55, 0
2, 9024, Note_on_c, 0, 49, 102
2, 9024, Note_on_c, 0, 76, 102
2, 9119, Note_on_c, 0, 76, 0
2, 9120, Note_on_c, 0, 74, 102
2, 9215, Note_on_c, 0, 74, 0
2, 9216, Note_on_c, 0, 76, 102
2, 9284, Note_on_c, 0, 49, 0
2, 9312, Note_on_c, 0, 54, 102
2, 9407, Note_on_c, 0, 54, 0
2, 9408, Note_on_c, 0, 59, 102
2, 9503, Note_on_c, 0, 59, 0
2, 9504, Note_on_c, 0, 58, 102
2, 9599, Note_on_c, 0, 58, 0
2, 9600, Note_on_c, 0, 59, 102
2, 9656, Note_on_c, 0, 76, 0
2, 9696, Note_on_c, 0, 74, 102
2, 9791, Note_on_c, 0, 74, 0
2, 9791, Note_on_c, 0, 59, 0
2, 9792, Note_on_c, 0, 47, 102
2, 9792, Note_on_c, 0, 80, 102
2, 9887, Note_on_c, 0, 80, 0
2, 9888, Note_on_c, 0, 78, 102
2, 9983, Note_on_c, 0, 78, 0
2, 9984, Note_on_c, 0, 80, 102
2, 10052, Note_on_c, 0, 47, 0
2, 10080, Note_on_c, 0, 53, 102
2, 10175, Note_on_c, 0, 53, 0
2, 10176, Note_on_c, 0, 57, 102
2, 10271, Note_on_c, 0, 57, 0
2, 10272, Note_on_c, 0, 56, 102
2, 10367, Note_on_c, 0, 56, 0
2, 10368, Note_on_c, 0, 57, 102
2, 10424, Note_on_c, 0, 80, 0
2, 10464, Note_on_c, 0, 73, 102
2, 10559, Note_on_c, 0, 73, 0
2, 10560, Note_on_c, 0, 78, 102
2, 10655, Note_on_c, 0, 78, 0
2, 10656, Note_on_c, 0, 77, 102
2, 10751, Note_on_c, 0, 77, 0
2, 10752, Note_on_c, 0, 78, 102
2, 10843, Note_on_c, 0, 57, 0
2, 10848, Note_on_c, 0, 54, 102
2, 10848, Note_on_c, 0, 81, 102
2, 10853, Note_on_c, 0, 78, 0
2, 10943, Note_on_c, 0, 81, 0
2, 10943, Note_on_c, 0, 54, 0
2, 10944, Note_on_c, 0, 59, 102
2, 10944, Note_on_c, 0, 80, 102
2, 11039, Note_on_c, 0, 80, 0
2, 11039, Note_on_c, 0, 59, 0
2, 11040, Note_on_c, 0, 57, 102
2, 11040, Note_on_c, 0, 78, 102
2, 11135, Note_on_c, 0, 78, 0
2, 11135, Note_on_c, 0, 57, 0
2, 11136, Note_on_c, 0, 59, 102
2, 11136, Note_on_c, 0, 77, 102
2, 11231, Note_on_c, 0, 59, 0
2, 11232, Note_on_c, 0, 62, 102
2, 11316, Note_on_c, 0, 77, 0
2, 11327, Note_on_c, 0, 62, 0
2, 11328, Note_on_c, 0, 61, 102
2, 11328, Note_on_c, 0, 73, 102
2, 11423, Note_on_c, 0, 61, 0
2, 11424, Note_on_c, 0, 59, 102
2, 11478, Note_on_c, 0, 73, 0
2, 11519, Note_on_c, 0, 59, 0
2, 11520, Note_on_c, 0, 57, 102
2, 11520, Note_on_c, 0, 78, 102
2, 11615, Note_on_c, 0, 57, 0
2, 11616, Note_on_c, 0, 54, 102
2, 11711, Note_on_c, 0, 54, 0
2, 11712, Note_on_c, 0, 59, 102
2, 11807, Note_on_c, 0, 59, 0
2, 11807, Note_on_c, 0, 78, 0
2, 11808, Note_on_c, 0, 58, 102
2, 11808, Note_on_c, 0, 76, 102
2, 11903, Note_on_c, 0, 76, 0
2, 11903, Note_on_c, 0, 58, 0
2, 11904, Note_on_c, 0, 59, 102
2, 11904, Note_on_c, 0, 74, 102
2, 11999, Note_on_c, 0, 74, 0
2, 12000, Note_on_c, 0, 66, 102
2, 12095, Note_on_c, 0, 66, 0
2, 12095, Note_on_c, 0, 59, 0
2, 12096, Note_on_c, 0, 57, 102
2, 12096, Note_on_c, 0, 71, 102
2, 12191, Note_on_c, 0, 71, 0
2, 12192, Note_on_c, 0, 69, 102
2, 12287, Note_on_c, 0, 69, 0
2, 12287, Note_on_c, 0, 57, 0
2, 12288, Note_on_c, 0, 56, 102
2, 12288, Note_on_c, 0, 71, 102
2, 12383, Note_on_c, 0, 56, 0
2, 12384, Note_on_c, 0, 53, 102
2, 12479, Note_on_c, 0, 53, 0
2, 12480, Note_on_c, 0, 62, 102
2, 12575, Note_on_c, 0, 62, 0
2, 12576, Note_on_c, 0, 61, 102
2, 12671, Note_on_c, 0, 61, 0
2, 12672, Note_on_c, 0, 62, 102
2, 12728, Note_on_c, 0, 71, 0
2, 12768, Note_on_c, 0, 69, 102
2, 12863, Note_on_c, 0, 69, 0
2, 12863, Note_on_c, 0, 62, 0
2, 12864, Note_on_c, 0, 59, 102
2, 12864, Note_on_c, 0, 68, 102
2, 12959, Note_on_c, 0, 68, 0
2, 12960, Note_on_c, 0, 71, 102
2, 13055, Note_on_c, 0, 71, 0
2, 13055, Note_on_c, 0, 59, 0
2, 13056, Note_on_c, 0, 56, 102
2, 13056, Note_on_c, 0, 65, 102
2, 13151, Note_on_c, 0, 65, 0
2, 13152, Note_on_c, 0, 74, 102
2, 13247, Note_on_c, 0, 74, 0
2, 13247, Note_on_c, 0, 56, 0
2, 13248, Note_on_c, 0, 53, 102
2, 13248, Note_on_c, 0, 73, 102
2, 13343, Note_on_c, 0, 73, 0
2, 13344, Note_on_c, 0, 71, 102
2, 13439, Note_on_c, 0, 71, 0
2, 13439, Note_on_c, 0, 53, 0
2, 13440, Note_on_c, 0, 54, 102
2, 13440, Note_on_c, 0, 69, 102
2, 13535, Note_on_c, 0, 69, 0
2, 13536, Note_on_c, 0, 65, 102
2, 13631, Note_on_c, 0, 65, 0
2, 13631, Note_on_c, 0, 54, 0
2, 13632, Note_on_c, 0, 47, 102
2, 13632, Note_on_c, 0, 66, 102
2, 13727, Note_on_c, 0, 66, 0
2, 13728, Note_on_c, 0, 71, 102
2, 13823, Note_on_c, 0, 71, 0
2, 13823, Note_on_c, 0, 47, 0
2, 13824, Note_on_c, 0, 49, 102
2, 13824, Note_on_c, 0, 71, 102
2, 13871, Note_on_c, 0, 71, 0
2, 13872, Note_on_c, 0, 69, 102
2, 13919, Note_on_c, 0, 69, 0
2, 13920, Note_on_c, 0, 71, 102
2, 13967, Note_on_c, 0, 71, 0
2, 13968, Note_on_c, 0, 69, 102
2, 14015, Note_on_c, 0, 69, 0
2, 14015, Note_on_c, 0, 49, 0
2, 14016, Note_on_c, 0, 37, 102
2, 14016, Note_on_c, 0, 68, 102
2, 14111, Note_on_c, 0, 68, 0
2, 14112, Note_on_c, 0, 66, 102
2, 14207, Note_on_c, 0, 66, 0
2, 14207, Note_on_c, 0, 37, 0
2, 14208, Note_on_c, 0, 42, 102
2, 14208, Note_on_c, 0, 66, 102
2, 14303, Note_on_c, 0, 42, 0
2, 14304, Note_on_c, 0, 54, 102
2, 14399, Note_on_c, 0, 54, 0
2, 14400, Note_on_c, 0, 64, 102
2, 14495, Note_on_c, 0, 64, 0
2, 14496, Note_on_c, 0, 62, 102
2, 14591, Note_on_c, 0, 62, 0
2, 14592, Note_on_c, 0, 64, 102
2, 14687, Note_on_c, 0, 64, 0
2, 14688, Note_on_c, 0, 54, 102
2, 14783, Note_on_c, 0, 54, 0
2, 14784, Note_on_c, 0, 62, 102
2, 14879, Note_on_c, 0, 62, 0
2, 14880, Note_on_c, 0, 61, 102
2, 14975, Note_on_c, 0, 61, 0
2, 14975, Note_on_c, 0, 66, 0
2, 14976, Note_on_c, 0, 62, 102
2, 15071, Note_on_c, 0, 62, 0
2, 15072, Note_on_c, 0, 54, 102
2, 15072, Note_on_c, 0, 71, 102
2, 15167, Note_on_c, 0, 71, 0
2, 15167, Note_on_c, 0, 54, 0
2, 15168, Note_on_c, 0, 61, 102
2, 15168, Note_on_c, 0, 76, 102
2, 15263, Note_on_c, 0, 76, 0
2, 15263, Note_on_c, 0, 61, 0
2, 15264, Note_on_c, 0, 59, 102
2, 15264, Note_on_c, 0, 74, 102
2, 15359, Note_on_c, 0, 74, 0
2, 15359, Note_on_c, 0, 59, 0
2, 15360, Note_on_c, 0, 61, 102
2, 15360, Note_on_c, 0, 76, 102
2, 15455, Note_on_c, 0, 61, 0
2, 15456, Note_on_c, 0, 54, 102
2, 15456, Note_on_c, 0, 70, 102
2, 15540, Note_on_c, 0, 76, 0
2, 15551, Note_on_c, 0, 70, 0
2, 15551, Note_on_c, 0, 54, 0
2, 15552, Note_on_c, 0, 59, 102
2, 15552, Note_on_c, 0, 74, 102
2, 15647, Note_on_c, 0, 74, 0
2, 15647, Note_on_c, 0, 59, 0
2, 15648, Note_on_c, 0, 58, 102
2, 15648, Note_on_c, 0, 73, 102
2, 15743, Note_on_c, 0, 73, 0
2, 15743, Note_on_c, 0, 58, 0
2, 15744, Note_on_c, 0, 59, 102
2, 15744, Note_on_c, 0, 74, 102
2, 15840, Note_on_c, 0, 68, 102
2, 15914, Note_on_c, 0, 74, 0
2, 15935, Note_on_c, 0, 68, 0
2, 15936, Note_on_c, 0, 73, 102
2, 16031, Note_on_c, 0, 73, 0
2, 16032, Note_on_c, 0, 71, 102
2, 16127, Note_on_c, 0, 71, 0
2, 16128, Note_on_c, 0, 73, 102
2, 16223, Note_on_c, 0, 59, 0
2, 16224, Note_on_c, 0, 53, 102
2, 16319, Note_on_c, 0, 53, 0
2, 16320, Note_on_c, 0, 57, 102
2, 16415, Note_on_c, 0, 57, 0
2, 16416, Note_on_c, 0, 56, 102
2, 16511, Note_on_c, 0, 56, 0
2, 16512, Note_on_c, 0, 57, 102
2, 16588, Note_on_c, 0, 73, 0
2, 16608, Note_on_c, 0, 66, 102
2, 16703, Note_on_c, 0, 66, 0
2, 16703, Note_on_c, 0, 57, 0
2, 16704, Note_on_c, 0, 54, 102
2, 16704, Note_on_c, 0, 74, 102
2, 16799, Note_on_c, 0, 74, 0
2, 16800, Note_on_c, 0, 73, 102
2, 16895, Note_on_c, 0, 73, 0
2, 16895, Note_on_c, 0, 54, 0
2, 16896, Note_on_c, 0, 61, 102
2, 16896, Note_on_c, 0, 66, 102
2, 16943, Note_on_c, 0, 66, 0
2, 16944, Note_on_c, 0, 65, 102
2, 16991, Note_on_c, 0, 65, 0
2, 16992, Note_on_c, 0, 66, 102
2, 17039, Note_on_c, 0, 66, 0
2, 17040, Note_on_c, 0, 65, 102
2, 17087, Note_on_c, 0, 61, 0
2, 17088, Note_on_c, 0, 49, 102
2, 17183, Note_on_c, 0, 65, 0
2, 17184, Note_on_c, 0, 66, 102
2, 17279, Note_on_c, 0, 66, 0
2, 17279, Note_on_c, 0, 49, 0
2, 17280, Note_on_c, 0, 54, 102
2, 17280, Note_on_c, 0, 66, 102
2, 17376, Note_on_c, 0, 64, 102
2, 17471, Note_on_c, 0, 64, 0
2, 17472, Note_on_c, 0, 58, 102
2, 17472, Note_on_c, 0, 62, 102
2, 17567, Note_on_c, 0, 62, 0
2, 17568, Note_on_c, 0, 61, 102
2, 17663, Note_on_c, 0, 61, 0
2, 17664, Note_on_c, 0, 62, 102
2, 17759, Note_on_c, 0, 58, 0
2, 17760, Note_on_c, 0, 59, 102
2, 17855, Note_on_c, 0, 59, 0
2, 17855, Note_on_c, 0, 62, 0
2, 17856, Note_on_c, 0, 58, 102
2, 17856, Note_on_c, 0, 61, 102
2, 17951, Note_on_c, 0, 61, 0
2, 17951, Note_on_c, 0, 58, 0
2, 17952, Note_on_c, 0, 56, 102
2, 17952, Note_on_c, 0, 59, 102
2, 18047, Note_on_c, 0, 59, 0
2, 18047, Note_on_c, 0, 56, 0
2, 18048, Note_on_c, 0, 58, 102
2, 18048, Note_on_c, 0, 61, 102
2, 18428, Note_on_c, 0, 61, 0
2, 18428, Note_on_c, 0, 58, 0
2, 18430, Note_on_c, 0, 66, 0
2, 18430, Note_on_c, 0, 54, 0
2, 18528, Note_on_c, 0, 73, 102
2, 18623, Note_on_c, 0, 73, 0
2, 18624, Note_on_c, 0, 68, 102
2, 18719, Note_on_c, 0, 68, 0
2, 18720, Note_on_c, 0, 71, 102
2, 18815, Note_on_c, 0, 71, 0
2, 18816, Note_on_c, 0, 70, 102
2, 18912, Note_on_c, 0, 66, 102
2, 19007, Note_on_c, 0, 66, 0
2, 19008, Note_on_c, 0, 61, 102
2, 19086, Note_on_c, 0, 70, 0
2, 19103, Note_on_c, 0, 61, 0
2, 19104, Note_on_c, 0, 64, 102
2, 19104, Note_on_c, 0, 73, 102
2, 19199, Note_on_c, 0, 73, 0
2, 19199, Note_on_c, 0, 64, 0
2, 19200, Note_on_c, 0, 62, 102
2, 19200, Note_on_c, 0, 66, 102
2, 19295, Note_on_c, 0, 66, 0
2, 19296, Note_on_c, 0, 78, 102
2, 19391, Note_on_c, 0, 78, 0
2, 19391, Note_on_c, 0, 62, 0
2, 19392, Note_on_c, 0, 58, 102
2, 19392, Note_on_c, 0, 73, 102
2, 19487, Note_on_c, 0, 73, 0
2, 19488, Note_on_c, 0, 76, 102
2, 19582, Note_on_c, 0, 58, 0
2, 19583, Note_on_c, 0, 76, 0
2, 19584, Note_on_c, 0, 74, 102
2, 19680, Note_on_c, 0, 59, 102
2, 19775, Note_on_c, 0, 59, 0
2, 19776, Note_on_c, 0, 54, 102
2, 19854, Note_on_c, 0, 74, 0
2, 19871, Note_on_c, 0, 54, 0
2, 19872, Note_on_c, 0, 57, 102
2, 19872, Note_on_c, 0, 78, 102
2, 19967, Note_on_c, 0, 78, 0
2, 19967, Note_on_c, 0, 57, 0
2, 19968, Note_on_c, 0, 55, 102
2, 19968, Note_on_c, 0, 71, 102
2, 20063, Note_on_c, 0, 71, 0
2, 20064, Note_on_c, 0, 83, 102
2, 20159, Note_on_c, 0, 83, 0
2, 20159, Note_on_c, 0, 55, 0
2, 20160, Note_on_c, 0, 51, 102
2, 20160, Note_on_c, 0, 78, 102
2, 20255, Note_on_c, 0, 78, 0
2, 20256, Note_on_c, 0, 81, 102
2, 20351, Note_on_c, 0, 81, 0
2, 20351, Note_on_c, 0, 51, 0
2, 20352, Note_on_c, 0, 52, 102
2, 20352, Note_on_c, 0, 79, 102
2, 20447, Note_on_c, 0, 79, 0
2, 20448, Note_on_c, 0, 76, 102
2, 20543, Note_on_c, 0, 76, 0
2, 20543, Note_on_c, 0, 52, 0
2, 20544, Note_on_c, 0, 55, 102
2, 20544, Note_on_c, 0, 71, 102
2, 20639, Note_on_c, 0, 71, 0
2, 20640, Note_on_c, 0, 74, 102
2, 20735, Note_on_c, 0, 74, 0
2, 20735, Note_on_c, 0, 55, 0
2, 20736, Note_on_c, 0, 57, 102
2, 20736, Note_on_c, 0, 72, 102
2, 20831, Note_on_c, 0, 72, 0
2, 20832, Note_on_c, 0, 79, 102
2, 20927, Note_on_c, 0, 79, 0
2, 20927, Note_on_c, 0, 57, 0
2, 20928, Note_on_c, 0, 60, 102
2, 20928, Note_on_c, 0, 78, 102
2, 21023, Note_on_c, 0, 78, 0
2, 21024, Note_on_c, 0, 81, 102
2, 21098, Note_on_c, 0, 60, 0
2, 21119, Note_on_c, 0, 81, 0
2, 21120, Note_on_c, 0, 76, 102
2, 21215, Note_on_c, 0, 76, 0
2, 21216, Note_on_c, 0, 59, 102
2, 21216, Note_on_c, 0, 75, 102
2, 21311, Note_on_c, 0, 75, 0
2, 21311, Note_on_c, 0, 59, 0
2, 21312, Note_on_c, 0, 54, 102
2, 21312, Note_on_c, 0, 73, 102
2, 21407, Note_on_c, 0, 73, 0
2, 21407, Note_on_c, 0, 54, 0
2, 21408, Note_on_c, 0, 57, 102
2, 21408, Note_on_c, 0, 71, 102
2, 21503, Note_on_c, 0, 57, 0
2, 21504, Note_on_c, 0, 55, 102
2, 21518, Note_on_c, 0, 71, 0
2, 21600, Note_on_c, 0, 76, 102
2, 21695, Note_on_c, 0, 76, 0
2, 21695, Note_on_c, 0, 55, 0
2, 21696, Note_on_c, 0, 52, 102
2, 21696, Note_on_c, 0, 71, 102
2, 21791, Note_on_c, 0, 71, 0
2, 21792, Note_on_c, 0, 74, 102
2, 21887, Note_on_c, 0, 74, 0
2, 21887, Note_on_c, 0, 52, 0
2, 21888, Note_on_c, 0, 57, 102
2, 21888, Note_on_c, 0, 72, 102
2, 21984, Note_on_c, 0, 76, 102
2, 21998, Note_on_c, 0, 72, 0
2, 22079, Note_on_c, 0, 76, 0
2, 22079, Note_on_c, 0, 57, 0
2, 22080, Note_on_c, 0, 54, 102
2, 22080, Note_on_c, 0, 69, 102
2, 22175, Note_on_c, 0, 69, 0
2, 22176, Note_on_c, 0, 72, 102
2, 22271, Note_on_c, 0, 72, 0
2, 22271, Note_on_c, 0, 54, 0
2, 22272, Note_on_c, 0, 55, 102
2, 22272, Note_on_c, 0, 71, 102
2, 22368, Note_on_c, 0, 76, 102
2, 22382, Note_on_c, 0, 71, 0
2, 22463, Note_on_c, 0, 76, 0
2, 22463, Note_on_c, 0, 55, 0
2, 22464, Note_on_c, 0, 52, 102
2, 22464, Note_on_c, 0, 67, 102
2, 22559, Note_on_c, 0, 67, 0
2, 22560, Note_on_c, 0, 71, 102
2, 22655, Note_on_c, 0, 71, 0
2, 22655, Note_on_c, 0, 52, 0
2, 22656, Note_on_c, 0, 60, 102
2, 22656, Note_on_c, 0, 69, 102
2, 22752, Note_on_c, 0, 76, 102
2, 22766, Note_on_c, 0, 69, 0
2, 22847, Note_on_c, 0, 76, 0
2, 22847, Note_on_c, 0, 60, 0
2, 22848, Note_on_c, 0, 57, 102
2, 22848, Note_on_c, 0, 66, 102
2, 22943, Note_on_c, 0, 66, 0
2, 22944, Note_on_c, 0, 69, 102
2, 23039, Note_on_c, 0, 69, 0
2, 23039, Note_on_c, 0, 57, 0
2, 23040, Note_on_c, 0, 59, 102
2, 23040, Note_on_c, 0, 67, 102
2, 23136, Note_on_c, 0, 76, 102
2, 23150, Note_on_c, 0, 67, 0
2, 23231, Note_on_c, 0, 76, 0
2, 23231, Note_on_c, 0, 59, 0
2, 23232, Note_on_c, 0, 55, 102
2, 23232, Note_on_c, 0, 64, 102
2, 23327, Note_on_c, 0, 64, 0
2, 23328, Note_on_c, 0, 67, 102
2, 23423, Note_on_c, 0, 67, 0
2, 23423, Note_on_c, 0, 55, 0
2, 23424, Note_on_c, 0, 57, 102
2, 23424, Note_on_c, 0, 66, 102
2, 23519, Note_on_c, 0, 66, 0
2, 23520, Note_on_c, 0, 76, 102
2, 23615, Note_on_c, 0, 76, 0
2, 23615, Note_on_c, 0, 57, 0
2, 23616, Note_on_c, 0, 54, 102
2, 23616, Note_on_c, 0, 75, 102
2, 23711, Note_on_c, 0, 75, 0
2, 23712, Note_on_c, 0, 81, 102
2, 23807, Note_on_c, 0, 81, 0
2, 23807, Note_on_c, 0, 54, 0
2, 23808, Note_on_c, 0, 47, 102
2, 23808, Note_on_c, 0, 76, 102
2, 23855, Note_on_c, 0, 76, 0
2, 23856, Note_on_c, 0, 78, 102
2, 23903, Note_on_c, 0, 78, 0
2, 23903, Note_on_c, 0, 47, 0
2, 23904, Note_on_c, 0, 59, 102
2, 23904, Note_on_c, 0, 79, 102
2, 23951, Note_on_c, 0, 79, 0
2, 23952, Note_on_c, 0, 78, 102
2, 23999, Note_on_c, 0, 78, 0
2, 23999, Note_on_c, 0, 59, 0
2, 24000, Note_on_c, 0, 54, 102
2, 24000, Note_on_c, 0, 79, 102
2, 24047, Note_on_c, 0, 79, 0
2, 24048, Note_on_c, 0, 78, 102
2, 24095, Note_on_c, 0, 78, 0
2, 24095, Note_on_c, 0, 54, 0
2, 24096, Note_on_c, 0, 57, 102
2, 24096, Note_on_c, 0, 76, 102
2, 24191, Note_on_c, 0, 76, 0
2, 24191, Note_on_c, 0, 57, 0
2, 24192, Note_on_c, 0, 55, 102
2, 24192, Note_on_c, 0, 76, 102
2, 24287, Note_on_c, 0, 55, 0
2, 24288, Note_on_c, 0, 59, 102
2, 24383, Note_on_c, 0, 59, 0
2, 24384, Note_on_c, 0, 51, 102
2, 24472, Note_on_c, 0, 76, 0
2, 24479, Note_on_c, 0, 51, 0
2, 24480, Note_on_c, 0, 54, 102
2, 24575, Note_on_c, 0, 54, 0
2, 24576, Note_on_c, 0, 52, 102
2, 24672, Note_on_c, 0, 79, 102
2, 24767, Note_on_c, 0, 79, 0
2, 24767, Note_on_c, 0, 52, 0
2, 24768, Note_on_c, 0, 55, 102
2, 24768, Note_on_c, 0, 71, 102
2, 24863, Note_on_c, 0, 71, 0
2, 24864, Note_on_c, 0, 74, 102
2, 24959, Note_on_c, 0, 74, 0
2, 24959, Note_on_c, 0, 55, 0
2, 24960, Note_on_c, 0, 57, 102
2, 24960, Note_on_c, 0, 73, 102
2, 25055, Note_on_c, 0, 57, 0
2, 25056, Note_on_c, 0, 69, 102
2, 25151, Note_on_c, 0, 69, 0
2, 25152, Note_on_c, 0, 64, 102
2, 25240, Note_on_c, 0, 73, 0
2, 25247, Note_on_c, 0, 64, 0
2, 25248, Note_on_c, 0, 67, 102
2, 25248, Note_on_c, 0, 76, 102
2, 25343, Note_on_c, 0, 76, 0
2, 25343, Note_on_c, 0, 67, 0
2, 25344, Note_on_c, 0, 66, 102
2, 25344, Note_on_c, 0, 69, 102
2, 25439, Note_on_c, 0, 69, 0
2, 25440, Note_on_c, 0, 81, 102
2, 25535, Note_on_c, 0, 81, 0
2, 25535, Note_on_c, 0, 66, 0
2, 25536, Note_on_c, 0, 61, 102
2, 25536, Note_on_c, 0, 76, 102
2, 25631, Note_on_c, 0, 76, 0
2, 25632, Note_on_c, 0, 79, 102
2, 25726, Note_on_c, 0, 61, 0
2, 25727, Note_on_c, 0, 79, 0
2, 25728, Note_on_c, 0, 78, 102
2, 25824, Note_on_c, 0, 62, 102
2, 25919, Note_on_c, 0, 62, 0
2, 25920, Note_on_c, 0, 58, 102
2, 26015, Note_on_c, 0, 58, 0
2, 26016, Note_on_c, 0, 61, 102
2, 26111, Note_on_c, 0, 61, 0
2, 26112, Note_on_c, 0, 59, 102
2, 26158, Note_on_c, 0, 78, 0
2, 26208, Note_on_c, 0, 74, 102
2, 26303, Note_on_c, 0, 74, 0
2, 26303, Note_on_c, 0, 59, 0
2, 26304, Note_on_c, 0, 54, 102
2, 26304, Note_on_c, 0, 70, 102
2, 26399, Note_on_c, 0, 70, 0
2, 26400, Note_on_c, 0, 73, 102
2, 26495, Note_on_c, 0, 73, 0
2, 26495, Note_on_c, 0, 54, 0
2, 26496, Note_on_c, 0, 55, 102
2, 26496, Note_on_c, 0, 71, 102
2, 26591, Note_on_c, 0, 55, 0
2, 26592, Note_on_c, 0, 67, 102
2, 26687, Note_on_c, 0, 67, 0
2, 26688, Note_on_c, 0, 62, 102
2, 26776, Note_on_c, 0, 71, 0
2, 26783, Note_on_c, 0, 62, 0
2, 26784, Note_on_c, 0, 66, 102
2, 26784, Note_on_c, 0, 74, 102
2, 26879, Note_on_c, 0, 74, 0
2, 26879, Note_on_c, 0, 66, 0
2, 26880, Note_on_c, 0, 64, 102
2, 26880, Note_on_c, 0, 67, 102
2, 26975, Note_on_c, 0, 67, 0
2, 26976, Note_on_c, 0, 79, 102
2, 27071, Note_on_c, 0, 79, 0
2, 27071, Note_on_c, 0, 64, 0
2, 27072, Note_on_c, 0, 59, 102
2, 27072, Note_on_c, 0, 74, 102
2, 27167, Note_on_c, 0, 74, 0
2, 27168, Note_on_c, 0, 78, 102
2, 27262, Note_on_c, 0, 59, 0
2, 27263, Note_on_c, 0, 78, 0
2, 27264, Note_on_c, 0, 76, 102
2, 27360, Note_on_c, 0, 61, 102
2, 27455, Note_on_c, 0, 61, 0
2, 27456, Note_on_c, 0, 56, 102
2, 27551, Note_on_c, 0, 56, 0
2, 27552, Note_on_c, 0, 59, 102
2, 27647, Note_on_c, 0, 59, 0
2, 27648, Note_on_c, 0, 58, 102
2, 27694, Note_on_c, 0, 76, 0
2, 27744, Note_on_c, 0, 73, 102
2, 27839, Note_on_c, 0, 73, 0
2, 27839, Note_on_c, 0, 58, 0
2, 27840, Note_on_c, 0, 53, 102
2, 27840, Note_on_c, 0, 68, 102
2, 27935, Note_on_c, 0, 68, 0
2, 27936, Note_on_c, 0, 71, 102
2, 28031, Note_on_c, 0, 71, 0
2, 28031, Note_on_c, 0, 53, 0
2, 28032, Note_on_c, 0, 54, 102
2, 28032, Note_on_c, 0, 70, 102
2, 28127, Note_on_c, 0, 54, 0
2, 28128, Note_on_c, 0, 66, 102
2, 28223, Note_on_c, 0, 66, 0
2, 28224, Note_on_c, 0, 61, 102
2, 28312, Note_on_c, 0, 70, 0
2, 28319, Note_on_c, 0, 61, 0
2, 28320, Note_on_c, 0, 64, 102
2, 28320, Note_on_c, 0, 73, 102
2, 28415, Note_on_c, 0, 73, 0
2, 28415, Note_on_c, 0, 64, 0
2, 28416, Note_on_c, 0, 62, 102
2, 28416, Note_on_c, 0, 66, 102
2, 28511, Note_on_c, 0, 66, 0
2, 28512, Note_on_c, 0, 78, 102
2, 28607, Note_on_c, 0, 78, 0
2, 28607, Note_on_c, 0, 62, 0
2, 28608, Note_on_c, 0, 58, 102
2, 28608, Note_on_c, 0, 73, 102
2, 28703, Note_on_c, 0, 73, 0
2, 28704, Note_on_c, 0, 76, 102
2, 28798, Note_on_c, 0, 58, 0
2, 28799, Note_on_c, 0, 76, 0
2, 28800, Note_on_c, 0, 74, 102
2, 28896, Note_on_c, 0, 59, 102
2, 28991, Note_on_c, 0, 59, 0
2, 28992, Note_on_c, 0, 54, 102
2, 29087, Note_on_c, 0, 54, 0
2, 29088, Note_on_c, 0, 57, 102
2, 29183, Note_on_c, 0, 57, 0
2, 29184, Note_on_c, 0, 55, 102
2, 29250, Note_on_c, 0, 74, 0
2, 29280, Note_on_c, 0, 71, 102
2, 29375, Note_on_c, 0, 71, 0
2, 29375, Note_on_c, 0, 55, 0
2, 29376, Note_on_c, 0, 51, 102
2, 29376, Note_on_c, 0, 66, 102
2, 29471, Note_on_c, 0, 66, 0
2, 29472, Note_on_c, 0, 69, 102
2, 29567, Note_on_c, 0, 69, 0
2, 29567, Note_on_c, 0, 51, 0
2, 29568, Note_on_c, 0, 52, 102
2, 29568, Note_on_c, 0, 67, 102
2, 29663, Note_on_c, 0, 67, 0
2, 29664, Note_on_c, 0, 71, 102
2, 29759, Note_on_c, 0, 71, 0
2, 29759, Note_on_c, 0, 52, 0
2, 29760, Note_on_c, 0, 50, 102
2, 29760, Note_on_c, 0, 64, 102
2, 29855, Note_on_c, 0, 64, 0
2, 29856, Note_on_c, 0, 74, 102
2, 29951, Note_on_c, 0, 74, 0
2, 29951, Note_on_c, 0, 50, 0
2, 29952, Note_on_c, 0, 52, 102
2, 29952, Note_on_c, 0, 73, 102
2, 30047, Note_on_c, 0, 73, 0
2, 30048, Note_on_c, 0, 76, 102
2, 30143, Note_on_c, 0, 76, 0
2, 30143, Note_on_c, 0, 52, 0
2, 30144, Note_on_c, 0, 49, 102
2, 30144, Note_on_c, 0, 79, 102
2, 30239, Note_on_c, 0, 79, 0
2, 30240, Note_on_c, 0, 71, 102
2, 30334, Note_on_c, 0, 49, 0
2, 30335, Note_on_c, 0, 71, 0
2, 30336, Note_on_c, 0, 70, 102
2, 30431, Note_on_c, 0, 70, 0
2, 30432, Note_on_c, 0, 54, 102
2, 30432, Note_on_c, 0, 73, 102
2, 30527, Note_on_c, 0, 73, 0
2, 30527, Note_on_c, 0, 54, 0
2, 30528, Note_on_c, 0, 49, 102
2, 30528, Note_on_c, 0, 66, 102
2, 30623, Note_on_c, 0, 49, 0
2, 30624, Note_on_c, 0, 52, 102
2, 30718, Note_on_c, 0, 66, 0
2, 30719, Note_on_c, 0, 52, 0
2, 30720, Note_on_c, 0, 50, 102
2, 30816, Note_on_c, 0, 71, 102
2, 30911, Note_on_c, 0, 71, 0
2, 30911, Note_on_c, 0, 50, 0
2, 30912, Note_on_c, 0, 47, 102
2, 30912, Note_on_c, 0, 66, 102
2, 31007, Note_on_c, 0, 66, 0
2, 31008, Note_on_c, 0, 69, 102
2, 31103, Note_on_c, 0, 69, 0
2, 31103, Note_on_c, 0, 47, 0
2, 31104, Note_on_c, 0, 52, 102
2, 31104, Note_on_c, 0, 67, 102
2, 31200, Note_on_c, 0, 71, 102
2, 31214, Note_on_c, 0, 67, 0
2, 31295, Note_on_c, 0, 71, 0
2, 31295, Note_on_c, 0, 52, 0
2, 31296, Note_on_c, 0, 49, 102
2, 31296, Note_on_c, 0, 64, 102
2, 31391, Note_on_c, 0, 64, 0
2, 31392, Note_on_c, 0, 67, 102
2, 31487, Note_on_c, 0, 67, 0
2, 31487, Note_on_c, 0, 49, 0
2, 31488, Note_on_c, 0, 50, 102
2, 31488, Note_on_c, 0, 66, 102
2, 31584, Note_on_c, 0, 71, 102
2, 31598, Note_on_c, 0, 66, 0
2, 31679, Note_on_c, 0, 71, 0
2, 31679, Note_on_c, 0, 50, 0
2, 31680, Note_on_c, 0, 47, 102
2, 31680, Note_on_c, 0, 62, 102
2, 31775, Note_on_c, 0, 62, 0
2, 31776, Note_on_c, 0, 66, 102
2, 31871, Note_on_c, 0, 66, 0
2, 31871, Note_on_c, 0, 47, 0
2, 31872, Note_on_c, 0, 55, 102
2, 31872, Note_on_c, 0, 64, 102
2, 31968, Note_on_c, 0, 71, 102
2, 31982, Note_on_c, 0, 64, 0
2, 32063, Note_on_c, 0, 71, 0
2, 32063, Note_on_c, 0, 55, 0
2, 32064, Note_on_c, 0, 52, 102
2, 32064, Note_on_c, 0, 61, 102
2, 32159, Note_on_c, 0, 61, 0
2, 32160, Note_on_c, 0, 64, 102
2, 32255, Note_on_c, 0, 64, 0
2, 32255, Note_on_c, 0, 52, 0
2, 32256, Note_on_c, 0, 54, 102
2, 32256, Note_on_c, 0, 62, 102
2, 32352, Note_on_c, 0, 71, 102
2, 32366, Note_on_c, 0, 62, 0
2, 32447, Note_on_c, 0, 71, 0
2, 32447, Note_on_c, 0, 54, 0
2, 32448, Note_on_c, 0, 50, 102
2, 32448, Note_on_c, 0, 59, 102
2, 32543, Note_on_c, 0, 59, 0
2, 32544, Note_on_c, 0, 62, 102
2, 32639, Note_on_c, 0, 62, 0
2, 32639, Note_on_c, 0, 50, 0
2, 32640, Note_on_c, 0, 52, 102
2, 32640, Note_on_c, 0, 61, 102
2, 32735, Note_on_c, 0, 61, 0
2, 32736, Note_on_c, 0, 71, 102
2, 32831, Note_on_c, 0, 71, 0
2, 32831, Note_on_c, 0, 52, 0
2, 32832, Note_on_c, 0, 49, 102
2, 32832, Note_on_c, 0, 70, 102
2, 32927, Note_on_c, 0, 70, 0
2, 32928, Note_on_c, 0, 76, 102
2, 33023, Note_on_c, 0, 76, 0
2, 33023, Note_on_c, 0, 49, 0
2, 33024, Note_on_c, 0, 54, 102
2, 33024, Note_on_c, 0, 74, 102
2, 33071, Note_on_c, 0, 74, 0
2, 33072, Note_on_c, 0, 73, 102
2, 33119, Note_on_c, 0, 73, 0
2, 33120, Note_on_c, 0, 74, 102
2, 33167, Note_on_c, 0, 74, 0
2, 33168, Note_on_c, 0, 73, 102
2, 33215, Note_on_c, 0, 73, 0
2, 33215, Note_on_c, 0, 54, 0
2, 33216, Note_on_c, 0, 42, 102
2, 33216, Note_on_c, 0, 74, 102
2, 33263, Note_on_c, 0, 74, 0
2, 33264, Note_on_c, 0, 73, 102
2, 33311, Note_on_c, 0, 73, 0
2, 33312, Note_on_c, 0, 71, 102
2, 33407, Note_on_c, 0, 71, 0
2, 33407, Note_on_c, 0, 42, 0
2, 33408, Note_on_c, 0, 43, 102
2, 33408, Note_on_c, 0, 71, 102
2, 33483, Note_on_c, 0, 71, 0
2, 33504, Note_on_c, 0, 67, 102
2, 33599, Note_on_c, 0, 67, 0
2, 33600, Note_on_c, 0, 78, 102
2, 33695, Note_on_c, 0, 78, 0
2, 33696, Note_on_c, 0, 75, 102
2, 33791, Note_on_c, 0, 75, 0
2, 33792, Note_on_c, 0, 76, 102
2, 33868, Note_on_c, 0, 43, 0
2, 33888, Note_on_c, 0, 40, 102
2, 33983, Note_on_c, 0, 40, 0
2, 33984, Note_on_c, 0, 49, 102
2, 34079, Note_on_c, 0, 49, 0
2, 34080, Note_on_c, 0, 46, 102
2, 34175, Note_on_c, 0, 46, 0
2, 34176, Note_on_c, 0, 47, 102
2, 34242, Note_on_c, 0, 76, 0
2, 34272, Note_on_c, 0, 71, 102
2, 34367, Note_on_c, 0, 71, 0
2, 34368, Note_on_c, 0, 80, 102
2, 34463, Note_on_c, 0, 80, 0
2, 34464, Note_on_c, 0, 77, 102
2, 34559, Note_on_c, 0, 77, 0
2, 34560, Note_on_c, 0, 78, 102
2, 34636, Note_on_c, 0, 47, 0
2, 34656, Note_on_c, 0, 46, 102
2, 34751, Note_on_c, 0, 46, 0
2, 34752, Note_on_c, 0, 52, 102
2, 34840, Note_on_c, 0, 78, 0
2, 34847, Note_on_c, 0, 52, 0
2, 34848, Note_on_c, 0, 49, 102
2, 34848, Note_on_c, 0, 76, 102
2, 34943, Note_on_c, 0, 76, 0
2, 34943, Note_on_c, 0, 49, 0
2, 34944, Note_on_c, 0, 55, 102
2, 34944, Note_on_c, 0, 74, 102
2, 35043, Note_on_c, 0, 74, 0
2, 35044, Note_on_c, 0, 73, 102
2, 35143, Note_on_c, 0, 73, 0
2, 35145, Note_on_c, 0, 55, 0
2, 35146, Note_on_c, 0, 52, 102
2, 35146, Note_on_c, 0, 74, 102
2, 35245, Note_on_c, 0, 74, 0
2, 35248, Note_on_c, 0, 71, 102
2, 35347, Note_on_c, 0, 71, 0
2, 35347, Note_on_c, 0, 52, 0
2, 35350, Note_on_c, 0, 54, 102
2, 35350, Note_on_c, 0, 71, 102
2, 35399, Note_on_c, 0, 71, 0
2, 35401, Note_on_c, 0, 70, 102
2, 35450, Note_on_c, 0, 70, 0
2, 35452, Note_on_c, 0, 71, 102
2, 35501, Note_on_c, 0, 71, 0
2, 35503, Note_on_c, 0, 70, 102
2, 35551, Note_on_c, 0, 54, 0
2, 35552, Note_on_c, 0, 70, 0
2, 35554, Note_on_c, 0, 42, 102
2, 35554, Note_on_c, 0, 71, 102
2, 35603, Note_on_c, 0, 71, 0
2, 35605, Note_on_c, 0, 70, 102
2, 35654, Note_on_c, 0, 70, 0
2, 35656, Note_on_c, 0, 71, 102
2, 35755, Note_on_c, 0, 71, 0
2, 35755, Note_on_c, 0, 42, 0
2, 35758, Note_on_c, 0, 71, 102
2, 35758, Note_on_c, 0, 47, 102
2, 35861, Note_on_c, 0, 57, 102
2, 35962, Note_on_c, 0, 57, 0
2, 35966, Note_on_c, 0, 63, 102
2, 35966, Note_on_c, 0, 55, 102
2, 36067, Note_on_c, 0, 55, 0
2, 36071, Note_on_c, 0, 54, 102
2, 36172, Note_on_c, 0, 54, 0
2, 36176, Note_on_c, 0, 55, 102
2, 36278, Note_on_c, 0, 63, 0
2, 36286, Note_on_c, 0, 64, 102
2, 36393, Note_on_c, 0, 64, 0
2, 36395, Note_on_c, 0, 55, 0
2, 36398, Note_on_c, 0, 63, 102
2, 36398, Note_on_c, 0, 54, 102
2, 36505, Note_on_c, 0, 54, 0
2, 36505, Note_on_c, 0, 63, 0
2, 36509, Note_on_c, 0, 61, 102
2, 36509, Note_on_c, 0, 52, 102
2, 36616, Note_on_c, 0, 52, 0
2, 36616, Note_on_c, 0, 61, 0
2, 36640, Note_on_c, 0, 54, 102
2, 36640, Note_on_c, 0, 63, 102
2, 37231, Note_on_c, 0, 71, 0
2, 37235, Note_on_c, 0, 63, 0
2, 37236, Note_on_c, 0, 54, 0
2, 37244, Note_on_c, 0, 47, 0
2, 38400, Note_on_c, 0, 78, 102
2, 38485, Note_on_c, 0, 78, 0
2, 38496, Note_on_c, 0, 78, 102
2, 38496, Note_on_c, 0, 74, 102
2, 38496, Note_on_c, 0, 71, 102
2, 38592, Note_on_c, 0, 64, 102
2, 38687, Note_on_c, 0, 64, 0
2, 38688, Note_on_c, 0, 62, 102
2, 38783, Note_on_c, 0, 62, 0
2, 38784, Note_on_c, 0, 61, 102
2, 38879, Note_on_c, 0, 61, 0
2, 38880, Note_on_c, 0, 62, 102
2, 38975, Note_on_c, 0, 62, 0
2, 38976, Note_on_c, 0, 59, 102
2, 39064, Note_on_c, 0, 71, 0
2, 39064, Note_on_c, 0, 74, 0
2, 39069, Note_on_c, 0, 59, 0
2, 39072, Note_on_c, 0, 58, 102
2, 39156, Note_on_c, 0, 78, 0
2, 39168, Note_on_c, 0, 79, 102
2, 39263, Note_on_c, 0, 79, 0
2, 39263, Note_on_c, 0, 58, 0
2, 39264, Note_on_c, 0, 78, 102
2, 39264, Note_on_c, 0, 61, 102
2, 39359, Note_on_c, 0, 78, 0
2, 39360, Note_on_c, 0, 76, 102
2, 39455, Note_on_c, 0, 76, 0
2, 39455, Note_on_c, 0, 61, 0
2, 39456, Note_on_c, 0, 78, 102
2, 39456, Note_on_c, 0, 54, 102
2, 39551, Note_on_c, 0, 78, 0
2, 39552, Note_on_c, 0, 73, 102
2, 39647, Note_on_c, 0, 73, 0
2, 39647, Note_on_c, 0, 54, 0
2, 39648, Note_on_c, 0, 74, 102
2, 39648, Note_on_c, 0, 59, 102
2, 39744, Note_on_c, 0, 73, 102
2, 39839, Note_on_c, 0, 73, 0
2, 39839, Note_on_c, 0, 59, 0
2, 39840, Note_on_c, 0, 71, 102
2, 39840, Note_on_c, 0, 62, 102
2, 39935, Note_on_c, 0, 71, 0
2, 39936, Note_on_c, 0, 70, 102
2, 40031, Note_on_c, 0, 70, 0
2, 40031, Note_on_c, 0, 62, 0
2, 40032, Note_on_c, 0, 71, 102
2, 40032, Note_on_c, 0, 59, 102
2, 40127, Note_on_c, 0, 71, 0
2, 40128, Note_on_c, 0, 66, 102
2, 40223, Note_on_c, 0, 66, 0
2, 40223, Note_on_c, 0, 59, 0
2, 40224, Note_on_c, 0, 67, 102
2, 40224, Note_on_c, 0, 52, 102
2, 40308, Note_on_c, 0, 74, 0
2, 40320, Note_on_c, 0, 74, 102
2, 40415, Note_on_c, 0, 74, 0
2, 40415, Note_on_c, 0, 52, 0
2, 40416, Note_on_c, 0, 73, 102
2, 40416, Note_on_c, 0, 55, 102
2, 40511, Note_on_c, 0, 73, 0
2, 40512, Note_on_c, 0, 71, 102
2, 40607, Note_on_c, 0, 71, 0
2, 40607, Note_on_c, 0, 55, 0
2, 40608, Note_on_c, 0, 73, 102
2, 40608, Note_on_c, 0, 52, 102
2, 40703, Note_on_c, 0, 73, 0
2, 40704, Note_on_c, 0, 76, 102
2, 40799, Note_on_c, 0, 76, 0
2, 40799, Note_on_c, 0, 52, 0
2, 40800, Note_on_c, 0, 70, 102
2, 40800, Note_on_c, 0, 54, 102
2, 40895, Note_on_c, 0, 67, 0
2, 40896, Note_on_c, 0, 67, 102
2, 40991, Note_on_c, 0, 67, 0
2, 40992, Note_on_c, 0, 66, 102
2, 41080, Note_on_c, 0, 54, 0
2, 41087, Note_on_c, 0, 66, 0
2, 41088, Note_on_c, 0, 64, 102
2, 41183, Note_on_c, 0, 64, 0
2, 41184, Note_on_c, 0, 66, 102
2, 41279, Note_on_c, 0, 66, 0
2, 41280, Note_on_c, 0, 70, 0
2, 41280, Note_on_c, 0, 61, 102
2, 41375, Note_on_c, 0, 61, 0
2, 41376, Note_on_c, 0, 71, 102
2, 41376, Note_on_c, 0, 62, 102
2, 41471, Note_on_c, 0, 62, 0
2, 41472, Note_on_c, 0, 64, 102
2, 41567, Note_on_c, 0, 64, 0
2, 41567, Note_on_c, 0, 71, 0
2, 41568, Note_on_c, 0, 73, 102
2, 41568, Note_on_c, 0, 62, 102
2, 41615, Note_on_c, 0, 73, 0
2, 41616, Note_on_c, 0, 71, 102
2, 41663, Note_on_c, 0, 71, 0
2, 41663, Note_on_c, 0, 62, 0
2, 41664, Note_on_c, 0, 73, 102
2, 41664, Note_on_c, 0, 61, 102
2, 41711, Note_on_c, 0, 73, 0
2, 41712, Note_on_c, 0, 71, 102
2, 41759, Note_on_c, 0, 71, 0
2, 41759, Note_on_c, 0, 61, 0
2, 41760, Note_on_c, 0, 73, 102
2, 41760, Note_on_c, 0, 62, 102
2, 41807, Note_on_c, 0, 73, 0
2, 41808, Note_on_c, 0, 71, 102
2, 41855, Note_on_c, 0, 71, 0
2, 41855, Note_on_c, 0, 62, 0
2, 41856, Note_on_c, 0, 70, 102
2, 41856, Note_on_c, 0, 59, 102
2, 41903, Note_on_c, 0, 70, 0
2, 41904, Note_on_c, 0, 71, 102
2, 41951, Note_on_c, 0, 71, 0
2, 41951, Note_on_c, 0, 59, 0
2, 41952, Note_on_c, 0, 71, 102
2, 41952, Note_on_c, 0, 61, 102
2, 42047, Note_on_c, 0, 61, 0
2, 42048, Note_on_c, 0, 76, 102
2, 42048, Note_on_c, 0, 59, 102
2, 42062, Note_on_c, 0, 71, 0
2, 42143, Note_on_c, 0, 59, 0
2, 42144, Note_on_c, 0, 73, 102
2, 42144, Note_on_c, 0, 58, 102
2, 42228, Note_on_c, 0, 76, 0
2, 42239, Note_on_c, 0, 58, 0
2, 42240, Note_on_c, 0, 78, 102
2, 42240, Note_on_c, 0, 56, 102
2, 42335, Note_on_c, 0, 56, 0
2, 42335, Note_on_c, 0, 78, 0
2, 42336, Note_on_c, 0, 74, 102
2, 42336, Note_on_c, 0, 58, 102
2, 42424, Note_on_c, 0, 73, 0
2, 42431, Note_on_c, 0, 58, 0
2, 42431, Note_on_c, 0, 74, 0
2, 42432, Note_on_c, 0, 73, 102
2, 42432, Note_on_c, 0, 54, 102
2, 42527, Note_on_c, 0, 54, 0
2, 42527, Note_on_c, 0, 73, 0
2, 42528, Note_on_c, 0, 71, 102
2, 42528, Note_on_c, 0, 74, 102
2, 42528, Note_on_c, 0, 59, 102
2, 42623, Note_on_c, 0, 59, 0
2, 42623, Note_on_c, 0, 74, 0
2, 42624, Note_on_c, 0, 76, 102
2, 42624, Note_on_c, 0, 52, 102
2, 42718, Note_on_c, 0, 71, 0
2, 42719, Note_on_c, 0, 52, 0
2, 42719, Note_on_c, 0, 76, 0
2, 42720, Note_on_c, 0, 70, 102
2, 42720, Note_on_c, 0, 74, 102
2, 42720, Note_on_c, 0, 54, 102
2, 42768, Note_on_c, 0, 74, 0
2, 42768, Note_on_c, 0, 73, 102
2, 42816, Note_on_c, 0, 73, 0
2, 42816, Note_on_c, 0, 74, 102
2, 42864, Note_on_c, 0, 74, 0
2, 42864, Note_on_c, 0, 73, 102
2, 42911, Note_on_c, 0, 54, 0
2, 42912, Note_on_c, 0, 42, 102
2, 43000, Note_on_c, 0, 73, 0
2, 43008, Note_on_c, 0, 78, 102
2, 43100, Note_on_c, 0, 70, 0
2, 43103, Note_on_c, 0, 78, 0
2, 43103, Note_on_c, 0, 42, 0
2, 43104, Note_on_c, 0, 71, 102
2, 43104, Note_on_c, 0, 74, 102
2, 43104, Note_on_c, 0, 47, 102
2, 43199, Note_on_c, 0, 47, 0
2, 43200, Note_on_c, 0, 67, 102
2, 43295, Note_on_c, 0, 67, 0
2, 43296, Note_on_c, 0, 66, 102
2, 43364, Note_on_c, 0, 74, 0
2, 43391, Note_on_c, 0, 66, 0
2, 43391, Note_on_c, 0, 71, 0
2, 43392, Note_on_c, 0, 73, 102
2, 43392, Note_on_c, 0, 64, 102
2, 43487, Note_on_c, 0, 64, 0
2, 43487, Note_on_c, 0, 73, 0
2, 43488, Note_on_c, 0, 71, 102
2, 43488, Note_on_c, 0, 66, 102
2, 43583, Note_on_c, 0, 66, 0
2, 43583, Note_on_c, 0, 71, 0
2, 43584, Note_on_c, 0, 73, 102
2, 43584, Note_on_c, 0, 62, 102
2, 43679, Note_on_c, 0, 62, 0
2, 43679, Note_on_c, 0, 73, 0
2, 43680, Note_on_c, 0, 74, 102
2, 43680, Note_on_c, 0, 59, 102
2, 43775, Note_on_c, 0, 59, 0
2, 43775, Note_on_c, 0, 74, 0
2, 43776, Note_on_c, 0, 79, 102
2, 43776, Note_on_c, 0, 64, 102
2, 43871, Note_on_c, 0, 64, 0
2, 43871, Note_on_c, 0, 79, 0
2, 43872, Note_on_c, 0, 78, 102
2, 43872, Note_on_c, 0, 62, 102
2, 43967, Note_on_c, 0, 62, 0
2, 43967, Note_on_c, 0, 78, 0
2, 43968, Note_on_c, 0, 76, 102
2, 43968, Note_on_c, 0, 61, 102
2, 44063, Note_on_c, 0, 61, 0
2, 44063, Note_on_c, 0, 76, 0
2, 44064, Note_on_c, 0, 78, 102
2, 44064, Note_on_c, 0, 62, 102
2, 44159, Note_on_c, 0, 62, 0
2, 44159, Note_on_c, 0, 78, 0
2, 44160, Note_on_c, 0, 74, 102
2, 44160, Note_on_c, 0, 59, 102
2, 44255, Note_on_c, 0, 59, 0
2, 44255, Note_on_c, 0, 74, 0
2, 44256, Note_on_c, 0, 81, 102
2, 44256, Note_on_c, 0, 54, 102
2, 44351, Note_on_c, 0, 54, 0
2, 44352, Note_on_c, 0, 79, 102
2, 44352, Note_on_c, 0, 59, 102
2, 44447, Note_on_c, 0, 59, 0
2, 44447, Note_on_c, 0, 79, 0
2, 44448, Note_on_c, 0, 78, 102
2, 44448, Note_on_c, 0, 57, 102
2, 44543, Note_on_c, 0, 57, 0
2, 44543, Note_on_c, 0, 78, 0
2, 44544, Note_on_c, 0, 76, 102
2, 44544, Note_on_c, 0, 55, 102
2, 44639, Note_on_c, 0, 55, 0
2, 44639, Note_on_c, 0, 76, 0
2, 44640, Note_on_c, 0, 74, 102
2, 44640, Note_on_c, 0, 57, 102
2, 44735, Note_on_c, 0, 57, 0
2, 44735, Note_on_c, 0, 74, 0
2, 44736, Note_on_c, 0, 73, 102
2, 44736, Note_on_c, 0, 54, 102
2, 44823, Note_on_c, 0, 81, 0
2, 44831, Note_on_c, 0, 54, 0
2, 44831, Note_on_c, 0, 73, 0
2, 44832, Note_on_c, 0, 74, 102
2, 44832, Note_on_c, 0, 47, 102
2, 44928, Note_on_c, 0, 76, 102
2, 44933, Note_on_c, 0, 74, 0
2, 45023, Note_on_c, 0, 76, 0
2, 45024, Note_on_c, 0, 74, 102
2, 45024, Note_on_c, 0, 57, 102
2, 45119, Note_on_c, 0, 74, 0
2, 45120, Note_on_c, 0, 73, 102
2, 45215, Note_on_c, 0, 73, 0
2, 45215, Note_on_c, 0, 57, 0
2, 45216, Note_on_c, 0, 74, 102
2, 45216, Note_on_c, 0, 56, 102
2, 45311, Note_on_c, 0, 74, 0
2, 45312, Note_on_c, 0, 83, 102
2, 45396, Note_on_c, 0, 56, 0
2, 45407, Note_on_c, 0, 83, 0
2, 45407, Note_on_c, 0, 47, 0
2, 45408, Note_on_c, 0, 74, 102
2, 45408, Note_on_c, 0, 57, 102
2, 45504, Note_on_c, 0, 54, 102
2, 45599, Note_on_c, 0, 54, 0
2, 45599, Note_on_c, 0, 74, 0
2, 45600, Note_on_c, 0, 73, 102
2, 45600, Note_on_c, 0, 52, 102
2, 45695, Note_on_c, 0, 52, 0
2, 45696, Note_on_c, 0, 50, 102
2, 45791, Note_on_c, 0, 50, 0
2, 45792, Note_on_c, 0, 52, 102
2, 45887, Note_on_c, 0, 52, 0
2, 45888, Note_on_c, 0, 49, 102
2, 45900, Note_on_c, 0, 73, 0
2, 45971, Note_on_c, 0, 57, 0
2, 45978, Note_on_c, 0, 49, 0
2, 45984, Note_on_c, 0, 78, 102
2, 45984, Note_on_c, 0, 73, 102
2, 45984, Note_on_c, 0, 66, 102
2, 45984, Note_on_c, 0, 46, 102
2, 46079, Note_on_c, 0, 46, 0
2, 46080, Note_on_c, 0, 55, 102
2, 46175, Note_on_c, 0, 55, 0
2, 46175, Note_on_c, 0, 66, 0
2, 46175, Note_on_c, 0, 73, 0
2, 46175, Note_on_c, 0, 78, 0
2, 46176, Note_on_c, 0, 76, 102
2, 46176, Note_on_c, 0, 71, 102
2, 46176, Note_on_c, 0, 54, 102
2, 46223, Note_on_c, 0, 76, 0
2, 46224, Note_on_c, 0, 74, 102
2, 46271, Note_on_c, 0, 74, 0
2, 46271, Note_on_c, 0, 54, 0
2, 46272, Note_on_c, 0, 76, 102
2, 46272, Note_on_c, 0, 52, 102
2, 46319, Note_on_c, 0, 76, 0
2, 46320, Note_on_c, 0, 74, 102
2, 46367, Note_on_c, 0, 52, 0
2, 46368, Note_on_c, 0, 54, 102
2, 46456, Note_on_c, 0, 71, 0
2, 46463, Note_on_c, 0, 54, 0
2, 46463, Note_on_c, 0, 74, 0
2, 46464, Note_on_c, 0, 70, 102
2, 46464, Note_on_c, 0, 73, 102
2, 46464, Note_on_c, 0, 50, 102
2, 46559, Note_on_c, 0, 50, 0
2, 46559, Note_on_c, 0, 73, 0
2, 46559, Note_on_c, 0, 70, 0
2, 46560, Note_on_c, 0, 74, 102
2, 46560, Note_on_c, 0, 71, 102
2, 46560, Note_on_c, 0, 47, 102
2, 46655, Note_on_c, 0, 47, 0
2, 46656, Note_on_c, 0, 57, 102
2, 46751, Note_on_c, 0, 57, 0
2, 46752, Note_on_c, 0, 56, 102
2, 46847, Note_on_c, 0, 56, 0
2, 46847, Note_on_c, 0, 74, 0
2, 46848, Note_on_c, 0, 73, 102
2, 46848, Note_on_c, 0, 54, 102
2, 46940, Note_on_c, 0, 71, 0
2, 46943, Note_on_c, 0, 54, 0
2, 46943, Note_on_c, 0, 73, 0
2, 46944, Note_on_c, 0, 71, 102
2, 46944, Note_on_c, 0, 56, 102
2, 47039, Note_on_c, 0, 56, 0
2, 47040, Note_on_c, 0, 59, 102
2, 47135, Note_on_c, 0, 59, 0
2, 47136, Note_on_c, 0, 53, 102
2, 47214, Note_on_c, 0, 71, 0
2, 47231, Note_on_c, 0, 53, 0
2, 47232, Note_on_c, 0, 69, 102
2, 47232, Note_on_c, 0, 61, 102
2, 47327, Note_on_c, 0, 61, 0
2, 47327, Note_on_c, 0, 69, 0
2, 47328, Note_on_c, 0, 68, 102
2, 47328, Note_on_c, 0, 59, 102
2, 47423, Note_on_c, 0, 59, 0
2, 47423, Note_on_c, 0, 68, 0
2, 47424, Note_on_c, 0, 66, 102
2, 47424, Note_on_c, 0, 57, 102
2, 47519, Note_on_c, 0, 57, 0
2, 47519, Note_on_c, 0, 66, 0
2, 47520, Note_on_c, 0, 68, 102
2, 47520, Note_on_c, 0, 59, 102
2, 47615, Note_on_c, 0, 59, 0
2, 47615, Note_on_c, 0, 68, 0
2, 47616, Note_on_c, 0, 71, 102
2, 47616, Note_on_c, 0, 62, 102
2, 47711, Note_on_c, 0, 62, 0
2, 47711, Note_on_c, 0, 71, 0
2, 47712, Note_on_c, 0, 61, 102
2, 47712, Note_on_c, 0, 65, 102
2, 47808, Note_on_c, 0, 49, 102
2, 47903, Note_on_c, 0, 49, 0
2, 47904, Note_on_c, 0, 47, 102
2, 47999, Note_on_c, 0, 47, 0
2, 48000, Note_on_c, 0, 45, 102
2, 48095, Note_on_c, 0, 45, 0
2, 48096, Note_on_c, 0, 47, 102
2, 48191, Note_on_c, 0, 47, 0
2, 48192, Note_on_c, 0, 65, 0
2, 48192, Note_on_c, 0, 44, 102
2, 48232, Note_on_c, 0, 61, 0
2, 48287, Note_on_c, 0, 44, 0
2, 48288, Note_on_c, 0, 61, 102
2, 48288, Note_on_c, 0, 66, 102
2, 48288, Note_on_c, 0, 73, 102
2, 48288, Note_on_c, 0, 45, 102
2, 48383, Note_on_c, 0, 45, 0
2, 48384, Note_on_c, 0, 47, 102
2, 48479, Note_on_c, 0, 47, 0
2, 48479, Note_on_c, 0, 73, 0
2, 48479, Note_on_c, 0, 66, 0
2, 48479, Note_on_c, 0, 61, 0
2, 48480, Note_on_c, 0, 74, 102
2, 48480, Note_on_c, 0, 45, 102
2, 48527, Note_on_c, 0, 74, 0
2, 48528, Note_on_c, 0, 73, 102
2, 48575, Note_on_c, 0, 73, 0
2, 48575, Note_on_c, 0, 45, 0
2, 48576, Note_on_c, 0, 74, 102
2, 48576, Note_on_c, 0, 44, 102
2, 48623, Note_on_c, 0, 74, 0
2, 48624, Note_on_c, 0, 73, 102
2, 48671, Note_on_c, 0, 73, 0
2, 48671, Note_on_c, 0, 44, 0
2, 48672, Note_on_c, 0, 74, 102
2, 48672, Note_on_c, 0, 45, 102
2, 48719, Note_on_c, 0, 74, 0
2, 48720, Note_on_c, 0, 73, 102
2, 48767, Note_on_c, 0, 73, 0
2, 48767, Note_on_c, 0, 45, 0
2, 48768, Note_on_c, 0, 72, 102
2, 48768, Note_on_c, 0, 42, 102
2, 48815, Note_on_c, 0, 72, 0
2, 48816, Note_on_c, 0, 73, 102
2, 48863, Note_on_c, 0, 42, 0
2, 48864, Note_on_c, 0, 80, 102
2, 48864, Note_on_c, 0, 41, 102
2, 48959, Note_on_c, 0, 41, 0
2, 48960, Note_on_c, 0, 42, 102
2, 49055, Note_on_c, 0, 42, 0
2, 49056, Note_on_c, 0, 41, 102
2, 49151, Note_on_c, 0, 41, 0
2, 49151, Note_on_c, 0, 80, 0
2, 49152, Note_on_c, 0, 83, 102
2, 49152, Note_on_c, 0, 39, 102
2, 49247, Note_on_c, 0, 39, 0
2, 49247, Note_on_c, 0, 83, 0
2, 49248, Note_on_c, 0, 81, 102
2, 49248, Note_on_c, 0, 41, 102
2, 49343, Note_on_c, 0, 41, 0
2, 49343, Note_on_c, 0, 81, 0
2, 49344, Note_on_c, 0, 80, 102
2, 49344, Note_on_c, 0, 37, 102
2, 49439, Note_on_c, 0, 37, 0
2, 49439, Note_on_c, 0, 80, 0
2, 49440, Note_on_c, 0, 81, 102
2, 49440, Note_on_c, 0, 42, 102
2, 49535, Note_on_c, 0, 42, 0
2, 49535, Note_on_c, 0, 81, 0
2, 49536, Note_on_c, 0, 83, 102
2, 49536, Note_on_c, 0, 52, 102
2, 49583, Note_on_c, 0, 73, 0
2, 49631, Note_on_c, 0, 52, 0
2, 49631, Note_on_c, 0, 83, 0
2, 49632, Note_on_c, 0, 71, 102
2, 49632, Note_on_c, 0, 81, 102
2, 49632, Note_on_c, 0, 50, 102
2, 49680, Note_on_c, 0, 81, 0
2, 49680, Note_on_c, 0, 80, 102
2, 49727, Note_on_c, 0, 50, 0
2, 49728, Note_on_c, 0, 80, 0
2, 49728, Note_on_c, 0, 81, 102
2, 49728, Note_on_c, 0, 49, 102
2, 49776, Note_on_c, 0, 81, 0
2, 49776, Note_on_c, 0, 80, 102
2, 49823, Note_on_c, 0, 49, 0
2, 49824, Note_on_c, 0, 50, 102
2, 49912, Note_on_c, 0, 80, 0
2, 49919, Note_on_c, 0, 50, 0
2, 49919, Note_on_c, 0, 71, 0
2, 49920, Note_on_c, 0, 78, 102
2, 49920, Note_on_c, 0, 69, 102
2, 49920, Note_on_c, 0, 45, 102
2, 50015, Note_on_c, 0, 45, 0
2, 50015, Note_on_c, 0, 69, 0
2, 50015, Note_on_c, 0, 78, 0
2, 50016, Note_on_c, 0, 68, 102
2, 50016, Note_on_c, 0, 77, 102
2, 50016, Note_on_c, 0, 47, 102
2, 50111, Note_on_c, 0, 47, 0
2, 50112, Note_on_c, 0, 59, 102
2, 50207, Note_on_c, 0, 59, 0
2, 50208, Note_on_c, 0, 57, 102
2, 50266, Note_on_c, 0, 77, 0
2, 50303, Note_on_c, 0, 57, 0
2, 50303, Note_on_c, 0, 68, 0
2, 50304, Note_on_c, 0, 77, 102
2, 50304, Note_on_c, 0, 56, 102
2, 50399, Note_on_c, 0, 56, 0
2, 50399, Note_on_c, 0, 77, 0
2, 50400, Note_on_c, 0, 73, 102
2, 50400, Note_on_c, 0, 66, 102
2, 50400, Note_on_c, 0, 78, 102
2, 50400, Note_on_c, 0, 57, 102
2, 50495, Note_on_c, 0, 57, 0
2, 50496, Note_on_c, 0, 54, 102
2, 50591, Note_on_c, 0, 54, 0
2, 50592, Note_on_c, 0, 62, 102
2, 50675, Note_on_c, 0, 78, 0
2, 50687, Note_on_c, 0, 73, 0
2, 50687, Note_on_c, 0, 66, 0
2, 50687, Note_on_c, 0, 62, 0
2, 50688, Note_on_c, 0, 80, 102
2, 50688, Note_on_c, 0, 59, 102
2, 50783, Note_on_c, 0, 59, 0
2, 50783, Note_on_c, 0, 80, 0
2, 50784, Note_on_c, 0, 81, 102
2, 50784, Note_on_c, 0, 77, 102
2, 50784, Note_on_c, 0, 61, 102
2, 50831, Note_on_c, 0, 81, 0
2, 50832, Note_on_c, 0, 80, 102
2, 50879, Note_on_c, 0, 80, 0
2, 50880, Note_on_c, 0, 81, 102
2, 50927, Note_on_c, 0, 81, 0
2, 50928, Note_on_c, 0, 80, 102
2, 50975, Note_on_c, 0, 61, 0
2, 50976, Note_on_c, 0, 49, 102
2, 51064, Note_on_c, 0, 77, 0
2, 51071, Note_on_c, 0, 80, 0
2, 51072, Note_on_c, 0, 78, 102
2, 51167, Note_on_c, 0, 78, 0
2, 51167, Note_on_c, 0, 49, 0
2, 51168, Note_on_c, 0, 78, 102
2, 51168, Note_on_c, 0, 54, 102
2, 51360, Note_on_c, 0, 42, 102
2, 51552, Note_on_c, 0, 49, 102
2, 51743, Note_on_c, 0, 49, 0
2, 51743, Note_on_c, 0, 54, 0
2, 51744, Note_on_c, 0, 73, 102
2, 51744, Note_on_c, 0, 66, 102
2, 51744, Note_on_c, 0, 70, 102
2, 51744, Note_on_c, 0, 54, 102
2, 52124, Note_on_c, 0, 54, 0
2, 52124, Note_on_c, 0, 66, 0
2, 52124, Note_on_c, 0, 73, 0
2, 52124, Note_on_c, 0, 70, 0
2, 52127, Note_on_c, 0, 42, 0
2, 52148, Note_on_c, 0, 78, 0
2, 52224, Note_on_c, 0, 73, 102
2, 52309, Note_on_c, 0, 73, 0
2, 52320, Note_on_c, 0, 73, 102
2, 52320, Note_on_c, 0, 54, 102
2, 52416, Note_on_c, 0, 71, 102
2, 52511, Note_on_c, 0, 71, 0
2, 52511, Note_on_c, 0, 54, 0
2, 52512, Note_on_c, 0, 70, 102
2, 52512, Note_on_c, 0, 42, 102
2, 52607, Note_on_c, 0, 70, 0
2, 52608, Note_on_c, 0, 68, 102
2, 52703, Note_on_c, 0, 68, 0
2, 52703, Note_on_c, 0, 42, 0
2, 52704, Note_on_c, 0, 70, 102
2, 52704, Note_on_c, 0, 54, 102
2, 52799, Note_on_c, 0, 70, 0
2, 52800, Note_on_c, 0, 66, 102
2, 52895, Note_on_c, 0, 54, 0
2, 52896, Note_on_c, 0, 58, 102
2, 52896, Note_on_c, 0, 52, 102
2, 52991, Note_on_c, 0, 52, 0
2, 52991, Note_on_c, 0, 73, 0
2, 52991, Note_on_c, 0, 66, 0
2, 52992, Note_on_c, 0, 74, 102
2, 52992, Note_on_c, 0, 54, 102
2, 53087, Note_on_c, 0, 54, 0
2, 53087, Note_on_c, 0, 74, 0
2, 53088, Note_on_c, 0, 73, 102
2, 53088, Note_on_c, 0, 52, 102
2, 53183, Note_on_c, 0, 52, 0
2, 53183, Note_on_c, 0, 73, 0
2, 53184, Note_on_c, 0, 71, 102
2, 53184, Note_on_c, 0, 50, 102
2, 53276, Note_on_c, 0, 58, 0
2, 53279, Note_on_c, 0, 50, 0
2, 53279, Note_on_c, 0, 71, 0
2, 53280, Note_on_c, 0, 73, 102
2, 53280, Note_on_c, 0, 52, 102
2, 53375, Note_on_c, 0, 52, 0
2, 53375, Note_on_c, 0, 73, 0
2, 53376, Note_on_c, 0, 70, 102
2, 53376, Note_on_c, 0, 49, 102
2, 53471, Note_on_c, 0, 49, 0
2, 53471, Note_on_c, 0, 70, 0
2, 53472, Note_on_c, 0, 71, 102
2, 53472, Note_on_c, 0, 50, 102
2, 53568, Note_on_c, 0, 54, 102
2, 53663, Note_on_c, 0, 54, 0
2, 53664, Note_on_c, 0, 59, 102
2, 53752, Note_on_c, 0, 50, 0
2, 53759, Note_on_c, 0, 71, 0
2, 53760, Note_on_c, 0, 73, 102
2, 53760, Note_on_c, 0, 49, 102
2, 53854, Note_on_c, 0, 59, 0
2, 53855, Note_on_c, 0, 49, 0
2, 53855, Note_on_c, 0, 73, 0
2, 53856, Note_on_c, 0, 74, 102
2, 53856, Note_on_c, 0, 47, 102
2, 53951, Note_on_c, 0, 47, 0
2, 53951, Note_on_c, 0, 74, 0
2, 53952, Note_on_c, 0, 76, 102
2, 53952, Note_on_c, 0, 54, 102
2, 54047, Note_on_c, 0, 54, 0
2, 54047, Note_on_c, 0, 76, 0
2, 54048, Note_on_c, 0, 74, 102
2, 54048, Note_on_c, 0, 59, 102
2, 54143, Note_on_c, 0, 59, 0
2, 54143, Note_on_c, 0, 74, 0
2, 54144, Note_on_c, 0, 73, 102
2, 54144, Note_on_c, 0, 57, 102
2, 54239, Note_on_c, 0, 57, 0
2, 54239, Note_on_c, 0, 73, 0
2, 54240, Note_on_c, 0, 74, 102
2, 54240, Note_on_c, 0, 56, 102
2, 54335, Note_on_c, 0, 56, 0
2, 54335, Note_on_c, 0, 74, 0
2, 54336, Note_on_c, 0, 71, 102
2, 54336, Note_on_c, 0, 54, 102
2, 54431, Note_on_c, 0, 54, 0
2, 54431, Note_on_c, 0, 71, 0
2, 54432, Note_on_c, 0, 76, 102
2, 54432, Note_on_c, 0, 56, 102
2, 54527, Note_on_c, 0, 56, 0
2, 54528, Note_on_c, 0, 52, 102
2, 54623, Note_on_c, 0, 52, 0
2, 54623, Note_on_c, 0, 76, 0
2, 54624, Note_on_c, 0, 74, 102
2, 54624, Note_on_c, 0, 45, 102
2, 54671, Note_on_c, 0, 74, 0
2, 54672, Note_on_c, 0, 73, 102
2, 54719, Note_on_c, 0, 73, 0
2, 54719, Note_on_c, 0, 45, 0
2, 54720, Note_on_c, 0, 74, 102
2, 54720, Note_on_c, 0, 52, 102
2, 54767, Note_on_c, 0, 74, 0
2, 54768, Note_on_c, 0, 73, 102
2, 54815, Note_on_c, 0, 73, 0
2, 54815, Note_on_c, 0, 52, 0
2, 54816, Note_on_c, 0, 74, 102
2, 54816, Note_on_c, 0, 57, 102
2, 54863, Note_on_c, 0, 74, 0
2, 54864, Note_on_c, 0, 73, 102
2, 54911, Note_on_c, 0, 73, 0
2, 54911, Note_on_c, 0, 57, 0
2, 54912, Note_on_c, 0, 71, 102
2, 54912, Note_on_c, 0, 55, 102
2, 55007, Note_on_c, 0, 55, 0
2, 55007, Note_on_c, 0, 71, 0
2, 55008, Note_on_c, 0, 69, 102
2, 55008, Note_on_c, 0, 54, 102
2, 55103, Note_on_c, 0, 54, 0
2, 55104, Note_on_c, 0, 52, 102
2, 55199, Note_on_c, 0, 52, 0
2, 55200, Note_on_c, 0, 54, 102
2, 55248, Note_on_c, 0, 69, 0
2, 55295, Note_on_c, 0, 54, 0
2, 55296, Note_on_c, 0, 83, 102
2, 55296, Note_on_c, 0, 50, 102
2, 55391, Note_on_c, 0, 50, 0
2, 55391, Note_on_c, 0, 83, 0
2, 55392, Note_on_c, 0, 81, 102
2, 55392, Note_on_c, 0, 62, 102
2, 55487, Note_on_c, 0, 81, 0
2, 55488, Note_on_c, 0, 79, 102
2, 55583, Note_on_c, 0, 79, 0
2, 55584, Note_on_c, 0, 81, 102
2, 55679, Note_on_c, 0, 81, 0
2, 55679, Note_on_c, 0, 62, 0
2, 55680, Note_on_c, 0, 78, 102
2, 55680, Note_on_c, 0, 50, 102
2, 55775, Note_on_c, 0, 50, 0
2, 55775, Note_on_c, 0, 78, 0
2, 55776, Note_on_c, 0, 83, 102
2, 55776, Note_on_c, 0, 55, 102
2, 55871, Note_on_c, 0, 55, 0
2, 55872, Note_on_c, 0, 54, 102
2, 55967, Note_on_c, 0, 54, 0
2, 55968, Note_on_c, 0, 55, 102
2, 56063, Note_on_c, 0, 55, 0
2, 56063, Note_on_c, 0, 83, 0
2, 56064, Note_on_c, 0, 81, 102
2, 56064, Note_on_c, 0, 57, 102
2, 56159, Note_on_c, 0, 57, 0
2, 56159, Note_on_c, 0, 81, 0
2, 56160, Note_on_c, 0, 79, 102
2, 56160, Note_on_c, 0, 59, 102
2, 56255, Note_on_c, 0, 59, 0
2, 56256, Note_on_c, 0, 55, 102
2, 56340, Note_on_c, 0, 79, 0
2, 56351, Note_on_c, 0, 55, 0
2, 56352, Note_on_c, 0, 78, 102
2, 56352, Note_on_c, 0, 60, 102
2, 56447, Note_on_c, 0, 78, 0
2, 56448, Note_on_c, 0, 76, 102
2, 56543, Note_on_c, 0, 76, 0
2, 56544, Note_on_c, 0, 75, 102
2, 56544, Note_on_c, 0, 78, 102
2, 56639, Note_on_c, 0, 60, 0
2, 56640, Note_on_c, 0, 59, 102
2, 56735, Note_on_c, 0, 59, 0
2, 56736, Note_on_c, 0, 57, 102
2, 56831, Note_on_c, 0, 57, 0
2, 56831, Note_on_c, 0, 78, 0
2, 56831, Note_on_c, 0, 75, 0
2, 56832, Note_on_c, 0, 79, 102
2, 56832, Note_on_c, 0, 76, 102
2, 56832, Note_on_c, 0, 55, 102
2, 56927, Note_on_c, 0, 55, 0
2, 56927, Note_on_c, 0, 76, 0
2, 56927, Note_on_c, 0, 79, 0
2, 56928, Note_on_c, 0, 81, 102
2, 56928, Note_on_c, 0, 78, 102
2, 56928, Note_on_c, 0, 54, 102
2, 57023, Note_on_c, 0, 54, 0
2, 57024, Note_on_c, 0, 55, 102
2, 57119, Note_on_c, 0, 55, 0
2, 57120, Note_on_c, 0, 57, 102
2, 57188, Note_on_c, 0, 78, 0
2, 57215, Note_on_c, 0, 57, 0
2, 57215, Note_on_c, 0, 81, 0
2, 57216, Note_on_c, 0, 75, 102
2, 57216, Note_on_c, 0, 54, 102
2, 57311, Note_on_c, 0, 54, 0
2, 57311, Note_on_c, 0, 75, 0
2, 57312, Note_on_c, 0, 76, 102
2, 57312, Note_on_c, 0, 55, 102
2, 57407, Note_on_c, 0, 55, 0
2, 57407, Note_on_c, 0, 76, 0
2, 57408, Note_on_c, 0, 78, 102
2, 57408, Note_on_c, 0, 60, 102
2, 57503, Note_on_c, 0, 60, 0
2, 57503, Note_on_c, 0, 78, 0
2, 57504, Note_on_c, 0, 76, 102
2, 57504, Note_on_c, 0, 59, 102
2, 57599, Note_on_c, 0, 59, 0
2, 57599, Note_on_c, 0, 76, 0
2, 57600, Note_on_c, 0, 78, 102
2, 57600, Note_on_c, 0, 57, 102
2, 57695, Note_on_c, 0, 57, 0
2, 57695, Note_on_c, 0, 78, 0
2, 57696, Note_on_c, 0, 79, 102
2, 57696, Note_on_c, 0, 59, 102
2, 57743, Note_on_c, 0, 79, 0
2, 57744, Note_on_c, 0, 78, 102
2, 57791, Note_on_c, 0, 78, 0
2, 57791, Note_on_c, 0, 59, 0
2, 57792, Note_on_c, 0, 79, 102
2, 57792, Note_on_c, 0, 61, 102
2, 57839, Note_on_c, 0, 79, 0
2, 57840, Note_on_c, 0, 78, 102
2, 57887, Note_on_c, 0, 78, 0
2, 57887, Note_on_c, 0, 61, 0
2, 57888, Note_on_c, 0, 79, 102
2, 57888, Note_on_c, 0, 63, 102
2, 57935, Note_on_c, 0, 79, 0
2, 57936, Note_on_c, 0, 78, 102
2, 57983, Note_on_c, 0, 78, 0
2, 57983, Note_on_c, 0, 63, 0
2, 57984, Note_on_c, 0, 76, 102
2, 57984, Note_on_c, 0, 59, 102
2, 58031, Note_on_c, 0, 76, 0
2, 58032, Note_on_c, 0, 78, 102
2, 58079, Note_on_c, 0, 78, 0
2, 58079, Note_on_c, 0, 59, 0
2, 58080, Note_on_c, 0, 79, 102
2, 58080, Note_on_c, 0, 64, 102
2, 58175, Note_on_c, 0, 79, 0
2, 58176, Note_on_c, 0, 81, 102
2, 58271, Note_on_c, 0, 81, 0
2, 58272, Note_on_c, 0, 79, 102
2, 58355, Note_on_c, 0, 64, 0
2, 58367, Note_on_c, 0, 79, 0
2, 58368, Note_on_c, 0, 78, 102
2, 58368, Note_on_c, 0, 62, 102
2, 58463, Note_on_c, 0, 62, 0
2, 58463, Note_on_c, 0, 78, 0
2, 58464, Note_on_c, 0, 79, 102
2, 58464, Note_on_c, 0, 60, 102
2, 58559, Note_on_c, 0, 60, 0
2, 58559, Note_on_c, 0, 79, 0
2, 58560, Note_on_c, 0, 76, 102
2, 58560, Note_on_c, 0, 59, 102
2, 58655, Note_on_c, 0, 59, 0
2, 58655, Note_on_c, 0, 76, 0
2, 58656, Note_on_c, 0, 78, 102
2, 58656, Note_on_c, 0, 60, 102
2, 58751, Note_on_c, 0, 60, 0
2, 58752, Note_on_c, 0, 57, 102
2, 58847, Note_on_c, 0, 57, 0
2, 58847, Note_on_c, 0, 78, 0
2, 58848, Note_on_c, 0, 76, 102
2, 58848, Note_on_c, 0, 59, 102
2, 58895, Note_on_c, 0, 76, 0
2, 58896, Note_on_c, 0, 75, 102
2, 58943, Note_on_c, 0, 75, 0
2, 58944, Note_on_c, 0, 76, 102
2, 58991, Note_on_c, 0, 76, 0
2, 58992, Note_on_c, 0, 75, 102
2, 59039, Note_on_c, 0, 75, 0
2, 59039, Note_on_c, 0, 59, 0
2, 59040, Note_on_c, 0, 76, 102
2, 59040, Note_on_c, 0, 47, 102
2, 59087, Note_on_c, 0, 76, 0
2, 59088, Note_on_c, 0, 75, 102
2, 59135, Note_on_c, 0, 75, 0
2, 59136, Note_on_c, 0, 76, 102
2, 59231, Note_on_c, 0, 76, 0
2, 59231, Note_on_c, 0, 47, 0
2, 59232, Note_on_c, 0, 71, 102
2, 59232, Note_on_c, 0, 76, 102
2, 59232, Note_on_c, 0, 67, 102
2, 59232, Note_on_c, 0, 52, 102
2, 59327, Note_on_c, 0, 52, 0
2, 59328, Note_on_c, 0, 57, 102
2, 59423, Note_on_c, 0, 57, 0
2, 59424, Note_on_c, 0, 55, 102
2, 59519, Note_on_c, 0, 55, 0
2, 59520, Note_on_c, 0, 54, 102
2, 59615, Note_on_c, 0, 54, 0
2, 59616, Note_on_c, 0, 55, 102
2, 59711, Note_on_c, 0, 55, 0
2, 59712, Note_on_c, 0, 52, 102
2, 59792, Note_on_c, 0, 67, 0
2, 59792, Note_on_c, 0, 71, 0
2, 59807, Note_on_c, 0, 76, 0
2, 59807, Note_on_c, 0, 52, 0
2, 59808, Note_on_c, 0, 61, 102
2, 59903, Note_on_c, 0, 61, 0
2, 59904, Note_on_c, 0, 78, 102
2, 59904, Note_on_c, 0, 62, 102
2, 59999, Note_on_c, 0, 62, 0
2, 59999, Note_on_c, 0, 78, 0
2, 60000, Note_on_c, 0, 76, 102
2, 60000, Note_on_c, 0, 61, 102
2, 60095, Note_on_c, 0, 61, 0
2, 60095, Note_on_c, 0, 76, 0
2, 60096, Note_on_c, 0, 74, 102
2, 60096, Note_on_c, 0, 59, 102
2, 60191, Note_on_c, 0, 59, 0
2, 60191, Note_on_c, 0, 74, 0
2, 60192, Note_on_c, 0, 76, 102
2, 60192, Note_on_c, 0, 61, 102
2, 60287, Note_on_c, 0, 61, 0
2, 60287, Note_on_c, 0, 76, 0
2, 60288, Note_on_c, 0, 79, 102
2, 60288, Note_on_c, 0, 57, 102
2, 60383, Note_on_c, 0, 57, 0
2, 60383, Note_on_c, 0, 79, 0
2, 60384, Note_on_c, 0, 73, 102
2, 60384, Note_on_c, 0, 67, 102
2, 60479, Note_on_c, 0, 67, 0
2, 60480, Note_on_c, 0, 69, 102
2, 60575, Note_on_c, 0, 69, 0
2, 60576, Note_on_c, 0, 67, 102
2, 60660, Note_on_c, 0, 73, 0
2, 60671, Note_on_c, 0, 67, 0
2, 60672, Note_on_c, 0, 74, 102
2, 60672, Note_on_c, 0, 66, 102
2, 60767, Note_on_c, 0, 66, 0
2, 60767, Note_on_c, 0, 74, 0
2, 60768, Note_on_c, 0, 76, 102
2, 60768, Note_on_c, 0, 67, 102
2, 60863, Note_on_c, 0, 67, 0
2, 60864, Note_on_c, 0, 64, 102
2, 60959, Note_on_c, 0, 64, 0
2, 60960, Note_on_c, 0, 66, 102
2, 61028, Note_on_c, 0, 76, 0
2, 61056, Note_on_c, 0, 74, 102
2, 61151, Note_on_c, 0, 74, 0
2, 61152, Note_on_c, 0, 73, 102
2, 61247, Note_on_c, 0, 73, 0
2, 61248, Note_on_c, 0, 71, 102
2, 61343, Note_on_c, 0, 71, 0
2, 61344, Note_on_c, 0, 73, 102
2, 61439, Note_on_c, 0, 73, 0
2, 61440, Note_on_c, 0, 76, 102
2, 61535, Note_on_c, 0, 76, 0
2, 61536, Note_on_c, 0, 69, 102
2, 61631, Note_on_c, 0, 66, 0
2, 61632, Note_on_c, 0, 59, 102
2, 61727, Note_on_c, 0, 59, 0
2, 61728, Note_on_c, 0, 57, 102
2, 61816, Note_on_c, 0, 69, 0
2, 61823, Note_on_c, 0, 57, 0
2, 61824, Note_on_c, 0, 71, 102
2, 61824, Note_on_c, 0, 55, 102
2, 61919, Note_on_c, 0, 55, 0
2, 61919, Note_on_c, 0, 71, 0
2, 61920, Note_on_c, 0, 72, 102
2, 61920, Note_on_c, 0, 57, 102
2, 62015, Note_on_c, 0, 57, 0
2, 62015, Note_on_c, 0, 72, 0
2, 62016, Note_on_c, 0, 74, 102
2, 62016, Note_on_c, 0, 54, 102
2, 62111, Note_on_c, 0, 54, 0
2, 62111, Note_on_c, 0, 74, 0
2, 62112, Note_on_c, 0, 72, 102
2, 62112, Note_on_c, 0, 62, 102
2, 62207, Note_on_c, 0, 62, 0
2, 62207, Note_on_c, 0, 72, 0
2, 62208, Note_on_c, 0, 71, 102
2, 62208, Note_on_c, 0, 55, 102
2, 62303, Note_on_c, 0, 55, 0
2, 62303, Note_on_c, 0, 71, 0
2, 62304, Note_on_c, 0, 72, 102
2, 62304, Note_on_c, 0, 54, 102
2, 62399, Note_on_c, 0, 54, 0
2, 62399, Note_on_c, 0, 72, 0
2, 62400, Note_on_c, 0, 69, 102
2, 62400, Note_on_c, 0, 52, 102
2, 62495, Note_on_c, 0, 52, 0
2, 62495, Note_on_c, 0, 69, 0
2, 62496, Note_on_c, 0, 74, 102
2, 62496, Note_on_c, 0, 54, 102
2, 62591, Note_on_c, 0, 54, 0
2, 62592, Note_on_c, 0, 50, 102
2, 62687, Note_on_c, 0, 50, 0
2, 62687, Note_on_c, 0, 74, 0
2, 62688, Note_on_c, 0, 71, 102
2, 62688, Note_on_c, 0, 55, 102
2, 62783, Note_on_c, 0, 55, 0
2, 62784, Note_on_c, 0, 59, 102
2, 62879, Note_on_c, 0, 59, 0
2, 62880, Note_on_c, 0, 57, 102
2, 62948, Note_on_c, 0, 71, 0
2, 62975, Note_on_c, 0, 57, 0
2, 62976, Note_on_c, 0, 73, 102
2, 62976, Note_on_c, 0, 55, 102
2, 63071, Note_on_c, 0, 55, 0
2, 63071, Note_on_c, 0, 73, 0
2, 63072, Note_on_c, 0, 75, 102
2, 63072, Note_on_c, 0, 54, 102
2, 63167, Note_on_c, 0, 54, 0
2, 63167, Note_on_c, 0, 75, 0
2, 63168, Note_on_c, 0, 76, 102
2, 63168, Note_on_c, 0, 52, 102
2, 63263, Note_on_c, 0, 52, 0
2, 63263, Note_on_c, 0, 76, 0
2, 63264, Note_on_c, 0, 78, 102
2, 63264, Note_on_c, 0, 51, 102
2, 63359, Note_on_c, 0, 51, 0
2, 63359, Note_on_c, 0, 78, 0
2, 63360, Note_on_c, 0, 79, 102
2, 63360, Note_on_c, 0, 52, 102
2, 63455, Note_on_c, 0, 52, 0
2, 63455, Note_on_c, 0, 79, 0
2, 63456, Note_on_c, 0, 78, 102
2, 63456, Note_on_c, 0, 51, 102
2, 63551, Note_on_c, 0, 51, 0
2, 63551, Note_on_c, 0, 78, 0
2, 63552, Note_on_c, 0, 71, 102
2, 63552, Note_on_c, 0, 49, 102
2, 63647, Note_on_c, 0, 49, 0
2, 63647, Note_on_c, 0, 71, 0
2, 63648, Note_on_c, 0, 81, 102
2, 63648, Note_on_c, 0, 51, 102
2, 63743, Note_on_c, 0, 51, 0
2, 63744, Note_on_c, 0, 47, 102
2, 63818, Note_on_c, 0, 81, 0
2, 63839, Note_on_c, 0, 47, 0
2, 63840, Note_on_c, 0, 79, 102
2, 63840, Note_on_c, 0, 52, 102
2, 63935, Note_on_c, 0, 52, 0
2, 63936, Note_on_c, 0, 51, 102
2, 64031, Note_on_c, 0, 51, 0
2, 64032, Note_on_c, 0, 52, 102
2, 64127, Note_on_c, 0, 52, 0
2, 64127, Note_on_c, 0, 79, 0
2, 64128, Note_on_c, 0, 78, 102
2, 64128, Note_on_c, 0, 54, 102
2, 64223, Note_on_c, 0, 54, 0
2, 64223, Note_on_c, 0, 78, 0
2, 64224, Note_on_c, 0, 76, 102
2, 64224, Note_on_c, 0, 55, 102
2, 64319, Note_on_c, 0, 55, 0
2, 64320, Note_on_c, 0, 52, 102
2, 64415, Note_on_c, 0, 52, 0
2, 64415, Note_on_c, 0, 76, 0
2, 64416, Note_on_c, 0, 74, 102
2, 64416, Note_on_c, 0, 57, 102
2, 64511, Note_on_c, 0, 74, 0
2, 64512, Note_on_c, 0, 73, 102
2, 64607, Note_on_c, 0, 73, 0
2, 64608, Note_on_c, 0, 71, 102
2, 64608, Note_on_c, 0, 74, 102
2, 64703, Note_on_c, 0, 57, 0
2, 64704, Note_on_c, 0, 55, 102
2, 64799, Note_on_c, 0, 55, 0
2, 64800, Note_on_c, 0, 54, 102
2, 64895, Note_on_c, 0, 54, 0
2, 64895, Note_on_c, 0, 74, 0
2, 64895, Note_on_c, 0, 71, 0
2, 64896, Note_on_c, 0, 76, 102
2, 64896, Note_on_c, 0, 73, 102
2, 64896, Note_on_c, 0, 52, 102
2, 64991, Note_on_c, 0, 52, 0
2, 64991, Note_on_c, 0, 73, 0
2, 64991, Note_on_c, 0, 76, 0
2, 64992, Note_on_c, 0, 78, 102
2, 64992, Note_on_c, 0, 74, 102
2, 64992, Note_on_c, 0, 50, 102
2, 65087, Note_on_c, 0, 50, 0
2, 65088, Note_on_c, 0, 52, 102
2, 65183, Note_on_c, 0, 52, 0
2, 65184, Note_on_c, 0, 50, 102
2, 65252, Note_on_c, 0, 74, 0
2, 65279, Note_on_c, 0, 50, 0
2, 65279, Note_on_c, 0, 78, 0
2, 65280, Note_on_c, 0, 70, 102
2, 65280, Note_on_c, 0, 49, 102
2, 65375, Note_on_c, 0, 49, 0
2, 65375, Note_on_c, 0, 70, 0
2, 65376, Note_on_c, 0, 71, 102
2, 65376, Note_on_c, 0, 50, 102
2, 65471, Note_on_c, 0, 50, 0
2, 65471, Note_on_c, 0, 71, 0
2, 65472, Note_on_c, 0, 73, 102
2, 65472, Note_on_c, 0, 47, 102
2, 65567, Note_on_c, 0, 47, 0
2, 65567, Note_on_c, 0, 73, 0
2, 65568, Note_on_c, 0, 71, 102
2, 65568, Note_on_c, 0, 55, 102
2, 65663, Note_on_c, 0, 55, 0
2, 65663, Note_on_c, 0, 71, 0
2, 65664, Note_on_c, 0, 73, 102
2, 65664, Note_on_c, 0, 54, 102
2, 65759, Note_on_c, 0, 54, 0
2, 65759, Note_on_c, 0, 73, 0
2, 65760, Note_on_c, 0, 74, 102
2, 65760, Note_on_c, 0, 52, 102
2, 65807, Note_on_c, 0, 74, 0
2, 65808, Note_on_c, 0, 73, 102
2, 65855, Note_on_c, 0, 73, 0
2, 65855, Note_on_c, 0, 52, 0
2, 65856, Note_on_c, 0, 74, 102
2, 65856, Note_on_c, 0, 50, 102
2, 65903, Note_on_c, 0, 74, 0
2, 65904, Note_on_c, 0, 73, 102
2, 65951, Note_on_c, 0, 73, 0
2, 65951, Note_on_c, 0, 50, 0
2, 65952, Note_on_c, 0, 74, 102
2, 65952, Note_on_c, 0, 52, 102
2, 65999, Note_on_c, 0, 74, 0
2, 66000, Note_on_c, 0, 73, 102
2, 66047, Note_on_c, 0, 73, 0
2, 66047, Note_on_c, 0, 52, 0
2, 66048, Note_on_c, 0, 71, 102
2, 66048, Note_on_c, 0, 54, 102
2, 66095, Note_on_c, 0, 71, 0
2, 66096, Note_on_c, 0, 73, 102
2, 66143, Note_on_c, 0, 73, 0
2, 66143, Note_on_c, 0, 54, 0
2, 66144, Note_on_c, 0, 74, 102
2, 66144, Note_on_c, 0, 47, 102
2, 66239, Note_on_c, 0, 47, 0
2, 66239, Note_on_c, 0, 74, 0
2, 66240, Note_on_c, 0, 76, 102
2, 66240, Note_on_c, 0, 54, 102
2, 66335, Note_on_c, 0, 54, 0
2, 66335, Note_on_c, 0, 76, 0
2, 66336, Note_on_c, 0, 74, 102
2, 66336, Note_on_c, 0, 59, 102
2, 66431, Note_on_c, 0, 59, 0
2, 66431, Note_on_c, 0, 74, 0
2, 66432, Note_on_c, 0, 73, 102
2, 66432, Note_on_c, 0, 57, 102
2, 66527, Note_on_c, 0, 57, 0
2, 66527, Note_on_c, 0, 73, 0
2, 66528, Note_on_c, 0, 74, 102
2, 66528, Note_on_c, 0, 55, 102
2, 66623, Note_on_c, 0, 55, 0
2, 66623, Note_on_c, 0, 74, 0
2, 66624, Note_on_c, 0, 71, 102
2, 66624, Note_on_c, 0, 54, 102
2, 66719, Note_on_c, 0, 54, 0
2, 66719, Note_on_c, 0, 71, 0
2, 66720, Note_on_c, 0, 73, 102
2, 66720, Note_on_c, 0, 52, 102
2, 66815, Note_on_c, 0, 52, 0
2, 66816, Note_on_c, 0, 49, 102
2, 66880, Note_on_c, 0, 73, 0
2, 66911, Note_on_c, 0, 49, 0
2, 66912, Note_on_c, 0, 71, 102
2, 66912, Note_on_c, 0, 54, 102
2, 66959, Note_on_c, 0, 71, 0
2, 66960, Note_on_c, 0, 70, 102
2, 67007, Note_on_c, 0, 70, 0
2, 67007, Note_on_c, 0, 54, 0
2, 67008, Note_on_c, 0, 71, 102
2, 67008, Note_on_c, 0, 52, 102
2, 67055, Note_on_c, 0, 71, 0
2, 67056, Note_on_c, 0, 70, 102
2, 67103, Note_on_c, 0, 70, 0
2, 67103, Note_on_c, 0, 52, 0
2, 67104, Note_on_c, 0, 71, 102
2, 67104, Note_on_c, 0, 54, 102
2, 67151, Note_on_c, 0, 71, 0
2, 67152, Note_on_c, 0, 70, 102
2, 67199, Note_on_c, 0, 70, 0
2, 67199, Note_on_c, 0, 54, 0
2, 67200, Note_on_c, 0, 71, 102
2, 67200, Note_on_c, 0, 42, 102
2, 67295, Note_on_c, 0, 42, 0
2, 67295, Note_on_c, 0, 71, 0
2, 67296, Note_on_c, 0, 71, 102
2, 67296, Note_on_c, 0, 43, 102
2, 67391, Note_on_c, 0, 43, 0
2, 67392, Note_on_c, 0, 47, 102
2, 67487, Note_on_c, 0, 47, 0
2, 67488, Note_on_c, 0, 49, 102
2, 67583, Note_on_c, 0, 49, 0
2, 67584, Note_on_c, 0, 69, 102
2, 67584, Note_on_c, 0, 51, 102
2, 67679, Note_on_c, 0, 51, 0
2, 67679, Note_on_c, 0, 69, 0
2, 67680, Note_on_c, 0, 67, 102
2, 67680, Note_on_c, 0, 52, 102
2, 67775, Note_on_c, 0, 67, 0
2, 67776, Note_on_c, 0, 66, 102
2, 67871, Note_on_c, 0, 66, 0
2, 67872, Note_on_c, 0, 67, 102
2, 67967, Note_on_c, 0, 67, 0
2, 67967, Note_on_c, 0, 52, 0
2, 67968, Note_on_c, 0, 64, 102
2, 67968, Note_on_c, 0, 54, 102
2, 68063, Note_on_c, 0, 54, 0
2, 68063, Note_on_c, 0, 71, 0
2, 68064, Note_on_c, 0, 73, 102
2, 68064, Note_on_c, 0, 52, 102
2, 68159, Note_on_c, 0, 52, 0
2, 68160, Note_on_c, 0, 50, 102
2, 68255, Note_on_c, 0, 50, 0
2, 68255, Note_on_c, 0, 73, 0
2, 68256, Note_on_c, 0, 74, 102
2, 68256, Note_on_c, 0, 52, 102
2, 68351, Note_on_c, 0, 52, 0
2, 68351, Note_on_c, 0, 74, 0
2, 68352, Note_on_c, 0, 49, 102
2, 68352, Note_on_c, 0, 76, 102
2, 68448, Note_on_c, 0, 64, 0
2, 68449, Note_on_c, 0, 76, 0
2, 68449, Note_on_c, 0, 49, 0
2, 68450, Note_on_c, 0, 58, 102
2, 68450, Note_on_c, 0, 66, 102
2, 68547, Note_on_c, 0, 66, 0
2, 68549, Note_on_c, 0, 76, 102
2, 68646, Note_on_c, 0, 76, 0
2, 68646, Note_on_c, 0, 58, 0
2, 68648, Note_on_c, 0, 54, 102
2, 68648, Note_on_c, 0, 74, 102
2, 68745, Note_on_c, 0, 74, 0
2, 68747, Note_on_c, 0, 73, 102
2, 68844, Note_on_c, 0, 54, 0
2, 68846, Note_on_c, 0, 73, 0
2, 68848, Note_on_c, 0, 74, 102
2, 68848, Note_on_c, 0, 59, 102
2, 68947, Note_on_c, 0, 74, 0
2, 68950, Note_on_c, 0, 71, 102
2, 69049, Note_on_c, 0, 59, 0
2, 69052, Note_on_c, 0, 79, 102
2, 69052, Note_on_c, 0, 52, 102
2, 69150, Note_on_c, 0, 71, 0
2, 69253, Note_on_c, 0, 52, 0
2, 69253, Note_on_c, 0, 79, 0
2, 69258, Note_on_c, 0, 54, 102
2, 69258, Note_on_c, 0, 74, 102
2, 69258, Note_on_c, 0, 70, 102
2, 69308, Note_on_c, 0, 74, 0
2, 69310, Note_on_c, 0, 73, 102
2, 69360, Note_on_c, 0, 73, 0
2, 69363, Note_on_c, 0, 74, 102
2, 69413, Note_on_c, 0, 74, 0
2, 69415, Note_on_c, 0, 73, 102
2, 69465, Note_on_c, 0, 54, 0
2, 69468, Note_on_c, 0, 42, 102
2, 69562, Note_on_c, 0, 70, 0
2, 69570, Note_on_c, 0, 73, 0
2, 69573, Note_on_c, 0, 71, 102
2, 69675, Note_on_c, 0, 42, 0
2, 69680, Note_on_c, 0, 71, 0
2, 69682, Note_on_c, 0, 47, 102
2, 69682, Note_on_c, 0, 71, 102
2, 69905, Note_on_c, 0, 50, 102
2, 70124, Note_on_c, 0, 50, 0
2, 70128, Note_on_c, 0, 54, 102
2, 70347, Note_on_c, 0, 54, 0
2, 70351, Note_on_c, 0, 59, 102
2, 70351, Note_on_c, 0, 66, 102
2, 70351, Note_on_c, 0, 62, 102
2, 70997, Note_on_c, 0, 62, 0
2, 71010, Note_on_c, 0, 66, 0
2, 71023, Note_on_c, 0, 47, 0
2, 71023, Note_on_c, 0, 71, 0
2, 71052, Note_on_c, 0, 59, 0
2, 72960, Note_on_c, 0, 71, 102
2, 72960, Note_on_c, 0, 59, 102
2, 72960, Note_on_c, 0, 62, 102
2, 73151, Note_on_c, 0, 71, 0
2, 73152, Note_on_c, 0, 74, 102
2, 73343, Note_on_c, 0, 74, 0
2, 73344, Note_on_c, 0, 78, 102
2, 73535, Note_on_c, 0, 78, 0
2, 73536, Note_on_c, 0, 83, 102
2, 73727, Note_on_c, 0, 62, 0
2, 73727, Note_on_c, 0, 59, 0
2, 73728, Note_on_c, 0, 64, 102
2, 73728, Note_on_c, 0, 61, 102
2, 73856, Note_on_c, 0, 83, 0
2, 73920, Note_on_c, 0, 82, 102
2, 74111, Note_on_c, 0, 82, 0
2, 74111, Note_on_c, 0, 61, 0
2, 74111, Note_on_c, 0, 64, 0
2, 74112, Note_on_c, 0, 83, 102
2, 74112, Note_on_c, 0, 62, 102
2, 74112, Note_on_c, 0, 66, 102
2, 74303, Note_on_c, 0, 83, 0
2, 74304, Note_on_c, 0, 78, 102
2, 74495, Note_on_c, 0, 78, 0
2, 74496, Note_on_c, 0, 76, 102
2, 74591, Note_on_c, 0, 76, 0
2, 74592, Note_on_c, 0, 74, 102
2, 74687, Note_on_c, 0, 74, 0
2, 74688, Note_on_c, 0, 73, 102
2, 74783, Note_on_c, 0, 73, 0
2, 74784, Note_on_c, 0, 71, 102
2, 74879, Note_on_c, 0, 66, 0
2, 74879, Note_on_c, 0, 62, 0
2, 74880, Note_on_c, 0, 61, 102
2, 74880, Note_on_c, 0, 64, 102
2, 75024, Note_on_c, 0, 71, 0
2, 75072, Note_on_c, 0, 70, 102
2, 75263, Note_on_c, 0, 70, 0
2, 75263, Note_on_c, 0, 64, 0
2, 75263, Note_on_c, 0, 61, 0
2, 75264, Note_on_c, 0, 71, 102
2, 75264, Note_on_c, 0, 59, 102
2, 75264, Note_on_c, 0, 62, 102
2, 75444, Note_on_c, 0, 71, 0
2, 75456, Note_on_c, 0, 79, 102
2, 75647, Note_on_c, 0, 62, 0
2, 75647, Note_on_c, 0, 59, 0
2, 75648, Note_on_c, 0, 57, 102
2, 75648, Note_on_c, 0, 61, 102
2, 75726, Note_on_c, 0, 79, 0
2, 75744, Note_on_c, 0, 78, 102
2, 75839, Note_on_c, 0, 78, 0
2, 75840, Note_on_c, 0, 76, 102
2, 75935, Note_on_c, 0, 76, 0
2, 75936, Note_on_c, 0, 78, 102
2, 76031, Note_on_c, 0, 61, 0
2, 76031, Note_on_c, 0, 57, 0
2, 76032, Note_on_c, 0, 55, 102
2, 76032, Note_on_c, 0, 59, 102
2, 76116, Note_on_c, 0, 78, 0
2, 76128, Note_on_c, 0, 76, 102
2, 76223, Note_on_c, 0, 76, 0
2, 76224, Note_on_c, 0, 74, 102
2, 76319, Note_on_c, 0, 74, 0
2, 76320, Note_on_c, 0, 76, 102
2, 76415, Note_on_c, 0, 76, 0
2, 76415, Note_on_c, 0, 55, 0
2, 76416, Note_on_c, 0, 76, 102
2, 76416, Note_on_c, 0, 54, 102
2, 76607, Note_on_c, 0, 59, 0
2, 76608, Note_on_c, 0, 58, 102
2, 76799, Note_on_c, 0, 58, 0
2, 76800, Note_on_c, 0, 61, 102
2, 76991, Note_on_c, 0, 61, 0
2, 76992, Note_on_c, 0, 66, 102
2, 77183, Note_on_c, 0, 54, 0
2, 77184, Note_on_c, 0, 58, 102
2, 77372, Note_on_c, 0, 66, 0
2, 77376, Note_on_c, 0, 66, 102
2, 77564, Note_on_c, 0, 58, 0
2, 77566, Note_on_c, 0, 76, 0
2, 77568, Note_on_c, 0, 59, 102
2, 77664, Note_on_c, 0, 74, 102
2, 77756, Note_on_c, 0, 66, 0
2, 77759, Note_on_c, 0, 74, 0
2, 77760, Note_on_c, 0, 73, 102
2, 77760, Note_on_c, 0, 67, 102
2, 77855, Note_on_c, 0, 73, 0
2, 77856, Note_on_c, 0, 71, 102
2, 77948, Note_on_c, 0, 59, 0
2, 77951, Note_on_c, 0, 71, 0
2, 77952, Note_on_c, 0, 73, 102
2, 77952, Note_on_c, 0, 57, 102
2, 78047, Note_on_c, 0, 73, 0
2, 78048, Note_on_c, 0, 69, 102
2, 78140, Note_on_c, 0, 67, 0
2, 78143, Note_on_c, 0, 69, 0
2, 78144, Note_on_c, 0, 67, 102
2, 78144, Note_on_c, 0, 66, 102
2, 78239, Note_on_c, 0, 67, 0
2, 78240, Note_on_c, 0, 69, 102
2, 78332, Note_on_c, 0, 57, 0
2, 78335, Note_on_c, 0, 69, 0
2, 78336, Note_on_c, 0, 71, 102
2, 78336, Note_on_c, 0, 55, 102
2, 78431, Note_on_c, 0, 71, 0
2, 78432, Note_on_c, 0, 73, 102
2, 78524, Note_on_c, 0, 66, 0
2, 78527, Note_on_c, 0, 73, 0
2, 78528, Note_on_c, 0, 74, 102
2, 78528, Note_on_c, 0, 64, 102
2, 78623, Note_on_c, 0, 74, 0
2, 78624, Note_on_c, 0, 76, 102
2, 78716, Note_on_c, 0, 55, 0
2, 78719, Note_on_c, 0, 76, 0
2, 78720, Note_on_c, 0, 69, 102
2, 78720, Note_on_c, 0, 54, 102
2, 78804, Note_on_c, 0, 69, 0
2, 78816, Note_on_c, 0, 66, 102
2, 78908, Note_on_c, 0, 64, 0
2, 78911, Note_on_c, 0, 66, 0
2, 78912, Note_on_c, 0, 64, 102
2, 78912, Note_on_c, 0, 62, 102
2, 79007, Note_on_c, 0, 64, 0
2, 79008, Note_on_c, 0, 66, 102
2, 79100, Note_on_c, 0, 54, 0
2, 79103, Note_on_c, 0, 66, 0
2, 79104, Note_on_c, 0, 67, 102
2, 79104, Note_on_c, 0, 52, 102
2, 79199, Note_on_c, 0, 67, 0
2, 79200, Note_on_c, 0, 69, 102
2, 79292, Note_on_c, 0, 62, 0
2, 79295, Note_on_c, 0, 69, 0
2, 79296, Note_on_c, 0, 71, 102
2, 79296, Note_on_c, 0, 61, 102
2, 79391, Note_on_c, 0, 71, 0
2, 79392, Note_on_c, 0, 73, 102
2, 79484, Note_on_c, 0, 52, 0
2, 79487, Note_on_c, 0, 73, 0
2, 79488, Note_on_c, 0, 74, 102
2, 79488, Note_on_c, 0, 54, 102
2, 79583, Note_on_c, 0, 74, 0
2, 79584, Note_on_c, 0, 76, 102
2, 79676, Note_on_c, 0, 61, 0
2, 79679, Note_on_c, 0, 76, 0
2, 79680, Note_on_c, 0, 78, 102
2, 79680, Note_on_c, 0, 62, 102
2, 79775, Note_on_c, 0, 78, 0
2, 79776, Note_on_c, 0, 79, 102
2, 79868, Note_on_c, 0, 54, 0
2, 79871, Note_on_c, 0, 79, 0
2, 79872, Note_on_c, 0, 81, 102
2, 79872, Note_on_c, 0, 55, 102
2, 79967, Note_on_c, 0, 81, 0
2, 79968, Note_on_c, 0, 83, 102
2, 80053, Note_on_c, 0, 83, 0
2, 80060, Note_on_c, 0, 62, 0
2, 80064, Note_on_c, 0, 73, 102
2, 80064, Note_on_c, 0, 64, 102
2, 80159, Note_on_c, 0, 73, 0
2, 80160, Note_on_c, 0, 74, 102
2, 80246, Note_on_c, 0, 74, 0
2, 80252, Note_on_c, 0, 55, 0
2, 80255, Note_on_c, 0, 64, 0
2, 80256, Note_on_c, 0, 66, 102
2, 80256, Note_on_c, 0, 57, 102
2, 80256, Note_on_c, 0, 61, 102
2, 80351, Note_on_c, 0, 66, 0
2, 80352, Note_on_c, 0, 64, 102
2, 80447, Note_on_c, 0, 64, 0
2, 80447, Note_on_c, 0, 61, 0
2, 80447, Note_on_c, 0, 57, 0
2, 80448, Note_on_c, 0, 66, 102
2, 80448, Note_on_c, 0, 62, 102
2, 80448, Note_on_c, 0, 55, 102
2, 80543, Note_on_c, 0, 66, 0
2, 80544, Note_on_c, 0, 74, 102
2, 80630, Note_on_c, 0, 74, 0
2, 80639, Note_on_c, 0, 55, 0
2, 80640, Note_on_c, 0, 67, 102
2, 80640, Note_on_c, 0, 57, 102
2, 80735, Note_on_c, 0, 67, 0
2, 80736, Note_on_c, 0, 66, 102
2, 80828, Note_on_c, 0, 62, 0
2, 80831, Note_on_c, 0, 66, 0
2, 80832, Note_on_c, 0, 67, 102
2, 80832, Note_on_c, 0, 61, 102
2, 80927, Note_on_c, 0, 67, 0
2, 80928, Note_on_c, 0, 64, 102
2, 81020, Note_on_c, 0, 57, 0
2, 81023, Note_on_c, 0, 64, 0
2, 81023, Note_on_c, 0, 61, 0
2, 81024, Note_on_c, 0, 62, 102
2, 81024, Note_on_c, 0, 50, 102
2, 81120, Note_on_c, 0, 52, 102
2, 81215, Note_on_c, 0, 52, 0
2, 81216, Note_on_c, 0, 54, 102
2, 81311, Note_on_c, 0, 62, 0
2, 81312, Note_on_c, 0, 57, 102
2, 81407, Note_on_c, 0, 57, 0
2, 81408, Note_on_c, 0, 62, 102
2, 81504, Note_on_c, 0, 57, 102
2, 81596, Note_on_c, 0, 54, 0
2, 81600, Note_on_c, 0, 54, 102
2, 81694, Note_on_c, 0, 50, 0
2, 81696, Note_on_c, 0, 50, 102
2, 81791, Note_on_c, 0, 50, 0
2, 81792, Note_on_c, 0, 45, 102
2, 81887, Note_on_c, 0, 45, 0
2, 81888, Note_on_c, 0, 42, 102
2, 81983, Note_on_c, 0, 42, 0
2, 81984, Note_on_c, 0, 38, 102
2, 82108, Note_on_c, 0, 62, 0
2, 82123, Note_on_c, 0, 57, 0
2, 82135, Note_on_c, 0, 54, 0
2, 82174, Note_on_c, 0, 38, 0
2, 82176, Note_on_c, 0, 66, 102
2, 82176, Note_on_c, 0, 50, 102
2, 82223, Note_on_c, 0, 66, 0
2, 82224, Note_on_c, 0, 64, 102
2, 82271, Note_on_c, 0, 64, 0
2, 82272, Note_on_c, 0, 66, 102
2, 82368, Note_on_c, 0, 54, 102
2, 82559, Note_on_c, 0, 54, 0
2, 82560, Note_on_c, 0, 57, 102
2, 82751, Note_on_c, 0, 57, 0
2, 82752, Note_on_c, 0, 62, 102
2, 82943, Note_on_c, 0, 50, 0
2, 82944, Note_on_c, 0, 52, 102
2, 82972, Note_on_c, 0, 66, 0
2, 82992, Note_on_c, 0, 67, 102
2, 83039, Note_on_c, 0, 67, 0
2, 83040, Note_on_c, 0, 69, 102
2, 83087, Note_on_c, 0, 69, 0
2, 83088, Note_on_c, 0, 67, 102
2, 83132, Note_on_c, 0, 62, 0
2, 83135, Note_on_c, 0, 67, 0
2, 83136, Note_on_c, 0, 69, 102
2, 83136, Note_on_c, 0, 61, 102
2, 83183, Note_on_c, 0, 69, 0
2, 83184, Note_on_c, 0, 67, 102
2, 83231, Note_on_c, 0, 67, 0
2, 83232, Note_on_c, 0, 66, 102
2, 83279, Note_on_c, 0, 66, 0
2, 83280, Note_on_c, 0, 67, 102
2, 83324, Note_on_c, 0, 52, 0
2, 83327, Note_on_c, 0, 67, 0
2, 83327, Note_on_c, 0, 61, 0
2, 83328, Note_on_c, 0, 69, 102
2, 83328, Note_on_c, 0, 54, 102
2, 83520, Note_on_c, 0, 62, 102
2, 83708, Note_on_c, 0, 54, 0
2, 83712, Note_on_c, 0, 57, 102
2, 83893, Note_on_c, 0, 69, 0
2, 83903, Note_on_c, 0, 57, 0
2, 83904, Note_on_c, 0, 71, 102
2, 83904, Note_on_c, 0, 54, 102
2, 83999, Note_on_c, 0, 71, 0
2, 84000, Note_on_c, 0, 73, 102
2, 84095, Note_on_c, 0, 73, 0
2, 84095, Note_on_c, 0, 54, 0
2, 84096, Note_on_c, 0, 74, 102
2, 84096, Note_on_c, 0, 52, 102
2, 84191, Note_on_c, 0, 74, 0
2, 84192, Note_on_c, 0, 76, 102
2, 84287, Note_on_c, 0, 76, 0
2, 84287, Note_on_c, 0, 62, 0
2, 84288, Note_on_c, 0, 78, 102
2, 84288, Note_on_c, 0, 61, 102
2, 84383, Note_on_c, 0, 78, 0
2, 84384, Note_on_c, 0, 76, 102
2, 84476, Note_on_c, 0, 52, 0
2, 84479, Note_on_c, 0, 76, 0
2, 84479, Note_on_c, 0, 61, 0
2, 84480, Note_on_c, 0, 78, 102
2, 84480, Note_on_c, 0, 50, 102
2, 84576, Note_on_c, 0, 74, 102
2, 84670, Note_on_c, 0, 78, 0
2, 84671, Note_on_c, 0, 74, 0
2, 84671, Note_on_c, 0, 50, 0
2, 84672, Note_on_c, 0, 73, 102
2, 84672, Note_on_c, 0, 62, 102
2, 84767, Note_on_c, 0, 73, 0
2, 84768, Note_on_c, 0, 71, 102
2, 84863, Note_on_c, 0, 71, 0
2, 84864, Note_on_c, 0, 76, 102
2, 84959, Note_on_c, 0, 62, 0
2, 84960, Note_on_c, 0, 69, 102
2, 84960, Note_on_c, 0, 61, 102
2, 85054, Note_on_c, 0, 76, 0
2, 85055, Note_on_c, 0, 61, 0
2, 85055, Note_on_c, 0, 69, 0
2, 85056, Note_on_c, 0, 68, 102
2, 85056, Note_on_c, 0, 59, 102
2, 85151, Note_on_c, 0, 59, 0
2, 85151, Note_on_c, 0, 68, 0
2, 85152, Note_on_c, 0, 69, 102
2, 85152, Note_on_c, 0, 61, 102
2, 85247, Note_on_c, 0, 69, 0
2, 85248, Note_on_c, 0, 74, 102
2, 85343, Note_on_c, 0, 61, 0
2, 85344, Note_on_c, 0, 68, 102
2, 85344, Note_on_c, 0, 59, 102
2, 85438, Note_on_c, 0, 74, 0
2, 85439, Note_on_c, 0, 59, 0
2, 85439, Note_on_c, 0, 68, 0
2, 85440, Note_on_c, 0, 66, 102
2, 85440, Note_on_c, 0, 57, 102
2, 85535, Note_on_c, 0, 57, 0
2, 85535, Note_on_c, 0, 66, 0
2, 85536, Note_on_c, 0, 68, 102
2, 85536, Note_on_c, 0, 59, 102
2, 85631, Note_on_c, 0, 59, 0
2, 85631, Note_on_c, 0, 68, 0
2, 85632, Note_on_c, 0, 64, 102
2, 85632, Note_on_c, 0, 57, 102
2, 85728, Note_on_c, 0, 68, 102
2, 85823, Note_on_c, 0, 68, 0
2, 85824, Note_on_c, 0, 71, 102
2, 85919, Note_on_c, 0, 71, 0
2, 85920, Note_on_c, 0, 74, 102
2, 86015, Note_on_c, 0, 74, 0
2, 86016, Note_on_c, 0, 69, 102
2, 86016, Note_on_c, 0, 73, 102
2, 86207, Note_on_c, 0, 57, 0
2, 86208, Note_on_c, 0, 56, 102
2, 86303, Note_on_c, 0, 56, 0
2, 86304, Note_on_c, 0, 57, 102
2, 86399, Note_on_c, 0, 57, 0
2, 86400, Note_on_c, 0, 59, 102
2, 86495, Note_on_c, 0, 59, 0
2, 86496, Note_on_c, 0, 56, 102
2, 86591, Note_on_c, 0, 56, 0
2, 86592, Note_on_c, 0, 57, 102
2, 86682, Note_on_c, 0, 64, 0
2, 86687, Note_on_c, 0, 57, 0
2, 86688, Note_on_c, 0, 54, 102
2, 86783, Note_on_c, 0, 54, 0
2, 86783, Note_on_c, 0, 69, 0
2, 86783, Note_on_c, 0, 73, 0
2, 86784, Note_on_c, 0, 74, 102
2, 86784, Note_on_c, 0, 53, 102
2, 86879, Note_on_c, 0, 53, 0
2, 86880, Note_on_c, 0, 56, 102
2, 86975, Note_on_c, 0, 56, 0
2, 86976, Note_on_c, 0, 57, 102
2, 87071, Note_on_c, 0, 57, 0
2, 87072, Note_on_c, 0, 59, 102
2, 87167, Note_on_c, 0, 59, 0
2, 87168, Note_on_c, 0, 83, 102
2, 87168, Note_on_c, 0, 57, 102
2, 87263, Note_on_c, 0, 57, 0
2, 87264, Note_on_c, 0, 56, 102
2, 87359, Note_on_c, 0, 56, 0
2, 87360, Note_on_c, 0, 54, 102
2, 87455, Note_on_c, 0, 54, 0
2, 87456, Note_on_c, 0, 53, 102
2, 87551, Note_on_c, 0, 53, 0
2, 87551, Note_on_c, 0, 83, 0
2, 87551, Note_on_c, 0, 74, 0
2, 87552, Note_on_c, 0, 73, 102
2, 87552, Note_on_c, 0, 81, 102
2, 87552, Note_on_c, 0, 54, 102
2, 87647, Note_on_c, 0, 54, 0
2, 87648, Note_on_c, 0, 56, 102
2, 87743, Note_on_c, 0, 56, 0
2, 87744, Note_on_c, 0, 57, 102
2, 87839, Note_on_c, 0, 57, 0
2, 87840, Note_on_c, 0, 54, 102
2, 87902, Note_on_c, 0, 73, 0
2, 87935, Note_on_c, 0, 54, 0
2, 87936, Note_on_c, 0, 71, 102
2, 87936, Note_on_c, 0, 49, 102
2, 87952, Note_on_c, 0, 81, 0
2, 88031, Note_on_c, 0, 49, 0
2, 88032, Note_on_c, 0, 53, 102
2, 88127, Note_on_c, 0, 53, 0
2, 88128, Note_on_c, 0, 54, 102
2, 88223, Note_on_c, 0, 54, 0
2, 88224, Note_on_c, 0, 56, 102
2, 88319, Note_on_c, 0, 56, 0
2, 88320, Note_on_c, 0, 80, 102
2, 88320, Note_on_c, 0, 54, 102
2, 88415, Note_on_c, 0, 54, 0
2, 88416, Note_on_c, 0, 53, 102
2, 88511, Note_on_c, 0, 53, 0
2, 88512, Note_on_c, 0, 51, 102
2, 88607, Note_on_c, 0, 51, 0
2, 88608, Note_on_c, 0, 49, 102
2, 88703, Note_on_c, 0, 49, 0
2, 88703, Note_on_c, 0, 80, 0
2, 88703, Note_on_c, 0, 71, 0
2, 88704, Note_on_c, 0, 69, 102
2, 88704, Note_on_c, 0, 78, 102
2, 88704, Note_on_c, 0, 50, 102
2, 88799, Note_on_c, 0, 50, 0
2, 88800, Note_on_c, 0, 52, 102
2, 88895, Note_on_c, 0, 52, 0
2, 88896, Note_on_c, 0, 54, 102
2, 88991, Note_on_c, 0, 54, 0
2, 88992, Note_on_c, 0, 50, 102
2, 89054, Note_on_c, 0, 69, 0
2, 89087, Note_on_c, 0, 50, 0
2, 89088, Note_on_c, 0, 68, 102
2, 89088, Note_on_c, 0, 47, 102
2, 89104, Note_on_c, 0, 78, 0
2, 89279, Note_on_c, 0, 47, 0
2, 89280, Note_on_c, 0, 49, 102
2, 89375, Note_on_c, 0, 49, 0
2, 89376, Note_on_c, 0, 50, 102
2, 89471, Note_on_c, 0, 50, 0
2, 89472, Note_on_c, 0, 78, 102
2, 89472, Note_on_c, 0, 49, 102
2, 89567, Note_on_c, 0, 49, 0
2, 89568, Note_on_c, 0, 47, 102
2, 89663, Note_on_c, 0, 47, 0
2, 89664, Note_on_c, 0, 45, 102
2, 89759, Note_on_c, 0, 45, 0
2, 89760, Note_on_c, 0, 44, 102
2, 89855, Note_on_c, 0, 44, 0
2, 89855, Note_on_c, 0, 78, 0
2, 89856, Note_on_c, 0, 78, 102
2, 89856, Note_on_c, 0, 49, 102
2, 89919, Note_on_c, 0, 78, 0
2, 89920, Note_on_c, 0, 77, 102
2, 89983, Note_on_c, 0, 77, 0
2, 89984, Note_on_c, 0, 78, 102
2, 90047, Note_on_c, 0, 78, 0
2, 90047, Note_on_c, 0, 49, 0
2, 90048, Note_on_c, 0, 77, 102
2, 90048, Note_on_c, 0, 37, 102
2, 90111, Note_on_c, 0, 77, 0
2, 90112, Note_on_c, 0, 75, 102
2, 90175, Note_on_c, 0, 75, 0
2, 90176, Note_on_c, 0, 77, 102
2, 90238, Note_on_c, 0, 68, 0
2, 90239, Note_on_c, 0, 77, 0
2, 90239, Note_on_c, 0, 37, 0
2, 90240, Note_on_c, 0, 69, 102
2, 90240, Note_on_c, 0, 78, 102
2, 90240, Note_on_c, 0, 42, 102
2, 90432, Note_on_c, 0, 45, 102
2, 90620, Note_on_c, 0, 42, 0
2, 90623, Note_on_c, 0, 45, 0
2, 90624, Note_on_c, 0, 49, 102
2, 90815, Note_on_c, 0, 49, 0
2, 90816, Note_on_c, 0, 54, 102
2, 91007, Note_on_c, 0, 78, 0
2, 91007, Note_on_c, 0, 69, 0
2, 91008, Note_on_c, 0, 52, 102
2, 91196, Note_on_c, 0, 54, 0
2, 91200, Note_on_c, 0, 55, 102
2, 91388, Note_on_c, 0, 52, 0
2, 91391, Note_on_c, 0, 55, 0
2, 91392, Note_on_c, 0, 72, 102
2, 91392, Note_on_c, 0, 57, 102
2, 91392, Note_on_c, 0, 51, 102
2, 91487, Note_on_c, 0, 72, 0
2, 91488, Note_on_c, 0, 71, 102
2, 91583, Note_on_c, 0, 71, 0
2, 91584, Note_on_c, 0, 72, 102
2, 91679, Note_on_c, 0, 72, 0
2, 91680, Note_on_c, 0, 78, 102
2, 91775, Note_on_c, 0, 78, 0
2, 91775, Note_on_c, 0, 57, 0
2, 91776, Note_on_c, 0, 81, 102
2, 91776, Note_on_c, 0, 59, 102
2, 91871, Note_on_c, 0, 81, 0
2, 91872, Note_on_c, 0, 79, 102
2, 91967, Note_on_c, 0, 79, 0
2, 91968, Note_on_c, 0, 81, 102
2, 92063, Note_on_c, 0, 81, 0
2, 92064, Note_on_c, 0, 84, 102
2, 92159, Note_on_c, 0, 84, 0
2, 92159, Note_on_c, 0, 59, 0
2, 92160, Note_on_c, 0, 83, 102
2, 92160, Note_on_c, 0, 60, 102
2, 92255, Note_on_c, 0, 83, 0
2, 92256, Note_on_c, 0, 81, 102
2, 92351, Note_on_c, 0, 81, 0
2, 92352, Note_on_c, 0, 79, 102
2, 92447, Note_on_c, 0, 79, 0
2, 92448, Note_on_c, 0, 78, 102
2, 92542, Note_on_c, 0, 51, 0
2, 92543, Note_on_c, 0, 78, 0
2, 92544, Note_on_c, 0, 76, 102
2, 92544, Note_on_c, 0, 52, 102
2, 92639, Note_on_c, 0, 76, 0
2, 92640, Note_on_c, 0, 75, 102
2, 92736, Note_on_c, 0, 78, 102
2, 92830, Note_on_c, 0, 75, 0
2, 92832, Note_on_c, 0, 81, 102
2, 92926, Note_on_c, 0, 78, 0
2, 92927, Note_on_c, 0, 81, 0
2, 92927, Note_on_c, 0, 60, 0
2, 92928, Note_on_c, 0, 76, 102
2, 92928, Note_on_c, 0, 79, 102
2, 92928, Note_on_c, 0, 59, 102
2, 93023, Note_on_c, 0, 59, 0
2, 93024, Note_on_c, 0, 57, 102
2, 93119, Note_on_c, 0, 57, 0
2, 93120, Note_on_c, 0, 60, 102
2, 93215, Note_on_c, 0, 60, 0
2, 93216, Note_on_c, 0, 59, 102
2, 93311, Note_on_c, 0, 59, 0
2, 93312, Note_on_c, 0, 57, 102
2, 93407, Note_on_c, 0, 57, 0
2, 93408, Note_on_c, 0, 55, 102
2, 93503, Note_on_c, 0, 55, 0
2, 93504, Note_on_c, 0, 52, 0
2, 93504, Note_on_c, 0, 54, 102
2, 93599, Note_on_c, 0, 54, 0
2, 93600, Note_on_c, 0, 52, 102
2, 93608, Note_on_c, 0, 79, 0
2, 93608, Note_on_c, 0, 76, 0
2, 93695, Note_on_c, 0, 52, 0
2, 93696, Note_on_c, 0, 71, 102
2, 93696, Note_on_c, 0, 78, 102
2, 93696, Note_on_c, 0, 50, 102
2, 93791, Note_on_c, 0, 50, 0
2, 93792, Note_on_c, 0, 49, 102
2, 93887, Note_on_c, 0, 49, 0
2, 93888, Note_on_c, 0, 50, 102
2, 93983, Note_on_c, 0, 50, 0
2, 93984, Note_on_c, 0, 54, 102
2, 94079, Note_on_c, 0, 54, 0
2, 94079, Note_on_c, 0, 78, 0
2, 94079, Note_on_c, 0, 71, 0
2, 94080, Note_on_c, 0, 73, 102
2, 94080, Note_on_c, 0, 77, 102
2, 94080, Note_on_c, 0, 59, 102
2, 94175, Note_on_c, 0, 59, 0
2, 94176, Note_on_c, 0, 58, 102
2, 94271, Note_on_c, 0, 58, 0
2, 94272, Note_on_c, 0, 59, 102
2, 94367, Note_on_c, 0, 59, 0
2, 94368, Note_on_c, 0, 62, 102
2, 94463, Note_on_c, 0, 62, 0
2, 94463, Note_on_c, 0, 77, 0
2, 94463, Note_on_c, 0, 73, 0
2, 94464, Note_on_c, 0, 74, 102
2, 94464, Note_on_c, 0, 78, 102
2, 94464, Note_on_c, 0, 61, 102
2, 94559, Note_on_c, 0, 61, 0
2, 94560, Note_on_c, 0, 59, 102
2, 94655, Note_on_c, 0, 59, 0
2, 94656, Note_on_c, 0, 57, 102
2, 94751, Note_on_c, 0, 57, 0
2, 94752, Note_on_c, 0, 56, 102
2, 94847, Note_on_c, 0, 56, 0
2, 94847, Note_on_c, 0, 78, 0
2, 94848, Note_on_c, 0, 80, 102
2, 94848, Note_on_c, 0, 54, 102
2, 94943, Note_on_c, 0, 54, 0
2, 94944, Note_on_c, 0, 53, 102
2, 95039, Note_on_c, 0, 53, 0
2, 95040, Note_on_c, 0, 56, 102
2, 95135, Note_on_c, 0, 56, 0
2, 95136, Note_on_c, 0, 59, 102
2, 95231, Note_on_c, 0, 74, 0
2, 95232, Note_on_c, 0, 73, 102
2, 95232, Note_on_c, 0, 54, 102
2, 95328, Note_on_c, 0, 80, 0
2, 95328, Note_on_c, 0, 78, 102
2, 95416, Note_on_c, 0, 59, 0
2, 95423, Note_on_c, 0, 78, 0
2, 95424, Note_on_c, 0, 77, 102
2, 95424, Note_on_c, 0, 59, 102
2, 95519, Note_on_c, 0, 77, 0
2, 95520, Note_on_c, 0, 80, 102
2, 95615, Note_on_c, 0, 80, 0
2, 95615, Note_on_c, 0, 59, 0
2, 95616, Note_on_c, 0, 78, 102
2, 95616, Note_on_c, 0, 58, 102
2, 95711, Note_on_c, 0, 78, 0
2, 95712, Note_on_c, 0, 76, 102
2, 95807, Note_on_c, 0, 76, 0
2, 95807, Note_on_c, 0, 73, 0
2, 95808, Note_on_c, 0, 74, 102
2, 95903, Note_on_c, 0, 74, 0
2, 95904, Note_on_c, 0, 73, 102
2, 95976, Note_on_c, 0, 58, 0
2, 95999, Note_on_c, 0, 73, 0
2, 95999, Note_on_c, 0, 54, 0
2, 96000, Note_on_c, 0, 74, 102
2, 96000, Note_on_c, 0, 47, 102
2, 96095, Note_on_c, 0, 74, 0
2, 96096, Note_on_c, 0, 71, 102
2, 96191, Note_on_c, 0, 71, 0
2, 96192, Note_on_c, 0, 70, 102
2, 96192, Note_on_c, 0, 50, 102
2, 96287, Note_on_c, 0, 70, 0
2, 96288, Note_on_c, 0, 71, 102
2, 96383, Note_on_c, 0, 71, 0
2, 96383, Note_on_c, 0, 50, 0
2, 96384, Note_on_c, 0, 66, 102
2, 96384, Note_on_c, 0, 54, 102
2, 96479, Note_on_c, 0, 66, 0
2, 96480, Note_on_c, 0, 71, 102
2, 96575, Note_on_c, 0, 71, 0
2, 96575, Note_on_c, 0, 54, 0
2, 96576, Note_on_c, 0, 73, 102
2, 96576, Note_on_c, 0, 59, 102
2, 96671, Note_on_c, 0, 73, 0
2, 96672, Note_on_c, 0, 74, 102
2, 96767, Note_on_c, 0, 47, 0
2, 96768, Note_on_c, 0, 64, 102
2, 96768, Note_on_c, 0, 49, 102
2, 96862, Note_on_c, 0, 74, 0
2, 96864, Note_on_c, 0, 73, 102
2, 96878, Note_on_c, 0, 64, 0
2, 96956, Note_on_c, 0, 59, 0
2, 96959, Note_on_c, 0, 73, 0
2, 96960, Note_on_c, 0, 74, 102
2, 96960, Note_on_c, 0, 58, 102
2, 97055, Note_on_c, 0, 74, 0
2, 97056, Note_on_c, 0, 76, 102
2, 97148, Note_on_c, 0, 49, 0
2, 97151, Note_on_c, 0, 58, 0
2, 97152, Note_on_c, 0, 66, 102
2, 97152, Note_on_c, 0, 50, 102
2, 97246, Note_on_c, 0, 76, 0
2, 97248, Note_on_c, 0, 74, 102
2, 97262, Note_on_c, 0, 66, 0
2, 97343, Note_on_c, 0, 74, 0
2, 97344, Note_on_c, 0, 76, 102
2, 97344, Note_on_c, 0, 59, 102
2, 97439, Note_on_c, 0, 76, 0
2, 97440, Note_on_c, 0, 78, 102
2, 97535, Note_on_c, 0, 59, 0
2, 97536, Note_on_c, 0, 68, 102
2, 97536, Note_on_c, 0, 54, 102
2, 97630, Note_on_c, 0, 78, 0
2, 97632, Note_on_c, 0, 76, 102
2, 97646, Note_on_c, 0, 68, 0
2, 97727, Note_on_c, 0, 50, 0
2, 97727, Note_on_c, 0, 76, 0
2, 97728, Note_on_c, 0, 78, 102
2, 97728, Note_on_c, 0, 47, 102
2, 97823, Note_on_c, 0, 78, 0
2, 97824, Note_on_c, 0, 79, 102
2, 97916, Note_on_c, 0, 54, 0
2, 97920, Note_on_c, 0, 73, 102
2, 97920, Note_on_c, 0, 55, 102
2, 98004, Note_on_c, 0, 79, 0
2, 98015, Note_on_c, 0, 73, 0
2, 98016, Note_on_c, 0, 79, 102
2, 98108, Note_on_c, 0, 47, 0
2, 98111, Note_on_c, 0, 79, 0
2, 98112, Note_on_c, 0, 78, 102
2, 98112, Note_on_c, 0, 46, 102
2, 98207, Note_on_c, 0, 78, 0
2, 98208, Note_on_c, 0, 76, 102
2, 98300, Note_on_c, 0, 55, 0
2, 98303, Note_on_c, 0, 76, 0
2, 98303, Note_on_c, 0, 46, 0
2, 98304, Note_on_c, 0, 54, 102
2, 98304, Note_on_c, 0, 47, 102
2, 98304, Note_on_c, 0, 74, 102
2, 98401, Note_on_c, 0, 74, 0
2, 98402, Note_on_c, 0, 83, 102
2, 98499, Note_on_c, 0, 83, 0
2, 98500, Note_on_c, 0, 47, 0
2, 98500, Note_on_c, 0, 54, 0
2, 98501, Note_on_c, 0, 49, 102
2, 98501, Note_on_c, 0, 58, 102
2, 98501, Note_on_c, 0, 79, 102
2, 98598, Note_on_c, 0, 79, 0
2, 98600, Note_on_c, 0, 76, 102
2, 98697, Note_on_c, 0, 76, 0
2, 98697, Note_on_c, 0, 58, 0
2, 98697, Note_on_c, 0, 49, 0
2, 98699, Note_on_c, 0, 50, 102
2, 98699, Note_on_c, 0, 59, 102
2, 98699, Note_on_c, 0, 78, 102
2, 98796, Note_on_c, 0, 78, 0
2, 98798, Note_on_c, 0, 71, 102
2, 98895, Note_on_c, 0, 71, 0
2, 98895, Note_on_c, 0, 59, 0
2, 98895, Note_on_c, 0, 50, 0
2, 98897, Note_on_c, 0, 52, 102
2, 98897, Note_on_c, 0, 61, 102
2, 98897, Note_on_c, 0, 70, 102
2, 98994, Note_on_c, 0, 70, 0
2, 98996, Note_on_c, 0, 71, 102
2, 99093, Note_on_c, 0, 71, 0
2, 99093, Note_on_c, 0, 61, 0
2, 99093, Note_on_c, 0, 52, 0
2, 99095, Note_on_c, 0, 66, 102
2, 99095, Note_on_c, 0, 62, 102
2, 99095, Note_on_c, 0, 54, 102
2, 99194, Note_on_c, 0, 66, 0
2, 99195, Note_on_c, 0, 71, 102
2, 99294, Note_on_c, 0, 71, 0
2, 99296, Note_on_c, 0, 62, 0
2, 99297, Note_on_c, 0, 73, 102
2, 99297, Note_on_c, 0, 64, 102
2, 99396, Note_on_c, 0, 73, 0
2, 99399, Note_on_c, 0, 70, 102
2, 99497, Note_on_c, 0, 54, 0
2, 99498, Note_on_c, 0, 70, 0
2, 99501, Note_on_c, 0, 59, 102
2, 99501, Note_on_c, 0, 71, 102
2, 99593, Note_on_c, 0, 64, 0
2, 99605, Note_on_c, 0, 61, 102
2, 99706, Note_on_c, 0, 61, 0
2, 99710, Note_on_c, 0, 62, 102
2, 99816, Note_on_c, 0, 66, 102
2, 99915, Note_on_c, 0, 71, 0
2, 99917, Note_on_c, 0, 66, 0
2, 99921, Note_on_c, 0, 71, 102
2, 100030, Note_on_c, 0, 66, 102
2, 100124, Note_on_c, 0, 62, 0
2, 100128, Note_on_c, 0, 59, 0
2, 100141, Note_on_c, 0, 62, 102
2, 100252, Note_on_c, 0, 59, 102
2, 100359, Note_on_c, 0, 59, 0
2, 100364, Note_on_c, 0, 54, 102
2, 100474, Note_on_c, 0, 54, 0
2, 100478, Note_on_c, 0, 50, 102
2, 100588, Note_on_c, 0, 50, 0
2, 100592, Note_on_c, 0, 47, 102
2, 100804, Note_on_c, 0, 66, 0
2, 100805, Note_on_c, 0, 62, 0
2, 101071, Note_on_c, 0, 71, 0
2, 101272, Note_on_c, 0, 47, 0
2, 102912, Note_on_c, 0, 66, 102
2, 102912, Note_on_c, 0, 62, 102
2, 102912, Note_on_c, 0, 59, 102
2, 103103, Note_on_c, 0, 62, 0
2, 103103, Note_on_c, 0, 66, 0
2, 103104, Note_on_c, 0, 71, 102
2, 103104, Note_on_c, 0, 61, 102
2, 103199, Note_on_c, 0, 71, 0
2, 103200, Note_on_c, 0, 70, 102
2, 103294, Note_on_c, 0, 61, 0
2, 103295, Note_on_c, 0, 70, 0
2, 103296, Note_on_c, 0, 71, 102
2, 103296, Note_on_c, 0, 62, 102
2, 103391, Note_on_c, 0, 71, 0
2, 103392, Note_on_c, 0, 73, 102
2, 103486, Note_on_c, 0, 62, 0
2, 103487, Note_on_c, 0, 73, 0
2, 103488, Note_on_c, 0, 74, 102
2, 103488, Note_on_c, 0, 66, 102
2, 103583, Note_on_c, 0, 74, 0
2, 103584, Note_on_c, 0, 71, 102
2, 103678, Note_on_c, 0, 66, 0
2, 103679, Note_on_c, 0, 71, 0
2, 103680, Note_on_c, 0, 79, 102
2, 103680, Note_on_c, 0, 64, 102
2, 103850, Note_on_c, 0, 79, 0
2, 103871, Note_on_c, 0, 64, 0
2, 103872, Note_on_c, 0, 79, 102
2, 103872, Note_on_c, 0, 62, 102
2, 103967, Note_on_c, 0, 79, 0
2, 103968, Note_on_c, 0, 78, 102
2, 104062, Note_on_c, 0, 62, 0
2, 104063, Note_on_c, 0, 78, 0
2, 104063, Note_on_c, 0, 59, 0
2, 104064, Note_on_c, 0, 76, 102
2, 104064, Note_on_c, 0, 61, 102
2, 104064, Note_on_c, 0, 55, 102
2, 104255, Note_on_c, 0, 61, 0
2, 104255, Note_on_c, 0, 76, 0
2, 104256, Note_on_c, 0, 74, 102
2, 104256, Note_on_c, 0, 59, 102
2, 104436, Note_on_c, 0, 74, 0
2, 104447, Note_on_c, 0, 59, 0
2, 104448, Note_on_c, 0, 73, 102
2, 104448, Note_on_c, 0, 64, 102
2, 104639, Note_on_c, 0, 73, 0
2, 104639, Note_on_c, 0, 55, 0
2, 104640, Note_on_c, 0, 71, 102
2, 104640, Note_on_c, 0, 54, 102
2, 104735, Note_on_c, 0, 54, 0
2, 104735, Note_on_c, 0, 71, 0
2, 104736, Note_on_c, 0, 70, 102
2, 104736, Note_on_c, 0, 52, 102
2, 104828, Note_on_c, 0, 64, 0
2, 104831, Note_on_c, 0, 52, 0
2, 104831, Note_on_c, 0, 70, 0
2, 104832, Note_on_c, 0, 71, 102
2, 104832, Note_on_c, 0, 50, 102
2, 104832, Note_on_c, 0, 54, 102
2, 104927, Note_on_c, 0, 71, 0
2, 104928, Note_on_c, 0, 73, 102
2, 105023, Note_on_c, 0, 73, 0
2, 105023, Note_on_c, 0, 50, 0
2, 105024, Note_on_c, 0, 74, 102
2, 105024, Note_on_c, 0, 49, 102
2, 105119, Note_on_c, 0, 74, 0
2, 105120, Note_on_c, 0, 76, 102
2, 105212, Note_on_c, 0, 54, 0
2, 105215, Note_on_c, 0, 76, 0
2, 105215, Note_on_c, 0, 49, 0
2, 105216, Note_on_c, 0, 78, 102
2, 105216, Note_on_c, 0, 59, 102
2, 105216, Note_on_c, 0, 50, 102
2, 105407, Note_on_c, 0, 50, 0
2, 105407, Note_on_c, 0, 78, 0
2, 105408, Note_on_c, 0, 76, 102
2, 105408, Note_on_c, 0, 52, 102
2, 105503, Note_on_c, 0, 76, 0
2, 105504, Note_on_c, 0, 74, 102
2, 105596, Note_on_c, 0, 59, 0
2, 105599, Note_on_c, 0, 74, 0
2, 105599, Note_on_c, 0, 52, 0
2, 105600, Note_on_c, 0, 76, 102
2, 105600, Note_on_c, 0, 58, 102
2, 105600, Note_on_c, 0, 54, 102
2, 105695, Note_on_c, 0, 76, 0
2, 105696, Note_on_c, 0, 74, 102
2, 105791, Note_on_c, 0, 74, 0
2, 105791, Note_on_c, 0, 54, 0
2, 105791, Note_on_c, 0, 58, 0
2, 105792, Note_on_c, 0, 73, 102
2, 105792, Note_on_c, 0, 59, 102
2, 105792, Note_on_c, 0, 47, 102
2, 105887, Note_on_c, 0, 73, 0
2, 105888, Note_on_c, 0, 71, 102
2, 105973, Note_on_c, 0, 71, 0
2, 105983, Note_on_c, 0, 47, 0
2, 105983, Note_on_c, 0, 59, 0
2, 105984, Note_on_c, 0, 74, 102
2, 105984, Note_on_c, 0, 59, 102
2, 106079, Note_on_c, 0, 74, 0
2, 106080, Note_on_c, 0, 73, 102
2, 106175, Note_on_c, 0, 73, 0
2, 106176, Note_on_c, 0, 71, 102
2, 106176, Note_on_c, 0, 61, 102
2, 106271, Note_on_c, 0, 71, 0
2, 106272, Note_on_c, 0, 70, 102
2, 106367, Note_on_c, 0, 70, 0
2, 106367, Note_on_c, 0, 61, 0
2, 106368, Note_on_c, 0, 71, 102
2, 106368, Note_on_c, 0, 62, 102
2, 106463, Note_on_c, 0, 71, 0
2, 106464, Note_on_c, 0, 73, 102
2, 106559, Note_on_c, 0, 73, 0
2, 106559, Note_on_c, 0, 62, 0
2, 106560, Note_on_c, 0, 74, 102
2, 106560, Note_on_c, 0, 66, 102
2, 106655, Note_on_c, 0, 74, 0
2, 106656, Note_on_c, 0, 71, 102
2, 106751, Note_on_c, 0, 71, 0
2, 106751, Note_on_c, 0, 66, 0
2, 106752, Note_on_c, 0, 79, 102
2, 106752, Note_on_c, 0, 64, 102
2, 106922, Note_on_c, 0, 79, 0
2, 106943, Note_on_c, 0, 64, 0
2, 106944, Note_on_c, 0, 79, 102
2, 106944, Note_on_c, 0, 62, 102
2, 107039, Note_on_c, 0, 79, 0
2, 107040, Note_on_c, 0, 78, 102
2, 107134, Note_on_c, 0, 59, 0
2, 107135, Note_on_c, 0, 78, 0
2, 107135, Note_on_c, 0, 62, 0
2, 107136, Note_on_c, 0, 76, 102
2, 107136, Note_on_c, 0, 61, 102
2, 107327, Note_on_c, 0, 76, 0
2, 107328, Note_on_c, 0, 78, 102
2, 107328, Note_on_c, 0, 57, 102
2, 107423, Note_on_c, 0, 57, 0
2, 107423, Note_on_c, 0, 78, 0
2, 107424, Note_on_c, 0, 79, 102
2, 107424, Note_on_c, 0, 55, 102
2, 107519, Note_on_c, 0, 55, 0
2, 107519, Note_on_c, 0, 79, 0
2, 107520, Note_on_c, 0, 81, 102
2, 107520, Note_on_c, 0, 54, 102
2, 107711, Note_on_c, 0, 54, 0
2, 107711, Note_on_c, 0, 81, 0
2, 107711, Note_on_c, 0, 61, 0
2, 107712, Note_on_c, 0, 73, 102
2, 107712, Note_on_c, 0, 64, 102
2, 107712, Note_on_c, 0, 52, 102
2, 107892, Note_on_c, 0, 73, 0
2, 107903, Note_on_c, 0, 52, 0
2, 107903, Note_on_c, 0, 64, 0
2, 107904, Note_on_c, 0, 74, 102
2, 107904, Note_on_c, 0, 62, 102
2, 107904, Note_on_c, 0, 54, 102
2, 107999, Note_on_c, 0, 74, 0
2, 108000, Note_on_c, 0, 73, 102
2, 108095, Note_on_c, 0, 73, 0
2, 108095, Note_on_c, 0, 54, 0
2, 108096, Note_on_c, 0, 71, 102
2, 108096, Note_on_c, 0, 55, 102
2, 108191, Note_on_c, 0, 71, 0
2, 108192, Note_on_c, 0, 69, 102
2, 108282, Note_on_c, 0, 69, 0
2, 108287, Note_on_c, 0, 55, 0
2, 108288, Note_on_c, 0, 79, 102
2, 108288, Note_on_c, 0, 57, 102
2, 108383, Note_on_c, 0, 79, 0
2, 108384, Note_on_c, 0, 78, 102
2, 108479, Note_on_c, 0, 78, 0
2, 108479, Note_on_c, 0, 62, 0
2, 108480, Note_on_c, 0, 76, 102
2, 108480, Note_on_c, 0, 61, 102
2, 108575, Note_on_c, 0, 76, 0
2, 108576, Note_on_c, 0, 78, 102
2, 108668, Note_on_c, 0, 57, 0
2, 108671, Note_on_c, 0, 78, 0
2, 108671, Note_on_c, 0, 61, 0
2, 108672, Note_on_c, 0, 74, 102
2, 108672, Note_on_c, 0, 62, 102
2, 108864, Note_on_c, 0, 50, 102
2, 108952, Note_on_c, 0, 74, 0
2, 109012, Note_on_c, 0, 62, 0
2, 109055, Note_on_c, 0, 50, 0
2, 109056, Note_on_c, 0, 69, 102
2, 109056, Note_on_c, 0, 50, 102
2, 109056, Note_on_c, 0, 54, 102
2, 109247, Note_on_c, 0, 54, 0
2, 109247, Note_on_c, 0, 50, 0
2, 109247, Note_on_c, 0, 69, 0
2, 109248, Note_on_c, 0, 74, 102
2, 109248, Note_on_c, 0, 52, 102
2, 109248, Note_on_c, 0, 55, 102
2, 109343, Note_on_c, 0, 74, 0
2, 109344, Note_on_c, 0, 73, 102
2, 109439, Note_on_c, 0, 73, 0
2, 109439, Note_on_c, 0, 55, 0
2, 109439, Note_on_c, 0, 52, 0
2, 109440, Note_on_c, 0, 74, 102
2, 109440, Note_on_c, 0, 57, 102
2, 109440, Note_on_c, 0, 54, 102
2, 109535, Note_on_c, 0, 74, 0
2, 109536, Note_on_c, 0, 76, 102
2, 109631, Note_on_c, 0, 76, 0
2, 109631, Note_on_c, 0, 54, 0
2, 109632, Note_on_c, 0, 78, 102
2, 109632, Note_on_c, 0, 50, 102
2, 109727, Note_on_c, 0, 78, 0
2, 109728, Note_on_c, 0, 74, 102
2, 109820, Note_on_c, 0, 57, 0
2, 109823, Note_on_c, 0, 74, 0
2, 109824, Note_on_c, 0, 67, 102
2, 109824, Note_on_c, 0, 59, 102
2, 110012, Note_on_c, 0, 50, 0
2, 110015, Note_on_c, 0, 67, 0
2, 110016, Note_on_c, 0, 67, 102
2, 110016, Note_on_c, 0, 50, 102
2, 110111, Note_on_c, 0, 67, 0
2, 110112, Note_on_c, 0, 66, 102
2, 110204, Note_on_c, 0, 59, 0
2, 110207, Note_on_c, 0, 66, 0
2, 110208, Note_on_c, 0, 67, 102
2, 110208, Note_on_c, 0, 57, 102
2, 110296, Note_on_c, 0, 50, 0
2, 110304, Note_on_c, 0, 49, 102
2, 110399, Note_on_c, 0, 49, 0
2, 110399, Note_on_c, 0, 67, 0
2, 110400, Note_on_c, 0, 76, 102
2, 110400, Note_on_c, 0, 47, 102
2, 110495, Note_on_c, 0, 47, 0
2, 110496, Note_on_c, 0, 45, 102
2, 110591, Note_on_c, 0, 45, 0
2, 110591, Note_on_c, 0, 76, 0
2, 110592, Note_on_c, 0, 67, 102
2, 110592, Note_on_c, 0, 50, 102
2, 110687, Note_on_c, 0, 67, 0
2, 110688, Note_on_c, 0, 66, 102
2, 110783, Note_on_c, 0, 66, 0
2, 110783, Note_on_c, 0, 57, 0
2, 110784, Note_on_c, 0, 64, 102
2, 110784, Note_on_c, 0, 57, 102
2, 110879, Note_on_c, 0, 64, 0
2, 110880, Note_on_c, 0, 66, 102
2, 110975, Note_on_c, 0, 66, 0
2, 110975, Note_on_c, 0, 57, 0
2, 110976, Note_on_c, 0, 68, 102
2, 110976, Note_on_c, 0, 59, 102
2, 111071, Note_on_c, 0, 68, 0
2, 111072, Note_on_c, 0, 69, 102
2, 111167, Note_on_c, 0, 69, 0
2, 111167, Note_on_c, 0, 59, 0
2, 111167, Note_on_c, 0, 50, 0
2, 111168, Note_on_c, 0, 71, 102
2, 111168, Note_on_c, 0, 57, 102
2, 111168, Note_on_c, 0, 49, 102
2, 111263, Note_on_c, 0, 71, 0
2, 111264, Note_on_c, 0, 73, 102
2, 111359, Note_on_c, 0, 73, 0
2, 111359, Note_on_c, 0, 49, 0
2, 111360, Note_on_c, 0, 74, 102
2, 111360, Note_on_c, 0, 47, 102
2, 111455, Note_on_c, 0, 74, 0
2, 111456, Note_on_c, 0, 73, 102
2, 111548, Note_on_c, 0, 57, 0
2, 111551, Note_on_c, 0, 73, 0
2, 111551, Note_on_c, 0, 47, 0
2, 111552, Note_on_c, 0, 71, 102
2, 111552, Note_on_c, 0, 52, 102
2, 111552, Note_on_c, 0, 56, 102
2, 111647, Note_on_c, 0, 71, 0
2, 111648, Note_on_c, 0, 76, 102
2, 111743, Note_on_c, 0, 76, 0
2, 111743, Note_on_c, 0, 56, 0
2, 111743, Note_on_c, 0, 52, 0
2, 111744, Note_on_c, 0, 74, 102
2, 111744, Note_on_c, 0, 57, 102
2, 111744, Note_on_c, 0, 45, 102
2, 111839, Note_on_c, 0, 74, 0
2, 111840, Note_on_c, 0, 73, 102
2, 111935, Note_on_c, 0, 73, 0
2, 111935, Note_on_c, 0, 57, 0
2, 111936, Note_on_c, 0, 71, 102
2, 111936, Note_on_c, 0, 52, 102
2, 112031, Note_on_c, 0, 71, 0
2, 112032, Note_on_c, 0, 69, 102
2, 112112, Note_on_c, 0, 69, 0
2, 112124, Note_on_c, 0, 45, 0
2, 112127, Note_on_c, 0, 52, 0
2, 112128, Note_on_c, 0, 73, 102
2, 112128, Note_on_c, 0, 57, 102
2, 112319, Note_on_c, 0, 57, 0
2, 112319, Note_on_c, 0, 73, 0
2, 112320, Note_on_c, 0, 78, 102
2, 112320, Note_on_c, 0, 56, 102
2, 112320, Note_on_c, 0, 59, 102
2, 112415, Note_on_c, 0, 78, 0
2, 112416, Note_on_c, 0, 77, 102
2, 112511, Note_on_c, 0, 77, 0
2, 112511, Note_on_c, 0, 59, 0
2, 112511, Note_on_c, 0, 56, 0
2, 112512, Note_on_c, 0, 78, 102
2, 112512, Note_on_c, 0, 57, 102
2, 112512, Note_on_c, 0, 61, 102
2, 112607, Note_on_c, 0, 78, 0
2, 112608, Note_on_c, 0, 80, 102
2, 112703, Note_on_c, 0, 80, 0
2, 112703, Note_on_c, 0, 57, 0
2, 112704, Note_on_c, 0, 81, 102
2, 112704, Note_on_c, 0, 54, 102
2, 112799, Note_on_c, 0, 81, 0
2, 112800, Note_on_c, 0, 80, 102
2, 112892, Note_on_c, 0, 61, 0
2, 112895, Note_on_c, 0, 80, 0
2, 112895, Note_on_c, 0, 54, 0
2, 112896, Note_on_c, 0, 83, 102
2, 112896, Note_on_c, 0, 50, 102
2, 112896, Note_on_c, 0, 54, 102
2, 112991, Note_on_c, 0, 83, 0
2, 112992, Note_on_c, 0, 81, 102
2, 113087, Note_on_c, 0, 81, 0
2, 113087, Note_on_c, 0, 54, 0
2, 113088, Note_on_c, 0, 80, 102
2, 113088, Note_on_c, 0, 59, 102
2, 113183, Note_on_c, 0, 80, 0
2, 113184, Note_on_c, 0, 78, 102
2, 113276, Note_on_c, 0, 50, 0
2, 113279, Note_on_c, 0, 78, 0
2, 113280, Note_on_c, 0, 77, 102
2, 113280, Note_on_c, 0, 49, 102
2, 113375, Note_on_c, 0, 77, 0
2, 113376, Note_on_c, 0, 75, 102
2, 113468, Note_on_c, 0, 59, 0
2, 113471, Note_on_c, 0, 75, 0
2, 113471, Note_on_c, 0, 49, 0
2, 113472, Note_on_c, 0, 78, 102
2, 113472, Note_on_c, 0, 47, 102
2, 113472, Note_on_c, 0, 56, 102
2, 113567, Note_on_c, 0, 78, 0
2, 113568, Note_on_c, 0, 77, 102
2, 113663, Note_on_c, 0, 77, 0
2, 113663, Note_on_c, 0, 56, 0
2, 113664, Note_on_c, 0, 75, 102
2, 113664, Note_on_c, 0, 53, 102
2, 113759, Note_on_c, 0, 75, 0
2, 113760, Note_on_c, 0, 73, 102
2, 113852, Note_on_c, 0, 47, 0
2, 113855, Note_on_c, 0, 73, 0
2, 113855, Note_on_c, 0, 53, 0
2, 113856, Note_on_c, 0, 78, 102
2, 113856, Note_on_c, 0, 45, 102
2, 113856, Note_on_c, 0, 54, 102
2, 113951, Note_on_c, 0, 45, 0
2, 113952, Note_on_c, 0, 47, 102
2, 114047, Note_on_c, 0, 47, 0
2, 114047, Note_on_c, 0, 78, 0
2, 114048, Note_on_c, 0, 71, 102
2, 114048, Note_on_c, 0, 49, 102
2, 114143, Note_on_c, 0, 71, 0
2, 114144, Note_on_c, 0, 69, 102
2, 114236, Note_on_c, 0, 54, 0
2, 114239, Note_on_c, 0, 69, 0
2, 114240, Note_on_c, 0, 68, 102
2, 114240, Note_on_c, 0, 53, 102
2, 114335, Note_on_c, 0, 68, 0
2, 114336, Note_on_c, 0, 69, 102
2, 114428, Note_on_c, 0, 49, 0
2, 114431, Note_on_c, 0, 69, 0
2, 114431, Note_on_c, 0, 53, 0
2, 114432, Note_on_c, 0, 66, 102
2, 114432, Note_on_c, 0, 42, 102
2, 114623, Note_on_c, 0, 42, 0
2, 114624, Note_on_c, 0, 54, 102
2, 114719, Note_on_c, 0, 54, 0
2, 114720, Note_on_c, 0, 52, 102
2, 114815, Note_on_c, 0, 52, 0
2, 114816, Note_on_c, 0, 54, 102
2, 114911, Note_on_c, 0, 54, 0
2, 114912, Note_on_c, 0, 56, 102
2, 115007, Note_on_c, 0, 56, 0
2, 115007, Note_on_c, 0, 66, 0
2, 115008, Note_on_c, 0, 57, 102
2, 115103, Note_on_c, 0, 57, 0
2, 115104, Note_on_c, 0, 54, 102
2, 115199, Note_on_c, 0, 54, 0
2, 115200, Note_on_c, 0, 81, 102
2, 115200, Note_on_c, 0, 51, 102
2, 115391, Note_on_c, 0, 51, 0
2, 115391, Note_on_c, 0, 81, 0
2, 115392, Note_on_c, 0, 75, 102
2, 115392, Note_on_c, 0, 54, 102
2, 115487, Note_on_c, 0, 75, 0
2, 115488, Note_on_c, 0, 73, 102
2, 115583, Note_on_c, 0, 73, 0
2, 115583, Note_on_c, 0, 54, 0
2, 115584, Note_on_c, 0, 75, 102
2, 115584, Note_on_c, 0, 59, 102
2, 115679, Note_on_c, 0, 75, 0
2, 115680, Note_on_c, 0, 76, 102
2, 115775, Note_on_c, 0, 76, 0
2, 115775, Note_on_c, 0, 59, 0
2, 115776, Note_on_c, 0, 78, 102
2, 115776, Note_on_c, 0, 57, 102
2, 115871, Note_on_c, 0, 78, 0
2, 115872, Note_on_c, 0, 75, 102
2, 115967, Note_on_c, 0, 75, 0
2, 115967, Note_on_c, 0, 57, 0
2, 115968, Note_on_c, 0, 83, 102
2, 115968, Note_on_c, 0, 55, 102
2, 116063, Note_on_c, 0, 55, 0
2, 116063, Note_on_c, 0, 83, 0
2, 116064, Note_on_c, 0, 81, 102
2, 116064, Note_on_c, 0, 54, 102
2, 116159, Note_on_c, 0, 54, 0
2, 116159, Note_on_c, 0, 81, 0
2, 116160, Note_on_c, 0, 79, 102
2, 116160, Note_on_c, 0, 52, 102
2, 116255, Note_on_c, 0, 52, 0
2, 116255, Note_on_c, 0, 79, 0
2, 116256, Note_on_c, 0, 81, 102
2, 116256, Note_on_c, 0, 54, 102
2, 116351, Note_on_c, 0, 54, 0
2, 116351, Note_on_c, 0, 81, 0
2, 116352, Note_on_c, 0, 83, 102
2, 116352, Note_on_c, 0, 55, 102
2, 116447, Note_on_c, 0, 55, 0
2, 116448, Note_on_c, 0, 54, 102
2, 116543, Note_on_c, 0, 54, 0
2, 116544, Note_on_c, 0, 52, 102
2, 116639, Note_on_c, 0, 52, 0
2, 116640, Note_on_c, 0, 50, 102
2, 116735, Note_on_c, 0, 50, 0
2, 116736, Note_on_c, 0, 49, 102
2, 116832, Note_on_c, 0, 83, 0
2, 116927, Note_on_c, 0, 49, 0
2, 116928, Note_on_c, 0, 73, 102
2, 116928, Note_on_c, 0, 52, 102
2, 117023, Note_on_c, 0, 73, 0
2, 117024, Note_on_c, 0, 71, 102
2, 117119, Note_on_c, 0, 71, 0
2, 117119, Note_on_c, 0, 52, 0
2, 117120, Note_on_c, 0, 73, 102
2, 117120, Note_on_c, 0, 57, 102
2, 117215, Note_on_c, 0, 73, 0
2, 117216, Note_on_c, 0, 74, 102
2, 117311, Note_on_c, 0, 74, 0
2, 117311, Note_on_c, 0, 57, 0
2, 117312, Note_on_c, 0, 76, 102
2, 117312, Note_on_c, 0, 55, 102
2, 117407, Note_on_c, 0, 76, 0
2, 117408, Note_on_c, 0, 73, 102
2, 117503, Note_on_c, 0, 73, 0
2, 117503, Note_on_c, 0, 55, 0
2, 117504, Note_on_c, 0, 81, 102
2, 117504, Note_on_c, 0, 54, 102
2, 117599, Note_on_c, 0, 54, 0
2, 117599, Note_on_c, 0, 81, 0
2, 117600, Note_on_c, 0, 79, 102
2, 117600, Note_on_c, 0, 52, 102
2, 117695, Note_on_c, 0, 52, 0
2, 117695, Note_on_c, 0, 79, 0
2, 117696, Note_on_c, 0, 78, 102
2, 117696, Note_on_c, 0, 50, 102
2, 117791, Note_on_c, 0, 50, 0
2, 117791, Note_on_c, 0, 78, 0
2, 117792, Note_on_c, 0, 79, 102
2, 117792, Note_on_c, 0, 52, 102
2, 117887, Note_on_c, 0, 52, 0
2, 117887, Note_on_c, 0, 79, 0
2, 117888, Note_on_c, 0, 81, 102
2, 117888, Note_on_c, 0, 54, 102
2, 117983, Note_on_c, 0, 54, 0
2, 117984, Note_on_c, 0, 52, 102
2, 118079, Note_on_c, 0, 52, 0
2, 118080, Note_on_c, 0, 50, 102
2, 118175, Note_on_c, 0, 50, 0
2, 118176, Note_on_c, 0, 49, 102
2, 118271, Note_on_c, 0, 49, 0
2, 118272, Note_on_c, 0, 47, 102
2, 118367, Note_on_c, 0, 47, 0
2, 118368, Note_on_c, 0, 50, 102
2, 118408, Note_on_c, 0, 81, 0
2, 118463, Note_on_c, 0, 50, 0
2, 118464, Note_on_c, 0, 71, 102
2, 118464, Note_on_c, 0, 55, 102
2, 118559, Note_on_c, 0, 55, 0
2, 118559, Note_on_c, 0, 71, 0
2, 118560, Note_on_c, 0, 70, 102
2, 118560, Note_on_c, 0, 54, 102
2, 118655, Note_on_c, 0, 54, 0
2, 118655, Note_on_c, 0, 70, 0
2, 118656, Note_on_c, 0, 71, 102
2, 118656, Note_on_c, 0, 52, 102
2, 118751, Note_on_c, 0, 52, 0
2, 118752, Note_on_c, 0, 50, 102
2, 118836, Note_on_c, 0, 71, 0
2, 118847, Note_on_c, 0, 50, 0
2, 118848, Note_on_c, 0, 79, 102
2, 118848, Note_on_c, 0, 49, 102
2, 118943, Note_on_c, 0, 49, 0
2, 118944, Note_on_c, 0, 47, 102
2, 119028, Note_on_c, 0, 79, 0
2, 119039, Note_on_c, 0, 47, 0
2, 119040, Note_on_c, 0, 70, 102
2, 119040, Note_on_c, 0, 49, 102
2, 119135, Note_on_c, 0, 49, 0
2, 119135, Note_on_c, 0, 70, 0
2, 119136, Note_on_c, 0, 71, 102
2, 119136, Note_on_c, 0, 50, 102
2, 119231, Note_on_c, 0, 50, 0
2, 119231, Note_on_c, 0, 71, 0
2, 119232, Note_on_c, 0, 73, 102
2, 119232, Note_on_c, 0, 52, 102
2, 119327, Note_on_c, 0, 52, 0
2, 119327, Note_on_c, 0, 73, 0
2, 119328, Note_on_c, 0, 74, 102
2, 119328, Note_on_c, 0, 54, 102
2, 119423, Note_on_c, 0, 54, 0
2, 119423, Note_on_c, 0, 74, 0
2, 119424, Note_on_c, 0, 76, 102
2, 119424, Note_on_c, 0, 56, 102
2, 119519, Note_on_c, 0, 56, 0
2, 119520, Note_on_c, 0, 58, 102
2, 119604, Note_on_c, 0, 76, 0
2, 119615, Note_on_c, 0, 58, 0
2, 119616, Note_on_c, 0, 67, 102
2, 119616, Note_on_c, 0, 59, 102
2, 119711, Note_on_c, 0, 59, 0
2, 119712, Note_on_c, 0, 58, 102
2, 119807, Note_on_c, 0, 58, 0
2, 119808, Note_on_c, 0, 59, 102
2, 119902, Note_on_c, 0, 67, 0
2, 119904, Note_on_c, 0, 66, 102
2, 119999, Note_on_c, 0, 66, 0
2, 119999, Note_on_c, 0, 59, 0
2, 120000, Note_on_c, 0, 64, 102
2, 120000, Note_on_c, 0, 58, 102
2, 120095, Note_on_c, 0, 64, 0
2, 120096, Note_on_c, 0, 66, 102
2, 120191, Note_on_c, 0, 66, 0
2, 120191, Note_on_c, 0, 58, 0
2, 120192, Note_on_c, 0, 74, 102
2, 120192, Note_on_c, 0, 59, 102
2, 120287, Note_on_c, 0, 74, 0
2, 120288, Note_on_c, 0, 71, 102
2, 120383, Note_on_c, 0, 71, 0
2, 120383, Note_on_c, 0, 59, 0
2, 120384, Note_on_c, 0, 70, 102
2, 120384, Note_on_c, 0, 55, 102
2, 120479, Note_on_c, 0, 70, 0
2, 120480, Note_on_c, 0, 71, 102
2, 120575, Note_on_c, 0, 71, 0
2, 120575, Note_on_c, 0, 55, 0
2, 120576, Note_on_c, 0, 76, 102
2, 120576, Note_on_c, 0, 54, 102
2, 120671, Note_on_c, 0, 76, 0
2, 120672, Note_on_c, 0, 74, 102
2, 120767, Note_on_c, 0, 74, 0
2, 120768, Note_on_c, 0, 73, 102
2, 120768, Note_on_c, 0, 59, 102
2, 120863, Note_on_c, 0, 73, 0
2, 120864, Note_on_c, 0, 71, 102
2, 120959, Note_on_c, 0, 71, 0
2, 120959, Note_on_c, 0, 59, 0
2, 120960, Note_on_c, 0, 73, 102
2, 120960, Note_on_c, 0, 58, 102
2, 121130, Note_on_c, 0, 73, 0
2, 121151, Note_on_c, 0, 54, 0
2, 121152, Note_on_c, 0, 66, 102
2, 121152, Note_on_c, 0, 52, 102
2, 121340, Note_on_c, 0, 58, 0
2, 121343, Note_on_c, 0, 52, 0
2, 121344, Note_on_c, 0, 50, 102
2, 121529, Note_on_c, 0, 66, 0
2, 121536, Note_on_c, 0, 71, 102
2, 121536, Note_on_c, 0, 54, 102
2, 121631, Note_on_c, 0, 71, 0
2, 121632, Note_on_c, 0, 70, 102
2, 121727, Note_on_c, 0, 70, 0
2, 121727, Note_on_c, 0, 54, 0
2, 121728, Note_on_c, 0, 71, 102
2, 121728, Note_on_c, 0, 59, 102
2, 121823, Note_on_c, 0, 71, 0
2, 121824, Note_on_c, 0, 73, 102
2, 121919, Note_on_c, 0, 73, 0
2, 121919, Note_on_c, 0, 50, 0
2, 121920, Note_on_c, 0, 74, 102
2, 121920, Note_on_c, 0, 47, 102
2, 122015, Note_on_c, 0, 74, 0
2, 122016, Note_on_c, 0, 71, 102
2, 122111, Note_on_c, 0, 71, 0
2, 122111, Note_on_c, 0, 47, 0
2, 122112, Note_on_c, 0, 79, 102
2, 122112, Note_on_c, 0, 49, 102
2, 122303, Note_on_c, 0, 79, 0
2, 122303, Note_on_c, 0, 59, 0
2, 122304, Note_on_c, 0, 79, 102
2, 122304, Note_on_c, 0, 52, 102
2, 122399, Note_on_c, 0, 79, 0
2, 122400, Note_on_c, 0, 78, 102
2, 122495, Note_on_c, 0, 78, 0
2, 122495, Note_on_c, 0, 52, 0
2, 122496, Note_on_c, 0, 76, 102
2, 122496, Note_on_c, 0, 58, 102
2, 122676, Note_on_c, 0, 76, 0
2, 122687, Note_on_c, 0, 58, 0
2, 122687, Note_on_c, 0, 49, 0
2, 122688, Note_on_c, 0, 74, 102
2, 122688, Note_on_c, 0, 50, 102
2, 122688, Note_on_c, 0, 59, 102
2, 122868, Note_on_c, 0, 74, 0
2, 122879, Note_on_c, 0, 59, 0
2, 122879, Note_on_c, 0, 50, 0
2, 122880, Note_on_c, 0, 73, 102
2, 122880, Note_on_c, 0, 52, 102
2, 122880, Note_on_c, 0, 61, 102
2, 123071, Note_on_c, 0, 52, 0
2, 123071, Note_on_c, 0, 73, 0
2, 123072, Note_on_c, 0, 71, 102
2, 123072, Note_on_c, 0, 54, 102
2, 123167, Note_on_c, 0, 71, 0
2, 123168, Note_on_c, 0, 70, 102
2, 123260, Note_on_c, 0, 61, 0
2, 123263, Note_on_c, 0, 70, 0
2, 123263, Note_on_c, 0, 54, 0
2, 123264, Note_on_c, 0, 71, 102
2, 123264, Note_on_c, 0, 59, 102
2, 123264, Note_on_c, 0, 55, 102
2, 123359, Note_on_c, 0, 71, 0
2, 123360, Note_on_c, 0, 73, 102
2, 123455, Note_on_c, 0, 73, 0
2, 123455, Note_on_c, 0, 55, 0
2, 123456, Note_on_c, 0, 74, 102
2, 123456, Note_on_c, 0, 54, 102
2, 123551, Note_on_c, 0, 54, 0
2, 123551, Note_on_c, 0, 74, 0
2, 123552, Note_on_c, 0, 76, 102
2, 123552, Note_on_c, 0, 52, 102
2, 123647, Note_on_c, 0, 52, 0
2, 123647, Note_on_c, 0, 76, 0
2, 123648, Note_on_c, 0, 78, 102
2, 123648, Note_on_c, 0, 50, 102
2, 123743, Note_on_c, 0, 78, 0
2, 123744, Note_on_c, 0, 76, 102
2, 123839, Note_on_c, 0, 76, 0
2, 123839, Note_on_c, 0, 50, 0
2, 123839, Note_on_c, 0, 59, 0
2, 123840, Note_on_c, 0, 74, 102
2, 123840, Note_on_c, 0, 58, 102
2, 123840, Note_on_c, 0, 54, 102
2, 123935, Note_on_c, 0, 74, 0
2, 123936, Note_on_c, 0, 73, 102
2, 124031, Note_on_c, 0, 73, 0
2, 124031, Note_on_c, 0, 54, 0
2, 124031, Note_on_c, 0, 58, 0
2, 124032, Note_on_c, 0, 76, 102
2, 124032, Note_on_c, 0, 59, 102
2, 124127, Note_on_c, 0, 76, 0
2, 124128, Note_on_c, 0, 74, 102
2, 124223, Note_on_c, 0, 74, 0
2, 124223, Note_on_c, 0, 59, 0
2, 124224, Note_on_c, 0, 73, 102
2, 124224, Note_on_c, 0, 57, 102
2, 124319, Note_on_c, 0, 73, 0
2, 124320, Note_on_c, 0, 71, 102
2, 124415, Note_on_c, 0, 71, 0
2, 124415, Note_on_c, 0, 57, 0
2, 124416, Note_on_c, 0, 74, 102
2, 124416, Note_on_c, 0, 55, 102
2, 124511, Note_on_c, 0, 74, 0
2, 124512, Note_on_c, 0, 73, 102
2, 124607, Note_on_c, 0, 73, 0
2, 124607, Note_on_c, 0, 55, 0
2, 124608, Note_on_c, 0, 71, 102
2, 124608, Note_on_c, 0, 54, 102
2, 124703, Note_on_c, 0, 71, 0
2, 124704, Note_on_c, 0, 70, 102
2, 124799, Note_on_c, 0, 70, 0
2, 124799, Note_on_c, 0, 54, 0
2, 124800, Note_on_c, 0, 79, 102
2, 124800, Note_on_c, 0, 52, 102
2, 124895, Note_on_c, 0, 79, 0
2, 124896, Note_on_c, 0, 78, 102
2, 124991, Note_on_c, 0, 78, 0
2, 124991, Note_on_c, 0, 52, 0
2, 124992, Note_on_c, 0, 76, 102
2, 124992, Note_on_c, 0, 55, 102
2, 125087, Note_on_c, 0, 76, 0
2, 125088, Note_on_c, 0, 75, 102
2, 125183, Note_on_c, 0, 75, 0
2, 125183, Note_on_c, 0, 55, 0
2, 125184, Note_on_c, 0, 49, 102
2, 125184, Note_on_c, 0, 81, 102
2, 125281, Note_on_c, 0, 81, 0
2, 125282, Note_on_c, 0, 79, 102
2, 125379, Note_on_c, 0, 79, 0
2, 125380, Note_on_c, 0, 49, 0
2, 125381, Note_on_c, 0, 55, 102
2, 125381, Note_on_c, 0, 78, 102
2, 125478, Note_on_c, 0, 78, 0
2, 125480, Note_on_c, 0, 76, 102
2, 125577, Note_on_c, 0, 76, 0
2, 125577, Note_on_c, 0, 55, 0
2, 125579, Note_on_c, 0, 83, 102
2, 125579, Note_on_c, 0, 54, 102
2, 125678, Note_on_c, 0, 83, 0
2, 125680, Note_on_c, 0, 82, 102
2, 125779, Note_on_c, 0, 82, 0
2, 125780, Note_on_c, 0, 54, 0
2, 125782, Note_on_c, 0, 80, 102
2, 125782, Note_on_c, 0, 52, 102
2, 125881, Note_on_c, 0, 80, 0
2, 125884, Note_on_c, 0, 78, 102
2, 125983, Note_on_c, 0, 78, 0
2, 125983, Note_on_c, 0, 52, 0
2, 125986, Note_on_c, 0, 64, 102
2, 125986, Note_on_c, 0, 83, 102
2, 126087, Note_on_c, 0, 64, 0
2, 126090, Note_on_c, 0, 62, 102
2, 126191, Note_on_c, 0, 62, 0
2, 126193, Note_on_c, 0, 83, 0
2, 126195, Note_on_c, 0, 61, 102
2, 126195, Note_on_c, 0, 78, 102
2, 126296, Note_on_c, 0, 61, 0
2, 126300, Note_on_c, 0, 59, 102
2, 126401, Note_on_c, 0, 59, 0
2, 126402, Note_on_c, 0, 78, 0
2, 126405, Note_on_c, 0, 76, 102
2, 126405, Note_on_c, 0, 66, 102
2, 126509, Note_on_c, 0, 76, 0
2, 126512, Note_on_c, 0, 74, 102
2, 126616, Note_on_c, 0, 74, 0
2, 126618, Note_on_c, 0, 66, 0
2, 126620, Note_on_c, 0, 73, 102
2, 126620, Note_on_c, 0, 54, 102
2, 126724, Note_on_c, 0, 73, 0
2, 126729, Note_on_c, 0, 71, 102
2, 126833, Note_on_c, 0, 71, 0
2, 126833, Note_on_c, 0, 54, 0
2, 126837, Note_on_c, 0, 71, 102
2, 126837, Note_on_c, 0, 59, 102
2, 126949, Note_on_c, 0, 66, 102
2, 127064, Note_on_c, 0, 62, 102
2, 127179, Note_on_c, 0, 54, 102
2, 127181, Note_on_c, 0, 59, 0
2, 127302, Note_on_c, 0, 54, 0
2, 127314, Note_on_c, 0, 47, 102
2, 127746, Note_on_c, 0, 66, 0
2, 127747, Note_on_c, 0, 62, 0
2, 127987, Note_on_c, 0, 71, 0
2, 127994, Note_on_c, 0, 47, 0
2, 129024, Note_on_c, 0, 74, 102
2, 129024, Note_on_c, 0, 47, 102
2, 129120, Note_on_c, 0, 78, 102
2, 129215, Note_on_c, 0, 78, 0
2, 129216, Note_on_c, 0, 47, 0
2, 129216, Note_on_c, 0, 59, 102
2, 129216, Note_on_c, 0, 83, 102
2, 129304, Note_on_c, 0, 74, 0
2, 129311, Note_on_c, 0, 83, 0
2, 129312, Note_on_c, 0, 78, 102
2, 129396, Note_on_c, 0, 59, 0
2, 129407, Note_on_c, 0, 78, 0
2, 129408, Note_on_c, 0, 58, 102
2, 129408, Note_on_c, 0, 73, 102
2, 129503, Note_on_c, 0, 73, 0
2, 129504, Note_on_c, 0, 78, 102
2, 129588, Note_on_c, 0, 58, 0
2, 129599, Note_on_c, 0, 78, 0
2, 129600, Note_on_c, 0, 59, 102
2, 129600, Note_on_c, 0, 74, 102
2, 129695, Note_on_c, 0, 74, 0
2, 129696, Note_on_c, 0, 78, 102
2, 129791, Note_on_c, 0, 78, 0
2, 129791, Note_on_c, 0, 59, 0
2, 129792, Note_on_c, 0, 62, 102
2, 129792, Note_on_c, 0, 71, 102
2, 129887, Note_on_c, 0, 71, 0
2, 129888, Note_on_c, 0, 78, 102
2, 129972, Note_on_c, 0, 62, 0
2, 129983, Note_on_c, 0, 78, 0
2, 129984, Note_on_c, 0, 66, 102
2, 129984, Note_on_c, 0, 70, 102
2, 130079, Note_on_c, 0, 70, 0
2, 130080, Note_on_c, 0, 78, 102
2, 130164, Note_on_c, 0, 66, 0
2, 130175, Note_on_c, 0, 78, 0
2, 130176, Note_on_c, 0, 62, 102
2, 130176, Note_on_c, 0, 71, 102
2, 130272, Note_on_c, 0, 78, 102
2, 130367, Note_on_c, 0, 78, 0
2, 130367, Note_on_c, 0, 62, 0
2, 130368, Note_on_c, 0, 59, 102
2, 130368, Note_on_c, 0, 83, 102
2, 130456, Note_on_c, 0, 71, 0
2, 130463, Note_on_c, 0, 83, 0
2, 130464, Note_on_c, 0, 78, 102
2, 130548, Note_on_c, 0, 59, 0
2, 130559, Note_on_c, 0, 78, 0
2, 130560, Note_on_c, 0, 58, 102
2, 130560, Note_on_c, 0, 73, 102
2, 130655, Note_on_c, 0, 73, 0
2, 130656, Note_on_c, 0, 78, 102
2, 130740, Note_on_c, 0, 58, 0
2, 130751, Note_on_c, 0, 78, 0
2, 130752, Note_on_c, 0, 59, 102
2, 130752, Note_on_c, 0, 74, 102
2, 130847, Note_on_c, 0, 74, 0
2, 130848, Note_on_c, 0, 78, 102
2, 130943, Note_on_c, 0, 78, 0
2, 130943, Note_on_c, 0, 59, 0
2, 130944, Note_on_c, 0, 50, 102
2, 130944, Note_on_c, 0, 71, 102
2, 131039, Note_on_c, 0, 71, 0
2, 131040, Note_on_c, 0, 78, 102
2, 131124, Note_on_c, 0, 50, 0
2, 131135, Note_on_c, 0, 78, 0
2, 131136, Note_on_c, 0, 54, 102
2, 131136, Note_on_c, 0, 70, 102
2, 131231, Note_on_c, 0, 70, 0
2, 131232, Note_on_c, 0, 78, 102
2, 131316, Note_on_c, 0, 54, 0
2, 131327, Note_on_c, 0, 78, 0
2, 131328, Note_on_c, 0, 47, 102
2, 131328, Note_on_c, 0, 74, 102
2, 131424, Note_on_c, 0, 78, 102
2, 131518, Note_on_c, 0, 74, 0
2, 131519, Note_on_c, 0, 78, 0
2, 131519, Note_on_c, 0, 47, 0
2, 131520, Note_on_c, 0, 59, 102
2, 131520, Note_on_c, 0, 74, 102
2, 131615, Note_on_c, 0, 74, 0
2, 131616, Note_on_c, 0, 71, 102
2, 131700, Note_on_c, 0, 59, 0
2, 131711, Note_on_c, 0, 71, 0
2, 131712, Note_on_c, 0, 52, 102
2, 131712, Note_on_c, 0, 79, 102
2, 131807, Note_on_c, 0, 79, 0
2, 131808, Note_on_c, 0, 76, 102
2, 131892, Note_on_c, 0, 52, 0
2, 131903, Note_on_c, 0, 76, 0
2, 131904, Note_on_c, 0, 45, 102
2, 131904, Note_on_c, 0, 73, 102
2, 132000, Note_on_c, 0, 76, 102
2, 132094, Note_on_c, 0, 73, 0
2, 132095, Note_on_c, 0, 76, 0
2, 132095, Note_on_c, 0, 45, 0
2, 132096, Note_on_c, 0, 57, 102
2, 132096, Note_on_c, 0, 73, 102
2, 132191, Note_on_c, 0, 73, 0
2, 132192, Note_on_c, 0, 69, 102
2, 132276, Note_on_c, 0, 57, 0
2, 132287, Note_on_c, 0, 69, 0
2, 132288, Note_on_c, 0, 50, 102
2, 132288, Note_on_c, 0, 78, 102
2, 132383, Note_on_c, 0, 78, 0
2, 132384, Note_on_c, 0, 74, 102
2, 132468, Note_on_c, 0, 50, 0
2, 132479, Note_on_c, 0, 74, 0
2, 132480, Note_on_c, 0, 43, 102
2, 132480, Note_on_c, 0, 71, 102
2, 132576, Note_on_c, 0, 78, 102
2, 132670, Note_on_c, 0, 71, 0
2, 132671, Note_on_c, 0, 78, 0
2, 132671, Note_on_c, 0, 43, 0
2, 132672, Note_on_c, 0, 55, 102
2, 132672, Note_on_c, 0, 76, 102
2, 132767, Note_on_c, 0, 76, 0
2, 132768, Note_on_c, 0, 74, 102
2, 132852, Note_on_c, 0, 55, 0
2, 132863, Note_on_c, 0, 74, 0
2, 132864, Note_on_c, 0, 52, 102
2, 132864, Note_on_c, 0, 73, 102
2, 132959, Note_on_c, 0, 73, 0
2, 132960, Note_on_c, 0, 71, 102
2, 133044, Note_on_c, 0, 52, 0
2, 133055, Note_on_c, 0, 71, 0
2, 133056, Note_on_c, 0, 54, 102
2, 133056, Note_on_c, 0, 70, 102
2, 133151, Note_on_c, 0, 54, 0
2, 133152, Note_on_c, 0, 55, 102
2, 133152, Note_on_c, 0, 66, 102
2, 133166, Note_on_c, 0, 70, 0
2, 133247, Note_on_c, 0, 66, 0
2, 133247, Note_on_c, 0, 55, 0
2, 133248, Note_on_c, 0, 54, 102
2, 133248, Note_on_c, 0, 70, 102
2, 133343, Note_on_c, 0, 70, 0
2, 133343, Note_on_c, 0, 54, 0
2, 133344, Note_on_c, 0, 52, 102
2, 133344, Note_on_c, 0, 73, 102
2, 133434, Note_on_c, 0, 52, 0
2, 133439, Note_on_c, 0, 73, 0
2, 133440, Note_on_c, 0, 50, 102
2, 133440, Note_on_c, 0, 78, 102
2, 133530, Note_on_c, 0, 50, 0
2, 133535, Note_on_c, 0, 78, 0
2, 133536, Note_on_c, 0, 49, 102
2, 133536, Note_on_c, 0, 76, 102
2, 133626, Note_on_c, 0, 49, 0
2, 133631, Note_on_c, 0, 76, 0
2, 133632, Note_on_c, 0, 47, 102
2, 133632, Note_on_c, 0, 74, 102
2, 133728, Note_on_c, 0, 78, 102
2, 133823, Note_on_c, 0, 78, 0
2, 133823, Note_on_c, 0, 47, 0
2, 133824, Note_on_c, 0, 59, 102
2, 133824, Note_on_c, 0, 83, 102
2, 133912, Note_on_c, 0, 74, 0
2, 133919, Note_on_c, 0, 83, 0
2, 133920, Note_on_c, 0, 78, 102
2, 134004, Note_on_c, 0, 59, 0
2, 134015, Note_on_c, 0, 78, 0
2, 134016, Note_on_c, 0, 58, 102
2, 134016, Note_on_c, 0, 73, 102
2, 134111, Note_on_c, 0, 73, 0
2, 134112, Note_on_c, 0, 78, 102
2, 134196, Note_on_c, 0, 58, 0
2, 134207, Note_on_c, 0, 78, 0
2, 134208, Note_on_c, 0, 59, 102
2, 134208, Note_on_c, 0, 74, 102
2, 134303, Note_on_c, 0, 74, 0
2, 134304, Note_on_c, 0, 78, 102
2, 134399, Note_on_c, 0, 78, 0
2, 134399, Note_on_c, 0, 59, 0
2, 134400, Note_on_c, 0, 62, 102
2, 134400, Note_on_c, 0, 71, 102
2, 134495, Note_on_c, 0, 71, 0
2, 134496, Note_on_c, 0, 78, 102
2, 134580, Note_on_c, 0, 62, 0
2, 134591, Note_on_c, 0, 78, 0
2, 134592, Note_on_c, 0, 66, 102
2, 134592, Note_on_c, 0, 70, 102
2, 134687, Note_on_c, 0, 70, 0
2, 134688, Note_on_c, 0, 78, 102
2, 134772, Note_on_c, 0, 66, 0
2, 134783, Note_on_c, 0, 78, 0
2, 134784, Note_on_c, 0, 62, 102
2, 134784, Note_on_c, 0, 71, 102
2, 134880, Note_on_c, 0, 78, 102
2, 134975, Note_on_c, 0, 78, 0
2, 134975, Note_on_c, 0, 62, 0
2, 134976, Note_on_c, 0, 59, 102
2, 134976, Note_on_c, 0, 83, 102
2, 135064, Note_on_c, 0, 71, 0
2, 135071, Note_on_c, 0, 83, 0
2, 135072, Note_on_c, 0, 78, 102
2, 135156, Note_on_c, 0, 59, 0
2, 135167, Note_on_c, 0, 78, 0
2, 135168, Note_on_c, 0, 58, 102
2, 135168, Note_on_c, 0, 73, 102
2, 135263, Note_on_c, 0, 73, 0
2, 135264, Note_on_c, 0, 78, 102
2, 135348, Note_on_c, 0, 58, 0
2, 135359, Note_on_c, 0, 78, 0
2, 135360, Note_on_c, 0, 59, 102
2, 135360, Note_on_c, 0, 74, 102
2, 135455, Note_on_c, 0, 74, 0
2, 135456, Note_on_c, 0, 78, 102
2, 135551, Note_on_c, 0, 78, 0
2, 135551, Note_on_c, 0, 59, 0
2, 135552, Note_on_c, 0, 50, 102
2, 135552, Note_on_c, 0, 71, 102
2, 135647, Note_on_c, 0, 71, 0
2, 135648, Note_on_c, 0, 78, 102
2, 135732, Note_on_c, 0, 50, 0
2, 135743, Note_on_c, 0, 78, 0
2, 135744, Note_on_c, 0, 54, 102
2, 135744, Note_on_c, 0, 70, 102
2, 135839, Note_on_c, 0, 70, 0
2, 135840, Note_on_c, 0, 78, 102
2, 135924, Note_on_c, 0, 54, 0
2, 135935, Note_on_c, 0, 78, 0
2, 135936, Note_on_c, 0, 47, 102
2, 135936, Note_on_c, 0, 74, 102
2, 136032, Note_on_c, 0, 78, 102
2, 136126, Note_on_c, 0, 74, 0
2, 136127, Note_on_c, 0, 78, 0
2, 136127, Note_on_c, 0, 47, 0
2, 136128, Note_on_c, 0, 59, 102
2, 136128, Note_on_c, 0, 74, 102
2, 136223, Note_on_c, 0, 74, 0
2, 136224, Note_on_c, 0, 71, 102
2, 136308, Note_on_c, 0, 59, 0
2, 136319, Note_on_c, 0, 71, 0
2, 136320, Note_on_c, 0, 52, 102
2, 136320, Note_on_c, 0, 79, 102
2, 136415, Note_on_c, 0, 79, 0
2, 136416, Note_on_c, 0, 76, 102
2, 136500, Note_on_c, 0, 52, 0
2, 136511, Note_on_c, 0, 76, 0
2, 136512, Note_on_c, 0, 45, 102
2, 136512, Note_on_c, 0, 73, 102
2, 136608, Note_on_c, 0, 76, 102
2, 136702, Note_on_c, 0, 73, 0
2, 136703, Note_on_c, 0, 76, 0
2, 136703, Note_on_c, 0, 45, 0
2, 136704, Note_on_c, 0, 57, 102
2, 136704, Note_on_c, 0, 73, 102
2, 136799, Note_on_c, 0, 73, 0
2, 136800, Note_on_c, 0, 69, 102
2, 136884, Note_on_c, 0, 57, 0
2, 136895, Note_on_c, 0, 69, 0
2, 136896, Note_on_c, 0, 49, 102
2, 136896, Note_on_c, 0, 81, 102
2, 136991, Note_on_c, 0, 81, 0
2, 136992, Note_on_c, 0, 76, 102
2, 137076, Note_on_c, 0, 49, 0
2, 137087, Note_on_c, 0, 76, 0
2, 137088, Note_on_c, 0, 50, 102
2, 137088, Note_on_c, 0, 78, 102
2, 137184, Note_on_c, 0, 81, 102
2, 137278, Note_on_c, 0, 78, 0
2, 137279, Note_on_c, 0, 81, 0
2, 137279, Note_on_c, 0, 50, 0
2, 137280, Note_on_c, 0, 54, 102
2, 137280, Note_on_c, 0, 78, 102
2, 137375, Note_on_c, 0, 78, 0
2, 137376, Note_on_c, 0, 74, 102
2, 137460, Note_on_c, 0, 54, 0
2, 137471, Note_on_c, 0, 74, 0
2, 137472, Note_on_c, 0, 57, 102
2, 137472, Note_on_c, 0, 69, 102
2, 137567, Note_on_c, 0, 69, 0
2, 137568, Note_on_c, 0, 73, 102
2, 137652, Note_on_c, 0, 57, 0
2, 137663, Note_on_c, 0, 73, 0
2, 137664, Note_on_c, 0, 50, 102
2, 137664, Note_on_c, 0, 74, 102
2, 137855, Note_on_c, 0, 50, 0
2, 137856, Note_on_c, 0, 45, 102
2, 138036, Note_on_c, 0, 45, 0
2, 138044, Note_on_c, 0, 74, 0
2, 138048, Note_on_c, 0, 38, 102
2, 138228, Note_on_c, 0, 38, 0
2, 138240, Note_on_c, 0, 54, 102
2, 138240, Note_on_c, 0, 81, 102
2, 138335, Note_on_c, 0, 81, 0
2, 138336, Note_on_c, 0, 57, 102
2, 138336, Note_on_c, 0, 79, 102
2, 138430, Note_on_c, 0, 54, 0
2, 138431, Note_on_c, 0, 79, 0
2, 138431, Note_on_c, 0, 57, 0
2, 138432, Note_on_c, 0, 62, 102
2, 138432, Note_on_c, 0, 78, 102
2, 138527, Note_on_c, 0, 78, 0
2, 138527, Note_on_c, 0, 62, 0
2, 138528, Note_on_c, 0, 57, 102
2, 138528, Note_on_c, 0, 76, 102
2, 138623, Note_on_c, 0, 76, 0
2, 138623, Note_on_c, 0, 57, 0
2, 138624, Note_on_c, 0, 52, 102
2, 138624, Note_on_c, 0, 74, 102
2, 138719, Note_on_c, 0, 74, 0
2, 138719, Note_on_c, 0, 52, 0
2, 138720, Note_on_c, 0, 57, 102
2, 138720, Note_on_c, 0, 73, 102
2, 138815, Note_on_c, 0, 73, 0
2, 138815, Note_on_c, 0, 57, 0
2, 138816, Note_on_c, 0, 54, 102
2, 138816, Note_on_c, 0, 74, 102
2, 138911, Note_on_c, 0, 74, 0
2, 138911, Note_on_c, 0, 54, 0
2, 138912, Note_on_c, 0, 57, 102
2, 138912, Note_on_c, 0, 76, 102
2, 139007, Note_on_c, 0, 76, 0
2, 139007, Note_on_c, 0, 57, 0
2, 139008, Note_on_c, 0, 50, 102
2, 139008, Note_on_c, 0, 78, 102
2, 139103, Note_on_c, 0, 78, 0
2, 139103, Note_on_c, 0, 50, 0
2, 139104, Note_on_c, 0, 57, 102
2, 139104, Note_on_c, 0, 74, 102
2, 139199, Note_on_c, 0, 74, 0
2, 139199, Note_on_c, 0, 57, 0
2, 139200, Note_on_c, 0, 49, 102
2, 139200, Note_on_c, 0, 76, 102
2, 139295, Note_on_c, 0, 76, 0
2, 139295, Note_on_c, 0, 49, 0
2, 139296, Note_on_c, 0, 57, 102
2, 139296, Note_on_c, 0, 79, 102
2, 139391, Note_on_c, 0, 79, 0
2, 139391, Note_on_c, 0, 57, 0
2, 139392, Note_on_c, 0, 50, 102
2, 139392, Note_on_c, 0, 78, 102
2, 139487, Note_on_c, 0, 78, 0
2, 139488, Note_on_c, 0, 57, 102
2, 139488, Note_on_c, 0, 79, 102
2, 139582, Note_on_c, 0, 50, 0
2, 139583, Note_on_c, 0, 79, 0
2, 139583, Note_on_c, 0, 57, 0
2, 139584, Note_on_c, 0, 62, 102
2, 139584, Note_on_c, 0, 81, 102
2, 139679, Note_on_c, 0, 62, 0
2, 139680, Note_on_c, 0, 57, 102
2, 139724, Note_on_c, 0, 81, 0
2, 139775, Note_on_c, 0, 57, 0
2, 139776, Note_on_c, 0, 52, 102
2, 139776, Note_on_c, 0, 73, 102
2, 139871, Note_on_c, 0, 52, 0
2, 139872, Note_on_c, 0, 57, 102
2, 139916, Note_on_c, 0, 73, 0
2, 139967, Note_on_c, 0, 57, 0
2, 139968, Note_on_c, 0, 54, 102
2, 139968, Note_on_c, 0, 74, 102
2, 140063, Note_on_c, 0, 74, 0
2, 140063, Note_on_c, 0, 54, 0
2, 140064, Note_on_c, 0, 57, 102
2, 140064, Note_on_c, 0, 76, 102
2, 140159, Note_on_c, 0, 76, 0
2, 140159, Note_on_c, 0, 57, 0
2, 140160, Note_on_c, 0, 50, 102
2, 140160, Note_on_c, 0, 78, 102
2, 140255, Note_on_c, 0, 50, 0
2, 140256, Note_on_c, 0, 57, 102
2, 140320, Note_on_c, 0, 78, 0
2, 140351, Note_on_c, 0, 57, 0
2, 140352, Note_on_c, 0, 49, 102
2, 140352, Note_on_c, 0, 76, 102
2, 140447, Note_on_c, 0, 49, 0
2, 140448, Note_on_c, 0, 57, 102
2, 140512, Note_on_c, 0, 76, 0
2, 140543, Note_on_c, 0, 57, 0
2, 140544, Note_on_c, 0, 50, 102
2, 140544, Note_on_c, 0, 78, 102
2, 140640, Note_on_c, 0, 54, 102
2, 140684, Note_on_c, 0, 50, 0
2, 140735, Note_on_c, 0, 54, 0
2, 140735, Note_on_c, 0, 78, 0
2, 140736, Note_on_c, 0, 50, 102
2, 140736, Note_on_c, 0, 83, 102
2, 140831, Note_on_c, 0, 50, 0
2, 140832, Note_on_c, 0, 47, 102
2, 140876, Note_on_c, 0, 83, 0
2, 140927, Note_on_c, 0, 47, 0
2, 140928, Note_on_c, 0, 59, 102
2, 140928, Note_on_c, 0, 80, 102
2, 141023, Note_on_c, 0, 59, 0
2, 141024, Note_on_c, 0, 56, 102
2, 141068, Note_on_c, 0, 80, 0
2, 141119, Note_on_c, 0, 56, 0
2, 141120, Note_on_c, 0, 53, 102
2, 141120, Note_on_c, 0, 71, 102
2, 141215, Note_on_c, 0, 71, 0
2, 141216, Note_on_c, 0, 56, 102
2, 141216, Note_on_c, 0, 73, 102
2, 141260, Note_on_c, 0, 53, 0
2, 141311, Note_on_c, 0, 73, 0
2, 141311, Note_on_c, 0, 56, 0
2, 141312, Note_on_c, 0, 49, 102
2, 141312, Note_on_c, 0, 74, 102
2, 141407, Note_on_c, 0, 49, 0
2, 141408, Note_on_c, 0, 56, 102
2, 141452, Note_on_c, 0, 74, 0
2, 141503, Note_on_c, 0, 56, 0
2, 141504, Note_on_c, 0, 53, 102
2, 141504, Note_on_c, 0, 73, 102
2, 141599, Note_on_c, 0, 53, 0
2, 141600, Note_on_c, 0, 56, 102
2, 141644, Note_on_c, 0, 73, 0
2, 141695, Note_on_c, 0, 56, 0
2, 141696, Note_on_c, 0, 54, 102
2, 141696, Note_on_c, 0, 71, 102
2, 141791, Note_on_c, 0, 71, 0
2, 141792, Note_on_c, 0, 69, 102
2, 141887, Note_on_c, 0, 69, 0
2, 141887, Note_on_c, 0, 54, 0
2, 141888, Note_on_c, 0, 61, 102
2, 141888, Note_on_c, 0, 68, 102
2, 141983, Note_on_c, 0, 68, 0
2, 141984, Note_on_c, 0, 66, 102
2, 142068, Note_on_c, 0, 61, 0
2, 142079, Note_on_c, 0, 66, 0
2, 142080, Note_on_c, 0, 49, 102
2, 142080, Note_on_c, 0, 68, 102
2, 142175, Note_on_c, 0, 68, 0
2, 142176, Note_on_c, 0, 65, 102
2, 142260, Note_on_c, 0, 49, 0
2, 142271, Note_on_c, 0, 65, 0
2, 142272, Note_on_c, 0, 54, 102
2, 142272, Note_on_c, 0, 66, 102
2, 142368, Note_on_c, 0, 57, 102
2, 142412, Note_on_c, 0, 54, 0
2, 142463, Note_on_c, 0, 57, 0
2, 142464, Note_on_c, 0, 61, 102
2, 142559, Note_on_c, 0, 61, 0
2, 142560, Note_on_c, 0, 57, 102
2, 142652, Note_on_c, 0, 66, 0
2, 142655, Note_on_c, 0, 57, 0
2, 142656, Note_on_c, 0, 52, 102
2, 142751, Note_on_c, 0, 52, 0
2, 142752, Note_on_c, 0, 57, 102
2, 142847, Note_on_c, 0, 57, 0
2, 142848, Note_on_c, 0, 51, 102
2, 142848, Note_on_c, 0, 69, 102
2, 142943, Note_on_c, 0, 51, 0
2, 142944, Note_on_c, 0, 54, 102
2, 143039, Note_on_c, 0, 54, 0
2, 143040, Note_on_c, 0, 47, 102
2, 143135, Note_on_c, 0, 47, 0
2, 143135, Note_on_c, 0, 69, 0
2, 143136, Note_on_c, 0, 54, 102
2, 143136, Note_on_c, 0, 71, 102
2, 143183, Note_on_c, 0, 71, 0
2, 143184, Note_on_c, 0, 72, 102
2, 143231, Note_on_c, 0, 72, 0
2, 143231, Note_on_c, 0, 54, 0
2, 143232, Note_on_c, 0, 51, 102
2, 143232, Note_on_c, 0, 71, 102
2, 143327, Note_on_c, 0, 51, 0
2, 143328, Note_on_c, 0, 54, 102
2, 143372, Note_on_c, 0, 71, 0
2, 143423, Note_on_c, 0, 54, 0
2, 143424, Note_on_c, 0, 52, 102
2, 143424, Note_on_c, 0, 69, 102
2, 143519, Note_on_c, 0, 69, 0
2, 143520, Note_on_c, 0, 67, 102
2, 143615, Note_on_c, 0, 67, 0
2, 143615, Note_on_c, 0, 52, 0
2, 143616, Note_on_c, 0, 47, 102
2, 143616, Note_on_c, 0, 69, 102
2, 143711, Note_on_c, 0, 69, 0
2, 143712, Note_on_c, 0, 66, 102
2, 143796, Note_on_c, 0, 47, 0
2, 143807, Note_on_c, 0, 66, 0
2, 143808, Note_on_c, 0, 40, 102
2, 143808, Note_on_c, 0, 67, 102
2, 143903, Note_on_c, 0, 67, 0
2, 143904, Note_on_c, 0, 64, 102
2, 143988, Note_on_c, 0, 40, 0
2, 143999, Note_on_c, 0, 64, 0
2, 144000, Note_on_c, 0, 53, 102
2, 144000, Note_on_c, 0, 71, 102
2, 144095, Note_on_c, 0, 53, 0
2, 144096, Note_on_c, 0, 56, 102
2, 144191, Note_on_c, 0, 56, 0
2, 144192, Note_on_c, 0, 49, 102
2, 144287, Note_on_c, 0, 49, 0
2, 144287, Note_on_c, 0, 71, 0
2, 144288, Note_on_c, 0, 56, 102
2, 144288, Note_on_c, 0, 73, 102
2, 144335, Note_on_c, 0, 73, 0
2, 144336, Note_on_c, 0, 74, 102
2, 144383, Note_on_c, 0, 74, 0
2, 144383, Note_on_c, 0, 56, 0
2, 144384, Note_on_c, 0, 53, 102
2, 144384, Note_on_c, 0, 73, 102
2, 144479, Note_on_c, 0, 53, 0
2, 144480, Note_on_c, 0, 56, 102
2, 144524, Note_on_c, 0, 73, 0
2, 144575, Note_on_c, 0, 56, 0
2, 144576, Note_on_c, 0, 54, 102
2, 144576, Note_on_c, 0, 71, 102
2, 144671, Note_on_c, 0, 71, 0
2, 144672, Note_on_c, 0, 70, 102
2, 144767, Note_on_c, 0, 70, 0
2, 144767, Note_on_c, 0, 54, 0
2, 144768, Note_on_c, 0, 49, 102
2, 144768, Note_on_c, 0, 71, 102
2, 144863, Note_on_c, 0, 71, 0
2, 144864, Note_on_c, 0, 68, 102
2, 144948, Note_on_c, 0, 49, 0
2, 144959, Note_on_c, 0, 68, 0
2, 144960, Note_on_c, 0, 42, 102
2, 144960, Note_on_c, 0, 70, 102
2, 145055, Note_on_c, 0, 70, 0
2, 145056, Note_on_c, 0, 66, 102
2, 145140, Note_on_c, 0, 42, 0
2, 145151, Note_on_c, 0, 66, 0
2, 145152, Note_on_c, 0, 54, 102
2, 145152, Note_on_c, 0, 73, 102
2, 145248, Note_on_c, 0, 70, 102
2, 145343, Note_on_c, 0, 70, 0
2, 145343, Note_on_c, 0, 54, 0
2, 145344, Note_on_c, 0, 49, 102
2, 145344, Note_on_c, 0, 66, 102
2, 145432, Note_on_c, 0, 73, 0
2, 145439, Note_on_c, 0, 66, 0
2, 145440, Note_on_c, 0, 70, 102
2, 145524, Note_on_c, 0, 49, 0
2, 145535, Note_on_c, 0, 70, 0
2, 145536, Note_on_c, 0, 46, 102
2, 145536, Note_on_c, 0, 73, 102
2, 145631, Note_on_c, 0, 73, 0
2, 145632, Note_on_c, 0, 76, 102
2, 145716, Note_on_c, 0, 46, 0
2, 145727, Note_on_c, 0, 76, 0
2, 145728, Note_on_c, 0, 42, 102
2, 145728, Note_on_c, 0, 79, 102
2, 145824, Note_on_c, 0, 73, 102
2, 145838, Note_on_c, 0, 79, 0
2, 145919, Note_on_c, 0, 73, 0
2, 145919, Note_on_c, 0, 42, 0
2, 145920, Note_on_c, 0, 44, 102
2, 145920, Note_on_c, 0, 78, 102
2, 146016, Note_on_c, 0, 73, 102
2, 146030, Note_on_c, 0, 78, 0
2, 146100, Note_on_c, 0, 44, 0
2, 146111, Note_on_c, 0, 73, 0
2, 146112, Note_on_c, 0, 46, 102
2, 146112, Note_on_c, 0, 76, 102
2, 146207, Note_on_c, 0, 76, 0
2, 146208, Note_on_c, 0, 73, 102
2, 146292, Note_on_c, 0, 46, 0
2, 146303, Note_on_c, 0, 73, 0
2, 146304, Note_on_c, 0, 47, 102
2, 146304, Note_on_c, 0, 74, 102
2, 146400, Note_on_c, 0, 73, 102
2, 146495, Note_on_c, 0, 73, 0
2, 146495, Note_on_c, 0, 47, 0
2, 146496, Note_on_c, 0, 54, 102
2, 146496, Note_on_c, 0, 71, 102
2, 146584, Note_on_c, 0, 74, 0
2, 146591, Note_on_c, 0, 71, 0
2, 146592, Note_on_c, 0, 74, 102
2, 146676, Note_on_c, 0, 54, 0
2, 146687, Note_on_c, 0, 74, 0
2, 146688, Note_on_c, 0, 59, 102
2, 146688, Note_on_c, 0, 78, 102
2, 146783, Note_on_c, 0, 78, 0
2, 146784, Note_on_c, 0, 83, 102
2, 146868, Note_on_c, 0, 59, 0
2, 146879, Note_on_c, 0, 83, 0
2, 146880, Note_on_c, 0, 62, 102
2, 146880, Note_on_c, 0, 78, 102
2, 146976, Note_on_c, 0, 71, 102
2, 146990, Note_on_c, 0, 78, 0
2, 147071, Note_on_c, 0, 71, 0
2, 147071, Note_on_c, 0, 62, 0
2, 147072, Note_on_c, 0, 61, 102
2, 147072, Note_on_c, 0, 76, 102
2, 147168, Note_on_c, 0, 71, 102
2, 147182, Note_on_c, 0, 76, 0
2, 147252, Note_on_c, 0, 61, 0
2, 147263, Note_on_c, 0, 71, 0
2, 147264, Note_on_c, 0, 59, 102
2, 147264, Note_on_c, 0, 74, 102
2, 147359, Note_on_c, 0, 74, 0
2, 147360, Note_on_c, 0, 71, 102
2, 147444, Note_on_c, 0, 59, 0
2, 147455, Note_on_c, 0, 71, 0
2, 147456, Note_on_c, 0, 52, 102
2, 147456, Note_on_c, 0, 73, 102
2, 147552, Note_on_c, 0, 71, 102
2, 147576, Note_on_c, 0, 73, 0
2, 147647, Note_on_c, 0, 71, 0
2, 147647, Note_on_c, 0, 52, 0
2, 147648, Note_on_c, 0, 54, 102
2, 147648, Note_on_c, 0, 74, 102
2, 147744, Note_on_c, 0, 71, 102
2, 147758, Note_on_c, 0, 74, 0
2, 147828, Note_on_c, 0, 54, 0
2, 147839, Note_on_c, 0, 71, 0
2, 147840, Note_on_c, 0, 55, 102
2, 147840, Note_on_c, 0, 76, 102
2, 147935, Note_on_c, 0, 76, 0
2, 147936, Note_on_c, 0, 71, 102
2, 148020, Note_on_c, 0, 55, 0
2, 148031, Note_on_c, 0, 71, 0
2, 148032, Note_on_c, 0, 50, 102
2, 148032, Note_on_c, 0, 78, 102
2, 148128, Note_on_c, 0, 71, 102
2, 148152, Note_on_c, 0, 78, 0
2, 148223, Note_on_c, 0, 71, 0
2, 148223, Note_on_c, 0, 50, 0
2, 148224, Note_on_c, 0, 52, 102
2, 148224, Note_on_c, 0, 79, 102
2, 148320, Note_on_c, 0, 71, 102
2, 148334, Note_on_c, 0, 79, 0
2, 148404, Note_on_c, 0, 52, 0
2, 148415, Note_on_c, 0, 71, 0
2, 148416, Note_on_c, 0, 49, 102
2, 148416, Note_on_c, 0, 76, 102
2, 148511, Note_on_c, 0, 76, 0
2, 148512, Note_on_c, 0, 71, 102
2, 148596, Note_on_c, 0, 49, 0
2, 148607, Note_on_c, 0, 71, 0
2, 148608, Note_on_c, 0, 50, 102
2, 148608, Note_on_c, 0, 78, 102
2, 148799, Note_on_c, 0, 78, 0
2, 148799, Note_on_c, 0, 50, 0
2, 148800, Note_on_c, 0, 52, 102
2, 148800, Note_on_c, 0, 76, 102
2, 148895, Note_on_c, 0, 76, 0
2, 148896, Note_on_c, 0, 74, 102
2, 148980, Note_on_c, 0, 52, 0
2, 148991, Note_on_c, 0, 74, 0
2, 148992, Note_on_c, 0, 54, 102
2, 148992, Note_on_c, 0, 73, 102
2, 149087, Note_on_c, 0, 73, 0
2, 149088, Note_on_c, 0, 74, 102
2, 149172, Note_on_c, 0, 54, 0
2, 149183, Note_on_c, 0, 74, 0
2, 149184, Note_on_c, 0, 59, 102
2, 149184, Note_on_c, 0, 71, 102
2, 149375, Note_on_c, 0, 59, 0
2, 149376, Note_on_c, 0, 54, 102
2, 149556, Note_on_c, 0, 54, 0
2, 149564, Note_on_c, 0, 71, 0
2, 149568, Note_on_c, 0, 47, 102
2, 149748, Note_on_c, 0, 47, 0
2, 149760, Note_on_c, 0, 59, 102
2, 149760, Note_on_c, 0, 62, 102
2, 149760, Note_on_c, 0, 66, 102
2, 149855, Note_on_c, 0, 66, 0
2, 149856, Note_on_c, 0, 67, 102
2, 149950, Note_on_c, 0, 62, 0
2, 149951, Note_on_c, 0, 67, 0
2, 149952, Note_on_c, 0, 69, 102
2, 149952, Note_on_c, 0, 63, 102
2, 150143, Note_on_c, 0, 63, 0
2, 150143, Note_on_c, 0, 69, 0
2, 150144, Note_on_c, 0, 67, 102
2, 150144, Note_on_c, 0, 64, 102
2, 150324, Note_on_c, 0, 67, 0
2, 150335, Note_on_c, 0, 64, 0
2, 150335, Note_on_c, 0, 59, 0
2, 150336, Note_on_c, 0, 51, 102
2, 150336, Note_on_c, 0, 69, 102
2, 150336, Note_on_c, 0, 66, 102
2, 150383, Note_on_c, 0, 69, 0
2, 150384, Note_on_c, 0, 71, 102
2, 150431, Note_on_c, 0, 71, 0
2, 150432, Note_on_c, 0, 72, 102
2, 150527, Note_on_c, 0, 72, 0
2, 150528, Note_on_c, 0, 71, 102
2, 150719, Note_on_c, 0, 71, 0
2, 150720, Note_on_c, 0, 69, 102
2, 150900, Note_on_c, 0, 69, 0
2, 150911, Note_on_c, 0, 66, 0
2, 150911, Note_on_c, 0, 51, 0
2, 150912, Note_on_c, 0, 52, 102
2, 150912, Note_on_c, 0, 67, 102
2, 150912, Note_on_c, 0, 64, 102
2, 151103, Note_on_c, 0, 67, 0
2, 151103, Note_on_c, 0, 52, 0
2, 151104, Note_on_c, 0, 45, 102
2, 151104, Note_on_c, 0, 71, 102
2, 151199, Note_on_c, 0, 71, 0
2, 151200, Note_on_c, 0, 69, 102
2, 151284, Note_on_c, 0, 45, 0
2, 151292, Note_on_c, 0, 64, 0
2, 151295, Note_on_c, 0, 69, 0
2, 151296, Note_on_c, 0, 47, 102
2, 151296, Note_on_c, 0, 63, 102
2, 151296, Note_on_c, 0, 67, 102
2, 151391, Note_on_c, 0, 67, 0
2, 151392, Note_on_c, 0, 66, 102
2, 151476, Note_on_c, 0, 47, 0
2, 151486, Note_on_c, 0, 63, 0
2, 151487, Note_on_c, 0, 66, 0
2, 151488, Note_on_c, 0, 40, 102
2, 151488, Note_on_c, 0, 69, 102
2, 151488, Note_on_c, 0, 64, 102
2, 151583, Note_on_c, 0, 69, 0
2, 151584, Note_on_c, 0, 67, 102
2, 151679, Note_on_c, 0, 67, 0
2, 151679, Note_on_c, 0, 40, 0
2, 151680, Note_on_c, 0, 47, 102
2, 151680, Note_on_c, 0, 66, 102
2, 151775, Note_on_c, 0, 66, 0
2, 151776, Note_on_c, 0, 67, 102
2, 151860, Note_on_c, 0, 47, 0
2, 151868, Note_on_c, 0, 64, 0
2, 151871, Note_on_c, 0, 67, 0
2, 151872, Note_on_c, 0, 52, 102
2, 151872, Note_on_c, 0, 64, 102
2, 151968, Note_on_c, 0, 67, 102
2, 152052, Note_on_c, 0, 52, 0
2, 152058, Note_on_c, 0, 67, 0
2, 152062, Note_on_c, 0, 64, 0
2, 152064, Note_on_c, 0, 55, 102
2, 152064, Note_on_c, 0, 70, 102
2, 152159, Note_on_c, 0, 70, 0
2, 152160, Note_on_c, 0, 71, 102
2, 152255, Note_on_c, 0, 71, 0
2, 152256, Note_on_c, 0, 64, 102
2, 152256, Note_on_c, 0, 73, 102
2, 152351, Note_on_c, 0, 73, 0
2, 152352, Note_on_c, 0, 70, 102
2, 152447, Note_on_c, 0, 70, 0
2, 152447, Note_on_c, 0, 64, 0
2, 152448, Note_on_c, 0, 62, 102
2, 152448, Note_on_c, 0, 71, 102
2, 152538, Note_on_c, 0, 71, 0
2, 152544, Note_on_c, 0, 74, 102
2, 152639, Note_on_c, 0, 74, 0
2, 152639, Note_on_c, 0, 62, 0
2, 152639, Note_on_c, 0, 55, 0
2, 152640, Note_on_c, 0, 46, 102
2, 152640, Note_on_c, 0, 76, 102
2, 152687, Note_on_c, 0, 76, 0
2, 152688, Note_on_c, 0, 78, 102
2, 152735, Note_on_c, 0, 78, 0
2, 152736, Note_on_c, 0, 79, 102
2, 152831, Note_on_c, 0, 79, 0
2, 152832, Note_on_c, 0, 78, 102
2, 152928, Note_on_c, 0, 73, 102
2, 153023, Note_on_c, 0, 73, 0
2, 153024, Note_on_c, 0, 66, 102
2, 153102, Note_on_c, 0, 78, 0
2, 153120, Note_on_c, 0, 76, 102
2, 153214, Note_on_c, 0, 66, 0
2, 153215, Note_on_c, 0, 76, 0
2, 153215, Note_on_c, 0, 46, 0
2, 153216, Note_on_c, 0, 47, 102
2, 153216, Note_on_c, 0, 74, 102
2, 153216, Note_on_c, 0, 71, 102
2, 153311, Note_on_c, 0, 74, 0
2, 153312, Note_on_c, 0, 73, 102
2, 153407, Note_on_c, 0, 73, 0
2, 153407, Note_on_c, 0, 47, 0
2, 153408, Note_on_c, 0, 45, 102
2, 153408, Note_on_c, 0, 76, 102
2, 153503, Note_on_c, 0, 76, 0
2, 153504, Note_on_c, 0, 74, 102
2, 153588, Note_on_c, 0, 45, 0
2, 153596, Note_on_c, 0, 71, 0
2, 153599, Note_on_c, 0, 74, 0
2, 153600, Note_on_c, 0, 43, 102
2, 153600, Note_on_c, 0, 73, 102
2, 153695, Note_on_c, 0, 73, 0
2, 153696, Note_on_c, 0, 71, 102
2, 153780, Note_on_c, 0, 43, 0
2, 153791, Note_on_c, 0, 71, 0
2, 153792, Note_on_c, 0, 42, 102
2, 153792, Note_on_c, 0, 70, 102
2, 153792, Note_on_c, 0, 78, 102
2, 154172, Note_on_c, 0, 78, 0
2, 154172, Note_on_c, 0, 70, 0
2, 154367, Note_on_c, 0, 42, 0
2, 154368, Note_on_c, 0, 54, 102
2, 154368, Note_on_c, 0, 72, 102
2, 154368, Note_on_c, 0, 81, 102
2, 154463, Note_on_c, 0, 54, 0
2, 154464, Note_on_c, 0, 55, 102
2, 154559, Note_on_c, 0, 55, 0
2, 154559, Note_on_c, 0, 81, 0
2, 154559, Note_on_c, 0, 72, 0
2, 154560, Note_on_c, 0, 57, 102
2, 154560, Note_on_c, 0, 78, 102
2, 154560, Note_on_c, 0, 72, 102
2, 154740, Note_on_c, 0, 57, 0
2, 154751, Note_on_c, 0, 72, 0
2, 154751, Note_on_c, 0, 78, 0
2, 154752, Note_on_c, 0, 55, 102
2, 154752, Note_on_c, 0, 71, 102
2, 154752, Note_on_c, 0, 76, 102
2, 154932, Note_on_c, 0, 55, 0
2, 154943, Note_on_c, 0, 76, 0
2, 154943, Note_on_c, 0, 71, 0
2, 154944, Note_on_c, 0, 60, 102
2, 154944, Note_on_c, 0, 71, 102
2, 154944, Note_on_c, 0, 75, 102
2, 155039, Note_on_c, 0, 71, 0
2, 155040, Note_on_c, 0, 69, 102
2, 155135, Note_on_c, 0, 69, 0
2, 155135, Note_on_c, 0, 60, 0
2, 155136, Note_on_c, 0, 59, 102
2, 155136, Note_on_c, 0, 69, 102
2, 155231, Note_on_c, 0, 69, 0
2, 155232, Note_on_c, 0, 67, 102
2, 155316, Note_on_c, 0, 59, 0
2, 155327, Note_on_c, 0, 67, 0
2, 155328, Note_on_c, 0, 57, 102
2, 155328, Note_on_c, 0, 67, 102
2, 155423, Note_on_c, 0, 67, 0
2, 155424, Note_on_c, 0, 75, 0
2, 155424, Note_on_c, 0, 66, 102
2, 155508, Note_on_c, 0, 57, 0
2, 155519, Note_on_c, 0, 66, 0
2, 155520, Note_on_c, 0, 55, 102
2, 155520, Note_on_c, 0, 71, 102
2, 155520, Note_on_c, 0, 76, 102
2, 155615, Note_on_c, 0, 55, 0
2, 155616, Note_on_c, 0, 54, 102
2, 155711, Note_on_c, 0, 54, 0
2, 155711, Note_on_c, 0, 76, 0
2, 155712, Note_on_c, 0, 57, 102
2, 155712, Note_on_c, 0, 78, 102
2, 155807, Note_on_c, 0, 57, 0
2, 155808, Note_on_c, 0, 55, 102
2, 155903, Note_on_c, 0, 55, 0
2, 155903, Note_on_c, 0, 78, 0
2, 155904, Note_on_c, 0, 54, 102
2, 155904, Note_on_c, 0, 79, 102
2, 155999, Note_on_c, 0, 54, 0
2, 156000, Note_on_c, 0, 52, 102
2, 156084, Note_on_c, 0, 79, 0
2, 156095, Note_on_c, 0, 52, 0
2, 156095, Note_on_c, 0, 71, 0
2, 156096, Note_on_c, 0, 57, 102
2, 156096, Note_on_c, 0, 73, 102
2, 156191, Note_on_c, 0, 73, 0
2, 156192, Note_on_c, 0, 71, 102
2, 156287, Note_on_c, 0, 71, 0
2, 156288, Note_on_c, 0, 64, 102
2, 156288, Note_on_c, 0, 74, 102
2, 156383, Note_on_c, 0, 74, 0
2, 156384, Note_on_c, 0, 73, 102
2, 156479, Note_on_c, 0, 73, 0
2, 156479, Note_on_c, 0, 64, 0
2, 156480, Note_on_c, 0, 67, 102
2, 156480, Note_on_c, 0, 71, 102
2, 156575, Note_on_c, 0, 71, 0
2, 156576, Note_on_c, 0, 69, 102
2, 156671, Note_on_c, 0, 69, 0
2, 156671, Note_on_c, 0, 67, 0
2, 156672, Note_on_c, 0, 66, 102
2, 156672, Note_on_c, 0, 74, 102
2, 156767, Note_on_c, 0, 74, 0
2, 156767, Note_on_c, 0, 66, 0
2, 156768, Note_on_c, 0, 67, 102
2, 156768, Note_on_c, 0, 76, 102
2, 156863, Note_on_c, 0, 76, 0
2, 156863, Note_on_c, 0, 67, 0
2, 156864, Note_on_c, 0, 69, 102
2, 156864, Note_on_c, 0, 78, 102
2, 156959, Note_on_c, 0, 78, 0
2, 156960, Note_on_c, 0, 74, 102
2, 157055, Note_on_c, 0, 74, 0
2, 157055, Note_on_c, 0, 69, 0
2, 157056, Note_on_c, 0, 67, 102
2, 157056, Note_on_c, 0, 76, 102
2, 157151, Note_on_c, 0, 76, 0
2, 157152, Note_on_c, 0, 79, 102
2, 157246, Note_on_c, 0, 57, 0
2, 157247, Note_on_c, 0, 79, 0
2, 157248, Note_on_c, 0, 83, 102
2, 157439, Note_on_c, 0, 83, 0
2, 157439, Note_on_c, 0, 67, 0
2, 157440, Note_on_c, 0, 66, 102
2, 157440, Note_on_c, 0, 59, 102
2, 157440, Note_on_c, 0, 81, 102
2, 157610, Note_on_c, 0, 81, 0
2, 157620, Note_on_c, 0, 59, 0
2, 157631, Note_on_c, 0, 66, 0
2, 157632, Note_on_c, 0, 64, 102
2, 157632, Note_on_c, 0, 61, 102
2, 157632, Note_on_c, 0, 79, 102
2, 157802, Note_on_c, 0, 79, 0
2, 157812, Note_on_c, 0, 61, 0
2, 157823, Note_on_c, 0, 64, 0
2, 157824, Note_on_c, 0, 62, 102
2, 157824, Note_on_c, 0, 78, 102
2, 157919, Note_on_c, 0, 78, 0
2, 157920, Note_on_c, 0, 76, 102
2, 158015, Note_on_c, 0, 76, 0
2, 158015, Note_on_c, 0, 62, 0
2, 158016, Note_on_c, 0, 55, 102
2, 158016, Note_on_c, 0, 74, 102
2, 158016, Note_on_c, 0, 79, 102
2, 158111, Note_on_c, 0, 79, 0
2, 158112, Note_on_c, 0, 78, 102
2, 158196, Note_on_c, 0, 55, 0
2, 158206, Note_on_c, 0, 74, 0
2, 158207, Note_on_c, 0, 78, 0
2, 158208, Note_on_c, 0, 57, 102
2, 158208, Note_on_c, 0, 76, 102
2, 158208, Note_on_c, 0, 73, 102
2, 158303, Note_on_c, 0, 76, 0
2, 158304, Note_on_c, 0, 78, 102
2, 158388, Note_on_c, 0, 57, 0
2, 158398, Note_on_c, 0, 73, 0
2, 158399, Note_on_c, 0, 78, 0
2, 158400, Note_on_c, 0, 50, 102
2, 158400, Note_on_c, 0, 74, 102
2, 158591, Note_on_c, 0, 50, 0
2, 158592, Note_on_c, 0, 45, 102
2, 158772, Note_on_c, 0, 45, 0
2, 158780, Note_on_c, 0, 74, 0
2, 158784, Note_on_c, 0, 38, 102
2, 158964, Note_on_c, 0, 38, 0
2, 158976, Note_on_c, 0, 50, 102
2, 158976, Note_on_c, 0, 81, 102
2, 158976, Note_on_c, 0, 78, 102
2, 159071, Note_on_c, 0, 78, 0
2, 159071, Note_on_c, 0, 81, 0
2, 159071, Note_on_c, 0, 50, 0
2, 159072, Note_on_c, 0, 52, 102
2, 159072, Note_on_c, 0, 76, 102
2, 159072, Note_on_c, 0, 79, 102
2, 159167, Note_on_c, 0, 79, 0
2, 159167, Note_on_c, 0, 76, 0
2, 159167, Note_on_c, 0, 52, 0
2, 159168, Note_on_c, 0, 54, 102
2, 159168, Note_on_c, 0, 78, 102
2, 159168, Note_on_c, 0, 74, 102
2, 159263, Note_on_c, 0, 54, 0
2, 159264, Note_on_c, 0, 52, 102
2, 159348, Note_on_c, 0, 74, 0
2, 159359, Note_on_c, 0, 52, 0
2, 159359, Note_on_c, 0, 78, 0
2, 159360, Note_on_c, 0, 54, 102
2, 159360, Note_on_c, 0, 76, 102
2, 159360, Note_on_c, 0, 79, 102
2, 159455, Note_on_c, 0, 54, 0
2, 159456, Note_on_c, 0, 55, 102
2, 159540, Note_on_c, 0, 76, 0
2, 159551, Note_on_c, 0, 55, 0
2, 159551, Note_on_c, 0, 79, 0
2, 159552, Note_on_c, 0, 57, 102
2, 159552, Note_on_c, 0, 76, 102
2, 159552, Note_on_c, 0, 73, 102
2, 159647, Note_on_c, 0, 57, 0
2, 159648, Note_on_c, 0, 59, 102
2, 159743, Note_on_c, 0, 59, 0
2, 159743, Note_on_c, 0, 73, 0
2, 159743, Note_on_c, 0, 76, 0
2, 159744, Note_on_c, 0, 61, 102
2, 159744, Note_on_c, 0, 74, 102
2, 159744, Note_on_c, 0, 78, 102
2, 159839, Note_on_c, 0, 61, 0
2, 159840, Note_on_c, 0, 59, 102
2, 159924, Note_on_c, 0, 74, 0
2, 159935, Note_on_c, 0, 59, 0
2, 159935, Note_on_c, 0, 78, 0
2, 159936, Note_on_c, 0, 58, 102
2, 159936, Note_on_c, 0, 76, 102
2, 159936, Note_on_c, 0, 79, 102
2, 160031, Note_on_c, 0, 58, 0
2, 160032, Note_on_c, 0, 61, 102
2, 160116, Note_on_c, 0, 79, 0
2, 160126, Note_on_c, 0, 76, 0
2, 160127, Note_on_c, 0, 61, 0
2, 160128, Note_on_c, 0, 50, 102
2, 160128, Note_on_c, 0, 78, 102
2, 160224, Note_on_c, 0, 74, 102
2, 160318, Note_on_c, 0, 78, 0
2, 160319, Note_on_c, 0, 74, 0
2, 160319, Note_on_c, 0, 50, 0
2, 160320, Note_on_c, 0, 55, 102
2, 160320, Note_on_c, 0, 73, 102
2, 160320, Note_on_c, 0, 76, 102
2, 160410, Note_on_c, 0, 73, 0
2, 160415, Note_on_c, 0, 76, 0
2, 160416, Note_on_c, 0, 74, 102
2, 160416, Note_on_c, 0, 71, 102
2, 160500, Note_on_c, 0, 55, 0
2, 160506, Note_on_c, 0, 71, 0
2, 160511, Note_on_c, 0, 74, 0
2, 160512, Note_on_c, 0, 52, 102
2, 160512, Note_on_c, 0, 73, 102
2, 160512, Note_on_c, 0, 70, 102
2, 160602, Note_on_c, 0, 70, 0
2, 160607, Note_on_c, 0, 73, 0
2, 160608, Note_on_c, 0, 71, 102
2, 160692, Note_on_c, 0, 52, 0
2, 160698, Note_on_c, 0, 71, 0
2, 160704, Note_on_c, 0, 71, 102
2, 160704, Note_on_c, 0, 54, 102
2, 160801, Note_on_c, 0, 71, 0
2, 160802, Note_on_c, 0, 70, 102
2, 160899, Note_on_c, 0, 70, 0
2, 160901, Note_on_c, 0, 68, 102
2, 160901, Note_on_c, 0, 59, 102
2, 160998, Note_on_c, 0, 68, 0
2, 161000, Note_on_c, 0, 70, 102
2, 161086, Note_on_c, 0, 59, 0
2, 161097, Note_on_c, 0, 70, 0
2, 161099, Note_on_c, 0, 66, 102
2, 161099, Note_on_c, 0, 58, 102
2, 161196, Note_on_c, 0, 66, 0
2, 161198, Note_on_c, 0, 70, 102
2, 161289, Note_on_c, 0, 70, 0
2, 161297, Note_on_c, 0, 73, 102
2, 161346, Note_on_c, 0, 58, 0
2, 161396, Note_on_c, 0, 73, 0
2, 161398, Note_on_c, 0, 59, 102
2, 161398, Note_on_c, 0, 74, 102
2, 161497, Note_on_c, 0, 74, 0
2, 161497, Note_on_c, 0, 59, 0
2, 161500, Note_on_c, 0, 61, 102
2, 161500, Note_on_c, 0, 76, 102
2, 161599, Note_on_c, 0, 76, 0
2, 161599, Note_on_c, 0, 61, 0
2, 161602, Note_on_c, 0, 58, 102
2, 161602, Note_on_c, 0, 73, 102
2, 161701, Note_on_c, 0, 73, 0
2, 161701, Note_on_c, 0, 58, 0
2, 161704, Note_on_c, 0, 59, 102
2, 161704, Note_on_c, 0, 74, 102
2, 161803, Note_on_c, 0, 74, 0
2, 161803, Note_on_c, 0, 59, 0
2, 161806, Note_on_c, 0, 62, 102
2, 161806, Note_on_c, 0, 78, 102
2, 161837, Note_on_c, 0, 54, 0
2, 161905, Note_on_c, 0, 78, 0
2, 161905, Note_on_c, 0, 62, 0
2, 161908, Note_on_c, 0, 79, 102
2, 161908, Note_on_c, 0, 64, 102
2, 162115, Note_on_c, 0, 64, 0
2, 162115, Note_on_c, 0, 79, 0
2, 162117, Note_on_c, 0, 78, 102
2, 162117, Note_on_c, 0, 56, 102
2, 162117, Note_on_c, 0, 62, 102
2, 162312, Note_on_c, 0, 62, 0
2, 162312, Note_on_c, 0, 56, 0
2, 162312, Note_on_c, 0, 78, 0
2, 162327, Note_on_c, 0, 76, 102
2, 162327, Note_on_c, 0, 61, 102
2, 162327, Note_on_c, 0, 58, 102
2, 162522, Note_on_c, 0, 58, 0
2, 162522, Note_on_c, 0, 61, 0
2, 162522, Note_on_c, 0, 76, 0
2, 162537, Note_on_c, 0, 74, 102
2, 162537, Note_on_c, 0, 59, 102
2, 162644, Note_on_c, 0, 74, 0
2, 162646, Note_on_c, 0, 73, 102
2, 162753, Note_on_c, 0, 73, 0
2, 162756, Note_on_c, 0, 59, 0
2, 162757, Note_on_c, 0, 71, 102
2, 162757, Note_on_c, 0, 76, 102
2, 162757, Note_on_c, 0, 52, 102
2, 162864, Note_on_c, 0, 76, 0
2, 162869, Note_on_c, 0, 74, 102
2, 162963, Note_on_c, 0, 52, 0
2, 162963, Note_on_c, 0, 71, 0
2, 162976, Note_on_c, 0, 74, 0
2, 162980, Note_on_c, 0, 73, 102
2, 162980, Note_on_c, 0, 70, 102
2, 162980, Note_on_c, 0, 54, 102
2, 163087, Note_on_c, 0, 73, 0
2, 163091, Note_on_c, 0, 74, 102
2, 163186, Note_on_c, 0, 70, 0
2, 163197, Note_on_c, 0, 54, 0
2, 163198, Note_on_c, 0, 74, 0
2, 163210, Note_on_c, 0, 47, 102
2, 163210, Note_on_c, 0, 71, 102
2, 163977, Note_on_c, 0, 71, 0
2, 163977, Note_on_c, 0, 47, 0
2, 164736, Note_on_c, 0, 71, 102
2, 164876, Note_on_c, 0, 71, 0
2, 164928, Note_on_c, 0, 66, 102
2, 165311, Note_on_c, 0, 66, 0
2, 165312, Note_on_c, 0, 71, 102
2, 165312, Note_on_c, 0, 59, 102
2, 165359, Note_on_c, 0, 71, 0
2, 165360, Note_on_c, 0, 73, 102
2, 165407, Note_on_c, 0, 73, 0
2, 165408, Note_on_c, 0, 74, 102
2, 165452, Note_on_c, 0, 59, 0
2, 165503, Note_on_c, 0, 74, 0
2, 165504, Note_on_c, 0, 73, 102
2, 165504, Note_on_c, 0, 54, 102
2, 165887, Note_on_c, 0, 54, 0
2, 165887, Note_on_c, 0, 73, 0
2, 165888, Note_on_c, 0, 78, 102
2, 165888, Note_on_c, 0, 62, 102
2, 166028, Note_on_c, 0, 62, 0
2, 166079, Note_on_c, 0, 78, 0
2, 166080, Note_on_c, 0, 76, 102
2, 166080, Note_on_c, 0, 61, 102
2, 166271, Note_on_c, 0, 76, 0
2, 166272, Note_on_c, 0, 78, 102
2, 166367, Note_on_c, 0, 78, 0
2, 166368, Note_on_c, 0, 76, 102
2, 166463, Note_on_c, 0, 76, 0
2, 166463, Note_on_c, 0, 61, 0
2, 166464, Note_on_c, 0, 74, 102
2, 166464, Note_on_c, 0, 66, 102
2, 166559, Note_on_c, 0, 74, 0
2, 166560, Note_on_c, 0, 73, 102
2, 166604, Note_on_c, 0, 66, 0
2, 166655, Note_on_c, 0, 73, 0
2, 166656, Note_on_c, 0, 74, 102
2, 166656, Note_on_c, 0, 59, 102
2, 166751, Note_on_c, 0, 74, 0
2, 166752, Note_on_c, 0, 73, 102
2, 166847, Note_on_c, 0, 73, 0
2, 166848, Note_on_c, 0, 71, 102
2, 166943, Note_on_c, 0, 71, 0
2, 166944, Note_on_c, 0, 74, 102
2, 167036, Note_on_c, 0, 59, 0
2, 167039, Note_on_c, 0, 74, 0
2, 167040, Note_on_c, 0, 78, 102
2, 167135, Note_on_c, 0, 78, 0
2, 167136, Note_on_c, 0, 74, 102
2, 167231, Note_on_c, 0, 74, 0
2, 167232, Note_on_c, 0, 83, 102
2, 167328, Note_on_c, 0, 78, 102
2, 167422, Note_on_c, 0, 83, 0
2, 167423, Note_on_c, 0, 78, 0
2, 167424, Note_on_c, 0, 74, 102
2, 167519, Note_on_c, 0, 74, 0
2, 167520, Note_on_c, 0, 71, 102
2, 167520, Note_on_c, 0, 59, 102
2, 167615, Note_on_c, 0, 59, 0
2, 167615, Note_on_c, 0, 71, 0
2, 167616, Note_on_c, 0, 78, 102
2, 167616, Note_on_c, 0, 62, 102
2, 167711, Note_on_c, 0, 62, 0
2, 167711, Note_on_c, 0, 78, 0
2, 167712, Note_on_c, 0, 74, 102
2, 167712, Note_on_c, 0, 59, 102
2, 167807, Note_on_c, 0, 59, 0
2, 167807, Note_on_c, 0, 74, 0
2, 167808, Note_on_c, 0, 79, 102
2, 167808, Note_on_c, 0, 64, 102
2, 167903, Note_on_c, 0, 64, 0
2, 167904, Note_on_c, 0, 76, 102
2, 167904, Note_on_c, 0, 59, 102
2, 167998, Note_on_c, 0, 79, 0
2, 167999, Note_on_c, 0, 59, 0
2, 167999, Note_on_c, 0, 76, 0
2, 168000, Note_on_c, 0, 71, 102
2, 168000, Note_on_c, 0, 55, 102
2, 168095, Note_on_c, 0, 55, 0
2, 168095, Note_on_c, 0, 71, 0
2, 168096, Note_on_c, 0, 76, 102
2, 168096, Note_on_c, 0, 52, 102
2, 168191, Note_on_c, 0, 52, 0
2, 168191, Note_on_c, 0, 76, 0
2, 168192, Note_on_c, 0, 79, 102
2, 168192, Note_on_c, 0, 59, 102
2, 168287, Note_on_c, 0, 59, 0
2, 168287, Note_on_c, 0, 79, 0
2, 168288, Note_on_c, 0, 76, 102
2, 168288, Note_on_c, 0, 55, 102
2, 168383, Note_on_c, 0, 55, 0
2, 168383, Note_on_c, 0, 76, 0
2, 168384, Note_on_c, 0, 81, 102
2, 168384, Note_on_c, 0, 61, 102
2, 168479, Note_on_c, 0, 61, 0
2, 168480, Note_on_c, 0, 76, 102
2, 168480, Note_on_c, 0, 57, 102
2, 168574, Note_on_c, 0, 81, 0
2, 168575, Note_on_c, 0, 57, 0
2, 168575, Note_on_c, 0, 76, 0
2, 168576, Note_on_c, 0, 73, 102
2, 168576, Note_on_c, 0, 52, 102
2, 168671, Note_on_c, 0, 52, 0
2, 168671, Note_on_c, 0, 73, 0
2, 168672, Note_on_c, 0, 69, 102
2, 168672, Note_on_c, 0, 57, 102
2, 168767, Note_on_c, 0, 57, 0
2, 168767, Note_on_c, 0, 69, 0
2, 168768, Note_on_c, 0, 76, 102
2, 168768, Note_on_c, 0, 61, 102
2, 168863, Note_on_c, 0, 61, 0
2, 168863, Note_on_c, 0, 76, 0
2, 168864, Note_on_c, 0, 73, 102
2, 168864, Note_on_c, 0, 57, 102
2, 168959, Note_on_c, 0, 57, 0
2, 168959, Note_on_c, 0, 73, 0
2, 168960, Note_on_c, 0, 78, 102
2, 168960, Note_on_c, 0, 62, 102
2, 169055, Note_on_c, 0, 62, 0
2, 169056, Note_on_c, 0, 74, 102
2, 169056, Note_on_c, 0, 57, 102
2, 169150, Note_on_c, 0, 78, 0
2, 169151, Note_on_c, 0, 57, 0
2, 169151, Note_on_c, 0, 74, 0
2, 169152, Note_on_c, 0, 69, 102
2, 169152, Note_on_c, 0, 54, 102
2, 169247, Note_on_c, 0, 54, 0
2, 169247, Note_on_c, 0, 69, 0
2, 169248, Note_on_c, 0, 74, 102
2, 169248, Note_on_c, 0, 50, 102
2, 169343, Note_on_c, 0, 50, 0
2, 169343, Note_on_c, 0, 74, 0
2, 169344, Note_on_c, 0, 78, 102
2, 169344, Note_on_c, 0, 57, 102
2, 169439, Note_on_c, 0, 57, 0
2, 169439, Note_on_c, 0, 78, 0
2, 169440, Note_on_c, 0, 74, 102
2, 169440, Note_on_c, 0, 54, 102
2, 169535, Note_on_c, 0, 54, 0
2, 169535, Note_on_c, 0, 74, 0
2, 169536, Note_on_c, 0, 79, 102
2, 169536, Note_on_c, 0, 59, 102
2, 169632, Note_on_c, 0, 74, 102
2, 169656, Note_on_c, 0, 79, 0
2, 169727, Note_on_c, 0, 74, 0
2, 169727, Note_on_c, 0, 59, 0
2, 169728, Note_on_c, 0, 78, 102
2, 169728, Note_on_c, 0, 57, 102
2, 169824, Note_on_c, 0, 74, 102
2, 169848, Note_on_c, 0, 78, 0
2, 169898, Note_on_c, 0, 57, 0
2, 169919, Note_on_c, 0, 74, 0
2, 169920, Note_on_c, 0, 76, 102
2, 169920, Note_on_c, 0, 55, 102
2, 170015, Note_on_c, 0, 76, 0
2, 170016, Note_on_c, 0, 74, 102
2, 170090, Note_on_c, 0, 55, 0
2, 170111, Note_on_c, 0, 74, 0
2, 170112, Note_on_c, 0, 81, 102
2, 170112, Note_on_c, 0, 54, 102
2, 170208, Note_on_c, 0, 74, 102
2, 170232, Note_on_c, 0, 81, 0
2, 170303, Note_on_c, 0, 74, 0
2, 170303, Note_on_c, 0, 54, 0
2, 170304, Note_on_c, 0, 79, 102
2, 170304, Note_on_c, 0, 52, 102
2, 170400, Note_on_c, 0, 74, 102
2, 170424, Note_on_c, 0, 79, 0
2, 170474, Note_on_c, 0, 52, 0
2, 170495, Note_on_c, 0, 74, 0
2, 170496, Note_on_c, 0, 78, 102
2, 170496, Note_on_c, 0, 50, 102
2, 170591, Note_on_c, 0, 78, 0
2, 170592, Note_on_c, 0, 74, 102
2, 170666, Note_on_c, 0, 50, 0
2, 170687, Note_on_c, 0, 74, 0
2, 170688, Note_on_c, 0, 83, 102
2, 170688, Note_on_c, 0, 55, 102
2, 170784, Note_on_c, 0, 62, 102
2, 170798, Note_on_c, 0, 55, 0
2, 170879, Note_on_c, 0, 62, 0
2, 170879, Note_on_c, 0, 83, 0
2, 170880, Note_on_c, 0, 81, 102
2, 170880, Note_on_c, 0, 54, 102
2, 170976, Note_on_c, 0, 62, 102
2, 170990, Note_on_c, 0, 54, 0
2, 171020, Note_on_c, 0, 81, 0
2, 171071, Note_on_c, 0, 62, 0
2, 171072, Note_on_c, 0, 79, 102
2, 171072, Note_on_c, 0, 52, 102
2, 171167, Note_on_c, 0, 52, 0
2, 171168, Note_on_c, 0, 62, 102
2, 171212, Note_on_c, 0, 79, 0
2, 171263, Note_on_c, 0, 62, 0
2, 171264, Note_on_c, 0, 78, 102
2, 171264, Note_on_c, 0, 57, 102
2, 171360, Note_on_c, 0, 62, 102
2, 171374, Note_on_c, 0, 57, 0
2, 171455, Note_on_c, 0, 62, 0
2, 171455, Note_on_c, 0, 78, 0
2, 171456, Note_on_c, 0, 76, 102
2, 171456, Note_on_c, 0, 55, 102
2, 171552, Note_on_c, 0, 62, 102
2, 171566, Note_on_c, 0, 55, 0
2, 171596, Note_on_c, 0, 76, 0
2, 171647, Note_on_c, 0, 62, 0
2, 171648, Note_on_c, 0, 74, 102
2, 171648, Note_on_c, 0, 54, 102
2, 171743, Note_on_c, 0, 54, 0
2, 171744, Note_on_c, 0, 62, 102
2, 171788, Note_on_c, 0, 74, 0
2, 171839, Note_on_c, 0, 62, 0
2, 171840, Note_on_c, 0, 76, 102
2, 171840, Note_on_c, 0, 55, 102
2, 171935, Note_on_c, 0, 55, 0
2, 171935, Note_on_c, 0, 76, 0
2, 171936, Note_on_c, 0, 74, 102
2, 171936, Note_on_c, 0, 54, 102
2, 172031, Note_on_c, 0, 54, 0
2, 172031, Note_on_c, 0, 74, 0
2, 172032, Note_on_c, 0, 73, 102
2, 172032, Note_on_c, 0, 52, 102
2, 172128, Note_on_c, 0, 76, 102
2, 172128, Note_on_c, 0, 55, 102
2, 172142, Note_on_c, 0, 52, 0
2, 172152, Note_on_c, 0, 73, 0
2, 172223, Note_on_c, 0, 76, 0
2, 172223, Note_on_c, 0, 55, 0
2, 172224, Note_on_c, 0, 71, 102
2, 172224, Note_on_c, 0, 50, 102
2, 172319, Note_on_c, 0, 50, 0
2, 172319, Note_on_c, 0, 71, 0
2, 172320, Note_on_c, 0, 76, 102
2, 172320, Note_on_c, 0, 55, 102
2, 172415, Note_on_c, 0, 55, 0
2, 172415, Note_on_c, 0, 76, 0
2, 172416, Note_on_c, 0, 69, 102
2, 172416, Note_on_c, 0, 49, 102
2, 172512, Note_on_c, 0, 76, 102
2, 172512, Note_on_c, 0, 55, 102
2, 172526, Note_on_c, 0, 49, 0
2, 172536, Note_on_c, 0, 69, 0
2, 172607, Note_on_c, 0, 76, 0
2, 172607, Note_on_c, 0, 55, 0
2, 172608, Note_on_c, 0, 67, 102
2, 172608, Note_on_c, 0, 47, 102
2, 172704, Note_on_c, 0, 76, 102
2, 172704, Note_on_c, 0, 55, 102
2, 172718, Note_on_c, 0, 47, 0
2, 172728, Note_on_c, 0, 67, 0
2, 172799, Note_on_c, 0, 76, 0
2, 172799, Note_on_c, 0, 55, 0
2, 172800, Note_on_c, 0, 66, 102
2, 172800, Note_on_c, 0, 45, 102
2, 172895, Note_on_c, 0, 45, 0
2, 172895, Note_on_c, 0, 66, 0
2, 172896, Note_on_c, 0, 74, 102
2, 172896, Note_on_c, 0, 54, 102
2, 172991, Note_on_c, 0, 54, 0
2, 172991, Note_on_c, 0, 74, 0
2, 172992, Note_on_c, 0, 64, 102
2, 172992, Note_on_c, 0, 43, 102
2, 173088, Note_on_c, 0, 74, 102
2, 173088, Note_on_c, 0, 52, 102
2, 173102, Note_on_c, 0, 43, 0
2, 173112, Note_on_c, 0, 64, 0
2, 173183, Note_on_c, 0, 74, 0
2, 173183, Note_on_c, 0, 52, 0
2, 173184, Note_on_c, 0, 73, 102
2, 173184, Note_on_c, 0, 45, 102
2, 173279, Note_on_c, 0, 73, 0
2, 173280, Note_on_c, 0, 71, 102
2, 173354, Note_on_c, 0, 45, 0
2, 173375, Note_on_c, 0, 71, 0
2, 173376, Note_on_c, 0, 69, 102
2, 173376, Note_on_c, 0, 49, 102
2, 173471, Note_on_c, 0, 69, 0
2, 173472, Note_on_c, 0, 67, 102
2, 173546, Note_on_c, 0, 49, 0
2, 173567, Note_on_c, 0, 67, 0
2, 173568, Note_on_c, 0, 66, 102
2, 173568, Note_on_c, 0, 50, 102
2, 173663, Note_on_c, 0, 66, 0
2, 173664, Note_on_c, 0, 64, 102
2, 173759, Note_on_c, 0, 64, 0
2, 173759, Note_on_c, 0, 50, 0
2, 173760, Note_on_c, 0, 62, 102
2, 173760, Note_on_c, 0, 38, 102
2, 173855, Note_on_c, 0, 62, 0
2, 173856, Note_on_c, 0, 64, 102
2, 173930, Note_on_c, 0, 38, 0
2, 173951, Note_on_c, 0, 64, 0
2, 173952, Note_on_c, 0, 66, 102
2, 173952, Note_on_c, 0, 43, 102
2, 174047, Note_on_c, 0, 66, 0
2, 174048, Note_on_c, 0, 67, 102
2, 174122, Note_on_c, 0, 43, 0
2, 174143, Note_on_c, 0, 67, 0
2, 174144, Note_on_c, 0, 69, 102
2, 174144, Note_on_c, 0, 42, 102
2, 174239, Note_on_c, 0, 69, 0
2, 174240, Note_on_c, 0, 62, 102
2, 174335, Note_on_c, 0, 62, 0
2, 174336, Note_on_c, 0, 66, 102
2, 174431, Note_on_c, 0, 66, 0
2, 174432, Note_on_c, 0, 69, 102
2, 174514, Note_on_c, 0, 42, 0
2, 174527, Note_on_c, 0, 69, 0
2, 174528, Note_on_c, 0, 74, 102
2, 174528, Note_on_c, 0, 47, 102
2, 174623, Note_on_c, 0, 47, 0
2, 174624, Note_on_c, 0, 49, 102
2, 174671, Note_on_c, 0, 49, 0
2, 174672, Note_on_c, 0, 50, 102
2, 174719, Note_on_c, 0, 50, 0
2, 174720, Note_on_c, 0, 44, 102
2, 174815, Note_on_c, 0, 74, 0
2, 174816, Note_on_c, 0, 71, 102
2, 174911, Note_on_c, 0, 71, 0
2, 174912, Note_on_c, 0, 68, 102
2, 175007, Note_on_c, 0, 68, 0
2, 175008, Note_on_c, 0, 64, 102
2, 175090, Note_on_c, 0, 44, 0
2, 175103, Note_on_c, 0, 64, 0
2, 175104, Note_on_c, 0, 73, 102
2, 175104, Note_on_c, 0, 52, 102
2, 175199, Note_on_c, 0, 73, 0
2, 175200, Note_on_c, 0, 69, 102
2, 175295, Note_on_c, 0, 69, 0
2, 175295, Note_on_c, 0, 52, 0
2, 175296, Note_on_c, 0, 78, 102
2, 175296, Note_on_c, 0, 50, 102
2, 175391, Note_on_c, 0, 78, 0
2, 175392, Note_on_c, 0, 74, 102
2, 175487, Note_on_c, 0, 74, 0
2, 175487, Note_on_c, 0, 50, 0
2, 175488, Note_on_c, 0, 81, 102
2, 175488, Note_on_c, 0, 52, 102
2, 175551, Note_on_c, 0, 81, 0
2, 175552, Note_on_c, 0, 80, 102
2, 175583, Note_on_c, 0, 52, 0
2, 175584, Note_on_c, 0, 50, 102
2, 175615, Note_on_c, 0, 80, 0
2, 175616, Note_on_c, 0, 81, 102
2, 175679, Note_on_c, 0, 81, 0
2, 175679, Note_on_c, 0, 50, 0
2, 175680, Note_on_c, 0, 80, 102
2, 175680, Note_on_c, 0, 49, 102
2, 175743, Note_on_c, 0, 80, 0
2, 175744, Note_on_c, 0, 78, 102
2, 175775, Note_on_c, 0, 49, 0
2, 175776, Note_on_c, 0, 47, 102
2, 175807, Note_on_c, 0, 78, 0
2, 175808, Note_on_c, 0, 80, 102
2, 175871, Note_on_c, 0, 80, 0
2, 175871, Note_on_c, 0, 47, 0
2, 175872, Note_on_c, 0, 81, 102
2, 175872, Note_on_c, 0, 49, 102
2, 175967, Note_on_c, 0, 49, 0
2, 175968, Note_on_c, 0, 47, 102
2, 176063, Note_on_c, 0, 47, 0
2, 176064, Note_on_c, 0, 69, 102
2, 176064, Note_on_c, 0, 45, 102
2, 176159, Note_on_c, 0, 45, 0
2, 176160, Note_on_c, 0, 47, 102
2, 176252, Note_on_c, 0, 81, 0
2, 176255, Note_on_c, 0, 47, 0
2, 176255, Note_on_c, 0, 69, 0
2, 176256, Note_on_c, 0, 81, 102
2, 176256, Note_on_c, 0, 49, 102
2, 176351, Note_on_c, 0, 49, 0
2, 176352, Note_on_c, 0, 45, 102
2, 176447, Note_on_c, 0, 45, 0
2, 176448, Note_on_c, 0, 71, 102
2, 176448, Note_on_c, 0, 50, 102
2, 176543, Note_on_c, 0, 50, 0
2, 176544, Note_on_c, 0, 47, 102
2, 176636, Note_on_c, 0, 81, 0
2, 176639, Note_on_c, 0, 47, 0
2, 176640, Note_on_c, 0, 81, 102
2, 176640, Note_on_c, 0, 42, 102
2, 176728, Note_on_c, 0, 71, 0
2, 176735, Note_on_c, 0, 42, 0
2, 176735, Note_on_c, 0, 81, 0
2, 176736, Note_on_c, 0, 80, 102
2, 176736, Note_on_c, 0, 38, 102
2, 176831, Note_on_c, 0, 38, 0
2, 176831, Note_on_c, 0, 80, 0
2, 176832, Note_on_c, 0, 81, 102
2, 176832, Note_on_c, 0, 50, 102
2, 176927, Note_on_c, 0, 50, 0
2, 176927, Note_on_c, 0, 81, 0
2, 176928, Note_on_c, 0, 83, 102
2, 176928, Note_on_c, 0, 47, 102
2, 177023, Note_on_c, 0, 47, 0
2, 177023, Note_on_c, 0, 83, 0
2, 177024, Note_on_c, 0, 80, 102
2, 177024, Note_on_c, 0, 52, 102
2, 177119, Note_on_c, 0, 52, 0
2, 177120, Note_on_c, 0, 47, 102
2, 177215, Note_on_c, 0, 47, 0
2, 177216, Note_on_c, 0, 44, 102
2, 177311, Note_on_c, 0, 44, 0
2, 177312, Note_on_c, 0, 40, 102
2, 177407, Note_on_c, 0, 40, 0
2, 177408, Note_on_c, 0, 50, 102
2, 177503, Note_on_c, 0, 50, 0
2, 177504, Note_on_c, 0, 47, 102
2, 177599, Note_on_c, 0, 47, 0
2, 177599, Note_on_c, 0, 80, 0
2, 177600, Note_on_c, 0, 49, 102
2, 177695, Note_on_c, 0, 49, 0
2, 177696, Note_on_c, 0, 45, 102
2, 177791, Note_on_c, 0, 45, 0
2, 177792, Note_on_c, 0, 69, 102
2, 177792, Note_on_c, 0, 49, 102
2, 177887, Note_on_c, 0, 49, 0
2, 177887, Note_on_c, 0, 69, 0
2, 177888, Note_on_c, 0, 80, 102
2, 177888, Note_on_c, 0, 52, 102
2, 177983, Note_on_c, 0, 52, 0
2, 177983, Note_on_c, 0, 80, 0
2, 177984, Note_on_c, 0, 81, 102
2, 177984, Note_on_c, 0, 57, 102
2, 178079, Note_on_c, 0, 57, 0
2, 178079, Note_on_c, 0, 81, 0
2, 178080, Note_on_c, 0, 80, 102
2, 178080, Note_on_c, 0, 49, 102
2, 178175, Note_on_c, 0, 49, 0
2, 178175, Note_on_c, 0, 80, 0
2, 178176, Note_on_c, 0, 78, 102
2, 178176, Note_on_c, 0, 50, 102
2, 178271, Note_on_c, 0, 50, 0
2, 178271, Note_on_c, 0, 78, 0
2, 178272, Note_on_c, 0, 77, 102
2, 178272, Note_on_c, 0, 45, 102
2, 178367, Note_on_c, 0, 45, 0
2, 178367, Note_on_c, 0, 77, 0
2, 178368, Note_on_c, 0, 78, 102
2, 178368, Note_on_c, 0, 50, 102
2, 178463, Note_on_c, 0, 50, 0
2, 178464, Note_on_c, 0, 54, 102
2, 178559, Note_on_c, 0, 54, 0
2, 178560, Note_on_c, 0, 57, 102
2, 178655, Note_on_c, 0, 57, 0
2, 178656, Note_on_c, 0, 54, 102
2, 178751, Note_on_c, 0, 54, 0
2, 178752, Note_on_c, 0, 59, 102
2, 178808, Note_on_c, 0, 78, 0
2, 178847, Note_on_c, 0, 59, 0
2, 178848, Note_on_c, 0, 81, 102
2, 178848, Note_on_c, 0, 57, 102
2, 178943, Note_on_c, 0, 57, 0
2, 178943, Note_on_c, 0, 81, 0
2, 178944, Note_on_c, 0, 80, 102
2, 178944, Note_on_c, 0, 59, 102
2, 179039, Note_on_c, 0, 59, 0
2, 179039, Note_on_c, 0, 80, 0
2, 179040, Note_on_c, 0, 78, 102
2, 179040, Note_on_c, 0, 61, 102
2, 179135, Note_on_c, 0, 61, 0
2, 179135, Note_on_c, 0, 78, 0
2, 179136, Note_on_c, 0, 77, 102
2, 179136, Note_on_c, 0, 62, 102
2, 179231, Note_on_c, 0, 62, 0
2, 179231, Note_on_c, 0, 77, 0
2, 179232, Note_on_c, 0, 78, 102
2, 179232, Note_on_c, 0, 59, 102
2, 179327, Note_on_c, 0, 59, 0
2, 179327, Note_on_c, 0, 78, 0
2, 179328, Note_on_c, 0, 77, 102
2, 179328, Note_on_c, 0, 61, 102
2, 179423, Note_on_c, 0, 61, 0
2, 179424, Note_on_c, 0, 80, 102
2, 179424, Note_on_c, 0, 59, 102
2, 179448, Note_on_c, 0, 77, 0
2, 179519, Note_on_c, 0, 59, 0
2, 179519, Note_on_c, 0, 80, 0
2, 179520, Note_on_c, 0, 73, 102
2, 179520, Note_on_c, 0, 57, 102
2, 179615, Note_on_c, 0, 57, 0
2, 179615, Note_on_c, 0, 73, 0
2, 179616, Note_on_c, 0, 71, 102
2, 179616, Note_on_c, 0, 61, 102
2, 179711, Note_on_c, 0, 61, 0
2, 179711, Note_on_c, 0, 71, 0
2, 179712, Note_on_c, 0, 69, 102
2, 179712, Note_on_c, 0, 54, 102
2, 179807, Note_on_c, 0, 54, 0
2, 179808, Note_on_c, 0, 78, 102
2, 179808, Note_on_c, 0, 57, 102
2, 179832, Note_on_c, 0, 69, 0
2, 179903, Note_on_c, 0, 57, 0
2, 179903, Note_on_c, 0, 78, 0
2, 179904, Note_on_c, 0, 74, 102
2, 179904, Note_on_c, 0, 59, 102
2, 179999, Note_on_c, 0, 59, 0
2, 180000, Note_on_c, 0, 54, 102
2, 180095, Note_on_c, 0, 54, 0
2, 180095, Note_on_c, 0, 74, 0
2, 180096, Note_on_c, 0, 73, 102
2, 180096, Note_on_c, 0, 57, 102
2, 180191, Note_on_c, 0, 57, 0
2, 180192, Note_on_c, 0, 54, 102
2, 180236, Note_on_c, 0, 73, 0
2, 180287, Note_on_c, 0, 54, 0
2, 180288, Note_on_c, 0, 71, 102
2, 180288, Note_on_c, 0, 56, 102
2, 180383, Note_on_c, 0, 56, 0
2, 180384, Note_on_c, 0, 54, 102
2, 180428, Note_on_c, 0, 71, 0
2, 180479, Note_on_c, 0, 54, 0
2, 180480, Note_on_c, 0, 69, 102
2, 180480, Note_on_c, 0, 61, 102
2, 180575, Note_on_c, 0, 61, 0
2, 180576, Note_on_c, 0, 54, 102
2, 180671, Note_on_c, 0, 54, 0
2, 180671, Note_on_c, 0, 69, 0
2, 180672, Note_on_c, 0, 68, 102
2, 180672, Note_on_c, 0, 59, 102
2, 180767, Note_on_c, 0, 59, 0
2, 180768, Note_on_c, 0, 54, 102
2, 180812, Note_on_c, 0, 68, 0
2, 180863, Note_on_c, 0, 54, 0
2, 180864, Note_on_c, 0, 66, 102
2, 180864, Note_on_c, 0, 57, 102
2, 180959, Note_on_c, 0, 57, 0
2, 180960, Note_on_c, 0, 54, 102
2, 181004, Note_on_c, 0, 66, 0
2, 181055, Note_on_c, 0, 54, 0
2, 181056, Note_on_c, 0, 71, 102
2, 181056, Note_on_c, 0, 62, 102
2, 181151, Note_on_c, 0, 71, 0
2, 181152, Note_on_c, 0, 78, 102
2, 181247, Note_on_c, 0, 78, 0
2, 181247, Note_on_c, 0, 62, 0
2, 181248, Note_on_c, 0, 69, 102
2, 181248, Note_on_c, 0, 61, 102
2, 181343, Note_on_c, 0, 69, 0
2, 181344, Note_on_c, 0, 78, 102
2, 181418, Note_on_c, 0, 61, 0
2, 181439, Note_on_c, 0, 78, 0
2, 181440, Note_on_c, 0, 68, 102
2, 181440, Note_on_c, 0, 59, 102
2, 181535, Note_on_c, 0, 68, 0
2, 181536, Note_on_c, 0, 78, 102
2, 181610, Note_on_c, 0, 59, 0
2, 181631, Note_on_c, 0, 78, 0
2, 181632, Note_on_c, 0, 73, 102
2, 181632, Note_on_c, 0, 57, 102
2, 181727, Note_on_c, 0, 73, 0
2, 181728, Note_on_c, 0, 78, 102
2, 181823, Note_on_c, 0, 78, 0
2, 181823, Note_on_c, 0, 57, 0
2, 181824, Note_on_c, 0, 71, 102
2, 181824, Note_on_c, 0, 56, 102
2, 181919, Note_on_c, 0, 71, 0
2, 181920, Note_on_c, 0, 78, 102
2, 181994, Note_on_c, 0, 56, 0
2, 182015, Note_on_c, 0, 78, 0
2, 182016, Note_on_c, 0, 69, 102
2, 182016, Note_on_c, 0, 54, 102
2, 182111, Note_on_c, 0, 69, 0
2, 182112, Note_on_c, 0, 78, 102
2, 182186, Note_on_c, 0, 54, 0
2, 182207, Note_on_c, 0, 78, 0
2, 182208, Note_on_c, 0, 83, 102
2, 182208, Note_on_c, 0, 56, 102
2, 182303, Note_on_c, 0, 56, 0
2, 182303, Note_on_c, 0, 83, 0
2, 182304, Note_on_c, 0, 81, 102
2, 182304, Note_on_c, 0, 54, 102
2, 182399, Note_on_c, 0, 54, 0
2, 182399, Note_on_c, 0, 81, 0
2, 182400, Note_on_c, 0, 80, 102
2, 182400, Note_on_c, 0, 53, 102
2, 182496, Note_on_c, 0, 83, 102
2, 182496, Note_on_c, 0, 56, 102
2, 182510, Note_on_c, 0, 53, 0
2, 182520, Note_on_c, 0, 80, 0
2, 182591, Note_on_c, 0, 83, 0
2, 182591, Note_on_c, 0, 56, 0
2, 182592, Note_on_c, 0, 78, 102
2, 182592, Note_on_c, 0, 50, 102
2, 182688, Note_on_c, 0, 83, 102
2, 182688, Note_on_c, 0, 56, 102
2, 182702, Note_on_c, 0, 50, 0
2, 182712, Note_on_c, 0, 78, 0
2, 182783, Note_on_c, 0, 83, 0
2, 182783, Note_on_c, 0, 56, 0
2, 182784, Note_on_c, 0, 77, 102
2, 182784, Note_on_c, 0, 49, 102
2, 182880, Note_on_c, 0, 83, 102
2, 182880, Note_on_c, 0, 56, 102
2, 182894, Note_on_c, 0, 49, 0
2, 182904, Note_on_c, 0, 77, 0
2, 182975, Note_on_c, 0, 83, 0
2, 182975, Note_on_c, 0, 56, 0
2, 182976, Note_on_c, 0, 74, 102
2, 182976, Note_on_c, 0, 47, 102
2, 183072, Note_on_c, 0, 83, 102
2, 183072, Note_on_c, 0, 56, 102
2, 183086, Note_on_c, 0, 47, 0
2, 183096, Note_on_c, 0, 74, 0
2, 183167, Note_on_c, 0, 83, 0
2, 183167, Note_on_c, 0, 56, 0
2, 183168, Note_on_c, 0, 73, 102
2, 183168, Note_on_c, 0, 45, 102
2, 183264, Note_on_c, 0, 81, 102
2, 183264, Note_on_c, 0, 54, 102
2, 183278, Note_on_c, 0, 45, 0
2, 183288, Note_on_c, 0, 73, 0
2, 183359, Note_on_c, 0, 81, 0
2, 183359, Note_on_c, 0, 54, 0
2, 183360, Note_on_c, 0, 71, 102
2, 183360, Note_on_c, 0, 50, 102
2, 183455, Note_on_c, 0, 50, 0
2, 183456, Note_on_c, 0, 80, 102
2, 183456, Note_on_c, 0, 47, 102
2, 183480, Note_on_c, 0, 71, 0
2, 183551, Note_on_c, 0, 47, 0
2, 183551, Note_on_c, 0, 80, 0
2, 183552, Note_on_c, 0, 73, 102
2, 183552, Note_on_c, 0, 49, 102
2, 183722, Note_on_c, 0, 49, 0
2, 183743, Note_on_c, 0, 73, 0
2, 183744, Note_on_c, 0, 77, 102
2, 183744, Note_on_c, 0, 37, 102
2, 183884, Note_on_c, 0, 77, 0
2, 183914, Note_on_c, 0, 37, 0
2, 183936, Note_on_c, 0, 78, 102
2, 183936, Note_on_c, 0, 42, 102
2, 184316, Note_on_c, 0, 42, 0
2, 184319, Note_on_c, 0, 78, 0
2, 184320, Note_on_c, 0, 73, 102
2, 184460, Note_on_c, 0, 73, 0
2, 184512, Note_on_c, 0, 71, 102
2, 184607, Note_on_c, 0, 71, 0
2, 184608, Note_on_c, 0, 70, 102
2, 184703, Note_on_c, 0, 70, 0
2, 184704, Note_on_c, 0, 68, 102
2, 184799, Note_on_c, 0, 68, 0
2, 184800, Note_on_c, 0, 66, 102
2, 184895, Note_on_c, 0, 66, 0
2, 184896, Note_on_c, 0, 78, 102
2, 184896, Note_on_c, 0, 54, 102
2, 184991, Note_on_c, 0, 78, 0
2, 184992, Note_on_c, 0, 70, 102
2, 185066, Note_on_c, 0, 54, 0
2, 185087, Note_on_c, 0, 70, 0
2, 185088, Note_on_c, 0, 71, 102
2, 185088, Note_on_c, 0, 52, 102
2, 185183, Note_on_c, 0, 52, 0
2, 185183, Note_on_c, 0, 71, 0
2, 185184, Note_on_c, 0, 73, 102
2, 185184, Note_on_c, 0, 50, 102
2, 185279, Note_on_c, 0, 50, 0
2, 185279, Note_on_c, 0, 73, 0
2, 185280, Note_on_c, 0, 74, 102
2, 185280, Note_on_c, 0, 49, 102
2, 185375, Note_on_c, 0, 49, 0
2, 185376, Note_on_c, 0, 47, 102
2, 185471, Note_on_c, 0, 47, 0
2, 185472, Note_on_c, 0, 59, 102
2, 185567, Note_on_c, 0, 59, 0
2, 185568, Note_on_c, 0, 50, 102
2, 185660, Note_on_c, 0, 74, 0
2, 185663, Note_on_c, 0, 50, 0
2, 185664, Note_on_c, 0, 52, 102
2, 185759, Note_on_c, 0, 52, 0
2, 185760, Note_on_c, 0, 73, 102
2, 185760, Note_on_c, 0, 54, 102
2, 185855, Note_on_c, 0, 54, 0
2, 185855, Note_on_c, 0, 73, 0
2, 185856, Note_on_c, 0, 71, 102
2, 185856, Note_on_c, 0, 56, 102
2, 185951, Note_on_c, 0, 71, 0
2, 185952, Note_on_c, 0, 69, 102
2, 186047, Note_on_c, 0, 69, 0
2, 186048, Note_on_c, 0, 76, 102
2, 186143, Note_on_c, 0, 76, 0
2, 186144, Note_on_c, 0, 71, 102
2, 186176, Note_on_c, 0, 56, 0
2, 186239, Note_on_c, 0, 71, 0
2, 186240, Note_on_c, 0, 73, 102
2, 186240, Note_on_c, 0, 57, 102
2, 186335, Note_on_c, 0, 57, 0
2, 186336, Note_on_c, 0, 55, 102
2, 186431, Note_on_c, 0, 55, 0
2, 186431, Note_on_c, 0, 73, 0
2, 186432, Note_on_c, 0, 69, 102
2, 186432, Note_on_c, 0, 54, 102
2, 186527, Note_on_c, 0, 54, 0
2, 186528, Note_on_c, 0, 52, 102
2, 186572, Note_on_c, 0, 69, 0
2, 186623, Note_on_c, 0, 52, 0
2, 186624, Note_on_c, 0, 73, 102
2, 186624, Note_on_c, 0, 57, 102
2, 186719, Note_on_c, 0, 57, 0
2, 186720, Note_on_c, 0, 52, 102
2, 186764, Note_on_c, 0, 73, 0
2, 186815, Note_on_c, 0, 52, 0
2, 186816, Note_on_c, 0, 74, 102
2, 186816, Note_on_c, 0, 54, 102
2, 186911, Note_on_c, 0, 54, 0
2, 186912, Note_on_c, 0, 69, 102
2, 186912, Note_on_c, 0, 50, 102
2, 187006, Note_on_c, 0, 74, 0
2, 187007, Note_on_c, 0, 50, 0
2, 187007, Note_on_c, 0, 69, 0
2, 187008, Note_on_c, 0, 66, 102
2, 187008, Note_on_c, 0, 54, 102
2, 187103, Note_on_c, 0, 54, 0
2, 187103, Note_on_c, 0, 66, 0
2, 187104, Note_on_c, 0, 62, 102
2, 187104, Note_on_c, 0, 57, 102
2, 187199, Note_on_c, 0, 57, 0
2, 187199, Note_on_c, 0, 62, 0
2, 187200, Note_on_c, 0, 69, 102
2, 187200, Note_on_c, 0, 62, 102
2, 187295, Note_on_c, 0, 62, 0
2, 187295, Note_on_c, 0, 69, 0
2, 187296, Note_on_c, 0, 66, 102
2, 187296, Note_on_c, 0, 57, 102
2, 187391, Note_on_c, 0, 57, 0
2, 187391, Note_on_c, 0, 66, 0
2, 187392, Note_on_c, 0, 71, 102
2, 187392, Note_on_c, 0, 55, 102
2, 187487, Note_on_c, 0, 55, 0
2, 187487, Note_on_c, 0, 71, 0
2, 187488, Note_on_c, 0, 67, 102
2, 187488, Note_on_c, 0, 50, 102
2, 187583, Note_on_c, 0, 50, 0
2, 187583, Note_on_c, 0, 67, 0
2, 187584, Note_on_c, 0, 74, 102
2, 187584, Note_on_c, 0, 55, 102
2, 187679, Note_on_c, 0, 55, 0
2, 187679, Note_on_c, 0, 74, 0
2, 187680, Note_on_c, 0, 71, 102
2, 187680, Note_on_c, 0, 59, 102
2, 187775, Note_on_c, 0, 59, 0
2, 187775, Note_on_c, 0, 71, 0
2, 187776, Note_on_c, 0, 79, 102
2, 187776, Note_on_c, 0, 62, 102
2, 187871, Note_on_c, 0, 62, 0
2, 187871, Note_on_c, 0, 79, 0
2, 187872, Note_on_c, 0, 74, 102
2, 187872, Note_on_c, 0, 59, 102
2, 187967, Note_on_c, 0, 59, 0
2, 187967, Note_on_c, 0, 74, 0
2, 187968, Note_on_c, 0, 76, 102
2, 187968, Note_on_c, 0, 56, 102
2, 188063, Note_on_c, 0, 56, 0
2, 188064, Note_on_c, 0, 71, 102
2, 188064, Note_on_c, 0, 52, 102
2, 188158, Note_on_c, 0, 76, 0
2, 188159, Note_on_c, 0, 52, 0
2, 188159, Note_on_c, 0, 71, 0
2, 188160, Note_on_c, 0, 68, 102
2, 188160, Note_on_c, 0, 56, 102
2, 188255, Note_on_c, 0, 56, 0
2, 188255, Note_on_c, 0, 68, 0
2, 188256, Note_on_c, 0, 64, 102
2, 188256, Note_on_c, 0, 59, 102
2, 188351, Note_on_c, 0, 59, 0
2, 188351, Note_on_c, 0, 64, 0
2, 188352, Note_on_c, 0, 71, 102
2, 188352, Note_on_c, 0, 64, 102
2, 188447, Note_on_c, 0, 64, 0
2, 188447, Note_on_c, 0, 71, 0
2, 188448, Note_on_c, 0, 68, 102
2, 188448, Note_on_c, 0, 59, 102
2, 188543, Note_on_c, 0, 59, 0
2, 188543, Note_on_c, 0, 68, 0
2, 188544, Note_on_c, 0, 73, 102
2, 188544, Note_on_c, 0, 57, 102
2, 188639, Note_on_c, 0, 57, 0
2, 188639, Note_on_c, 0, 73, 0
2, 188640, Note_on_c, 0, 69, 102
2, 188640, Note_on_c, 0, 52, 102
2, 188735, Note_on_c, 0, 52, 0
2, 188735, Note_on_c, 0, 69, 0
2, 188736, Note_on_c, 0, 76, 102
2, 188736, Note_on_c, 0, 57, 102
2, 188831, Note_on_c, 0, 57, 0
2, 188831, Note_on_c, 0, 76, 0
2, 188832, Note_on_c, 0, 73, 102
2, 188832, Note_on_c, 0, 61, 102
2, 188927, Note_on_c, 0, 61, 0
2, 188927, Note_on_c, 0, 73, 0
2, 188928, Note_on_c, 0, 81, 102
2, 188928, Note_on_c, 0, 64, 102
2, 189023, Note_on_c, 0, 64, 0
2, 189023, Note_on_c, 0, 81, 0
2, 189024, Note_on_c, 0, 76, 102
2, 189024, Note_on_c, 0, 61, 102
2, 189119, Note_on_c, 0, 61, 0
2, 189119, Note_on_c, 0, 76, 0
2, 189120, Note_on_c, 0, 78, 102
2, 189120, Note_on_c, 0, 58, 102
2, 189215, Note_on_c, 0, 58, 0
2, 189216, Note_on_c, 0, 73, 102
2, 189216, Note_on_c, 0, 54, 102
2, 189310, Note_on_c, 0, 78, 0
2, 189311, Note_on_c, 0, 54, 0
2, 189311, Note_on_c, 0, 73, 0
2, 189312, Note_on_c, 0, 70, 102
2, 189312, Note_on_c, 0, 58, 102
2, 189407, Note_on_c, 0, 58, 0
2, 189407, Note_on_c, 0, 70, 0
2, 189408, Note_on_c, 0, 66, 102
2, 189408, Note_on_c, 0, 61, 102
2, 189503, Note_on_c, 0, 61, 0
2, 189503, Note_on_c, 0, 66, 0
2, 189504, Note_on_c, 0, 73, 102
2, 189504, Note_on_c, 0, 66, 102
2, 189599, Note_on_c, 0, 66, 0
2, 189599, Note_on_c, 0, 73, 0
2, 189600, Note_on_c, 0, 70, 102
2, 189600, Note_on_c, 0, 61, 102
2, 189695, Note_on_c, 0, 61, 0
2, 189695, Note_on_c, 0, 70, 0
2, 189696, Note_on_c, 0, 74, 102
2, 189696, Note_on_c, 0, 59, 102
2, 189791, Note_on_c, 0, 59, 0
2, 189791, Note_on_c, 0, 74, 0
2, 189792, Note_on_c, 0, 71, 102
2, 189792, Note_on_c, 0, 62, 102
2, 189887, Note_on_c, 0, 62, 0
2, 189887, Note_on_c, 0, 71, 0
2, 189888, Note_on_c, 0, 78, 102
2, 189888, Note_on_c, 0, 61, 102
2, 189983, Note_on_c, 0, 61, 0
2, 189983, Note_on_c, 0, 78, 0
2, 189984, Note_on_c, 0, 74, 102
2, 189984, Note_on_c, 0, 59, 102
2, 190079, Note_on_c, 0, 59, 0
2, 190079, Note_on_c, 0, 74, 0
2, 190080, Note_on_c, 0, 83, 102
2, 190080, Note_on_c, 0, 57, 102
2, 190175, Note_on_c, 0, 57, 0
2, 190175, Note_on_c, 0, 83, 0
2, 190176, Note_on_c, 0, 75, 102
2, 190176, Note_on_c, 0, 55, 102
2, 190271, Note_on_c, 0, 55, 0
2, 190271, Note_on_c, 0, 75, 0
2, 190272, Note_on_c, 0, 81, 102
2, 190272, Note_on_c, 0, 60, 102
2, 190368, Note_on_c, 0, 76, 102
2, 190382, Note_on_c, 0, 81, 0
2, 190463, Note_on_c, 0, 76, 0
2, 190463, Note_on_c, 0, 60, 0
2, 190464, Note_on_c, 0, 79, 102
2, 190464, Note_on_c, 0, 59, 102
2, 190560, Note_on_c, 0, 76, 102
2, 190574, Note_on_c, 0, 79, 0
2, 190634, Note_on_c, 0, 59, 0
2, 190655, Note_on_c, 0, 76, 0
2, 190656, Note_on_c, 0, 78, 102
2, 190656, Note_on_c, 0, 57, 102
2, 190751, Note_on_c, 0, 78, 0
2, 190752, Note_on_c, 0, 76, 102
2, 190826, Note_on_c, 0, 57, 0
2, 190847, Note_on_c, 0, 76, 0
2, 190848, Note_on_c, 0, 83, 102
2, 190848, Note_on_c, 0, 55, 102
2, 190944, Note_on_c, 0, 76, 102
2, 190958, Note_on_c, 0, 83, 0
2, 191039, Note_on_c, 0, 76, 0
2, 191039, Note_on_c, 0, 55, 0
2, 191040, Note_on_c, 0, 81, 102
2, 191040, Note_on_c, 0, 54, 102
2, 191136, Note_on_c, 0, 76, 102
2, 191150, Note_on_c, 0, 81, 0
2, 191210, Note_on_c, 0, 54, 0
2, 191231, Note_on_c, 0, 76, 0
2, 191232, Note_on_c, 0, 79, 102
2, 191232, Note_on_c, 0, 52, 102
2, 191327, Note_on_c, 0, 79, 0
2, 191328, Note_on_c, 0, 76, 102
2, 191402, Note_on_c, 0, 52, 0
2, 191423, Note_on_c, 0, 76, 0
2, 191424, Note_on_c, 0, 84, 102
2, 191424, Note_on_c, 0, 57, 102
2, 191520, Note_on_c, 0, 64, 102
2, 191534, Note_on_c, 0, 57, 0
2, 191615, Note_on_c, 0, 64, 0
2, 191615, Note_on_c, 0, 84, 0
2, 191616, Note_on_c, 0, 83, 102
2, 191616, Note_on_c, 0, 55, 102
2, 191712, Note_on_c, 0, 64, 102
2, 191726, Note_on_c, 0, 55, 0
2, 191756, Note_on_c, 0, 83, 0
2, 191807, Note_on_c, 0, 64, 0
2, 191808, Note_on_c, 0, 81, 102
2, 191808, Note_on_c, 0, 54, 102
2, 191903, Note_on_c, 0, 54, 0
2, 191903, Note_on_c, 0, 81, 0
2, 191904, Note_on_c, 0, 64, 102
2, 191999, Note_on_c, 0, 64, 0
2, 192000, Note_on_c, 0, 79, 102
2, 192000, Note_on_c, 0, 59, 102
2, 192096, Note_on_c, 0, 64, 102
2, 192110, Note_on_c, 0, 59, 0
2, 192191, Note_on_c, 0, 64, 0
2, 192191, Note_on_c, 0, 79, 0
2, 192192, Note_on_c, 0, 78, 102
2, 192192, Note_on_c, 0, 57, 102
2, 192288, Note_on_c, 0, 64, 102
2, 192302, Note_on_c, 0, 57, 0
2, 192332, Note_on_c, 0, 78, 0
2, 192383, Note_on_c, 0, 64, 0
2, 192384, Note_on_c, 0, 76, 102
2, 192384, Note_on_c, 0, 55, 102
2, 192479, Note_on_c, 0, 55, 0
2, 192479, Note_on_c, 0, 76, 0
2, 192480, Note_on_c, 0, 64, 102
2, 192575, Note_on_c, 0, 64, 0
2, 192576, Note_on_c, 0, 78, 102
2, 192576, Note_on_c, 0, 57, 102
2, 192671, Note_on_c, 0, 57, 0
2, 192671, Note_on_c, 0, 78, 0
2, 192672, Note_on_c, 0, 76, 102
2, 192672, Note_on_c, 0, 55, 102
2, 192767, Note_on_c, 0, 55, 0
2, 192767, Note_on_c, 0, 76, 0
2, 192768, Note_on_c, 0, 75, 102
2, 192768, Note_on_c, 0, 54, 102
2, 192863, Note_on_c, 0, 54, 0
2, 192863, Note_on_c, 0, 75, 0
2, 192864, Note_on_c, 0, 78, 102
2, 192864, Note_on_c, 0, 57, 102
2, 192959, Note_on_c, 0, 57, 0
2, 192959, Note_on_c, 0, 78, 0
2, 192960, Note_on_c, 0, 72, 102
2, 192960, Note_on_c, 0, 52, 102
2, 193055, Note_on_c, 0, 52, 0
2, 193055, Note_on_c, 0, 72, 0
2, 193056, Note_on_c, 0, 78, 102
2, 193056, Note_on_c, 0, 57, 102
2, 193151, Note_on_c, 0, 57, 0
2, 193151, Note_on_c, 0, 78, 0
2, 193152, Note_on_c, 0, 71, 102
2, 193152, Note_on_c, 0, 51, 102
2, 193247, Note_on_c, 0, 51, 0
2, 193247, Note_on_c, 0, 71, 0
2, 193248, Note_on_c, 0, 78, 102
2, 193248, Note_on_c, 0, 57, 102
2, 193343, Note_on_c, 0, 57, 0
2, 193343, Note_on_c, 0, 78, 0
2, 193344, Note_on_c, 0, 69, 102
2, 193344, Note_on_c, 0, 48, 102
2, 193439, Note_on_c, 0, 48, 0
2, 193439, Note_on_c, 0, 69, 0
2, 193440, Note_on_c, 0, 78, 102
2, 193440, Note_on_c, 0, 57, 102
2, 193535, Note_on_c, 0, 57, 0
2, 193535, Note_on_c, 0, 78, 0
2, 193536, Note_on_c, 0, 67, 102
2, 193536, Note_on_c, 0, 47, 102
2, 193631, Note_on_c, 0, 47, 0
2, 193631, Note_on_c, 0, 67, 0
2, 193632, Note_on_c, 0, 76, 102
2, 193632, Note_on_c, 0, 55, 102
2, 193727, Note_on_c, 0, 55, 0
2, 193727, Note_on_c, 0, 76, 0
2, 193728, Note_on_c, 0, 66, 102
2, 193728, Note_on_c, 0, 45, 102
2, 193823, Note_on_c, 0, 45, 0
2, 193823, Note_on_c, 0, 66, 0
2, 193824, Note_on_c, 0, 69, 102
2, 193824, Note_on_c, 0, 54, 102
2, 193919, Note_on_c, 0, 54, 0
2, 193919, Note_on_c, 0, 69, 0
2, 193920, Note_on_c, 0, 76, 102
2, 193920, Note_on_c, 0, 47, 102
2, 194015, Note_on_c, 0, 47, 0
2, 194015, Note_on_c, 0, 76, 0
2, 194016, Note_on_c, 0, 75, 102
2, 194016, Note_on_c, 0, 55, 102
2, 194111, Note_on_c, 0, 55, 0
2, 194111, Note_on_c, 0, 75, 0
2, 194112, Note_on_c, 0, 73, 102
2, 194112, Note_on_c, 0, 47, 102
2, 194207, Note_on_c, 0, 47, 0
2, 194207, Note_on_c, 0, 73, 0
2, 194208, Note_on_c, 0, 75, 102
2, 194208, Note_on_c, 0, 57, 102
2, 194303, Note_on_c, 0, 57, 0
2, 194303, Note_on_c, 0, 75, 0
2, 194304, Note_on_c, 0, 76, 102
2, 194304, Note_on_c, 0, 52, 102
2, 194399, Note_on_c, 0, 52, 0
2, 194400, Note_on_c, 0, 57, 102
2, 194495, Note_on_c, 0, 57, 0
2, 194496, Note_on_c, 0, 55, 102
2, 194584, Note_on_c, 0, 76, 0
2, 194591, Note_on_c, 0, 55, 0
2, 194592, Note_on_c, 0, 54, 102
2, 194687, Note_on_c, 0, 54, 0
2, 194688, Note_on_c, 0, 76, 102
2, 194688, Note_on_c, 0, 55, 102
2, 194783, Note_on_c, 0, 55, 0
2, 194784, Note_on_c, 0, 52, 102
2, 194828, Note_on_c, 0, 76, 0
2, 194879, Note_on_c, 0, 52, 0
2, 194880, Note_on_c, 0, 74, 102
2, 194880, Note_on_c, 0, 57, 102
2, 194975, Note_on_c, 0, 74, 0
2, 194976, Note_on_c, 0, 73, 102
2, 195071, Note_on_c, 0, 73, 0
2, 195072, Note_on_c, 0, 71, 102
2, 195072, Note_on_c, 0, 45, 102
2, 195100, Note_on_c, 0, 57, 0
2, 195167, Note_on_c, 0, 71, 0
2, 195168, Note_on_c, 0, 69, 102
2, 195242, Note_on_c, 0, 45, 0
2, 195263, Note_on_c, 0, 69, 0
2, 195264, Note_on_c, 0, 81, 102
2, 195264, Note_on_c, 0, 57, 102
2, 195359, Note_on_c, 0, 81, 0
2, 195360, Note_on_c, 0, 73, 102
2, 195434, Note_on_c, 0, 57, 0
2, 195455, Note_on_c, 0, 73, 0
2, 195456, Note_on_c, 0, 74, 102
2, 195456, Note_on_c, 0, 55, 102
2, 195551, Note_on_c, 0, 55, 0
2, 195551, Note_on_c, 0, 74, 0
2, 195552, Note_on_c, 0, 76, 102
2, 195552, Note_on_c, 0, 54, 102
2, 195647, Note_on_c, 0, 54, 0
2, 195647, Note_on_c, 0, 76, 0
2, 195648, Note_on_c, 0, 78, 102
2, 195648, Note_on_c, 0, 52, 102
2, 195743, Note_on_c, 0, 52, 0
2, 195744, Note_on_c, 0, 50, 102
2, 195839, Note_on_c, 0, 50, 0
2, 195840, Note_on_c, 0, 62, 102
2, 195935, Note_on_c, 0, 62, 0
2, 195936, Note_on_c, 0, 54, 102
2, 196028, Note_on_c, 0, 78, 0
2, 196031, Note_on_c, 0, 54, 0
2, 196032, Note_on_c, 0, 55, 102
2, 196127, Note_on_c, 0, 55, 0
2, 196128, Note_on_c, 0, 74, 102
2, 196128, Note_on_c, 0, 57, 102
2, 196223, Note_on_c, 0, 57, 0
2, 196223, Note_on_c, 0, 74, 0
2, 196224, Note_on_c, 0, 73, 102
2, 196224, Note_on_c, 0, 59, 102
2, 196319, Note_on_c, 0, 73, 0
2, 196320, Note_on_c, 0, 71, 102
2, 196415, Note_on_c, 0, 71, 0
2, 196416, Note_on_c, 0, 79, 102
2, 196511, Note_on_c, 0, 79, 0
2, 196512, Note_on_c, 0, 71, 102
2, 196607, Note_on_c, 0, 71, 0
2, 196608, Note_on_c, 0, 73, 102
2, 196664, Note_on_c, 0, 59, 0
2, 196703, Note_on_c, 0, 73, 0
2, 196704, Note_on_c, 0, 74, 102
2, 196704, Note_on_c, 0, 55, 102
2, 196799, Note_on_c, 0, 55, 0
2, 196799, Note_on_c, 0, 74, 0
2, 196800, Note_on_c, 0, 76, 102
2, 196800, Note_on_c, 0, 54, 102
2, 196895, Note_on_c, 0, 54, 0
2, 196896, Note_on_c, 0, 52, 102
2, 196991, Note_on_c, 0, 52, 0
2, 196992, Note_on_c, 0, 61, 102
2, 197087, Note_on_c, 0, 61, 0
2, 197088, Note_on_c, 0, 52, 102
2, 197183, Note_on_c, 0, 52, 0
2, 197184, Note_on_c, 0, 54, 102
2, 197200, Note_on_c, 0, 76, 0
2, 197279, Note_on_c, 0, 54, 0
2, 197280, Note_on_c, 0, 73, 102
2, 197280, Note_on_c, 0, 55, 102
2, 197375, Note_on_c, 0, 55, 0
2, 197375, Note_on_c, 0, 73, 0
2, 197376, Note_on_c, 0, 71, 102
2, 197376, Note_on_c, 0, 54, 102
2, 197471, Note_on_c, 0, 54, 0
2, 197471, Note_on_c, 0, 71, 0
2, 197472, Note_on_c, 0, 70, 102
2, 197472, Note_on_c, 0, 52, 102
2, 197567, Note_on_c, 0, 52, 0
2, 197567, Note_on_c, 0, 70, 0
2, 197568, Note_on_c, 0, 78, 102
2, 197568, Note_on_c, 0, 50, 102
2, 197663, Note_on_c, 0, 50, 0
2, 197663, Note_on_c, 0, 78, 0
2, 197664, Note_on_c, 0, 70, 102
2, 197664, Note_on_c, 0, 49, 102
2, 197759, Note_on_c, 0, 49, 0
2, 197759, Note_on_c, 0, 70, 0
2, 197760, Note_on_c, 0, 71, 102
2, 197760, Note_on_c, 0, 50, 102
2, 197855, Note_on_c, 0, 50, 0
2, 197855, Note_on_c, 0, 71, 0
2, 197856, Note_on_c, 0, 73, 102
2, 197856, Note_on_c, 0, 52, 102
2, 197951, Note_on_c, 0, 52, 0
2, 197951, Note_on_c, 0, 73, 0
2, 197952, Note_on_c, 0, 74, 102
2, 197952, Note_on_c, 0, 50, 102
2, 198047, Note_on_c, 0, 50, 0
2, 198048, Note_on_c, 0, 49, 102
2, 198143, Note_on_c, 0, 49, 0
2, 198144, Note_on_c, 0, 47, 102
2, 198239, Note_on_c, 0, 47, 0
2, 198240, Note_on_c, 0, 45, 102
2, 198335, Note_on_c, 0, 45, 0
2, 198336, Note_on_c, 0, 43, 102
2, 198372, Note_on_c, 0, 74, 0
2, 198432, Note_on_c, 0, 67, 102
2, 198527, Note_on_c, 0, 67, 0
2, 198527, Note_on_c, 0, 43, 0
2, 198528, Note_on_c, 0, 66, 102
2, 198528, Note_on_c, 0, 47, 102
2, 198623, Note_on_c, 0, 66, 0
2, 198624, Note_on_c, 0, 64, 102
2, 198698, Note_on_c, 0, 47, 0
2, 198719, Note_on_c, 0, 64, 0
2, 198720, Note_on_c, 0, 74, 102
2, 198720, Note_on_c, 0, 52, 102
2, 198815, Note_on_c, 0, 74, 0
2, 198816, Note_on_c, 0, 73, 102
2, 198890, Note_on_c, 0, 52, 0
2, 198911, Note_on_c, 0, 73, 0
2, 198912, Note_on_c, 0, 71, 102
2, 198912, Note_on_c, 0, 42, 102
2, 199007, Note_on_c, 0, 42, 0
2, 199007, Note_on_c, 0, 71, 0
2, 199008, Note_on_c, 0, 70, 102
2, 199008, Note_on_c, 0, 54, 102
2, 199103, Note_on_c, 0, 54, 0
2, 199103, Note_on_c, 0, 70, 0
2, 199104, Note_on_c, 0, 68, 102
2, 199104, Note_on_c, 0, 52, 102
2, 199199, Note_on_c, 0, 52, 0
2, 199199, Note_on_c, 0, 68, 0
2, 199200, Note_on_c, 0, 66, 102
2, 199200, Note_on_c, 0, 50, 102
2, 199295, Note_on_c, 0, 50, 0
2, 199295, Note_on_c, 0, 66, 0
2, 199296, Note_on_c, 0, 49, 102
2, 199296, Note_on_c, 0, 68, 102
2, 199393, Note_on_c, 0, 68, 0
2, 199393, Note_on_c, 0, 49, 0
2, 199394, Note_on_c, 0, 47, 102
2, 199394, Note_on_c, 0, 70, 102
2, 199491, Note_on_c, 0, 70, 0
2, 199491, Note_on_c, 0, 47, 0
2, 199493, Note_on_c, 0, 55, 102
2, 199493, Note_on_c, 0, 71, 102
2, 199590, Note_on_c, 0, 71, 0
2, 199592, Note_on_c, 0, 76, 102
2, 199689, Note_on_c, 0, 76, 0
2, 199689, Note_on_c, 0, 55, 0
2, 199691, Note_on_c, 0, 54, 102
2, 199691, Note_on_c, 0, 71, 102
2, 199788, Note_on_c, 0, 71, 0
2, 199790, Note_on_c, 0, 74, 102
2, 199866, Note_on_c, 0, 54, 0
2, 199887, Note_on_c, 0, 74, 0
2, 199889, Note_on_c, 0, 52, 102
2, 199889, Note_on_c, 0, 71, 102
2, 199986, Note_on_c, 0, 71, 0
2, 199988, Note_on_c, 0, 73, 102
2, 200064, Note_on_c, 0, 52, 0
2, 200085, Note_on_c, 0, 73, 0
2, 200087, Note_on_c, 0, 50, 102
2, 200087, Note_on_c, 0, 71, 102
2, 200184, Note_on_c, 0, 71, 0
2, 200185, Note_on_c, 0, 78, 102
2, 200282, Note_on_c, 0, 78, 0
2, 200283, Note_on_c, 0, 50, 0
2, 200284, Note_on_c, 0, 49, 102
2, 200284, Note_on_c, 0, 71, 102
2, 200381, Note_on_c, 0, 71, 0
2, 200383, Note_on_c, 0, 76, 102
2, 200459, Note_on_c, 0, 49, 0
2, 200480, Note_on_c, 0, 76, 0
2, 200482, Note_on_c, 0, 71, 102
2, 200482, Note_on_c, 0, 47, 102
2, 200581, Note_on_c, 0, 71, 0
2, 200583, Note_on_c, 0, 74, 102
2, 200662, Note_on_c, 0, 47, 0
2, 200682, Note_on_c, 0, 74, 0
2, 200685, Note_on_c, 0, 79, 102
2, 200685, Note_on_c, 0, 52, 102
2, 200784, Note_on_c, 0, 52, 0
2, 200787, Note_on_c, 0, 59, 102
2, 200886, Note_on_c, 0, 59, 0
2, 200886, Note_on_c, 0, 79, 0
2, 200889, Note_on_c, 0, 78, 102
2, 200889, Note_on_c, 0, 50, 102
2, 200988, Note_on_c, 0, 50, 0
2, 200991, Note_on_c, 0, 59, 102
2, 201037, Note_on_c, 0, 78, 0
2, 201090, Note_on_c, 0, 59, 0
2, 201093, Note_on_c, 0, 76, 102
2, 201093, Note_on_c, 0, 49, 102
2, 201192, Note_on_c, 0, 49, 0
2, 201195, Note_on_c, 0, 59, 102
2, 201241, Note_on_c, 0, 76, 0
2, 201294, Note_on_c, 0, 59, 0
2, 201297, Note_on_c, 0, 74, 102
2, 201297, Note_on_c, 0, 54, 102
2, 201396, Note_on_c, 0, 54, 0
2, 201398, Note_on_c, 0, 59, 102
2, 201497, Note_on_c, 0, 59, 0
2, 201498, Note_on_c, 0, 74, 0
2, 201500, Note_on_c, 0, 73, 102
2, 201500, Note_on_c, 0, 52, 102
2, 201599, Note_on_c, 0, 52, 0
2, 201602, Note_on_c, 0, 59, 102
2, 201648, Note_on_c, 0, 73, 0
2, 201701, Note_on_c, 0, 59, 0
2, 201704, Note_on_c, 0, 71, 102
2, 201704, Note_on_c, 0, 50, 102
2, 201808, Note_on_c, 0, 50, 0
2, 201810, Note_on_c, 0, 59, 102
2, 201860, Note_on_c, 0, 71, 0
2, 201914, Note_on_c, 0, 59, 0
2, 201918, Note_on_c, 0, 76, 102
2, 201918, Note_on_c, 0, 61, 102
2, 202022, Note_on_c, 0, 61, 0
2, 202022, Note_on_c, 0, 76, 0
2, 202026, Note_on_c, 0, 74, 102
2, 202026, Note_on_c, 0, 59, 102
2, 202130, Note_on_c, 0, 59, 0
2, 202130, Note_on_c, 0, 74, 0
2, 202134, Note_on_c, 0, 73, 102
2, 202134, Note_on_c, 0, 58, 102
2, 202242, Note_on_c, 0, 76, 102
2, 202242, Note_on_c, 0, 61, 102
2, 202256, Note_on_c, 0, 58, 0
2, 202256, Note_on_c, 0, 73, 0
2, 202346, Note_on_c, 0, 76, 0
2, 202346, Note_on_c, 0, 61, 0
2, 202350, Note_on_c, 0, 71, 102
2, 202350, Note_on_c, 0, 55, 102
2, 202454, Note_on_c, 0, 55, 0
2, 202454, Note_on_c, 0, 71, 0
2, 202459, Note_on_c, 0, 76, 102
2, 202459, Note_on_c, 0, 61, 102
2, 202563, Note_on_c, 0, 61, 0
2, 202563, Note_on_c, 0, 76, 0
2, 202567, Note_on_c, 0, 70, 102
2, 202567, Note_on_c, 0, 54, 102
2, 202675, Note_on_c, 0, 76, 102
2, 202675, Note_on_c, 0, 61, 102
2, 202689, Note_on_c, 0, 54, 0
2, 202689, Note_on_c, 0, 70, 0
2, 202779, Note_on_c, 0, 76, 0
2, 202779, Note_on_c, 0, 61, 0
2, 202783, Note_on_c, 0, 67, 102
2, 202783, Note_on_c, 0, 52, 102
2, 202891, Note_on_c, 0, 76, 102
2, 202891, Note_on_c, 0, 61, 102
2, 202905, Note_on_c, 0, 52, 0
2, 202905, Note_on_c, 0, 67, 0
2, 202995, Note_on_c, 0, 76, 0
2, 202995, Note_on_c, 0, 61, 0
2, 202999, Note_on_c, 0, 50, 102
2, 202999, Note_on_c, 0, 66, 102
2, 203106, Note_on_c, 0, 66, 0
2, 203106, Note_on_c, 0, 50, 0
2, 203110, Note_on_c, 0, 59, 102
2, 203110, Note_on_c, 0, 74, 102
2, 203217, Note_on_c, 0, 74, 0
2, 203217, Note_on_c, 0, 59, 0
2, 203221, Note_on_c, 0, 55, 102
2, 203221, Note_on_c, 0, 64, 102
2, 203328, Note_on_c, 0, 55, 0
2, 203332, Note_on_c, 0, 52, 102
2, 203332, Note_on_c, 0, 73, 102
2, 203346, Note_on_c, 0, 64, 0
2, 203439, Note_on_c, 0, 73, 0
2, 203439, Note_on_c, 0, 52, 0
2, 203443, Note_on_c, 0, 54, 102
2, 203443, Note_on_c, 0, 66, 102
2, 203603, Note_on_c, 0, 66, 0
2, 203638, Note_on_c, 0, 54, 0
2, 203667, Note_on_c, 0, 42, 102
2, 203667, Note_on_c, 0, 70, 102
2, 203867, Note_on_c, 0, 70, 0
2, 203867, Note_on_c, 0, 42, 0
2, 203928, Note_on_c, 0, 47, 102
2, 203928, Note_on_c, 0, 71, 102
2, 204695, Note_on_c, 0, 71, 0
2, 204695, Note_on_c, 0, 47, 0
2, 204695, End_track
0, 0, End_of_file
