0, 0, Header, 1, 2, 384
1, 0, Start_track
1, 0, Title_t, "--------"
1, 0, Text_t, "harpsichord: John Sankey\012"
1, 0, Time_signature, 4, 2, 24, 8
1, 0, Key_signature, 0, "major"
1, 0, Tempo, 500000
1, 43008, Time_signature, 2, 2, 24, 8
1, 43008, Tempo, 545455
1, 105216, Tempo, 631579
1, 111360, Time_signature, 3, 2, 24, 8
1, 111360, Tempo, 545455
1, 185088, Tempo, 352941
1, 186240, Time_signature, 4, 2, 24, 8
1, 289152, Time_signature, 3, 1, 48, 8
1, 289152, Tempo, 461538
1, 406656, Time_signature, 3, 3, 12, 8
1, 406656, Tempo, 576923
1, 471168, Tempo, 750000
1, 471744, Time_signature, 2, 2, 24, 8
1, 474048, Tempo, 576923
1, 474048, End_track
2, 0, Start_track
2, 0, Title_t, "Harpsichord"
2, 0, Program_c, 0, 6
2, 0, Control_c, 0, 7, 100
2, 0, Program_c, 0, 7
2, 0, Pitch_bend_c, 0, 8192
2, 0, Program_c, 0, 7
2, 0, Pitch_bend_c, 0, 7790
2, 0, Program_c, 0, 7
2, 0, Pitch_bend_c, 0, 7876
2, 0, Program_c, 0, 7
2, 0, Pitch_bend_c, 0, 7952
2, 0, Program_c, 0, 7
2, 0, Pitch_bend_c, 0, 7792
2, 0, Program_c, 0, 7
2, 0, Pitch_bend_c, 0, 8112
2, 0, Program_c, 0, 7
2, 0, Pitch_bend_c, 0, 7710
2, 0, Program_c, 0, 7
2, 0, Pitch_bend_c, 0, 8037
2, 0, Program_c, 0, 7
2, 0, Pitch_bend_c, 0, 7870
2, 0, Program_c, 0, 7
2, 0, Pitch_bend_c, 0, 7712
2, 0, Program_c, 0, 7
2, 0, Pitch_bend_c, 0, 8032
2, 0, Program_c, 0, 7
2, 0, Pitch_bend_c, 0, 7872
2, 192, Note_on_c, 0, 48, 97
2, 193, Note_on_c, 0, 51, 97
2, 194, Note_on_c, 0, 55, 97
2, 195, Note_on_c, 0, 60, 97
2, 196, Note_on_c, 0, 67, 97
2, 196, Note_on_c, 0, 75, 97
2, 196, Note_on_c, 0, 72, 97
2, 1724, Note_on_c, 0, 48, 0
2, 1725, Note_on_c, 0, 51, 0
2, 1726, Note_on_c, 0, 55, 0
2, 1727, Note_on_c, 0, 60, 0
2, 1728, Note_on_c, 0, 72, 0
2, 1728, Note_on_c, 0, 75, 0
2, 1728, Note_on_c, 0, 67, 0
2, 2112, Note_on_c, 0, 72, 97
2, 2113, Note_on_c, 0, 75, 97
2, 2495, Note_on_c, 0, 72, 0
2, 2496, Note_on_c, 0, 75, 0
2, 2496, Note_on_c, 0, 71, 97
2, 2497, Note_on_c, 0, 74, 97
2, 3071, Note_on_c, 0, 71, 0
2, 3072, Note_on_c, 0, 74, 0
2, 3096, Note_on_c, 0, 72, 97
2, 3097, Note_on_c, 0, 75, 97
2, 3260, Note_on_c, 0, 72, 0
2, 3261, Note_on_c, 0, 75, 0
2, 3264, Note_on_c, 0, 48, 97
2, 3265, Note_on_c, 0, 50, 97
2, 3266, Note_on_c, 0, 53, 97
2, 3267, Note_on_c, 0, 56, 97
2, 3268, Note_on_c, 0, 59, 97
2, 3268, Note_on_c, 0, 74, 97
2, 3268, Note_on_c, 0, 77, 97
2, 4800, Note_on_c, 0, 77, 0
2, 4800, Note_on_c, 0, 74, 0
2, 4864, Note_on_c, 0, 48, 0
2, 4865, Note_on_c, 0, 50, 0
2, 4866, Note_on_c, 0, 53, 0
2, 4867, Note_on_c, 0, 56, 0
2, 4868, Note_on_c, 0, 59, 0
2, 5208, Note_on_c, 0, 77, 97
2, 5208, Note_on_c, 0, 74, 97
2, 5566, Note_on_c, 0, 74, 0
2, 5566, Note_on_c, 0, 77, 0
2, 5568, Note_on_c, 0, 74, 97
2, 5568, Note_on_c, 0, 77, 97
2, 6143, Note_on_c, 0, 77, 0
2, 6143, Note_on_c, 0, 74, 0
2, 6168, Note_on_c, 0, 79, 97
2, 6168, Note_on_c, 0, 75, 97
2, 6333, Note_on_c, 0, 75, 0
2, 6333, Note_on_c, 0, 79, 0
2, 6336, Note_on_c, 0, 77, 97
2, 6336, Note_on_c, 0, 80, 97
2, 7436, Note_on_c, 0, 80, 0
2, 7436, Note_on_c, 0, 77, 0
2, 7512, Note_on_c, 0, 80, 97
2, 7512, Note_on_c, 0, 77, 97
2, 7870, Note_on_c, 0, 77, 0
2, 7870, Note_on_c, 0, 80, 0
2, 7872, Note_on_c, 0, 48, 97
2, 7873, Note_on_c, 0, 50, 97
2, 7874, Note_on_c, 0, 53, 97
2, 7875, Note_on_c, 0, 59, 97
2, 7876, Note_on_c, 0, 77, 97
2, 7876, Note_on_c, 0, 80, 97
2, 8256, Note_on_c, 0, 79, 97
2, 8259, Note_on_c, 0, 80, 0
2, 8447, Note_on_c, 0, 77, 0
2, 8447, Note_on_c, 0, 79, 0
2, 8448, Note_on_c, 0, 77, 97
2, 8639, Note_on_c, 0, 77, 0
2, 8640, Note_on_c, 0, 79, 97
2, 9240, Note_on_c, 0, 74, 97
2, 9340, Note_on_c, 0, 79, 0
2, 9404, Note_on_c, 0, 74, 0
2, 9407, Note_on_c, 0, 48, 0
2, 9408, Note_on_c, 0, 50, 0
2, 9408, Note_on_c, 0, 48, 97
2, 9409, Note_on_c, 0, 53, 0
2, 9409, Note_on_c, 0, 51, 97
2, 9410, Note_on_c, 0, 59, 0
2, 9410, Note_on_c, 0, 55, 97
2, 9411, Note_on_c, 0, 60, 97
2, 9412, Note_on_c, 0, 67, 97
2, 9412, Note_on_c, 0, 75, 97
2, 9412, Note_on_c, 0, 72, 97
2, 11062, Note_on_c, 0, 72, 0
2, 11062, Note_on_c, 0, 75, 0
2, 11108, Note_on_c, 0, 48, 0
2, 11109, Note_on_c, 0, 51, 0
2, 11110, Note_on_c, 0, 55, 0
2, 11111, Note_on_c, 0, 60, 0
2, 11112, Note_on_c, 0, 67, 0
2, 11256, Note_on_c, 0, 79, 97
2, 11256, Note_on_c, 0, 75, 97
2, 11614, Note_on_c, 0, 75, 0
2, 11614, Note_on_c, 0, 79, 0
2, 11616, Note_on_c, 0, 79, 97
2, 11616, Note_on_c, 0, 75, 97
2, 12191, Note_on_c, 0, 75, 0
2, 12191, Note_on_c, 0, 79, 0
2, 12216, Note_on_c, 0, 80, 97
2, 12216, Note_on_c, 0, 77, 97
2, 12380, Note_on_c, 0, 77, 0
2, 12380, Note_on_c, 0, 80, 0
2, 12384, Note_on_c, 0, 48, 97
2, 12385, Note_on_c, 0, 52, 97
2, 12386, Note_on_c, 0, 55, 97
2, 12387, Note_on_c, 0, 60, 97
2, 12388, Note_on_c, 0, 72, 97
2, 12388, Note_on_c, 0, 79, 97
2, 12388, Note_on_c, 0, 82, 97
2, 13920, Note_on_c, 0, 82, 0
2, 13920, Note_on_c, 0, 72, 0
2, 13920, Note_on_c, 0, 79, 0
2, 14303, Note_on_c, 0, 48, 0
2, 14304, Note_on_c, 0, 52, 0
2, 14305, Note_on_c, 0, 55, 0
2, 14306, Note_on_c, 0, 60, 0
2, 14328, Note_on_c, 0, 70, 97
2, 14328, Note_on_c, 0, 67, 97
2, 14686, Note_on_c, 0, 67, 0
2, 14686, Note_on_c, 0, 70, 0
2, 14688, Note_on_c, 0, 70, 97
2, 14688, Note_on_c, 0, 67, 97
2, 15263, Note_on_c, 0, 67, 0
2, 15263, Note_on_c, 0, 70, 0
2, 15288, Note_on_c, 0, 72, 97
2, 15288, Note_on_c, 0, 68, 97
2, 15453, Note_on_c, 0, 68, 0
2, 15453, Note_on_c, 0, 72, 0
2, 15456, Note_on_c, 0, 73, 97
2, 15456, Note_on_c, 0, 70, 97
2, 16556, Note_on_c, 0, 73, 0
2, 16632, Note_on_c, 0, 70, 0
2, 16632, Note_on_c, 0, 70, 97
2, 16632, Note_on_c, 0, 73, 97
2, 16972, Note_on_c, 0, 73, 0
2, 16982, Note_on_c, 0, 70, 0
2, 16992, Note_on_c, 0, 48, 97
2, 16993, Note_on_c, 0, 55, 97
2, 16994, Note_on_c, 0, 60, 97
2, 16995, Note_on_c, 0, 70, 97
2, 16996, Note_on_c, 0, 73, 97
2, 16996, Note_on_c, 0, 76, 97
2, 17376, Note_on_c, 0, 72, 97
2, 17379, Note_on_c, 0, 73, 0
2, 17565, Note_on_c, 0, 72, 0
2, 17566, Note_on_c, 0, 70, 0
2, 17568, Note_on_c, 0, 70, 97
2, 17759, Note_on_c, 0, 70, 0
2, 17760, Note_on_c, 0, 72, 97
2, 18296, Note_on_c, 0, 76, 0
2, 18360, Note_on_c, 0, 67, 97
2, 18524, Note_on_c, 0, 67, 0
2, 18527, Note_on_c, 0, 72, 0
2, 18527, Note_on_c, 0, 48, 0
2, 18528, Note_on_c, 0, 55, 0
2, 18528, Note_on_c, 0, 48, 97
2, 18529, Note_on_c, 0, 60, 0
2, 18529, Note_on_c, 0, 53, 97
2, 18530, Note_on_c, 0, 56, 97
2, 18531, Note_on_c, 0, 60, 97
2, 18532, Note_on_c, 0, 68, 97
2, 18532, Note_on_c, 0, 77, 97
2, 18532, Note_on_c, 0, 72, 97
2, 20064, Note_on_c, 0, 77, 0
2, 20128, Note_on_c, 0, 48, 0
2, 20129, Note_on_c, 0, 53, 0
2, 20130, Note_on_c, 0, 56, 0
2, 20131, Note_on_c, 0, 60, 0
2, 20132, Note_on_c, 0, 68, 0
2, 20132, Note_on_c, 0, 72, 0
2, 20448, Note_on_c, 0, 77, 97
2, 20831, Note_on_c, 0, 77, 0
2, 20832, Note_on_c, 0, 79, 97
2, 21407, Note_on_c, 0, 79, 0
2, 21432, Note_on_c, 0, 80, 97
2, 21590, Note_on_c, 0, 80, 0
2, 21600, Note_on_c, 0, 74, 97
2, 21984, Note_on_c, 0, 48, 97
2, 21985, Note_on_c, 0, 50, 97
2, 21986, Note_on_c, 0, 56, 97
2, 21987, Note_on_c, 0, 65, 97
2, 22367, Note_on_c, 0, 48, 0
2, 22368, Note_on_c, 0, 50, 0
2, 22368, Note_on_c, 0, 48, 97
2, 22369, Note_on_c, 0, 56, 0
2, 22369, Note_on_c, 0, 50, 97
2, 22370, Note_on_c, 0, 65, 0
2, 22370, Note_on_c, 0, 56, 97
2, 22371, Note_on_c, 0, 65, 97
2, 22943, Note_on_c, 0, 48, 0
2, 22944, Note_on_c, 0, 50, 0
2, 22945, Note_on_c, 0, 56, 0
2, 22946, Note_on_c, 0, 65, 0
2, 22968, Note_on_c, 0, 55, 97
2, 22968, Note_on_c, 0, 50, 97
2, 22968, Note_on_c, 0, 46, 97
2, 22968, Note_on_c, 0, 67, 97
2, 23126, Note_on_c, 0, 67, 0
2, 23126, Note_on_c, 0, 50, 0
2, 23126, Note_on_c, 0, 46, 0
2, 23126, Note_on_c, 0, 55, 0
2, 23132, Note_on_c, 0, 74, 0
2, 23136, Note_on_c, 0, 46, 97
2, 23137, Note_on_c, 0, 50, 97
2, 23138, Note_on_c, 0, 55, 97
2, 23139, Note_on_c, 0, 67, 97
2, 23520, Note_on_c, 0, 74, 97
2, 23903, Note_on_c, 0, 74, 0
2, 23904, Note_on_c, 0, 79, 97
2, 24479, Note_on_c, 0, 79, 0
2, 24480, Note_on_c, 0, 75, 97
2, 24671, Note_on_c, 0, 75, 0
2, 24672, Note_on_c, 0, 72, 97
2, 24836, Note_on_c, 0, 46, 0
2, 24837, Note_on_c, 0, 50, 0
2, 24838, Note_on_c, 0, 55, 0
2, 24839, Note_on_c, 0, 67, 0
2, 25056, Note_on_c, 0, 46, 97
2, 25057, Note_on_c, 0, 48, 97
2, 25058, Note_on_c, 0, 55, 97
2, 25059, Note_on_c, 0, 63, 97
2, 25439, Note_on_c, 0, 46, 0
2, 25440, Note_on_c, 0, 48, 0
2, 25440, Note_on_c, 0, 46, 97
2, 25441, Note_on_c, 0, 55, 0
2, 25441, Note_on_c, 0, 48, 97
2, 25442, Note_on_c, 0, 63, 0
2, 25442, Note_on_c, 0, 55, 97
2, 25443, Note_on_c, 0, 63, 97
2, 26015, Note_on_c, 0, 46, 0
2, 26016, Note_on_c, 0, 48, 0
2, 26017, Note_on_c, 0, 55, 0
2, 26018, Note_on_c, 0, 63, 0
2, 26040, Note_on_c, 0, 53, 97
2, 26040, Note_on_c, 0, 48, 97
2, 26040, Note_on_c, 0, 44, 97
2, 26040, Note_on_c, 0, 65, 97
2, 26197, Note_on_c, 0, 46, 97
2, 26198, Note_on_c, 0, 65, 0
2, 26198, Note_on_c, 0, 44, 0
2, 26198, Note_on_c, 0, 48, 0
2, 26198, Note_on_c, 0, 53, 0
2, 26208, Note_on_c, 0, 65, 97
2, 26208, Note_on_c, 0, 53, 97
2, 26208, Note_on_c, 0, 48, 97
2, 26283, Note_on_c, 0, 44, 97
2, 26327, Note_on_c, 0, 46, 0
2, 26369, Note_on_c, 0, 46, 97
2, 26399, Note_on_c, 0, 72, 0
2, 26400, Note_on_c, 0, 75, 97
2, 26413, Note_on_c, 0, 44, 0
2, 26454, Note_on_c, 0, 44, 97
2, 26499, Note_on_c, 0, 46, 0
2, 26540, Note_on_c, 0, 46, 97
2, 26584, Note_on_c, 0, 44, 0
2, 26591, Note_on_c, 0, 75, 0
2, 26592, Note_on_c, 0, 73, 97
2, 26626, Note_on_c, 0, 44, 97
2, 26670, Note_on_c, 0, 46, 0
2, 26712, Note_on_c, 0, 46, 97
2, 26756, Note_on_c, 0, 44, 0
2, 26783, Note_on_c, 0, 73, 0
2, 26784, Note_on_c, 0, 72, 97
2, 26797, Note_on_c, 0, 44, 97
2, 26842, Note_on_c, 0, 46, 0
2, 26883, Note_on_c, 0, 46, 97
2, 26927, Note_on_c, 0, 44, 0
2, 26968, Note_on_c, 0, 44, 97
2, 26975, Note_on_c, 0, 72, 0
2, 26976, Note_on_c, 0, 73, 97
2, 27013, Note_on_c, 0, 46, 0
2, 27054, Note_on_c, 0, 46, 97
2, 27098, Note_on_c, 0, 44, 0
2, 27139, Note_on_c, 0, 44, 97
2, 27184, Note_on_c, 0, 46, 0
2, 27224, Note_on_c, 0, 46, 97
2, 27269, Note_on_c, 0, 44, 0
2, 27301, Note_on_c, 0, 44, 97
2, 27354, Note_on_c, 0, 46, 0
2, 27386, Note_on_c, 0, 46, 97
2, 27426, Note_on_c, 0, 44, 0
2, 27471, Note_on_c, 0, 44, 97
2, 27506, Note_on_c, 0, 46, 0
2, 27551, Note_on_c, 0, 73, 0
2, 27552, Note_on_c, 0, 77, 97
2, 27556, Note_on_c, 0, 46, 97
2, 27558, Note_on_c, 0, 65, 0
2, 27586, Note_on_c, 0, 44, 0
2, 27641, Note_on_c, 0, 44, 97
2, 27666, Note_on_c, 0, 46, 0
2, 27738, Note_on_c, 0, 48, 0
2, 27738, Note_on_c, 0, 53, 0
2, 27743, Note_on_c, 0, 77, 0
2, 27744, Note_on_c, 0, 43, 97
2, 27745, Note_on_c, 0, 50, 97
2, 27746, Note_on_c, 0, 44, 0
2, 27746, Note_on_c, 0, 67, 97
2, 27747, Note_on_c, 0, 71, 97
2, 28321, Note_on_c, 0, 67, 0
2, 28322, Note_on_c, 0, 71, 0
2, 28344, Note_on_c, 0, 72, 97
2, 28344, Note_on_c, 0, 69, 97
2, 28502, Note_on_c, 0, 69, 0
2, 28502, Note_on_c, 0, 72, 0
2, 28512, Note_on_c, 0, 71, 97
2, 28512, Note_on_c, 0, 67, 97
2, 29087, Note_on_c, 0, 67, 0
2, 29087, Note_on_c, 0, 71, 0
2, 29094, Note_on_c, 0, 43, 0
2, 29095, Note_on_c, 0, 50, 0
2, 29112, Note_on_c, 0, 72, 97
2, 29112, Note_on_c, 0, 69, 97
2, 29270, Note_on_c, 0, 69, 0
2, 29270, Note_on_c, 0, 72, 0
2, 29280, Note_on_c, 0, 74, 97
2, 29280, Note_on_c, 0, 71, 97
2, 29663, Note_on_c, 0, 71, 0
2, 29664, Note_on_c, 0, 53, 97
2, 29664, Note_on_c, 0, 50, 97
2, 30047, Note_on_c, 0, 50, 0
2, 30047, Note_on_c, 0, 53, 0
2, 30048, Note_on_c, 0, 53, 97
2, 30048, Note_on_c, 0, 50, 97
2, 30623, Note_on_c, 0, 50, 0
2, 30623, Note_on_c, 0, 53, 0
2, 30648, Note_on_c, 0, 55, 97
2, 30648, Note_on_c, 0, 51, 97
2, 30806, Note_on_c, 0, 51, 0
2, 30806, Note_on_c, 0, 55, 0
2, 30816, Note_on_c, 0, 56, 97
2, 30816, Note_on_c, 0, 53, 97
2, 31986, Note_on_c, 0, 53, 0
2, 31986, Note_on_c, 0, 56, 0
2, 31992, Note_on_c, 0, 62, 97
2, 31992, Note_on_c, 0, 56, 97
2, 31992, Note_on_c, 0, 53, 97
2, 32332, Note_on_c, 0, 53, 0
2, 32332, Note_on_c, 0, 56, 0
2, 32332, Note_on_c, 0, 62, 0
2, 32352, Note_on_c, 0, 47, 97
2, 32352, Note_on_c, 0, 43, 97
2, 32353, Note_on_c, 0, 65, 97
2, 32736, Note_on_c, 0, 55, 97
2, 32927, Note_on_c, 0, 55, 0
2, 32928, Note_on_c, 0, 53, 97
2, 33119, Note_on_c, 0, 53, 0
2, 33120, Note_on_c, 0, 55, 97
2, 33180, Note_on_c, 0, 74, 0
2, 33502, Note_on_c, 0, 47, 0
2, 33502, Note_on_c, 0, 43, 0
2, 33503, Note_on_c, 0, 65, 0
2, 33503, Note_on_c, 0, 55, 0
2, 33504, Note_on_c, 0, 47, 97
2, 33505, Note_on_c, 0, 50, 97
2, 33506, Note_on_c, 0, 68, 97
2, 33874, Note_on_c, 0, 47, 0
2, 33875, Note_on_c, 0, 50, 0
2, 33876, Note_on_c, 0, 68, 0
2, 33888, Note_on_c, 0, 43, 97
2, 33889, Note_on_c, 0, 48, 97
2, 33890, Note_on_c, 0, 51, 97
2, 33891, Note_on_c, 0, 67, 97
2, 34464, Note_on_c, 0, 67, 0
2, 34464, Note_on_c, 0, 67, 97
2, 34464, Note_on_c, 0, 65, 97
2, 34655, Note_on_c, 0, 65, 0
2, 34655, Note_on_c, 0, 67, 0
2, 34656, Note_on_c, 0, 69, 97
2, 34656, Note_on_c, 0, 63, 97
2, 35231, Note_on_c, 0, 63, 0
2, 35231, Note_on_c, 0, 69, 0
2, 35256, Note_on_c, 0, 71, 97
2, 35256, Note_on_c, 0, 62, 97
2, 35420, Note_on_c, 0, 62, 0
2, 35420, Note_on_c, 0, 71, 0
2, 35424, Note_on_c, 0, 72, 97
2, 35424, Note_on_c, 0, 63, 97
2, 35688, Note_on_c, 0, 43, 0
2, 35689, Note_on_c, 0, 48, 0
2, 35690, Note_on_c, 0, 51, 0
2, 35999, Note_on_c, 0, 72, 0
2, 35999, Note_on_c, 0, 63, 0
2, 36024, Note_on_c, 0, 71, 97
2, 36024, Note_on_c, 0, 67, 97
2, 36024, Note_on_c, 0, 62, 97
2, 36188, Note_on_c, 0, 62, 0
2, 36188, Note_on_c, 0, 67, 0
2, 36188, Note_on_c, 0, 71, 0
2, 36192, Note_on_c, 0, 69, 97
2, 36192, Note_on_c, 0, 72, 97
2, 36192, Note_on_c, 0, 63, 97
2, 36767, Note_on_c, 0, 63, 0
2, 36767, Note_on_c, 0, 72, 0
2, 36767, Note_on_c, 0, 69, 0
2, 36792, Note_on_c, 0, 74, 97
2, 36792, Note_on_c, 0, 71, 97
2, 36792, Note_on_c, 0, 65, 97
2, 36956, Note_on_c, 0, 65, 0
2, 36956, Note_on_c, 0, 71, 0
2, 36956, Note_on_c, 0, 74, 0
2, 36960, Note_on_c, 0, 67, 97
2, 36961, Note_on_c, 0, 72, 97
2, 36962, Note_on_c, 0, 75, 97
2, 38101, Note_on_c, 0, 72, 0
2, 38102, Note_on_c, 0, 75, 0
2, 38112, Note_on_c, 0, 75, 97
2, 38112, Note_on_c, 0, 72, 97
2, 38490, Note_on_c, 0, 67, 0
2, 38495, Note_on_c, 0, 72, 0
2, 38495, Note_on_c, 0, 75, 0
2, 38496, Note_on_c, 0, 43, 97
2, 38497, Note_on_c, 0, 48, 97
2, 38498, Note_on_c, 0, 51, 97
2, 38499, Note_on_c, 0, 57, 97
2, 38500, Note_on_c, 0, 69, 97
2, 38500, Note_on_c, 0, 78, 97
2, 38500, Note_on_c, 0, 75, 97
2, 38500, Note_on_c, 0, 72, 97
2, 38770, Note_on_c, 0, 72, 0
2, 38880, Note_on_c, 0, 74, 97
2, 38883, Note_on_c, 0, 75, 0
2, 39071, Note_on_c, 0, 74, 0
2, 39072, Note_on_c, 0, 72, 97
2, 39263, Note_on_c, 0, 72, 0
2, 39264, Note_on_c, 0, 74, 97
2, 39750, Note_on_c, 0, 69, 0
2, 39839, Note_on_c, 0, 74, 0
2, 39840, Note_on_c, 0, 69, 97
2, 40030, Note_on_c, 0, 78, 0
2, 40031, Note_on_c, 0, 43, 0
2, 40031, Note_on_c, 0, 69, 0
2, 40032, Note_on_c, 0, 48, 0
2, 40032, Note_on_c, 0, 43, 97
2, 40033, Note_on_c, 0, 51, 0
2, 40033, Note_on_c, 0, 50, 97
2, 40034, Note_on_c, 0, 57, 0
2, 40034, Note_on_c, 0, 55, 97
2, 40035, Note_on_c, 0, 71, 97
2, 40036, Note_on_c, 0, 74, 97
2, 40036, Note_on_c, 0, 79, 97
2, 42632, Note_on_c, 0, 43, 0
2, 42633, Note_on_c, 0, 50, 0
2, 42634, Note_on_c, 0, 55, 0
2, 42635, Note_on_c, 0, 71, 0
2, 42636, Note_on_c, 0, 74, 0
2, 42936, Note_on_c, 0, 79, 0
2, 43008, Note_on_c, 0, 48, 97
2, 43008, Note_on_c, 0, 67, 97
2, 43199, Note_on_c, 0, 67, 0
2, 43200, Note_on_c, 0, 72, 97
2, 43295, Note_on_c, 0, 72, 0
2, 43296, Note_on_c, 0, 74, 97
2, 43391, Note_on_c, 0, 74, 0
2, 43391, Note_on_c, 0, 48, 0
2, 43392, Note_on_c, 0, 60, 97
2, 43392, Note_on_c, 0, 75, 97
2, 43775, Note_on_c, 0, 60, 0
2, 43776, Note_on_c, 0, 53, 97
2, 43922, Note_on_c, 0, 75, 0
2, 43968, Note_on_c, 0, 74, 97
2, 44063, Note_on_c, 0, 74, 0
2, 44064, Note_on_c, 0, 72, 97
2, 44159, Note_on_c, 0, 72, 0
2, 44159, Note_on_c, 0, 53, 0
2, 44160, Note_on_c, 0, 55, 97
2, 44160, Note_on_c, 0, 75, 97
2, 44255, Note_on_c, 0, 75, 0
2, 44256, Note_on_c, 0, 74, 97
2, 44351, Note_on_c, 0, 74, 0
2, 44352, Note_on_c, 0, 72, 97
2, 44447, Note_on_c, 0, 72, 0
2, 44448, Note_on_c, 0, 71, 97
2, 44543, Note_on_c, 0, 71, 0
2, 44543, Note_on_c, 0, 55, 0
2, 44544, Note_on_c, 0, 51, 97
2, 44544, Note_on_c, 0, 72, 97
2, 44735, Note_on_c, 0, 72, 0
2, 44736, Note_on_c, 0, 67, 97
2, 44927, Note_on_c, 0, 67, 0
2, 44927, Note_on_c, 0, 51, 0
2, 44928, Note_on_c, 0, 48, 97
2, 44928, Note_on_c, 0, 68, 97
2, 45119, Note_on_c, 0, 68, 0
2, 45120, Note_on_c, 0, 65, 97
2, 45311, Note_on_c, 0, 65, 0
2, 45311, Note_on_c, 0, 48, 0
2, 45312, Note_on_c, 0, 51, 97
2, 45312, Note_on_c, 0, 67, 97
2, 45503, Note_on_c, 0, 67, 0
2, 45504, Note_on_c, 0, 72, 97
2, 45695, Note_on_c, 0, 72, 0
2, 45695, Note_on_c, 0, 51, 0
2, 45696, Note_on_c, 0, 55, 97
2, 45696, Note_on_c, 0, 67, 97
2, 45887, Note_on_c, 0, 67, 0
2, 45888, Note_on_c, 0, 65, 97
2, 46079, Note_on_c, 0, 65, 0
2, 46079, Note_on_c, 0, 55, 0
2, 46080, Note_on_c, 0, 60, 97
2, 46080, Note_on_c, 0, 63, 97
2, 46271, Note_on_c, 0, 63, 0
2, 46272, Note_on_c, 0, 72, 97
2, 46367, Note_on_c, 0, 72, 0
2, 46368, Note_on_c, 0, 74, 97
2, 46463, Note_on_c, 0, 74, 0
2, 46463, Note_on_c, 0, 60, 0
2, 46464, Note_on_c, 0, 56, 97
2, 46464, Note_on_c, 0, 75, 97
2, 46559, Note_on_c, 0, 75, 0
2, 46560, Note_on_c, 0, 74, 97
2, 46655, Note_on_c, 0, 74, 0
2, 46656, Note_on_c, 0, 72, 97
2, 46847, Note_on_c, 0, 72, 0
2, 46847, Note_on_c, 0, 56, 0
2, 46848, Note_on_c, 0, 51, 97
2, 46848, Note_on_c, 0, 79, 97
2, 47039, Note_on_c, 0, 79, 0
2, 47040, Note_on_c, 0, 72, 97
2, 47231, Note_on_c, 0, 72, 0
2, 47231, Note_on_c, 0, 51, 0
2, 47232, Note_on_c, 0, 53, 97
2, 47232, Note_on_c, 0, 80, 97
2, 47423, Note_on_c, 0, 80, 0
2, 47424, Note_on_c, 0, 72, 97
2, 47615, Note_on_c, 0, 72, 0
2, 47615, Note_on_c, 0, 53, 0
2, 47616, Note_on_c, 0, 55, 97
2, 47616, Note_on_c, 0, 71, 97
2, 47807, Note_on_c, 0, 71, 0
2, 47808, Note_on_c, 0, 72, 97
2, 47999, Note_on_c, 0, 72, 0
2, 48000, Note_on_c, 0, 43, 97
2, 48000, Note_on_c, 0, 74, 97
2, 48191, Note_on_c, 0, 74, 0
2, 48192, Note_on_c, 0, 71, 97
2, 48383, Note_on_c, 0, 71, 0
2, 48383, Note_on_c, 0, 55, 0
2, 48384, Note_on_c, 0, 67, 97
2, 48575, Note_on_c, 0, 43, 0
2, 48576, Note_on_c, 0, 65, 97
2, 48767, Note_on_c, 0, 65, 0
2, 48768, Note_on_c, 0, 63, 97
2, 48959, Note_on_c, 0, 63, 0
2, 48959, Note_on_c, 0, 67, 0
2, 48960, Note_on_c, 0, 62, 97
2, 49151, Note_on_c, 0, 62, 0
2, 49152, Note_on_c, 0, 63, 97
2, 49152, Note_on_c, 0, 79, 97
2, 49247, Note_on_c, 0, 79, 0
2, 49248, Note_on_c, 0, 77, 97
2, 49343, Note_on_c, 0, 77, 0
2, 49344, Note_on_c, 0, 75, 97
2, 49439, Note_on_c, 0, 75, 0
2, 49440, Note_on_c, 0, 74, 97
2, 49535, Note_on_c, 0, 74, 0
2, 49535, Note_on_c, 0, 63, 0
2, 49536, Note_on_c, 0, 67, 97
2, 49536, Note_on_c, 0, 72, 97
2, 49727, Note_on_c, 0, 72, 0
2, 49728, Note_on_c, 0, 70, 97
2, 49919, Note_on_c, 0, 67, 0
2, 49920, Note_on_c, 0, 64, 97
2, 50048, Note_on_c, 0, 70, 0
2, 50112, Note_on_c, 0, 73, 97
2, 50303, Note_on_c, 0, 64, 0
2, 50304, Note_on_c, 0, 60, 97
2, 50482, Note_on_c, 0, 73, 0
2, 50496, Note_on_c, 0, 72, 97
2, 50687, Note_on_c, 0, 72, 0
2, 50687, Note_on_c, 0, 60, 0
2, 50688, Note_on_c, 0, 65, 97
2, 50688, Note_on_c, 0, 80, 97
2, 50783, Note_on_c, 0, 80, 0
2, 50784, Note_on_c, 0, 79, 97
2, 50879, Note_on_c, 0, 79, 0
2, 50880, Note_on_c, 0, 77, 97
2, 50975, Note_on_c, 0, 77, 0
2, 50976, Note_on_c, 0, 76, 97
2, 51071, Note_on_c, 0, 76, 0
2, 51071, Note_on_c, 0, 65, 0
2, 51072, Note_on_c, 0, 68, 97
2, 51072, Note_on_c, 0, 77, 97
2, 51455, Note_on_c, 0, 68, 0
2, 51456, Note_on_c, 0, 65, 97
2, 51532, Note_on_c, 0, 77, 0
2, 51552, Note_on_c, 0, 79, 97
2, 51647, Note_on_c, 0, 79, 0
2, 51648, Note_on_c, 0, 80, 97
2, 51743, Note_on_c, 0, 80, 0
2, 51744, Note_on_c, 0, 79, 97
2, 51839, Note_on_c, 0, 79, 0
2, 51839, Note_on_c, 0, 65, 0
2, 51840, Note_on_c, 0, 60, 97
2, 51840, Note_on_c, 0, 77, 97
2, 51935, Note_on_c, 0, 77, 0
2, 51936, Note_on_c, 0, 75, 97
2, 52031, Note_on_c, 0, 75, 0
2, 52032, Note_on_c, 0, 74, 97
2, 52127, Note_on_c, 0, 74, 0
2, 52128, Note_on_c, 0, 75, 97
2, 52223, Note_on_c, 0, 75, 0
2, 52223, Note_on_c, 0, 60, 0
2, 52224, Note_on_c, 0, 62, 97
2, 52224, Note_on_c, 0, 77, 97
2, 52319, Note_on_c, 0, 77, 0
2, 52320, Note_on_c, 0, 75, 97
2, 52415, Note_on_c, 0, 75, 0
2, 52416, Note_on_c, 0, 74, 97
2, 52511, Note_on_c, 0, 74, 0
2, 52512, Note_on_c, 0, 72, 97
2, 52607, Note_on_c, 0, 72, 0
2, 52607, Note_on_c, 0, 62, 0
2, 52608, Note_on_c, 0, 65, 97
2, 52608, Note_on_c, 0, 70, 97
2, 52799, Note_on_c, 0, 70, 0
2, 52800, Note_on_c, 0, 68, 97
2, 52991, Note_on_c, 0, 65, 0
2, 52992, Note_on_c, 0, 62, 97
2, 53120, Note_on_c, 0, 68, 0
2, 53184, Note_on_c, 0, 72, 97
2, 53375, Note_on_c, 0, 62, 0
2, 53376, Note_on_c, 0, 58, 97
2, 53554, Note_on_c, 0, 72, 0
2, 53568, Note_on_c, 0, 70, 97
2, 53759, Note_on_c, 0, 70, 0
2, 53759, Note_on_c, 0, 58, 0
2, 53760, Note_on_c, 0, 63, 97
2, 53760, Note_on_c, 0, 79, 97
2, 53855, Note_on_c, 0, 79, 0
2, 53856, Note_on_c, 0, 77, 97
2, 53951, Note_on_c, 0, 77, 0
2, 53952, Note_on_c, 0, 75, 97
2, 54047, Note_on_c, 0, 75, 0
2, 54048, Note_on_c, 0, 74, 97
2, 54143, Note_on_c, 0, 74, 0
2, 54143, Note_on_c, 0, 63, 0
2, 54144, Note_on_c, 0, 67, 97
2, 54144, Note_on_c, 0, 75, 97
2, 54527, Note_on_c, 0, 67, 0
2, 54528, Note_on_c, 0, 63, 97
2, 54604, Note_on_c, 0, 75, 0
2, 54624, Note_on_c, 0, 77, 97
2, 54719, Note_on_c, 0, 77, 0
2, 54720, Note_on_c, 0, 79, 97
2, 54815, Note_on_c, 0, 79, 0
2, 54816, Note_on_c, 0, 77, 97
2, 54911, Note_on_c, 0, 77, 0
2, 54911, Note_on_c, 0, 63, 0
2, 54912, Note_on_c, 0, 60, 97
2, 54912, Note_on_c, 0, 75, 97
2, 55007, Note_on_c, 0, 75, 0
2, 55008, Note_on_c, 0, 74, 97
2, 55103, Note_on_c, 0, 74, 0
2, 55104, Note_on_c, 0, 72, 97
2, 55199, Note_on_c, 0, 72, 0
2, 55200, Note_on_c, 0, 71, 97
2, 55295, Note_on_c, 0, 71, 0
2, 55295, Note_on_c, 0, 60, 0
2, 55296, Note_on_c, 0, 56, 97
2, 55296, Note_on_c, 0, 72, 97
2, 55391, Note_on_c, 0, 72, 0
2, 55392, Note_on_c, 0, 70, 97
2, 55487, Note_on_c, 0, 70, 0
2, 55488, Note_on_c, 0, 68, 97
2, 55583, Note_on_c, 0, 68, 0
2, 55584, Note_on_c, 0, 67, 97
2, 55679, Note_on_c, 0, 67, 0
2, 55679, Note_on_c, 0, 56, 0
2, 55680, Note_on_c, 0, 60, 97
2, 55680, Note_on_c, 0, 65, 97
2, 55860, Note_on_c, 0, 65, 0
2, 55872, Note_on_c, 0, 75, 97
2, 56063, Note_on_c, 0, 60, 0
2, 56064, Note_on_c, 0, 65, 97
2, 56232, Note_on_c, 0, 75, 0
2, 56256, Note_on_c, 0, 74, 97
2, 56351, Note_on_c, 0, 74, 0
2, 56352, Note_on_c, 0, 72, 97
2, 56447, Note_on_c, 0, 72, 0
2, 56447, Note_on_c, 0, 65, 0
2, 56448, Note_on_c, 0, 56, 97
2, 56448, Note_on_c, 0, 75, 97
2, 56543, Note_on_c, 0, 75, 0
2, 56544, Note_on_c, 0, 74, 97
2, 56639, Note_on_c, 0, 74, 0
2, 56640, Note_on_c, 0, 72, 97
2, 56735, Note_on_c, 0, 72, 0
2, 56736, Note_on_c, 0, 71, 97
2, 56831, Note_on_c, 0, 71, 0
2, 56831, Note_on_c, 0, 56, 0
2, 56832, Note_on_c, 0, 55, 97
2, 56832, Note_on_c, 0, 72, 97
2, 56927, Note_on_c, 0, 72, 0
2, 56928, Note_on_c, 0, 74, 97
2, 57023, Note_on_c, 0, 74, 0
2, 57024, Note_on_c, 0, 75, 97
2, 57119, Note_on_c, 0, 75, 0
2, 57120, Note_on_c, 0, 77, 97
2, 57215, Note_on_c, 0, 77, 0
2, 57215, Note_on_c, 0, 55, 0
2, 57216, Note_on_c, 0, 60, 97
2, 57216, Note_on_c, 0, 79, 97
2, 57396, Note_on_c, 0, 79, 0
2, 57408, Note_on_c, 0, 72, 97
2, 57599, Note_on_c, 0, 60, 0
2, 57600, Note_on_c, 0, 63, 97
2, 57768, Note_on_c, 0, 72, 0
2, 57792, Note_on_c, 0, 71, 97
2, 57887, Note_on_c, 0, 71, 0
2, 57888, Note_on_c, 0, 72, 97
2, 57983, Note_on_c, 0, 72, 0
2, 57983, Note_on_c, 0, 63, 0
2, 57984, Note_on_c, 0, 55, 97
2, 57984, Note_on_c, 0, 74, 97
2, 58079, Note_on_c, 0, 74, 0
2, 58080, Note_on_c, 0, 72, 97
2, 58175, Note_on_c, 0, 72, 0
2, 58176, Note_on_c, 0, 71, 97
2, 58271, Note_on_c, 0, 71, 0
2, 58272, Note_on_c, 0, 72, 97
2, 58355, Note_on_c, 0, 72, 0
2, 58367, Note_on_c, 0, 55, 0
2, 58368, Note_on_c, 0, 53, 97
2, 58368, Note_on_c, 0, 80, 97
2, 58463, Note_on_c, 0, 80, 0
2, 58464, Note_on_c, 0, 79, 97
2, 58559, Note_on_c, 0, 79, 0
2, 58560, Note_on_c, 0, 77, 97
2, 58655, Note_on_c, 0, 77, 0
2, 58656, Note_on_c, 0, 76, 97
2, 58751, Note_on_c, 0, 76, 0
2, 58751, Note_on_c, 0, 53, 0
2, 58752, Note_on_c, 0, 56, 97
2, 58752, Note_on_c, 0, 77, 97
2, 58932, Note_on_c, 0, 77, 0
2, 58944, Note_on_c, 0, 73, 97
2, 59135, Note_on_c, 0, 56, 0
2, 59136, Note_on_c, 0, 55, 97
2, 59304, Note_on_c, 0, 73, 0
2, 59328, Note_on_c, 0, 72, 97
2, 59423, Note_on_c, 0, 72, 0
2, 59424, Note_on_c, 0, 73, 97
2, 59519, Note_on_c, 0, 73, 0
2, 59519, Note_on_c, 0, 55, 0
2, 59520, Note_on_c, 0, 53, 97
2, 59520, Note_on_c, 0, 75, 97
2, 59615, Note_on_c, 0, 75, 0
2, 59616, Note_on_c, 0, 73, 97
2, 59711, Note_on_c, 0, 73, 0
2, 59712, Note_on_c, 0, 72, 97
2, 59807, Note_on_c, 0, 72, 0
2, 59808, Note_on_c, 0, 73, 97
2, 59903, Note_on_c, 0, 73, 0
2, 59903, Note_on_c, 0, 53, 0
2, 59904, Note_on_c, 0, 51, 97
2, 59904, Note_on_c, 0, 79, 97
2, 59999, Note_on_c, 0, 79, 0
2, 60000, Note_on_c, 0, 77, 97
2, 60095, Note_on_c, 0, 77, 0
2, 60096, Note_on_c, 0, 75, 97
2, 60191, Note_on_c, 0, 75, 0
2, 60192, Note_on_c, 0, 74, 97
2, 60287, Note_on_c, 0, 74, 0
2, 60287, Note_on_c, 0, 51, 0
2, 60288, Note_on_c, 0, 55, 97
2, 60288, Note_on_c, 0, 75, 97
2, 60468, Note_on_c, 0, 75, 0
2, 60480, Note_on_c, 0, 72, 97
2, 60671, Note_on_c, 0, 55, 0
2, 60672, Note_on_c, 0, 53, 97
2, 60840, Note_on_c, 0, 72, 0
2, 60864, Note_on_c, 0, 71, 97
2, 60959, Note_on_c, 0, 71, 0
2, 60960, Note_on_c, 0, 72, 97
2, 61055, Note_on_c, 0, 72, 0
2, 61055, Note_on_c, 0, 53, 0
2, 61056, Note_on_c, 0, 51, 97
2, 61056, Note_on_c, 0, 74, 97
2, 61151, Note_on_c, 0, 74, 0
2, 61152, Note_on_c, 0, 72, 97
2, 61247, Note_on_c, 0, 72, 0
2, 61248, Note_on_c, 0, 71, 97
2, 61343, Note_on_c, 0, 71, 0
2, 61344, Note_on_c, 0, 72, 97
2, 61439, Note_on_c, 0, 72, 0
2, 61439, Note_on_c, 0, 51, 0
2, 61440, Note_on_c, 0, 50, 97
2, 61440, Note_on_c, 0, 77, 97
2, 61535, Note_on_c, 0, 77, 0
2, 61536, Note_on_c, 0, 72, 97
2, 61631, Note_on_c, 0, 72, 0
2, 61632, Note_on_c, 0, 71, 97
2, 61727, Note_on_c, 0, 71, 0
2, 61728, Note_on_c, 0, 69, 97
2, 61823, Note_on_c, 0, 69, 0
2, 61823, Note_on_c, 0, 50, 0
2, 61824, Note_on_c, 0, 53, 97
2, 61824, Note_on_c, 0, 71, 97
2, 62015, Note_on_c, 0, 71, 0
2, 62016, Note_on_c, 0, 74, 97
2, 62207, Note_on_c, 0, 74, 0
2, 62207, Note_on_c, 0, 53, 0
2, 62208, Note_on_c, 0, 56, 97
2, 62208, Note_on_c, 0, 77, 97
2, 62303, Note_on_c, 0, 77, 0
2, 62304, Note_on_c, 0, 70, 97
2, 62399, Note_on_c, 0, 70, 0
2, 62400, Note_on_c, 0, 68, 97
2, 62495, Note_on_c, 0, 68, 0
2, 62496, Note_on_c, 0, 67, 97
2, 62591, Note_on_c, 0, 67, 0
2, 62591, Note_on_c, 0, 56, 0
2, 62592, Note_on_c, 0, 48, 97
2, 62592, Note_on_c, 0, 68, 97
2, 62783, Note_on_c, 0, 68, 0
2, 62784, Note_on_c, 0, 72, 97
2, 62975, Note_on_c, 0, 72, 0
2, 62975, Note_on_c, 0, 48, 0
2, 62976, Note_on_c, 0, 47, 97
2, 62976, Note_on_c, 0, 77, 97
2, 63071, Note_on_c, 0, 77, 0
2, 63072, Note_on_c, 0, 68, 97
2, 63167, Note_on_c, 0, 68, 0
2, 63168, Note_on_c, 0, 67, 97
2, 63263, Note_on_c, 0, 67, 0
2, 63264, Note_on_c, 0, 65, 97
2, 63359, Note_on_c, 0, 65, 0
2, 63359, Note_on_c, 0, 47, 0
2, 63360, Note_on_c, 0, 50, 97
2, 63360, Note_on_c, 0, 67, 97
2, 63743, Note_on_c, 0, 50, 0
2, 63744, Note_on_c, 0, 55, 97
2, 63760, Note_on_c, 0, 67, 0
2, 63840, Note_on_c, 0, 77, 97
2, 63935, Note_on_c, 0, 77, 0
2, 63936, Note_on_c, 0, 79, 97
2, 64031, Note_on_c, 0, 79, 0
2, 64032, Note_on_c, 0, 80, 97
2, 64127, Note_on_c, 0, 80, 0
2, 64127, Note_on_c, 0, 55, 0
2, 64128, Note_on_c, 0, 50, 97
2, 64128, Note_on_c, 0, 79, 97
2, 64319, Note_on_c, 0, 79, 0
2, 64320, Note_on_c, 0, 77, 97
2, 64511, Note_on_c, 0, 77, 0
2, 64511, Note_on_c, 0, 50, 0
2, 64512, Note_on_c, 0, 51, 97
2, 64512, Note_on_c, 0, 79, 97
2, 64692, Note_on_c, 0, 79, 0
2, 64704, Note_on_c, 0, 71, 97
2, 64895, Note_on_c, 0, 51, 0
2, 64896, Note_on_c, 0, 44, 97
2, 65044, Note_on_c, 0, 71, 0
2, 65088, Note_on_c, 0, 72, 97
2, 65279, Note_on_c, 0, 44, 0
2, 65280, Note_on_c, 0, 41, 97
2, 65458, Note_on_c, 0, 72, 0
2, 65472, Note_on_c, 0, 70, 97
2, 65567, Note_on_c, 0, 70, 0
2, 65568, Note_on_c, 0, 68, 97
2, 65663, Note_on_c, 0, 68, 0
2, 65663, Note_on_c, 0, 41, 0
2, 65664, Note_on_c, 0, 43, 97
2, 65664, Note_on_c, 0, 67, 97
2, 65759, Note_on_c, 0, 67, 0
2, 65760, Note_on_c, 0, 65, 97
2, 65855, Note_on_c, 0, 65, 0
2, 65856, Note_on_c, 0, 63, 97
2, 65951, Note_on_c, 0, 63, 0
2, 65952, Note_on_c, 0, 62, 97
2, 66047, Note_on_c, 0, 62, 0
2, 66047, Note_on_c, 0, 43, 0
2, 66048, Note_on_c, 0, 36, 97
2, 66048, Note_on_c, 0, 63, 97
2, 66143, Note_on_c, 0, 63, 0
2, 66144, Note_on_c, 0, 67, 97
2, 66239, Note_on_c, 0, 67, 0
2, 66240, Note_on_c, 0, 65, 97
2, 66335, Note_on_c, 0, 65, 0
2, 66336, Note_on_c, 0, 63, 97
2, 66431, Note_on_c, 0, 63, 0
2, 66432, Note_on_c, 0, 65, 97
2, 66527, Note_on_c, 0, 65, 0
2, 66528, Note_on_c, 0, 63, 97
2, 66623, Note_on_c, 0, 63, 0
2, 66624, Note_on_c, 0, 62, 97
2, 66719, Note_on_c, 0, 62, 0
2, 66720, Note_on_c, 0, 63, 97
2, 66815, Note_on_c, 0, 63, 0
2, 66816, Note_on_c, 0, 62, 97
2, 66948, Note_on_c, 0, 36, 0
2, 67008, Note_on_c, 0, 38, 97
2, 67103, Note_on_c, 0, 38, 0
2, 67104, Note_on_c, 0, 39, 97
2, 67199, Note_on_c, 0, 39, 0
2, 67199, Note_on_c, 0, 62, 0
2, 67200, Note_on_c, 0, 41, 97
2, 67200, Note_on_c, 0, 60, 97
2, 67295, Note_on_c, 0, 41, 0
2, 67296, Note_on_c, 0, 43, 97
2, 67391, Note_on_c, 0, 43, 0
2, 67392, Note_on_c, 0, 45, 97
2, 67487, Note_on_c, 0, 45, 0
2, 67488, Note_on_c, 0, 47, 97
2, 67580, Note_on_c, 0, 60, 0
2, 67583, Note_on_c, 0, 47, 0
2, 67584, Note_on_c, 0, 48, 97
2, 67967, Note_on_c, 0, 48, 0
2, 67968, Note_on_c, 0, 60, 97
2, 67968, Note_on_c, 0, 67, 97
2, 68351, Note_on_c, 0, 60, 0
2, 68352, Note_on_c, 0, 58, 97
2, 68447, Note_on_c, 0, 67, 0
2, 68448, Note_on_c, 0, 68, 97
2, 68543, Note_on_c, 0, 68, 0
2, 68544, Note_on_c, 0, 67, 97
2, 68639, Note_on_c, 0, 67, 0
2, 68640, Note_on_c, 0, 65, 97
2, 68735, Note_on_c, 0, 65, 0
2, 68735, Note_on_c, 0, 58, 0
2, 68736, Note_on_c, 0, 56, 97
2, 68736, Note_on_c, 0, 67, 97
2, 68927, Note_on_c, 0, 67, 0
2, 68928, Note_on_c, 0, 68, 97
2, 69119, Note_on_c, 0, 68, 0
2, 69119, Note_on_c, 0, 56, 0
2, 69120, Note_on_c, 0, 55, 97
2, 69120, Note_on_c, 0, 70, 97
2, 69311, Note_on_c, 0, 70, 0
2, 69312, Note_on_c, 0, 74, 97
2, 69503, Note_on_c, 0, 74, 0
2, 69503, Note_on_c, 0, 55, 0
2, 69504, Note_on_c, 0, 58, 97
2, 69504, Note_on_c, 0, 75, 97
2, 69887, Note_on_c, 0, 58, 0
2, 69888, Note_on_c, 0, 55, 97
2, 69944, Note_on_c, 0, 75, 0
2, 69984, Note_on_c, 0, 70, 97
2, 70079, Note_on_c, 0, 70, 0
2, 70080, Note_on_c, 0, 75, 97
2, 70175, Note_on_c, 0, 75, 0
2, 70176, Note_on_c, 0, 77, 97
2, 70271, Note_on_c, 0, 77, 0
2, 70271, Note_on_c, 0, 55, 0
2, 70272, Note_on_c, 0, 51, 97
2, 70272, Note_on_c, 0, 79, 97
2, 70463, Note_on_c, 0, 79, 0
2, 70464, Note_on_c, 0, 75, 97
2, 70655, Note_on_c, 0, 75, 0
2, 70655, Note_on_c, 0, 51, 0
2, 70656, Note_on_c, 0, 56, 97
2, 70656, Note_on_c, 0, 73, 97
2, 70847, Note_on_c, 0, 73, 0
2, 70848, Note_on_c, 0, 72, 97
2, 71032, Note_on_c, 0, 72, 0
2, 71039, Note_on_c, 0, 56, 0
2, 71040, Note_on_c, 0, 60, 97
2, 71040, Note_on_c, 0, 77, 97
2, 71423, Note_on_c, 0, 60, 0
2, 71424, Note_on_c, 0, 56, 97
2, 71480, Note_on_c, 0, 77, 0
2, 71520, Note_on_c, 0, 72, 97
2, 71615, Note_on_c, 0, 72, 0
2, 71616, Note_on_c, 0, 77, 97
2, 71711, Note_on_c, 0, 77, 0
2, 71712, Note_on_c, 0, 79, 97
2, 71807, Note_on_c, 0, 79, 0
2, 71807, Note_on_c, 0, 56, 0
2, 71808, Note_on_c, 0, 53, 97
2, 71808, Note_on_c, 0, 80, 97
2, 71999, Note_on_c, 0, 80, 0
2, 72000, Note_on_c, 0, 77, 97
2, 72191, Note_on_c, 0, 77, 0
2, 72191, Note_on_c, 0, 53, 0
2, 72192, Note_on_c, 0, 58, 97
2, 72192, Note_on_c, 0, 75, 97
2, 72383, Note_on_c, 0, 75, 0
2, 72384, Note_on_c, 0, 72, 97
2, 72575, Note_on_c, 0, 72, 0
2, 72575, Note_on_c, 0, 58, 0
2, 72576, Note_on_c, 0, 56, 97
2, 72578, Note_on_c, 0, 74, 97
2, 72936, Note_on_c, 0, 74, 0
2, 72959, Note_on_c, 0, 56, 0
2, 72960, Note_on_c, 0, 55, 97
2, 73056, Note_on_c, 0, 77, 97
2, 73151, Note_on_c, 0, 77, 0
2, 73152, Note_on_c, 0, 79, 97
2, 73247, Note_on_c, 0, 79, 0
2, 73248, Note_on_c, 0, 80, 97
2, 73343, Note_on_c, 0, 80, 0
2, 73343, Note_on_c, 0, 55, 0
2, 73344, Note_on_c, 0, 53, 97
2, 73344, Note_on_c, 0, 82, 97
2, 73439, Note_on_c, 0, 82, 0
2, 73440, Note_on_c, 0, 80, 97
2, 73535, Note_on_c, 0, 80, 0
2, 73536, Note_on_c, 0, 79, 97
2, 73631, Note_on_c, 0, 79, 0
2, 73632, Note_on_c, 0, 80, 97
2, 73727, Note_on_c, 0, 80, 0
2, 73727, Note_on_c, 0, 53, 0
2, 73728, Note_on_c, 0, 52, 97
2, 73728, Note_on_c, 0, 82, 97
2, 73823, Note_on_c, 0, 82, 0
2, 73824, Note_on_c, 0, 80, 97
2, 73919, Note_on_c, 0, 80, 0
2, 73920, Note_on_c, 0, 79, 97
2, 74111, Note_on_c, 0, 52, 0
2, 74112, Note_on_c, 0, 55, 97
2, 74180, Note_on_c, 0, 79, 0
2, 74208, Note_on_c, 0, 77, 97
2, 74303, Note_on_c, 0, 77, 0
2, 74304, Note_on_c, 0, 76, 97
2, 74495, Note_on_c, 0, 55, 0
2, 74496, Note_on_c, 0, 60, 97
2, 74564, Note_on_c, 0, 76, 0
2, 74592, Note_on_c, 0, 74, 97
2, 74687, Note_on_c, 0, 74, 0
2, 74688, Note_on_c, 0, 72, 97
2, 74879, Note_on_c, 0, 60, 0
2, 74880, Note_on_c, 0, 52, 97
2, 74975, Note_on_c, 0, 72, 0
2, 74976, Note_on_c, 0, 79, 97
2, 75071, Note_on_c, 0, 79, 0
2, 75072, Note_on_c, 0, 80, 97
2, 75167, Note_on_c, 0, 80, 0
2, 75168, Note_on_c, 0, 82, 97
2, 75263, Note_on_c, 0, 82, 0
2, 75263, Note_on_c, 0, 52, 0
2, 75264, Note_on_c, 0, 53, 97
2, 75264, Note_on_c, 0, 80, 97
2, 75359, Note_on_c, 0, 80, 0
2, 75360, Note_on_c, 0, 79, 97
2, 75455, Note_on_c, 0, 79, 0
2, 75456, Note_on_c, 0, 77, 97
2, 75647, Note_on_c, 0, 53, 0
2, 75648, Note_on_c, 0, 56, 97
2, 75716, Note_on_c, 0, 77, 0
2, 75744, Note_on_c, 0, 75, 97
2, 75839, Note_on_c, 0, 75, 0
2, 75840, Note_on_c, 0, 73, 97
2, 76031, Note_on_c, 0, 56, 0
2, 76032, Note_on_c, 0, 53, 97
2, 76100, Note_on_c, 0, 73, 0
2, 76128, Note_on_c, 0, 72, 97
2, 76223, Note_on_c, 0, 72, 0
2, 76224, Note_on_c, 0, 70, 97
2, 76415, Note_on_c, 0, 53, 0
2, 76416, Note_on_c, 0, 49, 97
2, 76504, Note_on_c, 0, 70, 0
2, 76512, Note_on_c, 0, 77, 97
2, 76607, Note_on_c, 0, 77, 0
2, 76608, Note_on_c, 0, 79, 97
2, 76703, Note_on_c, 0, 79, 0
2, 76704, Note_on_c, 0, 80, 97
2, 76799, Note_on_c, 0, 80, 0
2, 76799, Note_on_c, 0, 49, 0
2, 76800, Note_on_c, 0, 46, 97
2, 76800, Note_on_c, 0, 79, 97
2, 76896, Note_on_c, 0, 77, 97
2, 76960, Note_on_c, 0, 79, 0
2, 76991, Note_on_c, 0, 77, 0
2, 76992, Note_on_c, 0, 76, 97
2, 77087, Note_on_c, 0, 76, 0
2, 77088, Note_on_c, 0, 77, 97
2, 77183, Note_on_c, 0, 77, 0
2, 77183, Note_on_c, 0, 46, 0
2, 77184, Note_on_c, 0, 43, 97
2, 77184, Note_on_c, 0, 82, 97
2, 77280, Note_on_c, 0, 77, 97
2, 77374, Note_on_c, 0, 82, 0
2, 77375, Note_on_c, 0, 77, 0
2, 77376, Note_on_c, 0, 76, 97
2, 77471, Note_on_c, 0, 76, 0
2, 77472, Note_on_c, 0, 77, 97
2, 77567, Note_on_c, 0, 77, 0
2, 77567, Note_on_c, 0, 43, 0
2, 77568, Note_on_c, 0, 48, 97
2, 77568, Note_on_c, 0, 80, 97
2, 77664, Note_on_c, 0, 77, 97
2, 77748, Note_on_c, 0, 80, 0
2, 77759, Note_on_c, 0, 77, 0
2, 77760, Note_on_c, 0, 76, 97
2, 77855, Note_on_c, 0, 76, 0
2, 77856, Note_on_c, 0, 77, 97
2, 77951, Note_on_c, 0, 77, 0
2, 77951, Note_on_c, 0, 48, 0
2, 77952, Note_on_c, 0, 36, 97
2, 77952, Note_on_c, 0, 79, 97
2, 78048, Note_on_c, 0, 77, 97
2, 78062, Note_on_c, 0, 79, 0
2, 78143, Note_on_c, 0, 77, 0
2, 78144, Note_on_c, 0, 76, 97
2, 78239, Note_on_c, 0, 76, 0
2, 78240, Note_on_c, 0, 77, 97
2, 78335, Note_on_c, 0, 77, 0
2, 78335, Note_on_c, 0, 36, 0
2, 78336, Note_on_c, 0, 41, 97
2, 78336, Note_on_c, 0, 77, 97
2, 78527, Note_on_c, 0, 41, 0
2, 78528, Note_on_c, 0, 43, 97
2, 78623, Note_on_c, 0, 43, 0
2, 78624, Note_on_c, 0, 44, 97
2, 78719, Note_on_c, 0, 44, 0
2, 78720, Note_on_c, 0, 46, 97
2, 78815, Note_on_c, 0, 46, 0
2, 78816, Note_on_c, 0, 48, 97
2, 78911, Note_on_c, 0, 48, 0
2, 78912, Note_on_c, 0, 50, 97
2, 79007, Note_on_c, 0, 50, 0
2, 79008, Note_on_c, 0, 52, 97
2, 79103, Note_on_c, 0, 52, 0
2, 79103, Note_on_c, 0, 77, 0
2, 79104, Note_on_c, 0, 53, 97
2, 79200, Note_on_c, 0, 75, 97
2, 79295, Note_on_c, 0, 75, 0
2, 79296, Note_on_c, 0, 74, 97
2, 79391, Note_on_c, 0, 74, 0
2, 79392, Note_on_c, 0, 75, 97
2, 79464, Note_on_c, 0, 53, 0
2, 79487, Note_on_c, 0, 75, 0
2, 79488, Note_on_c, 0, 51, 97
2, 79488, Note_on_c, 0, 77, 97
2, 79583, Note_on_c, 0, 77, 0
2, 79584, Note_on_c, 0, 74, 97
2, 79679, Note_on_c, 0, 74, 0
2, 79680, Note_on_c, 0, 75, 97
2, 79775, Note_on_c, 0, 75, 0
2, 79776, Note_on_c, 0, 77, 97
2, 79871, Note_on_c, 0, 77, 0
2, 79871, Note_on_c, 0, 51, 0
2, 79872, Note_on_c, 0, 50, 97
2, 79872, Note_on_c, 0, 70, 97
2, 79967, Note_on_c, 0, 70, 0
2, 79968, Note_on_c, 0, 74, 97
2, 80063, Note_on_c, 0, 74, 0
2, 80064, Note_on_c, 0, 77, 97
2, 80159, Note_on_c, 0, 77, 0
2, 80160, Note_on_c, 0, 79, 97
2, 80255, Note_on_c, 0, 79, 0
2, 80255, Note_on_c, 0, 50, 0
2, 80256, Note_on_c, 0, 53, 97
2, 80256, Note_on_c, 0, 80, 97
2, 80639, Note_on_c, 0, 53, 0
2, 80640, Note_on_c, 0, 50, 97
2, 80696, Note_on_c, 0, 80, 0
2, 80736, Note_on_c, 0, 79, 97
2, 80831, Note_on_c, 0, 79, 0
2, 80832, Note_on_c, 0, 77, 97
2, 80927, Note_on_c, 0, 77, 0
2, 80928, Note_on_c, 0, 80, 97
2, 81023, Note_on_c, 0, 80, 0
2, 81023, Note_on_c, 0, 50, 0
2, 81024, Note_on_c, 0, 46, 97
2, 81024, Note_on_c, 0, 79, 97
2, 81119, Note_on_c, 0, 79, 0
2, 81120, Note_on_c, 0, 77, 97
2, 81215, Note_on_c, 0, 77, 0
2, 81216, Note_on_c, 0, 75, 97
2, 81311, Note_on_c, 0, 75, 0
2, 81312, Note_on_c, 0, 74, 97
2, 81407, Note_on_c, 0, 74, 0
2, 81407, Note_on_c, 0, 46, 0
2, 81408, Note_on_c, 0, 55, 97
2, 81408, Note_on_c, 0, 75, 97
2, 81503, Note_on_c, 0, 75, 0
2, 81504, Note_on_c, 0, 70, 97
2, 81599, Note_on_c, 0, 70, 0
2, 81600, Note_on_c, 0, 75, 97
2, 81695, Note_on_c, 0, 75, 0
2, 81696, Note_on_c, 0, 77, 97
2, 81791, Note_on_c, 0, 77, 0
2, 81791, Note_on_c, 0, 55, 0
2, 81792, Note_on_c, 0, 58, 97
2, 81792, Note_on_c, 0, 79, 97
2, 82175, Note_on_c, 0, 58, 0
2, 82176, Note_on_c, 0, 51, 97
2, 82232, Note_on_c, 0, 79, 0
2, 82272, Note_on_c, 0, 77, 97
2, 82367, Note_on_c, 0, 77, 0
2, 82368, Note_on_c, 0, 75, 97
2, 82463, Note_on_c, 0, 75, 0
2, 82464, Note_on_c, 0, 79, 97
2, 82559, Note_on_c, 0, 79, 0
2, 82559, Note_on_c, 0, 51, 0
2, 82560, Note_on_c, 0, 55, 97
2, 82560, Note_on_c, 0, 77, 97
2, 82655, Note_on_c, 0, 77, 0
2, 82655, Note_on_c, 0, 75, 97
2, 82750, Note_on_c, 0, 75, 0
2, 82750, Note_on_c, 0, 74, 97
2, 82845, Note_on_c, 0, 74, 0
2, 82845, Note_on_c, 0, 72, 97
2, 82914, Note_on_c, 0, 72, 0
2, 82943, Note_on_c, 0, 55, 0
2, 82944, Note_on_c, 0, 45, 97
2, 82944, Note_on_c, 0, 82, 97
2, 83039, Note_on_c, 0, 82, 0
2, 83040, Note_on_c, 0, 81, 97
2, 83135, Note_on_c, 0, 81, 0
2, 83136, Note_on_c, 0, 79, 97
2, 83231, Note_on_c, 0, 79, 0
2, 83232, Note_on_c, 0, 78, 97
2, 83327, Note_on_c, 0, 78, 0
2, 83327, Note_on_c, 0, 45, 0
2, 83328, Note_on_c, 0, 54, 97
2, 83328, Note_on_c, 0, 75, 97
2, 83519, Note_on_c, 0, 75, 0
2, 83520, Note_on_c, 0, 74, 97
2, 83711, Note_on_c, 0, 54, 0
2, 83712, Note_on_c, 0, 55, 97
2, 83780, Note_on_c, 0, 74, 0
2, 83808, Note_on_c, 0, 79, 97
2, 83903, Note_on_c, 0, 79, 0
2, 83904, Note_on_c, 0, 81, 97
2, 83999, Note_on_c, 0, 81, 0
2, 84000, Note_on_c, 0, 82, 97
2, 84095, Note_on_c, 0, 82, 0
2, 84095, Note_on_c, 0, 55, 0
2, 84096, Note_on_c, 0, 43, 97
2, 84096, Note_on_c, 0, 73, 97
2, 84287, Note_on_c, 0, 73, 0
2, 84288, Note_on_c, 0, 74, 97
2, 84479, Note_on_c, 0, 43, 0
2, 84480, Note_on_c, 0, 50, 97
2, 84548, Note_on_c, 0, 74, 0
2, 84576, Note_on_c, 0, 78, 97
2, 84671, Note_on_c, 0, 78, 0
2, 84672, Note_on_c, 0, 79, 97
2, 84767, Note_on_c, 0, 79, 0
2, 84768, Note_on_c, 0, 81, 97
2, 84863, Note_on_c, 0, 81, 0
2, 84863, Note_on_c, 0, 50, 0
2, 84864, Note_on_c, 0, 57, 97
2, 84864, Note_on_c, 0, 72, 97
2, 84959, Note_on_c, 0, 72, 0
2, 84960, Note_on_c, 0, 75, 97
2, 85055, Note_on_c, 0, 75, 0
2, 85056, Note_on_c, 0, 74, 97
2, 85151, Note_on_c, 0, 74, 0
2, 85152, Note_on_c, 0, 72, 97
2, 85247, Note_on_c, 0, 72, 0
2, 85247, Note_on_c, 0, 57, 0
2, 85248, Note_on_c, 0, 60, 97
2, 85248, Note_on_c, 0, 78, 97
2, 85343, Note_on_c, 0, 78, 0
2, 85344, Note_on_c, 0, 74, 97
2, 85439, Note_on_c, 0, 74, 0
2, 85440, Note_on_c, 0, 76, 97
2, 85535, Note_on_c, 0, 76, 0
2, 85536, Note_on_c, 0, 78, 97
2, 85631, Note_on_c, 0, 78, 0
2, 85631, Note_on_c, 0, 60, 0
2, 85632, Note_on_c, 0, 50, 97
2, 85632, Note_on_c, 0, 79, 97
2, 85727, Note_on_c, 0, 79, 0
2, 85728, Note_on_c, 0, 81, 97
2, 85823, Note_on_c, 0, 81, 0
2, 85824, Note_on_c, 0, 82, 97
2, 85919, Note_on_c, 0, 82, 0
2, 85920, Note_on_c, 0, 84, 97
2, 86010, Note_on_c, 0, 84, 0
2, 86015, Note_on_c, 0, 50, 0
2, 86016, Note_on_c, 0, 55, 97
2, 86016, Note_on_c, 0, 82, 97
2, 86112, Note_on_c, 0, 81, 97
2, 86126, Note_on_c, 0, 82, 0
2, 86207, Note_on_c, 0, 81, 0
2, 86208, Note_on_c, 0, 79, 97
2, 86303, Note_on_c, 0, 79, 0
2, 86304, Note_on_c, 0, 78, 97
2, 86399, Note_on_c, 0, 55, 0
2, 86400, Note_on_c, 0, 57, 97
2, 86514, Note_on_c, 0, 78, 0
2, 86592, Note_on_c, 0, 79, 97
2, 86783, Note_on_c, 0, 57, 0
2, 86784, Note_on_c, 0, 58, 97
2, 86932, Note_on_c, 0, 79, 0
2, 86976, Note_on_c, 0, 74, 97
2, 87167, Note_on_c, 0, 58, 0
2, 87168, Note_on_c, 0, 59, 97
2, 87316, Note_on_c, 0, 74, 0
2, 87360, Note_on_c, 0, 75, 97
2, 87551, Note_on_c, 0, 59, 0
2, 87552, Note_on_c, 0, 60, 97
2, 87700, Note_on_c, 0, 75, 0
2, 87744, Note_on_c, 0, 71, 97
2, 87935, Note_on_c, 0, 60, 0
2, 87936, Note_on_c, 0, 62, 97
2, 88084, Note_on_c, 0, 71, 0
2, 88128, Note_on_c, 0, 72, 97
2, 88319, Note_on_c, 0, 62, 0
2, 88320, Note_on_c, 0, 63, 97
2, 88405, Note_on_c, 0, 72, 0
2, 88416, Note_on_c, 0, 70, 97
2, 88511, Note_on_c, 0, 70, 0
2, 88512, Note_on_c, 0, 68, 97
2, 88607, Note_on_c, 0, 68, 0
2, 88608, Note_on_c, 0, 67, 97
2, 88703, Note_on_c, 0, 67, 0
2, 88703, Note_on_c, 0, 63, 0
2, 88704, Note_on_c, 0, 60, 97
2, 88704, Note_on_c, 0, 68, 97
2, 88895, Note_on_c, 0, 68, 0
2, 88896, Note_on_c, 0, 72, 97
2, 89076, Note_on_c, 0, 72, 0
2, 89087, Note_on_c, 0, 60, 0
2, 89088, Note_on_c, 0, 57, 97
2, 89088, Note_on_c, 0, 66, 97
2, 89178, Note_on_c, 0, 66, 0
2, 89184, Note_on_c, 0, 75, 97
2, 89279, Note_on_c, 0, 75, 0
2, 89280, Note_on_c, 0, 74, 97
2, 89375, Note_on_c, 0, 74, 0
2, 89376, Note_on_c, 0, 72, 97
2, 89455, Note_on_c, 0, 72, 0
2, 89471, Note_on_c, 0, 57, 0
2, 89472, Note_on_c, 0, 55, 97
2, 89472, Note_on_c, 0, 82, 97
2, 89742, Note_on_c, 0, 82, 0
2, 89760, Note_on_c, 0, 81, 97
2, 89855, Note_on_c, 0, 81, 0
2, 89855, Note_on_c, 0, 55, 0
2, 89856, Note_on_c, 0, 62, 97
2, 89856, Note_on_c, 0, 79, 97
2, 90240, Note_on_c, 0, 50, 97
2, 90288, Note_on_c, 0, 78, 97
2, 90306, Note_on_c, 0, 79, 0
2, 90336, Note_on_c, 0, 79, 97
2, 90352, Note_on_c, 0, 78, 0
2, 90384, Note_on_c, 0, 78, 97
2, 90400, Note_on_c, 0, 79, 0
2, 90574, Note_on_c, 0, 78, 0
2, 90576, Note_on_c, 0, 79, 97
2, 90621, Note_on_c, 0, 79, 0
2, 90623, Note_on_c, 0, 50, 0
2, 90623, Note_on_c, 0, 62, 0
2, 90624, Note_on_c, 0, 55, 97
2, 90624, Note_on_c, 0, 79, 97
2, 91007, Note_on_c, 0, 55, 0
2, 91008, Note_on_c, 0, 57, 97
2, 91391, Note_on_c, 0, 57, 0
2, 91391, Note_on_c, 0, 79, 0
2, 91392, Note_on_c, 0, 59, 97
2, 91488, Note_on_c, 0, 77, 97
2, 91583, Note_on_c, 0, 77, 0
2, 91584, Note_on_c, 0, 79, 97
2, 91679, Note_on_c, 0, 79, 0
2, 91680, Note_on_c, 0, 80, 97
2, 91775, Note_on_c, 0, 80, 0
2, 91775, Note_on_c, 0, 59, 0
2, 91776, Note_on_c, 0, 55, 97
2, 91776, Note_on_c, 0, 79, 97
2, 91871, Note_on_c, 0, 79, 0
2, 91872, Note_on_c, 0, 77, 97
2, 91967, Note_on_c, 0, 77, 0
2, 91968, Note_on_c, 0, 75, 97
2, 92063, Note_on_c, 0, 75, 0
2, 92064, Note_on_c, 0, 74, 97
2, 92159, Note_on_c, 0, 74, 0
2, 92159, Note_on_c, 0, 55, 0
2, 92160, Note_on_c, 0, 60, 97
2, 92160, Note_on_c, 0, 77, 97
2, 92255, Note_on_c, 0, 77, 0
2, 92256, Note_on_c, 0, 75, 97
2, 92351, Note_on_c, 0, 75, 0
2, 92352, Note_on_c, 0, 74, 97
2, 92447, Note_on_c, 0, 74, 0
2, 92448, Note_on_c, 0, 72, 97
2, 92543, Note_on_c, 0, 72, 0
2, 92543, Note_on_c, 0, 60, 0
2, 92544, Note_on_c, 0, 63, 97
2, 92544, Note_on_c, 0, 79, 97
2, 92924, Note_on_c, 0, 79, 0
2, 92927, Note_on_c, 0, 63, 0
2, 92928, Note_on_c, 0, 60, 97
2, 93024, Note_on_c, 0, 75, 97
2, 93119, Note_on_c, 0, 75, 0
2, 93120, Note_on_c, 0, 77, 97
2, 93215, Note_on_c, 0, 77, 0
2, 93216, Note_on_c, 0, 79, 97
2, 93311, Note_on_c, 0, 79, 0
2, 93311, Note_on_c, 0, 60, 0
2, 93312, Note_on_c, 0, 57, 97
2, 93312, Note_on_c, 0, 77, 97
2, 93407, Note_on_c, 0, 77, 0
2, 93408, Note_on_c, 0, 75, 97
2, 93503, Note_on_c, 0, 75, 0
2, 93504, Note_on_c, 0, 74, 97
2, 93599, Note_on_c, 0, 74, 0
2, 93600, Note_on_c, 0, 72, 97
2, 93695, Note_on_c, 0, 72, 0
2, 93695, Note_on_c, 0, 57, 0
2, 93696, Note_on_c, 0, 58, 97
2, 93696, Note_on_c, 0, 75, 97
2, 93791, Note_on_c, 0, 75, 0
2, 93792, Note_on_c, 0, 74, 97
2, 93887, Note_on_c, 0, 74, 0
2, 93888, Note_on_c, 0, 72, 97
2, 93983, Note_on_c, 0, 72, 0
2, 93984, Note_on_c, 0, 70, 97
2, 94079, Note_on_c, 0, 70, 0
2, 94079, Note_on_c, 0, 58, 0
2, 94080, Note_on_c, 0, 62, 97
2, 94080, Note_on_c, 0, 79, 97
2, 94460, Note_on_c, 0, 79, 0
2, 94463, Note_on_c, 0, 62, 0
2, 94464, Note_on_c, 0, 58, 97
2, 94560, Note_on_c, 0, 74, 97
2, 94655, Note_on_c, 0, 74, 0
2, 94656, Note_on_c, 0, 75, 97
2, 94751, Note_on_c, 0, 75, 0
2, 94752, Note_on_c, 0, 77, 97
2, 94847, Note_on_c, 0, 77, 0
2, 94847, Note_on_c, 0, 58, 0
2, 94848, Note_on_c, 0, 55, 97
2, 94848, Note_on_c, 0, 75, 97
2, 94943, Note_on_c, 0, 75, 0
2, 94944, Note_on_c, 0, 74, 97
2, 95039, Note_on_c, 0, 74, 0
2, 95040, Note_on_c, 0, 72, 97
2, 95135, Note_on_c, 0, 72, 0
2, 95136, Note_on_c, 0, 70, 97
2, 95231, Note_on_c, 0, 70, 0
2, 95231, Note_on_c, 0, 55, 0
2, 95232, Note_on_c, 0, 57, 97
2, 95232, Note_on_c, 0, 74, 97
2, 95327, Note_on_c, 0, 74, 0
2, 95328, Note_on_c, 0, 72, 97
2, 95423, Note_on_c, 0, 72, 0
2, 95424, Note_on_c, 0, 70, 97
2, 95519, Note_on_c, 0, 70, 0
2, 95520, Note_on_c, 0, 69, 97
2, 95615, Note_on_c, 0, 69, 0
2, 95615, Note_on_c, 0, 57, 0
2, 95616, Note_on_c, 0, 60, 97
2, 95616, Note_on_c, 0, 79, 97
2, 95996, Note_on_c, 0, 79, 0
2, 95999, Note_on_c, 0, 60, 0
2, 96000, Note_on_c, 0, 57, 97
2, 96096, Note_on_c, 0, 72, 97
2, 96191, Note_on_c, 0, 72, 0
2, 96192, Note_on_c, 0, 74, 97
2, 96287, Note_on_c, 0, 74, 0
2, 96288, Note_on_c, 0, 75, 97
2, 96383, Note_on_c, 0, 75, 0
2, 96383, Note_on_c, 0, 57, 0
2, 96384, Note_on_c, 0, 54, 97
2, 96384, Note_on_c, 0, 74, 97
2, 96479, Note_on_c, 0, 74, 0
2, 96480, Note_on_c, 0, 72, 97
2, 96575, Note_on_c, 0, 72, 0
2, 96576, Note_on_c, 0, 70, 97
2, 96671, Note_on_c, 0, 70, 0
2, 96672, Note_on_c, 0, 69, 97
2, 96767, Note_on_c, 0, 69, 0
2, 96767, Note_on_c, 0, 54, 0
2, 96768, Note_on_c, 0, 55, 97
2, 96768, Note_on_c, 0, 72, 97
2, 96863, Note_on_c, 0, 72, 0
2, 96864, Note_on_c, 0, 70, 97
2, 96959, Note_on_c, 0, 70, 0
2, 96960, Note_on_c, 0, 69, 97
2, 97055, Note_on_c, 0, 69, 0
2, 97056, Note_on_c, 0, 67, 97
2, 97151, Note_on_c, 0, 55, 0
2, 97152, Note_on_c, 0, 58, 97
2, 97152, Note_on_c, 0, 79, 97
2, 97246, Note_on_c, 0, 67, 0
2, 97532, Note_on_c, 0, 79, 0
2, 97535, Note_on_c, 0, 58, 0
2, 97536, Note_on_c, 0, 55, 97
2, 97632, Note_on_c, 0, 70, 97
2, 97727, Note_on_c, 0, 70, 0
2, 97728, Note_on_c, 0, 72, 97
2, 97823, Note_on_c, 0, 72, 0
2, 97824, Note_on_c, 0, 74, 97
2, 97919, Note_on_c, 0, 74, 0
2, 97919, Note_on_c, 0, 55, 0
2, 97920, Note_on_c, 0, 51, 97
2, 97920, Note_on_c, 0, 72, 97
2, 98015, Note_on_c, 0, 72, 0
2, 98016, Note_on_c, 0, 70, 97
2, 98111, Note_on_c, 0, 70, 0
2, 98112, Note_on_c, 0, 68, 97
2, 98207, Note_on_c, 0, 68, 0
2, 98208, Note_on_c, 0, 67, 97
2, 98303, Note_on_c, 0, 67, 0
2, 98303, Note_on_c, 0, 51, 0
2, 98304, Note_on_c, 0, 48, 97
2, 98304, Note_on_c, 0, 68, 97
2, 98495, Note_on_c, 0, 48, 0
2, 98496, Note_on_c, 0, 50, 97
2, 98591, Note_on_c, 0, 50, 0
2, 98592, Note_on_c, 0, 51, 97
2, 98687, Note_on_c, 0, 51, 0
2, 98688, Note_on_c, 0, 53, 97
2, 98783, Note_on_c, 0, 53, 0
2, 98784, Note_on_c, 0, 55, 97
2, 98879, Note_on_c, 0, 55, 0
2, 98880, Note_on_c, 0, 56, 97
2, 98975, Note_on_c, 0, 56, 0
2, 98976, Note_on_c, 0, 58, 97
2, 99071, Note_on_c, 0, 58, 0
2, 99071, Note_on_c, 0, 68, 0
2, 99072, Note_on_c, 0, 60, 97
2, 99168, Note_on_c, 0, 68, 97
2, 99263, Note_on_c, 0, 68, 0
2, 99264, Note_on_c, 0, 48, 97
2, 99264, Note_on_c, 0, 67, 97
2, 99359, Note_on_c, 0, 67, 0
2, 99360, Note_on_c, 0, 68, 97
2, 99452, Note_on_c, 0, 60, 0
2, 99455, Note_on_c, 0, 68, 0
2, 99456, Note_on_c, 0, 60, 97
2, 99456, Note_on_c, 0, 70, 97
2, 99551, Note_on_c, 0, 70, 0
2, 99552, Note_on_c, 0, 48, 0
2, 99552, Note_on_c, 0, 68, 97
2, 99647, Note_on_c, 0, 68, 0
2, 99648, Note_on_c, 0, 67, 97
2, 99743, Note_on_c, 0, 67, 0
2, 99744, Note_on_c, 0, 68, 97
2, 99839, Note_on_c, 0, 68, 0
2, 99840, Note_on_c, 0, 75, 97
2, 99936, Note_on_c, 0, 48, 97
2, 99976, Note_on_c, 0, 60, 0
2, 100031, Note_on_c, 0, 48, 0
2, 100032, Note_on_c, 0, 50, 97
2, 100127, Note_on_c, 0, 50, 0
2, 100128, Note_on_c, 0, 51, 97
2, 100223, Note_on_c, 0, 51, 0
2, 100224, Note_on_c, 0, 53, 97
2, 100319, Note_on_c, 0, 53, 0
2, 100320, Note_on_c, 0, 55, 97
2, 100415, Note_on_c, 0, 55, 0
2, 100416, Note_on_c, 0, 56, 97
2, 100511, Note_on_c, 0, 56, 0
2, 100512, Note_on_c, 0, 58, 97
2, 100607, Note_on_c, 0, 58, 0
2, 100607, Note_on_c, 0, 75, 0
2, 100608, Note_on_c, 0, 60, 97
2, 100704, Note_on_c, 0, 72, 97
2, 100799, Note_on_c, 0, 72, 0
2, 100800, Note_on_c, 0, 48, 97
2, 100800, Note_on_c, 0, 71, 97
2, 100895, Note_on_c, 0, 71, 0
2, 100896, Note_on_c, 0, 72, 97
2, 100988, Note_on_c, 0, 60, 0
2, 100991, Note_on_c, 0, 72, 0
2, 100992, Note_on_c, 0, 60, 97
2, 100992, Note_on_c, 0, 74, 97
2, 101040, Note_on_c, 0, 48, 0
2, 101087, Note_on_c, 0, 74, 0
2, 101088, Note_on_c, 0, 72, 97
2, 101183, Note_on_c, 0, 72, 0
2, 101184, Note_on_c, 0, 71, 97
2, 101279, Note_on_c, 0, 71, 0
2, 101280, Note_on_c, 0, 72, 97
2, 101375, Note_on_c, 0, 72, 0
2, 101376, Note_on_c, 0, 78, 97
2, 101536, Note_on_c, 0, 78, 0
2, 101568, Note_on_c, 0, 75, 97
2, 101760, Note_on_c, 0, 48, 97
2, 101951, Note_on_c, 0, 75, 0
2, 101952, Note_on_c, 0, 74, 97
2, 102042, Note_on_c, 0, 60, 0
2, 102143, Note_on_c, 0, 74, 0
2, 102143, Note_on_c, 0, 48, 0
2, 102144, Note_on_c, 0, 46, 97
2, 102144, Note_on_c, 0, 79, 97
2, 102304, Note_on_c, 0, 79, 0
2, 102336, Note_on_c, 0, 74, 97
2, 102527, Note_on_c, 0, 46, 0
2, 102528, Note_on_c, 0, 58, 97
2, 102719, Note_on_c, 0, 74, 0
2, 102720, Note_on_c, 0, 72, 97
2, 102911, Note_on_c, 0, 72, 0
2, 102911, Note_on_c, 0, 58, 0
2, 102912, Note_on_c, 0, 54, 97
2, 102912, Note_on_c, 0, 81, 97
2, 103072, Note_on_c, 0, 81, 0
2, 103104, Note_on_c, 0, 72, 97
2, 103295, Note_on_c, 0, 54, 0
2, 103296, Note_on_c, 0, 50, 97
2, 103487, Note_on_c, 0, 72, 0
2, 103488, Note_on_c, 0, 70, 97
2, 103679, Note_on_c, 0, 50, 0
2, 103680, Note_on_c, 0, 55, 97
2, 103708, Note_on_c, 0, 70, 0
2, 103776, Note_on_c, 0, 74, 97
2, 103871, Note_on_c, 0, 74, 0
2, 103872, Note_on_c, 0, 72, 97
2, 103967, Note_on_c, 0, 72, 0
2, 103968, Note_on_c, 0, 70, 97
2, 104063, Note_on_c, 0, 70, 0
2, 104063, Note_on_c, 0, 55, 0
2, 104064, Note_on_c, 0, 51, 97
2, 104064, Note_on_c, 0, 79, 97
2, 104159, Note_on_c, 0, 79, 0
2, 104160, Note_on_c, 0, 70, 97
2, 104255, Note_on_c, 0, 70, 0
2, 104256, Note_on_c, 0, 69, 97
2, 104351, Note_on_c, 0, 69, 0
2, 104352, Note_on_c, 0, 67, 97
2, 104447, Note_on_c, 0, 51, 0
2, 104472, Note_on_c, 0, 67, 0
2, 104472, Note_on_c, 0, 82, 97
2, 104472, Note_on_c, 0, 49, 97
2, 104476, Note_on_c, 0, 52, 97
2, 104480, Note_on_c, 0, 55, 97
2, 105335, Note_on_c, 0, 82, 0
2, 105336, Note_on_c, 0, 81, 97
2, 105431, Note_on_c, 0, 81, 0
2, 105432, Note_on_c, 0, 79, 97
2, 105527, Note_on_c, 0, 79, 0
2, 105528, Note_on_c, 0, 78, 97
2, 105623, Note_on_c, 0, 78, 0
2, 105624, Note_on_c, 0, 79, 97
2, 105719, Note_on_c, 0, 79, 0
2, 105720, Note_on_c, 0, 82, 97
2, 105815, Note_on_c, 0, 82, 0
2, 105816, Note_on_c, 0, 81, 97
2, 105911, Note_on_c, 0, 81, 0
2, 105912, Note_on_c, 0, 79, 97
2, 106007, Note_on_c, 0, 79, 0
2, 106008, Note_on_c, 0, 78, 97
2, 106103, Note_on_c, 0, 78, 0
2, 106104, Note_on_c, 0, 76, 97
2, 106199, Note_on_c, 0, 76, 0
2, 106200, Note_on_c, 0, 74, 97
2, 106272, Note_on_c, 0, 49, 0
2, 106276, Note_on_c, 0, 52, 0
2, 106280, Note_on_c, 0, 55, 0
2, 106295, Note_on_c, 0, 74, 0
2, 106296, Note_on_c, 0, 72, 97
2, 106391, Note_on_c, 0, 72, 0
2, 106392, Note_on_c, 0, 70, 97
2, 106392, Note_on_c, 0, 50, 97
2, 106395, Note_on_c, 0, 55, 97
2, 106398, Note_on_c, 0, 58, 97
2, 106400, Note_on_c, 0, 62, 97
2, 106487, Note_on_c, 0, 70, 0
2, 106488, Note_on_c, 0, 74, 97
2, 106583, Note_on_c, 0, 74, 0
2, 106584, Note_on_c, 0, 72, 97
2, 106679, Note_on_c, 0, 72, 0
2, 106680, Note_on_c, 0, 75, 97
2, 106775, Note_on_c, 0, 75, 0
2, 106776, Note_on_c, 0, 74, 97
2, 106871, Note_on_c, 0, 74, 0
2, 106872, Note_on_c, 0, 79, 97
2, 106967, Note_on_c, 0, 79, 0
2, 106968, Note_on_c, 0, 78, 97
2, 107063, Note_on_c, 0, 78, 0
2, 107064, Note_on_c, 0, 76, 97
2, 107159, Note_on_c, 0, 76, 0
2, 107160, Note_on_c, 0, 74, 97
2, 107255, Note_on_c, 0, 74, 0
2, 107256, Note_on_c, 0, 72, 97
2, 107351, Note_on_c, 0, 72, 0
2, 107352, Note_on_c, 0, 70, 97
2, 107447, Note_on_c, 0, 70, 0
2, 107448, Note_on_c, 0, 69, 97
2, 107543, Note_on_c, 0, 69, 0
2, 107544, Note_on_c, 0, 70, 97
2, 107639, Note_on_c, 0, 70, 0
2, 107640, Note_on_c, 0, 74, 97
2, 107735, Note_on_c, 0, 74, 0
2, 107736, Note_on_c, 0, 70, 97
2, 107831, Note_on_c, 0, 70, 0
2, 107832, Note_on_c, 0, 67, 97
2, 107928, Note_on_c, 0, 61, 97
2, 107930, Note_on_c, 0, 55, 0
2, 107933, Note_on_c, 0, 58, 0
2, 107935, Note_on_c, 0, 62, 0
2, 108215, Note_on_c, 0, 67, 0
2, 108216, Note_on_c, 0, 76, 97
2, 108311, Note_on_c, 0, 76, 0
2, 108312, Note_on_c, 0, 78, 97
2, 108407, Note_on_c, 0, 78, 0
2, 108408, Note_on_c, 0, 79, 97
2, 108455, Note_on_c, 0, 79, 0
2, 108456, Note_on_c, 0, 78, 97
2, 108503, Note_on_c, 0, 78, 0
2, 108504, Note_on_c, 0, 79, 97
2, 108551, Note_on_c, 0, 79, 0
2, 108552, Note_on_c, 0, 78, 97
2, 108599, Note_on_c, 0, 78, 0
2, 108600, Note_on_c, 0, 76, 97
2, 108647, Note_on_c, 0, 76, 0
2, 108648, Note_on_c, 0, 78, 97
2, 108695, Note_on_c, 0, 78, 0
2, 108696, Note_on_c, 0, 79, 97
2, 108791, Note_on_c, 0, 79, 0
2, 108792, Note_on_c, 0, 70, 97
2, 108887, Note_on_c, 0, 70, 0
2, 108888, Note_on_c, 0, 69, 97
2, 108983, Note_on_c, 0, 69, 0
2, 108984, Note_on_c, 0, 67, 97
2, 109079, Note_on_c, 0, 67, 0
2, 109080, Note_on_c, 0, 66, 97
2, 109175, Note_on_c, 0, 66, 0
2, 109176, Note_on_c, 0, 67, 97
2, 109367, Note_on_c, 0, 67, 0
2, 109367, Note_on_c, 0, 61, 0
2, 109368, Note_on_c, 0, 70, 97
2, 109368, Note_on_c, 0, 61, 97
2, 109559, Note_on_c, 0, 61, 0
2, 109560, Note_on_c, 0, 62, 97
2, 109751, Note_on_c, 0, 70, 0
2, 109752, Note_on_c, 0, 72, 97
2, 109847, Note_on_c, 0, 72, 0
2, 109848, Note_on_c, 0, 70, 97
2, 109943, Note_on_c, 0, 70, 0
2, 109943, Note_on_c, 0, 62, 0
2, 109944, Note_on_c, 0, 69, 97
2, 109944, Note_on_c, 0, 60, 97
2, 110039, Note_on_c, 0, 69, 0
2, 110040, Note_on_c, 0, 70, 97
2, 110135, Note_on_c, 0, 70, 0
2, 110135, Note_on_c, 0, 60, 0
2, 110136, Note_on_c, 0, 72, 97
2, 110136, Note_on_c, 0, 58, 97
2, 110231, Note_on_c, 0, 72, 0
2, 110232, Note_on_c, 0, 69, 97
2, 110327, Note_on_c, 0, 69, 0
2, 110327, Note_on_c, 0, 58, 0
2, 110328, Note_on_c, 0, 67, 97
2, 110328, Note_on_c, 0, 57, 97
2, 110423, Note_on_c, 0, 67, 0
2, 110424, Note_on_c, 0, 66, 97
2, 110471, Note_on_c, 0, 66, 0
2, 110472, Note_on_c, 0, 67, 97
2, 110519, Note_on_c, 0, 67, 0
2, 110519, Note_on_c, 0, 57, 0
2, 110520, Note_on_c, 0, 66, 97
2, 110520, Note_on_c, 0, 58, 97
2, 110567, Note_on_c, 0, 66, 0
2, 110568, Note_on_c, 0, 67, 97
2, 110615, Note_on_c, 0, 67, 0
2, 110616, Note_on_c, 0, 66, 97
2, 110663, Note_on_c, 0, 66, 0
2, 110664, Note_on_c, 0, 67, 97
2, 110711, Note_on_c, 0, 67, 0
2, 110711, Note_on_c, 0, 58, 0
2, 110712, Note_on_c, 0, 66, 97
2, 110712, Note_on_c, 0, 60, 97
2, 110759, Note_on_c, 0, 66, 0
2, 110760, Note_on_c, 0, 67, 97
2, 110807, Note_on_c, 0, 67, 0
2, 110808, Note_on_c, 0, 66, 97
2, 110855, Note_on_c, 0, 66, 0
2, 110856, Note_on_c, 0, 67, 97
2, 110903, Note_on_c, 0, 67, 0
2, 110904, Note_on_c, 0, 66, 97
2, 111164, Note_on_c, 0, 66, 0
2, 111250, Note_on_c, 0, 67, 97
2, 111292, Note_on_c, 0, 50, 0
2, 111348, Note_on_c, 0, 67, 0
2, 111349, Note_on_c, 0, 60, 0
2, 111352, Note_on_c, 0, 43, 97
2, 111352, Note_on_c, 0, 67, 97
2, 111352, Note_on_c, 0, 62, 97
2, 111352, Note_on_c, 0, 59, 97
2, 111352, Note_on_c, 0, 55, 97
2, 111531, Note_on_c, 0, 67, 0
2, 111544, Note_on_c, 0, 67, 97
2, 111552, Note_on_c, 0, 59, 0
2, 111552, Note_on_c, 0, 55, 0
2, 111552, Note_on_c, 0, 43, 0
2, 111552, Note_on_c, 0, 62, 0
2, 111639, Note_on_c, 0, 67, 0
2, 111640, Note_on_c, 0, 69, 97
2, 111735, Note_on_c, 0, 69, 0
2, 111736, Note_on_c, 0, 71, 97
2, 111927, Note_on_c, 0, 71, 0
2, 111928, Note_on_c, 0, 72, 97
2, 112119, Note_on_c, 0, 72, 0
2, 112120, Note_on_c, 0, 74, 97
2, 112311, Note_on_c, 0, 74, 0
2, 112312, Note_on_c, 0, 75, 97
2, 112503, Note_on_c, 0, 75, 0
2, 112504, Note_on_c, 0, 77, 97
2, 112599, Note_on_c, 0, 77, 0
2, 112600, Note_on_c, 0, 75, 97
2, 112695, Note_on_c, 0, 75, 0
2, 112696, Note_on_c, 0, 74, 97
2, 112791, Note_on_c, 0, 74, 0
2, 112792, Note_on_c, 0, 75, 97
2, 112887, Note_on_c, 0, 75, 0
2, 112888, Note_on_c, 0, 77, 97
2, 113079, Note_on_c, 0, 77, 0
2, 113080, Note_on_c, 0, 79, 97
2, 113271, Note_on_c, 0, 79, 0
2, 113272, Note_on_c, 0, 80, 97
2, 113452, Note_on_c, 0, 80, 0
2, 113464, Note_on_c, 0, 74, 97
2, 113644, Note_on_c, 0, 74, 0
2, 113656, Note_on_c, 0, 77, 97
2, 113836, Note_on_c, 0, 77, 0
2, 113848, Note_on_c, 0, 71, 97
2, 114028, Note_on_c, 0, 71, 0
2, 114040, Note_on_c, 0, 74, 97
2, 114220, Note_on_c, 0, 74, 0
2, 114232, Note_on_c, 0, 67, 97
2, 114412, Note_on_c, 0, 67, 0
2, 114424, Note_on_c, 0, 79, 97
2, 114519, Note_on_c, 0, 79, 0
2, 114520, Note_on_c, 0, 77, 97
2, 114615, Note_on_c, 0, 77, 0
2, 114616, Note_on_c, 0, 75, 97
2, 114711, Note_on_c, 0, 75, 0
2, 114712, Note_on_c, 0, 74, 97
2, 114807, Note_on_c, 0, 74, 0
2, 114808, Note_on_c, 0, 75, 97
2, 114968, Note_on_c, 0, 75, 0
2, 115000, Note_on_c, 0, 60, 97
2, 115000, Note_on_c, 0, 84, 97
2, 115095, Note_on_c, 0, 60, 0
2, 115096, Note_on_c, 0, 62, 97
2, 115191, Note_on_c, 0, 62, 0
2, 115192, Note_on_c, 0, 63, 97
2, 115383, Note_on_c, 0, 63, 0
2, 115383, Note_on_c, 0, 84, 0
2, 115384, Note_on_c, 0, 65, 97
2, 115384, Note_on_c, 0, 82, 97
2, 115479, Note_on_c, 0, 82, 0
2, 115480, Note_on_c, 0, 80, 97
2, 115575, Note_on_c, 0, 80, 0
2, 115575, Note_on_c, 0, 65, 0
2, 115576, Note_on_c, 0, 67, 97
2, 115576, Note_on_c, 0, 79, 97
2, 115671, Note_on_c, 0, 79, 0
2, 115672, Note_on_c, 0, 77, 97
2, 115767, Note_on_c, 0, 77, 0
2, 115767, Note_on_c, 0, 67, 0
2, 115768, Note_on_c, 0, 68, 97
2, 115768, Note_on_c, 0, 75, 97
2, 115863, Note_on_c, 0, 75, 0
2, 115864, Note_on_c, 0, 74, 97
2, 115959, Note_on_c, 0, 74, 0
2, 115959, Note_on_c, 0, 68, 0
2, 115960, Note_on_c, 0, 70, 97
2, 115960, Note_on_c, 0, 72, 97
2, 116055, Note_on_c, 0, 70, 0
2, 116056, Note_on_c, 0, 68, 97
2, 116151, Note_on_c, 0, 68, 0
2, 116152, Note_on_c, 0, 67, 97
2, 116247, Note_on_c, 0, 67, 0
2, 116248, Note_on_c, 0, 68, 97
2, 116343, Note_on_c, 0, 68, 0
2, 116344, Note_on_c, 0, 70, 97
2, 116420, Note_on_c, 0, 72, 0
2, 116440, Note_on_c, 0, 74, 97
2, 116535, Note_on_c, 0, 74, 0
2, 116535, Note_on_c, 0, 70, 0
2, 116536, Note_on_c, 0, 72, 97
2, 116536, Note_on_c, 0, 76, 97
2, 116631, Note_on_c, 0, 76, 0
2, 116632, Note_on_c, 0, 77, 97
2, 116727, Note_on_c, 0, 77, 0
2, 116727, Note_on_c, 0, 72, 0
2, 116728, Note_on_c, 0, 73, 97
2, 116728, Note_on_c, 0, 79, 97
2, 116823, Note_on_c, 0, 79, 0
2, 116824, Note_on_c, 0, 80, 97
2, 116908, Note_on_c, 0, 73, 0
2, 116919, Note_on_c, 0, 80, 0
2, 116920, Note_on_c, 0, 67, 97
2, 116920, Note_on_c, 0, 82, 97
2, 117015, Note_on_c, 0, 82, 0
2, 117016, Note_on_c, 0, 79, 97
2, 117100, Note_on_c, 0, 67, 0
2, 117111, Note_on_c, 0, 79, 0
2, 117112, Note_on_c, 0, 70, 97
2, 117112, Note_on_c, 0, 76, 97
2, 117272, Note_on_c, 0, 76, 0
2, 117302, Note_on_c, 0, 70, 0
2, 117304, Note_on_c, 0, 64, 97
2, 117304, Note_on_c, 0, 85, 97
2, 117484, Note_on_c, 0, 64, 0
2, 117496, Note_on_c, 0, 67, 97
2, 117574, Note_on_c, 0, 85, 0
2, 117592, Note_on_c, 0, 79, 97
2, 117676, Note_on_c, 0, 67, 0
2, 117687, Note_on_c, 0, 79, 0
2, 117688, Note_on_c, 0, 60, 97
2, 117688, Note_on_c, 0, 80, 97
2, 117783, Note_on_c, 0, 80, 0
2, 117784, Note_on_c, 0, 82, 97
2, 117868, Note_on_c, 0, 60, 0
2, 117879, Note_on_c, 0, 82, 0
2, 117880, Note_on_c, 0, 72, 97
2, 117880, Note_on_c, 0, 80, 97
2, 117975, Note_on_c, 0, 80, 0
2, 117975, Note_on_c, 0, 72, 0
2, 117976, Note_on_c, 0, 70, 97
2, 117976, Note_on_c, 0, 79, 97
2, 118071, Note_on_c, 0, 79, 0
2, 118071, Note_on_c, 0, 70, 0
2, 118072, Note_on_c, 0, 68, 97
2, 118072, Note_on_c, 0, 77, 97
2, 118167, Note_on_c, 0, 77, 0
2, 118167, Note_on_c, 0, 68, 0
2, 118168, Note_on_c, 0, 67, 97
2, 118168, Note_on_c, 0, 76, 97
2, 118263, Note_on_c, 0, 76, 0
2, 118263, Note_on_c, 0, 67, 0
2, 118264, Note_on_c, 0, 68, 97
2, 118264, Note_on_c, 0, 77, 97
2, 118359, Note_on_c, 0, 77, 0
2, 118360, Note_on_c, 0, 79, 97
2, 118455, Note_on_c, 0, 79, 0
2, 118455, Note_on_c, 0, 68, 0
2, 118456, Note_on_c, 0, 65, 97
2, 118456, Note_on_c, 0, 80, 97
2, 118647, Note_on_c, 0, 65, 0
2, 118648, Note_on_c, 0, 67, 97
2, 118696, Note_on_c, 0, 80, 0
2, 118744, Note_on_c, 0, 79, 97
2, 118839, Note_on_c, 0, 79, 0
2, 118839, Note_on_c, 0, 67, 0
2, 118840, Note_on_c, 0, 68, 97
2, 118840, Note_on_c, 0, 77, 97
2, 118935, Note_on_c, 0, 77, 0
2, 118936, Note_on_c, 0, 75, 97
2, 119031, Note_on_c, 0, 75, 0
2, 119031, Note_on_c, 0, 68, 0
2, 119032, Note_on_c, 0, 70, 97
2, 119032, Note_on_c, 0, 74, 97
2, 119127, Note_on_c, 0, 74, 0
2, 119128, Note_on_c, 0, 72, 97
2, 119223, Note_on_c, 0, 72, 0
2, 119223, Note_on_c, 0, 70, 0
2, 119224, Note_on_c, 0, 68, 97
2, 119224, Note_on_c, 0, 74, 97
2, 119319, Note_on_c, 0, 74, 0
2, 119320, Note_on_c, 0, 77, 97
2, 119415, Note_on_c, 0, 77, 0
2, 119415, Note_on_c, 0, 68, 0
2, 119416, Note_on_c, 0, 67, 97
2, 119416, Note_on_c, 0, 75, 97
2, 119511, Note_on_c, 0, 75, 0
2, 119512, Note_on_c, 0, 77, 97
2, 119607, Note_on_c, 0, 77, 0
2, 119607, Note_on_c, 0, 67, 0
2, 119608, Note_on_c, 0, 63, 97
2, 119608, Note_on_c, 0, 79, 97
2, 119799, Note_on_c, 0, 63, 0
2, 119800, Note_on_c, 0, 65, 97
2, 119868, Note_on_c, 0, 79, 0
2, 119896, Note_on_c, 0, 77, 97
2, 119991, Note_on_c, 0, 77, 0
2, 119991, Note_on_c, 0, 65, 0
2, 119992, Note_on_c, 0, 67, 97
2, 119992, Note_on_c, 0, 75, 97
2, 120087, Note_on_c, 0, 75, 0
2, 120088, Note_on_c, 0, 74, 97
2, 120183, Note_on_c, 0, 74, 0
2, 120183, Note_on_c, 0, 67, 0
2, 120184, Note_on_c, 0, 68, 97
2, 120184, Note_on_c, 0, 72, 97
2, 120279, Note_on_c, 0, 72, 0
2, 120280, Note_on_c, 0, 71, 97
2, 120375, Note_on_c, 0, 71, 0
2, 120375, Note_on_c, 0, 68, 0
2, 120376, Note_on_c, 0, 67, 97
2, 120376, Note_on_c, 0, 72, 97
2, 120471, Note_on_c, 0, 72, 0
2, 120472, Note_on_c, 0, 75, 97
2, 120567, Note_on_c, 0, 75, 0
2, 120567, Note_on_c, 0, 67, 0
2, 120568, Note_on_c, 0, 65, 97
2, 120568, Note_on_c, 0, 74, 97
2, 120664, Note_on_c, 0, 80, 97
2, 120688, Note_on_c, 0, 74, 0
2, 120759, Note_on_c, 0, 80, 0
2, 120759, Note_on_c, 0, 65, 0
2, 120760, Note_on_c, 0, 63, 97
2, 120760, Note_on_c, 0, 74, 97
2, 120855, Note_on_c, 0, 74, 0
2, 120856, Note_on_c, 0, 72, 97
2, 120951, Note_on_c, 0, 72, 0
2, 120951, Note_on_c, 0, 63, 0
2, 120952, Note_on_c, 0, 65, 97
2, 120952, Note_on_c, 0, 74, 97
2, 121047, Note_on_c, 0, 74, 0
2, 121048, Note_on_c, 0, 75, 97
2, 121143, Note_on_c, 0, 75, 0
2, 121143, Note_on_c, 0, 65, 0
2, 121144, Note_on_c, 0, 62, 97
2, 121144, Note_on_c, 0, 77, 97
2, 121239, Note_on_c, 0, 77, 0
2, 121240, Note_on_c, 0, 79, 97
2, 121335, Note_on_c, 0, 79, 0
2, 121335, Note_on_c, 0, 62, 0
2, 121336, Note_on_c, 0, 63, 97
2, 121336, Note_on_c, 0, 77, 97
2, 121431, Note_on_c, 0, 77, 0
2, 121432, Note_on_c, 0, 75, 97
2, 121527, Note_on_c, 0, 75, 0
2, 121527, Note_on_c, 0, 63, 0
2, 121528, Note_on_c, 0, 65, 97
2, 121528, Note_on_c, 0, 74, 97
2, 121623, Note_on_c, 0, 74, 0
2, 121624, Note_on_c, 0, 72, 97
2, 121719, Note_on_c, 0, 72, 0
2, 121719, Note_on_c, 0, 65, 0
2, 121720, Note_on_c, 0, 67, 97
2, 121720, Note_on_c, 0, 71, 97
2, 121816, Note_on_c, 0, 79, 97
2, 121840, Note_on_c, 0, 71, 0
2, 121911, Note_on_c, 0, 79, 0
2, 121911, Note_on_c, 0, 67, 0
2, 121912, Note_on_c, 0, 55, 97
2, 121912, Note_on_c, 0, 77, 97
2, 122007, Note_on_c, 0, 77, 0
2, 122007, Note_on_c, 0, 55, 0
2, 122008, Note_on_c, 0, 57, 97
2, 122008, Note_on_c, 0, 75, 97
2, 122103, Note_on_c, 0, 75, 0
2, 122103, Note_on_c, 0, 57, 0
2, 122104, Note_on_c, 0, 59, 97
2, 122104, Note_on_c, 0, 74, 97
2, 122199, Note_on_c, 0, 74, 0
2, 122200, Note_on_c, 0, 77, 97
2, 122295, Note_on_c, 0, 77, 0
2, 122295, Note_on_c, 0, 59, 0
2, 122296, Note_on_c, 0, 60, 97
2, 122296, Note_on_c, 0, 74, 97
2, 122391, Note_on_c, 0, 74, 0
2, 122392, Note_on_c, 0, 72, 97
2, 122487, Note_on_c, 0, 72, 0
2, 122487, Note_on_c, 0, 60, 0
2, 122488, Note_on_c, 0, 62, 97
2, 122488, Note_on_c, 0, 71, 97
2, 122583, Note_on_c, 0, 71, 0
2, 122584, Note_on_c, 0, 74, 97
2, 122679, Note_on_c, 0, 74, 0
2, 122679, Note_on_c, 0, 62, 0
2, 122680, Note_on_c, 0, 63, 97
2, 122680, Note_on_c, 0, 71, 97
2, 122775, Note_on_c, 0, 71, 0
2, 122776, Note_on_c, 0, 69, 97
2, 122871, Note_on_c, 0, 69, 0
2, 122871, Note_on_c, 0, 63, 0
2, 122872, Note_on_c, 0, 65, 97
2, 122872, Note_on_c, 0, 67, 97
2, 122967, Note_on_c, 0, 67, 0
2, 122967, Note_on_c, 0, 65, 0
2, 122968, Note_on_c, 0, 63, 97
2, 122968, Note_on_c, 0, 69, 97
2, 123063, Note_on_c, 0, 69, 0
2, 123063, Note_on_c, 0, 63, 0
2, 123064, Note_on_c, 0, 62, 97
2, 123064, Note_on_c, 0, 71, 97
2, 123159, Note_on_c, 0, 71, 0
2, 123159, Note_on_c, 0, 62, 0
2, 123160, Note_on_c, 0, 63, 97
2, 123160, Note_on_c, 0, 72, 97
2, 123255, Note_on_c, 0, 72, 0
2, 123255, Note_on_c, 0, 63, 0
2, 123256, Note_on_c, 0, 65, 97
2, 123256, Note_on_c, 0, 74, 97
2, 123351, Note_on_c, 0, 74, 0
2, 123352, Note_on_c, 0, 72, 97
2, 123447, Note_on_c, 0, 72, 0
2, 123447, Note_on_c, 0, 65, 0
2, 123448, Note_on_c, 0, 67, 97
2, 123448, Note_on_c, 0, 71, 97
2, 123543, Note_on_c, 0, 71, 0
2, 123544, Note_on_c, 0, 72, 97
2, 123639, Note_on_c, 0, 72, 0
2, 123639, Note_on_c, 0, 67, 0
2, 123640, Note_on_c, 0, 68, 97
2, 123640, Note_on_c, 0, 74, 97
2, 123735, Note_on_c, 0, 74, 0
2, 123736, Note_on_c, 0, 75, 97
2, 123831, Note_on_c, 0, 75, 0
2, 123831, Note_on_c, 0, 68, 0
2, 123832, Note_on_c, 0, 62, 97
2, 123832, Note_on_c, 0, 77, 97
2, 123927, Note_on_c, 0, 77, 0
2, 123928, Note_on_c, 0, 74, 97
2, 124023, Note_on_c, 0, 74, 0
2, 124023, Note_on_c, 0, 62, 0
2, 124024, Note_on_c, 0, 65, 97
2, 124024, Note_on_c, 0, 71, 97
2, 124119, Note_on_c, 0, 71, 0
2, 124120, Note_on_c, 0, 72, 97
2, 124215, Note_on_c, 0, 72, 0
2, 124215, Note_on_c, 0, 65, 0
2, 124216, Note_on_c, 0, 59, 97
2, 124216, Note_on_c, 0, 74, 97
2, 124311, Note_on_c, 0, 74, 0
2, 124312, Note_on_c, 0, 75, 97
2, 124407, Note_on_c, 0, 75, 0
2, 124407, Note_on_c, 0, 59, 0
2, 124408, Note_on_c, 0, 62, 97
2, 124408, Note_on_c, 0, 77, 97
2, 124503, Note_on_c, 0, 77, 0
2, 124504, Note_on_c, 0, 80, 97
2, 124599, Note_on_c, 0, 80, 0
2, 124599, Note_on_c, 0, 62, 0
2, 124600, Note_on_c, 0, 55, 97
2, 124600, Note_on_c, 0, 79, 97
2, 124695, Note_on_c, 0, 79, 0
2, 124696, Note_on_c, 0, 77, 97
2, 124791, Note_on_c, 0, 77, 0
2, 124791, Note_on_c, 0, 55, 0
2, 124792, Note_on_c, 0, 67, 97
2, 124792, Note_on_c, 0, 75, 97
2, 124887, Note_on_c, 0, 75, 0
2, 124887, Note_on_c, 0, 67, 0
2, 124888, Note_on_c, 0, 65, 97
2, 124888, Note_on_c, 0, 74, 97
2, 124983, Note_on_c, 0, 74, 0
2, 124983, Note_on_c, 0, 65, 0
2, 124984, Note_on_c, 0, 63, 97
2, 124984, Note_on_c, 0, 72, 97
2, 125079, Note_on_c, 0, 72, 0
2, 125079, Note_on_c, 0, 63, 0
2, 125080, Note_on_c, 0, 62, 97
2, 125080, Note_on_c, 0, 71, 97
2, 125175, Note_on_c, 0, 71, 0
2, 125175, Note_on_c, 0, 62, 0
2, 125176, Note_on_c, 0, 63, 97
2, 125176, Note_on_c, 0, 72, 97
2, 125271, Note_on_c, 0, 72, 0
2, 125271, Note_on_c, 0, 63, 0
2, 125272, Note_on_c, 0, 62, 97
2, 125272, Note_on_c, 0, 74, 97
2, 125367, Note_on_c, 0, 74, 0
2, 125367, Note_on_c, 0, 62, 0
2, 125368, Note_on_c, 0, 60, 97
2, 125368, Note_on_c, 0, 75, 97
2, 125463, Note_on_c, 0, 75, 0
2, 125464, Note_on_c, 0, 72, 97
2, 125559, Note_on_c, 0, 72, 0
2, 125560, Note_on_c, 0, 69, 97
2, 125618, Note_on_c, 0, 60, 0
2, 125656, Note_on_c, 0, 63, 97
2, 125751, Note_on_c, 0, 63, 0
2, 125751, Note_on_c, 0, 69, 0
2, 125752, Note_on_c, 0, 62, 97
2, 125752, Note_on_c, 0, 72, 97
2, 125847, Note_on_c, 0, 62, 0
2, 125848, Note_on_c, 0, 60, 97
2, 125943, Note_on_c, 0, 60, 0
2, 125943, Note_on_c, 0, 72, 0
2, 125944, Note_on_c, 0, 58, 97
2, 125944, Note_on_c, 0, 65, 97
2, 126039, Note_on_c, 0, 58, 0
2, 126040, Note_on_c, 0, 57, 97
2, 126135, Note_on_c, 0, 57, 0
2, 126135, Note_on_c, 0, 65, 0
2, 126136, Note_on_c, 0, 55, 97
2, 126136, Note_on_c, 0, 75, 97
2, 126231, Note_on_c, 0, 55, 0
2, 126232, Note_on_c, 0, 53, 97
2, 126327, Note_on_c, 0, 53, 0
2, 126327, Note_on_c, 0, 75, 0
2, 126328, Note_on_c, 0, 62, 97
2, 126328, Note_on_c, 0, 70, 97
2, 126423, Note_on_c, 0, 70, 0
2, 126423, Note_on_c, 0, 62, 0
2, 126424, Note_on_c, 0, 60, 97
2, 126424, Note_on_c, 0, 72, 97
2, 126519, Note_on_c, 0, 72, 0
2, 126519, Note_on_c, 0, 60, 0
2, 126520, Note_on_c, 0, 58, 97
2, 126520, Note_on_c, 0, 74, 97
2, 126615, Note_on_c, 0, 74, 0
2, 126616, Note_on_c, 0, 70, 97
2, 126711, Note_on_c, 0, 70, 0
2, 126712, Note_on_c, 0, 67, 97
2, 126780, Note_on_c, 0, 58, 0
2, 126808, Note_on_c, 0, 62, 97
2, 126903, Note_on_c, 0, 62, 0
2, 126903, Note_on_c, 0, 67, 0
2, 126904, Note_on_c, 0, 60, 97
2, 126904, Note_on_c, 0, 70, 97
2, 126999, Note_on_c, 0, 60, 0
2, 127000, Note_on_c, 0, 58, 97
2, 127095, Note_on_c, 0, 58, 0
2, 127095, Note_on_c, 0, 70, 0
2, 127096, Note_on_c, 0, 57, 97
2, 127096, Note_on_c, 0, 63, 97
2, 127191, Note_on_c, 0, 57, 0
2, 127192, Note_on_c, 0, 55, 97
2, 127287, Note_on_c, 0, 55, 0
2, 127287, Note_on_c, 0, 63, 0
2, 127288, Note_on_c, 0, 54, 97
2, 127288, Note_on_c, 0, 74, 97
2, 127383, Note_on_c, 0, 54, 0
2, 127384, Note_on_c, 0, 55, 97
2, 127479, Note_on_c, 0, 55, 0
2, 127479, Note_on_c, 0, 74, 0
2, 127480, Note_on_c, 0, 60, 97
2, 127480, Note_on_c, 0, 69, 97
2, 127575, Note_on_c, 0, 69, 0
2, 127575, Note_on_c, 0, 60, 0
2, 127576, Note_on_c, 0, 58, 97
2, 127576, Note_on_c, 0, 70, 97
2, 127671, Note_on_c, 0, 70, 0
2, 127671, Note_on_c, 0, 58, 0
2, 127672, Note_on_c, 0, 57, 97
2, 127672, Note_on_c, 0, 72, 97
2, 127767, Note_on_c, 0, 72, 0
2, 127768, Note_on_c, 0, 69, 97
2, 127863, Note_on_c, 0, 69, 0
2, 127864, Note_on_c, 0, 66, 97
2, 127942, Note_on_c, 0, 57, 0
2, 127960, Note_on_c, 0, 60, 97
2, 128055, Note_on_c, 0, 60, 0
2, 128055, Note_on_c, 0, 66, 0
2, 128056, Note_on_c, 0, 58, 97
2, 128056, Note_on_c, 0, 69, 97
2, 128151, Note_on_c, 0, 58, 0
2, 128152, Note_on_c, 0, 57, 97
2, 128247, Note_on_c, 0, 57, 0
2, 128247, Note_on_c, 0, 69, 0
2, 128248, Note_on_c, 0, 55, 97
2, 128248, Note_on_c, 0, 62, 97
2, 128343, Note_on_c, 0, 55, 0
2, 128344, Note_on_c, 0, 54, 97
2, 128439, Note_on_c, 0, 54, 0
2, 128439, Note_on_c, 0, 62, 0
2, 128440, Note_on_c, 0, 52, 97
2, 128440, Note_on_c, 0, 72, 97
2, 128535, Note_on_c, 0, 52, 0
2, 128536, Note_on_c, 0, 50, 97
2, 128631, Note_on_c, 0, 50, 0
2, 128631, Note_on_c, 0, 72, 0
2, 128632, Note_on_c, 0, 58, 97
2, 128632, Note_on_c, 0, 67, 97
2, 128727, Note_on_c, 0, 67, 0
2, 128728, Note_on_c, 0, 69, 97
2, 128823, Note_on_c, 0, 69, 0
2, 128823, Note_on_c, 0, 58, 0
2, 128824, Note_on_c, 0, 62, 97
2, 128824, Note_on_c, 0, 70, 97
2, 128919, Note_on_c, 0, 70, 0
2, 128920, Note_on_c, 0, 67, 97
2, 129015, Note_on_c, 0, 67, 0
2, 129015, Note_on_c, 0, 62, 0
2, 129016, Note_on_c, 0, 55, 97
2, 129016, Note_on_c, 0, 63, 97
2, 129111, Note_on_c, 0, 63, 0
2, 129112, Note_on_c, 0, 67, 97
2, 129207, Note_on_c, 0, 67, 0
2, 129207, Note_on_c, 0, 55, 0
2, 129208, Note_on_c, 0, 58, 97
2, 129208, Note_on_c, 0, 62, 97
2, 129303, Note_on_c, 0, 62, 0
2, 129304, Note_on_c, 0, 67, 97
2, 129399, Note_on_c, 0, 67, 0
2, 129399, Note_on_c, 0, 58, 0
2, 129400, Note_on_c, 0, 52, 97
2, 129400, Note_on_c, 0, 61, 97
2, 129495, Note_on_c, 0, 61, 0
2, 129496, Note_on_c, 0, 70, 97
2, 129591, Note_on_c, 0, 70, 0
2, 129591, Note_on_c, 0, 52, 0
2, 129592, Note_on_c, 0, 61, 97
2, 129592, Note_on_c, 0, 69, 97
2, 129687, Note_on_c, 0, 69, 0
2, 129688, Note_on_c, 0, 67, 97
2, 129783, Note_on_c, 0, 67, 0
2, 129783, Note_on_c, 0, 61, 0
2, 129784, Note_on_c, 0, 62, 97
2, 129784, Note_on_c, 0, 66, 97
2, 129879, Note_on_c, 0, 66, 0
2, 129880, Note_on_c, 0, 64, 97
2, 129975, Note_on_c, 0, 64, 0
2, 129975, Note_on_c, 0, 62, 0
2, 129976, Note_on_c, 0, 50, 97
2, 129976, Note_on_c, 0, 62, 97
2, 130071, Note_on_c, 0, 62, 0
2, 130072, Note_on_c, 0, 64, 97
2, 130167, Note_on_c, 0, 64, 0
2, 130168, Note_on_c, 0, 66, 97
2, 130346, Note_on_c, 0, 50, 0
2, 130359, Note_on_c, 0, 66, 0
2, 130360, Note_on_c, 0, 48, 97
2, 130360, Note_on_c, 0, 67, 97
2, 130455, Note_on_c, 0, 48, 0
2, 130456, Note_on_c, 0, 46, 97
2, 130551, Note_on_c, 0, 46, 0
2, 130551, Note_on_c, 0, 67, 0
2, 130552, Note_on_c, 0, 45, 97
2, 130552, Note_on_c, 0, 69, 97
2, 130647, Note_on_c, 0, 45, 0
2, 130648, Note_on_c, 0, 43, 97
2, 130743, Note_on_c, 0, 43, 0
2, 130743, Note_on_c, 0, 69, 0
2, 130744, Note_on_c, 0, 42, 97
2, 130744, Note_on_c, 0, 70, 97
2, 130839, Note_on_c, 0, 42, 0
2, 130840, Note_on_c, 0, 40, 97
2, 130935, Note_on_c, 0, 40, 0
2, 130935, Note_on_c, 0, 70, 0
2, 130936, Note_on_c, 0, 38, 97
2, 130936, Note_on_c, 0, 72, 97
2, 131031, Note_on_c, 0, 72, 0
2, 131032, Note_on_c, 0, 70, 97
2, 131127, Note_on_c, 0, 70, 0
2, 131128, Note_on_c, 0, 69, 97
2, 131223, Note_on_c, 0, 69, 0
2, 131224, Note_on_c, 0, 70, 97
2, 131319, Note_on_c, 0, 70, 0
2, 131320, Note_on_c, 0, 72, 97
2, 131376, Note_on_c, 0, 38, 0
2, 131416, Note_on_c, 0, 40, 97
2, 131511, Note_on_c, 0, 40, 0
2, 131511, Note_on_c, 0, 72, 0
2, 131512, Note_on_c, 0, 42, 97
2, 131512, Note_on_c, 0, 74, 97
2, 131607, Note_on_c, 0, 42, 0
2, 131608, Note_on_c, 0, 43, 97
2, 131703, Note_on_c, 0, 43, 0
2, 131703, Note_on_c, 0, 74, 0
2, 131704, Note_on_c, 0, 45, 97
2, 131704, Note_on_c, 0, 75, 97
2, 131799, Note_on_c, 0, 45, 0
2, 131800, Note_on_c, 0, 46, 97
2, 131884, Note_on_c, 0, 75, 0
2, 131895, Note_on_c, 0, 46, 0
2, 131896, Note_on_c, 0, 48, 97
2, 131896, Note_on_c, 0, 69, 97
2, 131991, Note_on_c, 0, 48, 0
2, 131992, Note_on_c, 0, 45, 97
2, 132076, Note_on_c, 0, 69, 0
2, 132087, Note_on_c, 0, 45, 0
2, 132088, Note_on_c, 0, 42, 97
2, 132088, Note_on_c, 0, 72, 97
2, 132268, Note_on_c, 0, 72, 0
2, 132268, Note_on_c, 0, 42, 0
2, 132280, Note_on_c, 0, 51, 97
2, 132280, Note_on_c, 0, 66, 97
2, 132460, Note_on_c, 0, 66, 0
2, 132472, Note_on_c, 0, 69, 97
2, 132550, Note_on_c, 0, 51, 0
2, 132568, Note_on_c, 0, 45, 97
2, 132652, Note_on_c, 0, 69, 0
2, 132663, Note_on_c, 0, 45, 0
2, 132664, Note_on_c, 0, 46, 97
2, 132664, Note_on_c, 0, 62, 97
2, 132759, Note_on_c, 0, 46, 0
2, 132760, Note_on_c, 0, 48, 97
2, 132844, Note_on_c, 0, 62, 0
2, 132855, Note_on_c, 0, 48, 0
2, 132856, Note_on_c, 0, 46, 97
2, 132856, Note_on_c, 0, 74, 97
2, 132951, Note_on_c, 0, 74, 0
2, 132951, Note_on_c, 0, 46, 0
2, 132952, Note_on_c, 0, 45, 97
2, 132952, Note_on_c, 0, 72, 97
2, 133047, Note_on_c, 0, 72, 0
2, 133047, Note_on_c, 0, 45, 0
2, 133048, Note_on_c, 0, 43, 97
2, 133048, Note_on_c, 0, 70, 97
2, 133143, Note_on_c, 0, 70, 0
2, 133143, Note_on_c, 0, 43, 0
2, 133144, Note_on_c, 0, 42, 97
2, 133144, Note_on_c, 0, 69, 97
2, 133239, Note_on_c, 0, 69, 0
2, 133239, Note_on_c, 0, 42, 0
2, 133240, Note_on_c, 0, 43, 97
2, 133240, Note_on_c, 0, 70, 97
2, 133335, Note_on_c, 0, 70, 0
2, 133336, Note_on_c, 0, 69, 97
2, 133431, Note_on_c, 0, 69, 0
2, 133432, Note_on_c, 0, 67, 97
2, 133527, Note_on_c, 0, 67, 0
2, 133528, Note_on_c, 0, 69, 97
2, 133623, Note_on_c, 0, 69, 0
2, 133624, Note_on_c, 0, 70, 97
2, 133660, Note_on_c, 0, 43, 0
2, 133720, Note_on_c, 0, 55, 97
2, 133815, Note_on_c, 0, 55, 0
2, 133815, Note_on_c, 0, 70, 0
2, 133816, Note_on_c, 0, 56, 97
2, 133816, Note_on_c, 0, 72, 97
2, 133911, Note_on_c, 0, 56, 0
2, 133912, Note_on_c, 0, 58, 97
2, 134007, Note_on_c, 0, 58, 0
2, 134007, Note_on_c, 0, 72, 0
2, 134008, Note_on_c, 0, 56, 97
2, 134008, Note_on_c, 0, 74, 97
2, 134103, Note_on_c, 0, 56, 0
2, 134104, Note_on_c, 0, 55, 97
2, 134199, Note_on_c, 0, 55, 0
2, 134199, Note_on_c, 0, 74, 0
2, 134200, Note_on_c, 0, 53, 97
2, 134200, Note_on_c, 0, 75, 97
2, 134295, Note_on_c, 0, 53, 0
2, 134296, Note_on_c, 0, 51, 97
2, 134391, Note_on_c, 0, 51, 0
2, 134391, Note_on_c, 0, 75, 0
2, 134392, Note_on_c, 0, 50, 97
2, 134392, Note_on_c, 0, 77, 97
2, 134487, Note_on_c, 0, 77, 0
2, 134488, Note_on_c, 0, 75, 97
2, 134583, Note_on_c, 0, 75, 0
2, 134583, Note_on_c, 0, 50, 0
2, 134584, Note_on_c, 0, 53, 97
2, 134584, Note_on_c, 0, 74, 97
2, 134679, Note_on_c, 0, 74, 0
2, 134680, Note_on_c, 0, 72, 97
2, 134775, Note_on_c, 0, 72, 0
2, 134775, Note_on_c, 0, 53, 0
2, 134776, Note_on_c, 0, 50, 97
2, 134776, Note_on_c, 0, 70, 97
2, 134872, Note_on_c, 0, 77, 97
2, 134916, Note_on_c, 0, 70, 0
2, 134967, Note_on_c, 0, 77, 0
2, 134967, Note_on_c, 0, 50, 0
2, 134968, Note_on_c, 0, 46, 97
2, 134968, Note_on_c, 0, 72, 97
2, 135063, Note_on_c, 0, 72, 0
2, 135064, Note_on_c, 0, 70, 97
2, 135159, Note_on_c, 0, 70, 0
2, 135159, Note_on_c, 0, 46, 0
2, 135160, Note_on_c, 0, 48, 97
2, 135160, Note_on_c, 0, 68, 97
2, 135256, Note_on_c, 0, 77, 97
2, 135300, Note_on_c, 0, 68, 0
2, 135351, Note_on_c, 0, 77, 0
2, 135351, Note_on_c, 0, 48, 0
2, 135352, Note_on_c, 0, 50, 97
2, 135352, Note_on_c, 0, 70, 97
2, 135447, Note_on_c, 0, 70, 0
2, 135448, Note_on_c, 0, 68, 97
2, 135543, Note_on_c, 0, 68, 0
2, 135543, Note_on_c, 0, 50, 0
2, 135544, Note_on_c, 0, 51, 97
2, 135544, Note_on_c, 0, 67, 97
2, 135639, Note_on_c, 0, 67, 0
2, 135640, Note_on_c, 0, 65, 97
2, 135735, Note_on_c, 0, 65, 0
2, 135736, Note_on_c, 0, 39, 97
2, 135736, Note_on_c, 0, 63, 97
2, 135824, Note_on_c, 0, 51, 0
2, 135831, Note_on_c, 0, 63, 0
2, 135832, Note_on_c, 0, 65, 97
2, 135927, Note_on_c, 0, 65, 0
2, 135928, Note_on_c, 0, 67, 97
2, 135976, Note_on_c, 0, 39, 0
2, 136024, Note_on_c, 0, 51, 97
2, 136119, Note_on_c, 0, 51, 0
2, 136119, Note_on_c, 0, 67, 0
2, 136120, Note_on_c, 0, 53, 97
2, 136120, Note_on_c, 0, 69, 97
2, 136215, Note_on_c, 0, 53, 0
2, 136216, Note_on_c, 0, 55, 97
2, 136311, Note_on_c, 0, 55, 0
2, 136311, Note_on_c, 0, 69, 0
2, 136312, Note_on_c, 0, 53, 97
2, 136312, Note_on_c, 0, 71, 97
2, 136407, Note_on_c, 0, 53, 0
2, 136408, Note_on_c, 0, 51, 97
2, 136503, Note_on_c, 0, 51, 0
2, 136503, Note_on_c, 0, 71, 0
2, 136504, Note_on_c, 0, 50, 97
2, 136504, Note_on_c, 0, 72, 97
2, 136599, Note_on_c, 0, 50, 0
2, 136600, Note_on_c, 0, 48, 97
2, 136695, Note_on_c, 0, 48, 0
2, 136695, Note_on_c, 0, 72, 0
2, 136696, Note_on_c, 0, 47, 97
2, 136696, Note_on_c, 0, 74, 97
2, 136791, Note_on_c, 0, 74, 0
2, 136792, Note_on_c, 0, 72, 97
2, 136887, Note_on_c, 0, 72, 0
2, 136887, Note_on_c, 0, 47, 0
2, 136888, Note_on_c, 0, 50, 97
2, 136888, Note_on_c, 0, 71, 97
2, 136983, Note_on_c, 0, 71, 0
2, 136984, Note_on_c, 0, 69, 97
2, 137079, Note_on_c, 0, 69, 0
2, 137079, Note_on_c, 0, 50, 0
2, 137080, Note_on_c, 0, 47, 97
2, 137080, Note_on_c, 0, 67, 97
2, 137176, Note_on_c, 0, 74, 97
2, 137240, Note_on_c, 0, 67, 0
2, 137271, Note_on_c, 0, 74, 0
2, 137271, Note_on_c, 0, 47, 0
2, 137272, Note_on_c, 0, 43, 97
2, 137272, Note_on_c, 0, 69, 97
2, 137367, Note_on_c, 0, 69, 0
2, 137368, Note_on_c, 0, 67, 97
2, 137463, Note_on_c, 0, 67, 0
2, 137463, Note_on_c, 0, 43, 0
2, 137464, Note_on_c, 0, 45, 97
2, 137464, Note_on_c, 0, 65, 97
2, 137560, Note_on_c, 0, 74, 97
2, 137634, Note_on_c, 0, 65, 0
2, 137655, Note_on_c, 0, 74, 0
2, 137655, Note_on_c, 0, 45, 0
2, 137656, Note_on_c, 0, 47, 97
2, 137656, Note_on_c, 0, 67, 97
2, 137751, Note_on_c, 0, 67, 0
2, 137752, Note_on_c, 0, 65, 97
2, 137847, Note_on_c, 0, 65, 0
2, 137847, Note_on_c, 0, 47, 0
2, 137848, Note_on_c, 0, 48, 97
2, 137848, Note_on_c, 0, 63, 97
2, 137944, Note_on_c, 0, 72, 97
2, 138038, Note_on_c, 0, 63, 0
2, 138039, Note_on_c, 0, 72, 0
2, 138040, Note_on_c, 0, 36, 97
2, 138040, Note_on_c, 0, 67, 97
2, 138135, Note_on_c, 0, 67, 0
2, 138136, Note_on_c, 0, 65, 97
2, 138228, Note_on_c, 0, 48, 0
2, 138231, Note_on_c, 0, 65, 0
2, 138232, Note_on_c, 0, 63, 97
2, 138280, Note_on_c, 0, 36, 0
2, 138327, Note_on_c, 0, 63, 0
2, 138328, Note_on_c, 0, 62, 97
2, 138328, Note_on_c, 0, 65, 97
2, 138423, Note_on_c, 0, 65, 0
2, 138423, Note_on_c, 0, 62, 0
2, 138424, Note_on_c, 0, 63, 97
2, 138424, Note_on_c, 0, 67, 97
2, 138519, Note_on_c, 0, 67, 0
2, 138519, Note_on_c, 0, 63, 0
2, 138520, Note_on_c, 0, 65, 97
2, 138520, Note_on_c, 0, 68, 97
2, 138615, Note_on_c, 0, 68, 0
2, 138615, Note_on_c, 0, 65, 0
2, 138616, Note_on_c, 0, 63, 97
2, 138616, Note_on_c, 0, 67, 97
2, 138711, Note_on_c, 0, 67, 0
2, 138712, Note_on_c, 0, 72, 97
2, 138807, Note_on_c, 0, 72, 0
2, 138807, Note_on_c, 0, 63, 0
2, 138808, Note_on_c, 0, 62, 97
2, 138808, Note_on_c, 0, 67, 97
2, 138903, Note_on_c, 0, 67, 0
2, 138904, Note_on_c, 0, 65, 97
2, 138999, Note_on_c, 0, 65, 0
2, 138999, Note_on_c, 0, 62, 0
2, 139000, Note_on_c, 0, 60, 97
2, 139000, Note_on_c, 0, 63, 97
2, 139096, Note_on_c, 0, 72, 97
2, 139180, Note_on_c, 0, 63, 0
2, 139191, Note_on_c, 0, 72, 0
2, 139192, Note_on_c, 0, 48, 97
2, 139192, Note_on_c, 0, 67, 97
2, 139287, Note_on_c, 0, 67, 0
2, 139288, Note_on_c, 0, 65, 97
2, 139380, Note_on_c, 0, 60, 0
2, 139383, Note_on_c, 0, 65, 0
2, 139384, Note_on_c, 0, 63, 97
2, 139432, Note_on_c, 0, 48, 0
2, 139479, Note_on_c, 0, 63, 0
2, 139480, Note_on_c, 0, 56, 97
2, 139480, Note_on_c, 0, 65, 97
2, 139575, Note_on_c, 0, 65, 0
2, 139575, Note_on_c, 0, 56, 0
2, 139576, Note_on_c, 0, 58, 97
2, 139576, Note_on_c, 0, 67, 97
2, 139671, Note_on_c, 0, 67, 0
2, 139671, Note_on_c, 0, 58, 0
2, 139672, Note_on_c, 0, 60, 97
2, 139672, Note_on_c, 0, 68, 97
2, 139767, Note_on_c, 0, 68, 0
2, 139767, Note_on_c, 0, 60, 0
2, 139768, Note_on_c, 0, 58, 97
2, 139768, Note_on_c, 0, 67, 97
2, 139864, Note_on_c, 0, 72, 97
2, 139928, Note_on_c, 0, 67, 0
2, 139959, Note_on_c, 0, 72, 0
2, 139959, Note_on_c, 0, 58, 0
2, 139960, Note_on_c, 0, 56, 97
2, 139960, Note_on_c, 0, 67, 97
2, 140055, Note_on_c, 0, 67, 0
2, 140056, Note_on_c, 0, 65, 97
2, 140151, Note_on_c, 0, 65, 0
2, 140151, Note_on_c, 0, 56, 0
2, 140152, Note_on_c, 0, 55, 97
2, 140152, Note_on_c, 0, 64, 97
2, 140248, Note_on_c, 0, 70, 97
2, 140342, Note_on_c, 0, 64, 0
2, 140343, Note_on_c, 0, 70, 0
2, 140344, Note_on_c, 0, 48, 97
2, 140344, Note_on_c, 0, 67, 97
2, 140432, Note_on_c, 0, 55, 0
2, 140439, Note_on_c, 0, 67, 0
2, 140440, Note_on_c, 0, 65, 97
2, 140535, Note_on_c, 0, 65, 0
2, 140536, Note_on_c, 0, 64, 97
2, 140584, Note_on_c, 0, 48, 0
2, 140631, Note_on_c, 0, 64, 0
2, 140632, Note_on_c, 0, 62, 97
2, 140632, Note_on_c, 0, 65, 97
2, 140727, Note_on_c, 0, 65, 0
2, 140727, Note_on_c, 0, 62, 0
2, 140728, Note_on_c, 0, 64, 97
2, 140728, Note_on_c, 0, 67, 97
2, 140823, Note_on_c, 0, 67, 0
2, 140823, Note_on_c, 0, 64, 0
2, 140824, Note_on_c, 0, 65, 97
2, 140824, Note_on_c, 0, 68, 97
2, 140919, Note_on_c, 0, 68, 0
2, 140919, Note_on_c, 0, 65, 0
2, 140920, Note_on_c, 0, 64, 97
2, 140920, Note_on_c, 0, 67, 97
2, 141016, Note_on_c, 0, 70, 97
2, 141060, Note_on_c, 0, 67, 0
2, 141111, Note_on_c, 0, 70, 0
2, 141111, Note_on_c, 0, 64, 0
2, 141112, Note_on_c, 0, 62, 97
2, 141112, Note_on_c, 0, 67, 97
2, 141207, Note_on_c, 0, 67, 0
2, 141208, Note_on_c, 0, 65, 97
2, 141303, Note_on_c, 0, 65, 0
2, 141303, Note_on_c, 0, 62, 0
2, 141304, Note_on_c, 0, 60, 97
2, 141304, Note_on_c, 0, 64, 97
2, 141400, Note_on_c, 0, 70, 97
2, 141494, Note_on_c, 0, 64, 0
2, 141495, Note_on_c, 0, 70, 0
2, 141496, Note_on_c, 0, 48, 97
2, 141496, Note_on_c, 0, 67, 97
2, 141591, Note_on_c, 0, 67, 0
2, 141592, Note_on_c, 0, 65, 97
2, 141684, Note_on_c, 0, 60, 0
2, 141687, Note_on_c, 0, 65, 0
2, 141688, Note_on_c, 0, 64, 97
2, 141736, Note_on_c, 0, 48, 0
2, 141783, Note_on_c, 0, 64, 0
2, 141784, Note_on_c, 0, 50, 97
2, 141784, Note_on_c, 0, 67, 97
2, 141879, Note_on_c, 0, 67, 0
2, 141879, Note_on_c, 0, 50, 0
2, 141880, Note_on_c, 0, 52, 97
2, 141880, Note_on_c, 0, 70, 97
2, 141975, Note_on_c, 0, 70, 0
2, 141975, Note_on_c, 0, 52, 0
2, 141976, Note_on_c, 0, 53, 97
2, 141976, Note_on_c, 0, 73, 97
2, 142071, Note_on_c, 0, 73, 0
2, 142071, Note_on_c, 0, 53, 0
2, 142072, Note_on_c, 0, 52, 97
2, 142072, Note_on_c, 0, 72, 97
2, 142167, Note_on_c, 0, 72, 0
2, 142168, Note_on_c, 0, 70, 97
2, 142263, Note_on_c, 0, 70, 0
2, 142263, Note_on_c, 0, 52, 0
2, 142264, Note_on_c, 0, 48, 97
2, 142264, Note_on_c, 0, 68, 97
2, 142359, Note_on_c, 0, 68, 0
2, 142360, Note_on_c, 0, 67, 97
2, 142455, Note_on_c, 0, 67, 0
2, 142455, Note_on_c, 0, 48, 0
2, 142456, Note_on_c, 0, 53, 97
2, 142456, Note_on_c, 0, 68, 97
2, 142552, Note_on_c, 0, 77, 97
2, 142647, Note_on_c, 0, 77, 0
2, 142648, Note_on_c, 0, 41, 97
2, 142648, Note_on_c, 0, 72, 97
2, 142696, Note_on_c, 0, 68, 0
2, 142743, Note_on_c, 0, 72, 0
2, 142744, Note_on_c, 0, 70, 97
2, 142836, Note_on_c, 0, 53, 0
2, 142839, Note_on_c, 0, 70, 0
2, 142840, Note_on_c, 0, 68, 97
2, 142888, Note_on_c, 0, 41, 0
2, 142935, Note_on_c, 0, 68, 0
2, 142936, Note_on_c, 0, 67, 97
2, 142936, Note_on_c, 0, 70, 97
2, 143031, Note_on_c, 0, 70, 0
2, 143031, Note_on_c, 0, 67, 0
2, 143032, Note_on_c, 0, 68, 97
2, 143032, Note_on_c, 0, 72, 97
2, 143127, Note_on_c, 0, 72, 0
2, 143127, Note_on_c, 0, 68, 0
2, 143128, Note_on_c, 0, 70, 97
2, 143128, Note_on_c, 0, 73, 97
2, 143223, Note_on_c, 0, 73, 0
2, 143223, Note_on_c, 0, 70, 0
2, 143224, Note_on_c, 0, 68, 97
2, 143224, Note_on_c, 0, 72, 97
2, 143320, Note_on_c, 0, 77, 97
2, 143364, Note_on_c, 0, 72, 0
2, 143415, Note_on_c, 0, 77, 0
2, 143415, Note_on_c, 0, 68, 0
2, 143416, Note_on_c, 0, 67, 97
2, 143416, Note_on_c, 0, 72, 97
2, 143511, Note_on_c, 0, 72, 0
2, 143512, Note_on_c, 0, 70, 97
2, 143607, Note_on_c, 0, 70, 0
2, 143607, Note_on_c, 0, 67, 0
2, 143608, Note_on_c, 0, 65, 97
2, 143608, Note_on_c, 0, 68, 97
2, 143704, Note_on_c, 0, 77, 97
2, 143799, Note_on_c, 0, 77, 0
2, 143800, Note_on_c, 0, 53, 97
2, 143800, Note_on_c, 0, 72, 97
2, 143848, Note_on_c, 0, 68, 0
2, 143895, Note_on_c, 0, 72, 0
2, 143896, Note_on_c, 0, 70, 97
2, 143988, Note_on_c, 0, 65, 0
2, 143991, Note_on_c, 0, 70, 0
2, 143992, Note_on_c, 0, 68, 97
2, 144040, Note_on_c, 0, 53, 0
2, 144087, Note_on_c, 0, 68, 0
2, 144088, Note_on_c, 0, 61, 97
2, 144088, Note_on_c, 0, 70, 97
2, 144183, Note_on_c, 0, 70, 0
2, 144183, Note_on_c, 0, 61, 0
2, 144184, Note_on_c, 0, 63, 97
2, 144184, Note_on_c, 0, 72, 97
2, 144279, Note_on_c, 0, 72, 0
2, 144279, Note_on_c, 0, 63, 0
2, 144280, Note_on_c, 0, 65, 97
2, 144280, Note_on_c, 0, 73, 97
2, 144375, Note_on_c, 0, 73, 0
2, 144375, Note_on_c, 0, 65, 0
2, 144376, Note_on_c, 0, 63, 97
2, 144376, Note_on_c, 0, 72, 97
2, 144472, Note_on_c, 0, 77, 97
2, 144516, Note_on_c, 0, 72, 0
2, 144567, Note_on_c, 0, 77, 0
2, 144567, Note_on_c, 0, 63, 0
2, 144568, Note_on_c, 0, 61, 97
2, 144568, Note_on_c, 0, 72, 97
2, 144663, Note_on_c, 0, 72, 0
2, 144664, Note_on_c, 0, 70, 97
2, 144759, Note_on_c, 0, 70, 0
2, 144759, Note_on_c, 0, 61, 0
2, 144760, Note_on_c, 0, 60, 97
2, 144760, Note_on_c, 0, 69, 97
2, 144856, Note_on_c, 0, 75, 97
2, 144951, Note_on_c, 0, 75, 0
2, 144952, Note_on_c, 0, 53, 97
2, 144952, Note_on_c, 0, 72, 97
2, 145000, Note_on_c, 0, 69, 0
2, 145040, Note_on_c, 0, 60, 0
2, 145047, Note_on_c, 0, 72, 0
2, 145048, Note_on_c, 0, 70, 97
2, 145143, Note_on_c, 0, 70, 0
2, 145144, Note_on_c, 0, 69, 97
2, 145192, Note_on_c, 0, 53, 0
2, 145239, Note_on_c, 0, 69, 0
2, 145240, Note_on_c, 0, 67, 97
2, 145240, Note_on_c, 0, 70, 97
2, 145335, Note_on_c, 0, 70, 0
2, 145335, Note_on_c, 0, 67, 0
2, 145336, Note_on_c, 0, 69, 97
2, 145336, Note_on_c, 0, 72, 97
2, 145431, Note_on_c, 0, 72, 0
2, 145431, Note_on_c, 0, 69, 0
2, 145432, Note_on_c, 0, 70, 97
2, 145432, Note_on_c, 0, 73, 97
2, 145527, Note_on_c, 0, 73, 0
2, 145527, Note_on_c, 0, 70, 0
2, 145528, Note_on_c, 0, 69, 97
2, 145528, Note_on_c, 0, 72, 97
2, 145624, Note_on_c, 0, 75, 97
2, 145668, Note_on_c, 0, 72, 0
2, 145719, Note_on_c, 0, 75, 0
2, 145719, Note_on_c, 0, 69, 0
2, 145720, Note_on_c, 0, 67, 97
2, 145720, Note_on_c, 0, 72, 97
2, 145815, Note_on_c, 0, 72, 0
2, 145816, Note_on_c, 0, 70, 97
2, 145911, Note_on_c, 0, 70, 0
2, 145911, Note_on_c, 0, 67, 0
2, 145912, Note_on_c, 0, 65, 97
2, 145912, Note_on_c, 0, 69, 97
2, 146008, Note_on_c, 0, 75, 97
2, 146102, Note_on_c, 0, 69, 0
2, 146103, Note_on_c, 0, 75, 0
2, 146104, Note_on_c, 0, 53, 97
2, 146104, Note_on_c, 0, 72, 97
2, 146199, Note_on_c, 0, 72, 0
2, 146200, Note_on_c, 0, 70, 97
2, 146292, Note_on_c, 0, 65, 0
2, 146295, Note_on_c, 0, 70, 0
2, 146296, Note_on_c, 0, 69, 97
2, 146344, Note_on_c, 0, 53, 0
2, 146391, Note_on_c, 0, 69, 0
2, 146392, Note_on_c, 0, 55, 97
2, 146392, Note_on_c, 0, 72, 97
2, 146487, Note_on_c, 0, 72, 0
2, 146487, Note_on_c, 0, 55, 0
2, 146488, Note_on_c, 0, 57, 97
2, 146488, Note_on_c, 0, 75, 97
2, 146583, Note_on_c, 0, 75, 0
2, 146583, Note_on_c, 0, 57, 0
2, 146584, Note_on_c, 0, 58, 97
2, 146584, Note_on_c, 0, 78, 97
2, 146679, Note_on_c, 0, 78, 0
2, 146679, Note_on_c, 0, 58, 0
2, 146680, Note_on_c, 0, 57, 97
2, 146680, Note_on_c, 0, 77, 97
2, 146775, Note_on_c, 0, 77, 0
2, 146776, Note_on_c, 0, 75, 97
2, 146871, Note_on_c, 0, 75, 0
2, 146871, Note_on_c, 0, 57, 0
2, 146872, Note_on_c, 0, 53, 97
2, 146872, Note_on_c, 0, 73, 97
2, 146967, Note_on_c, 0, 73, 0
2, 146968, Note_on_c, 0, 72, 97
2, 147063, Note_on_c, 0, 72, 0
2, 147063, Note_on_c, 0, 53, 0
2, 147064, Note_on_c, 0, 58, 97
2, 147064, Note_on_c, 0, 73, 97
2, 147159, Note_on_c, 0, 58, 0
2, 147160, Note_on_c, 0, 60, 97
2, 147214, Note_on_c, 0, 73, 0
2, 147255, Note_on_c, 0, 60, 0
2, 147256, Note_on_c, 0, 61, 97
2, 147256, Note_on_c, 0, 70, 97
2, 147447, Note_on_c, 0, 70, 0
2, 147448, Note_on_c, 0, 72, 97
2, 147526, Note_on_c, 0, 61, 0
2, 147544, Note_on_c, 0, 60, 97
2, 147639, Note_on_c, 0, 60, 0
2, 147639, Note_on_c, 0, 72, 0
2, 147640, Note_on_c, 0, 58, 97
2, 147640, Note_on_c, 0, 73, 97
2, 147735, Note_on_c, 0, 58, 0
2, 147736, Note_on_c, 0, 56, 97
2, 147831, Note_on_c, 0, 56, 0
2, 147831, Note_on_c, 0, 73, 0
2, 147832, Note_on_c, 0, 55, 97
2, 147832, Note_on_c, 0, 75, 97
2, 147927, Note_on_c, 0, 55, 0
2, 147928, Note_on_c, 0, 53, 97
2, 148023, Note_on_c, 0, 53, 0
2, 148023, Note_on_c, 0, 75, 0
2, 148024, Note_on_c, 0, 55, 97
2, 148024, Note_on_c, 0, 73, 97
2, 148119, Note_on_c, 0, 55, 0
2, 148120, Note_on_c, 0, 58, 97
2, 148215, Note_on_c, 0, 58, 0
2, 148215, Note_on_c, 0, 73, 0
2, 148216, Note_on_c, 0, 56, 97
2, 148216, Note_on_c, 0, 72, 97
2, 148311, Note_on_c, 0, 56, 0
2, 148312, Note_on_c, 0, 58, 97
2, 148366, Note_on_c, 0, 72, 0
2, 148407, Note_on_c, 0, 58, 0
2, 148408, Note_on_c, 0, 60, 97
2, 148408, Note_on_c, 0, 68, 97
2, 148599, Note_on_c, 0, 68, 0
2, 148600, Note_on_c, 0, 70, 97
2, 148678, Note_on_c, 0, 60, 0
2, 148696, Note_on_c, 0, 58, 97
2, 148791, Note_on_c, 0, 58, 0
2, 148791, Note_on_c, 0, 70, 0
2, 148792, Note_on_c, 0, 56, 97
2, 148792, Note_on_c, 0, 72, 97
2, 148887, Note_on_c, 0, 56, 0
2, 148888, Note_on_c, 0, 55, 97
2, 148983, Note_on_c, 0, 55, 0
2, 148983, Note_on_c, 0, 72, 0
2, 148984, Note_on_c, 0, 53, 97
2, 148984, Note_on_c, 0, 73, 97
2, 149079, Note_on_c, 0, 53, 0
2, 149080, Note_on_c, 0, 52, 97
2, 149175, Note_on_c, 0, 52, 0
2, 149175, Note_on_c, 0, 73, 0
2, 149176, Note_on_c, 0, 53, 97
2, 149176, Note_on_c, 0, 72, 97
2, 149271, Note_on_c, 0, 53, 0
2, 149272, Note_on_c, 0, 56, 97
2, 149367, Note_on_c, 0, 56, 0
2, 149367, Note_on_c, 0, 72, 0
2, 149368, Note_on_c, 0, 55, 97
2, 149368, Note_on_c, 0, 70, 97
2, 149463, Note_on_c, 0, 55, 0
2, 149464, Note_on_c, 0, 61, 97
2, 149559, Note_on_c, 0, 61, 0
2, 149559, Note_on_c, 0, 70, 0
2, 149560, Note_on_c, 0, 55, 97
2, 149560, Note_on_c, 0, 68, 97
2, 149655, Note_on_c, 0, 55, 0
2, 149656, Note_on_c, 0, 53, 97
2, 149751, Note_on_c, 0, 53, 0
2, 149751, Note_on_c, 0, 68, 0
2, 149752, Note_on_c, 0, 55, 97
2, 149752, Note_on_c, 0, 70, 97
2, 149847, Note_on_c, 0, 55, 0
2, 149848, Note_on_c, 0, 56, 97
2, 149943, Note_on_c, 0, 56, 0
2, 149943, Note_on_c, 0, 70, 0
2, 149944, Note_on_c, 0, 58, 97
2, 149944, Note_on_c, 0, 67, 97
2, 150039, Note_on_c, 0, 58, 0
2, 150040, Note_on_c, 0, 60, 97
2, 150135, Note_on_c, 0, 60, 0
2, 150135, Note_on_c, 0, 67, 0
2, 150136, Note_on_c, 0, 58, 97
2, 150136, Note_on_c, 0, 68, 97
2, 150231, Note_on_c, 0, 58, 0
2, 150232, Note_on_c, 0, 56, 97
2, 150327, Note_on_c, 0, 56, 0
2, 150327, Note_on_c, 0, 68, 0
2, 150328, Note_on_c, 0, 55, 97
2, 150328, Note_on_c, 0, 70, 97
2, 150423, Note_on_c, 0, 55, 0
2, 150424, Note_on_c, 0, 53, 97
2, 150498, Note_on_c, 0, 70, 0
2, 150519, Note_on_c, 0, 53, 0
2, 150520, Note_on_c, 0, 60, 97
2, 150520, Note_on_c, 0, 64, 97
2, 150615, Note_on_c, 0, 64, 0
2, 150616, Note_on_c, 0, 62, 97
2, 150711, Note_on_c, 0, 62, 0
2, 150711, Note_on_c, 0, 60, 0
2, 150712, Note_on_c, 0, 58, 97
2, 150712, Note_on_c, 0, 60, 97
2, 150807, Note_on_c, 0, 60, 0
2, 150807, Note_on_c, 0, 58, 0
2, 150808, Note_on_c, 0, 56, 97
2, 150808, Note_on_c, 0, 62, 97
2, 150903, Note_on_c, 0, 62, 0
2, 150903, Note_on_c, 0, 56, 0
2, 150904, Note_on_c, 0, 55, 97
2, 150904, Note_on_c, 0, 64, 97
2, 150999, Note_on_c, 0, 55, 0
2, 151000, Note_on_c, 0, 60, 97
2, 151095, Note_on_c, 0, 60, 0
2, 151095, Note_on_c, 0, 64, 0
2, 151096, Note_on_c, 0, 58, 97
2, 151096, Note_on_c, 0, 65, 97
2, 151191, Note_on_c, 0, 58, 0
2, 151192, Note_on_c, 0, 56, 97
2, 151287, Note_on_c, 0, 56, 0
2, 151287, Note_on_c, 0, 65, 0
2, 151288, Note_on_c, 0, 55, 97
2, 151288, Note_on_c, 0, 67, 97
2, 151383, Note_on_c, 0, 55, 0
2, 151384, Note_on_c, 0, 53, 97
2, 151479, Note_on_c, 0, 53, 0
2, 151479, Note_on_c, 0, 67, 0
2, 151480, Note_on_c, 0, 52, 97
2, 151480, Note_on_c, 0, 68, 97
2, 151575, Note_on_c, 0, 52, 0
2, 151576, Note_on_c, 0, 50, 97
2, 151671, Note_on_c, 0, 50, 0
2, 151671, Note_on_c, 0, 68, 0
2, 151672, Note_on_c, 0, 48, 97
2, 151672, Note_on_c, 0, 70, 97
2, 151767, Note_on_c, 0, 70, 0
2, 151768, Note_on_c, 0, 68, 97
2, 151863, Note_on_c, 0, 68, 0
2, 151864, Note_on_c, 0, 67, 97
2, 151959, Note_on_c, 0, 67, 0
2, 151960, Note_on_c, 0, 68, 97
2, 152055, Note_on_c, 0, 68, 0
2, 152056, Note_on_c, 0, 70, 97
2, 152112, Note_on_c, 0, 48, 0
2, 152152, Note_on_c, 0, 50, 97
2, 152247, Note_on_c, 0, 50, 0
2, 152247, Note_on_c, 0, 70, 0
2, 152248, Note_on_c, 0, 52, 97
2, 152248, Note_on_c, 0, 72, 97
2, 152343, Note_on_c, 0, 52, 0
2, 152344, Note_on_c, 0, 53, 97
2, 152439, Note_on_c, 0, 53, 0
2, 152439, Note_on_c, 0, 72, 0
2, 152440, Note_on_c, 0, 55, 97
2, 152440, Note_on_c, 0, 73, 97
2, 152535, Note_on_c, 0, 55, 0
2, 152536, Note_on_c, 0, 56, 97
2, 152620, Note_on_c, 0, 73, 0
2, 152631, Note_on_c, 0, 56, 0
2, 152632, Note_on_c, 0, 58, 97
2, 152632, Note_on_c, 0, 67, 97
2, 152727, Note_on_c, 0, 58, 0
2, 152728, Note_on_c, 0, 55, 97
2, 152812, Note_on_c, 0, 67, 0
2, 152823, Note_on_c, 0, 55, 0
2, 152824, Note_on_c, 0, 52, 97
2, 152824, Note_on_c, 0, 70, 97
2, 153004, Note_on_c, 0, 70, 0
2, 153004, Note_on_c, 0, 52, 0
2, 153016, Note_on_c, 0, 61, 97
2, 153016, Note_on_c, 0, 64, 97
2, 153196, Note_on_c, 0, 64, 0
2, 153208, Note_on_c, 0, 67, 97
2, 153246, Note_on_c, 0, 61, 0
2, 153304, Note_on_c, 0, 55, 97
2, 153388, Note_on_c, 0, 67, 0
2, 153399, Note_on_c, 0, 55, 0
2, 153400, Note_on_c, 0, 56, 97
2, 153400, Note_on_c, 0, 60, 97
2, 153495, Note_on_c, 0, 56, 0
2, 153496, Note_on_c, 0, 58, 97
2, 153580, Note_on_c, 0, 60, 0
2, 153591, Note_on_c, 0, 58, 0
2, 153592, Note_on_c, 0, 56, 97
2, 153592, Note_on_c, 0, 72, 97
2, 153687, Note_on_c, 0, 72, 0
2, 153687, Note_on_c, 0, 56, 0
2, 153688, Note_on_c, 0, 55, 97
2, 153688, Note_on_c, 0, 70, 97
2, 153783, Note_on_c, 0, 70, 0
2, 153783, Note_on_c, 0, 55, 0
2, 153784, Note_on_c, 0, 53, 97
2, 153784, Note_on_c, 0, 68, 97
2, 153879, Note_on_c, 0, 68, 0
2, 153879, Note_on_c, 0, 53, 0
2, 153880, Note_on_c, 0, 52, 97
2, 153880, Note_on_c, 0, 67, 97
2, 153975, Note_on_c, 0, 67, 0
2, 153975, Note_on_c, 0, 52, 0
2, 153976, Note_on_c, 0, 53, 97
2, 153976, Note_on_c, 0, 68, 97
2, 154071, Note_on_c, 0, 68, 0
2, 154071, Note_on_c, 0, 53, 0
2, 154072, Note_on_c, 0, 55, 97
2, 154072, Note_on_c, 0, 67, 97
2, 154167, Note_on_c, 0, 67, 0
2, 154167, Note_on_c, 0, 55, 0
2, 154168, Note_on_c, 0, 56, 97
2, 154168, Note_on_c, 0, 65, 97
2, 154263, Note_on_c, 0, 56, 0
2, 154264, Note_on_c, 0, 53, 97
2, 154359, Note_on_c, 0, 53, 0
2, 154360, Note_on_c, 0, 50, 97
2, 154408, Note_on_c, 0, 65, 0
2, 154456, Note_on_c, 0, 68, 97
2, 154551, Note_on_c, 0, 68, 0
2, 154551, Note_on_c, 0, 50, 0
2, 154552, Note_on_c, 0, 53, 97
2, 154552, Note_on_c, 0, 67, 97
2, 154647, Note_on_c, 0, 67, 0
2, 154648, Note_on_c, 0, 65, 97
2, 154743, Note_on_c, 0, 65, 0
2, 154743, Note_on_c, 0, 53, 0
2, 154744, Note_on_c, 0, 46, 97
2, 154744, Note_on_c, 0, 63, 97
2, 154839, Note_on_c, 0, 63, 0
2, 154840, Note_on_c, 0, 62, 97
2, 154935, Note_on_c, 0, 62, 0
2, 154935, Note_on_c, 0, 46, 0
2, 154936, Note_on_c, 0, 56, 97
2, 154936, Note_on_c, 0, 60, 97
2, 155031, Note_on_c, 0, 60, 0
2, 155032, Note_on_c, 0, 58, 97
2, 155127, Note_on_c, 0, 58, 0
2, 155127, Note_on_c, 0, 56, 0
2, 155128, Note_on_c, 0, 51, 97
2, 155128, Note_on_c, 0, 67, 97
2, 155223, Note_on_c, 0, 67, 0
2, 155223, Note_on_c, 0, 51, 0
2, 155224, Note_on_c, 0, 53, 97
2, 155224, Note_on_c, 0, 65, 97
2, 155319, Note_on_c, 0, 65, 0
2, 155319, Note_on_c, 0, 53, 0
2, 155320, Note_on_c, 0, 55, 97
2, 155320, Note_on_c, 0, 63, 97
2, 155415, Note_on_c, 0, 55, 0
2, 155416, Note_on_c, 0, 51, 97
2, 155511, Note_on_c, 0, 51, 0
2, 155512, Note_on_c, 0, 48, 97
2, 155560, Note_on_c, 0, 63, 0
2, 155608, Note_on_c, 0, 67, 97
2, 155703, Note_on_c, 0, 67, 0
2, 155703, Note_on_c, 0, 48, 0
2, 155704, Note_on_c, 0, 51, 97
2, 155704, Note_on_c, 0, 65, 97
2, 155799, Note_on_c, 0, 65, 0
2, 155800, Note_on_c, 0, 63, 97
2, 155895, Note_on_c, 0, 63, 0
2, 155895, Note_on_c, 0, 51, 0
2, 155896, Note_on_c, 0, 44, 97
2, 155896, Note_on_c, 0, 62, 97
2, 155991, Note_on_c, 0, 62, 0
2, 155992, Note_on_c, 0, 60, 97
2, 156087, Note_on_c, 0, 60, 0
2, 156087, Note_on_c, 0, 44, 0
2, 156088, Note_on_c, 0, 55, 97
2, 156088, Note_on_c, 0, 59, 97
2, 156183, Note_on_c, 0, 59, 0
2, 156184, Note_on_c, 0, 60, 97
2, 156279, Note_on_c, 0, 60, 0
2, 156279, Note_on_c, 0, 55, 0
2, 156280, Note_on_c, 0, 50, 97
2, 156280, Note_on_c, 0, 65, 97
2, 156375, Note_on_c, 0, 65, 0
2, 156375, Note_on_c, 0, 50, 0
2, 156376, Note_on_c, 0, 51, 97
2, 156376, Note_on_c, 0, 63, 97
2, 156471, Note_on_c, 0, 63, 0
2, 156471, Note_on_c, 0, 51, 0
2, 156472, Note_on_c, 0, 53, 97
2, 156472, Note_on_c, 0, 62, 97
2, 156567, Note_on_c, 0, 53, 0
2, 156568, Note_on_c, 0, 50, 97
2, 156663, Note_on_c, 0, 50, 0
2, 156664, Note_on_c, 0, 47, 97
2, 156712, Note_on_c, 0, 62, 0
2, 156760, Note_on_c, 0, 65, 97
2, 156855, Note_on_c, 0, 65, 0
2, 156855, Note_on_c, 0, 47, 0
2, 156856, Note_on_c, 0, 50, 97
2, 156856, Note_on_c, 0, 63, 97
2, 156951, Note_on_c, 0, 63, 0
2, 156952, Note_on_c, 0, 62, 97
2, 157047, Note_on_c, 0, 62, 0
2, 157047, Note_on_c, 0, 50, 0
2, 157048, Note_on_c, 0, 43, 97
2, 157048, Note_on_c, 0, 60, 97
2, 157143, Note_on_c, 0, 60, 0
2, 157144, Note_on_c, 0, 59, 97
2, 157239, Note_on_c, 0, 59, 0
2, 157239, Note_on_c, 0, 43, 0
2, 157240, Note_on_c, 0, 53, 97
2, 157240, Note_on_c, 0, 57, 97
2, 157335, Note_on_c, 0, 57, 0
2, 157336, Note_on_c, 0, 55, 97
2, 157431, Note_on_c, 0, 55, 0
2, 157431, Note_on_c, 0, 53, 0
2, 157432, Note_on_c, 0, 48, 97
2, 157432, Note_on_c, 0, 63, 97
2, 157527, Note_on_c, 0, 63, 0
2, 157527, Note_on_c, 0, 48, 0
2, 157528, Note_on_c, 0, 50, 97
2, 157528, Note_on_c, 0, 65, 97
2, 157623, Note_on_c, 0, 65, 0
2, 157623, Note_on_c, 0, 50, 0
2, 157624, Note_on_c, 0, 51, 97
2, 157624, Note_on_c, 0, 67, 97
2, 157719, Note_on_c, 0, 51, 0
2, 157720, Note_on_c, 0, 48, 97
2, 157815, Note_on_c, 0, 48, 0
2, 157816, Note_on_c, 0, 44, 97
2, 157911, Note_on_c, 0, 44, 0
2, 157912, Note_on_c, 0, 48, 97
2, 157984, Note_on_c, 0, 67, 0
2, 158007, Note_on_c, 0, 48, 0
2, 158008, Note_on_c, 0, 43, 97
2, 158008, Note_on_c, 0, 65, 97
2, 158103, Note_on_c, 0, 65, 0
2, 158103, Note_on_c, 0, 43, 0
2, 158104, Note_on_c, 0, 48, 97
2, 158104, Note_on_c, 0, 63, 97
2, 158199, Note_on_c, 0, 63, 0
2, 158199, Note_on_c, 0, 48, 0
2, 158200, Note_on_c, 0, 42, 97
2, 158200, Note_on_c, 0, 62, 97
2, 158295, Note_on_c, 0, 62, 0
2, 158295, Note_on_c, 0, 42, 0
2, 158296, Note_on_c, 0, 51, 97
2, 158296, Note_on_c, 0, 69, 97
2, 158391, Note_on_c, 0, 69, 0
2, 158391, Note_on_c, 0, 51, 0
2, 158392, Note_on_c, 0, 50, 97
2, 158392, Note_on_c, 0, 71, 97
2, 158487, Note_on_c, 0, 71, 0
2, 158487, Note_on_c, 0, 50, 0
2, 158488, Note_on_c, 0, 48, 97
2, 158488, Note_on_c, 0, 72, 97
2, 158583, Note_on_c, 0, 72, 0
2, 158583, Note_on_c, 0, 48, 0
2, 158584, Note_on_c, 0, 47, 97
2, 158584, Note_on_c, 0, 74, 97
2, 158679, Note_on_c, 0, 74, 0
2, 158679, Note_on_c, 0, 47, 0
2, 158680, Note_on_c, 0, 45, 97
2, 158680, Note_on_c, 0, 72, 97
2, 158775, Note_on_c, 0, 72, 0
2, 158775, Note_on_c, 0, 45, 0
2, 158776, Note_on_c, 0, 43, 97
2, 158776, Note_on_c, 0, 71, 97
2, 158871, Note_on_c, 0, 71, 0
2, 158871, Note_on_c, 0, 43, 0
2, 158872, Note_on_c, 0, 45, 97
2, 158872, Note_on_c, 0, 72, 97
2, 158967, Note_on_c, 0, 72, 0
2, 158967, Note_on_c, 0, 45, 0
2, 158968, Note_on_c, 0, 47, 97
2, 158968, Note_on_c, 0, 74, 97
2, 159063, Note_on_c, 0, 74, 0
2, 159064, Note_on_c, 0, 79, 97
2, 159159, Note_on_c, 0, 79, 0
2, 159159, Note_on_c, 0, 47, 0
2, 159160, Note_on_c, 0, 48, 97
2, 159160, Note_on_c, 0, 77, 97
2, 159255, Note_on_c, 0, 77, 0
2, 159256, Note_on_c, 0, 75, 97
2, 159351, Note_on_c, 0, 75, 0
2, 159351, Note_on_c, 0, 48, 0
2, 159352, Note_on_c, 0, 50, 97
2, 159352, Note_on_c, 0, 74, 97
2, 159447, Note_on_c, 0, 74, 0
2, 159448, Note_on_c, 0, 72, 97
2, 159543, Note_on_c, 0, 72, 0
2, 159543, Note_on_c, 0, 50, 0
2, 159544, Note_on_c, 0, 51, 97
2, 159544, Note_on_c, 0, 71, 97
2, 159639, Note_on_c, 0, 71, 0
2, 159640, Note_on_c, 0, 69, 97
2, 159735, Note_on_c, 0, 69, 0
2, 159735, Note_on_c, 0, 51, 0
2, 159736, Note_on_c, 0, 53, 97
2, 159736, Note_on_c, 0, 67, 97
2, 159831, Note_on_c, 0, 53, 0
2, 159832, Note_on_c, 0, 51, 97
2, 159927, Note_on_c, 0, 51, 0
2, 159928, Note_on_c, 0, 50, 97
2, 160023, Note_on_c, 0, 50, 0
2, 160024, Note_on_c, 0, 51, 97
2, 160119, Note_on_c, 0, 51, 0
2, 160120, Note_on_c, 0, 53, 97
2, 160196, Note_on_c, 0, 67, 0
2, 160216, Note_on_c, 0, 69, 97
2, 160311, Note_on_c, 0, 69, 0
2, 160311, Note_on_c, 0, 53, 0
2, 160312, Note_on_c, 0, 55, 97
2, 160312, Note_on_c, 0, 71, 97
2, 160407, Note_on_c, 0, 71, 0
2, 160408, Note_on_c, 0, 72, 97
2, 160503, Note_on_c, 0, 72, 0
2, 160503, Note_on_c, 0, 55, 0
2, 160504, Note_on_c, 0, 56, 97
2, 160504, Note_on_c, 0, 74, 97
2, 160599, Note_on_c, 0, 74, 0
2, 160600, Note_on_c, 0, 75, 97
2, 160684, Note_on_c, 0, 56, 0
2, 160695, Note_on_c, 0, 75, 0
2, 160696, Note_on_c, 0, 50, 97
2, 160696, Note_on_c, 0, 77, 97
2, 160791, Note_on_c, 0, 77, 0
2, 160792, Note_on_c, 0, 74, 97
2, 160876, Note_on_c, 0, 50, 0
2, 160887, Note_on_c, 0, 74, 0
2, 160888, Note_on_c, 0, 53, 97
2, 160888, Note_on_c, 0, 71, 97
2, 161058, Note_on_c, 0, 71, 0
2, 161068, Note_on_c, 0, 53, 0
2, 161080, Note_on_c, 0, 47, 97
2, 161080, Note_on_c, 0, 80, 97
2, 161260, Note_on_c, 0, 47, 0
2, 161272, Note_on_c, 0, 50, 97
2, 161320, Note_on_c, 0, 80, 0
2, 161368, Note_on_c, 0, 74, 97
2, 161452, Note_on_c, 0, 50, 0
2, 161463, Note_on_c, 0, 74, 0
2, 161464, Note_on_c, 0, 43, 97
2, 161464, Note_on_c, 0, 75, 97
2, 161559, Note_on_c, 0, 75, 0
2, 161560, Note_on_c, 0, 77, 97
2, 161644, Note_on_c, 0, 43, 0
2, 161655, Note_on_c, 0, 77, 0
2, 161656, Note_on_c, 0, 55, 97
2, 161656, Note_on_c, 0, 75, 97
2, 161751, Note_on_c, 0, 75, 0
2, 161751, Note_on_c, 0, 55, 0
2, 161752, Note_on_c, 0, 53, 97
2, 161752, Note_on_c, 0, 74, 97
2, 161847, Note_on_c, 0, 74, 0
2, 161847, Note_on_c, 0, 53, 0
2, 161848, Note_on_c, 0, 51, 97
2, 161848, Note_on_c, 0, 72, 97
2, 161943, Note_on_c, 0, 72, 0
2, 161943, Note_on_c, 0, 51, 0
2, 161944, Note_on_c, 0, 50, 97
2, 161944, Note_on_c, 0, 71, 97
2, 162039, Note_on_c, 0, 71, 0
2, 162039, Note_on_c, 0, 50, 0
2, 162040, Note_on_c, 0, 51, 97
2, 162040, Note_on_c, 0, 72, 97
2, 162135, Note_on_c, 0, 51, 0
2, 162136, Note_on_c, 0, 50, 97
2, 162231, Note_on_c, 0, 50, 0
2, 162232, Note_on_c, 0, 48, 97
2, 162327, Note_on_c, 0, 48, 0
2, 162328, Note_on_c, 0, 50, 97
2, 162420, Note_on_c, 0, 72, 0
2, 162423, Note_on_c, 0, 50, 0
2, 162424, Note_on_c, 0, 51, 97
2, 162520, Note_on_c, 0, 79, 97
2, 162615, Note_on_c, 0, 79, 0
2, 162615, Note_on_c, 0, 51, 0
2, 162616, Note_on_c, 0, 53, 97
2, 162616, Note_on_c, 0, 73, 97
2, 162711, Note_on_c, 0, 73, 0
2, 162712, Note_on_c, 0, 72, 97
2, 162807, Note_on_c, 0, 72, 0
2, 162807, Note_on_c, 0, 53, 0
2, 162808, Note_on_c, 0, 55, 97
2, 162808, Note_on_c, 0, 70, 97
2, 162903, Note_on_c, 0, 70, 0
2, 162904, Note_on_c, 0, 75, 97
2, 162999, Note_on_c, 0, 75, 0
2, 162999, Note_on_c, 0, 55, 0
2, 163000, Note_on_c, 0, 56, 97
2, 163000, Note_on_c, 0, 70, 97
2, 163095, Note_on_c, 0, 70, 0
2, 163096, Note_on_c, 0, 68, 97
2, 163191, Note_on_c, 0, 68, 0
2, 163191, Note_on_c, 0, 56, 0
2, 163192, Note_on_c, 0, 58, 97
2, 163192, Note_on_c, 0, 67, 97
2, 163287, Note_on_c, 0, 67, 0
2, 163287, Note_on_c, 0, 58, 0
2, 163288, Note_on_c, 0, 56, 97
2, 163288, Note_on_c, 0, 68, 97
2, 163383, Note_on_c, 0, 68, 0
2, 163383, Note_on_c, 0, 56, 0
2, 163384, Note_on_c, 0, 55, 97
2, 163384, Note_on_c, 0, 70, 97
2, 163479, Note_on_c, 0, 70, 0
2, 163479, Note_on_c, 0, 55, 0
2, 163480, Note_on_c, 0, 53, 97
2, 163480, Note_on_c, 0, 72, 97
2, 163575, Note_on_c, 0, 72, 0
2, 163575, Note_on_c, 0, 53, 0
2, 163576, Note_on_c, 0, 51, 97
2, 163576, Note_on_c, 0, 73, 97
2, 163671, Note_on_c, 0, 51, 0
2, 163672, Note_on_c, 0, 58, 97
2, 163761, Note_on_c, 0, 73, 0
2, 163767, Note_on_c, 0, 58, 0
2, 163768, Note_on_c, 0, 53, 97
2, 163768, Note_on_c, 0, 70, 97
2, 163863, Note_on_c, 0, 53, 0
2, 163864, Note_on_c, 0, 51, 97
2, 163938, Note_on_c, 0, 70, 0
2, 163959, Note_on_c, 0, 51, 0
2, 163960, Note_on_c, 0, 49, 97
2, 163960, Note_on_c, 0, 79, 97
2, 164055, Note_on_c, 0, 49, 0
2, 164056, Note_on_c, 0, 58, 97
2, 164151, Note_on_c, 0, 58, 0
2, 164152, Note_on_c, 0, 51, 97
2, 164247, Note_on_c, 0, 51, 0
2, 164248, Note_on_c, 0, 49, 97
2, 164343, Note_on_c, 0, 49, 0
2, 164344, Note_on_c, 0, 48, 97
2, 164439, Note_on_c, 0, 48, 0
2, 164440, Note_on_c, 0, 79, 0
2, 164440, Note_on_c, 0, 46, 97
2, 164535, Note_on_c, 0, 46, 0
2, 164536, Note_on_c, 0, 44, 97
2, 164536, Note_on_c, 0, 72, 97
2, 164631, Note_on_c, 0, 72, 0
2, 164631, Note_on_c, 0, 44, 0
2, 164632, Note_on_c, 0, 46, 97
2, 164632, Note_on_c, 0, 70, 97
2, 164727, Note_on_c, 0, 70, 0
2, 164727, Note_on_c, 0, 46, 0
2, 164728, Note_on_c, 0, 48, 97
2, 164728, Note_on_c, 0, 68, 97
2, 164823, Note_on_c, 0, 68, 0
2, 164824, Note_on_c, 0, 77, 97
2, 164919, Note_on_c, 0, 77, 0
2, 164919, Note_on_c, 0, 48, 0
2, 164920, Note_on_c, 0, 50, 97
2, 164920, Note_on_c, 0, 70, 97
2, 165015, Note_on_c, 0, 70, 0
2, 165016, Note_on_c, 0, 68, 97
2, 165111, Note_on_c, 0, 68, 0
2, 165111, Note_on_c, 0, 50, 0
2, 165112, Note_on_c, 0, 52, 97
2, 165112, Note_on_c, 0, 67, 97
2, 165207, Note_on_c, 0, 67, 0
2, 165208, Note_on_c, 0, 73, 97
2, 165303, Note_on_c, 0, 73, 0
2, 165303, Note_on_c, 0, 52, 0
2, 165304, Note_on_c, 0, 53, 97
2, 165304, Note_on_c, 0, 67, 97
2, 165399, Note_on_c, 0, 67, 0
2, 165400, Note_on_c, 0, 65, 97
2, 165495, Note_on_c, 0, 65, 0
2, 165495, Note_on_c, 0, 53, 0
2, 165496, Note_on_c, 0, 55, 97
2, 165496, Note_on_c, 0, 64, 97
2, 165591, Note_on_c, 0, 64, 0
2, 165591, Note_on_c, 0, 55, 0
2, 165592, Note_on_c, 0, 53, 97
2, 165592, Note_on_c, 0, 65, 97
2, 165687, Note_on_c, 0, 65, 0
2, 165687, Note_on_c, 0, 53, 0
2, 165688, Note_on_c, 0, 52, 97
2, 165688, Note_on_c, 0, 67, 97
2, 165783, Note_on_c, 0, 67, 0
2, 165783, Note_on_c, 0, 52, 0
2, 165784, Note_on_c, 0, 50, 97
2, 165784, Note_on_c, 0, 68, 97
2, 165879, Note_on_c, 0, 68, 0
2, 165879, Note_on_c, 0, 50, 0
2, 165880, Note_on_c, 0, 48, 97
2, 165880, Note_on_c, 0, 70, 97
2, 165975, Note_on_c, 0, 48, 0
2, 165976, Note_on_c, 0, 55, 97
2, 166065, Note_on_c, 0, 70, 0
2, 166071, Note_on_c, 0, 55, 0
2, 166072, Note_on_c, 0, 49, 97
2, 166072, Note_on_c, 0, 67, 97
2, 166167, Note_on_c, 0, 49, 0
2, 166168, Note_on_c, 0, 48, 97
2, 166257, Note_on_c, 0, 67, 0
2, 166263, Note_on_c, 0, 48, 0
2, 166264, Note_on_c, 0, 46, 97
2, 166264, Note_on_c, 0, 77, 97
2, 166327, Note_on_c, 0, 77, 0
2, 166328, Note_on_c, 0, 76, 97
2, 166359, Note_on_c, 0, 46, 0
2, 166360, Note_on_c, 0, 55, 97
2, 166391, Note_on_c, 0, 76, 0
2, 166392, Note_on_c, 0, 77, 97
2, 166455, Note_on_c, 0, 77, 0
2, 166455, Note_on_c, 0, 55, 0
2, 166456, Note_on_c, 0, 48, 97
2, 166456, Note_on_c, 0, 76, 97
2, 166519, Note_on_c, 0, 76, 0
2, 166520, Note_on_c, 0, 74, 97
2, 166551, Note_on_c, 0, 48, 0
2, 166552, Note_on_c, 0, 46, 97
2, 166583, Note_on_c, 0, 74, 0
2, 166584, Note_on_c, 0, 76, 97
2, 166647, Note_on_c, 0, 76, 0
2, 166647, Note_on_c, 0, 46, 0
2, 166648, Note_on_c, 0, 44, 97
2, 166648, Note_on_c, 0, 77, 97
2, 166743, Note_on_c, 0, 44, 0
2, 166744, Note_on_c, 0, 53, 97
2, 166839, Note_on_c, 0, 53, 0
2, 166839, Note_on_c, 0, 77, 0
2, 166840, Note_on_c, 0, 44, 97
2, 166840, Note_on_c, 0, 65, 97
2, 166935, Note_on_c, 0, 65, 0
2, 166935, Note_on_c, 0, 44, 0
2, 166936, Note_on_c, 0, 43, 97
2, 166936, Note_on_c, 0, 67, 97
2, 167031, Note_on_c, 0, 67, 0
2, 167031, Note_on_c, 0, 43, 0
2, 167032, Note_on_c, 0, 41, 97
2, 167032, Note_on_c, 0, 68, 97
2, 167127, Note_on_c, 0, 41, 0
2, 167128, Note_on_c, 0, 48, 97
2, 167223, Note_on_c, 0, 48, 0
2, 167223, Note_on_c, 0, 68, 0
2, 167224, Note_on_c, 0, 49, 97
2, 167224, Note_on_c, 0, 70, 97
2, 167319, Note_on_c, 0, 49, 0
2, 167320, Note_on_c, 0, 43, 97
2, 167415, Note_on_c, 0, 43, 0
2, 167415, Note_on_c, 0, 70, 0
2, 167416, Note_on_c, 0, 45, 97
2, 167416, Note_on_c, 0, 72, 97
2, 167511, Note_on_c, 0, 45, 0
2, 167512, Note_on_c, 0, 51, 97
2, 167607, Note_on_c, 0, 51, 0
2, 167607, Note_on_c, 0, 72, 0
2, 167608, Note_on_c, 0, 53, 97
2, 167608, Note_on_c, 0, 74, 97
2, 167703, Note_on_c, 0, 53, 0
2, 167704, Note_on_c, 0, 47, 97
2, 167799, Note_on_c, 0, 47, 0
2, 167799, Note_on_c, 0, 74, 0
2, 167800, Note_on_c, 0, 48, 97
2, 167800, Note_on_c, 0, 75, 97
2, 167895, Note_on_c, 0, 75, 0
2, 167895, Note_on_c, 0, 48, 0
2, 167896, Note_on_c, 0, 53, 97
2, 167896, Note_on_c, 0, 74, 97
2, 167991, Note_on_c, 0, 74, 0
2, 167991, Note_on_c, 0, 53, 0
2, 167992, Note_on_c, 0, 51, 97
2, 167992, Note_on_c, 0, 72, 97
2, 168087, Note_on_c, 0, 72, 0
2, 168087, Note_on_c, 0, 51, 0
2, 168088, Note_on_c, 0, 50, 97
2, 168088, Note_on_c, 0, 74, 97
2, 168183, Note_on_c, 0, 74, 0
2, 168183, Note_on_c, 0, 50, 0
2, 168184, Note_on_c, 0, 48, 97
2, 168184, Note_on_c, 0, 75, 97
2, 168279, Note_on_c, 0, 48, 0
2, 168280, Note_on_c, 0, 55, 97
2, 168375, Note_on_c, 0, 55, 0
2, 168375, Note_on_c, 0, 75, 0
2, 168376, Note_on_c, 0, 56, 97
2, 168376, Note_on_c, 0, 77, 97
2, 168471, Note_on_c, 0, 56, 0
2, 168472, Note_on_c, 0, 50, 97
2, 168567, Note_on_c, 0, 50, 0
2, 168567, Note_on_c, 0, 77, 0
2, 168568, Note_on_c, 0, 51, 97
2, 168568, Note_on_c, 0, 79, 97
2, 168663, Note_on_c, 0, 51, 0
2, 168664, Note_on_c, 0, 59, 97
2, 168759, Note_on_c, 0, 59, 0
2, 168759, Note_on_c, 0, 79, 0
2, 168760, Note_on_c, 0, 60, 97
2, 168760, Note_on_c, 0, 80, 97
2, 168855, Note_on_c, 0, 60, 0
2, 168856, Note_on_c, 0, 53, 97
2, 168951, Note_on_c, 0, 53, 0
2, 168951, Note_on_c, 0, 80, 0
2, 168952, Note_on_c, 0, 55, 97
2, 168952, Note_on_c, 0, 71, 97
2, 169048, Note_on_c, 0, 79, 97
2, 169143, Note_on_c, 0, 79, 0
2, 169144, Note_on_c, 0, 43, 97
2, 169144, Note_on_c, 0, 74, 97
2, 169232, Note_on_c, 0, 55, 0
2, 169239, Note_on_c, 0, 74, 0
2, 169240, Note_on_c, 0, 71, 0
2, 169240, Note_on_c, 0, 72, 97
2, 169334, Note_on_c, 0, 43, 0
2, 169335, Note_on_c, 0, 72, 0
2, 169336, Note_on_c, 0, 71, 97
2, 169431, Note_on_c, 0, 71, 0
2, 169432, Note_on_c, 0, 69, 97
2, 169432, Note_on_c, 0, 72, 97
2, 169527, Note_on_c, 0, 72, 0
2, 169527, Note_on_c, 0, 69, 0
2, 169528, Note_on_c, 0, 71, 97
2, 169528, Note_on_c, 0, 74, 97
2, 169623, Note_on_c, 0, 74, 0
2, 169623, Note_on_c, 0, 71, 0
2, 169624, Note_on_c, 0, 72, 97
2, 169624, Note_on_c, 0, 75, 97
2, 169719, Note_on_c, 0, 75, 0
2, 169719, Note_on_c, 0, 72, 0
2, 169720, Note_on_c, 0, 71, 97
2, 169720, Note_on_c, 0, 74, 97
2, 169816, Note_on_c, 0, 79, 97
2, 169860, Note_on_c, 0, 74, 0
2, 169911, Note_on_c, 0, 79, 0
2, 169911, Note_on_c, 0, 71, 0
2, 169912, Note_on_c, 0, 69, 97
2, 169912, Note_on_c, 0, 74, 97
2, 170007, Note_on_c, 0, 74, 0
2, 170008, Note_on_c, 0, 72, 97
2, 170103, Note_on_c, 0, 72, 0
2, 170103, Note_on_c, 0, 69, 0
2, 170104, Note_on_c, 0, 67, 97
2, 170104, Note_on_c, 0, 71, 97
2, 170200, Note_on_c, 0, 79, 97
2, 170295, Note_on_c, 0, 79, 0
2, 170296, Note_on_c, 0, 55, 97
2, 170296, Note_on_c, 0, 74, 97
2, 170384, Note_on_c, 0, 71, 0
2, 170391, Note_on_c, 0, 74, 0
2, 170392, Note_on_c, 0, 72, 97
2, 170484, Note_on_c, 0, 67, 0
2, 170487, Note_on_c, 0, 72, 0
2, 170488, Note_on_c, 0, 71, 97
2, 170556, Note_on_c, 0, 55, 0
2, 170583, Note_on_c, 0, 71, 0
2, 170584, Note_on_c, 0, 63, 97
2, 170584, Note_on_c, 0, 72, 97
2, 170679, Note_on_c, 0, 72, 0
2, 170679, Note_on_c, 0, 63, 0
2, 170680, Note_on_c, 0, 65, 97
2, 170680, Note_on_c, 0, 74, 97
2, 170775, Note_on_c, 0, 74, 0
2, 170775, Note_on_c, 0, 65, 0
2, 170776, Note_on_c, 0, 67, 97
2, 170776, Note_on_c, 0, 75, 97
2, 170871, Note_on_c, 0, 75, 0
2, 170871, Note_on_c, 0, 67, 0
2, 170872, Note_on_c, 0, 65, 97
2, 170872, Note_on_c, 0, 74, 97
2, 170968, Note_on_c, 0, 79, 97
2, 171012, Note_on_c, 0, 74, 0
2, 171063, Note_on_c, 0, 79, 0
2, 171063, Note_on_c, 0, 65, 0
2, 171064, Note_on_c, 0, 63, 97
2, 171064, Note_on_c, 0, 74, 97
2, 171159, Note_on_c, 0, 74, 0
2, 171160, Note_on_c, 0, 72, 97
2, 171255, Note_on_c, 0, 72, 0
2, 171255, Note_on_c, 0, 63, 0
2, 171256, Note_on_c, 0, 62, 97
2, 171256, Note_on_c, 0, 71, 97
2, 171352, Note_on_c, 0, 77, 97
2, 171416, Note_on_c, 0, 71, 0
2, 171447, Note_on_c, 0, 77, 0
2, 171448, Note_on_c, 0, 55, 97
2, 171448, Note_on_c, 0, 74, 97
2, 171536, Note_on_c, 0, 62, 0
2, 171543, Note_on_c, 0, 74, 0
2, 171544, Note_on_c, 0, 72, 97
2, 171639, Note_on_c, 0, 72, 0
2, 171640, Note_on_c, 0, 71, 97
2, 171708, Note_on_c, 0, 55, 0
2, 171735, Note_on_c, 0, 71, 0
2, 171736, Note_on_c, 0, 57, 97
2, 171736, Note_on_c, 0, 72, 97
2, 171831, Note_on_c, 0, 72, 0
2, 171831, Note_on_c, 0, 57, 0
2, 171832, Note_on_c, 0, 59, 97
2, 171832, Note_on_c, 0, 74, 97
2, 171927, Note_on_c, 0, 74, 0
2, 171927, Note_on_c, 0, 59, 0
2, 171928, Note_on_c, 0, 60, 97
2, 171928, Note_on_c, 0, 75, 97
2, 172023, Note_on_c, 0, 75, 0
2, 172023, Note_on_c, 0, 60, 0
2, 172024, Note_on_c, 0, 59, 97
2, 172024, Note_on_c, 0, 74, 97
2, 172120, Note_on_c, 0, 77, 97
2, 172154, Note_on_c, 0, 74, 0
2, 172215, Note_on_c, 0, 77, 0
2, 172215, Note_on_c, 0, 59, 0
2, 172216, Note_on_c, 0, 57, 97
2, 172216, Note_on_c, 0, 74, 97
2, 172311, Note_on_c, 0, 74, 0
2, 172312, Note_on_c, 0, 72, 97
2, 172407, Note_on_c, 0, 72, 0
2, 172407, Note_on_c, 0, 57, 0
2, 172408, Note_on_c, 0, 55, 97
2, 172408, Note_on_c, 0, 71, 97
2, 172504, Note_on_c, 0, 77, 97
2, 172598, Note_on_c, 0, 71, 0
2, 172599, Note_on_c, 0, 77, 0
2, 172600, Note_on_c, 0, 43, 97
2, 172600, Note_on_c, 0, 74, 97
2, 172695, Note_on_c, 0, 74, 0
2, 172696, Note_on_c, 0, 72, 97
2, 172788, Note_on_c, 0, 55, 0
2, 172791, Note_on_c, 0, 72, 0
2, 172792, Note_on_c, 0, 71, 97
2, 172880, Note_on_c, 0, 43, 0
2, 172887, Note_on_c, 0, 71, 0
2, 172888, Note_on_c, 0, 74, 97
2, 172983, Note_on_c, 0, 74, 0
2, 172984, Note_on_c, 0, 67, 97
2, 172984, Note_on_c, 0, 77, 97
2, 173079, Note_on_c, 0, 77, 0
2, 173079, Note_on_c, 0, 67, 0
2, 173080, Note_on_c, 0, 65, 97
2, 173080, Note_on_c, 0, 80, 97
2, 173175, Note_on_c, 0, 80, 0
2, 173175, Note_on_c, 0, 65, 0
2, 173176, Note_on_c, 0, 63, 97
2, 173176, Note_on_c, 0, 79, 97
2, 173271, Note_on_c, 0, 79, 0
2, 173271, Note_on_c, 0, 63, 0
2, 173272, Note_on_c, 0, 62, 97
2, 173272, Note_on_c, 0, 77, 97
2, 173367, Note_on_c, 0, 77, 0
2, 173367, Note_on_c, 0, 62, 0
2, 173368, Note_on_c, 0, 60, 97
2, 173368, Note_on_c, 0, 75, 97
2, 173463, Note_on_c, 0, 75, 0
2, 173463, Note_on_c, 0, 60, 0
2, 173464, Note_on_c, 0, 59, 97
2, 173464, Note_on_c, 0, 74, 97
2, 173559, Note_on_c, 0, 74, 0
2, 173559, Note_on_c, 0, 59, 0
2, 173560, Note_on_c, 0, 60, 97
2, 173560, Note_on_c, 0, 75, 97
2, 173655, Note_on_c, 0, 75, 0
2, 173656, Note_on_c, 0, 77, 97
2, 173751, Note_on_c, 0, 77, 0
2, 173751, Note_on_c, 0, 60, 0
2, 173752, Note_on_c, 0, 48, 97
2, 173752, Note_on_c, 0, 79, 97
2, 173847, Note_on_c, 0, 79, 0
2, 173847, Note_on_c, 0, 48, 0
2, 173848, Note_on_c, 0, 50, 97
2, 173848, Note_on_c, 0, 75, 97
2, 173943, Note_on_c, 0, 75, 0
2, 173943, Note_on_c, 0, 50, 0
2, 173944, Note_on_c, 0, 51, 97
2, 173944, Note_on_c, 0, 72, 97
2, 174039, Note_on_c, 0, 72, 0
2, 174040, Note_on_c, 0, 79, 97
2, 174135, Note_on_c, 0, 79, 0
2, 174135, Note_on_c, 0, 51, 0
2, 174136, Note_on_c, 0, 53, 97
2, 174136, Note_on_c, 0, 77, 97
2, 174231, Note_on_c, 0, 77, 0
2, 174232, Note_on_c, 0, 75, 97
2, 174327, Note_on_c, 0, 75, 0
2, 174327, Note_on_c, 0, 53, 0
2, 174328, Note_on_c, 0, 55, 97
2, 174328, Note_on_c, 0, 74, 97
2, 174423, Note_on_c, 0, 74, 0
2, 174424, Note_on_c, 0, 72, 97
2, 174519, Note_on_c, 0, 72, 0
2, 174519, Note_on_c, 0, 55, 0
2, 174520, Note_on_c, 0, 56, 97
2, 174520, Note_on_c, 0, 70, 97
2, 174615, Note_on_c, 0, 70, 0
2, 174616, Note_on_c, 0, 68, 97
2, 174711, Note_on_c, 0, 68, 0
2, 174711, Note_on_c, 0, 56, 0
2, 174712, Note_on_c, 0, 58, 97
2, 174712, Note_on_c, 0, 67, 97
2, 174807, Note_on_c, 0, 67, 0
2, 174807, Note_on_c, 0, 58, 0
2, 174808, Note_on_c, 0, 56, 97
2, 174808, Note_on_c, 0, 68, 97
2, 174903, Note_on_c, 0, 68, 0
2, 174903, Note_on_c, 0, 56, 0
2, 174904, Note_on_c, 0, 55, 97
2, 174904, Note_on_c, 0, 70, 97
2, 174999, Note_on_c, 0, 55, 0
2, 175000, Note_on_c, 0, 56, 97
2, 175095, Note_on_c, 0, 56, 0
2, 175096, Note_on_c, 0, 58, 97
2, 175164, Note_on_c, 0, 70, 0
2, 175192, Note_on_c, 0, 72, 97
2, 175287, Note_on_c, 0, 72, 0
2, 175287, Note_on_c, 0, 58, 0
2, 175288, Note_on_c, 0, 60, 97
2, 175288, Note_on_c, 0, 70, 97
2, 175383, Note_on_c, 0, 70, 0
2, 175384, Note_on_c, 0, 68, 97
2, 175479, Note_on_c, 0, 68, 0
2, 175479, Note_on_c, 0, 60, 0
2, 175480, Note_on_c, 0, 61, 97
2, 175480, Note_on_c, 0, 67, 97
2, 175575, Note_on_c, 0, 67, 0
2, 175576, Note_on_c, 0, 65, 97
2, 175660, Note_on_c, 0, 61, 0
2, 175671, Note_on_c, 0, 65, 0
2, 175672, Note_on_c, 0, 55, 97
2, 175672, Note_on_c, 0, 64, 97
2, 175767, Note_on_c, 0, 64, 0
2, 175768, Note_on_c, 0, 62, 97
2, 175852, Note_on_c, 0, 55, 0
2, 175863, Note_on_c, 0, 62, 0
2, 175864, Note_on_c, 0, 58, 97
2, 175864, Note_on_c, 0, 60, 97
2, 175959, Note_on_c, 0, 60, 0
2, 175960, Note_on_c, 0, 67, 97
2, 176044, Note_on_c, 0, 58, 0
2, 176055, Note_on_c, 0, 67, 0
2, 176056, Note_on_c, 0, 52, 97
2, 176056, Note_on_c, 0, 60, 97
2, 176151, Note_on_c, 0, 60, 0
2, 176152, Note_on_c, 0, 58, 97
2, 176236, Note_on_c, 0, 52, 0
2, 176247, Note_on_c, 0, 58, 0
2, 176248, Note_on_c, 0, 55, 97
2, 176248, Note_on_c, 0, 60, 97
2, 176343, Note_on_c, 0, 60, 0
2, 176344, Note_on_c, 0, 62, 97
2, 176428, Note_on_c, 0, 55, 0
2, 176439, Note_on_c, 0, 62, 0
2, 176440, Note_on_c, 0, 48, 97
2, 176440, Note_on_c, 0, 64, 97
2, 176535, Note_on_c, 0, 64, 0
2, 176536, Note_on_c, 0, 65, 97
2, 176620, Note_on_c, 0, 48, 0
2, 176631, Note_on_c, 0, 65, 0
2, 176632, Note_on_c, 0, 60, 97
2, 176632, Note_on_c, 0, 64, 97
2, 176727, Note_on_c, 0, 64, 0
2, 176727, Note_on_c, 0, 60, 0
2, 176728, Note_on_c, 0, 58, 97
2, 176728, Note_on_c, 0, 67, 97
2, 176823, Note_on_c, 0, 67, 0
2, 176823, Note_on_c, 0, 58, 0
2, 176824, Note_on_c, 0, 56, 97
2, 176824, Note_on_c, 0, 60, 97
2, 176919, Note_on_c, 0, 60, 0
2, 176919, Note_on_c, 0, 56, 0
2, 176920, Note_on_c, 0, 55, 97
2, 176920, Note_on_c, 0, 58, 97
2, 177015, Note_on_c, 0, 58, 0
2, 177015, Note_on_c, 0, 55, 0
2, 177016, Note_on_c, 0, 56, 97
2, 177016, Note_on_c, 0, 60, 97
2, 177111, Note_on_c, 0, 60, 0
2, 177112, Note_on_c, 0, 67, 97
2, 177207, Note_on_c, 0, 67, 0
2, 177208, Note_on_c, 0, 65, 97
2, 177303, Note_on_c, 0, 65, 0
2, 177304, Note_on_c, 0, 64, 97
2, 177399, Note_on_c, 0, 64, 0
2, 177400, Note_on_c, 0, 65, 97
2, 177436, Note_on_c, 0, 56, 0
2, 177495, Note_on_c, 0, 65, 0
2, 177496, Note_on_c, 0, 58, 97
2, 177496, Note_on_c, 0, 60, 97
2, 177591, Note_on_c, 0, 60, 0
2, 177591, Note_on_c, 0, 58, 0
2, 177592, Note_on_c, 0, 56, 97
2, 177592, Note_on_c, 0, 65, 97
2, 177687, Note_on_c, 0, 65, 0
2, 177687, Note_on_c, 0, 56, 0
2, 177688, Note_on_c, 0, 55, 97
2, 177688, Note_on_c, 0, 67, 97
2, 177783, Note_on_c, 0, 67, 0
2, 177783, Note_on_c, 0, 55, 0
2, 177784, Note_on_c, 0, 53, 97
2, 177784, Note_on_c, 0, 68, 97
2, 177879, Note_on_c, 0, 68, 0
2, 177879, Note_on_c, 0, 53, 0
2, 177880, Note_on_c, 0, 55, 97
2, 177880, Note_on_c, 0, 70, 97
2, 177975, Note_on_c, 0, 70, 0
2, 177975, Note_on_c, 0, 55, 0
2, 177976, Note_on_c, 0, 56, 97
2, 177976, Note_on_c, 0, 72, 97
2, 178071, Note_on_c, 0, 72, 0
2, 178071, Note_on_c, 0, 56, 0
2, 178072, Note_on_c, 0, 53, 97
2, 178072, Note_on_c, 0, 74, 97
2, 178167, Note_on_c, 0, 74, 0
2, 178167, Note_on_c, 0, 53, 0
2, 178168, Note_on_c, 0, 55, 97
2, 178168, Note_on_c, 0, 75, 97
2, 178263, Note_on_c, 0, 75, 0
2, 178263, Note_on_c, 0, 55, 0
2, 178264, Note_on_c, 0, 53, 97
2, 178264, Note_on_c, 0, 74, 97
2, 178359, Note_on_c, 0, 74, 0
2, 178359, Note_on_c, 0, 53, 0
2, 178360, Note_on_c, 0, 51, 97
2, 178360, Note_on_c, 0, 72, 97
2, 178455, Note_on_c, 0, 72, 0
2, 178455, Note_on_c, 0, 51, 0
2, 178456, Note_on_c, 0, 50, 97
2, 178456, Note_on_c, 0, 74, 97
2, 178551, Note_on_c, 0, 74, 0
2, 178551, Note_on_c, 0, 50, 0
2, 178552, Note_on_c, 0, 48, 97
2, 178552, Note_on_c, 0, 75, 97
2, 178647, Note_on_c, 0, 48, 0
2, 178648, Note_on_c, 0, 46, 97
2, 178743, Note_on_c, 0, 46, 0
2, 178743, Note_on_c, 0, 75, 0
2, 178744, Note_on_c, 0, 44, 97
2, 178744, Note_on_c, 0, 77, 97
2, 178839, Note_on_c, 0, 77, 0
2, 178839, Note_on_c, 0, 44, 0
2, 178840, Note_on_c, 0, 43, 97
2, 178840, Note_on_c, 0, 79, 97
2, 178935, Note_on_c, 0, 79, 0
2, 178935, Note_on_c, 0, 43, 0
2, 178936, Note_on_c, 0, 41, 97
2, 178936, Note_on_c, 0, 80, 97
2, 179032, Note_on_c, 0, 53, 97
2, 179116, Note_on_c, 0, 80, 0
2, 179126, Note_on_c, 0, 41, 0
2, 179127, Note_on_c, 0, 53, 0
2, 179128, Note_on_c, 0, 52, 97
2, 179128, Note_on_c, 0, 73, 97
2, 179223, Note_on_c, 0, 52, 0
2, 179224, Note_on_c, 0, 53, 97
2, 179308, Note_on_c, 0, 73, 0
2, 179319, Note_on_c, 0, 53, 0
2, 179320, Note_on_c, 0, 56, 97
2, 179320, Note_on_c, 0, 77, 97
2, 179416, Note_on_c, 0, 53, 97
2, 179480, Note_on_c, 0, 56, 0
2, 179500, Note_on_c, 0, 77, 0
2, 179511, Note_on_c, 0, 53, 0
2, 179512, Note_on_c, 0, 52, 97
2, 179512, Note_on_c, 0, 71, 97
2, 179607, Note_on_c, 0, 52, 0
2, 179608, Note_on_c, 0, 53, 97
2, 179692, Note_on_c, 0, 71, 0
2, 179703, Note_on_c, 0, 53, 0
2, 179704, Note_on_c, 0, 47, 97
2, 179704, Note_on_c, 0, 74, 97
2, 179800, Note_on_c, 0, 53, 97
2, 179864, Note_on_c, 0, 47, 0
2, 179884, Note_on_c, 0, 74, 0
2, 179895, Note_on_c, 0, 53, 0
2, 179896, Note_on_c, 0, 51, 97
2, 179896, Note_on_c, 0, 67, 97
2, 179991, Note_on_c, 0, 51, 0
2, 179992, Note_on_c, 0, 50, 97
2, 180076, Note_on_c, 0, 67, 0
2, 180087, Note_on_c, 0, 50, 0
2, 180088, Note_on_c, 0, 51, 97
2, 180088, Note_on_c, 0, 79, 97
2, 180183, Note_on_c, 0, 79, 0
2, 180184, Note_on_c, 0, 55, 97
2, 180184, Note_on_c, 0, 77, 97
2, 180208, Note_on_c, 0, 51, 0
2, 180279, Note_on_c, 0, 77, 0
2, 180279, Note_on_c, 0, 55, 0
2, 180280, Note_on_c, 0, 48, 97
2, 180280, Note_on_c, 0, 75, 97
2, 180375, Note_on_c, 0, 75, 0
2, 180376, Note_on_c, 0, 51, 97
2, 180376, Note_on_c, 0, 74, 97
2, 180400, Note_on_c, 0, 48, 0
2, 180471, Note_on_c, 0, 74, 0
2, 180471, Note_on_c, 0, 51, 0
2, 180472, Note_on_c, 0, 42, 97
2, 180472, Note_on_c, 0, 75, 97
2, 181047, Note_on_c, 0, 75, 0
2, 181047, Note_on_c, 0, 42, 0
2, 181432, Note_on_c, 0, 69, 97
2, 181432, Note_on_c, 0, 72, 97
2, 181432, Note_on_c, 0, 54, 97
2, 181432, Note_on_c, 0, 63, 97
2, 181527, Note_on_c, 0, 63, 0
2, 181527, Note_on_c, 0, 69, 0
2, 181527, Note_on_c, 0, 72, 0
2, 181527, Note_on_c, 0, 54, 0
2, 181528, Note_on_c, 0, 67, 97
2, 181528, Note_on_c, 0, 72, 97
2, 181528, Note_on_c, 0, 55, 97
2, 181528, Note_on_c, 0, 62, 97
2, 182103, Note_on_c, 0, 62, 0
2, 182120, Note_on_c, 0, 43, 97
2, 182151, Note_on_c, 0, 72, 0
2, 182168, Note_on_c, 0, 71, 97
2, 182215, Note_on_c, 0, 71, 0
2, 182216, Note_on_c, 0, 72, 97
2, 182263, Note_on_c, 0, 72, 0
2, 182264, Note_on_c, 0, 71, 97
2, 182311, Note_on_c, 0, 71, 0
2, 182312, Note_on_c, 0, 72, 97
2, 182359, Note_on_c, 0, 72, 0
2, 182360, Note_on_c, 0, 71, 97
2, 182407, Note_on_c, 0, 71, 0
2, 182408, Note_on_c, 0, 72, 97
2, 182455, Note_on_c, 0, 72, 0
2, 182456, Note_on_c, 0, 71, 97
2, 182705, Note_on_c, 0, 71, 0
2, 182732, Note_on_c, 0, 72, 97
2, 182778, Note_on_c, 0, 67, 0
2, 182878, Note_on_c, 0, 55, 0
2, 182887, Note_on_c, 0, 43, 0
2, 182900, Note_on_c, 0, 72, 0
2, 182920, Note_on_c, 0, 36, 97
2, 182920, Note_on_c, 0, 63, 97
2, 182920, Note_on_c, 0, 67, 97
2, 182920, Note_on_c, 0, 72, 97
2, 184220, Note_on_c, 0, 72, 0
2, 184220, Note_on_c, 0, 36, 0
2, 184220, Note_on_c, 0, 63, 0
2, 184220, Note_on_c, 0, 67, 0
2, 185656, Note_on_c, 0, 80, 97
2, 185847, Note_on_c, 0, 80, 0
2, 185848, Note_on_c, 0, 79, 97
2, 186039, Note_on_c, 0, 79, 0
2, 186040, Note_on_c, 0, 77, 97
2, 186231, Note_on_c, 0, 77, 0
2, 186232, Note_on_c, 0, 48, 97
2, 186232, Note_on_c, 0, 79, 97
2, 186423, Note_on_c, 0, 79, 0
2, 186424, Note_on_c, 0, 74, 97
2, 186615, Note_on_c, 0, 74, 0
2, 186616, Note_on_c, 0, 36, 97
2, 186616, Note_on_c, 0, 75, 97
2, 186807, Note_on_c, 0, 75, 0
2, 186808, Note_on_c, 0, 71, 97
2, 186952, Note_on_c, 0, 48, 0
2, 186999, Note_on_c, 0, 71, 0
2, 187000, Note_on_c, 0, 72, 97
2, 187136, Note_on_c, 0, 36, 0
2, 187191, Note_on_c, 0, 72, 0
2, 187192, Note_on_c, 0, 68, 97
2, 187192, Note_on_c, 0, 77, 97
2, 187383, Note_on_c, 0, 77, 0
2, 187383, Note_on_c, 0, 68, 0
2, 187384, Note_on_c, 0, 67, 97
2, 187384, Note_on_c, 0, 75, 97
2, 187575, Note_on_c, 0, 75, 0
2, 187575, Note_on_c, 0, 67, 0
2, 187576, Note_on_c, 0, 65, 97
2, 187576, Note_on_c, 0, 74, 97
2, 187767, Note_on_c, 0, 74, 0
2, 187767, Note_on_c, 0, 65, 0
2, 187768, Note_on_c, 0, 67, 97
2, 187768, Note_on_c, 0, 75, 97
2, 187959, Note_on_c, 0, 75, 0
2, 187959, Note_on_c, 0, 67, 0
2, 187960, Note_on_c, 0, 62, 97
2, 187960, Note_on_c, 0, 71, 97
2, 188151, Note_on_c, 0, 71, 0
2, 188151, Note_on_c, 0, 62, 0
2, 188152, Note_on_c, 0, 63, 97
2, 188152, Note_on_c, 0, 72, 97
2, 188343, Note_on_c, 0, 72, 0
2, 188343, Note_on_c, 0, 63, 0
2, 188344, Note_on_c, 0, 59, 97
2, 188344, Note_on_c, 0, 67, 97
2, 188535, Note_on_c, 0, 67, 0
2, 188535, Note_on_c, 0, 59, 0
2, 188536, Note_on_c, 0, 60, 97
2, 188536, Note_on_c, 0, 68, 97
2, 188727, Note_on_c, 0, 68, 0
2, 188727, Note_on_c, 0, 60, 0
2, 188728, Note_on_c, 0, 65, 97
2, 188728, Note_on_c, 0, 74, 97
2, 188919, Note_on_c, 0, 74, 0
2, 188919, Note_on_c, 0, 65, 0
2, 188920, Note_on_c, 0, 63, 97
2, 188920, Note_on_c, 0, 72, 97
2, 189111, Note_on_c, 0, 72, 0
2, 189111, Note_on_c, 0, 63, 0
2, 189112, Note_on_c, 0, 62, 97
2, 189112, Note_on_c, 0, 71, 97
2, 189303, Note_on_c, 0, 71, 0
2, 189303, Note_on_c, 0, 62, 0
2, 189304, Note_on_c, 0, 63, 97
2, 189304, Note_on_c, 0, 72, 97
2, 189495, Note_on_c, 0, 72, 0
2, 189495, Note_on_c, 0, 63, 0
2, 189496, Note_on_c, 0, 59, 97
2, 189496, Note_on_c, 0, 67, 97
2, 189687, Note_on_c, 0, 67, 0
2, 189687, Note_on_c, 0, 59, 0
2, 189688, Note_on_c, 0, 60, 97
2, 189688, Note_on_c, 0, 68, 97
2, 189879, Note_on_c, 0, 68, 0
2, 189879, Note_on_c, 0, 60, 0
2, 189880, Note_on_c, 0, 55, 97
2, 189880, Note_on_c, 0, 63, 97
2, 190071, Note_on_c, 0, 63, 0
2, 190071, Note_on_c, 0, 55, 0
2, 190072, Note_on_c, 0, 56, 97
2, 190072, Note_on_c, 0, 65, 97
2, 190263, Note_on_c, 0, 65, 0
2, 190264, Note_on_c, 0, 75, 97
2, 190455, Note_on_c, 0, 75, 0
2, 190455, Note_on_c, 0, 56, 0
2, 190456, Note_on_c, 0, 53, 97
2, 190456, Note_on_c, 0, 74, 97
2, 190647, Note_on_c, 0, 74, 0
2, 190648, Note_on_c, 0, 72, 97
2, 190839, Note_on_c, 0, 72, 0
2, 190839, Note_on_c, 0, 53, 0
2, 190840, Note_on_c, 0, 55, 97
2, 190840, Note_on_c, 0, 71, 97
2, 190935, Note_on_c, 0, 71, 0
2, 190936, Note_on_c, 0, 72, 97
2, 191031, Note_on_c, 0, 72, 0
2, 191032, Note_on_c, 0, 71, 97
2, 191224, Note_on_c, 0, 43, 97
2, 191415, Note_on_c, 0, 71, 0
2, 191416, Note_on_c, 0, 69, 97
2, 191560, Note_on_c, 0, 55, 0
2, 191607, Note_on_c, 0, 69, 0
2, 191608, Note_on_c, 0, 67, 97
2, 191744, Note_on_c, 0, 43, 0
2, 191800, Note_on_c, 0, 53, 97
2, 191991, Note_on_c, 0, 53, 0
2, 191991, Note_on_c, 0, 67, 0
2, 191992, Note_on_c, 0, 51, 97
2, 191992, Note_on_c, 0, 71, 97
2, 192183, Note_on_c, 0, 51, 0
2, 192184, Note_on_c, 0, 50, 97
2, 192375, Note_on_c, 0, 50, 0
2, 192375, Note_on_c, 0, 71, 0
2, 192376, Note_on_c, 0, 51, 97
2, 192376, Note_on_c, 0, 72, 97
2, 192567, Note_on_c, 0, 72, 0
2, 192567, Note_on_c, 0, 51, 0
2, 192568, Note_on_c, 0, 47, 97
2, 192568, Note_on_c, 0, 74, 97
2, 192759, Note_on_c, 0, 74, 0
2, 192759, Note_on_c, 0, 47, 0
2, 192760, Note_on_c, 0, 48, 97
2, 192760, Note_on_c, 0, 75, 97
2, 192951, Note_on_c, 0, 48, 0
2, 192952, Note_on_c, 0, 43, 97
2, 193143, Note_on_c, 0, 43, 0
2, 193144, Note_on_c, 0, 44, 97
2, 193144, Note_on_c, 0, 65, 97
2, 193240, Note_on_c, 0, 75, 0
2, 193335, Note_on_c, 0, 65, 0
2, 193335, Note_on_c, 0, 44, 0
2, 193336, Note_on_c, 0, 55, 97
2, 193336, Note_on_c, 0, 75, 97
2, 193527, Note_on_c, 0, 75, 0
2, 193527, Note_on_c, 0, 55, 0
2, 193528, Note_on_c, 0, 53, 97
2, 193528, Note_on_c, 0, 74, 97
2, 193719, Note_on_c, 0, 74, 0
2, 193719, Note_on_c, 0, 53, 0
2, 193720, Note_on_c, 0, 51, 97
2, 193720, Note_on_c, 0, 72, 97
2, 193911, Note_on_c, 0, 72, 0
2, 193911, Note_on_c, 0, 51, 0
2, 193912, Note_on_c, 0, 53, 97
2, 193912, Note_on_c, 0, 74, 97
2, 194103, Note_on_c, 0, 74, 0
2, 194103, Note_on_c, 0, 53, 0
2, 194104, Note_on_c, 0, 48, 97
2, 194104, Note_on_c, 0, 75, 97
2, 194295, Note_on_c, 0, 75, 0
2, 194295, Note_on_c, 0, 48, 0
2, 194296, Note_on_c, 0, 50, 97
2, 194296, Note_on_c, 0, 77, 97
2, 194487, Note_on_c, 0, 50, 0
2, 194488, Note_on_c, 0, 45, 97
2, 194679, Note_on_c, 0, 45, 0
2, 194680, Note_on_c, 0, 47, 97
2, 194680, Note_on_c, 0, 67, 97
2, 194776, Note_on_c, 0, 77, 0
2, 194871, Note_on_c, 0, 67, 0
2, 194871, Note_on_c, 0, 47, 0
2, 194872, Note_on_c, 0, 56, 97
2, 194872, Note_on_c, 0, 77, 97
2, 195063, Note_on_c, 0, 77, 0
2, 195063, Note_on_c, 0, 56, 0
2, 195064, Note_on_c, 0, 55, 97
2, 195064, Note_on_c, 0, 75, 97
2, 195255, Note_on_c, 0, 75, 0
2, 195255, Note_on_c, 0, 55, 0
2, 195256, Note_on_c, 0, 53, 97
2, 195256, Note_on_c, 0, 74, 97
2, 195447, Note_on_c, 0, 74, 0
2, 195447, Note_on_c, 0, 53, 0
2, 195448, Note_on_c, 0, 55, 97
2, 195448, Note_on_c, 0, 75, 97
2, 195639, Note_on_c, 0, 75, 0
2, 195639, Note_on_c, 0, 55, 0
2, 195640, Note_on_c, 0, 50, 97
2, 195640, Note_on_c, 0, 77, 97
2, 195831, Note_on_c, 0, 77, 0
2, 195831, Note_on_c, 0, 50, 0
2, 195832, Note_on_c, 0, 51, 97
2, 195832, Note_on_c, 0, 79, 97
2, 196023, Note_on_c, 0, 51, 0
2, 196024, Note_on_c, 0, 47, 97
2, 196215, Note_on_c, 0, 47, 0
2, 196216, Note_on_c, 0, 48, 97
2, 196216, Note_on_c, 0, 68, 97
2, 196312, Note_on_c, 0, 79, 0
2, 196407, Note_on_c, 0, 68, 0
2, 196407, Note_on_c, 0, 48, 0
2, 196408, Note_on_c, 0, 58, 97
2, 196408, Note_on_c, 0, 79, 97
2, 196599, Note_on_c, 0, 79, 0
2, 196599, Note_on_c, 0, 58, 0
2, 196600, Note_on_c, 0, 56, 97
2, 196600, Note_on_c, 0, 77, 97
2, 196791, Note_on_c, 0, 77, 0
2, 196791, Note_on_c, 0, 56, 0
2, 196792, Note_on_c, 0, 55, 97
2, 196792, Note_on_c, 0, 75, 97
2, 196983, Note_on_c, 0, 75, 0
2, 196983, Note_on_c, 0, 55, 0
2, 196984, Note_on_c, 0, 56, 97
2, 196984, Note_on_c, 0, 77, 97
2, 197175, Note_on_c, 0, 77, 0
2, 197175, Note_on_c, 0, 56, 0
2, 197176, Note_on_c, 0, 51, 97
2, 197176, Note_on_c, 0, 79, 97
2, 197367, Note_on_c, 0, 79, 0
2, 197367, Note_on_c, 0, 51, 0
2, 197368, Note_on_c, 0, 53, 97
2, 197368, Note_on_c, 0, 80, 97
2, 197559, Note_on_c, 0, 53, 0
2, 197560, Note_on_c, 0, 48, 97
2, 197751, Note_on_c, 0, 48, 0
2, 197752, Note_on_c, 0, 50, 97
2, 197752, Note_on_c, 0, 71, 97
2, 197848, Note_on_c, 0, 80, 0
2, 197943, Note_on_c, 0, 71, 0
2, 197944, Note_on_c, 0, 80, 97
2, 198135, Note_on_c, 0, 80, 0
2, 198135, Note_on_c, 0, 50, 0
2, 198136, Note_on_c, 0, 59, 97
2, 198136, Note_on_c, 0, 79, 97
2, 198327, Note_on_c, 0, 79, 0
2, 198328, Note_on_c, 0, 77, 97
2, 198519, Note_on_c, 0, 77, 0
2, 198519, Note_on_c, 0, 59, 0
2, 198520, Note_on_c, 0, 60, 97
2, 198520, Note_on_c, 0, 75, 97
2, 198712, Note_on_c, 0, 71, 97
2, 198900, Note_on_c, 0, 60, 0
2, 198903, Note_on_c, 0, 71, 0
2, 198904, Note_on_c, 0, 63, 97
2, 198904, Note_on_c, 0, 72, 97
2, 199094, Note_on_c, 0, 72, 0
2, 199096, Note_on_c, 0, 67, 97
2, 199284, Note_on_c, 0, 63, 0
2, 199287, Note_on_c, 0, 67, 0
2, 199288, Note_on_c, 0, 53, 97
2, 199288, Note_on_c, 0, 68, 97
2, 199478, Note_on_c, 0, 68, 0
2, 199480, Note_on_c, 0, 63, 97
2, 199668, Note_on_c, 0, 53, 0
2, 199671, Note_on_c, 0, 63, 0
2, 199672, Note_on_c, 0, 56, 97
2, 199672, Note_on_c, 0, 65, 97
2, 199863, Note_on_c, 0, 75, 0
2, 199864, Note_on_c, 0, 72, 97
2, 200055, Note_on_c, 0, 72, 0
2, 200055, Note_on_c, 0, 65, 0
2, 200055, Note_on_c, 0, 56, 0
2, 200056, Note_on_c, 0, 47, 97
2, 200056, Note_on_c, 0, 74, 97
2, 200248, Note_on_c, 0, 67, 97
2, 200390, Note_on_c, 0, 47, 0
2, 200439, Note_on_c, 0, 67, 0
2, 200440, Note_on_c, 0, 50, 97
2, 200440, Note_on_c, 0, 68, 97
2, 200630, Note_on_c, 0, 68, 0
2, 200632, Note_on_c, 0, 65, 97
2, 200820, Note_on_c, 0, 50, 0
2, 200823, Note_on_c, 0, 65, 0
2, 200824, Note_on_c, 0, 39, 97
2, 200824, Note_on_c, 0, 67, 97
2, 201014, Note_on_c, 0, 67, 0
2, 201016, Note_on_c, 0, 62, 97
2, 201204, Note_on_c, 0, 39, 0
2, 201207, Note_on_c, 0, 62, 0
2, 201208, Note_on_c, 0, 43, 97
2, 201208, Note_on_c, 0, 63, 97
2, 201399, Note_on_c, 0, 74, 0
2, 201400, Note_on_c, 0, 71, 97
2, 201588, Note_on_c, 0, 43, 0
2, 201591, Note_on_c, 0, 71, 0
2, 201592, Note_on_c, 0, 44, 97
2, 201592, Note_on_c, 0, 72, 97
2, 201768, Note_on_c, 0, 63, 0
2, 201784, Note_on_c, 0, 65, 97
2, 201874, Note_on_c, 0, 65, 0
2, 201880, Note_on_c, 0, 67, 97
2, 201972, Note_on_c, 0, 44, 0
2, 201975, Note_on_c, 0, 67, 0
2, 201976, Note_on_c, 0, 41, 97
2, 201976, Note_on_c, 0, 68, 97
2, 202166, Note_on_c, 0, 68, 0
2, 202168, Note_on_c, 0, 65, 97
2, 202356, Note_on_c, 0, 41, 0
2, 202359, Note_on_c, 0, 65, 0
2, 202360, Note_on_c, 0, 43, 97
2, 202360, Note_on_c, 0, 62, 97
2, 202550, Note_on_c, 0, 62, 0
2, 202552, Note_on_c, 0, 65, 97
2, 202740, Note_on_c, 0, 43, 0
2, 202744, Note_on_c, 0, 55, 97
2, 202935, Note_on_c, 0, 72, 0
2, 202936, Note_on_c, 0, 71, 97
2, 203124, Note_on_c, 0, 55, 0
2, 203127, Note_on_c, 0, 71, 0
2, 203128, Note_on_c, 0, 48, 97
2, 203128, Note_on_c, 0, 72, 97
2, 203312, Note_on_c, 0, 65, 0
2, 203320, Note_on_c, 0, 65, 97
2, 203508, Note_on_c, 0, 48, 0
2, 203511, Note_on_c, 0, 65, 0
2, 203512, Note_on_c, 0, 55, 97
2, 203512, Note_on_c, 0, 63, 97
2, 203702, Note_on_c, 0, 63, 0
2, 203704, Note_on_c, 0, 62, 97
2, 203892, Note_on_c, 0, 55, 0
2, 203895, Note_on_c, 0, 62, 0
2, 203896, Note_on_c, 0, 60, 97
2, 203896, Note_on_c, 0, 63, 97
2, 204087, Note_on_c, 0, 72, 0
2, 204088, Note_on_c, 0, 72, 97
2, 204276, Note_on_c, 0, 63, 0
2, 204276, Note_on_c, 0, 60, 0
2, 204279, Note_on_c, 0, 72, 0
2, 204280, Note_on_c, 0, 62, 97
2, 204280, Note_on_c, 0, 65, 97
2, 204280, Note_on_c, 0, 70, 97
2, 204471, Note_on_c, 0, 70, 0
2, 204472, Note_on_c, 0, 68, 97
2, 204663, Note_on_c, 0, 68, 0
2, 204663, Note_on_c, 0, 65, 0
2, 204663, Note_on_c, 0, 62, 0
2, 204664, Note_on_c, 0, 60, 97
2, 204664, Note_on_c, 0, 63, 97
2, 204664, Note_on_c, 0, 67, 97
2, 204855, Note_on_c, 0, 67, 0
2, 204856, Note_on_c, 0, 72, 97
2, 204951, Note_on_c, 0, 72, 0
2, 204952, Note_on_c, 0, 74, 97
2, 205047, Note_on_c, 0, 74, 0
2, 205048, Note_on_c, 0, 75, 97
2, 205239, Note_on_c, 0, 75, 0
2, 205239, Note_on_c, 0, 60, 0
2, 205240, Note_on_c, 0, 55, 97
2, 205240, Note_on_c, 0, 72, 97
2, 205330, Note_on_c, 0, 55, 0
2, 205336, Note_on_c, 0, 53, 97
2, 205431, Note_on_c, 0, 53, 0
2, 205431, Note_on_c, 0, 72, 0
2, 205431, Note_on_c, 0, 63, 0
2, 205432, Note_on_c, 0, 51, 97
2, 205432, Note_on_c, 0, 67, 97
2, 205527, Note_on_c, 0, 51, 0
2, 205528, Note_on_c, 0, 53, 97
2, 205623, Note_on_c, 0, 53, 0
2, 205624, Note_on_c, 0, 55, 97
2, 205815, Note_on_c, 0, 55, 0
2, 205815, Note_on_c, 0, 67, 0
2, 205816, Note_on_c, 0, 48, 97
2, 205816, Note_on_c, 0, 68, 97
2, 205911, Note_on_c, 0, 48, 0
2, 205912, Note_on_c, 0, 50, 97
2, 206007, Note_on_c, 0, 50, 0
2, 206008, Note_on_c, 0, 51, 97
2, 206199, Note_on_c, 0, 51, 0
2, 206199, Note_on_c, 0, 68, 0
2, 206200, Note_on_c, 0, 43, 97
2, 206200, Note_on_c, 0, 70, 97
2, 206392, Note_on_c, 0, 65, 97
2, 206582, Note_on_c, 0, 65, 0
2, 206584, Note_on_c, 0, 67, 97
2, 206775, Note_on_c, 0, 67, 0
2, 206775, Note_on_c, 0, 43, 0
2, 206776, Note_on_c, 0, 46, 97
2, 206776, Note_on_c, 0, 62, 97
2, 206866, Note_on_c, 0, 46, 0
2, 206872, Note_on_c, 0, 44, 97
2, 206966, Note_on_c, 0, 44, 0
2, 206966, Note_on_c, 0, 62, 0
2, 206968, Note_on_c, 0, 43, 97
2, 206968, Note_on_c, 0, 63, 97
2, 207059, Note_on_c, 0, 43, 0
2, 207064, Note_on_c, 0, 44, 97
2, 207156, Note_on_c, 0, 44, 0
2, 207160, Note_on_c, 0, 46, 97
2, 207348, Note_on_c, 0, 63, 0
2, 207351, Note_on_c, 0, 46, 0
2, 207351, Note_on_c, 0, 70, 0
2, 207352, Note_on_c, 0, 39, 97
2, 207352, Note_on_c, 0, 79, 97
2, 207447, Note_on_c, 0, 39, 0
2, 207448, Note_on_c, 0, 41, 97
2, 207543, Note_on_c, 0, 41, 0
2, 207544, Note_on_c, 0, 43, 97
2, 207735, Note_on_c, 0, 43, 0
2, 207736, Note_on_c, 0, 33, 97
2, 207927, Note_on_c, 0, 79, 0
2, 207928, Note_on_c, 0, 72, 97
2, 208023, Note_on_c, 0, 72, 0
2, 208024, Note_on_c, 0, 74, 97
2, 208119, Note_on_c, 0, 74, 0
2, 208119, Note_on_c, 0, 33, 0
2, 208120, Note_on_c, 0, 36, 97
2, 208120, Note_on_c, 0, 75, 97
2, 208311, Note_on_c, 0, 75, 0
2, 208312, Note_on_c, 0, 72, 97
2, 208503, Note_on_c, 0, 72, 0
2, 208503, Note_on_c, 0, 36, 0
2, 208504, Note_on_c, 0, 41, 97
2, 208504, Note_on_c, 0, 69, 97
2, 208695, Note_on_c, 0, 69, 0
2, 208696, Note_on_c, 0, 77, 97
2, 208887, Note_on_c, 0, 77, 0
2, 208887, Note_on_c, 0, 41, 0
2, 208888, Note_on_c, 0, 45, 97
2, 208888, Note_on_c, 0, 72, 97
2, 208983, Note_on_c, 0, 72, 0
2, 208984, Note_on_c, 0, 74, 97
2, 209079, Note_on_c, 0, 74, 0
2, 209080, Note_on_c, 0, 75, 97
2, 209271, Note_on_c, 0, 75, 0
2, 209271, Note_on_c, 0, 45, 0
2, 209272, Note_on_c, 0, 46, 97
2, 209272, Note_on_c, 0, 74, 97
2, 209464, Note_on_c, 0, 69, 97
2, 209654, Note_on_c, 0, 69, 0
2, 209656, Note_on_c, 0, 70, 97
2, 209832, Note_on_c, 0, 46, 0
2, 209848, Note_on_c, 0, 65, 97
2, 209938, Note_on_c, 0, 65, 0
2, 209944, Note_on_c, 0, 63, 97
2, 210034, Note_on_c, 0, 63, 0
2, 210040, Note_on_c, 0, 62, 97
2, 210130, Note_on_c, 0, 62, 0
2, 210136, Note_on_c, 0, 63, 97
2, 210226, Note_on_c, 0, 63, 0
2, 210232, Note_on_c, 0, 65, 97
2, 210374, Note_on_c, 0, 70, 0
2, 210423, Note_on_c, 0, 65, 0
2, 210423, Note_on_c, 0, 74, 0
2, 210424, Note_on_c, 0, 58, 97
2, 210424, Note_on_c, 0, 66, 97
2, 210424, Note_on_c, 0, 74, 97
2, 210515, Note_on_c, 0, 58, 0
2, 210520, Note_on_c, 0, 60, 97
2, 210610, Note_on_c, 0, 60, 0
2, 210616, Note_on_c, 0, 62, 97
2, 210804, Note_on_c, 0, 66, 0
2, 210807, Note_on_c, 0, 62, 0
2, 210807, Note_on_c, 0, 74, 0
2, 210808, Note_on_c, 0, 51, 97
2, 210808, Note_on_c, 0, 67, 97
2, 210808, Note_on_c, 0, 74, 97
2, 210998, Note_on_c, 0, 51, 0
2, 211000, Note_on_c, 0, 55, 97
2, 211190, Note_on_c, 0, 55, 0
2, 211191, Note_on_c, 0, 74, 0
2, 211192, Note_on_c, 0, 57, 97
2, 211192, Note_on_c, 0, 72, 97
2, 211382, Note_on_c, 0, 57, 0
2, 211384, Note_on_c, 0, 58, 97
2, 211526, Note_on_c, 0, 67, 0
2, 211575, Note_on_c, 0, 58, 0
2, 211576, Note_on_c, 0, 60, 97
2, 211767, Note_on_c, 0, 60, 0
2, 211767, Note_on_c, 0, 72, 0
2, 211768, Note_on_c, 0, 62, 97
2, 211768, Note_on_c, 0, 78, 97
2, 211959, Note_on_c, 0, 78, 0
2, 211959, Note_on_c, 0, 62, 0
2, 211960, Note_on_c, 0, 63, 97
2, 211960, Note_on_c, 0, 79, 97
2, 212151, Note_on_c, 0, 79, 0
2, 212151, Note_on_c, 0, 63, 0
2, 212152, Note_on_c, 0, 60, 97
2, 212152, Note_on_c, 0, 81, 97
2, 212343, Note_on_c, 0, 81, 0
2, 212343, Note_on_c, 0, 60, 0
2, 212344, Note_on_c, 0, 54, 97
2, 212344, Note_on_c, 0, 69, 97
2, 212344, Note_on_c, 0, 75, 97
2, 212534, Note_on_c, 0, 54, 0
2, 212536, Note_on_c, 0, 57, 97
2, 212726, Note_on_c, 0, 57, 0
2, 212727, Note_on_c, 0, 75, 0
2, 212728, Note_on_c, 0, 58, 97
2, 212728, Note_on_c, 0, 74, 97
2, 212918, Note_on_c, 0, 58, 0
2, 212920, Note_on_c, 0, 60, 97
2, 213062, Note_on_c, 0, 69, 0
2, 213111, Note_on_c, 0, 60, 0
2, 213112, Note_on_c, 0, 62, 97
2, 213303, Note_on_c, 0, 62, 0
2, 213303, Note_on_c, 0, 74, 0
2, 213304, Note_on_c, 0, 64, 97
2, 213304, Note_on_c, 0, 79, 97
2, 213495, Note_on_c, 0, 79, 0
2, 213495, Note_on_c, 0, 64, 0
2, 213496, Note_on_c, 0, 66, 97
2, 213496, Note_on_c, 0, 81, 97
2, 213687, Note_on_c, 0, 81, 0
2, 213687, Note_on_c, 0, 66, 0
2, 213688, Note_on_c, 0, 62, 97
2, 213688, Note_on_c, 0, 82, 97
2, 213879, Note_on_c, 0, 82, 0
2, 213879, Note_on_c, 0, 62, 0
2, 213880, Note_on_c, 0, 55, 97
2, 213880, Note_on_c, 0, 70, 97
2, 213880, Note_on_c, 0, 77, 97
2, 214070, Note_on_c, 0, 55, 0
2, 214072, Note_on_c, 0, 58, 97
2, 214262, Note_on_c, 0, 58, 0
2, 214263, Note_on_c, 0, 77, 0
2, 214264, Note_on_c, 0, 60, 97
2, 214264, Note_on_c, 0, 76, 97
2, 214454, Note_on_c, 0, 60, 0
2, 214456, Note_on_c, 0, 62, 97
2, 214598, Note_on_c, 0, 70, 0
2, 214646, Note_on_c, 0, 62, 0
2, 214648, Note_on_c, 0, 64, 97
2, 214839, Note_on_c, 0, 64, 0
2, 214839, Note_on_c, 0, 76, 0
2, 214840, Note_on_c, 0, 66, 97
2, 214840, Note_on_c, 0, 81, 97
2, 215031, Note_on_c, 0, 81, 0
2, 215031, Note_on_c, 0, 66, 0
2, 215032, Note_on_c, 0, 67, 97
2, 215032, Note_on_c, 0, 82, 97
2, 215223, Note_on_c, 0, 82, 0
2, 215223, Note_on_c, 0, 67, 0
2, 215224, Note_on_c, 0, 63, 97
2, 215224, Note_on_c, 0, 84, 97
2, 215415, Note_on_c, 0, 84, 0
2, 215415, Note_on_c, 0, 63, 0
2, 215416, Note_on_c, 0, 57, 97
2, 215416, Note_on_c, 0, 72, 97
2, 215416, Note_on_c, 0, 79, 97
2, 215606, Note_on_c, 0, 57, 0
2, 215608, Note_on_c, 0, 60, 97
2, 215798, Note_on_c, 0, 60, 0
2, 215799, Note_on_c, 0, 79, 0
2, 215800, Note_on_c, 0, 62, 97
2, 215800, Note_on_c, 0, 78, 97
2, 215990, Note_on_c, 0, 62, 0
2, 215992, Note_on_c, 0, 63, 97
2, 216134, Note_on_c, 0, 72, 0
2, 216183, Note_on_c, 0, 63, 0
2, 216184, Note_on_c, 0, 62, 97
2, 216375, Note_on_c, 0, 62, 0
2, 216375, Note_on_c, 0, 78, 0
2, 216376, Note_on_c, 0, 60, 97
2, 216376, Note_on_c, 0, 75, 97
2, 216567, Note_on_c, 0, 75, 0
2, 216567, Note_on_c, 0, 60, 0
2, 216568, Note_on_c, 0, 58, 97
2, 216568, Note_on_c, 0, 74, 97
2, 216759, Note_on_c, 0, 74, 0
2, 216759, Note_on_c, 0, 58, 0
2, 216760, Note_on_c, 0, 57, 97
2, 216760, Note_on_c, 0, 72, 97
2, 216951, Note_on_c, 0, 72, 0
2, 216951, Note_on_c, 0, 57, 0
2, 216952, Note_on_c, 0, 58, 97
2, 216952, Note_on_c, 0, 74, 97
2, 217143, Note_on_c, 0, 74, 0
2, 217143, Note_on_c, 0, 58, 0
2, 217144, Note_on_c, 0, 60, 97
2, 217144, Note_on_c, 0, 69, 97
2, 217335, Note_on_c, 0, 69, 0
2, 217335, Note_on_c, 0, 60, 0
2, 217336, Note_on_c, 0, 62, 97
2, 217336, Note_on_c, 0, 70, 97
2, 217527, Note_on_c, 0, 70, 0
2, 217527, Note_on_c, 0, 62, 0
2, 217528, Note_on_c, 0, 57, 97
2, 217528, Note_on_c, 0, 66, 97
2, 217719, Note_on_c, 0, 66, 0
2, 217719, Note_on_c, 0, 57, 0
2, 217720, Note_on_c, 0, 58, 97
2, 217720, Note_on_c, 0, 67, 97
2, 217911, Note_on_c, 0, 67, 0
2, 217911, Note_on_c, 0, 58, 0
2, 217912, Note_on_c, 0, 63, 97
2, 217912, Note_on_c, 0, 72, 97
2, 218103, Note_on_c, 0, 72, 0
2, 218103, Note_on_c, 0, 63, 0
2, 218104, Note_on_c, 0, 62, 97
2, 218104, Note_on_c, 0, 70, 97
2, 218295, Note_on_c, 0, 70, 0
2, 218295, Note_on_c, 0, 62, 0
2, 218296, Note_on_c, 0, 60, 97
2, 218296, Note_on_c, 0, 69, 97
2, 218487, Note_on_c, 0, 69, 0
2, 218487, Note_on_c, 0, 60, 0
2, 218488, Note_on_c, 0, 62, 97
2, 218488, Note_on_c, 0, 70, 97
2, 218679, Note_on_c, 0, 70, 0
2, 218679, Note_on_c, 0, 62, 0
2, 218680, Note_on_c, 0, 57, 97
2, 218680, Note_on_c, 0, 66, 97
2, 218871, Note_on_c, 0, 66, 0
2, 218871, Note_on_c, 0, 57, 0
2, 218872, Note_on_c, 0, 58, 97
2, 218872, Note_on_c, 0, 67, 97
2, 219063, Note_on_c, 0, 67, 0
2, 219063, Note_on_c, 0, 58, 0
2, 219064, Note_on_c, 0, 54, 97
2, 219064, Note_on_c, 0, 62, 97
2, 219255, Note_on_c, 0, 62, 0
2, 219255, Note_on_c, 0, 54, 0
2, 219256, Note_on_c, 0, 55, 97
2, 219256, Note_on_c, 0, 63, 97
2, 219447, Note_on_c, 0, 63, 0
2, 219447, Note_on_c, 0, 55, 0
2, 219448, Note_on_c, 0, 60, 97
2, 219448, Note_on_c, 0, 69, 97
2, 219639, Note_on_c, 0, 69, 0
2, 219639, Note_on_c, 0, 60, 0
2, 219640, Note_on_c, 0, 58, 97
2, 219640, Note_on_c, 0, 67, 97
2, 219831, Note_on_c, 0, 67, 0
2, 219831, Note_on_c, 0, 58, 0
2, 219832, Note_on_c, 0, 57, 97
2, 219832, Note_on_c, 0, 66, 97
2, 220023, Note_on_c, 0, 66, 0
2, 220023, Note_on_c, 0, 57, 0
2, 220024, Note_on_c, 0, 58, 97
2, 220024, Note_on_c, 0, 67, 97
2, 220215, Note_on_c, 0, 67, 0
2, 220215, Note_on_c, 0, 58, 0
2, 220216, Note_on_c, 0, 54, 97
2, 220216, Note_on_c, 0, 62, 97
2, 220407, Note_on_c, 0, 62, 0
2, 220407, Note_on_c, 0, 54, 0
2, 220408, Note_on_c, 0, 55, 97
2, 220408, Note_on_c, 0, 63, 97
2, 220599, Note_on_c, 0, 63, 0
2, 220599, Note_on_c, 0, 55, 0
2, 220600, Note_on_c, 0, 50, 97
2, 220600, Note_on_c, 0, 59, 97
2, 220791, Note_on_c, 0, 59, 0
2, 220791, Note_on_c, 0, 50, 0
2, 220792, Note_on_c, 0, 51, 97
2, 220792, Note_on_c, 0, 60, 97
2, 220887, Note_on_c, 0, 51, 0
2, 220888, Note_on_c, 0, 53, 97
2, 220983, Note_on_c, 0, 53, 0
2, 220983, Note_on_c, 0, 60, 0
2, 220984, Note_on_c, 0, 55, 97
2, 220984, Note_on_c, 0, 65, 97
2, 221175, Note_on_c, 0, 65, 0
2, 221175, Note_on_c, 0, 55, 0
2, 221176, Note_on_c, 0, 48, 97
2, 221176, Note_on_c, 0, 63, 97
2, 221271, Note_on_c, 0, 48, 0
2, 221272, Note_on_c, 0, 50, 97
2, 221367, Note_on_c, 0, 50, 0
2, 221367, Note_on_c, 0, 63, 0
2, 221368, Note_on_c, 0, 51, 97
2, 221368, Note_on_c, 0, 62, 97
2, 221559, Note_on_c, 0, 62, 0
2, 221559, Note_on_c, 0, 51, 0
2, 221560, Note_on_c, 0, 42, 97
2, 221560, Note_on_c, 0, 63, 97
2, 221751, Note_on_c, 0, 63, 0
2, 221752, Note_on_c, 0, 60, 97
2, 221943, Note_on_c, 0, 60, 0
2, 221944, Note_on_c, 0, 62, 97
2, 222135, Note_on_c, 0, 62, 0
2, 222136, Note_on_c, 0, 66, 97
2, 222327, Note_on_c, 0, 66, 0
2, 222328, Note_on_c, 0, 69, 97
2, 222420, Note_on_c, 0, 42, 0
2, 222519, Note_on_c, 0, 69, 0
2, 222520, Note_on_c, 0, 63, 97
2, 222711, Note_on_c, 0, 63, 0
2, 222712, Note_on_c, 0, 38, 97
2, 222712, Note_on_c, 0, 62, 97
2, 222903, Note_on_c, 0, 62, 0
2, 222904, Note_on_c, 0, 60, 97
2, 223095, Note_on_c, 0, 60, 0
2, 223095, Note_on_c, 0, 38, 0
2, 223096, Note_on_c, 0, 43, 97
2, 223096, Note_on_c, 0, 58, 97
2, 223287, Note_on_c, 0, 58, 0
2, 223288, Note_on_c, 0, 62, 97
2, 223479, Note_on_c, 0, 62, 0
2, 223479, Note_on_c, 0, 43, 0
2, 223480, Note_on_c, 0, 58, 97
2, 223480, Note_on_c, 0, 67, 97
2, 223671, Note_on_c, 0, 67, 0
2, 223672, Note_on_c, 0, 70, 97
2, 223863, Note_on_c, 0, 58, 0
2, 223864, Note_on_c, 0, 51, 97
2, 224055, Note_on_c, 0, 70, 0
2, 224056, Note_on_c, 0, 66, 97
2, 224247, Note_on_c, 0, 66, 0
2, 224247, Note_on_c, 0, 51, 0
2, 224248, Note_on_c, 0, 50, 97
2, 224248, Note_on_c, 0, 67, 97
2, 224439, Note_on_c, 0, 67, 0
2, 224440, Note_on_c, 0, 58, 97
2, 224631, Note_on_c, 0, 58, 0
2, 224631, Note_on_c, 0, 50, 0
2, 224632, Note_on_c, 0, 45, 97
2, 224632, Note_on_c, 0, 60, 97
2, 224823, Note_on_c, 0, 60, 0
2, 224824, Note_on_c, 0, 63, 97
2, 225015, Note_on_c, 0, 63, 0
2, 225015, Note_on_c, 0, 45, 0
2, 225016, Note_on_c, 0, 60, 97
2, 225016, Note_on_c, 0, 67, 97
2, 225207, Note_on_c, 0, 67, 0
2, 225208, Note_on_c, 0, 70, 97
2, 225399, Note_on_c, 0, 60, 0
2, 225400, Note_on_c, 0, 51, 97
2, 225591, Note_on_c, 0, 70, 0
2, 225592, Note_on_c, 0, 66, 97
2, 225783, Note_on_c, 0, 66, 0
2, 225783, Note_on_c, 0, 51, 0
2, 225784, Note_on_c, 0, 50, 97
2, 225784, Note_on_c, 0, 67, 97
2, 225975, Note_on_c, 0, 67, 0
2, 225976, Note_on_c, 0, 60, 97
2, 226167, Note_on_c, 0, 60, 0
2, 226167, Note_on_c, 0, 50, 0
2, 226168, Note_on_c, 0, 46, 97
2, 226168, Note_on_c, 0, 62, 97
2, 226359, Note_on_c, 0, 62, 0
2, 226360, Note_on_c, 0, 66, 97
2, 226551, Note_on_c, 0, 66, 0
2, 226551, Note_on_c, 0, 46, 0
2, 226552, Note_on_c, 0, 62, 97
2, 226552, Note_on_c, 0, 67, 97
2, 226743, Note_on_c, 0, 67, 0
2, 226744, Note_on_c, 0, 70, 97
2, 226935, Note_on_c, 0, 62, 0
2, 226936, Note_on_c, 0, 51, 97
2, 227127, Note_on_c, 0, 70, 0
2, 227128, Note_on_c, 0, 66, 97
2, 227319, Note_on_c, 0, 66, 0
2, 227319, Note_on_c, 0, 51, 0
2, 227320, Note_on_c, 0, 50, 97
2, 227320, Note_on_c, 0, 67, 97
2, 227511, Note_on_c, 0, 67, 0
2, 227512, Note_on_c, 0, 62, 97
2, 227703, Note_on_c, 0, 62, 0
2, 227703, Note_on_c, 0, 50, 0
2, 227704, Note_on_c, 0, 48, 97
2, 227704, Note_on_c, 0, 63, 97
2, 227895, Note_on_c, 0, 63, 0
2, 227896, Note_on_c, 0, 66, 97
2, 228087, Note_on_c, 0, 66, 0
2, 228087, Note_on_c, 0, 48, 0
2, 228088, Note_on_c, 0, 63, 97
2, 228088, Note_on_c, 0, 67, 97
2, 228279, Note_on_c, 0, 67, 0
2, 228280, Note_on_c, 0, 70, 97
2, 228471, Note_on_c, 0, 63, 0
2, 228472, Note_on_c, 0, 51, 97
2, 228663, Note_on_c, 0, 70, 0
2, 228664, Note_on_c, 0, 66, 97
2, 228855, Note_on_c, 0, 66, 0
2, 228855, Note_on_c, 0, 51, 0
2, 228856, Note_on_c, 0, 50, 97
2, 228856, Note_on_c, 0, 67, 97
2, 229047, Note_on_c, 0, 67, 0
2, 229048, Note_on_c, 0, 70, 97
2, 229239, Note_on_c, 0, 70, 0
2, 229239, Note_on_c, 0, 50, 0
2, 229240, Note_on_c, 0, 49, 97
2, 229240, Note_on_c, 0, 37, 97
2, 229240, Note_on_c, 0, 76, 97
2, 229431, Note_on_c, 0, 76, 0
2, 229432, Note_on_c, 0, 69, 97
2, 229623, Note_on_c, 0, 69, 0
2, 229624, Note_on_c, 0, 70, 97
2, 229815, Note_on_c, 0, 70, 0
2, 229816, Note_on_c, 0, 66, 97
2, 230007, Note_on_c, 0, 66, 0
2, 230008, Note_on_c, 0, 67, 97
2, 230199, Note_on_c, 0, 67, 0
2, 230200, Note_on_c, 0, 70, 97
2, 230391, Note_on_c, 0, 70, 0
2, 230391, Note_on_c, 0, 37, 0
2, 230391, Note_on_c, 0, 49, 0
2, 230392, Note_on_c, 0, 49, 97
2, 230392, Note_on_c, 0, 69, 97
2, 230583, Note_on_c, 0, 69, 0
2, 230584, Note_on_c, 0, 67, 97
2, 230775, Note_on_c, 0, 67, 0
2, 230775, Note_on_c, 0, 49, 0
2, 230776, Note_on_c, 0, 50, 97
2, 230776, Note_on_c, 0, 66, 97
2, 230967, Note_on_c, 0, 66, 0
2, 230968, Note_on_c, 0, 62, 97
2, 231159, Note_on_c, 0, 62, 0
2, 231159, Note_on_c, 0, 50, 0
2, 231160, Note_on_c, 0, 45, 97
2, 231160, Note_on_c, 0, 63, 97
2, 231351, Note_on_c, 0, 63, 0
2, 231352, Note_on_c, 0, 58, 97
2, 231543, Note_on_c, 0, 58, 0
2, 231543, Note_on_c, 0, 45, 0
2, 231544, Note_on_c, 0, 42, 97
2, 231544, Note_on_c, 0, 60, 97
2, 231735, Note_on_c, 0, 60, 0
2, 231736, Note_on_c, 0, 63, 97
2, 231927, Note_on_c, 0, 63, 0
2, 231927, Note_on_c, 0, 42, 0
2, 231928, Note_on_c, 0, 38, 97
2, 231928, Note_on_c, 0, 62, 97
2, 232119, Note_on_c, 0, 62, 0
2, 232120, Note_on_c, 0, 60, 97
2, 232311, Note_on_c, 0, 60, 0
2, 232311, Note_on_c, 0, 38, 0
2, 232312, Note_on_c, 0, 43, 97
2, 232312, Note_on_c, 0, 58, 97
2, 232503, Note_on_c, 0, 43, 0
2, 232504, Note_on_c, 0, 45, 97
2, 232695, Note_on_c, 0, 45, 0
2, 232695, Note_on_c, 0, 58, 0
2, 232696, Note_on_c, 0, 46, 97
2, 232696, Note_on_c, 0, 67, 97
2, 232696, Note_on_c, 0, 62, 97
2, 232696, Note_on_c, 0, 74, 97
2, 232860, Note_on_c, 0, 46, 0
2, 232888, Note_on_c, 0, 48, 97
2, 233030, Note_on_c, 0, 67, 0
2, 233030, Note_on_c, 0, 62, 0
2, 233079, Note_on_c, 0, 74, 0
2, 233079, Note_on_c, 0, 48, 0
2, 233080, Note_on_c, 0, 50, 97
2, 233080, Note_on_c, 0, 67, 97
2, 233080, Note_on_c, 0, 62, 97
2, 233080, Note_on_c, 0, 70, 97
2, 233463, Note_on_c, 0, 70, 0
2, 233463, Note_on_c, 0, 50, 0
2, 233463, Note_on_c, 0, 67, 0
2, 233463, Note_on_c, 0, 62, 0
2, 233464, Note_on_c, 0, 38, 97
2, 233464, Note_on_c, 0, 66, 97
2, 233464, Note_on_c, 0, 60, 97
2, 233464, Note_on_c, 0, 69, 97
2, 233655, Note_on_c, 0, 69, 0
2, 233656, Note_on_c, 0, 67, 97
2, 233847, Note_on_c, 0, 67, 0
2, 233847, Note_on_c, 0, 60, 0
2, 233847, Note_on_c, 0, 66, 0
2, 233847, Note_on_c, 0, 38, 0
2, 233848, Note_on_c, 0, 43, 97
2, 233848, Note_on_c, 0, 67, 97
2, 234040, Note_on_c, 0, 62, 97
2, 234232, Note_on_c, 0, 59, 97
2, 234424, Note_on_c, 0, 50, 97
2, 234588, Note_on_c, 0, 50, 0
2, 234616, Note_on_c, 0, 55, 97
2, 234807, Note_on_c, 0, 67, 0
2, 234808, Note_on_c, 0, 75, 97
2, 234999, Note_on_c, 0, 75, 0
2, 235000, Note_on_c, 0, 74, 97
2, 235191, Note_on_c, 0, 74, 0
2, 235192, Note_on_c, 0, 72, 97
2, 235334, Note_on_c, 0, 59, 0
2, 235334, Note_on_c, 0, 43, 0
2, 235334, Note_on_c, 0, 62, 0
2, 235383, Note_on_c, 0, 55, 0
2, 235383, Note_on_c, 0, 72, 0
2, 235384, Note_on_c, 0, 43, 97
2, 235384, Note_on_c, 0, 74, 97
2, 235575, Note_on_c, 0, 74, 0
2, 235576, Note_on_c, 0, 69, 97
2, 235767, Note_on_c, 0, 69, 0
2, 235767, Note_on_c, 0, 43, 0
2, 235768, Note_on_c, 0, 55, 97
2, 235768, Note_on_c, 0, 71, 97
2, 235959, Note_on_c, 0, 71, 0
2, 235960, Note_on_c, 0, 67, 97
2, 236151, Note_on_c, 0, 67, 0
2, 236152, Note_on_c, 0, 68, 97
2, 236343, Note_on_c, 0, 68, 0
2, 236343, Note_on_c, 0, 55, 0
2, 236344, Note_on_c, 0, 56, 97
2, 236344, Note_on_c, 0, 65, 97
2, 236535, Note_on_c, 0, 65, 0
2, 236535, Note_on_c, 0, 56, 0
2, 236536, Note_on_c, 0, 55, 97
2, 236536, Note_on_c, 0, 63, 97
2, 236727, Note_on_c, 0, 63, 0
2, 236727, Note_on_c, 0, 55, 0
2, 236728, Note_on_c, 0, 53, 97
2, 236728, Note_on_c, 0, 62, 97
2, 236919, Note_on_c, 0, 62, 0
2, 236919, Note_on_c, 0, 53, 0
2, 236920, Note_on_c, 0, 55, 97
2, 236920, Note_on_c, 0, 63, 97
2, 237111, Note_on_c, 0, 63, 0
2, 237111, Note_on_c, 0, 55, 0
2, 237112, Note_on_c, 0, 50, 97
2, 237112, Note_on_c, 0, 65, 97
2, 237207, Note_on_c, 0, 65, 0
2, 237208, Note_on_c, 0, 67, 97
2, 237303, Note_on_c, 0, 67, 0
2, 237303, Note_on_c, 0, 50, 0
2, 237304, Note_on_c, 0, 51, 97
2, 237304, Note_on_c, 0, 60, 97
2, 237495, Note_on_c, 0, 51, 0
2, 237496, Note_on_c, 0, 47, 97
2, 237687, Note_on_c, 0, 47, 0
2, 237688, Note_on_c, 0, 48, 97
2, 237879, Note_on_c, 0, 48, 0
2, 237879, Note_on_c, 0, 60, 0
2, 237880, Note_on_c, 0, 41, 97
2, 237880, Note_on_c, 0, 80, 97
2, 238071, Note_on_c, 0, 80, 0
2, 238071, Note_on_c, 0, 41, 0
2, 238072, Note_on_c, 0, 39, 97
2, 238072, Note_on_c, 0, 79, 97
2, 238263, Note_on_c, 0, 79, 0
2, 238263, Note_on_c, 0, 39, 0
2, 238264, Note_on_c, 0, 38, 97
2, 238264, Note_on_c, 0, 77, 97
2, 238455, Note_on_c, 0, 77, 0
2, 238455, Note_on_c, 0, 38, 0
2, 238456, Note_on_c, 0, 36, 97
2, 238456, Note_on_c, 0, 79, 97
2, 238647, Note_on_c, 0, 79, 0
2, 238648, Note_on_c, 0, 74, 97
2, 238839, Note_on_c, 0, 74, 0
2, 238839, Note_on_c, 0, 36, 0
2, 238840, Note_on_c, 0, 48, 97
2, 238840, Note_on_c, 0, 76, 97
2, 239031, Note_on_c, 0, 76, 0
2, 239032, Note_on_c, 0, 72, 97
2, 239223, Note_on_c, 0, 72, 0
2, 239224, Note_on_c, 0, 73, 97
2, 239415, Note_on_c, 0, 73, 0
2, 239415, Note_on_c, 0, 48, 0
2, 239416, Note_on_c, 0, 61, 97
2, 239416, Note_on_c, 0, 70, 97
2, 239607, Note_on_c, 0, 70, 0
2, 239607, Note_on_c, 0, 61, 0
2, 239608, Note_on_c, 0, 60, 97
2, 239608, Note_on_c, 0, 68, 97
2, 239799, Note_on_c, 0, 68, 0
2, 239799, Note_on_c, 0, 60, 0
2, 239800, Note_on_c, 0, 58, 97
2, 239800, Note_on_c, 0, 67, 97
2, 239991, Note_on_c, 0, 67, 0
2, 239991, Note_on_c, 0, 58, 0
2, 239992, Note_on_c, 0, 60, 97
2, 239992, Note_on_c, 0, 68, 97
2, 240183, Note_on_c, 0, 68, 0
2, 240183, Note_on_c, 0, 60, 0
2, 240184, Note_on_c, 0, 55, 97
2, 240184, Note_on_c, 0, 70, 97
2, 240279, Note_on_c, 0, 70, 0
2, 240280, Note_on_c, 0, 72, 97
2, 240375, Note_on_c, 0, 72, 0
2, 240375, Note_on_c, 0, 55, 0
2, 240376, Note_on_c, 0, 56, 97
2, 240376, Note_on_c, 0, 65, 97
2, 240567, Note_on_c, 0, 56, 0
2, 240568, Note_on_c, 0, 52, 97
2, 240759, Note_on_c, 0, 52, 0
2, 240760, Note_on_c, 0, 53, 97
2, 240951, Note_on_c, 0, 53, 0
2, 240951, Note_on_c, 0, 65, 0
2, 240952, Note_on_c, 0, 46, 97
2, 240952, Note_on_c, 0, 60, 97
2, 241143, Note_on_c, 0, 60, 0
2, 241143, Note_on_c, 0, 46, 0
2, 241144, Note_on_c, 0, 44, 97
2, 241144, Note_on_c, 0, 65, 97
2, 241335, Note_on_c, 0, 65, 0
2, 241335, Note_on_c, 0, 44, 0
2, 241336, Note_on_c, 0, 43, 97
2, 241336, Note_on_c, 0, 67, 97
2, 241527, Note_on_c, 0, 67, 0
2, 241527, Note_on_c, 0, 43, 0
2, 241528, Note_on_c, 0, 41, 97
2, 241528, Note_on_c, 0, 68, 97
2, 241719, Note_on_c, 0, 68, 0
2, 241719, Note_on_c, 0, 41, 0
2, 241720, Note_on_c, 0, 43, 97
2, 241720, Note_on_c, 0, 64, 97
2, 241911, Note_on_c, 0, 64, 0
2, 241911, Note_on_c, 0, 43, 0
2, 241912, Note_on_c, 0, 44, 97
2, 241912, Note_on_c, 0, 65, 97
2, 242103, Note_on_c, 0, 65, 0
2, 242104, Note_on_c, 0, 60, 97
2, 242295, Note_on_c, 0, 60, 0
2, 242295, Note_on_c, 0, 44, 0
2, 242296, Note_on_c, 0, 34, 97
2, 242296, Note_on_c, 0, 61, 97
2, 242487, Note_on_c, 0, 61, 0
2, 242487, Note_on_c, 0, 34, 0
2, 242488, Note_on_c, 0, 44, 97
2, 242488, Note_on_c, 0, 72, 97
2, 242679, Note_on_c, 0, 72, 0
2, 242679, Note_on_c, 0, 44, 0
2, 242680, Note_on_c, 0, 43, 97
2, 242680, Note_on_c, 0, 70, 97
2, 242871, Note_on_c, 0, 70, 0
2, 242871, Note_on_c, 0, 43, 0
2, 242872, Note_on_c, 0, 41, 97
2, 242872, Note_on_c, 0, 68, 97
2, 243063, Note_on_c, 0, 68, 0
2, 243063, Note_on_c, 0, 41, 0
2, 243064, Note_on_c, 0, 43, 97
2, 243064, Note_on_c, 0, 70, 97
2, 243255, Note_on_c, 0, 70, 0
2, 243255, Note_on_c, 0, 43, 0
2, 243256, Note_on_c, 0, 44, 97
2, 243256, Note_on_c, 0, 65, 97
2, 243447, Note_on_c, 0, 65, 0
2, 243447, Note_on_c, 0, 44, 0
2, 243448, Note_on_c, 0, 46, 97
2, 243448, Note_on_c, 0, 67, 97
2, 243639, Note_on_c, 0, 67, 0
2, 243640, Note_on_c, 0, 62, 97
2, 243831, Note_on_c, 0, 62, 0
2, 243831, Note_on_c, 0, 46, 0
2, 243832, Note_on_c, 0, 36, 97
2, 243832, Note_on_c, 0, 64, 97
2, 244023, Note_on_c, 0, 64, 0
2, 244023, Note_on_c, 0, 36, 0
2, 244024, Note_on_c, 0, 46, 97
2, 244024, Note_on_c, 0, 73, 97
2, 244215, Note_on_c, 0, 73, 0
2, 244215, Note_on_c, 0, 46, 0
2, 244216, Note_on_c, 0, 44, 97
2, 244216, Note_on_c, 0, 72, 97
2, 244407, Note_on_c, 0, 72, 0
2, 244407, Note_on_c, 0, 44, 0
2, 244408, Note_on_c, 0, 43, 97
2, 244408, Note_on_c, 0, 70, 97
2, 244599, Note_on_c, 0, 70, 0
2, 244599, Note_on_c, 0, 43, 0
2, 244600, Note_on_c, 0, 44, 97
2, 244600, Note_on_c, 0, 72, 97
2, 244791, Note_on_c, 0, 72, 0
2, 244791, Note_on_c, 0, 44, 0
2, 244792, Note_on_c, 0, 46, 97
2, 244792, Note_on_c, 0, 67, 97
2, 244983, Note_on_c, 0, 67, 0
2, 244983, Note_on_c, 0, 46, 0
2, 244984, Note_on_c, 0, 48, 97
2, 244984, Note_on_c, 0, 68, 97
2, 245175, Note_on_c, 0, 68, 0
2, 245176, Note_on_c, 0, 64, 97
2, 245367, Note_on_c, 0, 64, 0
2, 245367, Note_on_c, 0, 48, 0
2, 245368, Note_on_c, 0, 37, 97
2, 245368, Note_on_c, 0, 65, 97
2, 245559, Note_on_c, 0, 65, 0
2, 245559, Note_on_c, 0, 37, 0
2, 245560, Note_on_c, 0, 48, 97
2, 245560, Note_on_c, 0, 75, 97
2, 245751, Note_on_c, 0, 75, 0
2, 245751, Note_on_c, 0, 48, 0
2, 245752, Note_on_c, 0, 46, 97
2, 245752, Note_on_c, 0, 73, 97
2, 245943, Note_on_c, 0, 73, 0
2, 245943, Note_on_c, 0, 46, 0
2, 245944, Note_on_c, 0, 44, 97
2, 245944, Note_on_c, 0, 72, 97
2, 246135, Note_on_c, 0, 72, 0
2, 246135, Note_on_c, 0, 44, 0
2, 246136, Note_on_c, 0, 46, 97
2, 246136, Note_on_c, 0, 73, 97
2, 246327, Note_on_c, 0, 73, 0
2, 246327, Note_on_c, 0, 46, 0
2, 246328, Note_on_c, 0, 48, 97
2, 246328, Note_on_c, 0, 69, 97
2, 246519, Note_on_c, 0, 69, 0
2, 246519, Note_on_c, 0, 48, 0
2, 246520, Note_on_c, 0, 49, 97
2, 246520, Note_on_c, 0, 70, 97
2, 246711, Note_on_c, 0, 70, 0
2, 246712, Note_on_c, 0, 67, 97
2, 246903, Note_on_c, 0, 67, 0
2, 246903, Note_on_c, 0, 49, 0
2, 246904, Note_on_c, 0, 40, 97
2, 246904, Note_on_c, 0, 79, 97
2, 247095, Note_on_c, 0, 40, 0
2, 247096, Note_on_c, 0, 49, 97
2, 247287, Note_on_c, 0, 49, 0
2, 247288, Note_on_c, 0, 48, 97
2, 247479, Note_on_c, 0, 48, 0
2, 247480, Note_on_c, 0, 46, 97
2, 247671, Note_on_c, 0, 46, 0
2, 247672, Note_on_c, 0, 44, 97
2, 247863, Note_on_c, 0, 79, 0
2, 247864, Note_on_c, 0, 72, 97
2, 248055, Note_on_c, 0, 72, 0
2, 248055, Note_on_c, 0, 44, 0
2, 248056, Note_on_c, 0, 48, 97
2, 248056, Note_on_c, 0, 77, 97
2, 248247, Note_on_c, 0, 77, 0
2, 248248, Note_on_c, 0, 76, 97
2, 248439, Note_on_c, 0, 76, 0
2, 248439, Note_on_c, 0, 48, 0
2, 248440, Note_on_c, 0, 41, 97
2, 248440, Note_on_c, 0, 80, 97
2, 248631, Note_on_c, 0, 80, 0
2, 248632, Note_on_c, 0, 79, 97
2, 248823, Note_on_c, 0, 79, 0
2, 248823, Note_on_c, 0, 41, 0
2, 248824, Note_on_c, 0, 44, 97
2, 248824, Note_on_c, 0, 77, 97
2, 249015, Note_on_c, 0, 77, 0
2, 249016, Note_on_c, 0, 76, 97
2, 249207, Note_on_c, 0, 76, 0
2, 249207, Note_on_c, 0, 44, 0
2, 249208, Note_on_c, 0, 49, 97
2, 249208, Note_on_c, 0, 77, 97
2, 249399, Note_on_c, 0, 77, 0
2, 249400, Note_on_c, 0, 72, 97
2, 249591, Note_on_c, 0, 72, 0
2, 249591, Note_on_c, 0, 49, 0
2, 249592, Note_on_c, 0, 53, 97
2, 249592, Note_on_c, 0, 75, 97
2, 249783, Note_on_c, 0, 75, 0
2, 249784, Note_on_c, 0, 73, 97
2, 249975, Note_on_c, 0, 73, 0
2, 249975, Note_on_c, 0, 53, 0
2, 249976, Note_on_c, 0, 43, 97
2, 249976, Note_on_c, 0, 82, 97
2, 250167, Note_on_c, 0, 82, 0
2, 250168, Note_on_c, 0, 80, 97
2, 250359, Note_on_c, 0, 80, 0
2, 250359, Note_on_c, 0, 43, 0
2, 250360, Note_on_c, 0, 46, 97
2, 250360, Note_on_c, 0, 79, 97
2, 250551, Note_on_c, 0, 79, 0
2, 250552, Note_on_c, 0, 77, 97
2, 250743, Note_on_c, 0, 77, 0
2, 250744, Note_on_c, 0, 76, 97
2, 250935, Note_on_c, 0, 76, 0
2, 250935, Note_on_c, 0, 46, 0
2, 250936, Note_on_c, 0, 77, 97
2, 251031, Note_on_c, 0, 77, 0
2, 251032, Note_on_c, 0, 79, 97
2, 251127, Note_on_c, 0, 79, 0
2, 251128, Note_on_c, 0, 44, 97
2, 251128, Note_on_c, 0, 72, 97
2, 251319, Note_on_c, 0, 72, 0
2, 251319, Note_on_c, 0, 44, 0
2, 251320, Note_on_c, 0, 46, 97
2, 251320, Note_on_c, 0, 70, 97
2, 251511, Note_on_c, 0, 70, 0
2, 251511, Note_on_c, 0, 46, 0
2, 251512, Note_on_c, 0, 48, 97
2, 251512, Note_on_c, 0, 68, 97
2, 251703, Note_on_c, 0, 68, 0
2, 251704, Note_on_c, 0, 77, 97
2, 251895, Note_on_c, 0, 77, 0
2, 251895, Note_on_c, 0, 48, 0
2, 251896, Note_on_c, 0, 36, 97
2, 251896, Note_on_c, 0, 67, 97
2, 252087, Note_on_c, 0, 67, 0
2, 252088, Note_on_c, 0, 76, 97
2, 252279, Note_on_c, 0, 76, 0
2, 252279, Note_on_c, 0, 36, 0
2, 252280, Note_on_c, 0, 41, 97
2, 252280, Note_on_c, 0, 77, 97
2, 252471, Note_on_c, 0, 41, 0
2, 252472, Note_on_c, 0, 48, 97
2, 252663, Note_on_c, 0, 48, 0
2, 252664, Note_on_c, 0, 53, 97
2, 252855, Note_on_c, 0, 53, 0
2, 252856, Note_on_c, 0, 55, 97
2, 253047, Note_on_c, 0, 55, 0
2, 253048, Note_on_c, 0, 56, 97
2, 253143, Note_on_c, 0, 77, 0
2, 253144, Note_on_c, 0, 79, 97
2, 253239, Note_on_c, 0, 79, 0
2, 253239, Note_on_c, 0, 56, 0
2, 253240, Note_on_c, 0, 53, 97
2, 253240, Note_on_c, 0, 77, 97
2, 253335, Note_on_c, 0, 77, 0
2, 253336, Note_on_c, 0, 76, 97
2, 253431, Note_on_c, 0, 76, 0
2, 253431, Note_on_c, 0, 53, 0
2, 253432, Note_on_c, 0, 56, 97
2, 253432, Note_on_c, 0, 77, 97
2, 253623, Note_on_c, 0, 77, 0
2, 253623, Note_on_c, 0, 56, 0
2, 253624, Note_on_c, 0, 60, 97
2, 253624, Note_on_c, 0, 79, 97
2, 253815, Note_on_c, 0, 79, 0
2, 253815, Note_on_c, 0, 60, 0
2, 253816, Note_on_c, 0, 65, 97
2, 253816, Note_on_c, 0, 80, 97
2, 254007, Note_on_c, 0, 80, 0
2, 254008, Note_on_c, 0, 76, 97
2, 254199, Note_on_c, 0, 76, 0
2, 254199, Note_on_c, 0, 65, 0
2, 254200, Note_on_c, 0, 56, 97
2, 254200, Note_on_c, 0, 77, 97
2, 254391, Note_on_c, 0, 77, 0
2, 254392, Note_on_c, 0, 72, 97
2, 254583, Note_on_c, 0, 72, 0
2, 254583, Note_on_c, 0, 56, 0
2, 254584, Note_on_c, 0, 60, 97
2, 254584, Note_on_c, 0, 68, 97
2, 254775, Note_on_c, 0, 68, 0
2, 254776, Note_on_c, 0, 65, 97
2, 254967, Note_on_c, 0, 65, 0
2, 254967, Note_on_c, 0, 60, 0
2, 254968, Note_on_c, 0, 53, 97
2, 254968, Note_on_c, 0, 75, 97
2, 255159, Note_on_c, 0, 75, 0
2, 255160, Note_on_c, 0, 72, 97
2, 255351, Note_on_c, 0, 72, 0
2, 255351, Note_on_c, 0, 53, 0
2, 255352, Note_on_c, 0, 58, 97
2, 255352, Note_on_c, 0, 74, 97
2, 255543, Note_on_c, 0, 74, 0
2, 255544, Note_on_c, 0, 69, 97
2, 255735, Note_on_c, 0, 69, 0
2, 255735, Note_on_c, 0, 58, 0
2, 255736, Note_on_c, 0, 65, 97
2, 255736, Note_on_c, 0, 70, 97
2, 255927, Note_on_c, 0, 70, 0
2, 255928, Note_on_c, 0, 74, 97
2, 256119, Note_on_c, 0, 74, 0
2, 256119, Note_on_c, 0, 65, 0
2, 256120, Note_on_c, 0, 62, 97
2, 256120, Note_on_c, 0, 77, 97
2, 256311, Note_on_c, 0, 77, 0
2, 256312, Note_on_c, 0, 80, 97
2, 256503, Note_on_c, 0, 80, 0
2, 256503, Note_on_c, 0, 62, 0
2, 256504, Note_on_c, 0, 58, 97
2, 256504, Note_on_c, 0, 79, 97
2, 256695, Note_on_c, 0, 79, 0
2, 256696, Note_on_c, 0, 77, 97
2, 256887, Note_on_c, 0, 77, 0
2, 256887, Note_on_c, 0, 58, 0
2, 256888, Note_on_c, 0, 63, 97
2, 256888, Note_on_c, 0, 79, 97
2, 257079, Note_on_c, 0, 79, 0
2, 257080, Note_on_c, 0, 74, 97
2, 257271, Note_on_c, 0, 74, 0
2, 257271, Note_on_c, 0, 63, 0
2, 257272, Note_on_c, 0, 55, 97
2, 257272, Note_on_c, 0, 75, 97
2, 257463, Note_on_c, 0, 75, 0
2, 257464, Note_on_c, 0, 70, 97
2, 257655, Note_on_c, 0, 70, 0
2, 257655, Note_on_c, 0, 55, 0
2, 257656, Note_on_c, 0, 58, 97
2, 257656, Note_on_c, 0, 67, 97
2, 257847, Note_on_c, 0, 67, 0
2, 257848, Note_on_c, 0, 63, 97
2, 258039, Note_on_c, 0, 63, 0
2, 258039, Note_on_c, 0, 58, 0
2, 258040, Note_on_c, 0, 51, 97
2, 258040, Note_on_c, 0, 74, 97
2, 258231, Note_on_c, 0, 74, 0
2, 258232, Note_on_c, 0, 71, 97
2, 258423, Note_on_c, 0, 71, 0
2, 258423, Note_on_c, 0, 51, 0
2, 258424, Note_on_c, 0, 56, 97
2, 258424, Note_on_c, 0, 72, 97
2, 258615, Note_on_c, 0, 72, 0
2, 258616, Note_on_c, 0, 67, 97
2, 258807, Note_on_c, 0, 67, 0
2, 258807, Note_on_c, 0, 56, 0
2, 258808, Note_on_c, 0, 63, 97
2, 258808, Note_on_c, 0, 68, 97
2, 258999, Note_on_c, 0, 68, 0
2, 259000, Note_on_c, 0, 72, 97
2, 259191, Note_on_c, 0, 72, 0
2, 259191, Note_on_c, 0, 63, 0
2, 259192, Note_on_c, 0, 60, 97
2, 259192, Note_on_c, 0, 75, 97
2, 259383, Note_on_c, 0, 75, 0
2, 259384, Note_on_c, 0, 79, 97
2, 259575, Note_on_c, 0, 79, 0
2, 259575, Note_on_c, 0, 60, 0
2, 259576, Note_on_c, 0, 56, 97
2, 259576, Note_on_c, 0, 77, 97
2, 259767, Note_on_c, 0, 77, 0
2, 259768, Note_on_c, 0, 75, 97
2, 259959, Note_on_c, 0, 75, 0
2, 259959, Note_on_c, 0, 56, 0
2, 259960, Note_on_c, 0, 62, 97
2, 259960, Note_on_c, 0, 77, 97
2, 260151, Note_on_c, 0, 77, 0
2, 260152, Note_on_c, 0, 72, 97
2, 260343, Note_on_c, 0, 72, 0
2, 260343, Note_on_c, 0, 62, 0
2, 260344, Note_on_c, 0, 53, 97
2, 260344, Note_on_c, 0, 74, 97
2, 260535, Note_on_c, 0, 74, 0
2, 260536, Note_on_c, 0, 68, 97
2, 260727, Note_on_c, 0, 68, 0
2, 260727, Note_on_c, 0, 53, 0
2, 260728, Note_on_c, 0, 56, 97
2, 260728, Note_on_c, 0, 65, 97
2, 260919, Note_on_c, 0, 65, 0
2, 260920, Note_on_c, 0, 62, 97
2, 261111, Note_on_c, 0, 62, 0
2, 261111, Note_on_c, 0, 56, 0
2, 261112, Note_on_c, 0, 50, 97
2, 261112, Note_on_c, 0, 72, 97
2, 261303, Note_on_c, 0, 72, 0
2, 261304, Note_on_c, 0, 69, 97
2, 261495, Note_on_c, 0, 69, 0
2, 261495, Note_on_c, 0, 50, 0
2, 261496, Note_on_c, 0, 55, 97
2, 261496, Note_on_c, 0, 71, 97
2, 261687, Note_on_c, 0, 71, 0
2, 261688, Note_on_c, 0, 66, 97
2, 261879, Note_on_c, 0, 66, 0
2, 261879, Note_on_c, 0, 55, 0
2, 261880, Note_on_c, 0, 62, 97
2, 261880, Note_on_c, 0, 67, 97
2, 262071, Note_on_c, 0, 67, 0
2, 262072, Note_on_c, 0, 71, 97
2, 262263, Note_on_c, 0, 71, 0
2, 262263, Note_on_c, 0, 62, 0
2, 262264, Note_on_c, 0, 59, 97
2, 262264, Note_on_c, 0, 74, 97
2, 262455, Note_on_c, 0, 74, 0
2, 262456, Note_on_c, 0, 77, 97
2, 262647, Note_on_c, 0, 77, 0
2, 262647, Note_on_c, 0, 59, 0
2, 262648, Note_on_c, 0, 55, 97
2, 262648, Note_on_c, 0, 75, 97
2, 262839, Note_on_c, 0, 75, 0
2, 262840, Note_on_c, 0, 74, 97
2, 263031, Note_on_c, 0, 74, 0
2, 263031, Note_on_c, 0, 55, 0
2, 263032, Note_on_c, 0, 60, 97
2, 263032, Note_on_c, 0, 75, 97
2, 263223, Note_on_c, 0, 75, 0
2, 263224, Note_on_c, 0, 71, 97
2, 263415, Note_on_c, 0, 71, 0
2, 263415, Note_on_c, 0, 60, 0
2, 263416, Note_on_c, 0, 51, 97
2, 263416, Note_on_c, 0, 72, 97
2, 263607, Note_on_c, 0, 72, 0
2, 263608, Note_on_c, 0, 68, 97
2, 263799, Note_on_c, 0, 68, 0
2, 263799, Note_on_c, 0, 51, 0
2, 263800, Note_on_c, 0, 56, 97
2, 263800, Note_on_c, 0, 67, 97
2, 263991, Note_on_c, 0, 67, 0
2, 263992, Note_on_c, 0, 65, 97
2, 264183, Note_on_c, 0, 65, 0
2, 264183, Note_on_c, 0, 56, 0
2, 264184, Note_on_c, 0, 53, 97
2, 264184, Note_on_c, 0, 75, 97
2, 264375, Note_on_c, 0, 75, 0
2, 264376, Note_on_c, 0, 74, 97
2, 264567, Note_on_c, 0, 74, 0
2, 264567, Note_on_c, 0, 53, 0
2, 264568, Note_on_c, 0, 55, 97
2, 264568, Note_on_c, 0, 72, 97
2, 264759, Note_on_c, 0, 72, 0
2, 264760, Note_on_c, 0, 71, 97
2, 264951, Note_on_c, 0, 71, 0
2, 264951, Note_on_c, 0, 55, 0
2, 264952, Note_on_c, 0, 43, 97
2, 264952, Note_on_c, 0, 72, 97
2, 265143, Note_on_c, 0, 72, 0
2, 265144, Note_on_c, 0, 74, 97
2, 265335, Note_on_c, 0, 74, 0
2, 265336, Note_on_c, 0, 67, 97
2, 265527, Note_on_c, 0, 43, 0
2, 265528, Note_on_c, 0, 56, 97
2, 265719, Note_on_c, 0, 56, 0
2, 265719, Note_on_c, 0, 67, 0
2, 265720, Note_on_c, 0, 55, 97
2, 265720, Note_on_c, 0, 74, 97
2, 265911, Note_on_c, 0, 55, 0
2, 265912, Note_on_c, 0, 53, 97
2, 266103, Note_on_c, 0, 53, 0
2, 266103, Note_on_c, 0, 74, 0
2, 266104, Note_on_c, 0, 55, 97
2, 266104, Note_on_c, 0, 75, 97
2, 266295, Note_on_c, 0, 75, 0
2, 266295, Note_on_c, 0, 55, 0
2, 266296, Note_on_c, 0, 50, 97
2, 266296, Note_on_c, 0, 79, 97
2, 266487, Note_on_c, 0, 79, 0
2, 266487, Note_on_c, 0, 50, 0
2, 266488, Note_on_c, 0, 51, 97
2, 266488, Note_on_c, 0, 84, 97
2, 266679, Note_on_c, 0, 84, 0
2, 266679, Note_on_c, 0, 51, 0
2, 266680, Note_on_c, 0, 47, 97
2, 266680, Note_on_c, 0, 79, 97
2, 266871, Note_on_c, 0, 79, 0
2, 266871, Note_on_c, 0, 47, 0
2, 266872, Note_on_c, 0, 48, 97
2, 266872, Note_on_c, 0, 75, 97
2, 267063, Note_on_c, 0, 75, 0
2, 267063, Note_on_c, 0, 48, 0
2, 267064, Note_on_c, 0, 53, 97
2, 267064, Note_on_c, 0, 74, 97
2, 267255, Note_on_c, 0, 74, 0
2, 267255, Note_on_c, 0, 53, 0
2, 267256, Note_on_c, 0, 51, 97
2, 267256, Note_on_c, 0, 72, 97
2, 267447, Note_on_c, 0, 72, 0
2, 267447, Note_on_c, 0, 51, 0
2, 267448, Note_on_c, 0, 50, 97
2, 267448, Note_on_c, 0, 71, 97
2, 267639, Note_on_c, 0, 71, 0
2, 267639, Note_on_c, 0, 50, 0
2, 267640, Note_on_c, 0, 51, 97
2, 267640, Note_on_c, 0, 72, 97
2, 267831, Note_on_c, 0, 72, 0
2, 267831, Note_on_c, 0, 51, 0
2, 267832, Note_on_c, 0, 47, 97
2, 267832, Note_on_c, 0, 75, 97
2, 268023, Note_on_c, 0, 75, 0
2, 268023, Note_on_c, 0, 47, 0
2, 268024, Note_on_c, 0, 48, 97
2, 268024, Note_on_c, 0, 79, 97
2, 268215, Note_on_c, 0, 48, 0
2, 268216, Note_on_c, 0, 43, 97
2, 268407, Note_on_c, 0, 43, 0
2, 268408, Note_on_c, 0, 44, 97
2, 268504, Note_on_c, 0, 79, 0
2, 268599, Note_on_c, 0, 44, 0
2, 268600, Note_on_c, 0, 49, 97
2, 268600, Note_on_c, 0, 70, 97
2, 268791, Note_on_c, 0, 70, 0
2, 268791, Note_on_c, 0, 49, 0
2, 268792, Note_on_c, 0, 48, 97
2, 268792, Note_on_c, 0, 68, 97
2, 268983, Note_on_c, 0, 68, 0
2, 268983, Note_on_c, 0, 48, 0
2, 268984, Note_on_c, 0, 46, 97
2, 268984, Note_on_c, 0, 67, 97
2, 269175, Note_on_c, 0, 67, 0
2, 269175, Note_on_c, 0, 46, 0
2, 269176, Note_on_c, 0, 48, 97
2, 269176, Note_on_c, 0, 68, 97
2, 269367, Note_on_c, 0, 68, 0
2, 269367, Note_on_c, 0, 48, 0
2, 269368, Note_on_c, 0, 43, 97
2, 269368, Note_on_c, 0, 72, 97
2, 269559, Note_on_c, 0, 72, 0
2, 269559, Note_on_c, 0, 43, 0
2, 269560, Note_on_c, 0, 44, 97
2, 269560, Note_on_c, 0, 77, 97
2, 269751, Note_on_c, 0, 77, 0
2, 269751, Note_on_c, 0, 44, 0
2, 269752, Note_on_c, 0, 40, 97
2, 269752, Note_on_c, 0, 72, 97
2, 269943, Note_on_c, 0, 72, 0
2, 269943, Note_on_c, 0, 40, 0
2, 269944, Note_on_c, 0, 41, 97
2, 269944, Note_on_c, 0, 68, 97
2, 270135, Note_on_c, 0, 68, 0
2, 270135, Note_on_c, 0, 41, 0
2, 270136, Note_on_c, 0, 46, 97
2, 270136, Note_on_c, 0, 67, 97
2, 270327, Note_on_c, 0, 67, 0
2, 270327, Note_on_c, 0, 46, 0
2, 270328, Note_on_c, 0, 44, 97
2, 270328, Note_on_c, 0, 65, 97
2, 270519, Note_on_c, 0, 65, 0
2, 270519, Note_on_c, 0, 44, 0
2, 270520, Note_on_c, 0, 43, 97
2, 270520, Note_on_c, 0, 64, 97
2, 270711, Note_on_c, 0, 64, 0
2, 270711, Note_on_c, 0, 43, 0
2, 270712, Note_on_c, 0, 44, 97
2, 270712, Note_on_c, 0, 65, 97
2, 270903, Note_on_c, 0, 65, 0
2, 270903, Note_on_c, 0, 44, 0
2, 270904, Note_on_c, 0, 41, 97
2, 270904, Note_on_c, 0, 71, 97
2, 271095, Note_on_c, 0, 71, 0
2, 271095, Note_on_c, 0, 41, 0
2, 271096, Note_on_c, 0, 43, 97
2, 271096, Note_on_c, 0, 74, 97
2, 271287, Note_on_c, 0, 43, 0
2, 271288, Note_on_c, 0, 47, 97
2, 271479, Note_on_c, 0, 47, 0
2, 271480, Note_on_c, 0, 50, 97
2, 271576, Note_on_c, 0, 74, 0
2, 271671, Note_on_c, 0, 50, 0
2, 271672, Note_on_c, 0, 44, 97
2, 271672, Note_on_c, 0, 65, 97
2, 271863, Note_on_c, 0, 65, 0
2, 271863, Note_on_c, 0, 44, 0
2, 271864, Note_on_c, 0, 43, 97
2, 271864, Note_on_c, 0, 63, 97
2, 272055, Note_on_c, 0, 63, 0
2, 272055, Note_on_c, 0, 43, 0
2, 272056, Note_on_c, 0, 41, 97
2, 272056, Note_on_c, 0, 62, 97
2, 272247, Note_on_c, 0, 62, 0
2, 272247, Note_on_c, 0, 41, 0
2, 272248, Note_on_c, 0, 39, 97
2, 272248, Note_on_c, 0, 60, 97
2, 272439, Note_on_c, 0, 39, 0
2, 272440, Note_on_c, 0, 43, 97
2, 272631, Note_on_c, 0, 43, 0
2, 272631, Note_on_c, 0, 60, 0
2, 272632, Note_on_c, 0, 48, 97
2, 272632, Note_on_c, 0, 75, 97
2, 272823, Note_on_c, 0, 48, 0
2, 272824, Note_on_c, 0, 51, 97
2, 273015, Note_on_c, 0, 75, 0
2, 273016, Note_on_c, 0, 68, 97
2, 273207, Note_on_c, 0, 51, 0
2, 273208, Note_on_c, 0, 47, 97
2, 273399, Note_on_c, 0, 47, 0
2, 273399, Note_on_c, 0, 68, 0
2, 273400, Note_on_c, 0, 48, 97
2, 273400, Note_on_c, 0, 67, 97
2, 273591, Note_on_c, 0, 48, 0
2, 273592, Note_on_c, 0, 39, 97
2, 273783, Note_on_c, 0, 39, 0
2, 273783, Note_on_c, 0, 67, 0
2, 273784, Note_on_c, 0, 41, 97
2, 273784, Note_on_c, 0, 62, 97
2, 273975, Note_on_c, 0, 41, 0
2, 273976, Note_on_c, 0, 44, 97
2, 274167, Note_on_c, 0, 44, 0
2, 274167, Note_on_c, 0, 62, 0
2, 274168, Note_on_c, 0, 48, 97
2, 274168, Note_on_c, 0, 77, 97
2, 274359, Note_on_c, 0, 48, 0
2, 274360, Note_on_c, 0, 51, 97
2, 274551, Note_on_c, 0, 77, 0
2, 274552, Note_on_c, 0, 68, 97
2, 274743, Note_on_c, 0, 51, 0
2, 274744, Note_on_c, 0, 47, 97
2, 274935, Note_on_c, 0, 47, 0
2, 274935, Note_on_c, 0, 68, 0
2, 274936, Note_on_c, 0, 48, 97
2, 274936, Note_on_c, 0, 67, 97
2, 275127, Note_on_c, 0, 48, 0
2, 275128, Note_on_c, 0, 41, 97
2, 275319, Note_on_c, 0, 41, 0
2, 275319, Note_on_c, 0, 67, 0
2, 275320, Note_on_c, 0, 43, 97
2, 275320, Note_on_c, 0, 63, 97
2, 275511, Note_on_c, 0, 43, 0
2, 275512, Note_on_c, 0, 47, 97
2, 275703, Note_on_c, 0, 47, 0
2, 275703, Note_on_c, 0, 63, 0
2, 275704, Note_on_c, 0, 48, 97
2, 275704, Note_on_c, 0, 79, 97
2, 275895, Note_on_c, 0, 48, 0
2, 275896, Note_on_c, 0, 51, 97
2, 276087, Note_on_c, 0, 79, 0
2, 276088, Note_on_c, 0, 68, 97
2, 276279, Note_on_c, 0, 51, 0
2, 276280, Note_on_c, 0, 47, 97
2, 276471, Note_on_c, 0, 47, 0
2, 276471, Note_on_c, 0, 68, 0
2, 276472, Note_on_c, 0, 48, 97
2, 276472, Note_on_c, 0, 67, 97
2, 276663, Note_on_c, 0, 48, 0
2, 276664, Note_on_c, 0, 43, 97
2, 276855, Note_on_c, 0, 43, 0
2, 276855, Note_on_c, 0, 67, 0
2, 276856, Note_on_c, 0, 44, 97
2, 276856, Note_on_c, 0, 65, 97
2, 277047, Note_on_c, 0, 44, 0
2, 277048, Note_on_c, 0, 47, 97
2, 277239, Note_on_c, 0, 47, 0
2, 277239, Note_on_c, 0, 65, 0
2, 277240, Note_on_c, 0, 48, 97
2, 277240, Note_on_c, 0, 80, 97
2, 277431, Note_on_c, 0, 80, 0
2, 277431, Note_on_c, 0, 48, 0
2, 277432, Note_on_c, 0, 51, 97
2, 277432, Note_on_c, 0, 79, 97
2, 277623, Note_on_c, 0, 79, 0
2, 277624, Note_on_c, 0, 80, 97
2, 277815, Note_on_c, 0, 80, 0
2, 277815, Note_on_c, 0, 51, 0
2, 277816, Note_on_c, 0, 47, 97
2, 277816, Note_on_c, 0, 79, 97
2, 278007, Note_on_c, 0, 79, 0
2, 278007, Note_on_c, 0, 47, 0
2, 278008, Note_on_c, 0, 48, 97
2, 278008, Note_on_c, 0, 78, 97
2, 278199, Note_on_c, 0, 78, 0
2, 278199, Note_on_c, 0, 48, 0
2, 278200, Note_on_c, 0, 51, 97
2, 278200, Note_on_c, 0, 79, 97
2, 278391, Note_on_c, 0, 51, 0
2, 278392, Note_on_c, 0, 57, 97
2, 278488, Note_on_c, 0, 78, 97
2, 278497, Note_on_c, 0, 79, 0
2, 278583, Note_on_c, 0, 57, 0
2, 278584, Note_on_c, 0, 50, 97
2, 278584, Note_on_c, 0, 79, 97
2, 278615, Note_on_c, 0, 78, 0
2, 278680, Note_on_c, 0, 78, 97
2, 278711, Note_on_c, 0, 79, 0
2, 278775, Note_on_c, 0, 50, 0
2, 278776, Note_on_c, 0, 51, 97
2, 278776, Note_on_c, 0, 79, 97
2, 278807, Note_on_c, 0, 78, 0
2, 278872, Note_on_c, 0, 78, 97
2, 278903, Note_on_c, 0, 79, 0
2, 278967, Note_on_c, 0, 51, 0
2, 278968, Note_on_c, 0, 47, 97
2, 278968, Note_on_c, 0, 79, 97
2, 278999, Note_on_c, 0, 78, 0
2, 279064, Note_on_c, 0, 78, 97
2, 279095, Note_on_c, 0, 79, 0
2, 279159, Note_on_c, 0, 47, 0
2, 279160, Note_on_c, 0, 48, 97
2, 279160, Note_on_c, 0, 79, 97
2, 279191, Note_on_c, 0, 78, 0
2, 279256, Note_on_c, 0, 78, 97
2, 279287, Note_on_c, 0, 79, 0
2, 279351, Note_on_c, 0, 48, 0
2, 279352, Note_on_c, 0, 51, 97
2, 279352, Note_on_c, 0, 79, 97
2, 279383, Note_on_c, 0, 78, 0
2, 279448, Note_on_c, 0, 78, 97
2, 279479, Note_on_c, 0, 79, 0
2, 279543, Note_on_c, 0, 51, 0
2, 279544, Note_on_c, 0, 50, 97
2, 279544, Note_on_c, 0, 79, 97
2, 279600, Note_on_c, 0, 78, 0
2, 279640, Note_on_c, 0, 78, 97
2, 279671, Note_on_c, 0, 79, 0
2, 279735, Note_on_c, 0, 50, 0
2, 279736, Note_on_c, 0, 48, 97
2, 279736, Note_on_c, 0, 76, 97
2, 279792, Note_on_c, 0, 78, 0
2, 279832, Note_on_c, 0, 78, 97
2, 279856, Note_on_c, 0, 76, 0
2, 279927, Note_on_c, 0, 78, 0
2, 279927, Note_on_c, 0, 48, 0
2, 279928, Note_on_c, 0, 47, 97
2, 279928, Note_on_c, 0, 79, 97
2, 280119, Note_on_c, 0, 79, 0
2, 280119, Note_on_c, 0, 47, 0
2, 280120, Note_on_c, 0, 43, 97
2, 280120, Note_on_c, 0, 74, 97
2, 280311, Note_on_c, 0, 74, 0
2, 280311, Note_on_c, 0, 43, 0
2, 280312, Note_on_c, 0, 44, 97
2, 280312, Note_on_c, 0, 77, 97
2, 280503, Note_on_c, 0, 77, 0
2, 280503, Note_on_c, 0, 44, 0
2, 280504, Note_on_c, 0, 39, 97
2, 280504, Note_on_c, 0, 75, 97
2, 280695, Note_on_c, 0, 75, 0
2, 280695, Note_on_c, 0, 39, 0
2, 280696, Note_on_c, 0, 41, 97
2, 280696, Note_on_c, 0, 74, 97
2, 280887, Note_on_c, 0, 74, 0
2, 280887, Note_on_c, 0, 41, 0
2, 280888, Note_on_c, 0, 44, 97
2, 280888, Note_on_c, 0, 72, 97
2, 281079, Note_on_c, 0, 72, 0
2, 281079, Note_on_c, 0, 44, 0
2, 281080, Note_on_c, 0, 43, 97
2, 281080, Note_on_c, 0, 71, 97
2, 281271, Note_on_c, 0, 71, 0
2, 281271, Note_on_c, 0, 43, 0
2, 281272, Note_on_c, 0, 41, 97
2, 281272, Note_on_c, 0, 69, 97
2, 281463, Note_on_c, 0, 69, 0
2, 281463, Note_on_c, 0, 41, 0
2, 281464, Note_on_c, 0, 39, 97
2, 281464, Note_on_c, 0, 67, 97
2, 281655, Note_on_c, 0, 39, 0
2, 281656, Note_on_c, 0, 43, 97
2, 281847, Note_on_c, 0, 43, 0
2, 281847, Note_on_c, 0, 67, 0
2, 281864, Note_on_c, 0, 67, 97
2, 281864, Note_on_c, 0, 72, 97
2, 281864, Note_on_c, 0, 75, 97
2, 281864, Note_on_c, 0, 48, 97
2, 281864, Note_on_c, 0, 79, 97
2, 282028, Note_on_c, 0, 48, 0
2, 282056, Note_on_c, 0, 51, 97
2, 282198, Note_on_c, 0, 75, 0
2, 282198, Note_on_c, 0, 67, 0
2, 282198, Note_on_c, 0, 72, 0
2, 282247, Note_on_c, 0, 79, 0
2, 282247, Note_on_c, 0, 51, 0
2, 282264, Note_on_c, 0, 55, 97
2, 282264, Note_on_c, 0, 72, 97
2, 282264, Note_on_c, 0, 67, 97
2, 282264, Note_on_c, 0, 75, 97
2, 282647, Note_on_c, 0, 75, 0
2, 282647, Note_on_c, 0, 55, 0
2, 282647, Note_on_c, 0, 72, 0
2, 282647, Note_on_c, 0, 67, 0
2, 282664, Note_on_c, 0, 65, 97
2, 282664, Note_on_c, 0, 71, 97
2, 282664, Note_on_c, 0, 43, 97
2, 282664, Note_on_c, 0, 74, 97
2, 282855, Note_on_c, 0, 74, 0
2, 282904, Note_on_c, 0, 72, 97
2, 283049, Note_on_c, 0, 71, 0
2, 283070, Note_on_c, 0, 72, 0
2, 283074, Note_on_c, 0, 43, 0
2, 283074, Note_on_c, 0, 65, 0
2, 283080, Note_on_c, 0, 36, 97
2, 283080, Note_on_c, 0, 48, 97
2, 283080, Note_on_c, 0, 63, 97
2, 283080, Note_on_c, 0, 67, 97
2, 283084, Note_on_c, 0, 72, 97
2, 285574, Note_on_c, 0, 67, 0
2, 285574, Note_on_c, 0, 63, 0
2, 285574, Note_on_c, 0, 36, 0
2, 285574, Note_on_c, 0, 48, 0
2, 285578, Note_on_c, 0, 72, 0
2, 288952, Note_on_c, 0, 72, 97
2, 289132, Note_on_c, 0, 72, 0
2, 289144, Note_on_c, 0, 72, 97
2, 289144, Note_on_c, 0, 63, 97
2, 289144, Note_on_c, 0, 67, 97
2, 289144, Note_on_c, 0, 60, 97
2, 289528, Note_on_c, 0, 48, 97
2, 289623, Note_on_c, 0, 67, 0
2, 289623, Note_on_c, 0, 72, 0
2, 289623, Note_on_c, 0, 63, 0
2, 289624, Note_on_c, 0, 67, 97
2, 289719, Note_on_c, 0, 67, 0
2, 289720, Note_on_c, 0, 69, 97
2, 289815, Note_on_c, 0, 69, 0
2, 289816, Note_on_c, 0, 71, 97
2, 289911, Note_on_c, 0, 71, 0
2, 289912, Note_on_c, 0, 72, 97
2, 289912, Note_on_c, 0, 51, 97
2, 290103, Note_on_c, 0, 72, 0
2, 290104, Note_on_c, 0, 74, 97
2, 290294, Note_on_c, 0, 60, 0
2, 290295, Note_on_c, 0, 51, 0
2, 290295, Note_on_c, 0, 74, 0
2, 290296, Note_on_c, 0, 75, 97
2, 290296, Note_on_c, 0, 55, 97
2, 290487, Note_on_c, 0, 75, 0
2, 290488, Note_on_c, 0, 72, 97
2, 290679, Note_on_c, 0, 72, 0
2, 290679, Note_on_c, 0, 55, 0
2, 290680, Note_on_c, 0, 80, 97
2, 290680, Note_on_c, 0, 60, 97
2, 290872, Note_on_c, 0, 77, 97
2, 291063, Note_on_c, 0, 60, 0
2, 291064, Note_on_c, 0, 74, 97
2, 291064, Note_on_c, 0, 59, 97
2, 291255, Note_on_c, 0, 80, 0
2, 291256, Note_on_c, 0, 80, 97
2, 291447, Note_on_c, 0, 80, 0
2, 291447, Note_on_c, 0, 59, 0
2, 291447, Note_on_c, 0, 48, 0
2, 291448, Note_on_c, 0, 79, 97
2, 291448, Note_on_c, 0, 60, 97
2, 291448, Note_on_c, 0, 48, 97
2, 291552, Note_on_c, 0, 77, 0
2, 291639, Note_on_c, 0, 74, 0
2, 291640, Note_on_c, 0, 77, 97
2, 291831, Note_on_c, 0, 77, 0
2, 291832, Note_on_c, 0, 75, 97
2, 291927, Note_on_c, 0, 48, 0
2, 291927, Note_on_c, 0, 60, 0
2, 291928, Note_on_c, 0, 55, 97
2, 292023, Note_on_c, 0, 55, 0
2, 292023, Note_on_c, 0, 75, 0
2, 292024, Note_on_c, 0, 74, 97
2, 292024, Note_on_c, 0, 57, 97
2, 292119, Note_on_c, 0, 57, 0
2, 292120, Note_on_c, 0, 59, 97
2, 292215, Note_on_c, 0, 59, 0
2, 292215, Note_on_c, 0, 74, 0
2, 292216, Note_on_c, 0, 75, 97
2, 292216, Note_on_c, 0, 60, 97
2, 292407, Note_on_c, 0, 60, 0
2, 292408, Note_on_c, 0, 62, 97
2, 292599, Note_on_c, 0, 62, 0
2, 292599, Note_on_c, 0, 75, 0
2, 292600, Note_on_c, 0, 72, 97
2, 292600, Note_on_c, 0, 63, 97
2, 292791, Note_on_c, 0, 63, 0
2, 292792, Note_on_c, 0, 60, 97
2, 292983, Note_on_c, 0, 60, 0
2, 292984, Note_on_c, 0, 68, 97
2, 293175, Note_on_c, 0, 72, 0
2, 293176, Note_on_c, 0, 72, 97
2, 293367, Note_on_c, 0, 79, 0
2, 293368, Note_on_c, 0, 77, 97
2, 293559, Note_on_c, 0, 72, 0
2, 293559, Note_on_c, 0, 68, 0
2, 293560, Note_on_c, 0, 74, 97
2, 293560, Note_on_c, 0, 68, 97
2, 293751, Note_on_c, 0, 68, 0
2, 293751, Note_on_c, 0, 74, 0
2, 293752, Note_on_c, 0, 71, 97
2, 293752, Note_on_c, 0, 67, 97
2, 293847, Note_on_c, 0, 77, 0
2, 293848, Note_on_c, 0, 80, 97
2, 293943, Note_on_c, 0, 80, 0
2, 293944, Note_on_c, 0, 79, 97
2, 294039, Note_on_c, 0, 79, 0
2, 294040, Note_on_c, 0, 77, 97
2, 294135, Note_on_c, 0, 77, 0
2, 294136, Note_on_c, 0, 79, 97
2, 294327, Note_on_c, 0, 79, 0
2, 294328, Note_on_c, 0, 74, 97
2, 294519, Note_on_c, 0, 74, 0
2, 294520, Note_on_c, 0, 75, 97
2, 294711, Note_on_c, 0, 71, 0
2, 294712, Note_on_c, 0, 71, 97
2, 294903, Note_on_c, 0, 71, 0
2, 294904, Note_on_c, 0, 72, 97
2, 295095, Note_on_c, 0, 67, 0
2, 295096, Note_on_c, 0, 68, 97
2, 295287, Note_on_c, 0, 68, 0
2, 295288, Note_on_c, 0, 66, 97
2, 295479, Note_on_c, 0, 75, 0
2, 295480, Note_on_c, 0, 75, 97
2, 295671, Note_on_c, 0, 75, 0
2, 295671, Note_on_c, 0, 72, 0
2, 295672, Note_on_c, 0, 74, 97
2, 295672, Note_on_c, 0, 69, 97
2, 295863, Note_on_c, 0, 74, 0
2, 295864, Note_on_c, 0, 72, 97
2, 296052, Note_on_c, 0, 69, 0
2, 296055, Note_on_c, 0, 72, 0
2, 296055, Note_on_c, 0, 66, 0
2, 296056, Note_on_c, 0, 72, 97
2, 296152, Note_on_c, 0, 67, 97
2, 296184, Note_on_c, 0, 71, 97
2, 296200, Note_on_c, 0, 72, 0
2, 296247, Note_on_c, 0, 71, 0
2, 296247, Note_on_c, 0, 67, 0
2, 296248, Note_on_c, 0, 72, 97
2, 296248, Note_on_c, 0, 65, 97
2, 296311, Note_on_c, 0, 72, 0
2, 296312, Note_on_c, 0, 71, 97
2, 296343, Note_on_c, 0, 65, 0
2, 296344, Note_on_c, 0, 63, 97
2, 296375, Note_on_c, 0, 71, 0
2, 296376, Note_on_c, 0, 72, 97
2, 296439, Note_on_c, 0, 72, 0
2, 296439, Note_on_c, 0, 63, 0
2, 296440, Note_on_c, 0, 71, 97
2, 296440, Note_on_c, 0, 65, 97
2, 296629, Note_on_c, 0, 71, 0
2, 296631, Note_on_c, 0, 65, 0
2, 296632, Note_on_c, 0, 72, 97
2, 296632, Note_on_c, 0, 62, 97
2, 296822, Note_on_c, 0, 62, 0
2, 296823, Note_on_c, 0, 72, 0
2, 296824, Note_on_c, 0, 74, 97
2, 296824, Note_on_c, 0, 59, 97
2, 297016, Note_on_c, 0, 67, 97
2, 297207, Note_on_c, 0, 67, 0
2, 297208, Note_on_c, 0, 62, 97
2, 297399, Note_on_c, 0, 62, 0
2, 297400, Note_on_c, 0, 65, 97
2, 297504, Note_on_c, 0, 59, 0
2, 297591, Note_on_c, 0, 65, 0
2, 297592, Note_on_c, 0, 63, 97
2, 297592, Note_on_c, 0, 60, 97
2, 297783, Note_on_c, 0, 74, 0
2, 297784, Note_on_c, 0, 72, 97
2, 297975, Note_on_c, 0, 72, 0
2, 297975, Note_on_c, 0, 60, 0
2, 297975, Note_on_c, 0, 63, 0
2, 297976, Note_on_c, 0, 75, 97
2, 297976, Note_on_c, 0, 67, 97
2, 297976, Note_on_c, 0, 58, 97
2, 298167, Note_on_c, 0, 75, 0
2, 298168, Note_on_c, 0, 79, 97
2, 298359, Note_on_c, 0, 79, 0
2, 298359, Note_on_c, 0, 58, 0
2, 298360, Note_on_c, 0, 84, 97
2, 298360, Note_on_c, 0, 56, 97
2, 298455, Note_on_c, 0, 84, 0
2, 298456, Note_on_c, 0, 82, 97
2, 298551, Note_on_c, 0, 82, 0
2, 298552, Note_on_c, 0, 80, 97
2, 298552, Note_on_c, 0, 60, 97
2, 298647, Note_on_c, 0, 80, 0
2, 298648, Note_on_c, 0, 79, 97
2, 298743, Note_on_c, 0, 79, 0
2, 298743, Note_on_c, 0, 67, 0
2, 298743, Note_on_c, 0, 56, 0
2, 298744, Note_on_c, 0, 80, 97
2, 298744, Note_on_c, 0, 50, 97
2, 298935, Note_on_c, 0, 80, 0
2, 298935, Note_on_c, 0, 60, 0
2, 298936, Note_on_c, 0, 77, 97
2, 298936, Note_on_c, 0, 59, 97
2, 299126, Note_on_c, 0, 59, 0
2, 299127, Note_on_c, 0, 77, 0
2, 299127, Note_on_c, 0, 50, 0
2, 299128, Note_on_c, 0, 79, 97
2, 299128, Note_on_c, 0, 51, 97
2, 299320, Note_on_c, 0, 74, 97
2, 299320, Note_on_c, 0, 55, 97
2, 299511, Note_on_c, 0, 55, 0
2, 299511, Note_on_c, 0, 74, 0
2, 299512, Note_on_c, 0, 75, 97
2, 299512, Note_on_c, 0, 60, 97
2, 299703, Note_on_c, 0, 75, 0
2, 299703, Note_on_c, 0, 51, 0
2, 299704, Note_on_c, 0, 72, 97
2, 299704, Note_on_c, 0, 53, 97
2, 299895, Note_on_c, 0, 53, 0
2, 299895, Note_on_c, 0, 72, 0
2, 299895, Note_on_c, 0, 60, 0
2, 299896, Note_on_c, 0, 71, 97
2, 299896, Note_on_c, 0, 55, 97
2, 300087, Note_on_c, 0, 79, 0
2, 300088, Note_on_c, 0, 80, 97
2, 300279, Note_on_c, 0, 80, 0
2, 300280, Note_on_c, 0, 79, 97
2, 300280, Note_on_c, 0, 43, 97
2, 300471, Note_on_c, 0, 79, 0
2, 300472, Note_on_c, 0, 77, 97
2, 300663, Note_on_c, 0, 77, 0
2, 300663, Note_on_c, 0, 43, 0
2, 300663, Note_on_c, 0, 71, 0
2, 300664, Note_on_c, 0, 77, 97
2, 300664, Note_on_c, 0, 72, 97
2, 300664, Note_on_c, 0, 48, 97
2, 300727, Note_on_c, 0, 77, 0
2, 300728, Note_on_c, 0, 75, 97
2, 300791, Note_on_c, 0, 75, 0
2, 300792, Note_on_c, 0, 77, 97
2, 300855, Note_on_c, 0, 77, 0
2, 300856, Note_on_c, 0, 75, 97
2, 300919, Note_on_c, 0, 75, 0
2, 300920, Note_on_c, 0, 77, 97
2, 300983, Note_on_c, 0, 77, 0
2, 300984, Note_on_c, 0, 75, 97
2, 301047, Note_on_c, 0, 55, 0
2, 301048, Note_on_c, 0, 51, 97
2, 301144, Note_on_c, 0, 75, 0
2, 301144, Note_on_c, 0, 72, 0
2, 301144, Note_on_c, 0, 74, 97
2, 301207, Note_on_c, 0, 74, 0
2, 301240, Note_on_c, 0, 72, 97
2, 301335, Note_on_c, 0, 72, 0
2, 301336, Note_on_c, 0, 71, 97
2, 301431, Note_on_c, 0, 71, 0
2, 301431, Note_on_c, 0, 51, 0
2, 301432, Note_on_c, 0, 72, 97
2, 301432, Note_on_c, 0, 55, 97
2, 301623, Note_on_c, 0, 72, 0
2, 301624, Note_on_c, 0, 74, 97
2, 301812, Note_on_c, 0, 55, 0
2, 301815, Note_on_c, 0, 74, 0
2, 301815, Note_on_c, 0, 48, 0
2, 301816, Note_on_c, 0, 75, 97
2, 301816, Note_on_c, 0, 60, 97
2, 302007, Note_on_c, 0, 75, 0
2, 302008, Note_on_c, 0, 77, 97
2, 302199, Note_on_c, 0, 77, 0
2, 302199, Note_on_c, 0, 60, 0
2, 302200, Note_on_c, 0, 79, 97
2, 302200, Note_on_c, 0, 58, 97
2, 302295, Note_on_c, 0, 58, 0
2, 302296, Note_on_c, 0, 60, 97
2, 302391, Note_on_c, 0, 60, 0
2, 302391, Note_on_c, 0, 79, 0
2, 302392, Note_on_c, 0, 77, 97
2, 302392, Note_on_c, 0, 58, 97
2, 302487, Note_on_c, 0, 77, 0
2, 302488, Note_on_c, 0, 75, 97
2, 302583, Note_on_c, 0, 75, 0
2, 302583, Note_on_c, 0, 58, 0
2, 302584, Note_on_c, 0, 82, 97
2, 302584, Note_on_c, 0, 56, 97
2, 302871, Note_on_c, 0, 82, 0
2, 302872, Note_on_c, 0, 82, 97
2, 302967, Note_on_c, 0, 82, 0
2, 302967, Note_on_c, 0, 56, 0
2, 302968, Note_on_c, 0, 82, 97
2, 302968, Note_on_c, 0, 55, 97
2, 303016, Note_on_c, 0, 79, 97
2, 303064, Note_on_c, 0, 75, 97
2, 303112, Note_on_c, 0, 70, 97
2, 303352, Note_on_c, 0, 58, 97
2, 303377, Note_on_c, 0, 70, 0
2, 303384, Note_on_c, 0, 75, 0
2, 303396, Note_on_c, 0, 79, 0
2, 303447, Note_on_c, 0, 82, 0
2, 303448, Note_on_c, 0, 80, 97
2, 303543, Note_on_c, 0, 80, 0
2, 303544, Note_on_c, 0, 79, 97
2, 303639, Note_on_c, 0, 79, 0
2, 303640, Note_on_c, 0, 77, 97
2, 303735, Note_on_c, 0, 77, 0
2, 303735, Note_on_c, 0, 58, 0
2, 303736, Note_on_c, 0, 79, 97
2, 303736, Note_on_c, 0, 63, 97
2, 303832, Note_on_c, 0, 77, 97
2, 303927, Note_on_c, 0, 77, 0
2, 303928, Note_on_c, 0, 75, 97
2, 304023, Note_on_c, 0, 75, 0
2, 304024, Note_on_c, 0, 74, 97
2, 304119, Note_on_c, 0, 74, 0
2, 304119, Note_on_c, 0, 55, 0
2, 304120, Note_on_c, 0, 75, 97
2, 304120, Note_on_c, 0, 55, 97
2, 304311, Note_on_c, 0, 75, 0
2, 304312, Note_on_c, 0, 70, 97
2, 304503, Note_on_c, 0, 70, 0
2, 304503, Note_on_c, 0, 55, 0
2, 304504, Note_on_c, 0, 72, 97
2, 304504, Note_on_c, 0, 57, 97
2, 304695, Note_on_c, 0, 79, 0
2, 304696, Note_on_c, 0, 79, 97
2, 304887, Note_on_c, 0, 79, 0
2, 304887, Note_on_c, 0, 57, 0
2, 304887, Note_on_c, 0, 63, 0
2, 304888, Note_on_c, 0, 77, 97
2, 304888, Note_on_c, 0, 57, 97
2, 304888, Note_on_c, 0, 53, 97
2, 305079, Note_on_c, 0, 77, 0
2, 305080, Note_on_c, 0, 75, 97
2, 305271, Note_on_c, 0, 75, 0
2, 305271, Note_on_c, 0, 53, 0
2, 305271, Note_on_c, 0, 57, 0
2, 305272, Note_on_c, 0, 74, 97
2, 305272, Note_on_c, 0, 58, 97
2, 305367, Note_on_c, 0, 72, 0
2, 305368, Note_on_c, 0, 72, 97
2, 305463, Note_on_c, 0, 72, 0
2, 305464, Note_on_c, 0, 70, 97
2, 305559, Note_on_c, 0, 70, 0
2, 305560, Note_on_c, 0, 69, 97
2, 305655, Note_on_c, 0, 69, 0
2, 305656, Note_on_c, 0, 70, 97
2, 305751, Note_on_c, 0, 58, 0
2, 305752, Note_on_c, 0, 41, 97
2, 305847, Note_on_c, 0, 41, 0
2, 305847, Note_on_c, 0, 70, 0
2, 305848, Note_on_c, 0, 65, 97
2, 305848, Note_on_c, 0, 43, 97
2, 305943, Note_on_c, 0, 43, 0
2, 305944, Note_on_c, 0, 45, 97
2, 306039, Note_on_c, 0, 45, 0
2, 306039, Note_on_c, 0, 65, 0
2, 306040, Note_on_c, 0, 62, 97
2, 306040, Note_on_c, 0, 46, 97
2, 306231, Note_on_c, 0, 46, 0
2, 306231, Note_on_c, 0, 62, 0
2, 306232, Note_on_c, 0, 65, 97
2, 306232, Note_on_c, 0, 48, 97
2, 306423, Note_on_c, 0, 48, 0
2, 306423, Note_on_c, 0, 65, 0
2, 306424, Note_on_c, 0, 70, 97
2, 306424, Note_on_c, 0, 50, 97
2, 306615, Note_on_c, 0, 50, 0
2, 306615, Note_on_c, 0, 74, 0
2, 306616, Note_on_c, 0, 74, 97
2, 306616, Note_on_c, 0, 46, 97
2, 306807, Note_on_c, 0, 46, 0
2, 306807, Note_on_c, 0, 70, 0
2, 306808, Note_on_c, 0, 67, 97
2, 306808, Note_on_c, 0, 51, 97
2, 306999, Note_on_c, 0, 74, 0
2, 307000, Note_on_c, 0, 70, 97
2, 307191, Note_on_c, 0, 70, 0
2, 307192, Note_on_c, 0, 72, 97
2, 307383, Note_on_c, 0, 51, 0
2, 307383, Note_on_c, 0, 67, 0
2, 307384, Note_on_c, 0, 69, 97
2, 307384, Note_on_c, 0, 51, 97
2, 307575, Note_on_c, 0, 51, 0
2, 307575, Note_on_c, 0, 69, 0
2, 307576, Note_on_c, 0, 66, 97
2, 307576, Note_on_c, 0, 50, 97
2, 307671, Note_on_c, 0, 72, 0
2, 307672, Note_on_c, 0, 75, 97
2, 307767, Note_on_c, 0, 75, 0
2, 307768, Note_on_c, 0, 74, 97
2, 307863, Note_on_c, 0, 74, 0
2, 307864, Note_on_c, 0, 72, 97
2, 307959, Note_on_c, 0, 72, 0
2, 307960, Note_on_c, 0, 74, 97
2, 307960, Note_on_c, 0, 57, 97
2, 308151, Note_on_c, 0, 74, 0
2, 308152, Note_on_c, 0, 69, 97
2, 308343, Note_on_c, 0, 69, 0
2, 308343, Note_on_c, 0, 57, 0
2, 308343, Note_on_c, 0, 66, 0
2, 308344, Note_on_c, 0, 70, 97
2, 308344, Note_on_c, 0, 67, 97
2, 308344, Note_on_c, 0, 62, 97
2, 308535, Note_on_c, 0, 70, 0
2, 308536, Note_on_c, 0, 74, 97
2, 308724, Note_on_c, 0, 67, 0
2, 308727, Note_on_c, 0, 62, 0
2, 308727, Note_on_c, 0, 74, 0
2, 308728, Note_on_c, 0, 79, 97
2, 308728, Note_on_c, 0, 58, 97
2, 308919, Note_on_c, 0, 79, 0
2, 308920, Note_on_c, 0, 82, 97
2, 309111, Note_on_c, 0, 58, 0
2, 309112, Note_on_c, 0, 73, 97
2, 309112, Note_on_c, 0, 55, 97
2, 309303, Note_on_c, 0, 82, 0
2, 309304, Note_on_c, 0, 82, 97
2, 309495, Note_on_c, 0, 82, 0
2, 309495, Note_on_c, 0, 55, 0
2, 309496, Note_on_c, 0, 81, 97
2, 309496, Note_on_c, 0, 52, 97
2, 309687, Note_on_c, 0, 81, 0
2, 309688, Note_on_c, 0, 79, 97
2, 309876, Note_on_c, 0, 50, 0
2, 309879, Note_on_c, 0, 52, 0
2, 309879, Note_on_c, 0, 73, 0
2, 309879, Note_on_c, 0, 79, 0
2, 309880, Note_on_c, 0, 79, 97
2, 309880, Note_on_c, 0, 74, 97
2, 309880, Note_on_c, 0, 50, 97
2, 309975, Note_on_c, 0, 50, 0
2, 309976, Note_on_c, 0, 62, 97
2, 310000, Note_on_c, 0, 79, 0
2, 310008, Note_on_c, 0, 78, 97
2, 310071, Note_on_c, 0, 78, 0
2, 310071, Note_on_c, 0, 62, 0
2, 310072, Note_on_c, 0, 79, 97
2, 310072, Note_on_c, 0, 60, 97
2, 310135, Note_on_c, 0, 79, 0
2, 310136, Note_on_c, 0, 78, 97
2, 310167, Note_on_c, 0, 60, 0
2, 310168, Note_on_c, 0, 58, 97
2, 310199, Note_on_c, 0, 78, 0
2, 310200, Note_on_c, 0, 79, 97
2, 310263, Note_on_c, 0, 79, 0
2, 310263, Note_on_c, 0, 58, 0
2, 310264, Note_on_c, 0, 78, 97
2, 310264, Note_on_c, 0, 60, 97
2, 310454, Note_on_c, 0, 78, 0
2, 310455, Note_on_c, 0, 60, 0
2, 310456, Note_on_c, 0, 79, 97
2, 310456, Note_on_c, 0, 57, 97
2, 310646, Note_on_c, 0, 57, 0
2, 310646, Note_on_c, 0, 79, 0
2, 310648, Note_on_c, 0, 81, 97
2, 310648, Note_on_c, 0, 54, 97
2, 310840, Note_on_c, 0, 62, 97
2, 311031, Note_on_c, 0, 62, 0
2, 311032, Note_on_c, 0, 57, 97
2, 311223, Note_on_c, 0, 57, 0
2, 311224, Note_on_c, 0, 60, 97
2, 311410, Note_on_c, 0, 74, 0
2, 311415, Note_on_c, 0, 81, 0
2, 311415, Note_on_c, 0, 54, 0
2, 311415, Note_on_c, 0, 60, 0
2, 311416, Note_on_c, 0, 58, 97
2, 311512, Note_on_c, 0, 79, 97
2, 311607, Note_on_c, 0, 79, 0
2, 311608, Note_on_c, 0, 77, 97
2, 311703, Note_on_c, 0, 77, 0
2, 311704, Note_on_c, 0, 75, 97
2, 311799, Note_on_c, 0, 75, 0
2, 311800, Note_on_c, 0, 77, 97
2, 311800, Note_on_c, 0, 55, 97
2, 311991, Note_on_c, 0, 77, 0
2, 311992, Note_on_c, 0, 74, 97
2, 312183, Note_on_c, 0, 74, 0
2, 312183, Note_on_c, 0, 55, 0
2, 312184, Note_on_c, 0, 75, 97
2, 312184, Note_on_c, 0, 48, 97
2, 312279, Note_on_c, 0, 75, 0
2, 312280, Note_on_c, 0, 74, 97
2, 312375, Note_on_c, 0, 74, 0
2, 312375, Note_on_c, 0, 58, 0
2, 312376, Note_on_c, 0, 72, 97
2, 312376, Note_on_c, 0, 57, 97
2, 312471, Note_on_c, 0, 72, 0
2, 312472, Note_on_c, 0, 71, 97
2, 312567, Note_on_c, 0, 71, 0
2, 312567, Note_on_c, 0, 48, 0
2, 312568, Note_on_c, 0, 72, 97
2, 312568, Note_on_c, 0, 51, 97
2, 312759, Note_on_c, 0, 51, 0
2, 312759, Note_on_c, 0, 72, 0
2, 312760, Note_on_c, 0, 78, 97
2, 312760, Note_on_c, 0, 50, 97
2, 312951, Note_on_c, 0, 50, 0
2, 312951, Note_on_c, 0, 78, 0
2, 312951, Note_on_c, 0, 57, 0
2, 312952, Note_on_c, 0, 79, 97
2, 312952, Note_on_c, 0, 48, 97
2, 313143, Note_on_c, 0, 48, 0
2, 313143, Note_on_c, 0, 79, 0
2, 313144, Note_on_c, 0, 67, 97
2, 313144, Note_on_c, 0, 46, 97
2, 313335, Note_on_c, 0, 46, 0
2, 313335, Note_on_c, 0, 67, 0
2, 313336, Note_on_c, 0, 72, 97
2, 313336, Note_on_c, 0, 51, 97
2, 313431, Note_on_c, 0, 72, 0
2, 313432, Note_on_c, 0, 70, 97
2, 313527, Note_on_c, 0, 70, 0
2, 313527, Note_on_c, 0, 51, 0
2, 313528, Note_on_c, 0, 69, 97
2, 313528, Note_on_c, 0, 48, 97
2, 313719, Note_on_c, 0, 48, 0
2, 313719, Note_on_c, 0, 69, 0
2, 313720, Note_on_c, 0, 70, 97
2, 313720, Note_on_c, 0, 50, 97
2, 313720, Note_on_c, 0, 66, 97
2, 313783, Note_on_c, 0, 70, 0
2, 313784, Note_on_c, 0, 69, 97
2, 313847, Note_on_c, 0, 69, 0
2, 313848, Note_on_c, 0, 70, 97
2, 313911, Note_on_c, 0, 70, 0
2, 313912, Note_on_c, 0, 69, 97
2, 313975, Note_on_c, 0, 69, 0
2, 313976, Note_on_c, 0, 70, 97
2, 314039, Note_on_c, 0, 70, 0
2, 314040, Note_on_c, 0, 69, 97
2, 314104, Note_on_c, 0, 38, 97
2, 314294, Note_on_c, 0, 66, 0
2, 314295, Note_on_c, 0, 69, 0
2, 314296, Note_on_c, 0, 67, 97
2, 314487, Note_on_c, 0, 67, 0
2, 314487, Note_on_c, 0, 50, 0
2, 314487, Note_on_c, 0, 38, 0
2, 314488, Note_on_c, 0, 67, 97
2, 314488, Note_on_c, 0, 43, 97
2, 314872, Note_on_c, 0, 50, 97
2, 314968, Note_on_c, 0, 65, 97
2, 315063, Note_on_c, 0, 65, 0
2, 315064, Note_on_c, 0, 63, 97
2, 315159, Note_on_c, 0, 63, 0
2, 315160, Note_on_c, 0, 62, 97
2, 315255, Note_on_c, 0, 62, 0
2, 315255, Note_on_c, 0, 50, 0
2, 315256, Note_on_c, 0, 63, 97
2, 315256, Note_on_c, 0, 54, 97
2, 315447, Note_on_c, 0, 63, 0
2, 315448, Note_on_c, 0, 60, 97
2, 315639, Note_on_c, 0, 60, 0
2, 315639, Note_on_c, 0, 54, 0
2, 315639, Note_on_c, 0, 67, 0
2, 315640, Note_on_c, 0, 67, 97
2, 315640, Note_on_c, 0, 59, 97
2, 315640, Note_on_c, 0, 62, 97
2, 315640, Note_on_c, 0, 55, 97
2, 316599, Note_on_c, 0, 67, 0
2, 316600, Note_on_c, 0, 74, 97
2, 316688, Note_on_c, 0, 43, 0
2, 316690, Note_on_c, 0, 55, 0
2, 316690, Note_on_c, 0, 62, 0
2, 316690, Note_on_c, 0, 59, 0
2, 316791, Note_on_c, 0, 74, 0
2, 316792, Note_on_c, 0, 74, 97
2, 316792, Note_on_c, 0, 71, 97
2, 316792, Note_on_c, 0, 67, 97
2, 317176, Note_on_c, 0, 55, 97
2, 317271, Note_on_c, 0, 74, 0
2, 317272, Note_on_c, 0, 79, 97
2, 317367, Note_on_c, 0, 79, 0
2, 317367, Note_on_c, 0, 67, 0
2, 317368, Note_on_c, 0, 77, 97
2, 317368, Note_on_c, 0, 57, 97
2, 317463, Note_on_c, 0, 77, 0
2, 317464, Note_on_c, 0, 75, 97
2, 317559, Note_on_c, 0, 75, 0
2, 317559, Note_on_c, 0, 57, 0
2, 317559, Note_on_c, 0, 71, 0
2, 317560, Note_on_c, 0, 74, 97
2, 317560, Note_on_c, 0, 59, 97
2, 317751, Note_on_c, 0, 59, 0
2, 317751, Note_on_c, 0, 74, 0
2, 317752, Note_on_c, 0, 72, 97
2, 317752, Note_on_c, 0, 60, 97
2, 317943, Note_on_c, 0, 60, 0
2, 317943, Note_on_c, 0, 72, 0
2, 317944, Note_on_c, 0, 71, 97
2, 317944, Note_on_c, 0, 62, 97
2, 318135, Note_on_c, 0, 62, 0
2, 318135, Note_on_c, 0, 71, 0
2, 318136, Note_on_c, 0, 72, 97
2, 318136, Note_on_c, 0, 63, 97
2, 318231, Note_on_c, 0, 72, 0
2, 318232, Note_on_c, 0, 74, 97
2, 318327, Note_on_c, 0, 74, 0
2, 318327, Note_on_c, 0, 63, 0
2, 318328, Note_on_c, 0, 68, 97
2, 318328, Note_on_c, 0, 65, 97
2, 318383, Note_on_c, 0, 67, 97
2, 318388, Note_on_c, 0, 68, 0
2, 318438, Note_on_c, 0, 68, 97
2, 318443, Note_on_c, 0, 67, 0
2, 318493, Note_on_c, 0, 67, 97
2, 318498, Note_on_c, 0, 68, 0
2, 318518, Note_on_c, 0, 65, 0
2, 318520, Note_on_c, 0, 62, 97
2, 318711, Note_on_c, 0, 62, 0
2, 318712, Note_on_c, 0, 63, 97
2, 318893, Note_on_c, 0, 67, 0
2, 318903, Note_on_c, 0, 63, 0
2, 318904, Note_on_c, 0, 67, 97
2, 318904, Note_on_c, 0, 65, 97
2, 319095, Note_on_c, 0, 65, 0
2, 319095, Note_on_c, 0, 67, 0
2, 319095, Note_on_c, 0, 55, 0
2, 319096, Note_on_c, 0, 67, 97
2, 319096, Note_on_c, 0, 77, 97
2, 319096, Note_on_c, 0, 74, 97
2, 319096, Note_on_c, 0, 60, 97
2, 319096, Note_on_c, 0, 55, 97
2, 319181, Note_on_c, 0, 59, 97
2, 319191, Note_on_c, 0, 60, 0
2, 319266, Note_on_c, 0, 60, 97
2, 319276, Note_on_c, 0, 59, 0
2, 319351, Note_on_c, 0, 59, 97
2, 319361, Note_on_c, 0, 60, 0
2, 319546, Note_on_c, 0, 67, 0
2, 319575, Note_on_c, 0, 55, 0
2, 319576, Note_on_c, 0, 67, 97
2, 319631, Note_on_c, 0, 59, 0
2, 319671, Note_on_c, 0, 67, 0
2, 319672, Note_on_c, 0, 65, 97
2, 319767, Note_on_c, 0, 65, 0
2, 319768, Note_on_c, 0, 63, 97
2, 319863, Note_on_c, 0, 63, 0
2, 319863, Note_on_c, 0, 74, 0
2, 319864, Note_on_c, 0, 62, 97
2, 320055, Note_on_c, 0, 62, 0
2, 320055, Note_on_c, 0, 77, 0
2, 320056, Note_on_c, 0, 80, 97
2, 320056, Note_on_c, 0, 60, 97
2, 320247, Note_on_c, 0, 60, 0
2, 320247, Note_on_c, 0, 80, 0
2, 320248, Note_on_c, 0, 79, 97
2, 320248, Note_on_c, 0, 59, 97
2, 320439, Note_on_c, 0, 59, 0
2, 320439, Note_on_c, 0, 79, 0
2, 320440, Note_on_c, 0, 77, 97
2, 320440, Note_on_c, 0, 60, 97
2, 320535, Note_on_c, 0, 60, 0
2, 320536, Note_on_c, 0, 62, 97
2, 320631, Note_on_c, 0, 62, 0
2, 320631, Note_on_c, 0, 77, 0
2, 320632, Note_on_c, 0, 75, 97
2, 320632, Note_on_c, 0, 56, 97
2, 320727, Note_on_c, 0, 56, 0
2, 320728, Note_on_c, 0, 55, 97
2, 320775, Note_on_c, 0, 55, 0
2, 320776, Note_on_c, 0, 56, 97
2, 320823, Note_on_c, 0, 56, 0
2, 320823, Note_on_c, 0, 75, 0
2, 320824, Note_on_c, 0, 74, 97
2, 320824, Note_on_c, 0, 55, 97
2, 321015, Note_on_c, 0, 74, 0
2, 321016, Note_on_c, 0, 72, 97
2, 321207, Note_on_c, 0, 72, 0
2, 321207, Note_on_c, 0, 55, 0
2, 321208, Note_on_c, 0, 71, 97
2, 321208, Note_on_c, 0, 55, 97
2, 321398, Note_on_c, 0, 71, 0
2, 321399, Note_on_c, 0, 55, 0
2, 321400, Note_on_c, 0, 72, 97
2, 321400, Note_on_c, 0, 56, 97
2, 321496, Note_on_c, 0, 75, 97
2, 321591, Note_on_c, 0, 75, 0
2, 321592, Note_on_c, 0, 77, 97
2, 321687, Note_on_c, 0, 77, 0
2, 321688, Note_on_c, 0, 79, 97
2, 321783, Note_on_c, 0, 79, 0
2, 321783, Note_on_c, 0, 56, 0
2, 321784, Note_on_c, 0, 80, 97
2, 321784, Note_on_c, 0, 50, 97
2, 321975, Note_on_c, 0, 72, 0
2, 321976, Note_on_c, 0, 77, 97
2, 322167, Note_on_c, 0, 50, 0
2, 322167, Note_on_c, 0, 80, 0
2, 322168, Note_on_c, 0, 79, 97
2, 322168, Note_on_c, 0, 51, 97
2, 322359, Note_on_c, 0, 77, 0
2, 322360, Note_on_c, 0, 77, 97
2, 322455, Note_on_c, 0, 77, 0
2, 322456, Note_on_c, 0, 75, 97
2, 322551, Note_on_c, 0, 75, 0
2, 322551, Note_on_c, 0, 51, 0
2, 322552, Note_on_c, 0, 74, 97
2, 322552, Note_on_c, 0, 53, 97
2, 322647, Note_on_c, 0, 74, 0
2, 322648, Note_on_c, 0, 75, 97
2, 322743, Note_on_c, 0, 75, 0
2, 322744, Note_on_c, 0, 77, 97
2, 322935, Note_on_c, 0, 77, 0
2, 322935, Note_on_c, 0, 53, 0
2, 322935, Note_on_c, 0, 79, 0
2, 322936, Note_on_c, 0, 71, 97
2, 322936, Note_on_c, 0, 55, 97
2, 323128, Note_on_c, 0, 74, 97
2, 323319, Note_on_c, 0, 74, 0
2, 323320, Note_on_c, 0, 77, 97
2, 323320, Note_on_c, 0, 43, 97
2, 323511, Note_on_c, 0, 77, 0
2, 323512, Note_on_c, 0, 79, 97
2, 323703, Note_on_c, 0, 79, 0
2, 323703, Note_on_c, 0, 43, 0
2, 323703, Note_on_c, 0, 55, 0
2, 323703, Note_on_c, 0, 71, 0
2, 323704, Note_on_c, 0, 77, 97
2, 323704, Note_on_c, 0, 72, 97
2, 323704, Note_on_c, 0, 55, 97
2, 323704, Note_on_c, 0, 48, 97
2, 323895, Note_on_c, 0, 77, 0
2, 323896, Note_on_c, 0, 75, 97
2, 324084, Note_on_c, 0, 55, 0
2, 324087, Note_on_c, 0, 75, 0
2, 324088, Note_on_c, 0, 74, 97
2, 324183, Note_on_c, 0, 48, 0
2, 324184, Note_on_c, 0, 43, 97
2, 324274, Note_on_c, 0, 72, 0
2, 324279, Note_on_c, 0, 43, 0
2, 324279, Note_on_c, 0, 74, 0
2, 324280, Note_on_c, 0, 72, 97
2, 324280, Note_on_c, 0, 45, 97
2, 324375, Note_on_c, 0, 45, 0
2, 324376, Note_on_c, 0, 47, 97
2, 324471, Note_on_c, 0, 47, 0
2, 324471, Note_on_c, 0, 72, 0
2, 324472, Note_on_c, 0, 75, 97
2, 324472, Note_on_c, 0, 48, 97
2, 324535, Note_on_c, 0, 75, 0
2, 324536, Note_on_c, 0, 74, 97
2, 324599, Note_on_c, 0, 74, 0
2, 324600, Note_on_c, 0, 75, 97
2, 324663, Note_on_c, 0, 48, 0
2, 324664, Note_on_c, 0, 50, 97
2, 324855, Note_on_c, 0, 50, 0
2, 324856, Note_on_c, 0, 51, 97
2, 325040, Note_on_c, 0, 75, 0
2, 325047, Note_on_c, 0, 51, 0
2, 325048, Note_on_c, 0, 75, 97
2, 325048, Note_on_c, 0, 48, 97
2, 325239, Note_on_c, 0, 48, 0
2, 325239, Note_on_c, 0, 75, 0
2, 325240, Note_on_c, 0, 67, 97
2, 325240, Note_on_c, 0, 58, 97
2, 325432, Note_on_c, 0, 60, 97
2, 325623, Note_on_c, 0, 60, 0
2, 325624, Note_on_c, 0, 61, 97
2, 325815, Note_on_c, 0, 58, 0
2, 325815, Note_on_c, 0, 67, 0
2, 325816, Note_on_c, 0, 68, 97
2, 325816, Note_on_c, 0, 56, 97
2, 326007, Note_on_c, 0, 56, 0
2, 326007, Note_on_c, 0, 68, 0
2, 326008, Note_on_c, 0, 70, 97
2, 326008, Note_on_c, 0, 55, 97
2, 326103, Note_on_c, 0, 61, 0
2, 326104, Note_on_c, 0, 61, 97
2, 326199, Note_on_c, 0, 61, 0
2, 326200, Note_on_c, 0, 60, 97
2, 326295, Note_on_c, 0, 60, 0
2, 326296, Note_on_c, 0, 58, 97
2, 326391, Note_on_c, 0, 58, 0
2, 326392, Note_on_c, 0, 64, 97
2, 326583, Note_on_c, 0, 64, 0
2, 326583, Note_on_c, 0, 55, 0
2, 326584, Note_on_c, 0, 65, 97
2, 326584, Note_on_c, 0, 53, 97
2, 326775, Note_on_c, 0, 53, 0
2, 326775, Note_on_c, 0, 65, 0
2, 326776, Note_on_c, 0, 67, 97
2, 326776, Note_on_c, 0, 52, 97
2, 326871, Note_on_c, 0, 70, 0
2, 326872, Note_on_c, 0, 73, 97
2, 326967, Note_on_c, 0, 73, 0
2, 326967, Note_on_c, 0, 52, 0
2, 326968, Note_on_c, 0, 72, 97
2, 326968, Note_on_c, 0, 53, 97
2, 327063, Note_on_c, 0, 72, 0
2, 327064, Note_on_c, 0, 70, 97
2, 327159, Note_on_c, 0, 70, 0
2, 327159, Note_on_c, 0, 53, 0
2, 327160, Note_on_c, 0, 76, 97
2, 327160, Note_on_c, 0, 55, 97
2, 327351, Note_on_c, 0, 55, 0
2, 327351, Note_on_c, 0, 76, 0
2, 327352, Note_on_c, 0, 77, 97
2, 327352, Note_on_c, 0, 56, 97
2, 327543, Note_on_c, 0, 56, 0
2, 327543, Note_on_c, 0, 77, 0
2, 327543, Note_on_c, 0, 67, 0
2, 327544, Note_on_c, 0, 79, 97
2, 327544, Note_on_c, 0, 58, 97
2, 327735, Note_on_c, 0, 58, 0
2, 327736, Note_on_c, 0, 70, 97
2, 327736, Note_on_c, 0, 61, 97
2, 327927, Note_on_c, 0, 61, 0
2, 327927, Note_on_c, 0, 70, 0
2, 327928, Note_on_c, 0, 76, 97
2, 327928, Note_on_c, 0, 60, 97
2, 328119, Note_on_c, 0, 60, 0
2, 328119, Note_on_c, 0, 79, 0
2, 328120, Note_on_c, 0, 79, 97
2, 328120, Note_on_c, 0, 58, 97
2, 328311, Note_on_c, 0, 58, 0
2, 328311, Note_on_c, 0, 76, 0
2, 328312, Note_on_c, 0, 72, 97
2, 328312, Note_on_c, 0, 56, 97
2, 328407, Note_on_c, 0, 79, 0
2, 328408, Note_on_c, 0, 79, 97
2, 328503, Note_on_c, 0, 79, 0
2, 328503, Note_on_c, 0, 56, 0
2, 328504, Note_on_c, 0, 77, 97
2, 328504, Note_on_c, 0, 60, 97
2, 328599, Note_on_c, 0, 77, 0
2, 328600, Note_on_c, 0, 76, 97
2, 328695, Note_on_c, 0, 76, 0
2, 328695, Note_on_c, 0, 60, 0
2, 328696, Note_on_c, 0, 77, 97
2, 328696, Note_on_c, 0, 56, 97
2, 328791, Note_on_c, 0, 77, 0
2, 328792, Note_on_c, 0, 79, 97
2, 328887, Note_on_c, 0, 79, 0
2, 328887, Note_on_c, 0, 56, 0
2, 328888, Note_on_c, 0, 80, 97
2, 328888, Note_on_c, 0, 53, 97
2, 328983, Note_on_c, 0, 80, 0
2, 328984, Note_on_c, 0, 77, 97
2, 329079, Note_on_c, 0, 77, 0
2, 329079, Note_on_c, 0, 53, 0
2, 329079, Note_on_c, 0, 72, 0
2, 329080, Note_on_c, 0, 82, 97
2, 329080, Note_on_c, 0, 49, 97
2, 329272, Note_on_c, 0, 76, 97
2, 329463, Note_on_c, 0, 76, 0
2, 329463, Note_on_c, 0, 49, 0
2, 329464, Note_on_c, 0, 77, 97
2, 329464, Note_on_c, 0, 46, 97
2, 329655, Note_on_c, 0, 82, 0
2, 329656, Note_on_c, 0, 80, 97
2, 329847, Note_on_c, 0, 80, 0
2, 329847, Note_on_c, 0, 46, 0
2, 329848, Note_on_c, 0, 79, 97
2, 329848, Note_on_c, 0, 48, 97
2, 330039, Note_on_c, 0, 77, 0
2, 330040, Note_on_c, 0, 77, 97
2, 330231, Note_on_c, 0, 77, 0
2, 330231, Note_on_c, 0, 48, 0
2, 330232, Note_on_c, 0, 76, 97
2, 330232, Note_on_c, 0, 36, 97
2, 330423, Note_on_c, 0, 79, 0
2, 330424, Note_on_c, 0, 84, 97
2, 330615, Note_on_c, 0, 84, 0
2, 330615, Note_on_c, 0, 36, 0
2, 330615, Note_on_c, 0, 76, 0
2, 330616, Note_on_c, 0, 82, 97
2, 330616, Note_on_c, 0, 77, 97
2, 330616, Note_on_c, 0, 41, 97
2, 330804, Note_on_c, 0, 80, 97
2, 330807, Note_on_c, 0, 82, 0
2, 330992, Note_on_c, 0, 79, 97
2, 330995, Note_on_c, 0, 80, 0
2, 330996, Note_on_c, 0, 77, 0
2, 331180, Note_on_c, 0, 77, 97
2, 331183, Note_on_c, 0, 79, 0
2, 331340, Note_on_c, 0, 77, 0
2, 331384, Note_on_c, 0, 75, 97
2, 331479, Note_on_c, 0, 41, 0
2, 331480, Note_on_c, 0, 58, 97
2, 331575, Note_on_c, 0, 58, 0
2, 331576, Note_on_c, 0, 56, 97
2, 331671, Note_on_c, 0, 56, 0
2, 331672, Note_on_c, 0, 55, 97
2, 331767, Note_on_c, 0, 55, 0
2, 331767, Note_on_c, 0, 75, 0
2, 331768, Note_on_c, 0, 75, 97
2, 331768, Note_on_c, 0, 53, 97
2, 331831, Note_on_c, 0, 75, 0
2, 331832, Note_on_c, 0, 74, 97
2, 331895, Note_on_c, 0, 74, 0
2, 331896, Note_on_c, 0, 75, 97
2, 331959, Note_on_c, 0, 75, 0
2, 331959, Note_on_c, 0, 53, 0
2, 331960, Note_on_c, 0, 74, 97
2, 331960, Note_on_c, 0, 51, 97
2, 332055, Note_on_c, 0, 74, 0
2, 332056, Note_on_c, 0, 75, 97
2, 332151, Note_on_c, 0, 75, 0
2, 332151, Note_on_c, 0, 51, 0
2, 332152, Note_on_c, 0, 77, 97
2, 332152, Note_on_c, 0, 50, 97
2, 332248, Note_on_c, 0, 70, 97
2, 332343, Note_on_c, 0, 70, 0
2, 332344, Note_on_c, 0, 68, 97
2, 332439, Note_on_c, 0, 68, 0
2, 332440, Note_on_c, 0, 67, 97
2, 332535, Note_on_c, 0, 67, 0
2, 332535, Note_on_c, 0, 50, 0
2, 332536, Note_on_c, 0, 68, 97
2, 332536, Note_on_c, 0, 46, 97
2, 332727, Note_on_c, 0, 68, 0
2, 332728, Note_on_c, 0, 65, 97
2, 332919, Note_on_c, 0, 65, 0
2, 332919, Note_on_c, 0, 46, 0
2, 332920, Note_on_c, 0, 67, 97
2, 332920, Note_on_c, 0, 51, 97
2, 333015, Note_on_c, 0, 77, 0
2, 333016, Note_on_c, 0, 70, 97
2, 333111, Note_on_c, 0, 70, 0
2, 333112, Note_on_c, 0, 72, 97
2, 333207, Note_on_c, 0, 72, 0
2, 333208, Note_on_c, 0, 74, 97
2, 333303, Note_on_c, 0, 74, 0
2, 333304, Note_on_c, 0, 75, 97
2, 333400, Note_on_c, 0, 51, 0
2, 333400, Note_on_c, 0, 43, 97
2, 333495, Note_on_c, 0, 43, 0
2, 333496, Note_on_c, 0, 45, 97
2, 333591, Note_on_c, 0, 45, 0
2, 333592, Note_on_c, 0, 47, 97
2, 333687, Note_on_c, 0, 47, 0
2, 333688, Note_on_c, 0, 48, 97
2, 333783, Note_on_c, 0, 75, 0
2, 333784, Note_on_c, 0, 74, 97
2, 333879, Note_on_c, 0, 74, 0
2, 333879, Note_on_c, 0, 48, 0
2, 333880, Note_on_c, 0, 75, 97
2, 333880, Note_on_c, 0, 50, 97
2, 333975, Note_on_c, 0, 75, 0
2, 333976, Note_on_c, 0, 77, 97
2, 334071, Note_on_c, 0, 77, 0
2, 334071, Note_on_c, 0, 50, 0
2, 334072, Note_on_c, 0, 79, 97
2, 334072, Note_on_c, 0, 51, 97
2, 334167, Note_on_c, 0, 67, 0
2, 334168, Note_on_c, 0, 77, 97
2, 334263, Note_on_c, 0, 77, 0
2, 334263, Note_on_c, 0, 51, 0
2, 334264, Note_on_c, 0, 75, 97
2, 334264, Note_on_c, 0, 48, 97
2, 334359, Note_on_c, 0, 75, 0
2, 334360, Note_on_c, 0, 74, 97
2, 334455, Note_on_c, 0, 74, 0
2, 334455, Note_on_c, 0, 48, 0
2, 334456, Note_on_c, 0, 75, 97
2, 334456, Note_on_c, 0, 56, 97
2, 334647, Note_on_c, 0, 75, 0
2, 334648, Note_on_c, 0, 72, 97
2, 334839, Note_on_c, 0, 79, 0
2, 334840, Note_on_c, 0, 77, 97
2, 335031, Note_on_c, 0, 72, 0
2, 335031, Note_on_c, 0, 56, 0
2, 335032, Note_on_c, 0, 74, 97
2, 335032, Note_on_c, 0, 56, 97
2, 335223, Note_on_c, 0, 56, 0
2, 335223, Note_on_c, 0, 74, 0
2, 335224, Note_on_c, 0, 71, 97
2, 335224, Note_on_c, 0, 55, 97
2, 335319, Note_on_c, 0, 77, 0
2, 335320, Note_on_c, 0, 80, 97
2, 335415, Note_on_c, 0, 80, 0
2, 335416, Note_on_c, 0, 79, 97
2, 335511, Note_on_c, 0, 79, 0
2, 335512, Note_on_c, 0, 77, 97
2, 335607, Note_on_c, 0, 77, 0
2, 335608, Note_on_c, 0, 79, 97
2, 335608, Note_on_c, 0, 62, 97
2, 335799, Note_on_c, 0, 79, 0
2, 335800, Note_on_c, 0, 74, 97
2, 335991, Note_on_c, 0, 74, 0
2, 335991, Note_on_c, 0, 62, 0
2, 335991, Note_on_c, 0, 71, 0
2, 335992, Note_on_c, 0, 75, 97
2, 335992, Note_on_c, 0, 72, 97
2, 335992, Note_on_c, 0, 67, 97
2, 336183, Note_on_c, 0, 75, 0
2, 336184, Note_on_c, 0, 77, 97
2, 336279, Note_on_c, 0, 77, 0
2, 336280, Note_on_c, 0, 79, 97
2, 336375, Note_on_c, 0, 79, 0
2, 336375, Note_on_c, 0, 67, 0
2, 336375, Note_on_c, 0, 72, 0
2, 336376, Note_on_c, 0, 72, 97
2, 336376, Note_on_c, 0, 69, 97
2, 336376, Note_on_c, 0, 63, 97
2, 336567, Note_on_c, 0, 72, 0
2, 336568, Note_on_c, 0, 75, 97
2, 336759, Note_on_c, 0, 63, 0
2, 336759, Note_on_c, 0, 69, 0
2, 336760, Note_on_c, 0, 66, 97
2, 336760, Note_on_c, 0, 60, 97
2, 336951, Note_on_c, 0, 75, 0
2, 336952, Note_on_c, 0, 75, 97
2, 337143, Note_on_c, 0, 75, 0
2, 337143, Note_on_c, 0, 60, 0
2, 337144, Note_on_c, 0, 74, 97
2, 337144, Note_on_c, 0, 57, 97
2, 337335, Note_on_c, 0, 74, 0
2, 337336, Note_on_c, 0, 72, 97
2, 337527, Note_on_c, 0, 72, 0
2, 337527, Note_on_c, 0, 57, 0
2, 337527, Note_on_c, 0, 66, 0
2, 337528, Note_on_c, 0, 72, 97
2, 337528, Note_on_c, 0, 67, 97
2, 337528, Note_on_c, 0, 62, 97
2, 337623, Note_on_c, 0, 72, 0
2, 337623, Note_on_c, 0, 55, 0
2, 337624, Note_on_c, 0, 71, 97
2, 337624, Note_on_c, 0, 55, 97
2, 337671, Note_on_c, 0, 71, 0
2, 337672, Note_on_c, 0, 72, 97
2, 337719, Note_on_c, 0, 72, 0
2, 337719, Note_on_c, 0, 55, 0
2, 337720, Note_on_c, 0, 71, 97
2, 337720, Note_on_c, 0, 53, 97
2, 337767, Note_on_c, 0, 71, 0
2, 337768, Note_on_c, 0, 72, 97
2, 337815, Note_on_c, 0, 72, 0
2, 337815, Note_on_c, 0, 53, 0
2, 337816, Note_on_c, 0, 71, 97
2, 337816, Note_on_c, 0, 51, 97
2, 337911, Note_on_c, 0, 51, 0
2, 337912, Note_on_c, 0, 53, 97
2, 338103, Note_on_c, 0, 53, 0
2, 338103, Note_on_c, 0, 71, 0
2, 338104, Note_on_c, 0, 72, 97
2, 338104, Note_on_c, 0, 50, 97
2, 338295, Note_on_c, 0, 50, 0
2, 338295, Note_on_c, 0, 62, 0
2, 338295, Note_on_c, 0, 67, 0
2, 338295, Note_on_c, 0, 72, 0
2, 338296, Note_on_c, 0, 74, 97
2, 338296, Note_on_c, 0, 47, 97
2, 338488, Note_on_c, 0, 67, 97
2, 338679, Note_on_c, 0, 67, 0
2, 338680, Note_on_c, 0, 62, 97
2, 338680, Note_on_c, 0, 55, 97
2, 338871, Note_on_c, 0, 62, 0
2, 338872, Note_on_c, 0, 65, 97
2, 339063, Note_on_c, 0, 65, 0
2, 339063, Note_on_c, 0, 47, 0
2, 339064, Note_on_c, 0, 63, 97
2, 339064, Note_on_c, 0, 48, 97
2, 339159, Note_on_c, 0, 74, 0
2, 339160, Note_on_c, 0, 72, 97
2, 339255, Note_on_c, 0, 72, 0
2, 339256, Note_on_c, 0, 70, 97
2, 339351, Note_on_c, 0, 70, 0
2, 339352, Note_on_c, 0, 68, 97
2, 339447, Note_on_c, 0, 68, 0
2, 339447, Note_on_c, 0, 55, 0
2, 339448, Note_on_c, 0, 70, 97
2, 339448, Note_on_c, 0, 60, 97
2, 339639, Note_on_c, 0, 70, 0
2, 339640, Note_on_c, 0, 67, 97
2, 339831, Note_on_c, 0, 67, 0
2, 339831, Note_on_c, 0, 48, 0
2, 339832, Note_on_c, 0, 68, 97
2, 339832, Note_on_c, 0, 53, 97
2, 339927, Note_on_c, 0, 68, 0
2, 339928, Note_on_c, 0, 67, 97
2, 340023, Note_on_c, 0, 67, 0
2, 340023, Note_on_c, 0, 63, 0
2, 340024, Note_on_c, 0, 65, 97
2, 340024, Note_on_c, 0, 56, 97
2, 340119, Note_on_c, 0, 65, 0
2, 340120, Note_on_c, 0, 64, 97
2, 340215, Note_on_c, 0, 64, 0
2, 340215, Note_on_c, 0, 56, 0
2, 340215, Note_on_c, 0, 60, 0
2, 340216, Note_on_c, 0, 65, 97
2, 340216, Note_on_c, 0, 62, 97
2, 340216, Note_on_c, 0, 56, 97
2, 340407, Note_on_c, 0, 65, 0
2, 340407, Note_on_c, 0, 53, 0
2, 340408, Note_on_c, 0, 71, 97
2, 340408, Note_on_c, 0, 50, 97
2, 340596, Note_on_c, 0, 62, 0
2, 340599, Note_on_c, 0, 56, 0
2, 340599, Note_on_c, 0, 71, 0
2, 340599, Note_on_c, 0, 50, 0
2, 340600, Note_on_c, 0, 72, 97
2, 340600, Note_on_c, 0, 55, 97
2, 340600, Note_on_c, 0, 51, 97
2, 340791, Note_on_c, 0, 72, 0
2, 340792, Note_on_c, 0, 67, 97
2, 340792, Note_on_c, 0, 60, 97
2, 340983, Note_on_c, 0, 67, 0
2, 340983, Note_on_c, 0, 55, 0
2, 340983, Note_on_c, 0, 51, 0
2, 340984, Note_on_c, 0, 77, 97
2, 340984, Note_on_c, 0, 56, 97
2, 341079, Note_on_c, 0, 77, 0
2, 341080, Note_on_c, 0, 75, 97
2, 341175, Note_on_c, 0, 75, 0
2, 341176, Note_on_c, 0, 74, 97
2, 341176, Note_on_c, 0, 53, 97
2, 341367, Note_on_c, 0, 53, 0
2, 341367, Note_on_c, 0, 60, 0
2, 341367, Note_on_c, 0, 56, 0
2, 341367, Note_on_c, 0, 74, 0
2, 341368, Note_on_c, 0, 75, 97
2, 341368, Note_on_c, 0, 71, 97
2, 341368, Note_on_c, 0, 55, 97
2, 341432, Note_on_c, 0, 74, 97
2, 341433, Note_on_c, 0, 75, 0
2, 341496, Note_on_c, 0, 75, 97
2, 341497, Note_on_c, 0, 74, 0
2, 341560, Note_on_c, 0, 74, 97
2, 341561, Note_on_c, 0, 75, 0
2, 341752, Note_on_c, 0, 43, 97
2, 341940, Note_on_c, 0, 74, 0
2, 341944, Note_on_c, 0, 72, 97
2, 342135, Note_on_c, 0, 72, 0
2, 342135, Note_on_c, 0, 43, 0
2, 342135, Note_on_c, 0, 55, 0
2, 342135, Note_on_c, 0, 71, 0
2, 342136, Note_on_c, 0, 72, 97
2, 342136, Note_on_c, 0, 36, 97
2, 342520, Note_on_c, 0, 43, 97
2, 342616, Note_on_c, 0, 70, 97
2, 342711, Note_on_c, 0, 70, 0
2, 342712, Note_on_c, 0, 68, 97
2, 342807, Note_on_c, 0, 68, 0
2, 342808, Note_on_c, 0, 67, 97
2, 342903, Note_on_c, 0, 67, 0
2, 342904, Note_on_c, 0, 68, 97
2, 342904, Note_on_c, 0, 47, 97
2, 343095, Note_on_c, 0, 68, 0
2, 343096, Note_on_c, 0, 65, 97
2, 343287, Note_on_c, 0, 65, 0
2, 343287, Note_on_c, 0, 47, 0
2, 343287, Note_on_c, 0, 72, 0
2, 343288, Note_on_c, 0, 72, 97
2, 343288, Note_on_c, 0, 67, 97
2, 343288, Note_on_c, 0, 63, 97
2, 343288, Note_on_c, 0, 48, 97
2, 345010, Note_on_c, 0, 43, 0
2, 345016, Note_on_c, 0, 36, 0
2, 345018, Note_on_c, 0, 63, 0
2, 345018, Note_on_c, 0, 67, 0
2, 345018, Note_on_c, 0, 48, 0
2, 345018, Note_on_c, 0, 72, 0
2, 347512, Note_on_c, 0, 67, 97
2, 347512, Note_on_c, 0, 48, 97
2, 347704, Note_on_c, 0, 72, 97
2, 347892, Note_on_c, 0, 67, 0
2, 347895, Note_on_c, 0, 72, 0
2, 347895, Note_on_c, 0, 48, 0
2, 347896, Note_on_c, 0, 74, 97
2, 347896, Note_on_c, 0, 60, 97
2, 348087, Note_on_c, 0, 74, 0
2, 348088, Note_on_c, 0, 75, 97
2, 348279, Note_on_c, 0, 75, 0
2, 348280, Note_on_c, 0, 65, 97
2, 348471, Note_on_c, 0, 60, 0
2, 348472, Note_on_c, 0, 75, 97
2, 348472, Note_on_c, 0, 58, 97
2, 348660, Note_on_c, 0, 65, 0
2, 348663, Note_on_c, 0, 58, 0
2, 348663, Note_on_c, 0, 75, 0
2, 348664, Note_on_c, 0, 74, 97
2, 348664, Note_on_c, 0, 56, 97
2, 348855, Note_on_c, 0, 56, 0
2, 348856, Note_on_c, 0, 55, 97
2, 349047, Note_on_c, 0, 55, 0
2, 349048, Note_on_c, 0, 56, 97
2, 349194, Note_on_c, 0, 74, 0
2, 349240, Note_on_c, 0, 65, 97
2, 349431, Note_on_c, 0, 65, 0
2, 349431, Note_on_c, 0, 56, 0
2, 349432, Note_on_c, 0, 67, 97
2, 349432, Note_on_c, 0, 48, 97
2, 349623, Note_on_c, 0, 67, 0
2, 349624, Note_on_c, 0, 68, 97
2, 349815, Note_on_c, 0, 68, 0
2, 349815, Note_on_c, 0, 48, 0
2, 349816, Note_on_c, 0, 67, 97
2, 349816, Note_on_c, 0, 47, 97
2, 350008, Note_on_c, 0, 74, 97
2, 350196, Note_on_c, 0, 67, 0
2, 350199, Note_on_c, 0, 74, 0
2, 350199, Note_on_c, 0, 47, 0
2, 350200, Note_on_c, 0, 75, 97
2, 350200, Note_on_c, 0, 55, 97
2, 350391, Note_on_c, 0, 75, 0
2, 350392, Note_on_c, 0, 77, 97
2, 350583, Note_on_c, 0, 77, 0
2, 350584, Note_on_c, 0, 75, 97
2, 350775, Note_on_c, 0, 55, 0
2, 350776, Note_on_c, 0, 71, 97
2, 350776, Note_on_c, 0, 53, 97
2, 350964, Note_on_c, 0, 75, 0
2, 350967, Note_on_c, 0, 53, 0
2, 350967, Note_on_c, 0, 71, 0
2, 350968, Note_on_c, 0, 72, 97
2, 350968, Note_on_c, 0, 51, 97
2, 351159, Note_on_c, 0, 51, 0
2, 351160, Note_on_c, 0, 50, 97
2, 351351, Note_on_c, 0, 50, 0
2, 351352, Note_on_c, 0, 51, 97
2, 351498, Note_on_c, 0, 72, 0
2, 351544, Note_on_c, 0, 67, 97
2, 351735, Note_on_c, 0, 67, 0
2, 351735, Note_on_c, 0, 51, 0
2, 351736, Note_on_c, 0, 68, 97
2, 351736, Note_on_c, 0, 43, 97
2, 351927, Note_on_c, 0, 68, 0
2, 351928, Note_on_c, 0, 70, 97
2, 352119, Note_on_c, 0, 70, 0
2, 352119, Note_on_c, 0, 43, 0
2, 352120, Note_on_c, 0, 69, 97
2, 352120, Note_on_c, 0, 36, 97
2, 352312, Note_on_c, 0, 75, 97
2, 352500, Note_on_c, 0, 69, 0
2, 352503, Note_on_c, 0, 75, 0
2, 352504, Note_on_c, 0, 77, 97
2, 352504, Note_on_c, 0, 48, 97
2, 352560, Note_on_c, 0, 36, 0
2, 352695, Note_on_c, 0, 77, 0
2, 352696, Note_on_c, 0, 79, 97
2, 352887, Note_on_c, 0, 79, 0
2, 352887, Note_on_c, 0, 48, 0
2, 352888, Note_on_c, 0, 71, 97
2, 352888, Note_on_c, 0, 50, 97
2, 353080, Note_on_c, 0, 77, 97
2, 353268, Note_on_c, 0, 71, 0
2, 353271, Note_on_c, 0, 77, 0
2, 353272, Note_on_c, 0, 79, 97
2, 353272, Note_on_c, 0, 38, 97
2, 353463, Note_on_c, 0, 79, 0
2, 353463, Note_on_c, 0, 50, 0
2, 353464, Note_on_c, 0, 80, 97
2, 353655, Note_on_c, 0, 80, 0
2, 353655, Note_on_c, 0, 38, 0
2, 353656, Note_on_c, 0, 72, 97
2, 353656, Note_on_c, 0, 39, 97
2, 353848, Note_on_c, 0, 79, 97
2, 354036, Note_on_c, 0, 72, 0
2, 354039, Note_on_c, 0, 79, 0
2, 354040, Note_on_c, 0, 77, 97
2, 354040, Note_on_c, 0, 51, 97
2, 354096, Note_on_c, 0, 39, 0
2, 354231, Note_on_c, 0, 77, 0
2, 354232, Note_on_c, 0, 75, 97
2, 354423, Note_on_c, 0, 75, 0
2, 354423, Note_on_c, 0, 51, 0
2, 354424, Note_on_c, 0, 74, 97
2, 354424, Note_on_c, 0, 53, 97
2, 354615, Note_on_c, 0, 53, 0
2, 354615, Note_on_c, 0, 74, 0
2, 354616, Note_on_c, 0, 75, 97
2, 354616, Note_on_c, 0, 55, 97
2, 354807, Note_on_c, 0, 55, 0
2, 354807, Note_on_c, 0, 75, 0
2, 354808, Note_on_c, 0, 77, 97
2, 354808, Note_on_c, 0, 56, 97
2, 354999, Note_on_c, 0, 56, 0
2, 354999, Note_on_c, 0, 77, 0
2, 355000, Note_on_c, 0, 74, 97
2, 355000, Note_on_c, 0, 53, 97
2, 355191, Note_on_c, 0, 53, 0
2, 355191, Note_on_c, 0, 74, 0
2, 355192, Note_on_c, 0, 72, 97
2, 355192, Note_on_c, 0, 55, 97
2, 355320, Note_on_c, 0, 72, 0
2, 355320, Note_on_c, 0, 71, 97
2, 355383, Note_on_c, 0, 55, 0
2, 355384, Note_on_c, 0, 71, 0
2, 355384, Note_on_c, 0, 72, 97
2, 355384, Note_on_c, 0, 57, 97
2, 355448, Note_on_c, 0, 72, 0
2, 355448, Note_on_c, 0, 71, 97
2, 355512, Note_on_c, 0, 71, 0
2, 355512, Note_on_c, 0, 72, 97
2, 355575, Note_on_c, 0, 57, 0
2, 355576, Note_on_c, 0, 72, 0
2, 355576, Note_on_c, 0, 71, 97
2, 355576, Note_on_c, 0, 59, 97
2, 355640, Note_on_c, 0, 71, 0
2, 355640, Note_on_c, 0, 72, 97
2, 355704, Note_on_c, 0, 72, 0
2, 355704, Note_on_c, 0, 71, 97
2, 355767, Note_on_c, 0, 59, 0
2, 355768, Note_on_c, 0, 71, 0
2, 355768, Note_on_c, 0, 69, 97
2, 355768, Note_on_c, 0, 60, 97
2, 355959, Note_on_c, 0, 60, 0
2, 355959, Note_on_c, 0, 69, 0
2, 355960, Note_on_c, 0, 67, 97
2, 355960, Note_on_c, 0, 62, 97
2, 356151, Note_on_c, 0, 62, 0
2, 356152, Note_on_c, 0, 65, 97
2, 356343, Note_on_c, 0, 65, 0
2, 356344, Note_on_c, 0, 63, 97
2, 356535, Note_on_c, 0, 63, 0
2, 356535, Note_on_c, 0, 67, 0
2, 356536, Note_on_c, 0, 62, 97
2, 356727, Note_on_c, 0, 62, 0
2, 356728, Note_on_c, 0, 75, 97
2, 356728, Note_on_c, 0, 60, 97
2, 356920, Note_on_c, 0, 67, 97
2, 357108, Note_on_c, 0, 75, 0
2, 357111, Note_on_c, 0, 67, 0
2, 357112, Note_on_c, 0, 68, 97
2, 357112, Note_on_c, 0, 48, 97
2, 357303, Note_on_c, 0, 68, 0
2, 357303, Note_on_c, 0, 60, 0
2, 357304, Note_on_c, 0, 70, 97
2, 357495, Note_on_c, 0, 70, 0
2, 357495, Note_on_c, 0, 48, 0
2, 357496, Note_on_c, 0, 68, 97
2, 357496, Note_on_c, 0, 53, 97
2, 357687, Note_on_c, 0, 53, 0
2, 357687, Note_on_c, 0, 68, 0
2, 357688, Note_on_c, 0, 67, 97
2, 357688, Note_on_c, 0, 55, 97
2, 357879, Note_on_c, 0, 55, 0
2, 357879, Note_on_c, 0, 67, 0
2, 357880, Note_on_c, 0, 65, 97
2, 357880, Note_on_c, 0, 56, 97
2, 358071, Note_on_c, 0, 56, 0
2, 358072, Note_on_c, 0, 58, 97
2, 358263, Note_on_c, 0, 58, 0
2, 358264, Note_on_c, 0, 60, 97
2, 358420, Note_on_c, 0, 65, 0
2, 358456, Note_on_c, 0, 72, 97
2, 358647, Note_on_c, 0, 72, 0
2, 358647, Note_on_c, 0, 60, 0
2, 358648, Note_on_c, 0, 74, 97
2, 358648, Note_on_c, 0, 53, 97
2, 358839, Note_on_c, 0, 74, 0
2, 358840, Note_on_c, 0, 75, 97
2, 359031, Note_on_c, 0, 75, 0
2, 359031, Note_on_c, 0, 53, 0
2, 359032, Note_on_c, 0, 74, 97
2, 359032, Note_on_c, 0, 58, 97
2, 359224, Note_on_c, 0, 65, 97
2, 359412, Note_on_c, 0, 74, 0
2, 359415, Note_on_c, 0, 65, 0
2, 359416, Note_on_c, 0, 67, 97
2, 359416, Note_on_c, 0, 46, 97
2, 359607, Note_on_c, 0, 67, 0
2, 359607, Note_on_c, 0, 58, 0
2, 359608, Note_on_c, 0, 68, 97
2, 359799, Note_on_c, 0, 68, 0
2, 359799, Note_on_c, 0, 46, 0
2, 359800, Note_on_c, 0, 67, 97
2, 359800, Note_on_c, 0, 51, 97
2, 359991, Note_on_c, 0, 51, 0
2, 359991, Note_on_c, 0, 67, 0
2, 359992, Note_on_c, 0, 65, 97
2, 359992, Note_on_c, 0, 53, 97
2, 360183, Note_on_c, 0, 53, 0
2, 360183, Note_on_c, 0, 65, 0
2, 360184, Note_on_c, 0, 63, 97
2, 360184, Note_on_c, 0, 55, 97
2, 360375, Note_on_c, 0, 55, 0
2, 360376, Note_on_c, 0, 56, 97
2, 360567, Note_on_c, 0, 56, 0
2, 360568, Note_on_c, 0, 58, 97
2, 360724, Note_on_c, 0, 63, 0
2, 360760, Note_on_c, 0, 70, 97
2, 360951, Note_on_c, 0, 70, 0
2, 360951, Note_on_c, 0, 58, 0
2, 360952, Note_on_c, 0, 72, 97
2, 360952, Note_on_c, 0, 51, 97
2, 361143, Note_on_c, 0, 72, 0
2, 361144, Note_on_c, 0, 73, 97
2, 361335, Note_on_c, 0, 73, 0
2, 361335, Note_on_c, 0, 51, 0
2, 361336, Note_on_c, 0, 72, 97
2, 361336, Note_on_c, 0, 56, 97
2, 361528, Note_on_c, 0, 67, 97
2, 361716, Note_on_c, 0, 72, 0
2, 361719, Note_on_c, 0, 67, 0
2, 361720, Note_on_c, 0, 65, 97
2, 361720, Note_on_c, 0, 44, 97
2, 361911, Note_on_c, 0, 65, 0
2, 361911, Note_on_c, 0, 56, 0
2, 361912, Note_on_c, 0, 63, 97
2, 362103, Note_on_c, 0, 63, 0
2, 362103, Note_on_c, 0, 44, 0
2, 362104, Note_on_c, 0, 62, 97
2, 362104, Note_on_c, 0, 46, 97
2, 362295, Note_on_c, 0, 46, 0
2, 362296, Note_on_c, 0, 72, 97
2, 362296, Note_on_c, 0, 56, 97
2, 362484, Note_on_c, 0, 62, 0
2, 362487, Note_on_c, 0, 56, 0
2, 362487, Note_on_c, 0, 72, 0
2, 362488, Note_on_c, 0, 70, 97
2, 362488, Note_on_c, 0, 55, 97
2, 362679, Note_on_c, 0, 55, 0
2, 362679, Note_on_c, 0, 70, 0
2, 362680, Note_on_c, 0, 68, 97
2, 362680, Note_on_c, 0, 53, 97
2, 362871, Note_on_c, 0, 53, 0
2, 362871, Note_on_c, 0, 68, 0
2, 362872, Note_on_c, 0, 77, 97
2, 362872, Note_on_c, 0, 51, 97
2, 363063, Note_on_c, 0, 51, 0
2, 363064, Note_on_c, 0, 50, 97
2, 363255, Note_on_c, 0, 50, 0
2, 363256, Note_on_c, 0, 48, 97
2, 363352, Note_on_c, 0, 77, 0
2, 363447, Note_on_c, 0, 48, 0
2, 363448, Note_on_c, 0, 46, 97
2, 363449, Note_on_c, 0, 68, 97
2, 363449, Note_on_c, 0, 65, 97
2, 363449, Note_on_c, 0, 62, 97
2, 363449, Note_on_c, 0, 58, 97
2, 363639, Note_on_c, 0, 46, 0
2, 363640, Note_on_c, 0, 62, 0
2, 363640, Note_on_c, 0, 68, 0
2, 363640, Note_on_c, 0, 65, 0
2, 363640, Note_on_c, 0, 58, 0
2, 363640, Note_on_c, 0, 62, 97
2, 363640, Note_on_c, 0, 58, 97
2, 363640, Note_on_c, 0, 68, 97
2, 363640, Note_on_c, 0, 65, 97
2, 363640, Note_on_c, 0, 51, 97
2, 363831, Note_on_c, 0, 51, 0
2, 363832, Note_on_c, 0, 43, 97
2, 364023, Note_on_c, 0, 43, 0
2, 364024, Note_on_c, 0, 44, 97
2, 364215, Note_on_c, 0, 44, 0
2, 364216, Note_on_c, 0, 46, 97
2, 364407, Note_on_c, 0, 46, 0
2, 364407, Note_on_c, 0, 65, 0
2, 364407, Note_on_c, 0, 62, 0
2, 364407, Note_on_c, 0, 58, 0
2, 364407, Note_on_c, 0, 68, 0
2, 364408, Note_on_c, 0, 58, 97
2, 364408, Note_on_c, 0, 67, 97
2, 364408, Note_on_c, 0, 63, 97
2, 364408, Note_on_c, 0, 39, 97
2, 364791, Note_on_c, 0, 39, 0
2, 364792, Note_on_c, 0, 43, 97
2, 364983, Note_on_c, 0, 43, 0
2, 364984, Note_on_c, 0, 46, 97
2, 365175, Note_on_c, 0, 46, 0
2, 365176, Note_on_c, 0, 51, 97
2, 365708, Note_on_c, 0, 58, 0
2, 365708, Note_on_c, 0, 63, 0
2, 365708, Note_on_c, 0, 67, 0
2, 365943, Note_on_c, 0, 51, 0
2, 365944, Note_on_c, 0, 70, 97
2, 365944, Note_on_c, 0, 51, 97
2, 366135, Note_on_c, 0, 51, 0
2, 366135, Note_on_c, 0, 70, 0
2, 366136, Note_on_c, 0, 75, 97
2, 366136, Note_on_c, 0, 55, 97
2, 366327, Note_on_c, 0, 55, 0
2, 366327, Note_on_c, 0, 75, 0
2, 366328, Note_on_c, 0, 79, 97
2, 366328, Note_on_c, 0, 58, 97
2, 366519, Note_on_c, 0, 58, 0
2, 366520, Note_on_c, 0, 62, 97
2, 366711, Note_on_c, 0, 62, 0
2, 366712, Note_on_c, 0, 63, 97
2, 366868, Note_on_c, 0, 79, 0
2, 366903, Note_on_c, 0, 63, 0
2, 366904, Note_on_c, 0, 72, 97
2, 366904, Note_on_c, 0, 67, 97
2, 367095, Note_on_c, 0, 67, 0
2, 367095, Note_on_c, 0, 72, 0
2, 367096, Note_on_c, 0, 70, 97
2, 367096, Note_on_c, 0, 51, 97
2, 367287, Note_on_c, 0, 70, 0
2, 367288, Note_on_c, 0, 68, 97
2, 367479, Note_on_c, 0, 68, 0
2, 367480, Note_on_c, 0, 70, 97
2, 367656, Note_on_c, 0, 51, 0
2, 367671, Note_on_c, 0, 70, 0
2, 367672, Note_on_c, 0, 75, 97
2, 367672, Note_on_c, 0, 55, 97
2, 367863, Note_on_c, 0, 55, 0
2, 367863, Note_on_c, 0, 75, 0
2, 367864, Note_on_c, 0, 77, 97
2, 367864, Note_on_c, 0, 53, 97
2, 368055, Note_on_c, 0, 53, 0
2, 368055, Note_on_c, 0, 77, 0
2, 368056, Note_on_c, 0, 79, 97
2, 368056, Note_on_c, 0, 51, 97
2, 368247, Note_on_c, 0, 51, 0
2, 368247, Note_on_c, 0, 79, 0
2, 368248, Note_on_c, 0, 77, 97
2, 368248, Note_on_c, 0, 50, 97
2, 368439, Note_on_c, 0, 50, 0
2, 368439, Note_on_c, 0, 77, 0
2, 368440, Note_on_c, 0, 81, 97
2, 368440, Note_on_c, 0, 53, 97
2, 368631, Note_on_c, 0, 53, 0
2, 368631, Note_on_c, 0, 81, 0
2, 368632, Note_on_c, 0, 82, 97
2, 368632, Note_on_c, 0, 55, 97
2, 368823, Note_on_c, 0, 55, 0
2, 368824, Note_on_c, 0, 57, 97
2, 369015, Note_on_c, 0, 57, 0
2, 369016, Note_on_c, 0, 58, 97
2, 369172, Note_on_c, 0, 82, 0
2, 369207, Note_on_c, 0, 58, 0
2, 369208, Note_on_c, 0, 79, 97
2, 369208, Note_on_c, 0, 62, 97
2, 369399, Note_on_c, 0, 62, 0
2, 369399, Note_on_c, 0, 79, 0
2, 369400, Note_on_c, 0, 77, 97
2, 369400, Note_on_c, 0, 50, 97
2, 369591, Note_on_c, 0, 77, 0
2, 369592, Note_on_c, 0, 75, 97
2, 369783, Note_on_c, 0, 75, 0
2, 369784, Note_on_c, 0, 77, 97
2, 369960, Note_on_c, 0, 50, 0
2, 369975, Note_on_c, 0, 77, 0
2, 369976, Note_on_c, 0, 70, 97
2, 369976, Note_on_c, 0, 53, 97
2, 370167, Note_on_c, 0, 53, 0
2, 370167, Note_on_c, 0, 70, 0
2, 370168, Note_on_c, 0, 69, 97
2, 370168, Note_on_c, 0, 51, 97
2, 370359, Note_on_c, 0, 51, 0
2, 370359, Note_on_c, 0, 69, 0
2, 370360, Note_on_c, 0, 70, 97
2, 370360, Note_on_c, 0, 50, 97
2, 370551, Note_on_c, 0, 50, 0
2, 370551, Note_on_c, 0, 70, 0
2, 370552, Note_on_c, 0, 75, 97
2, 370552, Note_on_c, 0, 48, 97
2, 370743, Note_on_c, 0, 48, 0
2, 370743, Note_on_c, 0, 75, 0
2, 370744, Note_on_c, 0, 74, 97
2, 370744, Note_on_c, 0, 55, 97
2, 370935, Note_on_c, 0, 55, 0
2, 370935, Note_on_c, 0, 74, 0
2, 370936, Note_on_c, 0, 72, 97
2, 370936, Note_on_c, 0, 57, 97
2, 371127, Note_on_c, 0, 57, 0
2, 371128, Note_on_c, 0, 58, 97
2, 371316, Note_on_c, 0, 72, 0
2, 371319, Note_on_c, 0, 58, 0
2, 371320, Note_on_c, 0, 57, 97
2, 371511, Note_on_c, 0, 57, 0
2, 371512, Note_on_c, 0, 79, 97
2, 371512, Note_on_c, 0, 58, 97
2, 371703, Note_on_c, 0, 58, 0
2, 371703, Note_on_c, 0, 79, 0
2, 371704, Note_on_c, 0, 77, 97
2, 371704, Note_on_c, 0, 60, 97
2, 371895, Note_on_c, 0, 77, 0
2, 371896, Note_on_c, 0, 75, 97
2, 372087, Note_on_c, 0, 75, 0
2, 372088, Note_on_c, 0, 81, 97
2, 372244, Note_on_c, 0, 60, 0
2, 372279, Note_on_c, 0, 81, 0
2, 372280, Note_on_c, 0, 82, 97
2, 372280, Note_on_c, 0, 51, 97
2, 372471, Note_on_c, 0, 51, 0
2, 372471, Note_on_c, 0, 82, 0
2, 372472, Note_on_c, 0, 84, 97
2, 372472, Note_on_c, 0, 50, 97
2, 372663, Note_on_c, 0, 50, 0
2, 372664, Note_on_c, 0, 48, 97
2, 372855, Note_on_c, 0, 48, 0
2, 372856, Note_on_c, 0, 46, 97
2, 373012, Note_on_c, 0, 84, 0
2, 373047, Note_on_c, 0, 46, 0
2, 373048, Note_on_c, 0, 75, 97
2, 373048, Note_on_c, 0, 53, 97
2, 373239, Note_on_c, 0, 53, 0
2, 373239, Note_on_c, 0, 75, 0
2, 373240, Note_on_c, 0, 74, 97
2, 373240, Note_on_c, 0, 55, 97
2, 373431, Note_on_c, 0, 55, 0
2, 373431, Note_on_c, 0, 74, 0
2, 373432, Note_on_c, 0, 72, 97
2, 373432, Note_on_c, 0, 57, 97
2, 373623, Note_on_c, 0, 57, 0
2, 373623, Note_on_c, 0, 72, 0
2, 373624, Note_on_c, 0, 74, 97
2, 373624, Note_on_c, 0, 58, 97
2, 373815, Note_on_c, 0, 58, 0
2, 373815, Note_on_c, 0, 74, 0
2, 373816, Note_on_c, 0, 77, 97
2, 373816, Note_on_c, 0, 62, 97
2, 374007, Note_on_c, 0, 62, 0
2, 374007, Note_on_c, 0, 77, 0
2, 374008, Note_on_c, 0, 74, 97
2, 374008, Note_on_c, 0, 46, 97
2, 374199, Note_on_c, 0, 74, 0
2, 374200, Note_on_c, 0, 69, 97
2, 374391, Note_on_c, 0, 69, 0
2, 374392, Note_on_c, 0, 70, 97
2, 374568, Note_on_c, 0, 46, 0
2, 374584, Note_on_c, 0, 56, 97
2, 374775, Note_on_c, 0, 56, 0
2, 374776, Note_on_c, 0, 55, 97
2, 374967, Note_on_c, 0, 55, 0
2, 374968, Note_on_c, 0, 53, 97
2, 375159, Note_on_c, 0, 53, 0
2, 375159, Note_on_c, 0, 70, 0
2, 375160, Note_on_c, 0, 52, 97
2, 375352, Note_on_c, 0, 73, 97
2, 375543, Note_on_c, 0, 73, 0
2, 375543, Note_on_c, 0, 52, 0
2, 375544, Note_on_c, 0, 72, 97
2, 375544, Note_on_c, 0, 55, 97
2, 375735, Note_on_c, 0, 72, 0
2, 375736, Note_on_c, 0, 70, 97
2, 375927, Note_on_c, 0, 70, 0
2, 375927, Note_on_c, 0, 55, 0
2, 375928, Note_on_c, 0, 79, 97
2, 375928, Note_on_c, 0, 60, 97
2, 376120, Note_on_c, 0, 70, 97
2, 376308, Note_on_c, 0, 79, 0
2, 376311, Note_on_c, 0, 70, 0
2, 376311, Note_on_c, 0, 60, 0
2, 376312, Note_on_c, 0, 68, 97
2, 376312, Note_on_c, 0, 52, 97
2, 376503, Note_on_c, 0, 68, 0
2, 376504, Note_on_c, 0, 67, 97
2, 376695, Note_on_c, 0, 67, 0
2, 376695, Note_on_c, 0, 52, 0
2, 376696, Note_on_c, 0, 68, 97
2, 376696, Note_on_c, 0, 53, 97
2, 376888, Note_on_c, 0, 72, 97
2, 377076, Note_on_c, 0, 68, 0
2, 377079, Note_on_c, 0, 72, 0
2, 377079, Note_on_c, 0, 53, 0
2, 377080, Note_on_c, 0, 77, 97
2, 377080, Note_on_c, 0, 60, 97
2, 377271, Note_on_c, 0, 77, 0
2, 377272, Note_on_c, 0, 79, 97
2, 377463, Note_on_c, 0, 79, 0
2, 377463, Note_on_c, 0, 60, 0
2, 377464, Note_on_c, 0, 81, 97
2, 377464, Note_on_c, 0, 63, 97
2, 377655, Note_on_c, 0, 81, 0
2, 377656, Note_on_c, 0, 78, 97
2, 377847, Note_on_c, 0, 78, 0
2, 377847, Note_on_c, 0, 63, 0
2, 377848, Note_on_c, 0, 77, 97
2, 377848, Note_on_c, 0, 66, 97
2, 378039, Note_on_c, 0, 77, 0
2, 378040, Note_on_c, 0, 75, 97
2, 378231, Note_on_c, 0, 75, 0
2, 378231, Note_on_c, 0, 66, 0
2, 378232, Note_on_c, 0, 84, 97
2, 378232, Note_on_c, 0, 57, 97
2, 378424, Note_on_c, 0, 75, 97
2, 378612, Note_on_c, 0, 84, 0
2, 378615, Note_on_c, 0, 75, 0
2, 378615, Note_on_c, 0, 57, 0
2, 378616, Note_on_c, 0, 73, 97
2, 378616, Note_on_c, 0, 65, 97
2, 378807, Note_on_c, 0, 73, 0
2, 378808, Note_on_c, 0, 72, 97
2, 378999, Note_on_c, 0, 72, 0
2, 378999, Note_on_c, 0, 65, 0
2, 379000, Note_on_c, 0, 73, 97
2, 379000, Note_on_c, 0, 58, 97
2, 379192, Note_on_c, 0, 77, 97
2, 379380, Note_on_c, 0, 73, 0
2, 379383, Note_on_c, 0, 77, 0
2, 379383, Note_on_c, 0, 58, 0
2, 379384, Note_on_c, 0, 82, 97
2, 379384, Note_on_c, 0, 61, 97
2, 379575, Note_on_c, 0, 82, 0
2, 379576, Note_on_c, 0, 80, 97
2, 379767, Note_on_c, 0, 80, 0
2, 379767, Note_on_c, 0, 61, 0
2, 379768, Note_on_c, 0, 78, 97
2, 379768, Note_on_c, 0, 58, 97
2, 379959, Note_on_c, 0, 78, 0
2, 379960, Note_on_c, 0, 77, 97
2, 380151, Note_on_c, 0, 77, 0
2, 380151, Note_on_c, 0, 58, 0
2, 380152, Note_on_c, 0, 76, 97
2, 380152, Note_on_c, 0, 55, 97
2, 380343, Note_on_c, 0, 76, 0
2, 380344, Note_on_c, 0, 77, 97
2, 380535, Note_on_c, 0, 77, 0
2, 380535, Note_on_c, 0, 55, 0
2, 380536, Note_on_c, 0, 73, 97
2, 380536, Note_on_c, 0, 56, 97
2, 380727, Note_on_c, 0, 73, 0
2, 380728, Note_on_c, 0, 72, 97
2, 380919, Note_on_c, 0, 72, 0
2, 380919, Note_on_c, 0, 56, 0
2, 380920, Note_on_c, 0, 71, 97
2, 380920, Note_on_c, 0, 53, 97
2, 381111, Note_on_c, 0, 71, 0
2, 381112, Note_on_c, 0, 72, 97
2, 381303, Note_on_c, 0, 72, 0
2, 381303, Note_on_c, 0, 53, 0
2, 381304, Note_on_c, 0, 80, 97
2, 381304, Note_on_c, 0, 60, 97
2, 381495, Note_on_c, 0, 80, 0
2, 381496, Note_on_c, 0, 79, 97
2, 381687, Note_on_c, 0, 79, 0
2, 381688, Note_on_c, 0, 77, 97
2, 381688, Note_on_c, 0, 48, 97
2, 381784, Note_on_c, 0, 60, 0
2, 381879, Note_on_c, 0, 77, 0
2, 381880, Note_on_c, 0, 76, 97
2, 382071, Note_on_c, 0, 76, 0
2, 382071, Note_on_c, 0, 48, 0
2, 382072, Note_on_c, 0, 77, 97
2, 382072, Note_on_c, 0, 53, 97
2, 382264, Note_on_c, 0, 72, 97
2, 382455, Note_on_c, 0, 72, 0
2, 382456, Note_on_c, 0, 73, 97
2, 382456, Note_on_c, 0, 41, 97
2, 382647, Note_on_c, 0, 73, 0
2, 382647, Note_on_c, 0, 77, 0
2, 382648, Note_on_c, 0, 76, 97
2, 382839, Note_on_c, 0, 76, 0
2, 382839, Note_on_c, 0, 53, 0
2, 382839, Note_on_c, 0, 41, 0
2, 382840, Note_on_c, 0, 77, 97
2, 382840, Note_on_c, 0, 44, 97
2, 383032, Note_on_c, 0, 70, 97
2, 383223, Note_on_c, 0, 70, 0
2, 383223, Note_on_c, 0, 44, 0
2, 383224, Note_on_c, 0, 68, 97
2, 383224, Note_on_c, 0, 48, 97
2, 383415, Note_on_c, 0, 68, 0
2, 383416, Note_on_c, 0, 67, 97
2, 383607, Note_on_c, 0, 67, 0
2, 383607, Note_on_c, 0, 48, 0
2, 383607, Note_on_c, 0, 77, 0
2, 383608, Note_on_c, 0, 65, 97
2, 383608, Note_on_c, 0, 53, 97
2, 383991, Note_on_c, 0, 53, 0
2, 383992, Note_on_c, 0, 51, 97
2, 384375, Note_on_c, 0, 51, 0
2, 384375, Note_on_c, 0, 65, 0
2, 384376, Note_on_c, 0, 50, 97
2, 384568, Note_on_c, 0, 75, 97
2, 384759, Note_on_c, 0, 75, 0
2, 384759, Note_on_c, 0, 50, 0
2, 384760, Note_on_c, 0, 74, 97
2, 384760, Note_on_c, 0, 53, 97
2, 384951, Note_on_c, 0, 74, 0
2, 384952, Note_on_c, 0, 72, 97
2, 385143, Note_on_c, 0, 72, 0
2, 385143, Note_on_c, 0, 53, 0
2, 385144, Note_on_c, 0, 74, 97
2, 385144, Note_on_c, 0, 46, 97
2, 385336, Note_on_c, 0, 80, 97
2, 385424, Note_on_c, 0, 74, 0
2, 385527, Note_on_c, 0, 46, 0
2, 385528, Note_on_c, 0, 70, 97
2, 385528, Note_on_c, 0, 50, 97
2, 385616, Note_on_c, 0, 80, 0
2, 385720, Note_on_c, 0, 77, 97
2, 385808, Note_on_c, 0, 70, 0
2, 385911, Note_on_c, 0, 77, 0
2, 385911, Note_on_c, 0, 50, 0
2, 385912, Note_on_c, 0, 79, 97
2, 385912, Note_on_c, 0, 39, 97
2, 386104, Note_on_c, 0, 68, 97
2, 386292, Note_on_c, 0, 79, 0
2, 386295, Note_on_c, 0, 68, 0
2, 386295, Note_on_c, 0, 39, 0
2, 386296, Note_on_c, 0, 67, 97
2, 386296, Note_on_c, 0, 50, 97
2, 386487, Note_on_c, 0, 67, 0
2, 386488, Note_on_c, 0, 65, 97
2, 386679, Note_on_c, 0, 65, 0
2, 386679, Note_on_c, 0, 50, 0
2, 386680, Note_on_c, 0, 63, 97
2, 386680, Note_on_c, 0, 48, 97
2, 386872, Note_on_c, 0, 74, 97
2, 387060, Note_on_c, 0, 63, 0
2, 387063, Note_on_c, 0, 74, 0
2, 387063, Note_on_c, 0, 48, 0
2, 387064, Note_on_c, 0, 72, 97
2, 387064, Note_on_c, 0, 51, 97
2, 387255, Note_on_c, 0, 72, 0
2, 387256, Note_on_c, 0, 71, 97
2, 387447, Note_on_c, 0, 71, 0
2, 387447, Note_on_c, 0, 51, 0
2, 387448, Note_on_c, 0, 72, 97
2, 387448, Note_on_c, 0, 44, 97
2, 387640, Note_on_c, 0, 79, 97
2, 387728, Note_on_c, 0, 72, 0
2, 387831, Note_on_c, 0, 44, 0
2, 387832, Note_on_c, 0, 68, 97
2, 387832, Note_on_c, 0, 48, 97
2, 387920, Note_on_c, 0, 79, 0
2, 388024, Note_on_c, 0, 75, 97
2, 388112, Note_on_c, 0, 68, 0
2, 388215, Note_on_c, 0, 75, 0
2, 388215, Note_on_c, 0, 48, 0
2, 388216, Note_on_c, 0, 77, 97
2, 388216, Note_on_c, 0, 38, 97
2, 388408, Note_on_c, 0, 67, 97
2, 388596, Note_on_c, 0, 77, 0
2, 388599, Note_on_c, 0, 67, 0
2, 388599, Note_on_c, 0, 38, 0
2, 388600, Note_on_c, 0, 65, 97
2, 388600, Note_on_c, 0, 48, 97
2, 388791, Note_on_c, 0, 65, 0
2, 388792, Note_on_c, 0, 63, 97
2, 388983, Note_on_c, 0, 63, 0
2, 388983, Note_on_c, 0, 48, 0
2, 388984, Note_on_c, 0, 62, 97
2, 388984, Note_on_c, 0, 47, 97
2, 389176, Note_on_c, 0, 72, 97
2, 389364, Note_on_c, 0, 62, 0
2, 389367, Note_on_c, 0, 72, 0
2, 389367, Note_on_c, 0, 47, 0
2, 389368, Note_on_c, 0, 71, 97
2, 389368, Note_on_c, 0, 50, 97
2, 389559, Note_on_c, 0, 71, 0
2, 389560, Note_on_c, 0, 69, 97
2, 389751, Note_on_c, 0, 69, 0
2, 389751, Note_on_c, 0, 50, 0
2, 389752, Note_on_c, 0, 71, 97
2, 389752, Note_on_c, 0, 43, 97
2, 389944, Note_on_c, 0, 77, 97
2, 390032, Note_on_c, 0, 71, 0
2, 390135, Note_on_c, 0, 43, 0
2, 390136, Note_on_c, 0, 67, 97
2, 390136, Note_on_c, 0, 47, 97
2, 390224, Note_on_c, 0, 77, 0
2, 390328, Note_on_c, 0, 74, 97
2, 390416, Note_on_c, 0, 67, 0
2, 390519, Note_on_c, 0, 74, 0
2, 390519, Note_on_c, 0, 47, 0
2, 390520, Note_on_c, 0, 75, 97
2, 390520, Note_on_c, 0, 36, 97
2, 390712, Note_on_c, 0, 65, 97
2, 390900, Note_on_c, 0, 75, 0
2, 390903, Note_on_c, 0, 65, 0
2, 390903, Note_on_c, 0, 36, 0
2, 390904, Note_on_c, 0, 63, 97
2, 390904, Note_on_c, 0, 47, 97
2, 391095, Note_on_c, 0, 63, 0
2, 391096, Note_on_c, 0, 62, 97
2, 391287, Note_on_c, 0, 62, 0
2, 391287, Note_on_c, 0, 47, 0
2, 391288, Note_on_c, 0, 60, 97
2, 391288, Note_on_c, 0, 45, 97
2, 391480, Note_on_c, 0, 67, 97
2, 391568, Note_on_c, 0, 60, 0
2, 391671, Note_on_c, 0, 67, 0
2, 391671, Note_on_c, 0, 45, 0
2, 391672, Note_on_c, 0, 66, 97
2, 391672, Note_on_c, 0, 38, 97
2, 391863, Note_on_c, 0, 66, 0
2, 391864, Note_on_c, 0, 69, 97
2, 392055, Note_on_c, 0, 69, 0
2, 392055, Note_on_c, 0, 38, 0
2, 392056, Note_on_c, 0, 72, 97
2, 392056, Note_on_c, 0, 50, 97
2, 392248, Note_on_c, 0, 69, 97
2, 392336, Note_on_c, 0, 72, 0
2, 392439, Note_on_c, 0, 69, 0
2, 392439, Note_on_c, 0, 50, 0
2, 392440, Note_on_c, 0, 71, 97
2, 392440, Note_on_c, 0, 43, 97
2, 392631, Note_on_c, 0, 71, 0
2, 392632, Note_on_c, 0, 74, 97
2, 392823, Note_on_c, 0, 74, 0
2, 392823, Note_on_c, 0, 43, 0
2, 392824, Note_on_c, 0, 67, 97
2, 392824, Note_on_c, 0, 55, 97
2, 393016, Note_on_c, 0, 77, 97
2, 393204, Note_on_c, 0, 67, 0
2, 393207, Note_on_c, 0, 77, 0
2, 393207, Note_on_c, 0, 55, 0
2, 393208, Note_on_c, 0, 75, 97
2, 393208, Note_on_c, 0, 59, 97
2, 393399, Note_on_c, 0, 75, 0
2, 393400, Note_on_c, 0, 74, 97
2, 393591, Note_on_c, 0, 74, 0
2, 393591, Note_on_c, 0, 59, 0
2, 393592, Note_on_c, 0, 75, 97
2, 393592, Note_on_c, 0, 60, 97
2, 393783, Note_on_c, 0, 75, 0
2, 393784, Note_on_c, 0, 79, 97
2, 393975, Note_on_c, 0, 79, 0
2, 393975, Note_on_c, 0, 60, 0
2, 393976, Note_on_c, 0, 72, 97
2, 393976, Note_on_c, 0, 62, 97
2, 394167, Note_on_c, 0, 72, 0
2, 394168, Note_on_c, 0, 71, 97
2, 394359, Note_on_c, 0, 71, 0
2, 394359, Note_on_c, 0, 62, 0
2, 394360, Note_on_c, 0, 72, 97
2, 394360, Note_on_c, 0, 63, 97
2, 394551, Note_on_c, 0, 63, 0
2, 394552, Note_on_c, 0, 67, 97
2, 394743, Note_on_c, 0, 67, 0
2, 394744, Note_on_c, 0, 60, 97
2, 394935, Note_on_c, 0, 60, 0
2, 394936, Note_on_c, 0, 58, 97
2, 395127, Note_on_c, 0, 58, 0
2, 395127, Note_on_c, 0, 72, 0
2, 395128, Note_on_c, 0, 56, 97
2, 395320, Note_on_c, 0, 75, 97
2, 395511, Note_on_c, 0, 75, 0
2, 395511, Note_on_c, 0, 56, 0
2, 395512, Note_on_c, 0, 68, 97
2, 395512, Note_on_c, 0, 58, 97
2, 395703, Note_on_c, 0, 68, 0
2, 395704, Note_on_c, 0, 67, 97
2, 395895, Note_on_c, 0, 67, 0
2, 395895, Note_on_c, 0, 58, 0
2, 395896, Note_on_c, 0, 68, 97
2, 395896, Note_on_c, 0, 60, 97
2, 396087, Note_on_c, 0, 60, 0
2, 396088, Note_on_c, 0, 63, 97
2, 396279, Note_on_c, 0, 63, 0
2, 396280, Note_on_c, 0, 56, 97
2, 396471, Note_on_c, 0, 56, 0
2, 396472, Note_on_c, 0, 55, 97
2, 396663, Note_on_c, 0, 55, 0
2, 396663, Note_on_c, 0, 68, 0
2, 396664, Note_on_c, 0, 53, 97
2, 396856, Note_on_c, 0, 72, 97
2, 397047, Note_on_c, 0, 72, 0
2, 397047, Note_on_c, 0, 53, 0
2, 397048, Note_on_c, 0, 65, 97
2, 397048, Note_on_c, 0, 55, 97
2, 397239, Note_on_c, 0, 65, 0
2, 397240, Note_on_c, 0, 64, 97
2, 397431, Note_on_c, 0, 64, 0
2, 397431, Note_on_c, 0, 55, 0
2, 397432, Note_on_c, 0, 65, 97
2, 397432, Note_on_c, 0, 56, 97
2, 397623, Note_on_c, 0, 56, 0
2, 397624, Note_on_c, 0, 60, 97
2, 397815, Note_on_c, 0, 60, 0
2, 397816, Note_on_c, 0, 53, 97
2, 398007, Note_on_c, 0, 53, 0
2, 398008, Note_on_c, 0, 51, 97
2, 398199, Note_on_c, 0, 51, 0
2, 398199, Note_on_c, 0, 65, 0
2, 398200, Note_on_c, 0, 49, 97
2, 398392, Note_on_c, 0, 68, 97
2, 398583, Note_on_c, 0, 68, 0
2, 398583, Note_on_c, 0, 49, 0
2, 398584, Note_on_c, 0, 73, 97
2, 398584, Note_on_c, 0, 53, 97
2, 398775, Note_on_c, 0, 73, 0
2, 398776, Note_on_c, 0, 72, 97
2, 398967, Note_on_c, 0, 72, 0
2, 398967, Note_on_c, 0, 53, 0
2, 398968, Note_on_c, 0, 76, 97
2, 398968, Note_on_c, 0, 44, 97
2, 399159, Note_on_c, 0, 76, 0
2, 399160, Note_on_c, 0, 77, 97
2, 399351, Note_on_c, 0, 77, 0
2, 399351, Note_on_c, 0, 44, 0
2, 399352, Note_on_c, 0, 71, 97
2, 399352, Note_on_c, 0, 54, 97
2, 399543, Note_on_c, 0, 71, 0
2, 399544, Note_on_c, 0, 72, 97
2, 399735, Note_on_c, 0, 72, 0
2, 399735, Note_on_c, 0, 54, 0
2, 399736, Note_on_c, 0, 66, 97
2, 399736, Note_on_c, 0, 55, 97
2, 399927, Note_on_c, 0, 66, 0
2, 399928, Note_on_c, 0, 67, 97
2, 400119, Note_on_c, 0, 67, 0
2, 400119, Note_on_c, 0, 55, 0
2, 400120, Note_on_c, 0, 75, 97
2, 400120, Note_on_c, 0, 43, 97
2, 400311, Note_on_c, 0, 75, 0
2, 400312, Note_on_c, 0, 71, 97
2, 400503, Note_on_c, 0, 71, 0
2, 400503, Note_on_c, 0, 43, 0
2, 400504, Note_on_c, 0, 72, 97
2, 400504, Note_on_c, 0, 48, 97
2, 400696, Note_on_c, 0, 65, 97
2, 400887, Note_on_c, 0, 65, 0
2, 400888, Note_on_c, 0, 63, 97
2, 401079, Note_on_c, 0, 63, 0
2, 401080, Note_on_c, 0, 62, 97
2, 401271, Note_on_c, 0, 62, 0
2, 401271, Note_on_c, 0, 72, 0
2, 401272, Note_on_c, 0, 72, 97
2, 401272, Note_on_c, 0, 67, 97
2, 401272, Note_on_c, 0, 63, 97
2, 401488, Note_on_c, 0, 39, 97
2, 401654, Note_on_c, 0, 48, 0
2, 401688, Note_on_c, 0, 39, 0
2, 401704, Note_on_c, 0, 41, 97
2, 401904, Note_on_c, 0, 41, 0
2, 401920, Note_on_c, 0, 43, 97
2, 402120, Note_on_c, 0, 43, 0
2, 402136, Note_on_c, 0, 36, 97
2, 403372, Note_on_c, 0, 72, 0
2, 403372, Note_on_c, 0, 63, 0
2, 403372, Note_on_c, 0, 67, 0
2, 403536, Note_on_c, 0, 36, 0
2, 406648, Note_on_c, 0, 84, 97
2, 406839, Note_on_c, 0, 84, 0
2, 406840, Note_on_c, 0, 72, 97
2, 407031, Note_on_c, 0, 72, 0
2, 407032, Note_on_c, 0, 75, 97
2, 407079, Note_on_c, 0, 75, 0
2, 407080, Note_on_c, 0, 74, 97
2, 407127, Note_on_c, 0, 74, 0
2, 407128, Note_on_c, 0, 72, 97
2, 407175, Note_on_c, 0, 72, 0
2, 407176, Note_on_c, 0, 74, 97
2, 407223, Note_on_c, 0, 74, 0
2, 407224, Note_on_c, 0, 75, 97
2, 407224, Note_on_c, 0, 72, 97
2, 407415, Note_on_c, 0, 72, 0
2, 407416, Note_on_c, 0, 60, 97
2, 407607, Note_on_c, 0, 60, 0
2, 407607, Note_on_c, 0, 75, 0
2, 407608, Note_on_c, 0, 77, 97
2, 407608, Note_on_c, 0, 62, 97
2, 407799, Note_on_c, 0, 62, 0
2, 407799, Note_on_c, 0, 77, 0
2, 407800, Note_on_c, 0, 79, 97
2, 407800, Note_on_c, 0, 63, 97
2, 407990, Note_on_c, 0, 79, 0
2, 407991, Note_on_c, 0, 63, 0
2, 407992, Note_on_c, 0, 68, 97
2, 408184, Note_on_c, 0, 65, 97
2, 408372, Note_on_c, 0, 68, 0
2, 408375, Note_on_c, 0, 65, 0
2, 408376, Note_on_c, 0, 77, 97
2, 408376, Note_on_c, 0, 62, 97
2, 408566, Note_on_c, 0, 77, 0
2, 408567, Note_on_c, 0, 62, 0
2, 408568, Note_on_c, 0, 67, 97
2, 408760, Note_on_c, 0, 63, 97
2, 408948, Note_on_c, 0, 67, 0
2, 408951, Note_on_c, 0, 63, 0
2, 408952, Note_on_c, 0, 75, 97
2, 408952, Note_on_c, 0, 60, 97
2, 409142, Note_on_c, 0, 75, 0
2, 409143, Note_on_c, 0, 60, 0
2, 409144, Note_on_c, 0, 65, 97
2, 409336, Note_on_c, 0, 62, 97
2, 409524, Note_on_c, 0, 65, 0
2, 409527, Note_on_c, 0, 62, 0
2, 409528, Note_on_c, 0, 74, 97
2, 409528, Note_on_c, 0, 59, 97
2, 409718, Note_on_c, 0, 74, 0
2, 409719, Note_on_c, 0, 59, 0
2, 409720, Note_on_c, 0, 63, 97
2, 409912, Note_on_c, 0, 60, 97
2, 410100, Note_on_c, 0, 63, 0
2, 410103, Note_on_c, 0, 60, 0
2, 410104, Note_on_c, 0, 56, 97
2, 410295, Note_on_c, 0, 56, 0
2, 410296, Note_on_c, 0, 72, 97
2, 410296, Note_on_c, 0, 53, 97
2, 410391, Note_on_c, 0, 72, 0
2, 410392, Note_on_c, 0, 71, 97
2, 410487, Note_on_c, 0, 71, 0
2, 410487, Note_on_c, 0, 53, 0
2, 410488, Note_on_c, 0, 72, 97
2, 410488, Note_on_c, 0, 50, 97
2, 410583, Note_on_c, 0, 72, 0
2, 410584, Note_on_c, 0, 74, 97
2, 410679, Note_on_c, 0, 74, 0
2, 410679, Note_on_c, 0, 50, 0
2, 410680, Note_on_c, 0, 71, 97
2, 410680, Note_on_c, 0, 55, 97
2, 410775, Note_on_c, 0, 71, 0
2, 410776, Note_on_c, 0, 69, 97
2, 410871, Note_on_c, 0, 69, 0
2, 410872, Note_on_c, 0, 67, 97
2, 410967, Note_on_c, 0, 67, 0
2, 410967, Note_on_c, 0, 55, 0
2, 410968, Note_on_c, 0, 65, 97
2, 411063, Note_on_c, 0, 65, 0
2, 411064, Note_on_c, 0, 63, 97
2, 411159, Note_on_c, 0, 63, 0
2, 411160, Note_on_c, 0, 62, 97
2, 411255, Note_on_c, 0, 62, 0
2, 411256, Note_on_c, 0, 84, 97
2, 411256, Note_on_c, 0, 60, 97
2, 411447, Note_on_c, 0, 84, 0
2, 411448, Note_on_c, 0, 72, 97
2, 411639, Note_on_c, 0, 72, 0
2, 411640, Note_on_c, 0, 74, 97
2, 411831, Note_on_c, 0, 74, 0
2, 411831, Note_on_c, 0, 60, 0
2, 411832, Note_on_c, 0, 75, 97
2, 411832, Note_on_c, 0, 72, 97
2, 412023, Note_on_c, 0, 72, 0
2, 412024, Note_on_c, 0, 60, 97
2, 412215, Note_on_c, 0, 60, 0
2, 412215, Note_on_c, 0, 75, 0
2, 412216, Note_on_c, 0, 77, 97
2, 412216, Note_on_c, 0, 62, 97
2, 412407, Note_on_c, 0, 62, 0
2, 412407, Note_on_c, 0, 77, 0
2, 412408, Note_on_c, 0, 79, 97
2, 412408, Note_on_c, 0, 63, 97
2, 412598, Note_on_c, 0, 79, 0
2, 412599, Note_on_c, 0, 63, 0
2, 412600, Note_on_c, 0, 68, 97
2, 412791, Note_on_c, 0, 68, 0
2, 412792, Note_on_c, 0, 65, 97
2, 412983, Note_on_c, 0, 65, 0
2, 412984, Note_on_c, 0, 77, 97
2, 412984, Note_on_c, 0, 62, 97
2, 413174, Note_on_c, 0, 77, 0
2, 413175, Note_on_c, 0, 62, 0
2, 413176, Note_on_c, 0, 67, 97
2, 413367, Note_on_c, 0, 67, 0
2, 413368, Note_on_c, 0, 63, 97
2, 413559, Note_on_c, 0, 63, 0
2, 413560, Note_on_c, 0, 75, 97
2, 413560, Note_on_c, 0, 60, 97
2, 413750, Note_on_c, 0, 75, 0
2, 413751, Note_on_c, 0, 60, 0
2, 413752, Note_on_c, 0, 65, 97
2, 413943, Note_on_c, 0, 65, 0
2, 413944, Note_on_c, 0, 62, 97
2, 414135, Note_on_c, 0, 62, 0
2, 414136, Note_on_c, 0, 74, 97
2, 414136, Note_on_c, 0, 59, 97
2, 414326, Note_on_c, 0, 74, 0
2, 414327, Note_on_c, 0, 59, 0
2, 414328, Note_on_c, 0, 63, 97
2, 414519, Note_on_c, 0, 63, 0
2, 414520, Note_on_c, 0, 60, 97
2, 414711, Note_on_c, 0, 60, 0
2, 414712, Note_on_c, 0, 56, 97
2, 414808, Note_on_c, 0, 72, 97
2, 414903, Note_on_c, 0, 72, 0
2, 414903, Note_on_c, 0, 56, 0
2, 414904, Note_on_c, 0, 62, 97
2, 414904, Note_on_c, 0, 53, 97
2, 414999, Note_on_c, 0, 62, 0
2, 415000, Note_on_c, 0, 65, 97
2, 415095, Note_on_c, 0, 65, 0
2, 415095, Note_on_c, 0, 53, 0
2, 415096, Note_on_c, 0, 72, 97
2, 415096, Note_on_c, 0, 55, 97
2, 415191, Note_on_c, 0, 72, 0
2, 415192, Note_on_c, 0, 71, 97
2, 415287, Note_on_c, 0, 71, 0
2, 415287, Note_on_c, 0, 55, 0
2, 415288, Note_on_c, 0, 72, 97
2, 415288, Note_on_c, 0, 48, 97
2, 415479, Note_on_c, 0, 48, 0
2, 415480, Note_on_c, 0, 43, 97
2, 415671, Note_on_c, 0, 43, 0
2, 415672, Note_on_c, 0, 39, 97
2, 415768, Note_on_c, 0, 72, 0
2, 415863, Note_on_c, 0, 39, 0
2, 415864, Note_on_c, 0, 63, 97
2, 415864, Note_on_c, 0, 36, 97
2, 415959, Note_on_c, 0, 63, 0
2, 415960, Note_on_c, 0, 62, 97
2, 416055, Note_on_c, 0, 62, 0
2, 416056, Note_on_c, 0, 63, 97
2, 416144, Note_on_c, 0, 36, 0
2, 416151, Note_on_c, 0, 63, 0
2, 416152, Note_on_c, 0, 65, 97
2, 416247, Note_on_c, 0, 65, 0
2, 416248, Note_on_c, 0, 67, 97
2, 416343, Note_on_c, 0, 67, 0
2, 416344, Note_on_c, 0, 68, 97
2, 416439, Note_on_c, 0, 68, 0
2, 416440, Note_on_c, 0, 70, 97
2, 416440, Note_on_c, 0, 55, 97
2, 416535, Note_on_c, 0, 70, 0
2, 416536, Note_on_c, 0, 75, 97
2, 416631, Note_on_c, 0, 75, 0
2, 416631, Note_on_c, 0, 55, 0
2, 416632, Note_on_c, 0, 70, 97
2, 416632, Note_on_c, 0, 53, 97
2, 416727, Note_on_c, 0, 70, 0
2, 416728, Note_on_c, 0, 68, 97
2, 416823, Note_on_c, 0, 68, 0
2, 416823, Note_on_c, 0, 53, 0
2, 416824, Note_on_c, 0, 70, 97
2, 416824, Note_on_c, 0, 51, 97
2, 417015, Note_on_c, 0, 51, 0
2, 417016, Note_on_c, 0, 50, 97
2, 417044, Note_on_c, 0, 70, 0
2, 417112, Note_on_c, 0, 77, 97
2, 417207, Note_on_c, 0, 77, 0
2, 417207, Note_on_c, 0, 50, 0
2, 417208, Note_on_c, 0, 70, 97
2, 417208, Note_on_c, 0, 48, 97
2, 417303, Note_on_c, 0, 70, 0
2, 417304, Note_on_c, 0, 68, 97
2, 417399, Note_on_c, 0, 68, 0
2, 417399, Note_on_c, 0, 48, 0
2, 417400, Note_on_c, 0, 70, 97
2, 417400, Note_on_c, 0, 46, 97
2, 417591, Note_on_c, 0, 46, 0
2, 417592, Note_on_c, 0, 51, 97
2, 417620, Note_on_c, 0, 70, 0
2, 417688, Note_on_c, 0, 79, 97
2, 417783, Note_on_c, 0, 79, 0
2, 417783, Note_on_c, 0, 51, 0
2, 417784, Note_on_c, 0, 70, 97
2, 417784, Note_on_c, 0, 55, 97
2, 417879, Note_on_c, 0, 70, 0
2, 417880, Note_on_c, 0, 68, 97
2, 417975, Note_on_c, 0, 68, 0
2, 417975, Note_on_c, 0, 55, 0
2, 417976, Note_on_c, 0, 70, 97
2, 417976, Note_on_c, 0, 53, 97
2, 418167, Note_on_c, 0, 53, 0
2, 418168, Note_on_c, 0, 52, 97
2, 418196, Note_on_c, 0, 70, 0
2, 418264, Note_on_c, 0, 73, 97
2, 418359, Note_on_c, 0, 73, 0
2, 418359, Note_on_c, 0, 52, 0
2, 418360, Note_on_c, 0, 72, 97
2, 418360, Note_on_c, 0, 55, 97
2, 418455, Note_on_c, 0, 72, 0
2, 418456, Note_on_c, 0, 70, 97
2, 418551, Note_on_c, 0, 70, 0
2, 418551, Note_on_c, 0, 55, 0
2, 418552, Note_on_c, 0, 68, 97
2, 418552, Note_on_c, 0, 48, 97
2, 418647, Note_on_c, 0, 68, 0
2, 418648, Note_on_c, 0, 67, 97
2, 418743, Note_on_c, 0, 67, 0
2, 418743, Note_on_c, 0, 48, 0
2, 418744, Note_on_c, 0, 68, 97
2, 418744, Note_on_c, 0, 53, 97
2, 418839, Note_on_c, 0, 68, 0
2, 418840, Note_on_c, 0, 72, 97
2, 418935, Note_on_c, 0, 72, 0
2, 418935, Note_on_c, 0, 53, 0
2, 418936, Note_on_c, 0, 77, 97
2, 418936, Note_on_c, 0, 56, 97
2, 419031, Note_on_c, 0, 77, 0
2, 419032, Note_on_c, 0, 72, 97
2, 419112, Note_on_c, 0, 72, 0
2, 419127, Note_on_c, 0, 56, 0
2, 419128, Note_on_c, 0, 80, 97
2, 419128, Note_on_c, 0, 49, 97
2, 419319, Note_on_c, 0, 49, 0
2, 419320, Note_on_c, 0, 58, 97
2, 419415, Note_on_c, 0, 80, 0
2, 419416, Note_on_c, 0, 77, 97
2, 419500, Note_on_c, 0, 77, 0
2, 419511, Note_on_c, 0, 58, 0
2, 419512, Note_on_c, 0, 80, 97
2, 419512, Note_on_c, 0, 48, 97
2, 419607, Note_on_c, 0, 80, 0
2, 419608, Note_on_c, 0, 79, 97
2, 419703, Note_on_c, 0, 79, 0
2, 419703, Note_on_c, 0, 48, 0
2, 419704, Note_on_c, 0, 77, 97
2, 419704, Note_on_c, 0, 60, 97
2, 419799, Note_on_c, 0, 77, 0
2, 419800, Note_on_c, 0, 76, 97
2, 419895, Note_on_c, 0, 76, 0
2, 419895, Note_on_c, 0, 60, 0
2, 419896, Note_on_c, 0, 77, 97
2, 419896, Note_on_c, 0, 58, 97
2, 419991, Note_on_c, 0, 58, 0
2, 419992, Note_on_c, 0, 56, 97
2, 420087, Note_on_c, 0, 56, 0
2, 420088, Note_on_c, 0, 58, 97
2, 420183, Note_on_c, 0, 58, 0
2, 420184, Note_on_c, 0, 56, 97
2, 420279, Note_on_c, 0, 56, 0
2, 420280, Note_on_c, 0, 55, 97
2, 420375, Note_on_c, 0, 55, 0
2, 420376, Note_on_c, 0, 77, 0
2, 420376, Note_on_c, 0, 53, 97
2, 420471, Note_on_c, 0, 53, 0
2, 420472, Note_on_c, 0, 58, 97
2, 420568, Note_on_c, 0, 80, 97
2, 420663, Note_on_c, 0, 80, 0
2, 420663, Note_on_c, 0, 58, 0
2, 420664, Note_on_c, 0, 74, 97
2, 420664, Note_on_c, 0, 53, 97
2, 420759, Note_on_c, 0, 74, 0
2, 420760, Note_on_c, 0, 75, 97
2, 420855, Note_on_c, 0, 75, 0
2, 420855, Note_on_c, 0, 53, 0
2, 420856, Note_on_c, 0, 77, 97
2, 420856, Note_on_c, 0, 56, 97
2, 420951, Note_on_c, 0, 77, 0
2, 420952, Note_on_c, 0, 74, 97
2, 421047, Note_on_c, 0, 74, 0
2, 421047, Note_on_c, 0, 56, 0
2, 421048, Note_on_c, 0, 72, 97
2, 421048, Note_on_c, 0, 50, 97
2, 421143, Note_on_c, 0, 72, 0
2, 421144, Note_on_c, 0, 70, 97
2, 421239, Note_on_c, 0, 70, 0
2, 421239, Note_on_c, 0, 50, 0
2, 421240, Note_on_c, 0, 72, 97
2, 421240, Note_on_c, 0, 53, 97
2, 421335, Note_on_c, 0, 72, 0
2, 421336, Note_on_c, 0, 74, 97
2, 421431, Note_on_c, 0, 74, 0
2, 421431, Note_on_c, 0, 53, 0
2, 421432, Note_on_c, 0, 75, 97
2, 421432, Note_on_c, 0, 46, 97
2, 421527, Note_on_c, 0, 75, 0
2, 421528, Note_on_c, 0, 77, 97
2, 421623, Note_on_c, 0, 77, 0
2, 421623, Note_on_c, 0, 46, 0
2, 421624, Note_on_c, 0, 79, 97
2, 421624, Note_on_c, 0, 39, 97
2, 421719, Note_on_c, 0, 79, 0
2, 421720, Note_on_c, 0, 82, 97
2, 421815, Note_on_c, 0, 82, 0
2, 421815, Note_on_c, 0, 39, 0
2, 421816, Note_on_c, 0, 75, 97
2, 421816, Note_on_c, 0, 55, 97
2, 421911, Note_on_c, 0, 75, 0
2, 421912, Note_on_c, 0, 77, 97
2, 422007, Note_on_c, 0, 77, 0
2, 422007, Note_on_c, 0, 55, 0
2, 422008, Note_on_c, 0, 79, 97
2, 422008, Note_on_c, 0, 58, 97
2, 422103, Note_on_c, 0, 79, 0
2, 422104, Note_on_c, 0, 75, 97
2, 422199, Note_on_c, 0, 75, 0
2, 422199, Note_on_c, 0, 58, 0
2, 422200, Note_on_c, 0, 73, 97
2, 422200, Note_on_c, 0, 52, 97
2, 422295, Note_on_c, 0, 73, 0
2, 422296, Note_on_c, 0, 72, 97
2, 422391, Note_on_c, 0, 72, 0
2, 422391, Note_on_c, 0, 52, 0
2, 422392, Note_on_c, 0, 74, 97
2, 422392, Note_on_c, 0, 55, 97
2, 422487, Note_on_c, 0, 74, 0
2, 422488, Note_on_c, 0, 76, 97
2, 422583, Note_on_c, 0, 76, 0
2, 422583, Note_on_c, 0, 55, 0
2, 422584, Note_on_c, 0, 77, 97
2, 422584, Note_on_c, 0, 48, 97
2, 422679, Note_on_c, 0, 77, 0
2, 422680, Note_on_c, 0, 79, 97
2, 422775, Note_on_c, 0, 79, 0
2, 422775, Note_on_c, 0, 48, 0
2, 422776, Note_on_c, 0, 80, 97
2, 422776, Note_on_c, 0, 41, 97
2, 422871, Note_on_c, 0, 80, 0
2, 422872, Note_on_c, 0, 84, 97
2, 422967, Note_on_c, 0, 84, 0
2, 422967, Note_on_c, 0, 41, 0
2, 422968, Note_on_c, 0, 77, 97
2, 422968, Note_on_c, 0, 56, 97
2, 423063, Note_on_c, 0, 77, 0
2, 423064, Note_on_c, 0, 79, 97
2, 423159, Note_on_c, 0, 79, 0
2, 423159, Note_on_c, 0, 56, 0
2, 423160, Note_on_c, 0, 80, 97
2, 423160, Note_on_c, 0, 60, 97
2, 423255, Note_on_c, 0, 80, 0
2, 423256, Note_on_c, 0, 77, 97
2, 423351, Note_on_c, 0, 77, 0
2, 423351, Note_on_c, 0, 60, 0
2, 423352, Note_on_c, 0, 75, 97
2, 423352, Note_on_c, 0, 53, 97
2, 423447, Note_on_c, 0, 75, 0
2, 423448, Note_on_c, 0, 73, 97
2, 423543, Note_on_c, 0, 73, 0
2, 423543, Note_on_c, 0, 53, 0
2, 423544, Note_on_c, 0, 72, 97
2, 423544, Note_on_c, 0, 56, 97
2, 423639, Note_on_c, 0, 72, 0
2, 423640, Note_on_c, 0, 71, 97
2, 423735, Note_on_c, 0, 71, 0
2, 423735, Note_on_c, 0, 56, 0
2, 423736, Note_on_c, 0, 79, 97
2, 423736, Note_on_c, 0, 50, 97
2, 423927, Note_on_c, 0, 50, 0
2, 423928, Note_on_c, 0, 51, 97
2, 423996, Note_on_c, 0, 79, 0
2, 424024, Note_on_c, 0, 72, 97
2, 424119, Note_on_c, 0, 72, 0
2, 424119, Note_on_c, 0, 51, 0
2, 424120, Note_on_c, 0, 77, 97
2, 424120, Note_on_c, 0, 44, 97
2, 424215, Note_on_c, 0, 77, 0
2, 424216, Note_on_c, 0, 75, 97
2, 424311, Note_on_c, 0, 75, 0
2, 424311, Note_on_c, 0, 44, 0
2, 424312, Note_on_c, 0, 74, 97
2, 424312, Note_on_c, 0, 53, 97
2, 424407, Note_on_c, 0, 74, 0
2, 424408, Note_on_c, 0, 72, 97
2, 424503, Note_on_c, 0, 72, 0
2, 424503, Note_on_c, 0, 53, 0
2, 424504, Note_on_c, 0, 71, 97
2, 424504, Note_on_c, 0, 43, 97
2, 424599, Note_on_c, 0, 71, 0
2, 424600, Note_on_c, 0, 72, 97
2, 424695, Note_on_c, 0, 72, 0
2, 424695, Note_on_c, 0, 43, 0
2, 424696, Note_on_c, 0, 74, 97
2, 424696, Note_on_c, 0, 55, 97
2, 424791, Note_on_c, 0, 74, 0
2, 424792, Note_on_c, 0, 71, 97
2, 424887, Note_on_c, 0, 71, 0
2, 424888, Note_on_c, 0, 67, 97
2, 424983, Note_on_c, 0, 67, 0
2, 424983, Note_on_c, 0, 55, 0
2, 424984, Note_on_c, 0, 65, 97
2, 425079, Note_on_c, 0, 65, 0
2, 425080, Note_on_c, 0, 84, 97
2, 425080, Note_on_c, 0, 63, 97
2, 425175, Note_on_c, 0, 63, 0
2, 425176, Note_on_c, 0, 65, 97
2, 425271, Note_on_c, 0, 65, 0
2, 425271, Note_on_c, 0, 84, 0
2, 425272, Note_on_c, 0, 72, 97
2, 425272, Note_on_c, 0, 67, 97
2, 425367, Note_on_c, 0, 67, 0
2, 425368, Note_on_c, 0, 69, 97
2, 425463, Note_on_c, 0, 69, 0
2, 425463, Note_on_c, 0, 72, 0
2, 425464, Note_on_c, 0, 74, 97
2, 425464, Note_on_c, 0, 71, 97
2, 425559, Note_on_c, 0, 71, 0
2, 425560, Note_on_c, 0, 67, 97
2, 425655, Note_on_c, 0, 67, 0
2, 425655, Note_on_c, 0, 74, 0
2, 425656, Note_on_c, 0, 75, 97
2, 425656, Note_on_c, 0, 72, 97
2, 425847, Note_on_c, 0, 72, 0
2, 425848, Note_on_c, 0, 60, 97
2, 426039, Note_on_c, 0, 60, 0
2, 426039, Note_on_c, 0, 75, 0
2, 426040, Note_on_c, 0, 77, 97
2, 426040, Note_on_c, 0, 62, 97
2, 426231, Note_on_c, 0, 62, 0
2, 426231, Note_on_c, 0, 77, 0
2, 426232, Note_on_c, 0, 79, 97
2, 426232, Note_on_c, 0, 63, 97
2, 426423, Note_on_c, 0, 63, 0
2, 426424, Note_on_c, 0, 68, 97
2, 426612, Note_on_c, 0, 79, 0
2, 426615, Note_on_c, 0, 68, 0
2, 426616, Note_on_c, 0, 65, 97
2, 426807, Note_on_c, 0, 65, 0
2, 426808, Note_on_c, 0, 77, 97
2, 426808, Note_on_c, 0, 62, 97
2, 426999, Note_on_c, 0, 62, 0
2, 427000, Note_on_c, 0, 67, 97
2, 427188, Note_on_c, 0, 77, 0
2, 427191, Note_on_c, 0, 67, 0
2, 427192, Note_on_c, 0, 63, 97
2, 427383, Note_on_c, 0, 63, 0
2, 427384, Note_on_c, 0, 75, 97
2, 427384, Note_on_c, 0, 60, 97
2, 427575, Note_on_c, 0, 60, 0
2, 427576, Note_on_c, 0, 65, 97
2, 427764, Note_on_c, 0, 75, 0
2, 427767, Note_on_c, 0, 65, 0
2, 427768, Note_on_c, 0, 62, 97
2, 427959, Note_on_c, 0, 62, 0
2, 427960, Note_on_c, 0, 74, 97
2, 427960, Note_on_c, 0, 59, 97
2, 428151, Note_on_c, 0, 59, 0
2, 428152, Note_on_c, 0, 63, 97
2, 428340, Note_on_c, 0, 74, 0
2, 428343, Note_on_c, 0, 63, 0
2, 428344, Note_on_c, 0, 60, 97
2, 428535, Note_on_c, 0, 60, 0
2, 428536, Note_on_c, 0, 56, 97
2, 428727, Note_on_c, 0, 56, 0
2, 428728, Note_on_c, 0, 72, 97
2, 428728, Note_on_c, 0, 53, 97
2, 428823, Note_on_c, 0, 72, 0
2, 428824, Note_on_c, 0, 71, 97
2, 428919, Note_on_c, 0, 71, 0
2, 428919, Note_on_c, 0, 53, 0
2, 428920, Note_on_c, 0, 72, 97
2, 428920, Note_on_c, 0, 50, 97
2, 429015, Note_on_c, 0, 72, 0
2, 429016, Note_on_c, 0, 74, 97
2, 429111, Note_on_c, 0, 74, 0
2, 429111, Note_on_c, 0, 50, 0
2, 429112, Note_on_c, 0, 71, 97
2, 429112, Note_on_c, 0, 55, 97
2, 429207, Note_on_c, 0, 71, 0
2, 429208, Note_on_c, 0, 69, 97
2, 429302, Note_on_c, 0, 55, 0
2, 429303, Note_on_c, 0, 69, 0
2, 429304, Note_on_c, 0, 67, 97
2, 429400, Note_on_c, 0, 65, 97
2, 429495, Note_on_c, 0, 65, 0
2, 429496, Note_on_c, 0, 63, 97
2, 429591, Note_on_c, 0, 63, 0
2, 429592, Note_on_c, 0, 62, 97
2, 429684, Note_on_c, 0, 67, 0
2, 429687, Note_on_c, 0, 62, 0
2, 429688, Note_on_c, 0, 84, 97
2, 429688, Note_on_c, 0, 60, 97
2, 429878, Note_on_c, 0, 60, 0
2, 429879, Note_on_c, 0, 84, 0
2, 429880, Note_on_c, 0, 72, 97
2, 430072, Note_on_c, 0, 74, 97
2, 430263, Note_on_c, 0, 74, 0
2, 430264, Note_on_c, 0, 75, 97
2, 430456, Note_on_c, 0, 60, 97
2, 430647, Note_on_c, 0, 60, 0
2, 430647, Note_on_c, 0, 75, 0
2, 430647, Note_on_c, 0, 72, 0
2, 430648, Note_on_c, 0, 77, 97
2, 430648, Note_on_c, 0, 62, 97
2, 430839, Note_on_c, 0, 62, 0
2, 430839, Note_on_c, 0, 77, 0
2, 430840, Note_on_c, 0, 79, 97
2, 430840, Note_on_c, 0, 63, 97
2, 431030, Note_on_c, 0, 79, 0
2, 431032, Note_on_c, 0, 68, 97
2, 431223, Note_on_c, 0, 68, 0
2, 431224, Note_on_c, 0, 65, 97
2, 431415, Note_on_c, 0, 65, 0
2, 431415, Note_on_c, 0, 63, 0
2, 431416, Note_on_c, 0, 77, 97
2, 431416, Note_on_c, 0, 62, 97
2, 431606, Note_on_c, 0, 77, 0
2, 431608, Note_on_c, 0, 67, 97
2, 431799, Note_on_c, 0, 67, 0
2, 431800, Note_on_c, 0, 63, 97
2, 431991, Note_on_c, 0, 63, 0
2, 431991, Note_on_c, 0, 62, 0
2, 431992, Note_on_c, 0, 75, 97
2, 431992, Note_on_c, 0, 60, 97
2, 432182, Note_on_c, 0, 75, 0
2, 432184, Note_on_c, 0, 65, 97
2, 432375, Note_on_c, 0, 65, 0
2, 432376, Note_on_c, 0, 62, 97
2, 432567, Note_on_c, 0, 62, 0
2, 432567, Note_on_c, 0, 60, 0
2, 432568, Note_on_c, 0, 74, 97
2, 432568, Note_on_c, 0, 59, 97
2, 432758, Note_on_c, 0, 74, 0
2, 432760, Note_on_c, 0, 63, 97
2, 432948, Note_on_c, 0, 59, 0
2, 432951, Note_on_c, 0, 63, 0
2, 432952, Note_on_c, 0, 60, 97
2, 433143, Note_on_c, 0, 60, 0
2, 433144, Note_on_c, 0, 56, 97
2, 433240, Note_on_c, 0, 72, 97
2, 433335, Note_on_c, 0, 72, 0
2, 433335, Note_on_c, 0, 56, 0
2, 433336, Note_on_c, 0, 62, 97
2, 433336, Note_on_c, 0, 53, 97
2, 433431, Note_on_c, 0, 62, 0
2, 433432, Note_on_c, 0, 65, 97
2, 433527, Note_on_c, 0, 65, 0
2, 433527, Note_on_c, 0, 53, 0
2, 433528, Note_on_c, 0, 72, 97
2, 433528, Note_on_c, 0, 55, 97
2, 433623, Note_on_c, 0, 72, 0
2, 433624, Note_on_c, 0, 71, 97
2, 433719, Note_on_c, 0, 71, 0
2, 433719, Note_on_c, 0, 55, 0
2, 433720, Note_on_c, 0, 72, 97
2, 433720, Note_on_c, 0, 48, 97
2, 433815, Note_on_c, 0, 48, 0
2, 433816, Note_on_c, 0, 51, 97
2, 433911, Note_on_c, 0, 51, 0
2, 433912, Note_on_c, 0, 55, 97
2, 434007, Note_on_c, 0, 55, 0
2, 434008, Note_on_c, 0, 48, 97
2, 434100, Note_on_c, 0, 72, 0
2, 434103, Note_on_c, 0, 48, 0
2, 434104, Note_on_c, 0, 51, 97
2, 434199, Note_on_c, 0, 51, 0
2, 434200, Note_on_c, 0, 55, 97
2, 434295, Note_on_c, 0, 55, 0
2, 434296, Note_on_c, 0, 60, 97
2, 434392, Note_on_c, 0, 75, 97
2, 434487, Note_on_c, 0, 75, 0
2, 434488, Note_on_c, 0, 72, 97
2, 434488, Note_on_c, 0, 48, 97
2, 434583, Note_on_c, 0, 72, 0
2, 434584, Note_on_c, 0, 67, 97
2, 434676, Note_on_c, 0, 60, 0
2, 434679, Note_on_c, 0, 67, 0
2, 434679, Note_on_c, 0, 48, 0
2, 434680, Note_on_c, 0, 68, 97
2, 434680, Note_on_c, 0, 60, 97
2, 434775, Note_on_c, 0, 68, 0
2, 434776, Note_on_c, 0, 63, 97
2, 434871, Note_on_c, 0, 63, 0
2, 434872, Note_on_c, 0, 65, 97
2, 434967, Note_on_c, 0, 65, 0
2, 434968, Note_on_c, 0, 68, 97
2, 435063, Note_on_c, 0, 68, 0
2, 435064, Note_on_c, 0, 74, 97
2, 435064, Note_on_c, 0, 48, 97
2, 435140, Note_on_c, 0, 60, 0
2, 435159, Note_on_c, 0, 48, 0
2, 435160, Note_on_c, 0, 60, 97
2, 435255, Note_on_c, 0, 60, 0
2, 435256, Note_on_c, 0, 58, 97
2, 435351, Note_on_c, 0, 58, 0
2, 435352, Note_on_c, 0, 56, 97
2, 435447, Note_on_c, 0, 56, 0
2, 435448, Note_on_c, 0, 58, 97
2, 435543, Note_on_c, 0, 74, 0
2, 435544, Note_on_c, 0, 74, 97
2, 435639, Note_on_c, 0, 74, 0
2, 435640, Note_on_c, 0, 70, 97
2, 435640, Note_on_c, 0, 46, 97
2, 435735, Note_on_c, 0, 70, 0
2, 435736, Note_on_c, 0, 66, 97
2, 435828, Note_on_c, 0, 58, 0
2, 435831, Note_on_c, 0, 66, 0
2, 435831, Note_on_c, 0, 46, 0
2, 435832, Note_on_c, 0, 67, 97
2, 435832, Note_on_c, 0, 58, 97
2, 435927, Note_on_c, 0, 67, 0
2, 435928, Note_on_c, 0, 62, 97
2, 436023, Note_on_c, 0, 62, 0
2, 436024, Note_on_c, 0, 64, 97
2, 436119, Note_on_c, 0, 64, 0
2, 436120, Note_on_c, 0, 67, 97
2, 436215, Note_on_c, 0, 67, 0
2, 436216, Note_on_c, 0, 72, 97
2, 436216, Note_on_c, 0, 46, 97
2, 436262, Note_on_c, 0, 58, 0
2, 436311, Note_on_c, 0, 46, 0
2, 436312, Note_on_c, 0, 58, 97
2, 436407, Note_on_c, 0, 58, 0
2, 436408, Note_on_c, 0, 56, 97
2, 436503, Note_on_c, 0, 56, 0
2, 436504, Note_on_c, 0, 55, 97
2, 436599, Note_on_c, 0, 55, 0
2, 436600, Note_on_c, 0, 56, 97
2, 436695, Note_on_c, 0, 72, 0
2, 436696, Note_on_c, 0, 72, 97
2, 436791, Note_on_c, 0, 72, 0
2, 436792, Note_on_c, 0, 68, 97
2, 436792, Note_on_c, 0, 44, 97
2, 436887, Note_on_c, 0, 68, 0
2, 436888, Note_on_c, 0, 64, 97
2, 436980, Note_on_c, 0, 56, 0
2, 436983, Note_on_c, 0, 64, 0
2, 436983, Note_on_c, 0, 44, 0
2, 436984, Note_on_c, 0, 65, 97
2, 436984, Note_on_c, 0, 56, 97
2, 437079, Note_on_c, 0, 65, 0
2, 437080, Note_on_c, 0, 60, 97
2, 437175, Note_on_c, 0, 60, 0
2, 437176, Note_on_c, 0, 62, 97
2, 437271, Note_on_c, 0, 62, 0
2, 437272, Note_on_c, 0, 65, 97
2, 437367, Note_on_c, 0, 65, 0
2, 437368, Note_on_c, 0, 70, 97
2, 437368, Note_on_c, 0, 44, 97
2, 437414, Note_on_c, 0, 56, 0
2, 437463, Note_on_c, 0, 44, 0
2, 437464, Note_on_c, 0, 56, 97
2, 437559, Note_on_c, 0, 56, 0
2, 437560, Note_on_c, 0, 55, 97
2, 437655, Note_on_c, 0, 55, 0
2, 437656, Note_on_c, 0, 53, 97
2, 437751, Note_on_c, 0, 53, 0
2, 437752, Note_on_c, 0, 55, 97
2, 437847, Note_on_c, 0, 70, 0
2, 437848, Note_on_c, 0, 70, 97
2, 437943, Note_on_c, 0, 70, 0
2, 437943, Note_on_c, 0, 55, 0
2, 437944, Note_on_c, 0, 72, 97
2, 437944, Note_on_c, 0, 53, 97
2, 438039, Note_on_c, 0, 72, 0
2, 438040, Note_on_c, 0, 74, 97
2, 438135, Note_on_c, 0, 74, 0
2, 438135, Note_on_c, 0, 53, 0
2, 438136, Note_on_c, 0, 75, 97
2, 438136, Note_on_c, 0, 51, 97
2, 438231, Note_on_c, 0, 75, 0
2, 438232, Note_on_c, 0, 77, 97
2, 438327, Note_on_c, 0, 77, 0
2, 438327, Note_on_c, 0, 51, 0
2, 438328, Note_on_c, 0, 79, 97
2, 438328, Note_on_c, 0, 58, 97
2, 438423, Note_on_c, 0, 79, 0
2, 438424, Note_on_c, 0, 75, 97
2, 438519, Note_on_c, 0, 75, 0
2, 438520, Note_on_c, 0, 77, 97
2, 438520, Note_on_c, 0, 46, 97
2, 438615, Note_on_c, 0, 77, 0
2, 438616, Note_on_c, 0, 74, 97
2, 438708, Note_on_c, 0, 58, 0
2, 438711, Note_on_c, 0, 74, 0
2, 438711, Note_on_c, 0, 46, 0
2, 438712, Note_on_c, 0, 70, 97
2, 438712, Note_on_c, 0, 58, 97
2, 438807, Note_on_c, 0, 70, 0
2, 438808, Note_on_c, 0, 74, 97
2, 438903, Note_on_c, 0, 74, 0
2, 438904, Note_on_c, 0, 77, 97
2, 438999, Note_on_c, 0, 77, 0
2, 439000, Note_on_c, 0, 80, 97
2, 439095, Note_on_c, 0, 80, 0
2, 439095, Note_on_c, 0, 58, 0
2, 439096, Note_on_c, 0, 79, 97
2, 439096, Note_on_c, 0, 51, 97
2, 439191, Note_on_c, 0, 79, 0
2, 439192, Note_on_c, 0, 75, 97
2, 439287, Note_on_c, 0, 75, 0
2, 439287, Note_on_c, 0, 51, 0
2, 439288, Note_on_c, 0, 70, 97
2, 439288, Note_on_c, 0, 53, 97
2, 439383, Note_on_c, 0, 70, 0
2, 439384, Note_on_c, 0, 74, 97
2, 439479, Note_on_c, 0, 74, 0
2, 439479, Note_on_c, 0, 53, 0
2, 439480, Note_on_c, 0, 75, 97
2, 439480, Note_on_c, 0, 55, 97
2, 439575, Note_on_c, 0, 75, 0
2, 439576, Note_on_c, 0, 79, 97
2, 439671, Note_on_c, 0, 79, 0
2, 439671, Note_on_c, 0, 55, 0
2, 439672, Note_on_c, 0, 77, 97
2, 439672, Note_on_c, 0, 58, 97
2, 439767, Note_on_c, 0, 77, 0
2, 439768, Note_on_c, 0, 74, 97
2, 439863, Note_on_c, 0, 74, 0
2, 439864, Note_on_c, 0, 68, 97
2, 439959, Note_on_c, 0, 68, 0
2, 439960, Note_on_c, 0, 72, 97
2, 440055, Note_on_c, 0, 72, 0
2, 440055, Note_on_c, 0, 58, 0
2, 440056, Note_on_c, 0, 74, 97
2, 440056, Note_on_c, 0, 56, 97
2, 440151, Note_on_c, 0, 74, 0
2, 440152, Note_on_c, 0, 77, 97
2, 440247, Note_on_c, 0, 77, 0
2, 440247, Note_on_c, 0, 56, 0
2, 440248, Note_on_c, 0, 75, 97
2, 440248, Note_on_c, 0, 55, 97
2, 440343, Note_on_c, 0, 75, 0
2, 440344, Note_on_c, 0, 72, 97
2, 440439, Note_on_c, 0, 72, 0
2, 440439, Note_on_c, 0, 55, 0
2, 440440, Note_on_c, 0, 66, 97
2, 440440, Note_on_c, 0, 51, 97
2, 440535, Note_on_c, 0, 66, 0
2, 440536, Note_on_c, 0, 69, 97
2, 440631, Note_on_c, 0, 69, 0
2, 440631, Note_on_c, 0, 51, 0
2, 440632, Note_on_c, 0, 72, 97
2, 440632, Note_on_c, 0, 46, 97
2, 440727, Note_on_c, 0, 72, 0
2, 440728, Note_on_c, 0, 75, 97
2, 440823, Note_on_c, 0, 75, 0
2, 440823, Note_on_c, 0, 46, 0
2, 440824, Note_on_c, 0, 74, 97
2, 440824, Note_on_c, 0, 58, 97
2, 440919, Note_on_c, 0, 74, 0
2, 440920, Note_on_c, 0, 70, 97
2, 441015, Note_on_c, 0, 70, 0
2, 441015, Note_on_c, 0, 58, 0
2, 441016, Note_on_c, 0, 65, 97
2, 441016, Note_on_c, 0, 56, 97
2, 441111, Note_on_c, 0, 65, 0
2, 441112, Note_on_c, 0, 68, 97
2, 441207, Note_on_c, 0, 68, 0
2, 441207, Note_on_c, 0, 56, 0
2, 441208, Note_on_c, 0, 70, 97
2, 441208, Note_on_c, 0, 55, 97
2, 441303, Note_on_c, 0, 70, 0
2, 441304, Note_on_c, 0, 75, 97
2, 441399, Note_on_c, 0, 75, 0
2, 441400, Note_on_c, 0, 70, 97
2, 441400, Note_on_c, 0, 43, 97
2, 441495, Note_on_c, 0, 70, 0
2, 441496, Note_on_c, 0, 67, 97
2, 441588, Note_on_c, 0, 55, 0
2, 441591, Note_on_c, 0, 67, 0
2, 441591, Note_on_c, 0, 43, 0
2, 441592, Note_on_c, 0, 63, 97
2, 441592, Note_on_c, 0, 55, 97
2, 441687, Note_on_c, 0, 63, 0
2, 441688, Note_on_c, 0, 62, 97
2, 441783, Note_on_c, 0, 62, 0
2, 441784, Note_on_c, 0, 63, 97
2, 441879, Note_on_c, 0, 63, 0
2, 441880, Note_on_c, 0, 70, 97
2, 441975, Note_on_c, 0, 70, 0
2, 441976, Note_on_c, 0, 67, 97
2, 441976, Note_on_c, 0, 44, 97
2, 442071, Note_on_c, 0, 67, 0
2, 442072, Note_on_c, 0, 63, 97
2, 442167, Note_on_c, 0, 63, 0
2, 442167, Note_on_c, 0, 44, 0
2, 442167, Note_on_c, 0, 55, 0
2, 442168, Note_on_c, 0, 58, 97
2, 442168, Note_on_c, 0, 55, 97
2, 442263, Note_on_c, 0, 58, 0
2, 442264, Note_on_c, 0, 56, 97
2, 442359, Note_on_c, 0, 56, 0
2, 442360, Note_on_c, 0, 58, 97
2, 442455, Note_on_c, 0, 58, 0
2, 442456, Note_on_c, 0, 67, 97
2, 442551, Note_on_c, 0, 67, 0
2, 442552, Note_on_c, 0, 63, 97
2, 442552, Note_on_c, 0, 46, 97
2, 442647, Note_on_c, 0, 63, 0
2, 442648, Note_on_c, 0, 58, 97
2, 442743, Note_on_c, 0, 58, 0
2, 442743, Note_on_c, 0, 46, 0
2, 442743, Note_on_c, 0, 55, 0
2, 442744, Note_on_c, 0, 56, 97
2, 442744, Note_on_c, 0, 53, 97
2, 442839, Note_on_c, 0, 56, 0
2, 442840, Note_on_c, 0, 62, 97
2, 442935, Note_on_c, 0, 62, 0
2, 442935, Note_on_c, 0, 53, 0
2, 442936, Note_on_c, 0, 55, 97
2, 442936, Note_on_c, 0, 51, 97
2, 443031, Note_on_c, 0, 55, 0
2, 443032, Note_on_c, 0, 63, 97
2, 443127, Note_on_c, 0, 63, 0
2, 443128, Note_on_c, 0, 58, 97
2, 443223, Note_on_c, 0, 58, 0
2, 443224, Note_on_c, 0, 55, 97
2, 443316, Note_on_c, 0, 51, 0
2, 443319, Note_on_c, 0, 55, 0
2, 443320, Note_on_c, 0, 51, 97
2, 443415, Note_on_c, 0, 51, 0
2, 443416, Note_on_c, 0, 50, 97
2, 443511, Note_on_c, 0, 50, 0
2, 443512, Note_on_c, 0, 51, 97
2, 443607, Note_on_c, 0, 51, 0
2, 443608, Note_on_c, 0, 67, 97
2, 443608, Note_on_c, 0, 53, 97
2, 443703, Note_on_c, 0, 53, 0
2, 443703, Note_on_c, 0, 67, 0
2, 443704, Note_on_c, 0, 69, 97
2, 443704, Note_on_c, 0, 51, 97
2, 443799, Note_on_c, 0, 51, 0
2, 443799, Note_on_c, 0, 69, 0
2, 443800, Note_on_c, 0, 71, 97
2, 443800, Note_on_c, 0, 50, 97
2, 443895, Note_on_c, 0, 50, 0
2, 443895, Note_on_c, 0, 71, 0
2, 443896, Note_on_c, 0, 72, 97
2, 443896, Note_on_c, 0, 48, 97
2, 443991, Note_on_c, 0, 48, 0
2, 443991, Note_on_c, 0, 72, 0
2, 443992, Note_on_c, 0, 74, 97
2, 443992, Note_on_c, 0, 47, 97
2, 444087, Note_on_c, 0, 47, 0
2, 444087, Note_on_c, 0, 74, 0
2, 444088, Note_on_c, 0, 75, 97
2, 444088, Note_on_c, 0, 48, 97
2, 444183, Note_on_c, 0, 48, 0
2, 444183, Note_on_c, 0, 75, 0
2, 444184, Note_on_c, 0, 74, 97
2, 444184, Note_on_c, 0, 55, 97
2, 444279, Note_on_c, 0, 55, 0
2, 444279, Note_on_c, 0, 74, 0
2, 444280, Note_on_c, 0, 72, 97
2, 444280, Note_on_c, 0, 57, 97
2, 444375, Note_on_c, 0, 57, 0
2, 444375, Note_on_c, 0, 72, 0
2, 444376, Note_on_c, 0, 74, 97
2, 444376, Note_on_c, 0, 59, 97
2, 444471, Note_on_c, 0, 59, 0
2, 444471, Note_on_c, 0, 74, 0
2, 444472, Note_on_c, 0, 75, 97
2, 444472, Note_on_c, 0, 60, 97
2, 444567, Note_on_c, 0, 60, 0
2, 444567, Note_on_c, 0, 75, 0
2, 444568, Note_on_c, 0, 77, 97
2, 444568, Note_on_c, 0, 62, 97
2, 444663, Note_on_c, 0, 62, 0
2, 444663, Note_on_c, 0, 77, 0
2, 444664, Note_on_c, 0, 79, 97
2, 444664, Note_on_c, 0, 63, 97
2, 444759, Note_on_c, 0, 79, 0
2, 444760, Note_on_c, 0, 67, 97
2, 444855, Note_on_c, 0, 67, 0
2, 444855, Note_on_c, 0, 63, 0
2, 444856, Note_on_c, 0, 68, 97
2, 444856, Note_on_c, 0, 53, 97
2, 444951, Note_on_c, 0, 68, 0
2, 444952, Note_on_c, 0, 72, 97
2, 445047, Note_on_c, 0, 72, 0
2, 445048, Note_on_c, 0, 77, 97
2, 445143, Note_on_c, 0, 53, 0
2, 445144, Note_on_c, 0, 63, 97
2, 445239, Note_on_c, 0, 63, 0
2, 445240, Note_on_c, 0, 62, 97
2, 445318, Note_on_c, 0, 77, 0
2, 445336, Note_on_c, 0, 65, 97
2, 445431, Note_on_c, 0, 65, 0
2, 445431, Note_on_c, 0, 62, 0
2, 445432, Note_on_c, 0, 67, 97
2, 445432, Note_on_c, 0, 51, 97
2, 445527, Note_on_c, 0, 67, 0
2, 445528, Note_on_c, 0, 70, 97
2, 445623, Note_on_c, 0, 70, 0
2, 445624, Note_on_c, 0, 75, 97
2, 445719, Note_on_c, 0, 51, 0
2, 445720, Note_on_c, 0, 62, 97
2, 445815, Note_on_c, 0, 62, 0
2, 445816, Note_on_c, 0, 60, 97
2, 445894, Note_on_c, 0, 75, 0
2, 445912, Note_on_c, 0, 63, 97
2, 446007, Note_on_c, 0, 63, 0
2, 446007, Note_on_c, 0, 60, 0
2, 446008, Note_on_c, 0, 65, 97
2, 446008, Note_on_c, 0, 50, 97
2, 446103, Note_on_c, 0, 65, 0
2, 446104, Note_on_c, 0, 71, 97
2, 446199, Note_on_c, 0, 71, 0
2, 446200, Note_on_c, 0, 74, 97
2, 446295, Note_on_c, 0, 50, 0
2, 446296, Note_on_c, 0, 60, 97
2, 446391, Note_on_c, 0, 60, 0
2, 446392, Note_on_c, 0, 59, 97
2, 446470, Note_on_c, 0, 74, 0
2, 446488, Note_on_c, 0, 62, 97
2, 446583, Note_on_c, 0, 62, 0
2, 446583, Note_on_c, 0, 59, 0
2, 446584, Note_on_c, 0, 63, 97
2, 446584, Note_on_c, 0, 48, 97
2, 446679, Note_on_c, 0, 63, 0
2, 446680, Note_on_c, 0, 67, 97
2, 446775, Note_on_c, 0, 67, 0
2, 446776, Note_on_c, 0, 72, 97
2, 446871, Note_on_c, 0, 48, 0
2, 446872, Note_on_c, 0, 51, 97
2, 446967, Note_on_c, 0, 51, 0
2, 446968, Note_on_c, 0, 56, 97
2, 447046, Note_on_c, 0, 72, 0
2, 447064, Note_on_c, 0, 71, 97
2, 447159, Note_on_c, 0, 71, 0
2, 447159, Note_on_c, 0, 56, 0
2, 447160, Note_on_c, 0, 72, 97
2, 447160, Note_on_c, 0, 55, 97
2, 447255, Note_on_c, 0, 72, 0
2, 447256, Note_on_c, 0, 75, 97
2, 447351, Note_on_c, 0, 75, 0
2, 447351, Note_on_c, 0, 55, 0
2, 447352, Note_on_c, 0, 80, 97
2, 447352, Note_on_c, 0, 53, 97
2, 447447, Note_on_c, 0, 80, 0
2, 447448, Note_on_c, 0, 72, 97
2, 447543, Note_on_c, 0, 72, 0
2, 447543, Note_on_c, 0, 53, 0
2, 447544, Note_on_c, 0, 71, 97
2, 447544, Note_on_c, 0, 55, 97
2, 447639, Note_on_c, 0, 55, 0
2, 447639, Note_on_c, 0, 71, 0
2, 447640, Note_on_c, 0, 69, 97
2, 447640, Note_on_c, 0, 53, 97
2, 447735, Note_on_c, 0, 53, 0
2, 447735, Note_on_c, 0, 69, 0
2, 447736, Note_on_c, 0, 67, 97
2, 447736, Note_on_c, 0, 55, 97
2, 447831, Note_on_c, 0, 55, 0
2, 447832, Note_on_c, 0, 56, 97
2, 447927, Note_on_c, 0, 56, 0
2, 447928, Note_on_c, 0, 53, 97
2, 448016, Note_on_c, 0, 67, 0
2, 448023, Note_on_c, 0, 53, 0
2, 448024, Note_on_c, 0, 55, 97
2, 448119, Note_on_c, 0, 55, 0
2, 448120, Note_on_c, 0, 84, 97
2, 448120, Note_on_c, 0, 51, 97
2, 448215, Note_on_c, 0, 51, 0
2, 448216, Note_on_c, 0, 50, 97
2, 448311, Note_on_c, 0, 50, 0
2, 448312, Note_on_c, 0, 72, 97
2, 448312, Note_on_c, 0, 51, 97
2, 448407, Note_on_c, 0, 51, 0
2, 448408, Note_on_c, 0, 53, 97
2, 448500, Note_on_c, 0, 84, 0
2, 448503, Note_on_c, 0, 53, 0
2, 448503, Note_on_c, 0, 72, 0
2, 448504, Note_on_c, 0, 74, 97
2, 448504, Note_on_c, 0, 50, 97
2, 448599, Note_on_c, 0, 50, 0
2, 448600, Note_on_c, 0, 51, 97
2, 448695, Note_on_c, 0, 51, 0
2, 448695, Note_on_c, 0, 74, 0
2, 448696, Note_on_c, 0, 75, 97
2, 448696, Note_on_c, 0, 48, 97
2, 448887, Note_on_c, 0, 48, 0
2, 448888, Note_on_c, 0, 60, 97
2, 449079, Note_on_c, 0, 60, 0
2, 449079, Note_on_c, 0, 75, 0
2, 449080, Note_on_c, 0, 77, 97
2, 449080, Note_on_c, 0, 62, 97
2, 449271, Note_on_c, 0, 62, 0
2, 449271, Note_on_c, 0, 77, 0
2, 449272, Note_on_c, 0, 79, 97
2, 449272, Note_on_c, 0, 63, 97
2, 449462, Note_on_c, 0, 79, 0
2, 449463, Note_on_c, 0, 63, 0
2, 449464, Note_on_c, 0, 68, 97
2, 449656, Note_on_c, 0, 65, 97
2, 449744, Note_on_c, 0, 68, 0
2, 449847, Note_on_c, 0, 65, 0
2, 449848, Note_on_c, 0, 77, 97
2, 449848, Note_on_c, 0, 62, 97
2, 450038, Note_on_c, 0, 77, 0
2, 450039, Note_on_c, 0, 62, 0
2, 450040, Note_on_c, 0, 67, 97
2, 450232, Note_on_c, 0, 63, 97
2, 450320, Note_on_c, 0, 67, 0
2, 450423, Note_on_c, 0, 63, 0
2, 450424, Note_on_c, 0, 75, 97
2, 450424, Note_on_c, 0, 60, 97
2, 450614, Note_on_c, 0, 75, 0
2, 450615, Note_on_c, 0, 60, 0
2, 450616, Note_on_c, 0, 65, 97
2, 450808, Note_on_c, 0, 62, 97
2, 450896, Note_on_c, 0, 65, 0
2, 450999, Note_on_c, 0, 62, 0
2, 451000, Note_on_c, 0, 74, 97
2, 451000, Note_on_c, 0, 59, 97
2, 451190, Note_on_c, 0, 74, 0
2, 451191, Note_on_c, 0, 59, 0
2, 451192, Note_on_c, 0, 63, 97
2, 451384, Note_on_c, 0, 60, 97
2, 451472, Note_on_c, 0, 63, 0
2, 451575, Note_on_c, 0, 60, 0
2, 451576, Note_on_c, 0, 56, 97
2, 451672, Note_on_c, 0, 72, 97
2, 451767, Note_on_c, 0, 72, 0
2, 451767, Note_on_c, 0, 56, 0
2, 451768, Note_on_c, 0, 62, 97
2, 451768, Note_on_c, 0, 53, 97
2, 451863, Note_on_c, 0, 62, 0
2, 451864, Note_on_c, 0, 65, 97
2, 451959, Note_on_c, 0, 65, 0
2, 451959, Note_on_c, 0, 53, 0
2, 451960, Note_on_c, 0, 72, 97
2, 451960, Note_on_c, 0, 55, 97
2, 452055, Note_on_c, 0, 72, 0
2, 452056, Note_on_c, 0, 71, 97
2, 452151, Note_on_c, 0, 71, 0
2, 452151, Note_on_c, 0, 55, 0
2, 452152, Note_on_c, 0, 72, 97
2, 452152, Note_on_c, 0, 48, 97
2, 452343, Note_on_c, 0, 48, 0
2, 452344, Note_on_c, 0, 43, 97
2, 452439, Note_on_c, 0, 43, 0
2, 452440, Note_on_c, 0, 41, 97
2, 452535, Note_on_c, 0, 41, 0
2, 452536, Note_on_c, 0, 39, 97
2, 452631, Note_on_c, 0, 39, 0
2, 452632, Note_on_c, 0, 72, 0
2, 452632, Note_on_c, 0, 38, 97
2, 452727, Note_on_c, 0, 38, 0
2, 452728, Note_on_c, 0, 75, 97
2, 452728, Note_on_c, 0, 36, 97
2, 452919, Note_on_c, 0, 36, 0
2, 452920, Note_on_c, 0, 60, 97
2, 453111, Note_on_c, 0, 60, 0
2, 453112, Note_on_c, 0, 67, 97
2, 453112, Note_on_c, 0, 58, 97
2, 453276, Note_on_c, 0, 67, 0
2, 453303, Note_on_c, 0, 58, 0
2, 453304, Note_on_c, 0, 72, 97
2, 453304, Note_on_c, 0, 57, 97
2, 453495, Note_on_c, 0, 57, 0
2, 453496, Note_on_c, 0, 55, 97
2, 453638, Note_on_c, 0, 75, 0
2, 453687, Note_on_c, 0, 55, 0
2, 453688, Note_on_c, 0, 74, 97
2, 453688, Note_on_c, 0, 53, 97
2, 453769, Note_on_c, 0, 74, 0
2, 453784, Note_on_c, 0, 75, 97
2, 453823, Note_on_c, 0, 75, 0
2, 453832, Note_on_c, 0, 77, 97
2, 453871, Note_on_c, 0, 77, 0
2, 453879, Note_on_c, 0, 53, 0
2, 453880, Note_on_c, 0, 74, 97
2, 453880, Note_on_c, 0, 46, 97
2, 454071, Note_on_c, 0, 46, 0
2, 454072, Note_on_c, 0, 58, 97
2, 454214, Note_on_c, 0, 72, 0
2, 454263, Note_on_c, 0, 58, 0
2, 454264, Note_on_c, 0, 65, 97
2, 454264, Note_on_c, 0, 57, 97
2, 454454, Note_on_c, 0, 74, 0
2, 454455, Note_on_c, 0, 57, 0
2, 454455, Note_on_c, 0, 65, 0
2, 454456, Note_on_c, 0, 75, 97
2, 454456, Note_on_c, 0, 70, 97
2, 454456, Note_on_c, 0, 55, 97
2, 454646, Note_on_c, 0, 75, 0
2, 454647, Note_on_c, 0, 55, 0
2, 454648, Note_on_c, 0, 75, 97
2, 454648, Note_on_c, 0, 53, 97
2, 454743, Note_on_c, 0, 75, 0
2, 454744, Note_on_c, 0, 77, 97
2, 454839, Note_on_c, 0, 77, 0
2, 454839, Note_on_c, 0, 53, 0
2, 454840, Note_on_c, 0, 79, 97
2, 454840, Note_on_c, 0, 51, 97
2, 454935, Note_on_c, 0, 79, 0
2, 454936, Note_on_c, 0, 75, 97
2, 455031, Note_on_c, 0, 75, 0
2, 455031, Note_on_c, 0, 51, 0
2, 455032, Note_on_c, 0, 74, 97
2, 455032, Note_on_c, 0, 45, 97
2, 455196, Note_on_c, 0, 70, 0
2, 455223, Note_on_c, 0, 45, 0
2, 455223, Note_on_c, 0, 74, 0
2, 455224, Note_on_c, 0, 72, 97
2, 455224, Note_on_c, 0, 69, 97
2, 455224, Note_on_c, 0, 57, 97
2, 455319, Note_on_c, 0, 69, 0
2, 455320, Note_on_c, 0, 67, 97
2, 455415, Note_on_c, 0, 67, 0
2, 455415, Note_on_c, 0, 57, 0
2, 455416, Note_on_c, 0, 66, 97
2, 455416, Note_on_c, 0, 55, 97
2, 455511, Note_on_c, 0, 66, 0
2, 455512, Note_on_c, 0, 67, 97
2, 455607, Note_on_c, 0, 67, 0
2, 455607, Note_on_c, 0, 55, 0
2, 455608, Note_on_c, 0, 69, 97
2, 455608, Note_on_c, 0, 54, 97
2, 455772, Note_on_c, 0, 72, 0
2, 455799, Note_on_c, 0, 54, 0
2, 455800, Note_on_c, 0, 74, 97
2, 455800, Note_on_c, 0, 52, 97
2, 455863, Note_on_c, 0, 74, 0
2, 455864, Note_on_c, 0, 72, 97
2, 455927, Note_on_c, 0, 72, 0
2, 455928, Note_on_c, 0, 70, 97
2, 455942, Note_on_c, 0, 69, 0
2, 455991, Note_on_c, 0, 70, 0
2, 455991, Note_on_c, 0, 52, 0
2, 455992, Note_on_c, 0, 72, 97
2, 455992, Note_on_c, 0, 50, 97
2, 456052, Note_on_c, 0, 70, 97
2, 456054, Note_on_c, 0, 72, 0
2, 456115, Note_on_c, 0, 70, 0
2, 456116, Note_on_c, 0, 69, 97
2, 456179, Note_on_c, 0, 69, 0
2, 456183, Note_on_c, 0, 50, 0
2, 456184, Note_on_c, 0, 70, 97
2, 456184, Note_on_c, 0, 55, 97
2, 456243, Note_on_c, 0, 70, 0
2, 456244, Note_on_c, 0, 69, 97
2, 456307, Note_on_c, 0, 69, 0
2, 456308, Note_on_c, 0, 67, 97
2, 456375, Note_on_c, 0, 67, 0
2, 456375, Note_on_c, 0, 55, 0
2, 456376, Note_on_c, 0, 72, 97
2, 456376, Note_on_c, 0, 51, 97
2, 456435, Note_on_c, 0, 72, 0
2, 456436, Note_on_c, 0, 70, 97
2, 456499, Note_on_c, 0, 70, 0
2, 456500, Note_on_c, 0, 69, 97
2, 456567, Note_on_c, 0, 69, 0
2, 456567, Note_on_c, 0, 51, 0
2, 456568, Note_on_c, 0, 70, 97
2, 456568, Note_on_c, 0, 48, 97
2, 456627, Note_on_c, 0, 70, 0
2, 456628, Note_on_c, 0, 69, 97
2, 456691, Note_on_c, 0, 69, 0
2, 456692, Note_on_c, 0, 67, 97
2, 456759, Note_on_c, 0, 67, 0
2, 456759, Note_on_c, 0, 48, 0
2, 456760, Note_on_c, 0, 66, 97
2, 456760, Note_on_c, 0, 50, 97
2, 456855, Note_on_c, 0, 50, 0
2, 456856, Note_on_c, 0, 51, 97
2, 456951, Note_on_c, 0, 51, 0
2, 456952, Note_on_c, 0, 50, 97
2, 457047, Note_on_c, 0, 50, 0
2, 457047, Note_on_c, 0, 66, 0
2, 457048, Note_on_c, 0, 69, 97
2, 457048, Note_on_c, 0, 48, 97
2, 457143, Note_on_c, 0, 48, 0
2, 457143, Note_on_c, 0, 69, 0
2, 457144, Note_on_c, 0, 74, 97
2, 457144, Note_on_c, 0, 46, 97
2, 457239, Note_on_c, 0, 46, 0
2, 457239, Note_on_c, 0, 74, 0
2, 457240, Note_on_c, 0, 72, 97
2, 457240, Note_on_c, 0, 45, 97
2, 457335, Note_on_c, 0, 45, 0
2, 457335, Note_on_c, 0, 72, 0
2, 457336, Note_on_c, 0, 70, 97
2, 457336, Note_on_c, 0, 43, 97
2, 457431, Note_on_c, 0, 70, 0
2, 457432, Note_on_c, 0, 69, 97
2, 457527, Note_on_c, 0, 69, 0
2, 457527, Note_on_c, 0, 43, 0
2, 457528, Note_on_c, 0, 70, 97
2, 457528, Note_on_c, 0, 55, 97
2, 457623, Note_on_c, 0, 70, 0
2, 457624, Note_on_c, 0, 74, 97
2, 457719, Note_on_c, 0, 74, 0
2, 457719, Note_on_c, 0, 55, 0
2, 457720, Note_on_c, 0, 72, 97
2, 457720, Note_on_c, 0, 57, 97
2, 457815, Note_on_c, 0, 72, 0
2, 457816, Note_on_c, 0, 75, 97
2, 457911, Note_on_c, 0, 75, 0
2, 457911, Note_on_c, 0, 57, 0
2, 457912, Note_on_c, 0, 74, 97
2, 457912, Note_on_c, 0, 58, 97
2, 458007, Note_on_c, 0, 74, 0
2, 458008, Note_on_c, 0, 70, 97
2, 458103, Note_on_c, 0, 70, 0
2, 458104, Note_on_c, 0, 67, 97
2, 458199, Note_on_c, 0, 67, 0
2, 458200, Note_on_c, 0, 79, 97
2, 458295, Note_on_c, 0, 79, 0
2, 458295, Note_on_c, 0, 58, 0
2, 458296, Note_on_c, 0, 69, 97
2, 458296, Note_on_c, 0, 60, 97
2, 458391, Note_on_c, 0, 69, 0
2, 458392, Note_on_c, 0, 79, 97
2, 458487, Note_on_c, 0, 79, 0
2, 458487, Note_on_c, 0, 60, 0
2, 458488, Note_on_c, 0, 70, 97
2, 458488, Note_on_c, 0, 62, 97
2, 458583, Note_on_c, 0, 70, 0
2, 458584, Note_on_c, 0, 79, 97
2, 458679, Note_on_c, 0, 79, 0
2, 458679, Note_on_c, 0, 62, 0
2, 458680, Note_on_c, 0, 72, 97
2, 458680, Note_on_c, 0, 51, 97
2, 458775, Note_on_c, 0, 72, 0
2, 458776, Note_on_c, 0, 74, 97
2, 458871, Note_on_c, 0, 74, 0
2, 458872, Note_on_c, 0, 75, 97
2, 458960, Note_on_c, 0, 51, 0
2, 458967, Note_on_c, 0, 75, 0
2, 458968, Note_on_c, 0, 72, 97
2, 459063, Note_on_c, 0, 72, 0
2, 459064, Note_on_c, 0, 69, 97
2, 459064, Note_on_c, 0, 60, 97
2, 459159, Note_on_c, 0, 69, 0
2, 459160, Note_on_c, 0, 77, 97
2, 459255, Note_on_c, 0, 77, 0
2, 459255, Note_on_c, 0, 60, 0
2, 459256, Note_on_c, 0, 70, 97
2, 459256, Note_on_c, 0, 50, 97
2, 459351, Note_on_c, 0, 70, 0
2, 459352, Note_on_c, 0, 72, 97
2, 459447, Note_on_c, 0, 72, 0
2, 459448, Note_on_c, 0, 74, 97
2, 459536, Note_on_c, 0, 50, 0
2, 459543, Note_on_c, 0, 74, 0
2, 459544, Note_on_c, 0, 70, 97
2, 459639, Note_on_c, 0, 70, 0
2, 459640, Note_on_c, 0, 67, 97
2, 459640, Note_on_c, 0, 58, 97
2, 459735, Note_on_c, 0, 67, 0
2, 459736, Note_on_c, 0, 75, 97
2, 459831, Note_on_c, 0, 75, 0
2, 459831, Note_on_c, 0, 58, 0
2, 459832, Note_on_c, 0, 69, 97
2, 459832, Note_on_c, 0, 48, 97
2, 459927, Note_on_c, 0, 69, 0
2, 459928, Note_on_c, 0, 70, 97
2, 460023, Note_on_c, 0, 70, 0
2, 460024, Note_on_c, 0, 72, 97
2, 460112, Note_on_c, 0, 48, 0
2, 460119, Note_on_c, 0, 72, 0
2, 460120, Note_on_c, 0, 69, 97
2, 460215, Note_on_c, 0, 69, 0
2, 460216, Note_on_c, 0, 66, 97
2, 460216, Note_on_c, 0, 57, 97
2, 460311, Note_on_c, 0, 66, 0
2, 460312, Note_on_c, 0, 74, 97
2, 460407, Note_on_c, 0, 74, 0
2, 460407, Note_on_c, 0, 57, 0
2, 460408, Note_on_c, 0, 67, 97
2, 460408, Note_on_c, 0, 46, 97
2, 460503, Note_on_c, 0, 67, 0
2, 460504, Note_on_c, 0, 69, 97
2, 460599, Note_on_c, 0, 69, 0
2, 460600, Note_on_c, 0, 70, 97
2, 460688, Note_on_c, 0, 46, 0
2, 460695, Note_on_c, 0, 70, 0
2, 460696, Note_on_c, 0, 67, 97
2, 460791, Note_on_c, 0, 67, 0
2, 460792, Note_on_c, 0, 62, 97
2, 460887, Note_on_c, 0, 62, 0
2, 460888, Note_on_c, 0, 72, 97
2, 460983, Note_on_c, 0, 72, 0
2, 460984, Note_on_c, 0, 70, 97
2, 460984, Note_on_c, 0, 48, 97
2, 461079, Note_on_c, 0, 70, 0
2, 461080, Note_on_c, 0, 69, 97
2, 461175, Note_on_c, 0, 69, 0
2, 461175, Note_on_c, 0, 48, 0
2, 461176, Note_on_c, 0, 67, 97
2, 461176, Note_on_c, 0, 50, 97
2, 461271, Note_on_c, 0, 67, 0
2, 461272, Note_on_c, 0, 66, 97
2, 461367, Note_on_c, 0, 66, 0
2, 461367, Note_on_c, 0, 50, 0
2, 461368, Note_on_c, 0, 67, 97
2, 461368, Note_on_c, 0, 43, 97
2, 461463, Note_on_c, 0, 43, 0
2, 461464, Note_on_c, 0, 56, 97
2, 461559, Note_on_c, 0, 56, 0
2, 461560, Note_on_c, 0, 55, 97
2, 461655, Note_on_c, 0, 55, 0
2, 461656, Note_on_c, 0, 53, 97
2, 461751, Note_on_c, 0, 53, 0
2, 461752, Note_on_c, 0, 51, 97
2, 461847, Note_on_c, 0, 51, 0
2, 461848, Note_on_c, 0, 67, 0
2, 461848, Note_on_c, 0, 50, 97
2, 461943, Note_on_c, 0, 50, 0
2, 461944, Note_on_c, 0, 51, 97
2, 462040, Note_on_c, 0, 84, 97
2, 462135, Note_on_c, 0, 84, 0
2, 462135, Note_on_c, 0, 51, 0
2, 462136, Note_on_c, 0, 83, 97
2, 462136, Note_on_c, 0, 53, 97
2, 462231, Note_on_c, 0, 83, 0
2, 462232, Note_on_c, 0, 81, 97
2, 462327, Note_on_c, 0, 81, 0
2, 462327, Note_on_c, 0, 53, 0
2, 462328, Note_on_c, 0, 79, 97
2, 462328, Note_on_c, 0, 55, 97
2, 462423, Note_on_c, 0, 79, 0
2, 462424, Note_on_c, 0, 77, 97
2, 462519, Note_on_c, 0, 77, 0
2, 462519, Note_on_c, 0, 55, 0
2, 462520, Note_on_c, 0, 75, 97
2, 462520, Note_on_c, 0, 48, 97
2, 462615, Note_on_c, 0, 48, 0
2, 462616, Note_on_c, 0, 72, 97
2, 462711, Note_on_c, 0, 72, 0
2, 462712, Note_on_c, 0, 71, 97
2, 462807, Note_on_c, 0, 71, 0
2, 462808, Note_on_c, 0, 69, 97
2, 462903, Note_on_c, 0, 69, 0
2, 462903, Note_on_c, 0, 75, 0
2, 462904, Note_on_c, 0, 77, 97
2, 462904, Note_on_c, 0, 67, 97
2, 462999, Note_on_c, 0, 67, 0
2, 463000, Note_on_c, 0, 65, 97
2, 463095, Note_on_c, 0, 65, 0
2, 463095, Note_on_c, 0, 77, 0
2, 463096, Note_on_c, 0, 79, 97
2, 463096, Note_on_c, 0, 63, 97
2, 463191, Note_on_c, 0, 79, 0
2, 463192, Note_on_c, 0, 70, 97
2, 463287, Note_on_c, 0, 70, 0
2, 463288, Note_on_c, 0, 68, 97
2, 463376, Note_on_c, 0, 63, 0
2, 463384, Note_on_c, 0, 67, 97
2, 463479, Note_on_c, 0, 67, 0
2, 463480, Note_on_c, 0, 65, 97
2, 463575, Note_on_c, 0, 65, 0
2, 463576, Note_on_c, 0, 63, 97
2, 463668, Note_on_c, 0, 68, 0
2, 463671, Note_on_c, 0, 63, 0
2, 463672, Note_on_c, 0, 77, 97
2, 463672, Note_on_c, 0, 62, 97
2, 463767, Note_on_c, 0, 77, 0
2, 463768, Note_on_c, 0, 68, 97
2, 463863, Note_on_c, 0, 68, 0
2, 463864, Note_on_c, 0, 67, 97
2, 463952, Note_on_c, 0, 62, 0
2, 463960, Note_on_c, 0, 65, 97
2, 464055, Note_on_c, 0, 65, 0
2, 464056, Note_on_c, 0, 63, 97
2, 464151, Note_on_c, 0, 63, 0
2, 464152, Note_on_c, 0, 62, 97
2, 464244, Note_on_c, 0, 67, 0
2, 464247, Note_on_c, 0, 62, 0
2, 464248, Note_on_c, 0, 75, 97
2, 464248, Note_on_c, 0, 60, 97
2, 464343, Note_on_c, 0, 75, 0
2, 464344, Note_on_c, 0, 67, 97
2, 464439, Note_on_c, 0, 67, 0
2, 464440, Note_on_c, 0, 65, 97
2, 464528, Note_on_c, 0, 60, 0
2, 464536, Note_on_c, 0, 63, 97
2, 464631, Note_on_c, 0, 63, 0
2, 464632, Note_on_c, 0, 62, 97
2, 464727, Note_on_c, 0, 62, 0
2, 464728, Note_on_c, 0, 60, 97
2, 464820, Note_on_c, 0, 65, 0
2, 464823, Note_on_c, 0, 60, 0
2, 464824, Note_on_c, 0, 74, 97
2, 464824, Note_on_c, 0, 59, 97
2, 464919, Note_on_c, 0, 74, 0
2, 464920, Note_on_c, 0, 65, 97
2, 465015, Note_on_c, 0, 65, 0
2, 465016, Note_on_c, 0, 63, 97
2, 465104, Note_on_c, 0, 59, 0
2, 465112, Note_on_c, 0, 62, 97
2, 465207, Note_on_c, 0, 62, 0
2, 465208, Note_on_c, 0, 60, 97
2, 465303, Note_on_c, 0, 60, 0
2, 465304, Note_on_c, 0, 58, 97
2, 465396, Note_on_c, 0, 63, 0
2, 465399, Note_on_c, 0, 58, 0
2, 465400, Note_on_c, 0, 56, 97
2, 465496, Note_on_c, 0, 79, 97
2, 465591, Note_on_c, 0, 79, 0
2, 465591, Note_on_c, 0, 56, 0
2, 465592, Note_on_c, 0, 77, 97
2, 465592, Note_on_c, 0, 68, 97
2, 465687, Note_on_c, 0, 77, 0
2, 465688, Note_on_c, 0, 75, 97
2, 465783, Note_on_c, 0, 75, 0
2, 465783, Note_on_c, 0, 68, 0
2, 465784, Note_on_c, 0, 74, 97
2, 465784, Note_on_c, 0, 65, 97
2, 465879, Note_on_c, 0, 74, 0
2, 465880, Note_on_c, 0, 72, 97
2, 465975, Note_on_c, 0, 72, 0
2, 465975, Note_on_c, 0, 65, 0
2, 465976, Note_on_c, 0, 71, 97
2, 465976, Note_on_c, 0, 67, 97
2, 466071, Note_on_c, 0, 67, 0
2, 466071, Note_on_c, 0, 71, 0
2, 466072, Note_on_c, 0, 72, 97
2, 466072, Note_on_c, 0, 68, 97
2, 466167, Note_on_c, 0, 68, 0
2, 466167, Note_on_c, 0, 72, 0
2, 466168, Note_on_c, 0, 74, 97
2, 466168, Note_on_c, 0, 67, 97
2, 466263, Note_on_c, 0, 67, 0
2, 466263, Note_on_c, 0, 74, 0
2, 466264, Note_on_c, 0, 71, 97
2, 466264, Note_on_c, 0, 65, 97
2, 466359, Note_on_c, 0, 65, 0
2, 466359, Note_on_c, 0, 71, 0
2, 466360, Note_on_c, 0, 67, 97
2, 466360, Note_on_c, 0, 63, 97
2, 466455, Note_on_c, 0, 63, 0
2, 466456, Note_on_c, 0, 62, 97
2, 466550, Note_on_c, 0, 67, 0
2, 466551, Note_on_c, 0, 62, 0
2, 466552, Note_on_c, 0, 60, 97
2, 466647, Note_on_c, 0, 60, 0
2, 466648, Note_on_c, 0, 72, 97
2, 466648, Note_on_c, 0, 63, 97
2, 466743, Note_on_c, 0, 63, 0
2, 466743, Note_on_c, 0, 72, 0
2, 466744, Note_on_c, 0, 70, 97
2, 466744, Note_on_c, 0, 62, 97
2, 466839, Note_on_c, 0, 62, 0
2, 466839, Note_on_c, 0, 70, 0
2, 466840, Note_on_c, 0, 68, 97
2, 466840, Note_on_c, 0, 60, 97
2, 466935, Note_on_c, 0, 60, 0
2, 466935, Note_on_c, 0, 68, 0
2, 466936, Note_on_c, 0, 67, 97
2, 466936, Note_on_c, 0, 58, 97
2, 467031, Note_on_c, 0, 58, 0
2, 467031, Note_on_c, 0, 67, 0
2, 467032, Note_on_c, 0, 65, 97
2, 467032, Note_on_c, 0, 56, 97
2, 467127, Note_on_c, 0, 56, 0
2, 467127, Note_on_c, 0, 65, 0
2, 467128, Note_on_c, 0, 63, 97
2, 467128, Note_on_c, 0, 55, 97
2, 467223, Note_on_c, 0, 55, 0
2, 467224, Note_on_c, 0, 60, 97
2, 467319, Note_on_c, 0, 60, 0
2, 467320, Note_on_c, 0, 58, 97
2, 467415, Note_on_c, 0, 58, 0
2, 467416, Note_on_c, 0, 56, 97
2, 467508, Note_on_c, 0, 63, 0
2, 467511, Note_on_c, 0, 56, 0
2, 467512, Note_on_c, 0, 65, 97
2, 467512, Note_on_c, 0, 55, 97
2, 467607, Note_on_c, 0, 55, 0
2, 467608, Note_on_c, 0, 53, 97
2, 467702, Note_on_c, 0, 65, 0
2, 467703, Note_on_c, 0, 53, 0
2, 467704, Note_on_c, 0, 67, 97
2, 467704, Note_on_c, 0, 51, 97
2, 467800, Note_on_c, 0, 58, 97
2, 467895, Note_on_c, 0, 58, 0
2, 467896, Note_on_c, 0, 56, 97
2, 467984, Note_on_c, 0, 67, 0
2, 467991, Note_on_c, 0, 56, 0
2, 467992, Note_on_c, 0, 55, 97
2, 468087, Note_on_c, 0, 55, 0
2, 468088, Note_on_c, 0, 53, 97
2, 468176, Note_on_c, 0, 51, 0
2, 468183, Note_on_c, 0, 53, 0
2, 468184, Note_on_c, 0, 51, 97
2, 468279, Note_on_c, 0, 51, 0
2, 468280, Note_on_c, 0, 65, 97
2, 468280, Note_on_c, 0, 50, 97
2, 468376, Note_on_c, 0, 56, 97
2, 468471, Note_on_c, 0, 56, 0
2, 468472, Note_on_c, 0, 55, 97
2, 468560, Note_on_c, 0, 65, 0
2, 468567, Note_on_c, 0, 55, 0
2, 468568, Note_on_c, 0, 53, 97
2, 468663, Note_on_c, 0, 53, 0
2, 468664, Note_on_c, 0, 51, 97
2, 468752, Note_on_c, 0, 50, 0
2, 468759, Note_on_c, 0, 51, 0
2, 468760, Note_on_c, 0, 50, 97
2, 468855, Note_on_c, 0, 50, 0
2, 468856, Note_on_c, 0, 63, 97
2, 468856, Note_on_c, 0, 48, 97
2, 468952, Note_on_c, 0, 55, 97
2, 469047, Note_on_c, 0, 55, 0
2, 469048, Note_on_c, 0, 53, 97
2, 469136, Note_on_c, 0, 63, 0
2, 469143, Note_on_c, 0, 53, 0
2, 469144, Note_on_c, 0, 51, 97
2, 469239, Note_on_c, 0, 51, 0
2, 469240, Note_on_c, 0, 50, 97
2, 469328, Note_on_c, 0, 48, 0
2, 469335, Note_on_c, 0, 50, 0
2, 469336, Note_on_c, 0, 48, 97
2, 469431, Note_on_c, 0, 48, 0
2, 469432, Note_on_c, 0, 62, 97
2, 469432, Note_on_c, 0, 47, 97
2, 469528, Note_on_c, 0, 53, 97
2, 469623, Note_on_c, 0, 53, 0
2, 469624, Note_on_c, 0, 51, 97
2, 469712, Note_on_c, 0, 47, 0
2, 469712, Note_on_c, 0, 62, 0
2, 469719, Note_on_c, 0, 51, 0
2, 469720, Note_on_c, 0, 50, 97
2, 469815, Note_on_c, 0, 50, 0
2, 469816, Note_on_c, 0, 48, 97
2, 469911, Note_on_c, 0, 48, 0
2, 469912, Note_on_c, 0, 46, 97
2, 470007, Note_on_c, 0, 46, 0
2, 470008, Note_on_c, 0, 44, 97
2, 470104, Note_on_c, 0, 48, 97
2, 470188, Note_on_c, 0, 44, 0
2, 470199, Note_on_c, 0, 48, 0
2, 470210, Note_on_c, 0, 51, 97
2, 470210, Note_on_c, 0, 41, 97
2, 470210, Note_on_c, 0, 56, 97
2, 470210, Note_on_c, 0, 60, 97
2, 470401, Note_on_c, 0, 60, 0
2, 470401, Note_on_c, 0, 51, 0
2, 470401, Note_on_c, 0, 41, 0
2, 470401, Note_on_c, 0, 56, 0
2, 470438, Note_on_c, 0, 59, 97
2, 470438, Note_on_c, 0, 55, 97
2, 470438, Note_on_c, 0, 50, 97
2, 470438, Note_on_c, 0, 43, 97
2, 470629, Note_on_c, 0, 43, 0
2, 470629, Note_on_c, 0, 59, 0
2, 470629, Note_on_c, 0, 55, 0
2, 470629, Note_on_c, 0, 50, 0
2, 470689, Note_on_c, 0, 60, 97
2, 470689, Note_on_c, 0, 51, 97
2, 470689, Note_on_c, 0, 55, 97
2, 470689, Note_on_c, 0, 36, 97
2, 471139, Note_on_c, 0, 36, 0
2, 471139, Note_on_c, 0, 60, 0
2, 471139, Note_on_c, 0, 51, 0
2, 471139, Note_on_c, 0, 55, 0
2, 474040, Note_on_c, 0, 48, 97
2, 474040, Note_on_c, 0, 51, 97
2, 474232, Note_on_c, 0, 67, 97
2, 474420, Note_on_c, 0, 51, 0
2, 474420, Note_on_c, 0, 48, 0
2, 474422, Note_on_c, 0, 67, 0
2, 474424, Note_on_c, 0, 72, 97
2, 474616, Note_on_c, 0, 48, 97
2, 474616, Note_on_c, 0, 51, 97
2, 474806, Note_on_c, 0, 51, 0
2, 474806, Note_on_c, 0, 48, 0
2, 474808, Note_on_c, 0, 50, 97
2, 474808, Note_on_c, 0, 53, 97
2, 474998, Note_on_c, 0, 72, 0
2, 475000, Note_on_c, 0, 74, 97
2, 475094, Note_on_c, 0, 74, 0
2, 475096, Note_on_c, 0, 72, 97
2, 475188, Note_on_c, 0, 53, 0
2, 475188, Note_on_c, 0, 50, 0
2, 475190, Note_on_c, 0, 72, 0
2, 475192, Note_on_c, 0, 71, 97
2, 475286, Note_on_c, 0, 71, 0
2, 475288, Note_on_c, 0, 69, 97
2, 475382, Note_on_c, 0, 69, 0
2, 475384, Note_on_c, 0, 67, 97
2, 475384, Note_on_c, 0, 59, 97
2, 475478, Note_on_c, 0, 67, 0
2, 475480, Note_on_c, 0, 65, 97
2, 475574, Note_on_c, 0, 65, 0
2, 475574, Note_on_c, 0, 59, 0
2, 475576, Note_on_c, 0, 63, 97
2, 475576, Note_on_c, 0, 60, 97
2, 475766, Note_on_c, 0, 63, 0
2, 475768, Note_on_c, 0, 79, 97
2, 475768, Note_on_c, 0, 51, 97
2, 475958, Note_on_c, 0, 51, 0
2, 475958, Note_on_c, 0, 79, 0
2, 475960, Note_on_c, 0, 62, 97
2, 475960, Note_on_c, 0, 53, 97
2, 476150, Note_on_c, 0, 53, 0
2, 476150, Note_on_c, 0, 62, 0
2, 476150, Note_on_c, 0, 60, 0
2, 476152, Note_on_c, 0, 77, 97
2, 476152, Note_on_c, 0, 55, 97
2, 476152, Note_on_c, 0, 59, 97
2, 476342, Note_on_c, 0, 59, 0
2, 476342, Note_on_c, 0, 55, 0
2, 476342, Note_on_c, 0, 77, 0
2, 476344, Note_on_c, 0, 75, 97
2, 476344, Note_on_c, 0, 48, 97
2, 476344, Note_on_c, 0, 60, 97
2, 476438, Note_on_c, 0, 75, 0
2, 476440, Note_on_c, 0, 74, 97
2, 476534, Note_on_c, 0, 74, 0
2, 476534, Note_on_c, 0, 60, 0
2, 476534, Note_on_c, 0, 48, 0
2, 476536, Note_on_c, 0, 72, 97
2, 476536, Note_on_c, 0, 60, 97
2, 476630, Note_on_c, 0, 72, 0
2, 476632, Note_on_c, 0, 74, 97
2, 476726, Note_on_c, 0, 74, 0
2, 476726, Note_on_c, 0, 60, 0
2, 476728, Note_on_c, 0, 76, 97
2, 476728, Note_on_c, 0, 58, 97
2, 476822, Note_on_c, 0, 76, 0
2, 476824, Note_on_c, 0, 78, 97
2, 476918, Note_on_c, 0, 78, 0
2, 476918, Note_on_c, 0, 58, 0
2, 476920, Note_on_c, 0, 79, 97
2, 476920, Note_on_c, 0, 57, 97
2, 477014, Note_on_c, 0, 79, 0
2, 477016, Note_on_c, 0, 81, 97
2, 477110, Note_on_c, 0, 81, 0
2, 477110, Note_on_c, 0, 57, 0
2, 477112, Note_on_c, 0, 82, 97
2, 477112, Note_on_c, 0, 55, 97
2, 477206, Note_on_c, 0, 82, 0
2, 477208, Note_on_c, 0, 79, 97
2, 477302, Note_on_c, 0, 79, 0
2, 477304, Note_on_c, 0, 78, 97
2, 477304, Note_on_c, 0, 62, 97
2, 477398, Note_on_c, 0, 78, 0
2, 477400, Note_on_c, 0, 79, 97
2, 477492, Note_on_c, 0, 55, 0
2, 477494, Note_on_c, 0, 79, 0
2, 477494, Note_on_c, 0, 62, 0
2, 477496, Note_on_c, 0, 74, 97
2, 477496, Note_on_c, 0, 67, 97
2, 477590, Note_on_c, 0, 74, 0
2, 477592, Note_on_c, 0, 79, 97
2, 477686, Note_on_c, 0, 79, 0
2, 477688, Note_on_c, 0, 78, 97
2, 477688, Note_on_c, 0, 55, 97
2, 477782, Note_on_c, 0, 78, 0
2, 477784, Note_on_c, 0, 79, 97
2, 477878, Note_on_c, 0, 79, 0
2, 477878, Note_on_c, 0, 55, 0
2, 477880, Note_on_c, 0, 84, 97
2, 477880, Note_on_c, 0, 57, 97
2, 477974, Note_on_c, 0, 84, 0
2, 477976, Note_on_c, 0, 79, 97
2, 478070, Note_on_c, 0, 79, 0
2, 478070, Note_on_c, 0, 67, 0
2, 478072, Note_on_c, 0, 78, 97
2, 478072, Note_on_c, 0, 69, 97
2, 478166, Note_on_c, 0, 69, 0
2, 478166, Note_on_c, 0, 78, 0
2, 478168, Note_on_c, 0, 79, 97
2, 478168, Note_on_c, 0, 67, 97
2, 478260, Note_on_c, 0, 57, 0
2, 478262, Note_on_c, 0, 67, 0
2, 478262, Note_on_c, 0, 79, 0
2, 478264, Note_on_c, 0, 81, 97
2, 478264, Note_on_c, 0, 66, 97
2, 478358, Note_on_c, 0, 66, 0
2, 478358, Note_on_c, 0, 81, 0
2, 478360, Note_on_c, 0, 79, 97
2, 478360, Note_on_c, 0, 64, 97
2, 478454, Note_on_c, 0, 64, 0
2, 478454, Note_on_c, 0, 79, 0
2, 478456, Note_on_c, 0, 78, 97
2, 478456, Note_on_c, 0, 62, 97
2, 478550, Note_on_c, 0, 62, 0
2, 478550, Note_on_c, 0, 78, 0
2, 478552, Note_on_c, 0, 79, 97
2, 478552, Note_on_c, 0, 60, 97
2, 478646, Note_on_c, 0, 60, 0
2, 478646, Note_on_c, 0, 79, 0
2, 478648, Note_on_c, 0, 74, 97
2, 478648, Note_on_c, 0, 58, 97
2, 478838, Note_on_c, 0, 58, 0
2, 478838, Note_on_c, 0, 74, 0
2, 478840, Note_on_c, 0, 79, 97
2, 478840, Note_on_c, 0, 46, 97
2, 478840, Note_on_c, 0, 74, 97
2, 479030, Note_on_c, 0, 74, 0
2, 479030, Note_on_c, 0, 46, 0
2, 479032, Note_on_c, 0, 48, 97
2, 479032, Note_on_c, 0, 57, 97
2, 479222, Note_on_c, 0, 57, 0
2, 479222, Note_on_c, 0, 48, 0
2, 479222, Note_on_c, 0, 79, 0
2, 479224, Note_on_c, 0, 78, 97
2, 479224, Note_on_c, 0, 50, 97
2, 479224, Note_on_c, 0, 72, 97
2, 479414, Note_on_c, 0, 50, 0
2, 479414, Note_on_c, 0, 78, 0
2, 479416, Note_on_c, 0, 79, 97
2, 479416, Note_on_c, 0, 43, 97
2, 479510, Note_on_c, 0, 72, 0
2, 479512, Note_on_c, 0, 70, 97
2, 479606, Note_on_c, 0, 70, 0
2, 479606, Note_on_c, 0, 43, 0
2, 479606, Note_on_c, 0, 79, 0
2, 479608, Note_on_c, 0, 50, 97
2, 479608, Note_on_c, 0, 69, 97
2, 479702, Note_on_c, 0, 69, 0
2, 479704, Note_on_c, 0, 72, 97
2, 479798, Note_on_c, 0, 72, 0
2, 479798, Note_on_c, 0, 50, 0
2, 479800, Note_on_c, 0, 55, 97
2, 479800, Note_on_c, 0, 70, 97
2, 479894, Note_on_c, 0, 70, 0
2, 479896, Note_on_c, 0, 69, 97
2, 479990, Note_on_c, 0, 69, 0
2, 479992, Note_on_c, 0, 67, 97
2, 480086, Note_on_c, 0, 67, 0
2, 480088, Note_on_c, 0, 65, 97
2, 480182, Note_on_c, 0, 65, 0
2, 480184, Note_on_c, 0, 63, 97
2, 480280, Note_on_c, 0, 72, 97
2, 480374, Note_on_c, 0, 72, 0
2, 480374, Note_on_c, 0, 63, 0
2, 480374, Note_on_c, 0, 55, 0
2, 480376, Note_on_c, 0, 66, 97
2, 480376, Note_on_c, 0, 57, 97
2, 480376, Note_on_c, 0, 60, 97
2, 480470, Note_on_c, 0, 57, 0
2, 480470, Note_on_c, 0, 66, 0
2, 480472, Note_on_c, 0, 67, 97
2, 480472, Note_on_c, 0, 55, 97
2, 480566, Note_on_c, 0, 55, 0
2, 480566, Note_on_c, 0, 67, 0
2, 480566, Note_on_c, 0, 60, 0
2, 480568, Note_on_c, 0, 69, 97
2, 480568, Note_on_c, 0, 54, 97
2, 480662, Note_on_c, 0, 54, 0
2, 480662, Note_on_c, 0, 69, 0
2, 480664, Note_on_c, 0, 70, 97
2, 480664, Note_on_c, 0, 52, 97
2, 480758, Note_on_c, 0, 52, 0
2, 480758, Note_on_c, 0, 70, 0
2, 480760, Note_on_c, 0, 72, 97
2, 480760, Note_on_c, 0, 50, 97
2, 480760, Note_on_c, 0, 66, 97
2, 480854, Note_on_c, 0, 50, 0
2, 480856, Note_on_c, 0, 48, 97
2, 480950, Note_on_c, 0, 48, 0
2, 480950, Note_on_c, 0, 66, 0
2, 480952, Note_on_c, 0, 46, 97
2, 480952, Note_on_c, 0, 67, 97
2, 481046, Note_on_c, 0, 72, 0
2, 481048, Note_on_c, 0, 70, 97
2, 481142, Note_on_c, 0, 70, 0
2, 481142, Note_on_c, 0, 67, 0
2, 481142, Note_on_c, 0, 46, 0
2, 481144, Note_on_c, 0, 69, 97
2, 481144, Note_on_c, 0, 62, 97
2, 481238, Note_on_c, 0, 69, 0
2, 481240, Note_on_c, 0, 70, 97
2, 481334, Note_on_c, 0, 70, 0
2, 481334, Note_on_c, 0, 62, 0
2, 481336, Note_on_c, 0, 72, 97
2, 481336, Note_on_c, 0, 45, 97
2, 481430, Note_on_c, 0, 72, 0
2, 481432, Note_on_c, 0, 74, 97
2, 481526, Note_on_c, 0, 74, 0
2, 481526, Note_on_c, 0, 45, 0
2, 481528, Note_on_c, 0, 76, 97
2, 481528, Note_on_c, 0, 60, 97
2, 481528, Note_on_c, 0, 69, 97
2, 481622, Note_on_c, 0, 76, 0
2, 481624, Note_on_c, 0, 78, 97
2, 481718, Note_on_c, 0, 78, 0
2, 481718, Note_on_c, 0, 69, 0
2, 481718, Note_on_c, 0, 60, 0
2, 481720, Note_on_c, 0, 79, 97
2, 481720, Note_on_c, 0, 43, 97
2, 481720, Note_on_c, 0, 70, 97
2, 481814, Note_on_c, 0, 70, 0
2, 481816, Note_on_c, 0, 74, 97
2, 481910, Note_on_c, 0, 43, 0
2, 481910, Note_on_c, 0, 79, 0
2, 481912, Note_on_c, 0, 78, 97
2, 481912, Note_on_c, 0, 58, 97
2, 482006, Note_on_c, 0, 78, 0
2, 482008, Note_on_c, 0, 79, 97
2, 482102, Note_on_c, 0, 58, 0
2, 482102, Note_on_c, 0, 74, 0
2, 482104, Note_on_c, 0, 41, 97
2, 482104, Note_on_c, 0, 70, 97
2, 482198, Note_on_c, 0, 70, 0
2, 482200, Note_on_c, 0, 73, 97
2, 482294, Note_on_c, 0, 73, 0
2, 482294, Note_on_c, 0, 41, 0
2, 482296, Note_on_c, 0, 56, 97
2, 482296, Note_on_c, 0, 72, 97
2, 482390, Note_on_c, 0, 72, 0
2, 482392, Note_on_c, 0, 73, 97
2, 482486, Note_on_c, 0, 73, 0
2, 482486, Note_on_c, 0, 56, 0
2, 482488, Note_on_c, 0, 40, 97
2, 482488, Note_on_c, 0, 70, 97
2, 482582, Note_on_c, 0, 70, 0
2, 482584, Note_on_c, 0, 73, 97
2, 482678, Note_on_c, 0, 40, 0
2, 482678, Note_on_c, 0, 79, 0
2, 482680, Note_on_c, 0, 76, 97
2, 482680, Note_on_c, 0, 55, 97
2, 482774, Note_on_c, 0, 76, 0
2, 482776, Note_on_c, 0, 79, 97
2, 482870, Note_on_c, 0, 55, 0
2, 482870, Note_on_c, 0, 73, 0
2, 482872, Note_on_c, 0, 36, 97
2, 482872, Note_on_c, 0, 70, 97
2, 482966, Note_on_c, 0, 70, 0
2, 482968, Note_on_c, 0, 72, 97
2, 483062, Note_on_c, 0, 72, 0
2, 483062, Note_on_c, 0, 36, 0
2, 483064, Note_on_c, 0, 52, 97
2, 483064, Note_on_c, 0, 70, 97
2, 483158, Note_on_c, 0, 70, 0
2, 483160, Note_on_c, 0, 72, 97
2, 483254, Note_on_c, 0, 72, 0
2, 483254, Note_on_c, 0, 52, 0
2, 483256, Note_on_c, 0, 41, 97
2, 483256, Note_on_c, 0, 68, 97
2, 483350, Note_on_c, 0, 68, 0
2, 483352, Note_on_c, 0, 72, 97
2, 483446, Note_on_c, 0, 41, 0
2, 483446, Note_on_c, 0, 79, 0
2, 483448, Note_on_c, 0, 76, 97
2, 483448, Note_on_c, 0, 56, 97
2, 483542, Note_on_c, 0, 76, 0
2, 483544, Note_on_c, 0, 77, 97
2, 483638, Note_on_c, 0, 56, 0
2, 483638, Note_on_c, 0, 72, 0
2, 483640, Note_on_c, 0, 39, 97
2, 483640, Note_on_c, 0, 68, 97
2, 483734, Note_on_c, 0, 68, 0
2, 483736, Note_on_c, 0, 72, 97
2, 483830, Note_on_c, 0, 72, 0
2, 483830, Note_on_c, 0, 39, 0
2, 483832, Note_on_c, 0, 55, 97
2, 483832, Note_on_c, 0, 70, 97
2, 483926, Note_on_c, 0, 70, 0
2, 483928, Note_on_c, 0, 72, 97
2, 484022, Note_on_c, 0, 72, 0
2, 484022, Note_on_c, 0, 55, 0
2, 484024, Note_on_c, 0, 38, 97
2, 484024, Note_on_c, 0, 68, 97
2, 484118, Note_on_c, 0, 68, 0
2, 484120, Note_on_c, 0, 70, 97
2, 484214, Note_on_c, 0, 38, 0
2, 484214, Note_on_c, 0, 77, 0
2, 484216, Note_on_c, 0, 74, 97
2, 484216, Note_on_c, 0, 53, 97
2, 484310, Note_on_c, 0, 74, 0
2, 484312, Note_on_c, 0, 77, 97
2, 484406, Note_on_c, 0, 53, 0
2, 484406, Note_on_c, 0, 70, 0
2, 484408, Note_on_c, 0, 34, 97
2, 484408, Note_on_c, 0, 68, 97
2, 484502, Note_on_c, 0, 68, 0
2, 484504, Note_on_c, 0, 70, 97
2, 484598, Note_on_c, 0, 70, 0
2, 484598, Note_on_c, 0, 34, 0
2, 484600, Note_on_c, 0, 50, 97
2, 484600, Note_on_c, 0, 68, 97
2, 484694, Note_on_c, 0, 68, 0
2, 484696, Note_on_c, 0, 70, 97
2, 484790, Note_on_c, 0, 70, 0
2, 484790, Note_on_c, 0, 50, 0
2, 484792, Note_on_c, 0, 39, 97
2, 484792, Note_on_c, 0, 67, 97
2, 484886, Note_on_c, 0, 77, 0
2, 484888, Note_on_c, 0, 75, 97
2, 484982, Note_on_c, 0, 75, 0
2, 484982, Note_on_c, 0, 67, 0
2, 484982, Note_on_c, 0, 39, 0
2, 484984, Note_on_c, 0, 74, 97
2, 484984, Note_on_c, 0, 51, 97
2, 485078, Note_on_c, 0, 74, 0
2, 485080, Note_on_c, 0, 77, 97
2, 485174, Note_on_c, 0, 77, 0
2, 485174, Note_on_c, 0, 51, 0
2, 485176, Note_on_c, 0, 75, 97
2, 485176, Note_on_c, 0, 53, 97
2, 485270, Note_on_c, 0, 75, 0
2, 485272, Note_on_c, 0, 74, 97
2, 485366, Note_on_c, 0, 74, 0
2, 485366, Note_on_c, 0, 53, 0
2, 485368, Note_on_c, 0, 72, 97
2, 485368, Note_on_c, 0, 55, 97
2, 485462, Note_on_c, 0, 72, 0
2, 485464, Note_on_c, 0, 71, 97
2, 485558, Note_on_c, 0, 71, 0
2, 485558, Note_on_c, 0, 55, 0
2, 485560, Note_on_c, 0, 72, 97
2, 485560, Note_on_c, 0, 56, 97
2, 485654, Note_on_c, 0, 72, 0
2, 485656, Note_on_c, 0, 71, 97
2, 485750, Note_on_c, 0, 71, 0
2, 485750, Note_on_c, 0, 56, 0
2, 485752, Note_on_c, 0, 72, 97
2, 485752, Note_on_c, 0, 63, 97
2, 485846, Note_on_c, 0, 63, 0
2, 485846, Note_on_c, 0, 72, 0
2, 485848, Note_on_c, 0, 74, 97
2, 485848, Note_on_c, 0, 65, 97
2, 485942, Note_on_c, 0, 65, 0
2, 485942, Note_on_c, 0, 74, 0
2, 485944, Note_on_c, 0, 75, 97
2, 485944, Note_on_c, 0, 67, 97
2, 486038, Note_on_c, 0, 67, 0
2, 486038, Note_on_c, 0, 75, 0
2, 486040, Note_on_c, 0, 77, 97
2, 486040, Note_on_c, 0, 69, 97
2, 486134, Note_on_c, 0, 69, 0
2, 486134, Note_on_c, 0, 77, 0
2, 486136, Note_on_c, 0, 79, 97
2, 486136, Note_on_c, 0, 71, 97
2, 486230, Note_on_c, 0, 71, 0
2, 486232, Note_on_c, 0, 72, 97
2, 486326, Note_on_c, 0, 72, 0
2, 486328, Note_on_c, 0, 74, 97
2, 486422, Note_on_c, 0, 79, 0
2, 486424, Note_on_c, 0, 77, 97
2, 486518, Note_on_c, 0, 77, 0
2, 486518, Note_on_c, 0, 74, 0
2, 486520, Note_on_c, 0, 75, 97
2, 486520, Note_on_c, 0, 50, 97
2, 486614, Note_on_c, 0, 75, 0
2, 486616, Note_on_c, 0, 79, 97
2, 486710, Note_on_c, 0, 79, 0
2, 486710, Note_on_c, 0, 50, 0
2, 486712, Note_on_c, 0, 77, 97
2, 486712, Note_on_c, 0, 51, 97
2, 486806, Note_on_c, 0, 77, 0
2, 486808, Note_on_c, 0, 75, 97
2, 486902, Note_on_c, 0, 75, 0
2, 486902, Note_on_c, 0, 51, 0
2, 486904, Note_on_c, 0, 74, 97
2, 486904, Note_on_c, 0, 53, 97
2, 486998, Note_on_c, 0, 74, 0
2, 487000, Note_on_c, 0, 72, 97
2, 487094, Note_on_c, 0, 72, 0
2, 487094, Note_on_c, 0, 53, 0
2, 487096, Note_on_c, 0, 71, 97
2, 487096, Note_on_c, 0, 55, 97
2, 487190, Note_on_c, 0, 71, 0
2, 487192, Note_on_c, 0, 69, 97
2, 487286, Note_on_c, 0, 69, 0
2, 487286, Note_on_c, 0, 55, 0
2, 487288, Note_on_c, 0, 71, 97
2, 487288, Note_on_c, 0, 62, 97
2, 487382, Note_on_c, 0, 62, 0
2, 487382, Note_on_c, 0, 71, 0
2, 487384, Note_on_c, 0, 72, 97
2, 487384, Note_on_c, 0, 63, 97
2, 487478, Note_on_c, 0, 63, 0
2, 487478, Note_on_c, 0, 72, 0
2, 487480, Note_on_c, 0, 74, 97
2, 487480, Note_on_c, 0, 65, 97
2, 487574, Note_on_c, 0, 65, 0
2, 487574, Note_on_c, 0, 74, 0
2, 487576, Note_on_c, 0, 75, 97
2, 487576, Note_on_c, 0, 67, 97
2, 487670, Note_on_c, 0, 67, 0
2, 487670, Note_on_c, 0, 75, 0
2, 487672, Note_on_c, 0, 77, 97
2, 487672, Note_on_c, 0, 69, 97
2, 487766, Note_on_c, 0, 69, 0
2, 487768, Note_on_c, 0, 71, 97
2, 487862, Note_on_c, 0, 71, 0
2, 487864, Note_on_c, 0, 72, 97
2, 487958, Note_on_c, 0, 77, 0
2, 487960, Note_on_c, 0, 80, 97
2, 488054, Note_on_c, 0, 80, 0
2, 488054, Note_on_c, 0, 72, 0
2, 488056, Note_on_c, 0, 79, 97
2, 488056, Note_on_c, 0, 55, 97
2, 488150, Note_on_c, 0, 79, 0
2, 488152, Note_on_c, 0, 77, 97
2, 488246, Note_on_c, 0, 77, 0
2, 488246, Note_on_c, 0, 55, 0
2, 488248, Note_on_c, 0, 75, 97
2, 488248, Note_on_c, 0, 60, 97
2, 488342, Note_on_c, 0, 75, 0
2, 488344, Note_on_c, 0, 74, 97
2, 488438, Note_on_c, 0, 74, 0
2, 488440, Note_on_c, 0, 72, 97
2, 488534, Note_on_c, 0, 72, 0
2, 488536, Note_on_c, 0, 70, 97
2, 488630, Note_on_c, 0, 70, 0
2, 488632, Note_on_c, 0, 68, 97
2, 488726, Note_on_c, 0, 68, 0
2, 488728, Note_on_c, 0, 72, 97
2, 488822, Note_on_c, 0, 72, 0
2, 488822, Note_on_c, 0, 60, 0
2, 488824, Note_on_c, 0, 77, 97
2, 488824, Note_on_c, 0, 62, 97
2, 488918, Note_on_c, 0, 62, 0
2, 488918, Note_on_c, 0, 77, 0
2, 488920, Note_on_c, 0, 75, 97
2, 488920, Note_on_c, 0, 60, 97
2, 489014, Note_on_c, 0, 60, 0
2, 489014, Note_on_c, 0, 75, 0
2, 489016, Note_on_c, 0, 74, 97
2, 489016, Note_on_c, 0, 59, 97
2, 489110, Note_on_c, 0, 59, 0
2, 489110, Note_on_c, 0, 74, 0
2, 489112, Note_on_c, 0, 72, 97
2, 489112, Note_on_c, 0, 57, 97
2, 489206, Note_on_c, 0, 57, 0
2, 489206, Note_on_c, 0, 72, 0
2, 489208, Note_on_c, 0, 71, 97
2, 489208, Note_on_c, 0, 55, 97
2, 489302, Note_on_c, 0, 55, 0
2, 489302, Note_on_c, 0, 71, 0
2, 489304, Note_on_c, 0, 74, 97
2, 489304, Note_on_c, 0, 53, 97
2, 489398, Note_on_c, 0, 53, 0
2, 489398, Note_on_c, 0, 74, 0
2, 489400, Note_on_c, 0, 79, 97
2, 489400, Note_on_c, 0, 51, 97
2, 489494, Note_on_c, 0, 79, 0
2, 489496, Note_on_c, 0, 77, 97
2, 489590, Note_on_c, 0, 77, 0
2, 489590, Note_on_c, 0, 51, 0
2, 489592, Note_on_c, 0, 75, 97
2, 489592, Note_on_c, 0, 67, 97
2, 489592, Note_on_c, 0, 72, 97
2, 489686, Note_on_c, 0, 75, 0
2, 489688, Note_on_c, 0, 79, 97
2, 489782, Note_on_c, 0, 79, 0
2, 489782, Note_on_c, 0, 67, 0
2, 489784, Note_on_c, 0, 77, 97
2, 489784, Note_on_c, 0, 50, 97
2, 489878, Note_on_c, 0, 77, 0
2, 489880, Note_on_c, 0, 75, 97
2, 489974, Note_on_c, 0, 75, 0
2, 489974, Note_on_c, 0, 50, 0
2, 489974, Note_on_c, 0, 72, 0
2, 489976, Note_on_c, 0, 74, 97
2, 489976, Note_on_c, 0, 65, 97
2, 489976, Note_on_c, 0, 71, 97
2, 490070, Note_on_c, 0, 74, 0
2, 490072, Note_on_c, 0, 77, 97
2, 490166, Note_on_c, 0, 77, 0
2, 490166, Note_on_c, 0, 71, 0
2, 490166, Note_on_c, 0, 65, 0
2, 490168, Note_on_c, 0, 75, 97
2, 490168, Note_on_c, 0, 48, 97
2, 490264, Note_on_c, 0, 72, 97
2, 490358, Note_on_c, 0, 72, 0
2, 490358, Note_on_c, 0, 48, 0
2, 490360, Note_on_c, 0, 63, 97
2, 490360, Note_on_c, 0, 71, 97
2, 490454, Note_on_c, 0, 71, 0
2, 490454, Note_on_c, 0, 63, 0
2, 490456, Note_on_c, 0, 62, 97
2, 490456, Note_on_c, 0, 72, 97
2, 490548, Note_on_c, 0, 75, 0
2, 490550, Note_on_c, 0, 72, 0
2, 490550, Note_on_c, 0, 62, 0
2, 490552, Note_on_c, 0, 60, 97
2, 490552, Note_on_c, 0, 67, 97
2, 490646, Note_on_c, 0, 67, 0
2, 490648, Note_on_c, 0, 72, 97
2, 490742, Note_on_c, 0, 72, 0
2, 490742, Note_on_c, 0, 60, 0
2, 490744, Note_on_c, 0, 63, 97
2, 490744, Note_on_c, 0, 71, 97
2, 490838, Note_on_c, 0, 71, 0
2, 490840, Note_on_c, 0, 72, 97
2, 490934, Note_on_c, 0, 72, 0
2, 490934, Note_on_c, 0, 63, 0
2, 490936, Note_on_c, 0, 57, 97
2, 490936, Note_on_c, 0, 75, 97
2, 491030, Note_on_c, 0, 75, 0
2, 491032, Note_on_c, 0, 72, 97
2, 491126, Note_on_c, 0, 72, 0
2, 491126, Note_on_c, 0, 57, 0
2, 491128, Note_on_c, 0, 60, 97
2, 491128, Note_on_c, 0, 81, 97
2, 491222, Note_on_c, 0, 81, 0
2, 491224, Note_on_c, 0, 75, 97
2, 491318, Note_on_c, 0, 75, 0
2, 491318, Note_on_c, 0, 60, 0
2, 491320, Note_on_c, 0, 53, 97
2, 491320, Note_on_c, 0, 84, 97
2, 491414, Note_on_c, 0, 84, 0
2, 491416, Note_on_c, 0, 75, 97
2, 491510, Note_on_c, 0, 75, 0
2, 491510, Note_on_c, 0, 53, 0
2, 491512, Note_on_c, 0, 57, 97
2, 491512, Note_on_c, 0, 74, 97
2, 491606, Note_on_c, 0, 74, 0
2, 491608, Note_on_c, 0, 72, 97
2, 491702, Note_on_c, 0, 72, 0
2, 491702, Note_on_c, 0, 57, 0
2, 491704, Note_on_c, 0, 46, 97
2, 491704, Note_on_c, 0, 74, 97
2, 491798, Note_on_c, 0, 74, 0
2, 491800, Note_on_c, 0, 70, 97
2, 491894, Note_on_c, 0, 70, 0
2, 491894, Note_on_c, 0, 46, 0
2, 491896, Note_on_c, 0, 62, 97
2, 491896, Note_on_c, 0, 69, 97
2, 491990, Note_on_c, 0, 69, 0
2, 491990, Note_on_c, 0, 62, 0
2, 491992, Note_on_c, 0, 60, 97
2, 491992, Note_on_c, 0, 70, 97
2, 492086, Note_on_c, 0, 70, 0
2, 492086, Note_on_c, 0, 60, 0
2, 492088, Note_on_c, 0, 58, 97
2, 492088, Note_on_c, 0, 65, 97
2, 492182, Note_on_c, 0, 65, 0
2, 492184, Note_on_c, 0, 70, 97
2, 492278, Note_on_c, 0, 70, 0
2, 492278, Note_on_c, 0, 58, 0
2, 492280, Note_on_c, 0, 62, 97
2, 492280, Note_on_c, 0, 69, 97
2, 492374, Note_on_c, 0, 69, 0
2, 492376, Note_on_c, 0, 70, 97
2, 492470, Note_on_c, 0, 70, 0
2, 492470, Note_on_c, 0, 62, 0
2, 492472, Note_on_c, 0, 55, 97
2, 492472, Note_on_c, 0, 74, 97
2, 492566, Note_on_c, 0, 74, 0
2, 492568, Note_on_c, 0, 70, 97
2, 492662, Note_on_c, 0, 70, 0
2, 492662, Note_on_c, 0, 55, 0
2, 492664, Note_on_c, 0, 58, 97
2, 492664, Note_on_c, 0, 79, 97
2, 492758, Note_on_c, 0, 79, 0
2, 492760, Note_on_c, 0, 74, 97
2, 492854, Note_on_c, 0, 74, 0
2, 492854, Note_on_c, 0, 58, 0
2, 492856, Note_on_c, 0, 51, 97
2, 492856, Note_on_c, 0, 82, 97
2, 492950, Note_on_c, 0, 82, 0
2, 492952, Note_on_c, 0, 74, 97
2, 493046, Note_on_c, 0, 74, 0
2, 493046, Note_on_c, 0, 51, 0
2, 493048, Note_on_c, 0, 55, 97
2, 493048, Note_on_c, 0, 72, 97
2, 493142, Note_on_c, 0, 72, 0
2, 493144, Note_on_c, 0, 70, 97
2, 493238, Note_on_c, 0, 70, 0
2, 493238, Note_on_c, 0, 55, 0
2, 493240, Note_on_c, 0, 45, 97
2, 493240, Note_on_c, 0, 72, 97
2, 493334, Note_on_c, 0, 72, 0
2, 493336, Note_on_c, 0, 69, 97
2, 493430, Note_on_c, 0, 69, 0
2, 493430, Note_on_c, 0, 45, 0
2, 493432, Note_on_c, 0, 60, 97
2, 493432, Note_on_c, 0, 67, 97
2, 493526, Note_on_c, 0, 67, 0
2, 493526, Note_on_c, 0, 60, 0
2, 493528, Note_on_c, 0, 58, 97
2, 493528, Note_on_c, 0, 69, 97
2, 493622, Note_on_c, 0, 69, 0
2, 493622, Note_on_c, 0, 58, 0
2, 493624, Note_on_c, 0, 57, 97
2, 493624, Note_on_c, 0, 66, 97
2, 493718, Note_on_c, 0, 66, 0
2, 493720, Note_on_c, 0, 69, 97
2, 493814, Note_on_c, 0, 69, 0
2, 493814, Note_on_c, 0, 57, 0
2, 493816, Note_on_c, 0, 60, 97
2, 493816, Note_on_c, 0, 67, 97
2, 493910, Note_on_c, 0, 67, 0
2, 493912, Note_on_c, 0, 69, 97
2, 494006, Note_on_c, 0, 69, 0
2, 494006, Note_on_c, 0, 60, 0
2, 494008, Note_on_c, 0, 54, 97
2, 494008, Note_on_c, 0, 72, 97
2, 494102, Note_on_c, 0, 72, 0
2, 494104, Note_on_c, 0, 69, 97
2, 494198, Note_on_c, 0, 69, 0
2, 494198, Note_on_c, 0, 54, 0
2, 494200, Note_on_c, 0, 57, 97
2, 494200, Note_on_c, 0, 78, 97
2, 494294, Note_on_c, 0, 78, 0
2, 494296, Note_on_c, 0, 72, 97
2, 494390, Note_on_c, 0, 72, 0
2, 494390, Note_on_c, 0, 57, 0
2, 494392, Note_on_c, 0, 50, 97
2, 494392, Note_on_c, 0, 81, 97
2, 494486, Note_on_c, 0, 81, 0
2, 494488, Note_on_c, 0, 72, 97
2, 494582, Note_on_c, 0, 72, 0
2, 494582, Note_on_c, 0, 50, 0
2, 494584, Note_on_c, 0, 54, 97
2, 494584, Note_on_c, 0, 70, 97
2, 494678, Note_on_c, 0, 70, 0
2, 494680, Note_on_c, 0, 69, 97
2, 494774, Note_on_c, 0, 69, 0
2, 494774, Note_on_c, 0, 54, 0
2, 494776, Note_on_c, 0, 43, 97
2, 494776, Note_on_c, 0, 70, 97
2, 494872, Note_on_c, 0, 55, 97
2, 494966, Note_on_c, 0, 55, 0
2, 494966, Note_on_c, 0, 70, 0
2, 494966, Note_on_c, 0, 43, 0
2, 494968, Note_on_c, 0, 54, 97
2, 494968, Note_on_c, 0, 74, 97
2, 495062, Note_on_c, 0, 54, 0
2, 495064, Note_on_c, 0, 55, 97
2, 495158, Note_on_c, 0, 55, 0
2, 495158, Note_on_c, 0, 74, 0
2, 495160, Note_on_c, 0, 50, 97
2, 495160, Note_on_c, 0, 46, 97
2, 495160, Note_on_c, 0, 79, 97
2, 495254, Note_on_c, 0, 50, 0
2, 495256, Note_on_c, 0, 55, 97
2, 495350, Note_on_c, 0, 55, 0
2, 495350, Note_on_c, 0, 46, 0
2, 495352, Note_on_c, 0, 54, 97
2, 495446, Note_on_c, 0, 54, 0
2, 495448, Note_on_c, 0, 55, 97
2, 495542, Note_on_c, 0, 55, 0
2, 495544, Note_on_c, 0, 48, 97
2, 495544, Note_on_c, 0, 45, 97
2, 495638, Note_on_c, 0, 48, 0
2, 495640, Note_on_c, 0, 55, 97
2, 495734, Note_on_c, 0, 55, 0
2, 495734, Note_on_c, 0, 45, 0
2, 495734, Note_on_c, 0, 79, 0
2, 495736, Note_on_c, 0, 54, 97
2, 495736, Note_on_c, 0, 81, 97
2, 495830, Note_on_c, 0, 81, 0
2, 495830, Note_on_c, 0, 54, 0
2, 495832, Note_on_c, 0, 55, 97
2, 495832, Note_on_c, 0, 79, 97
2, 495926, Note_on_c, 0, 79, 0
2, 495926, Note_on_c, 0, 55, 0
2, 495928, Note_on_c, 0, 57, 97
2, 495928, Note_on_c, 0, 48, 97
2, 495928, Note_on_c, 0, 78, 97
2, 496022, Note_on_c, 0, 78, 0
2, 496022, Note_on_c, 0, 57, 0
2, 496024, Note_on_c, 0, 55, 97
2, 496024, Note_on_c, 0, 76, 97
2, 496118, Note_on_c, 0, 76, 0
2, 496118, Note_on_c, 0, 55, 0
2, 496118, Note_on_c, 0, 48, 0
2, 496120, Note_on_c, 0, 54, 97
2, 496120, Note_on_c, 0, 74, 97
2, 496214, Note_on_c, 0, 74, 0
2, 496214, Note_on_c, 0, 54, 0
2, 496216, Note_on_c, 0, 52, 97
2, 496216, Note_on_c, 0, 72, 97
2, 496310, Note_on_c, 0, 72, 0
2, 496310, Note_on_c, 0, 52, 0
2, 496312, Note_on_c, 0, 50, 97
2, 496312, Note_on_c, 0, 70, 97
2, 496502, Note_on_c, 0, 70, 0
2, 496502, Note_on_c, 0, 50, 0
2, 496504, Note_on_c, 0, 55, 97
2, 496504, Note_on_c, 0, 46, 97
2, 496504, Note_on_c, 0, 86, 97
2, 496694, Note_on_c, 0, 86, 0
2, 496694, Note_on_c, 0, 46, 0
2, 496696, Note_on_c, 0, 48, 97
2, 496696, Note_on_c, 0, 69, 97
2, 496886, Note_on_c, 0, 69, 0
2, 496886, Note_on_c, 0, 48, 0
2, 496886, Note_on_c, 0, 55, 0
2, 496888, Note_on_c, 0, 54, 97
2, 496888, Note_on_c, 0, 50, 97
2, 496888, Note_on_c, 0, 84, 97
2, 497078, Note_on_c, 0, 84, 0
2, 497078, Note_on_c, 0, 50, 0
2, 497078, Note_on_c, 0, 54, 0
2, 497080, Note_on_c, 0, 43, 97
2, 497080, Note_on_c, 0, 67, 97
2, 497176, Note_on_c, 0, 55, 97
2, 497270, Note_on_c, 0, 55, 0
2, 497270, Note_on_c, 0, 67, 0
2, 497270, Note_on_c, 0, 43, 0
2, 497272, Note_on_c, 0, 54, 97
2, 497272, Note_on_c, 0, 82, 97
2, 497366, Note_on_c, 0, 82, 0
2, 497366, Note_on_c, 0, 54, 0
2, 497368, Note_on_c, 0, 55, 97
2, 497368, Note_on_c, 0, 81, 97
2, 497462, Note_on_c, 0, 81, 0
2, 497462, Note_on_c, 0, 55, 0
2, 497464, Note_on_c, 0, 50, 97
2, 497464, Note_on_c, 0, 46, 97
2, 497464, Note_on_c, 0, 79, 97
2, 497558, Note_on_c, 0, 50, 0
2, 497560, Note_on_c, 0, 55, 97
2, 497654, Note_on_c, 0, 55, 0
2, 497654, Note_on_c, 0, 79, 0
2, 497654, Note_on_c, 0, 46, 0
2, 497656, Note_on_c, 0, 54, 97
2, 497656, Note_on_c, 0, 82, 97
2, 497750, Note_on_c, 0, 54, 0
2, 497752, Note_on_c, 0, 55, 97
2, 497846, Note_on_c, 0, 55, 0
2, 497846, Note_on_c, 0, 82, 0
2, 497848, Note_on_c, 0, 58, 97
2, 497848, Note_on_c, 0, 76, 97
2, 497942, Note_on_c, 0, 58, 0
2, 497944, Note_on_c, 0, 55, 97
2, 498038, Note_on_c, 0, 55, 0
2, 498038, Note_on_c, 0, 76, 0
2, 498040, Note_on_c, 0, 64, 97
2, 498040, Note_on_c, 0, 79, 97
2, 498134, Note_on_c, 0, 64, 0
2, 498136, Note_on_c, 0, 58, 97
2, 498230, Note_on_c, 0, 58, 0
2, 498230, Note_on_c, 0, 79, 0
2, 498232, Note_on_c, 0, 67, 97
2, 498232, Note_on_c, 0, 48, 97
2, 498232, Note_on_c, 0, 70, 97
2, 498326, Note_on_c, 0, 67, 0
2, 498328, Note_on_c, 0, 58, 97
2, 498422, Note_on_c, 0, 58, 0
2, 498422, Note_on_c, 0, 70, 0
2, 498422, Note_on_c, 0, 48, 0
2, 498424, Note_on_c, 0, 56, 97
2, 498424, Note_on_c, 0, 76, 97
2, 498518, Note_on_c, 0, 56, 0
2, 498520, Note_on_c, 0, 55, 97
2, 498614, Note_on_c, 0, 55, 0
2, 498614, Note_on_c, 0, 76, 0
2, 498616, Note_on_c, 0, 56, 97
2, 498616, Note_on_c, 0, 53, 97
2, 498616, Note_on_c, 0, 65, 97
2, 498710, Note_on_c, 0, 53, 0
2, 498710, Note_on_c, 0, 56, 0
2, 498712, Note_on_c, 0, 53, 97
2, 498806, Note_on_c, 0, 53, 0
2, 498806, Note_on_c, 0, 65, 0
2, 498808, Note_on_c, 0, 52, 97
2, 498808, Note_on_c, 0, 80, 97
2, 498902, Note_on_c, 0, 80, 0
2, 498902, Note_on_c, 0, 52, 0
2, 498904, Note_on_c, 0, 53, 97
2, 498904, Note_on_c, 0, 79, 97
2, 498998, Note_on_c, 0, 79, 0
2, 498998, Note_on_c, 0, 53, 0
2, 499000, Note_on_c, 0, 48, 97
2, 499000, Note_on_c, 0, 44, 97
2, 499000, Note_on_c, 0, 77, 97
2, 499094, Note_on_c, 0, 48, 0
2, 499096, Note_on_c, 0, 53, 97
2, 499190, Note_on_c, 0, 53, 0
2, 499190, Note_on_c, 0, 77, 0
2, 499190, Note_on_c, 0, 44, 0
2, 499192, Note_on_c, 0, 52, 97
2, 499192, Note_on_c, 0, 80, 97
2, 499286, Note_on_c, 0, 52, 0
2, 499288, Note_on_c, 0, 53, 97
2, 499382, Note_on_c, 0, 53, 0
2, 499382, Note_on_c, 0, 80, 0
2, 499384, Note_on_c, 0, 56, 97
2, 499384, Note_on_c, 0, 74, 97
2, 499478, Note_on_c, 0, 56, 0
2, 499480, Note_on_c, 0, 53, 97
2, 499574, Note_on_c, 0, 53, 0
2, 499574, Note_on_c, 0, 74, 0
2, 499576, Note_on_c, 0, 62, 97
2, 499576, Note_on_c, 0, 77, 97
2, 499670, Note_on_c, 0, 62, 0
2, 499672, Note_on_c, 0, 56, 97
2, 499766, Note_on_c, 0, 56, 0
2, 499766, Note_on_c, 0, 77, 0
2, 499768, Note_on_c, 0, 65, 97
2, 499768, Note_on_c, 0, 46, 97
2, 499768, Note_on_c, 0, 68, 97
2, 499862, Note_on_c, 0, 65, 0
2, 499864, Note_on_c, 0, 56, 97
2, 499958, Note_on_c, 0, 56, 0
2, 499958, Note_on_c, 0, 68, 0
2, 499958, Note_on_c, 0, 46, 0
2, 499960, Note_on_c, 0, 55, 97
2, 499960, Note_on_c, 0, 74, 97
2, 500054, Note_on_c, 0, 55, 0
2, 500056, Note_on_c, 0, 53, 97
2, 500150, Note_on_c, 0, 53, 0
2, 500150, Note_on_c, 0, 74, 0
2, 500152, Note_on_c, 0, 55, 97
2, 500152, Note_on_c, 0, 63, 97
2, 500248, Note_on_c, 0, 53, 97
2, 500342, Note_on_c, 0, 53, 0
2, 500342, Note_on_c, 0, 55, 0
2, 500344, Note_on_c, 0, 58, 97
2, 500344, Note_on_c, 0, 51, 97
2, 500438, Note_on_c, 0, 51, 0
2, 500440, Note_on_c, 0, 50, 97
2, 500532, Note_on_c, 0, 63, 0
2, 500534, Note_on_c, 0, 50, 0
2, 500534, Note_on_c, 0, 58, 0
2, 500536, Note_on_c, 0, 63, 97
2, 500536, Note_on_c, 0, 48, 97
2, 500630, Note_on_c, 0, 48, 0
2, 500632, Note_on_c, 0, 46, 97
2, 500726, Note_on_c, 0, 46, 0
2, 500728, Note_on_c, 0, 44, 97
2, 500728, Note_on_c, 0, 72, 97
2, 500822, Note_on_c, 0, 44, 0
2, 500824, Note_on_c, 0, 43, 97
2, 500918, Note_on_c, 0, 43, 0
2, 500918, Note_on_c, 0, 72, 0
2, 500920, Note_on_c, 0, 41, 97
2, 500920, Note_on_c, 0, 68, 97
2, 501014, Note_on_c, 0, 41, 0
2, 501016, Note_on_c, 0, 51, 97
2, 501110, Note_on_c, 0, 51, 0
2, 501110, Note_on_c, 0, 63, 0
2, 501112, Note_on_c, 0, 65, 97
2, 501112, Note_on_c, 0, 50, 97
2, 501206, Note_on_c, 0, 50, 0
2, 501206, Note_on_c, 0, 65, 0
2, 501208, Note_on_c, 0, 63, 97
2, 501208, Note_on_c, 0, 48, 97
2, 501300, Note_on_c, 0, 68, 0
2, 501302, Note_on_c, 0, 48, 0
2, 501302, Note_on_c, 0, 63, 0
2, 501304, Note_on_c, 0, 62, 97
2, 501304, Note_on_c, 0, 46, 97
2, 501398, Note_on_c, 0, 46, 0
2, 501398, Note_on_c, 0, 62, 0
2, 501400, Note_on_c, 0, 60, 97
2, 501400, Note_on_c, 0, 44, 97
2, 501494, Note_on_c, 0, 44, 0
2, 501494, Note_on_c, 0, 60, 0
2, 501496, Note_on_c, 0, 58, 97
2, 501496, Note_on_c, 0, 43, 97
2, 501590, Note_on_c, 0, 43, 0
2, 501590, Note_on_c, 0, 58, 0
2, 501592, Note_on_c, 0, 56, 97
2, 501592, Note_on_c, 0, 41, 97
2, 501686, Note_on_c, 0, 41, 0
2, 501686, Note_on_c, 0, 56, 0
2, 501688, Note_on_c, 0, 55, 97
2, 501688, Note_on_c, 0, 39, 97
2, 501782, Note_on_c, 0, 39, 0
2, 501784, Note_on_c, 0, 50, 97
2, 501878, Note_on_c, 0, 50, 0
2, 501880, Note_on_c, 0, 48, 97
2, 501880, Note_on_c, 0, 67, 97
2, 501974, Note_on_c, 0, 48, 0
2, 501976, Note_on_c, 0, 46, 97
2, 502068, Note_on_c, 0, 55, 0
2, 502070, Note_on_c, 0, 46, 0
2, 502070, Note_on_c, 0, 67, 0
2, 502072, Note_on_c, 0, 44, 97
2, 502072, Note_on_c, 0, 72, 97
2, 502166, Note_on_c, 0, 44, 0
2, 502168, Note_on_c, 0, 43, 97
2, 502262, Note_on_c, 0, 43, 0
2, 502264, Note_on_c, 0, 60, 97
2, 502264, Note_on_c, 0, 41, 97
2, 502358, Note_on_c, 0, 41, 0
2, 502360, Note_on_c, 0, 39, 97
2, 502454, Note_on_c, 0, 39, 0
2, 502454, Note_on_c, 0, 60, 0
2, 502456, Note_on_c, 0, 65, 97
2, 502456, Note_on_c, 0, 38, 97
2, 502550, Note_on_c, 0, 38, 0
2, 502552, Note_on_c, 0, 48, 97
2, 502646, Note_on_c, 0, 48, 0
2, 502646, Note_on_c, 0, 72, 0
2, 502648, Note_on_c, 0, 46, 97
2, 502648, Note_on_c, 0, 74, 97
2, 502742, Note_on_c, 0, 74, 0
2, 502742, Note_on_c, 0, 46, 0
2, 502744, Note_on_c, 0, 44, 97
2, 502744, Note_on_c, 0, 72, 97
2, 502836, Note_on_c, 0, 65, 0
2, 502838, Note_on_c, 0, 72, 0
2, 502838, Note_on_c, 0, 44, 0
2, 502840, Note_on_c, 0, 43, 97
2, 502840, Note_on_c, 0, 71, 97
2, 502934, Note_on_c, 0, 71, 0
2, 502934, Note_on_c, 0, 43, 0
2, 502936, Note_on_c, 0, 41, 97
2, 502936, Note_on_c, 0, 69, 97
2, 503030, Note_on_c, 0, 69, 0
2, 503030, Note_on_c, 0, 41, 0
2, 503032, Note_on_c, 0, 39, 97
2, 503032, Note_on_c, 0, 67, 97
2, 503126, Note_on_c, 0, 67, 0
2, 503126, Note_on_c, 0, 39, 0
2, 503128, Note_on_c, 0, 38, 97
2, 503128, Note_on_c, 0, 65, 97
2, 503222, Note_on_c, 0, 65, 0
2, 503222, Note_on_c, 0, 38, 0
2, 503224, Note_on_c, 0, 36, 97
2, 503224, Note_on_c, 0, 63, 97
2, 503414, Note_on_c, 0, 63, 0
2, 503414, Note_on_c, 0, 36, 0
2, 503416, Note_on_c, 0, 51, 97
2, 503416, Note_on_c, 0, 48, 97
2, 503416, Note_on_c, 0, 79, 97
2, 503606, Note_on_c, 0, 79, 0
2, 503606, Note_on_c, 0, 51, 0
2, 503608, Note_on_c, 0, 53, 97
2, 503608, Note_on_c, 0, 62, 97
2, 503798, Note_on_c, 0, 62, 0
2, 503798, Note_on_c, 0, 53, 0
2, 503798, Note_on_c, 0, 48, 0
2, 503800, Note_on_c, 0, 55, 97
2, 503800, Note_on_c, 0, 47, 97
2, 503800, Note_on_c, 0, 77, 97
2, 503990, Note_on_c, 0, 47, 0
2, 503992, Note_on_c, 0, 48, 97
2, 504086, Note_on_c, 0, 77, 0
2, 504088, Note_on_c, 0, 75, 97
2, 504182, Note_on_c, 0, 75, 0
2, 504182, Note_on_c, 0, 55, 0
2, 504184, Note_on_c, 0, 55, 97
2, 504184, Note_on_c, 0, 74, 97
2, 504278, Note_on_c, 0, 74, 0
2, 504280, Note_on_c, 0, 77, 97
2, 504372, Note_on_c, 0, 48, 0
2, 504374, Note_on_c, 0, 77, 0
2, 504374, Note_on_c, 0, 55, 0
2, 504376, Note_on_c, 0, 60, 97
2, 504376, Note_on_c, 0, 75, 97
2, 504470, Note_on_c, 0, 75, 0
2, 504472, Note_on_c, 0, 48, 97
2, 504472, Note_on_c, 0, 74, 97
2, 504566, Note_on_c, 0, 74, 0
2, 504566, Note_on_c, 0, 48, 0
2, 504568, Note_on_c, 0, 50, 97
2, 504568, Note_on_c, 0, 72, 97
2, 504662, Note_on_c, 0, 72, 0
2, 504662, Note_on_c, 0, 50, 0
2, 504664, Note_on_c, 0, 51, 97
2, 504664, Note_on_c, 0, 70, 97
2, 504758, Note_on_c, 0, 70, 0
2, 504758, Note_on_c, 0, 51, 0
2, 504760, Note_on_c, 0, 53, 97
2, 504760, Note_on_c, 0, 68, 97
2, 504854, Note_on_c, 0, 68, 0
2, 504856, Note_on_c, 0, 67, 97
2, 504950, Note_on_c, 0, 67, 0
2, 504950, Note_on_c, 0, 53, 0
2, 504950, Note_on_c, 0, 60, 0
2, 504952, Note_on_c, 0, 60, 97
2, 504952, Note_on_c, 0, 68, 97
2, 505046, Note_on_c, 0, 68, 0
2, 505046, Note_on_c, 0, 60, 0
2, 505048, Note_on_c, 0, 62, 97
2, 505048, Note_on_c, 0, 70, 97
2, 505142, Note_on_c, 0, 70, 0
2, 505142, Note_on_c, 0, 62, 0
2, 505144, Note_on_c, 0, 63, 97
2, 505144, Note_on_c, 0, 72, 97
2, 505238, Note_on_c, 0, 72, 0
2, 505238, Note_on_c, 0, 63, 0
2, 505240, Note_on_c, 0, 65, 97
2, 505240, Note_on_c, 0, 74, 97
2, 505334, Note_on_c, 0, 74, 0
2, 505334, Note_on_c, 0, 65, 0
2, 505336, Note_on_c, 0, 67, 97
2, 505336, Note_on_c, 0, 75, 97
2, 505430, Note_on_c, 0, 67, 0
2, 505432, Note_on_c, 0, 68, 97
2, 505526, Note_on_c, 0, 68, 0
2, 505528, Note_on_c, 0, 70, 97
2, 505528, Note_on_c, 0, 46, 97
2, 505622, Note_on_c, 0, 75, 0
2, 505624, Note_on_c, 0, 74, 97
2, 505718, Note_on_c, 0, 74, 0
2, 505718, Note_on_c, 0, 70, 0
2, 505720, Note_on_c, 0, 53, 97
2, 505720, Note_on_c, 0, 72, 97
2, 505814, Note_on_c, 0, 72, 0
2, 505816, Note_on_c, 0, 75, 97
2, 505908, Note_on_c, 0, 46, 0
2, 505910, Note_on_c, 0, 75, 0
2, 505910, Note_on_c, 0, 53, 0
2, 505912, Note_on_c, 0, 58, 97
2, 505912, Note_on_c, 0, 74, 97
2, 506006, Note_on_c, 0, 74, 0
2, 506008, Note_on_c, 0, 46, 97
2, 506008, Note_on_c, 0, 72, 97
2, 506102, Note_on_c, 0, 72, 0
2, 506102, Note_on_c, 0, 46, 0
2, 506104, Note_on_c, 0, 48, 97
2, 506104, Note_on_c, 0, 70, 97
2, 506198, Note_on_c, 0, 70, 0
2, 506198, Note_on_c, 0, 48, 0
2, 506200, Note_on_c, 0, 50, 97
2, 506200, Note_on_c, 0, 68, 97
2, 506294, Note_on_c, 0, 68, 0
2, 506294, Note_on_c, 0, 50, 0
2, 506296, Note_on_c, 0, 51, 97
2, 506296, Note_on_c, 0, 67, 97
2, 506390, Note_on_c, 0, 67, 0
2, 506392, Note_on_c, 0, 65, 97
2, 506486, Note_on_c, 0, 65, 0
2, 506486, Note_on_c, 0, 51, 0
2, 506486, Note_on_c, 0, 58, 0
2, 506488, Note_on_c, 0, 58, 97
2, 506488, Note_on_c, 0, 67, 97
2, 506582, Note_on_c, 0, 67, 0
2, 506582, Note_on_c, 0, 58, 0
2, 506584, Note_on_c, 0, 60, 97
2, 506584, Note_on_c, 0, 68, 97
2, 506678, Note_on_c, 0, 68, 0
2, 506678, Note_on_c, 0, 60, 0
2, 506680, Note_on_c, 0, 61, 97
2, 506680, Note_on_c, 0, 70, 97
2, 506774, Note_on_c, 0, 70, 0
2, 506774, Note_on_c, 0, 61, 0
2, 506776, Note_on_c, 0, 63, 97
2, 506776, Note_on_c, 0, 72, 97
2, 506870, Note_on_c, 0, 72, 0
2, 506870, Note_on_c, 0, 63, 0
2, 506872, Note_on_c, 0, 65, 97
2, 506872, Note_on_c, 0, 73, 97
2, 506966, Note_on_c, 0, 65, 0
2, 506968, Note_on_c, 0, 67, 97
2, 507062, Note_on_c, 0, 67, 0
2, 507064, Note_on_c, 0, 68, 97
2, 507158, Note_on_c, 0, 73, 0
2, 507160, Note_on_c, 0, 72, 97
2, 507254, Note_on_c, 0, 72, 0
2, 507254, Note_on_c, 0, 68, 0
2, 507256, Note_on_c, 0, 55, 97
2, 507256, Note_on_c, 0, 44, 97
2, 507256, Note_on_c, 0, 70, 97
2, 507350, Note_on_c, 0, 70, 0
2, 507352, Note_on_c, 0, 73, 97
2, 507446, Note_on_c, 0, 73, 0
2, 507446, Note_on_c, 0, 44, 0
2, 507446, Note_on_c, 0, 55, 0
2, 507448, Note_on_c, 0, 53, 97
2, 507448, Note_on_c, 0, 46, 97
2, 507448, Note_on_c, 0, 72, 97
2, 507542, Note_on_c, 0, 72, 0
2, 507544, Note_on_c, 0, 70, 97
2, 507638, Note_on_c, 0, 70, 0
2, 507638, Note_on_c, 0, 46, 0
2, 507638, Note_on_c, 0, 53, 0
2, 507640, Note_on_c, 0, 52, 97
2, 507640, Note_on_c, 0, 48, 97
2, 507640, Note_on_c, 0, 68, 97
2, 507734, Note_on_c, 0, 68, 0
2, 507736, Note_on_c, 0, 67, 97
2, 507830, Note_on_c, 0, 67, 0
2, 507830, Note_on_c, 0, 48, 0
2, 507830, Note_on_c, 0, 52, 0
2, 507832, Note_on_c, 0, 53, 97
2, 507832, Note_on_c, 0, 41, 97
2, 507832, Note_on_c, 0, 68, 97
2, 507926, Note_on_c, 0, 53, 0
2, 507928, Note_on_c, 0, 65, 97
2, 508022, Note_on_c, 0, 65, 0
2, 508022, Note_on_c, 0, 41, 0
2, 508024, Note_on_c, 0, 64, 97
2, 508024, Note_on_c, 0, 48, 97
2, 508118, Note_on_c, 0, 64, 0
2, 508120, Note_on_c, 0, 67, 97
2, 508214, Note_on_c, 0, 67, 0
2, 508214, Note_on_c, 0, 48, 0
2, 508216, Note_on_c, 0, 65, 97
2, 508216, Note_on_c, 0, 53, 97
2, 508310, Note_on_c, 0, 65, 0
2, 508312, Note_on_c, 0, 63, 97
2, 508406, Note_on_c, 0, 63, 0
2, 508408, Note_on_c, 0, 62, 97
2, 508502, Note_on_c, 0, 62, 0
2, 508504, Note_on_c, 0, 60, 97
2, 508598, Note_on_c, 0, 60, 0
2, 508600, Note_on_c, 0, 59, 97
2, 508694, Note_on_c, 0, 53, 0
2, 508696, Note_on_c, 0, 51, 97
2, 508790, Note_on_c, 0, 51, 0
2, 508790, Note_on_c, 0, 68, 0
2, 508792, Note_on_c, 0, 50, 97
2, 508792, Note_on_c, 0, 67, 97
2, 508886, Note_on_c, 0, 50, 0
2, 508888, Note_on_c, 0, 53, 97
2, 508980, Note_on_c, 0, 59, 0
2, 508982, Note_on_c, 0, 53, 0
2, 508982, Note_on_c, 0, 67, 0
2, 508984, Note_on_c, 0, 51, 97
2, 508984, Note_on_c, 0, 67, 97
2, 509078, Note_on_c, 0, 51, 0
2, 509080, Note_on_c, 0, 50, 97
2, 509174, Note_on_c, 0, 50, 0
2, 509176, Note_on_c, 0, 63, 97
2, 509176, Note_on_c, 0, 48, 97
2, 509270, Note_on_c, 0, 48, 0
2, 509272, Note_on_c, 0, 46, 97
2, 509366, Note_on_c, 0, 46, 0
2, 509366, Note_on_c, 0, 63, 0
2, 509368, Note_on_c, 0, 60, 97
2, 509368, Note_on_c, 0, 44, 97
2, 509558, Note_on_c, 0, 44, 0
2, 509558, Note_on_c, 0, 67, 0
2, 509560, Note_on_c, 0, 43, 97
2, 509560, Note_on_c, 0, 68, 97
2, 509654, Note_on_c, 0, 68, 0
2, 509656, Note_on_c, 0, 67, 97
2, 509750, Note_on_c, 0, 67, 0
2, 509750, Note_on_c, 0, 43, 0
2, 509752, Note_on_c, 0, 46, 97
2, 509752, Note_on_c, 0, 65, 97
2, 509798, Note_on_c, 0, 46, 0
2, 509800, Note_on_c, 0, 44, 97
2, 509846, Note_on_c, 0, 44, 0
2, 509846, Note_on_c, 0, 65, 0
2, 509848, Note_on_c, 0, 46, 97
2, 509848, Note_on_c, 0, 63, 97
2, 509894, Note_on_c, 0, 46, 0
2, 509896, Note_on_c, 0, 44, 97
2, 509942, Note_on_c, 0, 44, 0
2, 509942, Note_on_c, 0, 63, 0
2, 509944, Note_on_c, 0, 46, 97
2, 509944, Note_on_c, 0, 62, 97
2, 509990, Note_on_c, 0, 46, 0
2, 509992, Note_on_c, 0, 44, 97
2, 510028, Note_on_c, 0, 60, 0
2, 510038, Note_on_c, 0, 44, 0
2, 510038, Note_on_c, 0, 62, 0
2, 510040, Note_on_c, 0, 43, 97
2, 510040, Note_on_c, 0, 60, 97
2, 510086, Note_on_c, 0, 43, 0
2, 510088, Note_on_c, 0, 44, 97
2, 510134, Note_on_c, 0, 44, 0
2, 510134, Note_on_c, 0, 60, 0
2, 510136, Note_on_c, 0, 67, 97
2, 510136, Note_on_c, 0, 43, 97
2, 510136, Note_on_c, 0, 59, 97
2, 510902, Note_on_c, 0, 59, 0
2, 510902, Note_on_c, 0, 43, 0
2, 510903, Note_on_c, 0, 67, 0
2, 510904, Note_on_c, 0, 55, 97
2, 510904, Note_on_c, 0, 59, 97
2, 511096, Note_on_c, 0, 74, 97
2, 511284, Note_on_c, 0, 59, 0
2, 511284, Note_on_c, 0, 55, 0
2, 511286, Note_on_c, 0, 74, 0
2, 511288, Note_on_c, 0, 67, 97
2, 511480, Note_on_c, 0, 53, 97
2, 511480, Note_on_c, 0, 62, 97
2, 511670, Note_on_c, 0, 62, 0
2, 511670, Note_on_c, 0, 53, 0
2, 511672, Note_on_c, 0, 51, 97
2, 511672, Note_on_c, 0, 55, 97
2, 511862, Note_on_c, 0, 55, 0
2, 511862, Note_on_c, 0, 67, 0
2, 511864, Note_on_c, 0, 65, 97
2, 511864, Note_on_c, 0, 60, 97
2, 511958, Note_on_c, 0, 65, 0
2, 511960, Note_on_c, 0, 67, 97
2, 512054, Note_on_c, 0, 67, 0
2, 512054, Note_on_c, 0, 51, 0
2, 512056, Note_on_c, 0, 69, 97
2, 512056, Note_on_c, 0, 50, 97
2, 512150, Note_on_c, 0, 69, 0
2, 512152, Note_on_c, 0, 71, 97
2, 512246, Note_on_c, 0, 71, 0
2, 512246, Note_on_c, 0, 60, 0
2, 512248, Note_on_c, 0, 72, 97
2, 512248, Note_on_c, 0, 59, 97
2, 512342, Note_on_c, 0, 72, 0
2, 512344, Note_on_c, 0, 74, 97
2, 512438, Note_on_c, 0, 74, 0
2, 512438, Note_on_c, 0, 59, 0
2, 512438, Note_on_c, 0, 50, 0
2, 512440, Note_on_c, 0, 75, 97
2, 512440, Note_on_c, 0, 48, 97
2, 512536, Note_on_c, 0, 55, 97
2, 512630, Note_on_c, 0, 55, 0
2, 512630, Note_on_c, 0, 48, 0
2, 512630, Note_on_c, 0, 75, 0
2, 512632, Note_on_c, 0, 60, 97
2, 512632, Note_on_c, 0, 56, 97
2, 512726, Note_on_c, 0, 56, 0
2, 512728, Note_on_c, 0, 55, 97
2, 512822, Note_on_c, 0, 60, 0
2, 512823, Note_on_c, 0, 55, 0
2, 512824, Note_on_c, 0, 77, 97
2, 512824, Note_on_c, 0, 50, 97
2, 512920, Note_on_c, 0, 53, 97
2, 513014, Note_on_c, 0, 53, 0
2, 513014, Note_on_c, 0, 50, 0
2, 513014, Note_on_c, 0, 77, 0
2, 513016, Note_on_c, 0, 62, 97
2, 513016, Note_on_c, 0, 55, 97
2, 513110, Note_on_c, 0, 55, 0
2, 513112, Note_on_c, 0, 53, 97
2, 513206, Note_on_c, 0, 53, 0
2, 513206, Note_on_c, 0, 62, 0
2, 513208, Note_on_c, 0, 79, 97
2, 513208, Note_on_c, 0, 51, 97
2, 513208, Note_on_c, 0, 51, 97
2, 513302, Note_on_c, 0, 79, 0
2, 513304, Note_on_c, 0, 80, 97
2, 513398, Note_on_c, 0, 80, 0
2, 513398, Note_on_c, 0, 51, 0
2, 513400, Note_on_c, 0, 79, 97
2, 513400, Note_on_c, 0, 67, 97
2, 513494, Note_on_c, 0, 79, 0
2, 513496, Note_on_c, 0, 77, 97
2, 513588, Note_on_c, 0, 51, 0
2, 513590, Note_on_c, 0, 77, 0
2, 513590, Note_on_c, 0, 67, 0
2, 513592, Note_on_c, 0, 75, 97
2, 513592, Note_on_c, 0, 60, 97
2, 513686, Note_on_c, 0, 75, 0
2, 513688, Note_on_c, 0, 74, 97
2, 513782, Note_on_c, 0, 74, 0
2, 513784, Note_on_c, 0, 72, 97
2, 513784, Note_on_c, 0, 52, 97
2, 513878, Note_on_c, 0, 72, 0
2, 513880, Note_on_c, 0, 70, 97
2, 513974, Note_on_c, 0, 70, 0
2, 513974, Note_on_c, 0, 52, 0
2, 513976, Note_on_c, 0, 68, 97
2, 513976, Note_on_c, 0, 53, 97
2, 514166, Note_on_c, 0, 68, 0
2, 514166, Note_on_c, 0, 60, 0
2, 514168, Note_on_c, 0, 77, 97
2, 514168, Note_on_c, 0, 58, 97
2, 514262, Note_on_c, 0, 58, 0
2, 514264, Note_on_c, 0, 60, 97
2, 514358, Note_on_c, 0, 60, 0
2, 514358, Note_on_c, 0, 77, 0
2, 514358, Note_on_c, 0, 53, 0
2, 514360, Note_on_c, 0, 67, 97
2, 514360, Note_on_c, 0, 58, 97
2, 514360, Note_on_c, 0, 62, 97
2, 514454, Note_on_c, 0, 62, 0
2, 514456, Note_on_c, 0, 64, 97
2, 514550, Note_on_c, 0, 64, 0
2, 514550, Note_on_c, 0, 58, 0
2, 514550, Note_on_c, 0, 67, 0
2, 514552, Note_on_c, 0, 76, 97
2, 514552, Note_on_c, 0, 60, 97
2, 514552, Note_on_c, 0, 65, 97
2, 514646, Note_on_c, 0, 65, 0
2, 514648, Note_on_c, 0, 67, 97
2, 514742, Note_on_c, 0, 67, 0
2, 514742, Note_on_c, 0, 60, 0
2, 514742, Note_on_c, 0, 76, 0
2, 514744, Note_on_c, 0, 77, 97
2, 514744, Note_on_c, 0, 65, 97
2, 514744, Note_on_c, 0, 68, 97
2, 514838, Note_on_c, 0, 77, 0
2, 514840, Note_on_c, 0, 84, 97
2, 514934, Note_on_c, 0, 84, 0
2, 514934, Note_on_c, 0, 68, 0
2, 514934, Note_on_c, 0, 65, 0
2, 514936, Note_on_c, 0, 76, 97
2, 514936, Note_on_c, 0, 53, 97
2, 515030, Note_on_c, 0, 76, 0
2, 515032, Note_on_c, 0, 77, 97
2, 515126, Note_on_c, 0, 53, 0
2, 515127, Note_on_c, 0, 77, 0
2, 515128, Note_on_c, 0, 67, 97
2, 515128, Note_on_c, 0, 70, 97
2, 515224, Note_on_c, 0, 84, 97
2, 515318, Note_on_c, 0, 84, 0
2, 515318, Note_on_c, 0, 70, 0
2, 515318, Note_on_c, 0, 67, 0
2, 515320, Note_on_c, 0, 76, 97
2, 515320, Note_on_c, 0, 55, 97
2, 515414, Note_on_c, 0, 76, 0
2, 515416, Note_on_c, 0, 77, 97
2, 515510, Note_on_c, 0, 55, 0
2, 515512, Note_on_c, 0, 68, 97
2, 515512, Note_on_c, 0, 72, 97
2, 515606, Note_on_c, 0, 72, 0
2, 515606, Note_on_c, 0, 77, 0
2, 515608, Note_on_c, 0, 73, 97
2, 515702, Note_on_c, 0, 73, 0
2, 515702, Note_on_c, 0, 68, 0
2, 515704, Note_on_c, 0, 53, 97
2, 515704, Note_on_c, 0, 72, 97
2, 515798, Note_on_c, 0, 72, 0
2, 515800, Note_on_c, 0, 70, 97
2, 515894, Note_on_c, 0, 70, 0
2, 515894, Note_on_c, 0, 53, 0
2, 515896, Note_on_c, 0, 55, 97
2, 515896, Note_on_c, 0, 68, 97
2, 515990, Note_on_c, 0, 68, 0
2, 515992, Note_on_c, 0, 67, 97
2, 516086, Note_on_c, 0, 67, 0
2, 516086, Note_on_c, 0, 55, 0
2, 516088, Note_on_c, 0, 56, 97
2, 516088, Note_on_c, 0, 65, 97
2, 516182, Note_on_c, 0, 65, 0
2, 516184, Note_on_c, 0, 63, 97
2, 516278, Note_on_c, 0, 63, 0
2, 516278, Note_on_c, 0, 56, 0
2, 516280, Note_on_c, 0, 58, 97
2, 516280, Note_on_c, 0, 62, 97
2, 516374, Note_on_c, 0, 62, 0
2, 516376, Note_on_c, 0, 60, 97
2, 516470, Note_on_c, 0, 60, 0
2, 516470, Note_on_c, 0, 58, 0
2, 516472, Note_on_c, 0, 77, 97
2, 516472, Note_on_c, 0, 62, 97
2, 516566, Note_on_c, 0, 62, 0
2, 516566, Note_on_c, 0, 77, 0
2, 516568, Note_on_c, 0, 79, 97
2, 516568, Note_on_c, 0, 63, 97
2, 516662, Note_on_c, 0, 63, 0
2, 516662, Note_on_c, 0, 79, 0
2, 516664, Note_on_c, 0, 80, 97
2, 516664, Note_on_c, 0, 65, 97
2, 516758, Note_on_c, 0, 65, 0
2, 516758, Note_on_c, 0, 80, 0
2, 516760, Note_on_c, 0, 82, 97
2, 516760, Note_on_c, 0, 67, 97
2, 516854, Note_on_c, 0, 67, 0
2, 516854, Note_on_c, 0, 82, 0
2, 516856, Note_on_c, 0, 84, 97
2, 516856, Note_on_c, 0, 68, 97
2, 516950, Note_on_c, 0, 84, 0
2, 516952, Note_on_c, 0, 74, 97
2, 517046, Note_on_c, 0, 74, 0
2, 517048, Note_on_c, 0, 75, 97
2, 517142, Note_on_c, 0, 68, 0
2, 517144, Note_on_c, 0, 72, 97
2, 517238, Note_on_c, 0, 72, 0
2, 517238, Note_on_c, 0, 75, 0
2, 517240, Note_on_c, 0, 51, 97
2, 517240, Note_on_c, 0, 70, 97
2, 517334, Note_on_c, 0, 70, 0
2, 517336, Note_on_c, 0, 68, 97
2, 517430, Note_on_c, 0, 68, 0
2, 517430, Note_on_c, 0, 51, 0
2, 517432, Note_on_c, 0, 53, 97
2, 517432, Note_on_c, 0, 67, 97
2, 517526, Note_on_c, 0, 67, 0
2, 517528, Note_on_c, 0, 65, 97
2, 517622, Note_on_c, 0, 65, 0
2, 517622, Note_on_c, 0, 53, 0
2, 517624, Note_on_c, 0, 55, 97
2, 517624, Note_on_c, 0, 63, 97
2, 517718, Note_on_c, 0, 63, 0
2, 517720, Note_on_c, 0, 62, 97
2, 517814, Note_on_c, 0, 62, 0
2, 517814, Note_on_c, 0, 55, 0
2, 517816, Note_on_c, 0, 56, 97
2, 517816, Note_on_c, 0, 60, 97
2, 517910, Note_on_c, 0, 60, 0
2, 517912, Note_on_c, 0, 59, 97
2, 518006, Note_on_c, 0, 59, 0
2, 518006, Note_on_c, 0, 56, 0
2, 518008, Note_on_c, 0, 75, 97
2, 518008, Note_on_c, 0, 60, 97
2, 518102, Note_on_c, 0, 60, 0
2, 518102, Note_on_c, 0, 75, 0
2, 518104, Note_on_c, 0, 77, 97
2, 518104, Note_on_c, 0, 62, 97
2, 518198, Note_on_c, 0, 62, 0
2, 518198, Note_on_c, 0, 77, 0
2, 518200, Note_on_c, 0, 79, 97
2, 518200, Note_on_c, 0, 63, 97
2, 518294, Note_on_c, 0, 63, 0
2, 518294, Note_on_c, 0, 79, 0
2, 518296, Note_on_c, 0, 80, 97
2, 518296, Note_on_c, 0, 65, 97
2, 518390, Note_on_c, 0, 65, 0
2, 518390, Note_on_c, 0, 80, 0
2, 518392, Note_on_c, 0, 82, 97
2, 518392, Note_on_c, 0, 67, 97
2, 518486, Note_on_c, 0, 82, 0
2, 518488, Note_on_c, 0, 79, 97
2, 518582, Note_on_c, 0, 79, 0
2, 518584, Note_on_c, 0, 80, 97
2, 518678, Note_on_c, 0, 67, 0
2, 518680, Note_on_c, 0, 70, 97
2, 518774, Note_on_c, 0, 70, 0
2, 518774, Note_on_c, 0, 80, 0
2, 518776, Note_on_c, 0, 50, 97
2, 518776, Note_on_c, 0, 68, 97
2, 518870, Note_on_c, 0, 68, 0
2, 518872, Note_on_c, 0, 67, 97
2, 518966, Note_on_c, 0, 67, 0
2, 518966, Note_on_c, 0, 50, 0
2, 518968, Note_on_c, 0, 51, 97
2, 518968, Note_on_c, 0, 65, 97
2, 519062, Note_on_c, 0, 65, 0
2, 519064, Note_on_c, 0, 63, 97
2, 519158, Note_on_c, 0, 63, 0
2, 519158, Note_on_c, 0, 51, 0
2, 519160, Note_on_c, 0, 53, 97
2, 519160, Note_on_c, 0, 62, 97
2, 519254, Note_on_c, 0, 62, 0
2, 519256, Note_on_c, 0, 60, 97
2, 519350, Note_on_c, 0, 60, 0
2, 519350, Note_on_c, 0, 53, 0
2, 519352, Note_on_c, 0, 55, 97
2, 519352, Note_on_c, 0, 59, 97
2, 519448, Note_on_c, 0, 79, 97
2, 519542, Note_on_c, 0, 79, 0
2, 519542, Note_on_c, 0, 59, 0
2, 519542, Note_on_c, 0, 55, 0
2, 519544, Note_on_c, 0, 77, 97
2, 519544, Note_on_c, 0, 50, 97
2, 519638, Note_on_c, 0, 77, 0
2, 519640, Note_on_c, 0, 75, 97
2, 519734, Note_on_c, 0, 75, 0
2, 519734, Note_on_c, 0, 50, 0
2, 519736, Note_on_c, 0, 74, 97
2, 519736, Note_on_c, 0, 43, 97
2, 519830, Note_on_c, 0, 74, 0
2, 519832, Note_on_c, 0, 72, 97
2, 519926, Note_on_c, 0, 72, 0
2, 519928, Note_on_c, 0, 71, 97
2, 520022, Note_on_c, 0, 71, 0
2, 520024, Note_on_c, 0, 69, 97
2, 520118, Note_on_c, 0, 69, 0
2, 520120, Note_on_c, 0, 71, 97
2, 520214, Note_on_c, 0, 71, 0
2, 520216, Note_on_c, 0, 72, 97
2, 520310, Note_on_c, 0, 72, 0
2, 520310, Note_on_c, 0, 43, 0
2, 520312, Note_on_c, 0, 74, 97
2, 520312, Note_on_c, 0, 41, 97
2, 520406, Note_on_c, 0, 41, 0
2, 520406, Note_on_c, 0, 74, 0
2, 520408, Note_on_c, 0, 75, 97
2, 520408, Note_on_c, 0, 43, 97
2, 520502, Note_on_c, 0, 43, 0
2, 520502, Note_on_c, 0, 75, 0
2, 520504, Note_on_c, 0, 77, 97
2, 520504, Note_on_c, 0, 45, 97
2, 520598, Note_on_c, 0, 45, 0
2, 520600, Note_on_c, 0, 47, 97
2, 520694, Note_on_c, 0, 47, 0
2, 520696, Note_on_c, 0, 48, 97
2, 520696, Note_on_c, 0, 74, 97
2, 520790, Note_on_c, 0, 48, 0
2, 520792, Note_on_c, 0, 50, 97
2, 520886, Note_on_c, 0, 50, 0
2, 520886, Note_on_c, 0, 74, 0
2, 520888, Note_on_c, 0, 51, 97
2, 520888, Note_on_c, 0, 67, 97
2, 520982, Note_on_c, 0, 77, 0
2, 520984, Note_on_c, 0, 75, 97
2, 521078, Note_on_c, 0, 75, 0
2, 521078, Note_on_c, 0, 51, 0
2, 521080, Note_on_c, 0, 71, 97
2, 521080, Note_on_c, 0, 36, 97
2, 521174, Note_on_c, 0, 71, 0
2, 521176, Note_on_c, 0, 72, 97
2, 521270, Note_on_c, 0, 36, 0
2, 521270, Note_on_c, 0, 67, 0
2, 521271, Note_on_c, 0, 72, 0
2, 521272, Note_on_c, 0, 53, 97
2, 521272, Note_on_c, 0, 65, 97
2, 521368, Note_on_c, 0, 75, 97
2, 521462, Note_on_c, 0, 75, 0
2, 521462, Note_on_c, 0, 53, 0
2, 521464, Note_on_c, 0, 71, 97
2, 521464, Note_on_c, 0, 38, 97
2, 521558, Note_on_c, 0, 71, 0
2, 521560, Note_on_c, 0, 72, 97
2, 521654, Note_on_c, 0, 38, 0
2, 521654, Note_on_c, 0, 65, 0
2, 521655, Note_on_c, 0, 72, 0
2, 521656, Note_on_c, 0, 55, 97
2, 521656, Note_on_c, 0, 63, 97
2, 521752, Note_on_c, 0, 74, 97
2, 521846, Note_on_c, 0, 74, 0
2, 521846, Note_on_c, 0, 55, 0
2, 521848, Note_on_c, 0, 71, 97
2, 521848, Note_on_c, 0, 39, 97
2, 521942, Note_on_c, 0, 71, 0
2, 521944, Note_on_c, 0, 72, 97
2, 522038, Note_on_c, 0, 72, 0
2, 522038, Note_on_c, 0, 39, 0
2, 522038, Note_on_c, 0, 63, 0
2, 522040, Note_on_c, 0, 56, 97
2, 522040, Note_on_c, 0, 62, 97
2, 522136, Note_on_c, 0, 72, 97
2, 522230, Note_on_c, 0, 72, 0
2, 522230, Note_on_c, 0, 56, 0
2, 522232, Note_on_c, 0, 71, 97
2, 522232, Note_on_c, 0, 41, 97
2, 522326, Note_on_c, 0, 71, 0
2, 522328, Note_on_c, 0, 72, 97
2, 522422, Note_on_c, 0, 41, 0
2, 522422, Note_on_c, 0, 62, 0
2, 522424, Note_on_c, 0, 55, 97
2, 522424, Note_on_c, 0, 63, 97
2, 522518, Note_on_c, 0, 55, 0
2, 522520, Note_on_c, 0, 43, 97
2, 522608, Note_on_c, 0, 72, 0
2, 522614, Note_on_c, 0, 43, 0
2, 522614, Note_on_c, 0, 63, 0
2, 522616, Note_on_c, 0, 79, 97
2, 522616, Note_on_c, 0, 55, 97
2, 522616, Note_on_c, 0, 75, 97
2, 522710, Note_on_c, 0, 55, 0
2, 522712, Note_on_c, 0, 56, 97
2, 522806, Note_on_c, 0, 56, 0
2, 522806, Note_on_c, 0, 75, 0
2, 522806, Note_on_c, 0, 79, 0
2, 522808, Note_on_c, 0, 74, 97
2, 522808, Note_on_c, 0, 55, 97
2, 522808, Note_on_c, 0, 71, 97
2, 522902, Note_on_c, 0, 55, 0
2, 522904, Note_on_c, 0, 53, 97
2, 522998, Note_on_c, 0, 53, 0
2, 522998, Note_on_c, 0, 71, 0
2, 522998, Note_on_c, 0, 74, 0
2, 523000, Note_on_c, 0, 77, 97
2, 523000, Note_on_c, 0, 51, 97
2, 523000, Note_on_c, 0, 74, 97
2, 523094, Note_on_c, 0, 51, 0
2, 523096, Note_on_c, 0, 50, 97
2, 523190, Note_on_c, 0, 50, 0
2, 523192, Note_on_c, 0, 48, 97
2, 523280, Note_on_c, 0, 77, 0
2, 523286, Note_on_c, 0, 48, 0
2, 523288, Note_on_c, 0, 55, 97
2, 523382, Note_on_c, 0, 55, 0
2, 523384, Note_on_c, 0, 75, 97
2, 523384, Note_on_c, 0, 60, 97
2, 523478, Note_on_c, 0, 60, 0
2, 523478, Note_on_c, 0, 75, 0
2, 523480, Note_on_c, 0, 77, 97
2, 523480, Note_on_c, 0, 62, 97
2, 523574, Note_on_c, 0, 62, 0
2, 523574, Note_on_c, 0, 77, 0
2, 523576, Note_on_c, 0, 79, 97
2, 523576, Note_on_c, 0, 60, 97
2, 523670, Note_on_c, 0, 60, 0
2, 523672, Note_on_c, 0, 58, 97
2, 523766, Note_on_c, 0, 58, 0
2, 523766, Note_on_c, 0, 74, 0
2, 523768, Note_on_c, 0, 57, 97
2, 523768, Note_on_c, 0, 72, 97
2, 523862, Note_on_c, 0, 72, 0
2, 523862, Note_on_c, 0, 57, 0
2, 523864, Note_on_c, 0, 55, 97
2, 523864, Note_on_c, 0, 70, 97
2, 523958, Note_on_c, 0, 70, 0
2, 523958, Note_on_c, 0, 55, 0
2, 523960, Note_on_c, 0, 53, 97
2, 523960, Note_on_c, 0, 69, 97
2, 524054, Note_on_c, 0, 53, 0
2, 524056, Note_on_c, 0, 79, 0
2, 524056, Note_on_c, 0, 41, 97
2, 524150, Note_on_c, 0, 41, 0
2, 524152, Note_on_c, 0, 77, 97
2, 524152, Note_on_c, 0, 53, 97
2, 524246, Note_on_c, 0, 53, 0
2, 524248, Note_on_c, 0, 55, 97
2, 524342, Note_on_c, 0, 55, 0
2, 524342, Note_on_c, 0, 77, 0
2, 524344, Note_on_c, 0, 72, 97
2, 524344, Note_on_c, 0, 53, 97
2, 524438, Note_on_c, 0, 53, 0
2, 524440, Note_on_c, 0, 51, 97
2, 524534, Note_on_c, 0, 51, 0
2, 524534, Note_on_c, 0, 72, 0
2, 524534, Note_on_c, 0, 69, 0
2, 524536, Note_on_c, 0, 75, 97
2, 524536, Note_on_c, 0, 50, 97
2, 524536, Note_on_c, 0, 72, 97
2, 524630, Note_on_c, 0, 50, 0
2, 524632, Note_on_c, 0, 48, 97
2, 524726, Note_on_c, 0, 48, 0
2, 524728, Note_on_c, 0, 46, 97
2, 524822, Note_on_c, 0, 46, 0
2, 524824, Note_on_c, 0, 53, 97
2, 524876, Note_on_c, 0, 75, 0
2, 524918, Note_on_c, 0, 53, 0
2, 524920, Note_on_c, 0, 74, 97
2, 524920, Note_on_c, 0, 58, 97
2, 525014, Note_on_c, 0, 58, 0
2, 525014, Note_on_c, 0, 74, 0
2, 525016, Note_on_c, 0, 75, 97
2, 525016, Note_on_c, 0, 60, 97
2, 525110, Note_on_c, 0, 60, 0
2, 525110, Note_on_c, 0, 75, 0
2, 525112, Note_on_c, 0, 77, 97
2, 525112, Note_on_c, 0, 58, 97
2, 525206, Note_on_c, 0, 58, 0
2, 525208, Note_on_c, 0, 56, 97
2, 525302, Note_on_c, 0, 56, 0
2, 525302, Note_on_c, 0, 72, 0
2, 525304, Note_on_c, 0, 55, 97
2, 525304, Note_on_c, 0, 70, 97
2, 525398, Note_on_c, 0, 70, 0
2, 525398, Note_on_c, 0, 55, 0
2, 525400, Note_on_c, 0, 53, 97
2, 525400, Note_on_c, 0, 68, 97
2, 525494, Note_on_c, 0, 68, 0
2, 525494, Note_on_c, 0, 53, 0
2, 525496, Note_on_c, 0, 51, 97
2, 525496, Note_on_c, 0, 67, 97
2, 525590, Note_on_c, 0, 51, 0
2, 525592, Note_on_c, 0, 39, 97
2, 525652, Note_on_c, 0, 77, 0
2, 525686, Note_on_c, 0, 39, 0
2, 525688, Note_on_c, 0, 75, 97
2, 525688, Note_on_c, 0, 51, 97
2, 525782, Note_on_c, 0, 51, 0
2, 525782, Note_on_c, 0, 75, 0
2, 525784, Note_on_c, 0, 74, 97
2, 525784, Note_on_c, 0, 53, 97
2, 525876, Note_on_c, 0, 67, 0
2, 525878, Note_on_c, 0, 53, 0
2, 525878, Note_on_c, 0, 74, 0
2, 525880, Note_on_c, 0, 72, 97
2, 525880, Note_on_c, 0, 51, 97
2, 525974, Note_on_c, 0, 51, 0
2, 525974, Note_on_c, 0, 72, 0
2, 525976, Note_on_c, 0, 70, 97
2, 525976, Note_on_c, 0, 50, 97
2, 526070, Note_on_c, 0, 50, 0
2, 526070, Note_on_c, 0, 70, 0
2, 526072, Note_on_c, 0, 69, 97
2, 526072, Note_on_c, 0, 48, 97
2, 526166, Note_on_c, 0, 48, 0
2, 526166, Note_on_c, 0, 69, 0
2, 526168, Note_on_c, 0, 67, 97
2, 526168, Note_on_c, 0, 46, 97
2, 526262, Note_on_c, 0, 46, 0
2, 526262, Note_on_c, 0, 67, 0
2, 526264, Note_on_c, 0, 72, 97
2, 526264, Note_on_c, 0, 45, 97
2, 526358, Note_on_c, 0, 45, 0
2, 526360, Note_on_c, 0, 43, 97
2, 526454, Note_on_c, 0, 43, 0
2, 526456, Note_on_c, 0, 45, 97
2, 526456, Note_on_c, 0, 70, 97
2, 526550, Note_on_c, 0, 45, 0
2, 526552, Note_on_c, 0, 46, 97
2, 526646, Note_on_c, 0, 46, 0
2, 526646, Note_on_c, 0, 70, 0
2, 526648, Note_on_c, 0, 48, 97
2, 526648, Note_on_c, 0, 69, 97
2, 526742, Note_on_c, 0, 48, 0
2, 526744, Note_on_c, 0, 50, 97
2, 526838, Note_on_c, 0, 50, 0
2, 526838, Note_on_c, 0, 69, 0
2, 526840, Note_on_c, 0, 51, 97
2, 526840, Note_on_c, 0, 67, 97
2, 526934, Note_on_c, 0, 51, 0
2, 526936, Note_on_c, 0, 48, 97
2, 527030, Note_on_c, 0, 48, 0
2, 527030, Note_on_c, 0, 67, 0
2, 527032, Note_on_c, 0, 50, 97
2, 527032, Note_on_c, 0, 66, 97
2, 527126, Note_on_c, 0, 50, 0
2, 527128, Note_on_c, 0, 48, 97
2, 527222, Note_on_c, 0, 48, 0
2, 527222, Note_on_c, 0, 66, 0
2, 527224, Note_on_c, 0, 50, 97
2, 527224, Note_on_c, 0, 69, 97
2, 527318, Note_on_c, 0, 50, 0
2, 527320, Note_on_c, 0, 52, 97
2, 527414, Note_on_c, 0, 52, 0
2, 527414, Note_on_c, 0, 69, 0
2, 527416, Note_on_c, 0, 54, 97
2, 527416, Note_on_c, 0, 62, 97
2, 527510, Note_on_c, 0, 54, 0
2, 527512, Note_on_c, 0, 55, 97
2, 527606, Note_on_c, 0, 55, 0
2, 527606, Note_on_c, 0, 72, 0
2, 527608, Note_on_c, 0, 72, 97
2, 527608, Note_on_c, 0, 57, 97
2, 527702, Note_on_c, 0, 57, 0
2, 527704, Note_on_c, 0, 54, 97
2, 527798, Note_on_c, 0, 54, 0
2, 527798, Note_on_c, 0, 72, 0
2, 527800, Note_on_c, 0, 70, 97
2, 527800, Note_on_c, 0, 55, 97
2, 527990, Note_on_c, 0, 55, 0
2, 527990, Note_on_c, 0, 62, 0
2, 527992, Note_on_c, 0, 51, 97
2, 527992, Note_on_c, 0, 60, 97
2, 528086, Note_on_c, 0, 60, 0
2, 528088, Note_on_c, 0, 62, 97
2, 528182, Note_on_c, 0, 62, 0
2, 528182, Note_on_c, 0, 51, 0
2, 528182, Note_on_c, 0, 70, 0
2, 528184, Note_on_c, 0, 69, 97
2, 528184, Note_on_c, 0, 48, 97
2, 528184, Note_on_c, 0, 64, 97
2, 528278, Note_on_c, 0, 64, 0
2, 528280, Note_on_c, 0, 66, 97
2, 528374, Note_on_c, 0, 66, 0
2, 528374, Note_on_c, 0, 48, 0
2, 528376, Note_on_c, 0, 50, 97
2, 528376, Note_on_c, 0, 67, 97
2, 528464, Note_on_c, 0, 69, 0
2, 528470, Note_on_c, 0, 67, 0
2, 528472, Note_on_c, 0, 69, 97
2, 528566, Note_on_c, 0, 69, 0
2, 528566, Note_on_c, 0, 50, 0
2, 528568, Note_on_c, 0, 43, 97
2, 528568, Note_on_c, 0, 70, 97
2, 528664, Note_on_c, 0, 81, 97
2, 528758, Note_on_c, 0, 81, 0
2, 528758, Note_on_c, 0, 70, 0
2, 528758, Note_on_c, 0, 43, 0
2, 528760, Note_on_c, 0, 78, 97
2, 528760, Note_on_c, 0, 55, 97
2, 528854, Note_on_c, 0, 78, 0
2, 528856, Note_on_c, 0, 79, 97
2, 528950, Note_on_c, 0, 55, 0
2, 528951, Note_on_c, 0, 79, 0
2, 528952, Note_on_c, 0, 51, 97
2, 528952, Note_on_c, 0, 72, 97
2, 529048, Note_on_c, 0, 81, 97
2, 529142, Note_on_c, 0, 81, 0
2, 529142, Note_on_c, 0, 72, 0
2, 529142, Note_on_c, 0, 51, 0
2, 529144, Note_on_c, 0, 78, 97
2, 529144, Note_on_c, 0, 57, 97
2, 529238, Note_on_c, 0, 78, 0
2, 529240, Note_on_c, 0, 79, 97
2, 529334, Note_on_c, 0, 57, 0
2, 529335, Note_on_c, 0, 79, 0
2, 529336, Note_on_c, 0, 46, 97
2, 529336, Note_on_c, 0, 74, 97
2, 529430, Note_on_c, 0, 46, 0
2, 529432, Note_on_c, 0, 55, 97
2, 529526, Note_on_c, 0, 55, 0
2, 529528, Note_on_c, 0, 79, 97
2, 529528, Note_on_c, 0, 54, 97
2, 529622, Note_on_c, 0, 54, 0
2, 529624, Note_on_c, 0, 55, 97
2, 529718, Note_on_c, 0, 55, 0
2, 529718, Note_on_c, 0, 79, 0
2, 529720, Note_on_c, 0, 75, 97
2, 529720, Note_on_c, 0, 48, 97
2, 529814, Note_on_c, 0, 48, 0
2, 529816, Note_on_c, 0, 57, 97
2, 529910, Note_on_c, 0, 57, 0
2, 529910, Note_on_c, 0, 74, 0
2, 529912, Note_on_c, 0, 54, 97
2, 529912, Note_on_c, 0, 72, 97
2, 530006, Note_on_c, 0, 54, 0
2, 530008, Note_on_c, 0, 55, 97
2, 530102, Note_on_c, 0, 55, 0
2, 530102, Note_on_c, 0, 72, 0
2, 530104, Note_on_c, 0, 50, 97
2, 530104, Note_on_c, 0, 66, 97
2, 530198, Note_on_c, 0, 50, 0
2, 530200, Note_on_c, 0, 58, 97
2, 530294, Note_on_c, 0, 58, 0
2, 530294, Note_on_c, 0, 66, 0
2, 530294, Note_on_c, 0, 75, 0
2, 530296, Note_on_c, 0, 74, 97
2, 530296, Note_on_c, 0, 54, 97
2, 530296, Note_on_c, 0, 70, 97
2, 530390, Note_on_c, 0, 54, 0
2, 530392, Note_on_c, 0, 55, 97
2, 530486, Note_on_c, 0, 55, 0
2, 530488, Note_on_c, 0, 51, 97
2, 530582, Note_on_c, 0, 51, 0
2, 530584, Note_on_c, 0, 60, 97
2, 530678, Note_on_c, 0, 60, 0
2, 530678, Note_on_c, 0, 70, 0
2, 530678, Note_on_c, 0, 74, 0
2, 530680, Note_on_c, 0, 72, 97
2, 530680, Note_on_c, 0, 54, 97
2, 530680, Note_on_c, 0, 69, 97
2, 530774, Note_on_c, 0, 54, 0
2, 530776, Note_on_c, 0, 55, 97
2, 530870, Note_on_c, 0, 55, 0
2, 530872, Note_on_c, 0, 42, 97
2, 530966, Note_on_c, 0, 42, 0
2, 530968, Note_on_c, 0, 51, 97
2, 531062, Note_on_c, 0, 51, 0
2, 531062, Note_on_c, 0, 69, 0
2, 531062, Note_on_c, 0, 72, 0
2, 531064, Note_on_c, 0, 75, 97
2, 531064, Note_on_c, 0, 50, 97
2, 531064, Note_on_c, 0, 66, 97
2, 531158, Note_on_c, 0, 50, 0
2, 531160, Note_on_c, 0, 48, 97
2, 531254, Note_on_c, 0, 48, 0
2, 531254, Note_on_c, 0, 66, 0
2, 531254, Note_on_c, 0, 75, 0
2, 531256, Note_on_c, 0, 74, 97
2, 531256, Note_on_c, 0, 46, 97
2, 531256, Note_on_c, 0, 67, 97
2, 531350, Note_on_c, 0, 46, 0
2, 531352, Note_on_c, 0, 45, 97
2, 531446, Note_on_c, 0, 45, 0
2, 531446, Note_on_c, 0, 67, 0
2, 531446, Note_on_c, 0, 74, 0
2, 531448, Note_on_c, 0, 72, 97
2, 531448, Note_on_c, 0, 43, 97
2, 531448, Note_on_c, 0, 69, 97
2, 531542, Note_on_c, 0, 43, 0
2, 531544, Note_on_c, 0, 42, 97
2, 531638, Note_on_c, 0, 42, 0
2, 531638, Note_on_c, 0, 69, 0
2, 531638, Note_on_c, 0, 72, 0
2, 531640, Note_on_c, 0, 70, 97
2, 531640, Note_on_c, 0, 43, 97
2, 531640, Note_on_c, 0, 62, 97
2, 531734, Note_on_c, 0, 43, 0
2, 531736, Note_on_c, 0, 41, 97
2, 531830, Note_on_c, 0, 41, 0
2, 531830, Note_on_c, 0, 62, 0
2, 531830, Note_on_c, 0, 70, 0
2, 531832, Note_on_c, 0, 79, 97
2, 531832, Note_on_c, 0, 39, 97
2, 531926, Note_on_c, 0, 39, 0
2, 531928, Note_on_c, 0, 38, 97
2, 532022, Note_on_c, 0, 38, 0
2, 532022, Note_on_c, 0, 79, 0
2, 532024, Note_on_c, 0, 69, 97
2, 532024, Note_on_c, 0, 36, 97
2, 532120, Note_on_c, 0, 75, 97
2, 532214, Note_on_c, 0, 75, 0
2, 532214, Note_on_c, 0, 36, 0
2, 532214, Note_on_c, 0, 69, 0
2, 532216, Note_on_c, 0, 78, 97
2, 532216, Note_on_c, 0, 38, 97
2, 532216, Note_on_c, 0, 74, 97
2, 532310, Note_on_c, 0, 74, 0
2, 532312, Note_on_c, 0, 72, 97
2, 532406, Note_on_c, 0, 72, 0
2, 532406, Note_on_c, 0, 38, 0
2, 532406, Note_on_c, 0, 78, 0
2, 532408, Note_on_c, 0, 79, 97
2, 532408, Note_on_c, 0, 43, 97
2, 532408, Note_on_c, 0, 71, 97
2, 532502, Note_on_c, 0, 43, 0
2, 532504, Note_on_c, 0, 42, 97
2, 532598, Note_on_c, 0, 42, 0
2, 532598, Note_on_c, 0, 71, 0
2, 532600, Note_on_c, 0, 43, 97
2, 532600, Note_on_c, 0, 74, 97
2, 532694, Note_on_c, 0, 43, 0
2, 532696, Note_on_c, 0, 45, 97
2, 532788, Note_on_c, 0, 79, 0
2, 532790, Note_on_c, 0, 45, 0
2, 532790, Note_on_c, 0, 74, 0
2, 532792, Note_on_c, 0, 47, 97
2, 532792, Note_on_c, 0, 67, 97
2, 532886, Note_on_c, 0, 47, 0
2, 532888, Note_on_c, 0, 48, 97
2, 532982, Note_on_c, 0, 48, 0
2, 532984, Note_on_c, 0, 77, 97
2, 532984, Note_on_c, 0, 50, 97
2, 533078, Note_on_c, 0, 50, 0
2, 533080, Note_on_c, 0, 51, 97
2, 533174, Note_on_c, 0, 51, 0
2, 533174, Note_on_c, 0, 77, 0
2, 533176, Note_on_c, 0, 71, 97
2, 533176, Note_on_c, 0, 53, 97
2, 533270, Note_on_c, 0, 53, 0
2, 533272, Note_on_c, 0, 51, 97
2, 533366, Note_on_c, 0, 51, 0
2, 533366, Note_on_c, 0, 67, 0
2, 533368, Note_on_c, 0, 50, 97
2, 533368, Note_on_c, 0, 65, 97
2, 533462, Note_on_c, 0, 65, 0
2, 533462, Note_on_c, 0, 50, 0
2, 533464, Note_on_c, 0, 51, 97
2, 533464, Note_on_c, 0, 67, 97
2, 533556, Note_on_c, 0, 71, 0
2, 533558, Note_on_c, 0, 67, 0
2, 533558, Note_on_c, 0, 51, 0
2, 533560, Note_on_c, 0, 53, 97
2, 533560, Note_on_c, 0, 69, 97
2, 533654, Note_on_c, 0, 69, 0
2, 533654, Note_on_c, 0, 53, 0
2, 533656, Note_on_c, 0, 55, 97
2, 533656, Note_on_c, 0, 71, 97
2, 533750, Note_on_c, 0, 71, 0
2, 533750, Note_on_c, 0, 55, 0
2, 533752, Note_on_c, 0, 57, 97
2, 533752, Note_on_c, 0, 72, 97
2, 533846, Note_on_c, 0, 72, 0
2, 533846, Note_on_c, 0, 57, 0
2, 533848, Note_on_c, 0, 59, 97
2, 533848, Note_on_c, 0, 74, 97
2, 533942, Note_on_c, 0, 74, 0
2, 533942, Note_on_c, 0, 59, 0
2, 533944, Note_on_c, 0, 60, 97
2, 533944, Note_on_c, 0, 75, 97
2, 534038, Note_on_c, 0, 75, 0
2, 534038, Note_on_c, 0, 60, 0
2, 534040, Note_on_c, 0, 59, 97
2, 534134, Note_on_c, 0, 59, 0
2, 534136, Note_on_c, 0, 79, 97
2, 534136, Note_on_c, 0, 60, 97
2, 534230, Note_on_c, 0, 60, 0
2, 534232, Note_on_c, 0, 62, 97
2, 534326, Note_on_c, 0, 62, 0
2, 534326, Note_on_c, 0, 79, 0
2, 534328, Note_on_c, 0, 72, 97
2, 534328, Note_on_c, 0, 63, 97
2, 534422, Note_on_c, 0, 63, 0
2, 534424, Note_on_c, 0, 65, 97
2, 534518, Note_on_c, 0, 65, 0
2, 534520, Note_on_c, 0, 60, 97
2, 534520, Note_on_c, 0, 67, 97
2, 534614, Note_on_c, 0, 67, 0
2, 534616, Note_on_c, 0, 68, 97
2, 534710, Note_on_c, 0, 68, 0
2, 534710, Note_on_c, 0, 60, 0
2, 534712, Note_on_c, 0, 52, 97
2, 534712, Note_on_c, 0, 70, 97
2, 534806, Note_on_c, 0, 70, 0
2, 534808, Note_on_c, 0, 68, 97
2, 534902, Note_on_c, 0, 68, 0
2, 534902, Note_on_c, 0, 52, 0
2, 534902, Note_on_c, 0, 72, 0
2, 534904, Note_on_c, 0, 70, 97
2, 534904, Note_on_c, 0, 67, 97
2, 534998, Note_on_c, 0, 67, 0
2, 534998, Note_on_c, 0, 70, 0
2, 535000, Note_on_c, 0, 72, 97
2, 535000, Note_on_c, 0, 68, 97
2, 535094, Note_on_c, 0, 68, 0
2, 535094, Note_on_c, 0, 72, 0
2, 535096, Note_on_c, 0, 74, 97
2, 535096, Note_on_c, 0, 70, 97
2, 535190, Note_on_c, 0, 70, 0
2, 535190, Note_on_c, 0, 74, 0
2, 535192, Note_on_c, 0, 76, 97
2, 535192, Note_on_c, 0, 72, 97
2, 535286, Note_on_c, 0, 72, 0
2, 535286, Note_on_c, 0, 76, 0
2, 535288, Note_on_c, 0, 77, 97
2, 535288, Note_on_c, 0, 60, 97
2, 535288, Note_on_c, 0, 74, 97
2, 535382, Note_on_c, 0, 74, 0
2, 535382, Note_on_c, 0, 77, 0
2, 535384, Note_on_c, 0, 79, 97
2, 535384, Note_on_c, 0, 76, 97
2, 535478, Note_on_c, 0, 76, 0
2, 535478, Note_on_c, 0, 79, 0
2, 535478, Note_on_c, 0, 60, 0
2, 535480, Note_on_c, 0, 80, 97
2, 535480, Note_on_c, 0, 53, 97
2, 535480, Note_on_c, 0, 77, 97
2, 535574, Note_on_c, 0, 80, 0
2, 535576, Note_on_c, 0, 84, 97
2, 535670, Note_on_c, 0, 77, 0
2, 535670, Note_on_c, 0, 53, 0
2, 535672, Note_on_c, 0, 68, 97
2, 535672, Note_on_c, 0, 76, 97
2, 535766, Note_on_c, 0, 76, 0
2, 535768, Note_on_c, 0, 77, 97
2, 535862, Note_on_c, 0, 68, 0
2, 535862, Note_on_c, 0, 84, 0
2, 535864, Note_on_c, 0, 80, 97
2, 535864, Note_on_c, 0, 51, 97
2, 535958, Note_on_c, 0, 80, 0
2, 535960, Note_on_c, 0, 84, 97
2, 536054, Note_on_c, 0, 84, 0
2, 536054, Note_on_c, 0, 51, 0
2, 536056, Note_on_c, 0, 82, 97
2, 536056, Note_on_c, 0, 67, 97
2, 536150, Note_on_c, 0, 82, 0
2, 536152, Note_on_c, 0, 84, 97
2, 536246, Note_on_c, 0, 84, 0
2, 536246, Note_on_c, 0, 67, 0
2, 536248, Note_on_c, 0, 80, 97
2, 536248, Note_on_c, 0, 50, 97
2, 536342, Note_on_c, 0, 80, 0
2, 536344, Note_on_c, 0, 84, 97
2, 536438, Note_on_c, 0, 50, 0
2, 536438, Note_on_c, 0, 77, 0
2, 536440, Note_on_c, 0, 65, 97
2, 536440, Note_on_c, 0, 76, 97
2, 536534, Note_on_c, 0, 76, 0
2, 536536, Note_on_c, 0, 77, 97
2, 536630, Note_on_c, 0, 65, 0
2, 536630, Note_on_c, 0, 84, 0
2, 536632, Note_on_c, 0, 80, 97
2, 536632, Note_on_c, 0, 46, 97
2, 536726, Note_on_c, 0, 80, 0
2, 536728, Note_on_c, 0, 82, 97
2, 536822, Note_on_c, 0, 82, 0
2, 536822, Note_on_c, 0, 46, 0
2, 536824, Note_on_c, 0, 80, 97
2, 536824, Note_on_c, 0, 62, 97
2, 536918, Note_on_c, 0, 80, 0
2, 536920, Note_on_c, 0, 82, 97
2, 537014, Note_on_c, 0, 82, 0
2, 537014, Note_on_c, 0, 62, 0
2, 537016, Note_on_c, 0, 79, 97
2, 537016, Note_on_c, 0, 51, 97
2, 537110, Note_on_c, 0, 79, 0
2, 537112, Note_on_c, 0, 82, 97
2, 537206, Note_on_c, 0, 51, 0
2, 537206, Note_on_c, 0, 77, 0
2, 537208, Note_on_c, 0, 67, 97
2, 537208, Note_on_c, 0, 74, 97
2, 537302, Note_on_c, 0, 74, 0
2, 537304, Note_on_c, 0, 75, 97
2, 537398, Note_on_c, 0, 67, 0
2, 537398, Note_on_c, 0, 82, 0
2, 537400, Note_on_c, 0, 79, 97
2, 537400, Note_on_c, 0, 50, 97
2, 537494, Note_on_c, 0, 79, 0
2, 537496, Note_on_c, 0, 82, 97
2, 537590, Note_on_c, 0, 82, 0
2, 537590, Note_on_c, 0, 50, 0
2, 537592, Note_on_c, 0, 80, 97
2, 537592, Note_on_c, 0, 65, 97
2, 537686, Note_on_c, 0, 80, 0
2, 537688, Note_on_c, 0, 82, 97
2, 537782, Note_on_c, 0, 82, 0
2, 537782, Note_on_c, 0, 65, 0
2, 537784, Note_on_c, 0, 79, 97
2, 537784, Note_on_c, 0, 48, 97
2, 537878, Note_on_c, 0, 79, 0
2, 537880, Note_on_c, 0, 82, 97
2, 537974, Note_on_c, 0, 48, 0
2, 537974, Note_on_c, 0, 75, 0
2, 537976, Note_on_c, 0, 63, 97
2, 537976, Note_on_c, 0, 74, 97
2, 538070, Note_on_c, 0, 74, 0
2, 538072, Note_on_c, 0, 75, 97
2, 538166, Note_on_c, 0, 63, 0
2, 538166, Note_on_c, 0, 82, 0
2, 538168, Note_on_c, 0, 79, 97
2, 538168, Note_on_c, 0, 44, 97
2, 538262, Note_on_c, 0, 79, 0
2, 538264, Note_on_c, 0, 80, 97
2, 538358, Note_on_c, 0, 80, 0
2, 538358, Note_on_c, 0, 44, 0
2, 538360, Note_on_c, 0, 79, 97
2, 538360, Note_on_c, 0, 60, 97
2, 538454, Note_on_c, 0, 79, 0
2, 538456, Note_on_c, 0, 80, 97
2, 538550, Note_on_c, 0, 80, 0
2, 538550, Note_on_c, 0, 60, 0
2, 538552, Note_on_c, 0, 77, 97
2, 538552, Note_on_c, 0, 50, 97
2, 538646, Note_on_c, 0, 77, 0
2, 538648, Note_on_c, 0, 80, 97
2, 538742, Note_on_c, 0, 50, 0
2, 538742, Note_on_c, 0, 75, 0
2, 538744, Note_on_c, 0, 65, 97
2, 538744, Note_on_c, 0, 72, 97
2, 538838, Note_on_c, 0, 72, 0
2, 538840, Note_on_c, 0, 74, 97
2, 538934, Note_on_c, 0, 65, 0
2, 538934, Note_on_c, 0, 80, 0
2, 538936, Note_on_c, 0, 77, 97
2, 538936, Note_on_c, 0, 48, 97
2, 539030, Note_on_c, 0, 77, 0
2, 539032, Note_on_c, 0, 80, 97
2, 539126, Note_on_c, 0, 80, 0
2, 539126, Note_on_c, 0, 48, 0
2, 539128, Note_on_c, 0, 79, 97
2, 539128, Note_on_c, 0, 63, 97
2, 539222, Note_on_c, 0, 79, 0
2, 539224, Note_on_c, 0, 80, 97
2, 539318, Note_on_c, 0, 80, 0
2, 539318, Note_on_c, 0, 63, 0
2, 539320, Note_on_c, 0, 77, 97
2, 539320, Note_on_c, 0, 47, 97
2, 539414, Note_on_c, 0, 77, 0
2, 539416, Note_on_c, 0, 80, 97
2, 539510, Note_on_c, 0, 47, 0
2, 539510, Note_on_c, 0, 74, 0
2, 539512, Note_on_c, 0, 62, 97
2, 539512, Note_on_c, 0, 72, 97
2, 539606, Note_on_c, 0, 72, 0
2, 539608, Note_on_c, 0, 74, 97
2, 539702, Note_on_c, 0, 62, 0
2, 539702, Note_on_c, 0, 80, 0
2, 539704, Note_on_c, 0, 77, 97
2, 539704, Note_on_c, 0, 43, 97
2, 539798, Note_on_c, 0, 77, 0
2, 539800, Note_on_c, 0, 79, 97
2, 539894, Note_on_c, 0, 79, 0
2, 539894, Note_on_c, 0, 43, 0
2, 539896, Note_on_c, 0, 77, 97
2, 539896, Note_on_c, 0, 59, 97
2, 539990, Note_on_c, 0, 77, 0
2, 539992, Note_on_c, 0, 79, 97
2, 540086, Note_on_c, 0, 79, 0
2, 540086, Note_on_c, 0, 59, 0
2, 540086, Note_on_c, 0, 74, 0
2, 540088, Note_on_c, 0, 75, 97
2, 540088, Note_on_c, 0, 48, 97
2, 540088, Note_on_c, 0, 72, 97
2, 540182, Note_on_c, 0, 75, 0
2, 540184, Note_on_c, 0, 79, 97
2, 540278, Note_on_c, 0, 79, 0
2, 540278, Note_on_c, 0, 72, 0
2, 540278, Note_on_c, 0, 48, 0
2, 540280, Note_on_c, 0, 74, 97
2, 540280, Note_on_c, 0, 55, 97
2, 540280, Note_on_c, 0, 70, 97
2, 540374, Note_on_c, 0, 74, 0
2, 540376, Note_on_c, 0, 79, 97
2, 540470, Note_on_c, 0, 79, 0
2, 540470, Note_on_c, 0, 70, 0
2, 540470, Note_on_c, 0, 55, 0
2, 540472, Note_on_c, 0, 72, 97
2, 540472, Note_on_c, 0, 60, 97
2, 540472, Note_on_c, 0, 68, 97
2, 540566, Note_on_c, 0, 72, 0
2, 540568, Note_on_c, 0, 77, 97
2, 540662, Note_on_c, 0, 77, 0
2, 540662, Note_on_c, 0, 68, 0
2, 540664, Note_on_c, 0, 70, 97
2, 540664, Note_on_c, 0, 67, 97
2, 540758, Note_on_c, 0, 70, 0
2, 540760, Note_on_c, 0, 75, 97
2, 540854, Note_on_c, 0, 75, 0
2, 540854, Note_on_c, 0, 67, 0
2, 540856, Note_on_c, 0, 68, 97
2, 540856, Note_on_c, 0, 65, 97
2, 540950, Note_on_c, 0, 68, 0
2, 540952, Note_on_c, 0, 72, 97
2, 541046, Note_on_c, 0, 72, 0
2, 541046, Note_on_c, 0, 60, 0
2, 541048, Note_on_c, 0, 77, 97
2, 541048, Note_on_c, 0, 62, 97
2, 541142, Note_on_c, 0, 62, 0
2, 541142, Note_on_c, 0, 77, 0
2, 541144, Note_on_c, 0, 75, 97
2, 541144, Note_on_c, 0, 60, 97
2, 541236, Note_on_c, 0, 65, 0
2, 541238, Note_on_c, 0, 60, 0
2, 541238, Note_on_c, 0, 75, 0
2, 541240, Note_on_c, 0, 77, 97
2, 541240, Note_on_c, 0, 59, 97
2, 541334, Note_on_c, 0, 59, 0
2, 541336, Note_on_c, 0, 57, 97
2, 541336, Note_on_c, 0, 72, 97
2, 541430, Note_on_c, 0, 72, 0
2, 541430, Note_on_c, 0, 57, 0
2, 541432, Note_on_c, 0, 55, 97
2, 541432, Note_on_c, 0, 71, 97
2, 541526, Note_on_c, 0, 71, 0
2, 541526, Note_on_c, 0, 55, 0
2, 541528, Note_on_c, 0, 53, 97
2, 541528, Note_on_c, 0, 74, 97
2, 541620, Note_on_c, 0, 77, 0
2, 541622, Note_on_c, 0, 74, 0
2, 541622, Note_on_c, 0, 53, 0
2, 541624, Note_on_c, 0, 51, 97
2, 541624, Note_on_c, 0, 67, 97
2, 541718, Note_on_c, 0, 51, 0
2, 541720, Note_on_c, 0, 50, 97
2, 541814, Note_on_c, 0, 50, 0
2, 541816, Note_on_c, 0, 72, 97
2, 541816, Note_on_c, 0, 48, 97
2, 541910, Note_on_c, 0, 48, 0
2, 541912, Note_on_c, 0, 50, 97
2, 542004, Note_on_c, 0, 67, 0
2, 542006, Note_on_c, 0, 50, 0
2, 542006, Note_on_c, 0, 72, 0
2, 542008, Note_on_c, 0, 79, 97
2, 542008, Note_on_c, 0, 51, 97
2, 542102, Note_on_c, 0, 51, 0
2, 542104, Note_on_c, 0, 53, 97
2, 542198, Note_on_c, 0, 53, 0
2, 542200, Note_on_c, 0, 55, 97
2, 542200, Note_on_c, 0, 75, 97
2, 542294, Note_on_c, 0, 55, 0
2, 542296, Note_on_c, 0, 51, 97
2, 542390, Note_on_c, 0, 51, 0
2, 542390, Note_on_c, 0, 75, 0
2, 542392, Note_on_c, 0, 56, 97
2, 542392, Note_on_c, 0, 72, 97
2, 542486, Note_on_c, 0, 56, 0
2, 542488, Note_on_c, 0, 55, 97
2, 542582, Note_on_c, 0, 55, 0
2, 542582, Note_on_c, 0, 79, 0
2, 542584, Note_on_c, 0, 80, 97
2, 542584, Note_on_c, 0, 53, 97
2, 542678, Note_on_c, 0, 53, 0
2, 542678, Note_on_c, 0, 80, 0
2, 542680, Note_on_c, 0, 79, 97
2, 542680, Note_on_c, 0, 55, 97
2, 542772, Note_on_c, 0, 72, 0
2, 542774, Note_on_c, 0, 55, 0
2, 542774, Note_on_c, 0, 79, 0
2, 542776, Note_on_c, 0, 77, 97
2, 542776, Note_on_c, 0, 56, 97
2, 542870, Note_on_c, 0, 77, 0
2, 542872, Note_on_c, 0, 75, 97
2, 542966, Note_on_c, 0, 75, 0
2, 542968, Note_on_c, 0, 74, 97
2, 543062, Note_on_c, 0, 74, 0
2, 543064, Note_on_c, 0, 72, 97
2, 543158, Note_on_c, 0, 72, 0
2, 543160, Note_on_c, 0, 71, 97
2, 543254, Note_on_c, 0, 56, 0
2, 543256, Note_on_c, 0, 56, 97
2, 543350, Note_on_c, 0, 56, 0
2, 543352, Note_on_c, 0, 55, 97
2, 543352, Note_on_c, 0, 62, 97
2, 543446, Note_on_c, 0, 55, 0
2, 543448, Note_on_c, 0, 53, 97
2, 543540, Note_on_c, 0, 71, 0
2, 543542, Note_on_c, 0, 53, 0
2, 543542, Note_on_c, 0, 62, 0
2, 543544, Note_on_c, 0, 51, 97
2, 543544, Note_on_c, 0, 67, 97
2, 543638, Note_on_c, 0, 51, 0
2, 543640, Note_on_c, 0, 50, 97
2, 543734, Note_on_c, 0, 50, 0
2, 543736, Note_on_c, 0, 75, 97
2, 543736, Note_on_c, 0, 48, 97
2, 543830, Note_on_c, 0, 48, 0
2, 543832, Note_on_c, 0, 46, 97
2, 543926, Note_on_c, 0, 46, 0
2, 543926, Note_on_c, 0, 75, 0
2, 543928, Note_on_c, 0, 72, 97
2, 543928, Note_on_c, 0, 44, 97
2, 544022, Note_on_c, 0, 44, 0
2, 544024, Note_on_c, 0, 55, 97
2, 544118, Note_on_c, 0, 55, 0
2, 544118, Note_on_c, 0, 67, 0
2, 544120, Note_on_c, 0, 53, 97
2, 544120, Note_on_c, 0, 68, 97
2, 544214, Note_on_c, 0, 68, 0
2, 544214, Note_on_c, 0, 53, 0
2, 544216, Note_on_c, 0, 51, 97
2, 544216, Note_on_c, 0, 67, 97
2, 544308, Note_on_c, 0, 72, 0
2, 544310, Note_on_c, 0, 67, 0
2, 544310, Note_on_c, 0, 51, 0
2, 544312, Note_on_c, 0, 50, 97
2, 544312, Note_on_c, 0, 65, 97
2, 544406, Note_on_c, 0, 65, 0
2, 544406, Note_on_c, 0, 50, 0
2, 544408, Note_on_c, 0, 48, 97
2, 544408, Note_on_c, 0, 63, 97
2, 544502, Note_on_c, 0, 63, 0
2, 544502, Note_on_c, 0, 48, 0
2, 544504, Note_on_c, 0, 47, 97
2, 544504, Note_on_c, 0, 62, 97
2, 544598, Note_on_c, 0, 62, 0
2, 544598, Note_on_c, 0, 47, 0
2, 544600, Note_on_c, 0, 45, 97
2, 544600, Note_on_c, 0, 60, 97
2, 544694, Note_on_c, 0, 60, 0
2, 544694, Note_on_c, 0, 45, 0
2, 544696, Note_on_c, 0, 43, 97
2, 544696, Note_on_c, 0, 59, 97
2, 544790, Note_on_c, 0, 43, 0
2, 544792, Note_on_c, 0, 51, 97
2, 544886, Note_on_c, 0, 51, 0
2, 544888, Note_on_c, 0, 67, 97
2, 544888, Note_on_c, 0, 50, 97
2, 544982, Note_on_c, 0, 50, 0
2, 544984, Note_on_c, 0, 48, 97
2, 545076, Note_on_c, 0, 59, 0
2, 545078, Note_on_c, 0, 48, 0
2, 545078, Note_on_c, 0, 67, 0
2, 545080, Note_on_c, 0, 77, 97
2, 545080, Note_on_c, 0, 47, 97
2, 545174, Note_on_c, 0, 47, 0
2, 545176, Note_on_c, 0, 45, 97
2, 545270, Note_on_c, 0, 45, 0
2, 545272, Note_on_c, 0, 43, 97
2, 545272, Note_on_c, 0, 74, 97
2, 545366, Note_on_c, 0, 43, 0
2, 545368, Note_on_c, 0, 41, 97
2, 545462, Note_on_c, 0, 41, 0
2, 545462, Note_on_c, 0, 74, 0
2, 545464, Note_on_c, 0, 39, 97
2, 545464, Note_on_c, 0, 67, 97
2, 545558, Note_on_c, 0, 39, 0
2, 545560, Note_on_c, 0, 44, 97
2, 545654, Note_on_c, 0, 44, 0
2, 545654, Note_on_c, 0, 67, 0
2, 545654, Note_on_c, 0, 77, 0
2, 545656, Note_on_c, 0, 74, 97
2, 545656, Note_on_c, 0, 43, 97
2, 545656, Note_on_c, 0, 71, 97
2, 545750, Note_on_c, 0, 43, 0
2, 545752, Note_on_c, 0, 41, 97
2, 545846, Note_on_c, 0, 41, 0
2, 545846, Note_on_c, 0, 71, 0
2, 545846, Note_on_c, 0, 74, 0
2, 545848, Note_on_c, 0, 79, 97
2, 545848, Note_on_c, 0, 39, 97
2, 545848, Note_on_c, 0, 72, 97
2, 545942, Note_on_c, 0, 39, 0
2, 545944, Note_on_c, 0, 38, 97
2, 546038, Note_on_c, 0, 38, 0
2, 546038, Note_on_c, 0, 72, 0
2, 546038, Note_on_c, 0, 79, 0
2, 546040, Note_on_c, 0, 77, 97
2, 546040, Note_on_c, 0, 39, 97
2, 546040, Note_on_c, 0, 74, 97
2, 546040, Note_on_c, 0, 68, 97
2, 546134, Note_on_c, 0, 39, 0
2, 546136, Note_on_c, 0, 41, 97
2, 546230, Note_on_c, 0, 41, 0
2, 546230, Note_on_c, 0, 68, 0
2, 546230, Note_on_c, 0, 77, 0
2, 546232, Note_on_c, 0, 75, 97
2, 546232, Note_on_c, 0, 43, 97
2, 546232, Note_on_c, 0, 67, 97
2, 546326, Note_on_c, 0, 43, 0
2, 546334, Note_on_c, 0, 48, 97
2, 546420, Note_on_c, 0, 74, 0
2, 546433, Note_on_c, 0, 48, 0
2, 546436, Note_on_c, 0, 72, 97
2, 546436, Note_on_c, 0, 51, 97
2, 546535, Note_on_c, 0, 51, 0
2, 546538, Note_on_c, 0, 54, 97
2, 546612, Note_on_c, 0, 67, 0
2, 546614, Note_on_c, 0, 75, 0
2, 546637, Note_on_c, 0, 54, 0
2, 546639, Note_on_c, 0, 74, 97
2, 546640, Note_on_c, 0, 65, 97
2, 546640, Note_on_c, 0, 55, 97
2, 546816, Note_on_c, 0, 72, 0
2, 546840, Note_on_c, 0, 43, 97
2, 546840, Note_on_c, 0, 71, 97
2, 546980, Note_on_c, 0, 55, 0
2, 547020, Note_on_c, 0, 65, 0
2, 547021, Note_on_c, 0, 74, 0
2, 547030, Note_on_c, 0, 71, 0
2, 547040, Note_on_c, 0, 43, 0
2, 547064, Note_on_c, 0, 72, 97
2, 547064, Note_on_c, 0, 48, 97
2, 547064, Note_on_c, 0, 36, 97
2, 547064, Note_on_c, 0, 67, 97
2, 547064, Note_on_c, 0, 63, 97
2, 548264, Note_on_c, 0, 63, 0
2, 548264, Note_on_c, 0, 36, 0
2, 548264, Note_on_c, 0, 72, 0
2, 548264, Note_on_c, 0, 48, 0
2, 548264, Note_on_c, 0, 67, 0
2, 548264, End_track
0, 0, End_of_file
