0, 0, Header, 1, 2, 384
1, 0, Start_track
1, 0, Title_t, "--------"
1, 0, Text_t, "harpsichord: John Sankey\012"
1, 0, Time_signature, 6, 3, 12, 8
1, 0, Key_signature, 0, "major"
1, 0, Tempo, 500000
1, 112704, Tempo, 1000000
1, 112896, Time_signature, 4, 2, 24, 8
1, 157440, Tempo, 666667
1, 158976, Time_signature, 3, 3, 12, 8
1, 198144, Time_signature, 3, 2, 24, 8
1, 198144, Tempo, 722892
1, 247680, Time_signature, 6, 3, 12, 8
1, 247680, Tempo, 375000
1, 307584, Tempo, 800000
1, 309888, Time_signature, 3, 3, 12, 8
1, 339264, Tempo, 681818
1, 339840, Time_signature, 6, 3, 12, 8
1, 339840, End_track
2, 0, Start_track
2, 0, Title_t, "Harpsichord"
2, 0, Program_c, 0, 6
2, 0, Control_c, 0, 7, 100
2, 0, Program_c, 0, 7
2, 0, Pitch_bend_c, 0, 8192
2, 0, Program_c, 0, 7
2, 0, Pitch_bend_c, 0, 7790
2, 0, Program_c, 0, 7
2, 0, Pitch_bend_c, 0, 7876
2, 0, Program_c, 0, 7
2, 0, Pitch_bend_c, 0, 7952
2, 0, Program_c, 0, 7
2, 0, Pitch_bend_c, 0, 7792
2, 0, Program_c, 0, 7
2, 0, Pitch_bend_c, 0, 8112
2, 0, Program_c, 0, 7
2, 0, Pitch_bend_c, 0, 7710
2, 0, Program_c, 0, 7
2, 0, Pitch_bend_c, 0, 8037
2, 0, Program_c, 0, 7
2, 0, Pitch_bend_c, 0, 7870
2, 0, Program_c, 0, 7
2, 0, Pitch_bend_c, 0, 7712
2, 0, Program_c, 0, 7
2, 0, Pitch_bend_c, 0, 8032
2, 0, Program_c, 0, 7
2, 0, Pitch_bend_c, 0, 7872
2, 96, Note_on_c, 0, 74, 97
2, 192, Note_on_c, 0, 72, 97
2, 193, Note_on_c, 0, 74, 0
2, 288, Note_on_c, 0, 71, 97
2, 289, Note_on_c, 0, 72, 0
2, 384, Note_on_c, 0, 69, 97
2, 385, Note_on_c, 0, 71, 0
2, 480, Note_on_c, 0, 67, 97
2, 481, Note_on_c, 0, 69, 0
2, 660, Note_on_c, 0, 67, 0
2, 864, Note_on_c, 0, 55, 97
2, 864, Note_on_c, 0, 59, 97
2, 864, Note_on_c, 0, 62, 97
2, 954, Note_on_c, 0, 62, 0
2, 954, Note_on_c, 0, 59, 0
2, 959, Note_on_c, 0, 55, 0
2, 1248, Note_on_c, 0, 55, 97
2, 1248, Note_on_c, 0, 60, 97
2, 1248, Note_on_c, 0, 64, 97
2, 1338, Note_on_c, 0, 64, 0
2, 1338, Note_on_c, 0, 60, 0
2, 1338, Note_on_c, 0, 55, 0
2, 1632, Note_on_c, 0, 55, 97
2, 1632, Note_on_c, 0, 59, 97
2, 1632, Note_on_c, 0, 62, 97
2, 1760, Note_on_c, 0, 62, 0
2, 1760, Note_on_c, 0, 59, 0
2, 1760, Note_on_c, 0, 55, 0
2, 2352, Note_on_c, 0, 74, 97
2, 2448, Note_on_c, 0, 72, 97
2, 2449, Note_on_c, 0, 74, 0
2, 2544, Note_on_c, 0, 71, 97
2, 2545, Note_on_c, 0, 72, 0
2, 2640, Note_on_c, 0, 69, 97
2, 2641, Note_on_c, 0, 71, 0
2, 2736, Note_on_c, 0, 67, 97
2, 2737, Note_on_c, 0, 69, 0
2, 2832, Note_on_c, 0, 66, 97
2, 2833, Note_on_c, 0, 67, 0
2, 2928, Note_on_c, 0, 64, 97
2, 2929, Note_on_c, 0, 66, 0
2, 3024, Note_on_c, 0, 62, 97
2, 3025, Note_on_c, 0, 64, 0
2, 3120, Note_on_c, 0, 60, 97
2, 3121, Note_on_c, 0, 62, 0
2, 3216, Note_on_c, 0, 59, 97
2, 3217, Note_on_c, 0, 60, 0
2, 3312, Note_on_c, 0, 57, 97
2, 3313, Note_on_c, 0, 59, 0
2, 3408, Note_on_c, 0, 55, 97
2, 3409, Note_on_c, 0, 57, 0
2, 3504, Note_on_c, 0, 60, 97
2, 3504, Note_on_c, 0, 57, 97
2, 3504, Note_on_c, 0, 54, 97
2, 3504, Note_on_c, 0, 43, 97
2, 3504, Note_on_c, 0, 50, 97
2, 3505, Note_on_c, 0, 55, 0
2, 3594, Note_on_c, 0, 57, 0
2, 3594, Note_on_c, 0, 54, 0
2, 3594, Note_on_c, 0, 60, 0
2, 3594, Note_on_c, 0, 50, 0
2, 3594, Note_on_c, 0, 43, 0
2, 3888, Note_on_c, 0, 59, 97
2, 3888, Note_on_c, 0, 50, 97
2, 3888, Note_on_c, 0, 31, 97
2, 3888, Note_on_c, 0, 43, 97
2, 3888, Note_on_c, 0, 55, 97
2, 4016, Note_on_c, 0, 55, 0
2, 4016, Note_on_c, 0, 31, 0
2, 4016, Note_on_c, 0, 59, 0
2, 4016, Note_on_c, 0, 50, 0
2, 4016, Note_on_c, 0, 43, 0
2, 4608, Note_on_c, 0, 55, 97
2, 4704, Note_on_c, 0, 59, 97
2, 4798, Note_on_c, 0, 55, 0
2, 4800, Note_on_c, 0, 60, 97
2, 4801, Note_on_c, 0, 59, 0
2, 4896, Note_on_c, 0, 62, 97
2, 4897, Note_on_c, 0, 60, 0
2, 4992, Note_on_c, 0, 64, 97
2, 4993, Note_on_c, 0, 62, 0
2, 5088, Note_on_c, 0, 66, 97
2, 5089, Note_on_c, 0, 64, 0
2, 5184, Note_on_c, 0, 67, 97
2, 5185, Note_on_c, 0, 66, 0
2, 5280, Note_on_c, 0, 69, 97
2, 5281, Note_on_c, 0, 67, 0
2, 5376, Note_on_c, 0, 71, 97
2, 5377, Note_on_c, 0, 69, 0
2, 5472, Note_on_c, 0, 72, 97
2, 5473, Note_on_c, 0, 71, 0
2, 5568, Note_on_c, 0, 74, 97
2, 5569, Note_on_c, 0, 72, 0
2, 5648, Note_on_c, 0, 74, 0
2, 5664, Note_on_c, 0, 76, 97
2, 5744, Note_on_c, 0, 76, 0
2, 5760, Note_on_c, 0, 54, 97
2, 5856, Note_on_c, 0, 57, 97
2, 5950, Note_on_c, 0, 54, 0
2, 5952, Note_on_c, 0, 59, 97
2, 5953, Note_on_c, 0, 57, 0
2, 6048, Note_on_c, 0, 60, 97
2, 6049, Note_on_c, 0, 59, 0
2, 6144, Note_on_c, 0, 62, 97
2, 6145, Note_on_c, 0, 60, 0
2, 6240, Note_on_c, 0, 64, 97
2, 6241, Note_on_c, 0, 62, 0
2, 6336, Note_on_c, 0, 66, 97
2, 6337, Note_on_c, 0, 64, 0
2, 6432, Note_on_c, 0, 67, 97
2, 6433, Note_on_c, 0, 66, 0
2, 6528, Note_on_c, 0, 69, 97
2, 6529, Note_on_c, 0, 67, 0
2, 6624, Note_on_c, 0, 71, 97
2, 6625, Note_on_c, 0, 69, 0
2, 6720, Note_on_c, 0, 72, 97
2, 6721, Note_on_c, 0, 71, 0
2, 6800, Note_on_c, 0, 72, 0
2, 6816, Note_on_c, 0, 74, 97
2, 6896, Note_on_c, 0, 74, 0
2, 6912, Note_on_c, 0, 52, 97
2, 7008, Note_on_c, 0, 55, 97
2, 7102, Note_on_c, 0, 52, 0
2, 7104, Note_on_c, 0, 57, 97
2, 7105, Note_on_c, 0, 55, 0
2, 7200, Note_on_c, 0, 59, 97
2, 7201, Note_on_c, 0, 57, 0
2, 7296, Note_on_c, 0, 60, 97
2, 7297, Note_on_c, 0, 59, 0
2, 7392, Note_on_c, 0, 62, 97
2, 7393, Note_on_c, 0, 60, 0
2, 7488, Note_on_c, 0, 64, 97
2, 7489, Note_on_c, 0, 62, 0
2, 7584, Note_on_c, 0, 66, 97
2, 7585, Note_on_c, 0, 64, 0
2, 7680, Note_on_c, 0, 67, 97
2, 7681, Note_on_c, 0, 66, 0
2, 7776, Note_on_c, 0, 69, 97
2, 7777, Note_on_c, 0, 67, 0
2, 7872, Note_on_c, 0, 71, 97
2, 7873, Note_on_c, 0, 69, 0
2, 7965, Note_on_c, 0, 71, 0
2, 7968, Note_on_c, 0, 72, 97
2, 8064, Note_on_c, 0, 50, 97
2, 8128, Note_on_c, 0, 72, 0
2, 8160, Note_on_c, 0, 72, 97
2, 8254, Note_on_c, 0, 50, 0
2, 8256, Note_on_c, 0, 69, 97
2, 8257, Note_on_c, 0, 72, 0
2, 8352, Note_on_c, 0, 66, 97
2, 8353, Note_on_c, 0, 69, 0
2, 8448, Note_on_c, 0, 62, 97
2, 8449, Note_on_c, 0, 66, 0
2, 8544, Note_on_c, 0, 57, 97
2, 8545, Note_on_c, 0, 62, 0
2, 8640, Note_on_c, 0, 54, 97
2, 8641, Note_on_c, 0, 57, 0
2, 8736, Note_on_c, 0, 50, 97
2, 8737, Note_on_c, 0, 54, 0
2, 8832, Note_on_c, 0, 38, 97
2, 8833, Note_on_c, 0, 50, 0
2, 8928, Note_on_c, 0, 60, 97
2, 9022, Note_on_c, 0, 38, 0
2, 9024, Note_on_c, 0, 59, 97
2, 9025, Note_on_c, 0, 60, 0
2, 9120, Note_on_c, 0, 57, 97
2, 9121, Note_on_c, 0, 59, 0
2, 9216, Note_on_c, 0, 55, 97
2, 9217, Note_on_c, 0, 57, 0
2, 9312, Note_on_c, 0, 71, 97
2, 9402, Note_on_c, 0, 71, 0
2, 9406, Note_on_c, 0, 55, 0
2, 9408, Note_on_c, 0, 67, 97
2, 9498, Note_on_c, 0, 67, 0
2, 9504, Note_on_c, 0, 66, 97
2, 9594, Note_on_c, 0, 66, 0
2, 9600, Note_on_c, 0, 62, 97
2, 9696, Note_on_c, 0, 59, 97
2, 9697, Note_on_c, 0, 62, 0
2, 9792, Note_on_c, 0, 55, 97
2, 9793, Note_on_c, 0, 59, 0
2, 9888, Note_on_c, 0, 50, 97
2, 9889, Note_on_c, 0, 55, 0
2, 9984, Note_on_c, 0, 43, 97
2, 9985, Note_on_c, 0, 50, 0
2, 10080, Note_on_c, 0, 54, 97
2, 10174, Note_on_c, 0, 43, 0
2, 10176, Note_on_c, 0, 52, 97
2, 10177, Note_on_c, 0, 54, 0
2, 10272, Note_on_c, 0, 50, 97
2, 10273, Note_on_c, 0, 52, 0
2, 10368, Note_on_c, 0, 49, 97
2, 10369, Note_on_c, 0, 50, 0
2, 10464, Note_on_c, 0, 71, 97
2, 10554, Note_on_c, 0, 71, 0
2, 10558, Note_on_c, 0, 49, 0
2, 10560, Note_on_c, 0, 67, 97
2, 10650, Note_on_c, 0, 67, 0
2, 10656, Note_on_c, 0, 64, 97
2, 10746, Note_on_c, 0, 64, 0
2, 10752, Note_on_c, 0, 61, 97
2, 10848, Note_on_c, 0, 55, 97
2, 10849, Note_on_c, 0, 61, 0
2, 10944, Note_on_c, 0, 52, 97
2, 10945, Note_on_c, 0, 55, 0
2, 11040, Note_on_c, 0, 49, 97
2, 11041, Note_on_c, 0, 52, 0
2, 11136, Note_on_c, 0, 37, 97
2, 11137, Note_on_c, 0, 49, 0
2, 11232, Note_on_c, 0, 59, 97
2, 11326, Note_on_c, 0, 37, 0
2, 11328, Note_on_c, 0, 57, 97
2, 11329, Note_on_c, 0, 59, 0
2, 11424, Note_on_c, 0, 55, 97
2, 11425, Note_on_c, 0, 57, 0
2, 11520, Note_on_c, 0, 54, 97
2, 11521, Note_on_c, 0, 55, 0
2, 11616, Note_on_c, 0, 69, 97
2, 11706, Note_on_c, 0, 69, 0
2, 11710, Note_on_c, 0, 54, 0
2, 11712, Note_on_c, 0, 66, 97
2, 11802, Note_on_c, 0, 66, 0
2, 11808, Note_on_c, 0, 64, 97
2, 11898, Note_on_c, 0, 64, 0
2, 11904, Note_on_c, 0, 61, 97
2, 12000, Note_on_c, 0, 57, 97
2, 12001, Note_on_c, 0, 61, 0
2, 12096, Note_on_c, 0, 54, 97
2, 12097, Note_on_c, 0, 57, 0
2, 12192, Note_on_c, 0, 49, 97
2, 12193, Note_on_c, 0, 54, 0
2, 12288, Note_on_c, 0, 42, 97
2, 12289, Note_on_c, 0, 49, 0
2, 12384, Note_on_c, 0, 52, 97
2, 12478, Note_on_c, 0, 42, 0
2, 12480, Note_on_c, 0, 50, 97
2, 12481, Note_on_c, 0, 52, 0
2, 12576, Note_on_c, 0, 49, 97
2, 12577, Note_on_c, 0, 50, 0
2, 12672, Note_on_c, 0, 47, 97
2, 12673, Note_on_c, 0, 49, 0
2, 12768, Note_on_c, 0, 69, 97
2, 12858, Note_on_c, 0, 69, 0
2, 12862, Note_on_c, 0, 47, 0
2, 12864, Note_on_c, 0, 66, 97
2, 12954, Note_on_c, 0, 66, 0
2, 12960, Note_on_c, 0, 62, 97
2, 13050, Note_on_c, 0, 62, 0
2, 13056, Note_on_c, 0, 59, 97
2, 13152, Note_on_c, 0, 54, 97
2, 13153, Note_on_c, 0, 59, 0
2, 13248, Note_on_c, 0, 50, 97
2, 13249, Note_on_c, 0, 54, 0
2, 13344, Note_on_c, 0, 47, 97
2, 13345, Note_on_c, 0, 50, 0
2, 13440, Note_on_c, 0, 35, 97
2, 13441, Note_on_c, 0, 47, 0
2, 13536, Note_on_c, 0, 57, 97
2, 13630, Note_on_c, 0, 35, 0
2, 13632, Note_on_c, 0, 55, 97
2, 13633, Note_on_c, 0, 57, 0
2, 13728, Note_on_c, 0, 54, 97
2, 13729, Note_on_c, 0, 55, 0
2, 13824, Note_on_c, 0, 52, 97
2, 13825, Note_on_c, 0, 54, 0
2, 13920, Note_on_c, 0, 67, 97
2, 14010, Note_on_c, 0, 67, 0
2, 14014, Note_on_c, 0, 52, 0
2, 14016, Note_on_c, 0, 64, 97
2, 14106, Note_on_c, 0, 64, 0
2, 14112, Note_on_c, 0, 62, 97
2, 14202, Note_on_c, 0, 62, 0
2, 14208, Note_on_c, 0, 59, 97
2, 14304, Note_on_c, 0, 55, 97
2, 14305, Note_on_c, 0, 59, 0
2, 14400, Note_on_c, 0, 52, 97
2, 14401, Note_on_c, 0, 55, 0
2, 14496, Note_on_c, 0, 47, 97
2, 14497, Note_on_c, 0, 52, 0
2, 14592, Note_on_c, 0, 40, 97
2, 14593, Note_on_c, 0, 47, 0
2, 14688, Note_on_c, 0, 50, 97
2, 14782, Note_on_c, 0, 40, 0
2, 14784, Note_on_c, 0, 49, 97
2, 14785, Note_on_c, 0, 50, 0
2, 14880, Note_on_c, 0, 47, 97
2, 14881, Note_on_c, 0, 49, 0
2, 14976, Note_on_c, 0, 45, 97
2, 14977, Note_on_c, 0, 47, 0
2, 15072, Note_on_c, 0, 67, 97
2, 15162, Note_on_c, 0, 67, 0
2, 15166, Note_on_c, 0, 45, 0
2, 15168, Note_on_c, 0, 64, 97
2, 15258, Note_on_c, 0, 64, 0
2, 15264, Note_on_c, 0, 61, 97
2, 15354, Note_on_c, 0, 61, 0
2, 15360, Note_on_c, 0, 57, 97
2, 15456, Note_on_c, 0, 52, 97
2, 15457, Note_on_c, 0, 57, 0
2, 15552, Note_on_c, 0, 49, 97
2, 15553, Note_on_c, 0, 52, 0
2, 15648, Note_on_c, 0, 45, 97
2, 15649, Note_on_c, 0, 49, 0
2, 15744, Note_on_c, 0, 33, 97
2, 15745, Note_on_c, 0, 45, 0
2, 15840, Note_on_c, 0, 55, 97
2, 15934, Note_on_c, 0, 33, 0
2, 15936, Note_on_c, 0, 54, 97
2, 15937, Note_on_c, 0, 55, 0
2, 16032, Note_on_c, 0, 52, 97
2, 16033, Note_on_c, 0, 54, 0
2, 16128, Note_on_c, 0, 50, 97
2, 16129, Note_on_c, 0, 52, 0
2, 16224, Note_on_c, 0, 57, 97
2, 16320, Note_on_c, 0, 59, 97
2, 16321, Note_on_c, 0, 57, 0
2, 16408, Note_on_c, 0, 50, 0
2, 16416, Note_on_c, 0, 61, 97
2, 16417, Note_on_c, 0, 59, 0
2, 16512, Note_on_c, 0, 62, 97
2, 16513, Note_on_c, 0, 61, 0
2, 16608, Note_on_c, 0, 64, 97
2, 16609, Note_on_c, 0, 62, 0
2, 16704, Note_on_c, 0, 65, 97
2, 16705, Note_on_c, 0, 64, 0
2, 16800, Note_on_c, 0, 62, 97
2, 16854, Note_on_c, 0, 65, 0
2, 16896, Note_on_c, 0, 56, 97
2, 16992, Note_on_c, 0, 65, 97
2, 16993, Note_on_c, 0, 56, 0
2, 16993, Note_on_c, 0, 62, 0
2, 17088, Note_on_c, 0, 64, 97
2, 17089, Note_on_c, 0, 65, 0
2, 17184, Note_on_c, 0, 62, 97
2, 17185, Note_on_c, 0, 64, 0
2, 17280, Note_on_c, 0, 61, 97
2, 17281, Note_on_c, 0, 62, 0
2, 17376, Note_on_c, 0, 62, 97
2, 17377, Note_on_c, 0, 61, 0
2, 17472, Note_on_c, 0, 64, 97
2, 17473, Note_on_c, 0, 62, 0
2, 17568, Note_on_c, 0, 66, 97
2, 17569, Note_on_c, 0, 64, 0
2, 17664, Note_on_c, 0, 67, 97
2, 17665, Note_on_c, 0, 66, 0
2, 17760, Note_on_c, 0, 69, 97
2, 17761, Note_on_c, 0, 67, 0
2, 17848, Note_on_c, 0, 69, 0
2, 17856, Note_on_c, 0, 70, 97
2, 17936, Note_on_c, 0, 70, 0
2, 17952, Note_on_c, 0, 67, 97
2, 18022, Note_on_c, 0, 67, 0
2, 18046, Note_on_c, 0, 77, 97
2, 18134, Note_on_c, 0, 77, 0
2, 18138, Note_on_c, 0, 76, 97
2, 18226, Note_on_c, 0, 76, 0
2, 18232, Note_on_c, 0, 74, 97
2, 18304, Note_on_c, 0, 74, 0
2, 18318, Note_on_c, 0, 73, 97
2, 18373, Note_on_c, 0, 73, 0
2, 18432, Note_on_c, 0, 81, 97
2, 18528, Note_on_c, 0, 79, 97
2, 18602, Note_on_c, 0, 81, 0
2, 18624, Note_on_c, 0, 78, 97
2, 18625, Note_on_c, 0, 79, 0
2, 18720, Note_on_c, 0, 76, 97
2, 18721, Note_on_c, 0, 78, 0
2, 18816, Note_on_c, 0, 74, 97
2, 18817, Note_on_c, 0, 76, 0
2, 19036, Note_on_c, 0, 74, 0
2, 19200, Note_on_c, 0, 66, 97
2, 19200, Note_on_c, 0, 62, 97
2, 19200, Note_on_c, 0, 69, 97
2, 19290, Note_on_c, 0, 69, 0
2, 19290, Note_on_c, 0, 62, 0
2, 19290, Note_on_c, 0, 66, 0
2, 19584, Note_on_c, 0, 71, 97
2, 19584, Note_on_c, 0, 62, 97
2, 19584, Note_on_c, 0, 67, 97
2, 19674, Note_on_c, 0, 67, 0
2, 19674, Note_on_c, 0, 62, 0
2, 19674, Note_on_c, 0, 71, 0
2, 19968, Note_on_c, 0, 62, 97
2, 19968, Note_on_c, 0, 69, 97
2, 19968, Note_on_c, 0, 66, 97
2, 20096, Note_on_c, 0, 66, 0
2, 20096, Note_on_c, 0, 69, 0
2, 20096, Note_on_c, 0, 62, 0
2, 20736, Note_on_c, 0, 81, 97
2, 20832, Note_on_c, 0, 79, 97
2, 20856, Note_on_c, 0, 81, 0
2, 20928, Note_on_c, 0, 78, 97
2, 20929, Note_on_c, 0, 79, 0
2, 21024, Note_on_c, 0, 76, 97
2, 21025, Note_on_c, 0, 78, 0
2, 21120, Note_on_c, 0, 74, 97
2, 21121, Note_on_c, 0, 76, 0
2, 21216, Note_on_c, 0, 73, 97
2, 21217, Note_on_c, 0, 74, 0
2, 21312, Note_on_c, 0, 71, 97
2, 21313, Note_on_c, 0, 73, 0
2, 21408, Note_on_c, 0, 69, 97
2, 21409, Note_on_c, 0, 71, 0
2, 21504, Note_on_c, 0, 67, 97
2, 21505, Note_on_c, 0, 69, 0
2, 21600, Note_on_c, 0, 66, 97
2, 21601, Note_on_c, 0, 67, 0
2, 21696, Note_on_c, 0, 64, 97
2, 21697, Note_on_c, 0, 66, 0
2, 21792, Note_on_c, 0, 62, 97
2, 21793, Note_on_c, 0, 64, 0
2, 21888, Note_on_c, 0, 50, 97
2, 21888, Note_on_c, 0, 57, 97
2, 21888, Note_on_c, 0, 67, 97
2, 21888, Note_on_c, 0, 64, 97
2, 21888, Note_on_c, 0, 61, 97
2, 21889, Note_on_c, 0, 62, 0
2, 21978, Note_on_c, 0, 57, 0
2, 21978, Note_on_c, 0, 67, 0
2, 21978, Note_on_c, 0, 50, 0
2, 21978, Note_on_c, 0, 61, 0
2, 21978, Note_on_c, 0, 64, 0
2, 22272, Note_on_c, 0, 38, 97
2, 22272, Note_on_c, 0, 50, 97
2, 22272, Note_on_c, 0, 66, 97
2, 22272, Note_on_c, 0, 57, 97
2, 22272, Note_on_c, 0, 62, 97
2, 22400, Note_on_c, 0, 62, 0
2, 22400, Note_on_c, 0, 66, 0
2, 22400, Note_on_c, 0, 38, 0
2, 22400, Note_on_c, 0, 50, 0
2, 22400, Note_on_c, 0, 57, 0
2, 23040, Note_on_c, 0, 43, 97
2, 23136, Note_on_c, 0, 66, 97
2, 23232, Note_on_c, 0, 55, 97
2, 23232, Note_on_c, 0, 64, 97
2, 23233, Note_on_c, 0, 66, 0
2, 23233, Note_on_c, 0, 43, 0
2, 23328, Note_on_c, 0, 66, 97
2, 23329, Note_on_c, 0, 64, 0
2, 23424, Note_on_c, 0, 59, 97
2, 23424, Note_on_c, 0, 67, 97
2, 23425, Note_on_c, 0, 66, 0
2, 23425, Note_on_c, 0, 55, 0
2, 23520, Note_on_c, 0, 66, 97
2, 23521, Note_on_c, 0, 67, 0
2, 23616, Note_on_c, 0, 55, 97
2, 23616, Note_on_c, 0, 64, 97
2, 23617, Note_on_c, 0, 66, 0
2, 23617, Note_on_c, 0, 59, 0
2, 23712, Note_on_c, 0, 66, 97
2, 23713, Note_on_c, 0, 64, 0
2, 23808, Note_on_c, 0, 52, 97
2, 23808, Note_on_c, 0, 67, 97
2, 23809, Note_on_c, 0, 66, 0
2, 23809, Note_on_c, 0, 55, 0
2, 23904, Note_on_c, 0, 64, 97
2, 23905, Note_on_c, 0, 67, 0
2, 23992, Note_on_c, 0, 52, 0
2, 24000, Note_on_c, 0, 49, 97
2, 24000, Note_on_c, 0, 69, 97
2, 24001, Note_on_c, 0, 64, 0
2, 24096, Note_on_c, 0, 71, 97
2, 24097, Note_on_c, 0, 69, 0
2, 24184, Note_on_c, 0, 49, 0
2, 24192, Note_on_c, 0, 45, 97
2, 24192, Note_on_c, 0, 73, 97
2, 24193, Note_on_c, 0, 71, 0
2, 24288, Note_on_c, 0, 67, 97
2, 24289, Note_on_c, 0, 73, 0
2, 24384, Note_on_c, 0, 57, 97
2, 24384, Note_on_c, 0, 66, 97
2, 24385, Note_on_c, 0, 67, 0
2, 24385, Note_on_c, 0, 45, 0
2, 24480, Note_on_c, 0, 67, 97
2, 24481, Note_on_c, 0, 66, 0
2, 24576, Note_on_c, 0, 61, 97
2, 24576, Note_on_c, 0, 69, 97
2, 24577, Note_on_c, 0, 67, 0
2, 24577, Note_on_c, 0, 57, 0
2, 24672, Note_on_c, 0, 67, 97
2, 24673, Note_on_c, 0, 69, 0
2, 24768, Note_on_c, 0, 57, 97
2, 24768, Note_on_c, 0, 66, 97
2, 24769, Note_on_c, 0, 67, 0
2, 24769, Note_on_c, 0, 61, 0
2, 24864, Note_on_c, 0, 67, 97
2, 24865, Note_on_c, 0, 66, 0
2, 24960, Note_on_c, 0, 54, 97
2, 24960, Note_on_c, 0, 69, 97
2, 24961, Note_on_c, 0, 67, 0
2, 24961, Note_on_c, 0, 57, 0
2, 25056, Note_on_c, 0, 66, 97
2, 25057, Note_on_c, 0, 69, 0
2, 25144, Note_on_c, 0, 54, 0
2, 25152, Note_on_c, 0, 50, 97
2, 25152, Note_on_c, 0, 71, 97
2, 25153, Note_on_c, 0, 66, 0
2, 25248, Note_on_c, 0, 73, 97
2, 25249, Note_on_c, 0, 71, 0
2, 25336, Note_on_c, 0, 50, 0
2, 25344, Note_on_c, 0, 47, 97
2, 25344, Note_on_c, 0, 74, 97
2, 25345, Note_on_c, 0, 73, 0
2, 25440, Note_on_c, 0, 69, 97
2, 25441, Note_on_c, 0, 74, 0
2, 25536, Note_on_c, 0, 59, 97
2, 25536, Note_on_c, 0, 67, 97
2, 25537, Note_on_c, 0, 69, 0
2, 25537, Note_on_c, 0, 47, 0
2, 25632, Note_on_c, 0, 69, 97
2, 25633, Note_on_c, 0, 67, 0
2, 25728, Note_on_c, 0, 62, 97
2, 25728, Note_on_c, 0, 71, 97
2, 25729, Note_on_c, 0, 69, 0
2, 25729, Note_on_c, 0, 59, 0
2, 25824, Note_on_c, 0, 69, 97
2, 25825, Note_on_c, 0, 71, 0
2, 25920, Note_on_c, 0, 59, 97
2, 25920, Note_on_c, 0, 67, 97
2, 25921, Note_on_c, 0, 69, 0
2, 25921, Note_on_c, 0, 62, 0
2, 26016, Note_on_c, 0, 69, 97
2, 26017, Note_on_c, 0, 67, 0
2, 26112, Note_on_c, 0, 55, 97
2, 26112, Note_on_c, 0, 71, 97
2, 26113, Note_on_c, 0, 69, 0
2, 26113, Note_on_c, 0, 59, 0
2, 26208, Note_on_c, 0, 67, 97
2, 26209, Note_on_c, 0, 71, 0
2, 26296, Note_on_c, 0, 55, 0
2, 26304, Note_on_c, 0, 52, 97
2, 26304, Note_on_c, 0, 73, 97
2, 26305, Note_on_c, 0, 67, 0
2, 26400, Note_on_c, 0, 74, 97
2, 26401, Note_on_c, 0, 73, 0
2, 26488, Note_on_c, 0, 52, 0
2, 26496, Note_on_c, 0, 49, 97
2, 26496, Note_on_c, 0, 76, 97
2, 26497, Note_on_c, 0, 74, 0
2, 26592, Note_on_c, 0, 71, 97
2, 26593, Note_on_c, 0, 76, 0
2, 26688, Note_on_c, 0, 61, 97
2, 26688, Note_on_c, 0, 69, 97
2, 26689, Note_on_c, 0, 71, 0
2, 26689, Note_on_c, 0, 49, 0
2, 26784, Note_on_c, 0, 71, 97
2, 26785, Note_on_c, 0, 69, 0
2, 26880, Note_on_c, 0, 64, 97
2, 26880, Note_on_c, 0, 73, 97
2, 26881, Note_on_c, 0, 71, 0
2, 26881, Note_on_c, 0, 61, 0
2, 26976, Note_on_c, 0, 71, 97
2, 26977, Note_on_c, 0, 73, 0
2, 27072, Note_on_c, 0, 61, 97
2, 27072, Note_on_c, 0, 69, 97
2, 27073, Note_on_c, 0, 71, 0
2, 27073, Note_on_c, 0, 64, 0
2, 27168, Note_on_c, 0, 71, 97
2, 27169, Note_on_c, 0, 69, 0
2, 27264, Note_on_c, 0, 57, 97
2, 27264, Note_on_c, 0, 73, 97
2, 27265, Note_on_c, 0, 71, 0
2, 27265, Note_on_c, 0, 61, 0
2, 27360, Note_on_c, 0, 69, 97
2, 27361, Note_on_c, 0, 73, 0
2, 27456, Note_on_c, 0, 54, 97
2, 27456, Note_on_c, 0, 74, 97
2, 27457, Note_on_c, 0, 69, 0
2, 27457, Note_on_c, 0, 57, 0
2, 27552, Note_on_c, 0, 76, 97
2, 27553, Note_on_c, 0, 74, 0
2, 27648, Note_on_c, 0, 50, 97
2, 27648, Note_on_c, 0, 78, 97
2, 27649, Note_on_c, 0, 76, 0
2, 27649, Note_on_c, 0, 54, 0
2, 27744, Note_on_c, 0, 62, 97
2, 27744, Note_on_c, 0, 79, 97
2, 27745, Note_on_c, 0, 50, 0
2, 27745, Note_on_c, 0, 78, 0
2, 27840, Note_on_c, 0, 61, 97
2, 27840, Note_on_c, 0, 81, 97
2, 27841, Note_on_c, 0, 62, 0
2, 27841, Note_on_c, 0, 79, 0
2, 27936, Note_on_c, 0, 62, 97
2, 27937, Note_on_c, 0, 61, 0
2, 28030, Note_on_c, 0, 81, 0
2, 28032, Note_on_c, 0, 64, 97
2, 28033, Note_on_c, 0, 62, 0
2, 28128, Note_on_c, 0, 62, 97
2, 28129, Note_on_c, 0, 64, 0
2, 28224, Note_on_c, 0, 61, 97
2, 28224, Note_on_c, 0, 78, 97
2, 28225, Note_on_c, 0, 62, 0
2, 28320, Note_on_c, 0, 62, 97
2, 28321, Note_on_c, 0, 61, 0
2, 28408, Note_on_c, 0, 78, 0
2, 28416, Note_on_c, 0, 59, 97
2, 28416, Note_on_c, 0, 79, 97
2, 28417, Note_on_c, 0, 62, 0
2, 28512, Note_on_c, 0, 62, 97
2, 28513, Note_on_c, 0, 59, 0
2, 28600, Note_on_c, 0, 79, 0
2, 28608, Note_on_c, 0, 59, 97
2, 28608, Note_on_c, 0, 81, 97
2, 28609, Note_on_c, 0, 62, 0
2, 28704, Note_on_c, 0, 57, 97
2, 28705, Note_on_c, 0, 59, 0
2, 28792, Note_on_c, 0, 81, 0
2, 28800, Note_on_c, 0, 55, 97
2, 28800, Note_on_c, 0, 83, 97
2, 28801, Note_on_c, 0, 57, 0
2, 28896, Note_on_c, 0, 62, 97
2, 28896, Note_on_c, 0, 81, 97
2, 28897, Note_on_c, 0, 83, 0
2, 28930, Note_on_c, 0, 55, 0
2, 28992, Note_on_c, 0, 61, 97
2, 28992, Note_on_c, 0, 83, 97
2, 28993, Note_on_c, 0, 62, 0
2, 28993, Note_on_c, 0, 81, 0
2, 29088, Note_on_c, 0, 62, 97
2, 29089, Note_on_c, 0, 61, 0
2, 29184, Note_on_c, 0, 64, 97
2, 29184, Note_on_c, 0, 73, 97
2, 29185, Note_on_c, 0, 62, 0
2, 29185, Note_on_c, 0, 83, 0
2, 29280, Note_on_c, 0, 62, 97
2, 29281, Note_on_c, 0, 64, 0
2, 29324, Note_on_c, 0, 73, 0
2, 29376, Note_on_c, 0, 61, 97
2, 29376, Note_on_c, 0, 76, 97
2, 29377, Note_on_c, 0, 62, 0
2, 29472, Note_on_c, 0, 62, 97
2, 29473, Note_on_c, 0, 61, 0
2, 29560, Note_on_c, 0, 76, 0
2, 29568, Note_on_c, 0, 57, 97
2, 29568, Note_on_c, 0, 78, 97
2, 29569, Note_on_c, 0, 62, 0
2, 29664, Note_on_c, 0, 62, 97
2, 29665, Note_on_c, 0, 57, 0
2, 29752, Note_on_c, 0, 78, 0
2, 29760, Note_on_c, 0, 57, 97
2, 29760, Note_on_c, 0, 79, 97
2, 29761, Note_on_c, 0, 62, 0
2, 29856, Note_on_c, 0, 55, 97
2, 29857, Note_on_c, 0, 57, 0
2, 29944, Note_on_c, 0, 79, 0
2, 29952, Note_on_c, 0, 54, 97
2, 29952, Note_on_c, 0, 81, 97
2, 29953, Note_on_c, 0, 55, 0
2, 30048, Note_on_c, 0, 62, 97
2, 30048, Note_on_c, 0, 79, 97
2, 30049, Note_on_c, 0, 81, 0
2, 30072, Note_on_c, 0, 54, 0
2, 30144, Note_on_c, 0, 61, 97
2, 30144, Note_on_c, 0, 81, 97
2, 30145, Note_on_c, 0, 62, 0
2, 30145, Note_on_c, 0, 79, 0
2, 30240, Note_on_c, 0, 62, 97
2, 30241, Note_on_c, 0, 61, 0
2, 30336, Note_on_c, 0, 64, 97
2, 30336, Note_on_c, 0, 71, 97
2, 30337, Note_on_c, 0, 62, 0
2, 30337, Note_on_c, 0, 81, 0
2, 30432, Note_on_c, 0, 62, 97
2, 30433, Note_on_c, 0, 64, 0
2, 30476, Note_on_c, 0, 71, 0
2, 30528, Note_on_c, 0, 61, 97
2, 30528, Note_on_c, 0, 78, 97
2, 30529, Note_on_c, 0, 62, 0
2, 30624, Note_on_c, 0, 62, 97
2, 30625, Note_on_c, 0, 61, 0
2, 30712, Note_on_c, 0, 78, 0
2, 30720, Note_on_c, 0, 55, 97
2, 30720, Note_on_c, 0, 83, 97
2, 30721, Note_on_c, 0, 62, 0
2, 30816, Note_on_c, 0, 62, 97
2, 30817, Note_on_c, 0, 55, 0
2, 30904, Note_on_c, 0, 83, 0
2, 30912, Note_on_c, 0, 55, 97
2, 30912, Note_on_c, 0, 81, 97
2, 30913, Note_on_c, 0, 62, 0
2, 31008, Note_on_c, 0, 54, 97
2, 31009, Note_on_c, 0, 55, 0
2, 31096, Note_on_c, 0, 81, 0
2, 31104, Note_on_c, 0, 52, 97
2, 31104, Note_on_c, 0, 79, 97
2, 31105, Note_on_c, 0, 54, 0
2, 31200, Note_on_c, 0, 62, 97
2, 31200, Note_on_c, 0, 78, 97
2, 31201, Note_on_c, 0, 79, 0
2, 31224, Note_on_c, 0, 52, 0
2, 31296, Note_on_c, 0, 61, 97
2, 31296, Note_on_c, 0, 79, 97
2, 31297, Note_on_c, 0, 62, 0
2, 31297, Note_on_c, 0, 78, 0
2, 31392, Note_on_c, 0, 62, 97
2, 31393, Note_on_c, 0, 61, 0
2, 31488, Note_on_c, 0, 64, 97
2, 31488, Note_on_c, 0, 69, 97
2, 31489, Note_on_c, 0, 62, 0
2, 31489, Note_on_c, 0, 79, 0
2, 31584, Note_on_c, 0, 62, 97
2, 31585, Note_on_c, 0, 64, 0
2, 31628, Note_on_c, 0, 69, 0
2, 31680, Note_on_c, 0, 61, 97
2, 31680, Note_on_c, 0, 76, 97
2, 31681, Note_on_c, 0, 62, 0
2, 31776, Note_on_c, 0, 62, 97
2, 31777, Note_on_c, 0, 61, 0
2, 31864, Note_on_c, 0, 76, 0
2, 31872, Note_on_c, 0, 54, 97
2, 31872, Note_on_c, 0, 81, 97
2, 31873, Note_on_c, 0, 62, 0
2, 31968, Note_on_c, 0, 62, 97
2, 31969, Note_on_c, 0, 54, 0
2, 32056, Note_on_c, 0, 81, 0
2, 32064, Note_on_c, 0, 54, 97
2, 32064, Note_on_c, 0, 79, 97
2, 32065, Note_on_c, 0, 62, 0
2, 32160, Note_on_c, 0, 52, 97
2, 32161, Note_on_c, 0, 54, 0
2, 32248, Note_on_c, 0, 79, 0
2, 32256, Note_on_c, 0, 50, 97
2, 32256, Note_on_c, 0, 78, 97
2, 32257, Note_on_c, 0, 52, 0
2, 32352, Note_on_c, 0, 76, 97
2, 32353, Note_on_c, 0, 78, 0
2, 32448, Note_on_c, 0, 57, 97
2, 32448, Note_on_c, 0, 74, 97
2, 32449, Note_on_c, 0, 76, 0
2, 32449, Note_on_c, 0, 50, 0
2, 32544, Note_on_c, 0, 73, 97
2, 32545, Note_on_c, 0, 74, 0
2, 32640, Note_on_c, 0, 54, 97
2, 32640, Note_on_c, 0, 74, 97
2, 32641, Note_on_c, 0, 73, 0
2, 32641, Note_on_c, 0, 57, 0
2, 32736, Note_on_c, 0, 78, 97
2, 32737, Note_on_c, 0, 74, 0
2, 32832, Note_on_c, 0, 50, 97
2, 32832, Note_on_c, 0, 69, 97
2, 32833, Note_on_c, 0, 78, 0
2, 32833, Note_on_c, 0, 54, 0
2, 32928, Note_on_c, 0, 73, 97
2, 32929, Note_on_c, 0, 69, 0
2, 33024, Note_on_c, 0, 49, 97
2, 33024, Note_on_c, 0, 74, 97
2, 33025, Note_on_c, 0, 73, 0
2, 33025, Note_on_c, 0, 50, 0
2, 33120, Note_on_c, 0, 78, 97
2, 33121, Note_on_c, 0, 74, 0
2, 33199, Note_on_c, 0, 49, 0
2, 33216, Note_on_c, 0, 57, 97
2, 33216, Note_on_c, 0, 69, 97
2, 33217, Note_on_c, 0, 78, 0
2, 33312, Note_on_c, 0, 73, 97
2, 33313, Note_on_c, 0, 69, 0
2, 33391, Note_on_c, 0, 57, 0
2, 33408, Note_on_c, 0, 47, 97
2, 33408, Note_on_c, 0, 77, 97
2, 33409, Note_on_c, 0, 73, 0
2, 33504, Note_on_c, 0, 76, 97
2, 33505, Note_on_c, 0, 77, 0
2, 33600, Note_on_c, 0, 56, 97
2, 33600, Note_on_c, 0, 74, 97
2, 33601, Note_on_c, 0, 76, 0
2, 33601, Note_on_c, 0, 47, 0
2, 33696, Note_on_c, 0, 73, 97
2, 33697, Note_on_c, 0, 74, 0
2, 33792, Note_on_c, 0, 53, 97
2, 33792, Note_on_c, 0, 74, 97
2, 33793, Note_on_c, 0, 73, 0
2, 33793, Note_on_c, 0, 56, 0
2, 33888, Note_on_c, 0, 77, 97
2, 33889, Note_on_c, 0, 74, 0
2, 33984, Note_on_c, 0, 50, 97
2, 33984, Note_on_c, 0, 68, 97
2, 33985, Note_on_c, 0, 77, 0
2, 33985, Note_on_c, 0, 53, 0
2, 34080, Note_on_c, 0, 73, 97
2, 34081, Note_on_c, 0, 68, 0
2, 34176, Note_on_c, 0, 45, 97
2, 34176, Note_on_c, 0, 74, 97
2, 34177, Note_on_c, 0, 73, 0
2, 34177, Note_on_c, 0, 50, 0
2, 34272, Note_on_c, 0, 77, 97
2, 34273, Note_on_c, 0, 74, 0
2, 34346, Note_on_c, 0, 45, 0
2, 34368, Note_on_c, 0, 57, 97
2, 34368, Note_on_c, 0, 69, 97
2, 34369, Note_on_c, 0, 77, 0
2, 34464, Note_on_c, 0, 74, 97
2, 34465, Note_on_c, 0, 69, 0
2, 34538, Note_on_c, 0, 57, 0
2, 34560, Note_on_c, 0, 44, 97
2, 34560, Note_on_c, 0, 77, 97
2, 34561, Note_on_c, 0, 74, 0
2, 34656, Note_on_c, 0, 76, 97
2, 34657, Note_on_c, 0, 77, 0
2, 34752, Note_on_c, 0, 59, 97
2, 34752, Note_on_c, 0, 74, 97
2, 34753, Note_on_c, 0, 76, 0
2, 34753, Note_on_c, 0, 44, 0
2, 34848, Note_on_c, 0, 73, 97
2, 34849, Note_on_c, 0, 74, 0
2, 34944, Note_on_c, 0, 53, 97
2, 34944, Note_on_c, 0, 74, 97
2, 34945, Note_on_c, 0, 73, 0
2, 34945, Note_on_c, 0, 59, 0
2, 35040, Note_on_c, 0, 77, 97
2, 35041, Note_on_c, 0, 74, 0
2, 35136, Note_on_c, 0, 50, 97
2, 35136, Note_on_c, 0, 68, 97
2, 35137, Note_on_c, 0, 77, 0
2, 35137, Note_on_c, 0, 53, 0
2, 35232, Note_on_c, 0, 73, 97
2, 35233, Note_on_c, 0, 68, 0
2, 35328, Note_on_c, 0, 44, 97
2, 35328, Note_on_c, 0, 74, 97
2, 35329, Note_on_c, 0, 73, 0
2, 35329, Note_on_c, 0, 50, 0
2, 35424, Note_on_c, 0, 77, 97
2, 35425, Note_on_c, 0, 74, 0
2, 35493, Note_on_c, 0, 44, 0
2, 35520, Note_on_c, 0, 59, 97
2, 35520, Note_on_c, 0, 76, 97
2, 35521, Note_on_c, 0, 77, 0
2, 35616, Note_on_c, 0, 74, 97
2, 35617, Note_on_c, 0, 76, 0
2, 35685, Note_on_c, 0, 59, 0
2, 35712, Note_on_c, 0, 57, 97
2, 35712, Note_on_c, 0, 73, 97
2, 35713, Note_on_c, 0, 74, 0
2, 35808, Note_on_c, 0, 45, 97
2, 35809, Note_on_c, 0, 57, 0
2, 35904, Note_on_c, 0, 49, 97
2, 35905, Note_on_c, 0, 45, 0
2, 35992, Note_on_c, 0, 73, 0
2, 36000, Note_on_c, 0, 52, 97
2, 36001, Note_on_c, 0, 49, 0
2, 36096, Note_on_c, 0, 57, 97
2, 36097, Note_on_c, 0, 52, 0
2, 36192, Note_on_c, 0, 61, 97
2, 36193, Note_on_c, 0, 57, 0
2, 36288, Note_on_c, 0, 64, 97
2, 36289, Note_on_c, 0, 61, 0
2, 36384, Note_on_c, 0, 67, 97
2, 36385, Note_on_c, 0, 64, 0
2, 36480, Note_on_c, 0, 73, 97
2, 36481, Note_on_c, 0, 67, 0
2, 36576, Note_on_c, 0, 67, 97
2, 36670, Note_on_c, 0, 73, 0
2, 36672, Note_on_c, 0, 66, 97
2, 36673, Note_on_c, 0, 67, 0
2, 36768, Note_on_c, 0, 64, 97
2, 36769, Note_on_c, 0, 66, 0
2, 36864, Note_on_c, 0, 66, 97
2, 36864, Note_on_c, 0, 74, 97
2, 36864, Note_on_c, 0, 69, 97
2, 36865, Note_on_c, 0, 64, 0
2, 36960, Note_on_c, 0, 45, 97
2, 37056, Note_on_c, 0, 50, 97
2, 37057, Note_on_c, 0, 45, 0
2, 37144, Note_on_c, 0, 66, 0
2, 37144, Note_on_c, 0, 69, 0
2, 37144, Note_on_c, 0, 74, 0
2, 37152, Note_on_c, 0, 54, 97
2, 37153, Note_on_c, 0, 50, 0
2, 37248, Note_on_c, 0, 57, 97
2, 37249, Note_on_c, 0, 54, 0
2, 37344, Note_on_c, 0, 62, 97
2, 37345, Note_on_c, 0, 57, 0
2, 37440, Note_on_c, 0, 66, 97
2, 37441, Note_on_c, 0, 62, 0
2, 37536, Note_on_c, 0, 69, 97
2, 37537, Note_on_c, 0, 66, 0
2, 37632, Note_on_c, 0, 74, 97
2, 37633, Note_on_c, 0, 69, 0
2, 37728, Note_on_c, 0, 69, 97
2, 37822, Note_on_c, 0, 74, 0
2, 37824, Note_on_c, 0, 67, 97
2, 37825, Note_on_c, 0, 69, 0
2, 37920, Note_on_c, 0, 66, 97
2, 37921, Note_on_c, 0, 67, 0
2, 38016, Note_on_c, 0, 76, 97
2, 38016, Note_on_c, 0, 73, 97
2, 38016, Note_on_c, 0, 67, 97
2, 38017, Note_on_c, 0, 66, 0
2, 38112, Note_on_c, 0, 45, 97
2, 38208, Note_on_c, 0, 52, 97
2, 38209, Note_on_c, 0, 45, 0
2, 38296, Note_on_c, 0, 76, 0
2, 38296, Note_on_c, 0, 67, 0
2, 38296, Note_on_c, 0, 73, 0
2, 38304, Note_on_c, 0, 57, 97
2, 38305, Note_on_c, 0, 52, 0
2, 38400, Note_on_c, 0, 61, 97
2, 38401, Note_on_c, 0, 57, 0
2, 38496, Note_on_c, 0, 64, 97
2, 38497, Note_on_c, 0, 61, 0
2, 38592, Note_on_c, 0, 67, 97
2, 38593, Note_on_c, 0, 64, 0
2, 38688, Note_on_c, 0, 73, 97
2, 38689, Note_on_c, 0, 67, 0
2, 38784, Note_on_c, 0, 76, 97
2, 38785, Note_on_c, 0, 73, 0
2, 38880, Note_on_c, 0, 73, 97
2, 38974, Note_on_c, 0, 76, 0
2, 38976, Note_on_c, 0, 71, 97
2, 38977, Note_on_c, 0, 73, 0
2, 39072, Note_on_c, 0, 69, 97
2, 39073, Note_on_c, 0, 71, 0
2, 39168, Note_on_c, 0, 77, 97
2, 39168, Note_on_c, 0, 74, 97
2, 39168, Note_on_c, 0, 69, 97
2, 39169, Note_on_c, 0, 69, 0
2, 39264, Note_on_c, 0, 45, 97
2, 39360, Note_on_c, 0, 50, 97
2, 39361, Note_on_c, 0, 45, 0
2, 39448, Note_on_c, 0, 77, 0
2, 39448, Note_on_c, 0, 69, 0
2, 39448, Note_on_c, 0, 74, 0
2, 39456, Note_on_c, 0, 57, 97
2, 39457, Note_on_c, 0, 50, 0
2, 39552, Note_on_c, 0, 62, 97
2, 39553, Note_on_c, 0, 57, 0
2, 39648, Note_on_c, 0, 65, 97
2, 39649, Note_on_c, 0, 62, 0
2, 39744, Note_on_c, 0, 69, 97
2, 39745, Note_on_c, 0, 65, 0
2, 39840, Note_on_c, 0, 74, 97
2, 39841, Note_on_c, 0, 69, 0
2, 39936, Note_on_c, 0, 77, 97
2, 39937, Note_on_c, 0, 74, 0
2, 40032, Note_on_c, 0, 74, 97
2, 40126, Note_on_c, 0, 77, 0
2, 40128, Note_on_c, 0, 72, 97
2, 40129, Note_on_c, 0, 74, 0
2, 40224, Note_on_c, 0, 71, 97
2, 40225, Note_on_c, 0, 72, 0
2, 40320, Note_on_c, 0, 80, 97
2, 40320, Note_on_c, 0, 74, 97
2, 40320, Note_on_c, 0, 71, 97
2, 40321, Note_on_c, 0, 71, 0
2, 40416, Note_on_c, 0, 45, 97
2, 40512, Note_on_c, 0, 47, 97
2, 40513, Note_on_c, 0, 45, 0
2, 40600, Note_on_c, 0, 80, 0
2, 40600, Note_on_c, 0, 71, 0
2, 40600, Note_on_c, 0, 74, 0
2, 40608, Note_on_c, 0, 50, 97
2, 40609, Note_on_c, 0, 47, 0
2, 40704, Note_on_c, 0, 56, 97
2, 40705, Note_on_c, 0, 50, 0
2, 40800, Note_on_c, 0, 59, 97
2, 40801, Note_on_c, 0, 56, 0
2, 40896, Note_on_c, 0, 62, 97
2, 40897, Note_on_c, 0, 59, 0
2, 40992, Note_on_c, 0, 68, 97
2, 40993, Note_on_c, 0, 62, 0
2, 41088, Note_on_c, 0, 71, 97
2, 41089, Note_on_c, 0, 68, 0
2, 41184, Note_on_c, 0, 74, 97
2, 41185, Note_on_c, 0, 71, 0
2, 41280, Note_on_c, 0, 77, 97
2, 41281, Note_on_c, 0, 74, 0
2, 41376, Note_on_c, 0, 80, 97
2, 41377, Note_on_c, 0, 77, 0
2, 41472, Note_on_c, 0, 33, 97
2, 41472, Note_on_c, 0, 76, 97
2, 41472, Note_on_c, 0, 73, 97
2, 41472, Note_on_c, 0, 81, 97
2, 41473, Note_on_c, 0, 80, 0
2, 41668, Note_on_c, 0, 69, 97
2, 41712, Note_on_c, 0, 73, 0
2, 41712, Note_on_c, 0, 81, 0
2, 41712, Note_on_c, 0, 33, 0
2, 41712, Note_on_c, 0, 76, 0
2, 41763, Note_on_c, 0, 71, 97
2, 41765, Note_on_c, 0, 69, 0
2, 41858, Note_on_c, 0, 73, 97
2, 41860, Note_on_c, 0, 71, 0
2, 41953, Note_on_c, 0, 74, 97
2, 41955, Note_on_c, 0, 73, 0
2, 42048, Note_on_c, 0, 76, 97
2, 42050, Note_on_c, 0, 74, 0
2, 42240, Note_on_c, 0, 61, 97
2, 42240, Note_on_c, 0, 57, 97
2, 42400, Note_on_c, 0, 57, 0
2, 42400, Note_on_c, 0, 61, 0
2, 42408, Note_on_c, 0, 76, 0
2, 42432, Note_on_c, 0, 67, 97
2, 42622, Note_on_c, 0, 67, 0
2, 42624, Note_on_c, 0, 58, 97
2, 42624, Note_on_c, 0, 61, 97
2, 42816, Note_on_c, 0, 66, 97
2, 42904, Note_on_c, 0, 61, 0
2, 42904, Note_on_c, 0, 58, 0
2, 42912, Note_on_c, 0, 68, 97
2, 42913, Note_on_c, 0, 66, 0
2, 43008, Note_on_c, 0, 70, 97
2, 43009, Note_on_c, 0, 68, 0
2, 43104, Note_on_c, 0, 71, 97
2, 43105, Note_on_c, 0, 70, 0
2, 43200, Note_on_c, 0, 73, 97
2, 43201, Note_on_c, 0, 71, 0
2, 43296, Note_on_c, 0, 74, 97
2, 43297, Note_on_c, 0, 73, 0
2, 43392, Note_on_c, 0, 58, 97
2, 43392, Note_on_c, 0, 54, 97
2, 43392, Note_on_c, 0, 76, 97
2, 43393, Note_on_c, 0, 74, 0
2, 43488, Note_on_c, 0, 74, 97
2, 43489, Note_on_c, 0, 76, 0
2, 43552, Note_on_c, 0, 58, 0
2, 43552, Note_on_c, 0, 54, 0
2, 43584, Note_on_c, 0, 73, 97
2, 43585, Note_on_c, 0, 74, 0
2, 43680, Note_on_c, 0, 76, 97
2, 43681, Note_on_c, 0, 73, 0
2, 43776, Note_on_c, 0, 59, 97
2, 43776, Note_on_c, 0, 74, 97
2, 43777, Note_on_c, 0, 76, 0
2, 43872, Note_on_c, 0, 61, 97
2, 43873, Note_on_c, 0, 59, 0
2, 43968, Note_on_c, 0, 62, 97
2, 43969, Note_on_c, 0, 61, 0
2, 43969, Note_on_c, 0, 74, 0
2, 44064, Note_on_c, 0, 64, 97
2, 44065, Note_on_c, 0, 62, 0
2, 44160, Note_on_c, 0, 66, 97
2, 44161, Note_on_c, 0, 64, 0
2, 44256, Note_on_c, 0, 67, 97
2, 44257, Note_on_c, 0, 66, 0
2, 44352, Note_on_c, 0, 69, 97
2, 44353, Note_on_c, 0, 67, 0
2, 44544, Note_on_c, 0, 52, 97
2, 44544, Note_on_c, 0, 78, 97
2, 44712, Note_on_c, 0, 69, 0
2, 44734, Note_on_c, 0, 78, 0
2, 44736, Note_on_c, 0, 60, 97
2, 44737, Note_on_c, 0, 52, 0
2, 44928, Note_on_c, 0, 51, 97
2, 44928, Note_on_c, 0, 81, 97
2, 45116, Note_on_c, 0, 60, 0
2, 45120, Note_on_c, 0, 59, 97
2, 45121, Note_on_c, 0, 51, 0
2, 45216, Note_on_c, 0, 61, 97
2, 45217, Note_on_c, 0, 59, 0
2, 45312, Note_on_c, 0, 63, 97
2, 45313, Note_on_c, 0, 61, 0
2, 45313, Note_on_c, 0, 81, 0
2, 45408, Note_on_c, 0, 64, 97
2, 45409, Note_on_c, 0, 63, 0
2, 45504, Note_on_c, 0, 66, 97
2, 45505, Note_on_c, 0, 64, 0
2, 45600, Note_on_c, 0, 67, 97
2, 45601, Note_on_c, 0, 66, 0
2, 45696, Note_on_c, 0, 59, 97
2, 45696, Note_on_c, 0, 69, 97
2, 45696, Note_on_c, 0, 75, 97
2, 45697, Note_on_c, 0, 67, 0
2, 45792, Note_on_c, 0, 67, 97
2, 45793, Note_on_c, 0, 69, 0
2, 45856, Note_on_c, 0, 59, 0
2, 45886, Note_on_c, 0, 75, 0
2, 45888, Note_on_c, 0, 66, 97
2, 45889, Note_on_c, 0, 67, 0
2, 45984, Note_on_c, 0, 69, 97
2, 45985, Note_on_c, 0, 66, 0
2, 46080, Note_on_c, 0, 67, 97
2, 46080, Note_on_c, 0, 64, 97
2, 46080, Note_on_c, 0, 76, 97
2, 46080, Note_on_c, 0, 83, 97
2, 46081, Note_on_c, 0, 69, 0
2, 46176, Note_on_c, 0, 81, 97
2, 46177, Note_on_c, 0, 83, 0
2, 46272, Note_on_c, 0, 79, 97
2, 46273, Note_on_c, 0, 81, 0
2, 46360, Note_on_c, 0, 76, 0
2, 46360, Note_on_c, 0, 67, 0
2, 46360, Note_on_c, 0, 64, 0
2, 46368, Note_on_c, 0, 78, 97
2, 46369, Note_on_c, 0, 79, 0
2, 46464, Note_on_c, 0, 76, 97
2, 46465, Note_on_c, 0, 78, 0
2, 46654, Note_on_c, 0, 76, 0
2, 46848, Note_on_c, 0, 64, 97
2, 46848, Note_on_c, 0, 71, 97
2, 46848, Note_on_c, 0, 67, 97
2, 46938, Note_on_c, 0, 67, 0
2, 46938, Note_on_c, 0, 71, 0
2, 46938, Note_on_c, 0, 64, 0
2, 47232, Note_on_c, 0, 72, 97
2, 47232, Note_on_c, 0, 69, 97
2, 47232, Note_on_c, 0, 63, 97
2, 47322, Note_on_c, 0, 63, 0
2, 47322, Note_on_c, 0, 69, 0
2, 47322, Note_on_c, 0, 72, 0
2, 47616, Note_on_c, 0, 64, 97
2, 47616, Note_on_c, 0, 71, 97
2, 47616, Note_on_c, 0, 67, 97
2, 47806, Note_on_c, 0, 67, 0
2, 47806, Note_on_c, 0, 71, 0
2, 47806, Note_on_c, 0, 64, 0
2, 48384, Note_on_c, 0, 83, 97
2, 48480, Note_on_c, 0, 81, 97
2, 48481, Note_on_c, 0, 83, 0
2, 48576, Note_on_c, 0, 79, 97
2, 48577, Note_on_c, 0, 81, 0
2, 48672, Note_on_c, 0, 78, 97
2, 48673, Note_on_c, 0, 79, 0
2, 48768, Note_on_c, 0, 76, 97
2, 48769, Note_on_c, 0, 78, 0
2, 48864, Note_on_c, 0, 74, 97
2, 48865, Note_on_c, 0, 76, 0
2, 48960, Note_on_c, 0, 72, 97
2, 48961, Note_on_c, 0, 74, 0
2, 49056, Note_on_c, 0, 71, 97
2, 49057, Note_on_c, 0, 72, 0
2, 49152, Note_on_c, 0, 69, 97
2, 49153, Note_on_c, 0, 71, 0
2, 49248, Note_on_c, 0, 67, 97
2, 49249, Note_on_c, 0, 69, 0
2, 49344, Note_on_c, 0, 66, 97
2, 49345, Note_on_c, 0, 67, 0
2, 49440, Note_on_c, 0, 64, 97
2, 49441, Note_on_c, 0, 66, 0
2, 49536, Note_on_c, 0, 52, 97
2, 49536, Note_on_c, 0, 59, 97
2, 49536, Note_on_c, 0, 69, 97
2, 49536, Note_on_c, 0, 66, 97
2, 49536, Note_on_c, 0, 63, 97
2, 49537, Note_on_c, 0, 64, 0
2, 49626, Note_on_c, 0, 59, 0
2, 49626, Note_on_c, 0, 69, 0
2, 49626, Note_on_c, 0, 52, 0
2, 49626, Note_on_c, 0, 63, 0
2, 49626, Note_on_c, 0, 66, 0
2, 49920, Note_on_c, 0, 40, 97
2, 49920, Note_on_c, 0, 52, 97
2, 49920, Note_on_c, 0, 64, 97
2, 49920, Note_on_c, 0, 59, 97
2, 49920, Note_on_c, 0, 67, 97
2, 50110, Note_on_c, 0, 67, 0
2, 50110, Note_on_c, 0, 64, 0
2, 50110, Note_on_c, 0, 40, 0
2, 50110, Note_on_c, 0, 52, 0
2, 50110, Note_on_c, 0, 59, 0
2, 50688, Note_on_c, 0, 52, 97
2, 50784, Note_on_c, 0, 55, 97
2, 50878, Note_on_c, 0, 52, 0
2, 50880, Note_on_c, 0, 57, 97
2, 50881, Note_on_c, 0, 55, 0
2, 50976, Note_on_c, 0, 59, 97
2, 50977, Note_on_c, 0, 57, 0
2, 51072, Note_on_c, 0, 60, 97
2, 51073, Note_on_c, 0, 59, 0
2, 51168, Note_on_c, 0, 62, 97
2, 51169, Note_on_c, 0, 60, 0
2, 51264, Note_on_c, 0, 64, 97
2, 51265, Note_on_c, 0, 62, 0
2, 51360, Note_on_c, 0, 66, 97
2, 51361, Note_on_c, 0, 64, 0
2, 51456, Note_on_c, 0, 67, 97
2, 51457, Note_on_c, 0, 66, 0
2, 51552, Note_on_c, 0, 69, 97
2, 51553, Note_on_c, 0, 67, 0
2, 51648, Note_on_c, 0, 71, 97
2, 51649, Note_on_c, 0, 69, 0
2, 51728, Note_on_c, 0, 71, 0
2, 51744, Note_on_c, 0, 72, 97
2, 51824, Note_on_c, 0, 72, 0
2, 51840, Note_on_c, 0, 54, 97
2, 51936, Note_on_c, 0, 57, 97
2, 52030, Note_on_c, 0, 54, 0
2, 52032, Note_on_c, 0, 59, 97
2, 52033, Note_on_c, 0, 57, 0
2, 52128, Note_on_c, 0, 60, 97
2, 52129, Note_on_c, 0, 59, 0
2, 52224, Note_on_c, 0, 62, 97
2, 52225, Note_on_c, 0, 60, 0
2, 52320, Note_on_c, 0, 64, 97
2, 52321, Note_on_c, 0, 62, 0
2, 52416, Note_on_c, 0, 66, 97
2, 52417, Note_on_c, 0, 64, 0
2, 52512, Note_on_c, 0, 67, 97
2, 52513, Note_on_c, 0, 66, 0
2, 52608, Note_on_c, 0, 69, 97
2, 52609, Note_on_c, 0, 67, 0
2, 52704, Note_on_c, 0, 71, 97
2, 52705, Note_on_c, 0, 69, 0
2, 52800, Note_on_c, 0, 72, 97
2, 52801, Note_on_c, 0, 71, 0
2, 52880, Note_on_c, 0, 72, 0
2, 52896, Note_on_c, 0, 74, 97
2, 52976, Note_on_c, 0, 74, 0
2, 52992, Note_on_c, 0, 55, 97
2, 53088, Note_on_c, 0, 59, 97
2, 53182, Note_on_c, 0, 55, 0
2, 53184, Note_on_c, 0, 60, 97
2, 53185, Note_on_c, 0, 59, 0
2, 53280, Note_on_c, 0, 62, 97
2, 53281, Note_on_c, 0, 60, 0
2, 53376, Note_on_c, 0, 64, 97
2, 53377, Note_on_c, 0, 62, 0
2, 53472, Note_on_c, 0, 66, 97
2, 53473, Note_on_c, 0, 64, 0
2, 53568, Note_on_c, 0, 67, 97
2, 53569, Note_on_c, 0, 66, 0
2, 53664, Note_on_c, 0, 69, 97
2, 53665, Note_on_c, 0, 67, 0
2, 53760, Note_on_c, 0, 71, 97
2, 53761, Note_on_c, 0, 69, 0
2, 53856, Note_on_c, 0, 72, 97
2, 53857, Note_on_c, 0, 71, 0
2, 53952, Note_on_c, 0, 74, 97
2, 53953, Note_on_c, 0, 72, 0
2, 54032, Note_on_c, 0, 74, 0
2, 54048, Note_on_c, 0, 76, 97
2, 54128, Note_on_c, 0, 76, 0
2, 54144, Note_on_c, 0, 57, 97
2, 54240, Note_on_c, 0, 60, 97
2, 54334, Note_on_c, 0, 57, 0
2, 54336, Note_on_c, 0, 62, 97
2, 54337, Note_on_c, 0, 60, 0
2, 54432, Note_on_c, 0, 64, 97
2, 54433, Note_on_c, 0, 62, 0
2, 54528, Note_on_c, 0, 65, 97
2, 54529, Note_on_c, 0, 64, 0
2, 54624, Note_on_c, 0, 67, 97
2, 54625, Note_on_c, 0, 65, 0
2, 54720, Note_on_c, 0, 69, 97
2, 54721, Note_on_c, 0, 67, 0
2, 54816, Note_on_c, 0, 71, 97
2, 54817, Note_on_c, 0, 69, 0
2, 54912, Note_on_c, 0, 72, 97
2, 54913, Note_on_c, 0, 71, 0
2, 55008, Note_on_c, 0, 74, 97
2, 55009, Note_on_c, 0, 72, 0
2, 55104, Note_on_c, 0, 76, 97
2, 55105, Note_on_c, 0, 74, 0
2, 55192, Note_on_c, 0, 76, 0
2, 55200, Note_on_c, 0, 77, 97
2, 55288, Note_on_c, 0, 77, 0
2, 55296, Note_on_c, 0, 75, 97
2, 55392, Note_on_c, 0, 81, 97
2, 55486, Note_on_c, 0, 75, 0
2, 55488, Note_on_c, 0, 47, 97
2, 55488, Note_on_c, 0, 78, 97
2, 55489, Note_on_c, 0, 81, 0
2, 55584, Note_on_c, 0, 49, 97
2, 55584, Note_on_c, 0, 75, 97
2, 55585, Note_on_c, 0, 78, 0
2, 55585, Note_on_c, 0, 47, 0
2, 55680, Note_on_c, 0, 51, 97
2, 55680, Note_on_c, 0, 71, 97
2, 55681, Note_on_c, 0, 49, 0
2, 55681, Note_on_c, 0, 75, 0
2, 55776, Note_on_c, 0, 52, 97
2, 55777, Note_on_c, 0, 51, 0
2, 55872, Note_on_c, 0, 54, 97
2, 55873, Note_on_c, 0, 52, 0
2, 55968, Note_on_c, 0, 55, 97
2, 55969, Note_on_c, 0, 54, 0
2, 56060, Note_on_c, 0, 71, 0
2, 56064, Note_on_c, 0, 57, 97
2, 56065, Note_on_c, 0, 55, 0
2, 56160, Note_on_c, 0, 55, 97
2, 56161, Note_on_c, 0, 57, 0
2, 56256, Note_on_c, 0, 54, 97
2, 56257, Note_on_c, 0, 55, 0
2, 56352, Note_on_c, 0, 57, 97
2, 56353, Note_on_c, 0, 54, 0
2, 56448, Note_on_c, 0, 55, 97
2, 56449, Note_on_c, 0, 57, 0
2, 56544, Note_on_c, 0, 57, 97
2, 56640, Note_on_c, 0, 59, 97
2, 56641, Note_on_c, 0, 57, 0
2, 56736, Note_on_c, 0, 61, 97
2, 56737, Note_on_c, 0, 59, 0
2, 56828, Note_on_c, 0, 55, 0
2, 56832, Note_on_c, 0, 63, 97
2, 56833, Note_on_c, 0, 61, 0
2, 56928, Note_on_c, 0, 54, 97
2, 56928, Note_on_c, 0, 64, 97
2, 56929, Note_on_c, 0, 63, 0
2, 57024, Note_on_c, 0, 52, 97
2, 57024, Note_on_c, 0, 66, 97
2, 57025, Note_on_c, 0, 64, 0
2, 57025, Note_on_c, 0, 54, 0
2, 57120, Note_on_c, 0, 50, 97
2, 57120, Note_on_c, 0, 67, 97
2, 57121, Note_on_c, 0, 52, 0
2, 57121, Note_on_c, 0, 66, 0
2, 57216, Note_on_c, 0, 49, 97
2, 57216, Note_on_c, 0, 69, 97
2, 57217, Note_on_c, 0, 50, 0
2, 57217, Note_on_c, 0, 67, 0
2, 57312, Note_on_c, 0, 52, 97
2, 57312, Note_on_c, 0, 67, 97
2, 57313, Note_on_c, 0, 49, 0
2, 57313, Note_on_c, 0, 69, 0
2, 57402, Note_on_c, 0, 67, 0
2, 57408, Note_on_c, 0, 51, 97
2, 57408, Note_on_c, 0, 66, 97
2, 57409, Note_on_c, 0, 52, 0
2, 57498, Note_on_c, 0, 66, 0
2, 57504, Note_on_c, 0, 54, 97
2, 57504, Note_on_c, 0, 69, 97
2, 57505, Note_on_c, 0, 51, 0
2, 57594, Note_on_c, 0, 69, 0
2, 57600, Note_on_c, 0, 52, 97
2, 57600, Note_on_c, 0, 67, 97
2, 57601, Note_on_c, 0, 54, 0
2, 57696, Note_on_c, 0, 66, 97
2, 57697, Note_on_c, 0, 67, 0
2, 57792, Note_on_c, 0, 67, 97
2, 57793, Note_on_c, 0, 66, 0
2, 57888, Note_on_c, 0, 69, 97
2, 57889, Note_on_c, 0, 67, 0
2, 57984, Note_on_c, 0, 71, 97
2, 57985, Note_on_c, 0, 69, 0
2, 58030, Note_on_c, 0, 52, 0
2, 58080, Note_on_c, 0, 50, 97
2, 58080, Note_on_c, 0, 72, 97
2, 58081, Note_on_c, 0, 71, 0
2, 58176, Note_on_c, 0, 48, 97
2, 58176, Note_on_c, 0, 74, 97
2, 58177, Note_on_c, 0, 72, 0
2, 58177, Note_on_c, 0, 50, 0
2, 58272, Note_on_c, 0, 47, 97
2, 58272, Note_on_c, 0, 76, 97
2, 58273, Note_on_c, 0, 48, 0
2, 58273, Note_on_c, 0, 74, 0
2, 58368, Note_on_c, 0, 45, 97
2, 58368, Note_on_c, 0, 77, 97
2, 58369, Note_on_c, 0, 47, 0
2, 58369, Note_on_c, 0, 76, 0
2, 58464, Note_on_c, 0, 48, 97
2, 58464, Note_on_c, 0, 76, 97
2, 58465, Note_on_c, 0, 45, 0
2, 58465, Note_on_c, 0, 77, 0
2, 58554, Note_on_c, 0, 76, 0
2, 58560, Note_on_c, 0, 47, 97
2, 58560, Note_on_c, 0, 74, 97
2, 58561, Note_on_c, 0, 48, 0
2, 58650, Note_on_c, 0, 74, 0
2, 58656, Note_on_c, 0, 50, 97
2, 58656, Note_on_c, 0, 77, 97
2, 58657, Note_on_c, 0, 47, 0
2, 58746, Note_on_c, 0, 77, 0
2, 58752, Note_on_c, 0, 48, 97
2, 58752, Note_on_c, 0, 76, 97
2, 58753, Note_on_c, 0, 50, 0
2, 58848, Note_on_c, 0, 74, 97
2, 58849, Note_on_c, 0, 76, 0
2, 58944, Note_on_c, 0, 76, 97
2, 58945, Note_on_c, 0, 74, 0
2, 59040, Note_on_c, 0, 78, 97
2, 59041, Note_on_c, 0, 76, 0
2, 59136, Note_on_c, 0, 80, 97
2, 59137, Note_on_c, 0, 78, 0
2, 59192, Note_on_c, 0, 48, 0
2, 59232, Note_on_c, 0, 47, 97
2, 59232, Note_on_c, 0, 81, 97
2, 59233, Note_on_c, 0, 80, 0
2, 59328, Note_on_c, 0, 45, 97
2, 59328, Note_on_c, 0, 83, 97
2, 59329, Note_on_c, 0, 81, 0
2, 59329, Note_on_c, 0, 47, 0
2, 59424, Note_on_c, 0, 43, 97
2, 59424, Note_on_c, 0, 84, 97
2, 59425, Note_on_c, 0, 45, 0
2, 59425, Note_on_c, 0, 83, 0
2, 59520, Note_on_c, 0, 42, 97
2, 59520, Note_on_c, 0, 86, 97
2, 59521, Note_on_c, 0, 43, 0
2, 59521, Note_on_c, 0, 84, 0
2, 59616, Note_on_c, 0, 45, 97
2, 59616, Note_on_c, 0, 84, 97
2, 59617, Note_on_c, 0, 42, 0
2, 59617, Note_on_c, 0, 86, 0
2, 59706, Note_on_c, 0, 84, 0
2, 59712, Note_on_c, 0, 44, 97
2, 59712, Note_on_c, 0, 83, 97
2, 59713, Note_on_c, 0, 45, 0
2, 59802, Note_on_c, 0, 83, 0
2, 59808, Note_on_c, 0, 47, 97
2, 59808, Note_on_c, 0, 86, 97
2, 59809, Note_on_c, 0, 44, 0
2, 59898, Note_on_c, 0, 86, 0
2, 59904, Note_on_c, 0, 45, 97
2, 59904, Note_on_c, 0, 84, 97
2, 59905, Note_on_c, 0, 47, 0
2, 60000, Note_on_c, 0, 83, 97
2, 60001, Note_on_c, 0, 84, 0
2, 60096, Note_on_c, 0, 81, 97
2, 60097, Note_on_c, 0, 83, 0
2, 60124, Note_on_c, 0, 45, 0
2, 60192, Note_on_c, 0, 80, 97
2, 60193, Note_on_c, 0, 81, 0
2, 60288, Note_on_c, 0, 57, 97
2, 60288, Note_on_c, 0, 81, 97
2, 60289, Note_on_c, 0, 80, 0
2, 60384, Note_on_c, 0, 79, 97
2, 60385, Note_on_c, 0, 81, 0
2, 60480, Note_on_c, 0, 77, 97
2, 60481, Note_on_c, 0, 79, 0
2, 60508, Note_on_c, 0, 57, 0
2, 60576, Note_on_c, 0, 76, 97
2, 60577, Note_on_c, 0, 77, 0
2, 60672, Note_on_c, 0, 74, 97
2, 60673, Note_on_c, 0, 76, 0
2, 60768, Note_on_c, 0, 72, 97
2, 60769, Note_on_c, 0, 74, 0
2, 60864, Note_on_c, 0, 71, 97
2, 60865, Note_on_c, 0, 72, 0
2, 60960, Note_on_c, 0, 69, 97
2, 60961, Note_on_c, 0, 71, 0
2, 61056, Note_on_c, 0, 68, 97
2, 61057, Note_on_c, 0, 69, 0
2, 61152, Note_on_c, 0, 74, 97
2, 61248, Note_on_c, 0, 72, 97
2, 61249, Note_on_c, 0, 74, 0
2, 61286, Note_on_c, 0, 68, 0
2, 61344, Note_on_c, 0, 71, 97
2, 61345, Note_on_c, 0, 72, 0
2, 61440, Note_on_c, 0, 69, 97
2, 61440, Note_on_c, 0, 72, 97
2, 61441, Note_on_c, 0, 71, 0
2, 61536, Note_on_c, 0, 71, 97
2, 61537, Note_on_c, 0, 72, 0
2, 61629, Note_on_c, 0, 69, 0
2, 61632, Note_on_c, 0, 69, 97
2, 61633, Note_on_c, 0, 71, 0
2, 61728, Note_on_c, 0, 67, 97
2, 61729, Note_on_c, 0, 69, 0
2, 61824, Note_on_c, 0, 65, 97
2, 61825, Note_on_c, 0, 67, 0
2, 61920, Note_on_c, 0, 64, 97
2, 61921, Note_on_c, 0, 65, 0
2, 62016, Note_on_c, 0, 62, 97
2, 62017, Note_on_c, 0, 64, 0
2, 62112, Note_on_c, 0, 60, 97
2, 62113, Note_on_c, 0, 62, 0
2, 62202, Note_on_c, 0, 60, 0
2, 62208, Note_on_c, 0, 59, 97
2, 62304, Note_on_c, 0, 65, 97
2, 62400, Note_on_c, 0, 64, 97
2, 62401, Note_on_c, 0, 65, 0
2, 62438, Note_on_c, 0, 59, 0
2, 62496, Note_on_c, 0, 62, 97
2, 62497, Note_on_c, 0, 64, 0
2, 62592, Note_on_c, 0, 56, 97
2, 62592, Note_on_c, 0, 64, 97
2, 62593, Note_on_c, 0, 62, 0
2, 62688, Note_on_c, 0, 62, 97
2, 62689, Note_on_c, 0, 64, 0
2, 62784, Note_on_c, 0, 60, 97
2, 62785, Note_on_c, 0, 62, 0
2, 62812, Note_on_c, 0, 56, 0
2, 62880, Note_on_c, 0, 59, 97
2, 62881, Note_on_c, 0, 60, 0
2, 62976, Note_on_c, 0, 57, 97
2, 62977, Note_on_c, 0, 59, 0
2, 63072, Note_on_c, 0, 56, 97
2, 63073, Note_on_c, 0, 57, 0
2, 63168, Note_on_c, 0, 54, 97
2, 63169, Note_on_c, 0, 56, 0
2, 63264, Note_on_c, 0, 52, 97
2, 63265, Note_on_c, 0, 54, 0
2, 63354, Note_on_c, 0, 52, 0
2, 63360, Note_on_c, 0, 50, 97
2, 63456, Note_on_c, 0, 59, 97
2, 63552, Note_on_c, 0, 57, 97
2, 63553, Note_on_c, 0, 59, 0
2, 63590, Note_on_c, 0, 50, 0
2, 63648, Note_on_c, 0, 56, 97
2, 63649, Note_on_c, 0, 57, 0
2, 63744, Note_on_c, 0, 48, 97
2, 63744, Note_on_c, 0, 57, 97
2, 63745, Note_on_c, 0, 56, 0
2, 63840, Note_on_c, 0, 53, 97
2, 63841, Note_on_c, 0, 57, 0
2, 63936, Note_on_c, 0, 52, 97
2, 63937, Note_on_c, 0, 53, 0
2, 63964, Note_on_c, 0, 48, 0
2, 64032, Note_on_c, 0, 50, 97
2, 64033, Note_on_c, 0, 52, 0
2, 64128, Note_on_c, 0, 48, 97
2, 64129, Note_on_c, 0, 50, 0
2, 64224, Note_on_c, 0, 47, 97
2, 64225, Note_on_c, 0, 48, 0
2, 64320, Note_on_c, 0, 45, 97
2, 64321, Note_on_c, 0, 47, 0
2, 64416, Note_on_c, 0, 44, 97
2, 64417, Note_on_c, 0, 45, 0
2, 64512, Note_on_c, 0, 45, 97
2, 64513, Note_on_c, 0, 44, 0
2, 64608, Note_on_c, 0, 77, 97
2, 64704, Note_on_c, 0, 57, 97
2, 64704, Note_on_c, 0, 76, 97
2, 64705, Note_on_c, 0, 77, 0
2, 64732, Note_on_c, 0, 45, 0
2, 64800, Note_on_c, 0, 74, 97
2, 64801, Note_on_c, 0, 76, 0
2, 64896, Note_on_c, 0, 60, 97
2, 64896, Note_on_c, 0, 76, 97
2, 64897, Note_on_c, 0, 74, 0
2, 64897, Note_on_c, 0, 57, 0
2, 64992, Note_on_c, 0, 74, 97
2, 64993, Note_on_c, 0, 76, 0
2, 65066, Note_on_c, 0, 60, 0
2, 65088, Note_on_c, 0, 57, 97
2, 65088, Note_on_c, 0, 72, 97
2, 65089, Note_on_c, 0, 74, 0
2, 65184, Note_on_c, 0, 71, 97
2, 65185, Note_on_c, 0, 72, 0
2, 65258, Note_on_c, 0, 57, 0
2, 65280, Note_on_c, 0, 53, 97
2, 65280, Note_on_c, 0, 69, 97
2, 65281, Note_on_c, 0, 71, 0
2, 65376, Note_on_c, 0, 74, 97
2, 65377, Note_on_c, 0, 69, 0
2, 65450, Note_on_c, 0, 53, 0
2, 65466, Note_on_c, 0, 74, 0
2, 65472, Note_on_c, 0, 50, 97
2, 65472, Note_on_c, 0, 76, 97
2, 65562, Note_on_c, 0, 76, 0
2, 65568, Note_on_c, 0, 77, 97
2, 65642, Note_on_c, 0, 50, 0
2, 65658, Note_on_c, 0, 77, 0
2, 65664, Note_on_c, 0, 43, 97
2, 65664, Note_on_c, 0, 71, 97
2, 65760, Note_on_c, 0, 74, 97
2, 65761, Note_on_c, 0, 71, 0
2, 65856, Note_on_c, 0, 55, 97
2, 65856, Note_on_c, 0, 76, 97
2, 65857, Note_on_c, 0, 74, 0
2, 65884, Note_on_c, 0, 43, 0
2, 65952, Note_on_c, 0, 77, 97
2, 65953, Note_on_c, 0, 76, 0
2, 66048, Note_on_c, 0, 59, 97
2, 66048, Note_on_c, 0, 67, 97
2, 66049, Note_on_c, 0, 77, 0
2, 66049, Note_on_c, 0, 55, 0
2, 66144, Note_on_c, 0, 77, 97
2, 66145, Note_on_c, 0, 67, 0
2, 66218, Note_on_c, 0, 59, 0
2, 66240, Note_on_c, 0, 55, 97
2, 66240, Note_on_c, 0, 76, 97
2, 66241, Note_on_c, 0, 77, 0
2, 66336, Note_on_c, 0, 74, 97
2, 66337, Note_on_c, 0, 76, 0
2, 66410, Note_on_c, 0, 55, 0
2, 66432, Note_on_c, 0, 52, 97
2, 66432, Note_on_c, 0, 72, 97
2, 66433, Note_on_c, 0, 74, 0
2, 66528, Note_on_c, 0, 74, 97
2, 66529, Note_on_c, 0, 72, 0
2, 66602, Note_on_c, 0, 52, 0
2, 66618, Note_on_c, 0, 74, 0
2, 66624, Note_on_c, 0, 48, 97
2, 66624, Note_on_c, 0, 76, 97
2, 66714, Note_on_c, 0, 76, 0
2, 66720, Note_on_c, 0, 72, 97
2, 66794, Note_on_c, 0, 48, 0
2, 66810, Note_on_c, 0, 72, 0
2, 66816, Note_on_c, 0, 41, 97
2, 66816, Note_on_c, 0, 69, 97
2, 66912, Note_on_c, 0, 74, 97
2, 66913, Note_on_c, 0, 69, 0
2, 67008, Note_on_c, 0, 53, 97
2, 67008, Note_on_c, 0, 72, 97
2, 67009, Note_on_c, 0, 74, 0
2, 67036, Note_on_c, 0, 41, 0
2, 67104, Note_on_c, 0, 71, 97
2, 67105, Note_on_c, 0, 72, 0
2, 67200, Note_on_c, 0, 57, 97
2, 67200, Note_on_c, 0, 72, 97
2, 67201, Note_on_c, 0, 71, 0
2, 67201, Note_on_c, 0, 53, 0
2, 67296, Note_on_c, 0, 71, 97
2, 67297, Note_on_c, 0, 72, 0
2, 67370, Note_on_c, 0, 57, 0
2, 67392, Note_on_c, 0, 53, 97
2, 67392, Note_on_c, 0, 69, 97
2, 67393, Note_on_c, 0, 71, 0
2, 67488, Note_on_c, 0, 67, 97
2, 67489, Note_on_c, 0, 69, 0
2, 67562, Note_on_c, 0, 53, 0
2, 67584, Note_on_c, 0, 50, 97
2, 67584, Note_on_c, 0, 65, 97
2, 67585, Note_on_c, 0, 67, 0
2, 67680, Note_on_c, 0, 71, 97
2, 67681, Note_on_c, 0, 65, 0
2, 67754, Note_on_c, 0, 50, 0
2, 67770, Note_on_c, 0, 71, 0
2, 67776, Note_on_c, 0, 47, 97
2, 67776, Note_on_c, 0, 72, 97
2, 67866, Note_on_c, 0, 72, 0
2, 67872, Note_on_c, 0, 74, 97
2, 67946, Note_on_c, 0, 47, 0
2, 67962, Note_on_c, 0, 74, 0
2, 67968, Note_on_c, 0, 40, 97
2, 67968, Note_on_c, 0, 67, 97
2, 68064, Note_on_c, 0, 71, 97
2, 68065, Note_on_c, 0, 67, 0
2, 68160, Note_on_c, 0, 52, 97
2, 68160, Note_on_c, 0, 72, 97
2, 68161, Note_on_c, 0, 71, 0
2, 68188, Note_on_c, 0, 40, 0
2, 68256, Note_on_c, 0, 74, 97
2, 68257, Note_on_c, 0, 72, 0
2, 68352, Note_on_c, 0, 55, 97
2, 68352, Note_on_c, 0, 64, 97
2, 68353, Note_on_c, 0, 74, 0
2, 68353, Note_on_c, 0, 52, 0
2, 68448, Note_on_c, 0, 74, 97
2, 68449, Note_on_c, 0, 64, 0
2, 68522, Note_on_c, 0, 55, 0
2, 68544, Note_on_c, 0, 52, 97
2, 68544, Note_on_c, 0, 72, 97
2, 68545, Note_on_c, 0, 74, 0
2, 68640, Note_on_c, 0, 71, 97
2, 68641, Note_on_c, 0, 72, 0
2, 68714, Note_on_c, 0, 52, 0
2, 68736, Note_on_c, 0, 48, 97
2, 68736, Note_on_c, 0, 69, 97
2, 68737, Note_on_c, 0, 71, 0
2, 68832, Note_on_c, 0, 71, 97
2, 68833, Note_on_c, 0, 69, 0
2, 68906, Note_on_c, 0, 48, 0
2, 68922, Note_on_c, 0, 71, 0
2, 68928, Note_on_c, 0, 45, 97
2, 68928, Note_on_c, 0, 72, 97
2, 69018, Note_on_c, 0, 72, 0
2, 69024, Note_on_c, 0, 69, 97
2, 69098, Note_on_c, 0, 45, 0
2, 69114, Note_on_c, 0, 69, 0
2, 69120, Note_on_c, 0, 38, 97
2, 69120, Note_on_c, 0, 65, 97
2, 69216, Note_on_c, 0, 36, 97
2, 69217, Note_on_c, 0, 38, 0
2, 69312, Note_on_c, 0, 38, 97
2, 69312, Note_on_c, 0, 71, 97
2, 69313, Note_on_c, 0, 36, 0
2, 69313, Note_on_c, 0, 65, 0
2, 69408, Note_on_c, 0, 40, 97
2, 69408, Note_on_c, 0, 72, 97
2, 69409, Note_on_c, 0, 38, 0
2, 69409, Note_on_c, 0, 71, 0
2, 69504, Note_on_c, 0, 41, 97
2, 69504, Note_on_c, 0, 74, 97
2, 69505, Note_on_c, 0, 40, 0
2, 69505, Note_on_c, 0, 72, 0
2, 69600, Note_on_c, 0, 43, 97
2, 69601, Note_on_c, 0, 41, 0
2, 69696, Note_on_c, 0, 45, 97
2, 69697, Note_on_c, 0, 43, 0
2, 69792, Note_on_c, 0, 47, 97
2, 69793, Note_on_c, 0, 45, 0
2, 69824, Note_on_c, 0, 74, 0
2, 69888, Note_on_c, 0, 48, 97
2, 69889, Note_on_c, 0, 47, 0
2, 69984, Note_on_c, 0, 47, 97
2, 69984, Note_on_c, 0, 67, 97
2, 69985, Note_on_c, 0, 48, 0
2, 70074, Note_on_c, 0, 67, 0
2, 70080, Note_on_c, 0, 45, 97
2, 70080, Note_on_c, 0, 65, 97
2, 70081, Note_on_c, 0, 47, 0
2, 70170, Note_on_c, 0, 65, 0
2, 70176, Note_on_c, 0, 48, 97
2, 70176, Note_on_c, 0, 64, 97
2, 70177, Note_on_c, 0, 45, 0
2, 70266, Note_on_c, 0, 64, 0
2, 70272, Note_on_c, 0, 47, 97
2, 70272, Note_on_c, 0, 65, 97
2, 70273, Note_on_c, 0, 48, 0
2, 70368, Note_on_c, 0, 45, 97
2, 70369, Note_on_c, 0, 47, 0
2, 70464, Note_on_c, 0, 43, 97
2, 70464, Note_on_c, 0, 71, 97
2, 70465, Note_on_c, 0, 45, 0
2, 70465, Note_on_c, 0, 65, 0
2, 70560, Note_on_c, 0, 45, 97
2, 70560, Note_on_c, 0, 72, 97
2, 70561, Note_on_c, 0, 43, 0
2, 70561, Note_on_c, 0, 71, 0
2, 70656, Note_on_c, 0, 47, 97
2, 70656, Note_on_c, 0, 74, 97
2, 70657, Note_on_c, 0, 45, 0
2, 70657, Note_on_c, 0, 72, 0
2, 70752, Note_on_c, 0, 48, 97
2, 70753, Note_on_c, 0, 47, 0
2, 70848, Note_on_c, 0, 50, 97
2, 70849, Note_on_c, 0, 48, 0
2, 70944, Note_on_c, 0, 52, 97
2, 70945, Note_on_c, 0, 50, 0
2, 71040, Note_on_c, 0, 53, 97
2, 71041, Note_on_c, 0, 52, 0
2, 71056, Note_on_c, 0, 74, 0
2, 71136, Note_on_c, 0, 52, 97
2, 71136, Note_on_c, 0, 72, 97
2, 71137, Note_on_c, 0, 53, 0
2, 71226, Note_on_c, 0, 72, 0
2, 71232, Note_on_c, 0, 50, 97
2, 71232, Note_on_c, 0, 71, 97
2, 71233, Note_on_c, 0, 52, 0
2, 71322, Note_on_c, 0, 71, 0
2, 71328, Note_on_c, 0, 53, 97
2, 71328, Note_on_c, 0, 74, 97
2, 71329, Note_on_c, 0, 50, 0
2, 71418, Note_on_c, 0, 74, 0
2, 71424, Note_on_c, 0, 52, 97
2, 71424, Note_on_c, 0, 67, 97
2, 71425, Note_on_c, 0, 53, 0
2, 71520, Note_on_c, 0, 40, 97
2, 71520, Note_on_c, 0, 72, 97
2, 71521, Note_on_c, 0, 52, 0
2, 71574, Note_on_c, 0, 67, 0
2, 71616, Note_on_c, 0, 41, 97
2, 71616, Note_on_c, 0, 71, 97
2, 71617, Note_on_c, 0, 40, 0
2, 71617, Note_on_c, 0, 72, 0
2, 71712, Note_on_c, 0, 43, 97
2, 71712, Note_on_c, 0, 69, 97
2, 71713, Note_on_c, 0, 41, 0
2, 71713, Note_on_c, 0, 71, 0
2, 71808, Note_on_c, 0, 45, 97
2, 71808, Note_on_c, 0, 67, 97
2, 71809, Note_on_c, 0, 43, 0
2, 71809, Note_on_c, 0, 69, 0
2, 71904, Note_on_c, 0, 47, 97
2, 71904, Note_on_c, 0, 65, 97
2, 71905, Note_on_c, 0, 45, 0
2, 71905, Note_on_c, 0, 67, 0
2, 72000, Note_on_c, 0, 48, 97
2, 72000, Note_on_c, 0, 64, 97
2, 72001, Note_on_c, 0, 47, 0
2, 72001, Note_on_c, 0, 65, 0
2, 72096, Note_on_c, 0, 50, 97
2, 72096, Note_on_c, 0, 62, 97
2, 72097, Note_on_c, 0, 48, 0
2, 72097, Note_on_c, 0, 64, 0
2, 72192, Note_on_c, 0, 52, 97
2, 72192, Note_on_c, 0, 60, 97
2, 72193, Note_on_c, 0, 50, 0
2, 72193, Note_on_c, 0, 62, 0
2, 72288, Note_on_c, 0, 50, 97
2, 72288, Note_on_c, 0, 64, 97
2, 72289, Note_on_c, 0, 52, 0
2, 72352, Note_on_c, 0, 60, 0
2, 72378, Note_on_c, 0, 64, 0
2, 72384, Note_on_c, 0, 52, 97
2, 72384, Note_on_c, 0, 62, 97
2, 72385, Note_on_c, 0, 50, 0
2, 72474, Note_on_c, 0, 62, 0
2, 72480, Note_on_c, 0, 53, 97
2, 72480, Note_on_c, 0, 60, 97
2, 72481, Note_on_c, 0, 52, 0
2, 72570, Note_on_c, 0, 60, 0
2, 72576, Note_on_c, 0, 55, 97
2, 72576, Note_on_c, 0, 59, 97
2, 72577, Note_on_c, 0, 53, 0
2, 72672, Note_on_c, 0, 60, 97
2, 72766, Note_on_c, 0, 59, 0
2, 72768, Note_on_c, 0, 53, 97
2, 72768, Note_on_c, 0, 62, 97
2, 72769, Note_on_c, 0, 60, 0
2, 72769, Note_on_c, 0, 55, 0
2, 72864, Note_on_c, 0, 52, 97
2, 72864, Note_on_c, 0, 64, 97
2, 72865, Note_on_c, 0, 53, 0
2, 72865, Note_on_c, 0, 62, 0
2, 72960, Note_on_c, 0, 50, 97
2, 72960, Note_on_c, 0, 65, 97
2, 72961, Note_on_c, 0, 52, 0
2, 72961, Note_on_c, 0, 64, 0
2, 73056, Note_on_c, 0, 48, 97
2, 73056, Note_on_c, 0, 67, 97
2, 73057, Note_on_c, 0, 50, 0
2, 73057, Note_on_c, 0, 65, 0
2, 73152, Note_on_c, 0, 47, 97
2, 73152, Note_on_c, 0, 69, 97
2, 73153, Note_on_c, 0, 48, 0
2, 73153, Note_on_c, 0, 67, 0
2, 73248, Note_on_c, 0, 45, 97
2, 73248, Note_on_c, 0, 71, 97
2, 73249, Note_on_c, 0, 47, 0
2, 73249, Note_on_c, 0, 69, 0
2, 73344, Note_on_c, 0, 43, 97
2, 73344, Note_on_c, 0, 72, 97
2, 73345, Note_on_c, 0, 45, 0
2, 73345, Note_on_c, 0, 71, 0
2, 73440, Note_on_c, 0, 41, 97
2, 73440, Note_on_c, 0, 74, 97
2, 73441, Note_on_c, 0, 43, 0
2, 73441, Note_on_c, 0, 72, 0
2, 73515, Note_on_c, 0, 74, 0
2, 73520, Note_on_c, 0, 41, 0
2, 73536, Note_on_c, 0, 40, 97
2, 73536, Note_on_c, 0, 76, 97
2, 73611, Note_on_c, 0, 76, 0
2, 73616, Note_on_c, 0, 40, 0
2, 73632, Note_on_c, 0, 38, 97
2, 73632, Note_on_c, 0, 77, 97
2, 73702, Note_on_c, 0, 77, 0
2, 73712, Note_on_c, 0, 38, 0
2, 73728, Note_on_c, 0, 36, 97
2, 73728, Note_on_c, 0, 79, 97
2, 73824, Note_on_c, 0, 77, 97
2, 73838, Note_on_c, 0, 79, 0
2, 73920, Note_on_c, 0, 76, 97
2, 73921, Note_on_c, 0, 77, 0
2, 74016, Note_on_c, 0, 74, 97
2, 74017, Note_on_c, 0, 76, 0
2, 74108, Note_on_c, 0, 36, 0
2, 74112, Note_on_c, 0, 72, 97
2, 74113, Note_on_c, 0, 74, 0
2, 74302, Note_on_c, 0, 72, 0
2, 74496, Note_on_c, 0, 60, 97
2, 74496, Note_on_c, 0, 67, 97
2, 74496, Note_on_c, 0, 64, 97
2, 74616, Note_on_c, 0, 64, 0
2, 74616, Note_on_c, 0, 67, 0
2, 74616, Note_on_c, 0, 60, 0
2, 74880, Note_on_c, 0, 60, 97
2, 74880, Note_on_c, 0, 69, 97
2, 74880, Note_on_c, 0, 65, 97
2, 75000, Note_on_c, 0, 65, 0
2, 75000, Note_on_c, 0, 69, 0
2, 75000, Note_on_c, 0, 60, 0
2, 75264, Note_on_c, 0, 60, 97
2, 75264, Note_on_c, 0, 64, 97
2, 75264, Note_on_c, 0, 67, 97
2, 75454, Note_on_c, 0, 67, 0
2, 75454, Note_on_c, 0, 64, 0
2, 75454, Note_on_c, 0, 60, 0
2, 76032, Note_on_c, 0, 79, 97
2, 76128, Note_on_c, 0, 77, 97
2, 76129, Note_on_c, 0, 79, 0
2, 76224, Note_on_c, 0, 76, 97
2, 76225, Note_on_c, 0, 77, 0
2, 76320, Note_on_c, 0, 74, 97
2, 76321, Note_on_c, 0, 76, 0
2, 76416, Note_on_c, 0, 72, 97
2, 76417, Note_on_c, 0, 74, 0
2, 76512, Note_on_c, 0, 71, 97
2, 76513, Note_on_c, 0, 72, 0
2, 76608, Note_on_c, 0, 69, 97
2, 76609, Note_on_c, 0, 71, 0
2, 76704, Note_on_c, 0, 67, 97
2, 76705, Note_on_c, 0, 69, 0
2, 76800, Note_on_c, 0, 65, 97
2, 76801, Note_on_c, 0, 67, 0
2, 76896, Note_on_c, 0, 64, 97
2, 76897, Note_on_c, 0, 65, 0
2, 76992, Note_on_c, 0, 62, 97
2, 76993, Note_on_c, 0, 64, 0
2, 77088, Note_on_c, 0, 60, 97
2, 77089, Note_on_c, 0, 62, 0
2, 77184, Note_on_c, 0, 55, 97
2, 77184, Note_on_c, 0, 48, 97
2, 77184, Note_on_c, 0, 59, 97
2, 77184, Note_on_c, 0, 65, 97
2, 77184, Note_on_c, 0, 62, 97
2, 77185, Note_on_c, 0, 60, 0
2, 77274, Note_on_c, 0, 48, 0
2, 77274, Note_on_c, 0, 59, 0
2, 77274, Note_on_c, 0, 55, 0
2, 77274, Note_on_c, 0, 62, 0
2, 77274, Note_on_c, 0, 65, 0
2, 77568, Note_on_c, 0, 48, 97
2, 77568, Note_on_c, 0, 36, 97
2, 77568, Note_on_c, 0, 55, 97
2, 77568, Note_on_c, 0, 64, 97
2, 77568, Note_on_c, 0, 60, 97
2, 77758, Note_on_c, 0, 60, 0
2, 77758, Note_on_c, 0, 55, 0
2, 77758, Note_on_c, 0, 48, 0
2, 77758, Note_on_c, 0, 36, 0
2, 77758, Note_on_c, 0, 64, 0
2, 78336, Note_on_c, 0, 48, 97
2, 78432, Note_on_c, 0, 60, 97
2, 78433, Note_on_c, 0, 48, 0
2, 78528, Note_on_c, 0, 64, 97
2, 78528, Note_on_c, 0, 72, 97
2, 78529, Note_on_c, 0, 60, 0
2, 78624, Note_on_c, 0, 60, 97
2, 78625, Note_on_c, 0, 64, 0
2, 78720, Note_on_c, 0, 57, 97
2, 78720, Note_on_c, 0, 76, 97
2, 78721, Note_on_c, 0, 60, 0
2, 78721, Note_on_c, 0, 72, 0
2, 78816, Note_on_c, 0, 60, 97
2, 78817, Note_on_c, 0, 57, 0
2, 78912, Note_on_c, 0, 64, 97
2, 78912, Note_on_c, 0, 72, 97
2, 78913, Note_on_c, 0, 60, 0
2, 78913, Note_on_c, 0, 76, 0
2, 79008, Note_on_c, 0, 60, 97
2, 79009, Note_on_c, 0, 64, 0
2, 79104, Note_on_c, 0, 54, 97
2, 79104, Note_on_c, 0, 69, 97
2, 79105, Note_on_c, 0, 60, 0
2, 79105, Note_on_c, 0, 72, 0
2, 79200, Note_on_c, 0, 60, 97
2, 79201, Note_on_c, 0, 54, 0
2, 79296, Note_on_c, 0, 64, 97
2, 79296, Note_on_c, 0, 66, 97
2, 79297, Note_on_c, 0, 60, 0
2, 79297, Note_on_c, 0, 69, 0
2, 79392, Note_on_c, 0, 60, 97
2, 79393, Note_on_c, 0, 64, 0
2, 79488, Note_on_c, 0, 47, 97
2, 79489, Note_on_c, 0, 60, 0
2, 79516, Note_on_c, 0, 66, 0
2, 79584, Note_on_c, 0, 71, 97
2, 79680, Note_on_c, 0, 59, 97
2, 79680, Note_on_c, 0, 74, 97
2, 79681, Note_on_c, 0, 71, 0
2, 79681, Note_on_c, 0, 47, 0
2, 79776, Note_on_c, 0, 71, 97
2, 79777, Note_on_c, 0, 74, 0
2, 79872, Note_on_c, 0, 62, 97
2, 79872, Note_on_c, 0, 66, 97
2, 79873, Note_on_c, 0, 71, 0
2, 79873, Note_on_c, 0, 59, 0
2, 79968, Note_on_c, 0, 71, 97
2, 79969, Note_on_c, 0, 66, 0
2, 80064, Note_on_c, 0, 59, 97
2, 80064, Note_on_c, 0, 74, 97
2, 80065, Note_on_c, 0, 71, 0
2, 80065, Note_on_c, 0, 62, 0
2, 80160, Note_on_c, 0, 71, 97
2, 80161, Note_on_c, 0, 74, 0
2, 80256, Note_on_c, 0, 55, 97
2, 80256, Note_on_c, 0, 64, 97
2, 80257, Note_on_c, 0, 71, 0
2, 80257, Note_on_c, 0, 59, 0
2, 80352, Note_on_c, 0, 71, 97
2, 80353, Note_on_c, 0, 64, 0
2, 80448, Note_on_c, 0, 52, 97
2, 80448, Note_on_c, 0, 74, 97
2, 80449, Note_on_c, 0, 71, 0
2, 80449, Note_on_c, 0, 55, 0
2, 80544, Note_on_c, 0, 71, 97
2, 80545, Note_on_c, 0, 74, 0
2, 80640, Note_on_c, 0, 45, 97
2, 80640, Note_on_c, 0, 72, 97
2, 80641, Note_on_c, 0, 71, 0
2, 80641, Note_on_c, 0, 52, 0
2, 80736, Note_on_c, 0, 57, 97
2, 80737, Note_on_c, 0, 45, 0
2, 80832, Note_on_c, 0, 60, 97
2, 80832, Note_on_c, 0, 81, 97
2, 80833, Note_on_c, 0, 57, 0
2, 80833, Note_on_c, 0, 72, 0
2, 80928, Note_on_c, 0, 57, 97
2, 80929, Note_on_c, 0, 60, 0
2, 81016, Note_on_c, 0, 81, 0
2, 81024, Note_on_c, 0, 54, 97
2, 81024, Note_on_c, 0, 84, 97
2, 81025, Note_on_c, 0, 57, 0
2, 81120, Note_on_c, 0, 57, 97
2, 81121, Note_on_c, 0, 54, 0
2, 81208, Note_on_c, 0, 84, 0
2, 81216, Note_on_c, 0, 60, 97
2, 81216, Note_on_c, 0, 81, 97
2, 81217, Note_on_c, 0, 57, 0
2, 81312, Note_on_c, 0, 57, 97
2, 81313, Note_on_c, 0, 60, 0
2, 81400, Note_on_c, 0, 81, 0
2, 81408, Note_on_c, 0, 50, 97
2, 81408, Note_on_c, 0, 78, 97
2, 81409, Note_on_c, 0, 57, 0
2, 81504, Note_on_c, 0, 57, 97
2, 81505, Note_on_c, 0, 50, 0
2, 81592, Note_on_c, 0, 78, 0
2, 81600, Note_on_c, 0, 60, 97
2, 81600, Note_on_c, 0, 74, 97
2, 81601, Note_on_c, 0, 57, 0
2, 81696, Note_on_c, 0, 57, 97
2, 81697, Note_on_c, 0, 60, 0
2, 81792, Note_on_c, 0, 43, 97
2, 81793, Note_on_c, 0, 57, 0
2, 81820, Note_on_c, 0, 74, 0
2, 81888, Note_on_c, 0, 79, 97
2, 81984, Note_on_c, 0, 55, 97
2, 81984, Note_on_c, 0, 83, 97
2, 81985, Note_on_c, 0, 79, 0
2, 81985, Note_on_c, 0, 43, 0
2, 82080, Note_on_c, 0, 79, 97
2, 82081, Note_on_c, 0, 83, 0
2, 82176, Note_on_c, 0, 59, 97
2, 82176, Note_on_c, 0, 74, 97
2, 82177, Note_on_c, 0, 79, 0
2, 82177, Note_on_c, 0, 55, 0
2, 82272, Note_on_c, 0, 79, 97
2, 82273, Note_on_c, 0, 74, 0
2, 82368, Note_on_c, 0, 55, 97
2, 82368, Note_on_c, 0, 83, 97
2, 82369, Note_on_c, 0, 79, 0
2, 82369, Note_on_c, 0, 59, 0
2, 82464, Note_on_c, 0, 79, 97
2, 82465, Note_on_c, 0, 83, 0
2, 82560, Note_on_c, 0, 52, 97
2, 82560, Note_on_c, 0, 72, 97
2, 82561, Note_on_c, 0, 79, 0
2, 82561, Note_on_c, 0, 55, 0
2, 82656, Note_on_c, 0, 83, 97
2, 82657, Note_on_c, 0, 72, 0
2, 82752, Note_on_c, 0, 48, 97
2, 82752, Note_on_c, 0, 81, 97
2, 82753, Note_on_c, 0, 83, 0
2, 82753, Note_on_c, 0, 52, 0
2, 82848, Note_on_c, 0, 79, 97
2, 82849, Note_on_c, 0, 81, 0
2, 82944, Note_on_c, 0, 50, 97
2, 82944, Note_on_c, 0, 78, 97
2, 82945, Note_on_c, 0, 79, 0
2, 82945, Note_on_c, 0, 48, 0
2, 83136, Note_on_c, 0, 62, 97
2, 83137, Note_on_c, 0, 78, 0
2, 83224, Note_on_c, 0, 50, 0
2, 83232, Note_on_c, 0, 64, 97
2, 83233, Note_on_c, 0, 62, 0
2, 83328, Note_on_c, 0, 38, 97
2, 83328, Note_on_c, 0, 66, 97
2, 83329, Note_on_c, 0, 64, 0
2, 83424, Note_on_c, 0, 67, 97
2, 83425, Note_on_c, 0, 66, 0
2, 83520, Note_on_c, 0, 69, 97
2, 83521, Note_on_c, 0, 67, 0
2, 83608, Note_on_c, 0, 38, 0
2, 83712, Note_on_c, 0, 54, 97
2, 83712, Note_on_c, 0, 50, 97
2, 83902, Note_on_c, 0, 50, 0
2, 83902, Note_on_c, 0, 54, 0
2, 83904, Note_on_c, 0, 60, 97
2, 83905, Note_on_c, 0, 69, 0
2, 84096, Note_on_c, 0, 50, 97
2, 84096, Note_on_c, 0, 55, 97
2, 84124, Note_on_c, 0, 60, 0
2, 84192, Note_on_c, 0, 58, 97
2, 84288, Note_on_c, 0, 60, 97
2, 84289, Note_on_c, 0, 58, 0
2, 84376, Note_on_c, 0, 50, 0
2, 84376, Note_on_c, 0, 55, 0
2, 84384, Note_on_c, 0, 62, 97
2, 84385, Note_on_c, 0, 60, 0
2, 84480, Note_on_c, 0, 38, 97
2, 84480, Note_on_c, 0, 64, 97
2, 84481, Note_on_c, 0, 62, 0
2, 84576, Note_on_c, 0, 66, 97
2, 84577, Note_on_c, 0, 64, 0
2, 84670, Note_on_c, 0, 38, 0
2, 84672, Note_on_c, 0, 67, 97
2, 84673, Note_on_c, 0, 66, 0
2, 84768, Note_on_c, 0, 69, 97
2, 84769, Note_on_c, 0, 67, 0
2, 84864, Note_on_c, 0, 55, 97
2, 84864, Note_on_c, 0, 52, 97
2, 84864, Note_on_c, 0, 50, 97
2, 84864, Note_on_c, 0, 61, 97
2, 84864, Note_on_c, 0, 70, 97
2, 84865, Note_on_c, 0, 69, 0
2, 84960, Note_on_c, 0, 69, 97
2, 84961, Note_on_c, 0, 70, 0
2, 85024, Note_on_c, 0, 61, 0
2, 85054, Note_on_c, 0, 50, 0
2, 85054, Note_on_c, 0, 55, 0
2, 85054, Note_on_c, 0, 52, 0
2, 85056, Note_on_c, 0, 67, 97
2, 85057, Note_on_c, 0, 69, 0
2, 85152, Note_on_c, 0, 70, 97
2, 85153, Note_on_c, 0, 67, 0
2, 85248, Note_on_c, 0, 54, 97
2, 85248, Note_on_c, 0, 57, 97
2, 85248, Note_on_c, 0, 50, 97
2, 85248, Note_on_c, 0, 62, 97
2, 85248, Note_on_c, 0, 69, 97
2, 85249, Note_on_c, 0, 70, 0
2, 85344, Note_on_c, 0, 67, 97
2, 85368, Note_on_c, 0, 69, 0
2, 85440, Note_on_c, 0, 66, 97
2, 85441, Note_on_c, 0, 67, 0
2, 85528, Note_on_c, 0, 62, 0
2, 85528, Note_on_c, 0, 50, 0
2, 85528, Note_on_c, 0, 54, 0
2, 85528, Note_on_c, 0, 57, 0
2, 85536, Note_on_c, 0, 67, 97
2, 85537, Note_on_c, 0, 66, 0
2, 85632, Note_on_c, 0, 38, 97
2, 85632, Note_on_c, 0, 69, 97
2, 85633, Note_on_c, 0, 67, 0
2, 85728, Note_on_c, 0, 70, 97
2, 85729, Note_on_c, 0, 69, 0
2, 85822, Note_on_c, 0, 38, 0
2, 85824, Note_on_c, 0, 72, 97
2, 85825, Note_on_c, 0, 70, 0
2, 86016, Note_on_c, 0, 57, 97
2, 86016, Note_on_c, 0, 54, 97
2, 86016, Note_on_c, 0, 50, 97
2, 86206, Note_on_c, 0, 50, 0
2, 86206, Note_on_c, 0, 54, 0
2, 86206, Note_on_c, 0, 57, 0
2, 86208, Note_on_c, 0, 63, 97
2, 86209, Note_on_c, 0, 72, 0
2, 86400, Note_on_c, 0, 58, 97
2, 86400, Note_on_c, 0, 55, 97
2, 86400, Note_on_c, 0, 50, 97
2, 86428, Note_on_c, 0, 63, 0
2, 86496, Note_on_c, 0, 62, 97
2, 86592, Note_on_c, 0, 64, 97
2, 86593, Note_on_c, 0, 62, 0
2, 86680, Note_on_c, 0, 58, 0
2, 86680, Note_on_c, 0, 50, 0
2, 86680, Note_on_c, 0, 55, 0
2, 86688, Note_on_c, 0, 66, 97
2, 86689, Note_on_c, 0, 64, 0
2, 86784, Note_on_c, 0, 38, 97
2, 86784, Note_on_c, 0, 67, 97
2, 86785, Note_on_c, 0, 66, 0
2, 86880, Note_on_c, 0, 69, 97
2, 86881, Note_on_c, 0, 67, 0
2, 86974, Note_on_c, 0, 38, 0
2, 86976, Note_on_c, 0, 70, 97
2, 86977, Note_on_c, 0, 69, 0
2, 87072, Note_on_c, 0, 72, 97
2, 87073, Note_on_c, 0, 70, 0
2, 87168, Note_on_c, 0, 50, 97
2, 87168, Note_on_c, 0, 58, 97
2, 87168, Note_on_c, 0, 55, 97
2, 87168, Note_on_c, 0, 74, 97
2, 87169, Note_on_c, 0, 72, 0
2, 87264, Note_on_c, 0, 72, 97
2, 87265, Note_on_c, 0, 74, 0
2, 87358, Note_on_c, 0, 55, 0
2, 87358, Note_on_c, 0, 50, 0
2, 87358, Note_on_c, 0, 58, 0
2, 87360, Note_on_c, 0, 70, 97
2, 87361, Note_on_c, 0, 72, 0
2, 87456, Note_on_c, 0, 74, 97
2, 87457, Note_on_c, 0, 70, 0
2, 87552, Note_on_c, 0, 50, 97
2, 87552, Note_on_c, 0, 57, 97
2, 87552, Note_on_c, 0, 54, 97
2, 87552, Note_on_c, 0, 72, 97
2, 87553, Note_on_c, 0, 74, 0
2, 87648, Note_on_c, 0, 70, 97
2, 87649, Note_on_c, 0, 72, 0
2, 87744, Note_on_c, 0, 69, 97
2, 87745, Note_on_c, 0, 70, 0
2, 87832, Note_on_c, 0, 54, 0
2, 87832, Note_on_c, 0, 50, 0
2, 87832, Note_on_c, 0, 57, 0
2, 87840, Note_on_c, 0, 70, 97
2, 87841, Note_on_c, 0, 69, 0
2, 87936, Note_on_c, 0, 38, 97
2, 87936, Note_on_c, 0, 72, 97
2, 87937, Note_on_c, 0, 70, 0
2, 88032, Note_on_c, 0, 74, 97
2, 88033, Note_on_c, 0, 72, 0
2, 88126, Note_on_c, 0, 38, 0
2, 88128, Note_on_c, 0, 75, 97
2, 88129, Note_on_c, 0, 74, 0
2, 88320, Note_on_c, 0, 58, 97
2, 88320, Note_on_c, 0, 50, 97
2, 88320, Note_on_c, 0, 55, 97
2, 88468, Note_on_c, 0, 75, 0
2, 88510, Note_on_c, 0, 58, 0
2, 88510, Note_on_c, 0, 50, 0
2, 88510, Note_on_c, 0, 55, 0
2, 88512, Note_on_c, 0, 67, 97
2, 88704, Note_on_c, 0, 50, 97
2, 88704, Note_on_c, 0, 57, 97
2, 88704, Note_on_c, 0, 60, 97
2, 88732, Note_on_c, 0, 67, 0
2, 88800, Note_on_c, 0, 66, 97
2, 88896, Note_on_c, 0, 58, 97
2, 88896, Note_on_c, 0, 55, 97
2, 88896, Note_on_c, 0, 64, 97
2, 88897, Note_on_c, 0, 66, 0
2, 88897, Note_on_c, 0, 60, 0
2, 88897, Note_on_c, 0, 57, 0
2, 88984, Note_on_c, 0, 50, 0
2, 88992, Note_on_c, 0, 62, 97
2, 88993, Note_on_c, 0, 64, 0
2, 89088, Note_on_c, 0, 54, 97
2, 89088, Note_on_c, 0, 57, 97
2, 89088, Note_on_c, 0, 64, 97
2, 89089, Note_on_c, 0, 58, 0
2, 89089, Note_on_c, 0, 62, 0
2, 89089, Note_on_c, 0, 55, 0
2, 89184, Note_on_c, 0, 66, 97
2, 89185, Note_on_c, 0, 64, 0
2, 89280, Note_on_c, 0, 55, 97
2, 89280, Note_on_c, 0, 52, 97
2, 89280, Note_on_c, 0, 67, 97
2, 89281, Note_on_c, 0, 54, 0
2, 89281, Note_on_c, 0, 66, 0
2, 89281, Note_on_c, 0, 57, 0
2, 89376, Note_on_c, 0, 69, 97
2, 89377, Note_on_c, 0, 67, 0
2, 89440, Note_on_c, 0, 55, 0
2, 89440, Note_on_c, 0, 52, 0
2, 89472, Note_on_c, 0, 53, 97
2, 89472, Note_on_c, 0, 50, 97
2, 89472, Note_on_c, 0, 71, 97
2, 89473, Note_on_c, 0, 69, 0
2, 89568, Note_on_c, 0, 72, 97
2, 89569, Note_on_c, 0, 71, 0
2, 89612, Note_on_c, 0, 53, 0
2, 89612, Note_on_c, 0, 50, 0
2, 89664, Note_on_c, 0, 48, 97
2, 89664, Note_on_c, 0, 51, 97
2, 89664, Note_on_c, 0, 74, 97
2, 89665, Note_on_c, 0, 72, 0
2, 89760, Note_on_c, 0, 75, 97
2, 89761, Note_on_c, 0, 74, 0
2, 89794, Note_on_c, 0, 48, 0
2, 89794, Note_on_c, 0, 51, 0
2, 89856, Note_on_c, 0, 47, 97
2, 89856, Note_on_c, 0, 50, 97
2, 89856, Note_on_c, 0, 53, 97
2, 89856, Note_on_c, 0, 77, 97
2, 89857, Note_on_c, 0, 75, 0
2, 89952, Note_on_c, 0, 55, 97
2, 89953, Note_on_c, 0, 53, 0
2, 89953, Note_on_c, 0, 47, 0
2, 89953, Note_on_c, 0, 50, 0
2, 90048, Note_on_c, 0, 54, 97
2, 90048, Note_on_c, 0, 67, 97
2, 90076, Note_on_c, 0, 77, 0
2, 90092, Note_on_c, 0, 55, 0
2, 90144, Note_on_c, 0, 55, 97
2, 90145, Note_on_c, 0, 54, 0
2, 90238, Note_on_c, 0, 67, 0
2, 90240, Note_on_c, 0, 57, 97
2, 90284, Note_on_c, 0, 55, 0
2, 90336, Note_on_c, 0, 55, 97
2, 90337, Note_on_c, 0, 57, 0
2, 90432, Note_on_c, 0, 54, 97
2, 90432, Note_on_c, 0, 71, 97
2, 90476, Note_on_c, 0, 55, 0
2, 90528, Note_on_c, 0, 55, 97
2, 90529, Note_on_c, 0, 54, 0
2, 90624, Note_on_c, 0, 52, 97
2, 90624, Note_on_c, 0, 72, 97
2, 90625, Note_on_c, 0, 55, 0
2, 90625, Note_on_c, 0, 71, 0
2, 90720, Note_on_c, 0, 55, 97
2, 90721, Note_on_c, 0, 52, 0
2, 90816, Note_on_c, 0, 52, 97
2, 90816, Note_on_c, 0, 74, 97
2, 90817, Note_on_c, 0, 55, 0
2, 90817, Note_on_c, 0, 72, 0
2, 90912, Note_on_c, 0, 50, 97
2, 90913, Note_on_c, 0, 52, 0
2, 91008, Note_on_c, 0, 48, 97
2, 91008, Note_on_c, 0, 76, 97
2, 91009, Note_on_c, 0, 50, 0
2, 91009, Note_on_c, 0, 74, 0
2, 91104, Note_on_c, 0, 55, 97
2, 91104, Note_on_c, 0, 74, 97
2, 91105, Note_on_c, 0, 48, 0
2, 91105, Note_on_c, 0, 76, 0
2, 91200, Note_on_c, 0, 54, 97
2, 91200, Note_on_c, 0, 76, 97
2, 91201, Note_on_c, 0, 55, 0
2, 91201, Note_on_c, 0, 74, 0
2, 91296, Note_on_c, 0, 55, 97
2, 91297, Note_on_c, 0, 54, 0
2, 91392, Note_on_c, 0, 57, 97
2, 91392, Note_on_c, 0, 66, 97
2, 91393, Note_on_c, 0, 55, 0
2, 91393, Note_on_c, 0, 76, 0
2, 91488, Note_on_c, 0, 55, 97
2, 91489, Note_on_c, 0, 57, 0
2, 91584, Note_on_c, 0, 54, 97
2, 91584, Note_on_c, 0, 69, 97
2, 91585, Note_on_c, 0, 55, 0
2, 91585, Note_on_c, 0, 66, 0
2, 91680, Note_on_c, 0, 55, 97
2, 91681, Note_on_c, 0, 54, 0
2, 91768, Note_on_c, 0, 69, 0
2, 91776, Note_on_c, 0, 50, 97
2, 91776, Note_on_c, 0, 71, 97
2, 91777, Note_on_c, 0, 55, 0
2, 91872, Note_on_c, 0, 55, 97
2, 91873, Note_on_c, 0, 50, 0
2, 91960, Note_on_c, 0, 71, 0
2, 91968, Note_on_c, 0, 50, 97
2, 91968, Note_on_c, 0, 72, 97
2, 91969, Note_on_c, 0, 55, 0
2, 92064, Note_on_c, 0, 48, 97
2, 92065, Note_on_c, 0, 50, 0
2, 92152, Note_on_c, 0, 72, 0
2, 92160, Note_on_c, 0, 47, 97
2, 92160, Note_on_c, 0, 74, 97
2, 92161, Note_on_c, 0, 48, 0
2, 92256, Note_on_c, 0, 66, 97
2, 92257, Note_on_c, 0, 74, 0
2, 92352, Note_on_c, 0, 55, 97
2, 92352, Note_on_c, 0, 64, 97
2, 92353, Note_on_c, 0, 66, 0
2, 92353, Note_on_c, 0, 47, 0
2, 92448, Note_on_c, 0, 66, 97
2, 92449, Note_on_c, 0, 64, 0
2, 92544, Note_on_c, 0, 59, 97
2, 92544, Note_on_c, 0, 67, 97
2, 92545, Note_on_c, 0, 66, 0
2, 92545, Note_on_c, 0, 55, 0
2, 92640, Note_on_c, 0, 66, 97
2, 92641, Note_on_c, 0, 67, 0
2, 92736, Note_on_c, 0, 55, 97
2, 92736, Note_on_c, 0, 64, 97
2, 92737, Note_on_c, 0, 66, 0
2, 92737, Note_on_c, 0, 59, 0
2, 92832, Note_on_c, 0, 66, 97
2, 92833, Note_on_c, 0, 64, 0
2, 92928, Note_on_c, 0, 52, 97
2, 92928, Note_on_c, 0, 67, 97
2, 92929, Note_on_c, 0, 66, 0
2, 92929, Note_on_c, 0, 55, 0
2, 93024, Note_on_c, 0, 64, 97
2, 93025, Note_on_c, 0, 67, 0
2, 93112, Note_on_c, 0, 52, 0
2, 93120, Note_on_c, 0, 48, 97
2, 93120, Note_on_c, 0, 69, 97
2, 93121, Note_on_c, 0, 64, 0
2, 93216, Note_on_c, 0, 71, 97
2, 93217, Note_on_c, 0, 69, 0
2, 93304, Note_on_c, 0, 48, 0
2, 93312, Note_on_c, 0, 45, 97
2, 93312, Note_on_c, 0, 72, 97
2, 93313, Note_on_c, 0, 71, 0
2, 93408, Note_on_c, 0, 64, 97
2, 93409, Note_on_c, 0, 72, 0
2, 93504, Note_on_c, 0, 54, 97
2, 93504, Note_on_c, 0, 62, 97
2, 93505, Note_on_c, 0, 64, 0
2, 93505, Note_on_c, 0, 45, 0
2, 93600, Note_on_c, 0, 64, 97
2, 93601, Note_on_c, 0, 62, 0
2, 93696, Note_on_c, 0, 57, 97
2, 93696, Note_on_c, 0, 66, 97
2, 93697, Note_on_c, 0, 64, 0
2, 93697, Note_on_c, 0, 54, 0
2, 93792, Note_on_c, 0, 64, 97
2, 93793, Note_on_c, 0, 66, 0
2, 93888, Note_on_c, 0, 54, 97
2, 93888, Note_on_c, 0, 62, 97
2, 93889, Note_on_c, 0, 64, 0
2, 93889, Note_on_c, 0, 57, 0
2, 93984, Note_on_c, 0, 64, 97
2, 93985, Note_on_c, 0, 62, 0
2, 94080, Note_on_c, 0, 50, 97
2, 94080, Note_on_c, 0, 66, 97
2, 94081, Note_on_c, 0, 64, 0
2, 94081, Note_on_c, 0, 54, 0
2, 94176, Note_on_c, 0, 62, 97
2, 94177, Note_on_c, 0, 66, 0
2, 94264, Note_on_c, 0, 50, 0
2, 94272, Note_on_c, 0, 47, 97
2, 94272, Note_on_c, 0, 67, 97
2, 94273, Note_on_c, 0, 62, 0
2, 94368, Note_on_c, 0, 69, 97
2, 94369, Note_on_c, 0, 67, 0
2, 94456, Note_on_c, 0, 47, 0
2, 94464, Note_on_c, 0, 43, 97
2, 94464, Note_on_c, 0, 71, 97
2, 94465, Note_on_c, 0, 69, 0
2, 94560, Note_on_c, 0, 69, 97
2, 94561, Note_on_c, 0, 71, 0
2, 94656, Note_on_c, 0, 50, 97
2, 94656, Note_on_c, 0, 67, 97
2, 94657, Note_on_c, 0, 69, 0
2, 94657, Note_on_c, 0, 43, 0
2, 94752, Note_on_c, 0, 66, 97
2, 94753, Note_on_c, 0, 67, 0
2, 94848, Note_on_c, 0, 47, 97
2, 94848, Note_on_c, 0, 67, 97
2, 94849, Note_on_c, 0, 66, 0
2, 94849, Note_on_c, 0, 50, 0
2, 94944, Note_on_c, 0, 71, 97
2, 94945, Note_on_c, 0, 67, 0
2, 95032, Note_on_c, 0, 47, 0
2, 95040, Note_on_c, 0, 43, 97
2, 95040, Note_on_c, 0, 62, 97
2, 95041, Note_on_c, 0, 71, 0
2, 95136, Note_on_c, 0, 66, 97
2, 95137, Note_on_c, 0, 62, 0
2, 95224, Note_on_c, 0, 43, 0
2, 95232, Note_on_c, 0, 42, 97
2, 95232, Note_on_c, 0, 67, 97
2, 95233, Note_on_c, 0, 66, 0
2, 95328, Note_on_c, 0, 71, 97
2, 95329, Note_on_c, 0, 67, 0
2, 95424, Note_on_c, 0, 50, 97
2, 95424, Note_on_c, 0, 62, 97
2, 95425, Note_on_c, 0, 71, 0
2, 95425, Note_on_c, 0, 42, 0
2, 95504, Note_on_c, 0, 62, 0
2, 95520, Note_on_c, 0, 66, 97
2, 95585, Note_on_c, 0, 66, 0
2, 95616, Note_on_c, 0, 40, 97
2, 95616, Note_on_c, 0, 70, 97
2, 95617, Note_on_c, 0, 50, 0
2, 95712, Note_on_c, 0, 69, 97
2, 95713, Note_on_c, 0, 70, 0
2, 95808, Note_on_c, 0, 49, 97
2, 95808, Note_on_c, 0, 67, 97
2, 95809, Note_on_c, 0, 69, 0
2, 95809, Note_on_c, 0, 40, 0
2, 95904, Note_on_c, 0, 66, 97
2, 95905, Note_on_c, 0, 67, 0
2, 96000, Note_on_c, 0, 46, 97
2, 96000, Note_on_c, 0, 67, 97
2, 96001, Note_on_c, 0, 66, 0
2, 96001, Note_on_c, 0, 49, 0
2, 96096, Note_on_c, 0, 70, 97
2, 96097, Note_on_c, 0, 67, 0
2, 96184, Note_on_c, 0, 46, 0
2, 96192, Note_on_c, 0, 43, 97
2, 96192, Note_on_c, 0, 61, 97
2, 96193, Note_on_c, 0, 70, 0
2, 96288, Note_on_c, 0, 66, 97
2, 96289, Note_on_c, 0, 61, 0
2, 96374, Note_on_c, 0, 43, 0
2, 96384, Note_on_c, 0, 38, 97
2, 96384, Note_on_c, 0, 67, 97
2, 96385, Note_on_c, 0, 66, 0
2, 96480, Note_on_c, 0, 70, 97
2, 96481, Note_on_c, 0, 67, 0
2, 96576, Note_on_c, 0, 50, 97
2, 96576, Note_on_c, 0, 62, 97
2, 96577, Note_on_c, 0, 70, 0
2, 96577, Note_on_c, 0, 38, 0
2, 96656, Note_on_c, 0, 62, 0
2, 96672, Note_on_c, 0, 66, 97
2, 96747, Note_on_c, 0, 66, 0
2, 96768, Note_on_c, 0, 37, 97
2, 96768, Note_on_c, 0, 70, 97
2, 96769, Note_on_c, 0, 50, 0
2, 96864, Note_on_c, 0, 69, 97
2, 96865, Note_on_c, 0, 70, 0
2, 96960, Note_on_c, 0, 52, 97
2, 96960, Note_on_c, 0, 67, 97
2, 96961, Note_on_c, 0, 69, 0
2, 96961, Note_on_c, 0, 37, 0
2, 97056, Note_on_c, 0, 66, 97
2, 97057, Note_on_c, 0, 67, 0
2, 97152, Note_on_c, 0, 46, 97
2, 97152, Note_on_c, 0, 67, 97
2, 97153, Note_on_c, 0, 66, 0
2, 97153, Note_on_c, 0, 52, 0
2, 97248, Note_on_c, 0, 70, 97
2, 97249, Note_on_c, 0, 67, 0
2, 97336, Note_on_c, 0, 46, 0
2, 97344, Note_on_c, 0, 43, 97
2, 97344, Note_on_c, 0, 61, 97
2, 97345, Note_on_c, 0, 70, 0
2, 97440, Note_on_c, 0, 66, 97
2, 97441, Note_on_c, 0, 61, 0
2, 97528, Note_on_c, 0, 43, 0
2, 97536, Note_on_c, 0, 37, 97
2, 97536, Note_on_c, 0, 67, 97
2, 97537, Note_on_c, 0, 66, 0
2, 97632, Note_on_c, 0, 70, 97
2, 97633, Note_on_c, 0, 67, 0
2, 97728, Note_on_c, 0, 52, 97
2, 97728, Note_on_c, 0, 69, 97
2, 97729, Note_on_c, 0, 70, 0
2, 97729, Note_on_c, 0, 37, 0
2, 97808, Note_on_c, 0, 69, 0
2, 97824, Note_on_c, 0, 67, 97
2, 97904, Note_on_c, 0, 67, 0
2, 97921, Note_on_c, 0, 52, 0
2, 97968, Note_on_c, 0, 69, 97
2, 97968, Note_on_c, 0, 74, 97
2, 97968, Note_on_c, 0, 78, 97
2, 97968, Note_on_c, 0, 36, 97
2, 98608, Note_on_c, 0, 36, 0
2, 98608, Note_on_c, 0, 69, 0
2, 98608, Note_on_c, 0, 74, 0
2, 98608, Note_on_c, 0, 78, 0
2, 98880, Note_on_c, 0, 78, 97
2, 98976, Note_on_c, 0, 79, 97
2, 98977, Note_on_c, 0, 78, 0
2, 99072, Note_on_c, 0, 81, 97
2, 99073, Note_on_c, 0, 79, 0
2, 99168, Note_on_c, 0, 79, 97
2, 99169, Note_on_c, 0, 81, 0
2, 99264, Note_on_c, 0, 78, 97
2, 99265, Note_on_c, 0, 79, 0
2, 99360, Note_on_c, 0, 76, 97
2, 99361, Note_on_c, 0, 78, 0
2, 99456, Note_on_c, 0, 74, 97
2, 99457, Note_on_c, 0, 76, 0
2, 99552, Note_on_c, 0, 86, 97
2, 99596, Note_on_c, 0, 74, 0
2, 99648, Note_on_c, 0, 47, 97
2, 99744, Note_on_c, 0, 48, 97
2, 99744, Note_on_c, 0, 78, 97
2, 99745, Note_on_c, 0, 47, 0
2, 99745, Note_on_c, 0, 86, 0
2, 99840, Note_on_c, 0, 50, 97
2, 99841, Note_on_c, 0, 48, 0
2, 99936, Note_on_c, 0, 48, 97
2, 99936, Note_on_c, 0, 79, 97
2, 99937, Note_on_c, 0, 50, 0
2, 99937, Note_on_c, 0, 78, 0
2, 100032, Note_on_c, 0, 47, 97
2, 100033, Note_on_c, 0, 48, 0
2, 100128, Note_on_c, 0, 45, 97
2, 100128, Note_on_c, 0, 71, 97
2, 100129, Note_on_c, 0, 47, 0
2, 100129, Note_on_c, 0, 79, 0
2, 100224, Note_on_c, 0, 43, 97
2, 100225, Note_on_c, 0, 45, 0
2, 100320, Note_on_c, 0, 50, 97
2, 100320, Note_on_c, 0, 69, 97
2, 100321, Note_on_c, 0, 43, 0
2, 100321, Note_on_c, 0, 71, 0
2, 100480, Note_on_c, 0, 50, 0
2, 100480, Note_on_c, 0, 69, 0
2, 100512, Note_on_c, 0, 38, 97
2, 100512, Note_on_c, 0, 78, 97
2, 100672, Note_on_c, 0, 78, 0
2, 100672, Note_on_c, 0, 38, 0
2, 100704, Note_on_c, 0, 43, 97
2, 100704, Note_on_c, 0, 67, 97
2, 100800, Note_on_c, 0, 79, 97
2, 100801, Note_on_c, 0, 67, 0
2, 100896, Note_on_c, 0, 55, 97
2, 100896, Note_on_c, 0, 78, 97
2, 100897, Note_on_c, 0, 79, 0
2, 100897, Note_on_c, 0, 43, 0
2, 100992, Note_on_c, 0, 79, 97
2, 100993, Note_on_c, 0, 78, 0
2, 101086, Note_on_c, 0, 55, 0
2, 101088, Note_on_c, 0, 76, 97
2, 101089, Note_on_c, 0, 79, 0
2, 101184, Note_on_c, 0, 79, 97
2, 101185, Note_on_c, 0, 76, 0
2, 101280, Note_on_c, 0, 59, 97
2, 101280, Note_on_c, 0, 74, 97
2, 101281, Note_on_c, 0, 79, 0
2, 101370, Note_on_c, 0, 74, 0
2, 101376, Note_on_c, 0, 79, 97
2, 101472, Note_on_c, 0, 52, 97
2, 101472, Note_on_c, 0, 72, 97
2, 101473, Note_on_c, 0, 79, 0
2, 101473, Note_on_c, 0, 59, 0
2, 101562, Note_on_c, 0, 72, 0
2, 101568, Note_on_c, 0, 79, 97
2, 101664, Note_on_c, 0, 55, 97
2, 101664, Note_on_c, 0, 71, 97
2, 101665, Note_on_c, 0, 79, 0
2, 101665, Note_on_c, 0, 52, 0
2, 101754, Note_on_c, 0, 71, 0
2, 101760, Note_on_c, 0, 79, 97
2, 101856, Note_on_c, 0, 43, 97
2, 101856, Note_on_c, 0, 69, 97
2, 101857, Note_on_c, 0, 79, 0
2, 101857, Note_on_c, 0, 55, 0
2, 101952, Note_on_c, 0, 78, 97
2, 101953, Note_on_c, 0, 69, 0
2, 102048, Note_on_c, 0, 60, 97
2, 102048, Note_on_c, 0, 76, 97
2, 102049, Note_on_c, 0, 78, 0
2, 102049, Note_on_c, 0, 43, 0
2, 102144, Note_on_c, 0, 78, 97
2, 102145, Note_on_c, 0, 76, 0
2, 102238, Note_on_c, 0, 60, 0
2, 102240, Note_on_c, 0, 74, 97
2, 102241, Note_on_c, 0, 78, 0
2, 102336, Note_on_c, 0, 78, 97
2, 102337, Note_on_c, 0, 74, 0
2, 102432, Note_on_c, 0, 57, 97
2, 102432, Note_on_c, 0, 72, 97
2, 102433, Note_on_c, 0, 78, 0
2, 102522, Note_on_c, 0, 72, 0
2, 102528, Note_on_c, 0, 78, 97
2, 102624, Note_on_c, 0, 50, 97
2, 102624, Note_on_c, 0, 71, 97
2, 102625, Note_on_c, 0, 78, 0
2, 102625, Note_on_c, 0, 57, 0
2, 102714, Note_on_c, 0, 71, 0
2, 102720, Note_on_c, 0, 78, 97
2, 102816, Note_on_c, 0, 54, 97
2, 102816, Note_on_c, 0, 69, 97
2, 102817, Note_on_c, 0, 78, 0
2, 102817, Note_on_c, 0, 50, 0
2, 102906, Note_on_c, 0, 69, 0
2, 102912, Note_on_c, 0, 72, 97
2, 103008, Note_on_c, 0, 43, 97
2, 103008, Note_on_c, 0, 77, 97
2, 103009, Note_on_c, 0, 72, 0
2, 103009, Note_on_c, 0, 54, 0
2, 103104, Note_on_c, 0, 59, 97
2, 103104, Note_on_c, 0, 67, 97
2, 103105, Note_on_c, 0, 43, 0
2, 103105, Note_on_c, 0, 77, 0
2, 103200, Note_on_c, 0, 57, 97
2, 103200, Note_on_c, 0, 66, 97
2, 103201, Note_on_c, 0, 59, 0
2, 103201, Note_on_c, 0, 67, 0
2, 103296, Note_on_c, 0, 59, 97
2, 103296, Note_on_c, 0, 67, 97
2, 103297, Note_on_c, 0, 57, 0
2, 103297, Note_on_c, 0, 66, 0
2, 103392, Note_on_c, 0, 55, 97
2, 103392, Note_on_c, 0, 69, 97
2, 103393, Note_on_c, 0, 59, 0
2, 103393, Note_on_c, 0, 67, 0
2, 103488, Note_on_c, 0, 59, 97
2, 103488, Note_on_c, 0, 67, 97
2, 103489, Note_on_c, 0, 55, 0
2, 103489, Note_on_c, 0, 69, 0
2, 103584, Note_on_c, 0, 53, 97
2, 103584, Note_on_c, 0, 71, 97
2, 103585, Note_on_c, 0, 59, 0
2, 103585, Note_on_c, 0, 67, 0
2, 103674, Note_on_c, 0, 71, 0
2, 103680, Note_on_c, 0, 59, 97
2, 103680, Note_on_c, 0, 67, 97
2, 103681, Note_on_c, 0, 53, 0
2, 103776, Note_on_c, 0, 52, 97
2, 103776, Note_on_c, 0, 72, 97
2, 103777, Note_on_c, 0, 67, 0
2, 103777, Note_on_c, 0, 59, 0
2, 103866, Note_on_c, 0, 72, 0
2, 103872, Note_on_c, 0, 59, 97
2, 103872, Note_on_c, 0, 67, 97
2, 103873, Note_on_c, 0, 52, 0
2, 103968, Note_on_c, 0, 50, 97
2, 103968, Note_on_c, 0, 74, 97
2, 103969, Note_on_c, 0, 67, 0
2, 103969, Note_on_c, 0, 59, 0
2, 104058, Note_on_c, 0, 74, 0
2, 104064, Note_on_c, 0, 59, 97
2, 104064, Note_on_c, 0, 67, 97
2, 104065, Note_on_c, 0, 50, 0
2, 104160, Note_on_c, 0, 48, 97
2, 104160, Note_on_c, 0, 76, 97
2, 104161, Note_on_c, 0, 67, 0
2, 104161, Note_on_c, 0, 59, 0
2, 104256, Note_on_c, 0, 57, 97
2, 104256, Note_on_c, 0, 66, 97
2, 104257, Note_on_c, 0, 48, 0
2, 104257, Note_on_c, 0, 76, 0
2, 104352, Note_on_c, 0, 55, 97
2, 104352, Note_on_c, 0, 64, 97
2, 104353, Note_on_c, 0, 57, 0
2, 104353, Note_on_c, 0, 66, 0
2, 104448, Note_on_c, 0, 57, 97
2, 104448, Note_on_c, 0, 66, 97
2, 104449, Note_on_c, 0, 55, 0
2, 104449, Note_on_c, 0, 64, 0
2, 104544, Note_on_c, 0, 54, 97
2, 104544, Note_on_c, 0, 67, 97
2, 104545, Note_on_c, 0, 57, 0
2, 104545, Note_on_c, 0, 66, 0
2, 104640, Note_on_c, 0, 57, 97
2, 104640, Note_on_c, 0, 66, 97
2, 104641, Note_on_c, 0, 54, 0
2, 104641, Note_on_c, 0, 67, 0
2, 104736, Note_on_c, 0, 52, 97
2, 104736, Note_on_c, 0, 69, 97
2, 104737, Note_on_c, 0, 57, 0
2, 104737, Note_on_c, 0, 66, 0
2, 104826, Note_on_c, 0, 69, 0
2, 104832, Note_on_c, 0, 57, 97
2, 104832, Note_on_c, 0, 66, 97
2, 104833, Note_on_c, 0, 52, 0
2, 104928, Note_on_c, 0, 50, 97
2, 104928, Note_on_c, 0, 71, 97
2, 104929, Note_on_c, 0, 66, 0
2, 104929, Note_on_c, 0, 57, 0
2, 105018, Note_on_c, 0, 71, 0
2, 105024, Note_on_c, 0, 57, 97
2, 105024, Note_on_c, 0, 66, 97
2, 105025, Note_on_c, 0, 50, 0
2, 105120, Note_on_c, 0, 48, 97
2, 105120, Note_on_c, 0, 72, 97
2, 105121, Note_on_c, 0, 66, 0
2, 105121, Note_on_c, 0, 57, 0
2, 105210, Note_on_c, 0, 72, 0
2, 105216, Note_on_c, 0, 57, 97
2, 105216, Note_on_c, 0, 66, 97
2, 105217, Note_on_c, 0, 48, 0
2, 105312, Note_on_c, 0, 47, 97
2, 105312, Note_on_c, 0, 74, 97
2, 105313, Note_on_c, 0, 66, 0
2, 105313, Note_on_c, 0, 57, 0
2, 105408, Note_on_c, 0, 55, 97
2, 105408, Note_on_c, 0, 64, 97
2, 105409, Note_on_c, 0, 47, 0
2, 105409, Note_on_c, 0, 74, 0
2, 105504, Note_on_c, 0, 54, 97
2, 105504, Note_on_c, 0, 62, 97
2, 105505, Note_on_c, 0, 55, 0
2, 105505, Note_on_c, 0, 64, 0
2, 105600, Note_on_c, 0, 55, 97
2, 105600, Note_on_c, 0, 64, 97
2, 105601, Note_on_c, 0, 54, 0
2, 105601, Note_on_c, 0, 62, 0
2, 105696, Note_on_c, 0, 52, 97
2, 105696, Note_on_c, 0, 66, 97
2, 105697, Note_on_c, 0, 55, 0
2, 105697, Note_on_c, 0, 64, 0
2, 105792, Note_on_c, 0, 55, 97
2, 105792, Note_on_c, 0, 64, 97
2, 105793, Note_on_c, 0, 52, 0
2, 105793, Note_on_c, 0, 66, 0
2, 105888, Note_on_c, 0, 50, 97
2, 105888, Note_on_c, 0, 67, 97
2, 105889, Note_on_c, 0, 55, 0
2, 105889, Note_on_c, 0, 64, 0
2, 105978, Note_on_c, 0, 67, 0
2, 105984, Note_on_c, 0, 55, 97
2, 105984, Note_on_c, 0, 64, 97
2, 105985, Note_on_c, 0, 50, 0
2, 106080, Note_on_c, 0, 48, 97
2, 106080, Note_on_c, 0, 69, 97
2, 106081, Note_on_c, 0, 64, 0
2, 106081, Note_on_c, 0, 55, 0
2, 106170, Note_on_c, 0, 69, 0
2, 106176, Note_on_c, 0, 55, 97
2, 106176, Note_on_c, 0, 64, 97
2, 106177, Note_on_c, 0, 48, 0
2, 106272, Note_on_c, 0, 47, 97
2, 106272, Note_on_c, 0, 71, 97
2, 106273, Note_on_c, 0, 64, 0
2, 106273, Note_on_c, 0, 55, 0
2, 106362, Note_on_c, 0, 71, 0
2, 106368, Note_on_c, 0, 55, 97
2, 106368, Note_on_c, 0, 64, 97
2, 106369, Note_on_c, 0, 47, 0
2, 106464, Note_on_c, 0, 45, 97
2, 106464, Note_on_c, 0, 72, 97
2, 106465, Note_on_c, 0, 64, 0
2, 106465, Note_on_c, 0, 55, 0
2, 106560, Note_on_c, 0, 48, 97
2, 106561, Note_on_c, 0, 45, 0
2, 106656, Note_on_c, 0, 52, 97
2, 106657, Note_on_c, 0, 48, 0
2, 106752, Note_on_c, 0, 55, 97
2, 106753, Note_on_c, 0, 52, 0
2, 106848, Note_on_c, 0, 54, 97
2, 106849, Note_on_c, 0, 55, 0
2, 106944, Note_on_c, 0, 62, 97
2, 106945, Note_on_c, 0, 72, 0
2, 107040, Note_on_c, 0, 50, 97
2, 107040, Note_on_c, 0, 69, 97
2, 107041, Note_on_c, 0, 62, 0
2, 107041, Note_on_c, 0, 54, 0
2, 107136, Note_on_c, 0, 72, 97
2, 107137, Note_on_c, 0, 69, 0
2, 107232, Note_on_c, 0, 55, 97
2, 107232, Note_on_c, 0, 71, 97
2, 107233, Note_on_c, 0, 72, 0
2, 107233, Note_on_c, 0, 50, 0
2, 107328, Note_on_c, 0, 69, 97
2, 107329, Note_on_c, 0, 71, 0
2, 107424, Note_on_c, 0, 47, 97
2, 107424, Note_on_c, 0, 67, 97
2, 107425, Note_on_c, 0, 69, 0
2, 107425, Note_on_c, 0, 55, 0
2, 107520, Note_on_c, 0, 66, 97
2, 107521, Note_on_c, 0, 67, 0
2, 107616, Note_on_c, 0, 48, 97
2, 107616, Note_on_c, 0, 64, 97
2, 107617, Note_on_c, 0, 66, 0
2, 107617, Note_on_c, 0, 47, 0
2, 107712, Note_on_c, 0, 62, 97
2, 107713, Note_on_c, 0, 64, 0
2, 107808, Note_on_c, 0, 45, 97
2, 107808, Note_on_c, 0, 60, 97
2, 107809, Note_on_c, 0, 62, 0
2, 107809, Note_on_c, 0, 48, 0
2, 107904, Note_on_c, 0, 59, 97
2, 107905, Note_on_c, 0, 60, 0
2, 108000, Note_on_c, 0, 57, 97
2, 108000, Note_on_c, 0, 50, 97
2, 108001, Note_on_c, 0, 59, 0
2, 108001, Note_on_c, 0, 45, 0
2, 108096, Note_on_c, 0, 55, 97
2, 108097, Note_on_c, 0, 57, 0
2, 108192, Note_on_c, 0, 54, 97
2, 108193, Note_on_c, 0, 55, 0
2, 108280, Note_on_c, 0, 50, 0
2, 108288, Note_on_c, 0, 52, 97
2, 108289, Note_on_c, 0, 54, 0
2, 108384, Note_on_c, 0, 38, 97
2, 108384, Note_on_c, 0, 50, 97
2, 108385, Note_on_c, 0, 52, 0
2, 108480, Note_on_c, 0, 48, 97
2, 108481, Note_on_c, 0, 50, 0
2, 108576, Note_on_c, 0, 47, 97
2, 108577, Note_on_c, 0, 48, 0
2, 108664, Note_on_c, 0, 38, 0
2, 108672, Note_on_c, 0, 45, 97
2, 108673, Note_on_c, 0, 47, 0
2, 108768, Note_on_c, 0, 43, 97
2, 108768, Note_on_c, 0, 31, 97
2, 108769, Note_on_c, 0, 45, 0
2, 109920, Note_on_c, 0, 31, 0
2, 109920, Note_on_c, 0, 43, 0
2, 112814, Note_on_c, 0, 79, 97
2, 112884, Note_on_c, 0, 79, 0
2, 112896, Note_on_c, 0, 55, 97
2, 112896, Note_on_c, 0, 79, 97
2, 112896, Note_on_c, 0, 74, 97
2, 112896, Note_on_c, 0, 71, 97
2, 113088, Note_on_c, 0, 43, 97
2, 113151, Note_on_c, 0, 71, 0
2, 113151, Note_on_c, 0, 74, 0
2, 113184, Note_on_c, 0, 79, 0
2, 113184, Note_on_c, 0, 78, 97
2, 113232, Note_on_c, 0, 78, 0
2, 113232, Note_on_c, 0, 76, 97
2, 113279, Note_on_c, 0, 43, 0
2, 113280, Note_on_c, 0, 76, 0
2, 113280, Note_on_c, 0, 47, 97
2, 113280, Note_on_c, 0, 74, 97
2, 113343, Note_on_c, 0, 74, 0
2, 113344, Note_on_c, 0, 72, 97
2, 113407, Note_on_c, 0, 72, 0
2, 113408, Note_on_c, 0, 71, 97
2, 113471, Note_on_c, 0, 71, 0
2, 113471, Note_on_c, 0, 47, 0
2, 113471, Note_on_c, 0, 55, 0
2, 113472, Note_on_c, 0, 50, 97
2, 113472, Note_on_c, 0, 54, 97
2, 113472, Note_on_c, 0, 72, 97
2, 113535, Note_on_c, 0, 72, 0
2, 113536, Note_on_c, 0, 71, 97
2, 113599, Note_on_c, 0, 71, 0
2, 113600, Note_on_c, 0, 69, 97
2, 113663, Note_on_c, 0, 69, 0
2, 113663, Note_on_c, 0, 54, 0
2, 113663, Note_on_c, 0, 50, 0
2, 113664, Note_on_c, 0, 55, 97
2, 113664, Note_on_c, 0, 71, 97
2, 113727, Note_on_c, 0, 71, 0
2, 113728, Note_on_c, 0, 67, 97
2, 113791, Note_on_c, 0, 67, 0
2, 113792, Note_on_c, 0, 69, 97
2, 113855, Note_on_c, 0, 69, 0
2, 113856, Note_on_c, 0, 71, 97
2, 113928, Note_on_c, 0, 71, 0
2, 113934, Note_on_c, 0, 55, 0
2, 113938, Note_on_c, 0, 69, 97
2, 113940, Note_on_c, 0, 54, 97
2, 113993, Note_on_c, 0, 67, 97
2, 113994, Note_on_c, 0, 69, 0
2, 113994, Note_on_c, 0, 52, 97
2, 113996, Note_on_c, 0, 54, 0
2, 114044, Note_on_c, 0, 52, 0
2, 114048, Note_on_c, 0, 50, 97
2, 114048, Note_on_c, 0, 74, 97
2, 114049, Note_on_c, 0, 67, 0
2, 114111, Note_on_c, 0, 50, 0
2, 114112, Note_on_c, 0, 48, 97
2, 114175, Note_on_c, 0, 48, 0
2, 114176, Note_on_c, 0, 47, 97
2, 114239, Note_on_c, 0, 47, 0
2, 114240, Note_on_c, 0, 48, 97
2, 114303, Note_on_c, 0, 48, 0
2, 114304, Note_on_c, 0, 47, 97
2, 114366, Note_on_c, 0, 74, 97
2, 114367, Note_on_c, 0, 47, 0
2, 114367, Note_on_c, 0, 74, 0
2, 114368, Note_on_c, 0, 45, 97
2, 114388, Note_on_c, 0, 74, 0
2, 114388, Note_on_c, 0, 72, 97
2, 114410, Note_on_c, 0, 74, 97
2, 114411, Note_on_c, 0, 72, 0
2, 114431, Note_on_c, 0, 74, 0
2, 114431, Note_on_c, 0, 45, 0
2, 114432, Note_on_c, 0, 47, 97
2, 114432, Note_on_c, 0, 79, 97
2, 114495, Note_on_c, 0, 79, 0
2, 114496, Note_on_c, 0, 81, 97
2, 114559, Note_on_c, 0, 81, 0
2, 114560, Note_on_c, 0, 83, 97
2, 114623, Note_on_c, 0, 83, 0
2, 114623, Note_on_c, 0, 47, 0
2, 114624, Note_on_c, 0, 43, 97
2, 114624, Note_on_c, 0, 74, 97
2, 114687, Note_on_c, 0, 74, 0
2, 114688, Note_on_c, 0, 76, 97
2, 114751, Note_on_c, 0, 76, 0
2, 114752, Note_on_c, 0, 77, 97
2, 114815, Note_on_c, 0, 77, 0
2, 114815, Note_on_c, 0, 43, 0
2, 114816, Note_on_c, 0, 48, 97
2, 114816, Note_on_c, 0, 76, 97
2, 114879, Note_on_c, 0, 76, 0
2, 114880, Note_on_c, 0, 81, 97
2, 114943, Note_on_c, 0, 81, 0
2, 114944, Note_on_c, 0, 83, 97
2, 115007, Note_on_c, 0, 83, 0
2, 115007, Note_on_c, 0, 48, 0
2, 115008, Note_on_c, 0, 45, 97
2, 115008, Note_on_c, 0, 84, 97
2, 115071, Note_on_c, 0, 84, 0
2, 115072, Note_on_c, 0, 83, 97
2, 115135, Note_on_c, 0, 83, 0
2, 115136, Note_on_c, 0, 81, 97
2, 115199, Note_on_c, 0, 81, 0
2, 115199, Note_on_c, 0, 45, 0
2, 115200, Note_on_c, 0, 50, 97
2, 115200, Note_on_c, 0, 79, 97
2, 115263, Note_on_c, 0, 50, 0
2, 115264, Note_on_c, 0, 57, 97
2, 115327, Note_on_c, 0, 57, 0
2, 115328, Note_on_c, 0, 59, 97
2, 115391, Note_on_c, 0, 59, 0
2, 115392, Note_on_c, 0, 60, 97
2, 115423, Note_on_c, 0, 79, 0
2, 115424, Note_on_c, 0, 78, 97
2, 115455, Note_on_c, 0, 60, 0
2, 115456, Note_on_c, 0, 59, 97
2, 115456, Note_on_c, 0, 79, 97
2, 115460, Note_on_c, 0, 78, 0
2, 115488, Note_on_c, 0, 78, 97
2, 115492, Note_on_c, 0, 79, 0
2, 115519, Note_on_c, 0, 59, 0
2, 115520, Note_on_c, 0, 57, 97
2, 115520, Note_on_c, 0, 79, 97
2, 115524, Note_on_c, 0, 78, 0
2, 115583, Note_on_c, 0, 79, 0
2, 115583, Note_on_c, 0, 57, 0
2, 115584, Note_on_c, 0, 55, 97
2, 115584, Note_on_c, 0, 79, 97
2, 115647, Note_on_c, 0, 55, 0
2, 115648, Note_on_c, 0, 54, 97
2, 115711, Note_on_c, 0, 54, 0
2, 115712, Note_on_c, 0, 55, 97
2, 115775, Note_on_c, 0, 55, 0
2, 115775, Note_on_c, 0, 79, 0
2, 115776, Note_on_c, 0, 57, 97
2, 115776, Note_on_c, 0, 81, 97
2, 115839, Note_on_c, 0, 57, 0
2, 115840, Note_on_c, 0, 55, 97
2, 115903, Note_on_c, 0, 55, 0
2, 115904, Note_on_c, 0, 54, 97
2, 115966, Note_on_c, 0, 81, 0
2, 115967, Note_on_c, 0, 54, 0
2, 115968, Note_on_c, 0, 64, 97
2, 116032, Note_on_c, 0, 72, 97
2, 116095, Note_on_c, 0, 72, 0
2, 116096, Note_on_c, 0, 71, 97
2, 116159, Note_on_c, 0, 71, 0
2, 116159, Note_on_c, 0, 64, 0
2, 116160, Note_on_c, 0, 63, 97
2, 116160, Note_on_c, 0, 72, 97
2, 116223, Note_on_c, 0, 72, 0
2, 116224, Note_on_c, 0, 71, 97
2, 116287, Note_on_c, 0, 71, 0
2, 116288, Note_on_c, 0, 69, 97
2, 116351, Note_on_c, 0, 69, 0
2, 116352, Note_on_c, 0, 71, 97
2, 116415, Note_on_c, 0, 63, 0
2, 116416, Note_on_c, 0, 63, 97
2, 116479, Note_on_c, 0, 63, 0
2, 116480, Note_on_c, 0, 61, 97
2, 116543, Note_on_c, 0, 61, 0
2, 116543, Note_on_c, 0, 71, 0
2, 116544, Note_on_c, 0, 63, 97
2, 116544, Note_on_c, 0, 81, 97
2, 116607, Note_on_c, 0, 63, 0
2, 116608, Note_on_c, 0, 61, 97
2, 116671, Note_on_c, 0, 61, 0
2, 116672, Note_on_c, 0, 59, 97
2, 116735, Note_on_c, 0, 59, 0
2, 116736, Note_on_c, 0, 64, 97
2, 116774, Note_on_c, 0, 81, 0
2, 116800, Note_on_c, 0, 79, 97
2, 116863, Note_on_c, 0, 79, 0
2, 116864, Note_on_c, 0, 81, 97
2, 116927, Note_on_c, 0, 81, 0
2, 116927, Note_on_c, 0, 64, 0
2, 116928, Note_on_c, 0, 52, 97
2, 116928, Note_on_c, 0, 83, 97
2, 116991, Note_on_c, 0, 83, 0
2, 116992, Note_on_c, 0, 81, 97
2, 117055, Note_on_c, 0, 81, 0
2, 117056, Note_on_c, 0, 79, 97
2, 117119, Note_on_c, 0, 79, 0
2, 117119, Note_on_c, 0, 52, 0
2, 117120, Note_on_c, 0, 55, 97
2, 117120, Note_on_c, 0, 78, 97
2, 117183, Note_on_c, 0, 78, 0
2, 117184, Note_on_c, 0, 76, 97
2, 117247, Note_on_c, 0, 76, 0
2, 117248, Note_on_c, 0, 78, 97
2, 117311, Note_on_c, 0, 78, 0
2, 117311, Note_on_c, 0, 55, 0
2, 117312, Note_on_c, 0, 52, 97
2, 117312, Note_on_c, 0, 79, 97
2, 117375, Note_on_c, 0, 79, 0
2, 117376, Note_on_c, 0, 78, 97
2, 117439, Note_on_c, 0, 78, 0
2, 117440, Note_on_c, 0, 76, 97
2, 117503, Note_on_c, 0, 76, 0
2, 117503, Note_on_c, 0, 52, 0
2, 117504, Note_on_c, 0, 57, 97
2, 117504, Note_on_c, 0, 74, 97
2, 117567, Note_on_c, 0, 74, 0
2, 117568, Note_on_c, 0, 73, 97
2, 117631, Note_on_c, 0, 73, 0
2, 117632, Note_on_c, 0, 74, 97
2, 117695, Note_on_c, 0, 74, 0
2, 117695, Note_on_c, 0, 57, 0
2, 117696, Note_on_c, 0, 45, 97
2, 117696, Note_on_c, 0, 76, 97
2, 117759, Note_on_c, 0, 76, 0
2, 117760, Note_on_c, 0, 74, 97
2, 117823, Note_on_c, 0, 74, 0
2, 117824, Note_on_c, 0, 73, 97
2, 117887, Note_on_c, 0, 73, 0
2, 117888, Note_on_c, 0, 71, 97
2, 117946, Note_on_c, 0, 45, 0
2, 117951, Note_on_c, 0, 71, 0
2, 117952, Note_on_c, 0, 49, 97
2, 117952, Note_on_c, 0, 69, 97
2, 118015, Note_on_c, 0, 69, 0
2, 118015, Note_on_c, 0, 49, 0
2, 118016, Note_on_c, 0, 47, 97
2, 118079, Note_on_c, 0, 47, 0
2, 118080, Note_on_c, 0, 49, 97
2, 118080, Note_on_c, 0, 79, 97
2, 118143, Note_on_c, 0, 49, 0
2, 118144, Note_on_c, 0, 47, 97
2, 118207, Note_on_c, 0, 47, 0
2, 118208, Note_on_c, 0, 45, 97
2, 118271, Note_on_c, 0, 45, 0
2, 118272, Note_on_c, 0, 50, 97
2, 118330, Note_on_c, 0, 79, 0
2, 118336, Note_on_c, 0, 78, 97
2, 118399, Note_on_c, 0, 78, 0
2, 118400, Note_on_c, 0, 79, 97
2, 118463, Note_on_c, 0, 79, 0
2, 118463, Note_on_c, 0, 50, 0
2, 118464, Note_on_c, 0, 38, 97
2, 118464, Note_on_c, 0, 81, 97
2, 118527, Note_on_c, 0, 81, 0
2, 118528, Note_on_c, 0, 79, 97
2, 118591, Note_on_c, 0, 79, 0
2, 118592, Note_on_c, 0, 78, 97
2, 118655, Note_on_c, 0, 78, 0
2, 118655, Note_on_c, 0, 38, 0
2, 118656, Note_on_c, 0, 42, 97
2, 118656, Note_on_c, 0, 76, 97
2, 118719, Note_on_c, 0, 76, 0
2, 118720, Note_on_c, 0, 74, 97
2, 118783, Note_on_c, 0, 74, 0
2, 118784, Note_on_c, 0, 76, 97
2, 118847, Note_on_c, 0, 76, 0
2, 118847, Note_on_c, 0, 42, 0
2, 118848, Note_on_c, 0, 38, 97
2, 118848, Note_on_c, 0, 78, 97
2, 118911, Note_on_c, 0, 78, 0
2, 118912, Note_on_c, 0, 76, 97
2, 118975, Note_on_c, 0, 76, 0
2, 118976, Note_on_c, 0, 74, 97
2, 119039, Note_on_c, 0, 74, 0
2, 119039, Note_on_c, 0, 38, 0
2, 119040, Note_on_c, 0, 43, 97
2, 119040, Note_on_c, 0, 72, 97
2, 119103, Note_on_c, 0, 72, 0
2, 119104, Note_on_c, 0, 71, 97
2, 119167, Note_on_c, 0, 71, 0
2, 119168, Note_on_c, 0, 72, 97
2, 119231, Note_on_c, 0, 72, 0
2, 119231, Note_on_c, 0, 43, 0
2, 119232, Note_on_c, 0, 55, 97
2, 119232, Note_on_c, 0, 74, 97
2, 119295, Note_on_c, 0, 74, 0
2, 119296, Note_on_c, 0, 72, 97
2, 119359, Note_on_c, 0, 72, 0
2, 119360, Note_on_c, 0, 71, 97
2, 119423, Note_on_c, 0, 71, 0
2, 119424, Note_on_c, 0, 69, 97
2, 119482, Note_on_c, 0, 55, 0
2, 119487, Note_on_c, 0, 69, 0
2, 119488, Note_on_c, 0, 55, 97
2, 119488, Note_on_c, 0, 67, 97
2, 119551, Note_on_c, 0, 67, 0
2, 119551, Note_on_c, 0, 55, 0
2, 119552, Note_on_c, 0, 57, 97
2, 119615, Note_on_c, 0, 57, 0
2, 119616, Note_on_c, 0, 59, 97
2, 119616, Note_on_c, 0, 77, 97
2, 119679, Note_on_c, 0, 59, 0
2, 119680, Note_on_c, 0, 59, 97
2, 119743, Note_on_c, 0, 59, 0
2, 119744, Note_on_c, 0, 61, 97
2, 119807, Note_on_c, 0, 61, 0
2, 119808, Note_on_c, 0, 62, 97
2, 119871, Note_on_c, 0, 77, 0
2, 119872, Note_on_c, 0, 76, 97
2, 119935, Note_on_c, 0, 76, 0
2, 119936, Note_on_c, 0, 74, 97
2, 119999, Note_on_c, 0, 74, 0
2, 119999, Note_on_c, 0, 62, 0
2, 120000, Note_on_c, 0, 56, 97
2, 120000, Note_on_c, 0, 76, 97
2, 120063, Note_on_c, 0, 76, 0
2, 120064, Note_on_c, 0, 74, 97
2, 120127, Note_on_c, 0, 74, 0
2, 120128, Note_on_c, 0, 73, 97
2, 120191, Note_on_c, 0, 73, 0
2, 120191, Note_on_c, 0, 56, 0
2, 120192, Note_on_c, 0, 59, 97
2, 120192, Note_on_c, 0, 74, 97
2, 120255, Note_on_c, 0, 74, 0
2, 120256, Note_on_c, 0, 73, 97
2, 120319, Note_on_c, 0, 73, 0
2, 120320, Note_on_c, 0, 71, 97
2, 120383, Note_on_c, 0, 71, 0
2, 120383, Note_on_c, 0, 59, 0
2, 120384, Note_on_c, 0, 52, 97
2, 120384, Note_on_c, 0, 80, 97
2, 120511, Note_on_c, 0, 80, 0
2, 120512, Note_on_c, 0, 81, 97
2, 120575, Note_on_c, 0, 81, 0
2, 120575, Note_on_c, 0, 52, 0
2, 120576, Note_on_c, 0, 45, 97
2, 120576, Note_on_c, 0, 57, 97
2, 120576, Note_on_c, 0, 52, 97
2, 120576, Note_on_c, 0, 74, 97
2, 120766, Note_on_c, 0, 74, 0
2, 120768, Note_on_c, 0, 73, 97
2, 120800, Note_on_c, 0, 74, 97
2, 120806, Note_on_c, 0, 73, 0
2, 120831, Note_on_c, 0, 45, 0
2, 120831, Note_on_c, 0, 52, 0
2, 120831, Note_on_c, 0, 57, 0
2, 120832, Note_on_c, 0, 55, 97
2, 120832, Note_on_c, 0, 73, 97
2, 120838, Note_on_c, 0, 74, 0
2, 120864, Note_on_c, 0, 74, 97
2, 120870, Note_on_c, 0, 73, 0
2, 120895, Note_on_c, 0, 55, 0
2, 120896, Note_on_c, 0, 54, 97
2, 120896, Note_on_c, 0, 73, 97
2, 120902, Note_on_c, 0, 74, 0
2, 120928, Note_on_c, 0, 74, 97
2, 120934, Note_on_c, 0, 73, 0
2, 120959, Note_on_c, 0, 54, 0
2, 120960, Note_on_c, 0, 52, 97
2, 120960, Note_on_c, 0, 73, 97
2, 120966, Note_on_c, 0, 74, 0
2, 121023, Note_on_c, 0, 73, 0
2, 121023, Note_on_c, 0, 52, 0
2, 121024, Note_on_c, 0, 50, 97
2, 121024, Note_on_c, 0, 74, 97
2, 121087, Note_on_c, 0, 74, 0
2, 121087, Note_on_c, 0, 50, 0
2, 121088, Note_on_c, 0, 49, 97
2, 121088, Note_on_c, 0, 76, 97
2, 121151, Note_on_c, 0, 76, 0
2, 121151, Note_on_c, 0, 49, 0
2, 121152, Note_on_c, 0, 50, 97
2, 121152, Note_on_c, 0, 67, 97
2, 121215, Note_on_c, 0, 50, 0
2, 121216, Note_on_c, 0, 49, 97
2, 121279, Note_on_c, 0, 49, 0
2, 121279, Note_on_c, 0, 67, 0
2, 121280, Note_on_c, 0, 47, 97
2, 121280, Note_on_c, 0, 67, 97
2, 121343, Note_on_c, 0, 47, 0
2, 121344, Note_on_c, 0, 49, 97
2, 121344, Note_on_c, 0, 76, 97
2, 121407, Note_on_c, 0, 49, 0
2, 121408, Note_on_c, 0, 45, 97
2, 121466, Note_on_c, 0, 67, 0
2, 121471, Note_on_c, 0, 45, 0
2, 121472, Note_on_c, 0, 47, 97
2, 121472, Note_on_c, 0, 66, 97
2, 121535, Note_on_c, 0, 66, 0
2, 121535, Note_on_c, 0, 47, 0
2, 121536, Note_on_c, 0, 49, 97
2, 121536, Note_on_c, 0, 64, 97
2, 121599, Note_on_c, 0, 49, 0
2, 121600, Note_on_c, 0, 47, 97
2, 121663, Note_on_c, 0, 47, 0
2, 121663, Note_on_c, 0, 64, 0
2, 121664, Note_on_c, 0, 45, 97
2, 121664, Note_on_c, 0, 69, 97
2, 121727, Note_on_c, 0, 69, 0
2, 121727, Note_on_c, 0, 45, 0
2, 121728, Note_on_c, 0, 50, 97
2, 121728, Note_on_c, 0, 66, 97
2, 121791, Note_on_c, 0, 50, 0
2, 121792, Note_on_c, 0, 54, 97
2, 121855, Note_on_c, 0, 54, 0
2, 121855, Note_on_c, 0, 76, 0
2, 121856, Note_on_c, 0, 52, 97
2, 121856, Note_on_c, 0, 69, 97
2, 121919, Note_on_c, 0, 69, 0
2, 121919, Note_on_c, 0, 52, 0
2, 121920, Note_on_c, 0, 50, 97
2, 121920, Note_on_c, 0, 74, 97
2, 121983, Note_on_c, 0, 50, 0
2, 121984, Note_on_c, 0, 52, 97
2, 122047, Note_on_c, 0, 52, 0
2, 122047, Note_on_c, 0, 74, 0
2, 122048, Note_on_c, 0, 54, 97
2, 122048, Note_on_c, 0, 72, 97
2, 122111, Note_on_c, 0, 72, 0
2, 122111, Note_on_c, 0, 54, 0
2, 122112, Note_on_c, 0, 55, 97
2, 122112, Note_on_c, 0, 71, 97
2, 122175, Note_on_c, 0, 55, 0
2, 122176, Note_on_c, 0, 57, 97
2, 122239, Note_on_c, 0, 57, 0
2, 122239, Note_on_c, 0, 66, 0
2, 122240, Note_on_c, 0, 59, 97
2, 122240, Note_on_c, 0, 64, 97
2, 122303, Note_on_c, 0, 64, 0
2, 122303, Note_on_c, 0, 59, 0
2, 122304, Note_on_c, 0, 51, 97
2, 122304, Note_on_c, 0, 66, 97
2, 122367, Note_on_c, 0, 51, 0
2, 122368, Note_on_c, 0, 52, 97
2, 122431, Note_on_c, 0, 52, 0
2, 122431, Note_on_c, 0, 66, 0
2, 122432, Note_on_c, 0, 54, 97
2, 122432, Note_on_c, 0, 69, 97
2, 122495, Note_on_c, 0, 69, 0
2, 122495, Note_on_c, 0, 54, 0
2, 122496, Note_on_c, 0, 52, 97
2, 122496, Note_on_c, 0, 67, 97
2, 122559, Note_on_c, 0, 52, 0
2, 122560, Note_on_c, 0, 59, 97
2, 122623, Note_on_c, 0, 59, 0
2, 122623, Note_on_c, 0, 71, 0
2, 122624, Note_on_c, 0, 61, 97
2, 122624, Note_on_c, 0, 79, 97
2, 122687, Note_on_c, 0, 79, 0
2, 122687, Note_on_c, 0, 61, 0
2, 122688, Note_on_c, 0, 62, 97
2, 122688, Note_on_c, 0, 78, 97
2, 122751, Note_on_c, 0, 62, 0
2, 122752, Note_on_c, 0, 61, 97
2, 122815, Note_on_c, 0, 61, 0
2, 122815, Note_on_c, 0, 78, 0
2, 122816, Note_on_c, 0, 59, 97
2, 122816, Note_on_c, 0, 79, 97
2, 122879, Note_on_c, 0, 79, 0
2, 122879, Note_on_c, 0, 59, 0
2, 122880, Note_on_c, 0, 61, 97
2, 122880, Note_on_c, 0, 69, 97
2, 122943, Note_on_c, 0, 61, 0
2, 122944, Note_on_c, 0, 57, 97
2, 123007, Note_on_c, 0, 57, 0
2, 123007, Note_on_c, 0, 67, 0
2, 123008, Note_on_c, 0, 59, 97
2, 123008, Note_on_c, 0, 67, 97
2, 123071, Note_on_c, 0, 67, 0
2, 123071, Note_on_c, 0, 59, 0
2, 123072, Note_on_c, 0, 61, 97
2, 123072, Note_on_c, 0, 66, 97
2, 123135, Note_on_c, 0, 61, 0
2, 123136, Note_on_c, 0, 59, 97
2, 123199, Note_on_c, 0, 59, 0
2, 123199, Note_on_c, 0, 66, 0
2, 123200, Note_on_c, 0, 57, 97
2, 123200, Note_on_c, 0, 67, 97
2, 123263, Note_on_c, 0, 67, 0
2, 123263, Note_on_c, 0, 57, 0
2, 123264, Note_on_c, 0, 62, 97
2, 123264, Note_on_c, 0, 66, 97
2, 123327, Note_on_c, 0, 62, 0
2, 123328, Note_on_c, 0, 61, 97
2, 123391, Note_on_c, 0, 61, 0
2, 123391, Note_on_c, 0, 69, 0
2, 123392, Note_on_c, 0, 59, 97
2, 123392, Note_on_c, 0, 74, 97
2, 123455, Note_on_c, 0, 74, 0
2, 123455, Note_on_c, 0, 59, 0
2, 123456, Note_on_c, 0, 57, 97
2, 123456, Note_on_c, 0, 76, 97
2, 123519, Note_on_c, 0, 57, 0
2, 123520, Note_on_c, 0, 59, 97
2, 123583, Note_on_c, 0, 59, 0
2, 123583, Note_on_c, 0, 76, 0
2, 123584, Note_on_c, 0, 60, 97
2, 123584, Note_on_c, 0, 78, 97
2, 123647, Note_on_c, 0, 78, 0
2, 123647, Note_on_c, 0, 60, 0
2, 123648, Note_on_c, 0, 59, 97
2, 123648, Note_on_c, 0, 67, 97
2, 123704, Note_on_c, 0, 66, 0
2, 123712, Note_on_c, 0, 66, 97
2, 123775, Note_on_c, 0, 66, 0
2, 123776, Note_on_c, 0, 64, 97
2, 123839, Note_on_c, 0, 64, 0
2, 123840, Note_on_c, 0, 66, 97
2, 123903, Note_on_c, 0, 66, 0
2, 123904, Note_on_c, 0, 64, 97
2, 123967, Note_on_c, 0, 64, 0
2, 123968, Note_on_c, 0, 63, 97
2, 124031, Note_on_c, 0, 63, 0
2, 124032, Note_on_c, 0, 64, 97
2, 124088, Note_on_c, 0, 59, 0
2, 124096, Note_on_c, 0, 57, 97
2, 124159, Note_on_c, 0, 57, 0
2, 124159, Note_on_c, 0, 67, 0
2, 124160, Note_on_c, 0, 55, 97
2, 124160, Note_on_c, 0, 71, 97
2, 124223, Note_on_c, 0, 71, 0
2, 124223, Note_on_c, 0, 55, 0
2, 124224, Note_on_c, 0, 54, 97
2, 124224, Note_on_c, 0, 69, 97
2, 124287, Note_on_c, 0, 54, 0
2, 124288, Note_on_c, 0, 55, 97
2, 124351, Note_on_c, 0, 55, 0
2, 124351, Note_on_c, 0, 69, 0
2, 124352, Note_on_c, 0, 57, 97
2, 124352, Note_on_c, 0, 72, 97
2, 124415, Note_on_c, 0, 72, 0
2, 124415, Note_on_c, 0, 57, 0
2, 124416, Note_on_c, 0, 55, 97
2, 124416, Note_on_c, 0, 71, 97
2, 124472, Note_on_c, 0, 64, 0
2, 124480, Note_on_c, 0, 63, 97
2, 124543, Note_on_c, 0, 63, 0
2, 124544, Note_on_c, 0, 64, 97
2, 124607, Note_on_c, 0, 64, 0
2, 124608, Note_on_c, 0, 66, 97
2, 124671, Note_on_c, 0, 66, 0
2, 124672, Note_on_c, 0, 64, 97
2, 124735, Note_on_c, 0, 64, 0
2, 124736, Note_on_c, 0, 63, 97
2, 124799, Note_on_c, 0, 63, 0
2, 124800, Note_on_c, 0, 64, 97
2, 124856, Note_on_c, 0, 55, 0
2, 124863, Note_on_c, 0, 64, 0
2, 124864, Note_on_c, 0, 54, 97
2, 124864, Note_on_c, 0, 66, 97
2, 124927, Note_on_c, 0, 66, 0
2, 124927, Note_on_c, 0, 54, 0
2, 124928, Note_on_c, 0, 52, 97
2, 124928, Note_on_c, 0, 67, 97
2, 124991, Note_on_c, 0, 67, 0
2, 124991, Note_on_c, 0, 52, 0
2, 124992, Note_on_c, 0, 51, 97
2, 124992, Note_on_c, 0, 69, 97
2, 125055, Note_on_c, 0, 69, 0
2, 125055, Note_on_c, 0, 51, 0
2, 125056, Note_on_c, 0, 52, 97
2, 125056, Note_on_c, 0, 67, 97
2, 125119, Note_on_c, 0, 67, 0
2, 125119, Note_on_c, 0, 52, 0
2, 125120, Note_on_c, 0, 54, 97
2, 125120, Note_on_c, 0, 66, 97
2, 125183, Note_on_c, 0, 66, 0
2, 125183, Note_on_c, 0, 54, 0
2, 125184, Note_on_c, 0, 52, 97
2, 125184, Note_on_c, 0, 67, 97
2, 125246, Note_on_c, 0, 71, 0
2, 125248, Note_on_c, 0, 73, 97
2, 125311, Note_on_c, 0, 73, 0
2, 125312, Note_on_c, 0, 74, 97
2, 125375, Note_on_c, 0, 74, 0
2, 125376, Note_on_c, 0, 76, 97
2, 125439, Note_on_c, 0, 76, 0
2, 125440, Note_on_c, 0, 74, 97
2, 125503, Note_on_c, 0, 74, 0
2, 125504, Note_on_c, 0, 73, 97
2, 125567, Note_on_c, 0, 73, 0
2, 125568, Note_on_c, 0, 74, 97
2, 125624, Note_on_c, 0, 52, 0
2, 125631, Note_on_c, 0, 74, 0
2, 125632, Note_on_c, 0, 50, 97
2, 125632, Note_on_c, 0, 76, 97
2, 125695, Note_on_c, 0, 76, 0
2, 125695, Note_on_c, 0, 50, 0
2, 125696, Note_on_c, 0, 49, 97
2, 125696, Note_on_c, 0, 78, 97
2, 125759, Note_on_c, 0, 78, 0
2, 125759, Note_on_c, 0, 49, 0
2, 125760, Note_on_c, 0, 47, 97
2, 125760, Note_on_c, 0, 79, 97
2, 125823, Note_on_c, 0, 79, 0
2, 125823, Note_on_c, 0, 47, 0
2, 125824, Note_on_c, 0, 49, 97
2, 125824, Note_on_c, 0, 78, 97
2, 125887, Note_on_c, 0, 78, 0
2, 125887, Note_on_c, 0, 49, 0
2, 125888, Note_on_c, 0, 50, 97
2, 125888, Note_on_c, 0, 76, 97
2, 125951, Note_on_c, 0, 76, 0
2, 125951, Note_on_c, 0, 50, 0
2, 125952, Note_on_c, 0, 49, 97
2, 125952, Note_on_c, 0, 81, 97
2, 126014, Note_on_c, 0, 67, 0
2, 126016, Note_on_c, 0, 69, 97
2, 126079, Note_on_c, 0, 69, 0
2, 126080, Note_on_c, 0, 71, 97
2, 126142, Note_on_c, 0, 81, 0
2, 126143, Note_on_c, 0, 71, 0
2, 126143, Note_on_c, 0, 49, 0
2, 126144, Note_on_c, 0, 45, 97
2, 126144, Note_on_c, 0, 73, 97
2, 126207, Note_on_c, 0, 73, 0
2, 126208, Note_on_c, 0, 73, 97
2, 126271, Note_on_c, 0, 73, 0
2, 126272, Note_on_c, 0, 74, 97
2, 126335, Note_on_c, 0, 74, 0
2, 126335, Note_on_c, 0, 45, 0
2, 126336, Note_on_c, 0, 40, 97
2, 126336, Note_on_c, 0, 76, 97
2, 126399, Note_on_c, 0, 76, 0
2, 126400, Note_on_c, 0, 76, 97
2, 126463, Note_on_c, 0, 76, 0
2, 126464, Note_on_c, 0, 78, 97
2, 126527, Note_on_c, 0, 78, 0
2, 126527, Note_on_c, 0, 40, 0
2, 126528, Note_on_c, 0, 37, 97
2, 126528, Note_on_c, 0, 79, 97
2, 126591, Note_on_c, 0, 79, 0
2, 126592, Note_on_c, 0, 79, 97
2, 126655, Note_on_c, 0, 79, 0
2, 126656, Note_on_c, 0, 81, 97
2, 126719, Note_on_c, 0, 81, 0
2, 126719, Note_on_c, 0, 37, 0
2, 126720, Note_on_c, 0, 33, 97
2, 126720, Note_on_c, 0, 82, 97
2, 126783, Note_on_c, 0, 33, 0
2, 126784, Note_on_c, 0, 45, 97
2, 126813, Note_on_c, 0, 82, 0
2, 126847, Note_on_c, 0, 45, 0
2, 126848, Note_on_c, 0, 47, 97
2, 126848, Note_on_c, 0, 80, 97
2, 126911, Note_on_c, 0, 80, 0
2, 126911, Note_on_c, 0, 47, 0
2, 126912, Note_on_c, 0, 49, 97
2, 126912, Note_on_c, 0, 81, 97
2, 126975, Note_on_c, 0, 49, 0
2, 126976, Note_on_c, 0, 50, 97
2, 127039, Note_on_c, 0, 50, 0
2, 127040, Note_on_c, 0, 52, 97
2, 127103, Note_on_c, 0, 52, 0
2, 127104, Note_on_c, 0, 54, 97
2, 127167, Note_on_c, 0, 54, 0
2, 127168, Note_on_c, 0, 55, 97
2, 127197, Note_on_c, 0, 81, 0
2, 127231, Note_on_c, 0, 55, 0
2, 127232, Note_on_c, 0, 57, 97
2, 127232, Note_on_c, 0, 85, 97
2, 127295, Note_on_c, 0, 85, 0
2, 127295, Note_on_c, 0, 57, 0
2, 127296, Note_on_c, 0, 59, 97
2, 127296, Note_on_c, 0, 86, 97
2, 127359, Note_on_c, 0, 59, 0
2, 127360, Note_on_c, 0, 61, 97
2, 127423, Note_on_c, 0, 61, 0
2, 127423, Note_on_c, 0, 86, 0
2, 127424, Note_on_c, 0, 62, 97
2, 127424, Note_on_c, 0, 78, 97
2, 127487, Note_on_c, 0, 78, 0
2, 127487, Note_on_c, 0, 62, 0
2, 127488, Note_on_c, 0, 64, 97
2, 127488, Note_on_c, 0, 80, 97
2, 127520, Note_on_c, 0, 80, 0
2, 127520, Note_on_c, 0, 78, 97
2, 127551, Note_on_c, 0, 78, 0
2, 127551, Note_on_c, 0, 64, 0
2, 127552, Note_on_c, 0, 62, 97
2, 127552, Note_on_c, 0, 80, 97
2, 127615, Note_on_c, 0, 80, 0
2, 127615, Note_on_c, 0, 62, 0
2, 127616, Note_on_c, 0, 61, 97
2, 127616, Note_on_c, 0, 81, 97
2, 127679, Note_on_c, 0, 81, 0
2, 127679, Note_on_c, 0, 61, 0
2, 127680, Note_on_c, 0, 66, 97
2, 127680, Note_on_c, 0, 73, 97
2, 127743, Note_on_c, 0, 66, 0
2, 127744, Note_on_c, 0, 64, 97
2, 127807, Note_on_c, 0, 64, 0
2, 127807, Note_on_c, 0, 73, 0
2, 127808, Note_on_c, 0, 62, 97
2, 127808, Note_on_c, 0, 74, 97
2, 127871, Note_on_c, 0, 74, 0
2, 127871, Note_on_c, 0, 62, 0
2, 127872, Note_on_c, 0, 69, 97
2, 127872, Note_on_c, 0, 78, 97
2, 128063, Note_on_c, 0, 78, 0
2, 128063, Note_on_c, 0, 69, 0
2, 128064, Note_on_c, 0, 57, 97
2, 128064, Note_on_c, 0, 76, 97
2, 128095, Note_on_c, 0, 76, 0
2, 128095, Note_on_c, 0, 78, 97
2, 128126, Note_on_c, 0, 78, 0
2, 128128, Note_on_c, 0, 76, 97
2, 128192, Note_on_c, 0, 74, 97
2, 128197, Note_on_c, 0, 76, 0
2, 128250, Note_on_c, 0, 74, 0
2, 128255, Note_on_c, 0, 57, 0
2, 128256, Note_on_c, 0, 59, 97
2, 128256, Note_on_c, 0, 74, 97
2, 128319, Note_on_c, 0, 74, 0
2, 128320, Note_on_c, 0, 73, 97
2, 128383, Note_on_c, 0, 73, 0
2, 128384, Note_on_c, 0, 62, 97
2, 128384, Note_on_c, 0, 71, 97
2, 128446, Note_on_c, 0, 59, 0
2, 128447, Note_on_c, 0, 71, 0
2, 128447, Note_on_c, 0, 62, 0
2, 128448, Note_on_c, 0, 54, 97
2, 128448, Note_on_c, 0, 57, 97
2, 128448, Note_on_c, 0, 72, 97
2, 128511, Note_on_c, 0, 72, 0
2, 128512, Note_on_c, 0, 71, 97
2, 128575, Note_on_c, 0, 71, 0
2, 128575, Note_on_c, 0, 57, 0
2, 128576, Note_on_c, 0, 62, 97
2, 128576, Note_on_c, 0, 69, 97
2, 128638, Note_on_c, 0, 54, 0
2, 128639, Note_on_c, 0, 69, 0
2, 128639, Note_on_c, 0, 62, 0
2, 128640, Note_on_c, 0, 55, 97
2, 128640, Note_on_c, 0, 71, 97
2, 128703, Note_on_c, 0, 71, 0
2, 128704, Note_on_c, 0, 69, 97
2, 128767, Note_on_c, 0, 69, 0
2, 128768, Note_on_c, 0, 62, 97
2, 128768, Note_on_c, 0, 67, 97
2, 128830, Note_on_c, 0, 55, 0
2, 128831, Note_on_c, 0, 67, 0
2, 128831, Note_on_c, 0, 62, 0
2, 128832, Note_on_c, 0, 47, 97
2, 128832, Note_on_c, 0, 54, 97
2, 128832, Note_on_c, 0, 69, 97
2, 128895, Note_on_c, 0, 69, 0
2, 128896, Note_on_c, 0, 67, 97
2, 128959, Note_on_c, 0, 67, 0
2, 128959, Note_on_c, 0, 54, 0
2, 128960, Note_on_c, 0, 62, 97
2, 128960, Note_on_c, 0, 66, 97
2, 129022, Note_on_c, 0, 47, 0
2, 129023, Note_on_c, 0, 66, 0
2, 129023, Note_on_c, 0, 62, 0
2, 129024, Note_on_c, 0, 49, 97
2, 129024, Note_on_c, 0, 52, 97
2, 129024, Note_on_c, 0, 67, 97
2, 129087, Note_on_c, 0, 67, 0
2, 129088, Note_on_c, 0, 66, 97
2, 129151, Note_on_c, 0, 66, 0
2, 129152, Note_on_c, 0, 64, 97
2, 129215, Note_on_c, 0, 64, 0
2, 129215, Note_on_c, 0, 52, 0
2, 129215, Note_on_c, 0, 49, 0
2, 129216, Note_on_c, 0, 57, 97
2, 129216, Note_on_c, 0, 50, 97
2, 129216, Note_on_c, 0, 66, 97
2, 129343, Note_on_c, 0, 66, 0
2, 129344, Note_on_c, 0, 74, 97
2, 129402, Note_on_c, 0, 74, 0
2, 129407, Note_on_c, 0, 50, 0
2, 129408, Note_on_c, 0, 45, 97
2, 129408, Note_on_c, 0, 64, 97
2, 129535, Note_on_c, 0, 64, 0
2, 129536, Note_on_c, 0, 67, 97
2, 129594, Note_on_c, 0, 67, 0
2, 129596, Note_on_c, 0, 57, 0
2, 129600, Note_on_c, 0, 55, 97
2, 129600, Note_on_c, 0, 74, 97
2, 129727, Note_on_c, 0, 74, 0
2, 129728, Note_on_c, 0, 73, 97
2, 129786, Note_on_c, 0, 73, 0
2, 129788, Note_on_c, 0, 45, 0
2, 129792, Note_on_c, 0, 50, 97
2, 129792, Note_on_c, 0, 74, 97
2, 129850, Note_on_c, 0, 55, 0
2, 129856, Note_on_c, 0, 54, 97
2, 129919, Note_on_c, 0, 54, 0
2, 129920, Note_on_c, 0, 52, 97
2, 129983, Note_on_c, 0, 52, 0
2, 129984, Note_on_c, 0, 54, 97
2, 130047, Note_on_c, 0, 74, 0
2, 130048, Note_on_c, 0, 69, 97
2, 130111, Note_on_c, 0, 69, 0
2, 130112, Note_on_c, 0, 67, 97
2, 130132, Note_on_c, 0, 50, 0
2, 130144, Note_on_c, 0, 54, 0
2, 130175, Note_on_c, 0, 67, 0
2, 130176, Note_on_c, 0, 62, 97
2, 130176, Note_on_c, 0, 66, 97
2, 130176, Note_on_c, 0, 69, 97
2, 130238, Note_on_c, 0, 66, 0
2, 130239, Note_on_c, 0, 69, 0
2, 130240, Note_on_c, 0, 66, 97
2, 130303, Note_on_c, 0, 66, 0
2, 130304, Note_on_c, 0, 64, 97
2, 130316, Note_on_c, 0, 62, 0
2, 130367, Note_on_c, 0, 64, 0
2, 130368, Note_on_c, 0, 57, 97
2, 130368, Note_on_c, 0, 62, 97
2, 130368, Note_on_c, 0, 66, 97
2, 130430, Note_on_c, 0, 62, 0
2, 130431, Note_on_c, 0, 66, 0
2, 130432, Note_on_c, 0, 62, 97
2, 130495, Note_on_c, 0, 62, 0
2, 130496, Note_on_c, 0, 61, 97
2, 130508, Note_on_c, 0, 57, 0
2, 130559, Note_on_c, 0, 61, 0
2, 130560, Note_on_c, 0, 54, 97
2, 130560, Note_on_c, 0, 57, 97
2, 130560, Note_on_c, 0, 62, 97
2, 130624, Note_on_c, 0, 50, 97
2, 130687, Note_on_c, 0, 50, 0
2, 130688, Note_on_c, 0, 49, 97
2, 130751, Note_on_c, 0, 49, 0
2, 130752, Note_on_c, 0, 50, 97
2, 130815, Note_on_c, 0, 50, 0
2, 130816, Note_on_c, 0, 45, 97
2, 130879, Note_on_c, 0, 45, 0
2, 130880, Note_on_c, 0, 62, 0
2, 130880, Note_on_c, 0, 57, 0
2, 130880, Note_on_c, 0, 54, 0
2, 130880, Note_on_c, 0, 42, 97
2, 130943, Note_on_c, 0, 42, 0
2, 130944, Note_on_c, 0, 38, 97
2, 131224, Note_on_c, 0, 38, 0
2, 131264, Note_on_c, 0, 69, 97
2, 131327, Note_on_c, 0, 69, 0
2, 131328, Note_on_c, 0, 50, 97
2, 131328, Note_on_c, 0, 66, 97
2, 131328, Note_on_c, 0, 69, 97
2, 131328, Note_on_c, 0, 62, 97
2, 131520, Note_on_c, 0, 38, 97
2, 131583, Note_on_c, 0, 62, 0
2, 131583, Note_on_c, 0, 69, 0
2, 131583, Note_on_c, 0, 66, 0
2, 131592, Note_on_c, 0, 71, 97
2, 131650, Note_on_c, 0, 71, 0
2, 131652, Note_on_c, 0, 73, 97
2, 131710, Note_on_c, 0, 73, 0
2, 131711, Note_on_c, 0, 38, 0
2, 131712, Note_on_c, 0, 42, 97
2, 131712, Note_on_c, 0, 74, 97
2, 131775, Note_on_c, 0, 74, 0
2, 131776, Note_on_c, 0, 76, 97
2, 131839, Note_on_c, 0, 76, 0
2, 131840, Note_on_c, 0, 78, 97
2, 131903, Note_on_c, 0, 78, 0
2, 131903, Note_on_c, 0, 42, 0
2, 131903, Note_on_c, 0, 50, 0
2, 131904, Note_on_c, 0, 49, 97
2, 131904, Note_on_c, 0, 45, 97
2, 131904, Note_on_c, 0, 76, 97
2, 131967, Note_on_c, 0, 76, 0
2, 131968, Note_on_c, 0, 78, 97
2, 132031, Note_on_c, 0, 78, 0
2, 132032, Note_on_c, 0, 79, 97
2, 132095, Note_on_c, 0, 79, 0
2, 132095, Note_on_c, 0, 45, 0
2, 132095, Note_on_c, 0, 49, 0
2, 132096, Note_on_c, 0, 50, 97
2, 132096, Note_on_c, 0, 78, 97
2, 132159, Note_on_c, 0, 78, 0
2, 132160, Note_on_c, 0, 76, 97
2, 132223, Note_on_c, 0, 76, 0
2, 132224, Note_on_c, 0, 74, 97
2, 132287, Note_on_c, 0, 74, 0
2, 132288, Note_on_c, 0, 81, 97
2, 132351, Note_on_c, 0, 50, 0
2, 132352, Note_on_c, 0, 52, 97
2, 132415, Note_on_c, 0, 52, 0
2, 132416, Note_on_c, 0, 54, 97
2, 132416, Note_on_c, 0, 72, 97
2, 132438, Note_on_c, 0, 81, 0
2, 132479, Note_on_c, 0, 72, 0
2, 132479, Note_on_c, 0, 54, 0
2, 132480, Note_on_c, 0, 55, 97
2, 132480, Note_on_c, 0, 71, 97
2, 132543, Note_on_c, 0, 55, 0
2, 132544, Note_on_c, 0, 57, 97
2, 132607, Note_on_c, 0, 57, 0
2, 132608, Note_on_c, 0, 59, 97
2, 132608, Note_on_c, 0, 79, 97
2, 132620, Note_on_c, 0, 71, 0
2, 132671, Note_on_c, 0, 79, 0
2, 132671, Note_on_c, 0, 59, 0
2, 132672, Note_on_c, 0, 57, 97
2, 132672, Note_on_c, 0, 72, 97
2, 132735, Note_on_c, 0, 57, 0
2, 132736, Note_on_c, 0, 59, 97
2, 132799, Note_on_c, 0, 59, 0
2, 132800, Note_on_c, 0, 60, 97
2, 132800, Note_on_c, 0, 78, 97
2, 132802, Note_on_c, 0, 72, 0
2, 132858, Note_on_c, 0, 78, 0
2, 132863, Note_on_c, 0, 60, 0
2, 132864, Note_on_c, 0, 59, 97
2, 132864, Note_on_c, 0, 74, 97
2, 132928, Note_on_c, 0, 79, 97
2, 132944, Note_on_c, 0, 74, 0
2, 132991, Note_on_c, 0, 79, 0
2, 132992, Note_on_c, 0, 78, 97
2, 133055, Note_on_c, 0, 78, 0
2, 133055, Note_on_c, 0, 59, 0
2, 133056, Note_on_c, 0, 55, 97
2, 133056, Note_on_c, 0, 79, 97
2, 133119, Note_on_c, 0, 79, 0
2, 133120, Note_on_c, 0, 81, 97
2, 133183, Note_on_c, 0, 81, 0
2, 133184, Note_on_c, 0, 83, 97
2, 133247, Note_on_c, 0, 83, 0
2, 133247, Note_on_c, 0, 55, 0
2, 133248, Note_on_c, 0, 60, 97
2, 133248, Note_on_c, 0, 76, 97
2, 133312, Note_on_c, 0, 84, 97
2, 133338, Note_on_c, 0, 76, 0
2, 133375, Note_on_c, 0, 84, 0
2, 133376, Note_on_c, 0, 83, 97
2, 133439, Note_on_c, 0, 83, 0
2, 133439, Note_on_c, 0, 60, 0
2, 133440, Note_on_c, 0, 54, 97
2, 133440, Note_on_c, 0, 81, 97
2, 133503, Note_on_c, 0, 81, 0
2, 133504, Note_on_c, 0, 79, 97
2, 133567, Note_on_c, 0, 79, 0
2, 133568, Note_on_c, 0, 78, 97
2, 133631, Note_on_c, 0, 78, 0
2, 133631, Note_on_c, 0, 54, 0
2, 133632, Note_on_c, 0, 59, 97
2, 133632, Note_on_c, 0, 76, 97
2, 133695, Note_on_c, 0, 59, 0
2, 133696, Note_on_c, 0, 54, 97
2, 133759, Note_on_c, 0, 54, 0
2, 133760, Note_on_c, 0, 55, 97
2, 133823, Note_on_c, 0, 55, 0
2, 133824, Note_on_c, 0, 57, 97
2, 133856, Note_on_c, 0, 75, 97
2, 133863, Note_on_c, 0, 76, 0
2, 133887, Note_on_c, 0, 57, 0
2, 133888, Note_on_c, 0, 55, 97
2, 133888, Note_on_c, 0, 76, 97
2, 133900, Note_on_c, 0, 75, 0
2, 133920, Note_on_c, 0, 75, 97
2, 133932, Note_on_c, 0, 76, 0
2, 133951, Note_on_c, 0, 55, 0
2, 133952, Note_on_c, 0, 54, 97
2, 133952, Note_on_c, 0, 76, 97
2, 133964, Note_on_c, 0, 75, 0
2, 133984, Note_on_c, 0, 75, 97
2, 133996, Note_on_c, 0, 76, 0
2, 134015, Note_on_c, 0, 75, 0
2, 134015, Note_on_c, 0, 54, 0
2, 134016, Note_on_c, 0, 52, 97
2, 134016, Note_on_c, 0, 83, 97
2, 134048, Note_on_c, 0, 83, 0
2, 134048, Note_on_c, 0, 81, 97
2, 134079, Note_on_c, 0, 52, 0
2, 134080, Note_on_c, 0, 81, 0
2, 134080, Note_on_c, 0, 51, 97
2, 134080, Note_on_c, 0, 83, 97
2, 134143, Note_on_c, 0, 51, 0
2, 134144, Note_on_c, 0, 52, 97
2, 134207, Note_on_c, 0, 52, 0
2, 134208, Note_on_c, 0, 54, 97
2, 134271, Note_on_c, 0, 54, 0
2, 134272, Note_on_c, 0, 52, 97
2, 134335, Note_on_c, 0, 52, 0
2, 134336, Note_on_c, 0, 51, 97
2, 134399, Note_on_c, 0, 51, 0
2, 134400, Note_on_c, 0, 56, 97
2, 134463, Note_on_c, 0, 83, 0
2, 134464, Note_on_c, 0, 77, 97
2, 134527, Note_on_c, 0, 77, 0
2, 134528, Note_on_c, 0, 76, 97
2, 134591, Note_on_c, 0, 76, 0
2, 134592, Note_on_c, 0, 77, 97
2, 134655, Note_on_c, 0, 77, 0
2, 134656, Note_on_c, 0, 76, 97
2, 134719, Note_on_c, 0, 76, 0
2, 134720, Note_on_c, 0, 74, 97
2, 134783, Note_on_c, 0, 74, 0
2, 134784, Note_on_c, 0, 76, 97
2, 134840, Note_on_c, 0, 56, 0
2, 134848, Note_on_c, 0, 52, 97
2, 134904, Note_on_c, 0, 76, 0
2, 134911, Note_on_c, 0, 52, 0
2, 134912, Note_on_c, 0, 54, 97
2, 134912, Note_on_c, 0, 83, 97
2, 134975, Note_on_c, 0, 83, 0
2, 134975, Note_on_c, 0, 54, 0
2, 134976, Note_on_c, 0, 56, 97
2, 134976, Note_on_c, 0, 74, 97
2, 135039, Note_on_c, 0, 56, 0
2, 135040, Note_on_c, 0, 54, 97
2, 135103, Note_on_c, 0, 54, 0
2, 135104, Note_on_c, 0, 52, 97
2, 135167, Note_on_c, 0, 52, 0
2, 135168, Note_on_c, 0, 57, 97
2, 135226, Note_on_c, 0, 74, 0
2, 135232, Note_on_c, 0, 64, 97
2, 135295, Note_on_c, 0, 64, 0
2, 135296, Note_on_c, 0, 66, 97
2, 135359, Note_on_c, 0, 66, 0
2, 135359, Note_on_c, 0, 57, 0
2, 135360, Note_on_c, 0, 52, 97
2, 135360, Note_on_c, 0, 68, 97
2, 135423, Note_on_c, 0, 68, 0
2, 135424, Note_on_c, 0, 69, 97
2, 135487, Note_on_c, 0, 69, 0
2, 135488, Note_on_c, 0, 71, 97
2, 135551, Note_on_c, 0, 71, 0
2, 135551, Note_on_c, 0, 52, 0
2, 135552, Note_on_c, 0, 45, 97
2, 135552, Note_on_c, 0, 72, 97
2, 135615, Note_on_c, 0, 72, 0
2, 135616, Note_on_c, 0, 69, 97
2, 135679, Note_on_c, 0, 69, 0
2, 135680, Note_on_c, 0, 71, 97
2, 135743, Note_on_c, 0, 71, 0
2, 135743, Note_on_c, 0, 45, 0
2, 135744, Note_on_c, 0, 57, 97
2, 135744, Note_on_c, 0, 72, 97
2, 135807, Note_on_c, 0, 72, 0
2, 135808, Note_on_c, 0, 74, 97
2, 135871, Note_on_c, 0, 74, 0
2, 135872, Note_on_c, 0, 76, 97
2, 135935, Note_on_c, 0, 76, 0
2, 135935, Note_on_c, 0, 57, 0
2, 135936, Note_on_c, 0, 52, 97
2, 135936, Note_on_c, 0, 78, 97
2, 135999, Note_on_c, 0, 78, 0
2, 136000, Note_on_c, 0, 72, 97
2, 136063, Note_on_c, 0, 72, 0
2, 136064, Note_on_c, 0, 71, 97
2, 136127, Note_on_c, 0, 71, 0
2, 136127, Note_on_c, 0, 52, 0
2, 136128, Note_on_c, 0, 51, 97
2, 136128, Note_on_c, 0, 72, 97
2, 136191, Note_on_c, 0, 72, 0
2, 136192, Note_on_c, 0, 71, 97
2, 136255, Note_on_c, 0, 71, 0
2, 136256, Note_on_c, 0, 69, 97
2, 136319, Note_on_c, 0, 69, 0
2, 136320, Note_on_c, 0, 71, 97
2, 136378, Note_on_c, 0, 51, 0
2, 136384, Note_on_c, 0, 47, 97
2, 136440, Note_on_c, 0, 71, 0
2, 136447, Note_on_c, 0, 47, 0
2, 136448, Note_on_c, 0, 49, 97
2, 136448, Note_on_c, 0, 78, 97
2, 136511, Note_on_c, 0, 78, 0
2, 136511, Note_on_c, 0, 49, 0
2, 136512, Note_on_c, 0, 51, 97
2, 136512, Note_on_c, 0, 69, 97
2, 136575, Note_on_c, 0, 51, 0
2, 136576, Note_on_c, 0, 49, 97
2, 136639, Note_on_c, 0, 49, 0
2, 136640, Note_on_c, 0, 47, 97
2, 136703, Note_on_c, 0, 47, 0
2, 136704, Note_on_c, 0, 52, 97
2, 136767, Note_on_c, 0, 69, 0
2, 136768, Note_on_c, 0, 59, 97
2, 136831, Note_on_c, 0, 59, 0
2, 136832, Note_on_c, 0, 61, 97
2, 136895, Note_on_c, 0, 61, 0
2, 136895, Note_on_c, 0, 52, 0
2, 136896, Note_on_c, 0, 47, 97
2, 136896, Note_on_c, 0, 63, 97
2, 136959, Note_on_c, 0, 63, 0
2, 136960, Note_on_c, 0, 64, 97
2, 137023, Note_on_c, 0, 64, 0
2, 137024, Note_on_c, 0, 66, 97
2, 137087, Note_on_c, 0, 66, 0
2, 137087, Note_on_c, 0, 47, 0
2, 137088, Note_on_c, 0, 40, 97
2, 137088, Note_on_c, 0, 67, 97
2, 137151, Note_on_c, 0, 67, 0
2, 137152, Note_on_c, 0, 64, 97
2, 137215, Note_on_c, 0, 64, 0
2, 137216, Note_on_c, 0, 66, 97
2, 137279, Note_on_c, 0, 66, 0
2, 137279, Note_on_c, 0, 40, 0
2, 137280, Note_on_c, 0, 52, 97
2, 137280, Note_on_c, 0, 67, 97
2, 137343, Note_on_c, 0, 67, 0
2, 137344, Note_on_c, 0, 69, 97
2, 137407, Note_on_c, 0, 69, 0
2, 137408, Note_on_c, 0, 71, 97
2, 137471, Note_on_c, 0, 71, 0
2, 137471, Note_on_c, 0, 52, 0
2, 137472, Note_on_c, 0, 45, 97
2, 137472, Note_on_c, 0, 72, 97
2, 137535, Note_on_c, 0, 72, 0
2, 137536, Note_on_c, 0, 69, 97
2, 137599, Note_on_c, 0, 69, 0
2, 137600, Note_on_c, 0, 68, 97
2, 137663, Note_on_c, 0, 68, 0
2, 137664, Note_on_c, 0, 33, 97
2, 137664, Note_on_c, 0, 69, 97
2, 137727, Note_on_c, 0, 69, 0
2, 137728, Note_on_c, 0, 65, 97
2, 137791, Note_on_c, 0, 65, 0
2, 137792, Note_on_c, 0, 64, 97
2, 137852, Note_on_c, 0, 45, 0
2, 137854, Note_on_c, 0, 33, 0
2, 137855, Note_on_c, 0, 64, 0
2, 137856, Note_on_c, 0, 65, 97
2, 137919, Note_on_c, 0, 65, 0
2, 137920, Note_on_c, 0, 57, 97
2, 137920, Note_on_c, 0, 77, 97
2, 137983, Note_on_c, 0, 57, 0
2, 137984, Note_on_c, 0, 55, 97
2, 138047, Note_on_c, 0, 55, 0
2, 138048, Note_on_c, 0, 57, 97
2, 138111, Note_on_c, 0, 57, 0
2, 138112, Note_on_c, 0, 55, 97
2, 138140, Note_on_c, 0, 77, 0
2, 138175, Note_on_c, 0, 55, 0
2, 138176, Note_on_c, 0, 54, 97
2, 138176, Note_on_c, 0, 76, 97
2, 138239, Note_on_c, 0, 76, 0
2, 138239, Note_on_c, 0, 54, 0
2, 138240, Note_on_c, 0, 59, 97
2, 138240, Note_on_c, 0, 75, 97
2, 138303, Note_on_c, 0, 75, 0
2, 138304, Note_on_c, 0, 72, 97
2, 138367, Note_on_c, 0, 72, 0
2, 138368, Note_on_c, 0, 71, 97
2, 138431, Note_on_c, 0, 71, 0
2, 138431, Note_on_c, 0, 59, 0
2, 138432, Note_on_c, 0, 54, 97
2, 138432, Note_on_c, 0, 72, 97
2, 138495, Note_on_c, 0, 72, 0
2, 138496, Note_on_c, 0, 69, 97
2, 138559, Note_on_c, 0, 69, 0
2, 138560, Note_on_c, 0, 68, 97
2, 138623, Note_on_c, 0, 68, 0
2, 138623, Note_on_c, 0, 54, 0
2, 138624, Note_on_c, 0, 51, 97
2, 138624, Note_on_c, 0, 69, 97
2, 138687, Note_on_c, 0, 69, 0
2, 138688, Note_on_c, 0, 71, 97
2, 138751, Note_on_c, 0, 71, 0
2, 138752, Note_on_c, 0, 73, 97
2, 138815, Note_on_c, 0, 73, 0
2, 138815, Note_on_c, 0, 51, 0
2, 138816, Note_on_c, 0, 47, 97
2, 138816, Note_on_c, 0, 75, 97
2, 138879, Note_on_c, 0, 75, 0
2, 138880, Note_on_c, 0, 76, 97
2, 138943, Note_on_c, 0, 76, 0
2, 138944, Note_on_c, 0, 78, 97
2, 139007, Note_on_c, 0, 78, 0
2, 139007, Note_on_c, 0, 47, 0
2, 139008, Note_on_c, 0, 52, 97
2, 139008, Note_on_c, 0, 76, 97
2, 139071, Note_on_c, 0, 76, 0
2, 139072, Note_on_c, 0, 72, 97
2, 139135, Note_on_c, 0, 72, 0
2, 139136, Note_on_c, 0, 71, 97
2, 139199, Note_on_c, 0, 71, 0
2, 139200, Note_on_c, 0, 40, 97
2, 139200, Note_on_c, 0, 72, 97
2, 139263, Note_on_c, 0, 72, 0
2, 139264, Note_on_c, 0, 69, 97
2, 139327, Note_on_c, 0, 69, 0
2, 139328, Note_on_c, 0, 68, 97
2, 139388, Note_on_c, 0, 52, 0
2, 139390, Note_on_c, 0, 40, 0
2, 139391, Note_on_c, 0, 68, 0
2, 139392, Note_on_c, 0, 69, 97
2, 139455, Note_on_c, 0, 69, 0
2, 139456, Note_on_c, 0, 60, 97
2, 139456, Note_on_c, 0, 81, 97
2, 139519, Note_on_c, 0, 60, 0
2, 139520, Note_on_c, 0, 59, 97
2, 139583, Note_on_c, 0, 59, 0
2, 139584, Note_on_c, 0, 60, 97
2, 139647, Note_on_c, 0, 60, 0
2, 139648, Note_on_c, 0, 59, 97
2, 139681, Note_on_c, 0, 81, 0
2, 139711, Note_on_c, 0, 59, 0
2, 139712, Note_on_c, 0, 57, 97
2, 139712, Note_on_c, 0, 79, 97
2, 139775, Note_on_c, 0, 79, 0
2, 139775, Note_on_c, 0, 57, 0
2, 139776, Note_on_c, 0, 63, 97
2, 139776, Note_on_c, 0, 78, 97
2, 139839, Note_on_c, 0, 78, 0
2, 139840, Note_on_c, 0, 72, 97
2, 139903, Note_on_c, 0, 72, 0
2, 139904, Note_on_c, 0, 71, 97
2, 139967, Note_on_c, 0, 71, 0
2, 139967, Note_on_c, 0, 63, 0
2, 139968, Note_on_c, 0, 57, 97
2, 139968, Note_on_c, 0, 72, 97
2, 140031, Note_on_c, 0, 72, 0
2, 140032, Note_on_c, 0, 69, 97
2, 140095, Note_on_c, 0, 69, 0
2, 140096, Note_on_c, 0, 68, 97
2, 140159, Note_on_c, 0, 68, 0
2, 140159, Note_on_c, 0, 57, 0
2, 140160, Note_on_c, 0, 54, 97
2, 140160, Note_on_c, 0, 69, 97
2, 140223, Note_on_c, 0, 69, 0
2, 140224, Note_on_c, 0, 75, 97
2, 140287, Note_on_c, 0, 75, 0
2, 140288, Note_on_c, 0, 76, 97
2, 140351, Note_on_c, 0, 76, 0
2, 140351, Note_on_c, 0, 54, 0
2, 140352, Note_on_c, 0, 51, 97
2, 140352, Note_on_c, 0, 78, 97
2, 140415, Note_on_c, 0, 78, 0
2, 140416, Note_on_c, 0, 79, 97
2, 140479, Note_on_c, 0, 79, 0
2, 140480, Note_on_c, 0, 81, 97
2, 140543, Note_on_c, 0, 81, 0
2, 140543, Note_on_c, 0, 51, 0
2, 140544, Note_on_c, 0, 52, 97
2, 140544, Note_on_c, 0, 79, 97
2, 140607, Note_on_c, 0, 79, 0
2, 140608, Note_on_c, 0, 76, 97
2, 140671, Note_on_c, 0, 76, 0
2, 140672, Note_on_c, 0, 75, 97
2, 140735, Note_on_c, 0, 75, 0
2, 140736, Note_on_c, 0, 40, 97
2, 140736, Note_on_c, 0, 76, 97
2, 140799, Note_on_c, 0, 76, 0
2, 140800, Note_on_c, 0, 72, 97
2, 140863, Note_on_c, 0, 72, 0
2, 140864, Note_on_c, 0, 71, 97
2, 140924, Note_on_c, 0, 52, 0
2, 140926, Note_on_c, 0, 40, 0
2, 140927, Note_on_c, 0, 71, 0
2, 140928, Note_on_c, 0, 72, 97
2, 140991, Note_on_c, 0, 72, 0
2, 140992, Note_on_c, 0, 64, 97
2, 140992, Note_on_c, 0, 84, 97
2, 141055, Note_on_c, 0, 64, 0
2, 141056, Note_on_c, 0, 62, 97
2, 141119, Note_on_c, 0, 62, 0
2, 141120, Note_on_c, 0, 64, 97
2, 141183, Note_on_c, 0, 64, 0
2, 141184, Note_on_c, 0, 62, 97
2, 141232, Note_on_c, 0, 84, 0
2, 141247, Note_on_c, 0, 62, 0
2, 141248, Note_on_c, 0, 61, 97
2, 141248, Note_on_c, 0, 83, 97
2, 141311, Note_on_c, 0, 83, 0
2, 141311, Note_on_c, 0, 61, 0
2, 141312, Note_on_c, 0, 67, 97
2, 141312, Note_on_c, 0, 82, 97
2, 141376, Note_on_c, 0, 76, 97
2, 141432, Note_on_c, 0, 82, 0
2, 141439, Note_on_c, 0, 76, 0
2, 141440, Note_on_c, 0, 78, 97
2, 141503, Note_on_c, 0, 78, 0
2, 141503, Note_on_c, 0, 67, 0
2, 141504, Note_on_c, 0, 61, 97
2, 141504, Note_on_c, 0, 79, 97
2, 141567, Note_on_c, 0, 79, 0
2, 141568, Note_on_c, 0, 78, 97
2, 141631, Note_on_c, 0, 78, 0
2, 141632, Note_on_c, 0, 76, 97
2, 141695, Note_on_c, 0, 76, 0
2, 141695, Note_on_c, 0, 61, 0
2, 141696, Note_on_c, 0, 66, 97
2, 141696, Note_on_c, 0, 75, 97
2, 141760, Note_on_c, 0, 81, 97
2, 141816, Note_on_c, 0, 75, 0
2, 141823, Note_on_c, 0, 81, 0
2, 141824, Note_on_c, 0, 83, 97
2, 141887, Note_on_c, 0, 83, 0
2, 141887, Note_on_c, 0, 66, 0
2, 141888, Note_on_c, 0, 54, 97
2, 141888, Note_on_c, 0, 84, 97
2, 141951, Note_on_c, 0, 84, 0
2, 141952, Note_on_c, 0, 83, 97
2, 142015, Note_on_c, 0, 83, 0
2, 142016, Note_on_c, 0, 81, 97
2, 142079, Note_on_c, 0, 81, 0
2, 142079, Note_on_c, 0, 54, 0
2, 142080, Note_on_c, 0, 55, 97
2, 142080, Note_on_c, 0, 83, 97
2, 142143, Note_on_c, 0, 83, 0
2, 142144, Note_on_c, 0, 81, 97
2, 142207, Note_on_c, 0, 81, 0
2, 142208, Note_on_c, 0, 79, 97
2, 142271, Note_on_c, 0, 79, 0
2, 142271, Note_on_c, 0, 55, 0
2, 142272, Note_on_c, 0, 57, 97
2, 142272, Note_on_c, 0, 78, 97
2, 142335, Note_on_c, 0, 78, 0
2, 142336, Note_on_c, 0, 79, 97
2, 142399, Note_on_c, 0, 79, 0
2, 142400, Note_on_c, 0, 76, 97
2, 142463, Note_on_c, 0, 57, 0
2, 142464, Note_on_c, 0, 59, 97
2, 142464, Note_on_c, 0, 79, 97
2, 142554, Note_on_c, 0, 76, 0
2, 142560, Note_on_c, 0, 71, 97
2, 142654, Note_on_c, 0, 79, 0
2, 142655, Note_on_c, 0, 59, 0
2, 142656, Note_on_c, 0, 47, 97
2, 142656, Note_on_c, 0, 78, 97
2, 142656, Note_on_c, 0, 75, 97
2, 142750, Note_on_c, 0, 71, 0
2, 142752, Note_on_c, 0, 69, 97
2, 142846, Note_on_c, 0, 75, 0
2, 142846, Note_on_c, 0, 78, 0
2, 142847, Note_on_c, 0, 47, 0
2, 142847, Note_on_c, 0, 69, 0
2, 142848, Note_on_c, 0, 52, 97
2, 142848, Note_on_c, 0, 76, 97
2, 142848, Note_on_c, 0, 71, 97
2, 142848, Note_on_c, 0, 67, 97
2, 142911, Note_on_c, 0, 52, 0
2, 142912, Note_on_c, 0, 47, 97
2, 142975, Note_on_c, 0, 47, 0
2, 142976, Note_on_c, 0, 45, 97
2, 143039, Note_on_c, 0, 45, 0
2, 143040, Note_on_c, 0, 43, 97
2, 143103, Note_on_c, 0, 43, 0
2, 143104, Note_on_c, 0, 45, 97
2, 143167, Note_on_c, 0, 45, 0
2, 143168, Note_on_c, 0, 47, 97
2, 143228, Note_on_c, 0, 67, 0
2, 143228, Note_on_c, 0, 71, 0
2, 143231, Note_on_c, 0, 47, 0
2, 143232, Note_on_c, 0, 40, 97
2, 143268, Note_on_c, 0, 76, 0
2, 143296, Note_on_c, 0, 71, 97
2, 143359, Note_on_c, 0, 71, 0
2, 143359, Note_on_c, 0, 40, 0
2, 143360, Note_on_c, 0, 43, 97
2, 143360, Note_on_c, 0, 69, 97
2, 143423, Note_on_c, 0, 69, 0
2, 143423, Note_on_c, 0, 43, 0
2, 143424, Note_on_c, 0, 47, 97
2, 143424, Note_on_c, 0, 67, 97
2, 143487, Note_on_c, 0, 67, 0
2, 143488, Note_on_c, 0, 66, 97
2, 143551, Note_on_c, 0, 66, 0
2, 143551, Note_on_c, 0, 47, 0
2, 143552, Note_on_c, 0, 52, 97
2, 143552, Note_on_c, 0, 67, 97
2, 143615, Note_on_c, 0, 67, 0
2, 143615, Note_on_c, 0, 52, 0
2, 143616, Note_on_c, 0, 45, 97
2, 143616, Note_on_c, 0, 73, 97
2, 143679, Note_on_c, 0, 45, 0
2, 143680, Note_on_c, 0, 47, 97
2, 143743, Note_on_c, 0, 47, 0
2, 143743, Note_on_c, 0, 73, 0
2, 143744, Note_on_c, 0, 49, 97
2, 143744, Note_on_c, 0, 67, 97
2, 143807, Note_on_c, 0, 67, 0
2, 143807, Note_on_c, 0, 49, 0
2, 143808, Note_on_c, 0, 47, 97
2, 143808, Note_on_c, 0, 74, 97
2, 143871, Note_on_c, 0, 47, 0
2, 143872, Note_on_c, 0, 49, 97
2, 143935, Note_on_c, 0, 49, 0
2, 143935, Note_on_c, 0, 74, 0
2, 143936, Note_on_c, 0, 50, 97
2, 143936, Note_on_c, 0, 67, 97
2, 143999, Note_on_c, 0, 67, 0
2, 143999, Note_on_c, 0, 50, 0
2, 144000, Note_on_c, 0, 49, 97
2, 144000, Note_on_c, 0, 76, 97
2, 144063, Note_on_c, 0, 49, 0
2, 144064, Note_on_c, 0, 50, 97
2, 144127, Note_on_c, 0, 50, 0
2, 144127, Note_on_c, 0, 76, 0
2, 144128, Note_on_c, 0, 52, 97
2, 144128, Note_on_c, 0, 67, 97
2, 144191, Note_on_c, 0, 67, 0
2, 144191, Note_on_c, 0, 52, 0
2, 144192, Note_on_c, 0, 45, 97
2, 144192, Note_on_c, 0, 66, 97
2, 144255, Note_on_c, 0, 45, 0
2, 144256, Note_on_c, 0, 47, 97
2, 144319, Note_on_c, 0, 47, 0
2, 144319, Note_on_c, 0, 66, 0
2, 144320, Note_on_c, 0, 49, 97
2, 144320, Note_on_c, 0, 64, 97
2, 144383, Note_on_c, 0, 64, 0
2, 144383, Note_on_c, 0, 49, 0
2, 144384, Note_on_c, 0, 50, 97
2, 144384, Note_on_c, 0, 66, 97
2, 144447, Note_on_c, 0, 50, 0
2, 144448, Note_on_c, 0, 52, 97
2, 144511, Note_on_c, 0, 52, 0
2, 144511, Note_on_c, 0, 66, 0
2, 144512, Note_on_c, 0, 54, 97
2, 144512, Note_on_c, 0, 62, 97
2, 144575, Note_on_c, 0, 62, 0
2, 144575, Note_on_c, 0, 54, 0
2, 144576, Note_on_c, 0, 52, 97
2, 144576, Note_on_c, 0, 67, 97
2, 144639, Note_on_c, 0, 52, 0
2, 144640, Note_on_c, 0, 54, 97
2, 144703, Note_on_c, 0, 54, 0
2, 144703, Note_on_c, 0, 67, 0
2, 144704, Note_on_c, 0, 55, 97
2, 144704, Note_on_c, 0, 62, 97
2, 144767, Note_on_c, 0, 62, 0
2, 144767, Note_on_c, 0, 55, 0
2, 144768, Note_on_c, 0, 54, 97
2, 144768, Note_on_c, 0, 69, 97
2, 144831, Note_on_c, 0, 54, 0
2, 144832, Note_on_c, 0, 55, 97
2, 144895, Note_on_c, 0, 55, 0
2, 144895, Note_on_c, 0, 69, 0
2, 144896, Note_on_c, 0, 57, 97
2, 144896, Note_on_c, 0, 62, 97
2, 144959, Note_on_c, 0, 62, 0
2, 144959, Note_on_c, 0, 57, 0
2, 144960, Note_on_c, 0, 50, 97
2, 144960, Note_on_c, 0, 72, 97
2, 145023, Note_on_c, 0, 72, 0
2, 145023, Note_on_c, 0, 50, 0
2, 145024, Note_on_c, 0, 52, 97
2, 145024, Note_on_c, 0, 71, 97
2, 145087, Note_on_c, 0, 71, 0
2, 145087, Note_on_c, 0, 52, 0
2, 145088, Note_on_c, 0, 54, 97
2, 145088, Note_on_c, 0, 69, 97
2, 145151, Note_on_c, 0, 69, 0
2, 145151, Note_on_c, 0, 54, 0
2, 145152, Note_on_c, 0, 55, 97
2, 145152, Note_on_c, 0, 71, 97
2, 145215, Note_on_c, 0, 55, 0
2, 145216, Note_on_c, 0, 57, 97
2, 145279, Note_on_c, 0, 57, 0
2, 145279, Note_on_c, 0, 71, 0
2, 145280, Note_on_c, 0, 59, 97
2, 145280, Note_on_c, 0, 65, 97
2, 145343, Note_on_c, 0, 65, 0
2, 145343, Note_on_c, 0, 59, 0
2, 145344, Note_on_c, 0, 57, 97
2, 145344, Note_on_c, 0, 72, 97
2, 145407, Note_on_c, 0, 57, 0
2, 145408, Note_on_c, 0, 59, 97
2, 145471, Note_on_c, 0, 59, 0
2, 145471, Note_on_c, 0, 72, 0
2, 145472, Note_on_c, 0, 60, 97
2, 145472, Note_on_c, 0, 65, 97
2, 145535, Note_on_c, 0, 65, 0
2, 145535, Note_on_c, 0, 60, 0
2, 145536, Note_on_c, 0, 59, 97
2, 145536, Note_on_c, 0, 74, 97
2, 145599, Note_on_c, 0, 59, 0
2, 145600, Note_on_c, 0, 60, 97
2, 145663, Note_on_c, 0, 60, 0
2, 145663, Note_on_c, 0, 74, 0
2, 145664, Note_on_c, 0, 62, 97
2, 145664, Note_on_c, 0, 65, 97
2, 145727, Note_on_c, 0, 65, 0
2, 145727, Note_on_c, 0, 62, 0
2, 145728, Note_on_c, 0, 55, 97
2, 145728, Note_on_c, 0, 64, 97
2, 145791, Note_on_c, 0, 55, 0
2, 145792, Note_on_c, 0, 57, 97
2, 145855, Note_on_c, 0, 57, 0
2, 145855, Note_on_c, 0, 64, 0
2, 145856, Note_on_c, 0, 59, 97
2, 145856, Note_on_c, 0, 62, 97
2, 145919, Note_on_c, 0, 62, 0
2, 145919, Note_on_c, 0, 59, 0
2, 145920, Note_on_c, 0, 60, 97
2, 145920, Note_on_c, 0, 64, 97
2, 145952, Note_on_c, 0, 62, 97
2, 145956, Note_on_c, 0, 64, 0
2, 145983, Note_on_c, 0, 60, 0
2, 145984, Note_on_c, 0, 59, 97
2, 145984, Note_on_c, 0, 64, 97
2, 145988, Note_on_c, 0, 62, 0
2, 146047, Note_on_c, 0, 59, 0
2, 146048, Note_on_c, 0, 57, 97
2, 146111, Note_on_c, 0, 57, 0
2, 146112, Note_on_c, 0, 56, 97
2, 146175, Note_on_c, 0, 56, 0
2, 146176, Note_on_c, 0, 57, 97
2, 146239, Note_on_c, 0, 57, 0
2, 146239, Note_on_c, 0, 64, 0
2, 146240, Note_on_c, 0, 59, 97
2, 146240, Note_on_c, 0, 64, 97
2, 146303, Note_on_c, 0, 64, 0
2, 146303, Note_on_c, 0, 59, 0
2, 146304, Note_on_c, 0, 57, 97
2, 146304, Note_on_c, 0, 72, 97
2, 146367, Note_on_c, 0, 57, 0
2, 146368, Note_on_c, 0, 55, 97
2, 146431, Note_on_c, 0, 55, 0
2, 146432, Note_on_c, 0, 54, 97
2, 146495, Note_on_c, 0, 54, 0
2, 146496, Note_on_c, 0, 52, 97
2, 146559, Note_on_c, 0, 52, 0
2, 146560, Note_on_c, 0, 54, 97
2, 146623, Note_on_c, 0, 54, 0
2, 146624, Note_on_c, 0, 55, 97
2, 146687, Note_on_c, 0, 55, 0
2, 146688, Note_on_c, 0, 54, 97
2, 146734, Note_on_c, 0, 72, 0
2, 146752, Note_on_c, 0, 64, 97
2, 146815, Note_on_c, 0, 64, 0
2, 146816, Note_on_c, 0, 62, 97
2, 146879, Note_on_c, 0, 62, 0
2, 146880, Note_on_c, 0, 64, 97
2, 146943, Note_on_c, 0, 64, 0
2, 146944, Note_on_c, 0, 62, 97
2, 147007, Note_on_c, 0, 62, 0
2, 147008, Note_on_c, 0, 60, 97
2, 147071, Note_on_c, 0, 60, 0
2, 147072, Note_on_c, 0, 62, 97
2, 147135, Note_on_c, 0, 54, 0
2, 147136, Note_on_c, 0, 54, 97
2, 147199, Note_on_c, 0, 54, 0
2, 147200, Note_on_c, 0, 52, 97
2, 147263, Note_on_c, 0, 52, 0
2, 147263, Note_on_c, 0, 62, 0
2, 147264, Note_on_c, 0, 54, 97
2, 147264, Note_on_c, 0, 72, 97
2, 147327, Note_on_c, 0, 54, 0
2, 147328, Note_on_c, 0, 52, 97
2, 147391, Note_on_c, 0, 52, 0
2, 147392, Note_on_c, 0, 50, 97
2, 147455, Note_on_c, 0, 50, 0
2, 147456, Note_on_c, 0, 55, 97
2, 147509, Note_on_c, 0, 72, 0
2, 147520, Note_on_c, 0, 71, 97
2, 147583, Note_on_c, 0, 71, 0
2, 147584, Note_on_c, 0, 72, 97
2, 147647, Note_on_c, 0, 72, 0
2, 147647, Note_on_c, 0, 55, 0
2, 147648, Note_on_c, 0, 43, 97
2, 147648, Note_on_c, 0, 74, 97
2, 147711, Note_on_c, 0, 74, 0
2, 147712, Note_on_c, 0, 72, 97
2, 147775, Note_on_c, 0, 72, 0
2, 147776, Note_on_c, 0, 71, 97
2, 147839, Note_on_c, 0, 71, 0
2, 147839, Note_on_c, 0, 43, 0
2, 147840, Note_on_c, 0, 47, 97
2, 147840, Note_on_c, 0, 69, 97
2, 147903, Note_on_c, 0, 69, 0
2, 147904, Note_on_c, 0, 67, 97
2, 147967, Note_on_c, 0, 67, 0
2, 147968, Note_on_c, 0, 69, 97
2, 148031, Note_on_c, 0, 69, 0
2, 148031, Note_on_c, 0, 47, 0
2, 148032, Note_on_c, 0, 43, 97
2, 148032, Note_on_c, 0, 71, 97
2, 148095, Note_on_c, 0, 71, 0
2, 148096, Note_on_c, 0, 69, 97
2, 148159, Note_on_c, 0, 69, 0
2, 148160, Note_on_c, 0, 67, 97
2, 148223, Note_on_c, 0, 67, 0
2, 148223, Note_on_c, 0, 43, 0
2, 148224, Note_on_c, 0, 48, 97
2, 148224, Note_on_c, 0, 65, 97
2, 148287, Note_on_c, 0, 65, 0
2, 148288, Note_on_c, 0, 64, 97
2, 148351, Note_on_c, 0, 64, 0
2, 148352, Note_on_c, 0, 65, 97
2, 148415, Note_on_c, 0, 65, 0
2, 148415, Note_on_c, 0, 48, 0
2, 148416, Note_on_c, 0, 36, 97
2, 148416, Note_on_c, 0, 67, 97
2, 148479, Note_on_c, 0, 67, 0
2, 148480, Note_on_c, 0, 65, 97
2, 148543, Note_on_c, 0, 65, 0
2, 148544, Note_on_c, 0, 64, 97
2, 148607, Note_on_c, 0, 64, 0
2, 148608, Note_on_c, 0, 62, 97
2, 148671, Note_on_c, 0, 62, 0
2, 148671, Note_on_c, 0, 36, 0
2, 148672, Note_on_c, 0, 48, 97
2, 148672, Note_on_c, 0, 60, 97
2, 148735, Note_on_c, 0, 60, 0
2, 148735, Note_on_c, 0, 48, 0
2, 148736, Note_on_c, 0, 50, 97
2, 148799, Note_on_c, 0, 50, 0
2, 148800, Note_on_c, 0, 52, 97
2, 148800, Note_on_c, 0, 70, 97
2, 148863, Note_on_c, 0, 52, 0
2, 148864, Note_on_c, 0, 52, 97
2, 148927, Note_on_c, 0, 52, 0
2, 148928, Note_on_c, 0, 54, 97
2, 148991, Note_on_c, 0, 54, 0
2, 148992, Note_on_c, 0, 55, 97
2, 149055, Note_on_c, 0, 70, 0
2, 149056, Note_on_c, 0, 69, 97
2, 149119, Note_on_c, 0, 69, 0
2, 149120, Note_on_c, 0, 67, 97
2, 149183, Note_on_c, 0, 67, 0
2, 149183, Note_on_c, 0, 55, 0
2, 149184, Note_on_c, 0, 49, 97
2, 149184, Note_on_c, 0, 69, 97
2, 149247, Note_on_c, 0, 69, 0
2, 149248, Note_on_c, 0, 67, 97
2, 149311, Note_on_c, 0, 67, 0
2, 149312, Note_on_c, 0, 66, 97
2, 149375, Note_on_c, 0, 66, 0
2, 149375, Note_on_c, 0, 49, 0
2, 149376, Note_on_c, 0, 52, 97
2, 149376, Note_on_c, 0, 67, 97
2, 149439, Note_on_c, 0, 67, 0
2, 149440, Note_on_c, 0, 66, 97
2, 149503, Note_on_c, 0, 66, 0
2, 149504, Note_on_c, 0, 64, 97
2, 149567, Note_on_c, 0, 64, 0
2, 149567, Note_on_c, 0, 52, 0
2, 149568, Note_on_c, 0, 45, 97
2, 149568, Note_on_c, 0, 73, 97
2, 149695, Note_on_c, 0, 73, 0
2, 149696, Note_on_c, 0, 74, 97
2, 149759, Note_on_c, 0, 74, 0
2, 149759, Note_on_c, 0, 45, 0
2, 149760, Note_on_c, 0, 38, 97
2, 149760, Note_on_c, 0, 67, 97
2, 149855, Note_on_c, 0, 67, 0
2, 149856, Note_on_c, 0, 66, 97
2, 149904, Note_on_c, 0, 64, 97
2, 149910, Note_on_c, 0, 66, 0
2, 149951, Note_on_c, 0, 38, 0
2, 149952, Note_on_c, 0, 50, 97
2, 149952, Note_on_c, 0, 66, 97
2, 149958, Note_on_c, 0, 64, 0
2, 150000, Note_on_c, 0, 67, 97
2, 150005, Note_on_c, 0, 66, 0
2, 150048, Note_on_c, 0, 66, 97
2, 150054, Note_on_c, 0, 67, 0
2, 150096, Note_on_c, 0, 64, 97
2, 150102, Note_on_c, 0, 66, 0
2, 150144, Note_on_c, 0, 62, 97
2, 150150, Note_on_c, 0, 64, 0
2, 150201, Note_on_c, 0, 50, 0
2, 150208, Note_on_c, 0, 48, 97
2, 150271, Note_on_c, 0, 48, 0
2, 150272, Note_on_c, 0, 47, 97
2, 150335, Note_on_c, 0, 47, 0
2, 150336, Note_on_c, 0, 45, 97
2, 150399, Note_on_c, 0, 45, 0
2, 150400, Note_on_c, 0, 47, 97
2, 150463, Note_on_c, 0, 47, 0
2, 150464, Note_on_c, 0, 48, 97
2, 150527, Note_on_c, 0, 48, 0
2, 150528, Note_on_c, 0, 35, 97
2, 150544, Note_on_c, 0, 62, 0
2, 150592, Note_on_c, 0, 62, 97
2, 150655, Note_on_c, 0, 62, 0
2, 150656, Note_on_c, 0, 64, 97
2, 150719, Note_on_c, 0, 64, 0
2, 150719, Note_on_c, 0, 35, 0
2, 150720, Note_on_c, 0, 59, 97
2, 150720, Note_on_c, 0, 66, 97
2, 150783, Note_on_c, 0, 66, 0
2, 150784, Note_on_c, 0, 66, 97
2, 150847, Note_on_c, 0, 66, 0
2, 150848, Note_on_c, 0, 67, 97
2, 150911, Note_on_c, 0, 67, 0
2, 150911, Note_on_c, 0, 59, 0
2, 150912, Note_on_c, 0, 57, 97
2, 150912, Note_on_c, 0, 69, 97
2, 150975, Note_on_c, 0, 69, 0
2, 150976, Note_on_c, 0, 69, 97
2, 151039, Note_on_c, 0, 69, 0
2, 151040, Note_on_c, 0, 71, 97
2, 151103, Note_on_c, 0, 71, 0
2, 151103, Note_on_c, 0, 57, 0
2, 151104, Note_on_c, 0, 55, 97
2, 151104, Note_on_c, 0, 72, 97
2, 151167, Note_on_c, 0, 72, 0
2, 151168, Note_on_c, 0, 72, 97
2, 151231, Note_on_c, 0, 72, 0
2, 151232, Note_on_c, 0, 74, 97
2, 151295, Note_on_c, 0, 74, 0
2, 151295, Note_on_c, 0, 55, 0
2, 151296, Note_on_c, 0, 54, 97
2, 151296, Note_on_c, 0, 75, 97
2, 151359, Note_on_c, 0, 54, 0
2, 151360, Note_on_c, 0, 38, 97
2, 151423, Note_on_c, 0, 38, 0
2, 151423, Note_on_c, 0, 75, 0
2, 151424, Note_on_c, 0, 40, 97
2, 151424, Note_on_c, 0, 73, 97
2, 151484, Note_on_c, 0, 73, 0
2, 151487, Note_on_c, 0, 40, 0
2, 151488, Note_on_c, 0, 42, 97
2, 151488, Note_on_c, 0, 74, 97
2, 151551, Note_on_c, 0, 42, 0
2, 151552, Note_on_c, 0, 43, 97
2, 151615, Note_on_c, 0, 43, 0
2, 151616, Note_on_c, 0, 45, 97
2, 151679, Note_on_c, 0, 45, 0
2, 151680, Note_on_c, 0, 47, 97
2, 151743, Note_on_c, 0, 47, 0
2, 151744, Note_on_c, 0, 48, 97
2, 151788, Note_on_c, 0, 74, 0
2, 151807, Note_on_c, 0, 48, 0
2, 151808, Note_on_c, 0, 50, 97
2, 151808, Note_on_c, 0, 78, 97
2, 151871, Note_on_c, 0, 78, 0
2, 151871, Note_on_c, 0, 50, 0
2, 151872, Note_on_c, 0, 52, 97
2, 151872, Note_on_c, 0, 79, 97
2, 151935, Note_on_c, 0, 52, 0
2, 151936, Note_on_c, 0, 54, 97
2, 151999, Note_on_c, 0, 54, 0
2, 151999, Note_on_c, 0, 79, 0
2, 152000, Note_on_c, 0, 55, 97
2, 152000, Note_on_c, 0, 71, 97
2, 152063, Note_on_c, 0, 71, 0
2, 152063, Note_on_c, 0, 55, 0
2, 152064, Note_on_c, 0, 57, 97
2, 152064, Note_on_c, 0, 73, 97
2, 152127, Note_on_c, 0, 57, 0
2, 152128, Note_on_c, 0, 55, 97
2, 152191, Note_on_c, 0, 55, 0
2, 152191, Note_on_c, 0, 73, 0
2, 152192, Note_on_c, 0, 54, 97
2, 152192, Note_on_c, 0, 74, 97
2, 152255, Note_on_c, 0, 74, 0
2, 152255, Note_on_c, 0, 54, 0
2, 152256, Note_on_c, 0, 59, 97
2, 152256, Note_on_c, 0, 66, 97
2, 152319, Note_on_c, 0, 59, 0
2, 152320, Note_on_c, 0, 57, 97
2, 152383, Note_on_c, 0, 57, 0
2, 152383, Note_on_c, 0, 66, 0
2, 152384, Note_on_c, 0, 55, 97
2, 152384, Note_on_c, 0, 67, 97
2, 152447, Note_on_c, 0, 67, 0
2, 152447, Note_on_c, 0, 55, 0
2, 152448, Note_on_c, 0, 62, 97
2, 152448, Note_on_c, 0, 71, 97
2, 152639, Note_on_c, 0, 62, 0
2, 152640, Note_on_c, 0, 50, 97
2, 152671, Note_on_c, 0, 71, 0
2, 152672, Note_on_c, 0, 69, 97
2, 152703, Note_on_c, 0, 69, 0
2, 152704, Note_on_c, 0, 71, 97
2, 152735, Note_on_c, 0, 71, 0
2, 152736, Note_on_c, 0, 69, 97
2, 152767, Note_on_c, 0, 69, 0
2, 152768, Note_on_c, 0, 67, 97
2, 152831, Note_on_c, 0, 67, 0
2, 152831, Note_on_c, 0, 50, 0
2, 152832, Note_on_c, 0, 52, 97
2, 152832, Note_on_c, 0, 67, 97
2, 152895, Note_on_c, 0, 52, 0
2, 152896, Note_on_c, 0, 47, 97
2, 152959, Note_on_c, 0, 47, 0
2, 152959, Note_on_c, 0, 67, 0
2, 152960, Note_on_c, 0, 43, 97
2, 152960, Note_on_c, 0, 64, 97
2, 153023, Note_on_c, 0, 64, 0
2, 153023, Note_on_c, 0, 43, 0
2, 153024, Note_on_c, 0, 40, 97
2, 153024, Note_on_c, 0, 62, 97
2, 153087, Note_on_c, 0, 40, 0
2, 153088, Note_on_c, 0, 43, 97
2, 153151, Note_on_c, 0, 43, 0
2, 153151, Note_on_c, 0, 62, 0
2, 153152, Note_on_c, 0, 47, 97
2, 153152, Note_on_c, 0, 67, 97
2, 153215, Note_on_c, 0, 67, 0
2, 153215, Note_on_c, 0, 47, 0
2, 153216, Note_on_c, 0, 52, 97
2, 153216, Note_on_c, 0, 60, 97
2, 153279, Note_on_c, 0, 52, 0
2, 153280, Note_on_c, 0, 50, 97
2, 153343, Note_on_c, 0, 50, 0
2, 153343, Note_on_c, 0, 60, 0
2, 153344, Note_on_c, 0, 48, 97
2, 153344, Note_on_c, 0, 67, 97
2, 153407, Note_on_c, 0, 67, 0
2, 153407, Note_on_c, 0, 48, 0
2, 153408, Note_on_c, 0, 50, 97
2, 153408, Note_on_c, 0, 59, 97
2, 153471, Note_on_c, 0, 50, 0
2, 153472, Note_on_c, 0, 48, 97
2, 153535, Note_on_c, 0, 48, 0
2, 153535, Note_on_c, 0, 59, 0
2, 153536, Note_on_c, 0, 47, 97
2, 153536, Note_on_c, 0, 67, 97
2, 153599, Note_on_c, 0, 67, 0
2, 153599, Note_on_c, 0, 47, 0
2, 153600, Note_on_c, 0, 48, 97
2, 153600, Note_on_c, 0, 57, 97
2, 153663, Note_on_c, 0, 48, 0
2, 153664, Note_on_c, 0, 47, 97
2, 153727, Note_on_c, 0, 47, 0
2, 153727, Note_on_c, 0, 57, 0
2, 153728, Note_on_c, 0, 45, 97
2, 153728, Note_on_c, 0, 66, 97
2, 153791, Note_on_c, 0, 66, 0
2, 153791, Note_on_c, 0, 45, 0
2, 153792, Note_on_c, 0, 47, 97
2, 153792, Note_on_c, 0, 67, 97
2, 153855, Note_on_c, 0, 67, 0
2, 153855, Note_on_c, 0, 47, 0
2, 153856, Note_on_c, 0, 45, 97
2, 153856, Note_on_c, 0, 66, 97
2, 153919, Note_on_c, 0, 66, 0
2, 153919, Note_on_c, 0, 45, 0
2, 153920, Note_on_c, 0, 43, 97
2, 153920, Note_on_c, 0, 64, 97
2, 153983, Note_on_c, 0, 64, 0
2, 153983, Note_on_c, 0, 43, 0
2, 153984, Note_on_c, 0, 50, 97
2, 153984, Note_on_c, 0, 67, 97
2, 154175, Note_on_c, 0, 67, 0
2, 154176, Note_on_c, 0, 38, 97
2, 154176, Note_on_c, 0, 66, 97
2, 154207, Note_on_c, 0, 66, 0
2, 154208, Note_on_c, 0, 67, 97
2, 154239, Note_on_c, 0, 67, 0
2, 154240, Note_on_c, 0, 66, 97
2, 154303, Note_on_c, 0, 66, 0
2, 154304, Note_on_c, 0, 67, 97
2, 154364, Note_on_c, 0, 50, 0
2, 154367, Note_on_c, 0, 67, 0
2, 154367, Note_on_c, 0, 38, 0
2, 154368, Note_on_c, 0, 43, 97
2, 154368, Note_on_c, 0, 67, 97
2, 154508, Note_on_c, 0, 43, 0
2, 154560, Note_on_c, 0, 59, 97
2, 154560, Note_on_c, 0, 62, 97
2, 154648, Note_on_c, 0, 71, 97
2, 154656, Note_on_c, 0, 67, 0
2, 154698, Note_on_c, 0, 71, 0
2, 154700, Note_on_c, 0, 62, 0
2, 154700, Note_on_c, 0, 59, 0
2, 154700, Note_on_c, 0, 69, 97
2, 154750, Note_on_c, 0, 69, 0
2, 154752, Note_on_c, 0, 67, 97
2, 154752, Note_on_c, 0, 62, 97
2, 154752, Note_on_c, 0, 71, 97
2, 154815, Note_on_c, 0, 71, 0
2, 154816, Note_on_c, 0, 74, 97
2, 154879, Note_on_c, 0, 74, 0
2, 154880, Note_on_c, 0, 72, 97
2, 154892, Note_on_c, 0, 62, 0
2, 154892, Note_on_c, 0, 67, 0
2, 154943, Note_on_c, 0, 72, 0
2, 154944, Note_on_c, 0, 67, 97
2, 154944, Note_on_c, 0, 71, 97
2, 154944, Note_on_c, 0, 74, 97
2, 155007, Note_on_c, 0, 74, 0
2, 155008, Note_on_c, 0, 79, 97
2, 155071, Note_on_c, 0, 79, 0
2, 155072, Note_on_c, 0, 78, 97
2, 155084, Note_on_c, 0, 71, 0
2, 155084, Note_on_c, 0, 67, 0
2, 155135, Note_on_c, 0, 78, 0
2, 155136, Note_on_c, 0, 71, 97
2, 155136, Note_on_c, 0, 74, 97
2, 155136, Note_on_c, 0, 79, 97
2, 155200, Note_on_c, 0, 43, 97
2, 155263, Note_on_c, 0, 43, 0
2, 155264, Note_on_c, 0, 42, 97
2, 155327, Note_on_c, 0, 42, 0
2, 155328, Note_on_c, 0, 43, 97
2, 155391, Note_on_c, 0, 43, 0
2, 155392, Note_on_c, 0, 38, 97
2, 155455, Note_on_c, 0, 38, 0
2, 155456, Note_on_c, 0, 35, 97
2, 155519, Note_on_c, 0, 35, 0
2, 155520, Note_on_c, 0, 31, 97
2, 155711, Note_on_c, 0, 71, 0
2, 155711, Note_on_c, 0, 79, 0
2, 155711, Note_on_c, 0, 74, 0
2, 156095, Note_on_c, 0, 31, 0
2, 158688, Note_on_c, 0, 74, 97
2, 158783, Note_on_c, 0, 74, 0
2, 158784, Note_on_c, 0, 76, 97
2, 158879, Note_on_c, 0, 76, 0
2, 158880, Note_on_c, 0, 78, 97
2, 158975, Note_on_c, 0, 78, 0
2, 158976, Note_on_c, 0, 55, 97
2, 158976, Note_on_c, 0, 79, 97
2, 159071, Note_on_c, 0, 79, 0
2, 159072, Note_on_c, 0, 74, 97
2, 159167, Note_on_c, 0, 74, 0
2, 159167, Note_on_c, 0, 55, 0
2, 159168, Note_on_c, 0, 59, 97
2, 159168, Note_on_c, 0, 71, 97
2, 159263, Note_on_c, 0, 71, 0
2, 159264, Note_on_c, 0, 74, 97
2, 159288, Note_on_c, 0, 59, 0
2, 159359, Note_on_c, 0, 74, 0
2, 159360, Note_on_c, 0, 62, 97
2, 159360, Note_on_c, 0, 67, 97
2, 159455, Note_on_c, 0, 67, 0
2, 159456, Note_on_c, 0, 71, 97
2, 159480, Note_on_c, 0, 62, 0
2, 159551, Note_on_c, 0, 71, 0
2, 159552, Note_on_c, 0, 59, 97
2, 159552, Note_on_c, 0, 74, 97
2, 159647, Note_on_c, 0, 74, 0
2, 159648, Note_on_c, 0, 71, 97
2, 159672, Note_on_c, 0, 59, 0
2, 159743, Note_on_c, 0, 71, 0
2, 159744, Note_on_c, 0, 55, 97
2, 159744, Note_on_c, 0, 79, 97
2, 159839, Note_on_c, 0, 79, 0
2, 159840, Note_on_c, 0, 74, 97
2, 159864, Note_on_c, 0, 55, 0
2, 159935, Note_on_c, 0, 74, 0
2, 159936, Note_on_c, 0, 83, 97
2, 160031, Note_on_c, 0, 83, 0
2, 160032, Note_on_c, 0, 79, 97
2, 160127, Note_on_c, 0, 79, 0
2, 160128, Note_on_c, 0, 54, 97
2, 160128, Note_on_c, 0, 81, 97
2, 160223, Note_on_c, 0, 81, 0
2, 160224, Note_on_c, 0, 78, 97
2, 160319, Note_on_c, 0, 78, 0
2, 160319, Note_on_c, 0, 54, 0
2, 160320, Note_on_c, 0, 57, 97
2, 160320, Note_on_c, 0, 74, 97
2, 160415, Note_on_c, 0, 74, 0
2, 160416, Note_on_c, 0, 78, 97
2, 160440, Note_on_c, 0, 57, 0
2, 160511, Note_on_c, 0, 78, 0
2, 160512, Note_on_c, 0, 62, 97
2, 160512, Note_on_c, 0, 69, 97
2, 160607, Note_on_c, 0, 69, 0
2, 160608, Note_on_c, 0, 74, 97
2, 160632, Note_on_c, 0, 62, 0
2, 160703, Note_on_c, 0, 74, 0
2, 160704, Note_on_c, 0, 57, 97
2, 160704, Note_on_c, 0, 78, 97
2, 160799, Note_on_c, 0, 78, 0
2, 160800, Note_on_c, 0, 74, 97
2, 160824, Note_on_c, 0, 57, 0
2, 160895, Note_on_c, 0, 74, 0
2, 160896, Note_on_c, 0, 54, 97
2, 160896, Note_on_c, 0, 81, 97
2, 160991, Note_on_c, 0, 81, 0
2, 160992, Note_on_c, 0, 78, 97
2, 161016, Note_on_c, 0, 54, 0
2, 161087, Note_on_c, 0, 78, 0
2, 161088, Note_on_c, 0, 84, 97
2, 161183, Note_on_c, 0, 84, 0
2, 161184, Note_on_c, 0, 81, 97
2, 161279, Note_on_c, 0, 81, 0
2, 161280, Note_on_c, 0, 55, 97
2, 161280, Note_on_c, 0, 83, 97
2, 161375, Note_on_c, 0, 83, 0
2, 161376, Note_on_c, 0, 79, 97
2, 161471, Note_on_c, 0, 79, 0
2, 161471, Note_on_c, 0, 55, 0
2, 161472, Note_on_c, 0, 59, 97
2, 161472, Note_on_c, 0, 74, 97
2, 161567, Note_on_c, 0, 74, 0
2, 161568, Note_on_c, 0, 79, 97
2, 161592, Note_on_c, 0, 59, 0
2, 161663, Note_on_c, 0, 79, 0
2, 161664, Note_on_c, 0, 62, 97
2, 161664, Note_on_c, 0, 84, 97
2, 161759, Note_on_c, 0, 84, 0
2, 161760, Note_on_c, 0, 81, 97
2, 161784, Note_on_c, 0, 62, 0
2, 161855, Note_on_c, 0, 81, 0
2, 161856, Note_on_c, 0, 67, 97
2, 161856, Note_on_c, 0, 83, 97
2, 161951, Note_on_c, 0, 83, 0
2, 161952, Note_on_c, 0, 79, 97
2, 162047, Note_on_c, 0, 79, 0
2, 162047, Note_on_c, 0, 67, 0
2, 162048, Note_on_c, 0, 59, 97
2, 162048, Note_on_c, 0, 74, 97
2, 162143, Note_on_c, 0, 74, 0
2, 162144, Note_on_c, 0, 79, 97
2, 162168, Note_on_c, 0, 59, 0
2, 162239, Note_on_c, 0, 79, 0
2, 162240, Note_on_c, 0, 62, 97
2, 162240, Note_on_c, 0, 84, 97
2, 162335, Note_on_c, 0, 84, 0
2, 162336, Note_on_c, 0, 81, 97
2, 162360, Note_on_c, 0, 62, 0
2, 162431, Note_on_c, 0, 81, 0
2, 162432, Note_on_c, 0, 55, 97
2, 162432, Note_on_c, 0, 83, 97
2, 162527, Note_on_c, 0, 83, 0
2, 162528, Note_on_c, 0, 79, 97
2, 162623, Note_on_c, 0, 79, 0
2, 162623, Note_on_c, 0, 55, 0
2, 162624, Note_on_c, 0, 60, 97
2, 162624, Note_on_c, 0, 81, 97
2, 162719, Note_on_c, 0, 81, 0
2, 162720, Note_on_c, 0, 78, 97
2, 162744, Note_on_c, 0, 60, 0
2, 162815, Note_on_c, 0, 78, 0
2, 162816, Note_on_c, 0, 57, 97
2, 162816, Note_on_c, 0, 79, 97
2, 162911, Note_on_c, 0, 79, 0
2, 162912, Note_on_c, 0, 76, 97
2, 162936, Note_on_c, 0, 57, 0
2, 163007, Note_on_c, 0, 76, 0
2, 163008, Note_on_c, 0, 62, 97
2, 163008, Note_on_c, 0, 78, 97
2, 163104, Note_on_c, 0, 74, 97
2, 163188, Note_on_c, 0, 78, 0
2, 163199, Note_on_c, 0, 74, 0
2, 163200, Note_on_c, 0, 50, 97
2, 163200, Note_on_c, 0, 69, 97
2, 163295, Note_on_c, 0, 69, 0
2, 163296, Note_on_c, 0, 74, 97
2, 163320, Note_on_c, 0, 50, 0
2, 163388, Note_on_c, 0, 62, 0
2, 163391, Note_on_c, 0, 74, 0
2, 163392, Note_on_c, 0, 60, 97
2, 163392, Note_on_c, 0, 78, 97
2, 163487, Note_on_c, 0, 78, 0
2, 163488, Note_on_c, 0, 74, 97
2, 163512, Note_on_c, 0, 60, 0
2, 163583, Note_on_c, 0, 74, 0
2, 163584, Note_on_c, 0, 59, 97
2, 163584, Note_on_c, 0, 79, 97
2, 163679, Note_on_c, 0, 79, 0
2, 163680, Note_on_c, 0, 74, 97
2, 163704, Note_on_c, 0, 59, 0
2, 163775, Note_on_c, 0, 74, 0
2, 163776, Note_on_c, 0, 57, 97
2, 163776, Note_on_c, 0, 81, 97
2, 163871, Note_on_c, 0, 81, 0
2, 163872, Note_on_c, 0, 74, 97
2, 163896, Note_on_c, 0, 57, 0
2, 163967, Note_on_c, 0, 74, 0
2, 163968, Note_on_c, 0, 55, 97
2, 163968, Note_on_c, 0, 83, 97
2, 164063, Note_on_c, 0, 83, 0
2, 164064, Note_on_c, 0, 74, 97
2, 164088, Note_on_c, 0, 55, 0
2, 164159, Note_on_c, 0, 74, 0
2, 164160, Note_on_c, 0, 60, 97
2, 164160, Note_on_c, 0, 76, 97
2, 164256, Note_on_c, 0, 72, 97
2, 164340, Note_on_c, 0, 76, 0
2, 164351, Note_on_c, 0, 72, 0
2, 164352, Note_on_c, 0, 48, 97
2, 164352, Note_on_c, 0, 67, 97
2, 164447, Note_on_c, 0, 67, 0
2, 164448, Note_on_c, 0, 72, 97
2, 164472, Note_on_c, 0, 48, 0
2, 164540, Note_on_c, 0, 60, 0
2, 164543, Note_on_c, 0, 72, 0
2, 164544, Note_on_c, 0, 59, 97
2, 164544, Note_on_c, 0, 76, 97
2, 164639, Note_on_c, 0, 76, 0
2, 164640, Note_on_c, 0, 72, 97
2, 164664, Note_on_c, 0, 59, 0
2, 164735, Note_on_c, 0, 72, 0
2, 164736, Note_on_c, 0, 57, 97
2, 164736, Note_on_c, 0, 78, 97
2, 164831, Note_on_c, 0, 78, 0
2, 164832, Note_on_c, 0, 72, 97
2, 164856, Note_on_c, 0, 57, 0
2, 164927, Note_on_c, 0, 72, 0
2, 164928, Note_on_c, 0, 55, 97
2, 164928, Note_on_c, 0, 79, 97
2, 165023, Note_on_c, 0, 79, 0
2, 165024, Note_on_c, 0, 72, 97
2, 165048, Note_on_c, 0, 55, 0
2, 165119, Note_on_c, 0, 72, 0
2, 165120, Note_on_c, 0, 54, 97
2, 165120, Note_on_c, 0, 81, 97
2, 165215, Note_on_c, 0, 81, 0
2, 165216, Note_on_c, 0, 72, 97
2, 165240, Note_on_c, 0, 54, 0
2, 165311, Note_on_c, 0, 72, 0
2, 165312, Note_on_c, 0, 59, 97
2, 165312, Note_on_c, 0, 75, 97
2, 165408, Note_on_c, 0, 71, 97
2, 165482, Note_on_c, 0, 75, 0
2, 165503, Note_on_c, 0, 71, 0
2, 165504, Note_on_c, 0, 47, 97
2, 165504, Note_on_c, 0, 66, 97
2, 165599, Note_on_c, 0, 66, 0
2, 165600, Note_on_c, 0, 71, 97
2, 165624, Note_on_c, 0, 47, 0
2, 165692, Note_on_c, 0, 59, 0
2, 165695, Note_on_c, 0, 71, 0
2, 165696, Note_on_c, 0, 57, 97
2, 165696, Note_on_c, 0, 75, 97
2, 165791, Note_on_c, 0, 75, 0
2, 165792, Note_on_c, 0, 71, 97
2, 165816, Note_on_c, 0, 57, 0
2, 165887, Note_on_c, 0, 71, 0
2, 165888, Note_on_c, 0, 55, 97
2, 165888, Note_on_c, 0, 76, 97
2, 165983, Note_on_c, 0, 76, 0
2, 165984, Note_on_c, 0, 71, 97
2, 166079, Note_on_c, 0, 71, 0
2, 166079, Note_on_c, 0, 55, 0
2, 166080, Note_on_c, 0, 54, 97
2, 166080, Note_on_c, 0, 78, 97
2, 166175, Note_on_c, 0, 78, 0
2, 166176, Note_on_c, 0, 71, 97
2, 166200, Note_on_c, 0, 54, 0
2, 166271, Note_on_c, 0, 71, 0
2, 166272, Note_on_c, 0, 52, 97
2, 166272, Note_on_c, 0, 79, 97
2, 166367, Note_on_c, 0, 79, 0
2, 166368, Note_on_c, 0, 71, 97
2, 166392, Note_on_c, 0, 52, 0
2, 166463, Note_on_c, 0, 71, 0
2, 166464, Note_on_c, 0, 57, 97
2, 166464, Note_on_c, 0, 73, 97
2, 166559, Note_on_c, 0, 73, 0
2, 166560, Note_on_c, 0, 79, 97
2, 166655, Note_on_c, 0, 79, 0
2, 166655, Note_on_c, 0, 57, 0
2, 166656, Note_on_c, 0, 59, 97
2, 166656, Note_on_c, 0, 74, 97
2, 166751, Note_on_c, 0, 74, 0
2, 166752, Note_on_c, 0, 79, 97
2, 166776, Note_on_c, 0, 59, 0
2, 166847, Note_on_c, 0, 79, 0
2, 166848, Note_on_c, 0, 61, 97
2, 166848, Note_on_c, 0, 76, 97
2, 166943, Note_on_c, 0, 76, 0
2, 166944, Note_on_c, 0, 79, 97
2, 166968, Note_on_c, 0, 61, 0
2, 167039, Note_on_c, 0, 79, 0
2, 167040, Note_on_c, 0, 62, 97
2, 167040, Note_on_c, 0, 78, 97
2, 167135, Note_on_c, 0, 78, 0
2, 167136, Note_on_c, 0, 74, 97
2, 167231, Note_on_c, 0, 74, 0
2, 167231, Note_on_c, 0, 62, 0
2, 167232, Note_on_c, 0, 59, 97
2, 167232, Note_on_c, 0, 80, 97
2, 167327, Note_on_c, 0, 80, 0
2, 167328, Note_on_c, 0, 74, 97
2, 167352, Note_on_c, 0, 59, 0
2, 167423, Note_on_c, 0, 74, 0
2, 167424, Note_on_c, 0, 52, 97
2, 167424, Note_on_c, 0, 83, 97
2, 167519, Note_on_c, 0, 83, 0
2, 167520, Note_on_c, 0, 74, 97
2, 167544, Note_on_c, 0, 52, 0
2, 167615, Note_on_c, 0, 74, 0
2, 167616, Note_on_c, 0, 57, 97
2, 167616, Note_on_c, 0, 73, 97
2, 167711, Note_on_c, 0, 73, 0
2, 167712, Note_on_c, 0, 74, 97
2, 167807, Note_on_c, 0, 74, 0
2, 167808, Note_on_c, 0, 45, 97
2, 167808, Note_on_c, 0, 76, 97
2, 167903, Note_on_c, 0, 76, 0
2, 167904, Note_on_c, 0, 73, 97
2, 167996, Note_on_c, 0, 57, 0
2, 167999, Note_on_c, 0, 73, 0
2, 168000, Note_on_c, 0, 57, 97
2, 168000, Note_on_c, 0, 69, 97
2, 168018, Note_on_c, 0, 45, 0
2, 168096, Note_on_c, 0, 67, 97
2, 168176, Note_on_c, 0, 67, 0
2, 168192, Note_on_c, 0, 66, 97
2, 168230, Note_on_c, 0, 57, 0
2, 168240, Note_on_c, 0, 69, 0
2, 168272, Note_on_c, 0, 66, 0
2, 168288, Note_on_c, 0, 69, 97
2, 168383, Note_on_c, 0, 69, 0
2, 168384, Note_on_c, 0, 54, 97
2, 168384, Note_on_c, 0, 74, 97
2, 168479, Note_on_c, 0, 74, 0
2, 168480, Note_on_c, 0, 69, 97
2, 168504, Note_on_c, 0, 54, 0
2, 168575, Note_on_c, 0, 69, 0
2, 168576, Note_on_c, 0, 50, 97
2, 168576, Note_on_c, 0, 78, 97
2, 168671, Note_on_c, 0, 78, 0
2, 168672, Note_on_c, 0, 74, 97
2, 168716, Note_on_c, 0, 50, 0
2, 168767, Note_on_c, 0, 74, 0
2, 168768, Note_on_c, 0, 80, 97
2, 168863, Note_on_c, 0, 80, 0
2, 168864, Note_on_c, 0, 49, 97
2, 168864, Note_on_c, 0, 81, 97
2, 168959, Note_on_c, 0, 81, 0
2, 168959, Note_on_c, 0, 49, 0
2, 168960, Note_on_c, 0, 50, 97
2, 168960, Note_on_c, 0, 69, 97
2, 169055, Note_on_c, 0, 50, 0
2, 169056, Note_on_c, 0, 49, 97
2, 169151, Note_on_c, 0, 49, 0
2, 169152, Note_on_c, 0, 47, 97
2, 169247, Note_on_c, 0, 47, 0
2, 169248, Note_on_c, 0, 45, 97
2, 169343, Note_on_c, 0, 45, 0
2, 169344, Note_on_c, 0, 55, 97
2, 169439, Note_on_c, 0, 69, 0
2, 169440, Note_on_c, 0, 71, 97
2, 169535, Note_on_c, 0, 71, 0
2, 169535, Note_on_c, 0, 55, 0
2, 169536, Note_on_c, 0, 52, 97
2, 169536, Note_on_c, 0, 73, 97
2, 169631, Note_on_c, 0, 73, 0
2, 169632, Note_on_c, 0, 69, 97
2, 169656, Note_on_c, 0, 52, 0
2, 169727, Note_on_c, 0, 69, 0
2, 169728, Note_on_c, 0, 49, 97
2, 169728, Note_on_c, 0, 76, 97
2, 169823, Note_on_c, 0, 76, 0
2, 169824, Note_on_c, 0, 69, 97
2, 169888, Note_on_c, 0, 49, 0
2, 169919, Note_on_c, 0, 69, 0
2, 169920, Note_on_c, 0, 78, 97
2, 170015, Note_on_c, 0, 78, 0
2, 170016, Note_on_c, 0, 47, 97
2, 170016, Note_on_c, 0, 79, 97
2, 170111, Note_on_c, 0, 79, 0
2, 170111, Note_on_c, 0, 47, 0
2, 170112, Note_on_c, 0, 50, 97
2, 170112, Note_on_c, 0, 69, 97
2, 170207, Note_on_c, 0, 50, 0
2, 170208, Note_on_c, 0, 49, 97
2, 170303, Note_on_c, 0, 49, 0
2, 170304, Note_on_c, 0, 47, 97
2, 170399, Note_on_c, 0, 47, 0
2, 170400, Note_on_c, 0, 45, 97
2, 170495, Note_on_c, 0, 45, 0
2, 170496, Note_on_c, 0, 54, 97
2, 170584, Note_on_c, 0, 69, 0
2, 170592, Note_on_c, 0, 71, 97
2, 170687, Note_on_c, 0, 71, 0
2, 170687, Note_on_c, 0, 54, 0
2, 170688, Note_on_c, 0, 52, 97
2, 170688, Note_on_c, 0, 73, 97
2, 170783, Note_on_c, 0, 73, 0
2, 170784, Note_on_c, 0, 74, 97
2, 170808, Note_on_c, 0, 52, 0
2, 170879, Note_on_c, 0, 74, 0
2, 170880, Note_on_c, 0, 50, 97
2, 170880, Note_on_c, 0, 76, 97
2, 170975, Note_on_c, 0, 76, 0
2, 170976, Note_on_c, 0, 78, 97
2, 171000, Note_on_c, 0, 50, 0
2, 171071, Note_on_c, 0, 78, 0
2, 171072, Note_on_c, 0, 49, 97
2, 171072, Note_on_c, 0, 79, 97
2, 171167, Note_on_c, 0, 79, 0
2, 171168, Note_on_c, 0, 81, 97
2, 171263, Note_on_c, 0, 81, 0
2, 171263, Note_on_c, 0, 49, 0
2, 171264, Note_on_c, 0, 50, 97
2, 171264, Note_on_c, 0, 83, 97
2, 171359, Note_on_c, 0, 83, 0
2, 171360, Note_on_c, 0, 85, 97
2, 171384, Note_on_c, 0, 50, 0
2, 171455, Note_on_c, 0, 85, 0
2, 171456, Note_on_c, 0, 52, 97
2, 171456, Note_on_c, 0, 86, 97
2, 171540, Note_on_c, 0, 85, 97
2, 171541, Note_on_c, 0, 86, 0
2, 171576, Note_on_c, 0, 52, 0
2, 171587, Note_on_c, 0, 85, 0
2, 171594, Note_on_c, 0, 83, 97
2, 171641, Note_on_c, 0, 83, 0
2, 171648, Note_on_c, 0, 54, 97
2, 171648, Note_on_c, 0, 81, 97
2, 171743, Note_on_c, 0, 81, 0
2, 171744, Note_on_c, 0, 79, 97
2, 171768, Note_on_c, 0, 54, 0
2, 171839, Note_on_c, 0, 79, 0
2, 171840, Note_on_c, 0, 55, 97
2, 171840, Note_on_c, 0, 78, 97
2, 171960, Note_on_c, 0, 55, 0
2, 172031, Note_on_c, 0, 78, 0
2, 172032, Note_on_c, 0, 57, 97
2, 172032, Note_on_c, 0, 76, 97
2, 172079, Note_on_c, 0, 76, 0
2, 172080, Note_on_c, 0, 74, 97
2, 172127, Note_on_c, 0, 74, 0
2, 172128, Note_on_c, 0, 76, 97
2, 172152, Note_on_c, 0, 57, 0
2, 172223, Note_on_c, 0, 76, 0
2, 172224, Note_on_c, 0, 59, 97
2, 172224, Note_on_c, 0, 74, 97
2, 172319, Note_on_c, 0, 74, 0
2, 172320, Note_on_c, 0, 69, 97
2, 172415, Note_on_c, 0, 69, 0
2, 172415, Note_on_c, 0, 59, 0
2, 172416, Note_on_c, 0, 52, 97
2, 172416, Note_on_c, 0, 68, 97
2, 172511, Note_on_c, 0, 68, 0
2, 172512, Note_on_c, 0, 71, 97
2, 172536, Note_on_c, 0, 52, 0
2, 172607, Note_on_c, 0, 71, 0
2, 172608, Note_on_c, 0, 56, 97
2, 172608, Note_on_c, 0, 64, 97
2, 172703, Note_on_c, 0, 64, 0
2, 172704, Note_on_c, 0, 74, 97
2, 172728, Note_on_c, 0, 56, 0
2, 172799, Note_on_c, 0, 74, 0
2, 172800, Note_on_c, 0, 57, 97
2, 172800, Note_on_c, 0, 73, 97
2, 172895, Note_on_c, 0, 73, 0
2, 172896, Note_on_c, 0, 69, 97
2, 172991, Note_on_c, 0, 69, 0
2, 172992, Note_on_c, 0, 45, 97
2, 172992, Note_on_c, 0, 64, 97
2, 173087, Note_on_c, 0, 64, 0
2, 173088, Note_on_c, 0, 62, 97
2, 173112, Note_on_c, 0, 45, 0
2, 173180, Note_on_c, 0, 57, 0
2, 173183, Note_on_c, 0, 62, 0
2, 173184, Note_on_c, 0, 55, 97
2, 173184, Note_on_c, 0, 61, 97
2, 173279, Note_on_c, 0, 61, 0
2, 173280, Note_on_c, 0, 62, 97
2, 173304, Note_on_c, 0, 55, 0
2, 173375, Note_on_c, 0, 62, 0
2, 173376, Note_on_c, 0, 54, 97
2, 173376, Note_on_c, 0, 72, 97
2, 173471, Note_on_c, 0, 72, 0
2, 173472, Note_on_c, 0, 69, 97
2, 173496, Note_on_c, 0, 54, 0
2, 173567, Note_on_c, 0, 69, 0
2, 173568, Note_on_c, 0, 50, 97
2, 173568, Note_on_c, 0, 66, 97
2, 173663, Note_on_c, 0, 66, 0
2, 173664, Note_on_c, 0, 62, 97
2, 173688, Note_on_c, 0, 50, 0
2, 173759, Note_on_c, 0, 62, 0
2, 173760, Note_on_c, 0, 54, 97
2, 173760, Note_on_c, 0, 61, 97
2, 173855, Note_on_c, 0, 61, 0
2, 173856, Note_on_c, 0, 62, 97
2, 173880, Note_on_c, 0, 54, 0
2, 173951, Note_on_c, 0, 62, 0
2, 173952, Note_on_c, 0, 55, 97
2, 173952, Note_on_c, 0, 71, 97
2, 174047, Note_on_c, 0, 71, 0
2, 174048, Note_on_c, 0, 69, 97
2, 174143, Note_on_c, 0, 69, 0
2, 174143, Note_on_c, 0, 55, 0
2, 174144, Note_on_c, 0, 47, 97
2, 174144, Note_on_c, 0, 67, 97
2, 174239, Note_on_c, 0, 67, 0
2, 174240, Note_on_c, 0, 62, 97
2, 174264, Note_on_c, 0, 47, 0
2, 174335, Note_on_c, 0, 62, 0
2, 174336, Note_on_c, 0, 52, 97
2, 174336, Note_on_c, 0, 61, 97
2, 174431, Note_on_c, 0, 61, 0
2, 174432, Note_on_c, 0, 62, 97
2, 174456, Note_on_c, 0, 52, 0
2, 174527, Note_on_c, 0, 62, 0
2, 174528, Note_on_c, 0, 54, 97
2, 174528, Note_on_c, 0, 69, 97
2, 174623, Note_on_c, 0, 69, 0
2, 174624, Note_on_c, 0, 67, 97
2, 174719, Note_on_c, 0, 67, 0
2, 174719, Note_on_c, 0, 54, 0
2, 174720, Note_on_c, 0, 45, 97
2, 174720, Note_on_c, 0, 66, 97
2, 174815, Note_on_c, 0, 66, 0
2, 174816, Note_on_c, 0, 62, 97
2, 174840, Note_on_c, 0, 45, 0
2, 174911, Note_on_c, 0, 62, 0
2, 174912, Note_on_c, 0, 50, 97
2, 174912, Note_on_c, 0, 61, 97
2, 175007, Note_on_c, 0, 61, 0
2, 175008, Note_on_c, 0, 62, 97
2, 175032, Note_on_c, 0, 50, 0
2, 175103, Note_on_c, 0, 62, 0
2, 175104, Note_on_c, 0, 52, 97
2, 175104, Note_on_c, 0, 67, 97
2, 175199, Note_on_c, 0, 67, 0
2, 175200, Note_on_c, 0, 66, 97
2, 175295, Note_on_c, 0, 66, 0
2, 175295, Note_on_c, 0, 52, 0
2, 175296, Note_on_c, 0, 43, 97
2, 175296, Note_on_c, 0, 64, 97
2, 175391, Note_on_c, 0, 64, 0
2, 175392, Note_on_c, 0, 62, 97
2, 175416, Note_on_c, 0, 43, 0
2, 175487, Note_on_c, 0, 62, 0
2, 175488, Note_on_c, 0, 47, 97
2, 175488, Note_on_c, 0, 61, 97
2, 175583, Note_on_c, 0, 61, 0
2, 175584, Note_on_c, 0, 59, 97
2, 175608, Note_on_c, 0, 47, 0
2, 175679, Note_on_c, 0, 59, 0
2, 175680, Note_on_c, 0, 49, 97
2, 175680, Note_on_c, 0, 57, 97
2, 175775, Note_on_c, 0, 57, 0
2, 175776, Note_on_c, 0, 61, 97
2, 175871, Note_on_c, 0, 61, 0
2, 175871, Note_on_c, 0, 49, 0
2, 175872, Note_on_c, 0, 57, 97
2, 175872, Note_on_c, 0, 64, 97
2, 175967, Note_on_c, 0, 64, 0
2, 175968, Note_on_c, 0, 67, 97
2, 175992, Note_on_c, 0, 57, 0
2, 176063, Note_on_c, 0, 67, 0
2, 176064, Note_on_c, 0, 55, 97
2, 176064, Note_on_c, 0, 73, 97
2, 176159, Note_on_c, 0, 73, 0
2, 176160, Note_on_c, 0, 76, 97
2, 176184, Note_on_c, 0, 55, 0
2, 176255, Note_on_c, 0, 76, 0
2, 176256, Note_on_c, 0, 54, 97
2, 176256, Note_on_c, 0, 81, 97
2, 176376, Note_on_c, 0, 54, 0
2, 176396, Note_on_c, 0, 81, 0
2, 176448, Note_on_c, 0, 43, 97
2, 176448, Note_on_c, 0, 74, 97
2, 176448, Note_on_c, 0, 66, 97
2, 176568, Note_on_c, 0, 43, 0
2, 176588, Note_on_c, 0, 66, 0
2, 176588, Note_on_c, 0, 74, 0
2, 176640, Note_on_c, 0, 45, 97
2, 176640, Note_on_c, 0, 73, 97
2, 176640, Note_on_c, 0, 64, 97
2, 176760, Note_on_c, 0, 45, 0
2, 176780, Note_on_c, 0, 64, 0
2, 176780, Note_on_c, 0, 73, 0
2, 176832, Note_on_c, 0, 38, 97
2, 176832, Note_on_c, 0, 74, 97
2, 176832, Note_on_c, 0, 66, 97
2, 177119, Note_on_c, 0, 38, 0
2, 177120, Note_on_c, 0, 57, 97
2, 177172, Note_on_c, 0, 66, 0
2, 177172, Note_on_c, 0, 74, 0
2, 177215, Note_on_c, 0, 57, 0
2, 177216, Note_on_c, 0, 59, 97
2, 177311, Note_on_c, 0, 59, 0
2, 177312, Note_on_c, 0, 61, 97
2, 177312, Note_on_c, 0, 81, 97
2, 177407, Note_on_c, 0, 81, 0
2, 177407, Note_on_c, 0, 61, 0
2, 177408, Note_on_c, 0, 62, 97
2, 177408, Note_on_c, 0, 78, 97
2, 177503, Note_on_c, 0, 62, 0
2, 177504, Note_on_c, 0, 57, 97
2, 177599, Note_on_c, 0, 57, 0
2, 177600, Note_on_c, 0, 54, 97
2, 177600, Note_on_c, 0, 74, 97
2, 177628, Note_on_c, 0, 78, 0
2, 177695, Note_on_c, 0, 54, 0
2, 177696, Note_on_c, 0, 57, 97
2, 177740, Note_on_c, 0, 74, 0
2, 177791, Note_on_c, 0, 57, 0
2, 177792, Note_on_c, 0, 52, 97
2, 177792, Note_on_c, 0, 73, 97
2, 177887, Note_on_c, 0, 52, 0
2, 177888, Note_on_c, 0, 55, 97
2, 177932, Note_on_c, 0, 73, 0
2, 177983, Note_on_c, 0, 55, 0
2, 177984, Note_on_c, 0, 54, 97
2, 177984, Note_on_c, 0, 74, 97
2, 178079, Note_on_c, 0, 54, 0
2, 178080, Note_on_c, 0, 57, 97
2, 178175, Note_on_c, 0, 57, 0
2, 178176, Note_on_c, 0, 55, 97
2, 178176, Note_on_c, 0, 76, 97
2, 178204, Note_on_c, 0, 74, 0
2, 178271, Note_on_c, 0, 55, 0
2, 178272, Note_on_c, 0, 59, 97
2, 178316, Note_on_c, 0, 76, 0
2, 178367, Note_on_c, 0, 59, 0
2, 178368, Note_on_c, 0, 57, 97
2, 178368, Note_on_c, 0, 78, 97
2, 178463, Note_on_c, 0, 57, 0
2, 178464, Note_on_c, 0, 60, 97
2, 178508, Note_on_c, 0, 78, 0
2, 178559, Note_on_c, 0, 60, 0
2, 178560, Note_on_c, 0, 59, 97
2, 178560, Note_on_c, 0, 79, 97
2, 178655, Note_on_c, 0, 79, 0
2, 178655, Note_on_c, 0, 59, 0
2, 178656, Note_on_c, 0, 62, 97
2, 178656, Note_on_c, 0, 81, 97
2, 178751, Note_on_c, 0, 81, 0
2, 178751, Note_on_c, 0, 62, 0
2, 178752, Note_on_c, 0, 60, 97
2, 178752, Note_on_c, 0, 83, 97
2, 178799, Note_on_c, 0, 83, 0
2, 178800, Note_on_c, 0, 81, 97
2, 178847, Note_on_c, 0, 81, 0
2, 178847, Note_on_c, 0, 60, 0
2, 178848, Note_on_c, 0, 64, 97
2, 178848, Note_on_c, 0, 83, 97
2, 178895, Note_on_c, 0, 83, 0
2, 178896, Note_on_c, 0, 81, 97
2, 178943, Note_on_c, 0, 81, 0
2, 178943, Note_on_c, 0, 64, 0
2, 178944, Note_on_c, 0, 62, 97
2, 178944, Note_on_c, 0, 83, 97
2, 178991, Note_on_c, 0, 83, 0
2, 178992, Note_on_c, 0, 81, 97
2, 179039, Note_on_c, 0, 81, 0
2, 179039, Note_on_c, 0, 62, 0
2, 179040, Note_on_c, 0, 66, 97
2, 179040, Note_on_c, 0, 79, 97
2, 179087, Note_on_c, 0, 79, 0
2, 179088, Note_on_c, 0, 81, 97
2, 179135, Note_on_c, 0, 81, 0
2, 179135, Note_on_c, 0, 66, 0
2, 179136, Note_on_c, 0, 67, 97
2, 179136, Note_on_c, 0, 83, 97
2, 179231, Note_on_c, 0, 67, 0
2, 179232, Note_on_c, 0, 62, 97
2, 179327, Note_on_c, 0, 62, 0
2, 179328, Note_on_c, 0, 59, 97
2, 179423, Note_on_c, 0, 59, 0
2, 179424, Note_on_c, 0, 62, 97
2, 179516, Note_on_c, 0, 83, 0
2, 179519, Note_on_c, 0, 62, 0
2, 179520, Note_on_c, 0, 55, 97
2, 179520, Note_on_c, 0, 71, 97
2, 179615, Note_on_c, 0, 55, 0
2, 179616, Note_on_c, 0, 59, 97
2, 179660, Note_on_c, 0, 71, 0
2, 179711, Note_on_c, 0, 59, 0
2, 179712, Note_on_c, 0, 60, 97
2, 179712, Note_on_c, 0, 76, 97
2, 179807, Note_on_c, 0, 60, 0
2, 179808, Note_on_c, 0, 59, 97
2, 179903, Note_on_c, 0, 59, 0
2, 179904, Note_on_c, 0, 57, 97
2, 179904, Note_on_c, 0, 75, 97
2, 179932, Note_on_c, 0, 76, 0
2, 179999, Note_on_c, 0, 57, 0
2, 180000, Note_on_c, 0, 59, 97
2, 180044, Note_on_c, 0, 75, 0
2, 180095, Note_on_c, 0, 59, 0
2, 180096, Note_on_c, 0, 55, 97
2, 180096, Note_on_c, 0, 76, 97
2, 180191, Note_on_c, 0, 55, 0
2, 180192, Note_on_c, 0, 59, 97
2, 180236, Note_on_c, 0, 76, 0
2, 180287, Note_on_c, 0, 59, 0
2, 180288, Note_on_c, 0, 54, 97
2, 180288, Note_on_c, 0, 81, 97
2, 180383, Note_on_c, 0, 54, 0
2, 180384, Note_on_c, 0, 57, 97
2, 180479, Note_on_c, 0, 57, 0
2, 180480, Note_on_c, 0, 52, 97
2, 180480, Note_on_c, 0, 72, 97
2, 180518, Note_on_c, 0, 81, 0
2, 180575, Note_on_c, 0, 52, 0
2, 180576, Note_on_c, 0, 57, 97
2, 180620, Note_on_c, 0, 72, 0
2, 180671, Note_on_c, 0, 57, 0
2, 180672, Note_on_c, 0, 51, 97
2, 180672, Note_on_c, 0, 71, 97
2, 180767, Note_on_c, 0, 51, 0
2, 180768, Note_on_c, 0, 57, 97
2, 180812, Note_on_c, 0, 71, 0
2, 180863, Note_on_c, 0, 57, 0
2, 180864, Note_on_c, 0, 52, 97
2, 180864, Note_on_c, 0, 79, 97
2, 180959, Note_on_c, 0, 52, 0
2, 180960, Note_on_c, 0, 55, 97
2, 181055, Note_on_c, 0, 55, 0
2, 181055, Note_on_c, 0, 79, 0
2, 181056, Note_on_c, 0, 50, 97
2, 181056, Note_on_c, 0, 81, 97
2, 181151, Note_on_c, 0, 81, 0
2, 181151, Note_on_c, 0, 50, 0
2, 181152, Note_on_c, 0, 55, 97
2, 181152, Note_on_c, 0, 79, 97
2, 181247, Note_on_c, 0, 79, 0
2, 181247, Note_on_c, 0, 55, 0
2, 181248, Note_on_c, 0, 48, 97
2, 181248, Note_on_c, 0, 78, 97
2, 181343, Note_on_c, 0, 78, 0
2, 181343, Note_on_c, 0, 48, 0
2, 181344, Note_on_c, 0, 57, 97
2, 181344, Note_on_c, 0, 76, 97
2, 181439, Note_on_c, 0, 76, 0
2, 181439, Note_on_c, 0, 57, 0
2, 181440, Note_on_c, 0, 59, 97
2, 181440, Note_on_c, 0, 75, 97
2, 181535, Note_on_c, 0, 59, 0
2, 181536, Note_on_c, 0, 54, 97
2, 181631, Note_on_c, 0, 54, 0
2, 181632, Note_on_c, 0, 51, 97
2, 181632, Note_on_c, 0, 71, 97
2, 181660, Note_on_c, 0, 75, 0
2, 181727, Note_on_c, 0, 51, 0
2, 181728, Note_on_c, 0, 54, 97
2, 181772, Note_on_c, 0, 71, 0
2, 181823, Note_on_c, 0, 54, 0
2, 181824, Note_on_c, 0, 45, 97
2, 181824, Note_on_c, 0, 83, 97
2, 181919, Note_on_c, 0, 45, 0
2, 181920, Note_on_c, 0, 51, 97
2, 182015, Note_on_c, 0, 51, 0
2, 182016, Note_on_c, 0, 43, 97
2, 182111, Note_on_c, 0, 43, 0
2, 182112, Note_on_c, 0, 47, 97
2, 182194, Note_on_c, 0, 83, 0
2, 182207, Note_on_c, 0, 47, 0
2, 182208, Note_on_c, 0, 52, 97
2, 182208, Note_on_c, 0, 79, 97
2, 182303, Note_on_c, 0, 52, 0
2, 182304, Note_on_c, 0, 47, 97
2, 182348, Note_on_c, 0, 79, 0
2, 182399, Note_on_c, 0, 47, 0
2, 182400, Note_on_c, 0, 55, 97
2, 182400, Note_on_c, 0, 76, 97
2, 182495, Note_on_c, 0, 55, 0
2, 182496, Note_on_c, 0, 52, 97
2, 182540, Note_on_c, 0, 76, 0
2, 182591, Note_on_c, 0, 52, 0
2, 182592, Note_on_c, 0, 58, 97
2, 182687, Note_on_c, 0, 58, 0
2, 182688, Note_on_c, 0, 59, 97
2, 182688, Note_on_c, 0, 75, 97
2, 182783, Note_on_c, 0, 75, 0
2, 182783, Note_on_c, 0, 59, 0
2, 182784, Note_on_c, 0, 47, 97
2, 182784, Note_on_c, 0, 76, 97
2, 182879, Note_on_c, 0, 76, 0
2, 182880, Note_on_c, 0, 75, 97
2, 182975, Note_on_c, 0, 75, 0
2, 182976, Note_on_c, 0, 73, 97
2, 183071, Note_on_c, 0, 73, 0
2, 183072, Note_on_c, 0, 71, 97
2, 183167, Note_on_c, 0, 71, 0
2, 183168, Note_on_c, 0, 81, 97
2, 183244, Note_on_c, 0, 47, 0
2, 183264, Note_on_c, 0, 49, 97
2, 183338, Note_on_c, 0, 81, 0
2, 183359, Note_on_c, 0, 49, 0
2, 183360, Note_on_c, 0, 51, 97
2, 183360, Note_on_c, 0, 78, 97
2, 183455, Note_on_c, 0, 51, 0
2, 183456, Note_on_c, 0, 47, 97
2, 183500, Note_on_c, 0, 78, 0
2, 183551, Note_on_c, 0, 47, 0
2, 183552, Note_on_c, 0, 54, 97
2, 183552, Note_on_c, 0, 75, 97
2, 183647, Note_on_c, 0, 54, 0
2, 183648, Note_on_c, 0, 47, 97
2, 183712, Note_on_c, 0, 75, 0
2, 183743, Note_on_c, 0, 47, 0
2, 183744, Note_on_c, 0, 55, 97
2, 183839, Note_on_c, 0, 55, 0
2, 183840, Note_on_c, 0, 57, 97
2, 183840, Note_on_c, 0, 73, 97
2, 183935, Note_on_c, 0, 73, 0
2, 183935, Note_on_c, 0, 57, 0
2, 183936, Note_on_c, 0, 47, 97
2, 183936, Note_on_c, 0, 76, 97
2, 184031, Note_on_c, 0, 76, 0
2, 184032, Note_on_c, 0, 75, 97
2, 184127, Note_on_c, 0, 75, 0
2, 184128, Note_on_c, 0, 73, 97
2, 184223, Note_on_c, 0, 73, 0
2, 184224, Note_on_c, 0, 71, 97
2, 184304, Note_on_c, 0, 71, 0
2, 184320, Note_on_c, 0, 79, 97
2, 184396, Note_on_c, 0, 47, 0
2, 184416, Note_on_c, 0, 49, 97
2, 184511, Note_on_c, 0, 49, 0
2, 184512, Note_on_c, 0, 51, 97
2, 184512, Note_on_c, 0, 78, 97
2, 184550, Note_on_c, 0, 79, 0
2, 184607, Note_on_c, 0, 51, 0
2, 184608, Note_on_c, 0, 52, 97
2, 184652, Note_on_c, 0, 78, 0
2, 184703, Note_on_c, 0, 52, 0
2, 184704, Note_on_c, 0, 54, 97
2, 184704, Note_on_c, 0, 76, 97
2, 184799, Note_on_c, 0, 54, 0
2, 184800, Note_on_c, 0, 55, 97
2, 184844, Note_on_c, 0, 76, 0
2, 184895, Note_on_c, 0, 55, 0
2, 184896, Note_on_c, 0, 57, 97
2, 184896, Note_on_c, 0, 84, 97
2, 184991, Note_on_c, 0, 57, 0
2, 184992, Note_on_c, 0, 59, 97
2, 185087, Note_on_c, 0, 59, 0
2, 185087, Note_on_c, 0, 84, 0
2, 185088, Note_on_c, 0, 61, 97
2, 185088, Note_on_c, 0, 83, 97
2, 185183, Note_on_c, 0, 61, 0
2, 185184, Note_on_c, 0, 63, 97
2, 185228, Note_on_c, 0, 83, 0
2, 185279, Note_on_c, 0, 63, 0
2, 185280, Note_on_c, 0, 64, 97
2, 185280, Note_on_c, 0, 81, 97
2, 185360, Note_on_c, 0, 64, 0
2, 185376, Note_on_c, 0, 63, 97
2, 185456, Note_on_c, 0, 63, 0
2, 185472, Note_on_c, 0, 64, 97
2, 185538, Note_on_c, 0, 81, 0
2, 185568, Note_on_c, 0, 79, 97
2, 185663, Note_on_c, 0, 79, 0
2, 185663, Note_on_c, 0, 64, 0
2, 185664, Note_on_c, 0, 55, 97
2, 185664, Note_on_c, 0, 83, 97
2, 185759, Note_on_c, 0, 83, 0
2, 185760, Note_on_c, 0, 81, 97
2, 185834, Note_on_c, 0, 55, 0
2, 185855, Note_on_c, 0, 81, 0
2, 185856, Note_on_c, 0, 59, 97
2, 185856, Note_on_c, 0, 79, 97
2, 185952, Note_on_c, 0, 78, 97
2, 185953, Note_on_c, 0, 79, 0
2, 186026, Note_on_c, 0, 59, 0
2, 186048, Note_on_c, 0, 52, 97
2, 186048, Note_on_c, 0, 76, 97
2, 186050, Note_on_c, 0, 78, 0
2, 186143, Note_on_c, 0, 52, 0
2, 186144, Note_on_c, 0, 47, 97
2, 186239, Note_on_c, 0, 47, 0
2, 186240, Note_on_c, 0, 43, 97
2, 186335, Note_on_c, 0, 43, 0
2, 186336, Note_on_c, 0, 47, 97
2, 186431, Note_on_c, 0, 47, 0
2, 186432, Note_on_c, 0, 40, 97
2, 186432, Note_on_c, 0, 79, 97
2, 186468, Note_on_c, 0, 76, 0
2, 186527, Note_on_c, 0, 40, 0
2, 186528, Note_on_c, 0, 52, 97
2, 186562, Note_on_c, 0, 79, 0
2, 186623, Note_on_c, 0, 52, 0
2, 186624, Note_on_c, 0, 45, 97
2, 186624, Note_on_c, 0, 73, 97
2, 186719, Note_on_c, 0, 45, 0
2, 186720, Note_on_c, 0, 47, 97
2, 186815, Note_on_c, 0, 47, 0
2, 186816, Note_on_c, 0, 49, 97
2, 186816, Note_on_c, 0, 69, 97
2, 186854, Note_on_c, 0, 73, 0
2, 186911, Note_on_c, 0, 49, 0
2, 186912, Note_on_c, 0, 45, 97
2, 186946, Note_on_c, 0, 69, 0
2, 187007, Note_on_c, 0, 45, 0
2, 187008, Note_on_c, 0, 50, 97
2, 187008, Note_on_c, 0, 71, 97
2, 187103, Note_on_c, 0, 50, 0
2, 187104, Note_on_c, 0, 45, 97
2, 187138, Note_on_c, 0, 71, 0
2, 187199, Note_on_c, 0, 45, 0
2, 187200, Note_on_c, 0, 52, 97
2, 187200, Note_on_c, 0, 73, 97
2, 187295, Note_on_c, 0, 52, 0
2, 187296, Note_on_c, 0, 45, 97
2, 187330, Note_on_c, 0, 73, 0
2, 187391, Note_on_c, 0, 45, 0
2, 187392, Note_on_c, 0, 54, 97
2, 187392, Note_on_c, 0, 74, 97
2, 187487, Note_on_c, 0, 54, 0
2, 187488, Note_on_c, 0, 45, 97
2, 187522, Note_on_c, 0, 74, 0
2, 187583, Note_on_c, 0, 45, 0
2, 187584, Note_on_c, 0, 55, 97
2, 187584, Note_on_c, 0, 76, 97
2, 187679, Note_on_c, 0, 55, 0
2, 187680, Note_on_c, 0, 45, 97
2, 187714, Note_on_c, 0, 76, 0
2, 187775, Note_on_c, 0, 45, 0
2, 187776, Note_on_c, 0, 50, 97
2, 187776, Note_on_c, 0, 78, 97
2, 187871, Note_on_c, 0, 50, 0
2, 187872, Note_on_c, 0, 52, 97
2, 187967, Note_on_c, 0, 52, 0
2, 187968, Note_on_c, 0, 54, 97
2, 187968, Note_on_c, 0, 74, 97
2, 188006, Note_on_c, 0, 78, 0
2, 188063, Note_on_c, 0, 54, 0
2, 188064, Note_on_c, 0, 50, 97
2, 188098, Note_on_c, 0, 74, 0
2, 188159, Note_on_c, 0, 50, 0
2, 188160, Note_on_c, 0, 55, 97
2, 188160, Note_on_c, 0, 76, 97
2, 188255, Note_on_c, 0, 55, 0
2, 188256, Note_on_c, 0, 50, 97
2, 188290, Note_on_c, 0, 76, 0
2, 188351, Note_on_c, 0, 50, 0
2, 188352, Note_on_c, 0, 57, 97
2, 188352, Note_on_c, 0, 78, 97
2, 188447, Note_on_c, 0, 57, 0
2, 188448, Note_on_c, 0, 50, 97
2, 188482, Note_on_c, 0, 78, 0
2, 188543, Note_on_c, 0, 50, 0
2, 188544, Note_on_c, 0, 59, 97
2, 188544, Note_on_c, 0, 79, 97
2, 188639, Note_on_c, 0, 59, 0
2, 188640, Note_on_c, 0, 50, 97
2, 188674, Note_on_c, 0, 79, 0
2, 188735, Note_on_c, 0, 50, 0
2, 188736, Note_on_c, 0, 60, 97
2, 188736, Note_on_c, 0, 81, 97
2, 188831, Note_on_c, 0, 60, 0
2, 188832, Note_on_c, 0, 50, 97
2, 188866, Note_on_c, 0, 81, 0
2, 188927, Note_on_c, 0, 50, 0
2, 188928, Note_on_c, 0, 55, 97
2, 188928, Note_on_c, 0, 83, 97
2, 189023, Note_on_c, 0, 55, 0
2, 189024, Note_on_c, 0, 57, 97
2, 189119, Note_on_c, 0, 57, 0
2, 189120, Note_on_c, 0, 59, 97
2, 189120, Note_on_c, 0, 79, 97
2, 189158, Note_on_c, 0, 83, 0
2, 189215, Note_on_c, 0, 59, 0
2, 189216, Note_on_c, 0, 55, 97
2, 189250, Note_on_c, 0, 79, 0
2, 189311, Note_on_c, 0, 55, 0
2, 189312, Note_on_c, 0, 60, 97
2, 189312, Note_on_c, 0, 81, 97
2, 189407, Note_on_c, 0, 60, 0
2, 189408, Note_on_c, 0, 55, 97
2, 189442, Note_on_c, 0, 81, 0
2, 189503, Note_on_c, 0, 55, 0
2, 189504, Note_on_c, 0, 62, 97
2, 189504, Note_on_c, 0, 83, 97
2, 189599, Note_on_c, 0, 62, 0
2, 189600, Note_on_c, 0, 55, 97
2, 189634, Note_on_c, 0, 83, 0
2, 189695, Note_on_c, 0, 55, 0
2, 189696, Note_on_c, 0, 64, 97
2, 189696, Note_on_c, 0, 84, 97
2, 189791, Note_on_c, 0, 64, 0
2, 189792, Note_on_c, 0, 55, 97
2, 189826, Note_on_c, 0, 84, 0
2, 189887, Note_on_c, 0, 55, 0
2, 189888, Note_on_c, 0, 65, 97
2, 189888, Note_on_c, 0, 86, 97
2, 189983, Note_on_c, 0, 65, 0
2, 189984, Note_on_c, 0, 55, 97
2, 190018, Note_on_c, 0, 86, 0
2, 190079, Note_on_c, 0, 55, 0
2, 190080, Note_on_c, 0, 60, 97
2, 190080, Note_on_c, 0, 76, 97
2, 190175, Note_on_c, 0, 60, 0
2, 190176, Note_on_c, 0, 62, 97
2, 190271, Note_on_c, 0, 62, 0
2, 190272, Note_on_c, 0, 60, 97
2, 190272, Note_on_c, 0, 78, 97
2, 190295, Note_on_c, 0, 76, 0
2, 190367, Note_on_c, 0, 60, 0
2, 190368, Note_on_c, 0, 59, 97
2, 190412, Note_on_c, 0, 78, 0
2, 190463, Note_on_c, 0, 59, 0
2, 190464, Note_on_c, 0, 57, 97
2, 190464, Note_on_c, 0, 79, 97
2, 190559, Note_on_c, 0, 57, 0
2, 190560, Note_on_c, 0, 55, 97
2, 190604, Note_on_c, 0, 79, 0
2, 190655, Note_on_c, 0, 55, 0
2, 190656, Note_on_c, 0, 54, 97
2, 190656, Note_on_c, 0, 81, 97
2, 190751, Note_on_c, 0, 54, 0
2, 190752, Note_on_c, 0, 52, 97
2, 190847, Note_on_c, 0, 52, 0
2, 190848, Note_on_c, 0, 50, 97
2, 190848, Note_on_c, 0, 74, 97
2, 190906, Note_on_c, 0, 81, 0
2, 190943, Note_on_c, 0, 50, 0
2, 190944, Note_on_c, 0, 48, 97
2, 190988, Note_on_c, 0, 74, 0
2, 191039, Note_on_c, 0, 48, 0
2, 191040, Note_on_c, 0, 47, 97
2, 191040, Note_on_c, 0, 81, 97
2, 191135, Note_on_c, 0, 47, 0
2, 191136, Note_on_c, 0, 45, 97
2, 191180, Note_on_c, 0, 81, 0
2, 191231, Note_on_c, 0, 45, 0
2, 191232, Note_on_c, 0, 43, 97
2, 191232, Note_on_c, 0, 83, 97
2, 191327, Note_on_c, 0, 43, 0
2, 191328, Note_on_c, 0, 47, 97
2, 191328, Note_on_c, 0, 79, 97
2, 191332, Note_on_c, 0, 83, 0
2, 191423, Note_on_c, 0, 79, 0
2, 191423, Note_on_c, 0, 47, 0
2, 191424, Note_on_c, 0, 50, 97
2, 191424, Note_on_c, 0, 74, 97
2, 191519, Note_on_c, 0, 74, 0
2, 191519, Note_on_c, 0, 50, 0
2, 191520, Note_on_c, 0, 55, 97
2, 191520, Note_on_c, 0, 71, 97
2, 191615, Note_on_c, 0, 71, 0
2, 191615, Note_on_c, 0, 55, 0
2, 191616, Note_on_c, 0, 54, 97
2, 191616, Note_on_c, 0, 74, 97
2, 191711, Note_on_c, 0, 74, 0
2, 191711, Note_on_c, 0, 54, 0
2, 191712, Note_on_c, 0, 52, 97
2, 191712, Note_on_c, 0, 79, 97
2, 191807, Note_on_c, 0, 79, 0
2, 191807, Note_on_c, 0, 52, 0
2, 191808, Note_on_c, 0, 51, 97
2, 191808, Note_on_c, 0, 81, 97
2, 191903, Note_on_c, 0, 81, 0
2, 191904, Note_on_c, 0, 78, 97
2, 191928, Note_on_c, 0, 51, 0
2, 191999, Note_on_c, 0, 78, 0
2, 192000, Note_on_c, 0, 47, 97
2, 192000, Note_on_c, 0, 75, 97
2, 192095, Note_on_c, 0, 75, 0
2, 192096, Note_on_c, 0, 71, 97
2, 192120, Note_on_c, 0, 47, 0
2, 192191, Note_on_c, 0, 71, 0
2, 192192, Note_on_c, 0, 51, 97
2, 192192, Note_on_c, 0, 70, 97
2, 192287, Note_on_c, 0, 70, 0
2, 192288, Note_on_c, 0, 71, 97
2, 192312, Note_on_c, 0, 51, 0
2, 192383, Note_on_c, 0, 71, 0
2, 192384, Note_on_c, 0, 40, 97
2, 192384, Note_on_c, 0, 79, 97
2, 192479, Note_on_c, 0, 40, 0
2, 192480, Note_on_c, 0, 43, 97
2, 192480, Note_on_c, 0, 76, 97
2, 192484, Note_on_c, 0, 79, 0
2, 192575, Note_on_c, 0, 76, 0
2, 192575, Note_on_c, 0, 43, 0
2, 192576, Note_on_c, 0, 47, 97
2, 192576, Note_on_c, 0, 71, 97
2, 192671, Note_on_c, 0, 71, 0
2, 192671, Note_on_c, 0, 47, 0
2, 192672, Note_on_c, 0, 52, 97
2, 192672, Note_on_c, 0, 67, 97
2, 192767, Note_on_c, 0, 67, 0
2, 192767, Note_on_c, 0, 52, 0
2, 192768, Note_on_c, 0, 50, 97
2, 192768, Note_on_c, 0, 71, 97
2, 192863, Note_on_c, 0, 71, 0
2, 192863, Note_on_c, 0, 50, 0
2, 192864, Note_on_c, 0, 48, 97
2, 192864, Note_on_c, 0, 76, 97
2, 192959, Note_on_c, 0, 76, 0
2, 192959, Note_on_c, 0, 48, 0
2, 192960, Note_on_c, 0, 47, 97
2, 192960, Note_on_c, 0, 77, 97
2, 193055, Note_on_c, 0, 77, 0
2, 193056, Note_on_c, 0, 74, 97
2, 193080, Note_on_c, 0, 47, 0
2, 193151, Note_on_c, 0, 74, 0
2, 193152, Note_on_c, 0, 43, 97
2, 193152, Note_on_c, 0, 71, 97
2, 193247, Note_on_c, 0, 71, 0
2, 193248, Note_on_c, 0, 67, 97
2, 193272, Note_on_c, 0, 43, 0
2, 193343, Note_on_c, 0, 67, 0
2, 193344, Note_on_c, 0, 47, 97
2, 193344, Note_on_c, 0, 66, 97
2, 193439, Note_on_c, 0, 66, 0
2, 193440, Note_on_c, 0, 67, 97
2, 193464, Note_on_c, 0, 47, 0
2, 193535, Note_on_c, 0, 67, 0
2, 193536, Note_on_c, 0, 36, 97
2, 193536, Note_on_c, 0, 76, 97
2, 193631, Note_on_c, 0, 76, 0
2, 193632, Note_on_c, 0, 74, 97
2, 193727, Note_on_c, 0, 74, 0
2, 193727, Note_on_c, 0, 36, 0
2, 193728, Note_on_c, 0, 43, 97
2, 193728, Note_on_c, 0, 72, 97
2, 193823, Note_on_c, 0, 72, 0
2, 193824, Note_on_c, 0, 71, 97
2, 193848, Note_on_c, 0, 43, 0
2, 193919, Note_on_c, 0, 71, 0
2, 193920, Note_on_c, 0, 48, 97
2, 193920, Note_on_c, 0, 69, 97
2, 194015, Note_on_c, 0, 69, 0
2, 194016, Note_on_c, 0, 67, 97
2, 194111, Note_on_c, 0, 67, 0
2, 194112, Note_on_c, 0, 66, 97
2, 194207, Note_on_c, 0, 66, 0
2, 194208, Note_on_c, 0, 69, 97
2, 194303, Note_on_c, 0, 69, 0
2, 194303, Note_on_c, 0, 48, 0
2, 194304, Note_on_c, 0, 42, 97
2, 194304, Note_on_c, 0, 72, 97
2, 194399, Note_on_c, 0, 72, 0
2, 194400, Note_on_c, 0, 74, 97
2, 194424, Note_on_c, 0, 42, 0
2, 194495, Note_on_c, 0, 74, 0
2, 194496, Note_on_c, 0, 45, 97
2, 194496, Note_on_c, 0, 78, 97
2, 194591, Note_on_c, 0, 78, 0
2, 194592, Note_on_c, 0, 81, 97
2, 194616, Note_on_c, 0, 45, 0
2, 194687, Note_on_c, 0, 81, 0
2, 194688, Note_on_c, 0, 35, 97
2, 194688, Note_on_c, 0, 86, 97
2, 194808, Note_on_c, 0, 35, 0
2, 194828, Note_on_c, 0, 86, 0
2, 194896, Note_on_c, 0, 36, 97
2, 194896, Note_on_c, 0, 71, 97
2, 194896, Note_on_c, 0, 79, 97
2, 195016, Note_on_c, 0, 36, 0
2, 195036, Note_on_c, 0, 79, 0
2, 195036, Note_on_c, 0, 71, 0
2, 195112, Note_on_c, 0, 69, 97
2, 195112, Note_on_c, 0, 78, 97
2, 195112, Note_on_c, 0, 38, 97
2, 195232, Note_on_c, 0, 38, 0
2, 195252, Note_on_c, 0, 78, 0
2, 195252, Note_on_c, 0, 69, 0
2, 195352, Note_on_c, 0, 71, 97
2, 195352, Note_on_c, 0, 79, 97
2, 195352, Note_on_c, 0, 31, 97
2, 196119, Note_on_c, 0, 31, 0
2, 196119, Note_on_c, 0, 79, 0
2, 196119, Note_on_c, 0, 71, 0
2, 198800, Note_on_c, 0, 71, 97
2, 198800, Note_on_c, 0, 74, 97
2, 198911, Note_on_c, 0, 74, 0
2, 198911, Note_on_c, 0, 71, 0
2, 198912, Note_on_c, 0, 72, 97
2, 198912, Note_on_c, 0, 69, 97
2, 199103, Note_on_c, 0, 69, 0
2, 199103, Note_on_c, 0, 72, 0
2, 199104, Note_on_c, 0, 67, 97
2, 199104, Note_on_c, 0, 71, 97
2, 199199, Note_on_c, 0, 71, 0
2, 199199, Note_on_c, 0, 67, 0
2, 199200, Note_on_c, 0, 72, 97
2, 199200, Note_on_c, 0, 69, 97
2, 199295, Note_on_c, 0, 69, 0
2, 199295, Note_on_c, 0, 72, 0
2, 199296, Note_on_c, 0, 72, 97
2, 199296, Note_on_c, 0, 69, 97
2, 199487, Note_on_c, 0, 69, 0
2, 199487, Note_on_c, 0, 72, 0
2, 199488, Note_on_c, 0, 74, 97
2, 199488, Note_on_c, 0, 71, 97
2, 199584, Note_on_c, 0, 55, 97
2, 199679, Note_on_c, 0, 55, 0
2, 199679, Note_on_c, 0, 71, 0
2, 199679, Note_on_c, 0, 74, 0
2, 199680, Note_on_c, 0, 53, 97
2, 199680, Note_on_c, 0, 71, 97
2, 199680, Note_on_c, 0, 74, 97
2, 199967, Note_on_c, 0, 53, 0
2, 199968, Note_on_c, 0, 52, 97
2, 200040, Note_on_c, 0, 74, 0
2, 200040, Note_on_c, 0, 71, 0
2, 200063, Note_on_c, 0, 52, 0
2, 200064, Note_on_c, 0, 50, 97
2, 200064, Note_on_c, 0, 76, 97
2, 200064, Note_on_c, 0, 72, 97
2, 200351, Note_on_c, 0, 72, 0
2, 200351, Note_on_c, 0, 76, 0
2, 200351, Note_on_c, 0, 50, 0
2, 200352, Note_on_c, 0, 48, 97
2, 200352, Note_on_c, 0, 77, 97
2, 200352, Note_on_c, 0, 74, 97
2, 200447, Note_on_c, 0, 74, 0
2, 200447, Note_on_c, 0, 77, 0
2, 200447, Note_on_c, 0, 48, 0
2, 200448, Note_on_c, 0, 57, 97
2, 200448, Note_on_c, 0, 72, 97
2, 200448, Note_on_c, 0, 76, 97
2, 200639, Note_on_c, 0, 57, 0
2, 200640, Note_on_c, 0, 56, 97
2, 200735, Note_on_c, 0, 56, 0
2, 200736, Note_on_c, 0, 52, 97
2, 200831, Note_on_c, 0, 52, 0
2, 200831, Note_on_c, 0, 76, 0
2, 200831, Note_on_c, 0, 72, 0
2, 200832, Note_on_c, 0, 57, 97
2, 200832, Note_on_c, 0, 71, 97
2, 200832, Note_on_c, 0, 74, 97
2, 201023, Note_on_c, 0, 74, 0
2, 201023, Note_on_c, 0, 71, 0
2, 201024, Note_on_c, 0, 76, 97
2, 201024, Note_on_c, 0, 72, 97
2, 201215, Note_on_c, 0, 72, 0
2, 201215, Note_on_c, 0, 76, 0
2, 201216, Note_on_c, 0, 74, 97
2, 201216, Note_on_c, 0, 71, 97
2, 201415, Note_on_c, 0, 71, 0
2, 201415, Note_on_c, 0, 74, 0
2, 201416, Note_on_c, 0, 69, 97
2, 201416, Note_on_c, 0, 72, 97
2, 201503, Note_on_c, 0, 57, 0
2, 201504, Note_on_c, 0, 55, 97
2, 201599, Note_on_c, 0, 55, 0
2, 201600, Note_on_c, 0, 54, 97
2, 201866, Note_on_c, 0, 72, 0
2, 201866, Note_on_c, 0, 69, 0
2, 201887, Note_on_c, 0, 54, 0
2, 201888, Note_on_c, 0, 50, 97
2, 201888, Note_on_c, 0, 74, 97
2, 201983, Note_on_c, 0, 74, 0
2, 201983, Note_on_c, 0, 50, 0
2, 201984, Note_on_c, 0, 55, 97
2, 201984, Note_on_c, 0, 71, 97
2, 201984, Note_on_c, 0, 67, 97
2, 202271, Note_on_c, 0, 67, 0
2, 202271, Note_on_c, 0, 71, 0
2, 202272, Note_on_c, 0, 66, 97
2, 202272, Note_on_c, 0, 69, 97
2, 202367, Note_on_c, 0, 69, 0
2, 202367, Note_on_c, 0, 66, 0
2, 202367, Note_on_c, 0, 55, 0
2, 202368, Note_on_c, 0, 48, 97
2, 202368, Note_on_c, 0, 71, 97
2, 202368, Note_on_c, 0, 67, 97
2, 202655, Note_on_c, 0, 67, 0
2, 202655, Note_on_c, 0, 71, 0
2, 202656, Note_on_c, 0, 72, 97
2, 202656, Note_on_c, 0, 69, 97
2, 202751, Note_on_c, 0, 69, 0
2, 202751, Note_on_c, 0, 72, 0
2, 202751, Note_on_c, 0, 48, 0
2, 202752, Note_on_c, 0, 50, 97
2, 202752, Note_on_c, 0, 67, 97
2, 202752, Note_on_c, 0, 71, 97
2, 202956, Note_on_c, 0, 66, 97
2, 202956, Note_on_c, 0, 69, 97
2, 202958, Note_on_c, 0, 71, 0
2, 202958, Note_on_c, 0, 67, 0
2, 203136, Note_on_c, 0, 38, 97
2, 203256, Note_on_c, 0, 69, 0
2, 203256, Note_on_c, 0, 66, 0
2, 203328, Note_on_c, 0, 69, 97
2, 203328, Note_on_c, 0, 78, 97
2, 203516, Note_on_c, 0, 38, 0
2, 203519, Note_on_c, 0, 50, 0
2, 203519, Note_on_c, 0, 69, 0
2, 203519, Note_on_c, 0, 78, 0
2, 203520, Note_on_c, 0, 66, 97
2, 203520, Note_on_c, 0, 74, 97
2, 203807, Note_on_c, 0, 74, 0
2, 203807, Note_on_c, 0, 66, 0
2, 203808, Note_on_c, 0, 67, 97
2, 203808, Note_on_c, 0, 76, 97
2, 203903, Note_on_c, 0, 76, 0
2, 203903, Note_on_c, 0, 67, 0
2, 203904, Note_on_c, 0, 69, 97
2, 203904, Note_on_c, 0, 78, 97
2, 204192, Note_on_c, 0, 62, 97
2, 204287, Note_on_c, 0, 62, 0
2, 204287, Note_on_c, 0, 78, 0
2, 204287, Note_on_c, 0, 69, 0
2, 204288, Note_on_c, 0, 60, 97
2, 204288, Note_on_c, 0, 71, 97
2, 204288, Note_on_c, 0, 79, 97
2, 204575, Note_on_c, 0, 60, 0
2, 204576, Note_on_c, 0, 59, 97
2, 204671, Note_on_c, 0, 59, 0
2, 204671, Note_on_c, 0, 79, 0
2, 204671, Note_on_c, 0, 71, 0
2, 204672, Note_on_c, 0, 57, 97
2, 204672, Note_on_c, 0, 81, 97
2, 204672, Note_on_c, 0, 72, 97
2, 204959, Note_on_c, 0, 72, 0
2, 204959, Note_on_c, 0, 81, 0
2, 204959, Note_on_c, 0, 57, 0
2, 204960, Note_on_c, 0, 55, 97
2, 204960, Note_on_c, 0, 83, 97
2, 204960, Note_on_c, 0, 74, 97
2, 205055, Note_on_c, 0, 83, 0
2, 205055, Note_on_c, 0, 55, 0
2, 205056, Note_on_c, 0, 60, 97
2, 205056, Note_on_c, 0, 76, 97
2, 205200, Note_on_c, 0, 74, 0
2, 205344, Note_on_c, 0, 67, 97
2, 205439, Note_on_c, 0, 67, 0
2, 205439, Note_on_c, 0, 60, 0
2, 205440, Note_on_c, 0, 57, 97
2, 205440, Note_on_c, 0, 72, 97
2, 205728, Note_on_c, 0, 76, 0
2, 205728, Note_on_c, 0, 78, 97
2, 205823, Note_on_c, 0, 78, 0
2, 205823, Note_on_c, 0, 57, 0
2, 205824, Note_on_c, 0, 64, 97
2, 205824, Note_on_c, 0, 79, 97
2, 206112, Note_on_c, 0, 72, 0
2, 206112, Note_on_c, 0, 71, 97
2, 206207, Note_on_c, 0, 71, 0
2, 206207, Note_on_c, 0, 64, 0
2, 206208, Note_on_c, 0, 60, 97
2, 206208, Note_on_c, 0, 69, 97
2, 206422, Note_on_c, 0, 78, 97
2, 206433, Note_on_c, 0, 79, 0
2, 206507, Note_on_c, 0, 76, 97
2, 206516, Note_on_c, 0, 78, 0
2, 206588, Note_on_c, 0, 69, 0
2, 206590, Note_on_c, 0, 76, 0
2, 206591, Note_on_c, 0, 60, 0
2, 206592, Note_on_c, 0, 62, 97
2, 206592, Note_on_c, 0, 71, 97
2, 206592, Note_on_c, 0, 74, 97
2, 206879, Note_on_c, 0, 74, 0
2, 206879, Note_on_c, 0, 71, 0
2, 206880, Note_on_c, 0, 72, 97
2, 206880, Note_on_c, 0, 69, 97
2, 206975, Note_on_c, 0, 69, 0
2, 206975, Note_on_c, 0, 72, 0
2, 206976, Note_on_c, 0, 67, 97
2, 206976, Note_on_c, 0, 81, 97
2, 207263, Note_on_c, 0, 81, 0
2, 207263, Note_on_c, 0, 67, 0
2, 207264, Note_on_c, 0, 66, 97
2, 207264, Note_on_c, 0, 72, 97
2, 207359, Note_on_c, 0, 72, 0
2, 207359, Note_on_c, 0, 66, 0
2, 207359, Note_on_c, 0, 62, 0
2, 207360, Note_on_c, 0, 55, 97
2, 207360, Note_on_c, 0, 66, 97
2, 207360, Note_on_c, 0, 72, 97
2, 207570, Note_on_c, 0, 71, 97
2, 207570, Note_on_c, 0, 67, 97
2, 207571, Note_on_c, 0, 72, 0
2, 207571, Note_on_c, 0, 66, 0
2, 207743, Note_on_c, 0, 55, 0
2, 207744, Note_on_c, 0, 43, 97
2, 207890, Note_on_c, 0, 67, 0
2, 207890, Note_on_c, 0, 71, 0
2, 208031, Note_on_c, 0, 43, 0
2, 208032, Note_on_c, 0, 55, 97
2, 208032, Note_on_c, 0, 74, 97
2, 208127, Note_on_c, 0, 74, 0
2, 208127, Note_on_c, 0, 55, 0
2, 208128, Note_on_c, 0, 59, 97
2, 208128, Note_on_c, 0, 79, 97
2, 208415, Note_on_c, 0, 79, 0
2, 208415, Note_on_c, 0, 59, 0
2, 208416, Note_on_c, 0, 62, 97
2, 208416, Note_on_c, 0, 81, 97
2, 208511, Note_on_c, 0, 81, 0
2, 208511, Note_on_c, 0, 62, 0
2, 208512, Note_on_c, 0, 67, 97
2, 208512, Note_on_c, 0, 83, 97
2, 208800, Note_on_c, 0, 81, 97
2, 208892, Note_on_c, 0, 83, 0
2, 208895, Note_on_c, 0, 81, 0
2, 208895, Note_on_c, 0, 67, 0
2, 208896, Note_on_c, 0, 55, 97
2, 208896, Note_on_c, 0, 83, 97
2, 208896, Note_on_c, 0, 79, 97
2, 209183, Note_on_c, 0, 79, 0
2, 209184, Note_on_c, 0, 78, 97
2, 209279, Note_on_c, 0, 78, 0
2, 209279, Note_on_c, 0, 55, 0
2, 209280, Note_on_c, 0, 67, 97
2, 209280, Note_on_c, 0, 76, 97
2, 209560, Note_on_c, 0, 83, 0
2, 209567, Note_on_c, 0, 76, 0
2, 209568, Note_on_c, 0, 83, 97
2, 209568, Note_on_c, 0, 74, 97
2, 209663, Note_on_c, 0, 74, 0
2, 209663, Note_on_c, 0, 83, 0
2, 209664, Note_on_c, 0, 73, 97
2, 209664, Note_on_c, 0, 78, 97
2, 209951, Note_on_c, 0, 67, 0
2, 209952, Note_on_c, 0, 71, 97
2, 210047, Note_on_c, 0, 71, 0
2, 210047, Note_on_c, 0, 78, 0
2, 210047, Note_on_c, 0, 76, 97
2, 210048, Note_on_c, 0, 69, 97
2, 210334, Note_on_c, 0, 76, 0
2, 210335, Note_on_c, 0, 69, 0
2, 210336, Note_on_c, 0, 67, 97
2, 210336, Note_on_c, 0, 76, 97
2, 210431, Note_on_c, 0, 76, 0
2, 210431, Note_on_c, 0, 67, 0
2, 210432, Note_on_c, 0, 66, 97
2, 210432, Note_on_c, 0, 81, 97
2, 210718, Note_on_c, 0, 73, 0
2, 210719, Note_on_c, 0, 66, 0
2, 210720, Note_on_c, 0, 64, 97
2, 210720, Note_on_c, 0, 73, 97
2, 210815, Note_on_c, 0, 73, 0
2, 210815, Note_on_c, 0, 64, 0
2, 210816, Note_on_c, 0, 62, 97
2, 210816, Note_on_c, 0, 71, 97
2, 211103, Note_on_c, 0, 81, 0
2, 211104, Note_on_c, 0, 83, 97
2, 211199, Note_on_c, 0, 83, 0
2, 211200, Note_on_c, 0, 81, 97
2, 211392, Note_on_c, 0, 80, 97
2, 211398, Note_on_c, 0, 81, 0
2, 211457, Note_on_c, 0, 81, 97
2, 211462, Note_on_c, 0, 80, 0
2, 211487, Note_on_c, 0, 62, 0
2, 211488, Note_on_c, 0, 59, 97
2, 211522, Note_on_c, 0, 80, 97
2, 211527, Note_on_c, 0, 81, 0
2, 211583, Note_on_c, 0, 59, 0
2, 211584, Note_on_c, 0, 64, 97
2, 211858, Note_on_c, 0, 80, 0
2, 211871, Note_on_c, 0, 64, 0
2, 211872, Note_on_c, 0, 62, 97
2, 211872, Note_on_c, 0, 81, 97
2, 211966, Note_on_c, 0, 71, 0
2, 211967, Note_on_c, 0, 81, 0
2, 211967, Note_on_c, 0, 62, 0
2, 211968, Note_on_c, 0, 61, 97
2, 211968, Note_on_c, 0, 81, 97
2, 212256, Note_on_c, 0, 64, 97
2, 212351, Note_on_c, 0, 64, 0
2, 212352, Note_on_c, 0, 69, 97
2, 212448, Note_on_c, 0, 81, 0
2, 212448, Note_on_c, 0, 79, 97
2, 212543, Note_on_c, 0, 79, 0
2, 212544, Note_on_c, 0, 78, 97
2, 212638, Note_on_c, 0, 61, 0
2, 212639, Note_on_c, 0, 78, 0
2, 212640, Note_on_c, 0, 57, 97
2, 212640, Note_on_c, 0, 81, 97
2, 212735, Note_on_c, 0, 81, 0
2, 212735, Note_on_c, 0, 57, 0
2, 212736, Note_on_c, 0, 59, 97
2, 212736, Note_on_c, 0, 79, 97
2, 212831, Note_on_c, 0, 79, 0
2, 212832, Note_on_c, 0, 78, 97
2, 212927, Note_on_c, 0, 78, 0
2, 212928, Note_on_c, 0, 76, 97
2, 213023, Note_on_c, 0, 76, 0
2, 213023, Note_on_c, 0, 59, 0
2, 213024, Note_on_c, 0, 61, 97
2, 213024, Note_on_c, 0, 79, 97
2, 213119, Note_on_c, 0, 79, 0
2, 213119, Note_on_c, 0, 61, 0
2, 213120, Note_on_c, 0, 62, 97
2, 213120, Note_on_c, 0, 78, 97
2, 213407, Note_on_c, 0, 62, 0
2, 213408, Note_on_c, 0, 50, 97
2, 213460, Note_on_c, 0, 78, 0
2, 213502, Note_on_c, 0, 69, 0
2, 213503, Note_on_c, 0, 50, 0
2, 213504, Note_on_c, 0, 55, 97
2, 213504, Note_on_c, 0, 71, 97
2, 213791, Note_on_c, 0, 55, 0
2, 213792, Note_on_c, 0, 54, 97
2, 213792, Note_on_c, 0, 62, 97
2, 213887, Note_on_c, 0, 62, 0
2, 213887, Note_on_c, 0, 54, 0
2, 213888, Note_on_c, 0, 52, 97
2, 213888, Note_on_c, 0, 67, 97
2, 214079, Note_on_c, 0, 71, 0
2, 214080, Note_on_c, 0, 76, 97
2, 214175, Note_on_c, 0, 52, 0
2, 214176, Note_on_c, 0, 50, 97
2, 214271, Note_on_c, 0, 50, 0
2, 214271, Note_on_c, 0, 76, 0
2, 214272, Note_on_c, 0, 49, 97
2, 214272, Note_on_c, 0, 69, 97
2, 214559, Note_on_c, 0, 49, 0
2, 214560, Note_on_c, 0, 45, 97
2, 214655, Note_on_c, 0, 45, 0
2, 214655, Note_on_c, 0, 67, 0
2, 214656, Note_on_c, 0, 50, 97
2, 214656, Note_on_c, 0, 66, 97
2, 214732, Note_on_c, 0, 69, 0
2, 214752, Note_on_c, 0, 69, 97
2, 214847, Note_on_c, 0, 69, 0
2, 214848, Note_on_c, 0, 71, 97
2, 214943, Note_on_c, 0, 71, 0
2, 214943, Note_on_c, 0, 50, 0
2, 214944, Note_on_c, 0, 49, 97
2, 214944, Note_on_c, 0, 73, 97
2, 215036, Note_on_c, 0, 66, 0
2, 215039, Note_on_c, 0, 73, 0
2, 215039, Note_on_c, 0, 49, 0
2, 215040, Note_on_c, 0, 47, 97
2, 215040, Note_on_c, 0, 74, 97
2, 215129, Note_on_c, 0, 74, 0
2, 215130, Note_on_c, 0, 76, 97
2, 215219, Note_on_c, 0, 76, 0
2, 215220, Note_on_c, 0, 78, 97
2, 215288, Note_on_c, 0, 76, 97
2, 215292, Note_on_c, 0, 78, 0
2, 215327, Note_on_c, 0, 47, 0
2, 215328, Note_on_c, 0, 45, 97
2, 215356, Note_on_c, 0, 74, 97
2, 215358, Note_on_c, 0, 76, 0
2, 215419, Note_on_c, 0, 74, 0
2, 215423, Note_on_c, 0, 45, 0
2, 215424, Note_on_c, 0, 43, 97
2, 215424, Note_on_c, 0, 83, 97
2, 215664, Note_on_c, 0, 83, 0
2, 215711, Note_on_c, 0, 43, 0
2, 215712, Note_on_c, 0, 40, 97
2, 215712, Note_on_c, 0, 67, 97
2, 215712, Note_on_c, 0, 71, 97
2, 215807, Note_on_c, 0, 71, 0
2, 215807, Note_on_c, 0, 67, 0
2, 215807, Note_on_c, 0, 40, 0
2, 215808, Note_on_c, 0, 45, 97
2, 215808, Note_on_c, 0, 74, 97
2, 215808, Note_on_c, 0, 66, 97
2, 216191, Note_on_c, 0, 66, 0
2, 216191, Note_on_c, 0, 74, 0
2, 216191, Note_on_c, 0, 45, 0
2, 216192, Note_on_c, 0, 33, 97
2, 216192, Note_on_c, 0, 64, 97
2, 216192, Note_on_c, 0, 73, 97
2, 216479, Note_on_c, 0, 73, 0
2, 216480, Note_on_c, 0, 74, 97
2, 216572, Note_on_c, 0, 64, 0
2, 216575, Note_on_c, 0, 74, 0
2, 216575, Note_on_c, 0, 33, 0
2, 216576, Note_on_c, 0, 38, 97
2, 216576, Note_on_c, 0, 74, 97
2, 216576, Note_on_c, 0, 66, 97
2, 217151, Note_on_c, 0, 66, 0
2, 217151, Note_on_c, 0, 74, 0
2, 217232, Note_on_c, 0, 78, 97
2, 217232, Note_on_c, 0, 81, 97
2, 217316, Note_on_c, 0, 38, 0
2, 217343, Note_on_c, 0, 81, 0
2, 217343, Note_on_c, 0, 78, 0
2, 217344, Note_on_c, 0, 78, 97
2, 217344, Note_on_c, 0, 74, 97
2, 217631, Note_on_c, 0, 74, 0
2, 217631, Note_on_c, 0, 78, 0
2, 217632, Note_on_c, 0, 79, 97
2, 217632, Note_on_c, 0, 76, 97
2, 217727, Note_on_c, 0, 76, 0
2, 217727, Note_on_c, 0, 79, 0
2, 217728, Note_on_c, 0, 78, 97
2, 217728, Note_on_c, 0, 81, 97
2, 218016, Note_on_c, 0, 62, 97
2, 218111, Note_on_c, 0, 62, 0
2, 218111, Note_on_c, 0, 81, 0
2, 218111, Note_on_c, 0, 78, 0
2, 218112, Note_on_c, 0, 60, 97
2, 218112, Note_on_c, 0, 81, 97
2, 218112, Note_on_c, 0, 78, 97
2, 218399, Note_on_c, 0, 60, 0
2, 218400, Note_on_c, 0, 59, 97
2, 218495, Note_on_c, 0, 59, 0
2, 218495, Note_on_c, 0, 78, 0
2, 218495, Note_on_c, 0, 81, 0
2, 218496, Note_on_c, 0, 57, 97
2, 218496, Note_on_c, 0, 79, 97
2, 218496, Note_on_c, 0, 83, 97
2, 218783, Note_on_c, 0, 83, 0
2, 218783, Note_on_c, 0, 79, 0
2, 218783, Note_on_c, 0, 57, 0
2, 218784, Note_on_c, 0, 55, 97
2, 218784, Note_on_c, 0, 84, 97
2, 218784, Note_on_c, 0, 81, 97
2, 218879, Note_on_c, 0, 81, 0
2, 218879, Note_on_c, 0, 84, 0
2, 218879, Note_on_c, 0, 55, 0
2, 218880, Note_on_c, 0, 63, 97
2, 218880, Note_on_c, 0, 83, 97
2, 218880, Note_on_c, 0, 79, 97
2, 219167, Note_on_c, 0, 63, 0
2, 219168, Note_on_c, 0, 59, 97
2, 219247, Note_on_c, 0, 81, 97
2, 219247, Note_on_c, 0, 78, 97
2, 219248, Note_on_c, 0, 64, 97
2, 219255, Note_on_c, 0, 79, 0
2, 219255, Note_on_c, 0, 83, 0
2, 219263, Note_on_c, 0, 59, 0
2, 219417, Note_on_c, 0, 81, 0
2, 219417, Note_on_c, 0, 78, 0
2, 219457, Note_on_c, 0, 79, 97
2, 219457, Note_on_c, 0, 83, 97
2, 219647, Note_on_c, 0, 83, 0
2, 219647, Note_on_c, 0, 79, 0
2, 219648, Note_on_c, 0, 78, 97
2, 219648, Note_on_c, 0, 81, 97
2, 219823, Note_on_c, 0, 64, 0
2, 219838, Note_on_c, 0, 81, 0
2, 219838, Note_on_c, 0, 78, 0
2, 219839, Note_on_c, 0, 79, 97
2, 219839, Note_on_c, 0, 76, 97
2, 219840, Note_on_c, 0, 62, 97
2, 220031, Note_on_c, 0, 62, 0
2, 220032, Note_on_c, 0, 60, 97
2, 220319, Note_on_c, 0, 76, 0
2, 220319, Note_on_c, 0, 79, 0
2, 220320, Note_on_c, 0, 78, 97
2, 220415, Note_on_c, 0, 78, 0
2, 220416, Note_on_c, 0, 64, 97
2, 220416, Note_on_c, 0, 81, 97
2, 220703, Note_on_c, 0, 81, 0
2, 220704, Note_on_c, 0, 79, 97
2, 220799, Note_on_c, 0, 79, 0
2, 220799, Note_on_c, 0, 64, 0
2, 220800, Note_on_c, 0, 69, 97
2, 220800, Note_on_c, 0, 78, 97
2, 220895, Note_on_c, 0, 78, 0
2, 220896, Note_on_c, 0, 79, 97
2, 220991, Note_on_c, 0, 79, 0
2, 220992, Note_on_c, 0, 78, 97
2, 221087, Note_on_c, 0, 78, 0
2, 221088, Note_on_c, 0, 76, 97
2, 221182, Note_on_c, 0, 60, 0
2, 221183, Note_on_c, 0, 76, 0
2, 221183, Note_on_c, 0, 69, 0
2, 221184, Note_on_c, 0, 71, 97
2, 221184, Note_on_c, 0, 59, 97
2, 221184, Note_on_c, 0, 76, 97
2, 221388, Note_on_c, 0, 75, 97
2, 221390, Note_on_c, 0, 76, 0
2, 221567, Note_on_c, 0, 71, 0
2, 221568, Note_on_c, 0, 47, 97
2, 221708, Note_on_c, 0, 75, 0
2, 221760, Note_on_c, 0, 78, 97
2, 221760, Note_on_c, 0, 75, 97
2, 221948, Note_on_c, 0, 47, 0
2, 221951, Note_on_c, 0, 59, 0
2, 221951, Note_on_c, 0, 78, 0
2, 221951, Note_on_c, 0, 75, 0
2, 221952, Note_on_c, 0, 71, 97
2, 221952, Note_on_c, 0, 76, 97
2, 222015, Note_on_c, 0, 76, 0
2, 222016, Note_on_c, 0, 75, 97
2, 222079, Note_on_c, 0, 75, 0
2, 222080, Note_on_c, 0, 76, 97
2, 222143, Note_on_c, 0, 76, 0
2, 222144, Note_on_c, 0, 75, 97
2, 222232, Note_on_c, 0, 71, 0
2, 222239, Note_on_c, 0, 75, 0
2, 222240, Note_on_c, 0, 76, 97
2, 222240, Note_on_c, 0, 73, 97
2, 222335, Note_on_c, 0, 73, 0
2, 222335, Note_on_c, 0, 76, 0
2, 222336, Note_on_c, 0, 78, 97
2, 222336, Note_on_c, 0, 75, 97
2, 222624, Note_on_c, 0, 71, 97
2, 222719, Note_on_c, 0, 71, 0
2, 222719, Note_on_c, 0, 75, 0
2, 222719, Note_on_c, 0, 78, 0
2, 222720, Note_on_c, 0, 69, 97
2, 222720, Note_on_c, 0, 75, 97
2, 222720, Note_on_c, 0, 78, 97
2, 223007, Note_on_c, 0, 69, 0
2, 223008, Note_on_c, 0, 67, 97
2, 223103, Note_on_c, 0, 67, 0
2, 223103, Note_on_c, 0, 78, 0
2, 223103, Note_on_c, 0, 75, 0
2, 223104, Note_on_c, 0, 66, 97
2, 223104, Note_on_c, 0, 76, 97
2, 223104, Note_on_c, 0, 79, 97
2, 223391, Note_on_c, 0, 79, 0
2, 223391, Note_on_c, 0, 76, 0
2, 223391, Note_on_c, 0, 66, 0
2, 223392, Note_on_c, 0, 64, 97
2, 223392, Note_on_c, 0, 81, 97
2, 223392, Note_on_c, 0, 78, 97
2, 223487, Note_on_c, 0, 78, 0
2, 223487, Note_on_c, 0, 81, 0
2, 223487, Note_on_c, 0, 64, 0
2, 223488, Note_on_c, 0, 71, 97
2, 223488, Note_on_c, 0, 79, 97
2, 223488, Note_on_c, 0, 76, 97
2, 223692, Note_on_c, 0, 75, 97
2, 223692, Note_on_c, 0, 78, 97
2, 223694, Note_on_c, 0, 76, 0
2, 223694, Note_on_c, 0, 79, 0
2, 223872, Note_on_c, 0, 59, 97
2, 223972, Note_on_c, 0, 78, 0
2, 223972, Note_on_c, 0, 75, 0
2, 224064, Note_on_c, 0, 78, 97
2, 224064, Note_on_c, 0, 75, 97
2, 224252, Note_on_c, 0, 59, 0
2, 224255, Note_on_c, 0, 71, 0
2, 224255, Note_on_c, 0, 78, 0
2, 224255, Note_on_c, 0, 75, 0
2, 224256, Note_on_c, 0, 80, 97
2, 224256, Note_on_c, 0, 71, 97
2, 224543, Note_on_c, 0, 71, 0
2, 224543, Note_on_c, 0, 80, 0
2, 224544, Note_on_c, 0, 72, 97
2, 224544, Note_on_c, 0, 81, 97
2, 224639, Note_on_c, 0, 81, 0
2, 224639, Note_on_c, 0, 72, 0
2, 224640, Note_on_c, 0, 74, 97
2, 224640, Note_on_c, 0, 83, 97
2, 224927, Note_on_c, 0, 83, 0
2, 224928, Note_on_c, 0, 65, 97
2, 224928, Note_on_c, 0, 84, 97
2, 225023, Note_on_c, 0, 84, 0
2, 225023, Note_on_c, 0, 65, 0
2, 225024, Note_on_c, 0, 64, 97
2, 225024, Note_on_c, 0, 80, 97
2, 225305, Note_on_c, 0, 74, 0
2, 225311, Note_on_c, 0, 64, 0
2, 225312, Note_on_c, 0, 62, 97
2, 225312, Note_on_c, 0, 77, 97
2, 225407, Note_on_c, 0, 77, 0
2, 225407, Note_on_c, 0, 62, 0
2, 225408, Note_on_c, 0, 60, 97
2, 225408, Note_on_c, 0, 76, 97
2, 225689, Note_on_c, 0, 80, 0
2, 225695, Note_on_c, 0, 76, 0
2, 225695, Note_on_c, 0, 60, 0
2, 225696, Note_on_c, 0, 59, 97
2, 225696, Note_on_c, 0, 80, 97
2, 225696, Note_on_c, 0, 74, 97
2, 225791, Note_on_c, 0, 74, 0
2, 225791, Note_on_c, 0, 80, 0
2, 225791, Note_on_c, 0, 59, 0
2, 225792, Note_on_c, 0, 60, 97
2, 225792, Note_on_c, 0, 76, 97
2, 225792, Note_on_c, 0, 81, 97
2, 226175, Note_on_c, 0, 60, 0
2, 226176, Note_on_c, 0, 48, 97
2, 226367, Note_on_c, 0, 81, 0
2, 226463, Note_on_c, 0, 76, 0
2, 226464, Note_on_c, 0, 81, 97
2, 226559, Note_on_c, 0, 81, 0
2, 226559, Note_on_c, 0, 48, 0
2, 226560, Note_on_c, 0, 60, 97
2, 226560, Note_on_c, 0, 76, 97
2, 226847, Note_on_c, 0, 76, 0
2, 226848, Note_on_c, 0, 78, 97
2, 226943, Note_on_c, 0, 78, 0
2, 226943, Note_on_c, 0, 60, 0
2, 226944, Note_on_c, 0, 61, 97
2, 226944, Note_on_c, 0, 79, 97
2, 227039, Note_on_c, 0, 79, 0
2, 227040, Note_on_c, 0, 78, 97
2, 227135, Note_on_c, 0, 78, 0
2, 227136, Note_on_c, 0, 76, 97
2, 227231, Note_on_c, 0, 76, 0
2, 227232, Note_on_c, 0, 79, 97
2, 227327, Note_on_c, 0, 79, 0
2, 227327, Note_on_c, 0, 61, 0
2, 227328, Note_on_c, 0, 62, 97
2, 227328, Note_on_c, 0, 78, 97
2, 227616, Note_on_c, 0, 74, 97
2, 227711, Note_on_c, 0, 74, 0
2, 227711, Note_on_c, 0, 62, 0
2, 227712, Note_on_c, 0, 50, 97
2, 227712, Note_on_c, 0, 69, 97
2, 227999, Note_on_c, 0, 69, 0
2, 228000, Note_on_c, 0, 71, 97
2, 228095, Note_on_c, 0, 71, 0
2, 228095, Note_on_c, 0, 50, 0
2, 228096, Note_on_c, 0, 62, 97
2, 228096, Note_on_c, 0, 72, 97
2, 228191, Note_on_c, 0, 72, 0
2, 228192, Note_on_c, 0, 71, 97
2, 228287, Note_on_c, 0, 71, 0
2, 228288, Note_on_c, 0, 69, 97
2, 228383, Note_on_c, 0, 69, 0
2, 228384, Note_on_c, 0, 72, 97
2, 228478, Note_on_c, 0, 78, 0
2, 228479, Note_on_c, 0, 72, 0
2, 228479, Note_on_c, 0, 62, 0
2, 228480, Note_on_c, 0, 63, 97
2, 228480, Note_on_c, 0, 71, 97
2, 228575, Note_on_c, 0, 63, 0
2, 228576, Note_on_c, 0, 66, 97
2, 228671, Note_on_c, 0, 66, 0
2, 228672, Note_on_c, 0, 67, 97
2, 228767, Note_on_c, 0, 67, 0
2, 228768, Note_on_c, 0, 69, 97
2, 228768, Note_on_c, 0, 75, 97
2, 228863, Note_on_c, 0, 75, 0
2, 228863, Note_on_c, 0, 69, 0
2, 228864, Note_on_c, 0, 67, 97
2, 228864, Note_on_c, 0, 76, 97
2, 228959, Note_on_c, 0, 67, 0
2, 228960, Note_on_c, 0, 66, 97
2, 229055, Note_on_c, 0, 66, 0
2, 229056, Note_on_c, 0, 64, 97
2, 229151, Note_on_c, 0, 64, 0
2, 229151, Note_on_c, 0, 76, 0
2, 229152, Note_on_c, 0, 63, 97
2, 229152, Note_on_c, 0, 81, 97
2, 229247, Note_on_c, 0, 81, 0
2, 229247, Note_on_c, 0, 63, 0
2, 229248, Note_on_c, 0, 64, 97
2, 229248, Note_on_c, 0, 79, 97
2, 229530, Note_on_c, 0, 71, 0
2, 229535, Note_on_c, 0, 79, 0
2, 229535, Note_on_c, 0, 64, 0
2, 229546, Note_on_c, 0, 57, 97
2, 229546, Note_on_c, 0, 69, 97
2, 229546, Note_on_c, 0, 78, 97
2, 229632, Note_on_c, 0, 78, 0
2, 229632, Note_on_c, 0, 69, 0
2, 229632, Note_on_c, 0, 57, 0
2, 229632, Note_on_c, 0, 59, 97
2, 229632, Note_on_c, 0, 76, 97
2, 229632, Note_on_c, 0, 67, 97
2, 230015, Note_on_c, 0, 67, 0
2, 230015, Note_on_c, 0, 76, 0
2, 230015, Note_on_c, 0, 59, 0
2, 230016, Note_on_c, 0, 47, 97
2, 230016, Note_on_c, 0, 66, 97
2, 230016, Note_on_c, 0, 75, 97
2, 230303, Note_on_c, 0, 75, 0
2, 230304, Note_on_c, 0, 76, 97
2, 230396, Note_on_c, 0, 66, 0
2, 230399, Note_on_c, 0, 76, 0
2, 230399, Note_on_c, 0, 47, 0
2, 230400, Note_on_c, 0, 52, 97
2, 230400, Note_on_c, 0, 76, 97
2, 230400, Note_on_c, 0, 67, 97
2, 230780, Note_on_c, 0, 67, 0
2, 230784, Note_on_c, 0, 40, 97
2, 230879, Note_on_c, 0, 76, 0
2, 230880, Note_on_c, 0, 79, 97
2, 230975, Note_on_c, 0, 79, 0
2, 230976, Note_on_c, 0, 78, 97
2, 231071, Note_on_c, 0, 78, 0
2, 231072, Note_on_c, 0, 81, 97
2, 231164, Note_on_c, 0, 40, 0
2, 231167, Note_on_c, 0, 81, 0
2, 231167, Note_on_c, 0, 52, 0
2, 231168, Note_on_c, 0, 79, 97
2, 231263, Note_on_c, 0, 79, 0
2, 231264, Note_on_c, 0, 78, 97
2, 231359, Note_on_c, 0, 78, 0
2, 231360, Note_on_c, 0, 76, 97
2, 231455, Note_on_c, 0, 76, 0
2, 231456, Note_on_c, 0, 74, 97
2, 231551, Note_on_c, 0, 74, 0
2, 231552, Note_on_c, 0, 72, 97
2, 231743, Note_on_c, 0, 72, 0
2, 231744, Note_on_c, 0, 65, 97
2, 231744, Note_on_c, 0, 71, 97
2, 231935, Note_on_c, 0, 65, 0
2, 231936, Note_on_c, 0, 64, 97
2, 231984, Note_on_c, 0, 71, 0
2, 232032, Note_on_c, 0, 74, 97
2, 232127, Note_on_c, 0, 74, 0
2, 232127, Note_on_c, 0, 64, 0
2, 232128, Note_on_c, 0, 65, 97
2, 232128, Note_on_c, 0, 62, 97
2, 232128, Note_on_c, 0, 72, 97
2, 232223, Note_on_c, 0, 72, 0
2, 232224, Note_on_c, 0, 71, 97
2, 232319, Note_on_c, 0, 71, 0
2, 232319, Note_on_c, 0, 62, 0
2, 232319, Note_on_c, 0, 65, 0
2, 232320, Note_on_c, 0, 64, 97
2, 232320, Note_on_c, 0, 60, 97
2, 232320, Note_on_c, 0, 81, 97
2, 232511, Note_on_c, 0, 60, 0
2, 232511, Note_on_c, 0, 64, 0
2, 232512, Note_on_c, 0, 62, 97
2, 232512, Note_on_c, 0, 59, 97
2, 232590, Note_on_c, 0, 81, 0
2, 232608, Note_on_c, 0, 79, 97
2, 232703, Note_on_c, 0, 79, 0
2, 232703, Note_on_c, 0, 59, 0
2, 232703, Note_on_c, 0, 62, 0
2, 232704, Note_on_c, 0, 60, 97
2, 232704, Note_on_c, 0, 77, 97
2, 232894, Note_on_c, 0, 76, 97
2, 232895, Note_on_c, 0, 77, 0
2, 232895, Note_on_c, 0, 60, 0
2, 232896, Note_on_c, 0, 59, 97
2, 233086, Note_on_c, 0, 59, 0
2, 233088, Note_on_c, 0, 60, 97
2, 233144, Note_on_c, 0, 76, 0
2, 233184, Note_on_c, 0, 79, 97
2, 233279, Note_on_c, 0, 79, 0
2, 233279, Note_on_c, 0, 60, 0
2, 233280, Note_on_c, 0, 62, 97
2, 233280, Note_on_c, 0, 78, 97
2, 233375, Note_on_c, 0, 78, 0
2, 233376, Note_on_c, 0, 76, 97
2, 233471, Note_on_c, 0, 76, 0
2, 233471, Note_on_c, 0, 62, 0
2, 233472, Note_on_c, 0, 64, 97
2, 233472, Note_on_c, 0, 57, 97
2, 233472, Note_on_c, 0, 84, 97
2, 233663, Note_on_c, 0, 64, 0
2, 233664, Note_on_c, 0, 66, 97
2, 233759, Note_on_c, 0, 84, 0
2, 233760, Note_on_c, 0, 81, 97
2, 233852, Note_on_c, 0, 57, 0
2, 233855, Note_on_c, 0, 81, 0
2, 233855, Note_on_c, 0, 66, 0
2, 233856, Note_on_c, 0, 67, 97
2, 233856, Note_on_c, 0, 55, 97
2, 233856, Note_on_c, 0, 83, 97
2, 234047, Note_on_c, 0, 83, 0
2, 234048, Note_on_c, 0, 81, 97
2, 234111, Note_on_c, 0, 81, 0
2, 234112, Note_on_c, 0, 79, 97
2, 234175, Note_on_c, 0, 79, 0
2, 234176, Note_on_c, 0, 78, 97
2, 234239, Note_on_c, 0, 78, 0
2, 234239, Note_on_c, 0, 55, 0
2, 234240, Note_on_c, 0, 60, 97
2, 234240, Note_on_c, 0, 76, 97
2, 234520, Note_on_c, 0, 67, 0
2, 234527, Note_on_c, 0, 76, 0
2, 234528, Note_on_c, 0, 67, 97
2, 234528, Note_on_c, 0, 76, 97
2, 234620, Note_on_c, 0, 60, 0
2, 234623, Note_on_c, 0, 76, 0
2, 234623, Note_on_c, 0, 67, 0
2, 234624, Note_on_c, 0, 61, 97
2, 234624, Note_on_c, 0, 69, 97
2, 234624, Note_on_c, 0, 78, 97
2, 234911, Note_on_c, 0, 78, 0
2, 234911, Note_on_c, 0, 69, 0
2, 234912, Note_on_c, 0, 71, 97
2, 234912, Note_on_c, 0, 79, 97
2, 235004, Note_on_c, 0, 61, 0
2, 235007, Note_on_c, 0, 79, 0
2, 235007, Note_on_c, 0, 71, 0
2, 235008, Note_on_c, 0, 69, 97
2, 235008, Note_on_c, 0, 62, 97
2, 235008, Note_on_c, 0, 78, 97
2, 235103, Note_on_c, 0, 78, 0
2, 235104, Note_on_c, 0, 79, 97
2, 235199, Note_on_c, 0, 79, 0
2, 235200, Note_on_c, 0, 81, 97
2, 235295, Note_on_c, 0, 81, 0
2, 235296, Note_on_c, 0, 78, 97
2, 235391, Note_on_c, 0, 78, 0
2, 235391, Note_on_c, 0, 69, 0
2, 235392, Note_on_c, 0, 50, 97
2, 235392, Note_on_c, 0, 74, 97
2, 235672, Note_on_c, 0, 50, 0
2, 235677, Note_on_c, 0, 62, 0
2, 235680, Note_on_c, 0, 69, 97
2, 235680, Note_on_c, 0, 66, 97
2, 235775, Note_on_c, 0, 66, 0
2, 235775, Note_on_c, 0, 69, 0
2, 235776, Note_on_c, 0, 66, 97
2, 235776, Note_on_c, 0, 62, 97
2, 236063, Note_on_c, 0, 62, 0
2, 236063, Note_on_c, 0, 66, 0
2, 236064, Note_on_c, 0, 64, 97
2, 236064, Note_on_c, 0, 67, 97
2, 236159, Note_on_c, 0, 67, 0
2, 236159, Note_on_c, 0, 64, 0
2, 236160, Note_on_c, 0, 69, 97
2, 236160, Note_on_c, 0, 66, 97
2, 236448, Note_on_c, 0, 50, 97
2, 236543, Note_on_c, 0, 50, 0
2, 236543, Note_on_c, 0, 66, 0
2, 236543, Note_on_c, 0, 69, 0
2, 236544, Note_on_c, 0, 48, 97
2, 236544, Note_on_c, 0, 69, 97
2, 236544, Note_on_c, 0, 66, 97
2, 236831, Note_on_c, 0, 48, 0
2, 236832, Note_on_c, 0, 47, 97
2, 236927, Note_on_c, 0, 47, 0
2, 236927, Note_on_c, 0, 66, 0
2, 236927, Note_on_c, 0, 69, 0
2, 236928, Note_on_c, 0, 45, 97
2, 236928, Note_on_c, 0, 67, 97
2, 236928, Note_on_c, 0, 71, 97
2, 237215, Note_on_c, 0, 71, 0
2, 237215, Note_on_c, 0, 67, 0
2, 237215, Note_on_c, 0, 45, 0
2, 237216, Note_on_c, 0, 43, 97
2, 237216, Note_on_c, 0, 72, 97
2, 237216, Note_on_c, 0, 69, 97
2, 237311, Note_on_c, 0, 69, 0
2, 237311, Note_on_c, 0, 72, 0
2, 237311, Note_on_c, 0, 43, 0
2, 237312, Note_on_c, 0, 50, 97
2, 237312, Note_on_c, 0, 71, 97
2, 237312, Note_on_c, 0, 67, 97
2, 237516, Note_on_c, 0, 66, 97
2, 237516, Note_on_c, 0, 69, 97
2, 237518, Note_on_c, 0, 67, 0
2, 237518, Note_on_c, 0, 71, 0
2, 237696, Note_on_c, 0, 38, 97
2, 237795, Note_on_c, 0, 74, 0
2, 237836, Note_on_c, 0, 69, 0
2, 237836, Note_on_c, 0, 66, 0
2, 237968, Note_on_c, 0, 69, 97
2, 237968, Note_on_c, 0, 78, 97
2, 238076, Note_on_c, 0, 38, 0
2, 238079, Note_on_c, 0, 50, 0
2, 238079, Note_on_c, 0, 69, 0
2, 238079, Note_on_c, 0, 78, 0
2, 238080, Note_on_c, 0, 74, 97
2, 238080, Note_on_c, 0, 66, 97
2, 238367, Note_on_c, 0, 66, 0
2, 238367, Note_on_c, 0, 74, 0
2, 238368, Note_on_c, 0, 67, 97
2, 238368, Note_on_c, 0, 76, 97
2, 238463, Note_on_c, 0, 76, 0
2, 238463, Note_on_c, 0, 67, 0
2, 238464, Note_on_c, 0, 69, 97
2, 238464, Note_on_c, 0, 78, 97
2, 238752, Note_on_c, 0, 64, 97
2, 238847, Note_on_c, 0, 64, 0
2, 238847, Note_on_c, 0, 78, 0
2, 238847, Note_on_c, 0, 69, 0
2, 238848, Note_on_c, 0, 62, 97
2, 238848, Note_on_c, 0, 81, 97
2, 238848, Note_on_c, 0, 71, 97
2, 239039, Note_on_c, 0, 81, 0
2, 239040, Note_on_c, 0, 80, 97
2, 239135, Note_on_c, 0, 62, 0
2, 239136, Note_on_c, 0, 60, 97
2, 239231, Note_on_c, 0, 60, 0
2, 239232, Note_on_c, 0, 59, 97
2, 239423, Note_on_c, 0, 80, 0
2, 239423, Note_on_c, 0, 71, 0
2, 239424, Note_on_c, 0, 81, 97
2, 239424, Note_on_c, 0, 72, 97
2, 239519, Note_on_c, 0, 59, 0
2, 239520, Note_on_c, 0, 57, 97
2, 239615, Note_on_c, 0, 57, 0
2, 239615, Note_on_c, 0, 72, 0
2, 239615, Note_on_c, 0, 81, 0
2, 239616, Note_on_c, 0, 56, 97
2, 239616, Note_on_c, 0, 74, 97
2, 239616, Note_on_c, 0, 83, 97
2, 239711, Note_on_c, 0, 83, 0
2, 239712, Note_on_c, 0, 77, 97
2, 239807, Note_on_c, 0, 77, 0
2, 239808, Note_on_c, 0, 76, 97
2, 239836, Note_on_c, 0, 74, 0
2, 239903, Note_on_c, 0, 76, 0
2, 239904, Note_on_c, 0, 74, 97
2, 239996, Note_on_c, 0, 56, 0
2, 239999, Note_on_c, 0, 74, 0
2, 240000, Note_on_c, 0, 76, 97
2, 240096, Note_on_c, 0, 74, 97
2, 240130, Note_on_c, 0, 76, 0
2, 240191, Note_on_c, 0, 74, 0
2, 240192, Note_on_c, 0, 72, 97
2, 240287, Note_on_c, 0, 72, 0
2, 240288, Note_on_c, 0, 71, 97
2, 240383, Note_on_c, 0, 71, 0
2, 240384, Note_on_c, 0, 69, 97
2, 240479, Note_on_c, 0, 69, 0
2, 240480, Note_on_c, 0, 68, 97
2, 240575, Note_on_c, 0, 68, 0
2, 240576, Note_on_c, 0, 66, 97
2, 240671, Note_on_c, 0, 66, 0
2, 240672, Note_on_c, 0, 64, 97
2, 240760, Note_on_c, 0, 64, 0
2, 240768, Note_on_c, 0, 74, 97
2, 240864, Note_on_c, 0, 72, 97
2, 240878, Note_on_c, 0, 74, 0
2, 240959, Note_on_c, 0, 72, 0
2, 240960, Note_on_c, 0, 71, 97
2, 241055, Note_on_c, 0, 71, 0
2, 241056, Note_on_c, 0, 52, 97
2, 241056, Note_on_c, 0, 74, 97
2, 241151, Note_on_c, 0, 74, 0
2, 241151, Note_on_c, 0, 52, 0
2, 241152, Note_on_c, 0, 57, 97
2, 241152, Note_on_c, 0, 72, 97
2, 241439, Note_on_c, 0, 57, 0
2, 241440, Note_on_c, 0, 55, 97
2, 241440, Note_on_c, 0, 64, 97
2, 241535, Note_on_c, 0, 64, 0
2, 241535, Note_on_c, 0, 55, 0
2, 241536, Note_on_c, 0, 54, 97
2, 241536, Note_on_c, 0, 69, 97
2, 241823, Note_on_c, 0, 69, 0
2, 241823, Note_on_c, 0, 54, 0
2, 241824, Note_on_c, 0, 52, 97
2, 241824, Note_on_c, 0, 67, 97
2, 241919, Note_on_c, 0, 67, 0
2, 241919, Note_on_c, 0, 52, 0
2, 241920, Note_on_c, 0, 50, 97
2, 241920, Note_on_c, 0, 66, 97
2, 241992, Note_on_c, 0, 72, 0
2, 242016, Note_on_c, 0, 71, 97
2, 242111, Note_on_c, 0, 71, 0
2, 242112, Note_on_c, 0, 69, 97
2, 242207, Note_on_c, 0, 69, 0
2, 242207, Note_on_c, 0, 50, 0
2, 242208, Note_on_c, 0, 43, 97
2, 242208, Note_on_c, 0, 72, 97
2, 242300, Note_on_c, 0, 66, 0
2, 242303, Note_on_c, 0, 72, 0
2, 242303, Note_on_c, 0, 43, 0
2, 242304, Note_on_c, 0, 55, 97
2, 242304, Note_on_c, 0, 71, 97
2, 242304, Note_on_c, 0, 67, 97
2, 242564, Note_on_c, 0, 67, 0
2, 242564, Note_on_c, 0, 71, 0
2, 242591, Note_on_c, 0, 55, 0
2, 242592, Note_on_c, 0, 66, 97
2, 242592, Note_on_c, 0, 76, 97
2, 242592, Note_on_c, 0, 72, 97
2, 242687, Note_on_c, 0, 72, 0
2, 242687, Note_on_c, 0, 76, 0
2, 242687, Note_on_c, 0, 66, 0
2, 242688, Note_on_c, 0, 67, 97
2, 242688, Note_on_c, 0, 74, 97
2, 242688, Note_on_c, 0, 71, 97
2, 242976, Note_on_c, 0, 57, 97
2, 243071, Note_on_c, 0, 57, 0
2, 243072, Note_on_c, 0, 59, 97
2, 243308, Note_on_c, 0, 67, 0
2, 243308, Note_on_c, 0, 71, 0
2, 243308, Note_on_c, 0, 74, 0
2, 243359, Note_on_c, 0, 59, 0
2, 243360, Note_on_c, 0, 60, 97
2, 243360, Note_on_c, 0, 64, 97
2, 243360, Note_on_c, 0, 72, 97
2, 243360, Note_on_c, 0, 69, 97
2, 243455, Note_on_c, 0, 69, 0
2, 243455, Note_on_c, 0, 60, 0
2, 243455, Note_on_c, 0, 64, 0
2, 243455, Note_on_c, 0, 72, 0
2, 243456, Note_on_c, 0, 62, 97
2, 243456, Note_on_c, 0, 71, 97
2, 243456, Note_on_c, 0, 67, 97
2, 243839, Note_on_c, 0, 67, 0
2, 243839, Note_on_c, 0, 71, 0
2, 243839, Note_on_c, 0, 62, 0
2, 243840, Note_on_c, 0, 50, 97
2, 243840, Note_on_c, 0, 60, 97
2, 243840, Note_on_c, 0, 71, 97
2, 243840, Note_on_c, 0, 66, 97
2, 243935, Note_on_c, 0, 71, 0
2, 243936, Note_on_c, 0, 69, 97
2, 243983, Note_on_c, 0, 69, 0
2, 243984, Note_on_c, 0, 71, 97
2, 244031, Note_on_c, 0, 71, 0
2, 244032, Note_on_c, 0, 69, 97
2, 244149, Note_on_c, 0, 69, 0
2, 244150, Note_on_c, 0, 67, 97
2, 244239, Note_on_c, 0, 67, 0
2, 244239, Note_on_c, 0, 50, 0
2, 244239, Note_on_c, 0, 60, 0
2, 244239, Note_on_c, 0, 66, 0
2, 244240, Note_on_c, 0, 43, 97
2, 244240, Note_on_c, 0, 55, 97
2, 244240, Note_on_c, 0, 67, 97
2, 244240, Note_on_c, 0, 59, 97
2, 244240, Note_on_c, 0, 62, 97
2, 245374, Note_on_c, 0, 62, 0
2, 245374, Note_on_c, 0, 67, 0
2, 245374, Note_on_c, 0, 43, 0
2, 245374, Note_on_c, 0, 55, 0
2, 245374, Note_on_c, 0, 59, 0
2, 247680, Note_on_c, 0, 62, 97
2, 247872, Note_on_c, 0, 55, 97
2, 247879, Note_on_c, 0, 62, 0
2, 247992, Note_on_c, 0, 55, 0
2, 248064, Note_on_c, 0, 59, 97
2, 248184, Note_on_c, 0, 59, 0
2, 248256, Note_on_c, 0, 67, 97
2, 248436, Note_on_c, 0, 67, 0
2, 248448, Note_on_c, 0, 59, 97
2, 248568, Note_on_c, 0, 59, 0
2, 248640, Note_on_c, 0, 62, 97
2, 248760, Note_on_c, 0, 62, 0
2, 248832, Note_on_c, 0, 71, 97
2, 249024, Note_on_c, 0, 62, 97
2, 249031, Note_on_c, 0, 71, 0
2, 249144, Note_on_c, 0, 62, 0
2, 249216, Note_on_c, 0, 67, 97
2, 249336, Note_on_c, 0, 67, 0
2, 249408, Note_on_c, 0, 74, 97
2, 249588, Note_on_c, 0, 74, 0
2, 249600, Note_on_c, 0, 67, 97
2, 249720, Note_on_c, 0, 67, 0
2, 249792, Note_on_c, 0, 71, 97
2, 249912, Note_on_c, 0, 71, 0
2, 249984, Note_on_c, 0, 79, 97
2, 250176, Note_on_c, 0, 71, 97
2, 250183, Note_on_c, 0, 79, 0
2, 250296, Note_on_c, 0, 71, 0
2, 250368, Note_on_c, 0, 74, 97
2, 250488, Note_on_c, 0, 74, 0
2, 250560, Note_on_c, 0, 83, 97
2, 250740, Note_on_c, 0, 83, 0
2, 250752, Note_on_c, 0, 74, 97
2, 250872, Note_on_c, 0, 74, 0
2, 250944, Note_on_c, 0, 79, 97
2, 251064, Note_on_c, 0, 79, 0
2, 251136, Note_on_c, 0, 84, 97
2, 251136, Note_on_c, 0, 79, 97
2, 251226, Note_on_c, 0, 83, 97
2, 251231, Note_on_c, 0, 84, 0
2, 251317, Note_on_c, 0, 84, 97
2, 251317, Note_on_c, 0, 74, 97
2, 251321, Note_on_c, 0, 83, 0
2, 251407, Note_on_c, 0, 83, 97
2, 251412, Note_on_c, 0, 84, 0
2, 251437, Note_on_c, 0, 74, 0
2, 251498, Note_on_c, 0, 84, 97
2, 251498, Note_on_c, 0, 73, 97
2, 251502, Note_on_c, 0, 83, 0
2, 251588, Note_on_c, 0, 83, 97
2, 251593, Note_on_c, 0, 84, 0
2, 251618, Note_on_c, 0, 73, 0
2, 251679, Note_on_c, 0, 84, 97
2, 251679, Note_on_c, 0, 74, 97
2, 251683, Note_on_c, 0, 83, 0
2, 251769, Note_on_c, 0, 83, 97
2, 251774, Note_on_c, 0, 84, 0
2, 251799, Note_on_c, 0, 74, 0
2, 251860, Note_on_c, 0, 78, 97
2, 251860, Note_on_c, 0, 81, 97
2, 251860, Note_on_c, 0, 62, 97
2, 251864, Note_on_c, 0, 83, 0
2, 251903, Note_on_c, 0, 79, 0
2, 252140, Note_on_c, 0, 81, 0
2, 252140, Note_on_c, 0, 62, 0
2, 252240, Note_on_c, 0, 78, 0
2, 252288, Note_on_c, 0, 83, 97
2, 252480, Note_on_c, 0, 74, 97
2, 252487, Note_on_c, 0, 83, 0
2, 252600, Note_on_c, 0, 74, 0
2, 252672, Note_on_c, 0, 79, 97
2, 252792, Note_on_c, 0, 79, 0
2, 252864, Note_on_c, 0, 76, 97
2, 253044, Note_on_c, 0, 76, 0
2, 253056, Note_on_c, 0, 67, 97
2, 253176, Note_on_c, 0, 67, 0
2, 253248, Note_on_c, 0, 71, 97
2, 253368, Note_on_c, 0, 71, 0
2, 253440, Note_on_c, 0, 81, 97
2, 253632, Note_on_c, 0, 73, 97
2, 253639, Note_on_c, 0, 81, 0
2, 253752, Note_on_c, 0, 73, 0
2, 253824, Note_on_c, 0, 76, 97
2, 253944, Note_on_c, 0, 76, 0
2, 254016, Note_on_c, 0, 74, 97
2, 254196, Note_on_c, 0, 74, 0
2, 254208, Note_on_c, 0, 66, 97
2, 254328, Note_on_c, 0, 66, 0
2, 254400, Note_on_c, 0, 69, 97
2, 254520, Note_on_c, 0, 69, 0
2, 254592, Note_on_c, 0, 79, 97
2, 254784, Note_on_c, 0, 71, 97
2, 254791, Note_on_c, 0, 79, 0
2, 254904, Note_on_c, 0, 71, 0
2, 254976, Note_on_c, 0, 74, 97
2, 255096, Note_on_c, 0, 74, 0
2, 255168, Note_on_c, 0, 73, 97
2, 255348, Note_on_c, 0, 73, 0
2, 255360, Note_on_c, 0, 64, 97
2, 255480, Note_on_c, 0, 64, 0
2, 255552, Note_on_c, 0, 67, 97
2, 255672, Note_on_c, 0, 67, 0
2, 255744, Note_on_c, 0, 78, 97
2, 255936, Note_on_c, 0, 69, 97
2, 255943, Note_on_c, 0, 78, 0
2, 256056, Note_on_c, 0, 69, 0
2, 256128, Note_on_c, 0, 73, 97
2, 256248, Note_on_c, 0, 73, 0
2, 256320, Note_on_c, 0, 71, 97
2, 256500, Note_on_c, 0, 71, 0
2, 256512, Note_on_c, 0, 62, 97
2, 256632, Note_on_c, 0, 62, 0
2, 256704, Note_on_c, 0, 66, 97
2, 256824, Note_on_c, 0, 66, 0
2, 256896, Note_on_c, 0, 76, 97
2, 257088, Note_on_c, 0, 67, 97
2, 257095, Note_on_c, 0, 76, 0
2, 257208, Note_on_c, 0, 67, 0
2, 257280, Note_on_c, 0, 71, 97
2, 257400, Note_on_c, 0, 71, 0
2, 257472, Note_on_c, 0, 69, 97
2, 257652, Note_on_c, 0, 69, 0
2, 257664, Note_on_c, 0, 61, 97
2, 257784, Note_on_c, 0, 61, 0
2, 257856, Note_on_c, 0, 64, 97
2, 257976, Note_on_c, 0, 64, 0
2, 258048, Note_on_c, 0, 74, 97
2, 258240, Note_on_c, 0, 66, 97
2, 258247, Note_on_c, 0, 74, 0
2, 258360, Note_on_c, 0, 66, 0
2, 258432, Note_on_c, 0, 69, 97
2, 258552, Note_on_c, 0, 69, 0
2, 258624, Note_on_c, 0, 67, 97
2, 258804, Note_on_c, 0, 67, 0
2, 258816, Note_on_c, 0, 59, 97
2, 258936, Note_on_c, 0, 59, 0
2, 259008, Note_on_c, 0, 62, 97
2, 259128, Note_on_c, 0, 62, 0
2, 259200, Note_on_c, 0, 55, 97
2, 259569, Note_on_c, 0, 64, 97
2, 259569, Note_on_c, 0, 74, 97
2, 259580, Note_on_c, 0, 55, 0
2, 259921, Note_on_c, 0, 74, 0
2, 259921, Note_on_c, 0, 64, 0
2, 259938, Note_on_c, 0, 67, 97
2, 259938, Note_on_c, 0, 57, 97
2, 259938, Note_on_c, 0, 73, 97
2, 260290, Note_on_c, 0, 73, 0
2, 260290, Note_on_c, 0, 67, 0
2, 260307, Note_on_c, 0, 73, 97
2, 260307, Note_on_c, 0, 67, 97
2, 260307, Note_on_c, 0, 62, 97
2, 260318, Note_on_c, 0, 57, 0
2, 260716, Note_on_c, 0, 74, 97
2, 260716, Note_on_c, 0, 66, 97
2, 260727, Note_on_c, 0, 73, 0
2, 260727, Note_on_c, 0, 67, 0
2, 261156, Note_on_c, 0, 66, 0
2, 261156, Note_on_c, 0, 74, 0
2, 261307, Note_on_c, 0, 62, 0
2, 261504, Note_on_c, 0, 57, 97
2, 261696, Note_on_c, 0, 50, 97
2, 261703, Note_on_c, 0, 57, 0
2, 261816, Note_on_c, 0, 50, 0
2, 261888, Note_on_c, 0, 54, 97
2, 262008, Note_on_c, 0, 54, 0
2, 262080, Note_on_c, 0, 62, 97
2, 262260, Note_on_c, 0, 62, 0
2, 262272, Note_on_c, 0, 54, 97
2, 262392, Note_on_c, 0, 54, 0
2, 262464, Note_on_c, 0, 57, 97
2, 262584, Note_on_c, 0, 57, 0
2, 262656, Note_on_c, 0, 66, 97
2, 262848, Note_on_c, 0, 57, 97
2, 262855, Note_on_c, 0, 66, 0
2, 262968, Note_on_c, 0, 57, 0
2, 263040, Note_on_c, 0, 62, 97
2, 263160, Note_on_c, 0, 62, 0
2, 263232, Note_on_c, 0, 69, 97
2, 263412, Note_on_c, 0, 69, 0
2, 263424, Note_on_c, 0, 62, 97
2, 263544, Note_on_c, 0, 62, 0
2, 263616, Note_on_c, 0, 66, 97
2, 263736, Note_on_c, 0, 66, 0
2, 263808, Note_on_c, 0, 72, 97
2, 264000, Note_on_c, 0, 66, 97
2, 264007, Note_on_c, 0, 72, 0
2, 264120, Note_on_c, 0, 66, 0
2, 264192, Note_on_c, 0, 69, 97
2, 264312, Note_on_c, 0, 69, 0
2, 264384, Note_on_c, 0, 75, 97
2, 264564, Note_on_c, 0, 75, 0
2, 264576, Note_on_c, 0, 69, 97
2, 264696, Note_on_c, 0, 69, 0
2, 264768, Note_on_c, 0, 72, 97
2, 264960, Note_on_c, 0, 78, 97
2, 264960, Note_on_c, 0, 63, 97
2, 265322, Note_on_c, 0, 71, 97
2, 265343, Note_on_c, 0, 72, 0
2, 265442, Note_on_c, 0, 71, 0
2, 265503, Note_on_c, 0, 79, 97
2, 265535, Note_on_c, 0, 78, 0
2, 265593, Note_on_c, 0, 81, 97
2, 265598, Note_on_c, 0, 79, 0
2, 265657, Note_on_c, 0, 81, 0
2, 265684, Note_on_c, 0, 79, 97
2, 265684, Note_on_c, 0, 64, 97
2, 265727, Note_on_c, 0, 63, 0
2, 265964, Note_on_c, 0, 79, 0
2, 266064, Note_on_c, 0, 64, 0
2, 266112, Note_on_c, 0, 59, 97
2, 266304, Note_on_c, 0, 52, 97
2, 266311, Note_on_c, 0, 59, 0
2, 266424, Note_on_c, 0, 52, 0
2, 266496, Note_on_c, 0, 55, 97
2, 266616, Note_on_c, 0, 55, 0
2, 266688, Note_on_c, 0, 64, 97
2, 266868, Note_on_c, 0, 64, 0
2, 266880, Note_on_c, 0, 55, 97
2, 267000, Note_on_c, 0, 55, 0
2, 267072, Note_on_c, 0, 59, 97
2, 267192, Note_on_c, 0, 59, 0
2, 267264, Note_on_c, 0, 67, 97
2, 267456, Note_on_c, 0, 59, 97
2, 267463, Note_on_c, 0, 67, 0
2, 267576, Note_on_c, 0, 59, 0
2, 267648, Note_on_c, 0, 64, 97
2, 267768, Note_on_c, 0, 64, 0
2, 267840, Note_on_c, 0, 71, 97
2, 268020, Note_on_c, 0, 71, 0
2, 268032, Note_on_c, 0, 64, 97
2, 268152, Note_on_c, 0, 64, 0
2, 268224, Note_on_c, 0, 67, 97
2, 268344, Note_on_c, 0, 67, 0
2, 268416, Note_on_c, 0, 74, 97
2, 268608, Note_on_c, 0, 68, 97
2, 268615, Note_on_c, 0, 74, 0
2, 268728, Note_on_c, 0, 68, 0
2, 268800, Note_on_c, 0, 71, 97
2, 268920, Note_on_c, 0, 71, 0
2, 268992, Note_on_c, 0, 77, 97
2, 269172, Note_on_c, 0, 77, 0
2, 269184, Note_on_c, 0, 71, 97
2, 269304, Note_on_c, 0, 71, 0
2, 269376, Note_on_c, 0, 74, 97
2, 269568, Note_on_c, 0, 80, 97
2, 269568, Note_on_c, 0, 64, 97
2, 269750, Note_on_c, 0, 81, 97
2, 269767, Note_on_c, 0, 80, 0
2, 269870, Note_on_c, 0, 81, 0
2, 269920, Note_on_c, 0, 64, 0
2, 269932, Note_on_c, 0, 68, 97
2, 269932, Note_on_c, 0, 83, 97
2, 270104, Note_on_c, 0, 74, 0
2, 270114, Note_on_c, 0, 74, 97
2, 270122, Note_on_c, 0, 83, 0
2, 270284, Note_on_c, 0, 68, 0
2, 270288, Note_on_c, 0, 72, 97
2, 270288, Note_on_c, 0, 57, 97
2, 270288, Note_on_c, 0, 69, 97
2, 270294, Note_on_c, 0, 74, 0
2, 270568, Note_on_c, 0, 72, 0
2, 270568, Note_on_c, 0, 57, 0
2, 270668, Note_on_c, 0, 69, 0
2, 270720, Note_on_c, 0, 78, 97
2, 270912, Note_on_c, 0, 69, 97
2, 270919, Note_on_c, 0, 78, 0
2, 271032, Note_on_c, 0, 69, 0
2, 271104, Note_on_c, 0, 72, 97
2, 271224, Note_on_c, 0, 72, 0
2, 271296, Note_on_c, 0, 71, 97
2, 271476, Note_on_c, 0, 71, 0
2, 271488, Note_on_c, 0, 63, 97
2, 271608, Note_on_c, 0, 63, 0
2, 271680, Note_on_c, 0, 66, 97
2, 271800, Note_on_c, 0, 66, 0
2, 271872, Note_on_c, 0, 79, 97
2, 272064, Note_on_c, 0, 71, 97
2, 272071, Note_on_c, 0, 79, 0
2, 272184, Note_on_c, 0, 71, 0
2, 272256, Note_on_c, 0, 76, 97
2, 272376, Note_on_c, 0, 76, 0
2, 272448, Note_on_c, 0, 70, 97
2, 272628, Note_on_c, 0, 70, 0
2, 272640, Note_on_c, 0, 61, 97
2, 272760, Note_on_c, 0, 61, 0
2, 272832, Note_on_c, 0, 64, 97
2, 272952, Note_on_c, 0, 64, 0
2, 273024, Note_on_c, 0, 78, 97
2, 273216, Note_on_c, 0, 69, 97
2, 273223, Note_on_c, 0, 78, 0
2, 273336, Note_on_c, 0, 69, 0
2, 273408, Note_on_c, 0, 72, 97
2, 273528, Note_on_c, 0, 72, 0
2, 273600, Note_on_c, 0, 71, 97
2, 273780, Note_on_c, 0, 71, 0
2, 273792, Note_on_c, 0, 63, 97
2, 273912, Note_on_c, 0, 63, 0
2, 273984, Note_on_c, 0, 66, 97
2, 274104, Note_on_c, 0, 66, 0
2, 274176, Note_on_c, 0, 81, 97
2, 274368, Note_on_c, 0, 72, 97
2, 274375, Note_on_c, 0, 81, 0
2, 274488, Note_on_c, 0, 72, 0
2, 274560, Note_on_c, 0, 76, 97
2, 274680, Note_on_c, 0, 76, 0
2, 274752, Note_on_c, 0, 75, 97
2, 274932, Note_on_c, 0, 75, 0
2, 274944, Note_on_c, 0, 66, 97
2, 275064, Note_on_c, 0, 66, 0
2, 275136, Note_on_c, 0, 69, 97
2, 275256, Note_on_c, 0, 69, 0
2, 275328, Note_on_c, 0, 79, 97
2, 275520, Note_on_c, 0, 71, 97
2, 275527, Note_on_c, 0, 79, 0
2, 275640, Note_on_c, 0, 71, 0
2, 275712, Note_on_c, 0, 74, 97
2, 275832, Note_on_c, 0, 74, 0
2, 275904, Note_on_c, 0, 72, 97
2, 276084, Note_on_c, 0, 72, 0
2, 276096, Note_on_c, 0, 64, 97
2, 276216, Note_on_c, 0, 64, 0
2, 276288, Note_on_c, 0, 67, 97
2, 276408, Note_on_c, 0, 67, 0
2, 276480, Note_on_c, 0, 78, 97
2, 276672, Note_on_c, 0, 69, 97
2, 276679, Note_on_c, 0, 78, 0
2, 276792, Note_on_c, 0, 69, 0
2, 276864, Note_on_c, 0, 72, 97
2, 276984, Note_on_c, 0, 72, 0
2, 277056, Note_on_c, 0, 71, 97
2, 277236, Note_on_c, 0, 71, 0
2, 277248, Note_on_c, 0, 62, 97
2, 277368, Note_on_c, 0, 62, 0
2, 277440, Note_on_c, 0, 66, 97
2, 277560, Note_on_c, 0, 66, 0
2, 277632, Note_on_c, 0, 76, 97
2, 277824, Note_on_c, 0, 67, 97
2, 277831, Note_on_c, 0, 76, 0
2, 277944, Note_on_c, 0, 67, 0
2, 278016, Note_on_c, 0, 71, 97
2, 278136, Note_on_c, 0, 71, 0
2, 278208, Note_on_c, 0, 69, 97
2, 278388, Note_on_c, 0, 69, 0
2, 278400, Note_on_c, 0, 60, 97
2, 278520, Note_on_c, 0, 60, 0
2, 278592, Note_on_c, 0, 64, 97
2, 278712, Note_on_c, 0, 64, 0
2, 278784, Note_on_c, 0, 75, 97
2, 278976, Note_on_c, 0, 66, 97
2, 278983, Note_on_c, 0, 75, 0
2, 279096, Note_on_c, 0, 66, 0
2, 279168, Note_on_c, 0, 69, 97
2, 279288, Note_on_c, 0, 69, 0
2, 279360, Note_on_c, 0, 63, 97
2, 279540, Note_on_c, 0, 63, 0
2, 279552, Note_on_c, 0, 66, 97
2, 279672, Note_on_c, 0, 66, 0
2, 279744, Note_on_c, 0, 69, 97
2, 279864, Note_on_c, 0, 69, 0
2, 279936, Note_on_c, 0, 72, 97
2, 280128, Note_on_c, 0, 66, 97
2, 280135, Note_on_c, 0, 72, 0
2, 280248, Note_on_c, 0, 66, 0
2, 280320, Note_on_c, 0, 69, 97
2, 280440, Note_on_c, 0, 69, 0
2, 280512, Note_on_c, 0, 75, 97
2, 280692, Note_on_c, 0, 75, 0
2, 280704, Note_on_c, 0, 69, 97
2, 280824, Note_on_c, 0, 69, 0
2, 280896, Note_on_c, 0, 72, 97
2, 281016, Note_on_c, 0, 72, 0
2, 281088, Note_on_c, 0, 78, 97
2, 281280, Note_on_c, 0, 72, 97
2, 281287, Note_on_c, 0, 78, 0
2, 281400, Note_on_c, 0, 72, 0
2, 281472, Note_on_c, 0, 75, 97
2, 281592, Note_on_c, 0, 75, 0
2, 281664, Note_on_c, 0, 81, 97
2, 281844, Note_on_c, 0, 81, 0
2, 281856, Note_on_c, 0, 75, 97
2, 281976, Note_on_c, 0, 75, 0
2, 282048, Note_on_c, 0, 78, 97
2, 282168, Note_on_c, 0, 78, 0
2, 282240, Note_on_c, 0, 76, 97
2, 282240, Note_on_c, 0, 79, 97
2, 282592, Note_on_c, 0, 79, 0
2, 282592, Note_on_c, 0, 76, 0
2, 282609, Note_on_c, 0, 55, 97
2, 282609, Note_on_c, 0, 71, 97
2, 282609, Note_on_c, 0, 76, 97
2, 282961, Note_on_c, 0, 76, 0
2, 282961, Note_on_c, 0, 71, 0
2, 282961, Note_on_c, 0, 55, 0
2, 282978, Note_on_c, 0, 59, 97
2, 282978, Note_on_c, 0, 75, 97
2, 282978, Note_on_c, 0, 69, 97
2, 283330, Note_on_c, 0, 69, 0
2, 283330, Note_on_c, 0, 75, 0
2, 283330, Note_on_c, 0, 59, 0
2, 283347, Note_on_c, 0, 64, 97
2, 283347, Note_on_c, 0, 75, 97
2, 283347, Note_on_c, 0, 69, 97
2, 283714, Note_on_c, 0, 67, 97
2, 283714, Note_on_c, 0, 76, 97
2, 283719, Note_on_c, 0, 69, 0
2, 283719, Note_on_c, 0, 75, 0
2, 283834, Note_on_c, 0, 67, 0
2, 283922, Note_on_c, 0, 64, 0
2, 283992, Note_on_c, 0, 62, 97
2, 284066, Note_on_c, 0, 76, 0
2, 284112, Note_on_c, 0, 62, 0
2, 284176, Note_on_c, 0, 61, 97
2, 284296, Note_on_c, 0, 61, 0
2, 284360, Note_on_c, 0, 59, 97
2, 284480, Note_on_c, 0, 59, 0
2, 284544, Note_on_c, 0, 57, 97
2, 284736, Note_on_c, 0, 64, 97
2, 284743, Note_on_c, 0, 57, 0
2, 284856, Note_on_c, 0, 64, 0
2, 284928, Note_on_c, 0, 61, 97
2, 285048, Note_on_c, 0, 61, 0
2, 285120, Note_on_c, 0, 67, 97
2, 285300, Note_on_c, 0, 67, 0
2, 285312, Note_on_c, 0, 64, 97
2, 285432, Note_on_c, 0, 64, 0
2, 285504, Note_on_c, 0, 61, 97
2, 285624, Note_on_c, 0, 61, 0
2, 285696, Note_on_c, 0, 57, 97
2, 285888, Note_on_c, 0, 66, 97
2, 285895, Note_on_c, 0, 57, 0
2, 286008, Note_on_c, 0, 66, 0
2, 286080, Note_on_c, 0, 62, 97
2, 286200, Note_on_c, 0, 62, 0
2, 286272, Note_on_c, 0, 69, 97
2, 286452, Note_on_c, 0, 69, 0
2, 286464, Note_on_c, 0, 66, 97
2, 286584, Note_on_c, 0, 66, 0
2, 286656, Note_on_c, 0, 62, 97
2, 286776, Note_on_c, 0, 62, 0
2, 286848, Note_on_c, 0, 57, 97
2, 287040, Note_on_c, 0, 64, 97
2, 287047, Note_on_c, 0, 57, 0
2, 287160, Note_on_c, 0, 64, 0
2, 287232, Note_on_c, 0, 61, 97
2, 287352, Note_on_c, 0, 61, 0
2, 287424, Note_on_c, 0, 67, 97
2, 287604, Note_on_c, 0, 67, 0
2, 287616, Note_on_c, 0, 64, 97
2, 287736, Note_on_c, 0, 64, 0
2, 287808, Note_on_c, 0, 61, 97
2, 287928, Note_on_c, 0, 61, 0
2, 288000, Note_on_c, 0, 57, 97
2, 288192, Note_on_c, 0, 66, 97
2, 288199, Note_on_c, 0, 57, 0
2, 288312, Note_on_c, 0, 66, 0
2, 288384, Note_on_c, 0, 62, 97
2, 288504, Note_on_c, 0, 62, 0
2, 288576, Note_on_c, 0, 69, 97
2, 288696, Note_on_c, 0, 69, 0
2, 288768, Note_on_c, 0, 66, 97
2, 288888, Note_on_c, 0, 66, 0
2, 288960, Note_on_c, 0, 62, 97
2, 289080, Note_on_c, 0, 62, 0
2, 289152, Note_on_c, 0, 55, 97
2, 289344, Note_on_c, 0, 62, 97
2, 289351, Note_on_c, 0, 55, 0
2, 289464, Note_on_c, 0, 62, 0
2, 289536, Note_on_c, 0, 59, 97
2, 289656, Note_on_c, 0, 59, 0
2, 289728, Note_on_c, 0, 65, 97
2, 289908, Note_on_c, 0, 65, 0
2, 289920, Note_on_c, 0, 62, 97
2, 290040, Note_on_c, 0, 62, 0
2, 290112, Note_on_c, 0, 59, 97
2, 290232, Note_on_c, 0, 59, 0
2, 290304, Note_on_c, 0, 55, 97
2, 290496, Note_on_c, 0, 64, 97
2, 290503, Note_on_c, 0, 55, 0
2, 290616, Note_on_c, 0, 64, 0
2, 290688, Note_on_c, 0, 60, 97
2, 290808, Note_on_c, 0, 60, 0
2, 290880, Note_on_c, 0, 67, 97
2, 291060, Note_on_c, 0, 67, 0
2, 291072, Note_on_c, 0, 64, 97
2, 291192, Note_on_c, 0, 64, 0
2, 291264, Note_on_c, 0, 60, 97
2, 291384, Note_on_c, 0, 60, 0
2, 291456, Note_on_c, 0, 55, 97
2, 291648, Note_on_c, 0, 62, 97
2, 291655, Note_on_c, 0, 55, 0
2, 291768, Note_on_c, 0, 62, 0
2, 291840, Note_on_c, 0, 59, 97
2, 291960, Note_on_c, 0, 59, 0
2, 292032, Note_on_c, 0, 65, 97
2, 292212, Note_on_c, 0, 65, 0
2, 292224, Note_on_c, 0, 62, 97
2, 292344, Note_on_c, 0, 62, 0
2, 292416, Note_on_c, 0, 59, 97
2, 292536, Note_on_c, 0, 59, 0
2, 292608, Note_on_c, 0, 55, 97
2, 292800, Note_on_c, 0, 64, 97
2, 292807, Note_on_c, 0, 55, 0
2, 292920, Note_on_c, 0, 64, 0
2, 292992, Note_on_c, 0, 60, 97
2, 293112, Note_on_c, 0, 60, 0
2, 293184, Note_on_c, 0, 67, 97
2, 293304, Note_on_c, 0, 67, 0
2, 293376, Note_on_c, 0, 64, 97
2, 293496, Note_on_c, 0, 64, 0
2, 293568, Note_on_c, 0, 60, 97
2, 293688, Note_on_c, 0, 60, 0
2, 293760, Note_on_c, 0, 48, 97
2, 293760, Note_on_c, 0, 66, 97
2, 293952, Note_on_c, 0, 64, 97
2, 293959, Note_on_c, 0, 66, 0
2, 293959, Note_on_c, 0, 48, 0
2, 294072, Note_on_c, 0, 64, 0
2, 294144, Note_on_c, 0, 54, 97
2, 294144, Note_on_c, 0, 62, 97
2, 294264, Note_on_c, 0, 62, 0
2, 294264, Note_on_c, 0, 54, 0
2, 294336, Note_on_c, 0, 69, 97
2, 294456, Note_on_c, 0, 69, 0
2, 294528, Note_on_c, 0, 57, 97
2, 294528, Note_on_c, 0, 66, 97
2, 294648, Note_on_c, 0, 66, 0
2, 294648, Note_on_c, 0, 57, 0
2, 294720, Note_on_c, 0, 64, 97
2, 294840, Note_on_c, 0, 64, 0
2, 294912, Note_on_c, 0, 62, 97
2, 294912, Note_on_c, 0, 54, 97
2, 295104, Note_on_c, 0, 57, 97
2, 295111, Note_on_c, 0, 54, 0
2, 295111, Note_on_c, 0, 62, 0
2, 295224, Note_on_c, 0, 57, 0
2, 295296, Note_on_c, 0, 50, 97
2, 295296, Note_on_c, 0, 62, 97
2, 295416, Note_on_c, 0, 62, 0
2, 295416, Note_on_c, 0, 50, 0
2, 295488, Note_on_c, 0, 66, 97
2, 295608, Note_on_c, 0, 66, 0
2, 295680, Note_on_c, 0, 48, 97
2, 295680, Note_on_c, 0, 62, 97
2, 295800, Note_on_c, 0, 62, 0
2, 295800, Note_on_c, 0, 48, 0
2, 295872, Note_on_c, 0, 66, 97
2, 295992, Note_on_c, 0, 66, 0
2, 296064, Note_on_c, 0, 47, 97
2, 296064, Note_on_c, 0, 67, 97
2, 296256, Note_on_c, 0, 62, 97
2, 296263, Note_on_c, 0, 67, 0
2, 296263, Note_on_c, 0, 47, 0
2, 296376, Note_on_c, 0, 62, 0
2, 296448, Note_on_c, 0, 50, 97
2, 296448, Note_on_c, 0, 67, 97
2, 296568, Note_on_c, 0, 67, 0
2, 296568, Note_on_c, 0, 50, 0
2, 296640, Note_on_c, 0, 71, 97
2, 296760, Note_on_c, 0, 71, 0
2, 296832, Note_on_c, 0, 67, 97
2, 296832, Note_on_c, 0, 55, 97
2, 296952, Note_on_c, 0, 55, 0
2, 296952, Note_on_c, 0, 67, 0
2, 297024, Note_on_c, 0, 71, 97
2, 297144, Note_on_c, 0, 71, 0
2, 297216, Note_on_c, 0, 74, 97
2, 297216, Note_on_c, 0, 59, 97
2, 297406, Note_on_c, 0, 59, 0
2, 297408, Note_on_c, 0, 71, 97
2, 297415, Note_on_c, 0, 74, 0
2, 297528, Note_on_c, 0, 71, 0
2, 297600, Note_on_c, 0, 62, 97
2, 297600, Note_on_c, 0, 67, 97
2, 297680, Note_on_c, 0, 62, 0
2, 297720, Note_on_c, 0, 67, 0
2, 297792, Note_on_c, 0, 77, 97
2, 297912, Note_on_c, 0, 77, 0
2, 297984, Note_on_c, 0, 67, 97
2, 297984, Note_on_c, 0, 74, 97
2, 298034, Note_on_c, 0, 67, 0
2, 298104, Note_on_c, 0, 74, 0
2, 298176, Note_on_c, 0, 71, 97
2, 298296, Note_on_c, 0, 71, 0
2, 298368, Note_on_c, 0, 76, 97
2, 298560, Note_on_c, 0, 67, 97
2, 298567, Note_on_c, 0, 76, 0
2, 298680, Note_on_c, 0, 67, 0
2, 298752, Note_on_c, 0, 71, 97
2, 298872, Note_on_c, 0, 71, 0
2, 298944, Note_on_c, 0, 69, 97
2, 299124, Note_on_c, 0, 69, 0
2, 299136, Note_on_c, 0, 60, 97
2, 299256, Note_on_c, 0, 60, 0
2, 299328, Note_on_c, 0, 64, 97
2, 299448, Note_on_c, 0, 64, 0
2, 299520, Note_on_c, 0, 74, 97
2, 299712, Note_on_c, 0, 66, 97
2, 299719, Note_on_c, 0, 74, 0
2, 299832, Note_on_c, 0, 66, 0
2, 299904, Note_on_c, 0, 69, 97
2, 300024, Note_on_c, 0, 69, 0
2, 300096, Note_on_c, 0, 67, 97
2, 300276, Note_on_c, 0, 67, 0
2, 300288, Note_on_c, 0, 59, 97
2, 300408, Note_on_c, 0, 59, 0
2, 300480, Note_on_c, 0, 62, 97
2, 300600, Note_on_c, 0, 62, 0
2, 300672, Note_on_c, 0, 72, 97
2, 300864, Note_on_c, 0, 64, 97
2, 300871, Note_on_c, 0, 72, 0
2, 300984, Note_on_c, 0, 64, 0
2, 301056, Note_on_c, 0, 67, 97
2, 301176, Note_on_c, 0, 67, 0
2, 301248, Note_on_c, 0, 66, 97
2, 301428, Note_on_c, 0, 66, 0
2, 301440, Note_on_c, 0, 57, 97
2, 301560, Note_on_c, 0, 57, 0
2, 301632, Note_on_c, 0, 60, 97
2, 301752, Note_on_c, 0, 60, 0
2, 301824, Note_on_c, 0, 71, 97
2, 302016, Note_on_c, 0, 62, 97
2, 302023, Note_on_c, 0, 71, 0
2, 302136, Note_on_c, 0, 62, 0
2, 302208, Note_on_c, 0, 66, 97
2, 302328, Note_on_c, 0, 66, 0
2, 302400, Note_on_c, 0, 64, 97
2, 302580, Note_on_c, 0, 64, 0
2, 302592, Note_on_c, 0, 55, 97
2, 302712, Note_on_c, 0, 55, 0
2, 302784, Note_on_c, 0, 59, 97
2, 302904, Note_on_c, 0, 59, 0
2, 302976, Note_on_c, 0, 69, 97
2, 303168, Note_on_c, 0, 60, 97
2, 303175, Note_on_c, 0, 69, 0
2, 303288, Note_on_c, 0, 60, 0
2, 303360, Note_on_c, 0, 64, 97
2, 303480, Note_on_c, 0, 64, 0
2, 303552, Note_on_c, 0, 62, 97
2, 303732, Note_on_c, 0, 62, 0
2, 303744, Note_on_c, 0, 54, 97
2, 303864, Note_on_c, 0, 54, 0
2, 303936, Note_on_c, 0, 57, 97
2, 304056, Note_on_c, 0, 57, 0
2, 304128, Note_on_c, 0, 67, 97
2, 304320, Note_on_c, 0, 59, 97
2, 304327, Note_on_c, 0, 67, 0
2, 304440, Note_on_c, 0, 59, 0
2, 304512, Note_on_c, 0, 62, 97
2, 304632, Note_on_c, 0, 62, 0
2, 304704, Note_on_c, 0, 60, 97
2, 304884, Note_on_c, 0, 60, 0
2, 304896, Note_on_c, 0, 52, 97
2, 305016, Note_on_c, 0, 52, 0
2, 305088, Note_on_c, 0, 55, 97
2, 305208, Note_on_c, 0, 55, 0
2, 305280, Note_on_c, 0, 48, 97
2, 305632, Note_on_c, 0, 48, 0
2, 305664, Note_on_c, 0, 69, 97
2, 305664, Note_on_c, 0, 79, 97
2, 305944, Note_on_c, 0, 79, 0
2, 305944, Note_on_c, 0, 69, 0
2, 306048, Note_on_c, 0, 50, 97
2, 306048, Note_on_c, 0, 78, 97
2, 306048, Note_on_c, 0, 72, 97
2, 306328, Note_on_c, 0, 72, 0
2, 306328, Note_on_c, 0, 78, 0
2, 306400, Note_on_c, 0, 50, 0
2, 306432, Note_on_c, 0, 72, 97
2, 306432, Note_on_c, 0, 78, 97
2, 306432, Note_on_c, 0, 43, 97
2, 307172, Note_on_c, 0, 78, 0
2, 307172, Note_on_c, 0, 72, 0
2, 307178, Note_on_c, 0, 71, 97
2, 307178, Note_on_c, 0, 79, 97
2, 307482, Note_on_c, 0, 43, 0
2, 307678, Note_on_c, 0, 71, 0
2, 307688, Note_on_c, 0, 79, 0
2, 310272, Note_on_c, 0, 43, 97
2, 310272, Note_on_c, 0, 62, 97
2, 310456, Note_on_c, 0, 43, 0
2, 310463, Note_on_c, 0, 62, 0
2, 310464, Note_on_c, 0, 55, 97
2, 310464, Note_on_c, 0, 67, 97
2, 310511, Note_on_c, 0, 67, 0
2, 310512, Note_on_c, 0, 66, 97
2, 310559, Note_on_c, 0, 66, 0
2, 310560, Note_on_c, 0, 67, 97
2, 310656, Note_on_c, 0, 59, 97
2, 310847, Note_on_c, 0, 67, 0
2, 310848, Note_on_c, 0, 64, 97
2, 310848, Note_on_c, 0, 67, 97
2, 310911, Note_on_c, 0, 67, 0
2, 310912, Note_on_c, 0, 69, 97
2, 310975, Note_on_c, 0, 69, 0
2, 310976, Note_on_c, 0, 71, 97
2, 311038, Note_on_c, 0, 71, 0
2, 311039, Note_on_c, 0, 55, 0
2, 311039, Note_on_c, 0, 59, 0
2, 311040, Note_on_c, 0, 54, 97
2, 311040, Note_on_c, 0, 71, 97
2, 311224, Note_on_c, 0, 64, 0
2, 311231, Note_on_c, 0, 71, 0
2, 311232, Note_on_c, 0, 62, 97
2, 311232, Note_on_c, 0, 69, 97
2, 311418, Note_on_c, 0, 69, 0
2, 311423, Note_on_c, 0, 54, 0
2, 311424, Note_on_c, 0, 55, 97
2, 311424, Note_on_c, 0, 67, 97
2, 311610, Note_on_c, 0, 67, 0
2, 311615, Note_on_c, 0, 55, 0
2, 311616, Note_on_c, 0, 57, 97
2, 311616, Note_on_c, 0, 66, 97
2, 311807, Note_on_c, 0, 66, 0
2, 311807, Note_on_c, 0, 62, 0
2, 311808, Note_on_c, 0, 67, 97
2, 311808, Note_on_c, 0, 64, 97
2, 311994, Note_on_c, 0, 67, 0
2, 311999, Note_on_c, 0, 64, 0
2, 311999, Note_on_c, 0, 57, 0
2, 312000, Note_on_c, 0, 45, 97
2, 312000, Note_on_c, 0, 61, 97
2, 312000, Note_on_c, 0, 64, 97
2, 312186, Note_on_c, 0, 64, 0
2, 312191, Note_on_c, 0, 61, 0
2, 312191, Note_on_c, 0, 45, 0
2, 312192, Note_on_c, 0, 47, 97
2, 312192, Note_on_c, 0, 62, 97
2, 312287, Note_on_c, 0, 47, 0
2, 312288, Note_on_c, 0, 60, 97
2, 312383, Note_on_c, 0, 60, 0
2, 312384, Note_on_c, 0, 59, 97
2, 312384, Note_on_c, 0, 69, 97
2, 312479, Note_on_c, 0, 59, 0
2, 312480, Note_on_c, 0, 57, 97
2, 312570, Note_on_c, 0, 69, 0
2, 312575, Note_on_c, 0, 57, 0
2, 312576, Note_on_c, 0, 59, 97
2, 312576, Note_on_c, 0, 67, 97
2, 312671, Note_on_c, 0, 59, 0
2, 312672, Note_on_c, 0, 55, 97
2, 312762, Note_on_c, 0, 67, 0
2, 312767, Note_on_c, 0, 55, 0
2, 312768, Note_on_c, 0, 45, 97
2, 312768, Note_on_c, 0, 66, 97
2, 312863, Note_on_c, 0, 45, 0
2, 312864, Note_on_c, 0, 57, 97
2, 312959, Note_on_c, 0, 57, 0
2, 312959, Note_on_c, 0, 66, 0
2, 312960, Note_on_c, 0, 55, 97
2, 312960, Note_on_c, 0, 72, 97
2, 313055, Note_on_c, 0, 55, 0
2, 313056, Note_on_c, 0, 54, 97
2, 313146, Note_on_c, 0, 72, 0
2, 313151, Note_on_c, 0, 54, 0
2, 313152, Note_on_c, 0, 55, 97
2, 313152, Note_on_c, 0, 71, 97
2, 313247, Note_on_c, 0, 55, 0
2, 313248, Note_on_c, 0, 52, 97
2, 313338, Note_on_c, 0, 71, 0
2, 313343, Note_on_c, 0, 52, 0
2, 313344, Note_on_c, 0, 54, 97
2, 313344, Note_on_c, 0, 69, 97
2, 313532, Note_on_c, 0, 62, 0
2, 313535, Note_on_c, 0, 69, 0
2, 313536, Note_on_c, 0, 76, 97
2, 313536, Note_on_c, 0, 72, 97
2, 313722, Note_on_c, 0, 76, 0
2, 313727, Note_on_c, 0, 72, 0
2, 313727, Note_on_c, 0, 54, 0
2, 313728, Note_on_c, 0, 55, 97
2, 313728, Note_on_c, 0, 71, 97
2, 313728, Note_on_c, 0, 74, 97
2, 313914, Note_on_c, 0, 74, 0
2, 313919, Note_on_c, 0, 71, 0
2, 313919, Note_on_c, 0, 55, 0
2, 313920, Note_on_c, 0, 48, 97
2, 313920, Note_on_c, 0, 69, 97
2, 313920, Note_on_c, 0, 74, 97
2, 313967, Note_on_c, 0, 74, 0
2, 313968, Note_on_c, 0, 72, 97
2, 314015, Note_on_c, 0, 72, 0
2, 314016, Note_on_c, 0, 74, 97
2, 314063, Note_on_c, 0, 74, 0
2, 314064, Note_on_c, 0, 72, 97
2, 314110, Note_on_c, 0, 69, 0
2, 314111, Note_on_c, 0, 72, 0
2, 314111, Note_on_c, 0, 48, 0
2, 314112, Note_on_c, 0, 50, 97
2, 314112, Note_on_c, 0, 71, 97
2, 314112, Note_on_c, 0, 67, 97
2, 314207, Note_on_c, 0, 71, 0
2, 314208, Note_on_c, 0, 69, 97
2, 314302, Note_on_c, 0, 67, 0
2, 314303, Note_on_c, 0, 69, 0
2, 314303, Note_on_c, 0, 50, 0
2, 314304, Note_on_c, 0, 38, 97
2, 314304, Note_on_c, 0, 66, 97
2, 314304, Note_on_c, 0, 74, 97
2, 314490, Note_on_c, 0, 74, 0
2, 314495, Note_on_c, 0, 66, 0
2, 314495, Note_on_c, 0, 38, 0
2, 314496, Note_on_c, 0, 43, 97
2, 314496, Note_on_c, 0, 72, 97
2, 314496, Note_on_c, 0, 67, 97
2, 314591, Note_on_c, 0, 72, 0
2, 314592, Note_on_c, 0, 71, 97
2, 314687, Note_on_c, 0, 71, 0
2, 314687, Note_on_c, 0, 43, 0
2, 314688, Note_on_c, 0, 55, 97
2, 314688, Note_on_c, 0, 69, 97
2, 314776, Note_on_c, 0, 67, 0
2, 314783, Note_on_c, 0, 69, 0
2, 314784, Note_on_c, 0, 67, 97
2, 314859, Note_on_c, 0, 67, 0
2, 314879, Note_on_c, 0, 55, 0
2, 314888, Note_on_c, 0, 62, 97
2, 314888, Note_on_c, 0, 54, 97
2, 315068, Note_on_c, 0, 54, 0
2, 315068, Note_on_c, 0, 62, 0
2, 315072, Note_on_c, 0, 52, 97
2, 315072, Note_on_c, 0, 67, 97
2, 315119, Note_on_c, 0, 67, 0
2, 315120, Note_on_c, 0, 66, 97
2, 315167, Note_on_c, 0, 66, 0
2, 315168, Note_on_c, 0, 67, 97
2, 315264, Note_on_c, 0, 59, 97
2, 315455, Note_on_c, 0, 67, 0
2, 315456, Note_on_c, 0, 67, 97
2, 315456, Note_on_c, 0, 61, 97
2, 315484, Note_on_c, 0, 59, 0
2, 315519, Note_on_c, 0, 67, 0
2, 315520, Note_on_c, 0, 69, 97
2, 315583, Note_on_c, 0, 69, 0
2, 315584, Note_on_c, 0, 71, 97
2, 315646, Note_on_c, 0, 71, 0
2, 315647, Note_on_c, 0, 52, 0
2, 315648, Note_on_c, 0, 54, 97
2, 315648, Note_on_c, 0, 71, 97
2, 315832, Note_on_c, 0, 61, 0
2, 315839, Note_on_c, 0, 71, 0
2, 315840, Note_on_c, 0, 62, 97
2, 315840, Note_on_c, 0, 69, 97
2, 316026, Note_on_c, 0, 69, 0
2, 316031, Note_on_c, 0, 54, 0
2, 316032, Note_on_c, 0, 59, 97
2, 316032, Note_on_c, 0, 67, 97
2, 316218, Note_on_c, 0, 67, 0
2, 316223, Note_on_c, 0, 59, 0
2, 316224, Note_on_c, 0, 55, 97
2, 316224, Note_on_c, 0, 66, 97
2, 316415, Note_on_c, 0, 66, 0
2, 316415, Note_on_c, 0, 62, 0
2, 316416, Note_on_c, 0, 64, 97
2, 316416, Note_on_c, 0, 67, 97
2, 316602, Note_on_c, 0, 67, 0
2, 316607, Note_on_c, 0, 64, 0
2, 316607, Note_on_c, 0, 55, 0
2, 316608, Note_on_c, 0, 61, 97
2, 316608, Note_on_c, 0, 57, 97
2, 316608, Note_on_c, 0, 64, 97
2, 316794, Note_on_c, 0, 64, 0
2, 316799, Note_on_c, 0, 57, 0
2, 316799, Note_on_c, 0, 61, 0
2, 316800, Note_on_c, 0, 59, 97
2, 316800, Note_on_c, 0, 62, 97
2, 316895, Note_on_c, 0, 62, 0
2, 316896, Note_on_c, 0, 66, 97
2, 316991, Note_on_c, 0, 66, 0
2, 316992, Note_on_c, 0, 47, 97
2, 316992, Note_on_c, 0, 64, 97
2, 317087, Note_on_c, 0, 64, 0
2, 317088, Note_on_c, 0, 62, 97
2, 317183, Note_on_c, 0, 62, 0
2, 317183, Note_on_c, 0, 47, 0
2, 317184, Note_on_c, 0, 49, 97
2, 317184, Note_on_c, 0, 64, 97
2, 317279, Note_on_c, 0, 64, 0
2, 317280, Note_on_c, 0, 66, 97
2, 317375, Note_on_c, 0, 66, 0
2, 317375, Note_on_c, 0, 59, 0
2, 317376, Note_on_c, 0, 57, 97
2, 317376, Note_on_c, 0, 67, 97
2, 317471, Note_on_c, 0, 67, 0
2, 317472, Note_on_c, 0, 76, 97
2, 317564, Note_on_c, 0, 49, 0
2, 317567, Note_on_c, 0, 76, 0
2, 317568, Note_on_c, 0, 49, 97
2, 317568, Note_on_c, 0, 74, 97
2, 317663, Note_on_c, 0, 74, 0
2, 317664, Note_on_c, 0, 73, 97
2, 317759, Note_on_c, 0, 73, 0
2, 317759, Note_on_c, 0, 49, 0
2, 317760, Note_on_c, 0, 50, 97
2, 317760, Note_on_c, 0, 71, 97
2, 317855, Note_on_c, 0, 71, 0
2, 317856, Note_on_c, 0, 69, 97
2, 317951, Note_on_c, 0, 69, 0
2, 317951, Note_on_c, 0, 57, 0
2, 317952, Note_on_c, 0, 59, 97
2, 317952, Note_on_c, 0, 68, 97
2, 318047, Note_on_c, 0, 68, 0
2, 318048, Note_on_c, 0, 69, 97
2, 318140, Note_on_c, 0, 50, 0
2, 318144, Note_on_c, 0, 50, 97
2, 318144, Note_on_c, 0, 81, 97
2, 318147, Note_on_c, 0, 69, 0
2, 318330, Note_on_c, 0, 59, 0
2, 318330, Note_on_c, 0, 50, 0
2, 318335, Note_on_c, 0, 81, 0
2, 318336, Note_on_c, 0, 61, 97
2, 318336, Note_on_c, 0, 52, 97
2, 318336, Note_on_c, 0, 79, 97
2, 318476, Note_on_c, 0, 79, 0
2, 318522, Note_on_c, 0, 52, 0
2, 318522, Note_on_c, 0, 61, 0
2, 318528, Note_on_c, 0, 54, 97
2, 318528, Note_on_c, 0, 62, 97
2, 318528, Note_on_c, 0, 78, 97
2, 318719, Note_on_c, 0, 78, 0
2, 318719, Note_on_c, 0, 62, 0
2, 318719, Note_on_c, 0, 54, 0
2, 318720, Note_on_c, 0, 55, 97
2, 318720, Note_on_c, 0, 74, 97
2, 318720, Note_on_c, 0, 66, 97
2, 318905, Note_on_c, 0, 74, 0
2, 318911, Note_on_c, 0, 66, 0
2, 318911, Note_on_c, 0, 55, 0
2, 318912, Note_on_c, 0, 57, 97
2, 318912, Note_on_c, 0, 73, 97
2, 318912, Note_on_c, 0, 64, 97
2, 319097, Note_on_c, 0, 73, 0
2, 319103, Note_on_c, 0, 64, 0
2, 319103, Note_on_c, 0, 57, 0
2, 319104, Note_on_c, 0, 50, 97
2, 319104, Note_on_c, 0, 74, 97
2, 319104, Note_on_c, 0, 66, 97
2, 319444, Note_on_c, 0, 66, 0
2, 319444, Note_on_c, 0, 74, 0
2, 319476, Note_on_c, 0, 50, 0
2, 319488, Note_on_c, 0, 50, 97
2, 319488, Note_on_c, 0, 81, 97
2, 319679, Note_on_c, 0, 81, 0
2, 319679, Note_on_c, 0, 50, 0
2, 319680, Note_on_c, 0, 60, 97
2, 319680, Note_on_c, 0, 74, 97
2, 319727, Note_on_c, 0, 74, 0
2, 319728, Note_on_c, 0, 72, 97
2, 319775, Note_on_c, 0, 72, 0
2, 319776, Note_on_c, 0, 74, 97
2, 319872, Note_on_c, 0, 66, 97
2, 320056, Note_on_c, 0, 74, 0
2, 320063, Note_on_c, 0, 66, 0
2, 320064, Note_on_c, 0, 69, 97
2, 320064, Note_on_c, 0, 74, 97
2, 320127, Note_on_c, 0, 74, 0
2, 320128, Note_on_c, 0, 76, 97
2, 320191, Note_on_c, 0, 76, 0
2, 320192, Note_on_c, 0, 78, 97
2, 320254, Note_on_c, 0, 78, 0
2, 320254, Note_on_c, 0, 69, 0
2, 320255, Note_on_c, 0, 60, 0
2, 320256, Note_on_c, 0, 59, 97
2, 320256, Note_on_c, 0, 62, 97
2, 320256, Note_on_c, 0, 79, 97
2, 320447, Note_on_c, 0, 62, 0
2, 320448, Note_on_c, 0, 67, 97
2, 320636, Note_on_c, 0, 79, 0
2, 320639, Note_on_c, 0, 67, 0
2, 320639, Note_on_c, 0, 59, 0
2, 320640, Note_on_c, 0, 57, 97
2, 320640, Note_on_c, 0, 81, 97
2, 320640, Note_on_c, 0, 66, 97
2, 320826, Note_on_c, 0, 81, 0
2, 320831, Note_on_c, 0, 57, 0
2, 320832, Note_on_c, 0, 55, 97
2, 320832, Note_on_c, 0, 83, 97
2, 321020, Note_on_c, 0, 66, 0
2, 321023, Note_on_c, 0, 83, 0
2, 321023, Note_on_c, 0, 55, 0
2, 321024, Note_on_c, 0, 57, 97
2, 321024, Note_on_c, 0, 64, 97
2, 321024, Note_on_c, 0, 81, 97
2, 321119, Note_on_c, 0, 81, 0
2, 321120, Note_on_c, 0, 79, 97
2, 321214, Note_on_c, 0, 64, 0
2, 321215, Note_on_c, 0, 79, 0
2, 321215, Note_on_c, 0, 57, 0
2, 321216, Note_on_c, 0, 59, 97
2, 321216, Note_on_c, 0, 78, 97
2, 321216, Note_on_c, 0, 63, 97
2, 321311, Note_on_c, 0, 78, 0
2, 321312, Note_on_c, 0, 79, 97
2, 321406, Note_on_c, 0, 63, 0
2, 321407, Note_on_c, 0, 79, 0
2, 321407, Note_on_c, 0, 59, 0
2, 321408, Note_on_c, 0, 52, 97
2, 321408, Note_on_c, 0, 81, 97
2, 321408, Note_on_c, 0, 64, 97
2, 321503, Note_on_c, 0, 81, 0
2, 321504, Note_on_c, 0, 79, 97
2, 321598, Note_on_c, 0, 64, 0
2, 321599, Note_on_c, 0, 79, 0
2, 321599, Note_on_c, 0, 52, 0
2, 321600, Note_on_c, 0, 59, 97
2, 321600, Note_on_c, 0, 78, 97
2, 321695, Note_on_c, 0, 78, 0
2, 321696, Note_on_c, 0, 76, 97
2, 321776, Note_on_c, 0, 76, 0
2, 321791, Note_on_c, 0, 59, 0
2, 321796, Note_on_c, 0, 64, 97
2, 321796, Note_on_c, 0, 79, 97
2, 321890, Note_on_c, 0, 60, 97
2, 321891, Note_on_c, 0, 64, 0
2, 321984, Note_on_c, 0, 64, 97
2, 321984, Note_on_c, 0, 72, 97
2, 321985, Note_on_c, 0, 60, 0
2, 321987, Note_on_c, 0, 79, 0
2, 322079, Note_on_c, 0, 64, 0
2, 322080, Note_on_c, 0, 62, 97
2, 322175, Note_on_c, 0, 62, 0
2, 322175, Note_on_c, 0, 72, 0
2, 322176, Note_on_c, 0, 60, 97
2, 322176, Note_on_c, 0, 71, 97
2, 322271, Note_on_c, 0, 60, 0
2, 322272, Note_on_c, 0, 59, 97
2, 322367, Note_on_c, 0, 59, 0
2, 322367, Note_on_c, 0, 71, 0
2, 322368, Note_on_c, 0, 64, 97
2, 322368, Note_on_c, 0, 72, 97
2, 322431, Note_on_c, 0, 72, 0
2, 322432, Note_on_c, 0, 74, 97
2, 322463, Note_on_c, 0, 64, 0
2, 322464, Note_on_c, 0, 60, 97
2, 322495, Note_on_c, 0, 74, 0
2, 322496, Note_on_c, 0, 76, 97
2, 322558, Note_on_c, 0, 76, 0
2, 322559, Note_on_c, 0, 60, 0
2, 322560, Note_on_c, 0, 64, 97
2, 322560, Note_on_c, 0, 67, 97
2, 322655, Note_on_c, 0, 64, 0
2, 322656, Note_on_c, 0, 62, 97
2, 322751, Note_on_c, 0, 62, 0
2, 322752, Note_on_c, 0, 60, 97
2, 322847, Note_on_c, 0, 60, 0
2, 322848, Note_on_c, 0, 59, 97
2, 322920, Note_on_c, 0, 67, 0
2, 322943, Note_on_c, 0, 59, 0
2, 322944, Note_on_c, 0, 64, 97
2, 322944, Note_on_c, 0, 79, 97
2, 323039, Note_on_c, 0, 64, 0
2, 323040, Note_on_c, 0, 60, 97
2, 323135, Note_on_c, 0, 60, 0
2, 323135, Note_on_c, 0, 79, 0
2, 323136, Note_on_c, 0, 64, 97
2, 323136, Note_on_c, 0, 72, 97
2, 323231, Note_on_c, 0, 64, 0
2, 323232, Note_on_c, 0, 62, 97
2, 323327, Note_on_c, 0, 62, 0
2, 323327, Note_on_c, 0, 72, 0
2, 323328, Note_on_c, 0, 60, 97
2, 323328, Note_on_c, 0, 71, 97
2, 323423, Note_on_c, 0, 60, 0
2, 323424, Note_on_c, 0, 59, 97
2, 323519, Note_on_c, 0, 59, 0
2, 323519, Note_on_c, 0, 71, 0
2, 323520, Note_on_c, 0, 64, 97
2, 323520, Note_on_c, 0, 72, 97
2, 323583, Note_on_c, 0, 72, 0
2, 323584, Note_on_c, 0, 74, 97
2, 323615, Note_on_c, 0, 64, 0
2, 323616, Note_on_c, 0, 60, 97
2, 323647, Note_on_c, 0, 74, 0
2, 323648, Note_on_c, 0, 76, 97
2, 323710, Note_on_c, 0, 76, 0
2, 323711, Note_on_c, 0, 60, 0
2, 323712, Note_on_c, 0, 64, 97
2, 323712, Note_on_c, 0, 67, 97
2, 323807, Note_on_c, 0, 64, 0
2, 323808, Note_on_c, 0, 62, 97
2, 323903, Note_on_c, 0, 62, 0
2, 323904, Note_on_c, 0, 60, 97
2, 323999, Note_on_c, 0, 60, 0
2, 324000, Note_on_c, 0, 59, 97
2, 324062, Note_on_c, 0, 67, 0
2, 324095, Note_on_c, 0, 59, 0
2, 324096, Note_on_c, 0, 62, 97
2, 324096, Note_on_c, 0, 77, 97
2, 324191, Note_on_c, 0, 62, 0
2, 324192, Note_on_c, 0, 59, 97
2, 324287, Note_on_c, 0, 59, 0
2, 324288, Note_on_c, 0, 60, 97
2, 324288, Note_on_c, 0, 69, 97
2, 324476, Note_on_c, 0, 77, 0
2, 324479, Note_on_c, 0, 69, 0
2, 324479, Note_on_c, 0, 60, 0
2, 324480, Note_on_c, 0, 50, 97
2, 324480, Note_on_c, 0, 77, 97
2, 324480, Note_on_c, 0, 71, 97
2, 324666, Note_on_c, 0, 77, 0
2, 324671, Note_on_c, 0, 71, 0
2, 324671, Note_on_c, 0, 50, 0
2, 324672, Note_on_c, 0, 48, 97
2, 324672, Note_on_c, 0, 76, 97
2, 324672, Note_on_c, 0, 72, 97
2, 324858, Note_on_c, 0, 76, 0
2, 324863, Note_on_c, 0, 48, 0
2, 324864, Note_on_c, 0, 47, 97
2, 324864, Note_on_c, 0, 84, 97
2, 325052, Note_on_c, 0, 72, 0
2, 325055, Note_on_c, 0, 84, 0
2, 325055, Note_on_c, 0, 47, 0
2, 325056, Note_on_c, 0, 57, 97
2, 325056, Note_on_c, 0, 72, 97
2, 325056, Note_on_c, 0, 78, 97
2, 325242, Note_on_c, 0, 78, 0
2, 325247, Note_on_c, 0, 72, 0
2, 325247, Note_on_c, 0, 57, 0
2, 325248, Note_on_c, 0, 55, 97
2, 325248, Note_on_c, 0, 71, 97
2, 325248, Note_on_c, 0, 79, 97
2, 325434, Note_on_c, 0, 79, 0
2, 325439, Note_on_c, 0, 71, 0
2, 325439, Note_on_c, 0, 55, 0
2, 325440, Note_on_c, 0, 54, 97
2, 325440, Note_on_c, 0, 69, 97
2, 325536, Note_on_c, 0, 71, 97
2, 325631, Note_on_c, 0, 71, 0
2, 325631, Note_on_c, 0, 54, 0
2, 325632, Note_on_c, 0, 50, 97
2, 325632, Note_on_c, 0, 72, 97
2, 325818, Note_on_c, 0, 72, 0
2, 325820, Note_on_c, 0, 69, 0
2, 325823, Note_on_c, 0, 50, 0
2, 325824, Note_on_c, 0, 55, 97
2, 325824, Note_on_c, 0, 71, 97
2, 325824, Note_on_c, 0, 67, 97
2, 326010, Note_on_c, 0, 71, 0
2, 326015, Note_on_c, 0, 67, 0
2, 326015, Note_on_c, 0, 55, 0
2, 326016, Note_on_c, 0, 50, 97
2, 326016, Note_on_c, 0, 66, 97
2, 326016, Note_on_c, 0, 69, 97
2, 326111, Note_on_c, 0, 50, 0
2, 326112, Note_on_c, 0, 62, 97
2, 326207, Note_on_c, 0, 62, 0
2, 326208, Note_on_c, 0, 60, 97
2, 326303, Note_on_c, 0, 60, 0
2, 326304, Note_on_c, 0, 59, 97
2, 326356, Note_on_c, 0, 69, 0
2, 326366, Note_on_c, 0, 66, 0
2, 326399, Note_on_c, 0, 59, 0
2, 326400, Note_on_c, 0, 60, 97
2, 326400, Note_on_c, 0, 74, 97
2, 326495, Note_on_c, 0, 60, 0
2, 326496, Note_on_c, 0, 57, 97
2, 326591, Note_on_c, 0, 57, 0
2, 326591, Note_on_c, 0, 74, 0
2, 326592, Note_on_c, 0, 59, 97
2, 326592, Note_on_c, 0, 79, 97
2, 326639, Note_on_c, 0, 79, 0
2, 326640, Note_on_c, 0, 78, 97
2, 326687, Note_on_c, 0, 78, 0
2, 326688, Note_on_c, 0, 79, 97
2, 326784, Note_on_c, 0, 62, 97
2, 326968, Note_on_c, 0, 79, 0
2, 326975, Note_on_c, 0, 62, 0
2, 326976, Note_on_c, 0, 67, 97
2, 326976, Note_on_c, 0, 79, 97
2, 327039, Note_on_c, 0, 79, 0
2, 327040, Note_on_c, 0, 81, 97
2, 327103, Note_on_c, 0, 81, 0
2, 327104, Note_on_c, 0, 83, 97
2, 327166, Note_on_c, 0, 83, 0
2, 327167, Note_on_c, 0, 59, 0
2, 327168, Note_on_c, 0, 60, 97
2, 327168, Note_on_c, 0, 76, 97
2, 327356, Note_on_c, 0, 67, 0
2, 327360, Note_on_c, 0, 68, 97
2, 327548, Note_on_c, 0, 76, 0
2, 327551, Note_on_c, 0, 68, 0
2, 327551, Note_on_c, 0, 60, 0
2, 327552, Note_on_c, 0, 65, 97
2, 327552, Note_on_c, 0, 74, 97
2, 327552, Note_on_c, 0, 69, 97
2, 327738, Note_on_c, 0, 74, 0
2, 327743, Note_on_c, 0, 65, 0
2, 327744, Note_on_c, 0, 62, 97
2, 327744, Note_on_c, 0, 72, 97
2, 327935, Note_on_c, 0, 72, 0
2, 327935, Note_on_c, 0, 62, 0
2, 327936, Note_on_c, 0, 64, 97
2, 327936, Note_on_c, 0, 71, 97
2, 328031, Note_on_c, 0, 71, 0
2, 328032, Note_on_c, 0, 72, 97
2, 328127, Note_on_c, 0, 72, 0
2, 328127, Note_on_c, 0, 64, 0
2, 328127, Note_on_c, 0, 69, 0
2, 328128, Note_on_c, 0, 52, 97
2, 328128, Note_on_c, 0, 74, 97
2, 328128, Note_on_c, 0, 68, 97
2, 328223, Note_on_c, 0, 74, 0
2, 328224, Note_on_c, 0, 71, 97
2, 328318, Note_on_c, 0, 68, 0
2, 328319, Note_on_c, 0, 71, 0
2, 328319, Note_on_c, 0, 52, 0
2, 328320, Note_on_c, 0, 45, 97
2, 328320, Note_on_c, 0, 69, 97
2, 328320, Note_on_c, 0, 74, 97
2, 328415, Note_on_c, 0, 74, 0
2, 328416, Note_on_c, 0, 72, 97
2, 328511, Note_on_c, 0, 72, 0
2, 328511, Note_on_c, 0, 45, 0
2, 328512, Note_on_c, 0, 57, 97
2, 328512, Note_on_c, 0, 71, 97
2, 328600, Note_on_c, 0, 69, 0
2, 328607, Note_on_c, 0, 71, 0
2, 328608, Note_on_c, 0, 69, 97
2, 328688, Note_on_c, 0, 69, 0
2, 328703, Note_on_c, 0, 57, 0
2, 328704, Note_on_c, 0, 56, 97
2, 328704, Note_on_c, 0, 74, 97
2, 328799, Note_on_c, 0, 74, 0
2, 328800, Note_on_c, 0, 71, 97
2, 328895, Note_on_c, 0, 71, 0
2, 328895, Note_on_c, 0, 56, 0
2, 328896, Note_on_c, 0, 57, 97
2, 328896, Note_on_c, 0, 74, 97
2, 328991, Note_on_c, 0, 74, 0
2, 328992, Note_on_c, 0, 72, 97
2, 329087, Note_on_c, 0, 72, 0
2, 329087, Note_on_c, 0, 57, 0
2, 329088, Note_on_c, 0, 48, 97
2, 329088, Note_on_c, 0, 71, 97
2, 329183, Note_on_c, 0, 71, 0
2, 329184, Note_on_c, 0, 69, 97
2, 329269, Note_on_c, 0, 69, 0
2, 329273, Note_on_c, 0, 48, 0
2, 329280, Note_on_c, 0, 47, 97
2, 329280, Note_on_c, 0, 74, 97
2, 329375, Note_on_c, 0, 74, 0
2, 329376, Note_on_c, 0, 71, 97
2, 329465, Note_on_c, 0, 47, 0
2, 329471, Note_on_c, 0, 71, 0
2, 329472, Note_on_c, 0, 45, 97
2, 329472, Note_on_c, 0, 74, 97
2, 329567, Note_on_c, 0, 74, 0
2, 329568, Note_on_c, 0, 72, 97
2, 329663, Note_on_c, 0, 72, 0
2, 329663, Note_on_c, 0, 45, 0
2, 329664, Note_on_c, 0, 55, 97
2, 329664, Note_on_c, 0, 71, 97
2, 329759, Note_on_c, 0, 71, 0
2, 329760, Note_on_c, 0, 69, 97
2, 329845, Note_on_c, 0, 69, 0
2, 329849, Note_on_c, 0, 55, 0
2, 329856, Note_on_c, 0, 54, 97
2, 329856, Note_on_c, 0, 72, 97
2, 329951, Note_on_c, 0, 72, 0
2, 329952, Note_on_c, 0, 69, 97
2, 330041, Note_on_c, 0, 54, 0
2, 330047, Note_on_c, 0, 69, 0
2, 330048, Note_on_c, 0, 55, 97
2, 330048, Note_on_c, 0, 72, 97
2, 330143, Note_on_c, 0, 72, 0
2, 330144, Note_on_c, 0, 71, 97
2, 330239, Note_on_c, 0, 71, 0
2, 330239, Note_on_c, 0, 55, 0
2, 330240, Note_on_c, 0, 47, 97
2, 330240, Note_on_c, 0, 69, 97
2, 330335, Note_on_c, 0, 69, 0
2, 330336, Note_on_c, 0, 67, 97
2, 330421, Note_on_c, 0, 67, 0
2, 330425, Note_on_c, 0, 47, 0
2, 330432, Note_on_c, 0, 45, 97
2, 330432, Note_on_c, 0, 72, 97
2, 330527, Note_on_c, 0, 72, 0
2, 330528, Note_on_c, 0, 69, 97
2, 330617, Note_on_c, 0, 45, 0
2, 330623, Note_on_c, 0, 69, 0
2, 330624, Note_on_c, 0, 43, 97
2, 330624, Note_on_c, 0, 72, 97
2, 330719, Note_on_c, 0, 72, 0
2, 330720, Note_on_c, 0, 71, 97
2, 330814, Note_on_c, 0, 43, 0
2, 330815, Note_on_c, 0, 71, 0
2, 330816, Note_on_c, 0, 69, 97
2, 330911, Note_on_c, 0, 69, 0
2, 330912, Note_on_c, 0, 59, 97
2, 330912, Note_on_c, 0, 67, 97
2, 331007, Note_on_c, 0, 67, 0
2, 331007, Note_on_c, 0, 59, 0
2, 331008, Note_on_c, 0, 57, 97
2, 331008, Note_on_c, 0, 69, 97
2, 331103, Note_on_c, 0, 69, 0
2, 331103, Note_on_c, 0, 57, 0
2, 331104, Note_on_c, 0, 55, 97
2, 331104, Note_on_c, 0, 71, 97
2, 331199, Note_on_c, 0, 71, 0
2, 331199, Note_on_c, 0, 55, 0
2, 331200, Note_on_c, 0, 60, 97
2, 331200, Note_on_c, 0, 64, 97
2, 331295, Note_on_c, 0, 60, 0
2, 331296, Note_on_c, 0, 59, 97
2, 331391, Note_on_c, 0, 59, 0
2, 331392, Note_on_c, 0, 57, 97
2, 331487, Note_on_c, 0, 57, 0
2, 331488, Note_on_c, 0, 55, 97
2, 331560, Note_on_c, 0, 64, 0
2, 331583, Note_on_c, 0, 55, 0
2, 331584, Note_on_c, 0, 60, 97
2, 331584, Note_on_c, 0, 66, 97
2, 331647, Note_on_c, 0, 66, 0
2, 331648, Note_on_c, 0, 67, 97
2, 331679, Note_on_c, 0, 60, 0
2, 331680, Note_on_c, 0, 57, 97
2, 331711, Note_on_c, 0, 67, 0
2, 331712, Note_on_c, 0, 69, 97
2, 331774, Note_on_c, 0, 69, 0
2, 331775, Note_on_c, 0, 57, 0
2, 331776, Note_on_c, 0, 60, 97
2, 331776, Note_on_c, 0, 62, 97
2, 331871, Note_on_c, 0, 60, 0
2, 331872, Note_on_c, 0, 59, 97
2, 331967, Note_on_c, 0, 59, 0
2, 331968, Note_on_c, 0, 57, 97
2, 332063, Note_on_c, 0, 57, 0
2, 332064, Note_on_c, 0, 55, 97
2, 332159, Note_on_c, 0, 55, 0
2, 332159, Note_on_c, 0, 62, 0
2, 332160, Note_on_c, 0, 60, 97
2, 332160, Note_on_c, 0, 74, 97
2, 332255, Note_on_c, 0, 60, 0
2, 332256, Note_on_c, 0, 57, 97
2, 332351, Note_on_c, 0, 57, 0
2, 332351, Note_on_c, 0, 74, 0
2, 332352, Note_on_c, 0, 60, 97
2, 332352, Note_on_c, 0, 67, 97
2, 332399, Note_on_c, 0, 67, 0
2, 332400, Note_on_c, 0, 66, 97
2, 332447, Note_on_c, 0, 66, 0
2, 332447, Note_on_c, 0, 60, 0
2, 332448, Note_on_c, 0, 59, 97
2, 332448, Note_on_c, 0, 67, 97
2, 332543, Note_on_c, 0, 59, 0
2, 332544, Note_on_c, 0, 57, 97
2, 332639, Note_on_c, 0, 57, 0
2, 332640, Note_on_c, 0, 55, 97
2, 332728, Note_on_c, 0, 67, 0
2, 332735, Note_on_c, 0, 55, 0
2, 332736, Note_on_c, 0, 60, 97
2, 332736, Note_on_c, 0, 66, 97
2, 332799, Note_on_c, 0, 66, 0
2, 332800, Note_on_c, 0, 67, 97
2, 332831, Note_on_c, 0, 60, 0
2, 332832, Note_on_c, 0, 57, 97
2, 332863, Note_on_c, 0, 67, 0
2, 332864, Note_on_c, 0, 69, 97
2, 332926, Note_on_c, 0, 69, 0
2, 332927, Note_on_c, 0, 57, 0
2, 332928, Note_on_c, 0, 60, 97
2, 332928, Note_on_c, 0, 62, 97
2, 333023, Note_on_c, 0, 60, 0
2, 333024, Note_on_c, 0, 59, 97
2, 333119, Note_on_c, 0, 59, 0
2, 333120, Note_on_c, 0, 57, 97
2, 333215, Note_on_c, 0, 57, 0
2, 333216, Note_on_c, 0, 55, 97
2, 333288, Note_on_c, 0, 62, 0
2, 333311, Note_on_c, 0, 55, 0
2, 333312, Note_on_c, 0, 57, 97
2, 333312, Note_on_c, 0, 74, 97
2, 333407, Note_on_c, 0, 57, 0
2, 333408, Note_on_c, 0, 54, 97
2, 333503, Note_on_c, 0, 54, 0
2, 333503, Note_on_c, 0, 74, 0
2, 333504, Note_on_c, 0, 55, 97
2, 333504, Note_on_c, 0, 72, 97
2, 333695, Note_on_c, 0, 72, 0
2, 333696, Note_on_c, 0, 65, 97
2, 333696, Note_on_c, 0, 71, 97
2, 333887, Note_on_c, 0, 71, 0
2, 333887, Note_on_c, 0, 65, 0
2, 333888, Note_on_c, 0, 72, 97
2, 333888, Note_on_c, 0, 64, 97
2, 333951, Note_on_c, 0, 72, 0
2, 333952, Note_on_c, 0, 74, 97
2, 334015, Note_on_c, 0, 74, 0
2, 334016, Note_on_c, 0, 76, 97
2, 334078, Note_on_c, 0, 76, 0
2, 334079, Note_on_c, 0, 55, 0
2, 334080, Note_on_c, 0, 57, 97
2, 334080, Note_on_c, 0, 77, 97
2, 334268, Note_on_c, 0, 64, 0
2, 334272, Note_on_c, 0, 64, 97
2, 334460, Note_on_c, 0, 77, 0
2, 334463, Note_on_c, 0, 64, 0
2, 334463, Note_on_c, 0, 57, 0
2, 334464, Note_on_c, 0, 59, 97
2, 334464, Note_on_c, 0, 62, 97
2, 334464, Note_on_c, 0, 79, 97
2, 334650, Note_on_c, 0, 79, 0
2, 334655, Note_on_c, 0, 62, 0
2, 334655, Note_on_c, 0, 59, 0
2, 334656, Note_on_c, 0, 60, 97
2, 334656, Note_on_c, 0, 76, 97
2, 334847, Note_on_c, 0, 76, 0
2, 334847, Note_on_c, 0, 60, 0
2, 334848, Note_on_c, 0, 53, 97
2, 334848, Note_on_c, 0, 77, 97
2, 334848, Note_on_c, 0, 74, 97
2, 335034, Note_on_c, 0, 77, 0
2, 335039, Note_on_c, 0, 74, 0
2, 335039, Note_on_c, 0, 53, 0
2, 335040, Note_on_c, 0, 55, 97
2, 335040, Note_on_c, 0, 74, 97
2, 335040, Note_on_c, 0, 71, 97
2, 335226, Note_on_c, 0, 74, 0
2, 335231, Note_on_c, 0, 55, 0
2, 335232, Note_on_c, 0, 48, 97
2, 335232, Note_on_c, 0, 77, 97
2, 335327, Note_on_c, 0, 77, 0
2, 335328, Note_on_c, 0, 76, 97
2, 335420, Note_on_c, 0, 71, 0
2, 335423, Note_on_c, 0, 76, 0
2, 335424, Note_on_c, 0, 59, 97
2, 335424, Note_on_c, 0, 74, 97
2, 335519, Note_on_c, 0, 74, 0
2, 335520, Note_on_c, 0, 72, 97
2, 335615, Note_on_c, 0, 72, 0
2, 335615, Note_on_c, 0, 59, 0
2, 335616, Note_on_c, 0, 57, 97
2, 335616, Note_on_c, 0, 76, 97
2, 335711, Note_on_c, 0, 76, 0
2, 335712, Note_on_c, 0, 72, 97
2, 335807, Note_on_c, 0, 72, 0
2, 335807, Note_on_c, 0, 48, 0
2, 335808, Note_on_c, 0, 47, 97
2, 335808, Note_on_c, 0, 76, 97
2, 335903, Note_on_c, 0, 76, 0
2, 335904, Note_on_c, 0, 74, 97
2, 335996, Note_on_c, 0, 57, 0
2, 335999, Note_on_c, 0, 74, 0
2, 336000, Note_on_c, 0, 57, 97
2, 336000, Note_on_c, 0, 72, 97
2, 336095, Note_on_c, 0, 72, 0
2, 336096, Note_on_c, 0, 71, 97
2, 336191, Note_on_c, 0, 71, 0
2, 336191, Note_on_c, 0, 57, 0
2, 336192, Note_on_c, 0, 55, 97
2, 336192, Note_on_c, 0, 74, 97
2, 336287, Note_on_c, 0, 74, 0
2, 336288, Note_on_c, 0, 71, 97
2, 336383, Note_on_c, 0, 71, 0
2, 336383, Note_on_c, 0, 47, 0
2, 336384, Note_on_c, 0, 45, 97
2, 336384, Note_on_c, 0, 74, 97
2, 336479, Note_on_c, 0, 74, 0
2, 336480, Note_on_c, 0, 72, 97
2, 336572, Note_on_c, 0, 55, 0
2, 336575, Note_on_c, 0, 72, 0
2, 336576, Note_on_c, 0, 55, 97
2, 336576, Note_on_c, 0, 71, 97
2, 336671, Note_on_c, 0, 71, 0
2, 336672, Note_on_c, 0, 69, 97
2, 336767, Note_on_c, 0, 69, 0
2, 336767, Note_on_c, 0, 55, 0
2, 336768, Note_on_c, 0, 54, 97
2, 336768, Note_on_c, 0, 72, 97
2, 336863, Note_on_c, 0, 72, 0
2, 336864, Note_on_c, 0, 69, 97
2, 336953, Note_on_c, 0, 54, 0
2, 336959, Note_on_c, 0, 69, 0
2, 336959, Note_on_c, 0, 45, 0
2, 336960, Note_on_c, 0, 55, 97
2, 336960, Note_on_c, 0, 47, 97
2, 336960, Note_on_c, 0, 74, 97
2, 337170, Note_on_c, 0, 67, 97
2, 337170, Note_on_c, 0, 59, 97
2, 337170, Note_on_c, 0, 48, 97
2, 337171, Note_on_c, 0, 74, 0
2, 337171, Note_on_c, 0, 55, 0
2, 337171, Note_on_c, 0, 47, 0
2, 337361, Note_on_c, 0, 67, 0
2, 337361, Note_on_c, 0, 59, 0
2, 337361, Note_on_c, 0, 48, 0
2, 337392, Note_on_c, 0, 50, 97
2, 337392, Note_on_c, 0, 57, 97
2, 337392, Note_on_c, 0, 66, 97
2, 337583, Note_on_c, 0, 66, 0
2, 337583, Note_on_c, 0, 57, 0
2, 337583, Note_on_c, 0, 50, 0
2, 337632, Note_on_c, 0, 67, 97
2, 337632, Note_on_c, 0, 59, 97
2, 337632, Note_on_c, 0, 43, 97
2, 338232, Note_on_c, 0, 43, 0
2, 338232, Note_on_c, 0, 59, 0
2, 338232, Note_on_c, 0, 67, 0
2, 339668, Note_on_c, 0, 74, 97
2, 339828, Note_on_c, 0, 74, 0
2, 339840, Note_on_c, 0, 76, 97
2, 340125, Note_on_c, 0, 76, 0
2, 340128, Note_on_c, 0, 72, 97
2, 340221, Note_on_c, 0, 72, 0
2, 340224, Note_on_c, 0, 69, 97
2, 340317, Note_on_c, 0, 69, 0
2, 340320, Note_on_c, 0, 66, 97
2, 340413, Note_on_c, 0, 66, 0
2, 340416, Note_on_c, 0, 74, 97
2, 340556, Note_on_c, 0, 74, 0
2, 340608, Note_on_c, 0, 67, 97
2, 340748, Note_on_c, 0, 67, 0
2, 340992, Note_on_c, 0, 72, 97
2, 341277, Note_on_c, 0, 72, 0
2, 341280, Note_on_c, 0, 69, 97
2, 341373, Note_on_c, 0, 69, 0
2, 341376, Note_on_c, 0, 66, 97
2, 341469, Note_on_c, 0, 66, 0
2, 341472, Note_on_c, 0, 62, 97
2, 341565, Note_on_c, 0, 62, 0
2, 341568, Note_on_c, 0, 71, 97
2, 341661, Note_on_c, 0, 71, 0
2, 341664, Note_on_c, 0, 69, 97
2, 341757, Note_on_c, 0, 69, 0
2, 341760, Note_on_c, 0, 71, 97
2, 341853, Note_on_c, 0, 71, 0
2, 341856, Note_on_c, 0, 72, 97
2, 341949, Note_on_c, 0, 72, 0
2, 341952, Note_on_c, 0, 71, 97
2, 341952, Note_on_c, 0, 79, 97
2, 342045, Note_on_c, 0, 71, 0
2, 342048, Note_on_c, 0, 69, 97
2, 342141, Note_on_c, 0, 69, 0
2, 342141, Note_on_c, 0, 79, 0
2, 342144, Note_on_c, 0, 67, 97
2, 342144, Note_on_c, 0, 83, 97
2, 342333, Note_on_c, 0, 67, 0
2, 342336, Note_on_c, 0, 55, 97
2, 342429, Note_on_c, 0, 83, 0
2, 342432, Note_on_c, 0, 79, 97
2, 342525, Note_on_c, 0, 79, 0
2, 342525, Note_on_c, 0, 55, 0
2, 342528, Note_on_c, 0, 67, 97
2, 342528, Note_on_c, 0, 76, 97
2, 342621, Note_on_c, 0, 76, 0
2, 342624, Note_on_c, 0, 73, 97
2, 342717, Note_on_c, 0, 73, 0
2, 342720, Note_on_c, 0, 81, 97
2, 342813, Note_on_c, 0, 67, 0
2, 342816, Note_on_c, 0, 64, 97
2, 342860, Note_on_c, 0, 81, 0
2, 342909, Note_on_c, 0, 64, 0
2, 342912, Note_on_c, 0, 66, 97
2, 342912, Note_on_c, 0, 74, 97
2, 343005, Note_on_c, 0, 66, 0
2, 343008, Note_on_c, 0, 69, 97
2, 343052, Note_on_c, 0, 74, 0
2, 343101, Note_on_c, 0, 69, 0
2, 343104, Note_on_c, 0, 67, 97
2, 343197, Note_on_c, 0, 67, 0
2, 343200, Note_on_c, 0, 66, 97
2, 343293, Note_on_c, 0, 66, 0
2, 343296, Note_on_c, 0, 64, 97
2, 343296, Note_on_c, 0, 79, 97
2, 343485, Note_on_c, 0, 64, 0
2, 343488, Note_on_c, 0, 61, 97
2, 343581, Note_on_c, 0, 79, 0
2, 343584, Note_on_c, 0, 76, 97
2, 343677, Note_on_c, 0, 76, 0
2, 343677, Note_on_c, 0, 61, 0
2, 343680, Note_on_c, 0, 57, 97
2, 343680, Note_on_c, 0, 73, 97
2, 343773, Note_on_c, 0, 73, 0
2, 343776, Note_on_c, 0, 69, 97
2, 343869, Note_on_c, 0, 69, 0
2, 343869, Note_on_c, 0, 57, 0
2, 343872, Note_on_c, 0, 62, 97
2, 343872, Note_on_c, 0, 78, 97
2, 343965, Note_on_c, 0, 78, 0
2, 343968, Note_on_c, 0, 76, 97
2, 344061, Note_on_c, 0, 76, 0
2, 344061, Note_on_c, 0, 62, 0
2, 344064, Note_on_c, 0, 69, 97
2, 344064, Note_on_c, 0, 78, 97
2, 344157, Note_on_c, 0, 78, 0
2, 344160, Note_on_c, 0, 81, 97
2, 344229, Note_on_c, 0, 69, 0
2, 344253, Note_on_c, 0, 81, 0
2, 344256, Note_on_c, 0, 71, 97
2, 344256, Note_on_c, 0, 74, 97
2, 344349, Note_on_c, 0, 74, 0
2, 344352, Note_on_c, 0, 78, 97
2, 344421, Note_on_c, 0, 71, 0
2, 344445, Note_on_c, 0, 78, 0
2, 344448, Note_on_c, 0, 64, 97
2, 344448, Note_on_c, 0, 79, 97
2, 344541, Note_on_c, 0, 79, 0
2, 344544, Note_on_c, 0, 78, 97
2, 344637, Note_on_c, 0, 78, 0
2, 344637, Note_on_c, 0, 64, 0
2, 344640, Note_on_c, 0, 71, 97
2, 344640, Note_on_c, 0, 79, 97
2, 344733, Note_on_c, 0, 79, 0
2, 344736, Note_on_c, 0, 83, 97
2, 344805, Note_on_c, 0, 71, 0
2, 344829, Note_on_c, 0, 83, 0
2, 344832, Note_on_c, 0, 72, 97
2, 344832, Note_on_c, 0, 76, 97
2, 344925, Note_on_c, 0, 76, 0
2, 344928, Note_on_c, 0, 79, 97
2, 344997, Note_on_c, 0, 72, 0
2, 345021, Note_on_c, 0, 79, 0
2, 345024, Note_on_c, 0, 66, 97
2, 345024, Note_on_c, 0, 81, 97
2, 345117, Note_on_c, 0, 81, 0
2, 345120, Note_on_c, 0, 79, 97
2, 345213, Note_on_c, 0, 79, 0
2, 345213, Note_on_c, 0, 66, 0
2, 345216, Note_on_c, 0, 72, 97
2, 345216, Note_on_c, 0, 81, 97
2, 345309, Note_on_c, 0, 81, 0
2, 345312, Note_on_c, 0, 84, 97
2, 345381, Note_on_c, 0, 72, 0
2, 345405, Note_on_c, 0, 84, 0
2, 345408, Note_on_c, 0, 74, 97
2, 345408, Note_on_c, 0, 78, 97
2, 345501, Note_on_c, 0, 78, 0
2, 345504, Note_on_c, 0, 81, 97
2, 345591, Note_on_c, 0, 74, 0
2, 345597, Note_on_c, 0, 81, 0
2, 345600, Note_on_c, 0, 67, 97
2, 345600, Note_on_c, 0, 83, 97
2, 345693, Note_on_c, 0, 83, 0
2, 345696, Note_on_c, 0, 81, 97
2, 345789, Note_on_c, 0, 81, 0
2, 345789, Note_on_c, 0, 67, 0
2, 345792, Note_on_c, 0, 76, 97
2, 345792, Note_on_c, 0, 84, 97
2, 345885, Note_on_c, 0, 84, 0
2, 345888, Note_on_c, 0, 83, 97
2, 345957, Note_on_c, 0, 76, 0
2, 345981, Note_on_c, 0, 83, 0
2, 345984, Note_on_c, 0, 72, 97
2, 345984, Note_on_c, 0, 81, 97
2, 346077, Note_on_c, 0, 81, 0
2, 346080, Note_on_c, 0, 79, 97
2, 346149, Note_on_c, 0, 72, 0
2, 346173, Note_on_c, 0, 79, 0
2, 346176, Note_on_c, 0, 74, 97
2, 346176, Note_on_c, 0, 78, 97
2, 346269, Note_on_c, 0, 78, 0
2, 346272, Note_on_c, 0, 76, 97
2, 346365, Note_on_c, 0, 76, 0
2, 346365, Note_on_c, 0, 74, 0
2, 346368, Note_on_c, 0, 69, 97
2, 346368, Note_on_c, 0, 78, 97
2, 346461, Note_on_c, 0, 78, 0
2, 346464, Note_on_c, 0, 79, 97
2, 346557, Note_on_c, 0, 79, 0
2, 346557, Note_on_c, 0, 69, 0
2, 346560, Note_on_c, 0, 74, 97
2, 346560, Note_on_c, 0, 62, 97
2, 346560, Note_on_c, 0, 76, 97
2, 346653, Note_on_c, 0, 76, 0
2, 346656, Note_on_c, 0, 78, 97
2, 346749, Note_on_c, 0, 78, 0
2, 346749, Note_on_c, 0, 62, 0
2, 346752, Note_on_c, 0, 64, 97
2, 346752, Note_on_c, 0, 79, 97
2, 346941, Note_on_c, 0, 74, 0
2, 346944, Note_on_c, 0, 72, 97
2, 347037, Note_on_c, 0, 64, 0
2, 347040, Note_on_c, 0, 60, 97
2, 347133, Note_on_c, 0, 60, 0
2, 347133, Note_on_c, 0, 79, 0
2, 347136, Note_on_c, 0, 57, 97
2, 347136, Note_on_c, 0, 84, 97
2, 347229, Note_on_c, 0, 57, 0
2, 347232, Note_on_c, 0, 54, 97
2, 347325, Note_on_c, 0, 54, 0
2, 347325, Note_on_c, 0, 84, 0
2, 347328, Note_on_c, 0, 62, 97
2, 347328, Note_on_c, 0, 78, 97
2, 347421, Note_on_c, 0, 72, 0
2, 347424, Note_on_c, 0, 69, 97
2, 347468, Note_on_c, 0, 62, 0
2, 347517, Note_on_c, 0, 69, 0
2, 347517, Note_on_c, 0, 78, 0
2, 347520, Note_on_c, 0, 71, 97
2, 347520, Note_on_c, 0, 55, 97
2, 347520, Note_on_c, 0, 79, 97
2, 347613, Note_on_c, 0, 71, 0
2, 347616, Note_on_c, 0, 74, 97
2, 347660, Note_on_c, 0, 55, 0
2, 347709, Note_on_c, 0, 74, 0
2, 347712, Note_on_c, 0, 72, 97
2, 347805, Note_on_c, 0, 72, 0
2, 347808, Note_on_c, 0, 71, 97
2, 347901, Note_on_c, 0, 71, 0
2, 347904, Note_on_c, 0, 69, 97
2, 347904, Note_on_c, 0, 60, 97
2, 348093, Note_on_c, 0, 79, 0
2, 348096, Note_on_c, 0, 78, 97
2, 348189, Note_on_c, 0, 60, 0
2, 348192, Note_on_c, 0, 57, 97
2, 348285, Note_on_c, 0, 57, 0
2, 348285, Note_on_c, 0, 78, 0
2, 348288, Note_on_c, 0, 54, 97
2, 348288, Note_on_c, 0, 81, 97
2, 348381, Note_on_c, 0, 54, 0
2, 348384, Note_on_c, 0, 50, 97
2, 348477, Note_on_c, 0, 50, 0
2, 348477, Note_on_c, 0, 81, 0
2, 348480, Note_on_c, 0, 59, 97
2, 348480, Note_on_c, 0, 74, 97
2, 348573, Note_on_c, 0, 59, 0
2, 348576, Note_on_c, 0, 57, 97
2, 348669, Note_on_c, 0, 57, 0
2, 348669, Note_on_c, 0, 74, 0
2, 348669, Note_on_c, 0, 69, 0
2, 348672, Note_on_c, 0, 67, 97
2, 348672, Note_on_c, 0, 59, 97
2, 348672, Note_on_c, 0, 76, 97
2, 348765, Note_on_c, 0, 59, 0
2, 348768, Note_on_c, 0, 60, 97
2, 348861, Note_on_c, 0, 60, 0
2, 348861, Note_on_c, 0, 76, 0
2, 348861, Note_on_c, 0, 67, 0
2, 348864, Note_on_c, 0, 69, 97
2, 348864, Note_on_c, 0, 59, 97
2, 348864, Note_on_c, 0, 78, 97
2, 348957, Note_on_c, 0, 59, 0
2, 348960, Note_on_c, 0, 57, 97
2, 349053, Note_on_c, 0, 57, 0
2, 349053, Note_on_c, 0, 78, 0
2, 349053, Note_on_c, 0, 69, 0
2, 349056, Note_on_c, 0, 71, 97
2, 349056, Note_on_c, 0, 55, 97
2, 349056, Note_on_c, 0, 79, 97
2, 349149, Note_on_c, 0, 71, 0
2, 349152, Note_on_c, 0, 69, 97
2, 349245, Note_on_c, 0, 69, 0
2, 349245, Note_on_c, 0, 55, 0
2, 349246, Note_on_c, 0, 79, 0
2, 349248, Note_on_c, 0, 71, 97
2, 349248, Note_on_c, 0, 62, 97
2, 349341, Note_on_c, 0, 71, 0
2, 349344, Note_on_c, 0, 74, 97
2, 349413, Note_on_c, 0, 62, 0
2, 349437, Note_on_c, 0, 74, 0
2, 349440, Note_on_c, 0, 67, 97
2, 349440, Note_on_c, 0, 64, 97
2, 349533, Note_on_c, 0, 67, 0
2, 349536, Note_on_c, 0, 71, 97
2, 349605, Note_on_c, 0, 64, 0
2, 349629, Note_on_c, 0, 71, 0
2, 349632, Note_on_c, 0, 72, 97
2, 349632, Note_on_c, 0, 57, 97
2, 349725, Note_on_c, 0, 72, 0
2, 349728, Note_on_c, 0, 71, 97
2, 349821, Note_on_c, 0, 71, 0
2, 349821, Note_on_c, 0, 57, 0
2, 349824, Note_on_c, 0, 72, 97
2, 349824, Note_on_c, 0, 64, 97
2, 349917, Note_on_c, 0, 72, 0
2, 349920, Note_on_c, 0, 76, 97
2, 349989, Note_on_c, 0, 64, 0
2, 350013, Note_on_c, 0, 76, 0
2, 350016, Note_on_c, 0, 69, 97
2, 350016, Note_on_c, 0, 65, 97
2, 350109, Note_on_c, 0, 69, 0
2, 350112, Note_on_c, 0, 72, 97
2, 350181, Note_on_c, 0, 65, 0
2, 350205, Note_on_c, 0, 72, 0
2, 350208, Note_on_c, 0, 74, 97
2, 350208, Note_on_c, 0, 59, 97
2, 350301, Note_on_c, 0, 74, 0
2, 350304, Note_on_c, 0, 72, 97
2, 350397, Note_on_c, 0, 72, 0
2, 350397, Note_on_c, 0, 59, 0
2, 350400, Note_on_c, 0, 74, 97
2, 350400, Note_on_c, 0, 65, 97
2, 350493, Note_on_c, 0, 74, 0
2, 350496, Note_on_c, 0, 77, 97
2, 350565, Note_on_c, 0, 65, 0
2, 350589, Note_on_c, 0, 77, 0
2, 350592, Note_on_c, 0, 71, 97
2, 350592, Note_on_c, 0, 67, 97
2, 350685, Note_on_c, 0, 71, 0
2, 350688, Note_on_c, 0, 74, 97
2, 350757, Note_on_c, 0, 67, 0
2, 350783, Note_on_c, 0, 74, 0
2, 350784, Note_on_c, 0, 60, 97
2, 350784, Note_on_c, 0, 76, 97
2, 350877, Note_on_c, 0, 60, 0
2, 350880, Note_on_c, 0, 59, 97
2, 350973, Note_on_c, 0, 59, 0
2, 350973, Note_on_c, 0, 76, 0
2, 350976, Note_on_c, 0, 69, 97
2, 350976, Note_on_c, 0, 60, 97
2, 350976, Note_on_c, 0, 78, 97
2, 351069, Note_on_c, 0, 60, 0
2, 351072, Note_on_c, 0, 62, 97
2, 351141, Note_on_c, 0, 69, 0
2, 351165, Note_on_c, 0, 62, 0
2, 351165, Note_on_c, 0, 78, 0
2, 351168, Note_on_c, 0, 71, 97
2, 351168, Note_on_c, 0, 60, 97
2, 351168, Note_on_c, 0, 80, 97
2, 351261, Note_on_c, 0, 60, 0
2, 351264, Note_on_c, 0, 59, 97
2, 351333, Note_on_c, 0, 71, 0
2, 351357, Note_on_c, 0, 59, 0
2, 351357, Note_on_c, 0, 80, 0
2, 351360, Note_on_c, 0, 72, 97
2, 351360, Note_on_c, 0, 57, 97
2, 351360, Note_on_c, 0, 81, 97
2, 351453, Note_on_c, 0, 72, 0
2, 351456, Note_on_c, 0, 71, 97
2, 351549, Note_on_c, 0, 71, 0
2, 351549, Note_on_c, 0, 57, 0
2, 351550, Note_on_c, 0, 81, 0
2, 351552, Note_on_c, 0, 72, 97
2, 351552, Note_on_c, 0, 64, 97
2, 351645, Note_on_c, 0, 72, 0
2, 351648, Note_on_c, 0, 76, 97
2, 351717, Note_on_c, 0, 64, 0
2, 351741, Note_on_c, 0, 76, 0
2, 351744, Note_on_c, 0, 69, 97
2, 351744, Note_on_c, 0, 66, 97
2, 351837, Note_on_c, 0, 69, 0
2, 351840, Note_on_c, 0, 72, 97
2, 351909, Note_on_c, 0, 66, 0
2, 351933, Note_on_c, 0, 72, 0
2, 351936, Note_on_c, 0, 74, 97
2, 351936, Note_on_c, 0, 59, 97
2, 352029, Note_on_c, 0, 74, 0
2, 352032, Note_on_c, 0, 72, 97
2, 352125, Note_on_c, 0, 72, 0
2, 352125, Note_on_c, 0, 59, 0
2, 352128, Note_on_c, 0, 74, 97
2, 352128, Note_on_c, 0, 66, 97
2, 352221, Note_on_c, 0, 74, 0
2, 352224, Note_on_c, 0, 78, 97
2, 352293, Note_on_c, 0, 66, 0
2, 352317, Note_on_c, 0, 78, 0
2, 352320, Note_on_c, 0, 71, 97
2, 352320, Note_on_c, 0, 67, 97
2, 352413, Note_on_c, 0, 71, 0
2, 352416, Note_on_c, 0, 74, 97
2, 352485, Note_on_c, 0, 67, 0
2, 352509, Note_on_c, 0, 74, 0
2, 352512, Note_on_c, 0, 76, 97
2, 352512, Note_on_c, 0, 61, 97
2, 352605, Note_on_c, 0, 76, 0
2, 352608, Note_on_c, 0, 74, 97
2, 352701, Note_on_c, 0, 74, 0
2, 352701, Note_on_c, 0, 61, 0
2, 352704, Note_on_c, 0, 76, 97
2, 352704, Note_on_c, 0, 67, 97
2, 352797, Note_on_c, 0, 76, 0
2, 352800, Note_on_c, 0, 79, 97
2, 352869, Note_on_c, 0, 67, 0
2, 352893, Note_on_c, 0, 79, 0
2, 352896, Note_on_c, 0, 73, 97
2, 352896, Note_on_c, 0, 69, 97
2, 352989, Note_on_c, 0, 73, 0
2, 352992, Note_on_c, 0, 76, 97
2, 353061, Note_on_c, 0, 69, 0
2, 353087, Note_on_c, 0, 76, 0
2, 353088, Note_on_c, 0, 62, 97
2, 353088, Note_on_c, 0, 78, 97
2, 353181, Note_on_c, 0, 62, 0
2, 353184, Note_on_c, 0, 61, 97
2, 353277, Note_on_c, 0, 61, 0
2, 353277, Note_on_c, 0, 78, 0
2, 353280, Note_on_c, 0, 71, 97
2, 353280, Note_on_c, 0, 62, 97
2, 353280, Note_on_c, 0, 79, 97
2, 353373, Note_on_c, 0, 62, 0
2, 353376, Note_on_c, 0, 64, 97
2, 353445, Note_on_c, 0, 71, 0
2, 353469, Note_on_c, 0, 64, 0
2, 353469, Note_on_c, 0, 79, 0
2, 353472, Note_on_c, 0, 73, 97
2, 353472, Note_on_c, 0, 62, 97
2, 353472, Note_on_c, 0, 81, 97
2, 353565, Note_on_c, 0, 62, 0
2, 353568, Note_on_c, 0, 61, 97
2, 353637, Note_on_c, 0, 73, 0
2, 353661, Note_on_c, 0, 61, 0
2, 353664, Note_on_c, 0, 74, 97
2, 353664, Note_on_c, 0, 59, 97
2, 353757, Note_on_c, 0, 74, 0
2, 353760, Note_on_c, 0, 73, 97
2, 353853, Note_on_c, 0, 73, 0
2, 353853, Note_on_c, 0, 81, 0
2, 353856, Note_on_c, 0, 74, 97
2, 353856, Note_on_c, 0, 79, 97
2, 353949, Note_on_c, 0, 74, 0
2, 353949, Note_on_c, 0, 59, 0
2, 353952, Note_on_c, 0, 76, 97
2, 353952, Note_on_c, 0, 55, 97
2, 354045, Note_on_c, 0, 55, 0
2, 354045, Note_on_c, 0, 76, 0
2, 354048, Note_on_c, 0, 71, 97
2, 354048, Note_on_c, 0, 52, 97
2, 354141, Note_on_c, 0, 52, 0
2, 354141, Note_on_c, 0, 71, 0
2, 354144, Note_on_c, 0, 74, 97
2, 354144, Note_on_c, 0, 49, 97
2, 354237, Note_on_c, 0, 49, 0
2, 354237, Note_on_c, 0, 74, 0
2, 354240, Note_on_c, 0, 73, 97
2, 354240, Note_on_c, 0, 57, 97
2, 354333, Note_on_c, 0, 73, 0
2, 354336, Note_on_c, 0, 71, 97
2, 354380, Note_on_c, 0, 57, 0
2, 354429, Note_on_c, 0, 71, 0
2, 354429, Note_on_c, 0, 79, 0
2, 354432, Note_on_c, 0, 73, 97
2, 354432, Note_on_c, 0, 50, 97
2, 354432, Note_on_c, 0, 78, 97
2, 354525, Note_on_c, 0, 73, 0
2, 354528, Note_on_c, 0, 74, 97
2, 354572, Note_on_c, 0, 50, 0
2, 354621, Note_on_c, 0, 74, 0
2, 354624, Note_on_c, 0, 69, 97
2, 354717, Note_on_c, 0, 69, 0
2, 354720, Note_on_c, 0, 73, 97
2, 354813, Note_on_c, 0, 73, 0
2, 354816, Note_on_c, 0, 71, 97
2, 354816, Note_on_c, 0, 55, 97
2, 354909, Note_on_c, 0, 71, 0
2, 354912, Note_on_c, 0, 69, 97
2, 355005, Note_on_c, 0, 69, 0
2, 355005, Note_on_c, 0, 78, 0
2, 355008, Note_on_c, 0, 71, 97
2, 355008, Note_on_c, 0, 76, 97
2, 355101, Note_on_c, 0, 71, 0
2, 355101, Note_on_c, 0, 55, 0
2, 355104, Note_on_c, 0, 73, 97
2, 355104, Note_on_c, 0, 52, 97
2, 355197, Note_on_c, 0, 52, 0
2, 355197, Note_on_c, 0, 73, 0
2, 355200, Note_on_c, 0, 67, 97
2, 355200, Note_on_c, 0, 49, 97
2, 355293, Note_on_c, 0, 49, 0
2, 355293, Note_on_c, 0, 67, 0
2, 355296, Note_on_c, 0, 71, 97
2, 355296, Note_on_c, 0, 45, 97
2, 355389, Note_on_c, 0, 45, 0
2, 355389, Note_on_c, 0, 71, 0
2, 355392, Note_on_c, 0, 69, 97
2, 355392, Note_on_c, 0, 54, 97
2, 355485, Note_on_c, 0, 54, 0
2, 355488, Note_on_c, 0, 52, 97
2, 355581, Note_on_c, 0, 52, 0
2, 355581, Note_on_c, 0, 76, 0
2, 355584, Note_on_c, 0, 54, 97
2, 355584, Note_on_c, 0, 74, 97
2, 355677, Note_on_c, 0, 54, 0
2, 355680, Note_on_c, 0, 57, 97
2, 355760, Note_on_c, 0, 74, 0
2, 355772, Note_on_c, 0, 69, 0
2, 355773, Note_on_c, 0, 57, 0
2, 355776, Note_on_c, 0, 50, 97
2, 355776, Note_on_c, 0, 78, 97
2, 355869, Note_on_c, 0, 50, 0
2, 355872, Note_on_c, 0, 54, 97
2, 355965, Note_on_c, 0, 54, 0
2, 355968, Note_on_c, 0, 56, 97
2, 356061, Note_on_c, 0, 56, 0
2, 356064, Note_on_c, 0, 54, 97
2, 356157, Note_on_c, 0, 54, 0
2, 356157, Note_on_c, 0, 78, 0
2, 356160, Note_on_c, 0, 56, 97
2, 356160, Note_on_c, 0, 76, 97
2, 356253, Note_on_c, 0, 56, 0
2, 356256, Note_on_c, 0, 59, 97
2, 356336, Note_on_c, 0, 76, 0
2, 356349, Note_on_c, 0, 59, 0
2, 356352, Note_on_c, 0, 52, 97
2, 356352, Note_on_c, 0, 74, 97
2, 356445, Note_on_c, 0, 52, 0
2, 356448, Note_on_c, 0, 56, 97
2, 356541, Note_on_c, 0, 56, 0
2, 356544, Note_on_c, 0, 58, 97
2, 356637, Note_on_c, 0, 58, 0
2, 356640, Note_on_c, 0, 56, 97
2, 356733, Note_on_c, 0, 56, 0
2, 356733, Note_on_c, 0, 74, 0
2, 356736, Note_on_c, 0, 58, 97
2, 356736, Note_on_c, 0, 73, 97
2, 356829, Note_on_c, 0, 58, 0
2, 356832, Note_on_c, 0, 61, 97
2, 356912, Note_on_c, 0, 73, 0
2, 356925, Note_on_c, 0, 61, 0
2, 356928, Note_on_c, 0, 54, 97
2, 356928, Note_on_c, 0, 76, 97
2, 357021, Note_on_c, 0, 54, 0
2, 357024, Note_on_c, 0, 58, 97
2, 357117, Note_on_c, 0, 58, 0
2, 357120, Note_on_c, 0, 59, 97
2, 357213, Note_on_c, 0, 59, 0
2, 357216, Note_on_c, 0, 58, 97
2, 357309, Note_on_c, 0, 58, 0
2, 357309, Note_on_c, 0, 76, 0
2, 357312, Note_on_c, 0, 59, 97
2, 357312, Note_on_c, 0, 74, 97
2, 357405, Note_on_c, 0, 59, 0
2, 357408, Note_on_c, 0, 62, 97
2, 357488, Note_on_c, 0, 74, 0
2, 357501, Note_on_c, 0, 62, 0
2, 357504, Note_on_c, 0, 54, 97
2, 357504, Note_on_c, 0, 72, 97
2, 357597, Note_on_c, 0, 54, 0
2, 357600, Note_on_c, 0, 57, 97
2, 357693, Note_on_c, 0, 57, 0
2, 357696, Note_on_c, 0, 56, 97
2, 357789, Note_on_c, 0, 56, 0
2, 357792, Note_on_c, 0, 54, 97
2, 357885, Note_on_c, 0, 54, 0
2, 357885, Note_on_c, 0, 72, 0
2, 357888, Note_on_c, 0, 56, 97
2, 357888, Note_on_c, 0, 71, 97
2, 357981, Note_on_c, 0, 56, 0
2, 357984, Note_on_c, 0, 59, 97
2, 358064, Note_on_c, 0, 71, 0
2, 358077, Note_on_c, 0, 59, 0
2, 358080, Note_on_c, 0, 52, 97
2, 358080, Note_on_c, 0, 74, 97
2, 358173, Note_on_c, 0, 52, 0
2, 358176, Note_on_c, 0, 56, 97
2, 358269, Note_on_c, 0, 56, 0
2, 358272, Note_on_c, 0, 57, 97
2, 358365, Note_on_c, 0, 57, 0
2, 358368, Note_on_c, 0, 56, 97
2, 358461, Note_on_c, 0, 56, 0
2, 358461, Note_on_c, 0, 74, 0
2, 358464, Note_on_c, 0, 57, 97
2, 358464, Note_on_c, 0, 72, 97
2, 358557, Note_on_c, 0, 57, 0
2, 358560, Note_on_c, 0, 60, 97
2, 358640, Note_on_c, 0, 72, 0
2, 358653, Note_on_c, 0, 60, 0
2, 358656, Note_on_c, 0, 52, 97
2, 358656, Note_on_c, 0, 71, 97
2, 358749, Note_on_c, 0, 52, 0
2, 358752, Note_on_c, 0, 55, 97
2, 358845, Note_on_c, 0, 55, 0
2, 358848, Note_on_c, 0, 54, 97
2, 358941, Note_on_c, 0, 54, 0
2, 358944, Note_on_c, 0, 52, 97
2, 359037, Note_on_c, 0, 52, 0
2, 359037, Note_on_c, 0, 71, 0
2, 359040, Note_on_c, 0, 54, 97
2, 359040, Note_on_c, 0, 69, 97
2, 359133, Note_on_c, 0, 54, 0
2, 359136, Note_on_c, 0, 57, 97
2, 359216, Note_on_c, 0, 69, 0
2, 359229, Note_on_c, 0, 57, 0
2, 359232, Note_on_c, 0, 50, 97
2, 359232, Note_on_c, 0, 72, 97
2, 359325, Note_on_c, 0, 50, 0
2, 359328, Note_on_c, 0, 54, 97
2, 359421, Note_on_c, 0, 54, 0
2, 359424, Note_on_c, 0, 55, 97
2, 359517, Note_on_c, 0, 55, 0
2, 359520, Note_on_c, 0, 54, 97
2, 359613, Note_on_c, 0, 54, 0
2, 359613, Note_on_c, 0, 72, 0
2, 359616, Note_on_c, 0, 55, 97
2, 359616, Note_on_c, 0, 71, 97
2, 359709, Note_on_c, 0, 55, 0
2, 359712, Note_on_c, 0, 57, 97
2, 359792, Note_on_c, 0, 71, 0
2, 359805, Note_on_c, 0, 57, 0
2, 359808, Note_on_c, 0, 66, 97
2, 359808, Note_on_c, 0, 59, 97
2, 359808, Note_on_c, 0, 74, 97
2, 359901, Note_on_c, 0, 59, 0
2, 359904, Note_on_c, 0, 55, 97
2, 359997, Note_on_c, 0, 55, 0
2, 360000, Note_on_c, 0, 57, 97
2, 360093, Note_on_c, 0, 57, 0
2, 360096, Note_on_c, 0, 55, 97
2, 360189, Note_on_c, 0, 55, 0
2, 360189, Note_on_c, 0, 74, 0
2, 360189, Note_on_c, 0, 66, 0
2, 360192, Note_on_c, 0, 64, 97
2, 360192, Note_on_c, 0, 57, 97
2, 360192, Note_on_c, 0, 73, 97
2, 360285, Note_on_c, 0, 57, 0
2, 360288, Note_on_c, 0, 59, 97
2, 360368, Note_on_c, 0, 73, 0
2, 360368, Note_on_c, 0, 64, 0
2, 360381, Note_on_c, 0, 59, 0
2, 360384, Note_on_c, 0, 69, 97
2, 360384, Note_on_c, 0, 61, 97
2, 360384, Note_on_c, 0, 81, 97
2, 360477, Note_on_c, 0, 61, 0
2, 360480, Note_on_c, 0, 57, 97
2, 360573, Note_on_c, 0, 57, 0
2, 360573, Note_on_c, 0, 69, 0
2, 360576, Note_on_c, 0, 71, 97
2, 360576, Note_on_c, 0, 62, 97
2, 360669, Note_on_c, 0, 62, 0
2, 360672, Note_on_c, 0, 59, 97
2, 360765, Note_on_c, 0, 59, 0
2, 360765, Note_on_c, 0, 81, 0
2, 360768, Note_on_c, 0, 64, 97
2, 360768, Note_on_c, 0, 79, 97
2, 360861, Note_on_c, 0, 71, 0
2, 360864, Note_on_c, 0, 67, 97
2, 360957, Note_on_c, 0, 67, 0
2, 360957, Note_on_c, 0, 64, 0
2, 360958, Note_on_c, 0, 79, 0
2, 360960, Note_on_c, 0, 64, 97
2, 360960, Note_on_c, 0, 55, 97
2, 361053, Note_on_c, 0, 64, 0
2, 361056, Note_on_c, 0, 61, 97
2, 361149, Note_on_c, 0, 61, 0
2, 361152, Note_on_c, 0, 69, 97
2, 361152, Note_on_c, 0, 73, 97
2, 361245, Note_on_c, 0, 55, 0
2, 361248, Note_on_c, 0, 52, 97
2, 361292, Note_on_c, 0, 69, 0
2, 361341, Note_on_c, 0, 52, 0
2, 361341, Note_on_c, 0, 73, 0
2, 361344, Note_on_c, 0, 62, 97
2, 361344, Note_on_c, 0, 54, 97
2, 361344, Note_on_c, 0, 69, 97
2, 361437, Note_on_c, 0, 54, 0
2, 361440, Note_on_c, 0, 57, 97
2, 361484, Note_on_c, 0, 62, 0
2, 361533, Note_on_c, 0, 57, 0
2, 361533, Note_on_c, 0, 69, 0
2, 361536, Note_on_c, 0, 55, 97
2, 361536, Note_on_c, 0, 74, 97
2, 361629, Note_on_c, 0, 55, 0
2, 361632, Note_on_c, 0, 54, 97
2, 361725, Note_on_c, 0, 54, 0
2, 361728, Note_on_c, 0, 67, 97
2, 361728, Note_on_c, 0, 52, 97
2, 361821, Note_on_c, 0, 52, 0
2, 361824, Note_on_c, 0, 45, 97
2, 361917, Note_on_c, 0, 45, 0
2, 361917, Note_on_c, 0, 74, 0
2, 361920, Note_on_c, 0, 57, 97
2, 361920, Note_on_c, 0, 73, 97
2, 362013, Note_on_c, 0, 57, 0
2, 362013, Note_on_c, 0, 67, 0
2, 362016, Note_on_c, 0, 64, 97
2, 362016, Note_on_c, 0, 55, 97
2, 362109, Note_on_c, 0, 55, 0
2, 362109, Note_on_c, 0, 64, 0
2, 362110, Note_on_c, 0, 73, 0
2, 362112, Note_on_c, 0, 61, 97
2, 362112, Note_on_c, 0, 54, 97
2, 362205, Note_on_c, 0, 54, 0
2, 362205, Note_on_c, 0, 61, 0
2, 362208, Note_on_c, 0, 57, 97
2, 362208, Note_on_c, 0, 52, 97
2, 362301, Note_on_c, 0, 52, 0
2, 362301, Note_on_c, 0, 57, 0
2, 362304, Note_on_c, 0, 66, 97
2, 362304, Note_on_c, 0, 50, 97
2, 362304, Note_on_c, 0, 74, 97
2, 362397, Note_on_c, 0, 66, 0
2, 362400, Note_on_c, 0, 64, 97
2, 362493, Note_on_c, 0, 64, 0
2, 362493, Note_on_c, 0, 50, 0
2, 362496, Note_on_c, 0, 66, 97
2, 362496, Note_on_c, 0, 57, 97
2, 362589, Note_on_c, 0, 66, 0
2, 362592, Note_on_c, 0, 69, 97
2, 362661, Note_on_c, 0, 57, 0
2, 362685, Note_on_c, 0, 69, 0
2, 362688, Note_on_c, 0, 62, 97
2, 362688, Note_on_c, 0, 59, 97
2, 362781, Note_on_c, 0, 62, 0
2, 362784, Note_on_c, 0, 66, 97
2, 362853, Note_on_c, 0, 59, 0
2, 362877, Note_on_c, 0, 66, 0
2, 362880, Note_on_c, 0, 67, 97
2, 362880, Note_on_c, 0, 52, 97
2, 362973, Note_on_c, 0, 74, 0
2, 362976, Note_on_c, 0, 72, 97
2, 363069, Note_on_c, 0, 72, 0
2, 363069, Note_on_c, 0, 52, 0
2, 363072, Note_on_c, 0, 47, 97
2, 363072, Note_on_c, 0, 74, 97
2, 363165, Note_on_c, 0, 74, 0
2, 363168, Note_on_c, 0, 76, 97
2, 363237, Note_on_c, 0, 47, 0
2, 363261, Note_on_c, 0, 76, 0
2, 363264, Note_on_c, 0, 43, 97
2, 363264, Note_on_c, 0, 71, 97
2, 363357, Note_on_c, 0, 71, 0
2, 363360, Note_on_c, 0, 74, 97
2, 363429, Note_on_c, 0, 43, 0
2, 363453, Note_on_c, 0, 74, 0
2, 363456, Note_on_c, 0, 40, 97
2, 363456, Note_on_c, 0, 72, 97
2, 363549, Note_on_c, 0, 67, 0
2, 363552, Note_on_c, 0, 66, 97
2, 363645, Note_on_c, 0, 66, 0
2, 363645, Note_on_c, 0, 40, 0
2, 363648, Note_on_c, 0, 67, 97
2, 363648, Note_on_c, 0, 59, 97
2, 363741, Note_on_c, 0, 67, 0
2, 363744, Note_on_c, 0, 71, 97
2, 363813, Note_on_c, 0, 59, 0
2, 363837, Note_on_c, 0, 71, 0
2, 363840, Note_on_c, 0, 64, 97
2, 363840, Note_on_c, 0, 60, 97
2, 363933, Note_on_c, 0, 64, 0
2, 363936, Note_on_c, 0, 67, 97
2, 364005, Note_on_c, 0, 60, 0
2, 364029, Note_on_c, 0, 67, 0
2, 364032, Note_on_c, 0, 69, 97
2, 364032, Note_on_c, 0, 54, 97
2, 364125, Note_on_c, 0, 72, 0
2, 364128, Note_on_c, 0, 71, 97
2, 364221, Note_on_c, 0, 71, 0
2, 364221, Note_on_c, 0, 54, 0
2, 364224, Note_on_c, 0, 50, 97
2, 364224, Note_on_c, 0, 72, 97
2, 364317, Note_on_c, 0, 72, 0
2, 364320, Note_on_c, 0, 74, 97
2, 364412, Note_on_c, 0, 69, 0
2, 364413, Note_on_c, 0, 74, 0
2, 364413, Note_on_c, 0, 50, 0
2, 364416, Note_on_c, 0, 52, 97
2, 364416, Note_on_c, 0, 69, 97
2, 364512, Note_on_c, 0, 72, 97
2, 364605, Note_on_c, 0, 72, 0
2, 364605, Note_on_c, 0, 52, 0
2, 364606, Note_on_c, 0, 69, 0
2, 364608, Note_on_c, 0, 67, 97
2, 364608, Note_on_c, 0, 53, 97
2, 364608, Note_on_c, 0, 71, 97
2, 364701, Note_on_c, 0, 71, 0
2, 364704, Note_on_c, 0, 69, 97
2, 364797, Note_on_c, 0, 69, 0
2, 364797, Note_on_c, 0, 53, 0
2, 364800, Note_on_c, 0, 52, 97
2, 364800, Note_on_c, 0, 71, 97
2, 364893, Note_on_c, 0, 71, 0
2, 364896, Note_on_c, 0, 72, 97
2, 364989, Note_on_c, 0, 72, 0
2, 364989, Note_on_c, 0, 52, 0
2, 364992, Note_on_c, 0, 50, 97
2, 364992, Note_on_c, 0, 74, 97
2, 365085, Note_on_c, 0, 74, 0
2, 365088, Note_on_c, 0, 71, 97
2, 365181, Note_on_c, 0, 71, 0
2, 365181, Note_on_c, 0, 50, 0
2, 365184, Note_on_c, 0, 48, 97
2, 365184, Note_on_c, 0, 76, 97
2, 365277, Note_on_c, 0, 67, 0
2, 365280, Note_on_c, 0, 55, 97
2, 365373, Note_on_c, 0, 55, 0
2, 365376, Note_on_c, 0, 60, 97
2, 365469, Note_on_c, 0, 76, 0
2, 365469, Note_on_c, 0, 48, 0
2, 365472, Note_on_c, 0, 57, 97
2, 365472, Note_on_c, 0, 72, 97
2, 365565, Note_on_c, 0, 72, 0
2, 365565, Note_on_c, 0, 57, 0
2, 365568, Note_on_c, 0, 54, 97
2, 365568, Note_on_c, 0, 69, 97
2, 365661, Note_on_c, 0, 69, 0
2, 365661, Note_on_c, 0, 54, 0
2, 365664, Note_on_c, 0, 57, 97
2, 365664, Note_on_c, 0, 66, 97
2, 365757, Note_on_c, 0, 66, 0
2, 365757, Note_on_c, 0, 57, 0
2, 365760, Note_on_c, 0, 47, 97
2, 365760, Note_on_c, 0, 74, 97
2, 365853, Note_on_c, 0, 60, 0
2, 365856, Note_on_c, 0, 57, 97
2, 365900, Note_on_c, 0, 74, 0
2, 365949, Note_on_c, 0, 57, 0
2, 365952, Note_on_c, 0, 59, 97
2, 365952, Note_on_c, 0, 67, 97
2, 366045, Note_on_c, 0, 47, 0
2, 366048, Note_on_c, 0, 55, 97
2, 366092, Note_on_c, 0, 67, 0
2, 366141, Note_on_c, 0, 55, 0
2, 366144, Note_on_c, 0, 52, 97
2, 366237, Note_on_c, 0, 52, 0
2, 366240, Note_on_c, 0, 55, 97
2, 366333, Note_on_c, 0, 55, 0
2, 366336, Note_on_c, 0, 45, 97
2, 366336, Note_on_c, 0, 72, 97
2, 366429, Note_on_c, 0, 59, 0
2, 366432, Note_on_c, 0, 55, 97
2, 366525, Note_on_c, 0, 55, 0
2, 366528, Note_on_c, 0, 57, 97
2, 366621, Note_on_c, 0, 72, 0
2, 366621, Note_on_c, 0, 45, 0
2, 366624, Note_on_c, 0, 54, 97
2, 366624, Note_on_c, 0, 69, 97
2, 366717, Note_on_c, 0, 69, 0
2, 366717, Note_on_c, 0, 54, 0
2, 366720, Note_on_c, 0, 50, 97
2, 366720, Note_on_c, 0, 66, 97
2, 366813, Note_on_c, 0, 66, 0
2, 366813, Note_on_c, 0, 50, 0
2, 366816, Note_on_c, 0, 54, 97
2, 366816, Note_on_c, 0, 62, 97
2, 366909, Note_on_c, 0, 62, 0
2, 366909, Note_on_c, 0, 54, 0
2, 366912, Note_on_c, 0, 43, 97
2, 366912, Note_on_c, 0, 71, 97
2, 367005, Note_on_c, 0, 57, 0
2, 367008, Note_on_c, 0, 54, 97
2, 367052, Note_on_c, 0, 71, 0
2, 367101, Note_on_c, 0, 54, 0
2, 367104, Note_on_c, 0, 55, 97
2, 367104, Note_on_c, 0, 64, 97
2, 367197, Note_on_c, 0, 43, 0
2, 367200, Note_on_c, 0, 52, 97
2, 367244, Note_on_c, 0, 64, 0
2, 367293, Note_on_c, 0, 52, 0
2, 367296, Note_on_c, 0, 49, 97
2, 367389, Note_on_c, 0, 49, 0
2, 367392, Note_on_c, 0, 52, 97
2, 367485, Note_on_c, 0, 52, 0
2, 367488, Note_on_c, 0, 42, 97
2, 367488, Note_on_c, 0, 69, 97
2, 367581, Note_on_c, 0, 55, 0
2, 367584, Note_on_c, 0, 52, 97
2, 367677, Note_on_c, 0, 52, 0
2, 367680, Note_on_c, 0, 54, 97
2, 367773, Note_on_c, 0, 69, 0
2, 367773, Note_on_c, 0, 42, 0
2, 367776, Note_on_c, 0, 50, 97
2, 367776, Note_on_c, 0, 66, 97
2, 367869, Note_on_c, 0, 66, 0
2, 367869, Note_on_c, 0, 50, 0
2, 367872, Note_on_c, 0, 47, 97
2, 367872, Note_on_c, 0, 62, 97
2, 367965, Note_on_c, 0, 62, 0
2, 367965, Note_on_c, 0, 47, 0
2, 367968, Note_on_c, 0, 50, 97
2, 367968, Note_on_c, 0, 59, 97
2, 368061, Note_on_c, 0, 59, 0
2, 368061, Note_on_c, 0, 50, 0
2, 368064, Note_on_c, 0, 40, 97
2, 368064, Note_on_c, 0, 67, 97
2, 368157, Note_on_c, 0, 54, 0
2, 368160, Note_on_c, 0, 50, 97
2, 368204, Note_on_c, 0, 67, 0
2, 368253, Note_on_c, 0, 50, 0
2, 368256, Note_on_c, 0, 52, 97
2, 368256, Note_on_c, 0, 61, 97
2, 368349, Note_on_c, 0, 40, 0
2, 368352, Note_on_c, 0, 49, 97
2, 368396, Note_on_c, 0, 61, 0
2, 368445, Note_on_c, 0, 49, 0
2, 368446, Note_on_c, 0, 52, 0
2, 368448, Note_on_c, 0, 45, 97
2, 368541, Note_on_c, 0, 45, 0
2, 368544, Note_on_c, 0, 49, 97
2, 368637, Note_on_c, 0, 49, 0
2, 368640, Note_on_c, 0, 38, 97
2, 368736, Note_on_c, 0, 64, 97
2, 368829, Note_on_c, 0, 64, 0
2, 368829, Note_on_c, 0, 38, 0
2, 368832, Note_on_c, 0, 45, 97
2, 368832, Note_on_c, 0, 66, 97
2, 368925, Note_on_c, 0, 66, 0
2, 368928, Note_on_c, 0, 69, 97
2, 368997, Note_on_c, 0, 45, 0
2, 369021, Note_on_c, 0, 69, 0
2, 369024, Note_on_c, 0, 47, 97
2, 369024, Note_on_c, 0, 62, 97
2, 369117, Note_on_c, 0, 62, 0
2, 369120, Note_on_c, 0, 66, 97
2, 369189, Note_on_c, 0, 47, 0
2, 369213, Note_on_c, 0, 66, 0
2, 369216, Note_on_c, 0, 40, 97
2, 369216, Note_on_c, 0, 67, 97
2, 369309, Note_on_c, 0, 67, 0
2, 369312, Note_on_c, 0, 66, 97
2, 369405, Note_on_c, 0, 66, 0
2, 369405, Note_on_c, 0, 40, 0
2, 369408, Note_on_c, 0, 47, 97
2, 369408, Note_on_c, 0, 67, 97
2, 369501, Note_on_c, 0, 67, 0
2, 369504, Note_on_c, 0, 71, 97
2, 369573, Note_on_c, 0, 47, 0
2, 369597, Note_on_c, 0, 71, 0
2, 369600, Note_on_c, 0, 48, 97
2, 369600, Note_on_c, 0, 64, 97
2, 369693, Note_on_c, 0, 64, 0
2, 369696, Note_on_c, 0, 67, 97
2, 369765, Note_on_c, 0, 48, 0
2, 369789, Note_on_c, 0, 67, 0
2, 369792, Note_on_c, 0, 42, 97
2, 369792, Note_on_c, 0, 69, 97
2, 369885, Note_on_c, 0, 69, 0
2, 369888, Note_on_c, 0, 67, 97
2, 369981, Note_on_c, 0, 67, 0
2, 369981, Note_on_c, 0, 42, 0
2, 369984, Note_on_c, 0, 48, 97
2, 369984, Note_on_c, 0, 69, 97
2, 370077, Note_on_c, 0, 69, 0
2, 370080, Note_on_c, 0, 72, 97
2, 370149, Note_on_c, 0, 48, 0
2, 370173, Note_on_c, 0, 72, 0
2, 370176, Note_on_c, 0, 50, 97
2, 370176, Note_on_c, 0, 66, 97
2, 370269, Note_on_c, 0, 66, 0
2, 370272, Note_on_c, 0, 69, 97
2, 370341, Note_on_c, 0, 50, 0
2, 370365, Note_on_c, 0, 69, 0
2, 370368, Note_on_c, 0, 43, 97
2, 370368, Note_on_c, 0, 71, 97
2, 370461, Note_on_c, 0, 71, 0
2, 370464, Note_on_c, 0, 69, 97
2, 370557, Note_on_c, 0, 69, 0
2, 370557, Note_on_c, 0, 43, 0
2, 370560, Note_on_c, 0, 50, 97
2, 370560, Note_on_c, 0, 71, 97
2, 370653, Note_on_c, 0, 71, 0
2, 370656, Note_on_c, 0, 73, 97
2, 370725, Note_on_c, 0, 50, 0
2, 370749, Note_on_c, 0, 73, 0
2, 370752, Note_on_c, 0, 52, 97
2, 370752, Note_on_c, 0, 74, 97
2, 370845, Note_on_c, 0, 74, 0
2, 370848, Note_on_c, 0, 71, 97
2, 370917, Note_on_c, 0, 52, 0
2, 370941, Note_on_c, 0, 71, 0
2, 370944, Note_on_c, 0, 45, 97
2, 370944, Note_on_c, 0, 73, 97
2, 371037, Note_on_c, 0, 45, 0
2, 371040, Note_on_c, 0, 54, 97
2, 371133, Note_on_c, 0, 54, 0
2, 371133, Note_on_c, 0, 73, 0
2, 371136, Note_on_c, 0, 55, 97
2, 371136, Note_on_c, 0, 69, 97
2, 371229, Note_on_c, 0, 55, 0
2, 371232, Note_on_c, 0, 57, 97
2, 371312, Note_on_c, 0, 69, 0
2, 371325, Note_on_c, 0, 57, 0
2, 371328, Note_on_c, 0, 52, 97
2, 371328, Note_on_c, 0, 76, 97
2, 371421, Note_on_c, 0, 52, 0
2, 371424, Note_on_c, 0, 55, 97
2, 371517, Note_on_c, 0, 55, 0
2, 371520, Note_on_c, 0, 54, 97
2, 371613, Note_on_c, 0, 54, 0
2, 371616, Note_on_c, 0, 52, 97
2, 371709, Note_on_c, 0, 52, 0
2, 371709, Note_on_c, 0, 76, 0
2, 371712, Note_on_c, 0, 54, 97
2, 371712, Note_on_c, 0, 74, 97
2, 371805, Note_on_c, 0, 54, 0
2, 371808, Note_on_c, 0, 57, 97
2, 371888, Note_on_c, 0, 74, 0
2, 371901, Note_on_c, 0, 57, 0
2, 371904, Note_on_c, 0, 74, 97
2, 371904, Note_on_c, 0, 50, 97
2, 371904, Note_on_c, 0, 78, 97
2, 371997, Note_on_c, 0, 50, 0
2, 372000, Note_on_c, 0, 54, 97
2, 372093, Note_on_c, 0, 54, 0
2, 372096, Note_on_c, 0, 52, 97
2, 372189, Note_on_c, 0, 52, 0
2, 372192, Note_on_c, 0, 50, 97
2, 372285, Note_on_c, 0, 50, 0
2, 372285, Note_on_c, 0, 78, 0
2, 372285, Note_on_c, 0, 74, 0
2, 372288, Note_on_c, 0, 73, 97
2, 372288, Note_on_c, 0, 52, 97
2, 372288, Note_on_c, 0, 76, 97
2, 372381, Note_on_c, 0, 52, 0
2, 372384, Note_on_c, 0, 55, 97
2, 372464, Note_on_c, 0, 76, 0
2, 372464, Note_on_c, 0, 73, 0
2, 372477, Note_on_c, 0, 55, 0
2, 372480, Note_on_c, 0, 76, 97
2, 372480, Note_on_c, 0, 49, 97
2, 372480, Note_on_c, 0, 79, 97
2, 372573, Note_on_c, 0, 49, 0
2, 372576, Note_on_c, 0, 52, 97
2, 372669, Note_on_c, 0, 52, 0
2, 372672, Note_on_c, 0, 50, 97
2, 372765, Note_on_c, 0, 50, 0
2, 372768, Note_on_c, 0, 49, 97
2, 372861, Note_on_c, 0, 49, 0
2, 372861, Note_on_c, 0, 79, 0
2, 372861, Note_on_c, 0, 76, 0
2, 372864, Note_on_c, 0, 74, 97
2, 372864, Note_on_c, 0, 50, 97
2, 372864, Note_on_c, 0, 78, 97
2, 372957, Note_on_c, 0, 50, 0
2, 372960, Note_on_c, 0, 54, 97
2, 373040, Note_on_c, 0, 78, 0
2, 373040, Note_on_c, 0, 74, 0
2, 373053, Note_on_c, 0, 54, 0
2, 373056, Note_on_c, 0, 78, 97
2, 373056, Note_on_c, 0, 47, 97
2, 373056, Note_on_c, 0, 81, 97
2, 373149, Note_on_c, 0, 47, 0
2, 373152, Note_on_c, 0, 50, 97
2, 373245, Note_on_c, 0, 50, 0
2, 373245, Note_on_c, 0, 81, 0
2, 373248, Note_on_c, 0, 43, 97
2, 373248, Note_on_c, 0, 83, 97
2, 373341, Note_on_c, 0, 78, 0
2, 373344, Note_on_c, 0, 74, 97
2, 373437, Note_on_c, 0, 74, 0
2, 373437, Note_on_c, 0, 43, 0
2, 373440, Note_on_c, 0, 76, 97
2, 373440, Note_on_c, 0, 55, 97
2, 373533, Note_on_c, 0, 83, 0
2, 373536, Note_on_c, 0, 79, 97
2, 373629, Note_on_c, 0, 79, 0
2, 373629, Note_on_c, 0, 76, 0
2, 373630, Note_on_c, 0, 55, 0
2, 373632, Note_on_c, 0, 67, 97
2, 373632, Note_on_c, 0, 76, 97
2, 373725, Note_on_c, 0, 76, 0
2, 373728, Note_on_c, 0, 73, 97
2, 373821, Note_on_c, 0, 73, 0
2, 373824, Note_on_c, 0, 81, 97
2, 373917, Note_on_c, 0, 67, 0
2, 373920, Note_on_c, 0, 64, 97
2, 373964, Note_on_c, 0, 81, 0
2, 374013, Note_on_c, 0, 64, 0
2, 374016, Note_on_c, 0, 66, 97
2, 374016, Note_on_c, 0, 74, 97
2, 374109, Note_on_c, 0, 66, 0
2, 374112, Note_on_c, 0, 69, 97
2, 374156, Note_on_c, 0, 74, 0
2, 374205, Note_on_c, 0, 69, 0
2, 374208, Note_on_c, 0, 62, 97
2, 374208, Note_on_c, 0, 54, 97
2, 374301, Note_on_c, 0, 62, 0
2, 374304, Note_on_c, 0, 66, 97
2, 374397, Note_on_c, 0, 66, 0
2, 374400, Note_on_c, 0, 71, 97
2, 374400, Note_on_c, 0, 79, 97
2, 374493, Note_on_c, 0, 54, 0
2, 374496, Note_on_c, 0, 50, 97
2, 374589, Note_on_c, 0, 50, 0
2, 374589, Note_on_c, 0, 71, 0
2, 374592, Note_on_c, 0, 73, 97
2, 374592, Note_on_c, 0, 52, 97
2, 374685, Note_on_c, 0, 52, 0
2, 374685, Note_on_c, 0, 79, 0
2, 374688, Note_on_c, 0, 55, 97
2, 374688, Note_on_c, 0, 76, 97
2, 374781, Note_on_c, 0, 76, 0
2, 374781, Note_on_c, 0, 55, 0
2, 374782, Note_on_c, 0, 73, 0
2, 374784, Note_on_c, 0, 45, 97
2, 374784, Note_on_c, 0, 73, 97
2, 374877, Note_on_c, 0, 73, 0
2, 374877, Note_on_c, 0, 45, 0
2, 374880, Note_on_c, 0, 49, 97
2, 374880, Note_on_c, 0, 69, 97
2, 374973, Note_on_c, 0, 69, 0
2, 374973, Note_on_c, 0, 49, 0
2, 374976, Note_on_c, 0, 50, 97
2, 374976, Note_on_c, 0, 78, 97
2, 375069, Note_on_c, 0, 50, 0
2, 375072, Note_on_c, 0, 52, 97
2, 375165, Note_on_c, 0, 52, 0
2, 375165, Note_on_c, 0, 78, 0
2, 375168, Note_on_c, 0, 74, 97
2, 375168, Note_on_c, 0, 69, 97
2, 375168, Note_on_c, 0, 54, 97
2, 375261, Note_on_c, 0, 54, 0
2, 375264, Note_on_c, 0, 57, 97
2, 375357, Note_on_c, 0, 57, 0
2, 375357, Note_on_c, 0, 69, 0
2, 375357, Note_on_c, 0, 74, 0
2, 375360, Note_on_c, 0, 69, 97
2, 375360, Note_on_c, 0, 50, 97
2, 375360, Note_on_c, 0, 72, 97
2, 375453, Note_on_c, 0, 50, 0
2, 375456, Note_on_c, 0, 54, 97
2, 375549, Note_on_c, 0, 54, 0
2, 375549, Note_on_c, 0, 72, 0
2, 375552, Note_on_c, 0, 55, 97
2, 375552, Note_on_c, 0, 71, 97
2, 375645, Note_on_c, 0, 55, 0
2, 375645, Note_on_c, 0, 69, 0
2, 375648, Note_on_c, 0, 67, 97
2, 375648, Note_on_c, 0, 52, 97
2, 375741, Note_on_c, 0, 52, 0
2, 375741, Note_on_c, 0, 71, 0
2, 375744, Note_on_c, 0, 49, 97
2, 375744, Note_on_c, 0, 76, 97
2, 375837, Note_on_c, 0, 49, 0
2, 375840, Note_on_c, 0, 52, 97
2, 375933, Note_on_c, 0, 52, 0
2, 375933, Note_on_c, 0, 76, 0
2, 375933, Note_on_c, 0, 67, 0
2, 375936, Note_on_c, 0, 64, 97
2, 375936, Note_on_c, 0, 45, 97
2, 375936, Note_on_c, 0, 67, 97
2, 376029, Note_on_c, 0, 45, 0
2, 376032, Note_on_c, 0, 49, 97
2, 376125, Note_on_c, 0, 49, 0
2, 376128, Note_on_c, 0, 38, 97
2, 376317, Note_on_c, 0, 38, 0
2, 376317, Note_on_c, 0, 67, 0
2, 376317, Note_on_c, 0, 64, 0
2, 376318, Note_on_c, 0, 50, 97
2, 376320, Note_on_c, 0, 66, 97
2, 376320, Note_on_c, 0, 62, 97
2, 376490, Note_on_c, 0, 62, 0
2, 376490, Note_on_c, 0, 66, 0
2, 376507, Note_on_c, 0, 50, 0
2, 376524, Note_on_c, 0, 57, 97
2, 376704, Note_on_c, 0, 57, 0
2, 376715, Note_on_c, 0, 50, 97
2, 376855, Note_on_c, 0, 50, 0
2, 376906, Note_on_c, 0, 55, 97
2, 377046, Note_on_c, 0, 55, 0
2, 377376, Note_on_c, 0, 55, 97
2, 377469, Note_on_c, 0, 55, 0
2, 377472, Note_on_c, 0, 54, 97
2, 377565, Note_on_c, 0, 54, 0
2, 377568, Note_on_c, 0, 52, 97
2, 377661, Note_on_c, 0, 52, 0
2, 377664, Note_on_c, 0, 54, 97
2, 377757, Note_on_c, 0, 54, 0
2, 377760, Note_on_c, 0, 50, 97
2, 377853, Note_on_c, 0, 50, 0
2, 377856, Note_on_c, 0, 47, 97
2, 377949, Note_on_c, 0, 47, 0
2, 377952, Note_on_c, 0, 49, 97
2, 378045, Note_on_c, 0, 49, 0
2, 378048, Note_on_c, 0, 50, 97
2, 378109, Note_on_c, 0, 50, 0
2, 378112, Note_on_c, 0, 49, 97
2, 378173, Note_on_c, 0, 49, 0
2, 378176, Note_on_c, 0, 50, 97
2, 378237, Note_on_c, 0, 50, 0
2, 378240, Note_on_c, 0, 49, 97
2, 378301, Note_on_c, 0, 49, 0
2, 378304, Note_on_c, 0, 47, 97
2, 378365, Note_on_c, 0, 47, 0
2, 378368, Note_on_c, 0, 49, 97
2, 378429, Note_on_c, 0, 49, 0
2, 378432, Note_on_c, 0, 50, 97
2, 378525, Note_on_c, 0, 50, 0
2, 378528, Note_on_c, 0, 49, 97
2, 378621, Note_on_c, 0, 49, 0
2, 378624, Note_on_c, 0, 50, 97
2, 378717, Note_on_c, 0, 50, 0
2, 378720, Note_on_c, 0, 52, 97
2, 378813, Note_on_c, 0, 52, 0
2, 378816, Note_on_c, 0, 62, 97
2, 378816, Note_on_c, 0, 54, 97
2, 378909, Note_on_c, 0, 54, 0
2, 378912, Note_on_c, 0, 50, 97
2, 379005, Note_on_c, 0, 50, 0
2, 379005, Note_on_c, 0, 62, 0
2, 379008, Note_on_c, 0, 55, 97
2, 379008, Note_on_c, 0, 52, 97
2, 379101, Note_on_c, 0, 52, 0
2, 379104, Note_on_c, 0, 50, 97
2, 379148, Note_on_c, 0, 55, 0
2, 379197, Note_on_c, 0, 50, 0
2, 379200, Note_on_c, 0, 60, 97
2, 379200, Note_on_c, 0, 52, 97
2, 379293, Note_on_c, 0, 52, 0
2, 379296, Note_on_c, 0, 54, 97
2, 379340, Note_on_c, 0, 60, 0
2, 379389, Note_on_c, 0, 54, 0
2, 379392, Note_on_c, 0, 55, 97
2, 379485, Note_on_c, 0, 55, 0
2, 379488, Note_on_c, 0, 52, 97
2, 379581, Note_on_c, 0, 52, 0
2, 379584, Note_on_c, 0, 54, 97
2, 379680, Note_on_c, 0, 60, 97
2, 379773, Note_on_c, 0, 60, 0
2, 379773, Note_on_c, 0, 54, 0
2, 379776, Note_on_c, 0, 59, 97
2, 379776, Note_on_c, 0, 50, 97
2, 379869, Note_on_c, 0, 59, 0
2, 379872, Note_on_c, 0, 57, 97
2, 379965, Note_on_c, 0, 57, 0
2, 379965, Note_on_c, 0, 50, 0
2, 379968, Note_on_c, 0, 59, 97
2, 379968, Note_on_c, 0, 55, 97
2, 380061, Note_on_c, 0, 59, 0
2, 380063, Note_on_c, 0, 55, 0
2, 380064, Note_on_c, 0, 55, 97
2, 380157, Note_on_c, 0, 55, 0
2, 380160, Note_on_c, 0, 52, 97
2, 380253, Note_on_c, 0, 52, 0
2, 380256, Note_on_c, 0, 54, 97
2, 380256, Note_on_c, 0, 50, 97
2, 380349, Note_on_c, 0, 50, 0
2, 380349, Note_on_c, 0, 54, 0
2, 380352, Note_on_c, 0, 55, 97
2, 380352, Note_on_c, 0, 48, 97
2, 380397, Note_on_c, 0, 55, 0
2, 380400, Note_on_c, 0, 54, 97
2, 380445, Note_on_c, 0, 54, 0
2, 380445, Note_on_c, 0, 48, 0
2, 380448, Note_on_c, 0, 55, 97
2, 380448, Note_on_c, 0, 47, 97
2, 380493, Note_on_c, 0, 55, 0
2, 380496, Note_on_c, 0, 54, 97
2, 380541, Note_on_c, 0, 54, 0
2, 380541, Note_on_c, 0, 47, 0
2, 380544, Note_on_c, 0, 55, 97
2, 380544, Note_on_c, 0, 48, 97
2, 380589, Note_on_c, 0, 55, 0
2, 380592, Note_on_c, 0, 54, 97
2, 380637, Note_on_c, 0, 54, 0
2, 380637, Note_on_c, 0, 48, 0
2, 380640, Note_on_c, 0, 52, 97
2, 380640, Note_on_c, 0, 45, 97
2, 380685, Note_on_c, 0, 52, 0
2, 380688, Note_on_c, 0, 54, 97
2, 380733, Note_on_c, 0, 54, 0
2, 380733, Note_on_c, 0, 45, 0
2, 380736, Note_on_c, 0, 55, 97
2, 380736, Note_on_c, 0, 47, 97
2, 380829, Note_on_c, 0, 47, 0
2, 380832, Note_on_c, 0, 52, 97
2, 380896, Note_on_c, 0, 55, 0
2, 380925, Note_on_c, 0, 52, 0
2, 380928, Note_on_c, 0, 57, 97
2, 380928, Note_on_c, 0, 50, 97
2, 380973, Note_on_c, 0, 57, 0
2, 380976, Note_on_c, 0, 56, 97
2, 381021, Note_on_c, 0, 56, 0
2, 381021, Note_on_c, 0, 50, 0
2, 381024, Note_on_c, 0, 57, 97
2, 381024, Note_on_c, 0, 49, 97
2, 381069, Note_on_c, 0, 57, 0
2, 381072, Note_on_c, 0, 56, 97
2, 381117, Note_on_c, 0, 56, 0
2, 381117, Note_on_c, 0, 49, 0
2, 381120, Note_on_c, 0, 57, 97
2, 381120, Note_on_c, 0, 50, 97
2, 381165, Note_on_c, 0, 57, 0
2, 381168, Note_on_c, 0, 56, 97
2, 381213, Note_on_c, 0, 56, 0
2, 381213, Note_on_c, 0, 50, 0
2, 381216, Note_on_c, 0, 54, 97
2, 381216, Note_on_c, 0, 47, 97
2, 381261, Note_on_c, 0, 54, 0
2, 381264, Note_on_c, 0, 56, 97
2, 381309, Note_on_c, 0, 56, 0
2, 381309, Note_on_c, 0, 47, 0
2, 381312, Note_on_c, 0, 57, 97
2, 381312, Note_on_c, 0, 49, 97
2, 381405, Note_on_c, 0, 57, 0
2, 381408, Note_on_c, 0, 59, 97
2, 381472, Note_on_c, 0, 49, 0
2, 381501, Note_on_c, 0, 59, 0
2, 381504, Note_on_c, 0, 57, 97
2, 381504, Note_on_c, 0, 52, 97
2, 381565, Note_on_c, 0, 52, 0
2, 381568, Note_on_c, 0, 51, 97
2, 381597, Note_on_c, 0, 57, 0
2, 381600, Note_on_c, 0, 55, 97
2, 381629, Note_on_c, 0, 51, 0
2, 381632, Note_on_c, 0, 52, 97
2, 381693, Note_on_c, 0, 52, 0
2, 381693, Note_on_c, 0, 55, 0
2, 381696, Note_on_c, 0, 57, 97
2, 381696, Note_on_c, 0, 51, 97
2, 381757, Note_on_c, 0, 51, 0
2, 381760, Note_on_c, 0, 49, 97
2, 381789, Note_on_c, 0, 57, 0
2, 381792, Note_on_c, 0, 54, 97
2, 381821, Note_on_c, 0, 49, 0
2, 381824, Note_on_c, 0, 51, 97
2, 381885, Note_on_c, 0, 51, 0
2, 381885, Note_on_c, 0, 54, 0
2, 381888, Note_on_c, 0, 55, 97
2, 381888, Note_on_c, 0, 52, 97
2, 381963, Note_on_c, 0, 55, 0
2, 381981, Note_on_c, 0, 52, 0
2, 381984, Note_on_c, 0, 59, 97
2, 381984, Note_on_c, 0, 54, 97
2, 382077, Note_on_c, 0, 54, 0
2, 382077, Note_on_c, 0, 59, 0
2, 382080, Note_on_c, 0, 57, 97
2, 382080, Note_on_c, 0, 55, 97
2, 382141, Note_on_c, 0, 55, 0
2, 382144, Note_on_c, 0, 54, 97
2, 382173, Note_on_c, 0, 57, 0
2, 382176, Note_on_c, 0, 59, 97
2, 382205, Note_on_c, 0, 54, 0
2, 382208, Note_on_c, 0, 55, 97
2, 382269, Note_on_c, 0, 55, 0
2, 382269, Note_on_c, 0, 59, 0
2, 382272, Note_on_c, 0, 60, 97
2, 382272, Note_on_c, 0, 54, 97
2, 382272, Note_on_c, 0, 69, 97
2, 382333, Note_on_c, 0, 54, 0
2, 382336, Note_on_c, 0, 52, 97
2, 382365, Note_on_c, 0, 60, 0
2, 382368, Note_on_c, 0, 57, 97
2, 382397, Note_on_c, 0, 52, 0
2, 382400, Note_on_c, 0, 54, 97
2, 382461, Note_on_c, 0, 54, 0
2, 382461, Note_on_c, 0, 57, 0
2, 382461, Note_on_c, 0, 69, 0
2, 382464, Note_on_c, 0, 59, 97
2, 382464, Note_on_c, 0, 55, 97
2, 382464, Note_on_c, 0, 62, 97
2, 382557, Note_on_c, 0, 59, 0
2, 382560, Note_on_c, 0, 57, 97
2, 382604, Note_on_c, 0, 62, 0
2, 382653, Note_on_c, 0, 57, 0
2, 382653, Note_on_c, 0, 55, 0
2, 382656, Note_on_c, 0, 59, 97
2, 382656, Note_on_c, 0, 52, 97
2, 382656, Note_on_c, 0, 67, 97
2, 382749, Note_on_c, 0, 59, 0
2, 382752, Note_on_c, 0, 61, 97
2, 382796, Note_on_c, 0, 67, 0
2, 382845, Note_on_c, 0, 61, 0
2, 382846, Note_on_c, 0, 52, 0
2, 382848, Note_on_c, 0, 62, 97
2, 382941, Note_on_c, 0, 62, 0
2, 382944, Note_on_c, 0, 59, 97
2, 383037, Note_on_c, 0, 59, 0
2, 383040, Note_on_c, 0, 61, 97
2, 383040, Note_on_c, 0, 57, 97
2, 383136, Note_on_c, 0, 67, 97
2, 383229, Note_on_c, 0, 67, 0
2, 383229, Note_on_c, 0, 57, 0
2, 383229, Note_on_c, 0, 61, 0
2, 383232, Note_on_c, 0, 57, 97
2, 383232, Note_on_c, 0, 50, 97
2, 383232, Note_on_c, 0, 66, 97
2, 383325, Note_on_c, 0, 66, 0
2, 383328, Note_on_c, 0, 64, 97
2, 383421, Note_on_c, 0, 64, 0
2, 383421, Note_on_c, 0, 57, 0
2, 383422, Note_on_c, 0, 50, 0
2, 383424, Note_on_c, 0, 62, 97
2, 383424, Note_on_c, 0, 66, 97
2, 383517, Note_on_c, 0, 66, 0
2, 383517, Note_on_c, 0, 62, 0
2, 383520, Note_on_c, 0, 62, 97
2, 383613, Note_on_c, 0, 62, 0
2, 383616, Note_on_c, 0, 43, 97
2, 383616, Note_on_c, 0, 59, 97
2, 383712, Note_on_c, 0, 57, 97
2, 383763, Note_on_c, 0, 59, 0
2, 383766, Note_on_c, 0, 61, 97
2, 383805, Note_on_c, 0, 61, 0
2, 383805, Note_on_c, 0, 57, 0
2, 383805, Note_on_c, 0, 43, 0
2, 383808, Note_on_c, 0, 55, 97
2, 383808, Note_on_c, 0, 45, 97
2, 383808, Note_on_c, 0, 62, 97
2, 383845, Note_on_c, 0, 62, 0
2, 383848, Note_on_c, 0, 61, 97
2, 383885, Note_on_c, 0, 61, 0
2, 383888, Note_on_c, 0, 62, 97
2, 383901, Note_on_c, 0, 55, 0
2, 383904, Note_on_c, 0, 54, 97
2, 383925, Note_on_c, 0, 62, 0
2, 383928, Note_on_c, 0, 61, 97
2, 383965, Note_on_c, 0, 61, 0
2, 383968, Note_on_c, 0, 62, 97
2, 383997, Note_on_c, 0, 62, 0
2, 383997, Note_on_c, 0, 54, 0
2, 383998, Note_on_c, 0, 45, 0
2, 384000, Note_on_c, 0, 55, 97
2, 384000, Note_on_c, 0, 61, 97
2, 384037, Note_on_c, 0, 61, 0
2, 384040, Note_on_c, 0, 62, 97
2, 384077, Note_on_c, 0, 62, 0
2, 384080, Note_on_c, 0, 61, 97
2, 384093, Note_on_c, 0, 55, 0
2, 384096, Note_on_c, 0, 52, 97
2, 384117, Note_on_c, 0, 61, 0
2, 384120, Note_on_c, 0, 59, 97
2, 384157, Note_on_c, 0, 59, 0
2, 384160, Note_on_c, 0, 61, 97
2, 384189, Note_on_c, 0, 61, 0
2, 384189, Note_on_c, 0, 52, 0
2, 384192, Note_on_c, 0, 54, 97
2, 384192, Note_on_c, 0, 50, 97
2, 384192, Note_on_c, 0, 62, 97
2, 384285, Note_on_c, 0, 62, 0
2, 384285, Note_on_c, 0, 54, 0
2, 384288, Note_on_c, 0, 56, 97
2, 384288, Note_on_c, 0, 64, 97
2, 384381, Note_on_c, 0, 64, 0
2, 384381, Note_on_c, 0, 56, 0
2, 384381, Note_on_c, 0, 50, 0
2, 384384, Note_on_c, 0, 57, 97
2, 384384, Note_on_c, 0, 47, 97
2, 384384, Note_on_c, 0, 62, 97
2, 384429, Note_on_c, 0, 57, 0
2, 384432, Note_on_c, 0, 56, 97
2, 384477, Note_on_c, 0, 56, 0
2, 384477, Note_on_c, 0, 62, 0
2, 384480, Note_on_c, 0, 57, 97
2, 384480, Note_on_c, 0, 61, 97
2, 384525, Note_on_c, 0, 57, 0
2, 384528, Note_on_c, 0, 56, 97
2, 384573, Note_on_c, 0, 56, 0
2, 384573, Note_on_c, 0, 61, 0
2, 384574, Note_on_c, 0, 47, 0
2, 384576, Note_on_c, 0, 57, 97
2, 384576, Note_on_c, 0, 62, 97
2, 384621, Note_on_c, 0, 57, 0
2, 384624, Note_on_c, 0, 56, 97
2, 384669, Note_on_c, 0, 56, 0
2, 384669, Note_on_c, 0, 62, 0
2, 384672, Note_on_c, 0, 54, 97
2, 384672, Note_on_c, 0, 59, 97
2, 384717, Note_on_c, 0, 54, 0
2, 384720, Note_on_c, 0, 56, 97
2, 384765, Note_on_c, 0, 56, 0
2, 384765, Note_on_c, 0, 59, 0
2, 384768, Note_on_c, 0, 57, 97
2, 384768, Note_on_c, 0, 61, 97
2, 384864, Note_on_c, 0, 47, 97
2, 384915, Note_on_c, 0, 61, 0
2, 384918, Note_on_c, 0, 63, 97
2, 384957, Note_on_c, 0, 63, 0
2, 384957, Note_on_c, 0, 47, 0
2, 384957, Note_on_c, 0, 57, 0
2, 384960, Note_on_c, 0, 54, 97
2, 384960, Note_on_c, 0, 45, 97
2, 384960, Note_on_c, 0, 64, 97
2, 384997, Note_on_c, 0, 64, 0
2, 385000, Note_on_c, 0, 63, 97
2, 385037, Note_on_c, 0, 63, 0
2, 385040, Note_on_c, 0, 64, 97
2, 385053, Note_on_c, 0, 45, 0
2, 385056, Note_on_c, 0, 43, 97
2, 385077, Note_on_c, 0, 64, 0
2, 385080, Note_on_c, 0, 63, 97
2, 385117, Note_on_c, 0, 63, 0
2, 385120, Note_on_c, 0, 64, 97
2, 385149, Note_on_c, 0, 64, 0
2, 385149, Note_on_c, 0, 43, 0
2, 385152, Note_on_c, 0, 45, 97
2, 385152, Note_on_c, 0, 63, 97
2, 385189, Note_on_c, 0, 63, 0
2, 385192, Note_on_c, 0, 64, 97
2, 385229, Note_on_c, 0, 64, 0
2, 385232, Note_on_c, 0, 63, 97
2, 385245, Note_on_c, 0, 45, 0
2, 385248, Note_on_c, 0, 42, 97
2, 385269, Note_on_c, 0, 63, 0
2, 385272, Note_on_c, 0, 61, 97
2, 385309, Note_on_c, 0, 61, 0
2, 385312, Note_on_c, 0, 63, 97
2, 385341, Note_on_c, 0, 63, 0
2, 385341, Note_on_c, 0, 42, 0
2, 385341, Note_on_c, 0, 54, 0
2, 385344, Note_on_c, 0, 52, 97
2, 385344, Note_on_c, 0, 43, 97
2, 385344, Note_on_c, 0, 64, 97
2, 385437, Note_on_c, 0, 64, 0
2, 385440, Note_on_c, 0, 71, 97
2, 385533, Note_on_c, 0, 71, 0
2, 385533, Note_on_c, 0, 43, 0
2, 385534, Note_on_c, 0, 52, 0
2, 385536, Note_on_c, 0, 45, 97
2, 385536, Note_on_c, 0, 69, 97
2, 385629, Note_on_c, 0, 69, 0
2, 385632, Note_on_c, 0, 67, 97
2, 385725, Note_on_c, 0, 67, 0
2, 385725, Note_on_c, 0, 45, 0
2, 385728, Note_on_c, 0, 47, 97
2, 385728, Note_on_c, 0, 69, 97
2, 385821, Note_on_c, 0, 69, 0
2, 385824, Note_on_c, 0, 66, 97
2, 385917, Note_on_c, 0, 66, 0
2, 385917, Note_on_c, 0, 47, 0
2, 385920, Note_on_c, 0, 40, 97
2, 385920, Note_on_c, 0, 67, 97
2, 386013, Note_on_c, 0, 67, 0
2, 386016, Note_on_c, 0, 64, 97
2, 386109, Note_on_c, 0, 64, 0
2, 386112, Note_on_c, 0, 62, 97
2, 386112, Note_on_c, 0, 69, 97
2, 386149, Note_on_c, 0, 69, 0
2, 386152, Note_on_c, 0, 68, 97
2, 386189, Note_on_c, 0, 68, 0
2, 386192, Note_on_c, 0, 69, 97
2, 386205, Note_on_c, 0, 62, 0
2, 386208, Note_on_c, 0, 60, 97
2, 386229, Note_on_c, 0, 69, 0
2, 386232, Note_on_c, 0, 68, 97
2, 386269, Note_on_c, 0, 68, 0
2, 386272, Note_on_c, 0, 69, 97
2, 386300, Note_on_c, 0, 40, 0
2, 386301, Note_on_c, 0, 69, 0
2, 386301, Note_on_c, 0, 60, 0
2, 386304, Note_on_c, 0, 62, 97
2, 386304, Note_on_c, 0, 68, 97
2, 386341, Note_on_c, 0, 68, 0
2, 386344, Note_on_c, 0, 69, 97
2, 386381, Note_on_c, 0, 69, 0
2, 386384, Note_on_c, 0, 68, 97
2, 386397, Note_on_c, 0, 62, 0
2, 386400, Note_on_c, 0, 59, 97
2, 386421, Note_on_c, 0, 68, 0
2, 386424, Note_on_c, 0, 66, 97
2, 386461, Note_on_c, 0, 66, 0
2, 386464, Note_on_c, 0, 68, 97
2, 386493, Note_on_c, 0, 68, 0
2, 386493, Note_on_c, 0, 59, 0
2, 386496, Note_on_c, 0, 60, 97
2, 386496, Note_on_c, 0, 69, 97
2, 386589, Note_on_c, 0, 69, 0
2, 386592, Note_on_c, 0, 76, 97
2, 386685, Note_on_c, 0, 76, 0
2, 386685, Note_on_c, 0, 60, 0
2, 386688, Note_on_c, 0, 62, 97
2, 386688, Note_on_c, 0, 74, 97
2, 386781, Note_on_c, 0, 74, 0
2, 386784, Note_on_c, 0, 72, 97
2, 386877, Note_on_c, 0, 72, 0
2, 386877, Note_on_c, 0, 62, 0
2, 386880, Note_on_c, 0, 64, 97
2, 386880, Note_on_c, 0, 74, 97
2, 386973, Note_on_c, 0, 74, 0
2, 386976, Note_on_c, 0, 71, 97
2, 387069, Note_on_c, 0, 71, 0
2, 387069, Note_on_c, 0, 64, 0
2, 387072, Note_on_c, 0, 57, 97
2, 387072, Note_on_c, 0, 72, 97
2, 387165, Note_on_c, 0, 72, 0
2, 387168, Note_on_c, 0, 81, 97
2, 387212, Note_on_c, 0, 57, 0
2, 387261, Note_on_c, 0, 81, 0
2, 387264, Note_on_c, 0, 62, 97
2, 387264, Note_on_c, 0, 79, 97
2, 387357, Note_on_c, 0, 79, 0
2, 387360, Note_on_c, 0, 77, 97
2, 387404, Note_on_c, 0, 62, 0
2, 387453, Note_on_c, 0, 77, 0
2, 387456, Note_on_c, 0, 79, 97
2, 387549, Note_on_c, 0, 79, 0
2, 387552, Note_on_c, 0, 76, 97
2, 387645, Note_on_c, 0, 76, 0
2, 387648, Note_on_c, 0, 77, 97
2, 387744, Note_on_c, 0, 62, 97
2, 387837, Note_on_c, 0, 62, 0
2, 387837, Note_on_c, 0, 77, 0
2, 387840, Note_on_c, 0, 60, 97
2, 387840, Note_on_c, 0, 68, 97
2, 387933, Note_on_c, 0, 60, 0
2, 387936, Note_on_c, 0, 59, 97
2, 388029, Note_on_c, 0, 59, 0
2, 388029, Note_on_c, 0, 68, 0
2, 388032, Note_on_c, 0, 60, 97
2, 388032, Note_on_c, 0, 69, 97
2, 388125, Note_on_c, 0, 60, 0
2, 388128, Note_on_c, 0, 57, 97
2, 388221, Note_on_c, 0, 57, 0
2, 388222, Note_on_c, 0, 69, 0
2, 388224, Note_on_c, 0, 54, 97
2, 388317, Note_on_c, 0, 54, 0
2, 388320, Note_on_c, 0, 56, 97
2, 388320, Note_on_c, 0, 84, 97
2, 388413, Note_on_c, 0, 84, 0
2, 388413, Note_on_c, 0, 56, 0
2, 388416, Note_on_c, 0, 57, 97
2, 388416, Note_on_c, 0, 83, 97
2, 388461, Note_on_c, 0, 57, 0
2, 388464, Note_on_c, 0, 56, 97
2, 388509, Note_on_c, 0, 56, 0
2, 388509, Note_on_c, 0, 83, 0
2, 388512, Note_on_c, 0, 57, 97
2, 388512, Note_on_c, 0, 81, 97
2, 388557, Note_on_c, 0, 57, 0
2, 388560, Note_on_c, 0, 56, 97
2, 388605, Note_on_c, 0, 56, 0
2, 388605, Note_on_c, 0, 81, 0
2, 388608, Note_on_c, 0, 57, 97
2, 388608, Note_on_c, 0, 83, 97
2, 388653, Note_on_c, 0, 57, 0
2, 388656, Note_on_c, 0, 56, 97
2, 388701, Note_on_c, 0, 56, 0
2, 388701, Note_on_c, 0, 83, 0
2, 388704, Note_on_c, 0, 54, 97
2, 388704, Note_on_c, 0, 74, 97
2, 388749, Note_on_c, 0, 54, 0
2, 388752, Note_on_c, 0, 56, 97
2, 388797, Note_on_c, 0, 56, 0
2, 388797, Note_on_c, 0, 74, 0
2, 388800, Note_on_c, 0, 57, 97
2, 388800, Note_on_c, 0, 72, 97
2, 388893, Note_on_c, 0, 72, 0
2, 388896, Note_on_c, 0, 83, 97
2, 388989, Note_on_c, 0, 83, 0
2, 388989, Note_on_c, 0, 57, 0
2, 388992, Note_on_c, 0, 60, 97
2, 388992, Note_on_c, 0, 81, 97
2, 389085, Note_on_c, 0, 81, 0
2, 389088, Note_on_c, 0, 80, 97
2, 389181, Note_on_c, 0, 80, 0
2, 389181, Note_on_c, 0, 60, 0
2, 389184, Note_on_c, 0, 64, 97
2, 389184, Note_on_c, 0, 81, 97
2, 389277, Note_on_c, 0, 81, 0
2, 389280, Note_on_c, 0, 72, 97
2, 389373, Note_on_c, 0, 72, 0
2, 389373, Note_on_c, 0, 64, 0
2, 389376, Note_on_c, 0, 63, 97
2, 389376, Note_on_c, 0, 71, 97
2, 389469, Note_on_c, 0, 71, 0
2, 389472, Note_on_c, 0, 81, 97
2, 389565, Note_on_c, 0, 81, 0
2, 389565, Note_on_c, 0, 63, 0
2, 389568, Note_on_c, 0, 71, 97
2, 389568, Note_on_c, 0, 79, 97
2, 389661, Note_on_c, 0, 79, 0
2, 389664, Note_on_c, 0, 78, 97
2, 389757, Note_on_c, 0, 78, 0
2, 389757, Note_on_c, 0, 71, 0
2, 389760, Note_on_c, 0, 64, 97
2, 389760, Note_on_c, 0, 79, 97
2, 389853, Note_on_c, 0, 79, 0
2, 389856, Note_on_c, 0, 71, 97
2, 389949, Note_on_c, 0, 71, 0
2, 389949, Note_on_c, 0, 64, 0
2, 389952, Note_on_c, 0, 69, 97
2, 389952, Note_on_c, 0, 72, 97
2, 390045, Note_on_c, 0, 72, 0
2, 390045, Note_on_c, 0, 69, 0
2, 390048, Note_on_c, 0, 71, 97
2, 390048, Note_on_c, 0, 79, 97
2, 390141, Note_on_c, 0, 79, 0
2, 390141, Note_on_c, 0, 71, 0
2, 390144, Note_on_c, 0, 69, 97
2, 390144, Note_on_c, 0, 78, 97
2, 390237, Note_on_c, 0, 78, 0
2, 390237, Note_on_c, 0, 69, 0
2, 390240, Note_on_c, 0, 67, 97
2, 390240, Note_on_c, 0, 76, 97
2, 390333, Note_on_c, 0, 76, 0
2, 390333, Note_on_c, 0, 67, 0
2, 390336, Note_on_c, 0, 69, 97
2, 390336, Note_on_c, 0, 78, 97
2, 390429, Note_on_c, 0, 78, 0
2, 390429, Note_on_c, 0, 69, 0
2, 390432, Note_on_c, 0, 66, 97
2, 390432, Note_on_c, 0, 81, 97
2, 390525, Note_on_c, 0, 81, 0
2, 390525, Note_on_c, 0, 66, 0
2, 390528, Note_on_c, 0, 71, 97
2, 390528, Note_on_c, 0, 75, 97
2, 390621, Note_on_c, 0, 71, 0
2, 390624, Note_on_c, 0, 69, 97
2, 390675, Note_on_c, 0, 75, 0
2, 390678, Note_on_c, 0, 76, 97
2, 390717, Note_on_c, 0, 76, 0
2, 390717, Note_on_c, 0, 69, 0
2, 390720, Note_on_c, 0, 67, 97
2, 390720, Note_on_c, 0, 78, 97
2, 390757, Note_on_c, 0, 78, 0
2, 390760, Note_on_c, 0, 76, 97
2, 390797, Note_on_c, 0, 76, 0
2, 390800, Note_on_c, 0, 78, 97
2, 390813, Note_on_c, 0, 67, 0
2, 390816, Note_on_c, 0, 66, 97
2, 390837, Note_on_c, 0, 78, 0
2, 390840, Note_on_c, 0, 76, 97
2, 390877, Note_on_c, 0, 76, 0
2, 390880, Note_on_c, 0, 78, 97
2, 390909, Note_on_c, 0, 78, 0
2, 390909, Note_on_c, 0, 66, 0
2, 390912, Note_on_c, 0, 67, 97
2, 390912, Note_on_c, 0, 76, 97
2, 390949, Note_on_c, 0, 76, 0
2, 390952, Note_on_c, 0, 78, 97
2, 390989, Note_on_c, 0, 78, 0
2, 390992, Note_on_c, 0, 76, 97
2, 391005, Note_on_c, 0, 67, 0
2, 391008, Note_on_c, 0, 64, 97
2, 391029, Note_on_c, 0, 76, 0
2, 391032, Note_on_c, 0, 75, 97
2, 391069, Note_on_c, 0, 75, 0
2, 391072, Note_on_c, 0, 76, 97
2, 391101, Note_on_c, 0, 76, 0
2, 391101, Note_on_c, 0, 64, 0
2, 391104, Note_on_c, 0, 63, 97
2, 391104, Note_on_c, 0, 78, 97
2, 391197, Note_on_c, 0, 78, 0
2, 391200, Note_on_c, 0, 76, 97
2, 391293, Note_on_c, 0, 76, 0
2, 391293, Note_on_c, 0, 63, 0
2, 391296, Note_on_c, 0, 66, 97
2, 391296, Note_on_c, 0, 78, 97
2, 391389, Note_on_c, 0, 78, 0
2, 391392, Note_on_c, 0, 81, 97
2, 391485, Note_on_c, 0, 81, 0
2, 391485, Note_on_c, 0, 66, 0
2, 391488, Note_on_c, 0, 71, 97
2, 391488, Note_on_c, 0, 59, 97
2, 391488, Note_on_c, 0, 79, 97
2, 391581, Note_on_c, 0, 79, 0
2, 391584, Note_on_c, 0, 78, 97
2, 391677, Note_on_c, 0, 78, 0
2, 391677, Note_on_c, 0, 59, 0
2, 391680, Note_on_c, 0, 60, 97
2, 391680, Note_on_c, 0, 76, 97
2, 391820, Note_on_c, 0, 76, 0
2, 391869, Note_on_c, 0, 71, 0
2, 391872, Note_on_c, 0, 69, 97
2, 391872, Note_on_c, 0, 81, 97
2, 391965, Note_on_c, 0, 60, 0
2, 391968, Note_on_c, 0, 57, 97
2, 392012, Note_on_c, 0, 81, 0
2, 392061, Note_on_c, 0, 57, 0
2, 392061, Note_on_c, 0, 69, 0
2, 392064, Note_on_c, 0, 72, 97
2, 392064, Note_on_c, 0, 54, 97
2, 392157, Note_on_c, 0, 54, 0
2, 392160, Note_on_c, 0, 50, 97
2, 392253, Note_on_c, 0, 50, 0
2, 392253, Note_on_c, 0, 72, 0
2, 392256, Note_on_c, 0, 63, 97
2, 392256, Note_on_c, 0, 59, 97
2, 392352, Note_on_c, 0, 81, 97
2, 392396, Note_on_c, 0, 59, 0
2, 392445, Note_on_c, 0, 81, 0
2, 392448, Note_on_c, 0, 59, 97
2, 392448, Note_on_c, 0, 52, 97
2, 392448, Note_on_c, 0, 79, 97
2, 392486, Note_on_c, 0, 63, 0
2, 392541, Note_on_c, 0, 79, 0
2, 392544, Note_on_c, 0, 78, 97
2, 392588, Note_on_c, 0, 52, 0
2, 392637, Note_on_c, 0, 78, 0
2, 392639, Note_on_c, 0, 59, 0
2, 392640, Note_on_c, 0, 64, 97
2, 392640, Note_on_c, 0, 79, 97
2, 392733, Note_on_c, 0, 79, 0
2, 392736, Note_on_c, 0, 76, 97
2, 392829, Note_on_c, 0, 76, 0
2, 392829, Note_on_c, 0, 64, 0
2, 392832, Note_on_c, 0, 64, 97
2, 392832, Note_on_c, 0, 57, 97
2, 392832, Note_on_c, 0, 73, 97
2, 392979, Note_on_c, 0, 73, 0
2, 392982, Note_on_c, 0, 75, 97
2, 393021, Note_on_c, 0, 75, 0
2, 393021, Note_on_c, 0, 64, 0
2, 393024, Note_on_c, 0, 66, 97
2, 393024, Note_on_c, 0, 76, 97
2, 393061, Note_on_c, 0, 76, 0
2, 393064, Note_on_c, 0, 75, 97
2, 393101, Note_on_c, 0, 75, 0
2, 393104, Note_on_c, 0, 76, 97
2, 393117, Note_on_c, 0, 57, 0
2, 393120, Note_on_c, 0, 54, 97
2, 393141, Note_on_c, 0, 76, 0
2, 393144, Note_on_c, 0, 75, 97
2, 393181, Note_on_c, 0, 75, 0
2, 393184, Note_on_c, 0, 76, 97
2, 393213, Note_on_c, 0, 76, 0
2, 393213, Note_on_c, 0, 54, 0
2, 393216, Note_on_c, 0, 51, 97
2, 393216, Note_on_c, 0, 75, 97
2, 393253, Note_on_c, 0, 75, 0
2, 393256, Note_on_c, 0, 76, 97
2, 393293, Note_on_c, 0, 76, 0
2, 393296, Note_on_c, 0, 75, 97
2, 393309, Note_on_c, 0, 51, 0
2, 393312, Note_on_c, 0, 47, 97
2, 393333, Note_on_c, 0, 75, 0
2, 393336, Note_on_c, 0, 73, 97
2, 393373, Note_on_c, 0, 73, 0
2, 393376, Note_on_c, 0, 75, 97
2, 393405, Note_on_c, 0, 75, 0
2, 393405, Note_on_c, 0, 47, 0
2, 393405, Note_on_c, 0, 66, 0
2, 393408, Note_on_c, 0, 59, 97
2, 393408, Note_on_c, 0, 55, 97
2, 393408, Note_on_c, 0, 76, 97
2, 393501, Note_on_c, 0, 76, 0
2, 393501, Note_on_c, 0, 55, 0
2, 393504, Note_on_c, 0, 54, 97
2, 393504, Note_on_c, 0, 75, 97
2, 393597, Note_on_c, 0, 75, 0
2, 393597, Note_on_c, 0, 54, 0
2, 393598, Note_on_c, 0, 59, 0
2, 393600, Note_on_c, 0, 55, 97
2, 393600, Note_on_c, 0, 76, 97
2, 393693, Note_on_c, 0, 76, 0
2, 393693, Note_on_c, 0, 55, 0
2, 393696, Note_on_c, 0, 59, 97
2, 393696, Note_on_c, 0, 79, 97
2, 393789, Note_on_c, 0, 79, 0
2, 393789, Note_on_c, 0, 59, 0
2, 393792, Note_on_c, 0, 51, 97
2, 393792, Note_on_c, 0, 78, 97
2, 393885, Note_on_c, 0, 78, 0
2, 393885, Note_on_c, 0, 51, 0
2, 393888, Note_on_c, 0, 54, 97
2, 393888, Note_on_c, 0, 81, 97
2, 393981, Note_on_c, 0, 81, 0
2, 393981, Note_on_c, 0, 54, 0
2, 393984, Note_on_c, 0, 52, 97
2, 393984, Note_on_c, 0, 79, 97
2, 394077, Note_on_c, 0, 79, 0
2, 394080, Note_on_c, 0, 78, 97
2, 394173, Note_on_c, 0, 78, 0
2, 394173, Note_on_c, 0, 52, 0
2, 394176, Note_on_c, 0, 59, 97
2, 394176, Note_on_c, 0, 79, 97
2, 394269, Note_on_c, 0, 79, 0
2, 394272, Note_on_c, 0, 83, 97
2, 394341, Note_on_c, 0, 59, 0
2, 394365, Note_on_c, 0, 83, 0
2, 394368, Note_on_c, 0, 60, 97
2, 394368, Note_on_c, 0, 76, 97
2, 394461, Note_on_c, 0, 76, 0
2, 394464, Note_on_c, 0, 80, 97
2, 394533, Note_on_c, 0, 60, 0
2, 394557, Note_on_c, 0, 80, 0
2, 394560, Note_on_c, 0, 54, 97
2, 394560, Note_on_c, 0, 81, 97
2, 394653, Note_on_c, 0, 81, 0
2, 394656, Note_on_c, 0, 80, 97
2, 394749, Note_on_c, 0, 80, 0
2, 394749, Note_on_c, 0, 54, 0
2, 394752, Note_on_c, 0, 60, 97
2, 394752, Note_on_c, 0, 81, 97
2, 394845, Note_on_c, 0, 81, 0
2, 394848, Note_on_c, 0, 84, 97
2, 394917, Note_on_c, 0, 60, 0
2, 394941, Note_on_c, 0, 84, 0
2, 394944, Note_on_c, 0, 62, 97
2, 394944, Note_on_c, 0, 78, 97
2, 395037, Note_on_c, 0, 78, 0
2, 395040, Note_on_c, 0, 81, 97
2, 395109, Note_on_c, 0, 62, 0
2, 395133, Note_on_c, 0, 81, 0
2, 395136, Note_on_c, 0, 56, 97
2, 395136, Note_on_c, 0, 83, 97
2, 395229, Note_on_c, 0, 83, 0
2, 395232, Note_on_c, 0, 81, 97
2, 395325, Note_on_c, 0, 81, 0
2, 395325, Note_on_c, 0, 56, 0
2, 395328, Note_on_c, 0, 62, 97
2, 395328, Note_on_c, 0, 83, 97
2, 395421, Note_on_c, 0, 83, 0
2, 395424, Note_on_c, 0, 86, 97
2, 395493, Note_on_c, 0, 62, 0
2, 395517, Note_on_c, 0, 86, 0
2, 395520, Note_on_c, 0, 64, 97
2, 395520, Note_on_c, 0, 80, 97
2, 395613, Note_on_c, 0, 80, 0
2, 395616, Note_on_c, 0, 83, 97
2, 395685, Note_on_c, 0, 64, 0
2, 395709, Note_on_c, 0, 83, 0
2, 395712, Note_on_c, 0, 57, 97
2, 395712, Note_on_c, 0, 84, 97
2, 395805, Note_on_c, 0, 84, 0
2, 395808, Note_on_c, 0, 83, 97
2, 395901, Note_on_c, 0, 83, 0
2, 395901, Note_on_c, 0, 57, 0
2, 395904, Note_on_c, 0, 59, 97
2, 395904, Note_on_c, 0, 81, 97
2, 395997, Note_on_c, 0, 81, 0
2, 396000, Note_on_c, 0, 79, 97
2, 396069, Note_on_c, 0, 59, 0
2, 396093, Note_on_c, 0, 79, 0
2, 396096, Note_on_c, 0, 60, 97
2, 396096, Note_on_c, 0, 81, 97
2, 396189, Note_on_c, 0, 81, 0
2, 396192, Note_on_c, 0, 76, 97
2, 396285, Note_on_c, 0, 76, 0
2, 396288, Note_on_c, 0, 69, 97
2, 396288, Note_on_c, 0, 77, 97
2, 396428, Note_on_c, 0, 69, 0
2, 396477, Note_on_c, 0, 60, 0
2, 396480, Note_on_c, 0, 74, 97
2, 396480, Note_on_c, 0, 59, 97
2, 396573, Note_on_c, 0, 77, 0
2, 396576, Note_on_c, 0, 86, 97
2, 396620, Note_on_c, 0, 74, 0
2, 396669, Note_on_c, 0, 86, 0
2, 396669, Note_on_c, 0, 59, 0
2, 396672, Note_on_c, 0, 57, 97
2, 396672, Note_on_c, 0, 83, 97
2, 396765, Note_on_c, 0, 83, 0
2, 396768, Note_on_c, 0, 80, 97
2, 396861, Note_on_c, 0, 80, 0
2, 396861, Note_on_c, 0, 57, 0
2, 396864, Note_on_c, 0, 56, 97
2, 396864, Note_on_c, 0, 76, 97
2, 396960, Note_on_c, 0, 74, 97
2, 397053, Note_on_c, 0, 74, 0
2, 397053, Note_on_c, 0, 76, 0
2, 397053, Note_on_c, 0, 56, 0
2, 397056, Note_on_c, 0, 72, 97
2, 397056, Note_on_c, 0, 57, 97
2, 397056, Note_on_c, 0, 81, 97
2, 397149, Note_on_c, 0, 72, 0
2, 397152, Note_on_c, 0, 71, 97
2, 397245, Note_on_c, 0, 71, 0
2, 397246, Note_on_c, 0, 81, 0
2, 397246, Note_on_c, 0, 57, 0
2, 397248, Note_on_c, 0, 72, 97
2, 397341, Note_on_c, 0, 72, 0
2, 397344, Note_on_c, 0, 69, 97
2, 397437, Note_on_c, 0, 69, 0
2, 397440, Note_on_c, 0, 66, 97
2, 397440, Note_on_c, 0, 74, 97
2, 397533, Note_on_c, 0, 66, 0
2, 397536, Note_on_c, 0, 68, 97
2, 397629, Note_on_c, 0, 68, 0
2, 397632, Note_on_c, 0, 69, 97
2, 397677, Note_on_c, 0, 69, 0
2, 397680, Note_on_c, 0, 68, 97
2, 397725, Note_on_c, 0, 68, 0
2, 397725, Note_on_c, 0, 74, 0
2, 397728, Note_on_c, 0, 69, 97
2, 397728, Note_on_c, 0, 83, 97
2, 397773, Note_on_c, 0, 69, 0
2, 397776, Note_on_c, 0, 68, 97
2, 397821, Note_on_c, 0, 68, 0
2, 397821, Note_on_c, 0, 83, 0
2, 397824, Note_on_c, 0, 69, 97
2, 397824, Note_on_c, 0, 80, 97
2, 397869, Note_on_c, 0, 69, 0
2, 397872, Note_on_c, 0, 68, 97
2, 397917, Note_on_c, 0, 68, 0
2, 397917, Note_on_c, 0, 80, 0
2, 397920, Note_on_c, 0, 66, 97
2, 397920, Note_on_c, 0, 76, 97
2, 397965, Note_on_c, 0, 66, 0
2, 397968, Note_on_c, 0, 68, 97
2, 398013, Note_on_c, 0, 68, 0
2, 398013, Note_on_c, 0, 76, 0
2, 398016, Note_on_c, 0, 69, 97
2, 398016, Note_on_c, 0, 72, 97
2, 398109, Note_on_c, 0, 69, 0
2, 398112, Note_on_c, 0, 68, 97
2, 398205, Note_on_c, 0, 68, 0
2, 398205, Note_on_c, 0, 72, 0
2, 398208, Note_on_c, 0, 69, 97
2, 398208, Note_on_c, 0, 76, 97
2, 398301, Note_on_c, 0, 69, 0
2, 398304, Note_on_c, 0, 71, 97
2, 398397, Note_on_c, 0, 71, 0
2, 398397, Note_on_c, 0, 76, 0
2, 398400, Note_on_c, 0, 72, 97
2, 398400, Note_on_c, 0, 81, 97
2, 398493, Note_on_c, 0, 72, 0
2, 398496, Note_on_c, 0, 69, 97
2, 398589, Note_on_c, 0, 69, 0
2, 398589, Note_on_c, 0, 81, 0
2, 398592, Note_on_c, 0, 71, 97
2, 398592, Note_on_c, 0, 74, 97
2, 398685, Note_on_c, 0, 71, 0
2, 398688, Note_on_c, 0, 69, 97
2, 398732, Note_on_c, 0, 74, 0
2, 398781, Note_on_c, 0, 69, 0
2, 398784, Note_on_c, 0, 71, 97
2, 398784, Note_on_c, 0, 79, 97
2, 398877, Note_on_c, 0, 71, 0
2, 398880, Note_on_c, 0, 73, 97
2, 398924, Note_on_c, 0, 79, 0
2, 398973, Note_on_c, 0, 73, 0
2, 398976, Note_on_c, 0, 74, 97
2, 399069, Note_on_c, 0, 74, 0
2, 399072, Note_on_c, 0, 71, 97
2, 399165, Note_on_c, 0, 71, 0
2, 399168, Note_on_c, 0, 73, 97
2, 399264, Note_on_c, 0, 79, 97
2, 399357, Note_on_c, 0, 79, 0
2, 399357, Note_on_c, 0, 73, 0
2, 399360, Note_on_c, 0, 69, 97
2, 399360, Note_on_c, 0, 78, 97
2, 399453, Note_on_c, 0, 78, 0
2, 399456, Note_on_c, 0, 76, 97
2, 399549, Note_on_c, 0, 76, 0
2, 399549, Note_on_c, 0, 69, 0
2, 399552, Note_on_c, 0, 74, 97
2, 399552, Note_on_c, 0, 78, 97
2, 399645, Note_on_c, 0, 78, 0
2, 399645, Note_on_c, 0, 74, 0
2, 399648, Note_on_c, 0, 74, 97
2, 399741, Note_on_c, 0, 74, 0
2, 399744, Note_on_c, 0, 71, 97
2, 399840, Note_on_c, 0, 69, 97
2, 399891, Note_on_c, 0, 71, 0
2, 399894, Note_on_c, 0, 73, 97
2, 399933, Note_on_c, 0, 73, 0
2, 399933, Note_on_c, 0, 69, 0
2, 399936, Note_on_c, 0, 67, 97
2, 399936, Note_on_c, 0, 74, 97
2, 399973, Note_on_c, 0, 74, 0
2, 399976, Note_on_c, 0, 73, 97
2, 400013, Note_on_c, 0, 73, 0
2, 400016, Note_on_c, 0, 74, 97
2, 400029, Note_on_c, 0, 67, 0
2, 400032, Note_on_c, 0, 66, 97
2, 400053, Note_on_c, 0, 74, 0
2, 400056, Note_on_c, 0, 73, 97
2, 400093, Note_on_c, 0, 73, 0
2, 400096, Note_on_c, 0, 74, 97
2, 400125, Note_on_c, 0, 74, 0
2, 400125, Note_on_c, 0, 66, 0
2, 400128, Note_on_c, 0, 67, 97
2, 400128, Note_on_c, 0, 73, 97
2, 400165, Note_on_c, 0, 73, 0
2, 400168, Note_on_c, 0, 74, 97
2, 400205, Note_on_c, 0, 74, 0
2, 400208, Note_on_c, 0, 73, 97
2, 400221, Note_on_c, 0, 67, 0
2, 400224, Note_on_c, 0, 64, 97
2, 400245, Note_on_c, 0, 73, 0
2, 400248, Note_on_c, 0, 71, 97
2, 400285, Note_on_c, 0, 71, 0
2, 400288, Note_on_c, 0, 73, 97
2, 400317, Note_on_c, 0, 73, 0
2, 400317, Note_on_c, 0, 64, 0
2, 400320, Note_on_c, 0, 66, 97
2, 400320, Note_on_c, 0, 74, 97
2, 400413, Note_on_c, 0, 66, 0
2, 400416, Note_on_c, 0, 67, 97
2, 400480, Note_on_c, 0, 74, 0
2, 400509, Note_on_c, 0, 67, 0
2, 400512, Note_on_c, 0, 65, 97
2, 400512, Note_on_c, 0, 72, 97
2, 400549, Note_on_c, 0, 72, 0
2, 400552, Note_on_c, 0, 71, 97
2, 400589, Note_on_c, 0, 71, 0
2, 400592, Note_on_c, 0, 72, 97
2, 400605, Note_on_c, 0, 65, 0
2, 400608, Note_on_c, 0, 64, 97
2, 400629, Note_on_c, 0, 72, 0
2, 400632, Note_on_c, 0, 71, 97
2, 400669, Note_on_c, 0, 71, 0
2, 400672, Note_on_c, 0, 72, 97
2, 400701, Note_on_c, 0, 72, 0
2, 400701, Note_on_c, 0, 64, 0
2, 400704, Note_on_c, 0, 65, 97
2, 400704, Note_on_c, 0, 71, 97
2, 400741, Note_on_c, 0, 71, 0
2, 400744, Note_on_c, 0, 72, 97
2, 400781, Note_on_c, 0, 72, 0
2, 400784, Note_on_c, 0, 71, 97
2, 400797, Note_on_c, 0, 65, 0
2, 400800, Note_on_c, 0, 62, 97
2, 400821, Note_on_c, 0, 71, 0
2, 400824, Note_on_c, 0, 69, 97
2, 400861, Note_on_c, 0, 69, 0
2, 400864, Note_on_c, 0, 71, 97
2, 400893, Note_on_c, 0, 71, 0
2, 400893, Note_on_c, 0, 62, 0
2, 400896, Note_on_c, 0, 64, 97
2, 400896, Note_on_c, 0, 72, 97
2, 400989, Note_on_c, 0, 72, 0
2, 400989, Note_on_c, 0, 64, 0
2, 400992, Note_on_c, 0, 66, 97
2, 400992, Note_on_c, 0, 74, 97
2, 401085, Note_on_c, 0, 74, 0
2, 401085, Note_on_c, 0, 66, 0
2, 401088, Note_on_c, 0, 67, 97
2, 401088, Note_on_c, 0, 72, 97
2, 401133, Note_on_c, 0, 67, 0
2, 401136, Note_on_c, 0, 66, 97
2, 401181, Note_on_c, 0, 66, 0
2, 401181, Note_on_c, 0, 72, 0
2, 401184, Note_on_c, 0, 67, 97
2, 401184, Note_on_c, 0, 71, 97
2, 401229, Note_on_c, 0, 67, 0
2, 401232, Note_on_c, 0, 66, 97
2, 401277, Note_on_c, 0, 66, 0
2, 401277, Note_on_c, 0, 71, 0
2, 401280, Note_on_c, 0, 67, 97
2, 401280, Note_on_c, 0, 72, 97
2, 401325, Note_on_c, 0, 67, 0
2, 401328, Note_on_c, 0, 66, 97
2, 401373, Note_on_c, 0, 66, 0
2, 401373, Note_on_c, 0, 72, 0
2, 401376, Note_on_c, 0, 64, 97
2, 401376, Note_on_c, 0, 69, 97
2, 401421, Note_on_c, 0, 64, 0
2, 401424, Note_on_c, 0, 66, 97
2, 401469, Note_on_c, 0, 66, 0
2, 401469, Note_on_c, 0, 69, 0
2, 401472, Note_on_c, 0, 67, 97
2, 401472, Note_on_c, 0, 71, 97
2, 401565, Note_on_c, 0, 71, 0
2, 401568, Note_on_c, 0, 69, 97
2, 401661, Note_on_c, 0, 69, 0
2, 401664, Note_on_c, 0, 71, 97
2, 401757, Note_on_c, 0, 71, 0
2, 401760, Note_on_c, 0, 72, 97
2, 401853, Note_on_c, 0, 72, 0
2, 401856, Note_on_c, 0, 74, 97
2, 401912, Note_on_c, 0, 67, 0
2, 401952, Note_on_c, 0, 66, 97
2, 402045, Note_on_c, 0, 74, 0
2, 402048, Note_on_c, 0, 52, 97
2, 402048, Note_on_c, 0, 67, 97
2, 402141, Note_on_c, 0, 66, 0
2, 402144, Note_on_c, 0, 64, 97
2, 402237, Note_on_c, 0, 67, 0
2, 402240, Note_on_c, 0, 72, 97
2, 402333, Note_on_c, 0, 52, 0
2, 402336, Note_on_c, 0, 48, 97
2, 402429, Note_on_c, 0, 48, 0
2, 402429, Note_on_c, 0, 64, 0
2, 402430, Note_on_c, 0, 72, 0
2, 402432, Note_on_c, 0, 69, 97
2, 402432, Note_on_c, 0, 45, 97
2, 402525, Note_on_c, 0, 45, 0
2, 402528, Note_on_c, 0, 42, 97
2, 402621, Note_on_c, 0, 42, 0
2, 402621, Note_on_c, 0, 69, 0
2, 402624, Note_on_c, 0, 66, 97
2, 402624, Note_on_c, 0, 50, 97
2, 402720, Note_on_c, 0, 72, 97
2, 402764, Note_on_c, 0, 50, 0
2, 402813, Note_on_c, 0, 72, 0
2, 402813, Note_on_c, 0, 66, 0
2, 402816, Note_on_c, 0, 62, 97
2, 402816, Note_on_c, 0, 43, 97
2, 402816, Note_on_c, 0, 71, 97
2, 402909, Note_on_c, 0, 71, 0
2, 402912, Note_on_c, 0, 69, 97
2, 402956, Note_on_c, 0, 43, 0
2, 403005, Note_on_c, 0, 69, 0
2, 403005, Note_on_c, 0, 62, 0
2, 403008, Note_on_c, 0, 55, 97
2, 403008, Note_on_c, 0, 71, 97
2, 403101, Note_on_c, 0, 71, 0
2, 403104, Note_on_c, 0, 67, 97
2, 403197, Note_on_c, 0, 67, 0
2, 403200, Note_on_c, 0, 48, 97
2, 403200, Note_on_c, 0, 64, 97
2, 403347, Note_on_c, 0, 64, 0
2, 403350, Note_on_c, 0, 66, 97
2, 403389, Note_on_c, 0, 66, 0
2, 403389, Note_on_c, 0, 55, 0
2, 403392, Note_on_c, 0, 57, 97
2, 403392, Note_on_c, 0, 67, 97
2, 403429, Note_on_c, 0, 67, 0
2, 403432, Note_on_c, 0, 66, 97
2, 403469, Note_on_c, 0, 66, 0
2, 403472, Note_on_c, 0, 67, 97
2, 403485, Note_on_c, 0, 48, 0
2, 403488, Note_on_c, 0, 45, 97
2, 403509, Note_on_c, 0, 67, 0
2, 403512, Note_on_c, 0, 66, 97
2, 403549, Note_on_c, 0, 66, 0
2, 403552, Note_on_c, 0, 67, 97
2, 403581, Note_on_c, 0, 67, 0
2, 403581, Note_on_c, 0, 45, 0
2, 403584, Note_on_c, 0, 42, 97
2, 403584, Note_on_c, 0, 66, 97
2, 403621, Note_on_c, 0, 66, 0
2, 403624, Note_on_c, 0, 67, 97
2, 403661, Note_on_c, 0, 67, 0
2, 403664, Note_on_c, 0, 66, 97
2, 403677, Note_on_c, 0, 42, 0
2, 403680, Note_on_c, 0, 38, 97
2, 403701, Note_on_c, 0, 66, 0
2, 403704, Note_on_c, 0, 64, 97
2, 403741, Note_on_c, 0, 64, 0
2, 403744, Note_on_c, 0, 66, 97
2, 403773, Note_on_c, 0, 66, 0
2, 403773, Note_on_c, 0, 38, 0
2, 403773, Note_on_c, 0, 57, 0
2, 403776, Note_on_c, 0, 50, 97
2, 403776, Note_on_c, 0, 47, 97
2, 403776, Note_on_c, 0, 67, 97
2, 403869, Note_on_c, 0, 47, 0
2, 403872, Note_on_c, 0, 45, 97
2, 403965, Note_on_c, 0, 45, 0
2, 403965, Note_on_c, 0, 67, 0
2, 403966, Note_on_c, 0, 50, 0
2, 403968, Note_on_c, 0, 47, 97
2, 403968, Note_on_c, 0, 74, 97
2, 404061, Note_on_c, 0, 47, 0
2, 404064, Note_on_c, 0, 50, 97
2, 404133, Note_on_c, 0, 74, 0
2, 404157, Note_on_c, 0, 50, 0
2, 404160, Note_on_c, 0, 43, 97
2, 404160, Note_on_c, 0, 76, 97
2, 404253, Note_on_c, 0, 43, 0
2, 404256, Note_on_c, 0, 47, 97
2, 404325, Note_on_c, 0, 76, 0
2, 404349, Note_on_c, 0, 47, 0
2, 404352, Note_on_c, 0, 48, 97
2, 404352, Note_on_c, 0, 69, 97
2, 404445, Note_on_c, 0, 48, 0
2, 404448, Note_on_c, 0, 47, 97
2, 404541, Note_on_c, 0, 47, 0
2, 404541, Note_on_c, 0, 69, 0
2, 404544, Note_on_c, 0, 48, 97
2, 404544, Note_on_c, 0, 76, 97
2, 404637, Note_on_c, 0, 48, 0
2, 404640, Note_on_c, 0, 52, 97
2, 404709, Note_on_c, 0, 76, 0
2, 404733, Note_on_c, 0, 52, 0
2, 404736, Note_on_c, 0, 45, 97
2, 404736, Note_on_c, 0, 78, 97
2, 404829, Note_on_c, 0, 45, 0
2, 404832, Note_on_c, 0, 48, 97
2, 404901, Note_on_c, 0, 78, 0
2, 404925, Note_on_c, 0, 48, 0
2, 404928, Note_on_c, 0, 50, 97
2, 404928, Note_on_c, 0, 71, 97
2, 405021, Note_on_c, 0, 50, 0
2, 405024, Note_on_c, 0, 48, 97
2, 405117, Note_on_c, 0, 48, 0
2, 405117, Note_on_c, 0, 71, 0
2, 405120, Note_on_c, 0, 50, 97
2, 405120, Note_on_c, 0, 78, 97
2, 405213, Note_on_c, 0, 50, 0
2, 405216, Note_on_c, 0, 54, 97
2, 405285, Note_on_c, 0, 78, 0
2, 405309, Note_on_c, 0, 54, 0
2, 405312, Note_on_c, 0, 47, 97
2, 405312, Note_on_c, 0, 79, 97
2, 405405, Note_on_c, 0, 47, 0
2, 405408, Note_on_c, 0, 50, 97
2, 405477, Note_on_c, 0, 79, 0
2, 405501, Note_on_c, 0, 50, 0
2, 405504, Note_on_c, 0, 52, 97
2, 405504, Note_on_c, 0, 72, 97
2, 405600, Note_on_c, 0, 71, 97
2, 405693, Note_on_c, 0, 71, 0
2, 405693, Note_on_c, 0, 52, 0
2, 405696, Note_on_c, 0, 69, 97
2, 405696, Note_on_c, 0, 48, 97
2, 405789, Note_on_c, 0, 69, 0
2, 405792, Note_on_c, 0, 67, 97
2, 405866, Note_on_c, 0, 48, 0
2, 405885, Note_on_c, 0, 67, 0
2, 405888, Note_on_c, 0, 69, 97
2, 405888, Note_on_c, 0, 45, 97
2, 405981, Note_on_c, 0, 69, 0
2, 405984, Note_on_c, 0, 64, 97
2, 406058, Note_on_c, 0, 45, 0
2, 406077, Note_on_c, 0, 64, 0
2, 406080, Note_on_c, 0, 66, 97
2, 406080, Note_on_c, 0, 50, 97
2, 406173, Note_on_c, 0, 72, 0
2, 406176, Note_on_c, 0, 74, 97
2, 406269, Note_on_c, 0, 74, 0
2, 406269, Note_on_c, 0, 50, 0
2, 406270, Note_on_c, 0, 66, 0
2, 406272, Note_on_c, 0, 54, 97
2, 406272, Note_on_c, 0, 72, 97
2, 406365, Note_on_c, 0, 72, 0
2, 406368, Note_on_c, 0, 71, 97
2, 406447, Note_on_c, 0, 54, 0
2, 406461, Note_on_c, 0, 71, 0
2, 406464, Note_on_c, 0, 50, 97
2, 406464, Note_on_c, 0, 72, 97
2, 406557, Note_on_c, 0, 72, 0
2, 406560, Note_on_c, 0, 69, 97
2, 406639, Note_on_c, 0, 50, 0
2, 406653, Note_on_c, 0, 69, 0
2, 406656, Note_on_c, 0, 55, 97
2, 406656, Note_on_c, 0, 71, 97
2, 406752, Note_on_c, 0, 69, 97
2, 406845, Note_on_c, 0, 69, 0
2, 406845, Note_on_c, 0, 71, 0
2, 406845, Note_on_c, 0, 55, 0
2, 406848, Note_on_c, 0, 67, 97
2, 406848, Note_on_c, 0, 52, 97
2, 406848, Note_on_c, 0, 73, 97
2, 406941, Note_on_c, 0, 67, 0
2, 406944, Note_on_c, 0, 66, 97
2, 407028, Note_on_c, 0, 52, 0
2, 407037, Note_on_c, 0, 66, 0
2, 407040, Note_on_c, 0, 67, 97
2, 407040, Note_on_c, 0, 57, 97
2, 407133, Note_on_c, 0, 67, 0
2, 407136, Note_on_c, 0, 64, 97
2, 407220, Note_on_c, 0, 57, 0
2, 407229, Note_on_c, 0, 64, 0
2, 407229, Note_on_c, 0, 73, 0
2, 407232, Note_on_c, 0, 66, 97
2, 407232, Note_on_c, 0, 50, 97
2, 407232, Note_on_c, 0, 74, 97
2, 407325, Note_on_c, 0, 50, 0
2, 407328, Note_on_c, 0, 52, 97
2, 407421, Note_on_c, 0, 52, 0
2, 407421, Note_on_c, 0, 74, 0
2, 407424, Note_on_c, 0, 50, 97
2, 407424, Note_on_c, 0, 69, 97
2, 407517, Note_on_c, 0, 50, 0
2, 407520, Note_on_c, 0, 48, 97
2, 407613, Note_on_c, 0, 48, 0
2, 407613, Note_on_c, 0, 69, 0
2, 407613, Note_on_c, 0, 66, 0
2, 407616, Note_on_c, 0, 62, 97
2, 407616, Note_on_c, 0, 47, 97
2, 407616, Note_on_c, 0, 74, 97
2, 407709, Note_on_c, 0, 47, 0
2, 407712, Note_on_c, 0, 45, 97
2, 407805, Note_on_c, 0, 45, 0
2, 407805, Note_on_c, 0, 62, 0
2, 407808, Note_on_c, 0, 64, 97
2, 407808, Note_on_c, 0, 43, 97
2, 407901, Note_on_c, 0, 74, 0
2, 407904, Note_on_c, 0, 71, 97
2, 407997, Note_on_c, 0, 71, 0
2, 407997, Note_on_c, 0, 43, 0
2, 408000, Note_on_c, 0, 48, 97
2, 408000, Note_on_c, 0, 67, 97
2, 408093, Note_on_c, 0, 64, 0
2, 408096, Note_on_c, 0, 60, 97
2, 408189, Note_on_c, 0, 60, 0
2, 408189, Note_on_c, 0, 67, 0
2, 408190, Note_on_c, 0, 48, 0
2, 408192, Note_on_c, 0, 57, 97
2, 408192, Note_on_c, 0, 72, 97
2, 408285, Note_on_c, 0, 57, 0
2, 408288, Note_on_c, 0, 54, 97
2, 408381, Note_on_c, 0, 54, 0
2, 408381, Note_on_c, 0, 72, 0
2, 408384, Note_on_c, 0, 62, 97
2, 408384, Note_on_c, 0, 66, 97
2, 408480, Note_on_c, 0, 48, 97
2, 408524, Note_on_c, 0, 62, 0
2, 408573, Note_on_c, 0, 48, 0
2, 408573, Note_on_c, 0, 66, 0
2, 408576, Note_on_c, 0, 55, 97
2, 408576, Note_on_c, 0, 47, 97
2, 408576, Note_on_c, 0, 62, 97
2, 408669, Note_on_c, 0, 47, 0
2, 408672, Note_on_c, 0, 45, 97
2, 408716, Note_on_c, 0, 55, 0
2, 408765, Note_on_c, 0, 45, 0
2, 408765, Note_on_c, 0, 62, 0
2, 408768, Note_on_c, 0, 47, 97
2, 408768, Note_on_c, 0, 67, 97
2, 408861, Note_on_c, 0, 47, 0
2, 408864, Note_on_c, 0, 43, 97
2, 408957, Note_on_c, 0, 43, 0
2, 408960, Note_on_c, 0, 60, 97
2, 408960, Note_on_c, 0, 40, 97
2, 409053, Note_on_c, 0, 40, 0
2, 409053, Note_on_c, 0, 67, 0
2, 409054, Note_on_c, 0, 66, 97
2, 409056, Note_on_c, 0, 42, 97
2, 409102, Note_on_c, 0, 66, 0
2, 409103, Note_on_c, 0, 64, 97
2, 409149, Note_on_c, 0, 42, 0
2, 409151, Note_on_c, 0, 64, 0
2, 409152, Note_on_c, 0, 43, 97
2, 409152, Note_on_c, 0, 62, 97
2, 409213, Note_on_c, 0, 43, 0
2, 409216, Note_on_c, 0, 42, 97
2, 409245, Note_on_c, 0, 60, 0
2, 409248, Note_on_c, 0, 57, 97
2, 409277, Note_on_c, 0, 42, 0
2, 409280, Note_on_c, 0, 43, 97
2, 409341, Note_on_c, 0, 43, 0
2, 409341, Note_on_c, 0, 57, 0
2, 409342, Note_on_c, 0, 62, 0
2, 409344, Note_on_c, 0, 54, 97
2, 409344, Note_on_c, 0, 42, 97
2, 409405, Note_on_c, 0, 42, 0
2, 409408, Note_on_c, 0, 40, 97
2, 409437, Note_on_c, 0, 54, 0
2, 409440, Note_on_c, 0, 50, 97
2, 409469, Note_on_c, 0, 40, 0
2, 409472, Note_on_c, 0, 42, 97
2, 409533, Note_on_c, 0, 42, 0
2, 409533, Note_on_c, 0, 50, 0
2, 409536, Note_on_c, 0, 59, 97
2, 409536, Note_on_c, 0, 43, 97
2, 409632, Note_on_c, 0, 60, 97
2, 409725, Note_on_c, 0, 60, 0
2, 409728, Note_on_c, 0, 31, 97
2, 409728, Note_on_c, 0, 62, 97
2, 409821, Note_on_c, 0, 62, 0
2, 409824, Note_on_c, 0, 65, 97
2, 409916, Note_on_c, 0, 43, 0
2, 409917, Note_on_c, 0, 65, 0
2, 409917, Note_on_c, 0, 31, 0
2, 409920, Note_on_c, 0, 43, 97
2, 409920, Note_on_c, 0, 64, 97
2, 410013, Note_on_c, 0, 64, 0
2, 410016, Note_on_c, 0, 67, 97
2, 410109, Note_on_c, 0, 67, 0
2, 410109, Note_on_c, 0, 43, 0
2, 410109, Note_on_c, 0, 59, 0
2, 410112, Note_on_c, 0, 60, 97
2, 410112, Note_on_c, 0, 45, 97
2, 410112, Note_on_c, 0, 65, 97
2, 410205, Note_on_c, 0, 65, 0
2, 410205, Note_on_c, 0, 45, 0
2, 410208, Note_on_c, 0, 47, 97
2, 410208, Note_on_c, 0, 67, 97
2, 410301, Note_on_c, 0, 67, 0
2, 410301, Note_on_c, 0, 47, 0
2, 410301, Note_on_c, 0, 60, 0
2, 410304, Note_on_c, 0, 62, 97
2, 410304, Note_on_c, 0, 48, 97
2, 410304, Note_on_c, 0, 65, 97
2, 410365, Note_on_c, 0, 48, 0
2, 410368, Note_on_c, 0, 47, 97
2, 410397, Note_on_c, 0, 65, 0
2, 410400, Note_on_c, 0, 64, 97
2, 410429, Note_on_c, 0, 47, 0
2, 410432, Note_on_c, 0, 48, 97
2, 410493, Note_on_c, 0, 48, 0
2, 410493, Note_on_c, 0, 64, 0
2, 410494, Note_on_c, 0, 62, 0
2, 410496, Note_on_c, 0, 47, 97
2, 410496, Note_on_c, 0, 65, 97
2, 410557, Note_on_c, 0, 47, 0
2, 410560, Note_on_c, 0, 45, 97
2, 410589, Note_on_c, 0, 65, 0
2, 410592, Note_on_c, 0, 62, 97
2, 410621, Note_on_c, 0, 45, 0
2, 410624, Note_on_c, 0, 47, 97
2, 410685, Note_on_c, 0, 47, 0
2, 410685, Note_on_c, 0, 62, 0
2, 410688, Note_on_c, 0, 55, 97
2, 410688, Note_on_c, 0, 48, 97
2, 410688, Note_on_c, 0, 64, 97
2, 410781, Note_on_c, 0, 64, 0
2, 410784, Note_on_c, 0, 69, 97
2, 410848, Note_on_c, 0, 48, 0
2, 410877, Note_on_c, 0, 69, 0
2, 410877, Note_on_c, 0, 55, 0
2, 410880, Note_on_c, 0, 52, 97
2, 410880, Note_on_c, 0, 50, 97
2, 410880, Note_on_c, 0, 67, 97
2, 410941, Note_on_c, 0, 50, 0
2, 410944, Note_on_c, 0, 49, 97
2, 410973, Note_on_c, 0, 67, 0
2, 410976, Note_on_c, 0, 66, 97
2, 411005, Note_on_c, 0, 49, 0
2, 411008, Note_on_c, 0, 50, 97
2, 411069, Note_on_c, 0, 50, 0
2, 411069, Note_on_c, 0, 66, 0
2, 411069, Note_on_c, 0, 52, 0
2, 411072, Note_on_c, 0, 49, 97
2, 411072, Note_on_c, 0, 67, 97
2, 411133, Note_on_c, 0, 49, 0
2, 411136, Note_on_c, 0, 47, 97
2, 411165, Note_on_c, 0, 67, 0
2, 411168, Note_on_c, 0, 64, 97
2, 411197, Note_on_c, 0, 47, 0
2, 411200, Note_on_c, 0, 49, 97
2, 411261, Note_on_c, 0, 49, 0
2, 411261, Note_on_c, 0, 64, 0
2, 411264, Note_on_c, 0, 57, 97
2, 411264, Note_on_c, 0, 50, 97
2, 411264, Note_on_c, 0, 66, 97
2, 411357, Note_on_c, 0, 66, 0
2, 411360, Note_on_c, 0, 71, 97
2, 411424, Note_on_c, 0, 50, 0
2, 411453, Note_on_c, 0, 71, 0
2, 411453, Note_on_c, 0, 57, 0
2, 411456, Note_on_c, 0, 54, 97
2, 411456, Note_on_c, 0, 52, 97
2, 411456, Note_on_c, 0, 69, 97
2, 411517, Note_on_c, 0, 52, 0
2, 411520, Note_on_c, 0, 51, 97
2, 411549, Note_on_c, 0, 69, 0
2, 411552, Note_on_c, 0, 67, 97
2, 411581, Note_on_c, 0, 51, 0
2, 411584, Note_on_c, 0, 52, 97
2, 411645, Note_on_c, 0, 52, 0
2, 411645, Note_on_c, 0, 67, 0
2, 411646, Note_on_c, 0, 54, 0
2, 411648, Note_on_c, 0, 51, 97
2, 411648, Note_on_c, 0, 69, 97
2, 411709, Note_on_c, 0, 51, 0
2, 411712, Note_on_c, 0, 49, 97
2, 411741, Note_on_c, 0, 69, 0
2, 411744, Note_on_c, 0, 66, 97
2, 411773, Note_on_c, 0, 49, 0
2, 411776, Note_on_c, 0, 51, 97
2, 411837, Note_on_c, 0, 51, 0
2, 411837, Note_on_c, 0, 66, 0
2, 411840, Note_on_c, 0, 52, 97
2, 411840, Note_on_c, 0, 67, 97
2, 411933, Note_on_c, 0, 52, 0
2, 411936, Note_on_c, 0, 62, 97
2, 411936, Note_on_c, 0, 54, 97
2, 412029, Note_on_c, 0, 54, 0
2, 412029, Note_on_c, 0, 62, 0
2, 412029, Note_on_c, 0, 67, 0
2, 412032, Note_on_c, 0, 60, 97
2, 412032, Note_on_c, 0, 55, 97
2, 412032, Note_on_c, 0, 69, 97
2, 412093, Note_on_c, 0, 55, 0
2, 412096, Note_on_c, 0, 54, 97
2, 412125, Note_on_c, 0, 60, 0
2, 412128, Note_on_c, 0, 59, 97
2, 412157, Note_on_c, 0, 54, 0
2, 412160, Note_on_c, 0, 55, 97
2, 412221, Note_on_c, 0, 55, 0
2, 412221, Note_on_c, 0, 59, 0
2, 412222, Note_on_c, 0, 69, 0
2, 412224, Note_on_c, 0, 60, 97
2, 412224, Note_on_c, 0, 54, 97
2, 412285, Note_on_c, 0, 54, 0
2, 412288, Note_on_c, 0, 52, 97
2, 412317, Note_on_c, 0, 60, 0
2, 412320, Note_on_c, 0, 57, 97
2, 412349, Note_on_c, 0, 52, 0
2, 412352, Note_on_c, 0, 54, 97
2, 412413, Note_on_c, 0, 54, 0
2, 412413, Note_on_c, 0, 57, 0
2, 412416, Note_on_c, 0, 59, 97
2, 412416, Note_on_c, 0, 55, 97
2, 412509, Note_on_c, 0, 59, 0
2, 412512, Note_on_c, 0, 62, 97
2, 412605, Note_on_c, 0, 55, 0
2, 412608, Note_on_c, 0, 47, 97
2, 412608, Note_on_c, 0, 67, 97
2, 412701, Note_on_c, 0, 67, 0
2, 412704, Note_on_c, 0, 71, 97
2, 412797, Note_on_c, 0, 71, 0
2, 412797, Note_on_c, 0, 47, 0
2, 412800, Note_on_c, 0, 50, 97
2, 412800, Note_on_c, 0, 69, 97
2, 412902, Note_on_c, 0, 66, 97
2, 412940, Note_on_c, 0, 69, 0
2, 412989, Note_on_c, 0, 62, 0
2, 412990, Note_on_c, 0, 66, 0
2, 413010, Note_on_c, 0, 50, 0
2, 413023, Note_on_c, 0, 43, 97
2, 413024, Note_on_c, 0, 60, 97
2, 413024, Note_on_c, 0, 66, 97
2, 413334, Note_on_c, 0, 66, 0
2, 413334, Note_on_c, 0, 60, 0
2, 413344, Note_on_c, 0, 67, 97
2, 413344, Note_on_c, 0, 59, 97
2, 413883, Note_on_c, 0, 43, 0
2, 413919, Note_on_c, 0, 59, 0
2, 413919, Note_on_c, 0, 67, 0
2, 413919, End_track
0, 0, End_of_file
