0, 0, Header, 0, 1, 240
1, 0, Start_track
1, 0, Title_t, "--------"
1, 0, Time_signature, 1, 2, 24, 8
1, 0, Key_signature, 0, "major"
1, 0, Tempo, 500000
1, 0, Program_c, 0, 6
1, 0, Control_c, 0, 7, 105
1, 0, Control_c, 0, 10, 63
1, 0, Program_c, 0, 6
1, 0, Control_c, 0, 7, 100
1, 0, Control_c, 0, 10, 48
1, 0, Program_c, 0, 6
1, 0, Control_c, 0, 7, 100
1, 0, Control_c, 0, 10, 48
1, 348, Marker_t, "interpreted by (P) 1997 S.D. Rodrian  WTC Book1 Prelude & Fugue in g#m"
1, 2153, Control_c, 0, 10, 67
1, 2212, Control_c, 0, 10, 60
1, 2245, Control_c, 0, 10, 79
1, 2245, Control_c, 0, 10, 58
1, 2254, Program_c, 0, 0
1, 2272, Program_c, 0, 0
1, 2276, Control_c, 0, 10, 55
1, 2290, Program_c, 0, 0
1, 2310, Control_c, 0, 10, 59
1, 2346, Control_c, 0, 10, 75
1, 2355, Control_c, 0, 10, 66
1, 2383, Control_c, 0, 10, 74
1, 2621, Note_on_c, 0, 68, 71
1, 2621, Note_on_c, 0, 56, 65
1, 2622, Note_on_c, 0, 59, 65
1, 2720, Note_on_c, 0, 68, 0
1, 2720, Note_on_c, 0, 70, 71
1, 2820, Note_on_c, 0, 70, 0
1, 2820, Note_on_c, 0, 59, 0
1, 2820, Note_on_c, 0, 71, 71
1, 2821, Note_on_c, 0, 63, 72
1, 2917, Note_on_c, 0, 71, 0
1, 2918, Note_on_c, 0, 68, 71
1, 3012, Note_on_c, 0, 68, 0
1, 3013, Note_on_c, 0, 63, 0
1, 3013, Note_on_c, 0, 70, 71
1, 3014, Note_on_c, 0, 61, 72
1, 3108, Note_on_c, 0, 70, 0
1, 3108, Note_on_c, 0, 73, 71
1, 3203, Note_on_c, 0, 73, 0
1, 3203, Note_on_c, 0, 56, 0
1, 3204, Note_on_c, 0, 76, 71
1, 3204, Note_on_c, 0, 55, 72
1, 3396, Note_on_c, 0, 76, 0
1, 3396, Note_on_c, 0, 61, 0
1, 3396, Note_on_c, 0, 75, 73
1, 3397, Note_on_c, 0, 59, 72
1, 3587, Note_on_c, 0, 59, 0
1, 3587, Note_on_c, 0, 75, 0
1, 3588, Note_on_c, 0, 73, 73
1, 3588, Note_on_c, 0, 58, 72
1, 3777, Note_on_c, 0, 58, 0
1, 3778, Note_on_c, 0, 73, 0
1, 3778, Note_on_c, 0, 55, 0
1, 3778, Note_on_c, 0, 71, 73
1, 3779, Note_on_c, 0, 56, 72
1, 3873, Note_on_c, 0, 56, 0
1, 3874, Note_on_c, 0, 58, 72
1, 3970, Note_on_c, 0, 58, 0
1, 3971, Note_on_c, 0, 80, 67
1, 3971, Note_on_c, 0, 59, 72
1, 4068, Note_on_c, 0, 59, 0
1, 4068, Note_on_c, 0, 56, 72
1, 4167, Note_on_c, 0, 56, 0
1, 4167, Note_on_c, 0, 71, 0
1, 4168, Note_on_c, 0, 70, 73
1, 4168, Note_on_c, 0, 73, 73
1, 4169, Note_on_c, 0, 58, 72
1, 4264, Note_on_c, 0, 58, 0
1, 4264, Note_on_c, 0, 61, 72
1, 4361, Note_on_c, 0, 61, 0
1, 4361, Note_on_c, 0, 80, 0
1, 4362, Note_on_c, 0, 79, 67
1, 4362, Note_on_c, 0, 64, 72
1, 4553, Note_on_c, 0, 64, 0
1, 4553, Note_on_c, 0, 70, 0
1, 4554, Note_on_c, 0, 73, 0
1, 4554, Note_on_c, 0, 71, 73
1, 4555, Note_on_c, 0, 63, 72
1, 4743, Note_on_c, 0, 71, 0
1, 4743, Note_on_c, 0, 70, 73
1, 4744, Note_on_c, 0, 61, 72
1, 4933, Note_on_c, 0, 61, 0
1, 4933, Note_on_c, 0, 70, 0
1, 4934, Note_on_c, 0, 79, 0
1, 4934, Note_on_c, 0, 80, 67
1, 4935, Note_on_c, 0, 75, 73
1, 4935, Note_on_c, 0, 59, 72
1, 5026, Note_on_c, 0, 80, 0
1, 5027, Note_on_c, 0, 82, 67
1, 5121, Note_on_c, 0, 82, 0
1, 5122, Note_on_c, 0, 63, 0
1, 5122, Note_on_c, 0, 75, 0
1, 5123, Note_on_c, 0, 68, 73
1, 5123, Note_on_c, 0, 83, 67
1, 5216, Note_on_c, 0, 83, 0
1, 5217, Note_on_c, 0, 75, 73
1, 5310, Note_on_c, 0, 75, 0
1, 5311, Note_on_c, 0, 68, 0
1, 5311, Note_on_c, 0, 76, 73
1, 5312, Note_on_c, 0, 61, 72
1, 5404, Note_on_c, 0, 76, 0
1, 5405, Note_on_c, 0, 80, 67
1, 5499, Note_on_c, 0, 80, 0
1, 5500, Note_on_c, 0, 59, 0
1, 5500, Note_on_c, 0, 78, 67
1, 5501, Note_on_c, 0, 58, 72
1, 5593, Note_on_c, 0, 78, 0
1, 5594, Note_on_c, 0, 80, 67
1, 5688, Note_on_c, 0, 80, 0
1, 5688, Note_on_c, 0, 61, 0
1, 5688, Note_on_c, 0, 82, 67
1, 5689, Note_on_c, 0, 66, 72
1, 5781, Note_on_c, 0, 82, 0
1, 5781, Note_on_c, 0, 73, 73
1, 5874, Note_on_c, 0, 73, 0
1, 5874, Note_on_c, 0, 66, 0
1, 5875, Note_on_c, 0, 75, 73
1, 5875, Note_on_c, 0, 59, 72
1, 5968, Note_on_c, 0, 75, 0
1, 5968, Note_on_c, 0, 78, 67
1, 6060, Note_on_c, 0, 78, 0
1, 6061, Note_on_c, 0, 58, 0
1, 6061, Note_on_c, 0, 76, 73
1, 6061, Note_on_c, 0, 56, 72
1, 6152, Note_on_c, 0, 76, 0
1, 6152, Note_on_c, 0, 78, 67
1, 6243, Note_on_c, 0, 78, 0
1, 6243, Note_on_c, 0, 59, 0
1, 6244, Note_on_c, 0, 80, 67
1, 6244, Note_on_c, 0, 64, 72
1, 6334, Note_on_c, 0, 80, 0
1, 6334, Note_on_c, 0, 71, 73
1, 6423, Note_on_c, 0, 71, 0
1, 6424, Note_on_c, 0, 56, 0
1, 6424, Note_on_c, 0, 73, 73
1, 6425, Note_on_c, 0, 52, 72
1, 6515, Note_on_c, 0, 73, 0
1, 6515, Note_on_c, 0, 76, 73
1, 6606, Note_on_c, 0, 76, 0
1, 6606, Note_on_c, 0, 52, 0
1, 6607, Note_on_c, 0, 70, 73
1, 6607, Note_on_c, 0, 54, 72
1, 6697, Note_on_c, 0, 70, 0
1, 6697, Note_on_c, 0, 71, 73
1, 6788, Note_on_c, 0, 71, 0
1, 6789, Note_on_c, 0, 54, 0
1, 6789, Note_on_c, 0, 64, 0
1, 6790, Note_on_c, 0, 73, 73
1, 6790, Note_on_c, 0, 56, 72
1, 6791, Note_on_c, 0, 63, 72
1, 6879, Note_on_c, 0, 73, 0
1, 6880, Note_on_c, 0, 66, 72
1, 6971, Note_on_c, 0, 66, 0
1, 6971, Note_on_c, 0, 63, 0
1, 6972, Note_on_c, 0, 56, 0
1, 6972, Note_on_c, 0, 73, 73
1, 6972, Note_on_c, 0, 58, 72
1, 6973, Note_on_c, 0, 61, 72
1, 7061, Note_on_c, 0, 73, 0
1, 7061, Note_on_c, 0, 76, 73
1, 7150, Note_on_c, 0, 76, 0
1, 7151, Note_on_c, 0, 61, 0
1, 7151, Note_on_c, 0, 58, 0
1, 7152, Note_on_c, 0, 75, 73
1, 7152, Note_on_c, 0, 59, 72
1, 7240, Note_on_c, 0, 75, 0
1, 7241, Note_on_c, 0, 76, 73
1, 7241, Note_on_c, 0, 61, 72
1, 7331, Note_on_c, 0, 61, 0
1, 7331, Note_on_c, 0, 76, 0
1, 7332, Note_on_c, 0, 59, 0
1, 7332, Note_on_c, 0, 78, 67
1, 7332, Note_on_c, 0, 63, 72
1, 7421, Note_on_c, 0, 63, 0
1, 7421, Note_on_c, 0, 78, 0
1, 7422, Note_on_c, 0, 75, 73
1, 7422, Note_on_c, 0, 59, 72
1, 7510, Note_on_c, 0, 59, 0
1, 7511, Note_on_c, 0, 75, 0
1, 7511, Note_on_c, 0, 76, 73
1, 7512, Note_on_c, 0, 61, 72
1, 7600, Note_on_c, 0, 61, 0
1, 7601, Note_on_c, 0, 76, 0
1, 7601, Note_on_c, 0, 80, 67
1, 7602, Note_on_c, 0, 64, 72
1, 7691, Note_on_c, 0, 64, 0
1, 7691, Note_on_c, 0, 80, 0
1, 7692, Note_on_c, 0, 71, 71
1, 7692, Note_on_c, 0, 68, 73
1, 7780, Note_on_c, 0, 71, 0
1, 7780, Note_on_c, 0, 70, 71
1, 7869, Note_on_c, 0, 70, 0
1, 7870, Note_on_c, 0, 68, 0
1, 7870, Note_on_c, 0, 71, 71
1, 7871, Note_on_c, 0, 66, 72
1, 7960, Note_on_c, 0, 71, 0
1, 7961, Note_on_c, 0, 70, 71
1, 8050, Note_on_c, 0, 70, 0
1, 8050, Note_on_c, 0, 66, 0
1, 8051, Note_on_c, 0, 71, 73
1, 8051, Note_on_c, 0, 64, 72
1, 8140, Note_on_c, 0, 71, 0
1, 8140, Note_on_c, 0, 73, 73
1, 8231, Note_on_c, 0, 64, 0
1, 8231, Note_on_c, 0, 63, 72
1, 8231, Note_on_c, 0, 47, 72
1, 8321, Note_on_c, 0, 47, 0
1, 8322, Note_on_c, 0, 63, 0
1, 8322, Note_on_c, 0, 64, 72
1, 8323, Note_on_c, 0, 49, 72
1, 8412, Note_on_c, 0, 49, 0
1, 8413, Note_on_c, 0, 64, 0
1, 8414, Note_on_c, 0, 73, 0
1, 8414, Note_on_c, 0, 71, 73
1, 8414, Note_on_c, 0, 51, 72
1, 8415, Note_on_c, 0, 66, 72
1, 8505, Note_on_c, 0, 66, 0
1, 8506, Note_on_c, 0, 51, 0
1, 8506, Note_on_c, 0, 63, 72
1, 8506, Note_on_c, 0, 47, 72
1, 8596, Note_on_c, 0, 47, 0
1, 8596, Note_on_c, 0, 63, 0
1, 8597, Note_on_c, 0, 64, 72
1, 8598, Note_on_c, 0, 49, 72
1, 8687, Note_on_c, 0, 49, 0
1, 8687, Note_on_c, 0, 64, 0
1, 8688, Note_on_c, 0, 68, 75
1, 8688, Note_on_c, 0, 52, 72
1, 8777, Note_on_c, 0, 52, 0
1, 8777, Note_on_c, 0, 68, 0
1, 8777, Note_on_c, 0, 71, 0
1, 8778, Note_on_c, 0, 61, 72
1, 8779, Note_on_c, 0, 56, 72
1, 8866, Note_on_c, 0, 71, 75
1, 8956, Note_on_c, 0, 71, 0
1, 8957, Note_on_c, 0, 56, 0
1, 8957, Note_on_c, 0, 70, 75
1, 8958, Note_on_c, 0, 54, 72
1, 9047, Note_on_c, 0, 70, 0
1, 9047, Note_on_c, 0, 71, 75
1, 9135, Note_on_c, 0, 71, 0
1, 9135, Note_on_c, 0, 54, 0
1, 9136, Note_on_c, 0, 73, 75
1, 9136, Note_on_c, 0, 52, 72
1, 9225, Note_on_c, 0, 73, 0
1, 9226, Note_on_c, 0, 70, 75
1, 9315, Note_on_c, 0, 70, 0
1, 9316, Note_on_c, 0, 52, 0
1, 9316, Note_on_c, 0, 66, 72
1, 9317, Note_on_c, 0, 51, 72
1, 9404, Note_on_c, 0, 51, 0
1, 9404, Note_on_c, 0, 52, 72
1, 9493, Note_on_c, 0, 52, 0
1, 9493, Note_on_c, 0, 61, 0
1, 9494, Note_on_c, 0, 59, 72
1, 9494, Note_on_c, 0, 54, 72
1, 9581, Note_on_c, 0, 54, 0
1, 9582, Note_on_c, 0, 59, 0
1, 9582, Note_on_c, 0, 57, 72
1, 9583, Note_on_c, 0, 51, 72
1, 9671, Note_on_c, 0, 51, 0
1, 9671, Note_on_c, 0, 57, 0
1, 9672, Note_on_c, 0, 61, 72
1, 9672, Note_on_c, 0, 53, 72
1, 9760, Note_on_c, 0, 53, 0
1, 9760, Note_on_c, 0, 61, 0
1, 9761, Note_on_c, 0, 56, 72
1, 9761, Note_on_c, 0, 59, 72
1, 9847, Note_on_c, 0, 56, 0
1, 9848, Note_on_c, 0, 59, 0
1, 9848, Note_on_c, 0, 62, 72
1, 9849, Note_on_c, 0, 59, 72
1, 9935, Note_on_c, 0, 66, 0
1, 9935, Note_on_c, 0, 65, 72
1, 10023, Note_on_c, 0, 65, 0
1, 10023, Note_on_c, 0, 59, 0
1, 10024, Note_on_c, 0, 62, 0
1, 10024, Note_on_c, 0, 66, 72
1, 10025, Note_on_c, 0, 61, 72
1, 10025, Note_on_c, 0, 57, 72
1, 10112, Note_on_c, 0, 66, 0
1, 10113, Note_on_c, 0, 65, 72
1, 10201, Note_on_c, 0, 65, 0
1, 10202, Note_on_c, 0, 57, 0
1, 10202, Note_on_c, 0, 61, 0
1, 10203, Note_on_c, 0, 59, 72
1, 10203, Note_on_c, 0, 66, 72
1, 10204, Note_on_c, 0, 56, 72
1, 10291, Note_on_c, 0, 66, 0
1, 10291, Note_on_c, 0, 68, 76
1, 10363, Note_on_c, 0, 59, 0
1, 10381, Note_on_c, 0, 68, 0
1, 10381, Note_on_c, 0, 56, 0
1, 10382, Note_on_c, 0, 54, 72
1, 10382, Note_on_c, 0, 61, 72
1, 10469, Note_on_c, 0, 61, 0
1, 10470, Note_on_c, 0, 63, 72
1, 10559, Note_on_c, 0, 63, 0
1, 10559, Note_on_c, 0, 64, 72
1, 10560, Note_on_c, 0, 57, 72
1, 10647, Note_on_c, 0, 57, 0
1, 10647, Note_on_c, 0, 64, 0
1, 10648, Note_on_c, 0, 61, 72
1, 10648, Note_on_c, 0, 56, 72
1, 10737, Note_on_c, 0, 56, 0
1, 10737, Note_on_c, 0, 61, 0
1, 10737, Note_on_c, 0, 63, 72
1, 10738, Note_on_c, 0, 57, 72
1, 10826, Note_on_c, 0, 57, 0
1, 10826, Note_on_c, 0, 63, 0
1, 10826, Note_on_c, 0, 66, 72
1, 10827, Note_on_c, 0, 54, 72
1, 10914, Note_on_c, 0, 66, 0
1, 10914, Note_on_c, 0, 54, 0
1, 10915, Note_on_c, 0, 69, 76
1, 10916, Note_on_c, 0, 60, 72
1, 10988, Note_on_c, 0, 54, 0
1, 11004, Note_on_c, 0, 54, 72
1, 11091, Note_on_c, 0, 54, 0
1, 11091, Note_on_c, 0, 60, 0
1, 11092, Note_on_c, 0, 69, 0
1, 11092, Note_on_c, 0, 68, 76
1, 11092, Note_on_c, 0, 52, 72
1, 11093, Note_on_c, 0, 61, 72
1, 11179, Note_on_c, 0, 52, 0
1, 11180, Note_on_c, 0, 51, 72
1, 11267, Note_on_c, 0, 51, 0
1, 11267, Note_on_c, 0, 61, 0
1, 11268, Note_on_c, 0, 68, 0
1, 11268, Note_on_c, 0, 49, 72
1, 11268, Note_on_c, 0, 66, 72
1, 11269, Note_on_c, 0, 63, 72
1, 11353, Note_on_c, 0, 49, 0
1, 11353, Note_on_c, 0, 48, 72
1, 11440, Note_on_c, 0, 48, 0
1, 11441, Note_on_c, 0, 63, 0
1, 11441, Note_on_c, 0, 66, 0
1, 11442, Note_on_c, 0, 49, 72
1, 11442, Note_on_c, 0, 64, 72
1, 11443, Note_on_c, 0, 56, 72
1, 11529, Note_on_c, 0, 56, 0
1, 11529, Note_on_c, 0, 58, 72
1, 11618, Note_on_c, 0, 58, 0
1, 11618, Note_on_c, 0, 59, 72
1, 11707, Note_on_c, 0, 59, 0
1, 11708, Note_on_c, 0, 56, 72
1, 11797, Note_on_c, 0, 56, 0
1, 11798, Note_on_c, 0, 64, 0
1, 11798, Note_on_c, 0, 73, 76
1, 11799, Note_on_c, 0, 58, 72
1, 11887, Note_on_c, 0, 58, 0
1, 11887, Note_on_c, 0, 61, 72
1, 11977, Note_on_c, 0, 61, 0
1, 11977, Note_on_c, 0, 73, 0
1, 11978, Note_on_c, 0, 49, 0
1, 11978, Note_on_c, 0, 70, 76
1, 11979, Note_on_c, 0, 64, 72
1, 11979, Note_on_c, 0, 43, 72
1, 12067, Note_on_c, 0, 43, 0
1, 12068, Note_on_c, 0, 61, 72
1, 12157, Note_on_c, 0, 61, 0
1, 12158, Note_on_c, 0, 64, 0
1, 12158, Note_on_c, 0, 63, 72
1, 12159, Note_on_c, 0, 59, 72
1, 12247, Note_on_c, 0, 59, 0
1, 12247, Note_on_c, 0, 58, 72
1, 12336, Note_on_c, 0, 58, 0
1, 12336, Note_on_c, 0, 63, 0
1, 12337, Note_on_c, 0, 61, 72
1, 12337, Note_on_c, 0, 56, 72
1, 12424, Note_on_c, 0, 56, 0
1, 12425, Note_on_c, 0, 55, 72
1, 12514, Note_on_c, 0, 55, 0
1, 12514, Note_on_c, 0, 61, 0
1, 12515, Note_on_c, 0, 70, 0
1, 12515, Note_on_c, 0, 59, 72
1, 12516, Note_on_c, 0, 56, 72
1, 12600, Note_on_c, 0, 68, 76
1, 12687, Note_on_c, 0, 68, 0
1, 12688, Note_on_c, 0, 67, 72
1, 12773, Note_on_c, 0, 67, 0
1, 12773, Note_on_c, 0, 70, 76
1, 12859, Note_on_c, 0, 70, 0
1, 12860, Note_on_c, 0, 68, 76
1, 12947, Note_on_c, 0, 68, 0
1, 12947, Note_on_c, 0, 65, 72
1, 13035, Note_on_c, 0, 65, 0
1, 13035, Note_on_c, 0, 59, 0
1, 13036, Note_on_c, 0, 58, 72
1, 13036, Note_on_c, 0, 62, 72
1, 13110, Note_on_c, 0, 56, 0
1, 13125, Note_on_c, 0, 56, 72
1, 13214, Note_on_c, 0, 56, 0
1, 13214, Note_on_c, 0, 62, 0
1, 13215, Note_on_c, 0, 63, 72
1, 13215, Note_on_c, 0, 54, 72
1, 13302, Note_on_c, 0, 54, 0
1, 13303, Note_on_c, 0, 53, 72
1, 13391, Note_on_c, 0, 53, 0
1, 13391, Note_on_c, 0, 63, 0
1, 13392, Note_on_c, 0, 51, 72
1, 13392, Note_on_c, 0, 65, 72
1, 13477, Note_on_c, 0, 51, 0
1, 13477, Note_on_c, 0, 50, 72
1, 13564, Note_on_c, 0, 50, 0
1, 13565, Note_on_c, 0, 65, 0
1, 13565, Note_on_c, 0, 66, 72
1, 13566, Note_on_c, 0, 51, 72
1, 13651, Note_on_c, 0, 51, 0
1, 13651, Note_on_c, 0, 53, 72
1, 13739, Note_on_c, 0, 53, 0
1, 13740, Note_on_c, 0, 58, 0
1, 13740, Note_on_c, 0, 63, 72
1, 13740, Note_on_c, 0, 54, 72
1, 13828, Note_on_c, 0, 54, 0
1, 13829, Note_on_c, 0, 46, 72
1, 13919, Note_on_c, 0, 46, 0
1, 13919, Note_on_c, 0, 63, 0
1, 13920, Note_on_c, 0, 56, 72
1, 13920, Note_on_c, 0, 47, 72
1, 14007, Note_on_c, 0, 47, 0
1, 14007, Note_on_c, 0, 51, 72
1, 14095, Note_on_c, 0, 51, 0
1, 14096, Note_on_c, 0, 66, 0
1, 14096, Note_on_c, 0, 65, 72
1, 14097, Note_on_c, 0, 49, 72
1, 14182, Note_on_c, 0, 49, 0
1, 14182, Note_on_c, 0, 51, 72
1, 14269, Note_on_c, 0, 51, 0
1, 14269, Note_on_c, 0, 56, 0
1, 14270, Note_on_c, 0, 61, 72
1, 14270, Note_on_c, 0, 53, 72
1, 14357, Note_on_c, 0, 53, 0
1, 14358, Note_on_c, 0, 44, 72
1, 14446, Note_on_c, 0, 44, 0
1, 14446, Note_on_c, 0, 61, 0
1, 14447, Note_on_c, 0, 54, 72
1, 14447, Note_on_c, 0, 46, 72
1, 14535, Note_on_c, 0, 46, 0
1, 14535, Note_on_c, 0, 49, 72
1, 14623, Note_on_c, 0, 49, 0
1, 14624, Note_on_c, 0, 65, 0
1, 14624, Note_on_c, 0, 63, 72
1, 14625, Note_on_c, 0, 47, 72
1, 14710, Note_on_c, 0, 47, 0
1, 14710, Note_on_c, 0, 49, 72
1, 14796, Note_on_c, 0, 49, 0
1, 14796, Note_on_c, 0, 54, 0
1, 14797, Note_on_c, 0, 59, 72
1, 14797, Note_on_c, 0, 51, 72
1, 14882, Note_on_c, 0, 51, 0
1, 14883, Note_on_c, 0, 63, 0
1, 14883, Note_on_c, 0, 63, 72
1, 14884, Note_on_c, 0, 42, 72
1, 14968, Note_on_c, 0, 42, 0
1, 14968, Note_on_c, 0, 63, 0
1, 14969, Note_on_c, 0, 65, 72
1, 14969, Note_on_c, 0, 44, 72
1, 15054, Note_on_c, 0, 44, 0
1, 15055, Note_on_c, 0, 65, 0
1, 15055, Note_on_c, 0, 66, 72
1, 15056, Note_on_c, 0, 47, 72
1, 15141, Note_on_c, 0, 47, 0
1, 15141, Note_on_c, 0, 66, 0
1, 15142, Note_on_c, 0, 68, 76
1, 15142, Note_on_c, 0, 38, 72
1, 15213, Note_on_c, 0, 59, 0
1, 15227, Note_on_c, 0, 59, 72
1, 15315, Note_on_c, 0, 59, 0
1, 15315, Note_on_c, 0, 38, 0
1, 15315, Note_on_c, 0, 58, 72
1, 15316, Note_on_c, 0, 50, 72
1, 15401, Note_on_c, 0, 68, 0
1, 15401, Note_on_c, 0, 62, 72
1, 15487, Note_on_c, 0, 62, 0
1, 15487, Note_on_c, 0, 50, 0
1, 15488, Note_on_c, 0, 65, 72
1, 15488, Note_on_c, 0, 46, 72
1, 15573, Note_on_c, 0, 65, 0
1, 15574, Note_on_c, 0, 68, 76
1, 15660, Note_on_c, 0, 68, 0
1, 15661, Note_on_c, 0, 46, 0
1, 15661, Note_on_c, 0, 66, 72
1, 15662, Note_on_c, 0, 51, 72
1, 15734, Note_on_c, 0, 58, 0
1, 15749, Note_on_c, 0, 51, 0
1, 15749, Note_on_c, 0, 58, 72
1, 15750, Note_on_c, 0, 53, 72
1, 15836, Note_on_c, 0, 53, 0
1, 15837, Note_on_c, 0, 58, 0
1, 15837, Note_on_c, 0, 63, 72
1, 15838, Note_on_c, 0, 54, 72
1, 15923, Note_on_c, 0, 54, 0
1, 15923, Note_on_c, 0, 66, 0
1, 15924, Note_on_c, 0, 66, 72
1, 15924, Note_on_c, 0, 51, 72
1, 16009, Note_on_c, 0, 51, 0
1, 16009, Note_on_c, 0, 66, 0
1, 16010, Note_on_c, 0, 68, 76
1, 16010, Note_on_c, 0, 53, 72
1, 16096, Note_on_c, 0, 53, 0
1, 16097, Note_on_c, 0, 68, 0
1, 16097, Note_on_c, 0, 71, 76
1, 16098, Note_on_c, 0, 56, 72
1, 16185, Note_on_c, 0, 56, 0
1, 16185, Note_on_c, 0, 71, 0
1, 16186, Note_on_c, 0, 63, 0
1, 16186, Note_on_c, 0, 66, 72
1, 16187, Note_on_c, 0, 62, 72
1, 16187, Note_on_c, 0, 59, 72
1, 16217, Note_on_c, 0, 66, 0
1, 16218, Note_on_c, 0, 65, 72
1, 16251, Note_on_c, 0, 65, 0
1, 16252, Note_on_c, 0, 66, 72
1, 16285, Note_on_c, 0, 66, 0
1, 16286, Note_on_c, 0, 65, 72
1, 16319, Note_on_c, 0, 65, 0
1, 16320, Note_on_c, 0, 66, 72
1, 16353, Note_on_c, 0, 66, 0
1, 16353, Note_on_c, 0, 65, 72
1, 16368, Note_on_c, 0, 59, 0
1, 16368, Note_on_c, 0, 58, 72
1, 16387, Note_on_c, 0, 65, 0
1, 16388, Note_on_c, 0, 66, 72
1, 16421, Note_on_c, 0, 66, 0
1, 16421, Note_on_c, 0, 65, 72
1, 16547, Note_on_c, 0, 58, 0
1, 16547, Note_on_c, 0, 56, 72
1, 16722, Note_on_c, 0, 56, 0
1, 16723, Note_on_c, 0, 65, 0
1, 16723, Note_on_c, 0, 62, 0
1, 16724, Note_on_c, 0, 54, 72
1, 16724, Note_on_c, 0, 63, 72
1, 16810, Note_on_c, 0, 54, 0
1, 16810, Note_on_c, 0, 65, 72
1, 16811, Note_on_c, 0, 56, 72
1, 16898, Note_on_c, 0, 56, 0
1, 16898, Note_on_c, 0, 65, 0
1, 16899, Note_on_c, 0, 63, 0
1, 16899, Note_on_c, 0, 66, 72
1, 16900, Note_on_c, 0, 58, 72
1, 16984, Note_on_c, 0, 58, 0
1, 16985, Note_on_c, 0, 66, 0
1, 16985, Note_on_c, 0, 63, 72
1, 16986, Note_on_c, 0, 54, 72
1, 17071, Note_on_c, 0, 54, 0
1, 17071, Note_on_c, 0, 63, 0
1, 17072, Note_on_c, 0, 65, 72
1, 17072, Note_on_c, 0, 56, 72
1, 17157, Note_on_c, 0, 56, 0
1, 17158, Note_on_c, 0, 68, 75
1, 17158, Note_on_c, 0, 59, 72
1, 17160, Note_on_c, 0, 65, 0
1, 17243, Note_on_c, 0, 68, 0
1, 17243, Note_on_c, 0, 71, 75
1, 17244, Note_on_c, 0, 59, 0
1, 17244, Note_on_c, 0, 50, 72
1, 17328, Note_on_c, 0, 50, 0
1, 17328, Note_on_c, 0, 51, 72
1, 17416, Note_on_c, 0, 51, 0
1, 17417, Note_on_c, 0, 71, 0
1, 17417, Note_on_c, 0, 70, 75
1, 17418, Note_on_c, 0, 53, 72
1, 17506, Note_on_c, 0, 53, 0
1, 17506, Note_on_c, 0, 46, 72
1, 17595, Note_on_c, 0, 46, 0
1, 17595, Note_on_c, 0, 70, 0
1, 17596, Note_on_c, 0, 68, 75
1, 17596, Note_on_c, 0, 50, 72
1, 17683, Note_on_c, 0, 50, 0
1, 17684, Note_on_c, 0, 53, 72
1, 17773, Note_on_c, 0, 53, 0
1, 17773, Note_on_c, 0, 68, 0
1, 17774, Note_on_c, 0, 51, 72
1, 17774, Note_on_c, 0, 66, 72
1, 17775, Note_on_c, 0, 63, 72
1, 17861, Note_on_c, 0, 63, 0
1, 17862, Note_on_c, 0, 61, 72
1, 17951, Note_on_c, 0, 61, 0
1, 17951, Note_on_c, 0, 59, 72
1, 18038, Note_on_c, 0, 59, 0
1, 18038, Note_on_c, 0, 63, 72
1, 18126, Note_on_c, 0, 63, 0
1, 18127, Note_on_c, 0, 61, 72
1, 18213, Note_on_c, 0, 61, 0
1, 18213, Note_on_c, 0, 66, 0
1, 18214, Note_on_c, 0, 68, 75
1, 18214, Note_on_c, 0, 58, 72
1, 18299, Note_on_c, 0, 58, 0
1, 18300, Note_on_c, 0, 68, 0
1, 18300, Note_on_c, 0, 51, 0
1, 18300, Note_on_c, 0, 70, 75
1, 18300, Note_on_c, 0, 49, 72
1, 18301, Note_on_c, 0, 55, 72
1, 18384, Note_on_c, 0, 70, 0
1, 18385, Note_on_c, 0, 71, 75
1, 18470, Note_on_c, 0, 71, 0
1, 18470, Note_on_c, 0, 55, 0
1, 18471, Note_on_c, 0, 73, 75
1, 18471, Note_on_c, 0, 56, 72
1, 18555, Note_on_c, 0, 73, 0
1, 18556, Note_on_c, 0, 70, 75
1, 18643, Note_on_c, 0, 70, 0
1, 18643, Note_on_c, 0, 56, 0
1, 18644, Note_on_c, 0, 71, 75
1, 18644, Note_on_c, 0, 58, 72
1, 18729, Note_on_c, 0, 71, 0
1, 18730, Note_on_c, 0, 73, 75
1, 18816, Note_on_c, 0, 73, 0
1, 18817, Note_on_c, 0, 49, 0
1, 18817, Note_on_c, 0, 75, 75
1, 18818, Note_on_c, 0, 47, 72
1, 18902, Note_on_c, 0, 75, 0
1, 18902, Note_on_c, 0, 73, 75
1, 18986, Note_on_c, 0, 73, 0
1, 18987, Note_on_c, 0, 58, 0
1, 18987, Note_on_c, 0, 71, 75
1, 18988, Note_on_c, 0, 56, 72
1, 19070, Note_on_c, 0, 71, 0
1, 19070, Note_on_c, 0, 75, 75
1, 19155, Note_on_c, 0, 75, 0
1, 19156, Note_on_c, 0, 56, 0
1, 19156, Note_on_c, 0, 73, 75
1, 19157, Note_on_c, 0, 64, 72
1, 19241, Note_on_c, 0, 73, 0
1, 19241, Note_on_c, 0, 70, 75
1, 19326, Note_on_c, 0, 70, 0
1, 19327, Note_on_c, 0, 47, 0
1, 19327, Note_on_c, 0, 67, 72
1, 19328, Note_on_c, 0, 46, 72
1, 19413, Note_on_c, 0, 46, 0
1, 19413, Note_on_c, 0, 49, 72
1, 19499, Note_on_c, 0, 49, 0
1, 19500, Note_on_c, 0, 67, 0
1, 19500, Note_on_c, 0, 64, 0
1, 19500, Note_on_c, 0, 68, 75
1, 19501, Note_on_c, 0, 63, 72
1, 19501, Note_on_c, 0, 47, 72
1, 19585, Note_on_c, 0, 47, 0
1, 19586, Note_on_c, 0, 46, 72
1, 19672, Note_on_c, 0, 46, 0
1, 19673, Note_on_c, 0, 63, 0
1, 19673, Note_on_c, 0, 68, 0
1, 19674, Note_on_c, 0, 70, 75
1, 19674, Note_on_c, 0, 61, 72
1, 19674, Note_on_c, 0, 44, 72
1, 19757, Note_on_c, 0, 44, 0
1, 19758, Note_on_c, 0, 43, 72
1, 19844, Note_on_c, 0, 43, 0
1, 19844, Note_on_c, 0, 61, 0
1, 19845, Note_on_c, 0, 70, 0
1, 19845, Note_on_c, 0, 71, 75
1, 19846, Note_on_c, 0, 59, 72
1, 19846, Note_on_c, 0, 44, 72
1, 19930, Note_on_c, 0, 44, 0
1, 19931, Note_on_c, 0, 59, 0
1, 19931, Note_on_c, 0, 63, 72
1, 19932, Note_on_c, 0, 42, 72
1, 20016, Note_on_c, 0, 42, 0
1, 20016, Note_on_c, 0, 63, 0
1, 20016, Note_on_c, 0, 68, 75
1, 20017, Note_on_c, 0, 40, 72
1, 20101, Note_on_c, 0, 40, 0
1, 20101, Note_on_c, 0, 71, 0
1, 20102, Note_on_c, 0, 70, 75
1, 20102, Note_on_c, 0, 44, 72
1, 20187, Note_on_c, 0, 44, 0
1, 20187, Note_on_c, 0, 70, 0
1, 20188, Note_on_c, 0, 72, 75
1, 20188, Note_on_c, 0, 42, 72
1, 20272, Note_on_c, 0, 42, 0
1, 20273, Note_on_c, 0, 72, 0
1, 20273, Note_on_c, 0, 73, 75
1, 20273, Note_on_c, 0, 39, 72
1, 20356, Note_on_c, 0, 39, 0
1, 20356, Note_on_c, 0, 73, 0
1, 20356, Note_on_c, 0, 68, 0
1, 20357, Note_on_c, 0, 75, 75
1, 20358, Note_on_c, 0, 66, 72
1, 20358, Note_on_c, 0, 36, 72
1, 20439, Note_on_c, 0, 66, 0
1, 20440, Note_on_c, 0, 68, 75
1, 20524, Note_on_c, 0, 68, 0
1, 20524, Note_on_c, 0, 36, 0
1, 20524, Note_on_c, 0, 69, 75
1, 20525, Note_on_c, 0, 37, 72
1, 20608, Note_on_c, 0, 69, 0
1, 20609, Note_on_c, 0, 66, 72
1, 20694, Note_on_c, 0, 66, 0
1, 20694, Note_on_c, 0, 37, 0
1, 20695, Note_on_c, 0, 73, 75
1, 20695, Note_on_c, 0, 39, 72
1, 20778, Note_on_c, 0, 73, 0
1, 20779, Note_on_c, 0, 72, 75
1, 20865, Note_on_c, 0, 72, 0
1, 20865, Note_on_c, 0, 39, 0
1, 20866, Note_on_c, 0, 75, 0
1, 20866, Note_on_c, 0, 73, 75
1, 20867, Note_on_c, 0, 40, 72
1, 20952, Note_on_c, 0, 40, 0
1, 20952, Note_on_c, 0, 75, 75
1, 20953, Note_on_c, 0, 42, 72
1, 21039, Note_on_c, 0, 42, 0
1, 21040, Note_on_c, 0, 75, 0
1, 21040, Note_on_c, 0, 76, 75
1, 21041, Note_on_c, 0, 44, 72
1, 21127, Note_on_c, 0, 44, 0
1, 21127, Note_on_c, 0, 76, 0
1, 21128, Note_on_c, 0, 73, 75
1, 21128, Note_on_c, 0, 40, 72
1, 21213, Note_on_c, 0, 40, 0
1, 21214, Note_on_c, 0, 73, 0
1, 21214, Note_on_c, 0, 75, 75
1, 21215, Note_on_c, 0, 42, 72
1, 21299, Note_on_c, 0, 42, 0
1, 21299, Note_on_c, 0, 75, 0
1, 21300, Note_on_c, 0, 78, 69
1, 21300, Note_on_c, 0, 45, 72
1, 21385, Note_on_c, 0, 45, 0
1, 21385, Note_on_c, 0, 78, 0
1, 21386, Note_on_c, 0, 73, 0
1, 21386, Note_on_c, 0, 81, 69
1, 21387, Note_on_c, 0, 72, 75
1, 21387, Note_on_c, 0, 39, 72
1, 21470, Note_on_c, 0, 39, 0
1, 21471, Note_on_c, 0, 40, 72
1, 21557, Note_on_c, 0, 40, 0
1, 21557, Note_on_c, 0, 72, 0
1, 21558, Note_on_c, 0, 81, 0
1, 21558, Note_on_c, 0, 80, 69
1, 21559, Note_on_c, 0, 73, 75
1, 21559, Note_on_c, 0, 42, 72
1, 21643, Note_on_c, 0, 42, 0
1, 21644, Note_on_c, 0, 44, 72
1, 21730, Note_on_c, 0, 44, 0
1, 21730, Note_on_c, 0, 73, 0
1, 21731, Note_on_c, 0, 80, 0
1, 21731, Note_on_c, 0, 78, 69
1, 21732, Note_on_c, 0, 75, 75
1, 21732, Note_on_c, 0, 46, 72
1, 21816, Note_on_c, 0, 46, 0
1, 21816, Note_on_c, 0, 48, 72
1, 21901, Note_on_c, 0, 48, 0
1, 21902, Note_on_c, 0, 78, 0
1, 21902, Note_on_c, 0, 76, 75
1, 21903, Note_on_c, 0, 49, 72
1, 21988, Note_on_c, 0, 49, 0
1, 21988, Note_on_c, 0, 51, 72
1, 22075, Note_on_c, 0, 51, 0
1, 22076, Note_on_c, 0, 75, 0
1, 22076, Note_on_c, 0, 73, 75
1, 22077, Note_on_c, 0, 52, 72
1, 22162, Note_on_c, 0, 52, 0
1, 22162, Note_on_c, 0, 49, 72
1, 22248, Note_on_c, 0, 49, 0
1, 22248, Note_on_c, 0, 73, 0
1, 22249, Note_on_c, 0, 71, 75
1, 22249, Note_on_c, 0, 52, 72
1, 22336, Note_on_c, 0, 52, 0
1, 22336, Note_on_c, 0, 56, 72
1, 22422, Note_on_c, 0, 56, 0
1, 22423, Note_on_c, 0, 71, 0
1, 22423, Note_on_c, 0, 70, 75
1, 22423, Note_on_c, 0, 54, 72
1, 22509, Note_on_c, 0, 54, 0
1, 22509, Note_on_c, 0, 56, 72
1, 22595, Note_on_c, 0, 56, 0
1, 22595, Note_on_c, 0, 76, 0
1, 22596, Note_on_c, 0, 78, 69
1, 22596, Note_on_c, 0, 58, 72
1, 22680, Note_on_c, 0, 58, 0
1, 22681, Note_on_c, 0, 54, 72
1, 22766, Note_on_c, 0, 54, 0
1, 22766, Note_on_c, 0, 78, 0
1, 22767, Note_on_c, 0, 76, 75
1, 22767, Note_on_c, 0, 58, 72
1, 22853, Note_on_c, 0, 58, 0
1, 22854, Note_on_c, 0, 61, 72
1, 22940, Note_on_c, 0, 61, 0
1, 22940, Note_on_c, 0, 76, 0
1, 22941, Note_on_c, 0, 75, 75
1, 22941, Note_on_c, 0, 47, 72
1, 23025, Note_on_c, 0, 47, 0
1, 23026, Note_on_c, 0, 49, 72
1, 23111, Note_on_c, 0, 49, 0
1, 23111, Note_on_c, 0, 70, 0
1, 23112, Note_on_c, 0, 71, 75
1, 23112, Note_on_c, 0, 51, 72
1, 23195, Note_on_c, 0, 51, 0
1, 23196, Note_on_c, 0, 47, 72
1, 23280, Note_on_c, 0, 47, 0
1, 23280, Note_on_c, 0, 71, 0
1, 23280, Note_on_c, 0, 70, 75
1, 23281, Note_on_c, 0, 51, 72
1, 23365, Note_on_c, 0, 51, 0
1, 23365, Note_on_c, 0, 54, 72
1, 23449, Note_on_c, 0, 54, 0
1, 23450, Note_on_c, 0, 70, 0
1, 23450, Note_on_c, 0, 68, 75
1, 23451, Note_on_c, 0, 52, 72
1, 23535, Note_on_c, 0, 52, 0
1, 23535, Note_on_c, 0, 54, 72
1, 23619, Note_on_c, 0, 54, 0
1, 23620, Note_on_c, 0, 75, 0
1, 23620, Note_on_c, 0, 76, 75
1, 23621, Note_on_c, 0, 56, 72
1, 23704, Note_on_c, 0, 56, 0
1, 23704, Note_on_c, 0, 52, 72
1, 23788, Note_on_c, 0, 52, 0
1, 23789, Note_on_c, 0, 76, 0
1, 23789, Note_on_c, 0, 75, 75
1, 23790, Note_on_c, 0, 56, 72
1, 23874, Note_on_c, 0, 56, 0
1, 23874, Note_on_c, 0, 59, 72
1, 23958, Note_on_c, 0, 59, 0
1, 23959, Note_on_c, 0, 75, 0
1, 23959, Note_on_c, 0, 73, 75
1, 23960, Note_on_c, 0, 46, 72
1, 24045, Note_on_c, 0, 46, 0
1, 24045, Note_on_c, 0, 47, 72
1, 24130, Note_on_c, 0, 47, 0
1, 24131, Note_on_c, 0, 68, 0
1, 24131, Note_on_c, 0, 70, 75
1, 24132, Note_on_c, 0, 49, 72
1, 24216, Note_on_c, 0, 49, 0
1, 24216, Note_on_c, 0, 46, 72
1, 24301, Note_on_c, 0, 46, 0
1, 24301, Note_on_c, 0, 70, 0
1, 24302, Note_on_c, 0, 68, 75
1, 24302, Note_on_c, 0, 49, 72
1, 24387, Note_on_c, 0, 49, 0
1, 24388, Note_on_c, 0, 52, 72
1, 24472, Note_on_c, 0, 52, 0
1, 24473, Note_on_c, 0, 68, 0
1, 24473, Note_on_c, 0, 67, 72
1, 24473, Note_on_c, 0, 51, 72
1, 24558, Note_on_c, 0, 51, 0
1, 24559, Note_on_c, 0, 53, 72
1, 24645, Note_on_c, 0, 53, 0
1, 24645, Note_on_c, 0, 73, 0
1, 24646, Note_on_c, 0, 75, 75
1, 24646, Note_on_c, 0, 55, 72
1, 24730, Note_on_c, 0, 55, 0
1, 24731, Note_on_c, 0, 51, 72
1, 24816, Note_on_c, 0, 51, 0
1, 24816, Note_on_c, 0, 75, 0
1, 24817, Note_on_c, 0, 73, 75
1, 24817, Note_on_c, 0, 55, 72
1, 24901, Note_on_c, 0, 55, 0
1, 24902, Note_on_c, 0, 58, 72
1, 24988, Note_on_c, 0, 58, 0
1, 24988, Note_on_c, 0, 73, 0
1, 24988, Note_on_c, 0, 67, 0
1, 24989, Note_on_c, 0, 71, 71
1, 24989, Note_on_c, 0, 56, 72
1, 24990, Note_on_c, 0, 68, 67
1, 25072, Note_on_c, 0, 56, 0
1, 25073, Note_on_c, 0, 71, 0
1, 25073, Note_on_c, 0, 70, 75
1, 25073, Note_on_c, 0, 58, 72
1, 25150, Note_on_c, 0, 68, 0
1, 25157, Note_on_c, 0, 58, 0
1, 25157, Note_on_c, 0, 70, 0
1, 25158, Note_on_c, 0, 68, 75
1, 25158, Note_on_c, 0, 59, 72
1, 25240, Note_on_c, 0, 59, 0
1, 25241, Note_on_c, 0, 68, 0
1, 25241, Note_on_c, 0, 71, 75
1, 25241, Note_on_c, 0, 51, 72
1, 25324, Note_on_c, 0, 51, 0
1, 25324, Note_on_c, 0, 71, 0
1, 25325, Note_on_c, 0, 73, 75
1, 25325, Note_on_c, 0, 52, 72
1, 25406, Note_on_c, 0, 52, 0
1, 25407, Note_on_c, 0, 73, 0
1, 25407, Note_on_c, 0, 76, 75
1, 25408, Note_on_c, 0, 56, 72
1, 25489, Note_on_c, 0, 56, 0
1, 25489, Note_on_c, 0, 76, 0
1, 25490, Note_on_c, 0, 70, 75
1, 25490, Note_on_c, 0, 54, 72
1, 25572, Note_on_c, 0, 54, 0
1, 25573, Note_on_c, 0, 70, 0
1, 25573, Note_on_c, 0, 68, 75
1, 25574, Note_on_c, 0, 56, 72
1, 25654, Note_on_c, 0, 56, 0
1, 25655, Note_on_c, 0, 68, 0
1, 25655, Note_on_c, 0, 66, 72
1, 25656, Note_on_c, 0, 58, 72
1, 25737, Note_on_c, 0, 58, 0
1, 25737, Note_on_c, 0, 66, 0
1, 25738, Note_on_c, 0, 70, 75
1, 25738, Note_on_c, 0, 49, 72
1, 25820, Note_on_c, 0, 49, 0
1, 25821, Note_on_c, 0, 70, 0
1, 25821, Note_on_c, 0, 71, 75
1, 25822, Note_on_c, 0, 51, 72
1, 25906, Note_on_c, 0, 51, 0
1, 25906, Note_on_c, 0, 71, 0
1, 25907, Note_on_c, 0, 75, 75
1, 25907, Note_on_c, 0, 54, 72
1, 25991, Note_on_c, 0, 54, 0
1, 25992, Note_on_c, 0, 75, 0
1, 25992, Note_on_c, 0, 68, 75
1, 25992, Note_on_c, 0, 52, 72
1, 26076, Note_on_c, 0, 52, 0
1, 26076, Note_on_c, 0, 68, 0
1, 26076, Note_on_c, 0, 75, 75
1, 26077, Note_on_c, 0, 54, 72
1, 26160, Note_on_c, 0, 54, 0
1, 26160, Note_on_c, 0, 75, 0
1, 26161, Note_on_c, 0, 73, 75
1, 26161, Note_on_c, 0, 56, 72
1, 26243, Note_on_c, 0, 56, 0
1, 26243, Note_on_c, 0, 73, 0
1, 26244, Note_on_c, 0, 71, 75
1, 26244, Note_on_c, 0, 47, 72
1, 26325, Note_on_c, 0, 47, 0
1, 26326, Note_on_c, 0, 71, 0
1, 26326, Note_on_c, 0, 70, 75
1, 26327, Note_on_c, 0, 49, 72
1, 26409, Note_on_c, 0, 49, 0
1, 26409, Note_on_c, 0, 70, 0
1, 26410, Note_on_c, 0, 68, 75
1, 26410, Note_on_c, 0, 52, 72
1, 26492, Note_on_c, 0, 52, 0
1, 26493, Note_on_c, 0, 68, 0
1, 26493, Note_on_c, 0, 67, 72
1, 26494, Note_on_c, 0, 51, 72
1, 26578, Note_on_c, 0, 51, 0
1, 26578, Note_on_c, 0, 67, 0
1, 26579, Note_on_c, 0, 68, 75
1, 26579, Note_on_c, 0, 53, 72
1, 26663, Note_on_c, 0, 53, 0
1, 26664, Note_on_c, 0, 68, 0
1, 26664, Note_on_c, 0, 70, 75
1, 26664, Note_on_c, 0, 55, 72
1, 26748, Note_on_c, 0, 55, 0
1, 26748, Note_on_c, 0, 70, 0
1, 26748, Note_on_c, 0, 67, 72
1, 26749, Note_on_c, 0, 46, 72
1, 26831, Note_on_c, 0, 46, 0
1, 26832, Note_on_c, 0, 67, 0
1, 26832, Note_on_c, 0, 68, 75
1, 26832, Note_on_c, 0, 47, 72
1, 26916, Note_on_c, 0, 47, 0
1, 26916, Note_on_c, 0, 71, 75
1, 26916, Note_on_c, 0, 51, 72
1, 27001, Note_on_c, 0, 51, 0
1, 27001, Note_on_c, 0, 71, 0
1, 27002, Note_on_c, 0, 76, 75
1, 27002, Note_on_c, 0, 49, 72
1, 27088, Note_on_c, 0, 49, 0
1, 27089, Note_on_c, 0, 51, 72
1, 27161, Note_on_c, 0, 76, 0
1, 27166, Note_on_c, 0, 68, 0
1, 27175, Note_on_c, 0, 51, 0
1, 27176, Note_on_c, 0, 68, 75
1, 27176, Note_on_c, 0, 76, 75
1, 27176, Note_on_c, 0, 52, 72
1, 27262, Note_on_c, 0, 52, 0
1, 27262, Note_on_c, 0, 47, 72
1, 27332, Note_on_c, 0, 76, 0
1, 27333, Note_on_c, 0, 68, 0
1, 27346, Note_on_c, 0, 47, 0
1, 27347, Note_on_c, 0, 76, 75
1, 27347, Note_on_c, 0, 68, 75
1, 27348, Note_on_c, 0, 49, 72
1, 27432, Note_on_c, 0, 49, 0
1, 27432, Note_on_c, 0, 52, 72
1, 27504, Note_on_c, 0, 76, 0
1, 27505, Note_on_c, 0, 68, 0
1, 27519, Note_on_c, 0, 52, 0
1, 27519, Note_on_c, 0, 73, 75
1, 27520, Note_on_c, 0, 76, 75
1, 27520, Note_on_c, 0, 45, 72
1, 27607, Note_on_c, 0, 45, 0
1, 27608, Note_on_c, 0, 49, 72
1, 27681, Note_on_c, 0, 76, 0
1, 27682, Note_on_c, 0, 73, 0
1, 27696, Note_on_c, 0, 49, 0
1, 27697, Note_on_c, 0, 76, 75
1, 27697, Note_on_c, 0, 73, 75
1, 27698, Note_on_c, 0, 52, 72
1, 27786, Note_on_c, 0, 52, 0
1, 27786, Note_on_c, 0, 44, 72
1, 27862, Note_on_c, 0, 73, 0
1, 27862, Note_on_c, 0, 76, 0
1, 27877, Note_on_c, 0, 44, 0
1, 27877, Note_on_c, 0, 73, 75
1, 27878, Note_on_c, 0, 76, 75
1, 27878, Note_on_c, 0, 49, 72
1, 27968, Note_on_c, 0, 49, 0
1, 27969, Note_on_c, 0, 52, 72
1, 28044, Note_on_c, 0, 76, 0
1, 28044, Note_on_c, 0, 73, 0
1, 28059, Note_on_c, 0, 52, 0
1, 28060, Note_on_c, 0, 76, 75
1, 28060, Note_on_c, 0, 73, 75
1, 28061, Note_on_c, 0, 43, 72
1, 28141, Note_on_c, 0, 73, 0
1, 28141, Note_on_c, 0, 71, 75
1, 28223, Note_on_c, 0, 71, 0
1, 28223, Note_on_c, 0, 70, 75
1, 28304, Note_on_c, 0, 70, 0
1, 28305, Note_on_c, 0, 73, 75
1, 28387, Note_on_c, 0, 73, 0
1, 28387, Note_on_c, 0, 71, 75
1, 28467, Note_on_c, 0, 71, 0
1, 28468, Note_on_c, 0, 68, 75
1, 28548, Note_on_c, 0, 68, 0
1, 28548, Note_on_c, 0, 70, 75
1, 28618, Note_on_c, 0, 76, 0
1, 28630, Note_on_c, 0, 75, 75
1, 28710, Note_on_c, 0, 75, 0
1, 28711, Note_on_c, 0, 73, 75
1, 28794, Note_on_c, 0, 73, 0
1, 28794, Note_on_c, 0, 43, 0
1, 28795, Note_on_c, 0, 82, 69
1, 28795, Note_on_c, 0, 55, 72
1, 28877, Note_on_c, 0, 55, 0
1, 28878, Note_on_c, 0, 82, 0
1, 28878, Note_on_c, 0, 76, 75
1, 28879, Note_on_c, 0, 56, 72
1, 28962, Note_on_c, 0, 56, 0
1, 28962, Note_on_c, 0, 76, 0
1, 28963, Note_on_c, 0, 73, 75
1, 28963, Note_on_c, 0, 58, 72
1, 29045, Note_on_c, 0, 58, 0
1, 29046, Note_on_c, 0, 73, 0
1, 29046, Note_on_c, 0, 75, 75
1, 29047, Note_on_c, 0, 47, 72
1, 29128, Note_on_c, 0, 75, 0
1, 29128, Note_on_c, 0, 73, 75
1, 29210, Note_on_c, 0, 73, 0
1, 29211, Note_on_c, 0, 70, 0
1, 29211, Note_on_c, 0, 68, 75
1, 29212, Note_on_c, 0, 71, 75
1, 29293, Note_on_c, 0, 71, 0
1, 29293, Note_on_c, 0, 75, 75
1, 29377, Note_on_c, 0, 75, 0
1, 29377, Note_on_c, 0, 47, 0
1, 29378, Note_on_c, 0, 73, 75
1, 29378, Note_on_c, 0, 52, 72
1, 29459, Note_on_c, 0, 73, 0
1, 29459, Note_on_c, 0, 70, 75
1, 29541, Note_on_c, 0, 70, 0
1, 29541, Note_on_c, 0, 52, 0
1, 29542, Note_on_c, 0, 68, 0
1, 29542, Note_on_c, 0, 71, 75
1, 29543, Note_on_c, 0, 49, 72
1, 29622, Note_on_c, 0, 71, 0
1, 29623, Note_on_c, 0, 70, 75
1, 29704, Note_on_c, 0, 70, 0
1, 29705, Note_on_c, 0, 49, 0
1, 29705, Note_on_c, 0, 68, 75
1, 29706, Note_on_c, 0, 51, 72
1, 29785, Note_on_c, 0, 68, 0
1, 29785, Note_on_c, 0, 71, 75
1, 29866, Note_on_c, 0, 71, 0
1, 29866, Note_on_c, 0, 51, 0
1, 29867, Note_on_c, 0, 70, 75
1, 29867, Note_on_c, 0, 39, 72
1, 29945, Note_on_c, 0, 70, 0
1, 29946, Note_on_c, 0, 67, 72
1, 30026, Note_on_c, 0, 67, 0
1, 30026, Note_on_c, 0, 39, 0
1, 30027, Note_on_c, 0, 68, 75
1, 30027, Note_on_c, 0, 44, 72
1, 30107, Note_on_c, 0, 44, 0
1, 30107, Note_on_c, 0, 46, 72
1, 30186, Note_on_c, 0, 46, 0
1, 30187, Note_on_c, 0, 66, 72
1, 30187, Note_on_c, 0, 48, 72
1, 30268, Note_on_c, 0, 48, 0
1, 30268, Note_on_c, 0, 44, 72
1, 30349, Note_on_c, 0, 44, 0
1, 30350, Note_on_c, 0, 66, 0
1, 30350, Note_on_c, 0, 63, 72
1, 30351, Note_on_c, 0, 48, 72
1, 30432, Note_on_c, 0, 48, 0
1, 30432, Note_on_c, 0, 51, 72
1, 30516, Note_on_c, 0, 51, 0
1, 30516, Note_on_c, 0, 63, 0
1, 30516, Note_on_c, 0, 61, 72
1, 30517, Note_on_c, 0, 54, 72
1, 30599, Note_on_c, 0, 61, 0
1, 30600, Note_on_c, 0, 60, 72
1, 30683, Note_on_c, 0, 60, 0
1, 30683, Note_on_c, 0, 54, 0
1, 30684, Note_on_c, 0, 52, 72
1, 30684, Note_on_c, 0, 61, 72
1, 30767, Note_on_c, 0, 61, 0
1, 30768, Note_on_c, 0, 63, 72
1, 30851, Note_on_c, 0, 63, 0
1, 30851, Note_on_c, 0, 52, 0
1, 30852, Note_on_c, 0, 51, 72
1, 30852, Note_on_c, 0, 64, 72
1, 30933, Note_on_c, 0, 64, 0
1, 30934, Note_on_c, 0, 66, 72
1, 31016, Note_on_c, 0, 66, 0
1, 31016, Note_on_c, 0, 51, 0
1, 31017, Note_on_c, 0, 49, 72
1, 31017, Note_on_c, 0, 64, 72
1, 31100, Note_on_c, 0, 64, 0
1, 31101, Note_on_c, 0, 63, 72
1, 31185, Note_on_c, 0, 63, 0
1, 31185, Note_on_c, 0, 61, 72
1, 31270, Note_on_c, 0, 61, 0
1, 31271, Note_on_c, 0, 64, 72
1, 31355, Note_on_c, 0, 64, 0
1, 31355, Note_on_c, 0, 63, 72
1, 31554, Note_on_c, 0, 63, 0
1, 31555, Note_on_c, 0, 58, 72
1, 31864, Note_on_c, 0, 58, 0
1, 31865, Note_on_c, 0, 55, 72
1, 32027, Note_on_c, 0, 64, 72
1, 32209, Note_on_c, 0, 64, 0
1, 32210, Note_on_c, 0, 55, 0
1, 32210, Note_on_c, 0, 63, 72
1, 32211, Note_on_c, 0, 56, 72
1, 32345, Note_on_c, 0, 63, 0
1, 32345, Note_on_c, 0, 61, 72
1, 32593, Note_on_c, 0, 61, 0
1, 32594, Note_on_c, 0, 56, 0
1, 32594, Note_on_c, 0, 60, 72
1, 32595, Note_on_c, 0, 58, 72
1, 32645, Note_on_c, 0, 60, 0
1, 32646, Note_on_c, 0, 61, 72
1, 32690, Note_on_c, 0, 61, 0
1, 32691, Note_on_c, 0, 58, 0
1, 32691, Note_on_c, 0, 49, 0
1, 32692, Note_on_c, 0, 60, 72
1, 32692, Note_on_c, 0, 63, 72
1, 32693, Note_on_c, 0, 44, 72
1, 34611, Note_on_c, 0, 44, 0
1, 34611, Note_on_c, 0, 60, 0
1, 34612, Note_on_c, 0, 63, 0
1, 34612, Note_on_c, 0, 68, 0
1, 34728, Marker_t, "Copyright 1997 (P) S.D.Rodrian -  NOT to be reproduced or sold sans permission !"
1, 35264, Note_on_c, 0, 56, 56
1, 35583, Note_on_c, 0, 56, 0
1, 35584, Note_on_c, 0, 55, 72
1, 35742, Note_on_c, 0, 55, 0
1, 35742, Note_on_c, 0, 56, 72
1, 35820, Note_on_c, 0, 56, 0
1, 35821, Note_on_c, 0, 58, 72
1, 35899, Note_on_c, 0, 58, 0
1, 35900, Note_on_c, 0, 59, 72
1, 36056, Note_on_c, 0, 59, 0
1, 36056, Note_on_c, 0, 58, 72
1, 36212, Note_on_c, 0, 58, 0
1, 36213, Note_on_c, 0, 56, 72
1, 36367, Note_on_c, 0, 56, 0
1, 36367, Note_on_c, 0, 62, 72
1, 36523, Note_on_c, 0, 62, 0
1, 36523, Note_on_c, 0, 63, 72
1, 36678, Note_on_c, 0, 63, 0
1, 36679, Note_on_c, 0, 54, 72
1, 36833, Note_on_c, 0, 54, 0
1, 36833, Note_on_c, 0, 56, 72
1, 36976, Note_on_c, 0, 56, 0
1, 36987, Note_on_c, 0, 56, 72
1, 37142, Note_on_c, 0, 56, 0
1, 37142, Note_on_c, 0, 58, 72
1, 37287, Note_on_c, 0, 58, 0
1, 37297, Note_on_c, 0, 58, 72
1, 37452, Note_on_c, 0, 58, 0
1, 37452, Note_on_c, 0, 51, 72
1, 37604, Note_on_c, 0, 51, 0
1, 37604, Note_on_c, 0, 53, 72
1, 37755, Note_on_c, 0, 53, 0
1, 37756, Note_on_c, 0, 54, 72
1, 37756, Note_on_c, 0, 63, 72
1, 38059, Note_on_c, 0, 63, 0
1, 38059, Note_on_c, 0, 60, 72
1, 38209, Note_on_c, 0, 60, 0
1, 38210, Note_on_c, 0, 54, 0
1, 38210, Note_on_c, 0, 53, 72
1, 38211, Note_on_c, 0, 61, 72
1, 38286, Note_on_c, 0, 61, 0
1, 38287, Note_on_c, 0, 53, 0
1, 38287, Note_on_c, 0, 54, 72
1, 38288, Note_on_c, 0, 63, 72
1, 38362, Note_on_c, 0, 63, 0
1, 38363, Note_on_c, 0, 54, 0
1, 38363, Note_on_c, 0, 56, 72
1, 38364, Note_on_c, 0, 64, 72
1, 38516, Note_on_c, 0, 64, 0
1, 38516, Note_on_c, 0, 56, 0
1, 38517, Note_on_c, 0, 63, 72
1, 38517, Note_on_c, 0, 55, 72
1, 38592, Note_on_c, 0, 55, 0
1, 38593, Note_on_c, 0, 56, 72
1, 38669, Note_on_c, 0, 56, 0
1, 38670, Note_on_c, 0, 63, 0
1, 38670, Note_on_c, 0, 58, 72
1, 38671, Note_on_c, 0, 61, 72
1, 38819, Note_on_c, 0, 61, 0
1, 38820, Note_on_c, 0, 58, 0
1, 38820, Note_on_c, 0, 67, 72
1, 38820, Note_on_c, 0, 56, 72
1, 38894, Note_on_c, 0, 56, 0
1, 38894, Note_on_c, 0, 58, 72
1, 38969, Note_on_c, 0, 58, 0
1, 38969, Note_on_c, 0, 67, 0
1, 38970, Note_on_c, 0, 68, 74
1, 38970, Note_on_c, 0, 59, 72
1, 39109, Note_on_c, 0, 59, 0
1, 39119, Note_on_c, 0, 68, 0
1, 39119, Note_on_c, 0, 56, 72
1, 39120, Note_on_c, 0, 59, 72
1, 39270, Note_on_c, 0, 59, 0
1, 39270, Note_on_c, 0, 56, 0
1, 39271, Note_on_c, 0, 58, 72
1, 39271, Note_on_c, 0, 61, 72
1, 39408, Note_on_c, 0, 61, 0
1, 39420, Note_on_c, 0, 58, 0
1, 39420, Note_on_c, 0, 61, 72
1, 39528, Marker_t, "This file may be freely distributed on the WWW, as long as it's not modified. SDR"
1, 39569, Note_on_c, 0, 61, 0
1, 39570, Note_on_c, 0, 55, 72
1, 39570, Note_on_c, 0, 63, 72
1, 39709, Note_on_c, 0, 63, 0
1, 39720, Note_on_c, 0, 55, 0
1, 39720, Note_on_c, 0, 63, 72
1, 39870, Note_on_c, 0, 63, 0
1, 39870, Note_on_c, 0, 56, 72
1, 40019, Note_on_c, 0, 54, 72
1, 40166, Note_on_c, 0, 54, 0
1, 40167, Note_on_c, 0, 56, 0
1, 40167, Note_on_c, 0, 68, 77
1, 40168, Note_on_c, 0, 61, 72
1, 40168, Note_on_c, 0, 52, 72
1, 40464, Note_on_c, 0, 52, 0
1, 40464, Note_on_c, 0, 68, 0
1, 40465, Note_on_c, 0, 51, 72
1, 40465, Note_on_c, 0, 67, 72
1, 40577, Note_on_c, 0, 61, 0
1, 40612, Note_on_c, 0, 51, 0
1, 40613, Note_on_c, 0, 68, 74
1, 40613, Note_on_c, 0, 56, 72
1, 40613, Note_on_c, 0, 59, 72
1, 40642, Note_on_c, 0, 67, 0
1, 40687, Note_on_c, 0, 68, 0
1, 40687, Note_on_c, 0, 59, 0
1, 40688, Note_on_c, 0, 70, 74
1, 40688, Note_on_c, 0, 61, 72
1, 40761, Note_on_c, 0, 61, 0
1, 40761, Note_on_c, 0, 70, 0
1, 40762, Note_on_c, 0, 71, 74
1, 40762, Note_on_c, 0, 63, 72
1, 40894, Note_on_c, 0, 71, 0
1, 40909, Note_on_c, 0, 63, 0
1, 40910, Note_on_c, 0, 56, 0
1, 40910, Note_on_c, 0, 70, 74
1, 40911, Note_on_c, 0, 58, 72
1, 40911, Note_on_c, 0, 62, 72
1, 40983, Note_on_c, 0, 62, 0
1, 40984, Note_on_c, 0, 63, 72
1, 41057, Note_on_c, 0, 63, 0
1, 41058, Note_on_c, 0, 58, 0
1, 41058, Note_on_c, 0, 70, 0
1, 41059, Note_on_c, 0, 68, 74
1, 41059, Note_on_c, 0, 59, 72
1, 41060, Note_on_c, 0, 65, 72
1, 41205, Note_on_c, 0, 65, 0
1, 41205, Note_on_c, 0, 68, 0
1, 41205, Note_on_c, 0, 74, 74
1, 41206, Note_on_c, 0, 63, 72
1, 41279, Note_on_c, 0, 63, 0
1, 41279, Note_on_c, 0, 65, 72
1, 41352, Note_on_c, 0, 65, 0
1, 41352, Note_on_c, 0, 74, 0
1, 41352, Note_on_c, 0, 59, 0
1, 41353, Note_on_c, 0, 75, 74
1, 41353, Note_on_c, 0, 58, 72
1, 41353, Note_on_c, 0, 66, 72
1, 41488, Note_on_c, 0, 66, 0
1, 41498, Note_on_c, 0, 75, 0
1, 41498, Note_on_c, 0, 66, 72
1, 41499, Note_on_c, 0, 63, 72
1, 41645, Note_on_c, 0, 63, 0
1, 41646, Note_on_c, 0, 66, 0
1, 41646, Note_on_c, 0, 58, 0
1, 41647, Note_on_c, 0, 68, 74
1, 41647, Note_on_c, 0, 56, 72
1, 41648, Note_on_c, 0, 65, 72
1, 41782, Note_on_c, 0, 68, 0
1, 41792, Note_on_c, 0, 65, 0
1, 41793, Note_on_c, 0, 68, 74
1, 41940, Note_on_c, 0, 68, 0
1, 41940, Note_on_c, 0, 70, 74
1, 41941, Note_on_c, 0, 62, 72
1, 42076, Note_on_c, 0, 70, 0
1, 42087, Note_on_c, 0, 62, 0
1, 42087, Note_on_c, 0, 70, 74
1, 42234, Note_on_c, 0, 70, 0
1, 42234, Note_on_c, 0, 63, 72
1, 42381, Note_on_c, 0, 56, 0
1, 42381, Note_on_c, 0, 65, 72
1, 42382, Note_on_c, 0, 54, 72
1, 42454, Note_on_c, 0, 54, 0
1, 42454, Note_on_c, 0, 56, 72
1, 42528, Note_on_c, 0, 56, 0
1, 42528, Note_on_c, 0, 65, 0
1, 42528, Note_on_c, 0, 63, 0
1, 42529, Note_on_c, 0, 66, 72
1, 42529, Note_on_c, 0, 51, 72
1, 42530, Note_on_c, 0, 58, 72
1, 42667, Note_on_c, 0, 58, 0
1, 42674, Note_on_c, 0, 54, 72
1, 42675, Note_on_c, 0, 58, 72
1, 42805, Note_on_c, 0, 51, 0
1, 42820, Note_on_c, 0, 58, 0
1, 42821, Note_on_c, 0, 54, 0
1, 42821, Note_on_c, 0, 56, 72
1, 42822, Note_on_c, 0, 51, 72
1, 42822, Note_on_c, 0, 48, 72
1, 42966, Note_on_c, 0, 48, 0
1, 42967, Note_on_c, 0, 51, 0
1, 42967, Note_on_c, 0, 66, 0
1, 42968, Note_on_c, 0, 52, 72
1, 42968, Note_on_c, 0, 64, 72
1, 42969, Note_on_c, 0, 49, 72
1, 43038, Note_on_c, 0, 49, 0
1, 43039, Note_on_c, 0, 64, 0
1, 43040, Note_on_c, 0, 66, 72
1, 43040, Note_on_c, 0, 51, 72
1, 43104, Note_on_c, 0, 52, 0
1, 43111, Note_on_c, 0, 51, 0
1, 43112, Note_on_c, 0, 66, 0
1, 43112, Note_on_c, 0, 56, 0
1, 43113, Note_on_c, 0, 68, 77
1, 43113, Note_on_c, 0, 52, 72
1, 43258, Note_on_c, 0, 52, 0
1, 43259, Note_on_c, 0, 68, 0
1, 43259, Note_on_c, 0, 67, 72
1, 43260, Note_on_c, 0, 63, 72
1, 43260, Note_on_c, 0, 59, 72
1, 43260, Note_on_c, 0, 51, 72
1, 43333, Note_on_c, 0, 67, 0
1, 43333, Note_on_c, 0, 68, 77
1, 43407, Note_on_c, 0, 68, 0
1, 43407, Note_on_c, 0, 51, 0
1, 43408, Note_on_c, 0, 59, 0
1, 43408, Note_on_c, 0, 63, 0
1, 43409, Note_on_c, 0, 70, 77
1, 43409, Note_on_c, 0, 64, 72
1, 43410, Note_on_c, 0, 61, 72
1, 43410, Note_on_c, 0, 49, 72
1, 43553, Note_on_c, 0, 49, 0
1, 43553, Note_on_c, 0, 64, 0
1, 43554, Note_on_c, 0, 70, 0
1, 43554, Note_on_c, 0, 68, 77
1, 43555, Note_on_c, 0, 55, 72
1, 43555, Note_on_c, 0, 63, 72
1, 43625, Note_on_c, 0, 68, 0
1, 43626, Note_on_c, 0, 70, 77
1, 43698, Note_on_c, 0, 70, 0
1, 43699, Note_on_c, 0, 63, 0
1, 43699, Note_on_c, 0, 55, 0
1, 43700, Note_on_c, 0, 61, 0
1, 43700, Note_on_c, 0, 71, 77
1, 43701, Note_on_c, 0, 56, 72
1, 43845, Note_on_c, 0, 56, 0
1, 43846, Note_on_c, 0, 71, 0
1, 43846, Note_on_c, 0, 68, 77
1, 43847, Note_on_c, 0, 47, 72
1, 43993, Note_on_c, 0, 47, 0
1, 43993, Note_on_c, 0, 68, 0
1, 43994, Note_on_c, 0, 70, 77
1, 43994, Note_on_c, 0, 49, 72
1, 43994, Note_on_c, 0, 64, 72
1, 43995, Note_on_c, 0, 61, 72
1, 44124, Note_on_c, 0, 49, 0
1, 44140, Note_on_c, 0, 61, 0
1, 44140, Note_on_c, 0, 64, 0
1, 44141, Note_on_c, 0, 70, 0
1, 44141, Note_on_c, 0, 49, 72
1, 44285, Note_on_c, 0, 49, 0
1, 44285, Note_on_c, 0, 51, 72
1, 44286, Note_on_c, 0, 63, 72
1, 44286, Note_on_c, 0, 67, 72
1, 44287, Note_on_c, 0, 58, 72
1, 44328, Marker_t, "SDRodrian@aol.com  626 Lalor Trenton NJ 08611 http://members.aol.com/sdrodrian"
1, 44421, Note_on_c, 0, 51, 0
1, 44431, Note_on_c, 0, 63, 0
1, 44431, Note_on_c, 0, 58, 0
1, 44432, Note_on_c, 0, 67, 0
1, 44432, Note_on_c, 0, 51, 72
1, 44576, Note_on_c, 0, 51, 0
1, 44576, Note_on_c, 0, 68, 77
1, 44577, Note_on_c, 0, 63, 72
1, 44577, Note_on_c, 0, 59, 72
1, 44578, Note_on_c, 0, 44, 72
1, 44722, Note_on_c, 0, 68, 0
1, 44722, Note_on_c, 0, 70, 77
1, 44867, Note_on_c, 0, 70, 0
1, 44867, Note_on_c, 0, 44, 0
1, 44868, Note_on_c, 0, 59, 0
1, 44868, Note_on_c, 0, 63, 0
1, 44868, Note_on_c, 0, 71, 77
1, 45012, Note_on_c, 0, 51, 72
1, 45013, Note_on_c, 0, 59, 72
1, 45013, Note_on_c, 0, 66, 72
1, 45157, Note_on_c, 0, 59, 0
1, 45158, Note_on_c, 0, 66, 0
1, 45158, Note_on_c, 0, 51, 0
1, 45159, Note_on_c, 0, 71, 0
1, 45159, Note_on_c, 0, 73, 77
1, 45160, Note_on_c, 0, 68, 77
1, 45160, Note_on_c, 0, 52, 72
1, 45161, Note_on_c, 0, 64, 72
1, 45294, Note_on_c, 0, 52, 0
1, 45303, Note_on_c, 0, 64, 0
1, 45304, Note_on_c, 0, 68, 0
1, 45304, Note_on_c, 0, 73, 0
1, 45305, Note_on_c, 0, 52, 72
1, 45448, Note_on_c, 0, 52, 0
1, 45449, Note_on_c, 0, 70, 77
1, 45449, Note_on_c, 0, 54, 72
1, 45450, Note_on_c, 0, 66, 72
1, 45450, Note_on_c, 0, 61, 72
1, 45578, Note_on_c, 0, 54, 0
1, 45594, Note_on_c, 0, 61, 0
1, 45595, Note_on_c, 0, 66, 0
1, 45595, Note_on_c, 0, 70, 0
1, 45596, Note_on_c, 0, 54, 72
1, 45740, Note_on_c, 0, 54, 0
1, 45740, Note_on_c, 0, 71, 77
1, 45740, Note_on_c, 0, 66, 72
1, 45741, Note_on_c, 0, 63, 72
1, 45741, Note_on_c, 0, 47, 72
1, 45883, Note_on_c, 0, 71, 0
1, 45883, Note_on_c, 0, 75, 77
1, 45954, Note_on_c, 0, 75, 0
1, 45954, Note_on_c, 0, 74, 77
1, 46026, Note_on_c, 0, 74, 0
1, 46026, Note_on_c, 0, 47, 0
1, 46027, Note_on_c, 0, 63, 0
1, 46027, Note_on_c, 0, 66, 0
1, 46027, Note_on_c, 0, 75, 77
1, 46168, Note_on_c, 0, 70, 77
1, 46168, Note_on_c, 0, 54, 72
1, 46168, Note_on_c, 0, 63, 72
1, 46311, Note_on_c, 0, 63, 0
1, 46311, Note_on_c, 0, 54, 0
1, 46312, Note_on_c, 0, 70, 0
1, 46312, Note_on_c, 0, 75, 0
1, 46312, Note_on_c, 0, 76, 77
1, 46313, Note_on_c, 0, 71, 77
1, 46314, Note_on_c, 0, 68, 77
1, 46314, Note_on_c, 0, 56, 72
1, 46444, Note_on_c, 0, 56, 0
1, 46454, Note_on_c, 0, 68, 0
1, 46454, Note_on_c, 0, 71, 0
1, 46455, Note_on_c, 0, 76, 0
1, 46455, Note_on_c, 0, 56, 72
1, 46598, Note_on_c, 0, 56, 0
1, 46598, Note_on_c, 0, 74, 77
1, 46599, Note_on_c, 0, 70, 77
1, 46599, Note_on_c, 0, 58, 72
1, 46600, Note_on_c, 0, 65, 72
1, 46732, Note_on_c, 0, 58, 0
1, 46742, Note_on_c, 0, 65, 0
1, 46742, Note_on_c, 0, 70, 0
1, 46743, Note_on_c, 0, 74, 0
1, 46743, Note_on_c, 0, 58, 72
1, 46886, Note_on_c, 0, 58, 0
1, 46886, Note_on_c, 0, 75, 77
1, 46887, Note_on_c, 0, 66, 72
1, 46887, Note_on_c, 0, 63, 72
1, 46888, Note_on_c, 0, 51, 72
1, 47026, Note_on_c, 0, 51, 0
1, 47027, Note_on_c, 0, 63, 0
1, 47027, Note_on_c, 0, 66, 0
1, 47028, Note_on_c, 0, 75, 0
1, 47028, Note_on_c, 0, 68, 77
1, 47028, Note_on_c, 0, 77, 71
1, 47165, Note_on_c, 0, 68, 0
1, 47166, Note_on_c, 0, 77, 0
1, 47166, Note_on_c, 0, 78, 71
1, 47167, Note_on_c, 0, 70, 77
1, 47167, Note_on_c, 0, 63, 72
1, 47305, Note_on_c, 0, 70, 0
1, 47306, Note_on_c, 0, 71, 77
1, 47376, Note_on_c, 0, 71, 0
1, 47376, Note_on_c, 0, 70, 77
1, 47446, Note_on_c, 0, 70, 0
1, 47446, Note_on_c, 0, 63, 0
1, 47447, Note_on_c, 0, 68, 77
1, 47447, Note_on_c, 0, 60, 72
1, 47585, Note_on_c, 0, 60, 0
1, 47585, Note_on_c, 0, 68, 0
1, 47586, Note_on_c, 0, 78, 0
1, 47586, Note_on_c, 0, 76, 77
1, 47587, Note_on_c, 0, 73, 77
1, 47587, Note_on_c, 0, 61, 72
1, 47655, Note_on_c, 0, 61, 0
1, 47655, Note_on_c, 0, 76, 0
1, 47656, Note_on_c, 0, 78, 71
1, 47656, Note_on_c, 0, 63, 72
1, 47726, Note_on_c, 0, 63, 0
1, 47726, Note_on_c, 0, 78, 0
1, 47727, Note_on_c, 0, 80, 71
1, 47727, Note_on_c, 0, 64, 72
1, 47867, Note_on_c, 0, 64, 0
1, 47868, Note_on_c, 0, 80, 0
1, 47868, Note_on_c, 0, 73, 0
1, 47868, Note_on_c, 0, 79, 71
1, 47869, Note_on_c, 0, 75, 77
1, 47869, Note_on_c, 0, 63, 72
1, 47937, Note_on_c, 0, 79, 0
1, 47938, Note_on_c, 0, 80, 71
1, 48008, Note_on_c, 0, 80, 0
1, 48009, Note_on_c, 0, 63, 0
1, 48009, Note_on_c, 0, 75, 0
1, 48010, Note_on_c, 0, 76, 77
1, 48010, Note_on_c, 0, 82, 71
1, 48011, Note_on_c, 0, 61, 72
1, 48149, Note_on_c, 0, 61, 0
1, 48150, Note_on_c, 0, 82, 0
1, 48150, Note_on_c, 0, 80, 71
1, 48151, Note_on_c, 0, 67, 72
1, 48219, Note_on_c, 0, 80, 0
1, 48220, Note_on_c, 0, 82, 71
1, 48290, Note_on_c, 0, 82, 0
1, 48291, Note_on_c, 0, 67, 0
1, 48292, Note_on_c, 0, 76, 0
1, 48292, Note_on_c, 0, 75, 77
1, 48292, Note_on_c, 0, 83, 71
1, 48293, Note_on_c, 0, 68, 77
1, 48432, Note_on_c, 0, 68, 0
1, 48432, Note_on_c, 0, 83, 0
1, 48433, Note_on_c, 0, 80, 71
1, 48433, Note_on_c, 0, 59, 72
1, 48563, Note_on_c, 0, 59, 0
1, 48573, Note_on_c, 0, 80, 0
1, 48574, Note_on_c, 0, 75, 0
1, 48574, Note_on_c, 0, 73, 77
1, 48574, Note_on_c, 0, 82, 71
1, 48575, Note_on_c, 0, 61, 72
1, 48704, Note_on_c, 0, 61, 0
1, 48714, Note_on_c, 0, 82, 0
1, 48715, Note_on_c, 0, 61, 72
1, 48854, Note_on_c, 0, 61, 0
1, 48855, Note_on_c, 0, 79, 71
1, 48855, Note_on_c, 0, 63, 72
1, 48984, Note_on_c, 0, 63, 0
1, 48993, Note_on_c, 0, 79, 0
1, 48993, Note_on_c, 0, 63, 72
1, 49132, Note_on_c, 0, 63, 0
1, 49132, Note_on_c, 0, 80, 68
1, 49133, Note_on_c, 0, 56, 72
1, 49275, Note_on_c, 0, 80, 0
1, 49275, Note_on_c, 0, 78, 68
1, 49346, Note_on_c, 0, 78, 0
1, 49346, Note_on_c, 0, 76, 74
1, 49404, Marker_t, "1121 Deutz Ave Trenton NJ 08611 http://www.geocities.com/Paris/LeftBank/3214"
1, 49417, Note_on_c, 0, 76, 0
1, 49417, Note_on_c, 0, 56, 0
1, 49418, Note_on_c, 0, 73, 0
1, 49418, Note_on_c, 0, 75, 77
1, 49419, Note_on_c, 0, 71, 77
1, 49560, Note_on_c, 0, 75, 0
1, 49560, Note_on_c, 0, 76, 77
1, 49561, Note_on_c, 0, 56, 72
1, 49692, Note_on_c, 0, 56, 0
1, 49702, Note_on_c, 0, 76, 0
1, 49703, Note_on_c, 0, 71, 0
1, 49703, Note_on_c, 0, 69, 77
1, 49704, Note_on_c, 0, 78, 71
1, 49704, Note_on_c, 0, 57, 72
1, 49836, Note_on_c, 0, 57, 0
1, 49845, Note_on_c, 0, 78, 0
1, 49846, Note_on_c, 0, 57, 72
1, 49985, Note_on_c, 0, 57, 0
1, 49986, Note_on_c, 0, 75, 77
1, 49986, Note_on_c, 0, 59, 72
1, 50116, Note_on_c, 0, 59, 0
1, 50125, Note_on_c, 0, 75, 0
1, 50126, Note_on_c, 0, 59, 72
1, 50266, Note_on_c, 0, 59, 0
1, 50266, Note_on_c, 0, 76, 77
1, 50267, Note_on_c, 0, 52, 72
1, 50407, Note_on_c, 0, 76, 0
1, 50407, Note_on_c, 0, 75, 77
1, 50478, Note_on_c, 0, 75, 0
1, 50478, Note_on_c, 0, 73, 77
1, 50548, Note_on_c, 0, 73, 0
1, 50548, Note_on_c, 0, 52, 0
1, 50549, Note_on_c, 0, 69, 0
1, 50549, Note_on_c, 0, 72, 77
1, 50550, Note_on_c, 0, 68, 77
1, 50688, Note_on_c, 0, 72, 0
1, 50688, Note_on_c, 0, 73, 77
1, 50688, Note_on_c, 0, 52, 72
1, 50828, Note_on_c, 0, 52, 0
1, 50828, Note_on_c, 0, 73, 0
1, 50828, Note_on_c, 0, 68, 0
1, 50829, Note_on_c, 0, 75, 77
1, 50830, Note_on_c, 0, 66, 72
1, 50830, Note_on_c, 0, 54, 72
1, 50959, Note_on_c, 0, 54, 0
1, 50968, Note_on_c, 0, 75, 0
1, 50968, Note_on_c, 0, 54, 72
1, 51109, Note_on_c, 0, 54, 0
1, 51109, Note_on_c, 0, 72, 77
1, 51110, Note_on_c, 0, 56, 72
1, 51240, Note_on_c, 0, 56, 0
1, 51248, Note_on_c, 0, 72, 0
1, 51249, Note_on_c, 0, 56, 72
1, 51389, Note_on_c, 0, 56, 0
1, 51390, Note_on_c, 0, 73, 77
1, 51390, Note_on_c, 0, 49, 72
1, 51530, Note_on_c, 0, 49, 0
1, 51531, Note_on_c, 0, 66, 0
1, 51531, Note_on_c, 0, 51, 72
1, 51532, Note_on_c, 0, 64, 72
1, 51600, Note_on_c, 0, 64, 0
1, 51601, Note_on_c, 0, 66, 72
1, 51672, Note_on_c, 0, 51, 0
1, 51672, Note_on_c, 0, 73, 0
1, 51673, Note_on_c, 0, 68, 77
1, 51673, Note_on_c, 0, 49, 72
1, 51674, Note_on_c, 0, 52, 72
1, 51679, Note_on_c, 0, 66, 0
1, 51812, Note_on_c, 0, 68, 0
1, 51812, Note_on_c, 0, 52, 0
1, 51813, Note_on_c, 0, 66, 72
1, 51813, Note_on_c, 0, 54, 72
1, 51882, Note_on_c, 0, 64, 72
1, 51888, Note_on_c, 0, 66, 0
1, 51952, Note_on_c, 0, 64, 0
1, 51952, Note_on_c, 0, 54, 0
1, 51953, Note_on_c, 0, 49, 0
1, 51953, Note_on_c, 0, 56, 72
1, 51954, Note_on_c, 0, 63, 72
1, 51954, Note_on_c, 0, 48, 72
1, 52092, Note_on_c, 0, 48, 0
1, 52092, Note_on_c, 0, 63, 0
1, 52093, Note_on_c, 0, 73, 77
1, 52093, Note_on_c, 0, 64, 72
1, 52094, Note_on_c, 0, 49, 72
1, 52163, Note_on_c, 0, 49, 0
1, 52164, Note_on_c, 0, 64, 0
1, 52164, Note_on_c, 0, 66, 72
1, 52164, Note_on_c, 0, 51, 72
1, 52234, Note_on_c, 0, 51, 0
1, 52234, Note_on_c, 0, 68, 77
1, 52235, Note_on_c, 0, 52, 72
1, 52239, Note_on_c, 0, 66, 0
1, 52375, Note_on_c, 0, 68, 0
1, 52375, Note_on_c, 0, 52, 0
1, 52376, Note_on_c, 0, 73, 0
1, 52376, Note_on_c, 0, 56, 0
1, 52376, Note_on_c, 0, 75, 77
1, 52377, Note_on_c, 0, 51, 72
1, 52377, Note_on_c, 0, 59, 72
1, 52378, Note_on_c, 0, 67, 72
1, 52445, Note_on_c, 0, 68, 77
1, 52455, Note_on_c, 0, 67, 0
1, 52516, Note_on_c, 0, 68, 0
1, 52517, Note_on_c, 0, 75, 0
1, 52517, Note_on_c, 0, 76, 77
1, 52518, Note_on_c, 0, 70, 77
1, 52518, Note_on_c, 0, 61, 72
1, 52519, Note_on_c, 0, 49, 72
1, 52521, Note_on_c, 0, 59, 0
1, 52522, Note_on_c, 0, 51, 0
1, 52656, Note_on_c, 0, 70, 0
1, 52656, Note_on_c, 0, 49, 0
1, 52656, Note_on_c, 0, 68, 77
1, 52657, Note_on_c, 0, 55, 72
1, 52726, Note_on_c, 0, 68, 0
1, 52726, Note_on_c, 0, 70, 77
1, 52796, Note_on_c, 0, 70, 0
1, 52796, Note_on_c, 0, 55, 0
1, 52797, Note_on_c, 0, 76, 0
1, 52797, Note_on_c, 0, 61, 0
1, 52798, Note_on_c, 0, 75, 77
1, 52798, Note_on_c, 0, 71, 77
1, 52799, Note_on_c, 0, 56, 72
1, 52799, Note_on_c, 0, 59, 72
1, 52936, Note_on_c, 0, 59, 0
1, 52936, Note_on_c, 0, 56, 0
1, 52937, Note_on_c, 0, 71, 0
1, 52937, Note_on_c, 0, 68, 77
1, 52938, Note_on_c, 0, 63, 72
1, 52938, Note_on_c, 0, 47, 72
1, 53077, Note_on_c, 0, 47, 0
1, 53078, Note_on_c, 0, 63, 0
1, 53078, Note_on_c, 0, 68, 0
1, 53079, Note_on_c, 0, 75, 0
1, 53079, Note_on_c, 0, 73, 77
1, 53079, Note_on_c, 0, 70, 77
1, 53080, Note_on_c, 0, 64, 72
1, 53080, Note_on_c, 0, 49, 72
1, 53210, Note_on_c, 0, 49, 0
1, 53220, Note_on_c, 0, 70, 0
1, 53220, Note_on_c, 0, 49, 72
1, 53225, Note_on_c, 0, 64, 0
1, 53361, Note_on_c, 0, 49, 0
1, 53361, Note_on_c, 0, 63, 72
1, 53362, Note_on_c, 0, 67, 72
1, 53362, Note_on_c, 0, 51, 72
1, 53491, Note_on_c, 0, 51, 0
1, 53500, Note_on_c, 0, 51, 72
1, 53504, Note_on_c, 0, 67, 0
1, 53505, Note_on_c, 0, 63, 0
1, 53640, Note_on_c, 0, 51, 0
1, 53640, Note_on_c, 0, 68, 77
1, 53641, Note_on_c, 0, 63, 72
1, 53641, Note_on_c, 0, 44, 72
1, 53781, Note_on_c, 0, 44, 0
1, 53782, Note_on_c, 0, 73, 0
1, 53782, Note_on_c, 0, 68, 0
1, 53783, Note_on_c, 0, 79, 71
1, 53783, Note_on_c, 0, 46, 72
1, 53785, Note_on_c, 0, 63, 0
1, 53922, Note_on_c, 0, 46, 0
1, 53923, Note_on_c, 0, 79, 0
1, 53923, Note_on_c, 0, 80, 71
1, 53924, Note_on_c, 0, 56, 72
1, 53924, Note_on_c, 0, 47, 72
1, 54063, Note_on_c, 0, 47, 0
1, 54064, Note_on_c, 0, 80, 0
1, 54064, Note_on_c, 0, 71, 77
1, 54065, Note_on_c, 0, 49, 72
1, 54204, Note_on_c, 0, 49, 0
1, 54205, Note_on_c, 0, 71, 0
1, 54205, Note_on_c, 0, 56, 0
1, 54206, Note_on_c, 0, 70, 77
1, 54206, Note_on_c, 0, 51, 72
1, 54207, Note_on_c, 0, 55, 72
1, 54344, Note_on_c, 0, 55, 0
1, 54344, Note_on_c, 0, 70, 0
1, 54345, Note_on_c, 0, 79, 71
1, 54345, Note_on_c, 0, 56, 72
1, 54413, Note_on_c, 0, 56, 0
1, 54413, Note_on_c, 0, 58, 72
1, 54481, Note_on_c, 0, 58, 0
1, 54481, Note_on_c, 0, 79, 0
1, 54482, Note_on_c, 0, 51, 0
1, 54482, Note_on_c, 0, 80, 71
1, 54483, Note_on_c, 0, 59, 72
1, 54620, Note_on_c, 0, 59, 0
1, 54621, Note_on_c, 0, 80, 0
1, 54621, Note_on_c, 0, 73, 77
1, 54622, Note_on_c, 0, 58, 72
1, 54622, Note_on_c, 0, 67, 72
1, 54623, Note_on_c, 0, 51, 72
1, 54759, Note_on_c, 0, 51, 0
1, 54760, Note_on_c, 0, 67, 0
1, 54760, Note_on_c, 0, 58, 0
1, 54761, Note_on_c, 0, 73, 0
1, 54761, Note_on_c, 0, 68, 77
1, 54762, Note_on_c, 0, 71, 77
1, 54762, Note_on_c, 0, 53, 72
1, 54763, Note_on_c, 0, 56, 72
1, 54898, Note_on_c, 0, 56, 0
1, 54898, Note_on_c, 0, 71, 0
1, 54899, Note_on_c, 0, 80, 71
1, 54899, Note_on_c, 0, 62, 72
1, 55037, Note_on_c, 0, 62, 0
1, 55037, Note_on_c, 0, 80, 0
1, 55038, Note_on_c, 0, 53, 0
1, 55038, Note_on_c, 0, 68, 0
1, 55039, Note_on_c, 0, 78, 71
1, 55039, Note_on_c, 0, 51, 72
1, 55040, Note_on_c, 0, 63, 72
1, 55175, Note_on_c, 0, 63, 0
1, 55176, Note_on_c, 0, 78, 0
1, 55176, Note_on_c, 0, 70, 77
1, 55176, Note_on_c, 0, 66, 72
1, 55177, Note_on_c, 0, 54, 72
1, 55313, Note_on_c, 0, 54, 0
1, 55314, Note_on_c, 0, 66, 0
1, 55315, Note_on_c, 0, 70, 0
1, 55315, Note_on_c, 0, 68, 77
1, 55315, Note_on_c, 0, 56, 72
1, 55316, Note_on_c, 0, 64, 72
1, 55444, Note_on_c, 0, 56, 0
1, 55452, Note_on_c, 0, 68, 0
1, 55453, Note_on_c, 0, 78, 71
1, 55454, Note_on_c, 0, 56, 72
1, 55593, Note_on_c, 0, 56, 0
1, 55594, Note_on_c, 0, 64, 0
1, 55594, Note_on_c, 0, 51, 0
1, 55594, Note_on_c, 0, 78, 0
1, 55595, Note_on_c, 0, 77, 71
1, 55596, Note_on_c, 0, 50, 72
1, 55596, Note_on_c, 0, 58, 72
1, 55721, Note_on_c, 0, 58, 0
1, 55731, Note_on_c, 0, 77, 0
1, 55732, Note_on_c, 0, 68, 77
1, 55732, Note_on_c, 0, 65, 72
1, 55732, Note_on_c, 0, 58, 72
1, 55868, Note_on_c, 0, 58, 0
1, 55868, Note_on_c, 0, 68, 0
1, 55869, Note_on_c, 0, 50, 0
1, 55869, Note_on_c, 0, 66, 68
1, 55870, Note_on_c, 0, 51, 72
1, 56007, Note_on_c, 0, 65, 0
1, 56007, Note_on_c, 0, 53, 72
1, 56008, Note_on_c, 0, 63, 72
1, 56076, Note_on_c, 0, 63, 0
1, 56076, Note_on_c, 0, 62, 72
1, 56146, Note_on_c, 0, 62, 0
1, 56147, Note_on_c, 0, 53, 0
1, 56147, Note_on_c, 0, 51, 0
1, 56148, Note_on_c, 0, 66, 0
1, 56148, Note_on_c, 0, 63, 72
1, 56148, Note_on_c, 0, 54, 72
1, 56217, Note_on_c, 0, 39, 72
1, 56290, Note_on_c, 0, 39, 0
1, 56291, Note_on_c, 0, 40, 72
1, 56361, Note_on_c, 0, 40, 0
1, 56362, Note_on_c, 0, 42, 72
1, 56432, Note_on_c, 0, 42, 0
1, 56433, Note_on_c, 0, 63, 0
1, 56433, Note_on_c, 0, 60, 72
1, 56434, Note_on_c, 0, 44, 72
1, 56575, Note_on_c, 0, 44, 0
1, 56576, Note_on_c, 0, 60, 0
1, 56576, Note_on_c, 0, 54, 0
1, 56577, Note_on_c, 0, 61, 72
1, 56577, Note_on_c, 0, 49, 72
1, 56578, Note_on_c, 0, 52, 72
1, 56646, Note_on_c, 0, 52, 0
1, 56647, Note_on_c, 0, 61, 0
1, 56647, Note_on_c, 0, 54, 72
1, 56648, Note_on_c, 0, 63, 72
1, 56717, Note_on_c, 0, 63, 0
1, 56718, Note_on_c, 0, 54, 0
1, 56718, Note_on_c, 0, 56, 72
1, 56719, Note_on_c, 0, 64, 72
1, 56858, Note_on_c, 0, 64, 0
1, 56859, Note_on_c, 0, 56, 0
1, 56859, Note_on_c, 0, 49, 0
1, 56860, Note_on_c, 0, 63, 72
1, 56860, Note_on_c, 0, 51, 72
1, 56861, Note_on_c, 0, 55, 72
1, 56928, Note_on_c, 0, 55, 0
1, 56929, Note_on_c, 0, 56, 72
1, 57000, Note_on_c, 0, 56, 0
1, 57000, Note_on_c, 0, 51, 0
1, 57000, Note_on_c, 0, 63, 0
1, 57001, Note_on_c, 0, 61, 72
1, 57001, Note_on_c, 0, 52, 72
1, 57002, Note_on_c, 0, 58, 72
1, 57142, Note_on_c, 0, 58, 0
1, 57142, Note_on_c, 0, 61, 0
1, 57143, Note_on_c, 0, 56, 72
1, 57143, Note_on_c, 0, 67, 72
1, 57214, Note_on_c, 0, 56, 0
1, 57214, Note_on_c, 0, 58, 72
1, 57285, Note_on_c, 0, 58, 0
1, 57285, Note_on_c, 0, 67, 0
1, 57286, Note_on_c, 0, 52, 0
1, 57286, Note_on_c, 0, 68, 77
1, 57287, Note_on_c, 0, 59, 72
1, 57287, Note_on_c, 0, 51, 72
1, 57418, Note_on_c, 0, 59, 0
1, 57427, Note_on_c, 0, 68, 0
1, 57427, Note_on_c, 0, 56, 72
1, 57428, Note_on_c, 0, 59, 72
1, 57570, Note_on_c, 0, 59, 0
1, 57571, Note_on_c, 0, 56, 0
1, 57571, Note_on_c, 0, 51, 0
1, 57572, Note_on_c, 0, 49, 72
1, 57572, Note_on_c, 0, 61, 72
1, 57573, Note_on_c, 0, 58, 72
1, 57703, Note_on_c, 0, 61, 0
1, 57713, Note_on_c, 0, 58, 0
1, 57714, Note_on_c, 0, 61, 72
1, 57854, Note_on_c, 0, 61, 0
1, 57855, Note_on_c, 0, 63, 72
1, 57855, Note_on_c, 0, 55, 72
1, 57986, Note_on_c, 0, 63, 0
1, 57996, Note_on_c, 0, 55, 0
1, 57997, Note_on_c, 0, 63, 72
1, 58136, Note_on_c, 0, 63, 0
1, 58136, Note_on_c, 0, 56, 72
1, 58276, Note_on_c, 0, 49, 0
1, 58276, Note_on_c, 0, 67, 72
1, 58277, Note_on_c, 0, 47, 72
1, 58345, Note_on_c, 0, 47, 0
1, 58345, Note_on_c, 0, 46, 72
1, 58414, Note_on_c, 0, 46, 0
1, 58415, Note_on_c, 0, 67, 0
1, 58415, Note_on_c, 0, 56, 0
1, 58416, Note_on_c, 0, 68, 77
1, 58416, Note_on_c, 0, 47, 72
1, 58483, Note_on_c, 0, 47, 0
1, 58484, Note_on_c, 0, 44, 72
1, 58554, Note_on_c, 0, 44, 0
1, 58555, Note_on_c, 0, 59, 72
1, 58555, Note_on_c, 0, 50, 72
1, 58695, Note_on_c, 0, 59, 0
1, 58696, Note_on_c, 0, 50, 0
1, 58696, Note_on_c, 0, 51, 72
1, 58697, Note_on_c, 0, 58, 72
1, 58836, Note_on_c, 0, 58, 0
1, 58837, Note_on_c, 0, 68, 0
1, 58837, Note_on_c, 0, 56, 72
1, 58838, Note_on_c, 0, 66, 72
1, 58908, Note_on_c, 0, 66, 0
1, 58908, Note_on_c, 0, 65, 72
1, 58978, Note_on_c, 0, 65, 0
1, 58978, Note_on_c, 0, 56, 0
1, 58979, Note_on_c, 0, 66, 72
1, 58979, Note_on_c, 0, 58, 72
1, 59046, Note_on_c, 0, 66, 0
1, 59046, Note_on_c, 0, 63, 72
1, 59114, Note_on_c, 0, 63, 0
1, 59114, Note_on_c, 0, 58, 0
1, 59115, Note_on_c, 0, 69, 77
1, 59115, Note_on_c, 0, 60, 72
1, 59251, Note_on_c, 0, 60, 0
1, 59252, Note_on_c, 0, 69, 0
1, 59252, Note_on_c, 0, 70, 77
1, 59253, Note_on_c, 0, 53, 72
1, 59393, Note_on_c, 0, 53, 0
1, 59394, Note_on_c, 0, 51, 0
1, 59394, Note_on_c, 0, 49, 72
1, 59395, Note_on_c, 0, 63, 72
1, 59465, Note_on_c, 0, 49, 0
1, 59466, Note_on_c, 0, 48, 72
1, 59535, Note_on_c, 0, 48, 0
1, 59536, Note_on_c, 0, 63, 0
1, 59536, Note_on_c, 0, 49, 72
1, 59537, Note_on_c, 0, 65, 72
1, 59605, Note_on_c, 0, 49, 0
1, 59606, Note_on_c, 0, 46, 72
1, 59675, Note_on_c, 0, 46, 0
1, 59675, Note_on_c, 0, 65, 0
1, 59676, Note_on_c, 0, 67, 72
1, 59676, Note_on_c, 0, 52, 72
1, 59810, Note_on_c, 0, 52, 0
1, 59810, Note_on_c, 0, 67, 0
1, 59811, Note_on_c, 0, 53, 72
1, 59811, Note_on_c, 0, 60, 72
1, 59948, Note_on_c, 0, 60, 0
1, 59948, Note_on_c, 0, 70, 0
1, 59948, Note_on_c, 0, 69, 77
1, 59949, Note_on_c, 0, 58, 72
1, 60017, Note_on_c, 0, 69, 0
1, 60017, Note_on_c, 0, 67, 72
1, 60087, Note_on_c, 0, 67, 0
1, 60087, Note_on_c, 0, 58, 0
1, 60088, Note_on_c, 0, 69, 77
1, 60088, Note_on_c, 0, 60, 72
1, 60157, Note_on_c, 0, 69, 0
1, 60157, Note_on_c, 0, 65, 72
1, 60228, Note_on_c, 0, 65, 0
1, 60228, Note_on_c, 0, 60, 0
1, 60229, Note_on_c, 0, 70, 77
1, 60229, Note_on_c, 0, 61, 72
1, 60370, Note_on_c, 0, 61, 0
1, 60371, Note_on_c, 0, 70, 0
1, 60371, Note_on_c, 0, 71, 77
1, 60372, Note_on_c, 0, 63, 72
1, 60513, Note_on_c, 0, 53, 0
1, 60514, Note_on_c, 0, 51, 72
1, 60584, Note_on_c, 0, 51, 0
1, 60585, Note_on_c, 0, 49, 72
1, 60655, Note_on_c, 0, 49, 0
1, 60656, Note_on_c, 0, 51, 72
1, 60726, Note_on_c, 0, 51, 0
1, 60727, Note_on_c, 0, 48, 72
1, 60798, Note_on_c, 0, 48, 0
1, 60799, Note_on_c, 0, 53, 72
1, 60940, Note_on_c, 0, 53, 0
1, 60941, Note_on_c, 0, 54, 72
1, 61081, Note_on_c, 0, 63, 0
1, 61082, Note_on_c, 0, 71, 0
1, 61082, Note_on_c, 0, 70, 77
1, 61083, Note_on_c, 0, 61, 72
1, 61151, Note_on_c, 0, 61, 0
1, 61151, Note_on_c, 0, 70, 0
1, 61152, Note_on_c, 0, 69, 77
1, 61152, Note_on_c, 0, 60, 72
1, 61221, Note_on_c, 0, 60, 0
1, 61221, Note_on_c, 0, 69, 0
1, 61222, Note_on_c, 0, 70, 77
1, 61222, Note_on_c, 0, 61, 72
1, 61291, Note_on_c, 0, 70, 0
1, 61291, Note_on_c, 0, 72, 77
1, 61361, Note_on_c, 0, 72, 0
1, 61361, Note_on_c, 0, 61, 0
1, 61362, Note_on_c, 0, 73, 77
1, 61362, Note_on_c, 0, 58, 72
1, 61431, Note_on_c, 0, 54, 0
1, 61431, Note_on_c, 0, 52, 72
1, 61500, Note_on_c, 0, 52, 0
1, 61500, Note_on_c, 0, 51, 72
1, 61572, Note_on_c, 0, 58, 0
1, 61572, Note_on_c, 0, 58, 72
1, 61643, Note_on_c, 0, 58, 0
1, 61644, Note_on_c, 0, 73, 0
1, 61644, Note_on_c, 0, 72, 77
1, 61644, Note_on_c, 0, 63, 72
1, 61714, Note_on_c, 0, 63, 0
1, 61715, Note_on_c, 0, 72, 0
1, 61715, Note_on_c, 0, 70, 77
1, 61716, Note_on_c, 0, 61, 72
1, 61785, Note_on_c, 0, 61, 0
1, 61786, Note_on_c, 0, 70, 0
1, 61786, Note_on_c, 0, 51, 0
1, 61787, Note_on_c, 0, 75, 77
1, 61787, Note_on_c, 0, 69, 77
1, 61788, Note_on_c, 0, 53, 72
1, 61788, Note_on_c, 0, 60, 72
1, 61857, Note_on_c, 0, 60, 0
1, 61858, Note_on_c, 0, 69, 0
1, 61858, Note_on_c, 0, 70, 77
1, 61859, Note_on_c, 0, 58, 72
1, 61928, Note_on_c, 0, 58, 0
1, 61929, Note_on_c, 0, 70, 0
1, 61929, Note_on_c, 0, 60, 72
1, 61930, Note_on_c, 0, 67, 72
1, 62000, Note_on_c, 0, 67, 0
1, 62001, Note_on_c, 0, 69, 77
1, 62071, Note_on_c, 0, 69, 0
1, 62072, Note_on_c, 0, 60, 0
1, 62072, Note_on_c, 0, 53, 0
1, 62073, Note_on_c, 0, 75, 0
1, 62073, Note_on_c, 0, 74, 77
1, 62074, Note_on_c, 0, 70, 77
1, 62074, Note_on_c, 0, 58, 72
1, 62075, Note_on_c, 0, 46, 72
1, 62214, Note_on_c, 0, 58, 0
1, 62214, Note_on_c, 0, 74, 0
1, 62214, Note_on_c, 0, 75, 75
1, 62215, Note_on_c, 0, 60, 72
1, 62286, Note_on_c, 0, 60, 0
1, 62286, Note_on_c, 0, 75, 0
1, 62286, Note_on_c, 0, 77, 69
1, 62287, Note_on_c, 0, 62, 72
1, 62357, Note_on_c, 0, 62, 0
1, 62357, Note_on_c, 0, 77, 0
1, 62358, Note_on_c, 0, 46, 0
1, 62358, Note_on_c, 0, 78, 69
1, 62358, Note_on_c, 0, 63, 72
1, 62500, Note_on_c, 0, 63, 0
1, 62500, Note_on_c, 0, 78, 0
1, 62501, Note_on_c, 0, 77, 69
1, 62501, Note_on_c, 0, 65, 72
1, 62642, Note_on_c, 0, 65, 0
1, 62642, Note_on_c, 0, 77, 0
1, 62643, Note_on_c, 0, 70, 0
1, 62643, Note_on_c, 0, 75, 75
1, 62643, Note_on_c, 0, 66, 72
1, 62785, Note_on_c, 0, 75, 0
1, 62785, Note_on_c, 0, 81, 66
1, 62786, Note_on_c, 0, 72, 75
1, 62926, Note_on_c, 0, 72, 0
1, 62927, Note_on_c, 0, 81, 0
1, 62927, Note_on_c, 0, 66, 0
1, 62928, Note_on_c, 0, 73, 75
1, 62928, Note_on_c, 0, 82, 66
1, 62995, Note_on_c, 0, 68, 75
1, 63057, Note_on_c, 0, 73, 0
1, 63065, Note_on_c, 0, 68, 0
1, 63066, Note_on_c, 0, 82, 0
1, 63066, Note_on_c, 0, 73, 75
1, 63067, Note_on_c, 0, 70, 75
1, 63067, Note_on_c, 0, 66, 72
1, 63134, Note_on_c, 0, 66, 0
1, 63135, Note_on_c, 0, 65, 72
1, 63203, Note_on_c, 0, 65, 0
1, 63203, Note_on_c, 0, 70, 0
1, 63204, Note_on_c, 0, 73, 0
1, 63204, Note_on_c, 0, 71, 75
1, 63204, Note_on_c, 0, 75, 75
1, 63205, Note_on_c, 0, 63, 72
1, 63272, Note_on_c, 0, 63, 0
1, 63272, Note_on_c, 0, 61, 72
1, 63331, Note_on_c, 0, 75, 0
1, 63341, Note_on_c, 0, 61, 0
1, 63341, Note_on_c, 0, 75, 75
1, 63342, Note_on_c, 0, 59, 72
1, 63410, Note_on_c, 0, 59, 0
1, 63410, Note_on_c, 0, 58, 72
1, 63479, Note_on_c, 0, 58, 0
1, 63480, Note_on_c, 0, 75, 0
1, 63480, Note_on_c, 0, 71, 0
1, 63480, Note_on_c, 0, 77, 69
1, 63481, Note_on_c, 0, 56, 72
1, 63549, Note_on_c, 0, 58, 72
1, 63610, Note_on_c, 0, 77, 0
1, 63619, Note_on_c, 0, 58, 0
1, 63620, Note_on_c, 0, 77, 69
1, 63620, Note_on_c, 0, 59, 72
1, 63690, Note_on_c, 0, 59, 0
1, 63691, Note_on_c, 0, 61, 72
1, 63760, Note_on_c, 0, 61, 0
1, 63761, Note_on_c, 0, 77, 0
1, 63761, Note_on_c, 0, 56, 0
1, 63762, Note_on_c, 0, 70, 75
1, 63762, Note_on_c, 0, 63, 72
1, 63763, Note_on_c, 0, 54, 72
1, 63903, Note_on_c, 0, 54, 0
1, 63904, Note_on_c, 0, 70, 0
1, 63904, Note_on_c, 0, 77, 69
1, 63905, Note_on_c, 0, 56, 72
1, 64045, Note_on_c, 0, 56, 0
1, 64046, Note_on_c, 0, 77, 0
1, 64046, Note_on_c, 0, 63, 0
1, 64047, Note_on_c, 0, 78, 69
1, 64047, Note_on_c, 0, 61, 72
1, 64048, Note_on_c, 0, 54, 72
1, 64048, Note_on_c, 0, 58, 72
1, 64188, Note_on_c, 0, 58, 0
1, 64189, Note_on_c, 0, 61, 0
1, 64189, Note_on_c, 0, 70, 75
1, 64190, Note_on_c, 0, 61, 72
1, 64330, Note_on_c, 0, 61, 0
1, 64330, Note_on_c, 0, 70, 0
1, 64331, Note_on_c, 0, 54, 0
1, 64331, Note_on_c, 0, 71, 75
1, 64332, Note_on_c, 0, 63, 72
1, 64332, Note_on_c, 0, 51, 72
1, 64470, Note_on_c, 0, 51, 0
1, 64470, Note_on_c, 0, 78, 0
1, 64471, Note_on_c, 0, 82, 69
1, 64471, Note_on_c, 0, 52, 72
1, 64539, Note_on_c, 0, 52, 0
1, 64539, Note_on_c, 0, 54, 72
1, 64609, Note_on_c, 0, 54, 0
1, 64610, Note_on_c, 0, 82, 0
1, 64610, Note_on_c, 0, 71, 0
1, 64610, Note_on_c, 0, 83, 71
1, 64611, Note_on_c, 0, 56, 72
1, 64680, Note_on_c, 0, 75, 77
1, 64750, Note_on_c, 0, 75, 0
1, 64751, Note_on_c, 0, 56, 0
1, 64752, Note_on_c, 0, 76, 77
1, 64752, Note_on_c, 0, 54, 72
1, 64821, Note_on_c, 0, 76, 0
1, 64821, Note_on_c, 0, 78, 71
1, 64892, Note_on_c, 0, 78, 0
1, 64892, Note_on_c, 0, 54, 0
1, 64892, Note_on_c, 0, 63, 0
1, 64893, Note_on_c, 0, 80, 71
1, 64894, Note_on_c, 0, 61, 72
1, 64894, Note_on_c, 0, 52, 72
1, 65035, Note_on_c, 0, 52, 0
1, 65035, Note_on_c, 0, 80, 0
1, 65036, Note_on_c, 0, 83, 0
1, 65036, Note_on_c, 0, 76, 77
1, 65037, Note_on_c, 0, 58, 72
1, 65177, Note_on_c, 0, 58, 0
1, 65177, Note_on_c, 0, 76, 0
1, 65178, Note_on_c, 0, 75, 77
1, 65178, Note_on_c, 0, 59, 72
1, 65309, Note_on_c, 0, 59, 0
1, 65319, Note_on_c, 0, 61, 0
1, 65319, Note_on_c, 0, 51, 72
1, 65320, Note_on_c, 0, 66, 72
1, 65320, Note_on_c, 0, 59, 72
1, 65460, Note_on_c, 0, 59, 0
1, 65460, Note_on_c, 0, 66, 0
1, 65461, Note_on_c, 0, 51, 0
1, 65461, Note_on_c, 0, 75, 0
1, 65462, Note_on_c, 0, 73, 77
1, 65462, Note_on_c, 0, 68, 77
1, 65463, Note_on_c, 0, 59, 72
1, 65463, Note_on_c, 0, 52, 72
1, 65590, Note_on_c, 0, 52, 0
1, 65600, Note_on_c, 0, 59, 0
1, 65601, Note_on_c, 0, 68, 0
1, 65601, Note_on_c, 0, 70, 77
1, 65602, Note_on_c, 0, 52, 72
1, 65669, Note_on_c, 0, 70, 0
1, 65670, Note_on_c, 0, 71, 77
1, 65739, Note_on_c, 0, 71, 0
1, 65740, Note_on_c, 0, 52, 0
1, 65740, Note_on_c, 0, 64, 72
1, 65741, Note_on_c, 0, 58, 72
1, 65741, Note_on_c, 0, 54, 72
1, 65872, Note_on_c, 0, 54, 0
1, 65881, Note_on_c, 0, 58, 0
1, 65882, Note_on_c, 0, 54, 72
1, 66024, Note_on_c, 0, 54, 0
1, 66024, Note_on_c, 0, 59, 72
1, 66024, Note_on_c, 0, 47, 72
1, 66141, Note_on_c, 0, 64, 0
1, 66164, Note_on_c, 0, 47, 0
1, 66164, Note_on_c, 0, 63, 72
1, 66165, Note_on_c, 0, 46, 72
1, 66234, Note_on_c, 0, 63, 0
1, 66234, Note_on_c, 0, 61, 72
1, 66304, Note_on_c, 0, 61, 0
1, 66304, Note_on_c, 0, 46, 0
1, 66305, Note_on_c, 0, 59, 0
1, 66305, Note_on_c, 0, 73, 0
1, 66306, Note_on_c, 0, 71, 77
1, 66306, Note_on_c, 0, 63, 72
1, 66307, Note_on_c, 0, 44, 72
1, 66372, Note_on_c, 0, 63, 0
1, 66372, Note_on_c, 0, 59, 72
1, 66439, Note_on_c, 0, 59, 0
1, 66440, Note_on_c, 0, 44, 0
1, 66440, Note_on_c, 0, 49, 72
1, 66441, Note_on_c, 0, 65, 72
1, 66576, Note_on_c, 0, 65, 0
1, 66576, Note_on_c, 0, 49, 0
1, 66576, Note_on_c, 0, 66, 72
1, 66577, Note_on_c, 0, 42, 72
1, 66714, Note_on_c, 0, 42, 0
1, 66714, Note_on_c, 0, 71, 0
1, 66715, Note_on_c, 0, 70, 77
1, 66715, Note_on_c, 0, 40, 72
1, 66783, Note_on_c, 0, 70, 0
1, 66783, Note_on_c, 0, 68, 77
1, 66852, Note_on_c, 0, 68, 0
1, 66852, Note_on_c, 0, 40, 0
1, 66852, Note_on_c, 0, 70, 77
1, 66852, Note_on_c, 0, 39, 72
1, 66921, Note_on_c, 0, 70, 0
1, 66921, Note_on_c, 0, 66, 72
1, 66989, Note_on_c, 0, 39, 0
1, 66989, Note_on_c, 0, 66, 0
1, 66989, Note_on_c, 0, 72, 77
1, 66990, Note_on_c, 0, 44, 72
1, 67130, Note_on_c, 0, 44, 0
1, 67130, Note_on_c, 0, 72, 0
1, 67131, Note_on_c, 0, 73, 77
1, 67131, Note_on_c, 0, 49, 72
1, 67272, Note_on_c, 0, 49, 0
1, 67272, Note_on_c, 0, 66, 0
1, 67272, Note_on_c, 0, 64, 72
1, 67273, Note_on_c, 0, 47, 72
1, 67343, Note_on_c, 0, 64, 0
1, 67344, Note_on_c, 0, 63, 72
1, 67415, Note_on_c, 0, 63, 0
1, 67416, Note_on_c, 0, 47, 0
1, 67416, Note_on_c, 0, 64, 72
1, 67416, Note_on_c, 0, 46, 72
1, 67485, Note_on_c, 0, 64, 0
1, 67486, Note_on_c, 0, 61, 72
1, 67553, Note_on_c, 0, 61, 0
1, 67554, Note_on_c, 0, 46, 0
1, 67554, Note_on_c, 0, 51, 72
1, 67555, Note_on_c, 0, 67, 72
1, 67690, Note_on_c, 0, 67, 0
1, 67690, Note_on_c, 0, 51, 0
1, 67691, Note_on_c, 0, 68, 77
1, 67691, Note_on_c, 0, 44, 72
1, 67826, Note_on_c, 0, 44, 0
1, 67826, Note_on_c, 0, 73, 0
1, 67827, Note_on_c, 0, 71, 77
1, 67827, Note_on_c, 0, 42, 72
1, 67896, Note_on_c, 0, 71, 0
1, 67896, Note_on_c, 0, 70, 77
1, 67965, Note_on_c, 0, 70, 0
1, 67966, Note_on_c, 0, 42, 0
1, 67966, Note_on_c, 0, 71, 77
1, 67967, Note_on_c, 0, 41, 72
1, 68034, Note_on_c, 0, 71, 0
1, 68035, Note_on_c, 0, 68, 77
1, 68103, Note_on_c, 0, 68, 0
1, 68104, Note_on_c, 0, 41, 0
1, 68104, Note_on_c, 0, 74, 77
1, 68105, Note_on_c, 0, 46, 72
1, 68242, Note_on_c, 0, 46, 0
1, 68242, Note_on_c, 0, 74, 0
1, 68243, Note_on_c, 0, 75, 77
1, 68243, Note_on_c, 0, 39, 72
1, 68385, Note_on_c, 0, 75, 0
1, 68385, Note_on_c, 0, 73, 77
1, 68455, Note_on_c, 0, 73, 0
1, 68455, Note_on_c, 0, 71, 77
1, 68525, Note_on_c, 0, 71, 0
1, 68525, Note_on_c, 0, 39, 0
1, 68526, Note_on_c, 0, 68, 0
1, 68526, Note_on_c, 0, 70, 77
1, 68527, Note_on_c, 0, 66, 72
1, 68665, Note_on_c, 0, 70, 0
1, 68665, Note_on_c, 0, 71, 77
1, 68666, Note_on_c, 0, 51, 72
1, 68806, Note_on_c, 0, 51, 0
1, 68806, Note_on_c, 0, 71, 0
1, 68806, Note_on_c, 0, 66, 0
1, 68807, Note_on_c, 0, 73, 77
1, 68808, Note_on_c, 0, 64, 72
1, 68808, Note_on_c, 0, 52, 72
1, 68936, Note_on_c, 0, 52, 0
1, 68945, Note_on_c, 0, 73, 0
1, 68946, Note_on_c, 0, 52, 72
1, 69085, Note_on_c, 0, 52, 0
1, 69086, Note_on_c, 0, 70, 77
1, 69086, Note_on_c, 0, 54, 72
1, 69216, Note_on_c, 0, 54, 0
1, 69225, Note_on_c, 0, 70, 0
1, 69225, Note_on_c, 0, 54, 72
1, 69365, Note_on_c, 0, 54, 0
1, 69366, Note_on_c, 0, 71, 77
1, 69366, Note_on_c, 0, 47, 72
1, 69505, Note_on_c, 0, 71, 0
1, 69506, Note_on_c, 0, 70, 77
1, 69576, Note_on_c, 0, 70, 0
1, 69576, Note_on_c, 0, 68, 77
1, 69647, Note_on_c, 0, 68, 0
1, 69647, Note_on_c, 0, 47, 0
1, 69648, Note_on_c, 0, 64, 0
1, 69648, Note_on_c, 0, 63, 72
1, 69648, Note_on_c, 0, 67, 72
1, 69788, Note_on_c, 0, 67, 0
1, 69788, Note_on_c, 0, 68, 77
1, 69789, Note_on_c, 0, 47, 72
1, 69928, Note_on_c, 0, 47, 0
1, 69928, Note_on_c, 0, 68, 0
1, 69929, Note_on_c, 0, 63, 0
1, 69929, Note_on_c, 0, 70, 77
1, 69930, Note_on_c, 0, 61, 72
1, 69930, Note_on_c, 0, 49, 72
1, 70058, Note_on_c, 0, 49, 0
1, 70068, Note_on_c, 0, 70, 0
1, 70068, Note_on_c, 0, 49, 72
1, 70207, Note_on_c, 0, 49, 0
1, 70208, Note_on_c, 0, 67, 72
1, 70208, Note_on_c, 0, 51, 72
1, 70338, Note_on_c, 0, 51, 0
1, 70347, Note_on_c, 0, 67, 0
1, 70348, Note_on_c, 0, 51, 72
1, 70488, Note_on_c, 0, 51, 0
1, 70488, Note_on_c, 0, 68, 77
1, 70488, Note_on_c, 0, 44, 72
1, 70627, Note_on_c, 0, 44, 0
1, 70627, Note_on_c, 0, 61, 0
1, 70628, Note_on_c, 0, 59, 72
1, 70628, Note_on_c, 0, 46, 72
1, 70697, Note_on_c, 0, 59, 0
1, 70697, Note_on_c, 0, 61, 72
1, 70767, Note_on_c, 0, 61, 0
1, 70767, Note_on_c, 0, 46, 0
1, 70768, Note_on_c, 0, 68, 0
1, 70768, Note_on_c, 0, 56, 72
1, 70769, Note_on_c, 0, 63, 72
1, 70769, Note_on_c, 0, 47, 72
1, 70907, Note_on_c, 0, 47, 0
1, 70908, Note_on_c, 0, 63, 0
1, 70908, Note_on_c, 0, 49, 72
1, 70908, Note_on_c, 0, 61, 72
1, 70977, Note_on_c, 0, 61, 0
1, 70978, Note_on_c, 0, 59, 72
1, 71048, Note_on_c, 0, 59, 0
1, 71049, Note_on_c, 0, 49, 0
1, 71049, Note_on_c, 0, 56, 0
1, 71050, Note_on_c, 0, 51, 72
1, 71050, Note_on_c, 0, 58, 72
1, 71051, Note_on_c, 0, 55, 72
1, 71189, Note_on_c, 0, 55, 0
1, 71190, Note_on_c, 0, 58, 0
1, 71190, Note_on_c, 0, 51, 0
1, 71191, Note_on_c, 0, 68, 77
1, 71191, Note_on_c, 0, 60, 72
1, 71192, Note_on_c, 0, 54, 72
1, 71192, Note_on_c, 0, 56, 72
1, 71259, Note_on_c, 0, 56, 0
1, 71260, Note_on_c, 0, 60, 0
1, 71260, Note_on_c, 0, 58, 72
1, 71261, Note_on_c, 0, 61, 72
1, 71331, Note_on_c, 0, 61, 0
1, 71332, Note_on_c, 0, 58, 0
1, 71332, Note_on_c, 0, 60, 72
1, 71333, Note_on_c, 0, 63, 72
1, 71402, Note_on_c, 0, 54, 0
1, 71403, Note_on_c, 0, 56, 72
1, 71474, Note_on_c, 0, 56, 0
1, 71475, Note_on_c, 0, 63, 0
1, 71475, Note_on_c, 0, 60, 0
1, 71476, Note_on_c, 0, 68, 0
1, 71476, Note_on_c, 0, 70, 77
1, 71477, Note_on_c, 0, 58, 72
1, 71477, Note_on_c, 0, 62, 72
1, 71478, Note_on_c, 0, 54, 72
1, 71546, Note_on_c, 0, 54, 0
1, 71547, Note_on_c, 0, 62, 0
1, 71547, Note_on_c, 0, 53, 72
1, 71548, Note_on_c, 0, 63, 72
1, 71619, Note_on_c, 0, 63, 0
1, 71619, Note_on_c, 0, 53, 0
1, 71619, Note_on_c, 0, 58, 0
1, 71620, Note_on_c, 0, 70, 0
1, 71620, Note_on_c, 0, 71, 77
1, 71621, Note_on_c, 0, 56, 72
1, 71621, Note_on_c, 0, 65, 72
1, 71622, Note_on_c, 0, 51, 72
1, 71690, Note_on_c, 0, 51, 0
1, 71690, Note_on_c, 0, 50, 72
1, 71760, Note_on_c, 0, 50, 0
1, 71761, Note_on_c, 0, 56, 0
1, 71762, Note_on_c, 0, 65, 0
1, 71762, Note_on_c, 0, 63, 72
1, 71762, Note_on_c, 0, 62, 72
1, 71763, Note_on_c, 0, 48, 72
1, 71832, Note_on_c, 0, 48, 0
1, 71833, Note_on_c, 0, 63, 0
1, 71834, Note_on_c, 0, 65, 72
1, 71834, Note_on_c, 0, 46, 72
1, 71904, Note_on_c, 0, 46, 0
1, 71904, Note_on_c, 0, 65, 0
1, 71905, Note_on_c, 0, 62, 0
1, 71905, Note_on_c, 0, 71, 0
1, 71906, Note_on_c, 0, 70, 77
1, 71906, Note_on_c, 0, 63, 72
1, 71906, Note_on_c, 0, 66, 72
1, 71907, Note_on_c, 0, 44, 72
1, 71974, Note_on_c, 0, 44, 0
1, 71975, Note_on_c, 0, 42, 72
1, 72045, Note_on_c, 0, 42, 0
1, 72046, Note_on_c, 0, 66, 0
1, 72046, Note_on_c, 0, 63, 0
1, 72047, Note_on_c, 0, 63, 72
1, 72047, Note_on_c, 0, 54, 72
1, 72047, Note_on_c, 0, 44, 72
1, 72116, Note_on_c, 0, 44, 0
1, 72117, Note_on_c, 0, 46, 72
1, 72185, Note_on_c, 0, 46, 0
1, 72186, Note_on_c, 0, 54, 0
1, 72186, Note_on_c, 0, 63, 0
1, 72187, Note_on_c, 0, 70, 0
1, 72187, Note_on_c, 0, 68, 77
1, 72188, Note_on_c, 0, 65, 72
1, 72188, Note_on_c, 0, 56, 72
1, 72189, Note_on_c, 0, 47, 72
1, 72315, Note_on_c, 0, 56, 0
1, 72325, Note_on_c, 0, 65, 0
1, 72326, Note_on_c, 0, 56, 72
1, 72467, Note_on_c, 0, 56, 0
1, 72467, Note_on_c, 0, 47, 0
1, 72468, Note_on_c, 0, 62, 72
1, 72468, Note_on_c, 0, 58, 72
1, 72468, Note_on_c, 0, 46, 72
1, 72598, Note_on_c, 0, 58, 0
1, 72608, Note_on_c, 0, 46, 0
1, 72608, Note_on_c, 0, 62, 0
1, 72609, Note_on_c, 0, 58, 72
1, 72609, Note_on_c, 0, 44, 72
1, 72749, Note_on_c, 0, 44, 0
1, 72749, Note_on_c, 0, 58, 0
1, 72750, Note_on_c, 0, 51, 72
1, 72750, Note_on_c, 0, 63, 72
1, 72751, Note_on_c, 0, 42, 72
1, 72889, Note_on_c, 0, 42, 0
1, 72889, Note_on_c, 0, 63, 0
1, 72890, Note_on_c, 0, 61, 72
1, 72890, Note_on_c, 0, 46, 72
1, 72958, Note_on_c, 0, 61, 0
1, 72959, Note_on_c, 0, 59, 72
1, 73027, Note_on_c, 0, 59, 0
1, 73028, Note_on_c, 0, 46, 0
1, 73028, Note_on_c, 0, 51, 0
1, 73029, Note_on_c, 0, 68, 0
1, 73029, Note_on_c, 0, 66, 72
1, 73030, Note_on_c, 0, 58, 72
1, 73030, Note_on_c, 0, 39, 72
1, 73165, Note_on_c, 0, 58, 0
1, 73166, Note_on_c, 0, 59, 72
1, 73166, Note_on_c, 0, 51, 72
1, 73303, Note_on_c, 0, 51, 0
1, 73303, Note_on_c, 0, 59, 0
1, 73304, Note_on_c, 0, 39, 0
1, 73304, Note_on_c, 0, 66, 0
1, 73305, Note_on_c, 0, 64, 72
1, 73305, Note_on_c, 0, 52, 72
1, 73306, Note_on_c, 0, 61, 72
1, 73432, Note_on_c, 0, 52, 0
1, 73441, Note_on_c, 0, 61, 0
1, 73441, Note_on_c, 0, 52, 72
1, 73581, Note_on_c, 0, 52, 0
1, 73582, Note_on_c, 0, 58, 72
1, 73582, Note_on_c, 0, 54, 72
1, 73713, Note_on_c, 0, 54, 0
1, 73722, Note_on_c, 0, 58, 0
1, 73723, Note_on_c, 0, 54, 72
1, 73863, Note_on_c, 0, 54, 0
1, 73863, Note_on_c, 0, 59, 72
1, 73863, Note_on_c, 0, 47, 72
1, 73931, Note_on_c, 0, 47, 0
1, 73931, Note_on_c, 0, 51, 72
1, 74000, Note_on_c, 0, 51, 0
1, 74000, Note_on_c, 0, 64, 0
1, 74001, Note_on_c, 0, 63, 72
1, 74001, Note_on_c, 0, 52, 72
1, 74068, Note_on_c, 0, 52, 0
1, 74068, Note_on_c, 0, 54, 72
1, 74137, Note_on_c, 0, 54, 0
1, 74138, Note_on_c, 0, 63, 0
1, 74138, Note_on_c, 0, 59, 0
1, 74138, Note_on_c, 0, 71, 77
1, 74139, Note_on_c, 0, 56, 72
1, 74276, Note_on_c, 0, 59, 72
1, 74276, Note_on_c, 0, 44, 72
1, 74419, Note_on_c, 0, 44, 0
1, 74419, Note_on_c, 0, 59, 0
1, 74420, Note_on_c, 0, 61, 72
1, 74420, Note_on_c, 0, 45, 72
1, 74550, Note_on_c, 0, 61, 0
1, 74560, Note_on_c, 0, 45, 0
1, 74560, Note_on_c, 0, 61, 72
1, 74561, Note_on_c, 0, 45, 72
1, 74701, Note_on_c, 0, 45, 0
1, 74701, Note_on_c, 0, 61, 0
1, 74702, Note_on_c, 0, 56, 0
1, 74702, Note_on_c, 0, 71, 0
1, 74703, Note_on_c, 0, 69, 77
1, 74703, Note_on_c, 0, 63, 72
1, 74704, Note_on_c, 0, 54, 72
1, 74704, Note_on_c, 0, 47, 72
1, 74832, Note_on_c, 0, 63, 0
1, 74840, Note_on_c, 0, 47, 0
1, 74841, Note_on_c, 0, 63, 72
1, 74841, Note_on_c, 0, 47, 72
1, 74980, Note_on_c, 0, 47, 0
1, 74981, Note_on_c, 0, 63, 0
1, 74981, Note_on_c, 0, 54, 0
1, 74982, Note_on_c, 0, 52, 72
1, 74982, Note_on_c, 0, 64, 72
1, 74983, Note_on_c, 0, 40, 72
1, 75047, Note_on_c, 0, 64, 0
1, 75047, Note_on_c, 0, 59, 72
1, 75114, Note_on_c, 0, 59, 0
1, 75114, Note_on_c, 0, 61, 72
1, 75180, Note_on_c, 0, 61, 0
1, 75180, Note_on_c, 0, 63, 72
1, 75248, Note_on_c, 0, 63, 0
1, 75249, Note_on_c, 0, 40, 0
1, 75249, Note_on_c, 0, 52, 0
1, 75250, Note_on_c, 0, 69, 0
1, 75250, Note_on_c, 0, 52, 72
1, 75251, Note_on_c, 0, 64, 72
1, 75384, Note_on_c, 0, 64, 0
1, 75384, Note_on_c, 0, 68, 77
1, 75384, Note_on_c, 0, 59, 72
1, 75519, Note_on_c, 0, 59, 0
1, 75519, Note_on_c, 0, 68, 0
1, 75520, Note_on_c, 0, 70, 77
1, 75520, Note_on_c, 0, 61, 72
1, 75521, Note_on_c, 0, 66, 72
1, 75648, Note_on_c, 0, 61, 0
1, 75649, Note_on_c, 0, 70, 0
1, 75657, Note_on_c, 0, 70, 77
1, 75658, Note_on_c, 0, 61, 72
1, 75796, Note_on_c, 0, 61, 0
1, 75797, Note_on_c, 0, 70, 0
1, 75797, Note_on_c, 0, 52, 0
1, 75798, Note_on_c, 0, 72, 77
1, 75798, Note_on_c, 0, 63, 72
1, 75799, Note_on_c, 0, 51, 72
1, 75925, Note_on_c, 0, 63, 0
1, 75925, Note_on_c, 0, 72, 0
1, 75934, Note_on_c, 0, 72, 77
1, 75934, Note_on_c, 0, 63, 72
1, 76071, Note_on_c, 0, 63, 0
1, 76071, Note_on_c, 0, 72, 0
1, 76072, Note_on_c, 0, 51, 0
1, 76072, Note_on_c, 0, 73, 77
1, 76073, Note_on_c, 0, 56, 72
1, 76073, Note_on_c, 0, 49, 72
1, 76138, Note_on_c, 0, 66, 0
1, 76139, Note_on_c, 0, 63, 72
1, 76204, Note_on_c, 0, 63, 0
1, 76205, Note_on_c, 0, 49, 0
1, 76205, Note_on_c, 0, 51, 72
1, 76206, Note_on_c, 0, 64, 72
1, 76272, Note_on_c, 0, 64, 0
1, 76272, Note_on_c, 0, 66, 72
1, 76338, Note_on_c, 0, 66, 0
1, 76339, Note_on_c, 0, 51, 0
1, 76339, Note_on_c, 0, 73, 0
1, 76339, Note_on_c, 0, 68, 77
1, 76340, Note_on_c, 0, 52, 72
1, 76475, Note_on_c, 0, 52, 0
1, 76476, Note_on_c, 0, 68, 0
1, 76476, Note_on_c, 0, 73, 77
1, 76476, Note_on_c, 0, 66, 72
1, 76477, Note_on_c, 0, 54, 72
1, 76544, Note_on_c, 0, 66, 0
1, 76544, Note_on_c, 0, 64, 72
1, 76590, Note_on_c, 0, 56, 0
1, 76613, Note_on_c, 0, 54, 0
1, 76613, Note_on_c, 0, 64, 0
1, 76614, Note_on_c, 0, 73, 0
1, 76614, Note_on_c, 0, 72, 77
1, 76615, Note_on_c, 0, 56, 72
1, 76615, Note_on_c, 0, 63, 72
1, 76751, Note_on_c, 0, 63, 0
1, 76752, Note_on_c, 0, 72, 0
1, 76752, Note_on_c, 0, 73, 77
1, 76752, Note_on_c, 0, 68, 77
1, 76753, Note_on_c, 0, 58, 72
1, 76820, Note_on_c, 0, 58, 0
1, 76821, Note_on_c, 0, 73, 0
1, 76821, Note_on_c, 0, 75, 77
1, 76821, Note_on_c, 0, 60, 72
1, 76889, Note_on_c, 0, 60, 0
1, 76890, Note_on_c, 0, 75, 0
1, 76890, Note_on_c, 0, 76, 77
1, 76891, Note_on_c, 0, 61, 72
1, 77027, Note_on_c, 0, 61, 0
1, 77027, Note_on_c, 0, 76, 0
1, 77028, Note_on_c, 0, 68, 0
1, 77028, Note_on_c, 0, 75, 77
1, 77028, Note_on_c, 0, 63, 72
1, 77028, Note_on_c, 0, 67, 72
1, 77096, Note_on_c, 0, 67, 0
1, 77096, Note_on_c, 0, 68, 77
1, 77164, Note_on_c, 0, 68, 0
1, 77164, Note_on_c, 0, 63, 0
1, 77165, Note_on_c, 0, 75, 0
1, 77165, Note_on_c, 0, 70, 77
1, 77166, Note_on_c, 0, 73, 77
1, 77166, Note_on_c, 0, 64, 72
1, 77298, Note_on_c, 0, 73, 0
1, 77299, Note_on_c, 0, 70, 0
1, 77299, Note_on_c, 0, 79, 71
1, 77300, Note_on_c, 0, 68, 77
1, 77366, Note_on_c, 0, 68, 0
1, 77367, Note_on_c, 0, 70, 77
1, 77435, Note_on_c, 0, 70, 0
1, 77435, Note_on_c, 0, 79, 0
1, 77436, Note_on_c, 0, 64, 0
1, 77436, Note_on_c, 0, 80, 71
1, 77436, Note_on_c, 0, 71, 77
1, 77437, Note_on_c, 0, 63, 72
1, 77562, Note_on_c, 0, 71, 0
1, 77572, Note_on_c, 0, 80, 0
1, 77572, Note_on_c, 0, 71, 77
1, 77573, Note_on_c, 0, 68, 77
1, 77709, Note_on_c, 0, 68, 0
1, 77710, Note_on_c, 0, 71, 0
1, 77710, Note_on_c, 0, 63, 0
1, 77711, Note_on_c, 0, 69, 77
1, 77711, Note_on_c, 0, 73, 77
1, 77712, Note_on_c, 0, 64, 72
1, 77838, Note_on_c, 0, 73, 0
1, 77846, Note_on_c, 0, 64, 0
1, 77847, Note_on_c, 0, 69, 0
1, 77847, Note_on_c, 0, 73, 77
1, 77981, Note_on_c, 0, 73, 0
1, 77981, Note_on_c, 0, 56, 0
1, 77982, Note_on_c, 0, 69, 77
1, 77982, Note_on_c, 0, 75, 77
1, 77983, Note_on_c, 0, 54, 72
1, 77983, Note_on_c, 0, 66, 72
1, 78107, Note_on_c, 0, 75, 0
1, 78115, Note_on_c, 0, 66, 0
1, 78116, Note_on_c, 0, 69, 0
1, 78116, Note_on_c, 0, 75, 77
1, 78251, Note_on_c, 0, 75, 0
1, 78251, Note_on_c, 0, 68, 77
1, 78252, Note_on_c, 0, 63, 72
1, 78252, Note_on_c, 0, 60, 72
1, 78385, Note_on_c, 0, 60, 0
1, 78385, Note_on_c, 0, 63, 0
1, 78386, Note_on_c, 0, 68, 0
1, 78386, Note_on_c, 0, 72, 77
1, 78520, Note_on_c, 0, 72, 0
1, 78521, Note_on_c, 0, 54, 0
1, 78521, Note_on_c, 0, 73, 77
1, 78655, Note_on_c, 0, 68, 77
1, 78655, Note_on_c, 0, 52, 72
1, 78656, Note_on_c, 0, 64, 72
1, 78790, Note_on_c, 0, 64, 0
1, 78790, Note_on_c, 0, 52, 0
1, 78791, Note_on_c, 0, 68, 0
1, 78791, Note_on_c, 0, 70, 77
1, 78791, Note_on_c, 0, 63, 72
1, 78792, Note_on_c, 0, 43, 72
1, 78926, Note_on_c, 0, 43, 0
1, 78927, Note_on_c, 0, 70, 0
1, 78927, Note_on_c, 0, 43, 72
1, 78982, Note_on_c, 0, 63, 0
1, 79063, Note_on_c, 0, 43, 0
1, 79064, Note_on_c, 0, 73, 0
1, 79064, Note_on_c, 0, 71, 77
1, 79065, Note_on_c, 0, 68, 77
1, 79065, Note_on_c, 0, 63, 72
1, 79066, Note_on_c, 0, 44, 72
1, 79200, Note_on_c, 0, 44, 0
1, 79201, Note_on_c, 0, 68, 0
1, 79201, Note_on_c, 0, 66, 72
1, 79201, Note_on_c, 0, 44, 72
1, 79335, Note_on_c, 0, 44, 0
1, 79335, Note_on_c, 0, 63, 0
1, 79336, Note_on_c, 0, 61, 72
1, 79336, Note_on_c, 0, 64, 72
1, 79337, Note_on_c, 0, 37, 72
1, 79348, Note_on_c, 0, 66, 0
1, 79469, Note_on_c, 0, 37, 0
1, 79470, Note_on_c, 0, 64, 0
1, 79470, Note_on_c, 0, 63, 72
1, 79471, Note_on_c, 0, 39, 72
1, 79604, Note_on_c, 0, 39, 0
1, 79604, Note_on_c, 0, 61, 0
1, 79605, Note_on_c, 0, 71, 0
1, 79605, Note_on_c, 0, 70, 77
1, 79606, Note_on_c, 0, 61, 72
1, 79606, Note_on_c, 0, 40, 72
1, 79617, Note_on_c, 0, 63, 0
1, 79736, Note_on_c, 0, 70, 0
1, 79737, Note_on_c, 0, 68, 77
1, 79737, Note_on_c, 0, 49, 72
1, 79870, Note_on_c, 0, 49, 0
1, 79870, Note_on_c, 0, 40, 0
1, 79871, Note_on_c, 0, 51, 72
1, 79871, Note_on_c, 0, 67, 72
1, 79872, Note_on_c, 0, 39, 72
1, 79883, Note_on_c, 0, 68, 0
1, 80004, Note_on_c, 0, 68, 77
1, 80004, Note_on_c, 0, 59, 72
1, 80018, Note_on_c, 0, 67, 0
1, 80046, Note_on_c, 0, 61, 0
1, 80144, Note_on_c, 0, 59, 0
1, 80145, Note_on_c, 0, 58, 72
1, 80289, Note_on_c, 0, 67, 72
1, 80331, Note_on_c, 0, 68, 0
1, 80463, Note_on_c, 0, 58, 0
1, 80463, Note_on_c, 0, 39, 0
1, 80464, Note_on_c, 0, 68, 77
1, 80465, Note_on_c, 0, 60, 61
1, 80465, Note_on_c, 0, 44, 64
1, 80477, Note_on_c, 0, 67, 0
1, 82025, Note_on_c, 0, 44, 0
1, 82026, Note_on_c, 0, 51, 0
1, 82026, Note_on_c, 0, 60, 0
1, 82027, Note_on_c, 0, 68, 0
1, 84088, Control_c, 0, 64, 0
1, 84089, Control_c, 0, 64, 0
1, 84090, Control_c, 0, 64, 0
1, 84113, Control_c, 0, 64, 0
1, 84114, Control_c, 0, 64, 0
1, 84115, Control_c, 0, 64, 0
1, 84115, End_track
0, 0, End_of_file
