0, 0, Header, 0, 1, 240
1, 0, Start_track
1, 0, Title_t, "--------"
1, 0, Time_signature, 1, 2, 24, 8
1, 0, Key_signature, 0, "major"
1, 0, Tempo, 500000
1, 0, Program_c, 0, 6
1, 0, Control_c, 0, 7, 105
1, 0, Control_c, 0, 10, 63
1, 0, Program_c, 0, 6
1, 0, Control_c, 0, 7, 100
1, 0, Control_c, 0, 10, 63
1, 0, Program_c, 0, 6
1, 0, Control_c, 0, 7, 100
1, 0, Control_c, 0, 10, 48
1, 360, Marker_t, "interpreted by (P) 1997 S.D. Rodrian  WTC Book1 Prelude & Fugue in B"
1, 2037, Program_c, 0, 0
1, 2041, Program_c, 0, 0
1, 2050, Program_c, 0, 0
1, 2074, Control_c, 0, 10, 67
1, 2078, Control_c, 0, 0, 42
1, 2086, Control_c, 0, 10, 79
1, 2095, Control_c, 0, 10, 60
1, 2121, Control_c, 0, 10, 58
1, 2127, Control_c, 0, 10, 75
1, 2131, Control_c, 0, 10, 55
1, 2158, Control_c, 0, 10, 66
1, 2159, Control_c, 0, 10, 59
1, 2176, Control_c, 0, 10, 74
1, 2409, Note_on_c, 0, 63, 55
1, 2411, Note_on_c, 0, 59, 55
1, 2481, Note_on_c, 0, 71, 63
1, 2550, Note_on_c, 0, 71, 0
1, 2550, Note_on_c, 0, 70, 66
1, 2619, Note_on_c, 0, 70, 0
1, 2619, Note_on_c, 0, 71, 63
1, 2687, Note_on_c, 0, 71, 0
1, 2688, Note_on_c, 0, 63, 0
1, 2688, Note_on_c, 0, 73, 60
1, 2688, Note_on_c, 0, 64, 67
1, 2754, Note_on_c, 0, 73, 0
1, 2755, Note_on_c, 0, 70, 66
1, 2822, Note_on_c, 0, 70, 0
1, 2823, Note_on_c, 0, 71, 63
1, 2890, Note_on_c, 0, 71, 0
1, 2890, Note_on_c, 0, 73, 60
1, 2957, Note_on_c, 0, 73, 0
1, 2958, Note_on_c, 0, 64, 0
1, 2958, Note_on_c, 0, 66, 67
1, 3023, Note_on_c, 0, 75, 60
1, 3090, Note_on_c, 0, 75, 0
1, 3091, Note_on_c, 0, 73, 60
1, 3157, Note_on_c, 0, 73, 0
1, 3157, Note_on_c, 0, 75, 60
1, 3224, Note_on_c, 0, 75, 0
1, 3225, Note_on_c, 0, 66, 0
1, 3225, Note_on_c, 0, 76, 60
1, 3226, Note_on_c, 0, 68, 66
1, 3290, Note_on_c, 0, 76, 0
1, 3291, Note_on_c, 0, 73, 60
1, 3358, Note_on_c, 0, 73, 0
1, 3358, Note_on_c, 0, 75, 60
1, 3424, Note_on_c, 0, 75, 0
1, 3424, Note_on_c, 0, 76, 60
1, 3490, Note_on_c, 0, 76, 0
1, 3491, Note_on_c, 0, 68, 0
1, 3491, Note_on_c, 0, 70, 66
1, 3556, Note_on_c, 0, 76, 60
1, 3622, Note_on_c, 0, 76, 0
1, 3622, Note_on_c, 0, 75, 60
1, 3687, Note_on_c, 0, 75, 0
1, 3687, Note_on_c, 0, 76, 60
1, 3752, Note_on_c, 0, 76, 0
1, 3753, Note_on_c, 0, 78, 60
1, 3818, Note_on_c, 0, 78, 0
1, 3819, Note_on_c, 0, 73, 60
1, 3885, Note_on_c, 0, 73, 0
1, 3885, Note_on_c, 0, 75, 60
1, 3951, Note_on_c, 0, 75, 0
1, 3951, Note_on_c, 0, 76, 60
1, 4017, Note_on_c, 0, 76, 0
1, 4018, Note_on_c, 0, 75, 63
1, 4084, Note_on_c, 0, 70, 66
1, 4151, Note_on_c, 0, 70, 0
1, 4151, Note_on_c, 0, 68, 66
1, 4217, Note_on_c, 0, 68, 0
1, 4217, Note_on_c, 0, 70, 66
1, 4283, Note_on_c, 0, 70, 0
1, 4284, Note_on_c, 0, 71, 66
1, 4348, Note_on_c, 0, 71, 0
1, 4349, Note_on_c, 0, 68, 66
1, 4414, Note_on_c, 0, 68, 0
1, 4414, Note_on_c, 0, 70, 66
1, 4480, Note_on_c, 0, 70, 0
1, 4480, Note_on_c, 0, 71, 66
1, 4546, Note_on_c, 0, 71, 0
1, 4547, Note_on_c, 0, 70, 0
1, 4547, Note_on_c, 0, 75, 0
1, 4548, Note_on_c, 0, 73, 66
1, 4548, Note_on_c, 0, 65, 67
1, 4612, Note_on_c, 0, 56, 67
1, 4613, Note_on_c, 0, 59, 0
1, 4679, Note_on_c, 0, 56, 0
1, 4679, Note_on_c, 0, 54, 67
1, 4744, Note_on_c, 0, 54, 0
1, 4744, Note_on_c, 0, 56, 67
1, 4809, Note_on_c, 0, 56, 0
1, 4810, Note_on_c, 0, 65, 0
1, 4810, Note_on_c, 0, 66, 67
1, 4811, Note_on_c, 0, 58, 67
1, 4875, Note_on_c, 0, 58, 0
1, 4876, Note_on_c, 0, 54, 67
1, 4941, Note_on_c, 0, 54, 0
1, 4941, Note_on_c, 0, 56, 67
1, 5006, Note_on_c, 0, 56, 0
1, 5006, Note_on_c, 0, 58, 67
1, 5072, Note_on_c, 0, 58, 0
1, 5072, Note_on_c, 0, 51, 67
1, 5136, Note_on_c, 0, 73, 0
1, 5137, Note_on_c, 0, 70, 69
1, 5201, Note_on_c, 0, 70, 0
1, 5202, Note_on_c, 0, 68, 69
1, 5267, Note_on_c, 0, 68, 0
1, 5267, Note_on_c, 0, 70, 69
1, 5331, Note_on_c, 0, 70, 0
1, 5331, Note_on_c, 0, 51, 0
1, 5331, Note_on_c, 0, 71, 69
1, 5332, Note_on_c, 0, 56, 67
1, 5396, Note_on_c, 0, 71, 0
1, 5397, Note_on_c, 0, 68, 69
1, 5461, Note_on_c, 0, 68, 0
1, 5461, Note_on_c, 0, 70, 69
1, 5526, Note_on_c, 0, 70, 0
1, 5526, Note_on_c, 0, 71, 69
1, 5591, Note_on_c, 0, 56, 0
1, 5592, Note_on_c, 0, 66, 0
1, 5592, Note_on_c, 0, 65, 67
1, 5592, Note_on_c, 0, 49, 67
1, 5656, Note_on_c, 0, 71, 0
1, 5657, Note_on_c, 0, 68, 69
1, 5722, Note_on_c, 0, 68, 0
1, 5722, Note_on_c, 0, 66, 67
1, 5787, Note_on_c, 0, 66, 0
1, 5787, Note_on_c, 0, 68, 69
1, 5852, Note_on_c, 0, 68, 0
1, 5853, Note_on_c, 0, 49, 0
1, 5853, Note_on_c, 0, 65, 0
1, 5854, Note_on_c, 0, 70, 69
1, 5854, Note_on_c, 0, 54, 67
1, 5854, Note_on_c, 0, 64, 67
1, 5916, Note_on_c, 0, 70, 0
1, 5917, Note_on_c, 0, 66, 67
1, 5982, Note_on_c, 0, 66, 0
1, 5982, Note_on_c, 0, 68, 69
1, 6047, Note_on_c, 0, 68, 0
1, 6048, Note_on_c, 0, 70, 69
1, 6113, Note_on_c, 0, 54, 0
1, 6114, Note_on_c, 0, 64, 0
1, 6114, Note_on_c, 0, 63, 67
1, 6115, Note_on_c, 0, 47, 77
1, 6179, Note_on_c, 0, 47, 0
1, 6179, Note_on_c, 0, 58, 67
1, 6245, Note_on_c, 0, 58, 0
1, 6245, Note_on_c, 0, 56, 67
1, 6311, Note_on_c, 0, 56, 0
1, 6312, Note_on_c, 0, 58, 67
1, 6377, Note_on_c, 0, 58, 0
1, 6378, Note_on_c, 0, 70, 0
1, 6378, Note_on_c, 0, 68, 69
1, 6379, Note_on_c, 0, 59, 67
1, 6444, Note_on_c, 0, 59, 0
1, 6444, Note_on_c, 0, 56, 67
1, 6511, Note_on_c, 0, 56, 0
1, 6511, Note_on_c, 0, 68, 0
1, 6512, Note_on_c, 0, 66, 67
1, 6512, Note_on_c, 0, 58, 67
1, 6577, Note_on_c, 0, 58, 0
1, 6577, Note_on_c, 0, 59, 67
1, 6644, Note_on_c, 0, 59, 0
1, 6645, Note_on_c, 0, 66, 0
1, 6645, Note_on_c, 0, 49, 67
1, 6646, Note_on_c, 0, 65, 67
1, 6710, Note_on_c, 0, 49, 0
1, 6711, Note_on_c, 0, 51, 67
1, 6776, Note_on_c, 0, 51, 0
1, 6776, Note_on_c, 0, 63, 0
1, 6777, Note_on_c, 0, 61, 67
1, 6777, Note_on_c, 0, 47, 77
1, 6842, Note_on_c, 0, 47, 0
1, 6842, Note_on_c, 0, 49, 67
1, 6908, Note_on_c, 0, 49, 0
1, 6909, Note_on_c, 0, 61, 0
1, 6909, Note_on_c, 0, 65, 0
1, 6910, Note_on_c, 0, 51, 67
1, 6910, Note_on_c, 0, 59, 67
1, 6911, Note_on_c, 0, 66, 67
1, 6974, Note_on_c, 0, 51, 0
1, 6975, Note_on_c, 0, 47, 77
1, 7040, Note_on_c, 0, 47, 0
1, 7040, Note_on_c, 0, 59, 0
1, 7041, Note_on_c, 0, 58, 67
1, 7041, Note_on_c, 0, 49, 67
1, 7106, Note_on_c, 0, 49, 0
1, 7106, Note_on_c, 0, 51, 67
1, 7171, Note_on_c, 0, 51, 0
1, 7172, Note_on_c, 0, 58, 0
1, 7172, Note_on_c, 0, 59, 67
1, 7173, Note_on_c, 0, 44, 77
1, 7236, Note_on_c, 0, 59, 0
1, 7237, Note_on_c, 0, 58, 67
1, 7302, Note_on_c, 0, 58, 0
1, 7302, Note_on_c, 0, 56, 67
1, 7366, Note_on_c, 0, 56, 0
1, 7367, Note_on_c, 0, 58, 67
1, 7432, Note_on_c, 0, 58, 0
1, 7432, Note_on_c, 0, 44, 0
1, 7432, Note_on_c, 0, 66, 0
1, 7433, Note_on_c, 0, 49, 67
1, 7433, Note_on_c, 0, 65, 67
1, 7434, Note_on_c, 0, 59, 67
1, 7498, Note_on_c, 0, 59, 0
1, 7498, Note_on_c, 0, 56, 67
1, 7563, Note_on_c, 0, 56, 0
1, 7563, Note_on_c, 0, 58, 67
1, 7630, Note_on_c, 0, 58, 0
1, 7630, Note_on_c, 0, 59, 67
1, 7696, Note_on_c, 0, 59, 0
1, 7696, Note_on_c, 0, 49, 0
1, 7697, Note_on_c, 0, 65, 0
1, 7697, Note_on_c, 0, 66, 67
1, 7697, Note_on_c, 0, 58, 67
1, 7698, Note_on_c, 0, 42, 77
1, 7762, Note_on_c, 0, 42, 0
1, 7763, Note_on_c, 0, 49, 67
1, 7828, Note_on_c, 0, 49, 0
1, 7829, Note_on_c, 0, 47, 77
1, 7894, Note_on_c, 0, 47, 0
1, 7894, Note_on_c, 0, 49, 67
1, 7960, Note_on_c, 0, 49, 0
1, 7960, Note_on_c, 0, 58, 0
1, 7961, Note_on_c, 0, 59, 67
1, 7961, Note_on_c, 0, 51, 67
1, 8025, Note_on_c, 0, 51, 0
1, 8026, Note_on_c, 0, 47, 77
1, 8090, Note_on_c, 0, 47, 0
1, 8091, Note_on_c, 0, 49, 67
1, 8157, Note_on_c, 0, 49, 0
1, 8157, Note_on_c, 0, 51, 67
1, 8222, Note_on_c, 0, 51, 0
1, 8222, Note_on_c, 0, 59, 0
1, 8223, Note_on_c, 0, 61, 67
1, 8223, Note_on_c, 0, 42, 77
1, 8287, Note_on_c, 0, 42, 0
1, 8288, Note_on_c, 0, 46, 77
1, 8352, Note_on_c, 0, 46, 0
1, 8352, Note_on_c, 0, 44, 77
1, 8416, Note_on_c, 0, 44, 0
1, 8416, Note_on_c, 0, 46, 77
1, 8480, Note_on_c, 0, 46, 0
1, 8481, Note_on_c, 0, 61, 0
1, 8481, Note_on_c, 0, 63, 67
1, 8482, Note_on_c, 0, 47, 77
1, 8544, Note_on_c, 0, 47, 0
1, 8545, Note_on_c, 0, 44, 77
1, 8610, Note_on_c, 0, 44, 0
1, 8610, Note_on_c, 0, 46, 77
1, 8674, Note_on_c, 0, 46, 0
1, 8675, Note_on_c, 0, 47, 77
1, 8739, Note_on_c, 0, 47, 0
1, 8740, Note_on_c, 0, 66, 0
1, 8740, Note_on_c, 0, 40, 77
1, 8805, Note_on_c, 0, 68, 72
1, 8869, Note_on_c, 0, 68, 0
1, 8869, Note_on_c, 0, 67, 67
1, 8934, Note_on_c, 0, 67, 0
1, 8935, Note_on_c, 0, 68, 72
1, 8999, Note_on_c, 0, 68, 0
1, 8999, Note_on_c, 0, 40, 0
1, 9000, Note_on_c, 0, 63, 0
1, 9000, Note_on_c, 0, 70, 72
1, 9000, Note_on_c, 0, 61, 67
1, 9001, Note_on_c, 0, 52, 67
1, 9063, Note_on_c, 0, 70, 0
1, 9063, Note_on_c, 0, 67, 67
1, 9127, Note_on_c, 0, 67, 0
1, 9128, Note_on_c, 0, 68, 72
1, 9192, Note_on_c, 0, 68, 0
1, 9192, Note_on_c, 0, 70, 72
1, 9256, Note_on_c, 0, 70, 0
1, 9256, Note_on_c, 0, 52, 0
1, 9257, Note_on_c, 0, 51, 67
1, 9257, Note_on_c, 0, 67, 67
1, 9321, Note_on_c, 0, 67, 0
1, 9322, Note_on_c, 0, 70, 72
1, 9385, Note_on_c, 0, 70, 0
1, 9386, Note_on_c, 0, 68, 72
1, 9451, Note_on_c, 0, 68, 0
1, 9451, Note_on_c, 0, 70, 72
1, 9515, Note_on_c, 0, 70, 0
1, 9516, Note_on_c, 0, 61, 0
1, 9516, Note_on_c, 0, 71, 72
1, 9516, Note_on_c, 0, 59, 67
1, 9579, Note_on_c, 0, 71, 0
1, 9580, Note_on_c, 0, 68, 72
1, 9643, Note_on_c, 0, 68, 0
1, 9643, Note_on_c, 0, 70, 72
1, 9707, Note_on_c, 0, 70, 0
1, 9708, Note_on_c, 0, 71, 72
1, 9772, Note_on_c, 0, 71, 0
1, 9772, Note_on_c, 0, 59, 0
1, 9772, Note_on_c, 0, 73, 72
1, 9773, Note_on_c, 0, 58, 67
1, 9837, Note_on_c, 0, 73, 0
1, 9837, Note_on_c, 0, 80, 66
1, 9902, Note_on_c, 0, 80, 0
1, 9902, Note_on_c, 0, 58, 0
1, 9903, Note_on_c, 0, 79, 66
1, 9903, Note_on_c, 0, 56, 67
1, 9967, Note_on_c, 0, 79, 0
1, 9967, Note_on_c, 0, 80, 66
1, 10031, Note_on_c, 0, 80, 0
1, 10031, Note_on_c, 0, 51, 0
1, 10032, Note_on_c, 0, 82, 66
1, 10032, Note_on_c, 0, 49, 67
1, 10095, Note_on_c, 0, 82, 0
1, 10096, Note_on_c, 0, 79, 66
1, 10160, Note_on_c, 0, 79, 0
1, 10160, Note_on_c, 0, 56, 0
1, 10161, Note_on_c, 0, 80, 66
1, 10161, Note_on_c, 0, 55, 67
1, 10224, Note_on_c, 0, 80, 0
1, 10224, Note_on_c, 0, 82, 66
1, 10287, Note_on_c, 0, 82, 0
1, 10288, Note_on_c, 0, 49, 0
1, 10288, Note_on_c, 0, 75, 72
1, 10289, Note_on_c, 0, 47, 77
1, 10351, Note_on_c, 0, 55, 0
1, 10351, Note_on_c, 0, 70, 72
1, 10414, Note_on_c, 0, 70, 0
1, 10415, Note_on_c, 0, 47, 0
1, 10415, Note_on_c, 0, 68, 72
1, 10416, Note_on_c, 0, 46, 77
1, 10477, Note_on_c, 0, 68, 0
1, 10478, Note_on_c, 0, 70, 72
1, 10541, Note_on_c, 0, 70, 0
1, 10541, Note_on_c, 0, 46, 0
1, 10542, Note_on_c, 0, 71, 72
1, 10542, Note_on_c, 0, 44, 77
1, 10604, Note_on_c, 0, 71, 0
1, 10605, Note_on_c, 0, 68, 72
1, 10668, Note_on_c, 0, 68, 0
1, 10668, Note_on_c, 0, 70, 72
1, 10731, Note_on_c, 0, 70, 0
1, 10731, Note_on_c, 0, 71, 72
1, 10795, Note_on_c, 0, 71, 0
1, 10796, Note_on_c, 0, 75, 0
1, 10796, Note_on_c, 0, 73, 72
1, 10797, Note_on_c, 0, 64, 67
1, 10860, Note_on_c, 0, 64, 0
1, 10860, Note_on_c, 0, 44, 0
1, 10860, Note_on_c, 0, 71, 72
1, 10861, Note_on_c, 0, 56, 67
1, 10924, Note_on_c, 0, 56, 0
1, 10924, Note_on_c, 0, 71, 0
1, 10925, Note_on_c, 0, 70, 72
1, 10925, Note_on_c, 0, 55, 67
1, 10988, Note_on_c, 0, 55, 0
1, 10989, Note_on_c, 0, 70, 0
1, 10989, Note_on_c, 0, 68, 72
1, 10990, Note_on_c, 0, 56, 67
1, 11053, Note_on_c, 0, 56, 0
1, 11054, Note_on_c, 0, 68, 0
1, 11054, Note_on_c, 0, 67, 67
1, 11055, Note_on_c, 0, 58, 67
1, 11117, Note_on_c, 0, 58, 0
1, 11117, Note_on_c, 0, 55, 67
1, 11181, Note_on_c, 0, 55, 0
1, 11182, Note_on_c, 0, 56, 67
1, 11244, Note_on_c, 0, 56, 0
1, 11245, Note_on_c, 0, 58, 67
1, 11308, Note_on_c, 0, 58, 0
1, 11308, Note_on_c, 0, 52, 67
1, 11370, Note_on_c, 0, 73, 0
1, 11371, Note_on_c, 0, 75, 72
1, 11434, Note_on_c, 0, 75, 0
1, 11434, Note_on_c, 0, 52, 0
1, 11435, Note_on_c, 0, 73, 72
1, 11435, Note_on_c, 0, 64, 67
1, 11497, Note_on_c, 0, 73, 0
1, 11497, Note_on_c, 0, 75, 72
1, 11561, Note_on_c, 0, 75, 0
1, 11562, Note_on_c, 0, 64, 0
1, 11562, Note_on_c, 0, 67, 0
1, 11563, Note_on_c, 0, 68, 72
1, 11563, Note_on_c, 0, 76, 72
1, 11564, Note_on_c, 0, 63, 67
1, 11625, Note_on_c, 0, 76, 0
1, 11625, Note_on_c, 0, 73, 72
1, 11689, Note_on_c, 0, 73, 0
1, 11690, Note_on_c, 0, 63, 0
1, 11690, Note_on_c, 0, 75, 72
1, 11690, Note_on_c, 0, 61, 67
1, 11753, Note_on_c, 0, 75, 0
1, 11754, Note_on_c, 0, 76, 72
1, 11818, Note_on_c, 0, 76, 0
1, 11818, Note_on_c, 0, 61, 0
1, 11819, Note_on_c, 0, 70, 72
1, 11819, Note_on_c, 0, 63, 67
1, 11882, Note_on_c, 0, 70, 0
1, 11882, Note_on_c, 0, 71, 72
1, 11945, Note_on_c, 0, 71, 0
1, 11946, Note_on_c, 0, 63, 0
1, 11946, Note_on_c, 0, 70, 72
1, 11947, Note_on_c, 0, 61, 67
1, 12009, Note_on_c, 0, 70, 0
1, 12009, Note_on_c, 0, 71, 72
1, 12072, Note_on_c, 0, 71, 0
1, 12072, Note_on_c, 0, 61, 0
1, 12073, Note_on_c, 0, 68, 0
1, 12073, Note_on_c, 0, 73, 72
1, 12074, Note_on_c, 0, 67, 67
1, 12074, Note_on_c, 0, 63, 67
1, 12135, Note_on_c, 0, 73, 0
1, 12136, Note_on_c, 0, 70, 72
1, 12199, Note_on_c, 0, 70, 0
1, 12199, Note_on_c, 0, 63, 0
1, 12200, Note_on_c, 0, 71, 72
1, 12200, Note_on_c, 0, 51, 67
1, 12263, Note_on_c, 0, 71, 0
1, 12263, Note_on_c, 0, 73, 72
1, 12325, Note_on_c, 0, 73, 0
1, 12326, Note_on_c, 0, 51, 0
1, 12327, Note_on_c, 0, 67, 0
1, 12327, Note_on_c, 0, 68, 72
1, 12327, Note_on_c, 0, 71, 72
1, 12328, Note_on_c, 0, 56, 67
1, 12390, Note_on_c, 0, 56, 0
1, 12391, Note_on_c, 0, 58, 67
1, 12454, Note_on_c, 0, 58, 0
1, 12454, Note_on_c, 0, 71, 0
1, 12455, Note_on_c, 0, 75, 72
1, 12455, Note_on_c, 0, 56, 67
1, 12518, Note_on_c, 0, 56, 0
1, 12518, Note_on_c, 0, 58, 67
1, 12581, Note_on_c, 0, 58, 0
1, 12582, Note_on_c, 0, 75, 0
1, 12582, Note_on_c, 0, 68, 0
1, 12582, Note_on_c, 0, 80, 72
1, 12583, Note_on_c, 0, 59, 67
1, 12645, Note_on_c, 0, 59, 0
1, 12645, Note_on_c, 0, 56, 67
1, 12709, Note_on_c, 0, 56, 0
1, 12709, Note_on_c, 0, 80, 0
1, 12710, Note_on_c, 0, 78, 72
1, 12710, Note_on_c, 0, 58, 67
1, 12772, Note_on_c, 0, 58, 0
1, 12773, Note_on_c, 0, 59, 67
1, 12836, Note_on_c, 0, 59, 0
1, 12836, Note_on_c, 0, 78, 0
1, 12837, Note_on_c, 0, 77, 72
1, 12837, Note_on_c, 0, 49, 67
1, 12900, Note_on_c, 0, 73, 72
1, 12964, Note_on_c, 0, 73, 0
1, 12965, Note_on_c, 0, 49, 0
1, 12965, Note_on_c, 0, 71, 72
1, 12966, Note_on_c, 0, 61, 67
1, 13029, Note_on_c, 0, 61, 0
1, 13029, Note_on_c, 0, 71, 0
1, 13030, Note_on_c, 0, 73, 72
1, 13030, Note_on_c, 0, 59, 67
1, 13092, Note_on_c, 0, 59, 0
1, 13092, Note_on_c, 0, 73, 0
1, 13093, Note_on_c, 0, 74, 72
1, 13093, Note_on_c, 0, 57, 67
1, 13155, Note_on_c, 0, 74, 0
1, 13156, Note_on_c, 0, 71, 72
1, 13219, Note_on_c, 0, 71, 0
1, 13219, Note_on_c, 0, 57, 0
1, 13220, Note_on_c, 0, 73, 72
1, 13220, Note_on_c, 0, 56, 67
1, 13282, Note_on_c, 0, 73, 0
1, 13283, Note_on_c, 0, 74, 72
1, 13345, Note_on_c, 0, 74, 0
1, 13346, Note_on_c, 0, 56, 0
1, 13346, Note_on_c, 0, 77, 0
1, 13347, Note_on_c, 0, 69, 72
1, 13347, Note_on_c, 0, 54, 67
1, 13409, Note_on_c, 0, 54, 0
1, 13409, Note_on_c, 0, 56, 67
1, 13473, Note_on_c, 0, 56, 0
1, 13474, Note_on_c, 0, 73, 72
1, 13474, Note_on_c, 0, 54, 67
1, 13537, Note_on_c, 0, 54, 0
1, 13538, Note_on_c, 0, 56, 67
1, 13602, Note_on_c, 0, 56, 0
1, 13602, Note_on_c, 0, 73, 0
1, 13603, Note_on_c, 0, 78, 72
1, 13603, Note_on_c, 0, 57, 67
1, 13665, Note_on_c, 0, 57, 0
1, 13666, Note_on_c, 0, 54, 67
1, 13728, Note_on_c, 0, 54, 0
1, 13729, Note_on_c, 0, 78, 0
1, 13729, Note_on_c, 0, 76, 72
1, 13730, Note_on_c, 0, 56, 67
1, 13793, Note_on_c, 0, 56, 0
1, 13793, Note_on_c, 0, 57, 67
1, 13856, Note_on_c, 0, 57, 0
1, 13857, Note_on_c, 0, 76, 0
1, 13857, Note_on_c, 0, 69, 0
1, 13858, Note_on_c, 0, 75, 72
1, 13858, Note_on_c, 0, 47, 77
1, 13920, Note_on_c, 0, 69, 72
1, 13985, Note_on_c, 0, 69, 0
1, 13985, Note_on_c, 0, 47, 0
1, 13986, Note_on_c, 0, 68, 72
1, 13986, Note_on_c, 0, 59, 67
1, 14049, Note_on_c, 0, 59, 0
1, 14050, Note_on_c, 0, 68, 0
1, 14050, Note_on_c, 0, 69, 72
1, 14051, Note_on_c, 0, 57, 67
1, 14113, Note_on_c, 0, 57, 0
1, 14114, Note_on_c, 0, 69, 0
1, 14114, Note_on_c, 0, 71, 72
1, 14115, Note_on_c, 0, 56, 67
1, 14178, Note_on_c, 0, 71, 0
1, 14178, Note_on_c, 0, 66, 67
1, 14242, Note_on_c, 0, 66, 0
1, 14243, Note_on_c, 0, 56, 0
1, 14243, Note_on_c, 0, 68, 72
1, 14244, Note_on_c, 0, 54, 67
1, 14305, Note_on_c, 0, 68, 0
1, 14306, Note_on_c, 0, 69, 72
1, 14369, Note_on_c, 0, 69, 0
1, 14369, Note_on_c, 0, 54, 0
1, 14370, Note_on_c, 0, 75, 0
1, 14370, Note_on_c, 0, 76, 72
1, 14371, Note_on_c, 0, 68, 72
1, 14371, Note_on_c, 0, 52, 67
1, 14432, Note_on_c, 0, 52, 0
1, 14433, Note_on_c, 0, 51, 67
1, 14496, Note_on_c, 0, 51, 0
1, 14496, Note_on_c, 0, 52, 67
1, 14560, Note_on_c, 0, 52, 0
1, 14560, Note_on_c, 0, 51, 67
1, 14623, Note_on_c, 0, 51, 0
1, 14624, Note_on_c, 0, 68, 0
1, 14625, Note_on_c, 0, 70, 72
1, 14625, Note_on_c, 0, 49, 67
1, 14689, Note_on_c, 0, 49, 0
1, 14689, Note_on_c, 0, 52, 67
1, 14753, Note_on_c, 0, 52, 0
1, 14754, Note_on_c, 0, 70, 0
1, 14754, Note_on_c, 0, 71, 72
1, 14754, Note_on_c, 0, 51, 67
1, 14817, Note_on_c, 0, 51, 0
1, 14818, Note_on_c, 0, 49, 67
1, 14882, Note_on_c, 0, 49, 0
1, 14882, Note_on_c, 0, 71, 0
1, 14882, Note_on_c, 0, 70, 72
1, 14883, Note_on_c, 0, 54, 67
1, 14947, Note_on_c, 0, 76, 0
1, 14948, Note_on_c, 0, 73, 72
1, 15011, Note_on_c, 0, 73, 0
1, 15011, Note_on_c, 0, 71, 72
1, 15075, Note_on_c, 0, 71, 0
1, 15075, Note_on_c, 0, 73, 72
1, 15139, Note_on_c, 0, 73, 0
1, 15140, Note_on_c, 0, 54, 0
1, 15140, Note_on_c, 0, 70, 0
1, 15141, Note_on_c, 0, 69, 72
1, 15141, Note_on_c, 0, 75, 72
1, 15142, Note_on_c, 0, 47, 77
1, 15204, Note_on_c, 0, 75, 0
1, 15204, Note_on_c, 0, 71, 72
1, 15267, Note_on_c, 0, 71, 0
1, 15267, Note_on_c, 0, 73, 72
1, 15331, Note_on_c, 0, 73, 0
1, 15332, Note_on_c, 0, 75, 72
1, 15395, Note_on_c, 0, 47, 0
1, 15395, Note_on_c, 0, 69, 0
1, 15396, Note_on_c, 0, 68, 72
1, 15396, Note_on_c, 0, 52, 67
1, 15459, Note_on_c, 0, 52, 0
1, 15459, Note_on_c, 0, 63, 67
1, 15523, Note_on_c, 0, 63, 0
1, 15524, Note_on_c, 0, 61, 67
1, 15588, Note_on_c, 0, 61, 0
1, 15589, Note_on_c, 0, 63, 67
1, 15653, Note_on_c, 0, 63, 0
1, 15653, Note_on_c, 0, 75, 0
1, 15654, Note_on_c, 0, 73, 72
1, 15654, Note_on_c, 0, 64, 67
1, 15718, Note_on_c, 0, 64, 0
1, 15719, Note_on_c, 0, 61, 67
1, 15783, Note_on_c, 0, 61, 0
1, 15784, Note_on_c, 0, 73, 0
1, 15784, Note_on_c, 0, 71, 72
1, 15785, Note_on_c, 0, 63, 67
1, 15849, Note_on_c, 0, 63, 0
1, 15849, Note_on_c, 0, 64, 67
1, 15915, Note_on_c, 0, 64, 0
1, 15915, Note_on_c, 0, 71, 0
1, 15916, Note_on_c, 0, 70, 72
1, 15916, Note_on_c, 0, 54, 67
1, 15979, Note_on_c, 0, 54, 0
1, 15980, Note_on_c, 0, 56, 67
1, 16044, Note_on_c, 0, 56, 0
1, 16045, Note_on_c, 0, 68, 0
1, 16045, Note_on_c, 0, 66, 67
1, 16046, Note_on_c, 0, 52, 67
1, 16109, Note_on_c, 0, 52, 0
1, 16109, Note_on_c, 0, 54, 67
1, 16174, Note_on_c, 0, 54, 0
1, 16175, Note_on_c, 0, 66, 0
1, 16175, Note_on_c, 0, 70, 0
1, 16176, Note_on_c, 0, 71, 72
1, 16176, Note_on_c, 0, 64, 67
1, 16176, Note_on_c, 0, 56, 67
1, 16238, Note_on_c, 0, 56, 0
1, 16239, Note_on_c, 0, 52, 67
1, 16304, Note_on_c, 0, 52, 0
1, 16304, Note_on_c, 0, 64, 0
1, 16305, Note_on_c, 0, 54, 67
1, 16305, Note_on_c, 0, 63, 67
1, 16369, Note_on_c, 0, 54, 0
1, 16369, Note_on_c, 0, 56, 67
1, 16433, Note_on_c, 0, 56, 0
1, 16434, Note_on_c, 0, 63, 0
1, 16434, Note_on_c, 0, 64, 67
1, 16435, Note_on_c, 0, 49, 67
1, 16499, Note_on_c, 0, 64, 0
1, 16499, Note_on_c, 0, 63, 67
1, 16564, Note_on_c, 0, 63, 0
1, 16564, Note_on_c, 0, 61, 67
1, 16628, Note_on_c, 0, 61, 0
1, 16629, Note_on_c, 0, 63, 67
1, 16693, Note_on_c, 0, 63, 0
1, 16694, Note_on_c, 0, 49, 0
1, 16694, Note_on_c, 0, 71, 0
1, 16695, Note_on_c, 0, 70, 72
1, 16695, Note_on_c, 0, 54, 67
1, 16696, Note_on_c, 0, 64, 67
1, 16759, Note_on_c, 0, 64, 0
1, 16759, Note_on_c, 0, 61, 67
1, 16824, Note_on_c, 0, 61, 0
1, 16824, Note_on_c, 0, 63, 67
1, 16890, Note_on_c, 0, 63, 0
1, 16891, Note_on_c, 0, 64, 67
1, 16956, Note_on_c, 0, 64, 0
1, 16956, Note_on_c, 0, 54, 0
1, 16956, Note_on_c, 0, 70, 0
1, 16957, Note_on_c, 0, 63, 67
1, 16957, Note_on_c, 0, 47, 77
1, 17019, Note_on_c, 0, 69, 72
1, 17083, Note_on_c, 0, 69, 0
1, 17084, Note_on_c, 0, 71, 72
1, 17147, Note_on_c, 0, 71, 0
1, 17147, Note_on_c, 0, 69, 72
1, 17210, Note_on_c, 0, 69, 0
1, 17211, Note_on_c, 0, 63, 0
1, 17211, Note_on_c, 0, 68, 72
1, 17212, Note_on_c, 0, 64, 67
1, 17274, Note_on_c, 0, 68, 0
1, 17274, Note_on_c, 0, 71, 72
1, 17337, Note_on_c, 0, 71, 0
1, 17338, Note_on_c, 0, 69, 72
1, 17400, Note_on_c, 0, 69, 0
1, 17400, Note_on_c, 0, 68, 72
1, 17463, Note_on_c, 0, 68, 0
1, 17463, Note_on_c, 0, 66, 67
1, 17525, Note_on_c, 0, 47, 0
1, 17526, Note_on_c, 0, 49, 67
1, 17588, Note_on_c, 0, 49, 0
1, 17588, Note_on_c, 0, 51, 67
1, 17650, Note_on_c, 0, 51, 0
1, 17651, Note_on_c, 0, 52, 67
1, 17712, Note_on_c, 0, 52, 0
1, 17713, Note_on_c, 0, 64, 0
1, 17713, Note_on_c, 0, 63, 67
1, 17714, Note_on_c, 0, 54, 67
1, 17775, Note_on_c, 0, 54, 0
1, 17775, Note_on_c, 0, 57, 67
1, 17838, Note_on_c, 0, 57, 0
1, 17839, Note_on_c, 0, 63, 0
1, 17839, Note_on_c, 0, 61, 67
1, 17840, Note_on_c, 0, 56, 67
1, 17902, Note_on_c, 0, 56, 0
1, 17902, Note_on_c, 0, 54, 67
1, 17966, Note_on_c, 0, 54, 0
1, 17966, Note_on_c, 0, 61, 0
1, 17967, Note_on_c, 0, 56, 67
1, 17967, Note_on_c, 0, 59, 67
1, 18019, Note_on_c, 0, 66, 0
1, 18029, Note_on_c, 0, 66, 67
1, 18092, Note_on_c, 0, 66, 0
1, 18092, Note_on_c, 0, 68, 72
1, 18155, Note_on_c, 0, 68, 0
1, 18156, Note_on_c, 0, 66, 67
1, 18217, Note_on_c, 0, 66, 0
1, 18218, Note_on_c, 0, 65, 67
1, 18281, Note_on_c, 0, 65, 0
1, 18281, Note_on_c, 0, 68, 72
1, 18343, Note_on_c, 0, 68, 0
1, 18344, Note_on_c, 0, 66, 67
1, 18406, Note_on_c, 0, 66, 0
1, 18406, Note_on_c, 0, 65, 67
1, 18468, Note_on_c, 0, 71, 72
1, 18530, Note_on_c, 0, 71, 0
1, 18531, Note_on_c, 0, 73, 72
1, 18593, Note_on_c, 0, 73, 0
1, 18593, Note_on_c, 0, 71, 72
1, 18654, Note_on_c, 0, 71, 0
1, 18655, Note_on_c, 0, 73, 72
1, 18718, Note_on_c, 0, 73, 0
1, 18718, Note_on_c, 0, 74, 72
1, 18780, Note_on_c, 0, 74, 0
1, 18780, Note_on_c, 0, 71, 72
1, 18842, Note_on_c, 0, 71, 0
1, 18843, Note_on_c, 0, 73, 72
1, 18906, Note_on_c, 0, 73, 0
1, 18906, Note_on_c, 0, 74, 72
1, 18969, Note_on_c, 0, 74, 0
1, 18970, Note_on_c, 0, 65, 0
1, 18970, Note_on_c, 0, 56, 0
1, 18971, Note_on_c, 0, 59, 0
1, 18971, Note_on_c, 0, 69, 72
1, 18972, Note_on_c, 0, 54, 67
1, 18972, Note_on_c, 0, 66, 67
1, 19032, Note_on_c, 0, 64, 67
1, 19082, Note_on_c, 0, 66, 0
1, 19095, Note_on_c, 0, 64, 0
1, 19095, Note_on_c, 0, 66, 67
1, 19159, Note_on_c, 0, 66, 0
1, 19160, Note_on_c, 0, 64, 67
1, 19223, Note_on_c, 0, 64, 0
1, 19224, Note_on_c, 0, 69, 0
1, 19224, Note_on_c, 0, 68, 72
1, 19224, Note_on_c, 0, 71, 72
1, 19224, Note_on_c, 0, 63, 67
1, 19287, Note_on_c, 0, 63, 0
1, 19287, Note_on_c, 0, 66, 67
1, 19351, Note_on_c, 0, 66, 0
1, 19351, Note_on_c, 0, 64, 67
1, 19414, Note_on_c, 0, 64, 0
1, 19415, Note_on_c, 0, 63, 67
1, 19476, Note_on_c, 0, 63, 0
1, 19476, Note_on_c, 0, 68, 0
1, 19477, Note_on_c, 0, 71, 0
1, 19478, Note_on_c, 0, 73, 72
1, 19478, Note_on_c, 0, 70, 72
1, 19540, Note_on_c, 0, 61, 67
1, 19603, Note_on_c, 0, 61, 0
1, 19604, Note_on_c, 0, 63, 67
1, 19666, Note_on_c, 0, 63, 0
1, 19666, Note_on_c, 0, 61, 67
1, 19728, Note_on_c, 0, 61, 0
1, 19728, Note_on_c, 0, 73, 0
1, 19729, Note_on_c, 0, 70, 0
1, 19729, Note_on_c, 0, 71, 72
1, 19729, Note_on_c, 0, 75, 72
1, 19730, Note_on_c, 0, 59, 67
1, 19791, Note_on_c, 0, 59, 0
1, 19792, Note_on_c, 0, 63, 67
1, 19854, Note_on_c, 0, 63, 0
1, 19854, Note_on_c, 0, 61, 67
1, 19916, Note_on_c, 0, 61, 0
1, 19917, Note_on_c, 0, 59, 67
1, 19979, Note_on_c, 0, 59, 0
1, 19979, Note_on_c, 0, 71, 0
1, 19980, Note_on_c, 0, 75, 0
1, 19980, Note_on_c, 0, 73, 70
1, 19980, Note_on_c, 0, 57, 67
1, 20032, Note_on_c, 0, 54, 0
1, 20043, Note_on_c, 0, 76, 70
1, 20043, Note_on_c, 0, 54, 67
1, 20106, Note_on_c, 0, 54, 0
1, 20107, Note_on_c, 0, 76, 0
1, 20107, Note_on_c, 0, 78, 70
1, 20108, Note_on_c, 0, 52, 67
1, 20171, Note_on_c, 0, 52, 0
1, 20171, Note_on_c, 0, 78, 0
1, 20172, Note_on_c, 0, 76, 70
1, 20172, Note_on_c, 0, 54, 67
1, 20234, Note_on_c, 0, 54, 0
1, 20234, Note_on_c, 0, 76, 0
1, 20235, Note_on_c, 0, 57, 0
1, 20235, Note_on_c, 0, 73, 0
1, 20236, Note_on_c, 0, 71, 70
1, 20236, Note_on_c, 0, 75, 70
1, 20237, Note_on_c, 0, 59, 67
1, 20237, Note_on_c, 0, 56, 67
1, 20299, Note_on_c, 0, 56, 0
1, 20300, Note_on_c, 0, 75, 0
1, 20300, Note_on_c, 0, 78, 70
1, 20301, Note_on_c, 0, 52, 67
1, 20364, Note_on_c, 0, 52, 0
1, 20364, Note_on_c, 0, 78, 0
1, 20364, Note_on_c, 0, 76, 70
1, 20365, Note_on_c, 0, 54, 67
1, 20427, Note_on_c, 0, 54, 0
1, 20427, Note_on_c, 0, 76, 0
1, 20428, Note_on_c, 0, 75, 70
1, 20428, Note_on_c, 0, 56, 67
1, 20490, Note_on_c, 0, 56, 0
1, 20491, Note_on_c, 0, 75, 0
1, 20491, Note_on_c, 0, 59, 0
1, 20492, Note_on_c, 0, 71, 0
1, 20492, Note_on_c, 0, 73, 70
1, 20493, Note_on_c, 0, 54, 67
1, 20493, Note_on_c, 0, 46, 77
1, 20555, Note_on_c, 0, 64, 67
1, 20617, Note_on_c, 0, 64, 0
1, 20617, Note_on_c, 0, 66, 67
1, 20680, Note_on_c, 0, 66, 0
1, 20681, Note_on_c, 0, 64, 67
1, 20745, Note_on_c, 0, 64, 0
1, 20745, Note_on_c, 0, 46, 0
1, 20746, Note_on_c, 0, 73, 0
1, 20746, Note_on_c, 0, 71, 70
1, 20747, Note_on_c, 0, 63, 67
1, 20747, Note_on_c, 0, 47, 77
1, 20810, Note_on_c, 0, 63, 0
1, 20810, Note_on_c, 0, 66, 67
1, 20876, Note_on_c, 0, 66, 0
1, 20877, Note_on_c, 0, 64, 67
1, 20941, Note_on_c, 0, 64, 0
1, 20942, Note_on_c, 0, 63, 67
1, 21006, Note_on_c, 0, 63, 0
1, 21006, Note_on_c, 0, 47, 0
1, 21007, Note_on_c, 0, 61, 67
1, 21007, Note_on_c, 0, 42, 77
1, 21071, Note_on_c, 0, 54, 0
1, 21072, Note_on_c, 0, 51, 67
1, 21137, Note_on_c, 0, 51, 0
1, 21138, Note_on_c, 0, 49, 67
1, 21196, Note_on_c, 0, 49, 0
1, 21203, Note_on_c, 0, 51, 67
1, 21261, Note_on_c, 0, 51, 0
1, 21268, Note_on_c, 0, 71, 0
1, 21268, Note_on_c, 0, 70, 72
1, 21269, Note_on_c, 0, 66, 67
1, 21269, Note_on_c, 0, 52, 67
1, 21326, Note_on_c, 0, 52, 0
1, 21333, Note_on_c, 0, 49, 67
1, 21390, Note_on_c, 0, 49, 0
1, 21396, Note_on_c, 0, 51, 67
1, 21454, Note_on_c, 0, 51, 0
1, 21461, Note_on_c, 0, 52, 67
1, 21522, Note_on_c, 0, 66, 0
1, 21523, Note_on_c, 0, 61, 0
1, 21524, Note_on_c, 0, 52, 0
1, 21533, Note_on_c, 0, 70, 0
1, 21533, Note_on_c, 0, 42, 0
1, 21534, Note_on_c, 0, 71, 48
1, 21534, Note_on_c, 0, 51, 29
1, 21535, Note_on_c, 0, 66, 33
1, 21535, Note_on_c, 0, 59, 29
1, 21536, Note_on_c, 0, 47, 62
1, 22563, Note_on_c, 0, 47, 0
1, 22564, Note_on_c, 0, 66, 0
1, 22564, Note_on_c, 0, 59, 0
1, 22565, Note_on_c, 0, 51, 0
1, 22565, Note_on_c, 0, 71, 0
1, 22632, Marker_t, "Copyright 1997 (P) S.D.Rodrian -  NOT to be reproduced or sold sans permission !"
1, 23162, Note_on_c, 0, 59, 67
1, 23319, Note_on_c, 0, 59, 0
1, 23319, Note_on_c, 0, 58, 67
1, 23468, Note_on_c, 0, 58, 0
1, 23468, Note_on_c, 0, 59, 67
1, 23610, Note_on_c, 0, 59, 0
1, 23611, Note_on_c, 0, 61, 67
1, 23893, Note_on_c, 0, 61, 0
1, 23894, Note_on_c, 0, 54, 67
1, 24037, Note_on_c, 0, 54, 0
1, 24037, Note_on_c, 0, 56, 67
1, 24108, Note_on_c, 0, 56, 0
1, 24109, Note_on_c, 0, 58, 67
1, 24178, Note_on_c, 0, 58, 0
1, 24178, Note_on_c, 0, 59, 67
1, 24314, Note_on_c, 0, 59, 0
1, 24314, Note_on_c, 0, 61, 67
1, 24382, Note_on_c, 0, 61, 0
1, 24383, Note_on_c, 0, 63, 67
1, 24449, Note_on_c, 0, 63, 0
1, 24450, Note_on_c, 0, 64, 67
1, 24585, Note_on_c, 0, 64, 0
1, 24585, Note_on_c, 0, 63, 67
1, 24711, Note_on_c, 0, 63, 0
1, 24724, Note_on_c, 0, 63, 52
1, 24753, Note_on_c, 0, 63, 0
1, 24753, Note_on_c, 0, 61, 52
1, 24781, Note_on_c, 0, 63, 52
1, 24785, Note_on_c, 0, 61, 0
1, 24810, Note_on_c, 0, 61, 52
1, 24814, Note_on_c, 0, 63, 0
1, 24838, Note_on_c, 0, 63, 53
1, 24842, Note_on_c, 0, 61, 0
1, 24866, Note_on_c, 0, 61, 53
1, 24869, Note_on_c, 0, 63, 0
1, 24893, Note_on_c, 0, 63, 53
1, 24897, Note_on_c, 0, 61, 0
1, 24919, Note_on_c, 0, 61, 53
1, 24922, Note_on_c, 0, 63, 0
1, 24944, Note_on_c, 0, 63, 53
1, 24948, Note_on_c, 0, 61, 0
1, 24970, Note_on_c, 0, 61, 53
1, 24973, Note_on_c, 0, 63, 0
1, 24996, Note_on_c, 0, 63, 53
1, 24999, Note_on_c, 0, 61, 0
1, 25020, Note_on_c, 0, 61, 53
1, 25024, Note_on_c, 0, 63, 0
1, 25046, Note_on_c, 0, 63, 53
1, 25049, Note_on_c, 0, 61, 0
1, 25071, Note_on_c, 0, 61, 53
1, 25074, Note_on_c, 0, 63, 0
1, 25096, Note_on_c, 0, 63, 56
1, 25100, Note_on_c, 0, 61, 0
1, 25121, Note_on_c, 0, 61, 56
1, 25125, Note_on_c, 0, 63, 0
1, 25145, Note_on_c, 0, 63, 56
1, 25149, Note_on_c, 0, 61, 0
1, 25170, Note_on_c, 0, 61, 58
1, 25173, Note_on_c, 0, 63, 0
1, 25194, Note_on_c, 0, 63, 58
1, 25198, Note_on_c, 0, 61, 0
1, 25218, Note_on_c, 0, 61, 58
1, 25222, Note_on_c, 0, 63, 0
1, 25242, Note_on_c, 0, 63, 58
1, 25245, Note_on_c, 0, 61, 0
1, 25265, Note_on_c, 0, 61, 58
1, 25269, Note_on_c, 0, 63, 0
1, 25288, Note_on_c, 0, 63, 58
1, 25292, Note_on_c, 0, 61, 0
1, 25311, Note_on_c, 0, 61, 64
1, 25315, Note_on_c, 0, 63, 0
1, 25335, Note_on_c, 0, 61, 0
1, 25336, Note_on_c, 0, 59, 67
1, 25476, Note_on_c, 0, 66, 67
1, 25618, Note_on_c, 0, 66, 0
1, 25618, Note_on_c, 0, 63, 67
1, 25758, Note_on_c, 0, 63, 0
1, 25758, Note_on_c, 0, 59, 0
1, 25759, Note_on_c, 0, 61, 67
1, 25759, Note_on_c, 0, 64, 67
1, 25827, Note_on_c, 0, 61, 0
1, 25827, Note_on_c, 0, 59, 67
1, 25896, Note_on_c, 0, 59, 0
1, 25896, Note_on_c, 0, 64, 0
1, 25897, Note_on_c, 0, 66, 67
1, 25897, Note_on_c, 0, 58, 67
1, 25965, Note_on_c, 0, 58, 0
1, 25966, Note_on_c, 0, 56, 67
1, 26034, Note_on_c, 0, 56, 0
1, 26035, Note_on_c, 0, 54, 67
1, 26104, Note_on_c, 0, 54, 0
1, 26105, Note_on_c, 0, 52, 67
1, 26174, Note_on_c, 0, 52, 0
1, 26174, Note_on_c, 0, 66, 0
1, 26174, Note_on_c, 0, 51, 67
1, 26175, Note_on_c, 0, 59, 67
1, 26313, Note_on_c, 0, 59, 0
1, 26313, Note_on_c, 0, 51, 0
1, 26314, Note_on_c, 0, 59, 67
1, 26314, Note_on_c, 0, 63, 67
1, 26383, Note_on_c, 0, 63, 0
1, 26383, Note_on_c, 0, 65, 67
1, 26453, Note_on_c, 0, 65, 0
1, 26453, Note_on_c, 0, 59, 0
1, 26454, Note_on_c, 0, 58, 67
1, 26455, Note_on_c, 0, 66, 67
1, 26592, Note_on_c, 0, 66, 0
1, 26592, Note_on_c, 0, 58, 0
1, 26592, Note_on_c, 0, 68, 72
1, 26593, Note_on_c, 0, 59, 67
1, 26659, Note_on_c, 0, 59, 0
1, 26659, Note_on_c, 0, 68, 0
1, 26659, Note_on_c, 0, 70, 72
1, 26660, Note_on_c, 0, 61, 67
1, 26726, Note_on_c, 0, 61, 0
1, 26726, Note_on_c, 0, 70, 0
1, 26727, Note_on_c, 0, 71, 72
1, 26727, Note_on_c, 0, 63, 67
1, 26793, Note_on_c, 0, 63, 0
1, 26794, Note_on_c, 0, 65, 67
1, 26859, Note_on_c, 0, 65, 0
1, 26860, Note_on_c, 0, 71, 0
1, 26860, Note_on_c, 0, 70, 72
1, 26861, Note_on_c, 0, 66, 67
1, 26986, Note_on_c, 0, 70, 0
1, 27000, Note_on_c, 0, 70, 59
1, 27025, Note_on_c, 0, 70, 0
1, 27026, Note_on_c, 0, 68, 59
1, 27051, Note_on_c, 0, 70, 59
1, 27055, Note_on_c, 0, 68, 0
1, 27077, Note_on_c, 0, 68, 59
1, 27081, Note_on_c, 0, 70, 0
1, 27103, Note_on_c, 0, 70, 59
1, 27107, Note_on_c, 0, 68, 0
1, 27128, Note_on_c, 0, 68, 59
1, 27132, Note_on_c, 0, 70, 0
1, 27154, Note_on_c, 0, 66, 0
1, 27155, Note_on_c, 0, 70, 59
1, 27155, Note_on_c, 0, 64, 67
1, 27158, Note_on_c, 0, 68, 0
1, 27179, Note_on_c, 0, 68, 59
1, 27182, Note_on_c, 0, 70, 0
1, 27204, Note_on_c, 0, 70, 59
1, 27207, Note_on_c, 0, 68, 0
1, 27228, Note_on_c, 0, 64, 0
1, 27228, Note_on_c, 0, 68, 59
1, 27229, Note_on_c, 0, 63, 67
1, 27231, Note_on_c, 0, 70, 0
1, 27252, Note_on_c, 0, 70, 59
1, 27256, Note_on_c, 0, 68, 0
1, 27277, Note_on_c, 0, 68, 59
1, 27281, Note_on_c, 0, 70, 0
1, 27301, Note_on_c, 0, 63, 0
1, 27301, Note_on_c, 0, 70, 59
1, 27302, Note_on_c, 0, 64, 67
1, 27305, Note_on_c, 0, 68, 0
1, 27325, Note_on_c, 0, 68, 59
1, 27329, Note_on_c, 0, 70, 0
1, 27350, Note_on_c, 0, 70, 62
1, 27353, Note_on_c, 0, 68, 0
1, 27374, Note_on_c, 0, 64, 0
1, 27374, Note_on_c, 0, 68, 62
1, 27375, Note_on_c, 0, 59, 67
1, 27377, Note_on_c, 0, 70, 0
1, 27397, Note_on_c, 0, 70, 62
1, 27401, Note_on_c, 0, 68, 0
1, 27421, Note_on_c, 0, 68, 62
1, 27424, Note_on_c, 0, 70, 0
1, 27444, Note_on_c, 0, 59, 0
1, 27444, Note_on_c, 0, 70, 62
1, 27445, Note_on_c, 0, 64, 67
1, 27448, Note_on_c, 0, 68, 0
1, 27468, Note_on_c, 0, 68, 62
1, 27471, Note_on_c, 0, 70, 0
1, 27491, Note_on_c, 0, 70, 62
1, 27495, Note_on_c, 0, 68, 0
1, 27504, Marker_t, "This file may be freely distributed on the WWW, as long as it's not modified. SDR"
1, 27515, Note_on_c, 0, 68, 62
1, 27518, Note_on_c, 0, 70, 0
1, 27538, Note_on_c, 0, 70, 62
1, 27542, Note_on_c, 0, 68, 0
1, 27562, Note_on_c, 0, 68, 60
1, 27566, Note_on_c, 0, 70, 0
1, 27585, Note_on_c, 0, 68, 0
1, 27586, Note_on_c, 0, 66, 67
1, 27722, Note_on_c, 0, 64, 0
1, 27723, Note_on_c, 0, 71, 72
1, 27723, Note_on_c, 0, 63, 67
1, 27862, Note_on_c, 0, 63, 0
1, 27862, Note_on_c, 0, 71, 0
1, 27863, Note_on_c, 0, 66, 0
1, 27863, Note_on_c, 0, 70, 72
1, 27864, Note_on_c, 0, 61, 67
1, 28002, Note_on_c, 0, 61, 0
1, 28002, Note_on_c, 0, 70, 0
1, 28003, Note_on_c, 0, 71, 72
1, 28003, Note_on_c, 0, 68, 72
1, 28004, Note_on_c, 0, 59, 67
1, 28070, Note_on_c, 0, 68, 0
1, 28070, Note_on_c, 0, 66, 67
1, 28137, Note_on_c, 0, 66, 0
1, 28138, Note_on_c, 0, 71, 0
1, 28138, Note_on_c, 0, 73, 72
1, 28139, Note_on_c, 0, 64, 67
1, 28205, Note_on_c, 0, 64, 0
1, 28206, Note_on_c, 0, 63, 67
1, 28273, Note_on_c, 0, 63, 0
1, 28274, Note_on_c, 0, 59, 0
1, 28274, Note_on_c, 0, 58, 67
1, 28275, Note_on_c, 0, 61, 67
1, 28342, Note_on_c, 0, 61, 0
1, 28342, Note_on_c, 0, 58, 0
1, 28343, Note_on_c, 0, 56, 67
1, 28343, Note_on_c, 0, 59, 67
1, 28409, Note_on_c, 0, 59, 0
1, 28409, Note_on_c, 0, 56, 0
1, 28410, Note_on_c, 0, 73, 0
1, 28410, Note_on_c, 0, 66, 67
1, 28411, Note_on_c, 0, 58, 67
1, 28546, Note_on_c, 0, 58, 0
1, 28547, Note_on_c, 0, 66, 0
1, 28547, Note_on_c, 0, 68, 72
1, 28548, Note_on_c, 0, 63, 67
1, 28548, Note_on_c, 0, 66, 67
1, 28615, Note_on_c, 0, 68, 0
1, 28616, Note_on_c, 0, 70, 72
1, 28683, Note_on_c, 0, 70, 0
1, 28684, Note_on_c, 0, 66, 0
1, 28684, Note_on_c, 0, 63, 0
1, 28685, Note_on_c, 0, 71, 72
1, 28685, Note_on_c, 0, 63, 67
1, 28686, Note_on_c, 0, 56, 67
1, 28820, Note_on_c, 0, 63, 0
1, 28821, Note_on_c, 0, 71, 0
1, 28821, Note_on_c, 0, 73, 72
1, 28821, Note_on_c, 0, 64, 67
1, 28887, Note_on_c, 0, 64, 0
1, 28888, Note_on_c, 0, 73, 0
1, 28888, Note_on_c, 0, 75, 72
1, 28888, Note_on_c, 0, 66, 67
1, 28955, Note_on_c, 0, 66, 0
1, 28955, Note_on_c, 0, 75, 0
1, 28956, Note_on_c, 0, 56, 0
1, 28956, Note_on_c, 0, 76, 72
1, 28956, Note_on_c, 0, 68, 72
1, 29022, Note_on_c, 0, 68, 0
1, 29022, Note_on_c, 0, 70, 72
1, 29089, Note_on_c, 0, 70, 0
1, 29089, Note_on_c, 0, 76, 0
1, 29090, Note_on_c, 0, 71, 72
1, 29090, Note_on_c, 0, 75, 72
1, 29091, Note_on_c, 0, 68, 72
1, 29156, Note_on_c, 0, 68, 0
1, 29157, Note_on_c, 0, 66, 67
1, 29223, Note_on_c, 0, 66, 0
1, 29224, Note_on_c, 0, 75, 0
1, 29224, Note_on_c, 0, 73, 72
1, 29225, Note_on_c, 0, 64, 67
1, 29357, Note_on_c, 0, 64, 0
1, 29357, Note_on_c, 0, 71, 0
1, 29358, Note_on_c, 0, 70, 72
1, 29358, Note_on_c, 0, 61, 67
1, 29424, Note_on_c, 0, 70, 0
1, 29424, Note_on_c, 0, 68, 72
1, 29490, Note_on_c, 0, 68, 0
1, 29491, Note_on_c, 0, 61, 0
1, 29491, Note_on_c, 0, 70, 72
1, 29557, Note_on_c, 0, 70, 0
1, 29558, Note_on_c, 0, 71, 72
1, 29624, Note_on_c, 0, 71, 0
1, 29624, Note_on_c, 0, 70, 72
1, 29625, Note_on_c, 0, 66, 67
1, 29691, Note_on_c, 0, 66, 0
1, 29691, Note_on_c, 0, 70, 0
1, 29692, Note_on_c, 0, 68, 72
1, 29692, Note_on_c, 0, 64, 67
1, 29757, Note_on_c, 0, 64, 0
1, 29758, Note_on_c, 0, 68, 0
1, 29758, Note_on_c, 0, 66, 67
1, 29759, Note_on_c, 0, 63, 67
1, 29892, Note_on_c, 0, 63, 0
1, 29892, Note_on_c, 0, 73, 0
1, 29892, Note_on_c, 0, 71, 72
1, 29893, Note_on_c, 0, 54, 67
1, 29893, Note_on_c, 0, 61, 67
1, 29959, Note_on_c, 0, 71, 0
1, 29959, Note_on_c, 0, 70, 72
1, 30026, Note_on_c, 0, 70, 0
1, 30026, Note_on_c, 0, 54, 0
1, 30027, Note_on_c, 0, 61, 0
1, 30027, Note_on_c, 0, 71, 72
1, 30028, Note_on_c, 0, 59, 67
1, 30028, Note_on_c, 0, 51, 67
1, 30161, Note_on_c, 0, 51, 0
1, 30162, Note_on_c, 0, 59, 0
1, 30162, Note_on_c, 0, 71, 0
1, 30163, Note_on_c, 0, 66, 0
1, 30163, Note_on_c, 0, 73, 72
1, 30164, Note_on_c, 0, 56, 67
1, 30164, Note_on_c, 0, 64, 67
1, 30165, Note_on_c, 0, 52, 67
1, 30228, Note_on_c, 0, 73, 0
1, 30229, Note_on_c, 0, 71, 72
1, 30296, Note_on_c, 0, 71, 0
1, 30296, Note_on_c, 0, 52, 0
1, 30297, Note_on_c, 0, 56, 0
1, 30297, Note_on_c, 0, 70, 72
1, 30298, Note_on_c, 0, 54, 67
1, 30363, Note_on_c, 0, 70, 0
1, 30363, Note_on_c, 0, 68, 72
1, 30430, Note_on_c, 0, 68, 0
1, 30431, Note_on_c, 0, 64, 0
1, 30431, Note_on_c, 0, 66, 67
1, 30432, Note_on_c, 0, 63, 67
1, 30497, Note_on_c, 0, 63, 0
1, 30498, Note_on_c, 0, 66, 0
1, 30498, Note_on_c, 0, 64, 67
1, 30499, Note_on_c, 0, 61, 67
1, 30565, Note_on_c, 0, 61, 0
1, 30566, Note_on_c, 0, 64, 0
1, 30566, Note_on_c, 0, 54, 0
1, 30567, Note_on_c, 0, 63, 67
1, 30567, Note_on_c, 0, 47, 77
1, 30634, Note_on_c, 0, 64, 67
1, 30702, Note_on_c, 0, 64, 0
1, 30702, Note_on_c, 0, 47, 0
1, 30703, Note_on_c, 0, 63, 0
1, 30703, Note_on_c, 0, 71, 72
1, 30704, Note_on_c, 0, 51, 67
1, 30704, Note_on_c, 0, 66, 67
1, 30771, Note_on_c, 0, 66, 0
1, 30771, Note_on_c, 0, 51, 0
1, 30772, Note_on_c, 0, 68, 72
1, 30772, Note_on_c, 0, 53, 67
1, 30839, Note_on_c, 0, 53, 0
1, 30840, Note_on_c, 0, 68, 0
1, 30840, Note_on_c, 0, 71, 0
1, 30840, Note_on_c, 0, 70, 72
1, 30841, Note_on_c, 0, 54, 67
1, 30841, Note_on_c, 0, 61, 67
1, 30974, Note_on_c, 0, 54, 0
1, 30975, Note_on_c, 0, 70, 0
1, 30975, Note_on_c, 0, 71, 72
1, 30976, Note_on_c, 0, 56, 67
1, 31041, Note_on_c, 0, 56, 0
1, 31041, Note_on_c, 0, 71, 0
1, 31042, Note_on_c, 0, 73, 72
1, 31042, Note_on_c, 0, 58, 67
1, 31107, Note_on_c, 0, 58, 0
1, 31107, Note_on_c, 0, 73, 0
1, 31108, Note_on_c, 0, 61, 0
1, 31108, Note_on_c, 0, 75, 72
1, 31109, Note_on_c, 0, 59, 67
1, 31175, Note_on_c, 0, 75, 0
1, 31175, Note_on_c, 0, 77, 72
1, 31240, Note_on_c, 0, 77, 0
1, 31241, Note_on_c, 0, 59, 0
1, 31242, Note_on_c, 0, 78, 72
1, 31242, Note_on_c, 0, 75, 72
1, 31242, Note_on_c, 0, 58, 67
1, 31308, Note_on_c, 0, 75, 0
1, 31308, Note_on_c, 0, 73, 72
1, 31374, Note_on_c, 0, 73, 0
1, 31375, Note_on_c, 0, 58, 0
1, 31375, Note_on_c, 0, 71, 72
1, 31376, Note_on_c, 0, 56, 67
1, 31508, Note_on_c, 0, 71, 0
1, 31508, Note_on_c, 0, 78, 0
1, 31509, Note_on_c, 0, 77, 72
1, 31509, Note_on_c, 0, 68, 72
1, 31575, Note_on_c, 0, 77, 0
1, 31575, Note_on_c, 0, 75, 72
1, 31641, Note_on_c, 0, 75, 0
1, 31642, Note_on_c, 0, 68, 0
1, 31642, Note_on_c, 0, 77, 72
1, 31707, Note_on_c, 0, 75, 72
1, 31775, Note_on_c, 0, 75, 0
1, 31775, Note_on_c, 0, 73, 72
1, 31841, Note_on_c, 0, 73, 0
1, 31841, Note_on_c, 0, 71, 72
1, 31908, Note_on_c, 0, 71, 0
1, 31908, Note_on_c, 0, 77, 0
1, 31909, Note_on_c, 0, 56, 0
1, 31909, Note_on_c, 0, 78, 72
1, 31910, Note_on_c, 0, 70, 72
1, 31910, Note_on_c, 0, 54, 67
1, 32042, Note_on_c, 0, 78, 0
1, 32043, Note_on_c, 0, 73, 72
1, 32110, Note_on_c, 0, 73, 0
1, 32110, Note_on_c, 0, 71, 72
1, 32177, Note_on_c, 0, 71, 0
1, 32177, Note_on_c, 0, 54, 0
1, 32178, Note_on_c, 0, 70, 0
1, 32178, Note_on_c, 0, 73, 72
1, 32243, Note_on_c, 0, 68, 72
1, 32292, Marker_t, "SDRodrian@aol.com  626 Lalor Trenton NJ 08611 http://members.aol.com/sdrodrian"
1, 32309, Note_on_c, 0, 68, 0
1, 32310, Note_on_c, 0, 73, 0
1, 32310, Note_on_c, 0, 75, 72
1, 32311, Note_on_c, 0, 66, 67
1, 32376, Note_on_c, 0, 66, 0
1, 32376, Note_on_c, 0, 64, 67
1, 32442, Note_on_c, 0, 64, 0
1, 32442, Note_on_c, 0, 75, 0
1, 32443, Note_on_c, 0, 72, 72
1, 32443, Note_on_c, 0, 63, 67
1, 32574, Note_on_c, 0, 56, 67
1, 32640, Note_on_c, 0, 56, 0
1, 32641, Note_on_c, 0, 57, 67
1, 32706, Note_on_c, 0, 57, 0
1, 32706, Note_on_c, 0, 63, 0
1, 32707, Note_on_c, 0, 72, 0
1, 32707, Note_on_c, 0, 73, 72
1, 32708, Note_on_c, 0, 64, 67
1, 32708, Note_on_c, 0, 56, 67
1, 32772, Note_on_c, 0, 56, 0
1, 32772, Note_on_c, 0, 54, 67
1, 32838, Note_on_c, 0, 54, 0
1, 32839, Note_on_c, 0, 64, 0
1, 32839, Note_on_c, 0, 73, 0
1, 32840, Note_on_c, 0, 75, 72
1, 32840, Note_on_c, 0, 66, 67
1, 32841, Note_on_c, 0, 52, 67
1, 32904, Note_on_c, 0, 52, 0
1, 32905, Note_on_c, 0, 51, 67
1, 32972, Note_on_c, 0, 51, 0
1, 32972, Note_on_c, 0, 66, 0
1, 32973, Note_on_c, 0, 75, 0
1, 32973, Note_on_c, 0, 76, 72
1, 32974, Note_on_c, 0, 68, 72
1, 32974, Note_on_c, 0, 49, 67
1, 33039, Note_on_c, 0, 76, 0
1, 33039, Note_on_c, 0, 75, 72
1, 33106, Note_on_c, 0, 75, 0
1, 33107, Note_on_c, 0, 49, 0
1, 33107, Note_on_c, 0, 76, 72
1, 33108, Note_on_c, 0, 61, 67
1, 33173, Note_on_c, 0, 76, 0
1, 33174, Note_on_c, 0, 78, 72
1, 33241, Note_on_c, 0, 78, 0
1, 33241, Note_on_c, 0, 61, 0
1, 33241, Note_on_c, 0, 76, 72
1, 33242, Note_on_c, 0, 63, 67
1, 33308, Note_on_c, 0, 76, 0
1, 33308, Note_on_c, 0, 75, 72
1, 33375, Note_on_c, 0, 75, 0
1, 33375, Note_on_c, 0, 63, 0
1, 33376, Note_on_c, 0, 73, 72
1, 33376, Note_on_c, 0, 64, 67
1, 33443, Note_on_c, 0, 73, 0
1, 33443, Note_on_c, 0, 71, 72
1, 33511, Note_on_c, 0, 71, 0
1, 33511, Note_on_c, 0, 64, 0
1, 33511, Note_on_c, 0, 70, 72
1, 33512, Note_on_c, 0, 66, 67
1, 33644, Note_on_c, 0, 66, 0
1, 33645, Note_on_c, 0, 68, 0
1, 33645, Note_on_c, 0, 54, 67
1, 33645, Note_on_c, 0, 61, 67
1, 33711, Note_on_c, 0, 54, 0
1, 33712, Note_on_c, 0, 56, 67
1, 33778, Note_on_c, 0, 56, 0
1, 33778, Note_on_c, 0, 61, 0
1, 33779, Note_on_c, 0, 70, 0
1, 33779, Note_on_c, 0, 71, 72
1, 33779, Note_on_c, 0, 63, 67
1, 33780, Note_on_c, 0, 54, 67
1, 33845, Note_on_c, 0, 54, 0
1, 33845, Note_on_c, 0, 52, 67
1, 33911, Note_on_c, 0, 52, 0
1, 33912, Note_on_c, 0, 63, 0
1, 33912, Note_on_c, 0, 71, 0
1, 33912, Note_on_c, 0, 73, 72
1, 33913, Note_on_c, 0, 64, 67
1, 33913, Note_on_c, 0, 51, 67
1, 33978, Note_on_c, 0, 51, 0
1, 33979, Note_on_c, 0, 49, 67
1, 34044, Note_on_c, 0, 49, 0
1, 34045, Note_on_c, 0, 64, 0
1, 34045, Note_on_c, 0, 73, 0
1, 34046, Note_on_c, 0, 75, 72
1, 34046, Note_on_c, 0, 66, 67
1, 34047, Note_on_c, 0, 47, 77
1, 34111, Note_on_c, 0, 47, 0
1, 34111, Note_on_c, 0, 46, 77
1, 34178, Note_on_c, 0, 46, 0
1, 34178, Note_on_c, 0, 66, 0
1, 34179, Note_on_c, 0, 75, 0
1, 34179, Note_on_c, 0, 75, 72
1, 34180, Note_on_c, 0, 71, 72
1, 34180, Note_on_c, 0, 47, 77
1, 34245, Note_on_c, 0, 47, 0
1, 34246, Note_on_c, 0, 49, 67
1, 34312, Note_on_c, 0, 49, 0
1, 34313, Note_on_c, 0, 71, 0
1, 34313, Note_on_c, 0, 75, 0
1, 34314, Note_on_c, 0, 73, 72
1, 34314, Note_on_c, 0, 76, 72
1, 34315, Note_on_c, 0, 47, 77
1, 34380, Note_on_c, 0, 47, 0
1, 34380, Note_on_c, 0, 45, 77
1, 34446, Note_on_c, 0, 45, 0
1, 34446, Note_on_c, 0, 73, 0
1, 34447, Note_on_c, 0, 76, 0
1, 34447, Note_on_c, 0, 78, 72
1, 34448, Note_on_c, 0, 75, 72
1, 34448, Note_on_c, 0, 44, 77
1, 34512, Note_on_c, 0, 44, 0
1, 34512, Note_on_c, 0, 42, 77
1, 34578, Note_on_c, 0, 42, 0
1, 34579, Note_on_c, 0, 75, 0
1, 34579, Note_on_c, 0, 78, 0
1, 34580, Note_on_c, 0, 80, 72
1, 34580, Note_on_c, 0, 76, 72
1, 34581, Note_on_c, 0, 40, 77
1, 34644, Note_on_c, 0, 80, 0
1, 34645, Note_on_c, 0, 81, 72
1, 34710, Note_on_c, 0, 81, 0
1, 34710, Note_on_c, 0, 40, 0
1, 34711, Note_on_c, 0, 76, 0
1, 34711, Note_on_c, 0, 80, 72
1, 34712, Note_on_c, 0, 59, 67
1, 34775, Note_on_c, 0, 80, 0
1, 34776, Note_on_c, 0, 78, 72
1, 34841, Note_on_c, 0, 78, 0
1, 34842, Note_on_c, 0, 59, 0
1, 34842, Note_on_c, 0, 76, 72
1, 34843, Note_on_c, 0, 58, 67
1, 34908, Note_on_c, 0, 76, 0
1, 34908, Note_on_c, 0, 75, 72
1, 34974, Note_on_c, 0, 75, 0
1, 34974, Note_on_c, 0, 58, 0
1, 34975, Note_on_c, 0, 73, 72
1, 34975, Note_on_c, 0, 59, 67
1, 35041, Note_on_c, 0, 73, 0
1, 35041, Note_on_c, 0, 71, 72
1, 35109, Note_on_c, 0, 71, 0
1, 35109, Note_on_c, 0, 59, 0
1, 35110, Note_on_c, 0, 70, 72
1, 35110, Note_on_c, 0, 61, 67
1, 35245, Note_on_c, 0, 70, 0
1, 35246, Note_on_c, 0, 71, 72
1, 35246, Note_on_c, 0, 52, 67
1, 35314, Note_on_c, 0, 71, 0
1, 35314, Note_on_c, 0, 73, 72
1, 35383, Note_on_c, 0, 73, 0
1, 35383, Note_on_c, 0, 52, 0
1, 35384, Note_on_c, 0, 61, 0
1, 35384, Note_on_c, 0, 75, 72
1, 35385, Note_on_c, 0, 54, 67
1, 35385, Note_on_c, 0, 51, 67
1, 35519, Note_on_c, 0, 51, 0
1, 35520, Note_on_c, 0, 54, 0
1, 35520, Note_on_c, 0, 75, 0
1, 35520, Note_on_c, 0, 73, 72
1, 35521, Note_on_c, 0, 66, 67
1, 35521, Note_on_c, 0, 56, 67
1, 35522, Note_on_c, 0, 52, 67
1, 35585, Note_on_c, 0, 52, 0
1, 35586, Note_on_c, 0, 56, 0
1, 35586, Note_on_c, 0, 54, 67
1, 35587, Note_on_c, 0, 58, 67
1, 35653, Note_on_c, 0, 58, 0
1, 35653, Note_on_c, 0, 54, 0
1, 35653, Note_on_c, 0, 66, 0
1, 35654, Note_on_c, 0, 73, 0
1, 35654, Note_on_c, 0, 71, 72
1, 35655, Note_on_c, 0, 59, 67
1, 35655, Note_on_c, 0, 63, 67
1, 35656, Note_on_c, 0, 56, 67
1, 35788, Note_on_c, 0, 63, 0
1, 35788, Note_on_c, 0, 59, 0
1, 35789, Note_on_c, 0, 61, 67
1, 35789, Note_on_c, 0, 64, 67
1, 35856, Note_on_c, 0, 64, 0
1, 35856, Note_on_c, 0, 61, 0
1, 35856, Note_on_c, 0, 63, 67
1, 35856, Note_on_c, 0, 66, 67
1, 35924, Note_on_c, 0, 66, 0
1, 35924, Note_on_c, 0, 63, 0
1, 35925, Note_on_c, 0, 68, 72
1, 35925, Note_on_c, 0, 64, 67
1, 35992, Note_on_c, 0, 68, 0
1, 35992, Note_on_c, 0, 71, 0
1, 35993, Note_on_c, 0, 70, 72
1, 35993, Note_on_c, 0, 73, 72
1, 36060, Note_on_c, 0, 73, 0
1, 36060, Note_on_c, 0, 70, 0
1, 36061, Note_on_c, 0, 56, 0
1, 36061, Note_on_c, 0, 64, 0
1, 36062, Note_on_c, 0, 71, 72
1, 36062, Note_on_c, 0, 75, 72
1, 36062, Note_on_c, 0, 63, 67
1, 36063, Note_on_c, 0, 54, 67
1, 36194, Note_on_c, 0, 54, 0
1, 36195, Note_on_c, 0, 63, 0
1, 36195, Note_on_c, 0, 75, 0
1, 36196, Note_on_c, 0, 76, 72
1, 36196, Note_on_c, 0, 61, 67
1, 36197, Note_on_c, 0, 52, 67
1, 36261, Note_on_c, 0, 76, 0
1, 36261, Note_on_c, 0, 78, 72
1, 36328, Note_on_c, 0, 78, 0
1, 36328, Note_on_c, 0, 71, 0
1, 36329, Note_on_c, 0, 80, 72
1, 36329, Note_on_c, 0, 70, 72
1, 36394, Note_on_c, 0, 70, 0
1, 36395, Note_on_c, 0, 68, 72
1, 36460, Note_on_c, 0, 68, 0
1, 36461, Note_on_c, 0, 52, 0
1, 36461, Note_on_c, 0, 70, 72
1, 36462, Note_on_c, 0, 54, 67
1, 36592, Note_on_c, 0, 80, 0
1, 36592, Note_on_c, 0, 78, 72
1, 36658, Note_on_c, 0, 78, 0
1, 36659, Note_on_c, 0, 76, 72
1, 36723, Note_on_c, 0, 76, 0
1, 36724, Note_on_c, 0, 61, 0
1, 36724, Note_on_c, 0, 54, 0
1, 36725, Note_on_c, 0, 75, 72
1, 36725, Note_on_c, 0, 59, 67
1, 36854, Note_on_c, 0, 59, 0
1, 36854, Note_on_c, 0, 70, 0
1, 36855, Note_on_c, 0, 68, 72
1, 36855, Note_on_c, 0, 47, 77
1, 36920, Note_on_c, 0, 47, 0
1, 36921, Note_on_c, 0, 68, 0
1, 36921, Note_on_c, 0, 67, 67
1, 36922, Note_on_c, 0, 46, 77
1, 36985, Note_on_c, 0, 46, 0
1, 36986, Note_on_c, 0, 67, 0
1, 36986, Note_on_c, 0, 75, 0
1, 36987, Note_on_c, 0, 68, 72
1, 36987, Note_on_c, 0, 47, 77
1, 37052, Note_on_c, 0, 75, 72
1, 37117, Note_on_c, 0, 75, 0
1, 37117, Note_on_c, 0, 47, 0
1, 37118, Note_on_c, 0, 68, 0
1, 37118, Note_on_c, 0, 73, 72
1, 37119, Note_on_c, 0, 70, 72
1, 37119, Note_on_c, 0, 49, 67
1, 37183, Note_on_c, 0, 73, 0
1, 37184, Note_on_c, 0, 71, 72
1, 37249, Note_on_c, 0, 71, 0
1, 37250, Note_on_c, 0, 49, 0
1, 37250, Note_on_c, 0, 70, 0
1, 37251, Note_on_c, 0, 70, 72
1, 37251, Note_on_c, 0, 67, 67
1, 37252, Note_on_c, 0, 51, 67
1, 37380, Marker_t, "1121 Deutz Ave Trenton NJ 08611 http://www.geocities.com/Paris/LeftBank/3214"
1, 37382, Note_on_c, 0, 63, 67
1, 37447, Note_on_c, 0, 63, 0
1, 37448, Note_on_c, 0, 64, 67
1, 37512, Note_on_c, 0, 64, 0
1, 37513, Note_on_c, 0, 51, 0
1, 37513, Note_on_c, 0, 67, 0
1, 37514, Note_on_c, 0, 70, 0
1, 37514, Note_on_c, 0, 71, 72
1, 37515, Note_on_c, 0, 68, 72
1, 37515, Note_on_c, 0, 63, 67
1, 37578, Note_on_c, 0, 63, 0
1, 37578, Note_on_c, 0, 61, 67
1, 37642, Note_on_c, 0, 61, 0
1, 37643, Note_on_c, 0, 68, 0
1, 37643, Note_on_c, 0, 71, 0
1, 37644, Note_on_c, 0, 70, 72
1, 37644, Note_on_c, 0, 73, 72
1, 37644, Note_on_c, 0, 59, 67
1, 37645, Note_on_c, 0, 49, 67
1, 37707, Note_on_c, 0, 59, 0
1, 37708, Note_on_c, 0, 58, 67
1, 37773, Note_on_c, 0, 58, 0
1, 37774, Note_on_c, 0, 49, 0
1, 37774, Note_on_c, 0, 73, 0
1, 37774, Note_on_c, 0, 70, 0
1, 37775, Note_on_c, 0, 75, 72
1, 37776, Note_on_c, 0, 71, 72
1, 37776, Note_on_c, 0, 56, 67
1, 37776, Note_on_c, 0, 47, 77
1, 37839, Note_on_c, 0, 71, 0
1, 37839, Note_on_c, 0, 70, 72
1, 37905, Note_on_c, 0, 70, 0
1, 37905, Note_on_c, 0, 47, 0
1, 37906, Note_on_c, 0, 71, 72
1, 37906, Note_on_c, 0, 44, 77
1, 37970, Note_on_c, 0, 71, 0
1, 37971, Note_on_c, 0, 73, 72
1, 38037, Note_on_c, 0, 73, 0
1, 38038, Note_on_c, 0, 44, 0
1, 38038, Note_on_c, 0, 56, 0
1, 38038, Note_on_c, 0, 71, 72
1, 38039, Note_on_c, 0, 46, 77
1, 38104, Note_on_c, 0, 71, 0
1, 38104, Note_on_c, 0, 70, 72
1, 38171, Note_on_c, 0, 70, 0
1, 38171, Note_on_c, 0, 46, 0
1, 38171, Note_on_c, 0, 68, 72
1, 38172, Note_on_c, 0, 47, 77
1, 38237, Note_on_c, 0, 68, 0
1, 38237, Note_on_c, 0, 66, 67
1, 38303, Note_on_c, 0, 66, 0
1, 38304, Note_on_c, 0, 47, 0
1, 38304, Note_on_c, 0, 49, 67
1, 38304, Note_on_c, 0, 65, 67
1, 38436, Note_on_c, 0, 75, 0
1, 38437, Note_on_c, 0, 68, 72
1, 38437, Note_on_c, 0, 61, 67
1, 38503, Note_on_c, 0, 61, 0
1, 38503, Note_on_c, 0, 63, 67
1, 38568, Note_on_c, 0, 63, 0
1, 38568, Note_on_c, 0, 68, 0
1, 38569, Note_on_c, 0, 65, 0
1, 38569, Note_on_c, 0, 49, 0
1, 38570, Note_on_c, 0, 70, 72
1, 38570, Note_on_c, 0, 66, 67
1, 38571, Note_on_c, 0, 61, 67
1, 38634, Note_on_c, 0, 61, 0
1, 38635, Note_on_c, 0, 59, 67
1, 38700, Note_on_c, 0, 59, 0
1, 38701, Note_on_c, 0, 66, 0
1, 38701, Note_on_c, 0, 70, 0
1, 38702, Note_on_c, 0, 71, 72
1, 38702, Note_on_c, 0, 68, 72
1, 38703, Note_on_c, 0, 58, 67
1, 38703, Note_on_c, 0, 47, 77
1, 38767, Note_on_c, 0, 58, 0
1, 38767, Note_on_c, 0, 56, 67
1, 38833, Note_on_c, 0, 56, 0
1, 38833, Note_on_c, 0, 47, 0
1, 38834, Note_on_c, 0, 68, 0
1, 38834, Note_on_c, 0, 71, 0
1, 38835, Note_on_c, 0, 73, 72
1, 38835, Note_on_c, 0, 70, 72
1, 38836, Note_on_c, 0, 54, 67
1, 38836, Note_on_c, 0, 46, 77
1, 38898, Note_on_c, 0, 54, 0
1, 38899, Note_on_c, 0, 52, 67
1, 38964, Note_on_c, 0, 52, 0
1, 38964, Note_on_c, 0, 73, 0
1, 38964, Note_on_c, 0, 70, 0
1, 38965, Note_on_c, 0, 70, 72
1, 38965, Note_on_c, 0, 61, 67
1, 38966, Note_on_c, 0, 54, 67
1, 39030, Note_on_c, 0, 54, 0
1, 39030, Note_on_c, 0, 56, 67
1, 39095, Note_on_c, 0, 56, 0
1, 39096, Note_on_c, 0, 61, 0
1, 39096, Note_on_c, 0, 70, 0
1, 39096, Note_on_c, 0, 71, 72
1, 39097, Note_on_c, 0, 54, 67
1, 39097, Note_on_c, 0, 63, 67
1, 39160, Note_on_c, 0, 54, 0
1, 39161, Note_on_c, 0, 52, 67
1, 39227, Note_on_c, 0, 52, 0
1, 39227, Note_on_c, 0, 63, 0
1, 39228, Note_on_c, 0, 71, 0
1, 39228, Note_on_c, 0, 73, 72
1, 39228, Note_on_c, 0, 64, 67
1, 39229, Note_on_c, 0, 51, 67
1, 39294, Note_on_c, 0, 51, 0
1, 39294, Note_on_c, 0, 49, 67
1, 39360, Note_on_c, 0, 49, 0
1, 39360, Note_on_c, 0, 64, 0
1, 39361, Note_on_c, 0, 73, 0
1, 39361, Note_on_c, 0, 46, 0
1, 39362, Note_on_c, 0, 75, 72
1, 39362, Note_on_c, 0, 66, 67
1, 39363, Note_on_c, 0, 47, 77
1, 39426, Note_on_c, 0, 46, 77
1, 39492, Note_on_c, 0, 46, 0
1, 39493, Note_on_c, 0, 66, 0
1, 39493, Note_on_c, 0, 66, 67
1, 39494, Note_on_c, 0, 47, 77
1, 39559, Note_on_c, 0, 47, 0
1, 39559, Note_on_c, 0, 49, 67
1, 39625, Note_on_c, 0, 49, 0
1, 39625, Note_on_c, 0, 66, 0
1, 39626, Note_on_c, 0, 47, 0
1, 39626, Note_on_c, 0, 65, 67
1, 39627, Note_on_c, 0, 47, 77
1, 39691, Note_on_c, 0, 47, 0
1, 39692, Note_on_c, 0, 46, 77
1, 39757, Note_on_c, 0, 46, 0
1, 39758, Note_on_c, 0, 65, 0
1, 39758, Note_on_c, 0, 66, 67
1, 39759, Note_on_c, 0, 44, 77
1, 39823, Note_on_c, 0, 44, 0
1, 39823, Note_on_c, 0, 42, 77
1, 39888, Note_on_c, 0, 42, 0
1, 39888, Note_on_c, 0, 66, 0
1, 39889, Note_on_c, 0, 75, 0
1, 39889, Note_on_c, 0, 73, 72
1, 39890, Note_on_c, 0, 68, 72
1, 39890, Note_on_c, 0, 41, 77
1, 40020, Note_on_c, 0, 41, 0
1, 40021, Note_on_c, 0, 59, 67
1, 40021, Note_on_c, 0, 53, 67
1, 40152, Note_on_c, 0, 53, 0
1, 40152, Note_on_c, 0, 59, 0
1, 40153, Note_on_c, 0, 68, 0
1, 40153, Note_on_c, 0, 54, 67
1, 40154, Note_on_c, 0, 61, 67
1, 40154, Note_on_c, 0, 58, 67
1, 40284, Note_on_c, 0, 58, 0
1, 40285, Note_on_c, 0, 61, 0
1, 40285, Note_on_c, 0, 54, 0
1, 40286, Note_on_c, 0, 63, 67
1, 40286, Note_on_c, 0, 53, 67
1, 40287, Note_on_c, 0, 56, 67
1, 40351, Note_on_c, 0, 63, 0
1, 40351, Note_on_c, 0, 65, 67
1, 40417, Note_on_c, 0, 65, 0
1, 40418, Note_on_c, 0, 56, 0
1, 40418, Note_on_c, 0, 53, 0
1, 40418, Note_on_c, 0, 66, 67
1, 40419, Note_on_c, 0, 51, 67
1, 40419, Note_on_c, 0, 54, 67
1, 40548, Note_on_c, 0, 66, 0
1, 40548, Note_on_c, 0, 73, 0
1, 40548, Note_on_c, 0, 71, 72
1, 40549, Note_on_c, 0, 68, 72
1, 40613, Note_on_c, 0, 68, 0
1, 40613, Note_on_c, 0, 71, 0
1, 40614, Note_on_c, 0, 73, 72
1, 40614, Note_on_c, 0, 70, 72
1, 40680, Note_on_c, 0, 70, 0
1, 40680, Note_on_c, 0, 73, 0
1, 40680, Note_on_c, 0, 75, 72
1, 40681, Note_on_c, 0, 71, 72
1, 40745, Note_on_c, 0, 75, 0
1, 40745, Note_on_c, 0, 54, 0
1, 40746, Note_on_c, 0, 77, 72
1, 40746, Note_on_c, 0, 56, 67
1, 40810, Note_on_c, 0, 56, 0
1, 40811, Note_on_c, 0, 77, 0
1, 40811, Note_on_c, 0, 71, 0
1, 40812, Note_on_c, 0, 51, 0
1, 40812, Note_on_c, 0, 78, 72
1, 40812, Note_on_c, 0, 70, 72
1, 40812, Note_on_c, 0, 54, 67
1, 40813, Note_on_c, 0, 49, 67
1, 40875, Note_on_c, 0, 54, 0
1, 40876, Note_on_c, 0, 53, 67
1, 40941, Note_on_c, 0, 53, 0
1, 40941, Note_on_c, 0, 49, 0
1, 40942, Note_on_c, 0, 70, 0
1, 40942, Note_on_c, 0, 68, 72
1, 40943, Note_on_c, 0, 51, 67
1, 40943, Note_on_c, 0, 47, 77
1, 41007, Note_on_c, 0, 51, 0
1, 41007, Note_on_c, 0, 78, 0
1, 41008, Note_on_c, 0, 77, 72
1, 41008, Note_on_c, 0, 49, 67
1, 41072, Note_on_c, 0, 49, 0
1, 41073, Note_on_c, 0, 77, 0
1, 41073, Note_on_c, 0, 47, 0
1, 41074, Note_on_c, 0, 78, 72
1, 41074, Note_on_c, 0, 51, 67
1, 41074, Note_on_c, 0, 44, 77
1, 41137, Note_on_c, 0, 51, 0
1, 41138, Note_on_c, 0, 78, 0
1, 41138, Note_on_c, 0, 80, 72
1, 41139, Note_on_c, 0, 47, 77
1, 41203, Note_on_c, 0, 47, 0
1, 41203, Note_on_c, 0, 80, 0
1, 41204, Note_on_c, 0, 44, 0
1, 41204, Note_on_c, 0, 77, 72
1, 41205, Note_on_c, 0, 49, 67
1, 41268, Note_on_c, 0, 68, 0
1, 41268, Note_on_c, 0, 70, 72
1, 41333, Note_on_c, 0, 70, 0
1, 41334, Note_on_c, 0, 71, 72
1, 41334, Note_on_c, 0, 37, 77
1, 41400, Note_on_c, 0, 77, 0
1, 41400, Note_on_c, 0, 78, 72
1, 41465, Note_on_c, 0, 78, 0
1, 41465, Note_on_c, 0, 37, 0
1, 41466, Note_on_c, 0, 71, 0
1, 41466, Note_on_c, 0, 70, 72
1, 41467, Note_on_c, 0, 78, 72
1, 41467, Note_on_c, 0, 42, 77
1, 41596, Note_on_c, 0, 42, 0
1, 41597, Note_on_c, 0, 78, 0
1, 41597, Note_on_c, 0, 49, 0
1, 41598, Note_on_c, 0, 78, 72
1, 41598, Note_on_c, 0, 54, 67
1, 41662, Note_on_c, 0, 54, 0
1, 41662, Note_on_c, 0, 52, 67
1, 41727, Note_on_c, 0, 52, 0
1, 41727, Note_on_c, 0, 78, 0
1, 41728, Note_on_c, 0, 70, 0
1, 41728, Note_on_c, 0, 80, 72
1, 41729, Note_on_c, 0, 72, 72
1, 41729, Note_on_c, 0, 54, 67
1, 41793, Note_on_c, 0, 54, 0
1, 41794, Note_on_c, 0, 56, 67
1, 41858, Note_on_c, 0, 56, 0
1, 41859, Note_on_c, 0, 72, 0
1, 41859, Note_on_c, 0, 80, 0
1, 41860, Note_on_c, 0, 75, 72
1, 41860, Note_on_c, 0, 78, 72
1, 41861, Note_on_c, 0, 58, 67
1, 41925, Note_on_c, 0, 58, 0
1, 41925, Note_on_c, 0, 60, 67
1, 41989, Note_on_c, 0, 60, 0
1, 41989, Note_on_c, 0, 78, 0
1, 41990, Note_on_c, 0, 76, 72
1, 41990, Note_on_c, 0, 61, 67
1, 42120, Note_on_c, 0, 61, 0
1, 42120, Note_on_c, 0, 75, 0
1, 42120, Note_on_c, 0, 73, 72
1, 42121, Note_on_c, 0, 59, 67
1, 42184, Note_on_c, 0, 59, 0
1, 42184, Note_on_c, 0, 58, 67
1, 42249, Note_on_c, 0, 58, 0
1, 42250, Note_on_c, 0, 73, 0
1, 42250, Note_on_c, 0, 76, 0
1, 42251, Note_on_c, 0, 83, 72
1, 42251, Note_on_c, 0, 56, 67
1, 42315, Note_on_c, 0, 56, 0
1, 42316, Note_on_c, 0, 54, 67
1, 42381, Note_on_c, 0, 54, 0
1, 42381, Note_on_c, 0, 83, 0
1, 42382, Note_on_c, 0, 82, 72
1, 42382, Note_on_c, 0, 56, 67
1, 42447, Note_on_c, 0, 56, 0
1, 42447, Note_on_c, 0, 82, 0
1, 42448, Note_on_c, 0, 80, 72
1, 42448, Note_on_c, 0, 58, 67
1, 42512, Note_on_c, 0, 58, 0
1, 42513, Note_on_c, 0, 80, 0
1, 42513, Note_on_c, 0, 78, 72
1, 42514, Note_on_c, 0, 59, 67
1, 42578, Note_on_c, 0, 63, 67
1, 42644, Note_on_c, 0, 63, 0
1, 42644, Note_on_c, 0, 78, 0
1, 42645, Note_on_c, 0, 76, 72
1, 42645, Note_on_c, 0, 64, 67
1, 42709, Note_on_c, 0, 64, 0
1, 42709, Note_on_c, 0, 76, 0
1, 42710, Note_on_c, 0, 75, 72
1, 42710, Note_on_c, 0, 66, 67
1, 42774, Note_on_c, 0, 66, 0
1, 42775, Note_on_c, 0, 75, 0
1, 42775, Note_on_c, 0, 73, 72
1, 42776, Note_on_c, 0, 68, 72
1, 42840, Note_on_c, 0, 68, 0
1, 42840, Note_on_c, 0, 66, 67
1, 42906, Note_on_c, 0, 66, 0
1, 42907, Note_on_c, 0, 73, 0
1, 42907, Note_on_c, 0, 75, 72
1, 42907, Note_on_c, 0, 64, 67
1, 42972, Note_on_c, 0, 64, 0
1, 42972, Note_on_c, 0, 63, 67
1, 43037, Note_on_c, 0, 63, 0
1, 43037, Note_on_c, 0, 75, 0
1, 43038, Note_on_c, 0, 76, 72
1, 43038, Note_on_c, 0, 61, 67
1, 43092, Note_on_c, 0, 59, 0
1, 43102, Note_on_c, 0, 59, 67
1, 43167, Note_on_c, 0, 59, 0
1, 43168, Note_on_c, 0, 58, 67
1, 43234, Note_on_c, 0, 58, 0
1, 43234, Note_on_c, 0, 56, 67
1, 43299, Note_on_c, 0, 56, 0
1, 43299, Note_on_c, 0, 61, 0
1, 43300, Note_on_c, 0, 73, 72
1, 43300, Note_on_c, 0, 54, 67
1, 43364, Note_on_c, 0, 54, 0
1, 43365, Note_on_c, 0, 52, 67
1, 43428, Note_on_c, 0, 52, 0
1, 43429, Note_on_c, 0, 51, 67
1, 43494, Note_on_c, 0, 51, 0
1, 43494, Note_on_c, 0, 49, 67
1, 43558, Note_on_c, 0, 49, 0
1, 43559, Note_on_c, 0, 76, 0
1, 43559, Note_on_c, 0, 75, 72
1, 43560, Note_on_c, 0, 47, 77
1, 43624, Note_on_c, 0, 47, 0
1, 43625, Note_on_c, 0, 49, 67
1, 43690, Note_on_c, 0, 49, 0
1, 43690, Note_on_c, 0, 73, 0
1, 43691, Note_on_c, 0, 71, 72
1, 43691, Note_on_c, 0, 51, 67
1, 43755, Note_on_c, 0, 51, 0
1, 43755, Note_on_c, 0, 52, 67
1, 43820, Note_on_c, 0, 52, 0
1, 43821, Note_on_c, 0, 71, 0
1, 43821, Note_on_c, 0, 75, 0
1, 43822, Note_on_c, 0, 75, 72
1, 43822, Note_on_c, 0, 54, 67
1, 43885, Note_on_c, 0, 54, 0
1, 43886, Note_on_c, 0, 56, 67
1, 43952, Note_on_c, 0, 56, 0
1, 43952, Note_on_c, 0, 75, 0
1, 43953, Note_on_c, 0, 78, 72
1, 43953, Note_on_c, 0, 73, 72
1, 43954, Note_on_c, 0, 58, 67
1, 44016, Note_on_c, 0, 58, 0
1, 44016, Note_on_c, 0, 54, 67
1, 44081, Note_on_c, 0, 54, 0
1, 44082, Note_on_c, 0, 73, 0
1, 44082, Note_on_c, 0, 71, 72
1, 44083, Note_on_c, 0, 56, 67
1, 44147, Note_on_c, 0, 56, 0
1, 44147, Note_on_c, 0, 78, 0
1, 44148, Note_on_c, 0, 77, 72
1, 44148, Note_on_c, 0, 49, 67
1, 44211, Note_on_c, 0, 49, 0
1, 44211, Note_on_c, 0, 77, 0
1, 44212, Note_on_c, 0, 78, 72
1, 44212, Note_on_c, 0, 51, 67
1, 44276, Note_on_c, 0, 51, 0
1, 44277, Note_on_c, 0, 78, 0
1, 44277, Note_on_c, 0, 80, 72
1, 44278, Note_on_c, 0, 53, 67
1, 44342, Note_on_c, 0, 53, 0
1, 44343, Note_on_c, 0, 80, 0
1, 44343, Note_on_c, 0, 71, 0
1, 44344, Note_on_c, 0, 78, 72
1, 44344, Note_on_c, 0, 82, 72
1, 44345, Note_on_c, 0, 54, 67
1, 44408, Note_on_c, 0, 54, 0
1, 44408, Note_on_c, 0, 82, 0
1, 44409, Note_on_c, 0, 80, 72
1, 44409, Note_on_c, 0, 47, 77
1, 44473, Note_on_c, 0, 47, 0
1, 44473, Note_on_c, 0, 80, 0
1, 44474, Note_on_c, 0, 78, 0
1, 44474, Note_on_c, 0, 77, 72
1, 44475, Note_on_c, 0, 82, 72
1, 44475, Note_on_c, 0, 59, 67
1, 44538, Note_on_c, 0, 82, 0
1, 44539, Note_on_c, 0, 77, 0
1, 44539, Note_on_c, 0, 83, 72
1, 44540, Note_on_c, 0, 75, 72
1, 44604, Note_on_c, 0, 75, 0
1, 44604, Note_on_c, 0, 83, 0
1, 44604, Note_on_c, 0, 73, 72
1, 44605, Note_on_c, 0, 77, 72
1, 44669, Note_on_c, 0, 59, 0
1, 44669, Note_on_c, 0, 58, 67
1, 44733, Note_on_c, 0, 58, 0
1, 44734, Note_on_c, 0, 73, 0
1, 44734, Note_on_c, 0, 71, 72
1, 44735, Note_on_c, 0, 59, 67
1, 44798, Note_on_c, 0, 59, 0
1, 44799, Note_on_c, 0, 71, 0
1, 44799, Note_on_c, 0, 70, 72
1, 44800, Note_on_c, 0, 61, 67
1, 44864, Note_on_c, 0, 61, 0
1, 44864, Note_on_c, 0, 70, 0
1, 44865, Note_on_c, 0, 77, 0
1, 44865, Note_on_c, 0, 78, 72
1, 44866, Note_on_c, 0, 68, 72
1, 44866, Note_on_c, 0, 63, 67
1, 44930, Note_on_c, 0, 63, 0
1, 44930, Note_on_c, 0, 61, 67
1, 44995, Note_on_c, 0, 61, 0
1, 44996, Note_on_c, 0, 68, 0
1, 44996, Note_on_c, 0, 70, 72
1, 44997, Note_on_c, 0, 59, 67
1, 45060, Note_on_c, 0, 59, 0
1, 45060, Note_on_c, 0, 58, 67
1, 45124, Note_on_c, 0, 58, 0
1, 45125, Note_on_c, 0, 70, 0
1, 45125, Note_on_c, 0, 71, 72
1, 45125, Note_on_c, 0, 56, 67
1, 45253, Note_on_c, 0, 78, 0
1, 45254, Note_on_c, 0, 76, 72
1, 45255, Note_on_c, 0, 47, 77
1, 45318, Note_on_c, 0, 76, 0
1, 45319, Note_on_c, 0, 75, 72
1, 45383, Note_on_c, 0, 75, 0
1, 45383, Note_on_c, 0, 47, 0
1, 45384, Note_on_c, 0, 73, 72
1, 45384, Note_on_c, 0, 46, 77
1, 45447, Note_on_c, 0, 73, 0
1, 45447, Note_on_c, 0, 71, 72
1, 45513, Note_on_c, 0, 71, 0
1, 45514, Note_on_c, 0, 46, 0
1, 45514, Note_on_c, 0, 73, 72
1, 45514, Note_on_c, 0, 47, 77
1, 45578, Note_on_c, 0, 73, 0
1, 45579, Note_on_c, 0, 75, 72
1, 45644, Note_on_c, 0, 75, 0
1, 45644, Note_on_c, 0, 47, 0
1, 45645, Note_on_c, 0, 76, 72
1, 45645, Note_on_c, 0, 49, 67
1, 45710, Note_on_c, 0, 76, 0
1, 45710, Note_on_c, 0, 78, 72
1, 45775, Note_on_c, 0, 78, 0
1, 45776, Note_on_c, 0, 56, 0
1, 45776, Note_on_c, 0, 80, 72
1, 45777, Note_on_c, 0, 54, 67
1, 45840, Note_on_c, 0, 54, 0
1, 45841, Note_on_c, 0, 52, 67
1, 45907, Note_on_c, 0, 52, 0
1, 45907, Note_on_c, 0, 49, 0
1, 45908, Note_on_c, 0, 71, 0
1, 45908, Note_on_c, 0, 70, 72
1, 45909, Note_on_c, 0, 54, 67
1, 45909, Note_on_c, 0, 42, 77
1, 45972, Note_on_c, 0, 80, 0
1, 45972, Note_on_c, 0, 80, 72
1, 46038, Note_on_c, 0, 80, 0
1, 46039, Note_on_c, 0, 42, 0
1, 46039, Note_on_c, 0, 70, 0
1, 46040, Note_on_c, 0, 73, 72
1, 46040, Note_on_c, 0, 78, 72
1, 46041, Note_on_c, 0, 44, 77
1, 46104, Note_on_c, 0, 44, 0
1, 46105, Note_on_c, 0, 78, 0
1, 46105, Note_on_c, 0, 76, 72
1, 46106, Note_on_c, 0, 46, 77
1, 46170, Note_on_c, 0, 46, 0
1, 46170, Note_on_c, 0, 76, 0
1, 46171, Note_on_c, 0, 75, 72
1, 46171, Note_on_c, 0, 47, 77
1, 46235, Note_on_c, 0, 73, 0
1, 46236, Note_on_c, 0, 73, 72
1, 46301, Note_on_c, 0, 73, 0
1, 46302, Note_on_c, 0, 47, 0
1, 46302, Note_on_c, 0, 71, 72
1, 46303, Note_on_c, 0, 49, 67
1, 46367, Note_on_c, 0, 49, 0
1, 46367, Note_on_c, 0, 71, 0
1, 46368, Note_on_c, 0, 70, 72
1, 46368, Note_on_c, 0, 51, 67
1, 46432, Note_on_c, 0, 51, 0
1, 46432, Note_on_c, 0, 70, 0
1, 46433, Note_on_c, 0, 54, 0
1, 46433, Note_on_c, 0, 68, 72
1, 46434, Note_on_c, 0, 52, 67
1, 46498, Note_on_c, 0, 75, 0
1, 46499, Note_on_c, 0, 73, 72
1, 46564, Note_on_c, 0, 52, 0
1, 46565, Note_on_c, 0, 68, 0
1, 46565, Note_on_c, 0, 51, 67
1, 46566, Note_on_c, 0, 66, 67
1, 46631, Note_on_c, 0, 73, 0
1, 46631, Note_on_c, 0, 71, 72
1, 46697, Note_on_c, 0, 66, 0
1, 46697, Note_on_c, 0, 51, 0
1, 46698, Note_on_c, 0, 49, 67
1, 46698, Note_on_c, 0, 64, 67
1, 46826, Note_on_c, 0, 71, 0
1, 46827, Note_on_c, 0, 70, 72
1, 46891, Note_on_c, 0, 70, 0
1, 46891, Note_on_c, 0, 71, 72
1, 46955, Note_on_c, 0, 71, 0
1, 46956, Note_on_c, 0, 73, 72
1, 47019, Note_on_c, 0, 73, 0
1, 47020, Note_on_c, 0, 75, 72
1, 47084, Note_on_c, 0, 75, 0
1, 47084, Note_on_c, 0, 76, 72
1, 47149, Note_on_c, 0, 64, 0
1, 47149, Note_on_c, 0, 66, 67
1, 47215, Note_on_c, 0, 66, 0
1, 47215, Note_on_c, 0, 49, 0
1, 47216, Note_on_c, 0, 68, 72
1, 47216, Note_on_c, 0, 47, 77
1, 47280, Note_on_c, 0, 68, 0
1, 47280, Note_on_c, 0, 70, 72
1, 47346, Note_on_c, 0, 70, 0
1, 47347, Note_on_c, 0, 47, 0
1, 47347, Note_on_c, 0, 76, 0
1, 47348, Note_on_c, 0, 71, 72
1, 47348, Note_on_c, 0, 75, 70
1, 47348, Note_on_c, 0, 59, 67
1, 47412, Note_on_c, 0, 59, 0
1, 47412, Note_on_c, 0, 75, 0
1, 47413, Note_on_c, 0, 76, 70
1, 47413, Note_on_c, 0, 61, 67
1, 47478, Note_on_c, 0, 61, 0
1, 47478, Note_on_c, 0, 76, 0
1, 47479, Note_on_c, 0, 78, 68
1, 47479, Note_on_c, 0, 59, 67
1, 47543, Note_on_c, 0, 59, 0
1, 47543, Note_on_c, 0, 78, 0
1, 47544, Note_on_c, 0, 80, 68
1, 47544, Note_on_c, 0, 57, 67
1, 47607, Note_on_c, 0, 57, 0
1, 47608, Note_on_c, 0, 80, 0
1, 47608, Note_on_c, 0, 71, 0
1, 47608, Note_on_c, 0, 81, 70
1, 47609, Note_on_c, 0, 73, 72
1, 47609, Note_on_c, 0, 56, 67
1, 47673, Note_on_c, 0, 56, 0
1, 47673, Note_on_c, 0, 73, 0
1, 47674, Note_on_c, 0, 75, 72
1, 47674, Note_on_c, 0, 54, 67
1, 47739, Note_on_c, 0, 54, 0
1, 47739, Note_on_c, 0, 75, 0
1, 47740, Note_on_c, 0, 76, 72
1, 47740, Note_on_c, 0, 52, 67
1, 47804, Note_on_c, 0, 81, 0
1, 47805, Note_on_c, 0, 80, 72
1, 47869, Note_on_c, 0, 80, 0
1, 47870, Note_on_c, 0, 76, 0
1, 47870, Note_on_c, 0, 81, 72
1, 47870, Note_on_c, 0, 64, 67
1, 47935, Note_on_c, 0, 81, 0
1, 47935, Note_on_c, 0, 80, 72
1, 48001, Note_on_c, 0, 80, 0
1, 48001, Note_on_c, 0, 64, 0
1, 48002, Note_on_c, 0, 52, 0
1, 48002, Note_on_c, 0, 78, 72
1, 48003, Note_on_c, 0, 57, 67
1, 48003, Note_on_c, 0, 63, 67
1, 48067, Note_on_c, 0, 78, 0
1, 48068, Note_on_c, 0, 76, 72
1, 48133, Note_on_c, 0, 76, 0
1, 48134, Note_on_c, 0, 63, 0
1, 48134, Note_on_c, 0, 75, 72
1, 48135, Note_on_c, 0, 64, 67
1, 48199, Note_on_c, 0, 75, 0
1, 48199, Note_on_c, 0, 73, 72
1, 48265, Note_on_c, 0, 73, 0
1, 48265, Note_on_c, 0, 64, 0
1, 48266, Note_on_c, 0, 57, 0
1, 48266, Note_on_c, 0, 72, 72
1, 48267, Note_on_c, 0, 66, 67
1, 48267, Note_on_c, 0, 51, 67
1, 48330, Note_on_c, 0, 51, 0
1, 48331, Note_on_c, 0, 61, 67
1, 48396, Note_on_c, 0, 61, 0
1, 48396, Note_on_c, 0, 72, 0
1, 48396, Note_on_c, 0, 73, 72
1, 48397, Note_on_c, 0, 60, 67
1, 48460, Note_on_c, 0, 60, 0
1, 48460, Note_on_c, 0, 58, 67
1, 48524, Note_on_c, 0, 58, 0
1, 48525, Note_on_c, 0, 73, 0
1, 48525, Note_on_c, 0, 66, 0
1, 48526, Note_on_c, 0, 75, 72
1, 48526, Note_on_c, 0, 60, 67
1, 48527, Note_on_c, 0, 56, 67
1, 48588, Note_on_c, 0, 56, 0
1, 48589, Note_on_c, 0, 54, 67
1, 48653, Note_on_c, 0, 54, 0
1, 48653, Note_on_c, 0, 60, 0
1, 48654, Note_on_c, 0, 52, 67
1, 48654, Note_on_c, 0, 61, 67
1, 48719, Note_on_c, 0, 61, 0
1, 48720, Note_on_c, 0, 52, 0
1, 48720, Note_on_c, 0, 51, 67
1, 48720, Note_on_c, 0, 63, 67
1, 48784, Note_on_c, 0, 63, 0
1, 48785, Note_on_c, 0, 51, 0
1, 48785, Note_on_c, 0, 64, 67
1, 48786, Note_on_c, 0, 49, 67
1, 48850, Note_on_c, 0, 49, 0
1, 48850, Note_on_c, 0, 47, 77
1, 48915, Note_on_c, 0, 47, 0
1, 48915, Note_on_c, 0, 64, 0
1, 48916, Note_on_c, 0, 75, 0
1, 48916, Note_on_c, 0, 73, 72
1, 48917, Note_on_c, 0, 66, 67
1, 48917, Note_on_c, 0, 45, 77
1, 48980, Note_on_c, 0, 45, 0
1, 48981, Note_on_c, 0, 66, 0
1, 48981, Note_on_c, 0, 73, 0
1, 48982, Note_on_c, 0, 72, 72
1, 48982, Note_on_c, 0, 68, 72
1, 48983, Note_on_c, 0, 44, 77
1, 49046, Note_on_c, 0, 44, 0
1, 49047, Note_on_c, 0, 68, 0
1, 49047, Note_on_c, 0, 72, 0
1, 49048, Note_on_c, 0, 73, 72
1, 49048, Note_on_c, 0, 69, 72
1, 49049, Note_on_c, 0, 42, 77
1, 49112, Note_on_c, 0, 42, 0
1, 49112, Note_on_c, 0, 40, 77
1, 49176, Note_on_c, 0, 40, 0
1, 49176, Note_on_c, 0, 69, 0
1, 49177, Note_on_c, 0, 68, 72
1, 49177, Note_on_c, 0, 39, 77
1, 49241, Note_on_c, 0, 39, 0
1, 49242, Note_on_c, 0, 37, 77
1, 49306, Note_on_c, 0, 37, 0
1, 49306, Note_on_c, 0, 68, 0
1, 49307, Note_on_c, 0, 73, 0
1, 49307, Note_on_c, 0, 66, 67
1, 49308, Note_on_c, 0, 39, 77
1, 49371, Note_on_c, 0, 76, 72
1, 49435, Note_on_c, 0, 76, 0
1, 49436, Note_on_c, 0, 39, 0
1, 49436, Note_on_c, 0, 75, 72
1, 49437, Note_on_c, 0, 40, 77
1, 49500, Note_on_c, 0, 40, 0
1, 49500, Note_on_c, 0, 75, 0
1, 49500, Note_on_c, 0, 73, 72
1, 49501, Note_on_c, 0, 42, 77
1, 49564, Note_on_c, 0, 42, 0
1, 49564, Note_on_c, 0, 73, 0
1, 49565, Note_on_c, 0, 71, 72
1, 49565, Note_on_c, 0, 44, 77
1, 49628, Note_on_c, 0, 66, 0
1, 49629, Note_on_c, 0, 69, 72
1, 49694, Note_on_c, 0, 69, 0
1, 49694, Note_on_c, 0, 44, 0
1, 49695, Note_on_c, 0, 68, 72
1, 49695, Note_on_c, 0, 44, 77
1, 49759, Note_on_c, 0, 68, 0
1, 49759, Note_on_c, 0, 66, 67
1, 49824, Note_on_c, 0, 66, 0
1, 49825, Note_on_c, 0, 44, 0
1, 49825, Note_on_c, 0, 71, 0
1, 49825, Note_on_c, 0, 73, 72
1, 49826, Note_on_c, 0, 64, 67
1, 49826, Note_on_c, 0, 37, 77
1, 49952, Note_on_c, 0, 73, 0
1, 49953, Note_on_c, 0, 68, 72
1, 50015, Note_on_c, 0, 68, 0
1, 50016, Note_on_c, 0, 66, 67
1, 50079, Note_on_c, 0, 66, 0
1, 50079, Note_on_c, 0, 37, 0
1, 50080, Note_on_c, 0, 64, 0
1, 50080, Note_on_c, 0, 68, 72
1, 50142, Note_on_c, 0, 61, 67
1, 50205, Note_on_c, 0, 61, 0
1, 50205, Note_on_c, 0, 68, 0
1, 50205, Note_on_c, 0, 69, 72
1, 50206, Note_on_c, 0, 59, 67
1, 50267, Note_on_c, 0, 59, 0
1, 50268, Note_on_c, 0, 57, 67
1, 50330, Note_on_c, 0, 57, 0
1, 50331, Note_on_c, 0, 69, 0
1, 50331, Note_on_c, 0, 65, 67
1, 50332, Note_on_c, 0, 56, 67
1, 50455, Note_on_c, 0, 49, 67
1, 50520, Note_on_c, 0, 49, 0
1, 50520, Note_on_c, 0, 50, 67
1, 50585, Note_on_c, 0, 50, 0
1, 50585, Note_on_c, 0, 56, 0
1, 50586, Note_on_c, 0, 65, 0
1, 50586, Note_on_c, 0, 66, 67
1, 50587, Note_on_c, 0, 49, 67
1, 50587, Note_on_c, 0, 57, 67
1, 50650, Note_on_c, 0, 49, 0
1, 50651, Note_on_c, 0, 47, 77
1, 50716, Note_on_c, 0, 47, 0
1, 50717, Note_on_c, 0, 57, 0
1, 50717, Note_on_c, 0, 66, 0
1, 50718, Note_on_c, 0, 68, 72
1, 50718, Note_on_c, 0, 63, 67
1, 50719, Note_on_c, 0, 45, 77
1, 50784, Note_on_c, 0, 45, 0
1, 50785, Note_on_c, 0, 44, 77
1, 50850, Note_on_c, 0, 44, 0
1, 50850, Note_on_c, 0, 63, 0
1, 50851, Note_on_c, 0, 68, 0
1, 50851, Note_on_c, 0, 69, 72
1, 50852, Note_on_c, 0, 61, 67
1, 50852, Note_on_c, 0, 42, 77
1, 50916, Note_on_c, 0, 69, 0
1, 50916, Note_on_c, 0, 68, 72
1, 50982, Note_on_c, 0, 68, 0
1, 50983, Note_on_c, 0, 42, 0
1, 50983, Note_on_c, 0, 69, 72
1, 50984, Note_on_c, 0, 54, 67
1, 51048, Note_on_c, 0, 69, 0
1, 51049, Note_on_c, 0, 71, 72
1, 51115, Note_on_c, 0, 71, 0
1, 51115, Note_on_c, 0, 54, 0
1, 51116, Note_on_c, 0, 69, 72
1, 51116, Note_on_c, 0, 56, 67
1, 51181, Note_on_c, 0, 69, 0
1, 51181, Note_on_c, 0, 68, 72
1, 51246, Note_on_c, 0, 68, 0
1, 51247, Note_on_c, 0, 56, 0
1, 51247, Note_on_c, 0, 66, 67
1, 51248, Note_on_c, 0, 57, 67
1, 51312, Note_on_c, 0, 66, 0
1, 51313, Note_on_c, 0, 64, 67
1, 51379, Note_on_c, 0, 64, 0
1, 51379, Note_on_c, 0, 57, 0
1, 51380, Note_on_c, 0, 63, 67
1, 51380, Note_on_c, 0, 59, 67
1, 51511, Note_on_c, 0, 59, 0
1, 51512, Note_on_c, 0, 61, 0
1, 51512, Note_on_c, 0, 54, 67
1, 51513, Note_on_c, 0, 47, 77
1, 51577, Note_on_c, 0, 47, 0
1, 51578, Note_on_c, 0, 49, 67
1, 51643, Note_on_c, 0, 49, 0
1, 51643, Note_on_c, 0, 54, 0
1, 51644, Note_on_c, 0, 63, 0
1, 51644, Note_on_c, 0, 64, 67
1, 51645, Note_on_c, 0, 56, 67
1, 51645, Note_on_c, 0, 47, 77
1, 51708, Note_on_c, 0, 47, 0
1, 51708, Note_on_c, 0, 45, 77
1, 51772, Note_on_c, 0, 45, 0
1, 51773, Note_on_c, 0, 56, 0
1, 51773, Note_on_c, 0, 64, 0
1, 51774, Note_on_c, 0, 57, 67
1, 51774, Note_on_c, 0, 66, 67
1, 51775, Note_on_c, 0, 44, 77
1, 51838, Note_on_c, 0, 44, 0
1, 51838, Note_on_c, 0, 42, 77
1, 51902, Note_on_c, 0, 42, 0
1, 51902, Note_on_c, 0, 57, 0
1, 51903, Note_on_c, 0, 66, 0
1, 51903, Note_on_c, 0, 68, 72
1, 51904, Note_on_c, 0, 59, 67
1, 51904, Note_on_c, 0, 40, 77
1, 51967, Note_on_c, 0, 40, 0
1, 51968, Note_on_c, 0, 47, 77
1, 52024, Note_on_c, 0, 59, 0
1, 52032, Note_on_c, 0, 47, 0
1, 52032, Note_on_c, 0, 68, 0
1, 52032, Note_on_c, 0, 68, 72
1, 52033, Note_on_c, 0, 52, 67
1, 52033, Note_on_c, 0, 59, 67
1, 52097, Note_on_c, 0, 52, 0
1, 52097, Note_on_c, 0, 54, 67
1, 52163, Note_on_c, 0, 54, 0
1, 52163, Note_on_c, 0, 59, 0
1, 52163, Note_on_c, 0, 68, 0
1, 52164, Note_on_c, 0, 70, 72
1, 52164, Note_on_c, 0, 61, 67
1, 52164, Note_on_c, 0, 52, 67
1, 52227, Note_on_c, 0, 52, 0
1, 52227, Note_on_c, 0, 51, 67
1, 52291, Note_on_c, 0, 51, 0
1, 52292, Note_on_c, 0, 61, 0
1, 52292, Note_on_c, 0, 70, 0
1, 52292, Note_on_c, 0, 71, 72
1, 52293, Note_on_c, 0, 49, 67
1, 52293, Note_on_c, 0, 63, 67
1, 52355, Note_on_c, 0, 49, 0
1, 52356, Note_on_c, 0, 47, 77
1, 52421, Note_on_c, 0, 47, 0
1, 52421, Note_on_c, 0, 63, 0
1, 52422, Note_on_c, 0, 71, 0
1, 52422, Note_on_c, 0, 73, 72
1, 52423, Note_on_c, 0, 64, 67
1, 52423, Note_on_c, 0, 46, 77
1, 52486, Note_on_c, 0, 64, 0
1, 52487, Note_on_c, 0, 71, 72
1, 52551, Note_on_c, 0, 71, 0
1, 52552, Note_on_c, 0, 46, 0
1, 52552, Note_on_c, 0, 70, 72
1, 52552, Note_on_c, 0, 42, 77
1, 52617, Note_on_c, 0, 70, 0
1, 52617, Note_on_c, 0, 68, 72
1, 52682, Note_on_c, 0, 68, 0
1, 52682, Note_on_c, 0, 42, 0
1, 52683, Note_on_c, 0, 66, 67
1, 52683, Note_on_c, 0, 44, 77
1, 52747, Note_on_c, 0, 66, 0
1, 52748, Note_on_c, 0, 64, 67
1, 52813, Note_on_c, 0, 64, 0
1, 52814, Note_on_c, 0, 44, 0
1, 52814, Note_on_c, 0, 63, 67
1, 52815, Note_on_c, 0, 46, 77
1, 52879, Note_on_c, 0, 63, 0
1, 52879, Note_on_c, 0, 61, 67
1, 52944, Note_on_c, 0, 61, 0
1, 52944, Note_on_c, 0, 46, 0
1, 52945, Note_on_c, 0, 63, 67
1, 52945, Note_on_c, 0, 47, 77
1, 53008, Note_on_c, 0, 47, 0
1, 53009, Note_on_c, 0, 49, 67
1, 53074, Note_on_c, 0, 49, 0
1, 53074, Note_on_c, 0, 63, 0
1, 53075, Note_on_c, 0, 73, 0
1, 53075, Note_on_c, 0, 71, 72
1, 53076, Note_on_c, 0, 51, 67
1, 53138, Note_on_c, 0, 51, 0
1, 53138, Note_on_c, 0, 52, 67
1, 53203, Note_on_c, 0, 52, 0
1, 53204, Note_on_c, 0, 71, 0
1, 53204, Note_on_c, 0, 70, 72
1, 53205, Note_on_c, 0, 54, 67
1, 53267, Note_on_c, 0, 54, 0
1, 53267, Note_on_c, 0, 56, 67
1, 53330, Note_on_c, 0, 56, 0
1, 53330, Note_on_c, 0, 70, 0
1, 53331, Note_on_c, 0, 71, 72
1, 53331, Note_on_c, 0, 58, 67
1, 53394, Note_on_c, 0, 58, 0
1, 53395, Note_on_c, 0, 59, 67
1, 53458, Note_on_c, 0, 59, 0
1, 53458, Note_on_c, 0, 71, 0
1, 53459, Note_on_c, 0, 73, 72
1, 53459, Note_on_c, 0, 52, 67
1, 53522, Note_on_c, 0, 63, 67
1, 53585, Note_on_c, 0, 63, 0
1, 53586, Note_on_c, 0, 61, 67
1, 53649, Note_on_c, 0, 61, 0
1, 53649, Note_on_c, 0, 59, 67
1, 53713, Note_on_c, 0, 59, 0
1, 53713, Note_on_c, 0, 73, 0
1, 53714, Note_on_c, 0, 66, 67
1, 53714, Note_on_c, 0, 58, 67
1, 53776, Note_on_c, 0, 58, 0
1, 53777, Note_on_c, 0, 56, 67
1, 53841, Note_on_c, 0, 56, 0
1, 53841, Note_on_c, 0, 66, 0
1, 53842, Note_on_c, 0, 68, 72
1, 53842, Note_on_c, 0, 54, 67
1, 53896, Note_on_c, 0, 52, 0
1, 53905, Note_on_c, 0, 54, 0
1, 53905, Note_on_c, 0, 68, 0
1, 53906, Note_on_c, 0, 70, 72
1, 53906, Note_on_c, 0, 52, 67
1, 53970, Note_on_c, 0, 52, 0
1, 53971, Note_on_c, 0, 70, 0
1, 53971, Note_on_c, 0, 71, 72
1, 53972, Note_on_c, 0, 54, 67
1, 53972, Note_on_c, 0, 51, 67
1, 54026, Note_on_c, 0, 51, 0
1, 54035, Note_on_c, 0, 54, 0
1, 54035, Note_on_c, 0, 51, 67
1, 54099, Note_on_c, 0, 51, 0
1, 54099, Note_on_c, 0, 71, 0
1, 54100, Note_on_c, 0, 73, 72
1, 54100, Note_on_c, 0, 52, 67
1, 54163, Note_on_c, 0, 52, 0
1, 54164, Note_on_c, 0, 73, 0
1, 54164, Note_on_c, 0, 75, 72
1, 54165, Note_on_c, 0, 54, 67
1, 54228, Note_on_c, 0, 54, 0
1, 54228, Note_on_c, 0, 75, 0
1, 54228, Note_on_c, 0, 76, 72
1, 54229, Note_on_c, 0, 56, 67
1, 54229, Note_on_c, 0, 49, 67
1, 54292, Note_on_c, 0, 56, 0
1, 54292, Note_on_c, 0, 58, 67
1, 54356, Note_on_c, 0, 58, 0
1, 54357, Note_on_c, 0, 49, 0
1, 54357, Note_on_c, 0, 76, 0
1, 54358, Note_on_c, 0, 75, 72
1, 54358, Note_on_c, 0, 59, 67
1, 54359, Note_on_c, 0, 56, 67
1, 54420, Note_on_c, 0, 56, 0
1, 54421, Note_on_c, 0, 54, 67
1, 54486, Note_on_c, 0, 54, 0
1, 54487, Note_on_c, 0, 75, 0
1, 54487, Note_on_c, 0, 73, 72
1, 54487, Note_on_c, 0, 52, 67
1, 54551, Note_on_c, 0, 52, 0
1, 54551, Note_on_c, 0, 51, 67
1, 54615, Note_on_c, 0, 51, 0
1, 54616, Note_on_c, 0, 49, 67
1, 54680, Note_on_c, 0, 49, 0
1, 54681, Note_on_c, 0, 51, 67
1, 54745, Note_on_c, 0, 51, 0
1, 54746, Note_on_c, 0, 59, 0
1, 54746, Note_on_c, 0, 58, 67
1, 54747, Note_on_c, 0, 52, 67
1, 54810, Note_on_c, 0, 52, 0
1, 54810, Note_on_c, 0, 56, 67
1, 54874, Note_on_c, 0, 56, 0
1, 54875, Note_on_c, 0, 54, 67
1, 54939, Note_on_c, 0, 54, 0
1, 54940, Note_on_c, 0, 58, 0
1, 54940, Note_on_c, 0, 56, 67
1, 54940, Note_on_c, 0, 52, 67
1, 55004, Note_on_c, 0, 52, 0
1, 55004, Note_on_c, 0, 56, 0
1, 55005, Note_on_c, 0, 51, 67
1, 55005, Note_on_c, 0, 54, 67
1, 55134, Note_on_c, 0, 73, 0
1, 55135, Note_on_c, 0, 78, 72
1, 55135, Note_on_c, 0, 71, 72
1, 55199, Note_on_c, 0, 71, 0
1, 55199, Note_on_c, 0, 70, 72
1, 55264, Note_on_c, 0, 70, 0
1, 55264, Note_on_c, 0, 78, 0
1, 55265, Note_on_c, 0, 51, 0
1, 55265, Note_on_c, 0, 75, 72
1, 55266, Note_on_c, 0, 71, 72
1, 55266, Note_on_c, 0, 44, 77
1, 55393, Note_on_c, 0, 71, 0
1, 55394, Note_on_c, 0, 54, 0
1, 55394, Note_on_c, 0, 75, 0
1, 55395, Note_on_c, 0, 73, 72
1, 55395, Note_on_c, 0, 76, 72
1, 55396, Note_on_c, 0, 52, 67
1, 55458, Note_on_c, 0, 73, 0
1, 55458, Note_on_c, 0, 71, 72
1, 55522, Note_on_c, 0, 71, 0
1, 55523, Note_on_c, 0, 44, 0
1, 55523, Note_on_c, 0, 76, 0
1, 55524, Note_on_c, 0, 78, 72
1, 55524, Note_on_c, 0, 70, 72
1, 55524, Note_on_c, 0, 42, 77
1, 55587, Note_on_c, 0, 70, 0
1, 55588, Note_on_c, 0, 68, 72
1, 55653, Note_on_c, 0, 68, 0
1, 55653, Note_on_c, 0, 52, 0
1, 55654, Note_on_c, 0, 66, 67
1, 55654, Note_on_c, 0, 51, 67
1, 55718, Note_on_c, 0, 51, 0
1, 55718, Note_on_c, 0, 66, 0
1, 55719, Note_on_c, 0, 49, 67
1, 55719, Note_on_c, 0, 64, 67
1, 55783, Note_on_c, 0, 64, 0
1, 55784, Note_on_c, 0, 49, 0
1, 55784, Note_on_c, 0, 78, 0
1, 55785, Note_on_c, 0, 71, 72
1, 55785, Note_on_c, 0, 63, 67
1, 55786, Note_on_c, 0, 51, 67
1, 55915, Note_on_c, 0, 51, 0
1, 55915, Note_on_c, 0, 63, 0
1, 55916, Note_on_c, 0, 71, 0
1, 55916, Note_on_c, 0, 75, 72
1, 55917, Note_on_c, 0, 71, 72
1, 55917, Note_on_c, 0, 56, 67
1, 55980, Note_on_c, 0, 75, 0
1, 55980, Note_on_c, 0, 77, 72
1, 56046, Note_on_c, 0, 77, 0
1, 56047, Note_on_c, 0, 56, 0
1, 56047, Note_on_c, 0, 71, 0
1, 56048, Note_on_c, 0, 78, 72
1, 56048, Note_on_c, 0, 70, 72
1, 56049, Note_on_c, 0, 49, 67
1, 56177, Note_on_c, 0, 70, 0
1, 56177, Note_on_c, 0, 78, 0
1, 56178, Note_on_c, 0, 80, 72
1, 56178, Note_on_c, 0, 71, 72
1, 56243, Note_on_c, 0, 71, 0
1, 56244, Note_on_c, 0, 80, 0
1, 56244, Note_on_c, 0, 82, 72
1, 56244, Note_on_c, 0, 73, 72
1, 56308, Note_on_c, 0, 73, 0
1, 56309, Note_on_c, 0, 82, 0
1, 56309, Note_on_c, 0, 42, 0
1, 56310, Note_on_c, 0, 49, 0
1, 56310, Note_on_c, 0, 83, 72
1, 56311, Note_on_c, 0, 75, 72
1, 56374, Note_on_c, 0, 75, 0
1, 56374, Note_on_c, 0, 77, 72
1, 56375, Note_on_c, 0, 44, 77
1, 56439, Note_on_c, 0, 44, 0
1, 56439, Note_on_c, 0, 77, 0
1, 56440, Note_on_c, 0, 83, 0
1, 56440, Note_on_c, 0, 82, 72
1, 56441, Note_on_c, 0, 78, 72
1, 56441, Note_on_c, 0, 46, 77
1, 56504, Note_on_c, 0, 46, 0
1, 56505, Note_on_c, 0, 47, 77
1, 56569, Note_on_c, 0, 47, 0
1, 56570, Note_on_c, 0, 82, 0
1, 56570, Note_on_c, 0, 80, 72
1, 56571, Note_on_c, 0, 49, 67
1, 56635, Note_on_c, 0, 49, 0
1, 56635, Note_on_c, 0, 51, 67
1, 56700, Note_on_c, 0, 51, 0
1, 56700, Note_on_c, 0, 78, 0
1, 56701, Note_on_c, 0, 76, 72
1, 56701, Note_on_c, 0, 52, 67
1, 56764, Note_on_c, 0, 52, 0
1, 56765, Note_on_c, 0, 76, 0
1, 56765, Note_on_c, 0, 75, 72
1, 56766, Note_on_c, 0, 54, 67
1, 56829, Note_on_c, 0, 54, 0
1, 56830, Note_on_c, 0, 75, 0
1, 56830, Note_on_c, 0, 76, 72
1, 56830, Note_on_c, 0, 56, 67
1, 56893, Note_on_c, 0, 56, 0
1, 56894, Note_on_c, 0, 58, 67
1, 56958, Note_on_c, 0, 58, 0
1, 56958, Note_on_c, 0, 59, 67
1, 57021, Note_on_c, 0, 59, 0
1, 57022, Note_on_c, 0, 56, 67
1, 57084, Note_on_c, 0, 56, 0
1, 57085, Note_on_c, 0, 80, 0
1, 57085, Note_on_c, 0, 78, 72
1, 57086, Note_on_c, 0, 58, 67
1, 57147, Note_on_c, 0, 58, 0
1, 57147, Note_on_c, 0, 56, 67
1, 57208, Note_on_c, 0, 56, 0
1, 57209, Note_on_c, 0, 76, 0
1, 57209, Note_on_c, 0, 75, 72
1, 57210, Note_on_c, 0, 54, 67
1, 57270, Note_on_c, 0, 54, 0
1, 57270, Note_on_c, 0, 75, 0
1, 57271, Note_on_c, 0, 73, 72
1, 57271, Note_on_c, 0, 52, 67
1, 57332, Note_on_c, 0, 52, 0
1, 57333, Note_on_c, 0, 73, 0
1, 57333, Note_on_c, 0, 71, 72
1, 57334, Note_on_c, 0, 51, 67
1, 57396, Note_on_c, 0, 51, 0
1, 57396, Note_on_c, 0, 49, 67
1, 57460, Note_on_c, 0, 49, 0
1, 57460, Note_on_c, 0, 78, 0
1, 57461, Note_on_c, 0, 76, 72
1, 57461, Note_on_c, 0, 51, 67
1, 57524, Note_on_c, 0, 51, 0
1, 57525, Note_on_c, 0, 76, 0
1, 57525, Note_on_c, 0, 75, 72
1, 57526, Note_on_c, 0, 52, 67
1, 57590, Note_on_c, 0, 52, 0
1, 57591, Note_on_c, 0, 75, 0
1, 57591, Note_on_c, 0, 73, 72
1, 57592, Note_on_c, 0, 54, 67
1, 57660, Note_on_c, 0, 73, 0
1, 57661, Note_on_c, 0, 75, 72
1, 57731, Note_on_c, 0, 75, 0
1, 57731, Note_on_c, 0, 76, 72
1, 57732, Note_on_c, 0, 61, 67
1, 57804, Note_on_c, 0, 61, 0
1, 57805, Note_on_c, 0, 63, 67
1, 57877, Note_on_c, 0, 63, 0
1, 57878, Note_on_c, 0, 71, 0
1, 57878, Note_on_c, 0, 70, 72
1, 57879, Note_on_c, 0, 61, 67
1, 57950, Note_on_c, 0, 61, 0
1, 57951, Note_on_c, 0, 76, 0
1, 57951, Note_on_c, 0, 80, 72
1, 57952, Note_on_c, 0, 59, 67
1, 58019, Note_on_c, 0, 59, 0
1, 58019, Note_on_c, 0, 80, 0
1, 58020, Note_on_c, 0, 78, 72
1, 58020, Note_on_c, 0, 58, 67
1, 58094, Note_on_c, 0, 58, 0
1, 58095, Note_on_c, 0, 78, 0
1, 58095, Note_on_c, 0, 76, 72
1, 58096, Note_on_c, 0, 56, 67
1, 58177, Note_on_c, 0, 56, 0
1, 58177, Note_on_c, 0, 76, 0
1, 58178, Note_on_c, 0, 70, 0
1, 58178, Note_on_c, 0, 54, 0
1, 58179, Note_on_c, 0, 71, 63
1, 58179, Note_on_c, 0, 75, 63
1, 58180, Note_on_c, 0, 54, 48
1, 58180, Note_on_c, 0, 47, 68
1, 59977, Note_on_c, 0, 75, 0
1, 59977, Note_on_c, 0, 71, 0
1, 60038, Note_on_c, 0, 54, 0
1, 60038, Note_on_c, 0, 47, 0
1, 61630, Control_c, 0, 64, 0
1, 61631, Control_c, 0, 64, 0
1, 61632, Control_c, 0, 64, 0
1, 61656, Control_c, 0, 64, 0
1, 61656, Control_c, 0, 64, 0
1, 61657, Control_c, 0, 64, 0
1, 61657, End_track
0, 0, End_of_file
