0, 0, Header, 0, 1, 240
1, 0, Start_track
1, 0, Title_t, "--------"
1, 0, Time_signature, 1, 2, 24, 8
1, 0, Key_signature, 0, "major"
1, 0, Tempo, 500000
1, 0, Program_c, 0, 6
1, 0, Control_c, 0, 7, 105
1, 0, Control_c, 0, 10, 63
1, 0, Program_c, 0, 6
1, 0, Control_c, 0, 7, 100
1, 0, Control_c, 0, 10, 64
1, 0, Program_c, 0, 6
1, 0, Control_c, 0, 7, 100
1, 0, Control_c, 0, 10, 48
1, 348, Marker_t, "interpreted by (P) 1997 S.D. Rodrian  WTC Book1 Prelude & Fugue in Bm"
1, 2685, Control_c, 0, 7, 127
1, 2708, Program_c, 0, 0
1, 2723, Program_c, 0, 0
1, 2727, Program_c, 0, 0
1, 2761, Control_c, 0, 10, 79
1, 2784, Control_c, 0, 10, 60
1, 2785, Control_c, 0, 10, 67
1, 2804, Control_c, 0, 10, 75
1, 2818, Control_c, 0, 10, 66
1, 2819, Control_c, 0, 10, 58
1, 2829, Control_c, 0, 10, 55
1, 2842, Control_c, 0, 10, 74
1, 2847, Control_c, 0, 10, 59
1, 3025, Note_on_c, 0, 66, 72
1, 3025, Note_on_c, 0, 47, 72
1, 3127, Note_on_c, 0, 47, 0
1, 3135, Note_on_c, 0, 49, 72
1, 3232, Note_on_c, 0, 66, 0
1, 3239, Note_on_c, 0, 49, 0
1, 3247, Note_on_c, 0, 71, 67
1, 3247, Note_on_c, 0, 50, 72
1, 3348, Note_on_c, 0, 50, 0
1, 3355, Note_on_c, 0, 52, 72
1, 3454, Note_on_c, 0, 52, 0
1, 3462, Note_on_c, 0, 73, 67
1, 3462, Note_on_c, 0, 54, 72
1, 3559, Note_on_c, 0, 54, 0
1, 3566, Note_on_c, 0, 56, 72
1, 3645, Note_on_c, 0, 71, 0
1, 3657, Note_on_c, 0, 73, 0
1, 3663, Note_on_c, 0, 56, 0
1, 3670, Note_on_c, 0, 69, 61
1, 3671, Note_on_c, 0, 78, 49
1, 3671, Note_on_c, 0, 57, 72
1, 3765, Note_on_c, 0, 57, 0
1, 3773, Note_on_c, 0, 59, 72
1, 3863, Note_on_c, 0, 69, 0
1, 3869, Note_on_c, 0, 59, 0
1, 3876, Note_on_c, 0, 68, 67
1, 3876, Note_on_c, 0, 61, 72
1, 3971, Note_on_c, 0, 61, 0
1, 3977, Note_on_c, 0, 59, 72
1, 4054, Note_on_c, 0, 78, 0
1, 4066, Note_on_c, 0, 68, 0
1, 4071, Note_on_c, 0, 59, 0
1, 4078, Note_on_c, 0, 76, 67
1, 4079, Note_on_c, 0, 73, 67
1, 4079, Note_on_c, 0, 58, 72
1, 4172, Note_on_c, 0, 58, 0
1, 4179, Note_on_c, 0, 54, 72
1, 4268, Note_on_c, 0, 76, 0
1, 4274, Note_on_c, 0, 54, 0
1, 4281, Note_on_c, 0, 74, 67
1, 4281, Note_on_c, 0, 59, 72
1, 4375, Note_on_c, 0, 59, 0
1, 4381, Note_on_c, 0, 57, 72
1, 4459, Note_on_c, 0, 73, 0
1, 4476, Note_on_c, 0, 57, 0
1, 4483, Note_on_c, 0, 71, 67
1, 4484, Note_on_c, 0, 55, 72
1, 4576, Note_on_c, 0, 55, 0
1, 4577, Note_on_c, 0, 71, 0
1, 4583, Note_on_c, 0, 69, 67
1, 4584, Note_on_c, 0, 54, 72
1, 4677, Note_on_c, 0, 54, 0
1, 4678, Note_on_c, 0, 69, 0
1, 4684, Note_on_c, 0, 67, 72
1, 4684, Note_on_c, 0, 52, 72
1, 4777, Note_on_c, 0, 52, 0
1, 4784, Note_on_c, 0, 49, 72
1, 4846, Note_on_c, 0, 74, 0
1, 4876, Note_on_c, 0, 49, 0
1, 4883, Note_on_c, 0, 73, 67
1, 4883, Note_on_c, 0, 50, 72
1, 4976, Note_on_c, 0, 50, 0
1, 4976, Note_on_c, 0, 73, 0
1, 4982, Note_on_c, 0, 71, 67
1, 4983, Note_on_c, 0, 52, 72
1, 5077, Note_on_c, 0, 52, 0
1, 5078, Note_on_c, 0, 71, 0
1, 5084, Note_on_c, 0, 70, 67
1, 5085, Note_on_c, 0, 54, 72
1, 5155, Note_on_c, 0, 67, 0
1, 5179, Note_on_c, 0, 54, 0
1, 5186, Note_on_c, 0, 66, 72
1, 5186, Note_on_c, 0, 42, 72
1, 5276, Note_on_c, 0, 70, 0
1, 5282, Note_on_c, 0, 42, 0
1, 5282, Note_on_c, 0, 66, 0
1, 5289, Note_on_c, 0, 71, 67
1, 5289, Note_on_c, 0, 64, 72
1, 5290, Note_on_c, 0, 44, 72
1, 5383, Note_on_c, 0, 44, 0
1, 5383, Note_on_c, 0, 71, 0
1, 5390, Note_on_c, 0, 73, 67
1, 5390, Note_on_c, 0, 46, 72
1, 5483, Note_on_c, 0, 46, 0
1, 5483, Note_on_c, 0, 73, 0
1, 5490, Note_on_c, 0, 66, 72
1, 5490, Note_on_c, 0, 47, 72
1, 5583, Note_on_c, 0, 47, 0
1, 5590, Note_on_c, 0, 49, 72
1, 5664, Note_on_c, 0, 64, 0
1, 5675, Note_on_c, 0, 66, 0
1, 5680, Note_on_c, 0, 49, 0
1, 5688, Note_on_c, 0, 71, 67
1, 5688, Note_on_c, 0, 62, 72
1, 5688, Note_on_c, 0, 50, 72
1, 5779, Note_on_c, 0, 50, 0
1, 5786, Note_on_c, 0, 52, 72
1, 5874, Note_on_c, 0, 62, 0
1, 5880, Note_on_c, 0, 52, 0
1, 5887, Note_on_c, 0, 61, 72
1, 5888, Note_on_c, 0, 54, 72
1, 5980, Note_on_c, 0, 54, 0
1, 5987, Note_on_c, 0, 56, 72
1, 6063, Note_on_c, 0, 71, 0
1, 6075, Note_on_c, 0, 61, 0
1, 6081, Note_on_c, 0, 56, 0
1, 6088, Note_on_c, 0, 69, 67
1, 6088, Note_on_c, 0, 66, 72
1, 6089, Note_on_c, 0, 57, 72
1, 6180, Note_on_c, 0, 57, 0
1, 6188, Note_on_c, 0, 54, 72
1, 6275, Note_on_c, 0, 69, 0
1, 6281, Note_on_c, 0, 54, 0
1, 6288, Note_on_c, 0, 67, 72
1, 6288, Note_on_c, 0, 59, 72
1, 6380, Note_on_c, 0, 59, 0
1, 6387, Note_on_c, 0, 47, 72
1, 6463, Note_on_c, 0, 66, 0
1, 6480, Note_on_c, 0, 47, 0
1, 6487, Note_on_c, 0, 64, 72
1, 6488, Note_on_c, 0, 49, 72
1, 6581, Note_on_c, 0, 49, 0
1, 6588, Note_on_c, 0, 45, 72
1, 6664, Note_on_c, 0, 67, 0
1, 6681, Note_on_c, 0, 45, 0
1, 6688, Note_on_c, 0, 66, 72
1, 6688, Note_on_c, 0, 50, 72
1, 6779, Note_on_c, 0, 50, 0
1, 6786, Note_on_c, 0, 49, 72
1, 6862, Note_on_c, 0, 64, 0
1, 6879, Note_on_c, 0, 49, 0
1, 6886, Note_on_c, 0, 62, 72
1, 6886, Note_on_c, 0, 47, 72
1, 6979, Note_on_c, 0, 47, 0
1, 6985, Note_on_c, 0, 45, 72
1, 7061, Note_on_c, 0, 66, 0
1, 7080, Note_on_c, 0, 45, 0
1, 7085, Note_on_c, 0, 71, 64
1, 7086, Note_on_c, 0, 43, 72
1, 7178, Note_on_c, 0, 43, 0
1, 7185, Note_on_c, 0, 54, 72
1, 7261, Note_on_c, 0, 62, 0
1, 7272, Note_on_c, 0, 71, 0
1, 7278, Note_on_c, 0, 54, 0
1, 7285, Note_on_c, 0, 76, 61
1, 7285, Note_on_c, 0, 52, 72
1, 7286, Note_on_c, 0, 67, 72
1, 7378, Note_on_c, 0, 52, 0
1, 7385, Note_on_c, 0, 50, 72
1, 7472, Note_on_c, 0, 76, 0
1, 7478, Note_on_c, 0, 50, 0
1, 7485, Note_on_c, 0, 69, 67
1, 7485, Note_on_c, 0, 49, 72
1, 7577, Note_on_c, 0, 49, 0
1, 7583, Note_on_c, 0, 57, 72
1, 7657, Note_on_c, 0, 67, 0
1, 7669, Note_on_c, 0, 69, 0
1, 7675, Note_on_c, 0, 57, 0
1, 7681, Note_on_c, 0, 74, 64
1, 7682, Note_on_c, 0, 66, 72
1, 7682, Note_on_c, 0, 59, 72
1, 7773, Note_on_c, 0, 59, 0
1, 7779, Note_on_c, 0, 54, 72
1, 7866, Note_on_c, 0, 66, 0
1, 7872, Note_on_c, 0, 54, 0
1, 7878, Note_on_c, 0, 64, 72
1, 7879, Note_on_c, 0, 55, 72
1, 7970, Note_on_c, 0, 55, 0
1, 7977, Note_on_c, 0, 52, 72
1, 8051, Note_on_c, 0, 74, 0
1, 8068, Note_on_c, 0, 52, 0
1, 8075, Note_on_c, 0, 73, 64
1, 8075, Note_on_c, 0, 57, 72
1, 8166, Note_on_c, 0, 57, 0
1, 8173, Note_on_c, 0, 45, 72
1, 8245, Note_on_c, 0, 64, 0
1, 8256, Note_on_c, 0, 73, 0
1, 8262, Note_on_c, 0, 45, 0
1, 8268, Note_on_c, 0, 74, 64
1, 8269, Note_on_c, 0, 66, 72
1, 8269, Note_on_c, 0, 50, 72
1, 8313, Note_on_c, 0, 74, 0
1, 8317, Note_on_c, 0, 73, 64
1, 8359, Note_on_c, 0, 50, 0
1, 8362, Note_on_c, 0, 73, 0
1, 8366, Note_on_c, 0, 71, 67
1, 8367, Note_on_c, 0, 52, 72
1, 8412, Note_on_c, 0, 71, 0
1, 8415, Note_on_c, 0, 69, 67
1, 8452, Note_on_c, 0, 66, 0
1, 8458, Note_on_c, 0, 52, 0
1, 8462, Note_on_c, 0, 69, 0
1, 8465, Note_on_c, 0, 74, 64
1, 8466, Note_on_c, 0, 54, 72
1, 8559, Note_on_c, 0, 54, 0
1, 8566, Note_on_c, 0, 55, 72
1, 8660, Note_on_c, 0, 55, 0
1, 8667, Note_on_c, 0, 64, 72
1, 8667, Note_on_c, 0, 45, 72
1, 8760, Note_on_c, 0, 45, 0
1, 8768, Note_on_c, 0, 47, 72
1, 8844, Note_on_c, 0, 74, 0
1, 8855, Note_on_c, 0, 64, 0
1, 8861, Note_on_c, 0, 47, 0
1, 8868, Note_on_c, 0, 69, 67
1, 8868, Note_on_c, 0, 73, 64
1, 8868, Note_on_c, 0, 49, 72
1, 8961, Note_on_c, 0, 49, 0
1, 8967, Note_on_c, 0, 50, 72
1, 9055, Note_on_c, 0, 73, 0
1, 9060, Note_on_c, 0, 50, 0
1, 9067, Note_on_c, 0, 71, 67
1, 9068, Note_on_c, 0, 52, 72
1, 9159, Note_on_c, 0, 52, 0
1, 9166, Note_on_c, 0, 54, 72
1, 9240, Note_on_c, 0, 69, 0
1, 9252, Note_on_c, 0, 71, 0
1, 9257, Note_on_c, 0, 54, 0
1, 9264, Note_on_c, 0, 76, 67
1, 9264, Note_on_c, 0, 67, 72
1, 9265, Note_on_c, 0, 55, 72
1, 9356, Note_on_c, 0, 55, 0
1, 9363, Note_on_c, 0, 57, 72
1, 9449, Note_on_c, 0, 67, 0
1, 9455, Note_on_c, 0, 57, 0
1, 9462, Note_on_c, 0, 66, 72
1, 9462, Note_on_c, 0, 47, 72
1, 9554, Note_on_c, 0, 47, 0
1, 9560, Note_on_c, 0, 49, 72
1, 9636, Note_on_c, 0, 76, 0
1, 9648, Note_on_c, 0, 66, 0
1, 9654, Note_on_c, 0, 49, 0
1, 9660, Note_on_c, 0, 74, 67
1, 9661, Note_on_c, 0, 71, 67
1, 9661, Note_on_c, 0, 50, 72
1, 9755, Note_on_c, 0, 50, 0
1, 9761, Note_on_c, 0, 52, 72
1, 9849, Note_on_c, 0, 74, 0
1, 9854, Note_on_c, 0, 52, 0
1, 9861, Note_on_c, 0, 73, 67
1, 9862, Note_on_c, 0, 54, 72
1, 9953, Note_on_c, 0, 54, 0
1, 9960, Note_on_c, 0, 56, 72
1, 10035, Note_on_c, 0, 71, 0
1, 10046, Note_on_c, 0, 73, 0
1, 10052, Note_on_c, 0, 56, 0
1, 10059, Note_on_c, 0, 78, 55
1, 10059, Note_on_c, 0, 69, 67
1, 10060, Note_on_c, 0, 57, 72
1, 10151, Note_on_c, 0, 57, 0
1, 10157, Note_on_c, 0, 59, 72
1, 10244, Note_on_c, 0, 69, 0
1, 10250, Note_on_c, 0, 59, 0
1, 10256, Note_on_c, 0, 68, 67
1, 10256, Note_on_c, 0, 61, 72
1, 10349, Note_on_c, 0, 61, 0
1, 10356, Note_on_c, 0, 59, 72
1, 10429, Note_on_c, 0, 78, 0
1, 10441, Note_on_c, 0, 68, 0
1, 10447, Note_on_c, 0, 59, 0
1, 10454, Note_on_c, 0, 73, 67
1, 10454, Note_on_c, 0, 77, 55
1, 10454, Note_on_c, 0, 61, 72
1, 10545, Note_on_c, 0, 61, 0
1, 10551, Note_on_c, 0, 57, 72
1, 10636, Note_on_c, 0, 77, 0
1, 10642, Note_on_c, 0, 57, 0
1, 10649, Note_on_c, 0, 78, 52
1, 10649, Note_on_c, 0, 62, 72
1, 10739, Note_on_c, 0, 62, 0
1, 10746, Note_on_c, 0, 61, 72
1, 10819, Note_on_c, 0, 73, 0
1, 10830, Note_on_c, 0, 78, 0
1, 10836, Note_on_c, 0, 61, 0
1, 10843, Note_on_c, 0, 71, 67
1, 10843, Note_on_c, 0, 80, 49
1, 10844, Note_on_c, 0, 62, 72
1, 10933, Note_on_c, 0, 62, 0
1, 10940, Note_on_c, 0, 59, 72
1, 11025, Note_on_c, 0, 80, 0
1, 11031, Note_on_c, 0, 59, 0
1, 11037, Note_on_c, 0, 73, 67
1, 11037, Note_on_c, 0, 53, 72
1, 11127, Note_on_c, 0, 53, 0
1, 11135, Note_on_c, 0, 61, 72
1, 11208, Note_on_c, 0, 71, 0
1, 11218, Note_on_c, 0, 73, 0
1, 11224, Note_on_c, 0, 61, 0
1, 11231, Note_on_c, 0, 78, 52
1, 11231, Note_on_c, 0, 69, 67
1, 11232, Note_on_c, 0, 62, 72
1, 11320, Note_on_c, 0, 62, 0
1, 11327, Note_on_c, 0, 57, 72
1, 11412, Note_on_c, 0, 69, 0
1, 11418, Note_on_c, 0, 57, 0
1, 11424, Note_on_c, 0, 68, 67
1, 11425, Note_on_c, 0, 59, 72
1, 11516, Note_on_c, 0, 59, 0
1, 11522, Note_on_c, 0, 56, 72
1, 11597, Note_on_c, 0, 78, 0
1, 11615, Note_on_c, 0, 56, 0
1, 11620, Note_on_c, 0, 77, 55
1, 11621, Note_on_c, 0, 61, 72
1, 11712, Note_on_c, 0, 61, 0
1, 11719, Note_on_c, 0, 49, 72
1, 11794, Note_on_c, 0, 68, 0
1, 11806, Note_on_c, 0, 77, 0
1, 11811, Note_on_c, 0, 49, 0
1, 11818, Note_on_c, 0, 78, 55
1, 11819, Note_on_c, 0, 69, 67
1, 11819, Note_on_c, 0, 54, 72
1, 11909, Note_on_c, 0, 54, 0
1, 11916, Note_on_c, 0, 52, 72
1, 12001, Note_on_c, 0, 69, 0
1, 12002, Note_on_c, 0, 78, 0
1, 12007, Note_on_c, 0, 52, 0
1, 12014, Note_on_c, 0, 74, 67
1, 12014, Note_on_c, 0, 54, 72
1, 12105, Note_on_c, 0, 54, 0
1, 12112, Note_on_c, 0, 56, 72
1, 12202, Note_on_c, 0, 56, 0
1, 12209, Note_on_c, 0, 76, 67
1, 12209, Note_on_c, 0, 57, 72
1, 12299, Note_on_c, 0, 57, 0
1, 12306, Note_on_c, 0, 59, 72
1, 12379, Note_on_c, 0, 74, 0
1, 12390, Note_on_c, 0, 76, 0
1, 12396, Note_on_c, 0, 59, 0
1, 12403, Note_on_c, 0, 81, 55
1, 12403, Note_on_c, 0, 73, 67
1, 12404, Note_on_c, 0, 61, 72
1, 12493, Note_on_c, 0, 61, 0
1, 12500, Note_on_c, 0, 62, 72
1, 12584, Note_on_c, 0, 73, 0
1, 12590, Note_on_c, 0, 62, 0
1, 12597, Note_on_c, 0, 71, 67
1, 12598, Note_on_c, 0, 52, 72
1, 12686, Note_on_c, 0, 52, 0
1, 12693, Note_on_c, 0, 54, 72
1, 12767, Note_on_c, 0, 81, 0
1, 12777, Note_on_c, 0, 71, 0
1, 12783, Note_on_c, 0, 54, 0
1, 12790, Note_on_c, 0, 79, 55
1, 12791, Note_on_c, 0, 76, 67
1, 12791, Note_on_c, 0, 55, 72
1, 12882, Note_on_c, 0, 55, 0
1, 12889, Note_on_c, 0, 57, 72
1, 12976, Note_on_c, 0, 79, 0
1, 12982, Note_on_c, 0, 57, 0
1, 12989, Note_on_c, 0, 78, 55
1, 12989, Note_on_c, 0, 59, 72
1, 13081, Note_on_c, 0, 59, 0
1, 13088, Note_on_c, 0, 61, 72
1, 13162, Note_on_c, 0, 76, 0
1, 13174, Note_on_c, 0, 78, 0
1, 13179, Note_on_c, 0, 61, 0
1, 13187, Note_on_c, 0, 83, 55
1, 13187, Note_on_c, 0, 74, 67
1, 13188, Note_on_c, 0, 62, 72
1, 13277, Note_on_c, 0, 62, 0
1, 13284, Note_on_c, 0, 64, 72
1, 13367, Note_on_c, 0, 74, 0
1, 13373, Note_on_c, 0, 64, 0
1, 13380, Note_on_c, 0, 73, 67
1, 13380, Note_on_c, 0, 54, 72
1, 13471, Note_on_c, 0, 54, 0
1, 13477, Note_on_c, 0, 52, 72
1, 13551, Note_on_c, 0, 83, 0
1, 13563, Note_on_c, 0, 73, 0
1, 13569, Note_on_c, 0, 52, 0
1, 13575, Note_on_c, 0, 82, 55
1, 13576, Note_on_c, 0, 78, 55
1, 13576, Note_on_c, 0, 54, 72
1, 13664, Note_on_c, 0, 54, 0
1, 13670, Note_on_c, 0, 50, 72
1, 13754, Note_on_c, 0, 82, 0
1, 13760, Note_on_c, 0, 50, 0
1, 13765, Note_on_c, 0, 83, 55
1, 13766, Note_on_c, 0, 55, 72
1, 13844, Note_on_c, 0, 78, 0
1, 13856, Note_on_c, 0, 55, 0
1, 13861, Note_on_c, 0, 71, 67
1, 13862, Note_on_c, 0, 54, 72
1, 13953, Note_on_c, 0, 54, 0
1, 13953, Note_on_c, 0, 71, 0
1, 13958, Note_on_c, 0, 76, 67
1, 13959, Note_on_c, 0, 55, 72
1, 14039, Note_on_c, 0, 83, 0
1, 14051, Note_on_c, 0, 55, 0
1, 14057, Note_on_c, 0, 81, 55
1, 14058, Note_on_c, 0, 52, 72
1, 14102, Note_on_c, 0, 81, 0
1, 14106, Note_on_c, 0, 79, 55
1, 14148, Note_on_c, 0, 52, 0
1, 14151, Note_on_c, 0, 79, 0
1, 14155, Note_on_c, 0, 78, 55
1, 14156, Note_on_c, 0, 58, 72
1, 14234, Note_on_c, 0, 76, 0
1, 14245, Note_on_c, 0, 58, 0
1, 14252, Note_on_c, 0, 74, 67
1, 14253, Note_on_c, 0, 54, 72
1, 14298, Note_on_c, 0, 74, 0
1, 14301, Note_on_c, 0, 73, 67
1, 14343, Note_on_c, 0, 54, 0
1, 14346, Note_on_c, 0, 73, 0
1, 14350, Note_on_c, 0, 74, 67
1, 14351, Note_on_c, 0, 59, 72
1, 14429, Note_on_c, 0, 78, 0
1, 14440, Note_on_c, 0, 59, 0
1, 14441, Note_on_c, 0, 74, 0
1, 14447, Note_on_c, 0, 79, 55
1, 14448, Note_on_c, 0, 71, 67
1, 14448, Note_on_c, 0, 52, 72
1, 14536, Note_on_c, 0, 52, 0
1, 14537, Note_on_c, 0, 71, 0
1, 14537, Note_on_c, 0, 79, 0
1, 14543, Note_on_c, 0, 74, 67
1, 14544, Note_on_c, 0, 71, 67
1, 14544, Note_on_c, 0, 54, 72
1, 14633, Note_on_c, 0, 54, 0
1, 14640, Note_on_c, 0, 52, 72
1, 14724, Note_on_c, 0, 71, 0
1, 14724, Note_on_c, 0, 74, 0
1, 14729, Note_on_c, 0, 52, 0
1, 14736, Note_on_c, 0, 73, 67
1, 14736, Note_on_c, 0, 70, 67
1, 14737, Note_on_c, 0, 54, 72
1, 14825, Note_on_c, 0, 54, 0
1, 14832, Note_on_c, 0, 42, 72
1, 14916, Note_on_c, 0, 73, 0
1, 14917, Note_on_c, 0, 70, 0
1, 14922, Note_on_c, 0, 42, 0
1, 14929, Note_on_c, 0, 71, 67
1, 14930, Note_on_c, 0, 47, 72
1, 15028, Note_on_c, 0, 79, 55
1, 15114, Note_on_c, 0, 47, 0
1, 15115, Note_on_c, 0, 71, 0
1, 15127, Note_on_c, 0, 73, 67
1, 15127, Note_on_c, 0, 45, 72
1, 15212, Note_on_c, 0, 79, 0
1, 15225, Note_on_c, 0, 78, 55
1, 15303, Note_on_c, 0, 45, 0
1, 15310, Note_on_c, 0, 73, 0
1, 15323, Note_on_c, 0, 74, 67
1, 15324, Note_on_c, 0, 45, 72
1, 15337, Note_on_c, 0, 45, 0
1, 15339, Note_on_c, 0, 43, 72
1, 15353, Note_on_c, 0, 43, 0
1, 15356, Note_on_c, 0, 45, 72
1, 15370, Note_on_c, 0, 45, 0
1, 15372, Note_on_c, 0, 43, 72
1, 15386, Note_on_c, 0, 43, 0
1, 15388, Note_on_c, 0, 45, 72
1, 15402, Note_on_c, 0, 45, 0
1, 15405, Note_on_c, 0, 43, 72
1, 15408, Note_on_c, 0, 78, 0
1, 15419, Note_on_c, 0, 43, 0
1, 15421, Note_on_c, 0, 83, 55
1, 15421, Note_on_c, 0, 45, 72
1, 15435, Note_on_c, 0, 45, 0
1, 15437, Note_on_c, 0, 43, 72
1, 15451, Note_on_c, 0, 43, 0
1, 15454, Note_on_c, 0, 45, 72
1, 15467, Note_on_c, 0, 83, 0
1, 15468, Note_on_c, 0, 45, 0
1, 15470, Note_on_c, 0, 82, 55
1, 15470, Note_on_c, 0, 43, 72
1, 15484, Note_on_c, 0, 43, 0
1, 15486, Note_on_c, 0, 45, 72
1, 15500, Note_on_c, 0, 45, 0
1, 15507, Note_on_c, 0, 43, 72
1, 15516, Note_on_c, 0, 82, 0
1, 15519, Note_on_c, 0, 83, 55
1, 15522, Note_on_c, 0, 43, 0
1, 15523, Note_on_c, 0, 45, 72
1, 15538, Note_on_c, 0, 45, 0
1, 15544, Note_on_c, 0, 43, 72
1, 15558, Note_on_c, 0, 43, 0
1, 15561, Note_on_c, 0, 45, 72
1, 15576, Note_on_c, 0, 45, 0
1, 15581, Note_on_c, 0, 43, 72
1, 15595, Note_on_c, 0, 43, 0
1, 15599, Note_on_c, 0, 74, 0
1, 15600, Note_on_c, 0, 45, 72
1, 15615, Note_on_c, 0, 45, 0
1, 15617, Note_on_c, 0, 76, 67
1, 15620, Note_on_c, 0, 43, 72
1, 15635, Note_on_c, 0, 43, 0
1, 15638, Note_on_c, 0, 45, 72
1, 15653, Note_on_c, 0, 45, 0
1, 15658, Note_on_c, 0, 43, 72
1, 15672, Note_on_c, 0, 43, 0
1, 15674, Note_on_c, 0, 45, 72
1, 15689, Note_on_c, 0, 45, 0
1, 15692, Note_on_c, 0, 43, 72
1, 15702, Note_on_c, 0, 83, 0
1, 15707, Note_on_c, 0, 43, 0
1, 15715, Note_on_c, 0, 82, 55
1, 15715, Note_on_c, 0, 42, 72
1, 15802, Note_on_c, 0, 76, 0
1, 15807, Note_on_c, 0, 82, 0
1, 15815, Note_on_c, 0, 74, 67
1, 15815, Note_on_c, 0, 83, 55
1, 15909, Note_on_c, 0, 83, 0
1, 15909, Note_on_c, 0, 74, 0
1, 15914, Note_on_c, 0, 76, 67
1, 15915, Note_on_c, 0, 73, 67
1, 16008, Note_on_c, 0, 73, 0
1, 16009, Note_on_c, 0, 76, 0
1, 16015, Note_on_c, 0, 71, 67
1, 16016, Note_on_c, 0, 74, 67
1, 16102, Note_on_c, 0, 74, 0
1, 16108, Note_on_c, 0, 71, 0
1, 16115, Note_on_c, 0, 74, 67
1, 16116, Note_on_c, 0, 70, 67
1, 16130, Note_on_c, 0, 74, 0
1, 16132, Note_on_c, 0, 73, 67
1, 16148, Note_on_c, 0, 73, 0
1, 16149, Note_on_c, 0, 74, 67
1, 16164, Note_on_c, 0, 74, 0
1, 16166, Note_on_c, 0, 73, 67
1, 16181, Note_on_c, 0, 73, 0
1, 16182, Note_on_c, 0, 74, 67
1, 16198, Note_on_c, 0, 74, 0
1, 16200, Note_on_c, 0, 73, 67
1, 16470, Note_on_c, 0, 42, 0
1, 16496, Note_on_c, 0, 70, 0
1, 16501, Note_on_c, 0, 73, 0
1, 16521, Note_on_c, 0, 66, 72
1, 16522, Note_on_c, 0, 47, 72
1, 16617, Note_on_c, 0, 47, 0
1, 16624, Note_on_c, 0, 49, 72
1, 16715, Note_on_c, 0, 66, 0
1, 16722, Note_on_c, 0, 49, 0
1, 16728, Note_on_c, 0, 71, 67
1, 16729, Note_on_c, 0, 50, 72
1, 16825, Note_on_c, 0, 50, 0
1, 16832, Note_on_c, 0, 52, 72
1, 16927, Note_on_c, 0, 52, 0
1, 16934, Note_on_c, 0, 73, 67
1, 16934, Note_on_c, 0, 54, 72
1, 17031, Note_on_c, 0, 54, 0
1, 17038, Note_on_c, 0, 56, 72
1, 17115, Note_on_c, 0, 71, 0
1, 17127, Note_on_c, 0, 73, 0
1, 17134, Note_on_c, 0, 56, 0
1, 17141, Note_on_c, 0, 78, 52
1, 17141, Note_on_c, 0, 69, 67
1, 17141, Note_on_c, 0, 57, 72
1, 17236, Note_on_c, 0, 57, 0
1, 17244, Note_on_c, 0, 59, 72
1, 17334, Note_on_c, 0, 69, 0
1, 17340, Note_on_c, 0, 59, 0
1, 17348, Note_on_c, 0, 68, 67
1, 17349, Note_on_c, 0, 61, 72
1, 17441, Note_on_c, 0, 61, 0
1, 17448, Note_on_c, 0, 59, 72
1, 17522, Note_on_c, 0, 78, 0
1, 17534, Note_on_c, 0, 68, 0
1, 17540, Note_on_c, 0, 59, 0
1, 17547, Note_on_c, 0, 73, 67
1, 17547, Note_on_c, 0, 76, 64
1, 17548, Note_on_c, 0, 58, 72
1, 17638, Note_on_c, 0, 58, 0
1, 17645, Note_on_c, 0, 54, 72
1, 17731, Note_on_c, 0, 76, 0
1, 17736, Note_on_c, 0, 54, 0
1, 17744, Note_on_c, 0, 74, 64
1, 17744, Note_on_c, 0, 59, 72
1, 17835, Note_on_c, 0, 59, 0
1, 17843, Note_on_c, 0, 57, 72
1, 17917, Note_on_c, 0, 73, 0
1, 17934, Note_on_c, 0, 57, 0
1, 17941, Note_on_c, 0, 71, 67
1, 17942, Note_on_c, 0, 55, 72
1, 18032, Note_on_c, 0, 55, 0
1, 18033, Note_on_c, 0, 71, 0
1, 18039, Note_on_c, 0, 69, 67
1, 18040, Note_on_c, 0, 54, 72
1, 18132, Note_on_c, 0, 54, 0
1, 18132, Note_on_c, 0, 69, 0
1, 18138, Note_on_c, 0, 67, 72
1, 18139, Note_on_c, 0, 52, 72
1, 18231, Note_on_c, 0, 52, 0
1, 18238, Note_on_c, 0, 49, 72
1, 18301, Note_on_c, 0, 74, 0
1, 18331, Note_on_c, 0, 49, 0
1, 18338, Note_on_c, 0, 73, 67
1, 18338, Note_on_c, 0, 50, 72
1, 18431, Note_on_c, 0, 50, 0
1, 18432, Note_on_c, 0, 73, 0
1, 18438, Note_on_c, 0, 71, 67
1, 18438, Note_on_c, 0, 52, 72
1, 18530, Note_on_c, 0, 52, 0
1, 18530, Note_on_c, 0, 71, 0
1, 18537, Note_on_c, 0, 70, 67
1, 18537, Note_on_c, 0, 54, 72
1, 18606, Note_on_c, 0, 67, 0
1, 18630, Note_on_c, 0, 54, 0
1, 18636, Note_on_c, 0, 66, 72
1, 18637, Note_on_c, 0, 42, 72
1, 18724, Note_on_c, 0, 70, 0
1, 18730, Note_on_c, 0, 42, 0
1, 18730, Note_on_c, 0, 66, 0
1, 18736, Note_on_c, 0, 71, 67
1, 18737, Note_on_c, 0, 64, 72
1, 18737, Note_on_c, 0, 44, 72
1, 18829, Note_on_c, 0, 44, 0
1, 18830, Note_on_c, 0, 71, 0
1, 18836, Note_on_c, 0, 73, 67
1, 18837, Note_on_c, 0, 46, 72
1, 18930, Note_on_c, 0, 46, 0
1, 18931, Note_on_c, 0, 73, 0
1, 18937, Note_on_c, 0, 66, 72
1, 18937, Note_on_c, 0, 47, 72
1, 19029, Note_on_c, 0, 47, 0
1, 19035, Note_on_c, 0, 49, 72
1, 19109, Note_on_c, 0, 64, 0
1, 19120, Note_on_c, 0, 66, 0
1, 19126, Note_on_c, 0, 49, 0
1, 19133, Note_on_c, 0, 71, 67
1, 19133, Note_on_c, 0, 50, 72
1, 19134, Note_on_c, 0, 62, 72
1, 19225, Note_on_c, 0, 50, 0
1, 19232, Note_on_c, 0, 52, 72
1, 19318, Note_on_c, 0, 62, 0
1, 19324, Note_on_c, 0, 52, 0
1, 19330, Note_on_c, 0, 61, 72
1, 19330, Note_on_c, 0, 54, 72
1, 19423, Note_on_c, 0, 54, 0
1, 19428, Note_on_c, 0, 56, 72
1, 19503, Note_on_c, 0, 71, 0
1, 19515, Note_on_c, 0, 61, 0
1, 19521, Note_on_c, 0, 56, 0
1, 19528, Note_on_c, 0, 69, 67
1, 19528, Note_on_c, 0, 66, 72
1, 19528, Note_on_c, 0, 57, 72
1, 19620, Note_on_c, 0, 57, 0
1, 19627, Note_on_c, 0, 54, 72
1, 19713, Note_on_c, 0, 69, 0
1, 19718, Note_on_c, 0, 54, 0
1, 19726, Note_on_c, 0, 67, 72
1, 19726, Note_on_c, 0, 59, 72
1, 19816, Note_on_c, 0, 59, 0
1, 19823, Note_on_c, 0, 47, 72
1, 19898, Note_on_c, 0, 66, 0
1, 19915, Note_on_c, 0, 47, 0
1, 19921, Note_on_c, 0, 64, 72
1, 19922, Note_on_c, 0, 49, 72
1, 20012, Note_on_c, 0, 49, 0
1, 20019, Note_on_c, 0, 45, 72
1, 20093, Note_on_c, 0, 67, 0
1, 20110, Note_on_c, 0, 45, 0
1, 20117, Note_on_c, 0, 66, 72
1, 20118, Note_on_c, 0, 50, 72
1, 20208, Note_on_c, 0, 50, 0
1, 20214, Note_on_c, 0, 49, 72
1, 20287, Note_on_c, 0, 64, 0
1, 20304, Note_on_c, 0, 49, 0
1, 20310, Note_on_c, 0, 62, 72
1, 20311, Note_on_c, 0, 47, 72
1, 20400, Note_on_c, 0, 47, 0
1, 20407, Note_on_c, 0, 45, 72
1, 20481, Note_on_c, 0, 66, 0
1, 20498, Note_on_c, 0, 45, 0
1, 20505, Note_on_c, 0, 71, 67
1, 20506, Note_on_c, 0, 43, 72
1, 20597, Note_on_c, 0, 43, 0
1, 20604, Note_on_c, 0, 54, 72
1, 20680, Note_on_c, 0, 62, 0
1, 20691, Note_on_c, 0, 71, 0
1, 20697, Note_on_c, 0, 54, 0
1, 20703, Note_on_c, 0, 76, 67
1, 20703, Note_on_c, 0, 52, 72
1, 20704, Note_on_c, 0, 67, 72
1, 20797, Note_on_c, 0, 52, 0
1, 20804, Note_on_c, 0, 50, 72
1, 20891, Note_on_c, 0, 76, 0
1, 20897, Note_on_c, 0, 50, 0
1, 20904, Note_on_c, 0, 69, 67
1, 20904, Note_on_c, 0, 49, 72
1, 20997, Note_on_c, 0, 49, 0
1, 21003, Note_on_c, 0, 57, 72
1, 21078, Note_on_c, 0, 67, 0
1, 21090, Note_on_c, 0, 69, 0
1, 21096, Note_on_c, 0, 57, 0
1, 21101, Note_on_c, 0, 74, 67
1, 21102, Note_on_c, 0, 59, 72
1, 21102, Note_on_c, 0, 66, 72
1, 21193, Note_on_c, 0, 59, 0
1, 21199, Note_on_c, 0, 54, 72
1, 21284, Note_on_c, 0, 66, 0
1, 21290, Note_on_c, 0, 54, 0
1, 21297, Note_on_c, 0, 64, 72
1, 21298, Note_on_c, 0, 55, 72
1, 21387, Note_on_c, 0, 55, 0
1, 21394, Note_on_c, 0, 52, 72
1, 21468, Note_on_c, 0, 74, 0
1, 21484, Note_on_c, 0, 52, 0
1, 21491, Note_on_c, 0, 73, 67
1, 21492, Note_on_c, 0, 57, 72
1, 21579, Note_on_c, 0, 57, 0
1, 21586, Note_on_c, 0, 45, 72
1, 21656, Note_on_c, 0, 64, 0
1, 21668, Note_on_c, 0, 73, 0
1, 21672, Note_on_c, 0, 45, 0
1, 21680, Note_on_c, 0, 74, 67
1, 21680, Note_on_c, 0, 50, 72
1, 21681, Note_on_c, 0, 66, 72
1, 21723, Note_on_c, 0, 74, 0
1, 21726, Note_on_c, 0, 73, 67
1, 21768, Note_on_c, 0, 50, 0
1, 21770, Note_on_c, 0, 73, 0
1, 21774, Note_on_c, 0, 71, 67
1, 21775, Note_on_c, 0, 52, 72
1, 21819, Note_on_c, 0, 71, 0
1, 21823, Note_on_c, 0, 69, 67
1, 21860, Note_on_c, 0, 66, 0
1, 21865, Note_on_c, 0, 52, 0
1, 21869, Note_on_c, 0, 69, 0
1, 21873, Note_on_c, 0, 74, 67
1, 21873, Note_on_c, 0, 54, 72
1, 21966, Note_on_c, 0, 54, 0
1, 21973, Note_on_c, 0, 55, 72
1, 22067, Note_on_c, 0, 55, 0
1, 22074, Note_on_c, 0, 64, 72
1, 22075, Note_on_c, 0, 45, 72
1, 22168, Note_on_c, 0, 45, 0
1, 22175, Note_on_c, 0, 47, 72
1, 22251, Note_on_c, 0, 74, 0
1, 22263, Note_on_c, 0, 64, 0
1, 22269, Note_on_c, 0, 47, 0
1, 22276, Note_on_c, 0, 69, 67
1, 22276, Note_on_c, 0, 73, 67
1, 22277, Note_on_c, 0, 49, 72
1, 22368, Note_on_c, 0, 49, 0
1, 22376, Note_on_c, 0, 50, 72
1, 22463, Note_on_c, 0, 73, 0
1, 22469, Note_on_c, 0, 50, 0
1, 22476, Note_on_c, 0, 71, 67
1, 22476, Note_on_c, 0, 52, 72
1, 22568, Note_on_c, 0, 52, 0
1, 22575, Note_on_c, 0, 54, 72
1, 22650, Note_on_c, 0, 69, 0
1, 22662, Note_on_c, 0, 71, 0
1, 22668, Note_on_c, 0, 54, 0
1, 22674, Note_on_c, 0, 76, 64
1, 22675, Note_on_c, 0, 67, 72
1, 22675, Note_on_c, 0, 55, 72
1, 22766, Note_on_c, 0, 55, 0
1, 22772, Note_on_c, 0, 57, 72
1, 22859, Note_on_c, 0, 67, 0
1, 22864, Note_on_c, 0, 57, 0
1, 22871, Note_on_c, 0, 66, 72
1, 22872, Note_on_c, 0, 47, 72
1, 22963, Note_on_c, 0, 47, 0
1, 22970, Note_on_c, 0, 49, 72
1, 23045, Note_on_c, 0, 76, 0
1, 23056, Note_on_c, 0, 66, 0
1, 23062, Note_on_c, 0, 49, 0
1, 23069, Note_on_c, 0, 71, 67
1, 23069, Note_on_c, 0, 74, 67
1, 23070, Note_on_c, 0, 50, 72
1, 23160, Note_on_c, 0, 50, 0
1, 23167, Note_on_c, 0, 52, 72
1, 23252, Note_on_c, 0, 74, 0
1, 23258, Note_on_c, 0, 52, 0
1, 23265, Note_on_c, 0, 73, 67
1, 23265, Note_on_c, 0, 54, 72
1, 23356, Note_on_c, 0, 54, 0
1, 23363, Note_on_c, 0, 56, 72
1, 23436, Note_on_c, 0, 71, 0
1, 23447, Note_on_c, 0, 73, 0
1, 23453, Note_on_c, 0, 56, 0
1, 23460, Note_on_c, 0, 78, 46
1, 23460, Note_on_c, 0, 69, 67
1, 23460, Note_on_c, 0, 57, 72
1, 23551, Note_on_c, 0, 57, 0
1, 23557, Note_on_c, 0, 59, 72
1, 23644, Note_on_c, 0, 69, 0
1, 23650, Note_on_c, 0, 59, 0
1, 23656, Note_on_c, 0, 68, 67
1, 23657, Note_on_c, 0, 61, 72
1, 23748, Note_on_c, 0, 61, 0
1, 23753, Note_on_c, 0, 59, 72
1, 23828, Note_on_c, 0, 78, 0
1, 23839, Note_on_c, 0, 68, 0
1, 23844, Note_on_c, 0, 59, 0
1, 23851, Note_on_c, 0, 77, 52
1, 23852, Note_on_c, 0, 73, 67
1, 23852, Note_on_c, 0, 61, 72
1, 23940, Note_on_c, 0, 61, 0
1, 23948, Note_on_c, 0, 57, 72
1, 24032, Note_on_c, 0, 77, 0
1, 24037, Note_on_c, 0, 57, 0
1, 24043, Note_on_c, 0, 78, 52
1, 24044, Note_on_c, 0, 62, 72
1, 24133, Note_on_c, 0, 62, 0
1, 24140, Note_on_c, 0, 61, 72
1, 24214, Note_on_c, 0, 73, 0
1, 24226, Note_on_c, 0, 78, 0
1, 24230, Note_on_c, 0, 61, 0
1, 24238, Note_on_c, 0, 71, 67
1, 24238, Note_on_c, 0, 80, 41
1, 24239, Note_on_c, 0, 62, 72
1, 24328, Note_on_c, 0, 62, 0
1, 24336, Note_on_c, 0, 59, 72
1, 24420, Note_on_c, 0, 80, 0
1, 24426, Note_on_c, 0, 59, 0
1, 24433, Note_on_c, 0, 73, 67
1, 24434, Note_on_c, 0, 53, 72
1, 24521, Note_on_c, 0, 53, 0
1, 24528, Note_on_c, 0, 61, 72
1, 24601, Note_on_c, 0, 71, 0
1, 24612, Note_on_c, 0, 73, 0
1, 24617, Note_on_c, 0, 61, 0
1, 24624, Note_on_c, 0, 78, 55
1, 24625, Note_on_c, 0, 69, 67
1, 24625, Note_on_c, 0, 62, 72
1, 24713, Note_on_c, 0, 62, 0
1, 24720, Note_on_c, 0, 57, 72
1, 24804, Note_on_c, 0, 69, 0
1, 24809, Note_on_c, 0, 57, 0
1, 24816, Note_on_c, 0, 68, 67
1, 24816, Note_on_c, 0, 59, 72
1, 24904, Note_on_c, 0, 59, 0
1, 24912, Note_on_c, 0, 56, 72
1, 24984, Note_on_c, 0, 78, 0
1, 25000, Note_on_c, 0, 56, 0
1, 25007, Note_on_c, 0, 77, 55
1, 25007, Note_on_c, 0, 61, 72
1, 25096, Note_on_c, 0, 61, 0
1, 25103, Note_on_c, 0, 49, 72
1, 25177, Note_on_c, 0, 68, 0
1, 25188, Note_on_c, 0, 77, 0
1, 25194, Note_on_c, 0, 49, 0
1, 25200, Note_on_c, 0, 78, 55
1, 25201, Note_on_c, 0, 69, 67
1, 25201, Note_on_c, 0, 54, 72
1, 25292, Note_on_c, 0, 54, 0
1, 25298, Note_on_c, 0, 52, 72
1, 25385, Note_on_c, 0, 69, 0
1, 25385, Note_on_c, 0, 78, 0
1, 25391, Note_on_c, 0, 52, 0
1, 25397, Note_on_c, 0, 74, 67
1, 25398, Note_on_c, 0, 54, 72
1, 25488, Note_on_c, 0, 54, 0
1, 25495, Note_on_c, 0, 56, 72
1, 25586, Note_on_c, 0, 56, 0
1, 25593, Note_on_c, 0, 76, 67
1, 25594, Note_on_c, 0, 57, 72
1, 25682, Note_on_c, 0, 57, 0
1, 25689, Note_on_c, 0, 59, 72
1, 25763, Note_on_c, 0, 74, 0
1, 25774, Note_on_c, 0, 76, 0
1, 25779, Note_on_c, 0, 59, 0
1, 25786, Note_on_c, 0, 73, 67
1, 25787, Note_on_c, 0, 81, 55
1, 25787, Note_on_c, 0, 61, 72
1, 25877, Note_on_c, 0, 61, 0
1, 25883, Note_on_c, 0, 62, 72
1, 25968, Note_on_c, 0, 73, 0
1, 25974, Note_on_c, 0, 62, 0
1, 25981, Note_on_c, 0, 71, 67
1, 25981, Note_on_c, 0, 52, 72
1, 26071, Note_on_c, 0, 52, 0
1, 26078, Note_on_c, 0, 54, 72
1, 26152, Note_on_c, 0, 81, 0
1, 26163, Note_on_c, 0, 71, 0
1, 26169, Note_on_c, 0, 54, 0
1, 26175, Note_on_c, 0, 76, 67
1, 26175, Note_on_c, 0, 79, 55
1, 26176, Note_on_c, 0, 55, 72
1, 26267, Note_on_c, 0, 55, 0
1, 26273, Note_on_c, 0, 57, 72
1, 26358, Note_on_c, 0, 79, 0
1, 26364, Note_on_c, 0, 57, 0
1, 26371, Note_on_c, 0, 78, 55
1, 26371, Note_on_c, 0, 59, 72
1, 26461, Note_on_c, 0, 59, 0
1, 26468, Note_on_c, 0, 61, 72
1, 26541, Note_on_c, 0, 76, 0
1, 26551, Note_on_c, 0, 78, 0
1, 26557, Note_on_c, 0, 61, 0
1, 26564, Note_on_c, 0, 74, 67
1, 26565, Note_on_c, 0, 83, 55
1, 26565, Note_on_c, 0, 62, 72
1, 26654, Note_on_c, 0, 62, 0
1, 26660, Note_on_c, 0, 64, 72
1, 26744, Note_on_c, 0, 74, 0
1, 26750, Note_on_c, 0, 64, 0
1, 26757, Note_on_c, 0, 73, 67
1, 26757, Note_on_c, 0, 54, 72
1, 26847, Note_on_c, 0, 54, 0
1, 26854, Note_on_c, 0, 52, 72
1, 26927, Note_on_c, 0, 83, 0
1, 26938, Note_on_c, 0, 73, 0
1, 26944, Note_on_c, 0, 52, 0
1, 26950, Note_on_c, 0, 82, 55
1, 26951, Note_on_c, 0, 78, 55
1, 26951, Note_on_c, 0, 54, 72
1, 27041, Note_on_c, 0, 54, 0
1, 27047, Note_on_c, 0, 50, 72
1, 27132, Note_on_c, 0, 82, 0
1, 27138, Note_on_c, 0, 50, 0
1, 27144, Note_on_c, 0, 83, 55
1, 27144, Note_on_c, 0, 55, 72
1, 27223, Note_on_c, 0, 78, 0
1, 27235, Note_on_c, 0, 55, 0
1, 27242, Note_on_c, 0, 71, 67
1, 27242, Note_on_c, 0, 54, 72
1, 27332, Note_on_c, 0, 54, 0
1, 27332, Note_on_c, 0, 71, 0
1, 27339, Note_on_c, 0, 76, 67
1, 27339, Note_on_c, 0, 55, 72
1, 27419, Note_on_c, 0, 83, 0
1, 27430, Note_on_c, 0, 55, 0
1, 27436, Note_on_c, 0, 81, 55
1, 27436, Note_on_c, 0, 52, 72
1, 27481, Note_on_c, 0, 81, 0
1, 27485, Note_on_c, 0, 79, 55
1, 27527, Note_on_c, 0, 52, 0
1, 27530, Note_on_c, 0, 79, 0
1, 27534, Note_on_c, 0, 78, 55
1, 27534, Note_on_c, 0, 58, 72
1, 27612, Note_on_c, 0, 76, 0
1, 27623, Note_on_c, 0, 58, 0
1, 27630, Note_on_c, 0, 74, 67
1, 27630, Note_on_c, 0, 54, 72
1, 27674, Note_on_c, 0, 74, 0
1, 27678, Note_on_c, 0, 73, 67
1, 27719, Note_on_c, 0, 54, 0
1, 27722, Note_on_c, 0, 73, 0
1, 27726, Note_on_c, 0, 74, 67
1, 27726, Note_on_c, 0, 59, 72
1, 27804, Note_on_c, 0, 78, 0
1, 27815, Note_on_c, 0, 59, 0
1, 27816, Note_on_c, 0, 74, 0
1, 27822, Note_on_c, 0, 71, 67
1, 27822, Note_on_c, 0, 79, 55
1, 27823, Note_on_c, 0, 52, 72
1, 27912, Note_on_c, 0, 52, 0
1, 27912, Note_on_c, 0, 71, 0
1, 27913, Note_on_c, 0, 79, 0
1, 27919, Note_on_c, 0, 71, 67
1, 27919, Note_on_c, 0, 74, 67
1, 27920, Note_on_c, 0, 54, 72
1, 28009, Note_on_c, 0, 54, 0
1, 28016, Note_on_c, 0, 52, 72
1, 28100, Note_on_c, 0, 71, 0
1, 28101, Note_on_c, 0, 74, 0
1, 28106, Note_on_c, 0, 52, 0
1, 28112, Note_on_c, 0, 70, 67
1, 28112, Note_on_c, 0, 73, 67
1, 28113, Note_on_c, 0, 54, 72
1, 28202, Note_on_c, 0, 54, 0
1, 28208, Note_on_c, 0, 42, 72
1, 28293, Note_on_c, 0, 73, 0
1, 28294, Note_on_c, 0, 70, 0
1, 28299, Note_on_c, 0, 42, 0
1, 28306, Note_on_c, 0, 71, 67
1, 28306, Note_on_c, 0, 47, 72
1, 28404, Note_on_c, 0, 79, 55
1, 28488, Note_on_c, 0, 47, 0
1, 28488, Note_on_c, 0, 71, 0
1, 28500, Note_on_c, 0, 73, 67
1, 28501, Note_on_c, 0, 45, 72
1, 28586, Note_on_c, 0, 79, 0
1, 28597, Note_on_c, 0, 78, 55
1, 28675, Note_on_c, 0, 45, 0
1, 28683, Note_on_c, 0, 73, 0
1, 28695, Note_on_c, 0, 74, 67
1, 28696, Note_on_c, 0, 45, 72
1, 28710, Note_on_c, 0, 45, 0
1, 28716, Note_on_c, 0, 43, 72
1, 28731, Note_on_c, 0, 43, 0
1, 28732, Note_on_c, 0, 45, 72
1, 28747, Note_on_c, 0, 45, 0
1, 28748, Note_on_c, 0, 43, 72
1, 28764, Note_on_c, 0, 43, 0
1, 28766, Note_on_c, 0, 45, 72
1, 28780, Note_on_c, 0, 78, 0
1, 28781, Note_on_c, 0, 45, 0
1, 28783, Note_on_c, 0, 43, 72
1, 28792, Note_on_c, 0, 83, 55
1, 28797, Note_on_c, 0, 43, 0
1, 28799, Note_on_c, 0, 45, 72
1, 28813, Note_on_c, 0, 45, 0
1, 28817, Note_on_c, 0, 43, 72
1, 28832, Note_on_c, 0, 43, 0
1, 28835, Note_on_c, 0, 45, 72
1, 28838, Note_on_c, 0, 83, 0
1, 28841, Note_on_c, 0, 82, 55
1, 28850, Note_on_c, 0, 45, 0
1, 28851, Note_on_c, 0, 43, 72
1, 28866, Note_on_c, 0, 43, 0
1, 28871, Note_on_c, 0, 45, 72
1, 28885, Note_on_c, 0, 45, 0
1, 28887, Note_on_c, 0, 82, 0
1, 28889, Note_on_c, 0, 43, 72
1, 28891, Note_on_c, 0, 83, 55
1, 28904, Note_on_c, 0, 43, 0
1, 28907, Note_on_c, 0, 45, 72
1, 28922, Note_on_c, 0, 45, 0
1, 28922, Note_on_c, 0, 43, 72
1, 28936, Note_on_c, 0, 43, 0
1, 28938, Note_on_c, 0, 45, 72
1, 28953, Note_on_c, 0, 45, 0
1, 28955, Note_on_c, 0, 43, 72
1, 28969, Note_on_c, 0, 43, 0
1, 28971, Note_on_c, 0, 74, 0
1, 28974, Note_on_c, 0, 45, 72
1, 28990, Note_on_c, 0, 45, 0
1, 28990, Note_on_c, 0, 76, 67
1, 28994, Note_on_c, 0, 43, 72
1, 29006, Note_on_c, 0, 45, 72
1, 29008, Note_on_c, 0, 43, 0
1, 29022, Note_on_c, 0, 45, 0
1, 29027, Note_on_c, 0, 43, 72
1, 29041, Note_on_c, 0, 43, 0
1, 29043, Note_on_c, 0, 45, 72
1, 29058, Note_on_c, 0, 45, 0
1, 29064, Note_on_c, 0, 43, 72
1, 29076, Note_on_c, 0, 83, 0
1, 29080, Note_on_c, 0, 43, 0
1, 29088, Note_on_c, 0, 82, 55
1, 29088, Note_on_c, 0, 42, 72
1, 29173, Note_on_c, 0, 76, 0
1, 29179, Note_on_c, 0, 82, 0
1, 29185, Note_on_c, 0, 83, 55
1, 29185, Note_on_c, 0, 74, 67
1, 29277, Note_on_c, 0, 74, 0
1, 29278, Note_on_c, 0, 83, 0
1, 29284, Note_on_c, 0, 76, 67
1, 29285, Note_on_c, 0, 73, 67
1, 29375, Note_on_c, 0, 73, 0
1, 29376, Note_on_c, 0, 76, 0
1, 29382, Note_on_c, 0, 71, 67
1, 29383, Note_on_c, 0, 74, 67
1, 29465, Note_on_c, 0, 74, 0
1, 29473, Note_on_c, 0, 71, 0
1, 29480, Note_on_c, 0, 74, 67
1, 29481, Note_on_c, 0, 70, 67
1, 29494, Note_on_c, 0, 74, 0
1, 29496, Note_on_c, 0, 73, 67
1, 29510, Note_on_c, 0, 73, 0
1, 29513, Note_on_c, 0, 74, 67
1, 29527, Note_on_c, 0, 74, 0
1, 29529, Note_on_c, 0, 73, 67
1, 29543, Note_on_c, 0, 73, 0
1, 29545, Note_on_c, 0, 74, 67
1, 29559, Note_on_c, 0, 74, 0
1, 29562, Note_on_c, 0, 73, 67
1, 29825, Note_on_c, 0, 42, 0
1, 29850, Note_on_c, 0, 70, 0
1, 29855, Note_on_c, 0, 73, 0
1, 29874, Note_on_c, 0, 81, 55
1, 29874, Note_on_c, 0, 54, 72
1, 29966, Note_on_c, 0, 54, 0
1, 29973, Note_on_c, 0, 73, 67
1, 29973, Note_on_c, 0, 55, 72
1, 30066, Note_on_c, 0, 55, 0
1, 30066, Note_on_c, 0, 73, 0
1, 30072, Note_on_c, 0, 78, 55
1, 30072, Note_on_c, 0, 57, 72
1, 30164, Note_on_c, 0, 57, 0
1, 30164, Note_on_c, 0, 78, 0
1, 30170, Note_on_c, 0, 76, 67
1, 30171, Note_on_c, 0, 54, 72
1, 30263, Note_on_c, 0, 54, 0
1, 30263, Note_on_c, 0, 76, 0
1, 30268, Note_on_c, 0, 75, 67
1, 30269, Note_on_c, 0, 59, 72
1, 30337, Note_on_c, 0, 81, 0
1, 30360, Note_on_c, 0, 59, 0
1, 30366, Note_on_c, 0, 78, 55
1, 30367, Note_on_c, 0, 57, 72
1, 30456, Note_on_c, 0, 57, 0
1, 30457, Note_on_c, 0, 78, 0
1, 30463, Note_on_c, 0, 83, 55
1, 30464, Note_on_c, 0, 55, 72
1, 30553, Note_on_c, 0, 55, 0
1, 30554, Note_on_c, 0, 83, 0
1, 30560, Note_on_c, 0, 81, 55
1, 30561, Note_on_c, 0, 54, 72
1, 30634, Note_on_c, 0, 75, 0
1, 30651, Note_on_c, 0, 54, 0
1, 30652, Note_on_c, 0, 81, 0
1, 30658, Note_on_c, 0, 79, 55
1, 30659, Note_on_c, 0, 76, 67
1, 30659, Note_on_c, 0, 52, 72
1, 30750, Note_on_c, 0, 52, 0
1, 30757, Note_on_c, 0, 43, 72
1, 30842, Note_on_c, 0, 76, 0
1, 30843, Note_on_c, 0, 79, 0
1, 30848, Note_on_c, 0, 43, 0
1, 30855, Note_on_c, 0, 75, 67
1, 30855, Note_on_c, 0, 78, 55
1, 30856, Note_on_c, 0, 45, 72
1, 30947, Note_on_c, 0, 45, 0
1, 30954, Note_on_c, 0, 47, 72
1, 31039, Note_on_c, 0, 75, 0
1, 31040, Note_on_c, 0, 78, 0
1, 31044, Note_on_c, 0, 47, 0
1, 31051, Note_on_c, 0, 79, 55
1, 31051, Note_on_c, 0, 76, 67
1, 31052, Note_on_c, 0, 40, 72
1, 31141, Note_on_c, 0, 40, 0
1, 31141, Note_on_c, 0, 76, 0
1, 31147, Note_on_c, 0, 71, 67
1, 31148, Note_on_c, 0, 42, 72
1, 31237, Note_on_c, 0, 42, 0
1, 31237, Note_on_c, 0, 71, 0
1, 31244, Note_on_c, 0, 76, 67
1, 31244, Note_on_c, 0, 43, 72
1, 31335, Note_on_c, 0, 43, 0
1, 31335, Note_on_c, 0, 76, 0
1, 31341, Note_on_c, 0, 74, 67
1, 31341, Note_on_c, 0, 40, 72
1, 31432, Note_on_c, 0, 40, 0
1, 31432, Note_on_c, 0, 74, 0
1, 31439, Note_on_c, 0, 73, 67
1, 31439, Note_on_c, 0, 45, 72
1, 31505, Note_on_c, 0, 79, 0
1, 31527, Note_on_c, 0, 45, 0
1, 31533, Note_on_c, 0, 76, 67
1, 31533, Note_on_c, 0, 43, 72
1, 31623, Note_on_c, 0, 43, 0
1, 31623, Note_on_c, 0, 76, 0
1, 31630, Note_on_c, 0, 81, 55
1, 31631, Note_on_c, 0, 42, 72
1, 31720, Note_on_c, 0, 42, 0
1, 31720, Note_on_c, 0, 81, 0
1, 31727, Note_on_c, 0, 79, 55
1, 31728, Note_on_c, 0, 40, 72
1, 31800, Note_on_c, 0, 73, 0
1, 31818, Note_on_c, 0, 40, 0
1, 31818, Note_on_c, 0, 79, 0
1, 31825, Note_on_c, 0, 74, 67
1, 31825, Note_on_c, 0, 78, 55
1, 31826, Note_on_c, 0, 38, 72
1, 31916, Note_on_c, 0, 38, 0
1, 31923, Note_on_c, 0, 42, 72
1, 32008, Note_on_c, 0, 78, 0
1, 32008, Note_on_c, 0, 74, 0
1, 32014, Note_on_c, 0, 42, 0
1, 32020, Note_on_c, 0, 76, 67
1, 32020, Note_on_c, 0, 73, 67
1, 32021, Note_on_c, 0, 43, 72
1, 32111, Note_on_c, 0, 43, 0
1, 32118, Note_on_c, 0, 45, 72
1, 32203, Note_on_c, 0, 73, 0
1, 32203, Note_on_c, 0, 76, 0
1, 32209, Note_on_c, 0, 45, 0
1, 32216, Note_on_c, 0, 78, 55
1, 32216, Note_on_c, 0, 74, 67
1, 32217, Note_on_c, 0, 38, 72
1, 32308, Note_on_c, 0, 38, 0
1, 32308, Note_on_c, 0, 74, 0
1, 32315, Note_on_c, 0, 69, 67
1, 32315, Note_on_c, 0, 52, 72
1, 32407, Note_on_c, 0, 52, 0
1, 32407, Note_on_c, 0, 69, 0
1, 32412, Note_on_c, 0, 71, 67
1, 32413, Note_on_c, 0, 50, 72
1, 32504, Note_on_c, 0, 50, 0
1, 32504, Note_on_c, 0, 71, 0
1, 32510, Note_on_c, 0, 73, 67
1, 32511, Note_on_c, 0, 49, 72
1, 32602, Note_on_c, 0, 49, 0
1, 32602, Note_on_c, 0, 73, 0
1, 32607, Note_on_c, 0, 74, 67
1, 32608, Note_on_c, 0, 47, 72
1, 32667, Note_on_c, 0, 78, 0
1, 32698, Note_on_c, 0, 47, 0
1, 32704, Note_on_c, 0, 78, 55
1, 32705, Note_on_c, 0, 45, 72
1, 32795, Note_on_c, 0, 45, 0
1, 32795, Note_on_c, 0, 78, 0
1, 32801, Note_on_c, 0, 80, 55
1, 32802, Note_on_c, 0, 44, 72
1, 32892, Note_on_c, 0, 44, 0
1, 32892, Note_on_c, 0, 80, 0
1, 32897, Note_on_c, 0, 81, 55
1, 32898, Note_on_c, 0, 42, 72
1, 32988, Note_on_c, 0, 42, 0
1, 32988, Note_on_c, 0, 81, 0
1, 32994, Note_on_c, 0, 83, 55
1, 32995, Note_on_c, 0, 41, 72
1, 33063, Note_on_c, 0, 74, 0
1, 33087, Note_on_c, 0, 41, 0
1, 33094, Note_on_c, 0, 73, 67
1, 33095, Note_on_c, 0, 54, 72
1, 33182, Note_on_c, 0, 83, 0
1, 33188, Note_on_c, 0, 54, 0
1, 33189, Note_on_c, 0, 73, 0
1, 33195, Note_on_c, 0, 81, 55
1, 33195, Note_on_c, 0, 78, 55
1, 33196, Note_on_c, 0, 56, 72
1, 33287, Note_on_c, 0, 56, 0
1, 33288, Note_on_c, 0, 78, 0
1, 33294, Note_on_c, 0, 76, 67
1, 33294, Note_on_c, 0, 57, 72
1, 33386, Note_on_c, 0, 57, 0
1, 33386, Note_on_c, 0, 76, 0
1, 33393, Note_on_c, 0, 74, 67
1, 33393, Note_on_c, 0, 59, 72
1, 33485, Note_on_c, 0, 59, 0
1, 33485, Note_on_c, 0, 74, 0
1, 33492, Note_on_c, 0, 73, 67
1, 33492, Note_on_c, 0, 61, 72
1, 33567, Note_on_c, 0, 81, 0
1, 33585, Note_on_c, 0, 61, 0
1, 33585, Note_on_c, 0, 73, 0
1, 33592, Note_on_c, 0, 71, 67
1, 33592, Note_on_c, 0, 79, 55
1, 33592, Note_on_c, 0, 62, 72
1, 33684, Note_on_c, 0, 62, 0
1, 33685, Note_on_c, 0, 79, 0
1, 33691, Note_on_c, 0, 78, 55
1, 33692, Note_on_c, 0, 59, 72
1, 33783, Note_on_c, 0, 59, 0
1, 33784, Note_on_c, 0, 78, 0
1, 33791, Note_on_c, 0, 77, 55
1, 33791, Note_on_c, 0, 61, 72
1, 33881, Note_on_c, 0, 61, 0
1, 33882, Note_on_c, 0, 77, 0
1, 33888, Note_on_c, 0, 73, 67
1, 33889, Note_on_c, 0, 42, 72
1, 33961, Note_on_c, 0, 71, 0
1, 33978, Note_on_c, 0, 42, 0
1, 33979, Note_on_c, 0, 73, 0
1, 33985, Note_on_c, 0, 78, 55
1, 33986, Note_on_c, 0, 69, 67
1, 33986, Note_on_c, 0, 44, 72
1, 34075, Note_on_c, 0, 44, 0
1, 34075, Note_on_c, 0, 78, 0
1, 34081, Note_on_c, 0, 76, 67
1, 34082, Note_on_c, 0, 45, 72
1, 34170, Note_on_c, 0, 45, 0
1, 34171, Note_on_c, 0, 76, 0
1, 34176, Note_on_c, 0, 74, 67
1, 34177, Note_on_c, 0, 47, 72
1, 34255, Note_on_c, 0, 69, 0
1, 34266, Note_on_c, 0, 47, 0
1, 34273, Note_on_c, 0, 69, 67
1, 34274, Note_on_c, 0, 49, 72
1, 34365, Note_on_c, 0, 49, 0
1, 34365, Note_on_c, 0, 69, 0
1, 34370, Note_on_c, 0, 68, 67
1, 34371, Note_on_c, 0, 50, 72
1, 34463, Note_on_c, 0, 50, 0
1, 34463, Note_on_c, 0, 68, 0
1, 34469, Note_on_c, 0, 66, 72
1, 34470, Note_on_c, 0, 47, 72
1, 34561, Note_on_c, 0, 47, 0
1, 34562, Note_on_c, 0, 66, 0
1, 34567, Note_on_c, 0, 65, 72
1, 34568, Note_on_c, 0, 49, 72
1, 34659, Note_on_c, 0, 49, 0
1, 34659, Note_on_c, 0, 65, 0
1, 34665, Note_on_c, 0, 66, 72
1, 34666, Note_on_c, 0, 51, 72
1, 34727, Note_on_c, 0, 74, 0
1, 34756, Note_on_c, 0, 51, 0
1, 34757, Note_on_c, 0, 66, 0
1, 34762, Note_on_c, 0, 73, 67
1, 34763, Note_on_c, 0, 68, 67
1, 34763, Note_on_c, 0, 53, 72
1, 34852, Note_on_c, 0, 53, 0
1, 34853, Note_on_c, 0, 73, 0
1, 34859, Note_on_c, 0, 71, 67
1, 34860, Note_on_c, 0, 49, 72
1, 34950, Note_on_c, 0, 49, 0
1, 34951, Note_on_c, 0, 71, 0
1, 34956, Note_on_c, 0, 69, 67
1, 34956, Note_on_c, 0, 54, 72
1, 35047, Note_on_c, 0, 54, 0
1, 35048, Note_on_c, 0, 69, 0
1, 35054, Note_on_c, 0, 71, 67
1, 35054, Note_on_c, 0, 56, 72
1, 35127, Note_on_c, 0, 68, 0
1, 35144, Note_on_c, 0, 56, 0
1, 35145, Note_on_c, 0, 71, 0
1, 35151, Note_on_c, 0, 73, 67
1, 35151, Note_on_c, 0, 66, 72
1, 35152, Note_on_c, 0, 57, 72
1, 35242, Note_on_c, 0, 57, 0
1, 35243, Note_on_c, 0, 66, 0
1, 35249, Note_on_c, 0, 54, 72
1, 35249, Note_on_c, 0, 64, 72
1, 35341, Note_on_c, 0, 64, 0
1, 35341, Note_on_c, 0, 54, 0
1, 35348, Note_on_c, 0, 62, 72
1, 35348, Note_on_c, 0, 59, 72
1, 35438, Note_on_c, 0, 59, 0
1, 35444, Note_on_c, 0, 57, 72
1, 35518, Note_on_c, 0, 73, 0
1, 35535, Note_on_c, 0, 57, 0
1, 35542, Note_on_c, 0, 71, 67
1, 35542, Note_on_c, 0, 56, 72
1, 35633, Note_on_c, 0, 56, 0
1, 35640, Note_on_c, 0, 54, 72
1, 35712, Note_on_c, 0, 62, 0
1, 35730, Note_on_c, 0, 54, 0
1, 35736, Note_on_c, 0, 61, 72
1, 35737, Note_on_c, 0, 53, 72
1, 35827, Note_on_c, 0, 53, 0
1, 35833, Note_on_c, 0, 49, 72
1, 35906, Note_on_c, 0, 71, 0
1, 35924, Note_on_c, 0, 49, 0
1, 35931, Note_on_c, 0, 69, 67
1, 35931, Note_on_c, 0, 54, 72
1, 36022, Note_on_c, 0, 54, 0
1, 36028, Note_on_c, 0, 52, 72
1, 36102, Note_on_c, 0, 61, 0
1, 36120, Note_on_c, 0, 52, 0
1, 36127, Note_on_c, 0, 59, 72
1, 36127, Note_on_c, 0, 50, 72
1, 36216, Note_on_c, 0, 50, 0
1, 36223, Note_on_c, 0, 49, 72
1, 36297, Note_on_c, 0, 69, 0
1, 36314, Note_on_c, 0, 49, 0
1, 36321, Note_on_c, 0, 68, 67
1, 36321, Note_on_c, 0, 50, 72
1, 36411, Note_on_c, 0, 50, 0
1, 36412, Note_on_c, 0, 68, 0
1, 36418, Note_on_c, 0, 66, 72
1, 36418, Note_on_c, 0, 47, 72
1, 36507, Note_on_c, 0, 47, 0
1, 36508, Note_on_c, 0, 66, 0
1, 36515, Note_on_c, 0, 65, 72
1, 36515, Note_on_c, 0, 49, 72
1, 36581, Note_on_c, 0, 59, 0
1, 36604, Note_on_c, 0, 49, 0
1, 36605, Note_on_c, 0, 65, 0
1, 36611, Note_on_c, 0, 74, 67
1, 36611, Note_on_c, 0, 65, 72
1, 36612, Note_on_c, 0, 47, 72
1, 36702, Note_on_c, 0, 47, 0
1, 36702, Note_on_c, 0, 65, 0
1, 36702, Note_on_c, 0, 74, 0
1, 36708, Note_on_c, 0, 73, 67
1, 36709, Note_on_c, 0, 66, 72
1, 36709, Note_on_c, 0, 45, 72
1, 36800, Note_on_c, 0, 45, 0
1, 36800, Note_on_c, 0, 66, 0
1, 36800, Note_on_c, 0, 73, 0
1, 36806, Note_on_c, 0, 68, 67
1, 36807, Note_on_c, 0, 71, 67
1, 36807, Note_on_c, 0, 47, 72
1, 36897, Note_on_c, 0, 47, 0
1, 36898, Note_on_c, 0, 71, 0
1, 36898, Note_on_c, 0, 68, 0
1, 36904, Note_on_c, 0, 69, 67
1, 36905, Note_on_c, 0, 61, 72
1, 36905, Note_on_c, 0, 49, 72
1, 36996, Note_on_c, 0, 49, 0
1, 36996, Note_on_c, 0, 61, 0
1, 37002, Note_on_c, 0, 66, 72
1, 37003, Note_on_c, 0, 47, 72
1, 37089, Note_on_c, 0, 69, 0
1, 37094, Note_on_c, 0, 47, 0
1, 37101, Note_on_c, 0, 68, 67
1, 37102, Note_on_c, 0, 49, 72
1, 37187, Note_on_c, 0, 66, 0
1, 37192, Note_on_c, 0, 49, 0
1, 37199, Note_on_c, 0, 65, 72
1, 37200, Note_on_c, 0, 37, 72
1, 37284, Note_on_c, 0, 68, 0
1, 37289, Note_on_c, 0, 37, 0
1, 37290, Note_on_c, 0, 65, 0
1, 37296, Note_on_c, 0, 66, 72
1, 37296, Note_on_c, 0, 42, 72
1, 37386, Note_on_c, 0, 42, 0
1, 37393, Note_on_c, 0, 49, 72
1, 37477, Note_on_c, 0, 66, 0
1, 37483, Note_on_c, 0, 49, 0
1, 37490, Note_on_c, 0, 72, 67
1, 37490, Note_on_c, 0, 51, 72
1, 37580, Note_on_c, 0, 51, 0
1, 37587, Note_on_c, 0, 52, 72
1, 37678, Note_on_c, 0, 52, 0
1, 37685, Note_on_c, 0, 75, 67
1, 37685, Note_on_c, 0, 54, 72
1, 37776, Note_on_c, 0, 54, 0
1, 37783, Note_on_c, 0, 57, 72
1, 37858, Note_on_c, 0, 72, 0
1, 37869, Note_on_c, 0, 75, 0
1, 37874, Note_on_c, 0, 57, 0
1, 37881, Note_on_c, 0, 71, 67
1, 37881, Note_on_c, 0, 76, 61
1, 37882, Note_on_c, 0, 55, 72
1, 37972, Note_on_c, 0, 55, 0
1, 37972, Note_on_c, 0, 71, 0
1, 37973, Note_on_c, 0, 76, 0
1, 37979, Note_on_c, 0, 78, 49
1, 37979, Note_on_c, 0, 69, 67
1, 37980, Note_on_c, 0, 54, 72
1, 38068, Note_on_c, 0, 54, 0
1, 38068, Note_on_c, 0, 69, 0
1, 38069, Note_on_c, 0, 78, 0
1, 38075, Note_on_c, 0, 71, 67
1, 38075, Note_on_c, 0, 52, 72
1, 38076, Note_on_c, 0, 67, 72
1, 38165, Note_on_c, 0, 67, 0
1, 38165, Note_on_c, 0, 52, 0
1, 38166, Note_on_c, 0, 71, 0
1, 38171, Note_on_c, 0, 84, 49
1, 38171, Note_on_c, 0, 75, 67
1, 38172, Note_on_c, 0, 54, 72
1, 38262, Note_on_c, 0, 54, 0
1, 38262, Note_on_c, 0, 75, 0
1, 38263, Note_on_c, 0, 84, 0
1, 38269, Note_on_c, 0, 83, 49
1, 38269, Note_on_c, 0, 76, 61
1, 38269, Note_on_c, 0, 55, 72
1, 38359, Note_on_c, 0, 55, 0
1, 38359, Note_on_c, 0, 76, 0
1, 38360, Note_on_c, 0, 83, 0
1, 38366, Note_on_c, 0, 81, 55
1, 38366, Note_on_c, 0, 78, 55
1, 38366, Note_on_c, 0, 57, 72
1, 38459, Note_on_c, 0, 57, 0
1, 38459, Note_on_c, 0, 81, 0
1, 38460, Note_on_c, 0, 78, 0
1, 38466, Note_on_c, 0, 79, 55
1, 38466, Note_on_c, 0, 71, 67
1, 38467, Note_on_c, 0, 59, 72
1, 38558, Note_on_c, 0, 59, 0
1, 38558, Note_on_c, 0, 71, 0
1, 38564, Note_on_c, 0, 76, 67
1, 38564, Note_on_c, 0, 57, 72
1, 38650, Note_on_c, 0, 79, 0
1, 38655, Note_on_c, 0, 57, 0
1, 38662, Note_on_c, 0, 78, 55
1, 38662, Note_on_c, 0, 59, 72
1, 38748, Note_on_c, 0, 76, 0
1, 38753, Note_on_c, 0, 59, 0
1, 38760, Note_on_c, 0, 75, 67
1, 38760, Note_on_c, 0, 47, 72
1, 38844, Note_on_c, 0, 78, 0
1, 38850, Note_on_c, 0, 47, 0
1, 38851, Note_on_c, 0, 75, 0
1, 38856, Note_on_c, 0, 76, 67
1, 38857, Note_on_c, 0, 52, 72
1, 38946, Note_on_c, 0, 52, 0
1, 38952, Note_on_c, 0, 59, 72
1, 39036, Note_on_c, 0, 76, 0
1, 39042, Note_on_c, 0, 59, 0
1, 39048, Note_on_c, 0, 82, 55
1, 39049, Note_on_c, 0, 61, 72
1, 39139, Note_on_c, 0, 61, 0
1, 39145, Note_on_c, 0, 62, 72
1, 39235, Note_on_c, 0, 62, 0
1, 39242, Note_on_c, 0, 73, 67
1, 39243, Note_on_c, 0, 64, 72
1, 39333, Note_on_c, 0, 64, 0
1, 39338, Note_on_c, 0, 55, 72
1, 39411, Note_on_c, 0, 82, 0
1, 39423, Note_on_c, 0, 73, 0
1, 39429, Note_on_c, 0, 55, 0
1, 39435, Note_on_c, 0, 74, 67
1, 39436, Note_on_c, 0, 81, 55
1, 39436, Note_on_c, 0, 54, 72
1, 39526, Note_on_c, 0, 54, 0
1, 39530, Note_on_c, 0, 81, 0
1, 39531, Note_on_c, 0, 74, 0
1, 39532, Note_on_c, 0, 76, 67
1, 39533, Note_on_c, 0, 79, 55
1, 39533, Note_on_c, 0, 52, 72
1, 39623, Note_on_c, 0, 52, 0
1, 39627, Note_on_c, 0, 79, 0
1, 39628, Note_on_c, 0, 76, 0
1, 39629, Note_on_c, 0, 78, 55
1, 39630, Note_on_c, 0, 69, 67
1, 39630, Note_on_c, 0, 50, 72
1, 39721, Note_on_c, 0, 50, 0
1, 39725, Note_on_c, 0, 69, 0
1, 39727, Note_on_c, 0, 70, 67
1, 39728, Note_on_c, 0, 73, 67
1, 39728, Note_on_c, 0, 52, 72
1, 39738, Note_on_c, 0, 78, 0
1, 39817, Note_on_c, 0, 52, 0
1, 39821, Note_on_c, 0, 73, 0
1, 39822, Note_on_c, 0, 70, 0
1, 39824, Note_on_c, 0, 69, 67
1, 39825, Note_on_c, 0, 74, 67
1, 39825, Note_on_c, 0, 54, 72
1, 39915, Note_on_c, 0, 54, 0
1, 39919, Note_on_c, 0, 74, 0
1, 39920, Note_on_c, 0, 69, 0
1, 39922, Note_on_c, 0, 76, 67
1, 39923, Note_on_c, 0, 67, 72
1, 39923, Note_on_c, 0, 55, 72
1, 40011, Note_on_c, 0, 55, 0
1, 40012, Note_on_c, 0, 67, 0
1, 40018, Note_on_c, 0, 69, 67
1, 40019, Note_on_c, 0, 66, 72
1, 40019, Note_on_c, 0, 57, 72
1, 40026, Note_on_c, 0, 76, 0
1, 40107, Note_on_c, 0, 57, 0
1, 40112, Note_on_c, 0, 69, 0
1, 40115, Note_on_c, 0, 74, 67
1, 40115, Note_on_c, 0, 55, 72
1, 40198, Note_on_c, 0, 66, 0
1, 40203, Note_on_c, 0, 55, 0
1, 40209, Note_on_c, 0, 64, 72
1, 40210, Note_on_c, 0, 57, 72
1, 40293, Note_on_c, 0, 74, 0
1, 40298, Note_on_c, 0, 57, 0
1, 40305, Note_on_c, 0, 73, 67
1, 40306, Note_on_c, 0, 45, 72
1, 40389, Note_on_c, 0, 64, 0
1, 40394, Note_on_c, 0, 45, 0
1, 40395, Note_on_c, 0, 73, 0
1, 40400, Note_on_c, 0, 66, 72
1, 40401, Note_on_c, 0, 62, 72
1, 40401, Note_on_c, 0, 47, 72
1, 40490, Note_on_c, 0, 47, 0
1, 40491, Note_on_c, 0, 66, 0
1, 40496, Note_on_c, 0, 71, 67
1, 40497, Note_on_c, 0, 50, 72
1, 40581, Note_on_c, 0, 62, 0
1, 40586, Note_on_c, 0, 50, 0
1, 40593, Note_on_c, 0, 61, 72
1, 40593, Note_on_c, 0, 54, 72
1, 40676, Note_on_c, 0, 71, 0
1, 40681, Note_on_c, 0, 54, 0
1, 40688, Note_on_c, 0, 69, 67
1, 40689, Note_on_c, 0, 42, 72
1, 40772, Note_on_c, 0, 61, 0
1, 40777, Note_on_c, 0, 42, 0
1, 40778, Note_on_c, 0, 69, 0
1, 40784, Note_on_c, 0, 59, 72
1, 40784, Note_on_c, 0, 62, 72
1, 40784, Note_on_c, 0, 43, 72
1, 40872, Note_on_c, 0, 43, 0
1, 40873, Note_on_c, 0, 62, 0
1, 40879, Note_on_c, 0, 67, 72
1, 40880, Note_on_c, 0, 47, 72
1, 40963, Note_on_c, 0, 59, 0
1, 40968, Note_on_c, 0, 47, 0
1, 40976, Note_on_c, 0, 50, 72
1, 40976, Note_on_c, 0, 57, 72
1, 41059, Note_on_c, 0, 67, 0
1, 41072, Note_on_c, 0, 66, 72
1, 41153, Note_on_c, 0, 57, 0
1, 41159, Note_on_c, 0, 66, 0
1, 41165, Note_on_c, 0, 68, 67
1, 41165, Note_on_c, 0, 59, 72
1, 41241, Note_on_c, 0, 50, 0
1, 41260, Note_on_c, 0, 50, 72
1, 41343, Note_on_c, 0, 59, 0
1, 41343, Note_on_c, 0, 68, 0
1, 41349, Note_on_c, 0, 50, 0
1, 41356, Note_on_c, 0, 70, 67
1, 41356, Note_on_c, 0, 64, 72
1, 41357, Note_on_c, 0, 49, 72
1, 41446, Note_on_c, 0, 49, 0
1, 41446, Note_on_c, 0, 70, 0
1, 41452, Note_on_c, 0, 71, 67
1, 41452, Note_on_c, 0, 47, 72
1, 41542, Note_on_c, 0, 47, 0
1, 41543, Note_on_c, 0, 71, 0
1, 41548, Note_on_c, 0, 73, 67
1, 41548, Note_on_c, 0, 46, 72
1, 41626, Note_on_c, 0, 64, 0
1, 41637, Note_on_c, 0, 46, 0
1, 41644, Note_on_c, 0, 67, 72
1, 41645, Note_on_c, 0, 42, 72
1, 41732, Note_on_c, 0, 42, 0
1, 41732, Note_on_c, 0, 67, 0
1, 41739, Note_on_c, 0, 66, 72
1, 41739, Note_on_c, 0, 44, 72
1, 41827, Note_on_c, 0, 44, 0
1, 41828, Note_on_c, 0, 66, 0
1, 41833, Note_on_c, 0, 64, 72
1, 41833, Note_on_c, 0, 46, 72
1, 41922, Note_on_c, 0, 46, 0
1, 41923, Note_on_c, 0, 64, 0
1, 41928, Note_on_c, 0, 62, 72
1, 41928, Note_on_c, 0, 47, 72
1, 41995, Note_on_c, 0, 73, 0
1, 42017, Note_on_c, 0, 47, 0
1, 42024, Note_on_c, 0, 71, 67
1, 42024, Note_on_c, 0, 54, 72
1, 42108, Note_on_c, 0, 62, 0
1, 42113, Note_on_c, 0, 54, 0
1, 42114, Note_on_c, 0, 71, 0
1, 42120, Note_on_c, 0, 73, 67
1, 42120, Note_on_c, 0, 67, 72
1, 42121, Note_on_c, 0, 52, 72
1, 42210, Note_on_c, 0, 52, 0
1, 42211, Note_on_c, 0, 73, 0
1, 42216, Note_on_c, 0, 74, 67
1, 42216, Note_on_c, 0, 50, 72
1, 42306, Note_on_c, 0, 50, 0
1, 42307, Note_on_c, 0, 74, 0
1, 42313, Note_on_c, 0, 76, 67
1, 42313, Note_on_c, 0, 49, 72
1, 42391, Note_on_c, 0, 67, 0
1, 42401, Note_on_c, 0, 49, 0
1, 42408, Note_on_c, 0, 71, 67
1, 42408, Note_on_c, 0, 45, 72
1, 42496, Note_on_c, 0, 45, 0
1, 42497, Note_on_c, 0, 71, 0
1, 42503, Note_on_c, 0, 69, 67
1, 42504, Note_on_c, 0, 47, 72
1, 42591, Note_on_c, 0, 47, 0
1, 42592, Note_on_c, 0, 69, 0
1, 42598, Note_on_c, 0, 67, 72
1, 42599, Note_on_c, 0, 49, 72
1, 42688, Note_on_c, 0, 49, 0
1, 42689, Note_on_c, 0, 67, 0
1, 42694, Note_on_c, 0, 66, 72
1, 42695, Note_on_c, 0, 50, 72
1, 42762, Note_on_c, 0, 76, 0
1, 42785, Note_on_c, 0, 50, 0
1, 42792, Note_on_c, 0, 74, 67
1, 42792, Note_on_c, 0, 57, 72
1, 42876, Note_on_c, 0, 66, 0
1, 42882, Note_on_c, 0, 57, 0
1, 42883, Note_on_c, 0, 74, 0
1, 42888, Note_on_c, 0, 71, 67
1, 42888, Note_on_c, 0, 76, 67
1, 42889, Note_on_c, 0, 55, 72
1, 42979, Note_on_c, 0, 55, 0
1, 42980, Note_on_c, 0, 76, 0
1, 42986, Note_on_c, 0, 78, 55
1, 42986, Note_on_c, 0, 54, 72
1, 43074, Note_on_c, 0, 54, 0
1, 43075, Note_on_c, 0, 78, 0
1, 43081, Note_on_c, 0, 79, 55
1, 43082, Note_on_c, 0, 52, 72
1, 43158, Note_on_c, 0, 71, 0
1, 43169, Note_on_c, 0, 52, 0
1, 43176, Note_on_c, 0, 74, 67
1, 43176, Note_on_c, 0, 49, 72
1, 43263, Note_on_c, 0, 49, 0
1, 43264, Note_on_c, 0, 74, 0
1, 43270, Note_on_c, 0, 73, 67
1, 43270, Note_on_c, 0, 50, 72
1, 43358, Note_on_c, 0, 50, 0
1, 43358, Note_on_c, 0, 73, 0
1, 43365, Note_on_c, 0, 71, 67
1, 43365, Note_on_c, 0, 52, 72
1, 43453, Note_on_c, 0, 52, 0
1, 43454, Note_on_c, 0, 71, 0
1, 43461, Note_on_c, 0, 73, 67
1, 43461, Note_on_c, 0, 46, 72
1, 43550, Note_on_c, 0, 46, 0
1, 43551, Note_on_c, 0, 73, 0
1, 43558, Note_on_c, 0, 76, 67
1, 43558, Note_on_c, 0, 54, 72
1, 43618, Note_on_c, 0, 79, 0
1, 43648, Note_on_c, 0, 54, 0
1, 43648, Note_on_c, 0, 76, 0
1, 43654, Note_on_c, 0, 78, 55
1, 43654, Note_on_c, 0, 74, 67
1, 43655, Note_on_c, 0, 56, 72
1, 43744, Note_on_c, 0, 56, 0
1, 43744, Note_on_c, 0, 74, 0
1, 43751, Note_on_c, 0, 73, 67
1, 43751, Note_on_c, 0, 58, 72
1, 43841, Note_on_c, 0, 58, 0
1, 43841, Note_on_c, 0, 73, 0
1, 43848, Note_on_c, 0, 74, 67
1, 43848, Note_on_c, 0, 59, 72
1, 43926, Note_on_c, 0, 78, 0
1, 43938, Note_on_c, 0, 59, 0
1, 43944, Note_on_c, 0, 81, 55
1, 43944, Note_on_c, 0, 47, 72
1, 44026, Note_on_c, 0, 74, 0
1, 44032, Note_on_c, 0, 47, 0
1, 44032, Note_on_c, 0, 81, 0
1, 44038, Note_on_c, 0, 71, 67
1, 44038, Note_on_c, 0, 79, 55
1, 44039, Note_on_c, 0, 49, 72
1, 44126, Note_on_c, 0, 49, 0
1, 44126, Note_on_c, 0, 79, 0
1, 44133, Note_on_c, 0, 78, 55
1, 44133, Note_on_c, 0, 50, 72
1, 44222, Note_on_c, 0, 50, 0
1, 44222, Note_on_c, 0, 78, 0
1, 44228, Note_on_c, 0, 76, 67
1, 44228, Note_on_c, 0, 52, 72
1, 44305, Note_on_c, 0, 71, 0
1, 44316, Note_on_c, 0, 52, 0
1, 44323, Note_on_c, 0, 74, 67
1, 44323, Note_on_c, 0, 54, 72
1, 44405, Note_on_c, 0, 76, 0
1, 44411, Note_on_c, 0, 54, 0
1, 44412, Note_on_c, 0, 74, 0
1, 44417, Note_on_c, 0, 80, 49
1, 44417, Note_on_c, 0, 73, 67
1, 44418, Note_on_c, 0, 52, 72
1, 44506, Note_on_c, 0, 52, 0
1, 44507, Note_on_c, 0, 73, 0
1, 44512, Note_on_c, 0, 71, 67
1, 44512, Note_on_c, 0, 50, 72
1, 44602, Note_on_c, 0, 50, 0
1, 44603, Note_on_c, 0, 71, 0
1, 44608, Note_on_c, 0, 76, 67
1, 44608, Note_on_c, 0, 49, 72
1, 44684, Note_on_c, 0, 80, 0
1, 44697, Note_on_c, 0, 49, 0
1, 44704, Note_on_c, 0, 83, 49
1, 44704, Note_on_c, 0, 61, 72
1, 44787, Note_on_c, 0, 76, 0
1, 44792, Note_on_c, 0, 61, 0
1, 44793, Note_on_c, 0, 83, 0
1, 44799, Note_on_c, 0, 73, 67
1, 44799, Note_on_c, 0, 81, 49
1, 44800, Note_on_c, 0, 62, 72
1, 44888, Note_on_c, 0, 62, 0
1, 44889, Note_on_c, 0, 81, 0
1, 44894, Note_on_c, 0, 80, 49
1, 44894, Note_on_c, 0, 64, 72
1, 44982, Note_on_c, 0, 64, 0
1, 44983, Note_on_c, 0, 80, 0
1, 44989, Note_on_c, 0, 81, 49
1, 44989, Note_on_c, 0, 66, 72
1, 45066, Note_on_c, 0, 73, 0
1, 45077, Note_on_c, 0, 66, 0
1, 45083, Note_on_c, 0, 76, 67
1, 45084, Note_on_c, 0, 67, 72
1, 45166, Note_on_c, 0, 81, 0
1, 45171, Note_on_c, 0, 67, 0
1, 45172, Note_on_c, 0, 76, 0
1, 45179, Note_on_c, 0, 82, 49
1, 45179, Note_on_c, 0, 74, 67
1, 45180, Note_on_c, 0, 66, 72
1, 45264, Note_on_c, 0, 66, 0
1, 45265, Note_on_c, 0, 74, 0
1, 45271, Note_on_c, 0, 73, 67
1, 45272, Note_on_c, 0, 64, 72
1, 45360, Note_on_c, 0, 64, 0
1, 45360, Note_on_c, 0, 73, 0
1, 45365, Note_on_c, 0, 78, 55
1, 45366, Note_on_c, 0, 62, 72
1, 45442, Note_on_c, 0, 82, 0
1, 45454, Note_on_c, 0, 62, 0
1, 45460, Note_on_c, 0, 84, 55
1, 45460, Note_on_c, 0, 50, 72
1, 45543, Note_on_c, 0, 78, 0
1, 45549, Note_on_c, 0, 50, 0
1, 45549, Note_on_c, 0, 84, 0
1, 45555, Note_on_c, 0, 74, 67
1, 45555, Note_on_c, 0, 83, 55
1, 45556, Note_on_c, 0, 52, 72
1, 45641, Note_on_c, 0, 52, 0
1, 45641, Note_on_c, 0, 83, 0
1, 45647, Note_on_c, 0, 82, 55
1, 45647, Note_on_c, 0, 54, 72
1, 45734, Note_on_c, 0, 54, 0
1, 45734, Note_on_c, 0, 82, 0
1, 45741, Note_on_c, 0, 83, 55
1, 45742, Note_on_c, 0, 55, 72
1, 45816, Note_on_c, 0, 74, 0
1, 45827, Note_on_c, 0, 55, 0
1, 45834, Note_on_c, 0, 76, 67
1, 45835, Note_on_c, 0, 54, 72
1, 45921, Note_on_c, 0, 54, 0
1, 45922, Note_on_c, 0, 76, 0
1, 45927, Note_on_c, 0, 78, 55
1, 45928, Note_on_c, 0, 52, 72
1, 46004, Note_on_c, 0, 83, 0
1, 46014, Note_on_c, 0, 52, 0
1, 46020, Note_on_c, 0, 81, 55
1, 46021, Note_on_c, 0, 51, 72
1, 46109, Note_on_c, 0, 51, 0
1, 46110, Note_on_c, 0, 81, 0
1, 46116, Note_on_c, 0, 79, 55
1, 46117, Note_on_c, 0, 52, 72
1, 46206, Note_on_c, 0, 52, 0
1, 46212, Note_on_c, 0, 50, 72
1, 46284, Note_on_c, 0, 78, 0
1, 46301, Note_on_c, 0, 50, 0
1, 46308, Note_on_c, 0, 76, 67
1, 46308, Note_on_c, 0, 49, 72
1, 46397, Note_on_c, 0, 49, 0
1, 46403, Note_on_c, 0, 47, 72
1, 46475, Note_on_c, 0, 79, 0
1, 46492, Note_on_c, 0, 47, 0
1, 46498, Note_on_c, 0, 78, 55
1, 46498, Note_on_c, 0, 46, 72
1, 46585, Note_on_c, 0, 46, 0
1, 46592, Note_on_c, 0, 54, 72
1, 46663, Note_on_c, 0, 76, 0
1, 46680, Note_on_c, 0, 54, 0
1, 46686, Note_on_c, 0, 74, 67
1, 46686, Note_on_c, 0, 59, 72
1, 46775, Note_on_c, 0, 59, 0
1, 46782, Note_on_c, 0, 57, 72
1, 46854, Note_on_c, 0, 78, 0
1, 46870, Note_on_c, 0, 57, 0
1, 46877, Note_on_c, 0, 76, 67
1, 46877, Note_on_c, 0, 56, 72
1, 46965, Note_on_c, 0, 56, 0
1, 46971, Note_on_c, 0, 54, 72
1, 47043, Note_on_c, 0, 74, 0
1, 47059, Note_on_c, 0, 54, 0
1, 47066, Note_on_c, 0, 73, 67
1, 47066, Note_on_c, 0, 56, 72
1, 47153, Note_on_c, 0, 56, 0
1, 47160, Note_on_c, 0, 58, 72
1, 47231, Note_on_c, 0, 76, 0
1, 47247, Note_on_c, 0, 58, 0
1, 47254, Note_on_c, 0, 74, 67
1, 47255, Note_on_c, 0, 59, 72
1, 47341, Note_on_c, 0, 59, 0
1, 47347, Note_on_c, 0, 47, 72
1, 47418, Note_on_c, 0, 73, 0
1, 47435, Note_on_c, 0, 47, 0
1, 47441, Note_on_c, 0, 71, 67
1, 47442, Note_on_c, 0, 49, 72
1, 47530, Note_on_c, 0, 49, 0
1, 47530, Note_on_c, 0, 71, 0
1, 47536, Note_on_c, 0, 69, 67
1, 47537, Note_on_c, 0, 50, 72
1, 47625, Note_on_c, 0, 50, 0
1, 47625, Note_on_c, 0, 69, 0
1, 47631, Note_on_c, 0, 67, 72
1, 47631, Note_on_c, 0, 52, 72
1, 47719, Note_on_c, 0, 52, 0
1, 47726, Note_on_c, 0, 54, 72
1, 47786, Note_on_c, 0, 74, 0
1, 47814, Note_on_c, 0, 54, 0
1, 47820, Note_on_c, 0, 73, 67
1, 47820, Note_on_c, 0, 55, 72
1, 47908, Note_on_c, 0, 55, 0
1, 47908, Note_on_c, 0, 73, 0
1, 47915, Note_on_c, 0, 71, 67
1, 47916, Note_on_c, 0, 52, 72
1, 48003, Note_on_c, 0, 52, 0
1, 48003, Note_on_c, 0, 71, 0
1, 48010, Note_on_c, 0, 70, 67
1, 48011, Note_on_c, 0, 54, 72
1, 48076, Note_on_c, 0, 67, 0
1, 48098, Note_on_c, 0, 54, 0
1, 48098, Note_on_c, 0, 70, 0
1, 48104, Note_on_c, 0, 79, 55
1, 48105, Note_on_c, 0, 70, 67
1, 48105, Note_on_c, 0, 52, 72
1, 48192, Note_on_c, 0, 52, 0
1, 48192, Note_on_c, 0, 70, 0
1, 48193, Note_on_c, 0, 79, 0
1, 48199, Note_on_c, 0, 78, 55
1, 48200, Note_on_c, 0, 71, 67
1, 48200, Note_on_c, 0, 50, 72
1, 48288, Note_on_c, 0, 50, 0
1, 48288, Note_on_c, 0, 71, 0
1, 48289, Note_on_c, 0, 78, 0
1, 48295, Note_on_c, 0, 73, 67
1, 48296, Note_on_c, 0, 76, 67
1, 48296, Note_on_c, 0, 52, 72
1, 48384, Note_on_c, 0, 52, 0
1, 48384, Note_on_c, 0, 76, 0
1, 48384, Note_on_c, 0, 73, 0
1, 48390, Note_on_c, 0, 74, 67
1, 48391, Note_on_c, 0, 66, 72
1, 48391, Note_on_c, 0, 54, 72
1, 48480, Note_on_c, 0, 54, 0
1, 48480, Note_on_c, 0, 66, 0
1, 48485, Note_on_c, 0, 71, 67
1, 48486, Note_on_c, 0, 52, 72
1, 48568, Note_on_c, 0, 74, 0
1, 48575, Note_on_c, 0, 52, 0
1, 48581, Note_on_c, 0, 73, 67
1, 48582, Note_on_c, 0, 54, 72
1, 48665, Note_on_c, 0, 71, 0
1, 48670, Note_on_c, 0, 54, 0
1, 48676, Note_on_c, 0, 70, 67
1, 48677, Note_on_c, 0, 42, 72
1, 48760, Note_on_c, 0, 73, 0
1, 48765, Note_on_c, 0, 42, 0
1, 48765, Note_on_c, 0, 70, 0
1, 48771, Note_on_c, 0, 71, 67
1, 48772, Note_on_c, 0, 43, 72
1, 48864, Note_on_c, 0, 64, 72
1, 48947, Note_on_c, 0, 43, 0
1, 48959, Note_on_c, 0, 42, 72
1, 49040, Note_on_c, 0, 64, 0
1, 49052, Note_on_c, 0, 63, 72
1, 49133, Note_on_c, 0, 42, 0
1, 49138, Note_on_c, 0, 63, 0
1, 49145, Note_on_c, 0, 67, 72
1, 49145, Note_on_c, 0, 40, 72
1, 49200, Note_on_c, 0, 71, 0
1, 49236, Note_on_c, 0, 71, 67
1, 49316, Note_on_c, 0, 40, 0
1, 49327, Note_on_c, 0, 38, 72
1, 49408, Note_on_c, 0, 71, 0
1, 49419, Note_on_c, 0, 70, 67
1, 49488, Note_on_c, 0, 67, 0
1, 49499, Note_on_c, 0, 38, 0
1, 49505, Note_on_c, 0, 70, 0
1, 49511, Note_on_c, 0, 76, 67
1, 49511, Note_on_c, 0, 37, 72
1, 49596, Note_on_c, 0, 37, 0
1, 49603, Note_on_c, 0, 59, 72
1, 49603, Note_on_c, 0, 67, 72
1, 49689, Note_on_c, 0, 59, 0
1, 49696, Note_on_c, 0, 58, 72
1, 49777, Note_on_c, 0, 67, 0
1, 49782, Note_on_c, 0, 58, 0
1, 49789, Note_on_c, 0, 66, 72
1, 49789, Note_on_c, 0, 57, 72
1, 49860, Note_on_c, 0, 76, 0
1, 49876, Note_on_c, 0, 57, 0
1, 49877, Note_on_c, 0, 66, 0
1, 49882, Note_on_c, 0, 71, 67
1, 49883, Note_on_c, 0, 56, 72
1, 49969, Note_on_c, 0, 56, 0
1, 49975, Note_on_c, 0, 76, 67
1, 49976, Note_on_c, 0, 55, 72
1, 50063, Note_on_c, 0, 55, 0
1, 50069, Note_on_c, 0, 54, 72
1, 50150, Note_on_c, 0, 76, 0
1, 50156, Note_on_c, 0, 54, 0
1, 50163, Note_on_c, 0, 75, 67
1, 50163, Note_on_c, 0, 59, 72
1, 50250, Note_on_c, 0, 59, 0
1, 50250, Note_on_c, 0, 75, 0
1, 50256, Note_on_c, 0, 79, 55
1, 50256, Note_on_c, 0, 52, 72
1, 50313, Note_on_c, 0, 71, 0
1, 50342, Note_on_c, 0, 52, 0
1, 50349, Note_on_c, 0, 71, 67
1, 50349, Note_on_c, 0, 64, 72
1, 50435, Note_on_c, 0, 64, 0
1, 50442, Note_on_c, 0, 62, 72
1, 50523, Note_on_c, 0, 71, 0
1, 50528, Note_on_c, 0, 62, 0
1, 50535, Note_on_c, 0, 70, 67
1, 50536, Note_on_c, 0, 61, 72
1, 50622, Note_on_c, 0, 61, 0
1, 50623, Note_on_c, 0, 70, 0
1, 50629, Note_on_c, 0, 74, 67
1, 50630, Note_on_c, 0, 59, 72
1, 50694, Note_on_c, 0, 79, 0
1, 50717, Note_on_c, 0, 59, 0
1, 50723, Note_on_c, 0, 78, 55
1, 50723, Note_on_c, 0, 60, 72
1, 50810, Note_on_c, 0, 60, 0
1, 50817, Note_on_c, 0, 61, 72
1, 50898, Note_on_c, 0, 78, 0
1, 50904, Note_on_c, 0, 61, 0
1, 50910, Note_on_c, 0, 77, 55
1, 50910, Note_on_c, 0, 62, 72
1, 50997, Note_on_c, 0, 62, 0
1, 50998, Note_on_c, 0, 77, 0
1, 51004, Note_on_c, 0, 83, 49
1, 51004, Note_on_c, 0, 53, 72
1, 51069, Note_on_c, 0, 74, 0
1, 51090, Note_on_c, 0, 53, 0
1, 51091, Note_on_c, 0, 83, 0
1, 51097, Note_on_c, 0, 72, 67
1, 51097, Note_on_c, 0, 76, 61
1, 51098, Note_on_c, 0, 54, 72
1, 51140, Note_on_c, 0, 76, 0
1, 51143, Note_on_c, 0, 75, 61
1, 51183, Note_on_c, 0, 54, 0
1, 51184, Note_on_c, 0, 72, 0
1, 51187, Note_on_c, 0, 75, 0
1, 51190, Note_on_c, 0, 76, 61
1, 51191, Note_on_c, 0, 71, 67
1, 51191, Note_on_c, 0, 55, 72
1, 51277, Note_on_c, 0, 55, 0
1, 51278, Note_on_c, 0, 76, 0
1, 51284, Note_on_c, 0, 79, 49
1, 51285, Note_on_c, 0, 52, 72
1, 51372, Note_on_c, 0, 52, 0
1, 51373, Note_on_c, 0, 79, 0
1, 51378, Note_on_c, 0, 74, 67
1, 51379, Note_on_c, 0, 54, 72
1, 51466, Note_on_c, 0, 54, 0
1, 51472, Note_on_c, 0, 52, 72
1, 51543, Note_on_c, 0, 71, 0
1, 51554, Note_on_c, 0, 74, 0
1, 51560, Note_on_c, 0, 52, 0
1, 51565, Note_on_c, 0, 73, 67
1, 51566, Note_on_c, 0, 70, 67
1, 51566, Note_on_c, 0, 54, 72
1, 51653, Note_on_c, 0, 54, 0
1, 51659, Note_on_c, 0, 42, 72
1, 51740, Note_on_c, 0, 70, 0
1, 51741, Note_on_c, 0, 73, 0
1, 51746, Note_on_c, 0, 42, 0
1, 51752, Note_on_c, 0, 75, 67
1, 51752, Note_on_c, 0, 69, 67
1, 51753, Note_on_c, 0, 47, 72
1, 51838, Note_on_c, 0, 69, 0
1, 51839, Note_on_c, 0, 75, 0
1, 51844, Note_on_c, 0, 76, 67
1, 51844, Note_on_c, 0, 67, 72
1, 51929, Note_on_c, 0, 76, 0
1, 51936, Note_on_c, 0, 70, 67
1, 52018, Note_on_c, 0, 67, 0
1, 52023, Note_on_c, 0, 70, 0
1, 52029, Note_on_c, 0, 71, 67
1, 52030, Note_on_c, 0, 66, 72
1, 52116, Note_on_c, 0, 71, 0
1, 52123, Note_on_c, 0, 67, 72
1, 52205, Note_on_c, 0, 66, 0
1, 52216, Note_on_c, 0, 64, 72
1, 52303, Note_on_c, 0, 64, 0
1, 52310, Note_on_c, 0, 61, 72
1, 52403, Note_on_c, 0, 70, 67
1, 52491, Note_on_c, 0, 70, 0
1, 52494, Note_on_c, 0, 61, 0
1, 52494, Note_on_c, 0, 67, 0
1, 52495, Note_on_c, 0, 71, 58
1, 52495, Note_on_c, 0, 63, 72
1, 52496, Note_on_c, 0, 66, 72
1, 52798, Note_on_c, 0, 47, 0
1, 52844, Note_on_c, 0, 66, 0
1, 52845, Note_on_c, 0, 63, 0
1, 52845, Note_on_c, 0, 71, 0
1, 52869, Note_on_c, 0, 81, 55
1, 52869, Note_on_c, 0, 54, 72
1, 52958, Note_on_c, 0, 54, 0
1, 52965, Note_on_c, 0, 73, 67
1, 52965, Note_on_c, 0, 55, 72
1, 53053, Note_on_c, 0, 55, 0
1, 53054, Note_on_c, 0, 73, 0
1, 53061, Note_on_c, 0, 78, 55
1, 53061, Note_on_c, 0, 57, 72
1, 53150, Note_on_c, 0, 57, 0
1, 53151, Note_on_c, 0, 78, 0
1, 53157, Note_on_c, 0, 76, 67
1, 53157, Note_on_c, 0, 54, 72
1, 53245, Note_on_c, 0, 54, 0
1, 53245, Note_on_c, 0, 76, 0
1, 53252, Note_on_c, 0, 75, 67
1, 53252, Note_on_c, 0, 59, 72
1, 53316, Note_on_c, 0, 81, 0
1, 53339, Note_on_c, 0, 59, 0
1, 53345, Note_on_c, 0, 78, 55
1, 53345, Note_on_c, 0, 57, 72
1, 53432, Note_on_c, 0, 57, 0
1, 53433, Note_on_c, 0, 78, 0
1, 53438, Note_on_c, 0, 83, 55
1, 53438, Note_on_c, 0, 55, 72
1, 53526, Note_on_c, 0, 55, 0
1, 53527, Note_on_c, 0, 83, 0
1, 53533, Note_on_c, 0, 81, 55
1, 53533, Note_on_c, 0, 54, 72
1, 53606, Note_on_c, 0, 75, 0
1, 53623, Note_on_c, 0, 54, 0
1, 53624, Note_on_c, 0, 81, 0
1, 53629, Note_on_c, 0, 76, 67
1, 53629, Note_on_c, 0, 79, 55
1, 53630, Note_on_c, 0, 52, 72
1, 53719, Note_on_c, 0, 52, 0
1, 53725, Note_on_c, 0, 43, 72
1, 53809, Note_on_c, 0, 76, 0
1, 53810, Note_on_c, 0, 79, 0
1, 53815, Note_on_c, 0, 43, 0
1, 53821, Note_on_c, 0, 75, 67
1, 53821, Note_on_c, 0, 78, 55
1, 53822, Note_on_c, 0, 45, 72
1, 53911, Note_on_c, 0, 45, 0
1, 53917, Note_on_c, 0, 47, 72
1, 54001, Note_on_c, 0, 75, 0
1, 54002, Note_on_c, 0, 78, 0
1, 54007, Note_on_c, 0, 47, 0
1, 54013, Note_on_c, 0, 79, 55
1, 54013, Note_on_c, 0, 76, 67
1, 54014, Note_on_c, 0, 40, 72
1, 54102, Note_on_c, 0, 40, 0
1, 54103, Note_on_c, 0, 76, 0
1, 54109, Note_on_c, 0, 71, 67
1, 54109, Note_on_c, 0, 42, 72
1, 54197, Note_on_c, 0, 42, 0
1, 54198, Note_on_c, 0, 71, 0
1, 54204, Note_on_c, 0, 76, 67
1, 54204, Note_on_c, 0, 43, 72
1, 54291, Note_on_c, 0, 43, 0
1, 54292, Note_on_c, 0, 76, 0
1, 54298, Note_on_c, 0, 74, 67
1, 54299, Note_on_c, 0, 40, 72
1, 54384, Note_on_c, 0, 40, 0
1, 54385, Note_on_c, 0, 74, 0
1, 54391, Note_on_c, 0, 73, 67
1, 54392, Note_on_c, 0, 45, 72
1, 54457, Note_on_c, 0, 79, 0
1, 54480, Note_on_c, 0, 45, 0
1, 54486, Note_on_c, 0, 76, 67
1, 54487, Note_on_c, 0, 43, 72
1, 54574, Note_on_c, 0, 43, 0
1, 54574, Note_on_c, 0, 76, 0
1, 54580, Note_on_c, 0, 81, 55
1, 54581, Note_on_c, 0, 42, 72
1, 54668, Note_on_c, 0, 42, 0
1, 54668, Note_on_c, 0, 81, 0
1, 54673, Note_on_c, 0, 79, 55
1, 54674, Note_on_c, 0, 40, 72
1, 54744, Note_on_c, 0, 73, 0
1, 54760, Note_on_c, 0, 40, 0
1, 54760, Note_on_c, 0, 79, 0
1, 54767, Note_on_c, 0, 78, 55
1, 54768, Note_on_c, 0, 74, 67
1, 54768, Note_on_c, 0, 38, 72
1, 54856, Note_on_c, 0, 38, 0
1, 54863, Note_on_c, 0, 42, 72
1, 54947, Note_on_c, 0, 74, 0
1, 54948, Note_on_c, 0, 78, 0
1, 54953, Note_on_c, 0, 42, 0
1, 54959, Note_on_c, 0, 73, 67
1, 54960, Note_on_c, 0, 76, 67
1, 54960, Note_on_c, 0, 43, 72
1, 55048, Note_on_c, 0, 43, 0
1, 55055, Note_on_c, 0, 45, 72
1, 55137, Note_on_c, 0, 76, 0
1, 55138, Note_on_c, 0, 73, 0
1, 55142, Note_on_c, 0, 45, 0
1, 55149, Note_on_c, 0, 74, 67
1, 55150, Note_on_c, 0, 78, 49
1, 55150, Note_on_c, 0, 38, 72
1, 55238, Note_on_c, 0, 38, 0
1, 55238, Note_on_c, 0, 74, 0
1, 55244, Note_on_c, 0, 69, 67
1, 55245, Note_on_c, 0, 52, 72
1, 55333, Note_on_c, 0, 52, 0
1, 55333, Note_on_c, 0, 69, 0
1, 55339, Note_on_c, 0, 71, 67
1, 55340, Note_on_c, 0, 50, 72
1, 55428, Note_on_c, 0, 50, 0
1, 55428, Note_on_c, 0, 71, 0
1, 55434, Note_on_c, 0, 73, 67
1, 55435, Note_on_c, 0, 49, 72
1, 55522, Note_on_c, 0, 49, 0
1, 55522, Note_on_c, 0, 73, 0
1, 55528, Note_on_c, 0, 74, 67
1, 55529, Note_on_c, 0, 47, 72
1, 55586, Note_on_c, 0, 78, 0
1, 55616, Note_on_c, 0, 47, 0
1, 55622, Note_on_c, 0, 78, 55
1, 55623, Note_on_c, 0, 45, 72
1, 55711, Note_on_c, 0, 45, 0
1, 55711, Note_on_c, 0, 78, 0
1, 55716, Note_on_c, 0, 80, 55
1, 55717, Note_on_c, 0, 44, 72
1, 55805, Note_on_c, 0, 44, 0
1, 55805, Note_on_c, 0, 80, 0
1, 55811, Note_on_c, 0, 81, 55
1, 55811, Note_on_c, 0, 42, 72
1, 55899, Note_on_c, 0, 42, 0
1, 55906, Note_on_c, 0, 81, 0
1, 55906, Note_on_c, 0, 83, 55
1, 55907, Note_on_c, 0, 41, 72
1, 55983, Note_on_c, 0, 74, 0
1, 55997, Note_on_c, 0, 41, 0
1, 56003, Note_on_c, 0, 73, 67
1, 56003, Note_on_c, 0, 54, 72
1, 56088, Note_on_c, 0, 83, 0
1, 56094, Note_on_c, 0, 54, 0
1, 56094, Note_on_c, 0, 73, 0
1, 56100, Note_on_c, 0, 81, 42
1, 56100, Note_on_c, 0, 78, 55
1, 56100, Note_on_c, 0, 56, 72
1, 56191, Note_on_c, 0, 56, 0
1, 56191, Note_on_c, 0, 78, 0
1, 56197, Note_on_c, 0, 76, 67
1, 56198, Note_on_c, 0, 57, 72
1, 56287, Note_on_c, 0, 57, 0
1, 56287, Note_on_c, 0, 76, 0
1, 56293, Note_on_c, 0, 74, 67
1, 56294, Note_on_c, 0, 59, 72
1, 56383, Note_on_c, 0, 59, 0
1, 56383, Note_on_c, 0, 74, 0
1, 56388, Note_on_c, 0, 73, 67
1, 56389, Note_on_c, 0, 61, 72
1, 56462, Note_on_c, 0, 81, 0
1, 56480, Note_on_c, 0, 61, 0
1, 56480, Note_on_c, 0, 73, 0
1, 56486, Note_on_c, 0, 79, 55
1, 56487, Note_on_c, 0, 71, 67
1, 56487, Note_on_c, 0, 62, 72
1, 56577, Note_on_c, 0, 62, 0
1, 56577, Note_on_c, 0, 79, 0
1, 56583, Note_on_c, 0, 78, 55
1, 56584, Note_on_c, 0, 59, 72
1, 56674, Note_on_c, 0, 59, 0
1, 56674, Note_on_c, 0, 78, 0
1, 56679, Note_on_c, 0, 77, 55
1, 56680, Note_on_c, 0, 61, 72
1, 56769, Note_on_c, 0, 61, 0
1, 56769, Note_on_c, 0, 77, 0
1, 56775, Note_on_c, 0, 73, 67
1, 56776, Note_on_c, 0, 42, 72
1, 56846, Note_on_c, 0, 71, 0
1, 56863, Note_on_c, 0, 42, 0
1, 56863, Note_on_c, 0, 73, 0
1, 56869, Note_on_c, 0, 78, 55
1, 56870, Note_on_c, 0, 69, 67
1, 56870, Note_on_c, 0, 44, 72
1, 56956, Note_on_c, 0, 44, 0
1, 56956, Note_on_c, 0, 78, 0
1, 56963, Note_on_c, 0, 76, 67
1, 56963, Note_on_c, 0, 45, 72
1, 57049, Note_on_c, 0, 45, 0
1, 57049, Note_on_c, 0, 76, 0
1, 57056, Note_on_c, 0, 74, 67
1, 57056, Note_on_c, 0, 47, 72
1, 57133, Note_on_c, 0, 69, 0
1, 57145, Note_on_c, 0, 47, 0
1, 57152, Note_on_c, 0, 69, 67
1, 57153, Note_on_c, 0, 49, 72
1, 57240, Note_on_c, 0, 49, 0
1, 57240, Note_on_c, 0, 69, 0
1, 57246, Note_on_c, 0, 68, 67
1, 57246, Note_on_c, 0, 50, 72
1, 57334, Note_on_c, 0, 50, 0
1, 57335, Note_on_c, 0, 68, 0
1, 57341, Note_on_c, 0, 66, 72
1, 57342, Note_on_c, 0, 47, 72
1, 57429, Note_on_c, 0, 47, 0
1, 57430, Note_on_c, 0, 66, 0
1, 57436, Note_on_c, 0, 65, 72
1, 57437, Note_on_c, 0, 49, 72
1, 57524, Note_on_c, 0, 49, 0
1, 57525, Note_on_c, 0, 65, 0
1, 57531, Note_on_c, 0, 66, 72
1, 57532, Note_on_c, 0, 51, 72
1, 57590, Note_on_c, 0, 74, 0
1, 57618, Note_on_c, 0, 51, 0
1, 57619, Note_on_c, 0, 66, 0
1, 57625, Note_on_c, 0, 73, 67
1, 57626, Note_on_c, 0, 68, 67
1, 57626, Note_on_c, 0, 53, 72
1, 57712, Note_on_c, 0, 53, 0
1, 57713, Note_on_c, 0, 73, 0
1, 57719, Note_on_c, 0, 71, 67
1, 57719, Note_on_c, 0, 49, 72
1, 57806, Note_on_c, 0, 49, 0
1, 57807, Note_on_c, 0, 71, 0
1, 57813, Note_on_c, 0, 69, 67
1, 57813, Note_on_c, 0, 54, 72
1, 57901, Note_on_c, 0, 54, 0
1, 57901, Note_on_c, 0, 69, 0
1, 57907, Note_on_c, 0, 71, 67
1, 57907, Note_on_c, 0, 56, 72
1, 57979, Note_on_c, 0, 68, 0
1, 57997, Note_on_c, 0, 56, 0
1, 57997, Note_on_c, 0, 71, 0
1, 58003, Note_on_c, 0, 73, 67
1, 58003, Note_on_c, 0, 66, 72
1, 58004, Note_on_c, 0, 57, 72
1, 58093, Note_on_c, 0, 57, 0
1, 58093, Note_on_c, 0, 66, 0
1, 58100, Note_on_c, 0, 64, 72
1, 58100, Note_on_c, 0, 54, 72
1, 58188, Note_on_c, 0, 54, 0
1, 58188, Note_on_c, 0, 64, 0
1, 58195, Note_on_c, 0, 62, 72
1, 58195, Note_on_c, 0, 59, 72
1, 58282, Note_on_c, 0, 59, 0
1, 58288, Note_on_c, 0, 57, 72
1, 58360, Note_on_c, 0, 73, 0
1, 58376, Note_on_c, 0, 57, 0
1, 58383, Note_on_c, 0, 71, 67
1, 58383, Note_on_c, 0, 56, 72
1, 58471, Note_on_c, 0, 56, 0
1, 58477, Note_on_c, 0, 54, 72
1, 58548, Note_on_c, 0, 62, 0
1, 58564, Note_on_c, 0, 54, 0
1, 58571, Note_on_c, 0, 61, 72
1, 58572, Note_on_c, 0, 53, 72
1, 58658, Note_on_c, 0, 53, 0
1, 58665, Note_on_c, 0, 49, 72
1, 58737, Note_on_c, 0, 71, 0
1, 58753, Note_on_c, 0, 49, 0
1, 58761, Note_on_c, 0, 69, 67
1, 58761, Note_on_c, 0, 54, 72
1, 58848, Note_on_c, 0, 54, 0
1, 58854, Note_on_c, 0, 52, 72
1, 58924, Note_on_c, 0, 61, 0
1, 58941, Note_on_c, 0, 52, 0
1, 58946, Note_on_c, 0, 59, 72
1, 58947, Note_on_c, 0, 50, 72
1, 59035, Note_on_c, 0, 50, 0
1, 59040, Note_on_c, 0, 49, 72
1, 59112, Note_on_c, 0, 69, 0
1, 59130, Note_on_c, 0, 49, 0
1, 59136, Note_on_c, 0, 68, 67
1, 59136, Note_on_c, 0, 50, 72
1, 59226, Note_on_c, 0, 50, 0
1, 59226, Note_on_c, 0, 68, 0
1, 59232, Note_on_c, 0, 66, 72
1, 59232, Note_on_c, 0, 47, 72
1, 59321, Note_on_c, 0, 47, 0
1, 59321, Note_on_c, 0, 66, 0
1, 59328, Note_on_c, 0, 65, 72
1, 59328, Note_on_c, 0, 49, 72
1, 59394, Note_on_c, 0, 59, 0
1, 59416, Note_on_c, 0, 49, 0
1, 59416, Note_on_c, 0, 65, 0
1, 59423, Note_on_c, 0, 74, 67
1, 59423, Note_on_c, 0, 65, 72
1, 59424, Note_on_c, 0, 47, 72
1, 59511, Note_on_c, 0, 47, 0
1, 59511, Note_on_c, 0, 65, 0
1, 59512, Note_on_c, 0, 74, 0
1, 59518, Note_on_c, 0, 73, 67
1, 59519, Note_on_c, 0, 66, 72
1, 59519, Note_on_c, 0, 45, 72
1, 59607, Note_on_c, 0, 45, 0
1, 59607, Note_on_c, 0, 66, 0
1, 59608, Note_on_c, 0, 73, 0
1, 59614, Note_on_c, 0, 68, 67
1, 59614, Note_on_c, 0, 71, 67
1, 59615, Note_on_c, 0, 47, 72
1, 59704, Note_on_c, 0, 47, 0
1, 59704, Note_on_c, 0, 71, 0
1, 59705, Note_on_c, 0, 68, 0
1, 59710, Note_on_c, 0, 69, 67
1, 59711, Note_on_c, 0, 61, 72
1, 59711, Note_on_c, 0, 49, 72
1, 59799, Note_on_c, 0, 49, 0
1, 59799, Note_on_c, 0, 61, 0
1, 59806, Note_on_c, 0, 66, 72
1, 59806, Note_on_c, 0, 47, 72
1, 59891, Note_on_c, 0, 69, 0
1, 59897, Note_on_c, 0, 47, 0
1, 59903, Note_on_c, 0, 68, 67
1, 59904, Note_on_c, 0, 49, 72
1, 59987, Note_on_c, 0, 66, 0
1, 59993, Note_on_c, 0, 49, 0
1, 59999, Note_on_c, 0, 65, 72
1, 60000, Note_on_c, 0, 37, 72
1, 60084, Note_on_c, 0, 68, 0
1, 60089, Note_on_c, 0, 37, 0
1, 60089, Note_on_c, 0, 65, 0
1, 60096, Note_on_c, 0, 66, 72
1, 60096, Note_on_c, 0, 42, 72
1, 60186, Note_on_c, 0, 42, 0
1, 60192, Note_on_c, 0, 49, 72
1, 60276, Note_on_c, 0, 66, 0
1, 60281, Note_on_c, 0, 49, 0
1, 60287, Note_on_c, 0, 72, 67
1, 60288, Note_on_c, 0, 51, 72
1, 60376, Note_on_c, 0, 51, 0
1, 60383, Note_on_c, 0, 52, 72
1, 60472, Note_on_c, 0, 52, 0
1, 60479, Note_on_c, 0, 75, 67
1, 60480, Note_on_c, 0, 54, 72
1, 60568, Note_on_c, 0, 54, 0
1, 60575, Note_on_c, 0, 57, 72
1, 60647, Note_on_c, 0, 72, 0
1, 60659, Note_on_c, 0, 75, 0
1, 60664, Note_on_c, 0, 57, 0
1, 60670, Note_on_c, 0, 76, 58
1, 60671, Note_on_c, 0, 71, 67
1, 60671, Note_on_c, 0, 55, 72
1, 60759, Note_on_c, 0, 55, 0
1, 60760, Note_on_c, 0, 71, 0
1, 60760, Note_on_c, 0, 76, 0
1, 60766, Note_on_c, 0, 78, 46
1, 60767, Note_on_c, 0, 69, 67
1, 60767, Note_on_c, 0, 54, 72
1, 60854, Note_on_c, 0, 54, 0
1, 60855, Note_on_c, 0, 69, 0
1, 60855, Note_on_c, 0, 78, 0
1, 60861, Note_on_c, 0, 71, 67
1, 60862, Note_on_c, 0, 52, 72
1, 60862, Note_on_c, 0, 67, 72
1, 60949, Note_on_c, 0, 67, 0
1, 60950, Note_on_c, 0, 52, 0
1, 60950, Note_on_c, 0, 71, 0
1, 60956, Note_on_c, 0, 84, 46
1, 60957, Note_on_c, 0, 75, 67
1, 60957, Note_on_c, 0, 54, 72
1, 61044, Note_on_c, 0, 54, 0
1, 61045, Note_on_c, 0, 75, 0
1, 61045, Note_on_c, 0, 84, 0
1, 61051, Note_on_c, 0, 83, 46
1, 61052, Note_on_c, 0, 76, 67
1, 61052, Note_on_c, 0, 55, 72
1, 61141, Note_on_c, 0, 55, 0
1, 61142, Note_on_c, 0, 76, 0
1, 61142, Note_on_c, 0, 83, 0
1, 61148, Note_on_c, 0, 78, 55
1, 61149, Note_on_c, 0, 81, 46
1, 61149, Note_on_c, 0, 57, 72
1, 61239, Note_on_c, 0, 57, 0
1, 61240, Note_on_c, 0, 81, 0
1, 61240, Note_on_c, 0, 78, 0
1, 61246, Note_on_c, 0, 79, 55
1, 61247, Note_on_c, 0, 71, 67
1, 61247, Note_on_c, 0, 59, 72
1, 61335, Note_on_c, 0, 59, 0
1, 61336, Note_on_c, 0, 71, 0
1, 61342, Note_on_c, 0, 76, 67
1, 61343, Note_on_c, 0, 57, 72
1, 61426, Note_on_c, 0, 79, 0
1, 61431, Note_on_c, 0, 57, 0
1, 61437, Note_on_c, 0, 78, 55
1, 61438, Note_on_c, 0, 59, 72
1, 61520, Note_on_c, 0, 76, 0
1, 61525, Note_on_c, 0, 59, 0
1, 61532, Note_on_c, 0, 75, 67
1, 61533, Note_on_c, 0, 47, 72
1, 61616, Note_on_c, 0, 78, 0
1, 61621, Note_on_c, 0, 47, 0
1, 61622, Note_on_c, 0, 75, 0
1, 61628, Note_on_c, 0, 76, 67
1, 61629, Note_on_c, 0, 52, 72
1, 61716, Note_on_c, 0, 52, 0
1, 61722, Note_on_c, 0, 59, 72
1, 61806, Note_on_c, 0, 76, 0
1, 61812, Note_on_c, 0, 59, 0
1, 61818, Note_on_c, 0, 82, 55
1, 61818, Note_on_c, 0, 61, 72
1, 61908, Note_on_c, 0, 61, 0
1, 61914, Note_on_c, 0, 62, 72
1, 62004, Note_on_c, 0, 62, 0
1, 62011, Note_on_c, 0, 73, 67
1, 62011, Note_on_c, 0, 64, 72
1, 62100, Note_on_c, 0, 64, 0
1, 62105, Note_on_c, 0, 55, 72
1, 62180, Note_on_c, 0, 82, 0
1, 62193, Note_on_c, 0, 55, 0
1, 62194, Note_on_c, 0, 73, 0
1, 62200, Note_on_c, 0, 81, 55
1, 62200, Note_on_c, 0, 74, 67
1, 62201, Note_on_c, 0, 54, 72
1, 62287, Note_on_c, 0, 54, 0
1, 62287, Note_on_c, 0, 74, 0
1, 62288, Note_on_c, 0, 81, 0
1, 62294, Note_on_c, 0, 79, 46
1, 62294, Note_on_c, 0, 76, 58
1, 62294, Note_on_c, 0, 52, 72
1, 62381, Note_on_c, 0, 52, 0
1, 62381, Note_on_c, 0, 76, 0
1, 62382, Note_on_c, 0, 79, 0
1, 62388, Note_on_c, 0, 78, 46
1, 62388, Note_on_c, 0, 50, 72
1, 62389, Note_on_c, 0, 69, 67
1, 62476, Note_on_c, 0, 50, 0
1, 62476, Note_on_c, 0, 78, 0
1, 62477, Note_on_c, 0, 69, 0
1, 62483, Note_on_c, 0, 73, 67
1, 62484, Note_on_c, 0, 70, 67
1, 62484, Note_on_c, 0, 52, 72
1, 62570, Note_on_c, 0, 52, 0
1, 62571, Note_on_c, 0, 70, 0
1, 62571, Note_on_c, 0, 73, 0
1, 62576, Note_on_c, 0, 74, 67
1, 62577, Note_on_c, 0, 69, 67
1, 62577, Note_on_c, 0, 54, 72
1, 62665, Note_on_c, 0, 54, 0
1, 62665, Note_on_c, 0, 69, 0
1, 62666, Note_on_c, 0, 74, 0
1, 62671, Note_on_c, 0, 76, 67
1, 62672, Note_on_c, 0, 55, 72
1, 62672, Note_on_c, 0, 67, 72
1, 62761, Note_on_c, 0, 67, 0
1, 62762, Note_on_c, 0, 55, 0
1, 62762, Note_on_c, 0, 76, 0
1, 62767, Note_on_c, 0, 69, 67
1, 62768, Note_on_c, 0, 66, 72
1, 62768, Note_on_c, 0, 57, 72
1, 62856, Note_on_c, 0, 57, 0
1, 62856, Note_on_c, 0, 69, 0
1, 62861, Note_on_c, 0, 74, 67
1, 62862, Note_on_c, 0, 55, 72
1, 62944, Note_on_c, 0, 66, 0
1, 62950, Note_on_c, 0, 55, 0
1, 62955, Note_on_c, 0, 64, 72
1, 62956, Note_on_c, 0, 57, 72
1, 63037, Note_on_c, 0, 74, 0
1, 63042, Note_on_c, 0, 57, 0
1, 63048, Note_on_c, 0, 73, 67
1, 63049, Note_on_c, 0, 45, 72
1, 63130, Note_on_c, 0, 64, 0
1, 63136, Note_on_c, 0, 45, 0
1, 63136, Note_on_c, 0, 73, 0
1, 63142, Note_on_c, 0, 66, 72
1, 63142, Note_on_c, 0, 62, 72
1, 63143, Note_on_c, 0, 47, 72
1, 63230, Note_on_c, 0, 47, 0
1, 63230, Note_on_c, 0, 66, 0
1, 63237, Note_on_c, 0, 71, 67
1, 63237, Note_on_c, 0, 50, 72
1, 63319, Note_on_c, 0, 62, 0
1, 63325, Note_on_c, 0, 50, 0
1, 63331, Note_on_c, 0, 54, 72
1, 63331, Note_on_c, 0, 61, 72
1, 63412, Note_on_c, 0, 71, 0
1, 63418, Note_on_c, 0, 54, 0
1, 63425, Note_on_c, 0, 69, 67
1, 63425, Note_on_c, 0, 42, 72
1, 63507, Note_on_c, 0, 61, 0
1, 63513, Note_on_c, 0, 42, 0
1, 63514, Note_on_c, 0, 69, 0
1, 63519, Note_on_c, 0, 59, 72
1, 63519, Note_on_c, 0, 62, 72
1, 63520, Note_on_c, 0, 43, 72
1, 63607, Note_on_c, 0, 43, 0
1, 63608, Note_on_c, 0, 62, 0
1, 63614, Note_on_c, 0, 67, 72
1, 63614, Note_on_c, 0, 47, 72
1, 63696, Note_on_c, 0, 59, 0
1, 63701, Note_on_c, 0, 47, 0
1, 63708, Note_on_c, 0, 50, 72
1, 63708, Note_on_c, 0, 57, 72
1, 63790, Note_on_c, 0, 67, 0
1, 63802, Note_on_c, 0, 66, 72
1, 63884, Note_on_c, 0, 57, 0
1, 63889, Note_on_c, 0, 66, 0
1, 63895, Note_on_c, 0, 68, 67
1, 63896, Note_on_c, 0, 59, 72
1, 63972, Note_on_c, 0, 50, 0
1, 63989, Note_on_c, 0, 50, 72
1, 64070, Note_on_c, 0, 59, 0
1, 64070, Note_on_c, 0, 68, 0
1, 64076, Note_on_c, 0, 50, 0
1, 64081, Note_on_c, 0, 70, 67
1, 64082, Note_on_c, 0, 64, 72
1, 64082, Note_on_c, 0, 49, 72
1, 64170, Note_on_c, 0, 49, 0
1, 64170, Note_on_c, 0, 70, 0
1, 64176, Note_on_c, 0, 71, 67
1, 64176, Note_on_c, 0, 47, 72
1, 64265, Note_on_c, 0, 47, 0
1, 64265, Note_on_c, 0, 71, 0
1, 64271, Note_on_c, 0, 73, 67
1, 64272, Note_on_c, 0, 46, 72
1, 64348, Note_on_c, 0, 64, 0
1, 64359, Note_on_c, 0, 46, 0
1, 64366, Note_on_c, 0, 67, 72
1, 64367, Note_on_c, 0, 42, 72
1, 64454, Note_on_c, 0, 42, 0
1, 64454, Note_on_c, 0, 67, 0
1, 64460, Note_on_c, 0, 66, 72
1, 64461, Note_on_c, 0, 44, 72
1, 64547, Note_on_c, 0, 44, 0
1, 64548, Note_on_c, 0, 66, 0
1, 64553, Note_on_c, 0, 64, 72
1, 64554, Note_on_c, 0, 46, 72
1, 64640, Note_on_c, 0, 46, 0
1, 64641, Note_on_c, 0, 64, 0
1, 64647, Note_on_c, 0, 62, 72
1, 64648, Note_on_c, 0, 47, 72
1, 64712, Note_on_c, 0, 73, 0
1, 64734, Note_on_c, 0, 47, 0
1, 64741, Note_on_c, 0, 71, 67
1, 64742, Note_on_c, 0, 54, 72
1, 64823, Note_on_c, 0, 62, 0
1, 64828, Note_on_c, 0, 54, 0
1, 64829, Note_on_c, 0, 71, 0
1, 64835, Note_on_c, 0, 73, 67
1, 64835, Note_on_c, 0, 67, 72
1, 64836, Note_on_c, 0, 52, 72
1, 64920, Note_on_c, 0, 52, 0
1, 64921, Note_on_c, 0, 73, 0
1, 64927, Note_on_c, 0, 74, 67
1, 64927, Note_on_c, 0, 50, 72
1, 65013, Note_on_c, 0, 50, 0
1, 65014, Note_on_c, 0, 74, 0
1, 65020, Note_on_c, 0, 76, 67
1, 65020, Note_on_c, 0, 49, 72
1, 65097, Note_on_c, 0, 67, 0
1, 65108, Note_on_c, 0, 49, 0
1, 65115, Note_on_c, 0, 71, 67
1, 65115, Note_on_c, 0, 45, 72
1, 65203, Note_on_c, 0, 45, 0
1, 65203, Note_on_c, 0, 71, 0
1, 65210, Note_on_c, 0, 69, 67
1, 65210, Note_on_c, 0, 47, 72
1, 65297, Note_on_c, 0, 47, 0
1, 65298, Note_on_c, 0, 69, 0
1, 65304, Note_on_c, 0, 67, 72
1, 65304, Note_on_c, 0, 49, 72
1, 65390, Note_on_c, 0, 49, 0
1, 65391, Note_on_c, 0, 67, 0
1, 65397, Note_on_c, 0, 66, 72
1, 65398, Note_on_c, 0, 50, 72
1, 65461, Note_on_c, 0, 76, 0
1, 65484, Note_on_c, 0, 50, 0
1, 65489, Note_on_c, 0, 74, 58
1, 65490, Note_on_c, 0, 57, 72
1, 65571, Note_on_c, 0, 66, 0
1, 65577, Note_on_c, 0, 57, 0
1, 65577, Note_on_c, 0, 74, 0
1, 65582, Note_on_c, 0, 76, 58
1, 65583, Note_on_c, 0, 71, 67
1, 65583, Note_on_c, 0, 55, 72
1, 65671, Note_on_c, 0, 55, 0
1, 65671, Note_on_c, 0, 76, 0
1, 65677, Note_on_c, 0, 78, 46
1, 65678, Note_on_c, 0, 54, 72
1, 65767, Note_on_c, 0, 54, 0
1, 65767, Note_on_c, 0, 78, 0
1, 65772, Note_on_c, 0, 79, 46
1, 65773, Note_on_c, 0, 52, 72
1, 65850, Note_on_c, 0, 71, 0
1, 65861, Note_on_c, 0, 52, 0
1, 65868, Note_on_c, 0, 74, 67
1, 65868, Note_on_c, 0, 49, 72
1, 65955, Note_on_c, 0, 49, 0
1, 65955, Note_on_c, 0, 74, 0
1, 65961, Note_on_c, 0, 73, 67
1, 65961, Note_on_c, 0, 50, 72
1, 66047, Note_on_c, 0, 50, 0
1, 66048, Note_on_c, 0, 73, 0
1, 66054, Note_on_c, 0, 71, 67
1, 66054, Note_on_c, 0, 52, 72
1, 66139, Note_on_c, 0, 52, 0
1, 66140, Note_on_c, 0, 71, 0
1, 66146, Note_on_c, 0, 73, 67
1, 66146, Note_on_c, 0, 46, 72
1, 66232, Note_on_c, 0, 46, 0
1, 66233, Note_on_c, 0, 73, 0
1, 66239, Note_on_c, 0, 76, 67
1, 66240, Note_on_c, 0, 54, 72
1, 66299, Note_on_c, 0, 79, 0
1, 66326, Note_on_c, 0, 54, 0
1, 66327, Note_on_c, 0, 76, 0
1, 66333, Note_on_c, 0, 74, 67
1, 66334, Note_on_c, 0, 78, 55
1, 66334, Note_on_c, 0, 56, 72
1, 66422, Note_on_c, 0, 56, 0
1, 66423, Note_on_c, 0, 74, 0
1, 66429, Note_on_c, 0, 73, 67
1, 66430, Note_on_c, 0, 58, 72
1, 66517, Note_on_c, 0, 58, 0
1, 66518, Note_on_c, 0, 73, 0
1, 66525, Note_on_c, 0, 74, 67
1, 66525, Note_on_c, 0, 59, 72
1, 66602, Note_on_c, 0, 78, 0
1, 66612, Note_on_c, 0, 59, 0
1, 66618, Note_on_c, 0, 81, 55
1, 66619, Note_on_c, 0, 47, 72
1, 66701, Note_on_c, 0, 74, 0
1, 66706, Note_on_c, 0, 47, 0
1, 66706, Note_on_c, 0, 81, 0
1, 66713, Note_on_c, 0, 71, 67
1, 66713, Note_on_c, 0, 79, 55
1, 66714, Note_on_c, 0, 49, 72
1, 66798, Note_on_c, 0, 49, 0
1, 66798, Note_on_c, 0, 79, 0
1, 66804, Note_on_c, 0, 78, 55
1, 66804, Note_on_c, 0, 50, 72
1, 66891, Note_on_c, 0, 50, 0
1, 66891, Note_on_c, 0, 78, 0
1, 66897, Note_on_c, 0, 76, 67
1, 66898, Note_on_c, 0, 52, 72
1, 66973, Note_on_c, 0, 71, 0
1, 66984, Note_on_c, 0, 52, 0
1, 66991, Note_on_c, 0, 74, 67
1, 66992, Note_on_c, 0, 54, 72
1, 67072, Note_on_c, 0, 76, 0
1, 67078, Note_on_c, 0, 54, 0
1, 67079, Note_on_c, 0, 74, 0
1, 67085, Note_on_c, 0, 73, 67
1, 67086, Note_on_c, 0, 80, 55
1, 67086, Note_on_c, 0, 52, 72
1, 67173, Note_on_c, 0, 52, 0
1, 67173, Note_on_c, 0, 73, 0
1, 67179, Note_on_c, 0, 71, 67
1, 67180, Note_on_c, 0, 50, 72
1, 67266, Note_on_c, 0, 50, 0
1, 67267, Note_on_c, 0, 71, 0
1, 67273, Note_on_c, 0, 76, 67
1, 67274, Note_on_c, 0, 49, 72
1, 67348, Note_on_c, 0, 80, 0
1, 67360, Note_on_c, 0, 49, 0
1, 67366, Note_on_c, 0, 83, 55
1, 67366, Note_on_c, 0, 61, 72
1, 67448, Note_on_c, 0, 76, 0
1, 67453, Note_on_c, 0, 61, 0
1, 67453, Note_on_c, 0, 83, 0
1, 67460, Note_on_c, 0, 73, 67
1, 67460, Note_on_c, 0, 81, 55
1, 67461, Note_on_c, 0, 62, 72
1, 67547, Note_on_c, 0, 62, 0
1, 67547, Note_on_c, 0, 81, 0
1, 67553, Note_on_c, 0, 80, 55
1, 67553, Note_on_c, 0, 64, 72
1, 67639, Note_on_c, 0, 64, 0
1, 67640, Note_on_c, 0, 80, 0
1, 67645, Note_on_c, 0, 81, 55
1, 67645, Note_on_c, 0, 66, 72
1, 67719, Note_on_c, 0, 73, 0
1, 67729, Note_on_c, 0, 66, 0
1, 67736, Note_on_c, 0, 76, 67
1, 67737, Note_on_c, 0, 67, 72
1, 67818, Note_on_c, 0, 81, 0
1, 67823, Note_on_c, 0, 67, 0
1, 67823, Note_on_c, 0, 76, 0
1, 67829, Note_on_c, 0, 74, 67
1, 67830, Note_on_c, 0, 82, 55
1, 67830, Note_on_c, 0, 66, 72
1, 67917, Note_on_c, 0, 66, 0
1, 67917, Note_on_c, 0, 74, 0
1, 67922, Note_on_c, 0, 73, 67
1, 67923, Note_on_c, 0, 64, 72
1, 68009, Note_on_c, 0, 64, 0
1, 68009, Note_on_c, 0, 73, 0
1, 68016, Note_on_c, 0, 78, 55
1, 68016, Note_on_c, 0, 62, 72
1, 68090, Note_on_c, 0, 82, 0
1, 68101, Note_on_c, 0, 62, 0
1, 68107, Note_on_c, 0, 84, 55
1, 68107, Note_on_c, 0, 50, 72
1, 68187, Note_on_c, 0, 78, 0
1, 68193, Note_on_c, 0, 50, 0
1, 68194, Note_on_c, 0, 84, 0
1, 68199, Note_on_c, 0, 74, 67
1, 68199, Note_on_c, 0, 83, 55
1, 68200, Note_on_c, 0, 52, 72
1, 68283, Note_on_c, 0, 52, 0
1, 68284, Note_on_c, 0, 83, 0
1, 68289, Note_on_c, 0, 82, 55
1, 68290, Note_on_c, 0, 54, 72
1, 68374, Note_on_c, 0, 54, 0
1, 68374, Note_on_c, 0, 82, 0
1, 68380, Note_on_c, 0, 83, 55
1, 68381, Note_on_c, 0, 55, 72
1, 68453, Note_on_c, 0, 74, 0
1, 68465, Note_on_c, 0, 55, 0
1, 68471, Note_on_c, 0, 76, 67
1, 68471, Note_on_c, 0, 54, 72
1, 68557, Note_on_c, 0, 54, 0
1, 68557, Note_on_c, 0, 76, 0
1, 68563, Note_on_c, 0, 78, 55
1, 68563, Note_on_c, 0, 52, 72
1, 68640, Note_on_c, 0, 83, 0
1, 68650, Note_on_c, 0, 52, 0
1, 68657, Note_on_c, 0, 81, 55
1, 68657, Note_on_c, 0, 51, 72
1, 68744, Note_on_c, 0, 51, 0
1, 68745, Note_on_c, 0, 81, 0
1, 68751, Note_on_c, 0, 79, 55
1, 68751, Note_on_c, 0, 52, 72
1, 68837, Note_on_c, 0, 52, 0
1, 68844, Note_on_c, 0, 50, 72
1, 68915, Note_on_c, 0, 78, 0
1, 68931, Note_on_c, 0, 50, 0
1, 68938, Note_on_c, 0, 76, 67
1, 68939, Note_on_c, 0, 49, 72
1, 69024, Note_on_c, 0, 49, 0
1, 69032, Note_on_c, 0, 47, 72
1, 69101, Note_on_c, 0, 79, 0
1, 69118, Note_on_c, 0, 47, 0
1, 69124, Note_on_c, 0, 78, 55
1, 69124, Note_on_c, 0, 46, 72
1, 69210, Note_on_c, 0, 46, 0
1, 69216, Note_on_c, 0, 54, 72
1, 69287, Note_on_c, 0, 76, 0
1, 69303, Note_on_c, 0, 54, 0
1, 69310, Note_on_c, 0, 74, 67
1, 69311, Note_on_c, 0, 59, 72
1, 69396, Note_on_c, 0, 59, 0
1, 69403, Note_on_c, 0, 57, 72
1, 69474, Note_on_c, 0, 78, 0
1, 69490, Note_on_c, 0, 57, 0
1, 69496, Note_on_c, 0, 76, 67
1, 69497, Note_on_c, 0, 56, 72
1, 69582, Note_on_c, 0, 56, 0
1, 69588, Note_on_c, 0, 54, 72
1, 69659, Note_on_c, 0, 74, 0
1, 69675, Note_on_c, 0, 54, 0
1, 69682, Note_on_c, 0, 73, 67
1, 69682, Note_on_c, 0, 56, 72
1, 69767, Note_on_c, 0, 56, 0
1, 69774, Note_on_c, 0, 58, 72
1, 69844, Note_on_c, 0, 76, 0
1, 69859, Note_on_c, 0, 58, 0
1, 69866, Note_on_c, 0, 74, 67
1, 69866, Note_on_c, 0, 59, 72
1, 69952, Note_on_c, 0, 59, 0
1, 69958, Note_on_c, 0, 47, 72
1, 70027, Note_on_c, 0, 73, 0
1, 70043, Note_on_c, 0, 47, 0
1, 70049, Note_on_c, 0, 71, 67
1, 70050, Note_on_c, 0, 49, 72
1, 70136, Note_on_c, 0, 49, 0
1, 70136, Note_on_c, 0, 71, 0
1, 70142, Note_on_c, 0, 69, 67
1, 70143, Note_on_c, 0, 50, 72
1, 70230, Note_on_c, 0, 50, 0
1, 70230, Note_on_c, 0, 69, 0
1, 70236, Note_on_c, 0, 67, 72
1, 70237, Note_on_c, 0, 52, 72
1, 70323, Note_on_c, 0, 52, 0
1, 70329, Note_on_c, 0, 54, 72
1, 70388, Note_on_c, 0, 74, 0
1, 70416, Note_on_c, 0, 54, 0
1, 70422, Note_on_c, 0, 73, 67
1, 70422, Note_on_c, 0, 55, 72
1, 70508, Note_on_c, 0, 55, 0
1, 70509, Note_on_c, 0, 73, 0
1, 70514, Note_on_c, 0, 71, 67
1, 70514, Note_on_c, 0, 52, 72
1, 70600, Note_on_c, 0, 52, 0
1, 70601, Note_on_c, 0, 71, 0
1, 70607, Note_on_c, 0, 70, 67
1, 70608, Note_on_c, 0, 54, 72
1, 70671, Note_on_c, 0, 67, 0
1, 70693, Note_on_c, 0, 54, 0
1, 70694, Note_on_c, 0, 70, 0
1, 70699, Note_on_c, 0, 79, 55
1, 70700, Note_on_c, 0, 70, 67
1, 70700, Note_on_c, 0, 52, 72
1, 70786, Note_on_c, 0, 52, 0
1, 70786, Note_on_c, 0, 70, 0
1, 70787, Note_on_c, 0, 79, 0
1, 70791, Note_on_c, 0, 78, 55
1, 70792, Note_on_c, 0, 71, 67
1, 70792, Note_on_c, 0, 50, 72
1, 70880, Note_on_c, 0, 50, 0
1, 70880, Note_on_c, 0, 71, 0
1, 70881, Note_on_c, 0, 78, 0
1, 70885, Note_on_c, 0, 73, 67
1, 70886, Note_on_c, 0, 76, 67
1, 70886, Note_on_c, 0, 52, 72
1, 70974, Note_on_c, 0, 52, 0
1, 70974, Note_on_c, 0, 76, 0
1, 70975, Note_on_c, 0, 73, 0
1, 70980, Note_on_c, 0, 74, 67
1, 70980, Note_on_c, 0, 66, 72
1, 70980, Note_on_c, 0, 54, 72
1, 71068, Note_on_c, 0, 54, 0
1, 71068, Note_on_c, 0, 66, 0
1, 71074, Note_on_c, 0, 71, 67
1, 71074, Note_on_c, 0, 52, 72
1, 71156, Note_on_c, 0, 74, 0
1, 71161, Note_on_c, 0, 52, 0
1, 71168, Note_on_c, 0, 73, 67
1, 71168, Note_on_c, 0, 54, 72
1, 71249, Note_on_c, 0, 71, 0
1, 71255, Note_on_c, 0, 54, 0
1, 71261, Note_on_c, 0, 70, 67
1, 71262, Note_on_c, 0, 42, 72
1, 71342, Note_on_c, 0, 73, 0
1, 71347, Note_on_c, 0, 42, 0
1, 71348, Note_on_c, 0, 70, 0
1, 71354, Note_on_c, 0, 71, 67
1, 71355, Note_on_c, 0, 43, 72
1, 71447, Note_on_c, 0, 64, 72
1, 71526, Note_on_c, 0, 43, 0
1, 71538, Note_on_c, 0, 42, 72
1, 71617, Note_on_c, 0, 64, 0
1, 71629, Note_on_c, 0, 63, 72
1, 71708, Note_on_c, 0, 42, 0
1, 71713, Note_on_c, 0, 63, 0
1, 71719, Note_on_c, 0, 67, 72
1, 71720, Note_on_c, 0, 40, 72
1, 71774, Note_on_c, 0, 71, 0
1, 71809, Note_on_c, 0, 71, 67
1, 71887, Note_on_c, 0, 40, 0
1, 71899, Note_on_c, 0, 38, 72
1, 71977, Note_on_c, 0, 71, 0
1, 71989, Note_on_c, 0, 70, 67
1, 72057, Note_on_c, 0, 67, 0
1, 72068, Note_on_c, 0, 38, 0
1, 72072, Note_on_c, 0, 70, 0
1, 72078, Note_on_c, 0, 76, 67
1, 72079, Note_on_c, 0, 37, 72
1, 72163, Note_on_c, 0, 37, 0
1, 72168, Note_on_c, 0, 67, 72
1, 72169, Note_on_c, 0, 59, 72
1, 72252, Note_on_c, 0, 59, 0
1, 72258, Note_on_c, 0, 58, 72
1, 72337, Note_on_c, 0, 67, 0
1, 72342, Note_on_c, 0, 58, 0
1, 72349, Note_on_c, 0, 66, 72
1, 72349, Note_on_c, 0, 57, 72
1, 72419, Note_on_c, 0, 76, 0
1, 72434, Note_on_c, 0, 57, 0
1, 72435, Note_on_c, 0, 66, 0
1, 72441, Note_on_c, 0, 71, 67
1, 72442, Note_on_c, 0, 56, 72
1, 72528, Note_on_c, 0, 56, 0
1, 72533, Note_on_c, 0, 76, 67
1, 72534, Note_on_c, 0, 55, 72
1, 72620, Note_on_c, 0, 55, 0
1, 72625, Note_on_c, 0, 54, 72
1, 72705, Note_on_c, 0, 76, 0
1, 72711, Note_on_c, 0, 54, 0
1, 72717, Note_on_c, 0, 75, 67
1, 72717, Note_on_c, 0, 59, 72
1, 72802, Note_on_c, 0, 59, 0
1, 72803, Note_on_c, 0, 75, 0
1, 72808, Note_on_c, 0, 79, 55
1, 72808, Note_on_c, 0, 52, 72
1, 72864, Note_on_c, 0, 71, 0
1, 72893, Note_on_c, 0, 52, 0
1, 72900, Note_on_c, 0, 71, 67
1, 72900, Note_on_c, 0, 64, 72
1, 72985, Note_on_c, 0, 64, 0
1, 72992, Note_on_c, 0, 62, 72
1, 73074, Note_on_c, 0, 71, 0
1, 73079, Note_on_c, 0, 62, 0
1, 73085, Note_on_c, 0, 70, 67
1, 73086, Note_on_c, 0, 61, 72
1, 73171, Note_on_c, 0, 61, 0
1, 73171, Note_on_c, 0, 70, 0
1, 73176, Note_on_c, 0, 74, 67
1, 73177, Note_on_c, 0, 59, 72
1, 73241, Note_on_c, 0, 79, 0
1, 73263, Note_on_c, 0, 59, 0
1, 73269, Note_on_c, 0, 78, 55
1, 73269, Note_on_c, 0, 60, 72
1, 73353, Note_on_c, 0, 60, 0
1, 73360, Note_on_c, 0, 61, 72
1, 73439, Note_on_c, 0, 78, 0
1, 73443, Note_on_c, 0, 61, 0
1, 73449, Note_on_c, 0, 77, 55
1, 73450, Note_on_c, 0, 62, 72
1, 73534, Note_on_c, 0, 62, 0
1, 73534, Note_on_c, 0, 77, 0
1, 73540, Note_on_c, 0, 83, 55
1, 73540, Note_on_c, 0, 53, 72
1, 73603, Note_on_c, 0, 74, 0
1, 73624, Note_on_c, 0, 53, 0
1, 73624, Note_on_c, 0, 83, 0
1, 73630, Note_on_c, 0, 72, 67
1, 73630, Note_on_c, 0, 76, 67
1, 73631, Note_on_c, 0, 54, 72
1, 73673, Note_on_c, 0, 76, 0
1, 73676, Note_on_c, 0, 75, 67
1, 73716, Note_on_c, 0, 54, 0
1, 73716, Note_on_c, 0, 72, 0
1, 73719, Note_on_c, 0, 75, 0
1, 73722, Note_on_c, 0, 71, 67
1, 73722, Note_on_c, 0, 76, 67
1, 73723, Note_on_c, 0, 55, 72
1, 73808, Note_on_c, 0, 55, 0
1, 73809, Note_on_c, 0, 76, 0
1, 73815, Note_on_c, 0, 79, 55
1, 73815, Note_on_c, 0, 52, 72
1, 73901, Note_on_c, 0, 52, 0
1, 73902, Note_on_c, 0, 79, 0
1, 73908, Note_on_c, 0, 74, 67
1, 73909, Note_on_c, 0, 54, 72
1, 73993, Note_on_c, 0, 54, 0
1, 74000, Note_on_c, 0, 52, 72
1, 74067, Note_on_c, 0, 71, 0
1, 74078, Note_on_c, 0, 74, 0
1, 74083, Note_on_c, 0, 52, 0
1, 74090, Note_on_c, 0, 70, 67
1, 74090, Note_on_c, 0, 73, 67
1, 74091, Note_on_c, 0, 54, 72
1, 74172, Note_on_c, 0, 54, 0
1, 74178, Note_on_c, 0, 42, 72
1, 74256, Note_on_c, 0, 73, 0
1, 74256, Note_on_c, 0, 70, 0
1, 74261, Note_on_c, 0, 42, 0
1, 74268, Note_on_c, 0, 75, 67
1, 74268, Note_on_c, 0, 69, 67
1, 74268, Note_on_c, 0, 47, 72
1, 74350, Note_on_c, 0, 69, 0
1, 74350, Note_on_c, 0, 75, 0
1, 74357, Note_on_c, 0, 76, 67
1, 74357, Note_on_c, 0, 67, 72
1, 74440, Note_on_c, 0, 76, 0
1, 74446, Note_on_c, 0, 70, 67
1, 74526, Note_on_c, 0, 67, 0
1, 74532, Note_on_c, 0, 70, 0
1, 74538, Note_on_c, 0, 71, 67
1, 74539, Note_on_c, 0, 66, 72
1, 74627, Note_on_c, 0, 71, 0
1, 74633, Note_on_c, 0, 67, 72
1, 74714, Note_on_c, 0, 66, 0
1, 74725, Note_on_c, 0, 64, 72
1, 74814, Note_on_c, 0, 64, 0
1, 74820, Note_on_c, 0, 61, 72
1, 74919, Note_on_c, 0, 70, 67
1, 75026, Note_on_c, 0, 70, 0
1, 75029, Note_on_c, 0, 61, 0
1, 75029, Note_on_c, 0, 67, 0
1, 75030, Note_on_c, 0, 71, 58
1, 75030, Note_on_c, 0, 63, 60
1, 75031, Note_on_c, 0, 66, 60
1, 76195, Note_on_c, 0, 66, 0
1, 76195, Note_on_c, 0, 63, 0
1, 76195, Note_on_c, 0, 71, 0
1, 76204, Note_on_c, 0, 47, 0
1, 76212, Marker_t, "Copyright 1997 (P) S.D.Rodrian -  NOT to be reproduced or sold sans permission !"
1, 76672, Note_on_c, 0, 66, 72
1, 76850, Note_on_c, 0, 66, 0
1, 76864, Note_on_c, 0, 62, 72
1, 77045, Note_on_c, 0, 62, 0
1, 77059, Note_on_c, 0, 59, 72
1, 77240, Note_on_c, 0, 59, 0
1, 77253, Note_on_c, 0, 67, 72
1, 77430, Note_on_c, 0, 67, 0
1, 77443, Note_on_c, 0, 66, 72
1, 77591, Note_on_c, 0, 66, 0
1, 77632, Note_on_c, 0, 71, 67
1, 77809, Note_on_c, 0, 71, 0
1, 77823, Note_on_c, 0, 70, 67
1, 77974, Note_on_c, 0, 70, 0
1, 78015, Note_on_c, 0, 64, 72
1, 78192, Note_on_c, 0, 64, 0
1, 78204, Note_on_c, 0, 63, 72
1, 78353, Note_on_c, 0, 63, 0
1, 78394, Note_on_c, 0, 72, 67
1, 78571, Note_on_c, 0, 72, 0
1, 78584, Note_on_c, 0, 71, 67
1, 78732, Note_on_c, 0, 71, 0
1, 78774, Note_on_c, 0, 66, 72
1, 78948, Note_on_c, 0, 66, 0
1, 78961, Note_on_c, 0, 65, 72
1, 79107, Note_on_c, 0, 65, 0
1, 79148, Note_on_c, 0, 74, 67
1, 79322, Note_on_c, 0, 74, 0
1, 79334, Note_on_c, 0, 73, 67
1, 79481, Note_on_c, 0, 73, 0
1, 79522, Note_on_c, 0, 72, 67
1, 79696, Note_on_c, 0, 72, 0
1, 79709, Note_on_c, 0, 73, 67
1, 79884, Note_on_c, 0, 73, 0
1, 79896, Note_on_c, 0, 69, 67
1, 80070, Note_on_c, 0, 69, 0
1, 80082, Note_on_c, 0, 66, 72
1, 80257, Note_on_c, 0, 66, 0
1, 80276, Note_on_c, 0, 69, 52
1, 80322, Note_on_c, 0, 69, 0
1, 80325, Note_on_c, 0, 68, 52
1, 80370, Note_on_c, 0, 68, 0
1, 80374, Note_on_c, 0, 69, 52
1, 80419, Note_on_c, 0, 69, 0
1, 80422, Note_on_c, 0, 68, 52
1, 80460, Note_on_c, 0, 68, 0
1, 80462, Note_on_c, 0, 69, 52
1, 80492, Note_on_c, 0, 69, 0
1, 80494, Note_on_c, 0, 68, 52
1, 80523, Note_on_c, 0, 68, 0
1, 80525, Note_on_c, 0, 69, 52
1, 80550, Note_on_c, 0, 69, 0
1, 80552, Note_on_c, 0, 68, 52
1, 80576, Note_on_c, 0, 68, 0
1, 80578, Note_on_c, 0, 69, 52
1, 80597, Note_on_c, 0, 69, 0
1, 80598, Note_on_c, 0, 68, 52
1, 80618, Note_on_c, 0, 68, 0
1, 80619, Note_on_c, 0, 69, 49
1, 80639, Note_on_c, 0, 69, 0
1, 80640, Note_on_c, 0, 68, 49
1, 80660, Note_on_c, 0, 68, 0
1, 80662, Note_on_c, 0, 69, 49
1, 80684, Note_on_c, 0, 69, 0
1, 80686, Note_on_c, 0, 68, 46
1, 80708, Note_on_c, 0, 68, 0
1, 80711, Note_on_c, 0, 69, 46
1, 80732, Note_on_c, 0, 69, 0
1, 80734, Note_on_c, 0, 68, 46
1, 80761, Note_on_c, 0, 68, 0
1, 80763, Note_on_c, 0, 69, 46
1, 80789, Note_on_c, 0, 69, 0
1, 80791, Note_on_c, 0, 68, 46
1, 80816, Note_on_c, 0, 68, 0
1, 80818, Note_on_c, 0, 69, 46
1, 80845, Note_on_c, 0, 69, 0
1, 80848, Note_on_c, 0, 68, 49
1, 80876, Note_on_c, 0, 68, 0
1, 80879, Note_on_c, 0, 69, 46
1, 80905, Note_on_c, 0, 69, 0
1, 80907, Note_on_c, 0, 68, 46
1, 80933, Note_on_c, 0, 68, 0
1, 80935, Note_on_c, 0, 69, 43
1, 80960, Note_on_c, 0, 69, 0
1, 80962, Note_on_c, 0, 68, 43
1, 80987, Note_on_c, 0, 68, 0
1, 80989, Note_on_c, 0, 69, 43
1, 81013, Note_on_c, 0, 69, 0
1, 81015, Note_on_c, 0, 68, 43
1, 81024, Marker_t, "This file may be freely distributed on the WWW, as long as it's not modified. SDR"
1, 81039, Note_on_c, 0, 68, 0
1, 81042, Note_on_c, 0, 69, 43
1, 81064, Note_on_c, 0, 69, 0
1, 81065, Note_on_c, 0, 68, 46
1, 81089, Note_on_c, 0, 68, 0
1, 81091, Note_on_c, 0, 69, 46
1, 81113, Note_on_c, 0, 69, 0
1, 81115, Note_on_c, 0, 68, 46
1, 81137, Note_on_c, 0, 68, 0
1, 81140, Note_on_c, 0, 69, 46
1, 81162, Note_on_c, 0, 69, 0
1, 81163, Note_on_c, 0, 68, 46
1, 81186, Note_on_c, 0, 68, 0
1, 81188, Note_on_c, 0, 66, 72
1, 81373, Note_on_c, 0, 59, 72
1, 81447, Note_on_c, 0, 66, 0
1, 81465, Note_on_c, 0, 65, 72
1, 81545, Note_on_c, 0, 59, 0
1, 81551, Note_on_c, 0, 65, 0
1, 81557, Note_on_c, 0, 57, 72
1, 81558, Note_on_c, 0, 66, 72
1, 81641, Note_on_c, 0, 66, 0
1, 81647, Note_on_c, 0, 68, 67
1, 81725, Note_on_c, 0, 57, 0
1, 81731, Note_on_c, 0, 68, 0
1, 81737, Note_on_c, 0, 69, 67
1, 81737, Note_on_c, 0, 54, 72
1, 81821, Note_on_c, 0, 69, 0
1, 81827, Note_on_c, 0, 73, 67
1, 81905, Note_on_c, 0, 54, 0
1, 81911, Note_on_c, 0, 73, 0
1, 81916, Note_on_c, 0, 71, 67
1, 81917, Note_on_c, 0, 62, 72
1, 82001, Note_on_c, 0, 71, 0
1, 82007, Note_on_c, 0, 68, 67
1, 82083, Note_on_c, 0, 62, 0
1, 82089, Note_on_c, 0, 68, 0
1, 82095, Note_on_c, 0, 69, 67
1, 82095, Note_on_c, 0, 59, 72
1, 82178, Note_on_c, 0, 69, 0
1, 82184, Note_on_c, 0, 72, 67
1, 82234, Note_on_c, 0, 59, 0
1, 82267, Note_on_c, 0, 72, 0
1, 82272, Note_on_c, 0, 78, 55
1, 82273, Note_on_c, 0, 64, 72
1, 82439, Note_on_c, 0, 64, 0
1, 82450, Note_on_c, 0, 63, 72
1, 82592, Note_on_c, 0, 63, 0
1, 82608, Note_on_c, 0, 78, 0
1, 82632, Note_on_c, 0, 76, 67
1, 82632, Note_on_c, 0, 57, 72
1, 82803, Note_on_c, 0, 57, 0
1, 82816, Note_on_c, 0, 56, 72
1, 82959, Note_on_c, 0, 56, 0
1, 82976, Note_on_c, 0, 76, 0
1, 83000, Note_on_c, 0, 74, 67
1, 83000, Note_on_c, 0, 65, 72
1, 83169, Note_on_c, 0, 65, 0
1, 83181, Note_on_c, 0, 64, 72
1, 83324, Note_on_c, 0, 64, 0
1, 83341, Note_on_c, 0, 74, 0
1, 83364, Note_on_c, 0, 73, 67
1, 83364, Note_on_c, 0, 59, 72
1, 83529, Note_on_c, 0, 59, 0
1, 83541, Note_on_c, 0, 58, 72
1, 83680, Note_on_c, 0, 58, 0
1, 83696, Note_on_c, 0, 73, 0
1, 83719, Note_on_c, 0, 71, 67
1, 83719, Note_on_c, 0, 67, 72
1, 83883, Note_on_c, 0, 67, 0
1, 83895, Note_on_c, 0, 66, 72
1, 84036, Note_on_c, 0, 66, 0
1, 84076, Note_on_c, 0, 65, 72
1, 84220, Note_on_c, 0, 71, 0
1, 84240, Note_on_c, 0, 65, 0
1, 84252, Note_on_c, 0, 70, 67
1, 84252, Note_on_c, 0, 66, 72
1, 84416, Note_on_c, 0, 66, 0
1, 84416, Note_on_c, 0, 70, 0
1, 84428, Note_on_c, 0, 71, 67
1, 84429, Note_on_c, 0, 62, 72
1, 84591, Note_on_c, 0, 62, 0
1, 84604, Note_on_c, 0, 59, 72
1, 84767, Note_on_c, 0, 59, 0
1, 84779, Note_on_c, 0, 61, 72
1, 84839, Note_on_c, 0, 71, 0
1, 84865, Note_on_c, 0, 73, 67
1, 84948, Note_on_c, 0, 73, 0
1, 84953, Note_on_c, 0, 74, 67
1, 85035, Note_on_c, 0, 74, 0
1, 85041, Note_on_c, 0, 76, 67
1, 85123, Note_on_c, 0, 76, 0
1, 85129, Note_on_c, 0, 78, 55
1, 85212, Note_on_c, 0, 78, 0
1, 85217, Note_on_c, 0, 79, 55
1, 85301, Note_on_c, 0, 79, 0
1, 85307, Note_on_c, 0, 71, 67
1, 85389, Note_on_c, 0, 71, 0
1, 85395, Note_on_c, 0, 70, 67
1, 85440, Note_on_c, 0, 61, 0
1, 85476, Note_on_c, 0, 70, 0
1, 85483, Note_on_c, 0, 74, 67
1, 85483, Note_on_c, 0, 59, 72
1, 85564, Note_on_c, 0, 59, 0
1, 85570, Note_on_c, 0, 66, 72
1, 85650, Note_on_c, 0, 66, 0
1, 85656, Note_on_c, 0, 68, 67
1, 85736, Note_on_c, 0, 68, 0
1, 85742, Note_on_c, 0, 70, 67
1, 85822, Note_on_c, 0, 70, 0
1, 85824, Marker_t, "SDRodrian@aol.com  626 Lalor Trenton NJ 08611 http://members.aol.com/sdrodrian"
1, 85828, Note_on_c, 0, 71, 67
1, 85908, Note_on_c, 0, 71, 0
1, 85914, Note_on_c, 0, 73, 67
1, 85993, Note_on_c, 0, 73, 0
1, 85999, Note_on_c, 0, 66, 72
1, 86080, Note_on_c, 0, 66, 0
1, 86086, Note_on_c, 0, 65, 72
1, 86166, Note_on_c, 0, 65, 0
1, 86172, Note_on_c, 0, 69, 67
1, 86294, Note_on_c, 0, 74, 0
1, 86346, Note_on_c, 0, 72, 67
1, 86508, Note_on_c, 0, 72, 0
1, 86520, Note_on_c, 0, 71, 67
1, 86682, Note_on_c, 0, 71, 0
1, 86693, Note_on_c, 0, 75, 67
1, 86857, Note_on_c, 0, 75, 0
1, 86869, Note_on_c, 0, 76, 67
1, 86992, Note_on_c, 0, 69, 0
1, 87045, Note_on_c, 0, 67, 72
1, 87209, Note_on_c, 0, 67, 0
1, 87220, Note_on_c, 0, 66, 72
1, 87384, Note_on_c, 0, 66, 0
1, 87396, Note_on_c, 0, 70, 67
1, 87560, Note_on_c, 0, 70, 0
1, 87572, Note_on_c, 0, 71, 67
1, 87694, Note_on_c, 0, 76, 0
1, 87746, Note_on_c, 0, 74, 67
1, 87909, Note_on_c, 0, 74, 0
1, 87921, Note_on_c, 0, 73, 67
1, 88085, Note_on_c, 0, 73, 0
1, 88097, Note_on_c, 0, 77, 55
1, 88263, Note_on_c, 0, 77, 0
1, 88275, Note_on_c, 0, 78, 55
1, 88398, Note_on_c, 0, 71, 0
1, 88452, Note_on_c, 0, 70, 67
1, 88452, Note_on_c, 0, 54, 72
1, 88524, Note_on_c, 0, 78, 0
1, 88541, Note_on_c, 0, 79, 55
1, 88617, Note_on_c, 0, 54, 0
1, 88618, Note_on_c, 0, 70, 0
1, 88623, Note_on_c, 0, 79, 0
1, 88629, Note_on_c, 0, 78, 55
1, 88630, Note_on_c, 0, 71, 67
1, 88630, Note_on_c, 0, 50, 72
1, 88718, Note_on_c, 0, 76, 67
1, 88719, Note_on_c, 0, 78, 0
1, 88795, Note_on_c, 0, 50, 0
1, 88807, Note_on_c, 0, 74, 67
1, 88807, Note_on_c, 0, 47, 72
1, 88809, Note_on_c, 0, 76, 0
1, 88896, Note_on_c, 0, 71, 67
1, 88897, Note_on_c, 0, 74, 0
1, 88962, Note_on_c, 0, 71, 0
1, 88973, Note_on_c, 0, 47, 0
1, 88979, Note_on_c, 0, 71, 0
1, 88984, Note_on_c, 0, 73, 67
1, 88985, Note_on_c, 0, 55, 72
1, 89073, Note_on_c, 0, 76, 67
1, 89074, Note_on_c, 0, 73, 0
1, 89148, Note_on_c, 0, 55, 0
1, 89160, Note_on_c, 0, 74, 67
1, 89160, Note_on_c, 0, 54, 72
1, 89162, Note_on_c, 0, 76, 0
1, 89248, Note_on_c, 0, 71, 67
1, 89249, Note_on_c, 0, 74, 0
1, 89297, Note_on_c, 0, 54, 0
1, 89336, Note_on_c, 0, 73, 67
1, 89336, Note_on_c, 0, 59, 72
1, 89337, Note_on_c, 0, 66, 72
1, 89338, Note_on_c, 0, 71, 0
1, 89500, Note_on_c, 0, 66, 0
1, 89500, Note_on_c, 0, 59, 0
1, 89511, Note_on_c, 0, 78, 55
1, 89512, Note_on_c, 0, 58, 72
1, 89649, Note_on_c, 0, 58, 0
1, 89687, Note_on_c, 0, 71, 67
1, 89688, Note_on_c, 0, 52, 72
1, 89698, Note_on_c, 0, 73, 0
1, 89851, Note_on_c, 0, 52, 0
1, 89863, Note_on_c, 0, 51, 72
1, 89924, Note_on_c, 0, 78, 0
1, 89950, Note_on_c, 0, 79, 55
1, 90000, Note_on_c, 0, 51, 0
1, 90016, Note_on_c, 0, 71, 0
1, 90033, Note_on_c, 0, 79, 0
1, 90039, Note_on_c, 0, 69, 67
1, 90039, Note_on_c, 0, 78, 55
1, 90039, Note_on_c, 0, 60, 72
1, 90120, Note_on_c, 0, 78, 0
1, 90126, Note_on_c, 0, 76, 67
1, 90203, Note_on_c, 0, 60, 0
1, 90208, Note_on_c, 0, 76, 0
1, 90214, Note_on_c, 0, 75, 67
1, 90215, Note_on_c, 0, 59, 72
1, 90296, Note_on_c, 0, 75, 0
1, 90302, Note_on_c, 0, 73, 67
1, 90351, Note_on_c, 0, 59, 0
1, 90368, Note_on_c, 0, 69, 0
1, 90384, Note_on_c, 0, 73, 0
1, 90390, Note_on_c, 0, 68, 67
1, 90390, Note_on_c, 0, 71, 67
1, 90391, Note_on_c, 0, 54, 72
1, 90470, Note_on_c, 0, 71, 0
1, 90477, Note_on_c, 0, 73, 67
1, 90516, Note_on_c, 0, 73, 0
1, 90520, Note_on_c, 0, 74, 67
1, 90552, Note_on_c, 0, 54, 0
1, 90561, Note_on_c, 0, 74, 0
1, 90564, Note_on_c, 0, 73, 67
1, 90564, Note_on_c, 0, 53, 72
1, 90715, Note_on_c, 0, 68, 0
1, 90725, Note_on_c, 0, 53, 0
1, 90737, Note_on_c, 0, 66, 72
1, 90737, Note_on_c, 0, 62, 72
1, 90807, Note_on_c, 0, 73, 0
1, 90824, Note_on_c, 0, 71, 67
1, 90898, Note_on_c, 0, 62, 0
1, 90900, Marker_t, "1121 Deutz Ave Trenton NJ 08611 http://www.geocities.com/Paris/LeftBank/3214"
1, 90904, Note_on_c, 0, 71, 0
1, 90910, Note_on_c, 0, 69, 67
1, 90910, Note_on_c, 0, 61, 72
1, 90989, Note_on_c, 0, 69, 0
1, 90995, Note_on_c, 0, 74, 67
1, 91070, Note_on_c, 0, 61, 0
1, 91076, Note_on_c, 0, 74, 0
1, 91081, Note_on_c, 0, 68, 67
1, 91082, Note_on_c, 0, 60, 72
1, 91243, Note_on_c, 0, 60, 0
1, 91254, Note_on_c, 0, 61, 72
1, 91255, Note_on_c, 0, 65, 72
1, 91271, Note_on_c, 0, 66, 0
1, 91406, Note_on_c, 0, 68, 0
1, 91416, Note_on_c, 0, 65, 0
1, 91417, Note_on_c, 0, 61, 0
1, 91428, Note_on_c, 0, 69, 67
1, 91428, Note_on_c, 0, 57, 72
1, 91429, Note_on_c, 0, 66, 72
1, 91590, Note_on_c, 0, 57, 0
1, 91602, Note_on_c, 0, 54, 72
1, 91753, Note_on_c, 0, 69, 0
1, 91763, Note_on_c, 0, 54, 0
1, 91776, Note_on_c, 0, 71, 67
1, 91776, Note_on_c, 0, 56, 72
1, 91836, Note_on_c, 0, 66, 0
1, 91862, Note_on_c, 0, 68, 67
1, 91942, Note_on_c, 0, 68, 0
1, 91947, Note_on_c, 0, 69, 67
1, 92027, Note_on_c, 0, 69, 0
1, 92033, Note_on_c, 0, 71, 67
1, 92112, Note_on_c, 0, 71, 0
1, 92117, Note_on_c, 0, 73, 67
1, 92197, Note_on_c, 0, 73, 0
1, 92202, Note_on_c, 0, 74, 67
1, 92280, Note_on_c, 0, 74, 0
1, 92286, Note_on_c, 0, 66, 72
1, 92367, Note_on_c, 0, 66, 0
1, 92374, Note_on_c, 0, 65, 72
1, 92419, Note_on_c, 0, 56, 0
1, 92456, Note_on_c, 0, 65, 0
1, 92462, Note_on_c, 0, 54, 72
1, 92463, Note_on_c, 0, 66, 72
1, 92543, Note_on_c, 0, 54, 0
1, 92548, Note_on_c, 0, 54, 72
1, 92630, Note_on_c, 0, 54, 0
1, 92636, Note_on_c, 0, 55, 72
1, 92716, Note_on_c, 0, 55, 0
1, 92723, Note_on_c, 0, 57, 72
1, 92745, Note_on_c, 0, 71, 0
1, 92804, Note_on_c, 0, 57, 0
1, 92810, Note_on_c, 0, 69, 67
1, 92810, Note_on_c, 0, 59, 72
1, 92889, Note_on_c, 0, 59, 0
1, 92895, Note_on_c, 0, 60, 72
1, 92975, Note_on_c, 0, 60, 0
1, 92981, Note_on_c, 0, 52, 72
1, 93061, Note_on_c, 0, 52, 0
1, 93067, Note_on_c, 0, 51, 72
1, 93131, Note_on_c, 0, 69, 0
1, 93146, Note_on_c, 0, 51, 0
1, 93152, Note_on_c, 0, 68, 67
1, 93153, Note_on_c, 0, 52, 72
1, 93230, Note_on_c, 0, 52, 0
1, 93236, Note_on_c, 0, 54, 72
1, 93316, Note_on_c, 0, 54, 0
1, 93322, Note_on_c, 0, 55, 72
1, 93401, Note_on_c, 0, 55, 0
1, 93407, Note_on_c, 0, 52, 72
1, 93430, Note_on_c, 0, 66, 0
1, 93487, Note_on_c, 0, 52, 0
1, 93493, Note_on_c, 0, 64, 72
1, 93494, Note_on_c, 0, 58, 72
1, 93572, Note_on_c, 0, 58, 0
1, 93578, Note_on_c, 0, 59, 72
1, 93658, Note_on_c, 0, 59, 0
1, 93663, Note_on_c, 0, 50, 72
1, 93744, Note_on_c, 0, 50, 0
1, 93750, Note_on_c, 0, 49, 72
1, 93830, Note_on_c, 0, 49, 0
1, 93836, Note_on_c, 0, 66, 72
1, 93837, Note_on_c, 0, 50, 72
1, 93915, Note_on_c, 0, 68, 0
1, 93996, Note_on_c, 0, 50, 0
1, 94008, Note_on_c, 0, 71, 67
1, 94008, Note_on_c, 0, 47, 72
1, 94093, Note_on_c, 0, 62, 72
1, 94096, Note_on_c, 0, 64, 0
1, 94168, Note_on_c, 0, 47, 0
1, 94174, Note_on_c, 0, 62, 0
1, 94180, Note_on_c, 0, 69, 67
1, 94181, Note_on_c, 0, 54, 72
1, 94181, Note_on_c, 0, 61, 72
1, 94196, Note_on_c, 0, 71, 0
1, 94259, Note_on_c, 0, 61, 0
1, 94265, Note_on_c, 0, 59, 72
1, 94351, Note_on_c, 0, 57, 72
1, 94351, Note_on_c, 0, 66, 72
1, 94353, Note_on_c, 0, 59, 0
1, 94368, Note_on_c, 0, 69, 0
1, 94436, Note_on_c, 0, 54, 72
1, 94438, Note_on_c, 0, 57, 0
1, 94481, Note_on_c, 0, 66, 0
1, 94511, Note_on_c, 0, 66, 0
1, 94517, Note_on_c, 0, 54, 0
1, 94523, Note_on_c, 0, 74, 67
1, 94524, Note_on_c, 0, 56, 72
1, 94524, Note_on_c, 0, 65, 72
1, 94608, Note_on_c, 0, 59, 72
1, 94609, Note_on_c, 0, 56, 0
1, 94694, Note_on_c, 0, 71, 67
1, 94694, Note_on_c, 0, 63, 72
1, 94694, Note_on_c, 0, 57, 72
1, 94695, Note_on_c, 0, 59, 0
1, 94698, Note_on_c, 0, 65, 0
1, 94711, Note_on_c, 0, 74, 0
1, 94761, Note_on_c, 0, 54, 0
1, 94780, Note_on_c, 0, 54, 72
1, 94781, Note_on_c, 0, 57, 0
1, 94860, Note_on_c, 0, 54, 0
1, 94866, Note_on_c, 0, 76, 67
1, 94866, Note_on_c, 0, 60, 72
1, 94867, Note_on_c, 0, 54, 72
1, 94869, Note_on_c, 0, 63, 0
1, 94883, Note_on_c, 0, 71, 0
1, 95026, Note_on_c, 0, 60, 0
1, 95037, Note_on_c, 0, 76, 0
1, 95037, Note_on_c, 0, 75, 67
1, 95038, Note_on_c, 0, 59, 72
1, 95117, Note_on_c, 0, 59, 0
1, 95123, Note_on_c, 0, 57, 72
1, 95187, Note_on_c, 0, 54, 0
1, 95196, Note_on_c, 0, 75, 0
1, 95202, Note_on_c, 0, 57, 0
1, 95208, Note_on_c, 0, 69, 67
1, 95209, Note_on_c, 0, 75, 67
1, 95209, Note_on_c, 0, 59, 72
1, 95210, Note_on_c, 0, 52, 72
1, 95368, Note_on_c, 0, 75, 0
1, 95369, Note_on_c, 0, 69, 0
1, 95380, Note_on_c, 0, 68, 67
1, 95381, Note_on_c, 0, 76, 67
1, 95530, Note_on_c, 0, 52, 0
1, 95540, Note_on_c, 0, 76, 0
1, 95540, Note_on_c, 0, 68, 0
1, 95551, Note_on_c, 0, 77, 55
1, 95552, Note_on_c, 0, 50, 72
1, 95711, Note_on_c, 0, 77, 0
1, 95722, Note_on_c, 0, 76, 67
1, 95850, Note_on_c, 0, 59, 0
1, 95870, Note_on_c, 0, 50, 0
1, 95880, Note_on_c, 0, 76, 0
1, 95891, Note_on_c, 0, 71, 67
1, 95892, Note_on_c, 0, 49, 72
1, 95892, Note_on_c, 0, 52, 72
1, 96049, Note_on_c, 0, 71, 0
1, 96061, Note_on_c, 0, 70, 67
1, 96061, Note_on_c, 0, 76, 67
1, 96211, Note_on_c, 0, 52, 0
1, 96211, Note_on_c, 0, 49, 0
1, 96220, Note_on_c, 0, 76, 0
1, 96221, Note_on_c, 0, 70, 0
1, 96232, Note_on_c, 0, 79, 55
1, 96232, Note_on_c, 0, 74, 67
1, 96233, Note_on_c, 0, 59, 72
1, 96233, Note_on_c, 0, 47, 72
1, 96312, Note_on_c, 0, 74, 0
1, 96318, Note_on_c, 0, 73, 67
1, 96392, Note_on_c, 0, 59, 0
1, 96393, Note_on_c, 0, 79, 0
1, 96398, Note_on_c, 0, 73, 0
1, 96404, Note_on_c, 0, 74, 67
1, 96404, Note_on_c, 0, 78, 55
1, 96405, Note_on_c, 0, 57, 72
1, 96483, Note_on_c, 0, 74, 0
1, 96489, Note_on_c, 0, 71, 67
1, 96564, Note_on_c, 0, 57, 0
1, 96564, Note_on_c, 0, 78, 0
1, 96570, Note_on_c, 0, 71, 0
1, 96576, Note_on_c, 0, 77, 55
1, 96576, Note_on_c, 0, 73, 67
1, 96576, Note_on_c, 0, 56, 72
1, 96715, Note_on_c, 0, 47, 0
1, 96734, Note_on_c, 0, 77, 0
1, 96734, Note_on_c, 0, 56, 0
1, 96745, Note_on_c, 0, 78, 55
1, 96746, Note_on_c, 0, 54, 72
1, 96746, Note_on_c, 0, 46, 72
1, 96896, Note_on_c, 0, 73, 0
1, 96906, Note_on_c, 0, 46, 0
1, 96906, Note_on_c, 0, 54, 0
1, 96907, Note_on_c, 0, 78, 0
1, 96917, Note_on_c, 0, 74, 67
1, 96918, Note_on_c, 0, 71, 67
1, 96918, Note_on_c, 0, 66, 72
1, 96919, Note_on_c, 0, 47, 72
1, 97078, Note_on_c, 0, 66, 0
1, 97078, Note_on_c, 0, 71, 0
1, 97079, Note_on_c, 0, 74, 0
1, 97089, Note_on_c, 0, 71, 67
1, 97089, Note_on_c, 0, 62, 72
1, 97089, Note_on_c, 0, 66, 72
1, 97247, Note_on_c, 0, 66, 0
1, 97247, Note_on_c, 0, 62, 0
1, 97248, Note_on_c, 0, 71, 0
1, 97258, Note_on_c, 0, 73, 67
1, 97259, Note_on_c, 0, 67, 72
1, 97260, Note_on_c, 0, 64, 72
1, 97317, Note_on_c, 0, 47, 0
1, 97343, Note_on_c, 0, 49, 72
1, 97420, Note_on_c, 0, 49, 0
1, 97427, Note_on_c, 0, 50, 72
1, 97503, Note_on_c, 0, 50, 0
1, 97509, Note_on_c, 0, 52, 72
1, 97586, Note_on_c, 0, 52, 0
1, 97593, Note_on_c, 0, 54, 72
1, 97672, Note_on_c, 0, 54, 0
1, 97678, Note_on_c, 0, 55, 72
1, 97758, Note_on_c, 0, 55, 0
1, 97764, Note_on_c, 0, 47, 72
1, 97845, Note_on_c, 0, 47, 0
1, 97851, Note_on_c, 0, 46, 72
1, 97896, Note_on_c, 0, 64, 0
1, 97932, Note_on_c, 0, 46, 0
1, 97938, Note_on_c, 0, 50, 72
1, 97963, Note_on_c, 0, 73, 0
1, 98023, Note_on_c, 0, 73, 67
1, 98055, Note_on_c, 0, 67, 0
1, 98100, Note_on_c, 0, 73, 0
1, 98105, Note_on_c, 0, 74, 67
1, 98106, Note_on_c, 0, 61, 72
1, 98184, Note_on_c, 0, 74, 0
1, 98189, Note_on_c, 0, 76, 67
1, 98268, Note_on_c, 0, 76, 0
1, 98274, Note_on_c, 0, 78, 55
1, 98275, Note_on_c, 0, 58, 72
1, 98353, Note_on_c, 0, 78, 0
1, 98359, Note_on_c, 0, 79, 55
1, 98439, Note_on_c, 0, 79, 0
1, 98445, Note_on_c, 0, 71, 67
1, 98446, Note_on_c, 0, 54, 72
1, 98449, Note_on_c, 0, 58, 0
1, 98525, Note_on_c, 0, 71, 0
1, 98531, Note_on_c, 0, 70, 67
1, 98610, Note_on_c, 0, 70, 0
1, 98616, Note_on_c, 0, 71, 67
1, 98616, Note_on_c, 0, 62, 72
1, 98617, Note_on_c, 0, 66, 72
1, 98621, Note_on_c, 0, 54, 0
1, 98631, Note_on_c, 0, 61, 0
1, 98654, Note_on_c, 0, 50, 0
1, 98701, Note_on_c, 0, 46, 72
1, 98780, Note_on_c, 0, 46, 0
1, 98786, Note_on_c, 0, 47, 72
1, 98864, Note_on_c, 0, 47, 0
1, 98869, Note_on_c, 0, 49, 72
1, 98933, Note_on_c, 0, 66, 0
1, 98948, Note_on_c, 0, 49, 0
1, 98954, Note_on_c, 0, 68, 67
1, 98954, Note_on_c, 0, 50, 72
1, 99034, Note_on_c, 0, 50, 0
1, 99039, Note_on_c, 0, 52, 72
1, 99125, Note_on_c, 0, 42, 72
1, 99135, Note_on_c, 0, 52, 0
1, 99206, Note_on_c, 0, 42, 0
1, 99212, Note_on_c, 0, 41, 72
1, 99293, Note_on_c, 0, 41, 0
1, 99298, Note_on_c, 0, 62, 0
1, 99299, Note_on_c, 0, 61, 72
1, 99299, Note_on_c, 0, 42, 72
1, 99337, Note_on_c, 0, 71, 0
1, 99383, Note_on_c, 0, 65, 72
1, 99463, Note_on_c, 0, 65, 0
1, 99469, Note_on_c, 0, 66, 72
1, 99552, Note_on_c, 0, 68, 67
1, 99594, Note_on_c, 0, 68, 0
1, 99614, Note_on_c, 0, 42, 0
1, 99622, Note_on_c, 0, 66, 0
1, 99635, Note_on_c, 0, 68, 0
1, 99636, Note_on_c, 0, 69, 67
1, 99636, Note_on_c, 0, 66, 72
1, 99636, Note_on_c, 0, 54, 72
1, 99716, Note_on_c, 0, 71, 67
1, 99724, Note_on_c, 0, 69, 0
1, 99800, Note_on_c, 0, 73, 67
1, 99801, Note_on_c, 0, 57, 72
1, 99804, Note_on_c, 0, 54, 0
1, 99808, Note_on_c, 0, 71, 0
1, 99872, Note_on_c, 0, 66, 0
1, 99885, Note_on_c, 0, 66, 72
1, 99933, Note_on_c, 0, 73, 0
1, 99957, Note_on_c, 0, 61, 0
1, 99971, Note_on_c, 0, 74, 67
1, 99972, Note_on_c, 0, 59, 72
1, 99974, Note_on_c, 0, 57, 0
1, 99981, Note_on_c, 0, 66, 0
1, 100058, Note_on_c, 0, 76, 67
1, 100067, Note_on_c, 0, 74, 0
1, 100132, Note_on_c, 0, 59, 0
1, 100144, Note_on_c, 0, 78, 55
1, 100144, Note_on_c, 0, 59, 72
1, 100145, Note_on_c, 0, 50, 72
1, 100152, Note_on_c, 0, 76, 0
1, 100223, Note_on_c, 0, 59, 0
1, 100228, Note_on_c, 0, 57, 72
1, 100298, Note_on_c, 0, 50, 0
1, 100303, Note_on_c, 0, 57, 0
1, 100309, Note_on_c, 0, 56, 72
1, 100309, Note_on_c, 0, 52, 72
1, 100388, Note_on_c, 0, 56, 0
1, 100393, Note_on_c, 0, 57, 72
1, 100457, Note_on_c, 0, 78, 0
1, 100466, Note_on_c, 0, 52, 0
1, 100472, Note_on_c, 0, 57, 0
1, 100477, Note_on_c, 0, 76, 67
1, 100477, Note_on_c, 0, 59, 72
1, 100478, Note_on_c, 0, 56, 72
1, 100556, Note_on_c, 0, 76, 0
1, 100561, Note_on_c, 0, 74, 67
1, 100635, Note_on_c, 0, 56, 0
1, 100641, Note_on_c, 0, 74, 0
1, 100647, Note_on_c, 0, 73, 67
1, 100647, Note_on_c, 0, 57, 72
1, 100726, Note_on_c, 0, 73, 0
1, 100731, Note_on_c, 0, 74, 67
1, 100795, Note_on_c, 0, 59, 0
1, 100804, Note_on_c, 0, 57, 0
1, 100810, Note_on_c, 0, 74, 0
1, 100816, Note_on_c, 0, 76, 67
1, 100816, Note_on_c, 0, 57, 72
1, 100817, Note_on_c, 0, 49, 72
1, 100894, Note_on_c, 0, 57, 0
1, 100899, Note_on_c, 0, 56, 72
1, 100970, Note_on_c, 0, 49, 0
1, 100976, Note_on_c, 0, 56, 0
1, 100982, Note_on_c, 0, 54, 72
1, 100982, Note_on_c, 0, 50, 72
1, 101059, Note_on_c, 0, 54, 0
1, 101064, Note_on_c, 0, 56, 72
1, 101125, Note_on_c, 0, 76, 0
1, 101135, Note_on_c, 0, 50, 0
1, 101140, Note_on_c, 0, 56, 0
1, 101145, Note_on_c, 0, 74, 67
1, 101146, Note_on_c, 0, 54, 72
1, 101146, Note_on_c, 0, 57, 72
1, 101222, Note_on_c, 0, 74, 0
1, 101228, Note_on_c, 0, 73, 67
1, 101300, Note_on_c, 0, 54, 0
1, 101304, Note_on_c, 0, 73, 0
1, 101310, Note_on_c, 0, 71, 67
1, 101311, Note_on_c, 0, 56, 72
1, 101389, Note_on_c, 0, 71, 0
1, 101394, Note_on_c, 0, 73, 67
1, 101456, Note_on_c, 0, 57, 0
1, 101466, Note_on_c, 0, 56, 0
1, 101472, Note_on_c, 0, 73, 0
1, 101477, Note_on_c, 0, 74, 67
1, 101478, Note_on_c, 0, 56, 72
1, 101478, Note_on_c, 0, 47, 72
1, 101554, Note_on_c, 0, 56, 0
1, 101560, Note_on_c, 0, 54, 72
1, 101633, Note_on_c, 0, 47, 0
1, 101638, Note_on_c, 0, 54, 0
1, 101644, Note_on_c, 0, 49, 72
1, 101644, Note_on_c, 0, 53, 72
1, 101721, Note_on_c, 0, 53, 0
1, 101727, Note_on_c, 0, 54, 72
1, 101788, Note_on_c, 0, 74, 0
1, 101798, Note_on_c, 0, 49, 0
1, 101804, Note_on_c, 0, 54, 0
1, 101810, Note_on_c, 0, 73, 67
1, 101810, Note_on_c, 0, 56, 72
1, 101810, Note_on_c, 0, 53, 72
1, 101888, Note_on_c, 0, 73, 0
1, 101894, Note_on_c, 0, 71, 67
1, 101968, Note_on_c, 0, 53, 0
1, 101968, Note_on_c, 0, 56, 0
1, 101974, Note_on_c, 0, 71, 0
1, 101980, Note_on_c, 0, 69, 67
1, 101980, Note_on_c, 0, 54, 72
1, 102064, Note_on_c, 0, 71, 67
1, 102138, Note_on_c, 0, 54, 0
1, 102143, Note_on_c, 0, 71, 0
1, 102149, Note_on_c, 0, 73, 67
1, 102149, Note_on_c, 0, 45, 72
1, 102292, Note_on_c, 0, 69, 0
1, 102302, Note_on_c, 0, 45, 0
1, 102313, Note_on_c, 0, 66, 72
1, 102313, Note_on_c, 0, 47, 72
1, 102456, Note_on_c, 0, 73, 0
1, 102466, Note_on_c, 0, 47, 0
1, 102467, Note_on_c, 0, 66, 0
1, 102477, Note_on_c, 0, 78, 55
1, 102478, Note_on_c, 0, 71, 67
1, 102478, Note_on_c, 0, 62, 72
1, 102479, Note_on_c, 0, 50, 72
1, 102554, Note_on_c, 0, 71, 0
1, 102560, Note_on_c, 0, 69, 67
1, 102631, Note_on_c, 0, 50, 0
1, 102631, Note_on_c, 0, 62, 0
1, 102636, Note_on_c, 0, 69, 0
1, 102641, Note_on_c, 0, 52, 72
1, 102642, Note_on_c, 0, 59, 72
1, 102642, Note_on_c, 0, 67, 72
1, 102719, Note_on_c, 0, 67, 0
1, 102724, Note_on_c, 0, 69, 67
1, 102787, Note_on_c, 0, 78, 0
1, 102797, Note_on_c, 0, 52, 0
1, 102797, Note_on_c, 0, 59, 0
1, 102803, Note_on_c, 0, 69, 0
1, 102808, Note_on_c, 0, 76, 67
1, 102809, Note_on_c, 0, 71, 67
1, 102809, Note_on_c, 0, 43, 72
1, 102885, Note_on_c, 0, 76, 0
1, 102890, Note_on_c, 0, 74, 67
1, 102960, Note_on_c, 0, 43, 0
1, 102966, Note_on_c, 0, 74, 0
1, 102972, Note_on_c, 0, 73, 67
1, 102972, Note_on_c, 0, 45, 72
1, 103047, Note_on_c, 0, 73, 0
1, 103052, Note_on_c, 0, 74, 67
1, 103114, Note_on_c, 0, 71, 0
1, 103123, Note_on_c, 0, 45, 0
1, 103129, Note_on_c, 0, 74, 0
1, 103135, Note_on_c, 0, 76, 67
1, 103135, Note_on_c, 0, 69, 67
1, 103136, Note_on_c, 0, 49, 72
1, 103212, Note_on_c, 0, 69, 0
1, 103218, Note_on_c, 0, 67, 72
1, 103290, Note_on_c, 0, 49, 0
1, 103296, Note_on_c, 0, 67, 0
1, 103302, Note_on_c, 0, 50, 72
1, 103302, Note_on_c, 0, 66, 72
1, 103380, Note_on_c, 0, 66, 0
1, 103385, Note_on_c, 0, 67, 72
1, 103449, Note_on_c, 0, 76, 0
1, 103458, Note_on_c, 0, 50, 0
1, 103464, Note_on_c, 0, 67, 0
1, 103470, Note_on_c, 0, 69, 67
1, 103470, Note_on_c, 0, 74, 67
1, 103471, Note_on_c, 0, 42, 72
1, 103548, Note_on_c, 0, 74, 0
1, 103552, Note_on_c, 0, 73, 67
1, 103622, Note_on_c, 0, 42, 0
1, 103628, Note_on_c, 0, 73, 0
1, 103634, Note_on_c, 0, 71, 67
1, 103634, Note_on_c, 0, 43, 72
1, 103709, Note_on_c, 0, 71, 0
1, 103715, Note_on_c, 0, 73, 67
1, 103777, Note_on_c, 0, 69, 0
1, 103787, Note_on_c, 0, 43, 0
1, 103792, Note_on_c, 0, 73, 0
1, 103797, Note_on_c, 0, 74, 67
1, 103798, Note_on_c, 0, 67, 72
1, 103798, Note_on_c, 0, 47, 72
1, 103876, Note_on_c, 0, 67, 0
1, 103882, Note_on_c, 0, 66, 72
1, 103954, Note_on_c, 0, 47, 0
1, 103959, Note_on_c, 0, 66, 0
1, 103965, Note_on_c, 0, 49, 72
1, 103965, Note_on_c, 0, 64, 72
1, 104043, Note_on_c, 0, 64, 0
1, 104049, Note_on_c, 0, 66, 72
1, 104111, Note_on_c, 0, 74, 0
1, 104122, Note_on_c, 0, 49, 0
1, 104126, Note_on_c, 0, 66, 0
1, 104132, Note_on_c, 0, 73, 67
1, 104133, Note_on_c, 0, 67, 72
1, 104133, Note_on_c, 0, 40, 72
1, 104209, Note_on_c, 0, 73, 0
1, 104214, Note_on_c, 0, 71, 67
1, 104283, Note_on_c, 0, 40, 0
1, 104289, Note_on_c, 0, 71, 0
1, 104294, Note_on_c, 0, 70, 67
1, 104294, Note_on_c, 0, 42, 72
1, 104370, Note_on_c, 0, 70, 0
1, 104376, Note_on_c, 0, 71, 67
1, 104436, Note_on_c, 0, 67, 0
1, 104446, Note_on_c, 0, 42, 0
1, 104452, Note_on_c, 0, 71, 0
1, 104458, Note_on_c, 0, 73, 67
1, 104458, Note_on_c, 0, 66, 72
1, 104459, Note_on_c, 0, 46, 72
1, 104536, Note_on_c, 0, 66, 0
1, 104542, Note_on_c, 0, 64, 72
1, 104614, Note_on_c, 0, 46, 0
1, 104620, Note_on_c, 0, 64, 0
1, 104626, Note_on_c, 0, 62, 72
1, 104627, Note_on_c, 0, 47, 72
1, 104772, Note_on_c, 0, 73, 0
1, 104793, Note_on_c, 0, 71, 67
1, 104794, Note_on_c, 0, 66, 72
1, 104870, Note_on_c, 0, 71, 0
1, 104876, Note_on_c, 0, 70, 67
1, 104937, Note_on_c, 0, 62, 0
1, 104947, Note_on_c, 0, 66, 0
1, 104952, Note_on_c, 0, 70, 0
1, 104957, Note_on_c, 0, 71, 67
1, 104958, Note_on_c, 0, 62, 72
1, 105015, Note_on_c, 0, 47, 0
1, 105040, Note_on_c, 0, 49, 72
1, 105112, Note_on_c, 0, 62, 0
1, 105118, Note_on_c, 0, 49, 0
1, 105122, Note_on_c, 0, 50, 72
1, 105123, Note_on_c, 0, 59, 72
1, 105200, Note_on_c, 0, 50, 0
1, 105206, Note_on_c, 0, 54, 72
1, 105278, Note_on_c, 0, 59, 0
1, 105284, Note_on_c, 0, 54, 0
1, 105289, Note_on_c, 0, 52, 72
1, 105290, Note_on_c, 0, 67, 72
1, 105348, Note_on_c, 0, 71, 0
1, 105367, Note_on_c, 0, 52, 0
1, 105373, Note_on_c, 0, 70, 67
1, 105373, Note_on_c, 0, 49, 72
1, 105444, Note_on_c, 0, 67, 0
1, 105450, Note_on_c, 0, 49, 0
1, 105450, Note_on_c, 0, 70, 0
1, 105456, Note_on_c, 0, 71, 67
1, 105456, Note_on_c, 0, 66, 72
1, 105456, Note_on_c, 0, 50, 72
1, 105532, Note_on_c, 0, 50, 0
1, 105533, Note_on_c, 0, 71, 0
1, 105538, Note_on_c, 0, 74, 67
1, 105539, Note_on_c, 0, 54, 72
1, 105611, Note_on_c, 0, 66, 0
1, 105617, Note_on_c, 0, 54, 0
1, 105617, Note_on_c, 0, 74, 0
1, 105623, Note_on_c, 0, 73, 67
1, 105623, Note_on_c, 0, 71, 67
1, 105624, Note_on_c, 0, 55, 72
1, 105701, Note_on_c, 0, 55, 0
1, 105707, Note_on_c, 0, 52, 72
1, 105781, Note_on_c, 0, 71, 0
1, 105787, Note_on_c, 0, 52, 0
1, 105792, Note_on_c, 0, 70, 67
1, 105793, Note_on_c, 0, 54, 72
1, 105872, Note_on_c, 0, 54, 0
1, 105878, Note_on_c, 0, 58, 72
1, 105942, Note_on_c, 0, 73, 0
1, 105952, Note_on_c, 0, 70, 0
1, 105958, Note_on_c, 0, 58, 0
1, 105963, Note_on_c, 0, 71, 67
1, 105964, Note_on_c, 0, 64, 72
1, 105964, Note_on_c, 0, 59, 72
1, 106043, Note_on_c, 0, 59, 0
1, 106049, Note_on_c, 0, 55, 72
1, 106120, Note_on_c, 0, 64, 0
1, 106126, Note_on_c, 0, 55, 0
1, 106131, Note_on_c, 0, 54, 72
1, 106132, Note_on_c, 0, 63, 72
1, 106207, Note_on_c, 0, 54, 0
1, 106213, Note_on_c, 0, 52, 72
1, 106274, Note_on_c, 0, 71, 0
1, 106284, Note_on_c, 0, 63, 0
1, 106289, Note_on_c, 0, 52, 0
1, 106295, Note_on_c, 0, 69, 67
1, 106295, Note_on_c, 0, 72, 67
1, 106296, Note_on_c, 0, 51, 72
1, 106451, Note_on_c, 0, 72, 0
1, 106462, Note_on_c, 0, 71, 67
1, 106530, Note_on_c, 0, 51, 0
1, 106546, Note_on_c, 0, 49, 72
1, 106608, Note_on_c, 0, 69, 0
1, 106618, Note_on_c, 0, 71, 0
1, 106624, Note_on_c, 0, 49, 0
1, 106630, Note_on_c, 0, 68, 67
1, 106631, Note_on_c, 0, 66, 72
1, 106631, Note_on_c, 0, 50, 72
1, 106708, Note_on_c, 0, 50, 0
1, 106713, Note_on_c, 0, 52, 72
1, 106785, Note_on_c, 0, 66, 0
1, 106791, Note_on_c, 0, 52, 0
1, 106797, Note_on_c, 0, 65, 72
1, 106797, Note_on_c, 0, 50, 72
1, 106872, Note_on_c, 0, 50, 0
1, 106879, Note_on_c, 0, 49, 72
1, 106940, Note_on_c, 0, 68, 0
1, 106949, Note_on_c, 0, 65, 0
1, 106954, Note_on_c, 0, 49, 0
1, 106960, Note_on_c, 0, 74, 67
1, 106961, Note_on_c, 0, 66, 72
1, 106961, Note_on_c, 0, 47, 72
1, 107037, Note_on_c, 0, 47, 0
1, 107043, Note_on_c, 0, 45, 72
1, 107114, Note_on_c, 0, 74, 0
1, 107120, Note_on_c, 0, 45, 0
1, 107126, Note_on_c, 0, 73, 67
1, 107127, Note_on_c, 0, 44, 72
1, 107204, Note_on_c, 0, 44, 0
1, 107209, Note_on_c, 0, 42, 72
1, 107282, Note_on_c, 0, 73, 0
1, 107288, Note_on_c, 0, 42, 0
1, 107293, Note_on_c, 0, 72, 67
1, 107294, Note_on_c, 0, 44, 72
1, 107371, Note_on_c, 0, 44, 0
1, 107377, Note_on_c, 0, 47, 72
1, 107430, Note_on_c, 0, 66, 0
1, 107450, Note_on_c, 0, 72, 0
1, 107456, Note_on_c, 0, 47, 0
1, 107460, Note_on_c, 0, 73, 67
1, 107461, Note_on_c, 0, 65, 72
1, 107461, Note_on_c, 0, 45, 72
1, 107538, Note_on_c, 0, 45, 0
1, 107544, Note_on_c, 0, 44, 72
1, 107616, Note_on_c, 0, 65, 0
1, 107616, Note_on_c, 0, 73, 0
1, 107621, Note_on_c, 0, 44, 0
1, 107627, Note_on_c, 0, 69, 67
1, 107627, Note_on_c, 0, 66, 72
1, 107628, Note_on_c, 0, 42, 72
1, 107704, Note_on_c, 0, 42, 0
1, 107709, Note_on_c, 0, 45, 72
1, 107781, Note_on_c, 0, 66, 0
1, 107782, Note_on_c, 0, 69, 0
1, 107787, Note_on_c, 0, 45, 0
1, 107792, Note_on_c, 0, 66, 72
1, 107792, Note_on_c, 0, 50, 72
1, 107869, Note_on_c, 0, 50, 0
1, 107875, Note_on_c, 0, 49, 72
1, 107952, Note_on_c, 0, 49, 0
1, 107958, Note_on_c, 0, 68, 67
1, 107958, Note_on_c, 0, 47, 72
1, 108025, Note_on_c, 0, 66, 0
1, 108040, Note_on_c, 0, 68, 67
1, 108112, Note_on_c, 0, 47, 0
1, 108118, Note_on_c, 0, 68, 0
1, 108123, Note_on_c, 0, 69, 67
1, 108123, Note_on_c, 0, 44, 72
1, 108201, Note_on_c, 0, 69, 0
1, 108205, Note_on_c, 0, 71, 67
1, 108277, Note_on_c, 0, 44, 0
1, 108283, Note_on_c, 0, 71, 0
1, 108289, Note_on_c, 0, 73, 67
1, 108289, Note_on_c, 0, 49, 72
1, 108366, Note_on_c, 0, 73, 0
1, 108372, Note_on_c, 0, 74, 67
1, 108444, Note_on_c, 0, 49, 0
1, 108449, Note_on_c, 0, 74, 0
1, 108455, Note_on_c, 0, 66, 72
1, 108456, Note_on_c, 0, 37, 72
1, 108533, Note_on_c, 0, 66, 0
1, 108539, Note_on_c, 0, 65, 72
1, 108582, Note_on_c, 0, 68, 0
1, 108611, Note_on_c, 0, 37, 0
1, 108616, Note_on_c, 0, 65, 0
1, 108622, Note_on_c, 0, 69, 67
1, 108623, Note_on_c, 0, 66, 72
1, 108623, Note_on_c, 0, 54, 72
1, 108698, Note_on_c, 0, 54, 0
1, 108704, Note_on_c, 0, 55, 72
1, 108780, Note_on_c, 0, 55, 0
1, 108785, Note_on_c, 0, 57, 72
1, 108862, Note_on_c, 0, 57, 0
1, 108868, Note_on_c, 0, 59, 72
1, 108929, Note_on_c, 0, 66, 0
1, 108944, Note_on_c, 0, 59, 0
1, 108950, Note_on_c, 0, 78, 55
1, 108950, Note_on_c, 0, 60, 72
1, 109025, Note_on_c, 0, 60, 0
1, 109031, Note_on_c, 0, 62, 72
1, 109108, Note_on_c, 0, 62, 0
1, 109113, Note_on_c, 0, 52, 72
1, 109189, Note_on_c, 0, 52, 0
1, 109196, Note_on_c, 0, 51, 72
1, 109271, Note_on_c, 0, 51, 0
1, 109277, Note_on_c, 0, 55, 72
1, 109391, Note_on_c, 0, 69, 0
1, 109410, Note_on_c, 0, 78, 0
1, 109440, Note_on_c, 0, 76, 67
1, 109441, Note_on_c, 0, 72, 67
1, 109593, Note_on_c, 0, 72, 0
1, 109593, Note_on_c, 0, 76, 0
1, 109605, Note_on_c, 0, 71, 67
1, 109605, Note_on_c, 0, 75, 67
1, 109757, Note_on_c, 0, 71, 0
1, 109758, Note_on_c, 0, 75, 0
1, 109768, Note_on_c, 0, 75, 67
1, 109768, Note_on_c, 0, 78, 55
1, 109921, Note_on_c, 0, 78, 0
1, 109921, Note_on_c, 0, 75, 0
1, 109932, Note_on_c, 0, 79, 55
1, 109932, Note_on_c, 0, 76, 67
1, 109968, Note_on_c, 0, 55, 0
1, 110014, Note_on_c, 0, 47, 72
1, 110090, Note_on_c, 0, 47, 0
1, 110096, Note_on_c, 0, 49, 72
1, 110172, Note_on_c, 0, 49, 0
1, 110178, Note_on_c, 0, 50, 72
1, 110254, Note_on_c, 0, 50, 0
1, 110258, Note_on_c, 0, 52, 72
1, 110334, Note_on_c, 0, 52, 0
1, 110339, Note_on_c, 0, 54, 72
1, 110415, Note_on_c, 0, 54, 0
1, 110421, Note_on_c, 0, 47, 72
1, 110496, Note_on_c, 0, 47, 0
1, 110501, Note_on_c, 0, 46, 72
1, 110577, Note_on_c, 0, 46, 0
1, 110583, Note_on_c, 0, 47, 72
1, 110697, Note_on_c, 0, 79, 0
1, 110698, Note_on_c, 0, 76, 0
1, 110746, Note_on_c, 0, 78, 55
1, 110747, Note_on_c, 0, 74, 67
1, 110899, Note_on_c, 0, 74, 0
1, 110899, Note_on_c, 0, 78, 0
1, 110910, Note_on_c, 0, 77, 55
1, 110911, Note_on_c, 0, 73, 67
1, 111063, Note_on_c, 0, 73, 0
1, 111063, Note_on_c, 0, 77, 0
1, 111073, Note_on_c, 0, 80, 55
1, 111074, Note_on_c, 0, 77, 55
1, 111226, Note_on_c, 0, 77, 0
1, 111227, Note_on_c, 0, 80, 0
1, 111238, Note_on_c, 0, 78, 55
1, 111239, Note_on_c, 0, 73, 67
1, 111352, Note_on_c, 0, 47, 0
1, 111390, Note_on_c, 0, 73, 0
1, 111401, Note_on_c, 0, 74, 67
1, 111402, Note_on_c, 0, 46, 72
1, 111478, Note_on_c, 0, 74, 0
1, 111483, Note_on_c, 0, 76, 67
1, 111544, Note_on_c, 0, 78, 0
1, 111553, Note_on_c, 0, 46, 0
1, 111559, Note_on_c, 0, 76, 0
1, 111565, Note_on_c, 0, 74, 67
1, 111566, Note_on_c, 0, 47, 72
1, 111641, Note_on_c, 0, 74, 0
1, 111647, Note_on_c, 0, 76, 67
1, 111718, Note_on_c, 0, 47, 0
1, 111722, Note_on_c, 0, 76, 0
1, 111729, Note_on_c, 0, 78, 55
1, 111729, Note_on_c, 0, 71, 67
1, 111730, Note_on_c, 0, 50, 72
1, 111804, Note_on_c, 0, 71, 0
1, 111810, Note_on_c, 0, 69, 67
1, 111880, Note_on_c, 0, 50, 0
1, 111886, Note_on_c, 0, 69, 0
1, 111891, Note_on_c, 0, 52, 72
1, 111891, Note_on_c, 0, 67, 72
1, 111967, Note_on_c, 0, 67, 0
1, 111972, Note_on_c, 0, 69, 67
1, 112033, Note_on_c, 0, 78, 0
1, 112042, Note_on_c, 0, 52, 0
1, 112047, Note_on_c, 0, 69, 0
1, 112053, Note_on_c, 0, 76, 67
1, 112054, Note_on_c, 0, 71, 67
1, 112054, Note_on_c, 0, 43, 72
1, 112128, Note_on_c, 0, 76, 0
1, 112134, Note_on_c, 0, 74, 67
1, 112205, Note_on_c, 0, 43, 0
1, 112211, Note_on_c, 0, 74, 0
1, 112215, Note_on_c, 0, 73, 67
1, 112216, Note_on_c, 0, 45, 72
1, 112292, Note_on_c, 0, 73, 0
1, 112297, Note_on_c, 0, 74, 67
1, 112358, Note_on_c, 0, 71, 0
1, 112368, Note_on_c, 0, 45, 0
1, 112374, Note_on_c, 0, 74, 0
1, 112380, Note_on_c, 0, 76, 67
1, 112380, Note_on_c, 0, 69, 67
1, 112380, Note_on_c, 0, 49, 72
1, 112455, Note_on_c, 0, 69, 0
1, 112461, Note_on_c, 0, 67, 72
1, 112532, Note_on_c, 0, 49, 0
1, 112537, Note_on_c, 0, 67, 0
1, 112543, Note_on_c, 0, 50, 72
1, 112543, Note_on_c, 0, 66, 72
1, 112620, Note_on_c, 0, 66, 0
1, 112624, Note_on_c, 0, 67, 72
1, 112686, Note_on_c, 0, 76, 0
1, 112695, Note_on_c, 0, 50, 0
1, 112701, Note_on_c, 0, 67, 0
1, 112707, Note_on_c, 0, 69, 67
1, 112707, Note_on_c, 0, 74, 67
1, 112708, Note_on_c, 0, 42, 72
1, 112783, Note_on_c, 0, 74, 0
1, 112788, Note_on_c, 0, 73, 67
1, 112860, Note_on_c, 0, 42, 0
1, 112864, Note_on_c, 0, 73, 0
1, 112870, Note_on_c, 0, 71, 67
1, 112871, Note_on_c, 0, 43, 72
1, 112947, Note_on_c, 0, 71, 0
1, 112953, Note_on_c, 0, 73, 67
1, 113014, Note_on_c, 0, 69, 0
1, 113024, Note_on_c, 0, 43, 0
1, 113028, Note_on_c, 0, 73, 0
1, 113034, Note_on_c, 0, 74, 67
1, 113035, Note_on_c, 0, 67, 72
1, 113035, Note_on_c, 0, 47, 72
1, 113111, Note_on_c, 0, 67, 0
1, 113116, Note_on_c, 0, 66, 72
1, 113187, Note_on_c, 0, 47, 0
1, 113193, Note_on_c, 0, 66, 0
1, 113197, Note_on_c, 0, 49, 72
1, 113198, Note_on_c, 0, 64, 72
1, 113274, Note_on_c, 0, 64, 0
1, 113280, Note_on_c, 0, 66, 72
1, 113341, Note_on_c, 0, 74, 0
1, 113351, Note_on_c, 0, 49, 0
1, 113356, Note_on_c, 0, 66, 0
1, 113362, Note_on_c, 0, 73, 67
1, 113362, Note_on_c, 0, 67, 72
1, 113363, Note_on_c, 0, 40, 72
1, 113437, Note_on_c, 0, 73, 0
1, 113443, Note_on_c, 0, 71, 67
1, 113513, Note_on_c, 0, 40, 0
1, 113518, Note_on_c, 0, 71, 0
1, 113524, Note_on_c, 0, 70, 67
1, 113525, Note_on_c, 0, 42, 72
1, 113600, Note_on_c, 0, 70, 0
1, 113605, Note_on_c, 0, 71, 67
1, 113666, Note_on_c, 0, 67, 0
1, 113676, Note_on_c, 0, 42, 0
1, 113680, Note_on_c, 0, 71, 0
1, 113687, Note_on_c, 0, 73, 67
1, 113687, Note_on_c, 0, 66, 72
1, 113687, Note_on_c, 0, 46, 72
1, 113763, Note_on_c, 0, 66, 0
1, 113768, Note_on_c, 0, 64, 72
1, 113839, Note_on_c, 0, 46, 0
1, 113844, Note_on_c, 0, 64, 0
1, 113851, Note_on_c, 0, 62, 72
1, 113851, Note_on_c, 0, 47, 72
1, 113926, Note_on_c, 0, 62, 0
1, 113932, Note_on_c, 0, 64, 72
1, 113993, Note_on_c, 0, 73, 0
1, 114003, Note_on_c, 0, 47, 0
1, 114008, Note_on_c, 0, 64, 0
1, 114014, Note_on_c, 0, 71, 67
1, 114014, Note_on_c, 0, 66, 72
1, 114015, Note_on_c, 0, 59, 72
1, 114015, Note_on_c, 0, 50, 72
1, 114168, Note_on_c, 0, 50, 0
1, 114168, Note_on_c, 0, 59, 0
1, 114169, Note_on_c, 0, 71, 0
1, 114179, Note_on_c, 0, 52, 72
1, 114180, Note_on_c, 0, 55, 72
1, 114326, Note_on_c, 0, 66, 0
1, 114336, Note_on_c, 0, 55, 0
1, 114336, Note_on_c, 0, 52, 0
1, 114347, Note_on_c, 0, 83, 55
1, 114348, Note_on_c, 0, 55, 72
1, 114348, Note_on_c, 0, 52, 72
1, 114348, Note_on_c, 0, 64, 72
1, 114424, Note_on_c, 0, 64, 0
1, 114431, Note_on_c, 0, 62, 72
1, 114503, Note_on_c, 0, 55, 0
1, 114504, Note_on_c, 0, 52, 0
1, 114508, Note_on_c, 0, 62, 0
1, 114515, Note_on_c, 0, 57, 72
1, 114515, Note_on_c, 0, 60, 72
1, 114591, Note_on_c, 0, 60, 0
1, 114597, Note_on_c, 0, 62, 72
1, 114657, Note_on_c, 0, 83, 0
1, 114667, Note_on_c, 0, 57, 0
1, 114672, Note_on_c, 0, 62, 0
1, 114677, Note_on_c, 0, 81, 55
1, 114678, Note_on_c, 0, 64, 72
1, 114678, Note_on_c, 0, 60, 72
1, 114753, Note_on_c, 0, 81, 0
1, 114758, Note_on_c, 0, 79, 55
1, 114829, Note_on_c, 0, 60, 0
1, 114835, Note_on_c, 0, 79, 0
1, 114840, Note_on_c, 0, 78, 55
1, 114841, Note_on_c, 0, 62, 72
1, 114916, Note_on_c, 0, 78, 0
1, 114921, Note_on_c, 0, 79, 55
1, 114981, Note_on_c, 0, 64, 0
1, 114990, Note_on_c, 0, 62, 0
1, 114995, Note_on_c, 0, 79, 0
1, 115001, Note_on_c, 0, 81, 55
1, 115001, Note_on_c, 0, 62, 72
1, 115002, Note_on_c, 0, 54, 72
1, 115078, Note_on_c, 0, 62, 0
1, 115083, Note_on_c, 0, 60, 72
1, 115155, Note_on_c, 0, 54, 0
1, 115160, Note_on_c, 0, 60, 0
1, 115166, Note_on_c, 0, 55, 72
1, 115166, Note_on_c, 0, 59, 72
1, 115243, Note_on_c, 0, 59, 0
1, 115248, Note_on_c, 0, 60, 72
1, 115309, Note_on_c, 0, 81, 0
1, 115319, Note_on_c, 0, 55, 0
1, 115324, Note_on_c, 0, 60, 0
1, 115330, Note_on_c, 0, 79, 55
1, 115331, Note_on_c, 0, 59, 72
1, 115331, Note_on_c, 0, 62, 72
1, 115405, Note_on_c, 0, 79, 0
1, 115411, Note_on_c, 0, 78, 55
1, 115481, Note_on_c, 0, 59, 0
1, 115486, Note_on_c, 0, 78, 0
1, 115491, Note_on_c, 0, 76, 67
1, 115492, Note_on_c, 0, 60, 72
1, 115565, Note_on_c, 0, 76, 0
1, 115570, Note_on_c, 0, 78, 55
1, 115632, Note_on_c, 0, 62, 0
1, 115641, Note_on_c, 0, 60, 0
1, 115647, Note_on_c, 0, 78, 0
1, 115652, Note_on_c, 0, 79, 55
1, 115652, Note_on_c, 0, 60, 72
1, 115653, Note_on_c, 0, 52, 72
1, 115728, Note_on_c, 0, 60, 0
1, 115734, Note_on_c, 0, 59, 72
1, 115806, Note_on_c, 0, 52, 0
1, 115812, Note_on_c, 0, 59, 0
1, 115818, Note_on_c, 0, 54, 72
1, 115818, Note_on_c, 0, 57, 72
1, 115894, Note_on_c, 0, 57, 0
1, 115899, Note_on_c, 0, 59, 72
1, 115960, Note_on_c, 0, 79, 0
1, 115969, Note_on_c, 0, 54, 0
1, 115974, Note_on_c, 0, 59, 0
1, 115980, Note_on_c, 0, 78, 55
1, 115981, Note_on_c, 0, 60, 72
1, 115981, Note_on_c, 0, 57, 72
1, 116056, Note_on_c, 0, 78, 0
1, 116062, Note_on_c, 0, 76, 67
1, 116133, Note_on_c, 0, 57, 0
1, 116138, Note_on_c, 0, 76, 0
1, 116144, Note_on_c, 0, 75, 67
1, 116144, Note_on_c, 0, 59, 72
1, 116220, Note_on_c, 0, 75, 0
1, 116225, Note_on_c, 0, 76, 67
1, 116286, Note_on_c, 0, 60, 0
1, 116296, Note_on_c, 0, 59, 0
1, 116302, Note_on_c, 0, 76, 0
1, 116308, Note_on_c, 0, 78, 55
1, 116308, Note_on_c, 0, 59, 72
1, 116309, Note_on_c, 0, 51, 72
1, 116383, Note_on_c, 0, 59, 0
1, 116389, Note_on_c, 0, 57, 72
1, 116460, Note_on_c, 0, 51, 0
1, 116465, Note_on_c, 0, 57, 0
1, 116471, Note_on_c, 0, 55, 72
1, 116472, Note_on_c, 0, 52, 72
1, 116613, Note_on_c, 0, 78, 0
1, 116633, Note_on_c, 0, 76, 67
1, 116634, Note_on_c, 0, 59, 72
1, 116708, Note_on_c, 0, 76, 0
1, 116714, Note_on_c, 0, 75, 67
1, 116775, Note_on_c, 0, 52, 0
1, 116776, Note_on_c, 0, 55, 0
1, 116784, Note_on_c, 0, 59, 0
1, 116790, Note_on_c, 0, 75, 0
1, 116796, Note_on_c, 0, 76, 67
1, 116797, Note_on_c, 0, 55, 72
1, 116873, Note_on_c, 0, 76, 0
1, 116879, Note_on_c, 0, 78, 55
1, 116951, Note_on_c, 0, 55, 0
1, 116956, Note_on_c, 0, 78, 0
1, 116962, Note_on_c, 0, 79, 55
1, 116962, Note_on_c, 0, 64, 72
1, 116963, Note_on_c, 0, 52, 72
1, 117038, Note_on_c, 0, 64, 0
1, 117039, Note_on_c, 0, 79, 0
1, 117044, Note_on_c, 0, 83, 55
1, 117045, Note_on_c, 0, 63, 72
1, 117115, Note_on_c, 0, 52, 0
1, 117121, Note_on_c, 0, 63, 0
1, 117121, Note_on_c, 0, 83, 0
1, 117127, Note_on_c, 0, 81, 55
1, 117127, Note_on_c, 0, 63, 72
1, 117128, Note_on_c, 0, 60, 72
1, 117203, Note_on_c, 0, 63, 0
1, 117208, Note_on_c, 0, 64, 72
1, 117279, Note_on_c, 0, 60, 0
1, 117280, Note_on_c, 0, 81, 0
1, 117285, Note_on_c, 0, 64, 0
1, 117290, Note_on_c, 0, 79, 55
1, 117290, Note_on_c, 0, 66, 72
1, 117291, Note_on_c, 0, 59, 72
1, 117366, Note_on_c, 0, 66, 0
1, 117372, Note_on_c, 0, 67, 72
1, 117442, Note_on_c, 0, 59, 0
1, 117442, Note_on_c, 0, 79, 0
1, 117446, Note_on_c, 0, 67, 0
1, 117452, Note_on_c, 0, 78, 55
1, 117453, Note_on_c, 0, 69, 67
1, 117453, Note_on_c, 0, 64, 72
1, 117528, Note_on_c, 0, 69, 0
1, 117534, Note_on_c, 0, 67, 72
1, 117605, Note_on_c, 0, 64, 0
1, 117610, Note_on_c, 0, 67, 0
1, 117615, Note_on_c, 0, 69, 67
1, 117616, Note_on_c, 0, 63, 72
1, 117693, Note_on_c, 0, 69, 0
1, 117699, Note_on_c, 0, 71, 67
1, 117762, Note_on_c, 0, 78, 0
1, 117772, Note_on_c, 0, 63, 0
1, 117777, Note_on_c, 0, 71, 0
1, 117782, Note_on_c, 0, 76, 67
1, 117783, Note_on_c, 0, 72, 67
1, 117783, Note_on_c, 0, 57, 72
1, 117860, Note_on_c, 0, 72, 0
1, 117866, Note_on_c, 0, 69, 67
1, 117937, Note_on_c, 0, 57, 0
1, 117943, Note_on_c, 0, 69, 0
1, 117948, Note_on_c, 0, 71, 67
1, 117949, Note_on_c, 0, 56, 72
1, 118093, Note_on_c, 0, 76, 0
1, 118103, Note_on_c, 0, 56, 0
1, 118114, Note_on_c, 0, 74, 67
1, 118114, Note_on_c, 0, 65, 72
1, 118181, Note_on_c, 0, 71, 0
1, 118196, Note_on_c, 0, 69, 67
1, 118266, Note_on_c, 0, 65, 0
1, 118272, Note_on_c, 0, 69, 0
1, 118278, Note_on_c, 0, 68, 67
1, 118278, Note_on_c, 0, 64, 72
1, 118354, Note_on_c, 0, 68, 0
1, 118360, Note_on_c, 0, 66, 72
1, 118421, Note_on_c, 0, 74, 0
1, 118430, Note_on_c, 0, 64, 0
1, 118435, Note_on_c, 0, 66, 0
1, 118441, Note_on_c, 0, 73, 67
1, 118442, Note_on_c, 0, 59, 72
1, 118442, Note_on_c, 0, 64, 72
1, 118517, Note_on_c, 0, 64, 0
1, 118522, Note_on_c, 0, 67, 72
1, 118592, Note_on_c, 0, 59, 0
1, 118597, Note_on_c, 0, 67, 0
1, 118604, Note_on_c, 0, 58, 72
1, 118604, Note_on_c, 0, 66, 72
1, 118678, Note_on_c, 0, 66, 0
1, 118684, Note_on_c, 0, 70, 67
1, 118744, Note_on_c, 0, 73, 0
1, 118754, Note_on_c, 0, 58, 0
1, 118760, Note_on_c, 0, 70, 0
1, 118765, Note_on_c, 0, 71, 67
1, 118765, Note_on_c, 0, 67, 72
1, 118847, Note_on_c, 0, 73, 67
1, 118917, Note_on_c, 0, 67, 0
1, 118923, Note_on_c, 0, 73, 0
1, 118929, Note_on_c, 0, 74, 67
1, 118930, Note_on_c, 0, 66, 72
1, 119007, Note_on_c, 0, 74, 0
1, 119013, Note_on_c, 0, 76, 67
1, 119085, Note_on_c, 0, 66, 0
1, 119090, Note_on_c, 0, 76, 0
1, 119096, Note_on_c, 0, 74, 67
1, 119097, Note_on_c, 0, 65, 72
1, 119171, Note_on_c, 0, 74, 0
1, 119177, Note_on_c, 0, 73, 67
1, 119228, Note_on_c, 0, 71, 0
1, 119247, Note_on_c, 0, 65, 0
1, 119257, Note_on_c, 0, 71, 67
1, 119258, Note_on_c, 0, 66, 72
1, 119333, Note_on_c, 0, 71, 0
1, 119339, Note_on_c, 0, 70, 67
1, 119404, Note_on_c, 0, 73, 0
1, 119408, Note_on_c, 0, 66, 0
1, 119414, Note_on_c, 0, 70, 0
1, 119419, Note_on_c, 0, 71, 67
1, 119419, Note_on_c, 0, 62, 72
1, 119499, Note_on_c, 0, 69, 67
1, 119568, Note_on_c, 0, 62, 0
1, 119573, Note_on_c, 0, 69, 0
1, 119578, Note_on_c, 0, 59, 72
1, 119579, Note_on_c, 0, 67, 72
1, 119653, Note_on_c, 0, 67, 0
1, 119658, Note_on_c, 0, 66, 72
1, 119727, Note_on_c, 0, 59, 0
1, 119732, Note_on_c, 0, 66, 0
1, 119737, Note_on_c, 0, 61, 72
1, 119738, Note_on_c, 0, 64, 72
1, 119792, Note_on_c, 0, 71, 0
1, 119816, Note_on_c, 0, 73, 67
1, 119891, Note_on_c, 0, 73, 0
1, 119897, Note_on_c, 0, 74, 67
1, 119972, Note_on_c, 0, 74, 0
1, 119976, Note_on_c, 0, 76, 67
1, 120051, Note_on_c, 0, 76, 0
1, 120056, Note_on_c, 0, 78, 55
1, 120131, Note_on_c, 0, 78, 0
1, 120137, Note_on_c, 0, 79, 55
1, 120211, Note_on_c, 0, 79, 0
1, 120216, Note_on_c, 0, 71, 67
1, 120291, Note_on_c, 0, 71, 0
1, 120296, Note_on_c, 0, 70, 67
1, 120337, Note_on_c, 0, 64, 0
1, 120338, Note_on_c, 0, 61, 0
1, 120371, Note_on_c, 0, 70, 0
1, 120377, Note_on_c, 0, 74, 67
1, 120377, Note_on_c, 0, 59, 72
1, 120456, Note_on_c, 0, 66, 72
1, 120531, Note_on_c, 0, 66, 0
1, 120536, Note_on_c, 0, 68, 67
1, 120609, Note_on_c, 0, 68, 0
1, 120615, Note_on_c, 0, 70, 67
1, 120688, Note_on_c, 0, 70, 0
1, 120694, Note_on_c, 0, 71, 67
1, 120768, Note_on_c, 0, 71, 0
1, 120775, Note_on_c, 0, 73, 67
1, 120850, Note_on_c, 0, 73, 0
1, 120855, Note_on_c, 0, 66, 72
1, 120928, Note_on_c, 0, 66, 0
1, 120934, Note_on_c, 0, 65, 72
1, 120974, Note_on_c, 0, 59, 0
1, 120974, Note_on_c, 0, 74, 0
1, 121006, Note_on_c, 0, 65, 0
1, 121012, Note_on_c, 0, 69, 67
1, 121012, Note_on_c, 0, 73, 67
1, 121091, Note_on_c, 0, 61, 72
1, 121166, Note_on_c, 0, 61, 0
1, 121171, Note_on_c, 0, 63, 72
1, 121246, Note_on_c, 0, 63, 0
1, 121252, Note_on_c, 0, 65, 72
1, 121325, Note_on_c, 0, 65, 0
1, 121330, Note_on_c, 0, 66, 72
1, 121404, Note_on_c, 0, 66, 0
1, 121410, Note_on_c, 0, 68, 67
1, 121461, Note_on_c, 0, 73, 0
1, 121486, Note_on_c, 0, 68, 0
1, 121492, Note_on_c, 0, 75, 67
1, 121492, Note_on_c, 0, 61, 72
1, 121568, Note_on_c, 0, 61, 0
1, 121573, Note_on_c, 0, 60, 72
1, 121616, Note_on_c, 0, 69, 0
1, 121644, Note_on_c, 0, 75, 0
1, 121649, Note_on_c, 0, 60, 0
1, 121655, Note_on_c, 0, 77, 55
1, 121656, Note_on_c, 0, 68, 67
1, 121656, Note_on_c, 0, 61, 72
1, 121731, Note_on_c, 0, 61, 0
1, 121736, Note_on_c, 0, 59, 72
1, 121806, Note_on_c, 0, 68, 0
1, 121812, Note_on_c, 0, 59, 0
1, 121817, Note_on_c, 0, 73, 67
1, 121818, Note_on_c, 0, 57, 72
1, 121892, Note_on_c, 0, 57, 0
1, 121898, Note_on_c, 0, 56, 72
1, 121956, Note_on_c, 0, 77, 0
1, 121966, Note_on_c, 0, 73, 0
1, 121971, Note_on_c, 0, 56, 0
1, 121977, Note_on_c, 0, 69, 67
1, 121977, Note_on_c, 0, 54, 72
1, 122051, Note_on_c, 0, 54, 0
1, 122055, Note_on_c, 0, 56, 72
1, 122124, Note_on_c, 0, 69, 0
1, 122129, Note_on_c, 0, 56, 0
1, 122135, Note_on_c, 0, 78, 55
1, 122136, Note_on_c, 0, 57, 72
1, 122136, Note_on_c, 0, 66, 72
1, 122209, Note_on_c, 0, 57, 0
1, 122215, Note_on_c, 0, 61, 72
1, 122284, Note_on_c, 0, 66, 0
1, 122290, Note_on_c, 0, 61, 0
1, 122295, Note_on_c, 0, 74, 67
1, 122295, Note_on_c, 0, 59, 72
1, 122361, Note_on_c, 0, 78, 0
1, 122370, Note_on_c, 0, 59, 0
1, 122375, Note_on_c, 0, 77, 55
1, 122376, Note_on_c, 0, 56, 72
1, 122446, Note_on_c, 0, 74, 0
1, 122452, Note_on_c, 0, 56, 0
1, 122452, Note_on_c, 0, 77, 0
1, 122457, Note_on_c, 0, 78, 55
1, 122457, Note_on_c, 0, 73, 67
1, 122458, Note_on_c, 0, 57, 72
1, 122533, Note_on_c, 0, 57, 0
1, 122534, Note_on_c, 0, 78, 0
1, 122539, Note_on_c, 0, 81, 55
1, 122540, Note_on_c, 0, 61, 72
1, 122610, Note_on_c, 0, 73, 0
1, 122615, Note_on_c, 0, 61, 0
1, 122616, Note_on_c, 0, 81, 0
1, 122621, Note_on_c, 0, 80, 55
1, 122621, Note_on_c, 0, 78, 55
1, 122622, Note_on_c, 0, 62, 72
1, 122698, Note_on_c, 0, 62, 0
1, 122702, Note_on_c, 0, 59, 72
1, 122773, Note_on_c, 0, 78, 0
1, 122779, Note_on_c, 0, 59, 0
1, 122784, Note_on_c, 0, 77, 55
1, 122784, Note_on_c, 0, 61, 72
1, 122861, Note_on_c, 0, 61, 0
1, 122867, Note_on_c, 0, 65, 72
1, 122927, Note_on_c, 0, 80, 0
1, 122937, Note_on_c, 0, 77, 0
1, 122941, Note_on_c, 0, 65, 0
1, 122948, Note_on_c, 0, 71, 67
1, 122948, Note_on_c, 0, 66, 72
1, 123021, Note_on_c, 0, 66, 0
1, 123027, Note_on_c, 0, 64, 72
1, 123095, Note_on_c, 0, 71, 0
1, 123101, Note_on_c, 0, 64, 0
1, 123106, Note_on_c, 0, 78, 55
1, 123107, Note_on_c, 0, 70, 67
1, 123107, Note_on_c, 0, 62, 72
1, 123180, Note_on_c, 0, 62, 0
1, 123187, Note_on_c, 0, 61, 72
1, 123256, Note_on_c, 0, 70, 0
1, 123257, Note_on_c, 0, 78, 0
1, 123261, Note_on_c, 0, 61, 0
1, 123267, Note_on_c, 0, 74, 67
1, 123268, Note_on_c, 0, 59, 72
1, 123343, Note_on_c, 0, 59, 0
1, 123348, Note_on_c, 0, 61, 72
1, 123418, Note_on_c, 0, 74, 0
1, 123423, Note_on_c, 0, 61, 0
1, 123429, Note_on_c, 0, 71, 67
1, 123429, Note_on_c, 0, 62, 72
1, 123502, Note_on_c, 0, 62, 0
1, 123508, Note_on_c, 0, 66, 72
1, 123582, Note_on_c, 0, 66, 0
1, 123587, Note_on_c, 0, 79, 55
1, 123588, Note_on_c, 0, 64, 72
1, 123653, Note_on_c, 0, 71, 0
1, 123662, Note_on_c, 0, 64, 0
1, 123668, Note_on_c, 0, 69, 67
1, 123668, Note_on_c, 0, 61, 72
1, 123736, Note_on_c, 0, 79, 0
1, 123741, Note_on_c, 0, 61, 0
1, 123742, Note_on_c, 0, 69, 0
1, 123747, Note_on_c, 0, 78, 55
1, 123748, Note_on_c, 0, 71, 67
1, 123748, Note_on_c, 0, 62, 72
1, 123821, Note_on_c, 0, 62, 0
1, 123822, Note_on_c, 0, 71, 0
1, 123826, Note_on_c, 0, 74, 67
1, 123827, Note_on_c, 0, 66, 72
1, 123895, Note_on_c, 0, 78, 0
1, 123900, Note_on_c, 0, 66, 0
1, 123900, Note_on_c, 0, 74, 0
1, 123906, Note_on_c, 0, 73, 67
1, 123906, Note_on_c, 0, 83, 55
1, 123907, Note_on_c, 0, 67, 72
1, 123981, Note_on_c, 0, 67, 0
1, 123986, Note_on_c, 0, 64, 72
1, 124056, Note_on_c, 0, 83, 0
1, 124062, Note_on_c, 0, 64, 0
1, 124067, Note_on_c, 0, 82, 55
1, 124068, Note_on_c, 0, 66, 72
1, 124142, Note_on_c, 0, 66, 0
1, 124147, Note_on_c, 0, 70, 67
1, 124217, Note_on_c, 0, 82, 0
1, 124222, Note_on_c, 0, 70, 0
1, 124227, Note_on_c, 0, 76, 67
1, 124228, Note_on_c, 0, 71, 67
1, 124301, Note_on_c, 0, 71, 0
1, 124306, Note_on_c, 0, 69, 67
1, 124356, Note_on_c, 0, 73, 0
1, 124375, Note_on_c, 0, 76, 0
1, 124380, Note_on_c, 0, 69, 0
1, 124386, Note_on_c, 0, 75, 67
1, 124386, Note_on_c, 0, 71, 67
1, 124387, Note_on_c, 0, 67, 72
1, 124460, Note_on_c, 0, 67, 0
1, 124464, Note_on_c, 0, 66, 72
1, 124535, Note_on_c, 0, 71, 0
1, 124535, Note_on_c, 0, 75, 0
1, 124540, Note_on_c, 0, 66, 0
1, 124546, Note_on_c, 0, 79, 55
1, 124547, Note_on_c, 0, 76, 67
1, 124547, Note_on_c, 0, 64, 72
1, 124621, Note_on_c, 0, 64, 0
1, 124627, Note_on_c, 0, 62, 72
1, 124697, Note_on_c, 0, 76, 0
1, 124703, Note_on_c, 0, 62, 0
1, 124707, Note_on_c, 0, 70, 67
1, 124708, Note_on_c, 0, 64, 72
1, 124783, Note_on_c, 0, 64, 0
1, 124789, Note_on_c, 0, 61, 72
1, 124858, Note_on_c, 0, 70, 0
1, 124864, Note_on_c, 0, 61, 0
1, 124869, Note_on_c, 0, 71, 67
1, 124869, Note_on_c, 0, 62, 72
1, 124925, Note_on_c, 0, 79, 0
1, 124949, Note_on_c, 0, 78, 55
1, 125023, Note_on_c, 0, 78, 0
1, 125028, Note_on_c, 0, 80, 55
1, 125101, Note_on_c, 0, 80, 0
1, 125107, Note_on_c, 0, 82, 55
1, 125180, Note_on_c, 0, 82, 0
1, 125185, Note_on_c, 0, 83, 55
1, 125257, Note_on_c, 0, 83, 0
1, 125264, Note_on_c, 0, 79, 55
1, 125336, Note_on_c, 0, 79, 0
1, 125341, Note_on_c, 0, 78, 55
1, 125415, Note_on_c, 0, 78, 0
1, 125420, Note_on_c, 0, 77, 55
1, 125493, Note_on_c, 0, 77, 0
1, 125498, Note_on_c, 0, 78, 55
1, 125534, Note_on_c, 0, 71, 0
1, 125578, Note_on_c, 0, 70, 67
1, 125609, Note_on_c, 0, 62, 0
1, 125651, Note_on_c, 0, 70, 0
1, 125657, Note_on_c, 0, 71, 67
1, 125658, Note_on_c, 0, 61, 72
1, 125731, Note_on_c, 0, 71, 0
1, 125736, Note_on_c, 0, 73, 67
1, 125795, Note_on_c, 0, 78, 0
1, 125805, Note_on_c, 0, 61, 0
1, 125809, Note_on_c, 0, 73, 0
1, 125816, Note_on_c, 0, 77, 55
1, 125816, Note_on_c, 0, 74, 67
1, 125817, Note_on_c, 0, 59, 72
1, 125889, Note_on_c, 0, 74, 0
1, 125894, Note_on_c, 0, 76, 67
1, 125962, Note_on_c, 0, 59, 0
1, 125968, Note_on_c, 0, 76, 0
1, 125973, Note_on_c, 0, 69, 67
1, 125974, Note_on_c, 0, 62, 72
1, 126047, Note_on_c, 0, 69, 0
1, 126053, Note_on_c, 0, 68, 67
1, 126120, Note_on_c, 0, 62, 0
1, 126127, Note_on_c, 0, 68, 0
1, 126132, Note_on_c, 0, 69, 67
1, 126132, Note_on_c, 0, 60, 72
1, 126187, Note_on_c, 0, 77, 0
1, 126211, Note_on_c, 0, 76, 67
1, 126285, Note_on_c, 0, 76, 0
1, 126290, Note_on_c, 0, 78, 55
1, 126364, Note_on_c, 0, 78, 0
1, 126370, Note_on_c, 0, 80, 55
1, 126443, Note_on_c, 0, 80, 0
1, 126448, Note_on_c, 0, 81, 55
1, 126522, Note_on_c, 0, 81, 0
1, 126527, Note_on_c, 0, 83, 55
1, 126601, Note_on_c, 0, 83, 0
1, 126607, Note_on_c, 0, 76, 67
1, 126681, Note_on_c, 0, 76, 0
1, 126685, Note_on_c, 0, 75, 67
1, 126759, Note_on_c, 0, 75, 0
1, 126765, Note_on_c, 0, 76, 67
1, 126838, Note_on_c, 0, 76, 0
1, 126843, Note_on_c, 0, 66, 72
1, 126875, Note_on_c, 0, 60, 0
1, 126875, Note_on_c, 0, 69, 0
1, 126916, Note_on_c, 0, 66, 0
1, 126922, Note_on_c, 0, 67, 72
1, 126922, Note_on_c, 0, 52, 72
1, 126923, Note_on_c, 0, 59, 72
1, 127000, Note_on_c, 0, 69, 67
1, 127069, Note_on_c, 0, 59, 0
1, 127070, Note_on_c, 0, 67, 0
1, 127070, Note_on_c, 0, 52, 0
1, 127075, Note_on_c, 0, 69, 0
1, 127080, Note_on_c, 0, 71, 67
1, 127080, Note_on_c, 0, 66, 72
1, 127081, Note_on_c, 0, 50, 72
1, 127156, Note_on_c, 0, 71, 0
1, 127161, Note_on_c, 0, 73, 67
1, 127231, Note_on_c, 0, 50, 0
1, 127236, Note_on_c, 0, 73, 0
1, 127241, Note_on_c, 0, 74, 67
1, 127242, Note_on_c, 0, 59, 72
1, 127242, Note_on_c, 0, 47, 72
1, 127317, Note_on_c, 0, 74, 0
1, 127323, Note_on_c, 0, 78, 55
1, 127383, Note_on_c, 0, 66, 0
1, 127393, Note_on_c, 0, 47, 0
1, 127398, Note_on_c, 0, 78, 0
1, 127404, Note_on_c, 0, 76, 67
1, 127404, Note_on_c, 0, 55, 72
1, 127470, Note_on_c, 0, 59, 0
1, 127478, Note_on_c, 0, 76, 0
1, 127484, Note_on_c, 0, 73, 67
1, 127485, Note_on_c, 0, 58, 72
1, 127553, Note_on_c, 0, 55, 0
1, 127559, Note_on_c, 0, 58, 0
1, 127560, Note_on_c, 0, 73, 0
1, 127564, Note_on_c, 0, 74, 67
1, 127564, Note_on_c, 0, 59, 72
1, 127565, Note_on_c, 0, 54, 72
1, 127639, Note_on_c, 0, 59, 0
1, 127639, Note_on_c, 0, 74, 0
1, 127645, Note_on_c, 0, 78, 55
1, 127645, Note_on_c, 0, 62, 72
1, 127714, Note_on_c, 0, 54, 0
1, 127718, Note_on_c, 0, 62, 0
1, 127719, Note_on_c, 0, 78, 0
1, 127725, Note_on_c, 0, 79, 55
1, 127725, Note_on_c, 0, 61, 72
1, 127725, Note_on_c, 0, 59, 72
1, 127799, Note_on_c, 0, 79, 0
1, 127804, Note_on_c, 0, 76, 67
1, 127873, Note_on_c, 0, 59, 0
1, 127879, Note_on_c, 0, 76, 0
1, 127885, Note_on_c, 0, 78, 55
1, 127885, Note_on_c, 0, 58, 72
1, 127958, Note_on_c, 0, 78, 0
1, 127964, Note_on_c, 0, 82, 55
1, 128025, Note_on_c, 0, 61, 0
1, 128034, Note_on_c, 0, 58, 0
1, 128039, Note_on_c, 0, 82, 0
1, 128045, Note_on_c, 0, 83, 55
1, 128046, Note_on_c, 0, 52, 72
1, 128046, Note_on_c, 0, 54, 72
1, 128126, Note_on_c, 0, 78, 55
1, 128196, Note_on_c, 0, 52, 0
1, 128202, Note_on_c, 0, 78, 0
1, 128207, Note_on_c, 0, 81, 55
1, 128207, Note_on_c, 0, 51, 72
1, 128282, Note_on_c, 0, 81, 0
1, 128288, Note_on_c, 0, 79, 55
1, 128349, Note_on_c, 0, 83, 0
1, 128349, Note_on_c, 0, 54, 0
1, 128358, Note_on_c, 0, 51, 0
1, 128363, Note_on_c, 0, 79, 0
1, 128369, Note_on_c, 0, 81, 52
1, 128369, Note_on_c, 0, 78, 52
1, 128370, Note_on_c, 0, 60, 72
1, 128445, Note_on_c, 0, 78, 0
1, 128449, Note_on_c, 0, 76, 64
1, 128520, Note_on_c, 0, 60, 0
1, 128525, Note_on_c, 0, 76, 0
1, 128530, Note_on_c, 0, 75, 64
1, 128531, Note_on_c, 0, 59, 72
1, 128606, Note_on_c, 0, 75, 0
1, 128611, Note_on_c, 0, 73, 67
1, 128671, Note_on_c, 0, 81, 0
1, 128680, Note_on_c, 0, 59, 0
1, 128686, Note_on_c, 0, 73, 0
1, 128690, Note_on_c, 0, 80, 52
1, 128691, Note_on_c, 0, 71, 67
1, 128691, Note_on_c, 0, 54, 72
1, 128765, Note_on_c, 0, 71, 0
1, 128771, Note_on_c, 0, 74, 64
1, 128841, Note_on_c, 0, 54, 0
1, 128846, Note_on_c, 0, 74, 0
1, 128852, Note_on_c, 0, 73, 67
1, 128852, Note_on_c, 0, 53, 72
1, 128927, Note_on_c, 0, 73, 0
1, 128932, Note_on_c, 0, 71, 67
1, 128993, Note_on_c, 0, 80, 0
1, 129002, Note_on_c, 0, 53, 0
1, 129007, Note_on_c, 0, 71, 0
1, 129013, Note_on_c, 0, 78, 52
1, 129013, Note_on_c, 0, 69, 67
1, 129014, Note_on_c, 0, 62, 72
1, 129089, Note_on_c, 0, 69, 0
1, 129095, Note_on_c, 0, 68, 67
1, 129166, Note_on_c, 0, 62, 0
1, 129171, Note_on_c, 0, 68, 0
1, 129177, Note_on_c, 0, 69, 67
1, 129178, Note_on_c, 0, 61, 72
1, 129253, Note_on_c, 0, 69, 0
1, 129258, Note_on_c, 0, 66, 72
1, 129328, Note_on_c, 0, 61, 0
1, 129334, Note_on_c, 0, 66, 0
1, 129339, Note_on_c, 0, 68, 67
1, 129340, Note_on_c, 0, 60, 72
1, 129394, Note_on_c, 0, 78, 0
1, 129417, Note_on_c, 0, 77, 52
1, 129485, Note_on_c, 0, 60, 0
1, 129490, Note_on_c, 0, 77, 0
1, 129496, Note_on_c, 0, 78, 52
1, 129496, Note_on_c, 0, 61, 72
1, 129568, Note_on_c, 0, 78, 0
1, 129574, Note_on_c, 0, 77, 52
1, 129633, Note_on_c, 0, 68, 0
1, 129642, Note_on_c, 0, 61, 0
1, 129648, Note_on_c, 0, 77, 0
1, 129653, Note_on_c, 0, 78, 52
1, 129653, Note_on_c, 0, 57, 72
1, 129730, Note_on_c, 0, 76, 64
1, 129797, Note_on_c, 0, 57, 0
1, 129802, Note_on_c, 0, 76, 0
1, 129807, Note_on_c, 0, 74, 64
1, 129807, Note_on_c, 0, 54, 72
1, 129881, Note_on_c, 0, 74, 0
1, 129886, Note_on_c, 0, 73, 67
1, 129954, Note_on_c, 0, 54, 0
1, 129959, Note_on_c, 0, 73, 0
1, 129965, Note_on_c, 0, 71, 67
1, 129965, Note_on_c, 0, 56, 72
1, 130019, Note_on_c, 0, 78, 0
1, 130037, Note_on_c, 0, 71, 0
1, 130043, Note_on_c, 0, 69, 67
1, 130115, Note_on_c, 0, 69, 0
1, 130121, Note_on_c, 0, 71, 67
1, 130122, Note_on_c, 0, 68, 67
1, 130194, Note_on_c, 0, 68, 0
1, 130194, Note_on_c, 0, 71, 0
1, 130199, Note_on_c, 0, 73, 67
1, 130199, Note_on_c, 0, 69, 67
1, 130271, Note_on_c, 0, 69, 0
1, 130271, Note_on_c, 0, 73, 0
1, 130277, Note_on_c, 0, 71, 67
1, 130277, Note_on_c, 0, 74, 67
1, 130348, Note_on_c, 0, 74, 0
1, 130354, Note_on_c, 0, 76, 67
1, 130426, Note_on_c, 0, 76, 0
1, 130432, Note_on_c, 0, 66, 72
1, 130507, Note_on_c, 0, 66, 0
1, 130512, Note_on_c, 0, 65, 72
1, 130553, Note_on_c, 0, 56, 0
1, 130585, Note_on_c, 0, 65, 0
1, 130592, Note_on_c, 0, 66, 72
1, 130592, Note_on_c, 0, 54, 72
1, 130665, Note_on_c, 0, 54, 0
1, 130669, Note_on_c, 0, 52, 72
1, 130720, Note_on_c, 0, 71, 0
1, 130739, Note_on_c, 0, 66, 0
1, 130743, Note_on_c, 0, 52, 0
1, 130749, Note_on_c, 0, 78, 55
1, 130750, Note_on_c, 0, 70, 67
1, 130750, Note_on_c, 0, 50, 72
1, 130823, Note_on_c, 0, 50, 0
1, 130829, Note_on_c, 0, 49, 72
1, 130899, Note_on_c, 0, 70, 0
1, 130899, Note_on_c, 0, 78, 0
1, 130904, Note_on_c, 0, 49, 0
1, 130909, Note_on_c, 0, 74, 67
1, 130910, Note_on_c, 0, 47, 72
1, 130986, Note_on_c, 0, 47, 0
1, 130991, Note_on_c, 0, 49, 72
1, 131062, Note_on_c, 0, 74, 0
1, 131068, Note_on_c, 0, 49, 0
1, 131073, Note_on_c, 0, 71, 67
1, 131073, Note_on_c, 0, 50, 72
1, 131149, Note_on_c, 0, 50, 0
1, 131155, Note_on_c, 0, 54, 72
1, 131231, Note_on_c, 0, 54, 0
1, 131236, Note_on_c, 0, 79, 55
1, 131236, Note_on_c, 0, 52, 72
1, 131302, Note_on_c, 0, 71, 0
1, 131312, Note_on_c, 0, 52, 0
1, 131317, Note_on_c, 0, 70, 67
1, 131318, Note_on_c, 0, 49, 72
1, 131388, Note_on_c, 0, 79, 0
1, 131392, Note_on_c, 0, 49, 0
1, 131393, Note_on_c, 0, 70, 0
1, 131398, Note_on_c, 0, 78, 55
1, 131399, Note_on_c, 0, 71, 67
1, 131399, Note_on_c, 0, 50, 72
1, 131474, Note_on_c, 0, 50, 0
1, 131474, Note_on_c, 0, 71, 0
1, 131479, Note_on_c, 0, 74, 67
1, 131479, Note_on_c, 0, 54, 72
1, 131549, Note_on_c, 0, 78, 0
1, 131555, Note_on_c, 0, 54, 0
1, 131555, Note_on_c, 0, 74, 0
1, 131559, Note_on_c, 0, 83, 55
1, 131560, Note_on_c, 0, 73, 67
1, 131560, Note_on_c, 0, 55, 72
1, 131635, Note_on_c, 0, 55, 0
1, 131640, Note_on_c, 0, 52, 72
1, 131709, Note_on_c, 0, 83, 0
1, 131715, Note_on_c, 0, 52, 0
1, 131720, Note_on_c, 0, 82, 55
1, 131720, Note_on_c, 0, 54, 72
1, 131796, Note_on_c, 0, 54, 0
1, 131800, Note_on_c, 0, 58, 72
1, 131862, Note_on_c, 0, 73, 0
1, 131870, Note_on_c, 0, 82, 0
1, 131876, Note_on_c, 0, 58, 0
1, 131882, Note_on_c, 0, 76, 67
1, 131882, Note_on_c, 0, 59, 72
1, 131957, Note_on_c, 0, 59, 0
1, 131962, Note_on_c, 0, 57, 72
1, 132033, Note_on_c, 0, 76, 0
1, 132038, Note_on_c, 0, 57, 0
1, 132043, Note_on_c, 0, 75, 67
1, 132044, Note_on_c, 0, 71, 67
1, 132044, Note_on_c, 0, 55, 72
1, 132119, Note_on_c, 0, 55, 0
1, 132125, Note_on_c, 0, 54, 72
1, 132195, Note_on_c, 0, 71, 0
1, 132195, Note_on_c, 0, 75, 0
1, 132200, Note_on_c, 0, 54, 0
1, 132205, Note_on_c, 0, 52, 72
1, 132206, Note_on_c, 0, 67, 72
1, 132280, Note_on_c, 0, 52, 0
1, 132286, Note_on_c, 0, 54, 72
1, 132355, Note_on_c, 0, 67, 0
1, 132360, Note_on_c, 0, 54, 0
1, 132366, Note_on_c, 0, 76, 67
1, 132366, Note_on_c, 0, 64, 72
1, 132367, Note_on_c, 0, 55, 72
1, 132441, Note_on_c, 0, 55, 0
1, 132446, Note_on_c, 0, 59, 72
1, 132515, Note_on_c, 0, 64, 0
1, 132520, Note_on_c, 0, 59, 0
1, 132527, Note_on_c, 0, 72, 67
1, 132527, Note_on_c, 0, 57, 72
1, 132589, Note_on_c, 0, 76, 0
1, 132599, Note_on_c, 0, 57, 0
1, 132605, Note_on_c, 0, 75, 67
1, 132606, Note_on_c, 0, 54, 72
1, 132674, Note_on_c, 0, 72, 0
1, 132679, Note_on_c, 0, 54, 0
1, 132679, Note_on_c, 0, 75, 0
1, 132685, Note_on_c, 0, 71, 67
1, 132685, Note_on_c, 0, 76, 64
1, 132686, Note_on_c, 0, 55, 72
1, 132760, Note_on_c, 0, 55, 0
1, 132761, Note_on_c, 0, 76, 0
1, 132766, Note_on_c, 0, 79, 52
1, 132766, Note_on_c, 0, 59, 72
1, 132836, Note_on_c, 0, 71, 0
1, 132842, Note_on_c, 0, 59, 0
1, 132842, Note_on_c, 0, 79, 0
1, 132848, Note_on_c, 0, 78, 52
1, 132849, Note_on_c, 0, 76, 64
1, 132849, Note_on_c, 0, 60, 72
1, 132924, Note_on_c, 0, 60, 0
1, 132930, Note_on_c, 0, 57, 72
1, 133001, Note_on_c, 0, 76, 0
1, 133006, Note_on_c, 0, 57, 0
1, 133011, Note_on_c, 0, 75, 64
1, 133012, Note_on_c, 0, 59, 72
1, 133087, Note_on_c, 0, 59, 0
1, 133093, Note_on_c, 0, 63, 72
1, 133152, Note_on_c, 0, 78, 0
1, 133162, Note_on_c, 0, 75, 0
1, 133168, Note_on_c, 0, 63, 0
1, 133173, Note_on_c, 0, 69, 67
1, 133173, Note_on_c, 0, 76, 61
1, 133174, Note_on_c, 0, 64, 72
1, 133247, Note_on_c, 0, 76, 0
1, 133253, Note_on_c, 0, 74, 61
1, 133322, Note_on_c, 0, 64, 0
1, 133322, Note_on_c, 0, 69, 0
1, 133327, Note_on_c, 0, 74, 0
1, 133333, Note_on_c, 0, 68, 67
1, 133333, Note_on_c, 0, 73, 61
1, 133334, Note_on_c, 0, 52, 72
1, 133407, Note_on_c, 0, 73, 0
1, 133413, Note_on_c, 0, 71, 64
1, 133481, Note_on_c, 0, 52, 0
1, 133481, Note_on_c, 0, 68, 0
1, 133487, Note_on_c, 0, 71, 0
1, 133491, Note_on_c, 0, 69, 67
1, 133492, Note_on_c, 0, 49, 72
1, 133571, Note_on_c, 0, 71, 67
1, 133639, Note_on_c, 0, 49, 0
1, 133645, Note_on_c, 0, 71, 0
1, 133650, Note_on_c, 0, 73, 67
1, 133650, Note_on_c, 0, 45, 72
1, 133725, Note_on_c, 0, 73, 0
1, 133729, Note_on_c, 0, 76, 67
1, 133800, Note_on_c, 0, 45, 0
1, 133804, Note_on_c, 0, 76, 0
1, 133810, Note_on_c, 0, 74, 67
1, 133811, Note_on_c, 0, 54, 72
1, 133884, Note_on_c, 0, 74, 0
1, 133890, Note_on_c, 0, 71, 67
1, 133940, Note_on_c, 0, 69, 0
1, 133958, Note_on_c, 0, 54, 0
1, 133964, Note_on_c, 0, 71, 0
1, 133968, Note_on_c, 0, 73, 67
1, 133969, Note_on_c, 0, 68, 67
1, 133969, Note_on_c, 0, 52, 72
1, 134042, Note_on_c, 0, 73, 0
1, 134048, Note_on_c, 0, 76, 67
1, 134116, Note_on_c, 0, 52, 0
1, 134117, Note_on_c, 0, 68, 0
1, 134122, Note_on_c, 0, 76, 0
1, 134128, Note_on_c, 0, 73, 67
1, 134128, Note_on_c, 0, 78, 55
1, 134129, Note_on_c, 0, 57, 72
1, 134202, Note_on_c, 0, 78, 0
1, 134208, Note_on_c, 0, 74, 67
1, 134275, Note_on_c, 0, 57, 0
1, 134275, Note_on_c, 0, 73, 0
1, 134280, Note_on_c, 0, 74, 0
1, 134285, Note_on_c, 0, 76, 67
1, 134286, Note_on_c, 0, 71, 67
1, 134286, Note_on_c, 0, 56, 72
1, 134358, Note_on_c, 0, 76, 0
1, 134364, Note_on_c, 0, 80, 55
1, 134431, Note_on_c, 0, 56, 0
1, 134432, Note_on_c, 0, 71, 0
1, 134437, Note_on_c, 0, 80, 0
1, 134442, Note_on_c, 0, 81, 55
1, 134442, Note_on_c, 0, 76, 67
1, 134443, Note_on_c, 0, 50, 72
1, 134516, Note_on_c, 0, 81, 0
1, 134521, Note_on_c, 0, 79, 55
1, 134590, Note_on_c, 0, 50, 0
1, 134590, Note_on_c, 0, 76, 0
1, 134595, Note_on_c, 0, 79, 0
1, 134601, Note_on_c, 0, 78, 55
1, 134602, Note_on_c, 0, 49, 72
1, 134602, Note_on_c, 0, 57, 72
1, 134675, Note_on_c, 0, 78, 0
1, 134681, Note_on_c, 0, 76, 67
1, 134750, Note_on_c, 0, 57, 0
1, 134750, Note_on_c, 0, 49, 0
1, 134756, Note_on_c, 0, 76, 0
1, 134760, Note_on_c, 0, 74, 67
1, 134761, Note_on_c, 0, 50, 72
1, 134762, Note_on_c, 0, 54, 72
1, 134835, Note_on_c, 0, 74, 0
1, 134841, Note_on_c, 0, 73, 67
1, 134908, Note_on_c, 0, 54, 0
1, 134911, Note_on_c, 0, 50, 0
1, 134913, Note_on_c, 0, 73, 0
1, 134919, Note_on_c, 0, 71, 67
1, 134920, Note_on_c, 0, 66, 72
1, 134920, Note_on_c, 0, 50, 72
1, 134992, Note_on_c, 0, 71, 0
1, 134997, Note_on_c, 0, 69, 67
1, 135065, Note_on_c, 0, 50, 0
1, 135065, Note_on_c, 0, 66, 0
1, 135070, Note_on_c, 0, 69, 0
1, 135076, Note_on_c, 0, 62, 72
1, 135076, Note_on_c, 0, 67, 72
1, 135077, Note_on_c, 0, 59, 72
1, 135148, Note_on_c, 0, 67, 0
1, 135155, Note_on_c, 0, 64, 72
1, 135223, Note_on_c, 0, 59, 0
1, 135228, Note_on_c, 0, 64, 0
1, 135234, Note_on_c, 0, 66, 72
1, 135235, Note_on_c, 0, 57, 72
1, 135308, Note_on_c, 0, 66, 0
1, 135313, Note_on_c, 0, 69, 67
1, 135373, Note_on_c, 0, 62, 0
1, 135383, Note_on_c, 0, 57, 0
1, 135388, Note_on_c, 0, 69, 0
1, 135393, Note_on_c, 0, 71, 67
1, 135393, Note_on_c, 0, 62, 72
1, 135467, Note_on_c, 0, 71, 0
1, 135472, Note_on_c, 0, 67, 72
1, 135542, Note_on_c, 0, 62, 0
1, 135548, Note_on_c, 0, 67, 0
1, 135554, Note_on_c, 0, 69, 67
1, 135554, Note_on_c, 0, 67, 72
1, 135555, Note_on_c, 0, 61, 72
1, 135628, Note_on_c, 0, 69, 0
1, 135634, Note_on_c, 0, 73, 67
1, 135703, Note_on_c, 0, 61, 0
1, 135703, Note_on_c, 0, 67, 0
1, 135708, Note_on_c, 0, 73, 0
1, 135713, Note_on_c, 0, 69, 67
1, 135714, Note_on_c, 0, 74, 67
1, 135714, Note_on_c, 0, 55, 72
1, 135787, Note_on_c, 0, 74, 0
1, 135793, Note_on_c, 0, 76, 64
1, 135861, Note_on_c, 0, 55, 0
1, 135861, Note_on_c, 0, 69, 0
1, 135867, Note_on_c, 0, 76, 0
1, 135872, Note_on_c, 0, 74, 67
1, 135872, Note_on_c, 0, 54, 72
1, 135950, Note_on_c, 0, 76, 64
1, 136018, Note_on_c, 0, 54, 0
1, 136018, Note_on_c, 0, 74, 0
1, 136023, Note_on_c, 0, 76, 0
1, 136028, Note_on_c, 0, 78, 52
1, 136029, Note_on_c, 0, 72, 67
1, 136029, Note_on_c, 0, 63, 72
1, 136101, Note_on_c, 0, 78, 0
1, 136107, Note_on_c, 0, 79, 52
1, 136175, Note_on_c, 0, 63, 0
1, 136181, Note_on_c, 0, 79, 0
1, 136186, Note_on_c, 0, 81, 52
1, 136186, Note_on_c, 0, 62, 72
1, 136260, Note_on_c, 0, 81, 0
1, 136265, Note_on_c, 0, 78, 55
1, 136324, Note_on_c, 0, 72, 0
1, 136332, Note_on_c, 0, 62, 0
1, 136337, Note_on_c, 0, 78, 0
1, 136343, Note_on_c, 0, 74, 67
1, 136344, Note_on_c, 0, 71, 67
1, 136344, Note_on_c, 0, 57, 72
1, 136415, Note_on_c, 0, 74, 0
1, 136421, Note_on_c, 0, 77, 52
1, 136489, Note_on_c, 0, 57, 0
1, 136495, Note_on_c, 0, 77, 0
1, 136500, Note_on_c, 0, 76, 64
1, 136500, Note_on_c, 0, 56, 72
1, 136573, Note_on_c, 0, 76, 0
1, 136578, Note_on_c, 0, 74, 64
1, 136637, Note_on_c, 0, 71, 0
1, 136645, Note_on_c, 0, 56, 0
1, 136651, Note_on_c, 0, 74, 0
1, 136656, Note_on_c, 0, 69, 67
1, 136656, Note_on_c, 0, 72, 64
1, 136657, Note_on_c, 0, 65, 72
1, 136728, Note_on_c, 0, 72, 0
1, 136734, Note_on_c, 0, 71, 67
1, 136800, Note_on_c, 0, 65, 0
1, 136806, Note_on_c, 0, 71, 0
1, 136811, Note_on_c, 0, 72, 64
1, 136811, Note_on_c, 0, 64, 72
1, 136885, Note_on_c, 0, 72, 0
1, 136890, Note_on_c, 0, 74, 64
1, 136959, Note_on_c, 0, 64, 0
1, 136964, Note_on_c, 0, 74, 0
1, 136970, Note_on_c, 0, 72, 64
1, 136970, Note_on_c, 0, 63, 72
1, 137044, Note_on_c, 0, 72, 0
1, 137049, Note_on_c, 0, 71, 67
1, 137098, Note_on_c, 0, 69, 0
1, 137115, Note_on_c, 0, 63, 0
1, 137126, Note_on_c, 0, 69, 67
1, 137126, Note_on_c, 0, 64, 72
1, 137196, Note_on_c, 0, 69, 0
1, 137200, Note_on_c, 0, 68, 67
1, 137264, Note_on_c, 0, 71, 0
1, 137268, Note_on_c, 0, 64, 0
1, 137272, Note_on_c, 0, 68, 0
1, 137279, Note_on_c, 0, 69, 67
1, 137279, Note_on_c, 0, 61, 72
1, 137355, Note_on_c, 0, 67, 72
1, 137422, Note_on_c, 0, 61, 0
1, 137428, Note_on_c, 0, 67, 0
1, 137433, Note_on_c, 0, 57, 72
1, 137434, Note_on_c, 0, 66, 72
1, 137505, Note_on_c, 0, 66, 0
1, 137511, Note_on_c, 0, 64, 72
1, 137578, Note_on_c, 0, 57, 0
1, 137582, Note_on_c, 0, 64, 0
1, 137588, Note_on_c, 0, 59, 72
1, 137588, Note_on_c, 0, 62, 72
1, 137660, Note_on_c, 0, 62, 0
1, 137666, Note_on_c, 0, 61, 72
1, 137716, Note_on_c, 0, 69, 0
1, 137739, Note_on_c, 0, 61, 0
1, 137744, Note_on_c, 0, 74, 65
1, 137745, Note_on_c, 0, 59, 72
1, 137817, Note_on_c, 0, 74, 0
1, 137817, Note_on_c, 0, 59, 0
1, 137822, Note_on_c, 0, 76, 65
1, 137822, Note_on_c, 0, 61, 72
1, 137894, Note_on_c, 0, 61, 0
1, 137895, Note_on_c, 0, 76, 0
1, 137900, Note_on_c, 0, 78, 53
1, 137900, Note_on_c, 0, 62, 72
1, 137971, Note_on_c, 0, 78, 0
1, 137976, Note_on_c, 0, 79, 53
1, 138048, Note_on_c, 0, 79, 0
1, 138053, Note_on_c, 0, 69, 67
1, 138125, Note_on_c, 0, 69, 0
1, 138130, Note_on_c, 0, 68, 67
1, 138188, Note_on_c, 0, 62, 0
1, 138201, Note_on_c, 0, 68, 0
1, 138206, Note_on_c, 0, 76, 65
1, 138206, Note_on_c, 0, 61, 72
1, 138279, Note_on_c, 0, 76, 0
1, 138285, Note_on_c, 0, 78, 53
1, 138316, Note_on_c, 0, 59, 0
1, 138358, Note_on_c, 0, 78, 0
1, 138362, Note_on_c, 0, 67, 72
1, 138363, Note_on_c, 0, 57, 72
1, 138436, Note_on_c, 0, 67, 0
1, 138441, Note_on_c, 0, 66, 72
1, 138501, Note_on_c, 0, 61, 0
1, 138514, Note_on_c, 0, 66, 0
1, 138520, Note_on_c, 0, 74, 67
1, 138520, Note_on_c, 0, 59, 72
1, 138593, Note_on_c, 0, 74, 0
1, 138599, Note_on_c, 0, 76, 67
1, 138657, Note_on_c, 0, 57, 0
1, 138671, Note_on_c, 0, 76, 0
1, 138676, Note_on_c, 0, 66, 72
1, 138677, Note_on_c, 0, 55, 72
1, 138748, Note_on_c, 0, 66, 0
1, 138753, Note_on_c, 0, 64, 72
1, 138812, Note_on_c, 0, 59, 0
1, 138826, Note_on_c, 0, 64, 0
1, 138831, Note_on_c, 0, 73, 67
1, 138831, Note_on_c, 0, 57, 72
1, 138903, Note_on_c, 0, 73, 0
1, 138909, Note_on_c, 0, 71, 67
1, 138967, Note_on_c, 0, 55, 0
1, 138982, Note_on_c, 0, 71, 0
1, 138986, Note_on_c, 0, 73, 67
1, 138987, Note_on_c, 0, 54, 72
1, 138987, Note_on_c, 0, 50, 72
1, 139059, Note_on_c, 0, 73, 0
1, 139064, Note_on_c, 0, 74, 67
1, 139131, Note_on_c, 0, 50, 0
1, 139132, Note_on_c, 0, 54, 0
1, 139136, Note_on_c, 0, 74, 0
1, 139142, Note_on_c, 0, 76, 67
1, 139142, Note_on_c, 0, 52, 72
1, 139143, Note_on_c, 0, 49, 72
1, 139214, Note_on_c, 0, 76, 0
1, 139219, Note_on_c, 0, 78, 55
1, 139286, Note_on_c, 0, 49, 0
1, 139286, Note_on_c, 0, 52, 0
1, 139291, Note_on_c, 0, 78, 0
1, 139296, Note_on_c, 0, 79, 53
1, 139296, Note_on_c, 0, 49, 72
1, 139296, Note_on_c, 0, 45, 72
1, 139368, Note_on_c, 0, 79, 0
1, 139373, Note_on_c, 0, 76, 65
1, 139413, Note_on_c, 0, 57, 0
1, 139440, Note_on_c, 0, 45, 0
1, 139440, Note_on_c, 0, 49, 0
1, 139444, Note_on_c, 0, 76, 0
1, 139450, Note_on_c, 0, 81, 53
1, 139451, Note_on_c, 0, 54, 72
1, 139527, Note_on_c, 0, 79, 53
1, 139594, Note_on_c, 0, 54, 0
1, 139600, Note_on_c, 0, 79, 0
1, 139605, Note_on_c, 0, 78, 53
1, 139606, Note_on_c, 0, 50, 72
1, 139678, Note_on_c, 0, 78, 0
1, 139683, Note_on_c, 0, 76, 65
1, 139751, Note_on_c, 0, 50, 0
1, 139756, Note_on_c, 0, 76, 0
1, 139762, Note_on_c, 0, 74, 67
1, 139762, Note_on_c, 0, 55, 72
1, 139834, Note_on_c, 0, 74, 0
1, 139839, Note_on_c, 0, 72, 67
1, 139907, Note_on_c, 0, 55, 0
1, 139912, Note_on_c, 0, 72, 0
1, 139918, Note_on_c, 0, 71, 67
1, 139919, Note_on_c, 0, 54, 72
1, 139990, Note_on_c, 0, 71, 0
1, 139996, Note_on_c, 0, 72, 67
1, 140035, Note_on_c, 0, 81, 0
1, 140062, Note_on_c, 0, 54, 0
1, 140067, Note_on_c, 0, 72, 0
1, 140073, Note_on_c, 0, 79, 53
1, 140073, Note_on_c, 0, 74, 67
1, 140074, Note_on_c, 0, 48, 72
1, 140144, Note_on_c, 0, 74, 0
1, 140150, Note_on_c, 0, 76, 65
1, 140215, Note_on_c, 0, 48, 0
1, 140219, Note_on_c, 0, 76, 0
1, 140225, Note_on_c, 0, 74, 67
1, 140226, Note_on_c, 0, 47, 72
1, 140297, Note_on_c, 0, 74, 0
1, 140302, Note_on_c, 0, 72, 67
1, 140361, Note_on_c, 0, 79, 0
1, 140370, Note_on_c, 0, 47, 0
1, 140375, Note_on_c, 0, 72, 0
1, 140380, Note_on_c, 0, 77, 53
1, 140380, Note_on_c, 0, 71, 67
1, 140381, Note_on_c, 0, 57, 72
1, 140454, Note_on_c, 0, 71, 0
1, 140460, Note_on_c, 0, 73, 67
1, 140529, Note_on_c, 0, 57, 0
1, 140534, Note_on_c, 0, 73, 0
1, 140539, Note_on_c, 0, 74, 67
1, 140540, Note_on_c, 0, 56, 72
1, 140613, Note_on_c, 0, 74, 0
1, 140618, Note_on_c, 0, 71, 67
1, 140677, Note_on_c, 0, 77, 0
1, 140687, Note_on_c, 0, 56, 0
1, 140692, Note_on_c, 0, 71, 0
1, 140698, Note_on_c, 0, 76, 65
1, 140698, Note_on_c, 0, 67, 72
1, 140699, Note_on_c, 0, 50, 72
1, 140772, Note_on_c, 0, 67, 0
1, 140776, Note_on_c, 0, 70, 67
1, 140845, Note_on_c, 0, 50, 0
1, 140850, Note_on_c, 0, 70, 0
1, 140856, Note_on_c, 0, 69, 67
1, 140856, Note_on_c, 0, 49, 72
1, 140929, Note_on_c, 0, 69, 0
1, 140935, Note_on_c, 0, 67, 72
1, 140993, Note_on_c, 0, 76, 0
1, 141002, Note_on_c, 0, 49, 0
1, 141008, Note_on_c, 0, 67, 0
1, 141012, Note_on_c, 0, 74, 67
1, 141013, Note_on_c, 0, 58, 72
1, 141013, Note_on_c, 0, 65, 72
1, 141085, Note_on_c, 0, 65, 0
1, 141090, Note_on_c, 0, 64, 72
1, 141157, Note_on_c, 0, 58, 0
1, 141162, Note_on_c, 0, 64, 0
1, 141168, Note_on_c, 0, 57, 72
1, 141168, Note_on_c, 0, 65, 72
1, 141240, Note_on_c, 0, 65, 0
1, 141245, Note_on_c, 0, 62, 72
1, 141312, Note_on_c, 0, 57, 0
1, 141318, Note_on_c, 0, 62, 0
1, 141323, Note_on_c, 0, 64, 72
1, 141323, Note_on_c, 0, 56, 72
1, 141376, Note_on_c, 0, 74, 0
1, 141400, Note_on_c, 0, 73, 67
1, 141468, Note_on_c, 0, 56, 0
1, 141473, Note_on_c, 0, 73, 0
1, 141478, Note_on_c, 0, 74, 67
1, 141479, Note_on_c, 0, 57, 72
1, 141551, Note_on_c, 0, 74, 0
1, 141557, Note_on_c, 0, 73, 67
1, 141615, Note_on_c, 0, 64, 0
1, 141625, Note_on_c, 0, 57, 0
1, 141631, Note_on_c, 0, 73, 0
1, 141636, Note_on_c, 0, 74, 67
1, 141636, Note_on_c, 0, 54, 72
1, 141715, Note_on_c, 0, 72, 67
1, 141783, Note_on_c, 0, 54, 0
1, 141788, Note_on_c, 0, 72, 0
1, 141794, Note_on_c, 0, 71, 67
1, 141795, Note_on_c, 0, 50, 72
1, 141868, Note_on_c, 0, 71, 0
1, 141873, Note_on_c, 0, 69, 67
1, 141942, Note_on_c, 0, 50, 0
1, 141947, Note_on_c, 0, 69, 0
1, 141952, Note_on_c, 0, 67, 72
1, 141953, Note_on_c, 0, 52, 72
1, 142006, Note_on_c, 0, 74, 0
1, 142024, Note_on_c, 0, 67, 0
1, 142030, Note_on_c, 0, 76, 65
1, 142030, Note_on_c, 0, 66, 72
1, 142102, Note_on_c, 0, 66, 0
1, 142103, Note_on_c, 0, 76, 0
1, 142107, Note_on_c, 0, 78, 53
1, 142108, Note_on_c, 0, 64, 72
1, 142179, Note_on_c, 0, 64, 0
1, 142179, Note_on_c, 0, 78, 0
1, 142185, Note_on_c, 0, 79, 53
1, 142186, Note_on_c, 0, 62, 72
1, 142257, Note_on_c, 0, 62, 0
1, 142257, Note_on_c, 0, 79, 0
1, 142262, Note_on_c, 0, 81, 53
1, 142262, Note_on_c, 0, 61, 72
1, 142334, Note_on_c, 0, 61, 0
1, 142335, Note_on_c, 0, 81, 0
1, 142339, Note_on_c, 0, 83, 53
1, 142339, Note_on_c, 0, 59, 72
1, 142411, Note_on_c, 0, 59, 0
1, 142412, Note_on_c, 0, 83, 0
1, 142417, Note_on_c, 0, 74, 67
1, 142418, Note_on_c, 0, 57, 72
1, 142489, Note_on_c, 0, 57, 0
1, 142489, Note_on_c, 0, 74, 0
1, 142494, Note_on_c, 0, 73, 67
1, 142495, Note_on_c, 0, 55, 72
1, 142535, Note_on_c, 0, 52, 0
1, 142567, Note_on_c, 0, 55, 0
1, 142568, Note_on_c, 0, 73, 0
1, 142572, Note_on_c, 0, 74, 67
1, 142572, Note_on_c, 0, 54, 72
1, 142573, Note_on_c, 0, 50, 72
1, 142644, Note_on_c, 0, 54, 0
1, 142650, Note_on_c, 0, 57, 72
1, 142721, Note_on_c, 0, 57, 0
1, 142726, Note_on_c, 0, 59, 72
1, 142798, Note_on_c, 0, 59, 0
1, 142802, Note_on_c, 0, 61, 72
1, 142860, Note_on_c, 0, 50, 0
1, 142873, Note_on_c, 0, 61, 0
1, 142878, Note_on_c, 0, 62, 72
1, 142950, Note_on_c, 0, 62, 0
1, 142956, Note_on_c, 0, 64, 72
1, 143028, Note_on_c, 0, 64, 0
1, 143033, Note_on_c, 0, 57, 72
1, 143033, Note_on_c, 0, 47, 72
1, 143106, Note_on_c, 0, 57, 0
1, 143112, Note_on_c, 0, 56, 72
1, 143180, Note_on_c, 0, 47, 0
1, 143184, Note_on_c, 0, 56, 0
1, 143190, Note_on_c, 0, 57, 72
1, 143191, Note_on_c, 0, 45, 72
1, 143268, Note_on_c, 0, 64, 72
1, 143340, Note_on_c, 0, 64, 0
1, 143345, Note_on_c, 0, 66, 72
1, 143417, Note_on_c, 0, 66, 0
1, 143423, Note_on_c, 0, 67, 72
1, 143443, Note_on_c, 0, 74, 0
1, 143480, Note_on_c, 0, 45, 0
1, 143495, Note_on_c, 0, 67, 0
1, 143499, Note_on_c, 0, 73, 67
1, 143500, Note_on_c, 0, 69, 67
1, 143571, Note_on_c, 0, 69, 0
1, 143576, Note_on_c, 0, 71, 67
1, 143643, Note_on_c, 0, 73, 0
1, 143648, Note_on_c, 0, 71, 0
1, 143653, Note_on_c, 0, 78, 55
1, 143653, Note_on_c, 0, 64, 72
1, 143654, Note_on_c, 0, 54, 72
1, 143724, Note_on_c, 0, 64, 0
1, 143729, Note_on_c, 0, 63, 72
1, 143768, Note_on_c, 0, 57, 0
1, 143795, Note_on_c, 0, 54, 0
1, 143800, Note_on_c, 0, 63, 0
1, 143805, Note_on_c, 0, 67, 72
1, 143805, Note_on_c, 0, 52, 72
1, 143806, Note_on_c, 0, 59, 72
1, 143867, Note_on_c, 0, 78, 0
1, 143881, Note_on_c, 0, 71, 67
1, 143948, Note_on_c, 0, 59, 0
1, 143952, Note_on_c, 0, 71, 0
1, 143958, Note_on_c, 0, 73, 67
1, 143959, Note_on_c, 0, 58, 72
1, 144029, Note_on_c, 0, 58, 0
1, 144030, Note_on_c, 0, 73, 0
1, 144035, Note_on_c, 0, 74, 67
1, 144036, Note_on_c, 0, 59, 72
1, 144094, Note_on_c, 0, 52, 0
1, 144108, Note_on_c, 0, 59, 0
1, 144108, Note_on_c, 0, 74, 0
1, 144113, Note_on_c, 0, 76, 67
1, 144113, Note_on_c, 0, 61, 72
1, 144186, Note_on_c, 0, 76, 0
1, 144192, Note_on_c, 0, 78, 55
1, 144259, Note_on_c, 0, 61, 0
1, 144264, Note_on_c, 0, 78, 0
1, 144270, Note_on_c, 0, 71, 67
1, 144270, Note_on_c, 0, 52, 72
1, 144271, Note_on_c, 0, 49, 72
1, 144343, Note_on_c, 0, 71, 0
1, 144348, Note_on_c, 0, 70, 67
1, 144415, Note_on_c, 0, 49, 0
1, 144416, Note_on_c, 0, 52, 0
1, 144421, Note_on_c, 0, 70, 0
1, 144426, Note_on_c, 0, 74, 67
1, 144427, Note_on_c, 0, 59, 72
1, 144427, Note_on_c, 0, 47, 72
1, 144497, Note_on_c, 0, 47, 0
1, 144502, Note_on_c, 0, 42, 72
1, 144532, Note_on_c, 0, 67, 0
1, 144568, Note_on_c, 0, 59, 0
1, 144573, Note_on_c, 0, 42, 0
1, 144579, Note_on_c, 0, 66, 72
1, 144579, Note_on_c, 0, 44, 72
1, 144648, Note_on_c, 0, 44, 0
1, 144653, Note_on_c, 0, 45, 72
1, 144710, Note_on_c, 0, 74, 0
1, 144719, Note_on_c, 0, 66, 0
1, 144723, Note_on_c, 0, 45, 0
1, 144730, Note_on_c, 0, 73, 67
1, 144730, Note_on_c, 0, 65, 72
1, 144731, Note_on_c, 0, 47, 72
1, 144803, Note_on_c, 0, 47, 0
1, 144807, Note_on_c, 0, 49, 72
1, 144876, Note_on_c, 0, 65, 0
1, 144876, Note_on_c, 0, 73, 0
1, 144880, Note_on_c, 0, 49, 0
1, 144885, Note_on_c, 0, 71, 67
1, 144886, Note_on_c, 0, 68, 67
1, 144886, Note_on_c, 0, 42, 72
1, 144959, Note_on_c, 0, 42, 0
1, 144964, Note_on_c, 0, 41, 72
1, 145031, Note_on_c, 0, 71, 0
1, 145036, Note_on_c, 0, 41, 0
1, 145041, Note_on_c, 0, 73, 67
1, 145041, Note_on_c, 0, 45, 72
1, 145104, Note_on_c, 0, 68, 0
1, 145117, Note_on_c, 0, 49, 72
1, 145118, Note_on_c, 0, 65, 72
1, 145189, Note_on_c, 0, 65, 0
1, 145190, Note_on_c, 0, 49, 0
1, 145194, Note_on_c, 0, 51, 72
1, 145195, Note_on_c, 0, 66, 72
1, 145265, Note_on_c, 0, 66, 0
1, 145266, Note_on_c, 0, 51, 0
1, 145271, Note_on_c, 0, 68, 67
1, 145272, Note_on_c, 0, 53, 72
1, 145341, Note_on_c, 0, 53, 0
1, 145342, Note_on_c, 0, 68, 0
1, 145347, Note_on_c, 0, 69, 67
1, 145347, Note_on_c, 0, 54, 72
1, 145419, Note_on_c, 0, 54, 0
1, 145419, Note_on_c, 0, 69, 0
1, 145424, Note_on_c, 0, 71, 67
1, 145424, Note_on_c, 0, 56, 72
1, 145496, Note_on_c, 0, 56, 0
1, 145496, Note_on_c, 0, 71, 0
1, 145501, Note_on_c, 0, 57, 72
1, 145502, Note_on_c, 0, 62, 72
1, 145574, Note_on_c, 0, 62, 0
1, 145575, Note_on_c, 0, 57, 0
1, 145579, Note_on_c, 0, 53, 72
1, 145580, Note_on_c, 0, 61, 72
1, 145620, Note_on_c, 0, 73, 0
1, 145652, Note_on_c, 0, 61, 0
1, 145653, Note_on_c, 0, 53, 0
1, 145658, Note_on_c, 0, 54, 72
1, 145658, Note_on_c, 0, 63, 72
1, 145735, Note_on_c, 0, 66, 72
1, 145806, Note_on_c, 0, 66, 0
1, 145812, Note_on_c, 0, 68, 67
1, 145883, Note_on_c, 0, 68, 0
1, 145887, Note_on_c, 0, 69, 67
1, 145908, Note_on_c, 0, 45, 0
1, 145945, Note_on_c, 0, 54, 0
1, 145945, Note_on_c, 0, 63, 0
1, 145958, Note_on_c, 0, 69, 0
1, 145963, Note_on_c, 0, 71, 67
1, 145964, Note_on_c, 0, 56, 72
1, 145964, Note_on_c, 0, 65, 72
1, 145965, Note_on_c, 0, 44, 72
1, 146034, Note_on_c, 0, 71, 0
1, 146040, Note_on_c, 0, 73, 67
1, 146107, Note_on_c, 0, 65, 0
1, 146112, Note_on_c, 0, 73, 0
1, 146117, Note_on_c, 0, 68, 67
1, 146117, Note_on_c, 0, 66, 72
1, 146189, Note_on_c, 0, 66, 0
1, 146195, Note_on_c, 0, 65, 72
1, 146252, Note_on_c, 0, 44, 0
1, 146253, Note_on_c, 0, 56, 0
1, 146266, Note_on_c, 0, 65, 0
1, 146271, Note_on_c, 0, 69, 67
1, 146272, Note_on_c, 0, 42, 72
1, 146334, Note_on_c, 0, 68, 0
1, 146348, Note_on_c, 0, 68, 67
1, 146414, Note_on_c, 0, 42, 0
1, 146420, Note_on_c, 0, 68, 0
1, 146425, Note_on_c, 0, 61, 72
1, 146425, Note_on_c, 0, 66, 72
1, 146497, Note_on_c, 0, 66, 0
1, 146503, Note_on_c, 0, 65, 72
1, 146560, Note_on_c, 0, 69, 0
1, 146570, Note_on_c, 0, 61, 0
1, 146575, Note_on_c, 0, 65, 0
1, 146580, Note_on_c, 0, 66, 72
1, 146580, Note_on_c, 0, 57, 72
1, 146652, Note_on_c, 0, 66, 0
1, 146658, Note_on_c, 0, 68, 67
1, 146724, Note_on_c, 0, 57, 0
1, 146729, Note_on_c, 0, 68, 0
1, 146735, Note_on_c, 0, 69, 67
1, 146735, Note_on_c, 0, 54, 72
1, 146806, Note_on_c, 0, 69, 0
1, 146812, Note_on_c, 0, 73, 65
1, 146879, Note_on_c, 0, 54, 0
1, 146885, Note_on_c, 0, 73, 0
1, 146890, Note_on_c, 0, 71, 67
1, 146891, Note_on_c, 0, 62, 72
1, 146963, Note_on_c, 0, 71, 0
1, 146968, Note_on_c, 0, 68, 67
1, 147035, Note_on_c, 0, 62, 0
1, 147039, Note_on_c, 0, 68, 0
1, 147046, Note_on_c, 0, 69, 67
1, 147046, Note_on_c, 0, 61, 72
1, 147119, Note_on_c, 0, 69, 0
1, 147123, Note_on_c, 0, 73, 65
1, 147192, Note_on_c, 0, 61, 0
1, 147196, Note_on_c, 0, 73, 0
1, 147202, Note_on_c, 0, 80, 53
1, 147203, Note_on_c, 0, 71, 67
1, 147203, Note_on_c, 0, 66, 72
1, 147275, Note_on_c, 0, 71, 0
1, 147280, Note_on_c, 0, 74, 65
1, 147347, Note_on_c, 0, 66, 0
1, 147352, Note_on_c, 0, 74, 0
1, 147358, Note_on_c, 0, 73, 65
1, 147358, Note_on_c, 0, 65, 72
1, 147429, Note_on_c, 0, 73, 0
1, 147434, Note_on_c, 0, 71, 67
1, 147491, Note_on_c, 0, 80, 0
1, 147501, Note_on_c, 0, 65, 0
1, 147505, Note_on_c, 0, 71, 0
1, 147510, Note_on_c, 0, 78, 53
1, 147511, Note_on_c, 0, 73, 65
1, 147511, Note_on_c, 0, 59, 72
1, 147582, Note_on_c, 0, 73, 0
1, 147587, Note_on_c, 0, 74, 65
1, 147654, Note_on_c, 0, 59, 0
1, 147660, Note_on_c, 0, 74, 0
1, 147665, Note_on_c, 0, 76, 65
1, 147665, Note_on_c, 0, 58, 72
1, 147737, Note_on_c, 0, 76, 0
1, 147743, Note_on_c, 0, 74, 65
1, 147800, Note_on_c, 0, 78, 0
1, 147809, Note_on_c, 0, 58, 0
1, 147814, Note_on_c, 0, 74, 0
1, 147819, Note_on_c, 0, 76, 65
1, 147820, Note_on_c, 0, 73, 65
1, 147820, Note_on_c, 0, 67, 72
1, 147890, Note_on_c, 0, 73, 0
1, 147895, Note_on_c, 0, 71, 67
1, 147963, Note_on_c, 0, 67, 0
1, 147968, Note_on_c, 0, 71, 0
1, 147974, Note_on_c, 0, 70, 67
1, 147974, Note_on_c, 0, 66, 72
1, 148047, Note_on_c, 0, 70, 0
1, 148053, Note_on_c, 0, 68, 67
1, 148111, Note_on_c, 0, 76, 0
1, 148120, Note_on_c, 0, 66, 0
1, 148126, Note_on_c, 0, 68, 0
1, 148130, Note_on_c, 0, 75, 65
1, 148131, Note_on_c, 0, 66, 72
1, 148131, Note_on_c, 0, 61, 72
1, 148203, Note_on_c, 0, 66, 0
1, 148208, Note_on_c, 0, 69, 67
1, 148276, Note_on_c, 0, 61, 0
1, 148281, Note_on_c, 0, 69, 0
1, 148287, Note_on_c, 0, 68, 67
1, 148287, Note_on_c, 0, 60, 72
1, 148359, Note_on_c, 0, 68, 0
1, 148365, Note_on_c, 0, 72, 65
1, 148422, Note_on_c, 0, 75, 0
1, 148431, Note_on_c, 0, 60, 0
1, 148437, Note_on_c, 0, 72, 0
1, 148441, Note_on_c, 0, 73, 65
1, 148442, Note_on_c, 0, 69, 67
1, 148519, Note_on_c, 0, 75, 62
1, 148585, Note_on_c, 0, 69, 0
1, 148591, Note_on_c, 0, 75, 0
1, 148596, Note_on_c, 0, 68, 67
1, 148596, Note_on_c, 0, 76, 62
1, 148667, Note_on_c, 0, 76, 0
1, 148673, Note_on_c, 0, 78, 50
1, 148739, Note_on_c, 0, 68, 0
1, 148745, Note_on_c, 0, 78, 0
1, 148750, Note_on_c, 0, 76, 62
1, 148751, Note_on_c, 0, 67, 72
1, 148823, Note_on_c, 0, 76, 0
1, 148829, Note_on_c, 0, 75, 62
1, 148877, Note_on_c, 0, 73, 0
1, 148896, Note_on_c, 0, 67, 0
1, 148901, Note_on_c, 0, 75, 0
1, 148907, Note_on_c, 0, 68, 67
1, 148907, Note_on_c, 0, 72, 65
1, 148984, Note_on_c, 0, 69, 67
1, 149051, Note_on_c, 0, 68, 0
1, 149052, Note_on_c, 0, 72, 0
1, 149056, Note_on_c, 0, 69, 0
1, 149061, Note_on_c, 0, 73, 65
1, 149062, Note_on_c, 0, 68, 67
1, 149062, Note_on_c, 0, 64, 72
1, 149133, Note_on_c, 0, 68, 0
1, 149139, Note_on_c, 0, 71, 67
1, 149205, Note_on_c, 0, 64, 0
1, 149209, Note_on_c, 0, 71, 0
1, 149216, Note_on_c, 0, 69, 67
1, 149216, Note_on_c, 0, 61, 72
1, 149286, Note_on_c, 0, 69, 0
1, 149292, Note_on_c, 0, 68, 67
1, 149357, Note_on_c, 0, 61, 0
1, 149363, Note_on_c, 0, 68, 0
1, 149368, Note_on_c, 0, 66, 72
1, 149369, Note_on_c, 0, 63, 72
1, 149422, Note_on_c, 0, 73, 0
1, 149444, Note_on_c, 0, 75, 65
1, 149515, Note_on_c, 0, 75, 0
1, 149520, Note_on_c, 0, 76, 65
1, 149591, Note_on_c, 0, 76, 0
1, 149596, Note_on_c, 0, 78, 53
1, 149666, Note_on_c, 0, 78, 0
1, 149672, Note_on_c, 0, 80, 53
1, 149743, Note_on_c, 0, 80, 0
1, 149748, Note_on_c, 0, 81, 53
1, 149820, Note_on_c, 0, 81, 0
1, 149824, Note_on_c, 0, 73, 65
1, 149896, Note_on_c, 0, 73, 0
1, 149901, Note_on_c, 0, 72, 65
1, 149940, Note_on_c, 0, 66, 0
1, 149973, Note_on_c, 0, 72, 0
1, 149978, Note_on_c, 0, 76, 67
1, 149978, Note_on_c, 0, 68, 67
1, 150012, Note_on_c, 0, 63, 0
1, 150054, Note_on_c, 0, 56, 72
1, 150125, Note_on_c, 0, 56, 0
1, 150130, Note_on_c, 0, 58, 72
1, 150200, Note_on_c, 0, 58, 0
1, 150205, Note_on_c, 0, 60, 72
1, 150275, Note_on_c, 0, 60, 0
1, 150280, Note_on_c, 0, 61, 72
1, 150350, Note_on_c, 0, 61, 0
1, 150355, Note_on_c, 0, 63, 72
1, 150427, Note_on_c, 0, 63, 0
1, 150432, Note_on_c, 0, 54, 72
1, 150505, Note_on_c, 0, 54, 0
1, 150510, Note_on_c, 0, 52, 72
1, 150582, Note_on_c, 0, 52, 0
1, 150588, Note_on_c, 0, 54, 72
1, 150610, Note_on_c, 0, 76, 0
1, 150621, Note_on_c, 0, 68, 0
1, 150663, Note_on_c, 0, 76, 67
1, 150664, Note_on_c, 0, 61, 72
1, 150733, Note_on_c, 0, 61, 0
1, 150734, Note_on_c, 0, 76, 0
1, 150738, Note_on_c, 0, 78, 55
1, 150739, Note_on_c, 0, 63, 72
1, 150809, Note_on_c, 0, 63, 0
1, 150810, Note_on_c, 0, 78, 0
1, 150814, Note_on_c, 0, 80, 55
1, 150815, Note_on_c, 0, 64, 72
1, 150871, Note_on_c, 0, 54, 0
1, 150884, Note_on_c, 0, 64, 0
1, 150885, Note_on_c, 0, 80, 0
1, 150890, Note_on_c, 0, 81, 55
1, 150890, Note_on_c, 0, 66, 72
1, 150959, Note_on_c, 0, 66, 0
1, 150960, Note_on_c, 0, 81, 0
1, 150964, Note_on_c, 0, 83, 55
1, 150964, Note_on_c, 0, 68, 67
1, 151033, Note_on_c, 0, 68, 0
1, 151033, Note_on_c, 0, 83, 0
1, 151038, Note_on_c, 0, 75, 67
1, 151038, Note_on_c, 0, 69, 67
1, 151110, Note_on_c, 0, 69, 0
1, 151110, Note_on_c, 0, 75, 0
1, 151115, Note_on_c, 0, 73, 67
1, 151115, Note_on_c, 0, 71, 67
1, 151186, Note_on_c, 0, 71, 0
1, 151186, Note_on_c, 0, 73, 0
1, 151190, Note_on_c, 0, 75, 67
1, 151191, Note_on_c, 0, 69, 67
1, 151260, Note_on_c, 0, 69, 0
1, 151266, Note_on_c, 0, 66, 72
1, 151335, Note_on_c, 0, 66, 0
1, 151341, Note_on_c, 0, 68, 67
1, 151341, Note_on_c, 0, 47, 72
1, 151411, Note_on_c, 0, 68, 0
1, 151416, Note_on_c, 0, 69, 67
1, 151472, Note_on_c, 0, 75, 0
1, 151481, Note_on_c, 0, 47, 0
1, 151486, Note_on_c, 0, 69, 0
1, 151491, Note_on_c, 0, 71, 67
1, 151492, Note_on_c, 0, 44, 72
1, 151563, Note_on_c, 0, 71, 0
1, 151568, Note_on_c, 0, 73, 67
1, 151634, Note_on_c, 0, 44, 0
1, 151640, Note_on_c, 0, 73, 0
1, 151645, Note_on_c, 0, 75, 67
1, 151645, Note_on_c, 0, 40, 72
1, 151717, Note_on_c, 0, 75, 0
1, 151723, Note_on_c, 0, 76, 67
1, 151788, Note_on_c, 0, 40, 0
1, 151793, Note_on_c, 0, 76, 0
1, 151800, Note_on_c, 0, 78, 55
1, 151800, Note_on_c, 0, 49, 72
1, 151871, Note_on_c, 0, 78, 0
1, 151876, Note_on_c, 0, 75, 67
1, 151944, Note_on_c, 0, 49, 0
1, 151949, Note_on_c, 0, 75, 0
1, 151955, Note_on_c, 0, 76, 67
1, 151956, Note_on_c, 0, 47, 72
1, 152027, Note_on_c, 0, 76, 0
1, 152032, Note_on_c, 0, 80, 55
1, 152099, Note_on_c, 0, 47, 0
1, 152105, Note_on_c, 0, 80, 0
1, 152110, Note_on_c, 0, 78, 55
1, 152110, Note_on_c, 0, 52, 72
1, 152187, Note_on_c, 0, 73, 67
1, 152255, Note_on_c, 0, 52, 0
1, 152259, Note_on_c, 0, 73, 0
1, 152264, Note_on_c, 0, 71, 67
1, 152265, Note_on_c, 0, 51, 72
1, 152336, Note_on_c, 0, 71, 0
1, 152341, Note_on_c, 0, 69, 67
1, 152399, Note_on_c, 0, 78, 0
1, 152407, Note_on_c, 0, 51, 0
1, 152412, Note_on_c, 0, 69, 0
1, 152418, Note_on_c, 0, 76, 67
1, 152418, Note_on_c, 0, 71, 67
1, 152419, Note_on_c, 0, 45, 72
1, 152489, Note_on_c, 0, 71, 0
1, 152495, Note_on_c, 0, 73, 67
1, 152560, Note_on_c, 0, 45, 0
1, 152566, Note_on_c, 0, 73, 0
1, 152570, Note_on_c, 0, 74, 67
1, 152571, Note_on_c, 0, 44, 72
1, 152641, Note_on_c, 0, 74, 0
1, 152646, Note_on_c, 0, 73, 67
1, 152703, Note_on_c, 0, 76, 0
1, 152712, Note_on_c, 0, 44, 0
1, 152717, Note_on_c, 0, 73, 0
1, 152722, Note_on_c, 0, 74, 67
1, 152723, Note_on_c, 0, 71, 67
1, 152723, Note_on_c, 0, 53, 72
1, 152793, Note_on_c, 0, 71, 0
1, 152798, Note_on_c, 0, 69, 67
1, 152864, Note_on_c, 0, 53, 0
1, 152869, Note_on_c, 0, 69, 0
1, 152875, Note_on_c, 0, 68, 67
1, 152875, Note_on_c, 0, 52, 72
1, 152946, Note_on_c, 0, 68, 0
1, 152952, Note_on_c, 0, 66, 72
1, 153008, Note_on_c, 0, 74, 0
1, 153018, Note_on_c, 0, 52, 0
1, 153023, Note_on_c, 0, 66, 0
1, 153027, Note_on_c, 0, 73, 67
1, 153028, Note_on_c, 0, 64, 72
1, 153028, Note_on_c, 0, 47, 72
1, 153099, Note_on_c, 0, 64, 0
1, 153104, Note_on_c, 0, 67, 72
1, 153170, Note_on_c, 0, 47, 0
1, 153175, Note_on_c, 0, 67, 0
1, 153180, Note_on_c, 0, 66, 72
1, 153180, Note_on_c, 0, 46, 72
1, 153252, Note_on_c, 0, 66, 0
1, 153257, Note_on_c, 0, 64, 72
1, 153314, Note_on_c, 0, 73, 0
1, 153323, Note_on_c, 0, 46, 0
1, 153328, Note_on_c, 0, 64, 0
1, 153334, Note_on_c, 0, 71, 67
1, 153334, Note_on_c, 0, 62, 72
1, 153335, Note_on_c, 0, 55, 72
1, 153405, Note_on_c, 0, 62, 0
1, 153411, Note_on_c, 0, 61, 72
1, 153477, Note_on_c, 0, 55, 0
1, 153481, Note_on_c, 0, 61, 0
1, 153487, Note_on_c, 0, 54, 72
1, 153487, Note_on_c, 0, 62, 72
1, 153557, Note_on_c, 0, 62, 0
1, 153563, Note_on_c, 0, 59, 72
1, 153628, Note_on_c, 0, 54, 0
1, 153633, Note_on_c, 0, 59, 0
1, 153638, Note_on_c, 0, 61, 72
1, 153638, Note_on_c, 0, 53, 72
1, 153691, Note_on_c, 0, 71, 0
1, 153714, Note_on_c, 0, 70, 67
1, 153779, Note_on_c, 0, 53, 0
1, 153784, Note_on_c, 0, 70, 0
1, 153789, Note_on_c, 0, 71, 67
1, 153790, Note_on_c, 0, 54, 72
1, 153860, Note_on_c, 0, 71, 0
1, 153865, Note_on_c, 0, 70, 67
1, 153923, Note_on_c, 0, 61, 0
1, 153932, Note_on_c, 0, 54, 0
1, 153937, Note_on_c, 0, 70, 0
1, 153943, Note_on_c, 0, 71, 67
1, 153943, Note_on_c, 0, 50, 72
1, 154020, Note_on_c, 0, 69, 67
1, 154085, Note_on_c, 0, 50, 0
1, 154091, Note_on_c, 0, 69, 0
1, 154096, Note_on_c, 0, 67, 72
1, 154097, Note_on_c, 0, 47, 72
1, 154168, Note_on_c, 0, 67, 0
1, 154174, Note_on_c, 0, 66, 72
1, 154240, Note_on_c, 0, 47, 0
1, 154246, Note_on_c, 0, 66, 0
1, 154251, Note_on_c, 0, 49, 72
1, 154251, Note_on_c, 0, 64, 72
1, 154304, Note_on_c, 0, 71, 0
1, 154328, Note_on_c, 0, 73, 67
1, 154397, Note_on_c, 0, 73, 0
1, 154404, Note_on_c, 0, 74, 67
1, 154474, Note_on_c, 0, 74, 0
1, 154479, Note_on_c, 0, 76, 67
1, 154537, Note_on_c, 0, 64, 0
1, 154550, Note_on_c, 0, 76, 0
1, 154555, Note_on_c, 0, 78, 55
1, 154627, Note_on_c, 0, 78, 0
1, 154632, Note_on_c, 0, 79, 55
1, 154703, Note_on_c, 0, 79, 0
1, 154708, Note_on_c, 0, 73, 67
1, 154708, Note_on_c, 0, 71, 67
1, 154779, Note_on_c, 0, 71, 0
1, 154785, Note_on_c, 0, 70, 67
1, 154824, Note_on_c, 0, 49, 0
1, 154857, Note_on_c, 0, 70, 0
1, 154861, Note_on_c, 0, 73, 0
1, 154862, Note_on_c, 0, 74, 65
1, 154862, Note_on_c, 0, 47, 72
1, 154938, Note_on_c, 0, 73, 65
1, 155004, Note_on_c, 0, 47, 0
1, 155009, Note_on_c, 0, 73, 0
1, 155014, Note_on_c, 0, 71, 67
1, 155015, Note_on_c, 0, 66, 72
1, 155083, Note_on_c, 0, 71, 0
1, 155089, Note_on_c, 0, 70, 67
1, 155155, Note_on_c, 0, 66, 0
1, 155161, Note_on_c, 0, 70, 0
1, 155166, Note_on_c, 0, 71, 67
1, 155166, Note_on_c, 0, 62, 72
1, 155220, Note_on_c, 0, 74, 0
1, 155244, Note_on_c, 0, 73, 65
1, 155313, Note_on_c, 0, 62, 0
1, 155318, Note_on_c, 0, 73, 0
1, 155323, Note_on_c, 0, 74, 65
1, 155324, Note_on_c, 0, 59, 72
1, 155396, Note_on_c, 0, 74, 0
1, 155402, Note_on_c, 0, 73, 65
1, 155460, Note_on_c, 0, 71, 0
1, 155469, Note_on_c, 0, 59, 0
1, 155475, Note_on_c, 0, 73, 0
1, 155480, Note_on_c, 0, 73, 65
1, 155480, Note_on_c, 0, 76, 65
1, 155481, Note_on_c, 0, 67, 72
1, 155552, Note_on_c, 0, 76, 0
1, 155556, Note_on_c, 0, 74, 65
1, 155623, Note_on_c, 0, 67, 0
1, 155623, Note_on_c, 0, 73, 0
1, 155628, Note_on_c, 0, 74, 0
1, 155633, Note_on_c, 0, 78, 50
1, 155634, Note_on_c, 0, 74, 65
1, 155634, Note_on_c, 0, 66, 72
1, 155704, Note_on_c, 0, 78, 0
1, 155710, Note_on_c, 0, 76, 62
1, 155776, Note_on_c, 0, 66, 0
1, 155777, Note_on_c, 0, 74, 0
1, 155781, Note_on_c, 0, 76, 0
1, 155787, Note_on_c, 0, 79, 50
1, 155787, Note_on_c, 0, 71, 67
1, 155863, Note_on_c, 0, 76, 62
1, 155929, Note_on_c, 0, 71, 0
1, 155935, Note_on_c, 0, 76, 0
1, 155940, Note_on_c, 0, 74, 65
1, 155940, Note_on_c, 0, 70, 67
1, 156011, Note_on_c, 0, 74, 0
1, 156016, Note_on_c, 0, 73, 65
1, 156082, Note_on_c, 0, 70, 0
1, 156086, Note_on_c, 0, 73, 0
1, 156092, Note_on_c, 0, 71, 67
1, 156092, Note_on_c, 0, 64, 72
1, 156162, Note_on_c, 0, 71, 0
1, 156168, Note_on_c, 0, 70, 67
1, 156233, Note_on_c, 0, 64, 0
1, 156238, Note_on_c, 0, 70, 0
1, 156243, Note_on_c, 0, 71, 67
1, 156244, Note_on_c, 0, 63, 72
1, 156286, Note_on_c, 0, 79, 0
1, 156319, Note_on_c, 0, 78, 50
1, 156384, Note_on_c, 0, 63, 0
1, 156384, Note_on_c, 0, 71, 0
1, 156390, Note_on_c, 0, 78, 0
1, 156395, Note_on_c, 0, 81, 50
1, 156396, Note_on_c, 0, 72, 67
1, 156471, Note_on_c, 0, 78, 50
1, 156537, Note_on_c, 0, 72, 0
1, 156542, Note_on_c, 0, 78, 0
1, 156548, Note_on_c, 0, 71, 67
1, 156548, Note_on_c, 0, 76, 62
1, 156621, Note_on_c, 0, 76, 0
1, 156625, Note_on_c, 0, 75, 65
1, 156692, Note_on_c, 0, 71, 0
1, 156697, Note_on_c, 0, 75, 0
1, 156703, Note_on_c, 0, 73, 65
1, 156704, Note_on_c, 0, 66, 72
1, 156772, Note_on_c, 0, 73, 0
1, 156778, Note_on_c, 0, 72, 67
1, 156842, Note_on_c, 0, 66, 0
1, 156848, Note_on_c, 0, 72, 0
1, 156853, Note_on_c, 0, 73, 65
1, 156853, Note_on_c, 0, 65, 72
1, 156895, Note_on_c, 0, 81, 0
1, 156928, Note_on_c, 0, 80, 50
1, 156993, Note_on_c, 0, 65, 0
1, 156994, Note_on_c, 0, 73, 0
1, 156998, Note_on_c, 0, 80, 0
1, 157003, Note_on_c, 0, 83, 47
1, 157003, Note_on_c, 0, 74, 65
1, 157078, Note_on_c, 0, 80, 47
1, 157143, Note_on_c, 0, 74, 0
1, 157143, Note_on_c, 0, 83, 0
1, 157153, Note_on_c, 0, 81, 47
1, 157154, Note_on_c, 0, 73, 65
1, 157219, Note_on_c, 0, 80, 0
1, 157229, Note_on_c, 0, 78, 47
1, 157295, Note_on_c, 0, 73, 0
1, 157295, Note_on_c, 0, 81, 0
1, 157305, Note_on_c, 0, 80, 47
1, 157306, Note_on_c, 0, 72, 67
1, 157370, Note_on_c, 0, 78, 0
1, 157380, Note_on_c, 0, 78, 47
1, 157446, Note_on_c, 0, 72, 0
1, 157451, Note_on_c, 0, 78, 0
1, 157456, Note_on_c, 0, 73, 65
1, 157456, Note_on_c, 0, 77, 47
1, 157526, Note_on_c, 0, 77, 0
1, 157531, Note_on_c, 0, 80, 47
1, 157596, Note_on_c, 0, 73, 0
1, 157602, Note_on_c, 0, 80, 0
1, 157607, Note_on_c, 0, 73, 65
1, 157607, Note_on_c, 0, 69, 67
1, 157659, Note_on_c, 0, 80, 0
1, 157681, Note_on_c, 0, 77, 47
1, 157749, Note_on_c, 0, 69, 0
1, 157754, Note_on_c, 0, 77, 0
1, 157759, Note_on_c, 0, 78, 47
1, 157760, Note_on_c, 0, 66, 72
1, 157822, Note_on_c, 0, 73, 0
1, 157836, Note_on_c, 0, 74, 65
1, 157902, Note_on_c, 0, 66, 0
1, 157908, Note_on_c, 0, 74, 0
1, 157913, Note_on_c, 0, 68, 67
1, 157913, Note_on_c, 0, 71, 67
1, 157974, Note_on_c, 0, 78, 0
1, 157989, Note_on_c, 0, 78, 49
1, 158060, Note_on_c, 0, 78, 0
1, 158064, Note_on_c, 0, 80, 49
1, 158135, Note_on_c, 0, 80, 0
1, 158139, Note_on_c, 0, 81, 49
1, 158209, Note_on_c, 0, 81, 0
1, 158216, Note_on_c, 0, 83, 49
1, 158284, Note_on_c, 0, 83, 0
1, 158291, Note_on_c, 0, 80, 49
1, 158360, Note_on_c, 0, 80, 0
1, 158365, Note_on_c, 0, 78, 49
1, 158434, Note_on_c, 0, 78, 0
1, 158439, Note_on_c, 0, 77, 49
1, 158477, Note_on_c, 0, 71, 0
1, 158508, Note_on_c, 0, 77, 0
1, 158514, Note_on_c, 0, 73, 67
1, 158515, Note_on_c, 0, 81, 49
1, 158546, Note_on_c, 0, 68, 0
1, 158588, Note_on_c, 0, 61, 72
1, 158657, Note_on_c, 0, 61, 0
1, 158663, Note_on_c, 0, 63, 72
1, 158733, Note_on_c, 0, 63, 0
1, 158738, Note_on_c, 0, 65, 72
1, 158808, Note_on_c, 0, 65, 0
1, 158814, Note_on_c, 0, 66, 72
1, 158884, Note_on_c, 0, 66, 0
1, 158889, Note_on_c, 0, 68, 67
1, 158959, Note_on_c, 0, 68, 0
1, 158964, Note_on_c, 0, 59, 72
1, 159034, Note_on_c, 0, 59, 0
1, 159039, Note_on_c, 0, 57, 72
1, 159109, Note_on_c, 0, 57, 0
1, 159114, Note_on_c, 0, 59, 72
1, 159147, Note_on_c, 0, 73, 0
1, 159187, Note_on_c, 0, 66, 72
1, 159256, Note_on_c, 0, 66, 0
1, 159261, Note_on_c, 0, 67, 72
1, 159329, Note_on_c, 0, 67, 0
1, 159334, Note_on_c, 0, 69, 67
1, 159403, Note_on_c, 0, 69, 0
1, 159408, Note_on_c, 0, 71, 67
1, 159478, Note_on_c, 0, 71, 0
1, 159483, Note_on_c, 0, 72, 67
1, 159552, Note_on_c, 0, 72, 0
1, 159557, Note_on_c, 0, 64, 72
1, 159626, Note_on_c, 0, 64, 0
1, 159631, Note_on_c, 0, 63, 72
1, 159701, Note_on_c, 0, 63, 0
1, 159703, Note_on_c, 0, 81, 0
1, 159706, Note_on_c, 0, 64, 72
1, 159780, Note_on_c, 0, 78, 55
1, 159850, Note_on_c, 0, 78, 0
1, 159855, Note_on_c, 0, 79, 55
1, 159924, Note_on_c, 0, 79, 0
1, 159930, Note_on_c, 0, 81, 55
1, 159998, Note_on_c, 0, 81, 0
1, 160003, Note_on_c, 0, 83, 55
1, 160073, Note_on_c, 0, 83, 0
1, 160078, Note_on_c, 0, 84, 55
1, 160148, Note_on_c, 0, 84, 0
1, 160153, Note_on_c, 0, 78, 55
1, 160223, Note_on_c, 0, 78, 0
1, 160229, Note_on_c, 0, 76, 67
1, 160231, Note_on_c, 0, 59, 0
1, 160298, Note_on_c, 0, 76, 0
1, 160303, Note_on_c, 0, 78, 55
1, 160303, Note_on_c, 0, 58, 72
1, 160325, Note_on_c, 0, 64, 0
1, 160378, Note_on_c, 0, 64, 72
1, 160443, Note_on_c, 0, 58, 0
1, 160448, Note_on_c, 0, 64, 0
1, 160452, Note_on_c, 0, 54, 72
1, 160453, Note_on_c, 0, 62, 72
1, 160524, Note_on_c, 0, 62, 0
1, 160529, Note_on_c, 0, 61, 72
1, 160595, Note_on_c, 0, 54, 0
1, 160599, Note_on_c, 0, 61, 0
1, 160604, Note_on_c, 0, 59, 72
1, 160605, Note_on_c, 0, 62, 72
1, 160644, Note_on_c, 0, 78, 0
1, 160679, Note_on_c, 0, 78, 52
1, 160742, Note_on_c, 0, 62, 0
1, 160743, Note_on_c, 0, 59, 0
1, 160747, Note_on_c, 0, 78, 0
1, 160752, Note_on_c, 0, 74, 67
1, 160752, Note_on_c, 0, 62, 72
1, 160821, Note_on_c, 0, 74, 0
1, 160826, Note_on_c, 0, 71, 67
1, 160890, Note_on_c, 0, 62, 0
1, 160895, Note_on_c, 0, 71, 0
1, 160900, Note_on_c, 0, 79, 50
1, 160901, Note_on_c, 0, 64, 72
1, 160970, Note_on_c, 0, 79, 0
1, 160975, Note_on_c, 0, 81, 50
1, 161041, Note_on_c, 0, 64, 0
1, 161046, Note_on_c, 0, 81, 0
1, 161051, Note_on_c, 0, 83, 50
1, 161052, Note_on_c, 0, 76, 67
1, 161052, Note_on_c, 0, 67, 72
1, 161122, Note_on_c, 0, 76, 0
1, 161127, Note_on_c, 0, 74, 67
1, 161192, Note_on_c, 0, 67, 0
1, 161196, Note_on_c, 0, 74, 0
1, 161202, Note_on_c, 0, 69, 67
1, 161202, Note_on_c, 0, 73, 67
1, 161273, Note_on_c, 0, 73, 0
1, 161278, Note_on_c, 0, 74, 67
1, 161336, Note_on_c, 0, 83, 0
1, 161344, Note_on_c, 0, 69, 0
1, 161350, Note_on_c, 0, 74, 0
1, 161355, Note_on_c, 0, 76, 67
1, 161356, Note_on_c, 0, 81, 50
1, 161356, Note_on_c, 0, 61, 72
1, 161426, Note_on_c, 0, 81, 0
1, 161432, Note_on_c, 0, 79, 50
1, 161498, Note_on_c, 0, 61, 0
1, 161503, Note_on_c, 0, 79, 0
1, 161508, Note_on_c, 0, 78, 50
1, 161508, Note_on_c, 0, 62, 72
1, 161579, Note_on_c, 0, 78, 0
1, 161584, Note_on_c, 0, 79, 50
1, 161641, Note_on_c, 0, 76, 0
1, 161650, Note_on_c, 0, 62, 0
1, 161656, Note_on_c, 0, 79, 0
1, 161661, Note_on_c, 0, 81, 50
1, 161661, Note_on_c, 0, 74, 67
1, 161662, Note_on_c, 0, 66, 72
1, 161732, Note_on_c, 0, 74, 0
1, 161737, Note_on_c, 0, 73, 67
1, 161804, Note_on_c, 0, 66, 0
1, 161808, Note_on_c, 0, 73, 0
1, 161814, Note_on_c, 0, 71, 67
1, 161815, Note_on_c, 0, 67, 72
1, 161885, Note_on_c, 0, 71, 0
1, 161890, Note_on_c, 0, 73, 67
1, 161948, Note_on_c, 0, 81, 0
1, 161956, Note_on_c, 0, 67, 0
1, 161962, Note_on_c, 0, 73, 0
1, 161967, Note_on_c, 0, 74, 67
1, 161967, Note_on_c, 0, 79, 50
1, 161968, Note_on_c, 0, 59, 72
1, 162037, Note_on_c, 0, 79, 0
1, 162043, Note_on_c, 0, 78, 50
1, 162109, Note_on_c, 0, 59, 0
1, 162114, Note_on_c, 0, 78, 0
1, 162120, Note_on_c, 0, 76, 67
1, 162120, Note_on_c, 0, 61, 72
1, 162192, Note_on_c, 0, 76, 0
1, 162196, Note_on_c, 0, 78, 50
1, 162253, Note_on_c, 0, 74, 0
1, 162263, Note_on_c, 0, 61, 0
1, 162267, Note_on_c, 0, 78, 0
1, 162272, Note_on_c, 0, 79, 50
1, 162273, Note_on_c, 0, 73, 67
1, 162273, Note_on_c, 0, 64, 72
1, 162343, Note_on_c, 0, 73, 0
1, 162348, Note_on_c, 0, 71, 67
1, 162414, Note_on_c, 0, 64, 0
1, 162419, Note_on_c, 0, 71, 0
1, 162424, Note_on_c, 0, 70, 67
1, 162424, Note_on_c, 0, 66, 72
1, 162495, Note_on_c, 0, 70, 0
1, 162500, Note_on_c, 0, 71, 67
1, 162555, Note_on_c, 0, 79, 0
1, 162565, Note_on_c, 0, 66, 0
1, 162570, Note_on_c, 0, 71, 0
1, 162575, Note_on_c, 0, 73, 67
1, 162575, Note_on_c, 0, 78, 50
1, 162576, Note_on_c, 0, 58, 72
1, 162645, Note_on_c, 0, 78, 0
1, 162649, Note_on_c, 0, 76, 67
1, 162715, Note_on_c, 0, 58, 0
1, 162720, Note_on_c, 0, 76, 0
1, 162725, Note_on_c, 0, 74, 67
1, 162725, Note_on_c, 0, 59, 72
1, 162793, Note_on_c, 0, 59, 0
1, 162799, Note_on_c, 0, 54, 72
1, 162868, Note_on_c, 0, 54, 0
1, 162874, Note_on_c, 0, 55, 72
1, 162944, Note_on_c, 0, 55, 0
1, 162949, Note_on_c, 0, 57, 72
1, 162996, Note_on_c, 0, 73, 0
1, 163018, Note_on_c, 0, 57, 0
1, 163024, Note_on_c, 0, 71, 67
1, 163025, Note_on_c, 0, 59, 72
1, 163077, Note_on_c, 0, 74, 0
1, 163094, Note_on_c, 0, 59, 0
1, 163099, Note_on_c, 0, 76, 65
1, 163099, Note_on_c, 0, 60, 72
1, 163165, Note_on_c, 0, 71, 0
1, 163171, Note_on_c, 0, 60, 0
1, 163171, Note_on_c, 0, 76, 0
1, 163176, Note_on_c, 0, 78, 50
1, 163176, Note_on_c, 0, 69, 67
1, 163176, Note_on_c, 0, 52, 72
1, 163246, Note_on_c, 0, 52, 0
1, 163252, Note_on_c, 0, 51, 72
1, 163318, Note_on_c, 0, 69, 0
1, 163323, Note_on_c, 0, 51, 0
1, 163329, Note_on_c, 0, 52, 72
1, 163329, Note_on_c, 0, 67, 72
1, 163400, Note_on_c, 0, 67, 0
1, 163405, Note_on_c, 0, 69, 67
1, 163462, Note_on_c, 0, 78, 0
1, 163470, Note_on_c, 0, 52, 0
1, 163476, Note_on_c, 0, 69, 0
1, 163481, Note_on_c, 0, 76, 65
1, 163482, Note_on_c, 0, 71, 67
1, 163482, Note_on_c, 0, 55, 72
1, 163552, Note_on_c, 0, 76, 0
1, 163557, Note_on_c, 0, 74, 65
1, 163621, Note_on_c, 0, 55, 0
1, 163626, Note_on_c, 0, 74, 0
1, 163631, Note_on_c, 0, 73, 67
1, 163632, Note_on_c, 0, 57, 72
1, 163700, Note_on_c, 0, 73, 0
1, 163705, Note_on_c, 0, 74, 65
1, 163762, Note_on_c, 0, 71, 0
1, 163770, Note_on_c, 0, 57, 0
1, 163775, Note_on_c, 0, 74, 0
1, 163781, Note_on_c, 0, 76, 65
1, 163781, Note_on_c, 0, 69, 67
1, 163782, Note_on_c, 0, 61, 72
1, 163851, Note_on_c, 0, 69, 0
1, 163856, Note_on_c, 0, 67, 72
1, 163923, Note_on_c, 0, 61, 0
1, 163928, Note_on_c, 0, 67, 0
1, 163932, Note_on_c, 0, 66, 72
1, 163933, Note_on_c, 0, 62, 72
1, 164004, Note_on_c, 0, 66, 0
1, 164009, Note_on_c, 0, 67, 72
1, 164066, Note_on_c, 0, 76, 0
1, 164075, Note_on_c, 0, 62, 0
1, 164079, Note_on_c, 0, 67, 0
1, 164085, Note_on_c, 0, 74, 65
1, 164086, Note_on_c, 0, 69, 67
1, 164086, Note_on_c, 0, 54, 72
1, 164155, Note_on_c, 0, 74, 0
1, 164160, Note_on_c, 0, 73, 67
1, 164224, Note_on_c, 0, 54, 0
1, 164228, Note_on_c, 0, 73, 0
1, 164234, Note_on_c, 0, 71, 67
1, 164234, Note_on_c, 0, 55, 72
1, 164304, Note_on_c, 0, 71, 0
1, 164309, Note_on_c, 0, 73, 67
1, 164365, Note_on_c, 0, 69, 0
1, 164374, Note_on_c, 0, 55, 0
1, 164379, Note_on_c, 0, 73, 0
1, 164385, Note_on_c, 0, 74, 67
1, 164385, Note_on_c, 0, 67, 72
1, 164386, Note_on_c, 0, 59, 72
1, 164456, Note_on_c, 0, 67, 0
1, 164460, Note_on_c, 0, 66, 72
1, 164528, Note_on_c, 0, 59, 0
1, 164533, Note_on_c, 0, 66, 0
1, 164538, Note_on_c, 0, 61, 72
1, 164539, Note_on_c, 0, 64, 72
1, 164610, Note_on_c, 0, 64, 0
1, 164615, Note_on_c, 0, 66, 72
1, 164673, Note_on_c, 0, 74, 0
1, 164681, Note_on_c, 0, 61, 0
1, 164686, Note_on_c, 0, 66, 0
1, 164692, Note_on_c, 0, 73, 67
1, 164692, Note_on_c, 0, 67, 72
1, 164693, Note_on_c, 0, 52, 72
1, 164762, Note_on_c, 0, 73, 0
1, 164768, Note_on_c, 0, 71, 67
1, 164833, Note_on_c, 0, 52, 0
1, 164838, Note_on_c, 0, 71, 0
1, 164844, Note_on_c, 0, 70, 67
1, 164844, Note_on_c, 0, 54, 72
1, 164914, Note_on_c, 0, 70, 0
1, 164918, Note_on_c, 0, 71, 67
1, 164975, Note_on_c, 0, 67, 0
1, 164984, Note_on_c, 0, 54, 0
1, 164988, Note_on_c, 0, 71, 0
1, 164994, Note_on_c, 0, 73, 67
1, 164994, Note_on_c, 0, 66, 72
1, 164995, Note_on_c, 0, 58, 72
1, 165063, Note_on_c, 0, 66, 0
1, 165068, Note_on_c, 0, 64, 72
1, 165133, Note_on_c, 0, 58, 0
1, 165138, Note_on_c, 0, 64, 0
1, 165144, Note_on_c, 0, 62, 72
1, 165145, Note_on_c, 0, 59, 72
1, 165204, Note_on_c, 0, 73, 0
1, 165218, Note_on_c, 0, 66, 72
1, 165282, Note_on_c, 0, 59, 0
1, 165287, Note_on_c, 0, 66, 0
1, 165293, Note_on_c, 0, 68, 67
1, 165294, Note_on_c, 0, 54, 72
1, 165362, Note_on_c, 0, 68, 0
1, 165367, Note_on_c, 0, 70, 67
1, 165422, Note_on_c, 0, 62, 0
1, 165431, Note_on_c, 0, 54, 0
1, 165436, Note_on_c, 0, 70, 0
1, 165441, Note_on_c, 0, 71, 67
1, 165442, Note_on_c, 0, 50, 72
1, 165515, Note_on_c, 0, 73, 67
1, 165580, Note_on_c, 0, 50, 0
1, 165585, Note_on_c, 0, 73, 0
1, 165591, Note_on_c, 0, 74, 67
1, 165591, Note_on_c, 0, 47, 72
1, 165660, Note_on_c, 0, 74, 0
1, 165666, Note_on_c, 0, 78, 55
1, 165730, Note_on_c, 0, 47, 0
1, 165735, Note_on_c, 0, 78, 0
1, 165741, Note_on_c, 0, 76, 67
1, 165741, Note_on_c, 0, 55, 72
1, 165811, Note_on_c, 0, 76, 0
1, 165816, Note_on_c, 0, 73, 67
1, 165864, Note_on_c, 0, 71, 0
1, 165882, Note_on_c, 0, 55, 0
1, 165886, Note_on_c, 0, 73, 0
1, 165891, Note_on_c, 0, 74, 67
1, 165892, Note_on_c, 0, 70, 67
1, 165892, Note_on_c, 0, 54, 72
1, 165962, Note_on_c, 0, 74, 0
1, 165967, Note_on_c, 0, 78, 55
1, 166033, Note_on_c, 0, 54, 0
1, 166033, Note_on_c, 0, 70, 0
1, 166038, Note_on_c, 0, 78, 0
1, 166043, Note_on_c, 0, 79, 55
1, 166044, Note_on_c, 0, 74, 67
1, 166044, Note_on_c, 0, 59, 72
1, 166114, Note_on_c, 0, 79, 0
1, 166120, Note_on_c, 0, 76, 67
1, 166186, Note_on_c, 0, 59, 0
1, 166186, Note_on_c, 0, 74, 0
1, 166191, Note_on_c, 0, 76, 0
1, 166196, Note_on_c, 0, 73, 67
1, 166196, Note_on_c, 0, 78, 55
1, 166197, Note_on_c, 0, 58, 72
1, 166268, Note_on_c, 0, 78, 0
1, 166272, Note_on_c, 0, 82, 55
1, 166339, Note_on_c, 0, 58, 0
1, 166339, Note_on_c, 0, 73, 0
1, 166344, Note_on_c, 0, 82, 0
1, 166349, Note_on_c, 0, 83, 55
1, 166350, Note_on_c, 0, 78, 55
1, 166350, Note_on_c, 0, 52, 72
1, 166420, Note_on_c, 0, 83, 0
1, 166426, Note_on_c, 0, 81, 55
1, 166492, Note_on_c, 0, 52, 0
1, 166493, Note_on_c, 0, 78, 0
1, 166497, Note_on_c, 0, 81, 0
1, 166502, Note_on_c, 0, 79, 55
1, 166502, Note_on_c, 0, 51, 72
1, 166503, Note_on_c, 0, 47, 72
1, 166574, Note_on_c, 0, 79, 0
1, 166579, Note_on_c, 0, 78, 55
1, 166645, Note_on_c, 0, 47, 0
1, 166645, Note_on_c, 0, 51, 0
1, 166650, Note_on_c, 0, 78, 0
1, 166656, Note_on_c, 0, 76, 67
1, 166656, Note_on_c, 0, 52, 72
1, 166656, Note_on_c, 0, 43, 72
1, 166726, Note_on_c, 0, 76, 0
1, 166731, Note_on_c, 0, 74, 67
1, 166797, Note_on_c, 0, 43, 0
1, 166801, Note_on_c, 0, 74, 0
1, 166807, Note_on_c, 0, 72, 67
1, 166808, Note_on_c, 0, 40, 72
1, 166877, Note_on_c, 0, 72, 0
1, 166883, Note_on_c, 0, 71, 67
1, 166947, Note_on_c, 0, 40, 0
1, 166953, Note_on_c, 0, 71, 0
1, 166958, Note_on_c, 0, 69, 67
1, 166958, Note_on_c, 0, 48, 72
1, 167028, Note_on_c, 0, 69, 0
1, 167032, Note_on_c, 0, 66, 72
1, 167098, Note_on_c, 0, 48, 0
1, 167103, Note_on_c, 0, 66, 0
1, 167109, Note_on_c, 0, 67, 72
1, 167109, Note_on_c, 0, 47, 72
1, 167180, Note_on_c, 0, 67, 0
1, 167184, Note_on_c, 0, 71, 67
1, 167224, Note_on_c, 0, 52, 0
1, 167250, Note_on_c, 0, 47, 0
1, 167255, Note_on_c, 0, 71, 0
1, 167259, Note_on_c, 0, 72, 67
1, 167260, Note_on_c, 0, 54, 72
1, 167260, Note_on_c, 0, 52, 72
1, 167328, Note_on_c, 0, 72, 0
1, 167334, Note_on_c, 0, 69, 67
1, 167399, Note_on_c, 0, 52, 0
1, 167403, Note_on_c, 0, 69, 0
1, 167408, Note_on_c, 0, 71, 67
1, 167409, Note_on_c, 0, 51, 72
1, 167484, Note_on_c, 0, 75, 67
1, 167541, Note_on_c, 0, 54, 0
1, 167549, Note_on_c, 0, 51, 0
1, 167555, Note_on_c, 0, 75, 0
1, 167560, Note_on_c, 0, 76, 67
1, 167561, Note_on_c, 0, 52, 72
1, 167561, Note_on_c, 0, 45, 72
1, 167621, Note_on_c, 0, 71, 0
1, 167636, Note_on_c, 0, 73, 67
1, 167701, Note_on_c, 0, 45, 0
1, 167706, Note_on_c, 0, 73, 0
1, 167712, Note_on_c, 0, 71, 67
1, 167712, Note_on_c, 0, 44, 72
1, 167782, Note_on_c, 0, 71, 0
1, 167786, Note_on_c, 0, 69, 67
1, 167842, Note_on_c, 0, 52, 0
1, 167843, Note_on_c, 0, 76, 0
1, 167852, Note_on_c, 0, 44, 0
1, 167856, Note_on_c, 0, 69, 0
1, 167862, Note_on_c, 0, 68, 67
1, 167862, Note_on_c, 0, 74, 67
1, 167863, Note_on_c, 0, 53, 72
1, 167936, Note_on_c, 0, 59, 72
1, 168000, Note_on_c, 0, 53, 0
1, 168005, Note_on_c, 0, 59, 0
1, 168011, Note_on_c, 0, 52, 72
1, 168011, Note_on_c, 0, 61, 72
1, 168081, Note_on_c, 0, 61, 0
1, 168087, Note_on_c, 0, 62, 72
1, 168145, Note_on_c, 0, 68, 0
1, 168145, Note_on_c, 0, 74, 0
1, 168153, Note_on_c, 0, 52, 0
1, 168158, Note_on_c, 0, 62, 0
1, 168164, Note_on_c, 0, 73, 67
1, 168165, Note_on_c, 0, 64, 72
1, 168165, Note_on_c, 0, 47, 72
1, 168244, Note_on_c, 0, 67, 72
1, 168313, Note_on_c, 0, 47, 0
1, 168324, Note_on_c, 0, 46, 72
1, 168389, Note_on_c, 0, 64, 0
1, 168393, Note_on_c, 0, 67, 0
1, 168403, Note_on_c, 0, 64, 72
1, 168404, Note_on_c, 0, 66, 72
1, 168462, Note_on_c, 0, 73, 0
1, 168470, Note_on_c, 0, 46, 0
1, 168475, Note_on_c, 0, 64, 0
1, 168481, Note_on_c, 0, 71, 67
1, 168481, Note_on_c, 0, 62, 72
1, 168482, Note_on_c, 0, 55, 72
1, 168547, Note_on_c, 0, 66, 0
1, 168552, Note_on_c, 0, 62, 0
1, 168557, Note_on_c, 0, 61, 72
1, 168557, Note_on_c, 0, 64, 72
1, 168622, Note_on_c, 0, 55, 0
1, 168628, Note_on_c, 0, 64, 0
1, 168628, Note_on_c, 0, 61, 0
1, 168633, Note_on_c, 0, 54, 72
1, 168634, Note_on_c, 0, 62, 72
1, 168634, Note_on_c, 0, 59, 72
1, 168704, Note_on_c, 0, 59, 0
1, 168704, Note_on_c, 0, 62, 0
1, 168708, Note_on_c, 0, 57, 72
1, 168709, Note_on_c, 0, 64, 72
1, 168774, Note_on_c, 0, 54, 0
1, 168779, Note_on_c, 0, 64, 0
1, 168779, Note_on_c, 0, 57, 0
1, 168784, Note_on_c, 0, 61, 72
1, 168785, Note_on_c, 0, 56, 72
1, 168785, Note_on_c, 0, 52, 72
1, 168837, Note_on_c, 0, 71, 0
1, 168859, Note_on_c, 0, 70, 67
1, 168924, Note_on_c, 0, 52, 0
1, 168925, Note_on_c, 0, 56, 0
1, 168929, Note_on_c, 0, 70, 0
1, 168934, Note_on_c, 0, 71, 67
1, 168935, Note_on_c, 0, 54, 72
1, 169003, Note_on_c, 0, 71, 0
1, 169008, Note_on_c, 0, 70, 67
1, 169064, Note_on_c, 0, 61, 0
1, 169077, Note_on_c, 0, 70, 0
1, 169082, Note_on_c, 0, 71, 67
1, 169082, Note_on_c, 0, 50, 72
1, 169142, Note_on_c, 0, 54, 0
1, 169156, Note_on_c, 0, 66, 72
1, 169156, Note_on_c, 0, 57, 72
1, 169221, Note_on_c, 0, 50, 0
1, 169226, Note_on_c, 0, 57, 0
1, 169226, Note_on_c, 0, 66, 0
1, 169232, Note_on_c, 0, 64, 72
1, 169232, Note_on_c, 0, 55, 72
1, 169233, Note_on_c, 0, 47, 72
1, 169303, Note_on_c, 0, 55, 0
1, 169303, Note_on_c, 0, 64, 0
1, 169308, Note_on_c, 0, 54, 72
1, 169308, Note_on_c, 0, 62, 72
1, 169375, Note_on_c, 0, 47, 0
1, 169380, Note_on_c, 0, 62, 0
1, 169380, Note_on_c, 0, 54, 0
1, 169384, Note_on_c, 0, 49, 72
1, 169385, Note_on_c, 0, 52, 72
1, 169385, Note_on_c, 0, 61, 72
1, 169438, Note_on_c, 0, 71, 0
1, 169461, Note_on_c, 0, 73, 67
1, 169532, Note_on_c, 0, 73, 0
1, 169538, Note_on_c, 0, 74, 67
1, 169609, Note_on_c, 0, 74, 0
1, 169615, Note_on_c, 0, 76, 67
1, 169685, Note_on_c, 0, 76, 0
1, 169691, Note_on_c, 0, 78, 55
1, 169761, Note_on_c, 0, 78, 0
1, 169767, Note_on_c, 0, 79, 55
1, 169836, Note_on_c, 0, 79, 0
1, 169842, Note_on_c, 0, 71, 67
1, 169912, Note_on_c, 0, 71, 0
1, 169918, Note_on_c, 0, 70, 67
1, 169956, Note_on_c, 0, 52, 0
1, 169957, Note_on_c, 0, 61, 0
1, 169957, Note_on_c, 0, 49, 0
1, 169988, Note_on_c, 0, 70, 0
1, 169993, Note_on_c, 0, 71, 67
1, 169994, Note_on_c, 0, 50, 72
1, 169994, Note_on_c, 0, 54, 72
1, 169994, Note_on_c, 0, 59, 72
1, 170063, Note_on_c, 0, 71, 0
1, 170069, Note_on_c, 0, 74, 67
1, 170138, Note_on_c, 0, 74, 0
1, 170144, Note_on_c, 0, 76, 67
1, 170214, Note_on_c, 0, 76, 0
1, 170219, Note_on_c, 0, 78, 55
1, 170275, Note_on_c, 0, 50, 0
1, 170276, Note_on_c, 0, 59, 0
1, 170276, Note_on_c, 0, 54, 0
1, 170289, Note_on_c, 0, 78, 0
1, 170294, Note_on_c, 0, 79, 55
1, 170364, Note_on_c, 0, 79, 0
1, 170370, Note_on_c, 0, 81, 55
1, 170438, Note_on_c, 0, 81, 0
1, 170445, Note_on_c, 0, 72, 67
1, 170445, Note_on_c, 0, 66, 72
1, 170446, Note_on_c, 0, 57, 72
1, 170446, Note_on_c, 0, 51, 72
1, 170514, Note_on_c, 0, 72, 0
1, 170520, Note_on_c, 0, 71, 67
1, 170583, Note_on_c, 0, 51, 0
1, 170584, Note_on_c, 0, 66, 0
1, 170584, Note_on_c, 0, 57, 0
1, 170589, Note_on_c, 0, 71, 0
1, 170593, Note_on_c, 0, 72, 67
1, 170594, Note_on_c, 0, 55, 72
1, 170594, Note_on_c, 0, 64, 72
1, 170595, Note_on_c, 0, 52, 72
1, 170663, Note_on_c, 0, 72, 0
1, 170667, Note_on_c, 0, 76, 67
1, 170737, Note_on_c, 0, 76, 0
1, 170742, Note_on_c, 0, 78, 55
1, 170811, Note_on_c, 0, 78, 0
1, 170816, Note_on_c, 0, 79, 55
1, 170872, Note_on_c, 0, 55, 0
1, 170872, Note_on_c, 0, 52, 0
1, 170873, Note_on_c, 0, 64, 0
1, 170885, Note_on_c, 0, 79, 0
1, 170890, Note_on_c, 0, 82, 55
1, 170960, Note_on_c, 0, 82, 0
1, 170965, Note_on_c, 0, 83, 55
1, 171033, Note_on_c, 0, 83, 0
1, 171039, Note_on_c, 0, 74, 67
1, 171039, Note_on_c, 0, 59, 72
1, 171040, Note_on_c, 0, 53, 72
1, 171108, Note_on_c, 0, 74, 0
1, 171113, Note_on_c, 0, 73, 67
1, 171177, Note_on_c, 0, 53, 0
1, 171178, Note_on_c, 0, 59, 0
1, 171183, Note_on_c, 0, 73, 0
1, 171188, Note_on_c, 0, 74, 67
1, 171188, Note_on_c, 0, 58, 72
1, 171189, Note_on_c, 0, 54, 72
1, 171255, Note_on_c, 0, 54, 0
1, 171259, Note_on_c, 0, 58, 0
1, 171264, Note_on_c, 0, 54, 72
1, 171336, Note_on_c, 0, 54, 0
1, 171341, Note_on_c, 0, 56, 72
1, 171342, Note_on_c, 0, 66, 72
1, 171415, Note_on_c, 0, 56, 0
1, 171420, Note_on_c, 0, 58, 72
1, 171488, Note_on_c, 0, 66, 0
1, 171493, Note_on_c, 0, 58, 0
1, 171498, Note_on_c, 0, 62, 72
1, 171498, Note_on_c, 0, 59, 72
1, 171570, Note_on_c, 0, 59, 0
1, 171575, Note_on_c, 0, 62, 0
1, 171575, Note_on_c, 0, 61, 72
1, 171645, Note_on_c, 0, 61, 0
1, 171649, Note_on_c, 0, 62, 72
1, 171650, Note_on_c, 0, 59, 72
1, 171713, Note_on_c, 0, 59, 0
1, 171725, Note_on_c, 0, 59, 72
1, 171765, Note_on_c, 0, 74, 0
1, 171775, Note_on_c, 0, 62, 0
1, 171801, Note_on_c, 0, 73, 67
1, 171802, Note_on_c, 0, 67, 72
1, 171867, Note_on_c, 0, 59, 0
1, 171877, Note_on_c, 0, 59, 72
1, 171943, Note_on_c, 0, 67, 0
1, 171949, Note_on_c, 0, 59, 0
1, 171954, Note_on_c, 0, 66, 72
1, 171954, Note_on_c, 0, 58, 72
1, 172026, Note_on_c, 0, 58, 0
1, 172031, Note_on_c, 0, 59, 72
1, 172097, Note_on_c, 0, 66, 0
1, 172102, Note_on_c, 0, 59, 0
1, 172107, Note_on_c, 0, 71, 67
1, 172108, Note_on_c, 0, 61, 72
1, 172178, Note_on_c, 0, 61, 0
1, 172183, Note_on_c, 0, 62, 72
1, 172249, Note_on_c, 0, 71, 0
1, 172254, Note_on_c, 0, 62, 0
1, 172260, Note_on_c, 0, 70, 67
1, 172260, Note_on_c, 0, 64, 72
1, 172330, Note_on_c, 0, 64, 0
1, 172336, Note_on_c, 0, 61, 72
1, 172401, Note_on_c, 0, 70, 0
1, 172406, Note_on_c, 0, 61, 0
1, 172412, Note_on_c, 0, 66, 72
1, 172412, Note_on_c, 0, 64, 72
1, 172488, Note_on_c, 0, 46, 72
1, 172553, Note_on_c, 0, 64, 0
1, 172558, Note_on_c, 0, 46, 0
1, 172564, Note_on_c, 0, 63, 72
1, 172564, Note_on_c, 0, 47, 72
1, 172634, Note_on_c, 0, 47, 0
1, 172640, Note_on_c, 0, 49, 72
1, 172660, Note_on_c, 0, 73, 0
1, 172697, Note_on_c, 0, 66, 0
1, 172706, Note_on_c, 0, 63, 0
1, 172711, Note_on_c, 0, 49, 0
1, 172717, Note_on_c, 0, 72, 67
1, 172718, Note_on_c, 0, 51, 72
1, 172789, Note_on_c, 0, 51, 0
1, 172789, Note_on_c, 0, 72, 0
1, 172794, Note_on_c, 0, 70, 67
1, 172795, Note_on_c, 0, 52, 72
1, 172865, Note_on_c, 0, 52, 0
1, 172865, Note_on_c, 0, 70, 0
1, 172871, Note_on_c, 0, 71, 67
1, 172872, Note_on_c, 0, 62, 72
1, 172872, Note_on_c, 0, 68, 72
1, 172872, Note_on_c, 0, 42, 72
1, 172942, Note_on_c, 0, 42, 0
1, 172947, Note_on_c, 0, 41, 72
1, 173018, Note_on_c, 0, 41, 0
1, 173024, Note_on_c, 0, 61, 72
1, 173024, Note_on_c, 0, 66, 72
1, 173025, Note_on_c, 0, 42, 72
1, 173028, Note_on_c, 0, 68, 0
1, 173028, Note_on_c, 0, 62, 0
1, 173101, Note_on_c, 0, 47, 72
1, 173179, Note_on_c, 0, 49, 72
1, 173180, Note_on_c, 0, 47, 0
1, 173180, Note_on_c, 0, 65, 72
1, 173183, Note_on_c, 0, 66, 0
1, 173258, Note_on_c, 0, 50, 72
1, 173259, Note_on_c, 0, 49, 0
1, 173335, Note_on_c, 0, 70, 67
1, 173335, Note_on_c, 0, 52, 72
1, 173336, Note_on_c, 0, 66, 72
1, 173337, Note_on_c, 0, 50, 0
1, 173339, Note_on_c, 0, 65, 0
1, 173349, Note_on_c, 0, 71, 0
1, 173412, Note_on_c, 0, 49, 72
1, 173413, Note_on_c, 0, 52, 0
1, 173489, Note_on_c, 0, 54, 72
1, 173491, Note_on_c, 0, 49, 0
1, 173569, Note_on_c, 0, 64, 72
1, 173576, Note_on_c, 0, 66, 0
1, 173651, Note_on_c, 0, 64, 0
1, 173652, Note_on_c, 0, 42, 0
1, 173653, Note_on_c, 0, 61, 0
1, 173654, Note_on_c, 0, 71, 52
1, 173654, Note_on_c, 0, 59, 57
1, 173655, Note_on_c, 0, 63, 57
1, 173655, Note_on_c, 0, 47, 58
1, 173664, Note_on_c, 0, 70, 0
1, 175609, Note_on_c, 0, 54, 0
1, 175627, Note_on_c, 0, 63, 0
1, 175627, Note_on_c, 0, 47, 0
1, 175628, Note_on_c, 0, 59, 0
1, 175628, Note_on_c, 0, 71, 0
1, 177578, Control_c, 0, 64, 0
1, 177579, Control_c, 0, 64, 0
1, 177580, Control_c, 0, 64, 0
1, 177642, Control_c, 0, 64, 0
1, 177643, Control_c, 0, 64, 0
1, 177644, Control_c, 0, 64, 0
1, 177644, End_track
0, 0, End_of_file
