0, 0, Header, 1, 13, 384
1, 0, Start_track
1, 0, Title_t, "--------"
1, 0, Text_t, "harpsichord: John Sankey\012"
1, 0, SMPTE_offset, 96, 0, 3, 0, 0
1, 0, Time_signature, 6, 2, 24, 8
1, 0, Key_signature, 0, "major"
1, 0, Tempo, 666667
1, 9216, Tempo, 600000
1, 39168, Tempo, 800000
1, 41472, Time_signature, 4, 2, 24, 8
1, 41472, Tempo, 555556
1, 118272, Time_signature, 6, 2, 24, 8
1, 118272, Tempo, 666667
1, 143616, Time_signature, 4, 2, 24, 8
1, 143616, Tempo, 600000
1, 143616, End_track
2, 0, Start_track
2, 0, Title_t, "Harpsichord"
2, 0, Program_c, 0, 6
2, 0, Control_c, 0, 7, 100
2, 0, Control_c, 0, 10, 64
2, 0, Pitch_bend_c, 0, 8192
2, 640, Note_on_c, 0, 72, 100
2, 702, Note_on_c, 0, 72, 0
2, 1600, Note_on_c, 0, 60, 100
2, 1662, Note_on_c, 0, 60, 0
2, 2496, Note_on_c, 0, 48, 100
2, 2558, Note_on_c, 0, 48, 0
2, 3950, Note_on_c, 0, 48, 100
2, 4044, Note_on_c, 0, 48, 0
2, 5134, Note_on_c, 0, 60, 100
2, 5228, Note_on_c, 0, 60, 0
2, 6030, Note_on_c, 0, 48, 100
2, 6174, Note_on_c, 0, 48, 0
2, 6926, Note_on_c, 0, 48, 100
2, 7020, Note_on_c, 0, 48, 0
2, 7550, Note_on_c, 0, 48, 100
2, 7644, Note_on_c, 0, 48, 0
2, 8191, Note_on_c, 0, 48, 100
2, 8294, Note_on_c, 0, 48, 0
2, 8871, Note_on_c, 0, 48, 100
2, 9028, Note_on_c, 0, 48, 0
2, 9276, Note_on_c, 0, 60, 100
2, 9285, Note_on_c, 0, 72, 100
2, 9860, Note_on_c, 0, 72, 0
2, 9976, Note_on_c, 0, 60, 0
2, 9984, Note_on_c, 0, 60, 100
2, 10366, Note_on_c, 0, 60, 0
2, 11137, Note_on_c, 0, 60, 100
2, 11518, Note_on_c, 0, 60, 0
2, 20160, Note_on_c, 0, 60, 100
2, 20350, Note_on_c, 0, 60, 0
2, 20544, Note_on_c, 0, 60, 100
2, 20734, Note_on_c, 0, 60, 0
2, 20736, Note_on_c, 0, 60, 100
2, 20926, Note_on_c, 0, 60, 0
2, 20988, Note_on_c, 0, 60, 100
2, 21051, Note_on_c, 0, 60, 0
2, 21108, Note_on_c, 0, 60, 100
2, 21171, Note_on_c, 0, 60, 0
2, 21228, Note_on_c, 0, 60, 100
2, 21291, Note_on_c, 0, 60, 0
2, 23040, Note_on_c, 0, 60, 100
2, 23040, Note_on_c, 0, 72, 100
2, 23743, Note_on_c, 0, 72, 0
2, 23806, Note_on_c, 0, 60, 0
2, 23808, Note_on_c, 0, 48, 100
2, 24960, Note_on_c, 0, 72, 100
2, 25150, Note_on_c, 0, 72, 0
2, 25340, Note_on_c, 0, 48, 0
2, 25344, Note_on_c, 0, 48, 100
2, 26111, Note_on_c, 0, 48, 0
2, 26784, Note_on_c, 0, 72, 100
2, 26878, Note_on_c, 0, 72, 0
2, 27648, Note_on_c, 0, 60, 100
2, 28800, Note_on_c, 0, 72, 100
2, 29178, Note_on_c, 0, 60, 0
2, 29184, Note_on_c, 0, 60, 100
2, 29750, Note_on_c, 0, 72, 0
2, 29951, Note_on_c, 0, 60, 0
2, 29952, Note_on_c, 0, 60, 100
2, 31482, Note_on_c, 0, 60, 0
2, 31872, Note_on_c, 0, 72, 100
2, 31966, Note_on_c, 0, 72, 0
2, 32632, Note_on_c, 0, 72, 100
2, 32812, Note_on_c, 0, 72, 0
2, 33024, Note_on_c, 0, 72, 100
2, 33214, Note_on_c, 0, 72, 0
2, 37392, Note_on_c, 0, 60, 100
2, 37774, Note_on_c, 0, 60, 0
2, 44160, Note_on_c, 0, 72, 100
2, 44280, Note_on_c, 0, 72, 0
2, 47232, Note_on_c, 0, 72, 100
2, 47352, Note_on_c, 0, 72, 0
2, 47808, Note_on_c, 0, 48, 100
2, 47902, Note_on_c, 0, 48, 0
2, 48000, Note_on_c, 0, 48, 100
2, 48190, Note_on_c, 0, 48, 0
2, 48576, Note_on_c, 0, 84, 100
2, 48672, Note_on_c, 0, 48, 100
2, 48696, Note_on_c, 0, 84, 0
2, 48766, Note_on_c, 0, 48, 0
2, 49536, Note_on_c, 0, 72, 100
2, 49656, Note_on_c, 0, 72, 0
2, 49728, Note_on_c, 0, 60, 100
2, 49824, Note_on_c, 0, 48, 100
2, 49848, Note_on_c, 0, 60, 0
2, 49918, Note_on_c, 0, 48, 0
2, 50112, Note_on_c, 0, 48, 100
2, 50206, Note_on_c, 0, 48, 0
2, 50496, Note_on_c, 0, 72, 100
2, 50592, Note_on_c, 0, 48, 100
2, 50686, Note_on_c, 0, 48, 0
2, 50686, Note_on_c, 0, 72, 0
2, 50880, Note_on_c, 0, 48, 100
2, 50974, Note_on_c, 0, 48, 0
2, 51264, Note_on_c, 0, 72, 100
2, 51360, Note_on_c, 0, 48, 100
2, 51454, Note_on_c, 0, 48, 0
2, 51454, Note_on_c, 0, 72, 0
2, 51648, Note_on_c, 0, 72, 100
2, 51648, Note_on_c, 0, 48, 100
2, 51742, Note_on_c, 0, 48, 0
2, 51742, Note_on_c, 0, 72, 0
2, 51840, Note_on_c, 0, 48, 100
2, 52020, Note_on_c, 0, 48, 0
2, 52032, Note_on_c, 0, 72, 100
2, 52032, Note_on_c, 0, 36, 100
2, 52152, Note_on_c, 0, 72, 0
2, 52212, Note_on_c, 0, 36, 0
2, 52608, Note_on_c, 0, 60, 100
2, 52798, Note_on_c, 0, 60, 0
2, 52896, Note_on_c, 0, 72, 100
2, 52990, Note_on_c, 0, 72, 0
2, 53184, Note_on_c, 0, 72, 100
2, 53278, Note_on_c, 0, 72, 0
2, 53664, Note_on_c, 0, 72, 100
2, 53758, Note_on_c, 0, 72, 0
2, 53952, Note_on_c, 0, 72, 100
2, 54046, Note_on_c, 0, 72, 0
2, 54432, Note_on_c, 0, 72, 100
2, 54526, Note_on_c, 0, 72, 0
2, 54912, Note_on_c, 0, 48, 100
2, 55102, Note_on_c, 0, 48, 0
2, 55968, Note_on_c, 0, 72, 100
2, 56062, Note_on_c, 0, 72, 0
2, 56448, Note_on_c, 0, 48, 100
2, 56638, Note_on_c, 0, 48, 0
2, 57024, Note_on_c, 0, 72, 100
2, 57120, Note_on_c, 0, 48, 100
2, 57214, Note_on_c, 0, 48, 0
2, 57214, Note_on_c, 0, 72, 0
2, 58176, Note_on_c, 0, 72, 100
2, 58270, Note_on_c, 0, 72, 0
2, 58752, Note_on_c, 0, 60, 100
2, 58872, Note_on_c, 0, 60, 0
2, 58944, Note_on_c, 0, 60, 100
2, 59064, Note_on_c, 0, 60, 0
2, 61056, Note_on_c, 0, 72, 100
2, 61246, Note_on_c, 0, 72, 0
2, 61824, Note_on_c, 0, 72, 100
2, 61824, Note_on_c, 0, 60, 100
2, 61944, Note_on_c, 0, 72, 0
2, 62014, Note_on_c, 0, 60, 0
2, 62016, Note_on_c, 0, 72, 100
2, 62136, Note_on_c, 0, 72, 0
2, 62400, Note_on_c, 0, 60, 100
2, 62494, Note_on_c, 0, 60, 0
2, 62592, Note_on_c, 0, 72, 100
2, 62712, Note_on_c, 0, 72, 0
2, 62784, Note_on_c, 0, 84, 100
2, 62880, Note_on_c, 0, 60, 100
2, 62974, Note_on_c, 0, 60, 0
2, 62974, Note_on_c, 0, 84, 0
2, 62976, Note_on_c, 0, 72, 100
2, 63166, Note_on_c, 0, 72, 0
2, 63360, Note_on_c, 0, 60, 100
2, 63550, Note_on_c, 0, 60, 0
2, 63552, Note_on_c, 0, 60, 100
2, 63552, Note_on_c, 0, 48, 100
2, 63648, Note_on_c, 0, 72, 100
2, 63742, Note_on_c, 0, 72, 0
2, 63742, Note_on_c, 0, 48, 0
2, 63742, Note_on_c, 0, 60, 0
2, 63936, Note_on_c, 0, 72, 100
2, 64030, Note_on_c, 0, 72, 0
2, 64128, Note_on_c, 0, 72, 100
2, 64318, Note_on_c, 0, 72, 0
2, 64320, Note_on_c, 0, 60, 100
2, 64510, Note_on_c, 0, 60, 0
2, 64704, Note_on_c, 0, 60, 100
2, 64894, Note_on_c, 0, 60, 0
2, 64896, Note_on_c, 0, 60, 100
2, 65236, Note_on_c, 0, 60, 0
2, 65280, Note_on_c, 0, 72, 100
2, 65952, Note_on_c, 0, 60, 100
2, 66046, Note_on_c, 0, 60, 0
2, 66240, Note_on_c, 0, 60, 100
2, 66360, Note_on_c, 0, 60, 0
2, 66432, Note_on_c, 0, 60, 100
2, 66552, Note_on_c, 0, 60, 0
2, 66624, Note_on_c, 0, 60, 100
2, 66720, Note_on_c, 0, 48, 100
2, 66744, Note_on_c, 0, 60, 0
2, 66810, Note_on_c, 0, 72, 0
2, 66814, Note_on_c, 0, 48, 0
2, 66816, Note_on_c, 0, 60, 100
2, 67006, Note_on_c, 0, 60, 0
2, 67104, Note_on_c, 0, 72, 100
2, 67198, Note_on_c, 0, 72, 0
2, 67200, Note_on_c, 0, 60, 100
2, 67390, Note_on_c, 0, 60, 0
2, 67392, Note_on_c, 0, 48, 100
2, 67582, Note_on_c, 0, 48, 0
2, 67776, Note_on_c, 0, 72, 100
2, 67966, Note_on_c, 0, 72, 0
2, 68352, Note_on_c, 0, 72, 100
2, 69024, Note_on_c, 0, 60, 100
2, 69118, Note_on_c, 0, 60, 0
2, 69312, Note_on_c, 0, 60, 100
2, 69502, Note_on_c, 0, 60, 0
2, 69504, Note_on_c, 0, 60, 100
2, 69694, Note_on_c, 0, 60, 0
2, 69696, Note_on_c, 0, 60, 100
2, 69792, Note_on_c, 0, 48, 100
2, 69882, Note_on_c, 0, 72, 0
2, 69886, Note_on_c, 0, 48, 0
2, 69886, Note_on_c, 0, 60, 0
2, 69888, Note_on_c, 0, 60, 100
2, 70078, Note_on_c, 0, 60, 0
2, 70176, Note_on_c, 0, 72, 100
2, 70270, Note_on_c, 0, 72, 0
2, 70272, Note_on_c, 0, 60, 100
2, 70462, Note_on_c, 0, 60, 0
2, 70464, Note_on_c, 0, 48, 100
2, 70654, Note_on_c, 0, 48, 0
2, 70656, Note_on_c, 0, 60, 100
2, 70846, Note_on_c, 0, 60, 0
2, 71328, Note_on_c, 0, 60, 100
2, 71422, Note_on_c, 0, 60, 0
2, 71712, Note_on_c, 0, 60, 100
2, 71806, Note_on_c, 0, 60, 0
2, 73152, Note_on_c, 0, 72, 100
2, 73246, Note_on_c, 0, 72, 0
2, 73344, Note_on_c, 0, 72, 100
2, 73534, Note_on_c, 0, 72, 0
2, 73536, Note_on_c, 0, 72, 100
2, 73630, Note_on_c, 0, 72, 0
2, 74112, Note_on_c, 0, 72, 100
2, 74302, Note_on_c, 0, 72, 0
2, 76224, Note_on_c, 0, 48, 100
2, 76414, Note_on_c, 0, 48, 0
2, 76416, Note_on_c, 0, 72, 100
2, 76606, Note_on_c, 0, 72, 0
2, 76608, Note_on_c, 0, 72, 100
2, 76798, Note_on_c, 0, 72, 0
2, 77376, Note_on_c, 0, 60, 100
2, 77470, Note_on_c, 0, 60, 0
2, 77952, Note_on_c, 0, 72, 100
2, 78142, Note_on_c, 0, 72, 0
2, 78720, Note_on_c, 0, 72, 100
2, 78910, Note_on_c, 0, 72, 0
2, 79680, Note_on_c, 0, 60, 100
2, 79774, Note_on_c, 0, 60, 0
2, 80448, Note_on_c, 0, 60, 100
2, 80542, Note_on_c, 0, 60, 0
2, 81024, Note_on_c, 0, 72, 100
2, 81214, Note_on_c, 0, 72, 0
2, 81792, Note_on_c, 0, 72, 100
2, 81982, Note_on_c, 0, 72, 0
2, 82752, Note_on_c, 0, 60, 100
2, 82942, Note_on_c, 0, 60, 0
2, 84000, Note_on_c, 0, 48, 100
2, 84094, Note_on_c, 0, 48, 0
2, 84288, Note_on_c, 0, 48, 100
2, 84382, Note_on_c, 0, 48, 0
2, 84768, Note_on_c, 0, 48, 100
2, 84862, Note_on_c, 0, 48, 0
2, 85056, Note_on_c, 0, 48, 100
2, 85150, Note_on_c, 0, 48, 0
2, 85248, Note_on_c, 0, 60, 100
2, 85378, Note_on_c, 0, 60, 0
2, 85440, Note_on_c, 0, 72, 100
2, 85536, Note_on_c, 0, 48, 100
2, 85630, Note_on_c, 0, 48, 0
2, 85630, Note_on_c, 0, 72, 0
2, 86592, Note_on_c, 0, 60, 100
2, 86782, Note_on_c, 0, 60, 0
2, 87072, Note_on_c, 0, 72, 100
2, 87166, Note_on_c, 0, 72, 0
2, 87360, Note_on_c, 0, 72, 100
2, 87454, Note_on_c, 0, 72, 0
2, 87840, Note_on_c, 0, 72, 100
2, 87934, Note_on_c, 0, 72, 0
2, 88128, Note_on_c, 0, 72, 100
2, 88222, Note_on_c, 0, 72, 0
2, 88512, Note_on_c, 0, 72, 100
2, 88512, Note_on_c, 0, 60, 100
2, 88606, Note_on_c, 0, 72, 0
2, 88702, Note_on_c, 0, 60, 0
2, 88896, Note_on_c, 0, 60, 100
2, 89086, Note_on_c, 0, 60, 0
2, 90072, Note_on_c, 0, 72, 100
2, 90192, Note_on_c, 0, 72, 0
2, 91056, Note_on_c, 0, 72, 100
2, 91056, Note_on_c, 0, 60, 100
2, 91236, Note_on_c, 0, 72, 0
2, 91246, Note_on_c, 0, 60, 0
2, 91344, Note_on_c, 0, 72, 100
2, 91438, Note_on_c, 0, 72, 0
2, 91440, Note_on_c, 0, 72, 100
2, 91560, Note_on_c, 0, 72, 0
2, 91632, Note_on_c, 0, 72, 100
2, 91752, Note_on_c, 0, 72, 0
2, 93936, Note_on_c, 0, 72, 100
2, 94126, Note_on_c, 0, 72, 0
2, 95688, Note_on_c, 0, 60, 100
2, 95878, Note_on_c, 0, 60, 0
2, 95880, Note_on_c, 0, 60, 100
2, 96000, Note_on_c, 0, 60, 0
2, 98952, Note_on_c, 0, 60, 100
2, 99142, Note_on_c, 0, 60, 0
2, 100200, Note_on_c, 0, 60, 100
2, 100294, Note_on_c, 0, 60, 0
2, 100488, Note_on_c, 0, 72, 100
2, 100584, Note_on_c, 0, 48, 100
2, 100678, Note_on_c, 0, 48, 0
2, 100678, Note_on_c, 0, 72, 0
2, 100872, Note_on_c, 0, 48, 100
2, 100966, Note_on_c, 0, 48, 0
2, 101064, Note_on_c, 0, 48, 100
2, 101254, Note_on_c, 0, 48, 0
2, 101256, Note_on_c, 0, 60, 100
2, 101636, Note_on_c, 0, 60, 0
2, 101832, Note_on_c, 0, 60, 100
2, 102022, Note_on_c, 0, 60, 0
2, 102600, Note_on_c, 0, 48, 100
2, 102790, Note_on_c, 0, 48, 0
2, 102888, Note_on_c, 0, 72, 100
2, 102982, Note_on_c, 0, 72, 0
2, 103176, Note_on_c, 0, 48, 100
2, 103176, Note_on_c, 0, 72, 100
2, 103270, Note_on_c, 0, 72, 0
2, 103366, Note_on_c, 0, 48, 0
2, 103656, Note_on_c, 0, 72, 100
2, 103750, Note_on_c, 0, 72, 0
2, 103944, Note_on_c, 0, 72, 100
2, 104038, Note_on_c, 0, 72, 0
2, 104424, Note_on_c, 0, 72, 100
2, 104518, Note_on_c, 0, 72, 0
2, 104712, Note_on_c, 0, 72, 100
2, 104806, Note_on_c, 0, 72, 0
2, 105672, Note_on_c, 0, 72, 100
2, 105862, Note_on_c, 0, 72, 0
2, 105864, Note_on_c, 0, 72, 100
2, 106054, Note_on_c, 0, 72, 0
2, 106464, Note_on_c, 0, 60, 100
2, 106584, Note_on_c, 0, 60, 0
2, 106656, Note_on_c, 0, 60, 100
2, 106776, Note_on_c, 0, 60, 0
2, 108768, Note_on_c, 0, 72, 100
2, 108958, Note_on_c, 0, 72, 0
2, 109536, Note_on_c, 0, 72, 100
2, 109726, Note_on_c, 0, 72, 0
2, 109728, Note_on_c, 0, 60, 100
2, 109918, Note_on_c, 0, 60, 0
2, 110496, Note_on_c, 0, 72, 100
2, 110496, Note_on_c, 0, 60, 100
2, 110686, Note_on_c, 0, 60, 0
2, 110686, Note_on_c, 0, 72, 0
2, 111264, Note_on_c, 0, 72, 100
2, 111264, Note_on_c, 0, 60, 100
2, 111454, Note_on_c, 0, 60, 0
2, 111454, Note_on_c, 0, 72, 0
2, 111648, Note_on_c, 0, 72, 100
2, 111648, Note_on_c, 0, 60, 100
2, 111838, Note_on_c, 0, 60, 0
2, 111838, Note_on_c, 0, 72, 0
2, 111840, Note_on_c, 0, 72, 100
2, 112030, Note_on_c, 0, 72, 0
2, 112512, Note_on_c, 0, 72, 100
2, 112606, Note_on_c, 0, 72, 0
2, 112800, Note_on_c, 0, 72, 100
2, 112894, Note_on_c, 0, 72, 0
2, 113376, Note_on_c, 0, 72, 100
2, 113566, Note_on_c, 0, 72, 0
2, 114144, Note_on_c, 0, 72, 100
2, 114334, Note_on_c, 0, 72, 0
2, 115104, Note_on_c, 0, 72, 100
2, 115198, Note_on_c, 0, 72, 0
2, 115872, Note_on_c, 0, 60, 100
2, 115966, Note_on_c, 0, 60, 0
2, 116448, Note_on_c, 0, 60, 100
2, 116638, Note_on_c, 0, 60, 0
2, 117216, Note_on_c, 0, 60, 100
2, 117406, Note_on_c, 0, 60, 0
2, 117408, Note_on_c, 0, 60, 100
2, 117598, Note_on_c, 0, 60, 0
2, 118200, Note_on_c, 0, 60, 100
2, 118314, Note_on_c, 0, 60, 0
2, 118496, Note_on_c, 0, 60, 100
2, 118878, Note_on_c, 0, 60, 0
2, 119840, Note_on_c, 0, 60, 100
2, 120030, Note_on_c, 0, 60, 0
2, 120032, Note_on_c, 0, 60, 100
2, 120318, Note_on_c, 0, 60, 0
2, 120512, Note_on_c, 0, 60, 100
2, 120606, Note_on_c, 0, 60, 0
2, 121156, Note_on_c, 0, 72, 100
2, 121250, Note_on_c, 0, 72, 0
2, 121340, Note_on_c, 0, 72, 100
2, 121434, Note_on_c, 0, 72, 0
2, 121524, Note_on_c, 0, 72, 100
2, 121618, Note_on_c, 0, 72, 0
2, 123152, Note_on_c, 0, 60, 100
2, 123152, Note_on_c, 0, 48, 100
2, 123919, Note_on_c, 0, 48, 0
2, 123919, Note_on_c, 0, 60, 0
2, 124304, Note_on_c, 0, 60, 100
2, 124304, Note_on_c, 0, 48, 100
2, 124832, Note_on_c, 0, 72, 100
2, 124878, Note_on_c, 0, 72, 0
2, 124928, Note_on_c, 0, 72, 100
2, 124974, Note_on_c, 0, 72, 0
2, 125070, Note_on_c, 0, 48, 0
2, 125070, Note_on_c, 0, 60, 0
2, 125072, Note_on_c, 0, 72, 100
2, 125072, Note_on_c, 0, 48, 100
2, 125262, Note_on_c, 0, 72, 0
2, 125454, Note_on_c, 0, 48, 0
2, 125456, Note_on_c, 0, 48, 100
2, 126222, Note_on_c, 0, 48, 0
2, 126992, Note_on_c, 0, 48, 100
2, 127376, Note_on_c, 0, 72, 100
2, 127566, Note_on_c, 0, 72, 0
2, 127568, Note_on_c, 0, 72, 100
2, 127758, Note_on_c, 0, 72, 0
2, 127758, Note_on_c, 0, 48, 0
2, 127760, Note_on_c, 0, 72, 100
2, 128527, Note_on_c, 0, 72, 0
2, 130064, Note_on_c, 0, 48, 100
2, 130831, Note_on_c, 0, 48, 0
2, 131216, Note_on_c, 0, 72, 100
2, 131406, Note_on_c, 0, 72, 0
2, 133712, Note_on_c, 0, 72, 100
2, 133806, Note_on_c, 0, 72, 0
2, 133904, Note_on_c, 0, 60, 100
2, 134671, Note_on_c, 0, 60, 0
2, 134672, Note_on_c, 0, 60, 100
2, 135439, Note_on_c, 0, 60, 0
2, 135440, Note_on_c, 0, 72, 100
2, 135630, Note_on_c, 0, 72, 0
2, 135632, Note_on_c, 0, 72, 100
2, 135726, Note_on_c, 0, 72, 0
2, 136016, Note_on_c, 0, 72, 100
2, 136206, Note_on_c, 0, 72, 0
2, 136976, Note_on_c, 0, 84, 100
2, 137166, Note_on_c, 0, 84, 0
2, 137744, Note_on_c, 0, 72, 100
2, 137934, Note_on_c, 0, 72, 0
2, 138128, Note_on_c, 0, 72, 100
2, 138222, Note_on_c, 0, 72, 0
2, 138512, Note_on_c, 0, 60, 100
2, 139279, Note_on_c, 0, 60, 0
2, 139568, Note_on_c, 0, 60, 100
2, 139662, Note_on_c, 0, 60, 0
2, 139760, Note_on_c, 0, 60, 100
2, 139854, Note_on_c, 0, 60, 0
2, 140336, Note_on_c, 0, 48, 100
2, 140430, Note_on_c, 0, 48, 0
2, 140528, Note_on_c, 0, 48, 100
2, 140622, Note_on_c, 0, 48, 0
2, 141200, Note_on_c, 0, 60, 100
2, 141580, Note_on_c, 0, 60, 0
2, 144768, Note_on_c, 0, 60, 100
2, 145022, Note_on_c, 0, 60, 0
2, 145032, Note_on_c, 0, 60, 100
2, 145142, Note_on_c, 0, 60, 0
2, 151296, Note_on_c, 0, 60, 100
2, 151414, Note_on_c, 0, 60, 0
2, 151557, Note_on_c, 0, 60, 100
2, 151675, Note_on_c, 0, 60, 0
2, 156416, Note_on_c, 0, 60, 100
2, 156534, Note_on_c, 0, 60, 0
2, 157056, Note_on_c, 0, 48, 100
2, 157310, Note_on_c, 0, 48, 0
2, 157312, Note_on_c, 0, 48, 100
2, 157430, Note_on_c, 0, 48, 0
2, 157440, Note_on_c, 0, 60, 100
2, 157694, Note_on_c, 0, 60, 0
2, 157696, Note_on_c, 0, 60, 100
2, 157814, Note_on_c, 0, 60, 0
2, 158976, Note_on_c, 0, 60, 100
2, 159230, Note_on_c, 0, 60, 0
2, 159232, Note_on_c, 0, 60, 100
2, 159350, Note_on_c, 0, 60, 0
2, 159360, Note_on_c, 0, 60, 100
2, 159614, Note_on_c, 0, 60, 0
2, 159616, Note_on_c, 0, 60, 100
2, 159734, Note_on_c, 0, 60, 0
2, 160000, Note_on_c, 0, 60, 100
2, 160118, Note_on_c, 0, 60, 0
2, 160256, Note_on_c, 0, 60, 100
2, 160374, Note_on_c, 0, 60, 0
2, 160768, Note_on_c, 0, 60, 100
2, 160886, Note_on_c, 0, 60, 0
2, 161024, Note_on_c, 0, 60, 100
2, 161142, Note_on_c, 0, 60, 0
2, 161536, Note_on_c, 0, 60, 100
2, 161654, Note_on_c, 0, 60, 0
2, 161792, Note_on_c, 0, 60, 100
2, 161910, Note_on_c, 0, 60, 0
2, 163584, Note_on_c, 0, 48, 100
2, 163584, Note_on_c, 0, 72, 100
2, 163702, Note_on_c, 0, 48, 0
2, 163838, Note_on_c, 0, 72, 0
2, 163840, Note_on_c, 0, 48, 100
2, 163840, Note_on_c, 0, 72, 100
2, 163958, Note_on_c, 0, 72, 0
2, 163958, Note_on_c, 0, 48, 0
2, 168704, Note_on_c, 0, 72, 100
2, 168822, Note_on_c, 0, 72, 0
2, 168960, Note_on_c, 0, 60, 100
2, 169214, Note_on_c, 0, 60, 0
2, 169216, Note_on_c, 0, 60, 100
2, 169334, Note_on_c, 0, 60, 0
2, 169344, Note_on_c, 0, 48, 100
2, 169344, Note_on_c, 0, 72, 100
2, 169598, Note_on_c, 0, 72, 0
2, 169598, Note_on_c, 0, 48, 0
2, 169600, Note_on_c, 0, 60, 100
2, 169600, Note_on_c, 0, 72, 100
2, 169718, Note_on_c, 0, 72, 0
2, 169718, Note_on_c, 0, 60, 0
2, 170880, Note_on_c, 0, 60, 100
2, 171134, Note_on_c, 0, 60, 0
2, 172288, Note_on_c, 0, 72, 100
2, 172406, Note_on_c, 0, 72, 0
2, 172544, Note_on_c, 0, 72, 100
2, 172662, Note_on_c, 0, 72, 0
2, 173056, Note_on_c, 0, 72, 100
2, 173174, Note_on_c, 0, 72, 0
2, 173312, Note_on_c, 0, 72, 100
2, 173430, Note_on_c, 0, 72, 0
2, 173824, Note_on_c, 0, 72, 100
2, 173942, Note_on_c, 0, 72, 0
2, 174080, Note_on_c, 0, 72, 100
2, 174198, Note_on_c, 0, 72, 0
2, 175488, Note_on_c, 0, 72, 100
2, 175606, Note_on_c, 0, 72, 0
2, 175744, Note_on_c, 0, 72, 100
2, 175862, Note_on_c, 0, 72, 0
2, 176000, Note_on_c, 0, 72, 100
2, 176118, Note_on_c, 0, 72, 0
2, 176384, Note_on_c, 0, 72, 100
2, 176502, Note_on_c, 0, 72, 0
2, 181376, Note_on_c, 0, 72, 100
2, 181494, Note_on_c, 0, 72, 0
2, 181888, Note_on_c, 0, 72, 100
2, 182006, Note_on_c, 0, 72, 0
2, 182528, Note_on_c, 0, 72, 100
2, 182646, Note_on_c, 0, 72, 0
2, 183552, Note_on_c, 0, 60, 100
2, 183806, Note_on_c, 0, 60, 0
2, 183808, Note_on_c, 0, 60, 100
2, 183926, Note_on_c, 0, 60, 0
2, 183936, Note_on_c, 0, 72, 100
2, 184190, Note_on_c, 0, 72, 0
2, 184192, Note_on_c, 0, 72, 100
2, 184310, Note_on_c, 0, 72, 0
2, 185088, Note_on_c, 0, 48, 100
2, 185206, Note_on_c, 0, 48, 0
2, 185344, Note_on_c, 0, 48, 100
2, 185462, Note_on_c, 0, 48, 0
2, 185472, Note_on_c, 0, 60, 100
2, 185590, Note_on_c, 0, 60, 0
2, 185600, Note_on_c, 0, 48, 100
2, 185718, Note_on_c, 0, 48, 0
2, 185728, Note_on_c, 0, 60, 100
2, 185846, Note_on_c, 0, 60, 0
2, 186112, Note_on_c, 0, 60, 100
2, 186230, Note_on_c, 0, 60, 0
2, 186496, Note_on_c, 0, 60, 100
2, 186614, Note_on_c, 0, 60, 0
2, 186880, Note_on_c, 0, 60, 100
2, 186998, Note_on_c, 0, 60, 0
2, 187264, Note_on_c, 0, 60, 100
2, 187382, Note_on_c, 0, 60, 0
2, 187648, Note_on_c, 0, 60, 100
2, 187766, Note_on_c, 0, 60, 0
2, 188032, Note_on_c, 0, 60, 100
2, 188150, Note_on_c, 0, 60, 0
2, 188416, Note_on_c, 0, 60, 100
2, 188534, Note_on_c, 0, 60, 0
2, 188800, Note_on_c, 0, 60, 100
2, 188918, Note_on_c, 0, 60, 0
2, 189184, Note_on_c, 0, 60, 100
2, 189302, Note_on_c, 0, 60, 0
2, 190080, Note_on_c, 0, 72, 100
2, 190198, Note_on_c, 0, 72, 0
2, 190464, Note_on_c, 0, 72, 100
2, 190582, Note_on_c, 0, 72, 0
2, 190848, Note_on_c, 0, 48, 100
2, 191102, Note_on_c, 0, 48, 0
2, 191104, Note_on_c, 0, 48, 100
2, 191232, Note_on_c, 0, 48, 0
2, 192384, Note_on_c, 0, 60, 100
2, 192502, Note_on_c, 0, 60, 0
2, 192640, Note_on_c, 0, 60, 100
2, 192758, Note_on_c, 0, 60, 0
2, 192896, Note_on_c, 0, 60, 100
2, 193014, Note_on_c, 0, 60, 0
2, 193280, Note_on_c, 0, 60, 100
2, 193398, Note_on_c, 0, 60, 0
2, 197888, Note_on_c, 0, 72, 100
2, 198006, Note_on_c, 0, 72, 0
2, 198528, Note_on_c, 0, 48, 100
2, 198782, Note_on_c, 0, 48, 0
2, 198784, Note_on_c, 0, 48, 100
2, 198902, Note_on_c, 0, 48, 0
2, 198912, Note_on_c, 0, 72, 100
2, 199166, Note_on_c, 0, 72, 0
2, 199168, Note_on_c, 0, 72, 100
2, 199286, Note_on_c, 0, 72, 0
2, 200064, Note_on_c, 0, 72, 100
2, 200318, Note_on_c, 0, 72, 0
2, 200320, Note_on_c, 0, 72, 100
2, 200438, Note_on_c, 0, 72, 0
2, 200448, Note_on_c, 0, 72, 100
2, 200702, Note_on_c, 0, 72, 0
2, 200704, Note_on_c, 0, 72, 100
2, 200822, Note_on_c, 0, 72, 0
2, 200832, Note_on_c, 0, 72, 100
2, 201086, Note_on_c, 0, 72, 0
2, 201472, Note_on_c, 0, 72, 100
2, 201590, Note_on_c, 0, 72, 0
2, 201728, Note_on_c, 0, 72, 100
2, 201846, Note_on_c, 0, 72, 0
2, 202240, Note_on_c, 0, 72, 100
2, 202358, Note_on_c, 0, 72, 0
2, 202496, Note_on_c, 0, 72, 100
2, 202614, Note_on_c, 0, 72, 0
2, 203008, Note_on_c, 0, 72, 100
2, 203126, Note_on_c, 0, 72, 0
2, 203264, Note_on_c, 0, 72, 100
2, 203382, Note_on_c, 0, 72, 0
2, 204160, Note_on_c, 0, 48, 100
2, 204278, Note_on_c, 0, 48, 0
2, 206208, Note_on_c, 0, 60, 100
2, 206326, Note_on_c, 0, 60, 0
2, 207104, Note_on_c, 0, 60, 100
2, 207222, Note_on_c, 0, 60, 0
2, 207744, Note_on_c, 0, 60, 100
2, 207744, Note_on_c, 0, 72, 100
2, 207862, Note_on_c, 0, 72, 0
2, 207998, Note_on_c, 0, 60, 0
2, 208000, Note_on_c, 0, 48, 100
2, 208000, Note_on_c, 0, 72, 100
2, 208118, Note_on_c, 0, 72, 0
2, 208118, Note_on_c, 0, 48, 0
2, 208256, Note_on_c, 0, 72, 100
2, 208374, Note_on_c, 0, 72, 0
2, 208640, Note_on_c, 0, 72, 100
2, 208758, Note_on_c, 0, 72, 0
2, 215040, Note_on_c, 0, 48, 100
2, 215158, Note_on_c, 0, 48, 0
2, 215296, Note_on_c, 0, 48, 100
2, 215414, Note_on_c, 0, 48, 0
2, 215552, Note_on_c, 0, 48, 100
2, 215670, Note_on_c, 0, 48, 0
2, 220544, Note_on_c, 0, 60, 100
2, 220662, Note_on_c, 0, 60, 0
2, 220800, Note_on_c, 0, 60, 100
2, 220918, Note_on_c, 0, 60, 0
2, 221568, Note_on_c, 0, 72, 100
2, 221822, Note_on_c, 0, 72, 0
2, 221824, Note_on_c, 0, 72, 100
2, 221942, Note_on_c, 0, 72, 0
2, 221952, Note_on_c, 0, 60, 100
2, 222527, Note_on_c, 0, 60, 0
2, 223488, Note_on_c, 0, 72, 100
2, 224063, Note_on_c, 0, 72, 0
2, 224128, Note_on_c, 0, 60, 100
2, 224246, Note_on_c, 0, 60, 0
2, 224512, Note_on_c, 0, 60, 100
2, 224630, Note_on_c, 0, 60, 0
2, 224768, Note_on_c, 0, 60, 100
2, 224886, Note_on_c, 0, 60, 0
2, 224896, Note_on_c, 0, 60, 100
2, 225014, Note_on_c, 0, 60, 0
2, 225280, Note_on_c, 0, 60, 100
2, 225398, Note_on_c, 0, 60, 0
2, 225536, Note_on_c, 0, 60, 100
2, 225654, Note_on_c, 0, 60, 0
2, 225664, Note_on_c, 0, 60, 100
2, 225782, Note_on_c, 0, 60, 0
2, 226048, Note_on_c, 0, 60, 100
2, 226166, Note_on_c, 0, 60, 0
2, 226304, Note_on_c, 0, 60, 100
2, 226422, Note_on_c, 0, 60, 0
2, 226432, Note_on_c, 0, 60, 100
2, 226550, Note_on_c, 0, 60, 0
2, 227328, Note_on_c, 0, 60, 100
2, 227582, Note_on_c, 0, 60, 0
2, 227584, Note_on_c, 0, 60, 100
2, 227702, Note_on_c, 0, 60, 0
2, 228864, Note_on_c, 0, 48, 100
2, 228864, Note_on_c, 0, 72, 100
2, 228982, Note_on_c, 0, 72, 0
2, 229120, Note_on_c, 0, 72, 100
2, 229238, Note_on_c, 0, 72, 0
2, 229244, Note_on_c, 0, 48, 0
2, 229248, Note_on_c, 0, 60, 100
2, 229366, Note_on_c, 0, 60, 0
2, 229376, Note_on_c, 0, 72, 100
2, 229494, Note_on_c, 0, 72, 0
2, 229504, Note_on_c, 0, 60, 100
2, 229622, Note_on_c, 0, 60, 0
2, 229760, Note_on_c, 0, 72, 100
2, 229878, Note_on_c, 0, 72, 0
2, 230400, Note_on_c, 0, 60, 100
2, 230654, Note_on_c, 0, 60, 0
2, 230784, Note_on_c, 0, 60, 100
2, 231038, Note_on_c, 0, 60, 0
2, 231168, Note_on_c, 0, 60, 100
2, 231286, Note_on_c, 0, 60, 0
2, 231552, Note_on_c, 0, 72, 100
2, 231806, Note_on_c, 0, 72, 0
2, 231936, Note_on_c, 0, 72, 100
2, 232054, Note_on_c, 0, 72, 0
2, 232320, Note_on_c, 0, 60, 100
2, 232574, Note_on_c, 0, 60, 0
2, 232704, Note_on_c, 0, 60, 100
2, 232953, Note_on_c, 0, 60, 0
2, 232960, Note_on_c, 0, 48, 100
2, 232960, Note_on_c, 0, 60, 100
2, 233087, Note_on_c, 0, 60, 0
2, 233088, Note_on_c, 0, 48, 0
2, 233088, Note_on_c, 0, 72, 100
2, 233206, Note_on_c, 0, 72, 0
2, 233344, Note_on_c, 0, 48, 100
2, 233344, Note_on_c, 0, 72, 100
2, 233462, Note_on_c, 0, 72, 0
2, 233462, Note_on_c, 0, 48, 0
2, 233600, Note_on_c, 0, 72, 100
2, 233718, Note_on_c, 0, 72, 0
2, 233984, Note_on_c, 0, 72, 100
2, 234102, Note_on_c, 0, 72, 0
2, 234240, Note_on_c, 0, 60, 100
2, 234624, Note_on_c, 0, 48, 100
2, 234815, Note_on_c, 0, 60, 0
2, 234878, Note_on_c, 0, 48, 0
2, 234880, Note_on_c, 0, 48, 100
2, 234998, Note_on_c, 0, 48, 0
2, 235264, Note_on_c, 0, 72, 100
2, 235382, Note_on_c, 0, 72, 0
2, 236544, Note_on_c, 0, 72, 100
2, 236664, Note_on_c, 0, 72, 0
2, 236672, Note_on_c, 0, 72, 100
2, 236790, Note_on_c, 0, 72, 0
2, 237312, Note_on_c, 0, 72, 100
2, 237440, Note_on_c, 0, 60, 100
2, 237558, Note_on_c, 0, 60, 0
2, 237566, Note_on_c, 0, 72, 0
2, 237696, Note_on_c, 0, 72, 100
2, 237950, Note_on_c, 0, 72, 0
2, 238208, Note_on_c, 0, 72, 100
2, 238326, Note_on_c, 0, 72, 0
2, 238336, Note_on_c, 0, 72, 100
2, 238454, Note_on_c, 0, 72, 0
2, 238464, Note_on_c, 0, 72, 100
2, 238718, Note_on_c, 0, 72, 0
2, 238848, Note_on_c, 0, 72, 100
2, 239102, Note_on_c, 0, 72, 0
2, 239104, Note_on_c, 0, 72, 100
2, 239222, Note_on_c, 0, 72, 0
2, 239232, Note_on_c, 0, 72, 100
2, 239486, Note_on_c, 0, 72, 0
2, 239616, Note_on_c, 0, 48, 100
2, 239616, Note_on_c, 0, 72, 100
2, 239866, Note_on_c, 0, 48, 0
2, 239870, Note_on_c, 0, 72, 0
2, 239872, Note_on_c, 0, 48, 100
2, 239990, Note_on_c, 0, 48, 0
2, 240000, Note_on_c, 0, 72, 100
2, 240118, Note_on_c, 0, 72, 0
2, 240256, Note_on_c, 0, 72, 100
2, 240374, Note_on_c, 0, 72, 0
2, 240896, Note_on_c, 0, 72, 100
2, 241014, Note_on_c, 0, 72, 0
2, 241152, Note_on_c, 0, 60, 100
2, 241270, Note_on_c, 0, 60, 0
2, 241408, Note_on_c, 0, 60, 100
2, 241526, Note_on_c, 0, 60, 0
2, 241536, Note_on_c, 0, 48, 100
2, 241664, Note_on_c, 0, 60, 100
2, 241782, Note_on_c, 0, 60, 0
2, 241786, Note_on_c, 0, 48, 0
2, 241792, Note_on_c, 0, 48, 100
2, 241910, Note_on_c, 0, 48, 0
2, 242048, Note_on_c, 0, 60, 100
2, 242166, Note_on_c, 0, 60, 0
2, 242688, Note_on_c, 0, 48, 100
2, 242688, Note_on_c, 0, 72, 100
2, 242942, Note_on_c, 0, 72, 0
2, 242942, Note_on_c, 0, 48, 0
2, 243072, Note_on_c, 0, 48, 100
2, 243072, Note_on_c, 0, 72, 100
2, 243326, Note_on_c, 0, 72, 0
2, 243326, Note_on_c, 0, 48, 0
2, 243456, Note_on_c, 0, 48, 100
2, 243456, Note_on_c, 0, 72, 100
2, 243710, Note_on_c, 0, 72, 0
2, 243710, Note_on_c, 0, 48, 0
2, 243840, Note_on_c, 0, 48, 100
2, 243840, Note_on_c, 0, 72, 100
2, 244094, Note_on_c, 0, 72, 0
2, 244094, Note_on_c, 0, 48, 0
2, 244224, Note_on_c, 0, 48, 100
2, 244224, Note_on_c, 0, 72, 100
2, 244478, Note_on_c, 0, 72, 0
2, 244478, Note_on_c, 0, 48, 0
2, 244608, Note_on_c, 0, 48, 100
2, 244608, Note_on_c, 0, 72, 100
2, 244862, Note_on_c, 0, 72, 0
2, 244862, Note_on_c, 0, 48, 0
2, 244992, Note_on_c, 0, 48, 100
2, 245246, Note_on_c, 0, 48, 0
2, 245248, Note_on_c, 0, 60, 100
2, 245366, Note_on_c, 0, 60, 0
2, 246144, Note_on_c, 0, 60, 100
2, 246262, Note_on_c, 0, 60, 0
2, 246272, Note_on_c, 0, 48, 100
2, 246390, Note_on_c, 0, 48, 0
2, 246400, Note_on_c, 0, 60, 100
2, 246518, Note_on_c, 0, 60, 0
2, 247040, Note_on_c, 0, 72, 100
2, 247158, Note_on_c, 0, 72, 0
2, 247680, Note_on_c, 0, 60, 100
2, 247798, Note_on_c, 0, 60, 0
2, 247808, Note_on_c, 0, 48, 100
2, 247926, Note_on_c, 0, 48, 0
2, 247936, Note_on_c, 0, 60, 100
2, 248054, Note_on_c, 0, 60, 0
2, 249216, Note_on_c, 0, 72, 100
2, 249470, Note_on_c, 0, 72, 0
2, 249472, Note_on_c, 0, 72, 100
2, 249590, Note_on_c, 0, 72, 0
2, 249600, Note_on_c, 0, 72, 100
2, 250175, Note_on_c, 0, 72, 0
2, 252672, Note_on_c, 0, 48, 100
2, 252790, Note_on_c, 0, 48, 0
2, 253056, Note_on_c, 0, 48, 100
2, 253174, Note_on_c, 0, 48, 0
2, 253568, Note_on_c, 0, 72, 100
2, 253686, Note_on_c, 0, 72, 0
2, 254464, Note_on_c, 0, 60, 100
2, 254582, Note_on_c, 0, 60, 0
2, 254720, Note_on_c, 0, 60, 100
2, 254838, Note_on_c, 0, 60, 0
2, 255360, Note_on_c, 0, 60, 100
2, 255614, Note_on_c, 0, 60, 0
2, 255744, Note_on_c, 0, 72, 100
2, 255862, Note_on_c, 0, 72, 0
2, 256896, Note_on_c, 0, 60, 100
2, 257406, Note_on_c, 0, 60, 0
2, 257664, Note_on_c, 0, 72, 100
2, 257782, Note_on_c, 0, 72, 0
2, 259584, Note_on_c, 0, 60, 100
2, 259702, Note_on_c, 0, 60, 0
2, 259840, Note_on_c, 0, 60, 100
2, 259958, Note_on_c, 0, 60, 0
2, 260480, Note_on_c, 0, 60, 100
2, 260598, Note_on_c, 0, 60, 0
2, 261760, Note_on_c, 0, 60, 100
2, 261878, Note_on_c, 0, 60, 0
2, 262528, Note_on_c, 0, 60, 100
2, 262646, Note_on_c, 0, 60, 0
2, 263296, Note_on_c, 0, 60, 100
2, 263414, Note_on_c, 0, 60, 0
2, 264064, Note_on_c, 0, 60, 100
2, 264182, Note_on_c, 0, 60, 0
2, 264704, Note_on_c, 0, 60, 100
2, 264822, Note_on_c, 0, 60, 0
2, 265728, Note_on_c, 0, 48, 100
2, 265846, Note_on_c, 0, 48, 0
2, 265856, Note_on_c, 0, 60, 100
2, 265974, Note_on_c, 0, 60, 0
2, 267136, Note_on_c, 0, 48, 100
2, 267254, Note_on_c, 0, 48, 0
2, 267520, Note_on_c, 0, 60, 100
2, 267638, Note_on_c, 0, 60, 0
2, 267776, Note_on_c, 0, 72, 100
2, 267894, Note_on_c, 0, 72, 0
2, 268032, Note_on_c, 0, 48, 100
2, 268288, Note_on_c, 0, 60, 100
2, 268288, Note_on_c, 0, 72, 100
2, 268406, Note_on_c, 0, 60, 0
2, 268412, Note_on_c, 0, 48, 0
2, 268538, Note_on_c, 0, 72, 0
2, 268672, Note_on_c, 0, 48, 100
2, 268672, Note_on_c, 0, 72, 100
2, 268790, Note_on_c, 0, 72, 0
2, 268790, Note_on_c, 0, 48, 0
2, 268928, Note_on_c, 0, 72, 100
2, 269046, Note_on_c, 0, 72, 0
2, 269312, Note_on_c, 0, 72, 100
2, 269430, Note_on_c, 0, 72, 0
2, 269952, Note_on_c, 0, 48, 100
2, 269952, Note_on_c, 0, 72, 100
2, 270206, Note_on_c, 0, 72, 0
2, 270206, Note_on_c, 0, 48, 0
2, 270208, Note_on_c, 0, 48, 100
2, 270208, Note_on_c, 0, 72, 100
2, 270326, Note_on_c, 0, 72, 0
2, 270326, Note_on_c, 0, 48, 0
2, 270336, Note_on_c, 0, 72, 100
2, 270590, Note_on_c, 0, 72, 0
2, 270592, Note_on_c, 0, 72, 100
2, 270710, Note_on_c, 0, 72, 0
2, 271744, Note_on_c, 0, 60, 100
2, 271862, Note_on_c, 0, 60, 0
2, 271872, Note_on_c, 0, 60, 100
2, 272000, Note_on_c, 0, 72, 100
2, 272062, Note_on_c, 0, 60, 0
2, 272118, Note_on_c, 0, 72, 0
2, 272512, Note_on_c, 0, 60, 100
2, 272630, Note_on_c, 0, 60, 0
2, 272640, Note_on_c, 0, 60, 100
2, 272768, Note_on_c, 0, 72, 100
2, 272830, Note_on_c, 0, 60, 0
2, 272886, Note_on_c, 0, 72, 0
2, 273280, Note_on_c, 0, 60, 100
2, 273398, Note_on_c, 0, 60, 0
2, 273408, Note_on_c, 0, 60, 100
2, 273536, Note_on_c, 0, 48, 100
2, 273654, Note_on_c, 0, 48, 0
2, 273662, Note_on_c, 0, 60, 0
2, 273792, Note_on_c, 0, 60, 100
2, 274046, Note_on_c, 0, 60, 0
2, 274176, Note_on_c, 0, 60, 100
2, 274294, Note_on_c, 0, 60, 0
2, 274560, Note_on_c, 0, 48, 100
2, 274688, Note_on_c, 0, 60, 100
2, 274806, Note_on_c, 0, 60, 0
2, 274814, Note_on_c, 0, 48, 0
2, 274816, Note_on_c, 0, 36, 100
2, 274934, Note_on_c, 0, 36, 0
2, 275456, Note_on_c, 0, 72, 100
2, 275574, Note_on_c, 0, 72, 0
2, 275584, Note_on_c, 0, 48, 100
2, 275704, Note_on_c, 0, 48, 0
2, 276096, Note_on_c, 0, 60, 100
2, 276214, Note_on_c, 0, 60, 0
2, 277888, Note_on_c, 0, 72, 100
2, 278006, Note_on_c, 0, 72, 0
2, 278144, Note_on_c, 0, 60, 100
2, 278262, Note_on_c, 0, 60, 0
2, 278400, Note_on_c, 0, 72, 100
2, 278518, Note_on_c, 0, 72, 0
2, 278656, Note_on_c, 0, 60, 100
2, 278774, Note_on_c, 0, 60, 0
2, 278912, Note_on_c, 0, 60, 100
2, 279030, Note_on_c, 0, 60, 0
2, 279168, Note_on_c, 0, 48, 100
2, 279296, Note_on_c, 0, 60, 100
2, 279414, Note_on_c, 0, 60, 0
2, 279422, Note_on_c, 0, 48, 0
2, 279552, Note_on_c, 0, 72, 100
2, 279936, Note_on_c, 0, 48, 100
2, 280127, Note_on_c, 0, 72, 0
2, 280190, Note_on_c, 0, 48, 0
2, 280192, Note_on_c, 0, 48, 100
2, 280310, Note_on_c, 0, 48, 0
2, 280576, Note_on_c, 0, 72, 100
2, 280694, Note_on_c, 0, 72, 0
2, 281984, Note_on_c, 0, 60, 100
2, 282102, Note_on_c, 0, 60, 0
2, 282240, Note_on_c, 0, 72, 100
2, 282358, Note_on_c, 0, 72, 0
2, 282752, Note_on_c, 0, 48, 100
2, 282752, Note_on_c, 0, 72, 100
2, 282870, Note_on_c, 0, 72, 0
2, 282870, Note_on_c, 0, 48, 0
2, 283008, Note_on_c, 0, 72, 100
2, 283262, Note_on_c, 0, 72, 0
2, 283520, Note_on_c, 0, 72, 100
2, 283638, Note_on_c, 0, 72, 0
2, 283776, Note_on_c, 0, 48, 100
2, 284030, Note_on_c, 0, 48, 0
2, 284160, Note_on_c, 0, 48, 100
2, 284414, Note_on_c, 0, 48, 0
2, 284544, Note_on_c, 0, 72, 100
2, 285566, Note_on_c, 0, 72, 0
2, 285696, Note_on_c, 0, 36, 100
2, 285696, Note_on_c, 0, 72, 100
2, 285886, Note_on_c, 0, 36, 0
2, 285950, Note_on_c, 0, 72, 0
2, 285952, Note_on_c, 0, 60, 100
2, 286070, Note_on_c, 0, 60, 0
2, 286080, Note_on_c, 0, 72, 100
2, 286334, Note_on_c, 0, 72, 0
2, 286464, Note_on_c, 0, 72, 100
2, 286844, Note_on_c, 0, 72, 0
2, 286848, Note_on_c, 0, 60, 100
2, 287102, Note_on_c, 0, 60, 0
2, 287104, Note_on_c, 0, 60, 100
2, 287222, Note_on_c, 0, 60, 0
2, 288768, Note_on_c, 0, 72, 100
2, 288886, Note_on_c, 0, 72, 0
2, 289024, Note_on_c, 0, 72, 100
2, 289142, Note_on_c, 0, 72, 0
2, 289152, Note_on_c, 0, 84, 100
2, 289270, Note_on_c, 0, 84, 0
2, 289280, Note_on_c, 0, 72, 100
2, 289398, Note_on_c, 0, 72, 0
2, 289408, Note_on_c, 0, 84, 100
2, 289526, Note_on_c, 0, 84, 0
2, 290176, Note_on_c, 0, 84, 100
2, 290294, Note_on_c, 0, 84, 0
2, 290560, Note_on_c, 0, 72, 100
2, 290678, Note_on_c, 0, 72, 0
2, 290944, Note_on_c, 0, 60, 100
2, 291062, Note_on_c, 0, 60, 0
2, 291712, Note_on_c, 0, 72, 100
2, 291830, Note_on_c, 0, 72, 0
2, 291968, Note_on_c, 0, 72, 100
2, 292086, Note_on_c, 0, 72, 0
2, 292992, Note_on_c, 0, 48, 100
2, 293246, Note_on_c, 0, 48, 0
2, 293248, Note_on_c, 0, 48, 100
2, 293248, Note_on_c, 0, 60, 100
2, 293366, Note_on_c, 0, 60, 0
2, 293366, Note_on_c, 0, 48, 0
2, 293376, Note_on_c, 0, 60, 100
2, 293630, Note_on_c, 0, 60, 0
2, 293632, Note_on_c, 0, 60, 100
2, 293750, Note_on_c, 0, 60, 0
2, 294528, Note_on_c, 0, 60, 100
2, 294782, Note_on_c, 0, 60, 0
2, 294784, Note_on_c, 0, 60, 100
2, 294902, Note_on_c, 0, 60, 0
2, 294912, Note_on_c, 0, 60, 100
2, 295487, Note_on_c, 0, 60, 0
2, 295936, Note_on_c, 0, 60, 100
2, 296054, Note_on_c, 0, 60, 0
2, 296192, Note_on_c, 0, 60, 100
2, 296310, Note_on_c, 0, 60, 0
2, 296704, Note_on_c, 0, 48, 100
2, 296822, Note_on_c, 0, 48, 0
2, 296960, Note_on_c, 0, 48, 100
2, 297078, Note_on_c, 0, 48, 0
2, 297088, Note_on_c, 0, 48, 100
2, 297206, Note_on_c, 0, 48, 0
2, 297472, Note_on_c, 0, 60, 100
2, 297590, Note_on_c, 0, 60, 0
2, 297728, Note_on_c, 0, 60, 100
2, 297846, Note_on_c, 0, 60, 0
2, 298240, Note_on_c, 0, 60, 100
2, 298358, Note_on_c, 0, 60, 0
2, 299520, Note_on_c, 0, 72, 100
2, 299638, Note_on_c, 0, 72, 0
2, 299776, Note_on_c, 0, 72, 100
2, 299894, Note_on_c, 0, 72, 0
2, 300032, Note_on_c, 0, 72, 100
2, 300150, Note_on_c, 0, 72, 0
2, 301056, Note_on_c, 0, 72, 100
2, 301631, Note_on_c, 0, 72, 0
2, 304512, Note_on_c, 0, 72, 100
2, 304630, Note_on_c, 0, 72, 0
2, 305152, Note_on_c, 0, 72, 100
2, 305270, Note_on_c, 0, 72, 0
2, 305408, Note_on_c, 0, 72, 100
2, 305526, Note_on_c, 0, 72, 0
2, 306432, Note_on_c, 0, 60, 100
2, 306686, Note_on_c, 0, 60, 0
2, 306688, Note_on_c, 0, 60, 100
2, 306806, Note_on_c, 0, 60, 0
2, 307072, Note_on_c, 0, 60, 100
2, 307190, Note_on_c, 0, 60, 0
2, 307968, Note_on_c, 0, 36, 100
2, 308086, Note_on_c, 0, 36, 0
2, 308224, Note_on_c, 0, 36, 100
2, 308342, Note_on_c, 0, 36, 0
2, 308352, Note_on_c, 0, 48, 100
2, 308470, Note_on_c, 0, 48, 0
2, 308480, Note_on_c, 0, 36, 100
2, 308598, Note_on_c, 0, 36, 0
2, 308608, Note_on_c, 0, 48, 100
2, 308726, Note_on_c, 0, 48, 0
2, 308992, Note_on_c, 0, 60, 100
2, 309110, Note_on_c, 0, 60, 0
2, 309376, Note_on_c, 0, 48, 100
2, 309494, Note_on_c, 0, 48, 0
2, 309760, Note_on_c, 0, 60, 100
2, 309878, Note_on_c, 0, 60, 0
2, 310144, Note_on_c, 0, 60, 100
2, 310262, Note_on_c, 0, 60, 0
2, 310528, Note_on_c, 0, 72, 100
2, 310646, Note_on_c, 0, 72, 0
2, 310784, Note_on_c, 0, 72, 100
2, 310902, Note_on_c, 0, 72, 0
2, 310912, Note_on_c, 0, 72, 100
2, 311030, Note_on_c, 0, 72, 0
2, 311296, Note_on_c, 0, 60, 100
2, 311296, Note_on_c, 0, 72, 100
2, 311414, Note_on_c, 0, 72, 0
2, 311414, Note_on_c, 0, 60, 0
2, 311552, Note_on_c, 0, 60, 100
2, 311552, Note_on_c, 0, 72, 100
2, 311670, Note_on_c, 0, 72, 0
2, 311670, Note_on_c, 0, 60, 0
2, 311680, Note_on_c, 0, 72, 100
2, 311798, Note_on_c, 0, 72, 0
2, 312064, Note_on_c, 0, 60, 100
2, 312064, Note_on_c, 0, 72, 100
2, 312182, Note_on_c, 0, 72, 0
2, 312182, Note_on_c, 0, 60, 0
2, 312320, Note_on_c, 0, 60, 100
2, 312320, Note_on_c, 0, 72, 100
2, 312438, Note_on_c, 0, 72, 0
2, 312438, Note_on_c, 0, 60, 0
2, 312448, Note_on_c, 0, 72, 100
2, 312566, Note_on_c, 0, 72, 0
2, 312832, Note_on_c, 0, 48, 100
2, 312832, Note_on_c, 0, 60, 100
2, 312950, Note_on_c, 0, 60, 0
2, 312950, Note_on_c, 0, 48, 0
2, 313216, Note_on_c, 0, 60, 100
2, 313334, Note_on_c, 0, 60, 0
2, 314496, Note_on_c, 0, 72, 100
2, 314612, Note_on_c, 0, 72, 0
2, 316032, Note_on_c, 0, 60, 100
2, 316148, Note_on_c, 0, 60, 0
2, 317568, Note_on_c, 0, 48, 100
2, 317684, Note_on_c, 0, 48, 0
2, 319360, Note_on_c, 0, 48, 100
2, 319476, Note_on_c, 0, 48, 0
2, 321664, Note_on_c, 0, 48, 100
2, 321790, Note_on_c, 0, 48, 0
2, 322432, Note_on_c, 0, 48, 100
2, 322537, Note_on_c, 0, 48, 0
2, 323072, Note_on_c, 0, 48, 100
2, 323182, Note_on_c, 0, 48, 0
2, 323416, Note_on_c, 0, 48, 100
2, 323448, Note_on_c, 0, 60, 100
2, 323512, Note_on_c, 0, 72, 100
2, 324496, Note_on_c, 0, 72, 0
2, 324496, Note_on_c, 0, 60, 0
2, 324499, Note_on_c, 0, 48, 0
2, 324504, Note_on_c, 0, 60, 100
2, 324504, Note_on_c, 0, 48, 100
2, 325654, Note_on_c, 0, 60, 0
2, 326204, Note_on_c, 0, 48, 0
2, 326204, End_track
3, 0, Start_track
3, 0, Title_t, "Harpsichord"
3, 0, Program_c, 0, 6
3, 0, Control_c, 0, 7, 100
3, 0, Control_c, 0, 10, 64
3, 0, Pitch_bend_c, 0, 7790
3, 16128, Note_on_c, 0, 61, 100
3, 16176, Note_on_c, 0, 61, 0
3, 16236, Note_on_c, 0, 61, 100
3, 17076, Note_on_c, 0, 61, 0
3, 17280, Note_on_c, 0, 61, 100
3, 17470, Note_on_c, 0, 61, 0
3, 18144, Note_on_c, 0, 61, 100
3, 18238, Note_on_c, 0, 61, 0
3, 33792, Note_on_c, 0, 61, 100
3, 34366, Note_on_c, 0, 61, 0
3, 36192, Note_on_c, 0, 49, 100
3, 36712, Note_on_c, 0, 49, 0
3, 36768, Note_on_c, 0, 49, 100
3, 36958, Note_on_c, 0, 49, 0
3, 89496, Note_on_c, 0, 73, 100
3, 89686, Note_on_c, 0, 73, 0
3, 89688, Note_on_c, 0, 61, 100
3, 89878, Note_on_c, 0, 61, 0
3, 92208, Note_on_c, 0, 73, 100
3, 92398, Note_on_c, 0, 73, 0
3, 92496, Note_on_c, 0, 61, 100
3, 92590, Note_on_c, 0, 61, 0
3, 92976, Note_on_c, 0, 61, 100
3, 93166, Note_on_c, 0, 61, 0
3, 93264, Note_on_c, 0, 73, 100
3, 93358, Note_on_c, 0, 73, 0
3, 93744, Note_on_c, 0, 73, 100
3, 93934, Note_on_c, 0, 73, 0
3, 94512, Note_on_c, 0, 49, 100
3, 94702, Note_on_c, 0, 49, 0
3, 95088, Note_on_c, 0, 61, 100
3, 95278, Note_on_c, 0, 61, 0
3, 96648, Note_on_c, 0, 73, 100
3, 96768, Note_on_c, 0, 73, 0
3, 97416, Note_on_c, 0, 73, 100
3, 97536, Note_on_c, 0, 73, 0
3, 98184, Note_on_c, 0, 73, 100
3, 98374, Note_on_c, 0, 73, 0
3, 99720, Note_on_c, 0, 61, 100
3, 99910, Note_on_c, 0, 61, 0
3, 124880, Note_on_c, 0, 73, 100
3, 124926, Note_on_c, 0, 73, 0
3, 132368, Note_on_c, 0, 49, 100
3, 133134, Note_on_c, 0, 49, 0
3, 151680, Note_on_c, 0, 61, 100
3, 151798, Note_on_c, 0, 61, 0
3, 151941, Note_on_c, 0, 61, 100
3, 152059, Note_on_c, 0, 61, 0
3, 152192, Note_on_c, 0, 61, 100
3, 152310, Note_on_c, 0, 61, 0
3, 153477, Note_on_c, 0, 61, 100
3, 153595, Note_on_c, 0, 61, 0
3, 154245, Note_on_c, 0, 61, 100
3, 154363, Note_on_c, 0, 61, 0
3, 155013, Note_on_c, 0, 61, 100
3, 155131, Note_on_c, 0, 61, 0
3, 155781, Note_on_c, 0, 61, 100
3, 155899, Note_on_c, 0, 61, 0
3, 163968, Note_on_c, 0, 49, 100
3, 164086, Note_on_c, 0, 49, 0
3, 164224, Note_on_c, 0, 49, 100
3, 164342, Note_on_c, 0, 49, 0
3, 164480, Note_on_c, 0, 49, 100
3, 164598, Note_on_c, 0, 49, 0
3, 165120, Note_on_c, 0, 73, 100
3, 165695, Note_on_c, 0, 73, 0
3, 165760, Note_on_c, 0, 73, 100
3, 165878, Note_on_c, 0, 73, 0
3, 166528, Note_on_c, 0, 73, 100
3, 166646, Note_on_c, 0, 73, 0
3, 167296, Note_on_c, 0, 73, 100
3, 167414, Note_on_c, 0, 73, 0
3, 168064, Note_on_c, 0, 73, 100
3, 168182, Note_on_c, 0, 73, 0
3, 175104, Note_on_c, 0, 73, 100
3, 175222, Note_on_c, 0, 73, 0
3, 175360, Note_on_c, 0, 73, 100
3, 175478, Note_on_c, 0, 73, 0
3, 177024, Note_on_c, 0, 61, 100
3, 177278, Note_on_c, 0, 61, 0
3, 177280, Note_on_c, 0, 61, 100
3, 177398, Note_on_c, 0, 61, 0
3, 177408, Note_on_c, 0, 61, 100
3, 177983, Note_on_c, 0, 61, 0
3, 180864, Note_on_c, 0, 73, 100
3, 181118, Note_on_c, 0, 73, 0
3, 181120, Note_on_c, 0, 73, 100
3, 181238, Note_on_c, 0, 73, 0
3, 192000, Note_on_c, 0, 61, 100
3, 192118, Note_on_c, 0, 61, 0
3, 192256, Note_on_c, 0, 61, 100
3, 192374, Note_on_c, 0, 61, 0
3, 193920, Note_on_c, 0, 61, 100
3, 194174, Note_on_c, 0, 61, 0
3, 194176, Note_on_c, 0, 61, 100
3, 194294, Note_on_c, 0, 61, 0
3, 194304, Note_on_c, 0, 61, 100
3, 194879, Note_on_c, 0, 61, 0
3, 194944, Note_on_c, 0, 73, 100
3, 195062, Note_on_c, 0, 73, 0
3, 205056, Note_on_c, 0, 73, 100
3, 205174, Note_on_c, 0, 73, 0
3, 207360, Note_on_c, 0, 73, 100
3, 207478, Note_on_c, 0, 73, 0
3, 207616, Note_on_c, 0, 73, 100
3, 207734, Note_on_c, 0, 73, 0
3, 209280, Note_on_c, 0, 73, 100
3, 209398, Note_on_c, 0, 73, 0
3, 209536, Note_on_c, 0, 73, 100
3, 209654, Note_on_c, 0, 73, 0
3, 209664, Note_on_c, 0, 73, 100
3, 210044, Note_on_c, 0, 73, 0
3, 210048, Note_on_c, 0, 61, 100
3, 210302, Note_on_c, 0, 61, 0
3, 211072, Note_on_c, 0, 49, 100
3, 211190, Note_on_c, 0, 49, 0
3, 211840, Note_on_c, 0, 49, 100
3, 211958, Note_on_c, 0, 49, 0
3, 214144, Note_on_c, 0, 73, 100
3, 214262, Note_on_c, 0, 73, 0
3, 215424, Note_on_c, 0, 49, 100
3, 215542, Note_on_c, 0, 49, 0
3, 215680, Note_on_c, 0, 49, 100
3, 215798, Note_on_c, 0, 49, 0
3, 215936, Note_on_c, 0, 49, 100
3, 216054, Note_on_c, 0, 49, 0
3, 216832, Note_on_c, 0, 61, 100
3, 216950, Note_on_c, 0, 61, 0
3, 216960, Note_on_c, 0, 61, 100
3, 217214, Note_on_c, 0, 61, 0
3, 217216, Note_on_c, 0, 49, 100
3, 217334, Note_on_c, 0, 49, 0
3, 217984, Note_on_c, 0, 49, 100
3, 218102, Note_on_c, 0, 49, 0
3, 218752, Note_on_c, 0, 49, 100
3, 218870, Note_on_c, 0, 49, 0
3, 219520, Note_on_c, 0, 49, 100
3, 219638, Note_on_c, 0, 49, 0
3, 220288, Note_on_c, 0, 49, 100
3, 220406, Note_on_c, 0, 49, 0
3, 259200, Note_on_c, 0, 61, 100
3, 259318, Note_on_c, 0, 61, 0
3, 259456, Note_on_c, 0, 61, 100
3, 259574, Note_on_c, 0, 61, 0
3, 259712, Note_on_c, 0, 61, 100
3, 259830, Note_on_c, 0, 61, 0
3, 260096, Note_on_c, 0, 61, 100
3, 260214, Note_on_c, 0, 61, 0
3, 265600, Note_on_c, 0, 49, 100
3, 265718, Note_on_c, 0, 49, 0
3, 266880, Note_on_c, 0, 49, 100
3, 266998, Note_on_c, 0, 49, 0
3, 267392, Note_on_c, 0, 61, 100
3, 267510, Note_on_c, 0, 61, 0
3, 268800, Note_on_c, 0, 73, 100
3, 268918, Note_on_c, 0, 73, 0
3, 269056, Note_on_c, 0, 73, 100
3, 269174, Note_on_c, 0, 73, 0
3, 270720, Note_on_c, 0, 49, 100
3, 270720, Note_on_c, 0, 73, 100
3, 270838, Note_on_c, 0, 73, 0
3, 270974, Note_on_c, 0, 49, 0
3, 270976, Note_on_c, 0, 49, 100
3, 270976, Note_on_c, 0, 73, 100
3, 271094, Note_on_c, 0, 73, 0
3, 271094, Note_on_c, 0, 49, 0
3, 271104, Note_on_c, 0, 49, 100
3, 271679, Note_on_c, 0, 49, 0
3, 273664, Note_on_c, 0, 61, 100
3, 273782, Note_on_c, 0, 61, 0
3, 274304, Note_on_c, 0, 49, 100
3, 274422, Note_on_c, 0, 49, 0
3, 274432, Note_on_c, 0, 61, 100
3, 274550, Note_on_c, 0, 61, 0
3, 275968, Note_on_c, 0, 61, 100
3, 276086, Note_on_c, 0, 61, 0
3, 277632, Note_on_c, 0, 73, 100
3, 277886, Note_on_c, 0, 73, 0
3, 299136, Note_on_c, 0, 73, 100
3, 299254, Note_on_c, 0, 73, 0
3, 299392, Note_on_c, 0, 73, 100
3, 299510, Note_on_c, 0, 73, 0
3, 300672, Note_on_c, 0, 73, 100
3, 300926, Note_on_c, 0, 73, 0
3, 300928, Note_on_c, 0, 73, 100
3, 301046, Note_on_c, 0, 73, 0
3, 302464, Note_on_c, 0, 61, 100
3, 302582, Note_on_c, 0, 61, 0
3, 303232, Note_on_c, 0, 61, 100
3, 303350, Note_on_c, 0, 61, 0
3, 303616, Note_on_c, 0, 73, 100
3, 303734, Note_on_c, 0, 73, 0
3, 303734, End_track
4, 0, Start_track
4, 0, Title_t, "Johann Sebastian Bach  (1685-1750)"
4, 0, Program_c, 0, 6
4, 0, Control_c, 0, 7, 100
4, 0, Control_c, 0, 10, 64
4, 0, Pitch_bend_c, 0, 7876
4, 576, Note_on_c, 0, 74, 100
4, 638, Note_on_c, 0, 74, 0
4, 704, Note_on_c, 0, 74, 100
4, 766, Note_on_c, 0, 74, 0
4, 896, Note_on_c, 0, 74, 100
4, 958, Note_on_c, 0, 74, 0
4, 1536, Note_on_c, 0, 62, 100
4, 1598, Note_on_c, 0, 62, 0
4, 1664, Note_on_c, 0, 62, 100
4, 1726, Note_on_c, 0, 62, 0
4, 1856, Note_on_c, 0, 62, 100
4, 1918, Note_on_c, 0, 62, 0
4, 2432, Note_on_c, 0, 50, 100
4, 2494, Note_on_c, 0, 50, 0
4, 2560, Note_on_c, 0, 50, 100
4, 2622, Note_on_c, 0, 50, 0
4, 2752, Note_on_c, 0, 50, 100
4, 2814, Note_on_c, 0, 50, 0
4, 3646, Note_on_c, 0, 38, 100
4, 3790, Note_on_c, 0, 38, 0
4, 3854, Note_on_c, 0, 50, 100
4, 3948, Note_on_c, 0, 50, 0
4, 4142, Note_on_c, 0, 50, 100
4, 4236, Note_on_c, 0, 50, 0
4, 4846, Note_on_c, 0, 50, 100
4, 4990, Note_on_c, 0, 50, 0
4, 5038, Note_on_c, 0, 62, 100
4, 5132, Note_on_c, 0, 62, 0
4, 5326, Note_on_c, 0, 62, 100
4, 5450, Note_on_c, 0, 62, 0
4, 6622, Note_on_c, 0, 50, 100
4, 6716, Note_on_c, 0, 50, 0
4, 6830, Note_on_c, 0, 50, 100
4, 6924, Note_on_c, 0, 50, 0
4, 7118, Note_on_c, 0, 50, 100
4, 7212, Note_on_c, 0, 50, 0
4, 7454, Note_on_c, 0, 50, 100
4, 7548, Note_on_c, 0, 50, 0
4, 7742, Note_on_c, 0, 50, 100
4, 7836, Note_on_c, 0, 50, 0
4, 8082, Note_on_c, 0, 50, 100
4, 8185, Note_on_c, 0, 50, 0
4, 8409, Note_on_c, 0, 50, 100
4, 8506, Note_on_c, 0, 50, 0
4, 10752, Note_on_c, 0, 62, 100
4, 11134, Note_on_c, 0, 62, 0
4, 11522, Note_on_c, 0, 62, 100
4, 13054, Note_on_c, 0, 62, 0
4, 15744, Note_on_c, 0, 62, 100
4, 16126, Note_on_c, 0, 62, 0
4, 17088, Note_on_c, 0, 62, 100
4, 17278, Note_on_c, 0, 62, 0
4, 18240, Note_on_c, 0, 62, 100
4, 18334, Note_on_c, 0, 62, 0
4, 18432, Note_on_c, 0, 50, 100
4, 19199, Note_on_c, 0, 50, 0
4, 19200, Note_on_c, 0, 62, 100
4, 19758, Note_on_c, 0, 62, 0
4, 19968, Note_on_c, 0, 62, 100
4, 20158, Note_on_c, 0, 62, 0
4, 20736, Note_on_c, 0, 50, 100
4, 22268, Note_on_c, 0, 50, 0
4, 25152, Note_on_c, 0, 74, 100
4, 25246, Note_on_c, 0, 74, 0
4, 25344, Note_on_c, 0, 62, 100
4, 26111, Note_on_c, 0, 62, 0
4, 26112, Note_on_c, 0, 62, 100
4, 26302, Note_on_c, 0, 62, 0
4, 26880, Note_on_c, 0, 74, 100
4, 27072, Note_on_c, 0, 62, 100
4, 27262, Note_on_c, 0, 74, 0
4, 27647, Note_on_c, 0, 62, 0
4, 31488, Note_on_c, 0, 62, 100
4, 31868, Note_on_c, 0, 62, 0
4, 31968, Note_on_c, 0, 74, 100
4, 32062, Note_on_c, 0, 74, 0
4, 33704, Note_on_c, 0, 62, 100
4, 33786, Note_on_c, 0, 62, 0
4, 34368, Note_on_c, 0, 62, 100
4, 34558, Note_on_c, 0, 62, 0
4, 34560, Note_on_c, 0, 38, 100
4, 34560, Note_on_c, 0, 62, 100
4, 35357, Note_on_c, 0, 62, 0
4, 35357, Note_on_c, 0, 38, 0
4, 35424, Note_on_c, 0, 62, 100
4, 36096, Note_on_c, 0, 50, 100
4, 36190, Note_on_c, 0, 50, 0
4, 36191, Note_on_c, 0, 62, 0
4, 36960, Note_on_c, 0, 62, 100
4, 36960, Note_on_c, 0, 50, 100
4, 37727, Note_on_c, 0, 62, 0
4, 37824, Note_on_c, 0, 62, 100
4, 38660, Note_on_c, 0, 38, 100
4, 39260, Note_on_c, 0, 50, 0
4, 39354, Note_on_c, 0, 62, 0
4, 39960, Note_on_c, 0, 38, 0
4, 42624, Note_on_c, 0, 50, 100
4, 42814, Note_on_c, 0, 50, 0
4, 43392, Note_on_c, 0, 50, 100
4, 43582, Note_on_c, 0, 50, 0
4, 44544, Note_on_c, 0, 74, 100
4, 44664, Note_on_c, 0, 74, 0
4, 45696, Note_on_c, 0, 74, 100
4, 45886, Note_on_c, 0, 74, 0
4, 46464, Note_on_c, 0, 74, 100
4, 46654, Note_on_c, 0, 74, 0
4, 47616, Note_on_c, 0, 50, 100
4, 47806, Note_on_c, 0, 50, 0
4, 48576, Note_on_c, 0, 50, 100
4, 48670, Note_on_c, 0, 50, 0
4, 48768, Note_on_c, 0, 50, 100
4, 48958, Note_on_c, 0, 50, 0
4, 49728, Note_on_c, 0, 50, 100
4, 49822, Note_on_c, 0, 50, 0
4, 49920, Note_on_c, 0, 50, 100
4, 50110, Note_on_c, 0, 50, 0
4, 50688, Note_on_c, 0, 50, 100
4, 50878, Note_on_c, 0, 50, 0
4, 51456, Note_on_c, 0, 50, 100
4, 51646, Note_on_c, 0, 50, 0
4, 51744, Note_on_c, 0, 74, 100
4, 51838, Note_on_c, 0, 74, 0
4, 52800, Note_on_c, 0, 74, 100
4, 52894, Note_on_c, 0, 74, 0
4, 52992, Note_on_c, 0, 74, 100
4, 53182, Note_on_c, 0, 74, 0
4, 53760, Note_on_c, 0, 74, 100
4, 53950, Note_on_c, 0, 74, 0
4, 54528, Note_on_c, 0, 74, 100
4, 54718, Note_on_c, 0, 74, 0
4, 54720, Note_on_c, 0, 50, 100
4, 54910, Note_on_c, 0, 50, 0
4, 55872, Note_on_c, 0, 74, 100
4, 55966, Note_on_c, 0, 74, 0
4, 56064, Note_on_c, 0, 74, 100
4, 56184, Note_on_c, 0, 74, 0
4, 56640, Note_on_c, 0, 50, 100
4, 56830, Note_on_c, 0, 50, 0
4, 57024, Note_on_c, 0, 50, 100
4, 57118, Note_on_c, 0, 50, 0
4, 57216, Note_on_c, 0, 50, 100
4, 57406, Note_on_c, 0, 50, 0
4, 57888, Note_on_c, 0, 50, 100
4, 57982, Note_on_c, 0, 50, 0
4, 57984, Note_on_c, 0, 74, 100
4, 58174, Note_on_c, 0, 74, 0
4, 58560, Note_on_c, 0, 62, 100
4, 58700, Note_on_c, 0, 62, 0
4, 59136, Note_on_c, 0, 62, 100
4, 59516, Note_on_c, 0, 62, 0
4, 59520, Note_on_c, 0, 50, 100
4, 59710, Note_on_c, 0, 50, 0
4, 60288, Note_on_c, 0, 50, 100
4, 60478, Note_on_c, 0, 50, 0
4, 60672, Note_on_c, 0, 62, 100
4, 60792, Note_on_c, 0, 62, 0
4, 61440, Note_on_c, 0, 74, 100
4, 61630, Note_on_c, 0, 74, 0
4, 61632, Note_on_c, 0, 74, 100
4, 61752, Note_on_c, 0, 74, 0
4, 62208, Note_on_c, 0, 74, 100
4, 62208, Note_on_c, 0, 62, 100
4, 62328, Note_on_c, 0, 74, 0
4, 62398, Note_on_c, 0, 62, 0
4, 62400, Note_on_c, 0, 74, 100
4, 62520, Note_on_c, 0, 74, 0
4, 62784, Note_on_c, 0, 62, 100
4, 62878, Note_on_c, 0, 62, 0
4, 63552, Note_on_c, 0, 74, 100
4, 63646, Note_on_c, 0, 74, 0
4, 63744, Note_on_c, 0, 74, 100
4, 63934, Note_on_c, 0, 74, 0
4, 63936, Note_on_c, 0, 62, 100
4, 64126, Note_on_c, 0, 62, 0
4, 64512, Note_on_c, 0, 50, 100
4, 64702, Note_on_c, 0, 50, 0
4, 65856, Note_on_c, 0, 62, 100
4, 65950, Note_on_c, 0, 62, 0
4, 66624, Note_on_c, 0, 50, 100
4, 66718, Note_on_c, 0, 50, 0
4, 67008, Note_on_c, 0, 62, 100
4, 67198, Note_on_c, 0, 62, 0
4, 68928, Note_on_c, 0, 62, 100
4, 69022, Note_on_c, 0, 62, 0
4, 69696, Note_on_c, 0, 50, 100
4, 69790, Note_on_c, 0, 50, 0
4, 70080, Note_on_c, 0, 62, 100
4, 70270, Note_on_c, 0, 62, 0
4, 71232, Note_on_c, 0, 62, 100
4, 71326, Note_on_c, 0, 62, 0
4, 71424, Note_on_c, 0, 62, 100
4, 71614, Note_on_c, 0, 62, 0
4, 71808, Note_on_c, 0, 62, 100
4, 71998, Note_on_c, 0, 62, 0
4, 72576, Note_on_c, 0, 62, 100
4, 72766, Note_on_c, 0, 62, 0
4, 73728, Note_on_c, 0, 74, 100
4, 73918, Note_on_c, 0, 74, 0
4, 73920, Note_on_c, 0, 74, 100
4, 74110, Note_on_c, 0, 74, 0
4, 74304, Note_on_c, 0, 62, 100
4, 74494, Note_on_c, 0, 62, 0
4, 74880, Note_on_c, 0, 74, 100
4, 75070, Note_on_c, 0, 74, 0
4, 75648, Note_on_c, 0, 74, 100
4, 75838, Note_on_c, 0, 74, 0
4, 76320, Note_on_c, 0, 74, 100
4, 76414, Note_on_c, 0, 74, 0
4, 76800, Note_on_c, 0, 74, 100
4, 76990, Note_on_c, 0, 74, 0
4, 77184, Note_on_c, 0, 62, 100
4, 77374, Note_on_c, 0, 62, 0
4, 77760, Note_on_c, 0, 74, 100
4, 77950, Note_on_c, 0, 74, 0
4, 78336, Note_on_c, 0, 74, 100
4, 78526, Note_on_c, 0, 74, 0
4, 78528, Note_on_c, 0, 74, 100
4, 78718, Note_on_c, 0, 74, 0
4, 79104, Note_on_c, 0, 74, 100
4, 79294, Note_on_c, 0, 74, 0
4, 79488, Note_on_c, 0, 62, 100
4, 79678, Note_on_c, 0, 62, 0
4, 80256, Note_on_c, 0, 62, 100
4, 80446, Note_on_c, 0, 62, 0
4, 80832, Note_on_c, 0, 74, 100
4, 81022, Note_on_c, 0, 74, 0
4, 81408, Note_on_c, 0, 74, 100
4, 81748, Note_on_c, 0, 74, 0
4, 82176, Note_on_c, 0, 74, 100
4, 82366, Note_on_c, 0, 74, 0
4, 82560, Note_on_c, 0, 62, 100
4, 82750, Note_on_c, 0, 62, 0
4, 83136, Note_on_c, 0, 62, 100
4, 83286, Note_on_c, 0, 62, 0
4, 83328, Note_on_c, 0, 62, 100
4, 83328, Note_on_c, 0, 74, 100
4, 83478, Note_on_c, 0, 62, 0
4, 83518, Note_on_c, 0, 74, 0
4, 83520, Note_on_c, 0, 62, 100
4, 83616, Note_on_c, 0, 50, 100
4, 83710, Note_on_c, 0, 50, 0
4, 83710, Note_on_c, 0, 62, 0
4, 83904, Note_on_c, 0, 50, 100
4, 83998, Note_on_c, 0, 50, 0
4, 84288, Note_on_c, 0, 74, 100
4, 84384, Note_on_c, 0, 50, 100
4, 84458, Note_on_c, 0, 74, 0
4, 84478, Note_on_c, 0, 50, 0
4, 84672, Note_on_c, 0, 50, 100
4, 84766, Note_on_c, 0, 50, 0
4, 85056, Note_on_c, 0, 62, 100
4, 85056, Note_on_c, 0, 74, 100
4, 85152, Note_on_c, 0, 50, 100
4, 85216, Note_on_c, 0, 62, 0
4, 85246, Note_on_c, 0, 50, 0
4, 85246, Note_on_c, 0, 74, 0
4, 85440, Note_on_c, 0, 50, 100
4, 85534, Note_on_c, 0, 50, 0
4, 85632, Note_on_c, 0, 62, 100
4, 85632, Note_on_c, 0, 50, 100
4, 85772, Note_on_c, 0, 62, 0
4, 85822, Note_on_c, 0, 50, 0
4, 85824, Note_on_c, 0, 74, 100
4, 85824, Note_on_c, 0, 38, 100
4, 86014, Note_on_c, 0, 38, 0
4, 86014, Note_on_c, 0, 74, 0
4, 86016, Note_on_c, 0, 62, 100
4, 86206, Note_on_c, 0, 62, 0
4, 86208, Note_on_c, 0, 62, 100
4, 86368, Note_on_c, 0, 62, 0
4, 86400, Note_on_c, 0, 62, 100
4, 86590, Note_on_c, 0, 62, 0
4, 86592, Note_on_c, 0, 50, 100
4, 86688, Note_on_c, 0, 74, 100
4, 86782, Note_on_c, 0, 74, 0
4, 86782, Note_on_c, 0, 50, 0
4, 86976, Note_on_c, 0, 74, 100
4, 87070, Note_on_c, 0, 74, 0
4, 87456, Note_on_c, 0, 74, 100
4, 87550, Note_on_c, 0, 74, 0
4, 87744, Note_on_c, 0, 74, 100
4, 87838, Note_on_c, 0, 74, 0
4, 88224, Note_on_c, 0, 74, 100
4, 88318, Note_on_c, 0, 74, 0
4, 88608, Note_on_c, 0, 74, 100
4, 88702, Note_on_c, 0, 74, 0
4, 88704, Note_on_c, 0, 62, 100
4, 88704, Note_on_c, 0, 50, 100
4, 88894, Note_on_c, 0, 50, 0
4, 88894, Note_on_c, 0, 62, 0
4, 88896, Note_on_c, 0, 38, 100
4, 89086, Note_on_c, 0, 38, 0
4, 89880, Note_on_c, 0, 62, 100
4, 89880, Note_on_c, 0, 74, 100
4, 90070, Note_on_c, 0, 74, 0
4, 90070, Note_on_c, 0, 62, 0
4, 90264, Note_on_c, 0, 50, 100
4, 90264, Note_on_c, 0, 74, 100
4, 90424, Note_on_c, 0, 74, 0
4, 90454, Note_on_c, 0, 50, 0
4, 90456, Note_on_c, 0, 62, 100
4, 90552, Note_on_c, 0, 74, 100
4, 90646, Note_on_c, 0, 74, 0
4, 90646, Note_on_c, 0, 62, 0
4, 90648, Note_on_c, 0, 74, 100
4, 90768, Note_on_c, 0, 74, 0
4, 90856, Note_on_c, 0, 74, 100
4, 90976, Note_on_c, 0, 74, 0
4, 91248, Note_on_c, 0, 74, 100
4, 91342, Note_on_c, 0, 74, 0
4, 91824, Note_on_c, 0, 74, 100
4, 92014, Note_on_c, 0, 74, 0
4, 92016, Note_on_c, 0, 74, 100
4, 92206, Note_on_c, 0, 74, 0
4, 92400, Note_on_c, 0, 62, 100
4, 92494, Note_on_c, 0, 62, 0
4, 92592, Note_on_c, 0, 62, 100
4, 92782, Note_on_c, 0, 62, 0
4, 92880, Note_on_c, 0, 62, 100
4, 92974, Note_on_c, 0, 62, 0
4, 93168, Note_on_c, 0, 74, 100
4, 93262, Note_on_c, 0, 74, 0
4, 93360, Note_on_c, 0, 74, 100
4, 93550, Note_on_c, 0, 74, 0
4, 93648, Note_on_c, 0, 74, 100
4, 93742, Note_on_c, 0, 74, 0
4, 93936, Note_on_c, 0, 62, 100
4, 93936, Note_on_c, 0, 50, 100
4, 94126, Note_on_c, 0, 50, 0
4, 94126, Note_on_c, 0, 62, 0
4, 94128, Note_on_c, 0, 62, 100
4, 94318, Note_on_c, 0, 62, 0
4, 94416, Note_on_c, 0, 50, 100
4, 94510, Note_on_c, 0, 50, 0
4, 94704, Note_on_c, 0, 62, 100
4, 94704, Note_on_c, 0, 50, 100
4, 94894, Note_on_c, 0, 50, 0
4, 94894, Note_on_c, 0, 62, 0
4, 94896, Note_on_c, 0, 62, 100
4, 95086, Note_on_c, 0, 62, 0
4, 95184, Note_on_c, 0, 62, 100
4, 95278, Note_on_c, 0, 62, 0
4, 95280, Note_on_c, 0, 62, 100
4, 95280, Note_on_c, 0, 50, 100
4, 95470, Note_on_c, 0, 50, 0
4, 95470, Note_on_c, 0, 62, 0
4, 95496, Note_on_c, 0, 62, 100
4, 95496, Note_on_c, 0, 74, 100
4, 95686, Note_on_c, 0, 74, 0
4, 95686, Note_on_c, 0, 62, 0
4, 96072, Note_on_c, 0, 62, 100
4, 96072, Note_on_c, 0, 74, 100
4, 96452, Note_on_c, 0, 74, 0
4, 96452, Note_on_c, 0, 62, 0
4, 96840, Note_on_c, 0, 74, 100
4, 97220, Note_on_c, 0, 74, 0
4, 97608, Note_on_c, 0, 74, 100
4, 97798, Note_on_c, 0, 74, 0
4, 97800, Note_on_c, 0, 74, 100
4, 98180, Note_on_c, 0, 74, 0
4, 98280, Note_on_c, 0, 74, 100
4, 98374, Note_on_c, 0, 74, 0
4, 98376, Note_on_c, 0, 50, 100
4, 98376, Note_on_c, 0, 74, 100
4, 98566, Note_on_c, 0, 74, 0
4, 98566, Note_on_c, 0, 50, 0
4, 98568, Note_on_c, 0, 62, 100
4, 98758, Note_on_c, 0, 62, 0
4, 99336, Note_on_c, 0, 62, 100
4, 99716, Note_on_c, 0, 62, 0
4, 99912, Note_on_c, 0, 50, 100
4, 99912, Note_on_c, 0, 62, 100
4, 100102, Note_on_c, 0, 62, 0
4, 100102, Note_on_c, 0, 50, 0
4, 100104, Note_on_c, 0, 50, 100
4, 100104, Note_on_c, 0, 62, 100
4, 100198, Note_on_c, 0, 62, 0
4, 100294, Note_on_c, 0, 50, 0
4, 100488, Note_on_c, 0, 50, 100
4, 100582, Note_on_c, 0, 50, 0
4, 100680, Note_on_c, 0, 50, 100
4, 100870, Note_on_c, 0, 50, 0
4, 100872, Note_on_c, 0, 62, 100
4, 101252, Note_on_c, 0, 62, 0
4, 101448, Note_on_c, 0, 62, 100
4, 101638, Note_on_c, 0, 62, 0
4, 102024, Note_on_c, 0, 62, 100
4, 102214, Note_on_c, 0, 62, 0
4, 102408, Note_on_c, 0, 74, 100
4, 102598, Note_on_c, 0, 74, 0
4, 102792, Note_on_c, 0, 74, 100
4, 102886, Note_on_c, 0, 74, 0
4, 102984, Note_on_c, 0, 74, 100
4, 102984, Note_on_c, 0, 62, 100
4, 103174, Note_on_c, 0, 62, 0
4, 103174, Note_on_c, 0, 74, 0
4, 103368, Note_on_c, 0, 50, 100
4, 103558, Note_on_c, 0, 50, 0
4, 103752, Note_on_c, 0, 74, 100
4, 103942, Note_on_c, 0, 74, 0
4, 103944, Note_on_c, 0, 62, 100
4, 104134, Note_on_c, 0, 62, 0
4, 104136, Note_on_c, 0, 50, 100
4, 104136, Note_on_c, 0, 62, 100
4, 104326, Note_on_c, 0, 62, 0
4, 104326, Note_on_c, 0, 50, 0
4, 104520, Note_on_c, 0, 74, 100
4, 104710, Note_on_c, 0, 74, 0
4, 104712, Note_on_c, 0, 62, 100
4, 104902, Note_on_c, 0, 62, 0
4, 104904, Note_on_c, 0, 50, 100
4, 104904, Note_on_c, 0, 62, 100
4, 105094, Note_on_c, 0, 62, 0
4, 105094, Note_on_c, 0, 50, 0
4, 105096, Note_on_c, 0, 38, 100
4, 105096, Note_on_c, 0, 74, 100
4, 105286, Note_on_c, 0, 74, 0
4, 105286, Note_on_c, 0, 38, 0
4, 105288, Note_on_c, 0, 62, 100
4, 105418, Note_on_c, 0, 62, 0
4, 106056, Note_on_c, 0, 74, 100
4, 106256, Note_on_c, 0, 74, 0
4, 106264, Note_on_c, 0, 62, 100
4, 106384, Note_on_c, 0, 62, 0
4, 106848, Note_on_c, 0, 62, 100
4, 107228, Note_on_c, 0, 62, 0
4, 107232, Note_on_c, 0, 50, 100
4, 107422, Note_on_c, 0, 50, 0
4, 107616, Note_on_c, 0, 62, 100
4, 107996, Note_on_c, 0, 62, 0
4, 108000, Note_on_c, 0, 50, 100
4, 108190, Note_on_c, 0, 50, 0
4, 108384, Note_on_c, 0, 62, 100
4, 108504, Note_on_c, 0, 62, 0
4, 109152, Note_on_c, 0, 74, 100
4, 109342, Note_on_c, 0, 74, 0
4, 109344, Note_on_c, 0, 74, 100
4, 109464, Note_on_c, 0, 74, 0
4, 109920, Note_on_c, 0, 62, 100
4, 110110, Note_on_c, 0, 62, 0
4, 110304, Note_on_c, 0, 74, 100
4, 110494, Note_on_c, 0, 74, 0
4, 110688, Note_on_c, 0, 62, 100
4, 110878, Note_on_c, 0, 62, 0
4, 111072, Note_on_c, 0, 74, 100
4, 111262, Note_on_c, 0, 74, 0
4, 111456, Note_on_c, 0, 74, 100
4, 111646, Note_on_c, 0, 74, 0
4, 112128, Note_on_c, 0, 74, 100
4, 112222, Note_on_c, 0, 74, 0
4, 112416, Note_on_c, 0, 74, 100
4, 112510, Note_on_c, 0, 74, 0
4, 112608, Note_on_c, 0, 74, 100
4, 112798, Note_on_c, 0, 74, 0
4, 113184, Note_on_c, 0, 74, 100
4, 113374, Note_on_c, 0, 74, 0
4, 113760, Note_on_c, 0, 74, 100
4, 113950, Note_on_c, 0, 74, 0
4, 113952, Note_on_c, 0, 74, 100
4, 114142, Note_on_c, 0, 74, 0
4, 114528, Note_on_c, 0, 74, 100
4, 114718, Note_on_c, 0, 74, 0
4, 114912, Note_on_c, 0, 74, 100
4, 115102, Note_on_c, 0, 74, 0
4, 115296, Note_on_c, 0, 62, 100
4, 115486, Note_on_c, 0, 62, 0
4, 115680, Note_on_c, 0, 62, 100
4, 115870, Note_on_c, 0, 62, 0
4, 116256, Note_on_c, 0, 62, 100
4, 116446, Note_on_c, 0, 62, 0
4, 116832, Note_on_c, 0, 62, 100
4, 117022, Note_on_c, 0, 62, 0
4, 117024, Note_on_c, 0, 62, 100
4, 117214, Note_on_c, 0, 62, 0
4, 117600, Note_on_c, 0, 62, 100
4, 117790, Note_on_c, 0, 62, 0
4, 118008, Note_on_c, 0, 62, 100
4, 118198, Note_on_c, 0, 62, 0
4, 118316, Note_on_c, 0, 62, 100
4, 118414, Note_on_c, 0, 62, 0
4, 118496, Note_on_c, 0, 50, 100
4, 119646, Note_on_c, 0, 50, 0
4, 119648, Note_on_c, 0, 50, 100
4, 120030, Note_on_c, 0, 50, 0
4, 120032, Note_on_c, 0, 50, 100
4, 120414, Note_on_c, 0, 50, 0
4, 120416, Note_on_c, 0, 62, 100
4, 120416, Note_on_c, 0, 50, 100
4, 120510, Note_on_c, 0, 62, 0
4, 120608, Note_on_c, 0, 62, 100
4, 120702, Note_on_c, 0, 62, 0
4, 120798, Note_on_c, 0, 50, 0
4, 120800, Note_on_c, 0, 50, 100
4, 121248, Note_on_c, 0, 74, 100
4, 121342, Note_on_c, 0, 74, 0
4, 121567, Note_on_c, 0, 50, 0
4, 121616, Note_on_c, 0, 74, 100
4, 122000, Note_on_c, 0, 62, 100
4, 122191, Note_on_c, 0, 74, 0
4, 122380, Note_on_c, 0, 62, 0
4, 122384, Note_on_c, 0, 62, 100
4, 122764, Note_on_c, 0, 62, 0
4, 122768, Note_on_c, 0, 62, 100
4, 123148, Note_on_c, 0, 62, 0
4, 123618, Note_on_c, 0, 74, 100
4, 123664, Note_on_c, 0, 74, 0
4, 123821, Note_on_c, 0, 74, 100
4, 123915, Note_on_c, 0, 74, 0
4, 125264, Note_on_c, 0, 74, 100
4, 125358, Note_on_c, 0, 74, 0
4, 125456, Note_on_c, 0, 62, 100
4, 126031, Note_on_c, 0, 62, 0
4, 126128, Note_on_c, 0, 62, 100
4, 126222, Note_on_c, 0, 62, 0
4, 126224, Note_on_c, 0, 62, 100
4, 126224, Note_on_c, 0, 74, 100
4, 126990, Note_on_c, 0, 74, 0
4, 126990, Note_on_c, 0, 62, 0
4, 127760, Note_on_c, 0, 62, 100
4, 128527, Note_on_c, 0, 62, 0
4, 129200, Note_on_c, 0, 62, 100
4, 129294, Note_on_c, 0, 62, 0
4, 129296, Note_on_c, 0, 62, 100
4, 130063, Note_on_c, 0, 62, 0
4, 131024, Note_on_c, 0, 74, 100
4, 131214, Note_on_c, 0, 74, 0
4, 133136, Note_on_c, 0, 62, 100
4, 133136, Note_on_c, 0, 50, 100
4, 133902, Note_on_c, 0, 62, 0
4, 134536, Note_on_c, 0, 50, 0
4, 135728, Note_on_c, 0, 74, 100
4, 135822, Note_on_c, 0, 74, 0
4, 135920, Note_on_c, 0, 74, 100
4, 136014, Note_on_c, 0, 74, 0
4, 138032, Note_on_c, 0, 74, 100
4, 138126, Note_on_c, 0, 74, 0
4, 138224, Note_on_c, 0, 74, 100
4, 138318, Note_on_c, 0, 74, 0
4, 138512, Note_on_c, 0, 50, 100
4, 139278, Note_on_c, 0, 50, 0
4, 139280, Note_on_c, 0, 62, 100
4, 139470, Note_on_c, 0, 62, 0
4, 139472, Note_on_c, 0, 62, 100
4, 139566, Note_on_c, 0, 62, 0
4, 139856, Note_on_c, 0, 62, 100
4, 140046, Note_on_c, 0, 62, 0
4, 140240, Note_on_c, 0, 50, 100
4, 140334, Note_on_c, 0, 50, 0
4, 140624, Note_on_c, 0, 50, 100
4, 140814, Note_on_c, 0, 50, 0
4, 141584, Note_on_c, 0, 62, 100
4, 141584, Note_on_c, 0, 50, 100
4, 143784, Note_on_c, 0, 50, 0
4, 143784, Note_on_c, 0, 62, 0
4, 144264, Note_on_c, 0, 62, 100
4, 144374, Note_on_c, 0, 62, 0
4, 145536, Note_on_c, 0, 62, 100
4, 145790, Note_on_c, 0, 62, 0
4, 145801, Note_on_c, 0, 62, 100
4, 145911, Note_on_c, 0, 62, 0
4, 150528, Note_on_c, 0, 62, 100
4, 150782, Note_on_c, 0, 62, 0
4, 150789, Note_on_c, 0, 62, 100
4, 150907, Note_on_c, 0, 62, 0
4, 152064, Note_on_c, 0, 62, 100
4, 152182, Note_on_c, 0, 62, 0
4, 152325, Note_on_c, 0, 62, 100
4, 152443, Note_on_c, 0, 62, 0
4, 152448, Note_on_c, 0, 50, 100
4, 152566, Note_on_c, 0, 50, 0
4, 152576, Note_on_c, 0, 62, 100
4, 152694, Note_on_c, 0, 62, 0
4, 152709, Note_on_c, 0, 50, 100
4, 152827, Note_on_c, 0, 50, 0
4, 152960, Note_on_c, 0, 62, 100
4, 153078, Note_on_c, 0, 62, 0
4, 153600, Note_on_c, 0, 62, 100
4, 153854, Note_on_c, 0, 62, 0
4, 153984, Note_on_c, 0, 62, 100
4, 154238, Note_on_c, 0, 62, 0
4, 154368, Note_on_c, 0, 62, 100
4, 154622, Note_on_c, 0, 62, 0
4, 154752, Note_on_c, 0, 62, 100
4, 155006, Note_on_c, 0, 62, 0
4, 155136, Note_on_c, 0, 62, 100
4, 155390, Note_on_c, 0, 62, 0
4, 155520, Note_on_c, 0, 62, 100
4, 155774, Note_on_c, 0, 62, 0
4, 155904, Note_on_c, 0, 62, 100
4, 156160, Note_on_c, 0, 50, 100
4, 156286, Note_on_c, 0, 62, 0
4, 156288, Note_on_c, 0, 62, 100
4, 156406, Note_on_c, 0, 62, 0
4, 156542, Note_on_c, 0, 50, 0
4, 156544, Note_on_c, 0, 50, 100
4, 156544, Note_on_c, 0, 62, 100
4, 156662, Note_on_c, 0, 62, 0
4, 156662, Note_on_c, 0, 50, 0
4, 156800, Note_on_c, 0, 62, 100
4, 156918, Note_on_c, 0, 62, 0
4, 157184, Note_on_c, 0, 62, 100
4, 157302, Note_on_c, 0, 62, 0
4, 157824, Note_on_c, 0, 50, 100
4, 158078, Note_on_c, 0, 50, 0
4, 158080, Note_on_c, 0, 50, 100
4, 158198, Note_on_c, 0, 50, 0
4, 158208, Note_on_c, 0, 62, 100
4, 158462, Note_on_c, 0, 62, 0
4, 158464, Note_on_c, 0, 62, 100
4, 158582, Note_on_c, 0, 62, 0
4, 159744, Note_on_c, 0, 50, 100
4, 159872, Note_on_c, 0, 62, 100
4, 159990, Note_on_c, 0, 62, 0
4, 160319, Note_on_c, 0, 50, 0
4, 160384, Note_on_c, 0, 50, 100
4, 160502, Note_on_c, 0, 50, 0
4, 160512, Note_on_c, 0, 50, 100
4, 160640, Note_on_c, 0, 62, 100
4, 160758, Note_on_c, 0, 62, 0
4, 161087, Note_on_c, 0, 50, 0
4, 161152, Note_on_c, 0, 50, 100
4, 161270, Note_on_c, 0, 50, 0
4, 161280, Note_on_c, 0, 50, 100
4, 161408, Note_on_c, 0, 62, 100
4, 161526, Note_on_c, 0, 62, 0
4, 161855, Note_on_c, 0, 50, 0
4, 161920, Note_on_c, 0, 50, 100
4, 162038, Note_on_c, 0, 50, 0
4, 162048, Note_on_c, 0, 50, 100
4, 162428, Note_on_c, 0, 50, 0
4, 162688, Note_on_c, 0, 74, 100
4, 162806, Note_on_c, 0, 74, 0
4, 162816, Note_on_c, 0, 74, 100
4, 163070, Note_on_c, 0, 74, 0
4, 163072, Note_on_c, 0, 74, 100
4, 163190, Note_on_c, 0, 74, 0
4, 163200, Note_on_c, 0, 74, 100
4, 163454, Note_on_c, 0, 74, 0
4, 163456, Note_on_c, 0, 74, 100
4, 163574, Note_on_c, 0, 74, 0
4, 164352, Note_on_c, 0, 50, 100
4, 164352, Note_on_c, 0, 74, 100
4, 164470, Note_on_c, 0, 50, 0
4, 164606, Note_on_c, 0, 74, 0
4, 164608, Note_on_c, 0, 50, 100
4, 164608, Note_on_c, 0, 74, 100
4, 164726, Note_on_c, 0, 74, 0
4, 164726, Note_on_c, 0, 50, 0
4, 164736, Note_on_c, 0, 38, 100
4, 164736, Note_on_c, 0, 74, 100
4, 164854, Note_on_c, 0, 38, 0
4, 164864, Note_on_c, 0, 50, 100
4, 164982, Note_on_c, 0, 50, 0
4, 164990, Note_on_c, 0, 74, 0
4, 164992, Note_on_c, 0, 38, 100
4, 164992, Note_on_c, 0, 74, 100
4, 165110, Note_on_c, 0, 74, 0
4, 165110, Note_on_c, 0, 38, 0
4, 165248, Note_on_c, 0, 50, 100
4, 165366, Note_on_c, 0, 50, 0
4, 165888, Note_on_c, 0, 74, 100
4, 166142, Note_on_c, 0, 74, 0
4, 166272, Note_on_c, 0, 74, 100
4, 166526, Note_on_c, 0, 74, 0
4, 166656, Note_on_c, 0, 74, 100
4, 166910, Note_on_c, 0, 74, 0
4, 167040, Note_on_c, 0, 74, 100
4, 167294, Note_on_c, 0, 74, 0
4, 167424, Note_on_c, 0, 74, 100
4, 167678, Note_on_c, 0, 74, 0
4, 167808, Note_on_c, 0, 74, 100
4, 168062, Note_on_c, 0, 74, 0
4, 168192, Note_on_c, 0, 74, 100
4, 168446, Note_on_c, 0, 74, 0
4, 168448, Note_on_c, 0, 38, 100
4, 168448, Note_on_c, 0, 62, 100
4, 168566, Note_on_c, 0, 62, 0
4, 168566, Note_on_c, 0, 38, 0
4, 168576, Note_on_c, 0, 74, 100
4, 168694, Note_on_c, 0, 74, 0
4, 168832, Note_on_c, 0, 74, 100
4, 168950, Note_on_c, 0, 74, 0
4, 169088, Note_on_c, 0, 74, 100
4, 169206, Note_on_c, 0, 74, 0
4, 169472, Note_on_c, 0, 74, 100
4, 169590, Note_on_c, 0, 74, 0
4, 169728, Note_on_c, 0, 62, 100
4, 169982, Note_on_c, 0, 62, 0
4, 169984, Note_on_c, 0, 62, 100
4, 170102, Note_on_c, 0, 62, 0
4, 170112, Note_on_c, 0, 50, 100
4, 170112, Note_on_c, 0, 74, 100
4, 170366, Note_on_c, 0, 74, 0
4, 170366, Note_on_c, 0, 50, 0
4, 170368, Note_on_c, 0, 62, 100
4, 170368, Note_on_c, 0, 74, 100
4, 170486, Note_on_c, 0, 74, 0
4, 170486, Note_on_c, 0, 62, 0
4, 170752, Note_on_c, 0, 62, 100
4, 170870, Note_on_c, 0, 62, 0
4, 171904, Note_on_c, 0, 50, 100
4, 172022, Note_on_c, 0, 50, 0
4, 172160, Note_on_c, 0, 74, 100
4, 172278, Note_on_c, 0, 74, 0
4, 172672, Note_on_c, 0, 50, 100
4, 172790, Note_on_c, 0, 50, 0
4, 172928, Note_on_c, 0, 74, 100
4, 173046, Note_on_c, 0, 74, 0
4, 173440, Note_on_c, 0, 50, 100
4, 173558, Note_on_c, 0, 50, 0
4, 173696, Note_on_c, 0, 74, 100
4, 173814, Note_on_c, 0, 74, 0
4, 174208, Note_on_c, 0, 50, 100
4, 174326, Note_on_c, 0, 50, 0
4, 174720, Note_on_c, 0, 74, 100
4, 174838, Note_on_c, 0, 74, 0
4, 174976, Note_on_c, 0, 62, 100
4, 174976, Note_on_c, 0, 74, 100
4, 175094, Note_on_c, 0, 74, 0
4, 175094, Note_on_c, 0, 62, 0
4, 175232, Note_on_c, 0, 74, 100
4, 175350, Note_on_c, 0, 74, 0
4, 175616, Note_on_c, 0, 74, 100
4, 175734, Note_on_c, 0, 74, 0
4, 176256, Note_on_c, 0, 62, 100
4, 176510, Note_on_c, 0, 62, 0
4, 176512, Note_on_c, 0, 62, 100
4, 176630, Note_on_c, 0, 62, 0
4, 178304, Note_on_c, 0, 74, 100
4, 178422, Note_on_c, 0, 74, 0
4, 179072, Note_on_c, 0, 74, 100
4, 179190, Note_on_c, 0, 74, 0
4, 179840, Note_on_c, 0, 74, 100
4, 179958, Note_on_c, 0, 74, 0
4, 181248, Note_on_c, 0, 74, 100
4, 181366, Note_on_c, 0, 74, 0
4, 181632, Note_on_c, 0, 74, 100
4, 181750, Note_on_c, 0, 74, 0
4, 181888, Note_on_c, 0, 62, 100
4, 182006, Note_on_c, 0, 62, 0
4, 182272, Note_on_c, 0, 50, 100
4, 182390, Note_on_c, 0, 50, 0
4, 182656, Note_on_c, 0, 74, 100
4, 182774, Note_on_c, 0, 74, 0
4, 182784, Note_on_c, 0, 62, 100
4, 183038, Note_on_c, 0, 62, 0
4, 183040, Note_on_c, 0, 62, 100
4, 183158, Note_on_c, 0, 62, 0
4, 183168, Note_on_c, 0, 74, 100
4, 183422, Note_on_c, 0, 74, 0
4, 183424, Note_on_c, 0, 74, 100
4, 183542, Note_on_c, 0, 74, 0
4, 184320, Note_on_c, 0, 50, 100
4, 184438, Note_on_c, 0, 50, 0
4, 184576, Note_on_c, 0, 50, 100
4, 184694, Note_on_c, 0, 50, 0
4, 184704, Note_on_c, 0, 62, 100
4, 184822, Note_on_c, 0, 62, 0
4, 184832, Note_on_c, 0, 50, 100
4, 184950, Note_on_c, 0, 50, 0
4, 184960, Note_on_c, 0, 62, 100
4, 185078, Note_on_c, 0, 62, 0
4, 185216, Note_on_c, 0, 50, 100
4, 185334, Note_on_c, 0, 50, 0
4, 185856, Note_on_c, 0, 62, 100
4, 186110, Note_on_c, 0, 62, 0
4, 186240, Note_on_c, 0, 62, 100
4, 186494, Note_on_c, 0, 62, 0
4, 186624, Note_on_c, 0, 62, 100
4, 186878, Note_on_c, 0, 62, 0
4, 187008, Note_on_c, 0, 62, 100
4, 187262, Note_on_c, 0, 62, 0
4, 187392, Note_on_c, 0, 62, 100
4, 187646, Note_on_c, 0, 62, 0
4, 187776, Note_on_c, 0, 62, 100
4, 188030, Note_on_c, 0, 62, 0
4, 188160, Note_on_c, 0, 62, 100
4, 188414, Note_on_c, 0, 62, 0
4, 188544, Note_on_c, 0, 62, 100
4, 188672, Note_on_c, 0, 74, 100
4, 188790, Note_on_c, 0, 74, 0
4, 188798, Note_on_c, 0, 62, 0
4, 188928, Note_on_c, 0, 62, 100
4, 189182, Note_on_c, 0, 62, 0
4, 189568, Note_on_c, 0, 74, 100
4, 189686, Note_on_c, 0, 74, 0
4, 189952, Note_on_c, 0, 74, 100
4, 190070, Note_on_c, 0, 74, 0
4, 190208, Note_on_c, 0, 74, 100
4, 190326, Note_on_c, 0, 74, 0
4, 190336, Note_on_c, 0, 50, 100
4, 190454, Note_on_c, 0, 50, 0
4, 190592, Note_on_c, 0, 74, 100
4, 190710, Note_on_c, 0, 74, 0
4, 190720, Note_on_c, 0, 50, 100
4, 190838, Note_on_c, 0, 50, 0
4, 191232, Note_on_c, 0, 50, 100
4, 191486, Note_on_c, 0, 50, 0
4, 191488, Note_on_c, 0, 38, 100
4, 191488, Note_on_c, 0, 62, 100
4, 191606, Note_on_c, 0, 62, 0
4, 191606, Note_on_c, 0, 38, 0
4, 191616, Note_on_c, 0, 62, 100
4, 191734, Note_on_c, 0, 62, 0
4, 191872, Note_on_c, 0, 62, 100
4, 191990, Note_on_c, 0, 62, 0
4, 192128, Note_on_c, 0, 62, 100
4, 192246, Note_on_c, 0, 62, 0
4, 192512, Note_on_c, 0, 62, 100
4, 192630, Note_on_c, 0, 62, 0
4, 192768, Note_on_c, 0, 62, 100
4, 193022, Note_on_c, 0, 62, 0
4, 193024, Note_on_c, 0, 62, 100
4, 193142, Note_on_c, 0, 62, 0
4, 193152, Note_on_c, 0, 62, 100
4, 193406, Note_on_c, 0, 62, 0
4, 193408, Note_on_c, 0, 62, 100
4, 193526, Note_on_c, 0, 62, 0
4, 195072, Note_on_c, 0, 74, 100
4, 195200, Note_on_c, 0, 62, 100
4, 195318, Note_on_c, 0, 62, 0
4, 195647, Note_on_c, 0, 74, 0
4, 195840, Note_on_c, 0, 74, 100
4, 195968, Note_on_c, 0, 62, 100
4, 196086, Note_on_c, 0, 62, 0
4, 196415, Note_on_c, 0, 74, 0
4, 196608, Note_on_c, 0, 74, 100
4, 196736, Note_on_c, 0, 62, 100
4, 196854, Note_on_c, 0, 62, 0
4, 197183, Note_on_c, 0, 74, 0
4, 197376, Note_on_c, 0, 74, 100
4, 197632, Note_on_c, 0, 62, 100
4, 197752, Note_on_c, 0, 62, 0
4, 197756, Note_on_c, 0, 74, 0
4, 198016, Note_on_c, 0, 50, 100
4, 198016, Note_on_c, 0, 74, 100
4, 198134, Note_on_c, 0, 74, 0
4, 198134, Note_on_c, 0, 50, 0
4, 198272, Note_on_c, 0, 74, 100
4, 198390, Note_on_c, 0, 74, 0
4, 198656, Note_on_c, 0, 74, 100
4, 198774, Note_on_c, 0, 74, 0
4, 199296, Note_on_c, 0, 50, 100
4, 199550, Note_on_c, 0, 50, 0
4, 199552, Note_on_c, 0, 50, 100
4, 199670, Note_on_c, 0, 50, 0
4, 199680, Note_on_c, 0, 74, 100
4, 199934, Note_on_c, 0, 74, 0
4, 199936, Note_on_c, 0, 74, 100
4, 200054, Note_on_c, 0, 74, 0
4, 201088, Note_on_c, 0, 74, 100
4, 201206, Note_on_c, 0, 74, 0
4, 201344, Note_on_c, 0, 74, 100
4, 201462, Note_on_c, 0, 74, 0
4, 201856, Note_on_c, 0, 62, 100
4, 201974, Note_on_c, 0, 62, 0
4, 201984, Note_on_c, 0, 62, 100
4, 202112, Note_on_c, 0, 74, 100
4, 202230, Note_on_c, 0, 74, 0
4, 202559, Note_on_c, 0, 62, 0
4, 202624, Note_on_c, 0, 62, 100
4, 202742, Note_on_c, 0, 62, 0
4, 202752, Note_on_c, 0, 62, 100
4, 202880, Note_on_c, 0, 74, 100
4, 202998, Note_on_c, 0, 74, 0
4, 203327, Note_on_c, 0, 62, 0
4, 203392, Note_on_c, 0, 62, 100
4, 203510, Note_on_c, 0, 62, 0
4, 203520, Note_on_c, 0, 62, 100
4, 203710, Note_on_c, 0, 62, 0
4, 204032, Note_on_c, 0, 50, 100
4, 204150, Note_on_c, 0, 50, 0
4, 204288, Note_on_c, 0, 50, 100
4, 204542, Note_on_c, 0, 50, 0
4, 204544, Note_on_c, 0, 38, 100
4, 204544, Note_on_c, 0, 74, 100
4, 204662, Note_on_c, 0, 74, 0
4, 204662, Note_on_c, 0, 38, 0
4, 204672, Note_on_c, 0, 74, 100
4, 204926, Note_on_c, 0, 74, 0
4, 204928, Note_on_c, 0, 38, 100
4, 205046, Note_on_c, 0, 38, 0
4, 205440, Note_on_c, 0, 62, 100
4, 205694, Note_on_c, 0, 62, 0
4, 206976, Note_on_c, 0, 62, 100
4, 206976, Note_on_c, 0, 74, 100
4, 207094, Note_on_c, 0, 74, 0
4, 207094, Note_on_c, 0, 62, 0
4, 207232, Note_on_c, 0, 74, 100
4, 207350, Note_on_c, 0, 74, 0
4, 207488, Note_on_c, 0, 74, 100
4, 207606, Note_on_c, 0, 74, 0
4, 207872, Note_on_c, 0, 74, 100
4, 207990, Note_on_c, 0, 74, 0
4, 208512, Note_on_c, 0, 74, 100
4, 208766, Note_on_c, 0, 74, 0
4, 208768, Note_on_c, 0, 74, 100
4, 208886, Note_on_c, 0, 74, 0
4, 208896, Note_on_c, 0, 50, 100
4, 209150, Note_on_c, 0, 50, 0
4, 209152, Note_on_c, 0, 62, 100
4, 209270, Note_on_c, 0, 62, 0
4, 210560, Note_on_c, 0, 74, 100
4, 210678, Note_on_c, 0, 74, 0
4, 210816, Note_on_c, 0, 50, 100
4, 211070, Note_on_c, 0, 50, 0
4, 211200, Note_on_c, 0, 50, 100
4, 211328, Note_on_c, 0, 74, 100
4, 211446, Note_on_c, 0, 74, 0
4, 211775, Note_on_c, 0, 50, 0
4, 211968, Note_on_c, 0, 50, 100
4, 212096, Note_on_c, 0, 74, 100
4, 212214, Note_on_c, 0, 74, 0
4, 212543, Note_on_c, 0, 50, 0
4, 212736, Note_on_c, 0, 50, 100
4, 212990, Note_on_c, 0, 50, 0
4, 212992, Note_on_c, 0, 62, 100
4, 212992, Note_on_c, 0, 74, 100
4, 213110, Note_on_c, 0, 62, 0
4, 213760, Note_on_c, 0, 50, 100
4, 213878, Note_on_c, 0, 50, 0
4, 214142, Note_on_c, 0, 74, 0
4, 214272, Note_on_c, 0, 50, 100
4, 214272, Note_on_c, 0, 74, 100
4, 214462, Note_on_c, 0, 74, 0
4, 214526, Note_on_c, 0, 50, 0
4, 214528, Note_on_c, 0, 50, 100
4, 214646, Note_on_c, 0, 50, 0
4, 214912, Note_on_c, 0, 62, 100
4, 215030, Note_on_c, 0, 62, 0
4, 215808, Note_on_c, 0, 50, 100
4, 215926, Note_on_c, 0, 50, 0
4, 216064, Note_on_c, 0, 50, 100
4, 216182, Note_on_c, 0, 50, 0
4, 216192, Note_on_c, 0, 38, 100
4, 216192, Note_on_c, 0, 62, 100
4, 216310, Note_on_c, 0, 38, 0
4, 216320, Note_on_c, 0, 50, 100
4, 216438, Note_on_c, 0, 50, 0
4, 216446, Note_on_c, 0, 62, 0
4, 216448, Note_on_c, 0, 38, 100
4, 216566, Note_on_c, 0, 38, 0
4, 216704, Note_on_c, 0, 50, 100
4, 216822, Note_on_c, 0, 50, 0
4, 217344, Note_on_c, 0, 50, 100
4, 217598, Note_on_c, 0, 50, 0
4, 217728, Note_on_c, 0, 50, 100
4, 217982, Note_on_c, 0, 50, 0
4, 218112, Note_on_c, 0, 50, 100
4, 218366, Note_on_c, 0, 50, 0
4, 218496, Note_on_c, 0, 50, 100
4, 218750, Note_on_c, 0, 50, 0
4, 218880, Note_on_c, 0, 50, 100
4, 219134, Note_on_c, 0, 50, 0
4, 219264, Note_on_c, 0, 50, 100
4, 219518, Note_on_c, 0, 50, 0
4, 219648, Note_on_c, 0, 50, 100
4, 219902, Note_on_c, 0, 50, 0
4, 219904, Note_on_c, 0, 38, 100
4, 219904, Note_on_c, 0, 50, 100
4, 220022, Note_on_c, 0, 50, 0
4, 220022, Note_on_c, 0, 38, 0
4, 220032, Note_on_c, 0, 50, 100
4, 220286, Note_on_c, 0, 50, 0
4, 220288, Note_on_c, 0, 62, 100
4, 220406, Note_on_c, 0, 62, 0
4, 220416, Note_on_c, 0, 38, 100
4, 220416, Note_on_c, 0, 50, 100
4, 220416, Note_on_c, 0, 62, 100
4, 220534, Note_on_c, 0, 62, 0
4, 220670, Note_on_c, 0, 50, 0
4, 220672, Note_on_c, 0, 50, 100
4, 220790, Note_on_c, 0, 50, 0
4, 220796, Note_on_c, 0, 38, 0
4, 221056, Note_on_c, 0, 74, 100
4, 221174, Note_on_c, 0, 74, 0
4, 221696, Note_on_c, 0, 50, 100
4, 221814, Note_on_c, 0, 50, 0
4, 222336, Note_on_c, 0, 74, 100
4, 222590, Note_on_c, 0, 74, 0
4, 222592, Note_on_c, 0, 74, 100
4, 222710, Note_on_c, 0, 74, 0
4, 222720, Note_on_c, 0, 62, 100
4, 223295, Note_on_c, 0, 62, 0
4, 224256, Note_on_c, 0, 62, 100
4, 224376, Note_on_c, 0, 62, 0
4, 224384, Note_on_c, 0, 62, 100
4, 224764, Note_on_c, 0, 62, 0
4, 225024, Note_on_c, 0, 62, 100
4, 225144, Note_on_c, 0, 62, 0
4, 225152, Note_on_c, 0, 62, 100
4, 225532, Note_on_c, 0, 62, 0
4, 225792, Note_on_c, 0, 62, 100
4, 225912, Note_on_c, 0, 62, 0
4, 225920, Note_on_c, 0, 62, 100
4, 226300, Note_on_c, 0, 62, 0
4, 226560, Note_on_c, 0, 62, 100
4, 226750, Note_on_c, 0, 62, 0
4, 226816, Note_on_c, 0, 62, 100
4, 226934, Note_on_c, 0, 62, 0
4, 227072, Note_on_c, 0, 50, 100
4, 227190, Note_on_c, 0, 50, 0
4, 227968, Note_on_c, 0, 50, 100
4, 228086, Note_on_c, 0, 50, 0
4, 228096, Note_on_c, 0, 62, 100
4, 228350, Note_on_c, 0, 62, 0
4, 228352, Note_on_c, 0, 62, 100
4, 228470, Note_on_c, 0, 62, 0
4, 229632, Note_on_c, 0, 74, 100
4, 229750, Note_on_c, 0, 74, 0
4, 229888, Note_on_c, 0, 74, 100
4, 230006, Note_on_c, 0, 74, 0
4, 230016, Note_on_c, 0, 62, 100
4, 230134, Note_on_c, 0, 62, 0
4, 230144, Note_on_c, 0, 74, 100
4, 230262, Note_on_c, 0, 74, 0
4, 230272, Note_on_c, 0, 62, 100
4, 230390, Note_on_c, 0, 62, 0
4, 230656, Note_on_c, 0, 62, 100
4, 230774, Note_on_c, 0, 62, 0
4, 231040, Note_on_c, 0, 62, 100
4, 231158, Note_on_c, 0, 62, 0
4, 231424, Note_on_c, 0, 74, 100
4, 231542, Note_on_c, 0, 74, 0
4, 231808, Note_on_c, 0, 62, 100
4, 231926, Note_on_c, 0, 62, 0
4, 232192, Note_on_c, 0, 62, 100
4, 232310, Note_on_c, 0, 62, 0
4, 232576, Note_on_c, 0, 62, 100
4, 232694, Note_on_c, 0, 62, 0
4, 232832, Note_on_c, 0, 62, 100
4, 232959, Note_on_c, 0, 62, 0
4, 233216, Note_on_c, 0, 74, 100
4, 233334, Note_on_c, 0, 74, 0
4, 233472, Note_on_c, 0, 62, 100
4, 233856, Note_on_c, 0, 50, 100
4, 234047, Note_on_c, 0, 62, 0
4, 234110, Note_on_c, 0, 50, 0
4, 234112, Note_on_c, 0, 50, 100
4, 234230, Note_on_c, 0, 50, 0
4, 235392, Note_on_c, 0, 74, 100
4, 235646, Note_on_c, 0, 74, 0
4, 235648, Note_on_c, 0, 74, 100
4, 235766, Note_on_c, 0, 74, 0
4, 235776, Note_on_c, 0, 74, 100
4, 236030, Note_on_c, 0, 74, 0
4, 236032, Note_on_c, 0, 74, 100
4, 236150, Note_on_c, 0, 74, 0
4, 236160, Note_on_c, 0, 74, 100
4, 236414, Note_on_c, 0, 74, 0
4, 236416, Note_on_c, 0, 74, 100
4, 236534, Note_on_c, 0, 74, 0
4, 236800, Note_on_c, 0, 74, 100
4, 236918, Note_on_c, 0, 74, 0
4, 237056, Note_on_c, 0, 74, 100
4, 237174, Note_on_c, 0, 74, 0
4, 237568, Note_on_c, 0, 62, 100
4, 237686, Note_on_c, 0, 62, 0
4, 237824, Note_on_c, 0, 62, 100
4, 237942, Note_on_c, 0, 62, 0
4, 237952, Note_on_c, 0, 74, 100
4, 238070, Note_on_c, 0, 74, 0
4, 238080, Note_on_c, 0, 74, 100
4, 238198, Note_on_c, 0, 74, 0
4, 238336, Note_on_c, 0, 74, 100
4, 238454, Note_on_c, 0, 74, 0
4, 238592, Note_on_c, 0, 74, 100
4, 238710, Note_on_c, 0, 74, 0
4, 239232, Note_on_c, 0, 74, 100
4, 239350, Note_on_c, 0, 74, 0
4, 240384, Note_on_c, 0, 50, 100
4, 240634, Note_on_c, 0, 50, 0
4, 240640, Note_on_c, 0, 50, 100
4, 240758, Note_on_c, 0, 50, 0
4, 240768, Note_on_c, 0, 74, 100
4, 240886, Note_on_c, 0, 74, 0
4, 241024, Note_on_c, 0, 74, 100
4, 241142, Note_on_c, 0, 74, 0
4, 241920, Note_on_c, 0, 62, 100
4, 242038, Note_on_c, 0, 62, 0
4, 242176, Note_on_c, 0, 62, 100
4, 242294, Note_on_c, 0, 62, 0
4, 242304, Note_on_c, 0, 50, 100
4, 242422, Note_on_c, 0, 50, 0
4, 242432, Note_on_c, 0, 62, 100
4, 242550, Note_on_c, 0, 62, 0
4, 242560, Note_on_c, 0, 50, 100
4, 242678, Note_on_c, 0, 50, 0
4, 242944, Note_on_c, 0, 50, 100
4, 243062, Note_on_c, 0, 50, 0
4, 243328, Note_on_c, 0, 50, 100
4, 243446, Note_on_c, 0, 50, 0
4, 243712, Note_on_c, 0, 50, 100
4, 243830, Note_on_c, 0, 50, 0
4, 244096, Note_on_c, 0, 50, 100
4, 244214, Note_on_c, 0, 50, 0
4, 244480, Note_on_c, 0, 50, 100
4, 244598, Note_on_c, 0, 50, 0
4, 244864, Note_on_c, 0, 50, 100
4, 244982, Note_on_c, 0, 50, 0
4, 245376, Note_on_c, 0, 62, 100
4, 245494, Note_on_c, 0, 62, 0
4, 245504, Note_on_c, 0, 50, 100
4, 245622, Note_on_c, 0, 50, 0
4, 245632, Note_on_c, 0, 62, 100
4, 245750, Note_on_c, 0, 62, 0
4, 246272, Note_on_c, 0, 74, 100
4, 246390, Note_on_c, 0, 74, 0
4, 246912, Note_on_c, 0, 74, 100
4, 247030, Note_on_c, 0, 74, 0
4, 247168, Note_on_c, 0, 74, 100
4, 247286, Note_on_c, 0, 74, 0
4, 248704, Note_on_c, 0, 74, 100
4, 248822, Note_on_c, 0, 74, 0
4, 248960, Note_on_c, 0, 50, 100
4, 249078, Note_on_c, 0, 50, 0
4, 250240, Note_on_c, 0, 62, 100
4, 250358, Note_on_c, 0, 62, 0
4, 251008, Note_on_c, 0, 62, 100
4, 251126, Note_on_c, 0, 62, 0
4, 251776, Note_on_c, 0, 62, 100
4, 251894, Note_on_c, 0, 62, 0
4, 252544, Note_on_c, 0, 62, 100
4, 252664, Note_on_c, 0, 62, 0
4, 252928, Note_on_c, 0, 50, 100
4, 253046, Note_on_c, 0, 50, 0
4, 253184, Note_on_c, 0, 50, 100
4, 253302, Note_on_c, 0, 50, 0
4, 254208, Note_on_c, 0, 74, 100
4, 254336, Note_on_c, 0, 62, 100
4, 254454, Note_on_c, 0, 62, 0
4, 254783, Note_on_c, 0, 74, 0
4, 254848, Note_on_c, 0, 74, 100
4, 254966, Note_on_c, 0, 74, 0
4, 255232, Note_on_c, 0, 62, 100
4, 255350, Note_on_c, 0, 62, 0
4, 256128, Note_on_c, 0, 62, 100
4, 256246, Note_on_c, 0, 62, 0
4, 256768, Note_on_c, 0, 62, 100
4, 256886, Note_on_c, 0, 62, 0
4, 257408, Note_on_c, 0, 62, 100
4, 257526, Note_on_c, 0, 62, 0
4, 258048, Note_on_c, 0, 62, 100
4, 258302, Note_on_c, 0, 62, 0
4, 258304, Note_on_c, 0, 62, 100
4, 258422, Note_on_c, 0, 62, 0
4, 258816, Note_on_c, 0, 62, 100
4, 258934, Note_on_c, 0, 62, 0
4, 259072, Note_on_c, 0, 62, 100
4, 259190, Note_on_c, 0, 62, 0
4, 260736, Note_on_c, 0, 50, 100
4, 260990, Note_on_c, 0, 50, 0
4, 260992, Note_on_c, 0, 50, 100
4, 261110, Note_on_c, 0, 50, 0
4, 261120, Note_on_c, 0, 50, 100
4, 261695, Note_on_c, 0, 50, 0
4, 264576, Note_on_c, 0, 74, 100
4, 264830, Note_on_c, 0, 74, 0
4, 264832, Note_on_c, 0, 74, 100
4, 264950, Note_on_c, 0, 74, 0
4, 268160, Note_on_c, 0, 74, 100
4, 268278, Note_on_c, 0, 74, 0
4, 268416, Note_on_c, 0, 62, 100
4, 268670, Note_on_c, 0, 62, 0
4, 269184, Note_on_c, 0, 74, 100
4, 269302, Note_on_c, 0, 74, 0
4, 269440, Note_on_c, 0, 62, 100
4, 269440, Note_on_c, 0, 74, 100
4, 269558, Note_on_c, 0, 74, 0
4, 269558, Note_on_c, 0, 62, 0
4, 269696, Note_on_c, 0, 74, 100
4, 269814, Note_on_c, 0, 74, 0
4, 270080, Note_on_c, 0, 74, 100
4, 270198, Note_on_c, 0, 74, 0
4, 276352, Note_on_c, 0, 74, 100
4, 276470, Note_on_c, 0, 74, 0
4, 278016, Note_on_c, 0, 62, 100
4, 278134, Note_on_c, 0, 62, 0
4, 278528, Note_on_c, 0, 62, 100
4, 278528, Note_on_c, 0, 74, 100
4, 278646, Note_on_c, 0, 74, 0
4, 278646, Note_on_c, 0, 62, 0
4, 278784, Note_on_c, 0, 74, 100
4, 279164, Note_on_c, 0, 74, 0
4, 279424, Note_on_c, 0, 50, 100
4, 279542, Note_on_c, 0, 50, 0
4, 280704, Note_on_c, 0, 74, 100
4, 280958, Note_on_c, 0, 74, 0
4, 280960, Note_on_c, 0, 74, 100
4, 281078, Note_on_c, 0, 74, 0
4, 281088, Note_on_c, 0, 74, 100
4, 281663, Note_on_c, 0, 74, 0
4, 282112, Note_on_c, 0, 62, 100
4, 282230, Note_on_c, 0, 62, 0
4, 282368, Note_on_c, 0, 62, 100
4, 282486, Note_on_c, 0, 62, 0
4, 282496, Note_on_c, 0, 74, 100
4, 282750, Note_on_c, 0, 74, 0
4, 282880, Note_on_c, 0, 50, 100
4, 282998, Note_on_c, 0, 50, 0
4, 283136, Note_on_c, 0, 50, 100
4, 283254, Note_on_c, 0, 50, 0
4, 283264, Note_on_c, 0, 74, 100
4, 283518, Note_on_c, 0, 74, 0
4, 283648, Note_on_c, 0, 50, 100
4, 283648, Note_on_c, 0, 74, 100
4, 283766, Note_on_c, 0, 74, 0
4, 283766, Note_on_c, 0, 50, 0
4, 283904, Note_on_c, 0, 74, 100
4, 284022, Note_on_c, 0, 74, 0
4, 285184, Note_on_c, 0, 38, 100
4, 285302, Note_on_c, 0, 38, 0
4, 285312, Note_on_c, 0, 62, 100
4, 285430, Note_on_c, 0, 62, 0
4, 285824, Note_on_c, 0, 62, 100
4, 285942, Note_on_c, 0, 62, 0
4, 286336, Note_on_c, 0, 74, 100
4, 286454, Note_on_c, 0, 74, 0
4, 287872, Note_on_c, 0, 74, 100
4, 287990, Note_on_c, 0, 74, 0
4, 288000, Note_on_c, 0, 62, 100
4, 288254, Note_on_c, 0, 62, 0
4, 288256, Note_on_c, 0, 62, 100
4, 288374, Note_on_c, 0, 62, 0
4, 288640, Note_on_c, 0, 74, 100
4, 288758, Note_on_c, 0, 74, 0
4, 288768, Note_on_c, 0, 62, 100
4, 288896, Note_on_c, 0, 74, 100
4, 289014, Note_on_c, 0, 74, 0
4, 289343, Note_on_c, 0, 62, 0
4, 290688, Note_on_c, 0, 74, 100
4, 290942, Note_on_c, 0, 74, 0
4, 291072, Note_on_c, 0, 74, 100
4, 291190, Note_on_c, 0, 74, 0
4, 292096, Note_on_c, 0, 74, 100
4, 292214, Note_on_c, 0, 74, 0
4, 292224, Note_on_c, 0, 62, 100
4, 292480, Note_on_c, 0, 50, 100
4, 292598, Note_on_c, 0, 50, 0
4, 292604, Note_on_c, 0, 62, 0
4, 293760, Note_on_c, 0, 50, 100
4, 293760, Note_on_c, 0, 62, 100
4, 294014, Note_on_c, 0, 62, 0
4, 294014, Note_on_c, 0, 50, 0
4, 294016, Note_on_c, 0, 50, 100
4, 294016, Note_on_c, 0, 62, 100
4, 294134, Note_on_c, 0, 62, 0
4, 294134, Note_on_c, 0, 50, 0
4, 294144, Note_on_c, 0, 62, 100
4, 294398, Note_on_c, 0, 62, 0
4, 294400, Note_on_c, 0, 62, 100
4, 294518, Note_on_c, 0, 62, 0
4, 295552, Note_on_c, 0, 62, 100
4, 295670, Note_on_c, 0, 62, 0
4, 295680, Note_on_c, 0, 50, 100
4, 295808, Note_on_c, 0, 62, 100
4, 295926, Note_on_c, 0, 62, 0
4, 296255, Note_on_c, 0, 50, 0
4, 296320, Note_on_c, 0, 50, 100
4, 296438, Note_on_c, 0, 50, 0
4, 296448, Note_on_c, 0, 50, 100
4, 296568, Note_on_c, 0, 50, 0
4, 296576, Note_on_c, 0, 50, 100
4, 296694, Note_on_c, 0, 50, 0
4, 296832, Note_on_c, 0, 50, 100
4, 297086, Note_on_c, 0, 50, 0
4, 297216, Note_on_c, 0, 50, 100
4, 297344, Note_on_c, 0, 62, 100
4, 297462, Note_on_c, 0, 62, 0
4, 297470, Note_on_c, 0, 50, 0
4, 297856, Note_on_c, 0, 50, 100
4, 297974, Note_on_c, 0, 50, 0
4, 298112, Note_on_c, 0, 62, 100
4, 298230, Note_on_c, 0, 62, 0
4, 298624, Note_on_c, 0, 74, 100
4, 298742, Note_on_c, 0, 74, 0
4, 299264, Note_on_c, 0, 74, 100
4, 299382, Note_on_c, 0, 74, 0
4, 299648, Note_on_c, 0, 74, 100
4, 299766, Note_on_c, 0, 74, 0
4, 299904, Note_on_c, 0, 74, 100
4, 300158, Note_on_c, 0, 74, 0
4, 300160, Note_on_c, 0, 74, 100
4, 300278, Note_on_c, 0, 74, 0
4, 300288, Note_on_c, 0, 62, 100
4, 300542, Note_on_c, 0, 62, 0
4, 300544, Note_on_c, 0, 50, 100
4, 300662, Note_on_c, 0, 50, 0
4, 301952, Note_on_c, 0, 74, 100
4, 302070, Note_on_c, 0, 74, 0
4, 302208, Note_on_c, 0, 62, 100
4, 302462, Note_on_c, 0, 62, 0
4, 302592, Note_on_c, 0, 62, 100
4, 302720, Note_on_c, 0, 74, 100
4, 302838, Note_on_c, 0, 74, 0
4, 303167, Note_on_c, 0, 62, 0
4, 303360, Note_on_c, 0, 62, 100
4, 303478, Note_on_c, 0, 62, 0
4, 303488, Note_on_c, 0, 50, 100
4, 303606, Note_on_c, 0, 50, 0
4, 303744, Note_on_c, 0, 74, 100
4, 303998, Note_on_c, 0, 74, 0
4, 304128, Note_on_c, 0, 74, 100
4, 304382, Note_on_c, 0, 74, 0
4, 304384, Note_on_c, 0, 62, 100
4, 304384, Note_on_c, 0, 74, 100
4, 304502, Note_on_c, 0, 74, 0
4, 304502, Note_on_c, 0, 62, 0
4, 305280, Note_on_c, 0, 74, 100
4, 305398, Note_on_c, 0, 74, 0
4, 305664, Note_on_c, 0, 62, 100
4, 305918, Note_on_c, 0, 62, 0
4, 305920, Note_on_c, 0, 62, 100
4, 306038, Note_on_c, 0, 62, 0
4, 306304, Note_on_c, 0, 62, 100
4, 306422, Note_on_c, 0, 62, 0
4, 307200, Note_on_c, 0, 38, 100
4, 307200, Note_on_c, 0, 62, 100
4, 307318, Note_on_c, 0, 38, 0
4, 307454, Note_on_c, 0, 62, 0
4, 307456, Note_on_c, 0, 38, 100
4, 307456, Note_on_c, 0, 62, 100
4, 307574, Note_on_c, 0, 62, 0
4, 307574, Note_on_c, 0, 38, 0
4, 307584, Note_on_c, 0, 50, 100
4, 307584, Note_on_c, 0, 62, 100
4, 307702, Note_on_c, 0, 50, 0
4, 307712, Note_on_c, 0, 38, 100
4, 307830, Note_on_c, 0, 38, 0
4, 307838, Note_on_c, 0, 62, 0
4, 307840, Note_on_c, 0, 50, 100
4, 307840, Note_on_c, 0, 62, 100
4, 307958, Note_on_c, 0, 62, 0
4, 307958, Note_on_c, 0, 50, 0
4, 307968, Note_on_c, 0, 62, 100
4, 308096, Note_on_c, 0, 38, 100
4, 308214, Note_on_c, 0, 38, 0
4, 308543, Note_on_c, 0, 62, 0
4, 308736, Note_on_c, 0, 62, 100
4, 308990, Note_on_c, 0, 62, 0
4, 309120, Note_on_c, 0, 62, 100
4, 309374, Note_on_c, 0, 62, 0
4, 309504, Note_on_c, 0, 62, 100
4, 309758, Note_on_c, 0, 62, 0
4, 309888, Note_on_c, 0, 62, 100
4, 310142, Note_on_c, 0, 62, 0
4, 310272, Note_on_c, 0, 62, 100
4, 310390, Note_on_c, 0, 62, 0
4, 310656, Note_on_c, 0, 74, 100
4, 310774, Note_on_c, 0, 74, 0
4, 311040, Note_on_c, 0, 74, 100
4, 311158, Note_on_c, 0, 74, 0
4, 311168, Note_on_c, 0, 62, 100
4, 311286, Note_on_c, 0, 62, 0
4, 311424, Note_on_c, 0, 74, 100
4, 311542, Note_on_c, 0, 74, 0
4, 311808, Note_on_c, 0, 74, 100
4, 311926, Note_on_c, 0, 74, 0
4, 311936, Note_on_c, 0, 62, 100
4, 312054, Note_on_c, 0, 62, 0
4, 312192, Note_on_c, 0, 74, 100
4, 312310, Note_on_c, 0, 74, 0
4, 312576, Note_on_c, 0, 74, 100
4, 312694, Note_on_c, 0, 74, 0
4, 312960, Note_on_c, 0, 50, 100
4, 312960, Note_on_c, 0, 62, 100
4, 313214, Note_on_c, 0, 62, 0
4, 313214, Note_on_c, 0, 50, 0
4, 313216, Note_on_c, 0, 38, 100
4, 313216, Note_on_c, 0, 62, 100
4, 313334, Note_on_c, 0, 62, 0
4, 313334, Note_on_c, 0, 38, 0
4, 313344, Note_on_c, 0, 62, 100
4, 313598, Note_on_c, 0, 62, 0
4, 314368, Note_on_c, 0, 74, 100
4, 314486, Note_on_c, 0, 74, 0
4, 314624, Note_on_c, 0, 74, 100
4, 314740, Note_on_c, 0, 74, 0
4, 315008, Note_on_c, 0, 74, 100
4, 315126, Note_on_c, 0, 74, 0
4, 315904, Note_on_c, 0, 62, 100
4, 316022, Note_on_c, 0, 62, 0
4, 316160, Note_on_c, 0, 62, 100
4, 316276, Note_on_c, 0, 62, 0
4, 316544, Note_on_c, 0, 62, 100
4, 316662, Note_on_c, 0, 62, 0
4, 317440, Note_on_c, 0, 50, 100
4, 317566, Note_on_c, 0, 50, 0
4, 317696, Note_on_c, 0, 50, 100
4, 317812, Note_on_c, 0, 50, 0
4, 318080, Note_on_c, 0, 50, 100
4, 318206, Note_on_c, 0, 50, 0
4, 318976, Note_on_c, 0, 38, 100
4, 319102, Note_on_c, 0, 38, 0
4, 319232, Note_on_c, 0, 50, 100
4, 319348, Note_on_c, 0, 50, 0
4, 319616, Note_on_c, 0, 50, 100
4, 319742, Note_on_c, 0, 50, 0
4, 320512, Note_on_c, 0, 50, 100
4, 320638, Note_on_c, 0, 50, 0
4, 321280, Note_on_c, 0, 50, 100
4, 321390, Note_on_c, 0, 50, 0
4, 321536, Note_on_c, 0, 50, 100
4, 321662, Note_on_c, 0, 50, 0
4, 321920, Note_on_c, 0, 50, 100
4, 322046, Note_on_c, 0, 50, 0
4, 322304, Note_on_c, 0, 50, 100
4, 322409, Note_on_c, 0, 50, 0
4, 322688, Note_on_c, 0, 50, 100
4, 322793, Note_on_c, 0, 50, 0
4, 326232, Note_on_c, 0, 50, 100
4, 326232, Note_on_c, 0, 62, 100
4, 328532, Note_on_c, 0, 62, 0
4, 328532, Note_on_c, 0, 50, 0
4, 328532, End_track
5, 0, Start_track
5, 0, Title_t, "Tocatta No. 6 in G minor - BWV 915"
5, 0, Program_c, 0, 6
5, 0, Control_c, 0, 7, 100
5, 0, Control_c, 0, 10, 64
5, 0, Pitch_bend_c, 0, 7952
5, 3758, Note_on_c, 0, 51, 100
5, 3852, Note_on_c, 0, 51, 0
5, 4942, Note_on_c, 0, 63, 100
5, 5036, Note_on_c, 0, 63, 0
5, 5838, Note_on_c, 0, 51, 100
5, 5932, Note_on_c, 0, 51, 0
5, 6734, Note_on_c, 0, 51, 100
5, 6828, Note_on_c, 0, 51, 0
5, 7353, Note_on_c, 0, 51, 100
5, 7452, Note_on_c, 0, 51, 0
5, 7973, Note_on_c, 0, 51, 100
5, 8076, Note_on_c, 0, 51, 0
5, 9279, Note_on_c, 0, 63, 100
5, 9979, Note_on_c, 0, 63, 0
5, 10368, Note_on_c, 0, 63, 100
5, 10750, Note_on_c, 0, 63, 0
5, 19008, Note_on_c, 0, 63, 100
5, 19198, Note_on_c, 0, 63, 0
5, 19968, Note_on_c, 0, 51, 100
5, 20735, Note_on_c, 0, 51, 0
5, 23040, Note_on_c, 0, 39, 100
5, 23806, Note_on_c, 0, 39, 0
5, 23808, Note_on_c, 0, 63, 100
5, 24574, Note_on_c, 0, 63, 0
5, 35808, Note_on_c, 0, 51, 100
5, 35998, Note_on_c, 0, 51, 0
5, 42528, Note_on_c, 0, 51, 100
5, 42622, Note_on_c, 0, 51, 0
5, 42816, Note_on_c, 0, 51, 100
5, 42910, Note_on_c, 0, 51, 0
5, 43296, Note_on_c, 0, 51, 100
5, 43390, Note_on_c, 0, 51, 0
5, 43584, Note_on_c, 0, 51, 100
5, 43678, Note_on_c, 0, 51, 0
5, 43776, Note_on_c, 0, 75, 100
5, 43966, Note_on_c, 0, 75, 0
5, 44064, Note_on_c, 0, 51, 100
5, 44158, Note_on_c, 0, 51, 0
5, 45312, Note_on_c, 0, 63, 100
5, 45592, Note_on_c, 0, 63, 0
5, 45600, Note_on_c, 0, 75, 100
5, 45694, Note_on_c, 0, 75, 0
5, 45888, Note_on_c, 0, 75, 100
5, 45982, Note_on_c, 0, 75, 0
5, 46080, Note_on_c, 0, 51, 100
5, 46360, Note_on_c, 0, 51, 0
5, 46368, Note_on_c, 0, 75, 100
5, 46462, Note_on_c, 0, 75, 0
5, 46656, Note_on_c, 0, 75, 100
5, 46750, Note_on_c, 0, 75, 0
5, 46848, Note_on_c, 0, 51, 100
5, 47038, Note_on_c, 0, 51, 0
5, 47424, Note_on_c, 0, 51, 100
5, 47614, Note_on_c, 0, 51, 0
5, 52608, Note_on_c, 0, 75, 100
5, 52798, Note_on_c, 0, 75, 0
5, 55680, Note_on_c, 0, 75, 100
5, 55870, Note_on_c, 0, 75, 0
5, 56832, Note_on_c, 0, 51, 100
5, 57022, Note_on_c, 0, 51, 0
5, 57408, Note_on_c, 0, 51, 100
5, 57598, Note_on_c, 0, 51, 0
5, 57792, Note_on_c, 0, 51, 100
5, 57886, Note_on_c, 0, 51, 0
5, 57984, Note_on_c, 0, 51, 100
5, 58174, Note_on_c, 0, 51, 0
5, 59424, Note_on_c, 0, 51, 100
5, 59518, Note_on_c, 0, 51, 0
5, 59712, Note_on_c, 0, 51, 100
5, 59806, Note_on_c, 0, 51, 0
5, 59904, Note_on_c, 0, 63, 100
5, 60192, Note_on_c, 0, 51, 100
5, 60284, Note_on_c, 0, 63, 0
5, 60286, Note_on_c, 0, 51, 0
5, 60480, Note_on_c, 0, 51, 100
5, 60574, Note_on_c, 0, 51, 0
5, 60864, Note_on_c, 0, 75, 100
5, 60960, Note_on_c, 0, 51, 100
5, 61054, Note_on_c, 0, 51, 0
5, 61054, Note_on_c, 0, 75, 0
5, 71040, Note_on_c, 0, 63, 100
5, 71230, Note_on_c, 0, 63, 0
5, 72000, Note_on_c, 0, 63, 100
5, 72094, Note_on_c, 0, 63, 0
5, 72480, Note_on_c, 0, 63, 100
5, 72574, Note_on_c, 0, 63, 0
5, 72768, Note_on_c, 0, 63, 100
5, 72862, Note_on_c, 0, 63, 0
5, 73152, Note_on_c, 0, 75, 100
5, 73248, Note_on_c, 0, 63, 100
5, 73342, Note_on_c, 0, 63, 0
5, 73342, Note_on_c, 0, 75, 0
5, 74496, Note_on_c, 0, 63, 100
5, 74686, Note_on_c, 0, 63, 0
5, 74784, Note_on_c, 0, 75, 100
5, 74878, Note_on_c, 0, 75, 0
5, 75072, Note_on_c, 0, 75, 100
5, 75166, Note_on_c, 0, 75, 0
5, 75264, Note_on_c, 0, 63, 100
5, 75264, Note_on_c, 0, 51, 100
5, 75454, Note_on_c, 0, 51, 0
5, 75454, Note_on_c, 0, 63, 0
5, 75552, Note_on_c, 0, 75, 100
5, 75646, Note_on_c, 0, 75, 0
5, 75840, Note_on_c, 0, 75, 100
5, 75934, Note_on_c, 0, 75, 0
5, 76032, Note_on_c, 0, 63, 100
5, 76032, Note_on_c, 0, 51, 100
5, 76222, Note_on_c, 0, 51, 0
5, 76222, Note_on_c, 0, 63, 0
5, 76224, Note_on_c, 0, 75, 100
5, 76318, Note_on_c, 0, 75, 0
5, 79296, Note_on_c, 0, 63, 100
5, 79296, Note_on_c, 0, 51, 100
5, 79390, Note_on_c, 0, 63, 0
5, 79486, Note_on_c, 0, 51, 0
5, 82368, Note_on_c, 0, 63, 100
5, 82368, Note_on_c, 0, 51, 100
5, 82462, Note_on_c, 0, 63, 0
5, 82558, Note_on_c, 0, 51, 0
5, 83520, Note_on_c, 0, 51, 100
5, 83614, Note_on_c, 0, 51, 0
5, 83712, Note_on_c, 0, 51, 100
5, 83902, Note_on_c, 0, 51, 0
5, 84480, Note_on_c, 0, 63, 100
5, 84480, Note_on_c, 0, 51, 100
5, 84670, Note_on_c, 0, 51, 0
5, 84860, Note_on_c, 0, 63, 0
5, 85248, Note_on_c, 0, 51, 100
5, 85438, Note_on_c, 0, 51, 0
5, 85440, Note_on_c, 0, 63, 100
5, 85570, Note_on_c, 0, 63, 0
5, 86592, Note_on_c, 0, 75, 100
5, 86686, Note_on_c, 0, 75, 0
5, 86784, Note_on_c, 0, 75, 100
5, 86974, Note_on_c, 0, 75, 0
5, 87552, Note_on_c, 0, 75, 100
5, 87742, Note_on_c, 0, 75, 0
5, 88320, Note_on_c, 0, 75, 100
5, 88510, Note_on_c, 0, 75, 0
5, 88512, Note_on_c, 0, 51, 100
5, 88702, Note_on_c, 0, 51, 0
5, 90072, Note_on_c, 0, 75, 100
5, 90192, Note_on_c, 0, 75, 0
5, 100296, Note_on_c, 0, 51, 100
5, 100486, Note_on_c, 0, 51, 0
5, 100488, Note_on_c, 0, 63, 100
5, 100868, Note_on_c, 0, 63, 0
5, 102600, Note_on_c, 0, 75, 100
5, 102790, Note_on_c, 0, 75, 0
5, 103176, Note_on_c, 0, 63, 100
5, 103366, Note_on_c, 0, 63, 0
5, 105480, Note_on_c, 0, 75, 100
5, 105670, Note_on_c, 0, 75, 0
5, 107136, Note_on_c, 0, 51, 100
5, 107230, Note_on_c, 0, 51, 0
5, 107424, Note_on_c, 0, 51, 100
5, 107518, Note_on_c, 0, 51, 0
5, 107904, Note_on_c, 0, 51, 100
5, 107998, Note_on_c, 0, 51, 0
5, 108192, Note_on_c, 0, 51, 100
5, 108286, Note_on_c, 0, 51, 0
5, 108576, Note_on_c, 0, 75, 100
5, 108672, Note_on_c, 0, 51, 100
5, 108766, Note_on_c, 0, 51, 0
5, 108766, Note_on_c, 0, 75, 0
5, 110208, Note_on_c, 0, 75, 100
5, 110302, Note_on_c, 0, 75, 0
5, 110496, Note_on_c, 0, 75, 100
5, 110590, Note_on_c, 0, 75, 0
5, 110976, Note_on_c, 0, 75, 100
5, 111070, Note_on_c, 0, 75, 0
5, 111264, Note_on_c, 0, 75, 100
5, 111358, Note_on_c, 0, 75, 0
5, 111744, Note_on_c, 0, 75, 100
5, 111838, Note_on_c, 0, 75, 0
5, 112032, Note_on_c, 0, 75, 100
5, 112126, Note_on_c, 0, 75, 0
5, 112224, Note_on_c, 0, 75, 100
5, 112414, Note_on_c, 0, 75, 0
5, 114720, Note_on_c, 0, 75, 100
5, 114720, Note_on_c, 0, 63, 100
5, 114814, Note_on_c, 0, 75, 0
5, 114910, Note_on_c, 0, 63, 0
5, 115104, Note_on_c, 0, 63, 100
5, 115294, Note_on_c, 0, 63, 0
5, 117792, Note_on_c, 0, 51, 100
5, 117982, Note_on_c, 0, 51, 0
5, 118200, Note_on_c, 0, 51, 100
5, 118390, Note_on_c, 0, 51, 0
5, 120320, Note_on_c, 0, 63, 100
5, 120414, Note_on_c, 0, 63, 0
5, 123056, Note_on_c, 0, 63, 100
5, 123150, Note_on_c, 0, 63, 0
5, 123152, Note_on_c, 0, 63, 100
5, 123630, Note_on_c, 0, 63, 0
5, 123668, Note_on_c, 0, 75, 100
5, 123714, Note_on_c, 0, 75, 0
5, 123770, Note_on_c, 0, 75, 100
5, 123816, Note_on_c, 0, 75, 0
5, 123920, Note_on_c, 0, 75, 100
5, 124302, Note_on_c, 0, 75, 0
5, 124304, Note_on_c, 0, 63, 100
5, 124398, Note_on_c, 0, 63, 0
5, 125360, Note_on_c, 0, 75, 100
5, 125454, Note_on_c, 0, 75, 0
5, 126992, Note_on_c, 0, 63, 100
5, 127567, Note_on_c, 0, 63, 0
5, 127568, Note_on_c, 0, 63, 100
5, 127758, Note_on_c, 0, 63, 0
5, 130832, Note_on_c, 0, 75, 100
5, 131022, Note_on_c, 0, 75, 0
5, 134672, Note_on_c, 0, 63, 100
5, 135439, Note_on_c, 0, 63, 0
5, 135824, Note_on_c, 0, 75, 100
5, 135918, Note_on_c, 0, 75, 0
5, 137360, Note_on_c, 0, 75, 100
5, 137454, Note_on_c, 0, 75, 0
5, 137936, Note_on_c, 0, 75, 100
5, 138030, Note_on_c, 0, 75, 0
5, 138320, Note_on_c, 0, 75, 100
5, 138510, Note_on_c, 0, 75, 0
5, 140816, Note_on_c, 0, 51, 100
5, 141582, Note_on_c, 0, 51, 0
5, 146304, Note_on_c, 0, 63, 100
5, 146558, Note_on_c, 0, 63, 0
5, 146568, Note_on_c, 0, 63, 100
5, 146678, Note_on_c, 0, 63, 0
5, 146688, Note_on_c, 0, 63, 100
5, 147128, Note_on_c, 0, 63, 0
5, 156672, Note_on_c, 0, 63, 100
5, 156790, Note_on_c, 0, 63, 0
5, 156928, Note_on_c, 0, 63, 100
5, 157046, Note_on_c, 0, 63, 0
5, 158592, Note_on_c, 0, 51, 100
5, 158846, Note_on_c, 0, 51, 0
5, 158848, Note_on_c, 0, 51, 100
5, 158966, Note_on_c, 0, 51, 0
5, 158976, Note_on_c, 0, 51, 100
5, 159551, Note_on_c, 0, 51, 0
5, 168960, Note_on_c, 0, 75, 100
5, 169078, Note_on_c, 0, 75, 0
5, 169216, Note_on_c, 0, 75, 100
5, 169334, Note_on_c, 0, 75, 0
5, 170496, Note_on_c, 0, 63, 100
5, 170750, Note_on_c, 0, 63, 0
5, 170880, Note_on_c, 0, 75, 100
5, 171134, Note_on_c, 0, 75, 0
5, 171136, Note_on_c, 0, 63, 100
5, 171136, Note_on_c, 0, 75, 100
5, 171254, Note_on_c, 0, 75, 0
5, 171254, Note_on_c, 0, 63, 0
5, 171264, Note_on_c, 0, 75, 100
5, 171839, Note_on_c, 0, 75, 0
5, 181504, Note_on_c, 0, 75, 100
5, 181622, Note_on_c, 0, 75, 0
5, 181760, Note_on_c, 0, 75, 100
5, 181878, Note_on_c, 0, 75, 0
5, 183936, Note_on_c, 0, 51, 100
5, 184054, Note_on_c, 0, 51, 0
5, 184192, Note_on_c, 0, 51, 100
5, 184310, Note_on_c, 0, 51, 0
5, 184448, Note_on_c, 0, 51, 100
5, 184566, Note_on_c, 0, 51, 0
5, 185728, Note_on_c, 0, 63, 100
5, 185846, Note_on_c, 0, 63, 0
5, 186496, Note_on_c, 0, 63, 100
5, 186614, Note_on_c, 0, 63, 0
5, 187264, Note_on_c, 0, 63, 100
5, 187382, Note_on_c, 0, 63, 0
5, 188032, Note_on_c, 0, 63, 100
5, 188150, Note_on_c, 0, 63, 0
5, 190080, Note_on_c, 0, 51, 100
5, 190334, Note_on_c, 0, 51, 0
5, 190464, Note_on_c, 0, 51, 100
5, 190718, Note_on_c, 0, 51, 0
5, 190848, Note_on_c, 0, 51, 100
5, 191102, Note_on_c, 0, 51, 0
5, 198144, Note_on_c, 0, 75, 100
5, 198262, Note_on_c, 0, 75, 0
5, 198400, Note_on_c, 0, 75, 100
5, 198518, Note_on_c, 0, 75, 0
5, 200064, Note_on_c, 0, 51, 100
5, 200318, Note_on_c, 0, 51, 0
5, 200320, Note_on_c, 0, 51, 100
5, 200438, Note_on_c, 0, 51, 0
5, 200448, Note_on_c, 0, 51, 100
5, 201086, Note_on_c, 0, 51, 0
5, 203904, Note_on_c, 0, 51, 100
5, 204022, Note_on_c, 0, 51, 0
5, 221824, Note_on_c, 0, 51, 100
5, 221942, Note_on_c, 0, 51, 0
5, 223104, Note_on_c, 0, 75, 100
5, 223358, Note_on_c, 0, 75, 0
5, 223360, Note_on_c, 0, 75, 100
5, 223478, Note_on_c, 0, 75, 0
5, 223488, Note_on_c, 0, 75, 100
5, 224063, Note_on_c, 0, 75, 0
5, 226944, Note_on_c, 0, 51, 100
5, 227062, Note_on_c, 0, 51, 0
5, 227200, Note_on_c, 0, 51, 100
5, 227318, Note_on_c, 0, 51, 0
5, 228864, Note_on_c, 0, 63, 100
5, 229118, Note_on_c, 0, 63, 0
5, 229120, Note_on_c, 0, 63, 100
5, 229238, Note_on_c, 0, 63, 0
5, 230400, Note_on_c, 0, 63, 100
5, 230518, Note_on_c, 0, 63, 0
5, 230784, Note_on_c, 0, 63, 100
5, 230902, Note_on_c, 0, 63, 0
5, 231168, Note_on_c, 0, 63, 100
5, 231422, Note_on_c, 0, 63, 0
5, 231552, Note_on_c, 0, 63, 100
5, 231670, Note_on_c, 0, 63, 0
5, 231936, Note_on_c, 0, 63, 100
5, 232190, Note_on_c, 0, 63, 0
5, 232320, Note_on_c, 0, 63, 100
5, 232438, Note_on_c, 0, 63, 0
5, 232704, Note_on_c, 0, 63, 100
5, 232831, Note_on_c, 0, 63, 0
5, 233088, Note_on_c, 0, 63, 100
5, 233206, Note_on_c, 0, 63, 0
5, 233344, Note_on_c, 0, 63, 100
5, 233462, Note_on_c, 0, 63, 0
5, 234880, Note_on_c, 0, 63, 100
5, 235008, Note_on_c, 0, 63, 0
5, 235008, Note_on_c, 0, 51, 100
5, 235262, Note_on_c, 0, 51, 0
5, 235264, Note_on_c, 0, 51, 100
5, 235382, Note_on_c, 0, 51, 0
5, 236544, Note_on_c, 0, 75, 100
5, 236662, Note_on_c, 0, 75, 0
5, 236928, Note_on_c, 0, 75, 100
5, 237046, Note_on_c, 0, 75, 0
5, 237312, Note_on_c, 0, 75, 100
5, 237566, Note_on_c, 0, 75, 0
5, 237696, Note_on_c, 0, 63, 100
5, 237814, Note_on_c, 0, 63, 0
5, 238080, Note_on_c, 0, 63, 100
5, 238334, Note_on_c, 0, 63, 0
5, 238464, Note_on_c, 0, 75, 100
5, 238582, Note_on_c, 0, 75, 0
5, 238848, Note_on_c, 0, 75, 100
5, 238966, Note_on_c, 0, 75, 0
5, 239360, Note_on_c, 0, 75, 100
5, 239478, Note_on_c, 0, 75, 0
5, 239616, Note_on_c, 0, 75, 100
5, 239870, Note_on_c, 0, 75, 0
5, 239872, Note_on_c, 0, 63, 100
5, 239872, Note_on_c, 0, 75, 100
5, 239990, Note_on_c, 0, 75, 0
5, 239990, Note_on_c, 0, 63, 0
5, 241152, Note_on_c, 0, 51, 100
5, 241152, Note_on_c, 0, 75, 100
5, 241402, Note_on_c, 0, 51, 0
5, 241408, Note_on_c, 0, 51, 100
5, 241526, Note_on_c, 0, 51, 0
5, 241727, Note_on_c, 0, 75, 0
5, 241792, Note_on_c, 0, 75, 100
5, 241910, Note_on_c, 0, 75, 0
5, 242688, Note_on_c, 0, 51, 100
5, 242806, Note_on_c, 0, 51, 0
5, 243072, Note_on_c, 0, 51, 100
5, 243190, Note_on_c, 0, 51, 0
5, 243456, Note_on_c, 0, 51, 100
5, 243574, Note_on_c, 0, 51, 0
5, 243840, Note_on_c, 0, 51, 100
5, 243958, Note_on_c, 0, 51, 0
5, 244224, Note_on_c, 0, 51, 100
5, 244342, Note_on_c, 0, 51, 0
5, 244608, Note_on_c, 0, 51, 100
5, 244726, Note_on_c, 0, 51, 0
5, 244992, Note_on_c, 0, 51, 100
5, 245372, Note_on_c, 0, 51, 0
5, 245504, Note_on_c, 0, 75, 100
5, 245622, Note_on_c, 0, 75, 0
5, 246144, Note_on_c, 0, 75, 100
5, 246262, Note_on_c, 0, 75, 0
5, 246400, Note_on_c, 0, 75, 100
5, 246518, Note_on_c, 0, 75, 0
5, 247296, Note_on_c, 0, 63, 100
5, 247296, Note_on_c, 0, 75, 100
5, 247550, Note_on_c, 0, 63, 0
5, 247552, Note_on_c, 0, 63, 100
5, 247670, Note_on_c, 0, 63, 0
5, 247871, Note_on_c, 0, 75, 0
5, 247936, Note_on_c, 0, 75, 100
5, 248054, Note_on_c, 0, 75, 0
5, 248064, Note_on_c, 0, 75, 100
5, 248444, Note_on_c, 0, 75, 0
5, 248832, Note_on_c, 0, 51, 100
5, 248832, Note_on_c, 0, 75, 100
5, 248950, Note_on_c, 0, 51, 0
5, 249088, Note_on_c, 0, 51, 100
5, 249206, Note_on_c, 0, 51, 0
5, 249216, Note_on_c, 0, 39, 100
5, 249334, Note_on_c, 0, 39, 0
5, 249344, Note_on_c, 0, 51, 100
5, 249407, Note_on_c, 0, 75, 0
5, 249462, Note_on_c, 0, 51, 0
5, 249472, Note_on_c, 0, 39, 100
5, 249590, Note_on_c, 0, 39, 0
5, 249728, Note_on_c, 0, 51, 100
5, 249846, Note_on_c, 0, 51, 0
5, 250368, Note_on_c, 0, 63, 100
5, 250622, Note_on_c, 0, 63, 0
5, 250752, Note_on_c, 0, 63, 100
5, 251006, Note_on_c, 0, 63, 0
5, 251136, Note_on_c, 0, 63, 100
5, 251390, Note_on_c, 0, 63, 0
5, 251520, Note_on_c, 0, 63, 100
5, 251774, Note_on_c, 0, 63, 0
5, 251904, Note_on_c, 0, 39, 100
5, 251904, Note_on_c, 0, 63, 100
5, 252158, Note_on_c, 0, 63, 0
5, 252288, Note_on_c, 0, 63, 100
5, 252479, Note_on_c, 0, 39, 0
5, 252542, Note_on_c, 0, 63, 0
5, 252672, Note_on_c, 0, 63, 100
5, 252800, Note_on_c, 0, 51, 100
5, 252918, Note_on_c, 0, 51, 0
5, 253247, Note_on_c, 0, 63, 0
5, 253312, Note_on_c, 0, 75, 100
5, 253430, Note_on_c, 0, 75, 0
5, 254080, Note_on_c, 0, 75, 100
5, 254198, Note_on_c, 0, 75, 0
5, 254976, Note_on_c, 0, 63, 100
5, 254976, Note_on_c, 0, 75, 100
5, 255094, Note_on_c, 0, 75, 0
5, 255230, Note_on_c, 0, 63, 0
5, 255360, Note_on_c, 0, 63, 100
5, 255478, Note_on_c, 0, 63, 0
5, 256000, Note_on_c, 0, 63, 100
5, 256118, Note_on_c, 0, 63, 0
5, 256256, Note_on_c, 0, 63, 100
5, 256374, Note_on_c, 0, 63, 0
5, 256640, Note_on_c, 0, 63, 100
5, 256758, Note_on_c, 0, 63, 0
5, 256896, Note_on_c, 0, 63, 100
5, 257014, Note_on_c, 0, 63, 0
5, 257536, Note_on_c, 0, 51, 100
5, 257536, Note_on_c, 0, 63, 100
5, 257654, Note_on_c, 0, 51, 0
5, 257790, Note_on_c, 0, 63, 0
5, 257920, Note_on_c, 0, 63, 100
5, 258038, Note_on_c, 0, 63, 0
5, 258432, Note_on_c, 0, 63, 100
5, 258686, Note_on_c, 0, 63, 0
5, 258688, Note_on_c, 0, 51, 100
5, 258688, Note_on_c, 0, 63, 100
5, 258806, Note_on_c, 0, 63, 0
5, 258806, Note_on_c, 0, 51, 0
5, 258944, Note_on_c, 0, 63, 100
5, 259062, Note_on_c, 0, 63, 0
5, 259328, Note_on_c, 0, 63, 100
5, 259446, Note_on_c, 0, 63, 0
5, 259584, Note_on_c, 0, 63, 100
5, 259964, Note_on_c, 0, 63, 0
5, 259968, Note_on_c, 0, 51, 100
5, 260222, Note_on_c, 0, 51, 0
5, 260224, Note_on_c, 0, 51, 100
5, 260224, Note_on_c, 0, 63, 100
5, 260342, Note_on_c, 0, 63, 0
5, 260342, Note_on_c, 0, 51, 0
5, 260352, Note_on_c, 0, 63, 100
5, 260732, Note_on_c, 0, 63, 0
5, 261888, Note_on_c, 0, 75, 100
5, 262016, Note_on_c, 0, 63, 100
5, 262134, Note_on_c, 0, 63, 0
5, 262463, Note_on_c, 0, 75, 0
5, 262528, Note_on_c, 0, 75, 100
5, 262646, Note_on_c, 0, 75, 0
5, 262656, Note_on_c, 0, 75, 100
5, 262784, Note_on_c, 0, 63, 100
5, 262902, Note_on_c, 0, 63, 0
5, 263231, Note_on_c, 0, 75, 0
5, 263296, Note_on_c, 0, 75, 100
5, 263414, Note_on_c, 0, 75, 0
5, 263424, Note_on_c, 0, 75, 100
5, 263552, Note_on_c, 0, 63, 100
5, 263670, Note_on_c, 0, 63, 0
5, 263999, Note_on_c, 0, 75, 0
5, 264064, Note_on_c, 0, 75, 100
5, 264182, Note_on_c, 0, 75, 0
5, 264192, Note_on_c, 0, 75, 100
5, 264310, Note_on_c, 0, 75, 0
5, 264960, Note_on_c, 0, 75, 100
5, 265214, Note_on_c, 0, 75, 0
5, 265216, Note_on_c, 0, 75, 100
5, 265334, Note_on_c, 0, 75, 0
5, 265344, Note_on_c, 0, 51, 100
5, 265344, Note_on_c, 0, 75, 100
5, 265462, Note_on_c, 0, 51, 0
5, 265598, Note_on_c, 0, 75, 0
5, 265600, Note_on_c, 0, 75, 100
5, 265718, Note_on_c, 0, 75, 0
5, 266752, Note_on_c, 0, 51, 100
5, 266870, Note_on_c, 0, 51, 0
5, 267008, Note_on_c, 0, 51, 100
5, 267126, Note_on_c, 0, 51, 0
5, 269568, Note_on_c, 0, 75, 100
5, 269686, Note_on_c, 0, 75, 0
5, 269824, Note_on_c, 0, 75, 100
5, 269942, Note_on_c, 0, 75, 0
5, 276480, Note_on_c, 0, 75, 100
5, 276598, Note_on_c, 0, 75, 0
5, 276864, Note_on_c, 0, 51, 100
5, 277118, Note_on_c, 0, 51, 0
5, 277120, Note_on_c, 0, 63, 100
5, 277238, Note_on_c, 0, 63, 0
5, 277504, Note_on_c, 0, 75, 100
5, 277622, Note_on_c, 0, 75, 0
5, 277888, Note_on_c, 0, 63, 100
5, 278006, Note_on_c, 0, 63, 0
5, 278400, Note_on_c, 0, 63, 100
5, 278518, Note_on_c, 0, 63, 0
5, 278656, Note_on_c, 0, 75, 100
5, 278774, Note_on_c, 0, 75, 0
5, 280192, Note_on_c, 0, 75, 100
5, 280310, Note_on_c, 0, 75, 0
5, 280320, Note_on_c, 0, 51, 100
5, 280574, Note_on_c, 0, 51, 0
5, 280576, Note_on_c, 0, 51, 100
5, 280694, Note_on_c, 0, 51, 0
5, 281856, Note_on_c, 0, 63, 100
5, 281974, Note_on_c, 0, 63, 0
5, 282240, Note_on_c, 0, 63, 100
5, 282358, Note_on_c, 0, 63, 0
5, 282624, Note_on_c, 0, 63, 100
5, 282878, Note_on_c, 0, 63, 0
5, 283008, Note_on_c, 0, 51, 100
5, 283126, Note_on_c, 0, 51, 0
5, 283392, Note_on_c, 0, 51, 100
5, 283646, Note_on_c, 0, 51, 0
5, 283776, Note_on_c, 0, 75, 100
5, 283894, Note_on_c, 0, 75, 0
5, 284160, Note_on_c, 0, 75, 100
5, 284278, Note_on_c, 0, 75, 0
5, 284544, Note_on_c, 0, 63, 100
5, 284662, Note_on_c, 0, 63, 0
5, 285184, Note_on_c, 0, 63, 100
5, 285302, Note_on_c, 0, 63, 0
5, 285696, Note_on_c, 0, 63, 100
5, 285814, Note_on_c, 0, 63, 0
5, 286080, Note_on_c, 0, 75, 100
5, 286198, Note_on_c, 0, 75, 0
5, 287104, Note_on_c, 0, 75, 100
5, 287222, Note_on_c, 0, 75, 0
5, 287232, Note_on_c, 0, 63, 100
5, 287486, Note_on_c, 0, 63, 0
5, 287488, Note_on_c, 0, 63, 100
5, 287606, Note_on_c, 0, 63, 0
5, 290944, Note_on_c, 0, 75, 100
5, 291062, Note_on_c, 0, 75, 0
5, 294528, Note_on_c, 0, 51, 100
5, 294782, Note_on_c, 0, 51, 0
5, 294784, Note_on_c, 0, 51, 100
5, 294902, Note_on_c, 0, 51, 0
5, 294912, Note_on_c, 0, 51, 100
5, 295487, Note_on_c, 0, 51, 0
5, 296704, Note_on_c, 0, 51, 100
5, 296822, Note_on_c, 0, 51, 0
5, 306816, Note_on_c, 0, 39, 100
5, 306934, Note_on_c, 0, 39, 0
5, 307072, Note_on_c, 0, 39, 100
5, 307190, Note_on_c, 0, 39, 0
5, 307328, Note_on_c, 0, 39, 100
5, 307446, Note_on_c, 0, 39, 0
5, 308608, Note_on_c, 0, 63, 100
5, 308726, Note_on_c, 0, 63, 0
5, 309376, Note_on_c, 0, 63, 100
5, 309494, Note_on_c, 0, 63, 0
5, 310144, Note_on_c, 0, 63, 100
5, 310262, Note_on_c, 0, 63, 0
5, 310912, Note_on_c, 0, 75, 100
5, 311030, Note_on_c, 0, 75, 0
5, 311680, Note_on_c, 0, 75, 100
5, 311798, Note_on_c, 0, 75, 0
5, 312448, Note_on_c, 0, 75, 100
5, 312566, Note_on_c, 0, 75, 0
5, 312832, Note_on_c, 0, 63, 100
5, 312950, Note_on_c, 0, 63, 0
5, 319104, Note_on_c, 0, 51, 100
5, 319220, Note_on_c, 0, 51, 0
5, 321408, Note_on_c, 0, 51, 100
5, 321534, Note_on_c, 0, 51, 0
5, 322176, Note_on_c, 0, 51, 100
5, 322281, Note_on_c, 0, 51, 0
5, 323416, Note_on_c, 0, 51, 100
5, 323480, Note_on_c, 0, 63, 100
5, 324182, Note_on_c, 0, 51, 0
5, 324496, Note_on_c, 0, 63, 0
5, 324504, Note_on_c, 0, 51, 100
5, 324674, Note_on_c, 0, 51, 0
5, 324674, End_track
6, 0, Start_track
6, 0, Title_t, "Harpsichord"
6, 0, Program_c, 0, 6
6, 0, Control_c, 0, 7, 100
6, 0, Control_c, 0, 10, 64
6, 0, Pitch_bend_c, 0, 7792
6, 13056, Note_on_c, 0, 64, 100
6, 13246, Note_on_c, 0, 64, 0
6, 13824, Note_on_c, 0, 52, 100
6, 14590, Note_on_c, 0, 52, 0
6, 14736, Note_on_c, 0, 64, 100
6, 14784, Note_on_c, 0, 64, 0
6, 14832, Note_on_c, 0, 64, 100
6, 14880, Note_on_c, 0, 64, 0
6, 14928, Note_on_c, 0, 64, 100
6, 15740, Note_on_c, 0, 64, 0
6, 16128, Note_on_c, 0, 52, 100
6, 17660, Note_on_c, 0, 52, 0
6, 18336, Note_on_c, 0, 64, 100
6, 18430, Note_on_c, 0, 64, 0
6, 26016, Note_on_c, 0, 64, 100
6, 26110, Note_on_c, 0, 64, 0
6, 26304, Note_on_c, 0, 64, 100
6, 26398, Note_on_c, 0, 64, 0
6, 27840, Note_on_c, 0, 64, 100
6, 27903, Note_on_c, 0, 64, 0
6, 27952, Note_on_c, 0, 64, 100
6, 28015, Note_on_c, 0, 64, 0
6, 28064, Note_on_c, 0, 64, 100
6, 28404, Note_on_c, 0, 64, 0
6, 28416, Note_on_c, 0, 64, 100
6, 28796, Note_on_c, 0, 64, 0
6, 29760, Note_on_c, 0, 64, 100
6, 29950, Note_on_c, 0, 64, 0
6, 32064, Note_on_c, 0, 76, 100
6, 32158, Note_on_c, 0, 76, 0
6, 32256, Note_on_c, 0, 40, 100
6, 32444, Note_on_c, 0, 76, 100
6, 32632, Note_on_c, 0, 76, 0
6, 32820, Note_on_c, 0, 76, 100
6, 32927, Note_on_c, 0, 76, 0
6, 33306, Note_on_c, 0, 40, 0
6, 33408, Note_on_c, 0, 64, 100
6, 33598, Note_on_c, 0, 64, 0
6, 33792, Note_on_c, 0, 40, 100
6, 34559, Note_on_c, 0, 40, 0
6, 36576, Note_on_c, 0, 64, 100
6, 36956, Note_on_c, 0, 64, 0
6, 48384, Note_on_c, 0, 52, 100
6, 48574, Note_on_c, 0, 52, 0
6, 48960, Note_on_c, 0, 52, 100
6, 49150, Note_on_c, 0, 52, 0
6, 49536, Note_on_c, 0, 52, 100
6, 49726, Note_on_c, 0, 52, 0
6, 54720, Note_on_c, 0, 76, 100
6, 54814, Note_on_c, 0, 76, 0
6, 55104, Note_on_c, 0, 76, 100
6, 55224, Note_on_c, 0, 76, 0
6, 61824, Note_on_c, 0, 76, 100
6, 62014, Note_on_c, 0, 76, 0
6, 62016, Note_on_c, 0, 76, 100
6, 62136, Note_on_c, 0, 76, 0
6, 62592, Note_on_c, 0, 64, 100
6, 62782, Note_on_c, 0, 64, 0
6, 62784, Note_on_c, 0, 76, 100
6, 62904, Note_on_c, 0, 76, 0
6, 63360, Note_on_c, 0, 76, 100
6, 63550, Note_on_c, 0, 76, 0
6, 63552, Note_on_c, 0, 64, 100
6, 63742, Note_on_c, 0, 64, 0
6, 64128, Note_on_c, 0, 52, 100
6, 64318, Note_on_c, 0, 52, 0
6, 64704, Note_on_c, 0, 52, 100
6, 64894, Note_on_c, 0, 52, 0
6, 65664, Note_on_c, 0, 64, 100
6, 65854, Note_on_c, 0, 64, 0
6, 65952, Note_on_c, 0, 64, 100
6, 66046, Note_on_c, 0, 64, 0
6, 66432, Note_on_c, 0, 52, 100
6, 66622, Note_on_c, 0, 52, 0
6, 66624, Note_on_c, 0, 64, 100
6, 66814, Note_on_c, 0, 64, 0
6, 67392, Note_on_c, 0, 64, 100
6, 67512, Note_on_c, 0, 64, 0
6, 68736, Note_on_c, 0, 64, 100
6, 68926, Note_on_c, 0, 64, 0
6, 69024, Note_on_c, 0, 64, 100
6, 69118, Note_on_c, 0, 64, 0
6, 69504, Note_on_c, 0, 52, 100
6, 69694, Note_on_c, 0, 52, 0
6, 69696, Note_on_c, 0, 64, 100
6, 69886, Note_on_c, 0, 64, 0
6, 70464, Note_on_c, 0, 64, 100
6, 70558, Note_on_c, 0, 64, 0
6, 89688, Note_on_c, 0, 64, 100
6, 89878, Note_on_c, 0, 64, 0
6, 90456, Note_on_c, 0, 76, 100
6, 90550, Note_on_c, 0, 76, 0
6, 91056, Note_on_c, 0, 76, 100
6, 91246, Note_on_c, 0, 76, 0
6, 91248, Note_on_c, 0, 64, 100
6, 91438, Note_on_c, 0, 64, 0
6, 92208, Note_on_c, 0, 64, 100
6, 92398, Note_on_c, 0, 64, 0
6, 92784, Note_on_c, 0, 64, 100
6, 92878, Note_on_c, 0, 64, 0
6, 92976, Note_on_c, 0, 76, 100
6, 93166, Note_on_c, 0, 76, 0
6, 93552, Note_on_c, 0, 76, 100
6, 93646, Note_on_c, 0, 76, 0
6, 93744, Note_on_c, 0, 64, 100
6, 93934, Note_on_c, 0, 64, 0
6, 94320, Note_on_c, 0, 52, 100
6, 94414, Note_on_c, 0, 52, 0
6, 94512, Note_on_c, 0, 64, 100
6, 94702, Note_on_c, 0, 64, 0
6, 95088, Note_on_c, 0, 64, 100
6, 95182, Note_on_c, 0, 64, 0
6, 95688, Note_on_c, 0, 64, 100
6, 95808, Note_on_c, 0, 64, 0
6, 98184, Note_on_c, 0, 76, 100
6, 98278, Note_on_c, 0, 76, 0
6, 98952, Note_on_c, 0, 64, 100
6, 99332, Note_on_c, 0, 64, 0
6, 99528, Note_on_c, 0, 52, 100
6, 99718, Note_on_c, 0, 52, 0
6, 99816, Note_on_c, 0, 64, 100
6, 99910, Note_on_c, 0, 64, 0
6, 101064, Note_on_c, 0, 64, 100
6, 101254, Note_on_c, 0, 64, 0
6, 126032, Note_on_c, 0, 64, 100
6, 126126, Note_on_c, 0, 64, 0
6, 128912, Note_on_c, 0, 64, 100
6, 129198, Note_on_c, 0, 64, 0
6, 132600, Note_on_c, 0, 76, 100
6, 132770, Note_on_c, 0, 76, 0
6, 138560, Note_on_c, 0, 64, 100
6, 138608, Note_on_c, 0, 64, 0
6, 151296, Note_on_c, 0, 64, 100
6, 151550, Note_on_c, 0, 64, 0
6, 151557, Note_on_c, 0, 64, 100
6, 151675, Note_on_c, 0, 64, 0
6, 152832, Note_on_c, 0, 64, 100
6, 152950, Note_on_c, 0, 64, 0
6, 153088, Note_on_c, 0, 64, 100
6, 153206, Note_on_c, 0, 64, 0
6, 153216, Note_on_c, 0, 52, 100
6, 153334, Note_on_c, 0, 52, 0
6, 153344, Note_on_c, 0, 64, 100
6, 153462, Note_on_c, 0, 64, 0
6, 153477, Note_on_c, 0, 52, 100
6, 153595, Note_on_c, 0, 52, 0
6, 153861, Note_on_c, 0, 64, 100
6, 153979, Note_on_c, 0, 64, 0
6, 154245, Note_on_c, 0, 52, 100
6, 154363, Note_on_c, 0, 52, 0
6, 154629, Note_on_c, 0, 64, 100
6, 154747, Note_on_c, 0, 64, 0
6, 155013, Note_on_c, 0, 52, 100
6, 155131, Note_on_c, 0, 52, 0
6, 155397, Note_on_c, 0, 64, 100
6, 155515, Note_on_c, 0, 64, 0
6, 155781, Note_on_c, 0, 52, 100
6, 155899, Note_on_c, 0, 52, 0
6, 156032, Note_on_c, 0, 52, 100
6, 156150, Note_on_c, 0, 52, 0
6, 157056, Note_on_c, 0, 64, 100
6, 157174, Note_on_c, 0, 64, 0
6, 157312, Note_on_c, 0, 64, 100
6, 157430, Note_on_c, 0, 64, 0
6, 157568, Note_on_c, 0, 64, 100
6, 157686, Note_on_c, 0, 64, 0
6, 157952, Note_on_c, 0, 64, 100
6, 158070, Note_on_c, 0, 64, 0
6, 163584, Note_on_c, 0, 76, 100
6, 163838, Note_on_c, 0, 76, 0
6, 163840, Note_on_c, 0, 76, 100
6, 163958, Note_on_c, 0, 76, 0
6, 163968, Note_on_c, 0, 76, 100
6, 164222, Note_on_c, 0, 76, 0
6, 164224, Note_on_c, 0, 76, 100
6, 164342, Note_on_c, 0, 76, 0
6, 165120, Note_on_c, 0, 52, 100
6, 165238, Note_on_c, 0, 52, 0
6, 165376, Note_on_c, 0, 52, 100
6, 165494, Note_on_c, 0, 52, 0
6, 165504, Note_on_c, 0, 40, 100
6, 165622, Note_on_c, 0, 40, 0
6, 165632, Note_on_c, 0, 52, 100
6, 165750, Note_on_c, 0, 52, 0
6, 165760, Note_on_c, 0, 40, 100
6, 165878, Note_on_c, 0, 40, 0
6, 166144, Note_on_c, 0, 76, 100
6, 166262, Note_on_c, 0, 76, 0
6, 166528, Note_on_c, 0, 40, 100
6, 166646, Note_on_c, 0, 40, 0
6, 166912, Note_on_c, 0, 76, 100
6, 167030, Note_on_c, 0, 76, 0
6, 167296, Note_on_c, 0, 40, 100
6, 167414, Note_on_c, 0, 40, 0
6, 167680, Note_on_c, 0, 76, 100
6, 167798, Note_on_c, 0, 76, 0
6, 168064, Note_on_c, 0, 40, 100
6, 168182, Note_on_c, 0, 40, 0
6, 168320, Note_on_c, 0, 40, 100
6, 168438, Note_on_c, 0, 40, 0
6, 169344, Note_on_c, 0, 76, 100
6, 169462, Note_on_c, 0, 76, 0
6, 169600, Note_on_c, 0, 76, 100
6, 169718, Note_on_c, 0, 76, 0
6, 169856, Note_on_c, 0, 76, 100
6, 169974, Note_on_c, 0, 76, 0
6, 170240, Note_on_c, 0, 76, 100
6, 170358, Note_on_c, 0, 76, 0
6, 174848, Note_on_c, 0, 76, 100
6, 174966, Note_on_c, 0, 76, 0
6, 175488, Note_on_c, 0, 64, 100
6, 175742, Note_on_c, 0, 64, 0
6, 175744, Note_on_c, 0, 64, 100
6, 175862, Note_on_c, 0, 64, 0
6, 178432, Note_on_c, 0, 76, 100
6, 178550, Note_on_c, 0, 76, 0
6, 178688, Note_on_c, 0, 76, 100
6, 178806, Note_on_c, 0, 76, 0
6, 179200, Note_on_c, 0, 76, 100
6, 179318, Note_on_c, 0, 76, 0
6, 179456, Note_on_c, 0, 76, 100
6, 179574, Note_on_c, 0, 76, 0
6, 179968, Note_on_c, 0, 76, 100
6, 180086, Note_on_c, 0, 76, 0
6, 180224, Note_on_c, 0, 76, 100
6, 180342, Note_on_c, 0, 76, 0
6, 183552, Note_on_c, 0, 52, 100
6, 183670, Note_on_c, 0, 52, 0
6, 183808, Note_on_c, 0, 52, 100
6, 183926, Note_on_c, 0, 52, 0
6, 189312, Note_on_c, 0, 76, 100
6, 189430, Note_on_c, 0, 76, 0
6, 189696, Note_on_c, 0, 76, 100
6, 189814, Note_on_c, 0, 76, 0
6, 191360, Note_on_c, 0, 64, 100
6, 191478, Note_on_c, 0, 64, 0
6, 191744, Note_on_c, 0, 64, 100
6, 191862, Note_on_c, 0, 64, 0
6, 192000, Note_on_c, 0, 64, 100
6, 192254, Note_on_c, 0, 64, 0
6, 192256, Note_on_c, 0, 64, 100
6, 192374, Note_on_c, 0, 64, 0
6, 192384, Note_on_c, 0, 64, 100
6, 192638, Note_on_c, 0, 64, 0
6, 192640, Note_on_c, 0, 64, 100
6, 192758, Note_on_c, 0, 64, 0
6, 193920, Note_on_c, 0, 64, 100
6, 194174, Note_on_c, 0, 64, 0
6, 194176, Note_on_c, 0, 64, 100
6, 194294, Note_on_c, 0, 64, 0
6, 194560, Note_on_c, 0, 64, 100
6, 194678, Note_on_c, 0, 64, 0
6, 195328, Note_on_c, 0, 64, 100
6, 195446, Note_on_c, 0, 64, 0
6, 195584, Note_on_c, 0, 64, 100
6, 195702, Note_on_c, 0, 64, 0
6, 195712, Note_on_c, 0, 76, 100
6, 195830, Note_on_c, 0, 76, 0
6, 196096, Note_on_c, 0, 64, 100
6, 196214, Note_on_c, 0, 64, 0
6, 196352, Note_on_c, 0, 64, 100
6, 196470, Note_on_c, 0, 64, 0
6, 196480, Note_on_c, 0, 76, 100
6, 196598, Note_on_c, 0, 76, 0
6, 196864, Note_on_c, 0, 64, 100
6, 196982, Note_on_c, 0, 64, 0
6, 197120, Note_on_c, 0, 64, 100
6, 197238, Note_on_c, 0, 64, 0
6, 197248, Note_on_c, 0, 76, 100
6, 197366, Note_on_c, 0, 76, 0
6, 197504, Note_on_c, 0, 64, 100
6, 197622, Note_on_c, 0, 64, 0
6, 197760, Note_on_c, 0, 64, 100
6, 198014, Note_on_c, 0, 64, 0
6, 198528, Note_on_c, 0, 76, 100
6, 198646, Note_on_c, 0, 76, 0
6, 198784, Note_on_c, 0, 76, 100
6, 198902, Note_on_c, 0, 76, 0
6, 199040, Note_on_c, 0, 76, 100
6, 199158, Note_on_c, 0, 76, 0
6, 199424, Note_on_c, 0, 76, 100
6, 199542, Note_on_c, 0, 76, 0
6, 204416, Note_on_c, 0, 76, 100
6, 204534, Note_on_c, 0, 76, 0
6, 204800, Note_on_c, 0, 40, 100
6, 204918, Note_on_c, 0, 40, 0
6, 204928, Note_on_c, 0, 76, 100
6, 205046, Note_on_c, 0, 76, 0
6, 205696, Note_on_c, 0, 64, 100
6, 205814, Note_on_c, 0, 64, 0
6, 206208, Note_on_c, 0, 64, 100
6, 206462, Note_on_c, 0, 64, 0
6, 207104, Note_on_c, 0, 76, 100
6, 207222, Note_on_c, 0, 76, 0
6, 207744, Note_on_c, 0, 76, 100
6, 207998, Note_on_c, 0, 76, 0
6, 208000, Note_on_c, 0, 76, 100
6, 208118, Note_on_c, 0, 76, 0
6, 210304, Note_on_c, 0, 52, 100
6, 210422, Note_on_c, 0, 52, 0
6, 210688, Note_on_c, 0, 52, 100
6, 210688, Note_on_c, 0, 76, 100
6, 210806, Note_on_c, 0, 76, 0
6, 210806, Note_on_c, 0, 52, 0
6, 210944, Note_on_c, 0, 76, 100
6, 211062, Note_on_c, 0, 76, 0
6, 211456, Note_on_c, 0, 76, 100
6, 211574, Note_on_c, 0, 76, 0
6, 211712, Note_on_c, 0, 76, 100
6, 211830, Note_on_c, 0, 76, 0
6, 212224, Note_on_c, 0, 76, 100
6, 212342, Note_on_c, 0, 76, 0
6, 212480, Note_on_c, 0, 76, 100
6, 212598, Note_on_c, 0, 76, 0
6, 212864, Note_on_c, 0, 76, 100
6, 212982, Note_on_c, 0, 76, 0
6, 213632, Note_on_c, 0, 52, 100
6, 213750, Note_on_c, 0, 52, 0
6, 213888, Note_on_c, 0, 76, 100
6, 214006, Note_on_c, 0, 76, 0
6, 214144, Note_on_c, 0, 76, 100
6, 214262, Note_on_c, 0, 76, 0
6, 215040, Note_on_c, 0, 52, 100
6, 215294, Note_on_c, 0, 52, 0
6, 215296, Note_on_c, 0, 52, 100
6, 215414, Note_on_c, 0, 52, 0
6, 215680, Note_on_c, 0, 64, 100
6, 215798, Note_on_c, 0, 64, 0
6, 215808, Note_on_c, 0, 64, 100
6, 216062, Note_on_c, 0, 64, 0
6, 216576, Note_on_c, 0, 52, 100
6, 216694, Note_on_c, 0, 52, 0
6, 216832, Note_on_c, 0, 52, 100
6, 216950, Note_on_c, 0, 52, 0
6, 216960, Note_on_c, 0, 40, 100
6, 217078, Note_on_c, 0, 40, 0
6, 217088, Note_on_c, 0, 52, 100
6, 217206, Note_on_c, 0, 52, 0
6, 217216, Note_on_c, 0, 40, 100
6, 217216, Note_on_c, 0, 64, 100
6, 217334, Note_on_c, 0, 64, 0
6, 217334, Note_on_c, 0, 40, 0
6, 217600, Note_on_c, 0, 52, 100
6, 217718, Note_on_c, 0, 52, 0
6, 217984, Note_on_c, 0, 40, 100
6, 217984, Note_on_c, 0, 64, 100
6, 218102, Note_on_c, 0, 64, 0
6, 218102, Note_on_c, 0, 40, 0
6, 218368, Note_on_c, 0, 52, 100
6, 218486, Note_on_c, 0, 52, 0
6, 218752, Note_on_c, 0, 40, 100
6, 218752, Note_on_c, 0, 64, 100
6, 218870, Note_on_c, 0, 64, 0
6, 218870, Note_on_c, 0, 40, 0
6, 219136, Note_on_c, 0, 52, 100
6, 219254, Note_on_c, 0, 52, 0
6, 219520, Note_on_c, 0, 40, 100
6, 219520, Note_on_c, 0, 64, 100
6, 219638, Note_on_c, 0, 64, 0
6, 219638, Note_on_c, 0, 40, 0
6, 219776, Note_on_c, 0, 40, 100
6, 219894, Note_on_c, 0, 40, 0
6, 220032, Note_on_c, 0, 64, 100
6, 220286, Note_on_c, 0, 64, 0
6, 220800, Note_on_c, 0, 52, 100
6, 221054, Note_on_c, 0, 52, 0
6, 221568, Note_on_c, 0, 52, 100
6, 221686, Note_on_c, 0, 52, 0
6, 222080, Note_on_c, 0, 52, 100
6, 222198, Note_on_c, 0, 52, 0
6, 222464, Note_on_c, 0, 52, 100
6, 222582, Note_on_c, 0, 52, 0
6, 265728, Note_on_c, 0, 76, 100
6, 265982, Note_on_c, 0, 76, 0
6, 265984, Note_on_c, 0, 76, 100
6, 266102, Note_on_c, 0, 76, 0
6, 266112, Note_on_c, 0, 76, 100
6, 266366, Note_on_c, 0, 76, 0
6, 266368, Note_on_c, 0, 76, 100
6, 266486, Note_on_c, 0, 76, 0
6, 268032, Note_on_c, 0, 76, 100
6, 268150, Note_on_c, 0, 76, 0
6, 268288, Note_on_c, 0, 64, 100
6, 268406, Note_on_c, 0, 64, 0
6, 269952, Note_on_c, 0, 76, 100
6, 270070, Note_on_c, 0, 76, 0
6, 270208, Note_on_c, 0, 76, 100
6, 270326, Note_on_c, 0, 76, 0
6, 270464, Note_on_c, 0, 76, 100
6, 270582, Note_on_c, 0, 76, 0
6, 271104, Note_on_c, 0, 76, 100
6, 271742, Note_on_c, 0, 76, 0
6, 271744, Note_on_c, 0, 40, 100
6, 271862, Note_on_c, 0, 40, 0
6, 272512, Note_on_c, 0, 40, 100
6, 272630, Note_on_c, 0, 40, 0
6, 273280, Note_on_c, 0, 40, 100
6, 273398, Note_on_c, 0, 40, 0
6, 274048, Note_on_c, 0, 64, 100
6, 274166, Note_on_c, 0, 64, 0
6, 274560, Note_on_c, 0, 64, 100
6, 274814, Note_on_c, 0, 64, 0
6, 274816, Note_on_c, 0, 64, 100
6, 274934, Note_on_c, 0, 64, 0
6, 275328, Note_on_c, 0, 52, 100
6, 275582, Note_on_c, 0, 52, 0
6, 293248, Note_on_c, 0, 64, 100
6, 293366, Note_on_c, 0, 64, 0
6, 293504, Note_on_c, 0, 64, 100
6, 293622, Note_on_c, 0, 64, 0
6, 293888, Note_on_c, 0, 64, 100
6, 294006, Note_on_c, 0, 64, 0
6, 299136, Note_on_c, 0, 76, 100
6, 299390, Note_on_c, 0, 76, 0
6, 299392, Note_on_c, 0, 76, 100
6, 299510, Note_on_c, 0, 76, 0
6, 299520, Note_on_c, 0, 64, 100
6, 299774, Note_on_c, 0, 64, 0
6, 299776, Note_on_c, 0, 64, 100
6, 299894, Note_on_c, 0, 64, 0
6, 301056, Note_on_c, 0, 64, 100
6, 301631, Note_on_c, 0, 64, 0
6, 301696, Note_on_c, 0, 64, 100
6, 301814, Note_on_c, 0, 64, 0
6, 302080, Note_on_c, 0, 64, 100
6, 302080, Note_on_c, 0, 76, 100
6, 302198, Note_on_c, 0, 76, 0
6, 302198, Note_on_c, 0, 64, 0
6, 302336, Note_on_c, 0, 76, 100
6, 302454, Note_on_c, 0, 76, 0
6, 302848, Note_on_c, 0, 76, 100
6, 302966, Note_on_c, 0, 76, 0
6, 303104, Note_on_c, 0, 76, 100
6, 303222, Note_on_c, 0, 76, 0
6, 303616, Note_on_c, 0, 64, 100
6, 303734, Note_on_c, 0, 64, 0
6, 303872, Note_on_c, 0, 64, 100
6, 303990, Note_on_c, 0, 64, 0
6, 304000, Note_on_c, 0, 76, 100
6, 304118, Note_on_c, 0, 76, 0
6, 304256, Note_on_c, 0, 64, 100
6, 304374, Note_on_c, 0, 64, 0
6, 304512, Note_on_c, 0, 64, 100
6, 304766, Note_on_c, 0, 64, 0
6, 306432, Note_on_c, 0, 40, 100
6, 306550, Note_on_c, 0, 40, 0
6, 306688, Note_on_c, 0, 40, 100
6, 306806, Note_on_c, 0, 40, 0
6, 306806, End_track
7, 0, Start_track
7, 0, Title_t, "Harpsichord"
7, 0, Program_c, 0, 6
7, 0, Control_c, 0, 7, 100
7, 0, Control_c, 0, 10, 64
7, 0, Pitch_bend_c, 0, 8112
7, 5742, Note_on_c, 0, 53, 100
7, 5836, Note_on_c, 0, 53, 0
7, 12672, Note_on_c, 0, 65, 100
7, 13054, Note_on_c, 0, 65, 0
7, 14496, Note_on_c, 0, 65, 100
7, 14586, Note_on_c, 0, 65, 0
7, 14592, Note_on_c, 0, 65, 100
7, 14736, Note_on_c, 0, 65, 0
7, 14784, Note_on_c, 0, 65, 100
7, 14832, Note_on_c, 0, 65, 0
7, 14880, Note_on_c, 0, 65, 100
7, 14928, Note_on_c, 0, 65, 0
7, 15360, Note_on_c, 0, 53, 100
7, 16127, Note_on_c, 0, 53, 0
7, 18432, Note_on_c, 0, 65, 100
7, 18432, Note_on_c, 0, 41, 100
7, 18622, Note_on_c, 0, 65, 0
7, 18816, Note_on_c, 0, 65, 100
7, 19006, Note_on_c, 0, 65, 0
7, 19200, Note_on_c, 0, 53, 100
7, 19776, Note_on_c, 0, 65, 100
7, 19966, Note_on_c, 0, 65, 0
7, 19967, Note_on_c, 0, 53, 0
7, 20732, Note_on_c, 0, 41, 0
7, 20736, Note_on_c, 0, 41, 100
7, 22268, Note_on_c, 0, 41, 0
7, 27648, Note_on_c, 0, 65, 100
7, 27838, Note_on_c, 0, 65, 0
7, 27896, Note_on_c, 0, 65, 100
7, 27959, Note_on_c, 0, 65, 0
7, 28008, Note_on_c, 0, 65, 100
7, 28071, Note_on_c, 0, 65, 0
7, 31872, Note_on_c, 0, 41, 100
7, 32160, Note_on_c, 0, 77, 100
7, 32252, Note_on_c, 0, 41, 0
7, 32254, Note_on_c, 0, 77, 0
7, 41848, Note_on_c, 0, 77, 100
7, 41968, Note_on_c, 0, 77, 0
7, 42044, Note_on_c, 0, 65, 100
7, 42142, Note_on_c, 0, 53, 100
7, 42164, Note_on_c, 0, 65, 0
7, 42236, Note_on_c, 0, 53, 0
7, 42432, Note_on_c, 0, 53, 100
7, 42526, Note_on_c, 0, 53, 0
7, 42816, Note_on_c, 0, 77, 100
7, 42912, Note_on_c, 0, 53, 100
7, 42936, Note_on_c, 0, 77, 0
7, 43006, Note_on_c, 0, 53, 0
7, 43200, Note_on_c, 0, 53, 100
7, 43294, Note_on_c, 0, 53, 0
7, 43584, Note_on_c, 0, 77, 100
7, 43680, Note_on_c, 0, 53, 100
7, 43774, Note_on_c, 0, 53, 0
7, 43774, Note_on_c, 0, 77, 0
7, 43968, Note_on_c, 0, 77, 100
7, 43968, Note_on_c, 0, 53, 100
7, 44062, Note_on_c, 0, 53, 0
7, 44062, Note_on_c, 0, 77, 0
7, 44160, Note_on_c, 0, 53, 100
7, 44340, Note_on_c, 0, 53, 0
7, 44352, Note_on_c, 0, 77, 100
7, 44352, Note_on_c, 0, 41, 100
7, 44472, Note_on_c, 0, 77, 0
7, 44532, Note_on_c, 0, 41, 0
7, 44928, Note_on_c, 0, 65, 100
7, 45118, Note_on_c, 0, 65, 0
7, 45216, Note_on_c, 0, 77, 100
7, 45310, Note_on_c, 0, 77, 0
7, 45504, Note_on_c, 0, 77, 100
7, 45598, Note_on_c, 0, 77, 0
7, 45984, Note_on_c, 0, 77, 100
7, 46078, Note_on_c, 0, 77, 0
7, 46272, Note_on_c, 0, 77, 100
7, 46366, Note_on_c, 0, 77, 0
7, 46752, Note_on_c, 0, 77, 100
7, 46846, Note_on_c, 0, 77, 0
7, 47232, Note_on_c, 0, 53, 100
7, 47422, Note_on_c, 0, 53, 0
7, 48192, Note_on_c, 0, 53, 100
7, 48288, Note_on_c, 0, 77, 100
7, 48382, Note_on_c, 0, 77, 0
7, 48382, Note_on_c, 0, 53, 0
7, 49152, Note_on_c, 0, 41, 100
7, 49342, Note_on_c, 0, 41, 0
7, 49344, Note_on_c, 0, 65, 100
7, 49344, Note_on_c, 0, 53, 100
7, 49464, Note_on_c, 0, 65, 0
7, 49534, Note_on_c, 0, 53, 0
7, 49920, Note_on_c, 0, 65, 100
7, 50300, Note_on_c, 0, 65, 0
7, 50688, Note_on_c, 0, 65, 100
7, 50968, Note_on_c, 0, 65, 0
7, 52224, Note_on_c, 0, 41, 100
7, 52414, Note_on_c, 0, 41, 0
7, 52416, Note_on_c, 0, 77, 100
7, 52416, Note_on_c, 0, 53, 100
7, 52606, Note_on_c, 0, 53, 0
7, 52606, Note_on_c, 0, 77, 0
7, 52800, Note_on_c, 0, 53, 100
7, 52990, Note_on_c, 0, 53, 0
7, 53568, Note_on_c, 0, 53, 100
7, 53758, Note_on_c, 0, 53, 0
7, 54336, Note_on_c, 0, 53, 100
7, 54526, Note_on_c, 0, 53, 0
7, 54816, Note_on_c, 0, 77, 100
7, 54910, Note_on_c, 0, 77, 0
7, 55296, Note_on_c, 0, 65, 100
7, 55488, Note_on_c, 0, 77, 100
7, 55576, Note_on_c, 0, 65, 0
7, 55584, Note_on_c, 0, 41, 100
7, 55678, Note_on_c, 0, 41, 0
7, 55678, Note_on_c, 0, 77, 0
7, 56736, Note_on_c, 0, 77, 100
7, 56830, Note_on_c, 0, 77, 0
7, 57600, Note_on_c, 0, 53, 100
7, 57790, Note_on_c, 0, 53, 0
7, 57792, Note_on_c, 0, 77, 100
7, 57982, Note_on_c, 0, 77, 0
7, 58176, Note_on_c, 0, 53, 100
7, 58366, Note_on_c, 0, 53, 0
7, 58560, Note_on_c, 0, 65, 100
7, 58700, Note_on_c, 0, 65, 0
7, 58752, Note_on_c, 0, 65, 100
7, 58752, Note_on_c, 0, 77, 100
7, 58872, Note_on_c, 0, 65, 0
7, 58942, Note_on_c, 0, 77, 0
7, 58944, Note_on_c, 0, 65, 100
7, 59040, Note_on_c, 0, 53, 100
7, 59064, Note_on_c, 0, 65, 0
7, 59134, Note_on_c, 0, 53, 0
7, 59328, Note_on_c, 0, 53, 100
7, 59422, Note_on_c, 0, 53, 0
7, 59712, Note_on_c, 0, 65, 100
7, 59712, Note_on_c, 0, 77, 100
7, 59808, Note_on_c, 0, 53, 100
7, 59832, Note_on_c, 0, 65, 0
7, 59902, Note_on_c, 0, 53, 0
7, 59902, Note_on_c, 0, 77, 0
7, 60096, Note_on_c, 0, 53, 100
7, 60190, Note_on_c, 0, 53, 0
7, 60480, Note_on_c, 0, 65, 100
7, 60480, Note_on_c, 0, 77, 100
7, 60576, Note_on_c, 0, 53, 100
7, 60600, Note_on_c, 0, 65, 0
7, 60670, Note_on_c, 0, 53, 0
7, 60670, Note_on_c, 0, 77, 0
7, 60864, Note_on_c, 0, 53, 100
7, 60958, Note_on_c, 0, 53, 0
7, 61056, Note_on_c, 0, 65, 100
7, 61056, Note_on_c, 0, 53, 100
7, 61176, Note_on_c, 0, 65, 0
7, 61246, Note_on_c, 0, 53, 0
7, 61248, Note_on_c, 0, 65, 100
7, 61248, Note_on_c, 0, 77, 100
7, 61368, Note_on_c, 0, 65, 0
7, 61438, Note_on_c, 0, 77, 0
7, 61440, Note_on_c, 0, 65, 100
7, 61560, Note_on_c, 0, 65, 0
7, 62208, Note_on_c, 0, 77, 100
7, 62398, Note_on_c, 0, 77, 0
7, 62400, Note_on_c, 0, 77, 100
7, 62520, Note_on_c, 0, 77, 0
7, 62976, Note_on_c, 0, 77, 100
7, 62976, Note_on_c, 0, 65, 100
7, 63166, Note_on_c, 0, 65, 0
7, 63166, Note_on_c, 0, 77, 0
7, 63168, Note_on_c, 0, 53, 100
7, 63264, Note_on_c, 0, 77, 100
7, 63358, Note_on_c, 0, 77, 0
7, 63358, Note_on_c, 0, 53, 0
7, 63744, Note_on_c, 0, 65, 100
7, 63744, Note_on_c, 0, 53, 100
7, 63884, Note_on_c, 0, 65, 0
7, 63934, Note_on_c, 0, 53, 0
7, 63936, Note_on_c, 0, 65, 100
7, 64126, Note_on_c, 0, 65, 0
7, 64320, Note_on_c, 0, 65, 100
7, 64510, Note_on_c, 0, 65, 0
7, 64512, Note_on_c, 0, 65, 100
7, 64512, Note_on_c, 0, 53, 100
7, 64672, Note_on_c, 0, 53, 0
7, 64672, Note_on_c, 0, 65, 0
7, 64896, Note_on_c, 0, 53, 100
7, 65088, Note_on_c, 0, 41, 100
7, 65184, Note_on_c, 0, 65, 100
7, 65276, Note_on_c, 0, 53, 0
7, 65278, Note_on_c, 0, 65, 0
7, 65278, Note_on_c, 0, 41, 0
7, 65472, Note_on_c, 0, 65, 100
7, 65662, Note_on_c, 0, 65, 0
7, 65856, Note_on_c, 0, 65, 100
7, 65950, Note_on_c, 0, 65, 0
7, 66048, Note_on_c, 0, 65, 100
7, 66238, Note_on_c, 0, 65, 0
7, 66240, Note_on_c, 0, 53, 100
7, 66430, Note_on_c, 0, 53, 0
7, 66816, Note_on_c, 0, 53, 100
7, 67006, Note_on_c, 0, 53, 0
7, 67008, Note_on_c, 0, 65, 100
7, 67198, Note_on_c, 0, 65, 0
7, 67200, Note_on_c, 0, 65, 100
7, 67390, Note_on_c, 0, 65, 0
7, 67488, Note_on_c, 0, 65, 100
7, 67582, Note_on_c, 0, 65, 0
7, 67584, Note_on_c, 0, 65, 100
7, 67584, Note_on_c, 0, 53, 100
7, 67774, Note_on_c, 0, 65, 0
7, 67776, Note_on_c, 0, 41, 100
7, 67964, Note_on_c, 0, 53, 0
7, 68256, Note_on_c, 0, 65, 100
7, 68350, Note_on_c, 0, 65, 0
7, 68542, Note_on_c, 0, 41, 0
7, 68544, Note_on_c, 0, 65, 100
7, 68734, Note_on_c, 0, 65, 0
7, 68928, Note_on_c, 0, 65, 100
7, 69022, Note_on_c, 0, 65, 0
7, 69120, Note_on_c, 0, 65, 100
7, 69310, Note_on_c, 0, 65, 0
7, 69312, Note_on_c, 0, 53, 100
7, 69502, Note_on_c, 0, 53, 0
7, 69888, Note_on_c, 0, 53, 100
7, 70078, Note_on_c, 0, 53, 0
7, 70080, Note_on_c, 0, 65, 100
7, 70174, Note_on_c, 0, 65, 0
7, 70272, Note_on_c, 0, 65, 100
7, 70462, Note_on_c, 0, 65, 0
7, 70560, Note_on_c, 0, 65, 100
7, 70654, Note_on_c, 0, 65, 0
7, 70656, Note_on_c, 0, 65, 100
7, 70656, Note_on_c, 0, 53, 100
7, 70846, Note_on_c, 0, 53, 0
7, 70846, Note_on_c, 0, 65, 0
7, 70848, Note_on_c, 0, 65, 100
7, 71038, Note_on_c, 0, 65, 0
7, 71232, Note_on_c, 0, 77, 100
7, 71422, Note_on_c, 0, 77, 0
7, 71424, Note_on_c, 0, 65, 100
7, 71614, Note_on_c, 0, 65, 0
7, 72000, Note_on_c, 0, 77, 100
7, 72096, Note_on_c, 0, 65, 100
7, 72190, Note_on_c, 0, 65, 0
7, 72190, Note_on_c, 0, 77, 0
7, 72384, Note_on_c, 0, 65, 100
7, 72478, Note_on_c, 0, 65, 0
7, 72768, Note_on_c, 0, 77, 100
7, 72864, Note_on_c, 0, 65, 100
7, 72958, Note_on_c, 0, 65, 0
7, 72958, Note_on_c, 0, 77, 0
7, 73152, Note_on_c, 0, 65, 100
7, 73246, Note_on_c, 0, 65, 0
7, 73344, Note_on_c, 0, 65, 100
7, 73534, Note_on_c, 0, 65, 0
7, 73536, Note_on_c, 0, 77, 100
7, 73726, Note_on_c, 0, 77, 0
7, 73920, Note_on_c, 0, 65, 100
7, 74110, Note_on_c, 0, 65, 0
7, 74112, Note_on_c, 0, 65, 100
7, 74302, Note_on_c, 0, 65, 0
7, 74400, Note_on_c, 0, 77, 100
7, 74494, Note_on_c, 0, 77, 0
7, 74688, Note_on_c, 0, 77, 100
7, 74782, Note_on_c, 0, 77, 0
7, 75072, Note_on_c, 0, 65, 100
7, 75168, Note_on_c, 0, 77, 100
7, 75262, Note_on_c, 0, 77, 0
7, 75262, Note_on_c, 0, 65, 0
7, 75456, Note_on_c, 0, 77, 100
7, 75550, Note_on_c, 0, 77, 0
7, 75840, Note_on_c, 0, 65, 100
7, 75936, Note_on_c, 0, 77, 100
7, 76030, Note_on_c, 0, 77, 0
7, 76030, Note_on_c, 0, 65, 0
7, 76416, Note_on_c, 0, 53, 100
7, 76608, Note_on_c, 0, 77, 100
7, 76608, Note_on_c, 0, 41, 100
7, 76796, Note_on_c, 0, 53, 0
7, 76798, Note_on_c, 0, 41, 0
7, 76798, Note_on_c, 0, 77, 0
7, 76800, Note_on_c, 0, 65, 100
7, 76990, Note_on_c, 0, 65, 0
7, 76992, Note_on_c, 0, 65, 100
7, 77182, Note_on_c, 0, 65, 0
7, 77568, Note_on_c, 0, 65, 100
7, 78240, Note_on_c, 0, 53, 100
7, 78334, Note_on_c, 0, 53, 0
7, 78912, Note_on_c, 0, 77, 100
7, 79008, Note_on_c, 0, 41, 100
7, 79098, Note_on_c, 0, 65, 0
7, 79102, Note_on_c, 0, 41, 0
7, 79102, Note_on_c, 0, 77, 0
7, 79392, Note_on_c, 0, 65, 100
7, 79486, Note_on_c, 0, 65, 0
7, 79488, Note_on_c, 0, 53, 100
7, 79678, Note_on_c, 0, 53, 0
7, 79680, Note_on_c, 0, 41, 100
7, 79680, Note_on_c, 0, 53, 100
7, 79870, Note_on_c, 0, 53, 0
7, 79870, Note_on_c, 0, 41, 0
7, 79872, Note_on_c, 0, 53, 100
7, 80062, Note_on_c, 0, 53, 0
7, 80064, Note_on_c, 0, 65, 100
7, 80254, Note_on_c, 0, 65, 0
7, 80640, Note_on_c, 0, 65, 100
7, 81312, Note_on_c, 0, 53, 100
7, 81406, Note_on_c, 0, 53, 0
7, 81984, Note_on_c, 0, 77, 100
7, 82080, Note_on_c, 0, 41, 100
7, 82170, Note_on_c, 0, 65, 0
7, 82174, Note_on_c, 0, 41, 0
7, 82174, Note_on_c, 0, 77, 0
7, 82560, Note_on_c, 0, 53, 100
7, 82750, Note_on_c, 0, 53, 0
7, 82752, Note_on_c, 0, 53, 100
7, 82752, Note_on_c, 0, 41, 100
7, 82942, Note_on_c, 0, 41, 0
7, 82942, Note_on_c, 0, 53, 0
7, 82944, Note_on_c, 0, 53, 100
7, 83134, Note_on_c, 0, 53, 0
7, 83328, Note_on_c, 0, 53, 100
7, 83518, Note_on_c, 0, 53, 0
7, 83520, Note_on_c, 0, 53, 100
7, 83680, Note_on_c, 0, 53, 0
7, 84288, Note_on_c, 0, 65, 100
7, 84458, Note_on_c, 0, 65, 0
7, 86400, Note_on_c, 0, 77, 100
7, 86590, Note_on_c, 0, 77, 0
7, 89880, Note_on_c, 0, 53, 100
7, 90070, Note_on_c, 0, 53, 0
7, 91440, Note_on_c, 0, 77, 100
7, 91630, Note_on_c, 0, 77, 0
7, 91728, Note_on_c, 0, 53, 100
7, 91822, Note_on_c, 0, 53, 0
7, 91824, Note_on_c, 0, 65, 100
7, 92014, Note_on_c, 0, 65, 0
7, 92592, Note_on_c, 0, 77, 100
7, 92782, Note_on_c, 0, 77, 0
7, 92880, Note_on_c, 0, 77, 100
7, 92974, Note_on_c, 0, 77, 0
7, 93360, Note_on_c, 0, 65, 100
7, 93550, Note_on_c, 0, 65, 0
7, 93648, Note_on_c, 0, 65, 100
7, 93742, Note_on_c, 0, 65, 0
7, 94416, Note_on_c, 0, 65, 100
7, 94510, Note_on_c, 0, 65, 0
7, 94800, Note_on_c, 0, 65, 100
7, 94894, Note_on_c, 0, 65, 0
7, 94896, Note_on_c, 0, 65, 100
7, 95086, Note_on_c, 0, 65, 0
7, 95280, Note_on_c, 0, 53, 100
7, 95470, Note_on_c, 0, 53, 0
7, 95496, Note_on_c, 0, 65, 100
7, 95616, Note_on_c, 0, 65, 0
7, 96072, Note_on_c, 0, 65, 100
7, 96452, Note_on_c, 0, 65, 0
7, 96456, Note_on_c, 0, 53, 100
7, 96646, Note_on_c, 0, 53, 0
7, 96840, Note_on_c, 0, 65, 100
7, 97220, Note_on_c, 0, 65, 0
7, 97224, Note_on_c, 0, 53, 100
7, 97414, Note_on_c, 0, 53, 0
7, 97608, Note_on_c, 0, 65, 100
7, 97798, Note_on_c, 0, 65, 0
7, 97992, Note_on_c, 0, 77, 100
7, 98182, Note_on_c, 0, 77, 0
7, 98376, Note_on_c, 0, 65, 100
7, 98566, Note_on_c, 0, 65, 0
7, 98568, Note_on_c, 0, 65, 100
7, 98948, Note_on_c, 0, 65, 0
7, 99144, Note_on_c, 0, 53, 100
7, 99334, Note_on_c, 0, 53, 0
7, 99432, Note_on_c, 0, 65, 100
7, 99526, Note_on_c, 0, 65, 0
7, 99720, Note_on_c, 0, 65, 100
7, 99814, Note_on_c, 0, 65, 0
7, 99912, Note_on_c, 0, 65, 100
7, 100102, Note_on_c, 0, 65, 0
7, 100680, Note_on_c, 0, 65, 100
7, 100870, Note_on_c, 0, 65, 0
7, 102792, Note_on_c, 0, 53, 100
7, 102792, Note_on_c, 0, 65, 100
7, 102982, Note_on_c, 0, 65, 0
7, 102982, Note_on_c, 0, 53, 0
7, 105672, Note_on_c, 0, 65, 100
7, 105864, Note_on_c, 0, 77, 100
7, 105960, Note_on_c, 0, 53, 100
7, 106052, Note_on_c, 0, 65, 0
7, 106054, Note_on_c, 0, 53, 0
7, 106054, Note_on_c, 0, 77, 0
7, 106056, Note_on_c, 0, 65, 100
7, 106256, Note_on_c, 0, 65, 0
7, 106264, Note_on_c, 0, 65, 100
7, 106384, Note_on_c, 0, 65, 0
7, 106464, Note_on_c, 0, 65, 100
7, 106464, Note_on_c, 0, 77, 100
7, 106584, Note_on_c, 0, 65, 0
7, 106654, Note_on_c, 0, 77, 0
7, 106656, Note_on_c, 0, 65, 100
7, 106752, Note_on_c, 0, 53, 100
7, 106846, Note_on_c, 0, 53, 0
7, 106846, Note_on_c, 0, 65, 0
7, 107040, Note_on_c, 0, 53, 100
7, 107134, Note_on_c, 0, 53, 0
7, 107424, Note_on_c, 0, 77, 100
7, 107424, Note_on_c, 0, 65, 100
7, 107520, Note_on_c, 0, 53, 100
7, 107544, Note_on_c, 0, 65, 0
7, 107614, Note_on_c, 0, 53, 0
7, 107614, Note_on_c, 0, 77, 0
7, 107808, Note_on_c, 0, 53, 100
7, 107902, Note_on_c, 0, 53, 0
7, 108192, Note_on_c, 0, 77, 100
7, 108192, Note_on_c, 0, 65, 100
7, 108288, Note_on_c, 0, 53, 100
7, 108312, Note_on_c, 0, 65, 0
7, 108382, Note_on_c, 0, 53, 0
7, 108382, Note_on_c, 0, 77, 0
7, 108576, Note_on_c, 0, 53, 100
7, 108670, Note_on_c, 0, 53, 0
7, 108768, Note_on_c, 0, 65, 100
7, 108768, Note_on_c, 0, 53, 100
7, 108888, Note_on_c, 0, 65, 0
7, 108958, Note_on_c, 0, 53, 0
7, 108960, Note_on_c, 0, 77, 100
7, 108960, Note_on_c, 0, 65, 100
7, 108960, Note_on_c, 0, 41, 100
7, 109080, Note_on_c, 0, 65, 0
7, 109150, Note_on_c, 0, 41, 0
7, 109150, Note_on_c, 0, 77, 0
7, 109152, Note_on_c, 0, 65, 100
7, 109342, Note_on_c, 0, 65, 0
7, 109344, Note_on_c, 0, 65, 100
7, 109464, Note_on_c, 0, 65, 0
7, 109536, Note_on_c, 0, 65, 100
7, 109726, Note_on_c, 0, 65, 0
7, 109728, Note_on_c, 0, 53, 100
7, 109824, Note_on_c, 0, 77, 100
7, 109918, Note_on_c, 0, 77, 0
7, 109918, Note_on_c, 0, 53, 0
7, 110112, Note_on_c, 0, 77, 100
7, 110206, Note_on_c, 0, 77, 0
7, 110592, Note_on_c, 0, 77, 100
7, 110686, Note_on_c, 0, 77, 0
7, 110880, Note_on_c, 0, 77, 100
7, 110974, Note_on_c, 0, 77, 0
7, 111360, Note_on_c, 0, 77, 100
7, 111454, Note_on_c, 0, 77, 0
7, 111648, Note_on_c, 0, 77, 100
7, 111742, Note_on_c, 0, 77, 0
7, 111840, Note_on_c, 0, 65, 100
7, 111840, Note_on_c, 0, 77, 100
7, 112030, Note_on_c, 0, 77, 0
7, 112030, Note_on_c, 0, 65, 0
7, 112032, Note_on_c, 0, 65, 100
7, 112222, Note_on_c, 0, 65, 0
7, 112416, Note_on_c, 0, 65, 100
7, 112606, Note_on_c, 0, 65, 0
7, 112608, Note_on_c, 0, 65, 100
7, 112798, Note_on_c, 0, 65, 0
7, 112992, Note_on_c, 0, 77, 100
7, 113664, Note_on_c, 0, 65, 100
7, 113758, Note_on_c, 0, 65, 0
7, 113952, Note_on_c, 0, 65, 100
7, 114142, Note_on_c, 0, 65, 0
7, 114144, Note_on_c, 0, 65, 100
7, 114334, Note_on_c, 0, 65, 0
7, 114336, Note_on_c, 0, 65, 100
7, 114432, Note_on_c, 0, 53, 100
7, 114522, Note_on_c, 0, 77, 0
7, 114526, Note_on_c, 0, 53, 0
7, 114526, Note_on_c, 0, 65, 0
7, 114528, Note_on_c, 0, 65, 100
7, 114718, Note_on_c, 0, 65, 0
7, 114816, Note_on_c, 0, 77, 100
7, 114910, Note_on_c, 0, 77, 0
7, 114912, Note_on_c, 0, 65, 100
7, 115102, Note_on_c, 0, 65, 0
7, 115104, Note_on_c, 0, 53, 100
7, 115294, Note_on_c, 0, 53, 0
7, 115296, Note_on_c, 0, 65, 100
7, 115486, Note_on_c, 0, 65, 0
7, 115488, Note_on_c, 0, 65, 100
7, 115678, Note_on_c, 0, 65, 0
7, 116064, Note_on_c, 0, 65, 100
7, 116736, Note_on_c, 0, 53, 100
7, 116830, Note_on_c, 0, 53, 0
7, 117024, Note_on_c, 0, 53, 100
7, 117214, Note_on_c, 0, 53, 0
7, 117216, Note_on_c, 0, 53, 100
7, 117406, Note_on_c, 0, 53, 0
7, 117504, Note_on_c, 0, 41, 100
7, 117594, Note_on_c, 0, 65, 0
7, 117598, Note_on_c, 0, 41, 0
7, 118008, Note_on_c, 0, 53, 100
7, 118198, Note_on_c, 0, 53, 0
7, 118200, Note_on_c, 0, 41, 100
7, 118390, Note_on_c, 0, 41, 0
7, 122192, Note_on_c, 0, 65, 100
7, 122382, Note_on_c, 0, 65, 0
7, 122384, Note_on_c, 0, 65, 100
7, 122574, Note_on_c, 0, 65, 0
7, 122960, Note_on_c, 0, 65, 100
7, 123054, Note_on_c, 0, 65, 0
7, 123719, Note_on_c, 0, 77, 100
7, 123765, Note_on_c, 0, 77, 0
7, 137264, Note_on_c, 0, 77, 100
7, 137358, Note_on_c, 0, 77, 0
7, 137456, Note_on_c, 0, 77, 100
7, 137550, Note_on_c, 0, 77, 0
7, 139280, Note_on_c, 0, 53, 100
7, 140047, Note_on_c, 0, 53, 0
7, 152064, Note_on_c, 0, 65, 100
7, 152318, Note_on_c, 0, 65, 0
7, 152325, Note_on_c, 0, 65, 100
7, 152443, Note_on_c, 0, 65, 0
7, 153600, Note_on_c, 0, 53, 100
7, 153718, Note_on_c, 0, 53, 0
7, 153984, Note_on_c, 0, 53, 100
7, 154102, Note_on_c, 0, 53, 0
7, 154368, Note_on_c, 0, 53, 100
7, 154486, Note_on_c, 0, 53, 0
7, 154752, Note_on_c, 0, 53, 100
7, 154870, Note_on_c, 0, 53, 0
7, 155136, Note_on_c, 0, 53, 100
7, 155254, Note_on_c, 0, 53, 0
7, 155520, Note_on_c, 0, 53, 100
7, 155638, Note_on_c, 0, 53, 0
7, 155904, Note_on_c, 0, 53, 100
7, 156022, Note_on_c, 0, 53, 0
7, 157440, Note_on_c, 0, 65, 100
7, 157558, Note_on_c, 0, 65, 0
7, 157696, Note_on_c, 0, 65, 100
7, 157814, Note_on_c, 0, 65, 0
7, 164352, Note_on_c, 0, 77, 100
7, 164606, Note_on_c, 0, 77, 0
7, 164608, Note_on_c, 0, 77, 100
7, 164726, Note_on_c, 0, 77, 0
7, 164736, Note_on_c, 0, 77, 100
7, 164990, Note_on_c, 0, 77, 0
7, 164992, Note_on_c, 0, 77, 100
7, 165110, Note_on_c, 0, 77, 0
7, 165888, Note_on_c, 0, 41, 100
7, 166006, Note_on_c, 0, 41, 0
7, 166272, Note_on_c, 0, 41, 100
7, 166390, Note_on_c, 0, 41, 0
7, 166656, Note_on_c, 0, 41, 100
7, 166774, Note_on_c, 0, 41, 0
7, 167040, Note_on_c, 0, 41, 100
7, 167158, Note_on_c, 0, 41, 0
7, 167424, Note_on_c, 0, 41, 100
7, 167542, Note_on_c, 0, 41, 0
7, 167808, Note_on_c, 0, 41, 100
7, 167926, Note_on_c, 0, 41, 0
7, 168192, Note_on_c, 0, 41, 100
7, 168310, Note_on_c, 0, 41, 0
7, 169728, Note_on_c, 0, 77, 100
7, 169846, Note_on_c, 0, 77, 0
7, 169984, Note_on_c, 0, 77, 100
7, 170102, Note_on_c, 0, 77, 0
7, 176640, Note_on_c, 0, 65, 100
7, 176894, Note_on_c, 0, 65, 0
7, 176896, Note_on_c, 0, 65, 100
7, 177014, Note_on_c, 0, 65, 0
7, 178176, Note_on_c, 0, 77, 100
7, 178294, Note_on_c, 0, 77, 0
7, 178560, Note_on_c, 0, 77, 100
7, 178678, Note_on_c, 0, 77, 0
7, 178944, Note_on_c, 0, 77, 100
7, 179062, Note_on_c, 0, 77, 0
7, 179328, Note_on_c, 0, 77, 100
7, 179446, Note_on_c, 0, 77, 0
7, 179712, Note_on_c, 0, 77, 100
7, 179830, Note_on_c, 0, 77, 0
7, 180096, Note_on_c, 0, 77, 100
7, 180214, Note_on_c, 0, 77, 0
7, 180480, Note_on_c, 0, 77, 100
7, 180598, Note_on_c, 0, 77, 0
7, 181248, Note_on_c, 0, 65, 100
7, 181502, Note_on_c, 0, 65, 0
7, 181504, Note_on_c, 0, 65, 100
7, 181622, Note_on_c, 0, 65, 0
7, 183168, Note_on_c, 0, 53, 100
7, 183286, Note_on_c, 0, 53, 0
7, 183424, Note_on_c, 0, 53, 100
7, 183542, Note_on_c, 0, 53, 0
7, 183680, Note_on_c, 0, 53, 100
7, 183798, Note_on_c, 0, 53, 0
7, 184064, Note_on_c, 0, 53, 100
7, 184182, Note_on_c, 0, 53, 0
7, 189184, Note_on_c, 0, 77, 100
7, 189302, Note_on_c, 0, 77, 0
7, 189440, Note_on_c, 0, 77, 100
7, 189558, Note_on_c, 0, 77, 0
7, 189568, Note_on_c, 0, 53, 100
7, 189686, Note_on_c, 0, 53, 0
7, 189824, Note_on_c, 0, 77, 100
7, 189942, Note_on_c, 0, 77, 0
7, 189952, Note_on_c, 0, 53, 100
7, 190070, Note_on_c, 0, 53, 0
7, 190336, Note_on_c, 0, 53, 100
7, 190454, Note_on_c, 0, 53, 0
7, 190720, Note_on_c, 0, 53, 100
7, 190838, Note_on_c, 0, 53, 0
7, 191616, Note_on_c, 0, 65, 100
7, 191734, Note_on_c, 0, 65, 0
7, 191872, Note_on_c, 0, 65, 100
7, 191990, Note_on_c, 0, 65, 0
7, 193536, Note_on_c, 0, 65, 100
7, 193790, Note_on_c, 0, 65, 0
7, 193792, Note_on_c, 0, 65, 100
7, 193910, Note_on_c, 0, 65, 0
7, 195072, Note_on_c, 0, 65, 100
7, 195190, Note_on_c, 0, 65, 0
7, 195456, Note_on_c, 0, 65, 100
7, 195574, Note_on_c, 0, 65, 0
7, 195840, Note_on_c, 0, 65, 100
7, 195958, Note_on_c, 0, 65, 0
7, 196224, Note_on_c, 0, 65, 100
7, 196342, Note_on_c, 0, 65, 0
7, 196608, Note_on_c, 0, 65, 100
7, 196726, Note_on_c, 0, 65, 0
7, 196992, Note_on_c, 0, 65, 100
7, 197110, Note_on_c, 0, 65, 0
7, 197376, Note_on_c, 0, 65, 100
7, 197494, Note_on_c, 0, 65, 0
7, 197632, Note_on_c, 0, 65, 100
7, 197750, Note_on_c, 0, 65, 0
7, 198912, Note_on_c, 0, 77, 100
7, 199030, Note_on_c, 0, 77, 0
7, 199168, Note_on_c, 0, 77, 100
7, 199286, Note_on_c, 0, 77, 0
7, 204672, Note_on_c, 0, 41, 100
7, 204790, Note_on_c, 0, 41, 0
7, 205824, Note_on_c, 0, 65, 100
7, 206078, Note_on_c, 0, 65, 0
7, 206080, Note_on_c, 0, 53, 100
7, 206198, Note_on_c, 0, 53, 0
7, 206464, Note_on_c, 0, 65, 100
7, 206582, Note_on_c, 0, 65, 0
7, 206976, Note_on_c, 0, 65, 100
7, 207230, Note_on_c, 0, 65, 0
7, 208896, Note_on_c, 0, 77, 100
7, 209150, Note_on_c, 0, 77, 0
7, 209152, Note_on_c, 0, 77, 100
7, 209270, Note_on_c, 0, 77, 0
7, 210432, Note_on_c, 0, 53, 100
7, 210432, Note_on_c, 0, 77, 100
7, 210550, Note_on_c, 0, 77, 0
7, 210686, Note_on_c, 0, 53, 0
7, 210816, Note_on_c, 0, 77, 100
7, 210934, Note_on_c, 0, 77, 0
7, 211200, Note_on_c, 0, 77, 100
7, 211318, Note_on_c, 0, 77, 0
7, 211584, Note_on_c, 0, 77, 100
7, 211702, Note_on_c, 0, 77, 0
7, 211968, Note_on_c, 0, 77, 100
7, 212086, Note_on_c, 0, 77, 0
7, 212352, Note_on_c, 0, 77, 100
7, 212470, Note_on_c, 0, 77, 0
7, 212736, Note_on_c, 0, 77, 100
7, 212854, Note_on_c, 0, 77, 0
7, 213504, Note_on_c, 0, 53, 100
7, 213622, Note_on_c, 0, 53, 0
7, 213760, Note_on_c, 0, 77, 100
7, 213878, Note_on_c, 0, 77, 0
7, 214016, Note_on_c, 0, 77, 100
7, 214134, Note_on_c, 0, 77, 0
7, 215808, Note_on_c, 0, 53, 100
7, 216062, Note_on_c, 0, 53, 0
7, 216064, Note_on_c, 0, 53, 100
7, 216182, Note_on_c, 0, 53, 0
7, 217344, Note_on_c, 0, 41, 100
7, 217462, Note_on_c, 0, 41, 0
7, 217728, Note_on_c, 0, 41, 100
7, 217846, Note_on_c, 0, 41, 0
7, 218112, Note_on_c, 0, 41, 100
7, 218230, Note_on_c, 0, 41, 0
7, 218496, Note_on_c, 0, 41, 100
7, 218614, Note_on_c, 0, 41, 0
7, 218880, Note_on_c, 0, 41, 100
7, 218998, Note_on_c, 0, 41, 0
7, 219264, Note_on_c, 0, 41, 100
7, 219382, Note_on_c, 0, 41, 0
7, 219648, Note_on_c, 0, 41, 100
7, 219766, Note_on_c, 0, 41, 0
7, 219904, Note_on_c, 0, 65, 100
7, 220022, Note_on_c, 0, 65, 0
7, 221952, Note_on_c, 0, 53, 100
7, 222070, Note_on_c, 0, 53, 0
7, 222208, Note_on_c, 0, 53, 100
7, 222326, Note_on_c, 0, 53, 0
7, 226816, Note_on_c, 0, 53, 100
7, 226934, Note_on_c, 0, 53, 0
7, 227072, Note_on_c, 0, 65, 100
7, 227190, Note_on_c, 0, 65, 0
7, 227328, Note_on_c, 0, 53, 100
7, 227712, Note_on_c, 0, 65, 100
7, 227903, Note_on_c, 0, 53, 0
7, 227966, Note_on_c, 0, 65, 0
7, 227968, Note_on_c, 0, 65, 100
7, 228086, Note_on_c, 0, 65, 0
7, 230656, Note_on_c, 0, 65, 100
7, 230774, Note_on_c, 0, 65, 0
7, 230912, Note_on_c, 0, 65, 100
7, 231030, Note_on_c, 0, 65, 0
7, 231424, Note_on_c, 0, 65, 100
7, 231542, Note_on_c, 0, 65, 0
7, 231680, Note_on_c, 0, 65, 100
7, 231798, Note_on_c, 0, 65, 0
7, 232192, Note_on_c, 0, 65, 100
7, 232310, Note_on_c, 0, 65, 0
7, 232448, Note_on_c, 0, 65, 100
7, 232566, Note_on_c, 0, 65, 0
7, 233216, Note_on_c, 0, 65, 100
7, 233334, Note_on_c, 0, 65, 0
7, 234112, Note_on_c, 0, 65, 100
7, 234230, Note_on_c, 0, 65, 0
7, 234240, Note_on_c, 0, 53, 100
7, 234494, Note_on_c, 0, 53, 0
7, 234496, Note_on_c, 0, 53, 100
7, 234614, Note_on_c, 0, 53, 0
7, 235776, Note_on_c, 0, 65, 100
7, 235894, Note_on_c, 0, 65, 0
7, 236032, Note_on_c, 0, 65, 100
7, 236150, Note_on_c, 0, 65, 0
7, 236160, Note_on_c, 0, 77, 100
7, 236278, Note_on_c, 0, 77, 0
7, 236288, Note_on_c, 0, 65, 100
7, 236406, Note_on_c, 0, 65, 0
7, 236416, Note_on_c, 0, 77, 100
7, 236534, Note_on_c, 0, 77, 0
7, 236800, Note_on_c, 0, 53, 100
7, 236918, Note_on_c, 0, 53, 0
7, 237184, Note_on_c, 0, 77, 100
7, 237302, Note_on_c, 0, 77, 0
7, 237568, Note_on_c, 0, 65, 100
7, 237686, Note_on_c, 0, 65, 0
7, 237952, Note_on_c, 0, 65, 100
7, 238070, Note_on_c, 0, 65, 0
7, 238336, Note_on_c, 0, 65, 100
7, 238454, Note_on_c, 0, 65, 0
7, 238720, Note_on_c, 0, 77, 100
7, 238838, Note_on_c, 0, 77, 0
7, 238976, Note_on_c, 0, 77, 100
7, 239094, Note_on_c, 0, 77, 0
7, 239104, Note_on_c, 0, 65, 100
7, 239232, Note_on_c, 0, 65, 0
7, 239488, Note_on_c, 0, 77, 100
7, 239606, Note_on_c, 0, 77, 0
7, 240000, Note_on_c, 0, 53, 100
7, 240000, Note_on_c, 0, 65, 100
7, 240250, Note_on_c, 0, 53, 0
7, 240254, Note_on_c, 0, 65, 0
7, 240256, Note_on_c, 0, 53, 100
7, 240256, Note_on_c, 0, 65, 100
7, 240374, Note_on_c, 0, 65, 0
7, 240374, Note_on_c, 0, 53, 0
7, 240384, Note_on_c, 0, 65, 100
7, 240384, Note_on_c, 0, 77, 100
7, 240638, Note_on_c, 0, 77, 0
7, 240638, Note_on_c, 0, 65, 0
7, 240640, Note_on_c, 0, 65, 100
7, 240640, Note_on_c, 0, 77, 100
7, 240758, Note_on_c, 0, 77, 0
7, 240758, Note_on_c, 0, 65, 0
7, 241920, Note_on_c, 0, 77, 100
7, 242495, Note_on_c, 0, 77, 0
7, 242944, Note_on_c, 0, 53, 100
7, 243062, Note_on_c, 0, 53, 0
7, 243200, Note_on_c, 0, 53, 100
7, 243318, Note_on_c, 0, 53, 0
7, 243712, Note_on_c, 0, 53, 100
7, 243830, Note_on_c, 0, 53, 0
7, 243968, Note_on_c, 0, 53, 100
7, 244086, Note_on_c, 0, 53, 0
7, 244480, Note_on_c, 0, 53, 100
7, 244598, Note_on_c, 0, 53, 0
7, 244736, Note_on_c, 0, 53, 100
7, 244854, Note_on_c, 0, 53, 0
7, 245376, Note_on_c, 0, 77, 100
7, 245494, Note_on_c, 0, 77, 0
7, 245632, Note_on_c, 0, 77, 100
7, 245750, Note_on_c, 0, 77, 0
7, 246528, Note_on_c, 0, 77, 100
7, 246646, Note_on_c, 0, 77, 0
7, 246656, Note_on_c, 0, 65, 100
7, 246774, Note_on_c, 0, 65, 0
7, 246784, Note_on_c, 0, 77, 100
7, 246902, Note_on_c, 0, 77, 0
7, 248064, Note_on_c, 0, 65, 100
7, 248318, Note_on_c, 0, 65, 0
7, 248320, Note_on_c, 0, 65, 100
7, 248438, Note_on_c, 0, 65, 0
7, 249600, Note_on_c, 0, 53, 100
7, 249718, Note_on_c, 0, 53, 0
7, 249856, Note_on_c, 0, 53, 100
7, 249974, Note_on_c, 0, 53, 0
7, 249984, Note_on_c, 0, 41, 100
7, 250102, Note_on_c, 0, 41, 0
7, 250112, Note_on_c, 0, 53, 100
7, 250230, Note_on_c, 0, 53, 0
7, 250240, Note_on_c, 0, 41, 100
7, 250358, Note_on_c, 0, 41, 0
7, 250624, Note_on_c, 0, 65, 100
7, 250742, Note_on_c, 0, 65, 0
7, 251008, Note_on_c, 0, 41, 100
7, 251126, Note_on_c, 0, 41, 0
7, 251392, Note_on_c, 0, 65, 100
7, 251510, Note_on_c, 0, 65, 0
7, 251776, Note_on_c, 0, 41, 100
7, 251894, Note_on_c, 0, 41, 0
7, 252160, Note_on_c, 0, 65, 100
7, 252278, Note_on_c, 0, 65, 0
7, 252544, Note_on_c, 0, 65, 100
7, 252662, Note_on_c, 0, 65, 0
7, 253440, Note_on_c, 0, 77, 100
7, 253694, Note_on_c, 0, 77, 0
7, 253824, Note_on_c, 0, 77, 100
7, 254078, Note_on_c, 0, 77, 0
7, 254208, Note_on_c, 0, 65, 100
7, 254783, Note_on_c, 0, 65, 0
7, 254848, Note_on_c, 0, 65, 100
7, 254966, Note_on_c, 0, 65, 0
7, 255488, Note_on_c, 0, 65, 100
7, 255606, Note_on_c, 0, 65, 0
7, 255872, Note_on_c, 0, 65, 100
7, 255990, Note_on_c, 0, 65, 0
7, 256128, Note_on_c, 0, 65, 100
7, 256246, Note_on_c, 0, 65, 0
7, 256384, Note_on_c, 0, 65, 100
7, 256502, Note_on_c, 0, 65, 0
7, 256768, Note_on_c, 0, 65, 100
7, 256886, Note_on_c, 0, 65, 0
7, 257024, Note_on_c, 0, 65, 100
7, 257142, Note_on_c, 0, 65, 0
7, 257280, Note_on_c, 0, 53, 100
7, 257534, Note_on_c, 0, 53, 0
7, 257792, Note_on_c, 0, 65, 100
7, 257910, Note_on_c, 0, 65, 0
7, 258048, Note_on_c, 0, 65, 100
7, 258166, Note_on_c, 0, 65, 0
7, 258816, Note_on_c, 0, 65, 100
7, 259196, Note_on_c, 0, 65, 0
7, 259200, Note_on_c, 0, 53, 100
7, 259454, Note_on_c, 0, 53, 0
7, 259456, Note_on_c, 0, 53, 100
7, 259574, Note_on_c, 0, 53, 0
7, 260992, Note_on_c, 0, 65, 100
7, 261110, Note_on_c, 0, 65, 0
7, 261120, Note_on_c, 0, 65, 100
7, 261500, Note_on_c, 0, 65, 0
7, 261760, Note_on_c, 0, 77, 100
7, 261878, Note_on_c, 0, 77, 0
7, 262144, Note_on_c, 0, 65, 100
7, 262262, Note_on_c, 0, 65, 0
7, 262400, Note_on_c, 0, 65, 100
7, 262518, Note_on_c, 0, 65, 0
7, 262912, Note_on_c, 0, 65, 100
7, 263030, Note_on_c, 0, 65, 0
7, 263168, Note_on_c, 0, 65, 100
7, 263286, Note_on_c, 0, 65, 0
7, 263680, Note_on_c, 0, 65, 100
7, 263798, Note_on_c, 0, 65, 0
7, 263936, Note_on_c, 0, 65, 100
7, 264054, Note_on_c, 0, 65, 0
7, 264320, Note_on_c, 0, 77, 100
7, 264438, Note_on_c, 0, 77, 0
7, 264576, Note_on_c, 0, 65, 100
7, 264830, Note_on_c, 0, 65, 0
7, 264832, Note_on_c, 0, 65, 100
7, 264950, Note_on_c, 0, 65, 0
7, 265216, Note_on_c, 0, 53, 100
7, 265334, Note_on_c, 0, 53, 0
7, 265472, Note_on_c, 0, 53, 100
7, 265590, Note_on_c, 0, 53, 0
7, 266496, Note_on_c, 0, 53, 100
7, 266496, Note_on_c, 0, 77, 100
7, 266614, Note_on_c, 0, 53, 0
7, 266750, Note_on_c, 0, 77, 0
7, 266752, Note_on_c, 0, 77, 100
7, 266870, Note_on_c, 0, 77, 0
7, 266880, Note_on_c, 0, 77, 100
7, 267134, Note_on_c, 0, 77, 0
7, 267136, Note_on_c, 0, 77, 100
7, 267254, Note_on_c, 0, 77, 0
7, 267904, Note_on_c, 0, 77, 100
7, 268022, Note_on_c, 0, 77, 0
7, 268160, Note_on_c, 0, 65, 100
7, 268278, Note_on_c, 0, 65, 0
7, 268416, Note_on_c, 0, 65, 100
7, 268534, Note_on_c, 0, 65, 0
7, 268800, Note_on_c, 0, 41, 100
7, 268800, Note_on_c, 0, 65, 100
7, 269054, Note_on_c, 0, 65, 0
7, 269054, Note_on_c, 0, 41, 0
7, 269056, Note_on_c, 0, 41, 100
7, 269056, Note_on_c, 0, 53, 100
7, 269174, Note_on_c, 0, 53, 0
7, 269174, Note_on_c, 0, 41, 0
7, 269184, Note_on_c, 0, 53, 100
7, 269438, Note_on_c, 0, 53, 0
7, 270336, Note_on_c, 0, 77, 100
7, 270454, Note_on_c, 0, 77, 0
7, 270592, Note_on_c, 0, 77, 100
7, 270710, Note_on_c, 0, 77, 0
7, 270720, Note_on_c, 0, 65, 100
7, 270848, Note_on_c, 0, 77, 100
7, 270966, Note_on_c, 0, 77, 0
7, 270974, Note_on_c, 0, 65, 0
7, 270976, Note_on_c, 0, 65, 100
7, 271094, Note_on_c, 0, 65, 0
7, 271232, Note_on_c, 0, 77, 100
7, 271350, Note_on_c, 0, 77, 0
7, 271872, Note_on_c, 0, 41, 100
7, 271872, Note_on_c, 0, 65, 100
7, 272062, Note_on_c, 0, 65, 0
7, 272126, Note_on_c, 0, 41, 0
7, 272256, Note_on_c, 0, 41, 100
7, 272510, Note_on_c, 0, 41, 0
7, 272640, Note_on_c, 0, 41, 100
7, 272640, Note_on_c, 0, 53, 100
7, 272830, Note_on_c, 0, 53, 0
7, 272894, Note_on_c, 0, 41, 0
7, 273024, Note_on_c, 0, 41, 100
7, 273278, Note_on_c, 0, 41, 0
7, 273408, Note_on_c, 0, 65, 100
7, 273662, Note_on_c, 0, 65, 0
7, 273792, Note_on_c, 0, 65, 100
7, 274046, Note_on_c, 0, 65, 0
7, 274176, Note_on_c, 0, 65, 100
7, 274430, Note_on_c, 0, 65, 0
7, 274944, Note_on_c, 0, 41, 100
7, 274944, Note_on_c, 0, 65, 100
7, 275198, Note_on_c, 0, 65, 0
7, 275200, Note_on_c, 0, 53, 100
7, 275200, Note_on_c, 0, 77, 100
7, 275224, Note_on_c, 0, 41, 0
7, 275318, Note_on_c, 0, 77, 0
7, 275318, Note_on_c, 0, 53, 0
7, 275712, Note_on_c, 0, 53, 100
7, 275966, Note_on_c, 0, 53, 0
7, 275968, Note_on_c, 0, 65, 100
7, 276350, Note_on_c, 0, 65, 0
7, 276736, Note_on_c, 0, 53, 100
7, 276854, Note_on_c, 0, 53, 0
7, 276992, Note_on_c, 0, 65, 100
7, 277110, Note_on_c, 0, 65, 0
7, 277248, Note_on_c, 0, 65, 100
7, 277366, Note_on_c, 0, 65, 0
7, 277376, Note_on_c, 0, 77, 100
7, 277494, Note_on_c, 0, 77, 0
7, 277632, Note_on_c, 0, 53, 100
7, 277750, Note_on_c, 0, 53, 0
7, 277760, Note_on_c, 0, 65, 100
7, 277878, Note_on_c, 0, 65, 0
7, 279424, Note_on_c, 0, 77, 100
7, 279542, Note_on_c, 0, 77, 0
7, 279552, Note_on_c, 0, 53, 100
7, 279806, Note_on_c, 0, 53, 0
7, 279808, Note_on_c, 0, 53, 100
7, 279926, Note_on_c, 0, 53, 0
7, 281088, Note_on_c, 0, 53, 100
7, 281206, Note_on_c, 0, 53, 0
7, 281344, Note_on_c, 0, 53, 100
7, 281462, Note_on_c, 0, 53, 0
7, 281472, Note_on_c, 0, 65, 100
7, 281590, Note_on_c, 0, 65, 0
7, 281600, Note_on_c, 0, 53, 100
7, 281718, Note_on_c, 0, 53, 0
7, 281728, Note_on_c, 0, 53, 100
7, 281728, Note_on_c, 0, 65, 100
7, 281846, Note_on_c, 0, 65, 0
7, 281846, Note_on_c, 0, 53, 0
7, 282112, Note_on_c, 0, 53, 100
7, 282230, Note_on_c, 0, 53, 0
7, 282496, Note_on_c, 0, 65, 100
7, 282614, Note_on_c, 0, 65, 0
7, 282880, Note_on_c, 0, 65, 100
7, 282998, Note_on_c, 0, 65, 0
7, 283264, Note_on_c, 0, 53, 100
7, 283382, Note_on_c, 0, 53, 0
7, 283648, Note_on_c, 0, 65, 100
7, 283766, Note_on_c, 0, 65, 0
7, 284032, Note_on_c, 0, 77, 100
7, 284150, Note_on_c, 0, 77, 0
7, 284288, Note_on_c, 0, 77, 100
7, 284406, Note_on_c, 0, 77, 0
7, 284672, Note_on_c, 0, 65, 100
7, 284790, Note_on_c, 0, 65, 0
7, 284928, Note_on_c, 0, 41, 100
7, 285056, Note_on_c, 0, 65, 100
7, 285174, Note_on_c, 0, 65, 0
7, 285182, Note_on_c, 0, 41, 0
7, 285568, Note_on_c, 0, 65, 100
7, 285686, Note_on_c, 0, 65, 0
7, 286208, Note_on_c, 0, 77, 100
7, 286326, Note_on_c, 0, 77, 0
7, 286464, Note_on_c, 0, 65, 100
7, 286718, Note_on_c, 0, 65, 0
7, 286720, Note_on_c, 0, 65, 100
7, 286838, Note_on_c, 0, 65, 0
7, 293376, Note_on_c, 0, 65, 100
7, 293494, Note_on_c, 0, 65, 0
7, 293632, Note_on_c, 0, 65, 100
7, 293750, Note_on_c, 0, 65, 0
7, 298752, Note_on_c, 0, 53, 100
7, 298880, Note_on_c, 0, 77, 100
7, 299006, Note_on_c, 0, 53, 0
7, 299134, Note_on_c, 0, 77, 0
7, 300288, Note_on_c, 0, 77, 100
7, 300542, Note_on_c, 0, 77, 0
7, 300544, Note_on_c, 0, 77, 100
7, 300662, Note_on_c, 0, 77, 0
7, 301824, Note_on_c, 0, 65, 100
7, 301824, Note_on_c, 0, 77, 100
7, 301942, Note_on_c, 0, 77, 0
7, 302078, Note_on_c, 0, 65, 0
7, 302208, Note_on_c, 0, 77, 100
7, 302326, Note_on_c, 0, 77, 0
7, 302592, Note_on_c, 0, 77, 100
7, 302846, Note_on_c, 0, 77, 0
7, 302976, Note_on_c, 0, 77, 100
7, 303094, Note_on_c, 0, 77, 0
7, 303360, Note_on_c, 0, 77, 100
7, 303614, Note_on_c, 0, 77, 0
7, 303744, Note_on_c, 0, 65, 100
7, 303862, Note_on_c, 0, 65, 0
7, 304128, Note_on_c, 0, 65, 100
7, 304246, Note_on_c, 0, 65, 0
7, 306048, Note_on_c, 0, 41, 100
7, 306166, Note_on_c, 0, 41, 0
7, 306304, Note_on_c, 0, 41, 100
7, 306422, Note_on_c, 0, 41, 0
7, 306560, Note_on_c, 0, 41, 100
7, 306678, Note_on_c, 0, 41, 0
7, 306944, Note_on_c, 0, 41, 100
7, 307062, Note_on_c, 0, 41, 0
7, 307062, End_track
8, 0, Start_track
8, 0, Title_t, "Harpsichord"
8, 0, Program_c, 0, 6
8, 0, Control_c, 0, 7, 100
8, 0, Control_c, 0, 10, 64
8, 0, Pitch_bend_c, 0, 7710
8, 448, Note_on_c, 0, 78, 100
8, 510, Note_on_c, 0, 78, 0
8, 1408, Note_on_c, 0, 66, 100
8, 1470, Note_on_c, 0, 66, 0
8, 2304, Note_on_c, 0, 54, 100
8, 2366, Note_on_c, 0, 54, 0
8, 3454, Note_on_c, 0, 42, 100
8, 3548, Note_on_c, 0, 42, 0
8, 4654, Note_on_c, 0, 54, 100
8, 4748, Note_on_c, 0, 54, 0
8, 6430, Note_on_c, 0, 54, 100
8, 6524, Note_on_c, 0, 54, 0
8, 9046, Note_on_c, 0, 42, 100
8, 9203, Note_on_c, 0, 42, 0
8, 9856, Note_on_c, 0, 66, 100
8, 9981, Note_on_c, 0, 66, 0
8, 10304, Note_on_c, 0, 66, 100
8, 10368, Note_on_c, 0, 66, 0
8, 10432, Note_on_c, 0, 66, 100
8, 10496, Note_on_c, 0, 66, 0
8, 10560, Note_on_c, 0, 66, 100
8, 10624, Note_on_c, 0, 66, 0
8, 10668, Note_on_c, 0, 66, 100
8, 11123, Note_on_c, 0, 66, 0
8, 11138, Note_on_c, 0, 66, 100
8, 11518, Note_on_c, 0, 66, 0
8, 13440, Note_on_c, 0, 66, 100
8, 13630, Note_on_c, 0, 66, 0
8, 13872, Note_on_c, 0, 66, 100
8, 13920, Note_on_c, 0, 66, 0
8, 25344, Note_on_c, 0, 66, 100
8, 25822, Note_on_c, 0, 66, 0
8, 25920, Note_on_c, 0, 66, 100
8, 26014, Note_on_c, 0, 66, 0
8, 26400, Note_on_c, 0, 66, 100
8, 26494, Note_on_c, 0, 66, 0
8, 29952, Note_on_c, 0, 66, 100
8, 30892, Note_on_c, 0, 66, 0
8, 34992, Note_on_c, 0, 54, 100
8, 35374, Note_on_c, 0, 54, 0
8, 37824, Note_on_c, 0, 66, 100
8, 39364, Note_on_c, 0, 66, 0
8, 85056, Note_on_c, 0, 66, 100
8, 85216, Note_on_c, 0, 66, 0
8, 85824, Note_on_c, 0, 66, 100
8, 85954, Note_on_c, 0, 66, 0
8, 87360, Note_on_c, 0, 54, 100
8, 87540, Note_on_c, 0, 54, 0
8, 88128, Note_on_c, 0, 54, 100
8, 88308, Note_on_c, 0, 54, 0
8, 88896, Note_on_c, 0, 66, 100
8, 89086, Note_on_c, 0, 66, 0
8, 90264, Note_on_c, 0, 78, 100
8, 90454, Note_on_c, 0, 78, 0
8, 90456, Note_on_c, 0, 66, 100
8, 90646, Note_on_c, 0, 66, 0
8, 94032, Note_on_c, 0, 66, 100
8, 94126, Note_on_c, 0, 66, 0
8, 100104, Note_on_c, 0, 66, 100
8, 100294, Note_on_c, 0, 66, 0
8, 102120, Note_on_c, 0, 42, 100
8, 102214, Note_on_c, 0, 42, 0
8, 103368, Note_on_c, 0, 54, 100
8, 103558, Note_on_c, 0, 54, 0
8, 104136, Note_on_c, 0, 54, 100
8, 104326, Note_on_c, 0, 54, 0
8, 104904, Note_on_c, 0, 54, 100
8, 105094, Note_on_c, 0, 54, 0
8, 105096, Note_on_c, 0, 66, 100
8, 105226, Note_on_c, 0, 66, 0
8, 118496, Note_on_c, 0, 42, 100
8, 118880, Note_on_c, 0, 66, 100
8, 119070, Note_on_c, 0, 66, 0
8, 119646, Note_on_c, 0, 42, 0
8, 119648, Note_on_c, 0, 42, 100
8, 120030, Note_on_c, 0, 42, 0
8, 120032, Note_on_c, 0, 42, 100
8, 120414, Note_on_c, 0, 42, 0
8, 120416, Note_on_c, 0, 42, 100
8, 120798, Note_on_c, 0, 42, 0
8, 125552, Note_on_c, 0, 66, 100
8, 125642, Note_on_c, 0, 66, 0
8, 125744, Note_on_c, 0, 66, 100
8, 125834, Note_on_c, 0, 66, 0
8, 125936, Note_on_c, 0, 66, 100
8, 126026, Note_on_c, 0, 66, 0
8, 127760, Note_on_c, 0, 54, 100
8, 128334, Note_on_c, 0, 54, 0
8, 128720, Note_on_c, 0, 66, 100
8, 128910, Note_on_c, 0, 66, 0
8, 131984, Note_on_c, 0, 66, 100
8, 132174, Note_on_c, 0, 66, 0
8, 132772, Note_on_c, 0, 78, 100
8, 132942, Note_on_c, 0, 78, 0
8, 133904, Note_on_c, 0, 66, 100
8, 134478, Note_on_c, 0, 66, 0
8, 138512, Note_on_c, 0, 66, 100
8, 138560, Note_on_c, 0, 66, 0
8, 138608, Note_on_c, 0, 66, 100
8, 139074, Note_on_c, 0, 66, 0
8, 141392, Note_on_c, 0, 66, 100
8, 141582, Note_on_c, 0, 66, 0
8, 147335, Note_on_c, 0, 54, 100
8, 147445, Note_on_c, 0, 54, 0
8, 148103, Note_on_c, 0, 54, 100
8, 148213, Note_on_c, 0, 54, 0
8, 148871, Note_on_c, 0, 54, 100
8, 148981, Note_on_c, 0, 54, 0
8, 149639, Note_on_c, 0, 54, 100
8, 149749, Note_on_c, 0, 54, 0
8, 150272, Note_on_c, 0, 54, 100
8, 150390, Note_on_c, 0, 54, 0
8, 156544, Note_on_c, 0, 54, 100
8, 156662, Note_on_c, 0, 54, 0
8, 157824, Note_on_c, 0, 66, 100
8, 157942, Note_on_c, 0, 66, 0
8, 158080, Note_on_c, 0, 66, 100
8, 158198, Note_on_c, 0, 66, 0
8, 158336, Note_on_c, 0, 66, 100
8, 158454, Note_on_c, 0, 66, 0
8, 159616, Note_on_c, 0, 42, 100
8, 159734, Note_on_c, 0, 42, 0
8, 160384, Note_on_c, 0, 42, 100
8, 160502, Note_on_c, 0, 42, 0
8, 161152, Note_on_c, 0, 42, 100
8, 161270, Note_on_c, 0, 42, 0
8, 161920, Note_on_c, 0, 42, 100
8, 162038, Note_on_c, 0, 42, 0
8, 162560, Note_on_c, 0, 42, 100
8, 162678, Note_on_c, 0, 42, 0
8, 170112, Note_on_c, 0, 78, 100
8, 170230, Note_on_c, 0, 78, 0
8, 170368, Note_on_c, 0, 78, 100
8, 170486, Note_on_c, 0, 78, 0
8, 170624, Note_on_c, 0, 78, 100
8, 170742, Note_on_c, 0, 78, 0
8, 171264, Note_on_c, 0, 54, 100
8, 171518, Note_on_c, 0, 54, 0
8, 171648, Note_on_c, 0, 54, 100
8, 171902, Note_on_c, 0, 54, 0
8, 171904, Note_on_c, 0, 66, 100
8, 172022, Note_on_c, 0, 66, 0
8, 172672, Note_on_c, 0, 66, 100
8, 172790, Note_on_c, 0, 66, 0
8, 173440, Note_on_c, 0, 66, 100
8, 173558, Note_on_c, 0, 66, 0
8, 174208, Note_on_c, 0, 66, 100
8, 174326, Note_on_c, 0, 66, 0
8, 181632, Note_on_c, 0, 66, 100
8, 181886, Note_on_c, 0, 66, 0
8, 182272, Note_on_c, 0, 66, 100
8, 182390, Note_on_c, 0, 66, 0
8, 182784, Note_on_c, 0, 54, 100
8, 182902, Note_on_c, 0, 54, 0
8, 183040, Note_on_c, 0, 54, 100
8, 183158, Note_on_c, 0, 54, 0
8, 184320, Note_on_c, 0, 66, 100
8, 184574, Note_on_c, 0, 66, 0
8, 184576, Note_on_c, 0, 66, 100
8, 184694, Note_on_c, 0, 66, 0
8, 184704, Note_on_c, 0, 54, 100
8, 184958, Note_on_c, 0, 54, 0
8, 184960, Note_on_c, 0, 54, 100
8, 185078, Note_on_c, 0, 54, 0
8, 185088, Note_on_c, 0, 54, 100
8, 185663, Note_on_c, 0, 54, 0
8, 185728, Note_on_c, 0, 66, 100
8, 185846, Note_on_c, 0, 66, 0
8, 188416, Note_on_c, 0, 66, 100
8, 188534, Note_on_c, 0, 66, 0
8, 188800, Note_on_c, 0, 66, 100
8, 188918, Note_on_c, 0, 66, 0
8, 191232, Note_on_c, 0, 66, 100
8, 191350, Note_on_c, 0, 66, 0
8, 198016, Note_on_c, 0, 66, 100
8, 198134, Note_on_c, 0, 66, 0
8, 199296, Note_on_c, 0, 78, 100
8, 199414, Note_on_c, 0, 78, 0
8, 199552, Note_on_c, 0, 78, 100
8, 199670, Note_on_c, 0, 78, 0
8, 199808, Note_on_c, 0, 78, 100
8, 199926, Note_on_c, 0, 78, 0
8, 201088, Note_on_c, 0, 42, 100
8, 201206, Note_on_c, 0, 42, 0
8, 201856, Note_on_c, 0, 42, 100
8, 201974, Note_on_c, 0, 42, 0
8, 202624, Note_on_c, 0, 42, 100
8, 202742, Note_on_c, 0, 42, 0
8, 203392, Note_on_c, 0, 42, 100
8, 203510, Note_on_c, 0, 42, 0
8, 204288, Note_on_c, 0, 78, 100
8, 204406, Note_on_c, 0, 78, 0
8, 221056, Note_on_c, 0, 54, 100
8, 221174, Note_on_c, 0, 54, 0
8, 221312, Note_on_c, 0, 54, 100
8, 221430, Note_on_c, 0, 54, 0
8, 222336, Note_on_c, 0, 54, 100
8, 222454, Note_on_c, 0, 54, 0
8, 222592, Note_on_c, 0, 54, 100
8, 222710, Note_on_c, 0, 54, 0
8, 222848, Note_on_c, 0, 54, 100
8, 222966, Note_on_c, 0, 54, 0
8, 224128, Note_on_c, 0, 66, 100
8, 224246, Note_on_c, 0, 66, 0
8, 224896, Note_on_c, 0, 66, 100
8, 225014, Note_on_c, 0, 66, 0
8, 225664, Note_on_c, 0, 66, 100
8, 225782, Note_on_c, 0, 66, 0
8, 226432, Note_on_c, 0, 66, 100
8, 226550, Note_on_c, 0, 66, 0
8, 267264, Note_on_c, 0, 78, 100
8, 267518, Note_on_c, 0, 78, 0
8, 267520, Note_on_c, 0, 78, 100
8, 267638, Note_on_c, 0, 78, 0
8, 267648, Note_on_c, 0, 78, 100
8, 267902, Note_on_c, 0, 78, 0
8, 288000, Note_on_c, 0, 66, 100
8, 288118, Note_on_c, 0, 66, 0
8, 288256, Note_on_c, 0, 66, 100
8, 288374, Note_on_c, 0, 66, 0
8, 288384, Note_on_c, 0, 78, 100
8, 288502, Note_on_c, 0, 78, 0
8, 288512, Note_on_c, 0, 66, 100
8, 288630, Note_on_c, 0, 66, 0
8, 288640, Note_on_c, 0, 78, 100
8, 288758, Note_on_c, 0, 78, 0
8, 289408, Note_on_c, 0, 78, 100
8, 289526, Note_on_c, 0, 78, 0
8, 289792, Note_on_c, 0, 66, 100
8, 289910, Note_on_c, 0, 66, 0
8, 290176, Note_on_c, 0, 78, 100
8, 290294, Note_on_c, 0, 78, 0
8, 290560, Note_on_c, 0, 78, 100
8, 290678, Note_on_c, 0, 78, 0
8, 291328, Note_on_c, 0, 78, 100
8, 291446, Note_on_c, 0, 78, 0
8, 291712, Note_on_c, 0, 54, 100
8, 291830, Note_on_c, 0, 54, 0
8, 292224, Note_on_c, 0, 66, 100
8, 292606, Note_on_c, 0, 66, 0
8, 293760, Note_on_c, 0, 66, 100
8, 293878, Note_on_c, 0, 66, 0
8, 294016, Note_on_c, 0, 66, 100
8, 294134, Note_on_c, 0, 66, 0
8, 294272, Note_on_c, 0, 66, 100
8, 294390, Note_on_c, 0, 66, 0
8, 294912, Note_on_c, 0, 54, 100
8, 295487, Note_on_c, 0, 54, 0
8, 295552, Note_on_c, 0, 42, 100
8, 295670, Note_on_c, 0, 42, 0
8, 296320, Note_on_c, 0, 42, 100
8, 296438, Note_on_c, 0, 42, 0
8, 297088, Note_on_c, 0, 54, 100
8, 297206, Note_on_c, 0, 54, 0
8, 297856, Note_on_c, 0, 54, 100
8, 297974, Note_on_c, 0, 54, 0
8, 298240, Note_on_c, 0, 66, 100
8, 298358, Note_on_c, 0, 66, 0
8, 304768, Note_on_c, 0, 66, 100
8, 304886, Note_on_c, 0, 66, 0
8, 305664, Note_on_c, 0, 42, 100
8, 305782, Note_on_c, 0, 42, 0
8, 305920, Note_on_c, 0, 42, 100
8, 306038, Note_on_c, 0, 42, 0
8, 307584, Note_on_c, 0, 54, 100
8, 307838, Note_on_c, 0, 54, 0
8, 307840, Note_on_c, 0, 54, 100
8, 307958, Note_on_c, 0, 54, 0
8, 307968, Note_on_c, 0, 54, 100
8, 308543, Note_on_c, 0, 54, 0
8, 308608, Note_on_c, 0, 66, 100
8, 308726, Note_on_c, 0, 66, 0
8, 308992, Note_on_c, 0, 66, 100
8, 309110, Note_on_c, 0, 66, 0
8, 309760, Note_on_c, 0, 66, 100
8, 309878, Note_on_c, 0, 66, 0
8, 310144, Note_on_c, 0, 42, 100
8, 310262, Note_on_c, 0, 42, 0
8, 311680, Note_on_c, 0, 54, 100
8, 311798, Note_on_c, 0, 54, 0
8, 312448, Note_on_c, 0, 54, 100
8, 312566, Note_on_c, 0, 54, 0
8, 312960, Note_on_c, 0, 66, 100
8, 313214, Note_on_c, 0, 66, 0
8, 313216, Note_on_c, 0, 66, 100
8, 313334, Note_on_c, 0, 66, 0
8, 314112, Note_on_c, 0, 78, 100
8, 314302, Note_on_c, 0, 78, 0
8, 315648, Note_on_c, 0, 66, 100
8, 315838, Note_on_c, 0, 66, 0
8, 317184, Note_on_c, 0, 54, 100
8, 317374, Note_on_c, 0, 54, 0
8, 318720, Note_on_c, 0, 42, 100
8, 318910, Note_on_c, 0, 42, 0
8, 320256, Note_on_c, 0, 54, 100
8, 320446, Note_on_c, 0, 54, 0
8, 321024, Note_on_c, 0, 54, 100
8, 321134, Note_on_c, 0, 54, 0
8, 323200, Note_on_c, 0, 42, 100
8, 323333, Note_on_c, 0, 42, 0
8, 324632, Note_on_c, 0, 66, 100
8, 324696, Note_on_c, 0, 66, 0
8, 324760, Note_on_c, 0, 66, 100
8, 324824, Note_on_c, 0, 66, 0
8, 324840, Note_on_c, 0, 66, 100
8, 324904, Note_on_c, 0, 66, 0
8, 324936, Note_on_c, 0, 66, 100
8, 325000, Note_on_c, 0, 66, 0
8, 325032, Note_on_c, 0, 66, 100
8, 325096, Note_on_c, 0, 66, 0
8, 325128, Note_on_c, 0, 66, 100
8, 325192, Note_on_c, 0, 66, 0
8, 325224, Note_on_c, 0, 66, 100
8, 325902, Note_on_c, 0, 66, 0
8, 325902, End_track
9, 0, Start_track
9, 0, Title_t, "Harpsichord"
9, 0, Program_c, 0, 6
9, 0, Control_c, 0, 7, 100
9, 0, Control_c, 0, 10, 64
9, 0, Pitch_bend_c, 0, 8037
9, 64, Note_on_c, 0, 79, 100
9, 376, Note_on_c, 0, 79, 0
9, 384, Note_on_c, 0, 79, 100
9, 446, Note_on_c, 0, 79, 0
9, 960, Note_on_c, 0, 67, 100
9, 1336, Note_on_c, 0, 67, 0
9, 1344, Note_on_c, 0, 67, 100
9, 1406, Note_on_c, 0, 67, 0
9, 1920, Note_on_c, 0, 55, 100
9, 2232, Note_on_c, 0, 55, 0
9, 2240, Note_on_c, 0, 55, 100
9, 2302, Note_on_c, 0, 55, 0
9, 2816, Note_on_c, 0, 43, 100
9, 3100, Note_on_c, 0, 43, 0
9, 3358, Note_on_c, 0, 43, 100
9, 3452, Note_on_c, 0, 43, 0
9, 4238, Note_on_c, 0, 43, 100
9, 4382, Note_on_c, 0, 43, 0
9, 4558, Note_on_c, 0, 55, 100
9, 4652, Note_on_c, 0, 55, 0
9, 5422, Note_on_c, 0, 55, 100
9, 5542, Note_on_c, 0, 55, 0
9, 5646, Note_on_c, 0, 55, 100
9, 5740, Note_on_c, 0, 55, 0
9, 5934, Note_on_c, 0, 55, 100
9, 6028, Note_on_c, 0, 55, 0
9, 6334, Note_on_c, 0, 55, 100
9, 6428, Note_on_c, 0, 55, 0
9, 7214, Note_on_c, 0, 43, 100
9, 7337, Note_on_c, 0, 43, 0
9, 7838, Note_on_c, 0, 43, 100
9, 7957, Note_on_c, 0, 43, 0
9, 8520, Note_on_c, 0, 43, 100
9, 8661, Note_on_c, 0, 43, 0
9, 9216, Note_on_c, 0, 43, 100
9, 9282, Note_on_c, 0, 67, 100
9, 9864, Note_on_c, 0, 67, 0
9, 9984, Note_on_c, 0, 67, 100
9, 9984, Note_on_c, 0, 55, 100
9, 10304, Note_on_c, 0, 67, 0
9, 10368, Note_on_c, 0, 67, 100
9, 10432, Note_on_c, 0, 67, 0
9, 10496, Note_on_c, 0, 67, 100
9, 10560, Note_on_c, 0, 67, 0
9, 10624, Note_on_c, 0, 67, 100
9, 10679, Note_on_c, 0, 67, 0
9, 11516, Note_on_c, 0, 55, 0
9, 11516, Note_on_c, 0, 43, 0
9, 11520, Note_on_c, 0, 43, 100
9, 11521, Note_on_c, 0, 55, 100
9, 11522, Note_on_c, 0, 67, 100
9, 12672, Note_on_c, 0, 67, 0
9, 13052, Note_on_c, 0, 43, 0
9, 13053, Note_on_c, 0, 55, 0
9, 13248, Note_on_c, 0, 67, 100
9, 13438, Note_on_c, 0, 67, 0
9, 13728, Note_on_c, 0, 67, 100
9, 13822, Note_on_c, 0, 67, 0
9, 13824, Note_on_c, 0, 67, 100
9, 13824, Note_on_c, 0, 43, 100
9, 13872, Note_on_c, 0, 67, 0
9, 13920, Note_on_c, 0, 67, 100
9, 14495, Note_on_c, 0, 67, 0
9, 14592, Note_on_c, 0, 55, 100
9, 15358, Note_on_c, 0, 55, 0
9, 16124, Note_on_c, 0, 43, 0
9, 16128, Note_on_c, 0, 43, 100
9, 17660, Note_on_c, 0, 43, 0
9, 20736, Note_on_c, 0, 55, 100
9, 21888, Note_on_c, 0, 67, 100
9, 22166, Note_on_c, 0, 55, 0
9, 22270, Note_on_c, 0, 67, 0
9, 22320, Note_on_c, 0, 67, 100
9, 22368, Note_on_c, 0, 67, 0
9, 23040, Note_on_c, 0, 67, 100
9, 23806, Note_on_c, 0, 67, 0
9, 25248, Note_on_c, 0, 67, 100
9, 25342, Note_on_c, 0, 67, 0
9, 25824, Note_on_c, 0, 67, 100
9, 25918, Note_on_c, 0, 67, 0
9, 26496, Note_on_c, 0, 67, 100
9, 26590, Note_on_c, 0, 67, 0
9, 27264, Note_on_c, 0, 67, 100
9, 27454, Note_on_c, 0, 67, 0
9, 27648, Note_on_c, 0, 55, 100
9, 29178, Note_on_c, 0, 55, 0
9, 29184, Note_on_c, 0, 55, 100
9, 29951, Note_on_c, 0, 55, 0
9, 31104, Note_on_c, 0, 67, 100
9, 31294, Note_on_c, 0, 67, 0
9, 31488, Note_on_c, 0, 43, 100
9, 31488, Note_on_c, 0, 67, 100
9, 31582, Note_on_c, 0, 67, 0
9, 31584, Note_on_c, 0, 67, 100
9, 31678, Note_on_c, 0, 67, 0
9, 31868, Note_on_c, 0, 43, 0
9, 32256, Note_on_c, 0, 79, 100
9, 32444, Note_on_c, 0, 79, 0
9, 33216, Note_on_c, 0, 67, 100
9, 33406, Note_on_c, 0, 67, 0
9, 33616, Note_on_c, 0, 67, 100
9, 33710, Note_on_c, 0, 67, 0
9, 33792, Note_on_c, 0, 55, 100
9, 34559, Note_on_c, 0, 55, 0
9, 34560, Note_on_c, 0, 55, 100
9, 34986, Note_on_c, 0, 55, 0
9, 35424, Note_on_c, 0, 67, 100
9, 35616, Note_on_c, 0, 55, 100
9, 35806, Note_on_c, 0, 55, 0
9, 36000, Note_on_c, 0, 55, 100
9, 36094, Note_on_c, 0, 55, 0
9, 36191, Note_on_c, 0, 67, 0
9, 36576, Note_on_c, 0, 67, 100
9, 36956, Note_on_c, 0, 67, 0
9, 36960, Note_on_c, 0, 67, 100
9, 37372, Note_on_c, 0, 67, 0
9, 42044, Note_on_c, 0, 55, 100
9, 42138, Note_on_c, 0, 55, 0
9, 42240, Note_on_c, 0, 55, 100
9, 42430, Note_on_c, 0, 55, 0
9, 43008, Note_on_c, 0, 55, 100
9, 43198, Note_on_c, 0, 55, 0
9, 43776, Note_on_c, 0, 55, 100
9, 43966, Note_on_c, 0, 55, 0
9, 44064, Note_on_c, 0, 79, 100
9, 44158, Note_on_c, 0, 79, 0
9, 45120, Note_on_c, 0, 79, 100
9, 45214, Note_on_c, 0, 79, 0
9, 45312, Note_on_c, 0, 79, 100
9, 45502, Note_on_c, 0, 79, 0
9, 46080, Note_on_c, 0, 79, 100
9, 46270, Note_on_c, 0, 79, 0
9, 46848, Note_on_c, 0, 79, 100
9, 47038, Note_on_c, 0, 79, 0
9, 47040, Note_on_c, 0, 55, 100
9, 47230, Note_on_c, 0, 55, 0
9, 48192, Note_on_c, 0, 79, 100
9, 48286, Note_on_c, 0, 79, 0
9, 48384, Note_on_c, 0, 79, 100
9, 48504, Note_on_c, 0, 79, 0
9, 49056, Note_on_c, 0, 79, 100
9, 49150, Note_on_c, 0, 79, 0
9, 51840, Note_on_c, 0, 67, 100
9, 51960, Note_on_c, 0, 67, 0
9, 54912, Note_on_c, 0, 67, 100
9, 55032, Note_on_c, 0, 67, 0
9, 55488, Note_on_c, 0, 43, 100
9, 55582, Note_on_c, 0, 43, 0
9, 55680, Note_on_c, 0, 43, 100
9, 55870, Note_on_c, 0, 43, 0
9, 56352, Note_on_c, 0, 43, 100
9, 56446, Note_on_c, 0, 43, 0
9, 56640, Note_on_c, 0, 79, 100
9, 56734, Note_on_c, 0, 79, 0
9, 56832, Note_on_c, 0, 79, 100
9, 56952, Note_on_c, 0, 79, 0
9, 57504, Note_on_c, 0, 67, 100
9, 57598, Note_on_c, 0, 67, 0
9, 58944, Note_on_c, 0, 55, 100
9, 59038, Note_on_c, 0, 55, 0
9, 59136, Note_on_c, 0, 67, 100
9, 59136, Note_on_c, 0, 55, 100
9, 59326, Note_on_c, 0, 55, 0
9, 59516, Note_on_c, 0, 67, 0
9, 59904, Note_on_c, 0, 67, 100
9, 59904, Note_on_c, 0, 55, 100
9, 60094, Note_on_c, 0, 55, 0
9, 60284, Note_on_c, 0, 67, 0
9, 60672, Note_on_c, 0, 67, 100
9, 60672, Note_on_c, 0, 55, 100
9, 60792, Note_on_c, 0, 67, 0
9, 60862, Note_on_c, 0, 55, 0
9, 60864, Note_on_c, 0, 67, 100
9, 60984, Note_on_c, 0, 67, 0
9, 61248, Note_on_c, 0, 55, 100
9, 61342, Note_on_c, 0, 55, 0
9, 61632, Note_on_c, 0, 79, 100
9, 61728, Note_on_c, 0, 55, 100
9, 61822, Note_on_c, 0, 55, 0
9, 61822, Note_on_c, 0, 79, 0
9, 61824, Note_on_c, 0, 67, 100
9, 61944, Note_on_c, 0, 67, 0
9, 62592, Note_on_c, 0, 79, 100
9, 62782, Note_on_c, 0, 79, 0
9, 62784, Note_on_c, 0, 79, 100
9, 62904, Note_on_c, 0, 79, 0
9, 63168, Note_on_c, 0, 79, 100
9, 63262, Note_on_c, 0, 79, 0
9, 63360, Note_on_c, 0, 67, 100
9, 63500, Note_on_c, 0, 67, 0
9, 64128, Note_on_c, 0, 67, 100
9, 64128, Note_on_c, 0, 55, 100
9, 64268, Note_on_c, 0, 55, 0
9, 64268, Note_on_c, 0, 67, 0
9, 64704, Note_on_c, 0, 55, 100
9, 64800, Note_on_c, 0, 67, 100
9, 64894, Note_on_c, 0, 67, 0
9, 64894, Note_on_c, 0, 55, 0
9, 65088, Note_on_c, 0, 67, 100
9, 65182, Note_on_c, 0, 67, 0
9, 65664, Note_on_c, 0, 67, 100
9, 65854, Note_on_c, 0, 67, 0
9, 66432, Note_on_c, 0, 67, 100
9, 66622, Note_on_c, 0, 67, 0
9, 67392, Note_on_c, 0, 67, 100
9, 67486, Note_on_c, 0, 67, 0
9, 68160, Note_on_c, 0, 67, 100
9, 68254, Note_on_c, 0, 67, 0
9, 68736, Note_on_c, 0, 67, 100
9, 68926, Note_on_c, 0, 67, 0
9, 69504, Note_on_c, 0, 67, 100
9, 69694, Note_on_c, 0, 67, 0
9, 70464, Note_on_c, 0, 67, 100
9, 70558, Note_on_c, 0, 67, 0
9, 72192, Note_on_c, 0, 67, 100
9, 72382, Note_on_c, 0, 67, 0
9, 72960, Note_on_c, 0, 67, 100
9, 73150, Note_on_c, 0, 67, 0
9, 73536, Note_on_c, 0, 67, 100
9, 73630, Note_on_c, 0, 67, 0
9, 74304, Note_on_c, 0, 79, 100
9, 74398, Note_on_c, 0, 79, 0
9, 74496, Note_on_c, 0, 79, 100
9, 74686, Note_on_c, 0, 79, 0
9, 75264, Note_on_c, 0, 79, 100
9, 75454, Note_on_c, 0, 79, 0
9, 76032, Note_on_c, 0, 79, 100
9, 76222, Note_on_c, 0, 79, 0
9, 76224, Note_on_c, 0, 67, 100
9, 76414, Note_on_c, 0, 67, 0
9, 78144, Note_on_c, 0, 55, 100
9, 78238, Note_on_c, 0, 55, 0
9, 78912, Note_on_c, 0, 43, 100
9, 79006, Note_on_c, 0, 43, 0
9, 79296, Note_on_c, 0, 55, 100
9, 79486, Note_on_c, 0, 55, 0
9, 81216, Note_on_c, 0, 55, 100
9, 81310, Note_on_c, 0, 55, 0
9, 81984, Note_on_c, 0, 43, 100
9, 82078, Note_on_c, 0, 43, 0
9, 82368, Note_on_c, 0, 55, 100
9, 82558, Note_on_c, 0, 55, 0
9, 83136, Note_on_c, 0, 55, 100
9, 83326, Note_on_c, 0, 55, 0
9, 83712, Note_on_c, 0, 67, 100
9, 83712, Note_on_c, 0, 55, 100
9, 84092, Note_on_c, 0, 55, 0
9, 84092, Note_on_c, 0, 67, 0
9, 84480, Note_on_c, 0, 67, 100
9, 84860, Note_on_c, 0, 67, 0
9, 85248, Note_on_c, 0, 67, 100
9, 85438, Note_on_c, 0, 67, 0
9, 85440, Note_on_c, 0, 67, 100
9, 85820, Note_on_c, 0, 67, 0
9, 86016, Note_on_c, 0, 67, 100
9, 86016, Note_on_c, 0, 43, 100
9, 86136, Note_on_c, 0, 67, 0
9, 86206, Note_on_c, 0, 43, 0
9, 86208, Note_on_c, 0, 79, 100
9, 86208, Note_on_c, 0, 55, 100
9, 86398, Note_on_c, 0, 55, 0
9, 86398, Note_on_c, 0, 79, 0
9, 86784, Note_on_c, 0, 67, 100
9, 86784, Note_on_c, 0, 55, 100
9, 87004, Note_on_c, 0, 55, 0
9, 87004, Note_on_c, 0, 67, 0
9, 87552, Note_on_c, 0, 67, 100
9, 87552, Note_on_c, 0, 55, 100
9, 87742, Note_on_c, 0, 67, 0
9, 87832, Note_on_c, 0, 55, 0
9, 88320, Note_on_c, 0, 67, 100
9, 88320, Note_on_c, 0, 55, 100
9, 88510, Note_on_c, 0, 55, 0
9, 88510, Note_on_c, 0, 67, 0
9, 88512, Note_on_c, 0, 67, 100
9, 88606, Note_on_c, 0, 67, 0
9, 88704, Note_on_c, 0, 67, 100
9, 88894, Note_on_c, 0, 67, 0
9, 88992, Note_on_c, 0, 67, 100
9, 89086, Note_on_c, 0, 67, 0
9, 89088, Note_on_c, 0, 67, 100
9, 89088, Note_on_c, 0, 43, 100
9, 89304, Note_on_c, 0, 79, 100
9, 89368, Note_on_c, 0, 43, 0
9, 89424, Note_on_c, 0, 79, 0
9, 89468, Note_on_c, 0, 67, 0
9, 90072, Note_on_c, 0, 55, 100
9, 90166, Note_on_c, 0, 55, 0
9, 90648, Note_on_c, 0, 79, 100
9, 90853, Note_on_c, 0, 79, 0
9, 90960, Note_on_c, 0, 55, 100
9, 91054, Note_on_c, 0, 55, 0
9, 91056, Note_on_c, 0, 67, 100
9, 91236, Note_on_c, 0, 67, 0
9, 91248, Note_on_c, 0, 67, 100
9, 91438, Note_on_c, 0, 67, 0
9, 91632, Note_on_c, 0, 55, 100
9, 91726, Note_on_c, 0, 55, 0
9, 92016, Note_on_c, 0, 79, 100
9, 92112, Note_on_c, 0, 55, 100
9, 92206, Note_on_c, 0, 55, 0
9, 92206, Note_on_c, 0, 79, 0
9, 92784, Note_on_c, 0, 79, 100
9, 92878, Note_on_c, 0, 79, 0
9, 93552, Note_on_c, 0, 67, 100
9, 93646, Note_on_c, 0, 67, 0
9, 93936, Note_on_c, 0, 67, 100
9, 94030, Note_on_c, 0, 67, 0
9, 94128, Note_on_c, 0, 67, 100
9, 94128, Note_on_c, 0, 55, 100
9, 94318, Note_on_c, 0, 55, 0
9, 94318, Note_on_c, 0, 67, 0
9, 94320, Note_on_c, 0, 67, 100
9, 94320, Note_on_c, 0, 55, 100
9, 94414, Note_on_c, 0, 67, 0
9, 94510, Note_on_c, 0, 55, 0
9, 94704, Note_on_c, 0, 67, 100
9, 94798, Note_on_c, 0, 67, 0
9, 95088, Note_on_c, 0, 55, 100
9, 95278, Note_on_c, 0, 55, 0
9, 96360, Note_on_c, 0, 55, 100
9, 96454, Note_on_c, 0, 55, 0
9, 96648, Note_on_c, 0, 55, 100
9, 96742, Note_on_c, 0, 55, 0
9, 97128, Note_on_c, 0, 55, 100
9, 97222, Note_on_c, 0, 55, 0
9, 97416, Note_on_c, 0, 55, 100
9, 97510, Note_on_c, 0, 55, 0
9, 97800, Note_on_c, 0, 79, 100
9, 97896, Note_on_c, 0, 55, 100
9, 97990, Note_on_c, 0, 55, 0
9, 97990, Note_on_c, 0, 79, 0
9, 98184, Note_on_c, 0, 67, 100
9, 98374, Note_on_c, 0, 67, 0
9, 98760, Note_on_c, 0, 55, 100
9, 98950, Note_on_c, 0, 55, 0
9, 99048, Note_on_c, 0, 67, 100
9, 99142, Note_on_c, 0, 67, 0
9, 99336, Note_on_c, 0, 67, 100
9, 99430, Note_on_c, 0, 67, 0
9, 99528, Note_on_c, 0, 67, 100
9, 99718, Note_on_c, 0, 67, 0
9, 100296, Note_on_c, 0, 67, 100
9, 100486, Note_on_c, 0, 67, 0
9, 101640, Note_on_c, 0, 67, 100
9, 101736, Note_on_c, 0, 43, 100
9, 101830, Note_on_c, 0, 43, 0
9, 101830, Note_on_c, 0, 67, 0
9, 102024, Note_on_c, 0, 43, 100
9, 102118, Note_on_c, 0, 43, 0
9, 102216, Note_on_c, 0, 43, 100
9, 102216, Note_on_c, 0, 55, 100
9, 102406, Note_on_c, 0, 55, 0
9, 102406, Note_on_c, 0, 43, 0
9, 102408, Note_on_c, 0, 55, 100
9, 102408, Note_on_c, 0, 67, 100
9, 102598, Note_on_c, 0, 55, 0
9, 102788, Note_on_c, 0, 67, 0
9, 103272, Note_on_c, 0, 55, 100
9, 103366, Note_on_c, 0, 55, 0
9, 103560, Note_on_c, 0, 55, 100
9, 103654, Note_on_c, 0, 55, 0
9, 103944, Note_on_c, 0, 43, 100
9, 104040, Note_on_c, 0, 55, 100
9, 104134, Note_on_c, 0, 55, 0
9, 104134, Note_on_c, 0, 43, 0
9, 104328, Note_on_c, 0, 55, 100
9, 104422, Note_on_c, 0, 55, 0
9, 104712, Note_on_c, 0, 43, 100
9, 104808, Note_on_c, 0, 55, 100
9, 104902, Note_on_c, 0, 55, 0
9, 104902, Note_on_c, 0, 43, 0
9, 105288, Note_on_c, 0, 43, 100
9, 105288, Note_on_c, 0, 67, 100
9, 105418, Note_on_c, 0, 67, 0
9, 105478, Note_on_c, 0, 43, 0
9, 105480, Note_on_c, 0, 55, 100
9, 105480, Note_on_c, 0, 67, 100
9, 105610, Note_on_c, 0, 67, 0
9, 105670, Note_on_c, 0, 55, 0
9, 105864, Note_on_c, 0, 55, 100
9, 105958, Note_on_c, 0, 55, 0
9, 106656, Note_on_c, 0, 55, 100
9, 106750, Note_on_c, 0, 55, 0
9, 106848, Note_on_c, 0, 67, 100
9, 106848, Note_on_c, 0, 55, 100
9, 107038, Note_on_c, 0, 55, 0
9, 107228, Note_on_c, 0, 67, 0
9, 107616, Note_on_c, 0, 55, 100
9, 107806, Note_on_c, 0, 55, 0
9, 108384, Note_on_c, 0, 67, 100
9, 108384, Note_on_c, 0, 55, 100
9, 108504, Note_on_c, 0, 67, 0
9, 108574, Note_on_c, 0, 55, 0
9, 108576, Note_on_c, 0, 67, 100
9, 108766, Note_on_c, 0, 67, 0
9, 109728, Note_on_c, 0, 79, 100
9, 109822, Note_on_c, 0, 79, 0
9, 109920, Note_on_c, 0, 79, 100
9, 110110, Note_on_c, 0, 79, 0
9, 110688, Note_on_c, 0, 79, 100
9, 110878, Note_on_c, 0, 79, 0
9, 111456, Note_on_c, 0, 79, 100
9, 111456, Note_on_c, 0, 67, 100
9, 111646, Note_on_c, 0, 67, 0
9, 111646, Note_on_c, 0, 79, 0
9, 111648, Note_on_c, 0, 67, 100
9, 111838, Note_on_c, 0, 67, 0
9, 112224, Note_on_c, 0, 67, 100
9, 112224, Note_on_c, 0, 55, 100
9, 112414, Note_on_c, 0, 55, 0
9, 112414, Note_on_c, 0, 67, 0
9, 113568, Note_on_c, 0, 67, 100
9, 113662, Note_on_c, 0, 67, 0
9, 114336, Note_on_c, 0, 55, 100
9, 114430, Note_on_c, 0, 55, 0
9, 114720, Note_on_c, 0, 67, 100
9, 114910, Note_on_c, 0, 67, 0
9, 116640, Note_on_c, 0, 55, 100
9, 116734, Note_on_c, 0, 55, 0
9, 117408, Note_on_c, 0, 43, 100
9, 117502, Note_on_c, 0, 43, 0
9, 117792, Note_on_c, 0, 67, 100
9, 117792, Note_on_c, 0, 55, 100
9, 117863, Note_on_c, 0, 67, 0
9, 117982, Note_on_c, 0, 55, 0
9, 119072, Note_on_c, 0, 67, 100
9, 119166, Note_on_c, 0, 67, 0
9, 120800, Note_on_c, 0, 55, 100
9, 120800, Note_on_c, 0, 43, 100
9, 121567, Note_on_c, 0, 43, 0
9, 121567, Note_on_c, 0, 55, 0
9, 122000, Note_on_c, 0, 55, 100
9, 122382, Note_on_c, 0, 55, 0
9, 122384, Note_on_c, 0, 55, 100
9, 122576, Note_on_c, 0, 67, 100
9, 122670, Note_on_c, 0, 67, 0
9, 122766, Note_on_c, 0, 55, 0
9, 122768, Note_on_c, 0, 67, 100
9, 122768, Note_on_c, 0, 55, 100
9, 122958, Note_on_c, 0, 67, 0
9, 123150, Note_on_c, 0, 55, 0
9, 123152, Note_on_c, 0, 55, 100
9, 123919, Note_on_c, 0, 55, 0
9, 124400, Note_on_c, 0, 67, 100
9, 124446, Note_on_c, 0, 67, 0
9, 124592, Note_on_c, 0, 67, 100
9, 124686, Note_on_c, 0, 67, 0
9, 125456, Note_on_c, 0, 67, 100
9, 125546, Note_on_c, 0, 67, 0
9, 125648, Note_on_c, 0, 67, 100
9, 125738, Note_on_c, 0, 67, 0
9, 125840, Note_on_c, 0, 67, 100
9, 125930, Note_on_c, 0, 67, 0
9, 126224, Note_on_c, 0, 67, 100
9, 126896, Note_on_c, 0, 43, 100
9, 126990, Note_on_c, 0, 43, 0
9, 126990, Note_on_c, 0, 67, 0
9, 127184, Note_on_c, 0, 67, 100
9, 127564, Note_on_c, 0, 67, 0
9, 127568, Note_on_c, 0, 67, 100
9, 127758, Note_on_c, 0, 67, 0
9, 128336, Note_on_c, 0, 55, 100
9, 128430, Note_on_c, 0, 55, 0
9, 129296, Note_on_c, 0, 67, 100
9, 129488, Note_on_c, 0, 55, 100
9, 129678, Note_on_c, 0, 55, 0
9, 130063, Note_on_c, 0, 67, 0
9, 130640, Note_on_c, 0, 67, 100
9, 130830, Note_on_c, 0, 67, 0
9, 131792, Note_on_c, 0, 67, 100
9, 131982, Note_on_c, 0, 67, 0
9, 132176, Note_on_c, 0, 67, 100
9, 132943, Note_on_c, 0, 67, 0
9, 132944, Note_on_c, 0, 79, 100
9, 133224, Note_on_c, 0, 79, 0
9, 133808, Note_on_c, 0, 67, 100
9, 133902, Note_on_c, 0, 67, 0
9, 134480, Note_on_c, 0, 67, 100
9, 134670, Note_on_c, 0, 67, 0
9, 134672, Note_on_c, 0, 67, 100
9, 134672, Note_on_c, 0, 55, 100
9, 134862, Note_on_c, 0, 67, 0
9, 134864, Note_on_c, 0, 67, 100
9, 134958, Note_on_c, 0, 67, 0
9, 135248, Note_on_c, 0, 67, 100
9, 135438, Note_on_c, 0, 67, 0
9, 135439, Note_on_c, 0, 55, 0
9, 136208, Note_on_c, 0, 79, 100
9, 136398, Note_on_c, 0, 79, 0
9, 136400, Note_on_c, 0, 79, 100
9, 136494, Note_on_c, 0, 79, 0
9, 136784, Note_on_c, 0, 79, 100
9, 136974, Note_on_c, 0, 79, 0
9, 137168, Note_on_c, 0, 79, 100
9, 137262, Note_on_c, 0, 79, 0
9, 137552, Note_on_c, 0, 79, 100
9, 137742, Note_on_c, 0, 79, 0
9, 139088, Note_on_c, 0, 67, 100
9, 139278, Note_on_c, 0, 67, 0
9, 139280, Note_on_c, 0, 67, 100
9, 139280, Note_on_c, 0, 43, 100
9, 139470, Note_on_c, 0, 67, 0
9, 140048, Note_on_c, 0, 55, 100
9, 140428, Note_on_c, 0, 55, 0
9, 140810, Note_on_c, 0, 43, 0
9, 140816, Note_on_c, 0, 43, 100
9, 141582, Note_on_c, 0, 43, 0
9, 141584, Note_on_c, 0, 67, 100
9, 141584, Note_on_c, 0, 43, 100
9, 143784, Note_on_c, 0, 43, 0
9, 143784, Note_on_c, 0, 67, 0
9, 144384, Note_on_c, 0, 55, 100
9, 144638, Note_on_c, 0, 55, 0
9, 144649, Note_on_c, 0, 55, 100
9, 144758, Note_on_c, 0, 55, 0
9, 147456, Note_on_c, 0, 55, 100
9, 147710, Note_on_c, 0, 55, 0
9, 147840, Note_on_c, 0, 55, 100
9, 148094, Note_on_c, 0, 55, 0
9, 148224, Note_on_c, 0, 55, 100
9, 148478, Note_on_c, 0, 55, 0
9, 148608, Note_on_c, 0, 55, 100
9, 148862, Note_on_c, 0, 55, 0
9, 148992, Note_on_c, 0, 55, 100
9, 149246, Note_on_c, 0, 55, 0
9, 149376, Note_on_c, 0, 55, 100
9, 149630, Note_on_c, 0, 55, 0
9, 149760, Note_on_c, 0, 55, 100
9, 150014, Note_on_c, 0, 55, 0
9, 150016, Note_on_c, 0, 43, 100
9, 150134, Note_on_c, 0, 43, 0
9, 150144, Note_on_c, 0, 55, 100
9, 150262, Note_on_c, 0, 55, 0
9, 150405, Note_on_c, 0, 55, 100
9, 150405, Note_on_c, 0, 67, 100
9, 150523, Note_on_c, 0, 67, 0
9, 150523, Note_on_c, 0, 55, 0
9, 150912, Note_on_c, 0, 67, 100
9, 151166, Note_on_c, 0, 67, 0
9, 151173, Note_on_c, 0, 67, 100
9, 151291, Note_on_c, 0, 67, 0
9, 153861, Note_on_c, 0, 55, 100
9, 153979, Note_on_c, 0, 55, 0
9, 154112, Note_on_c, 0, 55, 100
9, 154230, Note_on_c, 0, 55, 0
9, 154629, Note_on_c, 0, 55, 100
9, 154747, Note_on_c, 0, 55, 0
9, 154880, Note_on_c, 0, 55, 100
9, 154998, Note_on_c, 0, 55, 0
9, 155397, Note_on_c, 0, 55, 100
9, 155515, Note_on_c, 0, 55, 0
9, 155648, Note_on_c, 0, 55, 100
9, 155766, Note_on_c, 0, 55, 0
9, 156672, Note_on_c, 0, 43, 100
9, 156926, Note_on_c, 0, 43, 0
9, 156928, Note_on_c, 0, 43, 100
9, 157046, Note_on_c, 0, 43, 0
9, 157056, Note_on_c, 0, 55, 100
9, 157310, Note_on_c, 0, 55, 0
9, 157312, Note_on_c, 0, 55, 100
9, 157430, Note_on_c, 0, 55, 0
9, 158208, Note_on_c, 0, 67, 100
9, 158326, Note_on_c, 0, 67, 0
9, 158464, Note_on_c, 0, 67, 100
9, 158582, Note_on_c, 0, 67, 0
9, 158592, Note_on_c, 0, 55, 100
9, 158710, Note_on_c, 0, 55, 0
9, 158720, Note_on_c, 0, 67, 100
9, 158838, Note_on_c, 0, 67, 0
9, 158848, Note_on_c, 0, 55, 100
9, 158966, Note_on_c, 0, 55, 0
9, 159104, Note_on_c, 0, 67, 100
9, 159222, Note_on_c, 0, 67, 0
9, 159744, Note_on_c, 0, 43, 100
9, 159998, Note_on_c, 0, 43, 0
9, 160128, Note_on_c, 0, 43, 100
9, 160382, Note_on_c, 0, 43, 0
9, 160512, Note_on_c, 0, 43, 100
9, 160766, Note_on_c, 0, 43, 0
9, 160896, Note_on_c, 0, 43, 100
9, 161150, Note_on_c, 0, 43, 0
9, 161280, Note_on_c, 0, 43, 100
9, 161534, Note_on_c, 0, 43, 0
9, 161664, Note_on_c, 0, 43, 100
9, 161918, Note_on_c, 0, 43, 0
9, 162048, Note_on_c, 0, 43, 100
9, 162302, Note_on_c, 0, 43, 0
9, 162304, Note_on_c, 0, 43, 100
9, 162304, Note_on_c, 0, 55, 100
9, 162422, Note_on_c, 0, 43, 0
9, 162432, Note_on_c, 0, 43, 100
9, 162550, Note_on_c, 0, 43, 0
9, 162554, Note_on_c, 0, 55, 0
9, 162688, Note_on_c, 0, 43, 100
9, 162688, Note_on_c, 0, 79, 100
9, 162806, Note_on_c, 0, 79, 0
9, 162806, Note_on_c, 0, 43, 0
9, 162816, Note_on_c, 0, 67, 100
9, 163070, Note_on_c, 0, 67, 0
9, 163072, Note_on_c, 0, 67, 100
9, 163190, Note_on_c, 0, 67, 0
9, 163200, Note_on_c, 0, 67, 100
9, 163200, Note_on_c, 0, 79, 100
9, 163454, Note_on_c, 0, 79, 0
9, 163454, Note_on_c, 0, 67, 0
9, 163456, Note_on_c, 0, 67, 100
9, 163456, Note_on_c, 0, 79, 100
9, 163574, Note_on_c, 0, 79, 0
9, 163574, Note_on_c, 0, 67, 0
9, 163584, Note_on_c, 0, 67, 100
9, 163838, Note_on_c, 0, 67, 0
9, 163840, Note_on_c, 0, 67, 100
9, 163958, Note_on_c, 0, 67, 0
9, 165120, Note_on_c, 0, 79, 100
9, 165695, Note_on_c, 0, 79, 0
9, 165760, Note_on_c, 0, 67, 100
9, 165878, Note_on_c, 0, 67, 0
9, 166144, Note_on_c, 0, 43, 100
9, 166262, Note_on_c, 0, 43, 0
9, 166400, Note_on_c, 0, 43, 100
9, 166518, Note_on_c, 0, 43, 0
9, 166528, Note_on_c, 0, 67, 100
9, 166646, Note_on_c, 0, 67, 0
9, 166912, Note_on_c, 0, 43, 100
9, 167030, Note_on_c, 0, 43, 0
9, 167168, Note_on_c, 0, 43, 100
9, 167286, Note_on_c, 0, 43, 0
9, 167296, Note_on_c, 0, 67, 100
9, 167414, Note_on_c, 0, 67, 0
9, 167680, Note_on_c, 0, 43, 100
9, 167798, Note_on_c, 0, 43, 0
9, 167936, Note_on_c, 0, 43, 100
9, 168054, Note_on_c, 0, 43, 0
9, 168064, Note_on_c, 0, 67, 100
9, 168182, Note_on_c, 0, 67, 0
9, 168832, Note_on_c, 0, 55, 100
9, 168950, Note_on_c, 0, 55, 0
9, 168960, Note_on_c, 0, 67, 100
9, 169342, Note_on_c, 0, 67, 0
9, 170496, Note_on_c, 0, 79, 100
9, 170614, Note_on_c, 0, 79, 0
9, 170752, Note_on_c, 0, 79, 100
9, 170870, Note_on_c, 0, 79, 0
9, 170880, Note_on_c, 0, 67, 100
9, 170998, Note_on_c, 0, 67, 0
9, 171008, Note_on_c, 0, 79, 100
9, 171126, Note_on_c, 0, 79, 0
9, 171136, Note_on_c, 0, 67, 100
9, 171254, Note_on_c, 0, 67, 0
9, 171392, Note_on_c, 0, 79, 100
9, 171510, Note_on_c, 0, 79, 0
9, 172032, Note_on_c, 0, 55, 100
9, 172032, Note_on_c, 0, 67, 100
9, 172286, Note_on_c, 0, 67, 0
9, 172416, Note_on_c, 0, 67, 100
9, 172607, Note_on_c, 0, 55, 0
9, 172670, Note_on_c, 0, 67, 0
9, 172800, Note_on_c, 0, 43, 100
9, 172800, Note_on_c, 0, 67, 100
9, 173054, Note_on_c, 0, 67, 0
9, 173184, Note_on_c, 0, 67, 100
9, 173375, Note_on_c, 0, 43, 0
9, 173438, Note_on_c, 0, 67, 0
9, 173568, Note_on_c, 0, 55, 100
9, 173568, Note_on_c, 0, 67, 100
9, 173822, Note_on_c, 0, 67, 0
9, 173952, Note_on_c, 0, 67, 100
9, 174143, Note_on_c, 0, 55, 0
9, 174206, Note_on_c, 0, 67, 0
9, 174336, Note_on_c, 0, 43, 100
9, 174336, Note_on_c, 0, 67, 100
9, 174590, Note_on_c, 0, 67, 0
9, 174592, Note_on_c, 0, 55, 100
9, 174592, Note_on_c, 0, 67, 100
9, 174710, Note_on_c, 0, 67, 0
9, 174716, Note_on_c, 0, 43, 0
9, 174720, Note_on_c, 0, 55, 0
9, 175872, Note_on_c, 0, 67, 100
9, 176126, Note_on_c, 0, 67, 0
9, 176128, Note_on_c, 0, 67, 100
9, 176246, Note_on_c, 0, 67, 0
9, 177408, Note_on_c, 0, 67, 100
9, 177526, Note_on_c, 0, 67, 0
9, 177664, Note_on_c, 0, 67, 100
9, 177782, Note_on_c, 0, 67, 0
9, 177792, Note_on_c, 0, 79, 100
9, 177910, Note_on_c, 0, 79, 0
9, 177920, Note_on_c, 0, 67, 100
9, 178038, Note_on_c, 0, 67, 0
9, 178048, Note_on_c, 0, 79, 100
9, 178166, Note_on_c, 0, 79, 0
9, 178432, Note_on_c, 0, 67, 100
9, 178550, Note_on_c, 0, 67, 0
9, 178816, Note_on_c, 0, 79, 100
9, 178934, Note_on_c, 0, 79, 0
9, 179200, Note_on_c, 0, 67, 100
9, 179318, Note_on_c, 0, 67, 0
9, 179584, Note_on_c, 0, 79, 100
9, 179702, Note_on_c, 0, 79, 0
9, 179968, Note_on_c, 0, 67, 100
9, 180086, Note_on_c, 0, 67, 0
9, 180352, Note_on_c, 0, 79, 100
9, 180470, Note_on_c, 0, 79, 0
9, 180608, Note_on_c, 0, 79, 100
9, 180726, Note_on_c, 0, 79, 0
9, 181120, Note_on_c, 0, 67, 100
9, 181238, Note_on_c, 0, 67, 0
9, 182016, Note_on_c, 0, 67, 100
9, 182144, Note_on_c, 0, 67, 100
9, 182262, Note_on_c, 0, 67, 0
9, 182270, Note_on_c, 0, 67, 0
9, 182400, Note_on_c, 0, 55, 100
9, 182400, Note_on_c, 0, 67, 100
9, 182518, Note_on_c, 0, 55, 0
9, 182654, Note_on_c, 0, 67, 0
9, 182656, Note_on_c, 0, 55, 100
9, 182774, Note_on_c, 0, 55, 0
9, 182912, Note_on_c, 0, 55, 100
9, 183030, Note_on_c, 0, 55, 0
9, 183296, Note_on_c, 0, 55, 100
9, 183414, Note_on_c, 0, 55, 0
9, 183552, Note_on_c, 0, 67, 100
9, 183806, Note_on_c, 0, 67, 0
9, 183808, Note_on_c, 0, 67, 100
9, 183926, Note_on_c, 0, 67, 0
9, 183936, Note_on_c, 0, 55, 100
9, 184190, Note_on_c, 0, 55, 0
9, 184192, Note_on_c, 0, 55, 100
9, 184310, Note_on_c, 0, 55, 0
9, 185856, Note_on_c, 0, 67, 100
9, 185984, Note_on_c, 0, 55, 100
9, 186102, Note_on_c, 0, 55, 0
9, 186431, Note_on_c, 0, 67, 0
9, 186624, Note_on_c, 0, 67, 100
9, 186752, Note_on_c, 0, 55, 100
9, 186870, Note_on_c, 0, 55, 0
9, 187199, Note_on_c, 0, 67, 0
9, 187392, Note_on_c, 0, 67, 100
9, 187520, Note_on_c, 0, 55, 100
9, 187638, Note_on_c, 0, 55, 0
9, 187967, Note_on_c, 0, 67, 0
9, 188288, Note_on_c, 0, 67, 100
9, 188406, Note_on_c, 0, 67, 0
9, 188544, Note_on_c, 0, 67, 100
9, 188662, Note_on_c, 0, 67, 0
9, 188928, Note_on_c, 0, 55, 100
9, 188928, Note_on_c, 0, 67, 100
9, 189046, Note_on_c, 0, 67, 0
9, 189056, Note_on_c, 0, 79, 100
9, 189174, Note_on_c, 0, 79, 0
9, 189182, Note_on_c, 0, 55, 0
9, 189312, Note_on_c, 0, 55, 100
9, 189566, Note_on_c, 0, 55, 0
9, 189696, Note_on_c, 0, 55, 100
9, 189950, Note_on_c, 0, 55, 0
9, 190080, Note_on_c, 0, 55, 100
9, 190334, Note_on_c, 0, 55, 0
9, 190464, Note_on_c, 0, 55, 100
9, 190718, Note_on_c, 0, 55, 0
9, 191104, Note_on_c, 0, 67, 100
9, 191222, Note_on_c, 0, 67, 0
9, 191744, Note_on_c, 0, 67, 100
9, 191862, Note_on_c, 0, 67, 0
9, 192768, Note_on_c, 0, 67, 100
9, 193022, Note_on_c, 0, 67, 0
9, 193024, Note_on_c, 0, 67, 100
9, 193142, Note_on_c, 0, 67, 0
9, 193152, Note_on_c, 0, 67, 100
9, 193406, Note_on_c, 0, 67, 0
9, 193408, Note_on_c, 0, 67, 100
9, 193526, Note_on_c, 0, 67, 0
9, 194304, Note_on_c, 0, 55, 100
9, 194422, Note_on_c, 0, 55, 0
9, 194560, Note_on_c, 0, 55, 100
9, 194678, Note_on_c, 0, 55, 0
9, 194688, Note_on_c, 0, 67, 100
9, 194806, Note_on_c, 0, 67, 0
9, 194816, Note_on_c, 0, 55, 100
9, 194934, Note_on_c, 0, 55, 0
9, 194944, Note_on_c, 0, 67, 100
9, 195062, Note_on_c, 0, 67, 0
9, 195328, Note_on_c, 0, 67, 100
9, 195446, Note_on_c, 0, 67, 0
9, 195712, Note_on_c, 0, 67, 100
9, 195830, Note_on_c, 0, 67, 0
9, 196096, Note_on_c, 0, 67, 100
9, 196214, Note_on_c, 0, 67, 0
9, 196480, Note_on_c, 0, 67, 100
9, 196598, Note_on_c, 0, 67, 0
9, 196864, Note_on_c, 0, 67, 100
9, 196982, Note_on_c, 0, 67, 0
9, 197248, Note_on_c, 0, 67, 100
9, 197366, Note_on_c, 0, 67, 0
9, 197504, Note_on_c, 0, 67, 100
9, 197622, Note_on_c, 0, 67, 0
9, 197760, Note_on_c, 0, 67, 100
9, 198014, Note_on_c, 0, 67, 0
9, 198144, Note_on_c, 0, 43, 100
9, 198144, Note_on_c, 0, 67, 100
9, 198398, Note_on_c, 0, 67, 0
9, 198398, Note_on_c, 0, 43, 0
9, 198400, Note_on_c, 0, 43, 100
9, 198518, Note_on_c, 0, 43, 0
9, 198528, Note_on_c, 0, 67, 100
9, 198782, Note_on_c, 0, 67, 0
9, 198784, Note_on_c, 0, 67, 100
9, 198902, Note_on_c, 0, 67, 0
9, 199680, Note_on_c, 0, 79, 100
9, 199798, Note_on_c, 0, 79, 0
9, 199936, Note_on_c, 0, 79, 100
9, 200054, Note_on_c, 0, 79, 0
9, 200064, Note_on_c, 0, 67, 100
9, 200182, Note_on_c, 0, 67, 0
9, 200192, Note_on_c, 0, 79, 100
9, 200310, Note_on_c, 0, 79, 0
9, 200320, Note_on_c, 0, 67, 100
9, 200438, Note_on_c, 0, 67, 0
9, 200576, Note_on_c, 0, 79, 100
9, 200694, Note_on_c, 0, 79, 0
9, 201216, Note_on_c, 0, 43, 100
9, 201216, Note_on_c, 0, 67, 100
9, 201470, Note_on_c, 0, 43, 0
9, 201600, Note_on_c, 0, 43, 100
9, 201791, Note_on_c, 0, 67, 0
9, 201854, Note_on_c, 0, 43, 0
9, 201984, Note_on_c, 0, 43, 100
9, 202238, Note_on_c, 0, 43, 0
9, 202368, Note_on_c, 0, 43, 100
9, 202622, Note_on_c, 0, 43, 0
9, 202752, Note_on_c, 0, 43, 100
9, 203006, Note_on_c, 0, 43, 0
9, 203136, Note_on_c, 0, 43, 100
9, 203390, Note_on_c, 0, 43, 0
9, 203520, Note_on_c, 0, 43, 100
9, 203774, Note_on_c, 0, 43, 0
9, 203776, Note_on_c, 0, 55, 100
9, 203776, Note_on_c, 0, 67, 100
9, 203894, Note_on_c, 0, 67, 0
9, 203894, Note_on_c, 0, 55, 0
9, 203904, Note_on_c, 0, 79, 100
9, 204158, Note_on_c, 0, 79, 0
9, 205696, Note_on_c, 0, 55, 100
9, 205814, Note_on_c, 0, 55, 0
9, 205952, Note_on_c, 0, 55, 100
9, 206070, Note_on_c, 0, 55, 0
9, 206080, Note_on_c, 0, 67, 100
9, 206198, Note_on_c, 0, 67, 0
9, 206592, Note_on_c, 0, 67, 100
9, 206846, Note_on_c, 0, 67, 0
9, 206848, Note_on_c, 0, 55, 100
9, 206966, Note_on_c, 0, 55, 0
9, 207232, Note_on_c, 0, 67, 100
9, 207350, Note_on_c, 0, 67, 0
9, 208128, Note_on_c, 0, 43, 100
9, 208128, Note_on_c, 0, 79, 100
9, 208382, Note_on_c, 0, 79, 0
9, 208382, Note_on_c, 0, 43, 0
9, 208384, Note_on_c, 0, 55, 100
9, 208384, Note_on_c, 0, 79, 100
9, 208502, Note_on_c, 0, 79, 0
9, 208502, Note_on_c, 0, 55, 0
9, 208512, Note_on_c, 0, 67, 100
9, 208766, Note_on_c, 0, 67, 0
9, 208768, Note_on_c, 0, 55, 100
9, 208886, Note_on_c, 0, 55, 0
9, 209664, Note_on_c, 0, 67, 100
9, 209782, Note_on_c, 0, 67, 0
9, 209920, Note_on_c, 0, 67, 100
9, 210038, Note_on_c, 0, 67, 0
9, 210048, Note_on_c, 0, 79, 100
9, 210166, Note_on_c, 0, 79, 0
9, 210176, Note_on_c, 0, 67, 100
9, 210294, Note_on_c, 0, 67, 0
9, 210304, Note_on_c, 0, 79, 100
9, 210422, Note_on_c, 0, 79, 0
9, 210688, Note_on_c, 0, 79, 100
9, 210806, Note_on_c, 0, 79, 0
9, 211072, Note_on_c, 0, 79, 100
9, 211190, Note_on_c, 0, 79, 0
9, 211456, Note_on_c, 0, 79, 100
9, 211574, Note_on_c, 0, 79, 0
9, 211840, Note_on_c, 0, 79, 100
9, 211958, Note_on_c, 0, 79, 0
9, 212224, Note_on_c, 0, 79, 100
9, 212342, Note_on_c, 0, 79, 0
9, 212608, Note_on_c, 0, 43, 100
9, 212608, Note_on_c, 0, 79, 100
9, 212726, Note_on_c, 0, 79, 0
9, 212726, Note_on_c, 0, 43, 0
9, 213120, Note_on_c, 0, 79, 100
9, 213238, Note_on_c, 0, 79, 0
9, 213376, Note_on_c, 0, 55, 100
9, 213494, Note_on_c, 0, 55, 0
9, 213632, Note_on_c, 0, 79, 100
9, 213750, Note_on_c, 0, 79, 0
9, 214656, Note_on_c, 0, 55, 100
9, 214910, Note_on_c, 0, 55, 0
9, 214912, Note_on_c, 0, 55, 100
9, 215030, Note_on_c, 0, 55, 0
9, 215040, Note_on_c, 0, 55, 100
9, 215420, Note_on_c, 0, 55, 0
9, 216448, Note_on_c, 0, 67, 100
9, 216566, Note_on_c, 0, 67, 0
9, 216576, Note_on_c, 0, 67, 100
9, 216830, Note_on_c, 0, 67, 0
9, 217600, Note_on_c, 0, 43, 100
9, 217718, Note_on_c, 0, 43, 0
9, 217856, Note_on_c, 0, 43, 100
9, 217974, Note_on_c, 0, 43, 0
9, 218368, Note_on_c, 0, 43, 100
9, 218486, Note_on_c, 0, 43, 0
9, 218624, Note_on_c, 0, 43, 100
9, 218742, Note_on_c, 0, 43, 0
9, 219136, Note_on_c, 0, 43, 100
9, 219254, Note_on_c, 0, 43, 0
9, 219392, Note_on_c, 0, 43, 100
9, 219510, Note_on_c, 0, 43, 0
9, 219776, Note_on_c, 0, 67, 100
9, 219894, Note_on_c, 0, 67, 0
9, 220160, Note_on_c, 0, 43, 100
9, 220278, Note_on_c, 0, 43, 0
9, 221184, Note_on_c, 0, 55, 100
9, 221184, Note_on_c, 0, 67, 100
9, 221302, Note_on_c, 0, 55, 0
9, 221438, Note_on_c, 0, 67, 0
9, 221440, Note_on_c, 0, 55, 100
9, 221440, Note_on_c, 0, 67, 100
9, 221558, Note_on_c, 0, 67, 0
9, 221558, Note_on_c, 0, 55, 0
9, 221824, Note_on_c, 0, 67, 100
9, 221942, Note_on_c, 0, 67, 0
9, 222720, Note_on_c, 0, 55, 100
9, 222838, Note_on_c, 0, 55, 0
9, 222976, Note_on_c, 0, 55, 100
9, 223094, Note_on_c, 0, 55, 0
9, 223104, Note_on_c, 0, 43, 100
9, 223222, Note_on_c, 0, 43, 0
9, 223232, Note_on_c, 0, 55, 100
9, 223350, Note_on_c, 0, 55, 0
9, 223360, Note_on_c, 0, 43, 100
9, 223478, Note_on_c, 0, 43, 0
9, 223616, Note_on_c, 0, 55, 100
9, 223734, Note_on_c, 0, 55, 0
9, 224256, Note_on_c, 0, 67, 100
9, 224510, Note_on_c, 0, 67, 0
9, 224640, Note_on_c, 0, 67, 100
9, 224894, Note_on_c, 0, 67, 0
9, 225024, Note_on_c, 0, 67, 100
9, 225278, Note_on_c, 0, 67, 0
9, 225408, Note_on_c, 0, 67, 100
9, 225662, Note_on_c, 0, 67, 0
9, 225792, Note_on_c, 0, 67, 100
9, 226046, Note_on_c, 0, 67, 0
9, 226176, Note_on_c, 0, 67, 100
9, 226430, Note_on_c, 0, 67, 0
9, 226560, Note_on_c, 0, 67, 100
9, 226688, Note_on_c, 0, 55, 100
9, 226806, Note_on_c, 0, 55, 0
9, 226814, Note_on_c, 0, 67, 0
9, 226944, Note_on_c, 0, 67, 100
9, 227062, Note_on_c, 0, 67, 0
9, 227200, Note_on_c, 0, 67, 100
9, 227318, Note_on_c, 0, 67, 0
9, 227456, Note_on_c, 0, 67, 100
9, 227574, Note_on_c, 0, 67, 0
9, 227840, Note_on_c, 0, 67, 100
9, 227958, Note_on_c, 0, 67, 0
9, 228096, Note_on_c, 0, 55, 100
9, 228480, Note_on_c, 0, 67, 100
9, 228671, Note_on_c, 0, 55, 0
9, 228734, Note_on_c, 0, 67, 0
9, 228736, Note_on_c, 0, 55, 100
9, 228736, Note_on_c, 0, 67, 100
9, 228854, Note_on_c, 0, 67, 0
9, 228854, Note_on_c, 0, 55, 0
9, 230528, Note_on_c, 0, 67, 100
9, 230646, Note_on_c, 0, 67, 0
9, 231296, Note_on_c, 0, 67, 100
9, 231414, Note_on_c, 0, 67, 0
9, 232064, Note_on_c, 0, 67, 100
9, 232182, Note_on_c, 0, 67, 0
9, 233472, Note_on_c, 0, 55, 100
9, 233726, Note_on_c, 0, 55, 0
9, 233728, Note_on_c, 0, 55, 100
9, 233846, Note_on_c, 0, 55, 0
9, 235008, Note_on_c, 0, 67, 100
9, 235258, Note_on_c, 0, 67, 0
9, 235264, Note_on_c, 0, 67, 100
9, 235382, Note_on_c, 0, 67, 0
9, 235392, Note_on_c, 0, 79, 100
9, 235510, Note_on_c, 0, 79, 0
9, 235520, Note_on_c, 0, 67, 100
9, 235638, Note_on_c, 0, 67, 0
9, 235648, Note_on_c, 0, 79, 100
9, 235766, Note_on_c, 0, 79, 0
9, 235904, Note_on_c, 0, 67, 100
9, 236022, Note_on_c, 0, 67, 0
9, 236544, Note_on_c, 0, 55, 100
9, 236798, Note_on_c, 0, 55, 0
9, 236928, Note_on_c, 0, 55, 100
9, 237182, Note_on_c, 0, 55, 0
9, 237312, Note_on_c, 0, 55, 100
9, 237430, Note_on_c, 0, 55, 0
9, 237696, Note_on_c, 0, 67, 100
9, 237950, Note_on_c, 0, 67, 0
9, 238080, Note_on_c, 0, 67, 100
9, 238334, Note_on_c, 0, 67, 0
9, 238464, Note_on_c, 0, 67, 100
9, 238718, Note_on_c, 0, 67, 0
9, 238848, Note_on_c, 0, 67, 100
9, 239102, Note_on_c, 0, 67, 0
9, 239104, Note_on_c, 0, 79, 100
9, 239222, Note_on_c, 0, 79, 0
9, 239232, Note_on_c, 0, 67, 100
9, 239486, Note_on_c, 0, 67, 0
9, 239488, Note_on_c, 0, 55, 100
9, 239606, Note_on_c, 0, 55, 0
9, 239744, Note_on_c, 0, 55, 100
9, 239862, Note_on_c, 0, 55, 0
9, 240128, Note_on_c, 0, 55, 100
9, 240246, Note_on_c, 0, 55, 0
9, 240768, Note_on_c, 0, 55, 100
9, 240768, Note_on_c, 0, 67, 100
9, 241018, Note_on_c, 0, 55, 0
9, 241022, Note_on_c, 0, 67, 0
9, 241024, Note_on_c, 0, 55, 100
9, 241024, Note_on_c, 0, 67, 100
9, 241142, Note_on_c, 0, 67, 0
9, 241142, Note_on_c, 0, 55, 0
9, 241152, Note_on_c, 0, 67, 100
9, 241534, Note_on_c, 0, 67, 0
9, 242560, Note_on_c, 0, 79, 100
9, 242678, Note_on_c, 0, 79, 0
9, 242816, Note_on_c, 0, 55, 100
9, 242934, Note_on_c, 0, 55, 0
9, 243328, Note_on_c, 0, 79, 100
9, 243446, Note_on_c, 0, 79, 0
9, 243584, Note_on_c, 0, 55, 100
9, 243702, Note_on_c, 0, 55, 0
9, 244096, Note_on_c, 0, 79, 100
9, 244214, Note_on_c, 0, 79, 0
9, 244352, Note_on_c, 0, 55, 100
9, 244470, Note_on_c, 0, 55, 0
9, 244864, Note_on_c, 0, 79, 100
9, 244982, Note_on_c, 0, 79, 0
9, 245760, Note_on_c, 0, 79, 100
9, 245878, Note_on_c, 0, 79, 0
9, 245888, Note_on_c, 0, 67, 100
9, 246006, Note_on_c, 0, 67, 0
9, 246016, Note_on_c, 0, 79, 100
9, 246134, Note_on_c, 0, 79, 0
9, 246656, Note_on_c, 0, 55, 100
9, 246774, Note_on_c, 0, 55, 0
9, 247296, Note_on_c, 0, 55, 100
9, 247414, Note_on_c, 0, 55, 0
9, 248192, Note_on_c, 0, 55, 100
9, 248310, Note_on_c, 0, 55, 0
9, 248832, Note_on_c, 0, 67, 100
9, 249086, Note_on_c, 0, 67, 0
9, 249088, Note_on_c, 0, 67, 100
9, 249206, Note_on_c, 0, 67, 0
9, 249472, Note_on_c, 0, 67, 100
9, 249590, Note_on_c, 0, 67, 0
9, 250368, Note_on_c, 0, 43, 100
9, 250486, Note_on_c, 0, 43, 0
9, 250752, Note_on_c, 0, 43, 100
9, 250870, Note_on_c, 0, 43, 0
9, 251136, Note_on_c, 0, 43, 100
9, 251254, Note_on_c, 0, 43, 0
9, 251520, Note_on_c, 0, 43, 100
9, 251638, Note_on_c, 0, 43, 0
9, 251904, Note_on_c, 0, 67, 100
9, 252022, Note_on_c, 0, 67, 0
9, 252288, Note_on_c, 0, 67, 100
9, 252406, Note_on_c, 0, 67, 0
9, 253312, Note_on_c, 0, 67, 100
9, 253430, Note_on_c, 0, 67, 0
9, 253696, Note_on_c, 0, 79, 100
9, 253814, Note_on_c, 0, 79, 0
9, 254080, Note_on_c, 0, 67, 100
9, 254198, Note_on_c, 0, 67, 0
9, 254976, Note_on_c, 0, 55, 100
9, 255230, Note_on_c, 0, 55, 0
9, 255360, Note_on_c, 0, 67, 100
9, 255478, Note_on_c, 0, 67, 0
9, 255616, Note_on_c, 0, 67, 100
9, 255734, Note_on_c, 0, 67, 0
9, 256000, Note_on_c, 0, 67, 100
9, 256118, Note_on_c, 0, 67, 0
9, 256256, Note_on_c, 0, 67, 100
9, 256374, Note_on_c, 0, 67, 0
9, 256512, Note_on_c, 0, 43, 100
9, 256512, Note_on_c, 0, 67, 100
9, 256630, Note_on_c, 0, 67, 0
9, 256640, Note_on_c, 0, 67, 100
9, 256758, Note_on_c, 0, 67, 0
9, 256766, Note_on_c, 0, 43, 0
9, 256768, Note_on_c, 0, 55, 100
9, 256886, Note_on_c, 0, 55, 0
9, 257152, Note_on_c, 0, 55, 100
9, 257152, Note_on_c, 0, 67, 100
9, 257270, Note_on_c, 0, 67, 0
9, 257270, Note_on_c, 0, 55, 0
9, 257536, Note_on_c, 0, 67, 100
9, 257654, Note_on_c, 0, 67, 0
9, 257920, Note_on_c, 0, 67, 100
9, 258038, Note_on_c, 0, 67, 0
9, 258432, Note_on_c, 0, 67, 100
9, 258550, Note_on_c, 0, 67, 0
9, 258688, Note_on_c, 0, 67, 100
9, 258806, Note_on_c, 0, 67, 0
9, 260352, Note_on_c, 0, 55, 100
9, 260606, Note_on_c, 0, 55, 0
9, 260608, Note_on_c, 0, 55, 100
9, 260726, Note_on_c, 0, 55, 0
9, 261888, Note_on_c, 0, 67, 100
9, 262006, Note_on_c, 0, 67, 0
9, 262272, Note_on_c, 0, 67, 100
9, 262390, Note_on_c, 0, 67, 0
9, 262656, Note_on_c, 0, 67, 100
9, 262774, Note_on_c, 0, 67, 0
9, 263040, Note_on_c, 0, 67, 100
9, 263158, Note_on_c, 0, 67, 0
9, 263424, Note_on_c, 0, 67, 100
9, 263542, Note_on_c, 0, 67, 0
9, 263808, Note_on_c, 0, 67, 100
9, 263926, Note_on_c, 0, 67, 0
9, 264192, Note_on_c, 0, 67, 100
9, 264310, Note_on_c, 0, 67, 0
9, 264448, Note_on_c, 0, 79, 100
9, 264566, Note_on_c, 0, 79, 0
9, 264960, Note_on_c, 0, 55, 100
9, 264960, Note_on_c, 0, 67, 100
9, 265078, Note_on_c, 0, 55, 0
9, 265214, Note_on_c, 0, 67, 0
9, 265216, Note_on_c, 0, 67, 100
9, 265334, Note_on_c, 0, 67, 0
9, 265344, Note_on_c, 0, 67, 100
9, 265598, Note_on_c, 0, 67, 0
9, 265600, Note_on_c, 0, 67, 100
9, 265718, Note_on_c, 0, 67, 0
9, 265728, Note_on_c, 0, 67, 100
9, 265982, Note_on_c, 0, 67, 0
9, 265984, Note_on_c, 0, 67, 100
9, 266102, Note_on_c, 0, 67, 0
9, 266112, Note_on_c, 0, 67, 100
9, 266366, Note_on_c, 0, 67, 0
9, 266368, Note_on_c, 0, 55, 100
9, 266368, Note_on_c, 0, 67, 100
9, 266486, Note_on_c, 0, 67, 0
9, 266486, Note_on_c, 0, 55, 0
9, 266624, Note_on_c, 0, 55, 100
9, 266742, Note_on_c, 0, 55, 0
9, 268032, Note_on_c, 0, 67, 100
9, 268150, Note_on_c, 0, 67, 0
9, 268672, Note_on_c, 0, 67, 100
9, 268790, Note_on_c, 0, 67, 0
9, 269568, Note_on_c, 0, 43, 100
9, 269568, Note_on_c, 0, 67, 100
9, 269822, Note_on_c, 0, 67, 0
9, 269822, Note_on_c, 0, 43, 0
9, 269824, Note_on_c, 0, 43, 100
9, 269824, Note_on_c, 0, 55, 100
9, 269942, Note_on_c, 0, 55, 0
9, 269942, Note_on_c, 0, 43, 0
9, 269952, Note_on_c, 0, 55, 100
9, 270206, Note_on_c, 0, 55, 0
9, 270208, Note_on_c, 0, 67, 100
9, 270326, Note_on_c, 0, 67, 0
9, 271104, Note_on_c, 0, 79, 100
9, 271222, Note_on_c, 0, 79, 0
9, 271360, Note_on_c, 0, 79, 100
9, 271478, Note_on_c, 0, 79, 0
9, 271488, Note_on_c, 0, 67, 100
9, 271606, Note_on_c, 0, 67, 0
9, 271616, Note_on_c, 0, 79, 100
9, 271734, Note_on_c, 0, 79, 0
9, 271744, Note_on_c, 0, 67, 100
9, 271862, Note_on_c, 0, 67, 0
9, 272128, Note_on_c, 0, 43, 100
9, 272246, Note_on_c, 0, 43, 0
9, 272512, Note_on_c, 0, 67, 100
9, 272630, Note_on_c, 0, 67, 0
9, 272896, Note_on_c, 0, 43, 100
9, 273014, Note_on_c, 0, 43, 0
9, 273280, Note_on_c, 0, 67, 100
9, 273398, Note_on_c, 0, 67, 0
9, 273664, Note_on_c, 0, 55, 100
9, 273664, Note_on_c, 0, 67, 100
9, 273782, Note_on_c, 0, 67, 0
9, 273782, Note_on_c, 0, 55, 0
9, 274048, Note_on_c, 0, 43, 100
9, 274166, Note_on_c, 0, 43, 0
9, 274432, Note_on_c, 0, 67, 100
9, 274550, Note_on_c, 0, 67, 0
9, 274816, Note_on_c, 0, 55, 100
9, 274934, Note_on_c, 0, 55, 0
9, 275072, Note_on_c, 0, 55, 100
9, 275190, Note_on_c, 0, 55, 0
9, 275328, Note_on_c, 0, 79, 100
9, 275446, Note_on_c, 0, 79, 0
9, 275840, Note_on_c, 0, 67, 100
9, 275958, Note_on_c, 0, 67, 0
9, 276480, Note_on_c, 0, 55, 100
9, 276734, Note_on_c, 0, 55, 0
9, 276864, Note_on_c, 0, 67, 100
9, 276982, Note_on_c, 0, 67, 0
9, 277120, Note_on_c, 0, 55, 100
9, 277238, Note_on_c, 0, 55, 0
9, 277504, Note_on_c, 0, 55, 100
9, 277622, Note_on_c, 0, 55, 0
9, 278272, Note_on_c, 0, 67, 100
9, 278390, Note_on_c, 0, 67, 0
9, 278784, Note_on_c, 0, 55, 100
9, 279038, Note_on_c, 0, 55, 0
9, 279040, Note_on_c, 0, 55, 100
9, 279158, Note_on_c, 0, 55, 0
9, 280320, Note_on_c, 0, 55, 100
9, 280438, Note_on_c, 0, 55, 0
9, 280576, Note_on_c, 0, 55, 100
9, 280694, Note_on_c, 0, 55, 0
9, 280704, Note_on_c, 0, 67, 100
9, 280822, Note_on_c, 0, 67, 0
9, 280832, Note_on_c, 0, 55, 100
9, 280950, Note_on_c, 0, 55, 0
9, 280960, Note_on_c, 0, 67, 100
9, 281078, Note_on_c, 0, 67, 0
9, 281216, Note_on_c, 0, 55, 100
9, 281334, Note_on_c, 0, 55, 0
9, 281856, Note_on_c, 0, 55, 100
9, 281856, Note_on_c, 0, 67, 100
9, 281974, Note_on_c, 0, 67, 0
9, 282110, Note_on_c, 0, 55, 0
9, 282240, Note_on_c, 0, 55, 100
9, 282494, Note_on_c, 0, 55, 0
9, 282624, Note_on_c, 0, 55, 100
9, 282742, Note_on_c, 0, 55, 0
9, 283008, Note_on_c, 0, 67, 100
9, 283262, Note_on_c, 0, 67, 0
9, 283392, Note_on_c, 0, 67, 100
9, 283646, Note_on_c, 0, 67, 0
9, 283776, Note_on_c, 0, 67, 100
9, 284030, Note_on_c, 0, 67, 0
9, 284160, Note_on_c, 0, 67, 100
9, 284414, Note_on_c, 0, 67, 0
9, 284416, Note_on_c, 0, 67, 100
9, 284416, Note_on_c, 0, 79, 100
9, 284534, Note_on_c, 0, 79, 0
9, 284534, Note_on_c, 0, 67, 0
9, 284800, Note_on_c, 0, 43, 100
9, 284800, Note_on_c, 0, 67, 100
9, 284918, Note_on_c, 0, 67, 0
9, 284918, Note_on_c, 0, 43, 0
9, 285312, Note_on_c, 0, 43, 100
9, 285440, Note_on_c, 0, 67, 100
9, 285558, Note_on_c, 0, 67, 0
9, 285566, Note_on_c, 0, 43, 0
9, 285568, Note_on_c, 0, 43, 100
9, 285686, Note_on_c, 0, 43, 0
9, 285952, Note_on_c, 0, 67, 100
9, 286070, Note_on_c, 0, 67, 0
9, 287232, Note_on_c, 0, 67, 100
9, 287350, Note_on_c, 0, 67, 0
9, 287488, Note_on_c, 0, 67, 100
9, 287606, Note_on_c, 0, 67, 0
9, 287616, Note_on_c, 0, 67, 100
9, 287734, Note_on_c, 0, 67, 0
9, 287872, Note_on_c, 0, 67, 100
9, 287990, Note_on_c, 0, 67, 0
9, 288128, Note_on_c, 0, 67, 100
9, 288246, Note_on_c, 0, 67, 0
9, 289536, Note_on_c, 0, 67, 100
9, 289536, Note_on_c, 0, 79, 100
9, 289656, Note_on_c, 0, 79, 0
9, 289664, Note_on_c, 0, 79, 100
9, 289782, Note_on_c, 0, 79, 0
9, 289790, Note_on_c, 0, 67, 0
9, 289920, Note_on_c, 0, 67, 100
9, 290174, Note_on_c, 0, 67, 0
9, 290304, Note_on_c, 0, 67, 100
9, 290304, Note_on_c, 0, 79, 100
9, 290422, Note_on_c, 0, 67, 0
9, 290432, Note_on_c, 0, 55, 100
9, 290550, Note_on_c, 0, 55, 0
9, 290558, Note_on_c, 0, 79, 0
9, 290688, Note_on_c, 0, 79, 100
9, 290942, Note_on_c, 0, 79, 0
9, 291072, Note_on_c, 0, 79, 100
9, 291200, Note_on_c, 0, 67, 100
9, 291318, Note_on_c, 0, 67, 0
9, 291326, Note_on_c, 0, 79, 0
9, 291456, Note_on_c, 0, 55, 100
9, 291456, Note_on_c, 0, 79, 100
9, 291710, Note_on_c, 0, 79, 0
9, 291710, Note_on_c, 0, 55, 0
9, 291840, Note_on_c, 0, 55, 100
9, 291840, Note_on_c, 0, 79, 100
9, 292094, Note_on_c, 0, 79, 0
9, 292094, Note_on_c, 0, 55, 0
9, 292096, Note_on_c, 0, 67, 100
9, 292214, Note_on_c, 0, 67, 0
9, 292480, Note_on_c, 0, 67, 100
9, 292598, Note_on_c, 0, 67, 0
9, 292608, Note_on_c, 0, 43, 100
9, 292608, Note_on_c, 0, 55, 100
9, 292608, Note_on_c, 0, 67, 100
9, 292862, Note_on_c, 0, 43, 0
9, 292864, Note_on_c, 0, 43, 100
9, 292982, Note_on_c, 0, 43, 0
9, 292988, Note_on_c, 0, 67, 0
9, 292988, Note_on_c, 0, 55, 0
9, 293248, Note_on_c, 0, 55, 100
9, 293366, Note_on_c, 0, 55, 0
9, 294144, Note_on_c, 0, 67, 100
9, 294262, Note_on_c, 0, 67, 0
9, 294400, Note_on_c, 0, 67, 100
9, 294518, Note_on_c, 0, 67, 0
9, 294528, Note_on_c, 0, 55, 100
9, 294646, Note_on_c, 0, 55, 0
9, 294656, Note_on_c, 0, 67, 100
9, 294774, Note_on_c, 0, 67, 0
9, 294784, Note_on_c, 0, 55, 100
9, 294902, Note_on_c, 0, 55, 0
9, 295040, Note_on_c, 0, 67, 100
9, 295158, Note_on_c, 0, 67, 0
9, 295680, Note_on_c, 0, 43, 100
9, 295680, Note_on_c, 0, 55, 100
9, 295934, Note_on_c, 0, 43, 0
9, 296064, Note_on_c, 0, 43, 100
9, 296255, Note_on_c, 0, 55, 0
9, 296318, Note_on_c, 0, 43, 0
9, 296448, Note_on_c, 0, 43, 100
9, 296448, Note_on_c, 0, 55, 100
9, 296566, Note_on_c, 0, 43, 0
9, 296702, Note_on_c, 0, 55, 0
9, 296832, Note_on_c, 0, 55, 100
9, 297086, Note_on_c, 0, 55, 0
9, 297600, Note_on_c, 0, 55, 100
9, 297854, Note_on_c, 0, 55, 0
9, 297984, Note_on_c, 0, 43, 100
9, 297984, Note_on_c, 0, 55, 100
9, 298102, Note_on_c, 0, 55, 0
9, 298174, Note_on_c, 0, 43, 0
9, 298368, Note_on_c, 0, 67, 100
9, 298486, Note_on_c, 0, 67, 0
9, 298624, Note_on_c, 0, 55, 100
9, 298742, Note_on_c, 0, 55, 0
9, 299008, Note_on_c, 0, 55, 100
9, 299126, Note_on_c, 0, 55, 0
9, 299520, Note_on_c, 0, 79, 100
9, 299774, Note_on_c, 0, 79, 0
9, 299776, Note_on_c, 0, 79, 100
9, 299894, Note_on_c, 0, 79, 0
9, 299904, Note_on_c, 0, 67, 100
9, 300158, Note_on_c, 0, 67, 0
9, 300160, Note_on_c, 0, 55, 100
9, 300278, Note_on_c, 0, 55, 0
9, 301056, Note_on_c, 0, 67, 100
9, 301174, Note_on_c, 0, 67, 0
9, 301312, Note_on_c, 0, 67, 100
9, 301430, Note_on_c, 0, 67, 0
9, 301440, Note_on_c, 0, 79, 100
9, 301558, Note_on_c, 0, 79, 0
9, 301568, Note_on_c, 0, 67, 100
9, 301686, Note_on_c, 0, 67, 0
9, 301696, Note_on_c, 0, 79, 100
9, 301814, Note_on_c, 0, 79, 0
9, 302080, Note_on_c, 0, 79, 100
9, 302198, Note_on_c, 0, 79, 0
9, 302464, Note_on_c, 0, 79, 100
9, 302582, Note_on_c, 0, 79, 0
9, 302848, Note_on_c, 0, 67, 100
9, 302966, Note_on_c, 0, 67, 0
9, 303232, Note_on_c, 0, 79, 100
9, 303350, Note_on_c, 0, 79, 0
9, 303616, Note_on_c, 0, 67, 100
9, 303734, Note_on_c, 0, 67, 0
9, 304000, Note_on_c, 0, 67, 100
9, 304118, Note_on_c, 0, 67, 0
9, 304896, Note_on_c, 0, 67, 100
9, 305014, Note_on_c, 0, 67, 0
9, 305024, Note_on_c, 0, 55, 100
9, 305142, Note_on_c, 0, 55, 0
9, 305536, Note_on_c, 0, 43, 100
9, 305536, Note_on_c, 0, 55, 100
9, 305654, Note_on_c, 0, 55, 0
9, 305654, Note_on_c, 0, 43, 0
9, 305792, Note_on_c, 0, 43, 100
9, 305910, Note_on_c, 0, 43, 0
9, 306176, Note_on_c, 0, 43, 100
9, 306294, Note_on_c, 0, 43, 0
9, 306432, Note_on_c, 0, 55, 100
9, 306432, Note_on_c, 0, 67, 100
9, 306686, Note_on_c, 0, 55, 0
9, 306816, Note_on_c, 0, 55, 100
9, 307070, Note_on_c, 0, 55, 0
9, 307070, Note_on_c, 0, 67, 0
9, 307072, Note_on_c, 0, 55, 100
9, 307190, Note_on_c, 0, 55, 0
9, 307200, Note_on_c, 0, 55, 100
9, 307454, Note_on_c, 0, 55, 0
9, 307456, Note_on_c, 0, 55, 100
9, 307574, Note_on_c, 0, 55, 0
9, 308736, Note_on_c, 0, 67, 100
9, 308864, Note_on_c, 0, 43, 100
9, 308982, Note_on_c, 0, 43, 0
9, 308990, Note_on_c, 0, 67, 0
9, 309120, Note_on_c, 0, 67, 100
9, 309374, Note_on_c, 0, 67, 0
9, 309504, Note_on_c, 0, 67, 100
9, 309632, Note_on_c, 0, 55, 100
9, 309750, Note_on_c, 0, 55, 0
9, 309758, Note_on_c, 0, 67, 0
9, 309888, Note_on_c, 0, 43, 100
9, 309888, Note_on_c, 0, 67, 100
9, 310142, Note_on_c, 0, 67, 0
9, 310142, Note_on_c, 0, 43, 0
9, 310272, Note_on_c, 0, 43, 100
9, 310272, Note_on_c, 0, 67, 100
9, 310390, Note_on_c, 0, 67, 0
9, 310400, Note_on_c, 0, 67, 100
9, 310518, Note_on_c, 0, 67, 0
9, 310552, Note_on_c, 0, 43, 0
9, 311040, Note_on_c, 0, 55, 100
9, 311158, Note_on_c, 0, 55, 0
9, 311168, Note_on_c, 0, 67, 100
9, 311286, Note_on_c, 0, 67, 0
9, 311424, Note_on_c, 0, 55, 100
9, 311542, Note_on_c, 0, 55, 0
9, 311808, Note_on_c, 0, 55, 100
9, 311926, Note_on_c, 0, 55, 0
9, 311936, Note_on_c, 0, 67, 100
9, 312054, Note_on_c, 0, 67, 0
9, 312192, Note_on_c, 0, 55, 100
9, 312310, Note_on_c, 0, 55, 0
9, 312576, Note_on_c, 0, 55, 100
9, 312704, Note_on_c, 0, 67, 100
9, 312822, Note_on_c, 0, 67, 0
9, 312830, Note_on_c, 0, 55, 0
9, 313344, Note_on_c, 0, 43, 100
9, 313344, Note_on_c, 0, 55, 100
9, 313344, Note_on_c, 0, 67, 100
9, 313598, Note_on_c, 0, 67, 0
9, 313600, Note_on_c, 0, 79, 100
9, 313718, Note_on_c, 0, 79, 0
9, 313824, Note_on_c, 0, 55, 0
9, 313824, Note_on_c, 0, 43, 0
9, 313984, Note_on_c, 0, 79, 100
9, 314100, Note_on_c, 0, 79, 0
9, 315136, Note_on_c, 0, 67, 100
9, 315254, Note_on_c, 0, 67, 0
9, 315520, Note_on_c, 0, 67, 100
9, 315636, Note_on_c, 0, 67, 0
9, 316672, Note_on_c, 0, 55, 100
9, 316790, Note_on_c, 0, 55, 0
9, 317056, Note_on_c, 0, 55, 100
9, 317172, Note_on_c, 0, 55, 0
9, 318208, Note_on_c, 0, 43, 100
9, 318334, Note_on_c, 0, 43, 0
9, 318592, Note_on_c, 0, 43, 100
9, 318708, Note_on_c, 0, 43, 0
9, 319744, Note_on_c, 0, 43, 100
9, 319870, Note_on_c, 0, 43, 0
9, 320128, Note_on_c, 0, 55, 100
9, 320244, Note_on_c, 0, 55, 0
9, 320896, Note_on_c, 0, 55, 100
9, 321006, Note_on_c, 0, 55, 0
9, 322048, Note_on_c, 0, 43, 100
9, 322174, Note_on_c, 0, 43, 0
9, 322816, Note_on_c, 0, 43, 100
9, 322921, Note_on_c, 0, 43, 0
9, 323352, Note_on_c, 0, 55, 100
9, 323352, Note_on_c, 0, 43, 100
9, 323512, Note_on_c, 0, 67, 100
9, 324496, Note_on_c, 0, 67, 0
9, 324502, Note_on_c, 0, 55, 0
9, 324504, Note_on_c, 0, 67, 100
9, 324632, Note_on_c, 0, 67, 0
9, 324696, Note_on_c, 0, 67, 100
9, 324760, Note_on_c, 0, 67, 0
9, 324824, Note_on_c, 0, 67, 100
9, 324888, Note_on_c, 0, 67, 0
9, 324888, Note_on_c, 0, 67, 100
9, 324952, Note_on_c, 0, 67, 0
9, 324984, Note_on_c, 0, 67, 100
9, 325048, Note_on_c, 0, 67, 0
9, 325080, Note_on_c, 0, 67, 100
9, 325144, Note_on_c, 0, 67, 0
9, 325176, Note_on_c, 0, 67, 100
9, 325240, Note_on_c, 0, 67, 0
9, 325912, Note_on_c, 0, 67, 100
9, 326202, Note_on_c, 0, 43, 0
9, 326212, Note_on_c, 0, 67, 0
9, 326232, Note_on_c, 0, 67, 100
9, 326232, Note_on_c, 0, 43, 100
9, 326232, Note_on_c, 0, 55, 100
9, 328532, Note_on_c, 0, 55, 0
9, 328532, Note_on_c, 0, 43, 0
9, 328532, Note_on_c, 0, 67, 0
9, 328532, End_track
10, 0, Start_track
10, 0, Title_t, "Harpsichord"
10, 0, Program_c, 0, 6
10, 0, Control_c, 0, 7, 100
10, 0, Control_c, 0, 10, 64
10, 0, Pitch_bend_c, 0, 7870
10, 5550, Note_on_c, 0, 56, 100
10, 5644, Note_on_c, 0, 56, 0
10, 19200, Note_on_c, 0, 56, 100
10, 20732, Note_on_c, 0, 56, 0
10, 56448, Note_on_c, 0, 80, 100
10, 56638, Note_on_c, 0, 80, 0
10, 74112, Note_on_c, 0, 80, 100
10, 74302, Note_on_c, 0, 80, 0
10, 122672, Note_on_c, 0, 68, 100
10, 122766, Note_on_c, 0, 68, 0
10, 124448, Note_on_c, 0, 68, 100
10, 124494, Note_on_c, 0, 68, 0
10, 124544, Note_on_c, 0, 68, 100
10, 124590, Note_on_c, 0, 68, 0
10, 124688, Note_on_c, 0, 68, 100
10, 124782, Note_on_c, 0, 68, 0
10, 125072, Note_on_c, 0, 56, 100
10, 125454, Note_on_c, 0, 56, 0
10, 227328, Note_on_c, 0, 68, 100
10, 227446, Note_on_c, 0, 68, 0
10, 227584, Note_on_c, 0, 68, 100
10, 227702, Note_on_c, 0, 68, 0
10, 229248, Note_on_c, 0, 68, 100
10, 229502, Note_on_c, 0, 68, 0
10, 229504, Note_on_c, 0, 68, 100
10, 229622, Note_on_c, 0, 68, 0
10, 229632, Note_on_c, 0, 68, 100
10, 230270, Note_on_c, 0, 68, 0
10, 234624, Note_on_c, 0, 68, 100
10, 234742, Note_on_c, 0, 68, 0
10, 234880, Note_on_c, 0, 68, 100
10, 234998, Note_on_c, 0, 68, 0
10, 235136, Note_on_c, 0, 68, 100
10, 235254, Note_on_c, 0, 68, 0
10, 236416, Note_on_c, 0, 56, 100
10, 236534, Note_on_c, 0, 56, 0
10, 237184, Note_on_c, 0, 56, 100
10, 237302, Note_on_c, 0, 56, 0
10, 237952, Note_on_c, 0, 68, 100
10, 238070, Note_on_c, 0, 68, 0
10, 238720, Note_on_c, 0, 68, 100
10, 238838, Note_on_c, 0, 68, 0
10, 239616, Note_on_c, 0, 56, 100
10, 239734, Note_on_c, 0, 56, 0
10, 239872, Note_on_c, 0, 56, 100
10, 239990, Note_on_c, 0, 56, 0
10, 241536, Note_on_c, 0, 56, 100
10, 241790, Note_on_c, 0, 56, 0
10, 241792, Note_on_c, 0, 56, 100
10, 241910, Note_on_c, 0, 56, 0
10, 241920, Note_on_c, 0, 56, 100
10, 242495, Note_on_c, 0, 56, 0
10, 244992, Note_on_c, 0, 80, 100
10, 245110, Note_on_c, 0, 80, 0
10, 245120, Note_on_c, 0, 68, 100
10, 245238, Note_on_c, 0, 68, 0
10, 245248, Note_on_c, 0, 80, 100
10, 245248, Note_on_c, 0, 68, 100
10, 245366, Note_on_c, 0, 68, 0
10, 245366, Note_on_c, 0, 80, 0
10, 246528, Note_on_c, 0, 56, 100
10, 246646, Note_on_c, 0, 56, 0
10, 246784, Note_on_c, 0, 56, 100
10, 246902, Note_on_c, 0, 56, 0
10, 247424, Note_on_c, 0, 56, 100
10, 247542, Note_on_c, 0, 56, 0
10, 247680, Note_on_c, 0, 68, 100
10, 247934, Note_on_c, 0, 68, 0
10, 247936, Note_on_c, 0, 68, 100
10, 248054, Note_on_c, 0, 68, 0
10, 248064, Note_on_c, 0, 56, 100
10, 248182, Note_on_c, 0, 56, 0
10, 248320, Note_on_c, 0, 56, 100
10, 248438, Note_on_c, 0, 56, 0
10, 249600, Note_on_c, 0, 68, 100
10, 250175, Note_on_c, 0, 68, 0
10, 250240, Note_on_c, 0, 68, 100
10, 250358, Note_on_c, 0, 68, 0
10, 250624, Note_on_c, 0, 44, 100
10, 250742, Note_on_c, 0, 44, 0
10, 250880, Note_on_c, 0, 44, 100
10, 250998, Note_on_c, 0, 44, 0
10, 251008, Note_on_c, 0, 68, 100
10, 251126, Note_on_c, 0, 68, 0
10, 251392, Note_on_c, 0, 44, 100
10, 251510, Note_on_c, 0, 44, 0
10, 251648, Note_on_c, 0, 44, 100
10, 251766, Note_on_c, 0, 44, 0
10, 251776, Note_on_c, 0, 68, 100
10, 251894, Note_on_c, 0, 68, 0
10, 252160, Note_on_c, 0, 68, 100
10, 252278, Note_on_c, 0, 68, 0
10, 252416, Note_on_c, 0, 68, 100
10, 252534, Note_on_c, 0, 68, 0
10, 253440, Note_on_c, 0, 44, 100
10, 253440, Note_on_c, 0, 68, 100
10, 253558, Note_on_c, 0, 68, 0
10, 253824, Note_on_c, 0, 68, 100
10, 253942, Note_on_c, 0, 68, 0
10, 254015, Note_on_c, 0, 44, 0
10, 254080, Note_on_c, 0, 56, 100
10, 254198, Note_on_c, 0, 56, 0
10, 254848, Note_on_c, 0, 56, 100
10, 254966, Note_on_c, 0, 56, 0
10, 255232, Note_on_c, 0, 68, 100
10, 255350, Note_on_c, 0, 68, 0
10, 255488, Note_on_c, 0, 68, 100
10, 255606, Note_on_c, 0, 68, 0
10, 255744, Note_on_c, 0, 56, 100
10, 255744, Note_on_c, 0, 68, 100
10, 255862, Note_on_c, 0, 68, 0
10, 255872, Note_on_c, 0, 68, 100
10, 255990, Note_on_c, 0, 68, 0
10, 255998, Note_on_c, 0, 56, 0
10, 256000, Note_on_c, 0, 44, 100
10, 256118, Note_on_c, 0, 44, 0
10, 256384, Note_on_c, 0, 44, 100
10, 256384, Note_on_c, 0, 68, 100
10, 256502, Note_on_c, 0, 68, 0
10, 256502, Note_on_c, 0, 44, 0
10, 256896, Note_on_c, 0, 56, 100
10, 257150, Note_on_c, 0, 56, 0
10, 257280, Note_on_c, 0, 68, 100
10, 257534, Note_on_c, 0, 68, 0
10, 257664, Note_on_c, 0, 56, 100
10, 257792, Note_on_c, 0, 68, 100
10, 257910, Note_on_c, 0, 68, 0
10, 257918, Note_on_c, 0, 56, 0
10, 257920, Note_on_c, 0, 44, 100
10, 258038, Note_on_c, 0, 44, 0
10, 258304, Note_on_c, 0, 68, 100
10, 258422, Note_on_c, 0, 68, 0
10, 258560, Note_on_c, 0, 68, 100
10, 258678, Note_on_c, 0, 68, 0
10, 259456, Note_on_c, 0, 68, 100
10, 259574, Note_on_c, 0, 68, 0
10, 259584, Note_on_c, 0, 56, 100
10, 259838, Note_on_c, 0, 56, 0
10, 259840, Note_on_c, 0, 56, 100
10, 259958, Note_on_c, 0, 56, 0
10, 261120, Note_on_c, 0, 56, 100
10, 261238, Note_on_c, 0, 56, 0
10, 261376, Note_on_c, 0, 56, 100
10, 261494, Note_on_c, 0, 56, 0
10, 261504, Note_on_c, 0, 68, 100
10, 261622, Note_on_c, 0, 68, 0
10, 261632, Note_on_c, 0, 56, 100
10, 261750, Note_on_c, 0, 56, 0
10, 261760, Note_on_c, 0, 68, 100
10, 261878, Note_on_c, 0, 68, 0
10, 262144, Note_on_c, 0, 56, 100
10, 262262, Note_on_c, 0, 56, 0
10, 262528, Note_on_c, 0, 68, 100
10, 262646, Note_on_c, 0, 68, 0
10, 262912, Note_on_c, 0, 56, 100
10, 263030, Note_on_c, 0, 56, 0
10, 263296, Note_on_c, 0, 68, 100
10, 263414, Note_on_c, 0, 68, 0
10, 263680, Note_on_c, 0, 56, 100
10, 263798, Note_on_c, 0, 56, 0
10, 264064, Note_on_c, 0, 68, 100
10, 264182, Note_on_c, 0, 68, 0
10, 264320, Note_on_c, 0, 68, 100
10, 264438, Note_on_c, 0, 68, 0
10, 264448, Note_on_c, 0, 56, 100
10, 264566, Note_on_c, 0, 56, 0
10, 264832, Note_on_c, 0, 56, 100
10, 264950, Note_on_c, 0, 56, 0
10, 265088, Note_on_c, 0, 56, 100
10, 265206, Note_on_c, 0, 56, 0
10, 266112, Note_on_c, 0, 56, 100
10, 266230, Note_on_c, 0, 56, 0
10, 266496, Note_on_c, 0, 68, 100
10, 266750, Note_on_c, 0, 68, 0
10, 266752, Note_on_c, 0, 68, 100
10, 266870, Note_on_c, 0, 68, 0
10, 266880, Note_on_c, 0, 68, 100
10, 267134, Note_on_c, 0, 68, 0
10, 267136, Note_on_c, 0, 68, 100
10, 267254, Note_on_c, 0, 68, 0
10, 267904, Note_on_c, 0, 68, 100
10, 268022, Note_on_c, 0, 68, 0
10, 268544, Note_on_c, 0, 68, 100
10, 268662, Note_on_c, 0, 68, 0
10, 268800, Note_on_c, 0, 68, 100
10, 269054, Note_on_c, 0, 68, 0
10, 269056, Note_on_c, 0, 68, 100
10, 269174, Note_on_c, 0, 68, 0
10, 270336, Note_on_c, 0, 44, 100
10, 270336, Note_on_c, 0, 68, 100
10, 270590, Note_on_c, 0, 68, 0
10, 270590, Note_on_c, 0, 44, 0
10, 270592, Note_on_c, 0, 44, 100
10, 270592, Note_on_c, 0, 56, 100
10, 270710, Note_on_c, 0, 56, 0
10, 270710, Note_on_c, 0, 44, 0
10, 271872, Note_on_c, 0, 68, 100
10, 271990, Note_on_c, 0, 68, 0
10, 272256, Note_on_c, 0, 68, 100
10, 272374, Note_on_c, 0, 68, 0
10, 272640, Note_on_c, 0, 68, 100
10, 272758, Note_on_c, 0, 68, 0
10, 273024, Note_on_c, 0, 68, 100
10, 273142, Note_on_c, 0, 68, 0
10, 273408, Note_on_c, 0, 44, 100
10, 273526, Note_on_c, 0, 44, 0
10, 273792, Note_on_c, 0, 44, 100
10, 273792, Note_on_c, 0, 56, 100
10, 273910, Note_on_c, 0, 44, 0
10, 273912, Note_on_c, 0, 56, 0
10, 274176, Note_on_c, 0, 44, 100
10, 274294, Note_on_c, 0, 44, 0
10, 274304, Note_on_c, 0, 56, 100
10, 274422, Note_on_c, 0, 56, 0
10, 274944, Note_on_c, 0, 56, 100
10, 275062, Note_on_c, 0, 56, 0
10, 275712, Note_on_c, 0, 68, 100
10, 275830, Note_on_c, 0, 68, 0
10, 276352, Note_on_c, 0, 56, 100
10, 276470, Note_on_c, 0, 56, 0
10, 276736, Note_on_c, 0, 68, 100
10, 276854, Note_on_c, 0, 68, 0
10, 277248, Note_on_c, 0, 56, 100
10, 277502, Note_on_c, 0, 56, 0
10, 279936, Note_on_c, 0, 56, 100
10, 280054, Note_on_c, 0, 56, 0
10, 280192, Note_on_c, 0, 56, 100
10, 280310, Note_on_c, 0, 56, 0
10, 280448, Note_on_c, 0, 56, 100
10, 280566, Note_on_c, 0, 56, 0
10, 281728, Note_on_c, 0, 56, 100
10, 281846, Note_on_c, 0, 56, 0
10, 282496, Note_on_c, 0, 56, 100
10, 282614, Note_on_c, 0, 56, 0
10, 283264, Note_on_c, 0, 68, 100
10, 283382, Note_on_c, 0, 68, 0
10, 284032, Note_on_c, 0, 68, 100
10, 284150, Note_on_c, 0, 68, 0
10, 284544, Note_on_c, 0, 44, 100
10, 284798, Note_on_c, 0, 44, 0
10, 284928, Note_on_c, 0, 68, 100
10, 285046, Note_on_c, 0, 68, 0
10, 286848, Note_on_c, 0, 68, 100
10, 286966, Note_on_c, 0, 68, 0
10, 287104, Note_on_c, 0, 68, 100
10, 287222, Note_on_c, 0, 68, 0
10, 287360, Note_on_c, 0, 68, 100
10, 287478, Note_on_c, 0, 68, 0
10, 287478, End_track
11, 0, Start_track
11, 0, Title_t, "Harpsichord"
11, 0, Program_c, 0, 6
11, 0, Control_c, 0, 7, 100
11, 0, Control_c, 0, 10, 64
11, 0, Pitch_bend_c, 0, 7712
11, 320, Note_on_c, 0, 81, 100
11, 382, Note_on_c, 0, 81, 0
11, 512, Note_on_c, 0, 81, 100
11, 574, Note_on_c, 0, 81, 0
11, 768, Note_on_c, 0, 69, 100
11, 830, Note_on_c, 0, 69, 0
11, 1280, Note_on_c, 0, 69, 100
11, 1342, Note_on_c, 0, 69, 0
11, 1472, Note_on_c, 0, 69, 100
11, 1534, Note_on_c, 0, 69, 0
11, 1728, Note_on_c, 0, 57, 100
11, 1790, Note_on_c, 0, 57, 0
11, 2176, Note_on_c, 0, 57, 100
11, 2238, Note_on_c, 0, 57, 0
11, 2368, Note_on_c, 0, 57, 100
11, 2430, Note_on_c, 0, 57, 0
11, 2624, Note_on_c, 0, 45, 100
11, 2686, Note_on_c, 0, 45, 0
11, 3262, Note_on_c, 0, 45, 100
11, 3356, Note_on_c, 0, 45, 0
11, 3550, Note_on_c, 0, 45, 100
11, 3644, Note_on_c, 0, 45, 0
11, 4462, Note_on_c, 0, 57, 100
11, 4556, Note_on_c, 0, 57, 0
11, 4750, Note_on_c, 0, 57, 100
11, 4844, Note_on_c, 0, 57, 0
11, 6238, Note_on_c, 0, 57, 100
11, 6332, Note_on_c, 0, 57, 0
11, 6526, Note_on_c, 0, 57, 100
11, 6620, Note_on_c, 0, 57, 0
11, 8690, Note_on_c, 0, 45, 100
11, 8847, Note_on_c, 0, 45, 0
11, 9984, Note_on_c, 0, 57, 100
11, 11134, Note_on_c, 0, 57, 0
11, 11136, Note_on_c, 0, 57, 100
11, 11518, Note_on_c, 0, 57, 0
11, 13632, Note_on_c, 0, 69, 100
11, 13726, Note_on_c, 0, 69, 0
11, 16128, Note_on_c, 0, 57, 100
11, 17660, Note_on_c, 0, 57, 0
11, 17664, Note_on_c, 0, 57, 100
11, 18046, Note_on_c, 0, 57, 0
11, 18432, Note_on_c, 0, 57, 100
11, 18624, Note_on_c, 0, 69, 100
11, 18814, Note_on_c, 0, 69, 0
11, 19199, Note_on_c, 0, 57, 0
11, 22272, Note_on_c, 0, 69, 100
11, 22320, Note_on_c, 0, 69, 0
11, 22368, Note_on_c, 0, 69, 100
11, 22848, Note_on_c, 0, 69, 0
11, 24000, Note_on_c, 0, 69, 100
11, 24063, Note_on_c, 0, 69, 0
11, 24116, Note_on_c, 0, 69, 100
11, 24179, Note_on_c, 0, 69, 0
11, 24232, Note_on_c, 0, 69, 100
11, 24295, Note_on_c, 0, 69, 0
11, 24348, Note_on_c, 0, 69, 100
11, 24758, Note_on_c, 0, 69, 0
11, 25344, Note_on_c, 0, 57, 100
11, 26111, Note_on_c, 0, 57, 0
11, 26592, Note_on_c, 0, 69, 100
11, 26686, Note_on_c, 0, 69, 0
11, 27264, Note_on_c, 0, 57, 100
11, 27456, Note_on_c, 0, 69, 100
11, 27550, Note_on_c, 0, 69, 0
11, 27646, Note_on_c, 0, 57, 0
11, 29952, Note_on_c, 0, 45, 100
11, 29952, Note_on_c, 0, 57, 100
11, 30719, Note_on_c, 0, 57, 0
11, 30912, Note_on_c, 0, 69, 100
11, 31102, Note_on_c, 0, 69, 0
11, 31296, Note_on_c, 0, 69, 100
11, 31477, Note_on_c, 0, 45, 0
11, 31486, Note_on_c, 0, 69, 0
11, 31680, Note_on_c, 0, 69, 100
11, 31774, Note_on_c, 0, 69, 0
11, 33792, Note_on_c, 0, 57, 100
11, 34559, Note_on_c, 0, 57, 0
11, 34992, Note_on_c, 0, 57, 100
11, 35374, Note_on_c, 0, 57, 0
11, 37392, Note_on_c, 0, 69, 100
11, 37804, Note_on_c, 0, 69, 0
11, 37824, Note_on_c, 0, 57, 100
11, 39354, Note_on_c, 0, 57, 0
11, 41848, Note_on_c, 0, 57, 100
11, 42038, Note_on_c, 0, 57, 0
11, 44928, Note_on_c, 0, 81, 100
11, 45118, Note_on_c, 0, 81, 0
11, 47040, Note_on_c, 0, 81, 100
11, 47134, Note_on_c, 0, 81, 0
11, 47424, Note_on_c, 0, 81, 100
11, 47544, Note_on_c, 0, 81, 0
11, 48000, Note_on_c, 0, 81, 100
11, 48190, Note_on_c, 0, 81, 0
11, 48960, Note_on_c, 0, 81, 100
11, 49054, Note_on_c, 0, 81, 0
11, 49152, Note_on_c, 0, 81, 100
11, 49342, Note_on_c, 0, 81, 0
11, 50304, Note_on_c, 0, 45, 100
11, 50494, Note_on_c, 0, 45, 0
11, 51072, Note_on_c, 0, 45, 100
11, 51262, Note_on_c, 0, 45, 0
11, 52224, Note_on_c, 0, 69, 100
11, 52414, Note_on_c, 0, 69, 0
11, 53376, Note_on_c, 0, 69, 100
11, 53566, Note_on_c, 0, 69, 0
11, 54144, Note_on_c, 0, 69, 100
11, 54334, Note_on_c, 0, 69, 0
11, 55296, Note_on_c, 0, 45, 100
11, 55486, Note_on_c, 0, 45, 0
11, 55872, Note_on_c, 0, 45, 100
11, 56062, Note_on_c, 0, 45, 0
11, 56256, Note_on_c, 0, 45, 100
11, 56350, Note_on_c, 0, 45, 0
11, 57408, Note_on_c, 0, 69, 100
11, 57502, Note_on_c, 0, 69, 0
11, 57600, Note_on_c, 0, 69, 100
11, 57720, Note_on_c, 0, 69, 0
11, 58752, Note_on_c, 0, 57, 100
11, 58942, Note_on_c, 0, 57, 0
11, 58944, Note_on_c, 0, 57, 100
11, 59064, Note_on_c, 0, 57, 0
11, 60480, Note_on_c, 0, 69, 100
11, 60600, Note_on_c, 0, 69, 0
11, 61056, Note_on_c, 0, 69, 100
11, 61176, Note_on_c, 0, 69, 0
11, 61344, Note_on_c, 0, 57, 100
11, 61438, Note_on_c, 0, 57, 0
11, 61632, Note_on_c, 0, 57, 100
11, 61726, Note_on_c, 0, 57, 0
11, 62016, Note_on_c, 0, 81, 100
11, 62112, Note_on_c, 0, 57, 100
11, 62206, Note_on_c, 0, 57, 0
11, 62206, Note_on_c, 0, 81, 0
11, 62208, Note_on_c, 0, 69, 100
11, 62328, Note_on_c, 0, 69, 0
11, 62976, Note_on_c, 0, 81, 100
11, 63166, Note_on_c, 0, 81, 0
11, 63168, Note_on_c, 0, 69, 100
11, 63262, Note_on_c, 0, 69, 0
11, 63744, Note_on_c, 0, 57, 100
11, 63884, Note_on_c, 0, 57, 0
11, 64320, Note_on_c, 0, 57, 100
11, 64416, Note_on_c, 0, 69, 100
11, 64510, Note_on_c, 0, 69, 0
11, 64510, Note_on_c, 0, 57, 0
11, 64704, Note_on_c, 0, 69, 100
11, 64798, Note_on_c, 0, 69, 0
11, 64896, Note_on_c, 0, 69, 100
11, 65086, Note_on_c, 0, 69, 0
11, 65472, Note_on_c, 0, 69, 100
11, 65662, Note_on_c, 0, 69, 0
11, 66048, Note_on_c, 0, 69, 100
11, 66238, Note_on_c, 0, 69, 0
11, 66240, Note_on_c, 0, 69, 100
11, 66430, Note_on_c, 0, 69, 0
11, 66816, Note_on_c, 0, 69, 100
11, 67006, Note_on_c, 0, 69, 0
11, 67200, Note_on_c, 0, 69, 100
11, 67390, Note_on_c, 0, 69, 0
11, 67584, Note_on_c, 0, 57, 100
11, 67774, Note_on_c, 0, 57, 0
11, 67968, Note_on_c, 0, 69, 100
11, 68158, Note_on_c, 0, 69, 0
11, 68544, Note_on_c, 0, 69, 100
11, 68734, Note_on_c, 0, 69, 0
11, 69120, Note_on_c, 0, 69, 100
11, 69310, Note_on_c, 0, 69, 0
11, 69312, Note_on_c, 0, 69, 100
11, 69502, Note_on_c, 0, 69, 0
11, 69888, Note_on_c, 0, 69, 100
11, 70078, Note_on_c, 0, 69, 0
11, 70272, Note_on_c, 0, 69, 100
11, 70462, Note_on_c, 0, 69, 0
11, 70656, Note_on_c, 0, 57, 100
11, 70846, Note_on_c, 0, 57, 0
11, 71232, Note_on_c, 0, 69, 100
11, 71326, Note_on_c, 0, 69, 0
11, 72000, Note_on_c, 0, 69, 100
11, 72094, Note_on_c, 0, 69, 0
11, 72768, Note_on_c, 0, 69, 100
11, 72862, Note_on_c, 0, 69, 0
11, 73632, Note_on_c, 0, 69, 100
11, 73726, Note_on_c, 0, 69, 0
11, 76416, Note_on_c, 0, 69, 100
11, 76606, Note_on_c, 0, 69, 0
11, 76608, Note_on_c, 0, 69, 100
11, 76798, Note_on_c, 0, 69, 0
11, 77952, Note_on_c, 0, 57, 100
11, 78142, Note_on_c, 0, 57, 0
11, 78240, Note_on_c, 0, 69, 100
11, 78334, Note_on_c, 0, 69, 0
11, 78720, Note_on_c, 0, 45, 100
11, 78910, Note_on_c, 0, 45, 0
11, 78912, Note_on_c, 0, 69, 100
11, 79102, Note_on_c, 0, 69, 0
11, 79680, Note_on_c, 0, 69, 100
11, 79870, Note_on_c, 0, 69, 0
11, 81024, Note_on_c, 0, 57, 100
11, 81214, Note_on_c, 0, 57, 0
11, 81312, Note_on_c, 0, 69, 100
11, 81406, Note_on_c, 0, 69, 0
11, 81792, Note_on_c, 0, 45, 100
11, 81982, Note_on_c, 0, 45, 0
11, 81984, Note_on_c, 0, 69, 100
11, 82174, Note_on_c, 0, 69, 0
11, 82752, Note_on_c, 0, 69, 100
11, 82942, Note_on_c, 0, 69, 0
11, 83328, Note_on_c, 0, 57, 100
11, 83478, Note_on_c, 0, 57, 0
11, 84288, Note_on_c, 0, 69, 100
11, 84458, Note_on_c, 0, 69, 0
11, 85632, Note_on_c, 0, 69, 100
11, 85822, Note_on_c, 0, 69, 0
11, 85824, Note_on_c, 0, 69, 100
11, 85954, Note_on_c, 0, 69, 0
11, 86400, Note_on_c, 0, 69, 100
11, 86590, Note_on_c, 0, 69, 0
11, 86592, Note_on_c, 0, 69, 100
11, 86782, Note_on_c, 0, 69, 0
11, 87360, Note_on_c, 0, 69, 100
11, 87360, Note_on_c, 0, 57, 100
11, 87540, Note_on_c, 0, 57, 0
11, 87550, Note_on_c, 0, 69, 0
11, 88128, Note_on_c, 0, 69, 100
11, 88128, Note_on_c, 0, 57, 100
11, 88222, Note_on_c, 0, 69, 0
11, 88308, Note_on_c, 0, 57, 0
11, 88896, Note_on_c, 0, 69, 100
11, 88990, Note_on_c, 0, 69, 0
11, 89688, Note_on_c, 0, 57, 100
11, 89784, Note_on_c, 0, 69, 100
11, 89878, Note_on_c, 0, 69, 0
11, 89878, Note_on_c, 0, 57, 0
11, 89880, Note_on_c, 0, 69, 100
11, 90070, Note_on_c, 0, 69, 0
11, 90072, Note_on_c, 0, 81, 100
11, 90168, Note_on_c, 0, 57, 100
11, 90262, Note_on_c, 0, 57, 0
11, 90262, Note_on_c, 0, 81, 0
11, 90264, Note_on_c, 0, 69, 100
11, 90424, Note_on_c, 0, 69, 0
11, 90456, Note_on_c, 0, 69, 100
11, 90646, Note_on_c, 0, 69, 0
11, 90856, Note_on_c, 0, 57, 100
11, 90950, Note_on_c, 0, 57, 0
11, 91440, Note_on_c, 0, 69, 100
11, 91440, Note_on_c, 0, 57, 100
11, 91560, Note_on_c, 0, 69, 0
11, 91630, Note_on_c, 0, 57, 0
11, 91632, Note_on_c, 0, 69, 100
11, 91632, Note_on_c, 0, 81, 100
11, 91752, Note_on_c, 0, 69, 0
11, 91822, Note_on_c, 0, 81, 0
11, 92016, Note_on_c, 0, 57, 100
11, 92110, Note_on_c, 0, 57, 0
11, 92208, Note_on_c, 0, 69, 100
11, 92208, Note_on_c, 0, 57, 100
11, 92398, Note_on_c, 0, 57, 0
11, 92398, Note_on_c, 0, 69, 0
11, 92496, Note_on_c, 0, 69, 100
11, 92590, Note_on_c, 0, 69, 0
11, 92784, Note_on_c, 0, 69, 100
11, 92784, Note_on_c, 0, 57, 100
11, 92878, Note_on_c, 0, 57, 0
11, 92974, Note_on_c, 0, 69, 0
11, 92976, Note_on_c, 0, 69, 100
11, 92976, Note_on_c, 0, 57, 100
11, 93166, Note_on_c, 0, 57, 0
11, 93166, Note_on_c, 0, 69, 0
11, 93264, Note_on_c, 0, 57, 100
11, 93358, Note_on_c, 0, 57, 0
11, 93552, Note_on_c, 0, 69, 100
11, 93552, Note_on_c, 0, 57, 100
11, 93742, Note_on_c, 0, 57, 0
11, 93742, Note_on_c, 0, 69, 0
11, 93744, Note_on_c, 0, 69, 100
11, 93744, Note_on_c, 0, 45, 100
11, 93934, Note_on_c, 0, 45, 0
11, 93934, Note_on_c, 0, 69, 0
11, 94512, Note_on_c, 0, 69, 100
11, 94512, Note_on_c, 0, 57, 100
11, 94702, Note_on_c, 0, 57, 0
11, 94702, Note_on_c, 0, 69, 0
11, 94704, Note_on_c, 0, 57, 100
11, 94894, Note_on_c, 0, 57, 0
11, 94896, Note_on_c, 0, 57, 100
11, 95086, Note_on_c, 0, 57, 0
11, 95088, Note_on_c, 0, 45, 100
11, 95278, Note_on_c, 0, 45, 0
11, 95496, Note_on_c, 0, 69, 100
11, 95616, Note_on_c, 0, 69, 0
11, 95688, Note_on_c, 0, 81, 100
11, 95688, Note_on_c, 0, 69, 100
11, 95808, Note_on_c, 0, 69, 0
11, 95878, Note_on_c, 0, 81, 0
11, 95880, Note_on_c, 0, 69, 100
11, 95976, Note_on_c, 0, 57, 100
11, 96070, Note_on_c, 0, 57, 0
11, 96070, Note_on_c, 0, 69, 0
11, 96264, Note_on_c, 0, 57, 100
11, 96358, Note_on_c, 0, 57, 0
11, 96648, Note_on_c, 0, 69, 100
11, 96648, Note_on_c, 0, 81, 100
11, 96744, Note_on_c, 0, 57, 100
11, 96768, Note_on_c, 0, 69, 0
11, 96838, Note_on_c, 0, 57, 0
11, 96838, Note_on_c, 0, 81, 0
11, 97032, Note_on_c, 0, 57, 100
11, 97126, Note_on_c, 0, 57, 0
11, 97416, Note_on_c, 0, 81, 100
11, 97416, Note_on_c, 0, 69, 100
11, 97512, Note_on_c, 0, 57, 100
11, 97606, Note_on_c, 0, 57, 0
11, 97606, Note_on_c, 0, 69, 0
11, 97606, Note_on_c, 0, 81, 0
11, 97800, Note_on_c, 0, 57, 100
11, 97894, Note_on_c, 0, 57, 0
11, 97992, Note_on_c, 0, 57, 100
11, 97992, Note_on_c, 0, 69, 100
11, 98182, Note_on_c, 0, 69, 0
11, 98182, Note_on_c, 0, 57, 0
11, 98184, Note_on_c, 0, 45, 100
11, 98374, Note_on_c, 0, 45, 0
11, 98568, Note_on_c, 0, 69, 100
11, 98758, Note_on_c, 0, 69, 0
11, 98952, Note_on_c, 0, 69, 100
11, 99046, Note_on_c, 0, 69, 0
11, 99144, Note_on_c, 0, 69, 100
11, 99334, Note_on_c, 0, 69, 0
11, 99720, Note_on_c, 0, 57, 100
11, 99910, Note_on_c, 0, 57, 0
11, 101256, Note_on_c, 0, 69, 100
11, 101352, Note_on_c, 0, 45, 100
11, 101446, Note_on_c, 0, 45, 0
11, 101446, Note_on_c, 0, 69, 0
11, 101640, Note_on_c, 0, 45, 100
11, 101734, Note_on_c, 0, 45, 0
11, 101832, Note_on_c, 0, 45, 100
11, 102022, Note_on_c, 0, 45, 0
11, 102024, Note_on_c, 0, 57, 100
11, 102214, Note_on_c, 0, 57, 0
11, 102792, Note_on_c, 0, 57, 100
11, 102982, Note_on_c, 0, 57, 0
11, 103176, Note_on_c, 0, 57, 100
11, 103270, Note_on_c, 0, 57, 0
11, 103368, Note_on_c, 0, 57, 100
11, 103368, Note_on_c, 0, 69, 100
11, 103558, Note_on_c, 0, 69, 0
11, 103558, Note_on_c, 0, 57, 0
11, 103656, Note_on_c, 0, 57, 100
11, 103750, Note_on_c, 0, 57, 0
11, 103944, Note_on_c, 0, 57, 100
11, 104039, Note_on_c, 0, 57, 0
11, 104136, Note_on_c, 0, 69, 100
11, 104326, Note_on_c, 0, 69, 0
11, 104424, Note_on_c, 0, 57, 100
11, 104518, Note_on_c, 0, 57, 0
11, 104712, Note_on_c, 0, 57, 100
11, 104806, Note_on_c, 0, 57, 0
11, 104904, Note_on_c, 0, 69, 100
11, 105094, Note_on_c, 0, 69, 0
11, 105096, Note_on_c, 0, 69, 100
11, 105226, Note_on_c, 0, 69, 0
11, 105672, Note_on_c, 0, 57, 100
11, 105862, Note_on_c, 0, 57, 0
11, 105864, Note_on_c, 0, 69, 100
11, 106054, Note_on_c, 0, 69, 0
11, 106464, Note_on_c, 0, 57, 100
11, 106654, Note_on_c, 0, 57, 0
11, 106656, Note_on_c, 0, 57, 100
11, 106776, Note_on_c, 0, 57, 0
11, 107424, Note_on_c, 0, 69, 100
11, 107544, Note_on_c, 0, 69, 0
11, 108192, Note_on_c, 0, 69, 100
11, 108312, Note_on_c, 0, 69, 0
11, 108960, Note_on_c, 0, 69, 100
11, 109080, Note_on_c, 0, 69, 0
11, 109536, Note_on_c, 0, 81, 100
11, 109726, Note_on_c, 0, 81, 0
11, 109728, Note_on_c, 0, 69, 100
11, 109918, Note_on_c, 0, 69, 0
11, 110496, Note_on_c, 0, 57, 100
11, 110686, Note_on_c, 0, 57, 0
11, 111264, Note_on_c, 0, 57, 100
11, 111454, Note_on_c, 0, 57, 0
11, 111840, Note_on_c, 0, 57, 100
11, 112030, Note_on_c, 0, 57, 0
11, 112416, Note_on_c, 0, 57, 100
11, 112606, Note_on_c, 0, 57, 0
11, 113376, Note_on_c, 0, 69, 100
11, 113566, Note_on_c, 0, 69, 0
11, 113664, Note_on_c, 0, 69, 100
11, 113758, Note_on_c, 0, 69, 0
11, 114144, Note_on_c, 0, 57, 100
11, 114334, Note_on_c, 0, 57, 0
11, 114336, Note_on_c, 0, 69, 100
11, 114526, Note_on_c, 0, 69, 0
11, 115104, Note_on_c, 0, 69, 100
11, 115198, Note_on_c, 0, 69, 0
11, 116448, Note_on_c, 0, 57, 100
11, 116638, Note_on_c, 0, 57, 0
11, 116736, Note_on_c, 0, 57, 100
11, 116830, Note_on_c, 0, 57, 0
11, 117216, Note_on_c, 0, 45, 100
11, 117406, Note_on_c, 0, 45, 0
11, 117408, Note_on_c, 0, 57, 100
11, 117598, Note_on_c, 0, 57, 0
11, 117863, Note_on_c, 0, 69, 100
11, 117934, Note_on_c, 0, 69, 0
11, 118200, Note_on_c, 0, 57, 100
11, 118390, Note_on_c, 0, 57, 0
11, 118496, Note_on_c, 0, 57, 100
11, 119071, Note_on_c, 0, 57, 0
11, 119168, Note_on_c, 0, 69, 100
11, 119262, Note_on_c, 0, 69, 0
11, 119264, Note_on_c, 0, 69, 100
11, 119648, Note_on_c, 0, 57, 100
11, 119839, Note_on_c, 0, 69, 0
11, 120028, Note_on_c, 0, 57, 0
11, 120032, Note_on_c, 0, 57, 100
11, 120412, Note_on_c, 0, 57, 0
11, 120416, Note_on_c, 0, 57, 100
11, 120696, Note_on_c, 0, 57, 0
11, 120704, Note_on_c, 0, 57, 100
11, 120798, Note_on_c, 0, 57, 0
11, 120972, Note_on_c, 0, 69, 100
11, 121066, Note_on_c, 0, 69, 0
11, 125456, Note_on_c, 0, 57, 100
11, 126222, Note_on_c, 0, 57, 0
11, 126800, Note_on_c, 0, 45, 100
11, 126894, Note_on_c, 0, 45, 0
11, 127760, Note_on_c, 0, 69, 100
11, 128432, Note_on_c, 0, 57, 100
11, 128526, Note_on_c, 0, 57, 0
11, 128527, Note_on_c, 0, 69, 0
11, 129680, Note_on_c, 0, 57, 100
11, 129966, Note_on_c, 0, 57, 0
11, 130448, Note_on_c, 0, 69, 100
11, 130638, Note_on_c, 0, 69, 0
11, 131600, Note_on_c, 0, 69, 100
11, 131790, Note_on_c, 0, 69, 0
11, 133368, Note_on_c, 0, 69, 100
11, 133538, Note_on_c, 0, 69, 0
11, 133904, Note_on_c, 0, 57, 100
11, 134671, Note_on_c, 0, 57, 0
11, 134960, Note_on_c, 0, 69, 100
11, 135054, Note_on_c, 0, 69, 0
11, 135152, Note_on_c, 0, 69, 100
11, 135246, Note_on_c, 0, 69, 0
11, 136496, Note_on_c, 0, 81, 100
11, 136590, Note_on_c, 0, 81, 0
11, 136688, Note_on_c, 0, 81, 100
11, 136782, Note_on_c, 0, 81, 0
11, 138512, Note_on_c, 0, 57, 100
11, 139278, Note_on_c, 0, 57, 0
11, 141008, Note_on_c, 0, 57, 100
11, 141583, Note_on_c, 0, 57, 0
11, 145152, Note_on_c, 0, 57, 100
11, 145406, Note_on_c, 0, 57, 0
11, 145416, Note_on_c, 0, 57, 100
11, 145526, Note_on_c, 0, 57, 0
11, 147719, Note_on_c, 0, 57, 100
11, 147829, Note_on_c, 0, 57, 0
11, 148487, Note_on_c, 0, 57, 100
11, 148597, Note_on_c, 0, 57, 0
11, 149255, Note_on_c, 0, 57, 100
11, 149365, Note_on_c, 0, 57, 0
11, 150656, Note_on_c, 0, 57, 100
11, 150774, Note_on_c, 0, 57, 0
11, 151040, Note_on_c, 0, 57, 100
11, 151158, Note_on_c, 0, 57, 0
11, 151680, Note_on_c, 0, 69, 100
11, 151934, Note_on_c, 0, 69, 0
11, 151941, Note_on_c, 0, 69, 100
11, 152059, Note_on_c, 0, 69, 0
11, 153728, Note_on_c, 0, 57, 100
11, 153846, Note_on_c, 0, 57, 0
11, 154496, Note_on_c, 0, 57, 100
11, 154614, Note_on_c, 0, 57, 0
11, 155264, Note_on_c, 0, 57, 100
11, 155382, Note_on_c, 0, 57, 0
11, 157440, Note_on_c, 0, 45, 100
11, 157694, Note_on_c, 0, 45, 0
11, 157696, Note_on_c, 0, 45, 100
11, 157814, Note_on_c, 0, 45, 0
11, 157824, Note_on_c, 0, 57, 100
11, 158078, Note_on_c, 0, 57, 0
11, 158080, Note_on_c, 0, 57, 100
11, 158198, Note_on_c, 0, 57, 0
11, 158976, Note_on_c, 0, 69, 100
11, 159094, Note_on_c, 0, 69, 0
11, 159232, Note_on_c, 0, 69, 100
11, 159350, Note_on_c, 0, 69, 0
11, 159360, Note_on_c, 0, 57, 100
11, 159478, Note_on_c, 0, 57, 0
11, 159488, Note_on_c, 0, 69, 100
11, 159606, Note_on_c, 0, 69, 0
11, 159616, Note_on_c, 0, 57, 100
11, 159734, Note_on_c, 0, 57, 0
11, 160000, Note_on_c, 0, 45, 100
11, 160118, Note_on_c, 0, 45, 0
11, 160384, Note_on_c, 0, 57, 100
11, 160502, Note_on_c, 0, 57, 0
11, 160768, Note_on_c, 0, 45, 100
11, 160886, Note_on_c, 0, 45, 0
11, 161152, Note_on_c, 0, 57, 100
11, 161270, Note_on_c, 0, 57, 0
11, 161536, Note_on_c, 0, 45, 100
11, 161654, Note_on_c, 0, 45, 0
11, 161920, Note_on_c, 0, 57, 100
11, 162038, Note_on_c, 0, 57, 0
11, 162176, Note_on_c, 0, 57, 100
11, 162294, Note_on_c, 0, 57, 0
11, 162944, Note_on_c, 0, 45, 100
11, 163062, Note_on_c, 0, 45, 0
11, 163328, Note_on_c, 0, 45, 100
11, 163446, Note_on_c, 0, 45, 0
11, 163968, Note_on_c, 0, 81, 100
11, 163968, Note_on_c, 0, 69, 100
11, 164222, Note_on_c, 0, 69, 0
11, 164222, Note_on_c, 0, 81, 0
11, 164224, Note_on_c, 0, 69, 100
11, 164224, Note_on_c, 0, 81, 100
11, 164342, Note_on_c, 0, 81, 0
11, 164342, Note_on_c, 0, 69, 0
11, 164352, Note_on_c, 0, 69, 100
11, 164606, Note_on_c, 0, 69, 0
11, 164608, Note_on_c, 0, 69, 100
11, 164726, Note_on_c, 0, 69, 0
11, 165888, Note_on_c, 0, 69, 100
11, 166016, Note_on_c, 0, 45, 100
11, 166134, Note_on_c, 0, 45, 0
11, 166463, Note_on_c, 0, 69, 0
11, 166656, Note_on_c, 0, 69, 100
11, 166784, Note_on_c, 0, 45, 100
11, 166902, Note_on_c, 0, 45, 0
11, 167231, Note_on_c, 0, 69, 0
11, 167424, Note_on_c, 0, 69, 100
11, 167552, Note_on_c, 0, 45, 100
11, 167670, Note_on_c, 0, 45, 0
11, 167999, Note_on_c, 0, 69, 0
11, 168192, Note_on_c, 0, 69, 100
11, 168572, Note_on_c, 0, 69, 0
11, 168704, Note_on_c, 0, 57, 100
11, 168822, Note_on_c, 0, 57, 0
11, 169728, Note_on_c, 0, 69, 100
11, 169982, Note_on_c, 0, 69, 0
11, 169984, Note_on_c, 0, 69, 100
11, 170102, Note_on_c, 0, 69, 0
11, 171264, Note_on_c, 0, 81, 100
11, 171382, Note_on_c, 0, 81, 0
11, 171520, Note_on_c, 0, 57, 100
11, 171520, Note_on_c, 0, 81, 100
11, 171638, Note_on_c, 0, 81, 0
11, 171638, Note_on_c, 0, 57, 0
11, 171648, Note_on_c, 0, 69, 100
11, 171766, Note_on_c, 0, 69, 0
11, 171776, Note_on_c, 0, 81, 100
11, 171894, Note_on_c, 0, 81, 0
11, 171904, Note_on_c, 0, 69, 100
11, 172022, Note_on_c, 0, 69, 0
11, 172288, Note_on_c, 0, 69, 100
11, 172406, Note_on_c, 0, 69, 0
11, 172672, Note_on_c, 0, 69, 100
11, 172790, Note_on_c, 0, 69, 0
11, 173056, Note_on_c, 0, 69, 100
11, 173174, Note_on_c, 0, 69, 0
11, 173440, Note_on_c, 0, 69, 100
11, 173558, Note_on_c, 0, 69, 0
11, 173824, Note_on_c, 0, 69, 100
11, 173942, Note_on_c, 0, 69, 0
11, 174208, Note_on_c, 0, 69, 100
11, 174326, Note_on_c, 0, 69, 0
11, 174464, Note_on_c, 0, 69, 100
11, 174582, Note_on_c, 0, 69, 0
11, 175104, Note_on_c, 0, 69, 100
11, 175358, Note_on_c, 0, 69, 0
11, 175360, Note_on_c, 0, 69, 100
11, 175478, Note_on_c, 0, 69, 0
11, 176640, Note_on_c, 0, 69, 100
11, 176758, Note_on_c, 0, 69, 0
11, 176896, Note_on_c, 0, 69, 100
11, 177014, Note_on_c, 0, 69, 0
11, 177024, Note_on_c, 0, 81, 100
11, 177142, Note_on_c, 0, 81, 0
11, 177152, Note_on_c, 0, 69, 100
11, 177270, Note_on_c, 0, 69, 0
11, 177280, Note_on_c, 0, 81, 100
11, 177398, Note_on_c, 0, 81, 0
11, 177536, Note_on_c, 0, 69, 100
11, 177654, Note_on_c, 0, 69, 0
11, 178176, Note_on_c, 0, 69, 100
11, 178430, Note_on_c, 0, 69, 0
11, 178560, Note_on_c, 0, 69, 100
11, 178814, Note_on_c, 0, 69, 0
11, 178944, Note_on_c, 0, 69, 100
11, 179198, Note_on_c, 0, 69, 0
11, 179328, Note_on_c, 0, 69, 100
11, 179582, Note_on_c, 0, 69, 0
11, 179712, Note_on_c, 0, 69, 100
11, 179966, Note_on_c, 0, 69, 0
11, 180096, Note_on_c, 0, 69, 100
11, 180350, Note_on_c, 0, 69, 0
11, 180480, Note_on_c, 0, 69, 100
11, 180734, Note_on_c, 0, 69, 0
11, 180736, Note_on_c, 0, 57, 100
11, 180736, Note_on_c, 0, 81, 100
11, 180854, Note_on_c, 0, 81, 0
11, 180854, Note_on_c, 0, 57, 0
11, 180864, Note_on_c, 0, 69, 100
11, 180982, Note_on_c, 0, 69, 0
11, 182272, Note_on_c, 0, 69, 100
11, 182390, Note_on_c, 0, 69, 0
11, 182528, Note_on_c, 0, 57, 100
11, 182646, Note_on_c, 0, 57, 0
11, 182784, Note_on_c, 0, 69, 100
11, 183038, Note_on_c, 0, 69, 0
11, 183040, Note_on_c, 0, 69, 100
11, 183158, Note_on_c, 0, 69, 0
11, 183168, Note_on_c, 0, 57, 100
11, 183422, Note_on_c, 0, 57, 0
11, 183424, Note_on_c, 0, 57, 100
11, 183542, Note_on_c, 0, 57, 0
11, 185088, Note_on_c, 0, 69, 100
11, 185726, Note_on_c, 0, 69, 0
11, 186112, Note_on_c, 0, 57, 100
11, 186230, Note_on_c, 0, 57, 0
11, 186368, Note_on_c, 0, 57, 100
11, 186486, Note_on_c, 0, 57, 0
11, 186496, Note_on_c, 0, 69, 100
11, 186614, Note_on_c, 0, 69, 0
11, 186880, Note_on_c, 0, 57, 100
11, 186998, Note_on_c, 0, 57, 0
11, 187136, Note_on_c, 0, 57, 100
11, 187254, Note_on_c, 0, 57, 0
11, 187264, Note_on_c, 0, 69, 100
11, 187382, Note_on_c, 0, 69, 0
11, 187648, Note_on_c, 0, 57, 100
11, 187766, Note_on_c, 0, 57, 0
11, 187904, Note_on_c, 0, 57, 100
11, 188022, Note_on_c, 0, 57, 0
11, 188032, Note_on_c, 0, 69, 100
11, 188150, Note_on_c, 0, 69, 0
11, 188160, Note_on_c, 0, 69, 100
11, 188278, Note_on_c, 0, 69, 0
11, 188416, Note_on_c, 0, 57, 100
11, 188534, Note_on_c, 0, 57, 0
11, 188800, Note_on_c, 0, 57, 100
11, 188918, Note_on_c, 0, 57, 0
11, 189184, Note_on_c, 0, 57, 100
11, 189302, Note_on_c, 0, 57, 0
11, 189568, Note_on_c, 0, 57, 100
11, 189686, Note_on_c, 0, 57, 0
11, 189952, Note_on_c, 0, 57, 100
11, 190070, Note_on_c, 0, 57, 0
11, 190848, Note_on_c, 0, 69, 100
11, 190966, Note_on_c, 0, 69, 0
11, 191104, Note_on_c, 0, 45, 100
11, 191222, Note_on_c, 0, 45, 0
11, 192000, Note_on_c, 0, 69, 100
11, 192254, Note_on_c, 0, 69, 0
11, 192256, Note_on_c, 0, 69, 100
11, 192374, Note_on_c, 0, 69, 0
11, 192384, Note_on_c, 0, 69, 100
11, 192638, Note_on_c, 0, 69, 0
11, 192640, Note_on_c, 0, 69, 100
11, 192758, Note_on_c, 0, 69, 0
11, 193536, Note_on_c, 0, 57, 100
11, 193536, Note_on_c, 0, 69, 100
11, 193654, Note_on_c, 0, 57, 0
11, 193790, Note_on_c, 0, 69, 0
11, 193792, Note_on_c, 0, 57, 100
11, 193792, Note_on_c, 0, 69, 100
11, 193910, Note_on_c, 0, 69, 0
11, 193910, Note_on_c, 0, 57, 0
11, 193920, Note_on_c, 0, 69, 100
11, 194038, Note_on_c, 0, 69, 0
11, 194048, Note_on_c, 0, 57, 100
11, 194166, Note_on_c, 0, 57, 0
11, 194176, Note_on_c, 0, 69, 100
11, 194294, Note_on_c, 0, 69, 0
11, 194304, Note_on_c, 0, 69, 100
11, 194432, Note_on_c, 0, 57, 100
11, 194550, Note_on_c, 0, 57, 0
11, 194558, Note_on_c, 0, 69, 0
11, 194688, Note_on_c, 0, 69, 100
11, 194942, Note_on_c, 0, 69, 0
11, 195072, Note_on_c, 0, 69, 100
11, 195326, Note_on_c, 0, 69, 0
11, 195456, Note_on_c, 0, 69, 100
11, 195710, Note_on_c, 0, 69, 0
11, 195840, Note_on_c, 0, 69, 100
11, 196094, Note_on_c, 0, 69, 0
11, 196224, Note_on_c, 0, 69, 100
11, 196478, Note_on_c, 0, 69, 0
11, 196608, Note_on_c, 0, 69, 100
11, 196862, Note_on_c, 0, 69, 0
11, 196992, Note_on_c, 0, 69, 100
11, 197246, Note_on_c, 0, 69, 0
11, 197376, Note_on_c, 0, 69, 100
11, 197494, Note_on_c, 0, 69, 0
11, 198016, Note_on_c, 0, 69, 100
11, 198134, Note_on_c, 0, 69, 0
11, 198912, Note_on_c, 0, 45, 100
11, 199166, Note_on_c, 0, 45, 0
11, 199168, Note_on_c, 0, 45, 100
11, 199286, Note_on_c, 0, 45, 0
11, 199296, Note_on_c, 0, 69, 100
11, 199550, Note_on_c, 0, 69, 0
11, 199552, Note_on_c, 0, 69, 100
11, 199670, Note_on_c, 0, 69, 0
11, 200448, Note_on_c, 0, 81, 100
11, 200566, Note_on_c, 0, 81, 0
11, 200704, Note_on_c, 0, 81, 100
11, 200822, Note_on_c, 0, 81, 0
11, 200832, Note_on_c, 0, 69, 100
11, 200950, Note_on_c, 0, 69, 0
11, 200960, Note_on_c, 0, 81, 100
11, 201078, Note_on_c, 0, 81, 0
11, 201088, Note_on_c, 0, 69, 100
11, 201206, Note_on_c, 0, 69, 0
11, 201472, Note_on_c, 0, 45, 100
11, 201590, Note_on_c, 0, 45, 0
11, 201856, Note_on_c, 0, 69, 100
11, 201974, Note_on_c, 0, 69, 0
11, 202240, Note_on_c, 0, 45, 100
11, 202358, Note_on_c, 0, 45, 0
11, 202624, Note_on_c, 0, 69, 100
11, 202742, Note_on_c, 0, 69, 0
11, 203008, Note_on_c, 0, 45, 100
11, 203126, Note_on_c, 0, 45, 0
11, 203392, Note_on_c, 0, 69, 100
11, 203510, Note_on_c, 0, 69, 0
11, 203648, Note_on_c, 0, 69, 100
11, 203766, Note_on_c, 0, 69, 0
11, 204160, Note_on_c, 0, 81, 100
11, 204278, Note_on_c, 0, 81, 0
11, 204544, Note_on_c, 0, 69, 100
11, 204672, Note_on_c, 0, 69, 0
11, 205056, Note_on_c, 0, 45, 100
11, 205310, Note_on_c, 0, 45, 0
11, 205312, Note_on_c, 0, 57, 100
11, 205312, Note_on_c, 0, 69, 100
11, 205430, Note_on_c, 0, 69, 0
11, 205430, Note_on_c, 0, 57, 0
11, 205568, Note_on_c, 0, 57, 100
11, 205686, Note_on_c, 0, 57, 0
11, 205824, Note_on_c, 0, 57, 100
11, 205942, Note_on_c, 0, 57, 0
11, 206464, Note_on_c, 0, 57, 100
11, 206582, Note_on_c, 0, 57, 0
11, 206720, Note_on_c, 0, 57, 100
11, 206838, Note_on_c, 0, 57, 0
11, 206848, Note_on_c, 0, 69, 100
11, 206966, Note_on_c, 0, 69, 0
11, 207360, Note_on_c, 0, 57, 100
11, 207360, Note_on_c, 0, 69, 100
11, 207360, Note_on_c, 0, 81, 100
11, 207478, Note_on_c, 0, 69, 0
11, 207614, Note_on_c, 0, 81, 0
11, 207614, Note_on_c, 0, 57, 0
11, 207616, Note_on_c, 0, 57, 100
11, 207616, Note_on_c, 0, 81, 100
11, 207734, Note_on_c, 0, 81, 0
11, 207734, Note_on_c, 0, 57, 0
11, 208896, Note_on_c, 0, 69, 100
11, 209014, Note_on_c, 0, 69, 0
11, 209152, Note_on_c, 0, 69, 100
11, 209270, Note_on_c, 0, 69, 0
11, 209280, Note_on_c, 0, 69, 100
11, 209280, Note_on_c, 0, 81, 100
11, 209398, Note_on_c, 0, 81, 0
11, 209408, Note_on_c, 0, 69, 100
11, 209408, Note_on_c, 0, 69, 100
11, 209526, Note_on_c, 0, 69, 0
11, 209526, Note_on_c, 0, 69, 0
11, 209534, Note_on_c, 0, 69, 0
11, 209536, Note_on_c, 0, 57, 100
11, 209536, Note_on_c, 0, 81, 100
11, 209654, Note_on_c, 0, 81, 0
11, 209654, Note_on_c, 0, 57, 0
11, 209664, Note_on_c, 0, 45, 100
11, 209792, Note_on_c, 0, 69, 100
11, 209910, Note_on_c, 0, 69, 0
11, 209918, Note_on_c, 0, 45, 0
11, 209920, Note_on_c, 0, 57, 100
11, 210038, Note_on_c, 0, 57, 0
11, 210432, Note_on_c, 0, 81, 100
11, 210686, Note_on_c, 0, 81, 0
11, 210816, Note_on_c, 0, 81, 100
11, 211070, Note_on_c, 0, 81, 0
11, 211200, Note_on_c, 0, 81, 100
11, 211454, Note_on_c, 0, 81, 0
11, 211584, Note_on_c, 0, 81, 100
11, 211838, Note_on_c, 0, 81, 0
11, 211968, Note_on_c, 0, 81, 100
11, 212222, Note_on_c, 0, 81, 0
11, 212352, Note_on_c, 0, 81, 100
11, 212606, Note_on_c, 0, 81, 0
11, 212736, Note_on_c, 0, 81, 100
11, 213118, Note_on_c, 0, 81, 0
11, 213248, Note_on_c, 0, 57, 100
11, 213248, Note_on_c, 0, 81, 100
11, 213366, Note_on_c, 0, 81, 0
11, 213366, Note_on_c, 0, 57, 0
11, 213504, Note_on_c, 0, 81, 100
11, 213622, Note_on_c, 0, 81, 0
11, 213888, Note_on_c, 0, 57, 100
11, 214142, Note_on_c, 0, 57, 0
11, 214144, Note_on_c, 0, 45, 100
11, 214262, Note_on_c, 0, 45, 0
11, 214400, Note_on_c, 0, 45, 100
11, 214518, Note_on_c, 0, 45, 0
11, 214784, Note_on_c, 0, 45, 100
11, 214902, Note_on_c, 0, 45, 0
11, 215424, Note_on_c, 0, 57, 100
11, 215678, Note_on_c, 0, 57, 0
11, 215680, Note_on_c, 0, 57, 100
11, 215798, Note_on_c, 0, 57, 0
11, 216064, Note_on_c, 0, 57, 100
11, 216182, Note_on_c, 0, 57, 0
11, 217344, Note_on_c, 0, 57, 100
11, 217472, Note_on_c, 0, 45, 100
11, 217590, Note_on_c, 0, 45, 0
11, 217919, Note_on_c, 0, 57, 0
11, 218112, Note_on_c, 0, 57, 100
11, 218240, Note_on_c, 0, 45, 100
11, 218358, Note_on_c, 0, 45, 0
11, 218687, Note_on_c, 0, 57, 0
11, 218880, Note_on_c, 0, 57, 100
11, 219008, Note_on_c, 0, 45, 100
11, 219126, Note_on_c, 0, 45, 0
11, 219455, Note_on_c, 0, 57, 0
11, 219648, Note_on_c, 0, 69, 100
11, 219766, Note_on_c, 0, 69, 0
11, 220032, Note_on_c, 0, 45, 100
11, 220150, Note_on_c, 0, 45, 0
11, 220288, Note_on_c, 0, 45, 100
11, 220406, Note_on_c, 0, 45, 0
11, 221056, Note_on_c, 0, 57, 100
11, 221174, Note_on_c, 0, 57, 0
11, 221952, Note_on_c, 0, 69, 100
11, 222206, Note_on_c, 0, 69, 0
11, 222208, Note_on_c, 0, 69, 100
11, 222326, Note_on_c, 0, 69, 0
11, 222592, Note_on_c, 0, 69, 100
11, 222710, Note_on_c, 0, 69, 0
11, 223488, Note_on_c, 0, 57, 100
11, 223606, Note_on_c, 0, 57, 0
11, 223744, Note_on_c, 0, 57, 100
11, 223862, Note_on_c, 0, 57, 0
11, 223872, Note_on_c, 0, 45, 100
11, 223990, Note_on_c, 0, 45, 0
11, 224000, Note_on_c, 0, 57, 100
11, 224118, Note_on_c, 0, 57, 0
11, 224128, Note_on_c, 0, 45, 100
11, 224246, Note_on_c, 0, 45, 0
11, 224512, Note_on_c, 0, 69, 100
11, 224630, Note_on_c, 0, 69, 0
11, 224896, Note_on_c, 0, 57, 100
11, 225014, Note_on_c, 0, 57, 0
11, 225280, Note_on_c, 0, 69, 100
11, 225398, Note_on_c, 0, 69, 0
11, 225664, Note_on_c, 0, 57, 100
11, 225782, Note_on_c, 0, 57, 0
11, 226048, Note_on_c, 0, 69, 100
11, 226166, Note_on_c, 0, 69, 0
11, 226432, Note_on_c, 0, 57, 100
11, 226550, Note_on_c, 0, 57, 0
11, 227712, Note_on_c, 0, 69, 100
11, 227830, Note_on_c, 0, 69, 0
11, 227968, Note_on_c, 0, 69, 100
11, 228086, Note_on_c, 0, 69, 0
11, 228224, Note_on_c, 0, 69, 100
11, 228342, Note_on_c, 0, 69, 0
11, 228608, Note_on_c, 0, 69, 100
11, 228726, Note_on_c, 0, 69, 0
11, 234240, Note_on_c, 0, 69, 100
11, 234358, Note_on_c, 0, 69, 0
11, 234496, Note_on_c, 0, 69, 100
11, 234614, Note_on_c, 0, 69, 0
11, 240000, Note_on_c, 0, 57, 100
11, 240118, Note_on_c, 0, 57, 0
11, 240256, Note_on_c, 0, 57, 100
11, 240374, Note_on_c, 0, 57, 0
11, 240512, Note_on_c, 0, 57, 100
11, 240630, Note_on_c, 0, 57, 0
11, 240896, Note_on_c, 0, 57, 100
11, 241014, Note_on_c, 0, 57, 0
11, 245888, Note_on_c, 0, 57, 100
11, 246006, Note_on_c, 0, 57, 0
11, 278144, Note_on_c, 0, 69, 100
11, 278262, Note_on_c, 0, 69, 0
11, 279552, Note_on_c, 0, 57, 100
11, 279670, Note_on_c, 0, 57, 0
11, 279808, Note_on_c, 0, 57, 100
11, 279926, Note_on_c, 0, 57, 0
11, 281984, Note_on_c, 0, 69, 100
11, 282102, Note_on_c, 0, 69, 0
11, 286464, Note_on_c, 0, 69, 100
11, 286582, Note_on_c, 0, 69, 0
11, 286720, Note_on_c, 0, 69, 100
11, 286838, Note_on_c, 0, 69, 0
11, 287744, Note_on_c, 0, 69, 100
11, 287862, Note_on_c, 0, 69, 0
11, 288000, Note_on_c, 0, 69, 100
11, 288380, Note_on_c, 0, 69, 0
11, 288384, Note_on_c, 0, 57, 100
11, 288638, Note_on_c, 0, 57, 0
11, 288640, Note_on_c, 0, 57, 100
11, 288758, Note_on_c, 0, 57, 0
11, 288768, Note_on_c, 0, 57, 100
11, 289343, Note_on_c, 0, 57, 0
11, 289408, Note_on_c, 0, 69, 100
11, 289526, Note_on_c, 0, 69, 0
11, 289792, Note_on_c, 0, 81, 100
11, 289910, Note_on_c, 0, 81, 0
11, 290048, Note_on_c, 0, 81, 100
11, 290166, Note_on_c, 0, 81, 0
11, 290176, Note_on_c, 0, 69, 100
11, 290294, Note_on_c, 0, 69, 0
11, 290560, Note_on_c, 0, 57, 100
11, 290678, Note_on_c, 0, 57, 0
11, 290816, Note_on_c, 0, 57, 100
11, 290934, Note_on_c, 0, 57, 0
11, 290944, Note_on_c, 0, 81, 100
11, 291062, Note_on_c, 0, 81, 0
11, 291328, Note_on_c, 0, 57, 100
11, 291328, Note_on_c, 0, 69, 100
11, 291446, Note_on_c, 0, 69, 0
11, 291446, Note_on_c, 0, 57, 0
11, 291584, Note_on_c, 0, 69, 100
11, 291702, Note_on_c, 0, 69, 0
11, 291712, Note_on_c, 0, 81, 100
11, 291830, Note_on_c, 0, 81, 0
11, 292352, Note_on_c, 0, 69, 100
11, 292470, Note_on_c, 0, 69, 0
11, 293376, Note_on_c, 0, 45, 100
11, 293376, Note_on_c, 0, 57, 100
11, 293630, Note_on_c, 0, 57, 0
11, 293630, Note_on_c, 0, 45, 0
11, 293632, Note_on_c, 0, 45, 100
11, 293632, Note_on_c, 0, 57, 100
11, 293750, Note_on_c, 0, 57, 0
11, 293750, Note_on_c, 0, 45, 0
11, 293760, Note_on_c, 0, 57, 100
11, 294014, Note_on_c, 0, 57, 0
11, 294016, Note_on_c, 0, 57, 100
11, 294134, Note_on_c, 0, 57, 0
11, 294912, Note_on_c, 0, 69, 100
11, 295030, Note_on_c, 0, 69, 0
11, 295168, Note_on_c, 0, 69, 100
11, 295286, Note_on_c, 0, 69, 0
11, 295296, Note_on_c, 0, 57, 100
11, 295414, Note_on_c, 0, 57, 0
11, 295424, Note_on_c, 0, 69, 100
11, 295542, Note_on_c, 0, 69, 0
11, 295552, Note_on_c, 0, 57, 100
11, 295670, Note_on_c, 0, 57, 0
11, 295936, Note_on_c, 0, 45, 100
11, 296054, Note_on_c, 0, 45, 0
11, 296320, Note_on_c, 0, 57, 100
11, 296438, Note_on_c, 0, 57, 0
11, 296704, Note_on_c, 0, 57, 100
11, 296822, Note_on_c, 0, 57, 0
11, 297088, Note_on_c, 0, 45, 100
11, 297206, Note_on_c, 0, 45, 0
11, 297472, Note_on_c, 0, 57, 100
11, 297590, Note_on_c, 0, 57, 0
11, 297856, Note_on_c, 0, 57, 100
11, 297974, Note_on_c, 0, 57, 0
11, 298496, Note_on_c, 0, 57, 100
11, 298496, Note_on_c, 0, 69, 100
11, 298614, Note_on_c, 0, 69, 0
11, 298614, Note_on_c, 0, 57, 0
11, 298752, Note_on_c, 0, 69, 100
11, 298752, Note_on_c, 0, 81, 100
11, 298870, Note_on_c, 0, 69, 0
11, 299006, Note_on_c, 0, 81, 0
11, 299008, Note_on_c, 0, 81, 100
11, 299126, Note_on_c, 0, 81, 0
11, 299136, Note_on_c, 0, 57, 100
11, 299390, Note_on_c, 0, 57, 0
11, 299392, Note_on_c, 0, 69, 100
11, 299510, Note_on_c, 0, 69, 0
11, 300288, Note_on_c, 0, 69, 100
11, 300406, Note_on_c, 0, 69, 0
11, 300544, Note_on_c, 0, 69, 100
11, 300662, Note_on_c, 0, 69, 0
11, 300672, Note_on_c, 0, 57, 100
11, 300672, Note_on_c, 0, 81, 100
11, 300790, Note_on_c, 0, 81, 0
11, 300800, Note_on_c, 0, 69, 100
11, 300918, Note_on_c, 0, 69, 0
11, 300926, Note_on_c, 0, 57, 0
11, 300928, Note_on_c, 0, 69, 100
11, 300928, Note_on_c, 0, 81, 100
11, 301046, Note_on_c, 0, 81, 0
11, 301046, Note_on_c, 0, 69, 0
11, 301184, Note_on_c, 0, 69, 100
11, 301302, Note_on_c, 0, 69, 0
11, 301824, Note_on_c, 0, 81, 100
11, 302078, Note_on_c, 0, 81, 0
11, 302208, Note_on_c, 0, 81, 100
11, 302462, Note_on_c, 0, 81, 0
11, 302592, Note_on_c, 0, 81, 100
11, 302710, Note_on_c, 0, 81, 0
11, 302976, Note_on_c, 0, 69, 100
11, 303230, Note_on_c, 0, 69, 0
11, 303360, Note_on_c, 0, 69, 100
11, 303614, Note_on_c, 0, 69, 0
11, 303744, Note_on_c, 0, 69, 100
11, 303998, Note_on_c, 0, 69, 0
11, 304128, Note_on_c, 0, 69, 100
11, 304318, Note_on_c, 0, 69, 0
11, 304768, Note_on_c, 0, 69, 100
11, 304886, Note_on_c, 0, 69, 0
11, 305152, Note_on_c, 0, 57, 100
11, 305270, Note_on_c, 0, 57, 0
11, 305408, Note_on_c, 0, 57, 100
11, 305526, Note_on_c, 0, 57, 0
11, 305664, Note_on_c, 0, 57, 100
11, 305664, Note_on_c, 0, 69, 100
11, 305918, Note_on_c, 0, 57, 0
11, 306048, Note_on_c, 0, 57, 100
11, 306302, Note_on_c, 0, 57, 0
11, 306302, Note_on_c, 0, 69, 0
11, 306304, Note_on_c, 0, 57, 100
11, 306304, Note_on_c, 0, 69, 100
11, 306422, Note_on_c, 0, 69, 0
11, 306422, Note_on_c, 0, 57, 0
11, 307584, Note_on_c, 0, 57, 100
11, 307838, Note_on_c, 0, 57, 0
11, 307840, Note_on_c, 0, 57, 100
11, 307958, Note_on_c, 0, 57, 0
11, 307968, Note_on_c, 0, 57, 100
11, 308543, Note_on_c, 0, 57, 0
11, 308608, Note_on_c, 0, 57, 100
11, 308726, Note_on_c, 0, 57, 0
11, 308992, Note_on_c, 0, 45, 100
11, 309110, Note_on_c, 0, 45, 0
11, 309248, Note_on_c, 0, 45, 100
11, 309366, Note_on_c, 0, 45, 0
11, 309376, Note_on_c, 0, 57, 100
11, 309376, Note_on_c, 0, 69, 100
11, 309494, Note_on_c, 0, 69, 0
11, 309494, Note_on_c, 0, 57, 0
11, 309760, Note_on_c, 0, 45, 100
11, 309760, Note_on_c, 0, 57, 100
11, 309878, Note_on_c, 0, 57, 0
11, 309878, Note_on_c, 0, 45, 0
11, 310016, Note_on_c, 0, 57, 100
11, 310134, Note_on_c, 0, 57, 0
11, 310144, Note_on_c, 0, 69, 100
11, 310262, Note_on_c, 0, 69, 0
11, 310528, Note_on_c, 0, 69, 100
11, 310646, Note_on_c, 0, 69, 0
11, 310784, Note_on_c, 0, 69, 100
11, 310902, Note_on_c, 0, 69, 0
11, 311296, Note_on_c, 0, 57, 100
11, 311296, Note_on_c, 0, 69, 100
11, 311414, Note_on_c, 0, 69, 0
11, 311414, Note_on_c, 0, 57, 0
11, 311552, Note_on_c, 0, 57, 100
11, 311552, Note_on_c, 0, 69, 100
11, 311670, Note_on_c, 0, 69, 0
11, 311670, Note_on_c, 0, 57, 0
11, 311680, Note_on_c, 0, 57, 100
11, 311798, Note_on_c, 0, 57, 0
11, 312064, Note_on_c, 0, 57, 100
11, 312064, Note_on_c, 0, 69, 100
11, 312182, Note_on_c, 0, 69, 0
11, 312182, Note_on_c, 0, 57, 0
11, 312320, Note_on_c, 0, 57, 100
11, 312320, Note_on_c, 0, 69, 100
11, 312438, Note_on_c, 0, 69, 0
11, 312438, Note_on_c, 0, 57, 0
11, 312448, Note_on_c, 0, 57, 100
11, 312566, Note_on_c, 0, 57, 0
11, 312832, Note_on_c, 0, 69, 100
11, 312950, Note_on_c, 0, 69, 0
11, 312960, Note_on_c, 0, 57, 100
11, 313214, Note_on_c, 0, 57, 0
11, 313856, Note_on_c, 0, 81, 100
11, 313972, Note_on_c, 0, 81, 0
11, 314240, Note_on_c, 0, 81, 100
11, 314358, Note_on_c, 0, 81, 0
11, 314752, Note_on_c, 0, 69, 100
11, 314868, Note_on_c, 0, 69, 0
11, 315392, Note_on_c, 0, 69, 100
11, 315508, Note_on_c, 0, 69, 0
11, 315776, Note_on_c, 0, 69, 100
11, 315894, Note_on_c, 0, 69, 0
11, 316288, Note_on_c, 0, 57, 100
11, 316404, Note_on_c, 0, 57, 0
11, 316928, Note_on_c, 0, 57, 100
11, 317044, Note_on_c, 0, 57, 0
11, 317312, Note_on_c, 0, 57, 100
11, 317438, Note_on_c, 0, 57, 0
11, 317824, Note_on_c, 0, 45, 100
11, 317940, Note_on_c, 0, 45, 0
11, 318464, Note_on_c, 0, 45, 100
11, 318580, Note_on_c, 0, 45, 0
11, 318848, Note_on_c, 0, 45, 100
11, 318974, Note_on_c, 0, 45, 0
11, 320000, Note_on_c, 0, 57, 100
11, 320116, Note_on_c, 0, 57, 0
11, 320384, Note_on_c, 0, 57, 100
11, 320510, Note_on_c, 0, 57, 0
11, 320768, Note_on_c, 0, 57, 100
11, 320878, Note_on_c, 0, 57, 0
11, 321152, Note_on_c, 0, 57, 100
11, 321262, Note_on_c, 0, 57, 0
11, 322944, Note_on_c, 0, 45, 100
11, 323084, Note_on_c, 0, 45, 0
11, 324504, Note_on_c, 0, 57, 100
11, 326204, Note_on_c, 0, 57, 0
11, 326204, End_track
12, 0, Start_track
12, 0, Title_t, "Harpsichord"
12, 0, Program_c, 0, 6
12, 0, Control_c, 0, 7, 100
12, 0, Control_c, 0, 10, 64
12, 0, Pitch_bend_c, 0, 8032
12, 256, Note_on_c, 0, 82, 100
12, 318, Note_on_c, 0, 82, 0
12, 832, Note_on_c, 0, 70, 100
12, 894, Note_on_c, 0, 70, 0
12, 1216, Note_on_c, 0, 70, 100
12, 1278, Note_on_c, 0, 70, 0
12, 1792, Note_on_c, 0, 58, 100
12, 1854, Note_on_c, 0, 58, 0
12, 2112, Note_on_c, 0, 58, 100
12, 2174, Note_on_c, 0, 58, 0
12, 2688, Note_on_c, 0, 46, 100
12, 2750, Note_on_c, 0, 46, 0
12, 3166, Note_on_c, 0, 46, 100
12, 3260, Note_on_c, 0, 46, 0
12, 4046, Note_on_c, 0, 46, 100
12, 4140, Note_on_c, 0, 46, 0
12, 4366, Note_on_c, 0, 58, 100
12, 4460, Note_on_c, 0, 58, 0
12, 6142, Note_on_c, 0, 58, 100
12, 6236, Note_on_c, 0, 58, 0
12, 7022, Note_on_c, 0, 46, 100
12, 7116, Note_on_c, 0, 46, 0
12, 7646, Note_on_c, 0, 46, 100
12, 7740, Note_on_c, 0, 46, 0
12, 8300, Note_on_c, 0, 46, 100
12, 8403, Note_on_c, 0, 46, 0
12, 11521, Note_on_c, 0, 58, 100
12, 13053, Note_on_c, 0, 58, 0
12, 13824, Note_on_c, 0, 58, 100
12, 15744, Note_on_c, 0, 58, 0
12, 23744, Note_on_c, 0, 70, 100
12, 23803, Note_on_c, 0, 70, 0
12, 23808, Note_on_c, 0, 70, 100
12, 23998, Note_on_c, 0, 70, 0
12, 24058, Note_on_c, 0, 70, 100
12, 24121, Note_on_c, 0, 70, 0
12, 24174, Note_on_c, 0, 70, 100
12, 24237, Note_on_c, 0, 70, 0
12, 24290, Note_on_c, 0, 70, 100
12, 24353, Note_on_c, 0, 70, 0
12, 24576, Note_on_c, 0, 58, 100
12, 24768, Note_on_c, 0, 70, 100
12, 24958, Note_on_c, 0, 70, 0
12, 25343, Note_on_c, 0, 58, 0
12, 26688, Note_on_c, 0, 70, 100
12, 26782, Note_on_c, 0, 70, 0
12, 26880, Note_on_c, 0, 46, 100
12, 26880, Note_on_c, 0, 58, 100
12, 27262, Note_on_c, 0, 58, 0
12, 27552, Note_on_c, 0, 70, 100
12, 27646, Note_on_c, 0, 70, 0
12, 27647, Note_on_c, 0, 46, 0
12, 27648, Note_on_c, 0, 46, 100
12, 29178, Note_on_c, 0, 46, 0
12, 29184, Note_on_c, 0, 46, 100
12, 29951, Note_on_c, 0, 46, 0
12, 31488, Note_on_c, 0, 70, 100
12, 31582, Note_on_c, 0, 70, 0
12, 31776, Note_on_c, 0, 70, 100
12, 31870, Note_on_c, 0, 70, 0
12, 34560, Note_on_c, 0, 58, 100
12, 34986, Note_on_c, 0, 58, 0
12, 35424, Note_on_c, 0, 58, 100
12, 36191, Note_on_c, 0, 58, 0
12, 36576, Note_on_c, 0, 58, 100
12, 36956, Note_on_c, 0, 58, 0
12, 36960, Note_on_c, 0, 58, 100
12, 37342, Note_on_c, 0, 58, 0
12, 41652, Note_on_c, 0, 70, 100
12, 41652, Note_on_c, 0, 58, 100
12, 41851, Note_on_c, 0, 58, 0
12, 41851, Note_on_c, 0, 70, 0
12, 42240, Note_on_c, 0, 70, 100
12, 42620, Note_on_c, 0, 70, 0
12, 43008, Note_on_c, 0, 70, 100
12, 43388, Note_on_c, 0, 70, 0
12, 44544, Note_on_c, 0, 46, 100
12, 44734, Note_on_c, 0, 46, 0
12, 44736, Note_on_c, 0, 82, 100
12, 44736, Note_on_c, 0, 58, 100
12, 44926, Note_on_c, 0, 58, 0
12, 44926, Note_on_c, 0, 82, 0
12, 45120, Note_on_c, 0, 58, 100
12, 45310, Note_on_c, 0, 58, 0
12, 45888, Note_on_c, 0, 58, 100
12, 46078, Note_on_c, 0, 58, 0
12, 46656, Note_on_c, 0, 58, 100
12, 46846, Note_on_c, 0, 58, 0
12, 47136, Note_on_c, 0, 82, 100
12, 47230, Note_on_c, 0, 82, 0
12, 47616, Note_on_c, 0, 70, 100
12, 47808, Note_on_c, 0, 82, 100
12, 47896, Note_on_c, 0, 70, 0
12, 47904, Note_on_c, 0, 46, 100
12, 47998, Note_on_c, 0, 46, 0
12, 47998, Note_on_c, 0, 82, 0
12, 48768, Note_on_c, 0, 82, 100
12, 48958, Note_on_c, 0, 82, 0
12, 50208, Note_on_c, 0, 46, 100
12, 50302, Note_on_c, 0, 46, 0
12, 50496, Note_on_c, 0, 46, 100
12, 50590, Note_on_c, 0, 46, 0
12, 50976, Note_on_c, 0, 46, 100
12, 51070, Note_on_c, 0, 46, 0
12, 51264, Note_on_c, 0, 46, 100
12, 51358, Note_on_c, 0, 46, 0
12, 51456, Note_on_c, 0, 70, 100
12, 51646, Note_on_c, 0, 70, 0
12, 51744, Note_on_c, 0, 46, 100
12, 51838, Note_on_c, 0, 46, 0
12, 52992, Note_on_c, 0, 58, 100
12, 53272, Note_on_c, 0, 58, 0
12, 53280, Note_on_c, 0, 70, 100
12, 53374, Note_on_c, 0, 70, 0
12, 53568, Note_on_c, 0, 70, 100
12, 53662, Note_on_c, 0, 70, 0
12, 53760, Note_on_c, 0, 46, 100
12, 54040, Note_on_c, 0, 46, 0
12, 54048, Note_on_c, 0, 70, 100
12, 54142, Note_on_c, 0, 70, 0
12, 54336, Note_on_c, 0, 70, 100
12, 54430, Note_on_c, 0, 70, 0
12, 54528, Note_on_c, 0, 46, 100
12, 54718, Note_on_c, 0, 46, 0
12, 55104, Note_on_c, 0, 46, 100
12, 55294, Note_on_c, 0, 46, 0
12, 56064, Note_on_c, 0, 46, 100
12, 56254, Note_on_c, 0, 46, 0
12, 56256, Note_on_c, 0, 82, 100
12, 56446, Note_on_c, 0, 82, 0
12, 57216, Note_on_c, 0, 70, 100
12, 57406, Note_on_c, 0, 70, 0
12, 58272, Note_on_c, 0, 70, 100
12, 58366, Note_on_c, 0, 70, 0
12, 58368, Note_on_c, 0, 70, 100
12, 58368, Note_on_c, 0, 46, 100
12, 58558, Note_on_c, 0, 70, 0
12, 58560, Note_on_c, 0, 70, 100
12, 58560, Note_on_c, 0, 58, 100
12, 58748, Note_on_c, 0, 46, 0
12, 58750, Note_on_c, 0, 58, 0
12, 58750, Note_on_c, 0, 70, 0
12, 59136, Note_on_c, 0, 70, 100
12, 59516, Note_on_c, 0, 70, 0
12, 59904, Note_on_c, 0, 70, 100
12, 60284, Note_on_c, 0, 70, 0
12, 60672, Note_on_c, 0, 70, 100
12, 60862, Note_on_c, 0, 70, 0
12, 60864, Note_on_c, 0, 70, 100
12, 60984, Note_on_c, 0, 70, 0
12, 61440, Note_on_c, 0, 70, 100
12, 61440, Note_on_c, 0, 58, 100
12, 61560, Note_on_c, 0, 70, 0
12, 61630, Note_on_c, 0, 58, 0
12, 61632, Note_on_c, 0, 70, 100
12, 61752, Note_on_c, 0, 70, 0
12, 62016, Note_on_c, 0, 58, 100
12, 62110, Note_on_c, 0, 58, 0
12, 62400, Note_on_c, 0, 82, 100
12, 62496, Note_on_c, 0, 58, 100
12, 62590, Note_on_c, 0, 58, 0
12, 62590, Note_on_c, 0, 82, 0
12, 63936, Note_on_c, 0, 58, 100
12, 64032, Note_on_c, 0, 70, 100
12, 64126, Note_on_c, 0, 70, 0
12, 64126, Note_on_c, 0, 58, 0
12, 64320, Note_on_c, 0, 70, 100
12, 64414, Note_on_c, 0, 70, 0
12, 64512, Note_on_c, 0, 70, 100
12, 64702, Note_on_c, 0, 70, 0
12, 67008, Note_on_c, 0, 70, 100
12, 67008, Note_on_c, 0, 58, 100
12, 67102, Note_on_c, 0, 70, 0
12, 67198, Note_on_c, 0, 58, 0
12, 67392, Note_on_c, 0, 58, 100
12, 67582, Note_on_c, 0, 58, 0
12, 70080, Note_on_c, 0, 70, 100
12, 70080, Note_on_c, 0, 58, 100
12, 70174, Note_on_c, 0, 70, 0
12, 70270, Note_on_c, 0, 58, 0
12, 70464, Note_on_c, 0, 58, 100
12, 70654, Note_on_c, 0, 58, 0
12, 71424, Note_on_c, 0, 70, 100
12, 71614, Note_on_c, 0, 70, 0
12, 71616, Note_on_c, 0, 58, 100
12, 71710, Note_on_c, 0, 58, 0
12, 72192, Note_on_c, 0, 70, 100
12, 72572, Note_on_c, 0, 70, 0
12, 72960, Note_on_c, 0, 70, 100
12, 73150, Note_on_c, 0, 70, 0
12, 73728, Note_on_c, 0, 70, 100
12, 73918, Note_on_c, 0, 70, 0
12, 73920, Note_on_c, 0, 82, 100
12, 73920, Note_on_c, 0, 58, 100
12, 74110, Note_on_c, 0, 58, 0
12, 74110, Note_on_c, 0, 82, 0
12, 74304, Note_on_c, 0, 70, 100
12, 74304, Note_on_c, 0, 58, 100
12, 74398, Note_on_c, 0, 70, 0
12, 74494, Note_on_c, 0, 58, 0
12, 74496, Note_on_c, 0, 70, 100
12, 74686, Note_on_c, 0, 70, 0
12, 75072, Note_on_c, 0, 70, 100
12, 75072, Note_on_c, 0, 58, 100
12, 75262, Note_on_c, 0, 58, 0
12, 75262, Note_on_c, 0, 70, 0
12, 75264, Note_on_c, 0, 70, 100
12, 75454, Note_on_c, 0, 70, 0
12, 75840, Note_on_c, 0, 70, 100
12, 75840, Note_on_c, 0, 58, 100
12, 76030, Note_on_c, 0, 58, 0
12, 76030, Note_on_c, 0, 70, 0
12, 76032, Note_on_c, 0, 70, 100
12, 76222, Note_on_c, 0, 70, 0
12, 76224, Note_on_c, 0, 70, 100
12, 76414, Note_on_c, 0, 70, 0
12, 76800, Note_on_c, 0, 70, 100
12, 76800, Note_on_c, 0, 46, 100
12, 76990, Note_on_c, 0, 46, 0
12, 76990, Note_on_c, 0, 70, 0
12, 77472, Note_on_c, 0, 58, 100
12, 77566, Note_on_c, 0, 58, 0
12, 77760, Note_on_c, 0, 58, 100
12, 77950, Note_on_c, 0, 58, 0
12, 78144, Note_on_c, 0, 70, 100
12, 78238, Note_on_c, 0, 70, 0
12, 78336, Note_on_c, 0, 58, 100
12, 78526, Note_on_c, 0, 58, 0
12, 78528, Note_on_c, 0, 70, 100
12, 78528, Note_on_c, 0, 46, 100
12, 78718, Note_on_c, 0, 46, 0
12, 78718, Note_on_c, 0, 70, 0
12, 79104, Note_on_c, 0, 70, 100
12, 79104, Note_on_c, 0, 46, 100
12, 79294, Note_on_c, 0, 46, 0
12, 79294, Note_on_c, 0, 70, 0
12, 79296, Note_on_c, 0, 70, 100
12, 79486, Note_on_c, 0, 70, 0
12, 79488, Note_on_c, 0, 70, 100
12, 79678, Note_on_c, 0, 70, 0
12, 79776, Note_on_c, 0, 58, 100
12, 79870, Note_on_c, 0, 58, 0
12, 79872, Note_on_c, 0, 58, 100
12, 79872, Note_on_c, 0, 70, 100
12, 79872, Note_on_c, 0, 46, 100
12, 80062, Note_on_c, 0, 46, 0
12, 80062, Note_on_c, 0, 58, 0
12, 80544, Note_on_c, 0, 58, 100
12, 80638, Note_on_c, 0, 58, 0
12, 80638, Note_on_c, 0, 70, 0
12, 80832, Note_on_c, 0, 58, 100
12, 81022, Note_on_c, 0, 58, 0
12, 81216, Note_on_c, 0, 70, 100
12, 81310, Note_on_c, 0, 70, 0
12, 81408, Note_on_c, 0, 58, 100
12, 81598, Note_on_c, 0, 58, 0
12, 81600, Note_on_c, 0, 46, 100
12, 81790, Note_on_c, 0, 46, 0
12, 82176, Note_on_c, 0, 70, 100
12, 82176, Note_on_c, 0, 46, 100
12, 82366, Note_on_c, 0, 46, 0
12, 82366, Note_on_c, 0, 70, 0
12, 82368, Note_on_c, 0, 70, 100
12, 82558, Note_on_c, 0, 70, 0
12, 82560, Note_on_c, 0, 70, 100
12, 82750, Note_on_c, 0, 70, 0
12, 82944, Note_on_c, 0, 70, 100
12, 82944, Note_on_c, 0, 58, 100
12, 82944, Note_on_c, 0, 46, 100
12, 83134, Note_on_c, 0, 46, 0
12, 83134, Note_on_c, 0, 58, 0
12, 83134, Note_on_c, 0, 70, 0
12, 83136, Note_on_c, 0, 70, 100
12, 83136, Note_on_c, 0, 58, 100
12, 83286, Note_on_c, 0, 58, 0
12, 83326, Note_on_c, 0, 70, 0
12, 83712, Note_on_c, 0, 58, 100
12, 84092, Note_on_c, 0, 58, 0
12, 84096, Note_on_c, 0, 46, 100
12, 84286, Note_on_c, 0, 46, 0
12, 84480, Note_on_c, 0, 58, 100
12, 84860, Note_on_c, 0, 58, 0
12, 84864, Note_on_c, 0, 46, 100
12, 85054, Note_on_c, 0, 46, 0
12, 86016, Note_on_c, 0, 70, 100
12, 86206, Note_on_c, 0, 70, 0
12, 86208, Note_on_c, 0, 70, 100
12, 86368, Note_on_c, 0, 70, 0
12, 86784, Note_on_c, 0, 58, 100
12, 87004, Note_on_c, 0, 58, 0
12, 87168, Note_on_c, 0, 70, 100
12, 87358, Note_on_c, 0, 70, 0
12, 87552, Note_on_c, 0, 58, 100
12, 87832, Note_on_c, 0, 58, 0
12, 87936, Note_on_c, 0, 70, 100
12, 88126, Note_on_c, 0, 70, 0
12, 88320, Note_on_c, 0, 58, 100
12, 88510, Note_on_c, 0, 58, 0
12, 88704, Note_on_c, 0, 70, 100
12, 88894, Note_on_c, 0, 70, 0
12, 89088, Note_on_c, 0, 58, 100
12, 89278, Note_on_c, 0, 58, 0
12, 90648, Note_on_c, 0, 58, 100
12, 90648, Note_on_c, 0, 70, 100
12, 90768, Note_on_c, 0, 70, 0
12, 90856, Note_on_c, 0, 70, 100
12, 90856, Note_on_c, 0, 82, 100
12, 90858, Note_on_c, 0, 58, 0
12, 90976, Note_on_c, 0, 70, 0
12, 91046, Note_on_c, 0, 82, 0
12, 91824, Note_on_c, 0, 70, 100
12, 91824, Note_on_c, 0, 58, 100
12, 92014, Note_on_c, 0, 58, 0
12, 92014, Note_on_c, 0, 70, 0
12, 92016, Note_on_c, 0, 70, 100
12, 92206, Note_on_c, 0, 70, 0
12, 94320, Note_on_c, 0, 70, 100
12, 94510, Note_on_c, 0, 70, 0
12, 95880, Note_on_c, 0, 58, 100
12, 95974, Note_on_c, 0, 58, 0
12, 96072, Note_on_c, 0, 58, 100
12, 96262, Note_on_c, 0, 58, 0
12, 96840, Note_on_c, 0, 58, 100
12, 97030, Note_on_c, 0, 58, 0
12, 97608, Note_on_c, 0, 58, 100
12, 97798, Note_on_c, 0, 58, 0
12, 97800, Note_on_c, 0, 70, 100
12, 97990, Note_on_c, 0, 70, 0
12, 98760, Note_on_c, 0, 70, 100
12, 98950, Note_on_c, 0, 70, 0
12, 99336, Note_on_c, 0, 58, 100
12, 99526, Note_on_c, 0, 58, 0
12, 100296, Note_on_c, 0, 58, 100
12, 100486, Note_on_c, 0, 58, 0
12, 100872, Note_on_c, 0, 70, 100
12, 100968, Note_on_c, 0, 46, 100
12, 101062, Note_on_c, 0, 46, 0
12, 101062, Note_on_c, 0, 70, 0
12, 101256, Note_on_c, 0, 46, 100
12, 101350, Note_on_c, 0, 46, 0
12, 101448, Note_on_c, 0, 46, 100
12, 101638, Note_on_c, 0, 46, 0
12, 101640, Note_on_c, 0, 58, 100
12, 102020, Note_on_c, 0, 58, 0
12, 102216, Note_on_c, 0, 58, 100
12, 102406, Note_on_c, 0, 58, 0
12, 102408, Note_on_c, 0, 58, 100
12, 102788, Note_on_c, 0, 58, 0
12, 102984, Note_on_c, 0, 46, 100
12, 102984, Note_on_c, 0, 58, 100
12, 103174, Note_on_c, 0, 58, 0
12, 103174, Note_on_c, 0, 46, 0
12, 103272, Note_on_c, 0, 70, 100
12, 103366, Note_on_c, 0, 70, 0
12, 103560, Note_on_c, 0, 70, 100
12, 103654, Note_on_c, 0, 70, 0
12, 103752, Note_on_c, 0, 58, 100
12, 103942, Note_on_c, 0, 58, 0
12, 104040, Note_on_c, 0, 70, 100
12, 104134, Note_on_c, 0, 70, 0
12, 104328, Note_on_c, 0, 70, 100
12, 104422, Note_on_c, 0, 70, 0
12, 104520, Note_on_c, 0, 58, 100
12, 104710, Note_on_c, 0, 58, 0
12, 104808, Note_on_c, 0, 70, 100
12, 104902, Note_on_c, 0, 70, 0
12, 105288, Note_on_c, 0, 70, 100
12, 105478, Note_on_c, 0, 70, 0
12, 105480, Note_on_c, 0, 70, 100
12, 105610, Note_on_c, 0, 70, 0
12, 106056, Note_on_c, 0, 58, 100
12, 106056, Note_on_c, 0, 70, 100
12, 106256, Note_on_c, 0, 70, 0
12, 106256, Note_on_c, 0, 58, 0
12, 106264, Note_on_c, 0, 46, 100
12, 106264, Note_on_c, 0, 70, 100
12, 106358, Note_on_c, 0, 46, 0
12, 106368, Note_on_c, 0, 58, 100
12, 106454, Note_on_c, 0, 70, 0
12, 106462, Note_on_c, 0, 58, 0
12, 106848, Note_on_c, 0, 70, 100
12, 107228, Note_on_c, 0, 70, 0
12, 107616, Note_on_c, 0, 70, 100
12, 107996, Note_on_c, 0, 70, 0
12, 108384, Note_on_c, 0, 70, 100
12, 108574, Note_on_c, 0, 70, 0
12, 108576, Note_on_c, 0, 70, 100
12, 108896, Note_on_c, 0, 70, 0
12, 109152, Note_on_c, 0, 70, 100
12, 109152, Note_on_c, 0, 46, 100
12, 109342, Note_on_c, 0, 46, 0
12, 109342, Note_on_c, 0, 70, 0
12, 109344, Note_on_c, 0, 82, 100
12, 109344, Note_on_c, 0, 58, 100
12, 109534, Note_on_c, 0, 58, 0
12, 109534, Note_on_c, 0, 82, 0
12, 109920, Note_on_c, 0, 70, 100
12, 109920, Note_on_c, 0, 58, 100
12, 110110, Note_on_c, 0, 58, 0
12, 110110, Note_on_c, 0, 70, 0
12, 110688, Note_on_c, 0, 70, 100
12, 110688, Note_on_c, 0, 58, 100
12, 110878, Note_on_c, 0, 58, 0
12, 110878, Note_on_c, 0, 70, 0
12, 111456, Note_on_c, 0, 58, 100
12, 111646, Note_on_c, 0, 58, 0
12, 112032, Note_on_c, 0, 70, 100
12, 112032, Note_on_c, 0, 58, 100
12, 112222, Note_on_c, 0, 58, 0
12, 112222, Note_on_c, 0, 70, 0
12, 112224, Note_on_c, 0, 70, 100
12, 112414, Note_on_c, 0, 70, 0
12, 112608, Note_on_c, 0, 58, 100
12, 112798, Note_on_c, 0, 58, 0
12, 112800, Note_on_c, 0, 58, 100
12, 112800, Note_on_c, 0, 46, 100
12, 112896, Note_on_c, 0, 70, 100
12, 112990, Note_on_c, 0, 70, 0
12, 113080, Note_on_c, 0, 46, 0
12, 113080, Note_on_c, 0, 58, 0
12, 113184, Note_on_c, 0, 70, 100
12, 113374, Note_on_c, 0, 70, 0
12, 113568, Note_on_c, 0, 70, 100
12, 113662, Note_on_c, 0, 70, 0
12, 113760, Note_on_c, 0, 70, 100
12, 113950, Note_on_c, 0, 70, 0
12, 113952, Note_on_c, 0, 58, 100
12, 114142, Note_on_c, 0, 58, 0
12, 114528, Note_on_c, 0, 58, 100
12, 114718, Note_on_c, 0, 58, 0
12, 114720, Note_on_c, 0, 70, 100
12, 114910, Note_on_c, 0, 70, 0
12, 114912, Note_on_c, 0, 70, 100
12, 115102, Note_on_c, 0, 70, 0
12, 115200, Note_on_c, 0, 70, 100
12, 115294, Note_on_c, 0, 70, 0
12, 115296, Note_on_c, 0, 70, 100
12, 115296, Note_on_c, 0, 58, 100
12, 115486, Note_on_c, 0, 58, 0
12, 115486, Note_on_c, 0, 70, 0
12, 115968, Note_on_c, 0, 58, 100
12, 116062, Note_on_c, 0, 58, 0
12, 116256, Note_on_c, 0, 58, 100
12, 116446, Note_on_c, 0, 58, 0
12, 116640, Note_on_c, 0, 58, 100
12, 116734, Note_on_c, 0, 58, 0
12, 116832, Note_on_c, 0, 58, 100
12, 117022, Note_on_c, 0, 58, 0
12, 117024, Note_on_c, 0, 46, 100
12, 117214, Note_on_c, 0, 46, 0
12, 117600, Note_on_c, 0, 58, 100
12, 117600, Note_on_c, 0, 46, 100
12, 117790, Note_on_c, 0, 46, 0
12, 117790, Note_on_c, 0, 58, 0
12, 117792, Note_on_c, 0, 58, 100
12, 117936, Note_on_c, 0, 70, 100
12, 117982, Note_on_c, 0, 58, 0
12, 118007, Note_on_c, 0, 70, 0
12, 118008, Note_on_c, 0, 58, 100
12, 118198, Note_on_c, 0, 58, 0
12, 118408, Note_on_c, 0, 58, 100
12, 118506, Note_on_c, 0, 58, 0
12, 120800, Note_on_c, 0, 58, 100
12, 120894, Note_on_c, 0, 58, 0
12, 121064, Note_on_c, 0, 70, 100
12, 121158, Note_on_c, 0, 70, 0
12, 121432, Note_on_c, 0, 70, 100
12, 121526, Note_on_c, 0, 70, 0
12, 124496, Note_on_c, 0, 70, 100
12, 124542, Note_on_c, 0, 70, 0
12, 124784, Note_on_c, 0, 70, 100
12, 124830, Note_on_c, 0, 70, 0
12, 124976, Note_on_c, 0, 70, 100
12, 125070, Note_on_c, 0, 70, 0
12, 126224, Note_on_c, 0, 46, 100
12, 126798, Note_on_c, 0, 46, 0
12, 128528, Note_on_c, 0, 46, 100
12, 129295, Note_on_c, 0, 46, 0
12, 129296, Note_on_c, 0, 70, 100
12, 129968, Note_on_c, 0, 58, 100
12, 130062, Note_on_c, 0, 58, 0
12, 130063, Note_on_c, 0, 70, 0
12, 130256, Note_on_c, 0, 70, 100
12, 130446, Note_on_c, 0, 70, 0
12, 131408, Note_on_c, 0, 70, 100
12, 131598, Note_on_c, 0, 70, 0
12, 132368, Note_on_c, 0, 58, 100
12, 133540, Note_on_c, 0, 70, 100
12, 133710, Note_on_c, 0, 70, 0
12, 133898, Note_on_c, 0, 58, 0
12, 145920, Note_on_c, 0, 58, 100
12, 146174, Note_on_c, 0, 58, 0
12, 146184, Note_on_c, 0, 58, 100
12, 146294, Note_on_c, 0, 58, 0
12, 150528, Note_on_c, 0, 58, 100
12, 150646, Note_on_c, 0, 58, 0
12, 150789, Note_on_c, 0, 58, 100
12, 150907, Note_on_c, 0, 58, 0
12, 152448, Note_on_c, 0, 70, 100
12, 152702, Note_on_c, 0, 70, 0
12, 152709, Note_on_c, 0, 70, 100
12, 152827, Note_on_c, 0, 70, 0
12, 152832, Note_on_c, 0, 70, 100
12, 153407, Note_on_c, 0, 70, 0
12, 156672, Note_on_c, 0, 58, 100
12, 156926, Note_on_c, 0, 58, 0
12, 156928, Note_on_c, 0, 58, 100
12, 157046, Note_on_c, 0, 58, 0
12, 158208, Note_on_c, 0, 46, 100
12, 158462, Note_on_c, 0, 46, 0
12, 158464, Note_on_c, 0, 46, 100
12, 158582, Note_on_c, 0, 46, 0
12, 158592, Note_on_c, 0, 58, 100
12, 158846, Note_on_c, 0, 58, 0
12, 158848, Note_on_c, 0, 58, 100
12, 158966, Note_on_c, 0, 58, 0
12, 159744, Note_on_c, 0, 58, 100
12, 159862, Note_on_c, 0, 58, 0
12, 160128, Note_on_c, 0, 58, 100
12, 160246, Note_on_c, 0, 58, 0
12, 160512, Note_on_c, 0, 58, 100
12, 160630, Note_on_c, 0, 58, 0
12, 160896, Note_on_c, 0, 58, 100
12, 161014, Note_on_c, 0, 58, 0
12, 161280, Note_on_c, 0, 58, 100
12, 161398, Note_on_c, 0, 58, 0
12, 161664, Note_on_c, 0, 58, 100
12, 161782, Note_on_c, 0, 58, 0
12, 162048, Note_on_c, 0, 58, 100
12, 162166, Note_on_c, 0, 58, 0
12, 162688, Note_on_c, 0, 70, 100
12, 162806, Note_on_c, 0, 70, 0
12, 162816, Note_on_c, 0, 46, 100
12, 162934, Note_on_c, 0, 46, 0
12, 163072, Note_on_c, 0, 46, 100
12, 163190, Note_on_c, 0, 46, 0
12, 164736, Note_on_c, 0, 82, 100
12, 164990, Note_on_c, 0, 82, 0
12, 164992, Note_on_c, 0, 82, 100
12, 165110, Note_on_c, 0, 82, 0
12, 165120, Note_on_c, 0, 82, 100
12, 165695, Note_on_c, 0, 82, 0
12, 168576, Note_on_c, 0, 58, 100
12, 168694, Note_on_c, 0, 58, 0
12, 170496, Note_on_c, 0, 70, 100
12, 170750, Note_on_c, 0, 70, 0
12, 170752, Note_on_c, 0, 70, 100
12, 170870, Note_on_c, 0, 70, 0
12, 172032, Note_on_c, 0, 70, 100
12, 172150, Note_on_c, 0, 70, 0
12, 172416, Note_on_c, 0, 70, 100
12, 172534, Note_on_c, 0, 70, 0
12, 172800, Note_on_c, 0, 70, 100
12, 172918, Note_on_c, 0, 70, 0
12, 173184, Note_on_c, 0, 70, 100
12, 173302, Note_on_c, 0, 70, 0
12, 173568, Note_on_c, 0, 70, 100
12, 173686, Note_on_c, 0, 70, 0
12, 173952, Note_on_c, 0, 70, 100
12, 174070, Note_on_c, 0, 70, 0
12, 174336, Note_on_c, 0, 70, 100
12, 174454, Note_on_c, 0, 70, 0
12, 176256, Note_on_c, 0, 70, 100
12, 176374, Note_on_c, 0, 70, 0
12, 176512, Note_on_c, 0, 70, 100
12, 176630, Note_on_c, 0, 70, 0
12, 176768, Note_on_c, 0, 70, 100
12, 176886, Note_on_c, 0, 70, 0
12, 178048, Note_on_c, 0, 70, 100
12, 178166, Note_on_c, 0, 70, 0
12, 178816, Note_on_c, 0, 70, 100
12, 178934, Note_on_c, 0, 70, 0
12, 179584, Note_on_c, 0, 70, 100
12, 179702, Note_on_c, 0, 70, 0
12, 180352, Note_on_c, 0, 70, 100
12, 180470, Note_on_c, 0, 70, 0
12, 180992, Note_on_c, 0, 70, 100
12, 181110, Note_on_c, 0, 70, 0
12, 182016, Note_on_c, 0, 70, 100
12, 182134, Note_on_c, 0, 70, 0
12, 182400, Note_on_c, 0, 70, 100
12, 182518, Note_on_c, 0, 70, 0
12, 182656, Note_on_c, 0, 70, 100
12, 182774, Note_on_c, 0, 70, 0
12, 184320, Note_on_c, 0, 58, 100
12, 184574, Note_on_c, 0, 58, 0
12, 184576, Note_on_c, 0, 58, 100
12, 184694, Note_on_c, 0, 58, 0
12, 184704, Note_on_c, 0, 70, 100
12, 184958, Note_on_c, 0, 70, 0
12, 184960, Note_on_c, 0, 70, 100
12, 185078, Note_on_c, 0, 70, 0
12, 185856, Note_on_c, 0, 58, 100
12, 185974, Note_on_c, 0, 58, 0
12, 186240, Note_on_c, 0, 58, 100
12, 186358, Note_on_c, 0, 58, 0
12, 186624, Note_on_c, 0, 58, 100
12, 186742, Note_on_c, 0, 58, 0
12, 187008, Note_on_c, 0, 58, 100
12, 187126, Note_on_c, 0, 58, 0
12, 187392, Note_on_c, 0, 58, 100
12, 187510, Note_on_c, 0, 58, 0
12, 187776, Note_on_c, 0, 58, 100
12, 187894, Note_on_c, 0, 58, 0
12, 188160, Note_on_c, 0, 58, 100
12, 188414, Note_on_c, 0, 58, 0
12, 188544, Note_on_c, 0, 58, 100
12, 188798, Note_on_c, 0, 58, 0
12, 189312, Note_on_c, 0, 58, 100
12, 189566, Note_on_c, 0, 58, 0
12, 190336, Note_on_c, 0, 70, 100
12, 190454, Note_on_c, 0, 70, 0
12, 190720, Note_on_c, 0, 70, 100
12, 190838, Note_on_c, 0, 70, 0
12, 190976, Note_on_c, 0, 70, 100
12, 191094, Note_on_c, 0, 70, 0
12, 193152, Note_on_c, 0, 58, 100
12, 193270, Note_on_c, 0, 58, 0
12, 193408, Note_on_c, 0, 58, 100
12, 193526, Note_on_c, 0, 58, 0
12, 193664, Note_on_c, 0, 58, 100
12, 193782, Note_on_c, 0, 58, 0
12, 194944, Note_on_c, 0, 70, 100
12, 195062, Note_on_c, 0, 70, 0
12, 195712, Note_on_c, 0, 70, 100
12, 195830, Note_on_c, 0, 70, 0
12, 196480, Note_on_c, 0, 70, 100
12, 196598, Note_on_c, 0, 70, 0
12, 197248, Note_on_c, 0, 70, 100
12, 197366, Note_on_c, 0, 70, 0
12, 198144, Note_on_c, 0, 70, 100
12, 198398, Note_on_c, 0, 70, 0
12, 198400, Note_on_c, 0, 70, 100
12, 198518, Note_on_c, 0, 70, 0
12, 199680, Note_on_c, 0, 46, 100
12, 199934, Note_on_c, 0, 46, 0
12, 199936, Note_on_c, 0, 46, 100
12, 200054, Note_on_c, 0, 46, 0
12, 201216, Note_on_c, 0, 70, 100
12, 201334, Note_on_c, 0, 70, 0
12, 201600, Note_on_c, 0, 70, 100
12, 201718, Note_on_c, 0, 70, 0
12, 201984, Note_on_c, 0, 70, 100
12, 202102, Note_on_c, 0, 70, 0
12, 202368, Note_on_c, 0, 70, 100
12, 202486, Note_on_c, 0, 70, 0
12, 202752, Note_on_c, 0, 70, 100
12, 202870, Note_on_c, 0, 70, 0
12, 203136, Note_on_c, 0, 70, 100
12, 203254, Note_on_c, 0, 70, 0
12, 203520, Note_on_c, 0, 70, 100
12, 203638, Note_on_c, 0, 70, 0
12, 205440, Note_on_c, 0, 58, 100
12, 205558, Note_on_c, 0, 58, 0
12, 206336, Note_on_c, 0, 58, 100
12, 206454, Note_on_c, 0, 58, 0
12, 206592, Note_on_c, 0, 58, 100
12, 206710, Note_on_c, 0, 58, 0
12, 207232, Note_on_c, 0, 58, 100
12, 207350, Note_on_c, 0, 58, 0
12, 208512, Note_on_c, 0, 70, 100
12, 208630, Note_on_c, 0, 70, 0
12, 208768, Note_on_c, 0, 70, 100
12, 208886, Note_on_c, 0, 70, 0
12, 209024, Note_on_c, 0, 70, 100
12, 209142, Note_on_c, 0, 70, 0
12, 210304, Note_on_c, 0, 82, 100
12, 210422, Note_on_c, 0, 82, 0
12, 211072, Note_on_c, 0, 82, 100
12, 211190, Note_on_c, 0, 82, 0
12, 211840, Note_on_c, 0, 82, 100
12, 211958, Note_on_c, 0, 82, 0
12, 212608, Note_on_c, 0, 82, 100
12, 212726, Note_on_c, 0, 82, 0
12, 213120, Note_on_c, 0, 58, 100
12, 213238, Note_on_c, 0, 58, 0
12, 213376, Note_on_c, 0, 82, 100
12, 213494, Note_on_c, 0, 82, 0
12, 214272, Note_on_c, 0, 46, 100
12, 214390, Note_on_c, 0, 46, 0
12, 214528, Note_on_c, 0, 46, 100
12, 214646, Note_on_c, 0, 46, 0
12, 216192, Note_on_c, 0, 58, 100
12, 216446, Note_on_c, 0, 58, 0
12, 216448, Note_on_c, 0, 58, 100
12, 216566, Note_on_c, 0, 58, 0
12, 216576, Note_on_c, 0, 58, 100
12, 217151, Note_on_c, 0, 58, 0
12, 220672, Note_on_c, 0, 58, 100
12, 220790, Note_on_c, 0, 58, 0
12, 220928, Note_on_c, 0, 58, 100
12, 221046, Note_on_c, 0, 58, 0
12, 221184, Note_on_c, 0, 58, 100
12, 221564, Note_on_c, 0, 58, 0
12, 222720, Note_on_c, 0, 70, 100
12, 222974, Note_on_c, 0, 70, 0
12, 222976, Note_on_c, 0, 70, 100
12, 223094, Note_on_c, 0, 70, 0
12, 223360, Note_on_c, 0, 70, 100
12, 223478, Note_on_c, 0, 70, 0
12, 224256, Note_on_c, 0, 58, 100
12, 224374, Note_on_c, 0, 58, 0
12, 224640, Note_on_c, 0, 58, 100
12, 224758, Note_on_c, 0, 58, 0
12, 225024, Note_on_c, 0, 58, 100
12, 225142, Note_on_c, 0, 58, 0
12, 225408, Note_on_c, 0, 58, 100
12, 225526, Note_on_c, 0, 58, 0
12, 225792, Note_on_c, 0, 58, 100
12, 225910, Note_on_c, 0, 58, 0
12, 226176, Note_on_c, 0, 58, 100
12, 226294, Note_on_c, 0, 58, 0
12, 226560, Note_on_c, 0, 58, 100
12, 226678, Note_on_c, 0, 58, 0
12, 228096, Note_on_c, 0, 70, 100
12, 228214, Note_on_c, 0, 70, 0
12, 228352, Note_on_c, 0, 70, 100
12, 228470, Note_on_c, 0, 70, 0
12, 233856, Note_on_c, 0, 70, 100
12, 233974, Note_on_c, 0, 70, 0
12, 234112, Note_on_c, 0, 70, 100
12, 234230, Note_on_c, 0, 70, 0
12, 234368, Note_on_c, 0, 70, 100
12, 234486, Note_on_c, 0, 70, 0
12, 234752, Note_on_c, 0, 70, 100
12, 234870, Note_on_c, 0, 70, 0
12, 240128, Note_on_c, 0, 70, 100
12, 240246, Note_on_c, 0, 70, 0
12, 240384, Note_on_c, 0, 58, 100
12, 240502, Note_on_c, 0, 58, 0
12, 240640, Note_on_c, 0, 58, 100
12, 240758, Note_on_c, 0, 58, 0
12, 246912, Note_on_c, 0, 58, 100
12, 247030, Note_on_c, 0, 58, 0
12, 247040, Note_on_c, 0, 46, 100
12, 247158, Note_on_c, 0, 46, 0
12, 247168, Note_on_c, 0, 58, 100
12, 247168, Note_on_c, 0, 70, 100
12, 247286, Note_on_c, 0, 70, 0
12, 247286, Note_on_c, 0, 58, 0
12, 247552, Note_on_c, 0, 58, 100
12, 247670, Note_on_c, 0, 58, 0
12, 248448, Note_on_c, 0, 58, 100
12, 248448, Note_on_c, 0, 70, 100
12, 248566, Note_on_c, 0, 58, 0
12, 248576, Note_on_c, 0, 46, 100
12, 248694, Note_on_c, 0, 46, 0
12, 248702, Note_on_c, 0, 70, 0
12, 248704, Note_on_c, 0, 58, 100
12, 248704, Note_on_c, 0, 70, 100
12, 248822, Note_on_c, 0, 70, 0
12, 248822, Note_on_c, 0, 58, 0
12, 250368, Note_on_c, 0, 70, 100
12, 250496, Note_on_c, 0, 46, 100
12, 250614, Note_on_c, 0, 46, 0
12, 250943, Note_on_c, 0, 70, 0
12, 251136, Note_on_c, 0, 70, 100
12, 251264, Note_on_c, 0, 46, 100
12, 251382, Note_on_c, 0, 46, 0
12, 251711, Note_on_c, 0, 70, 0
12, 252032, Note_on_c, 0, 70, 100
12, 252150, Note_on_c, 0, 70, 0
12, 252544, Note_on_c, 0, 46, 100
12, 252662, Note_on_c, 0, 46, 0
12, 253312, Note_on_c, 0, 46, 100
12, 253430, Note_on_c, 0, 46, 0
12, 253696, Note_on_c, 0, 70, 100
12, 253814, Note_on_c, 0, 70, 0
12, 253952, Note_on_c, 0, 70, 100
12, 254070, Note_on_c, 0, 70, 0
12, 254208, Note_on_c, 0, 58, 100
12, 254326, Note_on_c, 0, 58, 0
12, 254592, Note_on_c, 0, 58, 100
12, 254710, Note_on_c, 0, 58, 0
12, 255104, Note_on_c, 0, 70, 100
12, 255222, Note_on_c, 0, 70, 0
12, 255232, Note_on_c, 0, 58, 100
12, 255350, Note_on_c, 0, 58, 0
12, 255616, Note_on_c, 0, 58, 100
12, 255616, Note_on_c, 0, 70, 100
12, 255734, Note_on_c, 0, 70, 0
12, 255734, Note_on_c, 0, 58, 0
12, 256128, Note_on_c, 0, 46, 100
12, 256382, Note_on_c, 0, 46, 0
12, 256512, Note_on_c, 0, 70, 100
12, 256630, Note_on_c, 0, 70, 0
12, 258048, Note_on_c, 0, 46, 100
12, 258176, Note_on_c, 0, 70, 100
12, 258294, Note_on_c, 0, 70, 0
12, 258623, Note_on_c, 0, 46, 0
12, 258816, Note_on_c, 0, 58, 100
12, 259070, Note_on_c, 0, 58, 0
12, 259072, Note_on_c, 0, 58, 100
12, 259190, Note_on_c, 0, 58, 0
12, 260352, Note_on_c, 0, 58, 100
12, 260470, Note_on_c, 0, 58, 0
12, 260608, Note_on_c, 0, 58, 100
12, 260726, Note_on_c, 0, 58, 0
12, 260736, Note_on_c, 0, 70, 100
12, 260854, Note_on_c, 0, 70, 0
12, 260864, Note_on_c, 0, 58, 100
12, 260982, Note_on_c, 0, 58, 0
12, 260992, Note_on_c, 0, 70, 100
12, 261110, Note_on_c, 0, 70, 0
12, 261248, Note_on_c, 0, 58, 100
12, 261366, Note_on_c, 0, 58, 0
12, 261888, Note_on_c, 0, 58, 100
12, 262142, Note_on_c, 0, 58, 0
12, 262272, Note_on_c, 0, 58, 100
12, 262526, Note_on_c, 0, 58, 0
12, 262656, Note_on_c, 0, 58, 100
12, 262910, Note_on_c, 0, 58, 0
12, 263040, Note_on_c, 0, 58, 100
12, 263294, Note_on_c, 0, 58, 0
12, 263424, Note_on_c, 0, 58, 100
12, 263678, Note_on_c, 0, 58, 0
12, 263808, Note_on_c, 0, 58, 100
12, 264062, Note_on_c, 0, 58, 0
12, 264192, Note_on_c, 0, 58, 100
12, 264446, Note_on_c, 0, 58, 0
12, 264448, Note_on_c, 0, 70, 100
12, 264566, Note_on_c, 0, 70, 0
12, 264576, Note_on_c, 0, 58, 100
12, 264694, Note_on_c, 0, 58, 0
12, 265984, Note_on_c, 0, 58, 100
12, 266102, Note_on_c, 0, 58, 0
12, 266240, Note_on_c, 0, 58, 100
12, 266358, Note_on_c, 0, 58, 0
12, 267264, Note_on_c, 0, 46, 100
12, 267264, Note_on_c, 0, 70, 100
12, 267382, Note_on_c, 0, 46, 0
12, 267518, Note_on_c, 0, 70, 0
12, 267520, Note_on_c, 0, 70, 100
12, 267638, Note_on_c, 0, 70, 0
12, 267648, Note_on_c, 0, 58, 100
12, 267648, Note_on_c, 0, 70, 100
12, 267766, Note_on_c, 0, 70, 0
12, 267902, Note_on_c, 0, 58, 0
12, 267904, Note_on_c, 0, 46, 100
12, 268022, Note_on_c, 0, 46, 0
12, 269184, Note_on_c, 0, 46, 100
12, 269184, Note_on_c, 0, 70, 100
12, 269438, Note_on_c, 0, 70, 0
12, 269438, Note_on_c, 0, 46, 0
12, 269440, Note_on_c, 0, 46, 100
12, 269440, Note_on_c, 0, 70, 100
12, 269558, Note_on_c, 0, 70, 0
12, 269558, Note_on_c, 0, 46, 0
12, 269568, Note_on_c, 0, 70, 100
12, 269822, Note_on_c, 0, 70, 0
12, 269824, Note_on_c, 0, 70, 100
12, 269942, Note_on_c, 0, 70, 0
12, 270720, Note_on_c, 0, 58, 100
12, 270974, Note_on_c, 0, 58, 0
12, 270976, Note_on_c, 0, 58, 100
12, 271094, Note_on_c, 0, 58, 0
12, 271104, Note_on_c, 0, 58, 100
12, 271679, Note_on_c, 0, 58, 0
12, 272128, Note_on_c, 0, 70, 100
12, 272246, Note_on_c, 0, 70, 0
12, 272384, Note_on_c, 0, 70, 100
12, 272502, Note_on_c, 0, 70, 0
12, 272896, Note_on_c, 0, 70, 100
12, 273014, Note_on_c, 0, 70, 0
12, 273152, Note_on_c, 0, 70, 100
12, 273270, Note_on_c, 0, 70, 0
12, 273664, Note_on_c, 0, 46, 100
12, 273782, Note_on_c, 0, 46, 0
12, 273920, Note_on_c, 0, 46, 100
12, 274038, Note_on_c, 0, 46, 0
12, 274048, Note_on_c, 0, 58, 100
12, 274166, Note_on_c, 0, 58, 0
12, 274432, Note_on_c, 0, 46, 100
12, 274550, Note_on_c, 0, 46, 0
12, 274560, Note_on_c, 0, 58, 100
12, 274678, Note_on_c, 0, 58, 0
12, 275584, Note_on_c, 0, 70, 100
12, 275702, Note_on_c, 0, 70, 0
12, 276224, Note_on_c, 0, 58, 100
12, 276342, Note_on_c, 0, 58, 0
12, 276608, Note_on_c, 0, 70, 100
12, 276726, Note_on_c, 0, 70, 0
12, 279168, Note_on_c, 0, 58, 100
12, 279286, Note_on_c, 0, 58, 0
12, 279424, Note_on_c, 0, 58, 100
12, 279542, Note_on_c, 0, 58, 0
12, 279680, Note_on_c, 0, 58, 100
12, 279798, Note_on_c, 0, 58, 0
12, 280064, Note_on_c, 0, 58, 100
12, 280182, Note_on_c, 0, 58, 0
12, 280320, Note_on_c, 0, 70, 100
12, 280574, Note_on_c, 0, 70, 0
12, 284416, Note_on_c, 0, 46, 100
12, 284534, Note_on_c, 0, 46, 0
12, 286336, Note_on_c, 0, 58, 100
12, 286336, Note_on_c, 0, 70, 100
12, 286454, Note_on_c, 0, 70, 0
12, 286454, Note_on_c, 0, 58, 0
12, 286592, Note_on_c, 0, 70, 100
12, 286710, Note_on_c, 0, 70, 0
12, 286976, Note_on_c, 0, 70, 100
12, 287094, Note_on_c, 0, 70, 0
12, 287232, Note_on_c, 0, 70, 100
12, 287612, Note_on_c, 0, 70, 0
12, 287616, Note_on_c, 0, 58, 100
12, 287870, Note_on_c, 0, 58, 0
12, 287872, Note_on_c, 0, 58, 100
12, 287990, Note_on_c, 0, 58, 0
12, 289536, Note_on_c, 0, 82, 100
12, 289654, Note_on_c, 0, 82, 0
12, 289920, Note_on_c, 0, 82, 100
12, 290038, Note_on_c, 0, 82, 0
12, 290304, Note_on_c, 0, 82, 100
12, 290558, Note_on_c, 0, 82, 0
12, 290688, Note_on_c, 0, 58, 100
12, 290806, Note_on_c, 0, 58, 0
12, 291072, Note_on_c, 0, 58, 100
12, 291326, Note_on_c, 0, 58, 0
12, 291456, Note_on_c, 0, 70, 100
12, 291574, Note_on_c, 0, 70, 0
12, 291840, Note_on_c, 0, 70, 100
12, 291958, Note_on_c, 0, 70, 0
12, 292096, Note_on_c, 0, 58, 100
12, 292214, Note_on_c, 0, 58, 0
12, 292224, Note_on_c, 0, 70, 100
12, 292342, Note_on_c, 0, 70, 0
12, 294144, Note_on_c, 0, 46, 100
12, 294144, Note_on_c, 0, 58, 100
12, 294398, Note_on_c, 0, 58, 0
12, 294398, Note_on_c, 0, 46, 0
12, 294400, Note_on_c, 0, 46, 100
12, 294400, Note_on_c, 0, 58, 100
12, 294518, Note_on_c, 0, 58, 0
12, 294518, Note_on_c, 0, 46, 0
12, 295680, Note_on_c, 0, 58, 100
12, 295798, Note_on_c, 0, 58, 0
12, 296064, Note_on_c, 0, 58, 100
12, 296182, Note_on_c, 0, 58, 0
12, 296448, Note_on_c, 0, 58, 100
12, 296568, Note_on_c, 0, 58, 0
12, 296832, Note_on_c, 0, 46, 100
12, 296950, Note_on_c, 0, 46, 0
12, 297216, Note_on_c, 0, 46, 100
12, 297600, Note_on_c, 0, 58, 100
12, 297718, Note_on_c, 0, 58, 0
12, 297791, Note_on_c, 0, 46, 0
12, 297984, Note_on_c, 0, 58, 100
12, 298238, Note_on_c, 0, 58, 0
12, 298368, Note_on_c, 0, 58, 100
12, 298486, Note_on_c, 0, 58, 0
12, 298624, Note_on_c, 0, 70, 100
12, 298742, Note_on_c, 0, 70, 0
12, 300160, Note_on_c, 0, 70, 100
12, 300278, Note_on_c, 0, 70, 0
12, 300416, Note_on_c, 0, 70, 100
12, 300534, Note_on_c, 0, 70, 0
12, 301696, Note_on_c, 0, 82, 100
12, 301814, Note_on_c, 0, 82, 0
12, 302464, Note_on_c, 0, 82, 100
12, 302582, Note_on_c, 0, 82, 0
12, 303232, Note_on_c, 0, 70, 100
12, 303350, Note_on_c, 0, 70, 0
12, 304000, Note_on_c, 0, 70, 100
12, 304118, Note_on_c, 0, 70, 0
12, 304640, Note_on_c, 0, 70, 100
12, 304758, Note_on_c, 0, 70, 0
12, 304896, Note_on_c, 0, 70, 100
12, 305150, Note_on_c, 0, 70, 0
12, 305280, Note_on_c, 0, 58, 100
12, 305398, Note_on_c, 0, 58, 0
12, 305536, Note_on_c, 0, 70, 100
12, 305654, Note_on_c, 0, 70, 0
12, 307200, Note_on_c, 0, 58, 100
12, 307454, Note_on_c, 0, 58, 0
12, 307456, Note_on_c, 0, 58, 100
12, 307574, Note_on_c, 0, 58, 0
12, 308736, Note_on_c, 0, 46, 100
12, 308736, Note_on_c, 0, 58, 100
12, 308854, Note_on_c, 0, 46, 0
12, 309118, Note_on_c, 0, 58, 0
12, 309120, Note_on_c, 0, 46, 100
12, 309120, Note_on_c, 0, 58, 100
12, 309238, Note_on_c, 0, 46, 0
12, 309374, Note_on_c, 0, 58, 0
12, 309504, Note_on_c, 0, 46, 100
12, 309504, Note_on_c, 0, 58, 100
12, 309622, Note_on_c, 0, 58, 0
12, 309758, Note_on_c, 0, 46, 0
12, 309888, Note_on_c, 0, 58, 100
12, 310006, Note_on_c, 0, 58, 0
12, 310272, Note_on_c, 0, 58, 100
12, 310392, Note_on_c, 0, 58, 0
12, 310400, Note_on_c, 0, 70, 100
12, 310518, Note_on_c, 0, 70, 0
12, 310656, Note_on_c, 0, 70, 100
12, 310774, Note_on_c, 0, 70, 0
12, 311040, Note_on_c, 0, 58, 100
12, 311040, Note_on_c, 0, 70, 100
12, 311158, Note_on_c, 0, 70, 0
12, 311158, Note_on_c, 0, 58, 0
12, 311168, Note_on_c, 0, 58, 100
12, 311168, Note_on_c, 0, 70, 100
12, 311286, Note_on_c, 0, 70, 0
12, 311286, Note_on_c, 0, 58, 0
12, 311424, Note_on_c, 0, 58, 100
12, 311424, Note_on_c, 0, 70, 100
12, 311542, Note_on_c, 0, 70, 0
12, 311542, Note_on_c, 0, 58, 0
12, 311808, Note_on_c, 0, 58, 100
12, 311808, Note_on_c, 0, 70, 100
12, 311926, Note_on_c, 0, 70, 0
12, 311926, Note_on_c, 0, 58, 0
12, 311936, Note_on_c, 0, 58, 100
12, 311936, Note_on_c, 0, 70, 100
12, 312054, Note_on_c, 0, 70, 0
12, 312054, Note_on_c, 0, 58, 0
12, 312192, Note_on_c, 0, 58, 100
12, 312192, Note_on_c, 0, 70, 100
12, 312310, Note_on_c, 0, 70, 0
12, 312310, Note_on_c, 0, 58, 0
12, 312576, Note_on_c, 0, 58, 100
12, 312576, Note_on_c, 0, 70, 100
12, 312694, Note_on_c, 0, 70, 0
12, 312830, Note_on_c, 0, 58, 0
12, 313344, Note_on_c, 0, 58, 100
12, 313728, Note_on_c, 0, 82, 100
12, 313824, Note_on_c, 0, 58, 0
12, 313844, Note_on_c, 0, 82, 0
12, 314880, Note_on_c, 0, 70, 100
12, 315070, Note_on_c, 0, 70, 0
12, 315264, Note_on_c, 0, 70, 100
12, 315380, Note_on_c, 0, 70, 0
12, 316416, Note_on_c, 0, 58, 100
12, 316606, Note_on_c, 0, 58, 0
12, 316800, Note_on_c, 0, 58, 100
12, 316916, Note_on_c, 0, 58, 0
12, 317952, Note_on_c, 0, 46, 100
12, 318142, Note_on_c, 0, 46, 0
12, 318336, Note_on_c, 0, 46, 100
12, 318452, Note_on_c, 0, 46, 0
12, 319488, Note_on_c, 0, 46, 100
12, 319678, Note_on_c, 0, 46, 0
12, 319872, Note_on_c, 0, 58, 100
12, 319988, Note_on_c, 0, 58, 0
12, 320640, Note_on_c, 0, 58, 100
12, 320750, Note_on_c, 0, 58, 0
12, 321792, Note_on_c, 0, 46, 100
12, 321982, Note_on_c, 0, 46, 0
12, 322560, Note_on_c, 0, 46, 100
12, 322665, Note_on_c, 0, 46, 0
12, 322665, End_track
13, 0, Start_track
13, 0, Title_t, "Harpsichord"
13, 0, Program_c, 0, 6
13, 0, Control_c, 0, 7, 100
13, 0, Control_c, 0, 10, 64
13, 0, Pitch_bend_c, 0, 7872
13, 5230, Note_on_c, 0, 59, 100
13, 5324, Note_on_c, 0, 59, 0
13, 16182, Note_on_c, 0, 59, 100
13, 16230, Note_on_c, 0, 59, 0
13, 17472, Note_on_c, 0, 59, 100
13, 17662, Note_on_c, 0, 59, 0
13, 18048, Note_on_c, 0, 59, 100
13, 18142, Note_on_c, 0, 59, 0
13, 20352, Note_on_c, 0, 59, 100
13, 20542, Note_on_c, 0, 59, 0
13, 20928, Note_on_c, 0, 59, 100
13, 20991, Note_on_c, 0, 59, 0
13, 21048, Note_on_c, 0, 59, 100
13, 21111, Note_on_c, 0, 59, 0
13, 21168, Note_on_c, 0, 59, 100
13, 21231, Note_on_c, 0, 59, 0
13, 21288, Note_on_c, 0, 59, 100
13, 21768, Note_on_c, 0, 59, 0
13, 22848, Note_on_c, 0, 71, 100
13, 23038, Note_on_c, 0, 71, 0
13, 32922, Note_on_c, 0, 71, 100
13, 33020, Note_on_c, 0, 71, 0
13, 89688, Note_on_c, 0, 71, 100
13, 89782, Note_on_c, 0, 71, 0
13, 92400, Note_on_c, 0, 71, 100
13, 92494, Note_on_c, 0, 71, 0
13, 93168, Note_on_c, 0, 59, 100
13, 93262, Note_on_c, 0, 59, 0
13, 94128, Note_on_c, 0, 71, 100
13, 94318, Note_on_c, 0, 71, 0
13, 122000, Note_on_c, 0, 47, 100
13, 122382, Note_on_c, 0, 47, 0
13, 122384, Note_on_c, 0, 47, 100
13, 122766, Note_on_c, 0, 47, 0
13, 122768, Note_on_c, 0, 47, 100
13, 123150, Note_on_c, 0, 47, 0
13, 135056, Note_on_c, 0, 71, 100
13, 135150, Note_on_c, 0, 71, 0
13, 136592, Note_on_c, 0, 83, 100
13, 136686, Note_on_c, 0, 83, 0
13, 139280, Note_on_c, 0, 59, 100
13, 139660, Note_on_c, 0, 59, 0
13, 139664, Note_on_c, 0, 59, 100
13, 139758, Note_on_c, 0, 59, 0
13, 140432, Note_on_c, 0, 47, 100
13, 140526, Note_on_c, 0, 47, 0
13, 141584, Note_on_c, 0, 59, 100
13, 143784, Note_on_c, 0, 59, 0
13, 150912, Note_on_c, 0, 59, 100
13, 151030, Note_on_c, 0, 59, 0
13, 151173, Note_on_c, 0, 59, 100
13, 151291, Note_on_c, 0, 59, 0
13, 151424, Note_on_c, 0, 59, 100
13, 151542, Note_on_c, 0, 59, 0
13, 151808, Note_on_c, 0, 59, 100
13, 151926, Note_on_c, 0, 59, 0
13, 163200, Note_on_c, 0, 47, 100
13, 163318, Note_on_c, 0, 47, 0
13, 163456, Note_on_c, 0, 47, 100
13, 163574, Note_on_c, 0, 47, 0
13, 163712, Note_on_c, 0, 47, 100
13, 163830, Note_on_c, 0, 47, 0
13, 164096, Note_on_c, 0, 47, 100
13, 164214, Note_on_c, 0, 47, 0
13, 175872, Note_on_c, 0, 71, 100
13, 175990, Note_on_c, 0, 71, 0
13, 176128, Note_on_c, 0, 71, 100
13, 176246, Note_on_c, 0, 71, 0
13, 192768, Note_on_c, 0, 59, 100
13, 192886, Note_on_c, 0, 59, 0
13, 193024, Note_on_c, 0, 59, 100
13, 193142, Note_on_c, 0, 59, 0
13, 205184, Note_on_c, 0, 71, 100
13, 205302, Note_on_c, 0, 71, 0
13, 208128, Note_on_c, 0, 71, 100
13, 208246, Note_on_c, 0, 71, 0
13, 208384, Note_on_c, 0, 71, 100
13, 208502, Note_on_c, 0, 71, 0
13, 214656, Note_on_c, 0, 47, 100
13, 214774, Note_on_c, 0, 47, 0
13, 214912, Note_on_c, 0, 47, 100
13, 215030, Note_on_c, 0, 47, 0
13, 215168, Note_on_c, 0, 47, 100
13, 215286, Note_on_c, 0, 47, 0
13, 228480, Note_on_c, 0, 71, 100
13, 228598, Note_on_c, 0, 71, 0
13, 228736, Note_on_c, 0, 71, 100
13, 228854, Note_on_c, 0, 71, 0
13, 228992, Note_on_c, 0, 71, 100
13, 229110, Note_on_c, 0, 71, 0
13, 230272, Note_on_c, 0, 59, 100
13, 230390, Note_on_c, 0, 59, 0
13, 231040, Note_on_c, 0, 59, 100
13, 231158, Note_on_c, 0, 59, 0
13, 231808, Note_on_c, 0, 71, 100
13, 231926, Note_on_c, 0, 71, 0
13, 232576, Note_on_c, 0, 59, 100
13, 232694, Note_on_c, 0, 59, 0
13, 233472, Note_on_c, 0, 71, 100
13, 233590, Note_on_c, 0, 71, 0
13, 233728, Note_on_c, 0, 71, 100
13, 233846, Note_on_c, 0, 71, 0
13, 235392, Note_on_c, 0, 47, 100
13, 235646, Note_on_c, 0, 47, 0
13, 235648, Note_on_c, 0, 47, 100
13, 235766, Note_on_c, 0, 47, 0
13, 235776, Note_on_c, 0, 47, 100
13, 236351, Note_on_c, 0, 47, 0
13, 237184, Note_on_c, 0, 71, 100
13, 237302, Note_on_c, 0, 71, 0
13, 237568, Note_on_c, 0, 71, 100
13, 237686, Note_on_c, 0, 71, 0
13, 238720, Note_on_c, 0, 71, 100
13, 238838, Note_on_c, 0, 71, 0
13, 239488, Note_on_c, 0, 71, 100
13, 239606, Note_on_c, 0, 71, 0
13, 240768, Note_on_c, 0, 59, 100
13, 240886, Note_on_c, 0, 59, 0
13, 241024, Note_on_c, 0, 59, 100
13, 241142, Note_on_c, 0, 59, 0
13, 241280, Note_on_c, 0, 59, 100
13, 241398, Note_on_c, 0, 59, 0
13, 242560, Note_on_c, 0, 47, 100
13, 242678, Note_on_c, 0, 47, 0
13, 242944, Note_on_c, 0, 71, 100
13, 243062, Note_on_c, 0, 71, 0
13, 243328, Note_on_c, 0, 47, 100
13, 243446, Note_on_c, 0, 47, 0
13, 243712, Note_on_c, 0, 71, 100
13, 243830, Note_on_c, 0, 71, 0
13, 244096, Note_on_c, 0, 47, 100
13, 244214, Note_on_c, 0, 47, 0
13, 244480, Note_on_c, 0, 71, 100
13, 244598, Note_on_c, 0, 71, 0
13, 244864, Note_on_c, 0, 47, 100
13, 244982, Note_on_c, 0, 47, 0
13, 245760, Note_on_c, 0, 59, 100
13, 245878, Note_on_c, 0, 59, 0
13, 246016, Note_on_c, 0, 59, 100
13, 246134, Note_on_c, 0, 59, 0
13, 259968, Note_on_c, 0, 59, 100
13, 260086, Note_on_c, 0, 59, 0
13, 260224, Note_on_c, 0, 59, 100
13, 260342, Note_on_c, 0, 59, 0
13, 278016, Note_on_c, 0, 71, 100
13, 278134, Note_on_c, 0, 71, 0
13, 278272, Note_on_c, 0, 59, 100
13, 278390, Note_on_c, 0, 59, 0
13, 278784, Note_on_c, 0, 59, 100
13, 278902, Note_on_c, 0, 59, 0
13, 279040, Note_on_c, 0, 59, 100
13, 279158, Note_on_c, 0, 59, 0
13, 280704, Note_on_c, 0, 47, 100
13, 280958, Note_on_c, 0, 47, 0
13, 280960, Note_on_c, 0, 47, 100
13, 281078, Note_on_c, 0, 47, 0
13, 281088, Note_on_c, 0, 47, 100
13, 281663, Note_on_c, 0, 47, 0
13, 282112, Note_on_c, 0, 71, 100
13, 282230, Note_on_c, 0, 71, 0
13, 282368, Note_on_c, 0, 71, 100
13, 282486, Note_on_c, 0, 71, 0
13, 282880, Note_on_c, 0, 71, 100
13, 282998, Note_on_c, 0, 71, 0
13, 284032, Note_on_c, 0, 47, 100
13, 284150, Note_on_c, 0, 47, 0
13, 285568, Note_on_c, 0, 71, 100
13, 285686, Note_on_c, 0, 71, 0
13, 299904, Note_on_c, 0, 71, 100
13, 300022, Note_on_c, 0, 71, 0
13, 326232, Note_on_c, 0, 59, 100
13, 328482, Note_on_c, 0, 59, 0
13, 328482, End_track
0, 0, End_of_file
