0, 0, Header, 1, 5, 240
1, 0, Start_track
1, 0, Title_t, "--------"
1, 0, Time_signature, 4, 2, 24, 8
1, 0, Key_signature, 0, "major"
1, 0, Tempo, 666667
1, 49200, Tempo, 689655
1, 49440, Tempo, 722892
1, 49680, Tempo, 759494
1, 49920, Tempo, 800000
1, 50160, Tempo, 769231
1, 50400, Tempo, 731707
1, 50640, Tempo, 697674
1, 50880, Tempo, 666667
1, 62640, Tempo, 722892
1, 62880, Tempo, 800000
1, 63120, Tempo, 882353
1, 63360, Tempo, 1000000
1, 63600, Tempo, 1000000
1, 63840, Tempo, 1000000
1, 64080, Tempo, 1000000
1, 64560, Tempo, 1000000
1, 64800, Tempo, 1000000
1, 65040, Tempo, 1000000
1, 65040, End_track
2, 0, Start_track
2, 0, Title_t, "Harpsichord"
2, 0, Program_c, 0, 6
2, 0, Control_c, 0, 7, 110
2, 0, Control_c, 0, 10, 73
2, 360, Note_on_c, 0, 62, 74
2, 408, Note_on_c, 0, 62, 0
2, 420, Note_on_c, 0, 64, 74
2, 468, Note_on_c, 0, 64, 0
2, 480, Note_on_c, 0, 65, 74
2, 523, Note_on_c, 0, 65, 0
2, 600, Note_on_c, 0, 62, 74
2, 643, Note_on_c, 0, 62, 0
2, 720, Note_on_c, 0, 69, 74
2, 763, Note_on_c, 0, 69, 0
2, 840, Note_on_c, 0, 62, 74
2, 883, Note_on_c, 0, 62, 0
2, 960, Note_on_c, 0, 61, 74
2, 1152, Note_on_c, 0, 61, 0
2, 1260, Note_on_c, 0, 69, 74
2, 1308, Note_on_c, 0, 69, 0
2, 1320, Note_on_c, 0, 67, 74
2, 1368, Note_on_c, 0, 67, 0
2, 1380, Note_on_c, 0, 69, 74
2, 1428, Note_on_c, 0, 69, 0
2, 1440, Note_on_c, 0, 65, 74
2, 1488, Note_on_c, 0, 65, 0
2, 1500, Note_on_c, 0, 69, 74
2, 1548, Note_on_c, 0, 69, 0
2, 1560, Note_on_c, 0, 62, 74
2, 1608, Note_on_c, 0, 62, 0
2, 1620, Note_on_c, 0, 65, 74
2, 1668, Note_on_c, 0, 65, 0
2, 1680, Note_on_c, 0, 70, 74
2, 1728, Note_on_c, 0, 70, 0
2, 1740, Note_on_c, 0, 67, 74
2, 1788, Note_on_c, 0, 67, 0
2, 1800, Note_on_c, 0, 62, 74
2, 1848, Note_on_c, 0, 62, 0
2, 1860, Note_on_c, 0, 65, 74
2, 1908, Note_on_c, 0, 65, 0
2, 1920, Note_on_c, 0, 64, 74
2, 1941, Note_on_c, 0, 64, 0
2, 1980, Note_on_c, 0, 67, 74
2, 2028, Note_on_c, 0, 67, 0
2, 2040, Note_on_c, 0, 60, 74
2, 2088, Note_on_c, 0, 60, 0
2, 2100, Note_on_c, 0, 64, 74
2, 2148, Note_on_c, 0, 64, 0
2, 2160, Note_on_c, 0, 69, 74
2, 2208, Note_on_c, 0, 69, 0
2, 2220, Note_on_c, 0, 65, 74
2, 2268, Note_on_c, 0, 65, 0
2, 2280, Note_on_c, 0, 60, 74
2, 2328, Note_on_c, 0, 60, 0
2, 2340, Note_on_c, 0, 64, 74
2, 2388, Note_on_c, 0, 64, 0
2, 2400, Note_on_c, 0, 62, 74
2, 2421, Note_on_c, 0, 62, 0
2, 2460, Note_on_c, 0, 65, 74
2, 2508, Note_on_c, 0, 65, 0
2, 2520, Note_on_c, 0, 58, 74
2, 2568, Note_on_c, 0, 58, 0
2, 2580, Note_on_c, 0, 62, 74
2, 2628, Note_on_c, 0, 62, 0
2, 2640, Note_on_c, 0, 67, 74
2, 2688, Note_on_c, 0, 67, 0
2, 2700, Note_on_c, 0, 64, 74
2, 2748, Note_on_c, 0, 64, 0
2, 2760, Note_on_c, 0, 59, 74
2, 2808, Note_on_c, 0, 59, 0
2, 2820, Note_on_c, 0, 62, 74
2, 2868, Note_on_c, 0, 62, 0
2, 2880, Note_on_c, 0, 61, 74
2, 2901, Note_on_c, 0, 61, 0
2, 2940, Note_on_c, 0, 64, 74
2, 2988, Note_on_c, 0, 64, 0
2, 3000, Note_on_c, 0, 57, 74
2, 3048, Note_on_c, 0, 57, 0
2, 3060, Note_on_c, 0, 61, 74
2, 3108, Note_on_c, 0, 61, 0
2, 3120, Note_on_c, 0, 64, 74
2, 3168, Note_on_c, 0, 64, 0
2, 3180, Note_on_c, 0, 67, 74
2, 3228, Note_on_c, 0, 67, 0
2, 3240, Note_on_c, 0, 61, 74
2, 3288, Note_on_c, 0, 61, 0
2, 3300, Note_on_c, 0, 64, 74
2, 3348, Note_on_c, 0, 64, 0
2, 3360, Note_on_c, 0, 67, 74
2, 3408, Note_on_c, 0, 67, 0
2, 3420, Note_on_c, 0, 70, 74
2, 3468, Note_on_c, 0, 70, 0
2, 3480, Note_on_c, 0, 64, 74
2, 3528, Note_on_c, 0, 64, 0
2, 3540, Note_on_c, 0, 67, 74
2, 3588, Note_on_c, 0, 67, 0
2, 3600, Note_on_c, 0, 61, 74
2, 3648, Note_on_c, 0, 61, 0
2, 3660, Note_on_c, 0, 70, 74
2, 3708, Note_on_c, 0, 70, 0
2, 3720, Note_on_c, 0, 69, 74
2, 3768, Note_on_c, 0, 69, 0
2, 3780, Note_on_c, 0, 67, 74
2, 3828, Note_on_c, 0, 67, 0
2, 3840, Note_on_c, 0, 65, 74
2, 3861, Note_on_c, 0, 65, 0
2, 3900, Note_on_c, 0, 69, 74
2, 3948, Note_on_c, 0, 69, 0
2, 3960, Note_on_c, 0, 62, 74
2, 4008, Note_on_c, 0, 62, 0
2, 4020, Note_on_c, 0, 65, 74
2, 4068, Note_on_c, 0, 65, 0
2, 4080, Note_on_c, 0, 57, 74
2, 4128, Note_on_c, 0, 57, 0
2, 4140, Note_on_c, 0, 64, 74
2, 4188, Note_on_c, 0, 64, 0
2, 4200, Note_on_c, 0, 62, 74
2, 4248, Note_on_c, 0, 62, 0
2, 4260, Note_on_c, 0, 61, 74
2, 4308, Note_on_c, 0, 61, 0
2, 4320, Note_on_c, 0, 62, 74
2, 4368, Note_on_c, 0, 62, 0
2, 4380, Note_on_c, 0, 65, 74
2, 4428, Note_on_c, 0, 65, 0
2, 4440, Note_on_c, 0, 59, 74
2, 4488, Note_on_c, 0, 59, 0
2, 4500, Note_on_c, 0, 62, 74
2, 4548, Note_on_c, 0, 62, 0
2, 4560, Note_on_c, 0, 56, 74
2, 4608, Note_on_c, 0, 56, 0
2, 4620, Note_on_c, 0, 62, 74
2, 4668, Note_on_c, 0, 62, 0
2, 4680, Note_on_c, 0, 60, 74
2, 4728, Note_on_c, 0, 60, 0
2, 4740, Note_on_c, 0, 59, 74
2, 4788, Note_on_c, 0, 59, 0
2, 4800, Note_on_c, 0, 72, 74
2, 4843, Note_on_c, 0, 72, 0
2, 4920, Note_on_c, 0, 69, 74
2, 4963, Note_on_c, 0, 69, 0
2, 5040, Note_on_c, 0, 76, 74
2, 5083, Note_on_c, 0, 76, 0
2, 5160, Note_on_c, 0, 69, 74
2, 5203, Note_on_c, 0, 69, 0
2, 5280, Note_on_c, 0, 68, 74
2, 5472, Note_on_c, 0, 68, 0
2, 5580, Note_on_c, 0, 76, 74
2, 5628, Note_on_c, 0, 76, 0
2, 5640, Note_on_c, 0, 74, 74
2, 5688, Note_on_c, 0, 74, 0
2, 5700, Note_on_c, 0, 76, 74
2, 5748, Note_on_c, 0, 76, 0
2, 5760, Note_on_c, 0, 72, 74
2, 5808, Note_on_c, 0, 72, 0
2, 5820, Note_on_c, 0, 76, 74
2, 5868, Note_on_c, 0, 76, 0
2, 5880, Note_on_c, 0, 69, 74
2, 5928, Note_on_c, 0, 69, 0
2, 5940, Note_on_c, 0, 72, 74
2, 5988, Note_on_c, 0, 72, 0
2, 6000, Note_on_c, 0, 77, 74
2, 6048, Note_on_c, 0, 77, 0
2, 6060, Note_on_c, 0, 74, 74
2, 6108, Note_on_c, 0, 74, 0
2, 6120, Note_on_c, 0, 69, 74
2, 6168, Note_on_c, 0, 69, 0
2, 6180, Note_on_c, 0, 72, 74
2, 6228, Note_on_c, 0, 72, 0
2, 6240, Note_on_c, 0, 71, 74
2, 6261, Note_on_c, 0, 71, 0
2, 6300, Note_on_c, 0, 74, 74
2, 6348, Note_on_c, 0, 74, 0
2, 6360, Note_on_c, 0, 67, 74
2, 6408, Note_on_c, 0, 67, 0
2, 6420, Note_on_c, 0, 71, 74
2, 6468, Note_on_c, 0, 71, 0
2, 6480, Note_on_c, 0, 76, 74
2, 6528, Note_on_c, 0, 76, 0
2, 6540, Note_on_c, 0, 72, 74
2, 6588, Note_on_c, 0, 72, 0
2, 6600, Note_on_c, 0, 67, 74
2, 6648, Note_on_c, 0, 67, 0
2, 6660, Note_on_c, 0, 71, 74
2, 6708, Note_on_c, 0, 71, 0
2, 6720, Note_on_c, 0, 69, 74
2, 6741, Note_on_c, 0, 69, 0
2, 6780, Note_on_c, 0, 72, 74
2, 6828, Note_on_c, 0, 72, 0
2, 6840, Note_on_c, 0, 65, 74
2, 6888, Note_on_c, 0, 65, 0
2, 6900, Note_on_c, 0, 69, 74
2, 6948, Note_on_c, 0, 69, 0
2, 6960, Note_on_c, 0, 74, 74
2, 7008, Note_on_c, 0, 74, 0
2, 7020, Note_on_c, 0, 71, 74
2, 7068, Note_on_c, 0, 71, 0
2, 7080, Note_on_c, 0, 66, 74
2, 7128, Note_on_c, 0, 66, 0
2, 7140, Note_on_c, 0, 69, 74
2, 7188, Note_on_c, 0, 69, 0
2, 7200, Note_on_c, 0, 68, 74
2, 7221, Note_on_c, 0, 68, 0
2, 7260, Note_on_c, 0, 71, 74
2, 7308, Note_on_c, 0, 71, 0
2, 7320, Note_on_c, 0, 64, 74
2, 7368, Note_on_c, 0, 64, 0
2, 7380, Note_on_c, 0, 68, 74
2, 7428, Note_on_c, 0, 68, 0
2, 7440, Note_on_c, 0, 71, 74
2, 7488, Note_on_c, 0, 71, 0
2, 7500, Note_on_c, 0, 74, 74
2, 7548, Note_on_c, 0, 74, 0
2, 7560, Note_on_c, 0, 68, 74
2, 7608, Note_on_c, 0, 68, 0
2, 7620, Note_on_c, 0, 71, 74
2, 7668, Note_on_c, 0, 71, 0
2, 7680, Note_on_c, 0, 74, 74
2, 7701, Note_on_c, 0, 74, 0
2, 7740, Note_on_c, 0, 77, 74
2, 7788, Note_on_c, 0, 77, 0
2, 7800, Note_on_c, 0, 71, 74
2, 7848, Note_on_c, 0, 71, 0
2, 7860, Note_on_c, 0, 74, 74
2, 7908, Note_on_c, 0, 74, 0
2, 7920, Note_on_c, 0, 68, 74
2, 7968, Note_on_c, 0, 68, 0
2, 7980, Note_on_c, 0, 77, 74
2, 8028, Note_on_c, 0, 77, 0
2, 8040, Note_on_c, 0, 76, 74
2, 8088, Note_on_c, 0, 76, 0
2, 8100, Note_on_c, 0, 74, 74
2, 8148, Note_on_c, 0, 74, 0
2, 8160, Note_on_c, 0, 72, 74
2, 8208, Note_on_c, 0, 72, 0
2, 8220, Note_on_c, 0, 76, 74
2, 8268, Note_on_c, 0, 76, 0
2, 8280, Note_on_c, 0, 69, 74
2, 8328, Note_on_c, 0, 69, 0
2, 8340, Note_on_c, 0, 72, 74
2, 8388, Note_on_c, 0, 72, 0
2, 8400, Note_on_c, 0, 64, 74
2, 8448, Note_on_c, 0, 64, 0
2, 8460, Note_on_c, 0, 71, 74
2, 8508, Note_on_c, 0, 71, 0
2, 8520, Note_on_c, 0, 69, 74
2, 8568, Note_on_c, 0, 69, 0
2, 8580, Note_on_c, 0, 68, 74
2, 8628, Note_on_c, 0, 68, 0
2, 8640, Note_on_c, 0, 69, 74
2, 8688, Note_on_c, 0, 69, 0
2, 8700, Note_on_c, 0, 72, 74
2, 8748, Note_on_c, 0, 72, 0
2, 8760, Note_on_c, 0, 66, 74
2, 8808, Note_on_c, 0, 66, 0
2, 8820, Note_on_c, 0, 69, 74
2, 8868, Note_on_c, 0, 69, 0
2, 8940, Note_on_c, 0, 72, 74
2, 8988, Note_on_c, 0, 72, 0
2, 9000, Note_on_c, 0, 71, 74
2, 9048, Note_on_c, 0, 71, 0
2, 9060, Note_on_c, 0, 69, 74
2, 9108, Note_on_c, 0, 69, 0
2, 9120, Note_on_c, 0, 68, 74
2, 9168, Note_on_c, 0, 68, 0
2, 9180, Note_on_c, 0, 71, 74
2, 9228, Note_on_c, 0, 71, 0
2, 9240, Note_on_c, 0, 64, 74
2, 9288, Note_on_c, 0, 64, 0
2, 9300, Note_on_c, 0, 68, 74
2, 9348, Note_on_c, 0, 68, 0
2, 9420, Note_on_c, 0, 70, 74
2, 9468, Note_on_c, 0, 70, 0
2, 9480, Note_on_c, 0, 69, 74
2, 9528, Note_on_c, 0, 69, 0
2, 9540, Note_on_c, 0, 67, 74
2, 9588, Note_on_c, 0, 67, 0
2, 9600, Note_on_c, 0, 66, 74
2, 9648, Note_on_c, 0, 66, 0
2, 9660, Note_on_c, 0, 69, 74
2, 9708, Note_on_c, 0, 69, 0
2, 9720, Note_on_c, 0, 62, 74
2, 9768, Note_on_c, 0, 62, 0
2, 9780, Note_on_c, 0, 66, 74
2, 9828, Note_on_c, 0, 66, 0
2, 9900, Note_on_c, 0, 68, 74
2, 9948, Note_on_c, 0, 68, 0
2, 9960, Note_on_c, 0, 67, 74
2, 10008, Note_on_c, 0, 67, 0
2, 10020, Note_on_c, 0, 65, 74
2, 10068, Note_on_c, 0, 65, 0
2, 10080, Note_on_c, 0, 64, 74
2, 10128, Note_on_c, 0, 64, 0
2, 10140, Note_on_c, 0, 67, 74
2, 10188, Note_on_c, 0, 67, 0
2, 10200, Note_on_c, 0, 61, 74
2, 10248, Note_on_c, 0, 61, 0
2, 10260, Note_on_c, 0, 64, 74
2, 10308, Note_on_c, 0, 64, 0
2, 10380, Note_on_c, 0, 67, 74
2, 10428, Note_on_c, 0, 67, 0
2, 10440, Note_on_c, 0, 65, 74
2, 10488, Note_on_c, 0, 65, 0
2, 10500, Note_on_c, 0, 64, 74
2, 10548, Note_on_c, 0, 64, 0
2, 10560, Note_on_c, 0, 62, 74
2, 10668, Note_on_c, 0, 62, 0
2, 10680, Note_on_c, 0, 62, 74
2, 10728, Note_on_c, 0, 62, 0
2, 10740, Note_on_c, 0, 64, 74
2, 10788, Note_on_c, 0, 64, 0
2, 10800, Note_on_c, 0, 65, 74
2, 10908, Note_on_c, 0, 65, 0
2, 10920, Note_on_c, 0, 65, 74
2, 10968, Note_on_c, 0, 65, 0
2, 10980, Note_on_c, 0, 67, 74
2, 11028, Note_on_c, 0, 67, 0
2, 11040, Note_on_c, 0, 69, 74
2, 11148, Note_on_c, 0, 69, 0
2, 11160, Note_on_c, 0, 69, 74
2, 11208, Note_on_c, 0, 69, 0
2, 11220, Note_on_c, 0, 71, 74
2, 11268, Note_on_c, 0, 71, 0
2, 11280, Note_on_c, 0, 73, 74
2, 11376, Note_on_c, 0, 73, 0
2, 11400, Note_on_c, 0, 71, 74
2, 11448, Note_on_c, 0, 71, 0
2, 11460, Note_on_c, 0, 73, 74
2, 11508, Note_on_c, 0, 73, 0
2, 11520, Note_on_c, 0, 74, 74
2, 11616, Note_on_c, 0, 74, 0
2, 11640, Note_on_c, 0, 70, 74
2, 11683, Note_on_c, 0, 70, 0
2, 11760, Note_on_c, 0, 67, 74
2, 11803, Note_on_c, 0, 67, 0
2, 11880, Note_on_c, 0, 70, 74
2, 11923, Note_on_c, 0, 70, 0
2, 12000, Note_on_c, 0, 72, 74
2, 12096, Note_on_c, 0, 72, 0
2, 12120, Note_on_c, 0, 69, 74
2, 12163, Note_on_c, 0, 69, 0
2, 12240, Note_on_c, 0, 65, 74
2, 12283, Note_on_c, 0, 65, 0
2, 12360, Note_on_c, 0, 69, 74
2, 12403, Note_on_c, 0, 69, 0
2, 12480, Note_on_c, 0, 70, 74
2, 12576, Note_on_c, 0, 70, 0
2, 12600, Note_on_c, 0, 67, 74
2, 12643, Note_on_c, 0, 67, 0
2, 12720, Note_on_c, 0, 64, 74
2, 12763, Note_on_c, 0, 64, 0
2, 12840, Note_on_c, 0, 67, 74
2, 12883, Note_on_c, 0, 67, 0
2, 12960, Note_on_c, 0, 67, 74
2, 13056, Note_on_c, 0, 67, 0
2, 13320, Note_on_c, 0, 67, 74
2, 13416, Note_on_c, 0, 67, 0
2, 13440, Note_on_c, 0, 64, 74
2, 13483, Note_on_c, 0, 64, 0
2, 13560, Note_on_c, 0, 67, 74
2, 13603, Note_on_c, 0, 67, 0
2, 13680, Note_on_c, 0, 69, 74
2, 13872, Note_on_c, 0, 69, 0
2, 13920, Note_on_c, 0, 69, 74
2, 14016, Note_on_c, 0, 69, 0
2, 14040, Note_on_c, 0, 65, 74
2, 14083, Note_on_c, 0, 65, 0
2, 14160, Note_on_c, 0, 64, 74
2, 14203, Note_on_c, 0, 64, 0
2, 14280, Note_on_c, 0, 69, 74
2, 14323, Note_on_c, 0, 69, 0
2, 14400, Note_on_c, 0, 65, 74
2, 14496, Note_on_c, 0, 65, 0
2, 14520, Note_on_c, 0, 74, 74
2, 14688, Note_on_c, 0, 74, 0
2, 14700, Note_on_c, 0, 74, 74
2, 14748, Note_on_c, 0, 74, 0
2, 14760, Note_on_c, 0, 72, 74
2, 14808, Note_on_c, 0, 72, 0
2, 14820, Note_on_c, 0, 71, 74
2, 14868, Note_on_c, 0, 71, 0
2, 14880, Note_on_c, 0, 69, 74
2, 14928, Note_on_c, 0, 69, 0
2, 14940, Note_on_c, 0, 68, 74
2, 14988, Note_on_c, 0, 68, 0
2, 15000, Note_on_c, 0, 69, 74
2, 15048, Note_on_c, 0, 69, 0
2, 15060, Note_on_c, 0, 71, 74
2, 15108, Note_on_c, 0, 71, 0
2, 15120, Note_on_c, 0, 71, 74
2, 15216, Note_on_c, 0, 71, 0
2, 15240, Note_on_c, 0, 69, 74
2, 15288, Note_on_c, 0, 69, 0
2, 15300, Note_on_c, 0, 71, 74
2, 15348, Note_on_c, 0, 71, 0
2, 15360, Note_on_c, 0, 72, 74
2, 15403, Note_on_c, 0, 72, 0
2, 15480, Note_on_c, 0, 69, 74
2, 15523, Note_on_c, 0, 69, 0
2, 15600, Note_on_c, 0, 76, 74
2, 15643, Note_on_c, 0, 76, 0
2, 15720, Note_on_c, 0, 69, 74
2, 15763, Note_on_c, 0, 69, 0
2, 15840, Note_on_c, 0, 68, 74
2, 16032, Note_on_c, 0, 68, 0
2, 16200, Note_on_c, 0, 67, 74
2, 16248, Note_on_c, 0, 67, 0
2, 16260, Note_on_c, 0, 69, 74
2, 16308, Note_on_c, 0, 69, 0
2, 16320, Note_on_c, 0, 70, 74
2, 16363, Note_on_c, 0, 70, 0
2, 16440, Note_on_c, 0, 67, 74
2, 16483, Note_on_c, 0, 67, 0
2, 16560, Note_on_c, 0, 74, 74
2, 16656, Note_on_c, 0, 74, 0
2, 16680, Note_on_c, 0, 67, 74
2, 16723, Note_on_c, 0, 67, 0
2, 16800, Note_on_c, 0, 66, 74
2, 16992, Note_on_c, 0, 66, 0
2, 17160, Note_on_c, 0, 65, 74
2, 17208, Note_on_c, 0, 65, 0
2, 17220, Note_on_c, 0, 67, 74
2, 17268, Note_on_c, 0, 67, 0
2, 17280, Note_on_c, 0, 69, 74
2, 17323, Note_on_c, 0, 69, 0
2, 17400, Note_on_c, 0, 65, 74
2, 17443, Note_on_c, 0, 65, 0
2, 17520, Note_on_c, 0, 72, 74
2, 17563, Note_on_c, 0, 72, 0
2, 17640, Note_on_c, 0, 65, 74
2, 17683, Note_on_c, 0, 65, 0
2, 17760, Note_on_c, 0, 64, 74
2, 17952, Note_on_c, 0, 64, 0
2, 18060, Note_on_c, 0, 72, 74
2, 18108, Note_on_c, 0, 72, 0
2, 18120, Note_on_c, 0, 70, 74
2, 18168, Note_on_c, 0, 70, 0
2, 18180, Note_on_c, 0, 72, 74
2, 18228, Note_on_c, 0, 72, 0
2, 18240, Note_on_c, 0, 69, 74
2, 18288, Note_on_c, 0, 69, 0
2, 18300, Note_on_c, 0, 72, 74
2, 18348, Note_on_c, 0, 72, 0
2, 18360, Note_on_c, 0, 65, 74
2, 18408, Note_on_c, 0, 65, 0
2, 18420, Note_on_c, 0, 69, 74
2, 18468, Note_on_c, 0, 69, 0
2, 18480, Note_on_c, 0, 74, 74
2, 18528, Note_on_c, 0, 74, 0
2, 18540, Note_on_c, 0, 70, 74
2, 18588, Note_on_c, 0, 70, 0
2, 18600, Note_on_c, 0, 65, 74
2, 18648, Note_on_c, 0, 65, 0
2, 18660, Note_on_c, 0, 69, 74
2, 18708, Note_on_c, 0, 69, 0
2, 18720, Note_on_c, 0, 67, 74
2, 18741, Note_on_c, 0, 67, 0
2, 18780, Note_on_c, 0, 70, 74
2, 18828, Note_on_c, 0, 70, 0
2, 18840, Note_on_c, 0, 64, 74
2, 18888, Note_on_c, 0, 64, 0
2, 18900, Note_on_c, 0, 67, 74
2, 18948, Note_on_c, 0, 67, 0
2, 18960, Note_on_c, 0, 72, 74
2, 19008, Note_on_c, 0, 72, 0
2, 19020, Note_on_c, 0, 69, 74
2, 19068, Note_on_c, 0, 69, 0
2, 19080, Note_on_c, 0, 64, 74
2, 19128, Note_on_c, 0, 64, 0
2, 19140, Note_on_c, 0, 67, 74
2, 19188, Note_on_c, 0, 67, 0
2, 19200, Note_on_c, 0, 65, 74
2, 19221, Note_on_c, 0, 65, 0
2, 19260, Note_on_c, 0, 69, 74
2, 19308, Note_on_c, 0, 69, 0
2, 19320, Note_on_c, 0, 62, 74
2, 19368, Note_on_c, 0, 62, 0
2, 19380, Note_on_c, 0, 65, 74
2, 19428, Note_on_c, 0, 65, 0
2, 19440, Note_on_c, 0, 70, 74
2, 19488, Note_on_c, 0, 70, 0
2, 19500, Note_on_c, 0, 67, 74
2, 19548, Note_on_c, 0, 67, 0
2, 19560, Note_on_c, 0, 62, 74
2, 19608, Note_on_c, 0, 62, 0
2, 19620, Note_on_c, 0, 65, 74
2, 19668, Note_on_c, 0, 65, 0
2, 19680, Note_on_c, 0, 64, 74
2, 19701, Note_on_c, 0, 64, 0
2, 19740, Note_on_c, 0, 67, 74
2, 19788, Note_on_c, 0, 67, 0
2, 19800, Note_on_c, 0, 60, 74
2, 19848, Note_on_c, 0, 60, 0
2, 19860, Note_on_c, 0, 64, 74
2, 19908, Note_on_c, 0, 64, 0
2, 19920, Note_on_c, 0, 67, 74
2, 19968, Note_on_c, 0, 67, 0
2, 19980, Note_on_c, 0, 70, 74
2, 20028, Note_on_c, 0, 70, 0
2, 20040, Note_on_c, 0, 64, 74
2, 20088, Note_on_c, 0, 64, 0
2, 20100, Note_on_c, 0, 67, 74
2, 20148, Note_on_c, 0, 67, 0
2, 20160, Note_on_c, 0, 70, 74
2, 20181, Note_on_c, 0, 70, 0
2, 20220, Note_on_c, 0, 74, 74
2, 20268, Note_on_c, 0, 74, 0
2, 20280, Note_on_c, 0, 67, 74
2, 20328, Note_on_c, 0, 67, 0
2, 20340, Note_on_c, 0, 70, 74
2, 20388, Note_on_c, 0, 70, 0
2, 20400, Note_on_c, 0, 64, 74
2, 20448, Note_on_c, 0, 64, 0
2, 20460, Note_on_c, 0, 74, 74
2, 20508, Note_on_c, 0, 74, 0
2, 20520, Note_on_c, 0, 72, 74
2, 20568, Note_on_c, 0, 72, 0
2, 20580, Note_on_c, 0, 70, 74
2, 20628, Note_on_c, 0, 70, 0
2, 20640, Note_on_c, 0, 69, 74
2, 20661, Note_on_c, 0, 69, 0
2, 20700, Note_on_c, 0, 72, 74
2, 20748, Note_on_c, 0, 72, 0
2, 20760, Note_on_c, 0, 65, 74
2, 20808, Note_on_c, 0, 65, 0
2, 20820, Note_on_c, 0, 69, 74
2, 20868, Note_on_c, 0, 69, 0
2, 20880, Note_on_c, 0, 60, 74
2, 20928, Note_on_c, 0, 60, 0
2, 20940, Note_on_c, 0, 67, 74
2, 20988, Note_on_c, 0, 67, 0
2, 21000, Note_on_c, 0, 65, 74
2, 21048, Note_on_c, 0, 65, 0
2, 21060, Note_on_c, 0, 64, 74
2, 21108, Note_on_c, 0, 64, 0
2, 21120, Note_on_c, 0, 65, 74
2, 21141, Note_on_c, 0, 65, 0
2, 21180, Note_on_c, 0, 69, 74
2, 21228, Note_on_c, 0, 69, 0
2, 21240, Note_on_c, 0, 62, 74
2, 21288, Note_on_c, 0, 62, 0
2, 21300, Note_on_c, 0, 65, 74
2, 21348, Note_on_c, 0, 65, 0
2, 21360, Note_on_c, 0, 59, 74
2, 21408, Note_on_c, 0, 59, 0
2, 21420, Note_on_c, 0, 69, 74
2, 21468, Note_on_c, 0, 69, 0
2, 21480, Note_on_c, 0, 67, 74
2, 21528, Note_on_c, 0, 67, 0
2, 21540, Note_on_c, 0, 65, 74
2, 21588, Note_on_c, 0, 65, 0
2, 21600, Note_on_c, 0, 64, 74
2, 21621, Note_on_c, 0, 64, 0
2, 21660, Note_on_c, 0, 67, 74
2, 21708, Note_on_c, 0, 67, 0
2, 21720, Note_on_c, 0, 60, 74
2, 21768, Note_on_c, 0, 60, 0
2, 21780, Note_on_c, 0, 64, 74
2, 21828, Note_on_c, 0, 64, 0
2, 21840, Note_on_c, 0, 67, 74
2, 21888, Note_on_c, 0, 67, 0
2, 21900, Note_on_c, 0, 72, 74
2, 21948, Note_on_c, 0, 72, 0
2, 21960, Note_on_c, 0, 64, 74
2, 22008, Note_on_c, 0, 64, 0
2, 22020, Note_on_c, 0, 67, 74
2, 22068, Note_on_c, 0, 67, 0
2, 22080, Note_on_c, 0, 72, 74
2, 22101, Note_on_c, 0, 72, 0
2, 22140, Note_on_c, 0, 76, 74
2, 22188, Note_on_c, 0, 76, 0
2, 22200, Note_on_c, 0, 67, 74
2, 22248, Note_on_c, 0, 67, 0
2, 22260, Note_on_c, 0, 72, 74
2, 22308, Note_on_c, 0, 72, 0
2, 22320, Note_on_c, 0, 76, 74
2, 22368, Note_on_c, 0, 76, 0
2, 22380, Note_on_c, 0, 79, 74
2, 22428, Note_on_c, 0, 79, 0
2, 22440, Note_on_c, 0, 72, 74
2, 22488, Note_on_c, 0, 72, 0
2, 22500, Note_on_c, 0, 76, 74
2, 22548, Note_on_c, 0, 76, 0
2, 22560, Note_on_c, 0, 74, 74
2, 22581, Note_on_c, 0, 74, 0
2, 22620, Note_on_c, 0, 79, 74
2, 22668, Note_on_c, 0, 79, 0
2, 22680, Note_on_c, 0, 71, 74
2, 22728, Note_on_c, 0, 71, 0
2, 22740, Note_on_c, 0, 74, 74
2, 22788, Note_on_c, 0, 74, 0
2, 22800, Note_on_c, 0, 67, 74
2, 22848, Note_on_c, 0, 67, 0
2, 22860, Note_on_c, 0, 71, 74
2, 22908, Note_on_c, 0, 71, 0
2, 22920, Note_on_c, 0, 69, 74
2, 22968, Note_on_c, 0, 69, 0
2, 22980, Note_on_c, 0, 67, 74
2, 23028, Note_on_c, 0, 67, 0
2, 23280, Note_on_c, 0, 77, 74
2, 23664, Note_on_c, 0, 77, 0
2, 23760, Note_on_c, 0, 76, 74
2, 24192, Note_on_c, 0, 76, 0
2, 24240, Note_on_c, 0, 74, 74
2, 24672, Note_on_c, 0, 74, 0
2, 24840, Note_on_c, 0, 74, 74
2, 24883, Note_on_c, 0, 74, 0
2, 24960, Note_on_c, 0, 71, 74
2, 25003, Note_on_c, 0, 71, 0
2, 25080, Note_on_c, 0, 74, 74
2, 25123, Note_on_c, 0, 74, 0
2, 25200, Note_on_c, 0, 67, 74
2, 25488, Note_on_c, 0, 67, 0
2, 25500, Note_on_c, 0, 65, 74
2, 25548, Note_on_c, 0, 65, 0
2, 25560, Note_on_c, 0, 64, 74
2, 25608, Note_on_c, 0, 64, 0
2, 25620, Note_on_c, 0, 65, 74
2, 25668, Note_on_c, 0, 65, 0
2, 25680, Note_on_c, 0, 62, 74
2, 25723, Note_on_c, 0, 62, 0
2, 25800, Note_on_c, 0, 67, 74
2, 25843, Note_on_c, 0, 67, 0
2, 25920, Note_on_c, 0, 64, 74
2, 25963, Note_on_c, 0, 64, 0
2, 26040, Note_on_c, 0, 60, 74
2, 26083, Note_on_c, 0, 60, 0
2, 26280, Note_on_c, 0, 72, 74
2, 26323, Note_on_c, 0, 72, 0
2, 26400, Note_on_c, 0, 72, 74
2, 26496, Note_on_c, 0, 72, 0
2, 26520, Note_on_c, 0, 66, 74
2, 26563, Note_on_c, 0, 66, 0
2, 26760, Note_on_c, 0, 70, 74
2, 26803, Note_on_c, 0, 70, 0
2, 26880, Note_on_c, 0, 70, 74
2, 26976, Note_on_c, 0, 70, 0
2, 27000, Note_on_c, 0, 64, 74
2, 27043, Note_on_c, 0, 64, 0
2, 27240, Note_on_c, 0, 69, 74
2, 27552, Note_on_c, 0, 69, 0
2, 27600, Note_on_c, 0, 67, 74
2, 28032, Note_on_c, 0, 67, 0
2, 28080, Note_on_c, 0, 65, 74
2, 28464, Note_on_c, 0, 65, 0
2, 28560, Note_on_c, 0, 64, 74
2, 28608, Note_on_c, 0, 64, 0
2, 28620, Note_on_c, 0, 74, 74
2, 28668, Note_on_c, 0, 74, 0
2, 28680, Note_on_c, 0, 72, 74
2, 28728, Note_on_c, 0, 72, 0
2, 28740, Note_on_c, 0, 70, 74
2, 28788, Note_on_c, 0, 70, 0
2, 28800, Note_on_c, 0, 69, 74
2, 28848, Note_on_c, 0, 69, 0
2, 28860, Note_on_c, 0, 70, 74
2, 28908, Note_on_c, 0, 70, 0
2, 28920, Note_on_c, 0, 69, 74
2, 28968, Note_on_c, 0, 69, 0
2, 28980, Note_on_c, 0, 67, 74
2, 29028, Note_on_c, 0, 67, 0
2, 29040, Note_on_c, 0, 65, 74
2, 29088, Note_on_c, 0, 65, 0
2, 29100, Note_on_c, 0, 67, 74
2, 29148, Note_on_c, 0, 67, 0
2, 29160, Note_on_c, 0, 65, 74
2, 29208, Note_on_c, 0, 65, 0
2, 29220, Note_on_c, 0, 67, 74
2, 29268, Note_on_c, 0, 67, 0
2, 29280, Note_on_c, 0, 69, 74
2, 29323, Note_on_c, 0, 69, 0
2, 29400, Note_on_c, 0, 65, 74
2, 29443, Note_on_c, 0, 65, 0
2, 29520, Note_on_c, 0, 72, 74
2, 29563, Note_on_c, 0, 72, 0
2, 29640, Note_on_c, 0, 65, 74
2, 29683, Note_on_c, 0, 65, 0
2, 29760, Note_on_c, 0, 64, 74
2, 29856, Note_on_c, 0, 64, 0
2, 29880, Note_on_c, 0, 60, 74
2, 29923, Note_on_c, 0, 60, 0
2, 30120, Note_on_c, 0, 67, 74
2, 30168, Note_on_c, 0, 67, 0
2, 30180, Note_on_c, 0, 69, 74
2, 30228, Note_on_c, 0, 69, 0
2, 30240, Note_on_c, 0, 70, 74
2, 30336, Note_on_c, 0, 70, 0
2, 30360, Note_on_c, 0, 67, 74
2, 30403, Note_on_c, 0, 67, 0
2, 30480, Note_on_c, 0, 74, 74
2, 30523, Note_on_c, 0, 74, 0
2, 30600, Note_on_c, 0, 67, 74
2, 30643, Note_on_c, 0, 67, 0
2, 30720, Note_on_c, 0, 66, 74
2, 30912, Note_on_c, 0, 66, 0
2, 31020, Note_on_c, 0, 74, 74
2, 31068, Note_on_c, 0, 74, 0
2, 31080, Note_on_c, 0, 72, 74
2, 31128, Note_on_c, 0, 72, 0
2, 31140, Note_on_c, 0, 74, 74
2, 31188, Note_on_c, 0, 74, 0
2, 31200, Note_on_c, 0, 70, 74
2, 31248, Note_on_c, 0, 70, 0
2, 31260, Note_on_c, 0, 74, 74
2, 31308, Note_on_c, 0, 74, 0
2, 31320, Note_on_c, 0, 67, 74
2, 31368, Note_on_c, 0, 67, 0
2, 31380, Note_on_c, 0, 70, 74
2, 31428, Note_on_c, 0, 70, 0
2, 31440, Note_on_c, 0, 75, 74
2, 31488, Note_on_c, 0, 75, 0
2, 31500, Note_on_c, 0, 72, 74
2, 31548, Note_on_c, 0, 72, 0
2, 31560, Note_on_c, 0, 67, 74
2, 31608, Note_on_c, 0, 67, 0
2, 31620, Note_on_c, 0, 70, 74
2, 31668, Note_on_c, 0, 70, 0
2, 31680, Note_on_c, 0, 69, 74
2, 31701, Note_on_c, 0, 69, 0
2, 31740, Note_on_c, 0, 72, 74
2, 31788, Note_on_c, 0, 72, 0
2, 31800, Note_on_c, 0, 65, 74
2, 31848, Note_on_c, 0, 65, 0
2, 31860, Note_on_c, 0, 69, 74
2, 31908, Note_on_c, 0, 69, 0
2, 31920, Note_on_c, 0, 74, 74
2, 31968, Note_on_c, 0, 74, 0
2, 31980, Note_on_c, 0, 70, 74
2, 32028, Note_on_c, 0, 70, 0
2, 32040, Note_on_c, 0, 65, 74
2, 32088, Note_on_c, 0, 65, 0
2, 32100, Note_on_c, 0, 69, 74
2, 32148, Note_on_c, 0, 69, 0
2, 32160, Note_on_c, 0, 67, 74
2, 32181, Note_on_c, 0, 67, 0
2, 32220, Note_on_c, 0, 70, 74
2, 32268, Note_on_c, 0, 70, 0
2, 32280, Note_on_c, 0, 63, 74
2, 32328, Note_on_c, 0, 63, 0
2, 32340, Note_on_c, 0, 67, 74
2, 32388, Note_on_c, 0, 67, 0
2, 32400, Note_on_c, 0, 72, 74
2, 32448, Note_on_c, 0, 72, 0
2, 32460, Note_on_c, 0, 69, 74
2, 32508, Note_on_c, 0, 69, 0
2, 32520, Note_on_c, 0, 64, 74
2, 32568, Note_on_c, 0, 64, 0
2, 32580, Note_on_c, 0, 67, 74
2, 32628, Note_on_c, 0, 67, 0
2, 32640, Note_on_c, 0, 66, 74
2, 32661, Note_on_c, 0, 66, 0
2, 32700, Note_on_c, 0, 69, 74
2, 32748, Note_on_c, 0, 69, 0
2, 32760, Note_on_c, 0, 62, 74
2, 32808, Note_on_c, 0, 62, 0
2, 32820, Note_on_c, 0, 66, 74
2, 32868, Note_on_c, 0, 66, 0
2, 32880, Note_on_c, 0, 69, 74
2, 32928, Note_on_c, 0, 69, 0
2, 32940, Note_on_c, 0, 72, 74
2, 32988, Note_on_c, 0, 72, 0
2, 33000, Note_on_c, 0, 66, 74
2, 33048, Note_on_c, 0, 66, 0
2, 33060, Note_on_c, 0, 69, 74
2, 33108, Note_on_c, 0, 69, 0
2, 33120, Note_on_c, 0, 72, 74
2, 33141, Note_on_c, 0, 72, 0
2, 33180, Note_on_c, 0, 75, 74
2, 33228, Note_on_c, 0, 75, 0
2, 33240, Note_on_c, 0, 69, 74
2, 33288, Note_on_c, 0, 69, 0
2, 33300, Note_on_c, 0, 72, 74
2, 33348, Note_on_c, 0, 72, 0
2, 33360, Note_on_c, 0, 66, 74
2, 33408, Note_on_c, 0, 66, 0
2, 33420, Note_on_c, 0, 75, 74
2, 33468, Note_on_c, 0, 75, 0
2, 33480, Note_on_c, 0, 74, 74
2, 33528, Note_on_c, 0, 74, 0
2, 33540, Note_on_c, 0, 72, 74
2, 33588, Note_on_c, 0, 72, 0
2, 33600, Note_on_c, 0, 70, 74
2, 33621, Note_on_c, 0, 70, 0
2, 33660, Note_on_c, 0, 74, 74
2, 33708, Note_on_c, 0, 74, 0
2, 33720, Note_on_c, 0, 67, 74
2, 33768, Note_on_c, 0, 67, 0
2, 33780, Note_on_c, 0, 70, 74
2, 33828, Note_on_c, 0, 70, 0
2, 33840, Note_on_c, 0, 62, 74
2, 33888, Note_on_c, 0, 62, 0
2, 33900, Note_on_c, 0, 69, 74
2, 33948, Note_on_c, 0, 69, 0
2, 33960, Note_on_c, 0, 67, 74
2, 34008, Note_on_c, 0, 67, 0
2, 34020, Note_on_c, 0, 66, 74
2, 34068, Note_on_c, 0, 66, 0
2, 34080, Note_on_c, 0, 67, 74
2, 34176, Note_on_c, 0, 67, 0
2, 34320, Note_on_c, 0, 75, 74
2, 34656, Note_on_c, 0, 75, 0
2, 34680, Note_on_c, 0, 65, 74
2, 34723, Note_on_c, 0, 65, 0
2, 34800, Note_on_c, 0, 74, 74
2, 35136, Note_on_c, 0, 74, 0
2, 35160, Note_on_c, 0, 63, 74
2, 35203, Note_on_c, 0, 63, 0
2, 35280, Note_on_c, 0, 72, 74
2, 35616, Note_on_c, 0, 72, 0
2, 35640, Note_on_c, 0, 62, 74
2, 35683, Note_on_c, 0, 62, 0
2, 35760, Note_on_c, 0, 70, 74
2, 36096, Note_on_c, 0, 70, 0
2, 36120, Note_on_c, 0, 60, 74
2, 36163, Note_on_c, 0, 60, 0
2, 36240, Note_on_c, 0, 69, 74
2, 36432, Note_on_c, 0, 69, 0
2, 36480, Note_on_c, 0, 70, 74
2, 36576, Note_on_c, 0, 70, 0
2, 36600, Note_on_c, 0, 70, 74
2, 36648, Note_on_c, 0, 70, 0
2, 36660, Note_on_c, 0, 72, 74
2, 36708, Note_on_c, 0, 72, 0
2, 36720, Note_on_c, 0, 74, 74
2, 36816, Note_on_c, 0, 74, 0
2, 36840, Note_on_c, 0, 74, 74
2, 36888, Note_on_c, 0, 74, 0
2, 36900, Note_on_c, 0, 76, 74
2, 36948, Note_on_c, 0, 76, 0
2, 36960, Note_on_c, 0, 77, 74
2, 37056, Note_on_c, 0, 77, 0
2, 37080, Note_on_c, 0, 77, 74
2, 37128, Note_on_c, 0, 77, 0
2, 37140, Note_on_c, 0, 79, 74
2, 37188, Note_on_c, 0, 79, 0
2, 37200, Note_on_c, 0, 81, 74
2, 37296, Note_on_c, 0, 81, 0
2, 37320, Note_on_c, 0, 79, 74
2, 37368, Note_on_c, 0, 79, 0
2, 37380, Note_on_c, 0, 81, 74
2, 37428, Note_on_c, 0, 81, 0
2, 37440, Note_on_c, 0, 82, 74
2, 37536, Note_on_c, 0, 82, 0
2, 37560, Note_on_c, 0, 79, 74
2, 37603, Note_on_c, 0, 79, 0
2, 37680, Note_on_c, 0, 75, 74
2, 37723, Note_on_c, 0, 75, 0
2, 37800, Note_on_c, 0, 79, 74
2, 37843, Note_on_c, 0, 79, 0
2, 37920, Note_on_c, 0, 81, 74
2, 38016, Note_on_c, 0, 81, 0
2, 38040, Note_on_c, 0, 77, 74
2, 38083, Note_on_c, 0, 77, 0
2, 38160, Note_on_c, 0, 74, 74
2, 38203, Note_on_c, 0, 74, 0
2, 38280, Note_on_c, 0, 77, 74
2, 38323, Note_on_c, 0, 77, 0
2, 38400, Note_on_c, 0, 79, 74
2, 38496, Note_on_c, 0, 79, 0
2, 38520, Note_on_c, 0, 75, 74
2, 38563, Note_on_c, 0, 75, 0
2, 38640, Note_on_c, 0, 72, 74
2, 38683, Note_on_c, 0, 72, 0
2, 38760, Note_on_c, 0, 75, 74
2, 38803, Note_on_c, 0, 75, 0
2, 38880, Note_on_c, 0, 77, 74
2, 38928, Note_on_c, 0, 77, 0
2, 38940, Note_on_c, 0, 81, 74
2, 38988, Note_on_c, 0, 81, 0
2, 39000, Note_on_c, 0, 72, 74
2, 39048, Note_on_c, 0, 72, 0
2, 39060, Note_on_c, 0, 77, 74
2, 39108, Note_on_c, 0, 77, 0
2, 39120, Note_on_c, 0, 69, 74
2, 39168, Note_on_c, 0, 69, 0
2, 39180, Note_on_c, 0, 72, 74
2, 39228, Note_on_c, 0, 72, 0
2, 39240, Note_on_c, 0, 65, 74
2, 39288, Note_on_c, 0, 65, 0
2, 39300, Note_on_c, 0, 69, 74
2, 39348, Note_on_c, 0, 69, 0
2, 39360, Note_on_c, 0, 72, 74
2, 39408, Note_on_c, 0, 72, 0
2, 39420, Note_on_c, 0, 75, 74
2, 39468, Note_on_c, 0, 75, 0
2, 39480, Note_on_c, 0, 69, 74
2, 39528, Note_on_c, 0, 69, 0
2, 39540, Note_on_c, 0, 72, 74
2, 39588, Note_on_c, 0, 72, 0
2, 39600, Note_on_c, 0, 65, 74
2, 39648, Note_on_c, 0, 65, 0
2, 39660, Note_on_c, 0, 75, 74
2, 39708, Note_on_c, 0, 75, 0
2, 39720, Note_on_c, 0, 74, 74
2, 39768, Note_on_c, 0, 74, 0
2, 39780, Note_on_c, 0, 72, 74
2, 39828, Note_on_c, 0, 72, 0
2, 39840, Note_on_c, 0, 77, 74
2, 39861, Note_on_c, 0, 77, 0
2, 39900, Note_on_c, 0, 82, 74
2, 39948, Note_on_c, 0, 82, 0
2, 39960, Note_on_c, 0, 74, 74
2, 40008, Note_on_c, 0, 74, 0
2, 40020, Note_on_c, 0, 77, 74
2, 40068, Note_on_c, 0, 77, 0
2, 40080, Note_on_c, 0, 69, 74
2, 40128, Note_on_c, 0, 69, 0
2, 40140, Note_on_c, 0, 75, 74
2, 40188, Note_on_c, 0, 75, 0
2, 40200, Note_on_c, 0, 74, 74
2, 40248, Note_on_c, 0, 74, 0
2, 40260, Note_on_c, 0, 72, 74
2, 40308, Note_on_c, 0, 72, 0
2, 40320, Note_on_c, 0, 74, 74
2, 40363, Note_on_c, 0, 74, 0
2, 40440, Note_on_c, 0, 70, 74
2, 40483, Note_on_c, 0, 70, 0
2, 40560, Note_on_c, 0, 77, 74
2, 40603, Note_on_c, 0, 77, 0
2, 40680, Note_on_c, 0, 70, 74
2, 40723, Note_on_c, 0, 70, 0
2, 40800, Note_on_c, 0, 69, 74
2, 40992, Note_on_c, 0, 69, 0
2, 41160, Note_on_c, 0, 72, 74
2, 41208, Note_on_c, 0, 72, 0
2, 41220, Note_on_c, 0, 74, 74
2, 41268, Note_on_c, 0, 74, 0
2, 41280, Note_on_c, 0, 76, 74
2, 41323, Note_on_c, 0, 76, 0
2, 41400, Note_on_c, 0, 72, 74
2, 41443, Note_on_c, 0, 72, 0
2, 41520, Note_on_c, 0, 79, 74
2, 41563, Note_on_c, 0, 79, 0
2, 41640, Note_on_c, 0, 72, 74
2, 41683, Note_on_c, 0, 72, 0
2, 41760, Note_on_c, 0, 71, 74
2, 41952, Note_on_c, 0, 71, 0
2, 42120, Note_on_c, 0, 74, 74
2, 42168, Note_on_c, 0, 74, 0
2, 42180, Note_on_c, 0, 76, 74
2, 42228, Note_on_c, 0, 76, 0
2, 42240, Note_on_c, 0, 77, 74
2, 42283, Note_on_c, 0, 77, 0
2, 42360, Note_on_c, 0, 74, 74
2, 42403, Note_on_c, 0, 74, 0
2, 42480, Note_on_c, 0, 81, 74
2, 42523, Note_on_c, 0, 81, 0
2, 42600, Note_on_c, 0, 74, 74
2, 42643, Note_on_c, 0, 74, 0
2, 42720, Note_on_c, 0, 73, 74
2, 42912, Note_on_c, 0, 73, 0
2, 43020, Note_on_c, 0, 81, 74
2, 43068, Note_on_c, 0, 81, 0
2, 43080, Note_on_c, 0, 79, 74
2, 43128, Note_on_c, 0, 79, 0
2, 43140, Note_on_c, 0, 81, 74
2, 43188, Note_on_c, 0, 81, 0
2, 43200, Note_on_c, 0, 77, 74
2, 43248, Note_on_c, 0, 77, 0
2, 43260, Note_on_c, 0, 81, 74
2, 43308, Note_on_c, 0, 81, 0
2, 43320, Note_on_c, 0, 74, 74
2, 43368, Note_on_c, 0, 74, 0
2, 43380, Note_on_c, 0, 77, 74
2, 43428, Note_on_c, 0, 77, 0
2, 43440, Note_on_c, 0, 82, 74
2, 43488, Note_on_c, 0, 82, 0
2, 43500, Note_on_c, 0, 79, 74
2, 43548, Note_on_c, 0, 79, 0
2, 43560, Note_on_c, 0, 74, 74
2, 43608, Note_on_c, 0, 74, 0
2, 43620, Note_on_c, 0, 77, 74
2, 43668, Note_on_c, 0, 77, 0
2, 43680, Note_on_c, 0, 76, 74
2, 43701, Note_on_c, 0, 76, 0
2, 43740, Note_on_c, 0, 79, 74
2, 43788, Note_on_c, 0, 79, 0
2, 43800, Note_on_c, 0, 72, 74
2, 43848, Note_on_c, 0, 72, 0
2, 43860, Note_on_c, 0, 76, 74
2, 43908, Note_on_c, 0, 76, 0
2, 43920, Note_on_c, 0, 81, 74
2, 43968, Note_on_c, 0, 81, 0
2, 43980, Note_on_c, 0, 77, 74
2, 44028, Note_on_c, 0, 77, 0
2, 44040, Note_on_c, 0, 72, 74
2, 44088, Note_on_c, 0, 72, 0
2, 44100, Note_on_c, 0, 76, 74
2, 44148, Note_on_c, 0, 76, 0
2, 44160, Note_on_c, 0, 74, 74
2, 44208, Note_on_c, 0, 74, 0
2, 44220, Note_on_c, 0, 77, 74
2, 44268, Note_on_c, 0, 77, 0
2, 44280, Note_on_c, 0, 70, 74
2, 44328, Note_on_c, 0, 70, 0
2, 44340, Note_on_c, 0, 74, 74
2, 44388, Note_on_c, 0, 74, 0
2, 44400, Note_on_c, 0, 79, 74
2, 44448, Note_on_c, 0, 79, 0
2, 44460, Note_on_c, 0, 76, 74
2, 44508, Note_on_c, 0, 76, 0
2, 44520, Note_on_c, 0, 71, 74
2, 44568, Note_on_c, 0, 71, 0
2, 44580, Note_on_c, 0, 74, 74
2, 44628, Note_on_c, 0, 74, 0
2, 44640, Note_on_c, 0, 73, 74
2, 44661, Note_on_c, 0, 73, 0
2, 44700, Note_on_c, 0, 76, 74
2, 44748, Note_on_c, 0, 76, 0
2, 44760, Note_on_c, 0, 69, 74
2, 44808, Note_on_c, 0, 69, 0
2, 44820, Note_on_c, 0, 73, 74
2, 44868, Note_on_c, 0, 73, 0
2, 44880, Note_on_c, 0, 76, 74
2, 44928, Note_on_c, 0, 76, 0
2, 44940, Note_on_c, 0, 79, 74
2, 44988, Note_on_c, 0, 79, 0
2, 45000, Note_on_c, 0, 73, 74
2, 45048, Note_on_c, 0, 73, 0
2, 45060, Note_on_c, 0, 76, 74
2, 45108, Note_on_c, 0, 76, 0
2, 45120, Note_on_c, 0, 79, 74
2, 45168, Note_on_c, 0, 79, 0
2, 45180, Note_on_c, 0, 82, 74
2, 45228, Note_on_c, 0, 82, 0
2, 45240, Note_on_c, 0, 76, 74
2, 45288, Note_on_c, 0, 76, 0
2, 45300, Note_on_c, 0, 79, 74
2, 45348, Note_on_c, 0, 79, 0
2, 45360, Note_on_c, 0, 73, 74
2, 45408, Note_on_c, 0, 73, 0
2, 45420, Note_on_c, 0, 82, 74
2, 45468, Note_on_c, 0, 82, 0
2, 45480, Note_on_c, 0, 81, 74
2, 45528, Note_on_c, 0, 81, 0
2, 45540, Note_on_c, 0, 79, 74
2, 45588, Note_on_c, 0, 79, 0
2, 45600, Note_on_c, 0, 77, 74
2, 45621, Note_on_c, 0, 77, 0
2, 45660, Note_on_c, 0, 81, 74
2, 45708, Note_on_c, 0, 81, 0
2, 45720, Note_on_c, 0, 74, 74
2, 45768, Note_on_c, 0, 74, 0
2, 45780, Note_on_c, 0, 77, 74
2, 45828, Note_on_c, 0, 77, 0
2, 45840, Note_on_c, 0, 69, 74
2, 45888, Note_on_c, 0, 69, 0
2, 45900, Note_on_c, 0, 76, 74
2, 45948, Note_on_c, 0, 76, 0
2, 45960, Note_on_c, 0, 74, 74
2, 46008, Note_on_c, 0, 74, 0
2, 46020, Note_on_c, 0, 73, 74
2, 46068, Note_on_c, 0, 73, 0
2, 46080, Note_on_c, 0, 74, 74
2, 46128, Note_on_c, 0, 74, 0
2, 46140, Note_on_c, 0, 77, 74
2, 46188, Note_on_c, 0, 77, 0
2, 46200, Note_on_c, 0, 71, 74
2, 46248, Note_on_c, 0, 71, 0
2, 46260, Note_on_c, 0, 74, 74
2, 46308, Note_on_c, 0, 74, 0
2, 46320, Note_on_c, 0, 68, 74
2, 46368, Note_on_c, 0, 68, 0
2, 46380, Note_on_c, 0, 74, 74
2, 46428, Note_on_c, 0, 74, 0
2, 46440, Note_on_c, 0, 72, 74
2, 46488, Note_on_c, 0, 72, 0
2, 46500, Note_on_c, 0, 71, 74
2, 46548, Note_on_c, 0, 71, 0
2, 46560, Note_on_c, 0, 69, 74
2, 46656, Note_on_c, 0, 69, 0
2, 46680, Note_on_c, 0, 69, 74
2, 46728, Note_on_c, 0, 69, 0
2, 46740, Note_on_c, 0, 71, 74
2, 46788, Note_on_c, 0, 71, 0
2, 46800, Note_on_c, 0, 72, 74
2, 46896, Note_on_c, 0, 72, 0
2, 46920, Note_on_c, 0, 72, 74
2, 46968, Note_on_c, 0, 72, 0
2, 46980, Note_on_c, 0, 74, 74
2, 47028, Note_on_c, 0, 74, 0
2, 47040, Note_on_c, 0, 76, 74
2, 47136, Note_on_c, 0, 76, 0
2, 47160, Note_on_c, 0, 76, 74
2, 47208, Note_on_c, 0, 76, 0
2, 47220, Note_on_c, 0, 78, 74
2, 47268, Note_on_c, 0, 78, 0
2, 47280, Note_on_c, 0, 80, 74
2, 47376, Note_on_c, 0, 80, 0
2, 47400, Note_on_c, 0, 78, 74
2, 47448, Note_on_c, 0, 78, 0
2, 47460, Note_on_c, 0, 80, 74
2, 47508, Note_on_c, 0, 80, 0
2, 47520, Note_on_c, 0, 81, 74
2, 47616, Note_on_c, 0, 81, 0
2, 47640, Note_on_c, 0, 77, 74
2, 47683, Note_on_c, 0, 77, 0
2, 47760, Note_on_c, 0, 74, 74
2, 47803, Note_on_c, 0, 74, 0
2, 47880, Note_on_c, 0, 77, 74
2, 47923, Note_on_c, 0, 77, 0
2, 48000, Note_on_c, 0, 79, 74
2, 48096, Note_on_c, 0, 79, 0
2, 48120, Note_on_c, 0, 76, 74
2, 48163, Note_on_c, 0, 76, 0
2, 48240, Note_on_c, 0, 72, 74
2, 48283, Note_on_c, 0, 72, 0
2, 48360, Note_on_c, 0, 76, 74
2, 48403, Note_on_c, 0, 76, 0
2, 48480, Note_on_c, 0, 77, 74
2, 48576, Note_on_c, 0, 77, 0
2, 48600, Note_on_c, 0, 74, 74
2, 48643, Note_on_c, 0, 74, 0
2, 48720, Note_on_c, 0, 71, 74
2, 48763, Note_on_c, 0, 71, 0
2, 48840, Note_on_c, 0, 74, 74
2, 48883, Note_on_c, 0, 74, 0
2, 48960, Note_on_c, 0, 74, 74
2, 49152, Note_on_c, 0, 74, 0
2, 49320, Note_on_c, 0, 74, 74
2, 49363, Note_on_c, 0, 74, 0
2, 49440, Note_on_c, 0, 71, 74
2, 49536, Note_on_c, 0, 71, 0
2, 49560, Note_on_c, 0, 74, 74
2, 49603, Note_on_c, 0, 74, 0
2, 49680, Note_on_c, 0, 76, 74
2, 50112, Note_on_c, 0, 76, 0
2, 50910, Note_on_c, 0, 77, 74
2, 50934, Note_on_c, 0, 77, 0
2, 50940, Note_on_c, 0, 76, 74
2, 50964, Note_on_c, 0, 76, 0
2, 50970, Note_on_c, 0, 74, 74
2, 50994, Note_on_c, 0, 74, 0
2, 51000, Note_on_c, 0, 83, 74
2, 51024, Note_on_c, 0, 83, 0
2, 51030, Note_on_c, 0, 77, 74
2, 51054, Note_on_c, 0, 77, 0
2, 51060, Note_on_c, 0, 76, 74
2, 51084, Note_on_c, 0, 76, 0
2, 51090, Note_on_c, 0, 74, 74
2, 51114, Note_on_c, 0, 74, 0
2, 51120, Note_on_c, 0, 73, 74
2, 51168, Note_on_c, 0, 73, 0
2, 51180, Note_on_c, 0, 76, 74
2, 51228, Note_on_c, 0, 76, 0
2, 51240, Note_on_c, 0, 69, 74
2, 51288, Note_on_c, 0, 69, 0
2, 51300, Note_on_c, 0, 73, 74
2, 51348, Note_on_c, 0, 73, 0
2, 51420, Note_on_c, 0, 74, 74
2, 51468, Note_on_c, 0, 74, 0
2, 51480, Note_on_c, 0, 76, 74
2, 51528, Note_on_c, 0, 76, 0
2, 51540, Note_on_c, 0, 77, 74
2, 51588, Note_on_c, 0, 77, 0
2, 51600, Note_on_c, 0, 71, 74
2, 51648, Note_on_c, 0, 71, 0
2, 51660, Note_on_c, 0, 74, 74
2, 51708, Note_on_c, 0, 74, 0
2, 51720, Note_on_c, 0, 67, 74
2, 51768, Note_on_c, 0, 67, 0
2, 51780, Note_on_c, 0, 71, 74
2, 51828, Note_on_c, 0, 71, 0
2, 51900, Note_on_c, 0, 73, 74
2, 51948, Note_on_c, 0, 73, 0
2, 51960, Note_on_c, 0, 72, 74
2, 52008, Note_on_c, 0, 72, 0
2, 52020, Note_on_c, 0, 70, 74
2, 52068, Note_on_c, 0, 70, 0
2, 52080, Note_on_c, 0, 69, 74
2, 52128, Note_on_c, 0, 69, 0
2, 52140, Note_on_c, 0, 72, 74
2, 52188, Note_on_c, 0, 72, 0
2, 52200, Note_on_c, 0, 65, 74
2, 52248, Note_on_c, 0, 65, 0
2, 52260, Note_on_c, 0, 69, 74
2, 52308, Note_on_c, 0, 69, 0
2, 52380, Note_on_c, 0, 71, 74
2, 52428, Note_on_c, 0, 71, 0
2, 52440, Note_on_c, 0, 70, 74
2, 52488, Note_on_c, 0, 70, 0
2, 52500, Note_on_c, 0, 68, 74
2, 52548, Note_on_c, 0, 68, 0
2, 52560, Note_on_c, 0, 67, 74
2, 52608, Note_on_c, 0, 67, 0
2, 52620, Note_on_c, 0, 70, 74
2, 52668, Note_on_c, 0, 70, 0
2, 52680, Note_on_c, 0, 63, 74
2, 52728, Note_on_c, 0, 63, 0
2, 52740, Note_on_c, 0, 67, 74
2, 52788, Note_on_c, 0, 67, 0
2, 52860, Note_on_c, 0, 70, 74
2, 52908, Note_on_c, 0, 70, 0
2, 52920, Note_on_c, 0, 69, 74
2, 52968, Note_on_c, 0, 69, 0
2, 52980, Note_on_c, 0, 67, 74
2, 53028, Note_on_c, 0, 67, 0
2, 53040, Note_on_c, 0, 66, 74
2, 53088, Note_on_c, 0, 66, 0
2, 53100, Note_on_c, 0, 69, 74
2, 53148, Note_on_c, 0, 69, 0
2, 53160, Note_on_c, 0, 62, 74
2, 53208, Note_on_c, 0, 62, 0
2, 53220, Note_on_c, 0, 66, 74
2, 53268, Note_on_c, 0, 66, 0
2, 53280, Note_on_c, 0, 67, 74
2, 53376, Note_on_c, 0, 67, 0
2, 53400, Note_on_c, 0, 67, 74
2, 53448, Note_on_c, 0, 67, 0
2, 53460, Note_on_c, 0, 69, 74
2, 53508, Note_on_c, 0, 69, 0
2, 53520, Note_on_c, 0, 70, 74
2, 53616, Note_on_c, 0, 70, 0
2, 53640, Note_on_c, 0, 70, 74
2, 53688, Note_on_c, 0, 70, 0
2, 53700, Note_on_c, 0, 72, 74
2, 53748, Note_on_c, 0, 72, 0
2, 53760, Note_on_c, 0, 74, 74
2, 53856, Note_on_c, 0, 74, 0
2, 53880, Note_on_c, 0, 74, 74
2, 53928, Note_on_c, 0, 74, 0
2, 53940, Note_on_c, 0, 76, 74
2, 53988, Note_on_c, 0, 76, 0
2, 54000, Note_on_c, 0, 78, 74
2, 54096, Note_on_c, 0, 78, 0
2, 54120, Note_on_c, 0, 76, 74
2, 54168, Note_on_c, 0, 76, 0
2, 54180, Note_on_c, 0, 78, 74
2, 54228, Note_on_c, 0, 78, 0
2, 54480, Note_on_c, 0, 84, 74
2, 54912, Note_on_c, 0, 84, 0
2, 54960, Note_on_c, 0, 82, 74
2, 55344, Note_on_c, 0, 82, 0
2, 55440, Note_on_c, 0, 81, 74
2, 55776, Note_on_c, 0, 81, 0
2, 55800, Note_on_c, 0, 78, 74
2, 55968, Note_on_c, 0, 78, 0
2, 55980, Note_on_c, 0, 81, 74
2, 56028, Note_on_c, 0, 81, 0
2, 56040, Note_on_c, 0, 72, 74
2, 56088, Note_on_c, 0, 72, 0
2, 56100, Note_on_c, 0, 78, 74
2, 56148, Note_on_c, 0, 78, 0
2, 56160, Note_on_c, 0, 81, 74
2, 56208, Note_on_c, 0, 81, 0
2, 56220, Note_on_c, 0, 84, 74
2, 56268, Note_on_c, 0, 84, 0
2, 56280, Note_on_c, 0, 78, 74
2, 56328, Note_on_c, 0, 78, 0
2, 56340, Note_on_c, 0, 81, 74
2, 56388, Note_on_c, 0, 81, 0
2, 56400, Note_on_c, 0, 74, 74
2, 56448, Note_on_c, 0, 74, 0
2, 56460, Note_on_c, 0, 84, 74
2, 56508, Note_on_c, 0, 84, 0
2, 56520, Note_on_c, 0, 82, 74
2, 56568, Note_on_c, 0, 82, 0
2, 56580, Note_on_c, 0, 81, 74
2, 56628, Note_on_c, 0, 81, 0
2, 56640, Note_on_c, 0, 79, 74
2, 56688, Note_on_c, 0, 79, 0
2, 56700, Note_on_c, 0, 82, 74
2, 56748, Note_on_c, 0, 82, 0
2, 56760, Note_on_c, 0, 74, 74
2, 56808, Note_on_c, 0, 74, 0
2, 56820, Note_on_c, 0, 79, 74
2, 56868, Note_on_c, 0, 79, 0
2, 56880, Note_on_c, 0, 78, 74
2, 56928, Note_on_c, 0, 78, 0
2, 56940, Note_on_c, 0, 72, 74
2, 56988, Note_on_c, 0, 72, 0
2, 57000, Note_on_c, 0, 70, 74
2, 57048, Note_on_c, 0, 70, 0
2, 57060, Note_on_c, 0, 69, 74
2, 57108, Note_on_c, 0, 69, 0
2, 57120, Note_on_c, 0, 70, 74
2, 57168, Note_on_c, 0, 70, 0
2, 57180, Note_on_c, 0, 74, 74
2, 57228, Note_on_c, 0, 74, 0
2, 57240, Note_on_c, 0, 67, 74
2, 57288, Note_on_c, 0, 67, 0
2, 57300, Note_on_c, 0, 70, 74
2, 57348, Note_on_c, 0, 70, 0
2, 57360, Note_on_c, 0, 64, 74
2, 57408, Note_on_c, 0, 64, 0
2, 57420, Note_on_c, 0, 76, 74
2, 57468, Note_on_c, 0, 76, 0
2, 57480, Note_on_c, 0, 74, 74
2, 57528, Note_on_c, 0, 74, 0
2, 57540, Note_on_c, 0, 73, 74
2, 57588, Note_on_c, 0, 73, 0
2, 57600, Note_on_c, 0, 77, 74
2, 57792, Note_on_c, 0, 77, 0
2, 57840, Note_on_c, 0, 74, 74
2, 58224, Note_on_c, 0, 74, 0
2, 58320, Note_on_c, 0, 73, 74
2, 58752, Note_on_c, 0, 73, 0
2, 58800, Note_on_c, 0, 74, 74
2, 58896, Note_on_c, 0, 74, 0
2, 58920, Note_on_c, 0, 74, 74
2, 58968, Note_on_c, 0, 74, 0
2, 58980, Note_on_c, 0, 76, 74
2, 59028, Note_on_c, 0, 76, 0
2, 59040, Note_on_c, 0, 77, 74
2, 59136, Note_on_c, 0, 77, 0
2, 59160, Note_on_c, 0, 77, 74
2, 59208, Note_on_c, 0, 77, 0
2, 59220, Note_on_c, 0, 79, 74
2, 59268, Note_on_c, 0, 79, 0
2, 59280, Note_on_c, 0, 81, 74
2, 59376, Note_on_c, 0, 81, 0
2, 59400, Note_on_c, 0, 77, 74
2, 59443, Note_on_c, 0, 77, 0
2, 59520, Note_on_c, 0, 76, 74
2, 59712, Note_on_c, 0, 76, 0
2, 59760, Note_on_c, 0, 73, 74
2, 59856, Note_on_c, 0, 73, 0
2, 59880, Note_on_c, 0, 76, 74
2, 59976, Note_on_c, 0, 76, 0
2, 60000, Note_on_c, 0, 81, 74
2, 60192, Note_on_c, 0, 81, 0
2, 60240, Note_on_c, 0, 79, 74
2, 60672, Note_on_c, 0, 79, 0
2, 60720, Note_on_c, 0, 77, 74
2, 61104, Note_on_c, 0, 77, 0
2, 61200, Note_on_c, 0, 76, 74
2, 61488, Note_on_c, 0, 76, 0
2, 61500, Note_on_c, 0, 79, 74
2, 61548, Note_on_c, 0, 79, 0
2, 61560, Note_on_c, 0, 73, 74
2, 61608, Note_on_c, 0, 73, 0
2, 61620, Note_on_c, 0, 76, 74
2, 61668, Note_on_c, 0, 76, 0
2, 61680, Note_on_c, 0, 81, 74
2, 61776, Note_on_c, 0, 81, 0
2, 61800, Note_on_c, 0, 79, 74
2, 62304, Note_on_c, 0, 79, 0
2, 62400, Note_on_c, 0, 81, 74
2, 62496, Note_on_c, 0, 81, 0
2, 62520, Note_on_c, 0, 74, 74
2, 62688, Note_on_c, 0, 74, 0
2, 62700, Note_on_c, 0, 74, 74
2, 62748, Note_on_c, 0, 74, 0
2, 62760, Note_on_c, 0, 73, 74
2, 62808, Note_on_c, 0, 73, 0
2, 62820, Note_on_c, 0, 74, 74
2, 62868, Note_on_c, 0, 74, 0
2, 62880, Note_on_c, 0, 70, 74
2, 63072, Note_on_c, 0, 70, 0
2, 63180, Note_on_c, 0, 67, 74
2, 63228, Note_on_c, 0, 67, 0
2, 63240, Note_on_c, 0, 69, 74
2, 63288, Note_on_c, 0, 69, 0
2, 63300, Note_on_c, 0, 64, 74
2, 63321, Note_on_c, 0, 64, 0
2, 63360, Note_on_c, 0, 65, 74
2, 63489, Note_on_c, 0, 65, 0
2, 63720, Note_on_c, 0, 64, 74
2, 63816, Note_on_c, 0, 64, 0
2, 63840, Note_on_c, 0, 65, 74
2, 63864, Note_on_c, 0, 65, 0
2, 63870, Note_on_c, 0, 64, 74
2, 63894, Note_on_c, 0, 64, 0
2, 63900, Note_on_c, 0, 65, 74
2, 63924, Note_on_c, 0, 65, 0
2, 63930, Note_on_c, 0, 64, 74
2, 63954, Note_on_c, 0, 64, 0
2, 63960, Note_on_c, 0, 65, 74
2, 63984, Note_on_c, 0, 65, 0
2, 63990, Note_on_c, 0, 64, 74
2, 64014, Note_on_c, 0, 64, 0
2, 64020, Note_on_c, 0, 65, 74
2, 64044, Note_on_c, 0, 65, 0
2, 64050, Note_on_c, 0, 64, 74
2, 64074, Note_on_c, 0, 64, 0
2, 64080, Note_on_c, 0, 65, 74
2, 64104, Note_on_c, 0, 65, 0
2, 64110, Note_on_c, 0, 64, 74
2, 64134, Note_on_c, 0, 64, 0
2, 64140, Note_on_c, 0, 65, 74
2, 64164, Note_on_c, 0, 65, 0
2, 64170, Note_on_c, 0, 64, 74
2, 64194, Note_on_c, 0, 64, 0
2, 64200, Note_on_c, 0, 62, 90
2, 64248, Note_on_c, 0, 62, 0
2, 64260, Note_on_c, 0, 64, 90
2, 64308, Note_on_c, 0, 64, 0
2, 64320, Note_on_c, 0, 62, 74
2, 65088, Note_on_c, 0, 62, 0
2, 65088, End_track
3, 0, Start_track
3, 0, Title_t, "Harpsichord"
3, 0, Program_c, 0, 6
3, 0, Control_c, 0, 7, 110
3, 0, Control_c, 0, 10, 54
3, 4680, Note_on_c, 0, 69, 90
3, 4728, Note_on_c, 0, 69, 0
3, 4740, Note_on_c, 0, 71, 74
3, 4788, Note_on_c, 0, 71, 0
3, 4800, Note_on_c, 0, 57, 74
3, 4908, Note_on_c, 0, 57, 0
3, 4920, Note_on_c, 0, 57, 74
3, 4968, Note_on_c, 0, 57, 0
3, 4980, Note_on_c, 0, 59, 74
3, 5028, Note_on_c, 0, 59, 0
3, 5040, Note_on_c, 0, 60, 74
3, 5148, Note_on_c, 0, 60, 0
3, 5160, Note_on_c, 0, 60, 74
3, 5208, Note_on_c, 0, 60, 0
3, 5220, Note_on_c, 0, 62, 74
3, 5268, Note_on_c, 0, 62, 0
3, 5280, Note_on_c, 0, 64, 74
3, 5388, Note_on_c, 0, 64, 0
3, 5400, Note_on_c, 0, 64, 74
3, 5448, Note_on_c, 0, 64, 0
3, 5460, Note_on_c, 0, 66, 74
3, 5508, Note_on_c, 0, 66, 0
3, 5520, Note_on_c, 0, 68, 74
3, 5616, Note_on_c, 0, 68, 0
3, 5640, Note_on_c, 0, 66, 74
3, 5688, Note_on_c, 0, 66, 0
3, 5700, Note_on_c, 0, 68, 74
3, 5748, Note_on_c, 0, 68, 0
3, 5760, Note_on_c, 0, 69, 74
3, 5856, Note_on_c, 0, 69, 0
3, 5880, Note_on_c, 0, 65, 74
3, 5976, Note_on_c, 0, 65, 0
3, 6000, Note_on_c, 0, 62, 74
3, 6043, Note_on_c, 0, 62, 0
3, 6120, Note_on_c, 0, 65, 74
3, 6163, Note_on_c, 0, 65, 0
3, 6240, Note_on_c, 0, 67, 74
3, 6336, Note_on_c, 0, 67, 0
3, 6360, Note_on_c, 0, 64, 74
3, 6456, Note_on_c, 0, 64, 0
3, 6480, Note_on_c, 0, 60, 74
3, 6523, Note_on_c, 0, 60, 0
3, 6600, Note_on_c, 0, 64, 74
3, 6643, Note_on_c, 0, 64, 0
3, 6720, Note_on_c, 0, 65, 74
3, 6816, Note_on_c, 0, 65, 0
3, 6840, Note_on_c, 0, 62, 74
3, 6936, Note_on_c, 0, 62, 0
3, 6960, Note_on_c, 0, 59, 74
3, 7003, Note_on_c, 0, 59, 0
3, 7080, Note_on_c, 0, 62, 74
3, 7176, Note_on_c, 0, 62, 0
3, 7200, Note_on_c, 0, 62, 74
3, 7296, Note_on_c, 0, 62, 0
3, 7560, Note_on_c, 0, 62, 74
3, 7603, Note_on_c, 0, 62, 0
3, 7680, Note_on_c, 0, 59, 74
3, 7776, Note_on_c, 0, 59, 0
3, 7800, Note_on_c, 0, 62, 74
3, 7896, Note_on_c, 0, 62, 0
3, 7920, Note_on_c, 0, 64, 74
3, 7963, Note_on_c, 0, 64, 0
3, 8040, Note_on_c, 0, 56, 74
3, 8083, Note_on_c, 0, 56, 0
3, 8160, Note_on_c, 0, 57, 74
3, 8203, Note_on_c, 0, 57, 0
3, 8280, Note_on_c, 0, 60, 74
3, 8323, Note_on_c, 0, 60, 0
3, 8400, Note_on_c, 0, 64, 74
3, 8443, Note_on_c, 0, 64, 0
3, 8640, Note_on_c, 0, 64, 74
3, 8736, Note_on_c, 0, 64, 0
3, 8880, Note_on_c, 0, 63, 74
3, 8976, Note_on_c, 0, 63, 0
3, 9120, Note_on_c, 0, 62, 74
3, 9216, Note_on_c, 0, 62, 0
3, 9360, Note_on_c, 0, 61, 74
3, 9456, Note_on_c, 0, 61, 0
3, 9600, Note_on_c, 0, 60, 74
3, 9696, Note_on_c, 0, 60, 0
3, 9840, Note_on_c, 0, 59, 74
3, 9936, Note_on_c, 0, 59, 0
3, 10080, Note_on_c, 0, 58, 74
3, 10176, Note_on_c, 0, 58, 0
3, 10320, Note_on_c, 0, 57, 74
3, 10416, Note_on_c, 0, 57, 0
3, 10560, Note_on_c, 0, 57, 74
3, 10752, Note_on_c, 0, 57, 0
3, 10920, Note_on_c, 0, 62, 74
3, 11016, Note_on_c, 0, 62, 0
3, 11040, Note_on_c, 0, 64, 74
3, 11136, Note_on_c, 0, 64, 0
3, 11280, Note_on_c, 0, 69, 90
3, 11712, Note_on_c, 0, 69, 0
3, 11880, Note_on_c, 0, 65, 74
3, 11976, Note_on_c, 0, 65, 0
3, 12000, Note_on_c, 0, 67, 74
3, 12192, Note_on_c, 0, 67, 0
3, 12360, Note_on_c, 0, 64, 74
3, 12456, Note_on_c, 0, 64, 0
3, 12480, Note_on_c, 0, 65, 74
3, 12672, Note_on_c, 0, 65, 0
3, 12840, Note_on_c, 0, 62, 74
3, 12936, Note_on_c, 0, 62, 0
3, 12960, Note_on_c, 0, 64, 74
3, 13056, Note_on_c, 0, 64, 0
3, 13320, Note_on_c, 0, 64, 74
3, 13416, Note_on_c, 0, 64, 0
3, 13440, Note_on_c, 0, 61, 74
3, 13728, Note_on_c, 0, 61, 0
3, 13800, Note_on_c, 0, 61, 74
3, 13843, Note_on_c, 0, 61, 0
3, 13920, Note_on_c, 0, 62, 74
3, 14112, Note_on_c, 0, 62, 0
3, 14160, Note_on_c, 0, 61, 74
3, 14203, Note_on_c, 0, 61, 0
3, 14280, Note_on_c, 0, 64, 74
3, 14323, Note_on_c, 0, 64, 0
3, 14400, Note_on_c, 0, 62, 74
3, 14592, Note_on_c, 0, 62, 0
3, 14640, Note_on_c, 0, 64, 74
3, 14976, Note_on_c, 0, 64, 0
3, 15000, Note_on_c, 0, 69, 74
3, 15096, Note_on_c, 0, 69, 0
3, 15120, Note_on_c, 0, 68, 74
3, 15216, Note_on_c, 0, 68, 0
3, 15240, Note_on_c, 0, 69, 74
3, 15288, Note_on_c, 0, 69, 0
3, 15300, Note_on_c, 0, 68, 74
3, 15348, Note_on_c, 0, 68, 0
3, 15360, Note_on_c, 0, 69, 74
3, 15552, Note_on_c, 0, 69, 0
3, 15720, Note_on_c, 0, 60, 74
3, 15763, Note_on_c, 0, 60, 0
3, 15840, Note_on_c, 0, 59, 74
3, 16032, Note_on_c, 0, 59, 0
3, 16680, Note_on_c, 0, 58, 74
3, 16723, Note_on_c, 0, 58, 0
3, 16800, Note_on_c, 0, 57, 74
3, 16992, Note_on_c, 0, 57, 0
3, 17640, Note_on_c, 0, 57, 74
3, 17683, Note_on_c, 0, 57, 0
3, 17760, Note_on_c, 0, 55, 74
3, 17952, Note_on_c, 0, 55, 0
3, 23040, Note_on_c, 0, 72, 74
3, 23136, Note_on_c, 0, 72, 0
3, 23160, Note_on_c, 0, 69, 74
3, 23203, Note_on_c, 0, 69, 0
3, 23280, Note_on_c, 0, 65, 74
3, 23323, Note_on_c, 0, 65, 0
3, 23400, Note_on_c, 0, 69, 74
3, 23443, Note_on_c, 0, 69, 0
3, 23520, Note_on_c, 0, 71, 74
3, 23616, Note_on_c, 0, 71, 0
3, 23640, Note_on_c, 0, 67, 74
3, 23683, Note_on_c, 0, 67, 0
3, 23760, Note_on_c, 0, 64, 74
3, 23803, Note_on_c, 0, 64, 0
3, 23880, Note_on_c, 0, 67, 74
3, 23923, Note_on_c, 0, 67, 0
3, 24000, Note_on_c, 0, 69, 74
3, 24096, Note_on_c, 0, 69, 0
3, 24120, Note_on_c, 0, 65, 74
3, 24163, Note_on_c, 0, 65, 0
3, 24240, Note_on_c, 0, 62, 74
3, 24283, Note_on_c, 0, 62, 0
3, 24360, Note_on_c, 0, 65, 74
3, 24403, Note_on_c, 0, 65, 0
3, 24480, Note_on_c, 0, 65, 74
3, 24672, Note_on_c, 0, 65, 0
3, 24840, Note_on_c, 0, 65, 74
3, 24883, Note_on_c, 0, 65, 0
3, 24960, Note_on_c, 0, 62, 74
3, 25003, Note_on_c, 0, 62, 0
3, 25080, Note_on_c, 0, 65, 74
3, 25248, Note_on_c, 0, 65, 0
3, 25260, Note_on_c, 0, 65, 74
3, 25308, Note_on_c, 0, 65, 0
3, 25320, Note_on_c, 0, 64, 74
3, 25368, Note_on_c, 0, 64, 0
3, 25380, Note_on_c, 0, 62, 74
3, 25428, Note_on_c, 0, 62, 0
3, 25440, Note_on_c, 0, 60, 74
3, 25536, Note_on_c, 0, 60, 0
3, 25560, Note_on_c, 0, 60, 74
3, 25656, Note_on_c, 0, 60, 0
3, 25680, Note_on_c, 0, 59, 74
3, 25723, Note_on_c, 0, 59, 0
3, 25800, Note_on_c, 0, 62, 74
3, 25843, Note_on_c, 0, 62, 0
3, 25920, Note_on_c, 0, 60, 74
3, 26112, Note_on_c, 0, 60, 0
3, 26280, Note_on_c, 0, 63, 74
3, 26323, Note_on_c, 0, 63, 0
3, 26400, Note_on_c, 0, 62, 74
3, 26592, Note_on_c, 0, 62, 0
3, 26760, Note_on_c, 0, 62, 74
3, 26803, Note_on_c, 0, 62, 0
3, 34200, Note_on_c, 0, 70, 90
3, 34368, Note_on_c, 0, 70, 0
3, 34380, Note_on_c, 0, 74, 74
3, 34428, Note_on_c, 0, 74, 0
3, 34440, Note_on_c, 0, 72, 74
3, 34488, Note_on_c, 0, 72, 0
3, 34500, Note_on_c, 0, 70, 74
3, 34548, Note_on_c, 0, 70, 0
3, 34560, Note_on_c, 0, 69, 74
3, 34848, Note_on_c, 0, 69, 0
3, 34860, Note_on_c, 0, 72, 74
3, 34908, Note_on_c, 0, 72, 0
3, 34920, Note_on_c, 0, 70, 74
3, 34968, Note_on_c, 0, 70, 0
3, 34980, Note_on_c, 0, 69, 74
3, 35028, Note_on_c, 0, 69, 0
3, 35040, Note_on_c, 0, 67, 74
3, 35328, Note_on_c, 0, 67, 0
3, 35340, Note_on_c, 0, 70, 74
3, 35388, Note_on_c, 0, 70, 0
3, 35400, Note_on_c, 0, 69, 74
3, 35448, Note_on_c, 0, 69, 0
3, 35460, Note_on_c, 0, 67, 74
3, 35508, Note_on_c, 0, 67, 0
3, 35520, Note_on_c, 0, 65, 74
3, 35808, Note_on_c, 0, 65, 0
3, 35820, Note_on_c, 0, 69, 74
3, 35868, Note_on_c, 0, 69, 0
3, 35880, Note_on_c, 0, 67, 74
3, 35928, Note_on_c, 0, 67, 0
3, 35940, Note_on_c, 0, 65, 74
3, 35988, Note_on_c, 0, 65, 0
3, 36000, Note_on_c, 0, 63, 74
3, 36288, Note_on_c, 0, 63, 0
3, 36300, Note_on_c, 0, 67, 74
3, 36348, Note_on_c, 0, 67, 0
3, 36360, Note_on_c, 0, 65, 74
3, 36408, Note_on_c, 0, 65, 0
3, 36420, Note_on_c, 0, 63, 74
3, 36468, Note_on_c, 0, 63, 0
3, 36480, Note_on_c, 0, 62, 74
3, 36523, Note_on_c, 0, 62, 0
3, 36600, Note_on_c, 0, 58, 74
3, 36643, Note_on_c, 0, 58, 0
3, 36720, Note_on_c, 0, 65, 74
3, 36763, Note_on_c, 0, 65, 0
3, 36840, Note_on_c, 0, 58, 74
3, 36883, Note_on_c, 0, 58, 0
3, 36960, Note_on_c, 0, 57, 74
3, 37152, Note_on_c, 0, 57, 0
3, 37260, Note_on_c, 0, 65, 74
3, 37308, Note_on_c, 0, 65, 0
3, 37320, Note_on_c, 0, 63, 74
3, 37368, Note_on_c, 0, 63, 0
3, 37380, Note_on_c, 0, 65, 74
3, 37428, Note_on_c, 0, 65, 0
3, 37440, Note_on_c, 0, 62, 74
3, 37488, Note_on_c, 0, 62, 0
3, 37500, Note_on_c, 0, 65, 74
3, 37548, Note_on_c, 0, 65, 0
3, 37560, Note_on_c, 0, 58, 74
3, 37608, Note_on_c, 0, 58, 0
3, 37620, Note_on_c, 0, 62, 74
3, 37668, Note_on_c, 0, 62, 0
3, 37680, Note_on_c, 0, 67, 74
3, 37728, Note_on_c, 0, 67, 0
3, 37740, Note_on_c, 0, 63, 74
3, 37788, Note_on_c, 0, 63, 0
3, 37800, Note_on_c, 0, 58, 74
3, 37848, Note_on_c, 0, 58, 0
3, 37860, Note_on_c, 0, 62, 74
3, 37908, Note_on_c, 0, 62, 0
3, 37920, Note_on_c, 0, 60, 74
3, 37968, Note_on_c, 0, 60, 0
3, 37980, Note_on_c, 0, 63, 74
3, 38028, Note_on_c, 0, 63, 0
3, 38040, Note_on_c, 0, 57, 74
3, 38088, Note_on_c, 0, 57, 0
3, 38100, Note_on_c, 0, 60, 74
3, 38148, Note_on_c, 0, 60, 0
3, 38160, Note_on_c, 0, 65, 74
3, 38208, Note_on_c, 0, 65, 0
3, 38220, Note_on_c, 0, 62, 74
3, 38268, Note_on_c, 0, 62, 0
3, 38280, Note_on_c, 0, 57, 74
3, 38328, Note_on_c, 0, 57, 0
3, 38340, Note_on_c, 0, 60, 74
3, 38388, Note_on_c, 0, 60, 0
3, 38400, Note_on_c, 0, 58, 74
3, 38448, Note_on_c, 0, 58, 0
3, 38460, Note_on_c, 0, 62, 74
3, 38508, Note_on_c, 0, 62, 0
3, 38520, Note_on_c, 0, 55, 74
3, 38568, Note_on_c, 0, 55, 0
3, 38580, Note_on_c, 0, 58, 74
3, 38628, Note_on_c, 0, 58, 0
3, 38640, Note_on_c, 0, 63, 74
3, 38688, Note_on_c, 0, 63, 0
3, 38700, Note_on_c, 0, 60, 74
3, 38748, Note_on_c, 0, 60, 0
3, 38760, Note_on_c, 0, 55, 74
3, 38808, Note_on_c, 0, 55, 0
3, 38820, Note_on_c, 0, 58, 74
3, 38868, Note_on_c, 0, 58, 0
3, 38880, Note_on_c, 0, 57, 74
3, 38928, Note_on_c, 0, 57, 0
3, 38940, Note_on_c, 0, 60, 74
3, 38988, Note_on_c, 0, 60, 0
3, 39000, Note_on_c, 0, 53, 74
3, 39048, Note_on_c, 0, 53, 0
3, 39060, Note_on_c, 0, 57, 74
3, 39108, Note_on_c, 0, 57, 0
3, 39120, Note_on_c, 0, 60, 74
3, 39168, Note_on_c, 0, 60, 0
3, 39180, Note_on_c, 0, 63, 74
3, 39228, Note_on_c, 0, 63, 0
3, 39240, Note_on_c, 0, 57, 74
3, 39288, Note_on_c, 0, 57, 0
3, 39300, Note_on_c, 0, 60, 74
3, 39348, Note_on_c, 0, 60, 0
3, 39360, Note_on_c, 0, 63, 74
3, 39408, Note_on_c, 0, 63, 0
3, 39420, Note_on_c, 0, 67, 74
3, 39468, Note_on_c, 0, 67, 0
3, 39480, Note_on_c, 0, 60, 74
3, 39528, Note_on_c, 0, 60, 0
3, 39540, Note_on_c, 0, 63, 74
3, 39588, Note_on_c, 0, 63, 0
3, 39600, Note_on_c, 0, 57, 74
3, 39648, Note_on_c, 0, 57, 0
3, 39660, Note_on_c, 0, 67, 74
3, 39708, Note_on_c, 0, 67, 0
3, 39720, Note_on_c, 0, 65, 74
3, 39768, Note_on_c, 0, 65, 0
3, 39780, Note_on_c, 0, 63, 74
3, 39828, Note_on_c, 0, 63, 0
3, 39840, Note_on_c, 0, 62, 74
3, 39861, Note_on_c, 0, 62, 0
3, 39900, Note_on_c, 0, 65, 74
3, 39948, Note_on_c, 0, 65, 0
3, 39960, Note_on_c, 0, 58, 74
3, 40008, Note_on_c, 0, 58, 0
3, 40020, Note_on_c, 0, 62, 74
3, 40068, Note_on_c, 0, 62, 0
3, 40080, Note_on_c, 0, 53, 74
3, 40128, Note_on_c, 0, 53, 0
3, 40140, Note_on_c, 0, 60, 74
3, 40188, Note_on_c, 0, 60, 0
3, 40200, Note_on_c, 0, 58, 74
3, 40248, Note_on_c, 0, 58, 0
3, 40260, Note_on_c, 0, 57, 74
3, 40308, Note_on_c, 0, 57, 0
3, 40320, Note_on_c, 0, 58, 74
3, 40416, Note_on_c, 0, 58, 0
3, 40440, Note_on_c, 0, 58, 74
3, 40488, Note_on_c, 0, 58, 0
3, 40500, Note_on_c, 0, 60, 74
3, 40548, Note_on_c, 0, 60, 0
3, 40560, Note_on_c, 0, 62, 74
3, 40656, Note_on_c, 0, 62, 0
3, 40680, Note_on_c, 0, 62, 74
3, 40728, Note_on_c, 0, 62, 0
3, 40740, Note_on_c, 0, 64, 74
3, 40788, Note_on_c, 0, 64, 0
3, 40800, Note_on_c, 0, 65, 74
3, 40843, Note_on_c, 0, 65, 0
3, 40920, Note_on_c, 0, 53, 74
3, 40968, Note_on_c, 0, 53, 0
3, 40980, Note_on_c, 0, 55, 74
3, 41028, Note_on_c, 0, 55, 0
3, 41040, Note_on_c, 0, 57, 74
3, 41136, Note_on_c, 0, 57, 0
3, 41160, Note_on_c, 0, 57, 74
3, 41208, Note_on_c, 0, 57, 0
3, 41220, Note_on_c, 0, 59, 74
3, 41268, Note_on_c, 0, 59, 0
3, 41280, Note_on_c, 0, 60, 74
3, 41376, Note_on_c, 0, 60, 0
3, 41400, Note_on_c, 0, 60, 74
3, 41448, Note_on_c, 0, 60, 0
3, 41460, Note_on_c, 0, 62, 74
3, 41508, Note_on_c, 0, 62, 0
3, 41520, Note_on_c, 0, 64, 74
3, 41616, Note_on_c, 0, 64, 0
3, 41640, Note_on_c, 0, 64, 74
3, 41688, Note_on_c, 0, 64, 0
3, 41700, Note_on_c, 0, 65, 74
3, 41748, Note_on_c, 0, 65, 0
3, 41760, Note_on_c, 0, 67, 74
3, 41803, Note_on_c, 0, 67, 0
3, 41880, Note_on_c, 0, 55, 74
3, 41928, Note_on_c, 0, 55, 0
3, 41940, Note_on_c, 0, 57, 74
3, 41988, Note_on_c, 0, 57, 0
3, 42000, Note_on_c, 0, 59, 74
3, 42096, Note_on_c, 0, 59, 0
3, 42120, Note_on_c, 0, 59, 74
3, 42168, Note_on_c, 0, 59, 0
3, 42180, Note_on_c, 0, 61, 74
3, 42228, Note_on_c, 0, 61, 0
3, 42240, Note_on_c, 0, 62, 74
3, 42336, Note_on_c, 0, 62, 0
3, 42360, Note_on_c, 0, 62, 74
3, 42408, Note_on_c, 0, 62, 0
3, 42420, Note_on_c, 0, 64, 74
3, 42468, Note_on_c, 0, 64, 0
3, 42480, Note_on_c, 0, 65, 74
3, 42576, Note_on_c, 0, 65, 0
3, 42600, Note_on_c, 0, 65, 74
3, 42648, Note_on_c, 0, 65, 0
3, 42660, Note_on_c, 0, 67, 74
3, 42708, Note_on_c, 0, 67, 0
3, 42720, Note_on_c, 0, 69, 74
3, 42816, Note_on_c, 0, 69, 0
3, 42840, Note_on_c, 0, 69, 74
3, 42888, Note_on_c, 0, 69, 0
3, 42900, Note_on_c, 0, 71, 74
3, 42948, Note_on_c, 0, 71, 0
3, 42960, Note_on_c, 0, 73, 74
3, 43056, Note_on_c, 0, 73, 0
3, 43080, Note_on_c, 0, 71, 74
3, 43128, Note_on_c, 0, 71, 0
3, 43140, Note_on_c, 0, 73, 74
3, 43188, Note_on_c, 0, 73, 0
3, 43200, Note_on_c, 0, 74, 74
3, 43296, Note_on_c, 0, 74, 0
3, 43320, Note_on_c, 0, 70, 74
3, 43363, Note_on_c, 0, 70, 0
3, 43440, Note_on_c, 0, 67, 74
3, 43483, Note_on_c, 0, 67, 0
3, 43560, Note_on_c, 0, 70, 74
3, 43603, Note_on_c, 0, 70, 0
3, 43680, Note_on_c, 0, 72, 74
3, 43723, Note_on_c, 0, 72, 0
3, 43800, Note_on_c, 0, 69, 74
3, 43843, Note_on_c, 0, 69, 0
3, 43920, Note_on_c, 0, 65, 74
3, 43963, Note_on_c, 0, 65, 0
3, 44040, Note_on_c, 0, 69, 74
3, 44083, Note_on_c, 0, 69, 0
3, 44160, Note_on_c, 0, 70, 74
3, 44256, Note_on_c, 0, 70, 0
3, 44280, Note_on_c, 0, 67, 74
3, 44323, Note_on_c, 0, 67, 0
3, 44400, Note_on_c, 0, 64, 74
3, 44443, Note_on_c, 0, 64, 0
3, 44520, Note_on_c, 0, 67, 74
3, 44563, Note_on_c, 0, 67, 0
3, 44640, Note_on_c, 0, 67, 74
3, 44832, Note_on_c, 0, 67, 0
3, 45000, Note_on_c, 0, 67, 74
3, 45043, Note_on_c, 0, 67, 0
3, 45120, Note_on_c, 0, 64, 74
3, 45216, Note_on_c, 0, 64, 0
3, 45240, Note_on_c, 0, 67, 74
3, 45283, Note_on_c, 0, 67, 0
3, 45360, Note_on_c, 0, 69, 74
3, 45403, Note_on_c, 0, 69, 0
3, 45480, Note_on_c, 0, 61, 74
3, 45523, Note_on_c, 0, 61, 0
3, 45600, Note_on_c, 0, 62, 74
3, 45696, Note_on_c, 0, 62, 0
3, 45720, Note_on_c, 0, 65, 74
3, 45763, Note_on_c, 0, 65, 0
3, 45840, Note_on_c, 0, 69, 74
3, 45883, Note_on_c, 0, 69, 0
3, 45960, Note_on_c, 0, 64, 74
3, 46003, Note_on_c, 0, 64, 0
3, 46080, Note_on_c, 0, 65, 74
3, 46176, Note_on_c, 0, 65, 0
3, 46320, Note_on_c, 0, 64, 74
3, 46416, Note_on_c, 0, 64, 0
3, 46560, Note_on_c, 0, 64, 74
3, 46752, Note_on_c, 0, 64, 0
3, 46800, Note_on_c, 0, 69, 74
3, 46992, Note_on_c, 0, 69, 0
3, 47040, Note_on_c, 0, 71, 74
3, 47232, Note_on_c, 0, 71, 0
3, 47400, Note_on_c, 0, 76, 74
3, 47496, Note_on_c, 0, 76, 0
3, 47520, Note_on_c, 0, 76, 74
3, 47712, Note_on_c, 0, 76, 0
3, 47880, Note_on_c, 0, 72, 74
3, 47923, Note_on_c, 0, 72, 0
3, 48000, Note_on_c, 0, 74, 74
3, 48192, Note_on_c, 0, 74, 0
3, 48360, Note_on_c, 0, 71, 74
3, 48403, Note_on_c, 0, 71, 0
3, 48480, Note_on_c, 0, 72, 74
3, 48672, Note_on_c, 0, 72, 0
3, 48840, Note_on_c, 0, 69, 74
3, 48883, Note_on_c, 0, 69, 0
3, 48960, Note_on_c, 0, 71, 74
3, 49152, Note_on_c, 0, 71, 0
3, 49320, Note_on_c, 0, 71, 74
3, 49363, Note_on_c, 0, 71, 0
3, 49440, Note_on_c, 0, 68, 74
3, 49728, Note_on_c, 0, 68, 0
3, 49800, Note_on_c, 0, 68, 74
3, 49843, Note_on_c, 0, 68, 0
3, 49920, Note_on_c, 0, 69, 74
3, 50112, Note_on_c, 0, 69, 0
3, 51240, Note_on_c, 0, 67, 74
3, 51283, Note_on_c, 0, 67, 0
3, 51360, Note_on_c, 0, 65, 74
3, 51456, Note_on_c, 0, 65, 0
3, 51600, Note_on_c, 0, 65, 74
3, 51696, Note_on_c, 0, 65, 0
3, 51840, Note_on_c, 0, 64, 74
3, 51936, Note_on_c, 0, 64, 0
3, 52080, Note_on_c, 0, 63, 74
3, 52176, Note_on_c, 0, 63, 0
3, 52320, Note_on_c, 0, 62, 74
3, 52416, Note_on_c, 0, 62, 0
3, 52560, Note_on_c, 0, 61, 74
3, 52656, Note_on_c, 0, 61, 0
3, 52800, Note_on_c, 0, 61, 74
3, 52896, Note_on_c, 0, 61, 0
3, 53040, Note_on_c, 0, 60, 74
3, 53136, Note_on_c, 0, 60, 0
3, 53280, Note_on_c, 0, 62, 74
3, 53472, Note_on_c, 0, 62, 0
3, 53520, Note_on_c, 0, 67, 74
3, 53712, Note_on_c, 0, 67, 0
3, 53760, Note_on_c, 0, 69, 74
3, 53952, Note_on_c, 0, 69, 0
3, 54000, Note_on_c, 0, 74, 74
3, 54192, Note_on_c, 0, 74, 0
3, 54240, Note_on_c, 0, 79, 74
3, 54336, Note_on_c, 0, 79, 0
3, 54360, Note_on_c, 0, 75, 74
3, 54403, Note_on_c, 0, 75, 0
3, 54480, Note_on_c, 0, 72, 74
3, 54523, Note_on_c, 0, 72, 0
3, 54600, Note_on_c, 0, 75, 74
3, 54643, Note_on_c, 0, 75, 0
3, 54720, Note_on_c, 0, 77, 74
3, 54816, Note_on_c, 0, 77, 0
3, 54840, Note_on_c, 0, 74, 74
3, 54883, Note_on_c, 0, 74, 0
3, 54960, Note_on_c, 0, 70, 74
3, 55003, Note_on_c, 0, 70, 0
3, 55080, Note_on_c, 0, 74, 74
3, 55123, Note_on_c, 0, 74, 0
3, 55200, Note_on_c, 0, 75, 74
3, 55296, Note_on_c, 0, 75, 0
3, 55320, Note_on_c, 0, 72, 74
3, 55363, Note_on_c, 0, 72, 0
3, 55440, Note_on_c, 0, 69, 74
3, 55483, Note_on_c, 0, 69, 0
3, 55560, Note_on_c, 0, 72, 74
3, 55603, Note_on_c, 0, 72, 0
3, 55680, Note_on_c, 0, 72, 74
3, 55872, Note_on_c, 0, 72, 0
3, 57660, Note_on_c, 0, 70, 74
3, 57708, Note_on_c, 0, 70, 0
3, 57720, Note_on_c, 0, 69, 74
3, 57768, Note_on_c, 0, 69, 0
3, 57780, Note_on_c, 0, 67, 74
3, 57828, Note_on_c, 0, 67, 0
3, 57840, Note_on_c, 0, 65, 74
3, 57888, Note_on_c, 0, 65, 0
3, 57900, Note_on_c, 0, 69, 74
3, 57948, Note_on_c, 0, 69, 0
3, 57960, Note_on_c, 0, 62, 74
3, 58008, Note_on_c, 0, 62, 0
3, 58020, Note_on_c, 0, 65, 74
3, 58068, Note_on_c, 0, 65, 0
3, 58140, Note_on_c, 0, 69, 74
3, 58188, Note_on_c, 0, 69, 0
3, 58200, Note_on_c, 0, 67, 74
3, 58248, Note_on_c, 0, 67, 0
3, 58260, Note_on_c, 0, 65, 74
3, 58308, Note_on_c, 0, 65, 0
3, 58320, Note_on_c, 0, 64, 74
3, 58368, Note_on_c, 0, 64, 0
3, 58380, Note_on_c, 0, 67, 74
3, 58428, Note_on_c, 0, 67, 0
3, 58440, Note_on_c, 0, 61, 74
3, 58488, Note_on_c, 0, 61, 0
3, 58500, Note_on_c, 0, 64, 74
3, 58548, Note_on_c, 0, 64, 0
3, 58620, Note_on_c, 0, 67, 74
3, 58668, Note_on_c, 0, 67, 0
3, 58680, Note_on_c, 0, 65, 74
3, 58728, Note_on_c, 0, 65, 0
3, 58740, Note_on_c, 0, 64, 74
3, 58788, Note_on_c, 0, 64, 0
3, 58800, Note_on_c, 0, 65, 74
3, 58848, Note_on_c, 0, 65, 0
3, 58860, Note_on_c, 0, 64, 74
3, 58908, Note_on_c, 0, 64, 0
3, 58920, Note_on_c, 0, 62, 74
3, 58968, Note_on_c, 0, 62, 0
3, 58980, Note_on_c, 0, 61, 74
3, 59028, Note_on_c, 0, 61, 0
3, 59040, Note_on_c, 0, 62, 74
3, 59136, Note_on_c, 0, 62, 0
3, 59160, Note_on_c, 0, 62, 74
3, 59208, Note_on_c, 0, 62, 0
3, 59220, Note_on_c, 0, 64, 74
3, 59268, Note_on_c, 0, 64, 0
3, 59280, Note_on_c, 0, 65, 74
3, 59376, Note_on_c, 0, 65, 0
3, 59400, Note_on_c, 0, 65, 74
3, 59448, Note_on_c, 0, 65, 0
3, 59460, Note_on_c, 0, 67, 74
3, 59508, Note_on_c, 0, 67, 0
3, 59520, Note_on_c, 0, 69, 74
3, 59616, Note_on_c, 0, 69, 0
3, 59640, Note_on_c, 0, 69, 74
3, 59688, Note_on_c, 0, 69, 0
3, 59700, Note_on_c, 0, 71, 74
3, 59748, Note_on_c, 0, 71, 0
3, 59760, Note_on_c, 0, 73, 74
3, 59856, Note_on_c, 0, 73, 0
3, 59880, Note_on_c, 0, 71, 74
3, 59928, Note_on_c, 0, 71, 0
3, 59940, Note_on_c, 0, 73, 74
3, 59988, Note_on_c, 0, 73, 0
3, 60000, Note_on_c, 0, 74, 74
3, 60096, Note_on_c, 0, 74, 0
3, 60120, Note_on_c, 0, 70, 74
3, 60163, Note_on_c, 0, 70, 0
3, 60240, Note_on_c, 0, 67, 74
3, 60283, Note_on_c, 0, 67, 0
3, 60360, Note_on_c, 0, 70, 74
3, 60403, Note_on_c, 0, 70, 0
3, 60480, Note_on_c, 0, 72, 74
3, 60576, Note_on_c, 0, 72, 0
3, 60600, Note_on_c, 0, 69, 74
3, 60643, Note_on_c, 0, 69, 0
3, 60720, Note_on_c, 0, 65, 74
3, 60763, Note_on_c, 0, 65, 0
3, 60840, Note_on_c, 0, 69, 74
3, 60883, Note_on_c, 0, 69, 0
3, 60960, Note_on_c, 0, 70, 74
3, 61056, Note_on_c, 0, 70, 0
3, 61080, Note_on_c, 0, 67, 74
3, 61123, Note_on_c, 0, 67, 0
3, 61200, Note_on_c, 0, 64, 74
3, 61243, Note_on_c, 0, 64, 0
3, 61320, Note_on_c, 0, 67, 74
3, 61363, Note_on_c, 0, 67, 0
3, 61440, Note_on_c, 0, 67, 74
3, 61536, Note_on_c, 0, 67, 0
3, 61680, Note_on_c, 0, 61, 74
3, 61728, Note_on_c, 0, 61, 0
3, 61740, Note_on_c, 0, 64, 74
3, 61788, Note_on_c, 0, 64, 0
3, 61800, Note_on_c, 0, 57, 74
3, 61848, Note_on_c, 0, 57, 0
3, 61860, Note_on_c, 0, 61, 74
3, 61908, Note_on_c, 0, 61, 0
3, 61920, Note_on_c, 0, 64, 74
3, 61941, Note_on_c, 0, 64, 0
3, 61980, Note_on_c, 0, 67, 74
3, 62028, Note_on_c, 0, 67, 0
3, 62040, Note_on_c, 0, 61, 74
3, 62088, Note_on_c, 0, 61, 0
3, 62100, Note_on_c, 0, 64, 74
3, 62148, Note_on_c, 0, 64, 0
3, 62160, Note_on_c, 0, 57, 74
3, 62208, Note_on_c, 0, 57, 0
3, 62220, Note_on_c, 0, 67, 74
3, 62268, Note_on_c, 0, 67, 0
3, 62280, Note_on_c, 0, 65, 74
3, 62328, Note_on_c, 0, 65, 0
3, 62340, Note_on_c, 0, 64, 74
3, 62388, Note_on_c, 0, 64, 0
3, 62400, Note_on_c, 0, 62, 74
3, 62421, Note_on_c, 0, 62, 0
3, 62460, Note_on_c, 0, 65, 74
3, 62508, Note_on_c, 0, 65, 0
3, 62520, Note_on_c, 0, 57, 74
3, 62568, Note_on_c, 0, 57, 0
3, 62580, Note_on_c, 0, 62, 74
3, 62628, Note_on_c, 0, 62, 0
3, 62640, Note_on_c, 0, 65, 74
3, 62832, Note_on_c, 0, 65, 0
3, 62880, Note_on_c, 0, 64, 74
3, 62880, Note_on_c, 0, 67, 74
3, 63072, Note_on_c, 0, 67, 0
3, 63072, Note_on_c, 0, 64, 0
3, 63360, Note_on_c, 0, 62, 74
3, 63446, Note_on_c, 0, 62, 0
3, 63600, Note_on_c, 0, 62, 74
3, 63772, Note_on_c, 0, 62, 0
3, 64080, Note_on_c, 0, 61, 74
3, 64272, Note_on_c, 0, 61, 0
3, 64320, Note_on_c, 0, 57, 90
3, 65088, Note_on_c, 0, 57, 0
3, 65088, End_track
4, 0, Start_track
4, 0, Title_t, "Harpsichord"
4, 0, Program_c, 0, 6
4, 0, Control_c, 0, 7, 110
4, 0, Control_c, 0, 10, 76
4, 10440, Note_on_c, 0, 50, 74
4, 10488, Note_on_c, 0, 50, 0
4, 10500, Note_on_c, 0, 52, 74
4, 10548, Note_on_c, 0, 52, 0
4, 10560, Note_on_c, 0, 53, 74
4, 10603, Note_on_c, 0, 53, 0
4, 10680, Note_on_c, 0, 50, 74
4, 10723, Note_on_c, 0, 50, 0
4, 10800, Note_on_c, 0, 57, 74
4, 10843, Note_on_c, 0, 57, 0
4, 10920, Note_on_c, 0, 50, 74
4, 10963, Note_on_c, 0, 50, 0
4, 11040, Note_on_c, 0, 49, 74
4, 11232, Note_on_c, 0, 49, 0
4, 11340, Note_on_c, 0, 57, 74
4, 11388, Note_on_c, 0, 57, 0
4, 11400, Note_on_c, 0, 55, 74
4, 11448, Note_on_c, 0, 55, 0
4, 11460, Note_on_c, 0, 57, 74
4, 11508, Note_on_c, 0, 57, 0
4, 11520, Note_on_c, 0, 53, 74
4, 11568, Note_on_c, 0, 53, 0
4, 11580, Note_on_c, 0, 57, 74
4, 11628, Note_on_c, 0, 57, 0
4, 11640, Note_on_c, 0, 50, 74
4, 11688, Note_on_c, 0, 50, 0
4, 11700, Note_on_c, 0, 53, 74
4, 11748, Note_on_c, 0, 53, 0
4, 11760, Note_on_c, 0, 58, 74
4, 11808, Note_on_c, 0, 58, 0
4, 11820, Note_on_c, 0, 55, 74
4, 11868, Note_on_c, 0, 55, 0
4, 11880, Note_on_c, 0, 50, 74
4, 11928, Note_on_c, 0, 50, 0
4, 11940, Note_on_c, 0, 53, 74
4, 11988, Note_on_c, 0, 53, 0
4, 12000, Note_on_c, 0, 52, 74
4, 12021, Note_on_c, 0, 52, 0
4, 12060, Note_on_c, 0, 55, 74
4, 12108, Note_on_c, 0, 55, 0
4, 12120, Note_on_c, 0, 48, 74
4, 12168, Note_on_c, 0, 48, 0
4, 12180, Note_on_c, 0, 52, 74
4, 12228, Note_on_c, 0, 52, 0
4, 12240, Note_on_c, 0, 57, 74
4, 12288, Note_on_c, 0, 57, 0
4, 12300, Note_on_c, 0, 53, 74
4, 12348, Note_on_c, 0, 53, 0
4, 12360, Note_on_c, 0, 48, 74
4, 12408, Note_on_c, 0, 48, 0
4, 12420, Note_on_c, 0, 52, 74
4, 12468, Note_on_c, 0, 52, 0
4, 12480, Note_on_c, 0, 50, 74
4, 12501, Note_on_c, 0, 50, 0
4, 12540, Note_on_c, 0, 53, 74
4, 12588, Note_on_c, 0, 53, 0
4, 12600, Note_on_c, 0, 46, 74
4, 12648, Note_on_c, 0, 46, 0
4, 12660, Note_on_c, 0, 50, 74
4, 12708, Note_on_c, 0, 50, 0
4, 12720, Note_on_c, 0, 55, 74
4, 12768, Note_on_c, 0, 55, 0
4, 12780, Note_on_c, 0, 52, 74
4, 12828, Note_on_c, 0, 52, 0
4, 12840, Note_on_c, 0, 47, 74
4, 12888, Note_on_c, 0, 47, 0
4, 12900, Note_on_c, 0, 50, 74
4, 12948, Note_on_c, 0, 50, 0
4, 12960, Note_on_c, 0, 49, 74
4, 12981, Note_on_c, 0, 49, 0
4, 13020, Note_on_c, 0, 52, 74
4, 13068, Note_on_c, 0, 52, 0
4, 13080, Note_on_c, 0, 45, 74
4, 13128, Note_on_c, 0, 45, 0
4, 13140, Note_on_c, 0, 49, 74
4, 13188, Note_on_c, 0, 49, 0
4, 13200, Note_on_c, 0, 52, 74
4, 13248, Note_on_c, 0, 52, 0
4, 13260, Note_on_c, 0, 55, 74
4, 13308, Note_on_c, 0, 55, 0
4, 13320, Note_on_c, 0, 49, 74
4, 13368, Note_on_c, 0, 49, 0
4, 13380, Note_on_c, 0, 52, 74
4, 13428, Note_on_c, 0, 52, 0
4, 13440, Note_on_c, 0, 55, 74
4, 13461, Note_on_c, 0, 55, 0
4, 13500, Note_on_c, 0, 58, 74
4, 13548, Note_on_c, 0, 58, 0
4, 13560, Note_on_c, 0, 52, 74
4, 13608, Note_on_c, 0, 52, 0
4, 13620, Note_on_c, 0, 55, 74
4, 13668, Note_on_c, 0, 55, 0
4, 13680, Note_on_c, 0, 49, 74
4, 13728, Note_on_c, 0, 49, 0
4, 13740, Note_on_c, 0, 58, 74
4, 13788, Note_on_c, 0, 58, 0
4, 13800, Note_on_c, 0, 57, 74
4, 13848, Note_on_c, 0, 57, 0
4, 13860, Note_on_c, 0, 55, 74
4, 13908, Note_on_c, 0, 55, 0
4, 13920, Note_on_c, 0, 53, 74
4, 13941, Note_on_c, 0, 53, 0
4, 13980, Note_on_c, 0, 57, 74
4, 14028, Note_on_c, 0, 57, 0
4, 14040, Note_on_c, 0, 50, 74
4, 14088, Note_on_c, 0, 50, 0
4, 14100, Note_on_c, 0, 53, 74
4, 14148, Note_on_c, 0, 53, 0
4, 14160, Note_on_c, 0, 45, 74
4, 14208, Note_on_c, 0, 45, 0
4, 14220, Note_on_c, 0, 52, 74
4, 14268, Note_on_c, 0, 52, 0
4, 14280, Note_on_c, 0, 50, 74
4, 14328, Note_on_c, 0, 50, 0
4, 14340, Note_on_c, 0, 49, 74
4, 14388, Note_on_c, 0, 49, 0
4, 14400, Note_on_c, 0, 50, 74
4, 14421, Note_on_c, 0, 50, 0
4, 14460, Note_on_c, 0, 53, 74
4, 14508, Note_on_c, 0, 53, 0
4, 14520, Note_on_c, 0, 47, 74
4, 14568, Note_on_c, 0, 47, 0
4, 14580, Note_on_c, 0, 50, 74
4, 14628, Note_on_c, 0, 50, 0
4, 14640, Note_on_c, 0, 44, 74
4, 14688, Note_on_c, 0, 44, 0
4, 14700, Note_on_c, 0, 53, 74
4, 14748, Note_on_c, 0, 53, 0
4, 14760, Note_on_c, 0, 52, 74
4, 14808, Note_on_c, 0, 52, 0
4, 14820, Note_on_c, 0, 50, 74
4, 14868, Note_on_c, 0, 50, 0
4, 14880, Note_on_c, 0, 48, 74
4, 14901, Note_on_c, 0, 48, 0
4, 14940, Note_on_c, 0, 52, 74
4, 14988, Note_on_c, 0, 52, 0
4, 15000, Note_on_c, 0, 45, 74
4, 15048, Note_on_c, 0, 45, 0
4, 15060, Note_on_c, 0, 48, 74
4, 15108, Note_on_c, 0, 48, 0
4, 15120, Note_on_c, 0, 40, 74
4, 15168, Note_on_c, 0, 40, 0
4, 15180, Note_on_c, 0, 50, 74
4, 15228, Note_on_c, 0, 50, 0
4, 15240, Note_on_c, 0, 48, 74
4, 15288, Note_on_c, 0, 48, 0
4, 15300, Note_on_c, 0, 47, 74
4, 15348, Note_on_c, 0, 47, 0
4, 15360, Note_on_c, 0, 45, 74
4, 15456, Note_on_c, 0, 45, 0
4, 15480, Note_on_c, 0, 45, 74
4, 15528, Note_on_c, 0, 45, 0
4, 15540, Note_on_c, 0, 47, 74
4, 15588, Note_on_c, 0, 47, 0
4, 15600, Note_on_c, 0, 48, 74
4, 15696, Note_on_c, 0, 48, 0
4, 15720, Note_on_c, 0, 48, 74
4, 15768, Note_on_c, 0, 48, 0
4, 15780, Note_on_c, 0, 50, 74
4, 15828, Note_on_c, 0, 50, 0
4, 15840, Note_on_c, 0, 52, 74
4, 15888, Note_on_c, 0, 52, 0
4, 15900, Note_on_c, 0, 64, 74
4, 15948, Note_on_c, 0, 64, 0
4, 15960, Note_on_c, 0, 62, 74
4, 16008, Note_on_c, 0, 62, 0
4, 16020, Note_on_c, 0, 60, 74
4, 16068, Note_on_c, 0, 60, 0
4, 16080, Note_on_c, 0, 59, 74
4, 16128, Note_on_c, 0, 59, 0
4, 16140, Note_on_c, 0, 57, 74
4, 16188, Note_on_c, 0, 57, 0
4, 16200, Note_on_c, 0, 55, 74
4, 16248, Note_on_c, 0, 55, 0
4, 16260, Note_on_c, 0, 54, 74
4, 16308, Note_on_c, 0, 54, 0
4, 16320, Note_on_c, 0, 55, 74
4, 16363, Note_on_c, 0, 55, 0
4, 16440, Note_on_c, 0, 43, 74
4, 16488, Note_on_c, 0, 43, 0
4, 16500, Note_on_c, 0, 45, 74
4, 16548, Note_on_c, 0, 45, 0
4, 16560, Note_on_c, 0, 46, 74
4, 16656, Note_on_c, 0, 46, 0
4, 16680, Note_on_c, 0, 46, 74
4, 16728, Note_on_c, 0, 46, 0
4, 16740, Note_on_c, 0, 48, 74
4, 16788, Note_on_c, 0, 48, 0
4, 16800, Note_on_c, 0, 50, 74
4, 16848, Note_on_c, 0, 50, 0
4, 16860, Note_on_c, 0, 62, 74
4, 16908, Note_on_c, 0, 62, 0
4, 16920, Note_on_c, 0, 60, 74
4, 16968, Note_on_c, 0, 60, 0
4, 16980, Note_on_c, 0, 58, 74
4, 17028, Note_on_c, 0, 58, 0
4, 17040, Note_on_c, 0, 57, 74
4, 17088, Note_on_c, 0, 57, 0
4, 17100, Note_on_c, 0, 55, 74
4, 17148, Note_on_c, 0, 55, 0
4, 17160, Note_on_c, 0, 53, 74
4, 17208, Note_on_c, 0, 53, 0
4, 17220, Note_on_c, 0, 52, 74
4, 17268, Note_on_c, 0, 52, 0
4, 17280, Note_on_c, 0, 53, 74
4, 17323, Note_on_c, 0, 53, 0
4, 17400, Note_on_c, 0, 41, 74
4, 17448, Note_on_c, 0, 41, 0
4, 17460, Note_on_c, 0, 43, 74
4, 17508, Note_on_c, 0, 43, 0
4, 17520, Note_on_c, 0, 45, 74
4, 17616, Note_on_c, 0, 45, 0
4, 17640, Note_on_c, 0, 45, 74
4, 17688, Note_on_c, 0, 45, 0
4, 17700, Note_on_c, 0, 46, 74
4, 17748, Note_on_c, 0, 46, 0
4, 17760, Note_on_c, 0, 48, 74
4, 17856, Note_on_c, 0, 48, 0
4, 17880, Note_on_c, 0, 48, 74
4, 17928, Note_on_c, 0, 48, 0
4, 17940, Note_on_c, 0, 50, 74
4, 17988, Note_on_c, 0, 50, 0
4, 18000, Note_on_c, 0, 52, 74
4, 18096, Note_on_c, 0, 52, 0
4, 18120, Note_on_c, 0, 50, 74
4, 18168, Note_on_c, 0, 50, 0
4, 18180, Note_on_c, 0, 52, 74
4, 18228, Note_on_c, 0, 52, 0
4, 18300, Note_on_c, 0, 57, 74
4, 18396, Note_on_c, 0, 57, 0
4, 18420, Note_on_c, 0, 57, 74
4, 18468, Note_on_c, 0, 57, 0
4, 18540, Note_on_c, 0, 57, 74
4, 18636, Note_on_c, 0, 57, 0
4, 18660, Note_on_c, 0, 57, 74
4, 18708, Note_on_c, 0, 57, 0
4, 18780, Note_on_c, 0, 55, 74
4, 18876, Note_on_c, 0, 55, 0
4, 18900, Note_on_c, 0, 55, 74
4, 18948, Note_on_c, 0, 55, 0
4, 19020, Note_on_c, 0, 55, 74
4, 19116, Note_on_c, 0, 55, 0
4, 19140, Note_on_c, 0, 55, 74
4, 19188, Note_on_c, 0, 55, 0
4, 19260, Note_on_c, 0, 53, 74
4, 19356, Note_on_c, 0, 53, 0
4, 19380, Note_on_c, 0, 53, 74
4, 19428, Note_on_c, 0, 53, 0
4, 19500, Note_on_c, 0, 53, 74
4, 19596, Note_on_c, 0, 53, 0
4, 19620, Note_on_c, 0, 53, 74
4, 19668, Note_on_c, 0, 53, 0
4, 19680, Note_on_c, 0, 55, 74
4, 19872, Note_on_c, 0, 55, 0
4, 20040, Note_on_c, 0, 55, 74
4, 20083, Note_on_c, 0, 55, 0
4, 20160, Note_on_c, 0, 52, 74
4, 20256, Note_on_c, 0, 52, 0
4, 20280, Note_on_c, 0, 50, 74
4, 20323, Note_on_c, 0, 50, 0
4, 20400, Note_on_c, 0, 48, 74
4, 20832, Note_on_c, 0, 48, 0
4, 21000, Note_on_c, 0, 48, 74
4, 21043, Note_on_c, 0, 48, 0
4, 21120, Note_on_c, 0, 48, 74
4, 21312, Note_on_c, 0, 48, 0
4, 21480, Note_on_c, 0, 47, 74
4, 21523, Note_on_c, 0, 47, 0
4, 21600, Note_on_c, 0, 48, 74
4, 21686, Note_on_c, 0, 48, 0
4, 21960, Note_on_c, 0, 48, 74
4, 22008, Note_on_c, 0, 48, 0
4, 22020, Note_on_c, 0, 50, 74
4, 22068, Note_on_c, 0, 50, 0
4, 22080, Note_on_c, 0, 52, 74
4, 22123, Note_on_c, 0, 52, 0
4, 22200, Note_on_c, 0, 48, 74
4, 22243, Note_on_c, 0, 48, 0
4, 22320, Note_on_c, 0, 55, 74
4, 22363, Note_on_c, 0, 55, 0
4, 22440, Note_on_c, 0, 48, 74
4, 22483, Note_on_c, 0, 48, 0
4, 22560, Note_on_c, 0, 47, 74
4, 22752, Note_on_c, 0, 47, 0
4, 22860, Note_on_c, 0, 55, 74
4, 22908, Note_on_c, 0, 55, 0
4, 22920, Note_on_c, 0, 53, 74
4, 22968, Note_on_c, 0, 53, 0
4, 22980, Note_on_c, 0, 55, 74
4, 23028, Note_on_c, 0, 55, 0
4, 23040, Note_on_c, 0, 52, 74
4, 23061, Note_on_c, 0, 52, 0
4, 23100, Note_on_c, 0, 55, 74
4, 23148, Note_on_c, 0, 55, 0
4, 23160, Note_on_c, 0, 48, 74
4, 23208, Note_on_c, 0, 48, 0
4, 23220, Note_on_c, 0, 52, 74
4, 23268, Note_on_c, 0, 52, 0
4, 23280, Note_on_c, 0, 57, 74
4, 23328, Note_on_c, 0, 57, 0
4, 23340, Note_on_c, 0, 53, 74
4, 23388, Note_on_c, 0, 53, 0
4, 23400, Note_on_c, 0, 48, 74
4, 23448, Note_on_c, 0, 48, 0
4, 23460, Note_on_c, 0, 52, 74
4, 23508, Note_on_c, 0, 52, 0
4, 23520, Note_on_c, 0, 50, 74
4, 23541, Note_on_c, 0, 50, 0
4, 23580, Note_on_c, 0, 53, 74
4, 23628, Note_on_c, 0, 53, 0
4, 23640, Note_on_c, 0, 47, 74
4, 23688, Note_on_c, 0, 47, 0
4, 23700, Note_on_c, 0, 50, 74
4, 23748, Note_on_c, 0, 50, 0
4, 23760, Note_on_c, 0, 55, 74
4, 23808, Note_on_c, 0, 55, 0
4, 23820, Note_on_c, 0, 52, 74
4, 23868, Note_on_c, 0, 52, 0
4, 23880, Note_on_c, 0, 47, 74
4, 23928, Note_on_c, 0, 47, 0
4, 23940, Note_on_c, 0, 50, 74
4, 23988, Note_on_c, 0, 50, 0
4, 24000, Note_on_c, 0, 48, 74
4, 24021, Note_on_c, 0, 48, 0
4, 24060, Note_on_c, 0, 52, 74
4, 24108, Note_on_c, 0, 52, 0
4, 24120, Note_on_c, 0, 45, 74
4, 24168, Note_on_c, 0, 45, 0
4, 24180, Note_on_c, 0, 48, 74
4, 24228, Note_on_c, 0, 48, 0
4, 24240, Note_on_c, 0, 53, 74
4, 24288, Note_on_c, 0, 53, 0
4, 24300, Note_on_c, 0, 50, 74
4, 24348, Note_on_c, 0, 50, 0
4, 24360, Note_on_c, 0, 45, 74
4, 24408, Note_on_c, 0, 45, 0
4, 24420, Note_on_c, 0, 48, 74
4, 24468, Note_on_c, 0, 48, 0
4, 24480, Note_on_c, 0, 47, 74
4, 24501, Note_on_c, 0, 47, 0
4, 24540, Note_on_c, 0, 50, 74
4, 24588, Note_on_c, 0, 50, 0
4, 24600, Note_on_c, 0, 43, 74
4, 24648, Note_on_c, 0, 43, 0
4, 24660, Note_on_c, 0, 47, 74
4, 24708, Note_on_c, 0, 47, 0
4, 24720, Note_on_c, 0, 50, 74
4, 24768, Note_on_c, 0, 50, 0
4, 24780, Note_on_c, 0, 53, 74
4, 24828, Note_on_c, 0, 53, 0
4, 24840, Note_on_c, 0, 47, 74
4, 24888, Note_on_c, 0, 47, 0
4, 24900, Note_on_c, 0, 50, 74
4, 24948, Note_on_c, 0, 50, 0
4, 24960, Note_on_c, 0, 53, 74
4, 24981, Note_on_c, 0, 53, 0
4, 25020, Note_on_c, 0, 57, 74
4, 25068, Note_on_c, 0, 57, 0
4, 25080, Note_on_c, 0, 50, 74
4, 25128, Note_on_c, 0, 50, 0
4, 25140, Note_on_c, 0, 53, 74
4, 25188, Note_on_c, 0, 53, 0
4, 25200, Note_on_c, 0, 47, 74
4, 25248, Note_on_c, 0, 47, 0
4, 25260, Note_on_c, 0, 57, 74
4, 25308, Note_on_c, 0, 57, 0
4, 25320, Note_on_c, 0, 55, 74
4, 25368, Note_on_c, 0, 55, 0
4, 25380, Note_on_c, 0, 53, 74
4, 25428, Note_on_c, 0, 53, 0
4, 25440, Note_on_c, 0, 52, 74
4, 25461, Note_on_c, 0, 52, 0
4, 25500, Note_on_c, 0, 55, 74
4, 25548, Note_on_c, 0, 55, 0
4, 25560, Note_on_c, 0, 48, 74
4, 25608, Note_on_c, 0, 48, 0
4, 25620, Note_on_c, 0, 52, 74
4, 25668, Note_on_c, 0, 52, 0
4, 25680, Note_on_c, 0, 43, 74
4, 25728, Note_on_c, 0, 43, 0
4, 25740, Note_on_c, 0, 50, 74
4, 25788, Note_on_c, 0, 50, 0
4, 25800, Note_on_c, 0, 48, 74
4, 25848, Note_on_c, 0, 48, 0
4, 25860, Note_on_c, 0, 47, 74
4, 25908, Note_on_c, 0, 47, 0
4, 25920, Note_on_c, 0, 48, 74
4, 25968, Note_on_c, 0, 48, 0
4, 25980, Note_on_c, 0, 43, 74
4, 26028, Note_on_c, 0, 43, 0
4, 26040, Note_on_c, 0, 40, 74
4, 26088, Note_on_c, 0, 40, 0
4, 26100, Note_on_c, 0, 43, 74
4, 26148, Note_on_c, 0, 43, 0
4, 26160, Note_on_c, 0, 48, 74
4, 26208, Note_on_c, 0, 48, 0
4, 26220, Note_on_c, 0, 55, 74
4, 26268, Note_on_c, 0, 55, 0
4, 26280, Note_on_c, 0, 57, 74
4, 26328, Note_on_c, 0, 57, 0
4, 26340, Note_on_c, 0, 55, 74
4, 26388, Note_on_c, 0, 55, 0
4, 26400, Note_on_c, 0, 54, 74
4, 26448, Note_on_c, 0, 54, 0
4, 26460, Note_on_c, 0, 57, 74
4, 26508, Note_on_c, 0, 57, 0
4, 26520, Note_on_c, 0, 50, 74
4, 26568, Note_on_c, 0, 50, 0
4, 26580, Note_on_c, 0, 54, 74
4, 26628, Note_on_c, 0, 54, 0
4, 26640, Note_on_c, 0, 43, 74
4, 26688, Note_on_c, 0, 43, 0
4, 26700, Note_on_c, 0, 57, 74
4, 26748, Note_on_c, 0, 57, 0
4, 26760, Note_on_c, 0, 55, 74
4, 26808, Note_on_c, 0, 55, 0
4, 26820, Note_on_c, 0, 53, 74
4, 26868, Note_on_c, 0, 53, 0
4, 26880, Note_on_c, 0, 60, 74
4, 27072, Note_on_c, 0, 60, 0
4, 27180, Note_on_c, 0, 64, 74
4, 27228, Note_on_c, 0, 64, 0
4, 27240, Note_on_c, 0, 62, 74
4, 27288, Note_on_c, 0, 62, 0
4, 27300, Note_on_c, 0, 60, 74
4, 27348, Note_on_c, 0, 60, 0
4, 27360, Note_on_c, 0, 58, 74
4, 27408, Note_on_c, 0, 58, 0
4, 27420, Note_on_c, 0, 62, 74
4, 27468, Note_on_c, 0, 62, 0
4, 27480, Note_on_c, 0, 55, 74
4, 27528, Note_on_c, 0, 55, 0
4, 27540, Note_on_c, 0, 58, 74
4, 27588, Note_on_c, 0, 58, 0
4, 27660, Note_on_c, 0, 62, 74
4, 27708, Note_on_c, 0, 62, 0
4, 27720, Note_on_c, 0, 60, 74
4, 27768, Note_on_c, 0, 60, 0
4, 27780, Note_on_c, 0, 58, 74
4, 27828, Note_on_c, 0, 58, 0
4, 27840, Note_on_c, 0, 57, 74
4, 27888, Note_on_c, 0, 57, 0
4, 27900, Note_on_c, 0, 60, 74
4, 27948, Note_on_c, 0, 60, 0
4, 27960, Note_on_c, 0, 53, 74
4, 28008, Note_on_c, 0, 53, 0
4, 28020, Note_on_c, 0, 57, 74
4, 28068, Note_on_c, 0, 57, 0
4, 28140, Note_on_c, 0, 60, 74
4, 28188, Note_on_c, 0, 60, 0
4, 28200, Note_on_c, 0, 58, 74
4, 28248, Note_on_c, 0, 58, 0
4, 28260, Note_on_c, 0, 57, 74
4, 28308, Note_on_c, 0, 57, 0
4, 28320, Note_on_c, 0, 55, 74
4, 28368, Note_on_c, 0, 55, 0
4, 28380, Note_on_c, 0, 58, 74
4, 28428, Note_on_c, 0, 58, 0
4, 28440, Note_on_c, 0, 52, 74
4, 28488, Note_on_c, 0, 52, 0
4, 28500, Note_on_c, 0, 55, 74
4, 28548, Note_on_c, 0, 55, 0
4, 28560, Note_on_c, 0, 48, 74
4, 28608, Note_on_c, 0, 48, 0
4, 28620, Note_on_c, 0, 58, 74
4, 28668, Note_on_c, 0, 58, 0
4, 28680, Note_on_c, 0, 57, 74
4, 28728, Note_on_c, 0, 57, 0
4, 28740, Note_on_c, 0, 55, 74
4, 28788, Note_on_c, 0, 55, 0
4, 28800, Note_on_c, 0, 53, 74
4, 28992, Note_on_c, 0, 53, 0
4, 29640, Note_on_c, 0, 57, 74
4, 29683, Note_on_c, 0, 57, 0
4, 29760, Note_on_c, 0, 55, 74
4, 29846, Note_on_c, 0, 55, 0
4, 31200, Note_on_c, 0, 55, 90
4, 31392, Note_on_c, 0, 55, 0
4, 31560, Note_on_c, 0, 60, 74
4, 31603, Note_on_c, 0, 60, 0
4, 31680, Note_on_c, 0, 53, 74
4, 31872, Note_on_c, 0, 53, 0
4, 32040, Note_on_c, 0, 58, 74
4, 32083, Note_on_c, 0, 58, 0
4, 32160, Note_on_c, 0, 51, 74
4, 32352, Note_on_c, 0, 51, 0
4, 32520, Note_on_c, 0, 57, 74
4, 32563, Note_on_c, 0, 57, 0
4, 32640, Note_on_c, 0, 50, 74
4, 32832, Note_on_c, 0, 50, 0
4, 33000, Note_on_c, 0, 50, 74
4, 33043, Note_on_c, 0, 50, 0
4, 33120, Note_on_c, 0, 54, 74
4, 33312, Note_on_c, 0, 54, 0
4, 33480, Note_on_c, 0, 54, 74
4, 33523, Note_on_c, 0, 54, 0
4, 33600, Note_on_c, 0, 55, 74
4, 33696, Note_on_c, 0, 55, 0
4, 33720, Note_on_c, 0, 48, 74
4, 33816, Note_on_c, 0, 48, 0
4, 33840, Note_on_c, 0, 50, 74
4, 33926, Note_on_c, 0, 50, 0
4, 34080, Note_on_c, 0, 58, 74
4, 34123, Note_on_c, 0, 58, 0
4, 53640, Note_on_c, 0, 43, 74
4, 53683, Note_on_c, 0, 43, 0
4, 53760, Note_on_c, 0, 50, 74
4, 53952, Note_on_c, 0, 50, 0
4, 54120, Note_on_c, 0, 50, 74
4, 54163, Note_on_c, 0, 50, 0
4, 54240, Note_on_c, 0, 55, 74
4, 54326, Note_on_c, 0, 55, 0
4, 54600, Note_on_c, 0, 48, 74
4, 54643, Note_on_c, 0, 48, 0
4, 54720, Note_on_c, 0, 53, 74
4, 54912, Note_on_c, 0, 53, 0
4, 55080, Note_on_c, 0, 46, 74
4, 55123, Note_on_c, 0, 46, 0
4, 55200, Note_on_c, 0, 51, 74
4, 55392, Note_on_c, 0, 51, 0
4, 55560, Note_on_c, 0, 45, 74
4, 55603, Note_on_c, 0, 45, 0
4, 55680, Note_on_c, 0, 50, 74
4, 56448, Note_on_c, 0, 50, 0
4, 56640, Note_on_c, 0, 55, 74
4, 56832, Note_on_c, 0, 55, 0
4, 59820, Note_on_c, 0, 57, 74
4, 59868, Note_on_c, 0, 57, 0
4, 59880, Note_on_c, 0, 55, 74
4, 59928, Note_on_c, 0, 55, 0
4, 59940, Note_on_c, 0, 57, 74
4, 59988, Note_on_c, 0, 57, 0
4, 60000, Note_on_c, 0, 53, 74
4, 60048, Note_on_c, 0, 53, 0
4, 60060, Note_on_c, 0, 57, 74
4, 60108, Note_on_c, 0, 57, 0
4, 60120, Note_on_c, 0, 50, 74
4, 60168, Note_on_c, 0, 50, 0
4, 60180, Note_on_c, 0, 53, 74
4, 60228, Note_on_c, 0, 53, 0
4, 60240, Note_on_c, 0, 58, 74
4, 60288, Note_on_c, 0, 58, 0
4, 60300, Note_on_c, 0, 55, 74
4, 60348, Note_on_c, 0, 55, 0
4, 60360, Note_on_c, 0, 50, 74
4, 60408, Note_on_c, 0, 50, 0
4, 60420, Note_on_c, 0, 53, 74
4, 60468, Note_on_c, 0, 53, 0
4, 60480, Note_on_c, 0, 52, 74
4, 60501, Note_on_c, 0, 52, 0
4, 60540, Note_on_c, 0, 55, 74
4, 60588, Note_on_c, 0, 55, 0
4, 60600, Note_on_c, 0, 48, 74
4, 60648, Note_on_c, 0, 48, 0
4, 60660, Note_on_c, 0, 52, 74
4, 60708, Note_on_c, 0, 52, 0
4, 60720, Note_on_c, 0, 57, 74
4, 60768, Note_on_c, 0, 57, 0
4, 60780, Note_on_c, 0, 53, 74
4, 60828, Note_on_c, 0, 53, 0
4, 60840, Note_on_c, 0, 48, 74
4, 60888, Note_on_c, 0, 48, 0
4, 60900, Note_on_c, 0, 52, 74
4, 60948, Note_on_c, 0, 52, 0
4, 60960, Note_on_c, 0, 50, 74
4, 60981, Note_on_c, 0, 50, 0
4, 61020, Note_on_c, 0, 53, 74
4, 61068, Note_on_c, 0, 53, 0
4, 61080, Note_on_c, 0, 46, 74
4, 61128, Note_on_c, 0, 46, 0
4, 61140, Note_on_c, 0, 50, 74
4, 61188, Note_on_c, 0, 50, 0
4, 61200, Note_on_c, 0, 55, 74
4, 61248, Note_on_c, 0, 55, 0
4, 61260, Note_on_c, 0, 52, 74
4, 61308, Note_on_c, 0, 52, 0
4, 61320, Note_on_c, 0, 47, 74
4, 61368, Note_on_c, 0, 47, 0
4, 61380, Note_on_c, 0, 50, 74
4, 61428, Note_on_c, 0, 50, 0
4, 61440, Note_on_c, 0, 49, 74
4, 61461, Note_on_c, 0, 49, 0
4, 61500, Note_on_c, 0, 52, 74
4, 61548, Note_on_c, 0, 52, 0
4, 61560, Note_on_c, 0, 45, 74
4, 61608, Note_on_c, 0, 45, 0
4, 61620, Note_on_c, 0, 49, 74
4, 61668, Note_on_c, 0, 49, 0
4, 61680, Note_on_c, 0, 52, 74
4, 61728, Note_on_c, 0, 52, 0
4, 61740, Note_on_c, 0, 55, 74
4, 61788, Note_on_c, 0, 55, 0
4, 61800, Note_on_c, 0, 49, 74
4, 61848, Note_on_c, 0, 49, 0
4, 61860, Note_on_c, 0, 52, 74
4, 61908, Note_on_c, 0, 52, 0
4, 61920, Note_on_c, 0, 55, 74
4, 61941, Note_on_c, 0, 55, 0
4, 61980, Note_on_c, 0, 58, 74
4, 62028, Note_on_c, 0, 58, 0
4, 62040, Note_on_c, 0, 52, 74
4, 62088, Note_on_c, 0, 52, 0
4, 62100, Note_on_c, 0, 55, 74
4, 62148, Note_on_c, 0, 55, 0
4, 62160, Note_on_c, 0, 49, 74
4, 62208, Note_on_c, 0, 49, 0
4, 62220, Note_on_c, 0, 58, 74
4, 62268, Note_on_c, 0, 58, 0
4, 62280, Note_on_c, 0, 57, 74
4, 62328, Note_on_c, 0, 57, 0
4, 62340, Note_on_c, 0, 55, 74
4, 62388, Note_on_c, 0, 55, 0
4, 63360, Note_on_c, 0, 57, 74
4, 63446, Note_on_c, 0, 57, 0
4, 63600, Note_on_c, 0, 59, 74
4, 63686, Note_on_c, 0, 59, 0
4, 63840, Note_on_c, 0, 57, 74
4, 63969, Note_on_c, 0, 57, 0
4, 64200, Note_on_c, 0, 55, 74
4, 64406, Note_on_c, 0, 55, 0
4, 64560, Note_on_c, 0, 54, 74
4, 64603, Note_on_c, 0, 54, 0
4, 64680, Note_on_c, 0, 52, 74
4, 64723, Note_on_c, 0, 52, 0
4, 64800, Note_on_c, 0, 54, 74
4, 65232, Note_on_c, 0, 54, 0
4, 65232, End_track
5, 0, Start_track
5, 0, Title_t, "Harpsichord"
5, 0, Program_c, 0, 6
5, 0, Control_c, 0, 7, 110
5, 0, Control_c, 0, 10, 51
5, 18240, Note_on_c, 0, 53, 74
5, 18336, Note_on_c, 0, 53, 0
5, 18360, Note_on_c, 0, 50, 74
5, 18403, Note_on_c, 0, 50, 0
5, 18480, Note_on_c, 0, 46, 74
5, 18523, Note_on_c, 0, 46, 0
5, 18600, Note_on_c, 0, 50, 74
5, 18643, Note_on_c, 0, 50, 0
5, 18720, Note_on_c, 0, 52, 74
5, 18816, Note_on_c, 0, 52, 0
5, 18840, Note_on_c, 0, 48, 74
5, 18883, Note_on_c, 0, 48, 0
5, 18960, Note_on_c, 0, 45, 74
5, 19003, Note_on_c, 0, 45, 0
5, 19080, Note_on_c, 0, 48, 74
5, 19123, Note_on_c, 0, 48, 0
5, 19200, Note_on_c, 0, 50, 74
5, 19296, Note_on_c, 0, 50, 0
5, 19320, Note_on_c, 0, 46, 74
5, 19363, Note_on_c, 0, 46, 0
5, 19440, Note_on_c, 0, 43, 74
5, 19483, Note_on_c, 0, 43, 0
5, 19560, Note_on_c, 0, 46, 74
5, 19603, Note_on_c, 0, 46, 0
5, 19680, Note_on_c, 0, 46, 74
5, 19766, Note_on_c, 0, 46, 0
5, 20040, Note_on_c, 0, 46, 74
5, 20083, Note_on_c, 0, 46, 0
5, 20160, Note_on_c, 0, 43, 74
5, 20256, Note_on_c, 0, 43, 0
5, 20280, Note_on_c, 0, 46, 74
5, 20323, Note_on_c, 0, 46, 0
5, 20400, Note_on_c, 0, 48, 74
5, 20443, Note_on_c, 0, 48, 0
5, 20520, Note_on_c, 0, 36, 74
5, 20563, Note_on_c, 0, 36, 0
5, 20640, Note_on_c, 0, 41, 74
5, 20736, Note_on_c, 0, 41, 0
5, 20760, Note_on_c, 0, 45, 74
5, 20803, Note_on_c, 0, 45, 0
5, 20880, Note_on_c, 0, 48, 74
5, 20923, Note_on_c, 0, 48, 0
5, 21000, Note_on_c, 0, 36, 74
5, 21043, Note_on_c, 0, 36, 0
5, 21120, Note_on_c, 0, 38, 74
5, 21163, Note_on_c, 0, 38, 0
5, 21240, Note_on_c, 0, 41, 74
5, 21336, Note_on_c, 0, 41, 0
5, 21360, Note_on_c, 0, 43, 74
5, 21456, Note_on_c, 0, 43, 0
5, 21480, Note_on_c, 0, 43, 74
5, 21523, Note_on_c, 0, 43, 0
5, 21600, Note_on_c, 0, 36, 74
5, 21686, Note_on_c, 0, 36, 0
5, 26880, Note_on_c, 0, 52, 74
5, 26928, Note_on_c, 0, 52, 0
5, 26940, Note_on_c, 0, 55, 74
5, 26988, Note_on_c, 0, 55, 0
5, 27000, Note_on_c, 0, 48, 74
5, 27048, Note_on_c, 0, 48, 0
5, 27060, Note_on_c, 0, 52, 74
5, 27108, Note_on_c, 0, 52, 0
5, 27120, Note_on_c, 0, 41, 74
5, 27168, Note_on_c, 0, 41, 0
5, 27180, Note_on_c, 0, 55, 74
5, 27228, Note_on_c, 0, 55, 0
5, 27240, Note_on_c, 0, 53, 74
5, 27288, Note_on_c, 0, 53, 0
5, 27300, Note_on_c, 0, 52, 74
5, 27348, Note_on_c, 0, 52, 0
5, 27360, Note_on_c, 0, 50, 74
5, 27552, Note_on_c, 0, 50, 0
5, 27600, Note_on_c, 0, 52, 74
5, 27792, Note_on_c, 0, 52, 0
5, 27840, Note_on_c, 0, 53, 74
5, 28032, Note_on_c, 0, 53, 0
5, 28080, Note_on_c, 0, 50, 74
5, 28272, Note_on_c, 0, 50, 0
5, 28320, Note_on_c, 0, 46, 74
5, 28512, Note_on_c, 0, 46, 0
5, 28560, Note_on_c, 0, 48, 74
5, 28752, Note_on_c, 0, 48, 0
5, 28860, Note_on_c, 0, 50, 74
5, 28908, Note_on_c, 0, 50, 0
5, 28920, Note_on_c, 0, 48, 74
5, 28968, Note_on_c, 0, 48, 0
5, 28980, Note_on_c, 0, 46, 74
5, 29028, Note_on_c, 0, 46, 0
5, 29040, Note_on_c, 0, 45, 74
5, 29088, Note_on_c, 0, 45, 0
5, 29100, Note_on_c, 0, 46, 74
5, 29148, Note_on_c, 0, 46, 0
5, 29160, Note_on_c, 0, 45, 74
5, 29208, Note_on_c, 0, 45, 0
5, 29220, Note_on_c, 0, 43, 74
5, 29268, Note_on_c, 0, 43, 0
5, 29280, Note_on_c, 0, 41, 74
5, 29376, Note_on_c, 0, 41, 0
5, 29400, Note_on_c, 0, 41, 74
5, 29448, Note_on_c, 0, 41, 0
5, 29460, Note_on_c, 0, 43, 74
5, 29508, Note_on_c, 0, 43, 0
5, 29520, Note_on_c, 0, 45, 74
5, 29616, Note_on_c, 0, 45, 0
5, 29640, Note_on_c, 0, 45, 74
5, 29688, Note_on_c, 0, 45, 0
5, 29700, Note_on_c, 0, 46, 74
5, 29748, Note_on_c, 0, 46, 0
5, 29760, Note_on_c, 0, 48, 74
5, 29856, Note_on_c, 0, 48, 0
5, 29880, Note_on_c, 0, 48, 74
5, 29928, Note_on_c, 0, 48, 0
5, 29940, Note_on_c, 0, 50, 74
5, 29988, Note_on_c, 0, 50, 0
5, 30000, Note_on_c, 0, 52, 74
5, 30096, Note_on_c, 0, 52, 0
5, 30120, Note_on_c, 0, 52, 74
5, 30168, Note_on_c, 0, 52, 0
5, 30180, Note_on_c, 0, 54, 74
5, 30228, Note_on_c, 0, 54, 0
5, 30240, Note_on_c, 0, 55, 74
5, 30336, Note_on_c, 0, 55, 0
5, 30360, Note_on_c, 0, 55, 74
5, 30408, Note_on_c, 0, 55, 0
5, 30420, Note_on_c, 0, 57, 74
5, 30468, Note_on_c, 0, 57, 0
5, 30480, Note_on_c, 0, 58, 74
5, 30576, Note_on_c, 0, 58, 0
5, 30600, Note_on_c, 0, 58, 74
5, 30648, Note_on_c, 0, 58, 0
5, 30660, Note_on_c, 0, 60, 74
5, 30708, Note_on_c, 0, 60, 0
5, 30720, Note_on_c, 0, 62, 74
5, 30816, Note_on_c, 0, 62, 0
5, 30840, Note_on_c, 0, 62, 74
5, 30888, Note_on_c, 0, 62, 0
5, 30900, Note_on_c, 0, 64, 74
5, 30948, Note_on_c, 0, 64, 0
5, 30960, Note_on_c, 0, 66, 74
5, 31056, Note_on_c, 0, 66, 0
5, 31080, Note_on_c, 0, 64, 74
5, 31128, Note_on_c, 0, 64, 0
5, 31140, Note_on_c, 0, 66, 74
5, 31188, Note_on_c, 0, 66, 0
5, 31200, Note_on_c, 0, 67, 74
5, 31296, Note_on_c, 0, 67, 0
5, 31320, Note_on_c, 0, 63, 74
5, 31363, Note_on_c, 0, 63, 0
5, 31440, Note_on_c, 0, 60, 74
5, 31483, Note_on_c, 0, 60, 0
5, 31560, Note_on_c, 0, 63, 74
5, 31603, Note_on_c, 0, 63, 0
5, 31680, Note_on_c, 0, 65, 74
5, 31776, Note_on_c, 0, 65, 0
5, 31800, Note_on_c, 0, 62, 74
5, 31843, Note_on_c, 0, 62, 0
5, 31920, Note_on_c, 0, 58, 74
5, 31963, Note_on_c, 0, 58, 0
5, 32040, Note_on_c, 0, 62, 74
5, 32083, Note_on_c, 0, 62, 0
5, 32160, Note_on_c, 0, 63, 74
5, 32256, Note_on_c, 0, 63, 0
5, 32280, Note_on_c, 0, 60, 74
5, 32323, Note_on_c, 0, 60, 0
5, 32400, Note_on_c, 0, 57, 74
5, 32443, Note_on_c, 0, 57, 0
5, 32520, Note_on_c, 0, 60, 74
5, 32563, Note_on_c, 0, 60, 0
5, 32640, Note_on_c, 0, 60, 74
5, 32832, Note_on_c, 0, 60, 0
5, 33000, Note_on_c, 0, 60, 74
5, 33043, Note_on_c, 0, 60, 0
5, 33120, Note_on_c, 0, 57, 74
5, 33216, Note_on_c, 0, 57, 0
5, 33240, Note_on_c, 0, 60, 74
5, 33283, Note_on_c, 0, 60, 0
5, 33360, Note_on_c, 0, 62, 74
5, 33403, Note_on_c, 0, 62, 0
5, 33480, Note_on_c, 0, 57, 74
5, 33523, Note_on_c, 0, 57, 0
5, 33600, Note_on_c, 0, 55, 74
5, 33696, Note_on_c, 0, 55, 0
5, 33720, Note_on_c, 0, 51, 74
5, 33763, Note_on_c, 0, 51, 0
5, 33840, Note_on_c, 0, 50, 74
5, 33936, Note_on_c, 0, 50, 0
5, 33960, Note_on_c, 0, 57, 74
5, 34003, Note_on_c, 0, 57, 0
5, 34080, Note_on_c, 0, 55, 74
5, 34128, Note_on_c, 0, 55, 0
5, 34140, Note_on_c, 0, 58, 74
5, 34188, Note_on_c, 0, 58, 0
5, 34200, Note_on_c, 0, 51, 74
5, 34248, Note_on_c, 0, 51, 0
5, 34260, Note_on_c, 0, 55, 74
5, 34308, Note_on_c, 0, 55, 0
5, 34320, Note_on_c, 0, 48, 74
5, 34368, Note_on_c, 0, 48, 0
5, 34380, Note_on_c, 0, 58, 74
5, 34428, Note_on_c, 0, 58, 0
5, 34440, Note_on_c, 0, 57, 74
5, 34488, Note_on_c, 0, 57, 0
5, 34500, Note_on_c, 0, 55, 74
5, 34548, Note_on_c, 0, 55, 0
5, 34560, Note_on_c, 0, 53, 74
5, 34581, Note_on_c, 0, 53, 0
5, 34620, Note_on_c, 0, 57, 74
5, 34668, Note_on_c, 0, 57, 0
5, 34680, Note_on_c, 0, 50, 74
5, 34728, Note_on_c, 0, 50, 0
5, 34740, Note_on_c, 0, 53, 74
5, 34788, Note_on_c, 0, 53, 0
5, 34800, Note_on_c, 0, 46, 74
5, 34848, Note_on_c, 0, 46, 0
5, 34860, Note_on_c, 0, 57, 74
5, 34908, Note_on_c, 0, 57, 0
5, 34920, Note_on_c, 0, 55, 74
5, 34968, Note_on_c, 0, 55, 0
5, 34980, Note_on_c, 0, 53, 74
5, 35028, Note_on_c, 0, 53, 0
5, 35040, Note_on_c, 0, 51, 74
5, 35061, Note_on_c, 0, 51, 0
5, 35100, Note_on_c, 0, 55, 74
5, 35148, Note_on_c, 0, 55, 0
5, 35160, Note_on_c, 0, 48, 74
5, 35208, Note_on_c, 0, 48, 0
5, 35220, Note_on_c, 0, 51, 74
5, 35268, Note_on_c, 0, 51, 0
5, 35280, Note_on_c, 0, 45, 74
5, 35328, Note_on_c, 0, 45, 0
5, 35340, Note_on_c, 0, 55, 74
5, 35388, Note_on_c, 0, 55, 0
5, 35400, Note_on_c, 0, 53, 74
5, 35448, Note_on_c, 0, 53, 0
5, 35460, Note_on_c, 0, 51, 74
5, 35508, Note_on_c, 0, 51, 0
5, 35520, Note_on_c, 0, 50, 74
5, 35541, Note_on_c, 0, 50, 0
5, 35580, Note_on_c, 0, 53, 74
5, 35628, Note_on_c, 0, 53, 0
5, 35640, Note_on_c, 0, 46, 74
5, 35688, Note_on_c, 0, 46, 0
5, 35700, Note_on_c, 0, 50, 74
5, 35748, Note_on_c, 0, 50, 0
5, 35760, Note_on_c, 0, 43, 74
5, 35808, Note_on_c, 0, 43, 0
5, 35820, Note_on_c, 0, 53, 74
5, 35868, Note_on_c, 0, 53, 0
5, 35880, Note_on_c, 0, 51, 74
5, 35928, Note_on_c, 0, 51, 0
5, 35940, Note_on_c, 0, 50, 74
5, 35988, Note_on_c, 0, 50, 0
5, 36000, Note_on_c, 0, 48, 74
5, 36021, Note_on_c, 0, 48, 0
5, 36060, Note_on_c, 0, 51, 74
5, 36108, Note_on_c, 0, 51, 0
5, 36120, Note_on_c, 0, 45, 74
5, 36168, Note_on_c, 0, 45, 0
5, 36180, Note_on_c, 0, 48, 74
5, 36228, Note_on_c, 0, 48, 0
5, 36240, Note_on_c, 0, 41, 74
5, 36288, Note_on_c, 0, 41, 0
5, 36300, Note_on_c, 0, 51, 74
5, 36348, Note_on_c, 0, 51, 0
5, 36360, Note_on_c, 0, 50, 74
5, 36408, Note_on_c, 0, 50, 0
5, 36420, Note_on_c, 0, 48, 74
5, 36468, Note_on_c, 0, 48, 0
5, 36480, Note_on_c, 0, 46, 74
5, 36672, Note_on_c, 0, 46, 0
5, 36840, Note_on_c, 0, 55, 74
5, 36883, Note_on_c, 0, 55, 0
5, 36960, Note_on_c, 0, 53, 74
5, 37152, Note_on_c, 0, 53, 0
5, 37440, Note_on_c, 0, 58, 74
5, 37632, Note_on_c, 0, 58, 0
5, 37800, Note_on_c, 0, 55, 74
5, 37843, Note_on_c, 0, 55, 0
5, 37920, Note_on_c, 0, 55, 74
5, 38112, Note_on_c, 0, 55, 0
5, 38280, Note_on_c, 0, 53, 74
5, 38323, Note_on_c, 0, 53, 0
5, 38400, Note_on_c, 0, 53, 74
5, 38592, Note_on_c, 0, 53, 0
5, 38760, Note_on_c, 0, 51, 74
5, 38803, Note_on_c, 0, 51, 0
5, 38880, Note_on_c, 0, 51, 74
5, 39072, Note_on_c, 0, 51, 0
5, 46440, Note_on_c, 0, 45, 74
5, 46488, Note_on_c, 0, 45, 0
5, 46500, Note_on_c, 0, 47, 74
5, 46548, Note_on_c, 0, 47, 0
5, 46560, Note_on_c, 0, 48, 74
5, 46603, Note_on_c, 0, 48, 0
5, 46680, Note_on_c, 0, 45, 74
5, 46723, Note_on_c, 0, 45, 0
5, 46800, Note_on_c, 0, 52, 74
5, 46843, Note_on_c, 0, 52, 0
5, 46920, Note_on_c, 0, 45, 74
5, 46963, Note_on_c, 0, 45, 0
5, 47040, Note_on_c, 0, 44, 74
5, 47232, Note_on_c, 0, 44, 0
5, 47340, Note_on_c, 0, 52, 74
5, 47388, Note_on_c, 0, 52, 0
5, 47400, Note_on_c, 0, 50, 74
5, 47448, Note_on_c, 0, 50, 0
5, 47460, Note_on_c, 0, 52, 74
5, 47508, Note_on_c, 0, 52, 0
5, 47520, Note_on_c, 0, 48, 74
5, 47568, Note_on_c, 0, 48, 0
5, 47580, Note_on_c, 0, 52, 74
5, 47628, Note_on_c, 0, 52, 0
5, 47640, Note_on_c, 0, 45, 74
5, 47688, Note_on_c, 0, 45, 0
5, 47700, Note_on_c, 0, 48, 74
5, 47748, Note_on_c, 0, 48, 0
5, 47760, Note_on_c, 0, 53, 74
5, 47808, Note_on_c, 0, 53, 0
5, 47820, Note_on_c, 0, 50, 74
5, 47868, Note_on_c, 0, 50, 0
5, 47880, Note_on_c, 0, 45, 74
5, 47928, Note_on_c, 0, 45, 0
5, 47940, Note_on_c, 0, 48, 74
5, 47988, Note_on_c, 0, 48, 0
5, 48000, Note_on_c, 0, 47, 74
5, 48021, Note_on_c, 0, 47, 0
5, 48060, Note_on_c, 0, 50, 74
5, 48108, Note_on_c, 0, 50, 0
5, 48120, Note_on_c, 0, 43, 74
5, 48168, Note_on_c, 0, 43, 0
5, 48180, Note_on_c, 0, 47, 74
5, 48228, Note_on_c, 0, 47, 0
5, 48240, Note_on_c, 0, 52, 74
5, 48288, Note_on_c, 0, 52, 0
5, 48300, Note_on_c, 0, 48, 74
5, 48348, Note_on_c, 0, 48, 0
5, 48360, Note_on_c, 0, 43, 74
5, 48408, Note_on_c, 0, 43, 0
5, 48420, Note_on_c, 0, 47, 74
5, 48468, Note_on_c, 0, 47, 0
5, 48480, Note_on_c, 0, 45, 74
5, 48501, Note_on_c, 0, 45, 0
5, 48540, Note_on_c, 0, 48, 74
5, 48588, Note_on_c, 0, 48, 0
5, 48600, Note_on_c, 0, 41, 74
5, 48648, Note_on_c, 0, 41, 0
5, 48660, Note_on_c, 0, 45, 74
5, 48708, Note_on_c, 0, 45, 0
5, 48720, Note_on_c, 0, 50, 74
5, 48768, Note_on_c, 0, 50, 0
5, 48780, Note_on_c, 0, 47, 74
5, 48828, Note_on_c, 0, 47, 0
5, 48840, Note_on_c, 0, 42, 74
5, 48888, Note_on_c, 0, 42, 0
5, 48900, Note_on_c, 0, 45, 74
5, 48948, Note_on_c, 0, 45, 0
5, 48960, Note_on_c, 0, 44, 74
5, 48981, Note_on_c, 0, 44, 0
5, 49020, Note_on_c, 0, 47, 74
5, 49068, Note_on_c, 0, 47, 0
5, 49080, Note_on_c, 0, 40, 74
5, 49128, Note_on_c, 0, 40, 0
5, 49140, Note_on_c, 0, 44, 74
5, 49188, Note_on_c, 0, 44, 0
5, 49200, Note_on_c, 0, 47, 74
5, 49248, Note_on_c, 0, 47, 0
5, 49260, Note_on_c, 0, 50, 74
5, 49308, Note_on_c, 0, 50, 0
5, 49320, Note_on_c, 0, 44, 74
5, 49368, Note_on_c, 0, 44, 0
5, 49380, Note_on_c, 0, 47, 74
5, 49428, Note_on_c, 0, 47, 0
5, 49440, Note_on_c, 0, 50, 74
5, 49461, Note_on_c, 0, 50, 0
5, 49500, Note_on_c, 0, 53, 74
5, 49548, Note_on_c, 0, 53, 0
5, 49560, Note_on_c, 0, 47, 74
5, 49608, Note_on_c, 0, 47, 0
5, 49620, Note_on_c, 0, 50, 74
5, 49668, Note_on_c, 0, 50, 0
5, 49680, Note_on_c, 0, 44, 74
5, 49728, Note_on_c, 0, 44, 0
5, 49740, Note_on_c, 0, 53, 74
5, 49788, Note_on_c, 0, 53, 0
5, 49800, Note_on_c, 0, 52, 74
5, 49848, Note_on_c, 0, 52, 0
5, 49860, Note_on_c, 0, 50, 74
5, 49908, Note_on_c, 0, 50, 0
5, 49920, Note_on_c, 0, 48, 74
5, 49930, Note_on_c, 0, 48, 0
5, 49950, Note_on_c, 0, 47, 74
5, 49974, Note_on_c, 0, 47, 0
5, 49980, Note_on_c, 0, 45, 74
5, 50004, Note_on_c, 0, 45, 0
5, 50010, Note_on_c, 0, 47, 74
5, 50034, Note_on_c, 0, 47, 0
5, 50040, Note_on_c, 0, 48, 74
5, 50064, Note_on_c, 0, 48, 0
5, 50070, Note_on_c, 0, 50, 74
5, 50094, Note_on_c, 0, 50, 0
5, 50100, Note_on_c, 0, 52, 74
5, 50124, Note_on_c, 0, 52, 0
5, 50130, Note_on_c, 0, 54, 74
5, 50154, Note_on_c, 0, 54, 0
5, 50160, Note_on_c, 0, 56, 74
5, 50184, Note_on_c, 0, 56, 0
5, 50190, Note_on_c, 0, 54, 74
5, 50214, Note_on_c, 0, 54, 0
5, 50220, Note_on_c, 0, 52, 74
5, 50244, Note_on_c, 0, 52, 0
5, 50250, Note_on_c, 0, 54, 74
5, 50274, Note_on_c, 0, 54, 0
5, 50280, Note_on_c, 0, 56, 74
5, 50304, Note_on_c, 0, 56, 0
5, 50310, Note_on_c, 0, 57, 74
5, 50334, Note_on_c, 0, 57, 0
5, 50340, Note_on_c, 0, 59, 74
5, 50364, Note_on_c, 0, 59, 0
5, 50370, Note_on_c, 0, 60, 74
5, 50394, Note_on_c, 0, 60, 0
5, 50400, Note_on_c, 0, 62, 74
5, 50410, Note_on_c, 0, 62, 0
5, 50430, Note_on_c, 0, 60, 74
5, 50454, Note_on_c, 0, 60, 0
5, 50460, Note_on_c, 0, 59, 74
5, 50484, Note_on_c, 0, 59, 0
5, 50490, Note_on_c, 0, 60, 74
5, 50514, Note_on_c, 0, 60, 0
5, 50520, Note_on_c, 0, 62, 74
5, 50544, Note_on_c, 0, 62, 0
5, 50550, Note_on_c, 0, 64, 74
5, 50574, Note_on_c, 0, 64, 0
5, 50580, Note_on_c, 0, 65, 74
5, 50590, Note_on_c, 0, 65, 0
5, 50610, Note_on_c, 0, 62, 74
5, 50620, Note_on_c, 0, 62, 0
5, 50640, Note_on_c, 0, 59, 74
5, 50650, Note_on_c, 0, 59, 0
5, 50670, Note_on_c, 0, 60, 74
5, 50694, Note_on_c, 0, 60, 0
5, 50700, Note_on_c, 0, 62, 74
5, 50724, Note_on_c, 0, 62, 0
5, 50730, Note_on_c, 0, 60, 74
5, 50754, Note_on_c, 0, 60, 0
5, 50760, Note_on_c, 0, 59, 74
5, 50784, Note_on_c, 0, 59, 0
5, 50790, Note_on_c, 0, 60, 74
5, 50814, Note_on_c, 0, 60, 0
5, 50820, Note_on_c, 0, 62, 74
5, 50830, Note_on_c, 0, 62, 0
5, 50850, Note_on_c, 0, 59, 74
5, 50860, Note_on_c, 0, 59, 0
5, 50880, Note_on_c, 0, 56, 74
5, 50923, Note_on_c, 0, 56, 0
5, 53160, Note_on_c, 0, 57, 74
5, 53203, Note_on_c, 0, 57, 0
5, 53280, Note_on_c, 0, 58, 74
5, 53376, Note_on_c, 0, 58, 0
5, 53400, Note_on_c, 0, 55, 74
5, 53443, Note_on_c, 0, 55, 0
5, 53520, Note_on_c, 0, 62, 74
5, 53563, Note_on_c, 0, 62, 0
5, 53640, Note_on_c, 0, 55, 74
5, 53683, Note_on_c, 0, 55, 0
5, 53760, Note_on_c, 0, 54, 74
5, 53952, Note_on_c, 0, 54, 0
5, 54060, Note_on_c, 0, 62, 74
5, 54108, Note_on_c, 0, 62, 0
5, 54120, Note_on_c, 0, 60, 74
5, 54168, Note_on_c, 0, 60, 0
5, 54180, Note_on_c, 0, 62, 74
5, 54228, Note_on_c, 0, 62, 0
5, 54240, Note_on_c, 0, 58, 74
5, 54288, Note_on_c, 0, 58, 0
5, 54300, Note_on_c, 0, 62, 74
5, 54348, Note_on_c, 0, 62, 0
5, 54360, Note_on_c, 0, 55, 74
5, 54408, Note_on_c, 0, 55, 0
5, 54420, Note_on_c, 0, 58, 74
5, 54468, Note_on_c, 0, 58, 0
5, 54480, Note_on_c, 0, 63, 74
5, 54528, Note_on_c, 0, 63, 0
5, 54540, Note_on_c, 0, 60, 74
5, 54588, Note_on_c, 0, 60, 0
5, 54600, Note_on_c, 0, 55, 74
5, 54648, Note_on_c, 0, 55, 0
5, 54660, Note_on_c, 0, 58, 74
5, 54708, Note_on_c, 0, 58, 0
5, 54720, Note_on_c, 0, 57, 74
5, 54768, Note_on_c, 0, 57, 0
5, 54780, Note_on_c, 0, 60, 74
5, 54828, Note_on_c, 0, 60, 0
5, 54840, Note_on_c, 0, 53, 74
5, 54888, Note_on_c, 0, 53, 0
5, 54900, Note_on_c, 0, 57, 74
5, 54948, Note_on_c, 0, 57, 0
5, 54960, Note_on_c, 0, 62, 74
5, 55008, Note_on_c, 0, 62, 0
5, 55020, Note_on_c, 0, 58, 74
5, 55068, Note_on_c, 0, 58, 0
5, 55080, Note_on_c, 0, 53, 74
5, 55128, Note_on_c, 0, 53, 0
5, 55140, Note_on_c, 0, 57, 74
5, 55188, Note_on_c, 0, 57, 0
5, 55200, Note_on_c, 0, 55, 74
5, 55248, Note_on_c, 0, 55, 0
5, 55260, Note_on_c, 0, 58, 74
5, 55308, Note_on_c, 0, 58, 0
5, 55320, Note_on_c, 0, 51, 74
5, 55368, Note_on_c, 0, 51, 0
5, 55380, Note_on_c, 0, 55, 74
5, 55428, Note_on_c, 0, 55, 0
5, 55440, Note_on_c, 0, 60, 74
5, 55488, Note_on_c, 0, 60, 0
5, 55500, Note_on_c, 0, 57, 74
5, 55548, Note_on_c, 0, 57, 0
5, 55560, Note_on_c, 0, 52, 74
5, 55608, Note_on_c, 0, 52, 0
5, 55620, Note_on_c, 0, 55, 74
5, 55668, Note_on_c, 0, 55, 0
5, 55680, Note_on_c, 0, 54, 74
5, 55728, Note_on_c, 0, 54, 0
5, 55740, Note_on_c, 0, 57, 74
5, 55788, Note_on_c, 0, 57, 0
5, 55800, Note_on_c, 0, 50, 74
5, 55848, Note_on_c, 0, 50, 0
5, 55860, Note_on_c, 0, 54, 74
5, 55908, Note_on_c, 0, 54, 0
5, 55920, Note_on_c, 0, 57, 74
5, 55968, Note_on_c, 0, 57, 0
5, 55980, Note_on_c, 0, 60, 74
5, 56028, Note_on_c, 0, 60, 0
5, 56040, Note_on_c, 0, 54, 74
5, 56088, Note_on_c, 0, 54, 0
5, 56100, Note_on_c, 0, 57, 74
5, 56148, Note_on_c, 0, 57, 0
5, 56160, Note_on_c, 0, 60, 74
5, 56208, Note_on_c, 0, 60, 0
5, 56220, Note_on_c, 0, 63, 74
5, 56268, Note_on_c, 0, 63, 0
5, 56280, Note_on_c, 0, 57, 74
5, 56328, Note_on_c, 0, 57, 0
5, 56340, Note_on_c, 0, 60, 74
5, 56388, Note_on_c, 0, 60, 0
5, 56400, Note_on_c, 0, 54, 74
5, 56448, Note_on_c, 0, 54, 0
5, 56460, Note_on_c, 0, 63, 74
5, 56508, Note_on_c, 0, 63, 0
5, 56520, Note_on_c, 0, 62, 74
5, 56568, Note_on_c, 0, 62, 0
5, 56580, Note_on_c, 0, 60, 74
5, 56628, Note_on_c, 0, 60, 0
5, 56640, Note_on_c, 0, 58, 74
5, 56688, Note_on_c, 0, 58, 0
5, 56700, Note_on_c, 0, 62, 74
5, 56748, Note_on_c, 0, 62, 0
5, 56760, Note_on_c, 0, 55, 74
5, 56808, Note_on_c, 0, 55, 0
5, 56820, Note_on_c, 0, 58, 74
5, 56868, Note_on_c, 0, 58, 0
5, 56880, Note_on_c, 0, 50, 74
5, 56928, Note_on_c, 0, 50, 0
5, 56940, Note_on_c, 0, 57, 74
5, 56988, Note_on_c, 0, 57, 0
5, 57000, Note_on_c, 0, 55, 74
5, 57048, Note_on_c, 0, 55, 0
5, 57060, Note_on_c, 0, 54, 74
5, 57108, Note_on_c, 0, 54, 0
5, 57120, Note_on_c, 0, 55, 74
5, 57168, Note_on_c, 0, 55, 0
5, 57180, Note_on_c, 0, 58, 74
5, 57228, Note_on_c, 0, 58, 0
5, 57240, Note_on_c, 0, 52, 74
5, 57288, Note_on_c, 0, 52, 0
5, 57300, Note_on_c, 0, 55, 74
5, 57348, Note_on_c, 0, 55, 0
5, 57360, Note_on_c, 0, 49, 74
5, 57408, Note_on_c, 0, 49, 0
5, 57420, Note_on_c, 0, 55, 74
5, 57468, Note_on_c, 0, 55, 0
5, 57480, Note_on_c, 0, 53, 74
5, 57528, Note_on_c, 0, 53, 0
5, 57540, Note_on_c, 0, 52, 74
5, 57588, Note_on_c, 0, 52, 0
5, 57600, Note_on_c, 0, 50, 74
5, 57792, Note_on_c, 0, 50, 0
5, 57840, Note_on_c, 0, 62, 74
5, 58032, Note_on_c, 0, 62, 0
5, 58080, Note_on_c, 0, 58, 74
5, 58272, Note_on_c, 0, 58, 0
5, 58320, Note_on_c, 0, 55, 74
5, 58512, Note_on_c, 0, 55, 0
5, 58560, Note_on_c, 0, 57, 74
5, 58752, Note_on_c, 0, 57, 0
5, 58920, Note_on_c, 0, 55, 74
5, 58963, Note_on_c, 0, 55, 0
5, 59040, Note_on_c, 0, 53, 74
5, 59083, Note_on_c, 0, 53, 0
5, 59160, Note_on_c, 0, 50, 74
5, 59203, Note_on_c, 0, 50, 0
5, 59280, Note_on_c, 0, 57, 74
5, 59323, Note_on_c, 0, 57, 0
5, 59400, Note_on_c, 0, 50, 74
5, 59443, Note_on_c, 0, 50, 0
5, 59520, Note_on_c, 0, 49, 74
5, 59712, Note_on_c, 0, 49, 0
5, 60000, Note_on_c, 0, 62, 74
5, 60384, Note_on_c, 0, 62, 0
5, 60480, Note_on_c, 0, 60, 74
5, 60864, Note_on_c, 0, 60, 0
5, 60960, Note_on_c, 0, 58, 74
5, 61152, Note_on_c, 0, 58, 0
5, 61200, Note_on_c, 0, 59, 74
5, 61392, Note_on_c, 0, 59, 0
5, 61440, Note_on_c, 0, 57, 74
5, 61536, Note_on_c, 0, 57, 0
5, 62400, Note_on_c, 0, 53, 74
5, 62421, Note_on_c, 0, 53, 0
5, 62460, Note_on_c, 0, 57, 74
5, 62508, Note_on_c, 0, 57, 0
5, 62520, Note_on_c, 0, 50, 74
5, 62568, Note_on_c, 0, 50, 0
5, 62580, Note_on_c, 0, 53, 74
5, 62628, Note_on_c, 0, 53, 0
5, 62640, Note_on_c, 0, 45, 74
5, 62688, Note_on_c, 0, 45, 0
5, 62700, Note_on_c, 0, 53, 74
5, 62748, Note_on_c, 0, 53, 0
5, 62760, Note_on_c, 0, 52, 74
5, 62808, Note_on_c, 0, 52, 0
5, 62820, Note_on_c, 0, 50, 74
5, 62868, Note_on_c, 0, 50, 0
5, 62880, Note_on_c, 0, 49, 74
5, 63072, Note_on_c, 0, 49, 0
5, 63360, Note_on_c, 0, 50, 74
5, 63446, Note_on_c, 0, 50, 0
5, 63600, Note_on_c, 0, 44, 74
5, 63686, Note_on_c, 0, 44, 0
5, 63840, Note_on_c, 0, 45, 74
5, 64012, Note_on_c, 0, 45, 0
5, 64320, Note_on_c, 0, 38, 74
5, 64665, Note_on_c, 0, 38, 0
5, 64665, End_track
0, 0, End_of_file
