0, 0, Header, 1, 2, 480
1, 0, Start_track
1, 0, Title_t, "untitled"
1, 0, Time_signature, 4, 2, 24, 8
1, 0, Key_signature, 0, "major"
1, 0, Tempo, 500000
1, 0, Marker_t, "1st Mov."
1, 232320, Tempo, 500000
1, 232320, Marker_t, "2nd Mov."
1, 501120, Tempo, 500000
1, 501120, Marker_t, "3rd Mov."
1, 501120, End_track
2, 0, Start_track
2, 0, Title_t, "Bach: Italian Concerto"
2, 0, Program_c, 0, 0
2, 0, Control_c, 0, 7, 100
2, 0, Control_c, 0, 91, 127
2, 0, Note_on_c, 0, 41, 106
2, 0, Note_on_c, 0, 53, 127
2, 3, Note_on_c, 0, 48, 95
2, 8, Note_on_c, 0, 45, 88
2, 110, Control_c, 0, 64, 127
2, 230, Note_on_c, 0, 48, 0
2, 230, Note_on_c, 0, 53, 0
2, 236, Note_on_c, 0, 41, 0
2, 272, Note_on_c, 0, 45, 0
2, 294, Note_on_c, 0, 77, 108
2, 378, Note_on_c, 0, 77, 0
2, 554, Control_c, 0, 64, 0
2, 590, Note_on_c, 0, 69, 91
2, 593, Note_on_c, 0, 65, 91
2, 638, Note_on_c, 0, 65, 0
2, 640, Note_on_c, 0, 69, 0
2, 858, Note_on_c, 0, 70, 88
2, 864, Note_on_c, 0, 67, 85
2, 916, Note_on_c, 0, 67, 0
2, 956, Note_on_c, 0, 70, 0
2, 1154, Note_on_c, 0, 72, 106
2, 1160, Note_on_c, 0, 69, 84
2, 1444, Note_on_c, 0, 65, 83
2, 1514, Note_on_c, 0, 65, 0
2, 1658, Note_on_c, 0, 69, 0
2, 1722, Note_on_c, 0, 70, 74
2, 1728, Note_on_c, 0, 62, 91
2, 1728, Note_on_c, 0, 74, 94
2, 1748, Note_on_c, 0, 72, 0
2, 1776, Note_on_c, 0, 62, 0
2, 2010, Note_on_c, 0, 58, 83
2, 2032, Note_on_c, 0, 70, 0
2, 2100, Note_on_c, 0, 58, 0
2, 2210, Note_on_c, 0, 74, 0
2, 2286, Note_on_c, 0, 65, 85
2, 2286, Note_on_c, 0, 72, 107
2, 2294, Note_on_c, 0, 69, 74
2, 2528, Note_on_c, 0, 69, 0
2, 2576, Note_on_c, 0, 77, 100
2, 2592, Note_on_c, 0, 53, 111
2, 2626, Note_on_c, 0, 72, 0
2, 2636, Note_on_c, 0, 53, 0
2, 2868, Note_on_c, 0, 70, 76
2, 2874, Note_on_c, 0, 50, 99
2, 2932, Note_on_c, 0, 50, 0
2, 3158, Note_on_c, 0, 65, 0
2, 3158, Note_on_c, 0, 46, 76
2, 3168, Note_on_c, 0, 75, 86
2, 3200, Note_on_c, 0, 77, 0
2, 3206, Note_on_c, 0, 70, 0
2, 3210, Note_on_c, 0, 46, 0
2, 3278, Note_on_c, 0, 74, 106
2, 3312, Note_on_c, 0, 74, 0
2, 3322, Note_on_c, 0, 75, 0
2, 3434, Note_on_c, 0, 74, 80
2, 3434, Note_on_c, 0, 65, 93
2, 3434, Note_on_c, 0, 70, 88
2, 3448, Note_on_c, 0, 53, 100
2, 3690, Note_on_c, 0, 53, 0
2, 3728, Note_on_c, 0, 70, 0
2, 3752, Note_on_c, 0, 69, 53
2, 3752, Note_on_c, 0, 72, 70
2, 3762, Note_on_c, 0, 41, 64
2, 3764, Note_on_c, 0, 74, 0
2, 3942, Note_on_c, 0, 65, 0
2, 3962, Note_on_c, 0, 41, 0
2, 4016, Note_on_c, 0, 69, 0
2, 4042, Note_on_c, 0, 72, 0
2, 4636, Note_on_c, 0, 60, 125
2, 4639, Note_on_c, 0, 52, 117
2, 4639, Note_on_c, 0, 48, 108
2, 4639, Note_on_c, 0, 55, 117
2, 4914, Note_on_c, 0, 84, 121
2, 4934, Control_c, 0, 64, 127
2, 4980, Note_on_c, 0, 60, 0
2, 4996, Note_on_c, 0, 55, 0
2, 5002, Note_on_c, 0, 84, 0
2, 5032, Note_on_c, 0, 48, 0
2, 5090, Note_on_c, 0, 52, 0
2, 5180, Control_c, 0, 64, 0
2, 5186, Note_on_c, 0, 76, 100
2, 5188, Note_on_c, 0, 72, 98
2, 5234, Note_on_c, 0, 72, 0
2, 5244, Note_on_c, 0, 76, 0
2, 5456, Note_on_c, 0, 77, 107
2, 5456, Note_on_c, 0, 74, 101
2, 5502, Note_on_c, 0, 74, 0
2, 5564, Note_on_c, 0, 77, 0
2, 5736, Note_on_c, 0, 79, 118
2, 5736, Note_on_c, 0, 76, 98
2, 6024, Note_on_c, 0, 72, 97
2, 6134, Note_on_c, 0, 72, 0
2, 6256, Note_on_c, 0, 76, 0
2, 6296, Note_on_c, 0, 69, 91
2, 6300, Note_on_c, 0, 81, 98
2, 6308, Note_on_c, 0, 77, 88
2, 6344, Note_on_c, 0, 79, 0
2, 6398, Note_on_c, 0, 69, 0
2, 6584, Note_on_c, 0, 65, 82
2, 6594, Note_on_c, 0, 77, 0
2, 6714, Note_on_c, 0, 65, 0
2, 6842, Note_on_c, 0, 81, 0
2, 6872, Note_on_c, 0, 79, 120
2, 6875, Note_on_c, 0, 72, 87
2, 6886, Note_on_c, 0, 76, 72
2, 7124, Note_on_c, 0, 76, 0
2, 7168, Note_on_c, 0, 60, 102
2, 7171, Note_on_c, 0, 84, 114
2, 7214, Note_on_c, 0, 79, 0
2, 7222, Note_on_c, 0, 60, 0
2, 7452, Note_on_c, 0, 77, 84
2, 7452, Note_on_c, 0, 57, 97
2, 7500, Note_on_c, 0, 57, 0
2, 7724, Note_on_c, 0, 82, 87
2, 7726, Note_on_c, 0, 77, 0
2, 7726, Note_on_c, 0, 53, 121
2, 7736, Note_on_c, 0, 72, 0
2, 7794, Note_on_c, 0, 84, 0
2, 7796, Note_on_c, 0, 53, 0
2, 7846, Note_on_c, 0, 81, 84
2, 7880, Note_on_c, 0, 82, 0
2, 7883, Note_on_c, 0, 81, 0
2, 7990, Note_on_c, 0, 81, 63
2, 8002, Note_on_c, 0, 72, 79
2, 8004, Note_on_c, 0, 77, 84
2, 8007, Note_on_c, 0, 60, 78
2, 8146, Note_on_c, 0, 60, 0
2, 8242, Note_on_c, 0, 77, 0
2, 8314, Note_on_c, 0, 72, 0
2, 8314, Note_on_c, 0, 48, 47
2, 8320, Note_on_c, 0, 76, 52
2, 8320, Note_on_c, 0, 79, 68
2, 8336, Note_on_c, 0, 81, 0
2, 8498, Control_c, 0, 64, 127
2, 8502, Note_on_c, 0, 48, 0
2, 8512, Note_on_c, 0, 79, 0
2, 8520, Note_on_c, 0, 76, 0
2, 8576, Control_c, 0, 64, 0
2, 8856, Note_on_c, 0, 72, 77
2, 8960, Note_on_c, 0, 72, 0
2, 8982, Note_on_c, 0, 70, 77
2, 9060, Note_on_c, 0, 70, 0
2, 9110, Note_on_c, 0, 69, 79
2, 9188, Note_on_c, 0, 69, 0
2, 9256, Note_on_c, 0, 70, 95
2, 9261, Note_on_c, 0, 60, 71
2, 9268, Note_on_c, 0, 55, 71
2, 9276, Note_on_c, 0, 52, 74
2, 9360, Note_on_c, 0, 70, 0
2, 9536, Note_on_c, 0, 55, 0
2, 9540, Note_on_c, 0, 60, 0
2, 9546, Note_on_c, 0, 52, 0
2, 9548, Note_on_c, 0, 79, 108
2, 9856, Note_on_c, 0, 60, 85
2, 9860, Note_on_c, 0, 55, 83
2, 9862, Note_on_c, 0, 48, 65
2, 9870, Note_on_c, 0, 52, 83
2, 9912, Note_on_c, 0, 79, 0
2, 10002, Note_on_c, 0, 70, 82
2, 10138, Note_on_c, 0, 69, 76
2, 10142, Control_c, 0, 64, 127
2, 10160, Note_on_c, 0, 70, 0
2, 10200, Note_on_c, 0, 52, 0
2, 10202, Note_on_c, 0, 48, 0
2, 10208, Note_on_c, 0, 55, 0
2, 10268, Note_on_c, 0, 67, 88
2, 10284, Note_on_c, 0, 69, 0
2, 10420, Control_c, 0, 64, 0
2, 10426, Note_on_c, 0, 67, 0
2, 10428, Note_on_c, 0, 69, 90
2, 10434, Note_on_c, 0, 53, 94
2, 10476, Note_on_c, 0, 60, 0
2, 10566, Note_on_c, 0, 69, 0
2, 10566, Note_on_c, 0, 67, 92
2, 10692, Note_on_c, 0, 65, 79
2, 10694, Note_on_c, 0, 67, 0
2, 10730, Note_on_c, 0, 57, 55
2, 10746, Note_on_c, 0, 53, 0
2, 10814, Note_on_c, 0, 57, 0
2, 10817, Note_on_c, 0, 65, 0
2, 10844, Note_on_c, 0, 67, 91
2, 10928, Note_on_c, 0, 67, 0
2, 10976, Note_on_c, 0, 69, 91
2, 10992, Note_on_c, 0, 60, 62
2, 11046, Note_on_c, 0, 60, 0
2, 11088, Note_on_c, 0, 69, 0
2, 11104, Note_on_c, 0, 70, 88
2, 11228, Note_on_c, 0, 70, 0
2, 11232, Note_on_c, 0, 72, 100
2, 11256, Note_on_c, 0, 65, 70
2, 11298, Note_on_c, 0, 65, 0
2, 11342, Note_on_c, 0, 72, 0
2, 11362, Note_on_c, 0, 74, 109
2, 11476, Note_on_c, 0, 74, 0
2, 11498, Note_on_c, 0, 75, 109
2, 11512, Note_on_c, 0, 65, 86
2, 11518, Note_on_c, 0, 60, 77
2, 11520, Note_on_c, 0, 57, 68
2, 11582, Note_on_c, 0, 75, 0
2, 11798, Note_on_c, 0, 84, 120
2, 11866, Note_on_c, 0, 65, 0
2, 11868, Note_on_c, 0, 60, 0
2, 11884, Note_on_c, 0, 57, 0
2, 11970, Control_c, 0, 64, 127
2, 12112, Note_on_c, 0, 84, 0
2, 12116, Note_on_c, 0, 65, 93
2, 12118, Note_on_c, 0, 57, 79
2, 12124, Note_on_c, 0, 60, 82
2, 12136, Note_on_c, 0, 53, 98
2, 12198, Note_on_c, 0, 53, 0
2, 12252, Note_on_c, 0, 75, 87
2, 12260, Note_on_c, 0, 53, 11
2, 12370, Control_c, 0, 64, 0
2, 12378, Note_on_c, 0, 74, 99
2, 12380, Note_on_c, 0, 75, 0
2, 12494, Note_on_c, 0, 72, 91
2, 12500, Note_on_c, 0, 74, 0
2, 12618, Note_on_c, 0, 60, 0
2, 12626, Note_on_c, 0, 72, 0
2, 12654, Note_on_c, 0, 74, 107
2, 12658, Note_on_c, 0, 58, 63
2, 12686, Note_on_c, 0, 57, 0
2, 12744, Note_on_c, 0, 65, 0
2, 12756, Note_on_c, 0, 53, 0
2, 12790, Note_on_c, 0, 72, 97
2, 12812, Note_on_c, 0, 74, 0
2, 12904, Note_on_c, 0, 70, 77
2, 12907, Note_on_c, 0, 72, 0
2, 12940, Note_on_c, 0, 62, 59
2, 13050, Note_on_c, 0, 72, 98
2, 13053, Note_on_c, 0, 70, 0
2, 13176, Note_on_c, 0, 72, 0
2, 13182, Note_on_c, 0, 62, 0
2, 13186, Note_on_c, 0, 74, 108
2, 13198, Note_on_c, 0, 58, 0
2, 13212, Note_on_c, 0, 65, 78
2, 13308, Note_on_c, 0, 74, 0
2, 13316, Note_on_c, 0, 65, 0
2, 13318, Note_on_c, 0, 76, 105
2, 13420, Note_on_c, 0, 76, 0
2, 13446, Note_on_c, 0, 77, 108
2, 13450, Note_on_c, 0, 70, 88
2, 13490, Note_on_c, 0, 70, 0
2, 13562, Note_on_c, 0, 79, 116
2, 13578, Note_on_c, 0, 77, 0
2, 13738, Note_on_c, 0, 71, 121
2, 13742, Note_on_c, 0, 80, 110
2, 13746, Note_on_c, 0, 65, 91
2, 13752, Note_on_c, 0, 62, 85
2, 13770, Note_on_c, 0, 79, 0
2, 13826, Note_on_c, 0, 62, 0
2, 13928, Note_on_c, 0, 79, 95
2, 13940, Note_on_c, 0, 80, 0
2, 13968, Note_on_c, 0, 79, 0
2, 13980, Note_on_c, 0, 77, 92
2, 14020, Note_on_c, 0, 77, 0
2, 14030, Note_on_c, 0, 79, 101
2, 14066, Note_on_c, 0, 62, 7
2, 14102, Note_on_c, 0, 71, 0
2, 14116, Note_on_c, 0, 65, 0
2, 14146, Note_on_c, 0, 62, 0
2, 14316, Note_on_c, 0, 67, 106
2, 14340, Note_on_c, 0, 59, 62
2, 14346, Note_on_c, 0, 62, 76
2, 14506, Note_on_c, 0, 79, 0
2, 14508, Note_on_c, 0, 77, 79
2, 14546, Note_on_c, 0, 77, 0
2, 14558, Note_on_c, 0, 76, 80
2, 14606, Note_on_c, 0, 77, 86
2, 14618, Note_on_c, 0, 76, 0
2, 14630, Note_on_c, 0, 67, 0
2, 14648, Note_on_c, 0, 62, 0
2, 14686, Note_on_c, 0, 59, 0
2, 14896, Note_on_c, 0, 62, 92
2, 14898, Note_on_c, 0, 55, 88
2, 14912, Note_on_c, 0, 59, 69
2, 15076, Note_on_c, 0, 76, 48
2, 15080, Note_on_c, 0, 77, 0
2, 15122, Note_on_c, 0, 74, 80
2, 15132, Note_on_c, 0, 76, 0
2, 15166, Note_on_c, 0, 74, 0
2, 15188, Note_on_c, 0, 76, 76
2, 15208, Note_on_c, 0, 62, 0
2, 15234, Note_on_c, 0, 59, 0
2, 15262, Note_on_c, 0, 55, 0
2, 15484, Note_on_c, 0, 60, 77
2, 15496, Note_on_c, 0, 48, 55
2, 15500, Note_on_c, 0, 55, 60
2, 15636, Note_on_c, 0, 79, 90
2, 15646, Note_on_c, 0, 76, 0
2, 15778, Note_on_c, 0, 79, 0
2, 15782, Note_on_c, 0, 76, 67
2, 15870, Note_on_c, 0, 55, 0
2, 15873, Note_on_c, 0, 60, 0
2, 15908, Note_on_c, 0, 48, 0
2, 15920, Note_on_c, 0, 72, 77
2, 15926, Note_on_c, 0, 76, 0
2, 16022, Note_on_c, 0, 72, 0
2, 16042, Note_on_c, 0, 70, 64
2, 16180, Note_on_c, 0, 70, 0
2, 16196, Note_on_c, 0, 79, 77
2, 16336, Note_on_c, 0, 76, 68
2, 16336, Note_on_c, 0, 60, 86
2, 16344, Note_on_c, 0, 79, 0
2, 16418, Note_on_c, 0, 60, 0
2, 16452, Note_on_c, 0, 62, 95
2, 16458, Note_on_c, 0, 76, 0
2, 16472, Note_on_c, 0, 72, 64
2, 16504, Note_on_c, 0, 62, 0
2, 16582, Note_on_c, 0, 72, 0
2, 16582, Note_on_c, 0, 70, 74
2, 16585, Note_on_c, 0, 64, 117
2, 16650, Note_on_c, 0, 64, 0
2, 16728, Note_on_c, 0, 70, 0
2, 16758, Note_on_c, 0, 79, 65
2, 16874, Note_on_c, 0, 67, 113
2, 16896, Note_on_c, 0, 76, 64
2, 16922, Note_on_c, 0, 79, 0
2, 16933, Note_on_c, 0, 67, 0
2, 17040, Note_on_c, 0, 72, 55
2, 17054, Note_on_c, 0, 76, 0
2, 17150, Note_on_c, 0, 72, 0
2, 17152, Note_on_c, 0, 70, 60
2, 17174, Note_on_c, 0, 64, 99
2, 17208, Note_on_c, 0, 64, 0
2, 17268, Note_on_c, 0, 70, 0
2, 17322, Note_on_c, 0, 79, 67
2, 17434, Note_on_c, 0, 79, 0
2, 17450, Note_on_c, 0, 60, 80
2, 17464, Note_on_c, 0, 76, 60
2, 17504, Note_on_c, 0, 60, 0
2, 17596, Note_on_c, 0, 76, 0
2, 17599, Note_on_c, 0, 72, 56
2, 17696, Note_on_c, 0, 72, 0
2, 17712, Note_on_c, 0, 70, 69
2, 17730, Note_on_c, 0, 48, 90
2, 17856, Note_on_c, 0, 70, 0
2, 17864, Note_on_c, 0, 79, 78
2, 17932, Control_c, 0, 64, 127
2, 17992, Note_on_c, 0, 76, 72
2, 18008, Note_on_c, 0, 79, 0
2, 18014, Note_on_c, 0, 48, 0
2, 18122, Note_on_c, 0, 72, 77
2, 18132, Note_on_c, 0, 76, 0
2, 18180, Control_c, 0, 64, 0
2, 18230, Note_on_c, 0, 72, 0
2, 18252, Note_on_c, 0, 69, 83
2, 18352, Note_on_c, 0, 69, 0
2, 18376, Note_on_c, 0, 81, 84
2, 18388, Note_on_c, 0, 60, 99
2, 18512, Note_on_c, 0, 62, 80
2, 18514, Note_on_c, 0, 60, 0
2, 18516, Note_on_c, 0, 81, 0
2, 18516, Note_on_c, 0, 77, 74
2, 18624, Note_on_c, 0, 77, 0
2, 18642, Note_on_c, 0, 73, 80
2, 18642, Note_on_c, 0, 64, 97
2, 18645, Note_on_c, 0, 62, 0
2, 18712, Note_on_c, 0, 64, 0
2, 18740, Note_on_c, 0, 73, 0
2, 18770, Note_on_c, 0, 72, 84
2, 18770, Note_on_c, 0, 65, 107
2, 18820, Note_on_c, 0, 65, 0
2, 18908, Note_on_c, 0, 72, 0
2, 18922, Note_on_c, 0, 81, 76
2, 19054, Note_on_c, 0, 69, 90
2, 19060, Note_on_c, 0, 77, 86
2, 19064, Note_on_c, 0, 81, 0
2, 19100, Note_on_c, 0, 69, 0
2, 19192, Note_on_c, 0, 73, 80
2, 19198, Note_on_c, 0, 77, 0
2, 19334, Note_on_c, 0, 72, 84
2, 19336, Note_on_c, 0, 65, 101
2, 19342, Note_on_c, 0, 73, 0
2, 19380, Note_on_c, 0, 65, 0
2, 19466, Note_on_c, 0, 72, 0
2, 19478, Note_on_c, 0, 81, 79
2, 19610, Note_on_c, 0, 60, 95
2, 19613, Note_on_c, 0, 77, 86
2, 19622, Note_on_c, 0, 81, 0
2, 19670, Note_on_c, 0, 60, 0
2, 19738, Note_on_c, 0, 73, 79
2, 19744, Note_on_c, 0, 77, 0
2, 19884, Note_on_c, 0, 73, 0
2, 19884, Note_on_c, 0, 72, 94
2, 19887, Note_on_c, 0, 48, 98
2, 20020, Note_on_c, 0, 81, 93
2, 20032, Note_on_c, 0, 72, 0
2, 20114, Control_c, 0, 64, 127
2, 20152, Note_on_c, 0, 77, 95
2, 20170, Note_on_c, 0, 81, 0
2, 20182, Note_on_c, 0, 48, 0
2, 20284, Control_c, 0, 64, 0
2, 20284, Note_on_c, 0, 75, 97
2, 20302, Note_on_c, 0, 77, 0
2, 20426, Note_on_c, 0, 74, 102
2, 20436, Note_on_c, 0, 75, 0
2, 20560, Note_on_c, 0, 74, 0
2, 20564, Note_on_c, 0, 83, 123
2, 20692, Note_on_c, 0, 80, 93
2, 20714, Note_on_c, 0, 62, 95
2, 20730, Note_on_c, 0, 83, 0
2, 20826, Note_on_c, 0, 77, 94
2, 20830, Note_on_c, 0, 64, 109
2, 20846, Note_on_c, 0, 62, 0
2, 20858, Note_on_c, 0, 80, 0
2, 20934, Note_on_c, 0, 64, 0
2, 20954, Note_on_c, 0, 65, 116
2, 20966, Note_on_c, 0, 74, 97
2, 20986, Note_on_c, 0, 77, 0
2, 21066, Note_on_c, 0, 65, 0
2, 21102, Note_on_c, 0, 83, 116
2, 21106, Note_on_c, 0, 74, 0
2, 21238, Note_on_c, 0, 80, 95
2, 21246, Note_on_c, 0, 62, 107
2, 21270, Note_on_c, 0, 83, 0
2, 21352, Note_on_c, 0, 62, 0
2, 21372, Note_on_c, 0, 64, 109
2, 21374, Note_on_c, 0, 77, 98
2, 21396, Note_on_c, 0, 80, 0
2, 21468, Note_on_c, 0, 64, 0
2, 21500, Note_on_c, 0, 65, 123
2, 21512, Note_on_c, 0, 74, 106
2, 21534, Note_on_c, 0, 77, 0
2, 21574, Note_on_c, 0, 65, 0
2, 21648, Note_on_c, 0, 74, 0
2, 21658, Note_on_c, 0, 83, 123
2, 21788, Note_on_c, 0, 62, 117
2, 21796, Note_on_c, 0, 80, 90
2, 21824, Note_on_c, 0, 62, 0
2, 21827, Note_on_c, 0, 83, 0
2, 21914, Note_on_c, 0, 77, 88
2, 21946, Note_on_c, 0, 80, 0
2, 22052, Note_on_c, 0, 77, 0
2, 22054, Note_on_c, 0, 55, 116
2, 22056, Note_on_c, 0, 74, 97
2, 22140, Note_on_c, 0, 55, 0
2, 22180, Note_on_c, 0, 74, 0
2, 22200, Note_on_c, 0, 83, 120
2, 22336, Note_on_c, 0, 80, 95
2, 22339, Note_on_c, 0, 59, 101
2, 22366, Note_on_c, 0, 83, 0
2, 22372, Note_on_c, 0, 59, 0
2, 22462, Note_on_c, 0, 77, 95
2, 22474, Note_on_c, 0, 80, 0
2, 22590, Note_on_c, 0, 77, 0
2, 22602, Note_on_c, 0, 60, 121
2, 22610, Note_on_c, 0, 76, 87
2, 22722, Note_on_c, 0, 76, 0
2, 22736, Note_on_c, 0, 84, 98
2, 22750, Note_on_c, 0, 60, 0
2, 22788, Control_c, 0, 64, 127
2, 22850, Control_c, 0, 64, 0
2, 22882, Note_on_c, 0, 79, 99
2, 22884, Note_on_c, 0, 48, 95
2, 22890, Note_on_c, 0, 84, 0
2, 22992, Note_on_c, 0, 50, 97
2, 22998, Note_on_c, 0, 48, 0
2, 23000, Note_on_c, 0, 79, 0
2, 23010, Note_on_c, 0, 76, 88
2, 23102, Note_on_c, 0, 50, 0
2, 23132, Note_on_c, 0, 72, 98
2, 23146, Note_on_c, 0, 52, 127
2, 23152, Note_on_c, 0, 76, 0
2, 23226, Note_on_c, 0, 52, 0
2, 23242, Note_on_c, 0, 72, 0
2, 23260, Note_on_c, 0, 76, 77
2, 23416, Note_on_c, 0, 76, 0
2, 23416, Note_on_c, 0, 55, 117
2, 23416, Note_on_c, 0, 74, 99
2, 23466, Note_on_c, 0, 55, 0
2, 23542, Note_on_c, 0, 77, 94
2, 23552, Note_on_c, 0, 74, 0
2, 23680, Note_on_c, 0, 77, 0
2, 23680, Note_on_c, 0, 76, 98
2, 23692, Note_on_c, 0, 60, 109
2, 23794, Note_on_c, 0, 60, 0
2, 23810, Note_on_c, 0, 79, 107
2, 23836, Note_on_c, 0, 76, 0
2, 23956, Note_on_c, 0, 76, 77
2, 23958, Note_on_c, 0, 79, 0
2, 23966, Note_on_c, 0, 48, 88
2, 24076, Note_on_c, 0, 50, 114
2, 24084, Note_on_c, 0, 76, 0
2, 24089, Note_on_c, 0, 72, 75
2, 24110, Note_on_c, 0, 48, 0
2, 24208, Note_on_c, 0, 72, 0
2, 24210, Note_on_c, 0, 50, 0
2, 24212, Note_on_c, 0, 67, 85
2, 24218, Note_on_c, 0, 52, 122
2, 24275, Note_on_c, 0, 52, 0
2, 24350, Note_on_c, 0, 67, 0
2, 24358, Note_on_c, 0, 70, 64
2, 24496, Note_on_c, 0, 53, 125
2, 24504, Note_on_c, 0, 69, 72
2, 24506, Note_on_c, 0, 70, 0
2, 24540, Note_on_c, 0, 53, 0
2, 24596, Note_on_c, 0, 69, 0
2, 24624, Note_on_c, 0, 72, 86
2, 24762, Note_on_c, 0, 70, 88
2, 24780, Note_on_c, 0, 72, 0
2, 24780, Note_on_c, 0, 55, 107
2, 24876, Note_on_c, 0, 55, 0
2, 24898, Note_on_c, 0, 74, 92
2, 24916, Note_on_c, 0, 70, 0
2, 25030, Note_on_c, 0, 70, 54
2, 25038, Note_on_c, 0, 48, 82
2, 25040, Note_on_c, 0, 74, 0
2, 25154, Note_on_c, 0, 67, 76
2, 25157, Note_on_c, 0, 48, 0
2, 25161, Note_on_c, 0, 70, 0
2, 25164, Note_on_c, 0, 52, 110
2, 25228, Note_on_c, 0, 52, 0
2, 25290, Note_on_c, 0, 67, 0
2, 25298, Note_on_c, 0, 64, 83
2, 25298, Note_on_c, 0, 55, 110
2, 25402, Note_on_c, 0, 55, 0
2, 25436, Note_on_c, 0, 67, 88
2, 25446, Note_on_c, 0, 64, 0
2, 25542, Note_on_c, 0, 67, 0
2, 25580, Note_on_c, 0, 65, 77
2, 25583, Note_on_c, 0, 57, 98
2, 25632, Note_on_c, 0, 57, 0
2, 25690, Note_on_c, 0, 65, 0
2, 25696, Note_on_c, 0, 69, 71
2, 25842, Note_on_c, 0, 67, 90
2, 25850, Note_on_c, 0, 58, 100
2, 25882, Note_on_c, 0, 69, 0
2, 25958, Note_on_c, 0, 58, 0
2, 25986, Note_on_c, 0, 70, 70
2, 25996, Note_on_c, 0, 67, 0
2, 26122, Note_on_c, 0, 67, 67
2, 26125, Note_on_c, 0, 48, 84
2, 26132, Note_on_c, 0, 70, 0
2, 26230, Note_on_c, 0, 50, 98
2, 26246, Note_on_c, 0, 64, 77
2, 26254, Note_on_c, 0, 67, 0
2, 26262, Note_on_c, 0, 48, 0
2, 26360, Note_on_c, 0, 50, 0
2, 26376, Note_on_c, 0, 60, 77
2, 26380, Note_on_c, 0, 64, 0
2, 26384, Note_on_c, 0, 52, 106
2, 26418, Note_on_c, 0, 52, 0
2, 26478, Note_on_c, 0, 60, 0
2, 26498, Note_on_c, 0, 70, 71
2, 26648, Note_on_c, 0, 69, 67
2, 26658, Note_on_c, 0, 48, 83
2, 26664, Note_on_c, 0, 70, 0
2, 26700, Note_on_c, 0, 48, 0
2, 26788, Note_on_c, 0, 67, 80
2, 26792, Note_on_c, 0, 69, 0
2, 26942, Note_on_c, 0, 67, 0
2, 26942, Note_on_c, 0, 53, 115
2, 26942, Note_on_c, 0, 69, 71
2, 27052, Note_on_c, 0, 53, 0
2, 27066, Note_on_c, 0, 65, 72
2, 27074, Note_on_c, 0, 57, 75
2, 27080, Note_on_c, 0, 69, 0
2, 27158, Note_on_c, 0, 57, 0
2, 27200, Note_on_c, 0, 67, 77
2, 27212, Note_on_c, 0, 55, 65
2, 27218, Note_on_c, 0, 65, 0
2, 27318, Note_on_c, 0, 55, 0
2, 27332, Note_on_c, 0, 67, 0
2, 27335, Note_on_c, 0, 69, 72
2, 27339, Note_on_c, 0, 53, 97
2, 27402, Note_on_c, 0, 53, 0
2, 27458, Note_on_c, 0, 70, 79
2, 27461, Note_on_c, 0, 69, 0
2, 27476, Note_on_c, 0, 52, 86
2, 27536, Note_on_c, 0, 52, 0
2, 27576, Note_on_c, 0, 70, 0
2, 27586, Note_on_c, 0, 72, 92
2, 27604, Note_on_c, 0, 50, 80
2, 27702, Note_on_c, 0, 74, 106
2, 27714, Note_on_c, 0, 48, 79
2, 27718, Note_on_c, 0, 50, 0
2, 27722, Note_on_c, 0, 72, 0
2, 27836, Note_on_c, 0, 46, 82
2, 27839, Note_on_c, 0, 76, 102
2, 27850, Note_on_c, 0, 48, 0
2, 27862, Note_on_c, 0, 74, 0
2, 27962, Note_on_c, 0, 77, 110
2, 27968, Note_on_c, 0, 45, 95
2, 27974, Note_on_c, 0, 76, 0
2, 27992, Note_on_c, 0, 46, 0
2, 28090, Note_on_c, 0, 76, 97
2, 28093, Note_on_c, 0, 48, 90
2, 28128, Note_on_c, 0, 77, 0
2, 28140, Note_on_c, 0, 45, 0
2, 28228, Note_on_c, 0, 74, 110
2, 28228, Note_on_c, 0, 50, 109
2, 28246, Note_on_c, 0, 76, 0
2, 28249, Note_on_c, 0, 48, 0
2, 28332, Note_on_c, 0, 74, 0
2, 28340, Note_on_c, 0, 72, 99
2, 28343, Note_on_c, 0, 50, 0
2, 28352, Note_on_c, 0, 52, 109
2, 28446, Note_on_c, 0, 52, 0
2, 28466, Note_on_c, 0, 72, 0
2, 28478, Note_on_c, 0, 84, 123
2, 28484, Note_on_c, 0, 53, 118
2, 28582, Note_on_c, 0, 84, 0
2, 28622, Note_on_c, 0, 55, 110
2, 28628, Note_on_c, 0, 53, 0
2, 28720, Note_on_c, 0, 55, 0
2, 28734, Note_on_c, 0, 77, 110
2, 28734, Note_on_c, 0, 69, 95
2, 28742, Note_on_c, 0, 72, 88
2, 28744, Note_on_c, 0, 57, 92
2, 28778, Note_on_c, 0, 69, 0
2, 28784, Note_on_c, 0, 72, 0
2, 28814, Note_on_c, 0, 77, 0
2, 28852, Note_on_c, 0, 57, 0
2, 28884, Note_on_c, 0, 58, 90
2, 29006, Note_on_c, 0, 58, 0
2, 29036, Note_on_c, 0, 77, 120
2, 29036, Note_on_c, 0, 69, 90
2, 29039, Note_on_c, 0, 72, 98
2, 29048, Note_on_c, 0, 60, 108
2, 29392, Note_on_c, 0, 72, 0
2, 29488, Note_on_c, 0, 69, 0
2, 29502, Control_c, 0, 64, 127
2, 29638, Note_on_c, 0, 67, 105
2, 29640, Note_on_c, 0, 60, 0
2, 29642, Note_on_c, 0, 76, 107
2, 29644, Note_on_c, 0, 72, 100
2, 29646, Note_on_c, 0, 48, 102
2, 29710, Note_on_c, 0, 77, 0
2, 29794, Control_c, 0, 64, 0
2, 30162, Control_c, 0, 64, 127
2, 30170, Note_on_c, 0, 67, 0
2, 30262, Note_on_c, 0, 65, 109
2, 30262, Note_on_c, 0, 50, 114
2, 30286, Control_c, 0, 64, 0
2, 30298, Note_on_c, 0, 48, 0
2, 30376, Note_on_c, 0, 72, 0
2, 30434, Note_on_c, 0, 77, 105
2, 30488, Note_on_c, 0, 76, 0
2, 30612, Note_on_c, 0, 71, 116
2, 30976, Control_c, 0, 64, 127
2, 31138, Note_on_c, 0, 65, 0
2, 31156, Note_on_c, 0, 77, 0
2, 31162, Note_on_c, 0, 50, 0
2, 31208, Control_c, 0, 64, 0
2, 31364, Note_on_c, 0, 74, 109
2, 31416, Note_on_c, 0, 71, 0
2, 31544, Note_on_c, 0, 72, 107
2, 31554, Note_on_c, 0, 52, 120
2, 31614, Note_on_c, 0, 74, 0
2, 31682, Note_on_c, 0, 70, 95
2, 31724, Note_on_c, 0, 72, 0
2, 31836, Note_on_c, 0, 52, 0
2, 31840, Note_on_c, 0, 69, 97
2, 31842, Note_on_c, 0, 53, 127
2, 31868, Note_on_c, 0, 70, 0
2, 31970, Note_on_c, 0, 72, 108
2, 32016, Note_on_c, 0, 69, 0
2, 32092, Note_on_c, 0, 53, 0
2, 32136, Note_on_c, 0, 77, 106
2, 32144, Note_on_c, 0, 45, 105
2, 32178, Note_on_c, 0, 72, 0
2, 32282, Note_on_c, 0, 69, 100
2, 32388, Note_on_c, 0, 69, 0
2, 32402, Note_on_c, 0, 45, 0
2, 32440, Note_on_c, 0, 67, 107
2, 32454, Note_on_c, 0, 46, 108
2, 32542, Note_on_c, 0, 46, 0
2, 32616, Note_on_c, 0, 77, 0
2, 32734, Note_on_c, 0, 67, 0
2, 32752, Note_on_c, 0, 70, 82
2, 32755, Note_on_c, 0, 76, 95
2, 32758, Note_on_c, 0, 72, 88
2, 32760, Note_on_c, 0, 48, 102
2, 32866, Note_on_c, 0, 48, 0
2, 32890, Note_on_c, 0, 72, 0
2, 32924, Note_on_c, 0, 76, 0
2, 32934, Note_on_c, 0, 70, 0
2, 33076, Note_on_c, 0, 77, 110
2, 33088, Note_on_c, 0, 69, 69
2, 33088, Note_on_c, 0, 72, 86
2, 33091, Note_on_c, 0, 41, 106
2, 33091, Note_on_c, 0, 65, 69
2, 33126, Note_on_c, 0, 41, 0
2, 33156, Note_on_c, 0, 65, 0
2, 33206, Control_c, 0, 64, 127
2, 33232, Note_on_c, 0, 69, 0
2, 33300, Note_on_c, 0, 72, 0
2, 33428, Note_on_c, 0, 69, 32
2, 33448, Note_on_c, 0, 65, 40
2, 33516, Note_on_c, 0, 65, 0
2, 33560, Note_on_c, 0, 69, 0
2, 33626, Note_on_c, 0, 77, 0
2, 33650, Control_c, 0, 64, 0
2, 33748, Note_on_c, 0, 69, 46
2, 33768, Note_on_c, 0, 65, 36
2, 33838, Note_on_c, 0, 65, 0
2, 33862, Note_on_c, 0, 69, 0
2, 34044, Note_on_c, 0, 72, 65
2, 34068, Note_on_c, 0, 69, 36
2, 34086, Note_on_c, 0, 65, 25
2, 34176, Note_on_c, 0, 65, 0
2, 34188, Note_on_c, 0, 69, 0
2, 34292, Note_on_c, 0, 72, 0
2, 34370, Note_on_c, 0, 74, 77
2, 34376, Note_on_c, 0, 70, 44
2, 34402, Note_on_c, 0, 65, 37
2, 34470, Note_on_c, 0, 65, 0
2, 34496, Note_on_c, 0, 70, 0
2, 34520, Note_on_c, 0, 72, 65
2, 34522, Note_on_c, 0, 74, 0
2, 34674, Note_on_c, 0, 72, 0
2, 34684, Note_on_c, 0, 70, 45
2, 34706, Note_on_c, 0, 65, 34
2, 34709, Note_on_c, 0, 74, 53
2, 34768, Note_on_c, 0, 70, 0
2, 34770, Note_on_c, 0, 65, 0
2, 35000, Note_on_c, 0, 70, 28
2, 35028, Note_on_c, 0, 65, 24
2, 35092, Note_on_c, 0, 70, 0
2, 35100, Note_on_c, 0, 65, 0
2, 35132, Note_on_c, 0, 77, 57
2, 35135, Note_on_c, 0, 74, 0
2, 35292, Note_on_c, 0, 70, 32
2, 35300, Note_on_c, 0, 75, 62
2, 35306, Note_on_c, 0, 77, 0
2, 35328, Note_on_c, 0, 65, 24
2, 35392, Note_on_c, 0, 65, 0
2, 35392, Note_on_c, 0, 70, 0
2, 35442, Note_on_c, 0, 75, 0
2, 35454, Note_on_c, 0, 74, 64
2, 35590, Note_on_c, 0, 74, 0
2, 35598, Note_on_c, 0, 70, 38
2, 35612, Note_on_c, 0, 65, 31
2, 35614, Note_on_c, 0, 72, 59
2, 35686, Note_on_c, 0, 70, 0
2, 35688, Note_on_c, 0, 65, 0
2, 35700, Note_on_c, 0, 72, 0
2, 35750, Note_on_c, 0, 76, 52
2, 35880, Note_on_c, 0, 76, 0
2, 35910, Note_on_c, 0, 70, 46
2, 35922, Note_on_c, 0, 77, 57
2, 35940, Note_on_c, 0, 65, 33
2, 35992, Note_on_c, 0, 70, 0
2, 36014, Note_on_c, 0, 65, 0
2, 36214, Note_on_c, 0, 69, 40
2, 36232, Note_on_c, 0, 65, 28
2, 36302, Note_on_c, 0, 65, 0
2, 36312, Note_on_c, 0, 69, 0
2, 36358, Note_on_c, 0, 76, 56
2, 36402, Note_on_c, 0, 77, 0
2, 36504, Note_on_c, 0, 74, 78
2, 36514, Note_on_c, 0, 76, 0
2, 36520, Note_on_c, 0, 69, 32
2, 36528, Note_on_c, 0, 65, 45
2, 36590, Note_on_c, 0, 65, 0
2, 36592, Note_on_c, 0, 69, 0
2, 36632, Note_on_c, 0, 74, 0
2, 36638, Note_on_c, 0, 72, 79
2, 36768, Note_on_c, 0, 70, 74
2, 36772, Note_on_c, 0, 72, 0
2, 36790, Note_on_c, 0, 67, 53
2, 36806, Note_on_c, 0, 65, 22
2, 36854, Note_on_c, 0, 67, 0
2, 36878, Note_on_c, 0, 65, 0
2, 36902, Note_on_c, 0, 69, 76
2, 36910, Note_on_c, 0, 70, 0
2, 37048, Note_on_c, 0, 70, 82
2, 37056, Note_on_c, 0, 69, 0
2, 37062, Note_on_c, 0, 67, 63
2, 37076, Note_on_c, 0, 65, 38
2, 37128, Note_on_c, 0, 67, 0
2, 37142, Note_on_c, 0, 65, 0
2, 37178, Note_on_c, 0, 70, 0
2, 37208, Note_on_c, 0, 74, 86
2, 37318, Note_on_c, 0, 74, 0
2, 37362, Note_on_c, 0, 67, 56
2, 37374, Note_on_c, 0, 79, 83
2, 37386, Note_on_c, 0, 64, 39
2, 37424, Note_on_c, 0, 67, 0
2, 37444, Note_on_c, 0, 64, 0
2, 37508, Note_on_c, 0, 79, 0
2, 37634, Note_on_c, 0, 70, 69
2, 37650, Note_on_c, 0, 67, 59
2, 37658, Note_on_c, 0, 64, 55
2, 37706, Note_on_c, 0, 67, 0
2, 37709, Note_on_c, 0, 64, 0
2, 37718, Note_on_c, 0, 70, 0
2, 37828, Note_on_c, 0, 72, 70
2, 37876, Note_on_c, 0, 72, 0
2, 37888, Note_on_c, 0, 70, 68
2, 37924, Note_on_c, 0, 65, 60
2, 37942, Note_on_c, 0, 70, 0
2, 37952, Note_on_c, 0, 72, 55
2, 37954, Note_on_c, 0, 67, 47
2, 38000, Note_on_c, 0, 70, 67
2, 38010, Note_on_c, 0, 72, 0
2, 38018, Note_on_c, 0, 65, 0
2, 38056, Note_on_c, 0, 70, 0
2, 38086, Note_on_c, 0, 67, 0
2, 38100, Note_on_c, 0, 72, 62
2, 38122, Note_on_c, 0, 70, 72
2, 38150, Note_on_c, 0, 72, 0
2, 38200, Note_on_c, 0, 53, 88
2, 38216, Note_on_c, 0, 65, 36
2, 38226, Note_on_c, 0, 69, 33
2, 38238, Note_on_c, 0, 70, 0
2, 38324, Note_on_c, 0, 53, 0
2, 38334, Note_on_c, 0, 55, 65
2, 38420, Note_on_c, 0, 55, 0
2, 38470, Note_on_c, 0, 65, 0
2, 38486, Note_on_c, 0, 57, 84
2, 38544, Note_on_c, 0, 57, 0
2, 38636, Note_on_c, 0, 69, 0
2, 38772, Note_on_c, 0, 53, 117
2, 38782, Note_on_c, 0, 69, 53
2, 38794, Note_on_c, 0, 65, 34
2, 38818, Note_on_c, 0, 53, 0
2, 38866, Note_on_c, 0, 65, 0
2, 38990, Note_on_c, 0, 69, 0
2, 39072, Note_on_c, 0, 60, 72
2, 39078, Note_on_c, 0, 67, 63
2, 39088, Note_on_c, 0, 65, 57
2, 39184, Note_on_c, 0, 67, 0
2, 39226, Note_on_c, 0, 70, 55
2, 39229, Note_on_c, 0, 65, 0
2, 39252, Note_on_c, 0, 60, 0
2, 39286, Note_on_c, 0, 70, 0
2, 39372, Note_on_c, 0, 70, 55
2, 39382, Note_on_c, 0, 60, 29
2, 39384, Note_on_c, 0, 64, 42
2, 39480, Note_on_c, 0, 64, 0
2, 39498, Note_on_c, 0, 60, 0
2, 39498, Note_on_c, 0, 70, 0
2, 39506, Note_on_c, 0, 69, 71
2, 39570, Note_on_c, 0, 69, 0
2, 39666, Note_on_c, 0, 69, 53
2, 39672, Note_on_c, 0, 60, 49
2, 39678, Note_on_c, 0, 65, 45
2, 39776, Note_on_c, 0, 60, 0
2, 39788, Note_on_c, 0, 69, 0
2, 39790, Note_on_c, 0, 65, 0
2, 39828, Note_on_c, 0, 77, 68
2, 39870, Note_on_c, 0, 77, 0
2, 39950, Note_on_c, 0, 77, 56
2, 39968, Note_on_c, 0, 69, 41
2, 39976, Note_on_c, 0, 60, 42
2, 40050, Note_on_c, 0, 69, 0
2, 40066, Note_on_c, 0, 60, 0
2, 40088, Note_on_c, 0, 77, 0
2, 40104, Note_on_c, 0, 76, 72
2, 40148, Note_on_c, 0, 76, 0
2, 40250, Note_on_c, 0, 76, 37
2, 40264, Note_on_c, 0, 67, 51
2, 40272, Note_on_c, 0, 60, 37
2, 40340, Note_on_c, 0, 67, 0
2, 40352, Note_on_c, 0, 60, 0
2, 40390, Note_on_c, 0, 74, 85
2, 40398, Note_on_c, 0, 76, 0
2, 40432, Note_on_c, 0, 74, 0
2, 40526, Note_on_c, 0, 74, 59
2, 40540, Note_on_c, 0, 60, 45
2, 40552, Note_on_c, 0, 65, 53
2, 40610, Note_on_c, 0, 65, 0
2, 40636, Note_on_c, 0, 60, 0
2, 40660, Note_on_c, 0, 74, 0
2, 40662, Note_on_c, 0, 72, 75
2, 40708, Note_on_c, 0, 72, 0
2, 40814, Note_on_c, 0, 72, 54
2, 40830, Note_on_c, 0, 60, 46
2, 40838, Note_on_c, 0, 64, 51
2, 40904, Note_on_c, 0, 64, 0
2, 40907, Note_on_c, 0, 60, 0
2, 40946, Note_on_c, 0, 72, 0
2, 40948, Note_on_c, 0, 70, 68
2, 41008, Note_on_c, 0, 70, 0
2, 41106, Note_on_c, 0, 70, 55
2, 41124, Note_on_c, 0, 60, 53
2, 41124, Note_on_c, 0, 65, 39
2, 41198, Note_on_c, 0, 65, 0
2, 41212, Note_on_c, 0, 60, 0
2, 41232, Note_on_c, 0, 70, 0
2, 41256, Note_on_c, 0, 69, 49
2, 41330, Note_on_c, 0, 69, 0
2, 41410, Note_on_c, 0, 67, 75
2, 41415, Note_on_c, 0, 65, 53
2, 41430, Note_on_c, 0, 60, 52
2, 41512, Note_on_c, 0, 60, 0
2, 41512, Note_on_c, 0, 67, 0
2, 41536, Note_on_c, 0, 65, 0
2, 41550, Note_on_c, 0, 70, 62
2, 41662, Note_on_c, 0, 70, 0
2, 41716, Note_on_c, 0, 60, 53
2, 41718, Note_on_c, 0, 64, 52
2, 41720, Note_on_c, 0, 72, 64
2, 41784, Note_on_c, 0, 64, 0
2, 41787, Note_on_c, 0, 72, 0
2, 41792, Note_on_c, 0, 60, 0
2, 41796, Note_on_c, 0, 70, 60
2, 41862, Note_on_c, 0, 70, 0
2, 41888, Note_on_c, 0, 69, 51
2, 41950, Note_on_c, 0, 69, 0
2, 42006, Note_on_c, 0, 65, 40
2, 42006, Note_on_c, 0, 69, 86
2, 42006, Note_on_c, 0, 60, 51
2, 42058, Note_on_c, 0, 69, 0
2, 42078, Note_on_c, 0, 60, 0
2, 42098, Note_on_c, 0, 65, 0
2, 42150, Note_on_c, 0, 77, 85
2, 42196, Note_on_c, 0, 77, 0
2, 42296, Note_on_c, 0, 69, 44
2, 42299, Note_on_c, 0, 79, 91
2, 42312, Note_on_c, 0, 60, 44
2, 42368, Note_on_c, 0, 69, 0
2, 42368, Note_on_c, 0, 77, 76
2, 42382, Note_on_c, 0, 60, 0
2, 42402, Note_on_c, 0, 79, 0
2, 42422, Note_on_c, 0, 77, 0
2, 42444, Note_on_c, 0, 76, 70
2, 42488, Note_on_c, 0, 76, 0
2, 42578, Note_on_c, 0, 77, 91
2, 42582, Note_on_c, 0, 67, 60
2, 42586, Note_on_c, 0, 60, 49
2, 42640, Note_on_c, 0, 76, 79
2, 42652, Note_on_c, 0, 67, 0
2, 42666, Note_on_c, 0, 60, 0
2, 42700, Note_on_c, 0, 77, 0
2, 42718, Note_on_c, 0, 74, 80
2, 42720, Note_on_c, 0, 76, 0
2, 42762, Note_on_c, 0, 74, 0
2, 42860, Note_on_c, 0, 76, 85
2, 42876, Note_on_c, 0, 65, 61
2, 42880, Note_on_c, 0, 60, 59
2, 42918, Note_on_c, 0, 74, 94
2, 42944, Note_on_c, 0, 65, 0
2, 42952, Note_on_c, 0, 60, 0
2, 42980, Note_on_c, 0, 76, 0
2, 42996, Note_on_c, 0, 72, 79
2, 43034, Note_on_c, 0, 74, 0
2, 43046, Note_on_c, 0, 72, 0
2, 43172, Note_on_c, 0, 74, 82
2, 43182, Note_on_c, 0, 60, 56
2, 43186, Note_on_c, 0, 64, 59
2, 43228, Note_on_c, 0, 72, 91
2, 43252, Note_on_c, 0, 64, 0
2, 43252, Note_on_c, 0, 74, 0
2, 43252, Note_on_c, 0, 60, 0
2, 43294, Note_on_c, 0, 70, 80
2, 43297, Note_on_c, 0, 72, 0
2, 43354, Note_on_c, 0, 70, 0
2, 43454, Note_on_c, 0, 72, 77
2, 43457, Note_on_c, 0, 67, 72
2, 43474, Note_on_c, 0, 60, 56
2, 43512, Note_on_c, 0, 70, 85
2, 43518, Note_on_c, 0, 67, 0
2, 43546, Note_on_c, 0, 60, 0
2, 43554, Note_on_c, 0, 72, 0
2, 43592, Note_on_c, 0, 69, 90
2, 43618, Note_on_c, 0, 70, 0
2, 43644, Note_on_c, 0, 69, 0
2, 43766, Note_on_c, 0, 60, 64
2, 43766, Note_on_c, 0, 65, 56
2, 43769, Note_on_c, 0, 70, 85
2, 43852, Note_on_c, 0, 69, 84
2, 43854, Note_on_c, 0, 65, 0
2, 43874, Note_on_c, 0, 60, 0
2, 43886, Note_on_c, 0, 70, 0
2, 43922, Note_on_c, 0, 69, 0
2, 43930, Note_on_c, 0, 67, 85
2, 44102, Note_on_c, 0, 69, 72
2, 44105, Note_on_c, 0, 65, 44
2, 44120, Note_on_c, 0, 67, 0
2, 44123, Note_on_c, 0, 60, 40
2, 44192, Note_on_c, 0, 65, 0
2, 44198, Note_on_c, 0, 60, 0
2, 44428, Note_on_c, 0, 60, 45
2, 44440, Note_on_c, 0, 65, 33
2, 44518, Note_on_c, 0, 60, 0
2, 44520, Note_on_c, 0, 65, 0
2, 44566, Note_on_c, 0, 72, 70
2, 44572, Note_on_c, 0, 69, 0
2, 44714, Note_on_c, 0, 70, 76
2, 44730, Note_on_c, 0, 72, 0
2, 44742, Note_on_c, 0, 65, 36
2, 44748, Note_on_c, 0, 60, 38
2, 44812, Note_on_c, 0, 65, 0
2, 44820, Note_on_c, 0, 60, 0
2, 44860, Note_on_c, 0, 69, 76
2, 44868, Note_on_c, 0, 70, 0
2, 45016, Note_on_c, 0, 67, 83
2, 45026, Note_on_c, 0, 65, 54
2, 45028, Note_on_c, 0, 69, 0
2, 45050, Note_on_c, 0, 60, 36
2, 45090, Note_on_c, 0, 65, 0
2, 45126, Note_on_c, 0, 60, 0
2, 45172, Note_on_c, 0, 71, 88
2, 45182, Note_on_c, 0, 67, 0
2, 45344, Note_on_c, 0, 72, 67
2, 45347, Note_on_c, 0, 71, 0
2, 45350, Note_on_c, 0, 65, 40
2, 45366, Note_on_c, 0, 60, 33
2, 45412, Note_on_c, 0, 65, 0
2, 45440, Note_on_c, 0, 60, 0
2, 45642, Note_on_c, 0, 60, 30
2, 45652, Note_on_c, 0, 64, 40
2, 45724, Note_on_c, 0, 64, 0
2, 45734, Note_on_c, 0, 60, 0
2, 45800, Note_on_c, 0, 71, 56
2, 45824, Note_on_c, 0, 72, 0
2, 45932, Note_on_c, 0, 69, 55
2, 45934, Note_on_c, 0, 71, 0
2, 45958, Note_on_c, 0, 64, 44
2, 45958, Note_on_c, 0, 60, 40
2, 46020, Note_on_c, 0, 64, 0
2, 46032, Note_on_c, 0, 60, 0
2, 46084, Note_on_c, 0, 67, 65
2, 46096, Note_on_c, 0, 69, 0
2, 46230, Note_on_c, 0, 60, 41
2, 46232, Note_on_c, 0, 67, 0
2, 46232, Note_on_c, 0, 62, 52
2, 46240, Note_on_c, 0, 65, 59
2, 46294, Note_on_c, 0, 62, 0
2, 46304, Note_on_c, 0, 60, 0
2, 46376, Note_on_c, 0, 65, 0
2, 46376, Note_on_c, 0, 64, 74
2, 46500, Note_on_c, 0, 64, 0
2, 46512, Note_on_c, 0, 62, 53
2, 46524, Note_on_c, 0, 60, 40
2, 46530, Note_on_c, 0, 65, 68
2, 46574, Note_on_c, 0, 62, 0
2, 46594, Note_on_c, 0, 60, 0
2, 46652, Note_on_c, 0, 69, 55
2, 46666, Note_on_c, 0, 65, 0
2, 46766, Note_on_c, 0, 69, 0
2, 46812, Note_on_c, 0, 62, 52
2, 46815, Note_on_c, 0, 74, 61
2, 46834, Note_on_c, 0, 59, 31
2, 46874, Note_on_c, 0, 62, 0
2, 46886, Note_on_c, 0, 74, 0
2, 46898, Note_on_c, 0, 59, 0
2, 47096, Note_on_c, 0, 65, 56
2, 47102, Note_on_c, 0, 59, 40
2, 47110, Note_on_c, 0, 62, 51
2, 47152, Note_on_c, 0, 65, 0
2, 47162, Note_on_c, 0, 59, 0
2, 47164, Note_on_c, 0, 62, 0
2, 47308, Note_on_c, 0, 67, 55
2, 47360, Note_on_c, 0, 65, 69
2, 47368, Note_on_c, 0, 67, 0
2, 47382, Note_on_c, 0, 60, 65
2, 47398, Note_on_c, 0, 62, 46
2, 47406, Note_on_c, 0, 65, 0
2, 47432, Note_on_c, 0, 67, 74
2, 47452, Note_on_c, 0, 60, 0
2, 47480, Note_on_c, 0, 65, 55
2, 47496, Note_on_c, 0, 67, 0
2, 47538, Note_on_c, 0, 65, 0
2, 47546, Note_on_c, 0, 62, 0
2, 47560, Note_on_c, 0, 67, 62
2, 47608, Note_on_c, 0, 65, 72
2, 47618, Note_on_c, 0, 67, 0
2, 47668, Note_on_c, 0, 65, 0
2, 47668, Note_on_c, 0, 48, 67
2, 47690, Note_on_c, 0, 64, 56
2, 47720, Note_on_c, 0, 60, 13
2, 47788, Note_on_c, 0, 48, 0
2, 47800, Note_on_c, 0, 50, 83
2, 47874, Note_on_c, 0, 60, 0
2, 47892, Note_on_c, 0, 64, 0
2, 47912, Note_on_c, 0, 50, 0
2, 47958, Note_on_c, 0, 52, 110
2, 48066, Note_on_c, 0, 52, 0
2, 48104, Note_on_c, 0, 72, 83
2, 48180, Note_on_c, 0, 72, 0
2, 48244, Note_on_c, 0, 74, 79
2, 48250, Note_on_c, 0, 48, 98
2, 48292, Note_on_c, 0, 48, 0
2, 48386, Note_on_c, 0, 74, 0
2, 48398, Note_on_c, 0, 76, 70
2, 48528, Note_on_c, 0, 76, 0
2, 48534, Note_on_c, 0, 69, 63
2, 48544, Note_on_c, 0, 53, 123
2, 48672, Note_on_c, 0, 69, 0
2, 48676, Note_on_c, 0, 64, 75
2, 48694, Note_on_c, 0, 55, 85
2, 48790, Note_on_c, 0, 55, 0
2, 48798, Note_on_c, 0, 64, 0
2, 48806, Note_on_c, 0, 65, 86
2, 48816, Note_on_c, 0, 57, 78
2, 48892, Note_on_c, 0, 65, 0
2, 48946, Note_on_c, 0, 57, 0
2, 48946, Note_on_c, 0, 69, 76
2, 48952, Note_on_c, 0, 60, 93
2, 48980, Note_on_c, 0, 53, 0
2, 49068, Note_on_c, 0, 60, 0
2, 49092, Note_on_c, 0, 74, 100
2, 49098, Note_on_c, 0, 69, 0
2, 49100, Note_on_c, 0, 65, 103
2, 49148, Note_on_c, 0, 74, 0
2, 49180, Note_on_c, 0, 65, 0
2, 49228, Note_on_c, 0, 74, 110
2, 49352, Note_on_c, 0, 74, 0
2, 49374, Note_on_c, 0, 50, 101
2, 49378, Note_on_c, 0, 76, 87
2, 49424, Note_on_c, 0, 50, 0
2, 49508, Note_on_c, 0, 77, 94
2, 49536, Note_on_c, 0, 76, 0
2, 49554, Note_on_c, 0, 77, 0
2, 49642, Note_on_c, 0, 55, 110
2, 49674, Note_on_c, 0, 69, 53
2, 49674, Note_on_c, 0, 71, 63
2, 49734, Note_on_c, 0, 71, 0
2, 49737, Note_on_c, 0, 69, 0
2, 49782, Note_on_c, 0, 66, 88
2, 49790, Note_on_c, 0, 57, 85
2, 49902, Note_on_c, 0, 66, 0
2, 49922, Note_on_c, 0, 57, 0
2, 49922, Note_on_c, 0, 67, 100
2, 49922, Note_on_c, 0, 59, 92
2, 50046, Note_on_c, 0, 67, 0
2, 50048, Note_on_c, 0, 71, 108
2, 50058, Note_on_c, 0, 59, 0
2, 50060, Note_on_c, 0, 62, 94
2, 50110, Note_on_c, 0, 55, 0
2, 50172, Note_on_c, 0, 62, 0
2, 50190, Note_on_c, 0, 71, 0
2, 50196, Note_on_c, 0, 76, 98
2, 50202, Note_on_c, 0, 67, 102
2, 50268, Note_on_c, 0, 67, 0
2, 50286, Note_on_c, 0, 76, 0
2, 50330, Note_on_c, 0, 76, 91
2, 50450, Note_on_c, 0, 76, 0
2, 50460, Note_on_c, 0, 52, 107
2, 50462, Note_on_c, 0, 77, 91
2, 50510, Note_on_c, 0, 52, 0
2, 50586, Note_on_c, 0, 79, 106
2, 50610, Note_on_c, 0, 77, 0
2, 50638, Note_on_c, 0, 79, 0
2, 50728, Note_on_c, 0, 72, 106
2, 50730, Note_on_c, 0, 57, 101
2, 50854, Note_on_c, 0, 68, 99
2, 50857, Note_on_c, 0, 72, 0
2, 50864, Note_on_c, 0, 59, 90
2, 50986, Note_on_c, 0, 68, 0
2, 50992, Note_on_c, 0, 69, 87
2, 50998, Note_on_c, 0, 57, 0
2, 51002, Note_on_c, 0, 60, 86
2, 51032, Note_on_c, 0, 59, 0
2, 51118, Note_on_c, 0, 72, 106
2, 51130, Note_on_c, 0, 64, 97
2, 51133, Note_on_c, 0, 60, 0
2, 51133, Note_on_c, 0, 69, 0
2, 51220, Note_on_c, 0, 72, 0
2, 51223, Note_on_c, 0, 64, 0
2, 51266, Note_on_c, 0, 78, 110
2, 51269, Note_on_c, 0, 69, 83
2, 51320, Note_on_c, 0, 69, 0
2, 51330, Note_on_c, 0, 78, 0
2, 51402, Note_on_c, 0, 78, 102
2, 51540, Note_on_c, 0, 79, 108
2, 51543, Note_on_c, 0, 57, 65
2, 51543, Note_on_c, 0, 60, 78
2, 51554, Note_on_c, 0, 78, 0
2, 51590, Note_on_c, 0, 60, 0
2, 51606, Note_on_c, 0, 57, 0
2, 51648, Note_on_c, 0, 81, 105
2, 51688, Note_on_c, 0, 79, 0
2, 51710, Note_on_c, 0, 81, 0
2, 51806, Note_on_c, 0, 79, 94
2, 51806, Note_on_c, 0, 62, 90
2, 51810, Note_on_c, 0, 59, 74
2, 51848, Note_on_c, 0, 79, 0
2, 51850, Note_on_c, 0, 81, 100
2, 51854, Note_on_c, 0, 62, 0
2, 51856, Note_on_c, 0, 59, 0
2, 51924, Note_on_c, 0, 79, 88
2, 51950, Note_on_c, 0, 81, 0
2, 52014, Note_on_c, 0, 78, 90
2, 52030, Note_on_c, 0, 79, 0
2, 52090, Note_on_c, 0, 79, 110
2, 52114, Note_on_c, 0, 55, 60
2, 52124, Note_on_c, 0, 59, 44
2, 52132, Note_on_c, 0, 78, 0
2, 52174, Note_on_c, 0, 55, 0
2, 52180, Note_on_c, 0, 59, 0
2, 52410, Note_on_c, 0, 62, 70
2, 52418, Note_on_c, 0, 59, 56
2, 52494, Note_on_c, 0, 59, 0
2, 52494, Note_on_c, 0, 62, 0
2, 52544, Note_on_c, 0, 79, 0
2, 52546, Note_on_c, 0, 67, 85
2, 52696, Note_on_c, 0, 65, 65
2, 52706, Note_on_c, 0, 67, 0
2, 52709, Note_on_c, 0, 62, 63
2, 52709, Note_on_c, 0, 71, 103
2, 52750, Note_on_c, 0, 65, 0
2, 52756, Note_on_c, 0, 62, 0
2, 52838, Note_on_c, 0, 71, 0
2, 52846, Note_on_c, 0, 74, 100
2, 52994, Note_on_c, 0, 62, 61
2, 52996, Note_on_c, 0, 74, 0
2, 53000, Note_on_c, 0, 77, 90
2, 53006, Note_on_c, 0, 59, 54
2, 53056, Note_on_c, 0, 62, 0
2, 53060, Note_on_c, 0, 59, 0
2, 53136, Note_on_c, 0, 76, 76
2, 53146, Note_on_c, 0, 77, 0
2, 53256, Note_on_c, 0, 76, 0
2, 53308, Note_on_c, 0, 55, 61
2, 53308, Note_on_c, 0, 77, 72
2, 53330, Note_on_c, 0, 59, 33
2, 53372, Note_on_c, 0, 55, 0
2, 53394, Note_on_c, 0, 59, 0
2, 53586, Note_on_c, 0, 62, 62
2, 53614, Note_on_c, 0, 59, 38
2, 53652, Note_on_c, 0, 62, 0
2, 53678, Note_on_c, 0, 59, 0
2, 53730, Note_on_c, 0, 67, 65
2, 53758, Note_on_c, 0, 77, 0
2, 53876, Note_on_c, 0, 67, 0
2, 53879, Note_on_c, 0, 71, 75
2, 53879, Note_on_c, 0, 65, 60
2, 53888, Note_on_c, 0, 62, 62
2, 53930, Note_on_c, 0, 65, 0
2, 53936, Note_on_c, 0, 62, 0
2, 53948, Note_on_c, 0, 71, 0
2, 54026, Note_on_c, 0, 74, 63
2, 54106, Note_on_c, 0, 74, 0
2, 54156, Note_on_c, 0, 67, 68
2, 54170, Note_on_c, 0, 60, 61
2, 54176, Note_on_c, 0, 76, 55
2, 54232, Note_on_c, 0, 67, 0
2, 54252, Note_on_c, 0, 60, 0
2, 54265, Note_on_c, 0, 76, 0
2, 54310, Note_on_c, 0, 74, 69
2, 54313, Note_on_c, 0, 65, 55
2, 54372, Note_on_c, 0, 74, 0
2, 54412, Note_on_c, 0, 65, 0
2, 54448, Note_on_c, 0, 64, 72
2, 54460, Note_on_c, 0, 76, 52
2, 54516, Note_on_c, 0, 64, 0
2, 54606, Note_on_c, 0, 62, 57
2, 54666, Note_on_c, 0, 62, 0
2, 54716, Note_on_c, 0, 60, 64
2, 54818, Note_on_c, 0, 60, 0
2, 54840, Note_on_c, 0, 67, 67
2, 54858, Note_on_c, 0, 76, 0
2, 54872, Note_on_c, 0, 59, 62
2, 54910, Note_on_c, 0, 67, 0
2, 54950, Note_on_c, 0, 59, 0
2, 54986, Note_on_c, 0, 72, 68
2, 55006, Note_on_c, 0, 57, 59
2, 55058, Note_on_c, 0, 57, 0
2, 55102, Note_on_c, 0, 55, 82
2, 55128, Note_on_c, 0, 72, 0
2, 55128, Note_on_c, 0, 74, 75
2, 55206, Note_on_c, 0, 74, 0
2, 55220, Note_on_c, 0, 55, 0
2, 55258, Note_on_c, 0, 54, 88
2, 55262, Note_on_c, 0, 75, 86
2, 55408, Note_on_c, 0, 51, 84
2, 55413, Note_on_c, 0, 54, 0
2, 55413, Note_on_c, 0, 72, 77
2, 55438, Note_on_c, 0, 75, 0
2, 55538, Note_on_c, 0, 51, 0
2, 55552, Note_on_c, 0, 71, 85
2, 55555, Note_on_c, 0, 50, 95
2, 55570, Note_on_c, 0, 72, 0
2, 55690, Note_on_c, 0, 50, 0
2, 55690, Note_on_c, 0, 72, 74
2, 55698, Note_on_c, 0, 48, 80
2, 55708, Note_on_c, 0, 71, 0
2, 55800, Note_on_c, 0, 72, 0
2, 55802, Note_on_c, 0, 48, 0
2, 55820, Note_on_c, 0, 46, 84
2, 55832, Note_on_c, 0, 78, 86
2, 55916, Note_on_c, 0, 46, 0
2, 55956, Note_on_c, 0, 45, 75
2, 55970, Note_on_c, 0, 78, 0
2, 55970, Note_on_c, 0, 72, 74
2, 56074, Note_on_c, 0, 72, 0
2, 56086, Note_on_c, 0, 45, 0
2, 56096, Note_on_c, 0, 43, 78
2, 56116, Note_on_c, 0, 81, 86
2, 56188, Note_on_c, 0, 43, 0
2, 56220, Note_on_c, 0, 42, 84
2, 56242, Note_on_c, 0, 81, 0
2, 56242, Note_on_c, 0, 72, 87
2, 56262, Note_on_c, 0, 42, 0
2, 56298, Note_on_c, 0, 72, 0
2, 56382, Note_on_c, 0, 71, 90
2, 56390, Note_on_c, 0, 43, 97
2, 56526, Note_on_c, 0, 65, 75
2, 56584, Note_on_c, 0, 71, 0
2, 56656, Note_on_c, 0, 64, 87
2, 56668, Note_on_c, 0, 65, 0
2, 56668, Note_on_c, 0, 50, 97
2, 56770, Note_on_c, 0, 64, 0
2, 56800, Note_on_c, 0, 65, 93
2, 56884, Note_on_c, 0, 50, 0
2, 56918, Note_on_c, 0, 65, 0
2, 56944, Note_on_c, 0, 71, 102
2, 56952, Note_on_c, 0, 55, 105
2, 57068, Note_on_c, 0, 65, 79
2, 57070, Note_on_c, 0, 71, 0
2, 57198, Note_on_c, 0, 65, 0
2, 57234, Note_on_c, 0, 47, 94
2, 57234, Note_on_c, 0, 74, 98
2, 57340, Note_on_c, 0, 74, 0
2, 57346, Note_on_c, 0, 43, 0
2, 57352, Note_on_c, 0, 65, 82
2, 57458, Note_on_c, 0, 65, 0
2, 57470, Note_on_c, 0, 47, 0
2, 57506, Note_on_c, 0, 64, 90
2, 57526, Note_on_c, 0, 48, 87
2, 57538, Note_on_c, 0, 55, 0
2, 57588, Note_on_c, 0, 48, 0
2, 57614, Note_on_c, 0, 64, 0
2, 57642, Note_on_c, 0, 67, 97
2, 57788, Note_on_c, 0, 72, 93
2, 57792, Note_on_c, 0, 48, 69
2, 57798, Note_on_c, 0, 67, 0
2, 57816, Note_on_c, 0, 40, 95
2, 57894, Note_on_c, 0, 72, 0
2, 57938, Note_on_c, 0, 79, 95
2, 58082, Note_on_c, 0, 41, 83
2, 58085, Note_on_c, 0, 40, 0
2, 58106, Note_on_c, 0, 77, 86
2, 58124, Note_on_c, 0, 79, 0
2, 58240, Note_on_c, 0, 76, 82
2, 58254, Note_on_c, 0, 77, 0
2, 58316, Note_on_c, 0, 76, 0
2, 58320, Note_on_c, 0, 48, 0
2, 58380, Note_on_c, 0, 43, 62
2, 58383, Note_on_c, 0, 74, 82
2, 58390, Note_on_c, 0, 41, 0
2, 58390, Note_on_c, 0, 47, 63
2, 58490, Note_on_c, 0, 74, 0
2, 58504, Note_on_c, 0, 72, 79
2, 58564, Note_on_c, 0, 43, 0
2, 58568, Note_on_c, 0, 72, 0
2, 58622, Note_on_c, 0, 47, 0
2, 58638, Note_on_c, 0, 48, 86
2, 58658, Note_on_c, 0, 72, 65
2, 58678, Note_on_c, 0, 48, 0
2, 58800, Note_on_c, 0, 60, 106
2, 58946, Note_on_c, 0, 59, 105
2, 58968, Note_on_c, 0, 60, 0
2, 59104, Note_on_c, 0, 57, 86
2, 59126, Note_on_c, 0, 59, 0
2, 59232, Note_on_c, 0, 55, 109
2, 59234, Note_on_c, 0, 57, 0
2, 59386, Note_on_c, 0, 53, 122
2, 59402, Note_on_c, 0, 55, 0
2, 59510, Note_on_c, 0, 53, 0
2, 59544, Note_on_c, 0, 52, 107
2, 59640, Note_on_c, 0, 72, 0
2, 59680, Note_on_c, 0, 52, 0
2, 59680, Note_on_c, 0, 50, 110
2, 59802, Note_on_c, 0, 50, 0
2, 59822, Note_on_c, 0, 48, 98
2, 59880, Note_on_c, 0, 48, 0
2, 59966, Note_on_c, 0, 48, 78
2, 60104, Note_on_c, 0, 72, 107
2, 60110, Note_on_c, 0, 48, 0
2, 60112, Note_on_c, 0, 47, 94
2, 60196, Note_on_c, 0, 72, 0
2, 60254, Note_on_c, 0, 45, 91
2, 60274, Note_on_c, 0, 47, 0
2, 60372, Note_on_c, 0, 45, 0
2, 60390, Note_on_c, 0, 64, 108
2, 60390, Note_on_c, 0, 60, 97
2, 60393, Note_on_c, 0, 43, 95
2, 60448, Note_on_c, 0, 60, 0
2, 60451, Note_on_c, 0, 64, 0
2, 60534, Note_on_c, 0, 41, 97
2, 60546, Note_on_c, 0, 43, 0
2, 60660, Note_on_c, 0, 41, 0
2, 60660, Note_on_c, 0, 62, 95
2, 60663, Note_on_c, 0, 65, 99
2, 60678, Note_on_c, 0, 40, 107
2, 60724, Note_on_c, 0, 62, 0
2, 60784, Note_on_c, 0, 65, 0
2, 60804, Note_on_c, 0, 40, 0
2, 60822, Note_on_c, 0, 38, 88
2, 60934, Note_on_c, 0, 38, 0
2, 60942, Note_on_c, 0, 67, 106
2, 60942, Note_on_c, 0, 64, 105
2, 60956, Note_on_c, 0, 36, 116
2, 61064, Note_on_c, 0, 36, 0
2, 61244, Note_on_c, 0, 60, 99
2, 61350, Note_on_c, 0, 60, 0
2, 61534, Note_on_c, 0, 64, 0
2, 61546, Note_on_c, 0, 57, 95
2, 61549, Note_on_c, 0, 69, 84
2, 61552, Note_on_c, 0, 65, 84
2, 61588, Note_on_c, 0, 67, 0
2, 61634, Note_on_c, 0, 57, 0
2, 61850, Note_on_c, 0, 65, 0
2, 61853, Note_on_c, 0, 53, 114
2, 61892, Note_on_c, 0, 53, 0
2, 62140, Note_on_c, 0, 48, 77
2, 62152, Note_on_c, 0, 67, 95
2, 62152, Note_on_c, 0, 64, 76
2, 62174, Note_on_c, 0, 69, 0
2, 62278, Note_on_c, 0, 69, 53
2, 62312, Note_on_c, 0, 67, 0
2, 62424, Note_on_c, 0, 43, 67
2, 62432, Note_on_c, 0, 70, 75
2, 62446, Note_on_c, 0, 69, 0
2, 62488, Note_on_c, 0, 43, 0
2, 62736, Note_on_c, 0, 40, 94
2, 62778, Note_on_c, 0, 40, 0
2, 63036, Note_on_c, 0, 36, 75
2, 63038, Note_on_c, 0, 69, 51
2, 63046, Note_on_c, 0, 70, 0
2, 63102, Note_on_c, 0, 64, 0
2, 63122, Note_on_c, 0, 36, 0
2, 63162, Note_on_c, 0, 67, 74
2, 63180, Note_on_c, 0, 69, 0
2, 63320, Note_on_c, 0, 69, 70
2, 63334, Note_on_c, 0, 67, 0
2, 63346, Note_on_c, 0, 48, 0
2, 63346, Note_on_c, 0, 41, 52
2, 63464, Note_on_c, 0, 65, 68
2, 63586, Note_on_c, 0, 64, 90
2, 63610, Note_on_c, 0, 65, 0
2, 63620, Note_on_c, 0, 41, 0
2, 63718, Note_on_c, 0, 64, 0
2, 63726, Note_on_c, 0, 62, 83
2, 63850, Note_on_c, 0, 62, 0
2, 63864, Note_on_c, 0, 60, 82
2, 63874, Note_on_c, 0, 69, 0
2, 63992, Note_on_c, 0, 58, 74
2, 64022, Note_on_c, 0, 60, 0
2, 64110, Note_on_c, 0, 58, 0
2, 64130, Note_on_c, 0, 57, 70
2, 64230, Note_on_c, 0, 57, 0
2, 64278, Note_on_c, 0, 55, 84
2, 64348, Note_on_c, 0, 55, 0
2, 64420, Note_on_c, 0, 53, 100
2, 64468, Note_on_c, 0, 53, 0
2, 64534, Note_on_c, 0, 53, 113
2, 64660, Note_on_c, 0, 53, 0
2, 64690, Note_on_c, 0, 77, 117
2, 64694, Note_on_c, 0, 52, 95
2, 64796, Note_on_c, 0, 77, 0
2, 64820, Note_on_c, 0, 50, 92
2, 64823, Note_on_c, 0, 52, 0
2, 64904, Note_on_c, 0, 50, 0
2, 64956, Note_on_c, 0, 48, 79
2, 64964, Note_on_c, 0, 69, 95
2, 64970, Note_on_c, 0, 65, 93
2, 65014, Note_on_c, 0, 65, 0
2, 65076, Note_on_c, 0, 46, 74
2, 65078, Note_on_c, 0, 69, 0
2, 65084, Note_on_c, 0, 48, 0
2, 65210, Note_on_c, 0, 46, 0
2, 65230, Note_on_c, 0, 45, 78
2, 65233, Note_on_c, 0, 70, 99
2, 65236, Note_on_c, 0, 67, 94
2, 65290, Note_on_c, 0, 67, 0
2, 65336, Note_on_c, 0, 70, 0
2, 65362, Note_on_c, 0, 45, 0
2, 65380, Note_on_c, 0, 43, 88
2, 65482, Note_on_c, 0, 43, 0
2, 65516, Note_on_c, 0, 72, 113
2, 65518, Note_on_c, 0, 69, 94
2, 65530, Note_on_c, 0, 41, 110
2, 65602, Note_on_c, 0, 41, 0
2, 65830, Note_on_c, 0, 65, 93
2, 65944, Note_on_c, 0, 65, 0
2, 66030, Note_on_c, 0, 69, 0
2, 66116, Note_on_c, 0, 70, 87
2, 66120, Note_on_c, 0, 74, 109
2, 66128, Note_on_c, 0, 62, 87
2, 66138, Note_on_c, 0, 72, 0
2, 66210, Note_on_c, 0, 62, 0
2, 66424, Note_on_c, 0, 58, 82
2, 66490, Note_on_c, 0, 58, 0
2, 66702, Note_on_c, 0, 69, 70
2, 66705, Note_on_c, 0, 70, 0
2, 66705, Note_on_c, 0, 72, 100
2, 66710, Note_on_c, 0, 53, 116
2, 66722, Note_on_c, 0, 74, 0
2, 66842, Note_on_c, 0, 74, 80
2, 66886, Note_on_c, 0, 72, 0
2, 66986, Note_on_c, 0, 75, 94
2, 66992, Note_on_c, 0, 48, 78
2, 67004, Note_on_c, 0, 74, 0
2, 67054, Note_on_c, 0, 48, 0
2, 67282, Note_on_c, 0, 45, 82
2, 67354, Note_on_c, 0, 45, 0
2, 67562, Note_on_c, 0, 74, 90
2, 67572, Note_on_c, 0, 41, 90
2, 67608, Note_on_c, 0, 75, 0
2, 67632, Note_on_c, 0, 69, 0
2, 67632, Note_on_c, 0, 41, 0
2, 67686, Note_on_c, 0, 72, 87
2, 67708, Note_on_c, 0, 74, 0
2, 67844, Note_on_c, 0, 53, 0
2, 67846, Note_on_c, 0, 74, 93
2, 67850, Note_on_c, 0, 72, 0
2, 67864, Note_on_c, 0, 46, 59
2, 67980, Note_on_c, 0, 70, 78
2, 68120, Note_on_c, 0, 69, 76
2, 68164, Note_on_c, 0, 70, 0
2, 68194, Note_on_c, 0, 46, 0
2, 68258, Note_on_c, 0, 67, 86
2, 68272, Note_on_c, 0, 69, 0
2, 68376, Note_on_c, 0, 67, 0
2, 68404, Note_on_c, 0, 65, 72
2, 68478, Note_on_c, 0, 74, 0
2, 68536, Note_on_c, 0, 65, 0
2, 68542, Note_on_c, 0, 63, 71
2, 68626, Note_on_c, 0, 63, 0
2, 68672, Note_on_c, 0, 62, 63
2, 68788, Note_on_c, 0, 62, 0
2, 68822, Note_on_c, 0, 60, 56
2, 68898, Note_on_c, 0, 60, 0
2, 68954, Note_on_c, 0, 58, 53
2, 69082, Note_on_c, 0, 74, 78
2, 69112, Note_on_c, 0, 58, 0
2, 69184, Note_on_c, 0, 74, 0
2, 69214, Note_on_c, 0, 73, 80
2, 69256, Note_on_c, 0, 67, 53
2, 69354, Note_on_c, 0, 74, 92
2, 69356, Note_on_c, 0, 73, 0
2, 69474, Note_on_c, 0, 74, 0
2, 69506, Note_on_c, 0, 82, 90
2, 69614, Note_on_c, 0, 67, 0
2, 69624, Note_on_c, 0, 58, 52
2, 69662, Note_on_c, 0, 82, 0
2, 69784, Note_on_c, 0, 58, 0
2, 69786, Note_on_c, 0, 74, 85
2, 69806, Note_on_c, 0, 57, 51
2, 69898, Note_on_c, 0, 57, 0
2, 69944, Note_on_c, 0, 55, 69
2, 70056, Note_on_c, 0, 55, 0
2, 70108, Note_on_c, 0, 57, 75
2, 70222, Note_on_c, 0, 57, 0
2, 70228, Note_on_c, 0, 74, 0
2, 70240, Note_on_c, 0, 73, 79
2, 70376, Note_on_c, 0, 73, 0
2, 70379, Note_on_c, 0, 71, 92
2, 70402, Note_on_c, 0, 65, 62
2, 70514, Note_on_c, 0, 71, 0
2, 70516, Note_on_c, 0, 73, 85
2, 70602, Note_on_c, 0, 73, 0
2, 70676, Note_on_c, 0, 81, 99
2, 70776, Note_on_c, 0, 65, 0
2, 70778, Note_on_c, 0, 81, 0
2, 70810, Note_on_c, 0, 57, 61
2, 70916, Note_on_c, 0, 57, 0
2, 70952, Note_on_c, 0, 55, 68
2, 70954, Note_on_c, 0, 72, 83
2, 71046, Note_on_c, 0, 55, 0
2, 71088, Note_on_c, 0, 53, 83
2, 71174, Note_on_c, 0, 53, 0
2, 71254, Note_on_c, 0, 55, 71
2, 71350, Note_on_c, 0, 55, 0
2, 71380, Note_on_c, 0, 71, 93
2, 71407, Note_on_c, 0, 72, 0
2, 71518, Note_on_c, 0, 64, 82
2, 71522, Note_on_c, 0, 69, 78
2, 71530, Note_on_c, 0, 71, 0
2, 71662, Note_on_c, 0, 71, 106
2, 71666, Note_on_c, 0, 69, 0
2, 71768, Note_on_c, 0, 71, 0
2, 71806, Note_on_c, 0, 79, 100
2, 71916, Note_on_c, 0, 64, 0
2, 71936, Note_on_c, 0, 79, 0
2, 71942, Note_on_c, 0, 62, 60
2, 72028, Note_on_c, 0, 62, 0
2, 72064, Note_on_c, 0, 70, 71
2, 72080, Note_on_c, 0, 61, 75
2, 72152, Note_on_c, 0, 61, 0
2, 72196, Note_on_c, 0, 70, 0
2, 72248, Note_on_c, 0, 64, 55
2, 72320, Note_on_c, 0, 64, 0
2, 72338, Note_on_c, 0, 70, 84
2, 72376, Note_on_c, 0, 55, 62
2, 72396, Note_on_c, 0, 70, 0
2, 72410, Note_on_c, 0, 72, 79
2, 72456, Note_on_c, 0, 70, 72
2, 72460, Note_on_c, 0, 72, 0
2, 72498, Note_on_c, 0, 55, 0
2, 72512, Note_on_c, 0, 70, 0
2, 72524, Note_on_c, 0, 62, 57
2, 72534, Note_on_c, 0, 72, 72
2, 72568, Note_on_c, 0, 70, 82
2, 72586, Note_on_c, 0, 72, 0
2, 72610, Note_on_c, 0, 62, 0
2, 72664, Note_on_c, 0, 69, 49
2, 72667, Note_on_c, 0, 61, 46
2, 72694, Note_on_c, 0, 70, 0
2, 72746, Note_on_c, 0, 61, 0
2, 72804, Note_on_c, 0, 64, 61
2, 72912, Note_on_c, 0, 64, 0
2, 72954, Note_on_c, 0, 57, 59
2, 73012, Note_on_c, 0, 69, 0
2, 73086, Note_on_c, 0, 57, 0
2, 73100, Note_on_c, 0, 55, 48
2, 73244, Note_on_c, 0, 55, 0
2, 73260, Note_on_c, 0, 53, 88
2, 73368, Note_on_c, 0, 53, 0
2, 73396, Note_on_c, 0, 52, 79
2, 73542, Note_on_c, 0, 52, 0
2, 73584, Note_on_c, 0, 53, 91
2, 73720, Note_on_c, 0, 74, 78
2, 73762, Note_on_c, 0, 53, 0
2, 73849, Note_on_c, 0, 70, 78
2, 73849, Note_on_c, 0, 55, 59
2, 73874, Note_on_c, 0, 74, 0
2, 73984, Note_on_c, 0, 67, 86
2, 74008, Note_on_c, 0, 70, 0
2, 74132, Note_on_c, 0, 55, 0
2, 74134, Note_on_c, 0, 67, 0
2, 74137, Note_on_c, 0, 69, 80
2, 74156, Note_on_c, 0, 53, 78
2, 74294, Note_on_c, 0, 74, 82
2, 74297, Note_on_c, 0, 69, 0
2, 74408, Note_on_c, 0, 53, 0
2, 74434, Note_on_c, 0, 67, 78
2, 74437, Note_on_c, 0, 74, 0
2, 74440, Note_on_c, 0, 52, 59
2, 74570, Note_on_c, 0, 64, 83
2, 74573, Note_on_c, 0, 67, 0
2, 74706, Note_on_c, 0, 52, 0
2, 74720, Note_on_c, 0, 64, 0
2, 74730, Note_on_c, 0, 65, 80
2, 74740, Note_on_c, 0, 50, 59
2, 74870, Note_on_c, 0, 65, 0
2, 74878, Note_on_c, 0, 74, 79
2, 74984, Note_on_c, 0, 50, 0
2, 75012, Note_on_c, 0, 67, 94
2, 75012, Note_on_c, 0, 58, 60
2, 75032, Note_on_c, 0, 74, 0
2, 75154, Note_on_c, 0, 64, 94
2, 75178, Note_on_c, 0, 67, 0
2, 75284, Note_on_c, 0, 64, 0
2, 75298, Note_on_c, 0, 65, 94
2, 75301, Note_on_c, 0, 58, 0
2, 75307, Note_on_c, 0, 57, 63
2, 75424, Note_on_c, 0, 65, 0
2, 75442, Note_on_c, 0, 74, 100
2, 75578, Note_on_c, 0, 74, 0
2, 75578, Note_on_c, 0, 57, 0
2, 75586, Note_on_c, 0, 64, 86
2, 75598, Note_on_c, 0, 55, 62
2, 75700, Note_on_c, 0, 64, 0
2, 75710, Note_on_c, 0, 61, 92
2, 75842, Note_on_c, 0, 61, 0
2, 75862, Note_on_c, 0, 55, 0
2, 75862, Note_on_c, 0, 62, 98
2, 75888, Note_on_c, 0, 53, 76
2, 75982, Note_on_c, 0, 62, 0
2, 75996, Note_on_c, 0, 74, 94
2, 76022, Note_on_c, 0, 53, 0
2, 76062, Note_on_c, 0, 74, 0
2, 76138, Note_on_c, 0, 70, 61
2, 76162, Note_on_c, 0, 55, 69
2, 76198, Note_on_c, 0, 69, 53
2, 76254, Note_on_c, 0, 70, 0
2, 76270, Note_on_c, 0, 55, 0
2, 76272, Note_on_c, 0, 69, 0
2, 76278, Note_on_c, 0, 67, 69
2, 76440, Note_on_c, 0, 67, 0
2, 76452, Note_on_c, 0, 69, 55
2, 76472, Note_on_c, 0, 53, 72
2, 76538, Note_on_c, 0, 53, 0
2, 76548, Note_on_c, 0, 69, 0
2, 76572, Note_on_c, 0, 74, 75
2, 76634, Note_on_c, 0, 74, 0
2, 76724, Note_on_c, 0, 67, 63
2, 76744, Note_on_c, 0, 52, 62
2, 76808, Note_on_c, 0, 67, 0
2, 76812, Note_on_c, 0, 65, 37
2, 76824, Note_on_c, 0, 52, 0
2, 76862, Note_on_c, 0, 64, 69
2, 76868, Note_on_c, 0, 65, 0
2, 76988, Note_on_c, 0, 64, 0
2, 77028, Note_on_c, 0, 65, 67
2, 77042, Note_on_c, 0, 50, 55
2, 77100, Note_on_c, 0, 65, 0
2, 77138, Note_on_c, 0, 74, 77
2, 77170, Note_on_c, 0, 50, 0
2, 77200, Note_on_c, 0, 74, 0
2, 77298, Note_on_c, 0, 67, 74
2, 77312, Note_on_c, 0, 58, 49
2, 77360, Note_on_c, 0, 65, 48
2, 77378, Note_on_c, 0, 67, 0
2, 77422, Note_on_c, 0, 58, 0
2, 77440, Note_on_c, 0, 64, 63
2, 77442, Note_on_c, 0, 65, 0
2, 77582, Note_on_c, 0, 64, 0
2, 77594, Note_on_c, 0, 65, 75
2, 77622, Note_on_c, 0, 57, 46
2, 77660, Note_on_c, 0, 65, 0
2, 77706, Note_on_c, 0, 57, 0
2, 77720, Note_on_c, 0, 74, 63
2, 77776, Note_on_c, 0, 74, 0
2, 77850, Note_on_c, 0, 64, 77
2, 77916, Note_on_c, 0, 64, 0
2, 77922, Note_on_c, 0, 55, 48
2, 77952, Note_on_c, 0, 62, 72
2, 77990, Note_on_c, 0, 55, 0
2, 78008, Note_on_c, 0, 62, 0
2, 78020, Note_on_c, 0, 61, 69
2, 78122, Note_on_c, 0, 61, 0
2, 78170, Note_on_c, 0, 53, 72
2, 78180, Note_on_c, 0, 62, 70
2, 78236, Note_on_c, 0, 53, 0
2, 78252, Note_on_c, 0, 62, 0
2, 78255, Control_c, 0, 64, 127
2, 78372, Note_on_c, 0, 61, 67
2, 78456, Control_c, 0, 64, 0
2, 78480, Note_on_c, 0, 61, 0
2, 78485, Note_on_c, 0, 77, 78
2, 78485, Note_on_c, 0, 81, 77
2, 78532, Note_on_c, 0, 62, 49
2, 78598, Note_on_c, 0, 62, 0
2, 78660, Note_on_c, 0, 64, 56
2, 78712, Note_on_c, 0, 77, 0
2, 78748, Note_on_c, 0, 64, 0
2, 78790, Note_on_c, 0, 79, 78
2, 78793, Note_on_c, 0, 82, 70
2, 78810, Note_on_c, 0, 81, 0
2, 78832, Note_on_c, 0, 62, 52
2, 78912, Note_on_c, 0, 62, 0
2, 78946, Note_on_c, 0, 61, 71
2, 79016, Note_on_c, 0, 61, 0
2, 79048, Note_on_c, 0, 79, 0
2, 79106, Note_on_c, 0, 82, 0
2, 79109, Note_on_c, 0, 81, 63
2, 79116, Note_on_c, 0, 77, 46
2, 79119, Note_on_c, 0, 62, 44
2, 79186, Note_on_c, 0, 81, 0
2, 79188, Note_on_c, 0, 77, 0
2, 79194, Note_on_c, 0, 62, 0
2, 79208, Control_c, 0, 64, 127
2, 79232, Note_on_c, 0, 53, 100
2, 79274, Note_on_c, 0, 53, 0
2, 79390, Note_on_c, 0, 64, 88
2, 79404, Note_on_c, 0, 55, 86
2, 79424, Control_c, 0, 64, 0
2, 79534, Note_on_c, 0, 64, 0
2, 79552, Note_on_c, 0, 61, 72
2, 79628, Note_on_c, 0, 55, 0
2, 79682, Note_on_c, 0, 79, 110
2, 79694, Note_on_c, 0, 76, 70
2, 79706, Note_on_c, 0, 62, 70
2, 79734, Note_on_c, 0, 61, 0
2, 79758, Note_on_c, 0, 76, 0
2, 79830, Note_on_c, 0, 62, 0
2, 79830, Note_on_c, 0, 76, 15
2, 79840, Note_on_c, 0, 64, 76
2, 79946, Note_on_c, 0, 76, 0
2, 79960, Note_on_c, 0, 64, 0
2, 79990, Note_on_c, 0, 81, 90
2, 79993, Note_on_c, 0, 77, 84
2, 79993, Note_on_c, 0, 62, 67
2, 80018, Note_on_c, 0, 79, 0
2, 80078, Note_on_c, 0, 62, 0
2, 80148, Note_on_c, 0, 61, 64
2, 80214, Note_on_c, 0, 61, 0
2, 80234, Note_on_c, 0, 77, 0
2, 80270, Note_on_c, 0, 76, 49
2, 80278, Note_on_c, 0, 79, 83
2, 80286, Note_on_c, 0, 81, 0
2, 80312, Note_on_c, 0, 62, 42
2, 80380, Note_on_c, 0, 79, 0
2, 80392, Control_c, 0, 64, 127
2, 80398, Note_on_c, 0, 62, 0
2, 80412, Note_on_c, 0, 55, 80
2, 80414, Note_on_c, 0, 76, 0
2, 80458, Note_on_c, 0, 55, 0
2, 80570, Note_on_c, 0, 65, 79
2, 80578, Note_on_c, 0, 57, 76
2, 80592, Control_c, 0, 64, 0
2, 80704, Note_on_c, 0, 65, 0
2, 80728, Note_on_c, 0, 61, 79
2, 80752, Note_on_c, 0, 57, 0
2, 80846, Note_on_c, 0, 77, 98
2, 80849, Note_on_c, 0, 74, 92
2, 80864, Note_on_c, 0, 61, 0
2, 80878, Note_on_c, 0, 62, 72
2, 80978, Note_on_c, 0, 62, 0
2, 81014, Note_on_c, 0, 64, 75
2, 81112, Note_on_c, 0, 64, 0
2, 81112, Note_on_c, 0, 74, 0
2, 81130, Note_on_c, 0, 76, 94
2, 81133, Note_on_c, 0, 79, 110
2, 81158, Note_on_c, 0, 62, 75
2, 81174, Note_on_c, 0, 77, 0
2, 81276, Note_on_c, 0, 62, 0
2, 81290, Note_on_c, 0, 61, 80
2, 81374, Note_on_c, 0, 61, 0
2, 81384, Note_on_c, 0, 76, 0
2, 81424, Note_on_c, 0, 77, 85
2, 81432, Note_on_c, 0, 62, 74
2, 81434, Note_on_c, 0, 74, 77
2, 81438, Note_on_c, 0, 79, 0
2, 81526, Note_on_c, 0, 62, 0
2, 81550, Note_on_c, 0, 77, 0
2, 81570, Note_on_c, 0, 57, 87
2, 81584, Note_on_c, 0, 74, 0
2, 81634, Note_on_c, 0, 57, 0
2, 81708, Note_on_c, 0, 67, 94
2, 81716, Note_on_c, 0, 58, 83
2, 81860, Note_on_c, 0, 61, 90
2, 81898, Note_on_c, 0, 67, 0
2, 81906, Note_on_c, 0, 58, 0
2, 81974, Note_on_c, 0, 77, 103
2, 81977, Note_on_c, 0, 74, 95
2, 82002, Note_on_c, 0, 62, 90
2, 82010, Note_on_c, 0, 61, 0
2, 82124, Note_on_c, 0, 62, 0
2, 82148, Note_on_c, 0, 64, 91
2, 82212, Note_on_c, 0, 74, 0
2, 82270, Note_on_c, 0, 64, 0
2, 82270, Note_on_c, 0, 79, 116
2, 82270, Note_on_c, 0, 76, 91
2, 82278, Note_on_c, 0, 77, 0
2, 82286, Note_on_c, 0, 62, 92
2, 82376, Note_on_c, 0, 76, 0
2, 82420, Note_on_c, 0, 62, 0
2, 82426, Note_on_c, 0, 61, 95
2, 82462, Note_on_c, 0, 79, 0
2, 82560, Note_on_c, 0, 61, 0
2, 82566, Note_on_c, 0, 62, 93
2, 82570, Note_on_c, 0, 77, 113
2, 82578, Note_on_c, 0, 74, 93
2, 82650, Note_on_c, 0, 62, 0
2, 82706, Note_on_c, 0, 65, 90
2, 82750, Note_on_c, 0, 65, 0
2, 82854, Note_on_c, 0, 74, 0
2, 82857, Note_on_c, 0, 68, 106
2, 82872, Note_on_c, 0, 59, 82
2, 82872, Note_on_c, 0, 62, 90
2, 83070, Note_on_c, 0, 77, 0
2, 83080, Note_on_c, 0, 76, 70
2, 83122, Note_on_c, 0, 74, 88
2, 83124, Note_on_c, 0, 76, 0
2, 83172, Note_on_c, 0, 76, 105
2, 83188, Note_on_c, 0, 74, 0
2, 83196, Note_on_c, 0, 62, 0
2, 83246, Note_on_c, 0, 68, 0
2, 83250, Note_on_c, 0, 59, 0
2, 83450, Note_on_c, 0, 64, 98
2, 83450, Note_on_c, 0, 56, 67
2, 83458, Note_on_c, 0, 59, 69
2, 83662, Note_on_c, 0, 76, 0
2, 83662, Note_on_c, 0, 74, 79
2, 83698, Note_on_c, 0, 73, 78
2, 83700, Note_on_c, 0, 74, 0
2, 83754, Note_on_c, 0, 74, 102
2, 83768, Note_on_c, 0, 64, 0
2, 83776, Note_on_c, 0, 59, 0
2, 83796, Note_on_c, 0, 73, 0
2, 83834, Note_on_c, 0, 56, 0
2, 84050, Note_on_c, 0, 59, 83
2, 84058, Note_on_c, 0, 52, 76
2, 84061, Note_on_c, 0, 56, 59
2, 84238, Note_on_c, 0, 74, 0
2, 84242, Note_on_c, 0, 73, 67
2, 84290, Note_on_c, 0, 73, 0
2, 84290, Note_on_c, 0, 71, 88
2, 84344, Note_on_c, 0, 73, 80
2, 84347, Note_on_c, 0, 71, 0
2, 84447, Note_on_c, 0, 59, 0
2, 84466, Note_on_c, 0, 56, 0
2, 84478, Note_on_c, 0, 52, 0
2, 84654, Note_on_c, 0, 45, 61
2, 84660, Note_on_c, 0, 57, 56
2, 84670, Note_on_c, 0, 52, 60
2, 84814, Note_on_c, 0, 76, 62
2, 84820, Note_on_c, 0, 73, 0
2, 84970, Note_on_c, 0, 76, 0
2, 84972, Note_on_c, 0, 73, 62
2, 85060, Note_on_c, 0, 45, 0
2, 85070, Note_on_c, 0, 52, 0
2, 85092, Note_on_c, 0, 69, 60
2, 85094, Note_on_c, 0, 73, 0
2, 85144, Note_on_c, 0, 57, 0
2, 85238, Note_on_c, 0, 69, 0
2, 85238, Note_on_c, 0, 67, 72
2, 85348, Note_on_c, 0, 67, 0
2, 85392, Note_on_c, 0, 76, 57
2, 85514, Note_on_c, 0, 57, 75
2, 85526, Note_on_c, 0, 73, 59
2, 85538, Note_on_c, 0, 76, 0
2, 85578, Note_on_c, 0, 57, 0
2, 85610, Note_on_c, 0, 73, 0
2, 85658, Note_on_c, 0, 69, 49
2, 85658, Note_on_c, 0, 59, 69
2, 85710, Note_on_c, 0, 59, 0
2, 85738, Note_on_c, 0, 69, 0
2, 85780, Note_on_c, 0, 61, 93
2, 85784, Note_on_c, 0, 67, 60
2, 85834, Note_on_c, 0, 61, 0
2, 85878, Note_on_c, 0, 67, 0
2, 85938, Note_on_c, 0, 76, 52
2, 86080, Note_on_c, 0, 64, 84
2, 86086, Note_on_c, 0, 73, 56
2, 86092, Note_on_c, 0, 76, 0
2, 86132, Note_on_c, 0, 64, 0
2, 86226, Note_on_c, 0, 73, 0
2, 86234, Note_on_c, 0, 69, 46
2, 86328, Note_on_c, 0, 69, 0
2, 86370, Note_on_c, 0, 67, 56
2, 86376, Note_on_c, 0, 61, 75
2, 86428, Note_on_c, 0, 61, 0
2, 86474, Note_on_c, 0, 67, 0
2, 86528, Note_on_c, 0, 76, 53
2, 86656, Note_on_c, 0, 76, 0
2, 86658, Note_on_c, 0, 73, 56
2, 86664, Note_on_c, 0, 57, 51
2, 86724, Note_on_c, 0, 57, 0
2, 86774, Note_on_c, 0, 73, 0
2, 86806, Note_on_c, 0, 69, 44
2, 86940, Note_on_c, 0, 69, 0
2, 86940, Note_on_c, 0, 45, 79
2, 86960, Note_on_c, 0, 67, 60
2, 87042, Note_on_c, 0, 67, 0
2, 87104, Note_on_c, 0, 76, 55
2, 87218, Note_on_c, 0, 76, 0
2, 87228, Note_on_c, 0, 73, 56
2, 87240, Note_on_c, 0, 45, 0
2, 87360, Note_on_c, 0, 73, 0
2, 87360, Note_on_c, 0, 69, 65
2, 87508, Note_on_c, 0, 65, 77
2, 87510, Note_on_c, 0, 69, 0
2, 87588, Note_on_c, 0, 65, 0
2, 87640, Note_on_c, 0, 77, 78
2, 87644, Note_on_c, 0, 57, 84
2, 87770, Note_on_c, 0, 77, 0
2, 87778, Note_on_c, 0, 57, 0
2, 87788, Note_on_c, 0, 59, 59
2, 87792, Note_on_c, 0, 74, 64
2, 87872, Note_on_c, 0, 59, 0
2, 87892, Note_on_c, 0, 61, 93
2, 87910, Note_on_c, 0, 70, 69
2, 87926, Note_on_c, 0, 74, 0
2, 87968, Note_on_c, 0, 61, 0
2, 88042, Note_on_c, 0, 62, 106
2, 88048, Note_on_c, 0, 69, 64
2, 88050, Note_on_c, 0, 70, 0
2, 88130, Note_on_c, 0, 62, 0
2, 88190, Note_on_c, 0, 69, 0
2, 88204, Note_on_c, 0, 77, 79
2, 88342, Note_on_c, 0, 65, 84
2, 88345, Note_on_c, 0, 77, 0
2, 88356, Note_on_c, 0, 74, 79
2, 88406, Note_on_c, 0, 65, 0
2, 88478, Note_on_c, 0, 70, 70
2, 88502, Note_on_c, 0, 74, 0
2, 88628, Note_on_c, 0, 70, 0
2, 88628, Note_on_c, 0, 69, 69
2, 88631, Note_on_c, 0, 62, 92
2, 88672, Note_on_c, 0, 62, 0
2, 88778, Note_on_c, 0, 77, 77
2, 88780, Note_on_c, 0, 69, 0
2, 88916, Note_on_c, 0, 57, 56
2, 88921, Note_on_c, 0, 77, 0
2, 88924, Note_on_c, 0, 74, 75
2, 88990, Note_on_c, 0, 57, 0
2, 89040, Note_on_c, 0, 70, 70
2, 89052, Note_on_c, 0, 74, 0
2, 89194, Note_on_c, 0, 70, 0
2, 89194, Note_on_c, 0, 45, 83
2, 89197, Note_on_c, 0, 69, 72
2, 89340, Note_on_c, 0, 77, 84
2, 89344, Note_on_c, 0, 69, 0
2, 89474, Note_on_c, 0, 77, 0
2, 89476, Note_on_c, 0, 74, 90
2, 89532, Note_on_c, 0, 45, 0
2, 89616, Note_on_c, 0, 72, 88
2, 89628, Note_on_c, 0, 74, 0
2, 89754, Note_on_c, 0, 71, 102
2, 89760, Note_on_c, 0, 72, 0
2, 89886, Note_on_c, 0, 71, 0
2, 89886, Note_on_c, 0, 80, 85
2, 90028, Note_on_c, 0, 59, 97
2, 90030, Note_on_c, 0, 77, 85
2, 90046, Note_on_c, 0, 80, 0
2, 90142, Note_on_c, 0, 59, 0
2, 90158, Note_on_c, 0, 61, 103
2, 90164, Note_on_c, 0, 74, 86
2, 90170, Note_on_c, 0, 77, 0
2, 90246, Note_on_c, 0, 61, 0
2, 90296, Note_on_c, 0, 62, 115
2, 90299, Note_on_c, 0, 71, 98
2, 90304, Note_on_c, 0, 74, 0
2, 90382, Note_on_c, 0, 62, 0
2, 90426, Note_on_c, 0, 80, 88
2, 90470, Note_on_c, 0, 71, 0
2, 90582, Note_on_c, 0, 77, 85
2, 90584, Note_on_c, 0, 59, 100
2, 90614, Note_on_c, 0, 80, 0
2, 90710, Note_on_c, 0, 59, 0
2, 90716, Note_on_c, 0, 61, 106
2, 90722, Note_on_c, 0, 74, 94
2, 90742, Note_on_c, 0, 77, 0
2, 90826, Note_on_c, 0, 61, 0
2, 90858, Note_on_c, 0, 62, 110
2, 90870, Note_on_c, 0, 71, 106
2, 90906, Note_on_c, 0, 74, 0
2, 90944, Note_on_c, 0, 62, 0
2, 91004, Note_on_c, 0, 80, 85
2, 91036, Note_on_c, 0, 71, 0
2, 91150, Note_on_c, 0, 59, 109
2, 91158, Note_on_c, 0, 77, 90
2, 91188, Note_on_c, 0, 59, 0
2, 91196, Note_on_c, 0, 80, 0
2, 91294, Note_on_c, 0, 74, 90
2, 91310, Note_on_c, 0, 77, 0
2, 91440, Note_on_c, 0, 52, 120
2, 91443, Note_on_c, 0, 71, 102
2, 91446, Note_on_c, 0, 74, 0
2, 91504, Note_on_c, 0, 52, 0
2, 91568, Note_on_c, 0, 80, 90
2, 91584, Note_on_c, 0, 71, 0
2, 91712, Note_on_c, 0, 77, 88
2, 91722, Note_on_c, 0, 56, 98
2, 91736, Note_on_c, 0, 80, 0
2, 91764, Note_on_c, 0, 56, 0
2, 91840, Note_on_c, 0, 74, 101
2, 91864, Note_on_c, 0, 77, 0
2, 91950, Note_on_c, 0, 74, 0
2, 91992, Note_on_c, 0, 73, 88
2, 92004, Note_on_c, 0, 57, 95
2, 92142, Note_on_c, 0, 81, 87
2, 92160, Note_on_c, 0, 73, 0
2, 92212, Note_on_c, 0, 57, 0
2, 92274, Note_on_c, 0, 45, 100
2, 92280, Note_on_c, 0, 76, 86
2, 92298, Note_on_c, 0, 81, 0
2, 92382, Note_on_c, 0, 47, 100
2, 92402, Note_on_c, 0, 73, 85
2, 92408, Note_on_c, 0, 45, 0
2, 92411, Note_on_c, 0, 76, 0
2, 92502, Note_on_c, 0, 47, 0
2, 92538, Note_on_c, 0, 49, 116
2, 92541, Note_on_c, 0, 69, 84
2, 92548, Note_on_c, 0, 73, 0
2, 92622, Note_on_c, 0, 49, 0
2, 92684, Note_on_c, 0, 73, 88
2, 92700, Note_on_c, 0, 69, 0
2, 92828, Note_on_c, 0, 73, 0
2, 92834, Note_on_c, 0, 71, 105
2, 92836, Note_on_c, 0, 52, 114
2, 92874, Note_on_c, 0, 52, 0
2, 92952, Note_on_c, 0, 74, 102
2, 92960, Note_on_c, 0, 71, 0
2, 93100, Note_on_c, 0, 74, 0
2, 93110, Note_on_c, 0, 73, 91
2, 93122, Note_on_c, 0, 57, 84
2, 93248, Note_on_c, 0, 57, 0
2, 93251, Note_on_c, 0, 76, 85
2, 93278, Note_on_c, 0, 73, 0
2, 93281, Control_c, 0, 64, 127
2, 93314, Control_c, 0, 64, 0
2, 93376, Note_on_c, 0, 73, 59
2, 93394, Note_on_c, 0, 45, 88
2, 93410, Note_on_c, 0, 76, 0
2, 93498, Note_on_c, 0, 47, 93
2, 93520, Note_on_c, 0, 69, 68
2, 93526, Note_on_c, 0, 45, 0
2, 93538, Note_on_c, 0, 73, 0
2, 93638, Note_on_c, 0, 69, 0
2, 93640, Note_on_c, 0, 49, 103
2, 93642, Note_on_c, 0, 47, 0
2, 93656, Note_on_c, 0, 64, 88
2, 93730, Note_on_c, 0, 49, 0
2, 93784, Note_on_c, 0, 67, 90
2, 93790, Note_on_c, 0, 64, 0
2, 93934, Note_on_c, 0, 65, 78
2, 93936, Note_on_c, 0, 50, 90
2, 93938, Note_on_c, 0, 67, 0
2, 93980, Note_on_c, 0, 50, 0
2, 94050, Note_on_c, 0, 65, 0
2, 94060, Note_on_c, 0, 69, 72
2, 94206, Note_on_c, 0, 67, 91
2, 94224, Note_on_c, 0, 52, 100
2, 94227, Note_on_c, 0, 69, 0
2, 94342, Note_on_c, 0, 52, 0
2, 94352, Note_on_c, 0, 70, 71
2, 94378, Note_on_c, 0, 67, 0
2, 94486, Note_on_c, 0, 67, 63
2, 94494, Note_on_c, 0, 45, 87
2, 94514, Note_on_c, 0, 70, 0
2, 94616, Note_on_c, 0, 67, 0
2, 94618, Note_on_c, 0, 45, 0
2, 94624, Note_on_c, 0, 64, 85
2, 94626, Note_on_c, 0, 49, 93
2, 94722, Note_on_c, 0, 64, 0
2, 94746, Note_on_c, 0, 49, 0
2, 94752, Note_on_c, 0, 61, 85
2, 94770, Note_on_c, 0, 52, 116
2, 94866, Note_on_c, 0, 52, 0
2, 94888, Note_on_c, 0, 61, 0
2, 94891, Note_on_c, 0, 64, 95
2, 95048, Note_on_c, 0, 62, 93
2, 95051, Note_on_c, 0, 53, 125
2, 95061, Note_on_c, 0, 64, 0
2, 95092, Note_on_c, 0, 53, 0
2, 95174, Note_on_c, 0, 65, 95
2, 95186, Note_on_c, 0, 62, 0
2, 95332, Note_on_c, 0, 64, 103
2, 95335, Note_on_c, 0, 55, 107
2, 95382, Note_on_c, 0, 65, 0
2, 95464, Note_on_c, 0, 67, 97
2, 95492, Note_on_c, 0, 64, 0
2, 95496, Note_on_c, 0, 55, 0
2, 95590, Note_on_c, 0, 64, 79
2, 95620, Note_on_c, 0, 45, 88
2, 95632, Note_on_c, 0, 67, 0
2, 95720, Note_on_c, 0, 61, 95
2, 95732, Note_on_c, 0, 47, 93
2, 95744, Note_on_c, 0, 64, 0
2, 95756, Note_on_c, 0, 45, 0
2, 95826, Note_on_c, 0, 47, 0
2, 95870, Note_on_c, 0, 57, 95
2, 95873, Note_on_c, 0, 49, 100
2, 95908, Note_on_c, 0, 61, 0
2, 95922, Note_on_c, 0, 49, 0
2, 96004, Note_on_c, 0, 57, 0
2, 96006, Note_on_c, 0, 67, 92
2, 96140, Note_on_c, 0, 45, 99
2, 96142, Note_on_c, 0, 65, 82
2, 96178, Note_on_c, 0, 67, 0
2, 96210, Note_on_c, 0, 45, 0
2, 96284, Note_on_c, 0, 64, 86
2, 96292, Note_on_c, 0, 65, 0
2, 96436, Note_on_c, 0, 65, 91
2, 96444, Note_on_c, 0, 64, 0
2, 96454, Note_on_c, 0, 50, 70
2, 96548, Note_on_c, 0, 50, 0
2, 96570, Note_on_c, 0, 62, 85
2, 96570, Note_on_c, 0, 53, 107
2, 96600, Note_on_c, 0, 65, 0
2, 96684, Note_on_c, 0, 53, 0
2, 96700, Note_on_c, 0, 62, 0
2, 96718, Note_on_c, 0, 64, 86
2, 96724, Note_on_c, 0, 52, 87
2, 96838, Note_on_c, 0, 52, 0
2, 96848, Note_on_c, 0, 64, 0
2, 96850, Note_on_c, 0, 65, 86
2, 96853, Note_on_c, 0, 50, 72
2, 96930, Note_on_c, 0, 50, 0
2, 96968, Note_on_c, 0, 49, 80
2, 96974, Note_on_c, 0, 67, 92
2, 96992, Note_on_c, 0, 65, 0
2, 97078, Note_on_c, 0, 49, 0
2, 97100, Note_on_c, 0, 47, 76
2, 97106, Note_on_c, 0, 69, 79
2, 97204, Note_on_c, 0, 47, 0
2, 97216, Note_on_c, 0, 67, 0
2, 97232, Note_on_c, 0, 45, 76
2, 97235, Note_on_c, 0, 71, 103
2, 97252, Note_on_c, 0, 69, 0
2, 97356, Note_on_c, 0, 73, 95
2, 97358, Note_on_c, 0, 43, 85
2, 97372, Note_on_c, 0, 45, 0
2, 97378, Note_on_c, 0, 71, 0
2, 97474, Note_on_c, 0, 43, 0
2, 97500, Note_on_c, 0, 41, 103
2, 97502, Note_on_c, 0, 74, 107
2, 97524, Note_on_c, 0, 73, 0
2, 97630, Note_on_c, 0, 45, 101
2, 97633, Note_on_c, 0, 73, 88
2, 97640, Note_on_c, 0, 41, 0
2, 97666, Note_on_c, 0, 74, 0
2, 97750, Note_on_c, 0, 45, 0
2, 97762, Note_on_c, 0, 71, 110
2, 97768, Note_on_c, 0, 47, 102
2, 97792, Note_on_c, 0, 73, 0
2, 97876, Note_on_c, 0, 69, 90
2, 97884, Note_on_c, 0, 71, 0
2, 97896, Note_on_c, 0, 49, 102
2, 97910, Note_on_c, 0, 47, 0
2, 98036, Note_on_c, 0, 81, 116
2, 98042, Note_on_c, 0, 50, 108
2, 98046, Note_on_c, 0, 69, 0
2, 98060, Note_on_c, 0, 49, 0
2, 98150, Note_on_c, 0, 81, 0
2, 98166, Note_on_c, 0, 50, 0
2, 98166, Note_on_c, 0, 52, 111
2, 98288, Note_on_c, 0, 52, 0
2, 98300, Note_on_c, 0, 69, 80
2, 98302, Note_on_c, 0, 74, 109
2, 98316, Note_on_c, 0, 53, 118
2, 98376, Note_on_c, 0, 69, 0
2, 98412, Note_on_c, 0, 74, 0
2, 98440, Note_on_c, 0, 53, 0
2, 98460, Note_on_c, 0, 55, 106
2, 98602, Note_on_c, 0, 55, 0
2, 98620, Note_on_c, 0, 77, 116
2, 98622, Note_on_c, 0, 69, 86
2, 98626, Note_on_c, 0, 74, 102
2, 98636, Note_on_c, 0, 57, 98
2, 99090, Control_c, 0, 64, 127
2, 99147, Note_on_c, 0, 69, 0
2, 99234, Note_on_c, 0, 74, 0
2, 99254, Note_on_c, 0, 67, 107
2, 99254, Note_on_c, 0, 73, 90
2, 99260, Note_on_c, 0, 45, 100
2, 99262, Note_on_c, 0, 76, 105
2, 99276, Note_on_c, 0, 57, 0
2, 99346, Note_on_c, 0, 77, 0
2, 99382, Control_c, 0, 64, 0
2, 99674, Control_c, 0, 64, 127
2, 99702, Note_on_c, 0, 67, 0
2, 99702, Note_on_c, 0, 76, 0
2, 99742, Note_on_c, 0, 73, 0
2, 99866, Note_on_c, 0, 65, 106
2, 99866, Note_on_c, 0, 46, 95
2, 99884, Note_on_c, 0, 45, 0
2, 99968, Control_c, 0, 64, 0
2, 100044, Note_on_c, 0, 74, 110
2, 100250, Note_on_c, 0, 68, 103
2, 100316, Note_on_c, 0, 65, 0
2, 100382, Control_c, 0, 64, 127
2, 100416, Note_on_c, 0, 74, 0
2, 100634, Note_on_c, 0, 46, 0
2, 100812, Control_c, 0, 64, 0
2, 101012, Note_on_c, 0, 70, 87
2, 101080, Note_on_c, 0, 68, 0
2, 101190, Note_on_c, 0, 69, 92
2, 101200, Note_on_c, 0, 49, 100
2, 101250, Note_on_c, 0, 70, 0
2, 101340, Note_on_c, 0, 67, 102
2, 101374, Note_on_c, 0, 69, 0
2, 101484, Note_on_c, 0, 49, 0
2, 101502, Note_on_c, 0, 65, 102
2, 101504, Note_on_c, 0, 50, 107
2, 101512, Note_on_c, 0, 67, 0
2, 101644, Note_on_c, 0, 69, 101
2, 101666, Note_on_c, 0, 65, 0
2, 101712, Note_on_c, 0, 50, 0
2, 101806, Note_on_c, 0, 74, 107
2, 101810, Note_on_c, 0, 41, 109
2, 101844, Note_on_c, 0, 69, 0
2, 101938, Note_on_c, 0, 65, 105
2, 102052, Note_on_c, 0, 65, 0
2, 102052, Note_on_c, 0, 41, 0
2, 102094, Note_on_c, 0, 64, 106
2, 102100, Note_on_c, 0, 43, 109
2, 102196, Note_on_c, 0, 43, 0
2, 102198, Note_on_c, 0, 74, 0
2, 102350, Note_on_c, 0, 64, 0
2, 102398, Note_on_c, 0, 73, 94
2, 102398, Note_on_c, 0, 45, 107
2, 102401, Note_on_c, 0, 67, 98
2, 102404, Note_on_c, 0, 69, 77
2, 102462, Note_on_c, 0, 45, 0
2, 102538, Note_on_c, 0, 67, 0
2, 102632, Note_on_c, 0, 69, 0
2, 102646, Note_on_c, 0, 73, 0
2, 102736, Note_on_c, 0, 65, 76
2, 102739, Note_on_c, 0, 74, 102
2, 102742, Note_on_c, 0, 62, 95
2, 102742, Note_on_c, 0, 69, 63
2, 102744, Note_on_c, 0, 38, 108
2, 103008, Control_c, 0, 64, 127
2, 103042, Note_on_c, 0, 38, 0
2, 103088, Note_on_c, 0, 50, 97
2, 103130, Note_on_c, 0, 62, 0
2, 103136, Note_on_c, 0, 65, 0
2, 103162, Note_on_c, 0, 69, 0
2, 103170, Note_on_c, 0, 74, 0
2, 103192, Control_c, 0, 64, 0
2, 103217, Note_on_c, 0, 50, 0
2, 103228, Note_on_c, 0, 52, 103
2, 103348, Note_on_c, 0, 52, 0
2, 103356, Note_on_c, 0, 53, 118
2, 103472, Note_on_c, 0, 53, 0
2, 103518, Note_on_c, 0, 55, 80
2, 103590, Note_on_c, 0, 55, 0
2, 103634, Note_on_c, 0, 69, 82
2, 103652, Note_on_c, 0, 57, 71
2, 103700, Note_on_c, 0, 69, 0
2, 103730, Note_on_c, 0, 57, 0
2, 103790, Note_on_c, 0, 59, 59
2, 103856, Note_on_c, 0, 59, 0
2, 103936, Note_on_c, 0, 69, 76
2, 103946, Note_on_c, 0, 61, 57
2, 103952, Note_on_c, 0, 64, 59
2, 103988, Note_on_c, 0, 69, 0
2, 104004, Note_on_c, 0, 70, 65
2, 104016, Note_on_c, 0, 61, 0
2, 104019, Note_on_c, 0, 64, 0
2, 104076, Note_on_c, 0, 69, 38
2, 104136, Note_on_c, 0, 70, 0
2, 104168, Note_on_c, 0, 69, 0
2, 104170, Note_on_c, 0, 68, 57
2, 104230, Note_on_c, 0, 57, 53
2, 104234, Note_on_c, 0, 69, 74
2, 104236, Note_on_c, 0, 68, 0
2, 104294, Note_on_c, 0, 57, 0
2, 104372, Note_on_c, 0, 69, 0
2, 104522, Note_on_c, 0, 62, 47
2, 104522, Note_on_c, 0, 69, 63
2, 104532, Note_on_c, 0, 65, 38
2, 104574, Note_on_c, 0, 69, 0
2, 104580, Note_on_c, 0, 62, 0
2, 104584, Note_on_c, 0, 70, 61
2, 104598, Note_on_c, 0, 65, 0
2, 104636, Note_on_c, 0, 69, 59
2, 104658, Note_on_c, 0, 70, 0
2, 104734, Note_on_c, 0, 69, 0
2, 104734, Note_on_c, 0, 68, 56
2, 104790, Note_on_c, 0, 68, 0
2, 104824, Note_on_c, 0, 69, 53
2, 104846, Note_on_c, 0, 57, 36
2, 104916, Note_on_c, 0, 57, 0
2, 105116, Note_on_c, 0, 64, 67
2, 105122, Note_on_c, 0, 61, 53
2, 105238, Note_on_c, 0, 61, 0
2, 105260, Note_on_c, 0, 71, 86
2, 105284, Note_on_c, 0, 69, 0
2, 105316, Note_on_c, 0, 71, 0
2, 105326, Note_on_c, 0, 64, 0
2, 105394, Note_on_c, 0, 73, 78
2, 105410, Note_on_c, 0, 57, 51
2, 105448, Note_on_c, 0, 73, 0
2, 105516, Note_on_c, 0, 57, 0
2, 105538, Note_on_c, 0, 74, 84
2, 105552, Note_on_c, 0, 59, 49
2, 105578, Note_on_c, 0, 74, 0
2, 105624, Note_on_c, 0, 59, 0
2, 105678, Note_on_c, 0, 61, 52
2, 105696, Note_on_c, 0, 76, 77
2, 105820, Note_on_c, 0, 61, 0
2, 105846, Note_on_c, 0, 62, 59
2, 105910, Note_on_c, 0, 62, 0
2, 105958, Note_on_c, 0, 76, 0
2, 105988, Note_on_c, 0, 69, 45
2, 106000, Note_on_c, 0, 64, 47
2, 106074, Note_on_c, 0, 64, 0
2, 106084, Note_on_c, 0, 69, 0
2, 106126, Note_on_c, 0, 61, 48
2, 106196, Note_on_c, 0, 61, 0
2, 106290, Note_on_c, 0, 69, 74
2, 106293, Note_on_c, 0, 65, 52
2, 106310, Note_on_c, 0, 62, 52
2, 106338, Note_on_c, 0, 69, 0
2, 106356, Note_on_c, 0, 70, 52
2, 106368, Note_on_c, 0, 62, 0
2, 106372, Note_on_c, 0, 65, 0
2, 106394, Note_on_c, 0, 69, 70
2, 106436, Note_on_c, 0, 70, 0
2, 106504, Note_on_c, 0, 68, 56
2, 106510, Note_on_c, 0, 69, 0
2, 106570, Note_on_c, 0, 68, 0
2, 106580, Note_on_c, 0, 69, 75
2, 106584, Note_on_c, 0, 57, 42
2, 106656, Note_on_c, 0, 57, 0
2, 106724, Note_on_c, 0, 69, 0
2, 106866, Note_on_c, 0, 61, 56
2, 106876, Note_on_c, 0, 64, 52
2, 106879, Note_on_c, 0, 69, 55
2, 106930, Note_on_c, 0, 70, 61
2, 106933, Note_on_c, 0, 61, 0
2, 106946, Note_on_c, 0, 64, 0
2, 106946, Note_on_c, 0, 69, 0
2, 106992, Note_on_c, 0, 70, 0
2, 107020, Note_on_c, 0, 69, 36
2, 107072, Note_on_c, 0, 68, 55
2, 107098, Note_on_c, 0, 69, 0
2, 107148, Note_on_c, 0, 68, 0
2, 107168, Note_on_c, 0, 69, 53
2, 107174, Note_on_c, 0, 57, 45
2, 107236, Note_on_c, 0, 57, 0
2, 107452, Note_on_c, 0, 62, 61
2, 107464, Note_on_c, 0, 65, 57
2, 107588, Note_on_c, 0, 62, 0
2, 107596, Note_on_c, 0, 73, 71
2, 107600, Note_on_c, 0, 65, 0
2, 107602, Note_on_c, 0, 67, 64
2, 107622, Note_on_c, 0, 69, 0
2, 107690, Note_on_c, 0, 73, 0
2, 107702, Note_on_c, 0, 67, 0
2, 107736, Note_on_c, 0, 74, 83
2, 107760, Note_on_c, 0, 65, 67
2, 107782, Note_on_c, 0, 74, 0
2, 107810, Note_on_c, 0, 65, 0
2, 107876, Note_on_c, 0, 76, 87
2, 107876, Note_on_c, 0, 64, 65
2, 107926, Note_on_c, 0, 76, 0
2, 107934, Note_on_c, 0, 64, 0
2, 108036, Note_on_c, 0, 77, 80
2, 108036, Note_on_c, 0, 62, 54
2, 108136, Note_on_c, 0, 62, 0
2, 108186, Note_on_c, 0, 64, 57
2, 108254, Note_on_c, 0, 64, 0
2, 108300, Note_on_c, 0, 77, 0
2, 108318, Note_on_c, 0, 65, 51
2, 108330, Note_on_c, 0, 69, 48
2, 108386, Note_on_c, 0, 65, 0
2, 108414, Note_on_c, 0, 69, 0
2, 108456, Note_on_c, 0, 62, 48
2, 108522, Note_on_c, 0, 62, 0
2, 108620, Note_on_c, 0, 67, 63
2, 108623, Note_on_c, 0, 69, 77
2, 108642, Note_on_c, 0, 64, 64
2, 108670, Note_on_c, 0, 69, 0
2, 108686, Note_on_c, 0, 70, 68
2, 108689, Note_on_c, 0, 64, 0
2, 108712, Note_on_c, 0, 67, 0
2, 108742, Note_on_c, 0, 69, 48
2, 108796, Note_on_c, 0, 70, 0
2, 108844, Note_on_c, 0, 68, 70
2, 108860, Note_on_c, 0, 69, 0
2, 108908, Note_on_c, 0, 57, 57
2, 108920, Note_on_c, 0, 69, 78
2, 108936, Note_on_c, 0, 68, 0
2, 108970, Note_on_c, 0, 57, 0
2, 109078, Note_on_c, 0, 69, 0
2, 109196, Note_on_c, 0, 65, 60
2, 109210, Note_on_c, 0, 69, 64
2, 109240, Note_on_c, 0, 62, 26
2, 109258, Note_on_c, 0, 70, 74
2, 109260, Note_on_c, 0, 69, 0
2, 109262, Note_on_c, 0, 65, 0
2, 109308, Note_on_c, 0, 62, 0
2, 109316, Note_on_c, 0, 69, 74
2, 109334, Note_on_c, 0, 70, 0
2, 109402, Note_on_c, 0, 69, 0
2, 109402, Note_on_c, 0, 68, 76
2, 109452, Note_on_c, 0, 68, 0
2, 109496, Note_on_c, 0, 69, 62
2, 109506, Note_on_c, 0, 57, 69
2, 109560, Note_on_c, 0, 57, 0
2, 109770, Note_on_c, 0, 64, 78
2, 109796, Note_on_c, 0, 61, 55
2, 109840, Note_on_c, 0, 64, 0
2, 109896, Note_on_c, 0, 61, 0
2, 109906, Note_on_c, 0, 73, 74
2, 109926, Note_on_c, 0, 69, 0
2, 109926, Note_on_c, 0, 62, 79
2, 109996, Note_on_c, 0, 62, 0
2, 109996, Note_on_c, 0, 73, 0
2, 110040, Note_on_c, 0, 76, 79
2, 110048, Note_on_c, 0, 61, 71
2, 110086, Note_on_c, 0, 76, 0
2, 110148, Note_on_c, 0, 61, 0
2, 110176, Note_on_c, 0, 77, 76
2, 110182, Note_on_c, 0, 59, 68
2, 110222, Note_on_c, 0, 77, 0
2, 110262, Note_on_c, 0, 59, 0
2, 110340, Note_on_c, 0, 79, 77
2, 110343, Note_on_c, 0, 57, 59
2, 110446, Note_on_c, 0, 57, 0
2, 110488, Note_on_c, 0, 55, 60
2, 110614, Note_on_c, 0, 55, 0
2, 110638, Note_on_c, 0, 69, 55
2, 110656, Note_on_c, 0, 79, 0
2, 110658, Note_on_c, 0, 53, 48
2, 110760, Note_on_c, 0, 53, 0
2, 110804, Note_on_c, 0, 52, 57
2, 110892, Note_on_c, 0, 52, 0
2, 110942, Note_on_c, 0, 50, 61
2, 111028, Control_c, 0, 64, 127
2, 111064, Note_on_c, 0, 50, 0
2, 111096, Note_on_c, 0, 62, 54
2, 111110, Note_on_c, 0, 79, 91
2, 111118, Note_on_c, 0, 69, 0
2, 111166, Control_c, 0, 64, 0
2, 111168, Note_on_c, 0, 62, 0
2, 111256, Note_on_c, 0, 79, 0
2, 111276, Note_on_c, 0, 64, 61
2, 111279, Note_on_c, 0, 77, 76
2, 111338, Note_on_c, 0, 64, 0
2, 111402, Note_on_c, 0, 76, 64
2, 111410, Note_on_c, 0, 77, 0
2, 111416, Note_on_c, 0, 65, 48
2, 111452, Note_on_c, 0, 76, 0
2, 111480, Note_on_c, 0, 74, 68
2, 111502, Note_on_c, 0, 65, 0
2, 111554, Note_on_c, 0, 74, 0
2, 111554, Note_on_c, 0, 82, 72
2, 111560, Note_on_c, 0, 55, 68
2, 111632, Note_on_c, 0, 55, 0
2, 111690, Control_c, 0, 64, 127
2, 111702, Note_on_c, 0, 65, 64
2, 111734, Note_on_c, 0, 82, 0
2, 111768, Note_on_c, 0, 65, 0
2, 111856, Note_on_c, 0, 64, 64
2, 111862, Note_on_c, 0, 67, 74
2, 111904, Control_c, 0, 64, 0
2, 111928, Note_on_c, 0, 64, 0
2, 111984, Note_on_c, 0, 62, 76
2, 112030, Note_on_c, 0, 62, 0
2, 112136, Note_on_c, 0, 48, 93
2, 112254, Note_on_c, 0, 48, 0
2, 112276, Note_on_c, 0, 77, 95
2, 112292, Note_on_c, 0, 60, 77
2, 112295, Note_on_c, 0, 67, 0
2, 112402, Note_on_c, 0, 60, 0
2, 112424, Note_on_c, 0, 76, 85
2, 112442, Note_on_c, 0, 62, 75
2, 112444, Note_on_c, 0, 77, 0
2, 112500, Note_on_c, 0, 62, 0
2, 112574, Note_on_c, 0, 74, 79
2, 112574, Note_on_c, 0, 64, 70
2, 112580, Note_on_c, 0, 76, 0
2, 112634, Note_on_c, 0, 74, 0
2, 112644, Note_on_c, 0, 72, 68
2, 112646, Note_on_c, 0, 64, 0
2, 112696, Note_on_c, 0, 72, 0
2, 112712, Note_on_c, 0, 53, 100
2, 112720, Note_on_c, 0, 81, 105
2, 112772, Note_on_c, 0, 53, 0
2, 112828, Control_c, 0, 64, 127
2, 112856, Note_on_c, 0, 63, 84
2, 112858, Note_on_c, 0, 81, 0
2, 112922, Note_on_c, 0, 63, 0
2, 112980, Control_c, 0, 64, 0
2, 112994, Note_on_c, 0, 65, 86
2, 113018, Note_on_c, 0, 62, 76
2, 113088, Note_on_c, 0, 62, 0
2, 113144, Note_on_c, 0, 60, 70
2, 113200, Note_on_c, 0, 60, 0
2, 113294, Note_on_c, 0, 46, 90
2, 113418, Note_on_c, 0, 46, 0
2, 113428, Note_on_c, 0, 75, 94
2, 113436, Note_on_c, 0, 65, 0
2, 113440, Note_on_c, 0, 58, 71
2, 113540, Note_on_c, 0, 58, 0
2, 113572, Note_on_c, 0, 74, 102
2, 113582, Note_on_c, 0, 75, 0
2, 113600, Note_on_c, 0, 60, 72
2, 113676, Note_on_c, 0, 60, 0
2, 113702, Note_on_c, 0, 72, 82
2, 113730, Note_on_c, 0, 74, 0
2, 113748, Note_on_c, 0, 62, 69
2, 113774, Note_on_c, 0, 70, 75
2, 113828, Note_on_c, 0, 70, 0
2, 113832, Note_on_c, 0, 72, 0
2, 113854, Note_on_c, 0, 79, 107
2, 113870, Note_on_c, 0, 62, 0
2, 113886, Note_on_c, 0, 51, 77
2, 114012, Note_on_c, 0, 74, 101
2, 114066, Note_on_c, 0, 79, 0
2, 114164, Note_on_c, 0, 72, 79
2, 114172, Note_on_c, 0, 51, 0
2, 114175, Note_on_c, 0, 57, 72
2, 114188, Note_on_c, 0, 74, 0
2, 114280, Note_on_c, 0, 70, 71
2, 114302, Note_on_c, 0, 72, 0
2, 114376, Note_on_c, 0, 69, 76
2, 114414, Note_on_c, 0, 70, 0
2, 114428, Note_on_c, 0, 57, 0
2, 114442, Note_on_c, 0, 50, 72
2, 114462, Note_on_c, 0, 69, 0
2, 114468, Note_on_c, 0, 77, 83
2, 114630, Note_on_c, 0, 77, 0
2, 114636, Note_on_c, 0, 72, 68
2, 114734, Note_on_c, 0, 50, 0
2, 114742, Note_on_c, 0, 55, 71
2, 114750, Note_on_c, 0, 72, 0
2, 114750, Note_on_c, 0, 70, 68
2, 114876, Note_on_c, 0, 70, 0
2, 114880, Note_on_c, 0, 69, 55
2, 114970, Note_on_c, 0, 67, 90
2, 115010, Note_on_c, 0, 69, 0
2, 115018, Note_on_c, 0, 55, 0
2, 115020, Note_on_c, 0, 67, 0
2, 115028, Note_on_c, 0, 48, 68
2, 115044, Note_on_c, 0, 75, 75
2, 115194, Note_on_c, 0, 70, 65
2, 115220, Note_on_c, 0, 75, 0
2, 115306, Note_on_c, 0, 48, 0
2, 115314, Note_on_c, 0, 69, 64
2, 115336, Note_on_c, 0, 53, 91
2, 115344, Note_on_c, 0, 70, 0
2, 115422, Note_on_c, 0, 67, 72
2, 115430, Note_on_c, 0, 69, 0
2, 115524, Note_on_c, 0, 65, 72
2, 115558, Note_on_c, 0, 67, 0
2, 115576, Note_on_c, 0, 65, 0
2, 115618, Note_on_c, 0, 74, 87
2, 115628, Note_on_c, 0, 53, 0
2, 115632, Note_on_c, 0, 46, 49
2, 115742, Note_on_c, 0, 74, 0
2, 115752, Note_on_c, 0, 69, 63
2, 115886, Note_on_c, 0, 46, 0
2, 115904, Note_on_c, 0, 69, 0
2, 115908, Note_on_c, 0, 70, 59
2, 115930, Note_on_c, 0, 50, 51
2, 116054, Note_on_c, 0, 74, 57
2, 116070, Note_on_c, 0, 70, 0
2, 116182, Note_on_c, 0, 74, 0
2, 116192, Note_on_c, 0, 50, 0
2, 116200, Note_on_c, 0, 63, 74
2, 116203, Note_on_c, 0, 55, 54
2, 116342, Note_on_c, 0, 63, 0
2, 116354, Note_on_c, 0, 74, 64
2, 116470, Note_on_c, 0, 74, 0
2, 116476, Note_on_c, 0, 72, 68
2, 116488, Note_on_c, 0, 55, 0
2, 116506, Note_on_c, 0, 51, 52
2, 116628, Note_on_c, 0, 70, 62
2, 116658, Note_on_c, 0, 72, 0
2, 116778, Note_on_c, 0, 69, 62
2, 116798, Note_on_c, 0, 70, 0
2, 116802, Note_on_c, 0, 51, 0
2, 116816, Note_on_c, 0, 53, 80
2, 116920, Note_on_c, 0, 67, 75
2, 116926, Note_on_c, 0, 69, 0
2, 117078, Note_on_c, 0, 53, 0
2, 117092, Note_on_c, 0, 67, 0
2, 117094, Note_on_c, 0, 48, 53
2, 117100, Note_on_c, 0, 69, 62
2, 117244, Note_on_c, 0, 69, 0
2, 117250, Note_on_c, 0, 72, 63
2, 117364, Note_on_c, 0, 48, 0
2, 117384, Note_on_c, 0, 45, 44
2, 117396, Note_on_c, 0, 72, 0
2, 117414, Note_on_c, 0, 65, 39
2, 117504, Note_on_c, 0, 65, 0
2, 117504, Note_on_c, 0, 45, 0
2, 117564, Note_on_c, 0, 75, 45
2, 117658, Note_on_c, 0, 41, 56
2, 117716, Note_on_c, 0, 74, 60
2, 117718, Note_on_c, 0, 75, 0
2, 117740, Note_on_c, 0, 41, 0
2, 117852, Note_on_c, 0, 74, 0
2, 117874, Note_on_c, 0, 72, 47
2, 117988, Note_on_c, 0, 72, 0
2, 118030, Note_on_c, 0, 46, 36
2, 118036, Note_on_c, 0, 74, 60
2, 118332, Note_on_c, 0, 74, 0
2, 118354, Note_on_c, 0, 82, 63
2, 118357, Note_on_c, 0, 34, 38
2, 118362, Note_on_c, 0, 46, 0
2, 118554, Note_on_c, 0, 82, 0
2, 118650, Note_on_c, 0, 70, 49
2, 118670, Note_on_c, 0, 74, 62
2, 118734, Note_on_c, 0, 74, 0
2, 118734, Note_on_c, 0, 70, 0
2, 118810, Note_on_c, 0, 34, 0
2, 118952, Note_on_c, 0, 75, 57
2, 118962, Note_on_c, 0, 72, 55
2, 119024, Note_on_c, 0, 72, 0
2, 119090, Note_on_c, 0, 75, 0
2, 119290, Note_on_c, 0, 74, 64
2, 119290, Note_on_c, 0, 77, 63
2, 119594, Note_on_c, 0, 70, 49
2, 119700, Note_on_c, 0, 70, 0
2, 119870, Note_on_c, 0, 74, 0
2, 119918, Note_on_c, 0, 67, 41
2, 119921, Note_on_c, 0, 79, 90
2, 119926, Note_on_c, 0, 75, 44
2, 119952, Note_on_c, 0, 77, 0
2, 120014, Note_on_c, 0, 67, 0
2, 120242, Note_on_c, 0, 63, 46
2, 120296, Note_on_c, 0, 75, 0
2, 120340, Note_on_c, 0, 63, 0
2, 120548, Note_on_c, 0, 77, 86
2, 120548, Note_on_c, 0, 70, 37
2, 120551, Note_on_c, 0, 74, 59
2, 120568, Note_on_c, 0, 79, 0
2, 120798, Note_on_c, 0, 74, 0
2, 120850, Note_on_c, 0, 82, 51
2, 120868, Note_on_c, 0, 58, 52
2, 120908, Note_on_c, 0, 77, 0
2, 120946, Note_on_c, 0, 58, 0
2, 121192, Note_on_c, 0, 55, 42
2, 121192, Note_on_c, 0, 75, 37
2, 121286, Note_on_c, 0, 55, 0
2, 121478, Note_on_c, 0, 80, 65
2, 121496, Note_on_c, 0, 51, 62
2, 121522, Note_on_c, 0, 82, 0
2, 121525, Note_on_c, 0, 70, 0
2, 121552, Note_on_c, 0, 51, 0
2, 121564, Note_on_c, 0, 75, 0
2, 121622, Note_on_c, 0, 79, 92
2, 121630, Note_on_c, 0, 80, 0
2, 121664, Note_on_c, 0, 79, 0
2, 121774, Note_on_c, 0, 58, 47
2, 121792, Note_on_c, 0, 79, 61
2, 121795, Note_on_c, 0, 70, 48
2, 121810, Note_on_c, 0, 75, 38
2, 121932, Note_on_c, 0, 58, 0
2, 121946, Note_on_c, 0, 60, 57
2, 122064, Note_on_c, 0, 60, 0
2, 122080, Note_on_c, 0, 75, 0
2, 122110, Note_on_c, 0, 62, 48
2, 122114, Note_on_c, 0, 74, 38
2, 122134, Note_on_c, 0, 77, 55
2, 122178, Note_on_c, 0, 79, 0
2, 122224, Note_on_c, 0, 70, 0
2, 122224, Note_on_c, 0, 62, 0
2, 122262, Note_on_c, 0, 60, 52
2, 122358, Note_on_c, 0, 74, 0
2, 122380, Note_on_c, 0, 60, 0
2, 122384, Note_on_c, 0, 77, 0
2, 122386, Note_on_c, 0, 67, 60
2, 122406, Note_on_c, 0, 58, 38
2, 122564, Note_on_c, 0, 57, 53
2, 122566, Note_on_c, 0, 58, 0
2, 122640, Note_on_c, 0, 57, 0
2, 122690, Note_on_c, 0, 77, 87
2, 122702, Note_on_c, 0, 74, 76
2, 122714, Note_on_c, 0, 58, 56
2, 122754, Note_on_c, 0, 74, 0
2, 122816, Note_on_c, 0, 77, 0
2, 122846, Note_on_c, 0, 58, 0
2, 122850, Note_on_c, 0, 55, 82
2, 122998, Note_on_c, 0, 55, 0
2, 123010, Note_on_c, 0, 74, 76
2, 123012, Note_on_c, 0, 77, 79
2, 123016, Note_on_c, 0, 48, 75
2, 123156, Note_on_c, 0, 55, 82
2, 123164, Note_on_c, 0, 48, 0
2, 123270, Note_on_c, 0, 74, 0
2, 123270, Note_on_c, 0, 55, 0
2, 123304, Note_on_c, 0, 60, 76
2, 123304, Note_on_c, 0, 75, 49
2, 123307, Note_on_c, 0, 72, 41
2, 123316, Note_on_c, 0, 77, 0
2, 123446, Note_on_c, 0, 60, 0
2, 123454, Note_on_c, 0, 58, 62
2, 123476, Note_on_c, 0, 67, 0
2, 123588, Note_on_c, 0, 58, 0
2, 123604, Note_on_c, 0, 57, 61
2, 123610, Note_on_c, 0, 65, 52
2, 123624, Note_on_c, 0, 72, 0
2, 123624, Note_on_c, 0, 75, 0
2, 123708, Note_on_c, 0, 57, 0
2, 123758, Note_on_c, 0, 55, 70
2, 123842, Note_on_c, 0, 55, 0
2, 123888, Note_on_c, 0, 75, 80
2, 123904, Note_on_c, 0, 57, 61
2, 123906, Note_on_c, 0, 72, 63
2, 123964, Note_on_c, 0, 72, 0
2, 124016, Note_on_c, 0, 75, 0
2, 124044, Note_on_c, 0, 53, 92
2, 124049, Note_on_c, 0, 57, 0
2, 124174, Note_on_c, 0, 53, 0
2, 124190, Note_on_c, 0, 46, 63
2, 124190, Note_on_c, 0, 75, 71
2, 124208, Note_on_c, 0, 72, 59
2, 124354, Note_on_c, 0, 46, 0
2, 124354, Note_on_c, 0, 53, 100
2, 124452, Note_on_c, 0, 72, 0
2, 124478, Note_on_c, 0, 53, 0
2, 124488, Note_on_c, 0, 58, 48
2, 124522, Note_on_c, 0, 65, 0
2, 124524, Note_on_c, 0, 74, 76
2, 124534, Note_on_c, 0, 70, 36
2, 124550, Control_c, 0, 64, 127
2, 124556, Note_on_c, 0, 75, 0
2, 124618, Note_on_c, 0, 58, 0
2, 124644, Note_on_c, 0, 57, 55
2, 124674, Control_c, 0, 64, 0
2, 124748, Note_on_c, 0, 57, 0
2, 124782, Note_on_c, 0, 55, 75
2, 124784, Note_on_c, 0, 74, 0
2, 124784, Note_on_c, 0, 63, 69
2, 124852, Note_on_c, 0, 70, 0
2, 124920, Note_on_c, 0, 55, 0
2, 124942, Note_on_c, 0, 53, 87
2, 125046, Note_on_c, 0, 53, 0
2, 125066, Note_on_c, 0, 74, 84
2, 125076, Note_on_c, 0, 70, 61
2, 125092, Note_on_c, 0, 55, 68
2, 125176, Note_on_c, 0, 74, 0
2, 125200, Note_on_c, 0, 70, 0
2, 125210, Note_on_c, 0, 51, 69
2, 125214, Note_on_c, 0, 55, 0
2, 125362, Note_on_c, 0, 51, 0
2, 125372, Note_on_c, 0, 45, 63
2, 125376, Note_on_c, 0, 70, 69
2, 125378, Note_on_c, 0, 74, 80
2, 125522, Note_on_c, 0, 51, 72
2, 125524, Note_on_c, 0, 45, 0
2, 125638, Note_on_c, 0, 51, 0
2, 125646, Note_on_c, 0, 70, 0
2, 125660, Note_on_c, 0, 57, 67
2, 125688, Note_on_c, 0, 72, 53
2, 125706, Note_on_c, 0, 74, 0
2, 125706, Note_on_c, 0, 69, 37
2, 125808, Note_on_c, 0, 57, 0
2, 125818, Note_on_c, 0, 55, 74
2, 125882, Note_on_c, 0, 63, 0
2, 125900, Note_on_c, 0, 69, 0
2, 125900, Note_on_c, 0, 55, 0
2, 125946, Note_on_c, 0, 54, 80
2, 125960, Note_on_c, 0, 72, 0
2, 125972, Note_on_c, 0, 62, 69
2, 126102, Note_on_c, 0, 54, 0
2, 126124, Note_on_c, 0, 52, 83
2, 126238, Note_on_c, 0, 52, 0
2, 126248, Note_on_c, 0, 72, 54
2, 126258, Note_on_c, 0, 54, 79
2, 126264, Note_on_c, 0, 69, 39
2, 126344, Note_on_c, 0, 69, 0
2, 126366, Note_on_c, 0, 72, 0
2, 126384, Note_on_c, 0, 50, 86
2, 126398, Note_on_c, 0, 54, 0
2, 126426, Note_on_c, 0, 50, 0
2, 126552, Note_on_c, 0, 43, 65
2, 126558, Note_on_c, 0, 72, 75
2, 126560, Note_on_c, 0, 69, 55
2, 126696, Note_on_c, 0, 50, 77
2, 126742, Note_on_c, 0, 43, 0
2, 126786, Note_on_c, 0, 69, 0
2, 126810, Note_on_c, 0, 50, 0
2, 126834, Note_on_c, 0, 55, 71
2, 126860, Note_on_c, 0, 70, 72
2, 126874, Note_on_c, 0, 62, 0
2, 126877, Note_on_c, 0, 67, 47
2, 126902, Note_on_c, 0, 72, 0
2, 126930, Note_on_c, 0, 55, 0
2, 126930, Control_c, 0, 64, 127
2, 126946, Note_on_c, 0, 67, 0
2, 126984, Note_on_c, 0, 57, 65
2, 127012, Note_on_c, 0, 70, 0
2, 127058, Note_on_c, 0, 57, 0
2, 127140, Note_on_c, 0, 55, 68
2, 127146, Note_on_c, 0, 82, 109
2, 127162, Control_c, 0, 64, 0
2, 127268, Note_on_c, 0, 55, 0
2, 127272, Note_on_c, 0, 53, 95
2, 127308, Note_on_c, 0, 74, 83
2, 127412, Note_on_c, 0, 79, 97
2, 127416, Note_on_c, 0, 51, 68
2, 127420, Note_on_c, 0, 53, 0
2, 127460, Note_on_c, 0, 74, 0
2, 127550, Note_on_c, 0, 50, 80
2, 127562, Note_on_c, 0, 77, 84
2, 127574, Note_on_c, 0, 51, 0
2, 127590, Note_on_c, 0, 79, 0
2, 127696, Note_on_c, 0, 50, 0
2, 127710, Note_on_c, 0, 75, 88
2, 127714, Note_on_c, 0, 48, 67
2, 127718, Note_on_c, 0, 77, 0
2, 127868, Note_on_c, 0, 55, 72
2, 127886, Note_on_c, 0, 48, 0
2, 127982, Note_on_c, 0, 55, 0
2, 128014, Note_on_c, 0, 82, 0
2, 128017, Note_on_c, 0, 60, 63
2, 128026, Note_on_c, 0, 81, 99
2, 128138, Note_on_c, 0, 60, 0
2, 128150, Note_on_c, 0, 79, 115
2, 128162, Note_on_c, 0, 62, 61
2, 128192, Note_on_c, 0, 81, 0
2, 128220, Note_on_c, 0, 62, 0
2, 128290, Note_on_c, 0, 81, 84
2, 128296, Note_on_c, 0, 60, 63
2, 128307, Note_on_c, 0, 79, 0
2, 128398, Note_on_c, 0, 60, 0
2, 128424, Note_on_c, 0, 58, 56
2, 128434, Note_on_c, 0, 78, 100
2, 128464, Note_on_c, 0, 81, 0
2, 128540, Note_on_c, 0, 58, 0
2, 128554, Note_on_c, 0, 57, 56
2, 128574, Note_on_c, 0, 79, 105
2, 128608, Note_on_c, 0, 78, 0
2, 128682, Note_on_c, 0, 57, 0
2, 128700, Note_on_c, 0, 55, 49
2, 128702, Note_on_c, 0, 81, 99
2, 128724, Note_on_c, 0, 75, 0
2, 128728, Note_on_c, 0, 79, 0
2, 128836, Note_on_c, 0, 55, 0
2, 128862, Note_on_c, 0, 54, 63
2, 128892, Note_on_c, 0, 75, 67
2, 128930, Note_on_c, 0, 81, 0
2, 129006, Note_on_c, 0, 74, 77
2, 129014, Note_on_c, 0, 75, 0
2, 129048, Note_on_c, 0, 62, 57
2, 129072, Note_on_c, 0, 74, 0
2, 129080, Note_on_c, 0, 54, 0
2, 129083, Note_on_c, 0, 75, 76
2, 129137, Note_on_c, 0, 62, 0
2, 129162, Note_on_c, 0, 75, 0
2, 129168, Note_on_c, 0, 74, 79
2, 129172, Note_on_c, 0, 61, 62
2, 129226, Note_on_c, 0, 74, 0
2, 129230, Note_on_c, 0, 75, 78
2, 129296, Note_on_c, 0, 61, 0
2, 129306, Note_on_c, 0, 75, 0
2, 129308, Note_on_c, 0, 62, 68
2, 129312, Note_on_c, 0, 74, 77
2, 129362, Note_on_c, 0, 74, 0
2, 129378, Note_on_c, 0, 75, 78
2, 129416, Note_on_c, 0, 62, 0
2, 129432, Note_on_c, 0, 75, 0
2, 129436, Note_on_c, 0, 74, 88
2, 129446, Note_on_c, 0, 50, 79
2, 129502, Note_on_c, 0, 74, 0
2, 129512, Note_on_c, 0, 75, 87
2, 129566, Note_on_c, 0, 50, 0
2, 129566, Note_on_c, 0, 54, 78
2, 129586, Note_on_c, 0, 75, 0
2, 129586, Note_on_c, 0, 74, 75
2, 129636, Note_on_c, 0, 74, 0
2, 129648, Note_on_c, 0, 75, 87
2, 129654, Note_on_c, 0, 54, 0
2, 129706, Note_on_c, 0, 52, 72
2, 129716, Note_on_c, 0, 74, 65
2, 129719, Note_on_c, 0, 75, 0
2, 129778, Note_on_c, 0, 74, 0
2, 129786, Note_on_c, 0, 75, 78
2, 129820, Note_on_c, 0, 55, 84
2, 129834, Note_on_c, 0, 52, 0
2, 129852, Note_on_c, 0, 75, 0
2, 129862, Note_on_c, 0, 74, 64
2, 129930, Note_on_c, 0, 74, 0
2, 129930, Note_on_c, 0, 75, 77
2, 129946, Note_on_c, 0, 54, 103
2, 129970, Note_on_c, 0, 55, 0
2, 130000, Note_on_c, 0, 75, 0
2, 130014, Note_on_c, 0, 74, 71
2, 130070, Note_on_c, 0, 54, 0
2, 130078, Note_on_c, 0, 74, 0
2, 130088, Note_on_c, 0, 57, 78
2, 130100, Note_on_c, 0, 75, 69
2, 130162, Note_on_c, 0, 75, 0
2, 130168, Note_on_c, 0, 74, 64
2, 130210, Note_on_c, 0, 57, 0
2, 130242, Note_on_c, 0, 74, 0
2, 130245, Note_on_c, 0, 50, 87
2, 130260, Note_on_c, 0, 75, 51
2, 130318, Note_on_c, 0, 75, 0
2, 130320, Note_on_c, 0, 74, 77
2, 130354, Note_on_c, 0, 50, 0
2, 130380, Note_on_c, 0, 54, 87
2, 130404, Note_on_c, 0, 74, 0
2, 130416, Note_on_c, 0, 75, 54
2, 130480, Note_on_c, 0, 75, 0
2, 130490, Note_on_c, 0, 74, 65
2, 130524, Note_on_c, 0, 55, 101
2, 130527, Note_on_c, 0, 54, 0
2, 130568, Note_on_c, 0, 74, 0
2, 130571, Note_on_c, 0, 75, 61
2, 130636, Note_on_c, 0, 75, 0
2, 130646, Note_on_c, 0, 74, 76
2, 130660, Note_on_c, 0, 58, 79
2, 130668, Note_on_c, 0, 55, 0
2, 130706, Note_on_c, 0, 74, 0
2, 130722, Note_on_c, 0, 75, 63
2, 130786, Note_on_c, 0, 75, 0
2, 130786, Note_on_c, 0, 58, 0
2, 130792, Note_on_c, 0, 74, 67
2, 130808, Note_on_c, 0, 50, 98
2, 130860, Note_on_c, 0, 74, 0
2, 130872, Note_on_c, 0, 75, 65
2, 130938, Note_on_c, 0, 75, 0
2, 130940, Note_on_c, 0, 74, 71
2, 130952, Note_on_c, 0, 55, 92
2, 130974, Note_on_c, 0, 50, 0
2, 131008, Note_on_c, 0, 74, 0
2, 131022, Note_on_c, 0, 75, 67
2, 131086, Note_on_c, 0, 57, 92
2, 131089, Note_on_c, 0, 75, 0
2, 131096, Note_on_c, 0, 55, 0
2, 131096, Note_on_c, 0, 74, 62
2, 131164, Note_on_c, 0, 74, 0
2, 131180, Note_on_c, 0, 75, 56
2, 131220, Note_on_c, 0, 57, 0
2, 131228, Note_on_c, 0, 60, 85
2, 131236, Note_on_c, 0, 75, 0
2, 131248, Note_on_c, 0, 74, 62
2, 131310, Note_on_c, 0, 74, 0
2, 131324, Note_on_c, 0, 75, 51
2, 131372, Note_on_c, 0, 60, 0
2, 131372, Note_on_c, 0, 57, 74
2, 131384, Note_on_c, 0, 75, 0
2, 131394, Note_on_c, 0, 74, 63
2, 131450, Note_on_c, 0, 74, 0
2, 131460, Note_on_c, 0, 75, 57
2, 131476, Note_on_c, 0, 54, 86
2, 131508, Note_on_c, 0, 57, 0
2, 131514, Note_on_c, 0, 75, 0
2, 131526, Note_on_c, 0, 74, 76
2, 131576, Note_on_c, 0, 74, 0
2, 131595, Note_on_c, 0, 75, 60
2, 131612, Note_on_c, 0, 54, 0
2, 131620, Note_on_c, 0, 50, 78
2, 131650, Note_on_c, 0, 75, 0
2, 131653, Note_on_c, 0, 74, 68
2, 131716, Note_on_c, 0, 74, 0
2, 131728, Note_on_c, 0, 75, 67
2, 131738, Note_on_c, 0, 50, 0
2, 131748, Note_on_c, 0, 60, 75
2, 131784, Note_on_c, 0, 75, 0
2, 131800, Note_on_c, 0, 74, 67
2, 131852, Note_on_c, 0, 74, 0
2, 131860, Note_on_c, 0, 75, 64
2, 131880, Note_on_c, 0, 58, 74
2, 131894, Note_on_c, 0, 60, 0
2, 131922, Note_on_c, 0, 75, 0
2, 131978, Note_on_c, 0, 74, 19
2, 131982, Note_on_c, 0, 58, 0
2, 132012, Note_on_c, 0, 75, 57
2, 132012, Note_on_c, 0, 57, 72
2, 132028, Note_on_c, 0, 74, 0
2, 132076, Note_on_c, 0, 75, 0
2, 132124, Note_on_c, 0, 57, 0
2, 132140, Note_on_c, 0, 74, 25
2, 132164, Note_on_c, 0, 58, 62
2, 132278, Note_on_c, 0, 58, 0
2, 132330, Note_on_c, 0, 62, 65
2, 132424, Note_on_c, 0, 62, 0
2, 132450, Note_on_c, 0, 67, 55
2, 132456, Note_on_c, 0, 58, 56
2, 132468, Note_on_c, 0, 74, 0
2, 132634, Note_on_c, 0, 55, 52
2, 132636, Note_on_c, 0, 58, 0
2, 132698, Note_on_c, 0, 55, 0
2, 132746, Note_on_c, 0, 70, 65
2, 132766, Note_on_c, 0, 50, 60
2, 132780, Note_on_c, 0, 67, 0
2, 132910, Note_on_c, 0, 53, 87
2, 132918, Note_on_c, 0, 50, 0
2, 133014, Note_on_c, 0, 53, 0
2, 133044, Note_on_c, 0, 74, 67
2, 133060, Note_on_c, 0, 70, 0
2, 133076, Note_on_c, 0, 52, 69
2, 133136, Note_on_c, 0, 52, 0
2, 133186, Note_on_c, 0, 50, 71
2, 133326, Note_on_c, 0, 74, 0
2, 133340, Note_on_c, 0, 72, 71
2, 133343, Note_on_c, 0, 50, 0
2, 133352, Note_on_c, 0, 52, 72
2, 133490, Note_on_c, 0, 72, 0
2, 133504, Note_on_c, 0, 74, 70
2, 133532, Note_on_c, 0, 60, 63
2, 133564, Note_on_c, 0, 74, 0
2, 133586, Note_on_c, 0, 52, 0
2, 133586, Note_on_c, 0, 72, 63
2, 133642, Note_on_c, 0, 60, 0
2, 133656, Note_on_c, 0, 72, 0
2, 133666, Note_on_c, 0, 59, 65
2, 133669, Note_on_c, 0, 74, 62
2, 133728, Note_on_c, 0, 74, 0
2, 133740, Note_on_c, 0, 72, 60
2, 133750, Note_on_c, 0, 59, 0
2, 133794, Note_on_c, 0, 60, 76
2, 133812, Note_on_c, 0, 72, 0
2, 133824, Note_on_c, 0, 74, 61
2, 133876, Note_on_c, 0, 74, 0
2, 133880, Note_on_c, 0, 60, 0
2, 133890, Note_on_c, 0, 72, 60
2, 133920, Note_on_c, 0, 48, 72
2, 133958, Note_on_c, 0, 72, 0
2, 133968, Note_on_c, 0, 74, 62
2, 134021, Note_on_c, 0, 74, 0
2, 134034, Note_on_c, 0, 72, 61
2, 134052, Note_on_c, 0, 52, 70
2, 134060, Note_on_c, 0, 48, 0
2, 134106, Note_on_c, 0, 72, 0
2, 134114, Note_on_c, 0, 74, 61
2, 134146, Note_on_c, 0, 52, 0
2, 134170, Note_on_c, 0, 74, 0
2, 134172, Note_on_c, 0, 50, 63
2, 134186, Note_on_c, 0, 72, 55
2, 134260, Note_on_c, 0, 72, 0
2, 134268, Note_on_c, 0, 74, 57
2, 134290, Note_on_c, 0, 50, 0
2, 134290, Note_on_c, 0, 53, 82
2, 134322, Note_on_c, 0, 74, 0
2, 134340, Note_on_c, 0, 72, 54
2, 134416, Note_on_c, 0, 72, 0
2, 134428, Note_on_c, 0, 53, 0
2, 134434, Note_on_c, 0, 74, 53
2, 134450, Note_on_c, 0, 52, 79
2, 134496, Note_on_c, 0, 74, 0
2, 134504, Note_on_c, 0, 72, 54
2, 134546, Note_on_c, 0, 52, 0
2, 134578, Note_on_c, 0, 72, 0
2, 134592, Note_on_c, 0, 74, 48
2, 134598, Note_on_c, 0, 55, 74
2, 134658, Note_on_c, 0, 74, 0
2, 134672, Note_on_c, 0, 72, 47
2, 134702, Note_on_c, 0, 55, 0
2, 134748, Note_on_c, 0, 72, 0
2, 134751, Note_on_c, 0, 48, 68
2, 134770, Note_on_c, 0, 74, 49
2, 134834, Note_on_c, 0, 74, 0
2, 134846, Note_on_c, 0, 72, 53
2, 134888, Note_on_c, 0, 52, 94
2, 134890, Note_on_c, 0, 48, 0
2, 134920, Note_on_c, 0, 72, 0
2, 134934, Note_on_c, 0, 74, 62
2, 135018, Note_on_c, 0, 74, 0
2, 135021, Note_on_c, 0, 53, 120
2, 135032, Note_on_c, 0, 72, 68
2, 135035, Note_on_c, 0, 52, 0
2, 135098, Note_on_c, 0, 72, 0
2, 135108, Note_on_c, 0, 74, 76
2, 135156, Note_on_c, 0, 53, 0
2, 135166, Note_on_c, 0, 57, 71
2, 135180, Note_on_c, 0, 74, 0
2, 135198, Note_on_c, 0, 72, 67
2, 135260, Note_on_c, 0, 57, 0
2, 135268, Note_on_c, 0, 72, 0
2, 135288, Note_on_c, 0, 74, 80
2, 135290, Note_on_c, 0, 48, 86
2, 135352, Note_on_c, 0, 74, 0
2, 135380, Note_on_c, 0, 72, 71
2, 135422, Note_on_c, 0, 53, 118
2, 135442, Note_on_c, 0, 72, 0
2, 135442, Note_on_c, 0, 48, 0
2, 135462, Note_on_c, 0, 74, 80
2, 135534, Note_on_c, 0, 74, 0
2, 135556, Note_on_c, 0, 72, 75
2, 135564, Note_on_c, 0, 55, 98
2, 135572, Note_on_c, 0, 53, 0
2, 135630, Note_on_c, 0, 72, 0
2, 135642, Note_on_c, 0, 74, 84
2, 135700, Note_on_c, 0, 55, 0
2, 135700, Note_on_c, 0, 58, 85
2, 135718, Note_on_c, 0, 74, 0
2, 135728, Note_on_c, 0, 72, 70
2, 135804, Note_on_c, 0, 72, 0
2, 135816, Note_on_c, 0, 74, 79
2, 135840, Note_on_c, 0, 58, 0
2, 135852, Note_on_c, 0, 55, 98
2, 135894, Note_on_c, 0, 74, 0
2, 135914, Note_on_c, 0, 72, 74
2, 135970, Note_on_c, 0, 52, 100
2, 135976, Note_on_c, 0, 55, 0
2, 135979, Note_on_c, 0, 72, 0
2, 136002, Note_on_c, 0, 74, 80
2, 136068, Note_on_c, 0, 74, 0
2, 136094, Note_on_c, 0, 52, 0
2, 136108, Note_on_c, 0, 48, 80
2, 136108, Note_on_c, 0, 72, 68
2, 136170, Note_on_c, 0, 72, 0
2, 136186, Note_on_c, 0, 74, 77
2, 136230, Note_on_c, 0, 48, 0
2, 136233, Note_on_c, 0, 58, 85
2, 136244, Note_on_c, 0, 74, 0
2, 136260, Note_on_c, 0, 72, 63
2, 136338, Note_on_c, 0, 58, 0
2, 136341, Note_on_c, 0, 72, 0
2, 136344, Note_on_c, 0, 74, 77
2, 136368, Note_on_c, 0, 57, 76
2, 136420, Note_on_c, 0, 74, 0
2, 136422, Note_on_c, 0, 72, 63
2, 136492, Note_on_c, 0, 72, 0
2, 136496, Note_on_c, 0, 55, 82
2, 136498, Note_on_c, 0, 74, 85
2, 136512, Note_on_c, 0, 57, 0
2, 136562, Note_on_c, 0, 74, 0
2, 136576, Note_on_c, 0, 72, 59
2, 136628, Note_on_c, 0, 72, 0
2, 136628, Note_on_c, 0, 55, 0
2, 136656, Note_on_c, 0, 74, 68
2, 136664, Note_on_c, 0, 57, 85
2, 136680, Note_on_c, 0, 72, 103
2, 136712, Note_on_c, 0, 74, 0
2, 136778, Note_on_c, 0, 57, 0
2, 136810, Note_on_c, 0, 60, 79
2, 136938, Note_on_c, 0, 57, 71
2, 136940, Note_on_c, 0, 60, 0
2, 136950, Note_on_c, 0, 65, 107
2, 137026, Note_on_c, 0, 72, 0
2, 137066, Note_on_c, 0, 53, 101
2, 137088, Note_on_c, 0, 57, 0
2, 137180, Note_on_c, 0, 53, 0
2, 137204, Note_on_c, 0, 65, 0
2, 137220, Note_on_c, 0, 48, 63
2, 137230, Note_on_c, 0, 69, 105
2, 137384, Note_on_c, 0, 51, 85
2, 137390, Note_on_c, 0, 48, 0
2, 137502, Note_on_c, 0, 69, 0
2, 137512, Note_on_c, 0, 72, 110
2, 137518, Note_on_c, 0, 51, 0
2, 137524, Note_on_c, 0, 50, 87
2, 137652, Note_on_c, 0, 50, 0
2, 137662, Note_on_c, 0, 48, 84
2, 137754, Note_on_c, 0, 72, 0
2, 137802, Note_on_c, 0, 48, 0
2, 137802, Note_on_c, 0, 77, 114
2, 137814, Note_on_c, 0, 50, 95
2, 137932, Note_on_c, 0, 77, 0
2, 137934, Note_on_c, 0, 50, 0
2, 137952, Note_on_c, 0, 53, 100
2, 138088, Note_on_c, 0, 53, 0
2, 138094, Note_on_c, 0, 50, 86
2, 138096, Note_on_c, 0, 65, 113
2, 138220, Note_on_c, 0, 46, 64
2, 138224, Note_on_c, 0, 50, 0
2, 138226, Note_on_c, 0, 65, 0
2, 138392, Note_on_c, 0, 70, 106
2, 138394, Note_on_c, 0, 43, 75
2, 138400, Note_on_c, 0, 46, 0
2, 138540, Note_on_c, 0, 46, 76
2, 138562, Note_on_c, 0, 43, 0
2, 138666, Note_on_c, 0, 62, 87
2, 138694, Note_on_c, 0, 45, 85
2, 138728, Note_on_c, 0, 46, 0
2, 138754, Note_on_c, 0, 62, 0
2, 138824, Note_on_c, 0, 43, 84
2, 138830, Note_on_c, 0, 45, 0
2, 138964, Note_on_c, 0, 43, 0
2, 138964, Note_on_c, 0, 64, 91
2, 138978, Note_on_c, 0, 48, 85
2, 139098, Note_on_c, 0, 64, 0
2, 139100, Note_on_c, 0, 67, 75
2, 139106, Note_on_c, 0, 48, 0
2, 139120, Note_on_c, 0, 52, 86
2, 139218, Note_on_c, 0, 52, 0
2, 139244, Note_on_c, 0, 48, 48
2, 139262, Note_on_c, 0, 64, 74
2, 139278, Note_on_c, 0, 67, 0
2, 139368, Note_on_c, 0, 48, 0
2, 139386, Note_on_c, 0, 45, 52
2, 139398, Note_on_c, 0, 60, 79
2, 139456, Note_on_c, 0, 64, 0
2, 139474, Note_on_c, 0, 45, 0
2, 139510, Note_on_c, 0, 70, 0
2, 139534, Note_on_c, 0, 41, 57
2, 139538, Note_on_c, 0, 69, 77
2, 139576, Note_on_c, 0, 60, 0
2, 139664, Note_on_c, 0, 41, 0
2, 139670, Note_on_c, 0, 45, 67
2, 139752, Note_on_c, 0, 45, 0
2, 139800, Note_on_c, 0, 60, 69
2, 139818, Note_on_c, 0, 43, 62
2, 139922, Note_on_c, 0, 60, 0
2, 139934, Note_on_c, 0, 41, 62
2, 139942, Note_on_c, 0, 43, 0
2, 139988, Note_on_c, 0, 41, 0
2, 140100, Note_on_c, 0, 62, 61
2, 140100, Note_on_c, 0, 46, 76
2, 140210, Note_on_c, 0, 62, 0
2, 140238, Note_on_c, 0, 65, 61
2, 140384, Note_on_c, 0, 65, 0
2, 140390, Note_on_c, 0, 62, 74
2, 140402, Note_on_c, 0, 48, 63
2, 140410, Note_on_c, 0, 46, 0
2, 140512, Note_on_c, 0, 62, 0
2, 140542, Note_on_c, 0, 60, 69
2, 140664, Note_on_c, 0, 48, 0
2, 140664, Note_on_c, 0, 58, 55
2, 140680, Note_on_c, 0, 50, 59
2, 140682, Note_on_c, 0, 60, 0
2, 140704, Note_on_c, 0, 69, 0
2, 140830, Note_on_c, 0, 69, 62
2, 140952, Note_on_c, 0, 50, 0
2, 140976, Note_on_c, 0, 67, 86
2, 140982, Note_on_c, 0, 46, 49
2, 141004, Note_on_c, 0, 69, 0
2, 141116, Note_on_c, 0, 65, 78
2, 141122, Note_on_c, 0, 67, 0
2, 141246, Note_on_c, 0, 64, 90
2, 141258, Note_on_c, 0, 65, 0
2, 141272, Note_on_c, 0, 48, 51
2, 141280, Note_on_c, 0, 46, 0
2, 141398, Note_on_c, 0, 67, 86
2, 141408, Note_on_c, 0, 64, 0
2, 141536, Note_on_c, 0, 64, 83
2, 141539, Note_on_c, 0, 67, 0
2, 141554, Note_on_c, 0, 48, 0
2, 141558, Note_on_c, 0, 50, 55
2, 141664, Note_on_c, 0, 64, 0
2, 141672, Note_on_c, 0, 62, 79
2, 141780, Note_on_c, 0, 50, 0
2, 141800, Note_on_c, 0, 58, 0
2, 141803, Note_on_c, 0, 62, 0
2, 141808, Note_on_c, 0, 60, 78
2, 141888, Note_on_c, 0, 52, 51
2, 141956, Note_on_c, 0, 58, 60
2, 142020, Control_c, 0, 64, 127
2, 142032, Note_on_c, 0, 52, 0
2, 142062, Note_on_c, 0, 60, 0
2, 142080, Note_on_c, 0, 57, 69
2, 142100, Note_on_c, 0, 48, 40
2, 142130, Note_on_c, 0, 58, 0
2, 142214, Note_on_c, 0, 55, 80
2, 142226, Note_on_c, 0, 57, 0
2, 142312, Control_c, 0, 64, 0
2, 142352, Note_on_c, 0, 55, 0
2, 142378, Note_on_c, 0, 57, 90
2, 142384, Note_on_c, 0, 48, 0
2, 142394, Note_on_c, 0, 36, 72
2, 142510, Note_on_c, 0, 60, 82
2, 142540, Note_on_c, 0, 57, 0
2, 142548, Note_on_c, 0, 36, 0
2, 142588, Control_c, 0, 64, 127
2, 142666, Note_on_c, 0, 60, 0
2, 142666, Note_on_c, 0, 65, 79
2, 142666, Note_on_c, 0, 45, 68
2, 142794, Note_on_c, 0, 64, 77
2, 142797, Note_on_c, 0, 65, 0
2, 142942, Control_c, 0, 64, 0
2, 142954, Note_on_c, 0, 62, 79
2, 142958, Note_on_c, 0, 46, 61
2, 142980, Note_on_c, 0, 64, 0
2, 142982, Note_on_c, 0, 45, 0
2, 143086, Note_on_c, 0, 60, 80
2, 143088, Note_on_c, 0, 62, 0
2, 143218, Note_on_c, 0, 60, 0
2, 143230, Note_on_c, 0, 58, 55
2, 143233, Control_c, 0, 64, 127
2, 143260, Note_on_c, 0, 50, 55
2, 143263, Note_on_c, 0, 46, 0
2, 143370, Note_on_c, 0, 57, 80
2, 143382, Note_on_c, 0, 58, 0
2, 143398, Note_on_c, 0, 50, 0
2, 143420, Control_c, 0, 64, 0
2, 143526, Note_on_c, 0, 57, 0
2, 143528, Note_on_c, 0, 58, 70
2, 143538, Note_on_c, 0, 36, 90
2, 143682, Note_on_c, 0, 64, 83
2, 143690, Note_on_c, 0, 36, 0
2, 143692, Note_on_c, 0, 58, 0
2, 143696, Control_c, 0, 64, 127
2, 143798, Note_on_c, 0, 46, 71
2, 143826, Note_on_c, 0, 67, 79
2, 143854, Note_on_c, 0, 64, 0
2, 143966, Note_on_c, 0, 65, 85
2, 144032, Note_on_c, 0, 67, 0
2, 144048, Control_c, 0, 64, 0
2, 144112, Note_on_c, 0, 48, 83
2, 144115, Note_on_c, 0, 64, 91
2, 144146, Note_on_c, 0, 65, 0
2, 144160, Note_on_c, 0, 46, 0
2, 144264, Note_on_c, 0, 62, 91
2, 144282, Note_on_c, 0, 64, 0
2, 144406, Note_on_c, 0, 60, 88
2, 144418, Note_on_c, 0, 62, 0
2, 144421, Note_on_c, 0, 48, 0
2, 144421, Note_on_c, 0, 52, 95
2, 144524, Control_c, 0, 64, 127
2, 144536, Note_on_c, 0, 58, 88
2, 144564, Note_on_c, 0, 60, 0
2, 144584, Note_on_c, 0, 52, 0
2, 144686, Note_on_c, 0, 36, 107
2, 144686, Note_on_c, 0, 60, 87
2, 144689, Note_on_c, 0, 58, 0
2, 144724, Control_c, 0, 64, 0
2, 144814, Note_on_c, 0, 65, 95
2, 144874, Note_on_c, 0, 60, 0
2, 144956, Note_on_c, 0, 69, 88
2, 144966, Note_on_c, 0, 48, 86
2, 144970, Control_c, 0, 64, 127
2, 144980, Note_on_c, 0, 36, 0
2, 144992, Note_on_c, 0, 65, 0
2, 145100, Note_on_c, 0, 67, 102
2, 145164, Note_on_c, 0, 69, 0
2, 145204, Note_on_c, 0, 48, 0
2, 145232, Control_c, 0, 64, 0
2, 145238, Note_on_c, 0, 50, 87
2, 145246, Note_on_c, 0, 65, 99
2, 145300, Note_on_c, 0, 67, 0
2, 145372, Note_on_c, 0, 64, 106
2, 145402, Note_on_c, 0, 65, 0
2, 145446, Control_c, 0, 64, 127
2, 145510, Note_on_c, 0, 50, 0
2, 145510, Note_on_c, 0, 62, 102
2, 145524, Control_c, 0, 64, 0
2, 145526, Note_on_c, 0, 64, 0
2, 145532, Note_on_c, 0, 53, 122
2, 145642, Note_on_c, 0, 60, 105
2, 145648, Note_on_c, 0, 53, 0
2, 145654, Note_on_c, 0, 62, 0
2, 145662, Control_c, 0, 64, 127
2, 145800, Control_c, 0, 64, 0
2, 145800, Note_on_c, 0, 62, 108
2, 145804, Note_on_c, 0, 60, 0
2, 145804, Note_on_c, 0, 36, 116
2, 145930, Note_on_c, 0, 65, 99
2, 145994, Note_on_c, 0, 62, 0
2, 146016, Note_on_c, 0, 36, 0
2, 146046, Control_c, 0, 64, 127
2, 146076, Note_on_c, 0, 70, 93
2, 146078, Note_on_c, 0, 50, 95
2, 146108, Control_c, 0, 64, 0
2, 146120, Note_on_c, 0, 65, 0
2, 146214, Note_on_c, 0, 69, 98
2, 146292, Note_on_c, 0, 70, 0
2, 146336, Note_on_c, 0, 50, 0
2, 146360, Note_on_c, 0, 67, 101
2, 146360, Note_on_c, 0, 52, 101
2, 146404, Note_on_c, 0, 69, 0
2, 146494, Note_on_c, 0, 65, 93
2, 146518, Note_on_c, 0, 67, 0
2, 146538, Control_c, 0, 64, 127
2, 146614, Control_c, 0, 64, 0
2, 146624, Note_on_c, 0, 64, 102
2, 146632, Note_on_c, 0, 52, 0
2, 146652, Note_on_c, 0, 65, 0
2, 146655, Note_on_c, 0, 55, 92
2, 146766, Note_on_c, 0, 62, 103
2, 146769, Note_on_c, 0, 55, 0
2, 146790, Note_on_c, 0, 64, 0
2, 146814, Control_c, 0, 64, 127
2, 146920, Note_on_c, 0, 36, 108
2, 146930, Note_on_c, 0, 64, 109
2, 146944, Note_on_c, 0, 62, 0
2, 146968, Control_c, 0, 64, 0
2, 147056, Note_on_c, 0, 60, 102
2, 147070, Note_on_c, 0, 64, 0
2, 147208, Note_on_c, 0, 64, 106
2, 147222, Note_on_c, 0, 60, 0
2, 147328, Note_on_c, 0, 64, 0
2, 147336, Note_on_c, 0, 67, 101
2, 147472, Note_on_c, 0, 67, 0
2, 147476, Note_on_c, 0, 70, 83
2, 147602, Note_on_c, 0, 36, 0
2, 147608, Note_on_c, 0, 70, 0
2, 147614, Note_on_c, 0, 72, 102
2, 147744, Note_on_c, 0, 72, 0
2, 147756, Note_on_c, 0, 76, 87
2, 147876, Note_on_c, 0, 76, 0
2, 147896, Note_on_c, 0, 79, 92
2, 147958, Note_on_c, 0, 79, 0
2, 148074, Note_on_c, 0, 81, 62
2, 148240, Note_on_c, 0, 81, 0
2, 148404, Note_on_c, 0, 74, 56
2, 148420, Note_on_c, 0, 69, 25
2, 148430, Note_on_c, 0, 65, 28
2, 148496, Note_on_c, 0, 65, 0
2, 148508, Note_on_c, 0, 69, 0
2, 148530, Note_on_c, 0, 74, 0
2, 148704, Note_on_c, 0, 76, 51
2, 148707, Note_on_c, 0, 69, 42
2, 148712, Note_on_c, 0, 65, 44
2, 148788, Note_on_c, 0, 65, 0
2, 148794, Note_on_c, 0, 69, 0
2, 148856, Note_on_c, 0, 74, 60
2, 148862, Note_on_c, 0, 76, 0
2, 148960, Note_on_c, 0, 74, 0
2, 148994, Note_on_c, 0, 73, 52
2, 149006, Note_on_c, 0, 69, 45
2, 149028, Note_on_c, 0, 65, 38
2, 149082, Note_on_c, 0, 69, 0
2, 149090, Note_on_c, 0, 65, 0
2, 149110, Note_on_c, 0, 73, 0
2, 149142, Note_on_c, 0, 74, 56
2, 149326, Note_on_c, 0, 67, 37
2, 149332, Note_on_c, 0, 64, 38
2, 149398, Note_on_c, 0, 64, 0
2, 149408, Note_on_c, 0, 67, 0
2, 149444, Note_on_c, 0, 74, 0
2, 149470, Note_on_c, 0, 79, 59
2, 149608, Note_on_c, 0, 74, 76
2, 149614, Note_on_c, 0, 79, 0
2, 149630, Note_on_c, 0, 67, 42
2, 149650, Note_on_c, 0, 64, 36
2, 149710, Note_on_c, 0, 67, 0
2, 149716, Note_on_c, 0, 64, 0
2, 149742, Note_on_c, 0, 74, 0
2, 149748, Note_on_c, 0, 71, 82
2, 149882, Note_on_c, 0, 71, 0
2, 149898, Note_on_c, 0, 72, 84
2, 149908, Note_on_c, 0, 64, 47
2, 149912, Note_on_c, 0, 67, 48
2, 149974, Note_on_c, 0, 64, 0
2, 149982, Note_on_c, 0, 67, 0
2, 150024, Note_on_c, 0, 72, 0
2, 150024, Note_on_c, 0, 71, 105
2, 150140, Note_on_c, 0, 71, 0
2, 150168, Note_on_c, 0, 72, 92
2, 150204, Note_on_c, 0, 67, 48
2, 150236, Note_on_c, 0, 64, 46
2, 150278, Note_on_c, 0, 67, 0
2, 150292, Note_on_c, 0, 64, 0
2, 150306, Note_on_c, 0, 72, 0
2, 150316, Note_on_c, 0, 76, 91
2, 150462, Note_on_c, 0, 76, 0
2, 150482, Note_on_c, 0, 77, 92
2, 150624, Note_on_c, 0, 77, 0
2, 150766, Note_on_c, 0, 70, 76
2, 150788, Note_on_c, 0, 62, 45
2, 150802, Note_on_c, 0, 65, 32
2, 150858, Note_on_c, 0, 62, 0
2, 150874, Note_on_c, 0, 65, 0
2, 150918, Note_on_c, 0, 70, 0
2, 151078, Note_on_c, 0, 72, 77
2, 151100, Note_on_c, 0, 62, 32
2, 151104, Note_on_c, 0, 65, 41
2, 151172, Note_on_c, 0, 65, 0
2, 151180, Note_on_c, 0, 62, 0
2, 151216, Note_on_c, 0, 70, 61
2, 151242, Note_on_c, 0, 72, 0
2, 151368, Note_on_c, 0, 70, 0
2, 151374, Note_on_c, 0, 69, 49
2, 151396, Note_on_c, 0, 65, 36
2, 151412, Note_on_c, 0, 62, 44
2, 151468, Note_on_c, 0, 65, 0
2, 151474, Note_on_c, 0, 69, 0
2, 151476, Note_on_c, 0, 62, 0
2, 151520, Note_on_c, 0, 70, 55
2, 151692, Note_on_c, 0, 63, 54
2, 151718, Note_on_c, 0, 60, 37
2, 151774, Note_on_c, 0, 63, 0
2, 151788, Note_on_c, 0, 60, 0
2, 151860, Note_on_c, 0, 70, 0
2, 151862, Note_on_c, 0, 75, 57
2, 151998, Note_on_c, 0, 63, 48
2, 152006, Note_on_c, 0, 70, 63
2, 152008, Note_on_c, 0, 60, 40
2, 152024, Note_on_c, 0, 75, 0
2, 152074, Note_on_c, 0, 63, 0
2, 152084, Note_on_c, 0, 60, 0
2, 152146, Note_on_c, 0, 67, 70
2, 152152, Note_on_c, 0, 70, 0
2, 152264, Note_on_c, 0, 67, 0
2, 152276, Note_on_c, 0, 69, 60
2, 152286, Note_on_c, 0, 63, 62
2, 152300, Note_on_c, 0, 60, 44
2, 152360, Note_on_c, 0, 63, 0
2, 152376, Note_on_c, 0, 60, 0
2, 152420, Note_on_c, 0, 67, 70
2, 152428, Note_on_c, 0, 69, 0
2, 152524, Note_on_c, 0, 67, 0
2, 152580, Note_on_c, 0, 69, 52
2, 152588, Note_on_c, 0, 63, 57
2, 152596, Note_on_c, 0, 60, 48
2, 152652, Note_on_c, 0, 63, 0
2, 152676, Note_on_c, 0, 60, 0
2, 152676, Note_on_c, 0, 69, 0
2, 152714, Note_on_c, 0, 72, 62
2, 152802, Note_on_c, 0, 72, 0
2, 152878, Note_on_c, 0, 74, 72
2, 152990, Note_on_c, 0, 74, 0
2, 153172, Note_on_c, 0, 67, 63
2, 153182, Note_on_c, 0, 58, 26
2, 153198, Note_on_c, 0, 62, 28
2, 153246, Note_on_c, 0, 67, 0
2, 153276, Note_on_c, 0, 62, 0
2, 153288, Note_on_c, 0, 58, 0
2, 153480, Note_on_c, 0, 69, 54
2, 153494, Note_on_c, 0, 62, 48
2, 153500, Note_on_c, 0, 58, 30
2, 153574, Note_on_c, 0, 62, 0
2, 153612, Note_on_c, 0, 58, 0
2, 153626, Note_on_c, 0, 67, 56
2, 153640, Note_on_c, 0, 69, 0
2, 153716, Note_on_c, 0, 67, 0
2, 153766, Note_on_c, 0, 66, 45
2, 153796, Note_on_c, 0, 58, 28
2, 153802, Note_on_c, 0, 62, 38
2, 153868, Note_on_c, 0, 62, 0
2, 153888, Note_on_c, 0, 58, 0
2, 153902, Note_on_c, 0, 66, 0
2, 153912, Note_on_c, 0, 67, 56
2, 154074, Note_on_c, 0, 60, 42
2, 154088, Note_on_c, 0, 57, 33
2, 154154, Note_on_c, 0, 60, 0
2, 154162, Note_on_c, 0, 57, 0
2, 154224, Note_on_c, 0, 67, 0
2, 154242, Note_on_c, 0, 72, 53
2, 154368, Note_on_c, 0, 72, 0
2, 154378, Note_on_c, 0, 60, 47
2, 154381, Note_on_c, 0, 67, 61
2, 154394, Note_on_c, 0, 57, 39
2, 154458, Note_on_c, 0, 60, 0
2, 154470, Note_on_c, 0, 57, 0
2, 154492, Note_on_c, 0, 67, 0
2, 154522, Note_on_c, 0, 64, 63
2, 154600, Note_on_c, 0, 64, 0
2, 154660, Note_on_c, 0, 57, 37
2, 154663, Note_on_c, 0, 65, 69
2, 154666, Note_on_c, 0, 60, 51
2, 154738, Note_on_c, 0, 60, 0
2, 154748, Note_on_c, 0, 57, 0
2, 154796, Note_on_c, 0, 64, 76
2, 154806, Note_on_c, 0, 65, 0
2, 154886, Note_on_c, 0, 64, 0
2, 154928, Note_on_c, 0, 65, 68
2, 154944, Note_on_c, 0, 57, 37
2, 154952, Note_on_c, 0, 60, 42
2, 155012, Note_on_c, 0, 57, 0
2, 155018, Note_on_c, 0, 60, 0
2, 155020, Note_on_c, 0, 65, 0
2, 155054, Note_on_c, 0, 69, 77
2, 155186, Note_on_c, 0, 69, 0
2, 155198, Note_on_c, 0, 70, 74
2, 155318, Note_on_c, 0, 72, 64
2, 155330, Note_on_c, 0, 70, 0
2, 155354, Note_on_c, 0, 62, 67
2, 155372, Note_on_c, 0, 72, 0
2, 155390, Note_on_c, 0, 70, 70
2, 155474, Note_on_c, 0, 72, 51
2, 155488, Note_on_c, 0, 70, 0
2, 155488, Note_on_c, 0, 62, 0
2, 155508, Note_on_c, 0, 64, 64
2, 155530, Note_on_c, 0, 72, 0
2, 155550, Note_on_c, 0, 70, 75
2, 155570, Note_on_c, 0, 64, 0
2, 155598, Note_on_c, 0, 72, 74
2, 155602, Note_on_c, 0, 70, 0
2, 155620, Note_on_c, 0, 65, 56
2, 155672, Note_on_c, 0, 72, 0
2, 155678, Note_on_c, 0, 70, 48
2, 155690, Note_on_c, 0, 65, 0
2, 155726, Note_on_c, 0, 55, 83
2, 155742, Note_on_c, 0, 72, 68
2, 155746, Note_on_c, 0, 70, 0
2, 155794, Note_on_c, 0, 72, 0
2, 155808, Note_on_c, 0, 70, 70
2, 155844, Note_on_c, 0, 55, 0
2, 155868, Note_on_c, 0, 72, 67
2, 155874, Note_on_c, 0, 70, 0
2, 155877, Note_on_c, 0, 64, 56
2, 155930, Note_on_c, 0, 72, 0
2, 155938, Note_on_c, 0, 70, 64
2, 155950, Note_on_c, 0, 64, 0
2, 155998, Note_on_c, 0, 72, 71
2, 156001, Note_on_c, 0, 70, 0
2, 156004, Note_on_c, 0, 53, 61
2, 156054, Note_on_c, 0, 72, 0
2, 156058, Note_on_c, 0, 70, 78
2, 156092, Note_on_c, 0, 53, 0
2, 156124, Note_on_c, 0, 72, 70
2, 156128, Note_on_c, 0, 70, 0
2, 156134, Note_on_c, 0, 62, 59
2, 156198, Note_on_c, 0, 70, 67
2, 156222, Note_on_c, 0, 62, 0
2, 156230, Note_on_c, 0, 72, 0
2, 156248, Note_on_c, 0, 52, 98
2, 156386, Note_on_c, 0, 52, 0
2, 156402, Note_on_c, 0, 79, 92
2, 156408, Note_on_c, 0, 55, 82
2, 156438, Note_on_c, 0, 70, 0
2, 156490, Note_on_c, 0, 55, 0
2, 156548, Note_on_c, 0, 76, 76
2, 156558, Note_on_c, 0, 79, 0
2, 156594, Note_on_c, 0, 60, 62
2, 156684, Note_on_c, 0, 72, 87
2, 156688, Note_on_c, 0, 76, 0
2, 156738, Note_on_c, 0, 60, 0
2, 156814, Note_on_c, 0, 70, 77
2, 156836, Note_on_c, 0, 72, 0
2, 156954, Note_on_c, 0, 70, 0
2, 156972, Note_on_c, 0, 79, 95
2, 157118, Note_on_c, 0, 79, 0
2, 157124, Note_on_c, 0, 76, 59
2, 157250, Note_on_c, 0, 76, 0
2, 157254, Note_on_c, 0, 72, 65
2, 157398, Note_on_c, 0, 70, 60
2, 157410, Note_on_c, 0, 72, 0
2, 157490, Note_on_c, 0, 72, 52
2, 157494, Note_on_c, 0, 70, 0
2, 157532, Note_on_c, 0, 55, 68
2, 157554, Note_on_c, 0, 72, 0
2, 157566, Note_on_c, 0, 70, 64
2, 157622, Note_on_c, 0, 70, 0
2, 157622, Note_on_c, 0, 72, 76
2, 157656, Note_on_c, 0, 53, 97
2, 157659, Note_on_c, 0, 55, 0
2, 157704, Note_on_c, 0, 70, 46
2, 157712, Note_on_c, 0, 72, 0
2, 157778, Note_on_c, 0, 70, 0
2, 157780, Note_on_c, 0, 53, 0
2, 157790, Note_on_c, 0, 52, 83
2, 157793, Note_on_c, 0, 72, 63
2, 157840, Note_on_c, 0, 70, 76
2, 157842, Note_on_c, 0, 72, 0
2, 157906, Note_on_c, 0, 72, 69
2, 157912, Note_on_c, 0, 60, 92
2, 157918, Note_on_c, 0, 70, 0
2, 157918, Note_on_c, 0, 52, 0
2, 157980, Note_on_c, 0, 72, 0
2, 157986, Note_on_c, 0, 70, 69
2, 158044, Note_on_c, 0, 52, 87
2, 158047, Note_on_c, 0, 72, 78
2, 158060, Note_on_c, 0, 70, 0
2, 158084, Note_on_c, 0, 60, 0
2, 158110, Note_on_c, 0, 72, 0
2, 158122, Note_on_c, 0, 70, 76
2, 158180, Note_on_c, 0, 72, 79
2, 158192, Note_on_c, 0, 70, 0
2, 158192, Note_on_c, 0, 62, 97
2, 158208, Note_on_c, 0, 52, 0
2, 158250, Note_on_c, 0, 72, 0
2, 158256, Note_on_c, 0, 70, 70
2, 158316, Note_on_c, 0, 72, 88
2, 158326, Note_on_c, 0, 70, 0
2, 158336, Note_on_c, 0, 50, 102
2, 158342, Note_on_c, 0, 62, 0
2, 158404, Note_on_c, 0, 70, 79
2, 158430, Note_on_c, 0, 72, 0
2, 158448, Note_on_c, 0, 50, 0
2, 158480, Note_on_c, 0, 64, 113
2, 158598, Note_on_c, 0, 79, 83
2, 158620, Note_on_c, 0, 70, 0
2, 158676, Note_on_c, 0, 64, 0
2, 158762, Note_on_c, 0, 76, 82
2, 158766, Note_on_c, 0, 48, 102
2, 158778, Note_on_c, 0, 79, 0
2, 158900, Note_on_c, 0, 72, 94
2, 158906, Note_on_c, 0, 76, 0
2, 158984, Note_on_c, 0, 48, 0
2, 159036, Note_on_c, 0, 70, 87
2, 159054, Note_on_c, 0, 72, 0
2, 159160, Note_on_c, 0, 70, 0
2, 159182, Note_on_c, 0, 79, 110
2, 159319, Note_on_c, 0, 76, 92
2, 159340, Note_on_c, 0, 79, 0
2, 159470, Note_on_c, 0, 72, 102
2, 159484, Note_on_c, 0, 76, 0
2, 159590, Note_on_c, 0, 72, 0
2, 159606, Note_on_c, 0, 69, 98
2, 159732, Note_on_c, 0, 69, 0
2, 159748, Note_on_c, 0, 65, 97
2, 159826, Note_on_c, 0, 65, 0
2, 159876, Note_on_c, 0, 77, 108
2, 159879, Note_on_c, 0, 64, 101
2, 159962, Note_on_c, 0, 77, 0
2, 160018, Note_on_c, 0, 62, 90
2, 160020, Note_on_c, 0, 64, 0
2, 160102, Note_on_c, 0, 62, 0
2, 160146, Note_on_c, 0, 69, 99
2, 160146, Note_on_c, 0, 65, 101
2, 160162, Note_on_c, 0, 60, 77
2, 160230, Note_on_c, 0, 65, 0
2, 160268, Note_on_c, 0, 69, 0
2, 160294, Note_on_c, 0, 58, 71
2, 160314, Note_on_c, 0, 60, 0
2, 160414, Note_on_c, 0, 70, 95
2, 160417, Note_on_c, 0, 67, 98
2, 160438, Note_on_c, 0, 58, 0
2, 160441, Note_on_c, 0, 57, 91
2, 160486, Note_on_c, 0, 67, 0
2, 160526, Note_on_c, 0, 70, 0
2, 160590, Note_on_c, 0, 55, 101
2, 160600, Note_on_c, 0, 57, 0
2, 160706, Note_on_c, 0, 69, 88
2, 160706, Note_on_c, 0, 72, 103
2, 160720, Note_on_c, 0, 55, 0
2, 160728, Note_on_c, 0, 53, 122
2, 160770, Note_on_c, 0, 53, 0
2, 160856, Note_on_c, 0, 53, 118
2, 160906, Note_on_c, 0, 69, 0
2, 160992, Note_on_c, 0, 72, 0
2, 161006, Note_on_c, 0, 51, 107
2, 161014, Note_on_c, 0, 53, 0
2, 161134, Note_on_c, 0, 50, 100
2, 161154, Note_on_c, 0, 51, 0
2, 161242, Note_on_c, 0, 50, 0
2, 161276, Note_on_c, 0, 74, 120
2, 161278, Note_on_c, 0, 48, 94
2, 161280, Note_on_c, 0, 70, 95
2, 161396, Note_on_c, 0, 46, 88
2, 161402, Note_on_c, 0, 48, 0
2, 161522, Note_on_c, 0, 46, 0
2, 161542, Note_on_c, 0, 45, 91
2, 161680, Note_on_c, 0, 43, 107
2, 161708, Note_on_c, 0, 45, 0
2, 161832, Note_on_c, 0, 41, 124
2, 161852, Note_on_c, 0, 43, 0
2, 162024, Note_on_c, 0, 53, 105
2, 162114, Note_on_c, 0, 72, 107
2, 162114, Note_on_c, 0, 69, 80
2, 162138, Note_on_c, 0, 74, 0
2, 162148, Note_on_c, 0, 53, 0
2, 162148, Note_on_c, 0, 48, 86
2, 162164, Control_c, 0, 64, 127
2, 162167, Note_on_c, 0, 70, 0
2, 162182, Note_on_c, 0, 41, 0
2, 162240, Note_on_c, 0, 74, 100
2, 162256, Note_on_c, 0, 45, 94
2, 162296, Note_on_c, 0, 48, 0
2, 162300, Note_on_c, 0, 72, 0
2, 162364, Control_c, 0, 64, 0
2, 162400, Note_on_c, 0, 45, 0
2, 162400, Note_on_c, 0, 75, 111
2, 162404, Note_on_c, 0, 41, 116
2, 162434, Note_on_c, 0, 74, 0
2, 162554, Note_on_c, 0, 41, 0
2, 162560, Note_on_c, 0, 53, 122
2, 162610, Control_c, 0, 64, 127
2, 162676, Note_on_c, 0, 53, 0
2, 162676, Note_on_c, 0, 74, 108
2, 162702, Note_on_c, 0, 51, 88
2, 162742, Note_on_c, 0, 75, 0
2, 162798, Note_on_c, 0, 72, 103
2, 162810, Control_c, 0, 64, 0
2, 162820, Note_on_c, 0, 53, 124
2, 162836, Note_on_c, 0, 51, 0
2, 162842, Note_on_c, 0, 74, 0
2, 162932, Note_on_c, 0, 53, 0
2, 162944, Note_on_c, 0, 70, 83
2, 162962, Note_on_c, 0, 74, 101
2, 162964, Note_on_c, 0, 72, 0
2, 162964, Note_on_c, 0, 69, 0
2, 162970, Note_on_c, 0, 46, 100
2, 163116, Note_on_c, 0, 50, 102
2, 163168, Note_on_c, 0, 46, 0
2, 163178, Control_c, 0, 64, 127
2, 163180, Note_on_c, 0, 74, 0
2, 163208, Note_on_c, 0, 70, 0
2, 163256, Note_on_c, 0, 53, 126
2, 163296, Note_on_c, 0, 50, 0
2, 163300, Control_c, 0, 64, 0
2, 163378, Note_on_c, 0, 57, 98
2, 163402, Note_on_c, 0, 53, 0
2, 163512, Note_on_c, 0, 57, 0
2, 163518, Note_on_c, 0, 58, 101
2, 163650, Note_on_c, 0, 62, 106
2, 163668, Note_on_c, 0, 58, 0
2, 163794, Note_on_c, 0, 65, 100
2, 163826, Note_on_c, 0, 62, 0
2, 163914, Note_on_c, 0, 69, 102
2, 163950, Note_on_c, 0, 65, 0
2, 164022, Note_on_c, 0, 69, 0
2, 164062, Note_on_c, 0, 67, 114
2, 164128, Note_on_c, 0, 67, 0
2, 164196, Note_on_c, 0, 67, 106
2, 164296, Note_on_c, 0, 67, 0
2, 164348, Note_on_c, 0, 79, 127
2, 164358, Note_on_c, 0, 65, 98
2, 164434, Note_on_c, 0, 79, 0
2, 164488, Note_on_c, 0, 65, 0
2, 164506, Note_on_c, 0, 64, 97
2, 164612, Note_on_c, 0, 64, 0
2, 164622, Note_on_c, 0, 71, 123
2, 164626, Note_on_c, 0, 67, 109
2, 164636, Note_on_c, 0, 62, 97
2, 164714, Note_on_c, 0, 71, 0
2, 164734, Note_on_c, 0, 67, 0
2, 164762, Note_on_c, 0, 62, 0
2, 164766, Note_on_c, 0, 60, 95
2, 164896, Note_on_c, 0, 72, 113
2, 164896, Note_on_c, 0, 69, 97
2, 164904, Note_on_c, 0, 60, 0
2, 164910, Note_on_c, 0, 59, 98
2, 164978, Note_on_c, 0, 69, 0
2, 164986, Note_on_c, 0, 72, 0
2, 165054, Note_on_c, 0, 57, 95
2, 165074, Note_on_c, 0, 59, 0
2, 165184, Note_on_c, 0, 74, 122
2, 165184, Note_on_c, 0, 71, 116
2, 165187, Note_on_c, 0, 57, 0
2, 165204, Note_on_c, 0, 55, 106
2, 165268, Note_on_c, 0, 55, 0
2, 165334, Note_on_c, 0, 55, 111
2, 165372, Note_on_c, 0, 71, 0
2, 165440, Note_on_c, 0, 74, 0
2, 165456, Note_on_c, 0, 55, 0
2, 165480, Note_on_c, 0, 53, 127
2, 165618, Note_on_c, 0, 52, 121
2, 165642, Note_on_c, 0, 53, 0
2, 165728, Note_on_c, 0, 52, 0
2, 165752, Note_on_c, 0, 76, 117
2, 165752, Note_on_c, 0, 72, 117
2, 165758, Note_on_c, 0, 50, 116
2, 165896, Note_on_c, 0, 48, 98
2, 165912, Note_on_c, 0, 50, 0
2, 166026, Note_on_c, 0, 47, 109
2, 166058, Note_on_c, 0, 48, 0
2, 166164, Note_on_c, 0, 45, 102
2, 166190, Note_on_c, 0, 47, 0
2, 166310, Note_on_c, 0, 43, 114
2, 166318, Note_on_c, 0, 45, 0
2, 166462, Note_on_c, 0, 55, 102
2, 166590, Note_on_c, 0, 71, 99
2, 166590, Note_on_c, 0, 74, 116
2, 166598, Note_on_c, 0, 55, 0
2, 166608, Note_on_c, 0, 50, 100
2, 166620, Control_c, 0, 64, 127
2, 166630, Note_on_c, 0, 76, 0
2, 166642, Note_on_c, 0, 43, 0
2, 166650, Note_on_c, 0, 72, 0
2, 166720, Note_on_c, 0, 47, 100
2, 166726, Note_on_c, 0, 76, 93
2, 166752, Note_on_c, 0, 50, 0
2, 166786, Note_on_c, 0, 74, 0
2, 166862, Note_on_c, 0, 47, 0
2, 166862, Note_on_c, 0, 77, 113
2, 166865, Control_c, 0, 64, 0
2, 166872, Note_on_c, 0, 43, 107
2, 166924, Note_on_c, 0, 76, 0
2, 167016, Note_on_c, 0, 55, 98
2, 167022, Note_on_c, 0, 43, 0
2, 167112, Control_c, 0, 64, 127
2, 167138, Note_on_c, 0, 55, 0
2, 167164, Note_on_c, 0, 53, 116
2, 167174, Note_on_c, 0, 76, 97
2, 167238, Note_on_c, 0, 77, 0
2, 167288, Note_on_c, 0, 53, 0
2, 167294, Note_on_c, 0, 55, 94
2, 167296, Note_on_c, 0, 74, 110
2, 167322, Note_on_c, 0, 76, 0
2, 167388, Control_c, 0, 64, 0
2, 167422, Note_on_c, 0, 71, 0
2, 167436, Note_on_c, 0, 55, 0
2, 167440, Note_on_c, 0, 76, 93
2, 167442, Note_on_c, 0, 72, 90
2, 167450, Note_on_c, 0, 48, 84
2, 167470, Note_on_c, 0, 74, 0
2, 167586, Note_on_c, 0, 55, 94
2, 167610, Note_on_c, 0, 48, 0
2, 167704, Note_on_c, 0, 55, 0
2, 167742, Note_on_c, 0, 57, 67
2, 167776, Note_on_c, 0, 72, 0
2, 167882, Note_on_c, 0, 59, 85
2, 167886, Note_on_c, 0, 76, 0
2, 167888, Note_on_c, 0, 57, 0
2, 167990, Note_on_c, 0, 59, 0
2, 168014, Note_on_c, 0, 60, 82
2, 168144, Note_on_c, 0, 60, 0
2, 168160, Note_on_c, 0, 55, 82
2, 168274, Note_on_c, 0, 55, 0
2, 168286, Note_on_c, 0, 72, 86
2, 168296, Note_on_c, 0, 60, 78
2, 168336, Note_on_c, 0, 72, 0
2, 168374, Note_on_c, 0, 60, 0
2, 168434, Note_on_c, 0, 62, 70
2, 168510, Note_on_c, 0, 62, 0
2, 168592, Note_on_c, 0, 67, 65
2, 168600, Note_on_c, 0, 72, 87
2, 168620, Note_on_c, 0, 64, 64
2, 168644, Note_on_c, 0, 72, 0
2, 168664, Note_on_c, 0, 74, 69
2, 168670, Note_on_c, 0, 64, 0
2, 168688, Note_on_c, 0, 67, 0
2, 168720, Note_on_c, 0, 72, 60
2, 168736, Note_on_c, 0, 74, 0
2, 168804, Note_on_c, 0, 72, 0
2, 168806, Note_on_c, 0, 71, 68
2, 168868, Note_on_c, 0, 71, 0
2, 168878, Note_on_c, 0, 72, 70
2, 168898, Note_on_c, 0, 60, 67
2, 168978, Note_on_c, 0, 60, 0
2, 168978, Note_on_c, 0, 72, 0
2, 169184, Note_on_c, 0, 69, 38
2, 169188, Note_on_c, 0, 65, 41
2, 169192, Note_on_c, 0, 72, 62
2, 169244, Note_on_c, 0, 72, 0
2, 169250, Note_on_c, 0, 74, 68
2, 169252, Note_on_c, 0, 65, 0
2, 169268, Note_on_c, 0, 69, 0
2, 169302, Note_on_c, 0, 74, 0
2, 169312, Note_on_c, 0, 72, 68
2, 169372, Note_on_c, 0, 72, 0
2, 169400, Note_on_c, 0, 71, 56
2, 169458, Note_on_c, 0, 71, 0
2, 169488, Note_on_c, 0, 72, 75
2, 169520, Note_on_c, 0, 60, 25
2, 169596, Note_on_c, 0, 60, 0
2, 169784, Note_on_c, 0, 67, 61
2, 169804, Note_on_c, 0, 64, 38
2, 169924, Note_on_c, 0, 74, 79
2, 169933, Note_on_c, 0, 72, 0
2, 169976, Note_on_c, 0, 74, 0
2, 170002, Note_on_c, 0, 67, 0
2, 170008, Note_on_c, 0, 64, 0
2, 170050, Note_on_c, 0, 60, 54
2, 170060, Note_on_c, 0, 76, 72
2, 170104, Note_on_c, 0, 76, 0
2, 170190, Note_on_c, 0, 60, 0
2, 170202, Note_on_c, 0, 62, 62
2, 170206, Note_on_c, 0, 77, 83
2, 170246, Note_on_c, 0, 77, 0
2, 170276, Note_on_c, 0, 62, 0
2, 170364, Note_on_c, 0, 79, 70
2, 170376, Note_on_c, 0, 64, 37
2, 170456, Note_on_c, 0, 64, 0
2, 170520, Note_on_c, 0, 65, 42
2, 170592, Note_on_c, 0, 65, 0
2, 170620, Note_on_c, 0, 79, 0
2, 170644, Note_on_c, 0, 72, 60
2, 170656, Note_on_c, 0, 67, 45
2, 170728, Note_on_c, 0, 67, 0
2, 170730, Note_on_c, 0, 72, 0
2, 170774, Note_on_c, 0, 64, 60
2, 170836, Note_on_c, 0, 64, 0
2, 170946, Note_on_c, 0, 69, 46
2, 170952, Note_on_c, 0, 72, 79
2, 170982, Note_on_c, 0, 65, 37
2, 170994, Note_on_c, 0, 72, 0
2, 171018, Note_on_c, 0, 74, 59
2, 171036, Note_on_c, 0, 69, 0
2, 171046, Note_on_c, 0, 65, 0
2, 171060, Note_on_c, 0, 72, 67
2, 171078, Note_on_c, 0, 74, 0
2, 171164, Note_on_c, 0, 72, 0
2, 171190, Note_on_c, 0, 71, 28
2, 171232, Note_on_c, 0, 72, 85
2, 171246, Note_on_c, 0, 60, 55
2, 171266, Note_on_c, 0, 71, 0
2, 171308, Note_on_c, 0, 60, 0
2, 171332, Note_on_c, 0, 72, 0
2, 171518, Note_on_c, 0, 72, 80
2, 171534, Note_on_c, 0, 67, 46
2, 171536, Note_on_c, 0, 64, 57
2, 171566, Note_on_c, 0, 72, 0
2, 171592, Note_on_c, 0, 74, 64
2, 171598, Note_on_c, 0, 64, 0
2, 171638, Note_on_c, 0, 67, 0
2, 171644, Note_on_c, 0, 72, 63
2, 171648, Note_on_c, 0, 74, 0
2, 171730, Note_on_c, 0, 72, 0
2, 171754, Note_on_c, 0, 71, 62
2, 171808, Note_on_c, 0, 71, 0
2, 171830, Note_on_c, 0, 72, 79
2, 171854, Note_on_c, 0, 60, 49
2, 171954, Note_on_c, 0, 60, 0
2, 172122, Note_on_c, 0, 69, 54
2, 172144, Note_on_c, 0, 65, 61
2, 172236, Note_on_c, 0, 69, 0
2, 172272, Note_on_c, 0, 76, 79
2, 172272, Note_on_c, 0, 70, 65
2, 172294, Note_on_c, 0, 72, 0
2, 172306, Note_on_c, 0, 65, 0
2, 172324, Note_on_c, 0, 76, 0
2, 172352, Note_on_c, 0, 70, 0
2, 172410, Note_on_c, 0, 69, 59
2, 172412, Note_on_c, 0, 77, 88
2, 172452, Note_on_c, 0, 77, 0
2, 172478, Note_on_c, 0, 69, 0
2, 172564, Note_on_c, 0, 79, 91
2, 172572, Note_on_c, 0, 67, 55
2, 172612, Note_on_c, 0, 79, 0
2, 172656, Note_on_c, 0, 67, 0
2, 172720, Note_on_c, 0, 81, 78
2, 172723, Note_on_c, 0, 65, 48
2, 172866, Note_on_c, 0, 65, 0
2, 172878, Note_on_c, 0, 67, 54
2, 172946, Note_on_c, 0, 67, 0
2, 173002, Note_on_c, 0, 81, 0
2, 173022, Note_on_c, 0, 69, 36
2, 173024, Note_on_c, 0, 72, 46
2, 173120, Note_on_c, 0, 69, 0
2, 173156, Note_on_c, 0, 65, 48
2, 173162, Note_on_c, 0, 72, 0
2, 173232, Note_on_c, 0, 65, 0
2, 173312, Note_on_c, 0, 70, 57
2, 173332, Note_on_c, 0, 67, 55
2, 173348, Note_on_c, 0, 72, 23
2, 173356, Note_on_c, 0, 74, 51
2, 173398, Note_on_c, 0, 67, 0
2, 173432, Note_on_c, 0, 70, 0
2, 173478, Note_on_c, 0, 74, 0
2, 173522, Note_on_c, 0, 72, 0
2, 173525, Note_on_c, 0, 71, 80
2, 173586, Note_on_c, 0, 71, 0
2, 173606, Note_on_c, 0, 72, 69
2, 173610, Note_on_c, 0, 60, 36
2, 173696, Note_on_c, 0, 60, 0
2, 173726, Note_on_c, 0, 72, 0
2, 173896, Note_on_c, 0, 69, 52
2, 173904, Note_on_c, 0, 72, 72
2, 173926, Note_on_c, 0, 65, 32
2, 173950, Note_on_c, 0, 72, 0
2, 173964, Note_on_c, 0, 74, 76
2, 173982, Note_on_c, 0, 69, 0
2, 173996, Note_on_c, 0, 65, 0
2, 174012, Note_on_c, 0, 72, 77
2, 174015, Note_on_c, 0, 74, 0
2, 174098, Note_on_c, 0, 72, 0
2, 174122, Note_on_c, 0, 71, 56
2, 174182, Note_on_c, 0, 71, 0
2, 174194, Note_on_c, 0, 72, 63
2, 174234, Note_on_c, 0, 60, 46
2, 174296, Note_on_c, 0, 60, 0
2, 174480, Note_on_c, 0, 67, 57
2, 174488, Note_on_c, 0, 64, 65
2, 174554, Note_on_c, 0, 64, 0
2, 174588, Note_on_c, 0, 67, 0
2, 174608, Note_on_c, 0, 76, 49
2, 174620, Note_on_c, 0, 72, 0
2, 174638, Note_on_c, 0, 65, 41
2, 174664, Note_on_c, 0, 76, 0
2, 174716, Note_on_c, 0, 65, 0
2, 174746, Note_on_c, 0, 79, 77
2, 174756, Note_on_c, 0, 64, 61
2, 174796, Note_on_c, 0, 79, 0
2, 174822, Note_on_c, 0, 64, 0
2, 174888, Note_on_c, 0, 81, 74
2, 174906, Note_on_c, 0, 62, 51
2, 174938, Note_on_c, 0, 81, 0
2, 174960, Note_on_c, 0, 62, 0
2, 175044, Note_on_c, 0, 60, 51
2, 175044, Note_on_c, 0, 82, 69
2, 175182, Note_on_c, 0, 60, 0
2, 175192, Note_on_c, 0, 58, 42
2, 175294, Note_on_c, 0, 58, 0
2, 175340, Note_on_c, 0, 72, 60
2, 175340, Note_on_c, 0, 57, 38
2, 175346, Note_on_c, 0, 82, 0
2, 175432, Note_on_c, 0, 57, 0
2, 175468, Note_on_c, 0, 55, 67
2, 175628, Note_on_c, 0, 55, 0
2, 175638, Note_on_c, 0, 53, 93
2, 175716, Note_on_c, 0, 53, 0
2, 175784, Note_on_c, 0, 82, 84
2, 175788, Note_on_c, 0, 55, 80
2, 175794, Note_on_c, 0, 72, 0
2, 175942, Note_on_c, 0, 55, 0
2, 175945, Note_on_c, 0, 53, 92
2, 175952, Note_on_c, 0, 81, 98
2, 176004, Note_on_c, 0, 82, 0
2, 176084, Note_on_c, 0, 53, 0
2, 176108, Note_on_c, 0, 79, 87
2, 176120, Note_on_c, 0, 51, 64
2, 176130, Note_on_c, 0, 81, 0
2, 176188, Note_on_c, 0, 77, 77
2, 176198, Note_on_c, 0, 51, 0
2, 176244, Note_on_c, 0, 79, 0
2, 176246, Note_on_c, 0, 77, 0
2, 176250, Note_on_c, 0, 50, 68
2, 176262, Note_on_c, 0, 84, 95
2, 176398, Note_on_c, 0, 50, 0
2, 176404, Note_on_c, 0, 48, 52
2, 176536, Note_on_c, 0, 48, 0
2, 176546, Note_on_c, 0, 46, 53
2, 176560, Note_on_c, 0, 75, 79
2, 176574, Note_on_c, 0, 84, 0
2, 176692, Note_on_c, 0, 46, 0
2, 176712, Note_on_c, 0, 45, 68
2, 176830, Note_on_c, 0, 46, 82
2, 176840, Note_on_c, 0, 45, 0
2, 176990, Note_on_c, 0, 74, 83
2, 176998, Note_on_c, 0, 53, 98
2, 177014, Note_on_c, 0, 46, 0
2, 177016, Note_on_c, 0, 75, 0
2, 177030, Note_on_c, 0, 74, 0
2, 177050, Note_on_c, 0, 72, 64
2, 177092, Note_on_c, 0, 53, 0
2, 177100, Note_on_c, 0, 72, 0
2, 177106, Note_on_c, 0, 74, 84
2, 177122, Note_on_c, 0, 58, 76
2, 177256, Note_on_c, 0, 72, 91
2, 177275, Note_on_c, 0, 74, 0
2, 177308, Note_on_c, 0, 72, 0
2, 177322, Note_on_c, 0, 70, 84
2, 177376, Note_on_c, 0, 70, 0
2, 177404, Note_on_c, 0, 79, 116
2, 177526, Note_on_c, 0, 58, 0
2, 177554, Note_on_c, 0, 55, 77
2, 177708, Note_on_c, 0, 53, 107
2, 177714, Note_on_c, 0, 55, 0
2, 177714, Note_on_c, 0, 70, 92
2, 177722, Note_on_c, 0, 79, 0
2, 177828, Note_on_c, 0, 53, 0
2, 177846, Note_on_c, 0, 52, 100
2, 177996, Note_on_c, 0, 53, 121
2, 178018, Note_on_c, 0, 52, 0
2, 178148, Note_on_c, 0, 53, 0
2, 178154, Note_on_c, 0, 69, 70
2, 178154, Note_on_c, 0, 57, 76
2, 178172, Note_on_c, 0, 70, 0
2, 178202, Note_on_c, 0, 69, 0
2, 178205, Note_on_c, 0, 67, 91
2, 178256, Note_on_c, 0, 67, 0
2, 178256, Note_on_c, 0, 57, 0
2, 178256, Note_on_c, 0, 69, 78
2, 178288, Note_on_c, 0, 60, 77
2, 178418, Note_on_c, 0, 67, 105
2, 178440, Note_on_c, 0, 69, 0
2, 178476, Note_on_c, 0, 67, 0
2, 178510, Note_on_c, 0, 65, 67
2, 178566, Note_on_c, 0, 74, 116
2, 178574, Note_on_c, 0, 65, 0
2, 178694, Note_on_c, 0, 60, 0
2, 178710, Note_on_c, 0, 74, 0
2, 178710, Note_on_c, 0, 59, 77
2, 178814, Note_on_c, 0, 59, 0
2, 178828, Note_on_c, 0, 57, 76
2, 178840, Note_on_c, 0, 65, 100
2, 178942, Note_on_c, 0, 65, 0
2, 178984, Note_on_c, 0, 57, 0
2, 178998, Note_on_c, 0, 59, 83
2, 179096, Note_on_c, 0, 67, 85
2, 179106, Note_on_c, 0, 59, 0
2, 179124, Note_on_c, 0, 60, 82
2, 179127, Note_on_c, 0, 65, 70
2, 179142, Note_on_c, 0, 67, 0
2, 179174, Note_on_c, 0, 65, 0
2, 179202, Note_on_c, 0, 67, 70
2, 179244, Note_on_c, 0, 65, 63
2, 179258, Note_on_c, 0, 67, 0
2, 179272, Note_on_c, 0, 60, 0
2, 179274, Note_on_c, 0, 55, 94
2, 179294, Note_on_c, 0, 65, 0
2, 179306, Note_on_c, 0, 67, 87
2, 179356, Note_on_c, 0, 67, 0
2, 179360, Note_on_c, 0, 65, 76
2, 179410, Note_on_c, 0, 55, 0
2, 179418, Note_on_c, 0, 65, 0
2, 179418, Note_on_c, 0, 60, 74
2, 179424, Note_on_c, 0, 64, 83
2, 179540, Note_on_c, 0, 64, 0
2, 179556, Note_on_c, 0, 60, 0
2, 179560, Note_on_c, 0, 62, 94
2, 179668, Note_on_c, 0, 62, 0
2, 179700, Note_on_c, 0, 64, 85
2, 179826, Note_on_c, 0, 64, 0
2, 179842, Note_on_c, 0, 60, 88
2, 179992, Note_on_c, 0, 82, 92
2, 180010, Note_on_c, 0, 62, 85
2, 180018, Note_on_c, 0, 60, 0
2, 180166, Note_on_c, 0, 62, 0
2, 180166, Note_on_c, 0, 64, 82
2, 180296, Note_on_c, 0, 64, 0
2, 180306, Note_on_c, 0, 81, 99
2, 180326, Note_on_c, 0, 82, 0
2, 180336, Note_on_c, 0, 65, 67
2, 180442, Note_on_c, 0, 82, 84
2, 180484, Note_on_c, 0, 81, 0
2, 180596, Note_on_c, 0, 84, 102
2, 180618, Note_on_c, 0, 57, 60
2, 180620, Note_on_c, 0, 65, 0
2, 180624, Note_on_c, 0, 82, 0
2, 180728, Note_on_c, 0, 77, 101
2, 180762, Note_on_c, 0, 84, 0
2, 180870, Note_on_c, 0, 77, 0
2, 180888, Note_on_c, 0, 58, 65
2, 180890, Note_on_c, 0, 81, 105
2, 180918, Note_on_c, 0, 57, 0
2, 181044, Note_on_c, 0, 79, 109
2, 181074, Note_on_c, 0, 81, 0
2, 181190, Note_on_c, 0, 58, 0
2, 181200, Note_on_c, 0, 60, 49
2, 181204, Note_on_c, 0, 77, 90
2, 181212, Note_on_c, 0, 79, 0
2, 181345, Note_on_c, 0, 77, 0
2, 181345, Note_on_c, 0, 76, 80
2, 181472, Note_on_c, 0, 60, 0
2, 181488, Note_on_c, 0, 76, 0
2, 181506, Note_on_c, 0, 77, 76
2, 181522, Note_on_c, 0, 62, 51
2, 181664, Note_on_c, 0, 72, 72
2, 181688, Note_on_c, 0, 77, 0
2, 181796, Note_on_c, 0, 72, 0
2, 181816, Note_on_c, 0, 74, 72
2, 181819, Note_on_c, 0, 62, 0
2, 181826, Note_on_c, 0, 58, 30
2, 181958, Note_on_c, 0, 74, 0
2, 181962, Note_on_c, 0, 77, 68
2, 182106, Note_on_c, 0, 70, 53
2, 182128, Note_on_c, 0, 58, 0
2, 182148, Note_on_c, 0, 53, 71
2, 182194, Note_on_c, 0, 77, 0
2, 182252, Note_on_c, 0, 70, 0
2, 182252, Note_on_c, 0, 69, 59
2, 182268, Note_on_c, 0, 53, 0
2, 182384, Note_on_c, 0, 69, 0
2, 182398, Note_on_c, 0, 70, 63
2, 182422, Note_on_c, 0, 62, 67
2, 182546, Note_on_c, 0, 74, 85
2, 182562, Note_on_c, 0, 70, 0
2, 182696, Note_on_c, 0, 74, 0
2, 182708, Note_on_c, 0, 77, 74
2, 182714, Note_on_c, 0, 60, 78
2, 182720, Note_on_c, 0, 62, 0
2, 182848, Note_on_c, 0, 70, 69
2, 182870, Note_on_c, 0, 77, 0
2, 183000, Note_on_c, 0, 57, 54
2, 183008, Note_on_c, 0, 70, 0
2, 183008, Note_on_c, 0, 72, 62
2, 183024, Note_on_c, 0, 60, 0
2, 183154, Note_on_c, 0, 77, 61
2, 183164, Note_on_c, 0, 72, 0
2, 183258, Note_on_c, 0, 77, 0
2, 183272, Note_on_c, 0, 57, 0
2, 183284, Note_on_c, 0, 69, 48
2, 183298, Note_on_c, 0, 53, 67
2, 183422, Note_on_c, 0, 53, 0
2, 183432, Note_on_c, 0, 69, 0
2, 183432, Note_on_c, 0, 67, 65
2, 183548, Note_on_c, 0, 67, 0
2, 183578, Note_on_c, 0, 69, 74
2, 183582, Note_on_c, 0, 60, 69
2, 183686, Note_on_c, 0, 69, 0
2, 183716, Note_on_c, 0, 72, 80
2, 183868, Note_on_c, 0, 72, 0
2, 183868, Note_on_c, 0, 77, 92
2, 183880, Note_on_c, 0, 59, 72
2, 183888, Note_on_c, 0, 60, 0
2, 184000, Note_on_c, 0, 69, 77
2, 184036, Note_on_c, 0, 77, 0
2, 184102, Note_on_c, 0, 69, 0
2, 184136, Note_on_c, 0, 59, 0
2, 184146, Note_on_c, 0, 71, 103
2, 184152, Note_on_c, 0, 62, 79
2, 184276, Note_on_c, 0, 71, 0
2, 184292, Note_on_c, 0, 77, 93
2, 184404, Note_on_c, 0, 77, 0
2, 184428, Note_on_c, 0, 67, 94
2, 184440, Note_on_c, 0, 62, 0
2, 184444, Note_on_c, 0, 59, 77
2, 184554, Note_on_c, 0, 65, 100
2, 184557, Note_on_c, 0, 67, 0
2, 184694, Note_on_c, 0, 65, 0
2, 184710, Note_on_c, 0, 67, 97
2, 184716, Note_on_c, 0, 55, 85
2, 184738, Note_on_c, 0, 59, 0
2, 184832, Note_on_c, 0, 67, 0
2, 184866, Note_on_c, 0, 77, 71
2, 184992, Note_on_c, 0, 55, 0
2, 185004, Note_on_c, 0, 76, 98
2, 185014, Note_on_c, 0, 77, 0
2, 185022, Note_on_c, 0, 60, 80
2, 185152, Note_on_c, 0, 77, 103
2, 185172, Note_on_c, 0, 76, 0
2, 185176, Note_on_c, 0, 60, 0
2, 185286, Note_on_c, 0, 48, 102
2, 185290, Note_on_c, 0, 79, 109
2, 185320, Note_on_c, 0, 77, 0
2, 185444, Note_on_c, 0, 77, 98
2, 185494, Note_on_c, 0, 79, 0
2, 185588, Note_on_c, 0, 76, 97
2, 185598, Note_on_c, 0, 50, 120
2, 185616, Note_on_c, 0, 77, 0
2, 185650, Note_on_c, 0, 48, 0
2, 185728, Note_on_c, 0, 74, 106
2, 185748, Note_on_c, 0, 76, 0
2, 185866, Note_on_c, 0, 72, 101
2, 185868, Note_on_c, 0, 52, 114
2, 185870, Note_on_c, 0, 74, 0
2, 185892, Note_on_c, 0, 50, 0
2, 185998, Note_on_c, 0, 70, 92
2, 186048, Note_on_c, 0, 72, 0
2, 186124, Note_on_c, 0, 52, 0
2, 186154, Note_on_c, 0, 69, 102
2, 186154, Note_on_c, 0, 53, 127
2, 186182, Note_on_c, 0, 70, 0
2, 186290, Note_on_c, 0, 70, 87
2, 186320, Note_on_c, 0, 53, 0
2, 186334, Note_on_c, 0, 69, 0
2, 186432, Note_on_c, 0, 72, 92
2, 186442, Note_on_c, 0, 45, 113
2, 186460, Note_on_c, 0, 70, 0
2, 186566, Note_on_c, 0, 65, 100
2, 186600, Note_on_c, 0, 72, 0
2, 186668, Note_on_c, 0, 65, 0
2, 186680, Note_on_c, 0, 45, 0
2, 186710, Note_on_c, 0, 69, 101
2, 186724, Note_on_c, 0, 46, 101
2, 186852, Note_on_c, 0, 67, 110
2, 186888, Note_on_c, 0, 69, 0
2, 186892, Note_on_c, 0, 46, 0
2, 186986, Note_on_c, 0, 48, 106
2, 186996, Note_on_c, 0, 65, 102
2, 187008, Note_on_c, 0, 67, 0
2, 187088, Note_on_c, 0, 48, 0
2, 187122, Note_on_c, 0, 64, 115
2, 187130, Note_on_c, 0, 65, 0
2, 187266, Note_on_c, 0, 64, 0
2, 187294, Note_on_c, 0, 53, 127
2, 187296, Note_on_c, 0, 45, 117
2, 187298, Note_on_c, 0, 41, 127
2, 187300, Note_on_c, 0, 48, 120
2, 187300, Note_on_c, 0, 65, 126
2, 187454, Control_c, 0, 64, 127
2, 187456, Note_on_c, 0, 65, 0
2, 187568, Note_on_c, 0, 53, 0
2, 187572, Note_on_c, 0, 77, 124
2, 187590, Note_on_c, 0, 45, 0
2, 187596, Note_on_c, 0, 48, 0
2, 187628, Note_on_c, 0, 41, 0
2, 187672, Note_on_c, 0, 77, 0
2, 187860, Note_on_c, 0, 69, 111
2, 187862, Note_on_c, 0, 65, 114
2, 187902, Control_c, 0, 64, 0
2, 187950, Note_on_c, 0, 69, 0
2, 187980, Note_on_c, 0, 65, 0
2, 188144, Note_on_c, 0, 70, 103
2, 188146, Note_on_c, 0, 67, 109
2, 188256, Note_on_c, 0, 67, 0
2, 188260, Note_on_c, 0, 70, 0
2, 188454, Note_on_c, 0, 72, 117
2, 188457, Note_on_c, 0, 69, 98
2, 188754, Note_on_c, 0, 65, 101
2, 188864, Note_on_c, 0, 65, 0
2, 189016, Note_on_c, 0, 69, 0
2, 189046, Note_on_c, 0, 70, 91
2, 189048, Note_on_c, 0, 62, 105
2, 189052, Note_on_c, 0, 74, 113
2, 189118, Note_on_c, 0, 72, 0
2, 189220, Note_on_c, 0, 62, 0
2, 189354, Note_on_c, 0, 58, 82
2, 189414, Note_on_c, 0, 70, 0
2, 189536, Note_on_c, 0, 58, 0
2, 189598, Note_on_c, 0, 74, 0
2, 189646, Note_on_c, 0, 72, 114
2, 189649, Note_on_c, 0, 65, 88
2, 189652, Note_on_c, 0, 69, 83
2, 189916, Note_on_c, 0, 69, 0
2, 189962, Note_on_c, 0, 77, 110
2, 189965, Note_on_c, 0, 53, 127
2, 190036, Note_on_c, 0, 72, 0
2, 190104, Note_on_c, 0, 53, 0
2, 190268, Note_on_c, 0, 70, 90
2, 190278, Note_on_c, 0, 50, 105
2, 190390, Note_on_c, 0, 50, 0
2, 190564, Note_on_c, 0, 75, 95
2, 190564, Note_on_c, 0, 46, 76
2, 190576, Note_on_c, 0, 65, 0
2, 190624, Note_on_c, 0, 70, 0
2, 190638, Note_on_c, 0, 77, 0
2, 190694, Note_on_c, 0, 74, 106
2, 190712, Note_on_c, 0, 46, 0
2, 190728, Note_on_c, 0, 74, 0
2, 190728, Note_on_c, 0, 75, 0
2, 190742, Control_c, 0, 64, 127
2, 190804, Control_c, 0, 64, 0
2, 190842, Note_on_c, 0, 53, 125
2, 190850, Note_on_c, 0, 65, 105
2, 190852, Note_on_c, 0, 70, 88
2, 190858, Note_on_c, 0, 74, 80
2, 190880, Note_on_c, 0, 72, 61
2, 190940, Note_on_c, 0, 72, 0
2, 191152, Note_on_c, 0, 53, 0
2, 191190, Note_on_c, 0, 70, 0
2, 191196, Note_on_c, 0, 69, 77
2, 191202, Note_on_c, 0, 72, 92
2, 191202, Note_on_c, 0, 41, 95
2, 191248, Note_on_c, 0, 74, 0
2, 191480, Control_c, 0, 64, 127
2, 191486, Note_on_c, 0, 41, 0
2, 191508, Note_on_c, 0, 65, 0
2, 191594, Note_on_c, 0, 69, 0
2, 191614, Note_on_c, 0, 72, 0
2, 191618, Control_c, 0, 64, 0
2, 192212, Note_on_c, 0, 60, 127
2, 192214, Note_on_c, 0, 55, 123
2, 192214, Note_on_c, 0, 52, 125
2, 192218, Note_on_c, 0, 48, 115
2, 192496, Note_on_c, 0, 84, 125
2, 192598, Note_on_c, 0, 60, 0
2, 192602, Control_c, 0, 64, 127
2, 192634, Note_on_c, 0, 84, 0
2, 192658, Note_on_c, 0, 55, 0
2, 192664, Note_on_c, 0, 48, 0
2, 192712, Note_on_c, 0, 52, 0
2, 192794, Note_on_c, 0, 72, 109
2, 192797, Note_on_c, 0, 76, 106
2, 192894, Note_on_c, 0, 72, 0
2, 192896, Control_c, 0, 64, 0
2, 192906, Note_on_c, 0, 76, 0
2, 193088, Note_on_c, 0, 74, 108
2, 193090, Note_on_c, 0, 77, 114
2, 193208, Note_on_c, 0, 74, 0
2, 193224, Note_on_c, 0, 77, 0
2, 193386, Note_on_c, 0, 79, 125
2, 193388, Note_on_c, 0, 76, 106
2, 193686, Note_on_c, 0, 72, 106
2, 193816, Note_on_c, 0, 72, 0
2, 193968, Note_on_c, 0, 69, 108
2, 193974, Note_on_c, 0, 81, 116
2, 193978, Note_on_c, 0, 77, 109
2, 194016, Note_on_c, 0, 76, 0
2, 194044, Note_on_c, 0, 79, 0
2, 194132, Note_on_c, 0, 69, 0
2, 194272, Note_on_c, 0, 65, 101
2, 194308, Note_on_c, 0, 77, 0
2, 194482, Note_on_c, 0, 65, 0
2, 194528, Note_on_c, 0, 81, 0
2, 194586, Note_on_c, 0, 79, 121
2, 194588, Note_on_c, 0, 76, 95
2, 194592, Note_on_c, 0, 72, 92
2, 194886, Note_on_c, 0, 76, 0
2, 194902, Note_on_c, 0, 84, 118
2, 194902, Note_on_c, 0, 60, 101
2, 195023, Note_on_c, 0, 60, 0
2, 195064, Note_on_c, 0, 79, 0
2, 195212, Note_on_c, 0, 57, 98
2, 195212, Note_on_c, 0, 77, 101
2, 195322, Note_on_c, 0, 57, 0
2, 195508, Note_on_c, 0, 82, 97
2, 195510, Note_on_c, 0, 53, 115
2, 195552, Note_on_c, 0, 72, 0
2, 195558, Note_on_c, 0, 53, 0
2, 195564, Note_on_c, 0, 77, 0
2, 195570, Note_on_c, 0, 84, 0
2, 195614, Control_c, 0, 64, 127
2, 195628, Note_on_c, 0, 81, 101
2, 195666, Note_on_c, 0, 81, 0
2, 195682, Note_on_c, 0, 82, 0
2, 195706, Control_c, 0, 64, 0
2, 195784, Note_on_c, 0, 60, 94
2, 195786, Note_on_c, 0, 81, 108
2, 195789, Note_on_c, 0, 77, 109
2, 195789, Note_on_c, 0, 72, 101
2, 196054, Note_on_c, 0, 60, 0
2, 196084, Note_on_c, 0, 77, 0
2, 196088, Note_on_c, 0, 72, 0
2, 196096, Note_on_c, 0, 76, 78
2, 196098, Note_on_c, 0, 79, 105
2, 196108, Note_on_c, 0, 48, 77
2, 196124, Note_on_c, 0, 81, 0
2, 196244, Control_c, 0, 64, 127
2, 196262, Note_on_c, 0, 79, 0
2, 196276, Note_on_c, 0, 76, 0
2, 196279, Note_on_c, 0, 48, 0
2, 196412, Control_c, 0, 64, 0
2, 196698, Note_on_c, 0, 72, 55
2, 196828, Note_on_c, 0, 70, 63
2, 196852, Note_on_c, 0, 72, 0
2, 196930, Note_on_c, 0, 70, 0
2, 196958, Note_on_c, 0, 69, 53
2, 197038, Note_on_c, 0, 69, 0
2, 197096, Note_on_c, 0, 70, 75
2, 197118, Note_on_c, 0, 55, 56
2, 197118, Note_on_c, 0, 60, 52
2, 197134, Note_on_c, 0, 52, 57
2, 197228, Note_on_c, 0, 70, 0
2, 197414, Note_on_c, 0, 79, 91
2, 197482, Note_on_c, 0, 60, 0
2, 197484, Note_on_c, 0, 55, 0
2, 197500, Note_on_c, 0, 52, 0
2, 197742, Note_on_c, 0, 60, 57
2, 197752, Note_on_c, 0, 52, 54
2, 197756, Note_on_c, 0, 55, 47
2, 197762, Note_on_c, 0, 48, 32
2, 197776, Note_on_c, 0, 79, 0
2, 197884, Note_on_c, 0, 70, 71
2, 197888, Control_c, 0, 64, 127
2, 198010, Control_c, 0, 64, 0
2, 198018, Note_on_c, 0, 69, 63
2, 198028, Note_on_c, 0, 70, 0
2, 198144, Note_on_c, 0, 55, 0
2, 198146, Note_on_c, 0, 48, 0
2, 198146, Note_on_c, 0, 52, 0
2, 198156, Note_on_c, 0, 67, 77
2, 198168, Note_on_c, 0, 69, 0
2, 198306, Note_on_c, 0, 69, 74
2, 198308, Note_on_c, 0, 67, 0
2, 198320, Note_on_c, 0, 53, 91
2, 198424, Note_on_c, 0, 60, 0
2, 198454, Note_on_c, 0, 67, 80
2, 198462, Note_on_c, 0, 69, 0
2, 198588, Note_on_c, 0, 67, 0
2, 198594, Note_on_c, 0, 65, 68
2, 198620, Note_on_c, 0, 57, 59
2, 198734, Note_on_c, 0, 67, 88
2, 198742, Note_on_c, 0, 65, 0
2, 198876, Note_on_c, 0, 69, 95
2, 198884, Note_on_c, 0, 53, 0
2, 198884, Note_on_c, 0, 67, 0
2, 198902, Note_on_c, 0, 60, 71
2, 198914, Note_on_c, 0, 57, 0
2, 199006, Note_on_c, 0, 70, 94
2, 199026, Note_on_c, 0, 69, 0
2, 199132, Note_on_c, 0, 60, 0
2, 199156, Note_on_c, 0, 70, 0
2, 199158, Note_on_c, 0, 72, 109
2, 199166, Note_on_c, 0, 65, 64
2, 199268, Note_on_c, 0, 65, 0
2, 199284, Note_on_c, 0, 74, 113
2, 199306, Note_on_c, 0, 72, 0
2, 199390, Note_on_c, 0, 74, 0
2, 199436, Note_on_c, 0, 75, 111
2, 199448, Note_on_c, 0, 60, 86
2, 199448, Note_on_c, 0, 65, 84
2, 199448, Note_on_c, 0, 57, 78
2, 199552, Note_on_c, 0, 75, 0
2, 199760, Note_on_c, 0, 84, 120
2, 199866, Note_on_c, 0, 65, 0
2, 199880, Note_on_c, 0, 60, 0
2, 199896, Note_on_c, 0, 57, 0
2, 199962, Control_c, 0, 64, 127
2, 200068, Note_on_c, 0, 65, 95
2, 200072, Note_on_c, 0, 60, 88
2, 200074, Note_on_c, 0, 57, 74
2, 200078, Note_on_c, 0, 53, 107
2, 200090, Note_on_c, 0, 84, 0
2, 200208, Note_on_c, 0, 75, 101
2, 200330, Control_c, 0, 64, 0
2, 200352, Note_on_c, 0, 74, 105
2, 200378, Note_on_c, 0, 75, 0
2, 200488, Note_on_c, 0, 72, 100
2, 200510, Note_on_c, 0, 74, 0
2, 200620, Note_on_c, 0, 60, 0
2, 200624, Note_on_c, 0, 72, 0
2, 200636, Note_on_c, 0, 58, 76
2, 200648, Note_on_c, 0, 74, 120
2, 200694, Note_on_c, 0, 57, 0
2, 200784, Note_on_c, 0, 72, 108
2, 200800, Note_on_c, 0, 53, 0
2, 200810, Note_on_c, 0, 74, 0
2, 200830, Note_on_c, 0, 65, 0
2, 200914, Note_on_c, 0, 70, 95
2, 200932, Note_on_c, 0, 72, 0
2, 200932, Note_on_c, 0, 62, 82
2, 201060, Note_on_c, 0, 72, 107
2, 201078, Note_on_c, 0, 70, 0
2, 201206, Note_on_c, 0, 74, 116
2, 201214, Note_on_c, 0, 65, 90
2, 201226, Note_on_c, 0, 62, 0
2, 201234, Note_on_c, 0, 72, 0
2, 201328, Note_on_c, 0, 58, 0
2, 201350, Note_on_c, 0, 76, 106
2, 201356, Note_on_c, 0, 74, 0
2, 201466, Note_on_c, 0, 65, 0
2, 201472, Note_on_c, 0, 76, 0
2, 201486, Note_on_c, 0, 77, 114
2, 201498, Note_on_c, 0, 70, 93
2, 201612, Note_on_c, 0, 70, 0
2, 201615, Note_on_c, 0, 79, 123
2, 201642, Note_on_c, 0, 77, 0
2, 201780, Note_on_c, 0, 71, 125
2, 201780, Note_on_c, 0, 80, 114
2, 201783, Note_on_c, 0, 65, 102
2, 201790, Note_on_c, 0, 62, 98
2, 201802, Note_on_c, 0, 79, 0
2, 201970, Note_on_c, 0, 80, 0
2, 201976, Note_on_c, 0, 79, 106
2, 202014, Note_on_c, 0, 79, 0
2, 202034, Note_on_c, 0, 77, 97
2, 202072, Note_on_c, 0, 77, 0
2, 202088, Note_on_c, 0, 79, 92
2, 202198, Note_on_c, 0, 65, 0
2, 202208, Note_on_c, 0, 71, 0
2, 202256, Note_on_c, 0, 62, 0
2, 202390, Note_on_c, 0, 67, 97
2, 202400, Note_on_c, 0, 59, 86
2, 202440, Note_on_c, 0, 62, 36
2, 202570, Note_on_c, 0, 79, 0
2, 202582, Note_on_c, 0, 77, 79
2, 202622, Note_on_c, 0, 77, 0
2, 202638, Note_on_c, 0, 76, 80
2, 202680, Note_on_c, 0, 77, 94
2, 202686, Note_on_c, 0, 76, 0
2, 202820, Note_on_c, 0, 67, 0
2, 202840, Note_on_c, 0, 62, 0
2, 202866, Note_on_c, 0, 59, 0
2, 202974, Note_on_c, 0, 55, 88
2, 202992, Note_on_c, 0, 59, 47
2, 202994, Note_on_c, 0, 62, 87
2, 203156, Note_on_c, 0, 76, 68
2, 203159, Note_on_c, 0, 77, 0
2, 203202, Note_on_c, 0, 76, 0
2, 203202, Note_on_c, 0, 74, 87
2, 203250, Note_on_c, 0, 74, 0
2, 203254, Note_on_c, 0, 76, 85
2, 203424, Note_on_c, 0, 62, 0
2, 203430, Note_on_c, 0, 59, 0
2, 203466, Note_on_c, 0, 55, 0
2, 203598, Note_on_c, 0, 55, 52
2, 203606, Note_on_c, 0, 60, 61
2, 203606, Note_on_c, 0, 48, 54
2, 203764, Note_on_c, 0, 79, 84
2, 203776, Note_on_c, 0, 76, 0
2, 203916, Note_on_c, 0, 79, 0
2, 203920, Note_on_c, 0, 76, 62
2, 204030, Note_on_c, 0, 60, 0
2, 204036, Note_on_c, 0, 76, 0
2, 204038, Note_on_c, 0, 55, 0
2, 204052, Note_on_c, 0, 72, 70
2, 204060, Note_on_c, 0, 48, 0
2, 204182, Note_on_c, 0, 70, 59
2, 204200, Note_on_c, 0, 72, 0
2, 204316, Note_on_c, 0, 70, 0
2, 204338, Note_on_c, 0, 79, 69
2, 204482, Note_on_c, 0, 79, 0
2, 204486, Note_on_c, 0, 76, 54
2, 204486, Note_on_c, 0, 60, 49
2, 204576, Note_on_c, 0, 76, 0
2, 204598, Note_on_c, 0, 60, 0
2, 204604, Note_on_c, 0, 62, 79
2, 204620, Note_on_c, 0, 72, 61
2, 204696, Note_on_c, 0, 72, 0
2, 204700, Note_on_c, 0, 62, 0
2, 204744, Note_on_c, 0, 70, 55
2, 204748, Note_on_c, 0, 64, 86
2, 204807, Note_on_c, 0, 64, 0
2, 204856, Note_on_c, 0, 70, 0
2, 204904, Note_on_c, 0, 79, 68
2, 205034, Note_on_c, 0, 67, 83
2, 205054, Note_on_c, 0, 76, 62
2, 205066, Note_on_c, 0, 79, 0
2, 205092, Note_on_c, 0, 67, 0
2, 205200, Note_on_c, 0, 72, 59
2, 205220, Note_on_c, 0, 76, 0
2, 205290, Note_on_c, 0, 72, 0
2, 205332, Note_on_c, 0, 70, 56
2, 205335, Note_on_c, 0, 64, 85
2, 205382, Note_on_c, 0, 64, 0
2, 205438, Note_on_c, 0, 70, 0
2, 205492, Note_on_c, 0, 79, 70
2, 205610, Note_on_c, 0, 60, 70
2, 205624, Note_on_c, 0, 79, 0
2, 205632, Note_on_c, 0, 76, 60
2, 205662, Note_on_c, 0, 60, 0
2, 205774, Note_on_c, 0, 72, 68
2, 205802, Note_on_c, 0, 76, 0
2, 205890, Note_on_c, 0, 72, 0
2, 205898, Note_on_c, 0, 48, 77
2, 205906, Note_on_c, 0, 70, 62
2, 206062, Note_on_c, 0, 70, 0
2, 206068, Note_on_c, 0, 79, 82
2, 206174, Note_on_c, 0, 79, 0
2, 206200, Note_on_c, 0, 76, 65
2, 206280, Note_on_c, 0, 48, 0
2, 206334, Note_on_c, 0, 72, 71
2, 206360, Note_on_c, 0, 76, 0
2, 206476, Note_on_c, 0, 69, 67
2, 206482, Note_on_c, 0, 72, 0
2, 206584, Note_on_c, 0, 69, 0
2, 206606, Note_on_c, 0, 60, 83
2, 206606, Note_on_c, 0, 81, 76
2, 206742, Note_on_c, 0, 62, 76
2, 206745, Note_on_c, 0, 60, 0
2, 206749, Note_on_c, 0, 81, 0
2, 206754, Note_on_c, 0, 77, 68
2, 206864, Note_on_c, 0, 77, 0
2, 206864, Note_on_c, 0, 62, 0
2, 206878, Note_on_c, 0, 64, 83
2, 206878, Note_on_c, 0, 73, 72
2, 206960, Note_on_c, 0, 64, 0
2, 207016, Note_on_c, 0, 73, 0
2, 207022, Note_on_c, 0, 65, 97
2, 207024, Note_on_c, 0, 72, 69
2, 207092, Note_on_c, 0, 65, 0
2, 207126, Note_on_c, 0, 72, 0
2, 207180, Note_on_c, 0, 81, 70
2, 207322, Note_on_c, 0, 69, 75
2, 207330, Note_on_c, 0, 77, 79
2, 207336, Note_on_c, 0, 81, 0
2, 207382, Note_on_c, 0, 69, 0
2, 207460, Note_on_c, 0, 73, 70
2, 207466, Note_on_c, 0, 77, 0
2, 207604, Note_on_c, 0, 73, 0
2, 207614, Note_on_c, 0, 65, 87
2, 207614, Note_on_c, 0, 72, 75
2, 207668, Note_on_c, 0, 65, 0
2, 207760, Note_on_c, 0, 72, 0
2, 207760, Note_on_c, 0, 81, 77
2, 207892, Note_on_c, 0, 60, 97
2, 207900, Note_on_c, 0, 81, 0
2, 207906, Note_on_c, 0, 77, 79
2, 207970, Note_on_c, 0, 60, 0
2, 208032, Note_on_c, 0, 73, 76
2, 208052, Note_on_c, 0, 77, 0
2, 208180, Note_on_c, 0, 48, 100
2, 208186, Note_on_c, 0, 72, 90
2, 208188, Note_on_c, 0, 73, 0
2, 208326, Note_on_c, 0, 81, 91
2, 208356, Note_on_c, 0, 72, 0
2, 208468, Note_on_c, 0, 77, 94
2, 208480, Note_on_c, 0, 81, 0
2, 208542, Note_on_c, 0, 48, 0
2, 208566, Control_c, 0, 64, 127
2, 208602, Note_on_c, 0, 75, 88
2, 208618, Note_on_c, 0, 77, 0
2, 208644, Control_c, 0, 64, 0
2, 208752, Note_on_c, 0, 74, 98
2, 208764, Note_on_c, 0, 75, 0
2, 208893, Note_on_c, 0, 83, 123
2, 208897, Note_on_c, 0, 74, 0
2, 209024, Note_on_c, 0, 62, 93
2, 209024, Note_on_c, 0, 80, 97
2, 209072, Note_on_c, 0, 83, 0
2, 209158, Note_on_c, 0, 77, 100
2, 209161, Note_on_c, 0, 64, 107
2, 209166, Note_on_c, 0, 62, 0
2, 209190, Note_on_c, 0, 80, 0
2, 209276, Note_on_c, 0, 64, 0
2, 209310, Note_on_c, 0, 65, 109
2, 209320, Note_on_c, 0, 74, 79
2, 209334, Note_on_c, 0, 77, 0
2, 209418, Note_on_c, 0, 65, 0
2, 209454, Note_on_c, 0, 74, 0
2, 209457, Note_on_c, 0, 83, 118
2, 209596, Note_on_c, 0, 80, 90
2, 209604, Note_on_c, 0, 62, 106
2, 209636, Note_on_c, 0, 83, 0
2, 209730, Note_on_c, 0, 62, 0
2, 209736, Note_on_c, 0, 77, 98
2, 209740, Note_on_c, 0, 64, 105
2, 209764, Note_on_c, 0, 80, 0
2, 209842, Note_on_c, 0, 64, 0
2, 209886, Note_on_c, 0, 74, 107
2, 209888, Note_on_c, 0, 65, 115
2, 209912, Note_on_c, 0, 77, 0
2, 209972, Note_on_c, 0, 65, 0
2, 210026, Note_on_c, 0, 74, 0
2, 210026, Note_on_c, 0, 83, 122
2, 210170, Note_on_c, 0, 62, 115
2, 210173, Note_on_c, 0, 80, 92
2, 210214, Note_on_c, 0, 83, 0
2, 210222, Note_on_c, 0, 62, 0
2, 210302, Note_on_c, 0, 77, 100
2, 210324, Note_on_c, 0, 80, 0
2, 210450, Note_on_c, 0, 55, 117
2, 210460, Note_on_c, 0, 74, 102
2, 210464, Note_on_c, 0, 77, 0
2, 210548, Note_on_c, 0, 55, 0
2, 210580, Note_on_c, 0, 74, 0
2, 210600, Note_on_c, 0, 83, 121
2, 210736, Note_on_c, 0, 80, 88
2, 210738, Note_on_c, 0, 59, 105
2, 210762, Note_on_c, 0, 83, 0
2, 210772, Note_on_c, 0, 59, 0
2, 210870, Note_on_c, 0, 77, 97
2, 210884, Note_on_c, 0, 80, 0
2, 211014, Note_on_c, 0, 77, 0
2, 211014, Note_on_c, 0, 60, 115
2, 211024, Note_on_c, 0, 76, 90
2, 211166, Note_on_c, 0, 84, 100
2, 211176, Note_on_c, 0, 76, 0
2, 211192, Note_on_c, 0, 60, 0
2, 211304, Note_on_c, 0, 79, 107
2, 211314, Note_on_c, 0, 48, 95
2, 211317, Note_on_c, 0, 84, 0
2, 211432, Note_on_c, 0, 50, 92
2, 211435, Note_on_c, 0, 79, 0
2, 211438, Note_on_c, 0, 48, 0
2, 211444, Note_on_c, 0, 76, 95
2, 211570, Note_on_c, 0, 52, 126
2, 211570, Note_on_c, 0, 72, 101
2, 211580, Note_on_c, 0, 76, 0
2, 211580, Note_on_c, 0, 50, 0
2, 211616, Note_on_c, 0, 52, 0
2, 211698, Note_on_c, 0, 72, 0
2, 211712, Note_on_c, 0, 76, 94
2, 211854, Note_on_c, 0, 76, 0
2, 211856, Note_on_c, 0, 74, 106
2, 211859, Note_on_c, 0, 55, 107
2, 211904, Note_on_c, 0, 55, 0
2, 211968, Note_on_c, 0, 74, 0
2, 211986, Note_on_c, 0, 77, 100
2, 212134, Note_on_c, 0, 76, 101
2, 212137, Note_on_c, 0, 77, 0
2, 212149, Note_on_c, 0, 60, 110
2, 212274, Note_on_c, 0, 60, 0
2, 212277, Note_on_c, 0, 79, 109
2, 212312, Note_on_c, 0, 76, 0
2, 212418, Note_on_c, 0, 76, 64
2, 212426, Note_on_c, 0, 48, 75
2, 212436, Note_on_c, 0, 79, 0
2, 212540, Note_on_c, 0, 50, 88
2, 212546, Note_on_c, 0, 76, 0
2, 212551, Note_on_c, 0, 72, 84
2, 212558, Note_on_c, 0, 48, 0
2, 212616, Note_on_c, 0, 50, 0
2, 212688, Note_on_c, 0, 52, 102
2, 212690, Note_on_c, 0, 72, 0
2, 212694, Note_on_c, 0, 67, 78
2, 212728, Note_on_c, 0, 52, 0
2, 212824, Note_on_c, 0, 70, 77
2, 212838, Note_on_c, 0, 67, 0
2, 212972, Note_on_c, 0, 53, 114
2, 212972, Note_on_c, 0, 69, 77
2, 212978, Note_on_c, 0, 70, 0
2, 213016, Note_on_c, 0, 53, 0
2, 213100, Note_on_c, 0, 72, 84
2, 213108, Note_on_c, 0, 69, 0
2, 213252, Note_on_c, 0, 70, 85
2, 213262, Note_on_c, 0, 72, 0
2, 213266, Note_on_c, 0, 55, 103
2, 213396, Note_on_c, 0, 74, 95
2, 213406, Note_on_c, 0, 55, 0
2, 213412, Note_on_c, 0, 70, 0
2, 213530, Note_on_c, 0, 70, 71
2, 213542, Note_on_c, 0, 74, 0
2, 213545, Note_on_c, 0, 48, 92
2, 213666, Note_on_c, 0, 67, 88
2, 213666, Note_on_c, 0, 52, 113
2, 213686, Note_on_c, 0, 48, 0
2, 213688, Note_on_c, 0, 70, 0
2, 213766, Note_on_c, 0, 52, 0
2, 213798, Note_on_c, 0, 67, 0
2, 213806, Note_on_c, 0, 64, 92
2, 213814, Note_on_c, 0, 55, 114
2, 213918, Note_on_c, 0, 55, 0
2, 213936, Note_on_c, 0, 67, 95
2, 213968, Note_on_c, 0, 64, 0
2, 214098, Note_on_c, 0, 65, 99
2, 214108, Note_on_c, 0, 57, 98
2, 214114, Note_on_c, 0, 67, 0
2, 214186, Note_on_c, 0, 57, 0
2, 214240, Note_on_c, 0, 69, 84
2, 214260, Note_on_c, 0, 65, 0
2, 214378, Note_on_c, 0, 67, 99
2, 214384, Note_on_c, 0, 58, 100
2, 214418, Note_on_c, 0, 69, 0
2, 214526, Note_on_c, 0, 70, 82
2, 214560, Note_on_c, 0, 67, 0
2, 214590, Note_on_c, 0, 58, 0
2, 214656, Note_on_c, 0, 48, 84
2, 214658, Note_on_c, 0, 67, 69
2, 214702, Note_on_c, 0, 70, 0
2, 214776, Note_on_c, 0, 50, 105
2, 214788, Note_on_c, 0, 64, 94
2, 214806, Note_on_c, 0, 67, 0
2, 214814, Note_on_c, 0, 48, 0
2, 214886, Note_on_c, 0, 50, 0
2, 214922, Note_on_c, 0, 60, 92
2, 214930, Note_on_c, 0, 64, 0
2, 214938, Note_on_c, 0, 52, 117
2, 214974, Note_on_c, 0, 52, 0
2, 215044, Note_on_c, 0, 60, 0
2, 215054, Note_on_c, 0, 70, 76
2, 215208, Note_on_c, 0, 69, 78
2, 215218, Note_on_c, 0, 48, 91
2, 215260, Note_on_c, 0, 48, 0
2, 215268, Note_on_c, 0, 70, 0
2, 215346, Note_on_c, 0, 67, 93
2, 215364, Note_on_c, 0, 69, 0
2, 215498, Note_on_c, 0, 69, 90
2, 215500, Note_on_c, 0, 53, 127
2, 215520, Note_on_c, 0, 67, 0
2, 215622, Note_on_c, 0, 65, 84
2, 215640, Note_on_c, 0, 57, 85
2, 215648, Note_on_c, 0, 69, 0
2, 215662, Note_on_c, 0, 53, 0
2, 215750, Note_on_c, 0, 57, 0
2, 215760, Note_on_c, 0, 67, 99
2, 215763, Note_on_c, 0, 65, 0
2, 215772, Note_on_c, 0, 55, 93
2, 215892, Note_on_c, 0, 69, 94
2, 215898, Note_on_c, 0, 55, 0
2, 215898, Note_on_c, 0, 67, 0
2, 215908, Note_on_c, 0, 53, 108
2, 216016, Note_on_c, 0, 53, 0
2, 216018, Note_on_c, 0, 70, 92
2, 216024, Note_on_c, 0, 69, 0
2, 216044, Note_on_c, 0, 52, 106
2, 216136, Note_on_c, 0, 52, 0
2, 216152, Note_on_c, 0, 72, 106
2, 216170, Note_on_c, 0, 50, 94
2, 216174, Note_on_c, 0, 70, 0
2, 216278, Note_on_c, 0, 74, 115
2, 216284, Note_on_c, 0, 48, 85
2, 216296, Note_on_c, 0, 50, 0
2, 216322, Note_on_c, 0, 72, 0
2, 216404, Note_on_c, 0, 46, 79
2, 216416, Note_on_c, 0, 76, 105
2, 216428, Note_on_c, 0, 48, 0
2, 216442, Note_on_c, 0, 74, 0
2, 216540, Note_on_c, 0, 45, 97
2, 216554, Note_on_c, 0, 77, 113
2, 216557, Note_on_c, 0, 76, 0
2, 216564, Note_on_c, 0, 46, 0
2, 216680, Note_on_c, 0, 48, 102
2, 216688, Note_on_c, 0, 76, 106
2, 216724, Note_on_c, 0, 45, 0
2, 216736, Note_on_c, 0, 77, 0
2, 216826, Note_on_c, 0, 50, 115
2, 216828, Note_on_c, 0, 74, 114
2, 216838, Note_on_c, 0, 48, 0
2, 216848, Note_on_c, 0, 76, 0
2, 216926, Note_on_c, 0, 74, 0
2, 216952, Note_on_c, 0, 72, 107
2, 216955, Note_on_c, 0, 52, 120
2, 216960, Note_on_c, 0, 50, 0
2, 217054, Note_on_c, 0, 52, 0
2, 217092, Note_on_c, 0, 72, 0
2, 217098, Note_on_c, 0, 53, 126
2, 217101, Note_on_c, 0, 84, 127
2, 217224, Note_on_c, 0, 84, 0
2, 217248, Note_on_c, 0, 55, 115
2, 217264, Note_on_c, 0, 53, 0
2, 217372, Note_on_c, 0, 77, 116
2, 217372, Note_on_c, 0, 69, 98
2, 217375, Note_on_c, 0, 55, 0
2, 217375, Note_on_c, 0, 72, 101
2, 217382, Note_on_c, 0, 57, 103
2, 217418, Note_on_c, 0, 72, 0
2, 217440, Note_on_c, 0, 69, 0
2, 217466, Note_on_c, 0, 77, 0
2, 217526, Note_on_c, 0, 57, 0
2, 217526, Note_on_c, 0, 58, 95
2, 217690, Note_on_c, 0, 58, 0
2, 217690, Note_on_c, 0, 77, 124
2, 217692, Note_on_c, 0, 69, 94
2, 217696, Note_on_c, 0, 72, 103
2, 217700, Note_on_c, 0, 60, 116
2, 218086, Note_on_c, 0, 72, 0
2, 218154, Control_c, 0, 64, 127
2, 218180, Note_on_c, 0, 69, 0
2, 218338, Note_on_c, 0, 76, 110
2, 218338, Note_on_c, 0, 48, 106
2, 218340, Note_on_c, 0, 67, 110
2, 218342, Note_on_c, 0, 60, 0
2, 218342, Note_on_c, 0, 72, 102
2, 218410, Note_on_c, 0, 77, 0
2, 218462, Control_c, 0, 64, 0
2, 218800, Control_c, 0, 64, 127
2, 218848, Note_on_c, 0, 67, 0
2, 218912, Note_on_c, 0, 72, 0
2, 218962, Note_on_c, 0, 50, 109
2, 218968, Note_on_c, 0, 65, 111
2, 218976, Note_on_c, 0, 48, 0
2, 219044, Control_c, 0, 64, 0
2, 219172, Note_on_c, 0, 77, 107
2, 219202, Note_on_c, 0, 76, 0
2, 219414, Note_on_c, 0, 71, 116
2, 219690, Control_c, 0, 64, 127
2, 219904, Note_on_c, 0, 65, 0
2, 220154, Note_on_c, 0, 77, 0
2, 220212, Control_c, 0, 64, 0
2, 220228, Note_on_c, 0, 50, 0
2, 220402, Note_on_c, 0, 74, 113
2, 220414, Note_on_c, 0, 71, 0
2, 220610, Note_on_c, 0, 72, 109
2, 220624, Note_on_c, 0, 52, 121
2, 220686, Note_on_c, 0, 74, 0
2, 220766, Note_on_c, 0, 70, 98
2, 220816, Note_on_c, 0, 72, 0
2, 220938, Note_on_c, 0, 52, 0
2, 220941, Note_on_c, 0, 69, 106
2, 220946, Note_on_c, 0, 53, 127
2, 220972, Note_on_c, 0, 70, 0
2, 221090, Note_on_c, 0, 72, 113
2, 221112, Note_on_c, 0, 69, 0
2, 221128, Note_on_c, 0, 53, 0
2, 221272, Note_on_c, 0, 45, 114
2, 221277, Note_on_c, 0, 77, 107
2, 221308, Note_on_c, 0, 72, 0
2, 221442, Note_on_c, 0, 69, 102
2, 221466, Note_on_c, 0, 45, 0
2, 221652, Note_on_c, 0, 69, 0
2, 221655, Note_on_c, 0, 67, 117
2, 221662, Note_on_c, 0, 46, 100
2, 221884, Note_on_c, 0, 46, 0
2, 221934, Note_on_c, 0, 77, 0
2, 222112, Note_on_c, 0, 67, 0
2, 222136, Note_on_c, 0, 76, 108
2, 222138, Note_on_c, 0, 70, 90
2, 222140, Note_on_c, 0, 48, 99
2, 222144, Note_on_c, 0, 72, 103
2, 222478, Note_on_c, 0, 48, 0
2, 222492, Note_on_c, 0, 72, 0
2, 222588, Note_on_c, 0, 70, 0
2, 222616, Note_on_c, 0, 76, 0
2, 222836, Note_on_c, 0, 77, 114
2, 222840, Note_on_c, 0, 69, 84
2, 222840, Note_on_c, 0, 65, 94
2, 222844, Note_on_c, 0, 72, 98
2, 222852, Note_on_c, 0, 41, 102
2, 223378, Control_c, 0, 64, 127
2, 225744, Note_on_c, 0, 77, 0
2, 225784, Note_on_c, 0, 65, 0
2, 225790, Note_on_c, 0, 72, 0
2, 225812, Note_on_c, 0, 41, 0
2, 225838, Note_on_c, 0, 69, 0
2, 225914, Control_c, 0, 64, 0
2, 228480, Control_c, 0, 64, 0
2, 232320, Control_c, 0, 64, 127
2, 232320, Control_c, 0, 64, 0
2, 232320, Control_c, 0, 64, 127
2, 232320, Note_on_c, 0, 65, 25
2, 232332, Note_on_c, 0, 62, 26
2, 232604, Note_on_c, 0, 65, 0
2, 232610, Note_on_c, 0, 62, 0
2, 233012, Note_on_c, 0, 50, 41
2, 233336, Note_on_c, 0, 50, 0
2, 233722, Note_on_c, 0, 50, 32
2, 233954, Note_on_c, 0, 50, 0
2, 234416, Note_on_c, 0, 65, 52
2, 234442, Note_on_c, 0, 62, 32
2, 235036, Note_on_c, 0, 65, 0
2, 235036, Note_on_c, 0, 67, 55
2, 235054, Note_on_c, 0, 62, 0
2, 235064, Note_on_c, 0, 64, 40
2, 235288, Control_c, 0, 64, 0
2, 235502, Control_c, 0, 64, 127
2, 235622, Note_on_c, 0, 67, 0
2, 235632, Note_on_c, 0, 64, 0
2, 235642, Note_on_c, 0, 69, 36
2, 235662, Note_on_c, 0, 65, 25
2, 235778, Control_c, 0, 64, 0
2, 235994, Control_c, 0, 64, 127
2, 236012, Note_on_c, 0, 69, 0
2, 236214, Note_on_c, 0, 65, 0
2, 236256, Note_on_c, 0, 70, 19
2, 236288, Note_on_c, 0, 67, 24
2, 236332, Control_c, 0, 64, 0
2, 236548, Control_c, 0, 64, 127
2, 236584, Note_on_c, 0, 67, 0
2, 236598, Note_on_c, 0, 70, 0
2, 237014, Note_on_c, 0, 50, 23
2, 237266, Note_on_c, 0, 50, 0
2, 237670, Note_on_c, 0, 50, 28
2, 237812, Note_on_c, 0, 50, 0
2, 238332, Note_on_c, 0, 69, 30
2, 238348, Note_on_c, 0, 65, 23
2, 238498, Control_c, 0, 64, 0
2, 238714, Control_c, 0, 64, 127
2, 238752, Note_on_c, 0, 69, 0
2, 238886, Note_on_c, 0, 65, 0
2, 238932, Note_on_c, 0, 67, 49
2, 238940, Note_on_c, 0, 64, 32
2, 239314, Control_c, 0, 64, 0
2, 239452, Control_c, 0, 64, 127
2, 239516, Note_on_c, 0, 67, 0
2, 239530, Note_on_c, 0, 64, 0
2, 239556, Note_on_c, 0, 65, 39
2, 239588, Note_on_c, 0, 62, 31
2, 239820, Control_c, 0, 64, 0
2, 239988, Control_c, 0, 64, 127
2, 240070, Note_on_c, 0, 65, 0
2, 240076, Note_on_c, 0, 62, 0
2, 240222, Note_on_c, 0, 61, 26
2, 240240, Note_on_c, 0, 64, 25
2, 240296, Control_c, 0, 64, 0
2, 240512, Control_c, 0, 64, 127
2, 240528, Note_on_c, 0, 64, 0
2, 240592, Note_on_c, 0, 61, 0
2, 240968, Note_on_c, 0, 50, 28
2, 241126, Note_on_c, 0, 50, 0
2, 241632, Note_on_c, 0, 50, 36
2, 241804, Note_on_c, 0, 50, 0
2, 242240, Note_on_c, 0, 67, 53
2, 242270, Note_on_c, 0, 64, 30
2, 242478, Control_c, 0, 64, 0
2, 242648, Control_c, 0, 64, 127
2, 242656, Note_on_c, 0, 67, 0
2, 242878, Note_on_c, 0, 64, 0
2, 242878, Note_on_c, 0, 65, 41
2, 242902, Note_on_c, 0, 62, 24
2, 243184, Control_c, 0, 64, 0
2, 243384, Control_c, 0, 64, 127
2, 243446, Note_on_c, 0, 65, 0
2, 243474, Note_on_c, 0, 62, 0
2, 243572, Note_on_c, 0, 64, 36
2, 243584, Note_on_c, 0, 61, 22
2, 243846, Control_c, 0, 64, 0
2, 244000, Control_c, 0, 64, 127
2, 244020, Note_on_c, 0, 64, 0
2, 244048, Note_on_c, 0, 61, 0
2, 244282, Note_on_c, 0, 81, 71
2, 244328, Note_on_c, 0, 65, 21
2, 244336, Note_on_c, 0, 62, 21
2, 244494, Note_on_c, 0, 79, 83
2, 244516, Note_on_c, 0, 81, 0
2, 244552, Control_c, 0, 64, 0
2, 244708, Note_on_c, 0, 79, 0
2, 244716, Note_on_c, 0, 81, 55
2, 244784, Note_on_c, 0, 65, 0
2, 244798, Control_c, 0, 64, 127
2, 244860, Note_on_c, 0, 62, 0
2, 245216, Note_on_c, 0, 50, 25
2, 245576, Note_on_c, 0, 50, 0
2, 245916, Note_on_c, 0, 50, 30
2, 245936, Control_c, 0, 64, 0
2, 246088, Control_c, 0, 64, 127
2, 246182, Note_on_c, 0, 50, 0
2, 246264, Note_on_c, 0, 79, 62
2, 246532, Note_on_c, 0, 81, 0
2, 246628, Note_on_c, 0, 77, 79
2, 246640, Note_on_c, 0, 65, 33
2, 246654, Note_on_c, 0, 62, 33
2, 246760, Note_on_c, 0, 79, 0
2, 246826, Control_c, 0, 64, 0
2, 246968, Note_on_c, 0, 76, 76
2, 246980, Control_c, 0, 64, 127
2, 247044, Note_on_c, 0, 77, 0
2, 247252, Note_on_c, 0, 65, 0
2, 247294, Note_on_c, 0, 62, 0
2, 247306, Note_on_c, 0, 74, 86
2, 247312, Note_on_c, 0, 64, 31
2, 247316, Note_on_c, 0, 67, 40
2, 247384, Note_on_c, 0, 76, 0
2, 247472, Control_c, 0, 64, 0
2, 247644, Note_on_c, 0, 73, 78
2, 247656, Control_c, 0, 64, 127
2, 247718, Note_on_c, 0, 74, 0
2, 247946, Note_on_c, 0, 67, 0
2, 247988, Note_on_c, 0, 64, 0
2, 248008, Note_on_c, 0, 69, 33
2, 248011, Note_on_c, 0, 74, 76
2, 248034, Note_on_c, 0, 65, 30
2, 248037, Note_on_c, 0, 73, 0
2, 248041, Control_c, 0, 64, 0
2, 248226, Control_c, 0, 64, 127
2, 248240, Note_on_c, 0, 74, 0
2, 248430, Note_on_c, 0, 77, 65
2, 248486, Control_c, 0, 64, 0
2, 248582, Note_on_c, 0, 69, 0
2, 248640, Control_c, 0, 64, 127
2, 248748, Note_on_c, 0, 65, 0
2, 248812, Note_on_c, 0, 70, 26
2, 248854, Control_c, 0, 64, 0
2, 248856, Note_on_c, 0, 67, 30
2, 249002, Note_on_c, 0, 76, 53
2, 249024, Note_on_c, 0, 77, 0
2, 249070, Control_c, 0, 64, 127
2, 249092, Note_on_c, 0, 76, 0
2, 249214, Note_on_c, 0, 74, 70
2, 249260, Note_on_c, 0, 67, 0
2, 249262, Note_on_c, 0, 70, 0
2, 249638, Note_on_c, 0, 50, 38
2, 249650, Note_on_c, 0, 76, 48
2, 249664, Note_on_c, 0, 74, 0
2, 250146, Control_c, 0, 64, 0
2, 250276, Note_on_c, 0, 50, 0
2, 250284, Control_c, 0, 64, 127
2, 250430, Note_on_c, 0, 50, 18
2, 250730, Note_on_c, 0, 50, 0
2, 250832, Note_on_c, 0, 79, 62
2, 250932, Note_on_c, 0, 76, 0
2, 251198, Note_on_c, 0, 69, 30
2, 251210, Note_on_c, 0, 81, 87
2, 251226, Note_on_c, 0, 65, 21
2, 251352, Note_on_c, 0, 79, 0
2, 251404, Control_c, 0, 64, 0
2, 251560, Control_c, 0, 64, 127
2, 251574, Note_on_c, 0, 82, 55
2, 251630, Note_on_c, 0, 81, 0
2, 251724, Note_on_c, 0, 69, 0
2, 251816, Note_on_c, 0, 65, 0
2, 251912, Note_on_c, 0, 67, 42
2, 251928, Note_on_c, 0, 64, 29
2, 251958, Control_c, 0, 64, 0
2, 252188, Control_c, 0, 64, 127
2, 252344, Note_on_c, 0, 73, 68
2, 252412, Note_on_c, 0, 82, 0
2, 252484, Note_on_c, 0, 64, 0
2, 252510, Note_on_c, 0, 67, 0
2, 252702, Note_on_c, 0, 74, 72
2, 252734, Note_on_c, 0, 65, 25
2, 252750, Note_on_c, 0, 73, 0
2, 252753, Note_on_c, 0, 62, 23
2, 252850, Control_c, 0, 64, 0
2, 253026, Note_on_c, 0, 76, 69
2, 253036, Note_on_c, 0, 74, 0
2, 253080, Control_c, 0, 64, 127
2, 253118, Note_on_c, 0, 65, 0
2, 253144, Note_on_c, 0, 62, 0
2, 253206, Note_on_c, 0, 76, 0
2, 253426, Note_on_c, 0, 61, 34
2, 253450, Note_on_c, 0, 69, 39
2, 253462, Note_on_c, 0, 64, 53
2, 253658, Note_on_c, 0, 67, 59
2, 253672, Note_on_c, 0, 69, 0
2, 253824, Note_on_c, 0, 67, 0
2, 253832, Control_c, 0, 64, 0
2, 253858, Note_on_c, 0, 65, 60
2, 254012, Note_on_c, 0, 61, 0
2, 254018, Control_c, 0, 64, 127
2, 254024, Note_on_c, 0, 64, 0
2, 254262, Note_on_c, 0, 65, 0
2, 254264, Note_on_c, 0, 67, 40
2, 254292, Note_on_c, 0, 50, 47
2, 254500, Note_on_c, 0, 50, 0
2, 254510, Control_c, 0, 64, 0
2, 254602, Note_on_c, 0, 50, 8
2, 254708, Control_c, 0, 64, 127
2, 254834, Note_on_c, 0, 50, 0
2, 255070, Note_on_c, 0, 50, 33
2, 255256, Note_on_c, 0, 50, 0
2, 255486, Note_on_c, 0, 69, 60
2, 255548, Note_on_c, 0, 67, 0
2, 255860, Note_on_c, 0, 70, 74
2, 255884, Note_on_c, 0, 64, 33
2, 255884, Note_on_c, 0, 67, 39
2, 255900, Note_on_c, 0, 69, 0
2, 255938, Control_c, 0, 64, 0
2, 256108, Control_c, 0, 64, 127
2, 256122, Note_on_c, 0, 70, 0
2, 256232, Note_on_c, 0, 73, 79
2, 256264, Note_on_c, 0, 67, 0
2, 256318, Note_on_c, 0, 64, 0
2, 256568, Note_on_c, 0, 65, 45
2, 256574, Note_on_c, 0, 62, 42
2, 256630, Control_c, 0, 64, 0
2, 256806, Note_on_c, 0, 73, 0
2, 256814, Control_c, 0, 64, 127
2, 256928, Note_on_c, 0, 74, 84
2, 257084, Note_on_c, 0, 62, 0
2, 257104, Note_on_c, 0, 65, 0
2, 257306, Note_on_c, 0, 64, 45
2, 257324, Note_on_c, 0, 61, 44
2, 257366, Control_c, 0, 64, 0
2, 257572, Note_on_c, 0, 74, 0
2, 257598, Control_c, 0, 64, 127
2, 257752, Note_on_c, 0, 76, 65
2, 257780, Note_on_c, 0, 64, 0
2, 257828, Note_on_c, 0, 61, 0
2, 258104, Control_c, 0, 64, 0
2, 258124, Note_on_c, 0, 65, 28
2, 258128, Note_on_c, 0, 62, 26
2, 258320, Control_c, 0, 64, 127
2, 258442, Note_on_c, 0, 65, 0
2, 258452, Note_on_c, 0, 76, 0
2, 258488, Note_on_c, 0, 62, 0
2, 258496, Note_on_c, 0, 67, 56
2, 258692, Note_on_c, 0, 67, 0
2, 258824, Note_on_c, 0, 65, 22
2, 258862, Note_on_c, 0, 67, 63
2, 258888, Note_on_c, 0, 65, 0
2, 258948, Note_on_c, 0, 67, 0
2, 258960, Note_on_c, 0, 50, 30
2, 258970, Note_on_c, 0, 65, 63
2, 259072, Control_c, 0, 64, 0
2, 259272, Control_c, 0, 64, 127
2, 259320, Note_on_c, 0, 50, 0
2, 259328, Note_on_c, 0, 64, 69
2, 259338, Note_on_c, 0, 65, 0
2, 259658, Note_on_c, 0, 64, 0
2, 259682, Note_on_c, 0, 65, 52
2, 259702, Note_on_c, 0, 50, 34
2, 259764, Control_c, 0, 64, 0
2, 259932, Control_c, 0, 64, 127
2, 259990, Note_on_c, 0, 65, 0
2, 260044, Note_on_c, 0, 50, 0
2, 260116, Note_on_c, 0, 70, 59
2, 260214, Note_on_c, 0, 70, 0
2, 260298, Note_on_c, 0, 69, 60
2, 260352, Note_on_c, 0, 69, 0
2, 260352, Note_on_c, 0, 70, 74
2, 260408, Note_on_c, 0, 69, 79
2, 260411, Note_on_c, 0, 55, 32
2, 260411, Note_on_c, 0, 64, 40
2, 260456, Note_on_c, 0, 70, 0
2, 260456, Control_c, 0, 64, 0
2, 260732, Control_c, 0, 64, 127
2, 260744, Note_on_c, 0, 67, 82
2, 260792, Note_on_c, 0, 69, 0
2, 260834, Note_on_c, 0, 64, 0
2, 261072, Note_on_c, 0, 55, 0
2, 261104, Note_on_c, 0, 69, 78
2, 261110, Note_on_c, 0, 62, 59
2, 261124, Note_on_c, 0, 53, 70
2, 261144, Note_on_c, 0, 67, 0
2, 261300, Control_c, 0, 64, 0
2, 261422, Note_on_c, 0, 71, 101
2, 261470, Control_c, 0, 64, 127
2, 261494, Note_on_c, 0, 69, 0
2, 261556, Note_on_c, 0, 53, 0
2, 261594, Note_on_c, 0, 73, 91
2, 261620, Note_on_c, 0, 71, 0
2, 261778, Note_on_c, 0, 62, 0
2, 261778, Note_on_c, 0, 74, 102
2, 261784, Note_on_c, 0, 61, 60
2, 261792, Note_on_c, 0, 52, 59
2, 261822, Note_on_c, 0, 73, 0
2, 261900, Control_c, 0, 64, 0
2, 261960, Note_on_c, 0, 76, 94
2, 261996, Note_on_c, 0, 74, 0
2, 262138, Note_on_c, 0, 77, 94
2, 262176, Control_c, 0, 64, 127
2, 262184, Note_on_c, 0, 76, 0
2, 262320, Note_on_c, 0, 79, 111
2, 262322, Note_on_c, 0, 52, 0
2, 262336, Note_on_c, 0, 77, 0
2, 262344, Note_on_c, 0, 61, 0
2, 262570, Note_on_c, 0, 77, 98
2, 262594, Note_on_c, 0, 62, 44
2, 262610, Note_on_c, 0, 50, 38
2, 262656, Note_on_c, 0, 79, 0
2, 262698, Control_c, 0, 64, 0
2, 262828, Note_on_c, 0, 76, 80
2, 262902, Note_on_c, 0, 77, 0
2, 262930, Control_c, 0, 64, 127
2, 262972, Note_on_c, 0, 62, 0
2, 263028, Note_on_c, 0, 74, 87
2, 263056, Note_on_c, 0, 76, 0
2, 263104, Note_on_c, 0, 50, 0
2, 263208, Note_on_c, 0, 76, 82
2, 263246, Note_on_c, 0, 74, 0
2, 263426, Note_on_c, 0, 38, 33
2, 263434, Note_on_c, 0, 77, 83
2, 263496, Note_on_c, 0, 76, 0
2, 263574, Control_c, 0, 64, 0
2, 263852, Control_c, 0, 64, 127
2, 263940, Note_on_c, 0, 74, 67
2, 264008, Note_on_c, 0, 77, 0
2, 264072, Note_on_c, 0, 38, 0
2, 264322, Note_on_c, 0, 72, 56
2, 264348, Note_on_c, 0, 38, 31
2, 264354, Note_on_c, 0, 74, 0
2, 264420, Control_c, 0, 64, 0
2, 264690, Note_on_c, 0, 70, 49
2, 264694, Note_on_c, 0, 72, 0
2, 264788, Control_c, 0, 64, 127
2, 264814, Note_on_c, 0, 38, 0
2, 265224, Note_on_c, 0, 65, 37
2, 265226, Note_on_c, 0, 62, 29
2, 265464, Control_c, 0, 64, 0
2, 265664, Control_c, 0, 64, 127
2, 265722, Note_on_c, 0, 65, 0
2, 265938, Note_on_c, 0, 62, 0
2, 265946, Note_on_c, 0, 60, 29
2, 265952, Note_on_c, 0, 64, 42
2, 266294, Control_c, 0, 64, 0
2, 266494, Control_c, 0, 64, 127
2, 266634, Note_on_c, 0, 64, 0
2, 266642, Note_on_c, 0, 60, 0
2, 266650, Note_on_c, 0, 62, 39
2, 266682, Note_on_c, 0, 58, 21
2, 267016, Control_c, 0, 64, 0
2, 267186, Note_on_c, 0, 62, 0
2, 267186, Control_c, 0, 64, 127
2, 267334, Note_on_c, 0, 58, 0
2, 267384, Note_on_c, 0, 64, 38
2, 267402, Note_on_c, 0, 60, 24
2, 267538, Control_c, 0, 64, 0
2, 267678, Note_on_c, 0, 69, 59
2, 267766, Note_on_c, 0, 70, 0
2, 267768, Control_c, 0, 64, 127
2, 267908, Note_on_c, 0, 64, 0
2, 267918, Note_on_c, 0, 60, 0
2, 267942, Note_on_c, 0, 67, 79
2, 268016, Note_on_c, 0, 69, 0
2, 268168, Note_on_c, 0, 65, 75
2, 268200, Note_on_c, 0, 67, 0
2, 268230, Note_on_c, 0, 48, 26
2, 268354, Note_on_c, 0, 67, 76
2, 268402, Note_on_c, 0, 65, 0
2, 268564, Note_on_c, 0, 64, 88
2, 268582, Control_c, 0, 64, 0
2, 268596, Note_on_c, 0, 67, 0
2, 268674, Note_on_c, 0, 48, 0
2, 268706, Control_c, 0, 64, 127
2, 268802, Note_on_c, 0, 64, 0
2, 268946, Note_on_c, 0, 48, 33
2, 268962, Note_on_c, 0, 64, 80
2, 269042, Note_on_c, 0, 64, 0
2, 269220, Note_on_c, 0, 64, 7
2, 269306, Note_on_c, 0, 64, 0
2, 269342, Note_on_c, 0, 69, 57
2, 269382, Control_c, 0, 64, 0
2, 269526, Note_on_c, 0, 48, 0
2, 269566, Control_c, 0, 64, 127
2, 269732, Note_on_c, 0, 64, 52
2, 269762, Note_on_c, 0, 60, 28
2, 270120, Control_c, 0, 64, 0
2, 270242, Control_c, 0, 64, 127
2, 270256, Note_on_c, 0, 64, 0
2, 270448, Note_on_c, 0, 60, 0
2, 270482, Note_on_c, 0, 58, 24
2, 270488, Note_on_c, 0, 62, 38
2, 270796, Control_c, 0, 64, 0
2, 270996, Control_c, 0, 64, 127
2, 271082, Note_on_c, 0, 62, 0
2, 271178, Note_on_c, 0, 58, 0
2, 271246, Note_on_c, 0, 61, 30
2, 271270, Note_on_c, 0, 57, 22
2, 271504, Control_c, 0, 64, 0
2, 271688, Control_c, 0, 64, 127
2, 271734, Note_on_c, 0, 57, 0
2, 271744, Note_on_c, 0, 61, 0
2, 271944, Note_on_c, 0, 58, 22
2, 271954, Note_on_c, 0, 62, 31
2, 272086, Control_c, 0, 64, 0
2, 272296, Note_on_c, 0, 71, 55
2, 272301, Control_c, 0, 64, 127
2, 272404, Note_on_c, 0, 62, 0
2, 272404, Note_on_c, 0, 69, 0
2, 272448, Note_on_c, 0, 58, 0
2, 272508, Note_on_c, 0, 73, 59
2, 272534, Note_on_c, 0, 71, 0
2, 272732, Note_on_c, 0, 74, 62
2, 272734, Note_on_c, 0, 73, 0
2, 272754, Note_on_c, 0, 46, 33
2, 272854, Control_c, 0, 64, 0
2, 272904, Note_on_c, 0, 73, 61
2, 272918, Note_on_c, 0, 74, 0
2, 273008, Control_c, 0, 64, 127
2, 273074, Note_on_c, 0, 71, 70
2, 273094, Note_on_c, 0, 73, 0
2, 273222, Note_on_c, 0, 46, 0
2, 273225, Note_on_c, 0, 69, 60
2, 273248, Note_on_c, 0, 71, 0
2, 273416, Note_on_c, 0, 46, 29
2, 273424, Note_on_c, 0, 74, 64
2, 273428, Note_on_c, 0, 69, 0
2, 273454, Control_c, 0, 64, 0
2, 273730, Control_c, 0, 64, 127
2, 273882, Note_on_c, 0, 46, 0
2, 273898, Note_on_c, 0, 70, 53
2, 273946, Note_on_c, 0, 74, 0
2, 274274, Note_on_c, 0, 69, 44
2, 274279, Note_on_c, 0, 70, 0
2, 274292, Note_on_c, 0, 58, 26
2, 274292, Note_on_c, 0, 62, 37
2, 274392, Control_c, 0, 64, 0
2, 274622, Control_c, 0, 64, 127
2, 274666, Note_on_c, 0, 67, 48
2, 274694, Note_on_c, 0, 69, 0
2, 274776, Control_c, 0, 64, 0
2, 274914, Control_c, 0, 64, 127
2, 274982, Note_on_c, 0, 62, 0
2, 274998, Note_on_c, 0, 58, 0
2, 275042, Note_on_c, 0, 61, 47
2, 275054, Note_on_c, 0, 57, 26
2, 275114, Control_c, 0, 64, 0
2, 275230, Note_on_c, 0, 69, 60
2, 275240, Note_on_c, 0, 67, 0
2, 275344, Control_c, 0, 64, 127
2, 275420, Note_on_c, 0, 67, 78
2, 275478, Note_on_c, 0, 69, 0
2, 275586, Note_on_c, 0, 66, 74
2, 275612, Note_on_c, 0, 67, 0
2, 275818, Note_on_c, 0, 57, 0
2, 275821, Note_on_c, 0, 67, 72
2, 275832, Note_on_c, 0, 61, 0
2, 275850, Note_on_c, 0, 59, 24
2, 275852, Note_on_c, 0, 66, 0
2, 275858, Note_on_c, 0, 55, 44
2, 275896, Control_c, 0, 64, 0
2, 276190, Control_c, 0, 64, 127
2, 276290, Note_on_c, 0, 67, 0
2, 276478, Note_on_c, 0, 67, 83
2, 276602, Note_on_c, 0, 67, 0
2, 276720, Note_on_c, 0, 55, 0
2, 276724, Note_on_c, 0, 67, 69
2, 276736, Note_on_c, 0, 59, 0
2, 276756, Note_on_c, 0, 61, 37
2, 276770, Note_on_c, 0, 57, 26
2, 276773, Control_c, 0, 64, 0
2, 277128, Note_on_c, 0, 76, 70
2, 277160, Note_on_c, 0, 67, 0
2, 277358, Note_on_c, 0, 57, 0
2, 277364, Note_on_c, 0, 61, 0
2, 277372, Control_c, 0, 64, 127
2, 277728, Note_on_c, 0, 45, 25
2, 278128, Note_on_c, 0, 45, 0
2, 278504, Note_on_c, 0, 45, 28
2, 278708, Note_on_c, 0, 74, 52
2, 278748, Note_on_c, 0, 76, 0
2, 278862, Note_on_c, 0, 45, 0
2, 278904, Note_on_c, 0, 73, 65
2, 278906, Note_on_c, 0, 74, 0
2, 279092, Note_on_c, 0, 74, 87
2, 279126, Note_on_c, 0, 73, 0
2, 279284, Note_on_c, 0, 76, 78
2, 279298, Note_on_c, 0, 74, 0
2, 279298, Note_on_c, 0, 57, 38
2, 279304, Note_on_c, 0, 61, 45
2, 279324, Control_c, 0, 64, 0
2, 279508, Note_on_c, 0, 74, 85
2, 279538, Note_on_c, 0, 76, 0
2, 279616, Control_c, 0, 64, 127
2, 279680, Note_on_c, 0, 73, 78
2, 279700, Note_on_c, 0, 74, 0
2, 279860, Note_on_c, 0, 71, 94
2, 279884, Note_on_c, 0, 73, 0
2, 280052, Note_on_c, 0, 61, 0
2, 280074, Note_on_c, 0, 69, 65
2, 280086, Note_on_c, 0, 71, 0
2, 280092, Control_c, 0, 64, 0
2, 280098, Note_on_c, 0, 62, 36
2, 280100, Note_on_c, 0, 59, 24
2, 280103, Note_on_c, 0, 57, 0
2, 280466, Note_on_c, 0, 67, 44
2, 280492, Note_on_c, 0, 69, 0
2, 280736, Control_c, 0, 64, 127
2, 280782, Note_on_c, 0, 62, 0
2, 280826, Note_on_c, 0, 59, 0
2, 280847, Note_on_c, 0, 61, 28
2, 280856, Note_on_c, 0, 64, 38
2, 280938, Control_c, 0, 64, 0
2, 281058, Note_on_c, 0, 70, 47
2, 281100, Note_on_c, 0, 67, 0
2, 281182, Control_c, 0, 64, 127
2, 281264, Note_on_c, 0, 69, 54
2, 281282, Note_on_c, 0, 70, 0
2, 281428, Note_on_c, 0, 67, 65
2, 281431, Note_on_c, 0, 69, 0
2, 281456, Note_on_c, 0, 61, 0
2, 281492, Note_on_c, 0, 64, 0
2, 281610, Note_on_c, 0, 65, 57
2, 281620, Note_on_c, 0, 67, 0
2, 281628, Note_on_c, 0, 62, 38
2, 281628, Control_c, 0, 64, 0
2, 281794, Note_on_c, 0, 67, 65
2, 281810, Note_on_c, 0, 65, 0
2, 281962, Note_on_c, 0, 67, 0
2, 281976, Note_on_c, 0, 65, 60
2, 282058, Control_c, 0, 64, 127
2, 282128, Note_on_c, 0, 65, 0
2, 282136, Note_on_c, 0, 64, 68
2, 282266, Note_on_c, 0, 62, 0
2, 282382, Note_on_c, 0, 65, 52
2, 282388, Note_on_c, 0, 64, 0
2, 282412, Note_on_c, 0, 50, 31
2, 282472, Control_c, 0, 64, 0
2, 282638, Note_on_c, 0, 65, 0
2, 282644, Note_on_c, 0, 69, 31
2, 282942, Note_on_c, 0, 61, 55
2, 282947, Note_on_c, 0, 69, 0
2, 283134, Control_c, 0, 64, 127
2, 283142, Note_on_c, 0, 50, 0
2, 283248, Note_on_c, 0, 61, 0
2, 283446, Note_on_c, 0, 61, 47
2, 283478, Note_on_c, 0, 50, 26
2, 283764, Control_c, 0, 64, 0
2, 283944, Note_on_c, 0, 62, 39
2, 283980, Note_on_c, 0, 61, 0
2, 284110, Note_on_c, 0, 50, 0
2, 284148, Control_c, 0, 64, 127
2, 284208, Note_on_c, 0, 62, 0
2, 284494, Note_on_c, 0, 65, 19
2, 284522, Note_on_c, 0, 62, 28
2, 285306, Note_on_c, 0, 65, 0
2, 285324, Note_on_c, 0, 67, 32
2, 285336, Note_on_c, 0, 62, 0
2, 285364, Note_on_c, 0, 64, 18
2, 285654, Control_c, 0, 64, 0
2, 285838, Control_c, 0, 64, 127
2, 285940, Note_on_c, 0, 64, 0
2, 285986, Note_on_c, 0, 67, 0
2, 286102, Note_on_c, 0, 74, 65
2, 286128, Note_on_c, 0, 65, 29
2, 286136, Note_on_c, 0, 69, 22
2, 286406, Control_c, 0, 64, 0
2, 286577, Control_c, 0, 64, 127
2, 286594, Note_on_c, 0, 69, 0
2, 286662, Note_on_c, 0, 65, 0
2, 286902, Note_on_c, 0, 70, 18
2, 286932, Note_on_c, 0, 67, 17
2, 286976, Control_c, 0, 64, 0
2, 287176, Control_c, 0, 64, 127
2, 287308, Note_on_c, 0, 67, 0
2, 287318, Note_on_c, 0, 70, 0
2, 287348, Note_on_c, 0, 72, 64
2, 287372, Note_on_c, 0, 74, 0
2, 287556, Note_on_c, 0, 72, 0
2, 287636, Note_on_c, 0, 70, 59
2, 287692, Note_on_c, 0, 70, 0
2, 287710, Note_on_c, 0, 72, 65
2, 287752, Note_on_c, 0, 70, 62
2, 287774, Note_on_c, 0, 55, 36
2, 287784, Note_on_c, 0, 72, 0
2, 287928, Control_c, 0, 64, 0
2, 288094, Note_on_c, 0, 69, 69
2, 288096, Control_c, 0, 64, 127
2, 288128, Note_on_c, 0, 55, 0
2, 288146, Note_on_c, 0, 70, 0
2, 288472, Note_on_c, 0, 70, 53
2, 288538, Note_on_c, 0, 69, 0
2, 288570, Note_on_c, 0, 55, 11
2, 288588, Control_c, 0, 64, 0
2, 288858, Note_on_c, 0, 67, 67
2, 288880, Control_c, 0, 64, 127
2, 288890, Note_on_c, 0, 70, 0
2, 288968, Note_on_c, 0, 55, 0
2, 289200, Note_on_c, 0, 67, 0
2, 289210, Note_on_c, 0, 70, 74
2, 289248, Note_on_c, 0, 69, 36
2, 289272, Note_on_c, 0, 65, 23
2, 289388, Control_c, 0, 64, 0
2, 289572, Control_c, 0, 64, 127
2, 289580, Note_on_c, 0, 74, 103
2, 289650, Note_on_c, 0, 70, 0
2, 289682, Note_on_c, 0, 65, 0
2, 289740, Note_on_c, 0, 69, 0
2, 289964, Note_on_c, 0, 67, 45
2, 289964, Note_on_c, 0, 79, 102
2, 289992, Note_on_c, 0, 64, 33
2, 290026, Note_on_c, 0, 74, 0
2, 290202, Control_c, 0, 64, 0
2, 290362, Note_on_c, 0, 74, 97
2, 290428, Note_on_c, 0, 79, 0
2, 290494, Control_c, 0, 64, 127
2, 290564, Note_on_c, 0, 74, 0
2, 290662, Note_on_c, 0, 64, 0
2, 290680, Note_on_c, 0, 67, 0
2, 290840, Note_on_c, 0, 82, 83
2, 290856, Note_on_c, 0, 62, 36
2, 290866, Note_on_c, 0, 65, 19
2, 291016, Control_c, 0, 64, 0
2, 291354, Control_c, 0, 64, 127
2, 291450, Note_on_c, 0, 62, 0
2, 291496, Note_on_c, 0, 65, 0
2, 291710, Note_on_c, 0, 64, 32
2, 291714, Note_on_c, 0, 60, 26
2, 291784, Control_c, 0, 64, 0
2, 292030, Note_on_c, 0, 84, 55
2, 292046, Note_on_c, 0, 82, 0
2, 292108, Control_c, 0, 64, 127
2, 292212, Note_on_c, 0, 64, 0
2, 292250, Note_on_c, 0, 60, 0
2, 292286, Note_on_c, 0, 82, 54
2, 292302, Note_on_c, 0, 84, 0
2, 292492, Note_on_c, 0, 81, 64
2, 292494, Note_on_c, 0, 82, 0
2, 292676, Note_on_c, 0, 81, 0
2, 292679, Note_on_c, 0, 82, 60
2, 292688, Note_on_c, 0, 48, 30
2, 292738, Control_c, 0, 64, 0
2, 292874, Note_on_c, 0, 79, 72
2, 292888, Note_on_c, 0, 82, 0
2, 292952, Control_c, 0, 64, 127
2, 293042, Note_on_c, 0, 79, 0
2, 293058, Note_on_c, 0, 81, 61
2, 293160, Note_on_c, 0, 48, 0
2, 293232, Note_on_c, 0, 81, 0
2, 293244, Note_on_c, 0, 82, 57
2, 293472, Note_on_c, 0, 77, 53
2, 293492, Note_on_c, 0, 48, 25
2, 293504, Note_on_c, 0, 82, 0
2, 293552, Control_c, 0, 64, 0
2, 293836, Note_on_c, 0, 77, 0
2, 293872, Note_on_c, 0, 76, 32
2, 294004, Note_on_c, 0, 48, 0
2, 294044, Control_c, 0, 64, 127
2, 294314, Note_on_c, 0, 64, 40
2, 294332, Note_on_c, 0, 60, 25
2, 294750, Control_c, 0, 64, 0
2, 294904, Control_c, 0, 64, 127
2, 295036, Note_on_c, 0, 64, 0
2, 295080, Note_on_c, 0, 76, 0
2, 295080, Note_on_c, 0, 65, 36
2, 295096, Note_on_c, 0, 60, 0
2, 295106, Note_on_c, 0, 62, 17
2, 295364, Control_c, 0, 64, 0
2, 295580, Control_c, 0, 64, 127
2, 295754, Note_on_c, 0, 62, 0
2, 295768, Note_on_c, 0, 65, 0
2, 295854, Note_on_c, 0, 72, 51
2, 295896, Note_on_c, 0, 64, 32
2, 295908, Note_on_c, 0, 67, 24
2, 296056, Note_on_c, 0, 74, 52
2, 296066, Note_on_c, 0, 72, 0
2, 296226, Control_c, 0, 64, 0
2, 296250, Note_on_c, 0, 74, 0
2, 296280, Note_on_c, 0, 76, 37
2, 296458, Note_on_c, 0, 67, 0
2, 296472, Control_c, 0, 64, 127
2, 296624, Note_on_c, 0, 64, 0
2, 296706, Note_on_c, 0, 69, 23
2, 296728, Note_on_c, 0, 65, 19
2, 296748, Control_c, 0, 64, 0
2, 296888, Note_on_c, 0, 70, 51
2, 297000, Note_on_c, 0, 76, 0
2, 297070, Control_c, 0, 64, 127
2, 297088, Note_on_c, 0, 72, 57
2, 297108, Note_on_c, 0, 69, 0
2, 297128, Note_on_c, 0, 70, 0
2, 297138, Note_on_c, 0, 65, 0
2, 297268, Note_on_c, 0, 74, 70
2, 297278, Note_on_c, 0, 72, 0
2, 297440, Note_on_c, 0, 74, 0
2, 297452, Note_on_c, 0, 72, 67
2, 297490, Note_on_c, 0, 53, 45
2, 297546, Control_c, 0, 64, 0
2, 297620, Note_on_c, 0, 70, 59
2, 297668, Note_on_c, 0, 72, 0
2, 297818, Note_on_c, 0, 69, 54
2, 297832, Note_on_c, 0, 70, 0
2, 297900, Control_c, 0, 64, 127
2, 297908, Note_on_c, 0, 53, 0
2, 298010, Note_on_c, 0, 67, 56
2, 298016, Note_on_c, 0, 69, 0
2, 298210, Note_on_c, 0, 67, 0
2, 298220, Note_on_c, 0, 69, 47
2, 298240, Note_on_c, 0, 53, 53
2, 298254, Control_c, 0, 64, 0
2, 298414, Note_on_c, 0, 65, 63
2, 298418, Note_on_c, 0, 69, 0
2, 298546, Control_c, 0, 64, 127
2, 298588, Note_on_c, 0, 67, 80
2, 298596, Note_on_c, 0, 65, 0
2, 298610, Note_on_c, 0, 53, 0
2, 298764, Note_on_c, 0, 69, 82
2, 298782, Note_on_c, 0, 67, 0
2, 298944, Note_on_c, 0, 70, 75
2, 298948, Note_on_c, 0, 69, 0
2, 298964, Note_on_c, 0, 67, 57
2, 298970, Note_on_c, 0, 64, 45
2, 298976, Control_c, 0, 64, 0
2, 299138, Note_on_c, 0, 72, 82
2, 299164, Note_on_c, 0, 70, 0
2, 299284, Control_c, 0, 64, 127
2, 299322, Note_on_c, 0, 74, 95
2, 299368, Note_on_c, 0, 72, 0
2, 299406, Note_on_c, 0, 67, 0
2, 299512, Note_on_c, 0, 76, 88
2, 299554, Note_on_c, 0, 74, 0
2, 299634, Note_on_c, 0, 64, 0
2, 299694, Note_on_c, 0, 65, 39
2, 299704, Note_on_c, 0, 77, 87
2, 299710, Note_on_c, 0, 62, 32
2, 299740, Note_on_c, 0, 76, 0
2, 299760, Control_c, 0, 64, 0
2, 299906, Note_on_c, 0, 76, 78
2, 299962, Note_on_c, 0, 77, 0
2, 300052, Control_c, 0, 64, 127
2, 300104, Note_on_c, 0, 74, 77
2, 300140, Note_on_c, 0, 76, 0
2, 300284, Note_on_c, 0, 72, 74
2, 300288, Note_on_c, 0, 74, 0
2, 300424, Note_on_c, 0, 62, 0
2, 300440, Note_on_c, 0, 65, 0
2, 300448, Note_on_c, 0, 63, 30
2, 300460, Note_on_c, 0, 60, 29
2, 300528, Note_on_c, 0, 72, 0
2, 300528, Control_c, 0, 64, 0
2, 300536, Note_on_c, 0, 81, 74
2, 300718, Note_on_c, 0, 81, 0
2, 300720, Note_on_c, 0, 79, 84
2, 300986, Note_on_c, 0, 81, 68
2, 301006, Note_on_c, 0, 79, 0
2, 301204, Note_on_c, 0, 60, 0
2, 301234, Control_c, 0, 64, 127
2, 301320, Note_on_c, 0, 63, 0
2, 301402, Note_on_c, 0, 58, 14
2, 301408, Note_on_c, 0, 62, 28
2, 301602, Control_c, 0, 64, 0
2, 301802, Control_c, 0, 64, 127
2, 301836, Note_on_c, 0, 74, 69
2, 301850, Note_on_c, 0, 81, 0
2, 301854, Note_on_c, 0, 62, 0
2, 301922, Note_on_c, 0, 58, 0
2, 302050, Note_on_c, 0, 74, 0
2, 302124, Note_on_c, 0, 75, 53
2, 302180, Note_on_c, 0, 75, 0
2, 302200, Note_on_c, 0, 74, 52
2, 302248, Note_on_c, 0, 75, 68
2, 302254, Note_on_c, 0, 74, 0
2, 302308, Note_on_c, 0, 75, 0
2, 302318, Note_on_c, 0, 46, 14
2, 302320, Note_on_c, 0, 74, 79
2, 302432, Control_c, 0, 64, 0
2, 302542, Note_on_c, 0, 72, 65
2, 302566, Note_on_c, 0, 74, 0
2, 302694, Control_c, 0, 64, 127
2, 302740, Note_on_c, 0, 74, 77
2, 302752, Note_on_c, 0, 72, 0
2, 302896, Note_on_c, 0, 46, 0
2, 302982, Note_on_c, 0, 74, 0
2, 303144, Note_on_c, 0, 46, 26
2, 303152, Note_on_c, 0, 74, 69
2, 303478, Control_c, 0, 64, 0
2, 303560, Note_on_c, 0, 79, 69
2, 303570, Note_on_c, 0, 74, 0
2, 303692, Control_c, 0, 64, 127
2, 303714, Note_on_c, 0, 46, 0
2, 303956, Note_on_c, 0, 58, 31
2, 303964, Note_on_c, 0, 62, 57
2, 304336, Note_on_c, 0, 62, 0
2, 304674, Note_on_c, 0, 58, 0
2, 304740, Note_on_c, 0, 60, 49
2, 304754, Note_on_c, 0, 57, 10
2, 305060, Control_c, 0, 64, 0
2, 305228, Control_c, 0, 64, 127
2, 305374, Note_on_c, 0, 57, 0
2, 305438, Note_on_c, 0, 60, 0
2, 305494, Note_on_c, 0, 58, 30
2, 305512, Note_on_c, 0, 55, 29
2, 305828, Control_c, 0, 64, 0
2, 305966, Control_c, 0, 64, 127
2, 306014, Note_on_c, 0, 55, 0
2, 306078, Note_on_c, 0, 58, 0
2, 306316, Note_on_c, 0, 57, 14
2, 306328, Note_on_c, 0, 60, 33
2, 306412, Control_c, 0, 64, 0
2, 306544, Note_on_c, 0, 82, 52
2, 306578, Note_on_c, 0, 79, 0
2, 306626, Control_c, 0, 64, 127
2, 306760, Note_on_c, 0, 57, 0
2, 306763, Note_on_c, 0, 81, 77
2, 306790, Note_on_c, 0, 60, 0
2, 306802, Note_on_c, 0, 82, 0
2, 306946, Note_on_c, 0, 79, 98
2, 306994, Note_on_c, 0, 81, 0
2, 307140, Note_on_c, 0, 79, 0
2, 307142, Note_on_c, 0, 77, 80
2, 307166, Note_on_c, 0, 45, 32
2, 307342, Note_on_c, 0, 76, 70
2, 307398, Note_on_c, 0, 77, 0
2, 307530, Note_on_c, 0, 45, 0
2, 307534, Note_on_c, 0, 74, 76
2, 307560, Note_on_c, 0, 76, 0
2, 307716, Note_on_c, 0, 72, 75
2, 307722, Note_on_c, 0, 74, 0
2, 307852, Note_on_c, 0, 72, 0
2, 307982, Note_on_c, 0, 72, 63
2, 308010, Note_on_c, 0, 45, 23
2, 308178, Control_c, 0, 64, 0
2, 308362, Control_c, 0, 64, 127
2, 308452, Note_on_c, 0, 45, 0
2, 308520, Note_on_c, 0, 77, 53
2, 308530, Note_on_c, 0, 72, 0
2, 308852, Note_on_c, 0, 60, 51
2, 308874, Note_on_c, 0, 57, 15
2, 309040, Control_c, 0, 64, 0
2, 309162, Control_c, 0, 64, 127
2, 309306, Note_on_c, 0, 77, 0
2, 309320, Note_on_c, 0, 60, 0
2, 309342, Note_on_c, 0, 79, 51
2, 309424, Note_on_c, 0, 79, 0
2, 309424, Note_on_c, 0, 58, 29
2, 309464, Note_on_c, 0, 77, 45
2, 309516, Note_on_c, 0, 58, 0
2, 309519, Note_on_c, 0, 77, 0
2, 309544, Note_on_c, 0, 76, 54
2, 309562, Note_on_c, 0, 60, 33
2, 309604, Note_on_c, 0, 76, 0
2, 309630, Note_on_c, 0, 77, 48
2, 309662, Note_on_c, 0, 60, 0
2, 309672, Note_on_c, 0, 57, 0
2, 309688, Note_on_c, 0, 58, 30
2, 309694, Note_on_c, 0, 77, 0
2, 309712, Note_on_c, 0, 55, 38
2, 309718, Note_on_c, 0, 79, 46
2, 309780, Note_on_c, 0, 77, 64
2, 309790, Note_on_c, 0, 79, 0
2, 309854, Control_c, 0, 64, 0
2, 309857, Note_on_c, 0, 77, 0
2, 309880, Note_on_c, 0, 79, 46
2, 309938, Note_on_c, 0, 77, 68
2, 309952, Note_on_c, 0, 79, 0
2, 309994, Note_on_c, 0, 77, 0
2, 310006, Control_c, 0, 64, 127
2, 310010, Note_on_c, 0, 79, 57
2, 310076, Note_on_c, 0, 79, 0
2, 310079, Note_on_c, 0, 77, 54
2, 310136, Note_on_c, 0, 77, 0
2, 310148, Note_on_c, 0, 79, 80
2, 310204, Note_on_c, 0, 79, 0
2, 310218, Note_on_c, 0, 77, 62
2, 310286, Note_on_c, 0, 77, 0
2, 310294, Note_on_c, 0, 79, 70
2, 310356, Note_on_c, 0, 79, 0
2, 310364, Note_on_c, 0, 77, 69
2, 310382, Note_on_c, 0, 58, 0
2, 310396, Note_on_c, 0, 55, 0
2, 310424, Note_on_c, 0, 77, 0
2, 310438, Note_on_c, 0, 79, 82
2, 310442, Note_on_c, 0, 57, 46
2, 310462, Note_on_c, 0, 53, 70
2, 310502, Note_on_c, 0, 79, 0
2, 310520, Note_on_c, 0, 77, 63
2, 310578, Note_on_c, 0, 77, 0
2, 310594, Note_on_c, 0, 79, 90
2, 310648, Note_on_c, 0, 79, 0
2, 310678, Note_on_c, 0, 77, 72
2, 310734, Note_on_c, 0, 77, 0
2, 310758, Note_on_c, 0, 79, 88
2, 310790, Control_c, 0, 64, 0
2, 310804, Note_on_c, 0, 79, 0
2, 310834, Note_on_c, 0, 77, 79
2, 310886, Note_on_c, 0, 77, 0
2, 310908, Note_on_c, 0, 79, 65
2, 310944, Control_c, 0, 64, 127
2, 310960, Note_on_c, 0, 79, 0
2, 310970, Note_on_c, 0, 77, 74
2, 311018, Note_on_c, 0, 77, 0
2, 311026, Note_on_c, 0, 79, 92
2, 311086, Note_on_c, 0, 79, 0
2, 311100, Note_on_c, 0, 77, 63
2, 311156, Note_on_c, 0, 77, 0
2, 311166, Note_on_c, 0, 57, 0
2, 311172, Note_on_c, 0, 79, 80
2, 311202, Note_on_c, 0, 58, 33
2, 311210, Note_on_c, 0, 53, 0
2, 311230, Note_on_c, 0, 77, 70
2, 311236, Note_on_c, 0, 55, 37
2, 311252, Note_on_c, 0, 79, 0
2, 311328, Control_c, 0, 64, 0
2, 311442, Note_on_c, 0, 76, 69
2, 311446, Note_on_c, 0, 77, 0
2, 311512, Control_c, 0, 64, 127
2, 311616, Note_on_c, 0, 55, 0
2, 311616, Note_on_c, 0, 74, 87
2, 311654, Note_on_c, 0, 76, 0
2, 311660, Note_on_c, 0, 58, 0
2, 311800, Note_on_c, 0, 76, 91
2, 311828, Note_on_c, 0, 74, 0
2, 312028, Note_on_c, 0, 77, 88
2, 312036, Note_on_c, 0, 43, 33
2, 312056, Note_on_c, 0, 76, 0
2, 312144, Control_c, 0, 64, 0
2, 312312, Control_c, 0, 64, 127
2, 312428, Note_on_c, 0, 74, 83
2, 312500, Note_on_c, 0, 77, 0
2, 312606, Note_on_c, 0, 43, 0
2, 312876, Note_on_c, 0, 72, 68
2, 312908, Note_on_c, 0, 43, 38
2, 312924, Note_on_c, 0, 74, 0
2, 313090, Note_on_c, 0, 70, 59
2, 313096, Control_c, 0, 64, 0
2, 313146, Note_on_c, 0, 72, 0
2, 313300, Note_on_c, 0, 69, 61
2, 313312, Note_on_c, 0, 70, 0
2, 313358, Control_c, 0, 64, 127
2, 313382, Note_on_c, 0, 43, 0
2, 313680, Note_on_c, 0, 69, 0
2, 313692, Note_on_c, 0, 70, 46
2, 313706, Note_on_c, 0, 57, 34
2, 313720, Note_on_c, 0, 53, 53
2, 313870, Note_on_c, 0, 70, 0
2, 313880, Note_on_c, 0, 69, 53
2, 313940, Control_c, 0, 64, 0
2, 314068, Note_on_c, 0, 70, 52
2, 314093, Note_on_c, 0, 69, 0
2, 314218, Control_c, 0, 64, 127
2, 314272, Note_on_c, 0, 57, 0
2, 314498, Note_on_c, 0, 55, 54
2, 314500, Note_on_c, 0, 53, 0
2, 314502, Note_on_c, 0, 52, 46
2, 314648, Control_c, 0, 64, 0
2, 314734, Note_on_c, 0, 72, 70
2, 314766, Note_on_c, 0, 70, 0
2, 314800, Control_c, 0, 64, 127
2, 314908, Control_c, 0, 64, 0
2, 314932, Note_on_c, 0, 70, 75
2, 314986, Note_on_c, 0, 72, 0
2, 315062, Control_c, 0, 64, 127
2, 315120, Note_on_c, 0, 69, 70
2, 315148, Note_on_c, 0, 70, 0
2, 315362, Note_on_c, 0, 55, 0
2, 315370, Note_on_c, 0, 70, 62
2, 315390, Note_on_c, 0, 52, 0
2, 315396, Note_on_c, 0, 53, 65
2, 315398, Note_on_c, 0, 50, 42
2, 315400, Note_on_c, 0, 69, 0
2, 315446, Control_c, 0, 64, 0
2, 315862, Control_c, 0, 64, 127
2, 315884, Note_on_c, 0, 70, 0
2, 316174, Note_on_c, 0, 70, 65
2, 316226, Note_on_c, 0, 53, 0
2, 316346, Note_on_c, 0, 70, 0
2, 316454, Note_on_c, 0, 50, 0
2, 316496, Note_on_c, 0, 70, 67
2, 316532, Note_on_c, 0, 52, 40
2, 316544, Note_on_c, 0, 48, 23
2, 316692, Control_c, 0, 64, 0
2, 316984, Control_c, 0, 64, 127
2, 317220, Note_on_c, 0, 79, 68
2, 317228, Control_c, 0, 64, 0
2, 317288, Note_on_c, 0, 70, 0
2, 317392, Note_on_c, 0, 52, 0
2, 317398, Control_c, 0, 64, 127
2, 317428, Note_on_c, 0, 48, 0
2, 317826, Note_on_c, 0, 36, 40
2, 318322, Note_on_c, 0, 36, 0
2, 318712, Note_on_c, 0, 36, 32
2, 318940, Note_on_c, 0, 77, 36
2, 318964, Note_on_c, 0, 79, 0
2, 319026, Note_on_c, 0, 36, 0
2, 319120, Note_on_c, 0, 77, 0
2, 319144, Note_on_c, 0, 76, 44
2, 319344, Note_on_c, 0, 77, 55
2, 319350, Note_on_c, 0, 76, 0
2, 319548, Note_on_c, 0, 77, 0
2, 319550, Note_on_c, 0, 79, 63
2, 319554, Note_on_c, 0, 48, 30
2, 319574, Note_on_c, 0, 52, 45
2, 319686, Control_c, 0, 64, 0
2, 319766, Note_on_c, 0, 77, 62
2, 319794, Note_on_c, 0, 79, 0
2, 319888, Control_c, 0, 64, 127
2, 319946, Note_on_c, 0, 77, 0
2, 319946, Note_on_c, 0, 76, 56
2, 320144, Note_on_c, 0, 74, 61
2, 320166, Note_on_c, 0, 76, 0
2, 320224, Note_on_c, 0, 52, 0
2, 320356, Note_on_c, 0, 72, 57
2, 320362, Note_on_c, 0, 53, 68
2, 320364, Note_on_c, 0, 74, 0
2, 320367, Note_on_c, 0, 50, 48
2, 320440, Control_c, 0, 64, 0
2, 320446, Note_on_c, 0, 48, 0
2, 320732, Control_c, 0, 64, 127
2, 320734, Note_on_c, 0, 70, 61
2, 320762, Note_on_c, 0, 72, 0
2, 320900, Control_c, 0, 64, 0
2, 320924, Note_on_c, 0, 69, 70
2, 320954, Note_on_c, 0, 70, 0
2, 321038, Control_c, 0, 64, 127
2, 321182, Note_on_c, 0, 70, 71
2, 321190, Note_on_c, 0, 53, 0
2, 321216, Note_on_c, 0, 55, 49
2, 321224, Note_on_c, 0, 50, 0
2, 321228, Note_on_c, 0, 52, 36
2, 321232, Note_on_c, 0, 69, 0
2, 321454, Control_c, 0, 64, 0
2, 321696, Note_on_c, 0, 55, 0
2, 321700, Control_c, 0, 64, 127
2, 321834, Note_on_c, 0, 70, 0
2, 321840, Note_on_c, 0, 79, 78
2, 322064, Note_on_c, 0, 52, 0
2, 322086, Note_on_c, 0, 70, 68
2, 322108, Note_on_c, 0, 79, 0
2, 322120, Note_on_c, 0, 57, 36
2, 322124, Note_on_c, 0, 53, 48
2, 322300, Control_c, 0, 64, 0
2, 322486, Note_on_c, 0, 69, 63
2, 322528, Note_on_c, 0, 70, 0
2, 322642, Note_on_c, 0, 57, 0
2, 322658, Note_on_c, 0, 53, 0
2, 322668, Control_c, 0, 64, 127
2, 323012, Note_on_c, 0, 69, 0
2, 323012, Note_on_c, 0, 81, 49
2, 323036, Note_on_c, 0, 36, 34
2, 323298, Control_c, 0, 64, 0
2, 323514, Control_c, 0, 64, 127
2, 323598, Note_on_c, 0, 36, 0
2, 323854, Note_on_c, 0, 36, 52
2, 324076, Note_on_c, 0, 79, 61
2, 324142, Note_on_c, 0, 81, 0
2, 324172, Note_on_c, 0, 36, 0
2, 324272, Note_on_c, 0, 77, 74
2, 324274, Note_on_c, 0, 79, 0
2, 324456, Note_on_c, 0, 79, 88
2, 324490, Note_on_c, 0, 77, 0
2, 324668, Note_on_c, 0, 50, 44
2, 324670, Note_on_c, 0, 81, 82
2, 324678, Note_on_c, 0, 53, 67
2, 324696, Note_on_c, 0, 79, 0
2, 324788, Control_c, 0, 64, 0
2, 324906, Note_on_c, 0, 79, 88
2, 324958, Control_c, 0, 64, 127
2, 324972, Note_on_c, 0, 81, 0
2, 325096, Note_on_c, 0, 77, 83
2, 325128, Note_on_c, 0, 79, 0
2, 325280, Note_on_c, 0, 76, 70
2, 325294, Note_on_c, 0, 53, 0
2, 325310, Note_on_c, 0, 77, 0
2, 325478, Note_on_c, 0, 74, 76
2, 325482, Note_on_c, 0, 76, 0
2, 325488, Note_on_c, 0, 55, 40
2, 325498, Note_on_c, 0, 52, 44
2, 325506, Note_on_c, 0, 50, 0
2, 325526, Control_c, 0, 64, 0
2, 325680, Note_on_c, 0, 72, 75
2, 325736, Note_on_c, 0, 74, 0
2, 325756, Control_c, 0, 64, 127
2, 325866, Note_on_c, 0, 70, 74
2, 325908, Note_on_c, 0, 72, 0
2, 326046, Note_on_c, 0, 69, 75
2, 326084, Note_on_c, 0, 70, 0
2, 326206, Note_on_c, 0, 52, 0
2, 326206, Note_on_c, 0, 55, 0
2, 326244, Note_on_c, 0, 67, 71
2, 326256, Note_on_c, 0, 53, 51
2, 326262, Note_on_c, 0, 69, 0
2, 326265, Note_on_c, 0, 57, 32
2, 326464, Control_c, 0, 64, 0
2, 326467, Note_on_c, 0, 65, 70
2, 326534, Note_on_c, 0, 67, 0
2, 326664, Note_on_c, 0, 64, 86
2, 326700, Note_on_c, 0, 65, 0
2, 326724, Control_c, 0, 64, 127
2, 326832, Note_on_c, 0, 57, 0
2, 326874, Note_on_c, 0, 65, 83
2, 326888, Note_on_c, 0, 64, 0
2, 326942, Note_on_c, 0, 53, 0
2, 327022, Note_on_c, 0, 65, 0
2, 327152, Note_on_c, 0, 65, 64
2, 327162, Note_on_c, 0, 58, 24
2, 327166, Note_on_c, 0, 55, 42
2, 327340, Control_c, 0, 64, 0
2, 327588, Note_on_c, 0, 65, 0
2, 327590, Note_on_c, 0, 64, 65
2, 327724, Note_on_c, 0, 55, 0
2, 327754, Control_c, 0, 64, 127
2, 327760, Note_on_c, 0, 58, 0
2, 328098, Note_on_c, 0, 36, 41
2, 328314, Note_on_c, 0, 67, 45
2, 328326, Note_on_c, 0, 64, 0
2, 328516, Note_on_c, 0, 65, 55
2, 328528, Note_on_c, 0, 67, 0
2, 328632, Note_on_c, 0, 36, 0
2, 328698, Note_on_c, 0, 65, 0
2, 328712, Note_on_c, 0, 64, 63
2, 328888, Note_on_c, 0, 64, 0
2, 328892, Control_c, 0, 64, 0
2, 328896, Note_on_c, 0, 70, 53
2, 328908, Note_on_c, 0, 36, 51
2, 329114, Note_on_c, 0, 72, 52
2, 329128, Note_on_c, 0, 70, 0
2, 329152, Control_c, 0, 64, 127
2, 329220, Note_on_c, 0, 36, 0
2, 329282, Note_on_c, 0, 70, 55
2, 329310, Note_on_c, 0, 72, 0
2, 329462, Note_on_c, 0, 69, 67
2, 329484, Note_on_c, 0, 70, 0
2, 329688, Note_on_c, 0, 70, 71
2, 329704, Note_on_c, 0, 52, 49
2, 329716, Note_on_c, 0, 55, 48
2, 329722, Note_on_c, 0, 69, 0
2, 329812, Control_c, 0, 64, 0
2, 329996, Control_c, 0, 64, 127
2, 330094, Note_on_c, 0, 72, 83
2, 330140, Note_on_c, 0, 70, 0
2, 330454, Note_on_c, 0, 52, 0
2, 330458, Note_on_c, 0, 55, 0
2, 330494, Note_on_c, 0, 53, 54
2, 330497, Note_on_c, 0, 57, 45
2, 330596, Control_c, 0, 64, 0
2, 330812, Control_c, 0, 64, 127
2, 330932, Note_on_c, 0, 74, 90
2, 330994, Note_on_c, 0, 72, 0
2, 331104, Control_c, 0, 64, 0
2, 331258, Control_c, 0, 64, 127
2, 331332, Note_on_c, 0, 58, 53
2, 331337, Note_on_c, 0, 55, 57
2, 331378, Note_on_c, 0, 57, 0
2, 331406, Note_on_c, 0, 53, 0
2, 331742, Note_on_c, 0, 76, 72
2, 331786, Note_on_c, 0, 74, 0
2, 331872, Control_c, 0, 64, 0
2, 332024, Control_c, 0, 64, 127
2, 332120, Note_on_c, 0, 58, 0
2, 332126, Note_on_c, 0, 57, 40
2, 332142, Note_on_c, 0, 55, 0
2, 332142, Note_on_c, 0, 60, 41
2, 332194, Control_c, 0, 64, 0
2, 332370, Note_on_c, 0, 79, 70
2, 332378, Note_on_c, 0, 76, 0
2, 332378, Control_c, 0, 64, 127
2, 332522, Note_on_c, 0, 60, 0
2, 332560, Note_on_c, 0, 57, 0
2, 332588, Note_on_c, 0, 77, 69
2, 332636, Note_on_c, 0, 79, 0
2, 332792, Note_on_c, 0, 76, 64
2, 332808, Note_on_c, 0, 77, 0
2, 333004, Note_on_c, 0, 77, 59
2, 333020, Note_on_c, 0, 76, 0
2, 333020, Note_on_c, 0, 36, 42
2, 333146, Control_c, 0, 64, 0
2, 333192, Note_on_c, 0, 72, 64
2, 333218, Note_on_c, 0, 77, 0
2, 333332, Control_c, 0, 64, 127
2, 333386, Note_on_c, 0, 74, 82
2, 333402, Note_on_c, 0, 72, 0
2, 333542, Note_on_c, 0, 36, 0
2, 333572, Note_on_c, 0, 76, 79
2, 333600, Note_on_c, 0, 74, 0
2, 333730, Note_on_c, 0, 76, 0
2, 333752, Note_on_c, 0, 77, 83
2, 333782, Note_on_c, 0, 36, 48
2, 333808, Control_c, 0, 64, 0
2, 333940, Note_on_c, 0, 76, 79
2, 333958, Note_on_c, 0, 77, 0
2, 333976, Control_c, 0, 64, 127
2, 334048, Note_on_c, 0, 36, 0
2, 334120, Note_on_c, 0, 77, 83
2, 334140, Note_on_c, 0, 76, 0
2, 334310, Note_on_c, 0, 79, 105
2, 334338, Note_on_c, 0, 77, 0
2, 334512, Note_on_c, 0, 77, 94
2, 334534, Note_on_c, 0, 60, 62
2, 334538, Note_on_c, 0, 79, 0
2, 334542, Note_on_c, 0, 57, 44
2, 334718, Note_on_c, 0, 79, 107
2, 334768, Note_on_c, 0, 77, 0
2, 334906, Note_on_c, 0, 81, 100
2, 334928, Note_on_c, 0, 79, 0
2, 335100, Note_on_c, 0, 79, 114
2, 335126, Note_on_c, 0, 81, 0
2, 335296, Note_on_c, 0, 81, 101
2, 335298, Note_on_c, 0, 58, 55
2, 335314, Note_on_c, 0, 55, 48
2, 335328, Note_on_c, 0, 60, 0
2, 335331, Note_on_c, 0, 57, 0
2, 335348, Note_on_c, 0, 79, 0
2, 335406, Control_c, 0, 64, 0
2, 335486, Note_on_c, 0, 82, 91
2, 335538, Note_on_c, 0, 81, 0
2, 335636, Control_c, 0, 64, 127
2, 335688, Note_on_c, 0, 81, 101
2, 335740, Note_on_c, 0, 82, 0
2, 335890, Note_on_c, 0, 82, 94
2, 335954, Note_on_c, 0, 81, 0
2, 336114, Note_on_c, 0, 84, 97
2, 336118, Note_on_c, 0, 58, 0
2, 336130, Note_on_c, 0, 57, 46
2, 336136, Note_on_c, 0, 53, 68
2, 336168, Note_on_c, 0, 82, 0
2, 336170, Note_on_c, 0, 55, 0
2, 336340, Note_on_c, 0, 81, 105
2, 336414, Note_on_c, 0, 84, 0
2, 336550, Note_on_c, 0, 82, 97
2, 336614, Note_on_c, 0, 81, 0
2, 336620, Control_c, 0, 64, 0
2, 336758, Control_c, 0, 64, 127
2, 336794, Note_on_c, 0, 84, 109
2, 336830, Note_on_c, 0, 82, 0
2, 337018, Note_on_c, 0, 84, 0
2, 337066, Note_on_c, 0, 57, 0
2, 337138, Note_on_c, 0, 58, 45
2, 337150, Note_on_c, 0, 84, 75
2, 337174, Note_on_c, 0, 55, 49
2, 337204, Note_on_c, 0, 53, 0
2, 337280, Control_c, 0, 64, 0
2, 337496, Control_c, 0, 64, 127
2, 337550, Note_on_c, 0, 84, 0
2, 337748, Note_on_c, 0, 77, 71
2, 337770, Note_on_c, 0, 58, 0
2, 337776, Note_on_c, 0, 55, 0
2, 338288, Note_on_c, 0, 36, 33
2, 338494, Control_c, 0, 64, 0
2, 338648, Control_c, 0, 64, 127
2, 338780, Note_on_c, 0, 77, 0
2, 338780, Note_on_c, 0, 76, 44
2, 338788, Note_on_c, 0, 36, 0
2, 339182, Note_on_c, 0, 36, 38
2, 339184, Control_c, 0, 64, 0
2, 339384, Control_c, 0, 64, 127
2, 339420, Note_on_c, 0, 74, 55
2, 339456, Note_on_c, 0, 76, 0
2, 339556, Note_on_c, 0, 36, 0
2, 339624, Note_on_c, 0, 76, 65
2, 339644, Note_on_c, 0, 74, 0
2, 339818, Note_on_c, 0, 77, 75
2, 339828, Note_on_c, 0, 76, 0
2, 340006, Note_on_c, 0, 76, 67
2, 340012, Note_on_c, 0, 58, 29
2, 340032, Note_on_c, 0, 55, 37
2, 340048, Note_on_c, 0, 77, 0
2, 340200, Control_c, 0, 64, 0
2, 340214, Note_on_c, 0, 79, 82
2, 340236, Note_on_c, 0, 76, 0
2, 340384, Control_c, 0, 64, 127
2, 340422, Note_on_c, 0, 77, 78
2, 340476, Note_on_c, 0, 79, 0
2, 340608, Note_on_c, 0, 76, 70
2, 340616, Note_on_c, 0, 58, 0
2, 340636, Note_on_c, 0, 77, 0
2, 340642, Note_on_c, 0, 55, 0
2, 340828, Note_on_c, 0, 74, 75
2, 340852, Note_on_c, 0, 57, 29
2, 340862, Note_on_c, 0, 76, 0
2, 340882, Note_on_c, 0, 53, 44
2, 341040, Note_on_c, 0, 72, 68
2, 341048, Note_on_c, 0, 74, 0
2, 341272, Note_on_c, 0, 70, 56
2, 341290, Control_c, 0, 64, 0
2, 341300, Note_on_c, 0, 72, 0
2, 341460, Control_c, 0, 64, 127
2, 341516, Note_on_c, 0, 69, 51
2, 341528, Note_on_c, 0, 70, 0
2, 341531, Note_on_c, 0, 57, 0
2, 341560, Note_on_c, 0, 53, 0
2, 341858, Note_on_c, 0, 70, 39
2, 341880, Note_on_c, 0, 55, 31
2, 341888, Note_on_c, 0, 69, 0
2, 341910, Note_on_c, 0, 52, 32
2, 342104, Control_c, 0, 64, 0
2, 342366, Control_c, 0, 64, 127
2, 342476, Note_on_c, 0, 70, 0
2, 342526, Note_on_c, 0, 52, 0
2, 342526, Note_on_c, 0, 55, 0
2, 342580, Note_on_c, 0, 79, 62
2, 342708, Note_on_c, 0, 79, 0
2, 342876, Note_on_c, 0, 79, 68
2, 342906, Note_on_c, 0, 53, 46
2, 342918, Note_on_c, 0, 57, 31
2, 342966, Control_c, 0, 64, 0
2, 343140, Note_on_c, 0, 77, 61
2, 343168, Note_on_c, 0, 79, 0
2, 343180, Control_c, 0, 64, 127
2, 343244, Note_on_c, 0, 57, 0
2, 343336, Note_on_c, 0, 53, 0
2, 343356, Note_on_c, 0, 76, 48
2, 343368, Note_on_c, 0, 77, 0
2, 343576, Note_on_c, 0, 79, 67
2, 343592, Note_on_c, 0, 76, 0
2, 343808, Note_on_c, 0, 77, 65
2, 343824, Note_on_c, 0, 36, 42
2, 343836, Note_on_c, 0, 79, 0
2, 344018, Note_on_c, 0, 76, 51
2, 344092, Note_on_c, 0, 77, 0
2, 344222, Note_on_c, 0, 74, 57
2, 344228, Note_on_c, 0, 76, 0
2, 344360, Note_on_c, 0, 36, 0
2, 344416, Note_on_c, 0, 77, 72
2, 344418, Note_on_c, 0, 74, 0
2, 344620, Note_on_c, 0, 76, 63
2, 344640, Note_on_c, 0, 77, 0
2, 344644, Note_on_c, 0, 36, 45
2, 344686, Control_c, 0, 64, 0
2, 344834, Note_on_c, 0, 74, 75
2, 344866, Note_on_c, 0, 76, 0
2, 344886, Control_c, 0, 64, 127
2, 344920, Note_on_c, 0, 36, 0
2, 345026, Note_on_c, 0, 72, 56
2, 345034, Note_on_c, 0, 74, 0
2, 345224, Note_on_c, 0, 72, 0
2, 345229, Note_on_c, 0, 76, 64
2, 345444, Note_on_c, 0, 74, 74
2, 345454, Note_on_c, 0, 76, 0
2, 345464, Note_on_c, 0, 53, 59
2, 345470, Note_on_c, 0, 57, 39
2, 345646, Note_on_c, 0, 72, 63
2, 345664, Note_on_c, 0, 74, 0
2, 345828, Note_on_c, 0, 70, 63
2, 345848, Note_on_c, 0, 72, 0
2, 345988, Note_on_c, 0, 57, 0
2, 346034, Note_on_c, 0, 74, 87
2, 346038, Note_on_c, 0, 70, 0
2, 346230, Note_on_c, 0, 72, 77
2, 346242, Note_on_c, 0, 55, 60
2, 346248, Note_on_c, 0, 74, 0
2, 346248, Note_on_c, 0, 53, 0
2, 346251, Note_on_c, 0, 52, 55
2, 346362, Control_c, 0, 64, 0
2, 346442, Note_on_c, 0, 70, 72
2, 346494, Note_on_c, 0, 72, 0
2, 346576, Control_c, 0, 64, 127
2, 346628, Note_on_c, 0, 69, 72
2, 346658, Note_on_c, 0, 70, 0
2, 346830, Note_on_c, 0, 72, 82
2, 346842, Note_on_c, 0, 69, 0
2, 347028, Note_on_c, 0, 55, 0
2, 347046, Note_on_c, 0, 70, 76
2, 347060, Note_on_c, 0, 53, 82
2, 347068, Note_on_c, 0, 50, 49
2, 347072, Note_on_c, 0, 52, 0
2, 347084, Note_on_c, 0, 72, 0
2, 347252, Control_c, 0, 64, 0
2, 347280, Note_on_c, 0, 69, 71
2, 347358, Note_on_c, 0, 70, 0
2, 347452, Control_c, 0, 64, 127
2, 347470, Note_on_c, 0, 67, 82
2, 347498, Note_on_c, 0, 69, 0
2, 347694, Note_on_c, 0, 70, 77
2, 347738, Note_on_c, 0, 67, 0
2, 347862, Note_on_c, 0, 70, 0
2, 348046, Note_on_c, 0, 70, 79
2, 348049, Note_on_c, 0, 53, 0
2, 348060, Note_on_c, 0, 55, 44
2, 348064, Note_on_c, 0, 52, 54
2, 348094, Note_on_c, 0, 50, 0
2, 348224, Control_c, 0, 64, 0
2, 348466, Control_c, 0, 64, 127
2, 348644, Note_on_c, 0, 60, 79
2, 348726, Note_on_c, 0, 70, 0
2, 348748, Note_on_c, 0, 55, 0
2, 348760, Note_on_c, 0, 52, 0
2, 349108, Note_on_c, 0, 36, 61
2, 349126, Control_c, 0, 64, 0
2, 349388, Control_c, 0, 64, 127
2, 349616, Note_on_c, 0, 64, 98
2, 349654, Note_on_c, 0, 36, 0
2, 349672, Note_on_c, 0, 60, 0
2, 350030, Note_on_c, 0, 67, 97
2, 350056, Note_on_c, 0, 36, 46
2, 350100, Note_on_c, 0, 64, 0
2, 350202, Control_c, 0, 64, 0
2, 350370, Control_c, 0, 64, 127
2, 350426, Note_on_c, 0, 70, 85
2, 350476, Note_on_c, 0, 36, 0
2, 350580, Note_on_c, 0, 67, 0
2, 350844, Note_on_c, 0, 74, 88
2, 350856, Note_on_c, 0, 52, 69
2, 350856, Note_on_c, 0, 55, 56
2, 350966, Note_on_c, 0, 70, 0
2, 351016, Control_c, 0, 64, 0
2, 351216, Control_c, 0, 64, 127
2, 351398, Note_on_c, 0, 72, 75
2, 351442, Note_on_c, 0, 74, 0
2, 351846, Control_c, 0, 64, 0
2, 351852, Note_on_c, 0, 57, 54
2, 351852, Note_on_c, 0, 53, 72
2, 351855, Note_on_c, 0, 55, 0
2, 351864, Note_on_c, 0, 52, 0
2, 352074, Note_on_c, 0, 70, 70
2, 352148, Note_on_c, 0, 72, 0
2, 352200, Control_c, 0, 64, 127
2, 352278, Note_on_c, 0, 69, 71
2, 352326, Note_on_c, 0, 70, 0
2, 352466, Note_on_c, 0, 53, 0
2, 352474, Note_on_c, 0, 67, 83
2, 352498, Note_on_c, 0, 69, 0
2, 352686, Note_on_c, 0, 69, 82
2, 352692, Control_c, 0, 64, 0
2, 352692, Note_on_c, 0, 52, 72
2, 352695, Note_on_c, 0, 48, 53
2, 352698, Note_on_c, 0, 57, 0
2, 352738, Note_on_c, 0, 67, 0
2, 352984, Note_on_c, 0, 69, 0
2, 352998, Control_c, 0, 64, 127
2, 353136, Note_on_c, 0, 72, 72
2, 353244, Control_c, 0, 64, 0
2, 353474, Control_c, 0, 64, 127
2, 353536, Note_on_c, 0, 52, 0
2, 353542, Note_on_c, 0, 53, 72
2, 353556, Note_on_c, 0, 50, 48
2, 353566, Note_on_c, 0, 48, 0
2, 353598, Control_c, 0, 64, 0
2, 353772, Note_on_c, 0, 67, 77
2, 353828, Control_c, 0, 64, 127
2, 353844, Note_on_c, 0, 72, 0
2, 353982, Note_on_c, 0, 65, 77
2, 354050, Note_on_c, 0, 67, 0
2, 354120, Control_c, 0, 64, 0
2, 354184, Note_on_c, 0, 64, 92
2, 354206, Note_on_c, 0, 65, 0
2, 354320, Control_c, 0, 64, 127
2, 354500, Note_on_c, 0, 65, 80
2, 354502, Note_on_c, 0, 46, 41
2, 354544, Note_on_c, 0, 64, 0
2, 354550, Control_c, 0, 64, 0
2, 354555, Note_on_c, 0, 50, 0
2, 354826, Control_c, 0, 64, 127
2, 354914, Note_on_c, 0, 65, 0
2, 354978, Note_on_c, 0, 74, 82
2, 355120, Control_c, 0, 64, 0
2, 355288, Control_c, 0, 64, 127
2, 355490, Note_on_c, 0, 69, 48
2, 355510, Note_on_c, 0, 48, 40
2, 355524, Note_on_c, 0, 74, 0
2, 355544, Note_on_c, 0, 46, 0
2, 355596, Control_c, 0, 64, 0
2, 355770, Note_on_c, 0, 70, 52
2, 355800, Note_on_c, 0, 69, 0
2, 356000, Note_on_c, 0, 69, 56
2, 356042, Note_on_c, 0, 70, 0
2, 356056, Control_c, 0, 64, 127
2, 356190, Note_on_c, 0, 67, 64
2, 356214, Note_on_c, 0, 69, 0
2, 356406, Note_on_c, 0, 69, 57
2, 356424, Control_c, 0, 64, 0
2, 356432, Note_on_c, 0, 67, 0
2, 356438, Note_on_c, 0, 52, 53
2, 356488, Note_on_c, 0, 53, 0
2, 356610, Note_on_c, 0, 67, 69
2, 356636, Note_on_c, 0, 69, 0
2, 356639, Control_c, 0, 64, 127
2, 356788, Note_on_c, 0, 67, 0
2, 356796, Note_on_c, 0, 65, 57
2, 356796, Note_on_c, 0, 50, 49
2, 356840, Note_on_c, 0, 52, 0
2, 356856, Control_c, 0, 64, 0
2, 356970, Note_on_c, 0, 65, 0
2, 356982, Note_on_c, 0, 67, 70
2, 357086, Control_c, 0, 64, 127
2, 357132, Note_on_c, 0, 67, 0
2, 357178, Note_on_c, 0, 65, 49
2, 357242, Note_on_c, 0, 65, 0
2, 357276, Note_on_c, 0, 52, 55
2, 357282, Note_on_c, 0, 50, 0
2, 357290, Note_on_c, 0, 67, 54
2, 357332, Control_c, 0, 64, 0
2, 357360, Note_on_c, 0, 67, 0
2, 357390, Note_on_c, 0, 69, 36
2, 357440, Note_on_c, 0, 67, 60
2, 357466, Note_on_c, 0, 69, 0
2, 357518, Note_on_c, 0, 67, 0
2, 357534, Note_on_c, 0, 69, 41
2, 357596, Note_on_c, 0, 67, 65
2, 357618, Note_on_c, 0, 69, 0
2, 357668, Note_on_c, 0, 67, 0
2, 357670, Note_on_c, 0, 69, 41
2, 357744, Note_on_c, 0, 67, 63
2, 357754, Note_on_c, 0, 69, 0
2, 357812, Note_on_c, 0, 67, 0
2, 357820, Note_on_c, 0, 69, 41
2, 357884, Control_c, 0, 64, 127
2, 357889, Note_on_c, 0, 67, 54
2, 357904, Note_on_c, 0, 69, 0
2, 357950, Note_on_c, 0, 67, 0
2, 357960, Note_on_c, 0, 69, 41
2, 358022, Note_on_c, 0, 67, 59
2, 358044, Note_on_c, 0, 69, 0
2, 358086, Note_on_c, 0, 67, 0
2, 358106, Note_on_c, 0, 69, 44
2, 358166, Note_on_c, 0, 67, 55
2, 358182, Note_on_c, 0, 69, 0
2, 358230, Note_on_c, 0, 67, 0
2, 358256, Note_on_c, 0, 69, 46
2, 358332, Note_on_c, 0, 69, 0
2, 358335, Note_on_c, 0, 67, 51
2, 358398, Note_on_c, 0, 67, 0
2, 358402, Note_on_c, 0, 69, 46
2, 358490, Note_on_c, 0, 69, 0
2, 358494, Note_on_c, 0, 67, 38
2, 358504, Note_on_c, 0, 58, 23
2, 358546, Note_on_c, 0, 52, 0
2, 358570, Note_on_c, 0, 67, 0
2, 358570, Note_on_c, 0, 69, 44
2, 358648, Note_on_c, 0, 69, 0
2, 358666, Note_on_c, 0, 67, 33
2, 358724, Note_on_c, 0, 69, 54
2, 358802, Note_on_c, 0, 69, 0
2, 358838, Control_c, 0, 64, 0
2, 358972, Note_on_c, 0, 65, 41
2, 358975, Note_on_c, 0, 67, 0
2, 359038, Control_c, 0, 64, 127
2, 359230, Note_on_c, 0, 65, 0
2, 359250, Note_on_c, 0, 67, 47
2, 359302, Note_on_c, 0, 58, 0
2, 359404, Note_on_c, 0, 48, 0
2, 359508, Note_on_c, 0, 67, 0
2, 359720, Note_on_c, 0, 65, 39
2, 359736, Note_on_c, 0, 53, 55
2, 359748, Note_on_c, 0, 57, 23
2, 359758, Control_c, 0, 64, 0
2, 359990, Control_c, 0, 64, 127
2, 360034, Note_on_c, 0, 65, 0
2, 360048, Note_on_c, 0, 57, 0
2, 360080, Note_on_c, 0, 53, 0
2, 360656, Note_on_c, 0, 41, 28
2, 360976, Note_on_c, 0, 41, 0
2, 361460, Note_on_c, 0, 41, 39
2, 361674, Note_on_c, 0, 41, 0
2, 362402, Note_on_c, 0, 57, 48
2, 362404, Note_on_c, 0, 55, 34
2, 362648, Control_c, 0, 64, 0
2, 362956, Control_c, 0, 64, 127
2, 363164, Note_on_c, 0, 57, 0
2, 363198, Note_on_c, 0, 59, 54
2, 363201, Note_on_c, 0, 53, 70
2, 363288, Note_on_c, 0, 55, 0
2, 363956, Note_on_c, 0, 61, 68
2, 363984, Note_on_c, 0, 52, 59
2, 364054, Note_on_c, 0, 53, 0
2, 364122, Note_on_c, 0, 59, 0
2, 364260, Control_c, 0, 64, 0
2, 364522, Control_c, 0, 64, 127
2, 364602, Note_on_c, 0, 52, 0
2, 364689, Note_on_c, 0, 61, 0
2, 364790, Note_on_c, 0, 62, 67
2, 364806, Note_on_c, 0, 50, 53
2, 364968, Control_c, 0, 64, 0
2, 365198, Control_c, 0, 64, 127
2, 365210, Note_on_c, 0, 62, 0
2, 365280, Note_on_c, 0, 50, 0
2, 365566, Note_on_c, 0, 38, 65
2, 366024, Note_on_c, 0, 38, 0
2, 366302, Note_on_c, 0, 77, 87
2, 366344, Note_on_c, 0, 38, 42
2, 366490, Control_c, 0, 64, 0
2, 366502, Note_on_c, 0, 76, 88
2, 366534, Note_on_c, 0, 77, 0
2, 366720, Control_c, 0, 64, 127
2, 366728, Note_on_c, 0, 38, 0
2, 366730, Note_on_c, 0, 77, 98
2, 366762, Note_on_c, 0, 76, 0
2, 367144, Note_on_c, 0, 65, 54
2, 367164, Note_on_c, 0, 62, 51
2, 367472, Control_c, 0, 64, 0
2, 367750, Control_c, 0, 64, 127
2, 367892, Note_on_c, 0, 67, 64
2, 367895, Note_on_c, 0, 65, 0
2, 367904, Note_on_c, 0, 64, 45
2, 367914, Note_on_c, 0, 62, 0
2, 368256, Control_c, 0, 64, 0
2, 368486, Control_c, 0, 64, 127
2, 368578, Note_on_c, 0, 64, 0
2, 368588, Note_on_c, 0, 67, 0
2, 368620, Note_on_c, 0, 69, 37
2, 368640, Note_on_c, 0, 65, 33
2, 368780, Control_c, 0, 64, 0
2, 369010, Control_c, 0, 64, 127
2, 369096, Note_on_c, 0, 69, 0
2, 369176, Note_on_c, 0, 65, 0
2, 369398, Note_on_c, 0, 70, 36
2, 369428, Note_on_c, 0, 67, 30
2, 369440, Control_c, 0, 64, 0
2, 369670, Control_c, 0, 64, 127
2, 369822, Note_on_c, 0, 67, 0
2, 369908, Note_on_c, 0, 70, 0
2, 369936, Note_on_c, 0, 76, 37
2, 369958, Note_on_c, 0, 77, 0
2, 370156, Note_on_c, 0, 74, 53
2, 370182, Note_on_c, 0, 76, 0
2, 370390, Note_on_c, 0, 73, 55
2, 370420, Note_on_c, 0, 74, 0
2, 370430, Note_on_c, 0, 50, 36
2, 370700, Control_c, 0, 64, 0
2, 370764, Note_on_c, 0, 74, 69
2, 370828, Note_on_c, 0, 73, 0
2, 370884, Control_c, 0, 64, 127
2, 370902, Note_on_c, 0, 50, 0
2, 371122, Note_on_c, 0, 74, 0
2, 371164, Note_on_c, 0, 67, 57
2, 371184, Note_on_c, 0, 50, 38
2, 371394, Note_on_c, 0, 69, 55
2, 371406, Note_on_c, 0, 67, 0
2, 371514, Control_c, 0, 64, 0
2, 371578, Note_on_c, 0, 70, 64
2, 371588, Note_on_c, 0, 69, 0
2, 371678, Note_on_c, 0, 50, 0
2, 371681, Control_c, 0, 64, 127
2, 371930, Note_on_c, 0, 69, 45
2, 371950, Note_on_c, 0, 65, 30
2, 372004, Control_c, 0, 64, 0
2, 372082, Note_on_c, 0, 70, 0
2, 372190, Control_c, 0, 64, 127
2, 372390, Note_on_c, 0, 70, 63
2, 372528, Note_on_c, 0, 69, 0
2, 372658, Note_on_c, 0, 65, 0
2, 372804, Note_on_c, 0, 67, 54
2, 372824, Note_on_c, 0, 64, 39
2, 372866, Control_c, 0, 64, 0
2, 373034, Note_on_c, 0, 72, 60
2, 373054, Note_on_c, 0, 70, 0
2, 373080, Control_c, 0, 64, 127
2, 373194, Note_on_c, 0, 70, 76
2, 373236, Note_on_c, 0, 72, 0
2, 373360, Note_on_c, 0, 69, 80
2, 373382, Note_on_c, 0, 70, 0
2, 373510, Note_on_c, 0, 64, 0
2, 373520, Note_on_c, 0, 67, 0
2, 373536, Note_on_c, 0, 70, 76
2, 373562, Note_on_c, 0, 65, 30
2, 373566, Note_on_c, 0, 69, 0
2, 373580, Note_on_c, 0, 62, 28
2, 373712, Control_c, 0, 64, 0
2, 373726, Note_on_c, 0, 72, 84
2, 373762, Note_on_c, 0, 70, 0
2, 373906, Note_on_c, 0, 70, 79
2, 373972, Note_on_c, 0, 72, 0
2, 373972, Control_c, 0, 64, 127
2, 374078, Note_on_c, 0, 69, 85
2, 374092, Note_on_c, 0, 70, 0
2, 374218, Note_on_c, 0, 62, 0
2, 374302, Note_on_c, 0, 70, 77
2, 374322, Note_on_c, 0, 69, 0
2, 374336, Note_on_c, 0, 65, 0
2, 374350, Note_on_c, 0, 64, 33
2, 374356, Note_on_c, 0, 61, 32
2, 374510, Control_c, 0, 64, 0
2, 374704, Note_on_c, 0, 79, 101
2, 374738, Note_on_c, 0, 70, 0
2, 374848, Control_c, 0, 64, 127
2, 374882, Note_on_c, 0, 61, 0
2, 374938, Note_on_c, 0, 64, 0
2, 375096, Note_on_c, 0, 50, 56
2, 375356, Control_c, 0, 64, 0
2, 375494, Control_c, 0, 64, 127
2, 375550, Note_on_c, 0, 73, 86
2, 375674, Note_on_c, 0, 79, 0
2, 375690, Note_on_c, 0, 50, 0
2, 375944, Note_on_c, 0, 50, 54
2, 375984, Control_c, 0, 64, 0
2, 376200, Control_c, 0, 64, 127
2, 376314, Note_on_c, 0, 76, 86
2, 376316, Note_on_c, 0, 50, 0
2, 376402, Note_on_c, 0, 73, 0
2, 376698, Note_on_c, 0, 67, 54
2, 376708, Note_on_c, 0, 64, 44
2, 376722, Control_c, 0, 64, 0
2, 376922, Control_c, 0, 64, 127
2, 377074, Note_on_c, 0, 79, 109
2, 377142, Note_on_c, 0, 76, 0
2, 377218, Note_on_c, 0, 67, 0
2, 377274, Note_on_c, 0, 64, 0
2, 377452, Note_on_c, 0, 65, 49
2, 377472, Note_on_c, 0, 62, 37
2, 377614, Control_c, 0, 64, 0
2, 377768, Control_c, 0, 64, 127
2, 377856, Note_on_c, 0, 82, 76
2, 377898, Note_on_c, 0, 79, 0
2, 377936, Control_c, 0, 64, 0
2, 378136, Control_c, 0, 64, 127
2, 378178, Note_on_c, 0, 62, 0
2, 378218, Note_on_c, 0, 65, 0
2, 378236, Note_on_c, 0, 64, 36
2, 378242, Note_on_c, 0, 61, 23
2, 378474, Control_c, 0, 64, 0
2, 378628, Control_c, 0, 64, 127
2, 378712, Note_on_c, 0, 81, 48
2, 378750, Note_on_c, 0, 82, 0
2, 378796, Control_c, 0, 64, 0
2, 378948, Note_on_c, 0, 64, 0
2, 378948, Control_c, 0, 64, 127
2, 379032, Note_on_c, 0, 61, 0
2, 379134, Note_on_c, 0, 65, 17
2, 379166, Control_c, 0, 64, 0
2, 379174, Note_on_c, 0, 62, 16
2, 379332, Note_on_c, 0, 79, 68
2, 379382, Control_c, 0, 64, 127
2, 379385, Note_on_c, 0, 81, 0
2, 379536, Note_on_c, 0, 77, 62
2, 379540, Note_on_c, 0, 79, 0
2, 379544, Note_on_c, 0, 62, 0
2, 379562, Note_on_c, 0, 65, 0
2, 379730, Note_on_c, 0, 76, 57
2, 379748, Note_on_c, 0, 77, 0
2, 379974, Note_on_c, 0, 50, 30
2, 379978, Note_on_c, 0, 77, 48
2, 379980, Control_c, 0, 64, 0
2, 379994, Note_on_c, 0, 76, 0
2, 380194, Control_c, 0, 64, 127
2, 380206, Note_on_c, 0, 77, 0
2, 380342, Note_on_c, 0, 50, 0
2, 380430, Note_on_c, 0, 74, 49
2, 380794, Control_c, 0, 64, 0
2, 380800, Note_on_c, 0, 50, 33
2, 380978, Control_c, 0, 64, 127
2, 380996, Note_on_c, 0, 74, 0
2, 380996, Note_on_c, 0, 73, 49
2, 381076, Note_on_c, 0, 50, 0
2, 381228, Note_on_c, 0, 74, 67
2, 381244, Note_on_c, 0, 73, 0
2, 381414, Note_on_c, 0, 74, 0
2, 381420, Note_on_c, 0, 76, 68
2, 381638, Note_on_c, 0, 62, 26
2, 381644, Note_on_c, 0, 65, 22
2, 381656, Note_on_c, 0, 74, 70
2, 381672, Note_on_c, 0, 76, 0
2, 381686, Control_c, 0, 64, 0
2, 381876, Note_on_c, 0, 74, 0
2, 381880, Note_on_c, 0, 73, 56
2, 381916, Control_c, 0, 64, 127
2, 382050, Note_on_c, 0, 73, 0
2, 382100, Note_on_c, 0, 71, 55
2, 382168, Note_on_c, 0, 65, 0
2, 382254, Note_on_c, 0, 71, 0
2, 382334, Note_on_c, 0, 69, 32
2, 382466, Note_on_c, 0, 62, 0
2, 382580, Note_on_c, 0, 67, 41
2, 382592, Control_c, 0, 64, 0
2, 382612, Note_on_c, 0, 64, 44
2, 382900, Control_c, 0, 64, 127
2, 382976, Note_on_c, 0, 74, 67
2, 383018, Note_on_c, 0, 69, 0
2, 383320, Note_on_c, 0, 67, 0
2, 383348, Note_on_c, 0, 64, 0
2, 383352, Note_on_c, 0, 69, 46
2, 383386, Note_on_c, 0, 65, 28
2, 383468, Control_c, 0, 64, 0
2, 383698, Control_c, 0, 64, 127
2, 383736, Note_on_c, 0, 74, 0
2, 383794, Note_on_c, 0, 77, 77
2, 383890, Note_on_c, 0, 69, 0
2, 383970, Note_on_c, 0, 65, 0
2, 384190, Note_on_c, 0, 70, 45
2, 384222, Note_on_c, 0, 67, 36
2, 384250, Control_c, 0, 64, 0
2, 384438, Note_on_c, 0, 79, 80
2, 384452, Control_c, 0, 64, 127
2, 384455, Note_on_c, 0, 77, 0
2, 384620, Note_on_c, 0, 67, 0
2, 384622, Note_on_c, 0, 70, 0
2, 384658, Note_on_c, 0, 77, 92
2, 384704, Note_on_c, 0, 79, 0
2, 384858, Note_on_c, 0, 76, 85
2, 384912, Note_on_c, 0, 77, 0
2, 385082, Note_on_c, 0, 77, 76
2, 385098, Note_on_c, 0, 43, 33
2, 385108, Note_on_c, 0, 76, 0
2, 385158, Control_c, 0, 64, 0
2, 385342, Control_c, 0, 64, 127
2, 385344, Note_on_c, 0, 77, 0
2, 385504, Note_on_c, 0, 82, 79
2, 385584, Note_on_c, 0, 43, 0
2, 385864, Control_c, 0, 64, 0
2, 385934, Note_on_c, 0, 43, 45
2, 386142, Control_c, 0, 64, 127
2, 386300, Note_on_c, 0, 43, 0
2, 386390, Note_on_c, 0, 81, 69
2, 386608, Note_on_c, 0, 82, 0
2, 386764, Note_on_c, 0, 58, 37
2, 386784, Note_on_c, 0, 55, 41
2, 386848, Control_c, 0, 64, 0
2, 387062, Control_c, 0, 64, 127
2, 387232, Note_on_c, 0, 79, 64
2, 387346, Note_on_c, 0, 81, 0
2, 387356, Control_c, 0, 64, 0
2, 387524, Control_c, 0, 64, 127
2, 387654, Note_on_c, 0, 60, 42
2, 387657, Note_on_c, 0, 55, 0
2, 387662, Note_on_c, 0, 58, 0
2, 387682, Note_on_c, 0, 57, 30
2, 387740, Control_c, 0, 64, 0
2, 387938, Control_c, 0, 64, 127
2, 388080, Note_on_c, 0, 79, 0
2, 388080, Note_on_c, 0, 77, 42
2, 388280, Note_on_c, 0, 76, 41
2, 388308, Note_on_c, 0, 77, 0
2, 388398, Note_on_c, 0, 60, 0
2, 388460, Note_on_c, 0, 57, 0
2, 388496, Note_on_c, 0, 74, 52
2, 388512, Note_on_c, 0, 58, 18
2, 388516, Note_on_c, 0, 76, 0
2, 388518, Note_on_c, 0, 62, 36
2, 388554, Control_c, 0, 64, 0
2, 388706, Note_on_c, 0, 72, 54
2, 388710, Note_on_c, 0, 74, 0
2, 388800, Control_c, 0, 64, 127
2, 388906, Note_on_c, 0, 70, 60
2, 388946, Note_on_c, 0, 72, 0
2, 388998, Note_on_c, 0, 62, 0
2, 389110, Note_on_c, 0, 69, 59
2, 389116, Note_on_c, 0, 58, 0
2, 389144, Note_on_c, 0, 70, 0
2, 389348, Note_on_c, 0, 67, 55
2, 389350, Note_on_c, 0, 60, 26
2, 389362, Note_on_c, 0, 69, 0
2, 389368, Note_on_c, 0, 64, 32
2, 389398, Control_c, 0, 64, 0
2, 389624, Note_on_c, 0, 71, 49
2, 389666, Note_on_c, 0, 67, 0
2, 389858, Note_on_c, 0, 74, 57
2, 389858, Control_c, 0, 64, 127
2, 389878, Note_on_c, 0, 71, 0
2, 389968, Note_on_c, 0, 64, 0
2, 389998, Note_on_c, 0, 60, 0
2, 390138, Note_on_c, 0, 77, 48
2, 390174, Note_on_c, 0, 74, 0
2, 390350, Control_c, 0, 64, 0
2, 390362, Note_on_c, 0, 48, 28
2, 390644, Control_c, 0, 64, 127
2, 390798, Note_on_c, 0, 76, 39
2, 390838, Note_on_c, 0, 77, 0
2, 390898, Note_on_c, 0, 48, 0
2, 391196, Control_c, 0, 64, 0
2, 391202, Note_on_c, 0, 48, 33
2, 391439, Note_on_c, 0, 74, 44
2, 391458, Control_c, 0, 64, 127
2, 391492, Note_on_c, 0, 76, 0
2, 391616, Note_on_c, 0, 48, 0
2, 391646, Note_on_c, 0, 72, 47
2, 391686, Note_on_c, 0, 74, 0
2, 391848, Note_on_c, 0, 71, 61
2, 391851, Note_on_c, 0, 72, 0
2, 392040, Control_c, 0, 64, 0
2, 392058, Note_on_c, 0, 71, 0
2, 392066, Note_on_c, 0, 72, 52
2, 392084, Note_on_c, 0, 60, 26
2, 392086, Note_on_c, 0, 64, 52
2, 392272, Control_c, 0, 64, 127
2, 392308, Note_on_c, 0, 72, 0
2, 392506, Note_on_c, 0, 67, 71
2, 392736, Note_on_c, 0, 64, 0
2, 392882, Note_on_c, 0, 65, 42
2, 392910, Note_on_c, 0, 62, 33
2, 392916, Control_c, 0, 64, 0
2, 392934, Note_on_c, 0, 60, 0
2, 393148, Control_c, 0, 64, 127
2, 393330, Note_on_c, 0, 72, 74
2, 393342, Note_on_c, 0, 67, 0
2, 393614, Note_on_c, 0, 65, 0
2, 393708, Note_on_c, 0, 62, 0
2, 393736, Note_on_c, 0, 67, 52
2, 393736, Note_on_c, 0, 64, 53
2, 393932, Control_c, 0, 64, 0
2, 394100, Control_c, 0, 64, 127
2, 394160, Note_on_c, 0, 76, 75
2, 394242, Note_on_c, 0, 72, 0
2, 394346, Control_c, 0, 64, 0
2, 394446, Note_on_c, 0, 67, 0
2, 394484, Control_c, 0, 64, 127
2, 394576, Note_on_c, 0, 69, 38
2, 394580, Note_on_c, 0, 64, 0
2, 394586, Note_on_c, 0, 65, 40
2, 394714, Control_c, 0, 64, 0
2, 394824, Note_on_c, 0, 77, 83
2, 394870, Note_on_c, 0, 76, 0
2, 394990, Control_c, 0, 64, 127
2, 395066, Note_on_c, 0, 75, 83
2, 395088, Note_on_c, 0, 69, 0
2, 395120, Note_on_c, 0, 77, 0
2, 395124, Note_on_c, 0, 65, 0
2, 395276, Note_on_c, 0, 74, 102
2, 395316, Note_on_c, 0, 75, 0
2, 395540, Note_on_c, 0, 75, 93
2, 395550, Note_on_c, 0, 41, 48
2, 395574, Note_on_c, 0, 74, 0
2, 395576, Control_c, 0, 64, 0
2, 395790, Control_c, 0, 64, 127
2, 395802, Note_on_c, 0, 75, 0
2, 396096, Note_on_c, 0, 84, 106
2, 396204, Control_c, 0, 64, 0
2, 396390, Control_c, 0, 64, 127
2, 396393, Note_on_c, 0, 41, 0
2, 396568, Note_on_c, 0, 41, 55
2, 396824, Note_on_c, 0, 82, 75
2, 396902, Note_on_c, 0, 84, 0
2, 396958, Note_on_c, 0, 41, 0
2, 397072, Note_on_c, 0, 81, 84
2, 397164, Note_on_c, 0, 82, 0
2, 397480, Note_on_c, 0, 57, 39
2, 397480, Note_on_c, 0, 53, 75
2, 397480, Control_c, 0, 64, 0
2, 397710, Control_c, 0, 64, 127
2, 397715, Note_on_c, 0, 79, 91
2, 397782, Note_on_c, 0, 81, 0
2, 397934, Note_on_c, 0, 77, 92
2, 397970, Note_on_c, 0, 79, 0
2, 398034, Control_c, 0, 64, 0
2, 398202, Control_c, 0, 64, 127
2, 398328, Note_on_c, 0, 58, 49
2, 398348, Note_on_c, 0, 55, 57
2, 398366, Note_on_c, 0, 57, 0
2, 398402, Note_on_c, 0, 53, 0
2, 398448, Control_c, 0, 64, 0
2, 398546, Note_on_c, 0, 75, 72
2, 398608, Note_on_c, 0, 77, 0
2, 398616, Control_c, 0, 64, 127
2, 398740, Control_c, 0, 64, 0
2, 398756, Note_on_c, 0, 74, 97
2, 398790, Note_on_c, 0, 75, 0
2, 398910, Control_c, 0, 64, 127
2, 398952, Note_on_c, 0, 75, 93
2, 399004, Note_on_c, 0, 74, 0
2, 399166, Note_on_c, 0, 60, 45
2, 399168, Note_on_c, 0, 57, 45
2, 399176, Note_on_c, 0, 77, 87
2, 399178, Note_on_c, 0, 58, 0
2, 399186, Control_c, 0, 64, 0
2, 399196, Note_on_c, 0, 55, 0
2, 399198, Note_on_c, 0, 75, 0
2, 399392, Note_on_c, 0, 75, 76
2, 399418, Note_on_c, 0, 77, 0
2, 399432, Control_c, 0, 64, 127
2, 399602, Note_on_c, 0, 74, 86
2, 399616, Control_c, 0, 64, 0
2, 399626, Note_on_c, 0, 75, 0
2, 399784, Control_c, 0, 64, 127
2, 399822, Note_on_c, 0, 75, 86
2, 399852, Note_on_c, 0, 74, 0
2, 400040, Note_on_c, 0, 65, 79
2, 400048, Note_on_c, 0, 58, 37
2, 400050, Note_on_c, 0, 62, 39
2, 400056, Note_on_c, 0, 60, 0
2, 400070, Note_on_c, 0, 75, 0
2, 400096, Note_on_c, 0, 57, 0
2, 400138, Control_c, 0, 64, 0
2, 400268, Note_on_c, 0, 69, 68
2, 400322, Note_on_c, 0, 65, 0
2, 400462, Control_c, 0, 64, 127
2, 400474, Note_on_c, 0, 67, 80
2, 400534, Note_on_c, 0, 69, 0
2, 400588, Note_on_c, 0, 62, 0
2, 400690, Note_on_c, 0, 65, 80
2, 400722, Note_on_c, 0, 67, 0
2, 400730, Note_on_c, 0, 58, 0
2, 400910, Note_on_c, 0, 72, 69
2, 400932, Note_on_c, 0, 46, 31
2, 400944, Note_on_c, 0, 65, 0
2, 401030, Control_c, 0, 64, 0
2, 401120, Note_on_c, 0, 70, 68
2, 401170, Note_on_c, 0, 72, 0
2, 401320, Note_on_c, 0, 69, 65
2, 401340, Note_on_c, 0, 70, 0
2, 401414, Control_c, 0, 64, 127
2, 401528, Note_on_c, 0, 46, 0
2, 401540, Note_on_c, 0, 75, 72
2, 401546, Note_on_c, 0, 69, 0
2, 401776, Note_on_c, 0, 46, 32
2, 401784, Note_on_c, 0, 74, 71
2, 401828, Note_on_c, 0, 75, 0
2, 401890, Control_c, 0, 64, 0
2, 402026, Note_on_c, 0, 73, 61
2, 402062, Note_on_c, 0, 74, 0
2, 402308, Note_on_c, 0, 74, 75
2, 402334, Note_on_c, 0, 73, 0
2, 402520, Control_c, 0, 64, 127
2, 402532, Note_on_c, 0, 46, 0
2, 402770, Note_on_c, 0, 57, 41
2, 402772, Note_on_c, 0, 60, 44
2, 403058, Control_c, 0, 64, 0
2, 403412, Control_c, 0, 64, 127
2, 403662, Note_on_c, 0, 57, 0
2, 403665, Note_on_c, 0, 60, 0
2, 403672, Control_c, 0, 64, 0
2, 403674, Note_on_c, 0, 58, 44
2, 403686, Note_on_c, 0, 55, 44
2, 403846, Note_on_c, 0, 74, 0
2, 403876, Note_on_c, 0, 62, 67
2, 403934, Control_c, 0, 64, 127
2, 404078, Note_on_c, 0, 61, 76
2, 404102, Note_on_c, 0, 62, 0
2, 404282, Note_on_c, 0, 62, 80
2, 404322, Note_on_c, 0, 61, 0
2, 404498, Note_on_c, 0, 55, 0
2, 404500, Note_on_c, 0, 64, 75
2, 404502, Note_on_c, 0, 57, 40
2, 404520, Note_on_c, 0, 53, 71
2, 404532, Note_on_c, 0, 62, 0
2, 404532, Control_c, 0, 64, 0
2, 404588, Note_on_c, 0, 58, 0
2, 404706, Note_on_c, 0, 65, 71
2, 404744, Note_on_c, 0, 64, 0
2, 404808, Control_c, 0, 64, 127
2, 404908, Note_on_c, 0, 67, 70
2, 404926, Note_on_c, 0, 65, 0
2, 405108, Note_on_c, 0, 69, 65
2, 405148, Note_on_c, 0, 67, 0
2, 405246, Note_on_c, 0, 53, 0
2, 405312, Note_on_c, 0, 57, 0
2, 405320, Note_on_c, 0, 70, 61
2, 405328, Note_on_c, 0, 55, 39
2, 405356, Note_on_c, 0, 52, 49
2, 405376, Note_on_c, 0, 69, 0
2, 405378, Control_c, 0, 64, 0
2, 405552, Note_on_c, 0, 74, 69
2, 405568, Note_on_c, 0, 70, 0
2, 405750, Note_on_c, 0, 70, 68
2, 405778, Control_c, 0, 64, 127
2, 405786, Note_on_c, 0, 74, 0
2, 405838, Note_on_c, 0, 52, 0
2, 405841, Note_on_c, 0, 55, 0
2, 405940, Note_on_c, 0, 69, 71
2, 405976, Note_on_c, 0, 70, 0
2, 406152, Note_on_c, 0, 70, 65
2, 406178, Note_on_c, 0, 40, 61
2, 406190, Note_on_c, 0, 69, 0
2, 406270, Control_c, 0, 64, 0
2, 406374, Note_on_c, 0, 74, 75
2, 406392, Note_on_c, 0, 70, 0
2, 406592, Control_c, 0, 64, 127
2, 406594, Note_on_c, 0, 70, 71
2, 406644, Note_on_c, 0, 74, 0
2, 406806, Note_on_c, 0, 69, 68
2, 406848, Note_on_c, 0, 40, 0
2, 406868, Note_on_c, 0, 70, 0
2, 407066, Note_on_c, 0, 67, 65
2, 407092, Note_on_c, 0, 69, 0
2, 407094, Note_on_c, 0, 40, 55
2, 407176, Control_c, 0, 64, 0
2, 407304, Note_on_c, 0, 66, 59
2, 407350, Note_on_c, 0, 67, 0
2, 407604, Note_on_c, 0, 67, 65
2, 407634, Note_on_c, 0, 66, 0
2, 407802, Note_on_c, 0, 40, 0
2, 407822, Control_c, 0, 64, 127
2, 408154, Note_on_c, 0, 50, 53
2, 408156, Note_on_c, 0, 53, 57
2, 408436, Control_c, 0, 64, 0
2, 408590, Control_c, 0, 64, 127
2, 408754, Note_on_c, 0, 53, 0
2, 409004, Note_on_c, 0, 49, 52
2, 409009, Note_on_c, 0, 52, 63
2, 409038, Note_on_c, 0, 50, 0
2, 409050, Control_c, 0, 64, 0
2, 409230, Note_on_c, 0, 70, 76
2, 409264, Note_on_c, 0, 67, 0
2, 409342, Control_c, 0, 64, 127
2, 409374, Control_c, 0, 64, 0
2, 409452, Note_on_c, 0, 67, 92
2, 409492, Note_on_c, 0, 70, 0
2, 409618, Control_c, 0, 64, 127
2, 409672, Note_on_c, 0, 66, 76
2, 409720, Note_on_c, 0, 67, 0
2, 409818, Control_c, 0, 64, 0
2, 409898, Note_on_c, 0, 52, 0
2, 409912, Note_on_c, 0, 50, 40
2, 409912, Note_on_c, 0, 67, 76
2, 409922, Note_on_c, 0, 47, 51
2, 409942, Note_on_c, 0, 66, 0
2, 409952, Note_on_c, 0, 49, 0
2, 410148, Note_on_c, 0, 67, 0
2, 410162, Note_on_c, 0, 76, 48
2, 410442, Note_on_c, 0, 67, 45
2, 410474, Note_on_c, 0, 76, 0
2, 410618, Control_c, 0, 64, 127
2, 410694, Control_c, 0, 64, 0
2, 410736, Note_on_c, 0, 66, 39
2, 410744, Note_on_c, 0, 67, 0
2, 410894, Control_c, 0, 64, 127
2, 410924, Control_c, 0, 64, 0
2, 411032, Control_c, 0, 64, 127
2, 411096, Note_on_c, 0, 50, 0
2, 411102, Note_on_c, 0, 47, 0
2, 411112, Note_on_c, 0, 67, 41
2, 411117, Note_on_c, 0, 49, 30
2, 411128, Note_on_c, 0, 45, 29
2, 411140, Control_c, 0, 64, 0
2, 411166, Note_on_c, 0, 66, 0
2, 411432, Control_c, 0, 64, 127
2, 411652, Note_on_c, 0, 70, 41
2, 411716, Note_on_c, 0, 67, 0
2, 411742, Note_on_c, 0, 49, 0
2, 411800, Note_on_c, 0, 45, 0
2, 412058, Note_on_c, 0, 70, 0
2, 412152, Note_on_c, 0, 33, 41
2, 412152, Note_on_c, 0, 73, 39
2, 412400, Control_c, 0, 64, 0
2, 412568, Control_c, 0, 64, 127
2, 412618, Note_on_c, 0, 73, 0
2, 412646, Note_on_c, 0, 76, 42
2, 412712, Note_on_c, 0, 33, 0
2, 413052, Note_on_c, 0, 33, 40
2, 413060, Control_c, 0, 64, 0
2, 413260, Control_c, 0, 64, 127
2, 413288, Note_on_c, 0, 74, 39
2, 413322, Note_on_c, 0, 76, 0
2, 413382, Note_on_c, 0, 33, 0
2, 413508, Note_on_c, 0, 74, 0
2, 413510, Note_on_c, 0, 73, 53
2, 413732, Note_on_c, 0, 74, 70
2, 413766, Note_on_c, 0, 73, 0
2, 413934, Note_on_c, 0, 45, 37
2, 413934, Note_on_c, 0, 49, 42
2, 413946, Note_on_c, 0, 76, 60
2, 413956, Note_on_c, 0, 74, 0
2, 414044, Control_c, 0, 64, 0
2, 414164, Note_on_c, 0, 74, 67
2, 414204, Note_on_c, 0, 76, 0
2, 414228, Control_c, 0, 64, 127
2, 414354, Note_on_c, 0, 73, 60
2, 414364, Note_on_c, 0, 74, 0
2, 414564, Note_on_c, 0, 71, 68
2, 414578, Note_on_c, 0, 73, 0
2, 414638, Note_on_c, 0, 49, 0
2, 414826, Note_on_c, 0, 71, 0
2, 414826, Note_on_c, 0, 69, 51
2, 414836, Note_on_c, 0, 47, 33
2, 414839, Note_on_c, 0, 45, 0
2, 414842, Note_on_c, 0, 50, 52
2, 414934, Control_c, 0, 64, 0
2, 415180, Control_c, 0, 64, 127
2, 415252, Note_on_c, 0, 67, 59
2, 415266, Note_on_c, 0, 69, 0
2, 415474, Note_on_c, 0, 65, 67
2, 415486, Note_on_c, 0, 67, 0
2, 415672, Note_on_c, 0, 50, 0
2, 415700, Note_on_c, 0, 65, 0
2, 415720, Note_on_c, 0, 67, 62
2, 415732, Note_on_c, 0, 49, 33
2, 415734, Note_on_c, 0, 47, 0
2, 415744, Note_on_c, 0, 52, 57
2, 415826, Control_c, 0, 64, 0
2, 416246, Note_on_c, 0, 52, 0
2, 416256, Control_c, 0, 64, 127
2, 416426, Note_on_c, 0, 76, 54
2, 416432, Note_on_c, 0, 67, 0
2, 416568, Note_on_c, 0, 49, 0
2, 416684, Note_on_c, 0, 67, 67
2, 416702, Note_on_c, 0, 50, 39
2, 416710, Note_on_c, 0, 53, 64
2, 416740, Note_on_c, 0, 76, 0
2, 417164, Note_on_c, 0, 65, 67
2, 417178, Control_c, 0, 64, 0
2, 417222, Note_on_c, 0, 67, 0
2, 417332, Note_on_c, 0, 53, 0
2, 417348, Control_c, 0, 64, 127
2, 417362, Note_on_c, 0, 50, 0
2, 417680, Note_on_c, 0, 77, 75
2, 417692, Note_on_c, 0, 33, 48
2, 417722, Note_on_c, 0, 65, 0
2, 417962, Control_c, 0, 64, 0
2, 418162, Control_c, 0, 64, 127
2, 418340, Note_on_c, 0, 33, 0
2, 418518, Note_on_c, 0, 33, 53
2, 418756, Note_on_c, 0, 76, 56
2, 418800, Note_on_c, 0, 33, 0
2, 418814, Note_on_c, 0, 77, 0
2, 418978, Note_on_c, 0, 74, 76
2, 419004, Note_on_c, 0, 76, 0
2, 419192, Note_on_c, 0, 76, 83
2, 419234, Note_on_c, 0, 74, 0
2, 419394, Note_on_c, 0, 47, 52
2, 419406, Note_on_c, 0, 50, 59
2, 419420, Note_on_c, 0, 77, 84
2, 419464, Note_on_c, 0, 76, 0
2, 419652, Note_on_c, 0, 76, 75
2, 419704, Note_on_c, 0, 77, 0
2, 419844, Note_on_c, 0, 74, 86
2, 419892, Note_on_c, 0, 76, 0
2, 420040, Note_on_c, 0, 72, 82
2, 420048, Note_on_c, 0, 74, 0
2, 420252, Note_on_c, 0, 70, 76
2, 420272, Note_on_c, 0, 49, 54
2, 420276, Note_on_c, 0, 52, 78
2, 420334, Note_on_c, 0, 72, 0
2, 420336, Note_on_c, 0, 50, 0
2, 420440, Note_on_c, 0, 47, 0
2, 420482, Control_c, 0, 64, 0
2, 420674, Note_on_c, 0, 69, 64
2, 420712, Control_c, 0, 64, 127
2, 420740, Note_on_c, 0, 70, 0
2, 420884, Note_on_c, 0, 67, 87
2, 420902, Note_on_c, 0, 69, 0
2, 421142, Note_on_c, 0, 69, 79
2, 421158, Note_on_c, 0, 53, 101
2, 421158, Note_on_c, 0, 50, 67
2, 421168, Note_on_c, 0, 52, 0
2, 421206, Note_on_c, 0, 67, 0
2, 421232, Note_on_c, 0, 49, 0
2, 421235, Control_c, 0, 64, 0
2, 421650, Control_c, 0, 64, 127
2, 421762, Note_on_c, 0, 77, 87
2, 421764, Note_on_c, 0, 69, 0
2, 421792, Note_on_c, 0, 53, 0
2, 422000, Note_on_c, 0, 69, 92
2, 422028, Note_on_c, 0, 55, 57
2, 422028, Note_on_c, 0, 52, 52
2, 422031, Note_on_c, 0, 50, 0
2, 422110, Note_on_c, 0, 77, 0
2, 422156, Control_c, 0, 64, 0
2, 422402, Control_c, 0, 64, 127
2, 422468, Note_on_c, 0, 67, 90
2, 422530, Note_on_c, 0, 69, 0
2, 422572, Note_on_c, 0, 55, 0
2, 422608, Note_on_c, 0, 52, 0
2, 422944, Note_on_c, 0, 33, 78
2, 422950, Note_on_c, 0, 79, 101
2, 423018, Note_on_c, 0, 67, 0
2, 423186, Control_c, 0, 64, 0
2, 423462, Control_c, 0, 64, 127
2, 423616, Note_on_c, 0, 33, 0
2, 423752, Note_on_c, 0, 33, 106
2, 423992, Note_on_c, 0, 77, 97
2, 424076, Note_on_c, 0, 79, 0
2, 424112, Note_on_c, 0, 33, 0
2, 424196, Note_on_c, 0, 76, 92
2, 424252, Note_on_c, 0, 77, 0
2, 424410, Note_on_c, 0, 77, 101
2, 424486, Note_on_c, 0, 76, 0
2, 424644, Note_on_c, 0, 79, 111
2, 424644, Note_on_c, 0, 49, 63
2, 424644, Note_on_c, 0, 52, 98
2, 424702, Note_on_c, 0, 77, 0
2, 424896, Note_on_c, 0, 77, 106
2, 424966, Note_on_c, 0, 79, 0
2, 425088, Note_on_c, 0, 76, 93
2, 425144, Note_on_c, 0, 77, 0
2, 425276, Note_on_c, 0, 74, 106
2, 425298, Note_on_c, 0, 76, 0
2, 425490, Note_on_c, 0, 73, 100
2, 425508, Note_on_c, 0, 49, 0
2, 425511, Note_on_c, 0, 53, 117
2, 425520, Note_on_c, 0, 50, 86
2, 425540, Note_on_c, 0, 52, 0
2, 425578, Note_on_c, 0, 74, 0
2, 425674, Control_c, 0, 64, 0
2, 425906, Control_c, 0, 64, 127
2, 425922, Note_on_c, 0, 70, 91
2, 426022, Note_on_c, 0, 73, 0
2, 426134, Note_on_c, 0, 69, 98
2, 426174, Note_on_c, 0, 70, 0
2, 426370, Note_on_c, 0, 70, 101
2, 426386, Note_on_c, 0, 55, 85
2, 426392, Note_on_c, 0, 52, 82
2, 426406, Note_on_c, 0, 53, 0
2, 426466, Note_on_c, 0, 69, 0
2, 426488, Control_c, 0, 64, 0
2, 426493, Note_on_c, 0, 50, 0
2, 426920, Control_c, 0, 64, 127
2, 427056, Note_on_c, 0, 79, 106
2, 427084, Note_on_c, 0, 70, 0
2, 427332, Note_on_c, 0, 70, 100
2, 427352, Note_on_c, 0, 57, 57
2, 427352, Note_on_c, 0, 53, 94
2, 427382, Note_on_c, 0, 55, 0
2, 427402, Note_on_c, 0, 52, 0
2, 427458, Control_c, 0, 64, 0
2, 427482, Note_on_c, 0, 79, 0
2, 427750, Control_c, 0, 64, 127
2, 427846, Note_on_c, 0, 69, 91
2, 427850, Note_on_c, 0, 57, 0
2, 427910, Note_on_c, 0, 53, 0
2, 427926, Note_on_c, 0, 70, 0
2, 428322, Note_on_c, 0, 33, 97
2, 428768, Note_on_c, 0, 73, 107
2, 429030, Note_on_c, 0, 69, 0
2, 429032, Note_on_c, 0, 33, 0
2, 429168, Note_on_c, 0, 33, 108
2, 429208, Control_c, 0, 64, 0
2, 429424, Control_c, 0, 64, 127
2, 429516, Note_on_c, 0, 33, 0
2, 429612, Note_on_c, 0, 74, 115
2, 429724, Note_on_c, 0, 73, 0
2, 430018, Note_on_c, 0, 57, 91
2, 430026, Note_on_c, 0, 53, 114
2, 430400, Note_on_c, 0, 76, 110
2, 430464, Note_on_c, 0, 74, 0
2, 430610, Note_on_c, 0, 77, 118
2, 430634, Note_on_c, 0, 57, 0
2, 430674, Note_on_c, 0, 76, 0
2, 430826, Note_on_c, 0, 79, 126
2, 430829, Note_on_c, 0, 55, 90
2, 430829, Note_on_c, 0, 52, 88
2, 430858, Note_on_c, 0, 53, 0
2, 430880, Note_on_c, 0, 77, 0
2, 430914, Control_c, 0, 64, 0
2, 431050, Note_on_c, 0, 81, 116
2, 431124, Note_on_c, 0, 79, 0
2, 431160, Control_c, 0, 64, 127
2, 431252, Note_on_c, 0, 82, 108
2, 431310, Note_on_c, 0, 81, 0
2, 431470, Note_on_c, 0, 81, 117
2, 431554, Note_on_c, 0, 82, 0
2, 431768, Note_on_c, 0, 82, 110
2, 431768, Note_on_c, 0, 53, 100
2, 431774, Note_on_c, 0, 55, 0
2, 431786, Note_on_c, 0, 50, 65
2, 431822, Note_on_c, 0, 52, 0
2, 431850, Note_on_c, 0, 81, 0
2, 431974, Control_c, 0, 64, 0
2, 432190, Control_c, 0, 64, 127
2, 432206, Note_on_c, 0, 82, 0
2, 432500, Note_on_c, 0, 82, 108
2, 432708, Note_on_c, 0, 82, 0
2, 432812, Note_on_c, 0, 82, 100
2, 432824, Note_on_c, 0, 55, 68
2, 432828, Note_on_c, 0, 52, 83
2, 432844, Note_on_c, 0, 53, 0
2, 432876, Note_on_c, 0, 50, 0
2, 432958, Control_c, 0, 64, 0
2, 433220, Control_c, 0, 64, 127
2, 433472, Note_on_c, 0, 73, 87
2, 433532, Note_on_c, 0, 55, 0
2, 433554, Note_on_c, 0, 52, 0
2, 433788, Note_on_c, 0, 82, 0
2, 433958, Note_on_c, 0, 33, 68
2, 434202, Control_c, 0, 64, 0
2, 434356, Control_c, 0, 64, 127
2, 434408, Note_on_c, 0, 74, 91
2, 434460, Note_on_c, 0, 73, 0
2, 434582, Note_on_c, 0, 33, 0
2, 434648, Note_on_c, 0, 76, 99
2, 434658, Note_on_c, 0, 74, 0
2, 434760, Note_on_c, 0, 76, 0
2, 434874, Note_on_c, 0, 76, 77
2, 434888, Note_on_c, 0, 33, 47
2, 435016, Control_c, 0, 64, 0
2, 435216, Control_c, 0, 64, 127
2, 435302, Note_on_c, 0, 67, 74
2, 435308, Note_on_c, 0, 33, 0
2, 435372, Note_on_c, 0, 76, 0
2, 435790, Note_on_c, 0, 55, 54
2, 435812, Note_on_c, 0, 52, 53
2, 436046, Control_c, 0, 64, 0
2, 436180, Note_on_c, 0, 69, 70
2, 436184, Control_c, 0, 64, 127
2, 436224, Note_on_c, 0, 67, 0
2, 436364, Note_on_c, 0, 55, 0
2, 436396, Note_on_c, 0, 70, 80
2, 436432, Note_on_c, 0, 69, 0
2, 436498, Note_on_c, 0, 70, 0
2, 436610, Note_on_c, 0, 70, 68
2, 436620, Note_on_c, 0, 52, 0
2, 436628, Note_on_c, 0, 50, 40
2, 436628, Note_on_c, 0, 53, 74
2, 436826, Note_on_c, 0, 76, 79
2, 436870, Note_on_c, 0, 70, 0
2, 437042, Note_on_c, 0, 77, 75
2, 437106, Note_on_c, 0, 76, 0
2, 437214, Control_c, 0, 64, 0
2, 437280, Note_on_c, 0, 79, 86
2, 437342, Note_on_c, 0, 77, 0
2, 437414, Control_c, 0, 64, 127
2, 437550, Note_on_c, 0, 53, 0
2, 437566, Note_on_c, 0, 50, 0
2, 437584, Note_on_c, 0, 52, 52
2, 437592, Note_on_c, 0, 49, 36
2, 437768, Control_c, 0, 64, 0
2, 437906, Control_c, 0, 64, 127
2, 438052, Note_on_c, 0, 70, 67
2, 438094, Note_on_c, 0, 79, 0
2, 438346, Note_on_c, 0, 52, 0
2, 438436, Note_on_c, 0, 49, 0
2, 438472, Note_on_c, 0, 69, 57
2, 438496, Note_on_c, 0, 50, 31
2, 438504, Note_on_c, 0, 53, 70
2, 438528, Note_on_c, 0, 70, 0
2, 438552, Control_c, 0, 64, 0
2, 438706, Note_on_c, 0, 74, 82
2, 438774, Note_on_c, 0, 69, 0
2, 438782, Control_c, 0, 64, 127
2, 438886, Note_on_c, 0, 53, 0
2, 438924, Note_on_c, 0, 50, 0
2, 438930, Note_on_c, 0, 76, 72
2, 439006, Note_on_c, 0, 74, 0
2, 439162, Note_on_c, 0, 77, 71
2, 439248, Note_on_c, 0, 76, 0
2, 439374, Note_on_c, 0, 33, 62
2, 439379, Control_c, 0, 64, 0
2, 439596, Control_c, 0, 64, 127
2, 439940, Note_on_c, 0, 68, 59
2, 439954, Note_on_c, 0, 33, 0
2, 439980, Note_on_c, 0, 77, 0
2, 440334, Control_c, 0, 64, 0
2, 440368, Note_on_c, 0, 33, 44
2, 440502, Control_c, 0, 64, 127
2, 440630, Note_on_c, 0, 71, 74
2, 440674, Note_on_c, 0, 68, 0
2, 440714, Note_on_c, 0, 33, 0
2, 440864, Note_on_c, 0, 69, 60
2, 440914, Note_on_c, 0, 71, 0
2, 441060, Note_on_c, 0, 68, 83
2, 441090, Note_on_c, 0, 69, 0
2, 441280, Note_on_c, 0, 69, 80
2, 441290, Note_on_c, 0, 50, 40
2, 441296, Note_on_c, 0, 53, 63
2, 441304, Note_on_c, 0, 68, 0
2, 441332, Control_c, 0, 64, 0
2, 441480, Note_on_c, 0, 71, 88
2, 441516, Control_c, 0, 64, 127
2, 441552, Note_on_c, 0, 69, 0
2, 441688, Note_on_c, 0, 73, 82
2, 441750, Note_on_c, 0, 71, 0
2, 441812, Note_on_c, 0, 53, 0
2, 441900, Note_on_c, 0, 74, 90
2, 441942, Note_on_c, 0, 73, 0
2, 442144, Note_on_c, 0, 50, 0
2, 442148, Note_on_c, 0, 76, 70
2, 442150, Note_on_c, 0, 49, 30
2, 442164, Note_on_c, 0, 74, 0
2, 442164, Note_on_c, 0, 52, 51
2, 442178, Control_c, 0, 64, 0
2, 442380, Note_on_c, 0, 70, 63
2, 442438, Control_c, 0, 64, 127
2, 442446, Note_on_c, 0, 76, 0
2, 442608, Note_on_c, 0, 70, 0
2, 442608, Note_on_c, 0, 69, 55
2, 442838, Note_on_c, 0, 68, 68
2, 442862, Note_on_c, 0, 69, 0
2, 442910, Note_on_c, 0, 52, 0
2, 443052, Note_on_c, 0, 49, 0
2, 443086, Note_on_c, 0, 69, 55
2, 443108, Note_on_c, 0, 50, 39
2, 443116, Note_on_c, 0, 47, 32
2, 443118, Note_on_c, 0, 68, 0
2, 443130, Control_c, 0, 64, 0
2, 443322, Note_on_c, 0, 67, 70
2, 443346, Control_c, 0, 64, 127
2, 443372, Note_on_c, 0, 69, 0
2, 443570, Note_on_c, 0, 66, 60
2, 443578, Note_on_c, 0, 67, 0
2, 443750, Note_on_c, 0, 50, 0
2, 443814, Note_on_c, 0, 47, 0
2, 443816, Note_on_c, 0, 67, 67
2, 443830, Note_on_c, 0, 66, 0
2, 443968, Note_on_c, 0, 67, 0
2, 444228, Note_on_c, 0, 67, 54
2, 444231, Note_on_c, 0, 49, 28
2, 444240, Note_on_c, 0, 52, 34
2, 444448, Note_on_c, 0, 66, 53
2, 444456, Note_on_c, 0, 67, 0
2, 444712, Control_c, 0, 64, 0
2, 444716, Note_on_c, 0, 66, 0
2, 444720, Note_on_c, 0, 67, 56
2, 444912, Control_c, 0, 64, 127
2, 444940, Note_on_c, 0, 52, 0
2, 444964, Note_on_c, 0, 49, 0
2, 444984, Note_on_c, 0, 67, 0
2, 445378, Note_on_c, 0, 33, 34
2, 445764, Note_on_c, 0, 33, 0
2, 446346, Note_on_c, 0, 33, 38
2, 446524, Note_on_c, 0, 33, 0
2, 446678, Note_on_c, 0, 69, 63
2, 446934, Note_on_c, 0, 69, 0
2, 446948, Note_on_c, 0, 73, 68
2, 447152, Note_on_c, 0, 73, 0
2, 447178, Note_on_c, 0, 76, 76
2, 447406, Note_on_c, 0, 79, 84
2, 447426, Note_on_c, 0, 76, 0
2, 447440, Note_on_c, 0, 52, 44
2, 447444, Note_on_c, 0, 49, 31
2, 447508, Control_c, 0, 64, 0
2, 447678, Control_c, 0, 64, 127
2, 447681, Note_on_c, 0, 82, 61
2, 447700, Note_on_c, 0, 79, 0
2, 447756, Control_c, 0, 64, 0
2, 447908, Control_c, 0, 64, 127
2, 447968, Note_on_c, 0, 82, 0
2, 448036, Note_on_c, 0, 81, 64
2, 448170, Control_c, 0, 64, 0
2, 448324, Control_c, 0, 64, 127
2, 448386, Note_on_c, 0, 49, 0
2, 448402, Note_on_c, 0, 52, 0
2, 448592, Note_on_c, 0, 53, 68
2, 448610, Note_on_c, 0, 50, 39
2, 448708, Control_c, 0, 64, 0
2, 448878, Note_on_c, 0, 79, 80
2, 448906, Control_c, 0, 64, 127
2, 448924, Note_on_c, 0, 81, 0
2, 449098, Note_on_c, 0, 77, 90
2, 449124, Note_on_c, 0, 79, 0
2, 449276, Note_on_c, 0, 50, 0
2, 449318, Note_on_c, 0, 76, 91
2, 449376, Note_on_c, 0, 77, 0
2, 449552, Note_on_c, 0, 49, 52
2, 449558, Note_on_c, 0, 53, 0
2, 449558, Note_on_c, 0, 45, 33
2, 449568, Note_on_c, 0, 77, 94
2, 449568, Control_c, 0, 64, 0
2, 449604, Note_on_c, 0, 76, 0
2, 449830, Control_c, 0, 64, 127
2, 449850, Note_on_c, 0, 77, 0
2, 450038, Note_on_c, 0, 81, 85
2, 450214, Control_c, 0, 64, 0
2, 450366, Control_c, 0, 64, 127
2, 450446, Note_on_c, 0, 49, 0
2, 450460, Note_on_c, 0, 46, 40
2, 450464, Note_on_c, 0, 45, 0
2, 450466, Note_on_c, 0, 50, 53
2, 450704, Note_on_c, 0, 76, 72
2, 450756, Note_on_c, 0, 81, 0
2, 450828, Control_c, 0, 64, 0
2, 450972, Note_on_c, 0, 74, 74
2, 450998, Control_c, 0, 64, 127
2, 451014, Note_on_c, 0, 76, 0
2, 451166, Control_c, 0, 64, 0
2, 451216, Note_on_c, 0, 73, 71
2, 451270, Note_on_c, 0, 74, 0
2, 451320, Control_c, 0, 64, 127
2, 451552, Note_on_c, 0, 46, 0
2, 451560, Note_on_c, 0, 74, 82
2, 451568, Note_on_c, 0, 43, 42
2, 451596, Note_on_c, 0, 73, 0
2, 451642, Control_c, 0, 64, 0
2, 451904, Control_c, 0, 64, 127
2, 452290, Note_on_c, 0, 82, 70
2, 452314, Note_on_c, 0, 74, 0
2, 452410, Control_c, 0, 64, 0
2, 452594, Control_c, 0, 64, 127
2, 452882, Note_on_c, 0, 77, 60
2, 452890, Note_on_c, 0, 45, 40
2, 452958, Note_on_c, 0, 82, 0
2, 452964, Note_on_c, 0, 43, 0
2, 453148, Control_c, 0, 64, 0
2, 453194, Note_on_c, 0, 79, 69
2, 453228, Note_on_c, 0, 77, 0
2, 453332, Control_c, 0, 64, 127
2, 453442, Note_on_c, 0, 77, 76
2, 453484, Note_on_c, 0, 79, 0
2, 453656, Note_on_c, 0, 76, 70
2, 453678, Note_on_c, 0, 77, 0
2, 453892, Note_on_c, 0, 77, 67
2, 453902, Note_on_c, 0, 49, 41
2, 453924, Note_on_c, 0, 76, 0
2, 453942, Note_on_c, 0, 50, 0
2, 454024, Control_c, 0, 64, 0
2, 454130, Note_on_c, 0, 76, 64
2, 454182, Note_on_c, 0, 77, 0
2, 454192, Control_c, 0, 64, 127
2, 454360, Note_on_c, 0, 74, 70
2, 454386, Note_on_c, 0, 47, 44
2, 454389, Note_on_c, 0, 76, 0
2, 454398, Note_on_c, 0, 49, 0
2, 454576, Control_c, 0, 64, 0
2, 454620, Note_on_c, 0, 76, 74
2, 454648, Note_on_c, 0, 74, 0
2, 454762, Control_c, 0, 64, 127
2, 454888, Note_on_c, 0, 76, 0
2, 454904, Note_on_c, 0, 74, 55
2, 454964, Note_on_c, 0, 47, 0
2, 454966, Note_on_c, 0, 49, 34
2, 455084, Note_on_c, 0, 74, 0
2, 455104, Note_on_c, 0, 76, 55
2, 455258, Note_on_c, 0, 76, 0
2, 455270, Note_on_c, 0, 77, 53
2, 455400, Note_on_c, 0, 77, 0
2, 455406, Control_c, 0, 64, 0
2, 455416, Note_on_c, 0, 76, 54
2, 455564, Note_on_c, 0, 77, 67
2, 455582, Note_on_c, 0, 76, 0
2, 455606, Control_c, 0, 64, 127
2, 455690, Note_on_c, 0, 77, 0
2, 455704, Note_on_c, 0, 76, 40
2, 455808, Note_on_c, 0, 76, 0
2, 455842, Note_on_c, 0, 77, 46
2, 455906, Note_on_c, 0, 77, 0
2, 455950, Note_on_c, 0, 76, 49
2, 456010, Note_on_c, 0, 76, 0
2, 456030, Note_on_c, 0, 77, 53
2, 456090, Note_on_c, 0, 77, 0
2, 456114, Note_on_c, 0, 76, 44
2, 456174, Note_on_c, 0, 76, 0
2, 456188, Note_on_c, 0, 77, 56
2, 456250, Note_on_c, 0, 77, 0
2, 456264, Note_on_c, 0, 76, 48
2, 456330, Note_on_c, 0, 76, 0
2, 456338, Note_on_c, 0, 55, 45
2, 456340, Note_on_c, 0, 77, 54
2, 456400, Note_on_c, 0, 77, 0
2, 456403, Note_on_c, 0, 49, 0
2, 456410, Note_on_c, 0, 76, 57
2, 456474, Note_on_c, 0, 76, 0
2, 456488, Note_on_c, 0, 77, 54
2, 456548, Note_on_c, 0, 77, 0
2, 456556, Note_on_c, 0, 76, 56
2, 456626, Note_on_c, 0, 76, 0
2, 456638, Note_on_c, 0, 77, 62
2, 456692, Note_on_c, 0, 77, 0
2, 456708, Note_on_c, 0, 76, 57
2, 456766, Note_on_c, 0, 76, 0
2, 456774, Note_on_c, 0, 77, 68
2, 456838, Note_on_c, 0, 77, 0
2, 456850, Note_on_c, 0, 76, 51
2, 456904, Note_on_c, 0, 76, 0
2, 456918, Note_on_c, 0, 77, 67
2, 456966, Note_on_c, 0, 77, 0
2, 456972, Note_on_c, 0, 76, 68
2, 457048, Note_on_c, 0, 76, 0
2, 457062, Note_on_c, 0, 77, 53
2, 457124, Note_on_c, 0, 77, 0
2, 457140, Note_on_c, 0, 76, 46
2, 457174, Control_c, 0, 64, 0
2, 457320, Note_on_c, 0, 76, 0
2, 457328, Note_on_c, 0, 74, 48
2, 457342, Control_c, 0, 64, 127
2, 457742, Control_c, 0, 64, 0
2, 457748, Note_on_c, 0, 74, 0
2, 457758, Note_on_c, 0, 76, 45
2, 457926, Control_c, 0, 64, 127
2, 457954, Note_on_c, 0, 45, 0
2, 458084, Note_on_c, 0, 55, 0
2, 458534, Note_on_c, 0, 74, 32
2, 458544, Note_on_c, 0, 54, 29
2, 458552, Note_on_c, 0, 76, 0
2, 458566, Note_on_c, 0, 50, 26
2, 458742, Control_c, 0, 64, 0
2, 458986, Control_c, 0, 64, 127
2, 459076, Note_on_c, 0, 54, 0
2, 459186, Note_on_c, 0, 50, 0
2, 459922, Note_on_c, 0, 74, 0
2, 459938, Note_on_c, 0, 38, 18
2, 459940, Note_on_c, 0, 72, 32
2, 460154, Control_c, 0, 64, 0
2, 460246, Note_on_c, 0, 74, 47
2, 460250, Note_on_c, 0, 72, 0
2, 460354, Control_c, 0, 64, 127
2, 460510, Note_on_c, 0, 74, 0
2, 460513, Note_on_c, 0, 75, 42
2, 460560, Note_on_c, 0, 38, 0
2, 460938, Control_c, 0, 64, 0
2, 460962, Note_on_c, 0, 38, 30
2, 461168, Control_c, 0, 64, 127
2, 461238, Note_on_c, 0, 74, 42
2, 461266, Note_on_c, 0, 75, 0
2, 461310, Note_on_c, 0, 38, 0
2, 461512, Note_on_c, 0, 72, 42
2, 461546, Note_on_c, 0, 74, 0
2, 461990, Note_on_c, 0, 54, 36
2, 461992, Note_on_c, 0, 50, 34
2, 461998, Control_c, 0, 64, 0
2, 462168, Control_c, 0, 64, 127
2, 462206, Note_on_c, 0, 70, 48
2, 462264, Note_on_c, 0, 72, 0
2, 462478, Note_on_c, 0, 69, 36
2, 462508, Note_on_c, 0, 70, 0
2, 462536, Control_c, 0, 64, 0
2, 462736, Control_c, 0, 64, 127
2, 462872, Note_on_c, 0, 54, 0
2, 462914, Note_on_c, 0, 50, 0
2, 462984, Note_on_c, 0, 55, 26
2, 462996, Note_on_c, 0, 52, 22
2, 463012, Control_c, 0, 64, 0
2, 463166, Control_c, 0, 64, 127
2, 463246, Note_on_c, 0, 69, 0
2, 463246, Note_on_c, 0, 67, 34
2, 463396, Control_c, 0, 64, 0
2, 463466, Note_on_c, 0, 66, 38
2, 463508, Note_on_c, 0, 67, 0
2, 463566, Control_c, 0, 64, 127
2, 463688, Note_on_c, 0, 64, 42
2, 463696, Note_on_c, 0, 66, 0
2, 463730, Note_on_c, 0, 55, 0
2, 463802, Note_on_c, 0, 52, 0
2, 463906, Note_on_c, 0, 64, 0
2, 463908, Note_on_c, 0, 62, 48
2, 463916, Note_on_c, 0, 57, 26
2, 463922, Note_on_c, 0, 54, 37
2, 463980, Control_c, 0, 64, 0
2, 464118, Control_c, 0, 64, 127
2, 464126, Note_on_c, 0, 61, 52
2, 464144, Note_on_c, 0, 62, 0
2, 464406, Note_on_c, 0, 61, 0
2, 464410, Control_c, 0, 64, 0
2, 464416, Note_on_c, 0, 62, 51
2, 464640, Control_c, 0, 64, 127
2, 464682, Note_on_c, 0, 57, 0
2, 464742, Note_on_c, 0, 54, 0
2, 464972, Note_on_c, 0, 58, 29
2, 464986, Note_on_c, 0, 55, 32
2, 464994, Control_c, 0, 64, 0
2, 465240, Control_c, 0, 64, 127
2, 465438, Note_on_c, 0, 55, 0
2, 465456, Note_on_c, 0, 64, 47
2, 465474, Note_on_c, 0, 58, 0
2, 465512, Note_on_c, 0, 62, 0
2, 465692, Note_on_c, 0, 66, 47
2, 465726, Note_on_c, 0, 64, 0
2, 465934, Note_on_c, 0, 67, 54
2, 465938, Note_on_c, 0, 38, 45
2, 465958, Note_on_c, 0, 66, 0
2, 466158, Note_on_c, 0, 62, 54
2, 466176, Note_on_c, 0, 67, 0
2, 466342, Note_on_c, 0, 38, 0
2, 466362, Note_on_c, 0, 62, 0
2, 466388, Note_on_c, 0, 67, 57
2, 466616, Note_on_c, 0, 69, 55
2, 466626, Note_on_c, 0, 67, 0
2, 466838, Note_on_c, 0, 70, 54
2, 466858, Note_on_c, 0, 69, 0
2, 466864, Note_on_c, 0, 38, 36
2, 466900, Control_c, 0, 64, 0
2, 467062, Note_on_c, 0, 67, 60
2, 467068, Control_c, 0, 64, 127
2, 467074, Note_on_c, 0, 70, 0
2, 467232, Note_on_c, 0, 38, 0
2, 467250, Note_on_c, 0, 67, 0
2, 467264, Note_on_c, 0, 70, 62
2, 467494, Note_on_c, 0, 72, 70
2, 467510, Note_on_c, 0, 70, 0
2, 467712, Note_on_c, 0, 72, 0
2, 467714, Note_on_c, 0, 74, 71
2, 467728, Note_on_c, 0, 57, 37
2, 467752, Note_on_c, 0, 53, 48
2, 467923, Note_on_c, 0, 69, 54
2, 467942, Note_on_c, 0, 74, 0
2, 467944, Control_c, 0, 64, 0
2, 468098, Control_c, 0, 64, 127
2, 468160, Note_on_c, 0, 73, 61
2, 468178, Note_on_c, 0, 69, 0
2, 468266, Note_on_c, 0, 57, 0
2, 468386, Note_on_c, 0, 74, 78
2, 468394, Note_on_c, 0, 73, 0
2, 468432, Note_on_c, 0, 53, 0
2, 468622, Note_on_c, 0, 74, 0
2, 468636, Note_on_c, 0, 76, 56
2, 468664, Note_on_c, 0, 55, 37
2, 468668, Note_on_c, 0, 52, 36
2, 468712, Control_c, 0, 64, 0
2, 468900, Note_on_c, 0, 77, 61
2, 468918, Note_on_c, 0, 76, 0
2, 468960, Control_c, 0, 64, 127
2, 469090, Note_on_c, 0, 55, 0
2, 469132, Note_on_c, 0, 79, 71
2, 469144, Note_on_c, 0, 77, 0
2, 469256, Note_on_c, 0, 52, 0
2, 469360, Note_on_c, 0, 81, 64
2, 469378, Note_on_c, 0, 79, 0
2, 469614, Note_on_c, 0, 53, 54
2, 469616, Note_on_c, 0, 50, 36
2, 469620, Control_c, 0, 64, 0
2, 469648, Note_on_c, 0, 81, 0
2, 469654, Note_on_c, 0, 82, 33
2, 469850, Control_c, 0, 64, 127
2, 469878, Note_on_c, 0, 82, 0
2, 469882, Note_on_c, 0, 74, 67
2, 470148, Note_on_c, 0, 73, 63
2, 470156, Note_on_c, 0, 74, 0
2, 470264, Control_c, 0, 64, 0
2, 470418, Control_c, 0, 64, 127
2, 470426, Note_on_c, 0, 74, 74
2, 470434, Note_on_c, 0, 73, 0
2, 470434, Note_on_c, 0, 53, 0
2, 470478, Note_on_c, 0, 50, 0
2, 470644, Note_on_c, 0, 74, 0
2, 470804, Note_on_c, 0, 74, 53
2, 470856, Note_on_c, 0, 52, 28
2, 470858, Note_on_c, 0, 55, 24
2, 471140, Control_c, 0, 64, 0
2, 471340, Control_c, 0, 64, 127
2, 471370, Note_on_c, 0, 74, 0
2, 471388, Note_on_c, 0, 67, 40
2, 471476, Note_on_c, 0, 55, 0
2, 471479, Note_on_c, 0, 52, 0
2, 471902, Note_on_c, 0, 38, 32
2, 471954, Control_c, 0, 64, 0
2, 472170, Control_c, 0, 64, 127
2, 472258, Note_on_c, 0, 69, 32
2, 472294, Note_on_c, 0, 67, 0
2, 472508, Note_on_c, 0, 38, 0
2, 472524, Note_on_c, 0, 67, 61
2, 472552, Note_on_c, 0, 69, 0
2, 472756, Note_on_c, 0, 65, 62
2, 472782, Note_on_c, 0, 67, 0
2, 473042, Note_on_c, 0, 67, 69
2, 473050, Note_on_c, 0, 38, 30
2, 473074, Note_on_c, 0, 65, 0
2, 473092, Control_c, 0, 64, 0
2, 473352, Control_c, 0, 64, 127
2, 473418, Note_on_c, 0, 38, 0
2, 473550, Note_on_c, 0, 73, 60
2, 473574, Note_on_c, 0, 67, 0
2, 473788, Note_on_c, 0, 74, 77
2, 473838, Note_on_c, 0, 73, 0
2, 474050, Note_on_c, 0, 49, 29
2, 474060, Note_on_c, 0, 74, 0
2, 474060, Note_on_c, 0, 76, 62
2, 474060, Control_c, 0, 64, 0
2, 474074, Note_on_c, 0, 52, 31
2, 474304, Control_c, 0, 64, 127
2, 474658, Note_on_c, 0, 67, 46
2, 474678, Note_on_c, 0, 76, 0
2, 474766, Control_c, 0, 64, 0
2, 474904, Control_c, 0, 64, 127
2, 475014, Note_on_c, 0, 52, 0
2, 475036, Note_on_c, 0, 49, 0
2, 475132, Note_on_c, 0, 65, 46
2, 475144, Note_on_c, 0, 67, 0
2, 475174, Note_on_c, 0, 50, 31
2, 475177, Note_on_c, 0, 53, 54
2, 475212, Control_c, 0, 64, 0
2, 475380, Control_c, 0, 64, 127
2, 475408, Note_on_c, 0, 69, 48
2, 475460, Note_on_c, 0, 65, 0
2, 475658, Note_on_c, 0, 71, 68
2, 475684, Note_on_c, 0, 69, 0
2, 475734, Control_c, 0, 64, 0
2, 475888, Control_c, 0, 64, 127
2, 475902, Note_on_c, 0, 73, 68
2, 475962, Note_on_c, 0, 53, 0
2, 475978, Note_on_c, 0, 71, 0
2, 476276, Note_on_c, 0, 74, 61
2, 476318, Note_on_c, 0, 57, 26
2, 476318, Note_on_c, 0, 53, 38
2, 476326, Note_on_c, 0, 73, 0
2, 476348, Note_on_c, 0, 50, 0
2, 476348, Control_c, 0, 64, 0
2, 476594, Control_c, 0, 64, 127
2, 476732, Note_on_c, 0, 74, 0
2, 476930, Note_on_c, 0, 70, 72
2, 477094, Note_on_c, 0, 57, 0
2, 477148, Note_on_c, 0, 53, 0
2, 477656, Note_on_c, 0, 68, 70
2, 477690, Note_on_c, 0, 47, 41
2, 477697, Note_on_c, 0, 50, 44
2, 477854, Control_c, 0, 64, 0
2, 477952, Note_on_c, 0, 70, 0
2, 478284, Control_c, 0, 64, 127
2, 478594, Note_on_c, 0, 69, 47
2, 478694, Note_on_c, 0, 68, 0
2, 478700, Control_c, 0, 64, 0
2, 478946, Control_c, 0, 64, 127
2, 479248, Note_on_c, 0, 46, 44
2, 479364, Note_on_c, 0, 47, 0
2, 479544, Control_c, 0, 64, 0
2, 479760, Control_c, 0, 64, 127
2, 479938, Note_on_c, 0, 62, 57
2, 480014, Note_on_c, 0, 69, 0
2, 480268, Note_on_c, 0, 67, 64
2, 480358, Note_on_c, 0, 62, 0
2, 480718, Note_on_c, 0, 65, 52
2, 480736, Note_on_c, 0, 45, 47
2, 480826, Note_on_c, 0, 46, 0
2, 480862, Note_on_c, 0, 67, 0
2, 480928, Control_c, 0, 64, 0
2, 481388, Control_c, 0, 64, 127
2, 481820, Note_on_c, 0, 67, 39
2, 481834, Note_on_c, 0, 65, 0
2, 482106, Note_on_c, 0, 65, 45
2, 482124, Note_on_c, 0, 67, 0
2, 482322, Note_on_c, 0, 64, 65
2, 482330, Note_on_c, 0, 65, 0
2, 482564, Note_on_c, 0, 65, 64
2, 482564, Note_on_c, 0, 44, 53
2, 482582, Note_on_c, 0, 64, 0
2, 482632, Note_on_c, 0, 45, 0
2, 482648, Control_c, 0, 64, 0
2, 482792, Note_on_c, 0, 64, 70
2, 482830, Note_on_c, 0, 65, 0
2, 482970, Note_on_c, 0, 62, 68
2, 482974, Note_on_c, 0, 64, 0
2, 482986, Control_c, 0, 64, 127
2, 483148, Note_on_c, 0, 64, 64
2, 483154, Note_on_c, 0, 62, 0
2, 483340, Note_on_c, 0, 64, 0
2, 483352, Note_on_c, 0, 62, 54
2, 483494, Control_c, 0, 64, 0
2, 483528, Note_on_c, 0, 61, 56
2, 483531, Note_on_c, 0, 62, 0
2, 483724, Control_c, 0, 64, 127
2, 483766, Note_on_c, 0, 62, 62
2, 483780, Note_on_c, 0, 61, 0
2, 483878, Control_c, 0, 64, 0
2, 483988, Note_on_c, 0, 64, 61
2, 484004, Note_on_c, 0, 62, 0
2, 484062, Control_c, 0, 64, 127
2, 484284, Note_on_c, 0, 64, 0
2, 484302, Note_on_c, 0, 62, 48
2, 484332, Note_on_c, 0, 45, 28
2, 484354, Control_c, 0, 64, 0
2, 484360, Note_on_c, 0, 44, 0
2, 484534, Note_on_c, 0, 64, 53
2, 484554, Note_on_c, 0, 62, 0
2, 484692, Control_c, 0, 64, 127
2, 484742, Note_on_c, 0, 64, 0
2, 484742, Note_on_c, 0, 65, 39
2, 484890, Note_on_c, 0, 65, 0
2, 484952, Note_on_c, 0, 64, 18
2, 485034, Note_on_c, 0, 64, 0
2, 485074, Note_on_c, 0, 65, 30
2, 485136, Note_on_c, 0, 64, 52
2, 485139, Note_on_c, 0, 65, 0
2, 485220, Note_on_c, 0, 64, 0
2, 485222, Note_on_c, 0, 65, 51
2, 485296, Note_on_c, 0, 65, 0
2, 485328, Note_on_c, 0, 64, 48
2, 485382, Note_on_c, 0, 65, 59
2, 485386, Note_on_c, 0, 64, 0
2, 485448, Note_on_c, 0, 65, 0
2, 485496, Note_on_c, 0, 64, 41
2, 485538, Note_on_c, 0, 65, 54
2, 485558, Note_on_c, 0, 64, 0
2, 485608, Note_on_c, 0, 65, 0
2, 485644, Note_on_c, 0, 64, 36
2, 485650, Note_on_c, 0, 49, 47
2, 485698, Note_on_c, 0, 65, 53
2, 485708, Note_on_c, 0, 64, 0
2, 485764, Note_on_c, 0, 65, 0
2, 485788, Note_on_c, 0, 50, 0
2, 485788, Note_on_c, 0, 64, 33
2, 485850, Note_on_c, 0, 65, 55
2, 485856, Note_on_c, 0, 64, 0
2, 485874, Control_c, 0, 64, 0
2, 485916, Note_on_c, 0, 65, 0
2, 485946, Note_on_c, 0, 64, 48
2, 486004, Note_on_c, 0, 65, 56
2, 486010, Note_on_c, 0, 64, 0
2, 486076, Note_on_c, 0, 65, 0
2, 486106, Control_c, 0, 64, 127
2, 486106, Note_on_c, 0, 64, 61
2, 486160, Note_on_c, 0, 65, 59
2, 486162, Note_on_c, 0, 64, 0
2, 486228, Note_on_c, 0, 65, 0
2, 486252, Note_on_c, 0, 64, 62
2, 486308, Note_on_c, 0, 64, 0
2, 486314, Note_on_c, 0, 65, 57
2, 486374, Note_on_c, 0, 65, 0
2, 486406, Note_on_c, 0, 64, 56
2, 486462, Note_on_c, 0, 64, 0
2, 486464, Note_on_c, 0, 65, 55
2, 486526, Note_on_c, 0, 65, 0
2, 486568, Note_on_c, 0, 64, 41
2, 486620, Note_on_c, 0, 65, 55
2, 486632, Note_on_c, 0, 64, 0
2, 486682, Note_on_c, 0, 65, 0
2, 486718, Note_on_c, 0, 55, 63
2, 486721, Note_on_c, 0, 64, 38
2, 486786, Note_on_c, 0, 65, 40
2, 486792, Note_on_c, 0, 64, 0
2, 486828, Control_c, 0, 64, 0
2, 486852, Note_on_c, 0, 65, 0
2, 486868, Note_on_c, 0, 64, 38
2, 486932, Note_on_c, 0, 64, 0
2, 486934, Note_on_c, 0, 65, 53
2, 486978, Note_on_c, 0, 49, 0
2, 487000, Note_on_c, 0, 65, 0
2, 487040, Note_on_c, 0, 64, 41
2, 487074, Control_c, 0, 64, 127
2, 487092, Note_on_c, 0, 65, 54
2, 487112, Note_on_c, 0, 64, 0
2, 487160, Note_on_c, 0, 65, 0
2, 487186, Note_on_c, 0, 64, 18
2, 487254, Note_on_c, 0, 65, 46
2, 487264, Note_on_c, 0, 64, 0
2, 487320, Note_on_c, 0, 65, 0
2, 487328, Note_on_c, 0, 64, 31
2, 487404, Note_on_c, 0, 64, 0
2, 487420, Note_on_c, 0, 65, 36
2, 487488, Note_on_c, 0, 65, 0
2, 487496, Note_on_c, 0, 64, 52
2, 487554, Note_on_c, 0, 64, 0
2, 487582, Note_on_c, 0, 65, 41
2, 487648, Note_on_c, 0, 64, 55
2, 487652, Note_on_c, 0, 65, 0
2, 487720, Note_on_c, 0, 64, 0
2, 487764, Note_on_c, 0, 65, 29
2, 487844, Note_on_c, 0, 65, 0
2, 487847, Note_on_c, 0, 64, 41
2, 488056, Note_on_c, 0, 64, 0
2, 488068, Note_on_c, 0, 65, 47
2, 488350, Control_c, 0, 64, 0
2, 488358, Note_on_c, 0, 65, 0
2, 488376, Note_on_c, 0, 64, 30
2, 488594, Control_c, 0, 64, 127
2, 488746, Note_on_c, 0, 64, 0
2, 488808, Note_on_c, 0, 62, 22
2, 488932, Control_c, 0, 64, 0
2, 489148, Control_c, 0, 64, 127
2, 489382, Note_on_c, 0, 62, 0
2, 489408, Note_on_c, 0, 64, 25
2, 489454, Control_c, 0, 64, 0
2, 489716, Control_c, 0, 64, 127
2, 490062, Note_on_c, 0, 45, 0
2, 490312, Note_on_c, 0, 64, 0
2, 490570, Note_on_c, 0, 62, 25
2, 490588, Note_on_c, 0, 50, 21
2, 490930, Control_c, 0, 64, 0
2, 491222, Control_c, 0, 64, 127
2, 492035, Note_on_c, 0, 62, 0
2, 492053, Note_on_c, 0, 50, 0
2, 492822, Note_on_c, 0, 55, 0
2, 493028, Note_on_c, 0, 53, 7
2, 494493, Note_on_c, 0, 53, 0
2, 494648, Control_c, 0, 64, 0
2, 495356, Control_c, 0, 64, 127
2, 497280, Control_c, 0, 64, 0
2, 501120, Control_c, 0, 64, 127
2, 501120, Control_c, 0, 64, 0
2, 501120, Note_on_c, 0, 77, 92
2, 501146, Note_on_c, 0, 57, 34
2, 501146, Note_on_c, 0, 53, 64
2, 501160, Note_on_c, 0, 77, 0
2, 501400, Note_on_c, 0, 65, 92
2, 501630, Note_on_c, 0, 57, 0
2, 501634, Note_on_c, 0, 53, 0
2, 501658, Note_on_c, 0, 60, 88
2, 501658, Note_on_c, 0, 52, 97
2, 501906, Note_on_c, 0, 65, 0
2, 501911, Note_on_c, 0, 67, 101
2, 502022, Note_on_c, 0, 69, 84
2, 502034, Note_on_c, 0, 67, 0
2, 502060, Note_on_c, 0, 52, 0
2, 502072, Note_on_c, 0, 60, 0
2, 502130, Note_on_c, 0, 50, 67
2, 502130, Note_on_c, 0, 70, 99
2, 502136, Note_on_c, 0, 53, 102
2, 502166, Note_on_c, 0, 69, 0
2, 502246, Note_on_c, 0, 72, 106
2, 502250, Note_on_c, 0, 70, 0
2, 502326, Note_on_c, 0, 72, 0
2, 502360, Note_on_c, 0, 74, 103
2, 502363, Note_on_c, 0, 58, 57
2, 502396, Note_on_c, 0, 53, 0
2, 502464, Note_on_c, 0, 74, 0
2, 502466, Note_on_c, 0, 76, 98
2, 502480, Note_on_c, 0, 50, 0
2, 502492, Note_on_c, 0, 58, 0
2, 502580, Note_on_c, 0, 77, 100
2, 502592, Note_on_c, 0, 76, 0
2, 502595, Note_on_c, 0, 57, 70
2, 502604, Note_on_c, 0, 48, 57
2, 502642, Note_on_c, 0, 57, 0
2, 502652, Note_on_c, 0, 77, 0
2, 502654, Note_on_c, 0, 48, 0
2, 502690, Note_on_c, 0, 79, 105
2, 502794, Note_on_c, 0, 79, 0
2, 502798, Note_on_c, 0, 81, 97
2, 502816, Note_on_c, 0, 46, 74
2, 502822, Note_on_c, 0, 55, 68
2, 502864, Note_on_c, 0, 46, 0
2, 502872, Note_on_c, 0, 55, 0
2, 502908, Note_on_c, 0, 82, 90
2, 502936, Note_on_c, 0, 81, 0
2, 503024, Note_on_c, 0, 84, 120
2, 503032, Note_on_c, 0, 53, 109
2, 503036, Note_on_c, 0, 45, 77
2, 503070, Note_on_c, 0, 82, 0
2, 503080, Note_on_c, 0, 53, 0
2, 503104, Note_on_c, 0, 45, 0
2, 503114, Note_on_c, 0, 84, 0
2, 503156, Note_on_c, 0, 41, 85
2, 503254, Note_on_c, 0, 84, 116
2, 503257, Note_on_c, 0, 81, 88
2, 503260, Note_on_c, 0, 77, 95
2, 503262, Note_on_c, 0, 43, 90
2, 503280, Note_on_c, 0, 41, 0
2, 503294, Note_on_c, 0, 84, 0
2, 503296, Note_on_c, 0, 77, 0
2, 503300, Note_on_c, 0, 81, 0
2, 503374, Note_on_c, 0, 45, 69
2, 503396, Note_on_c, 0, 43, 0
2, 503474, Note_on_c, 0, 45, 0
2, 503474, Note_on_c, 0, 46, 84
2, 503482, Note_on_c, 0, 76, 94
2, 503482, Note_on_c, 0, 84, 109
2, 503482, Note_on_c, 0, 79, 97
2, 503520, Note_on_c, 0, 84, 0
2, 503520, Note_on_c, 0, 76, 0
2, 503523, Note_on_c, 0, 79, 0
2, 503578, Note_on_c, 0, 46, 0
2, 503592, Note_on_c, 0, 48, 70
2, 503660, Note_on_c, 0, 48, 0
2, 503692, Note_on_c, 0, 82, 91
2, 503694, Note_on_c, 0, 79, 85
2, 503702, Note_on_c, 0, 50, 82
2, 503718, Note_on_c, 0, 72, 40
2, 503736, Note_on_c, 0, 79, 0
2, 503758, Note_on_c, 0, 82, 0
2, 503788, Note_on_c, 0, 72, 0
2, 503804, Note_on_c, 0, 50, 0
2, 503820, Note_on_c, 0, 52, 91
2, 503888, Note_on_c, 0, 52, 0
2, 503928, Note_on_c, 0, 81, 102
2, 503934, Note_on_c, 0, 77, 77
2, 503938, Note_on_c, 0, 72, 90
2, 503944, Note_on_c, 0, 53, 115
2, 504046, Note_on_c, 0, 53, 0
2, 504049, Note_on_c, 0, 55, 97
2, 504106, Note_on_c, 0, 72, 0
2, 504166, Note_on_c, 0, 57, 91
2, 504182, Note_on_c, 0, 55, 0
2, 504280, Note_on_c, 0, 58, 82
2, 504296, Note_on_c, 0, 57, 0
2, 504316, Note_on_c, 0, 77, 0
2, 504374, Note_on_c, 0, 79, 94
2, 504382, Note_on_c, 0, 58, 0
2, 504384, Note_on_c, 0, 72, 60
2, 504388, Note_on_c, 0, 60, 77
2, 504390, Note_on_c, 0, 81, 0
2, 504394, Note_on_c, 0, 76, 47
2, 504490, Note_on_c, 0, 60, 0
2, 504506, Note_on_c, 0, 62, 70
2, 504570, Note_on_c, 0, 62, 0
2, 504618, Note_on_c, 0, 64, 79
2, 504674, Note_on_c, 0, 64, 0
2, 504716, Note_on_c, 0, 79, 0
2, 504719, Note_on_c, 0, 60, 71
2, 504726, Note_on_c, 0, 76, 0
2, 504778, Note_on_c, 0, 60, 0
2, 504828, Note_on_c, 0, 65, 75
2, 504834, Note_on_c, 0, 72, 0
2, 504844, Note_on_c, 0, 81, 99
2, 504874, Note_on_c, 0, 65, 0
2, 504954, Note_on_c, 0, 77, 82
2, 505062, Note_on_c, 0, 53, 110
2, 505064, Note_on_c, 0, 76, 68
2, 505094, Note_on_c, 0, 77, 0
2, 505176, Note_on_c, 0, 76, 0
2, 505179, Note_on_c, 0, 74, 80
2, 505282, Note_on_c, 0, 53, 0
2, 505308, Note_on_c, 0, 81, 0
2, 505310, Note_on_c, 0, 72, 80
2, 505312, Note_on_c, 0, 52, 102
2, 505322, Note_on_c, 0, 74, 0
2, 505360, Note_on_c, 0, 52, 0
2, 505422, Note_on_c, 0, 72, 0
2, 505432, Note_on_c, 0, 79, 92
2, 505538, Note_on_c, 0, 76, 78
2, 505542, Note_on_c, 0, 57, 79
2, 505562, Note_on_c, 0, 79, 0
2, 505586, Note_on_c, 0, 57, 0
2, 505654, Note_on_c, 0, 72, 74
2, 505670, Note_on_c, 0, 76, 0
2, 505738, Note_on_c, 0, 72, 0
2, 505780, Note_on_c, 0, 77, 90
2, 505790, Note_on_c, 0, 62, 56
2, 505848, Note_on_c, 0, 62, 0
2, 505894, Note_on_c, 0, 74, 72
2, 506004, Note_on_c, 0, 72, 83
2, 506018, Note_on_c, 0, 50, 74
2, 506036, Note_on_c, 0, 74, 0
2, 506122, Note_on_c, 0, 72, 0
2, 506122, Note_on_c, 0, 70, 60
2, 506200, Note_on_c, 0, 50, 0
2, 506202, Note_on_c, 0, 77, 0
2, 506244, Note_on_c, 0, 69, 74
2, 506246, Note_on_c, 0, 48, 70
2, 506264, Note_on_c, 0, 70, 0
2, 506294, Note_on_c, 0, 48, 0
2, 506306, Note_on_c, 0, 69, 0
2, 506376, Note_on_c, 0, 75, 74
2, 506468, Note_on_c, 0, 72, 76
2, 506476, Note_on_c, 0, 75, 0
2, 506494, Note_on_c, 0, 53, 82
2, 506528, Note_on_c, 0, 72, 0
2, 506542, Note_on_c, 0, 53, 0
2, 506572, Note_on_c, 0, 69, 70
2, 506640, Note_on_c, 0, 69, 0
2, 506700, Note_on_c, 0, 74, 95
2, 506704, Note_on_c, 0, 58, 65
2, 506764, Note_on_c, 0, 58, 0
2, 506814, Note_on_c, 0, 70, 77
2, 506930, Note_on_c, 0, 69, 70
2, 506933, Note_on_c, 0, 46, 84
2, 506984, Note_on_c, 0, 70, 0
2, 507038, Note_on_c, 0, 67, 85
2, 507064, Note_on_c, 0, 69, 0
2, 507120, Note_on_c, 0, 46, 0
2, 507126, Note_on_c, 0, 74, 0
2, 507158, Note_on_c, 0, 45, 87
2, 507172, Note_on_c, 0, 65, 80
2, 507182, Note_on_c, 0, 67, 0
2, 507212, Note_on_c, 0, 45, 0
2, 507256, Note_on_c, 0, 65, 0
2, 507280, Note_on_c, 0, 72, 88
2, 507398, Note_on_c, 0, 50, 87
2, 507398, Note_on_c, 0, 69, 80
2, 507428, Note_on_c, 0, 72, 0
2, 507440, Note_on_c, 0, 50, 0
2, 507508, Note_on_c, 0, 65, 83
2, 507516, Note_on_c, 0, 69, 0
2, 507610, Note_on_c, 0, 70, 85
2, 507620, Note_on_c, 0, 65, 0
2, 507644, Note_on_c, 0, 43, 33
2, 507710, Note_on_c, 0, 43, 0
2, 507734, Note_on_c, 0, 65, 55
2, 507822, Note_on_c, 0, 64, 88
2, 507838, Note_on_c, 0, 65, 0
2, 507841, Note_on_c, 0, 55, 98
2, 507896, Note_on_c, 0, 55, 0
2, 507912, Note_on_c, 0, 64, 0
2, 507924, Note_on_c, 0, 57, 85
2, 507936, Note_on_c, 0, 62, 86
2, 507998, Note_on_c, 0, 62, 0
2, 508010, Note_on_c, 0, 57, 0
2, 508036, Note_on_c, 0, 55, 110
2, 508056, Note_on_c, 0, 70, 0
2, 508064, Note_on_c, 0, 64, 90
2, 508098, Note_on_c, 0, 55, 0
2, 508140, Note_on_c, 0, 64, 0
2, 508168, Note_on_c, 0, 70, 59
2, 508296, Note_on_c, 0, 53, 102
2, 508302, Note_on_c, 0, 67, 80
2, 508308, Note_on_c, 0, 70, 0
2, 508338, Note_on_c, 0, 53, 0
2, 508386, Note_on_c, 0, 67, 0
2, 508406, Note_on_c, 0, 64, 79
2, 508474, Note_on_c, 0, 64, 0
2, 508520, Note_on_c, 0, 60, 77
2, 508532, Note_on_c, 0, 52, 100
2, 508638, Note_on_c, 0, 62, 90
2, 508652, Note_on_c, 0, 52, 0
2, 508660, Note_on_c, 0, 60, 0
2, 508736, Note_on_c, 0, 62, 0
2, 508760, Note_on_c, 0, 64, 87
2, 508760, Note_on_c, 0, 55, 78
2, 508812, Note_on_c, 0, 55, 0
2, 508864, Note_on_c, 0, 70, 69
2, 508867, Note_on_c, 0, 64, 0
2, 508914, Note_on_c, 0, 70, 0
2, 508978, Note_on_c, 0, 69, 84
2, 508996, Note_on_c, 0, 53, 105
2, 509048, Note_on_c, 0, 53, 0
2, 509086, Note_on_c, 0, 70, 84
2, 509104, Note_on_c, 0, 69, 0
2, 509210, Note_on_c, 0, 72, 98
2, 509218, Note_on_c, 0, 57, 56
2, 509232, Note_on_c, 0, 70, 0
2, 509274, Note_on_c, 0, 57, 0
2, 509316, Note_on_c, 0, 72, 0
2, 509320, Note_on_c, 0, 77, 90
2, 509378, Note_on_c, 0, 77, 0
2, 509436, Note_on_c, 0, 76, 101
2, 509444, Note_on_c, 0, 55, 87
2, 509520, Note_on_c, 0, 55, 0
2, 509542, Note_on_c, 0, 77, 102
2, 509552, Note_on_c, 0, 76, 0
2, 509660, Note_on_c, 0, 79, 113
2, 509678, Note_on_c, 0, 77, 0
2, 509678, Note_on_c, 0, 48, 55
2, 509758, Note_on_c, 0, 48, 0
2, 509766, Note_on_c, 0, 79, 0
2, 509766, Note_on_c, 0, 82, 85
2, 509888, Note_on_c, 0, 81, 107
2, 509894, Note_on_c, 0, 82, 0
2, 509906, Note_on_c, 0, 53, 117
2, 509946, Note_on_c, 0, 53, 0
2, 510016, Note_on_c, 0, 82, 88
2, 510056, Note_on_c, 0, 81, 0
2, 510120, Note_on_c, 0, 45, 94
2, 510136, Note_on_c, 0, 84, 98
2, 510162, Note_on_c, 0, 82, 0
2, 510240, Note_on_c, 0, 45, 0
2, 510244, Note_on_c, 0, 75, 92
2, 510256, Note_on_c, 0, 84, 0
2, 510354, Note_on_c, 0, 46, 84
2, 510360, Note_on_c, 0, 74, 106
2, 510362, Note_on_c, 0, 75, 0
2, 510422, Note_on_c, 0, 46, 0
2, 510472, Note_on_c, 0, 76, 92
2, 510488, Note_on_c, 0, 74, 0
2, 510582, Note_on_c, 0, 77, 102
2, 510598, Note_on_c, 0, 76, 0
2, 510604, Note_on_c, 0, 50, 70
2, 510654, Note_on_c, 0, 50, 0
2, 510688, Note_on_c, 0, 77, 0
2, 510700, Note_on_c, 0, 84, 93
2, 510834, Note_on_c, 0, 82, 80
2, 510837, Note_on_c, 0, 43, 51
2, 510866, Note_on_c, 0, 84, 0
2, 510896, Note_on_c, 0, 43, 0
2, 510950, Note_on_c, 0, 81, 79
2, 510968, Note_on_c, 0, 82, 0
2, 511052, Note_on_c, 0, 81, 0
2, 511052, Note_on_c, 0, 46, 53
2, 511072, Note_on_c, 0, 79, 78
2, 511112, Note_on_c, 0, 46, 0
2, 511158, Note_on_c, 0, 79, 0
2, 511180, Note_on_c, 0, 77, 63
2, 511298, Note_on_c, 0, 77, 0
2, 511298, Note_on_c, 0, 76, 72
2, 511298, Note_on_c, 0, 48, 62
2, 511356, Note_on_c, 0, 76, 0
2, 511406, Note_on_c, 0, 48, 0
2, 511406, Note_on_c, 0, 77, 49
2, 511422, Note_on_c, 0, 50, 64
2, 511518, Note_on_c, 0, 50, 0
2, 511528, Note_on_c, 0, 77, 0
2, 511528, Note_on_c, 0, 79, 74
2, 511531, Note_on_c, 0, 52, 70
2, 511594, Note_on_c, 0, 79, 0
2, 511614, Note_on_c, 0, 76, 67
2, 511621, Note_on_c, 0, 52, 0
2, 511636, Note_on_c, 0, 53, 101
2, 511684, Note_on_c, 0, 76, 0
2, 511725, Note_on_c, 0, 53, 0
2, 511730, Note_on_c, 0, 55, 91
2, 511748, Note_on_c, 0, 72, 83
2, 511834, Note_on_c, 0, 55, 0
2, 511844, Note_on_c, 0, 57, 87
2, 511938, Note_on_c, 0, 57, 0
2, 511950, Note_on_c, 0, 58, 87
2, 512056, Note_on_c, 0, 55, 102
2, 512064, Note_on_c, 0, 58, 0
2, 512152, Note_on_c, 0, 72, 0
2, 512176, Note_on_c, 0, 55, 0
2, 512184, Note_on_c, 0, 77, 111
2, 512200, Note_on_c, 0, 57, 93
2, 512206, Note_on_c, 0, 53, 102
2, 512264, Note_on_c, 0, 77, 0
2, 512476, Note_on_c, 0, 65, 114
2, 512698, Note_on_c, 0, 57, 0
2, 512706, Note_on_c, 0, 53, 0
2, 512742, Note_on_c, 0, 60, 94
2, 512742, Note_on_c, 0, 52, 100
2, 513006, Note_on_c, 0, 67, 105
2, 513036, Note_on_c, 0, 65, 0
2, 513112, Note_on_c, 0, 69, 91
2, 513122, Note_on_c, 0, 67, 0
2, 513184, Note_on_c, 0, 60, 0
2, 513224, Note_on_c, 0, 70, 102
2, 513232, Note_on_c, 0, 52, 0
2, 513232, Note_on_c, 0, 53, 121
2, 513238, Note_on_c, 0, 50, 86
2, 513276, Note_on_c, 0, 69, 0
2, 513350, Note_on_c, 0, 70, 0
2, 513355, Note_on_c, 0, 72, 109
2, 513452, Note_on_c, 0, 53, 0
2, 513455, Note_on_c, 0, 58, 74
2, 513462, Note_on_c, 0, 74, 114
2, 513468, Note_on_c, 0, 72, 0
2, 513576, Note_on_c, 0, 76, 108
2, 513580, Note_on_c, 0, 50, 0
2, 513596, Note_on_c, 0, 74, 0
2, 513596, Note_on_c, 0, 58, 0
2, 513668, Note_on_c, 0, 76, 0
2, 513674, Note_on_c, 0, 48, 75
2, 513674, Note_on_c, 0, 57, 84
2, 513682, Note_on_c, 0, 77, 111
2, 513722, Note_on_c, 0, 57, 0
2, 513728, Note_on_c, 0, 48, 0
2, 513784, Note_on_c, 0, 77, 0
2, 513790, Note_on_c, 0, 79, 116
2, 513892, Note_on_c, 0, 46, 79
2, 513894, Note_on_c, 0, 79, 0
2, 513896, Note_on_c, 0, 81, 106
2, 513898, Note_on_c, 0, 55, 68
2, 513936, Note_on_c, 0, 46, 0
2, 513948, Note_on_c, 0, 55, 0
2, 514000, Note_on_c, 0, 82, 98
2, 514050, Note_on_c, 0, 81, 0
2, 514112, Note_on_c, 0, 53, 125
2, 514120, Note_on_c, 0, 45, 90
2, 514124, Note_on_c, 0, 84, 124
2, 514192, Note_on_c, 0, 82, 0
2, 514200, Note_on_c, 0, 84, 0
2, 514204, Note_on_c, 0, 53, 0
2, 514212, Note_on_c, 0, 45, 0
2, 514246, Note_on_c, 0, 41, 106
2, 514352, Note_on_c, 0, 84, 120
2, 514356, Note_on_c, 0, 77, 109
2, 514358, Note_on_c, 0, 81, 105
2, 514362, Note_on_c, 0, 43, 98
2, 514392, Note_on_c, 0, 77, 0
2, 514395, Note_on_c, 0, 81, 0
2, 514404, Note_on_c, 0, 41, 0
2, 514446, Note_on_c, 0, 84, 0
2, 514472, Note_on_c, 0, 45, 68
2, 514502, Note_on_c, 0, 43, 0
2, 514570, Note_on_c, 0, 46, 91
2, 514578, Note_on_c, 0, 76, 101
2, 514584, Note_on_c, 0, 79, 99
2, 514590, Note_on_c, 0, 45, 0
2, 514590, Note_on_c, 0, 84, 106
2, 514616, Note_on_c, 0, 76, 0
2, 514624, Note_on_c, 0, 79, 0
2, 514628, Note_on_c, 0, 84, 0
2, 514674, Note_on_c, 0, 46, 0
2, 514684, Note_on_c, 0, 48, 83
2, 514770, Note_on_c, 0, 48, 0
2, 514800, Note_on_c, 0, 50, 86
2, 514806, Note_on_c, 0, 82, 98
2, 514810, Note_on_c, 0, 79, 95
2, 514810, Note_on_c, 0, 72, 93
2, 514850, Note_on_c, 0, 79, 0
2, 514858, Note_on_c, 0, 72, 0
2, 514864, Note_on_c, 0, 82, 0
2, 514914, Note_on_c, 0, 52, 94
2, 514924, Note_on_c, 0, 50, 0
2, 515002, Note_on_c, 0, 52, 0
2, 515046, Note_on_c, 0, 81, 114
2, 515049, Note_on_c, 0, 53, 109
2, 515052, Note_on_c, 0, 77, 101
2, 515054, Note_on_c, 0, 72, 100
2, 515150, Note_on_c, 0, 53, 0
2, 515160, Note_on_c, 0, 55, 94
2, 515288, Note_on_c, 0, 57, 80
2, 515302, Note_on_c, 0, 55, 0
2, 515318, Note_on_c, 0, 72, 0
2, 515400, Note_on_c, 0, 58, 67
2, 515403, Note_on_c, 0, 57, 0
2, 515430, Note_on_c, 0, 77, 0
2, 515500, Note_on_c, 0, 58, 0
2, 515518, Note_on_c, 0, 79, 93
2, 515520, Note_on_c, 0, 60, 68
2, 515522, Note_on_c, 0, 72, 54
2, 515528, Note_on_c, 0, 76, 46
2, 515546, Note_on_c, 0, 81, 0
2, 515596, Note_on_c, 0, 60, 0
2, 515630, Note_on_c, 0, 62, 64
2, 515644, Note_on_c, 0, 76, 0
2, 515696, Note_on_c, 0, 62, 0
2, 515762, Note_on_c, 0, 64, 63
2, 515813, Note_on_c, 0, 64, 0
2, 515858, Note_on_c, 0, 60, 68
2, 515860, Note_on_c, 0, 79, 0
2, 515866, Note_on_c, 0, 72, 0
2, 515910, Note_on_c, 0, 60, 0
2, 515980, Note_on_c, 0, 62, 70
2, 515983, Note_on_c, 0, 82, 70
2, 516108, Note_on_c, 0, 77, 52
2, 516180, Note_on_c, 0, 62, 0
2, 516228, Note_on_c, 0, 77, 0
2, 516238, Note_on_c, 0, 76, 51
2, 516260, Note_on_c, 0, 50, 52
2, 516328, Note_on_c, 0, 76, 0
2, 516334, Note_on_c, 0, 77, 49
2, 516376, Note_on_c, 0, 82, 0
2, 516394, Note_on_c, 0, 50, 0
2, 516472, Note_on_c, 0, 82, 55
2, 516482, Note_on_c, 0, 77, 0
2, 516488, Note_on_c, 0, 62, 59
2, 516542, Note_on_c, 0, 62, 0
2, 516582, Note_on_c, 0, 77, 37
2, 516604, Note_on_c, 0, 82, 0
2, 516706, Note_on_c, 0, 77, 0
2, 516716, Note_on_c, 0, 81, 74
2, 516734, Note_on_c, 0, 60, 52
2, 516776, Note_on_c, 0, 81, 0
2, 516796, Note_on_c, 0, 60, 0
2, 516828, Note_on_c, 0, 77, 47
2, 516890, Note_on_c, 0, 77, 0
2, 516962, Note_on_c, 0, 79, 98
2, 516962, Note_on_c, 0, 58, 57
2, 517088, Note_on_c, 0, 77, 76
2, 517188, Note_on_c, 0, 58, 0
2, 517196, Note_on_c, 0, 79, 0
2, 517202, Note_on_c, 0, 77, 0
2, 517210, Note_on_c, 0, 76, 60
2, 517220, Note_on_c, 0, 46, 52
2, 517324, Note_on_c, 0, 77, 63
2, 517346, Note_on_c, 0, 76, 0
2, 517374, Note_on_c, 0, 46, 0
2, 517420, Note_on_c, 0, 77, 0
2, 517432, Note_on_c, 0, 79, 102
2, 517435, Note_on_c, 0, 58, 69
2, 517512, Note_on_c, 0, 79, 0
2, 517520, Note_on_c, 0, 58, 0
2, 517552, Note_on_c, 0, 77, 69
2, 517614, Note_on_c, 0, 77, 0
2, 517674, Note_on_c, 0, 60, 88
2, 517680, Note_on_c, 0, 81, 94
2, 517716, Note_on_c, 0, 60, 0
2, 517790, Note_on_c, 0, 81, 0
2, 517790, Note_on_c, 0, 77, 87
2, 517852, Note_on_c, 0, 77, 0
2, 517926, Note_on_c, 0, 62, 83
2, 517928, Note_on_c, 0, 82, 95
2, 518044, Note_on_c, 0, 77, 76
2, 518120, Note_on_c, 0, 62, 0
2, 518162, Note_on_c, 0, 76, 62
2, 518168, Note_on_c, 0, 77, 0
2, 518171, Note_on_c, 0, 82, 0
2, 518186, Note_on_c, 0, 50, 57
2, 518264, Note_on_c, 0, 50, 0
2, 518284, Note_on_c, 0, 77, 54
2, 518294, Note_on_c, 0, 76, 0
2, 518396, Note_on_c, 0, 77, 0
2, 518400, Note_on_c, 0, 82, 76
2, 518412, Note_on_c, 0, 62, 56
2, 518470, Note_on_c, 0, 62, 0
2, 518524, Note_on_c, 0, 77, 55
2, 518530, Note_on_c, 0, 82, 0
2, 518588, Note_on_c, 0, 77, 0
2, 518650, Note_on_c, 0, 81, 65
2, 518656, Note_on_c, 0, 60, 53
2, 518714, Note_on_c, 0, 60, 0
2, 518722, Note_on_c, 0, 81, 0
2, 518748, Note_on_c, 0, 77, 74
2, 518824, Note_on_c, 0, 77, 0
2, 518874, Note_on_c, 0, 58, 51
2, 518888, Note_on_c, 0, 79, 84
2, 519004, Note_on_c, 0, 77, 72
2, 519104, Note_on_c, 0, 79, 0
2, 519108, Note_on_c, 0, 58, 0
2, 519110, Note_on_c, 0, 77, 0
2, 519118, Note_on_c, 0, 76, 59
2, 519118, Note_on_c, 0, 46, 52
2, 519226, Note_on_c, 0, 76, 0
2, 519234, Note_on_c, 0, 46, 0
2, 519234, Note_on_c, 0, 77, 68
2, 519334, Note_on_c, 0, 77, 0
2, 519334, Note_on_c, 0, 58, 69
2, 519346, Note_on_c, 0, 79, 101
2, 519432, Note_on_c, 0, 58, 0
2, 519462, Note_on_c, 0, 79, 0
2, 519466, Note_on_c, 0, 77, 82
2, 519518, Note_on_c, 0, 77, 0
2, 519586, Note_on_c, 0, 60, 84
2, 519588, Note_on_c, 0, 81, 90
2, 519630, Note_on_c, 0, 60, 0
2, 519680, Note_on_c, 0, 77, 88
2, 519712, Note_on_c, 0, 81, 0
2, 519808, Note_on_c, 0, 77, 0
2, 519808, Note_on_c, 0, 82, 92
2, 519822, Note_on_c, 0, 62, 82
2, 519872, Note_on_c, 0, 62, 0
2, 519930, Note_on_c, 0, 77, 62
2, 519956, Note_on_c, 0, 82, 0
2, 520000, Note_on_c, 0, 77, 0
2, 520058, Note_on_c, 0, 60, 72
2, 520058, Note_on_c, 0, 81, 86
2, 520114, Note_on_c, 0, 60, 0
2, 520172, Note_on_c, 0, 77, 85
2, 520180, Note_on_c, 0, 81, 0
2, 520264, Note_on_c, 0, 77, 0
2, 520304, Note_on_c, 0, 79, 95
2, 520308, Note_on_c, 0, 58, 62
2, 520362, Note_on_c, 0, 58, 0
2, 520420, Note_on_c, 0, 77, 79
2, 520522, Note_on_c, 0, 55, 71
2, 520536, Note_on_c, 0, 76, 71
2, 520554, Note_on_c, 0, 77, 0
2, 520576, Note_on_c, 0, 79, 0
2, 520588, Note_on_c, 0, 55, 0
2, 520650, Note_on_c, 0, 74, 87
2, 520672, Note_on_c, 0, 76, 0
2, 520742, Note_on_c, 0, 74, 0
2, 520758, Note_on_c, 0, 72, 86
2, 520761, Note_on_c, 0, 52, 101
2, 520808, Note_on_c, 0, 52, 0
2, 520872, Note_on_c, 0, 67, 82
2, 520894, Note_on_c, 0, 72, 0
2, 520992, Note_on_c, 0, 67, 0
2, 520998, Note_on_c, 0, 70, 80
2, 521001, Note_on_c, 0, 48, 72
2, 521050, Note_on_c, 0, 48, 0
2, 521104, Note_on_c, 0, 67, 74
2, 521148, Note_on_c, 0, 70, 0
2, 521204, Note_on_c, 0, 67, 0
2, 521232, Note_on_c, 0, 53, 118
2, 521232, Note_on_c, 0, 69, 76
2, 521336, Note_on_c, 0, 53, 0
2, 521346, Note_on_c, 0, 67, 88
2, 521358, Note_on_c, 0, 69, 0
2, 521460, Note_on_c, 0, 65, 71
2, 521470, Note_on_c, 0, 67, 0
2, 521476, Note_on_c, 0, 48, 90
2, 521518, Note_on_c, 0, 48, 0
2, 521576, Note_on_c, 0, 64, 91
2, 521588, Note_on_c, 0, 65, 0
2, 521680, Note_on_c, 0, 64, 0
2, 521700, Note_on_c, 0, 45, 100
2, 521703, Note_on_c, 0, 65, 101
2, 521788, Note_on_c, 0, 65, 0
2, 521791, Note_on_c, 0, 45, 0
2, 521814, Note_on_c, 0, 43, 86
2, 521920, Note_on_c, 0, 72, 110
2, 521926, Note_on_c, 0, 60, 98
2, 521934, Note_on_c, 0, 45, 84
2, 521936, Note_on_c, 0, 65, 59
2, 521958, Note_on_c, 0, 64, 46
2, 521962, Note_on_c, 0, 43, 0
2, 521972, Note_on_c, 0, 60, 0
2, 521980, Note_on_c, 0, 72, 0
2, 521988, Note_on_c, 0, 65, 0
2, 522016, Note_on_c, 0, 64, 0
2, 522036, Note_on_c, 0, 45, 0
2, 522044, Note_on_c, 0, 46, 79
2, 522134, Note_on_c, 0, 46, 0
2, 522160, Note_on_c, 0, 69, 106
2, 522166, Note_on_c, 0, 60, 110
2, 522168, Note_on_c, 0, 48, 83
2, 522168, Note_on_c, 0, 65, 92
2, 522234, Note_on_c, 0, 60, 0
2, 522284, Note_on_c, 0, 48, 0
2, 522358, Note_on_c, 0, 65, 0
2, 522408, Note_on_c, 0, 58, 74
2, 522416, Note_on_c, 0, 67, 88
2, 522418, Note_on_c, 0, 64, 74
2, 522418, Note_on_c, 0, 36, 95
2, 522421, Note_on_c, 0, 69, 0
2, 522460, Note_on_c, 0, 36, 0
2, 522484, Note_on_c, 0, 64, 0
2, 522514, Note_on_c, 0, 65, 67
2, 522536, Note_on_c, 0, 58, 0
2, 522560, Note_on_c, 0, 67, 0
2, 522562, Note_on_c, 0, 65, 0
2, 522664, Note_on_c, 0, 65, 86
2, 522667, Note_on_c, 0, 41, 118
2, 522670, Note_on_c, 0, 57, 102
2, 522674, Note_on_c, 0, 60, 99
2, 522944, Note_on_c, 0, 43, 93
2, 522974, Note_on_c, 0, 41, 0
2, 523038, Note_on_c, 0, 45, 91
2, 523058, Note_on_c, 0, 43, 0
2, 523136, Note_on_c, 0, 46, 91
2, 523152, Note_on_c, 0, 45, 0
2, 523192, Note_on_c, 0, 57, 0
2, 523238, Note_on_c, 0, 46, 0
2, 523246, Note_on_c, 0, 48, 78
2, 523258, Note_on_c, 0, 60, 0
2, 523306, Note_on_c, 0, 65, 0
2, 523336, Note_on_c, 0, 48, 0
2, 523352, Note_on_c, 0, 50, 85
2, 523454, Note_on_c, 0, 50, 0
2, 523468, Note_on_c, 0, 52, 99
2, 523518, Note_on_c, 0, 52, 0
2, 523598, Note_on_c, 0, 53, 123
2, 523686, Note_on_c, 0, 53, 0
2, 523718, Note_on_c, 0, 69, 79
2, 523822, Note_on_c, 0, 69, 0
2, 523830, Note_on_c, 0, 57, 76
2, 523832, Note_on_c, 0, 70, 84
2, 523880, Note_on_c, 0, 57, 0
2, 523950, Note_on_c, 0, 72, 92
2, 523972, Note_on_c, 0, 70, 0
2, 524066, Note_on_c, 0, 60, 74
2, 524080, Note_on_c, 0, 70, 71
2, 524108, Note_on_c, 0, 72, 0
2, 524130, Note_on_c, 0, 60, 0
2, 524190, Note_on_c, 0, 69, 75
2, 524232, Note_on_c, 0, 70, 0
2, 524312, Note_on_c, 0, 57, 67
2, 524315, Note_on_c, 0, 67, 85
2, 524328, Note_on_c, 0, 69, 0
2, 524362, Note_on_c, 0, 57, 0
2, 524402, Note_on_c, 0, 67, 0
2, 524458, Note_on_c, 0, 65, 34
2, 524550, Note_on_c, 0, 65, 0
2, 524562, Note_on_c, 0, 75, 72
2, 524576, Note_on_c, 0, 53, 95
2, 524620, Note_on_c, 0, 53, 0
2, 524692, Note_on_c, 0, 72, 55
2, 524718, Note_on_c, 0, 75, 0
2, 524778, Note_on_c, 0, 72, 0
2, 524808, Note_on_c, 0, 58, 61
2, 524811, Note_on_c, 0, 74, 68
2, 524878, Note_on_c, 0, 58, 0
2, 524938, Note_on_c, 0, 60, 49
2, 525000, Note_on_c, 0, 60, 0
2, 525046, Note_on_c, 0, 62, 84
2, 525098, Note_on_c, 0, 62, 0
2, 525166, Note_on_c, 0, 70, 71
2, 525186, Note_on_c, 0, 74, 0
2, 525248, Note_on_c, 0, 70, 0
2, 525276, Note_on_c, 0, 69, 67
2, 525294, Note_on_c, 0, 53, 111
2, 525340, Note_on_c, 0, 53, 0
2, 525392, Note_on_c, 0, 69, 0
2, 525392, Note_on_c, 0, 70, 62
2, 525518, Note_on_c, 0, 70, 0
2, 525524, Note_on_c, 0, 55, 100
2, 525536, Note_on_c, 0, 76, 77
2, 525590, Note_on_c, 0, 55, 0
2, 525632, Note_on_c, 0, 70, 63
2, 525658, Note_on_c, 0, 76, 0
2, 525760, Note_on_c, 0, 58, 94
2, 525774, Note_on_c, 0, 70, 0
2, 525776, Note_on_c, 0, 77, 88
2, 525832, Note_on_c, 0, 58, 0
2, 525868, Note_on_c, 0, 70, 54
2, 525908, Note_on_c, 0, 77, 0
2, 525986, Note_on_c, 0, 70, 0
2, 526002, Note_on_c, 0, 64, 106
2, 526002, Note_on_c, 0, 79, 102
2, 526096, Note_on_c, 0, 70, 59
2, 526108, Note_on_c, 0, 79, 0
2, 526108, Note_on_c, 0, 64, 0
2, 526222, Note_on_c, 0, 70, 0
2, 526234, Note_on_c, 0, 69, 64
2, 526240, Note_on_c, 0, 60, 98
2, 526290, Note_on_c, 0, 60, 0
2, 526340, Note_on_c, 0, 69, 0
2, 526346, Note_on_c, 0, 67, 77
2, 526438, Note_on_c, 0, 67, 0
2, 526474, Note_on_c, 0, 69, 82
2, 526484, Note_on_c, 0, 65, 95
2, 526574, Note_on_c, 0, 65, 0
2, 526577, Note_on_c, 0, 72, 84
2, 526592, Note_on_c, 0, 69, 0
2, 526704, Note_on_c, 0, 70, 78
2, 526714, Note_on_c, 0, 72, 0
2, 526726, Note_on_c, 0, 60, 77
2, 526776, Note_on_c, 0, 60, 0
2, 526826, Note_on_c, 0, 69, 80
2, 526842, Note_on_c, 0, 70, 0
2, 526956, Note_on_c, 0, 69, 0
2, 526956, Note_on_c, 0, 70, 74
2, 526959, Note_on_c, 0, 57, 70
2, 527008, Note_on_c, 0, 57, 0
2, 527072, Note_on_c, 0, 69, 72
2, 527094, Note_on_c, 0, 70, 0
2, 527160, Note_on_c, 0, 69, 0
2, 527196, Note_on_c, 0, 67, 77
2, 527198, Note_on_c, 0, 60, 61
2, 527254, Note_on_c, 0, 60, 0
2, 527282, Note_on_c, 0, 67, 0
2, 527298, Note_on_c, 0, 69, 70
2, 527366, Note_on_c, 0, 69, 0
2, 527418, Note_on_c, 0, 65, 82
2, 527432, Note_on_c, 0, 53, 92
2, 527478, Note_on_c, 0, 53, 0
2, 527480, Note_on_c, 0, 65, 0
2, 527560, Note_on_c, 0, 57, 47
2, 527626, Note_on_c, 0, 57, 0
2, 527644, Note_on_c, 0, 69, 86
2, 527662, Note_on_c, 0, 58, 67
2, 527726, Note_on_c, 0, 58, 0
2, 527734, Note_on_c, 0, 69, 0
2, 527786, Note_on_c, 0, 60, 62
2, 527862, Note_on_c, 0, 60, 0
2, 527886, Note_on_c, 0, 72, 105
2, 527896, Note_on_c, 0, 58, 53
2, 527974, Note_on_c, 0, 72, 0
2, 528000, Note_on_c, 0, 58, 0
2, 528032, Note_on_c, 0, 57, 49
2, 528106, Note_on_c, 0, 57, 0
2, 528126, Note_on_c, 0, 69, 95
2, 528164, Note_on_c, 0, 55, 54
2, 528216, Note_on_c, 0, 69, 0
2, 528236, Note_on_c, 0, 55, 0
2, 528274, Note_on_c, 0, 53, 86
2, 528332, Note_on_c, 0, 53, 0
2, 528372, Note_on_c, 0, 65, 86
2, 528388, Note_on_c, 0, 63, 80
2, 528438, Note_on_c, 0, 65, 0
2, 528500, Note_on_c, 0, 63, 0
2, 528520, Note_on_c, 0, 60, 52
2, 528586, Note_on_c, 0, 60, 0
2, 528614, Note_on_c, 0, 70, 87
2, 528634, Note_on_c, 0, 62, 62
2, 528736, Note_on_c, 0, 72, 84
2, 528748, Note_on_c, 0, 70, 0
2, 528866, Note_on_c, 0, 74, 109
2, 528874, Note_on_c, 0, 72, 0
2, 528960, Note_on_c, 0, 74, 0
2, 528972, Note_on_c, 0, 58, 59
2, 529030, Note_on_c, 0, 62, 0
2, 529052, Note_on_c, 0, 58, 0
2, 529086, Note_on_c, 0, 65, 100
2, 529088, Note_on_c, 0, 57, 67
2, 529190, Note_on_c, 0, 65, 0
2, 529198, Note_on_c, 0, 58, 59
2, 529226, Note_on_c, 0, 57, 0
2, 529328, Note_on_c, 0, 58, 0
2, 529332, Note_on_c, 0, 67, 110
2, 529336, Note_on_c, 0, 64, 78
2, 529394, Note_on_c, 0, 64, 0
2, 529438, Note_on_c, 0, 58, 46
2, 529446, Note_on_c, 0, 67, 0
2, 529546, Note_on_c, 0, 58, 0
2, 529560, Note_on_c, 0, 70, 95
2, 529584, Note_on_c, 0, 65, 64
2, 529656, Note_on_c, 0, 65, 0
2, 529660, Note_on_c, 0, 70, 0
2, 529692, Note_on_c, 0, 58, 41
2, 529768, Note_on_c, 0, 58, 0
2, 529800, Note_on_c, 0, 76, 98
2, 529810, Note_on_c, 0, 67, 75
2, 529884, Note_on_c, 0, 67, 0
2, 529896, Note_on_c, 0, 76, 0
2, 529920, Note_on_c, 0, 58, 51
2, 530030, Note_on_c, 0, 72, 91
2, 530033, Note_on_c, 0, 57, 70
2, 530062, Note_on_c, 0, 58, 0
2, 530092, Note_on_c, 0, 72, 0
2, 530152, Note_on_c, 0, 55, 80
2, 530166, Note_on_c, 0, 57, 0
2, 530246, Note_on_c, 0, 55, 0
2, 530268, Note_on_c, 0, 77, 94
2, 530280, Note_on_c, 0, 57, 59
2, 530370, Note_on_c, 0, 57, 0
2, 530370, Note_on_c, 0, 77, 0
2, 530380, Note_on_c, 0, 76, 87
2, 530386, Note_on_c, 0, 60, 64
2, 530488, Note_on_c, 0, 60, 0
2, 530497, Note_on_c, 0, 58, 62
2, 530514, Note_on_c, 0, 77, 84
2, 530520, Note_on_c, 0, 76, 0
2, 530592, Note_on_c, 0, 58, 0
2, 530622, Note_on_c, 0, 57, 77
2, 530690, Note_on_c, 0, 57, 0
2, 530760, Note_on_c, 0, 58, 63
2, 530846, Note_on_c, 0, 58, 0
2, 530852, Note_on_c, 0, 72, 97
2, 530864, Note_on_c, 0, 77, 0
2, 530872, Note_on_c, 0, 57, 61
2, 530932, Note_on_c, 0, 57, 0
2, 530966, Note_on_c, 0, 70, 94
2, 530974, Note_on_c, 0, 72, 0
2, 530974, Note_on_c, 0, 55, 88
2, 531068, Note_on_c, 0, 70, 0
2, 531076, Note_on_c, 0, 57, 87
2, 531079, Note_on_c, 0, 72, 93
2, 531086, Note_on_c, 0, 55, 0
2, 531138, Note_on_c, 0, 57, 0
2, 531184, Note_on_c, 0, 72, 0
2, 531198, Note_on_c, 0, 53, 127
2, 531204, Note_on_c, 0, 81, 110
2, 531272, Note_on_c, 0, 53, 0
2, 531332, Note_on_c, 0, 82, 95
2, 531362, Note_on_c, 0, 81, 0
2, 531442, Note_on_c, 0, 81, 91
2, 531448, Note_on_c, 0, 57, 98
2, 531488, Note_on_c, 0, 57, 0
2, 531502, Note_on_c, 0, 82, 0
2, 531564, Note_on_c, 0, 79, 110
2, 531576, Note_on_c, 0, 81, 0
2, 531678, Note_on_c, 0, 77, 98
2, 531682, Note_on_c, 0, 79, 0
2, 531682, Note_on_c, 0, 60, 110
2, 531720, Note_on_c, 0, 60, 0
2, 531784, Note_on_c, 0, 77, 0
2, 531794, Note_on_c, 0, 76, 91
2, 531928, Note_on_c, 0, 74, 102
2, 531928, Note_on_c, 0, 65, 110
2, 531954, Note_on_c, 0, 76, 0
2, 532038, Note_on_c, 0, 74, 0
2, 532044, Note_on_c, 0, 72, 92
2, 532168, Note_on_c, 0, 72, 0
2, 532170, Note_on_c, 0, 71, 106
2, 532278, Note_on_c, 0, 65, 0
2, 532290, Note_on_c, 0, 79, 106
2, 532290, Note_on_c, 0, 64, 94
2, 532292, Note_on_c, 0, 71, 0
2, 532386, Note_on_c, 0, 64, 0
2, 532396, Note_on_c, 0, 79, 0
2, 532400, Note_on_c, 0, 71, 90
2, 532420, Note_on_c, 0, 62, 74
2, 532484, Note_on_c, 0, 71, 0
2, 532514, Note_on_c, 0, 62, 0
2, 532514, Note_on_c, 0, 69, 80
2, 532524, Note_on_c, 0, 60, 84
2, 532576, Note_on_c, 0, 60, 0
2, 532632, Note_on_c, 0, 69, 0
2, 532635, Note_on_c, 0, 67, 99
2, 532638, Note_on_c, 0, 59, 80
2, 532728, Note_on_c, 0, 59, 0
2, 532750, Note_on_c, 0, 67, 0
2, 532758, Note_on_c, 0, 74, 110
2, 532760, Note_on_c, 0, 57, 75
2, 532868, Note_on_c, 0, 55, 87
2, 532872, Note_on_c, 0, 76, 95
2, 532874, Note_on_c, 0, 57, 0
2, 532878, Note_on_c, 0, 74, 0
2, 532980, Note_on_c, 0, 77, 102
2, 532982, Note_on_c, 0, 53, 109
2, 532992, Note_on_c, 0, 55, 0
2, 533002, Note_on_c, 0, 76, 0
2, 533018, Note_on_c, 0, 77, 0
2, 533092, Note_on_c, 0, 52, 121
2, 533100, Note_on_c, 0, 53, 0
2, 533104, Note_on_c, 0, 79, 121
2, 533182, Note_on_c, 0, 52, 0
2, 533226, Note_on_c, 0, 81, 100
2, 533250, Note_on_c, 0, 79, 0
2, 533332, Note_on_c, 0, 79, 93
2, 533342, Note_on_c, 0, 55, 110
2, 533356, Note_on_c, 0, 81, 0
2, 533388, Note_on_c, 0, 55, 0
2, 533458, Note_on_c, 0, 79, 0
2, 533464, Note_on_c, 0, 77, 97
2, 533584, Note_on_c, 0, 77, 0
2, 533584, Note_on_c, 0, 60, 106
2, 533592, Note_on_c, 0, 76, 83
2, 533622, Note_on_c, 0, 60, 0
2, 533706, Note_on_c, 0, 76, 0
2, 533708, Note_on_c, 0, 74, 102
2, 533822, Note_on_c, 0, 64, 110
2, 533836, Note_on_c, 0, 72, 95
2, 533844, Note_on_c, 0, 74, 0
2, 533946, Note_on_c, 0, 71, 106
2, 533960, Note_on_c, 0, 72, 0
2, 534062, Note_on_c, 0, 71, 0
2, 534068, Note_on_c, 0, 69, 90
2, 534182, Note_on_c, 0, 69, 0
2, 534182, Note_on_c, 0, 77, 94
2, 534188, Note_on_c, 0, 62, 86
2, 534190, Note_on_c, 0, 64, 0
2, 534284, Note_on_c, 0, 62, 0
2, 534287, Note_on_c, 0, 77, 0
2, 534302, Note_on_c, 0, 69, 70
2, 534314, Note_on_c, 0, 60, 69
2, 534372, Note_on_c, 0, 69, 0
2, 534418, Note_on_c, 0, 60, 0
2, 534420, Note_on_c, 0, 67, 74
2, 534422, Note_on_c, 0, 59, 72
2, 534466, Note_on_c, 0, 59, 0
2, 534508, Note_on_c, 0, 67, 0
2, 534518, Note_on_c, 0, 57, 67
2, 534524, Note_on_c, 0, 65, 85
2, 534590, Note_on_c, 0, 65, 0
2, 534592, Note_on_c, 0, 57, 0
2, 534646, Note_on_c, 0, 72, 91
2, 534646, Note_on_c, 0, 55, 77
2, 534713, Note_on_c, 0, 72, 0
2, 534732, Note_on_c, 0, 55, 0
2, 534752, Note_on_c, 0, 53, 105
2, 534756, Note_on_c, 0, 74, 80
2, 534836, Note_on_c, 0, 74, 0
2, 534856, Note_on_c, 0, 53, 0
2, 534860, Note_on_c, 0, 52, 94
2, 534860, Note_on_c, 0, 76, 75
2, 534937, Note_on_c, 0, 76, 0
2, 534972, Note_on_c, 0, 50, 107
2, 534975, Note_on_c, 0, 52, 0
2, 534984, Note_on_c, 0, 77, 105
2, 535090, Note_on_c, 0, 50, 0
2, 535094, Note_on_c, 0, 79, 100
2, 535102, Note_on_c, 0, 77, 0
2, 535200, Note_on_c, 0, 77, 74
2, 535218, Note_on_c, 0, 53, 113
2, 535228, Note_on_c, 0, 79, 0
2, 535256, Note_on_c, 0, 53, 0
2, 535318, Note_on_c, 0, 77, 0
2, 535330, Note_on_c, 0, 76, 83
2, 535422, Note_on_c, 0, 76, 0
2, 535442, Note_on_c, 0, 57, 85
2, 535448, Note_on_c, 0, 74, 79
2, 535488, Note_on_c, 0, 57, 0
2, 535554, Note_on_c, 0, 72, 79
2, 535572, Note_on_c, 0, 74, 0
2, 535684, Note_on_c, 0, 71, 90
2, 535690, Note_on_c, 0, 72, 0
2, 535693, Note_on_c, 0, 60, 98
2, 535808, Note_on_c, 0, 69, 72
2, 535832, Note_on_c, 0, 71, 0
2, 535938, Note_on_c, 0, 67, 83
2, 535941, Note_on_c, 0, 69, 0
2, 536062, Note_on_c, 0, 77, 88
2, 536064, Note_on_c, 0, 67, 0
2, 536168, Note_on_c, 0, 60, 0
2, 536171, Note_on_c, 0, 77, 0
2, 536186, Note_on_c, 0, 59, 76
2, 536202, Note_on_c, 0, 67, 68
2, 536254, Note_on_c, 0, 59, 0
2, 536272, Note_on_c, 0, 67, 0
2, 536294, Note_on_c, 0, 57, 71
2, 536308, Note_on_c, 0, 65, 83
2, 536402, Note_on_c, 0, 65, 0
2, 536412, Note_on_c, 0, 59, 80
2, 536424, Note_on_c, 0, 57, 0
2, 536430, Note_on_c, 0, 67, 90
2, 536476, Note_on_c, 0, 59, 0
2, 536484, Note_on_c, 0, 67, 0
2, 536550, Note_on_c, 0, 77, 68
2, 536616, Note_on_c, 0, 77, 0
2, 536672, Note_on_c, 0, 69, 67
2, 536675, Note_on_c, 0, 60, 62
2, 536732, Note_on_c, 0, 60, 0
2, 536744, Note_on_c, 0, 69, 0
2, 536796, Note_on_c, 0, 77, 62
2, 536870, Note_on_c, 0, 77, 0
2, 536924, Note_on_c, 0, 71, 77
2, 536926, Note_on_c, 0, 62, 60
2, 537012, Note_on_c, 0, 62, 0
2, 537025, Note_on_c, 0, 71, 0
2, 537046, Note_on_c, 0, 77, 60
2, 537170, Note_on_c, 0, 77, 0
2, 537176, Note_on_c, 0, 71, 75
2, 537190, Note_on_c, 0, 55, 56
2, 537244, Note_on_c, 0, 71, 0
2, 537248, Note_on_c, 0, 55, 0
2, 537274, Note_on_c, 0, 69, 62
2, 537280, Note_on_c, 0, 53, 94
2, 537350, Note_on_c, 0, 53, 0
2, 537358, Note_on_c, 0, 69, 0
2, 537404, Note_on_c, 0, 71, 75
2, 537412, Note_on_c, 0, 55, 55
2, 537476, Note_on_c, 0, 55, 0
2, 537479, Note_on_c, 0, 71, 0
2, 537508, Note_on_c, 0, 77, 65
2, 537560, Note_on_c, 0, 77, 0
2, 537638, Note_on_c, 0, 72, 78
2, 537648, Note_on_c, 0, 57, 75
2, 537706, Note_on_c, 0, 57, 0
2, 537760, Note_on_c, 0, 72, 0
2, 537772, Note_on_c, 0, 77, 67
2, 537834, Note_on_c, 0, 77, 0
2, 537890, Note_on_c, 0, 59, 75
2, 537893, Note_on_c, 0, 74, 86
2, 537934, Note_on_c, 0, 59, 0
2, 538022, Note_on_c, 0, 77, 72
2, 538030, Note_on_c, 0, 74, 0
2, 538096, Note_on_c, 0, 77, 0
2, 538140, Note_on_c, 0, 74, 75
2, 538152, Note_on_c, 0, 59, 56
2, 538208, Note_on_c, 0, 59, 0
2, 538240, Note_on_c, 0, 57, 54
2, 538250, Note_on_c, 0, 72, 91
2, 538258, Note_on_c, 0, 74, 0
2, 538342, Note_on_c, 0, 57, 0
2, 538374, Note_on_c, 0, 72, 0
2, 538374, Note_on_c, 0, 74, 88
2, 538374, Note_on_c, 0, 59, 83
2, 538444, Note_on_c, 0, 59, 0
2, 538482, Note_on_c, 0, 74, 0
2, 538498, Note_on_c, 0, 77, 68
2, 538566, Note_on_c, 0, 77, 0
2, 538624, Note_on_c, 0, 72, 77
2, 538626, Note_on_c, 0, 60, 83
2, 538680, Note_on_c, 0, 60, 0
2, 538732, Note_on_c, 0, 72, 0
2, 538746, Note_on_c, 0, 77, 64
2, 538850, Note_on_c, 0, 77, 0
2, 538856, Note_on_c, 0, 62, 101
2, 538872, Note_on_c, 0, 71, 84
2, 538936, Note_on_c, 0, 62, 0
2, 538970, Note_on_c, 0, 71, 0
2, 538990, Note_on_c, 0, 77, 53
2, 539072, Note_on_c, 0, 77, 0
2, 539114, Note_on_c, 0, 71, 74
2, 539126, Note_on_c, 0, 55, 53
2, 539176, Note_on_c, 0, 71, 0
2, 539184, Note_on_c, 0, 55, 0
2, 539212, Note_on_c, 0, 69, 59
2, 539224, Note_on_c, 0, 53, 85
2, 539284, Note_on_c, 0, 69, 0
2, 539296, Note_on_c, 0, 53, 0
2, 539330, Note_on_c, 0, 71, 77
2, 539350, Note_on_c, 0, 55, 47
2, 539410, Note_on_c, 0, 71, 0
2, 539422, Note_on_c, 0, 55, 0
2, 539444, Note_on_c, 0, 77, 53
2, 539522, Note_on_c, 0, 77, 0
2, 539570, Note_on_c, 0, 57, 62
2, 539576, Note_on_c, 0, 69, 52
2, 539628, Note_on_c, 0, 57, 0
2, 539650, Note_on_c, 0, 69, 0
2, 539696, Note_on_c, 0, 77, 61
2, 539772, Note_on_c, 0, 77, 0
2, 539816, Note_on_c, 0, 59, 56
2, 539824, Note_on_c, 0, 67, 60
2, 539868, Note_on_c, 0, 59, 0
2, 539900, Note_on_c, 0, 67, 0
2, 539948, Note_on_c, 0, 77, 62
2, 540008, Note_on_c, 0, 77, 0
2, 540058, Note_on_c, 0, 59, 56
2, 540058, Note_on_c, 0, 67, 60
2, 540124, Note_on_c, 0, 59, 0
2, 540138, Note_on_c, 0, 67, 0
2, 540164, Note_on_c, 0, 65, 70
2, 540174, Note_on_c, 0, 57, 49
2, 540222, Note_on_c, 0, 65, 0
2, 540272, Note_on_c, 0, 57, 0
2, 540280, Note_on_c, 0, 67, 79
2, 540284, Note_on_c, 0, 59, 67
2, 540336, Note_on_c, 0, 59, 0
2, 540336, Note_on_c, 0, 67, 0
2, 540392, Note_on_c, 0, 77, 67
2, 540444, Note_on_c, 0, 77, 0
2, 540520, Note_on_c, 0, 69, 53
2, 540554, Note_on_c, 0, 60, 51
2, 540606, Note_on_c, 0, 69, 0
2, 540618, Note_on_c, 0, 60, 0
2, 540668, Note_on_c, 0, 77, 53
2, 540730, Note_on_c, 0, 77, 0
2, 540772, Note_on_c, 0, 62, 68
2, 540786, Note_on_c, 0, 71, 83
2, 540826, Note_on_c, 0, 62, 0
2, 540852, Note_on_c, 0, 71, 0
2, 540898, Note_on_c, 0, 77, 63
2, 541018, Note_on_c, 0, 55, 71
2, 541026, Note_on_c, 0, 77, 0
2, 541044, Note_on_c, 0, 71, 72
2, 541082, Note_on_c, 0, 55, 0
2, 541096, Note_on_c, 0, 71, 0
2, 541116, Note_on_c, 0, 69, 70
2, 541128, Note_on_c, 0, 53, 91
2, 541186, Note_on_c, 0, 69, 0
2, 541224, Note_on_c, 0, 53, 0
2, 541242, Note_on_c, 0, 55, 90
2, 541245, Note_on_c, 0, 71, 95
2, 541294, Note_on_c, 0, 55, 0
2, 541348, Note_on_c, 0, 71, 0
2, 541348, Note_on_c, 0, 77, 84
2, 541428, Note_on_c, 0, 77, 0
2, 541482, Note_on_c, 0, 72, 91
2, 541494, Note_on_c, 0, 57, 80
2, 541542, Note_on_c, 0, 57, 0
2, 541608, Note_on_c, 0, 77, 77
2, 541618, Note_on_c, 0, 72, 0
2, 541686, Note_on_c, 0, 77, 0
2, 541738, Note_on_c, 0, 74, 100
2, 541762, Note_on_c, 0, 59, 82
2, 541812, Note_on_c, 0, 59, 0
2, 541852, Note_on_c, 0, 74, 0
2, 541852, Note_on_c, 0, 77, 91
2, 541866, Note_on_c, 0, 62, 68
2, 541922, Note_on_c, 0, 62, 0
2, 541972, Note_on_c, 0, 74, 80
2, 541975, Note_on_c, 0, 59, 71
2, 541980, Note_on_c, 0, 77, 0
2, 542070, Note_on_c, 0, 59, 0
2, 542088, Note_on_c, 0, 74, 0
2, 542094, Note_on_c, 0, 72, 83
2, 542104, Note_on_c, 0, 57, 67
2, 542164, Note_on_c, 0, 57, 0
2, 542208, Note_on_c, 0, 72, 0
2, 542212, Note_on_c, 0, 71, 90
2, 542220, Note_on_c, 0, 55, 84
2, 542272, Note_on_c, 0, 55, 0
2, 542320, Note_on_c, 0, 69, 77
2, 542334, Note_on_c, 0, 71, 0
2, 542342, Note_on_c, 0, 53, 94
2, 542406, Note_on_c, 0, 53, 0
2, 542446, Note_on_c, 0, 52, 79
2, 542446, Note_on_c, 0, 67, 79
2, 542460, Note_on_c, 0, 69, 0
2, 542506, Note_on_c, 0, 52, 0
2, 542534, Note_on_c, 0, 67, 0
2, 542550, Note_on_c, 0, 65, 72
2, 542550, Note_on_c, 0, 50, 80
2, 542606, Note_on_c, 0, 50, 0
2, 542664, Note_on_c, 0, 65, 0
2, 542674, Note_on_c, 0, 48, 97
2, 542678, Note_on_c, 0, 64, 94
2, 542782, Note_on_c, 0, 48, 0
2, 542792, Note_on_c, 0, 64, 0
2, 542802, Note_on_c, 0, 67, 79
2, 542944, Note_on_c, 0, 67, 0
2, 542944, Note_on_c, 0, 65, 64
2, 542947, Note_on_c, 0, 52, 82
2, 542990, Note_on_c, 0, 52, 0
2, 543014, Note_on_c, 0, 65, 0
2, 543048, Note_on_c, 0, 64, 74
2, 543130, Note_on_c, 0, 64, 0
2, 543188, Note_on_c, 0, 55, 106
2, 543204, Note_on_c, 0, 65, 69
2, 543286, Note_on_c, 0, 55, 0
2, 543296, Note_on_c, 0, 65, 0
2, 543320, Note_on_c, 0, 64, 77
2, 543446, Note_on_c, 0, 64, 0
2, 543449, Note_on_c, 0, 62, 77
2, 543453, Note_on_c, 0, 52, 101
2, 543498, Note_on_c, 0, 52, 0
2, 543556, Note_on_c, 0, 60, 76
2, 543572, Note_on_c, 0, 62, 0
2, 543704, Note_on_c, 0, 70, 85
2, 543706, Note_on_c, 0, 48, 85
2, 543712, Note_on_c, 0, 60, 0
2, 543760, Note_on_c, 0, 48, 0
2, 543828, Note_on_c, 0, 67, 82
2, 543884, Note_on_c, 0, 70, 0
2, 543954, Note_on_c, 0, 69, 70
2, 543978, Note_on_c, 0, 67, 0
2, 543978, Note_on_c, 0, 53, 92
2, 544028, Note_on_c, 0, 53, 0
2, 544092, Note_on_c, 0, 55, 72
2, 544142, Note_on_c, 0, 55, 0
2, 544212, Note_on_c, 0, 57, 79
2, 544308, Note_on_c, 0, 57, 0
2, 544332, Note_on_c, 0, 65, 68
2, 544354, Note_on_c, 0, 69, 0
2, 544436, Note_on_c, 0, 65, 0
2, 544454, Note_on_c, 0, 64, 84
2, 544466, Note_on_c, 0, 48, 67
2, 544516, Note_on_c, 0, 48, 0
2, 544530, Note_on_c, 0, 64, 0
2, 544572, Note_on_c, 0, 65, 78
2, 544706, Note_on_c, 0, 65, 0
2, 544714, Note_on_c, 0, 50, 72
2, 544714, Note_on_c, 0, 71, 98
2, 544766, Note_on_c, 0, 50, 0
2, 544822, Note_on_c, 0, 65, 76
2, 544836, Note_on_c, 0, 71, 0
2, 544954, Note_on_c, 0, 72, 94
2, 544956, Note_on_c, 0, 65, 0
2, 544970, Note_on_c, 0, 53, 98
2, 545016, Note_on_c, 0, 53, 0
2, 545064, Note_on_c, 0, 65, 77
2, 545074, Note_on_c, 0, 72, 0
2, 545192, Note_on_c, 0, 65, 0
2, 545210, Note_on_c, 0, 74, 98
2, 545218, Note_on_c, 0, 59, 87
2, 545284, Note_on_c, 0, 59, 0
2, 545322, Note_on_c, 0, 74, 0
2, 545324, Note_on_c, 0, 65, 70
2, 545432, Note_on_c, 0, 65, 0
2, 545444, Note_on_c, 0, 64, 87
2, 545466, Note_on_c, 0, 55, 79
2, 545514, Note_on_c, 0, 55, 0
2, 545558, Note_on_c, 0, 62, 97
2, 545580, Note_on_c, 0, 64, 0
2, 545692, Note_on_c, 0, 64, 94
2, 545700, Note_on_c, 0, 62, 0
2, 545708, Note_on_c, 0, 60, 76
2, 545768, Note_on_c, 0, 60, 0
2, 545806, Note_on_c, 0, 67, 88
2, 545814, Note_on_c, 0, 64, 0
2, 545930, Note_on_c, 0, 65, 83
2, 545940, Note_on_c, 0, 67, 0
2, 545958, Note_on_c, 0, 55, 59
2, 546014, Note_on_c, 0, 55, 0
2, 546042, Note_on_c, 0, 64, 94
2, 546054, Note_on_c, 0, 65, 0
2, 546118, Note_on_c, 0, 64, 0
2, 546180, Note_on_c, 0, 65, 64
2, 546192, Note_on_c, 0, 52, 72
2, 546242, Note_on_c, 0, 52, 0
2, 546288, Note_on_c, 0, 64, 88
2, 546320, Note_on_c, 0, 65, 0
2, 546354, Note_on_c, 0, 64, 0
2, 546414, Note_on_c, 0, 62, 70
2, 546434, Note_on_c, 0, 55, 51
2, 546492, Note_on_c, 0, 55, 0
2, 546520, Note_on_c, 0, 62, 0
2, 546526, Note_on_c, 0, 64, 82
2, 546606, Note_on_c, 0, 64, 0
2, 546652, Note_on_c, 0, 60, 86
2, 546652, Note_on_c, 0, 48, 62
2, 546726, Note_on_c, 0, 48, 0
2, 546780, Note_on_c, 0, 60, 0
2, 546790, Note_on_c, 0, 52, 56
2, 546876, Note_on_c, 0, 52, 0
2, 546884, Note_on_c, 0, 64, 97
2, 546904, Note_on_c, 0, 53, 87
2, 546980, Note_on_c, 0, 53, 0
2, 546982, Note_on_c, 0, 64, 0
2, 547038, Note_on_c, 0, 55, 55
2, 547100, Note_on_c, 0, 55, 0
2, 547122, Note_on_c, 0, 67, 92
2, 547158, Note_on_c, 0, 53, 69
2, 547216, Note_on_c, 0, 53, 0
2, 547246, Note_on_c, 0, 52, 83
2, 547254, Note_on_c, 0, 67, 0
2, 547326, Note_on_c, 0, 52, 0
2, 547368, Note_on_c, 0, 64, 94
2, 547380, Note_on_c, 0, 50, 74
2, 547452, Note_on_c, 0, 50, 0
2, 547474, Note_on_c, 0, 64, 0
2, 547476, Note_on_c, 0, 48, 76
2, 547602, Note_on_c, 0, 48, 0
2, 547614, Note_on_c, 0, 60, 91
2, 547617, Note_on_c, 0, 58, 76
2, 547686, Note_on_c, 0, 58, 0
2, 547724, Note_on_c, 0, 60, 0
2, 547754, Note_on_c, 0, 55, 80
2, 547818, Note_on_c, 0, 55, 0
2, 547874, Note_on_c, 0, 65, 82
2, 547888, Note_on_c, 0, 57, 63
2, 547946, Note_on_c, 0, 65, 0
2, 547996, Note_on_c, 0, 67, 80
2, 548074, Note_on_c, 0, 67, 0
2, 548128, Note_on_c, 0, 69, 70
2, 548224, Note_on_c, 0, 69, 0
2, 548236, Note_on_c, 0, 53, 85
2, 548260, Note_on_c, 0, 57, 0
2, 548298, Note_on_c, 0, 53, 0
2, 548358, Note_on_c, 0, 60, 82
2, 548361, Note_on_c, 0, 52, 78
2, 548446, Note_on_c, 0, 52, 0
2, 548466, Note_on_c, 0, 60, 0
2, 548469, Note_on_c, 0, 53, 100
2, 548570, Note_on_c, 0, 53, 0
2, 548602, Note_on_c, 0, 59, 79
2, 548606, Note_on_c, 0, 62, 97
2, 548700, Note_on_c, 0, 62, 0
2, 548706, Note_on_c, 0, 59, 0
2, 548722, Note_on_c, 0, 53, 101
2, 548808, Note_on_c, 0, 53, 0
2, 548846, Note_on_c, 0, 60, 90
2, 548854, Note_on_c, 0, 65, 102
2, 548944, Note_on_c, 0, 60, 0
2, 548958, Note_on_c, 0, 65, 0
2, 548972, Note_on_c, 0, 53, 109
2, 549030, Note_on_c, 0, 53, 0
2, 549100, Note_on_c, 0, 62, 84
2, 549104, Note_on_c, 0, 71, 116
2, 549174, Note_on_c, 0, 62, 0
2, 549212, Note_on_c, 0, 53, 93
2, 549236, Note_on_c, 0, 71, 0
2, 549342, Note_on_c, 0, 53, 0
2, 549342, Note_on_c, 0, 52, 87
2, 549348, Note_on_c, 0, 67, 95
2, 549442, Note_on_c, 0, 52, 0
2, 549452, Note_on_c, 0, 50, 72
2, 549462, Note_on_c, 0, 67, 0
2, 549536, Note_on_c, 0, 50, 0
2, 549580, Note_on_c, 0, 52, 83
2, 549592, Note_on_c, 0, 72, 94
2, 549638, Note_on_c, 0, 52, 0
2, 549702, Note_on_c, 0, 55, 72
2, 549708, Note_on_c, 0, 72, 0
2, 549758, Note_on_c, 0, 55, 0
2, 549826, Note_on_c, 0, 53, 87
2, 549836, Note_on_c, 0, 67, 106
2, 549886, Note_on_c, 0, 53, 0
2, 549954, Note_on_c, 0, 52, 71
2, 550040, Note_on_c, 0, 52, 0
2, 550092, Note_on_c, 0, 79, 108
2, 550094, Note_on_c, 0, 67, 0
2, 550126, Note_on_c, 0, 53, 79
2, 550192, Note_on_c, 0, 53, 0
2, 550228, Note_on_c, 0, 52, 84
2, 550286, Note_on_c, 0, 52, 0
2, 550354, Note_on_c, 0, 77, 106
2, 550362, Note_on_c, 0, 50, 62
2, 550422, Note_on_c, 0, 79, 0
2, 550442, Note_on_c, 0, 50, 0
2, 550488, Note_on_c, 0, 52, 67
2, 550504, Control_c, 0, 64, 127
2, 550512, Note_on_c, 0, 77, 0
2, 550560, Note_on_c, 0, 52, 0
2, 550622, Note_on_c, 0, 76, 93
2, 550638, Note_on_c, 0, 48, 57
2, 550718, Control_c, 0, 64, 0
2, 550750, Note_on_c, 0, 72, 85
2, 550874, Note_on_c, 0, 70, 76
2, 550882, Note_on_c, 0, 52, 82
2, 550886, Note_on_c, 0, 72, 0
2, 550886, Note_on_c, 0, 48, 0
2, 550988, Note_on_c, 0, 69, 79
2, 551002, Note_on_c, 0, 70, 0
2, 551118, Note_on_c, 0, 52, 0
2, 551118, Note_on_c, 0, 55, 65
2, 551121, Note_on_c, 0, 70, 76
2, 551136, Note_on_c, 0, 69, 0
2, 551236, Note_on_c, 0, 69, 53
2, 551268, Note_on_c, 0, 70, 0
2, 551332, Note_on_c, 0, 55, 0
2, 551344, Note_on_c, 0, 58, 57
2, 551364, Note_on_c, 0, 69, 0
2, 551366, Note_on_c, 0, 67, 78
2, 551432, Note_on_c, 0, 67, 0
2, 551492, Note_on_c, 0, 69, 53
2, 551550, Note_on_c, 0, 58, 0
2, 551610, Note_on_c, 0, 57, 62
2, 551616, Note_on_c, 0, 69, 0
2, 551618, Note_on_c, 0, 76, 0
2, 551624, Note_on_c, 0, 65, 83
2, 551670, Control_c, 0, 64, 127
2, 551674, Note_on_c, 0, 65, 0
2, 551696, Note_on_c, 0, 57, 0
2, 551730, Note_on_c, 0, 79, 110
2, 551840, Control_c, 0, 64, 0
2, 551862, Note_on_c, 0, 77, 103
2, 551888, Note_on_c, 0, 60, 61
2, 551906, Note_on_c, 0, 79, 0
2, 551984, Note_on_c, 0, 76, 102
2, 551992, Note_on_c, 0, 60, 0
2, 552008, Note_on_c, 0, 77, 0
2, 552112, Note_on_c, 0, 79, 115
2, 552138, Note_on_c, 0, 76, 0
2, 552142, Note_on_c, 0, 57, 61
2, 552200, Note_on_c, 0, 57, 0
2, 552242, Note_on_c, 0, 77, 101
2, 552270, Note_on_c, 0, 79, 0
2, 552362, Note_on_c, 0, 76, 99
2, 552368, Note_on_c, 0, 77, 0
2, 552378, Note_on_c, 0, 53, 86
2, 552424, Note_on_c, 0, 53, 0
2, 552462, Note_on_c, 0, 76, 0
2, 552490, Note_on_c, 0, 77, 87
2, 552516, Control_c, 0, 64, 127
2, 552528, Note_on_c, 0, 77, 0
2, 552642, Note_on_c, 0, 74, 106
2, 552650, Note_on_c, 0, 47, 59
2, 552654, Control_c, 0, 64, 0
2, 552780, Note_on_c, 0, 69, 68
2, 552906, Note_on_c, 0, 67, 70
2, 552914, Note_on_c, 0, 50, 84
2, 552924, Note_on_c, 0, 69, 0
2, 552927, Note_on_c, 0, 47, 0
2, 553028, Note_on_c, 0, 65, 69
2, 553036, Note_on_c, 0, 67, 0
2, 553142, Note_on_c, 0, 65, 0
2, 553152, Note_on_c, 0, 53, 107
2, 553164, Note_on_c, 0, 69, 67
2, 553196, Note_on_c, 0, 50, 0
2, 553300, Note_on_c, 0, 67, 85
2, 553330, Note_on_c, 0, 69, 0
2, 553390, Note_on_c, 0, 53, 0
2, 553418, Note_on_c, 0, 57, 69
2, 553420, Note_on_c, 0, 65, 77
2, 553426, Note_on_c, 0, 67, 0
2, 553550, Note_on_c, 0, 67, 83
2, 553562, Note_on_c, 0, 65, 0
2, 553644, Note_on_c, 0, 57, 0
2, 553666, Note_on_c, 0, 67, 0
2, 553680, Note_on_c, 0, 64, 98
2, 553692, Note_on_c, 0, 55, 72
2, 553698, Note_on_c, 0, 74, 0
2, 553698, Control_c, 0, 64, 127
2, 553760, Note_on_c, 0, 64, 0
2, 553776, Note_on_c, 0, 55, 0
2, 553800, Note_on_c, 0, 77, 101
2, 553852, Control_c, 0, 64, 0
2, 553914, Note_on_c, 0, 59, 72
2, 553924, Note_on_c, 0, 76, 98
2, 553968, Note_on_c, 0, 59, 0
2, 553978, Note_on_c, 0, 77, 0
2, 554044, Note_on_c, 0, 74, 111
2, 554068, Note_on_c, 0, 76, 0
2, 554166, Note_on_c, 0, 74, 0
2, 554170, Note_on_c, 0, 55, 80
2, 554170, Note_on_c, 0, 77, 109
2, 554218, Note_on_c, 0, 55, 0
2, 554296, Note_on_c, 0, 76, 92
2, 554316, Note_on_c, 0, 77, 0
2, 554398, Note_on_c, 0, 52, 72
2, 554402, Note_on_c, 0, 74, 98
2, 554414, Note_on_c, 0, 76, 0
2, 554444, Note_on_c, 0, 52, 0
2, 554488, Note_on_c, 0, 74, 0
2, 554510, Note_on_c, 0, 76, 72
2, 554550, Note_on_c, 0, 76, 0
2, 554576, Control_c, 0, 64, 127
2, 554662, Note_on_c, 0, 72, 97
2, 554680, Note_on_c, 0, 45, 59
2, 554698, Control_c, 0, 64, 0
2, 554786, Note_on_c, 0, 67, 74
2, 554892, Note_on_c, 0, 67, 0
2, 554902, Note_on_c, 0, 65, 68
2, 554918, Note_on_c, 0, 48, 57
2, 554932, Note_on_c, 0, 45, 0
2, 554974, Note_on_c, 0, 65, 0
2, 555014, Note_on_c, 0, 64, 68
2, 555116, Note_on_c, 0, 64, 0
2, 555150, Note_on_c, 0, 67, 74
2, 555160, Note_on_c, 0, 52, 68
2, 555180, Note_on_c, 0, 48, 0
2, 555274, Note_on_c, 0, 65, 62
2, 555334, Note_on_c, 0, 67, 0
2, 555342, Note_on_c, 0, 52, 0
2, 555386, Note_on_c, 0, 65, 0
2, 555386, Note_on_c, 0, 64, 70
2, 555394, Note_on_c, 0, 55, 63
2, 555522, Note_on_c, 0, 65, 63
2, 555524, Note_on_c, 0, 64, 0
2, 555608, Note_on_c, 0, 55, 0
2, 555632, Note_on_c, 0, 65, 0
2, 555656, Note_on_c, 0, 62, 92
2, 555674, Note_on_c, 0, 72, 0
2, 555692, Note_on_c, 0, 53, 57
2, 555696, Control_c, 0, 64, 127
2, 555722, Note_on_c, 0, 62, 0
2, 555768, Note_on_c, 0, 76, 91
2, 555806, Note_on_c, 0, 53, 0
2, 555850, Control_c, 0, 64, 0
2, 555892, Note_on_c, 0, 74, 86
2, 555920, Note_on_c, 0, 76, 0
2, 555922, Note_on_c, 0, 57, 46
2, 555998, Note_on_c, 0, 57, 0
2, 556018, Note_on_c, 0, 72, 88
2, 556024, Note_on_c, 0, 74, 0
2, 556148, Note_on_c, 0, 76, 80
2, 556154, Note_on_c, 0, 72, 0
2, 556168, Note_on_c, 0, 53, 87
2, 556218, Note_on_c, 0, 53, 0
2, 556262, Note_on_c, 0, 74, 77
2, 556300, Note_on_c, 0, 76, 0
2, 556342, Note_on_c, 0, 74, 0
2, 556380, Note_on_c, 0, 50, 59
2, 556382, Note_on_c, 0, 72, 79
2, 556436, Note_on_c, 0, 50, 0
2, 556490, Note_on_c, 0, 72, 0
2, 556504, Note_on_c, 0, 74, 79
2, 556572, Note_on_c, 0, 74, 0
2, 556626, Note_on_c, 0, 71, 83
2, 556629, Note_on_c, 0, 43, 67
2, 556692, Note_on_c, 0, 43, 0
2, 556766, Note_on_c, 0, 55, 59
2, 556830, Note_on_c, 0, 55, 0
2, 556896, Note_on_c, 0, 62, 67
2, 556902, Note_on_c, 0, 53, 78
2, 556960, Note_on_c, 0, 53, 0
2, 557036, Note_on_c, 0, 52, 57
2, 557074, Note_on_c, 0, 62, 0
2, 557100, Note_on_c, 0, 52, 0
2, 557156, Note_on_c, 0, 67, 64
2, 557180, Note_on_c, 0, 53, 86
2, 557182, Note_on_c, 0, 71, 0
2, 557234, Note_on_c, 0, 53, 0
2, 557322, Note_on_c, 0, 52, 57
2, 557380, Note_on_c, 0, 52, 0
2, 557408, Note_on_c, 0, 71, 82
2, 557430, Note_on_c, 0, 50, 61
2, 557502, Note_on_c, 0, 50, 0
2, 557554, Note_on_c, 0, 52, 64
2, 557602, Note_on_c, 0, 52, 0
2, 557648, Note_on_c, 0, 71, 0
2, 557666, Note_on_c, 0, 72, 79
2, 557686, Note_on_c, 0, 67, 0
2, 557686, Note_on_c, 0, 43, 53
2, 557748, Note_on_c, 0, 43, 0
2, 557798, Note_on_c, 0, 53, 85
2, 557852, Note_on_c, 0, 53, 0
2, 557920, Note_on_c, 0, 67, 63
2, 557930, Note_on_c, 0, 52, 70
2, 557940, Note_on_c, 0, 72, 0
2, 557982, Note_on_c, 0, 52, 0
2, 558036, Note_on_c, 0, 50, 68
2, 558076, Note_on_c, 0, 67, 0
2, 558094, Note_on_c, 0, 50, 0
2, 558158, Note_on_c, 0, 72, 97
2, 558162, Note_on_c, 0, 52, 83
2, 558244, Note_on_c, 0, 52, 0
2, 558286, Note_on_c, 0, 50, 72
2, 558362, Note_on_c, 0, 50, 0
2, 558416, Note_on_c, 0, 76, 86
2, 558422, Note_on_c, 0, 48, 49
2, 558494, Note_on_c, 0, 48, 0
2, 558532, Note_on_c, 0, 50, 72
2, 558592, Note_on_c, 0, 50, 0
2, 558670, Note_on_c, 0, 77, 97
2, 558674, Note_on_c, 0, 76, 0
2, 558674, Note_on_c, 0, 43, 72
2, 558742, Note_on_c, 0, 43, 0
2, 558806, Note_on_c, 0, 52, 79
2, 558860, Note_on_c, 0, 52, 0
2, 558916, Note_on_c, 0, 72, 0
2, 558922, Note_on_c, 0, 71, 90
2, 558936, Note_on_c, 0, 50, 72
2, 558996, Note_on_c, 0, 50, 0
2, 559026, Note_on_c, 0, 69, 87
2, 559046, Note_on_c, 0, 48, 63
2, 559060, Note_on_c, 0, 71, 0
2, 559106, Note_on_c, 0, 48, 0
2, 559154, Note_on_c, 0, 71, 102
2, 559174, Note_on_c, 0, 50, 87
2, 559176, Note_on_c, 0, 69, 0
2, 559238, Note_on_c, 0, 50, 0
2, 559290, Note_on_c, 0, 48, 56
2, 559380, Note_on_c, 0, 48, 0
2, 559408, Note_on_c, 0, 74, 113
2, 559416, Note_on_c, 0, 47, 60
2, 559430, Note_on_c, 0, 77, 0
2, 559488, Note_on_c, 0, 47, 0
2, 559530, Note_on_c, 0, 48, 76
2, 559604, Note_on_c, 0, 48, 0
2, 559664, Note_on_c, 0, 76, 103
2, 559670, Note_on_c, 0, 43, 77
2, 559688, Note_on_c, 0, 74, 0
2, 559738, Note_on_c, 0, 43, 0
2, 559766, Note_on_c, 0, 50, 74
2, 559840, Note_on_c, 0, 50, 0
2, 559862, Note_on_c, 0, 71, 0
2, 559894, Note_on_c, 0, 48, 71
2, 559908, Note_on_c, 0, 69, 68
2, 559972, Note_on_c, 0, 48, 0
2, 560002, Note_on_c, 0, 47, 76
2, 560014, Note_on_c, 0, 67, 97
2, 560036, Note_on_c, 0, 69, 0
2, 560066, Note_on_c, 0, 47, 0
2, 560124, Note_on_c, 0, 67, 0
2, 560142, Note_on_c, 0, 48, 77
2, 560145, Note_on_c, 0, 69, 87
2, 560202, Note_on_c, 0, 69, 0
2, 560230, Note_on_c, 0, 48, 0
2, 560270, Note_on_c, 0, 47, 71
2, 560364, Note_on_c, 0, 47, 0
2, 560370, Note_on_c, 0, 78, 100
2, 560376, Note_on_c, 0, 72, 77
2, 560394, Note_on_c, 0, 45, 86
2, 560400, Note_on_c, 0, 76, 0
2, 560452, Note_on_c, 0, 45, 0
2, 560522, Note_on_c, 0, 48, 72
2, 560600, Note_on_c, 0, 48, 0
2, 560634, Note_on_c, 0, 79, 114
2, 560658, Note_on_c, 0, 43, 87
2, 560664, Note_on_c, 0, 78, 0
2, 560748, Note_on_c, 0, 43, 0
2, 560753, Note_on_c, 0, 76, 91
2, 560764, Note_on_c, 0, 48, 75
2, 560796, Note_on_c, 0, 72, 0
2, 560838, Note_on_c, 0, 48, 0
2, 560880, Note_on_c, 0, 47, 83
2, 560884, Note_on_c, 0, 74, 99
2, 560912, Note_on_c, 0, 76, 0
2, 560994, Note_on_c, 0, 47, 0
2, 560994, Note_on_c, 0, 45, 78
2, 561004, Note_on_c, 0, 72, 91
2, 561020, Note_on_c, 0, 74, 0
2, 561070, Note_on_c, 0, 45, 0
2, 561116, Note_on_c, 0, 72, 0
2, 561126, Note_on_c, 0, 74, 84
2, 561134, Note_on_c, 0, 47, 72
2, 561200, Note_on_c, 0, 79, 0
2, 561226, Note_on_c, 0, 47, 0
2, 561236, Note_on_c, 0, 45, 83
2, 561238, Note_on_c, 0, 72, 90
2, 561260, Note_on_c, 0, 74, 0
2, 561320, Note_on_c, 0, 45, 0
2, 561364, Note_on_c, 0, 71, 97
2, 561372, Note_on_c, 0, 72, 0
2, 561372, Note_on_c, 0, 43, 82
2, 561482, Note_on_c, 0, 45, 83
2, 561482, Note_on_c, 0, 69, 78
2, 561512, Note_on_c, 0, 71, 0
2, 561514, Note_on_c, 0, 43, 0
2, 561594, Note_on_c, 0, 67, 94
2, 561602, Note_on_c, 0, 69, 0
2, 561604, Note_on_c, 0, 47, 95
2, 561612, Note_on_c, 0, 45, 0
2, 561706, Note_on_c, 0, 47, 0
2, 561720, Note_on_c, 0, 48, 79
2, 561723, Note_on_c, 0, 69, 76
2, 561728, Note_on_c, 0, 67, 0
2, 561828, Note_on_c, 0, 48, 0
2, 561828, Note_on_c, 0, 50, 92
2, 561834, Note_on_c, 0, 71, 103
2, 561846, Note_on_c, 0, 69, 0
2, 561934, Note_on_c, 0, 71, 0
2, 561936, Note_on_c, 0, 72, 88
2, 561956, Note_on_c, 0, 52, 100
2, 561966, Note_on_c, 0, 50, 0
2, 562010, Note_on_c, 0, 52, 0
2, 562050, Note_on_c, 0, 74, 107
2, 562060, Note_on_c, 0, 53, 114
2, 562092, Note_on_c, 0, 72, 0
2, 562130, Note_on_c, 0, 53, 0
2, 562166, Note_on_c, 0, 76, 102
2, 562170, Note_on_c, 0, 55, 99
2, 562188, Note_on_c, 0, 74, 0
2, 562286, Note_on_c, 0, 77, 106
2, 562294, Note_on_c, 0, 76, 0
2, 562300, Note_on_c, 0, 57, 95
2, 562302, Note_on_c, 0, 55, 0
2, 562402, Note_on_c, 0, 57, 0
2, 562402, Note_on_c, 0, 74, 113
2, 562410, Note_on_c, 0, 59, 94
2, 562430, Note_on_c, 0, 77, 0
2, 562462, Note_on_c, 0, 59, 0
2, 562486, Note_on_c, 0, 74, 0
2, 562530, Note_on_c, 0, 76, 116
2, 562533, Note_on_c, 0, 60, 117
2, 562610, Note_on_c, 0, 76, 0
2, 562656, Control_c, 0, 64, 127
2, 562664, Note_on_c, 0, 60, 0
2, 562702, Control_c, 0, 64, 0
2, 562834, Note_on_c, 0, 60, 117
2, 563128, Note_on_c, 0, 59, 113
2, 563234, Note_on_c, 0, 59, 0
2, 563256, Control_c, 0, 64, 127
2, 563318, Control_c, 0, 64, 0
2, 563382, Note_on_c, 0, 62, 106
2, 563418, Note_on_c, 0, 60, 0
2, 563508, Note_on_c, 0, 64, 107
2, 563524, Note_on_c, 0, 62, 0
2, 563624, Note_on_c, 0, 64, 0
2, 563630, Note_on_c, 0, 65, 110
2, 563640, Note_on_c, 0, 57, 107
2, 563750, Note_on_c, 0, 65, 0
2, 563754, Note_on_c, 0, 67, 111
2, 563872, Note_on_c, 0, 69, 101
2, 563884, Note_on_c, 0, 67, 0
2, 563887, Note_on_c, 0, 65, 90
2, 563956, Note_on_c, 0, 65, 0
2, 563964, Note_on_c, 0, 57, 0
2, 563992, Note_on_c, 0, 71, 109
2, 564030, Note_on_c, 0, 69, 0
2, 564114, Note_on_c, 0, 72, 109
2, 564116, Note_on_c, 0, 64, 100
2, 564118, Note_on_c, 0, 55, 100
2, 564120, Note_on_c, 0, 71, 0
2, 564156, Note_on_c, 0, 64, 0
2, 564172, Note_on_c, 0, 55, 0
2, 564228, Note_on_c, 0, 74, 110
2, 564274, Note_on_c, 0, 72, 0
2, 564346, Note_on_c, 0, 62, 92
2, 564348, Note_on_c, 0, 76, 106
2, 564348, Note_on_c, 0, 53, 124
2, 564374, Note_on_c, 0, 74, 0
2, 564388, Note_on_c, 0, 53, 0
2, 564391, Note_on_c, 0, 62, 0
2, 564464, Note_on_c, 0, 77, 107
2, 564512, Note_on_c, 0, 76, 0
2, 564584, Note_on_c, 0, 52, 106
2, 564584, Note_on_c, 0, 60, 72
2, 564594, Note_on_c, 0, 79, 120
2, 564618, Note_on_c, 0, 52, 0
2, 564638, Note_on_c, 0, 60, 0
2, 564662, Note_on_c, 0, 77, 0
2, 564724, Note_on_c, 0, 79, 0
2, 564744, Note_on_c, 0, 36, 120
2, 564842, Note_on_c, 0, 72, 97
2, 564846, Note_on_c, 0, 76, 93
2, 564846, Note_on_c, 0, 79, 101
2, 564846, Note_on_c, 0, 38, 107
2, 564890, Note_on_c, 0, 72, 0
2, 564892, Note_on_c, 0, 36, 0
2, 564892, Note_on_c, 0, 76, 0
2, 564898, Note_on_c, 0, 79, 0
2, 564964, Note_on_c, 0, 40, 118
2, 565014, Note_on_c, 0, 38, 0
2, 565078, Note_on_c, 0, 79, 114
2, 565078, Note_on_c, 0, 71, 110
2, 565081, Note_on_c, 0, 74, 105
2, 565092, Note_on_c, 0, 41, 120
2, 565110, Note_on_c, 0, 40, 0
2, 565122, Note_on_c, 0, 74, 0
2, 565130, Note_on_c, 0, 71, 0
2, 565136, Note_on_c, 0, 79, 0
2, 565198, Note_on_c, 0, 41, 0
2, 565201, Note_on_c, 0, 43, 100
2, 565298, Note_on_c, 0, 43, 0
2, 565318, Note_on_c, 0, 77, 107
2, 565322, Note_on_c, 0, 67, 103
2, 565322, Note_on_c, 0, 74, 100
2, 565326, Note_on_c, 0, 45, 98
2, 565366, Note_on_c, 0, 74, 0
2, 565366, Note_on_c, 0, 67, 0
2, 565388, Note_on_c, 0, 77, 0
2, 565454, Note_on_c, 0, 47, 100
2, 565466, Note_on_c, 0, 45, 0
2, 565550, Note_on_c, 0, 47, 0
2, 565558, Note_on_c, 0, 76, 110
2, 565561, Note_on_c, 0, 67, 103
2, 565564, Note_on_c, 0, 72, 98
2, 565572, Note_on_c, 0, 48, 98
2, 565678, Note_on_c, 0, 48, 0
2, 565690, Note_on_c, 0, 50, 107
2, 565778, Note_on_c, 0, 67, 0
2, 565812, Note_on_c, 0, 52, 110
2, 565828, Note_on_c, 0, 50, 0
2, 565918, Note_on_c, 0, 53, 117
2, 565920, Note_on_c, 0, 52, 0
2, 565998, Note_on_c, 0, 72, 0
2, 566004, Note_on_c, 0, 53, 0
2, 566022, Note_on_c, 0, 74, 102
2, 566032, Note_on_c, 0, 67, 70
2, 566032, Note_on_c, 0, 55, 82
2, 566035, Note_on_c, 0, 71, 76
2, 566066, Note_on_c, 0, 76, 0
2, 566138, Note_on_c, 0, 55, 0
2, 566144, Note_on_c, 0, 57, 72
2, 566224, Note_on_c, 0, 57, 0
2, 566268, Note_on_c, 0, 59, 76
2, 566314, Note_on_c, 0, 71, 0
2, 566322, Note_on_c, 0, 59, 0
2, 566376, Note_on_c, 0, 74, 0
2, 566379, Note_on_c, 0, 55, 79
2, 566396, Note_on_c, 0, 67, 0
2, 566428, Note_on_c, 0, 55, 0
2, 566512, Note_on_c, 0, 57, 79
2, 566524, Note_on_c, 0, 77, 100
2, 566656, Note_on_c, 0, 72, 64
2, 566750, Note_on_c, 0, 57, 0
2, 566780, Note_on_c, 0, 45, 68
2, 566783, Note_on_c, 0, 71, 77
2, 566794, Note_on_c, 0, 72, 0
2, 566882, Note_on_c, 0, 72, 55
2, 566918, Note_on_c, 0, 45, 0
2, 566921, Note_on_c, 0, 71, 0
2, 566936, Note_on_c, 0, 77, 0
2, 567010, Note_on_c, 0, 77, 75
2, 567022, Note_on_c, 0, 57, 64
2, 567025, Note_on_c, 0, 72, 0
2, 567082, Note_on_c, 0, 57, 0
2, 567120, Note_on_c, 0, 77, 0
2, 567146, Note_on_c, 0, 72, 38
2, 567242, Note_on_c, 0, 72, 0
2, 567278, Note_on_c, 0, 76, 56
2, 567286, Note_on_c, 0, 55, 41
2, 567346, Note_on_c, 0, 76, 0
2, 567358, Note_on_c, 0, 55, 0
2, 567390, Note_on_c, 0, 72, 53
2, 567452, Note_on_c, 0, 72, 0
2, 567512, Note_on_c, 0, 74, 84
2, 567515, Note_on_c, 0, 53, 78
2, 567620, Note_on_c, 0, 72, 68
2, 567712, Note_on_c, 0, 53, 0
2, 567748, Note_on_c, 0, 72, 0
2, 567751, Note_on_c, 0, 71, 71
2, 567755, Note_on_c, 0, 41, 56
2, 567838, Note_on_c, 0, 74, 0
2, 567850, Note_on_c, 0, 72, 67
2, 567856, Note_on_c, 0, 41, 0
2, 567859, Note_on_c, 0, 71, 0
2, 567974, Note_on_c, 0, 72, 0
2, 567984, Note_on_c, 0, 74, 110
2, 567992, Note_on_c, 0, 53, 97
2, 568054, Note_on_c, 0, 53, 0
2, 568100, Note_on_c, 0, 72, 85
2, 568104, Note_on_c, 0, 74, 0
2, 568156, Note_on_c, 0, 72, 0
2, 568236, Note_on_c, 0, 55, 85
2, 568239, Note_on_c, 0, 76, 94
2, 568280, Note_on_c, 0, 55, 0
2, 568354, Note_on_c, 0, 72, 77
2, 568358, Note_on_c, 0, 76, 0
2, 568420, Note_on_c, 0, 72, 0
2, 568480, Note_on_c, 0, 57, 79
2, 568483, Note_on_c, 0, 77, 109
2, 568606, Note_on_c, 0, 72, 75
2, 568700, Note_on_c, 0, 57, 0
2, 568724, Note_on_c, 0, 71, 78
2, 568740, Note_on_c, 0, 72, 0
2, 568740, Note_on_c, 0, 45, 60
2, 568832, Note_on_c, 0, 72, 60
2, 568848, Note_on_c, 0, 77, 0
2, 568882, Note_on_c, 0, 71, 0
2, 568902, Note_on_c, 0, 45, 0
2, 568966, Note_on_c, 0, 72, 0
2, 568968, Note_on_c, 0, 57, 56
2, 568972, Note_on_c, 0, 77, 72
2, 569036, Note_on_c, 0, 57, 0
2, 569084, Note_on_c, 0, 77, 0
2, 569096, Note_on_c, 0, 72, 56
2, 569152, Note_on_c, 0, 72, 0
2, 569214, Note_on_c, 0, 76, 54
2, 569222, Note_on_c, 0, 55, 68
2, 569274, Note_on_c, 0, 55, 0
2, 569290, Note_on_c, 0, 76, 0
2, 569322, Note_on_c, 0, 72, 60
2, 569392, Note_on_c, 0, 72, 0
2, 569458, Note_on_c, 0, 74, 78
2, 569480, Note_on_c, 0, 53, 72
2, 569578, Note_on_c, 0, 72, 70
2, 569644, Note_on_c, 0, 53, 0
2, 569700, Note_on_c, 0, 71, 75
2, 569712, Note_on_c, 0, 74, 0
2, 569714, Note_on_c, 0, 72, 0
2, 569718, Note_on_c, 0, 41, 52
2, 569794, Note_on_c, 0, 71, 0
2, 569806, Note_on_c, 0, 72, 64
2, 569844, Note_on_c, 0, 41, 0
2, 569894, Note_on_c, 0, 72, 0
2, 569934, Note_on_c, 0, 74, 105
2, 569952, Note_on_c, 0, 53, 83
2, 570006, Note_on_c, 0, 53, 0
2, 570016, Note_on_c, 0, 74, 0
2, 570044, Note_on_c, 0, 72, 86
2, 570112, Note_on_c, 0, 72, 0
2, 570178, Note_on_c, 0, 55, 80
2, 570182, Note_on_c, 0, 76, 92
2, 570228, Note_on_c, 0, 55, 0
2, 570302, Note_on_c, 0, 76, 0
2, 570304, Note_on_c, 0, 72, 84
2, 570376, Note_on_c, 0, 72, 0
2, 570414, Note_on_c, 0, 77, 107
2, 570417, Note_on_c, 0, 57, 76
2, 570494, Note_on_c, 0, 57, 0
2, 570526, Note_on_c, 0, 72, 79
2, 570554, Note_on_c, 0, 77, 0
2, 570584, Note_on_c, 0, 72, 0
2, 570672, Note_on_c, 0, 76, 76
2, 570672, Note_on_c, 0, 55, 79
2, 570720, Note_on_c, 0, 55, 0
2, 570776, Note_on_c, 0, 72, 77
2, 570790, Note_on_c, 0, 76, 0
2, 570854, Note_on_c, 0, 72, 0
2, 570908, Note_on_c, 0, 74, 94
2, 570914, Note_on_c, 0, 53, 101
2, 570970, Note_on_c, 0, 53, 0
2, 571022, Note_on_c, 0, 72, 77
2, 571138, Note_on_c, 0, 74, 0
2, 571138, Note_on_c, 0, 71, 97
2, 571162, Note_on_c, 0, 50, 83
2, 571170, Note_on_c, 0, 72, 0
2, 571212, Note_on_c, 0, 50, 0
2, 571268, Note_on_c, 0, 69, 72
2, 571276, Note_on_c, 0, 71, 0
2, 571380, Note_on_c, 0, 47, 99
2, 571398, Note_on_c, 0, 67, 105
2, 571422, Note_on_c, 0, 69, 0
2, 571425, Note_on_c, 0, 47, 0
2, 571512, Note_on_c, 0, 67, 0
2, 571515, Note_on_c, 0, 74, 98
2, 571606, Note_on_c, 0, 74, 0
2, 571622, Note_on_c, 0, 43, 92
2, 571630, Note_on_c, 0, 65, 95
2, 571664, Note_on_c, 0, 43, 0
2, 571748, Note_on_c, 0, 74, 72
2, 571752, Note_on_c, 0, 65, 0
2, 571862, Note_on_c, 0, 48, 102
2, 571866, Note_on_c, 0, 74, 0
2, 571872, Note_on_c, 0, 64, 105
2, 571968, Note_on_c, 0, 50, 99
2, 571984, Note_on_c, 0, 48, 0
2, 571987, Note_on_c, 0, 74, 82
2, 572082, Note_on_c, 0, 52, 106
2, 572094, Note_on_c, 0, 72, 99
2, 572104, Note_on_c, 0, 50, 0
2, 572140, Note_on_c, 0, 74, 0
2, 572186, Note_on_c, 0, 52, 0
2, 572194, Note_on_c, 0, 53, 123
2, 572210, Note_on_c, 0, 71, 114
2, 572228, Note_on_c, 0, 72, 0
2, 572300, Note_on_c, 0, 64, 0
2, 572300, Note_on_c, 0, 53, 0
2, 572326, Note_on_c, 0, 55, 116
2, 572340, Note_on_c, 0, 72, 113
2, 572410, Note_on_c, 0, 71, 0
2, 572420, Note_on_c, 0, 72, 0
2, 572420, Note_on_c, 0, 55, 0
2, 572462, Note_on_c, 0, 53, 121
2, 572542, Note_on_c, 0, 53, 0
2, 572562, Note_on_c, 0, 79, 124
2, 572564, Note_on_c, 0, 72, 110
2, 572570, Note_on_c, 0, 52, 107
2, 572572, Note_on_c, 0, 67, 93
2, 572598, Note_on_c, 0, 72, 0
2, 572598, Note_on_c, 0, 79, 0
2, 572616, Note_on_c, 0, 67, 0
2, 572674, Note_on_c, 0, 52, 0
2, 572692, Note_on_c, 0, 53, 113
2, 572734, Note_on_c, 0, 53, 0
2, 572804, Note_on_c, 0, 72, 115
2, 572806, Note_on_c, 0, 76, 114
2, 572808, Note_on_c, 0, 67, 114
2, 572818, Note_on_c, 0, 55, 106
2, 572868, Note_on_c, 0, 55, 0
2, 572930, Note_on_c, 0, 67, 0
2, 572938, Note_on_c, 0, 72, 0
2, 573046, Note_on_c, 0, 74, 102
2, 573058, Note_on_c, 0, 43, 101
2, 573061, Note_on_c, 0, 65, 76
2, 573072, Note_on_c, 0, 71, 74
2, 573094, Note_on_c, 0, 43, 0
2, 573097, Note_on_c, 0, 76, 0
2, 573126, Note_on_c, 0, 71, 0
2, 573152, Note_on_c, 0, 72, 91
2, 573184, Note_on_c, 0, 74, 0
2, 573187, Note_on_c, 0, 65, 0
2, 573194, Note_on_c, 0, 72, 0
2, 573316, Note_on_c, 0, 72, 107
2, 573318, Note_on_c, 0, 64, 107
2, 573318, Note_on_c, 0, 67, 100
2, 573322, Note_on_c, 0, 36, 105
2, 573444, Note_on_c, 0, 48, 80
2, 573447, Note_on_c, 0, 36, 0
2, 573536, Control_c, 0, 64, 127
2, 573556, Note_on_c, 0, 48, 0
2, 573564, Note_on_c, 0, 50, 101
2, 573682, Note_on_c, 0, 52, 109
2, 573698, Note_on_c, 0, 50, 0
2, 573720, Control_c, 0, 64, 0
2, 573786, Note_on_c, 0, 67, 0
2, 573790, Note_on_c, 0, 53, 121
2, 573792, Note_on_c, 0, 52, 0
2, 573828, Note_on_c, 0, 64, 0
2, 573874, Note_on_c, 0, 53, 0
2, 573886, Note_on_c, 0, 55, 97
2, 573900, Note_on_c, 0, 72, 0
2, 573924, Note_on_c, 0, 64, 9
2, 573974, Note_on_c, 0, 55, 0
2, 574010, Note_on_c, 0, 64, 0
2, 574016, Note_on_c, 0, 57, 74
2, 574096, Note_on_c, 0, 57, 0
2, 574130, Note_on_c, 0, 59, 80
2, 574184, Note_on_c, 0, 59, 0
2, 574258, Note_on_c, 0, 67, 105
2, 574266, Note_on_c, 0, 60, 84
2, 574348, Note_on_c, 0, 60, 0
2, 574386, Note_on_c, 0, 64, 78
2, 574502, Note_on_c, 0, 60, 72
2, 574505, Note_on_c, 0, 64, 0
2, 574508, Note_on_c, 0, 55, 72
2, 574544, Note_on_c, 0, 67, 0
2, 574556, Note_on_c, 0, 55, 0
2, 574604, Note_on_c, 0, 60, 0
2, 574620, Note_on_c, 0, 64, 59
2, 574718, Note_on_c, 0, 64, 0
2, 574730, Note_on_c, 0, 52, 86
2, 574736, Note_on_c, 0, 67, 72
2, 574774, Note_on_c, 0, 52, 0
2, 574790, Note_on_c, 0, 67, 0
2, 574826, Note_on_c, 0, 64, 64
2, 574894, Note_on_c, 0, 64, 0
2, 574972, Note_on_c, 0, 48, 77
2, 574978, Note_on_c, 0, 70, 63
2, 575022, Note_on_c, 0, 48, 0
2, 575092, Note_on_c, 0, 64, 68
2, 575122, Note_on_c, 0, 70, 0
2, 575156, Note_on_c, 0, 64, 0
2, 575224, Note_on_c, 0, 60, 78
2, 575228, Note_on_c, 0, 69, 62
2, 575304, Note_on_c, 0, 60, 0
2, 575350, Note_on_c, 0, 65, 52
2, 575468, Note_on_c, 0, 65, 0
2, 575471, Note_on_c, 0, 60, 48
2, 575484, Note_on_c, 0, 57, 59
2, 575540, Note_on_c, 0, 57, 0
2, 575556, Note_on_c, 0, 60, 0
2, 575566, Note_on_c, 0, 65, 46
2, 575596, Note_on_c, 0, 69, 0
2, 575688, Note_on_c, 0, 65, 0
2, 575702, Note_on_c, 0, 69, 49
2, 575702, Note_on_c, 0, 53, 97
2, 575750, Note_on_c, 0, 53, 0
2, 575790, Note_on_c, 0, 69, 0
2, 575832, Note_on_c, 0, 65, 57
2, 575898, Note_on_c, 0, 65, 0
2, 575942, Note_on_c, 0, 48, 68
2, 575945, Note_on_c, 0, 72, 67
2, 575992, Note_on_c, 0, 48, 0
2, 576024, Note_on_c, 0, 72, 0
2, 576064, Note_on_c, 0, 65, 61
2, 576122, Note_on_c, 0, 65, 0
2, 576174, Note_on_c, 0, 60, 71
2, 576176, Note_on_c, 0, 67, 79
2, 576238, Note_on_c, 0, 60, 0
2, 576296, Note_on_c, 0, 64, 67
2, 576354, Note_on_c, 0, 67, 0
2, 576370, Note_on_c, 0, 64, 0
2, 576394, Note_on_c, 0, 60, 70
2, 576432, Note_on_c, 0, 55, 71
2, 576480, Note_on_c, 0, 55, 0
2, 576492, Note_on_c, 0, 60, 0
2, 576532, Note_on_c, 0, 64, 68
2, 576614, Note_on_c, 0, 64, 0
2, 576648, Note_on_c, 0, 67, 75
2, 576650, Note_on_c, 0, 52, 79
2, 576696, Note_on_c, 0, 52, 0
2, 576702, Note_on_c, 0, 67, 0
2, 576752, Note_on_c, 0, 64, 78
2, 576842, Note_on_c, 0, 64, 0
2, 576874, Note_on_c, 0, 48, 83
2, 576890, Note_on_c, 0, 70, 77
2, 576916, Note_on_c, 0, 48, 0
2, 577000, Note_on_c, 0, 64, 72
2, 577026, Note_on_c, 0, 70, 0
2, 577080, Note_on_c, 0, 64, 0
2, 577120, Note_on_c, 0, 53, 117
2, 577124, Note_on_c, 0, 69, 74
2, 577212, Note_on_c, 0, 53, 0
2, 577234, Note_on_c, 0, 65, 65
2, 577238, Note_on_c, 0, 48, 90
2, 577300, Note_on_c, 0, 69, 0
2, 577332, Note_on_c, 0, 60, 78
2, 577342, Note_on_c, 0, 45, 95
2, 577346, Control_c, 0, 64, 127
2, 577362, Note_on_c, 0, 65, 0
2, 577364, Note_on_c, 0, 48, 0
2, 577432, Note_on_c, 0, 60, 0
2, 577456, Note_on_c, 0, 65, 65
2, 577466, Note_on_c, 0, 48, 72
2, 577478, Note_on_c, 0, 45, 0
2, 577516, Control_c, 0, 64, 0
2, 577544, Note_on_c, 0, 48, 0
2, 577580, Note_on_c, 0, 65, 0
2, 577580, Note_on_c, 0, 69, 86
2, 577596, Note_on_c, 0, 41, 83
2, 577640, Note_on_c, 0, 41, 0
2, 577692, Note_on_c, 0, 65, 49
2, 577708, Note_on_c, 0, 69, 0
2, 577814, Note_on_c, 0, 65, 0
2, 577828, Note_on_c, 0, 70, 70
2, 577940, Note_on_c, 0, 70, 0
2, 577954, Note_on_c, 0, 65, 46
2, 578030, Note_on_c, 0, 65, 0
2, 578086, Note_on_c, 0, 72, 67
2, 578088, Note_on_c, 0, 53, 74
2, 578156, Note_on_c, 0, 53, 0
2, 578190, Note_on_c, 0, 69, 45
2, 578274, Note_on_c, 0, 72, 0
2, 578290, Note_on_c, 0, 69, 0
2, 578306, Note_on_c, 0, 65, 59
2, 578309, Note_on_c, 0, 48, 67
2, 578362, Note_on_c, 0, 48, 0
2, 578414, Note_on_c, 0, 65, 0
2, 578448, Note_on_c, 0, 69, 60
2, 578526, Note_on_c, 0, 69, 0
2, 578538, Note_on_c, 0, 45, 70
2, 578562, Note_on_c, 0, 72, 76
2, 578590, Note_on_c, 0, 45, 0
2, 578622, Note_on_c, 0, 72, 0
2, 578662, Note_on_c, 0, 69, 74
2, 578726, Note_on_c, 0, 69, 0
2, 578778, Note_on_c, 0, 41, 94
2, 578798, Note_on_c, 0, 75, 80
2, 578826, Note_on_c, 0, 41, 0
2, 578902, Note_on_c, 0, 69, 65
2, 578930, Note_on_c, 0, 75, 0
2, 578966, Note_on_c, 0, 69, 0
2, 579026, Note_on_c, 0, 74, 92
2, 579028, Note_on_c, 0, 53, 120
2, 579120, Note_on_c, 0, 53, 0
2, 579134, Note_on_c, 0, 70, 67
2, 579228, Note_on_c, 0, 74, 0
2, 579250, Note_on_c, 0, 70, 0
2, 579250, Note_on_c, 0, 65, 70
2, 579268, Note_on_c, 0, 50, 92
2, 579320, Note_on_c, 0, 50, 0
2, 579368, Note_on_c, 0, 65, 0
2, 579392, Note_on_c, 0, 70, 67
2, 579476, Note_on_c, 0, 70, 0
2, 579498, Note_on_c, 0, 46, 83
2, 579506, Note_on_c, 0, 74, 97
2, 579546, Note_on_c, 0, 46, 0
2, 579606, Note_on_c, 0, 70, 82
2, 579622, Note_on_c, 0, 74, 0
2, 579740, Note_on_c, 0, 70, 0
2, 579742, Note_on_c, 0, 77, 101
2, 579744, Note_on_c, 0, 41, 95
2, 579782, Note_on_c, 0, 41, 0
2, 579848, Note_on_c, 0, 70, 68
2, 579854, Note_on_c, 0, 77, 0
2, 579950, Note_on_c, 0, 70, 0
2, 579984, Note_on_c, 0, 72, 98
2, 579990, Note_on_c, 0, 53, 110
2, 580048, Note_on_c, 0, 53, 0
2, 580098, Note_on_c, 0, 69, 77
2, 580156, Note_on_c, 0, 72, 0
2, 580210, Note_on_c, 0, 65, 72
2, 580230, Note_on_c, 0, 69, 0
2, 580232, Note_on_c, 0, 48, 78
2, 580286, Note_on_c, 0, 48, 0
2, 580334, Note_on_c, 0, 65, 0
2, 580336, Note_on_c, 0, 69, 55
2, 580452, Note_on_c, 0, 45, 90
2, 580458, Note_on_c, 0, 69, 0
2, 580458, Note_on_c, 0, 72, 92
2, 580514, Note_on_c, 0, 45, 0
2, 580522, Note_on_c, 0, 72, 0
2, 580580, Note_on_c, 0, 69, 60
2, 580676, Note_on_c, 0, 69, 0
2, 580694, Note_on_c, 0, 41, 88
2, 580702, Note_on_c, 0, 75, 88
2, 580734, Note_on_c, 0, 41, 0
2, 580796, Note_on_c, 0, 69, 48
2, 580830, Note_on_c, 0, 75, 0
2, 580872, Note_on_c, 0, 69, 0
2, 580930, Note_on_c, 0, 46, 95
2, 580932, Note_on_c, 0, 74, 97
2, 581038, Note_on_c, 0, 46, 0
2, 581040, Note_on_c, 0, 70, 76
2, 581042, Note_on_c, 0, 41, 82
2, 581128, Note_on_c, 0, 38, 95
2, 581134, Note_on_c, 0, 65, 77
2, 581150, Note_on_c, 0, 41, 0
2, 581162, Note_on_c, 0, 70, 0
2, 581206, Note_on_c, 0, 74, 0
2, 581238, Note_on_c, 0, 41, 87
2, 581250, Note_on_c, 0, 70, 61
2, 581278, Note_on_c, 0, 38, 0
2, 581284, Note_on_c, 0, 65, 0
2, 581326, Note_on_c, 0, 41, 0
2, 581372, Note_on_c, 0, 34, 115
2, 581376, Note_on_c, 0, 70, 0
2, 581376, Note_on_c, 0, 74, 95
2, 581446, Note_on_c, 0, 34, 0
2, 581472, Note_on_c, 0, 70, 64
2, 581492, Note_on_c, 0, 74, 0
2, 581612, Note_on_c, 0, 77, 98
2, 581626, Note_on_c, 0, 70, 0
2, 581706, Note_on_c, 0, 70, 60
2, 581744, Note_on_c, 0, 77, 0
2, 581826, Note_on_c, 0, 70, 0
2, 581854, Note_on_c, 0, 52, 127
2, 581856, Note_on_c, 0, 79, 118
2, 581976, Note_on_c, 0, 73, 69
2, 582064, Note_on_c, 0, 79, 0
2, 582080, Note_on_c, 0, 52, 0
2, 582088, Note_on_c, 0, 70, 78
2, 582104, Note_on_c, 0, 55, 103
2, 582110, Note_on_c, 0, 73, 0
2, 582192, Note_on_c, 0, 73, 67
2, 582202, Note_on_c, 0, 53, 127
2, 582222, Note_on_c, 0, 55, 0
2, 582232, Note_on_c, 0, 70, 0
2, 582306, Note_on_c, 0, 53, 0
2, 582322, Note_on_c, 0, 79, 106
2, 582324, Note_on_c, 0, 73, 0
2, 582328, Note_on_c, 0, 52, 125
2, 582396, Note_on_c, 0, 52, 0
2, 582438, Note_on_c, 0, 73, 68
2, 582444, Note_on_c, 0, 79, 0
2, 582566, Note_on_c, 0, 50, 120
2, 582568, Note_on_c, 0, 79, 100
2, 582570, Note_on_c, 0, 73, 0
2, 582664, Note_on_c, 0, 50, 0
2, 582690, Note_on_c, 0, 79, 0
2, 582690, Note_on_c, 0, 74, 100
2, 582820, Note_on_c, 0, 49, 105
2, 582830, Note_on_c, 0, 74, 0
2, 582830, Note_on_c, 0, 79, 117
2, 582922, Note_on_c, 0, 49, 0
2, 582928, Note_on_c, 0, 50, 103
2, 582938, Note_on_c, 0, 76, 87
2, 583004, Note_on_c, 0, 79, 0
2, 583046, Note_on_c, 0, 49, 91
2, 583049, Note_on_c, 0, 76, 0
2, 583058, Note_on_c, 0, 50, 0
2, 583060, Note_on_c, 0, 69, 69
2, 583150, Note_on_c, 0, 47, 91
2, 583174, Note_on_c, 0, 49, 0
2, 583176, Note_on_c, 0, 76, 72
2, 583180, Note_on_c, 0, 69, 0
2, 583232, Note_on_c, 0, 47, 0
2, 583278, Note_on_c, 0, 45, 86
2, 583288, Note_on_c, 0, 79, 94
2, 583314, Note_on_c, 0, 76, 0
2, 583386, Note_on_c, 0, 47, 83
2, 583389, Note_on_c, 0, 79, 0
2, 583389, Note_on_c, 0, 76, 69
2, 583402, Note_on_c, 0, 45, 0
2, 583490, Note_on_c, 0, 49, 93
2, 583504, Note_on_c, 0, 47, 0
2, 583520, Note_on_c, 0, 79, 98
2, 583535, Note_on_c, 0, 76, 0
2, 583594, Note_on_c, 0, 49, 0
2, 583606, Note_on_c, 0, 50, 105
2, 583618, Note_on_c, 0, 74, 91
2, 583622, Note_on_c, 0, 79, 0
2, 583690, Note_on_c, 0, 50, 0
2, 583732, Note_on_c, 0, 52, 123
2, 583742, Note_on_c, 0, 79, 105
2, 583756, Note_on_c, 0, 74, 0
2, 583840, Note_on_c, 0, 73, 76
2, 583874, Note_on_c, 0, 79, 0
2, 583970, Note_on_c, 0, 70, 80
2, 583970, Note_on_c, 0, 55, 103
2, 583972, Note_on_c, 0, 73, 0
2, 583978, Note_on_c, 0, 52, 0
2, 584088, Note_on_c, 0, 73, 60
2, 584088, Note_on_c, 0, 53, 127
2, 584102, Note_on_c, 0, 55, 0
2, 584112, Note_on_c, 0, 70, 0
2, 584200, Note_on_c, 0, 79, 105
2, 584204, Note_on_c, 0, 73, 0
2, 584208, Note_on_c, 0, 52, 125
2, 584214, Note_on_c, 0, 53, 0
2, 584284, Note_on_c, 0, 52, 0
2, 584310, Note_on_c, 0, 73, 67
2, 584320, Note_on_c, 0, 79, 0
2, 584448, Note_on_c, 0, 50, 116
2, 584452, Note_on_c, 0, 79, 100
2, 584460, Note_on_c, 0, 73, 0
2, 584558, Note_on_c, 0, 50, 0
2, 584564, Note_on_c, 0, 74, 101
2, 584584, Note_on_c, 0, 79, 0
2, 584684, Note_on_c, 0, 74, 0
2, 584694, Note_on_c, 0, 79, 102
2, 584702, Note_on_c, 0, 49, 105
2, 584802, Note_on_c, 0, 50, 97
2, 584805, Note_on_c, 0, 76, 92
2, 584808, Note_on_c, 0, 49, 0
2, 584884, Note_on_c, 0, 79, 0
2, 584922, Note_on_c, 0, 69, 78
2, 584922, Note_on_c, 0, 49, 91
2, 584928, Note_on_c, 0, 76, 0
2, 584938, Note_on_c, 0, 50, 0
2, 585032, Note_on_c, 0, 47, 95
2, 585038, Note_on_c, 0, 76, 72
2, 585054, Note_on_c, 0, 49, 0
2, 585062, Note_on_c, 0, 69, 0
2, 585120, Note_on_c, 0, 47, 0
2, 585150, Note_on_c, 0, 79, 106
2, 585156, Note_on_c, 0, 45, 98
2, 585158, Note_on_c, 0, 76, 0
2, 585266, Note_on_c, 0, 76, 69
2, 585266, Note_on_c, 0, 47, 95
2, 585296, Note_on_c, 0, 79, 0
2, 585298, Note_on_c, 0, 45, 0
2, 585372, Note_on_c, 0, 49, 91
2, 585374, Note_on_c, 0, 79, 88
2, 585384, Note_on_c, 0, 47, 0
2, 585404, Note_on_c, 0, 76, 0
2, 585480, Note_on_c, 0, 74, 98
2, 585482, Note_on_c, 0, 50, 102
2, 585488, Note_on_c, 0, 49, 0
2, 585488, Note_on_c, 0, 79, 0
2, 585580, Note_on_c, 0, 50, 0
2, 585600, Note_on_c, 0, 52, 125
2, 585606, Note_on_c, 0, 74, 0
2, 585606, Note_on_c, 0, 79, 97
2, 585712, Note_on_c, 0, 73, 84
2, 585718, Note_on_c, 0, 53, 127
2, 585742, Note_on_c, 0, 79, 0
2, 585766, Note_on_c, 0, 52, 0
2, 585816, Note_on_c, 0, 70, 88
2, 585834, Note_on_c, 0, 73, 0
2, 585834, Note_on_c, 0, 55, 116
2, 585854, Note_on_c, 0, 53, 0
2, 585924, Note_on_c, 0, 73, 64
2, 585950, Note_on_c, 0, 70, 0
2, 585954, Note_on_c, 0, 57, 108
2, 585958, Note_on_c, 0, 55, 0
2, 586048, Note_on_c, 0, 79, 103
2, 586062, Note_on_c, 0, 73, 0
2, 586066, Note_on_c, 0, 58, 110
2, 586106, Note_on_c, 0, 57, 0
2, 586144, Note_on_c, 0, 58, 0
2, 586156, Note_on_c, 0, 73, 65
2, 586174, Note_on_c, 0, 79, 0
2, 586296, Note_on_c, 0, 79, 84
2, 586306, Note_on_c, 0, 73, 0
2, 586314, Note_on_c, 0, 50, 124
2, 586376, Note_on_c, 0, 50, 0
2, 586406, Note_on_c, 0, 74, 99
2, 586418, Note_on_c, 0, 79, 0
2, 586540, Note_on_c, 0, 74, 0
2, 586550, Note_on_c, 0, 79, 109
2, 586556, Note_on_c, 0, 49, 118
2, 586660, Note_on_c, 0, 77, 105
2, 586680, Note_on_c, 0, 45, 107
2, 586684, Note_on_c, 0, 49, 0
2, 586690, Note_on_c, 0, 79, 0
2, 586758, Note_on_c, 0, 79, 100
2, 586794, Note_on_c, 0, 77, 0
2, 586796, Note_on_c, 0, 47, 109
2, 586872, Note_on_c, 0, 45, 0
2, 586884, Note_on_c, 0, 76, 99
2, 586898, Note_on_c, 0, 49, 100
2, 586910, Note_on_c, 0, 79, 0
2, 586950, Note_on_c, 0, 47, 0
2, 586996, Note_on_c, 0, 76, 0
2, 587002, Note_on_c, 0, 77, 114
2, 587006, Note_on_c, 0, 50, 107
2, 587048, Note_on_c, 0, 49, 0
2, 587112, Note_on_c, 0, 50, 0
2, 587112, Note_on_c, 0, 52, 116
2, 587124, Note_on_c, 0, 76, 109
2, 587170, Note_on_c, 0, 77, 0
2, 587190, Note_on_c, 0, 52, 0
2, 587222, Note_on_c, 0, 53, 121
2, 587234, Note_on_c, 0, 74, 117
2, 587244, Note_on_c, 0, 76, 0
2, 587320, Note_on_c, 0, 74, 0
2, 587340, Note_on_c, 0, 55, 110
2, 587342, Note_on_c, 0, 53, 0
2, 587352, Note_on_c, 0, 76, 101
2, 587448, Note_on_c, 0, 55, 0
2, 587454, Note_on_c, 0, 57, 106
2, 587458, Note_on_c, 0, 76, 0
2, 587464, Note_on_c, 0, 77, 120
2, 587552, Note_on_c, 0, 57, 0
2, 587576, Note_on_c, 0, 79, 126
2, 587579, Note_on_c, 0, 55, 114
2, 587632, Note_on_c, 0, 77, 0
2, 587672, Note_on_c, 0, 53, 127
2, 587684, Note_on_c, 0, 55, 0
2, 587704, Note_on_c, 0, 81, 123
2, 587760, Note_on_c, 0, 79, 0
2, 587794, Note_on_c, 0, 53, 0
2, 587794, Note_on_c, 0, 55, 109
2, 587812, Note_on_c, 0, 81, 0
2, 587890, Note_on_c, 0, 55, 0
2, 587948, Note_on_c, 0, 69, 116
2, 587954, Note_on_c, 0, 57, 114
2, 588058, Note_on_c, 0, 57, 0
2, 588060, Note_on_c, 0, 69, 0
2, 588214, Note_on_c, 0, 73, 114
2, 588220, Note_on_c, 0, 45, 110
2, 588266, Note_on_c, 0, 45, 0
2, 588342, Note_on_c, 0, 73, 0
2, 588494, Note_on_c, 0, 74, 126
2, 588497, Note_on_c, 0, 38, 123
2, 588580, Note_on_c, 0, 74, 0
2, 588624, Note_on_c, 0, 38, 0
2, 588624, Note_on_c, 0, 50, 108
2, 588634, Note_on_c, 0, 74, 121
2, 588670, Control_c, 0, 64, 127
2, 588732, Note_on_c, 0, 50, 0
2, 588744, Note_on_c, 0, 72, 107
2, 588752, Note_on_c, 0, 52, 116
2, 588762, Note_on_c, 0, 74, 0
2, 588856, Note_on_c, 0, 70, 97
2, 588870, Note_on_c, 0, 53, 126
2, 588870, Control_c, 0, 64, 0
2, 588890, Note_on_c, 0, 72, 0
2, 588902, Note_on_c, 0, 52, 0
2, 588968, Note_on_c, 0, 69, 99
2, 588972, Note_on_c, 0, 55, 114
2, 588998, Note_on_c, 0, 53, 0
2, 589010, Note_on_c, 0, 70, 0
2, 589076, Note_on_c, 0, 55, 0
2, 589084, Note_on_c, 0, 57, 109
2, 589086, Note_on_c, 0, 67, 108
2, 589102, Note_on_c, 0, 69, 0
2, 589198, Note_on_c, 0, 57, 0
2, 589201, Note_on_c, 0, 65, 107
2, 589210, Note_on_c, 0, 67, 0
2, 589216, Note_on_c, 0, 59, 108
2, 589324, Note_on_c, 0, 64, 116
2, 589330, Note_on_c, 0, 61, 114
2, 589348, Note_on_c, 0, 65, 0
2, 589360, Note_on_c, 0, 59, 0
2, 589422, Note_on_c, 0, 61, 0
2, 589425, Note_on_c, 0, 64, 0
2, 589454, Note_on_c, 0, 62, 127
2, 589520, Note_on_c, 0, 62, 0
2, 589600, Note_on_c, 0, 64, 103
2, 589754, Note_on_c, 0, 64, 0
2, 589768, Note_on_c, 0, 65, 97
2, 589774, Note_on_c, 0, 38, 127
2, 589906, Note_on_c, 0, 67, 106
2, 589932, Note_on_c, 0, 65, 0
2, 590036, Note_on_c, 0, 69, 105
2, 590063, Note_on_c, 0, 67, 0
2, 590162, Note_on_c, 0, 71, 115
2, 590182, Note_on_c, 0, 69, 0
2, 590254, Note_on_c, 0, 40, 121
2, 590276, Note_on_c, 0, 73, 101
2, 590302, Note_on_c, 0, 38, 0
2, 590314, Note_on_c, 0, 71, 0
2, 590372, Note_on_c, 0, 41, 116
2, 590398, Note_on_c, 0, 74, 110
2, 590406, Note_on_c, 0, 73, 0
2, 590422, Note_on_c, 0, 40, 0
2, 590492, Note_on_c, 0, 43, 109
2, 590504, Note_on_c, 0, 76, 109
2, 590528, Note_on_c, 0, 74, 0
2, 590530, Note_on_c, 0, 41, 0
2, 590608, Note_on_c, 0, 43, 0
2, 590608, Note_on_c, 0, 45, 107
2, 590624, Note_on_c, 0, 77, 109
2, 590652, Note_on_c, 0, 76, 0
2, 590726, Note_on_c, 0, 47, 107
2, 590729, Note_on_c, 0, 79, 114
2, 590744, Note_on_c, 0, 45, 0
2, 590762, Note_on_c, 0, 77, 0
2, 590834, Note_on_c, 0, 49, 105
2, 590836, Note_on_c, 0, 76, 105
2, 590860, Note_on_c, 0, 79, 0
2, 590872, Note_on_c, 0, 47, 0
2, 590942, Note_on_c, 0, 76, 0
2, 590948, Note_on_c, 0, 50, 110
2, 590958, Note_on_c, 0, 77, 110
2, 590972, Note_on_c, 0, 49, 0
2, 591048, Note_on_c, 0, 50, 0
2, 591054, Note_on_c, 0, 52, 116
2, 591082, Note_on_c, 0, 76, 101
2, 591108, Note_on_c, 0, 77, 0
2, 591184, Note_on_c, 0, 53, 127
2, 591188, Note_on_c, 0, 74, 105
2, 591212, Note_on_c, 0, 76, 0
2, 591246, Note_on_c, 0, 52, 0
2, 591296, Note_on_c, 0, 55, 113
2, 591298, Note_on_c, 0, 76, 79
2, 591310, Note_on_c, 0, 74, 0
2, 591340, Note_on_c, 0, 53, 0
2, 591422, Note_on_c, 0, 57, 120
2, 591434, Note_on_c, 0, 77, 109
2, 591437, Note_on_c, 0, 55, 0
2, 591460, Note_on_c, 0, 76, 0
2, 591514, Note_on_c, 0, 57, 0
2, 591544, Note_on_c, 0, 74, 103
2, 591604, Note_on_c, 0, 77, 0
2, 591670, Note_on_c, 0, 73, 92
2, 591676, Note_on_c, 0, 57, 108
2, 591680, Note_on_c, 0, 74, 0
2, 591780, Note_on_c, 0, 57, 0
2, 591804, Note_on_c, 0, 71, 95
2, 591822, Note_on_c, 0, 73, 0
2, 591914, Note_on_c, 0, 57, 116
2, 591926, Note_on_c, 0, 73, 80
2, 591940, Note_on_c, 0, 71, 0
2, 591998, Note_on_c, 0, 57, 0
2, 592054, Note_on_c, 0, 74, 94
2, 592082, Note_on_c, 0, 73, 0
2, 592150, Note_on_c, 0, 55, 105
2, 592172, Note_on_c, 0, 76, 88
2, 592192, Note_on_c, 0, 55, 0
2, 592200, Note_on_c, 0, 74, 0
2, 592266, Note_on_c, 0, 73, 86
2, 592284, Note_on_c, 0, 53, 127
2, 592287, Note_on_c, 0, 76, 0
2, 592334, Note_on_c, 0, 53, 0
2, 592370, Note_on_c, 0, 55, 102
2, 592406, Note_on_c, 0, 74, 101
2, 592410, Note_on_c, 0, 73, 0
2, 592432, Note_on_c, 0, 53, 123
2, 592476, Note_on_c, 0, 55, 0
2, 592532, Note_on_c, 0, 69, 75
2, 592646, Note_on_c, 0, 67, 88
2, 592668, Note_on_c, 0, 69, 0
2, 592720, Note_on_c, 0, 74, 0
2, 592778, Note_on_c, 0, 65, 97
2, 592802, Note_on_c, 0, 67, 0
2, 592910, Note_on_c, 0, 67, 88
2, 592913, Note_on_c, 0, 65, 0
2, 592942, Note_on_c, 0, 52, 92
2, 592956, Note_on_c, 0, 53, 0
2, 593024, Note_on_c, 0, 69, 79
2, 593046, Note_on_c, 0, 67, 0
2, 593144, Note_on_c, 0, 70, 83
2, 593160, Note_on_c, 0, 69, 0
2, 593262, Note_on_c, 0, 69, 76
2, 593320, Note_on_c, 0, 70, 0
2, 593400, Note_on_c, 0, 52, 0
2, 593408, Note_on_c, 0, 69, 0
2, 593414, Note_on_c, 0, 70, 91
2, 593422, Note_on_c, 0, 55, 72
2, 593504, Note_on_c, 0, 55, 0
2, 593552, Note_on_c, 0, 50, 67
2, 593624, Note_on_c, 0, 50, 0
2, 593666, Note_on_c, 0, 49, 48
2, 593688, Note_on_c, 0, 77, 91
2, 593688, Note_on_c, 0, 74, 65
2, 593756, Note_on_c, 0, 49, 0
2, 593804, Note_on_c, 0, 50, 46
2, 593874, Note_on_c, 0, 50, 0
2, 593914, Note_on_c, 0, 55, 60
2, 593950, Note_on_c, 0, 74, 0
2, 593950, Note_on_c, 0, 73, 57
2, 593953, Note_on_c, 0, 76, 75
2, 593962, Note_on_c, 0, 77, 0
2, 593988, Note_on_c, 0, 55, 0
2, 594048, Note_on_c, 0, 50, 57
2, 594114, Note_on_c, 0, 50, 0
2, 594130, Note_on_c, 0, 73, 0
2, 594198, Note_on_c, 0, 77, 63
2, 594201, Note_on_c, 0, 53, 75
2, 594204, Note_on_c, 0, 76, 0
2, 594214, Note_on_c, 0, 74, 62
2, 594256, Note_on_c, 0, 53, 0
2, 594300, Note_on_c, 0, 74, 0
2, 594342, Note_on_c, 0, 50, 44
2, 594408, Note_on_c, 0, 50, 0
2, 594422, Note_on_c, 0, 74, 7
2, 594448, Note_on_c, 0, 70, 0
2, 594458, Note_on_c, 0, 69, 69
2, 594464, Note_on_c, 0, 52, 60
2, 594488, Note_on_c, 0, 74, 0
2, 594516, Note_on_c, 0, 77, 0
2, 594528, Note_on_c, 0, 52, 0
2, 594684, Note_on_c, 0, 49, 49
2, 594702, Note_on_c, 0, 77, 72
2, 594714, Note_on_c, 0, 74, 60
2, 594754, Note_on_c, 0, 49, 0
2, 594804, Note_on_c, 0, 74, 0
2, 594812, Note_on_c, 0, 50, 32
2, 594884, Note_on_c, 0, 50, 0
2, 594920, Note_on_c, 0, 52, 67
2, 594952, Note_on_c, 0, 79, 82
2, 594956, Note_on_c, 0, 77, 0
2, 594961, Note_on_c, 0, 73, 55
2, 595016, Note_on_c, 0, 52, 0
2, 595066, Note_on_c, 0, 50, 63
2, 595072, Note_on_c, 0, 79, 0
2, 595092, Control_c, 0, 64, 127
2, 595122, Control_c, 0, 64, 0
2, 595140, Note_on_c, 0, 50, 0
2, 595180, Note_on_c, 0, 73, 0
2, 595188, Note_on_c, 0, 77, 67
2, 595191, Note_on_c, 0, 74, 59
2, 595202, Note_on_c, 0, 53, 101
2, 595266, Note_on_c, 0, 53, 0
2, 595292, Control_c, 0, 64, 127
2, 595312, Note_on_c, 0, 69, 0
2, 595330, Note_on_c, 0, 50, 70
2, 595394, Note_on_c, 0, 50, 0
2, 595416, Control_c, 0, 64, 0
2, 595434, Note_on_c, 0, 77, 0
2, 595442, Note_on_c, 0, 70, 79
2, 595452, Note_on_c, 0, 55, 98
2, 595460, Note_on_c, 0, 74, 0
2, 595580, Note_on_c, 0, 55, 0
2, 595588, Note_on_c, 0, 50, 65
2, 595644, Note_on_c, 0, 50, 0
2, 595668, Note_on_c, 0, 49, 67
2, 595686, Note_on_c, 0, 77, 77
2, 595706, Note_on_c, 0, 74, 61
2, 595732, Note_on_c, 0, 49, 0
2, 595772, Note_on_c, 0, 74, 0
2, 595796, Note_on_c, 0, 50, 54
2, 595860, Note_on_c, 0, 50, 0
2, 595906, Note_on_c, 0, 55, 76
2, 595942, Note_on_c, 0, 77, 0
2, 595960, Note_on_c, 0, 73, 38
2, 595962, Note_on_c, 0, 76, 53
2, 595994, Note_on_c, 0, 55, 0
2, 596058, Note_on_c, 0, 73, 0
2, 596060, Note_on_c, 0, 50, 49
2, 596124, Note_on_c, 0, 50, 0
2, 596170, Note_on_c, 0, 76, 0
2, 596180, Note_on_c, 0, 77, 61
2, 596184, Note_on_c, 0, 53, 87
2, 596208, Note_on_c, 0, 74, 38
2, 596238, Note_on_c, 0, 53, 0
2, 596308, Note_on_c, 0, 50, 48
2, 596356, Note_on_c, 0, 70, 0
2, 596372, Note_on_c, 0, 50, 0
2, 596410, Note_on_c, 0, 74, 0
2, 596416, Note_on_c, 0, 69, 69
2, 596432, Note_on_c, 0, 52, 78
2, 596442, Note_on_c, 0, 77, 0
2, 596482, Note_on_c, 0, 52, 0
2, 596544, Note_on_c, 0, 50, 59
2, 596606, Note_on_c, 0, 50, 0
2, 596642, Note_on_c, 0, 49, 70
2, 596670, Note_on_c, 0, 77, 78
2, 596678, Note_on_c, 0, 74, 69
2, 596700, Note_on_c, 0, 49, 0
2, 596736, Note_on_c, 0, 74, 0
2, 596782, Note_on_c, 0, 50, 51
2, 596850, Note_on_c, 0, 50, 0
2, 596876, Note_on_c, 0, 77, 0
2, 596886, Note_on_c, 0, 52, 68
2, 596906, Note_on_c, 0, 79, 94
2, 596910, Note_on_c, 0, 73, 67
2, 596952, Note_on_c, 0, 52, 0
2, 597022, Note_on_c, 0, 50, 64
2, 597052, Note_on_c, 0, 79, 0
2, 597098, Note_on_c, 0, 50, 0
2, 597126, Note_on_c, 0, 73, 0
2, 597158, Note_on_c, 0, 77, 90
2, 597162, Note_on_c, 0, 53, 94
2, 597166, Note_on_c, 0, 74, 75
2, 597224, Note_on_c, 0, 53, 0
2, 597278, Note_on_c, 0, 69, 0
2, 597282, Note_on_c, 0, 50, 64
2, 597298, Note_on_c, 0, 74, 0
2, 597360, Note_on_c, 0, 50, 0
2, 597410, Note_on_c, 0, 55, 85
2, 597412, Note_on_c, 0, 70, 87
2, 597416, Note_on_c, 0, 73, 72
2, 597422, Note_on_c, 0, 76, 92
2, 597428, Note_on_c, 0, 77, 0
2, 597506, Note_on_c, 0, 55, 0
2, 597514, Note_on_c, 0, 70, 0
2, 597552, Note_on_c, 0, 50, 77
2, 597582, Note_on_c, 0, 73, 0
2, 597614, Note_on_c, 0, 50, 0
2, 597676, Note_on_c, 0, 53, 101
2, 597679, Note_on_c, 0, 69, 72
2, 597684, Note_on_c, 0, 74, 97
2, 597708, Note_on_c, 0, 76, 0
2, 597746, Note_on_c, 0, 53, 0
2, 597794, Note_on_c, 0, 69, 0
2, 597810, Note_on_c, 0, 50, 72
2, 597870, Note_on_c, 0, 50, 0
2, 597918, Note_on_c, 0, 74, 0
2, 597928, Note_on_c, 0, 73, 92
2, 597928, Note_on_c, 0, 52, 94
2, 597938, Note_on_c, 0, 67, 77
2, 597988, Note_on_c, 0, 52, 0
2, 598038, Note_on_c, 0, 50, 71
2, 598064, Note_on_c, 0, 74, 110
2, 598090, Note_on_c, 0, 67, 0
2, 598116, Note_on_c, 0, 50, 0
2, 598142, Note_on_c, 0, 73, 0
2, 598145, Note_on_c, 0, 49, 83
2, 598166, Note_on_c, 0, 76, 91
2, 598230, Note_on_c, 0, 74, 0
2, 598270, Note_on_c, 0, 77, 105
2, 598280, Note_on_c, 0, 47, 72
2, 598292, Note_on_c, 0, 49, 0
2, 598322, Note_on_c, 0, 76, 0
2, 598404, Note_on_c, 0, 79, 121
2, 598408, Note_on_c, 0, 77, 0
2, 598422, Note_on_c, 0, 45, 82
2, 598436, Note_on_c, 0, 47, 0
2, 598536, Note_on_c, 0, 45, 0
2, 598558, Note_on_c, 0, 52, 98
2, 598624, Note_on_c, 0, 52, 0
2, 598664, Note_on_c, 0, 76, 93
2, 598666, Note_on_c, 0, 43, 86
2, 598794, Note_on_c, 0, 52, 106
2, 598864, Note_on_c, 0, 43, 0
2, 598912, Note_on_c, 0, 52, 0
2, 598915, Note_on_c, 0, 69, 86
2, 598930, Note_on_c, 0, 41, 102
2, 598958, Note_on_c, 0, 79, 0
2, 598992, Note_on_c, 0, 76, 0
2, 599036, Note_on_c, 0, 52, 103
2, 599042, Note_on_c, 0, 41, 0
2, 599050, Note_on_c, 0, 79, 91
2, 599140, Note_on_c, 0, 52, 0
2, 599160, Note_on_c, 0, 50, 95
2, 599166, Note_on_c, 0, 77, 103
2, 599228, Note_on_c, 0, 79, 0
2, 599280, Note_on_c, 0, 76, 109
2, 599284, Note_on_c, 0, 49, 97
2, 599288, Note_on_c, 0, 50, 0
2, 599310, Note_on_c, 0, 77, 0
2, 599402, Note_on_c, 0, 49, 0
2, 599402, Note_on_c, 0, 77, 94
2, 599420, Note_on_c, 0, 50, 97
2, 599446, Note_on_c, 0, 76, 0
2, 599496, Note_on_c, 0, 69, 0
2, 599518, Note_on_c, 0, 50, 0
2, 599534, Note_on_c, 0, 45, 95
2, 599582, Note_on_c, 0, 77, 0
2, 599630, Note_on_c, 0, 45, 0
2, 599660, Note_on_c, 0, 74, 85
2, 599662, Note_on_c, 0, 81, 100
2, 599670, Note_on_c, 0, 69, 59
2, 599672, Note_on_c, 0, 41, 90
2, 599794, Note_on_c, 0, 41, 0
2, 599804, Note_on_c, 0, 38, 91
2, 599910, Note_on_c, 0, 81, 0
2, 599918, Note_on_c, 0, 38, 0
2, 599936, Note_on_c, 0, 77, 99
2, 599950, Note_on_c, 0, 45, 77
2, 600038, Note_on_c, 0, 74, 0
2, 600056, Control_c, 0, 64, 127
2, 600066, Note_on_c, 0, 69, 0
2, 600100, Note_on_c, 0, 77, 0
2, 600188, Note_on_c, 0, 45, 0
2, 600216, Note_on_c, 0, 73, 62
2, 600220, Note_on_c, 0, 76, 75
2, 600228, Note_on_c, 0, 33, 63
2, 600230, Note_on_c, 0, 67, 60
2, 600318, Note_on_c, 0, 73, 0
2, 600328, Note_on_c, 0, 74, 90
2, 600360, Note_on_c, 0, 76, 0
2, 600366, Note_on_c, 0, 74, 0
2, 600400, Note_on_c, 0, 33, 0
2, 600424, Control_c, 0, 64, 0
2, 600468, Note_on_c, 0, 74, 63
2, 600480, Note_on_c, 0, 38, 82
2, 600498, Note_on_c, 0, 67, 0
2, 600554, Note_on_c, 0, 38, 0
2, 600606, Note_on_c, 0, 69, 61
2, 600732, Note_on_c, 0, 67, 67
2, 600742, Note_on_c, 0, 69, 0
2, 600758, Note_on_c, 0, 62, 77
2, 600844, Note_on_c, 0, 67, 0
2, 600847, Note_on_c, 0, 65, 59
2, 600962, Note_on_c, 0, 65, 0
2, 600986, Note_on_c, 0, 67, 64
2, 601122, Note_on_c, 0, 65, 47
2, 601130, Note_on_c, 0, 67, 0
2, 601222, Note_on_c, 0, 65, 0
2, 601240, Note_on_c, 0, 62, 0
2, 601246, Note_on_c, 0, 64, 52
2, 601276, Note_on_c, 0, 60, 53
2, 601322, Note_on_c, 0, 64, 0
2, 601358, Note_on_c, 0, 65, 53
2, 601416, Note_on_c, 0, 65, 0
2, 601454, Note_on_c, 0, 60, 0
2, 601500, Note_on_c, 0, 74, 0
2, 601512, Note_on_c, 0, 62, 59
2, 601514, Note_on_c, 0, 58, 30
2, 601646, Note_on_c, 0, 74, 49
2, 601746, Note_on_c, 0, 74, 0
2, 601776, Note_on_c, 0, 72, 53
2, 601786, Note_on_c, 0, 67, 55
2, 601822, Note_on_c, 0, 62, 0
2, 601848, Note_on_c, 0, 72, 0
2, 601880, Note_on_c, 0, 70, 57
2, 601986, Note_on_c, 0, 70, 0
2, 602016, Note_on_c, 0, 58, 0
2, 602030, Note_on_c, 0, 72, 70
2, 602064, Note_on_c, 0, 57, 23
2, 602106, Note_on_c, 0, 72, 0
2, 602146, Note_on_c, 0, 70, 69
2, 602234, Note_on_c, 0, 67, 0
2, 602260, Note_on_c, 0, 69, 75
2, 602268, Note_on_c, 0, 70, 0
2, 602274, Note_on_c, 0, 66, 32
2, 602364, Note_on_c, 0, 69, 0
2, 602388, Note_on_c, 0, 57, 0
2, 602388, Note_on_c, 0, 72, 77
2, 602391, Control_c, 0, 64, 127
2, 602402, Note_on_c, 0, 66, 0
2, 602514, Note_on_c, 0, 72, 0
2, 602517, Note_on_c, 0, 70, 82
2, 602544, Note_on_c, 0, 55, 54
2, 602576, Control_c, 0, 64, 0
2, 602658, Note_on_c, 0, 67, 80
2, 602720, Note_on_c, 0, 67, 0
2, 602774, Note_on_c, 0, 65, 68
2, 602828, Note_on_c, 0, 65, 0
2, 602900, Note_on_c, 0, 64, 63
2, 602954, Note_on_c, 0, 64, 0
2, 602988, Note_on_c, 0, 71, 87
2, 602991, Note_on_c, 0, 70, 0
2, 603008, Note_on_c, 0, 65, 68
2, 603032, Note_on_c, 0, 71, 0
2, 603070, Note_on_c, 0, 72, 78
2, 603082, Note_on_c, 0, 65, 0
2, 603126, Note_on_c, 0, 72, 0
2, 603126, Note_on_c, 0, 64, 64
2, 603132, Note_on_c, 0, 71, 68
2, 603186, Note_on_c, 0, 71, 0
2, 603194, Note_on_c, 0, 72, 77
2, 603218, Note_on_c, 0, 64, 0
2, 603234, Note_on_c, 0, 62, 71
2, 603256, Note_on_c, 0, 71, 80
2, 603274, Note_on_c, 0, 72, 0
2, 603330, Note_on_c, 0, 62, 0
2, 603354, Note_on_c, 0, 69, 69
2, 603366, Note_on_c, 0, 71, 0
2, 603374, Note_on_c, 0, 65, 62
2, 603430, Note_on_c, 0, 69, 0
2, 603432, Note_on_c, 0, 71, 91
2, 603530, Note_on_c, 0, 65, 0
2, 603566, Note_on_c, 0, 71, 0
2, 603574, Note_on_c, 0, 72, 84
2, 603604, Note_on_c, 0, 64, 47
2, 603712, Note_on_c, 0, 79, 98
2, 603834, Note_on_c, 0, 77, 94
2, 603864, Note_on_c, 0, 79, 0
2, 603950, Note_on_c, 0, 76, 88
2, 603958, Note_on_c, 0, 77, 0
2, 604042, Note_on_c, 0, 72, 0
2, 604070, Note_on_c, 0, 77, 82
2, 604104, Note_on_c, 0, 76, 0
2, 604108, Note_on_c, 0, 64, 0
2, 604120, Note_on_c, 0, 62, 56
2, 604190, Note_on_c, 0, 76, 59
2, 604230, Note_on_c, 0, 77, 0
2, 604328, Note_on_c, 0, 74, 88
2, 604336, Note_on_c, 0, 71, 60
2, 604340, Note_on_c, 0, 76, 0
2, 604422, Note_on_c, 0, 71, 0
2, 604450, Note_on_c, 0, 74, 0
2, 604450, Control_c, 0, 64, 127
2, 604450, Note_on_c, 0, 77, 77
2, 604480, Control_c, 0, 64, 0
2, 604514, Note_on_c, 0, 62, 0
2, 604552, Note_on_c, 0, 55, 0
2, 604584, Note_on_c, 0, 60, 60
2, 604587, Note_on_c, 0, 77, 0
2, 604590, Note_on_c, 0, 76, 75
2, 604608, Note_on_c, 0, 72, 62
2, 604646, Note_on_c, 0, 60, 0
2, 604670, Note_on_c, 0, 76, 0
2, 604746, Note_on_c, 0, 48, 55
2, 604804, Note_on_c, 0, 48, 0
2, 604806, Note_on_c, 0, 72, 0
2, 604846, Note_on_c, 0, 77, 83
2, 604849, Note_on_c, 0, 74, 64
2, 604852, Note_on_c, 0, 46, 68
2, 604906, Note_on_c, 0, 74, 0
2, 604938, Note_on_c, 0, 77, 0
2, 604948, Note_on_c, 0, 46, 0
2, 604968, Note_on_c, 0, 45, 70
2, 605048, Note_on_c, 0, 45, 0
2, 605112, Note_on_c, 0, 79, 93
2, 605115, Note_on_c, 0, 76, 63
2, 605115, Note_on_c, 0, 46, 70
2, 605230, Note_on_c, 0, 46, 0
2, 605248, Note_on_c, 0, 45, 55
2, 605312, Note_on_c, 0, 45, 0
2, 605368, Note_on_c, 0, 43, 68
2, 605444, Note_on_c, 0, 43, 0
2, 605476, Note_on_c, 0, 46, 72
2, 605574, Note_on_c, 0, 46, 0
2, 605630, Note_on_c, 0, 45, 94
2, 605740, Note_on_c, 0, 76, 0
2, 605770, Note_on_c, 0, 79, 0
2, 605770, Note_on_c, 0, 84, 87
2, 605884, Note_on_c, 0, 45, 0
2, 605896, Note_on_c, 0, 77, 88
2, 605898, Note_on_c, 0, 82, 88
2, 605900, Note_on_c, 0, 50, 88
2, 605924, Note_on_c, 0, 84, 0
2, 606030, Note_on_c, 0, 82, 0
2, 606032, Note_on_c, 0, 81, 86
2, 606132, Note_on_c, 0, 50, 0
2, 606156, Note_on_c, 0, 81, 0
2, 606167, Note_on_c, 0, 82, 87
2, 606176, Note_on_c, 0, 43, 85
2, 606246, Note_on_c, 0, 43, 0
2, 606298, Note_on_c, 0, 81, 87
2, 606304, Note_on_c, 0, 77, 0
2, 606338, Note_on_c, 0, 82, 0
2, 606428, Note_on_c, 0, 79, 92
2, 606428, Note_on_c, 0, 48, 74
2, 606431, Note_on_c, 0, 81, 0
2, 606446, Note_on_c, 0, 76, 57
2, 606514, Note_on_c, 0, 76, 0
2, 606548, Note_on_c, 0, 48, 0
2, 606548, Note_on_c, 0, 82, 80
2, 606554, Note_on_c, 0, 79, 0
2, 606694, Note_on_c, 0, 41, 75
2, 606706, Note_on_c, 0, 82, 0
2, 606718, Note_on_c, 0, 77, 68
2, 606724, Note_on_c, 0, 81, 72
2, 606740, Note_on_c, 0, 41, 0
2, 606878, Note_on_c, 0, 65, 72
2, 606938, Note_on_c, 0, 65, 0
2, 606972, Note_on_c, 0, 82, 79
2, 606982, Note_on_c, 0, 79, 84
2, 606994, Note_on_c, 0, 81, 0
2, 606997, Note_on_c, 0, 63, 78
2, 607042, Note_on_c, 0, 79, 0
2, 607072, Note_on_c, 0, 63, 0
2, 607112, Note_on_c, 0, 62, 76
2, 607176, Note_on_c, 0, 62, 0
2, 607258, Note_on_c, 0, 63, 74
2, 607270, Note_on_c, 0, 84, 98
2, 607276, Note_on_c, 0, 81, 65
2, 607296, Note_on_c, 0, 82, 0
2, 607364, Note_on_c, 0, 63, 0
2, 607400, Note_on_c, 0, 77, 0
2, 607406, Note_on_c, 0, 62, 36
2, 607476, Note_on_c, 0, 62, 0
2, 607500, Note_on_c, 0, 60, 62
2, 607592, Note_on_c, 0, 60, 0
2, 607626, Note_on_c, 0, 63, 71
2, 607652, Note_on_c, 0, 81, 0
2, 607674, Note_on_c, 0, 63, 0
2, 607690, Note_on_c, 0, 84, 0
2, 607692, Control_c, 0, 64, 127
2, 607800, Note_on_c, 0, 62, 70
2, 607846, Control_c, 0, 64, 0
2, 607930, Note_on_c, 0, 77, 68
2, 608024, Note_on_c, 0, 77, 0
2, 608054, Note_on_c, 0, 75, 69
2, 608072, Note_on_c, 0, 70, 67
2, 608150, Note_on_c, 0, 75, 0
2, 608176, Note_on_c, 0, 74, 79
2, 608286, Note_on_c, 0, 74, 0
2, 608308, Note_on_c, 0, 62, 0
2, 608326, Note_on_c, 0, 75, 83
2, 608370, Note_on_c, 0, 60, 38
2, 608444, Note_on_c, 0, 74, 88
2, 608470, Note_on_c, 0, 75, 0
2, 608564, Note_on_c, 0, 74, 0
2, 608588, Note_on_c, 0, 72, 71
2, 608590, Note_on_c, 0, 70, 0
2, 608620, Note_on_c, 0, 69, 48
2, 608658, Note_on_c, 0, 72, 0
2, 608700, Note_on_c, 0, 75, 82
2, 608746, Note_on_c, 0, 75, 0
2, 608768, Control_c, 0, 64, 127
2, 608774, Note_on_c, 0, 69, 0
2, 608812, Note_on_c, 0, 60, 0
2, 608844, Control_c, 0, 64, 0
2, 608850, Note_on_c, 0, 58, 49
2, 608866, Note_on_c, 0, 74, 85
2, 608982, Note_on_c, 0, 70, 63
2, 609024, Note_on_c, 0, 58, 0
2, 609096, Note_on_c, 0, 63, 77
2, 609108, Note_on_c, 0, 69, 63
2, 609134, Note_on_c, 0, 70, 0
2, 609228, Note_on_c, 0, 74, 0
2, 609228, Control_c, 0, 64, 127
2, 609236, Note_on_c, 0, 69, 0
2, 609242, Note_on_c, 0, 67, 70
2, 609294, Note_on_c, 0, 67, 0
2, 609350, Control_c, 0, 64, 0
2, 609355, Note_on_c, 0, 57, 59
2, 609362, Note_on_c, 0, 72, 78
2, 609364, Note_on_c, 0, 63, 0
2, 609376, Note_on_c, 0, 69, 47
2, 609466, Note_on_c, 0, 69, 0
2, 609476, Note_on_c, 0, 67, 64
2, 609522, Note_on_c, 0, 57, 0
2, 609608, Note_on_c, 0, 62, 68
2, 609616, Note_on_c, 0, 67, 0
2, 609632, Note_on_c, 0, 66, 60
2, 609726, Note_on_c, 0, 69, 62
2, 609736, Note_on_c, 0, 72, 0
2, 609760, Note_on_c, 0, 66, 0
2, 609804, Note_on_c, 0, 62, 0
2, 609818, Note_on_c, 0, 69, 0
2, 609858, Note_on_c, 0, 70, 75
2, 609862, Note_on_c, 0, 55, 57
2, 609868, Note_on_c, 0, 67, 54
2, 609968, Note_on_c, 0, 70, 0
2, 609974, Note_on_c, 0, 67, 0
2, 609986, Note_on_c, 0, 55, 0
2, 609986, Note_on_c, 0, 58, 56
2, 610056, Note_on_c, 0, 58, 0
2, 610100, Note_on_c, 0, 56, 57
2, 610112, Note_on_c, 0, 58, 92
2, 610202, Note_on_c, 0, 56, 0
2, 610250, Note_on_c, 0, 55, 62
2, 610348, Note_on_c, 0, 55, 0
2, 610366, Note_on_c, 0, 56, 72
2, 610482, Note_on_c, 0, 56, 0
2, 610514, Note_on_c, 0, 55, 61
2, 610592, Note_on_c, 0, 55, 0
2, 610624, Note_on_c, 0, 60, 80
2, 610638, Note_on_c, 0, 53, 85
2, 610664, Note_on_c, 0, 58, 0
2, 610728, Note_on_c, 0, 53, 0
2, 610740, Note_on_c, 0, 62, 84
2, 610752, Note_on_c, 0, 60, 0
2, 610754, Note_on_c, 0, 56, 68
2, 610826, Note_on_c, 0, 56, 0
2, 610852, Note_on_c, 0, 62, 0
2, 610866, Note_on_c, 0, 63, 88
2, 610892, Note_on_c, 0, 55, 83
2, 610988, Note_on_c, 0, 63, 0
2, 610993, Note_on_c, 0, 65, 91
2, 611116, Note_on_c, 0, 67, 94
2, 611120, Note_on_c, 0, 65, 0
2, 611144, Note_on_c, 0, 63, 83
2, 611220, Note_on_c, 0, 55, 0
2, 611224, Note_on_c, 0, 63, 0
2, 611236, Note_on_c, 0, 67, 0
2, 611248, Note_on_c, 0, 69, 82
2, 611376, Note_on_c, 0, 70, 76
2, 611386, Note_on_c, 0, 69, 0
2, 611392, Note_on_c, 0, 62, 63
2, 611398, Note_on_c, 0, 53, 80
2, 611442, Note_on_c, 0, 62, 0
2, 611445, Note_on_c, 0, 53, 0
2, 611494, Note_on_c, 0, 70, 0
2, 611506, Note_on_c, 0, 72, 80
2, 611624, Note_on_c, 0, 72, 0
2, 611630, Note_on_c, 0, 60, 60
2, 611633, Note_on_c, 0, 51, 71
2, 611638, Note_on_c, 0, 74, 79
2, 611686, Note_on_c, 0, 60, 0
2, 611698, Note_on_c, 0, 51, 0
2, 611728, Note_on_c, 0, 74, 0
2, 611746, Note_on_c, 0, 75, 70
2, 611862, Note_on_c, 0, 58, 59
2, 611878, Note_on_c, 0, 77, 92
2, 611886, Note_on_c, 0, 50, 54
2, 611906, Note_on_c, 0, 75, 0
2, 611948, Note_on_c, 0, 50, 0
2, 611994, Note_on_c, 0, 46, 68
2, 612004, Note_on_c, 0, 58, 0
2, 612010, Note_on_c, 0, 77, 0
2, 612090, Note_on_c, 0, 77, 67
2, 612096, Note_on_c, 0, 70, 59
2, 612098, Note_on_c, 0, 74, 77
2, 612128, Note_on_c, 0, 46, 0
2, 612128, Note_on_c, 0, 48, 60
2, 612144, Note_on_c, 0, 74, 0
2, 612152, Note_on_c, 0, 70, 0
2, 612170, Note_on_c, 0, 77, 0
2, 612262, Note_on_c, 0, 50, 64
2, 612264, Note_on_c, 0, 48, 0
2, 612342, Note_on_c, 0, 77, 63
2, 612352, Note_on_c, 0, 69, 56
2, 612362, Note_on_c, 0, 50, 0
2, 612366, Note_on_c, 0, 72, 52
2, 612378, Note_on_c, 0, 51, 72
2, 612402, Note_on_c, 0, 77, 0
2, 612416, Note_on_c, 0, 69, 0
2, 612422, Note_on_c, 0, 72, 0
2, 612448, Note_on_c, 0, 51, 0
2, 612488, Note_on_c, 0, 53, 97
2, 612546, Note_on_c, 0, 53, 0
2, 612594, Note_on_c, 0, 75, 76
2, 612602, Note_on_c, 0, 65, 60
2, 612605, Note_on_c, 0, 72, 47
2, 612610, Note_on_c, 0, 55, 76
2, 612668, Note_on_c, 0, 72, 0
2, 612676, Note_on_c, 0, 75, 0
2, 612682, Note_on_c, 0, 65, 0
2, 612720, Note_on_c, 0, 55, 0
2, 612728, Note_on_c, 0, 57, 59
2, 612844, Note_on_c, 0, 57, 0
2, 612866, Note_on_c, 0, 58, 57
2, 612870, Note_on_c, 0, 74, 88
2, 612880, Note_on_c, 0, 70, 52
2, 612886, Note_on_c, 0, 65, 53
2, 612976, Note_on_c, 0, 58, 0
2, 613000, Note_on_c, 0, 60, 61
2, 613104, Note_on_c, 0, 65, 0
2, 613112, Note_on_c, 0, 60, 0
2, 613145, Note_on_c, 0, 62, 45
2, 613226, Note_on_c, 0, 62, 0
2, 613261, Note_on_c, 0, 63, 76
2, 613329, Note_on_c, 0, 63, 0
2, 613380, Note_on_c, 0, 65, 48
2, 613396, Note_on_c, 0, 72, 54
2, 613400, Note_on_c, 0, 69, 36
2, 613420, Note_on_c, 0, 70, 0
2, 613446, Note_on_c, 0, 65, 0
2, 613458, Note_on_c, 0, 74, 0
2, 613502, Note_on_c, 0, 63, 68
2, 613560, Note_on_c, 0, 63, 0
2, 613618, Note_on_c, 0, 62, 45
2, 613674, Note_on_c, 0, 62, 0
2, 613732, Note_on_c, 0, 65, 39
2, 613828, Note_on_c, 0, 69, 0
2, 613834, Note_on_c, 0, 65, 0
2, 613858, Note_on_c, 0, 58, 54
2, 613886, Note_on_c, 0, 72, 0
2, 614026, Note_on_c, 0, 74, 72
2, 614125, Note_on_c, 0, 74, 0
2, 614140, Note_on_c, 0, 72, 60
2, 614174, Note_on_c, 0, 67, 57
2, 614252, Note_on_c, 0, 72, 0
2, 614260, Note_on_c, 0, 70, 64
2, 614400, Note_on_c, 0, 70, 0
2, 614410, Note_on_c, 0, 72, 71
2, 614424, Note_on_c, 0, 58, 0
2, 614432, Note_on_c, 0, 57, 46
2, 614544, Note_on_c, 0, 70, 60
2, 614550, Note_on_c, 0, 72, 0
2, 614624, Note_on_c, 0, 67, 0
2, 614664, Note_on_c, 0, 69, 54
2, 614678, Note_on_c, 0, 66, 44
2, 614682, Note_on_c, 0, 70, 0
2, 614746, Note_on_c, 0, 69, 0
2, 614776, Note_on_c, 0, 72, 67
2, 614800, Note_on_c, 0, 66, 0
2, 614838, Note_on_c, 0, 57, 0
2, 614852, Note_on_c, 0, 72, 0
2, 614916, Note_on_c, 0, 70, 62
2, 614928, Note_on_c, 0, 67, 59
2, 615026, Note_on_c, 0, 55, 56
2, 615108, Note_on_c, 0, 55, 0
2, 615180, Note_on_c, 0, 79, 95
2, 615192, Note_on_c, 0, 53, 82
2, 615196, Note_on_c, 0, 76, 54
2, 615212, Note_on_c, 0, 70, 0
2, 615244, Note_on_c, 0, 53, 0
2, 615258, Note_on_c, 0, 67, 0
2, 615308, Note_on_c, 0, 52, 65
2, 615372, Note_on_c, 0, 52, 0
2, 615440, Note_on_c, 0, 73, 64
2, 615450, Note_on_c, 0, 53, 92
2, 615450, Note_on_c, 0, 69, 49
2, 615546, Note_on_c, 0, 53, 0
2, 615554, Note_on_c, 0, 76, 0
2, 615584, Note_on_c, 0, 52, 79
2, 615644, Note_on_c, 0, 79, 0
2, 615678, Note_on_c, 0, 52, 0
2, 615696, Control_c, 0, 64, 127
2, 615726, Note_on_c, 0, 50, 39
2, 615728, Control_c, 0, 64, 0
2, 615738, Note_on_c, 0, 77, 82
2, 615741, Note_on_c, 0, 74, 45
2, 615786, Note_on_c, 0, 73, 0
2, 615796, Note_on_c, 0, 50, 0
2, 615830, Note_on_c, 0, 53, 90
2, 615870, Note_on_c, 0, 69, 0
2, 615967, Note_on_c, 0, 46, 67
2, 615974, Note_on_c, 0, 77, 0
2, 615974, Note_on_c, 0, 53, 0
2, 615990, Note_on_c, 0, 67, 77
2, 616074, Note_on_c, 0, 74, 0
2, 616132, Note_on_c, 0, 77, 90
2, 616258, Note_on_c, 0, 76, 77
2, 616282, Note_on_c, 0, 50, 76
2, 616288, Note_on_c, 0, 77, 0
2, 616340, Note_on_c, 0, 46, 0
2, 616382, Note_on_c, 0, 74, 99
2, 616394, Note_on_c, 0, 76, 0
2, 616520, Note_on_c, 0, 74, 0
2, 616526, Note_on_c, 0, 50, 0
2, 616530, Note_on_c, 0, 76, 87
2, 616548, Note_on_c, 0, 55, 70
2, 616638, Note_on_c, 0, 74, 85
2, 616680, Note_on_c, 0, 76, 0
2, 616764, Note_on_c, 0, 74, 0
2, 616764, Note_on_c, 0, 73, 88
2, 616798, Note_on_c, 0, 55, 0
2, 616834, Note_on_c, 0, 52, 52
2, 616892, Note_on_c, 0, 76, 91
2, 616910, Note_on_c, 0, 73, 0
2, 616910, Control_c, 0, 64, 127
2, 616930, Note_on_c, 0, 76, 0
2, 617002, Control_c, 0, 64, 0
2, 617044, Note_on_c, 0, 52, 0
2, 617049, Note_on_c, 0, 49, 56
2, 617060, Note_on_c, 0, 69, 88
2, 617130, Note_on_c, 0, 67, 0
2, 617196, Note_on_c, 0, 67, 88
2, 617334, Note_on_c, 0, 65, 70
2, 617346, Note_on_c, 0, 67, 0
2, 617346, Note_on_c, 0, 45, 68
2, 617364, Note_on_c, 0, 49, 0
2, 617440, Note_on_c, 0, 64, 97
2, 617450, Note_on_c, 0, 65, 0
2, 617566, Note_on_c, 0, 45, 0
2, 617566, Note_on_c, 0, 64, 0
2, 617580, Note_on_c, 0, 65, 79
2, 617590, Note_on_c, 0, 50, 82
2, 617704, Note_on_c, 0, 64, 82
2, 617716, Note_on_c, 0, 65, 0
2, 617800, Note_on_c, 0, 64, 0
2, 617816, Note_on_c, 0, 50, 0
2, 617836, Note_on_c, 0, 62, 78
2, 617839, Note_on_c, 0, 41, 83
2, 617918, Note_on_c, 0, 62, 0
2, 617944, Note_on_c, 0, 65, 85
2, 617980, Note_on_c, 0, 69, 0
2, 617983, Note_on_c, 0, 65, 0
2, 618082, Note_on_c, 0, 58, 84
2, 618096, Note_on_c, 0, 43, 87
2, 618124, Note_on_c, 0, 41, 0
2, 618240, Note_on_c, 0, 69, 65
2, 618330, Note_on_c, 0, 67, 69
2, 618333, Note_on_c, 0, 46, 83
2, 618352, Note_on_c, 0, 69, 0
2, 618355, Note_on_c, 0, 43, 0
2, 618442, Note_on_c, 0, 65, 77
2, 618450, Note_on_c, 0, 67, 0
2, 618572, Note_on_c, 0, 58, 0
2, 618578, Note_on_c, 0, 65, 0
2, 618592, Note_on_c, 0, 67, 103
2, 618595, Note_on_c, 0, 40, 107
2, 618600, Note_on_c, 0, 46, 0
2, 618714, Note_on_c, 0, 65, 93
2, 618724, Control_c, 0, 64, 127
2, 618782, Note_on_c, 0, 67, 0
2, 618834, Note_on_c, 0, 64, 102
2, 618836, Note_on_c, 0, 40, 0
2, 618846, Note_on_c, 0, 43, 87
2, 618870, Note_on_c, 0, 65, 0
2, 618950, Note_on_c, 0, 67, 102
2, 618966, Note_on_c, 0, 64, 0
2, 618992, Note_on_c, 0, 67, 0
2, 619086, Note_on_c, 0, 43, 0
2, 619092, Note_on_c, 0, 61, 113
2, 619100, Note_on_c, 0, 45, 88
2, 619154, Control_c, 0, 64, 0
2, 619210, Note_on_c, 0, 58, 77
2, 619346, Note_on_c, 0, 57, 77
2, 619349, Note_on_c, 0, 40, 118
2, 619384, Note_on_c, 0, 58, 0
2, 619456, Note_on_c, 0, 40, 0
2, 619459, Note_on_c, 0, 57, 0
2, 619464, Note_on_c, 0, 55, 101
2, 619568, Note_on_c, 0, 55, 0
2, 619600, Note_on_c, 0, 57, 87
2, 619604, Note_on_c, 0, 37, 109
2, 619690, Note_on_c, 0, 37, 0
2, 619724, Note_on_c, 0, 55, 90
2, 619800, Note_on_c, 0, 61, 0
2, 619834, Note_on_c, 0, 57, 0
2, 619854, Note_on_c, 0, 53, 117
2, 619857, Note_on_c, 0, 33, 107
2, 619890, Note_on_c, 0, 55, 0
2, 619902, Note_on_c, 0, 33, 0
2, 619954, Note_on_c, 0, 52, 105
2, 619968, Note_on_c, 0, 53, 0
2, 620068, Note_on_c, 0, 45, 0
2, 620078, Note_on_c, 0, 52, 0
2, 620098, Note_on_c, 0, 38, 124
2, 620110, Note_on_c, 0, 53, 120
2, 620126, Note_on_c, 0, 38, 55
2, 620214, Note_on_c, 0, 53, 0
2, 620222, Note_on_c, 0, 55, 92
2, 620312, Note_on_c, 0, 38, 0
2, 620324, Note_on_c, 0, 57, 92
2, 620352, Note_on_c, 0, 55, 0
2, 620416, Note_on_c, 0, 38, 0
2, 620452, Note_on_c, 0, 59, 91
2, 620455, Note_on_c, 0, 57, 0
2, 620564, Note_on_c, 0, 61, 85
2, 620574, Note_on_c, 0, 59, 0
2, 620682, Note_on_c, 0, 62, 86
2, 620698, Note_on_c, 0, 61, 0
2, 620810, Note_on_c, 0, 64, 95
2, 620824, Note_on_c, 0, 62, 0
2, 620928, Note_on_c, 0, 64, 0
2, 620932, Note_on_c, 0, 65, 90
2, 621056, Note_on_c, 0, 67, 92
2, 621070, Note_on_c, 0, 65, 0
2, 621158, Note_on_c, 0, 67, 0
2, 621170, Note_on_c, 0, 69, 87
2, 621174, Note_on_c, 0, 41, 74
2, 621248, Note_on_c, 0, 69, 0
2, 621268, Note_on_c, 0, 41, 0
2, 621282, Note_on_c, 0, 71, 103
2, 621288, Note_on_c, 0, 43, 84
2, 621340, Note_on_c, 0, 43, 0
2, 621386, Note_on_c, 0, 45, 86
2, 621394, Note_on_c, 0, 73, 92
2, 621416, Note_on_c, 0, 71, 0
2, 621436, Note_on_c, 0, 45, 0
2, 621490, Note_on_c, 0, 47, 77
2, 621506, Note_on_c, 0, 74, 116
2, 621520, Note_on_c, 0, 73, 0
2, 621578, Note_on_c, 0, 47, 0
2, 621594, Note_on_c, 0, 49, 92
2, 621626, Note_on_c, 0, 76, 97
2, 621646, Note_on_c, 0, 74, 0
2, 621714, Note_on_c, 0, 50, 87
2, 621722, Note_on_c, 0, 77, 102
2, 621748, Note_on_c, 0, 76, 0
2, 621758, Note_on_c, 0, 49, 0
2, 621806, Note_on_c, 0, 52, 109
2, 621826, Note_on_c, 0, 50, 0
2, 621834, Note_on_c, 0, 79, 110
2, 621878, Note_on_c, 0, 52, 0
2, 621878, Note_on_c, 0, 77, 0
2, 621926, Note_on_c, 0, 53, 114
2, 621944, Note_on_c, 0, 81, 114
2, 621980, Note_on_c, 0, 79, 0
2, 622020, Note_on_c, 0, 53, 0
2, 622030, Note_on_c, 0, 81, 0
2, 622052, Note_on_c, 0, 50, 106
2, 622176, Note_on_c, 0, 81, 106
2, 622180, Note_on_c, 0, 74, 105
2, 622180, Note_on_c, 0, 52, 113
2, 622184, Note_on_c, 0, 77, 95
2, 622220, Note_on_c, 0, 74, 0
2, 622220, Note_on_c, 0, 50, 0
2, 622223, Note_on_c, 0, 77, 0
2, 622242, Note_on_c, 0, 81, 0
2, 622316, Note_on_c, 0, 53, 110
2, 622326, Note_on_c, 0, 52, 0
2, 622402, Note_on_c, 0, 76, 91
2, 622405, Note_on_c, 0, 73, 90
2, 622405, Note_on_c, 0, 81, 102
2, 622416, Note_on_c, 0, 53, 0
2, 622422, Note_on_c, 0, 55, 100
2, 622452, Note_on_c, 0, 73, 0
2, 622460, Note_on_c, 0, 76, 0
2, 622462, Note_on_c, 0, 81, 0
2, 622488, Note_on_c, 0, 55, 0
2, 622526, Note_on_c, 0, 57, 83
2, 622638, Note_on_c, 0, 79, 114
2, 622644, Note_on_c, 0, 69, 85
2, 622644, Note_on_c, 0, 76, 84
2, 622644, Note_on_c, 0, 59, 86
2, 622652, Note_on_c, 0, 57, 0
2, 622692, Note_on_c, 0, 76, 0
2, 622692, Note_on_c, 0, 69, 0
2, 622710, Note_on_c, 0, 79, 0
2, 622762, Note_on_c, 0, 59, 0
2, 622762, Note_on_c, 0, 61, 84
2, 622830, Note_on_c, 0, 61, 0
2, 622878, Note_on_c, 0, 77, 113
2, 622888, Note_on_c, 0, 69, 84
2, 622891, Note_on_c, 0, 74, 92
2, 622894, Note_on_c, 0, 62, 72
2, 622944, Note_on_c, 0, 69, 0
2, 622950, Note_on_c, 0, 62, 0
2, 623004, Note_on_c, 0, 64, 80
2, 623124, Note_on_c, 0, 65, 75
2, 623130, Note_on_c, 0, 64, 0
2, 623232, Note_on_c, 0, 67, 80
2, 623244, Note_on_c, 0, 65, 0
2, 623348, Note_on_c, 0, 67, 0
2, 623352, Note_on_c, 0, 69, 62
2, 623378, Note_on_c, 0, 74, 0
2, 623378, Note_on_c, 0, 73, 55
2, 623390, Note_on_c, 0, 76, 67
2, 623428, Note_on_c, 0, 77, 0
2, 623432, Note_on_c, 0, 69, 0
2, 623490, Note_on_c, 0, 65, 47
2, 623586, Note_on_c, 0, 65, 0
2, 623610, Note_on_c, 0, 67, 55
2, 623670, Control_c, 0, 64, 127
2, 623672, Note_on_c, 0, 67, 0
2, 623708, Note_on_c, 0, 73, 0
2, 623720, Note_on_c, 0, 69, 45
2, 623742, Note_on_c, 0, 76, 0
2, 623804, Note_on_c, 0, 69, 0
2, 623868, Note_on_c, 0, 77, 76
2, 623874, Note_on_c, 0, 62, 54
2, 623884, Control_c, 0, 64, 0
2, 623964, Note_on_c, 0, 77, 0
2, 623972, Note_on_c, 0, 62, 0
2, 623984, Note_on_c, 0, 79, 87
2, 624104, Note_on_c, 0, 77, 82
2, 624107, Note_on_c, 0, 69, 53
2, 624126, Note_on_c, 0, 79, 0
2, 624166, Note_on_c, 0, 77, 0
2, 624180, Note_on_c, 0, 69, 0
2, 624218, Note_on_c, 0, 76, 61
2, 624304, Note_on_c, 0, 76, 0
2, 624332, Note_on_c, 0, 74, 77
2, 624364, Note_on_c, 0, 65, 41
2, 624424, Note_on_c, 0, 65, 0
2, 624440, Note_on_c, 0, 72, 88
2, 624448, Note_on_c, 0, 74, 0
2, 624572, Note_on_c, 0, 71, 95
2, 624592, Note_on_c, 0, 72, 0
2, 624592, Note_on_c, 0, 62, 39
2, 624660, Note_on_c, 0, 62, 0
2, 624674, Note_on_c, 0, 71, 0
2, 624682, Note_on_c, 0, 69, 77
2, 624808, Note_on_c, 0, 67, 91
2, 624826, Note_on_c, 0, 69, 0
2, 624829, Note_on_c, 0, 59, 47
2, 624892, Note_on_c, 0, 59, 0
2, 624928, Note_on_c, 0, 67, 0
2, 624928, Note_on_c, 0, 77, 95
2, 625036, Note_on_c, 0, 77, 0
2, 625054, Note_on_c, 0, 67, 86
2, 625066, Note_on_c, 0, 62, 46
2, 625124, Note_on_c, 0, 67, 0
2, 625136, Note_on_c, 0, 62, 0
2, 625172, Note_on_c, 0, 65, 75
2, 625266, Note_on_c, 0, 65, 0
2, 625294, Note_on_c, 0, 67, 83
2, 625304, Note_on_c, 0, 59, 44
2, 625354, Note_on_c, 0, 67, 0
2, 625368, Note_on_c, 0, 59, 0
2, 625402, Note_on_c, 0, 71, 84
2, 625472, Note_on_c, 0, 71, 0
2, 625540, Note_on_c, 0, 72, 56
2, 625550, Note_on_c, 0, 55, 51
2, 625610, Note_on_c, 0, 55, 0
2, 625630, Note_on_c, 0, 72, 0
2, 625652, Note_on_c, 0, 74, 76
2, 625728, Note_on_c, 0, 74, 0
2, 625778, Note_on_c, 0, 76, 83
2, 625786, Note_on_c, 0, 60, 57
2, 625884, Note_on_c, 0, 60, 0
2, 625898, Note_on_c, 0, 77, 86
2, 625906, Note_on_c, 0, 76, 0
2, 626012, Note_on_c, 0, 76, 62
2, 626012, Note_on_c, 0, 67, 51
2, 626018, Note_on_c, 0, 77, 0
2, 626084, Note_on_c, 0, 67, 0
2, 626098, Note_on_c, 0, 76, 0
2, 626136, Note_on_c, 0, 74, 77
2, 626238, Note_on_c, 0, 74, 0
2, 626258, Note_on_c, 0, 72, 68
2, 626274, Note_on_c, 0, 64, 45
2, 626328, Note_on_c, 0, 64, 0
2, 626366, Note_on_c, 0, 71, 85
2, 626374, Note_on_c, 0, 72, 0
2, 626494, Note_on_c, 0, 60, 48
2, 626494, Note_on_c, 0, 69, 65
2, 626506, Note_on_c, 0, 71, 0
2, 626558, Note_on_c, 0, 60, 0
2, 626588, Note_on_c, 0, 69, 0
2, 626596, Note_on_c, 0, 67, 74
2, 626696, Note_on_c, 0, 67, 0
2, 626722, Note_on_c, 0, 65, 65
2, 626744, Note_on_c, 0, 57, 40
2, 626788, Note_on_c, 0, 65, 0
2, 626810, Note_on_c, 0, 57, 0
2, 626834, Note_on_c, 0, 76, 68
2, 626938, Note_on_c, 0, 76, 0
2, 626950, Note_on_c, 0, 60, 42
2, 626953, Note_on_c, 0, 65, 64
2, 627020, Note_on_c, 0, 65, 0
2, 627042, Note_on_c, 0, 60, 0
2, 627084, Note_on_c, 0, 64, 72
2, 627162, Note_on_c, 0, 64, 0
2, 627196, Note_on_c, 0, 65, 75
2, 627214, Note_on_c, 0, 57, 41
2, 627246, Note_on_c, 0, 65, 0
2, 627286, Note_on_c, 0, 57, 0
2, 627304, Note_on_c, 0, 69, 74
2, 627398, Note_on_c, 0, 69, 0
2, 627436, Note_on_c, 0, 71, 65
2, 627439, Note_on_c, 0, 53, 86
2, 627488, Note_on_c, 0, 53, 0
2, 627538, Note_on_c, 0, 72, 84
2, 627540, Note_on_c, 0, 71, 0
2, 627596, Note_on_c, 0, 72, 0
2, 627656, Note_on_c, 0, 74, 97
2, 627682, Note_on_c, 0, 59, 51
2, 627748, Note_on_c, 0, 59, 0
2, 627778, Note_on_c, 0, 76, 80
2, 627794, Note_on_c, 0, 74, 0
2, 627882, Note_on_c, 0, 74, 83
2, 627906, Note_on_c, 0, 76, 0
2, 627906, Note_on_c, 0, 65, 48
2, 627970, Note_on_c, 0, 65, 0
2, 628002, Note_on_c, 0, 74, 0
2, 628012, Note_on_c, 0, 72, 86
2, 628118, Note_on_c, 0, 72, 0
2, 628130, Note_on_c, 0, 71, 88
2, 628133, Note_on_c, 0, 62, 56
2, 628190, Note_on_c, 0, 62, 0
2, 628230, Note_on_c, 0, 71, 0
2, 628230, Note_on_c, 0, 69, 70
2, 628330, Note_on_c, 0, 59, 47
2, 628346, Note_on_c, 0, 68, 70
2, 628376, Note_on_c, 0, 69, 0
2, 628384, Note_on_c, 0, 59, 0
2, 628462, Note_on_c, 0, 66, 63
2, 628482, Note_on_c, 0, 68, 0
2, 628598, Note_on_c, 0, 66, 0
2, 628598, Note_on_c, 0, 56, 55
2, 628598, Note_on_c, 0, 64, 80
2, 628658, Note_on_c, 0, 56, 0
2, 628732, Note_on_c, 0, 62, 39
2, 628808, Note_on_c, 0, 62, 0
2, 628846, Note_on_c, 0, 52, 70
2, 628854, Note_on_c, 0, 68, 65
2, 628900, Note_on_c, 0, 52, 0
2, 628954, Note_on_c, 0, 68, 0
2, 628954, Note_on_c, 0, 66, 74
2, 628964, Note_on_c, 0, 50, 62
2, 629056, Note_on_c, 0, 52, 99
2, 629066, Note_on_c, 0, 50, 0
2, 629086, Note_on_c, 0, 68, 85
2, 629106, Note_on_c, 0, 66, 0
2, 629156, Note_on_c, 0, 52, 0
2, 629162, Note_on_c, 0, 68, 0
2, 629206, Note_on_c, 0, 62, 65
2, 629264, Note_on_c, 0, 62, 0
2, 629332, Note_on_c, 0, 69, 85
2, 629336, Note_on_c, 0, 54, 68
2, 629398, Note_on_c, 0, 54, 0
2, 629420, Note_on_c, 0, 69, 0
2, 629472, Note_on_c, 0, 62, 54
2, 629530, Note_on_c, 0, 62, 0
2, 629594, Note_on_c, 0, 71, 101
2, 629604, Note_on_c, 0, 56, 56
2, 629660, Note_on_c, 0, 64, 0
2, 629662, Note_on_c, 0, 56, 0
2, 629730, Note_on_c, 0, 62, 42
2, 629796, Note_on_c, 0, 62, 0
2, 629840, Note_on_c, 0, 56, 55
2, 629860, Note_on_c, 0, 64, 77
2, 629906, Note_on_c, 0, 56, 0
2, 629936, Note_on_c, 0, 64, 0
2, 629954, Note_on_c, 0, 62, 74
2, 629970, Note_on_c, 0, 54, 68
2, 630028, Note_on_c, 0, 62, 0
2, 630070, Note_on_c, 0, 54, 0
2, 630080, Note_on_c, 0, 64, 87
2, 630088, Note_on_c, 0, 56, 54
2, 630126, Note_on_c, 0, 64, 0
2, 630148, Note_on_c, 0, 56, 0
2, 630198, Note_on_c, 0, 62, 52
2, 630256, Note_on_c, 0, 62, 0
2, 630324, Note_on_c, 0, 57, 52
2, 630336, Note_on_c, 0, 66, 57
2, 630386, Note_on_c, 0, 57, 0
2, 630390, Note_on_c, 0, 66, 0
2, 630464, Note_on_c, 0, 62, 51
2, 630524, Note_on_c, 0, 62, 0
2, 630580, Note_on_c, 0, 71, 0
2, 630590, Note_on_c, 0, 68, 72
2, 630622, Note_on_c, 0, 59, 44
2, 630686, Note_on_c, 0, 59, 0
2, 630740, Note_on_c, 0, 62, 55
2, 630812, Note_on_c, 0, 62, 0
2, 630848, Note_on_c, 0, 74, 79
2, 630870, Note_on_c, 0, 59, 40
2, 630936, Note_on_c, 0, 59, 0
2, 630936, Note_on_c, 0, 74, 0
2, 630954, Note_on_c, 0, 72, 72
2, 630964, Note_on_c, 0, 57, 56
2, 631040, Note_on_c, 0, 57, 0
2, 631056, Note_on_c, 0, 72, 0
2, 631082, Note_on_c, 0, 74, 87
2, 631108, Note_on_c, 0, 59, 62
2, 631132, Note_on_c, 0, 74, 0
2, 631148, Note_on_c, 0, 68, 0
2, 631158, Note_on_c, 0, 59, 0
2, 631208, Note_on_c, 0, 62, 59
2, 631268, Note_on_c, 0, 62, 0
2, 631328, Note_on_c, 0, 77, 85
2, 631334, Note_on_c, 0, 69, 57
2, 631344, Note_on_c, 0, 57, 48
2, 631400, Note_on_c, 0, 69, 0
2, 631406, Note_on_c, 0, 57, 0
2, 631478, Note_on_c, 0, 62, 56
2, 631538, Note_on_c, 0, 62, 0
2, 631600, Note_on_c, 0, 71, 85
2, 631603, Note_on_c, 0, 56, 53
2, 631666, Note_on_c, 0, 56, 0
2, 631742, Note_on_c, 0, 62, 46
2, 631814, Note_on_c, 0, 62, 0
2, 631834, Note_on_c, 0, 77, 0
2, 631854, Note_on_c, 0, 56, 65
2, 631857, Note_on_c, 0, 76, 86
2, 631922, Note_on_c, 0, 56, 0
2, 631968, Note_on_c, 0, 74, 99
2, 631968, Note_on_c, 0, 54, 69
2, 631974, Note_on_c, 0, 76, 0
2, 632046, Note_on_c, 0, 54, 0
2, 632066, Note_on_c, 0, 74, 0
2, 632078, Note_on_c, 0, 56, 53
2, 632086, Note_on_c, 0, 76, 93
2, 632148, Note_on_c, 0, 56, 0
2, 632172, Note_on_c, 0, 71, 0
2, 632192, Note_on_c, 0, 76, 0
2, 632194, Note_on_c, 0, 62, 62
2, 632260, Note_on_c, 0, 62, 0
2, 632330, Note_on_c, 0, 81, 107
2, 632333, Note_on_c, 0, 69, 85
2, 632344, Note_on_c, 0, 53, 88
2, 632404, Note_on_c, 0, 53, 0
2, 632416, Note_on_c, 0, 69, 0
2, 632470, Note_on_c, 0, 62, 70
2, 632530, Note_on_c, 0, 62, 0
2, 632596, Note_on_c, 0, 71, 95
2, 632604, Note_on_c, 0, 52, 80
2, 632654, Note_on_c, 0, 52, 0
2, 632688, Note_on_c, 0, 71, 0
2, 632726, Note_on_c, 0, 62, 74
2, 632788, Note_on_c, 0, 62, 0
2, 632848, Note_on_c, 0, 80, 101
2, 632860, Note_on_c, 0, 52, 84
2, 632863, Note_on_c, 0, 76, 79
2, 632870, Note_on_c, 0, 81, 0
2, 632926, Note_on_c, 0, 52, 0
2, 632970, Note_on_c, 0, 78, 98
2, 632980, Note_on_c, 0, 50, 75
2, 632992, Note_on_c, 0, 80, 0
2, 633076, Note_on_c, 0, 80, 84
2, 633084, Note_on_c, 0, 50, 0
2, 633086, Note_on_c, 0, 52, 87
2, 633130, Note_on_c, 0, 78, 0
2, 633212, Note_on_c, 0, 52, 0
2, 633220, Note_on_c, 0, 62, 63
2, 633276, Note_on_c, 0, 62, 0
2, 633290, Note_on_c, 0, 80, 0
2, 633320, Note_on_c, 0, 76, 0
2, 633330, Note_on_c, 0, 54, 84
2, 633338, Note_on_c, 0, 81, 91
2, 633341, Note_on_c, 0, 74, 88
2, 633392, Note_on_c, 0, 74, 0
2, 633398, Note_on_c, 0, 54, 0
2, 633410, Control_c, 0, 64, 127
2, 633456, Note_on_c, 0, 62, 55
2, 633478, Note_on_c, 0, 81, 0
2, 633481, Note_on_c, 0, 72, 32
2, 633485, Note_on_c, 0, 74, 44
2, 633534, Control_c, 0, 64, 0
2, 633538, Note_on_c, 0, 62, 0
2, 633548, Note_on_c, 0, 72, 0
2, 633552, Note_on_c, 0, 74, 0
2, 633576, Note_on_c, 0, 83, 127
2, 633588, Note_on_c, 0, 71, 103
2, 633590, Note_on_c, 0, 56, 69
2, 633668, Note_on_c, 0, 56, 0
2, 633720, Note_on_c, 0, 83, 0
2, 633726, Note_on_c, 0, 62, 57
2, 633736, Note_on_c, 0, 71, 0
2, 633764, Control_c, 0, 64, 127
2, 633786, Note_on_c, 0, 62, 0
2, 633838, Note_on_c, 0, 83, 123
2, 633841, Note_on_c, 0, 56, 60
2, 633858, Control_c, 0, 64, 0
2, 633906, Note_on_c, 0, 56, 0
2, 633946, Note_on_c, 0, 81, 108
2, 633952, Note_on_c, 0, 54, 80
2, 633960, Note_on_c, 0, 83, 0
2, 634074, Note_on_c, 0, 83, 127
2, 634088, Note_on_c, 0, 56, 74
2, 634091, Note_on_c, 0, 54, 0
2, 634140, Note_on_c, 0, 81, 0
2, 634172, Note_on_c, 0, 56, 0
2, 634196, Note_on_c, 0, 83, 0
2, 634214, Note_on_c, 0, 62, 55
2, 634270, Note_on_c, 0, 62, 0
2, 634326, Note_on_c, 0, 84, 116
2, 634334, Note_on_c, 0, 57, 64
2, 634406, Note_on_c, 0, 57, 0
2, 634428, Note_on_c, 0, 84, 0
2, 634480, Note_on_c, 0, 62, 52
2, 634542, Note_on_c, 0, 62, 0
2, 634614, Note_on_c, 0, 74, 72
2, 634616, Note_on_c, 0, 59, 56
2, 634674, Note_on_c, 0, 59, 0
2, 634742, Note_on_c, 0, 62, 64
2, 634806, Note_on_c, 0, 62, 0
2, 634880, Note_on_c, 0, 68, 62
2, 634894, Note_on_c, 0, 59, 39
2, 634952, Note_on_c, 0, 68, 0
2, 634966, Note_on_c, 0, 59, 0
2, 634982, Note_on_c, 0, 66, 53
2, 634985, Note_on_c, 0, 57, 47
2, 635062, Note_on_c, 0, 66, 0
2, 635064, Note_on_c, 0, 57, 0
2, 635100, Note_on_c, 0, 68, 65
2, 635124, Note_on_c, 0, 59, 48
2, 635184, Note_on_c, 0, 59, 0
2, 635184, Note_on_c, 0, 68, 0
2, 635236, Note_on_c, 0, 62, 55
2, 635300, Note_on_c, 0, 62, 0
2, 635356, Note_on_c, 0, 57, 59
2, 635359, Note_on_c, 0, 71, 74
2, 635418, Note_on_c, 0, 57, 0
2, 635466, Note_on_c, 0, 71, 0
2, 635516, Note_on_c, 0, 62, 40
2, 635584, Note_on_c, 0, 62, 0
2, 635606, Note_on_c, 0, 64, 77
2, 635609, Note_on_c, 0, 56, 63
2, 635678, Note_on_c, 0, 56, 0
2, 635760, Note_on_c, 0, 62, 57
2, 635820, Note_on_c, 0, 62, 0
2, 635856, Note_on_c, 0, 52, 84
2, 635954, Note_on_c, 0, 54, 85
2, 635958, Note_on_c, 0, 52, 0
2, 636078, Note_on_c, 0, 56, 82
2, 636091, Note_on_c, 0, 54, 0
2, 636186, Note_on_c, 0, 57, 86
2, 636191, Note_on_c, 0, 56, 0
2, 636306, Note_on_c, 0, 57, 0
2, 636312, Note_on_c, 0, 59, 76
2, 636442, Note_on_c, 0, 59, 0
2, 636448, Note_on_c, 0, 60, 61
2, 636520, Note_on_c, 0, 64, 0
2, 636536, Note_on_c, 0, 60, 0
2, 636560, Note_on_c, 0, 62, 83
2, 636640, Note_on_c, 0, 74, 0
2, 636643, Note_on_c, 0, 62, 0
2, 636670, Note_on_c, 0, 64, 82
2, 636690, Note_on_c, 0, 60, 72
2, 636758, Note_on_c, 0, 64, 0
2, 636790, Note_on_c, 0, 66, 78
2, 636812, Note_on_c, 0, 60, 0
2, 636820, Note_on_c, 0, 59, 80
2, 636866, Note_on_c, 0, 59, 0
2, 636906, Note_on_c, 0, 68, 93
2, 636928, Note_on_c, 0, 57, 79
2, 636946, Note_on_c, 0, 66, 0
2, 637004, Note_on_c, 0, 57, 0
2, 637024, Note_on_c, 0, 69, 102
2, 637044, Note_on_c, 0, 56, 75
2, 637048, Note_on_c, 0, 68, 0
2, 637122, Note_on_c, 0, 56, 0
2, 637142, Note_on_c, 0, 69, 0
2, 637142, Note_on_c, 0, 54, 82
2, 637145, Note_on_c, 0, 71, 114
2, 637190, Note_on_c, 0, 54, 0
2, 637246, Note_on_c, 0, 52, 93
2, 637254, Note_on_c, 0, 72, 109
2, 637298, Note_on_c, 0, 71, 0
2, 637301, Note_on_c, 0, 52, 0
2, 637368, Note_on_c, 0, 74, 115
2, 637368, Note_on_c, 0, 50, 87
2, 637430, Note_on_c, 0, 72, 0
2, 637466, Note_on_c, 0, 50, 0
2, 637478, Note_on_c, 0, 76, 110
2, 637488, Note_on_c, 0, 48, 77
2, 637538, Note_on_c, 0, 74, 0
2, 637560, Note_on_c, 0, 76, 0
2, 637574, Note_on_c, 0, 48, 0
2, 637604, Note_on_c, 0, 45, 80
2, 637732, Note_on_c, 0, 47, 83
2, 637744, Note_on_c, 0, 76, 101
2, 637744, Note_on_c, 0, 72, 94
2, 637752, Note_on_c, 0, 69, 78
2, 637755, Note_on_c, 0, 45, 0
2, 637792, Note_on_c, 0, 72, 0
2, 637798, Note_on_c, 0, 76, 0
2, 637800, Note_on_c, 0, 69, 0
2, 637844, Note_on_c, 0, 48, 77
2, 637870, Note_on_c, 0, 47, 0
2, 637984, Note_on_c, 0, 48, 0
2, 637984, Note_on_c, 0, 76, 86
2, 637986, Note_on_c, 0, 71, 91
2, 637990, Note_on_c, 0, 50, 93
2, 637992, Note_on_c, 0, 68, 68
2, 638032, Note_on_c, 0, 71, 0
2, 638032, Note_on_c, 0, 76, 0
2, 638040, Note_on_c, 0, 68, 0
2, 638064, Note_on_c, 0, 50, 0
2, 638110, Note_on_c, 0, 52, 92
2, 638216, Note_on_c, 0, 74, 100
2, 638228, Note_on_c, 0, 52, 0
2, 638228, Note_on_c, 0, 64, 84
2, 638231, Note_on_c, 0, 54, 92
2, 638234, Note_on_c, 0, 71, 84
2, 638276, Note_on_c, 0, 64, 0
2, 638278, Note_on_c, 0, 71, 0
2, 638314, Note_on_c, 0, 74, 0
2, 638346, Note_on_c, 0, 56, 76
2, 638370, Note_on_c, 0, 54, 0
2, 638444, Note_on_c, 0, 56, 0
2, 638456, Note_on_c, 0, 57, 78
2, 638464, Note_on_c, 0, 72, 107
2, 638476, Note_on_c, 0, 69, 76
2, 638486, Note_on_c, 0, 64, 87
2, 638568, Note_on_c, 0, 57, 0
2, 638590, Note_on_c, 0, 59, 76
2, 638652, Note_on_c, 0, 64, 0
2, 638720, Note_on_c, 0, 60, 80
2, 638744, Note_on_c, 0, 59, 0
2, 638818, Note_on_c, 0, 62, 79
2, 638836, Note_on_c, 0, 60, 0
2, 638874, Note_on_c, 0, 62, 0
2, 638944, Note_on_c, 0, 64, 83
2, 638946, Note_on_c, 0, 71, 102
2, 638952, Note_on_c, 0, 68, 57
2, 638960, Note_on_c, 0, 69, 0
2, 638980, Note_on_c, 0, 72, 0
2, 639096, Note_on_c, 0, 59, 48
2, 639160, Note_on_c, 0, 59, 0
2, 639163, Note_on_c, 0, 56, 60
2, 639240, Note_on_c, 0, 56, 0
2, 639250, Control_c, 0, 64, 127
2, 639256, Note_on_c, 0, 68, 0
2, 639282, Note_on_c, 0, 52, 65
2, 639296, Note_on_c, 0, 64, 0
2, 639330, Note_on_c, 0, 52, 0
2, 639358, Control_c, 0, 64, 0
2, 639361, Note_on_c, 0, 71, 0
2, 639448, Note_on_c, 0, 74, 80
2, 639476, Note_on_c, 0, 53, 75
2, 639526, Note_on_c, 0, 53, 0
2, 639556, Note_on_c, 0, 65, 63
2, 639564, Note_on_c, 0, 69, 38
2, 639572, Control_c, 0, 64, 127
2, 639622, Note_on_c, 0, 65, 0
2, 639650, Note_on_c, 0, 69, 0
2, 639662, Note_on_c, 0, 68, 51
2, 639708, Note_on_c, 0, 64, 42
2, 639716, Note_on_c, 0, 74, 0
2, 639764, Note_on_c, 0, 68, 0
2, 639770, Note_on_c, 0, 64, 0
2, 639776, Note_on_c, 0, 69, 17
2, 639812, Note_on_c, 0, 65, 67
2, 639864, Note_on_c, 0, 65, 0
2, 639880, Control_c, 0, 64, 0
2, 639904, Note_on_c, 0, 69, 0
2, 639948, Note_on_c, 0, 53, 100
2, 639948, Note_on_c, 0, 74, 84
2, 640016, Note_on_c, 0, 53, 0
2, 640054, Note_on_c, 0, 65, 69
2, 640066, Note_on_c, 0, 69, 42
2, 640069, Note_on_c, 0, 74, 0
2, 640106, Note_on_c, 0, 65, 0
2, 640146, Note_on_c, 0, 69, 0
2, 640176, Note_on_c, 0, 72, 80
2, 640202, Note_on_c, 0, 52, 84
2, 640268, Note_on_c, 0, 52, 0
2, 640282, Note_on_c, 0, 69, 69
2, 640302, Note_on_c, 0, 64, 71
2, 640308, Note_on_c, 0, 72, 0
2, 640338, Note_on_c, 0, 69, 0
2, 640352, Note_on_c, 0, 64, 0
2, 640420, Note_on_c, 0, 71, 109
2, 640440, Note_on_c, 0, 50, 87
2, 640532, Note_on_c, 0, 69, 64
2, 640538, Note_on_c, 0, 53, 105
2, 640546, Note_on_c, 0, 50, 0
2, 640602, Control_c, 0, 64, 127
2, 640648, Note_on_c, 0, 53, 0
2, 640650, Note_on_c, 0, 68, 55
2, 640662, Note_on_c, 0, 69, 0
2, 640682, Note_on_c, 0, 52, 86
2, 640686, Note_on_c, 0, 71, 0
2, 640730, Note_on_c, 0, 69, 61
2, 640770, Note_on_c, 0, 68, 0
2, 640790, Note_on_c, 0, 53, 102
2, 640808, Note_on_c, 0, 52, 0
2, 640846, Note_on_c, 0, 53, 0
2, 640878, Control_c, 0, 64, 0
2, 640882, Note_on_c, 0, 69, 0
2, 640892, Note_on_c, 0, 71, 103
2, 640904, Note_on_c, 0, 50, 97
2, 641000, Note_on_c, 0, 69, 69
2, 641008, Note_on_c, 0, 62, 82
2, 641014, Note_on_c, 0, 50, 0
2, 641028, Note_on_c, 0, 71, 0
2, 641064, Note_on_c, 0, 62, 0
2, 641096, Note_on_c, 0, 69, 0
2, 641132, Note_on_c, 0, 72, 95
2, 641150, Note_on_c, 0, 52, 106
2, 641228, Note_on_c, 0, 69, 75
2, 641240, Note_on_c, 0, 72, 0
2, 641252, Note_on_c, 0, 64, 84
2, 641260, Note_on_c, 0, 52, 0
2, 641278, Note_on_c, 0, 69, 0
2, 641302, Note_on_c, 0, 64, 0
2, 641380, Note_on_c, 0, 74, 125
2, 641390, Note_on_c, 0, 53, 109
2, 641500, Note_on_c, 0, 57, 77
2, 641602, Note_on_c, 0, 74, 0
2, 641618, Note_on_c, 0, 57, 0
2, 641618, Note_on_c, 0, 56, 70
2, 641634, Note_on_c, 0, 81, 110
2, 641634, Note_on_c, 0, 72, 94
2, 641690, Note_on_c, 0, 72, 0
2, 641738, Note_on_c, 0, 57, 45
2, 641744, Note_on_c, 0, 81, 0
2, 641764, Note_on_c, 0, 56, 0
2, 641844, Note_on_c, 0, 57, 0
2, 641870, Note_on_c, 0, 80, 109
2, 641876, Note_on_c, 0, 71, 105
2, 641882, Note_on_c, 0, 62, 69
2, 641922, Note_on_c, 0, 71, 0
2, 641944, Note_on_c, 0, 62, 0
2, 641986, Note_on_c, 0, 80, 0
2, 641994, Note_on_c, 0, 57, 78
2, 642006, Note_on_c, 0, 53, 0
2, 642064, Note_on_c, 0, 57, 0
2, 642112, Note_on_c, 0, 81, 116
2, 642118, Note_on_c, 0, 69, 88
2, 642126, Note_on_c, 0, 60, 77
2, 642138, Note_on_c, 0, 52, 80
2, 642170, Note_on_c, 0, 69, 0
2, 642200, Note_on_c, 0, 81, 0
2, 642252, Note_on_c, 0, 60, 0
2, 642254, Note_on_c, 0, 57, 77
2, 642282, Note_on_c, 0, 52, 0
2, 642342, Note_on_c, 0, 57, 0
2, 642382, Note_on_c, 0, 68, 93
2, 642385, Note_on_c, 0, 76, 98
2, 642400, Note_on_c, 0, 50, 88
2, 642400, Note_on_c, 0, 59, 77
2, 642480, Note_on_c, 0, 59, 0
2, 642516, Note_on_c, 0, 57, 72
2, 642602, Note_on_c, 0, 57, 0
2, 642630, Note_on_c, 0, 56, 69
2, 642760, Note_on_c, 0, 57, 70
2, 642763, Note_on_c, 0, 56, 0
2, 642840, Note_on_c, 0, 57, 0
2, 642878, Note_on_c, 0, 59, 72
2, 642932, Note_on_c, 0, 59, 0
2, 642984, Note_on_c, 0, 57, 76
2, 642996, Note_on_c, 0, 50, 0
2, 643030, Note_on_c, 0, 76, 0
2, 643056, Note_on_c, 0, 57, 0
2, 643104, Note_on_c, 0, 76, 71
2, 643110, Note_on_c, 0, 68, 0
2, 643122, Note_on_c, 0, 69, 68
2, 643128, Note_on_c, 0, 60, 57
2, 643130, Note_on_c, 0, 48, 84
2, 643212, Note_on_c, 0, 60, 0
2, 643236, Note_on_c, 0, 76, 0
2, 643236, Note_on_c, 0, 69, 0
2, 643236, Note_on_c, 0, 57, 64
2, 643242, Note_on_c, 0, 48, 0
2, 643372, Note_on_c, 0, 74, 90
2, 643380, Note_on_c, 0, 57, 0
2, 643380, Note_on_c, 0, 62, 71
2, 643392, Note_on_c, 0, 53, 116
2, 643427, Note_on_c, 0, 62, 0
2, 643474, Note_on_c, 0, 53, 0
2, 643482, Note_on_c, 0, 69, 59
2, 643502, Note_on_c, 0, 74, 0
2, 643608, Note_on_c, 0, 69, 0
2, 643624, Note_on_c, 0, 72, 84
2, 643632, Note_on_c, 0, 52, 107
2, 643680, Note_on_c, 0, 52, 0
2, 643742, Note_on_c, 0, 69, 70
2, 643748, Note_on_c, 0, 72, 0
2, 643884, Note_on_c, 0, 50, 100
2, 643884, Note_on_c, 0, 71, 107
2, 643892, Note_on_c, 0, 69, 0
2, 643942, Note_on_c, 0, 50, 0
2, 643996, Note_on_c, 0, 69, 60
2, 644104, Note_on_c, 0, 68, 84
2, 644136, Note_on_c, 0, 47, 88
2, 644174, Note_on_c, 0, 69, 0
2, 644188, Note_on_c, 0, 47, 0
2, 644234, Note_on_c, 0, 66, 76
2, 644286, Note_on_c, 0, 68, 0
2, 644290, Note_on_c, 0, 71, 0
2, 644378, Note_on_c, 0, 44, 92
2, 644381, Note_on_c, 0, 64, 100
2, 644414, Note_on_c, 0, 66, 0
2, 644420, Note_on_c, 0, 44, 0
2, 644496, Note_on_c, 0, 64, 0
2, 644502, Note_on_c, 0, 71, 101
2, 644628, Note_on_c, 0, 62, 94
2, 644636, Note_on_c, 0, 71, 0
2, 644638, Note_on_c, 0, 40, 88
2, 644678, Note_on_c, 0, 40, 0
2, 644730, Note_on_c, 0, 71, 71
2, 644772, Note_on_c, 0, 62, 0
2, 644866, Note_on_c, 0, 71, 0
2, 644870, Note_on_c, 0, 45, 72
2, 644874, Note_on_c, 0, 60, 97
2, 644966, Note_on_c, 0, 47, 80
2, 644992, Note_on_c, 0, 71, 94
2, 644998, Note_on_c, 0, 45, 0
2, 645080, Note_on_c, 0, 48, 78
2, 645096, Note_on_c, 0, 47, 0
2, 645106, Note_on_c, 0, 69, 82
2, 645118, Note_on_c, 0, 71, 0
2, 645202, Note_on_c, 0, 48, 0
2, 645202, Note_on_c, 0, 50, 98
2, 645220, Note_on_c, 0, 68, 98
2, 645236, Note_on_c, 0, 69, 0
2, 645316, Note_on_c, 0, 50, 0
2, 645342, Note_on_c, 0, 52, 115
2, 645348, Note_on_c, 0, 69, 91
2, 645414, Note_on_c, 0, 60, 0
2, 645417, Note_on_c, 0, 68, 0
2, 645446, Note_on_c, 0, 69, 0
2, 645452, Note_on_c, 0, 52, 0
2, 645464, Note_on_c, 0, 50, 105
2, 645574, Note_on_c, 0, 50, 0
2, 645576, Note_on_c, 0, 76, 110
2, 645584, Note_on_c, 0, 69, 87
2, 645588, Note_on_c, 0, 64, 83
2, 645590, Note_on_c, 0, 48, 85
2, 645622, Note_on_c, 0, 76, 0
2, 645634, Note_on_c, 0, 69, 0
2, 645636, Note_on_c, 0, 64, 0
2, 645690, Note_on_c, 0, 48, 0
2, 645720, Note_on_c, 0, 50, 82
2, 645772, Note_on_c, 0, 50, 0
2, 645832, Note_on_c, 0, 72, 111
2, 645836, Note_on_c, 0, 69, 91
2, 645840, Note_on_c, 0, 64, 107
2, 645852, Note_on_c, 0, 52, 98
2, 645936, Note_on_c, 0, 52, 0
2, 645939, Note_on_c, 0, 64, 0
2, 645952, Note_on_c, 0, 69, 0
2, 645980, Control_c, 0, 64, 127
2, 646114, Note_on_c, 0, 68, 82
2, 646118, Note_on_c, 0, 62, 95
2, 646120, Note_on_c, 0, 71, 101
2, 646124, Note_on_c, 0, 40, 105
2, 646154, Note_on_c, 0, 72, 0
2, 646172, Note_on_c, 0, 68, 0
2, 646188, Note_on_c, 0, 62, 0
2, 646198, Note_on_c, 0, 40, 0
2, 646228, Note_on_c, 0, 69, 88
2, 646268, Note_on_c, 0, 71, 0
2, 646274, Note_on_c, 0, 69, 0
2, 646302, Control_c, 0, 64, 0
2, 646396, Note_on_c, 0, 33, 110
2, 646398, Note_on_c, 0, 64, 110
2, 646398, Note_on_c, 0, 60, 108
2, 646398, Note_on_c, 0, 69, 107
2, 646564, Note_on_c, 0, 33, 0
2, 646586, Note_on_c, 0, 45, 65
2, 646594, Control_c, 0, 64, 127
2, 646698, Note_on_c, 0, 45, 0
2, 646722, Note_on_c, 0, 47, 82
2, 646778, Note_on_c, 0, 64, 0
2, 646836, Note_on_c, 0, 48, 91
2, 646846, Note_on_c, 0, 47, 0
2, 646954, Note_on_c, 0, 50, 102
2, 646962, Note_on_c, 0, 48, 0
2, 646980, Note_on_c, 0, 60, 0
2, 647064, Note_on_c, 0, 50, 0
2, 647066, Note_on_c, 0, 52, 106
2, 647088, Note_on_c, 0, 69, 0
2, 647168, Note_on_c, 0, 52, 0
2, 647192, Note_on_c, 0, 53, 106
2, 647292, Note_on_c, 0, 55, 106
2, 647300, Control_c, 0, 64, 0
2, 647320, Note_on_c, 0, 53, 0
2, 647420, Note_on_c, 0, 55, 0
2, 647422, Note_on_c, 0, 57, 105
2, 647532, Control_c, 0, 64, 127
2, 647554, Note_on_c, 0, 59, 94
2, 647678, Note_on_c, 0, 60, 106
2, 647778, Note_on_c, 0, 59, 0
2, 647784, Note_on_c, 0, 62, 92
2, 647904, Note_on_c, 0, 60, 0
2, 647908, Note_on_c, 0, 64, 114
2, 647976, Note_on_c, 0, 62, 0
2, 648004, Note_on_c, 0, 65, 97
2, 648120, Note_on_c, 0, 67, 105
2, 648168, Note_on_c, 0, 65, 0
2, 648202, Note_on_c, 0, 60, 7
2, 648226, Note_on_c, 0, 69, 94
2, 648266, Note_on_c, 0, 67, 0
2, 648343, Note_on_c, 0, 70, 106
2, 648350, Note_on_c, 0, 57, 0
2, 648364, Note_on_c, 0, 55, 102
2, 648386, Note_on_c, 0, 69, 0
2, 648422, Control_c, 0, 64, 0
2, 648476, Note_on_c, 0, 72, 115
2, 648510, Note_on_c, 0, 70, 0
2, 648576, Control_c, 0, 64, 127
2, 648588, Note_on_c, 0, 74, 124
2, 648632, Note_on_c, 0, 72, 0
2, 648710, Note_on_c, 0, 76, 115
2, 648744, Note_on_c, 0, 74, 0
2, 648812, Note_on_c, 0, 60, 0
2, 648820, Note_on_c, 0, 77, 121
2, 648824, Note_on_c, 0, 58, 75
2, 648844, Note_on_c, 0, 76, 0
2, 648900, Control_c, 0, 64, 0
2, 648932, Note_on_c, 0, 79, 125
2, 648978, Note_on_c, 0, 77, 0
2, 649048, Note_on_c, 0, 81, 118
2, 649052, Control_c, 0, 64, 127
2, 649084, Note_on_c, 0, 55, 0
2, 649087, Note_on_c, 0, 58, 0
2, 649087, Note_on_c, 0, 64, 0
2, 649098, Note_on_c, 0, 79, 0
2, 649170, Note_on_c, 0, 82, 108
2, 649252, Note_on_c, 0, 81, 0
2, 649274, Note_on_c, 0, 65, 72
2, 649286, Note_on_c, 0, 57, 53
2, 649298, Note_on_c, 0, 53, 94
2, 649306, Note_on_c, 0, 84, 127
2, 649318, Note_on_c, 0, 65, 0
2, 649340, Note_on_c, 0, 53, 0
2, 649348, Note_on_c, 0, 57, 0
2, 649374, Note_on_c, 0, 82, 0
2, 649408, Note_on_c, 0, 84, 0
2, 649448, Note_on_c, 0, 41, 110
2, 649546, Note_on_c, 0, 43, 101
2, 649548, Note_on_c, 0, 84, 126
2, 649550, Note_on_c, 0, 77, 114
2, 649554, Note_on_c, 0, 81, 106
2, 649582, Note_on_c, 0, 41, 0
2, 649584, Note_on_c, 0, 77, 0
2, 649588, Note_on_c, 0, 81, 0
2, 649636, Control_c, 0, 64, 0
2, 649644, Note_on_c, 0, 84, 0
2, 649660, Note_on_c, 0, 45, 98
2, 649712, Note_on_c, 0, 43, 0
2, 649784, Note_on_c, 0, 84, 120
2, 649792, Note_on_c, 0, 76, 102
2, 649792, Note_on_c, 0, 79, 110
2, 649798, Note_on_c, 0, 46, 95
2, 649816, Note_on_c, 0, 45, 0
2, 649828, Note_on_c, 0, 79, 0
2, 649832, Note_on_c, 0, 76, 0
2, 649880, Note_on_c, 0, 84, 0
2, 649904, Note_on_c, 0, 48, 92
2, 649922, Note_on_c, 0, 46, 0
2, 650000, Note_on_c, 0, 48, 0
2, 650016, Note_on_c, 0, 82, 107
2, 650026, Note_on_c, 0, 79, 108
2, 650026, Note_on_c, 0, 50, 97
2, 650026, Note_on_c, 0, 72, 92
2, 650062, Note_on_c, 0, 79, 0
2, 650068, Note_on_c, 0, 72, 0
2, 650136, Note_on_c, 0, 82, 0
2, 650148, Note_on_c, 0, 52, 99
2, 650154, Note_on_c, 0, 50, 0
2, 650236, Note_on_c, 0, 52, 0
2, 650262, Note_on_c, 0, 81, 113
2, 650262, Note_on_c, 0, 53, 114
2, 650265, Note_on_c, 0, 72, 103
2, 650274, Note_on_c, 0, 77, 88
2, 650376, Note_on_c, 0, 53, 0
2, 650384, Note_on_c, 0, 55, 95
2, 650492, Note_on_c, 0, 77, 0
2, 650500, Note_on_c, 0, 72, 0
2, 650500, Note_on_c, 0, 57, 75
2, 650518, Note_on_c, 0, 55, 0
2, 650616, Note_on_c, 0, 58, 62
2, 650622, Note_on_c, 0, 57, 0
2, 650716, Note_on_c, 0, 58, 0
2, 650732, Note_on_c, 0, 72, 100
2, 650734, Note_on_c, 0, 79, 101
2, 650740, Note_on_c, 0, 60, 79
2, 650740, Note_on_c, 0, 76, 70
2, 650764, Note_on_c, 0, 81, 0
2, 650800, Note_on_c, 0, 76, 0
2, 650816, Note_on_c, 0, 60, 0
2, 650860, Note_on_c, 0, 62, 70
2, 650914, Note_on_c, 0, 76, 8
2, 650930, Note_on_c, 0, 62, 0
2, 650940, Note_on_c, 0, 79, 0
2, 650974, Note_on_c, 0, 76, 0
2, 650990, Note_on_c, 0, 64, 68
2, 651040, Note_on_c, 0, 64, 0
2, 651088, Note_on_c, 0, 60, 71
2, 651154, Note_on_c, 0, 60, 0
2, 651212, Note_on_c, 0, 65, 92
2, 651250, Control_c, 0, 64, 127
2, 651294, Note_on_c, 0, 65, 0
2, 651330, Note_on_c, 0, 69, 55
2, 651372, Control_c, 0, 64, 0
2, 651410, Note_on_c, 0, 69, 0
2, 651416, Note_on_c, 0, 72, 0
2, 651450, Note_on_c, 0, 65, 63
2, 651462, Note_on_c, 0, 60, 65
2, 651508, Note_on_c, 0, 65, 0
2, 651516, Note_on_c, 0, 60, 0
2, 651558, Note_on_c, 0, 69, 52
2, 651664, Note_on_c, 0, 69, 0
2, 651692, Note_on_c, 0, 57, 55
2, 651695, Note_on_c, 0, 72, 71
2, 651746, Note_on_c, 0, 57, 0
2, 651754, Note_on_c, 0, 72, 0
2, 651816, Note_on_c, 0, 69, 60
2, 651898, Note_on_c, 0, 69, 0
2, 651934, Note_on_c, 0, 53, 88
2, 651942, Note_on_c, 0, 75, 68
2, 651984, Note_on_c, 0, 53, 0
2, 652048, Note_on_c, 0, 69, 52
2, 652066, Note_on_c, 0, 75, 0
2, 652130, Note_on_c, 0, 69, 0
2, 652180, Note_on_c, 0, 65, 62
2, 652194, Note_on_c, 0, 74, 77
2, 652248, Note_on_c, 0, 65, 0
2, 652310, Note_on_c, 0, 70, 47
2, 652424, Note_on_c, 0, 70, 0
2, 652430, Note_on_c, 0, 65, 42
2, 652438, Note_on_c, 0, 62, 54
2, 652454, Note_on_c, 0, 74, 0
2, 652490, Note_on_c, 0, 62, 0
2, 652550, Note_on_c, 0, 70, 38
2, 652594, Note_on_c, 0, 65, 0
2, 652636, Note_on_c, 0, 70, 0
2, 652662, Note_on_c, 0, 58, 44
2, 652676, Note_on_c, 0, 74, 72
2, 652728, Note_on_c, 0, 58, 0
2, 652742, Note_on_c, 0, 74, 0
2, 652784, Note_on_c, 0, 70, 55
2, 652866, Note_on_c, 0, 70, 0
2, 652912, Note_on_c, 0, 77, 72
2, 652915, Note_on_c, 0, 53, 84
2, 652968, Note_on_c, 0, 53, 0
2, 652978, Note_on_c, 0, 77, 0
2, 653012, Note_on_c, 0, 70, 55
2, 653098, Note_on_c, 0, 70, 0
2, 653146, Note_on_c, 0, 65, 60
2, 653152, Note_on_c, 0, 72, 67
2, 653202, Note_on_c, 0, 65, 0
2, 653262, Note_on_c, 0, 69, 61
2, 653302, Note_on_c, 0, 72, 0
2, 653356, Note_on_c, 0, 69, 0
2, 653378, Note_on_c, 0, 65, 48
2, 653396, Note_on_c, 0, 60, 64
2, 653448, Note_on_c, 0, 60, 0
2, 653470, Note_on_c, 0, 65, 0
2, 653504, Note_on_c, 0, 69, 55
2, 653578, Note_on_c, 0, 69, 0
2, 653604, Note_on_c, 0, 57, 63
2, 653620, Note_on_c, 0, 72, 70
2, 653658, Note_on_c, 0, 57, 0
2, 653684, Note_on_c, 0, 72, 0
2, 653724, Note_on_c, 0, 69, 61
2, 653814, Note_on_c, 0, 69, 0
2, 653864, Note_on_c, 0, 53, 87
2, 653864, Note_on_c, 0, 75, 64
2, 653910, Note_on_c, 0, 53, 0
2, 653932, Note_on_c, 0, 75, 0
2, 653964, Note_on_c, 0, 69, 56
2, 654030, Note_on_c, 0, 69, 0
2, 654104, Note_on_c, 0, 58, 56
2, 654114, Note_on_c, 0, 74, 77
2, 654226, Note_on_c, 0, 70, 63
2, 654240, Note_on_c, 0, 74, 0
2, 654342, Note_on_c, 0, 70, 0
2, 654348, Note_on_c, 0, 65, 62
2, 654482, Note_on_c, 0, 65, 0
2, 654485, Note_on_c, 0, 70, 48
2, 654594, Note_on_c, 0, 70, 0
2, 654624, Note_on_c, 0, 74, 61
2, 654710, Note_on_c, 0, 58, 0
2, 654744, Note_on_c, 0, 60, 53
2, 654820, Note_on_c, 0, 60, 0
2, 654858, Note_on_c, 0, 58, 42
2, 654928, Note_on_c, 0, 58, 0
2, 654976, Note_on_c, 0, 57, 49
2, 655032, Note_on_c, 0, 57, 0
2, 655100, Note_on_c, 0, 55, 87
2, 655168, Note_on_c, 0, 55, 0
2, 655238, Note_on_c, 0, 71, 62
2, 655264, Note_on_c, 0, 74, 0
2, 655298, Note_on_c, 0, 71, 0
2, 655338, Note_on_c, 0, 67, 51
2, 655356, Note_on_c, 0, 50, 64
2, 655410, Note_on_c, 0, 50, 0
2, 655412, Note_on_c, 0, 67, 0
2, 655464, Note_on_c, 0, 71, 65
2, 655544, Note_on_c, 0, 71, 0
2, 655582, Note_on_c, 0, 47, 57
2, 655602, Note_on_c, 0, 74, 59
2, 655634, Note_on_c, 0, 47, 0
2, 655656, Note_on_c, 0, 74, 0
2, 655698, Note_on_c, 0, 71, 69
2, 655772, Note_on_c, 0, 71, 0
2, 655826, Note_on_c, 0, 43, 67
2, 655840, Note_on_c, 0, 77, 61
2, 655886, Note_on_c, 0, 43, 0
2, 655908, Note_on_c, 0, 77, 0
2, 655946, Note_on_c, 0, 71, 45
2, 656016, Note_on_c, 0, 71, 0
2, 656062, Note_on_c, 0, 55, 79
2, 656070, Note_on_c, 0, 76, 61
2, 656136, Note_on_c, 0, 55, 0
2, 656182, Note_on_c, 0, 72, 55
2, 656264, Note_on_c, 0, 72, 0
2, 656304, Note_on_c, 0, 67, 59
2, 656318, Note_on_c, 0, 52, 77
2, 656360, Note_on_c, 0, 52, 0
2, 656402, Note_on_c, 0, 67, 0
2, 656420, Note_on_c, 0, 76, 0
2, 656428, Note_on_c, 0, 72, 56
2, 656536, Note_on_c, 0, 72, 0
2, 656536, Note_on_c, 0, 48, 82
2, 656576, Note_on_c, 0, 76, 61
2, 656590, Note_on_c, 0, 48, 0
2, 656660, Note_on_c, 0, 76, 0
2, 656690, Note_on_c, 0, 72, 65
2, 656756, Note_on_c, 0, 72, 0
2, 656788, Note_on_c, 0, 43, 90
2, 656800, Note_on_c, 0, 79, 84
2, 656834, Note_on_c, 0, 43, 0
2, 656878, Note_on_c, 0, 79, 0
2, 656910, Note_on_c, 0, 72, 72
2, 656980, Note_on_c, 0, 72, 0
2, 657030, Note_on_c, 0, 55, 100
2, 657036, Note_on_c, 0, 74, 85
2, 657112, Note_on_c, 0, 55, 0
2, 657136, Note_on_c, 0, 71, 86
2, 657184, Note_on_c, 0, 74, 0
2, 657240, Note_on_c, 0, 71, 0
2, 657262, Note_on_c, 0, 67, 61
2, 657282, Note_on_c, 0, 50, 95
2, 657328, Note_on_c, 0, 50, 0
2, 657352, Note_on_c, 0, 67, 0
2, 657394, Note_on_c, 0, 71, 75
2, 657484, Note_on_c, 0, 71, 0
2, 657522, Note_on_c, 0, 47, 105
2, 657522, Note_on_c, 0, 74, 87
2, 657570, Note_on_c, 0, 47, 0
2, 657594, Note_on_c, 0, 74, 0
2, 657660, Note_on_c, 0, 71, 52
2, 657732, Note_on_c, 0, 71, 0
2, 657766, Note_on_c, 0, 43, 103
2, 657766, Note_on_c, 0, 77, 85
2, 657804, Note_on_c, 0, 43, 0
2, 657886, Note_on_c, 0, 71, 71
2, 657900, Note_on_c, 0, 77, 0
2, 657944, Note_on_c, 0, 71, 0
2, 658004, Note_on_c, 0, 76, 87
2, 658008, Note_on_c, 0, 48, 99
2, 658086, Note_on_c, 0, 48, 0
2, 658116, Note_on_c, 0, 60, 100
2, 658116, Note_on_c, 0, 72, 72
2, 658208, Note_on_c, 0, 72, 0
2, 658208, Note_on_c, 0, 60, 0
2, 658220, Note_on_c, 0, 67, 75
2, 658238, Note_on_c, 0, 59, 97
2, 658246, Note_on_c, 0, 76, 0
2, 658296, Note_on_c, 0, 67, 0
2, 658352, Note_on_c, 0, 72, 84
2, 658356, Note_on_c, 0, 57, 92
2, 658364, Note_on_c, 0, 59, 0
2, 658418, Note_on_c, 0, 72, 0
2, 658426, Note_on_c, 0, 57, 0
2, 658456, Note_on_c, 0, 55, 109
2, 658472, Note_on_c, 0, 76, 67
2, 658550, Note_on_c, 0, 55, 0
2, 658572, Note_on_c, 0, 72, 85
2, 658575, Note_on_c, 0, 76, 0
2, 658578, Note_on_c, 0, 53, 123
2, 658656, Note_on_c, 0, 53, 0
2, 658656, Note_on_c, 0, 72, 0
2, 658690, Note_on_c, 0, 52, 107
2, 658693, Note_on_c, 0, 77, 94
2, 658796, Note_on_c, 0, 72, 82
2, 658802, Note_on_c, 0, 52, 0
2, 658804, Note_on_c, 0, 50, 102
2, 658810, Note_on_c, 0, 77, 0
2, 658872, Note_on_c, 0, 50, 0
2, 658922, Note_on_c, 0, 72, 0
2, 658934, Note_on_c, 0, 79, 116
2, 658938, Note_on_c, 0, 48, 113
2, 659062, Note_on_c, 0, 48, 0
2, 659062, Note_on_c, 0, 76, 86
2, 659156, Note_on_c, 0, 79, 0
2, 659172, Note_on_c, 0, 72, 84
2, 659175, Note_on_c, 0, 76, 0
2, 659180, Note_on_c, 0, 43, 113
2, 659240, Note_on_c, 0, 43, 0
2, 659298, Note_on_c, 0, 72, 0
2, 659316, Note_on_c, 0, 76, 79
2, 659422, Note_on_c, 0, 40, 127
2, 659434, Note_on_c, 0, 79, 111
2, 659444, Note_on_c, 0, 76, 0
2, 659520, Note_on_c, 0, 40, 0
2, 659538, Note_on_c, 0, 76, 77
2, 659556, Note_on_c, 0, 79, 0
2, 659650, Note_on_c, 0, 76, 0
2, 659674, Note_on_c, 0, 36, 116
2, 659676, Note_on_c, 0, 82, 100
2, 659766, Note_on_c, 0, 36, 0
2, 659800, Note_on_c, 0, 76, 90
2, 659840, Note_on_c, 0, 82, 0
2, 659854, Note_on_c, 0, 76, 0
2, 659926, Note_on_c, 0, 81, 107
2, 659938, Note_on_c, 0, 48, 95
2, 660012, Note_on_c, 0, 48, 0
2, 660048, Note_on_c, 0, 77, 87
2, 660154, Note_on_c, 0, 77, 0
2, 660156, Note_on_c, 0, 72, 86
2, 660156, Note_on_c, 0, 45, 102
2, 660226, Note_on_c, 0, 81, 0
2, 660262, Note_on_c, 0, 72, 0
2, 660268, Note_on_c, 0, 45, 0
2, 660292, Note_on_c, 0, 77, 91
2, 660402, Note_on_c, 0, 77, 0
2, 660402, Note_on_c, 0, 41, 116
2, 660410, Note_on_c, 0, 81, 103
2, 660500, Note_on_c, 0, 41, 0
2, 660526, Note_on_c, 0, 77, 88
2, 660534, Note_on_c, 0, 81, 0
2, 660638, Note_on_c, 0, 77, 0
2, 660646, Note_on_c, 0, 36, 110
2, 660652, Note_on_c, 0, 84, 113
2, 660712, Note_on_c, 0, 36, 0
2, 660764, Note_on_c, 0, 77, 82
2, 660774, Note_on_c, 0, 84, 0
2, 660852, Note_on_c, 0, 77, 0
2, 660890, Note_on_c, 0, 48, 110
2, 660892, Note_on_c, 0, 79, 113
2, 660994, Note_on_c, 0, 48, 0
2, 661016, Note_on_c, 0, 76, 87
2, 661062, Note_on_c, 0, 79, 0
2, 661108, Note_on_c, 0, 72, 91
2, 661120, Note_on_c, 0, 76, 0
2, 661128, Note_on_c, 0, 43, 101
2, 661204, Note_on_c, 0, 43, 0
2, 661242, Note_on_c, 0, 72, 0
2, 661246, Note_on_c, 0, 76, 71
2, 661362, Note_on_c, 0, 76, 0
2, 661364, Note_on_c, 0, 79, 110
2, 661372, Note_on_c, 0, 40, 121
2, 661420, Note_on_c, 0, 40, 0
2, 661470, Note_on_c, 0, 76, 80
2, 661494, Note_on_c, 0, 79, 0
2, 661582, Note_on_c, 0, 76, 0
2, 661596, Note_on_c, 0, 82, 92
2, 661616, Note_on_c, 0, 36, 94
2, 661662, Note_on_c, 0, 36, 0
2, 661688, Note_on_c, 0, 76, 52
2, 661754, Note_on_c, 0, 82, 0
2, 661844, Note_on_c, 0, 76, 0
2, 661847, Note_on_c, 0, 81, 88
2, 661862, Note_on_c, 0, 41, 76
2, 661962, Note_on_c, 0, 77, 77
2, 661964, Note_on_c, 0, 81, 0
2, 661990, Control_c, 0, 64, 127
2, 662032, Note_on_c, 0, 41, 0
2, 662040, Note_on_c, 0, 77, 0
2, 662074, Note_on_c, 0, 72, 68
2, 662130, Note_on_c, 0, 72, 0
2, 662194, Note_on_c, 0, 69, 76
2, 662314, Note_on_c, 0, 65, 86
2, 662328, Control_c, 0, 64, 0
2, 662340, Note_on_c, 0, 69, 0
2, 662432, Note_on_c, 0, 41, 94
2, 662548, Note_on_c, 0, 41, 0
2, 662552, Note_on_c, 0, 43, 52
2, 662645, Note_on_c, 0, 45, 80
2, 662650, Note_on_c, 0, 43, 0
2, 662743, Note_on_c, 0, 45, 0
2, 662762, Note_on_c, 0, 46, 88
2, 662880, Note_on_c, 0, 46, 0
2, 662894, Note_on_c, 0, 48, 80
2, 662898, Note_on_c, 0, 69, 69
2, 662942, Note_on_c, 0, 65, 0
2, 663004, Note_on_c, 0, 50, 52
2, 663007, Note_on_c, 0, 48, 0
2, 663012, Note_on_c, 0, 70, 83
2, 663048, Note_on_c, 0, 69, 0
2, 663126, Note_on_c, 0, 50, 0
2, 663126, Note_on_c, 0, 52, 85
2, 663134, Note_on_c, 0, 72, 83
2, 663154, Note_on_c, 0, 70, 0
2, 663219, Note_on_c, 0, 52, 0
2, 663250, Note_on_c, 0, 70, 69
2, 663250, Note_on_c, 0, 53, 100
2, 663302, Note_on_c, 0, 72, 0
2, 663366, Note_on_c, 0, 69, 77
2, 663367, Note_on_c, 0, 53, 0
2, 663380, Note_on_c, 0, 55, 82
2, 663398, Note_on_c, 0, 70, 0
2, 663486, Note_on_c, 0, 67, 90
2, 663494, Note_on_c, 0, 55, 0
2, 663494, Note_on_c, 0, 69, 0
2, 663494, Note_on_c, 0, 57, 62
2, 663574, Note_on_c, 0, 57, 0
2, 663600, Note_on_c, 0, 65, 79
2, 663600, Note_on_c, 0, 58, 67
2, 663606, Note_on_c, 0, 67, 0
2, 663702, Note_on_c, 0, 58, 0
2, 663730, Note_on_c, 0, 60, 82
2, 663736, Note_on_c, 0, 75, 97
2, 663746, Note_on_c, 0, 65, 0
2, 663802, Note_on_c, 0, 60, 0
2, 663856, Note_on_c, 0, 72, 82
2, 663860, Note_on_c, 0, 57, 61
2, 663890, Note_on_c, 0, 75, 0
2, 663918, Note_on_c, 0, 57, 0
2, 663972, Note_on_c, 0, 53, 94
2, 663982, Note_on_c, 0, 74, 85
2, 664000, Note_on_c, 0, 72, 0
2, 664090, Note_on_c, 0, 53, 0
2, 664104, Note_on_c, 0, 57, 52
2, 664184, Note_on_c, 0, 57, 0
2, 664206, Note_on_c, 0, 58, 64
2, 664284, Note_on_c, 0, 58, 0
2, 664320, Note_on_c, 0, 70, 65
2, 664332, Note_on_c, 0, 74, 0
2, 664332, Note_on_c, 0, 62, 71
2, 664386, Note_on_c, 0, 62, 0
2, 664412, Note_on_c, 0, 70, 0
2, 664446, Note_on_c, 0, 69, 54
2, 664446, Note_on_c, 0, 60, 69
2, 664502, Note_on_c, 0, 60, 0
2, 664534, Note_on_c, 0, 69, 0
2, 664554, Note_on_c, 0, 62, 85
2, 664564, Note_on_c, 0, 70, 63
2, 664624, Note_on_c, 0, 62, 0
2, 664655, Note_on_c, 0, 70, 0
2, 664696, Note_on_c, 0, 76, 70
2, 664696, Note_on_c, 0, 55, 91
2, 664742, Note_on_c, 0, 55, 0
2, 664784, Note_on_c, 0, 70, 74
2, 664794, Note_on_c, 0, 76, 0
2, 664878, Note_on_c, 0, 70, 0
2, 664922, Note_on_c, 0, 77, 88
2, 664928, Note_on_c, 0, 58, 68
2, 664986, Note_on_c, 0, 58, 0
2, 665036, Note_on_c, 0, 70, 76
2, 665050, Note_on_c, 0, 77, 0
2, 665150, Note_on_c, 0, 70, 0
2, 665162, Note_on_c, 0, 79, 105
2, 665184, Note_on_c, 0, 64, 79
2, 665244, Note_on_c, 0, 64, 0
2, 665282, Note_on_c, 0, 79, 0
2, 665285, Note_on_c, 0, 70, 68
2, 665404, Note_on_c, 0, 70, 0
2, 665408, Note_on_c, 0, 69, 65
2, 665428, Note_on_c, 0, 60, 72
2, 665482, Note_on_c, 0, 60, 0
2, 665490, Note_on_c, 0, 69, 0
2, 665532, Note_on_c, 0, 67, 74
2, 665608, Note_on_c, 0, 67, 0
2, 665654, Note_on_c, 0, 69, 72
2, 665666, Note_on_c, 0, 65, 64
2, 665724, Note_on_c, 0, 65, 0
2, 665768, Note_on_c, 0, 72, 74
2, 665774, Note_on_c, 0, 69, 0
2, 665868, Note_on_c, 0, 72, 0
2, 665894, Note_on_c, 0, 70, 71
2, 665904, Note_on_c, 0, 60, 59
2, 665960, Note_on_c, 0, 60, 0
2, 666012, Note_on_c, 0, 69, 63
2, 666024, Note_on_c, 0, 70, 0
2, 666094, Note_on_c, 0, 69, 0
2, 666134, Note_on_c, 0, 70, 54
2, 666148, Note_on_c, 0, 57, 64
2, 666202, Note_on_c, 0, 57, 0
2, 666250, Note_on_c, 0, 69, 54
2, 666278, Note_on_c, 0, 70, 0
2, 666332, Note_on_c, 0, 69, 0
2, 666376, Note_on_c, 0, 67, 64
2, 666402, Note_on_c, 0, 60, 63
2, 666454, Note_on_c, 0, 60, 0
2, 666454, Note_on_c, 0, 67, 0
2, 666480, Note_on_c, 0, 69, 48
2, 666622, Note_on_c, 0, 69, 0
2, 666636, Note_on_c, 0, 65, 65
2, 666642, Note_on_c, 0, 53, 85
2, 666688, Note_on_c, 0, 53, 0
2, 666746, Note_on_c, 0, 45, 79
2, 666808, Note_on_c, 0, 65, 0
2, 666866, Note_on_c, 0, 46, 87
2, 666868, Note_on_c, 0, 69, 57
2, 666876, Note_on_c, 0, 45, 0
2, 666924, Note_on_c, 0, 69, 0
2, 666984, Note_on_c, 0, 46, 0
2, 667002, Note_on_c, 0, 48, 71
2, 667102, Note_on_c, 0, 72, 86
2, 667110, Note_on_c, 0, 46, 86
2, 667142, Note_on_c, 0, 48, 0
2, 667206, Note_on_c, 0, 72, 0
2, 667216, Note_on_c, 0, 46, 0
2, 667230, Note_on_c, 0, 45, 84
2, 667346, Note_on_c, 0, 69, 79
2, 667352, Note_on_c, 0, 45, 0
2, 667360, Note_on_c, 0, 43, 82
2, 667434, Note_on_c, 0, 69, 0
2, 667452, Note_on_c, 0, 43, 0
2, 667462, Note_on_c, 0, 41, 94
2, 667576, Note_on_c, 0, 41, 0
2, 667582, Note_on_c, 0, 65, 92
2, 667582, Note_on_c, 0, 51, 103
2, 667680, Note_on_c, 0, 65, 0
2, 667690, Note_on_c, 0, 48, 87
2, 667694, Note_on_c, 0, 51, 0
2, 667816, Note_on_c, 0, 48, 0
2, 667830, Note_on_c, 0, 70, 87
2, 667832, Note_on_c, 0, 50, 101
2, 667942, Note_on_c, 0, 72, 94
2, 667958, Note_on_c, 0, 70, 0
2, 668074, Note_on_c, 0, 74, 114
2, 668098, Note_on_c, 0, 72, 0
2, 668164, Note_on_c, 0, 74, 0
2, 668188, Note_on_c, 0, 46, 80
2, 668256, Note_on_c, 0, 50, 0
2, 668314, Note_on_c, 0, 46, 0
2, 668314, Note_on_c, 0, 65, 94
2, 668314, Note_on_c, 0, 45, 85
2, 668394, Note_on_c, 0, 65, 0
2, 668408, Note_on_c, 0, 46, 69
2, 668440, Note_on_c, 0, 45, 0
2, 668546, Note_on_c, 0, 67, 107
2, 668549, Note_on_c, 0, 52, 107
2, 668556, Note_on_c, 0, 46, 0
2, 668642, Note_on_c, 0, 67, 0
2, 668658, Note_on_c, 0, 46, 70
2, 668661, Note_on_c, 0, 52, 0
2, 668784, Note_on_c, 0, 70, 94
2, 668787, Note_on_c, 0, 53, 115
2, 668792, Note_on_c, 0, 46, 0
2, 668886, Note_on_c, 0, 70, 0
2, 668896, Note_on_c, 0, 46, 63
2, 668902, Note_on_c, 0, 53, 0
2, 669016, Note_on_c, 0, 55, 101
2, 669018, Note_on_c, 0, 46, 0
2, 669018, Note_on_c, 0, 76, 100
2, 669106, Note_on_c, 0, 46, 55
2, 669122, Note_on_c, 0, 76, 0
2, 669136, Note_on_c, 0, 55, 0
2, 669228, Note_on_c, 0, 45, 90
2, 669244, Note_on_c, 0, 72, 97
2, 669288, Note_on_c, 0, 46, 0
2, 669356, Note_on_c, 0, 72, 0
2, 669364, Note_on_c, 0, 43, 83
2, 669382, Note_on_c, 0, 45, 0
2, 669474, Note_on_c, 0, 45, 60
2, 669478, Note_on_c, 0, 77, 90
2, 669488, Note_on_c, 0, 43, 0
2, 669584, Note_on_c, 0, 77, 0
2, 669590, Note_on_c, 0, 69, 82
2, 669596, Note_on_c, 0, 45, 0
2, 669604, Note_on_c, 0, 48, 72
2, 669642, Control_c, 0, 64, 127
2, 669688, Note_on_c, 0, 69, 0
2, 669712, Note_on_c, 0, 67, 101
2, 669714, Note_on_c, 0, 46, 78
2, 669720, Note_on_c, 0, 48, 0
2, 669824, Note_on_c, 0, 45, 82
2, 669834, Note_on_c, 0, 65, 92
2, 669838, Note_on_c, 0, 46, 0
2, 669880, Note_on_c, 0, 67, 0
2, 669948, Note_on_c, 0, 45, 0
2, 669954, Note_on_c, 0, 65, 0
2, 669958, Note_on_c, 0, 74, 110
2, 669968, Note_on_c, 0, 46, 76
2, 669980, Control_c, 0, 64, 0
2, 670070, Note_on_c, 0, 72, 92
2, 670084, Note_on_c, 0, 45, 77
2, 670100, Note_on_c, 0, 46, 0
2, 670136, Note_on_c, 0, 74, 0
2, 670196, Note_on_c, 0, 70, 91
2, 670210, Note_on_c, 0, 43, 76
2, 670213, Note_on_c, 0, 45, 0
2, 670228, Note_on_c, 0, 72, 0
2, 670302, Control_c, 0, 64, 127
2, 670302, Note_on_c, 0, 72, 90
2, 670312, Note_on_c, 0, 45, 74
2, 670348, Note_on_c, 0, 43, 0
2, 670351, Note_on_c, 0, 72, 0
2, 670360, Note_on_c, 0, 70, 0
2, 670464, Note_on_c, 0, 45, 0
2, 670464, Note_on_c, 0, 69, 105
2, 670482, Note_on_c, 0, 41, 94
2, 670564, Control_c, 0, 64, 0
2, 670592, Note_on_c, 0, 65, 86
2, 670726, Note_on_c, 0, 45, 76
2, 670728, Note_on_c, 0, 63, 94
2, 670774, Note_on_c, 0, 65, 0
2, 670796, Note_on_c, 0, 41, 0
2, 670848, Note_on_c, 0, 62, 97
2, 670866, Note_on_c, 0, 63, 0
2, 670980, Note_on_c, 0, 62, 0
2, 670980, Note_on_c, 0, 63, 82
2, 670983, Note_on_c, 0, 48, 77
2, 671014, Note_on_c, 0, 45, 0
2, 671104, Note_on_c, 0, 62, 85
2, 671124, Note_on_c, 0, 63, 0
2, 671232, Note_on_c, 0, 62, 0
2, 671240, Note_on_c, 0, 51, 84
2, 671242, Note_on_c, 0, 60, 77
2, 671262, Note_on_c, 0, 48, 0
2, 671270, Control_c, 0, 64, 127
2, 671354, Note_on_c, 0, 62, 98
2, 671378, Note_on_c, 0, 69, 0
2, 671378, Note_on_c, 0, 60, 0
2, 671472, Note_on_c, 0, 51, 0
2, 671486, Note_on_c, 0, 62, 0
2, 671490, Note_on_c, 0, 58, 94
2, 671508, Note_on_c, 0, 50, 87
2, 671602, Note_on_c, 0, 58, 0
2, 671608, Control_c, 0, 64, 0
2, 671618, Note_on_c, 0, 72, 109
2, 671674, Note_on_c, 0, 50, 0
2, 671732, Note_on_c, 0, 70, 92
2, 671760, Note_on_c, 0, 53, 116
2, 671812, Note_on_c, 0, 72, 0
2, 671864, Note_on_c, 0, 69, 98
2, 671874, Note_on_c, 0, 53, 0
2, 671918, Note_on_c, 0, 70, 0
2, 672006, Note_on_c, 0, 72, 108
2, 672020, Note_on_c, 0, 50, 92
2, 672026, Note_on_c, 0, 69, 0
2, 672082, Note_on_c, 0, 50, 0
2, 672128, Note_on_c, 0, 70, 92
2, 672196, Note_on_c, 0, 72, 0
2, 672234, Note_on_c, 0, 69, 98
2, 672264, Note_on_c, 0, 46, 82
2, 672268, Note_on_c, 0, 70, 0
2, 672328, Note_on_c, 0, 46, 0
2, 672356, Note_on_c, 0, 70, 85
2, 672402, Note_on_c, 0, 69, 0
2, 672424, Control_c, 0, 64, 127
2, 672450, Note_on_c, 0, 70, 0
2, 672512, Note_on_c, 0, 67, 106
2, 672520, Note_on_c, 0, 40, 100
2, 672622, Control_c, 0, 64, 0
2, 672648, Note_on_c, 0, 62, 83
2, 672780, Note_on_c, 0, 43, 76
2, 672783, Note_on_c, 0, 60, 83
2, 672811, Note_on_c, 0, 62, 0
2, 672874, Note_on_c, 0, 40, 0
2, 672896, Note_on_c, 0, 58, 75
2, 672940, Note_on_c, 0, 60, 0
2, 672960, Control_c, 0, 64, 127
2, 673040, Note_on_c, 0, 62, 95
2, 673042, Note_on_c, 0, 58, 0
2, 673052, Control_c, 0, 64, 0
2, 673054, Note_on_c, 0, 46, 82
2, 673086, Note_on_c, 0, 43, 0
2, 673170, Note_on_c, 0, 60, 97
2, 673216, Note_on_c, 0, 62, 0
2, 673280, Note_on_c, 0, 58, 82
2, 673304, Note_on_c, 0, 50, 92
2, 673308, Note_on_c, 0, 46, 0
2, 673310, Note_on_c, 0, 60, 0
2, 673388, Note_on_c, 0, 60, 80
2, 673426, Note_on_c, 0, 58, 0
2, 673486, Note_on_c, 0, 67, 0
2, 673506, Note_on_c, 0, 50, 0
2, 673530, Note_on_c, 0, 57, 99
2, 673552, Note_on_c, 0, 48, 70
2, 673562, Note_on_c, 0, 60, 0
2, 673590, Control_c, 0, 64, 127
2, 673594, Note_on_c, 0, 57, 0
2, 673658, Note_on_c, 0, 70, 94
2, 673720, Note_on_c, 0, 48, 0
2, 673776, Control_c, 0, 64, 0
2, 673784, Note_on_c, 0, 69, 77
2, 673790, Note_on_c, 0, 52, 87
2, 673796, Note_on_c, 0, 70, 0
2, 673892, Note_on_c, 0, 52, 0
2, 673904, Note_on_c, 0, 67, 105
2, 673968, Note_on_c, 0, 69, 0
2, 674044, Note_on_c, 0, 70, 98
2, 674060, Note_on_c, 0, 48, 69
2, 674078, Note_on_c, 0, 67, 0
2, 674122, Note_on_c, 0, 48, 0
2, 674156, Note_on_c, 0, 69, 85
2, 674208, Note_on_c, 0, 70, 0
2, 674274, Note_on_c, 0, 67, 102
2, 674290, Note_on_c, 0, 69, 0
2, 674290, Note_on_c, 0, 45, 70
2, 674350, Note_on_c, 0, 45, 0
2, 674388, Note_on_c, 0, 69, 79
2, 674420, Control_c, 0, 64, 127
2, 674432, Note_on_c, 0, 69, 0
2, 674444, Note_on_c, 0, 67, 0
2, 674540, Note_on_c, 0, 65, 109
2, 674554, Note_on_c, 0, 38, 88
2, 674620, Control_c, 0, 64, 0
2, 674662, Note_on_c, 0, 60, 91
2, 674764, Note_on_c, 0, 41, 98
2, 674774, Note_on_c, 0, 58, 74
2, 674792, Note_on_c, 0, 38, 0
2, 674798, Note_on_c, 0, 60, 0
2, 674896, Note_on_c, 0, 57, 75
2, 674930, Note_on_c, 0, 58, 0
2, 675030, Note_on_c, 0, 45, 92
2, 675030, Note_on_c, 0, 60, 91
2, 675038, Note_on_c, 0, 57, 0
2, 675074, Note_on_c, 0, 41, 0
2, 675138, Note_on_c, 0, 58, 75
2, 675180, Note_on_c, 0, 60, 0
2, 675272, Note_on_c, 0, 57, 72
2, 675280, Note_on_c, 0, 58, 0
2, 675288, Note_on_c, 0, 48, 87
2, 675302, Note_on_c, 0, 45, 0
2, 675394, Note_on_c, 0, 58, 67
2, 675396, Note_on_c, 0, 57, 0
2, 675536, Note_on_c, 0, 58, 0
2, 675538, Note_on_c, 0, 55, 91
2, 675542, Note_on_c, 0, 65, 0
2, 675544, Note_on_c, 0, 46, 69
2, 675556, Note_on_c, 0, 48, 0
2, 675592, Note_on_c, 0, 55, 0
2, 675654, Note_on_c, 0, 69, 95
2, 675682, Note_on_c, 0, 46, 0
2, 675772, Note_on_c, 0, 50, 84
2, 675775, Note_on_c, 0, 67, 90
2, 675816, Note_on_c, 0, 69, 0
2, 675858, Note_on_c, 0, 50, 0
2, 675894, Note_on_c, 0, 65, 92
2, 675924, Note_on_c, 0, 67, 0
2, 676018, Note_on_c, 0, 65, 0
2, 676022, Note_on_c, 0, 46, 71
2, 676026, Note_on_c, 0, 69, 79
2, 676096, Note_on_c, 0, 46, 0
2, 676134, Note_on_c, 0, 67, 78
2, 676172, Note_on_c, 0, 69, 0
2, 676248, Note_on_c, 0, 65, 83
2, 676256, Note_on_c, 0, 67, 0
2, 676274, Note_on_c, 0, 43, 76
2, 676326, Note_on_c, 0, 43, 0
2, 676352, Note_on_c, 0, 67, 70
2, 676355, Note_on_c, 0, 65, 0
2, 676488, Note_on_c, 0, 67, 0
2, 676488, Note_on_c, 0, 64, 92
2, 676488, Note_on_c, 0, 36, 85
2, 676546, Note_on_c, 0, 36, 0
2, 676614, Note_on_c, 0, 48, 63
2, 676708, Note_on_c, 0, 48, 0
2, 676736, Note_on_c, 0, 46, 67
2, 676752, Note_on_c, 0, 55, 77
2, 676844, Note_on_c, 0, 46, 0
2, 676852, Note_on_c, 0, 45, 61
2, 676930, Note_on_c, 0, 55, 0
2, 676942, Note_on_c, 0, 45, 0
2, 676988, Note_on_c, 0, 60, 88
2, 677004, Note_on_c, 0, 46, 71
2, 677006, Note_on_c, 0, 64, 0
2, 677082, Note_on_c, 0, 46, 0
2, 677128, Note_on_c, 0, 45, 56
2, 677198, Note_on_c, 0, 45, 0
2, 677230, Note_on_c, 0, 58, 49
2, 677234, Note_on_c, 0, 64, 77
2, 677258, Note_on_c, 0, 43, 67
2, 677282, Note_on_c, 0, 60, 0
2, 677338, Note_on_c, 0, 43, 0
2, 677392, Note_on_c, 0, 45, 52
2, 677448, Note_on_c, 0, 58, 0
2, 677456, Note_on_c, 0, 45, 0
2, 677490, Note_on_c, 0, 36, 78
2, 677490, Note_on_c, 0, 65, 70
2, 677496, Note_on_c, 0, 57, 53
2, 677502, Note_on_c, 0, 64, 0
2, 677560, Note_on_c, 0, 57, 0
2, 677570, Note_on_c, 0, 36, 0
2, 677634, Note_on_c, 0, 46, 54
2, 677696, Note_on_c, 0, 46, 0
2, 677746, Note_on_c, 0, 45, 55
2, 677746, Note_on_c, 0, 60, 71
2, 677749, Note_on_c, 0, 65, 0
2, 677810, Note_on_c, 0, 45, 0
2, 677850, Note_on_c, 0, 43, 78
2, 677914, Note_on_c, 0, 43, 0
2, 677934, Note_on_c, 0, 60, 0
2, 677978, Note_on_c, 0, 45, 68
2, 677986, Note_on_c, 0, 65, 95
2, 678096, Note_on_c, 0, 45, 0
2, 678110, Note_on_c, 0, 43, 77
2, 678194, Note_on_c, 0, 43, 0
2, 678240, Note_on_c, 0, 69, 83
2, 678248, Note_on_c, 0, 41, 64
2, 678322, Note_on_c, 0, 41, 0
2, 678362, Note_on_c, 0, 43, 74
2, 678430, Note_on_c, 0, 43, 0
2, 678492, Note_on_c, 0, 70, 83
2, 678506, Note_on_c, 0, 36, 77
2, 678520, Note_on_c, 0, 69, 0
2, 678584, Note_on_c, 0, 36, 0
2, 678626, Note_on_c, 0, 45, 72
2, 678688, Note_on_c, 0, 45, 0
2, 678708, Note_on_c, 0, 65, 0
2, 678752, Note_on_c, 0, 64, 79
2, 678755, Note_on_c, 0, 43, 75
2, 678824, Note_on_c, 0, 43, 0
2, 678860, Note_on_c, 0, 62, 93
2, 678863, Note_on_c, 0, 41, 77
2, 678874, Note_on_c, 0, 64, 0
2, 678920, Note_on_c, 0, 41, 0
2, 678956, Note_on_c, 0, 62, 0
2, 678976, Note_on_c, 0, 43, 90
2, 678986, Note_on_c, 0, 64, 97
2, 679094, Note_on_c, 0, 43, 0
2, 679102, Note_on_c, 0, 41, 79
2, 679202, Note_on_c, 0, 41, 0
2, 679222, Note_on_c, 0, 67, 102
2, 679222, Note_on_c, 0, 40, 94
2, 679330, Note_on_c, 0, 40, 0
2, 679334, Note_on_c, 0, 70, 0
2, 679342, Note_on_c, 0, 41, 98
2, 679418, Note_on_c, 0, 41, 0
2, 679468, Note_on_c, 0, 69, 92
2, 679476, Note_on_c, 0, 36, 98
2, 679512, Note_on_c, 0, 64, 0
2, 679540, Note_on_c, 0, 67, 0
2, 679590, Note_on_c, 0, 43, 80
2, 679598, Note_on_c, 0, 36, 0
2, 679662, Note_on_c, 0, 43, 0
2, 679704, Note_on_c, 0, 41, 95
2, 679707, Note_on_c, 0, 62, 93
2, 679810, Note_on_c, 0, 60, 101
2, 679816, Note_on_c, 0, 41, 0
2, 679816, Note_on_c, 0, 40, 100
2, 679822, Note_on_c, 0, 62, 0
2, 679876, Note_on_c, 0, 40, 0
2, 679906, Note_on_c, 0, 60, 0
2, 679932, Note_on_c, 0, 62, 92
2, 679946, Note_on_c, 0, 41, 98
2, 680000, Note_on_c, 0, 62, 0
2, 680034, Note_on_c, 0, 41, 0
2, 680064, Note_on_c, 0, 40, 101
2, 680094, Note_on_c, 0, 69, 0
2, 680158, Note_on_c, 0, 40, 0
2, 680164, Note_on_c, 0, 65, 85
2, 680164, Note_on_c, 0, 71, 109
2, 680184, Note_on_c, 0, 38, 85
2, 680296, Note_on_c, 0, 38, 0
2, 680304, Note_on_c, 0, 40, 114
2, 680336, Note_on_c, 0, 71, 0
2, 680390, Note_on_c, 0, 40, 0
2, 680416, Note_on_c, 0, 72, 109
2, 680432, Note_on_c, 0, 36, 100
2, 680528, Note_on_c, 0, 41, 88
2, 680536, Note_on_c, 0, 65, 0
2, 680548, Note_on_c, 0, 69, 91
2, 680552, Note_on_c, 0, 36, 0
2, 680628, Note_on_c, 0, 41, 0
2, 680638, Note_on_c, 0, 40, 105
2, 680668, Note_on_c, 0, 67, 97
2, 680714, Note_on_c, 0, 69, 0
2, 680752, Note_on_c, 0, 40, 0
2, 680752, Note_on_c, 0, 38, 93
2, 680790, Note_on_c, 0, 65, 87
2, 680792, Note_on_c, 0, 67, 0
2, 680826, Note_on_c, 0, 38, 0
2, 680874, Note_on_c, 0, 65, 0
2, 680902, Note_on_c, 0, 40, 107
2, 680910, Note_on_c, 0, 67, 87
2, 680967, Note_on_c, 0, 40, 0
2, 680974, Note_on_c, 0, 72, 0
2, 681014, Note_on_c, 0, 65, 92
2, 681020, Note_on_c, 0, 38, 82
2, 681022, Note_on_c, 0, 67, 0
2, 681116, Note_on_c, 0, 38, 0
2, 681130, Note_on_c, 0, 64, 98
2, 681132, Note_on_c, 0, 36, 83
2, 681148, Note_on_c, 0, 65, 0
2, 681256, Note_on_c, 0, 62, 91
2, 681260, Note_on_c, 0, 38, 87
2, 681264, Note_on_c, 0, 36, 0
2, 681266, Note_on_c, 0, 64, 0
2, 681342, Note_on_c, 0, 38, 0
2, 681362, Note_on_c, 0, 40, 101
2, 681362, Note_on_c, 0, 60, 83
2, 681376, Note_on_c, 0, 62, 0
2, 681410, Note_on_c, 0, 40, 0
2, 681478, Note_on_c, 0, 62, 76
2, 681481, Note_on_c, 0, 41, 79
2, 681488, Note_on_c, 0, 60, 0
2, 681596, Note_on_c, 0, 43, 90
2, 681598, Note_on_c, 0, 62, 0
2, 681601, Note_on_c, 0, 41, 0
2, 681604, Note_on_c, 0, 64, 105
2, 681644, Note_on_c, 0, 43, 0
2, 681694, Note_on_c, 0, 45, 84
2, 681714, Note_on_c, 0, 65, 100
2, 681726, Note_on_c, 0, 64, 0
2, 681822, Note_on_c, 0, 45, 0
2, 681822, Note_on_c, 0, 46, 83
2, 681832, Note_on_c, 0, 65, 0
2, 681836, Note_on_c, 0, 67, 105
2, 681948, Note_on_c, 0, 69, 95
2, 681964, Note_on_c, 0, 48, 63
2, 681976, Note_on_c, 0, 67, 0
2, 681990, Note_on_c, 0, 46, 0
2, 682068, Note_on_c, 0, 50, 103
2, 682070, Note_on_c, 0, 70, 91
2, 682082, Note_on_c, 0, 48, 0
2, 682092, Note_on_c, 0, 69, 0
2, 682182, Note_on_c, 0, 50, 0
2, 682184, Note_on_c, 0, 52, 110
2, 682194, Note_on_c, 0, 67, 103
2, 682234, Note_on_c, 0, 70, 0
2, 682246, Note_on_c, 0, 52, 0
2, 682314, Note_on_c, 0, 69, 103
2, 682320, Note_on_c, 0, 53, 127
2, 682358, Note_on_c, 0, 67, 0
2, 682438, Note_on_c, 0, 72, 94
2, 682442, Note_on_c, 0, 55, 102
2, 682472, Note_on_c, 0, 69, 0
2, 682564, Note_on_c, 0, 57, 95
2, 682574, Note_on_c, 0, 65, 98
2, 682611, Note_on_c, 0, 72, 0
2, 682614, Note_on_c, 0, 55, 0
2, 682684, Note_on_c, 0, 58, 87
2, 682710, Note_on_c, 0, 57, 0
2, 682812, Note_on_c, 0, 58, 0
2, 682822, Note_on_c, 0, 60, 110
2, 682830, Note_on_c, 0, 65, 0
2, 682876, Note_on_c, 0, 62, 25
2, 682934, Note_on_c, 0, 62, 0
2, 682940, Note_on_c, 0, 65, 93
2, 682962, Control_c, 0, 64, 127
2, 683000, Note_on_c, 0, 53, 0
2, 683064, Note_on_c, 0, 67, 109
2, 683072, Note_on_c, 0, 52, 108
2, 683090, Note_on_c, 0, 65, 0
2, 683170, Note_on_c, 0, 69, 98
2, 683196, Note_on_c, 0, 67, 0
2, 683224, Note_on_c, 0, 60, 0
2, 683276, Note_on_c, 0, 52, 0
2, 683296, Note_on_c, 0, 70, 102
2, 683312, Note_on_c, 0, 53, 127
2, 683322, Note_on_c, 0, 50, 100
2, 683332, Note_on_c, 0, 69, 0
2, 683394, Control_c, 0, 64, 0
2, 683430, Note_on_c, 0, 72, 108
2, 683438, Note_on_c, 0, 70, 0
2, 683516, Note_on_c, 0, 53, 0
2, 683542, Note_on_c, 0, 58, 98
2, 683554, Note_on_c, 0, 74, 121
2, 683574, Note_on_c, 0, 50, 0
2, 683577, Note_on_c, 0, 72, 0
2, 683672, Note_on_c, 0, 76, 109
2, 683690, Note_on_c, 0, 58, 0
2, 683696, Note_on_c, 0, 74, 0
2, 683786, Note_on_c, 0, 77, 121
2, 683786, Note_on_c, 0, 57, 97
2, 683789, Note_on_c, 0, 48, 90
2, 683802, Note_on_c, 0, 76, 0
2, 683840, Note_on_c, 0, 57, 0
2, 683848, Note_on_c, 0, 48, 0
2, 683900, Note_on_c, 0, 79, 125
2, 683944, Note_on_c, 0, 77, 0
2, 684016, Note_on_c, 0, 81, 115
2, 684030, Note_on_c, 0, 55, 94
2, 684033, Note_on_c, 0, 46, 90
2, 684054, Note_on_c, 0, 79, 0
2, 684070, Note_on_c, 0, 55, 0
2, 684072, Note_on_c, 0, 46, 0
2, 684132, Note_on_c, 0, 82, 106
2, 684214, Note_on_c, 0, 81, 0
2, 684244, Note_on_c, 0, 53, 127
2, 684250, Note_on_c, 0, 45, 109
2, 684256, Note_on_c, 0, 84, 127
2, 684326, Note_on_c, 0, 45, 0
2, 684329, Note_on_c, 0, 53, 0
2, 684344, Note_on_c, 0, 82, 0
2, 684368, Note_on_c, 0, 41, 108
2, 684374, Note_on_c, 0, 84, 0
2, 684480, Note_on_c, 0, 43, 100
2, 684500, Note_on_c, 0, 84, 116
2, 684500, Note_on_c, 0, 77, 116
2, 684503, Note_on_c, 0, 81, 113
2, 684538, Note_on_c, 0, 81, 0
2, 684538, Note_on_c, 0, 41, 0
2, 684541, Note_on_c, 0, 77, 0
2, 684586, Note_on_c, 0, 84, 0
2, 684598, Note_on_c, 0, 45, 91
2, 684634, Note_on_c, 0, 43, 0
2, 684722, Note_on_c, 0, 46, 88
2, 684732, Note_on_c, 0, 84, 121
2, 684738, Note_on_c, 0, 79, 113
2, 684738, Note_on_c, 0, 76, 100
2, 684744, Note_on_c, 0, 45, 0
2, 684776, Note_on_c, 0, 79, 0
2, 684776, Note_on_c, 0, 76, 0
2, 684830, Note_on_c, 0, 84, 0
2, 684834, Note_on_c, 0, 48, 90
2, 684838, Note_on_c, 0, 46, 0
2, 684942, Note_on_c, 0, 48, 0
2, 684962, Note_on_c, 0, 50, 91
2, 684965, Note_on_c, 0, 82, 98
2, 684965, Note_on_c, 0, 79, 102
2, 684970, Note_on_c, 0, 72, 102
2, 685030, Note_on_c, 0, 79, 0
2, 685046, Note_on_c, 0, 72, 0
2, 685074, Note_on_c, 0, 82, 0
2, 685082, Note_on_c, 0, 52, 106
2, 685090, Note_on_c, 0, 50, 0
2, 685184, Note_on_c, 0, 52, 0
2, 685216, Note_on_c, 0, 81, 115
2, 685219, Note_on_c, 0, 72, 107
2, 685222, Note_on_c, 0, 53, 118
2, 685224, Note_on_c, 0, 77, 102
2, 685330, Note_on_c, 0, 53, 0
2, 685338, Note_on_c, 0, 55, 105
2, 685474, Note_on_c, 0, 57, 97
2, 685498, Note_on_c, 0, 72, 0
2, 685506, Note_on_c, 0, 55, 0
2, 685598, Note_on_c, 0, 77, 0
2, 685601, Note_on_c, 0, 58, 82
2, 685618, Note_on_c, 0, 57, 0
2, 685694, Note_on_c, 0, 79, 118
2, 685702, Note_on_c, 0, 72, 94
2, 685705, Note_on_c, 0, 76, 79
2, 685716, Note_on_c, 0, 60, 93
2, 685718, Note_on_c, 0, 58, 0
2, 685740, Note_on_c, 0, 81, 0
2, 685822, Note_on_c, 0, 60, 0
2, 685828, Note_on_c, 0, 62, 91
2, 685964, Note_on_c, 0, 64, 101
2, 685970, Note_on_c, 0, 62, 0
2, 686076, Note_on_c, 0, 60, 101
2, 686082, Note_on_c, 0, 64, 0
2, 686130, Note_on_c, 0, 76, 0
2, 686184, Note_on_c, 0, 72, 0
2, 686190, Note_on_c, 0, 79, 0
2, 686190, Note_on_c, 0, 60, 0
2, 686214, Note_on_c, 0, 81, 120
2, 686220, Note_on_c, 0, 65, 114
2, 686266, Control_c, 0, 64, 127
2, 686310, Note_on_c, 0, 65, 0
2, 686362, Note_on_c, 0, 77, 100
2, 686476, Note_on_c, 0, 53, 127
2, 686482, Control_c, 0, 64, 0
2, 686482, Note_on_c, 0, 76, 87
2, 686534, Note_on_c, 0, 77, 0
2, 686612, Note_on_c, 0, 74, 91
2, 686642, Note_on_c, 0, 76, 0
2, 686680, Note_on_c, 0, 53, 0
2, 686726, Note_on_c, 0, 52, 115
2, 686746, Note_on_c, 0, 72, 94
2, 686762, Note_on_c, 0, 81, 0
2, 686788, Note_on_c, 0, 74, 0
2, 686788, Control_c, 0, 64, 127
2, 686848, Note_on_c, 0, 52, 0
2, 686866, Note_on_c, 0, 79, 111
2, 686866, Control_c, 0, 64, 0
2, 686890, Note_on_c, 0, 72, 0
2, 686978, Note_on_c, 0, 57, 95
2, 686986, Note_on_c, 0, 76, 95
2, 687040, Note_on_c, 0, 57, 0
2, 687072, Note_on_c, 0, 79, 0
2, 687110, Note_on_c, 0, 72, 99
2, 687142, Note_on_c, 0, 76, 0
2, 687234, Note_on_c, 0, 62, 98
2, 687238, Note_on_c, 0, 77, 113
2, 687264, Note_on_c, 0, 72, 0
2, 687336, Note_on_c, 0, 62, 0
2, 687352, Note_on_c, 0, 74, 97
2, 687388, Control_c, 0, 64, 127
2, 687450, Control_c, 0, 64, 0
2, 687468, Note_on_c, 0, 50, 109
2, 687474, Note_on_c, 0, 72, 94
2, 687534, Note_on_c, 0, 74, 0
2, 687598, Note_on_c, 0, 70, 83
2, 687648, Note_on_c, 0, 72, 0
2, 687670, Note_on_c, 0, 77, 0
2, 687702, Note_on_c, 0, 50, 0
2, 687720, Note_on_c, 0, 48, 101
2, 687723, Note_on_c, 0, 69, 83
2, 687774, Note_on_c, 0, 70, 0
2, 687822, Note_on_c, 0, 48, 0
2, 687850, Note_on_c, 0, 75, 95
2, 687914, Note_on_c, 0, 69, 0
2, 687970, Note_on_c, 0, 53, 123
2, 687978, Note_on_c, 0, 72, 79
2, 688014, Note_on_c, 0, 53, 0
2, 688050, Note_on_c, 0, 75, 0
2, 688086, Note_on_c, 0, 69, 86
2, 688116, Note_on_c, 0, 72, 0
2, 688218, Note_on_c, 0, 58, 95
2, 688218, Note_on_c, 0, 74, 113
2, 688244, Note_on_c, 0, 69, 0
2, 688326, Note_on_c, 0, 58, 0
2, 688341, Note_on_c, 0, 70, 84
2, 688456, Note_on_c, 0, 69, 84
2, 688459, Note_on_c, 0, 46, 97
2, 688578, Note_on_c, 0, 70, 0
2, 688581, Note_on_c, 0, 67, 93
2, 688587, Note_on_c, 0, 74, 0
2, 688632, Note_on_c, 0, 69, 0
2, 688640, Note_on_c, 0, 46, 0
2, 688694, Note_on_c, 0, 45, 88
2, 688712, Note_on_c, 0, 65, 94
2, 688742, Note_on_c, 0, 67, 0
2, 688818, Note_on_c, 0, 45, 0
2, 688821, Note_on_c, 0, 72, 101
2, 688828, Note_on_c, 0, 65, 0
2, 688948, Note_on_c, 0, 50, 95
2, 688951, Note_on_c, 0, 69, 82
2, 688990, Note_on_c, 0, 50, 0
2, 688998, Note_on_c, 0, 72, 0
2, 689064, Note_on_c, 0, 65, 82
2, 689102, Note_on_c, 0, 69, 0
2, 689184, Note_on_c, 0, 70, 92
2, 689186, Note_on_c, 0, 55, 102
2, 689198, Note_on_c, 0, 65, 0
2, 689234, Note_on_c, 0, 55, 0
2, 689278, Control_c, 0, 64, 127
2, 689298, Note_on_c, 0, 65, 72
2, 689384, Note_on_c, 0, 70, 0
2, 689412, Note_on_c, 0, 64, 88
2, 689426, Note_on_c, 0, 43, 90
2, 689428, Note_on_c, 0, 65, 0
2, 689506, Note_on_c, 0, 43, 0
2, 689509, Control_c, 0, 64, 0
2, 689512, Note_on_c, 0, 62, 91
2, 689518, Note_on_c, 0, 45, 90
2, 689524, Note_on_c, 0, 64, 0
2, 689644, Note_on_c, 0, 43, 108
2, 689647, Note_on_c, 0, 64, 85
2, 689650, Note_on_c, 0, 45, 0
2, 689668, Note_on_c, 0, 62, 0
2, 689716, Note_on_c, 0, 43, 0
2, 689758, Note_on_c, 0, 70, 77
2, 689761, Note_on_c, 0, 64, 0
2, 689896, Note_on_c, 0, 41, 102
2, 689904, Note_on_c, 0, 67, 77
2, 689934, Note_on_c, 0, 41, 0
2, 689976, Note_on_c, 0, 70, 0
2, 690030, Note_on_c, 0, 64, 79
2, 690036, Note_on_c, 0, 67, 0
2, 690154, Note_on_c, 0, 64, 0
2, 690157, Note_on_c, 0, 40, 103
2, 690166, Note_on_c, 0, 60, 77
2, 690292, Note_on_c, 0, 62, 87
2, 690318, Note_on_c, 0, 60, 0
2, 690410, Note_on_c, 0, 64, 93
2, 690416, Note_on_c, 0, 40, 0
2, 690424, Note_on_c, 0, 62, 0
2, 690424, Note_on_c, 0, 43, 80
2, 690522, Note_on_c, 0, 70, 71
2, 690524, Note_on_c, 0, 64, 0
2, 690578, Note_on_c, 0, 43, 0
2, 690584, Note_on_c, 0, 70, 0
2, 690648, Note_on_c, 0, 69, 91
2, 690664, Note_on_c, 0, 41, 87
2, 690767, Note_on_c, 0, 70, 90
2, 690814, Note_on_c, 0, 69, 0
2, 690836, Note_on_c, 0, 41, 0
2, 690880, Note_on_c, 0, 45, 64
2, 690894, Note_on_c, 0, 72, 102
2, 690930, Note_on_c, 0, 70, 0
2, 691012, Note_on_c, 0, 77, 97
2, 691022, Note_on_c, 0, 45, 0
2, 691032, Note_on_c, 0, 72, 0
2, 691128, Note_on_c, 0, 77, 0
2, 691134, Note_on_c, 0, 43, 80
2, 691140, Note_on_c, 0, 76, 102
2, 691260, Note_on_c, 0, 77, 114
2, 691296, Note_on_c, 0, 76, 0
2, 691314, Note_on_c, 0, 43, 0
2, 691378, Note_on_c, 0, 79, 110
2, 691380, Note_on_c, 0, 52, 97
2, 691396, Note_on_c, 0, 77, 0
2, 691486, Note_on_c, 0, 82, 87
2, 691490, Note_on_c, 0, 79, 0
2, 691494, Note_on_c, 0, 52, 0
2, 691596, Note_on_c, 0, 82, 0
2, 691598, Note_on_c, 0, 53, 118
2, 691606, Note_on_c, 0, 81, 108
2, 691722, Note_on_c, 0, 82, 100
2, 691754, Note_on_c, 0, 53, 0
2, 691782, Note_on_c, 0, 81, 0
2, 691844, Note_on_c, 0, 84, 109
2, 691844, Note_on_c, 0, 45, 94
2, 691886, Note_on_c, 0, 82, 0
2, 691946, Note_on_c, 0, 75, 100
2, 691976, Note_on_c, 0, 84, 0
2, 692012, Note_on_c, 0, 45, 0
2, 692074, Note_on_c, 0, 46, 76
2, 692080, Note_on_c, 0, 74, 111
2, 692094, Note_on_c, 0, 75, 0
2, 692202, Note_on_c, 0, 76, 101
2, 692216, Note_on_c, 0, 46, 0
2, 692244, Note_on_c, 0, 74, 0
2, 692316, Note_on_c, 0, 77, 113
2, 692316, Note_on_c, 0, 50, 90
2, 692330, Note_on_c, 0, 76, 0
2, 692390, Note_on_c, 0, 50, 0
2, 692424, Note_on_c, 0, 77, 0
2, 692432, Note_on_c, 0, 84, 105
2, 692564, Note_on_c, 0, 82, 102
2, 692582, Note_on_c, 0, 43, 78
2, 692626, Note_on_c, 0, 43, 0
2, 692638, Note_on_c, 0, 84, 0
2, 692682, Note_on_c, 0, 81, 106
2, 692748, Note_on_c, 0, 82, 0
2, 692802, Note_on_c, 0, 79, 113
2, 692804, Note_on_c, 0, 46, 75
2, 692832, Note_on_c, 0, 81, 0
2, 692850, Note_on_c, 0, 46, 0
2, 692914, Note_on_c, 0, 77, 101
2, 692918, Note_on_c, 0, 79, 0
2, 693020, Note_on_c, 0, 77, 0
2, 693038, Note_on_c, 0, 76, 99
2, 693048, Note_on_c, 0, 48, 91
2, 693152, Note_on_c, 0, 50, 91
2, 693160, Note_on_c, 0, 77, 101
2, 693166, Note_on_c, 0, 48, 0
2, 693186, Note_on_c, 0, 76, 0
2, 693276, Note_on_c, 0, 52, 101
2, 693282, Note_on_c, 0, 79, 103
2, 693296, Note_on_c, 0, 50, 0
2, 693296, Note_on_c, 0, 77, 0
2, 693400, Note_on_c, 0, 52, 0
2, 693400, Note_on_c, 0, 76, 80
2, 693402, Note_on_c, 0, 53, 123
2, 693416, Note_on_c, 0, 79, 0
2, 693492, Note_on_c, 0, 53, 0
2, 693512, Note_on_c, 0, 76, 0
2, 693524, Note_on_c, 0, 55, 109
2, 693528, Note_on_c, 0, 72, 106
2, 693640, Note_on_c, 0, 57, 103
2, 693654, Note_on_c, 0, 55, 0
2, 693758, Note_on_c, 0, 57, 0
2, 693764, Note_on_c, 0, 58, 97
2, 693872, Note_on_c, 0, 55, 102
2, 693882, Note_on_c, 0, 58, 0
2, 693996, Note_on_c, 0, 55, 0
2, 694000, Note_on_c, 0, 72, 0
2, 694004, Note_on_c, 0, 77, 120
2, 694007, Note_on_c, 0, 57, 97
2, 694012, Note_on_c, 0, 53, 113
2, 694110, Note_on_c, 0, 77, 0
2, 694302, Note_on_c, 0, 65, 116
2, 694550, Note_on_c, 0, 57, 0
2, 694560, Note_on_c, 0, 53, 0
2, 694586, Note_on_c, 0, 52, 101
2, 694588, Note_on_c, 0, 60, 110
2, 694850, Note_on_c, 0, 67, 110
2, 694898, Note_on_c, 0, 65, 0
2, 694962, Note_on_c, 0, 69, 92
2, 694970, Note_on_c, 0, 67, 0
2, 695036, Note_on_c, 0, 60, 0
2, 695072, Note_on_c, 0, 52, 0
2, 695092, Note_on_c, 0, 69, 0
2, 695092, Note_on_c, 0, 70, 102
2, 695098, Note_on_c, 0, 50, 101
2, 695098, Note_on_c, 0, 53, 127
2, 695232, Note_on_c, 0, 72, 113
2, 695252, Note_on_c, 0, 70, 0
2, 695342, Note_on_c, 0, 74, 123
2, 695354, Note_on_c, 0, 58, 83
2, 695356, Note_on_c, 0, 72, 0
2, 695376, Note_on_c, 0, 53, 0
2, 695438, Note_on_c, 0, 50, 0
2, 695464, Note_on_c, 0, 76, 110
2, 695492, Note_on_c, 0, 74, 0
2, 695502, Note_on_c, 0, 58, 0
2, 695578, Note_on_c, 0, 77, 120
2, 695586, Note_on_c, 0, 57, 95
2, 695588, Note_on_c, 0, 48, 86
2, 695596, Note_on_c, 0, 76, 0
2, 695644, Note_on_c, 0, 57, 0
2, 695656, Note_on_c, 0, 48, 0
2, 695696, Note_on_c, 0, 79, 121
2, 695732, Note_on_c, 0, 77, 0
2, 695810, Note_on_c, 0, 55, 97
2, 695812, Note_on_c, 0, 81, 114
2, 695818, Note_on_c, 0, 46, 88
2, 695850, Note_on_c, 0, 79, 0
2, 695854, Note_on_c, 0, 55, 0
2, 695868, Note_on_c, 0, 46, 0
2, 695924, Note_on_c, 0, 82, 103
2, 695996, Note_on_c, 0, 81, 0
2, 696062, Note_on_c, 0, 84, 127
2, 696066, Note_on_c, 0, 53, 122
2, 696074, Note_on_c, 0, 45, 88
2, 696150, Note_on_c, 0, 82, 0
2, 696164, Note_on_c, 0, 53, 0
2, 696174, Note_on_c, 0, 84, 0
2, 696190, Note_on_c, 0, 41, 113
2, 696206, Note_on_c, 0, 45, 0
2, 696306, Note_on_c, 0, 43, 99
2, 696316, Note_on_c, 0, 84, 123
2, 696320, Note_on_c, 0, 77, 106
2, 696324, Note_on_c, 0, 81, 100
2, 696354, Note_on_c, 0, 41, 0
2, 696356, Note_on_c, 0, 77, 0
2, 696358, Note_on_c, 0, 81, 0
2, 696394, Note_on_c, 0, 84, 0
2, 696412, Note_on_c, 0, 45, 85
2, 696454, Note_on_c, 0, 43, 0
2, 696546, Note_on_c, 0, 46, 94
2, 696549, Note_on_c, 0, 84, 116
2, 696560, Note_on_c, 0, 79, 107
2, 696560, Note_on_c, 0, 76, 90
2, 696588, Note_on_c, 0, 45, 0
2, 696596, Note_on_c, 0, 79, 0
2, 696600, Note_on_c, 0, 76, 0
2, 696630, Note_on_c, 0, 84, 0
2, 696664, Note_on_c, 0, 48, 87
2, 696688, Note_on_c, 0, 46, 0
2, 696768, Note_on_c, 0, 48, 0
2, 696782, Note_on_c, 0, 82, 99
2, 696788, Note_on_c, 0, 79, 95
2, 696790, Note_on_c, 0, 50, 103
2, 696796, Note_on_c, 0, 72, 79
2, 696832, Note_on_c, 0, 79, 0
2, 696846, Note_on_c, 0, 72, 0
2, 696896, Note_on_c, 0, 82, 0
2, 696914, Note_on_c, 0, 50, 0
2, 696917, Note_on_c, 0, 52, 109
2, 697010, Note_on_c, 0, 52, 0
2, 697038, Note_on_c, 0, 81, 113
2, 697042, Note_on_c, 0, 72, 101
2, 697044, Note_on_c, 0, 77, 105
2, 697044, Note_on_c, 0, 53, 117
2, 697148, Note_on_c, 0, 53, 0
2, 697164, Note_on_c, 0, 55, 101
2, 697274, Note_on_c, 0, 72, 0
2, 697288, Note_on_c, 0, 57, 95
2, 697322, Note_on_c, 0, 55, 0
2, 697416, Note_on_c, 0, 57, 0
2, 697416, Note_on_c, 0, 58, 85
2, 697450, Note_on_c, 0, 77, 0
2, 697530, Note_on_c, 0, 58, 0
2, 697532, Note_on_c, 0, 60, 86
2, 697538, Note_on_c, 0, 79, 118
2, 697544, Note_on_c, 0, 72, 91
2, 697547, Note_on_c, 0, 76, 83
2, 697604, Note_on_c, 0, 76, 0
2, 697604, Note_on_c, 0, 81, 0
2, 697642, Note_on_c, 0, 60, 0
2, 697658, Note_on_c, 0, 62, 80
2, 697766, Note_on_c, 0, 76, 7
2, 697774, Note_on_c, 0, 62, 0
2, 697806, Note_on_c, 0, 64, 94
2, 697822, Control_c, 0, 64, 127
2, 697825, Note_on_c, 0, 72, 0
2, 697858, Note_on_c, 0, 76, 0
2, 697880, Note_on_c, 0, 64, 0
2, 697886, Note_on_c, 0, 79, 0
2, 697956, Note_on_c, 0, 60, 78
2, 698016, Note_on_c, 0, 60, 0
2, 698066, Note_on_c, 0, 82, 111
2, 698084, Note_on_c, 0, 62, 113
2, 698222, Note_on_c, 0, 77, 79
2, 698236, Control_c, 0, 64, 0
2, 698330, Note_on_c, 0, 76, 77
2, 698346, Note_on_c, 0, 62, 0
2, 698348, Note_on_c, 0, 50, 94
2, 698356, Note_on_c, 0, 77, 0
2, 698436, Note_on_c, 0, 77, 77
2, 698450, Control_c, 0, 64, 127
2, 698486, Note_on_c, 0, 82, 0
2, 698512, Note_on_c, 0, 76, 0
2, 698524, Note_on_c, 0, 50, 0
2, 698568, Note_on_c, 0, 82, 83
2, 698571, Note_on_c, 0, 62, 98
2, 698590, Note_on_c, 0, 77, 0
2, 698590, Control_c, 0, 64, 0
2, 698658, Note_on_c, 0, 62, 0
2, 698680, Note_on_c, 0, 77, 77
2, 698718, Note_on_c, 0, 82, 0
2, 698826, Note_on_c, 0, 77, 0
2, 698828, Note_on_c, 0, 81, 109
2, 698828, Note_on_c, 0, 60, 100
2, 698938, Note_on_c, 0, 60, 0
2, 698952, Note_on_c, 0, 77, 82
2, 698976, Note_on_c, 0, 81, 0
2, 699070, Note_on_c, 0, 77, 0
2, 699072, Note_on_c, 0, 79, 116
2, 699076, Note_on_c, 0, 58, 82
2, 699178, Note_on_c, 0, 77, 75
2, 699288, Note_on_c, 0, 58, 0
2, 699308, Note_on_c, 0, 76, 77
2, 699312, Note_on_c, 0, 77, 0
2, 699318, Note_on_c, 0, 46, 78
2, 699358, Control_c, 0, 64, 127
2, 699388, Note_on_c, 0, 79, 0
2, 699428, Note_on_c, 0, 77, 92
2, 699456, Note_on_c, 0, 76, 0
2, 699526, Control_c, 0, 64, 0
2, 699544, Note_on_c, 0, 46, 0
2, 699548, Note_on_c, 0, 77, 0
2, 699558, Note_on_c, 0, 79, 116
2, 699561, Note_on_c, 0, 58, 87
2, 699670, Note_on_c, 0, 77, 91
2, 699674, Note_on_c, 0, 79, 0
2, 699688, Note_on_c, 0, 58, 0
2, 699786, Note_on_c, 0, 77, 0
2, 699808, Note_on_c, 0, 81, 107
2, 699810, Note_on_c, 0, 60, 105
2, 699882, Note_on_c, 0, 60, 0
2, 699926, Note_on_c, 0, 77, 86
2, 699978, Note_on_c, 0, 81, 0
2, 700062, Note_on_c, 0, 77, 0
2, 700062, Note_on_c, 0, 62, 117
2, 700072, Note_on_c, 0, 82, 107
2, 700172, Control_c, 0, 64, 127
2, 700200, Note_on_c, 0, 77, 88
2, 700284, Note_on_c, 0, 62, 0
2, 700310, Note_on_c, 0, 50, 92
2, 700320, Note_on_c, 0, 76, 83
2, 700328, Note_on_c, 0, 77, 0
2, 700362, Note_on_c, 0, 82, 0
2, 700446, Note_on_c, 0, 77, 71
2, 700476, Note_on_c, 0, 76, 0
2, 700482, Note_on_c, 0, 50, 0
2, 700556, Control_c, 0, 64, 0
2, 700562, Note_on_c, 0, 77, 0
2, 700564, Note_on_c, 0, 62, 87
2, 700568, Note_on_c, 0, 82, 102
2, 700630, Note_on_c, 0, 62, 0
2, 700692, Note_on_c, 0, 77, 92
2, 700746, Note_on_c, 0, 82, 0
2, 700806, Note_on_c, 0, 77, 0
2, 700816, Note_on_c, 0, 81, 109
2, 700824, Note_on_c, 0, 60, 97
2, 700912, Note_on_c, 0, 60, 0
2, 700932, Note_on_c, 0, 77, 94
2, 700964, Note_on_c, 0, 81, 0
2, 701028, Note_on_c, 0, 77, 0
2, 701070, Note_on_c, 0, 58, 88
2, 701073, Note_on_c, 0, 79, 118
2, 701170, Control_c, 0, 64, 127
2, 701194, Note_on_c, 0, 77, 88
2, 701250, Note_on_c, 0, 58, 0
2, 701282, Note_on_c, 0, 79, 0
2, 701292, Note_on_c, 0, 76, 83
2, 701304, Note_on_c, 0, 77, 0
2, 701306, Note_on_c, 0, 46, 75
2, 701424, Note_on_c, 0, 77, 80
2, 701432, Note_on_c, 0, 76, 0
2, 701496, Note_on_c, 0, 46, 0
2, 701510, Control_c, 0, 64, 0
2, 701524, Note_on_c, 0, 58, 77
2, 701538, Note_on_c, 0, 77, 0
2, 701540, Note_on_c, 0, 79, 117
2, 701654, Note_on_c, 0, 77, 94
2, 701664, Note_on_c, 0, 58, 0
2, 701692, Note_on_c, 0, 79, 0
2, 701762, Note_on_c, 0, 77, 0
2, 701790, Note_on_c, 0, 81, 113
2, 701796, Note_on_c, 0, 60, 101
2, 701870, Note_on_c, 0, 60, 0
2, 701908, Note_on_c, 0, 77, 100
2, 701962, Note_on_c, 0, 81, 0
2, 702042, Note_on_c, 0, 77, 0
2, 702054, Note_on_c, 0, 62, 100
2, 702054, Note_on_c, 0, 82, 103
2, 702190, Note_on_c, 0, 62, 0
2, 702190, Note_on_c, 0, 77, 101
2, 702258, Note_on_c, 0, 82, 0
2, 702312, Note_on_c, 0, 60, 98
2, 702314, Note_on_c, 0, 77, 0
2, 702320, Note_on_c, 0, 81, 110
2, 702434, Note_on_c, 0, 60, 0
2, 702436, Note_on_c, 0, 77, 97
2, 702456, Note_on_c, 0, 81, 0
2, 702546, Note_on_c, 0, 77, 0
2, 702566, Note_on_c, 0, 79, 120
2, 702572, Note_on_c, 0, 58, 83
2, 702670, Note_on_c, 0, 58, 0
2, 702700, Note_on_c, 0, 77, 107
2, 702810, Note_on_c, 0, 55, 93
2, 702818, Note_on_c, 0, 76, 98
2, 702852, Note_on_c, 0, 79, 0
2, 702878, Note_on_c, 0, 77, 0
2, 702936, Note_on_c, 0, 74, 102
2, 702942, Note_on_c, 0, 55, 0
2, 702970, Note_on_c, 0, 76, 0
2, 703064, Note_on_c, 0, 72, 98
2, 703067, Note_on_c, 0, 74, 0
2, 703067, Note_on_c, 0, 52, 114
2, 703168, Note_on_c, 0, 52, 0
2, 703190, Note_on_c, 0, 67, 106
2, 703220, Note_on_c, 0, 72, 0
2, 703322, Note_on_c, 0, 67, 0
2, 703325, Note_on_c, 0, 70, 87
2, 703325, Note_on_c, 0, 48, 100
2, 703446, Note_on_c, 0, 48, 0
2, 703456, Note_on_c, 0, 67, 102
2, 703486, Note_on_c, 0, 70, 0
2, 703588, Note_on_c, 0, 53, 125
2, 703594, Note_on_c, 0, 69, 90
2, 703600, Note_on_c, 0, 67, 0
2, 703732, Note_on_c, 0, 53, 0
2, 703738, Note_on_c, 0, 67, 102
2, 703768, Note_on_c, 0, 69, 0
2, 703872, Note_on_c, 0, 48, 101
2, 703874, Note_on_c, 0, 65, 101
2, 703890, Note_on_c, 0, 67, 0
2, 703968, Note_on_c, 0, 48, 0
2, 704014, Note_on_c, 0, 64, 116
2, 704054, Note_on_c, 0, 65, 0
2, 704162, Note_on_c, 0, 64, 0
2, 704170, Note_on_c, 0, 46, 97
2, 704182, Note_on_c, 0, 65, 110
2, 704306, Control_c, 0, 64, 127
2, 704316, Note_on_c, 0, 65, 0
2, 704328, Note_on_c, 0, 46, 0
2, 704348, Note_on_c, 0, 45, 100
2, 704428, Control_c, 0, 64, 0
2, 704500, Note_on_c, 0, 72, 106
2, 704503, Note_on_c, 0, 45, 0
2, 704503, Note_on_c, 0, 69, 76
2, 704503, Note_on_c, 0, 60, 86
2, 704516, Note_on_c, 0, 65, 52
2, 704518, Note_on_c, 0, 43, 105
2, 704628, Note_on_c, 0, 43, 0
2, 704674, Control_c, 0, 64, 127
2, 704676, Note_on_c, 0, 72, 0
2, 704680, Note_on_c, 0, 41, 115
2, 704692, Note_on_c, 0, 69, 0
2, 704712, Note_on_c, 0, 65, 0
2, 704746, Note_on_c, 0, 60, 0
2, 704818, Note_on_c, 0, 41, 0
2, 704828, Control_c, 0, 64, 0
2, 704878, Note_on_c, 0, 69, 98
2, 704882, Note_on_c, 0, 65, 87
2, 704890, Note_on_c, 0, 48, 101
2, 704894, Note_on_c, 0, 60, 95
2, 705058, Control_c, 0, 64, 127
2, 705108, Note_on_c, 0, 60, 0
2, 705110, Note_on_c, 0, 69, 0
2, 705154, Note_on_c, 0, 48, 0
2, 705162, Note_on_c, 0, 65, 0
2, 705304, Control_c, 0, 64, 0
2, 705306, Note_on_c, 0, 67, 98
2, 705306, Note_on_c, 0, 58, 82
2, 705310, Note_on_c, 0, 64, 94
2, 705316, Note_on_c, 0, 36, 110
2, 705546, Note_on_c, 0, 64, 0
2, 705558, Control_c, 0, 64, 127
2, 705566, Note_on_c, 0, 36, 0
2, 705594, Note_on_c, 0, 67, 0
2, 705598, Note_on_c, 0, 58, 0
2, 705606, Note_on_c, 0, 65, 103
2, 705702, Note_on_c, 0, 65, 0
2, 706106, Note_on_c, 0, 57, 106
2, 706108, Note_on_c, 0, 65, 110
2, 706111, Note_on_c, 0, 60, 107
2, 706111, Note_on_c, 0, 41, 107
2, 706111, Note_on_c, 0, 48, 92
2, 706240, Control_c, 0, 64, 0
2, 707316, Control_c, 0, 64, 127
2, 707662, Note_on_c, 0, 48, 0
2, 707730, Note_on_c, 0, 57, 0
2, 708496, Note_on_c, 0, 41, 0
2, 708558, Note_on_c, 0, 60, 0
2, 708566, Note_on_c, 0, 65, 0
2, 708608, Control_c, 0, 64, 0
2, 710400, Control_c, 0, 64, 0
2, 710400, End_track
0, 0, End_of_file
