0, 0, Header, 0, 1, 384
1, 0, Start_track
1, 0, Tempo, 512820
1, 0, Title_t, ""
1, 0, Note_on_c, 0, 68, 56
1, 39, Note_off_c, 0, 68, 64
1, 219, Note_on_c, 0, 70, 70
1, 323, Note_on_c, 0, 68, 64
1, 331, Note_off_c, 0, 70, 64
1, 425, Note_off_c, 0, 68, 64
1, 425, Note_on_c, 0, 66, 48
1, 499, Note_off_c, 0, 66, 64
1, 506, Note_on_c, 0, 68, 48
1, 551, Note_off_c, 0, 68, 64
1, 626, Note_on_c, 0, 77, 86
1, 696, Note_off_c, 0, 77, 64
1, 850, Note_on_c, 0, 73, 79
1, 925, Note_off_c, 0, 73, 64
1, 1088, Note_on_c, 0, 68, 85
1, 1323, Note_on_c, 0, 66, 64
1, 1334, Note_off_c, 0, 68, 64
1, 1406, Note_on_c, 0, 65, 61
1, 1415, Note_off_c, 0, 66, 64
1, 1462, Note_off_c, 0, 65, 64
1, 1518, Note_on_c, 0, 66, 78
1, 1643, Note_off_c, 0, 66, 64
1, 1746, Note_on_c, 0, 75, 73
1, 1788, Note_off_c, 0, 75, 64
1, 1961, Note_on_c, 0, 65, 71
1, 2006, Note_off_c, 0, 65, 64
1, 2178, Note_on_c, 0, 73, 58
1, 2219, Note_off_c, 0, 73, 64
1, 2389, Note_on_c, 0, 63, 66
1, 2439, Note_off_c, 0, 63, 64
1, 2621, Note_on_c, 0, 72, 52
1, 2674, Note_off_c, 0, 72, 64
1, 2846, Note_on_c, 0, 61, 56
1, 2891, Note_off_c, 0, 61, 64
1, 2955, Control_c, 0, 64, 127
1, 3058, Note_on_c, 0, 73, 55
1, 3100, Control_c, 0, 64, 0
1, 3159, Note_on_c, 0, 72, 66
1, 3169, Note_off_c, 0, 73, 64
1, 3239, Note_off_c, 0, 72, 64
1, 3265, Note_on_c, 0, 73, 63
1, 3364, Note_off_c, 0, 73, 64
1, 3364, Note_on_c, 0, 75, 70
1, 3462, Note_off_c, 0, 75, 64
1, 3478, Note_on_c, 0, 61, 70
1, 3485, Note_on_c, 0, 77, 59
1, 3510, Note_off_c, 0, 61, 64
1, 3566, Note_on_c, 0, 78, 62
1, 3587, Note_off_c, 0, 77, 64
1, 3676, Note_on_c, 0, 65, 71
1, 3683, Note_on_c, 0, 80, 73
1, 3713, Note_off_c, 0, 78, 64
1, 3779, Note_on_c, 0, 63, 75
1, 3785, Note_on_c, 0, 79, 80
1, 3791, Note_off_c, 0, 65, 64
1, 3811, Note_off_c, 0, 80, 64
1, 3871, Note_off_c, 0, 63, 64
1, 3888, Note_on_c, 0, 61, 58
1, 3891, Note_on_c, 0, 77, 78
1, 3894, Note_off_c, 0, 79, 64
1, 3986, Note_on_c, 0, 63, 77
1, 3991, Note_off_c, 0, 77, 64
1, 3991, Note_on_c, 0, 79, 83
1, 4016, Note_off_c, 0, 61, 64
1, 4039, Note_off_c, 0, 63, 64
1, 4100, Note_off_c, 0, 79, 64
1, 4103, Note_on_c, 0, 72, 84
1, 4106, Note_on_c, 0, 80, 81
1, 4184, Note_off_c, 0, 72, 64
1, 4208, Note_on_c, 0, 78, 72
1, 4242, Note_off_c, 0, 80, 64
1, 4317, Note_off_c, 0, 78, 64
1, 4320, Note_on_c, 0, 68, 83
1, 4325, Note_on_c, 0, 77, 72
1, 4375, Note_off_c, 0, 68, 64
1, 4415, Note_on_c, 0, 75, 70
1, 4428, Note_off_c, 0, 77, 64
1, 4546, Note_on_c, 0, 63, 86
1, 4546, Note_on_c, 0, 77, 87
1, 4587, Note_off_c, 0, 75, 64
1, 4783, Note_on_c, 0, 61, 65
1, 4807, Note_off_c, 0, 63, 64
1, 4866, Note_on_c, 0, 60, 72
1, 4886, Note_off_c, 0, 61, 64
1, 4992, Note_on_c, 0, 61, 86
1, 5003, Note_off_c, 0, 60, 64
1, 5023, Note_off_c, 0, 61, 64
1, 5100, Note_on_c, 0, 75, 68
1, 5133, Note_off_c, 0, 77, 64
1, 5203, Note_on_c, 0, 73, 69
1, 5203, Note_on_c, 0, 70, 75
1, 5233, Note_off_c, 0, 75, 64
1, 5281, Note_off_c, 0, 70, 64
1, 5321, Note_on_c, 0, 77, 68
1, 5334, Note_off_c, 0, 73, 64
1, 5426, Note_on_c, 0, 60, 66
1, 5435, Note_on_c, 0, 75, 66
1, 5448, Note_off_c, 0, 77, 64
1, 5490, Note_off_c, 0, 60, 64
1, 5541, Note_off_c, 0, 75, 64
1, 5541, Note_on_c, 0, 73, 50
1, 5643, Note_on_c, 0, 68, 65
1, 5658, Note_on_c, 0, 72, 54
1, 5658, Note_off_c, 0, 73, 64
1, 5693, Note_off_c, 0, 68, 64
1, 5725, Note_off_c, 0, 72, 64
1, 5754, Note_on_c, 0, 75, 52
1, 5847, Note_on_c, 0, 58, 50
1, 5863, Note_on_c, 0, 73, 58
1, 5880, Note_off_c, 0, 75, 64
1, 5897, Note_off_c, 0, 58, 64
1, 5964, Note_on_c, 0, 72, 59
1, 5969, Note_off_c, 0, 73, 64
1, 6075, Note_on_c, 0, 67, 50
1, 6091, Note_on_c, 0, 73, 59
1, 6091, Note_off_c, 0, 72, 64
1, 6120, Note_off_c, 0, 67, 64
1, 6183, Note_on_c, 0, 70, 55
1, 6187, Note_off_c, 0, 73, 64
1, 6265, Note_off_c, 0, 70, 64
1, 6298, Note_on_c, 0, 72, 73
1, 6298, Note_on_c, 0, 56, 57
1, 6356, Note_off_c, 0, 72, 64
1, 6462, Note_off_c, 0, 56, 64
1, 6504, Note_on_c, 0, 75, 75
1, 6509, Note_on_c, 0, 68, 47
1, 6562, Note_off_c, 0, 68, 64
1, 6573, Note_off_c, 0, 75, 64
1, 6591, Note_on_c, 0, 67, 69
1, 6632, Note_off_c, 0, 67, 64
1, 6713, Note_on_c, 0, 78, 83
1, 6724, Note_on_c, 0, 68, 72
1, 6763, Note_off_c, 0, 68, 64
1, 6833, Note_on_c, 0, 70, 52
1, 6924, Note_on_c, 0, 56, 85
1, 6936, Note_off_c, 0, 70, 64
1, 6941, Note_on_c, 0, 72, 57
1, 7006, Note_off_c, 0, 56, 64
1, 7012, Note_off_c, 0, 72, 64
1, 7031, Note_on_c, 0, 68, 51
1, 7122, Note_off_c, 0, 68, 64
1, 7150, Note_on_c, 0, 58, 83
1, 7150, Note_on_c, 0, 73, 56
1, 7239, Note_on_c, 0, 56, 78
1, 7245, Note_on_c, 0, 72, 55
1, 7261, Note_off_c, 0, 73, 64
1, 7271, Note_off_c, 0, 58, 64
1, 7340, Note_on_c, 0, 70, 64
1, 7348, Note_on_c, 0, 54, 96
1, 7354, Note_off_c, 0, 72, 64
1, 7354, Note_off_c, 0, 56, 64
1, 7442, Note_on_c, 0, 72, 56
1, 7452, Note_off_c, 0, 70, 64
1, 7455, Note_on_c, 0, 56, 78
1, 7474, Note_off_c, 0, 78, 64
1, 7488, Note_off_c, 0, 54, 64
1, 7557, Note_off_c, 0, 56, 64
1, 7557, Note_on_c, 0, 65, 94
1, 7557, Note_on_c, 0, 73, 71
1, 7568, Note_on_c, 0, 77, 73
1, 7579, Note_off_c, 0, 72, 64
1, 7635, Note_off_c, 0, 65, 64
1, 7663, Note_on_c, 0, 72, 53
1, 7668, Note_off_c, 0, 73, 64
1, 7777, Note_off_c, 0, 72, 64
1, 7777, Note_on_c, 0, 61, 94
1, 7780, Note_on_c, 0, 70, 53
1, 7863, Note_off_c, 0, 61, 64
1, 7885, Note_on_c, 0, 68, 61
1, 7902, Note_off_c, 0, 70, 64
1, 8008, Note_on_c, 0, 70, 71
1, 8012, Note_on_c, 0, 56, 92
1, 8058, Note_off_c, 0, 68, 64
1, 8254, Note_on_c, 0, 54, 85
1, 8261, Note_off_c, 0, 56, 64
1, 8289, Control_c, 0, 64, 127
1, 8320, Note_off_c, 0, 77, 64
1, 8340, Note_on_c, 0, 53, 101
1, 8360, Note_off_c, 0, 54, 64
1, 8445, Control_c, 0, 64, 0
1, 8454, Note_on_c, 0, 75, 72
1, 8459, Note_on_c, 0, 54, 101
1, 8473, Note_off_c, 0, 53, 64
1, 8548, Note_off_c, 0, 54, 64
1, 8563, Note_on_c, 0, 68, 67
1, 8585, Note_off_c, 0, 70, 64
1, 8679, Note_on_c, 0, 63, 95
1, 8685, Note_on_c, 0, 66, 60
1, 8691, Note_off_c, 0, 68, 64
1, 8746, Note_off_c, 0, 63, 64
1, 8785, Note_on_c, 0, 70, 57
1, 8789, Note_off_c, 0, 66, 64
1, 8909, Note_on_c, 0, 68, 67
1, 8909, Note_on_c, 0, 53, 103
1, 8917, Note_off_c, 0, 70, 64
1, 8977, Note_off_c, 0, 53, 64
1, 9011, Note_on_c, 0, 66, 52
1, 9033, Note_off_c, 0, 68, 64
1, 9039, Note_off_c, 0, 75, 64
1, 9120, Note_on_c, 0, 61, 83
1, 9120, Note_on_c, 0, 73, 70
1, 9131, Note_on_c, 0, 65, 57
1, 9131, Note_off_c, 0, 66, 64
1, 9200, Note_off_c, 0, 61, 64
1, 9223, Note_on_c, 0, 68, 56
1, 9229, Note_off_c, 0, 65, 64
1, 9289, Note_off_c, 0, 68, 64
1, 9331, Note_off_c, 0, 73, 64
1, 9335, Note_on_c, 0, 51, 80
1, 9335, Note_on_c, 0, 72, 65
1, 9346, Note_on_c, 0, 66, 47
1, 9385, Note_off_c, 0, 51, 64
1, 9418, Note_off_c, 0, 66, 64
1, 9443, Note_on_c, 0, 65, 43
1, 9484, Note_off_c, 0, 65, 64
1, 9552, Note_on_c, 0, 60, 56
1, 9555, Note_on_c, 0, 66, 41
1, 9555, Note_on_c, 0, 75, 59
1, 9576, Note_off_c, 0, 72, 64
1, 9593, Note_off_c, 0, 60, 64
1, 9652, Note_off_c, 0, 66, 64
1, 9661, Note_on_c, 0, 63, 58
1, 9703, Note_off_c, 0, 63, 64
1, 9782, Note_on_c, 0, 49, 54
1, 9789, Note_on_c, 0, 65, 57
1, 9825, Note_off_c, 0, 49, 64
1, 9895, Control_c, 0, 64, 127
1, 9995, Note_on_c, 0, 68, 58
1, 10003, Note_off_c, 0, 75, 64
1, 10009, Note_on_c, 0, 61, 38
1, 10014, Control_c, 0, 64, 0
1, 10028, Note_off_c, 0, 65, 64
1, 10070, Note_off_c, 0, 61, 64
1, 10098, Note_on_c, 0, 60, 48
1, 10167, Note_off_c, 0, 60, 64
1, 10204, Note_off_c, 0, 68, 64
1, 10209, Note_on_c, 0, 77, 77
1, 10217, Note_on_c, 0, 61, 56
1, 10301, Note_off_c, 0, 61, 64
1, 10321, Note_on_c, 0, 63, 60
1, 10381, Note_off_c, 0, 63, 64
1, 10421, Note_on_c, 0, 68, 62
1, 10437, Note_on_c, 0, 65, 44
1, 10473, Note_off_c, 0, 68, 64
1, 10494, Note_off_c, 0, 65, 64
1, 10532, Note_on_c, 0, 61, 57
1, 10629, Note_off_c, 0, 61, 64
1, 10639, Note_on_c, 0, 73, 51
1, 10647, Note_on_c, 0, 58, 31
1, 10678, Note_off_c, 0, 77, 64
1, 10728, Note_off_c, 0, 58, 64
1, 10772, Note_on_c, 0, 60, 32
1, 10825, Note_off_c, 0, 60, 64
1, 10852, Note_on_c, 0, 77, 59
1, 10858, Note_on_c, 0, 61, 48
1, 10866, Note_off_c, 0, 73, 64
1, 10944, Note_on_c, 0, 73, 40
1, 10958, Note_on_c, 0, 58, 44
1, 10961, Note_off_c, 0, 61, 64
1, 10980, Note_off_c, 0, 77, 64
1, 11023, Note_off_c, 0, 58, 64
1, 11045, Note_on_c, 0, 70, 54
1, 11056, Note_off_c, 0, 73, 64
1, 11067, Note_on_c, 0, 55, 42
1, 11151, Note_off_c, 0, 55, 64
1, 11157, Note_on_c, 0, 56, 48
1, 11210, Note_off_c, 0, 56, 64
1, 11248, Note_on_c, 0, 58, 40
1, 11262, Note_on_c, 0, 73, 46
1, 11262, Note_off_c, 0, 70, 64
1, 11326, Note_off_c, 0, 58, 64
1, 11354, Note_on_c, 0, 55, 48
1, 11354, Note_on_c, 0, 70, 26
1, 11371, Note_off_c, 0, 73, 64
1, 11413, Note_off_c, 0, 55, 64
1, 11471, Note_on_c, 0, 63, 55
1, 11471, Note_off_c, 0, 70, 64
1, 11482, Note_on_c, 0, 48, 44
1, 11650, Note_off_c, 0, 48, 64
1, 11691, Note_on_c, 0, 70, 53
1, 11699, Note_on_c, 0, 60, 44
1, 11733, Note_off_c, 0, 70, 64
1, 11767, Note_off_c, 0, 60, 64
1, 11794, Note_on_c, 0, 58, 47
1, 11850, Note_off_c, 0, 63, 64
1, 11900, Note_on_c, 0, 75, 79
1, 11906, Note_off_c, 0, 58, 64
1, 11919, Note_on_c, 0, 60, 52
1, 12008, Note_off_c, 0, 60, 64
1, 12019, Note_on_c, 0, 61, 60
1, 12078, Note_off_c, 0, 61, 64
1, 12114, Note_on_c, 0, 67, 62
1, 12118, Note_on_c, 0, 63, 69
1, 12160, Note_off_c, 0, 67, 64
1, 12196, Note_off_c, 0, 63, 64
1, 12224, Note_on_c, 0, 60, 73
1, 12309, Note_off_c, 0, 60, 64
1, 12316, Note_on_c, 0, 56, 61
1, 12334, Note_on_c, 0, 72, 59
1, 12409, Note_off_c, 0, 75, 64
1, 12416, Note_on_c, 0, 58, 61
1, 12429, Note_off_c, 0, 56, 64
1, 12511, Note_off_c, 0, 58, 64
1, 12538, Note_on_c, 0, 75, 62
1, 12544, Note_on_c, 0, 60, 52
1, 12549, Note_off_c, 0, 72, 64
1, 12616, Note_off_c, 0, 60, 64
1, 12619, Note_on_c, 0, 56, 63
1, 12633, Note_on_c, 0, 72, 33
1, 12638, Note_off_c, 0, 75, 64
1, 12705, Note_off_c, 0, 56, 64
1, 12738, Note_off_c, 0, 72, 64
1, 12738, Note_on_c, 0, 68, 53
1, 12749, Note_on_c, 0, 53, 74
1, 12800, Note_off_c, 0, 53, 64
1, 12836, Note_on_c, 0, 55, 57
1, 12884, Note_off_c, 0, 55, 64
1, 12956, Note_on_c, 0, 56, 50
1, 12970, Note_on_c, 0, 72, 58
1, 12975, Note_off_c, 0, 68, 64
1, 13064, Note_on_c, 0, 68, 28
1, 13067, Note_off_c, 0, 56, 64
1, 13067, Note_on_c, 0, 53, 67
1, 13089, Note_off_c, 0, 72, 64
1, 13112, Note_off_c, 0, 53, 64
1, 13160, Note_off_c, 0, 68, 64
1, 13171, Note_on_c, 0, 61, 56
1, 13181, Note_on_c, 0, 46, 40
1, 13263, Note_off_c, 0, 46, 64
1, 13390, Note_on_c, 0, 68, 60
1, 13398, Note_off_c, 0, 61, 64
1, 13404, Note_on_c, 0, 58, 38
1, 13460, Note_off_c, 0, 68, 64
1, 13460, Note_off_c, 0, 58, 64
1, 13483, Note_on_c, 0, 56, 58
1, 13593, Note_on_c, 0, 73, 79
1, 13602, Note_off_c, 0, 56, 64
1, 13610, Note_on_c, 0, 58, 39
1, 13680, Note_off_c, 0, 58, 64
1, 13714, Note_on_c, 0, 60, 41
1, 13764, Note_off_c, 0, 60, 64
1, 13805, Note_on_c, 0, 61, 51
1, 13820, Note_on_c, 0, 65, 64
1, 13855, Note_off_c, 0, 65, 64
1, 13925, Note_off_c, 0, 61, 64
1, 13925, Note_on_c, 0, 58, 43
1, 14026, Note_on_c, 0, 70, 71
1, 14042, Note_off_c, 0, 58, 64
1, 14054, Note_on_c, 0, 55, 36
1, 14065, Note_off_c, 0, 73, 64
1, 14065, Control_c, 0, 64, 127
1, 14123, Note_off_c, 0, 55, 64
1, 14123, Control_c, 0, 64, 0
1, 14132, Note_on_c, 0, 72, 67
1, 14137, Note_on_c, 0, 56, 49
1, 14157, Note_off_c, 0, 70, 64
1, 14199, Note_off_c, 0, 56, 64
1, 14240, Note_on_c, 0, 58, 42
1, 14240, Note_on_c, 0, 73, 78
1, 14263, Note_off_c, 0, 72, 64
1, 14291, Note_off_c, 0, 58, 64
1, 14321, Note_on_c, 0, 70, 73
1, 14340, Note_off_c, 0, 73, 64
1, 14355, Note_on_c, 0, 55, 55
1, 14433, Note_off_c, 0, 55, 64
1, 14449, Note_on_c, 0, 82, 90
1, 14455, Note_off_c, 0, 70, 64
1, 14458, Note_on_c, 0, 51, 52
1, 14549, Note_on_c, 0, 73, 72
1, 14568, Note_on_c, 0, 53, 64
1, 14610, Note_off_c, 0, 53, 64
1, 14633, Note_off_c, 0, 51, 64
1, 14663, Note_on_c, 0, 55, 54
1, 14663, Note_on_c, 0, 75, 70
1, 14669, Note_off_c, 0, 73, 64
1, 14745, Note_off_c, 0, 55, 64
1, 14753, Note_on_c, 0, 51, 62
1, 14753, Note_on_c, 0, 70, 69
1, 14759, Note_off_c, 0, 75, 64
1, 14759, Control_c, 0, 64, 127
1, 14808, Note_off_c, 0, 70, 64
1, 14808, Control_c, 0, 64, 0
1, 14823, Note_off_c, 0, 51, 64
1, 14872, Note_on_c, 0, 44, 72
1, 14878, Note_on_c, 0, 72, 78
1, 14964, Note_off_c, 0, 82, 64
1, 14979, Note_on_c, 0, 80, 75
1, 14992, Note_off_c, 0, 44, 64
1, 15071, Note_on_c, 0, 56, 61
1, 15079, Note_on_c, 0, 79, 89
1, 15098, Note_off_c, 0, 80, 64
1, 15184, Note_on_c, 0, 82, 83
1, 15184, Note_on_c, 0, 58, 59
1, 15195, Note_off_c, 0, 56, 64
1, 15204, Note_off_c, 0, 79, 64
1, 15237, Note_off_c, 0, 72, 64
1, 15293, Note_off_c, 0, 58, 64
1, 15298, Note_on_c, 0, 80, 80
1, 15302, Note_on_c, 0, 60, 81
1, 15327, Note_off_c, 0, 82, 64
1, 15334, Note_off_c, 0, 60, 64
1, 15402, Note_on_c, 0, 75, 69
1, 15454, Note_off_c, 0, 80, 64
1, 15511, Note_on_c, 0, 68, 83
1, 15511, Note_on_c, 0, 77, 75
1, 15532, Note_on_c, 0, 56, 62
1, 15553, Note_off_c, 0, 75, 64
1, 15569, Note_off_c, 0, 56, 64
1, 15628, Note_on_c, 0, 78, 79
1, 15642, Note_off_c, 0, 77, 64
1, 15745, Note_on_c, 0, 77, 86
1, 15759, Note_on_c, 0, 61, 70
1, 15789, Note_off_c, 0, 78, 64
1, 15848, Note_off_c, 0, 68, 64
1, 15853, Note_on_c, 0, 75, 78
1, 15869, Note_on_c, 0, 67, 70
1, 15872, Note_off_c, 0, 77, 64
1, 15945, Note_off_c, 0, 75, 64
1, 15953, Note_on_c, 0, 73, 75
1, 15953, Note_on_c, 0, 65, 69
1, 15967, Note_off_c, 0, 67, 64
1, 16004, Note_off_c, 0, 61, 64
1, 16054, Note_on_c, 0, 75, 85
1, 16057, Note_on_c, 0, 67, 69
1, 16057, Note_off_c, 0, 73, 64
1, 16076, Note_off_c, 0, 65, 64
1, 16157, Note_off_c, 0, 67, 64
1, 16168, Note_on_c, 0, 84, 102
1, 16168, Note_on_c, 0, 68, 70
1, 16193, Note_off_c, 0, 75, 64
1, 16193, Note_on_c, 0, 60, 46
1, 16254, Note_off_c, 0, 84, 64
1, 16279, Note_off_c, 0, 68, 64
1, 16290, Note_on_c, 0, 66, 67
1, 16363, Note_off_c, 0, 66, 64
1, 16388, Note_on_c, 0, 80, 92
1, 16408, Note_on_c, 0, 65, 59
1, 16455, Note_off_c, 0, 80, 64
1, 16489, Note_off_c, 0, 65, 64
1, 16494, Note_on_c, 0, 63, 78
1, 16541, Note_off_c, 0, 60, 64
1, 16580, Note_off_c, 0, 63, 64
1, 16616, Note_on_c, 0, 65, 78
1, 16616, Note_on_c, 0, 75, 88
1, 16624, Note_on_c, 0, 58, 60
1, 16767, Note_off_c, 0, 75, 64
1, 16775, Note_off_c, 0, 58, 64
1, 16850, Note_on_c, 0, 73, 69
1, 16850, Note_on_c, 0, 56, 66
1, 16901, Note_off_c, 0, 56, 64
1, 16956, Note_on_c, 0, 72, 68
1, 16959, Note_off_c, 0, 73, 64
1, 17071, Note_off_c, 0, 72, 64
1, 17081, Note_on_c, 0, 55, 84
1, 17081, Note_on_c, 0, 73, 74
1, 17215, Note_on_c, 0, 63, 72
1, 17230, Note_off_c, 0, 65, 64
1, 17234, Note_off_c, 0, 73, 64
1, 17304, Note_on_c, 0, 82, 72
1, 17312, Note_off_c, 0, 63, 64
1, 17318, Note_on_c, 0, 61, 76
1, 17394, Note_off_c, 0, 55, 64
1, 17421, Note_on_c, 0, 65, 69
1, 17421, Note_off_c, 0, 82, 64
1, 17436, Note_off_c, 0, 61, 64
1, 17524, Note_on_c, 0, 72, 78
1, 17533, Note_off_c, 0, 65, 64
1, 17538, Note_on_c, 0, 63, 79
1, 17542, Note_on_c, 0, 56, 65
1, 17621, Note_off_c, 0, 72, 64
1, 17641, Note_off_c, 0, 63, 64
1, 17656, Note_on_c, 0, 61, 59
1, 17714, Note_off_c, 0, 61, 64
1, 17739, Note_on_c, 0, 80, 68
1, 17770, Note_on_c, 0, 60, 53
1, 17817, Note_off_c, 0, 60, 64
1, 17847, Note_off_c, 0, 80, 64
1, 17851, Note_on_c, 0, 63, 73
1, 17851, Note_off_c, 0, 56, 64
1, 17864, Control_c, 0, 64, 127
1, 17879, Note_off_c, 0, 63, 64
1, 17912, Control_c, 0, 64, 0
1, 17950, Note_on_c, 0, 70, 49
1, 17964, Note_on_c, 0, 61, 67
1, 17986, Note_on_c, 0, 51, 42
1, 18010, Note_off_c, 0, 61, 64
1, 18048, Note_off_c, 0, 70, 64
1, 18087, Note_on_c, 0, 60, 46
1, 18140, Note_off_c, 0, 60, 64
1, 18181, Note_on_c, 0, 61, 65
1, 18190, Note_on_c, 0, 79, 62
1, 18235, Note_off_c, 0, 61, 64
1, 18235, Note_off_c, 0, 79, 64
1, 18302, Note_on_c, 0, 58, 30
1, 18377, Note_off_c, 0, 58, 64
1, 18400, Note_on_c, 0, 68, 53
1, 18407, Note_off_c, 0, 51, 64
1, 18407, Note_on_c, 0, 56, 34
1, 18416, Note_on_c, 0, 60, 32
1, 18460, Note_off_c, 0, 68, 64
1, 18508, Note_on_c, 0, 70, 46
1, 18530, Note_off_c, 0, 60, 64
1, 18567, Note_off_c, 0, 70, 64
1, 18611, Note_on_c, 0, 72, 56
1, 18611, Note_on_c, 0, 63, 68
1, 18649, Note_off_c, 0, 56, 64
1, 18659, Note_off_c, 0, 63, 64
1, 18714, Note_on_c, 0, 73, 57
1, 18722, Note_off_c, 0, 72, 64
1, 18817, Note_on_c, 0, 68, 75
1, 18833, Note_on_c, 0, 72, 65
1, 18844, Note_off_c, 0, 73, 64
1, 18895, Control_c, 0, 64, 127
1, 18920, Note_off_c, 0, 68, 64
1, 18932, Note_on_c, 0, 70, 59
1, 18940, Note_off_c, 0, 72, 64
1, 19034, Note_on_c, 0, 68, 68
1, 19045, Note_off_c, 0, 70, 64
1, 19057, Note_on_c, 0, 63, 60
1, 19126, Note_off_c, 0, 63, 64
1, 19137, Note_on_c, 0, 72, 67
1, 19151, Note_off_c, 0, 68, 64
1, 19171, Note_on_c, 0, 60, 41
1, 19171, Control_c, 0, 64, 0
1, 19227, Note_off_c, 0, 60, 64
1, 19244, Note_off_c, 0, 72, 64
1, 19255, Note_on_c, 0, 77, 90
1, 19262, Note_on_c, 0, 56, 67
1, 19358, Note_on_c, 0, 75, 73
1, 19393, Note_off_c, 0, 77, 64
1, 19416, Note_off_c, 0, 56, 64
1, 19422, Control_c, 0, 64, 127
1, 19452, Note_off_c, 0, 75, 64
1, 19472, Note_on_c, 0, 74, 85
1, 19480, Note_on_c, 0, 59, 63
1, 19483, Control_c, 0, 64, 0
1, 19564, Note_on_c, 0, 56, 71
1, 19567, Note_on_c, 0, 77, 81
1, 19581, Note_off_c, 0, 59, 64
1, 19589, Note_off_c, 0, 74, 64
1, 19666, Note_off_c, 0, 56, 64
1, 19677, Note_on_c, 0, 80, 92
1, 19681, Note_on_c, 0, 53, 101
1, 19695, Note_off_c, 0, 77, 64
1, 19784, Note_on_c, 0, 78, 83
1, 19833, Note_off_c, 0, 53, 64
1, 19837, Note_off_c, 0, 80, 64
1, 19884, Note_on_c, 0, 56, 68
1, 19884, Note_on_c, 0, 77, 87
1, 19900, Note_off_c, 0, 78, 64
1, 19900, Control_c, 0, 64, 127
1, 19964, Note_on_c, 0, 80, 85
1, 19975, Note_off_c, 0, 77, 64
1, 19984, Note_off_c, 0, 56, 64
1, 19998, Note_off_c, 0, 80, 64
1, 19998, Control_c, 0, 64, 0
1, 20020, Note_on_c, 0, 53, 78
1, 20045, Note_on_c, 0, 80, 78
1, 20109, Note_on_c, 0, 82, 75
1, 20151, Note_off_c, 0, 53, 64
1, 20154, Note_on_c, 0, 50, 79
1, 20154, Note_on_c, 0, 83, 108
1, 20166, Note_off_c, 0, 80, 64
1, 20204, Note_off_c, 0, 82, 64
1, 20377, Note_on_c, 0, 82, 69
1, 20388, Note_on_c, 0, 53, 91
1, 20424, Note_off_c, 0, 83, 64
1, 20453, Note_off_c, 0, 50, 64
1, 20480, Note_on_c, 0, 80, 76
1, 20494, Note_on_c, 0, 56, 57
1, 20524, Note_off_c, 0, 82, 64
1, 20560, Note_off_c, 0, 53, 64
1, 20588, Note_on_c, 0, 78, 82
1, 20597, Note_on_c, 0, 59, 86
1, 20613, Note_off_c, 0, 80, 64
1, 20613, Note_off_c, 0, 56, 64
1, 20697, Note_on_c, 0, 77, 80
1, 20712, Note_off_c, 0, 78, 64
1, 20794, Note_on_c, 0, 75, 82
1, 20806, Note_off_c, 0, 77, 64
1, 20828, Note_on_c, 0, 53, 83
1, 20900, Note_on_c, 0, 74, 92
1, 20915, Note_off_c, 0, 75, 64
1, 21014, Note_on_c, 0, 58, 66
1, 21021, Note_off_c, 0, 59, 64
1, 21021, Note_on_c, 0, 54, 66
1, 21024, Note_off_c, 0, 53, 64
1, 21024, Note_on_c, 0, 75, 82
1, 21046, Note_off_c, 0, 74, 64
1, 21102, Note_off_c, 0, 58, 64
1, 21116, Note_on_c, 0, 78, 76
1, 21126, Note_off_c, 0, 75, 64
1, 21126, Note_off_c, 0, 54, 64
1, 21224, Note_on_c, 0, 77, 75
1, 21232, Note_on_c, 0, 59, 68
1, 21235, Note_on_c, 0, 56, 62
1, 21263, Note_off_c, 0, 78, 64
1, 21280, Note_off_c, 0, 59, 64
1, 21290, Note_off_c, 0, 56, 64
1, 21329, Note_on_c, 0, 75, 74
1, 21340, Note_off_c, 0, 77, 64
1, 21439, Note_on_c, 0, 58, 70
1, 21449, Note_on_c, 0, 74, 81
1, 21453, Note_off_c, 0, 75, 64
1, 21511, Note_off_c, 0, 58, 64
1, 21542, Note_off_c, 0, 74, 64
1, 21552, Note_on_c, 0, 77, 79
1, 21658, Note_off_c, 0, 77, 64
1, 21658, Note_on_c, 0, 70, 64
1, 21669, Note_on_c, 0, 50, 66
1, 21673, Note_on_c, 0, 46, 41
1, 21706, Note_off_c, 0, 50, 64
1, 21725, Note_off_c, 0, 46, 64
1, 21754, Note_on_c, 0, 68, 72
1, 21761, Note_off_c, 0, 70, 64
1, 21857, Note_off_c, 0, 68, 64
1, 21879, Note_on_c, 0, 66, 58
1, 21882, Note_on_c, 0, 51, 76
1, 21892, Note_on_c, 0, 39, 69
1, 21985, Note_on_c, 0, 65, 67
1, 22012, Note_off_c, 0, 66, 64
1, 22088, Note_on_c, 0, 63, 62
1, 22091, Note_off_c, 0, 65, 64
1, 22179, Note_off_c, 0, 51, 64
1, 22179, Note_off_c, 0, 63, 64
1, 22184, Note_off_c, 0, 39, 64
1, 22184, Note_on_c, 0, 62, 64
1, 22279, Note_off_c, 0, 62, 64
1, 22299, Note_on_c, 0, 63, 78
1, 22391, Note_off_c, 0, 63, 64
1, 22391, Note_on_c, 0, 65, 64
1, 22452, Note_off_c, 0, 65, 64
1, 22492, Note_on_c, 0, 66, 55
1, 22513, Note_on_c, 0, 51, 73
1, 22573, Note_off_c, 0, 51, 64
1, 22594, Note_on_c, 0, 68, 58
1, 22606, Note_off_c, 0, 66, 64
1, 22712, Note_on_c, 0, 70, 59
1, 22719, Note_off_c, 0, 68, 64
1, 22719, Note_on_c, 0, 54, 86
1, 22807, Note_on_c, 0, 68, 49
1, 22823, Note_off_c, 0, 70, 64
1, 22828, Note_on_c, 0, 53, 88
1, 22870, Note_off_c, 0, 54, 64
1, 22928, Note_off_c, 0, 68, 64
1, 22928, Note_off_c, 0, 53, 64
1, 22928, Note_on_c, 0, 66, 61
1, 22928, Note_on_c, 0, 51, 79
1, 23029, Note_on_c, 0, 53, 97
1, 23035, Note_on_c, 0, 68, 69
1, 23049, Note_off_c, 0, 51, 64
1, 23056, Note_off_c, 0, 66, 64
1, 23107, Note_off_c, 0, 53, 64
1, 23140, Note_on_c, 0, 61, 96
1, 23154, Note_off_c, 0, 68, 64
1, 23154, Note_on_c, 0, 70, 61
1, 23208, Note_off_c, 0, 61, 64
1, 23263, Note_on_c, 0, 68, 68
1, 23288, Note_off_c, 0, 70, 64
1, 23371, Note_on_c, 0, 58, 72
1, 23375, Note_on_c, 0, 66, 58
1, 23389, Note_off_c, 0, 68, 64
1, 23450, Note_off_c, 0, 58, 64
1, 23475, Note_on_c, 0, 65, 60
1, 23478, Note_off_c, 0, 66, 64
1, 23598, Note_on_c, 0, 53, 102
1, 23608, Note_on_c, 0, 66, 71
1, 23617, Note_off_c, 0, 65, 64
1, 23832, Note_on_c, 0, 51, 82
1, 23848, Note_off_c, 0, 53, 64
1, 23929, Note_on_c, 0, 49, 85
1, 23945, Note_off_c, 0, 51, 64
1, 24038, Note_off_c, 0, 49, 64
1, 24043, Note_on_c, 0, 51, 90
1, 24109, Note_off_c, 0, 51, 64
1, 24171, Note_on_c, 0, 65, 75
1, 24208, Note_off_c, 0, 66, 64
1, 24255, Note_on_c, 0, 60, 87
1, 24269, Note_on_c, 0, 63, 76
1, 24275, Note_off_c, 0, 65, 64
1, 24322, Note_off_c, 0, 60, 64
1, 24375, Note_on_c, 0, 66, 66
1, 24386, Note_off_c, 0, 63, 64
1, 24475, Note_on_c, 0, 49, 88
1, 24489, Note_on_c, 0, 65, 65
1, 24505, Note_off_c, 0, 66, 64
1, 24570, Note_off_c, 0, 49, 64
1, 24581, Note_off_c, 0, 65, 64
1, 24581, Note_on_c, 0, 63, 64
1, 24694, Note_on_c, 0, 61, 54
1, 24700, Note_off_c, 0, 63, 64
1, 24700, Note_on_c, 0, 58, 62
1, 24781, Note_off_c, 0, 58, 64
1, 24811, Note_off_c, 0, 61, 64
1, 24820, Note_on_c, 0, 65, 52
1, 24917, Note_on_c, 0, 48, 66
1, 24921, Note_on_c, 0, 63, 62
1, 24942, Note_off_c, 0, 65, 64
1, 24963, Note_off_c, 0, 48, 64
1, 24992, Note_off_c, 0, 63, 64
1, 25012, Note_on_c, 0, 61, 62
1, 25124, Note_on_c, 0, 63, 61
1, 25133, Note_on_c, 0, 57, 51
1, 25137, Note_off_c, 0, 61, 64
1, 25180, Note_off_c, 0, 57, 64
1, 25235, Note_off_c, 0, 63, 64
1, 25235, Note_on_c, 0, 60, 57
1, 25338, Note_off_c, 0, 60, 64
1, 25338, Note_on_c, 0, 46, 47
1, 25343, Note_on_c, 0, 61, 71
1, 25408, Note_off_c, 0, 46, 64
1, 25450, Note_off_c, 0, 61, 64
1, 25456, Note_on_c, 0, 65, 59
1, 25562, Note_off_c, 0, 65, 64
1, 25567, Note_on_c, 0, 66, 55
1, 25570, Note_on_c, 0, 58, 46
1, 25631, Note_off_c, 0, 58, 64
1, 25659, Note_on_c, 0, 65, 43
1, 25664, Note_off_c, 0, 66, 64
1, 25695, Note_on_c, 0, 57, 32
1, 25776, Note_off_c, 0, 57, 64
1, 25782, Note_on_c, 0, 58, 42
1, 25806, Note_off_c, 0, 65, 64
1, 25806, Note_on_c, 0, 73, 60
1, 25882, Note_off_c, 0, 58, 64
1, 25915, Note_on_c, 0, 60, 42
1, 25971, Note_off_c, 0, 60, 64
1, 26018, Note_on_c, 0, 61, 44
1, 26018, Note_on_c, 0, 65, 44
1, 26063, Note_off_c, 0, 65, 64
1, 26129, Note_off_c, 0, 61, 64
1, 26129, Note_on_c, 0, 58, 42
1, 26233, Note_on_c, 0, 70, 52
1, 26236, Note_off_c, 0, 58, 64
1, 26261, Note_on_c, 0, 55, 19
1, 26280, Note_off_c, 0, 73, 64
1, 26330, Note_off_c, 0, 55, 64
1, 26347, Note_on_c, 0, 72, 63
1, 26352, Note_on_c, 0, 56, 37
1, 26383, Note_off_c, 0, 70, 64
1, 26397, Control_c, 0, 64, 127
1, 26408, Note_off_c, 0, 56, 64
1, 26422, Control_c, 0, 64, 0
1, 26455, Note_on_c, 0, 58, 41
1, 26455, Note_on_c, 0, 73, 67
1, 26478, Note_off_c, 0, 72, 64
1, 26550, Note_on_c, 0, 70, 61
1, 26556, Note_off_c, 0, 58, 64
1, 26561, Note_on_c, 0, 55, 47
1, 26576, Note_off_c, 0, 73, 64
1, 26637, Note_off_c, 0, 55, 64
1, 26656, Note_off_c, 0, 70, 64
1, 26665, Note_on_c, 0, 82, 70
1, 26665, Note_on_c, 0, 51, 47
1, 26767, Note_on_c, 0, 53, 60
1, 26779, Note_on_c, 0, 73, 45
1, 26804, Note_off_c, 0, 51, 64
1, 26814, Note_off_c, 0, 53, 64
1, 26881, Note_on_c, 0, 55, 48
1, 26887, Note_off_c, 0, 73, 64
1, 26890, Note_on_c, 0, 75, 46
1, 26960, Note_off_c, 0, 55, 64
1, 26979, Note_on_c, 0, 70, 42
1, 26979, Note_on_c, 0, 51, 38
1, 26988, Note_off_c, 0, 82, 64
1, 27021, Note_off_c, 0, 75, 64
1, 27030, Note_off_c, 0, 51, 64
1, 27038, Note_off_c, 0, 70, 64
1, 27091, Note_on_c, 0, 44, 51
1, 27091, Note_on_c, 0, 72, 60
1, 27105, Control_c, 0, 64, 127
1, 27124, Note_off_c, 0, 72, 64
1, 27151, Note_off_c, 0, 44, 64
1, 27218, Note_on_c, 0, 63, 55
1, 27272, Control_c, 0, 64, 0
1, 27285, Note_off_c, 0, 63, 64
1, 27294, Note_on_c, 0, 56, 55
1, 27308, Note_on_c, 0, 65, 65
1, 27344, Note_off_c, 0, 56, 64
1, 27403, Note_on_c, 0, 55, 64
1, 27411, Note_on_c, 0, 63, 69
1, 27425, Note_off_c, 0, 65, 64
1, 27514, Note_off_c, 0, 63, 64
1, 27522, Note_on_c, 0, 56, 54
1, 27530, Note_off_c, 0, 55, 64
1, 27542, Note_on_c, 0, 72, 81
1, 27631, Note_off_c, 0, 56, 64
1, 27640, Note_on_c, 0, 58, 46
1, 27718, Note_off_c, 0, 58, 64
1, 27754, Note_on_c, 0, 63, 62
1, 27764, Note_on_c, 0, 60, 42
1, 27798, Note_off_c, 0, 63, 64
1, 27862, Note_off_c, 0, 60, 64
1, 27862, Note_on_c, 0, 56, 44
1, 27965, Note_off_c, 0, 56, 64
1, 27965, Note_on_c, 0, 68, 62
1, 27987, Note_on_c, 0, 53, 54
1, 28004, Note_off_c, 0, 72, 64
1, 28044, Note_off_c, 0, 53, 64
1, 28087, Note_on_c, 0, 55, 49
1, 28087, Note_on_c, 0, 70, 51
1, 28130, Note_off_c, 0, 55, 64
1, 28151, Note_off_c, 0, 68, 64
1, 28183, Note_on_c, 0, 56, 51
1, 28202, Note_on_c, 0, 72, 69
1, 28210, Note_off_c, 0, 70, 64
1, 28285, Note_on_c, 0, 53, 68
1, 28289, Note_off_c, 0, 56, 64
1, 28297, Note_off_c, 0, 72, 64
1, 28297, Note_on_c, 0, 68, 56
1, 28331, Note_off_c, 0, 53, 64
1, 28391, Note_on_c, 0, 49, 39
1, 28400, Note_off_c, 0, 68, 64
1, 28409, Note_on_c, 0, 80, 72
1, 28486, Note_on_c, 0, 51, 44
1, 28512, Note_off_c, 0, 49, 64
1, 28522, Note_on_c, 0, 72, 43
1, 28569, Note_off_c, 0, 51, 64
1, 28600, Note_off_c, 0, 72, 64
1, 28620, Note_on_c, 0, 53, 64
1, 28620, Note_on_c, 0, 73, 39
1, 28664, Note_off_c, 0, 53, 64
1, 28698, Note_on_c, 0, 49, 52
1, 28698, Note_on_c, 0, 68, 43
1, 28734, Note_off_c, 0, 73, 64
1, 28759, Note_off_c, 0, 68, 64
1, 28759, Note_off_c, 0, 49, 64
1, 28818, Note_off_c, 0, 80, 64
1, 28824, Note_on_c, 0, 70, 50
1, 28837, Note_on_c, 0, 43, 46
1, 28854, Control_c, 0, 64, 127
1, 28862, Note_off_c, 0, 70, 64
1, 28940, Note_on_c, 0, 61, 60
1, 28959, Note_off_c, 0, 43, 64
1, 28999, Control_c, 0, 64, 0
1, 29013, Note_off_c, 0, 61, 64
1, 29041, Note_on_c, 0, 55, 47
1, 29049, Note_on_c, 0, 63, 62
1, 29119, Note_off_c, 0, 55, 64
1, 29146, Note_on_c, 0, 53, 82
1, 29146, Note_on_c, 0, 61, 72
1, 29154, Note_off_c, 0, 63, 64
1, 29253, Note_on_c, 0, 70, 75
1, 29253, Note_off_c, 0, 61, 64
1, 29258, Note_off_c, 0, 53, 64
1, 29267, Note_on_c, 0, 55, 53
1, 29335, Note_off_c, 0, 55, 64
1, 29358, Note_on_c, 0, 56, 66
1, 29456, Note_off_c, 0, 56, 64
1, 29475, Note_on_c, 0, 58, 55
1, 29478, Note_on_c, 0, 61, 66
1, 29515, Note_off_c, 0, 61, 64
1, 29562, Note_off_c, 0, 58, 64
1, 29593, Note_on_c, 0, 55, 75
1, 29672, Note_off_c, 0, 55, 64
1, 29687, Note_on_c, 0, 52, 71
1, 29692, Note_on_c, 0, 67, 76
1, 29746, Note_off_c, 0, 70, 64
1, 29787, Note_on_c, 0, 68, 75
1, 29787, Note_on_c, 0, 53, 91
1, 29801, Note_off_c, 0, 52, 64
1, 29812, Note_off_c, 0, 67, 64
1, 29846, Note_off_c, 0, 53, 64
1, 29893, Note_on_c, 0, 55, 65
1, 29896, Note_on_c, 0, 70, 73
1, 29920, Note_off_c, 0, 68, 64
1, 29977, Note_off_c, 0, 55, 64
1, 29985, Note_on_c, 0, 52, 73
1, 29991, Note_on_c, 0, 67, 78
1, 30010, Note_off_c, 0, 70, 64
1, 30088, Note_off_c, 0, 67, 64
1, 30091, Note_off_c, 0, 52, 64
1, 30100, Note_on_c, 0, 48, 50
1, 30105, Note_on_c, 0, 79, 95
1, 30202, Note_on_c, 0, 50, 63
1, 30202, Note_on_c, 0, 70, 61
1, 30219, Note_off_c, 0, 48, 64
1, 30255, Note_off_c, 0, 50, 64
1, 30295, Note_on_c, 0, 72, 66
1, 30306, Note_off_c, 0, 70, 64
1, 30310, Note_on_c, 0, 52, 59
1, 30394, Note_off_c, 0, 52, 64
1, 30394, Note_on_c, 0, 48, 57
1, 30398, Note_off_c, 0, 72, 64
1, 30406, Note_on_c, 0, 67, 59
1, 30444, Note_off_c, 0, 48, 64
1, 30448, Note_off_c, 0, 67, 64
1, 30500, Note_on_c, 0, 41, 75
1, 30511, Note_on_c, 0, 68, 75
1, 30581, Note_off_c, 0, 79, 64
1, 30598, Note_on_c, 0, 43, 73
1, 30618, Note_on_c, 0, 76, 52
1, 30645, Note_off_c, 0, 41, 64
1, 30718, Note_on_c, 0, 44, 71
1, 30728, Note_on_c, 0, 77, 82
1, 30745, Note_off_c, 0, 76, 64
1, 30757, Note_off_c, 0, 43, 64
1, 30827, Note_on_c, 0, 46, 61
1, 30827, Note_on_c, 0, 73, 79
1, 30849, Note_off_c, 0, 44, 64
1, 30852, Note_off_c, 0, 77, 64
1, 30856, Note_off_c, 0, 68, 64
1, 30927, Note_off_c, 0, 46, 64
1, 30937, Note_on_c, 0, 70, 83
1, 30944, Note_on_c, 0, 48, 60
1, 30973, Note_off_c, 0, 73, 64
1, 31012, Control_c, 0, 64, 127
1, 31022, Note_off_c, 0, 48, 64
1, 31046, Note_on_c, 0, 50, 62
1, 31125, Note_off_c, 0, 50, 64
1, 31149, Note_on_c, 0, 52, 76
1, 31155, Control_c, 0, 64, 0
1, 31163, Note_on_c, 0, 60, 69
1, 31238, Note_off_c, 0, 52, 64
1, 31247, Note_on_c, 0, 48, 64
1, 31291, Note_off_c, 0, 60, 64
1, 31355, Note_off_c, 0, 48, 64
1, 31369, Note_on_c, 0, 61, 91
1, 31378, Note_on_c, 0, 53, 94
1, 31472, Note_on_c, 0, 51, 73
1, 31480, Note_off_c, 0, 70, 64
1, 31480, Note_off_c, 0, 53, 64
1, 31480, Note_on_c, 0, 60, 83
1, 31500, Note_off_c, 0, 61, 64
1, 31515, Control_c, 0, 64, 127
1, 31570, Note_on_c, 0, 49, 77
1, 31578, Note_off_c, 0, 51, 64
1, 31578, Note_on_c, 0, 58, 79
1, 31592, Note_off_c, 0, 60, 64
1, 31600, Control_c, 0, 64, 0
1, 31678, Note_off_c, 0, 58, 64
1, 31685, Note_on_c, 0, 60, 88
1, 31685, Note_on_c, 0, 51, 78
1, 31693, Note_off_c, 0, 49, 64
1, 31778, Note_off_c, 0, 51, 64
1, 31801, Note_on_c, 0, 68, 90
1, 31807, Note_on_c, 0, 53, 87
1, 31816, Note_off_c, 0, 60, 64
1, 31907, Note_off_c, 0, 53, 64
1, 31907, Note_on_c, 0, 51, 60
1, 32005, Note_off_c, 0, 51, 64
1, 32021, Note_on_c, 0, 49, 68
1, 32021, Note_on_c, 0, 65, 88
1, 32094, Note_off_c, 0, 65, 64
1, 32114, Note_off_c, 0, 49, 64
1, 32136, Note_on_c, 0, 48, 55
1, 32260, Note_off_c, 0, 48, 64
1, 32264, Note_on_c, 0, 60, 98
1, 32269, Note_on_c, 0, 49, 81
1, 32486, Note_on_c, 0, 58, 70
1, 32489, Note_off_c, 0, 60, 64
1, 32547, Control_c, 0, 64, 127
1, 32547, Note_off_c, 0, 68, 64
1, 32592, Note_on_c, 0, 56, 88
1, 32597, Note_off_c, 0, 58, 64
1, 32654, Control_c, 0, 64, 0
1, 32668, Note_off_c, 0, 56, 64
1, 32703, Note_on_c, 0, 58, 72
1, 32717, Note_on_c, 0, 67, 74
1, 32798, Note_off_c, 0, 49, 64
1, 32815, Note_on_c, 0, 48, 62
1, 32820, Note_off_c, 0, 67, 64
1, 32924, Note_off_c, 0, 48, 64
1, 32924, Note_on_c, 0, 67, 92
1, 32924, Note_on_c, 0, 46, 64
1, 32930, Note_off_c, 0, 58, 64
1, 33040, Note_on_c, 0, 49, 69
1, 33040, Note_off_c, 0, 46, 64
1, 33142, Note_off_c, 0, 49, 64
1, 33153, Note_on_c, 0, 56, 82
1, 33153, Note_on_c, 0, 48, 65
1, 33244, Note_on_c, 0, 46, 68
1, 33244, Note_off_c, 0, 56, 64
1, 33249, Note_off_c, 0, 48, 64
1, 33355, Note_on_c, 0, 44, 66
1, 33367, Note_off_c, 0, 46, 64
1, 33367, Note_on_c, 0, 65, 66
1, 33380, Note_off_c, 0, 67, 64
1, 33454, Note_off_c, 0, 44, 64
1, 33465, Note_on_c, 0, 48, 62
1, 33526, Note_off_c, 0, 65, 64
1, 33565, Note_off_c, 0, 48, 64
1, 33576, Note_on_c, 0, 46, 66
1, 33595, Note_on_c, 0, 64, 53
1, 33600, Note_on_c, 0, 55, 55
1, 33646, Note_off_c, 0, 55, 64
1, 33678, Note_on_c, 0, 44, 72
1, 33678, Note_off_c, 0, 46, 64
1, 33687, Note_off_c, 0, 64, 64
1, 33785, Note_off_c, 0, 44, 64
1, 33791, Note_on_c, 0, 46, 61
1, 33810, Note_on_c, 0, 67, 65
1, 33820, Note_on_c, 0, 64, 57
1, 33855, Note_off_c, 0, 64, 64
1, 33904, Note_off_c, 0, 67, 64
1, 33904, Note_on_c, 0, 43, 67
1, 33910, Note_off_c, 0, 46, 64
1, 34015, Note_off_c, 0, 43, 64
1, 34032, Note_on_c, 0, 72, 65
1, 34042, Note_on_c, 0, 44, 65
1, 34042, Note_on_c, 0, 53, 94
1, 34135, Note_on_c, 0, 70, 60
1, 34146, Note_off_c, 0, 72, 64
1, 34247, Note_on_c, 0, 68, 53
1, 34247, Note_off_c, 0, 70, 64
1, 34267, Note_on_c, 0, 49, 55
1, 34298, Note_off_c, 0, 44, 64
1, 34348, Note_off_c, 0, 68, 64
1, 34348, Note_on_c, 0, 72, 63
1, 34462, Note_off_c, 0, 49, 64
1, 34465, Note_on_c, 0, 70, 73
1, 34475, Note_on_c, 0, 43, 49
1, 34498, Note_off_c, 0, 72, 64
1, 34578, Note_on_c, 0, 68, 70
1, 34610, Note_off_c, 0, 70, 64
1, 34657, Note_off_c, 0, 53, 64
1, 34687, Note_on_c, 0, 52, 62
1, 34687, Note_on_c, 0, 67, 78
1, 34693, Note_off_c, 0, 43, 64
1, 34701, Note_off_c, 0, 68, 64
1, 34701, Note_on_c, 0, 48, 36
1, 34780, Note_off_c, 0, 52, 64
1, 34795, Note_on_c, 0, 70, 60
1, 34804, Note_off_c, 0, 67, 64
1, 34810, Note_off_c, 0, 48, 64
1, 34810, Control_c, 0, 64, 127
1, 34846, Control_c, 0, 64, 0
1, 34905, Note_on_c, 0, 68, 68
1, 34912, Note_on_c, 0, 53, 80
1, 34919, Note_on_c, 0, 41, 51
1, 34941, Note_off_c, 0, 70, 64
1, 35014, Note_off_c, 0, 53, 64
1, 35014, Note_on_c, 0, 65, 59
1, 35018, Note_off_c, 0, 68, 64
1, 35043, Note_off_c, 0, 41, 64
1, 35125, Note_on_c, 0, 73, 65
1, 35125, Note_off_c, 0, 65, 64
1, 35128, Note_on_c, 0, 46, 45
1, 35141, Note_on_c, 0, 52, 57
1, 35234, Note_off_c, 0, 52, 64
1, 35239, Note_on_c, 0, 70, 63
1, 35242, Control_c, 0, 64, 127
1, 35291, Note_off_c, 0, 46, 64
1, 35291, Control_c, 0, 64, 0
1, 35308, Note_off_c, 0, 73, 64
1, 35351, Note_on_c, 0, 72, 75
1, 35351, Note_off_c, 0, 70, 64
1, 35355, Note_on_c, 0, 53, 73
1, 35358, Note_on_c, 0, 44, 50
1, 35434, Note_off_c, 0, 53, 64
1, 35443, Note_on_c, 0, 68, 75
1, 35446, Note_off_c, 0, 72, 64
1, 35446, Note_off_c, 0, 44, 64
1, 35446, Control_c, 0, 64, 127
1, 35532, Note_off_c, 0, 68, 64
1, 35554, Control_c, 0, 64, 0
1, 35562, Note_on_c, 0, 78, 75
1, 35575, Note_on_c, 0, 58, 56
1, 35582, Note_on_c, 0, 49, 55
1, 35663, Note_on_c, 0, 76, 84
1, 35674, Note_off_c, 0, 78, 64
1, 35699, Note_off_c, 0, 49, 64
1, 35721, Control_c, 0, 64, 127
1, 35731, Note_off_c, 0, 58, 64
1, 35731, Note_off_c, 0, 76, 64
1, 35782, Note_on_c, 0, 76, 85
1, 35791, Note_on_c, 0, 56, 52
1, 35799, Note_on_c, 0, 48, 45
1, 35818, Control_c, 0, 64, 0
1, 35896, Note_on_c, 0, 77, 94
1, 35926, Note_off_c, 0, 76, 64
1, 36013, Note_on_c, 0, 83, 109
1, 36018, Note_on_c, 0, 55, 80
1, 36033, Note_off_c, 0, 56, 64
1, 36041, Note_off_c, 0, 77, 64
1, 36125, Note_on_c, 0, 84, 81
1, 36153, Note_off_c, 0, 55, 64
1, 36153, Note_on_c, 0, 53, 91
1, 36170, Note_off_c, 0, 83, 64
1, 36242, Note_on_c, 0, 77, 74
1, 36252, Note_off_c, 0, 53, 64
1, 36273, Note_off_c, 0, 84, 64
1, 36273, Note_on_c, 0, 55, 72
1, 36295, Note_off_c, 0, 77, 64
1, 36316, Note_on_c, 0, 76, 71
1, 36347, Note_off_c, 0, 76, 64
1, 36347, Note_on_c, 0, 77, 82
1, 36401, Note_on_c, 0, 76, 43
1, 36409, Note_off_c, 0, 77, 64
1, 36461, Note_on_c, 0, 77, 78
1, 36475, Note_off_c, 0, 76, 64
1, 36504, Note_off_c, 0, 77, 64
1, 36518, Note_on_c, 0, 76, 83
1, 36537, Note_on_c, 0, 58, 47
1, 36545, Note_off_c, 0, 55, 64
1, 36646, Note_off_c, 0, 48, 64
1, 36693, Control_c, 0, 64, 127
1, 36698, Note_off_c, 0, 76, 64
1, 36698, Note_on_c, 0, 77, 76
1, 36748, Note_off_c, 0, 77, 64
1, 36824, Control_c, 0, 64, 0
1, 36829, Note_off_c, 0, 58, 64
1, 36829, Note_on_c, 0, 77, 60
1, 36838, Note_on_c, 0, 56, 30
1, 36860, Note_on_c, 0, 53, 55
1, 36961, Note_on_c, 0, 58, 41
1, 36980, Note_off_c, 0, 56, 64
1, 37069, Note_off_c, 0, 58, 64
1, 37083, Note_on_c, 0, 60, 50
1, 37172, Note_off_c, 0, 53, 64
1, 37184, Note_on_c, 0, 56, 58
1, 37192, Note_off_c, 0, 60, 64
1, 37305, Note_off_c, 0, 56, 64
1, 37314, Note_on_c, 0, 53, 61
1, 37348, Note_off_c, 0, 77, 64
1, 37414, Note_off_c, 0, 53, 64
1, 37414, Note_on_c, 0, 54, 57
1, 37479, Note_off_c, 0, 54, 64
1, 37526, Note_on_c, 0, 56, 45
1, 37542, Note_on_c, 0, 77, 89
1, 37610, Note_off_c, 0, 77, 64
1, 37638, Note_off_c, 0, 56, 64
1, 37665, Note_on_c, 0, 53, 65
1, 37721, Note_off_c, 0, 53, 64
1, 37771, Note_on_c, 0, 71, 94
1, 37771, Note_on_c, 0, 50, 55
1, 37862, Note_on_c, 0, 51, 63
1, 37874, Note_on_c, 0, 70, 68
1, 37888, Note_off_c, 0, 50, 64
1, 37888, Note_off_c, 0, 71, 64
1, 37960, Note_off_c, 0, 51, 64
1, 37972, Note_off_c, 0, 70, 64
1, 37979, Note_on_c, 0, 68, 68
1, 37989, Note_on_c, 0, 53, 74
1, 38077, Note_off_c, 0, 68, 64
1, 38081, Note_on_c, 0, 50, 50
1, 38081, Note_off_c, 0, 53, 64
1, 38081, Note_on_c, 0, 70, 69
1, 38181, Note_off_c, 0, 50, 64
1, 38181, Note_off_c, 0, 70, 64
1, 38205, Note_on_c, 0, 77, 88
1, 38205, Note_on_c, 0, 46, 48
1, 38276, Note_off_c, 0, 77, 64
1, 38319, Note_off_c, 0, 46, 64
1, 38325, Note_on_c, 0, 50, 58
1, 38420, Note_on_c, 0, 74, 85
1, 38439, Note_off_c, 0, 50, 64
1, 38462, Note_on_c, 0, 53, 65
1, 38495, Note_off_c, 0, 74, 64
1, 38503, Note_off_c, 0, 53, 64
1, 38548, Note_on_c, 0, 58, 34
1, 38634, Note_off_c, 0, 58, 64
1, 38651, Note_on_c, 0, 51, 63
1, 38656, Note_on_c, 0, 68, 83
1, 38763, Note_on_c, 0, 54, 59
1, 38771, Note_off_c, 0, 51, 64
1, 38880, Note_on_c, 0, 66, 57
1, 38883, Note_on_c, 0, 58, 49
1, 38891, Note_off_c, 0, 68, 64
1, 38891, Note_off_c, 0, 54, 64
1, 38953, Note_off_c, 0, 58, 64
1, 38971, Note_on_c, 0, 65, 63
1, 38975, Note_off_c, 0, 66, 64
1, 38986, Note_on_c, 0, 62, 61
1, 39030, Note_off_c, 0, 65, 64
1, 39088, Note_on_c, 0, 66, 68
1, 39088, Note_on_c, 0, 63, 82
1, 39100, Note_off_c, 0, 62, 64
1, 39192, Note_off_c, 0, 66, 64
1, 39208, Note_on_c, 0, 65, 63
1, 39214, Note_off_c, 0, 63, 64
1, 39295, Note_off_c, 0, 65, 64
1, 39304, Note_on_c, 0, 75, 68
1, 39323, Note_on_c, 0, 66, 69
1, 39372, Note_off_c, 0, 75, 64
1, 39437, Note_on_c, 0, 63, 65
1, 39437, Note_off_c, 0, 66, 64
1, 39493, Note_off_c, 0, 63, 64
1, 39537, Note_on_c, 0, 69, 64
1, 39556, Note_on_c, 0, 60, 46
1, 39623, Note_off_c, 0, 60, 64
1, 39643, Note_on_c, 0, 61, 57
1, 39643, Note_on_c, 0, 68, 57
1, 39652, Note_off_c, 0, 69, 64
1, 39688, Note_off_c, 0, 61, 64
1, 39735, Note_off_c, 0, 68, 64
1, 39754, Note_on_c, 0, 66, 44
1, 39758, Note_on_c, 0, 63, 38
1, 39816, Note_off_c, 0, 63, 64
1, 39847, Note_on_c, 0, 68, 58
1, 39860, Note_on_c, 0, 60, 49
1, 39865, Note_off_c, 0, 66, 64
1, 39905, Note_off_c, 0, 60, 64
1, 39964, Note_on_c, 0, 56, 62
1, 39964, Note_on_c, 0, 75, 55
1, 39982, Note_off_c, 0, 68, 64
1, 40016, Note_off_c, 0, 75, 64
1, 40067, Note_on_c, 0, 44, 73
1, 40170, Note_off_c, 0, 44, 64
1, 40191, Note_on_c, 0, 72, 59
1, 40198, Note_on_c, 0, 46, 41
1, 40237, Note_off_c, 0, 72, 64
1, 40284, Note_on_c, 0, 48, 57
1, 40303, Note_off_c, 0, 46, 64
1, 40350, Note_off_c, 0, 56, 64
1, 40387, Note_off_c, 0, 48, 64
1, 40396, Note_on_c, 0, 66, 60
1, 40403, Note_on_c, 0, 49, 56
1, 40476, Note_off_c, 0, 49, 64
1, 40506, Note_on_c, 0, 56, 59
1, 40540, Control_c, 0, 64, 127
1, 40618, Note_off_c, 0, 66, 64
1, 40618, Note_off_c, 0, 56, 64
1, 40618, Note_on_c, 0, 65, 51
1, 40623, Note_on_c, 0, 58, 38
1, 40696, Note_off_c, 0, 65, 64
1, 40719, Note_on_c, 0, 63, 65
1, 40719, Control_c, 0, 64, 0
1, 40726, Note_off_c, 0, 58, 64
1, 40741, Note_on_c, 0, 60, 41
1, 40797, Note_off_c, 0, 60, 64
1, 40833, Note_off_c, 0, 63, 64
1, 40833, Note_on_c, 0, 61, 62
1, 40841, Note_on_c, 0, 65, 66
1, 40933, Note_on_c, 0, 68, 76
1, 40942, Note_on_c, 0, 51, 71
1, 40953, Note_off_c, 0, 65, 64
1, 40957, Note_off_c, 0, 61, 64
1, 41019, Note_off_c, 0, 68, 64
1, 41039, Note_on_c, 0, 73, 78
1, 41049, Note_on_c, 0, 53, 92
1, 41053, Note_off_c, 0, 51, 64
1, 41142, Note_on_c, 0, 75, 84
1, 41152, Note_off_c, 0, 53, 64
1, 41152, Note_on_c, 0, 55, 79
1, 41181, Note_off_c, 0, 73, 64
1, 41197, Note_off_c, 0, 55, 64
1, 41253, Note_on_c, 0, 77, 99
1, 41261, Note_on_c, 0, 56, 70
1, 41264, Note_off_c, 0, 75, 64
1, 41361, Note_on_c, 0, 55, 63
1, 41361, Note_on_c, 0, 75, 89
1, 41361, Note_off_c, 0, 56, 64
1, 41395, Note_off_c, 0, 77, 64
1, 41421, Note_off_c, 0, 55, 64
1, 41470, Note_on_c, 0, 53, 81
1, 41470, Note_on_c, 0, 73, 84
1, 41485, Note_off_c, 0, 75, 64
1, 41529, Note_off_c, 0, 53, 64
1, 41568, Note_on_c, 0, 55, 68
1, 41579, Note_on_c, 0, 75, 85
1, 41601, Note_off_c, 0, 73, 64
1, 41621, Note_off_c, 0, 75, 64
1, 41630, Note_off_c, 0, 55, 64
1, 41685, Note_on_c, 0, 56, 57
1, 41685, Note_on_c, 0, 84, 108
1, 41693, Note_on_c, 0, 72, 75
1, 41751, Note_off_c, 0, 84, 64
1, 41794, Note_off_c, 0, 56, 64
1, 41794, Note_on_c, 0, 55, 61
1, 41858, Note_off_c, 0, 55, 64
1, 41902, Note_on_c, 0, 53, 78
1, 41907, Note_on_c, 0, 80, 95
1, 41966, Note_off_c, 0, 53, 64
1, 41983, Note_off_c, 0, 80, 64
1, 42013, Note_on_c, 0, 51, 47
1, 42131, Note_off_c, 0, 51, 64
1, 42131, Note_on_c, 0, 75, 92
1, 42145, Note_on_c, 0, 53, 83
1, 42354, Note_off_c, 0, 72, 64
1, 42376, Note_on_c, 0, 73, 67
1, 42423, Note_off_c, 0, 75, 64
1, 42468, Note_off_c, 0, 73, 64
1, 42468, Note_on_c, 0, 72, 80
1, 42588, Note_on_c, 0, 73, 81
1, 42588, Note_on_c, 0, 70, 68
1, 42591, Note_off_c, 0, 72, 64
1, 42666, Note_off_c, 0, 73, 64
1, 42687, Note_off_c, 0, 53, 64
1, 42699, Note_on_c, 0, 51, 58
1, 42810, Note_on_c, 0, 82, 85
1, 42810, Note_off_c, 0, 51, 64
1, 42816, Note_on_c, 0, 49, 69
1, 42880, Note_off_c, 0, 82, 64
1, 42908, Note_off_c, 0, 49, 64
1, 42930, Note_on_c, 0, 53, 86
1, 43039, Note_on_c, 0, 72, 91
1, 43039, Note_off_c, 0, 53, 64
1, 43045, Note_on_c, 0, 51, 75
1, 43087, Note_off_c, 0, 70, 64
1, 43122, Note_off_c, 0, 72, 64
1, 43142, Note_on_c, 0, 49, 68
1, 43151, Note_off_c, 0, 51, 64
1, 43245, Note_off_c, 0, 49, 64
1, 43253, Note_on_c, 0, 80, 88
1, 43253, Note_on_c, 0, 68, 73
1, 43262, Note_on_c, 0, 48, 55
1, 43337, Note_off_c, 0, 48, 64
1, 43346, Note_off_c, 0, 80, 64
1, 43351, Note_off_c, 0, 68, 64
1, 43361, Note_on_c, 0, 51, 62
1, 43470, Note_on_c, 0, 49, 69
1, 43470, Note_on_c, 0, 70, 69
1, 43476, Note_off_c, 0, 51, 64
1, 43476, Note_on_c, 0, 67, 67
1, 43531, Note_off_c, 0, 67, 64
1, 43555, Note_off_c, 0, 70, 64
1, 43559, Note_on_c, 0, 48, 59
1, 43574, Note_off_c, 0, 49, 64
1, 43672, Note_off_c, 0, 48, 64
1, 43680, Note_on_c, 0, 46, 50
1, 43680, Note_on_c, 0, 79, 84
1, 43685, Note_on_c, 0, 70, 62
1, 43718, Note_off_c, 0, 79, 64
1, 43758, Note_off_c, 0, 70, 64
1, 43779, Note_on_c, 0, 49, 64
1, 43791, Note_off_c, 0, 46, 64
1, 43836, Note_off_c, 0, 49, 64
1, 43892, Note_on_c, 0, 68, 73
1, 43903, Note_on_c, 0, 63, 57
1, 43913, Note_on_c, 0, 48, 56
1, 43938, Note_off_c, 0, 63, 64
1, 43999, Note_on_c, 0, 63, 62
1, 44005, Note_off_c, 0, 68, 64
1, 44022, Note_off_c, 0, 48, 64
1, 44109, Note_off_c, 0, 63, 64
1, 44119, Note_on_c, 0, 65, 65
1, 44128, Note_on_c, 0, 51, 60
1, 44170, Note_off_c, 0, 51, 64
1, 44184, Note_off_c, 0, 65, 64
1, 44220, Note_on_c, 0, 67, 68
1, 44328, Note_off_c, 0, 67, 64
1, 44340, Note_on_c, 0, 54, 67
1, 44346, Note_on_c, 0, 68, 59
1, 44452, Note_off_c, 0, 68, 64
1, 44460, Note_on_c, 0, 70, 48
1, 44566, Note_on_c, 0, 56, 52
1, 44571, Note_off_c, 0, 70, 64
1, 44584, Note_on_c, 0, 72, 42
1, 44637, Note_off_c, 0, 72, 64
1, 44666, Note_on_c, 0, 68, 48
1, 44677, Note_off_c, 0, 56, 64
1, 44775, Note_off_c, 0, 68, 64
1, 44788, Note_on_c, 0, 73, 67
1, 44796, Note_on_c, 0, 58, 50
1, 44892, Note_on_c, 0, 72, 62
1, 44902, Note_off_c, 0, 73, 64
1, 44902, Note_on_c, 0, 56, 69
1, 44914, Note_off_c, 0, 58, 64
1, 44944, Note_off_c, 0, 54, 64
1, 44981, Note_off_c, 0, 72, 64
1, 44995, Note_on_c, 0, 54, 70
1, 44995, Note_on_c, 0, 70, 57
1, 45008, Note_off_c, 0, 56, 64
1, 45103, Note_on_c, 0, 56, 60
1, 45109, Note_on_c, 0, 72, 63
1, 45116, Note_off_c, 0, 70, 64
1, 45130, Note_off_c, 0, 54, 64
1, 45204, Note_off_c, 0, 72, 64
1, 45207, Note_off_c, 0, 56, 64
1, 45231, Note_on_c, 0, 53, 85
1, 45231, Note_on_c, 0, 73, 43
1, 45239, Note_on_c, 0, 65, 63
1, 45332, Note_off_c, 0, 73, 64
1, 45337, Note_on_c, 0, 72, 43
1, 45354, Note_off_c, 0, 65, 64
1, 45438, Note_off_c, 0, 72, 64
1, 45467, Note_on_c, 0, 70, 32
1, 45477, Note_on_c, 0, 61, 76
1, 45552, Note_off_c, 0, 70, 64
1, 45560, Note_off_c, 0, 61, 64
1, 45566, Note_on_c, 0, 68, 42
1, 45721, Note_on_c, 0, 56, 65
1, 45727, Note_on_c, 0, 70, 52
1, 45754, Note_off_c, 0, 68, 64
1, 45911, Note_off_c, 0, 53, 64
1, 45977, Note_on_c, 0, 54, 64
1, 45988, Note_off_c, 0, 56, 64
1, 46066, Note_on_c, 0, 53, 73
1, 46089, Note_off_c, 0, 54, 64
1, 46178, Note_off_c, 0, 53, 64
1, 46203, Note_on_c, 0, 54, 79
1, 46211, Note_on_c, 0, 51, 32
1, 46331, Note_on_c, 0, 68, 60
1, 46335, Note_off_c, 0, 54, 64
1, 46356, Note_off_c, 0, 70, 64
1, 46429, Note_on_c, 0, 63, 78
1, 46437, Note_on_c, 0, 66, 52
1, 46445, Note_off_c, 0, 68, 64
1, 46518, Note_off_c, 0, 63, 64
1, 46537, Note_on_c, 0, 70, 50
1, 46558, Note_off_c, 0, 66, 64
1, 46658, Note_off_c, 0, 70, 64
1, 46661, Note_on_c, 0, 68, 55
1, 46665, Note_on_c, 0, 53, 87
1, 46707, Note_off_c, 0, 53, 64
1, 46768, Note_on_c, 0, 66, 56
1, 46780, Note_off_c, 0, 68, 64
1, 46835, Note_off_c, 0, 51, 64
1, 46877, Note_off_c, 0, 66, 64
1, 46880, Note_on_c, 0, 61, 52
1, 46880, Note_on_c, 0, 65, 50
1, 46892, Note_on_c, 0, 49, 40
1, 46948, Note_off_c, 0, 61, 64
1, 46966, Note_off_c, 0, 49, 64
1, 46988, Note_off_c, 0, 65, 64
1, 46988, Note_on_c, 0, 68, 50
1, 47112, Note_on_c, 0, 51, 54
1, 47115, Note_on_c, 0, 66, 41
1, 47122, Note_off_c, 0, 68, 64
1, 47178, Note_off_c, 0, 51, 64
1, 47228, Note_on_c, 0, 65, 44
1, 47228, Note_off_c, 0, 66, 64
1, 47303, Note_off_c, 0, 65, 64
1, 47323, Note_on_c, 0, 44, 50
1, 47339, Note_on_c, 0, 60, 31
1, 47339, Note_on_c, 0, 63, 38
1, 47390, Note_off_c, 0, 44, 64
1, 47406, Note_off_c, 0, 60, 64
1, 47424, Note_on_c, 0, 66, 39
1, 47434, Note_off_c, 0, 63, 64
1, 47527, Note_off_c, 0, 66, 64
1, 47546, Note_on_c, 0, 49, 42
1, 47555, Note_on_c, 0, 65, 45
1, 47555, Note_on_c, 0, 61, 31
1, 47647, Note_off_c, 0, 49, 64
1, 47657, Note_on_c, 0, 51, 49
1, 47666, Note_off_c, 0, 65, 64
1, 47704, Note_off_c, 0, 61, 64
1, 47746, Note_off_c, 0, 51, 64
1, 47769, Note_on_c, 0, 68, 45
1, 47769, Note_on_c, 0, 53, 68
1, 47814, Note_off_c, 0, 68, 64
1, 47822, Note_off_c, 0, 53, 64
1, 47864, Note_on_c, 0, 54, 60
1, 47922, Note_off_c, 0, 54, 64
1, 47989, Note_on_c, 0, 73, 65
1, 47998, Note_on_c, 0, 53, 65
1, 48056, Note_off_c, 0, 53, 64
1, 48090, Note_on_c, 0, 51, 42
1, 48170, Note_off_c, 0, 51, 64
1, 48215, Note_on_c, 0, 49, 39
1, 48215, Note_on_c, 0, 80, 62
1, 48254, Note_off_c, 0, 73, 64
1, 48292, Note_off_c, 0, 49, 64
1, 48334, Note_on_c, 0, 77, 55
1, 48337, Note_on_c, 0, 53, 62
1, 48360, Note_off_c, 0, 80, 64
1, 48376, Note_off_c, 0, 53, 64
1, 48416, Note_on_c, 0, 58, 48
1, 48429, Note_on_c, 0, 73, 52
1, 48429, Note_off_c, 0, 77, 64
1, 48491, Note_off_c, 0, 58, 64
1, 48524, Note_on_c, 0, 56, 56
1, 48616, Note_off_c, 0, 56, 64
1, 48636, Note_on_c, 0, 55, 57
1, 48655, Note_off_c, 0, 73, 64
1, 48655, Note_on_c, 0, 76, 52
1, 48743, Note_off_c, 0, 55, 64
1, 48746, Note_on_c, 0, 73, 43
1, 48752, Note_on_c, 0, 58, 52
1, 48778, Note_off_c, 0, 76, 64
1, 48824, Note_off_c, 0, 58, 64
1, 48850, Note_on_c, 0, 70, 60
1, 48858, Note_on_c, 0, 61, 73
1, 48874, Note_off_c, 0, 73, 64
1, 48958, Note_off_c, 0, 61, 64
1, 48972, Note_on_c, 0, 59, 53
1, 49028, Note_off_c, 0, 59, 64
1, 49051, Note_on_c, 0, 58, 56
1, 49067, Note_on_c, 0, 73, 55
1, 49084, Note_off_c, 0, 70, 64
1, 49150, Note_on_c, 0, 70, 48
1, 49159, Note_on_c, 0, 61, 66
1, 49184, Note_off_c, 0, 58, 64
1, 49193, Note_off_c, 0, 73, 64
1, 49196, Note_off_c, 0, 61, 64
1, 49220, Note_off_c, 0, 70, 64
1, 49249, Note_on_c, 0, 61, 61
1, 49284, Note_on_c, 0, 63, 77
1, 49315, Note_off_c, 0, 61, 64
1, 49315, Note_on_c, 0, 67, 51
1, 49349, Note_on_c, 0, 64, 79
1, 49365, Note_off_c, 0, 63, 64
1, 49565, Note_on_c, 0, 70, 56
1, 49572, Note_off_c, 0, 64, 64
1, 49575, Note_on_c, 0, 63, 71
1, 49616, Note_off_c, 0, 67, 64
1, 49646, Note_off_c, 0, 63, 64
1, 49668, Note_on_c, 0, 61, 67
1, 49677, Note_on_c, 0, 73, 59
1, 49707, Note_off_c, 0, 70, 64
1, 49764, Note_off_c, 0, 61, 64
1, 49781, Note_on_c, 0, 59, 61
1, 49784, Note_on_c, 0, 76, 71
1, 49797, Note_off_c, 0, 73, 64
1, 49869, Note_off_c, 0, 59, 64
1, 49873, Note_on_c, 0, 58, 55
1, 49984, Note_on_c, 0, 56, 61
1, 49990, Note_off_c, 0, 58, 64
1, 50000, Note_on_c, 0, 73, 65
1, 50056, Note_off_c, 0, 76, 64
1, 50078, Note_off_c, 0, 56, 64
1, 50093, Note_on_c, 0, 55, 72
1, 50212, Note_on_c, 0, 75, 81
1, 50212, Note_on_c, 0, 56, 69
1, 50212, Note_on_c, 0, 71, 80
1, 50221, Note_off_c, 0, 55, 64
1, 50240, Note_off_c, 0, 73, 64
1, 50287, Note_off_c, 0, 56, 64
1, 50299, Note_off_c, 0, 75, 64
1, 50320, Note_on_c, 0, 59, 57
1, 50435, Note_off_c, 0, 59, 64
1, 50435, Note_on_c, 0, 80, 88
1, 50444, Note_on_c, 0, 58, 55
1, 50502, Note_off_c, 0, 71, 64
1, 50549, Note_off_c, 0, 80, 64
1, 50549, Note_off_c, 0, 58, 64
1, 50555, Note_on_c, 0, 56, 53
1, 50638, Note_off_c, 0, 56, 64
1, 50653, Note_on_c, 0, 70, 59
1, 50657, Note_on_c, 0, 73, 70
1, 50672, Note_on_c, 0, 55, 63
1, 50710, Note_off_c, 0, 73, 64
1, 50778, Note_on_c, 0, 52, 73
1, 50778, Note_off_c, 0, 55, 64
1, 50872, Note_off_c, 0, 52, 64
1, 50880, Note_on_c, 0, 79, 92
1, 50891, Note_on_c, 0, 51, 62
1, 50931, Note_off_c, 0, 70, 64
1, 50972, Note_off_c, 0, 79, 64
1, 50994, Note_on_c, 0, 49, 62
1, 51003, Note_off_c, 0, 51, 64
1, 51098, Note_on_c, 0, 68, 83
1, 51098, Note_off_c, 0, 49, 64
1, 51103, Note_on_c, 0, 47, 63
1, 51212, Note_on_c, 0, 49, 74
1, 51224, Note_off_c, 0, 47, 64
1, 51293, Note_off_c, 0, 68, 64
1, 51298, Note_off_c, 0, 49, 64
1, 51324, Note_on_c, 0, 80, 67
1, 51334, Note_on_c, 0, 51, 70
1, 51409, Note_off_c, 0, 80, 64
1, 51435, Note_on_c, 0, 47, 57
1, 51435, Note_off_c, 0, 51, 64
1, 51443, Note_on_c, 0, 79, 83
1, 51515, Note_off_c, 0, 47, 64
1, 51552, Note_on_c, 0, 44, 60
1, 51552, Note_off_c, 0, 79, 64
1, 51552, Note_on_c, 0, 80, 75
1, 51658, Note_off_c, 0, 80, 64
1, 51666, Note_off_c, 0, 44, 64
1, 51672, Note_on_c, 0, 82, 56
1, 51763, Note_on_c, 0, 56, 51
1, 51788, Note_on_c, 0, 83, 83
1, 51799, Note_off_c, 0, 82, 64
1, 51842, Note_off_c, 0, 56, 64
1, 51875, Note_on_c, 0, 80, 67
1, 51884, Note_off_c, 0, 83, 64
1, 51892, Note_on_c, 0, 53, 79
1, 51936, Note_off_c, 0, 53, 64
1, 51983, Note_on_c, 0, 49, 85
1, 51990, Note_off_c, 0, 80, 64
1, 51993, Note_on_c, 0, 77, 70
1, 52075, Note_off_c, 0, 49, 64
1, 52090, Note_off_c, 0, 77, 64
1, 52093, Note_on_c, 0, 78, 68
1, 52195, Note_on_c, 0, 59, 65
1, 52215, Note_on_c, 0, 80, 64
1, 52220, Note_off_c, 0, 78, 64
1, 52240, Note_off_c, 0, 59, 64
1, 52290, Note_on_c, 0, 56, 61
1, 52318, Note_on_c, 0, 77, 61
1, 52318, Note_off_c, 0, 80, 64
1, 52384, Note_off_c, 0, 56, 64
1, 52408, Note_off_c, 0, 77, 64
1, 52411, Note_on_c, 0, 53, 91
1, 52418, Note_on_c, 0, 73, 58
1, 52441, Note_off_c, 0, 53, 64
1, 52516, Note_on_c, 0, 75, 52
1, 52522, Note_off_c, 0, 73, 64
1, 52633, Note_on_c, 0, 77, 59
1, 52641, Note_off_c, 0, 75, 64
1, 52641, Note_on_c, 0, 49, 59
1, 52706, Note_off_c, 0, 49, 64
1, 52725, Note_on_c, 0, 46, 52
1, 52733, Note_on_c, 0, 73, 55
1, 52747, Note_off_c, 0, 77, 64
1, 52784, Note_off_c, 0, 46, 64
1, 52830, Note_on_c, 0, 42, 59
1, 52834, Note_on_c, 0, 70, 51
1, 52841, Note_off_c, 0, 73, 64
1, 52948, Note_on_c, 0, 72, 58
1, 52953, Note_off_c, 0, 70, 64
1, 52958, Note_off_c, 0, 42, 64
1, 53067, Note_off_c, 0, 72, 64
1, 53067, Note_on_c, 0, 73, 56
1, 53067, Note_on_c, 0, 58, 54
1, 53146, Note_off_c, 0, 58, 64
1, 53162, Note_on_c, 0, 70, 65
1, 53174, Note_on_c, 0, 54, 68
1, 53181, Note_off_c, 0, 73, 64
1, 53246, Note_off_c, 0, 54, 64
1, 53265, Note_off_c, 0, 70, 64
1, 53274, Note_on_c, 0, 78, 76
1, 53284, Note_on_c, 0, 51, 67
1, 53306, Note_off_c, 0, 78, 64
1, 53352, Note_off_c, 0, 51, 64
1, 53379, Note_on_c, 0, 80, 73
1, 53482, Note_on_c, 0, 82, 65
1, 53494, Note_on_c, 0, 54, 57
1, 53502, Note_off_c, 0, 80, 64
1, 53549, Note_off_c, 0, 54, 64
1, 53583, Note_on_c, 0, 51, 58
1, 53583, Note_on_c, 0, 78, 65
1, 53611, Note_off_c, 0, 82, 64
1, 53663, Note_off_c, 0, 51, 64
1, 53674, Note_off_c, 0, 78, 64
1, 53694, Note_on_c, 0, 48, 59
1, 53699, Note_on_c, 0, 75, 63
1, 53734, Control_c, 0, 64, 127
1, 53770, Control_c, 0, 64, 0
1, 53788, Note_off_c, 0, 48, 64
1, 53811, Note_on_c, 0, 77, 58
1, 53811, Note_off_c, 0, 75, 64
1, 53917, Note_on_c, 0, 58, 48
1, 53922, Note_off_c, 0, 77, 64
1, 53925, Note_on_c, 0, 78, 55
1, 53983, Note_off_c, 0, 58, 64
1, 54026, Note_on_c, 0, 75, 48
1, 54026, Note_on_c, 0, 54, 49
1, 54031, Note_off_c, 0, 78, 64
1, 54085, Note_off_c, 0, 54, 64
1, 54112, Note_on_c, 0, 51, 56
1, 54131, Control_c, 0, 64, 127
1, 54131, Note_off_c, 0, 75, 64
1, 54137, Note_on_c, 0, 72, 53
1, 54154, Control_c, 0, 64, 0
1, 54187, Note_off_c, 0, 51, 64
1, 54226, Note_off_c, 0, 72, 64
1, 54231, Note_on_c, 0, 73, 46
1, 54335, Note_on_c, 0, 75, 49
1, 54343, Note_off_c, 0, 73, 64
1, 54359, Note_on_c, 0, 48, 31
1, 54418, Note_off_c, 0, 48, 64
1, 54432, Note_on_c, 0, 72, 42
1, 54432, Note_on_c, 0, 44, 52
1, 54446, Note_off_c, 0, 75, 64
1, 54507, Note_off_c, 0, 72, 64
1, 54518, Note_on_c, 0, 68, 42
1, 54522, Note_off_c, 0, 44, 64
1, 54549, Note_on_c, 0, 41, 68
1, 54597, Control_c, 0, 64, 127
1, 54636, Note_on_c, 0, 70, 42
1, 54646, Control_c, 0, 64, 0
1, 54649, Note_off_c, 0, 68, 64
1, 54649, Note_off_c, 0, 41, 64
1, 54761, Note_on_c, 0, 56, 55
1, 54761, Note_off_c, 0, 70, 64
1, 54761, Note_on_c, 0, 72, 49
1, 54830, Note_off_c, 0, 56, 64
1, 54837, Note_off_c, 0, 72, 64
1, 54855, Note_on_c, 0, 68, 50
1, 54869, Note_on_c, 0, 53, 79
1, 54934, Note_off_c, 0, 53, 64
1, 54947, Note_off_c, 0, 68, 64
1, 54970, Note_on_c, 0, 77, 75
1, 54979, Note_on_c, 0, 50, 69
1, 55032, Note_off_c, 0, 50, 64
1, 55042, Control_c, 0, 64, 127
1, 55065, Control_c, 0, 64, 0
1, 55075, Note_on_c, 0, 78, 75
1, 55092, Note_off_c, 0, 77, 64
1, 55184, Note_on_c, 0, 80, 75
1, 55199, Note_on_c, 0, 53, 83
1, 55226, Note_off_c, 0, 78, 64
1, 55259, Note_off_c, 0, 53, 64
1, 55279, Note_on_c, 0, 77, 77
1, 55288, Note_on_c, 0, 50, 71
1, 55304, Note_off_c, 0, 80, 64
1, 55343, Note_off_c, 0, 50, 64
1, 55388, Note_on_c, 0, 46, 73
1, 55397, Note_off_c, 0, 77, 64
1, 55400, Note_on_c, 0, 74, 72
1, 55489, Note_on_c, 0, 75, 72
1, 55497, Note_off_c, 0, 46, 64
1, 55500, Note_off_c, 0, 74, 64
1, 55611, Note_on_c, 0, 77, 66
1, 55619, Note_on_c, 0, 56, 62
1, 55624, Note_off_c, 0, 75, 64
1, 55684, Note_off_c, 0, 56, 64
1, 55719, Note_on_c, 0, 74, 66
1, 55722, Note_on_c, 0, 53, 82
1, 55722, Note_off_c, 0, 77, 64
1, 55764, Note_off_c, 0, 53, 64
1, 55819, Note_on_c, 0, 70, 51
1, 55822, Note_off_c, 0, 74, 64
1, 55825, Note_on_c, 0, 50, 69
1, 55880, Control_c, 0, 64, 127
1, 55909, Note_off_c, 0, 50, 64
1, 55923, Note_on_c, 0, 72, 51
1, 55928, Control_c, 0, 64, 0
1, 55934, Note_off_c, 0, 70, 64
1, 56034, Note_off_c, 0, 72, 64
1, 56040, Note_on_c, 0, 46, 57
1, 56045, Note_on_c, 0, 74, 56
1, 56120, Note_off_c, 0, 46, 64
1, 56120, Note_on_c, 0, 42, 64
1, 56126, Note_on_c, 0, 70, 47
1, 56131, Note_off_c, 0, 74, 64
1, 56227, Note_off_c, 0, 42, 64
1, 56231, Note_on_c, 0, 39, 64
1, 56243, Note_on_c, 0, 66, 46
1, 56251, Note_off_c, 0, 70, 64
1, 56341, Note_off_c, 0, 39, 64
1, 56354, Note_on_c, 0, 68, 48
1, 56368, Note_off_c, 0, 66, 64
1, 56455, Note_on_c, 0, 70, 46
1, 56474, Note_off_c, 0, 68, 64
1, 56474, Note_on_c, 0, 54, 63
1, 56549, Note_on_c, 0, 66, 52
1, 56553, Note_off_c, 0, 70, 64
1, 56553, Note_off_c, 0, 54, 64
1, 56577, Note_on_c, 0, 51, 50
1, 56638, Note_off_c, 0, 51, 64
1, 56670, Note_on_c, 0, 75, 60
1, 56675, Note_off_c, 0, 66, 64
1, 56678, Note_on_c, 0, 48, 47
1, 56767, Control_c, 0, 64, 127
1, 56775, Note_off_c, 0, 48, 64
1, 56781, Note_off_c, 0, 75, 64
1, 56786, Note_on_c, 0, 77, 63
1, 56791, Control_c, 0, 64, 0
1, 56876, Note_on_c, 0, 78, 62
1, 56890, Note_off_c, 0, 77, 64
1, 56900, Note_on_c, 0, 51, 48
1, 56971, Note_off_c, 0, 51, 64
1, 56979, Note_on_c, 0, 48, 42
1, 56990, Note_on_c, 0, 75, 54
1, 57017, Note_off_c, 0, 78, 64
1, 57040, Note_off_c, 0, 48, 64
1, 57092, Note_on_c, 0, 44, 62
1, 57096, Note_off_c, 0, 75, 64
1, 57106, Note_on_c, 0, 72, 55
1, 57184, Note_off_c, 0, 44, 64
1, 57184, Note_off_c, 0, 72, 64
1, 57198, Control_c, 0, 64, 127
1, 57198, Note_on_c, 0, 73, 46
1, 57223, Control_c, 0, 64, 0
1, 57302, Note_on_c, 0, 75, 53
1, 57308, Note_on_c, 0, 54, 55
1, 57322, Note_off_c, 0, 73, 64
1, 57363, Note_off_c, 0, 54, 64
1, 57397, Note_on_c, 0, 51, 47
1, 57404, Note_on_c, 0, 72, 54
1, 57408, Note_off_c, 0, 75, 64
1, 57494, Note_off_c, 0, 51, 64
1, 57494, Note_off_c, 0, 72, 64
1, 57502, Note_on_c, 0, 68, 45
1, 57502, Note_on_c, 0, 48, 50
1, 57571, Note_off_c, 0, 48, 64
1, 57602, Note_on_c, 0, 70, 43
1, 57619, Note_off_c, 0, 68, 64
1, 57716, Note_off_c, 0, 70, 64
1, 57716, Note_on_c, 0, 44, 55
1, 57716, Note_on_c, 0, 72, 40
1, 57773, Note_off_c, 0, 44, 64
1, 57797, Note_on_c, 0, 68, 43
1, 57822, Note_on_c, 0, 41, 41
1, 57825, Note_off_c, 0, 72, 64
1, 57869, Note_off_c, 0, 41, 64
1, 57903, Note_off_c, 0, 68, 64
1, 57917, Note_on_c, 0, 65, 42
1, 57921, Note_on_c, 0, 37, 52
1, 58006, Note_off_c, 0, 65, 64
1, 58015, Note_on_c, 0, 66, 44
1, 58126, Note_on_c, 0, 68, 43
1, 58146, Note_off_c, 0, 66, 64
1, 58235, Note_off_c, 0, 68, 64
1, 58235, Note_on_c, 0, 65, 48
1, 58324, Note_on_c, 0, 61, 62
1, 58333, Note_off_c, 0, 65, 64
1, 58347, Note_off_c, 0, 37, 64
1, 58436, Note_on_c, 0, 65, 37
1, 58443, Note_off_c, 0, 61, 64
1, 58533, Note_on_c, 0, 68, 57
1, 58541, Note_off_c, 0, 65, 64
1, 58634, Note_on_c, 0, 70, 52
1, 58647, Note_off_c, 0, 68, 64
1, 58750, Note_on_c, 0, 71, 76
1, 58765, Note_off_c, 0, 70, 64
1, 58851, Note_on_c, 0, 70, 52
1, 58870, Note_off_c, 0, 71, 64
1, 58957, Note_off_c, 0, 70, 64
1, 58960, Note_on_c, 0, 68, 57
1, 58970, Note_on_c, 0, 59, 38
1, 59015, Note_off_c, 0, 59, 64
1, 59059, Note_on_c, 0, 49, 47
1, 59068, Note_off_c, 0, 68, 64
1, 59068, Note_on_c, 0, 70, 52
1, 59129, Note_off_c, 0, 70, 64
1, 59132, Note_off_c, 0, 49, 64
1, 59168, Note_on_c, 0, 58, 50
1, 59177, Note_on_c, 0, 78, 62
1, 59226, Note_off_c, 0, 58, 64
1, 59232, Note_off_c, 0, 78, 64
1, 59262, Note_on_c, 0, 49, 46
1, 59375, Note_off_c, 0, 49, 64
1, 59383, Note_on_c, 0, 56, 48
1, 59383, Note_on_c, 0, 73, 60
1, 59419, Note_off_c, 0, 73, 64
1, 59453, Note_off_c, 0, 56, 64
1, 59491, Note_on_c, 0, 49, 53
1, 59592, Note_off_c, 0, 49, 64
1, 59609, Note_on_c, 0, 54, 62
1, 59614, Note_on_c, 0, 70, 60
1, 59726, Note_off_c, 0, 54, 64
1, 59729, Note_on_c, 0, 49, 52
1, 59804, Note_off_c, 0, 49, 64
1, 59828, Note_on_c, 0, 53, 58
1, 59836, Note_on_c, 0, 68, 49
1, 59858, Note_off_c, 0, 70, 64
1, 59884, Note_off_c, 0, 53, 64
1, 59900, Note_off_c, 0, 68, 64
1, 59918, Note_on_c, 0, 51, 54
1, 59934, Note_on_c, 0, 66, 47
1, 59971, Note_off_c, 0, 51, 64
1, 60026, Note_on_c, 0, 53, 95
1, 60037, Note_off_c, 0, 66, 64
1, 60037, Note_on_c, 0, 68, 62
1, 60109, Note_off_c, 0, 68, 64
1, 60112, Note_off_c, 0, 53, 64
1, 60140, Note_on_c, 0, 61, 62
1, 60243, Note_on_c, 0, 44, 74
1, 60251, Note_off_c, 0, 61, 64
1, 60255, Note_on_c, 0, 65, 60
1, 60286, Note_off_c, 0, 44, 64
1, 60349, Note_on_c, 0, 68, 67
1, 60364, Note_off_c, 0, 65, 64
1, 60455, Note_off_c, 0, 68, 64
1, 60455, Note_on_c, 0, 70, 72
1, 60563, Note_on_c, 0, 68, 73
1, 60595, Note_off_c, 0, 70, 64
1, 60658, Note_on_c, 0, 66, 73
1, 60664, Note_on_c, 0, 58, 56
1, 60664, Note_off_c, 0, 68, 64
1, 60722, Note_off_c, 0, 58, 64
1, 60754, Note_on_c, 0, 68, 57
1, 60754, Note_on_c, 0, 49, 53
1, 60762, Note_off_c, 0, 66, 64
1, 60828, Note_off_c, 0, 49, 64
1, 60865, Note_off_c, 0, 68, 64
1, 60868, Note_on_c, 0, 77, 85
1, 60868, Note_on_c, 0, 56, 53
1, 60926, Note_off_c, 0, 77, 64
1, 60945, Note_off_c, 0, 56, 64
1, 60968, Note_on_c, 0, 49, 45
1, 61056, Note_off_c, 0, 49, 64
1, 61084, Note_on_c, 0, 73, 64
1, 61088, Note_on_c, 0, 54, 55
1, 61126, Note_off_c, 0, 73, 64
1, 61165, Note_off_c, 0, 54, 64
1, 61194, Note_on_c, 0, 49, 43
1, 61247, Note_off_c, 0, 49, 64
1, 61297, Note_on_c, 0, 68, 70
1, 61315, Note_on_c, 0, 53, 54
1, 61371, Note_off_c, 0, 53, 64
1, 61400, Note_on_c, 0, 49, 53
1, 61508, Note_off_c, 0, 49, 64
1, 61512, Note_on_c, 0, 51, 52
1, 61519, Note_on_c, 0, 66, 46
1, 61550, Note_off_c, 0, 68, 64
1, 61580, Note_off_c, 0, 51, 64
1, 61613, Note_on_c, 0, 65, 57
1, 61620, Note_on_c, 0, 49, 50
1, 61620, Note_off_c, 0, 66, 64
1, 61673, Note_off_c, 0, 49, 64
1, 61720, Note_off_c, 0, 65, 64
1, 61728, Note_on_c, 0, 51, 73
1, 61728, Note_on_c, 0, 66, 67
1, 61786, Note_off_c, 0, 51, 64
1, 61829, Note_off_c, 0, 66, 64
1, 61832, Note_on_c, 0, 60, 63
1, 61921, Note_off_c, 0, 60, 64
1, 61937, Note_on_c, 0, 44, 79
1, 61942, Note_on_c, 0, 63, 78
1, 61992, Note_off_c, 0, 44, 64
1, 62041, Note_off_c, 0, 63, 64
1, 62041, Note_on_c, 0, 66, 60
1, 62144, Note_on_c, 0, 68, 78
1, 62155, Note_off_c, 0, 66, 64
1, 62247, Note_on_c, 0, 66, 68
1, 62283, Note_off_c, 0, 68, 64
1, 62358, Note_on_c, 0, 65, 69
1, 62364, Note_off_c, 0, 66, 64
1, 62375, Note_on_c, 0, 56, 62
1, 62441, Note_off_c, 0, 56, 64
1, 62450, Note_on_c, 0, 66, 63
1, 62469, Note_off_c, 0, 65, 64
1, 62469, Note_on_c, 0, 44, 70
1, 62570, Note_off_c, 0, 44, 64
1, 62570, Note_on_c, 0, 75, 70
1, 62578, Note_on_c, 0, 54, 82
1, 62586, Note_off_c, 0, 66, 64
1, 62658, Note_off_c, 0, 54, 64
1, 62676, Note_off_c, 0, 75, 64
1, 62676, Note_on_c, 0, 44, 65
1, 62776, Note_on_c, 0, 72, 70
1, 62779, Note_off_c, 0, 44, 64
1, 62787, Note_on_c, 0, 53, 84
1, 62829, Note_off_c, 0, 53, 64
1, 62865, Note_off_c, 0, 72, 64
1, 62875, Note_on_c, 0, 44, 66
1, 62971, Note_off_c, 0, 44, 64
1, 62990, Note_on_c, 0, 66, 69
1, 62990, Note_on_c, 0, 51, 68
1, 63091, Note_off_c, 0, 51, 64
1, 63096, Note_on_c, 0, 44, 61
1, 63218, Note_on_c, 0, 65, 55
1, 63218, Note_off_c, 0, 66, 64
1, 63218, Note_on_c, 0, 49, 60
1, 63230, Note_off_c, 0, 44, 64
1, 63307, Note_on_c, 0, 63, 67
1, 63311, Note_off_c, 0, 65, 64
1, 63316, Note_off_c, 0, 49, 64
1, 63325, Note_on_c, 0, 48, 37
1, 63406, Note_off_c, 0, 63, 64
1, 63406, Note_off_c, 0, 48, 64
1, 63414, Note_on_c, 0, 49, 67
1, 63431, Note_on_c, 0, 65, 61
1, 63489, Note_off_c, 0, 65, 64
1, 63500, Note_off_c, 0, 49, 64
1, 63519, Note_on_c, 0, 44, 66
1, 63525, Note_on_c, 0, 68, 58
1, 63625, Note_off_c, 0, 44, 64
1, 63629, Note_on_c, 0, 53, 83
1, 63629, Note_on_c, 0, 70, 62
1, 63642, Note_off_c, 0, 68, 64
1, 63686, Note_off_c, 0, 53, 64
1, 63728, Note_on_c, 0, 72, 75
1, 63733, Note_off_c, 0, 70, 64
1, 63733, Note_on_c, 0, 51, 58
1, 63778, Note_off_c, 0, 51, 64
1, 63829, Note_on_c, 0, 73, 81
1, 63839, Note_on_c, 0, 53, 81
1, 63867, Note_off_c, 0, 72, 64
1, 63895, Note_off_c, 0, 53, 64
1, 63932, Note_on_c, 0, 44, 67
1, 63932, Note_on_c, 0, 75, 83
1, 63965, Note_off_c, 0, 73, 64
1, 64026, Note_off_c, 0, 44, 64
1, 64034, Note_on_c, 0, 56, 76
1, 64034, Note_on_c, 0, 77, 85
1, 64065, Note_off_c, 0, 75, 64
1, 64130, Note_on_c, 0, 75, 73
1, 64130, Note_off_c, 0, 56, 64
1, 64130, Note_off_c, 0, 77, 64
1, 64137, Note_on_c, 0, 54, 78
1, 64204, Note_off_c, 0, 54, 64
1, 64236, Note_on_c, 0, 56, 67
1, 64239, Note_on_c, 0, 78, 86
1, 64264, Note_off_c, 0, 75, 64
1, 64332, Note_on_c, 0, 44, 70
1, 64332, Note_on_c, 0, 77, 88
1, 64339, Note_off_c, 0, 56, 64
1, 64361, Note_off_c, 0, 78, 64
1, 64428, Note_on_c, 0, 75, 81
1, 64431, Note_off_c, 0, 44, 64
1, 64431, Note_on_c, 0, 58, 65
1, 64439, Note_off_c, 0, 77, 64
1, 64516, Note_on_c, 0, 73, 79
1, 64516, Note_off_c, 0, 75, 64
1, 64523, Note_off_c, 0, 58, 64
1, 64544, Note_on_c, 0, 44, 72
1, 64606, Note_off_c, 0, 44, 64
1, 64626, Note_on_c, 0, 82, 79
1, 64629, Note_off_c, 0, 73, 64
1, 64665, Control_c, 0, 64, 127
1, 64669, Note_on_c, 0, 60, 52
1, 64708, Note_on_c, 0, 80, 71
1, 64725, Note_off_c, 0, 82, 64
1, 64764, Note_on_c, 0, 61, 72
1, 64764, Note_off_c, 0, 60, 64
1, 64767, Note_off_c, 0, 80, 64
1, 64775, Note_on_c, 0, 78, 75
1, 64853, Note_on_c, 0, 80, 69
1, 64853, Note_off_c, 0, 78, 64
1, 64876, Note_on_c, 0, 63, 67
1, 64876, Note_off_c, 0, 61, 64
1, 64912, Note_on_c, 0, 82, 61
1, 64934, Note_off_c, 0, 80, 64
1, 64948, Note_off_c, 0, 82, 64
1, 64959, Note_on_c, 0, 60, 66
1, 64959, Note_off_c, 0, 63, 64
1, 64977, Note_on_c, 0, 80, 84
1, 65013, Note_off_c, 0, 80, 64
1, 65013, Control_c, 0, 64, 0
1, 65027, Note_on_c, 0, 82, 74
1, 65032, Note_off_c, 0, 60, 64
1, 65059, Note_on_c, 0, 56, 71
1, 65094, Note_on_c, 0, 80, 79
1, 65113, Note_off_c, 0, 82, 64
1, 65147, Note_off_c, 0, 80, 64
1, 65154, Note_on_c, 0, 60, 66
1, 65154, Note_on_c, 0, 82, 82
1, 65186, Note_off_c, 0, 82, 64
1, 65189, Note_off_c, 0, 56, 64
1, 65202, Note_on_c, 0, 80, 77
1, 65257, Note_on_c, 0, 63, 78
1, 65272, Note_off_c, 0, 60, 64
1, 65275, Note_on_c, 0, 82, 70
1, 65278, Note_off_c, 0, 80, 64
1, 65311, Note_off_c, 0, 82, 64
1, 65317, Note_on_c, 0, 80, 89
1, 65339, Note_off_c, 0, 63, 64
1, 65357, Note_off_c, 0, 80, 64
1, 65357, Note_on_c, 0, 65, 66
1, 65378, Note_on_c, 0, 82, 62
1, 65385, Control_c, 0, 64, 127
1, 65420, Control_c, 0, 64, 0
1, 65430, Note_on_c, 0, 80, 79
1, 65456, Note_on_c, 0, 66, 75
1, 65461, Note_off_c, 0, 65, 64
1, 65465, Note_off_c, 0, 82, 64
1, 65475, Note_off_c, 0, 80, 64
1, 65534, Note_on_c, 0, 80, 81
1, 65544, Note_on_c, 0, 65, 53
1, 65548, Note_off_c, 0, 66, 64
1, 65628, Note_off_c, 0, 80, 64
1, 65633, Note_off_c, 0, 65, 64
1, 65645, Note_on_c, 0, 78, 85
1, 65654, Note_on_c, 0, 63, 73
1, 65750, Note_on_c, 0, 65, 80
1, 65754, Note_off_c, 0, 63, 64
1, 65754, Note_on_c, 0, 80, 90
1, 65754, Note_off_c, 0, 78, 64
1, 65818, Note_off_c, 0, 65, 64
1, 65856, Note_off_c, 0, 80, 64
1, 65862, Note_on_c, 0, 73, 86
1, 65867, Note_on_c, 0, 77, 92
1, 65940, Note_off_c, 0, 73, 64
1, 65982, Note_on_c, 0, 80, 73
1, 65990, Note_off_c, 0, 77, 64
1, 66087, Note_on_c, 0, 68, 79
1, 66091, Note_on_c, 0, 75, 76
1, 66105, Note_off_c, 0, 80, 64
1, 66151, Note_off_c, 0, 68, 64
1, 66205, Note_on_c, 0, 80, 59
1, 66230, Note_off_c, 0, 75, 64
1, 66311, Note_on_c, 0, 73, 70
1, 66311, Note_on_c, 0, 65, 81
1, 66333, Note_off_c, 0, 80, 64
1, 66419, Note_on_c, 0, 80, 47
1, 66441, Note_off_c, 0, 73, 64
1, 66498, Note_off_c, 0, 65, 64
1, 66527, Note_on_c, 0, 63, 65
1, 66527, Note_off_c, 0, 80, 64
1, 66530, Note_on_c, 0, 72, 71
1, 66609, Note_off_c, 0, 63, 64
1, 66619, Note_on_c, 0, 70, 65
1, 66619, Note_off_c, 0, 72, 64
1, 66622, Note_on_c, 0, 61, 63
1, 66709, Note_off_c, 0, 61, 64
1, 66718, Note_off_c, 0, 70, 64
1, 66725, Note_on_c, 0, 63, 67
1, 66732, Note_on_c, 0, 72, 76
1, 66759, Note_off_c, 0, 63, 64
1, 66779, Note_off_c, 0, 72, 64
1, 66817, Note_on_c, 0, 56, 59
1, 66832, Note_on_c, 0, 75, 68
1, 66934, Note_on_c, 0, 61, 75
1, 66938, Note_off_c, 0, 56, 64
1, 66938, Note_on_c, 0, 77, 76
1, 66943, Note_off_c, 0, 75, 64
1, 67030, Note_off_c, 0, 77, 64
1, 67033, Note_on_c, 0, 78, 84
1, 67038, Note_on_c, 0, 63, 78
1, 67041, Note_off_c, 0, 61, 64
1, 67118, Note_off_c, 0, 63, 64
1, 67147, Note_on_c, 0, 80, 86
1, 67150, Note_on_c, 0, 65, 80
1, 67155, Note_off_c, 0, 78, 64
1, 67244, Note_on_c, 0, 78, 72
1, 67253, Note_on_c, 0, 63, 86
1, 67258, Note_off_c, 0, 65, 64
1, 67272, Note_off_c, 0, 80, 64
1, 67324, Note_off_c, 0, 63, 64
1, 67349, Note_on_c, 0, 61, 78
1, 67353, Note_on_c, 0, 77, 79
1, 67360, Note_off_c, 0, 78, 64
1, 67452, Note_on_c, 0, 78, 72
1, 67458, Note_off_c, 0, 77, 64
1, 67467, Note_on_c, 0, 63, 75
1, 67480, Note_off_c, 0, 61, 64
1, 67506, Note_off_c, 0, 63, 64
1, 67559, Note_off_c, 0, 78, 64
1, 67565, Note_on_c, 0, 75, 73
1, 67570, Note_on_c, 0, 72, 84
1, 67657, Note_off_c, 0, 72, 64
1, 67675, Note_on_c, 0, 80, 67
1, 67686, Note_off_c, 0, 75, 64
1, 67790, Note_on_c, 0, 73, 65
1, 67790, Note_off_c, 0, 80, 64
1, 67790, Note_on_c, 0, 68, 76
1, 67873, Note_off_c, 0, 68, 64
1, 67901, Note_on_c, 0, 80, 59
1, 67916, Note_off_c, 0, 73, 64
1, 68008, Note_on_c, 0, 63, 77
1, 68016, Note_on_c, 0, 72, 63
1, 68029, Note_off_c, 0, 80, 64
1, 68119, Note_on_c, 0, 80, 47
1, 68119, Note_off_c, 0, 72, 64
1, 68129, Control_c, 0, 64, 127
1, 68188, Note_off_c, 0, 63, 64
1, 68216, Note_off_c, 0, 80, 64
1, 68225, Note_on_c, 0, 70, 53
1, 68238, Note_on_c, 0, 61, 61
1, 68272, Control_c, 0, 64, 0
1, 68292, Note_off_c, 0, 61, 64
1, 68306, Note_off_c, 0, 70, 64
1, 68317, Note_on_c, 0, 68, 59
1, 68339, Note_on_c, 0, 60, 45
1, 68397, Note_off_c, 0, 60, 64
1, 68411, Note_off_c, 0, 68, 64
1, 68427, Note_on_c, 0, 61, 68
1, 68439, Note_on_c, 0, 70, 59
1, 68475, Note_off_c, 0, 61, 64
1, 68508, Note_off_c, 0, 70, 64
1, 68528, Note_on_c, 0, 56, 61
1, 68548, Note_on_c, 0, 73, 61
1, 68623, Note_on_c, 0, 60, 62
1, 68639, Note_off_c, 0, 56, 64
1, 68639, Note_on_c, 0, 75, 67
1, 68662, Note_off_c, 0, 73, 64
1, 68706, Note_off_c, 0, 75, 64
1, 68735, Note_on_c, 0, 77, 73
1, 68742, Note_on_c, 0, 61, 75
1, 68757, Note_off_c, 0, 60, 64
1, 68801, Note_off_c, 0, 61, 64
1, 68813, Note_off_c, 0, 77, 64
1, 68840, Note_on_c, 0, 78, 79
1, 68840, Note_on_c, 0, 63, 78
1, 68916, Note_off_c, 0, 63, 64
1, 68944, Note_on_c, 0, 61, 64
1, 68944, Note_on_c, 0, 77, 81
1, 68947, Note_off_c, 0, 78, 64
1, 69027, Note_off_c, 0, 61, 64
1, 69040, Note_on_c, 0, 60, 61
1, 69044, Note_off_c, 0, 77, 64
1, 69047, Note_on_c, 0, 75, 73
1, 69136, Note_on_c, 0, 61, 81
1, 69155, Note_on_c, 0, 77, 63
1, 69158, Note_off_c, 0, 60, 64
1, 69158, Note_off_c, 0, 75, 64
1, 69227, Note_off_c, 0, 61, 64
1, 69252, Note_off_c, 0, 77, 64
1, 69258, Note_on_c, 0, 70, 83
1, 69266, Note_on_c, 0, 73, 59
1, 69342, Note_off_c, 0, 70, 64
1, 69359, Note_on_c, 0, 75, 62
1, 69370, Note_off_c, 0, 73, 64
1, 69472, Note_off_c, 0, 75, 64
1, 69478, Note_on_c, 0, 72, 61
1, 69486, Note_on_c, 0, 67, 83
1, 69564, Note_off_c, 0, 67, 64
1, 69595, Note_on_c, 0, 75, 58
1, 69601, Note_off_c, 0, 72, 64
1, 69703, Note_on_c, 0, 70, 53
1, 69714, Note_on_c, 0, 61, 68
1, 69717, Note_off_c, 0, 75, 64
1, 69824, Note_on_c, 0, 75, 50
1, 69843, Note_off_c, 0, 70, 64
1, 69885, Note_off_c, 0, 61, 64
1, 69924, Note_on_c, 0, 68, 51
1, 69941, Note_on_c, 0, 60, 42
1, 69954, Note_off_c, 0, 75, 64
1, 69990, Note_off_c, 0, 60, 64
1, 70016, Note_off_c, 0, 68, 64
1, 70019, Note_on_c, 0, 58, 48
1, 70024, Note_on_c, 0, 67, 49
1, 70075, Note_off_c, 0, 58, 64
1, 70086, Note_off_c, 0, 67, 64
1, 70124, Note_on_c, 0, 68, 63
1, 70132, Note_on_c, 0, 60, 44
1, 70183, Note_off_c, 0, 68, 64
1, 70188, Note_off_c, 0, 60, 64
1, 70216, Note_on_c, 0, 56, 53
1, 70216, Note_on_c, 0, 72, 73
1, 70291, Note_off_c, 0, 72, 64
1, 70314, Note_on_c, 0, 58, 53
1, 70320, Note_on_c, 0, 73, 70
1, 70320, Note_off_c, 0, 56, 64
1, 70372, Note_off_c, 0, 58, 64
1, 70409, Note_on_c, 0, 60, 60
1, 70416, Note_on_c, 0, 75, 77
1, 70416, Note_off_c, 0, 73, 64
1, 70470, Note_off_c, 0, 60, 64
1, 70500, Note_on_c, 0, 61, 67
1, 70505, Note_off_c, 0, 75, 64
1, 70508, Note_on_c, 0, 77, 88
1, 70607, Note_on_c, 0, 63, 72
1, 70614, Note_on_c, 0, 78, 87
1, 70614, Note_off_c, 0, 61, 64
1, 70634, Note_off_c, 0, 77, 64
1, 70678, Note_off_c, 0, 63, 64
1, 70712, Note_on_c, 0, 65, 57
1, 70724, Note_on_c, 0, 80, 83
1, 70728, Note_off_c, 0, 78, 64
1, 70771, Note_off_c, 0, 65, 64
1, 70813, Note_on_c, 0, 63, 66
1, 70818, Note_on_c, 0, 82, 75
1, 70838, Note_off_c, 0, 80, 64
1, 70859, Note_off_c, 0, 63, 64
1, 70926, Note_on_c, 0, 66, 60
1, 70926, Note_on_c, 0, 72, 85
1, 70933, Note_off_c, 0, 82, 64
1, 71049, Note_on_c, 0, 65, 59
1, 71049, Note_off_c, 0, 66, 64
1, 71074, Note_off_c, 0, 72, 64
1, 71118, Note_off_c, 0, 65, 64
1, 71125, Control_c, 0, 64, 127
1, 71138, Note_on_c, 0, 63, 74
1, 71138, Note_on_c, 0, 68, 95
1, 71221, Control_c, 0, 64, 0
1, 71227, Note_off_c, 0, 68, 64
1, 71235, Note_off_c, 0, 63, 64
1, 71239, Note_on_c, 0, 61, 66
1, 71327, Note_off_c, 0, 61, 64
1, 71362, Note_on_c, 0, 70, 95
1, 71365, Note_on_c, 0, 66, 70
1, 71398, Note_off_c, 0, 66, 64
1, 71436, Control_c, 0, 64, 127
1, 71461, Control_c, 0, 64, 0
1, 71469, Note_on_c, 0, 68, 87
1, 71492, Note_off_c, 0, 70, 64
1, 71565, Note_off_c, 0, 68, 64
1, 71575, Note_on_c, 0, 66, 80
1, 71581, Note_on_c, 0, 58, 56
1, 71656, Note_off_c, 0, 66, 64
1, 71662, Note_off_c, 0, 58, 64
1, 71676, Note_on_c, 0, 68, 89
1, 71682, Note_on_c, 0, 60, 63
1, 71751, Note_off_c, 0, 60, 64
1, 71751, Note_off_c, 0, 68, 64
1, 71793, Note_on_c, 0, 77, 103
1, 71798, Note_on_c, 0, 61, 68
1, 71876, Note_off_c, 0, 77, 64
1, 71885, Note_off_c, 0, 61, 64
1, 71890, Note_on_c, 0, 60, 57
1, 71985, Note_off_c, 0, 60, 64
1, 72004, Note_on_c, 0, 58, 51
1, 72008, Note_on_c, 0, 73, 91
1, 72077, Note_off_c, 0, 73, 64
1, 72116, Note_on_c, 0, 56, 55
1, 72116, Note_off_c, 0, 58, 64
1, 72260, Note_on_c, 0, 68, 91
1, 72266, Note_off_c, 0, 56, 64
1, 72272, Note_on_c, 0, 58, 68
1, 72508, Note_on_c, 0, 66, 68
1, 72514, Note_off_c, 0, 68, 64
1, 72603, Note_off_c, 0, 66, 64
1, 72612, Note_on_c, 0, 65, 83
1, 72684, Note_off_c, 0, 65, 64
1, 72728, Note_on_c, 0, 66, 91
1, 72812, Note_on_c, 0, 56, 65
1, 72818, Note_off_c, 0, 66, 64
1, 72824, Note_off_c, 0, 58, 64
1, 72915, Note_off_c, 0, 56, 64
1, 72940, Note_on_c, 0, 75, 92
1, 72940, Note_on_c, 0, 54, 60
1, 73007, Note_off_c, 0, 75, 64
1, 73060, Note_on_c, 0, 58, 55
1, 73089, Note_off_c, 0, 54, 64
1, 73171, Note_on_c, 0, 65, 92
1, 73171, Note_on_c, 0, 56, 63
1, 73188, Note_off_c, 0, 58, 64
1, 73247, Note_off_c, 0, 65, 64
1, 73275, Note_on_c, 0, 54, 68
1, 73281, Note_off_c, 0, 56, 64
1, 73389, Note_off_c, 0, 54, 64
1, 73394, Note_on_c, 0, 73, 88
1, 73406, Note_on_c, 0, 53, 81
1, 73458, Note_off_c, 0, 53, 64
1, 73470, Note_off_c, 0, 73, 64
1, 73493, Note_on_c, 0, 56, 69
1, 73603, Note_off_c, 0, 56, 64
1, 73603, Note_on_c, 0, 54, 77
1, 73614, Note_on_c, 0, 63, 90
1, 73693, Note_off_c, 0, 63, 64
1, 73709, Note_on_c, 0, 53, 83
1, 73712, Note_off_c, 0, 54, 64
1, 73795, Note_off_c, 0, 53, 64
1, 73824, Note_on_c, 0, 72, 90
1, 73827, Note_on_c, 0, 54, 75
1, 73890, Note_off_c, 0, 72, 64
1, 73932, Note_off_c, 0, 54, 64
1, 73936, Note_on_c, 0, 51, 68
1, 74004, Note_off_c, 0, 51, 64
1, 74064, Note_on_c, 0, 61, 99
1, 74069, Note_on_c, 0, 53, 101
1, 74144, Control_c, 0, 64, 127
1, 74153, Note_off_c, 0, 53, 64
1, 74153, Note_off_c, 0, 61, 64
1, 74292, Note_on_c, 0, 73, 66
1, 74384, Control_c, 0, 64, 0
1, 74389, Note_on_c, 0, 56, 73
1, 74392, Note_on_c, 0, 72, 87
1, 74400, Note_off_c, 0, 73, 64
1, 74479, Note_off_c, 0, 72, 64
1, 74489, Note_off_c, 0, 56, 64
1, 74489, Note_on_c, 0, 58, 67
1, 74501, Note_on_c, 0, 73, 87
1, 74575, Note_off_c, 0, 58, 64
1, 74598, Note_on_c, 0, 60, 74
1, 74598, Note_on_c, 0, 75, 83
1, 74609, Note_off_c, 0, 73, 64
1, 74684, Note_off_c, 0, 75, 64
1, 74693, Note_off_c, 0, 60, 64
1, 74701, Note_on_c, 0, 61, 82
1, 74706, Note_on_c, 0, 77, 85
1, 74805, Note_on_c, 0, 78, 88
1, 74815, Note_off_c, 0, 77, 64
1, 74823, Note_on_c, 0, 63, 83
1, 74891, Note_off_c, 0, 61, 64
1, 74911, Note_off_c, 0, 63, 64
1, 74914, Note_off_c, 0, 78, 64
1, 74919, Note_on_c, 0, 65, 97
1, 74919, Note_on_c, 0, 80, 95
1, 75027, Note_on_c, 0, 78, 84
1, 75032, Note_on_c, 0, 63, 87
1, 75061, Note_off_c, 0, 65, 64
1, 75068, Note_off_c, 0, 80, 64
1, 75130, Note_on_c, 0, 77, 83
1, 75130, Note_on_c, 0, 61, 85
1, 75135, Note_off_c, 0, 63, 64
1, 75139, Note_off_c, 0, 78, 64
1, 75228, Note_on_c, 0, 78, 82
1, 75237, Note_on_c, 0, 63, 86
1, 75252, Note_off_c, 0, 77, 64
1, 75270, Note_off_c, 0, 61, 64
1, 75316, Note_off_c, 0, 63, 64
1, 75350, Note_on_c, 0, 72, 97
1, 75350, Note_on_c, 0, 60, 78
1, 75355, Note_on_c, 0, 80, 87
1, 75383, Note_off_c, 0, 78, 64
1, 75445, Note_off_c, 0, 72, 64
1, 75459, Note_on_c, 0, 78, 65
1, 75501, Note_off_c, 0, 80, 64
1, 75584, Note_off_c, 0, 78, 64
1, 75584, Note_on_c, 0, 77, 78
1, 75590, Note_on_c, 0, 68, 90
1, 75660, Note_off_c, 0, 68, 64
1, 75690, Note_on_c, 0, 75, 80
1, 75706, Note_off_c, 0, 77, 64
1, 75847, Note_on_c, 0, 77, 97
1, 75851, Note_on_c, 0, 63, 90
1, 75872, Note_off_c, 0, 75, 64
1, 75930, Note_off_c, 0, 60, 64
1, 75930, Control_c, 0, 64, 127
1, 76075, Note_off_c, 0, 63, 64
1, 76085, Note_on_c, 0, 61, 83
1, 76177, Note_on_c, 0, 60, 78
1, 76227, Note_off_c, 0, 61, 64
1, 76291, Control_c, 0, 64, 0
1, 76300, Note_on_c, 0, 61, 90
1, 76309, Note_on_c, 0, 58, 60
1, 76314, Note_off_c, 0, 60, 64
1, 76420, Note_off_c, 0, 61, 64
1, 76420, Note_on_c, 0, 75, 81
1, 76450, Note_off_c, 0, 77, 64
1, 76532, Note_on_c, 0, 70, 85
1, 76532, Note_on_c, 0, 73, 73
1, 76557, Note_off_c, 0, 75, 64
1, 76613, Note_off_c, 0, 70, 64
1, 76648, Note_on_c, 0, 77, 81
1, 76665, Note_off_c, 0, 73, 64
1, 76757, Note_on_c, 0, 75, 86
1, 76762, Note_on_c, 0, 60, 80
1, 76783, Note_off_c, 0, 77, 64
1, 76871, Note_on_c, 0, 73, 73
1, 76880, Note_off_c, 0, 60, 64
1, 76893, Note_off_c, 0, 75, 64
1, 76963, Note_off_c, 0, 58, 64
1, 76968, Note_on_c, 0, 68, 86
1, 76985, Note_on_c, 0, 56, 69
1, 76985, Note_on_c, 0, 72, 71
1, 76997, Note_off_c, 0, 73, 64
1, 77050, Note_off_c, 0, 68, 64
1, 77085, Note_on_c, 0, 75, 63
1, 77091, Note_off_c, 0, 72, 64
1, 77130, Note_off_c, 0, 56, 64
1, 77195, Note_on_c, 0, 58, 78
1, 77195, Note_on_c, 0, 73, 69
1, 77222, Note_off_c, 0, 75, 64
1, 77262, Note_off_c, 0, 58, 64
1, 77294, Note_on_c, 0, 72, 77
1, 77320, Note_off_c, 0, 73, 64
1, 77406, Note_off_c, 0, 72, 64
1, 77406, Note_on_c, 0, 51, 83
1, 77411, Note_on_c, 0, 73, 63
1, 77411, Note_on_c, 0, 67, 66
1, 77479, Note_off_c, 0, 51, 64
1, 77514, Note_on_c, 0, 70, 73
1, 77542, Note_off_c, 0, 67, 64
1, 77545, Note_off_c, 0, 73, 64
1, 77634, Note_on_c, 0, 56, 83
1, 77634, Note_on_c, 0, 72, 91
1, 77673, Note_off_c, 0, 70, 64
1, 77799, Note_off_c, 0, 72, 64
1, 77855, Note_on_c, 0, 68, 73
1, 77858, Note_on_c, 0, 75, 88
1, 77872, Control_c, 0, 64, 127
1, 77961, Note_off_c, 0, 68, 64
1, 77969, Note_on_c, 0, 66, 58
1, 77975, Note_off_c, 0, 75, 64
1, 78041, Note_off_c, 0, 66, 64
1, 78066, Note_off_c, 0, 56, 64
1, 78080, Note_on_c, 0, 78, 94
1, 78088, Control_c, 0, 64, 0
1, 78088, Note_on_c, 0, 68, 84
1, 78163, Note_off_c, 0, 68, 64
1, 78198, Note_on_c, 0, 70, 67
1, 78295, Note_on_c, 0, 56, 94
1, 78301, Note_off_c, 0, 70, 64
1, 78311, Note_on_c, 0, 72, 75
1, 78362, Note_off_c, 0, 56, 64
1, 78409, Note_on_c, 0, 68, 78
1, 78417, Note_off_c, 0, 72, 64
1, 78523, Note_off_c, 0, 68, 64
1, 78534, Note_on_c, 0, 73, 80
1, 78534, Note_on_c, 0, 58, 84
1, 78631, Note_on_c, 0, 72, 70
1, 78640, Note_on_c, 0, 56, 78
1, 78665, Note_off_c, 0, 73, 64
1, 78665, Note_off_c, 0, 58, 64
1, 78738, Note_on_c, 0, 70, 74
1, 78738, Note_off_c, 0, 72, 64
1, 78738, Note_on_c, 0, 54, 97
1, 78757, Note_off_c, 0, 56, 64
1, 78841, Note_on_c, 0, 56, 79
1, 78846, Note_on_c, 0, 72, 78
1, 78863, Note_off_c, 0, 70, 64
1, 78872, Note_off_c, 0, 78, 64
1, 78872, Note_off_c, 0, 54, 64
1, 78879, Control_c, 0, 64, 127
1, 78938, Control_c, 0, 64, 0
1, 78943, Note_off_c, 0, 56, 64
1, 78949, Note_on_c, 0, 77, 95
1, 78949, Note_on_c, 0, 65, 93
1, 78952, Note_on_c, 0, 73, 85
1, 78977, Note_off_c, 0, 72, 64
1, 79036, Note_off_c, 0, 65, 64
1, 79064, Note_on_c, 0, 72, 69
1, 79075, Note_off_c, 0, 73, 64
1, 79159, Note_off_c, 0, 72, 64
1, 79172, Note_on_c, 0, 70, 75
1, 79181, Note_on_c, 0, 61, 92
1, 79275, Note_off_c, 0, 61, 64
1, 79284, Note_on_c, 0, 68, 78
1, 79315, Note_off_c, 0, 70, 64
1, 79411, Note_on_c, 0, 56, 94
1, 79411, Note_on_c, 0, 70, 88
1, 79440, Note_off_c, 0, 68, 64
1, 79537, Control_c, 0, 64, 127
1, 79574, Note_off_c, 0, 56, 64
1, 79635, Note_on_c, 0, 54, 88
1, 79699, Note_off_c, 0, 77, 64
1, 79730, Note_on_c, 0, 53, 108
1, 79758, Note_off_c, 0, 54, 64
1, 79849, Control_c, 0, 64, 0
1, 79852, Note_on_c, 0, 75, 88
1, 79858, Note_on_c, 0, 54, 102
1, 79875, Note_off_c, 0, 53, 64
1, 79907, Note_off_c, 0, 70, 64
1, 79961, Note_on_c, 0, 68, 76
1, 79971, Note_off_c, 0, 54, 64
1, 80081, Note_on_c, 0, 63, 94
1, 80084, Note_on_c, 0, 66, 72
1, 80094, Note_off_c, 0, 68, 64
1, 80176, Note_off_c, 0, 63, 64
1, 80194, Note_off_c, 0, 66, 64
1, 80194, Note_on_c, 0, 70, 65
1, 80304, Note_on_c, 0, 53, 105
1, 80304, Note_on_c, 0, 68, 76
1, 80368, Note_off_c, 0, 70, 64
1, 80375, Note_off_c, 0, 75, 64
1, 80381, Note_off_c, 0, 53, 64
1, 80409, Note_on_c, 0, 66, 67
1, 80464, Note_off_c, 0, 68, 64
1, 80513, Note_on_c, 0, 73, 80
1, 80513, Note_on_c, 0, 61, 87
1, 80524, Note_on_c, 0, 65, 68
1, 80546, Note_off_c, 0, 66, 64
1, 80609, Note_off_c, 0, 61, 64
1, 80627, Note_on_c, 0, 68, 56
1, 80648, Note_off_c, 0, 65, 64
1, 80721, Note_off_c, 0, 73, 64
1, 80730, Note_on_c, 0, 72, 76
1, 80733, Note_on_c, 0, 66, 62
1, 80737, Note_on_c, 0, 51, 86
1, 80763, Note_off_c, 0, 68, 64
1, 80825, Note_off_c, 0, 51, 64
1, 80833, Note_on_c, 0, 65, 63
1, 80836, Note_off_c, 0, 66, 64
1, 80883, Note_off_c, 0, 65, 64
1, 80950, Note_on_c, 0, 75, 83
1, 80950, Note_on_c, 0, 66, 61
1, 80953, Note_on_c, 0, 60, 81
1, 80988, Note_off_c, 0, 60, 64
1, 81006, Note_off_c, 0, 72, 64
1, 81069, Note_on_c, 0, 63, 75
1, 81075, Note_off_c, 0, 66, 64
1, 81108, Control_c, 0, 64, 127
1, 81144, Note_off_c, 0, 63, 64
1, 81209, Note_on_c, 0, 65, 63
1, 81212, Note_on_c, 0, 49, 40
1, 81251, Control_c, 0, 64, 0
1, 81328, Note_off_c, 0, 49, 64
1, 81356, Note_on_c, 0, 44, 62
1, 81446, Note_on_c, 0, 68, 78
1, 81456, Control_c, 0, 64, 127
1, 81470, Note_on_c, 0, 49, 60
1, 81470, Note_off_c, 0, 44, 64
1, 81479, Control_c, 0, 64, 0
1, 81507, Note_off_c, 0, 75, 64
1, 81573, Note_on_c, 0, 51, 60
1, 81579, Note_off_c, 0, 49, 64
1, 81673, Note_off_c, 0, 51, 64
1, 81682, Note_on_c, 0, 73, 68
1, 81685, Note_on_c, 0, 53, 75
1, 81716, Note_off_c, 0, 68, 64
1, 81788, Note_off_c, 0, 53, 64
1, 81788, Note_on_c, 0, 54, 56
1, 81863, Control_c, 0, 64, 127
1, 81897, Note_off_c, 0, 73, 64
1, 81900, Note_on_c, 0, 56, 57
1, 81900, Note_off_c, 0, 54, 64
1, 81907, Note_on_c, 0, 71, 85
1, 81935, Control_c, 0, 64, 0
1, 81975, Note_off_c, 0, 56, 64
1, 82002, Note_on_c, 0, 53, 67
1, 82042, Note_off_c, 0, 53, 64
1, 82102, Control_c, 0, 64, 127
1, 82111, Note_on_c, 0, 54, 64
1, 82134, Note_on_c, 0, 70, 73
1, 82150, Control_c, 0, 64, 0
1, 82173, Note_off_c, 0, 71, 64
1, 82194, Note_off_c, 0, 65, 64
1, 82211, Note_off_c, 0, 54, 64
1, 82242, Note_on_c, 0, 42, 48
1, 82300, Note_off_c, 0, 42, 64
1, 82306, Control_c, 0, 64, 127
1, 82334, Note_on_c, 0, 61, 76
1, 82350, Note_on_c, 0, 54, 64
1, 82378, Control_c, 0, 64, 0
1, 82477, Note_on_c, 0, 53, 75
1, 82527, Note_off_c, 0, 54, 64
1, 82540, Note_off_c, 0, 53, 64
1, 82563, Note_on_c, 0, 66, 57
1, 82599, Note_on_c, 0, 54, 60
1, 82630, Note_off_c, 0, 61, 64
1, 82691, Note_on_c, 0, 56, 61
1, 82699, Note_off_c, 0, 54, 64
1, 82769, Note_on_c, 0, 65, 57
1, 82788, Note_off_c, 0, 56, 64
1, 82794, Note_off_c, 0, 66, 64
1, 82799, Note_on_c, 0, 58, 51
1, 82900, Note_on_c, 0, 54, 65
1, 82905, Note_off_c, 0, 58, 64
1, 82994, Note_off_c, 0, 54, 64
1, 83000, Note_on_c, 0, 66, 55
1, 83011, Note_on_c, 0, 51, 56
1, 83030, Note_off_c, 0, 65, 64
1, 83066, Note_off_c, 0, 70, 64
1, 83117, Note_on_c, 0, 53, 75
1, 83122, Note_off_c, 0, 51, 64
1, 83179, Note_off_c, 0, 53, 64
1, 83223, Note_on_c, 0, 70, 52
1, 83233, Note_on_c, 0, 54, 61
1, 83250, Note_off_c, 0, 66, 64
1, 83314, Note_on_c, 0, 66, 46
1, 83321, Note_on_c, 0, 51, 60
1, 83332, Note_off_c, 0, 54, 64
1, 83382, Note_off_c, 0, 70, 64
1, 83395, Note_off_c, 0, 51, 64
1, 83434, Note_on_c, 0, 48, 44
1, 83440, Note_on_c, 0, 63, 66
1, 83452, Note_off_c, 0, 66, 64
1, 83535, Note_off_c, 0, 48, 64
1, 83538, Note_on_c, 0, 49, 53
1, 83593, Note_off_c, 0, 49, 64
1, 83646, Note_on_c, 0, 51, 42
1, 83658, Note_on_c, 0, 66, 52
1, 83663, Note_off_c, 0, 63, 64
1, 83724, Note_off_c, 0, 51, 64
1, 83754, Note_on_c, 0, 63, 43
1, 83766, Note_on_c, 0, 48, 29
1, 83779, Note_off_c, 0, 66, 64
1, 83841, Note_off_c, 0, 48, 64
1, 83871, Note_on_c, 0, 56, 59
1, 83885, Note_off_c, 0, 63, 64
1, 83916, Note_on_c, 0, 41, 40
1, 84066, Note_off_c, 0, 41, 64
1, 84103, Note_on_c, 0, 63, 69
1, 84103, Note_on_c, 0, 53, 72
1, 84151, Note_off_c, 0, 56, 64
1, 84190, Note_off_c, 0, 53, 64
1, 84203, Note_on_c, 0, 51, 62
1, 84328, Note_on_c, 0, 68, 74
1, 84331, Note_on_c, 0, 53, 79
1, 84342, Note_off_c, 0, 51, 64
1, 84368, Note_off_c, 0, 63, 64
1, 84418, Note_off_c, 0, 53, 64
1, 84418, Note_on_c, 0, 54, 67
1, 84523, Note_off_c, 0, 54, 64
1, 84527, Note_on_c, 0, 56, 56
1, 84548, Note_on_c, 0, 60, 61
1, 84612, Note_off_c, 0, 60, 64
1, 84626, Note_off_c, 0, 56, 64
1, 84652, Note_on_c, 0, 53, 83
1, 84694, Note_off_c, 0, 53, 64
1, 84744, Note_on_c, 0, 50, 67
1, 84777, Note_on_c, 0, 65, 68
1, 84833, Note_off_c, 0, 68, 64
1, 84849, Note_on_c, 0, 51, 73
1, 84869, Note_off_c, 0, 50, 64
1, 84952, Note_off_c, 0, 51, 64
1, 84952, Note_on_c, 0, 68, 59
1, 84961, Note_off_c, 0, 65, 64
1, 84977, Note_on_c, 0, 53, 76
1, 85041, Note_on_c, 0, 65, 44
1, 85059, Note_off_c, 0, 53, 64
1, 85072, Note_on_c, 0, 50, 55
1, 85080, Note_off_c, 0, 68, 64
1, 85131, Note_off_c, 0, 50, 64
1, 85162, Note_off_c, 0, 65, 64
1, 85168, Note_on_c, 0, 46, 53
1, 85186, Note_on_c, 0, 62, 64
1, 85254, Note_on_c, 0, 48, 54
1, 85300, Note_off_c, 0, 46, 64
1, 85345, Note_off_c, 0, 48, 64
1, 85373, Note_off_c, 0, 62, 64
1, 85378, Note_on_c, 0, 50, 60
1, 85392, Note_on_c, 0, 65, 52
1, 85466, Note_off_c, 0, 50, 64
1, 85479, Note_on_c, 0, 62, 52
1, 85482, Note_on_c, 0, 46, 52
1, 85488, Note_off_c, 0, 65, 64
1, 85529, Note_off_c, 0, 46, 64
1, 85596, Note_off_c, 0, 62, 64
1, 85602, Note_on_c, 0, 39, 63
1, 85610, Note_on_c, 0, 54, 68
1, 85733, Note_off_c, 0, 39, 64
1, 85746, Control_c, 0, 64, 127
1, 85824, Note_on_c, 0, 58, 52
1, 85836, Note_off_c, 0, 54, 64
1, 85836, Note_on_c, 0, 51, 62
1, 85886, Note_off_c, 0, 51, 64
1, 85939, Note_on_c, 0, 50, 49
1, 85950, Control_c, 0, 64, 0
1, 86055, Note_on_c, 0, 51, 65
1, 86061, Note_on_c, 0, 66, 79
1, 86061, Note_off_c, 0, 50, 64
1, 86078, Note_off_c, 0, 58, 64
1, 86154, Note_off_c, 0, 51, 64
1, 86172, Note_on_c, 0, 53, 73
1, 86237, Note_off_c, 0, 53, 64
1, 86281, Note_on_c, 0, 54, 57
1, 86285, Note_on_c, 0, 58, 60
1, 86328, Note_off_c, 0, 58, 64
1, 86379, Note_on_c, 0, 51, 62
1, 86387, Note_off_c, 0, 54, 64
1, 86484, Note_off_c, 0, 51, 64
1, 86494, Note_on_c, 0, 48, 50
1, 86504, Note_on_c, 0, 63, 82
1, 86549, Note_off_c, 0, 66, 64
1, 86596, Control_c, 0, 64, 127
1, 86602, Note_on_c, 0, 49, 60
1, 86607, Note_off_c, 0, 48, 64
1, 86607, Note_on_c, 0, 65, 72
1, 86651, Note_off_c, 0, 63, 64
1, 86655, Note_off_c, 0, 49, 64
1, 86703, Note_on_c, 0, 51, 52
1, 86713, Note_on_c, 0, 66, 73
1, 86743, Note_off_c, 0, 65, 64
1, 86810, Note_on_c, 0, 63, 80
1, 86817, Note_on_c, 0, 48, 47
1, 86830, Note_off_c, 0, 51, 64
1, 86844, Note_off_c, 0, 66, 64
1, 86895, Control_c, 0, 64, 0
1, 86895, Note_off_c, 0, 48, 64
1, 86934, Note_on_c, 0, 75, 91
1, 86934, Note_on_c, 0, 44, 60
1, 86945, Note_off_c, 0, 63, 64
1, 87034, Note_on_c, 0, 46, 58
1, 87045, Note_on_c, 0, 66, 67
1, 87067, Note_off_c, 0, 44, 64
1, 87112, Control_c, 0, 64, 127
1, 87126, Note_off_c, 0, 46, 64
1, 87140, Note_on_c, 0, 48, 57
1, 87153, Note_on_c, 0, 68, 69
1, 87176, Note_off_c, 0, 66, 64
1, 87232, Note_on_c, 0, 44, 66
1, 87240, Note_on_c, 0, 63, 68
1, 87251, Note_off_c, 0, 48, 64
1, 87276, Note_off_c, 0, 44, 64
1, 87282, Note_off_c, 0, 68, 64
1, 87287, Note_off_c, 0, 63, 64
1, 87340, Control_c, 0, 64, 0
1, 87362, Note_on_c, 0, 65, 70
1, 87362, Note_on_c, 0, 37, 79
1, 87460, Note_off_c, 0, 75, 64
1, 87476, Note_on_c, 0, 73, 72
1, 87484, Control_c, 0, 64, 127
1, 87490, Note_off_c, 0, 37, 64
1, 87568, Note_on_c, 0, 49, 73
1, 87583, Note_on_c, 0, 72, 80
1, 87604, Note_off_c, 0, 73, 64
1, 87677, Note_on_c, 0, 51, 78
1, 87680, Note_off_c, 0, 49, 64
1, 87691, Note_on_c, 0, 75, 81
1, 87707, Note_off_c, 0, 72, 64
1, 87747, Control_c, 0, 64, 0
1, 87789, Note_on_c, 0, 53, 108
1, 87792, Note_on_c, 0, 73, 84
1, 87806, Note_off_c, 0, 51, 64
1, 87822, Note_off_c, 0, 75, 64
1, 87828, Note_off_c, 0, 65, 64
1, 87832, Note_off_c, 0, 53, 64
1, 87906, Note_on_c, 0, 68, 75
1, 87939, Note_off_c, 0, 73, 64
1, 88008, Note_on_c, 0, 61, 95
1, 88026, Note_on_c, 0, 49, 66
1, 88026, Note_on_c, 0, 70, 75
1, 88062, Note_off_c, 0, 49, 64
1, 88070, Note_off_c, 0, 68, 64
1, 88140, Note_on_c, 0, 71, 96
1, 88173, Note_off_c, 0, 70, 64
1, 88271, Note_on_c, 0, 70, 86
1, 88285, Note_on_c, 0, 54, 95
1, 88318, Note_off_c, 0, 71, 64
1, 88352, Note_off_c, 0, 61, 64
1, 88388, Note_on_c, 0, 68, 83
1, 88391, Note_on_c, 0, 60, 65
1, 88415, Note_off_c, 0, 70, 64
1, 88487, Note_on_c, 0, 58, 62
1, 88491, Note_off_c, 0, 60, 64
1, 88491, Note_on_c, 0, 66, 84
1, 88499, Note_off_c, 0, 68, 64
1, 88597, Note_off_c, 0, 54, 64
1, 88597, Note_on_c, 0, 60, 83
1, 88600, Note_on_c, 0, 68, 97
1, 88611, Note_off_c, 0, 66, 64
1, 88643, Note_off_c, 0, 58, 64
1, 88725, Note_on_c, 0, 77, 100
1, 88728, Note_off_c, 0, 60, 64
1, 88728, Note_on_c, 0, 61, 86
1, 88732, Note_on_c, 0, 53, 102
1, 88735, Note_off_c, 0, 68, 64
1, 88820, Note_off_c, 0, 77, 64
1, 88853, Note_on_c, 0, 60, 69
1, 88864, Note_off_c, 0, 61, 64
1, 88947, Note_on_c, 0, 58, 57
1, 88951, Note_off_c, 0, 60, 64
1, 88955, Note_on_c, 0, 73, 95
1, 89054, Note_off_c, 0, 58, 64
1, 89054, Note_off_c, 0, 73, 64
1, 89058, Note_on_c, 0, 56, 69
1, 89089, Control_c, 0, 64, 127
1, 89104, Note_off_c, 0, 53, 64
1, 89143, Note_off_c, 0, 56, 64
1, 89200, Note_on_c, 0, 68, 94
1, 89200, Note_on_c, 0, 58, 81
1, 89206, Note_on_c, 0, 51, 87
1, 89282, Control_c, 0, 64, 0
1, 89396, Note_off_c, 0, 51, 64
1, 89455, Note_on_c, 0, 66, 79
1, 89462, Note_on_c, 0, 49, 86
1, 89488, Note_off_c, 0, 68, 64
1, 89558, Note_off_c, 0, 49, 64
1, 89565, Note_on_c, 0, 65, 87
1, 89586, Note_off_c, 0, 66, 64
1, 89705, Note_on_c, 0, 48, 89
1, 89705, Note_on_c, 0, 66, 88
1, 89727, Note_off_c, 0, 65, 64
1, 89853, Note_on_c, 0, 56, 73
1, 89872, Note_off_c, 0, 58, 64
1, 89941, Note_off_c, 0, 66, 64
1, 89951, Note_on_c, 0, 75, 88
1, 89958, Note_off_c, 0, 56, 64
1, 89962, Note_on_c, 0, 54, 81
1, 90017, Note_off_c, 0, 48, 64
1, 90048, Control_c, 0, 64, 127
1, 90064, Note_on_c, 0, 58, 69
1, 90079, Note_off_c, 0, 54, 64
1, 90114, Note_off_c, 0, 75, 64
1, 90143, Control_c, 0, 64, 0
1, 90168, Note_on_c, 0, 65, 89
1, 90178, Note_on_c, 0, 56, 81
1, 90181, Note_on_c, 0, 49, 79
1, 90201, Note_off_c, 0, 58, 64
1, 90271, Note_off_c, 0, 56, 64
1, 90290, Note_on_c, 0, 54, 89
1, 90324, Control_c, 0, 64, 127
1, 90348, Control_c, 0, 64, 0
1, 90398, Note_off_c, 0, 65, 64
1, 90398, Note_off_c, 0, 54, 64
1, 90402, Note_on_c, 0, 73, 91
1, 90409, Note_on_c, 0, 53, 102
1, 90490, Note_off_c, 0, 53, 64
1, 90508, Note_on_c, 0, 56, 81
1, 90515, Control_c, 0, 64, 127
1, 90543, Note_off_c, 0, 56, 64
1, 90547, Note_off_c, 0, 49, 64
1, 90583, Note_off_c, 0, 73, 64
1, 90624, Control_c, 0, 64, 0
1, 90630, Note_on_c, 0, 63, 93
1, 90630, Note_on_c, 0, 54, 95
1, 90633, Note_on_c, 0, 44, 89
1, 90746, Note_off_c, 0, 54, 64
1, 90772, Note_on_c, 0, 53, 95
1, 90803, Control_c, 0, 64, 127
1, 90852, Note_off_c, 0, 63, 64
1, 90852, Control_c, 0, 64, 0
1, 90873, Note_off_c, 0, 53, 64
1, 90891, Note_on_c, 0, 51, 78
1, 90891, Note_on_c, 0, 72, 94
1, 90995, Control_c, 0, 64, 127
1, 91015, Note_off_c, 0, 44, 64
1, 91028, Note_on_c, 0, 54, 89
1, 91039, Note_off_c, 0, 72, 64
1, 91084, Note_off_c, 0, 51, 64
1, 91137, Note_off_c, 0, 54, 64
1, 91246, Note_on_c, 0, 46, 89
1, 91246, Note_on_c, 0, 61, 98
1, 91254, Note_on_c, 0, 53, 107
1, 91258, Control_c, 0, 64, 0
1, 91345, Note_off_c, 0, 53, 64
1, 91415, Control_c, 0, 64, 127
1, 91426, Note_off_c, 0, 46, 64
1, 91482, Note_on_c, 0, 65, 81
1, 91494, Note_off_c, 0, 61, 64
1, 91497, Note_on_c, 0, 56, 51
1, 91583, Note_off_c, 0, 56, 64
1, 91610, Note_on_c, 0, 66, 78
1, 91619, Note_on_c, 0, 58, 55
1, 91639, Note_off_c, 0, 65, 64
1, 91714, Note_off_c, 0, 58, 64
1, 91731, Note_on_c, 0, 68, 82
1, 91731, Note_on_c, 0, 60, 66
1, 91756, Note_off_c, 0, 66, 64
1, 91833, Note_off_c, 0, 60, 64
1, 91839, Note_on_c, 0, 61, 79
1, 91839, Note_on_c, 0, 70, 79
1, 91883, Note_off_c, 0, 68, 64
1, 91930, Control_c, 0, 64, 0
1, 91934, Note_off_c, 0, 61, 64
1, 91939, Note_on_c, 0, 72, 90
1, 91951, Note_on_c, 0, 60, 67
1, 91956, Note_off_c, 0, 70, 64
1, 92033, Note_on_c, 0, 58, 66
1, 92045, Note_on_c, 0, 73, 89
1, 92059, Note_off_c, 0, 60, 64
1, 92081, Note_off_c, 0, 72, 64
1, 92148, Note_on_c, 0, 56, 74
1, 92154, Note_on_c, 0, 75, 90
1, 92157, Note_off_c, 0, 58, 64
1, 92157, Control_c, 0, 64, 127
1, 92192, Note_off_c, 0, 73, 64
1, 92260, Note_on_c, 0, 55, 87
1, 92265, Control_c, 0, 64, 0
1, 92265, Note_on_c, 0, 76, 89
1, 92271, Note_off_c, 0, 56, 64
1, 92290, Note_off_c, 0, 75, 64
1, 92373, Note_on_c, 0, 56, 78
1, 92380, Note_on_c, 0, 75, 79
1, 92396, Note_off_c, 0, 55, 64
1, 92424, Note_off_c, 0, 76, 64
1, 92490, Note_on_c, 0, 58, 70
1, 92490, Note_on_c, 0, 73, 86
1, 92502, Note_off_c, 0, 56, 64
1, 92519, Note_off_c, 0, 75, 64
1, 92577, Control_c, 0, 64, 127
1, 92586, Note_off_c, 0, 58, 64
1, 92597, Note_on_c, 0, 75, 72
1, 92600, Note_on_c, 0, 55, 77
1, 92625, Note_off_c, 0, 73, 64
1, 92636, Note_off_c, 0, 55, 64
1, 92708, Note_on_c, 0, 51, 92
1, 92713, Note_on_c, 0, 76, 91
1, 92731, Note_off_c, 0, 75, 64
1, 92769, Control_c, 0, 64, 0
1, 92819, Note_on_c, 0, 79, 100
1, 92825, Note_on_c, 0, 49, 75
1, 92853, Note_off_c, 0, 76, 64
1, 92926, Note_on_c, 0, 48, 57
1, 92934, Note_on_c, 0, 80, 92
1, 92940, Note_off_c, 0, 49, 64
1, 92947, Note_off_c, 0, 79, 64
1, 93040, Note_on_c, 0, 46, 55
1, 93043, Control_c, 0, 64, 127
1, 93043, Note_on_c, 0, 82, 83
1, 93056, Note_off_c, 0, 48, 64
1, 93056, Note_off_c, 0, 80, 64
1, 93089, Note_off_c, 0, 51, 64
1, 93104, Control_c, 0, 64, 0
1, 93143, Note_off_c, 0, 46, 64
1, 93149, Note_on_c, 0, 44, 84
1, 93159, Note_on_c, 0, 73, 83
1, 93196, Note_off_c, 0, 82, 64
1, 93257, Note_on_c, 0, 51, 80
1, 93263, Note_on_c, 0, 72, 80
1, 93273, Note_off_c, 0, 73, 64
1, 93284, Control_c, 0, 64, 127
1, 93343, Note_off_c, 0, 44, 64
1, 93365, Note_on_c, 0, 70, 84
1, 93368, Note_off_c, 0, 51, 64
1, 93368, Note_on_c, 0, 53, 101
1, 93401, Note_off_c, 0, 72, 64
1, 93429, Control_c, 0, 64, 0
1, 93475, Note_on_c, 0, 54, 89
1, 93479, Note_on_c, 0, 68, 90
1, 93500, Note_off_c, 0, 53, 64
1, 93521, Note_off_c, 0, 70, 64
1, 93591, Note_on_c, 0, 56, 87
1, 93597, Note_on_c, 0, 75, 92
1, 93608, Note_off_c, 0, 68, 64
1, 93638, Note_off_c, 0, 54, 64
1, 93708, Note_on_c, 0, 58, 83
1, 93763, Note_off_c, 0, 56, 64
1, 93820, Note_on_c, 0, 60, 93
1, 93826, Note_on_c, 0, 66, 83
1, 93833, Note_off_c, 0, 75, 64
1, 93841, Note_off_c, 0, 58, 64
1, 93939, Note_on_c, 0, 56, 91
1, 93968, Note_off_c, 0, 60, 64
1, 94085, Note_off_c, 0, 66, 64
1, 94088, Note_off_c, 0, 56, 64
1, 94093, Note_on_c, 0, 61, 99
1, 94096, Note_on_c, 0, 65, 92
1, 94207, Note_off_c, 0, 61, 64
1, 94231, Control_c, 0, 64, 127
1, 94302, Control_c, 0, 64, 0
1, 94318, Note_off_c, 0, 65, 64
1, 94401, Note_on_c, 0, 73, 84
1, 94401, Note_on_c, 0, 68, 74
1, 94401, Note_on_c, 0, 61, 79
1, 94405, Note_on_c, 0, 41, 105
1, 94555, Control_c, 0, 64, 127
1, 94563, Note_off_c, 0, 41, 64
1, 94607, Note_off_c, 0, 61, 64
1, 94695, Note_off_c, 0, 68, 64
1, 94698, Control_c, 0, 64, 0
1, 94711, Note_on_c, 0, 70, 76
1, 94722, Note_on_c, 0, 66, 76
1, 94727, Note_on_c, 0, 42, 88
1, 94734, Note_on_c, 0, 63, 90
1, 94759, Note_off_c, 0, 73, 64
1, 94894, Note_off_c, 0, 66, 64
1, 94926, Control_c, 0, 64, 127
1, 94940, Note_off_c, 0, 42, 64
1, 95021, Control_c, 0, 64, 0
1, 95084, Note_on_c, 0, 68, 75
1, 95084, Note_on_c, 0, 44, 93
1, 95084, Note_on_c, 0, 66, 76
1, 95084, Note_on_c, 0, 72, 94
1, 95124, Note_off_c, 0, 70, 64
1, 95285, Control_c, 0, 64, 127
1, 95296, Note_off_c, 0, 44, 64
1, 95351, Note_off_c, 0, 68, 64
1, 95351, Note_off_c, 0, 72, 64
1, 95360, Note_off_c, 0, 63, 64
1, 95369, Note_off_c, 0, 66, 64
1, 95658, Control_c, 0, 64, 0
1, 95708, Note_on_c, 0, 73, 90
1, 95708, Note_on_c, 0, 37, 97
1, 95713, Note_on_c, 0, 61, 88
1, 95713, Note_on_c, 0, 68, 78
1, 95717, Note_on_c, 0, 65, 85
1, 95993, Control_c, 0, 64, 127
1, 98566, Note_off_c, 0, 61, 64
1, 98569, Control_c, 0, 64, 0
1, 98581, Note_off_c, 0, 65, 64
1, 98606, Note_off_c, 0, 73, 64
1, 98616, Note_off_c, 0, 68, 64
1, 98619, Note_off_c, 0, 37, 64
1, 100340, Control_c, 0, 64, 0
1, 101838, End_track
0, 0, End_of_file
