0, 0, Header, 0, 1, 480
1, 0, Start_track
1, 0, Title_t, "Goldberg Variations 1-14"
1, 0, Tempo, 512820
1, 0, Time_signature, 4, 2, 24, 8
1, 0, Control_c, 0, 91, 91
1, 0, Sequencer_specific, 6, 67, 113, 0, 0, 0, 67
1, 0, Sequencer_specific, 39, 67, 113, 0, 1, 0, 1, 0, 71, 111, 108, 100, 98, 101, 114, 103, 32, 86, 97, 114, 115, 46, 32, 32, 86, 101, 114, 97, 32, 79, 117, 115, 115, 101, 116, 115, 107, 97, 105, 97
1, 0, Sequencer_specific, 5, 67, 123, 12, 0, 1
1, 0, System_exclusive, 5, 126, 127, 9, 1, 247
1, 1, System_exclusive, 8, 67, 16, 76, 0, 0, 126, 0, 247
1, 5, Control_c, 0, 11, 110
1, 6, Control_c, 0, 32, 0
1, 7, Program_c, 0, 0
1, 8, Control_c, 0, 7, 127
1, 120, Control_c, 0, 0, 0
1, 199, Control_c, 0, 64, 15
1, 199, Control_c, 0, 67, 5
1, 390, Control_c, 0, 64, 31
1, 390, Control_c, 0, 67, 11
1, 581, Control_c, 0, 64, 45
1, 581, Control_c, 0, 67, 15
1, 772, Control_c, 0, 64, 63
1, 772, Control_c, 0, 67, 22
1, 963, Control_c, 0, 64, 75
1, 963, Control_c, 0, 67, 25
1, 1154, Control_c, 0, 64, 93
1, 1154, Control_c, 0, 67, 33
1, 1345, Control_c, 0, 64, 105
1, 1345, Control_c, 0, 67, 35
1, 1536, Control_c, 0, 64, 127
1, 1536, Control_c, 0, 67, 44
1, 1918, Note_on_c, 0, 79, 59
1, 1975, Note_on_c, 0, 55, 28
1, 2515, Note_off_c, 0, 79, 0
1, 3128, Note_on_c, 0, 79, 61
1, 3180, Note_on_c, 0, 59, 29
1, 3339, Control_c, 0, 64, 118
1, 3359, Control_c, 0, 64, 101
1, 3377, Control_c, 0, 64, 84
1, 3396, Control_c, 0, 64, 65
1, 3414, Control_c, 0, 64, 48
1, 3434, Control_c, 0, 64, 30
1, 3450, Control_c, 0, 64, 19
1, 3525, Control_c, 0, 64, 27
1, 3543, Control_c, 0, 64, 36
1, 3562, Control_c, 0, 64, 48
1, 3581, Control_c, 0, 64, 60
1, 3599, Control_c, 0, 64, 67
1, 3618, Control_c, 0, 64, 71
1, 3635, Control_c, 0, 64, 75
1, 3654, Control_c, 0, 64, 79
1, 3673, Control_c, 0, 64, 85
1, 3692, Control_c, 0, 64, 93
1, 3710, Control_c, 0, 64, 103
1, 3730, Control_c, 0, 64, 112
1, 3747, Control_c, 0, 64, 121
1, 3766, Control_c, 0, 64, 127
1, 4220, Note_on_c, 0, 62, 29
1, 4274, Note_off_c, 0, 79, 0
1, 4298, Note_on_c, 0, 81, 58
1, 4399, Note_off_c, 0, 81, 0
1, 4411, Note_on_c, 0, 79, 63
1, 4461, Control_c, 0, 64, 122
1, 4479, Control_c, 0, 64, 109
1, 4499, Control_c, 0, 64, 95
1, 4517, Control_c, 0, 64, 81
1, 4537, Control_c, 0, 64, 68
1, 4545, Note_on_c, 0, 81, 62
1, 4548, Note_off_c, 0, 79, 0
1, 4556, Control_c, 0, 64, 59
1, 4573, Control_c, 0, 64, 53
1, 4592, Control_c, 0, 64, 46
1, 4609, Control_c, 0, 64, 38
1, 4628, Control_c, 0, 64, 32
1, 4720, Control_c, 0, 64, 36
1, 4738, Control_c, 0, 64, 41
1, 4757, Control_c, 0, 64, 48
1, 4776, Control_c, 0, 64, 55
1, 4795, Control_c, 0, 64, 60
1, 4813, Control_c, 0, 64, 62
1, 4832, Control_c, 0, 64, 63
1, 4852, Control_c, 0, 64, 65
1, 4869, Control_c, 0, 64, 67
1, 4887, Control_c, 0, 64, 69
1, 4925, Control_c, 0, 64, 73
1, 4943, Control_c, 0, 64, 75
1, 4962, Control_c, 0, 64, 77
1, 4980, Control_c, 0, 64, 80
1, 5000, Control_c, 0, 64, 83
1, 5027, Control_c, 0, 64, 85
1, 5064, Control_c, 0, 64, 91
1, 5096, Note_off_c, 0, 81, 0
1, 5098, Control_c, 0, 64, 96
1, 5105, Note_on_c, 0, 83, 69
1, 5157, Control_c, 0, 64, 100
1, 5432, Poly_aftertouch_c, 0, 59, 24
1, 5434, Note_on_c, 0, 81, 62
1, 5454, Note_on_c, 0, 54, 40
1, 5461, Note_off_c, 0, 83, 0
1, 5469, Control_c, 0, 64, 94
1, 5489, Control_c, 0, 64, 87
1, 5508, Control_c, 0, 64, 76
1, 5524, Poly_aftertouch_c, 0, 62, 24
1, 5526, Control_c, 0, 64, 63
1, 5528, Note_off_c, 0, 55, 0
1, 5540, Note_off_c, 0, 59, 0
1, 5544, Control_c, 0, 64, 53
1, 5566, Control_c, 0, 64, 42
1, 5571, Note_off_c, 0, 62, 0
1, 5583, Control_c, 0, 64, 29
1, 5602, Control_c, 0, 64, 23
1, 5676, Control_c, 0, 64, 28
1, 5692, Control_c, 0, 64, 36
1, 5712, Control_c, 0, 64, 48
1, 5730, Control_c, 0, 64, 59
1, 5749, Control_c, 0, 64, 64
1, 5768, Control_c, 0, 64, 66
1, 5787, Control_c, 0, 64, 69
1, 5805, Control_c, 0, 64, 72
1, 5824, Control_c, 0, 64, 74
1, 5843, Control_c, 0, 64, 78
1, 5862, Control_c, 0, 64, 82
1, 5879, Control_c, 0, 64, 87
1, 5897, Control_c, 0, 64, 91
1, 5936, Control_c, 0, 64, 97
1, 5949, Note_off_c, 0, 81, 0
1, 6056, Control_c, 0, 64, 89
1, 6064, Note_on_c, 0, 79, 57
1, 6073, Control_c, 0, 64, 79
1, 6092, Control_c, 0, 64, 68
1, 6111, Control_c, 0, 64, 60
1, 6130, Control_c, 0, 64, 53
1, 6148, Control_c, 0, 64, 45
1, 6167, Control_c, 0, 64, 37
1, 6186, Control_c, 0, 64, 29
1, 6204, Control_c, 0, 64, 24
1, 6315, Control_c, 0, 64, 34
1, 6333, Control_c, 0, 64, 44
1, 6352, Control_c, 0, 64, 56
1, 6361, Note_off_c, 0, 79, 0
1, 6370, Note_on_c, 0, 78, 60
1, 6371, Control_c, 0, 64, 62
1, 6390, Control_c, 0, 64, 65
1, 6408, Control_c, 0, 64, 67
1, 6427, Control_c, 0, 64, 70
1, 6444, Control_c, 0, 64, 73
1, 6463, Control_c, 0, 64, 77
1, 6482, Control_c, 0, 64, 81
1, 6501, Control_c, 0, 64, 85
1, 6511, Note_off_c, 0, 78, 0
1, 6537, Control_c, 0, 64, 91
1, 6594, Control_c, 0, 64, 95
1, 6767, Note_on_c, 0, 76, 55
1, 6798, Control_c, 0, 64, 88
1, 6802, Note_on_c, 0, 57, 30
1, 6816, Control_c, 0, 64, 83
1, 6835, Control_c, 0, 64, 75
1, 6855, Control_c, 0, 64, 65
1, 6872, Control_c, 0, 64, 57
1, 6899, Control_c, 0, 64, 53
1, 6917, Control_c, 0, 64, 49
1, 6936, Control_c, 0, 64, 46
1, 6954, Control_c, 0, 64, 44
1, 6974, Control_c, 0, 64, 41
1, 7011, Control_c, 0, 64, 36
1, 7437, Note_on_c, 0, 74, 43
1, 7484, Note_off_c, 0, 76, 0
1, 7604, Control_c, 0, 64, 43
1, 7623, Control_c, 0, 64, 47
1, 7641, Control_c, 0, 64, 53
1, 7661, Control_c, 0, 64, 57
1, 7678, Control_c, 0, 64, 60
1, 7696, Control_c, 0, 64, 63
1, 7714, Control_c, 0, 64, 65
1, 7734, Control_c, 0, 64, 68
1, 7751, Control_c, 0, 64, 70
1, 7771, Control_c, 0, 64, 73
1, 7790, Control_c, 0, 64, 76
1, 7809, Control_c, 0, 64, 79
1, 7837, Control_c, 0, 64, 82
1, 7855, Control_c, 0, 64, 85
1, 7874, Control_c, 0, 64, 87
1, 8002, Control_c, 0, 64, 82
1, 8023, Control_c, 0, 64, 74
1, 8036, Note_on_c, 0, 62, 31
1, 8042, Control_c, 0, 64, 65
1, 8058, Control_c, 0, 64, 56
1, 8078, Control_c, 0, 64, 50
1, 8096, Control_c, 0, 64, 44
1, 8116, Control_c, 0, 64, 37
1, 8132, Control_c, 0, 64, 30
1, 8151, Control_c, 0, 64, 22
1, 8171, Control_c, 0, 64, 14
1, 8189, Control_c, 0, 64, 9
1, 8318, Control_c, 0, 64, 16
1, 8336, Control_c, 0, 64, 22
1, 8355, Control_c, 0, 64, 30
1, 8373, Control_c, 0, 64, 40
1, 8394, Control_c, 0, 64, 50
1, 8410, Control_c, 0, 64, 57
1, 8430, Control_c, 0, 64, 61
1, 8449, Control_c, 0, 64, 64
1, 8467, Control_c, 0, 64, 67
1, 8485, Control_c, 0, 64, 69
1, 8503, Control_c, 0, 64, 73
1, 8522, Control_c, 0, 64, 77
1, 8540, Control_c, 0, 64, 83
1, 8559, Control_c, 0, 64, 90
1, 8577, Control_c, 0, 64, 98
1, 8597, Control_c, 0, 64, 108
1, 8614, Control_c, 0, 64, 118
1, 8633, Note_off_c, 0, 74, 0
1, 8633, Control_c, 0, 64, 127
1, 8975, Note_off_c, 0, 62, 0
1, 9021, Poly_aftertouch_c, 0, 57, 24
1, 9267, Note_off_c, 0, 57, 0
1, 9425, Note_on_c, 0, 52, 37
1, 9568, Note_on_c, 0, 67, 59
1, 9598, Note_off_c, 0, 54, 0
1, 9644, Control_c, 0, 64, 121
1, 9664, Control_c, 0, 64, 113
1, 9681, Control_c, 0, 64, 102
1, 9710, Control_c, 0, 64, 90
1, 9718, Note_off_c, 0, 67, 0
1, 9723, Note_on_c, 0, 66, 64
1, 9727, Control_c, 0, 64, 77
1, 9749, Control_c, 0, 64, 67
1, 9764, Control_c, 0, 64, 61
1, 9783, Control_c, 0, 64, 59
1, 9801, Control_c, 0, 64, 57
1, 9821, Control_c, 0, 64, 54
1, 9839, Control_c, 0, 64, 50
1, 9859, Control_c, 0, 64, 45
1, 9876, Control_c, 0, 64, 41
1, 9879, Note_off_c, 0, 66, 0
1, 9884, Note_on_c, 0, 67, 61
1, 9914, Control_c, 0, 64, 36
1, 10081, Control_c, 0, 64, 40
1, 10099, Control_c, 0, 64, 44
1, 10120, Control_c, 0, 64, 51
1, 10134, Control_c, 0, 64, 58
1, 10154, Control_c, 0, 64, 61
1, 10172, Control_c, 0, 64, 63
1, 10192, Control_c, 0, 64, 65
1, 10210, Control_c, 0, 64, 68
1, 10229, Control_c, 0, 64, 71
1, 10248, Control_c, 0, 64, 74
1, 10266, Control_c, 0, 64, 77
1, 10285, Control_c, 0, 64, 81
1, 10304, Control_c, 0, 64, 84
1, 10321, Control_c, 0, 64, 88
1, 10358, Control_c, 0, 64, 92
1, 10452, Control_c, 0, 64, 96
1, 10724, Note_off_c, 0, 67, 0
1, 10738, Note_on_c, 0, 69, 58
1, 10762, Note_on_c, 0, 55, 34
1, 10793, Control_c, 0, 64, 92
1, 10812, Control_c, 0, 64, 86
1, 10832, Control_c, 0, 64, 78
1, 10850, Control_c, 0, 64, 69
1, 10869, Control_c, 0, 64, 61
1, 10888, Control_c, 0, 64, 56
1, 10907, Control_c, 0, 64, 51
1, 10924, Control_c, 0, 64, 45
1, 10930, Note_on_c, 0, 67, 65
1, 10937, Note_off_c, 0, 69, 0
1, 10942, Control_c, 0, 64, 40
1, 10979, Control_c, 0, 64, 34
1, 11083, Note_on_c, 0, 66, 63
1, 11089, Note_off_c, 0, 67, 0
1, 11203, Note_off_c, 0, 66, 0
1, 11227, Note_on_c, 0, 67, 67
1, 11382, Note_off_c, 0, 67, 0
1, 11396, Note_on_c, 0, 69, 63
1, 11485, Note_off_c, 0, 69, 0
1, 11515, Note_on_c, 0, 67, 58
1, 11519, Control_c, 0, 64, 39
1, 11538, Control_c, 0, 64, 44
1, 11563, Control_c, 0, 64, 51
1, 11582, Control_c, 0, 64, 56
1, 11597, Note_off_c, 0, 67, 0
1, 11599, Control_c, 0, 64, 59
1, 11620, Control_c, 0, 64, 61
1, 11630, Note_on_c, 0, 69, 59
1, 11639, Control_c, 0, 64, 63
1, 11657, Control_c, 0, 64, 65
1, 11675, Control_c, 0, 64, 68
1, 11683, Note_off_c, 0, 69, 0
1, 11713, Control_c, 0, 64, 71
1, 11728, Note_on_c, 0, 67, 53
1, 11749, Control_c, 0, 64, 74
1, 11769, Note_off_c, 0, 67, 0
1, 11787, Control_c, 0, 64, 76
1, 11814, Note_on_c, 0, 69, 62
1, 11868, Note_off_c, 0, 69, 0
1, 11892, Note_on_c, 0, 67, 60
1, 11918, Control_c, 0, 64, 73
1, 11937, Note_on_c, 0, 61, 32
1, 11937, Control_c, 0, 64, 69
1, 11954, Control_c, 0, 64, 63
1, 11955, Note_off_c, 0, 67, 0
1, 11974, Control_c, 0, 64, 58
1, 11986, Note_on_c, 0, 69, 60
1, 11991, Control_c, 0, 64, 54
1, 12008, Control_c, 0, 64, 50
1, 12027, Control_c, 0, 64, 46
1, 12038, Note_off_c, 0, 69, 0
1, 12045, Control_c, 0, 64, 43
1, 12056, Note_on_c, 0, 67, 54
1, 12065, Control_c, 0, 64, 41
1, 12135, Note_off_c, 0, 67, 0
1, 12152, Note_on_c, 0, 69, 56
1, 12246, Note_off_c, 0, 69, 0
1, 12270, Note_on_c, 0, 67, 55
1, 12582, Note_off_c, 0, 67, 0
1, 12598, Note_on_c, 0, 66, 57
1, 12895, Note_off_c, 0, 66, 0
1, 12895, Note_on_c, 0, 67, 64
1, 13217, Poly_aftertouch_c, 0, 61, 24
1, 13218, Note_off_c, 0, 67, 0
1, 13227, Note_on_c, 0, 50, 39
1, 13227, Note_on_c, 0, 69, 58
1, 13286, Note_off_c, 0, 61, 0
1, 13310, Note_off_c, 0, 55, 0
1, 13371, Note_off_c, 0, 69, 0
1, 13376, Note_on_c, 0, 67, 59
1, 13381, Note_off_c, 0, 52, 0
1, 13546, Note_off_c, 0, 67, 0
1, 13565, Note_on_c, 0, 66, 56
1, 13809, Note_off_c, 0, 66, 0
1, 13894, Note_on_c, 0, 67, 57
1, 14050, Note_off_c, 0, 67, 0
1, 14058, Note_on_c, 0, 66, 55
1, 14221, Note_off_c, 0, 66, 0
1, 14241, Note_on_c, 0, 64, 54
1, 14290, Control_c, 0, 64, 47
1, 14309, Control_c, 0, 64, 53
1, 14328, Control_c, 0, 64, 58
1, 14347, Control_c, 0, 64, 61
1, 14373, Control_c, 0, 64, 64
1, 14391, Control_c, 0, 64, 67
1, 14430, Control_c, 0, 64, 70
1, 14465, Control_c, 0, 64, 73
1, 14495, Note_off_c, 0, 64, 0
1, 14522, Control_c, 0, 64, 75
1, 14654, Control_c, 0, 64, 73
1, 14668, Note_on_c, 0, 64, 46
1, 14668, Control_c, 0, 64, 71
1, 14683, Note_on_c, 0, 54, 30
1, 14689, Control_c, 0, 64, 68
1, 14708, Control_c, 0, 64, 64
1, 14727, Control_c, 0, 64, 60
1, 14746, Control_c, 0, 64, 55
1, 14764, Control_c, 0, 64, 49
1, 14783, Control_c, 0, 64, 42
1, 14802, Control_c, 0, 64, 37
1, 14837, Control_c, 0, 64, 32
1, 15285, Note_on_c, 0, 62, 40
1, 15345, Note_off_c, 0, 64, 0
1, 15992, Note_on_c, 0, 57, 33
1, 16183, Control_c, 0, 64, 38
1, 16202, Control_c, 0, 64, 42
1, 16220, Control_c, 0, 64, 49
1, 16247, Control_c, 0, 64, 57
1, 16264, Control_c, 0, 64, 61
1, 16284, Control_c, 0, 64, 64
1, 16302, Control_c, 0, 64, 66
1, 16321, Control_c, 0, 64, 68
1, 16340, Control_c, 0, 64, 70
1, 16359, Control_c, 0, 64, 72
1, 16377, Control_c, 0, 64, 75
1, 16397, Control_c, 0, 64, 78
1, 16414, Control_c, 0, 64, 81
1, 16432, Control_c, 0, 64, 84
1, 16451, Control_c, 0, 64, 87
1, 16487, Control_c, 0, 64, 91
1, 16617, Control_c, 0, 64, 86
1, 16635, Control_c, 0, 64, 80
1, 16644, Note_on_c, 0, 48, 42
1, 16655, Control_c, 0, 64, 71
1, 16673, Control_c, 0, 64, 61
1, 16691, Control_c, 0, 64, 51
1, 16712, Control_c, 0, 64, 37
1, 16729, Control_c, 0, 64, 15
1, 16730, Note_off_c, 0, 50, 0
1, 16747, Control_c, 0, 64, 0
1, 16877, Control_c, 0, 64, 14
1, 16896, Control_c, 0, 64, 28
1, 16915, Control_c, 0, 64, 43
1, 16934, Control_c, 0, 64, 58
1, 16952, Control_c, 0, 64, 65
1, 16970, Control_c, 0, 64, 69
1, 16990, Control_c, 0, 64, 73
1, 17004, Poly_aftertouch_c, 0, 57, 24
1, 17007, Control_c, 0, 64, 79
1, 17027, Control_c, 0, 64, 85
1, 17042, Note_off_c, 0, 48, 0
1, 17045, Note_off_c, 0, 54, 0
1, 17045, Control_c, 0, 64, 93
1, 17052, Note_off_c, 0, 57, 0
1, 17065, Control_c, 0, 64, 101
1, 17083, Control_c, 0, 64, 110
1, 17102, Control_c, 0, 64, 118
1, 17121, Control_c, 0, 64, 122
1, 17379, Note_off_c, 0, 62, 0
1, 17444, Note_on_c, 0, 74, 66
1, 17478, Note_on_c, 0, 47, 39
1, 17480, Control_c, 0, 64, 115
1, 17501, Control_c, 0, 64, 111
1, 17520, Control_c, 0, 64, 104
1, 17539, Control_c, 0, 64, 95
1, 17557, Control_c, 0, 64, 84
1, 17576, Control_c, 0, 64, 73
1, 17594, Control_c, 0, 64, 63
1, 17613, Control_c, 0, 64, 58
1, 17630, Control_c, 0, 64, 53
1, 17649, Control_c, 0, 64, 47
1, 17667, Control_c, 0, 64, 37
1, 17686, Control_c, 0, 64, 21
1, 17724, Control_c, 0, 64, 0
1, 17855, Control_c, 0, 64, 9
1, 17871, Control_c, 0, 64, 18
1, 17890, Control_c, 0, 64, 29
1, 17909, Control_c, 0, 64, 41
1, 17928, Control_c, 0, 64, 52
1, 17946, Control_c, 0, 64, 60
1, 17964, Control_c, 0, 64, 63
1, 17984, Control_c, 0, 64, 65
1, 18002, Control_c, 0, 64, 67
1, 18021, Control_c, 0, 64, 69
1, 18039, Control_c, 0, 64, 72
1, 18057, Control_c, 0, 64, 76
1, 18075, Control_c, 0, 64, 80
1, 18094, Control_c, 0, 64, 85
1, 18122, Control_c, 0, 64, 89
1, 18141, Control_c, 0, 64, 94
1, 18160, Control_c, 0, 64, 100
1, 18178, Control_c, 0, 64, 107
1, 18197, Control_c, 0, 64, 114
1, 18215, Control_c, 0, 64, 124
1, 18265, Note_off_c, 0, 74, 0
1, 18810, Note_on_c, 0, 74, 65
1, 18856, Note_on_c, 0, 50, 34
1, 18938, Control_c, 0, 64, 115
1, 18957, Control_c, 0, 64, 102
1, 18975, Control_c, 0, 64, 89
1, 18995, Control_c, 0, 64, 77
1, 19014, Control_c, 0, 64, 66
1, 19031, Control_c, 0, 64, 58
1, 19058, Control_c, 0, 64, 52
1, 19076, Control_c, 0, 64, 45
1, 19096, Control_c, 0, 64, 36
1, 19114, Control_c, 0, 64, 29
1, 19133, Control_c, 0, 64, 24
1, 19227, Control_c, 0, 64, 30
1, 19243, Control_c, 0, 64, 36
1, 19262, Control_c, 0, 64, 45
1, 19280, Control_c, 0, 64, 55
1, 19300, Control_c, 0, 64, 61
1, 19318, Control_c, 0, 64, 63
1, 19337, Control_c, 0, 64, 65
1, 19355, Control_c, 0, 64, 67
1, 19375, Control_c, 0, 64, 70
1, 19392, Control_c, 0, 64, 73
1, 19412, Control_c, 0, 64, 77
1, 19431, Control_c, 0, 64, 82
1, 19449, Control_c, 0, 64, 87
1, 19468, Control_c, 0, 64, 93
1, 19486, Control_c, 0, 64, 98
1, 19504, Control_c, 0, 64, 103
1, 19522, Control_c, 0, 64, 107
1, 19541, Control_c, 0, 64, 111
1, 19579, Control_c, 0, 64, 117
1, 20151, Note_on_c, 0, 55, 37
1, 20206, Note_off_c, 0, 74, 0
1, 20231, Note_on_c, 0, 76, 64
1, 20237, Control_c, 0, 64, 112
1, 20255, Control_c, 0, 64, 108
1, 20276, Control_c, 0, 64, 101
1, 20293, Control_c, 0, 64, 93
1, 20311, Control_c, 0, 64, 85
1, 20328, Control_c, 0, 64, 75
1, 20332, Note_off_c, 0, 76, 0
1, 20345, Note_on_c, 0, 74, 68
1, 20346, Control_c, 0, 64, 67
1, 20366, Control_c, 0, 64, 61
1, 20385, Control_c, 0, 64, 59
1, 20403, Control_c, 0, 64, 57
1, 20422, Control_c, 0, 64, 54
1, 20441, Control_c, 0, 64, 52
1, 20460, Control_c, 0, 64, 49
1, 20476, Note_on_c, 0, 76, 68
1, 20477, Note_off_c, 0, 74, 0
1, 20479, Control_c, 0, 64, 46
1, 20496, Control_c, 0, 64, 44
1, 20514, Control_c, 0, 64, 42
1, 20589, Control_c, 0, 64, 40
1, 21117, Note_off_c, 0, 76, 0
1, 21118, Note_on_c, 0, 77, 68
1, 21476, Note_on_c, 0, 76, 63
1, 21484, Note_off_c, 0, 47, 0
1, 21489, Note_on_c, 0, 48, 41
1, 21523, Note_off_c, 0, 77, 0
1, 21610, Note_off_c, 0, 50, 0
1, 21640, Note_off_c, 0, 55, 0
1, 21749, Control_c, 0, 64, 42
1, 21766, Control_c, 0, 64, 44
1, 21786, Control_c, 0, 64, 46
1, 21804, Control_c, 0, 64, 51
1, 21823, Control_c, 0, 64, 57
1, 21841, Control_c, 0, 64, 60
1, 21868, Control_c, 0, 64, 64
1, 21886, Control_c, 0, 64, 67
1, 21905, Control_c, 0, 64, 70
1, 21923, Control_c, 0, 64, 73
1, 21942, Control_c, 0, 64, 76
1, 21961, Control_c, 0, 64, 80
1, 21981, Control_c, 0, 64, 84
1, 21999, Control_c, 0, 64, 87
1, 22036, Control_c, 0, 64, 91
1, 22141, Note_off_c, 0, 76, 0
1, 22147, Control_c, 0, 64, 84
1, 22165, Control_c, 0, 64, 76
1, 22181, Note_on_c, 0, 74, 57
1, 22184, Control_c, 0, 64, 67
1, 22203, Control_c, 0, 64, 60
1, 22221, Control_c, 0, 64, 56
1, 22240, Control_c, 0, 64, 52
1, 22259, Control_c, 0, 64, 48
1, 22277, Control_c, 0, 64, 44
1, 22294, Control_c, 0, 64, 41
1, 22477, Note_off_c, 0, 74, 0
1, 22487, Note_on_c, 0, 72, 57
1, 22884, Note_off_c, 0, 72, 0
1, 22900, Note_on_c, 0, 71, 48
1, 22924, Note_on_c, 0, 52, 31
1, 23587, Note_on_c, 0, 69, 41
1, 23621, Control_c, 0, 64, 37
1, 23626, Note_off_c, 0, 71, 0
1, 24292, Note_on_c, 0, 57, 36
1, 24448, Control_c, 0, 64, 44
1, 24466, Control_c, 0, 64, 51
1, 24485, Control_c, 0, 64, 60
1, 24503, Control_c, 0, 64, 65
1, 24504, Note_off_c, 0, 69, 0
1, 24522, Control_c, 0, 64, 69
1, 24539, Control_c, 0, 64, 72
1, 24557, Control_c, 0, 64, 78
1, 24576, Control_c, 0, 64, 84
1, 24595, Control_c, 0, 64, 92
1, 24613, Control_c, 0, 64, 100
1, 24632, Control_c, 0, 64, 109
1, 24651, Control_c, 0, 64, 118
1, 24679, Control_c, 0, 64, 125
1, 24937, Control_c, 0, 64, 119
1, 24957, Control_c, 0, 64, 110
1, 24975, Control_c, 0, 64, 98
1, 24994, Control_c, 0, 64, 83
1, 24997, Note_on_c, 0, 79, 63
1, 25012, Control_c, 0, 64, 65
1, 25021, Note_on_c, 0, 50, 32
1, 25022, Note_off_c, 0, 48, 0
1, 25030, Control_c, 0, 64, 47
1, 25050, Control_c, 0, 64, 31
1, 25066, Note_off_c, 0, 52, 0
1, 25068, Control_c, 0, 64, 13
1, 25155, Note_on_c, 0, 78, 68
1, 25161, Control_c, 0, 64, 20
1, 25168, Note_off_c, 0, 79, 0
1, 25178, Control_c, 0, 64, 29
1, 25198, Control_c, 0, 64, 41
1, 25215, Control_c, 0, 64, 54
1, 25229, Note_off_c, 0, 57, 0
1, 25233, Control_c, 0, 64, 62
1, 25253, Control_c, 0, 64, 65
1, 25272, Control_c, 0, 64, 67
1, 25291, Control_c, 0, 64, 70
1, 25306, Note_off_c, 0, 78, 0
1, 25310, Control_c, 0, 64, 73
1, 25320, Note_on_c, 0, 76, 73
1, 25329, Control_c, 0, 64, 76
1, 25347, Control_c, 0, 64, 80
1, 25364, Control_c, 0, 64, 83
1, 25383, Control_c, 0, 64, 86
1, 25439, Control_c, 0, 67, 40
1, 25462, Note_on_c, 0, 78, 79
1, 25482, Note_off_c, 0, 76, 0
1, 25634, Control_c, 0, 64, 80
1, 25652, Control_c, 0, 64, 73
1, 25673, Control_c, 0, 64, 63
1, 25681, Note_off_c, 0, 78, 0
1, 25689, Note_on_c, 0, 79, 72
1, 25689, Control_c, 0, 64, 52
1, 25709, Control_c, 0, 64, 40
1, 25727, Control_c, 0, 64, 26
1, 25729, Note_off_c, 0, 50, 0
1, 25729, Note_on_c, 0, 52, 37
1, 25729, Control_c, 0, 64, 13
1, 25863, Control_c, 0, 64, 8
1, 25877, Note_off_c, 0, 79, 0
1, 25880, Note_on_c, 0, 78, 69
1, 25881, Control_c, 0, 64, 16
1, 25900, Control_c, 0, 64, 24
1, 25917, Control_c, 0, 64, 35
1, 25935, Control_c, 0, 64, 47
1, 25954, Control_c, 0, 64, 58
1, 25973, Control_c, 0, 64, 62
1, 25991, Control_c, 0, 64, 64
1, 26009, Control_c, 0, 64, 67
1, 26029, Control_c, 0, 64, 70
1, 26047, Control_c, 0, 64, 74
1, 26066, Control_c, 0, 64, 78
1, 26084, Control_c, 0, 64, 82
1, 26104, Control_c, 0, 64, 85
1, 26122, Control_c, 0, 64, 88
1, 26177, Control_c, 0, 64, 92
1, 26320, Note_off_c, 0, 78, 0
1, 26381, Control_c, 0, 64, 86
1, 26400, Control_c, 0, 64, 79
1, 26411, Note_on_c, 0, 81, 68
1, 26419, Control_c, 0, 64, 70
1, 26427, Note_on_c, 0, 60, 53
1, 26437, Control_c, 0, 64, 62
1, 26447, Note_off_c, 0, 52, 0
1, 26454, Control_c, 0, 64, 57
1, 26456, Note_on_c, 0, 48, 31
1, 26474, Control_c, 0, 64, 52
1, 26492, Control_c, 0, 64, 43
1, 26512, Control_c, 0, 64, 31
1, 26538, Control_c, 0, 64, 15
1, 26558, Control_c, 0, 64, 0
1, 26634, Note_off_c, 0, 81, 0
1, 26645, Note_on_c, 0, 79, 64
1, 26688, Control_c, 0, 64, 11
1, 26706, Control_c, 0, 64, 21
1, 26725, Control_c, 0, 64, 33
1, 26743, Control_c, 0, 64, 45
1, 26763, Control_c, 0, 64, 56
1, 26779, Control_c, 0, 64, 62
1, 26798, Control_c, 0, 64, 64
1, 26816, Control_c, 0, 64, 67
1, 26836, Control_c, 0, 64, 69
1, 26853, Control_c, 0, 64, 72
1, 26873, Control_c, 0, 64, 75
1, 26892, Control_c, 0, 64, 79
1, 26911, Control_c, 0, 64, 82
1, 26929, Control_c, 0, 64, 85
1, 26947, Control_c, 0, 64, 88
1, 27072, Note_off_c, 0, 79, 0
1, 27076, Control_c, 0, 64, 83
1, 27087, Note_on_c, 0, 78, 60
1, 27088, Note_off_c, 0, 48, 0
1, 27095, Control_c, 0, 64, 74
1, 27115, Control_c, 0, 64, 61
1, 27123, Note_on_c, 0, 50, 35
1, 27133, Control_c, 0, 64, 47
1, 27151, Control_c, 0, 64, 33
1, 27169, Control_c, 0, 64, 18
1, 27188, Control_c, 0, 64, 8
1, 27271, Note_off_c, 0, 78, 0
1, 27281, Control_c, 0, 64, 18
1, 27302, Control_c, 0, 64, 27
1, 27304, Note_on_c, 0, 76, 57
1, 27319, Control_c, 0, 64, 39
1, 27335, Control_c, 0, 64, 52
1, 27354, Control_c, 0, 64, 62
1, 27372, Control_c, 0, 64, 66
1, 27392, Control_c, 0, 64, 68
1, 27409, Control_c, 0, 64, 71
1, 27429, Control_c, 0, 64, 74
1, 27447, Control_c, 0, 64, 77
1, 27476, Control_c, 0, 64, 81
1, 27495, Control_c, 0, 64, 85
1, 27532, Control_c, 0, 64, 91
1, 27569, Control_c, 0, 64, 96
1, 27716, Note_off_c, 0, 76, 0
1, 27716, Control_c, 0, 64, 92
1, 27735, Control_c, 0, 64, 85
1, 27746, Note_on_c, 0, 74, 56
1, 27753, Note_on_c, 0, 59, 55
1, 27754, Control_c, 0, 64, 77
1, 27769, Note_off_c, 0, 60, 0
1, 27774, Control_c, 0, 64, 68
1, 27789, Control_c, 0, 64, 62
1, 27808, Control_c, 0, 64, 55
1, 27828, Control_c, 0, 64, 46
1, 27846, Control_c, 0, 64, 35
1, 27865, Control_c, 0, 64, 23
1, 27884, Control_c, 0, 64, 9
1, 27925, Note_on_c, 0, 72, 60
1, 27928, Note_off_c, 0, 74, 0
1, 28096, Note_on_c, 0, 57, 59
1, 28125, Control_c, 0, 64, 13
1, 28143, Note_off_c, 0, 59, 0
1, 28143, Control_c, 0, 64, 20
1, 28163, Control_c, 0, 64, 29
1, 28181, Control_c, 0, 64, 42
1, 28201, Control_c, 0, 64, 54
1, 28218, Control_c, 0, 64, 62
1, 28237, Control_c, 0, 64, 65
1, 28257, Control_c, 0, 64, 69
1, 28274, Control_c, 0, 64, 72
1, 28280, Note_off_c, 0, 72, 0
1, 28294, Control_c, 0, 64, 76
1, 28312, Control_c, 0, 64, 80
1, 28331, Control_c, 0, 64, 83
1, 28347, Control_c, 0, 64, 85
1, 28414, Control_c, 0, 64, 83
1, 28432, Control_c, 0, 64, 78
1, 28442, Note_on_c, 0, 72, 61
1, 28446, Note_on_c, 0, 55, 52
1, 28449, Control_c, 0, 64, 72
1, 28471, Control_c, 0, 64, 65
1, 28476, Note_off_c, 0, 57, 0
1, 28489, Control_c, 0, 64, 60
1, 28506, Control_c, 0, 64, 55
1, 28526, Control_c, 0, 64, 50
1, 28544, Control_c, 0, 64, 45
1, 28564, Control_c, 0, 64, 40
1, 28581, Control_c, 0, 64, 36
1, 28617, Control_c, 0, 64, 31
1, 28654, Control_c, 0, 64, 26
1, 28783, Note_on_c, 0, 54, 46
1, 28797, Note_off_c, 0, 55, 0
1, 28914, Note_on_c, 0, 81, 57
1, 28923, Note_off_c, 0, 72, 0
1, 29086, Note_off_c, 0, 54, 0
1, 29106, Note_on_c, 0, 52, 48
1, 29193, Control_c, 0, 64, 22
1, 29304, Control_c, 0, 64, 18
1, 29369, Control_c, 0, 64, 12
1, 29406, Control_c, 0, 64, 0
1, 29455, Note_off_c, 0, 52, 0
1, 29467, Note_off_c, 0, 81, 0
1, 29475, Note_on_c, 0, 72, 51
1, 29488, Note_on_c, 0, 54, 42
1, 29591, Control_c, 0, 64, 24
1, 29609, Control_c, 0, 64, 47
1, 29628, Control_c, 0, 64, 65
1, 29646, Control_c, 0, 64, 74
1, 29661, Note_off_c, 0, 50, 0
1, 29665, Control_c, 0, 64, 83
1, 29679, Note_off_c, 0, 54, 0
1, 29684, Control_c, 0, 64, 93
1, 29704, Control_c, 0, 64, 104
1, 29722, Control_c, 0, 64, 116
1, 29740, Control_c, 0, 64, 127
1, 29882, Note_off_c, 0, 72, 0
1, 29933, Note_on_c, 0, 71, 49
1, 29963, Control_c, 0, 64, 120
1, 29973, Note_on_c, 0, 43, 45
1, 29973, Note_on_c, 0, 55, 40
1, 29982, Control_c, 0, 64, 103
1, 30000, Control_c, 0, 64, 85
1, 30018, Control_c, 0, 64, 67
1, 30037, Control_c, 0, 64, 51
1, 30055, Control_c, 0, 64, 40
1, 30073, Control_c, 0, 64, 27
1, 30092, Control_c, 0, 64, 13
1, 30111, Control_c, 0, 64, 8
1, 30166, Note_off_c, 0, 71, 0
1, 30186, Control_c, 0, 64, 20
1, 30188, Note_on_c, 0, 67, 52
1, 30202, Control_c, 0, 64, 32
1, 30221, Control_c, 0, 64, 45
1, 30240, Control_c, 0, 64, 58
1, 30259, Control_c, 0, 64, 65
1, 30287, Control_c, 0, 64, 69
1, 30306, Control_c, 0, 64, 73
1, 30324, Control_c, 0, 64, 79
1, 30344, Control_c, 0, 64, 86
1, 30363, Control_c, 0, 64, 96
1, 30380, Control_c, 0, 64, 106
1, 30398, Control_c, 0, 64, 116
1, 30416, Control_c, 0, 64, 126
1, 30430, Note_off_c, 0, 55, 0
1, 30655, Note_off_c, 0, 67, 0
1, 30657, Control_c, 0, 67, 44
1, 30659, Note_on_c, 0, 66, 56
1, 30676, Control_c, 0, 64, 114
1, 30691, Note_on_c, 0, 57, 39
1, 30695, Control_c, 0, 64, 101
1, 30714, Control_c, 0, 64, 86
1, 30733, Control_c, 0, 64, 70
1, 30751, Control_c, 0, 64, 56
1, 30770, Control_c, 0, 64, 44
1, 30789, Control_c, 0, 64, 29
1, 30790, Control_c, 0, 67, 48
1, 30807, Control_c, 0, 64, 14
1, 30827, Control_c, 0, 64, 10
1, 30881, Control_c, 0, 64, 20
1, 30899, Control_c, 0, 64, 35
1, 30918, Control_c, 0, 64, 51
1, 30936, Control_c, 0, 64, 64
1, 30955, Control_c, 0, 64, 71
1, 30974, Control_c, 0, 64, 77
1, 30992, Control_c, 0, 64, 86
1, 31012, Control_c, 0, 64, 97
1, 31028, Control_c, 0, 64, 110
1, 31047, Control_c, 0, 64, 127
1, 31082, Note_off_c, 0, 66, 0
1, 31445, Control_c, 0, 64, 123
1, 31465, Control_c, 0, 64, 106
1, 31466, Control_c, 0, 67, 55
1, 31478, Note_on_c, 0, 66, 46
1, 31482, Control_c, 0, 64, 89
1, 31483, Control_c, 0, 67, 60
1, 31489, Note_on_c, 0, 59, 36
1, 31503, Control_c, 0, 64, 73
1, 31520, Control_c, 0, 64, 58
1, 31522, Control_c, 0, 67, 65
1, 31539, Note_off_c, 0, 57, 0
1, 31539, Control_c, 0, 64, 45
1, 31558, Control_c, 0, 64, 27
1, 31650, Control_c, 0, 64, 15
1, 31668, Control_c, 0, 64, 29
1, 31688, Control_c, 0, 64, 46
1, 31707, Control_c, 0, 64, 62
1, 31725, Control_c, 0, 64, 69
1, 31743, Control_c, 0, 64, 72
1, 31761, Control_c, 0, 64, 76
1, 31781, Control_c, 0, 64, 79
1, 31799, Control_c, 0, 64, 83
1, 31819, Control_c, 0, 64, 87
1, 31835, Control_c, 0, 64, 91
1, 31896, Note_off_c, 0, 66, 0
1, 31943, Note_on_c, 0, 67, 45
1, 31948, Control_c, 0, 64, 87
1, 31967, Control_c, 0, 64, 80
1, 31986, Control_c, 0, 64, 69
1, 32003, Control_c, 0, 64, 57
1, 32021, Control_c, 0, 64, 48
1, 32037, Note_off_c, 0, 67, 0
1, 32039, Control_c, 0, 64, 41
1, 32052, Note_on_c, 0, 66, 54
1, 32057, Control_c, 0, 64, 36
1, 32076, Control_c, 0, 64, 31
1, 32095, Control_c, 0, 64, 26
1, 32114, Control_c, 0, 64, 21
1, 32162, Note_off_c, 0, 66, 0
1, 32207, Note_on_c, 0, 67, 47
1, 32252, Control_c, 0, 64, 27
1, 32271, Control_c, 0, 64, 33
1, 32291, Control_c, 0, 64, 42
1, 32308, Control_c, 0, 64, 53
1, 32327, Control_c, 0, 64, 62
1, 32345, Control_c, 0, 64, 67
1, 32365, Control_c, 0, 64, 70
1, 32382, Control_c, 0, 64, 73
1, 32400, Control_c, 0, 64, 77
1, 32419, Control_c, 0, 64, 82
1, 32438, Control_c, 0, 64, 87
1, 32475, Control_c, 0, 64, 92
1, 32549, Control_c, 0, 64, 85
1, 32562, Note_off_c, 0, 43, 0
1, 32568, Control_c, 0, 64, 77
1, 32587, Control_c, 0, 64, 64
1, 32605, Control_c, 0, 64, 49
1, 32616, Note_on_c, 0, 50, 49
1, 32623, Control_c, 0, 64, 37
1, 32642, Control_c, 0, 64, 28
1, 32735, Control_c, 0, 64, 34
1, 32754, Control_c, 0, 64, 45
1, 32773, Control_c, 0, 64, 60
1, 32791, Control_c, 0, 64, 68
1, 32810, Control_c, 0, 64, 72
1, 32827, Control_c, 0, 64, 75
1, 32846, Control_c, 0, 64, 79
1, 32864, Control_c, 0, 64, 84
1, 32883, Control_c, 0, 64, 90
1, 32902, Control_c, 0, 64, 95
1, 32921, Control_c, 0, 64, 99
1, 32961, Note_off_c, 0, 50, 0
1, 33054, Note_on_c, 0, 52, 57
1, 33134, Control_c, 0, 64, 92
1, 33142, Note_off_c, 0, 52, 0
1, 33154, Control_c, 0, 64, 86
1, 33164, Note_on_c, 0, 50, 60
1, 33172, Control_c, 0, 64, 78
1, 33189, Control_c, 0, 64, 69
1, 33208, Control_c, 0, 64, 62
1, 33226, Control_c, 0, 64, 56
1, 33244, Control_c, 0, 64, 52
1, 33263, Control_c, 0, 64, 48
1, 33281, Note_off_c, 0, 50, 0
1, 33281, Control_c, 0, 64, 42
1, 33300, Control_c, 0, 64, 35
1, 33301, Note_on_c, 0, 52, 54
1, 33319, Control_c, 0, 64, 28
1, 33338, Control_c, 0, 64, 22
1, 34289, Note_on_c, 0, 54, 43
1, 34328, Note_off_c, 0, 52, 0
1, 34650, Note_off_c, 0, 59, 0
1, 34861, Note_on_c, 0, 71, 59
1, 34862, Note_off_c, 0, 54, 0
1, 34868, Note_off_c, 0, 67, 0
1, 34888, Note_on_c, 0, 55, 40
1, 35303, Control_c, 0, 64, 28
1, 35322, Control_c, 0, 64, 34
1, 35341, Control_c, 0, 64, 42
1, 35360, Control_c, 0, 64, 52
1, 35378, Control_c, 0, 64, 58
1, 35398, Control_c, 0, 64, 61
1, 35416, Control_c, 0, 64, 64
1, 35435, Control_c, 0, 64, 67
1, 35452, Control_c, 0, 64, 69
1, 35470, Control_c, 0, 64, 73
1, 35489, Control_c, 0, 64, 77
1, 35507, Control_c, 0, 64, 83
1, 35526, Control_c, 0, 64, 89
1, 35544, Control_c, 0, 64, 96
1, 35564, Control_c, 0, 64, 103
1, 35582, Control_c, 0, 64, 111
1, 35601, Control_c, 0, 64, 120
1, 35620, Control_c, 0, 64, 127
1, 35769, Note_off_c, 0, 71, 0
1, 35986, Control_c, 0, 67, 61
1, 36480, Note_on_c, 0, 71, 53
1, 36497, Note_on_c, 0, 59, 41
1, 36654, Control_c, 0, 64, 114
1, 36674, Control_c, 0, 64, 102
1, 36692, Control_c, 0, 64, 89
1, 36710, Control_c, 0, 64, 77
1, 36729, Control_c, 0, 64, 65
1, 36747, Control_c, 0, 64, 55
1, 36766, Control_c, 0, 64, 45
1, 36783, Control_c, 0, 64, 32
1, 36803, Control_c, 0, 64, 20
1, 36831, Control_c, 0, 64, 16
1, 36906, Control_c, 0, 64, 20
1, 36925, Control_c, 0, 64, 25
1, 36944, Control_c, 0, 64, 34
1, 36960, Control_c, 0, 64, 45
1, 36979, Control_c, 0, 64, 56
1, 36997, Control_c, 0, 64, 62
1, 37017, Control_c, 0, 64, 63
1, 37034, Control_c, 0, 64, 66
1, 37054, Control_c, 0, 64, 69
1, 37072, Control_c, 0, 64, 72
1, 37091, Control_c, 0, 64, 76
1, 37110, Control_c, 0, 64, 80
1, 37129, Control_c, 0, 64, 85
1, 37146, Control_c, 0, 64, 90
1, 37164, Control_c, 0, 64, 94
1, 37201, Control_c, 0, 64, 100
1, 37239, Control_c, 0, 64, 104
1, 37931, Note_on_c, 0, 64, 37
1, 37982, Note_off_c, 0, 71, 0
1, 38007, Note_on_c, 0, 73, 63
1, 38007, Control_c, 0, 64, 99
1, 38026, Control_c, 0, 64, 95
1, 38046, Control_c, 0, 64, 88
1, 38064, Control_c, 0, 64, 80
1, 38084, Control_c, 0, 64, 70
1, 38101, Control_c, 0, 64, 63
1, 38108, Note_off_c, 0, 73, 0
1, 38120, Control_c, 0, 64, 58
1, 38130, Note_on_c, 0, 71, 63
1, 38137, Control_c, 0, 64, 55
1, 38157, Control_c, 0, 64, 52
1, 38174, Control_c, 0, 64, 48
1, 38194, Control_c, 0, 64, 44
1, 38212, Control_c, 0, 64, 39
1, 38231, Control_c, 0, 64, 35
1, 38269, Note_on_c, 0, 73, 63
1, 38279, Note_off_c, 0, 71, 0
1, 38982, Note_off_c, 0, 73, 0
1, 38984, Note_on_c, 0, 74, 63
1, 39037, Control_c, 0, 64, 40
1, 39057, Control_c, 0, 64, 47
1, 39075, Control_c, 0, 64, 55
1, 39094, Control_c, 0, 64, 62
1, 39112, Control_c, 0, 64, 65
1, 39130, Control_c, 0, 64, 68
1, 39148, Control_c, 0, 64, 71
1, 39167, Control_c, 0, 64, 75
1, 39185, Control_c, 0, 64, 78
1, 39205, Control_c, 0, 64, 82
1, 39213, Note_off_c, 0, 74, 0
1, 39223, Control_c, 0, 64, 85
1, 39241, Control_c, 0, 64, 87
1, 39351, Note_on_c, 0, 74, 69
1, 39365, Note_off_c, 0, 59, 0
1, 39372, Control_c, 0, 64, 83
1, 39387, Note_off_c, 0, 64, 0
1, 39391, Control_c, 0, 64, 77
1, 39394, Note_on_c, 0, 57, 30
1, 39410, Control_c, 0, 64, 70
1, 39427, Control_c, 0, 64, 65
1, 39446, Control_c, 0, 64, 63
1, 39464, Control_c, 0, 64, 61
1, 39483, Control_c, 0, 64, 58
1, 39502, Control_c, 0, 64, 55
1, 39520, Control_c, 0, 64, 52
1, 39539, Control_c, 0, 64, 48
1, 39558, Control_c, 0, 64, 44
1, 39576, Control_c, 0, 64, 41
1, 39612, Control_c, 0, 64, 35
1, 39678, Control_c, 0, 64, 31
1, 39679, Note_on_c, 0, 73, 63
1, 39703, Note_off_c, 0, 74, 0
1, 40000, Note_on_c, 0, 71, 63
1, 40004, Note_off_c, 0, 73, 0
1, 40252, Control_c, 0, 64, 41
1, 40271, Control_c, 0, 64, 50
1, 40290, Control_c, 0, 64, 60
1, 40297, Note_on_c, 0, 69, 62
1, 40300, Note_off_c, 0, 71, 0
1, 40308, Control_c, 0, 64, 64
1, 40327, Control_c, 0, 64, 67
1, 40346, Control_c, 0, 64, 71
1, 40365, Control_c, 0, 64, 75
1, 40381, Control_c, 0, 64, 80
1, 40400, Control_c, 0, 64, 86
1, 40417, Note_off_c, 0, 57, 0
1, 40418, Control_c, 0, 64, 92
1, 40438, Control_c, 0, 64, 97
1, 40442, Note_off_c, 0, 55, 0
1, 40456, Control_c, 0, 64, 101
1, 40494, Control_c, 0, 64, 106
1, 40688, Control_c, 0, 64, 101
1, 40696, Note_on_c, 0, 74, 57
1, 40707, Note_on_c, 0, 55, 49
1, 40708, Control_c, 0, 64, 96
1, 40726, Control_c, 0, 64, 88
1, 40745, Control_c, 0, 64, 80
1, 40759, Note_off_c, 0, 55, 0
1, 40761, Control_c, 0, 64, 72
1, 40780, Control_c, 0, 64, 65
1, 40791, Note_on_c, 0, 54, 44
1, 40797, Control_c, 0, 64, 60
1, 40817, Control_c, 0, 64, 57
1, 40836, Control_c, 0, 64, 55
1, 40854, Note_off_c, 0, 54, 0
1, 40854, Control_c, 0, 64, 52
1, 40874, Control_c, 0, 64, 50
1, 40878, Note_on_c, 0, 55, 54
1, 40893, Control_c, 0, 64, 47
1, 40912, Control_c, 0, 64, 45
1, 40930, Control_c, 0, 64, 43
1, 40960, Note_off_c, 0, 55, 0
1, 40967, Control_c, 0, 64, 41
1, 40974, Note_on_c, 0, 54, 55
1, 41375, Note_on_c, 0, 52, 56
1, 41405, Note_off_c, 0, 54, 0
1, 42041, Note_on_c, 0, 54, 60
1, 42128, Note_off_c, 0, 52, 0
1, 42773, Note_on_c, 0, 59, 56
1, 42862, Note_off_c, 0, 54, 0
1, 42972, Control_c, 0, 64, 45
1, 42990, Control_c, 0, 64, 49
1, 43009, Control_c, 0, 64, 56
1, 43026, Control_c, 0, 64, 61
1, 43045, Control_c, 0, 64, 65
1, 43064, Control_c, 0, 64, 69
1, 43083, Control_c, 0, 64, 73
1, 43101, Control_c, 0, 64, 80
1, 43121, Control_c, 0, 64, 88
1, 43139, Control_c, 0, 64, 98
1, 43150, Note_off_c, 0, 69, 0
1, 43157, Control_c, 0, 64, 109
1, 43176, Control_c, 0, 64, 122
1, 43193, Control_c, 0, 64, 127
1, 43500, Control_c, 0, 64, 96
1, 43519, Control_c, 0, 64, 66
1, 43530, Note_on_c, 0, 67, 44
1, 43533, Note_on_c, 0, 52, 39
1, 43538, Control_c, 0, 64, 32
1, 43539, Note_off_c, 0, 59, 0
1, 43557, Control_c, 0, 64, 0
1, 43611, Control_c, 0, 64, 10
1, 43628, Control_c, 0, 64, 34
1, 43645, Note_off_c, 0, 67, 0
1, 43647, Control_c, 0, 64, 57
1, 43648, Note_on_c, 0, 71, 48
1, 43667, Control_c, 0, 64, 69
1, 43686, Control_c, 0, 64, 75
1, 43691, Note_off_c, 0, 74, 0
1, 43705, Control_c, 0, 64, 80
1, 43723, Control_c, 0, 64, 87
1, 43741, Control_c, 0, 64, 95
1, 43750, Note_off_c, 0, 71, 0
1, 43760, Control_c, 0, 64, 103
1, 43773, Note_on_c, 0, 76, 60
1, 43779, Control_c, 0, 64, 111
1, 43799, Control_c, 0, 64, 120
1, 43815, Control_c, 0, 64, 127
1, 43950, Note_off_c, 0, 76, 0
1, 43964, Note_on_c, 0, 79, 67
1, 44178, Note_off_c, 0, 79, 0
1, 44248, Note_on_c, 0, 59, 48
1, 44486, Note_off_c, 0, 59, 0
1, 44940, Note_on_c, 0, 81, 58
1, 44955, Note_on_c, 0, 64, 52
1, 45121, Note_on_c, 0, 79, 74
1, 45128, Note_off_c, 0, 81, 0
1, 45158, Note_off_c, 0, 52, 0
1, 45288, Note_off_c, 0, 79, 0
1, 45291, Note_on_c, 0, 78, 76
1, 45436, Note_off_c, 0, 78, 0
1, 45441, Note_on_c, 0, 79, 73
1, 45657, Note_off_c, 0, 79, 0
1, 45673, Note_on_c, 0, 81, 71
1, 45699, Note_on_c, 0, 52, 40
1, 45707, Control_c, 0, 64, 119
1, 45727, Control_c, 0, 64, 99
1, 45747, Control_c, 0, 64, 77
1, 45765, Control_c, 0, 64, 56
1, 45783, Control_c, 0, 64, 35
1, 45803, Control_c, 0, 64, 18
1, 45836, Note_off_c, 0, 81, 0
1, 45855, Note_on_c, 0, 79, 65
1, 45855, Control_c, 0, 64, 25
1, 45876, Control_c, 0, 64, 39
1, 45894, Control_c, 0, 64, 56
1, 45913, Control_c, 0, 64, 67
1, 45931, Control_c, 0, 64, 72
1, 45951, Control_c, 0, 64, 77
1, 45960, Note_off_c, 0, 79, 0
1, 45968, Control_c, 0, 64, 82
1, 45978, Note_on_c, 0, 81, 64
1, 45988, Control_c, 0, 64, 88
1, 46007, Control_c, 0, 64, 94
1, 46025, Control_c, 0, 64, 99
1, 46044, Control_c, 0, 64, 104
1, 46056, Note_off_c, 0, 81, 0
1, 46060, Control_c, 0, 64, 108
1, 46074, Note_on_c, 0, 79, 70
1, 46099, Control_c, 0, 64, 114
1, 46135, Control_c, 0, 64, 121
1, 46141, Note_off_c, 0, 79, 0
1, 46165, Note_on_c, 0, 81, 69
1, 46173, Control_c, 0, 64, 127
1, 46243, Note_off_c, 0, 81, 0
1, 46254, Note_on_c, 0, 79, 68
1, 46319, Note_off_c, 0, 79, 0
1, 46334, Note_on_c, 0, 81, 65
1, 46343, Poly_aftertouch_c, 0, 52, 22
1, 46366, Note_off_c, 0, 52, 0
1, 46370, Note_on_c, 0, 54, 48
1, 46387, Control_c, 0, 64, 102
1, 46403, Note_off_c, 0, 81, 0
1, 46405, Control_c, 0, 64, 78
1, 46412, Note_on_c, 0, 79, 61
1, 46424, Control_c, 0, 64, 54
1, 46440, Control_c, 0, 64, 32
1, 46460, Control_c, 0, 64, 23
1, 46484, Note_off_c, 0, 79, 0
1, 46484, Note_on_c, 0, 81, 68
1, 46498, Control_c, 0, 64, 32
1, 46515, Control_c, 0, 64, 48
1, 46535, Control_c, 0, 64, 66
1, 46553, Control_c, 0, 64, 75
1, 46558, Note_off_c, 0, 81, 0
1, 46566, Note_on_c, 0, 79, 61
1, 46570, Control_c, 0, 64, 82
1, 46590, Control_c, 0, 64, 89
1, 46610, Control_c, 0, 64, 96
1, 46626, Control_c, 0, 64, 101
1, 46630, Note_off_c, 0, 79, 0
1, 46638, Note_on_c, 0, 81, 56
1, 46644, Control_c, 0, 64, 105
1, 46683, Control_c, 0, 64, 111
1, 46690, Note_off_c, 0, 81, 0
1, 46700, Note_on_c, 0, 79, 53
1, 46739, Control_c, 0, 64, 116
1, 46758, Note_off_c, 0, 79, 0
1, 46765, Note_on_c, 0, 81, 62
1, 46836, Note_on_c, 0, 79, 67
1, 46839, Note_off_c, 0, 81, 0
1, 46890, Note_off_c, 0, 64, 0
1, 46934, Note_off_c, 0, 54, 0
1, 47040, Note_off_c, 0, 79, 0
1, 47049, Note_on_c, 0, 78, 64
1, 47053, Note_on_c, 0, 62, 56
1, 47053, Control_c, 0, 64, 112
1, 47074, Control_c, 0, 64, 105
1, 47083, Note_on_c, 0, 55, 41
1, 47092, Control_c, 0, 64, 95
1, 47109, Control_c, 0, 64, 81
1, 47138, Control_c, 0, 64, 65
1, 47156, Control_c, 0, 64, 50
1, 47176, Control_c, 0, 64, 36
1, 47194, Control_c, 0, 64, 19
1, 47213, Control_c, 0, 64, 11
1, 47286, Control_c, 0, 64, 20
1, 47304, Control_c, 0, 64, 32
1, 47324, Control_c, 0, 64, 46
1, 47342, Control_c, 0, 64, 61
1, 47359, Note_on_c, 0, 79, 73
1, 47359, Control_c, 0, 64, 68
1, 47372, Note_off_c, 0, 78, 0
1, 47378, Control_c, 0, 64, 71
1, 47399, Control_c, 0, 64, 74
1, 47408, Note_off_c, 0, 55, 0
1, 47416, Control_c, 0, 64, 78
1, 47435, Control_c, 0, 64, 83
1, 47453, Control_c, 0, 64, 89
1, 47471, Control_c, 0, 64, 95
1, 47489, Control_c, 0, 64, 100
1, 47527, Control_c, 0, 64, 105
1, 47606, Note_off_c, 0, 79, 0
1, 47621, Control_c, 0, 64, 109
1, 47755, Note_on_c, 0, 79, 63
1, 47767, Note_on_c, 0, 61, 52
1, 47788, Note_on_c, 0, 57, 39
1, 47788, Control_c, 0, 64, 104
1, 47806, Control_c, 0, 64, 97
1, 47826, Control_c, 0, 64, 88
1, 47843, Control_c, 0, 64, 76
1, 47862, Note_off_c, 0, 62, 0
1, 47862, Control_c, 0, 64, 64
1, 47880, Control_c, 0, 64, 53
1, 47898, Control_c, 0, 64, 41
1, 47918, Control_c, 0, 64, 25
1, 47935, Control_c, 0, 64, 13
1, 48010, Control_c, 0, 64, 18
1, 48030, Control_c, 0, 64, 28
1, 48047, Control_c, 0, 64, 41
1, 48074, Control_c, 0, 64, 55
1, 48092, Control_c, 0, 64, 65
1, 48112, Control_c, 0, 64, 68
1, 48130, Control_c, 0, 64, 71
1, 48149, Control_c, 0, 64, 74
1, 48167, Control_c, 0, 64, 78
1, 48187, Control_c, 0, 64, 83
1, 48205, Control_c, 0, 64, 88
1, 48224, Control_c, 0, 64, 94
1, 48242, Control_c, 0, 64, 98
1, 48278, Control_c, 0, 64, 103
1, 48335, Control_c, 0, 64, 108
1, 48466, Control_c, 0, 64, 101
1, 48474, Note_off_c, 0, 79, 0
1, 48480, Note_on_c, 0, 78, 57
1, 48485, Control_c, 0, 64, 93
1, 48492, Note_on_c, 0, 62, 42
1, 48500, Control_c, 0, 64, 81
1, 48508, Note_off_c, 0, 61, 0
1, 48520, Control_c, 0, 64, 68
1, 48538, Control_c, 0, 64, 57
1, 48557, Control_c, 0, 64, 48
1, 48575, Control_c, 0, 64, 38
1, 48595, Control_c, 0, 64, 25
1, 48613, Control_c, 0, 64, 15
1, 48704, Control_c, 0, 64, 22
1, 48724, Control_c, 0, 64, 30
1, 48742, Control_c, 0, 64, 41
1, 48761, Control_c, 0, 64, 55
1, 48778, Note_on_c, 0, 76, 59
1, 48778, Control_c, 0, 64, 64
1, 48786, Note_off_c, 0, 78, 0
1, 48798, Control_c, 0, 64, 67
1, 48835, Control_c, 0, 64, 70
1, 48854, Control_c, 0, 64, 74
1, 48872, Control_c, 0, 64, 78
1, 48891, Control_c, 0, 64, 82
1, 48908, Control_c, 0, 64, 87
1, 48929, Control_c, 0, 64, 92
1, 48946, Control_c, 0, 64, 96
1, 48983, Control_c, 0, 64, 102
1, 49030, Control_c, 0, 64, 108
1, 49178, Control_c, 0, 64, 99
1, 49197, Control_c, 0, 64, 88
1, 49203, Note_off_c, 0, 76, 0
1, 49212, Note_on_c, 0, 74, 47
1, 49217, Note_on_c, 0, 64, 38
1, 49217, Control_c, 0, 64, 72
1, 49234, Control_c, 0, 64, 55
1, 49254, Control_c, 0, 64, 42
1, 49272, Control_c, 0, 64, 29
1, 49273, Note_off_c, 0, 62, 0
1, 49290, Control_c, 0, 64, 24
1, 49345, Control_c, 0, 64, 31
1, 49363, Control_c, 0, 64, 43
1, 49382, Control_c, 0, 64, 58
1, 49401, Control_c, 0, 64, 67
1, 49420, Control_c, 0, 64, 70
1, 49438, Control_c, 0, 64, 72
1, 49476, Control_c, 0, 64, 76
1, 49493, Control_c, 0, 64, 78
1, 49511, Control_c, 0, 64, 81
1, 49531, Control_c, 0, 64, 83
1, 49549, Control_c, 0, 64, 85
1, 49563, Note_off_c, 0, 74, 0
1, 49585, Note_on_c, 0, 73, 51
1, 49642, Note_off_c, 0, 73, 0
1, 49685, Note_on_c, 0, 74, 44
1, 49772, Note_off_c, 0, 74, 0
1, 49795, Note_on_c, 0, 73, 49
1, 49863, Control_c, 0, 64, 82
1, 49882, Control_c, 0, 64, 77
1, 49901, Control_c, 0, 64, 72
1, 49919, Control_c, 0, 64, 65
1, 49948, Control_c, 0, 64, 60
1, 49966, Control_c, 0, 64, 56
1, 49974, Note_on_c, 0, 59, 50
1, 49985, Control_c, 0, 64, 52
1, 50004, Control_c, 0, 64, 48
1, 50012, Note_off_c, 0, 57, 0
1, 50022, Control_c, 0, 64, 45
1, 50040, Control_c, 0, 64, 42
1, 50078, Control_c, 0, 64, 40
1, 50666, Note_on_c, 0, 57, 55
1, 50680, Note_off_c, 0, 59, 0
1, 50885, Control_c, 0, 64, 43
1, 50904, Control_c, 0, 64, 48
1, 50923, Control_c, 0, 64, 55
1, 50940, Control_c, 0, 64, 60
1, 50958, Control_c, 0, 64, 64
1, 50977, Control_c, 0, 64, 67
1, 50996, Control_c, 0, 64, 71
1, 51014, Control_c, 0, 64, 74
1, 51033, Control_c, 0, 64, 79
1, 51052, Control_c, 0, 64, 85
1, 51071, Control_c, 0, 64, 90
1, 51089, Control_c, 0, 64, 95
1, 51108, Control_c, 0, 64, 100
1, 51125, Control_c, 0, 64, 104
1, 51144, Control_c, 0, 64, 108
1, 51152, Note_off_c, 0, 73, 0
1, 51385, Control_c, 0, 64, 103
1, 51404, Control_c, 0, 64, 96
1, 51408, Note_off_c, 0, 57, 0
1, 51410, Note_on_c, 0, 76, 66
1, 51423, Control_c, 0, 64, 85
1, 51430, Note_on_c, 0, 55, 55
1, 51442, Control_c, 0, 64, 72
1, 51459, Control_c, 0, 64, 62
1, 51479, Control_c, 0, 64, 56
1, 51496, Control_c, 0, 64, 50
1, 51514, Control_c, 0, 64, 37
1, 51533, Control_c, 0, 64, 15
1, 51551, Control_c, 0, 64, 0
1, 51663, Control_c, 0, 64, 12
1, 51681, Control_c, 0, 64, 25
1, 51699, Control_c, 0, 64, 40
1, 51718, Control_c, 0, 64, 55
1, 51737, Control_c, 0, 64, 65
1, 51756, Control_c, 0, 64, 68
1, 51774, Control_c, 0, 64, 71
1, 51793, Control_c, 0, 64, 76
1, 51821, Control_c, 0, 64, 81
1, 51841, Control_c, 0, 64, 87
1, 51859, Control_c, 0, 64, 94
1, 51878, Control_c, 0, 64, 100
1, 51896, Control_c, 0, 64, 104
1, 52053, Note_off_c, 0, 76, 0
1, 52115, Note_off_c, 0, 64, 0
1, 52285, Control_c, 0, 64, 97
1, 52287, Note_on_c, 0, 81, 64
1, 52301, Note_on_c, 0, 54, 47
1, 52302, Control_c, 0, 64, 91
1, 52321, Control_c, 0, 64, 83
1, 52340, Control_c, 0, 64, 73
1, 52358, Control_c, 0, 64, 64
1, 52377, Control_c, 0, 64, 59
1, 52383, Note_off_c, 0, 55, 0
1, 52396, Control_c, 0, 64, 57
1, 52432, Control_c, 0, 64, 53
1, 52452, Control_c, 0, 64, 51
1, 52488, Control_c, 0, 64, 49
1, 52651, Note_on_c, 0, 79, 61
1, 52662, Note_off_c, 0, 81, 0
1, 53000, Note_on_c, 0, 78, 63
1, 53008, Note_off_c, 0, 79, 0
1, 53308, Note_off_c, 0, 78, 0
1, 53319, Note_on_c, 0, 76, 61
1, 53716, Note_off_c, 0, 76, 0
1, 53740, Note_on_c, 0, 74, 55
1, 53779, Note_on_c, 0, 57, 30
1, 54009, Control_c, 0, 64, 51
1, 54047, Control_c, 0, 64, 55
1, 54066, Control_c, 0, 64, 59
1, 54084, Control_c, 0, 64, 62
1, 54103, Control_c, 0, 64, 65
1, 54119, Control_c, 0, 64, 69
1, 54139, Control_c, 0, 64, 73
1, 54157, Control_c, 0, 64, 78
1, 54176, Control_c, 0, 64, 83
1, 54194, Control_c, 0, 64, 88
1, 54214, Control_c, 0, 64, 93
1, 54231, Control_c, 0, 64, 97
1, 54270, Control_c, 0, 64, 103
1, 54326, Note_off_c, 0, 74, 0
1, 54454, Control_c, 0, 64, 96
1, 54474, Control_c, 0, 64, 91
1, 54490, Note_on_c, 0, 69, 50
1, 54491, Control_c, 0, 64, 84
1, 54511, Control_c, 0, 64, 75
1, 54530, Control_c, 0, 64, 65
1, 54546, Control_c, 0, 64, 60
1, 54566, Control_c, 0, 64, 57
1, 54583, Control_c, 0, 64, 54
1, 54603, Control_c, 0, 64, 52
1, 54630, Control_c, 0, 64, 49
1, 54650, Control_c, 0, 64, 46
1, 54668, Control_c, 0, 64, 43
1, 54687, Control_c, 0, 64, 41
1, 55215, Note_on_c, 0, 62, 37
1, 55446, Control_c, 0, 64, 44
1, 55465, Control_c, 0, 64, 47
1, 55484, Control_c, 0, 64, 52
1, 55503, Control_c, 0, 64, 57
1, 55521, Control_c, 0, 64, 60
1, 55541, Control_c, 0, 64, 62
1, 55566, Control_c, 0, 64, 66
1, 55586, Control_c, 0, 64, 69
1, 55604, Control_c, 0, 64, 74
1, 55623, Control_c, 0, 64, 80
1, 55642, Control_c, 0, 64, 87
1, 55660, Control_c, 0, 64, 94
1, 55679, Control_c, 0, 64, 101
1, 55697, Control_c, 0, 64, 107
1, 55717, Control_c, 0, 64, 113
1, 55735, Control_c, 0, 64, 118
1, 55752, Control_c, 0, 64, 123
1, 55770, Control_c, 0, 64, 127
1, 56106, Control_c, 0, 64, 123
1, 56124, Control_c, 0, 64, 118
1, 56144, Control_c, 0, 64, 111
1, 56159, Note_on_c, 0, 71, 50
1, 56162, Control_c, 0, 64, 101
1, 56177, Note_off_c, 0, 69, 0
1, 56178, Control_c, 0, 64, 87
1, 56198, Control_c, 0, 64, 70
1, 56216, Control_c, 0, 64, 54
1, 56235, Control_c, 0, 64, 41
1, 56254, Control_c, 0, 64, 29
1, 56290, Note_off_c, 0, 71, 0
1, 56328, Control_c, 0, 64, 37
1, 56341, Note_on_c, 0, 72, 65
1, 56347, Control_c, 0, 64, 51
1, 56364, Control_c, 0, 64, 62
1, 56382, Control_c, 0, 64, 65
1, 56401, Control_c, 0, 64, 67
1, 56420, Control_c, 0, 64, 69
1, 56439, Control_c, 0, 64, 72
1, 56458, Control_c, 0, 64, 75
1, 56477, Control_c, 0, 64, 78
1, 56504, Control_c, 0, 64, 82
1, 56525, Control_c, 0, 64, 84
1, 56635, Control_c, 0, 64, 79
1, 56648, Note_off_c, 0, 54, 0
1, 56653, Control_c, 0, 64, 73
1, 56671, Control_c, 0, 64, 66
1, 56678, Note_on_c, 0, 71, 57
1, 56679, Note_on_c, 0, 55, 50
1, 56680, Note_off_c, 0, 72, 0
1, 56689, Control_c, 0, 64, 60
1, 56708, Control_c, 0, 64, 56
1, 56729, Control_c, 0, 64, 52
1, 56744, Control_c, 0, 64, 48
1, 56747, Note_off_c, 0, 57, 0
1, 56763, Control_c, 0, 64, 45
1, 56781, Control_c, 0, 64, 41
1, 56873, Note_off_c, 0, 62, 0
1, 56997, Note_on_c, 0, 69, 60
1, 57017, Note_off_c, 0, 71, 0
1, 57279, Note_off_c, 0, 69, 0
1, 57300, Note_on_c, 0, 67, 63
1, 57615, Note_on_c, 0, 66, 70
1, 57645, Note_off_c, 0, 67, 0
1, 57999, Note_off_c, 0, 66, 0
1, 57999, Note_on_c, 0, 64, 58
1, 58032, Note_on_c, 0, 59, 41
1, 58294, Control_c, 0, 64, 47
1, 58312, Control_c, 0, 64, 53
1, 58331, Control_c, 0, 64, 59
1, 58350, Control_c, 0, 64, 63
1, 58376, Control_c, 0, 64, 66
1, 58395, Control_c, 0, 64, 69
1, 58414, Control_c, 0, 64, 72
1, 58433, Control_c, 0, 64, 75
1, 58451, Control_c, 0, 64, 78
1, 58471, Control_c, 0, 64, 82
1, 58488, Control_c, 0, 64, 85
1, 58508, Control_c, 0, 64, 87
1, 58636, Control_c, 0, 64, 85
1, 58655, Control_c, 0, 64, 80
1, 58665, Note_off_c, 0, 64, 0
1, 58673, Control_c, 0, 64, 72
1, 58693, Control_c, 0, 64, 62
1, 58711, Control_c, 0, 64, 52
1, 58721, Note_on_c, 0, 74, 62
1, 58729, Control_c, 0, 64, 38
1, 58749, Control_c, 0, 64, 23
1, 58768, Control_c, 0, 64, 13
1, 58840, Control_c, 0, 64, 26
1, 58859, Control_c, 0, 64, 39
1, 58878, Control_c, 0, 64, 52
1, 58897, Control_c, 0, 64, 62
1, 58915, Control_c, 0, 64, 67
1, 58934, Control_c, 0, 64, 70
1, 58953, Control_c, 0, 64, 74
1, 58971, Control_c, 0, 64, 77
1, 58989, Control_c, 0, 64, 79
1, 58996, Note_off_c, 0, 74, 0
1, 59026, Control_c, 0, 64, 77
1, 59044, Control_c, 0, 64, 70
1, 59064, Control_c, 0, 64, 59
1, 59074, Note_on_c, 0, 73, 61
1, 59083, Control_c, 0, 64, 46
1, 59101, Control_c, 0, 64, 31
1, 59120, Control_c, 0, 64, 24
1, 59175, Control_c, 0, 64, 28
1, 59192, Control_c, 0, 64, 37
1, 59210, Control_c, 0, 64, 49
1, 59230, Control_c, 0, 64, 61
1, 59248, Control_c, 0, 64, 66
1, 59267, Control_c, 0, 64, 68
1, 59314, Control_c, 0, 64, 70
1, 59351, Control_c, 0, 64, 72
1, 59411, Note_off_c, 0, 59, 0
1, 59443, Control_c, 0, 64, 70
1, 59450, Note_on_c, 0, 64, 54
1, 59462, Control_c, 0, 64, 68
1, 59481, Control_c, 0, 64, 65
1, 59499, Control_c, 0, 64, 61
1, 59519, Control_c, 0, 64, 56
1, 59537, Control_c, 0, 64, 51
1, 59555, Control_c, 0, 64, 45
1, 59572, Control_c, 0, 64, 35
1, 59592, Control_c, 0, 64, 23
1, 59611, Control_c, 0, 64, 11
1, 59780, Control_c, 0, 64, 21
1, 59795, Control_c, 0, 64, 30
1, 59815, Control_c, 0, 64, 40
1, 59833, Control_c, 0, 64, 49
1, 59852, Control_c, 0, 64, 56
1, 59870, Control_c, 0, 64, 60
1, 59889, Control_c, 0, 64, 62
1, 59907, Control_c, 0, 64, 66
1, 59926, Control_c, 0, 64, 69
1, 59945, Control_c, 0, 64, 72
1, 59964, Control_c, 0, 64, 75
1, 59980, Control_c, 0, 64, 79
1, 59999, Control_c, 0, 64, 83
1, 60018, Control_c, 0, 64, 87
1, 60055, Control_c, 0, 64, 94
1, 60093, Control_c, 0, 64, 100
1, 60130, Control_c, 0, 64, 105
1, 60202, Control_c, 0, 64, 109
1, 60344, Control_c, 0, 64, 98
1, 60354, Note_off_c, 0, 73, 0
1, 60359, Control_c, 0, 64, 84
1, 60379, Control_c, 0, 64, 65
1, 60390, Note_on_c, 0, 74, 62
1, 60398, Control_c, 0, 64, 46
1, 60417, Control_c, 0, 64, 29
1, 60437, Control_c, 0, 64, 17
1, 60510, Control_c, 0, 64, 29
1, 60528, Control_c, 0, 64, 42
1, 60548, Control_c, 0, 64, 57
1, 60565, Control_c, 0, 64, 67
1, 60570, Note_off_c, 0, 74, 0
1, 60577, Note_on_c, 0, 76, 74
1, 60584, Control_c, 0, 64, 71
1, 60602, Control_c, 0, 64, 75
1, 60621, Control_c, 0, 64, 80
1, 60639, Control_c, 0, 64, 86
1, 60646, Note_off_c, 0, 55, 0
1, 60658, Control_c, 0, 64, 92
1, 60677, Control_c, 0, 64, 98
1, 60684, Note_off_c, 0, 64, 0
1, 60696, Control_c, 0, 64, 104
1, 60715, Control_c, 0, 64, 109
1, 60733, Control_c, 0, 64, 113
1, 60753, Control_c, 0, 64, 119
1, 60770, Control_c, 0, 64, 124
1, 60899, Control_c, 0, 64, 118
1, 60918, Control_c, 0, 64, 107
1, 60937, Control_c, 0, 64, 96
1, 60942, Note_on_c, 0, 66, 67
1, 60952, Note_on_c, 0, 74, 65
1, 60955, Control_c, 0, 64, 84
1, 60973, Control_c, 0, 64, 74
1, 60981, Note_on_c, 0, 57, 46
1, 60991, Control_c, 0, 64, 64
1, 61000, Note_off_c, 0, 76, 0
1, 61010, Control_c, 0, 64, 57
1, 61028, Control_c, 0, 64, 52
1, 61047, Control_c, 0, 64, 47
1, 61065, Control_c, 0, 64, 41
1, 61085, Control_c, 0, 64, 35
1, 61103, Control_c, 0, 64, 31
1, 61263, Note_on_c, 0, 73, 67
1, 61288, Note_off_c, 0, 74, 0
1, 61594, Note_on_c, 0, 71, 66
1, 61617, Note_off_c, 0, 73, 0
1, 61816, Control_c, 0, 64, 36
1, 61836, Control_c, 0, 64, 42
1, 61853, Control_c, 0, 64, 52
1, 61873, Control_c, 0, 64, 60
1, 61881, Note_off_c, 0, 71, 0
1, 61892, Control_c, 0, 64, 64
1, 61902, Note_on_c, 0, 69, 71
1, 61910, Control_c, 0, 64, 68
1, 61929, Control_c, 0, 64, 70
1, 61947, Control_c, 0, 64, 74
1, 61966, Control_c, 0, 64, 77
1, 61983, Control_c, 0, 64, 81
1, 62002, Control_c, 0, 64, 86
1, 62021, Control_c, 0, 64, 90
1, 62039, Control_c, 0, 64, 95
1, 62076, Control_c, 0, 64, 101
1, 62123, Control_c, 0, 64, 105
1, 62151, Note_off_c, 0, 66, 0
1, 62290, Control_c, 0, 64, 97
1, 62309, Control_c, 0, 64, 91
1, 62314, Note_off_c, 0, 69, 0
1, 62327, Control_c, 0, 64, 84
1, 62329, Note_on_c, 0, 79, 70
1, 62343, Note_on_c, 0, 64, 52
1, 62346, Control_c, 0, 64, 75
1, 62366, Control_c, 0, 64, 66
1, 62384, Control_c, 0, 64, 58
1, 62402, Control_c, 0, 64, 50
1, 62421, Control_c, 0, 64, 39
1, 62437, Control_c, 0, 64, 24
1, 62456, Control_c, 0, 64, 13
1, 62568, Control_c, 0, 64, 23
1, 62589, Control_c, 0, 64, 35
1, 62604, Control_c, 0, 64, 49
1, 62624, Control_c, 0, 64, 62
1, 62641, Control_c, 0, 64, 66
1, 62661, Control_c, 0, 64, 68
1, 62679, Control_c, 0, 64, 71
1, 62699, Control_c, 0, 64, 75
1, 62717, Control_c, 0, 64, 80
1, 62736, Control_c, 0, 64, 85
1, 62755, Control_c, 0, 64, 90
1, 62772, Control_c, 0, 64, 94
1, 62808, Control_c, 0, 64, 99
1, 62833, Note_off_c, 0, 79, 0
1, 62994, Control_c, 0, 64, 92
1, 63012, Control_c, 0, 64, 84
1, 63041, Control_c, 0, 64, 75
1, 63053, Note_on_c, 0, 71, 66
1, 63060, Control_c, 0, 64, 66
1, 63078, Control_c, 0, 64, 60
1, 63097, Control_c, 0, 64, 55
1, 63115, Control_c, 0, 64, 49
1, 63135, Control_c, 0, 64, 42
1, 63153, Control_c, 0, 64, 36
1, 63172, Control_c, 0, 64, 31
1, 63376, Note_on_c, 0, 66, 56
1, 63406, Note_off_c, 0, 64, 0
1, 63779, Note_off_c, 0, 66, 0
1, 63799, Note_on_c, 0, 67, 57
1, 64514, Note_on_c, 0, 73, 62
1, 64515, Note_off_c, 0, 71, 0
1, 64757, Control_c, 0, 64, 37
1, 64776, Control_c, 0, 64, 46
1, 64794, Control_c, 0, 64, 56
1, 64813, Control_c, 0, 64, 61
1, 64833, Control_c, 0, 64, 64
1, 64849, Control_c, 0, 64, 66
1, 64868, Control_c, 0, 64, 69
1, 64887, Control_c, 0, 64, 72
1, 64915, Control_c, 0, 64, 76
1, 64925, Note_off_c, 0, 73, 0
1, 64932, Control_c, 0, 64, 82
1, 64953, Control_c, 0, 64, 89
1, 64970, Control_c, 0, 64, 98
1, 64989, Control_c, 0, 64, 108
1, 65008, Control_c, 0, 64, 118
1, 65026, Control_c, 0, 64, 127
1, 65485, Note_on_c, 0, 73, 54
1, 65514, Note_on_c, 0, 50, 38
1, 65583, Control_c, 0, 64, 118
1, 65601, Control_c, 0, 64, 109
1, 65621, Control_c, 0, 64, 98
1, 65639, Control_c, 0, 64, 88
1, 65648, Note_off_c, 0, 57, 0
1, 65655, Control_c, 0, 64, 77
1, 65674, Control_c, 0, 64, 66
1, 65693, Control_c, 0, 64, 58
1, 65712, Control_c, 0, 64, 53
1, 65731, Control_c, 0, 64, 49
1, 65749, Control_c, 0, 64, 43
1, 65769, Control_c, 0, 64, 38
1, 65805, Control_c, 0, 64, 33
1, 65941, Note_on_c, 0, 74, 46
1, 65955, Note_off_c, 0, 73, 0
1, 66019, Control_c, 0, 67, 66
1, 66424, Note_off_c, 0, 74, 0
1, 66453, Note_on_c, 0, 76, 47
1, 66575, Control_c, 0, 64, 39
1, 66594, Control_c, 0, 64, 45
1, 66614, Control_c, 0, 64, 52
1, 66618, Note_on_c, 0, 74, 50
1, 66619, Note_off_c, 0, 76, 0
1, 66631, Control_c, 0, 64, 57
1, 66649, Control_c, 0, 64, 60
1, 66667, Control_c, 0, 64, 63
1, 66686, Control_c, 0, 64, 66
1, 66705, Control_c, 0, 64, 70
1, 66722, Control_c, 0, 64, 73
1, 66743, Control_c, 0, 64, 77
1, 66755, Note_off_c, 0, 74, 0
1, 66760, Control_c, 0, 64, 81
1, 66788, Control_c, 0, 64, 85
1, 66791, Note_on_c, 0, 73, 53
1, 66825, Control_c, 0, 64, 92
1, 66843, Note_off_c, 0, 73, 0
1, 66861, Control_c, 0, 64, 99
1, 66898, Control_c, 0, 64, 106
1, 66937, Control_c, 0, 64, 111
1, 66992, Control_c, 0, 64, 106
1, 67012, Control_c, 0, 64, 95
1, 67025, Note_on_c, 0, 73, 48
1, 67029, Control_c, 0, 64, 77
1, 67048, Control_c, 0, 64, 57
1, 67068, Control_c, 0, 64, 42
1, 67086, Control_c, 0, 64, 37
1, 67122, Control_c, 0, 64, 42
1, 67131, Note_off_c, 0, 67, 0
1, 67140, Control_c, 0, 64, 52
1, 67159, Control_c, 0, 64, 63
1, 67177, Control_c, 0, 64, 70
1, 67196, Control_c, 0, 64, 74
1, 67215, Control_c, 0, 64, 80
1, 67233, Control_c, 0, 64, 86
1, 67252, Control_c, 0, 64, 92
1, 67271, Control_c, 0, 64, 96
1, 67306, Control_c, 0, 64, 100
1, 67390, Note_on_c, 0, 66, 42
1, 67761, Control_c, 0, 64, 95
1, 67799, Control_c, 0, 64, 86
1, 67808, Note_off_c, 0, 73, 0
1, 67817, Control_c, 0, 64, 76
1, 67824, Note_on_c, 0, 74, 39
1, 67835, Note_on_c, 0, 57, 26
1, 67836, Control_c, 0, 64, 64
1, 67855, Control_c, 0, 64, 52
1, 67874, Control_c, 0, 64, 40
1, 67892, Control_c, 0, 64, 24
1, 67909, Control_c, 0, 64, 15
1, 68004, Control_c, 0, 64, 23
1, 68022, Control_c, 0, 64, 30
1, 68039, Control_c, 0, 64, 42
1, 68059, Control_c, 0, 64, 54
1, 68079, Control_c, 0, 64, 63
1, 68095, Control_c, 0, 64, 66
1, 68113, Control_c, 0, 64, 69
1, 68132, Control_c, 0, 64, 72
1, 68151, Control_c, 0, 64, 76
1, 68169, Control_c, 0, 64, 82
1, 68188, Control_c, 0, 64, 88
1, 68206, Control_c, 0, 64, 93
1, 68226, Control_c, 0, 64, 98
1, 68243, Control_c, 0, 64, 102
1, 68268, Poly_aftertouch_c, 0, 57, 24
1, 68286, Note_off_c, 0, 57, 0
1, 68634, Control_c, 0, 64, 97
1, 68662, Control_c, 0, 64, 93
1, 68681, Control_c, 0, 64, 85
1, 68700, Control_c, 0, 64, 76
1, 68714, Control_c, 0, 64, 67
1, 68717, Note_on_c, 0, 62, 26
1, 68735, Control_c, 0, 64, 61
1, 68754, Control_c, 0, 64, 57
1, 68772, Control_c, 0, 64, 52
1, 68791, Control_c, 0, 64, 46
1, 68811, Control_c, 0, 64, 39
1, 68828, Control_c, 0, 64, 31
1, 68847, Control_c, 0, 64, 25
1, 69071, Control_c, 0, 64, 29
1, 69087, Control_c, 0, 64, 35
1, 69105, Control_c, 0, 64, 43
1, 69124, Control_c, 0, 64, 52
1, 69143, Control_c, 0, 64, 58
1, 69162, Control_c, 0, 64, 60
1, 69180, Control_c, 0, 64, 62
1, 69199, Control_c, 0, 64, 63
1, 69218, Control_c, 0, 64, 66
1, 69237, Control_c, 0, 64, 69
1, 69255, Control_c, 0, 64, 71
1, 69257, Control_c, 0, 67, 62
1, 69274, Control_c, 0, 64, 73
1, 69293, Control_c, 0, 64, 76
1, 69310, Control_c, 0, 64, 79
1, 69330, Control_c, 0, 64, 83
1, 69348, Control_c, 0, 64, 87
1, 69366, Control_c, 0, 64, 91
1, 69384, Control_c, 0, 64, 95
1, 69403, Control_c, 0, 64, 99
1, 69441, Control_c, 0, 64, 105
1, 69478, Control_c, 0, 64, 109
1, 69872, Note_off_c, 0, 50, 0
1, 69905, Note_off_c, 0, 66, 0
1, 69938, Note_off_c, 0, 74, 0
1, 70026, Note_off_c, 0, 62, 0
1, 70396, Control_c, 0, 64, 105
1, 70433, Control_c, 0, 64, 100
1, 70470, Control_c, 0, 64, 95
1, 70534, Control_c, 0, 64, 89
1, 70553, Control_c, 0, 64, 84
1, 70572, Control_c, 0, 64, 79
1, 70590, Control_c, 0, 64, 74
1, 70608, Control_c, 0, 64, 70
1, 70627, Control_c, 0, 64, 67
1, 70646, Control_c, 0, 64, 63
1, 70661, Note_on_c, 0, 62, 52
1, 70665, Control_c, 0, 64, 59
1, 70684, Control_c, 0, 64, 56
1, 70701, Control_c, 0, 64, 54
1, 70720, Control_c, 0, 64, 52
1, 70757, Control_c, 0, 64, 49
1, 70832, Note_on_c, 0, 69, 65
1, 70959, Note_off_c, 0, 69, 0
1, 70963, Note_on_c, 0, 67, 65
1, 71104, Note_on_c, 0, 69, 74
1, 71112, Note_off_c, 0, 67, 0
1, 71373, Note_on_c, 0, 64, 63
1, 71526, Control_c, 0, 64, 52
1, 71545, Control_c, 0, 64, 55
1, 71562, Control_c, 0, 64, 59
1, 71583, Control_c, 0, 64, 63
1, 71600, Control_c, 0, 64, 65
1, 71620, Control_c, 0, 64, 68
1, 71637, Control_c, 0, 64, 72
1, 71657, Control_c, 0, 64, 76
1, 71675, Control_c, 0, 64, 82
1, 71694, Control_c, 0, 64, 89
1, 71710, Control_c, 0, 64, 94
1, 71723, Note_off_c, 0, 64, 0
1, 71729, Control_c, 0, 64, 99
1, 71767, Control_c, 0, 64, 106
1, 71805, Control_c, 0, 64, 113
1, 71898, Control_c, 0, 64, 117
1, 72033, Note_on_c, 0, 71, 68
1, 72044, Note_on_c, 0, 66, 49
1, 72056, Note_off_c, 0, 69, 0
1, 72104, Control_c, 0, 64, 112
1, 72121, Control_c, 0, 64, 106
1, 72139, Control_c, 0, 64, 99
1, 72149, Note_off_c, 0, 66, 0
1, 72156, Control_c, 0, 64, 90
1, 72163, Note_on_c, 0, 64, 57
1, 72176, Control_c, 0, 64, 80
1, 72195, Control_c, 0, 64, 70
1, 72212, Control_c, 0, 64, 64
1, 72232, Control_c, 0, 64, 61
1, 72249, Control_c, 0, 64, 58
1, 72269, Control_c, 0, 64, 56
1, 72294, Note_on_c, 0, 66, 57
1, 72307, Control_c, 0, 64, 53
1, 72324, Note_off_c, 0, 64, 0
1, 72360, Note_off_c, 0, 71, 0
1, 72360, Control_c, 0, 64, 51
1, 72365, Note_on_c, 0, 69, 66
1, 72516, Note_off_c, 0, 69, 0
1, 72532, Note_on_c, 0, 67, 61
1, 72649, Note_off_c, 0, 67, 0
1, 72660, Note_on_c, 0, 69, 71
1, 72783, Note_off_c, 0, 69, 0
1, 72795, Note_on_c, 0, 71, 65
1, 72853, Control_c, 0, 64, 54
1, 72873, Control_c, 0, 64, 57
1, 72881, Note_off_c, 0, 71, 0
1, 72890, Control_c, 0, 64, 60
1, 72893, Note_on_c, 0, 69, 68
1, 72909, Control_c, 0, 64, 63
1, 72927, Control_c, 0, 64, 67
1, 72946, Control_c, 0, 64, 69
1, 72963, Control_c, 0, 64, 71
1, 72965, Note_off_c, 0, 69, 0
1, 72981, Note_on_c, 0, 71, 64
1, 72982, Control_c, 0, 64, 73
1, 73046, Note_off_c, 0, 71, 0
1, 73056, Control_c, 0, 64, 68
1, 73067, Note_on_c, 0, 69, 65
1, 73075, Control_c, 0, 64, 63
1, 73095, Control_c, 0, 64, 57
1, 73112, Control_c, 0, 64, 52
1, 73132, Control_c, 0, 64, 48
1, 73145, Note_off_c, 0, 69, 0
1, 73146, Note_on_c, 0, 71, 69
1, 73150, Control_c, 0, 64, 45
1, 73185, Control_c, 0, 64, 42
1, 73223, Note_off_c, 0, 71, 0
1, 73236, Note_on_c, 0, 69, 53
1, 73289, Note_on_c, 0, 71, 62
1, 73294, Note_off_c, 0, 69, 0
1, 73394, Note_off_c, 0, 71, 0
1, 73398, Note_on_c, 0, 69, 53
1, 73546, Control_c, 0, 64, 47
1, 73550, Note_on_c, 0, 60, 55
1, 73557, Note_off_c, 0, 62, 0
1, 73566, Control_c, 0, 64, 53
1, 73585, Control_c, 0, 64, 60
1, 73603, Control_c, 0, 64, 64
1, 73623, Control_c, 0, 64, 67
1, 73641, Control_c, 0, 64, 70
1, 73660, Control_c, 0, 64, 74
1, 73678, Control_c, 0, 64, 78
1, 73698, Control_c, 0, 64, 83
1, 73714, Note_off_c, 0, 69, 0
1, 73715, Control_c, 0, 64, 87
1, 73753, Control_c, 0, 64, 94
1, 73869, Note_on_c, 0, 69, 67
1, 73938, Control_c, 0, 64, 89
1, 73956, Control_c, 0, 64, 82
1, 73974, Control_c, 0, 64, 74
1, 73992, Control_c, 0, 64, 66
1, 74011, Control_c, 0, 64, 61
1, 74031, Control_c, 0, 64, 58
1, 74034, Note_on_c, 0, 71, 73
1, 74045, Note_off_c, 0, 69, 0
1, 74048, Control_c, 0, 64, 54
1, 74067, Control_c, 0, 64, 50
1, 74087, Control_c, 0, 64, 47
1, 74107, Control_c, 0, 64, 44
1, 74123, Control_c, 0, 64, 41
1, 74178, Control_c, 0, 64, 37
1, 74188, Note_on_c, 0, 72, 71
1, 74204, Note_off_c, 0, 71, 0
1, 74332, Note_off_c, 0, 72, 0
1, 74336, Note_on_c, 0, 74, 74
1, 74535, Note_on_c, 0, 76, 71
1, 74536, Note_off_c, 0, 74, 0
1, 74596, Control_c, 0, 64, 42
1, 74615, Control_c, 0, 64, 48
1, 74633, Control_c, 0, 64, 55
1, 74653, Control_c, 0, 64, 61
1, 74670, Control_c, 0, 64, 64
1, 74689, Control_c, 0, 64, 68
1, 74707, Control_c, 0, 64, 70
1, 74726, Control_c, 0, 64, 73
1, 74745, Control_c, 0, 64, 76
1, 74764, Control_c, 0, 64, 78
1, 74780, Control_c, 0, 64, 81
1, 74799, Control_c, 0, 64, 83
1, 74818, Note_off_c, 0, 76, 0
1, 74837, Control_c, 0, 64, 85
1, 74983, Note_on_c, 0, 76, 66
1, 74984, Control_c, 0, 64, 82
1, 75000, Note_on_c, 0, 59, 48
1, 75002, Control_c, 0, 64, 78
1, 75023, Control_c, 0, 64, 72
1, 75041, Control_c, 0, 64, 67
1, 75059, Control_c, 0, 64, 63
1, 75063, Note_off_c, 0, 60, 0
1, 75078, Control_c, 0, 64, 60
1, 75097, Control_c, 0, 64, 57
1, 75116, Control_c, 0, 64, 52
1, 75134, Control_c, 0, 64, 47
1, 75151, Control_c, 0, 64, 42
1, 75173, Note_off_c, 0, 66, 0
1, 75189, Control_c, 0, 64, 37
1, 75254, Note_on_c, 0, 74, 65
1, 75293, Note_off_c, 0, 76, 0
1, 75714, Note_on_c, 0, 72, 55
1, 75719, Note_on_c, 0, 60, 41
1, 75725, Note_off_c, 0, 74, 0
1, 75939, Note_off_c, 0, 72, 0
1, 75955, Note_on_c, 0, 71, 52
1, 76070, Control_c, 0, 64, 42
1, 76090, Control_c, 0, 64, 47
1, 76108, Control_c, 0, 64, 55
1, 76127, Control_c, 0, 64, 60
1, 76154, Control_c, 0, 64, 63
1, 76173, Control_c, 0, 64, 66
1, 76192, Control_c, 0, 64, 69
1, 76209, Control_c, 0, 64, 72
1, 76228, Control_c, 0, 64, 75
1, 76246, Control_c, 0, 64, 78
1, 76265, Control_c, 0, 64, 82
1, 76284, Control_c, 0, 64, 84
1, 76321, Control_c, 0, 64, 87
1, 76411, Note_off_c, 0, 71, 0
1, 76421, Note_on_c, 0, 69, 50
1, 76432, Control_c, 0, 64, 84
1, 76444, Note_on_c, 0, 62, 37
1, 76451, Control_c, 0, 64, 79
1, 76469, Control_c, 0, 64, 73
1, 76471, Note_off_c, 0, 60, 0
1, 76488, Control_c, 0, 64, 65
1, 76507, Control_c, 0, 64, 59
1, 76525, Control_c, 0, 64, 55
1, 76544, Control_c, 0, 64, 52
1, 76563, Control_c, 0, 64, 48
1, 76579, Control_c, 0, 64, 44
1, 76598, Control_c, 0, 64, 41
1, 76636, Control_c, 0, 64, 37
1, 76813, Note_on_c, 0, 67, 48
1, 76878, Note_off_c, 0, 69, 0
1, 77153, Note_on_c, 0, 57, 44
1, 77197, Note_off_c, 0, 59, 0
1, 77791, Note_off_c, 0, 57, 0
1, 77822, Note_on_c, 0, 59, 41
1, 77982, Control_c, 0, 64, 33
1, 78436, Control_c, 0, 64, 37
1, 78566, Control_c, 0, 64, 40
1, 78605, Control_c, 0, 64, 43
1, 78632, Note_off_c, 0, 67, 0
1, 78638, Control_c, 0, 64, 45
1, 78641, Note_on_c, 0, 79, 74
1, 78676, Control_c, 0, 64, 47
1, 78695, Control_c, 0, 64, 49
1, 78713, Control_c, 0, 64, 52
1, 78732, Control_c, 0, 64, 54
1, 78770, Control_c, 0, 64, 58
1, 78788, Control_c, 0, 64, 60
1, 78808, Control_c, 0, 64, 63
1, 78823, Control_c, 0, 64, 67
1, 78843, Control_c, 0, 64, 72
1, 78860, Control_c, 0, 64, 77
1, 78880, Control_c, 0, 64, 84
1, 78882, Note_off_c, 0, 62, 0
1, 78899, Control_c, 0, 64, 92
1, 78903, Note_off_c, 0, 59, 0
1, 78919, Control_c, 0, 64, 101
1, 78936, Control_c, 0, 64, 111
1, 78964, Control_c, 0, 64, 124
1, 79401, Note_on_c, 0, 78, 72
1, 79415, Note_on_c, 0, 60, 56
1, 79427, Control_c, 0, 64, 117
1, 79445, Control_c, 0, 64, 109
1, 79459, Note_off_c, 0, 79, 0
1, 79463, Control_c, 0, 64, 100
1, 79483, Control_c, 0, 64, 90
1, 79502, Control_c, 0, 64, 81
1, 79520, Control_c, 0, 64, 72
1, 79539, Control_c, 0, 64, 65
1, 79557, Control_c, 0, 64, 60
1, 79577, Control_c, 0, 64, 56
1, 79595, Control_c, 0, 64, 52
1, 79614, Control_c, 0, 64, 48
1, 79631, Control_c, 0, 64, 44
1, 79650, Control_c, 0, 64, 41
1, 79705, Control_c, 0, 64, 37
1, 79779, Note_on_c, 0, 76, 72
1, 79815, Note_off_c, 0, 78, 0
1, 80080, Note_on_c, 0, 64, 56
1, 80277, Note_on_c, 0, 78, 72
1, 80296, Note_off_c, 0, 76, 0
1, 80345, Control_c, 0, 64, 42
1, 80365, Control_c, 0, 64, 45
1, 80381, Control_c, 0, 64, 51
1, 80400, Control_c, 0, 64, 58
1, 80418, Control_c, 0, 64, 63
1, 80438, Control_c, 0, 64, 66
1, 80456, Control_c, 0, 64, 70
1, 80468, Note_on_c, 0, 75, 76
1, 80474, Control_c, 0, 64, 74
1, 80495, Control_c, 0, 64, 79
1, 80509, Note_off_c, 0, 78, 0
1, 80511, Control_c, 0, 64, 85
1, 80530, Control_c, 0, 64, 92
1, 80550, Control_c, 0, 64, 98
1, 80568, Control_c, 0, 64, 106
1, 80587, Control_c, 0, 64, 113
1, 80605, Control_c, 0, 64, 122
1, 80625, Control_c, 0, 64, 127
1, 80631, Note_off_c, 0, 75, 0
1, 80735, Control_c, 0, 64, 118
1, 80754, Control_c, 0, 64, 102
1, 80760, Note_on_c, 0, 75, 69
1, 80772, Control_c, 0, 64, 83
1, 80778, Note_on_c, 0, 67, 46
1, 80791, Control_c, 0, 64, 65
1, 80810, Control_c, 0, 64, 50
1, 80836, Control_c, 0, 64, 39
1, 80854, Control_c, 0, 64, 33
1, 80873, Note_off_c, 0, 64, 0
1, 80911, Control_c, 0, 64, 38
1, 80930, Control_c, 0, 64, 49
1, 80949, Control_c, 0, 64, 62
1, 80967, Control_c, 0, 64, 68
1, 80986, Control_c, 0, 64, 71
1, 81004, Control_c, 0, 64, 74
1, 81022, Control_c, 0, 64, 77
1, 81039, Control_c, 0, 64, 82
1, 81059, Control_c, 0, 64, 87
1, 81078, Control_c, 0, 64, 91
1, 81113, Note_off_c, 0, 75, 0
1, 81114, Control_c, 0, 64, 97
1, 81192, Note_on_c, 0, 76, 59
1, 81249, Note_off_c, 0, 76, 0
1, 81262, Note_on_c, 0, 75, 70
1, 81351, Note_on_c, 0, 76, 65
1, 81352, Note_off_c, 0, 75, 0
1, 81412, Control_c, 0, 64, 93
1, 81433, Control_c, 0, 64, 87
1, 81440, Note_off_c, 0, 60, 0
1, 81448, Control_c, 0, 64, 80
1, 81467, Control_c, 0, 64, 71
1, 81483, Note_on_c, 0, 59, 53
1, 81486, Control_c, 0, 64, 63
1, 81504, Control_c, 0, 64, 56
1, 81523, Control_c, 0, 64, 48
1, 81542, Control_c, 0, 64, 36
1, 81561, Control_c, 0, 64, 15
1, 81579, Control_c, 0, 64, 0
1, 81670, Control_c, 0, 64, 8
1, 81690, Control_c, 0, 64, 23
1, 81708, Control_c, 0, 64, 41
1, 81727, Control_c, 0, 64, 59
1, 81745, Control_c, 0, 64, 69
1, 81773, Control_c, 0, 64, 75
1, 81792, Control_c, 0, 64, 80
1, 81811, Control_c, 0, 64, 87
1, 81829, Control_c, 0, 64, 94
1, 81846, Control_c, 0, 64, 101
1, 81866, Control_c, 0, 64, 108
1, 81884, Control_c, 0, 64, 115
1, 81903, Control_c, 0, 64, 120
1, 81941, Control_c, 0, 64, 125
1, 82104, Note_off_c, 0, 67, 0
1, 82182, Note_on_c, 0, 57, 55
1, 82185, Note_on_c, 0, 66, 50
1, 82219, Control_c, 0, 64, 113
1, 82238, Control_c, 0, 64, 100
1, 82249, Note_off_c, 0, 66, 0
1, 82249, Note_on_c, 0, 67, 60
1, 82253, Control_c, 0, 64, 83
1, 82262, Note_off_c, 0, 59, 0
1, 82274, Control_c, 0, 64, 65
1, 82292, Control_c, 0, 64, 49
1, 82312, Control_c, 0, 64, 38
1, 82329, Control_c, 0, 64, 25
1, 82340, Note_off_c, 0, 67, 0
1, 82348, Control_c, 0, 64, 16
1, 82367, Note_on_c, 0, 66, 57
1, 82440, Control_c, 0, 64, 26
1, 82459, Control_c, 0, 64, 36
1, 82477, Control_c, 0, 64, 49
1, 82497, Control_c, 0, 64, 62
1, 82515, Control_c, 0, 64, 68
1, 82534, Control_c, 0, 64, 72
1, 82552, Control_c, 0, 64, 77
1, 82571, Control_c, 0, 64, 83
1, 82590, Control_c, 0, 64, 91
1, 82608, Control_c, 0, 64, 99
1, 82626, Control_c, 0, 64, 106
1, 82644, Control_c, 0, 64, 113
1, 82663, Control_c, 0, 64, 118
1, 82706, Note_off_c, 0, 66, 0
1, 82708, Control_c, 0, 64, 122
1, 82860, Control_c, 0, 64, 117
1, 82878, Control_c, 0, 64, 109
1, 82894, Control_c, 0, 64, 101
1, 82895, Note_on_c, 0, 81, 68
1, 82904, Note_on_c, 0, 64, 55
1, 82912, Note_off_c, 0, 76, 0
1, 82913, Control_c, 0, 64, 92
1, 82933, Control_c, 0, 64, 79
1, 82952, Control_c, 0, 64, 65
1, 82970, Control_c, 0, 64, 54
1, 82988, Control_c, 0, 64, 46
1, 83007, Control_c, 0, 64, 36
1, 83026, Control_c, 0, 64, 28
1, 83044, Control_c, 0, 64, 23
1, 83053, Note_on_c, 0, 83, 75
1, 83067, Note_off_c, 0, 81, 0
1, 83155, Control_c, 0, 64, 29
1, 83174, Control_c, 0, 64, 37
1, 83192, Control_c, 0, 64, 49
1, 83211, Control_c, 0, 64, 61
1, 83217, Note_on_c, 0, 81, 75
1, 83230, Control_c, 0, 64, 65
1, 83246, Note_off_c, 0, 83, 0
1, 83248, Control_c, 0, 64, 67
1, 83265, Control_c, 0, 64, 69
1, 83284, Control_c, 0, 64, 73
1, 83303, Control_c, 0, 64, 77
1, 83321, Control_c, 0, 64, 81
1, 83340, Control_c, 0, 64, 85
1, 83365, Note_off_c, 0, 81, 0
1, 83370, Note_on_c, 0, 79, 80
1, 83376, Control_c, 0, 64, 90
1, 83460, Note_off_c, 0, 79, 0
1, 83611, Note_on_c, 0, 79, 69
1, 83617, Control_c, 0, 64, 87
1, 83619, Note_off_c, 0, 57, 0
1, 83645, Note_on_c, 0, 59, 45
1, 83646, Control_c, 0, 64, 83
1, 83652, Note_on_c, 0, 63, 50
1, 83666, Control_c, 0, 64, 76
1, 83685, Control_c, 0, 64, 67
1, 83701, Control_c, 0, 64, 61
1, 83720, Control_c, 0, 64, 57
1, 83739, Control_c, 0, 64, 53
1, 83750, Note_off_c, 0, 64, 0
1, 83759, Control_c, 0, 64, 49
1, 83777, Control_c, 0, 64, 44
1, 83795, Control_c, 0, 64, 39
1, 83815, Control_c, 0, 64, 35
1, 83853, Control_c, 0, 64, 31
1, 83958, Note_on_c, 0, 81, 71
1, 83992, Note_off_c, 0, 79, 0
1, 84291, Note_on_c, 0, 64, 54
1, 84305, Note_off_c, 0, 63, 0
1, 84555, Control_c, 0, 64, 37
1, 84583, Control_c, 0, 64, 44
1, 84602, Note_on_c, 0, 78, 72
1, 84602, Control_c, 0, 64, 54
1, 84621, Control_c, 0, 64, 62
1, 84639, Control_c, 0, 64, 65
1, 84640, Note_off_c, 0, 81, 0
1, 84659, Control_c, 0, 64, 68
1, 84677, Control_c, 0, 64, 72
1, 84695, Control_c, 0, 64, 77
1, 84712, Control_c, 0, 64, 83
1, 84732, Control_c, 0, 64, 91
1, 84750, Control_c, 0, 64, 100
1, 84769, Control_c, 0, 64, 108
1, 84787, Control_c, 0, 64, 116
1, 84806, Control_c, 0, 64, 122
1, 84819, Note_off_c, 0, 78, 0
1, 84824, Control_c, 0, 64, 127
1, 85030, Note_on_c, 0, 76, 65
1, 85047, Control_c, 0, 64, 110
1, 85063, Note_on_c, 0, 66, 47
1, 85064, Control_c, 0, 64, 89
1, 85083, Control_c, 0, 64, 66
1, 85094, Note_off_c, 0, 64, 0
1, 85101, Control_c, 0, 64, 43
1, 85120, Control_c, 0, 64, 14
1, 85139, Control_c, 0, 64, 0
1, 85215, Control_c, 0, 64, 14
1, 85233, Control_c, 0, 64, 26
1, 85251, Control_c, 0, 64, 39
1, 85272, Control_c, 0, 64, 50
1, 85289, Control_c, 0, 64, 58
1, 85308, Control_c, 0, 64, 61
1, 85324, Control_c, 0, 64, 63
1, 85343, Control_c, 0, 64, 66
1, 85358, Note_off_c, 0, 76, 0
1, 85361, Control_c, 0, 64, 69
1, 85380, Control_c, 0, 64, 73
1, 85394, Note_on_c, 0, 75, 59
1, 85399, Control_c, 0, 64, 77
1, 85418, Control_c, 0, 64, 81
1, 85438, Control_c, 0, 64, 85
1, 85456, Control_c, 0, 64, 87
1, 85475, Note_off_c, 0, 75, 0
1, 85492, Note_on_c, 0, 76, 65
1, 85546, Note_off_c, 0, 59, 0
1, 85585, Note_on_c, 0, 75, 66
1, 85593, Control_c, 0, 64, 91
1, 85626, Note_off_c, 0, 76, 0
1, 85782, Note_on_c, 0, 57, 62
1, 85799, Control_c, 0, 64, 86
1, 85818, Control_c, 0, 64, 80
1, 85836, Control_c, 0, 64, 72
1, 85854, Control_c, 0, 64, 63
1, 85873, Control_c, 0, 64, 53
1, 85890, Control_c, 0, 64, 41
1, 85910, Control_c, 0, 64, 23
1, 86002, Control_c, 0, 64, 16
1, 86020, Control_c, 0, 64, 29
1, 86040, Control_c, 0, 64, 45
1, 86058, Control_c, 0, 64, 60
1, 86077, Control_c, 0, 64, 68
1, 86096, Control_c, 0, 64, 71
1, 86114, Control_c, 0, 64, 74
1, 86131, Control_c, 0, 64, 79
1, 86143, Note_off_c, 0, 57, 0
1, 86148, Control_c, 0, 64, 85
1, 86169, Control_c, 0, 64, 91
1, 86187, Control_c, 0, 64, 96
1, 86206, Control_c, 0, 64, 100
1, 86261, Control_c, 0, 64, 104
1, 86477, Note_on_c, 0, 55, 60
1, 86494, Control_c, 0, 64, 100
1, 86512, Control_c, 0, 64, 96
1, 86530, Control_c, 0, 64, 90
1, 86537, Note_off_c, 0, 55, 0
1, 86549, Control_c, 0, 64, 81
1, 86567, Control_c, 0, 64, 69
1, 86569, Note_on_c, 0, 57, 68
1, 86586, Control_c, 0, 64, 58
1, 86606, Control_c, 0, 64, 51
1, 86624, Control_c, 0, 64, 43
1, 86642, Control_c, 0, 64, 33
1, 86662, Control_c, 0, 64, 25
1, 86671, Note_on_c, 0, 55, 68
1, 86675, Note_off_c, 0, 57, 0
1, 86681, Control_c, 0, 64, 20
1, 86772, Control_c, 0, 64, 26
1, 86789, Control_c, 0, 64, 33
1, 86809, Control_c, 0, 64, 44
1, 86828, Control_c, 0, 64, 56
1, 86846, Control_c, 0, 64, 62
1, 86865, Control_c, 0, 64, 64
1, 86882, Control_c, 0, 64, 67
1, 86901, Control_c, 0, 64, 69
1, 86919, Control_c, 0, 64, 73
1, 86938, Control_c, 0, 64, 77
1, 86957, Control_c, 0, 64, 82
1, 86977, Control_c, 0, 64, 85
1, 86995, Control_c, 0, 64, 87
1, 87033, Control_c, 0, 64, 91
1, 87100, Note_off_c, 0, 66, 0
1, 87123, Control_c, 0, 64, 95
1, 87266, Note_on_c, 0, 71, 68
1, 87284, Note_on_c, 0, 54, 56
1, 87290, Control_c, 0, 64, 91
1, 87304, Note_off_c, 0, 55, 0
1, 87304, Note_off_c, 0, 75, 0
1, 87308, Control_c, 0, 64, 86
1, 87328, Control_c, 0, 64, 79
1, 87347, Control_c, 0, 64, 69
1, 87374, Control_c, 0, 64, 58
1, 87393, Control_c, 0, 64, 49
1, 87413, Control_c, 0, 64, 38
1, 87430, Control_c, 0, 64, 26
1, 87449, Control_c, 0, 64, 17
1, 87522, Control_c, 0, 64, 23
1, 87541, Control_c, 0, 64, 32
1, 87560, Control_c, 0, 64, 43
1, 87578, Control_c, 0, 64, 56
1, 87597, Control_c, 0, 64, 64
1, 87616, Control_c, 0, 64, 68
1, 87635, Control_c, 0, 64, 71
1, 87653, Control_c, 0, 64, 74
1, 87671, Control_c, 0, 64, 78
1, 87689, Control_c, 0, 64, 83
1, 87708, Control_c, 0, 64, 89
1, 87726, Control_c, 0, 64, 94
1, 87764, Control_c, 0, 64, 99
1, 88024, Control_c, 0, 64, 94
1, 88042, Control_c, 0, 64, 88
1, 88059, Note_on_c, 0, 76, 66
1, 88060, Note_on_c, 0, 52, 58
1, 88061, Control_c, 0, 64, 80
1, 88075, Note_off_c, 0, 54, 0
1, 88079, Control_c, 0, 64, 71
1, 88093, Note_off_c, 0, 71, 0
1, 88097, Control_c, 0, 64, 64
1, 88116, Control_c, 0, 64, 60
1, 88134, Control_c, 0, 64, 57
1, 88154, Control_c, 0, 64, 53
1, 88172, Control_c, 0, 64, 49
1, 88191, Control_c, 0, 64, 44
1, 88211, Control_c, 0, 64, 39
1, 88232, Note_off_c, 0, 76, 0
1, 88240, Note_on_c, 0, 78, 73
1, 88245, Control_c, 0, 64, 35
1, 88389, Note_off_c, 0, 78, 0
1, 88425, Note_on_c, 0, 79, 79
1, 88769, Note_on_c, 0, 57, 66
1, 88997, Control_c, 0, 64, 43
1, 89015, Control_c, 0, 64, 51
1, 89035, Control_c, 0, 64, 58
1, 89052, Note_on_c, 0, 78, 76
1, 89052, Control_c, 0, 64, 62
1, 89071, Control_c, 0, 64, 65
1, 89091, Note_off_c, 0, 79, 0
1, 89091, Control_c, 0, 64, 69
1, 89110, Control_c, 0, 64, 73
1, 89127, Control_c, 0, 64, 78
1, 89144, Control_c, 0, 64, 85
1, 89165, Control_c, 0, 64, 91
1, 89182, Control_c, 0, 64, 98
1, 89201, Control_c, 0, 64, 103
1, 89216, Note_off_c, 0, 57, 0
1, 89219, Control_c, 0, 64, 107
1, 89267, Control_c, 0, 64, 113
1, 89303, Control_c, 0, 64, 119
1, 89326, Note_off_c, 0, 78, 0
1, 89403, Note_on_c, 0, 55, 57
1, 89420, Note_on_c, 0, 78, 73
1, 89436, Note_off_c, 0, 52, 0
1, 89451, Control_c, 0, 64, 112
1, 89471, Control_c, 0, 64, 103
1, 89477, Note_off_c, 0, 55, 0
1, 89488, Control_c, 0, 64, 92
1, 89491, Note_on_c, 0, 57, 64
1, 89507, Control_c, 0, 64, 81
1, 89526, Control_c, 0, 64, 70
1, 89544, Control_c, 0, 64, 63
1, 89563, Control_c, 0, 64, 59
1, 89577, Note_off_c, 0, 57, 0
1, 89580, Note_on_c, 0, 55, 62
1, 89581, Control_c, 0, 64, 55
1, 89599, Control_c, 0, 64, 52
1, 89619, Control_c, 0, 64, 48
1, 89638, Control_c, 0, 64, 43
1, 89656, Control_c, 0, 64, 39
1, 89858, Note_on_c, 0, 76, 70
1, 89862, Note_off_c, 0, 78, 0
1, 90164, Note_on_c, 0, 54, 62
1, 90198, Note_off_c, 0, 55, 0
1, 90868, Note_on_c, 0, 55, 52
1, 90879, Note_off_c, 0, 54, 0
1, 90892, Note_on_c, 0, 50, 44
1, 90959, Poly_aftertouch_c, 0, 52, 0
1, 91222, Note_off_c, 0, 76, 0
1, 91223, Note_on_c, 0, 71, 63
1, 91540, Note_off_c, 0, 71, 0
1, 91551, Note_on_c, 0, 72, 70
1, 91709, Note_on_c, 0, 71, 64
1, 91713, Note_off_c, 0, 72, 0
1, 91881, Note_off_c, 0, 71, 0
1, 91891, Note_on_c, 0, 69, 66
1, 92036, Note_off_c, 0, 69, 0
1, 92137, Note_on_c, 0, 71, 64
1, 92420, Note_off_c, 0, 71, 0
1, 92457, Note_on_c, 0, 79, 61
1, 92478, Note_on_c, 0, 48, 43
1, 92582, Note_off_c, 0, 50, 0
1, 92693, Note_off_c, 0, 79, 0
1, 92712, Note_on_c, 0, 76, 53
1, 92860, Control_c, 0, 64, 42
1, 92879, Control_c, 0, 64, 48
1, 92898, Control_c, 0, 64, 55
1, 92916, Control_c, 0, 64, 61
1, 92935, Control_c, 0, 64, 64
1, 92954, Control_c, 0, 64, 67
1, 92973, Control_c, 0, 64, 70
1, 92999, Control_c, 0, 64, 73
1, 93017, Control_c, 0, 64, 77
1, 93037, Control_c, 0, 64, 81
1, 93055, Control_c, 0, 64, 85
1, 93074, Control_c, 0, 64, 88
1, 93149, Control_c, 0, 64, 83
1, 93155, Note_off_c, 0, 76, 0
1, 93158, Note_on_c, 0, 78, 65
1, 93166, Control_c, 0, 64, 74
1, 93174, Note_off_c, 0, 55, 0
1, 93181, Note_on_c, 0, 57, 43
1, 93186, Control_c, 0, 64, 63
1, 93207, Control_c, 0, 64, 53
1, 93223, Control_c, 0, 64, 44
1, 93240, Control_c, 0, 64, 32
1, 93259, Control_c, 0, 64, 20
1, 93278, Control_c, 0, 64, 11
1, 93383, Note_on_c, 0, 75, 66
1, 93413, Note_off_c, 0, 78, 0
1, 93426, Control_c, 0, 64, 22
1, 93444, Control_c, 0, 64, 36
1, 93463, Control_c, 0, 64, 52
1, 93482, Control_c, 0, 64, 63
1, 93500, Control_c, 0, 64, 67
1, 93519, Control_c, 0, 64, 69
1, 93538, Control_c, 0, 64, 73
1, 93557, Control_c, 0, 64, 78
1, 93575, Control_c, 0, 64, 84
1, 93594, Control_c, 0, 64, 91
1, 93612, Control_c, 0, 64, 98
1, 93630, Control_c, 0, 64, 104
1, 93649, Control_c, 0, 64, 108
1, 93662, Note_off_c, 0, 57, 0
1, 93693, Note_off_c, 0, 75, 0
1, 93743, Control_c, 0, 64, 112
1, 93821, Note_on_c, 0, 55, 49
1, 93834, Note_on_c, 0, 75, 60
1, 93871, Control_c, 0, 64, 107
1, 93875, Note_off_c, 0, 55, 0
1, 93890, Control_c, 0, 64, 100
1, 93909, Note_on_c, 0, 57, 51
1, 93909, Control_c, 0, 64, 92
1, 93938, Control_c, 0, 64, 81
1, 93956, Control_c, 0, 64, 69
1, 93974, Control_c, 0, 64, 58
1, 93993, Note_off_c, 0, 57, 0
1, 93994, Control_c, 0, 64, 51
1, 93997, Note_on_c, 0, 55, 60
1, 94012, Control_c, 0, 64, 45
1, 94030, Control_c, 0, 64, 37
1, 94048, Control_c, 0, 64, 30
1, 94066, Control_c, 0, 64, 23
1, 94085, Control_c, 0, 64, 18
1, 94264, Note_on_c, 0, 76, 70
1, 94266, Note_off_c, 0, 75, 0
1, 94570, Note_on_c, 0, 54, 60
1, 94585, Note_off_c, 0, 55, 0
1, 94753, Control_c, 0, 64, 29
1, 94772, Control_c, 0, 64, 40
1, 94790, Control_c, 0, 64, 54
1, 94807, Control_c, 0, 64, 65
1, 94826, Control_c, 0, 64, 69
1, 94845, Control_c, 0, 64, 74
1, 94873, Control_c, 0, 64, 80
1, 94892, Control_c, 0, 64, 88
1, 94893, Note_off_c, 0, 54, 0
1, 94908, Note_off_c, 0, 48, 0
1, 94909, Control_c, 0, 64, 96
1, 94930, Control_c, 0, 64, 106
1, 94948, Control_c, 0, 64, 116
1, 94966, Control_c, 0, 64, 125
1, 95249, Note_on_c, 0, 55, 62
1, 95281, Control_c, 0, 64, 108
1, 95289, Note_on_c, 0, 47, 49
1, 95300, Control_c, 0, 64, 92
1, 95319, Control_c, 0, 64, 75
1, 95337, Control_c, 0, 64, 60
1, 95356, Control_c, 0, 64, 50
1, 95374, Control_c, 0, 64, 37
1, 95393, Control_c, 0, 64, 16
1, 95413, Control_c, 0, 64, 0
1, 95522, Control_c, 0, 64, 15
1, 95541, Control_c, 0, 64, 28
1, 95559, Control_c, 0, 64, 43
1, 95564, Note_on_c, 0, 67, 67
1, 95578, Control_c, 0, 64, 58
1, 95592, Note_off_c, 0, 76, 0
1, 95596, Control_c, 0, 64, 64
1, 95615, Control_c, 0, 64, 67
1, 95635, Control_c, 0, 64, 69
1, 95652, Control_c, 0, 64, 73
1, 95670, Control_c, 0, 64, 77
1, 95689, Control_c, 0, 64, 83
1, 95708, Control_c, 0, 64, 90
1, 95727, Control_c, 0, 64, 96
1, 95746, Control_c, 0, 64, 101
1, 95764, Control_c, 0, 64, 105
1, 95811, Control_c, 0, 64, 110
1, 95921, Control_c, 0, 64, 103
1, 95924, Note_on_c, 0, 66, 71
1, 95937, Note_on_c, 0, 59, 63
1, 95938, Control_c, 0, 64, 94
1, 95957, Control_c, 0, 64, 80
1, 95974, Note_off_c, 0, 55, 0
1, 95975, Note_off_c, 0, 67, 0
1, 95977, Control_c, 0, 64, 65
1, 95996, Control_c, 0, 64, 53
1, 96015, Control_c, 0, 64, 45
1, 96033, Control_c, 0, 64, 34
1, 96050, Control_c, 0, 64, 18
1, 96069, Control_c, 0, 64, 0
1, 96252, Note_on_c, 0, 64, 73
1, 96252, Control_c, 0, 64, 17
1, 96273, Control_c, 0, 64, 30
1, 96280, Note_off_c, 0, 66, 0
1, 96292, Control_c, 0, 64, 44
1, 96310, Control_c, 0, 64, 57
1, 96329, Control_c, 0, 64, 65
1, 96348, Control_c, 0, 64, 68
1, 96366, Control_c, 0, 64, 71
1, 96385, Control_c, 0, 64, 76
1, 96404, Control_c, 0, 64, 82
1, 96421, Control_c, 0, 64, 90
1, 96423, Note_off_c, 0, 59, 0
1, 96440, Control_c, 0, 64, 98
1, 96448, Note_off_c, 0, 64, 0
1, 96458, Control_c, 0, 64, 105
1, 96477, Control_c, 0, 64, 110
1, 96514, Control_c, 0, 64, 115
1, 96653, Note_on_c, 0, 66, 65
1, 96664, Note_on_c, 0, 45, 60
1, 96676, Note_off_c, 0, 47, 0
1, 96681, Control_c, 0, 64, 108
1, 96701, Control_c, 0, 64, 103
1, 96718, Control_c, 0, 64, 97
1, 96747, Control_c, 0, 64, 89
1, 96765, Control_c, 0, 64, 80
1, 96784, Control_c, 0, 64, 72
1, 96803, Control_c, 0, 64, 65
1, 96821, Control_c, 0, 64, 60
1, 96840, Control_c, 0, 64, 57
1, 96858, Control_c, 0, 64, 51
1, 96875, Control_c, 0, 64, 42
1, 96894, Control_c, 0, 64, 30
1, 96913, Control_c, 0, 64, 18
1, 96932, Control_c, 0, 64, 14
1, 97364, Note_on_c, 0, 48, 62
1, 97488, Note_off_c, 0, 45, 0
1, 97581, Control_c, 0, 64, 18
1, 97618, Control_c, 0, 64, 25
1, 97638, Control_c, 0, 64, 30
1, 97655, Control_c, 0, 64, 37
1, 97683, Control_c, 0, 64, 46
1, 97700, Note_on_c, 0, 76, 72
1, 97700, Control_c, 0, 64, 56
1, 97719, Control_c, 0, 64, 63
1, 97740, Control_c, 0, 64, 65
1, 97756, Control_c, 0, 64, 67
1, 97776, Control_c, 0, 64, 70
1, 97794, Control_c, 0, 64, 73
1, 97814, Control_c, 0, 64, 78
1, 97831, Control_c, 0, 64, 83
1, 97851, Control_c, 0, 64, 88
1, 97868, Control_c, 0, 64, 92
1, 97904, Control_c, 0, 64, 98
1, 97957, Note_off_c, 0, 76, 0
1, 97961, Control_c, 0, 64, 102
1, 98052, Control_c, 0, 64, 98
1, 98072, Control_c, 0, 64, 92
1, 98087, Note_on_c, 0, 76, 77
1, 98090, Control_c, 0, 64, 82
1, 98104, Note_off_c, 0, 48, 0
1, 98108, Control_c, 0, 64, 69
1, 98117, Note_on_c, 0, 47, 44
1, 98127, Control_c, 0, 64, 58
1, 98147, Control_c, 0, 64, 50
1, 98165, Control_c, 0, 64, 41
1, 98184, Control_c, 0, 64, 29
1, 98203, Control_c, 0, 64, 17
1, 98221, Control_c, 0, 64, 8
1, 98387, Control_c, 0, 64, 16
1, 98407, Control_c, 0, 64, 24
1, 98425, Control_c, 0, 64, 37
1, 98442, Note_on_c, 0, 75, 76
1, 98443, Control_c, 0, 64, 52
1, 98463, Control_c, 0, 64, 64
1, 98479, Control_c, 0, 64, 69
1, 98483, Note_off_c, 0, 76, 0
1, 98487, Note_off_c, 0, 66, 0
1, 98499, Control_c, 0, 64, 73
1, 98517, Control_c, 0, 64, 78
1, 98536, Control_c, 0, 64, 83
1, 98555, Control_c, 0, 64, 89
1, 98560, Note_off_c, 0, 75, 0
1, 98573, Control_c, 0, 64, 94
1, 98592, Control_c, 0, 64, 99
1, 98842, Control_c, 0, 64, 89
1, 98859, Control_c, 0, 64, 80
1, 98867, Note_on_c, 0, 78, 69
1, 98875, Note_off_c, 0, 47, 0
1, 98878, Control_c, 0, 64, 68
1, 98887, Note_on_c, 0, 72, 54
1, 98889, Note_on_c, 0, 45, 42
1, 98896, Control_c, 0, 64, 58
1, 98917, Control_c, 0, 64, 52
1, 98935, Control_c, 0, 64, 46
1, 98954, Control_c, 0, 64, 39
1, 98972, Control_c, 0, 64, 31
1, 98983, Note_off_c, 0, 72, 0
1, 98990, Control_c, 0, 64, 22
1, 99004, Note_off_c, 0, 78, 0
1, 99009, Control_c, 0, 64, 15
1, 99009, Note_on_c, 0, 79, 72
1, 99018, Note_on_c, 0, 72, 17
1, 99046, Control_c, 0, 64, 10
1, 99184, Note_off_c, 0, 79, 0
1, 99188, Note_on_c, 0, 81, 77
1, 99270, Control_c, 0, 64, 18
1, 99287, Control_c, 0, 64, 26
1, 99306, Control_c, 0, 64, 39
1, 99323, Control_c, 0, 64, 55
1, 99344, Control_c, 0, 64, 65
1, 99362, Control_c, 0, 64, 69
1, 99380, Control_c, 0, 64, 73
1, 99399, Control_c, 0, 64, 78
1, 99417, Control_c, 0, 64, 82
1, 99437, Control_c, 0, 64, 87
1, 99451, Note_off_c, 0, 72, 0
1, 99453, Control_c, 0, 64, 91
1, 99490, Control_c, 0, 64, 98
1, 99527, Control_c, 0, 64, 102
1, 99657, Note_on_c, 0, 79, 70
1, 99672, Note_off_c, 0, 45, 0
1, 99685, Control_c, 0, 64, 93
1, 99692, Note_on_c, 0, 71, 52
1, 99701, Note_on_c, 0, 47, 40
1, 99704, Control_c, 0, 64, 84
1, 99705, Note_off_c, 0, 81, 0
1, 99723, Control_c, 0, 64, 72
1, 99742, Control_c, 0, 64, 59
1, 99760, Control_c, 0, 64, 49
1, 99779, Control_c, 0, 64, 38
1, 99798, Control_c, 0, 64, 23
1, 99817, Control_c, 0, 64, 11
1, 99891, Control_c, 0, 64, 19
1, 99910, Control_c, 0, 64, 32
1, 99927, Control_c, 0, 64, 49
1, 99945, Control_c, 0, 64, 64
1, 99964, Control_c, 0, 64, 69
1, 99982, Control_c, 0, 64, 72
1, 100002, Control_c, 0, 64, 74
1, 100020, Control_c, 0, 64, 78
1, 100039, Control_c, 0, 64, 82
1, 100057, Control_c, 0, 64, 86
1, 100077, Control_c, 0, 64, 90
1, 100105, Note_off_c, 0, 71, 0
1, 100111, Control_c, 0, 64, 95
1, 100373, Control_c, 0, 64, 90
1, 100385, Note_on_c, 0, 78, 69
1, 100390, Control_c, 0, 64, 84
1, 100410, Control_c, 0, 64, 74
1, 100413, Note_on_c, 0, 69, 43
1, 100416, Note_on_c, 0, 51, 37
1, 100428, Control_c, 0, 64, 63
1, 100447, Control_c, 0, 64, 54
1, 100449, Note_off_c, 0, 79, 0
1, 100466, Control_c, 0, 64, 45
1, 100492, Control_c, 0, 64, 32
1, 100511, Control_c, 0, 64, 14
1, 100662, Control_c, 0, 64, 28
1, 100677, Control_c, 0, 64, 43
1, 100696, Control_c, 0, 64, 58
1, 100715, Control_c, 0, 64, 65
1, 100734, Control_c, 0, 64, 68
1, 100752, Control_c, 0, 64, 70
1, 100771, Control_c, 0, 64, 73
1, 100789, Control_c, 0, 64, 77
1, 100808, Control_c, 0, 64, 82
1, 100816, Note_off_c, 0, 78, 0
1, 100827, Control_c, 0, 64, 88
1, 100845, Control_c, 0, 64, 94
1, 100865, Control_c, 0, 64, 98
1, 101230, Note_on_c, 0, 78, 66
1, 101253, Control_c, 0, 64, 92
1, 101272, Control_c, 0, 64, 84
1, 101284, Note_on_c, 0, 52, 31
1, 101288, Control_c, 0, 64, 75
1, 101300, Note_off_c, 0, 51, 0
1, 101308, Control_c, 0, 64, 65
1, 101326, Control_c, 0, 64, 58
1, 101347, Control_c, 0, 64, 53
1, 101364, Control_c, 0, 64, 47
1, 101383, Control_c, 0, 64, 38
1, 101401, Control_c, 0, 64, 29
1, 101430, Control_c, 0, 64, 20
1, 101547, Note_off_c, 0, 47, 0
1, 101661, Note_on_c, 0, 76, 62
1, 101683, Note_off_c, 0, 78, 0
1, 101994, Note_on_c, 0, 47, 35
1, 102079, Control_c, 0, 64, 24
1, 102096, Control_c, 0, 64, 28
1, 102114, Control_c, 0, 64, 34
1, 102133, Control_c, 0, 64, 42
1, 102153, Control_c, 0, 64, 51
1, 102171, Control_c, 0, 64, 58
1, 102176, Note_off_c, 0, 52, 0
1, 102188, Note_on_c, 0, 78, 60
1, 102189, Control_c, 0, 64, 61
1, 102198, Note_off_c, 0, 76, 0
1, 102209, Control_c, 0, 64, 64
1, 102227, Control_c, 0, 64, 66
1, 102246, Control_c, 0, 64, 69
1, 102264, Control_c, 0, 64, 71
1, 102284, Control_c, 0, 64, 74
1, 102303, Control_c, 0, 64, 76
1, 102320, Control_c, 0, 64, 79
1, 102339, Control_c, 0, 64, 82
1, 102367, Control_c, 0, 64, 85
1, 102385, Control_c, 0, 64, 88
1, 102391, Note_off_c, 0, 78, 0
1, 102391, Note_on_c, 0, 75, 63
1, 102461, Control_c, 0, 64, 92
1, 102476, Note_off_c, 0, 75, 0
1, 102670, Note_on_c, 0, 75, 53
1, 102678, Note_on_c, 0, 40, 41
1, 102681, Control_c, 0, 64, 83
1, 102693, Note_off_c, 0, 47, 0
1, 102700, Control_c, 0, 64, 74
1, 102720, Control_c, 0, 64, 65
1, 102736, Control_c, 0, 64, 57
1, 102755, Control_c, 0, 64, 51
1, 102767, Note_off_c, 0, 69, 0
1, 102772, Control_c, 0, 64, 46
1, 102792, Control_c, 0, 64, 40
1, 102811, Control_c, 0, 64, 35
1, 102831, Control_c, 0, 64, 30
1, 103050, Note_on_c, 0, 67, 48
1, 103343, Note_off_c, 0, 75, 0
1, 103404, Note_on_c, 0, 76, 52
1, 103417, Note_on_c, 0, 47, 56
1, 103429, Note_off_c, 0, 40, 0
1, 104187, Note_on_c, 0, 52, 62
1, 104192, Note_off_c, 0, 47, 0
1, 105005, Note_on_c, 0, 50, 52
1, 105013, Note_off_c, 0, 52, 0
1, 105307, Control_c, 0, 64, 34
1, 105325, Control_c, 0, 64, 41
1, 105345, Control_c, 0, 64, 51
1, 105361, Control_c, 0, 64, 59
1, 105379, Control_c, 0, 64, 63
1, 105399, Control_c, 0, 64, 66
1, 105401, Note_off_c, 0, 76, 0
1, 105417, Control_c, 0, 64, 69
1, 105435, Control_c, 0, 64, 73
1, 105454, Control_c, 0, 64, 79
1, 105474, Control_c, 0, 64, 86
1, 105492, Control_c, 0, 64, 93
1, 105510, Control_c, 0, 64, 100
1, 105529, Control_c, 0, 64, 106
1, 105546, Control_c, 0, 64, 111
1, 105583, Control_c, 0, 64, 118
1, 105617, Note_off_c, 0, 67, 0
1, 106011, Note_on_c, 0, 76, 61
1, 106028, Note_on_c, 0, 48, 44
1, 106065, Control_c, 0, 64, 113
1, 106085, Control_c, 0, 64, 108
1, 106112, Control_c, 0, 64, 102
1, 106132, Control_c, 0, 64, 94
1, 106142, Note_off_c, 0, 50, 0
1, 106150, Control_c, 0, 64, 86
1, 106167, Control_c, 0, 64, 77
1, 106186, Control_c, 0, 64, 68
1, 106206, Control_c, 0, 64, 62
1, 106224, Control_c, 0, 64, 58
1, 106242, Control_c, 0, 64, 53
1, 106261, Control_c, 0, 64, 48
1, 106280, Control_c, 0, 64, 42
1, 106298, Control_c, 0, 64, 35
1, 106336, Control_c, 0, 64, 30
1, 106781, Note_off_c, 0, 76, 0
1, 106827, Note_on_c, 0, 74, 54
1, 107157, Note_off_c, 0, 74, 0
1, 107169, Note_on_c, 0, 72, 57
1, 107571, Note_off_c, 0, 72, 0
1, 107611, Note_on_c, 0, 71, 50
1, 107628, Note_on_c, 0, 52, 32
1, 108369, Note_on_c, 0, 69, 48
1, 108381, Note_off_c, 0, 71, 0
1, 109162, Note_on_c, 0, 57, 41
1, 109877, Note_on_c, 0, 71, 56
1, 109922, Note_off_c, 0, 69, 0
1, 110044, Control_c, 0, 64, 35
1, 110082, Control_c, 0, 64, 41
1, 110100, Control_c, 0, 64, 45
1, 110119, Control_c, 0, 64, 49
1, 110137, Control_c, 0, 64, 53
1, 110158, Control_c, 0, 64, 56
1, 110174, Control_c, 0, 64, 59
1, 110194, Control_c, 0, 64, 62
1, 110209, Control_c, 0, 64, 64
1, 110222, Note_on_c, 0, 72, 66
1, 110229, Control_c, 0, 64, 66
1, 110235, Note_off_c, 0, 71, 0
1, 110247, Control_c, 0, 64, 68
1, 110284, Control_c, 0, 64, 72
1, 110303, Control_c, 0, 64, 74
1, 110322, Control_c, 0, 64, 76
1, 110340, Control_c, 0, 64, 78
1, 110361, Control_c, 0, 64, 80
1, 110394, Control_c, 0, 64, 83
1, 110580, Control_c, 0, 64, 80
1, 110587, Note_off_c, 0, 72, 0
1, 110599, Control_c, 0, 64, 76
1, 110611, Note_on_c, 0, 74, 59
1, 110617, Control_c, 0, 64, 69
1, 110620, Note_on_c, 0, 47, 47
1, 110633, Note_off_c, 0, 52, 0
1, 110635, Control_c, 0, 64, 62
1, 110651, Poly_aftertouch_c, 0, 48, 24
1, 110654, Control_c, 0, 64, 55
1, 110673, Control_c, 0, 64, 49
1, 110692, Control_c, 0, 64, 42
1, 110706, Note_off_c, 0, 48, 0
1, 110710, Control_c, 0, 64, 33
1, 110730, Control_c, 0, 64, 20
1, 110748, Control_c, 0, 64, 9
1, 110775, Note_off_c, 0, 74, 0
1, 110775, Note_on_c, 0, 72, 59
1, 110795, Control_c, 0, 64, 0
1, 110971, Note_off_c, 0, 72, 0
1, 110981, Note_on_c, 0, 71, 60
1, 111000, Control_c, 0, 64, 16
1, 111018, Control_c, 0, 64, 28
1, 111035, Control_c, 0, 64, 41
1, 111053, Control_c, 0, 64, 55
1, 111072, Control_c, 0, 64, 63
1, 111091, Control_c, 0, 64, 65
1, 111109, Control_c, 0, 64, 68
1, 111129, Control_c, 0, 64, 71
1, 111147, Control_c, 0, 64, 74
1, 111166, Control_c, 0, 64, 78
1, 111184, Control_c, 0, 64, 82
1, 111205, Note_off_c, 0, 71, 0
1, 111205, Control_c, 0, 64, 86
1, 111313, Control_c, 0, 64, 82
1, 111333, Control_c, 0, 64, 75
1, 111341, Note_on_c, 0, 72, 57
1, 111343, Note_on_c, 0, 54, 57
1, 111350, Note_off_c, 0, 57, 0
1, 111352, Control_c, 0, 64, 65
1, 111370, Control_c, 0, 64, 55
1, 111388, Control_c, 0, 64, 46
1, 111405, Control_c, 0, 64, 36
1, 111424, Control_c, 0, 64, 28
1, 111443, Control_c, 0, 64, 19
1, 111461, Control_c, 0, 64, 10
1, 111493, Note_off_c, 0, 72, 0
1, 111494, Note_on_c, 0, 71, 60
1, 111518, Control_c, 0, 64, 0
1, 111688, Note_on_c, 0, 69, 62
1, 111712, Control_c, 0, 64, 11
1, 111716, Note_off_c, 0, 71, 0
1, 111731, Control_c, 0, 64, 21
1, 111750, Control_c, 0, 64, 34
1, 111768, Control_c, 0, 64, 46
1, 111788, Control_c, 0, 64, 57
1, 111806, Control_c, 0, 64, 62
1, 111824, Control_c, 0, 64, 65
1, 111841, Control_c, 0, 64, 67
1, 111861, Control_c, 0, 64, 70
1, 111879, Control_c, 0, 64, 72
1, 111897, Control_c, 0, 64, 75
1, 111916, Control_c, 0, 64, 77
1, 111918, Note_off_c, 0, 69, 0
1, 111992, Control_c, 0, 64, 72
1, 112010, Control_c, 0, 64, 68
1, 112027, Control_c, 0, 64, 62
1, 112046, Control_c, 0, 64, 55
1, 112055, Note_on_c, 0, 69, 58
1, 112064, Control_c, 0, 64, 47
1, 112076, Note_on_c, 0, 52, 48
1, 112083, Control_c, 0, 64, 39
1, 112089, Note_off_c, 0, 54, 0
1, 112103, Control_c, 0, 64, 32
1, 112120, Control_c, 0, 64, 27
1, 112158, Control_c, 0, 64, 22
1, 112375, Note_off_c, 0, 52, 0
1, 112375, Note_on_c, 0, 50, 48
1, 112544, Note_on_c, 0, 67, 60
1, 112545, Note_off_c, 0, 69, 0
1, 112722, Note_off_c, 0, 50, 0
1, 112744, Note_on_c, 0, 52, 55
1, 113078, Note_on_c, 0, 54, 58
1, 113117, Note_off_c, 0, 52, 0
1, 113411, Note_on_c, 0, 55, 52
1, 113418, Note_off_c, 0, 54, 0
1, 113759, Note_on_c, 0, 54, 52
1, 113772, Note_off_c, 0, 55, 0
1, 114106, Note_off_c, 0, 54, 0
1, 114115, Note_on_c, 0, 55, 39
1, 114119, Note_on_c, 0, 69, 53
1, 114176, Note_off_c, 0, 67, 0
1, 114485, Note_on_c, 0, 71, 64
1, 114525, Note_off_c, 0, 69, 0
1, 114850, Note_on_c, 0, 72, 63
1, 114857, Note_on_c, 0, 45, 50
1, 114860, Note_off_c, 0, 71, 0
1, 114905, Note_off_c, 0, 47, 0
1, 115195, Note_off_c, 0, 72, 0
1, 115201, Note_on_c, 0, 74, 65
1, 115414, Note_off_c, 0, 55, 0
1, 115564, Note_on_c, 0, 72, 60
1, 115572, Note_on_c, 0, 52, 54
1, 115609, Note_off_c, 0, 74, 0
1, 115758, Control_c, 0, 64, 26
1, 115775, Control_c, 0, 64, 30
1, 115794, Control_c, 0, 64, 37
1, 115814, Control_c, 0, 64, 46
1, 115830, Control_c, 0, 64, 55
1, 115849, Control_c, 0, 64, 58
1, 115886, Control_c, 0, 64, 60
1, 115905, Control_c, 0, 64, 62
1, 115912, Note_on_c, 0, 71, 67
1, 115918, Note_off_c, 0, 72, 0
1, 115924, Control_c, 0, 64, 65
1, 115943, Control_c, 0, 64, 68
1, 115962, Control_c, 0, 64, 70
1, 115980, Control_c, 0, 64, 72
1, 116015, Control_c, 0, 64, 75
1, 116035, Control_c, 0, 64, 77
1, 116052, Control_c, 0, 64, 79
1, 116072, Control_c, 0, 64, 82
1, 116091, Control_c, 0, 64, 84
1, 116168, Note_off_c, 0, 52, 0
1, 116203, Control_c, 0, 64, 81
1, 116221, Control_c, 0, 64, 74
1, 116241, Control_c, 0, 64, 65
1, 116258, Control_c, 0, 64, 54
1, 116259, Note_on_c, 0, 72, 60
1, 116260, Note_off_c, 0, 71, 0
1, 116276, Control_c, 0, 64, 43
1, 116285, Note_on_c, 0, 57, 51
1, 116294, Control_c, 0, 64, 30
1, 116314, Control_c, 0, 64, 14
1, 116351, Control_c, 0, 64, 0
1, 116489, Control_c, 0, 64, 14
1, 116508, Control_c, 0, 64, 23
1, 116526, Control_c, 0, 64, 35
1, 116546, Control_c, 0, 64, 49
1, 116565, Control_c, 0, 64, 61
1, 116583, Control_c, 0, 64, 67
1, 116601, Control_c, 0, 64, 71
1, 116620, Control_c, 0, 64, 75
1, 116624, Note_on_c, 0, 69, 67
1, 116639, Note_off_c, 0, 57, 0
1, 116639, Control_c, 0, 64, 80
1, 116656, Note_off_c, 0, 72, 0
1, 116659, Control_c, 0, 64, 86
1, 116676, Control_c, 0, 64, 91
1, 116695, Control_c, 0, 64, 97
1, 116710, Note_off_c, 0, 45, 0
1, 116712, Control_c, 0, 64, 103
1, 116733, Control_c, 0, 64, 107
1, 116770, Control_c, 0, 64, 113
1, 116992, Control_c, 0, 64, 109
1, 117003, Note_on_c, 0, 64, 73
1, 117010, Control_c, 0, 64, 101
1, 117031, Control_c, 0, 64, 91
1, 117036, Note_on_c, 0, 43, 39
1, 117038, Note_off_c, 0, 69, 0
1, 117048, Control_c, 0, 64, 77
1, 117067, Control_c, 0, 64, 61
1, 117084, Control_c, 0, 64, 49
1, 117103, Control_c, 0, 64, 38
1, 117121, Control_c, 0, 64, 24
1, 117140, Control_c, 0, 64, 13
1, 117252, Control_c, 0, 64, 21
1, 117270, Control_c, 0, 64, 30
1, 117288, Control_c, 0, 64, 42
1, 117308, Control_c, 0, 64, 56
1, 117335, Control_c, 0, 64, 65
1, 117354, Control_c, 0, 64, 67
1, 117372, Control_c, 0, 64, 69
1, 117382, Note_on_c, 0, 69, 62
1, 117391, Control_c, 0, 64, 72
1, 117410, Control_c, 0, 64, 76
1, 117428, Control_c, 0, 64, 79
1, 117448, Control_c, 0, 64, 84
1, 117464, Control_c, 0, 64, 87
1, 117477, Note_off_c, 0, 43, 0
1, 117746, Note_off_c, 0, 69, 0
1, 117747, Note_on_c, 0, 72, 69
1, 117762, Control_c, 0, 64, 82
1, 117771, Note_on_c, 0, 42, 37
1, 117781, Control_c, 0, 64, 74
1, 117799, Control_c, 0, 64, 64
1, 117819, Control_c, 0, 64, 54
1, 117836, Control_c, 0, 64, 42
1, 117856, Control_c, 0, 64, 26
1, 118004, Control_c, 0, 64, 12
1, 118022, Control_c, 0, 64, 23
1, 118041, Control_c, 0, 64, 37
1, 118059, Control_c, 0, 64, 52
1, 118077, Control_c, 0, 64, 62
1, 118089, Note_on_c, 0, 71, 66
1, 118095, Control_c, 0, 64, 67
1, 118113, Control_c, 0, 64, 69
1, 118133, Control_c, 0, 64, 72
1, 118151, Control_c, 0, 64, 75
1, 118171, Control_c, 0, 64, 79
1, 118188, Control_c, 0, 64, 83
1, 118208, Control_c, 0, 64, 87
1, 118282, Note_off_c, 0, 64, 0
1, 118365, Note_off_c, 0, 42, 0
1, 118402, Control_c, 0, 64, 84
1, 118420, Control_c, 0, 64, 78
1, 118433, Note_on_c, 0, 69, 56
1, 118439, Note_on_c, 0, 40, 58
1, 118439, Control_c, 0, 64, 70
1, 118456, Control_c, 0, 64, 62
1, 118471, Note_off_c, 0, 71, 0
1, 118475, Control_c, 0, 64, 55
1, 118493, Control_c, 0, 64, 46
1, 118513, Control_c, 0, 64, 35
1, 118531, Control_c, 0, 64, 21
1, 118551, Control_c, 0, 64, 8
1, 118588, Control_c, 0, 64, 0
1, 118754, Control_c, 0, 64, 8
1, 118773, Control_c, 0, 64, 19
1, 118786, Note_off_c, 0, 69, 0
1, 118787, Note_on_c, 0, 67, 60
1, 118792, Control_c, 0, 64, 31
1, 118810, Control_c, 0, 64, 44
1, 118829, Control_c, 0, 64, 54
1, 118847, Control_c, 0, 64, 59
1, 118866, Control_c, 0, 64, 61
1, 118883, Control_c, 0, 64, 63
1, 118903, Control_c, 0, 64, 66
1, 118920, Control_c, 0, 64, 68
1, 118940, Control_c, 0, 64, 70
1, 118958, Control_c, 0, 64, 72
1, 118977, Control_c, 0, 64, 74
1, 118995, Control_c, 0, 64, 76
1, 119033, Control_c, 0, 64, 79
1, 119133, Note_off_c, 0, 67, 0
1, 119163, Control_c, 0, 64, 75
1, 119175, Note_on_c, 0, 66, 53
1, 119180, Note_on_c, 0, 38, 55
1, 119181, Control_c, 0, 64, 71
1, 119209, Control_c, 0, 64, 66
1, 119227, Control_c, 0, 64, 62
1, 119248, Control_c, 0, 64, 57
1, 119263, Control_c, 0, 64, 49
1, 119278, Note_off_c, 0, 40, 0
1, 119282, Control_c, 0, 64, 38
1, 119300, Control_c, 0, 64, 26
1, 119320, Control_c, 0, 64, 14
1, 119356, Control_c, 0, 64, 0
1, 119486, Control_c, 0, 64, 8
1, 119505, Control_c, 0, 64, 16
1, 119523, Note_off_c, 0, 72, 0
1, 119523, Control_c, 0, 64, 26
1, 119542, Control_c, 0, 64, 37
1, 119551, Note_on_c, 0, 74, 60
1, 119561, Control_c, 0, 64, 49
1, 119579, Control_c, 0, 64, 57
1, 119598, Control_c, 0, 64, 60
1, 119617, Control_c, 0, 64, 62
1, 119635, Control_c, 0, 64, 64
1, 119654, Control_c, 0, 64, 66
1, 119674, Control_c, 0, 64, 68
1, 119692, Control_c, 0, 64, 70
1, 119728, Control_c, 0, 64, 73
1, 119858, Control_c, 0, 64, 70
1, 119877, Control_c, 0, 64, 66
1, 119882, Note_off_c, 0, 74, 0
1, 119890, Note_on_c, 0, 72, 61
1, 119896, Control_c, 0, 64, 61
1, 119905, Note_on_c, 0, 45, 53
1, 119913, Note_off_c, 0, 38, 0
1, 119913, Control_c, 0, 64, 52
1, 119933, Control_c, 0, 64, 41
1, 119952, Control_c, 0, 64, 27
1, 119971, Control_c, 0, 64, 14
1, 120007, Control_c, 0, 64, 0
1, 120222, Control_c, 0, 64, 10
1, 120240, Control_c, 0, 64, 17
1, 120260, Control_c, 0, 64, 26
1, 120261, Note_off_c, 0, 72, 0
1, 120266, Note_on_c, 0, 71, 62
1, 120278, Control_c, 0, 64, 36
1, 120296, Control_c, 0, 64, 46
1, 120315, Control_c, 0, 64, 54
1, 120335, Control_c, 0, 64, 58
1, 120372, Control_c, 0, 64, 60
1, 120391, Control_c, 0, 64, 62
1, 120409, Control_c, 0, 64, 63
1, 120427, Control_c, 0, 64, 65
1, 120446, Control_c, 0, 64, 67
1, 120465, Control_c, 0, 64, 68
1, 120609, Note_off_c, 0, 45, 0
1, 120630, Note_off_c, 0, 71, 0
1, 120632, Control_c, 0, 64, 66
1, 120635, Note_on_c, 0, 72, 52
1, 120645, Note_on_c, 0, 50, 51
1, 120650, Control_c, 0, 64, 64
1, 120670, Control_c, 0, 64, 60
1, 120687, Control_c, 0, 64, 52
1, 120705, Control_c, 0, 64, 41
1, 120723, Control_c, 0, 64, 27
1, 120743, Control_c, 0, 64, 16
1, 120760, Control_c, 0, 64, 10
1, 120793, Poly_aftertouch_c, 0, 66, 20
1, 120797, Note_off_c, 0, 66, 0
1, 120927, Control_c, 0, 64, 18
1, 120946, Control_c, 0, 64, 26
1, 120965, Control_c, 0, 64, 36
1, 120983, Control_c, 0, 64, 47
1, 120984, Note_on_c, 0, 69, 56
1, 120999, Note_off_c, 0, 72, 0
1, 121001, Control_c, 0, 64, 57
1, 121021, Control_c, 0, 64, 60
1, 121040, Control_c, 0, 64, 61
1, 121058, Control_c, 0, 64, 63
1, 121084, Control_c, 0, 64, 65
1, 121103, Control_c, 0, 64, 67
1, 121122, Control_c, 0, 64, 69
1, 121159, Control_c, 0, 64, 72
1, 121264, Note_off_c, 0, 50, 0
1, 121309, Control_c, 0, 64, 69
1, 121327, Control_c, 0, 64, 65
1, 121344, Control_c, 0, 64, 59
1, 121345, Note_on_c, 0, 66, 65
1, 121363, Control_c, 0, 64, 54
1, 121365, Note_off_c, 0, 69, 0
1, 121365, Note_on_c, 0, 48, 58
1, 121382, Control_c, 0, 64, 48
1, 121401, Control_c, 0, 64, 41
1, 121419, Control_c, 0, 64, 33
1, 121438, Control_c, 0, 64, 26
1, 121457, Control_c, 0, 64, 19
1, 121695, Note_on_c, 0, 69, 68
1, 122067, Note_on_c, 0, 72, 68
1, 122073, Note_off_c, 0, 69, 0
1, 122074, Note_on_c, 0, 47, 67
1, 122086, Note_off_c, 0, 48, 0
1, 122431, Note_off_c, 0, 72, 0
1, 122431, Note_on_c, 0, 76, 70
1, 122772, Note_on_c, 0, 45, 64
1, 122776, Note_on_c, 0, 74, 64
1, 122788, Note_off_c, 0, 47, 0
1, 122805, Note_off_c, 0, 76, 0
1, 123132, Note_on_c, 0, 72, 64
1, 123142, Note_off_c, 0, 74, 0
1, 123218, Note_off_c, 0, 66, 0
1, 123502, Note_on_c, 0, 71, 61
1, 123505, Note_on_c, 0, 43, 60
1, 123512, Note_on_c, 0, 67, 47
1, 123519, Note_off_c, 0, 72, 0
1, 123554, Note_off_c, 0, 45, 0
1, 123855, Note_on_c, 0, 72, 62
1, 123859, Note_off_c, 0, 71, 0
1, 124218, Note_on_c, 0, 71, 56
1, 124222, Note_off_c, 0, 72, 0
1, 124227, Note_on_c, 0, 50, 53
1, 124313, Note_off_c, 0, 43, 0
1, 124571, Note_off_c, 0, 71, 0
1, 124576, Note_on_c, 0, 69, 58
1, 124722, Poly_aftertouch_c, 0, 67, 24
1, 124762, Note_off_c, 0, 67, 0
1, 124899, Note_off_c, 0, 69, 0
1, 124915, Note_off_c, 0, 50, 0
1, 124920, Note_on_c, 0, 71, 54
1, 124939, Note_on_c, 0, 55, 50
1, 125266, Note_off_c, 0, 71, 0
1, 125266, Note_on_c, 0, 67, 57
1, 125616, Note_off_c, 0, 55, 0
1, 125640, Note_on_c, 0, 62, 66
1, 125645, Note_on_c, 0, 53, 58
1, 125678, Note_off_c, 0, 67, 0
1, 125971, Control_c, 0, 64, 25
1, 125992, Control_c, 0, 64, 31
1, 126008, Note_on_c, 0, 67, 67
1, 126011, Control_c, 0, 64, 41
1, 126028, Control_c, 0, 64, 51
1, 126046, Control_c, 0, 64, 58
1, 126065, Control_c, 0, 64, 62
1, 126084, Control_c, 0, 64, 65
1, 126102, Control_c, 0, 64, 68
1, 126122, Control_c, 0, 64, 72
1, 126140, Control_c, 0, 64, 76
1, 126159, Control_c, 0, 64, 82
1, 126177, Control_c, 0, 64, 87
1, 126195, Control_c, 0, 64, 92
1, 126213, Control_c, 0, 64, 96
1, 126250, Control_c, 0, 64, 101
1, 126326, Control_c, 0, 64, 93
1, 126344, Control_c, 0, 64, 83
1, 126347, Note_on_c, 0, 71, 65
1, 126356, Note_off_c, 0, 53, 0
1, 126363, Control_c, 0, 64, 67
1, 126366, Note_on_c, 0, 52, 55
1, 126379, Control_c, 0, 64, 49
1, 126396, Note_off_c, 0, 67, 0
1, 126396, Control_c, 0, 64, 33
1, 126417, Control_c, 0, 64, 18
1, 126455, Note_off_c, 0, 62, 0
1, 126492, Control_c, 0, 64, 31
1, 126510, Control_c, 0, 64, 48
1, 126530, Control_c, 0, 64, 63
1, 126549, Control_c, 0, 64, 69
1, 126565, Control_c, 0, 64, 72
1, 126584, Control_c, 0, 64, 76
1, 126602, Control_c, 0, 64, 79
1, 126622, Control_c, 0, 64, 82
1, 126632, Note_off_c, 0, 71, 0
1, 126640, Control_c, 0, 64, 85
1, 126701, Note_on_c, 0, 67, 72
1, 126779, Control_c, 0, 64, 82
1, 126798, Control_c, 0, 64, 80
1, 126815, Control_c, 0, 64, 78
1, 126835, Control_c, 0, 64, 76
1, 126872, Control_c, 0, 64, 73
1, 126890, Control_c, 0, 64, 70
1, 126910, Control_c, 0, 64, 67
1, 126928, Control_c, 0, 64, 63
1, 126947, Control_c, 0, 64, 60
1, 126965, Control_c, 0, 64, 57
1, 126985, Control_c, 0, 64, 54
1, 127001, Control_c, 0, 64, 52
1, 127020, Control_c, 0, 64, 48
1, 127025, Note_on_c, 0, 50, 61
1, 127027, Note_off_c, 0, 52, 0
1, 127036, Note_on_c, 0, 72, 67
1, 127039, Control_c, 0, 64, 45
1, 127058, Control_c, 0, 64, 43
1, 127095, Control_c, 0, 64, 41
1, 127384, Note_on_c, 0, 74, 72
1, 127433, Note_off_c, 0, 72, 0
1, 127766, Note_on_c, 0, 76, 68
1, 127783, Note_on_c, 0, 48, 62
1, 127790, Note_off_c, 0, 74, 0
1, 127830, Note_off_c, 0, 50, 0
1, 128113, Note_off_c, 0, 76, 0
1, 128123, Note_on_c, 0, 77, 70
1, 128467, Note_off_c, 0, 48, 0
1, 128467, Note_on_c, 0, 76, 65
1, 128474, Note_on_c, 0, 55, 54
1, 128492, Note_off_c, 0, 77, 0
1, 128822, Note_on_c, 0, 74, 67
1, 128841, Note_off_c, 0, 76, 0
1, 129111, Poly_aftertouch_c, 0, 67, 24
1, 129159, Note_off_c, 0, 67, 0
1, 129167, Note_on_c, 0, 76, 60
1, 129175, Note_on_c, 0, 60, 56
1, 129190, Note_off_c, 0, 74, 0
1, 129205, Note_off_c, 0, 55, 0
1, 129526, Note_on_c, 0, 72, 62
1, 129533, Note_off_c, 0, 76, 0
1, 129855, Note_off_c, 0, 72, 0
1, 129859, Note_off_c, 0, 60, 0
1, 129868, Note_on_c, 0, 67, 63
1, 129878, Note_on_c, 0, 59, 60
1, 130217, Note_on_c, 0, 72, 70
1, 130593, Note_on_c, 0, 76, 64
1, 130595, Note_on_c, 0, 57, 61
1, 130611, Note_off_c, 0, 59, 0
1, 130647, Note_off_c, 0, 72, 0
1, 130654, Control_c, 0, 64, 46
1, 130673, Control_c, 0, 64, 52
1, 130693, Control_c, 0, 64, 56
1, 130698, Note_off_c, 0, 67, 0
1, 130711, Control_c, 0, 64, 59
1, 130730, Control_c, 0, 64, 62
1, 130749, Control_c, 0, 64, 65
1, 130767, Control_c, 0, 64, 69
1, 130786, Control_c, 0, 64, 73
1, 130804, Control_c, 0, 64, 77
1, 130822, Control_c, 0, 64, 80
1, 130839, Control_c, 0, 64, 83
1, 130843, Note_off_c, 0, 76, 0
1, 130859, Control_c, 0, 64, 85
1, 130925, Note_on_c, 0, 72, 72
1, 130953, Control_c, 0, 64, 83
1, 130990, Control_c, 0, 64, 80
1, 131009, Control_c, 0, 64, 76
1, 131027, Control_c, 0, 64, 73
1, 131046, Control_c, 0, 64, 69
1, 131063, Control_c, 0, 64, 67
1, 131082, Control_c, 0, 64, 65
1, 131101, Control_c, 0, 64, 62
1, 131119, Control_c, 0, 64, 59
1, 131138, Control_c, 0, 64, 54
1, 131158, Control_c, 0, 64, 50
1, 131175, Control_c, 0, 64, 45
1, 131194, Control_c, 0, 64, 42
1, 131213, Control_c, 0, 64, 40
1, 131267, Control_c, 0, 64, 36
1, 131273, Note_on_c, 0, 78, 70
1, 131294, Note_on_c, 0, 55, 43
1, 131302, Note_off_c, 0, 57, 0
1, 131389, Control_c, 0, 67, 66
1, 131632, Note_on_c, 0, 79, 73
1, 131637, Note_off_c, 0, 78, 0
1, 131680, Note_off_c, 0, 72, 0
1, 132042, Note_on_c, 0, 81, 67
1, 132071, Note_on_c, 0, 54, 43
1, 132081, Note_off_c, 0, 79, 0
1, 132088, Note_off_c, 0, 55, 0
1, 132430, Note_off_c, 0, 81, 0
1, 132433, Note_on_c, 0, 72, 63
1, 132777, Note_off_c, 0, 54, 0
1, 132777, Note_on_c, 0, 71, 61
1, 132787, Note_on_c, 0, 50, 43
1, 132794, Note_off_c, 0, 72, 0
1, 133124, Note_off_c, 0, 71, 0
1, 133124, Note_on_c, 0, 69, 60
1, 133500, Note_on_c, 0, 71, 60
1, 133515, Note_off_c, 0, 69, 0
1, 133523, Note_on_c, 0, 55, 33
1, 133658, Note_off_c, 0, 50, 0
1, 133835, Note_on_c, 0, 72, 63
1, 133837, Note_off_c, 0, 71, 0
1, 134203, Note_off_c, 0, 72, 0
1, 134209, Note_on_c, 0, 74, 62
1, 134234, Note_on_c, 0, 59, 41
1, 134253, Note_off_c, 0, 55, 0
1, 134550, Note_off_c, 0, 74, 0
1, 134552, Note_on_c, 0, 67, 59
1, 134951, Note_on_c, 0, 71, 57
1, 134962, Note_off_c, 0, 67, 0
1, 134969, Note_off_c, 0, 59, 0
1, 134971, Note_on_c, 0, 62, 37
1, 135315, Note_on_c, 0, 69, 54
1, 135322, Note_off_c, 0, 71, 0
1, 135697, Note_off_c, 0, 69, 0
1, 135709, Note_on_c, 0, 67, 47
1, 135719, Note_on_c, 0, 50, 35
1, 135784, Note_off_c, 0, 62, 0
1, 136092, Control_c, 0, 64, 32
1, 136111, Note_on_c, 0, 66, 51
1, 136118, Note_off_c, 0, 67, 0
1, 136408, Control_c, 0, 64, 28
1, 136642, Note_on_c, 0, 67, 52
1, 136661, Note_on_c, 0, 55, 32
1, 136701, Note_off_c, 0, 50, 0
1, 136751, Note_off_c, 0, 66, 0
1, 136817, Control_c, 0, 64, 24
1, 136945, Control_c, 0, 67, 70
1, 137048, Control_c, 0, 64, 20
1, 137089, Note_on_c, 0, 60, 48
1, 137231, Control_c, 0, 64, 16
1, 137433, Note_on_c, 0, 59, 51
1, 137486, Note_off_c, 0, 60, 0
1, 137731, Control_c, 0, 67, 66
1, 137775, Note_off_c, 0, 59, 0
1, 137787, Note_on_c, 0, 57, 45
1, 138132, Note_off_c, 0, 57, 0
1, 138147, Note_on_c, 0, 59, 49
1, 138502, Control_c, 0, 64, 22
1, 138522, Control_c, 0, 64, 27
1, 138540, Control_c, 0, 64, 34
1, 138545, Note_on_c, 0, 62, 50
1, 138558, Control_c, 0, 64, 42
1, 138561, Note_off_c, 0, 67, 0
1, 138576, Control_c, 0, 64, 50
1, 138594, Control_c, 0, 64, 56
1, 138613, Control_c, 0, 64, 60
1, 138631, Control_c, 0, 64, 63
1, 138650, Control_c, 0, 64, 66
1, 138669, Control_c, 0, 64, 69
1, 138688, Control_c, 0, 64, 72
1, 138706, Control_c, 0, 64, 75
1, 138725, Control_c, 0, 64, 77
1, 138742, Control_c, 0, 64, 80
1, 138761, Control_c, 0, 64, 82
1, 138780, Control_c, 0, 64, 85
1, 138798, Control_c, 0, 64, 87
1, 138924, Note_off_c, 0, 55, 0
1, 138987, Note_on_c, 0, 67, 47
1, 139008, Note_on_c, 0, 50, 31
1, 139009, Control_c, 0, 64, 82
1, 139027, Control_c, 0, 64, 74
1, 139028, Note_off_c, 0, 62, 0
1, 139046, Control_c, 0, 64, 65
1, 139065, Control_c, 0, 64, 58
1, 139083, Control_c, 0, 64, 51
1, 139102, Control_c, 0, 64, 43
1, 139119, Control_c, 0, 64, 33
1, 139138, Control_c, 0, 64, 21
1, 139156, Control_c, 0, 64, 11
1, 139158, Control_c, 0, 67, 70
1, 139412, Note_off_c, 0, 67, 0
1, 139443, Note_on_c, 0, 66, 44
1, 139564, Control_c, 0, 64, 22
1, 139583, Control_c, 0, 64, 35
1, 139603, Control_c, 0, 64, 49
1, 139621, Control_c, 0, 64, 61
1, 139639, Control_c, 0, 64, 67
1, 139658, Control_c, 0, 64, 71
1, 139677, Control_c, 0, 64, 75
1, 139696, Control_c, 0, 64, 81
1, 139714, Control_c, 0, 64, 88
1, 139725, Note_off_c, 0, 66, 0
1, 139730, Control_c, 0, 64, 96
1, 139750, Control_c, 0, 64, 105
1, 139769, Control_c, 0, 64, 113
1, 139797, Control_c, 0, 64, 121
1, 139816, Control_c, 0, 64, 126
1, 139842, Note_off_c, 0, 50, 0
1, 140234, Note_on_c, 0, 66, 44
1, 140260, Control_c, 0, 64, 122
1, 140266, Note_on_c, 0, 43, 36
1, 140280, Control_c, 0, 64, 115
1, 140298, Control_c, 0, 64, 107
1, 140317, Control_c, 0, 64, 98
1, 140336, Control_c, 0, 64, 89
1, 140354, Control_c, 0, 64, 80
1, 140371, Control_c, 0, 64, 69
1, 140391, Control_c, 0, 64, 59
1, 140409, Control_c, 0, 64, 51
1, 140427, Control_c, 0, 64, 43
1, 140447, Control_c, 0, 64, 34
1, 140465, Control_c, 0, 64, 27
1, 141431, Note_on_c, 0, 67, 36
1, 141436, Note_off_c, 0, 66, 0
1, 142079, Control_c, 0, 64, 31
1, 142116, Control_c, 0, 64, 36
1, 142153, Control_c, 0, 64, 42
1, 142170, Control_c, 0, 64, 46
1, 142188, Control_c, 0, 64, 49
1, 142208, Control_c, 0, 64, 52
1, 142226, Control_c, 0, 64, 55
1, 142245, Control_c, 0, 64, 57
1, 142283, Control_c, 0, 64, 60
1, 142300, Control_c, 0, 64, 61
1, 142320, Control_c, 0, 64, 63
1, 142339, Control_c, 0, 64, 64
1, 142356, Control_c, 0, 64, 65
1, 142374, Control_c, 0, 64, 67
1, 142393, Control_c, 0, 64, 69
1, 142412, Control_c, 0, 64, 71
1, 142431, Control_c, 0, 64, 73
1, 142432, Control_c, 0, 67, 66
1, 142449, Control_c, 0, 64, 75
1, 142467, Control_c, 0, 64, 78
1, 142487, Control_c, 0, 64, 81
1, 142505, Control_c, 0, 64, 84
1, 142523, Control_c, 0, 64, 87
1, 142559, Control_c, 0, 64, 93
1, 142606, Control_c, 0, 64, 99
1, 142644, Control_c, 0, 64, 105
1, 142681, Control_c, 0, 64, 111
1, 142719, Control_c, 0, 64, 116
1, 143825, Note_off_c, 0, 59, 0
1, 143932, Note_off_c, 0, 67, 0
1, 143937, Note_off_c, 0, 43, 0
1, 144248, Control_c, 0, 64, 108
1, 144266, Control_c, 0, 64, 100
1, 144286, Control_c, 0, 64, 88
1, 144304, Control_c, 0, 64, 76
1, 144322, Control_c, 0, 64, 64
1, 144342, Control_c, 0, 64, 56
1, 144358, Control_c, 0, 64, 51
1, 144377, Control_c, 0, 64, 45
1, 144395, Control_c, 0, 64, 39
1, 144415, Control_c, 0, 64, 35
1, 144710, Note_on_c, 0, 67, 79
1, 144721, Note_on_c, 0, 43, 73
1, 144762, Note_off_c, 0, 43, 0
1, 144769, Note_off_c, 0, 67, 0
1, 144884, Note_on_c, 0, 66, 71
1, 144933, Note_off_c, 0, 66, 0
1, 145061, Note_on_c, 0, 67, 76
1, 145062, Note_on_c, 0, 59, 51
1, 145091, Note_off_c, 0, 59, 0
1, 145218, Note_on_c, 0, 57, 55
1, 145259, Note_off_c, 0, 57, 0
1, 145386, Note_on_c, 0, 59, 80
1, 145433, Note_off_c, 0, 59, 0
1, 145443, Note_off_c, 0, 67, 0
1, 145545, Note_on_c, 0, 62, 73
1, 145606, Note_off_c, 0, 62, 0
1, 145711, Note_on_c, 0, 64, 78
1, 145717, Note_on_c, 0, 55, 70
1, 145754, Note_off_c, 0, 55, 0
1, 145771, Note_off_c, 0, 64, 0
1, 145803, Control_c, 0, 67, 62
1, 145867, Note_on_c, 0, 66, 76
1, 145928, Note_off_c, 0, 66, 0
1, 146029, Note_on_c, 0, 67, 83
1, 146033, Note_on_c, 0, 43, 80
1, 146076, Note_off_c, 0, 43, 0
1, 146095, Note_off_c, 0, 67, 0
1, 146192, Note_on_c, 0, 69, 80
1, 146259, Note_off_c, 0, 69, 0
1, 146371, Note_on_c, 0, 71, 79
1, 146377, Note_on_c, 0, 55, 80
1, 146417, Note_off_c, 0, 55, 0
1, 146436, Note_off_c, 0, 71, 0
1, 146526, Note_on_c, 0, 73, 80
1, 146591, Note_off_c, 0, 73, 0
1, 146689, Note_on_c, 0, 74, 85
1, 146689, Note_on_c, 0, 42, 82
1, 146712, Control_c, 0, 67, 58
1, 146758, Note_off_c, 0, 42, 0
1, 146761, Note_off_c, 0, 74, 0
1, 146842, Note_on_c, 0, 73, 81
1, 146911, Note_off_c, 0, 73, 0
1, 147010, Note_on_c, 0, 74, 85
1, 147019, Note_on_c, 0, 54, 60
1, 147056, Note_off_c, 0, 54, 0
1, 147181, Note_on_c, 0, 52, 52
1, 147214, Note_off_c, 0, 52, 0
1, 147367, Note_on_c, 0, 54, 74
1, 147407, Note_off_c, 0, 54, 0
1, 147420, Note_off_c, 0, 74, 0
1, 147516, Note_on_c, 0, 69, 79
1, 147584, Note_off_c, 0, 69, 0
1, 147683, Note_on_c, 0, 71, 79
1, 147693, Note_on_c, 0, 50, 71
1, 147734, Note_off_c, 0, 50, 0
1, 147741, Note_off_c, 0, 71, 0
1, 147837, Note_on_c, 0, 73, 82
1, 147902, Note_off_c, 0, 73, 0
1, 148015, Note_on_c, 0, 74, 87
1, 148021, Note_on_c, 0, 42, 81
1, 148079, Note_off_c, 0, 74, 0
1, 148085, Note_off_c, 0, 42, 0
1, 148130, Control_c, 0, 67, 54
1, 148165, Note_on_c, 0, 76, 81
1, 148309, Note_off_c, 0, 76, 0
1, 148330, Control_c, 0, 67, 50
1, 148404, Note_on_c, 0, 78, 85
1, 148410, Note_on_c, 0, 50, 81
1, 148470, Note_off_c, 0, 78, 0
1, 148471, Note_off_c, 0, 50, 0
1, 148477, Control_c, 0, 67, 45
1, 148554, Control_c, 0, 67, 41
1, 148565, Note_on_c, 0, 74, 80
1, 148637, Note_off_c, 0, 74, 0
1, 148734, Note_on_c, 0, 79, 86
1, 148740, Note_on_c, 0, 40, 84
1, 148808, Note_off_c, 0, 40, 0
1, 148810, Note_off_c, 0, 79, 0
1, 148813, Control_c, 0, 67, 37
1, 148897, Note_on_c, 0, 78, 77
1, 148967, Note_off_c, 0, 78, 0
1, 149063, Note_on_c, 0, 79, 84
1, 149067, Note_on_c, 0, 52, 67
1, 149105, Note_off_c, 0, 52, 0
1, 149212, Control_c, 0, 67, 33
1, 149234, Note_on_c, 0, 50, 70
1, 149272, Note_off_c, 0, 50, 0
1, 149379, Control_c, 0, 67, 29
1, 149419, Note_on_c, 0, 52, 79
1, 149460, Note_off_c, 0, 52, 0
1, 149509, Note_off_c, 0, 79, 0
1, 149580, Note_on_c, 0, 78, 78
1, 149583, Control_c, 0, 67, 24
1, 149639, Control_c, 0, 67, 20
1, 149645, Note_off_c, 0, 78, 0
1, 149712, Control_c, 0, 67, 16
1, 149748, Note_on_c, 0, 76, 81
1, 149758, Note_on_c, 0, 55, 74
1, 149770, Control_c, 0, 67, 12
1, 149801, Note_off_c, 0, 76, 0
1, 149815, Note_off_c, 0, 55, 0
1, 149823, Control_c, 0, 67, 8
1, 149906, Note_on_c, 0, 74, 80
1, 149974, Note_off_c, 0, 74, 0
1, 150083, Note_on_c, 0, 45, 77
1, 150085, Note_on_c, 0, 73, 82
1, 150111, Control_c, 0, 67, 0
1, 150128, Note_off_c, 0, 45, 0
1, 150149, Note_off_c, 0, 73, 0
1, 150246, Note_on_c, 0, 76, 82
1, 150318, Note_off_c, 0, 76, 0
1, 150407, Note_on_c, 0, 69, 77
1, 150426, Note_on_c, 0, 61, 75
1, 150465, Note_off_c, 0, 69, 0
1, 150496, Note_off_c, 0, 61, 0
1, 150567, Note_on_c, 0, 67, 75
1, 150637, Note_off_c, 0, 67, 0
1, 150744, Note_on_c, 0, 66, 79
1, 150752, Note_on_c, 0, 50, 78
1, 150799, Note_off_c, 0, 50, 0
1, 150808, Note_off_c, 0, 66, 0
1, 150901, Note_on_c, 0, 64, 76
1, 150960, Note_off_c, 0, 64, 0
1, 151074, Note_on_c, 0, 62, 71
1, 151081, Note_on_c, 0, 54, 63
1, 151119, Note_off_c, 0, 54, 0
1, 151119, Note_off_c, 0, 62, 0
1, 151225, Note_on_c, 0, 61, 68
1, 151227, Note_on_c, 0, 52, 59
1, 151267, Note_off_c, 0, 52, 0
1, 151284, Note_off_c, 0, 61, 0
1, 151394, Note_on_c, 0, 62, 67
1, 151398, Note_on_c, 0, 54, 62
1, 151436, Note_off_c, 0, 54, 0
1, 151456, Note_off_c, 0, 62, 0
1, 151547, Note_on_c, 0, 66, 72
1, 151606, Note_off_c, 0, 66, 0
1, 151720, Note_on_c, 0, 57, 71
1, 151729, Note_on_c, 0, 50, 65
1, 151764, Note_off_c, 0, 50, 0
1, 151766, Note_off_c, 0, 57, 0
1, 151881, Note_on_c, 0, 55, 69
1, 151922, Note_off_c, 0, 55, 0
1, 152065, Note_on_c, 0, 54, 64
1, 152078, Note_on_c, 0, 38, 47
1, 152106, Note_off_c, 0, 54, 0
1, 152237, Note_on_c, 0, 57, 57
1, 152279, Note_off_c, 0, 57, 0
1, 152323, Note_off_c, 0, 38, 0
1, 152421, Note_on_c, 0, 50, 55
1, 152575, Note_on_c, 0, 48, 57
1, 152617, Note_off_c, 0, 48, 0
1, 152656, Note_off_c, 0, 50, 0
1, 152746, Note_on_c, 0, 47, 75
1, 152789, Note_off_c, 0, 47, 0
1, 152920, Note_on_c, 0, 45, 64
1, 152961, Note_off_c, 0, 45, 0
1, 153088, Note_on_c, 0, 74, 75
1, 153092, Note_on_c, 0, 47, 61
1, 153140, Note_off_c, 0, 74, 0
1, 153253, Note_on_c, 0, 72, 75
1, 153301, Note_off_c, 0, 72, 0
1, 153425, Note_on_c, 0, 74, 86
1, 153434, Note_off_c, 0, 47, 0
1, 153490, Note_off_c, 0, 74, 0
1, 153581, Note_on_c, 0, 50, 64
1, 153628, Note_off_c, 0, 50, 0
1, 153742, Note_on_c, 0, 67, 79
1, 153754, Note_on_c, 0, 52, 70
1, 153796, Note_off_c, 0, 67, 0
1, 153800, Note_off_c, 0, 52, 0
1, 153913, Note_on_c, 0, 54, 73
1, 153952, Note_off_c, 0, 54, 0
1, 154079, Note_on_c, 0, 55, 71
1, 154087, Note_on_c, 0, 59, 81
1, 154123, Note_off_c, 0, 55, 0
1, 154137, Note_off_c, 0, 59, 0
1, 154242, Note_on_c, 0, 57, 70
1, 154285, Note_off_c, 0, 57, 0
1, 154420, Note_on_c, 0, 74, 80
1, 154425, Note_on_c, 0, 59, 75
1, 154471, Note_off_c, 0, 59, 0
1, 154580, Note_on_c, 0, 55, 70
1, 154616, Note_off_c, 0, 74, 0
1, 154622, Note_off_c, 0, 55, 0
1, 154765, Note_on_c, 0, 48, 85
1, 154818, Note_off_c, 0, 48, 0
1, 154919, Note_on_c, 0, 47, 75
1, 154955, Note_off_c, 0, 47, 0
1, 155101, Note_on_c, 0, 76, 81
1, 155107, Note_on_c, 0, 48, 76
1, 155176, Note_off_c, 0, 76, 0
1, 155261, Note_on_c, 0, 74, 84
1, 155332, Note_off_c, 0, 74, 0
1, 155434, Note_on_c, 0, 76, 88
1, 155435, Note_off_c, 0, 48, 0
1, 155511, Note_off_c, 0, 76, 0
1, 155600, Note_on_c, 0, 52, 68
1, 155649, Note_off_c, 0, 52, 0
1, 155774, Note_on_c, 0, 69, 84
1, 155782, Note_on_c, 0, 54, 73
1, 155829, Note_off_c, 0, 54, 0
1, 155832, Note_off_c, 0, 69, 0
1, 155939, Note_on_c, 0, 55, 71
1, 155976, Note_off_c, 0, 55, 0
1, 156101, Note_on_c, 0, 60, 81
1, 156103, Note_on_c, 0, 57, 76
1, 156147, Note_off_c, 0, 60, 0
1, 156158, Note_off_c, 0, 57, 0
1, 156270, Note_on_c, 0, 59, 70
1, 156315, Note_off_c, 0, 59, 0
1, 156438, Note_on_c, 0, 76, 83
1, 156444, Note_on_c, 0, 60, 76
1, 156490, Note_off_c, 0, 60, 0
1, 156605, Note_on_c, 0, 57, 73
1, 156657, Note_off_c, 0, 57, 0
1, 156721, Note_off_c, 0, 76, 0
1, 156781, Note_on_c, 0, 50, 88
1, 156838, Note_off_c, 0, 50, 0
1, 156944, Note_on_c, 0, 49, 75
1, 156986, Note_off_c, 0, 49, 0
1, 157108, Note_on_c, 0, 50, 78
1, 157110, Note_on_c, 0, 78, 85
1, 157171, Note_off_c, 0, 78, 0
1, 157274, Note_on_c, 0, 76, 82
1, 157334, Note_off_c, 0, 76, 0
1, 157443, Note_off_c, 0, 50, 0
1, 157452, Note_on_c, 0, 78, 90
1, 157519, Note_off_c, 0, 78, 0
1, 157616, Note_on_c, 0, 57, 73
1, 157664, Note_off_c, 0, 57, 0
1, 157787, Note_on_c, 0, 74, 85
1, 157790, Note_on_c, 0, 59, 79
1, 157846, Note_off_c, 0, 59, 0
1, 157850, Note_off_c, 0, 74, 0
1, 157948, Note_on_c, 0, 60, 77
1, 158006, Note_off_c, 0, 60, 0
1, 158114, Note_on_c, 0, 81, 88
1, 158125, Note_on_c, 0, 62, 74
1, 158173, Note_off_c, 0, 62, 0
1, 158189, Note_off_c, 0, 81, 0
1, 158278, Note_on_c, 0, 64, 78
1, 158322, Note_off_c, 0, 64, 0
1, 158447, Note_on_c, 0, 72, 85
1, 158449, Note_on_c, 0, 66, 69
1, 158508, Note_off_c, 0, 66, 0
1, 158638, Note_on_c, 0, 62, 65
1, 158674, Note_off_c, 0, 62, 0
1, 158800, Note_on_c, 0, 67, 76
1, 158867, Note_off_c, 0, 67, 0
1, 158954, Note_on_c, 0, 66, 73
1, 159001, Note_off_c, 0, 66, 0
1, 159023, Note_off_c, 0, 72, 0
1, 159134, Note_on_c, 0, 71, 72
1, 159149, Note_on_c, 0, 67, 60
1, 159192, Note_off_c, 0, 67, 0
1, 159299, Note_on_c, 0, 62, 64
1, 159337, Note_off_c, 0, 62, 0
1, 159458, Note_on_c, 0, 59, 63
1, 159485, Note_off_c, 0, 59, 0
1, 159507, Note_off_c, 0, 71, 0
1, 159627, Note_on_c, 0, 67, 69
1, 159630, Note_on_c, 0, 62, 57
1, 159667, Note_off_c, 0, 67, 0
1, 159675, Note_off_c, 0, 62, 0
1, 159795, Note_on_c, 0, 55, 57
1, 159795, Note_on_c, 0, 71, 68
1, 159833, Note_off_c, 0, 71, 0
1, 159840, Note_off_c, 0, 55, 0
1, 159952, Note_on_c, 0, 59, 58
1, 159955, Note_on_c, 0, 74, 71
1, 159988, Note_off_c, 0, 59, 0
1, 160001, Note_off_c, 0, 74, 0
1, 160125, Note_on_c, 0, 79, 75
1, 160126, Note_on_c, 0, 50, 64
1, 160163, Note_off_c, 0, 50, 0
1, 160178, Note_off_c, 0, 79, 0
1, 160290, Note_on_c, 0, 74, 77
1, 160290, Note_on_c, 0, 55, 62
1, 160329, Note_off_c, 0, 55, 0
1, 160347, Note_off_c, 0, 74, 0
1, 160465, Note_on_c, 0, 79, 80
1, 160475, Note_on_c, 0, 47, 61
1, 160514, Note_off_c, 0, 47, 0
1, 160523, Note_off_c, 0, 79, 0
1, 160626, Note_on_c, 0, 81, 75
1, 160632, Note_on_c, 0, 50, 59
1, 160673, Note_off_c, 0, 50, 0
1, 160684, Note_off_c, 0, 81, 0
1, 160803, Note_on_c, 0, 83, 86
1, 160821, Note_on_c, 0, 43, 66
1, 160860, Note_off_c, 0, 43, 0
1, 160875, Note_off_c, 0, 83, 0
1, 160967, Note_on_c, 0, 79, 74
1, 161014, Note_off_c, 0, 79, 0
1, 161136, Note_on_c, 0, 74, 69
1, 161154, Note_on_c, 0, 55, 47
1, 161170, Note_off_c, 0, 74, 0
1, 161192, Note_off_c, 0, 55, 0
1, 161292, Note_on_c, 0, 71, 64
1, 161342, Note_off_c, 0, 71, 0
1, 161476, Note_on_c, 0, 67, 63
1, 161489, Note_on_c, 0, 59, 50
1, 161514, Note_off_c, 0, 67, 0
1, 161520, Note_off_c, 0, 59, 0
1, 161632, Note_on_c, 0, 71, 60
1, 161671, Note_off_c, 0, 71, 0
1, 161792, Note_on_c, 0, 74, 70
1, 161799, Note_on_c, 0, 55, 58
1, 161830, Note_off_c, 0, 74, 0
1, 161835, Note_off_c, 0, 55, 0
1, 161963, Note_on_c, 0, 79, 64
1, 162005, Note_off_c, 0, 79, 0
1, 162130, Note_on_c, 0, 83, 84
1, 162147, Note_on_c, 0, 43, 55
1, 162182, Note_off_c, 0, 43, 0
1, 162189, Note_off_c, 0, 83, 0
1, 162305, Note_on_c, 0, 79, 72
1, 162353, Note_off_c, 0, 79, 0
1, 162470, Note_on_c, 0, 55, 56
1, 162474, Note_on_c, 0, 78, 62
1, 162508, Note_off_c, 0, 78, 0
1, 162510, Note_off_c, 0, 55, 0
1, 162637, Note_on_c, 0, 76, 66
1, 162671, Note_off_c, 0, 76, 0
1, 162804, Note_on_c, 0, 81, 81
1, 162812, Note_on_c, 0, 42, 57
1, 162855, Note_off_c, 0, 42, 0
1, 162867, Note_off_c, 0, 81, 0
1, 162966, Note_on_c, 0, 76, 68
1, 163008, Note_off_c, 0, 76, 0
1, 163124, Note_on_c, 0, 73, 69
1, 163151, Note_on_c, 0, 54, 57
1, 163156, Note_off_c, 0, 73, 0
1, 163195, Note_off_c, 0, 54, 0
1, 163301, Note_on_c, 0, 69, 66
1, 163340, Note_off_c, 0, 69, 0
1, 163476, Note_on_c, 0, 66, 70
1, 163485, Note_on_c, 0, 57, 58
1, 163508, Note_off_c, 0, 66, 0
1, 163524, Note_off_c, 0, 57, 0
1, 163638, Note_on_c, 0, 69, 67
1, 163668, Note_off_c, 0, 69, 0
1, 163804, Note_on_c, 0, 73, 60
1, 163809, Note_on_c, 0, 54, 57
1, 163841, Note_off_c, 0, 73, 0
1, 163850, Note_off_c, 0, 54, 0
1, 163954, Note_on_c, 0, 76, 70
1, 163990, Note_off_c, 0, 76, 0
1, 164142, Note_on_c, 0, 81, 82
1, 164150, Note_on_c, 0, 42, 58
1, 164187, Note_off_c, 0, 42, 0
1, 164202, Note_off_c, 0, 81, 0
1, 164296, Note_on_c, 0, 78, 72
1, 164346, Note_off_c, 0, 78, 0
1, 164468, Note_on_c, 0, 76, 68
1, 164482, Note_on_c, 0, 54, 52
1, 164506, Note_off_c, 0, 76, 0
1, 164527, Note_off_c, 0, 54, 0
1, 164638, Note_on_c, 0, 74, 70
1, 164678, Note_off_c, 0, 74, 0
1, 164804, Note_on_c, 0, 79, 82
1, 164814, Note_on_c, 0, 40, 59
1, 164851, Note_off_c, 0, 40, 0
1, 164872, Note_off_c, 0, 79, 0
1, 164963, Note_on_c, 0, 74, 65
1, 164999, Note_off_c, 0, 74, 0
1, 165134, Note_on_c, 0, 71, 62
1, 165150, Note_on_c, 0, 52, 50
1, 165172, Note_off_c, 0, 71, 0
1, 165190, Note_off_c, 0, 52, 0
1, 165292, Note_on_c, 0, 67, 62
1, 165333, Note_off_c, 0, 67, 0
1, 165467, Note_on_c, 0, 64, 69
1, 165473, Note_on_c, 0, 55, 63
1, 165500, Note_off_c, 0, 64, 0
1, 165510, Note_off_c, 0, 55, 0
1, 165614, Note_on_c, 0, 67, 66
1, 165659, Note_off_c, 0, 67, 0
1, 165783, Note_on_c, 0, 52, 58
1, 165795, Note_on_c, 0, 71, 67
1, 165822, Note_off_c, 0, 52, 0
1, 165827, Note_off_c, 0, 71, 0
1, 165949, Note_on_c, 0, 74, 70
1, 165995, Note_off_c, 0, 74, 0
1, 166125, Note_on_c, 0, 79, 84
1, 166133, Note_on_c, 0, 40, 71
1, 166175, Note_off_c, 0, 40, 0
1, 166188, Note_off_c, 0, 79, 0
1, 166291, Note_on_c, 0, 78, 69
1, 166330, Note_off_c, 0, 78, 0
1, 166449, Note_on_c, 0, 76, 74
1, 166472, Note_on_c, 0, 55, 62
1, 166490, Note_off_c, 0, 76, 0
1, 166510, Note_off_c, 0, 55, 0
1, 166615, Note_on_c, 0, 74, 72
1, 166664, Note_off_c, 0, 74, 0
1, 166783, Note_on_c, 0, 73, 78
1, 166797, Note_on_c, 0, 45, 65
1, 166836, Note_off_c, 0, 45, 0
1, 166836, Note_off_c, 0, 73, 0
1, 166953, Note_on_c, 0, 67, 73
1, 166991, Note_off_c, 0, 67, 0
1, 167126, Note_on_c, 0, 64, 70
1, 167133, Note_on_c, 0, 52, 48
1, 167163, Note_off_c, 0, 64, 0
1, 167164, Note_off_c, 0, 52, 0
1, 167279, Note_on_c, 0, 61, 66
1, 167314, Note_off_c, 0, 61, 0
1, 167441, Note_on_c, 0, 57, 68
1, 167453, Note_on_c, 0, 55, 59
1, 167482, Note_off_c, 0, 57, 0
1, 167490, Note_off_c, 0, 55, 0
1, 167593, Note_on_c, 0, 61, 67
1, 167628, Note_off_c, 0, 61, 0
1, 167761, Note_on_c, 0, 52, 54
1, 167771, Note_on_c, 0, 64, 68
1, 167793, Note_off_c, 0, 52, 0
1, 167805, Note_off_c, 0, 64, 0
1, 167933, Note_on_c, 0, 67, 67
1, 167965, Note_off_c, 0, 67, 0
1, 168104, Note_on_c, 0, 73, 74
1, 168114, Note_on_c, 0, 45, 61
1, 168152, Note_off_c, 0, 73, 0
1, 168154, Note_off_c, 0, 45, 0
1, 168258, Note_on_c, 0, 76, 69
1, 168297, Note_off_c, 0, 76, 0
1, 168427, Note_on_c, 0, 74, 69
1, 168436, Note_on_c, 0, 55, 53
1, 168468, Note_off_c, 0, 55, 0
1, 168468, Note_off_c, 0, 74, 0
1, 168583, Note_on_c, 0, 73, 63
1, 168627, Note_off_c, 0, 73, 0
1, 168755, Note_on_c, 0, 74, 82
1, 168760, Note_on_c, 0, 54, 63
1, 168807, Note_off_c, 0, 54, 0
1, 168808, Note_off_c, 0, 74, 0
1, 168929, Note_on_c, 0, 57, 50
1, 168961, Note_off_c, 0, 57, 0
1, 169088, Note_on_c, 0, 54, 69
1, 169096, Note_on_c, 0, 62, 61
1, 169122, Note_off_c, 0, 54, 0
1, 169133, Note_off_c, 0, 62, 0
1, 169251, Note_on_c, 0, 66, 67
1, 169288, Note_off_c, 0, 66, 0
1, 169429, Note_on_c, 0, 54, 71
1, 169435, Note_on_c, 0, 69, 64
1, 169456, Note_off_c, 0, 54, 0
1, 169467, Note_off_c, 0, 69, 0
1, 169589, Note_on_c, 0, 66, 58
1, 169625, Note_off_c, 0, 66, 0
1, 169760, Note_on_c, 0, 69, 73
1, 169800, Note_on_c, 0, 62, 52
1, 169833, Note_off_c, 0, 62, 0
1, 169935, Note_on_c, 0, 57, 54
1, 169966, Note_off_c, 0, 57, 0
1, 170091, Note_on_c, 0, 74, 81
1, 170115, Note_on_c, 0, 54, 52
1, 170137, Note_off_c, 0, 69, 0
1, 170146, Note_off_c, 0, 54, 0
1, 170268, Note_on_c, 0, 57, 62
1, 170308, Note_off_c, 0, 57, 0
1, 170422, Note_on_c, 0, 78, 83
1, 170440, Note_on_c, 0, 50, 55
1, 170443, Note_off_c, 0, 74, 0
1, 170476, Note_off_c, 0, 50, 0
1, 170527, Control_c, 0, 64, 31
1, 170601, Note_on_c, 0, 54, 56
1, 170639, Note_off_c, 0, 54, 0
1, 170790, Note_off_c, 0, 78, 0
1, 170790, Note_on_c, 0, 71, 81
1, 170792, Note_on_c, 0, 55, 60
1, 170830, Note_off_c, 0, 55, 0
1, 170833, Note_off_c, 0, 71, 0
1, 170945, Note_on_c, 0, 59, 62
1, 170984, Note_off_c, 0, 59, 0
1, 171115, Note_on_c, 0, 55, 79
1, 171121, Note_on_c, 0, 62, 61
1, 171155, Note_off_c, 0, 55, 0
1, 171156, Note_off_c, 0, 62, 0
1, 171270, Note_on_c, 0, 67, 63
1, 171309, Note_off_c, 0, 67, 0
1, 171448, Note_on_c, 0, 71, 72
1, 171448, Note_on_c, 0, 55, 80
1, 171482, Note_off_c, 0, 55, 0
1, 171485, Note_off_c, 0, 71, 0
1, 171614, Note_on_c, 0, 67, 60
1, 171642, Note_off_c, 0, 67, 0
1, 171778, Note_on_c, 0, 62, 64
1, 171780, Note_on_c, 0, 71, 83
1, 171822, Note_off_c, 0, 62, 0
1, 171934, Note_on_c, 0, 59, 68
1, 171971, Note_off_c, 0, 59, 0
1, 172102, Note_on_c, 0, 76, 85
1, 172118, Note_on_c, 0, 55, 68
1, 172139, Note_off_c, 0, 71, 0
1, 172157, Note_off_c, 0, 55, 0
1, 172268, Note_on_c, 0, 59, 70
1, 172307, Note_off_c, 0, 59, 0
1, 172434, Note_on_c, 0, 79, 86
1, 172442, Note_on_c, 0, 52, 62
1, 172443, Note_off_c, 0, 76, 0
1, 172486, Note_off_c, 0, 52, 0
1, 172611, Note_on_c, 0, 55, 73
1, 172642, Note_off_c, 0, 55, 0
1, 172776, Note_on_c, 0, 73, 80
1, 172778, Note_on_c, 0, 57, 74
1, 172781, Note_off_c, 0, 79, 0
1, 172831, Note_off_c, 0, 57, 0
1, 172844, Note_off_c, 0, 73, 0
1, 172938, Note_on_c, 0, 76, 82
1, 172991, Note_off_c, 0, 76, 0
1, 173110, Note_on_c, 0, 69, 81
1, 173116, Note_on_c, 0, 61, 78
1, 173157, Note_off_c, 0, 61, 0
1, 173169, Note_off_c, 0, 69, 0
1, 173268, Note_on_c, 0, 67, 75
1, 173321, Note_off_c, 0, 67, 0
1, 173437, Note_on_c, 0, 66, 77
1, 173438, Note_on_c, 0, 62, 77
1, 173495, Note_off_c, 0, 62, 0
1, 173495, Note_off_c, 0, 66, 0
1, 173604, Note_on_c, 0, 57, 71
1, 173610, Note_on_c, 0, 69, 76
1, 173650, Note_off_c, 0, 57, 0
1, 173658, Note_off_c, 0, 69, 0
1, 173760, Note_on_c, 0, 54, 66
1, 173769, Note_on_c, 0, 74, 80
1, 173802, Note_off_c, 0, 54, 0
1, 173822, Note_off_c, 0, 74, 0
1, 173915, Note_on_c, 0, 50, 72
1, 173921, Note_on_c, 0, 78, 79
1, 173950, Note_off_c, 0, 50, 0
1, 173986, Note_off_c, 0, 78, 0
1, 174091, Note_on_c, 0, 79, 85
1, 174096, Note_on_c, 0, 57, 84
1, 174132, Note_off_c, 0, 57, 0
1, 174155, Note_off_c, 0, 79, 0
1, 174245, Note_on_c, 0, 76, 79
1, 174292, Note_off_c, 0, 76, 0
1, 174423, Note_on_c, 0, 74, 78
1, 174424, Note_on_c, 0, 45, 87
1, 174467, Note_off_c, 0, 45, 0
1, 174476, Note_off_c, 0, 74, 0
1, 174577, Note_on_c, 0, 73, 74
1, 174636, Note_off_c, 0, 73, 0
1, 174765, Note_on_c, 0, 78, 86
1, 174766, Note_on_c, 0, 38, 81
1, 174821, Note_off_c, 0, 38, 0
1, 174829, Note_off_c, 0, 78, 0
1, 174930, Note_on_c, 0, 74, 80
1, 174931, Note_on_c, 0, 50, 58
1, 174977, Note_off_c, 0, 74, 0
1, 174983, Note_off_c, 0, 50, 0
1, 175096, Note_on_c, 0, 73, 79
1, 175099, Note_on_c, 0, 52, 69
1, 175140, Note_off_c, 0, 52, 0
1, 175150, Note_off_c, 0, 73, 0
1, 175247, Note_on_c, 0, 71, 81
1, 175258, Note_on_c, 0, 54, 66
1, 175292, Note_off_c, 0, 54, 0
1, 175295, Note_off_c, 0, 71, 0
1, 175419, Note_on_c, 0, 55, 71
1, 175422, Note_on_c, 0, 69, 81
1, 175465, Note_off_c, 0, 55, 0
1, 175468, Note_off_c, 0, 69, 0
1, 175588, Note_on_c, 0, 67, 80
1, 175589, Note_on_c, 0, 57, 73
1, 175626, Note_off_c, 0, 57, 0
1, 175639, Note_off_c, 0, 67, 0
1, 175749, Note_on_c, 0, 66, 79
1, 175757, Note_on_c, 0, 59, 68
1, 175793, Note_off_c, 0, 59, 0
1, 175804, Note_off_c, 0, 66, 0
1, 175906, Control_c, 0, 64, 27
1, 175916, Note_on_c, 0, 61, 75
1, 175919, Note_on_c, 0, 64, 85
1, 175963, Note_off_c, 0, 61, 0
1, 175964, Note_off_c, 0, 64, 0
1, 176120, Note_on_c, 0, 62, 86
1, 176127, Control_c, 0, 64, 23
1, 176277, Control_c, 0, 64, 19
1, 176507, Note_off_c, 0, 62, 0
1, 176878, Control_c, 0, 64, 38
1, 176897, Control_c, 0, 64, 60
1, 176902, Note_on_c, 0, 78, 85
1, 176910, Note_on_c, 0, 38, 90
1, 176916, Control_c, 0, 64, 74
1, 176934, Control_c, 0, 64, 82
1, 176957, Note_off_c, 0, 38, 0
1, 176964, Note_off_c, 0, 78, 0
1, 176973, Control_c, 0, 64, 72
1, 176992, Control_c, 0, 64, 56
1, 177008, Control_c, 0, 64, 37
1, 177028, Control_c, 0, 64, 16
1, 177046, Control_c, 0, 64, 0
1, 177065, Note_on_c, 0, 79, 82
1, 177131, Note_off_c, 0, 79, 0
1, 177253, Note_on_c, 0, 81, 87
1, 177262, Note_on_c, 0, 54, 64
1, 177301, Note_off_c, 0, 54, 0
1, 177413, Note_on_c, 0, 52, 70
1, 177455, Note_off_c, 0, 52, 0
1, 177599, Note_on_c, 0, 54, 75
1, 177627, Note_off_c, 0, 81, 0
1, 177635, Note_off_c, 0, 54, 0
1, 177754, Note_on_c, 0, 83, 79
1, 177827, Note_off_c, 0, 83, 0
1, 177924, Note_on_c, 0, 50, 74
1, 177926, Note_on_c, 0, 81, 81
1, 177972, Note_off_c, 0, 50, 0
1, 177992, Note_off_c, 0, 81, 0
1, 178083, Note_on_c, 0, 79, 79
1, 178145, Note_off_c, 0, 79, 0
1, 178265, Note_on_c, 0, 38, 84
1, 178270, Note_on_c, 0, 78, 83
1, 178308, Note_off_c, 0, 38, 0
1, 178320, Note_off_c, 0, 78, 0
1, 178428, Note_on_c, 0, 76, 79
1, 178491, Note_off_c, 0, 76, 0
1, 178601, Note_on_c, 0, 74, 80
1, 178611, Note_on_c, 0, 54, 75
1, 178663, Note_off_c, 0, 54, 0
1, 178666, Note_off_c, 0, 74, 0
1, 178762, Note_on_c, 0, 72, 73
1, 178819, Note_off_c, 0, 72, 0
1, 178941, Note_on_c, 0, 43, 92
1, 178942, Note_on_c, 0, 71, 82
1, 178997, Note_off_c, 0, 71, 0
1, 179008, Note_off_c, 0, 43, 0
1, 179109, Note_on_c, 0, 72, 77
1, 179167, Note_off_c, 0, 72, 0
1, 179288, Note_on_c, 0, 74, 83
1, 179291, Note_on_c, 0, 59, 69
1, 179331, Note_off_c, 0, 59, 0
1, 179450, Note_on_c, 0, 57, 67
1, 179491, Note_off_c, 0, 57, 0
1, 179632, Note_on_c, 0, 59, 81
1, 179668, Note_off_c, 0, 59, 0
1, 179682, Note_off_c, 0, 74, 0
1, 179779, Note_on_c, 0, 76, 77
1, 179846, Note_off_c, 0, 76, 0
1, 179952, Note_on_c, 0, 74, 80
1, 179961, Note_on_c, 0, 55, 76
1, 180012, Note_off_c, 0, 55, 0
1, 180021, Note_off_c, 0, 74, 0
1, 180125, Note_on_c, 0, 72, 74
1, 180182, Note_off_c, 0, 72, 0
1, 180297, Note_on_c, 0, 43, 87
1, 180298, Note_on_c, 0, 71, 79
1, 180349, Note_off_c, 0, 71, 0
1, 180359, Note_off_c, 0, 43, 0
1, 180460, Note_on_c, 0, 69, 79
1, 180516, Note_off_c, 0, 69, 0
1, 180641, Note_on_c, 0, 59, 82
1, 180642, Note_on_c, 0, 67, 73
1, 180687, Note_off_c, 0, 67, 0
1, 180701, Note_off_c, 0, 59, 0
1, 180796, Note_on_c, 0, 66, 76
1, 180847, Note_off_c, 0, 66, 0
1, 180983, Note_on_c, 0, 64, 79
1, 180985, Note_on_c, 0, 48, 86
1, 181046, Note_off_c, 0, 64, 0
1, 181050, Note_off_c, 0, 48, 0
1, 181131, Note_on_c, 0, 68, 71
1, 181184, Note_off_c, 0, 68, 0
1, 181312, Note_on_c, 0, 69, 72
1, 181312, Note_on_c, 0, 60, 66
1, 181350, Note_off_c, 0, 60, 0
1, 181362, Note_off_c, 0, 69, 0
1, 181462, Note_on_c, 0, 59, 75
1, 181470, Note_on_c, 0, 71, 73
1, 181497, Note_off_c, 0, 59, 0
1, 181526, Note_off_c, 0, 71, 0
1, 181642, Note_on_c, 0, 69, 74
1, 181647, Note_on_c, 0, 60, 76
1, 181688, Note_off_c, 0, 69, 0
1, 181701, Note_off_c, 0, 60, 0
1, 181803, Note_on_c, 0, 64, 72
1, 181860, Note_off_c, 0, 64, 0
1, 181978, Note_on_c, 0, 69, 80
1, 181983, Note_on_c, 0, 54, 77
1, 182037, Note_off_c, 0, 54, 0
1, 182042, Note_off_c, 0, 69, 0
1, 182135, Note_on_c, 0, 71, 78
1, 182194, Note_off_c, 0, 71, 0
1, 182309, Note_on_c, 0, 72, 82
1, 182313, Note_on_c, 0, 57, 83
1, 182356, Note_off_c, 0, 72, 0
1, 182372, Note_off_c, 0, 57, 0
1, 182464, Note_on_c, 0, 69, 77
1, 182520, Note_off_c, 0, 69, 0
1, 182638, Note_on_c, 0, 60, 85
1, 182638, Note_on_c, 0, 75, 81
1, 182689, Note_off_c, 0, 60, 0
1, 182705, Note_off_c, 0, 75, 0
1, 182794, Note_on_c, 0, 76, 77
1, 182871, Note_off_c, 0, 76, 0
1, 182974, Note_on_c, 0, 78, 84
1, 182979, Note_on_c, 0, 57, 80
1, 183030, Note_off_c, 0, 57, 0
1, 183043, Note_off_c, 0, 78, 0
1, 183136, Note_on_c, 0, 76, 80
1, 183189, Note_off_c, 0, 76, 0
1, 183313, Note_on_c, 0, 54, 70
1, 183323, Note_on_c, 0, 75, 69
1, 183352, Note_off_c, 0, 54, 0
1, 183358, Note_off_c, 0, 75, 0
1, 183481, Note_on_c, 0, 73, 65
1, 183515, Note_off_c, 0, 73, 0
1, 183649, Note_on_c, 0, 51, 69
1, 183659, Note_on_c, 0, 71, 73
1, 183686, Note_off_c, 0, 51, 0
1, 183815, Note_on_c, 0, 47, 65
1, 183858, Note_off_c, 0, 47, 0
1, 183989, Note_on_c, 0, 51, 60
1, 184032, Note_off_c, 0, 51, 0
1, 184154, Note_on_c, 0, 54, 58
1, 184193, Note_off_c, 0, 54, 0
1, 184326, Note_on_c, 0, 59, 69
1, 184367, Note_off_c, 0, 59, 0
1, 184483, Note_on_c, 0, 63, 66
1, 184521, Note_off_c, 0, 63, 0
1, 184637, Note_on_c, 0, 66, 62
1, 184672, Note_off_c, 0, 66, 0
1, 184820, Note_on_c, 0, 69, 67
1, 184854, Note_off_c, 0, 69, 0
1, 184976, Note_off_c, 0, 71, 0
1, 185009, Note_on_c, 0, 67, 75
1, 185171, Note_on_c, 0, 75, 65
1, 185211, Note_off_c, 0, 75, 0
1, 185327, Note_off_c, 0, 67, 0
1, 185341, Note_on_c, 0, 76, 72
1, 185500, Note_on_c, 0, 66, 66
1, 185533, Note_off_c, 0, 66, 0
1, 185585, Note_off_c, 0, 76, 0
1, 185697, Note_on_c, 0, 67, 69
1, 185838, Note_on_c, 0, 63, 66
1, 185889, Note_off_c, 0, 63, 0
1, 185899, Note_off_c, 0, 67, 0
1, 186025, Note_on_c, 0, 64, 69
1, 186182, Note_on_c, 0, 54, 65
1, 186213, Note_off_c, 0, 54, 0
1, 186313, Note_off_c, 0, 64, 0
1, 186360, Note_on_c, 0, 55, 77
1, 186530, Note_on_c, 0, 51, 75
1, 186586, Note_off_c, 0, 51, 0
1, 186586, Note_off_c, 0, 55, 0
1, 186712, Note_on_c, 0, 52, 79
1, 186866, Note_on_c, 0, 47, 75
1, 186913, Note_off_c, 0, 47, 0
1, 186915, Note_off_c, 0, 52, 0
1, 187044, Note_on_c, 0, 48, 83
1, 187211, Note_on_c, 0, 80, 72
1, 187228, Note_off_c, 0, 48, 0
1, 187281, Note_off_c, 0, 80, 0
1, 187382, Note_on_c, 0, 81, 81
1, 187555, Note_on_c, 0, 71, 76
1, 187588, Note_off_c, 0, 71, 0
1, 187673, Note_off_c, 0, 81, 0
1, 187742, Note_on_c, 0, 72, 82
1, 187900, Note_on_c, 0, 68, 72
1, 187961, Note_off_c, 0, 72, 0
1, 187970, Note_off_c, 0, 68, 0
1, 188073, Note_on_c, 0, 69, 79
1, 188232, Note_on_c, 0, 59, 75
1, 188270, Note_off_c, 0, 59, 0
1, 188337, Note_off_c, 0, 69, 0
1, 188411, Note_on_c, 0, 60, 79
1, 188577, Note_on_c, 0, 56, 70
1, 188603, Note_off_c, 0, 60, 0
1, 188641, Note_off_c, 0, 56, 0
1, 188750, Note_on_c, 0, 57, 73
1, 188898, Note_on_c, 0, 52, 65
1, 188945, Note_off_c, 0, 52, 0
1, 189081, Note_on_c, 0, 51, 83
1, 189089, Note_off_c, 0, 57, 0
1, 189140, Note_off_c, 0, 51, 0
1, 189238, Note_on_c, 0, 59, 72
1, 189292, Note_off_c, 0, 59, 0
1, 189420, Note_on_c, 0, 60, 74
1, 189423, Note_on_c, 0, 57, 68
1, 189461, Note_off_c, 0, 57, 0
1, 189466, Note_off_c, 0, 60, 0
1, 189578, Note_on_c, 0, 66, 70
1, 189630, Note_off_c, 0, 66, 0
1, 189754, Note_on_c, 0, 55, 77
1, 189760, Note_on_c, 0, 59, 75
1, 189798, Note_off_c, 0, 59, 0
1, 189800, Note_off_c, 0, 55, 0
1, 189906, Note_on_c, 0, 63, 74
1, 189968, Note_off_c, 0, 63, 0
1, 190081, Note_on_c, 0, 46, 82
1, 190086, Note_on_c, 0, 64, 70
1, 190140, Note_off_c, 0, 64, 0
1, 190156, Note_off_c, 0, 46, 0
1, 190174, Poly_aftertouch_c, 0, 65, 0
1, 190245, Note_on_c, 0, 67, 70
1, 190313, Note_off_c, 0, 67, 0
1, 190433, Note_on_c, 0, 47, 84
1, 190433, Note_on_c, 0, 66, 77
1, 190487, Note_off_c, 0, 66, 0
1, 190492, Note_off_c, 0, 47, 0
1, 190593, Note_on_c, 0, 64, 76
1, 190652, Note_off_c, 0, 64, 0
1, 190760, Note_on_c, 0, 54, 80
1, 190763, Note_on_c, 0, 63, 72
1, 190814, Note_off_c, 0, 63, 0
1, 190832, Note_off_c, 0, 54, 0
1, 190919, Note_on_c, 0, 69, 79
1, 190991, Note_off_c, 0, 69, 0
1, 191106, Note_on_c, 0, 52, 87
1, 191108, Note_on_c, 0, 67, 75
1, 191166, Note_off_c, 0, 52, 0
1, 191169, Note_off_c, 0, 67, 0
1, 191279, Note_on_c, 0, 66, 71
1, 191321, Note_off_c, 0, 66, 0
1, 191454, Note_on_c, 0, 55, 67
1, 191459, Note_on_c, 0, 64, 68
1, 191500, Note_off_c, 0, 64, 0
1, 191503, Note_off_c, 0, 55, 0
1, 191615, Note_on_c, 0, 54, 60
1, 191617, Note_on_c, 0, 63, 70
1, 191651, Note_off_c, 0, 54, 0
1, 191661, Note_off_c, 0, 63, 0
1, 191790, Note_on_c, 0, 64, 76
1, 191796, Note_on_c, 0, 55, 69
1, 191829, Note_off_c, 0, 55, 0
1, 191844, Note_off_c, 0, 64, 0
1, 191947, Note_on_c, 0, 67, 70
1, 191984, Note_off_c, 0, 67, 0
1, 192114, Note_on_c, 0, 59, 69
1, 192134, Note_on_c, 0, 52, 63
1, 192161, Note_off_c, 0, 59, 0
1, 192173, Note_off_c, 0, 52, 0
1, 192289, Note_on_c, 0, 57, 63
1, 192332, Note_off_c, 0, 57, 0
1, 192374, Control_c, 0, 67, 8
1, 192474, Note_on_c, 0, 55, 60
1, 192478, Note_on_c, 0, 40, 54
1, 192509, Note_off_c, 0, 55, 0
1, 192541, Control_c, 0, 67, 12
1, 192641, Note_on_c, 0, 59, 64
1, 192678, Note_off_c, 0, 59, 0
1, 192679, Note_off_c, 0, 40, 0
1, 192835, Note_on_c, 0, 52, 60
1, 192999, Note_on_c, 0, 50, 58
1, 193035, Note_off_c, 0, 50, 0
1, 193036, Note_off_c, 0, 52, 0
1, 193189, Note_on_c, 0, 48, 65
1, 193225, Note_off_c, 0, 48, 0
1, 193347, Note_on_c, 0, 52, 58
1, 193384, Note_off_c, 0, 52, 0
1, 193505, Note_on_c, 0, 76, 77
1, 193518, Note_on_c, 0, 57, 61
1, 193556, Note_off_c, 0, 76, 0
1, 193562, Note_off_c, 0, 57, 0
1, 193684, Note_on_c, 0, 60, 49
1, 193721, Note_off_c, 0, 60, 0
1, 193849, Note_on_c, 0, 72, 80
1, 193858, Note_on_c, 0, 64, 53
1, 193891, Note_off_c, 0, 64, 0
1, 193899, Note_off_c, 0, 72, 0
1, 194012, Note_on_c, 0, 60, 55
1, 194057, Note_off_c, 0, 60, 0
1, 194189, Note_on_c, 0, 76, 77
1, 194191, Note_on_c, 0, 57, 55
1, 194225, Note_off_c, 0, 57, 0
1, 194232, Note_off_c, 0, 76, 0
1, 194350, Note_on_c, 0, 52, 59
1, 194390, Note_off_c, 0, 52, 0
1, 194528, Note_on_c, 0, 81, 80
1, 194537, Note_on_c, 0, 48, 56
1, 194579, Note_off_c, 0, 48, 0
1, 194587, Note_off_c, 0, 81, 0
1, 194689, Note_on_c, 0, 52, 49
1, 194725, Note_off_c, 0, 52, 0
1, 194865, Note_on_c, 0, 50, 51
1, 194868, Note_on_c, 0, 69, 65
1, 194900, Note_off_c, 0, 69, 0
1, 194906, Note_off_c, 0, 50, 0
1, 195035, Note_on_c, 0, 48, 51
1, 195068, Note_off_c, 0, 48, 0
1, 195203, Note_on_c, 0, 47, 69
1, 195242, Note_off_c, 0, 47, 0
1, 195360, Note_on_c, 0, 50, 60
1, 195400, Note_off_c, 0, 50, 0
1, 195528, Note_on_c, 0, 74, 75
1, 195534, Note_on_c, 0, 55, 65
1, 195567, Note_off_c, 0, 74, 0
1, 195571, Note_off_c, 0, 55, 0
1, 195708, Note_on_c, 0, 59, 64
1, 195745, Note_off_c, 0, 59, 0
1, 195865, Note_on_c, 0, 71, 81
1, 195878, Note_on_c, 0, 62, 59
1, 195912, Note_off_c, 0, 71, 0
1, 195918, Note_off_c, 0, 62, 0
1, 196019, Note_on_c, 0, 59, 65
1, 196059, Note_off_c, 0, 59, 0
1, 196200, Note_on_c, 0, 55, 58
1, 196200, Note_on_c, 0, 74, 80
1, 196238, Note_off_c, 0, 55, 0
1, 196244, Note_off_c, 0, 74, 0
1, 196352, Note_on_c, 0, 50, 62
1, 196393, Note_off_c, 0, 50, 0
1, 196538, Note_on_c, 0, 79, 80
1, 196553, Note_on_c, 0, 47, 61
1, 196588, Note_off_c, 0, 47, 0
1, 196596, Note_off_c, 0, 79, 0
1, 196725, Note_on_c, 0, 50, 46
1, 196761, Note_off_c, 0, 50, 0
1, 196898, Note_on_c, 0, 67, 70
1, 196908, Note_on_c, 0, 48, 51
1, 196936, Note_off_c, 0, 67, 0
1, 196941, Note_off_c, 0, 48, 0
1, 197065, Note_on_c, 0, 47, 45
1, 197100, Note_off_c, 0, 47, 0
1, 197238, Note_on_c, 0, 72, 71
1, 197258, Note_on_c, 0, 45, 55
1, 197283, Note_off_c, 0, 72, 0
1, 197301, Note_off_c, 0, 45, 0
1, 197393, Note_on_c, 0, 69, 65
1, 197438, Note_off_c, 0, 69, 0
1, 197572, Note_on_c, 0, 48, 61
1, 197574, Note_on_c, 0, 64, 64
1, 197611, Note_off_c, 0, 64, 0
1, 197615, Note_off_c, 0, 48, 0
1, 197733, Note_on_c, 0, 60, 68
1, 197770, Note_off_c, 0, 60, 0
1, 197912, Note_on_c, 0, 52, 73
1, 197916, Note_on_c, 0, 57, 72
1, 197951, Note_off_c, 0, 57, 0
1, 197957, Note_off_c, 0, 52, 0
1, 198030, Control_c, 0, 67, 8
1, 198070, Note_on_c, 0, 60, 69
1, 198114, Note_off_c, 0, 60, 0
1, 198226, Note_on_c, 0, 55, 69
1, 198235, Note_on_c, 0, 64, 77
1, 198280, Note_off_c, 0, 64, 0
1, 198280, Note_off_c, 0, 55, 0
1, 198401, Note_on_c, 0, 69, 76
1, 198447, Note_off_c, 0, 69, 0
1, 198564, Note_on_c, 0, 72, 83
1, 198572, Note_on_c, 0, 54, 77
1, 198614, Note_off_c, 0, 72, 0
1, 198634, Note_off_c, 0, 54, 0
1, 198727, Note_on_c, 0, 69, 76
1, 198799, Note_off_c, 0, 69, 0
1, 198906, Note_on_c, 0, 72, 79
1, 198910, Note_on_c, 0, 52, 79
1, 198967, Note_off_c, 0, 72, 0
1, 198972, Note_off_c, 0, 52, 0
1, 199064, Note_on_c, 0, 76, 75
1, 199120, Note_off_c, 0, 76, 0
1, 199237, Note_on_c, 0, 78, 87
1, 199248, Note_on_c, 0, 50, 75
1, 199306, Note_off_c, 0, 50, 0
1, 199315, Note_off_c, 0, 78, 0
1, 199395, Note_on_c, 0, 72, 74
1, 199438, Note_off_c, 0, 72, 0
1, 199576, Note_on_c, 0, 54, 72
1, 199577, Note_on_c, 0, 69, 70
1, 199626, Note_off_c, 0, 69, 0
1, 199628, Note_off_c, 0, 54, 0
1, 199749, Note_on_c, 0, 66, 71
1, 199798, Note_off_c, 0, 66, 0
1, 199920, Note_on_c, 0, 62, 78
1, 199922, Note_on_c, 0, 57, 76
1, 199956, Note_off_c, 0, 57, 0
1, 199963, Note_off_c, 0, 62, 0
1, 200078, Note_on_c, 0, 66, 79
1, 200124, Note_off_c, 0, 66, 0
1, 200247, Note_on_c, 0, 69, 82
1, 200253, Note_on_c, 0, 60, 78
1, 200306, Note_off_c, 0, 69, 0
1, 200310, Note_off_c, 0, 60, 0
1, 200405, Note_on_c, 0, 72, 83
1, 200454, Note_off_c, 0, 72, 0
1, 200581, Note_on_c, 0, 78, 80
1, 200582, Note_on_c, 0, 59, 80
1, 200639, Note_off_c, 0, 59, 0
1, 200660, Note_off_c, 0, 78, 0
1, 200755, Note_on_c, 0, 72, 80
1, 200804, Note_off_c, 0, 72, 0
1, 200920, Note_on_c, 0, 78, 85
1, 200923, Note_on_c, 0, 57, 79
1, 200973, Note_off_c, 0, 57, 0
1, 200986, Note_off_c, 0, 78, 0
1, 201085, Note_on_c, 0, 81, 78
1, 201151, Note_off_c, 0, 81, 0
1, 201253, Note_on_c, 0, 83, 88
1, 201266, Note_on_c, 0, 55, 73
1, 201331, Note_off_c, 0, 83, 0
1, 201337, Note_off_c, 0, 55, 0
1, 201413, Note_on_c, 0, 79, 83
1, 201471, Note_off_c, 0, 79, 0
1, 201603, Note_on_c, 0, 59, 80
1, 201604, Note_on_c, 0, 74, 80
1, 201649, Note_off_c, 0, 74, 0
1, 201669, Note_off_c, 0, 59, 0
1, 201758, Note_on_c, 0, 71, 80
1, 201811, Note_off_c, 0, 71, 0
1, 201927, Note_on_c, 0, 67, 80
1, 201932, Note_on_c, 0, 62, 81
1, 201979, Note_off_c, 0, 67, 0
1, 201984, Note_off_c, 0, 62, 0
1, 202090, Note_on_c, 0, 71, 80
1, 202153, Note_off_c, 0, 71, 0
1, 202259, Note_on_c, 0, 74, 83
1, 202271, Note_on_c, 0, 65, 78
1, 202323, Note_off_c, 0, 74, 0
1, 202332, Note_off_c, 0, 65, 0
1, 202423, Note_on_c, 0, 79, 80
1, 202487, Note_off_c, 0, 79, 0
1, 202603, Note_on_c, 0, 83, 86
1, 202615, Note_on_c, 0, 64, 79
1, 202668, Note_off_c, 0, 83, 0
1, 202680, Note_off_c, 0, 64, 0
1, 202764, Note_on_c, 0, 77, 84
1, 202826, Note_off_c, 0, 77, 0
1, 202933, Note_on_c, 0, 83, 81
1, 202940, Note_on_c, 0, 62, 78
1, 202997, Note_off_c, 0, 83, 0
1, 203003, Note_off_c, 0, 62, 0
1, 203096, Note_on_c, 0, 86, 83
1, 203162, Note_off_c, 0, 86, 0
1, 203274, Note_on_c, 0, 76, 83
1, 203285, Note_on_c, 0, 60, 84
1, 203332, Note_off_c, 0, 76, 0
1, 203341, Note_off_c, 0, 60, 0
1, 203444, Note_on_c, 0, 86, 78
1, 203517, Note_off_c, 0, 86, 0
1, 203616, Note_on_c, 0, 84, 85
1, 203621, Note_on_c, 0, 64, 82
1, 203677, Note_off_c, 0, 84, 0
1, 203685, Note_off_c, 0, 64, 0
1, 203778, Note_on_c, 0, 76, 77
1, 203841, Note_off_c, 0, 76, 0
1, 203953, Note_on_c, 0, 74, 80
1, 203960, Note_on_c, 0, 66, 82
1, 203997, Note_off_c, 0, 74, 0
1, 204026, Note_off_c, 0, 66, 0
1, 204111, Note_on_c, 0, 84, 77
1, 204181, Note_off_c, 0, 84, 0
1, 204280, Note_on_c, 0, 83, 84
1, 204289, Note_on_c, 0, 68, 83
1, 204332, Note_off_c, 0, 83, 0
1, 204345, Note_off_c, 0, 68, 0
1, 204517, Note_on_c, 0, 74, 80
1, 204581, Note_off_c, 0, 74, 0
1, 204683, Note_on_c, 0, 72, 81
1, 204690, Note_on_c, 0, 69, 81
1, 204729, Note_off_c, 0, 72, 0
1, 204745, Note_off_c, 0, 69, 0
1, 204834, Note_on_c, 0, 76, 83
1, 204886, Note_off_c, 0, 76, 0
1, 205011, Note_on_c, 0, 67, 78
1, 205012, Note_on_c, 0, 78, 85
1, 205058, Note_off_c, 0, 67, 0
1, 205074, Note_off_c, 0, 78, 0
1, 205167, Note_on_c, 0, 79, 84
1, 205229, Note_off_c, 0, 79, 0
1, 205353, Note_on_c, 0, 81, 88
1, 205361, Note_on_c, 0, 66, 74
1, 205416, Note_off_c, 0, 81, 0
1, 205419, Note_off_c, 0, 66, 0
1, 205517, Note_on_c, 0, 72, 79
1, 205566, Note_off_c, 0, 72, 0
1, 205684, Note_on_c, 0, 71, 79
1, 205697, Note_on_c, 0, 62, 66
1, 205737, Note_off_c, 0, 71, 0
1, 205741, Note_off_c, 0, 62, 0
1, 205842, Note_on_c, 0, 69, 80
1, 205887, Note_off_c, 0, 69, 0
1, 206012, Note_on_c, 0, 71, 84
1, 206019, Note_on_c, 0, 67, 80
1, 206065, Note_off_c, 0, 67, 0
1, 206069, Note_off_c, 0, 71, 0
1, 206166, Note_on_c, 0, 74, 78
1, 206222, Note_off_c, 0, 74, 0
1, 206356, Note_on_c, 0, 71, 76
1, 206358, Note_on_c, 0, 55, 73
1, 206398, Note_off_c, 0, 55, 0
1, 206400, Note_off_c, 0, 71, 0
1, 206508, Note_on_c, 0, 67, 73
1, 206564, Note_off_c, 0, 67, 0
1, 206690, Note_on_c, 0, 62, 78
1, 206691, Note_on_c, 0, 72, 80
1, 206740, Note_off_c, 0, 62, 0
1, 206747, Note_off_c, 0, 72, 0
1, 206852, Note_on_c, 0, 69, 80
1, 206902, Note_off_c, 0, 69, 0
1, 207015, Note_on_c, 0, 67, 79
1, 207020, Note_on_c, 0, 50, 70
1, 207063, Note_off_c, 0, 50, 0
1, 207070, Note_off_c, 0, 67, 0
1, 207188, Note_on_c, 0, 66, 79
1, 207238, Note_off_c, 0, 66, 0
1, 207362, Note_on_c, 0, 55, 77
1, 207367, Note_on_c, 0, 71, 81
1, 207406, Note_off_c, 0, 55, 0
1, 207422, Note_off_c, 0, 71, 0
1, 207524, Note_on_c, 0, 43, 80
1, 207530, Note_on_c, 0, 67, 83
1, 207578, Note_off_c, 0, 67, 0
1, 207592, Note_off_c, 0, 43, 0
1, 207686, Note_on_c, 0, 45, 87
1, 207692, Note_on_c, 0, 66, 73
1, 207751, Note_off_c, 0, 45, 0
1, 207754, Note_off_c, 0, 66, 0
1, 207841, Note_on_c, 0, 64, 79
1, 207847, Note_on_c, 0, 47, 80
1, 207899, Note_off_c, 0, 64, 0
1, 207901, Note_off_c, 0, 47, 0
1, 208008, Note_on_c, 0, 48, 81
1, 208009, Note_on_c, 0, 62, 81
1, 208063, Note_off_c, 0, 62, 0
1, 208068, Note_off_c, 0, 48, 0
1, 208180, Note_on_c, 0, 60, 81
1, 208181, Note_on_c, 0, 50, 80
1, 208241, Note_off_c, 0, 60, 0
1, 208247, Note_off_c, 0, 50, 0
1, 208346, Note_on_c, 0, 52, 81
1, 208347, Note_on_c, 0, 59, 80
1, 208401, Note_off_c, 0, 59, 0
1, 208404, Note_off_c, 0, 52, 0
1, 208516, Note_on_c, 0, 54, 79
1, 208520, Note_on_c, 0, 57, 81
1, 208578, Note_off_c, 0, 57, 0
1, 208578, Note_off_c, 0, 54, 0
1, 208738, Note_on_c, 0, 55, 77
1, 208918, Control_c, 0, 67, 12
1, 208973, Control_c, 0, 67, 16
1, 208990, Control_c, 0, 67, 21
1, 209009, Control_c, 0, 67, 30
1, 209029, Control_c, 0, 67, 37
1, 209057, Control_c, 0, 67, 41
1, 209093, Control_c, 0, 67, 49
1, 209114, Control_c, 0, 67, 53
1, 209149, Control_c, 0, 67, 58
1, 209165, Note_off_c, 0, 55, 0
1, 209645, Note_on_c, 0, 71, 52
1, 209660, Note_on_c, 0, 55, 41
1, 209724, Note_off_c, 0, 55, 0
1, 210008, Note_on_c, 0, 54, 45
1, 210046, Note_off_c, 0, 54, 0
1, 210160, Control_c, 0, 67, 54
1, 210221, Note_off_c, 0, 71, 0
1, 210368, Note_on_c, 0, 55, 47
1, 210370, Note_on_c, 0, 76, 63
1, 210408, Note_off_c, 0, 55, 0
1, 210419, Note_off_c, 0, 76, 0
1, 210447, Note_on_c, 0, 74, 65
1, 210530, Note_off_c, 0, 74, 0
1, 210538, Note_on_c, 0, 76, 72
1, 210716, Note_on_c, 0, 52, 47
1, 210764, Note_off_c, 0, 52, 0
1, 211093, Note_on_c, 0, 54, 42
1, 211161, Note_off_c, 0, 54, 0
1, 211446, Note_off_c, 0, 76, 0
1, 211455, Note_on_c, 0, 52, 33
1, 211463, Note_on_c, 0, 74, 54
1, 211491, Note_off_c, 0, 52, 0
1, 211494, Note_off_c, 0, 74, 0
1, 211626, Note_on_c, 0, 72, 65
1, 211669, Note_off_c, 0, 72, 0
1, 211814, Note_on_c, 0, 74, 71
1, 211828, Note_on_c, 0, 54, 39
1, 211894, Note_off_c, 0, 54, 0
1, 211986, Note_on_c, 0, 72, 71
1, 212000, Note_off_c, 0, 74, 0
1, 212043, Note_off_c, 0, 72, 0
1, 212155, Note_on_c, 0, 71, 81
1, 212161, Note_on_c, 0, 50, 44
1, 212196, Note_off_c, 0, 50, 0
1, 212202, Note_off_c, 0, 71, 0
1, 212308, Note_on_c, 0, 69, 74
1, 212380, Note_off_c, 0, 69, 0
1, 212516, Note_on_c, 0, 79, 80
1, 212544, Note_on_c, 0, 52, 38
1, 212553, Note_on_c, 0, 67, 55
1, 212597, Note_off_c, 0, 52, 0
1, 212880, Note_on_c, 0, 50, 51
1, 212908, Note_off_c, 0, 67, 0
1, 212922, Note_off_c, 0, 50, 0
1, 212969, Note_off_c, 0, 79, 0
1, 213226, Note_on_c, 0, 84, 77
1, 213229, Note_on_c, 0, 52, 52
1, 213262, Note_off_c, 0, 52, 0
1, 213288, Note_on_c, 0, 83, 76
1, 213296, Note_off_c, 0, 84, 0
1, 213380, Note_on_c, 0, 84, 79
1, 213399, Note_off_c, 0, 83, 0
1, 213602, Note_on_c, 0, 81, 62
1, 213604, Note_on_c, 0, 48, 51
1, 213639, Note_off_c, 0, 48, 0
1, 213668, Note_off_c, 0, 81, 0
1, 213935, Note_on_c, 0, 78, 60
1, 213937, Note_on_c, 0, 50, 45
1, 214010, Note_off_c, 0, 50, 0
1, 214059, Note_off_c, 0, 78, 0
1, 214296, Note_on_c, 0, 83, 73
1, 214303, Note_on_c, 0, 38, 49
1, 214312, Note_off_c, 0, 84, 0
1, 214330, Note_on_c, 0, 74, 48
1, 214346, Note_off_c, 0, 38, 0
1, 214362, Note_off_c, 0, 74, 0
1, 214415, Note_off_c, 0, 83, 0
1, 214470, Note_on_c, 0, 81, 71
1, 214517, Note_off_c, 0, 81, 0
1, 214640, Note_on_c, 0, 83, 81
1, 214655, Note_on_c, 0, 50, 52
1, 214744, Note_off_c, 0, 50, 0
1, 214821, Note_on_c, 0, 81, 69
1, 214825, Note_on_c, 0, 48, 54
1, 214838, Note_off_c, 0, 83, 0
1, 214869, Note_off_c, 0, 48, 0
1, 214887, Note_off_c, 0, 81, 0
1, 214984, Note_on_c, 0, 79, 81
1, 215000, Note_on_c, 0, 47, 56
1, 215043, Note_off_c, 0, 47, 0
1, 215055, Note_off_c, 0, 79, 0
1, 215149, Note_on_c, 0, 78, 80
1, 215161, Note_on_c, 0, 45, 50
1, 215192, Note_off_c, 0, 45, 0
1, 215211, Note_off_c, 0, 78, 0
1, 215344, Note_on_c, 0, 79, 76
1, 215382, Note_on_c, 0, 47, 43
1, 215426, Note_off_c, 0, 47, 0
1, 215516, Note_on_c, 0, 74, 63
1, 215699, Note_off_c, 0, 74, 0
1, 215711, Note_on_c, 0, 72, 65
1, 215718, Note_on_c, 0, 45, 48
1, 215767, Note_off_c, 0, 45, 0
1, 215862, Note_on_c, 0, 76, 67
1, 215877, Note_off_c, 0, 72, 0
1, 216054, Note_off_c, 0, 76, 0
1, 216068, Note_on_c, 0, 74, 58
1, 216077, Note_on_c, 0, 47, 42
1, 216113, Note_off_c, 0, 47, 0
1, 216188, Note_off_c, 0, 74, 0
1, 216236, Note_on_c, 0, 77, 66
1, 216278, Note_off_c, 0, 79, 0
1, 216374, Control_c, 0, 64, 8
1, 216391, Control_c, 0, 64, 16
1, 216408, Note_on_c, 0, 76, 69
1, 216410, Control_c, 0, 64, 29
1, 216426, Note_on_c, 0, 43, 44
1, 216429, Note_off_c, 0, 77, 0
1, 216429, Control_c, 0, 64, 43
1, 216441, Note_on_c, 0, 71, 52
1, 216447, Control_c, 0, 64, 55
1, 216466, Control_c, 0, 64, 63
1, 216479, Note_off_c, 0, 43, 0
1, 216482, Control_c, 0, 64, 68
1, 216503, Control_c, 0, 64, 73
1, 216520, Control_c, 0, 64, 80
1, 216549, Control_c, 0, 64, 87
1, 216567, Control_c, 0, 64, 94
1, 216586, Control_c, 0, 64, 100
1, 216586, Note_on_c, 0, 74, 75
1, 216606, Control_c, 0, 64, 105
1, 216614, Note_off_c, 0, 76, 0
1, 216644, Control_c, 0, 64, 109
1, 216700, Control_c, 0, 64, 96
1, 216717, Control_c, 0, 64, 80
1, 216735, Control_c, 0, 64, 62
1, 216737, Note_off_c, 0, 74, 0
1, 216754, Control_c, 0, 64, 46
1, 216771, Control_c, 0, 64, 35
1, 216777, Note_on_c, 0, 76, 74
1, 216785, Note_off_c, 0, 71, 0
1, 216789, Control_c, 0, 64, 25
1, 216809, Note_on_c, 0, 48, 41
1, 216809, Control_c, 0, 64, 20
1, 216893, Note_off_c, 0, 48, 0
1, 216956, Note_on_c, 0, 69, 58
1, 217099, Note_off_c, 0, 69, 0
1, 217133, Note_on_c, 0, 67, 58
1, 217160, Note_on_c, 0, 47, 35
1, 217207, Note_off_c, 0, 47, 0
1, 217299, Note_on_c, 0, 71, 64
1, 217303, Note_off_c, 0, 67, 0
1, 217480, Note_off_c, 0, 71, 0
1, 217500, Note_on_c, 0, 69, 61
1, 217524, Note_on_c, 0, 48, 25
1, 217579, Control_c, 0, 64, 31
1, 217597, Control_c, 0, 64, 43
1, 217598, Note_off_c, 0, 48, 0
1, 217599, Note_off_c, 0, 69, 0
1, 217617, Control_c, 0, 64, 55
1, 217634, Control_c, 0, 64, 60
1, 217654, Control_c, 0, 64, 61
1, 217671, Note_on_c, 0, 74, 66
1, 217671, Control_c, 0, 64, 63
1, 217690, Control_c, 0, 64, 64
1, 217710, Control_c, 0, 64, 65
1, 217728, Note_off_c, 0, 76, 0
1, 217728, Control_c, 0, 64, 66
1, 217765, Control_c, 0, 64, 62
1, 217785, Control_c, 0, 64, 56
1, 217804, Control_c, 0, 64, 47
1, 217822, Control_c, 0, 64, 33
1, 217840, Control_c, 0, 64, 21
1, 217863, Note_on_c, 0, 72, 71
1, 217869, Note_on_c, 0, 45, 38
1, 217884, Note_on_c, 0, 67, 49
1, 217897, Control_c, 0, 64, 29
1, 217909, Note_off_c, 0, 74, 0
1, 217916, Control_c, 0, 64, 39
1, 217932, Control_c, 0, 64, 52
1, 217950, Note_off_c, 0, 45, 0
1, 217951, Control_c, 0, 64, 60
1, 217970, Control_c, 0, 64, 65
1, 217988, Control_c, 0, 64, 69
1, 218009, Control_c, 0, 64, 74
1, 218022, Note_on_c, 0, 71, 69
1, 218027, Control_c, 0, 64, 80
1, 218040, Note_off_c, 0, 72, 0
1, 218043, Control_c, 0, 64, 88
1, 218064, Control_c, 0, 64, 98
1, 218082, Control_c, 0, 64, 107
1, 218090, Note_off_c, 0, 71, 0
1, 218099, Control_c, 0, 64, 114
1, 218173, Control_c, 0, 64, 98
1, 218192, Control_c, 0, 64, 79
1, 218212, Control_c, 0, 64, 59
1, 218225, Note_on_c, 0, 69, 70
1, 218230, Control_c, 0, 64, 46
1, 218238, Note_on_c, 0, 50, 50
1, 218249, Control_c, 0, 64, 37
1, 218268, Control_c, 0, 64, 31
1, 218272, Note_off_c, 0, 67, 0
1, 218275, Note_off_c, 0, 50, 0
1, 218388, Note_on_c, 0, 66, 64
1, 218521, Note_off_c, 0, 66, 0
1, 218585, Note_on_c, 0, 64, 60
1, 218586, Note_on_c, 0, 48, 50
1, 218629, Note_off_c, 0, 48, 0
1, 218684, Note_off_c, 0, 64, 0
1, 218743, Note_on_c, 0, 67, 59
1, 218931, Note_on_c, 0, 66, 59
1, 218938, Note_off_c, 0, 67, 0
1, 218942, Note_on_c, 0, 50, 57
1, 218982, Note_off_c, 0, 50, 0
1, 219047, Note_off_c, 0, 69, 0
1, 219107, Note_on_c, 0, 72, 49
1, 219123, Note_on_c, 0, 73, 31
1, 219185, Note_off_c, 0, 73, 0
1, 219222, Control_c, 0, 67, 58
1, 219272, Note_off_c, 0, 72, 0
1, 219280, Note_on_c, 0, 38, 46
1, 219284, Note_on_c, 0, 71, 62
1, 219313, Note_off_c, 0, 38, 0
1, 219436, Note_off_c, 0, 71, 0
1, 219467, Note_on_c, 0, 69, 62
1, 219489, Control_c, 0, 64, 35
1, 219491, Note_off_c, 0, 66, 0
1, 219509, Control_c, 0, 64, 41
1, 219528, Control_c, 0, 64, 50
1, 219547, Control_c, 0, 64, 56
1, 219564, Control_c, 0, 64, 60
1, 219584, Control_c, 0, 64, 64
1, 219602, Control_c, 0, 64, 68
1, 219621, Control_c, 0, 64, 72
1, 219640, Control_c, 0, 64, 76
1, 219642, Note_off_c, 0, 69, 0
1, 219658, Control_c, 0, 64, 78
1, 219668, Note_on_c, 0, 43, 38
1, 219675, Note_on_c, 0, 71, 53
1, 219682, Note_on_c, 0, 67, 37
1, 219715, Note_off_c, 0, 43, 0
1, 219716, Note_off_c, 0, 71, 0
1, 219718, Note_off_c, 0, 67, 0
1, 219731, Control_c, 0, 64, 74
1, 219750, Control_c, 0, 64, 68
1, 219768, Control_c, 0, 64, 59
1, 219787, Control_c, 0, 64, 50
1, 219806, Control_c, 0, 64, 40
1, 219825, Control_c, 0, 64, 33
1, 219829, Note_on_c, 0, 79, 69
1, 219843, Control_c, 0, 64, 27
1, 219881, Control_c, 0, 64, 23
1, 220017, Note_off_c, 0, 79, 0
1, 220024, Note_on_c, 0, 55, 66
1, 220026, Note_on_c, 0, 78, 63
1, 220177, Note_off_c, 0, 78, 0
1, 220188, Note_on_c, 0, 81, 68
1, 220393, Note_off_c, 0, 81, 0
1, 220398, Note_on_c, 0, 79, 68
1, 220398, Note_on_c, 0, 59, 80
1, 220430, Note_off_c, 0, 55, 0
1, 220460, Note_off_c, 0, 79, 0
1, 220564, Note_on_c, 0, 78, 72
1, 220621, Note_off_c, 0, 78, 0
1, 220744, Note_on_c, 0, 62, 80
1, 220750, Note_off_c, 0, 59, 0
1, 220752, Note_on_c, 0, 76, 69
1, 220804, Note_off_c, 0, 76, 0
1, 220929, Note_on_c, 0, 74, 71
1, 220979, Note_off_c, 0, 74, 0
1, 221107, Note_off_c, 0, 62, 0
1, 221113, Note_on_c, 0, 84, 74
1, 221118, Note_on_c, 0, 67, 73
1, 221311, Note_on_c, 0, 69, 65
1, 221462, Note_off_c, 0, 67, 0
1, 221480, Note_on_c, 0, 83, 69
1, 221488, Note_off_c, 0, 69, 0
1, 221493, Note_on_c, 0, 66, 69
1, 221493, Note_on_c, 0, 71, 66
1, 221500, Note_off_c, 0, 84, 0
1, 221566, Note_off_c, 0, 71, 0
1, 221604, Control_c, 0, 64, 19
1, 221662, Note_on_c, 0, 74, 70
1, 221698, Note_off_c, 0, 74, 0
1, 221825, Note_off_c, 0, 66, 0
1, 221863, Note_on_c, 0, 76, 71
1, 221877, Note_on_c, 0, 67, 60
1, 221884, Note_off_c, 0, 83, 0
1, 221933, Note_off_c, 0, 67, 0
1, 222241, Note_on_c, 0, 64, 52
1, 222304, Note_off_c, 0, 64, 0
1, 222598, Note_on_c, 0, 66, 54
1, 222664, Note_off_c, 0, 66, 0
1, 222722, Note_off_c, 0, 76, 0
1, 222757, Note_on_c, 0, 74, 60
1, 222942, Note_on_c, 0, 73, 65
1, 222946, Note_off_c, 0, 74, 0
1, 222959, Note_on_c, 0, 64, 43
1, 223010, Note_off_c, 0, 64, 0
1, 223103, Note_off_c, 0, 73, 0
1, 223127, Note_on_c, 0, 76, 67
1, 223315, Note_off_c, 0, 76, 0
1, 223317, Note_on_c, 0, 66, 49
1, 223319, Note_on_c, 0, 74, 64
1, 223350, Note_off_c, 0, 66, 0
1, 223380, Note_off_c, 0, 74, 0
1, 223481, Note_on_c, 0, 73, 65
1, 223522, Note_off_c, 0, 73, 0
1, 223662, Note_on_c, 0, 71, 61
1, 223673, Note_on_c, 0, 62, 46
1, 223707, Note_off_c, 0, 71, 0
1, 223714, Note_off_c, 0, 62, 0
1, 223829, Note_on_c, 0, 69, 64
1, 223862, Note_off_c, 0, 69, 0
1, 224003, Note_on_c, 0, 71, 69
1, 224015, Note_on_c, 0, 67, 63
1, 224049, Note_on_c, 0, 64, 44
1, 224167, Note_off_c, 0, 64, 0
1, 224182, Note_off_c, 0, 71, 0
1, 224189, Note_on_c, 0, 75, 71
1, 224242, Note_off_c, 0, 75, 0
1, 224379, Note_on_c, 0, 76, 81
1, 224380, Note_on_c, 0, 62, 55
1, 224424, Note_off_c, 0, 76, 0
1, 224433, Note_off_c, 0, 62, 0
1, 224547, Note_on_c, 0, 79, 79
1, 224599, Note_off_c, 0, 79, 0
1, 224737, Note_on_c, 0, 83, 80
1, 224757, Note_on_c, 0, 64, 56
1, 224769, Note_off_c, 0, 67, 0
1, 224846, Note_off_c, 0, 64, 0
1, 225106, Note_on_c, 0, 59, 68
1, 225109, Note_on_c, 0, 79, 68
1, 225183, Note_off_c, 0, 79, 0
1, 225211, Note_off_c, 0, 59, 0
1, 225458, Note_on_c, 0, 61, 65
1, 225459, Note_on_c, 0, 76, 63
1, 225593, Note_off_c, 0, 61, 0
1, 225600, Note_off_c, 0, 76, 0
1, 225635, Note_off_c, 0, 83, 0
1, 225635, Note_on_c, 0, 81, 64
1, 225812, Note_off_c, 0, 81, 0
1, 225827, Note_on_c, 0, 73, 64
1, 225829, Note_on_c, 0, 64, 58
1, 225830, Note_on_c, 0, 79, 67
1, 225885, Note_off_c, 0, 64, 0
1, 225890, Note_off_c, 0, 73, 0
1, 225990, Note_off_c, 0, 79, 0
1, 225999, Note_on_c, 0, 83, 72
1, 226014, Note_on_c, 0, 62, 55
1, 226176, Note_off_c, 0, 62, 0
1, 226179, Note_on_c, 0, 81, 74
1, 226184, Note_on_c, 0, 61, 61
1, 226202, Note_off_c, 0, 83, 0
1, 226235, Note_off_c, 0, 61, 0
1, 226252, Note_off_c, 0, 81, 0
1, 226348, Note_on_c, 0, 79, 74
1, 226372, Note_on_c, 0, 59, 42
1, 226407, Note_off_c, 0, 59, 0
1, 226407, Note_off_c, 0, 79, 0
1, 226524, Note_on_c, 0, 78, 75
1, 226535, Note_on_c, 0, 57, 61
1, 226582, Note_off_c, 0, 57, 0
1, 226582, Note_off_c, 0, 78, 0
1, 226693, Note_on_c, 0, 55, 57
1, 226694, Note_on_c, 0, 76, 75
1, 226734, Note_off_c, 0, 55, 0
1, 226754, Note_off_c, 0, 76, 0
1, 226903, Note_on_c, 0, 74, 74
1, 226920, Note_on_c, 0, 54, 51
1, 226979, Note_off_c, 0, 54, 0
1, 227062, Note_on_c, 0, 69, 67
1, 227240, Note_on_c, 0, 67, 73
1, 227243, Note_off_c, 0, 69, 0
1, 227255, Note_on_c, 0, 52, 50
1, 227343, Note_off_c, 0, 52, 0
1, 227412, Note_on_c, 0, 71, 74
1, 227435, Note_off_c, 0, 67, 0
1, 227594, Control_c, 0, 64, 28
1, 227602, Note_on_c, 0, 69, 72
1, 227613, Control_c, 0, 64, 39
1, 227616, Note_on_c, 0, 54, 49
1, 227620, Note_off_c, 0, 71, 0
1, 227632, Control_c, 0, 64, 50
1, 227636, Note_off_c, 0, 74, 0
1, 227652, Control_c, 0, 64, 57
1, 227664, Note_off_c, 0, 54, 0
1, 227668, Control_c, 0, 64, 61
1, 227689, Control_c, 0, 64, 63
1, 227707, Control_c, 0, 64, 65
1, 227764, Control_c, 0, 64, 62
1, 227784, Note_on_c, 0, 72, 70
1, 227790, Control_c, 0, 64, 57
1, 227802, Note_off_c, 0, 69, 0
1, 227808, Control_c, 0, 64, 47
1, 227826, Control_c, 0, 64, 33
1, 227845, Control_c, 0, 64, 18
1, 227866, Control_c, 0, 64, 11
1, 227959, Note_on_c, 0, 71, 61
1, 227961, Note_off_c, 0, 72, 0
1, 227976, Note_on_c, 0, 50, 51
1, 227978, Note_on_c, 0, 66, 58
1, 228035, Note_off_c, 0, 50, 0
1, 228144, Note_on_c, 0, 69, 63
1, 228155, Note_off_c, 0, 71, 0
1, 228300, Note_off_c, 0, 69, 0
1, 228320, Note_off_c, 0, 66, 0
1, 228324, Note_on_c, 0, 71, 71
1, 228352, Note_on_c, 0, 55, 45
1, 228426, Note_off_c, 0, 55, 0
1, 228497, Note_on_c, 0, 64, 70
1, 228681, Note_on_c, 0, 62, 75
1, 228683, Note_off_c, 0, 64, 0
1, 228717, Note_on_c, 0, 54, 55
1, 228761, Note_off_c, 0, 54, 0
1, 228858, Note_on_c, 0, 66, 70
1, 228911, Note_off_c, 0, 62, 0
1, 229048, Note_on_c, 0, 64, 68
1, 229057, Note_off_c, 0, 71, 0
1, 229066, Note_on_c, 0, 55, 49
1, 229086, Note_off_c, 0, 66, 0
1, 229164, Note_off_c, 0, 55, 0
1, 229218, Note_off_c, 0, 64, 0
1, 229222, Note_on_c, 0, 69, 67
1, 229409, Note_off_c, 0, 69, 0
1, 229412, Note_on_c, 0, 67, 63
1, 229431, Control_c, 0, 64, 16
1, 229432, Note_on_c, 0, 62, 58
1, 229434, Note_on_c, 0, 52, 45
1, 229449, Control_c, 0, 64, 21
1, 229469, Control_c, 0, 64, 29
1, 229487, Control_c, 0, 64, 39
1, 229507, Control_c, 0, 64, 50
1, 229524, Control_c, 0, 64, 58
1, 229544, Control_c, 0, 64, 62
1, 229554, Note_off_c, 0, 52, 0
1, 229561, Control_c, 0, 64, 64
1, 229577, Note_on_c, 0, 66, 59
1, 229580, Control_c, 0, 64, 67
1, 229594, Note_off_c, 0, 67, 0
1, 229598, Control_c, 0, 64, 70
1, 229616, Control_c, 0, 64, 73
1, 229635, Control_c, 0, 64, 77
1, 229663, Control_c, 0, 64, 80
1, 229670, Note_off_c, 0, 66, 0
1, 229682, Control_c, 0, 64, 82
1, 229738, Control_c, 0, 64, 79
1, 229756, Control_c, 0, 64, 72
1, 229773, Control_c, 0, 64, 61
1, 229792, Control_c, 0, 64, 50
1, 229810, Control_c, 0, 64, 41
1, 229812, Note_on_c, 0, 64, 63
1, 229814, Note_on_c, 0, 57, 51
1, 229829, Control_c, 0, 64, 32
1, 229848, Control_c, 0, 64, 25
1, 229868, Control_c, 0, 64, 21
1, 229893, Note_off_c, 0, 57, 0
1, 229910, Note_off_c, 0, 62, 0
1, 229973, Note_on_c, 0, 61, 52
1, 230113, Note_off_c, 0, 61, 0
1, 230150, Note_on_c, 0, 59, 57
1, 230165, Note_on_c, 0, 55, 47
1, 230211, Note_off_c, 0, 55, 0
1, 230249, Note_off_c, 0, 59, 0
1, 230317, Note_on_c, 0, 62, 56
1, 230494, Note_off_c, 0, 62, 0
1, 230511, Note_on_c, 0, 61, 55
1, 230522, Note_on_c, 0, 57, 49
1, 230576, Note_off_c, 0, 57, 0
1, 230614, Note_off_c, 0, 64, 0
1, 230676, Note_on_c, 0, 67, 56
1, 230861, Note_off_c, 0, 67, 0
1, 230874, Note_on_c, 0, 66, 60
1, 230883, Note_on_c, 0, 45, 48
1, 230931, Note_off_c, 0, 45, 0
1, 231019, Note_off_c, 0, 66, 0
1, 231051, Note_on_c, 0, 64, 57
1, 231064, Note_off_c, 0, 61, 0
1, 231248, Note_off_c, 0, 64, 0
1, 231254, Note_on_c, 0, 62, 52
1, 231259, Note_on_c, 0, 50, 45
1, 231336, Note_off_c, 0, 50, 0
1, 231617, Note_on_c, 0, 45, 47
1, 231679, Note_off_c, 0, 45, 0
1, 232032, Note_on_c, 0, 38, 37
1, 232084, Note_off_c, 0, 62, 0
1, 232339, Note_off_c, 0, 38, 0
1, 232849, Note_on_c, 0, 69, 54
1, 232859, Note_on_c, 0, 62, 42
1, 233029, Note_on_c, 0, 78, 61
1, 233064, Note_off_c, 0, 78, 0
1, 233214, Note_off_c, 0, 62, 0
1, 233216, Note_on_c, 0, 61, 66
1, 233217, Note_on_c, 0, 76, 68
1, 233256, Note_off_c, 0, 76, 0
1, 233381, Note_on_c, 0, 79, 72
1, 233440, Note_off_c, 0, 79, 0
1, 233486, Note_off_c, 0, 69, 0
1, 233570, Note_on_c, 0, 81, 77
1, 233590, Note_on_c, 0, 78, 61
1, 233603, Note_on_c, 0, 62, 60
1, 233627, Note_off_c, 0, 61, 0
1, 233659, Note_off_c, 0, 78, 0
1, 233688, Control_c, 0, 64, 17
1, 233692, Note_off_c, 0, 62, 0
1, 233761, Note_on_c, 0, 76, 70
1, 233807, Note_off_c, 0, 76, 0
1, 233934, Note_on_c, 0, 57, 60
1, 233938, Note_on_c, 0, 74, 70
1, 233979, Note_off_c, 0, 74, 0
1, 233984, Note_off_c, 0, 57, 0
1, 234093, Note_on_c, 0, 73, 72
1, 234160, Note_off_c, 0, 73, 0
1, 234286, Note_on_c, 0, 74, 75
1, 234296, Note_on_c, 0, 59, 53
1, 234462, Note_on_c, 0, 79, 69
1, 234477, Note_off_c, 0, 81, 0
1, 234642, Note_off_c, 0, 59, 0
1, 234661, Note_off_c, 0, 79, 0
1, 234663, Note_on_c, 0, 78, 69
1, 234676, Note_on_c, 0, 57, 47
1, 234709, Note_off_c, 0, 74, 0
1, 234807, Note_off_c, 0, 78, 0
1, 234829, Note_on_c, 0, 81, 67
1, 234865, Control_c, 0, 64, 12
1, 234896, Note_off_c, 0, 57, 0
1, 234959, Control_c, 0, 64, 8
1, 235005, Note_off_c, 0, 81, 0
1, 235007, Note_on_c, 0, 79, 64
1, 235029, Note_on_c, 0, 59, 44
1, 235087, Control_c, 0, 64, 13
1, 235106, Control_c, 0, 64, 18
1, 235125, Control_c, 0, 64, 25
1, 235143, Control_c, 0, 64, 34
1, 235163, Control_c, 0, 64, 45
1, 235175, Note_off_c, 0, 79, 0
1, 235177, Note_on_c, 0, 78, 70
1, 235181, Control_c, 0, 64, 55
1, 235199, Control_c, 0, 64, 61
1, 235219, Control_c, 0, 64, 64
1, 235237, Control_c, 0, 64, 67
1, 235251, Note_off_c, 0, 78, 0
1, 235255, Control_c, 0, 64, 70
1, 235283, Control_c, 0, 64, 72
1, 235285, Note_off_c, 0, 59, 0
1, 235339, Control_c, 0, 64, 65
1, 235357, Control_c, 0, 64, 49
1, 235370, Note_on_c, 0, 76, 75
1, 235375, Control_c, 0, 64, 25
1, 235375, Note_on_c, 0, 71, 73
1, 235388, Note_on_c, 0, 55, 56
1, 235394, Control_c, 0, 64, 0
1, 235468, Control_c, 0, 64, 11
1, 235486, Control_c, 0, 64, 21
1, 235505, Control_c, 0, 64, 33
1, 235523, Control_c, 0, 64, 48
1, 235542, Control_c, 0, 64, 61
1, 235545, Note_on_c, 0, 75, 73
1, 235555, Note_off_c, 0, 76, 0
1, 235561, Control_c, 0, 64, 67
1, 235563, Note_off_c, 0, 55, 0
1, 235579, Control_c, 0, 64, 69
1, 235592, Note_off_c, 0, 71, 0
1, 235598, Control_c, 0, 64, 72
1, 235618, Control_c, 0, 64, 74
1, 235635, Note_off_c, 0, 75, 0
1, 235690, Control_c, 0, 64, 65
1, 235709, Control_c, 0, 64, 53
1, 235727, Control_c, 0, 64, 40
1, 235731, Note_on_c, 0, 76, 74
1, 235745, Control_c, 0, 64, 29
1, 235746, Note_on_c, 0, 67, 70
1, 235749, Note_on_c, 0, 60, 64
1, 235765, Control_c, 0, 64, 22
1, 235784, Control_c, 0, 64, 18
1, 235861, Note_off_c, 0, 60, 0
1, 235902, Note_off_c, 0, 67, 0
1, 235909, Note_on_c, 0, 48, 69
1, 236075, Note_on_c, 0, 64, 74
1, 236080, Note_off_c, 0, 48, 0
1, 236088, Note_on_c, 0, 47, 68
1, 236235, Note_off_c, 0, 47, 0
1, 236249, Note_on_c, 0, 50, 75
1, 236281, Note_off_c, 0, 64, 0
1, 236444, Note_on_c, 0, 69, 80
1, 236459, Note_off_c, 0, 50, 0
1, 236468, Note_on_c, 0, 48, 69
1, 236515, Note_off_c, 0, 76, 0
1, 236612, Note_off_c, 0, 48, 0
1, 236628, Note_on_c, 0, 47, 72
1, 236804, Note_on_c, 0, 78, 83
1, 236824, Note_off_c, 0, 47, 0
1, 236824, Note_on_c, 0, 45, 66
1, 236972, Note_off_c, 0, 45, 0
1, 236981, Note_on_c, 0, 48, 64
1, 237174, Note_off_c, 0, 48, 0
1, 237178, Note_on_c, 0, 75, 80
1, 237190, Note_on_c, 0, 47, 65
1, 237213, Control_c, 0, 64, 22
1, 237215, Note_off_c, 0, 69, 0
1, 237231, Control_c, 0, 64, 28
1, 237233, Note_off_c, 0, 78, 0
1, 237249, Control_c, 0, 64, 38
1, 237266, Control_c, 0, 64, 51
1, 237285, Control_c, 0, 64, 60
1, 237303, Control_c, 0, 64, 65
1, 237313, Note_off_c, 0, 47, 0
1, 237321, Control_c, 0, 64, 68
1, 237341, Control_c, 0, 64, 72
1, 237348, Note_off_c, 0, 75, 0
1, 237352, Note_on_c, 0, 67, 74
1, 237359, Note_on_c, 0, 59, 63
1, 237360, Control_c, 0, 64, 75
1, 237378, Control_c, 0, 64, 79
1, 237397, Control_c, 0, 64, 83
1, 237451, Control_c, 0, 64, 79
1, 237470, Control_c, 0, 64, 69
1, 237490, Control_c, 0, 64, 55
1, 237507, Control_c, 0, 64, 44
1, 237511, Note_off_c, 0, 59, 0
1, 237527, Control_c, 0, 64, 34
1, 237530, Note_on_c, 0, 71, 73
1, 237531, Note_on_c, 0, 66, 70
1, 237540, Note_off_c, 0, 67, 0
1, 237545, Control_c, 0, 64, 27
1, 237547, Note_on_c, 0, 57, 60
1, 237583, Control_c, 0, 64, 22
1, 237669, Note_off_c, 0, 57, 0
1, 237704, Note_on_c, 0, 69, 75
1, 237705, Note_off_c, 0, 66, 0
1, 237712, Note_on_c, 0, 60, 63
1, 237737, Note_off_c, 0, 71, 0
1, 237878, Note_off_c, 0, 60, 0
1, 237888, Note_on_c, 0, 67, 75
1, 237895, Note_on_c, 0, 59, 62
1, 237910, Note_off_c, 0, 69, 0
1, 238048, Note_off_c, 0, 59, 0
1, 238051, Note_on_c, 0, 66, 72
1, 238076, Note_on_c, 0, 57, 57
1, 238086, Note_off_c, 0, 67, 0
1, 238156, Note_off_c, 0, 66, 0
1, 238172, Note_off_c, 0, 57, 0
1, 238236, Note_on_c, 0, 64, 75
1, 238252, Note_on_c, 0, 55, 63
1, 238308, Note_off_c, 0, 55, 0
1, 238317, Note_off_c, 0, 64, 0
1, 238410, Note_on_c, 0, 63, 79
1, 238423, Note_on_c, 0, 54, 62
1, 238466, Note_off_c, 0, 63, 0
1, 238469, Note_off_c, 0, 54, 0
1, 238602, Note_on_c, 0, 76, 82
1, 238636, Note_on_c, 0, 55, 53
1, 238650, Note_on_c, 0, 64, 45
1, 238668, Control_c, 0, 64, 18
1, 238691, Note_off_c, 0, 64, 0
1, 238789, Note_on_c, 0, 71, 70
1, 238804, Poly_aftertouch_c, 0, 64, 0
1, 238946, Note_off_c, 0, 55, 0
1, 238962, Note_off_c, 0, 71, 0
1, 238972, Note_on_c, 0, 69, 68
1, 238976, Note_on_c, 0, 54, 50
1, 239139, Note_off_c, 0, 69, 0
1, 239148, Note_on_c, 0, 72, 66
1, 239238, Note_off_c, 0, 54, 0
1, 239325, Control_c, 0, 64, 23
1, 239340, Note_on_c, 0, 71, 64
1, 239343, Control_c, 0, 64, 28
1, 239354, Note_on_c, 0, 55, 36
1, 239360, Note_off_c, 0, 76, 0
1, 239362, Control_c, 0, 64, 35
1, 239380, Control_c, 0, 64, 43
1, 239383, Note_off_c, 0, 72, 0
1, 239400, Control_c, 0, 64, 50
1, 239419, Control_c, 0, 64, 55
1, 239438, Control_c, 0, 64, 58
1, 239456, Control_c, 0, 64, 60
1, 239475, Control_c, 0, 64, 61
1, 239494, Control_c, 0, 64, 62
1, 239509, Note_off_c, 0, 71, 0
1, 239511, Note_on_c, 0, 74, 75
1, 239522, Note_off_c, 0, 55, 0
1, 239605, Control_c, 0, 64, 60
1, 239623, Control_c, 0, 64, 55
1, 239642, Control_c, 0, 64, 45
1, 239661, Control_c, 0, 64, 27
1, 239679, Control_c, 0, 64, 10
1, 239696, Note_on_c, 0, 72, 75
1, 239711, Note_on_c, 0, 52, 46
1, 239730, Note_on_c, 0, 67, 49
1, 239738, Note_off_c, 0, 74, 0
1, 239789, Control_c, 0, 64, 20
1, 239810, Control_c, 0, 64, 30
1, 239827, Control_c, 0, 64, 43
1, 239847, Control_c, 0, 64, 54
1, 239863, Control_c, 0, 64, 58
1, 239864, Note_on_c, 0, 71, 76
1, 239881, Control_c, 0, 64, 60
1, 239890, Note_off_c, 0, 52, 0
1, 239898, Control_c, 0, 64, 62
1, 239903, Note_off_c, 0, 72, 0
1, 239919, Control_c, 0, 64, 63
1, 239946, Control_c, 0, 64, 64
1, 239984, Control_c, 0, 64, 63
1, 240003, Control_c, 0, 64, 59
1, 240021, Control_c, 0, 64, 52
1, 240040, Control_c, 0, 64, 41
1, 240052, Note_off_c, 0, 71, 0
1, 240058, Control_c, 0, 64, 27
1, 240070, Note_on_c, 0, 72, 73
1, 240076, Control_c, 0, 64, 17
1, 240096, Note_off_c, 0, 67, 0
1, 240097, Note_on_c, 0, 57, 53
1, 240113, Control_c, 0, 64, 12
1, 240235, Note_on_c, 0, 66, 60
1, 240263, Control_c, 0, 67, 54
1, 240404, Note_off_c, 0, 66, 0
1, 240411, Note_off_c, 0, 57, 0
1, 240424, Note_on_c, 0, 64, 58
1, 240447, Note_on_c, 0, 55, 42
1, 240517, Note_off_c, 0, 64, 0
1, 240575, Note_on_c, 0, 67, 55
1, 240721, Note_off_c, 0, 55, 0
1, 240744, Control_c, 0, 64, 18
1, 240763, Control_c, 0, 64, 23
1, 240769, Note_on_c, 0, 66, 57
1, 240769, Control_c, 0, 64, 30
1, 240789, Control_c, 0, 64, 38
1, 240807, Note_on_c, 0, 57, 30
1, 240808, Note_off_c, 0, 72, 0
1, 240808, Control_c, 0, 64, 47
1, 240813, Note_off_c, 0, 67, 0
1, 240827, Control_c, 0, 64, 55
1, 240846, Control_c, 0, 64, 59
1, 240874, Control_c, 0, 64, 61
1, 240891, Control_c, 0, 64, 63
1, 240911, Control_c, 0, 64, 66
1, 240929, Note_off_c, 0, 57, 0
1, 240930, Control_c, 0, 64, 69
1, 240947, Control_c, 0, 64, 72
1, 240955, Note_on_c, 0, 71, 69
1, 240958, Note_off_c, 0, 66, 0
1, 240964, Control_c, 0, 64, 74
1, 240983, Control_c, 0, 64, 77
1, 241004, Control_c, 0, 64, 80
1, 241021, Control_c, 0, 64, 83
1, 241040, Control_c, 0, 64, 86
1, 241059, Control_c, 0, 64, 88
1, 241095, Control_c, 0, 64, 86
1, 241115, Control_c, 0, 64, 78
1, 241132, Control_c, 0, 64, 63
1, 241141, Note_on_c, 0, 69, 70
1, 241149, Note_on_c, 0, 54, 49
1, 241151, Control_c, 0, 64, 42
1, 241165, Note_on_c, 0, 64, 54
1, 241168, Control_c, 0, 64, 21
1, 241174, Note_off_c, 0, 71, 0
1, 241190, Control_c, 0, 64, 10
1, 241243, Control_c, 0, 64, 24
1, 241263, Control_c, 0, 64, 37
1, 241282, Control_c, 0, 64, 51
1, 241300, Control_c, 0, 64, 60
1, 241311, Note_on_c, 0, 67, 71
1, 241316, Control_c, 0, 64, 65
1, 241337, Control_c, 0, 64, 69
1, 241342, Note_off_c, 0, 69, 0
1, 241355, Control_c, 0, 64, 73
1, 241359, Note_off_c, 0, 54, 0
1, 241373, Control_c, 0, 64, 78
1, 241389, Note_off_c, 0, 67, 0
1, 241392, Control_c, 0, 64, 84
1, 241411, Control_c, 0, 64, 91
1, 241430, Control_c, 0, 64, 96
1, 241486, Control_c, 0, 64, 83
1, 241502, Control_c, 0, 64, 68
1, 241511, Note_on_c, 0, 66, 67
1, 241520, Control_c, 0, 64, 53
1, 241537, Note_on_c, 0, 59, 52
1, 241539, Control_c, 0, 64, 44
1, 241558, Control_c, 0, 64, 37
1, 241560, Note_off_c, 0, 64, 0
1, 241577, Control_c, 0, 64, 31
1, 241674, Note_on_c, 0, 63, 62
1, 241858, Note_off_c, 0, 63, 0
1, 241867, Note_on_c, 0, 61, 63
1, 241869, Note_off_c, 0, 59, 0
1, 241879, Note_on_c, 0, 58, 60
1, 242042, Note_on_c, 0, 64, 64
1, 242057, Note_off_c, 0, 61, 0
1, 242187, Note_off_c, 0, 58, 0
1, 242239, Note_on_c, 0, 59, 69
1, 242243, Note_on_c, 0, 63, 60
1, 242258, Note_off_c, 0, 64, 0
1, 242357, Note_off_c, 0, 66, 0
1, 242389, Note_off_c, 0, 59, 0
1, 242411, Note_on_c, 0, 69, 67
1, 242596, Note_on_c, 0, 67, 65
1, 242608, Note_on_c, 0, 47, 56
1, 242611, Note_off_c, 0, 69, 0
1, 242725, Note_off_c, 0, 47, 0
1, 242771, Note_off_c, 0, 67, 0
1, 242771, Note_off_c, 0, 63, 0
1, 242776, Note_on_c, 0, 66, 62
1, 242950, Note_off_c, 0, 66, 0
1, 242969, Note_on_c, 0, 40, 49
1, 242969, Note_on_c, 0, 64, 44
1, 242972, Note_on_c, 0, 67, 59
1, 243049, Note_off_c, 0, 40, 0
1, 243143, Note_on_c, 0, 52, 54
1, 243161, Note_off_c, 0, 64, 0
1, 243215, Note_off_c, 0, 67, 0
1, 243316, Note_off_c, 0, 52, 0
1, 243329, Note_on_c, 0, 51, 67
1, 243472, Note_off_c, 0, 51, 0
1, 243507, Note_on_c, 0, 54, 69
1, 243666, Note_off_c, 0, 54, 0
1, 243699, Note_on_c, 0, 71, 75
1, 243723, Note_on_c, 0, 52, 57
1, 243850, Note_off_c, 0, 52, 0
1, 243881, Note_on_c, 0, 50, 55
1, 244027, Note_off_c, 0, 50, 0
1, 244048, Note_on_c, 0, 48, 62
1, 244193, Note_off_c, 0, 48, 0
1, 244222, Note_on_c, 0, 47, 61
1, 244412, Note_off_c, 0, 47, 0
1, 244433, Note_on_c, 0, 64, 75
1, 244469, Note_on_c, 0, 48, 43
1, 244573, Note_off_c, 0, 48, 0
1, 244607, Note_on_c, 0, 69, 61
1, 244637, Note_off_c, 0, 71, 0
1, 244792, Note_off_c, 0, 69, 0
1, 244803, Note_on_c, 0, 67, 62
1, 244809, Note_on_c, 0, 47, 50
1, 244920, Note_off_c, 0, 47, 0
1, 244954, Note_off_c, 0, 67, 0
1, 244985, Note_on_c, 0, 71, 65
1, 245161, Note_off_c, 0, 64, 0
1, 245166, Note_on_c, 0, 69, 73
1, 245174, Note_off_c, 0, 71, 0
1, 245185, Note_on_c, 0, 48, 46
1, 245243, Note_off_c, 0, 48, 0
1, 245348, Note_on_c, 0, 67, 61
1, 245497, Note_off_c, 0, 67, 0
1, 245525, Note_on_c, 0, 66, 58
1, 245539, Note_on_c, 0, 57, 51
1, 245613, Note_off_c, 0, 57, 0
1, 245676, Note_off_c, 0, 66, 0
1, 245722, Note_on_c, 0, 64, 54
1, 245886, Note_off_c, 0, 64, 0
1, 245906, Note_on_c, 0, 62, 60
1, 245916, Note_on_c, 0, 47, 55
1, 246005, Note_off_c, 0, 47, 0
1, 246062, Poly_aftertouch_c, 0, 47, 0
1, 246068, Note_off_c, 0, 69, 0
1, 246071, Note_on_c, 0, 67, 58
1, 246130, Note_off_c, 0, 67, 0
1, 246253, Note_on_c, 0, 66, 62
1, 246268, Note_on_c, 0, 45, 48
1, 246299, Note_off_c, 0, 66, 0
1, 246326, Note_off_c, 0, 45, 0
1, 246416, Note_on_c, 0, 69, 70
1, 246466, Note_off_c, 0, 69, 0
1, 246620, Note_on_c, 0, 67, 70
1, 246634, Note_on_c, 0, 47, 42
1, 246667, Note_off_c, 0, 62, 0
1, 246672, Note_off_c, 0, 47, 0
1, 246791, Note_on_c, 0, 66, 55
1, 246854, Note_off_c, 0, 66, 0
1, 246960, Note_on_c, 0, 55, 57
1, 246963, Note_on_c, 0, 64, 68
1, 246993, Note_off_c, 0, 55, 0
1, 246997, Note_off_c, 0, 64, 0
1, 247131, Note_on_c, 0, 62, 73
1, 247168, Note_off_c, 0, 62, 0
1, 247320, Note_on_c, 0, 60, 84
1, 247350, Note_on_c, 0, 45, 52
1, 247402, Control_c, 0, 64, 27
1, 247412, Note_off_c, 0, 45, 0
1, 247494, Note_on_c, 0, 66, 63
1, 247574, Note_off_c, 0, 67, 0
1, 247634, Control_c, 0, 64, 33
1, 247652, Control_c, 0, 64, 40
1, 247671, Note_on_c, 0, 64, 73
1, 247671, Control_c, 0, 64, 50
1, 247676, Note_off_c, 0, 66, 0
1, 247690, Control_c, 0, 64, 58
1, 247699, Note_on_c, 0, 43, 44
1, 247709, Control_c, 0, 64, 62
1, 247728, Control_c, 0, 64, 65
1, 247748, Control_c, 0, 64, 69
1, 247763, Note_off_c, 0, 43, 0
1, 247765, Control_c, 0, 64, 72
1, 247784, Control_c, 0, 64, 76
1, 247803, Control_c, 0, 64, 82
1, 247820, Control_c, 0, 64, 86
1, 247845, Note_off_c, 0, 64, 0
1, 247857, Control_c, 0, 64, 90
1, 247860, Note_on_c, 0, 67, 75
1, 247869, Note_off_c, 0, 60, 0
1, 247932, Control_c, 0, 64, 95
1, 247940, Note_off_c, 0, 67, 0
1, 248005, Control_c, 0, 64, 85
1, 248025, Control_c, 0, 64, 72
1, 248042, Control_c, 0, 64, 57
1, 248045, Note_on_c, 0, 72, 85
1, 248061, Control_c, 0, 64, 43
1, 248081, Note_on_c, 0, 66, 61
1, 248083, Control_c, 0, 64, 29
1, 248089, Note_on_c, 0, 45, 44
1, 248098, Control_c, 0, 64, 16
1, 248141, Note_off_c, 0, 45, 0
1, 248156, Note_off_c, 0, 66, 0
1, 248220, Note_on_c, 0, 64, 69
1, 248372, Note_off_c, 0, 64, 0
1, 248421, Note_on_c, 0, 62, 64
1, 248429, Note_on_c, 0, 55, 47
1, 248441, Control_c, 0, 64, 23
1, 248459, Control_c, 0, 64, 30
1, 248478, Note_off_c, 0, 55, 0
1, 248478, Control_c, 0, 64, 40
1, 248497, Control_c, 0, 64, 51
1, 248516, Control_c, 0, 64, 59
1, 248529, Note_off_c, 0, 62, 0
1, 248534, Control_c, 0, 64, 63
1, 248554, Control_c, 0, 64, 66
1, 248572, Control_c, 0, 64, 69
1, 248580, Note_on_c, 0, 60, 72
1, 248591, Control_c, 0, 64, 72
1, 248609, Control_c, 0, 64, 75
1, 248626, Control_c, 0, 64, 79
1, 248636, Note_off_c, 0, 60, 0
1, 248644, Control_c, 0, 64, 81
1, 248684, Control_c, 0, 64, 79
1, 248701, Control_c, 0, 64, 73
1, 248719, Control_c, 0, 64, 62
1, 248740, Control_c, 0, 64, 50
1, 248757, Control_c, 0, 64, 40
1, 248762, Note_on_c, 0, 62, 75
1, 248777, Note_on_c, 0, 54, 46
1, 248777, Control_c, 0, 64, 32
1, 248793, Control_c, 0, 64, 27
1, 248934, Note_off_c, 0, 54, 0
1, 248945, Note_on_c, 0, 71, 72
1, 248946, Note_off_c, 0, 72, 0
1, 248956, Note_on_c, 0, 50, 57
1, 249053, Control_c, 0, 64, 23
1, 249118, Note_on_c, 0, 69, 79
1, 249125, Note_off_c, 0, 50, 0
1, 249125, Note_on_c, 0, 48, 56
1, 249127, Note_off_c, 0, 71, 0
1, 249221, Note_off_c, 0, 48, 0
1, 249248, Note_off_c, 0, 69, 0
1, 249281, Note_on_c, 0, 72, 80
1, 249300, Note_on_c, 0, 52, 58
1, 249355, Poly_aftertouch_c, 0, 62, 24
1, 249420, Note_off_c, 0, 62, 0
1, 249445, Note_off_c, 0, 52, 0
1, 249475, Note_on_c, 0, 71, 80
1, 249489, Note_on_c, 0, 50, 61
1, 249539, Note_off_c, 0, 72, 0
1, 249628, Note_off_c, 0, 50, 0
1, 249648, Note_on_c, 0, 69, 77
1, 249664, Note_on_c, 0, 48, 53
1, 249673, Note_off_c, 0, 71, 0
1, 249694, Control_c, 0, 64, 19
1, 249718, Note_off_c, 0, 69, 0
1, 249734, Note_off_c, 0, 48, 0
1, 249828, Note_on_c, 0, 67, 77
1, 249834, Note_on_c, 0, 47, 60
1, 249889, Note_off_c, 0, 67, 0
1, 249893, Note_off_c, 0, 47, 0
1, 249933, Poly_aftertouch_c, 0, 71, 0
1, 249987, Note_on_c, 0, 66, 77
1, 250004, Note_on_c, 0, 45, 57
1, 250050, Note_off_c, 0, 66, 0
1, 250063, Note_off_c, 0, 45, 0
1, 250191, Note_on_c, 0, 74, 89
1, 250238, Note_on_c, 0, 43, 62
1, 250247, Note_on_c, 0, 71, 57
1, 250333, Note_off_c, 0, 43, 0
1, 250392, Note_on_c, 0, 55, 57
1, 250409, Control_c, 0, 67, 50
1, 250538, Control_c, 0, 64, 25
1, 250545, Note_off_c, 0, 55, 0
1, 250556, Control_c, 0, 64, 32
1, 250558, Note_off_c, 0, 71, 0
1, 250577, Control_c, 0, 64, 41
1, 250579, Note_on_c, 0, 53, 60
1, 250579, Note_on_c, 0, 67, 63
1, 250593, Control_c, 0, 64, 51
1, 250612, Control_c, 0, 64, 57
1, 250630, Control_c, 0, 64, 61
1, 250632, Control_c, 0, 67, 45
1, 250644, Note_off_c, 0, 67, 0
1, 250648, Control_c, 0, 64, 63
1, 250659, Note_off_c, 0, 53, 0
1, 250666, Control_c, 0, 64, 66
1, 250685, Control_c, 0, 64, 68
1, 250704, Control_c, 0, 64, 71
1, 250723, Control_c, 0, 64, 73
1, 250739, Note_on_c, 0, 57, 63
1, 250741, Control_c, 0, 64, 75
1, 250761, Control_c, 0, 64, 77
1, 250778, Control_c, 0, 64, 79
1, 250814, Control_c, 0, 64, 82
1, 250878, Note_off_c, 0, 74, 0
1, 250890, Control_c, 0, 64, 76
1, 250894, Note_off_c, 0, 57, 0
1, 250907, Control_c, 0, 64, 67
1, 250916, Note_on_c, 0, 77, 91
1, 250926, Control_c, 0, 64, 56
1, 250947, Control_c, 0, 64, 43
1, 250949, Note_on_c, 0, 55, 53
1, 250965, Control_c, 0, 64, 30
1, 250981, Control_c, 0, 64, 17
1, 251000, Control_c, 0, 64, 11
1, 251063, Note_off_c, 0, 55, 0
1, 251064, Poly_aftertouch_c, 0, 71, 127
1, 251099, Note_on_c, 0, 53, 59
1, 251261, Note_off_c, 0, 53, 0
1, 251285, Note_on_c, 0, 74, 75
1, 251298, Note_on_c, 0, 52, 61
1, 251305, Control_c, 0, 64, 15
1, 251325, Control_c, 0, 64, 19
1, 251331, Poly_aftertouch_c, 0, 71, 0
1, 251345, Control_c, 0, 64, 25
1, 251364, Control_c, 0, 64, 32
1, 251382, Control_c, 0, 64, 41
1, 251400, Control_c, 0, 64, 50
1, 251401, Note_off_c, 0, 52, 0
1, 251417, Control_c, 0, 64, 55
1, 251446, Note_on_c, 0, 50, 60
1, 251530, Control_c, 0, 64, 52
1, 251549, Control_c, 0, 64, 47
1, 251568, Control_c, 0, 64, 40
1, 251586, Control_c, 0, 64, 32
1, 251603, Control_c, 0, 64, 26
1, 251621, Control_c, 0, 64, 22
1, 251645, Note_on_c, 0, 79, 88
1, 251658, Control_c, 0, 64, 18
1, 251673, Note_off_c, 0, 50, 0
1, 251674, Note_on_c, 0, 48, 60
1, 251677, Note_off_c, 0, 77, 0
1, 251773, Note_off_c, 0, 48, 0
1, 251803, Note_off_c, 0, 74, 0
1, 251828, Note_on_c, 0, 76, 68
1, 251840, Note_on_c, 0, 60, 56
1, 251955, Note_off_c, 0, 76, 0
1, 251976, Control_c, 0, 64, 25
1, 251983, Note_off_c, 0, 60, 0
1, 251993, Control_c, 0, 64, 32
1, 252000, Note_on_c, 0, 74, 73
1, 252007, Note_on_c, 0, 59, 64
1, 252012, Control_c, 0, 64, 40
1, 252032, Control_c, 0, 64, 48
1, 252048, Control_c, 0, 64, 55
1, 252067, Control_c, 0, 64, 59
1, 252086, Control_c, 0, 64, 61
1, 252114, Control_c, 0, 64, 64
1, 252134, Control_c, 0, 64, 67
1, 252151, Control_c, 0, 64, 70
1, 252154, Note_off_c, 0, 79, 0
1, 252163, Note_off_c, 0, 59, 0
1, 252168, Control_c, 0, 64, 73
1, 252173, Note_on_c, 0, 77, 79
1, 252187, Control_c, 0, 64, 76
1, 252188, Note_on_c, 0, 62, 61
1, 252195, Note_off_c, 0, 74, 0
1, 252208, Control_c, 0, 64, 79
1, 252226, Control_c, 0, 64, 82
1, 252243, Control_c, 0, 64, 84
1, 252247, Note_off_c, 0, 77, 0
1, 252318, Control_c, 0, 64, 76
1, 252334, Note_off_c, 0, 62, 0
1, 252336, Control_c, 0, 64, 65
1, 252344, Note_on_c, 0, 84, 88
1, 252355, Control_c, 0, 64, 53
1, 252363, Note_on_c, 0, 60, 64
1, 252370, Note_on_c, 0, 76, 73
1, 252372, Control_c, 0, 64, 45
1, 252393, Control_c, 0, 64, 37
1, 252411, Control_c, 0, 64, 31
1, 252429, Control_c, 0, 64, 25
1, 252446, Control_c, 0, 64, 21
1, 252519, Note_off_c, 0, 60, 0
1, 252522, Note_on_c, 0, 79, 76
1, 252533, Note_on_c, 0, 59, 65
1, 252536, Note_off_c, 0, 76, 0
1, 252674, Note_off_c, 0, 59, 0
1, 252697, Note_on_c, 0, 78, 79
1, 252706, Note_on_c, 0, 57, 63
1, 252729, Note_off_c, 0, 79, 0
1, 252815, Note_off_c, 0, 57, 0
1, 252852, Note_off_c, 0, 78, 0
1, 252856, Note_on_c, 0, 79, 79
1, 252875, Note_on_c, 0, 55, 64
1, 253012, Note_off_c, 0, 55, 0
1, 253054, Note_on_c, 0, 81, 81
1, 253063, Note_on_c, 0, 54, 59
1, 253071, Note_off_c, 0, 79, 0
1, 253187, Note_off_c, 0, 54, 0
1, 253219, Note_off_c, 0, 81, 0
1, 253220, Note_on_c, 0, 55, 57
1, 253221, Note_on_c, 0, 83, 79
1, 253248, Note_off_c, 0, 84, 0
1, 253392, Note_off_c, 0, 55, 0
1, 253393, Note_on_c, 0, 81, 77
1, 253408, Note_off_c, 0, 83, 0
1, 253414, Note_on_c, 0, 74, 68
1, 253418, Note_on_c, 0, 54, 56
1, 253498, Note_off_c, 0, 54, 0
1, 253571, Note_off_c, 0, 81, 0
1, 253575, Note_on_c, 0, 84, 77
1, 253594, Note_on_c, 0, 57, 55
1, 253739, Note_off_c, 0, 57, 0
1, 253755, Note_on_c, 0, 83, 72
1, 253759, Note_off_c, 0, 84, 0
1, 253765, Note_off_c, 0, 74, 0
1, 253769, Note_on_c, 0, 47, 55
1, 253800, Note_off_c, 0, 83, 0
1, 253808, Note_off_c, 0, 47, 0
1, 253927, Note_on_c, 0, 81, 68
1, 253955, Note_on_c, 0, 72, 54
1, 253989, Note_off_c, 0, 81, 0
1, 254000, Note_off_c, 0, 72, 0
1, 254081, Control_c, 0, 67, 49
1, 254124, Note_on_c, 0, 79, 73
1, 254130, Note_on_c, 0, 50, 53
1, 254136, Note_on_c, 0, 71, 61
1, 254167, Note_off_c, 0, 50, 0
1, 254176, Note_off_c, 0, 71, 0
1, 254181, Note_off_c, 0, 79, 0
1, 254300, Note_on_c, 0, 78, 76
1, 254308, Note_on_c, 0, 69, 63
1, 254344, Note_off_c, 0, 69, 0
1, 254360, Note_off_c, 0, 78, 0
1, 254520, Note_on_c, 0, 79, 69
1, 254541, Note_on_c, 0, 55, 48
1, 254565, Note_on_c, 0, 71, 44
1, 254572, Note_off_c, 0, 55, 0
1, 254657, Control_c, 0, 67, 53
1, 254731, Control_c, 0, 67, 57
1, 254786, Control_c, 0, 67, 61
1, 254919, Note_on_c, 0, 50, 50
1, 254962, Control_c, 0, 67, 65
1, 254969, Note_off_c, 0, 50, 0
1, 255019, Control_c, 0, 67, 70
1, 255091, Control_c, 0, 67, 74
1, 255166, Control_c, 0, 67, 78
1, 255222, Control_c, 0, 64, 17
1, 255240, Control_c, 0, 67, 82
1, 255314, Control_c, 0, 67, 86
1, 255352, Control_c, 0, 64, 13
1, 255422, Note_on_c, 0, 43, 38
1, 255500, Control_c, 0, 67, 90
1, 255538, Control_c, 0, 64, 9
1, 255574, Control_c, 0, 67, 95
1, 255685, Control_c, 0, 67, 99
1, 255693, Note_off_c, 0, 79, 0
1, 255706, Note_off_c, 0, 71, 0
1, 255760, Control_c, 0, 67, 103
1, 255827, Note_off_c, 0, 43, 0
1, 255861, Control_c, 0, 67, 108
1, 255954, Control_c, 0, 67, 112
1, 256567, Control_c, 0, 64, 13
1, 256604, Control_c, 0, 64, 18
1, 256623, Control_c, 0, 64, 23
1, 256642, Control_c, 0, 64, 28
1, 256658, Control_c, 0, 64, 35
1, 256677, Control_c, 0, 64, 41
1, 256691, Note_on_c, 0, 71, 63
1, 256696, Control_c, 0, 64, 47
1, 256714, Control_c, 0, 64, 53
1, 256724, Note_on_c, 0, 43, 35
1, 256733, Control_c, 0, 64, 57
1, 256753, Control_c, 0, 64, 59
1, 256771, Control_c, 0, 64, 61
1, 256800, Control_c, 0, 64, 63
1, 256817, Control_c, 0, 64, 64
1, 256837, Control_c, 0, 64, 65
1, 256909, Control_c, 0, 64, 61
1, 256927, Control_c, 0, 64, 55
1, 256947, Control_c, 0, 64, 46
1, 256966, Control_c, 0, 64, 34
1, 256984, Control_c, 0, 64, 22
1, 257000, Note_off_c, 0, 43, 0
1, 257001, Control_c, 0, 64, 14
1, 257035, Note_on_c, 0, 47, 45
1, 257040, Control_c, 0, 64, 10
1, 257072, Note_off_c, 0, 47, 0
1, 257313, Note_on_c, 0, 50, 49
1, 257348, Note_off_c, 0, 50, 0
1, 257635, Note_on_c, 0, 55, 44
1, 257681, Note_off_c, 0, 55, 0
1, 257755, Note_off_c, 0, 71, 0
1, 257762, Note_on_c, 0, 72, 58
1, 257906, Note_off_c, 0, 72, 0
1, 257928, Note_on_c, 0, 74, 64
1, 257931, Note_on_c, 0, 59, 56
1, 257970, Note_off_c, 0, 59, 0
1, 258062, Note_off_c, 0, 74, 0
1, 258069, Note_on_c, 0, 72, 60
1, 258227, Note_on_c, 0, 74, 67
1, 258229, Note_off_c, 0, 72, 0
1, 258233, Note_on_c, 0, 52, 51
1, 258274, Note_off_c, 0, 52, 0
1, 258360, Note_off_c, 0, 74, 0
1, 258378, Note_on_c, 0, 76, 66
1, 258515, Control_c, 0, 64, 14
1, 258533, Control_c, 0, 64, 18
1, 258540, Note_off_c, 0, 76, 0
1, 258553, Control_c, 0, 64, 25
1, 258559, Note_on_c, 0, 69, 64
1, 258570, Control_c, 0, 64, 35
1, 258574, Note_on_c, 0, 42, 38
1, 258589, Control_c, 0, 64, 46
1, 258609, Control_c, 0, 64, 54
1, 258628, Control_c, 0, 64, 58
1, 258646, Control_c, 0, 64, 60
1, 258673, Control_c, 0, 64, 63
1, 258691, Control_c, 0, 64, 64
1, 258710, Control_c, 0, 64, 65
1, 258729, Control_c, 0, 64, 66
1, 258766, Control_c, 0, 64, 65
1, 258786, Control_c, 0, 64, 61
1, 258804, Control_c, 0, 64, 54
1, 258822, Control_c, 0, 64, 43
1, 258842, Control_c, 0, 64, 30
1, 258850, Note_off_c, 0, 42, 0
1, 258857, Control_c, 0, 64, 20
1, 258869, Note_on_c, 0, 45, 52
1, 258876, Control_c, 0, 64, 15
1, 258914, Note_off_c, 0, 45, 0
1, 259183, Note_on_c, 0, 50, 53
1, 259233, Note_off_c, 0, 50, 0
1, 259480, Note_on_c, 0, 54, 50
1, 259536, Note_off_c, 0, 54, 0
1, 259627, Note_off_c, 0, 69, 0
1, 259629, Note_on_c, 0, 71, 63
1, 259781, Note_off_c, 0, 71, 0
1, 259794, Note_on_c, 0, 72, 65
1, 259797, Note_on_c, 0, 57, 54
1, 259832, Note_off_c, 0, 57, 0
1, 259915, Note_off_c, 0, 72, 0
1, 259918, Note_on_c, 0, 71, 73
1, 260074, Note_on_c, 0, 72, 74
1, 260077, Note_off_c, 0, 71, 0
1, 260095, Note_on_c, 0, 50, 52
1, 260143, Note_off_c, 0, 50, 0
1, 260216, Note_on_c, 0, 74, 77
1, 260218, Note_off_c, 0, 72, 0
1, 260409, Note_on_c, 0, 71, 67
1, 260429, Note_on_c, 0, 67, 44
1, 260430, Note_on_c, 0, 40, 39
1, 260445, Note_off_c, 0, 74, 0
1, 260501, Control_c, 0, 64, 20
1, 260520, Control_c, 0, 64, 26
1, 260610, Control_c, 0, 64, 36
1, 260629, Control_c, 0, 64, 47
1, 260647, Control_c, 0, 64, 56
1, 260666, Control_c, 0, 64, 60
1, 260680, Note_off_c, 0, 67, 0
1, 260684, Control_c, 0, 64, 63
1, 260704, Control_c, 0, 64, 67
1, 260722, Control_c, 0, 64, 69
1, 260740, Control_c, 0, 64, 71
1, 260761, Control_c, 0, 64, 74
1, 260795, Control_c, 0, 64, 76
1, 260802, Note_on_c, 0, 43, 52
1, 260808, Note_off_c, 0, 40, 0
1, 260862, Note_off_c, 0, 43, 0
1, 260868, Control_c, 0, 64, 73
1, 260888, Control_c, 0, 64, 71
1, 260906, Control_c, 0, 64, 66
1, 260924, Control_c, 0, 64, 60
1, 260943, Control_c, 0, 64, 51
1, 260961, Control_c, 0, 64, 40
1, 260981, Control_c, 0, 64, 28
1, 260999, Control_c, 0, 64, 19
1, 261018, Control_c, 0, 64, 14
1, 261100, Note_on_c, 0, 47, 50
1, 261141, Note_off_c, 0, 47, 0
1, 261408, Note_on_c, 0, 79, 65
1, 261423, Note_on_c, 0, 52, 45
1, 261513, Note_off_c, 0, 71, 0
1, 261562, Note_on_c, 0, 72, 64
1, 261710, Note_off_c, 0, 52, 0
1, 261717, Note_on_c, 0, 74, 70
1, 261718, Note_off_c, 0, 72, 0
1, 261731, Note_on_c, 0, 47, 41
1, 261809, Note_off_c, 0, 47, 0
1, 261864, Note_on_c, 0, 72, 70
1, 261872, Note_off_c, 0, 74, 0
1, 262012, Note_on_c, 0, 74, 74
1, 262015, Note_off_c, 0, 72, 0
1, 262026, Note_on_c, 0, 49, 47
1, 262074, Note_off_c, 0, 49, 0
1, 262134, Note_off_c, 0, 74, 0
1, 262154, Note_on_c, 0, 76, 66
1, 262334, Note_on_c, 0, 69, 61
1, 262335, Note_off_c, 0, 76, 0
1, 262345, Control_c, 0, 64, 23
1, 262355, Note_on_c, 0, 38, 47
1, 262363, Control_c, 0, 64, 32
1, 262383, Control_c, 0, 64, 43
1, 262411, Control_c, 0, 64, 53
1, 262430, Control_c, 0, 64, 58
1, 262447, Control_c, 0, 64, 61
1, 262467, Control_c, 0, 64, 64
1, 262485, Control_c, 0, 64, 68
1, 262505, Note_off_c, 0, 79, 0
1, 262505, Control_c, 0, 64, 71
1, 262523, Control_c, 0, 64, 75
1, 262539, Control_c, 0, 64, 80
1, 262560, Control_c, 0, 64, 85
1, 262577, Control_c, 0, 64, 89
1, 262614, Control_c, 0, 64, 93
1, 262668, Note_off_c, 0, 38, 0
1, 262670, Control_c, 0, 64, 84
1, 262680, Note_on_c, 0, 81, 69
1, 262689, Control_c, 0, 64, 73
1, 262698, Note_on_c, 0, 42, 50
1, 262710, Control_c, 0, 64, 61
1, 262726, Control_c, 0, 64, 52
1, 262735, Note_off_c, 0, 42, 0
1, 262746, Control_c, 0, 64, 46
1, 262764, Control_c, 0, 64, 41
1, 262782, Control_c, 0, 64, 36
1, 262799, Control_c, 0, 64, 31
1, 262821, Note_on_c, 0, 79, 70
1, 262845, Note_off_c, 0, 81, 0
1, 262988, Note_on_c, 0, 78, 74
1, 262993, Note_off_c, 0, 79, 0
1, 263000, Note_on_c, 0, 45, 49
1, 263046, Note_off_c, 0, 45, 0
1, 263130, Note_on_c, 0, 79, 73
1, 263160, Note_off_c, 0, 78, 0
1, 263245, Poly_aftertouch_c, 0, 69, 24
1, 263294, Note_off_c, 0, 69, 0
1, 263311, Note_on_c, 0, 81, 72
1, 263327, Note_off_c, 0, 79, 0
1, 263327, Note_on_c, 0, 50, 44
1, 263387, Note_off_c, 0, 50, 0
1, 263465, Note_on_c, 0, 71, 58
1, 263508, Note_off_c, 0, 81, 0
1, 263617, Note_off_c, 0, 71, 0
1, 263629, Note_on_c, 0, 72, 62
1, 263646, Note_on_c, 0, 54, 46
1, 263686, Note_off_c, 0, 54, 0
1, 263746, Note_off_c, 0, 72, 0
1, 263776, Note_on_c, 0, 71, 56
1, 263809, Control_c, 0, 64, 27
1, 263911, Note_off_c, 0, 71, 0
1, 263924, Note_on_c, 0, 72, 57
1, 263935, Note_on_c, 0, 45, 58
1, 263939, Control_c, 0, 64, 23
1, 263975, Note_off_c, 0, 45, 0
1, 264057, Note_off_c, 0, 72, 0
1, 264077, Note_on_c, 0, 74, 60
1, 264088, Control_c, 0, 64, 18
1, 264223, Note_off_c, 0, 74, 0
1, 264245, Note_on_c, 0, 47, 56
1, 264249, Note_on_c, 0, 67, 57
1, 264314, Note_off_c, 0, 47, 0
1, 264392, Note_on_c, 0, 45, 57
1, 264451, Note_off_c, 0, 45, 0
1, 264565, Note_on_c, 0, 47, 53
1, 264568, Note_on_c, 0, 74, 67
1, 264682, Note_off_c, 0, 47, 0
1, 264703, Note_on_c, 0, 72, 70
1, 264720, Note_on_c, 0, 48, 53
1, 264725, Note_off_c, 0, 74, 0
1, 264839, Note_off_c, 0, 48, 0
1, 264866, Note_on_c, 0, 71, 71
1, 264883, Note_off_c, 0, 72, 0
1, 264886, Note_on_c, 0, 50, 53
1, 264913, Control_c, 0, 64, 23
1, 264931, Control_c, 0, 64, 29
1, 264952, Control_c, 0, 64, 39
1, 264967, Control_c, 0, 64, 50
1, 264986, Control_c, 0, 64, 58
1, 264990, Note_off_c, 0, 67, 0
1, 265001, Note_on_c, 0, 69, 77
1, 265003, Control_c, 0, 64, 62
1, 265005, Note_off_c, 0, 71, 0
1, 265023, Control_c, 0, 64, 65
1, 265043, Control_c, 0, 64, 68
1, 265061, Control_c, 0, 64, 71
1, 265067, Note_off_c, 0, 69, 0
1, 265080, Control_c, 0, 64, 73
1, 265098, Control_c, 0, 64, 76
1, 265136, Control_c, 0, 64, 78
1, 265171, Control_c, 0, 64, 74
1, 265190, Control_c, 0, 64, 68
1, 265195, Note_on_c, 0, 79, 67
1, 265218, Note_on_c, 0, 71, 67
1, 265218, Control_c, 0, 64, 61
1, 265237, Control_c, 0, 64, 54
1, 265255, Control_c, 0, 64, 46
1, 265274, Control_c, 0, 64, 35
1, 265293, Control_c, 0, 64, 24
1, 265311, Control_c, 0, 64, 16
1, 265328, Note_off_c, 0, 50, 0
1, 265349, Control_c, 0, 64, 11
1, 265365, Note_on_c, 0, 43, 57
1, 265527, Note_off_c, 0, 43, 0
1, 265537, Note_on_c, 0, 72, 72
1, 265542, Note_on_c, 0, 45, 53
1, 265545, Note_off_c, 0, 71, 0
1, 265589, Control_c, 0, 67, 108
1, 265618, Note_off_c, 0, 45, 0
1, 265680, Note_on_c, 0, 71, 76
1, 265691, Note_on_c, 0, 47, 54
1, 265706, Note_off_c, 0, 72, 0
1, 265808, Note_off_c, 0, 47, 0
1, 265810, Note_off_c, 0, 71, 0
1, 265837, Note_on_c, 0, 48, 54
1, 265838, Note_on_c, 0, 69, 70
1, 265936, Note_off_c, 0, 48, 0
1, 265981, Note_off_c, 0, 69, 0
1, 265981, Note_on_c, 0, 71, 72
1, 266007, Note_on_c, 0, 50, 47
1, 266109, Control_c, 0, 64, 17
1, 266120, Note_off_c, 0, 50, 0
1, 266127, Control_c, 0, 64, 24
1, 266154, Control_c, 0, 64, 35
1, 266159, Note_off_c, 0, 71, 0
1, 266169, Note_on_c, 0, 52, 58
1, 266170, Note_on_c, 0, 67, 65
1, 266173, Control_c, 0, 64, 47
1, 266185, Poly_aftertouch_c, 0, 79, 24
1, 266190, Control_c, 0, 64, 55
1, 266210, Control_c, 0, 64, 59
1, 266229, Control_c, 0, 64, 62
1, 266244, Note_off_c, 0, 52, 0
1, 266244, Note_off_c, 0, 79, 0
1, 266246, Control_c, 0, 64, 65
1, 266250, Note_off_c, 0, 67, 0
1, 266266, Control_c, 0, 64, 67
1, 266285, Control_c, 0, 64, 70
1, 266304, Control_c, 0, 64, 72
1, 266314, Note_on_c, 0, 50, 57
1, 266322, Control_c, 0, 64, 74
1, 266397, Control_c, 0, 64, 68
1, 266414, Control_c, 0, 64, 61
1, 266433, Control_c, 0, 64, 51
1, 266452, Control_c, 0, 64, 42
1, 266464, Note_off_c, 0, 50, 0
1, 266469, Control_c, 0, 64, 31
1, 266473, Note_on_c, 0, 76, 75
1, 266487, Note_on_c, 0, 83, 48
1, 266489, Control_c, 0, 64, 23
1, 266494, Note_on_c, 0, 81, 60
1, 266494, Note_on_c, 0, 48, 56
1, 266508, Control_c, 0, 64, 17
1, 266546, Note_off_c, 0, 83, 0
1, 266609, Note_off_c, 0, 81, 0
1, 266613, Note_off_c, 0, 48, 0
1, 266620, Note_on_c, 0, 79, 73
1, 266631, Note_on_c, 0, 47, 61
1, 266784, Note_on_c, 0, 78, 74
1, 266785, Note_off_c, 0, 79, 0
1, 266787, Note_on_c, 0, 74, 71
1, 266788, Note_off_c, 0, 76, 0
1, 266796, Note_off_c, 0, 47, 0
1, 266798, Note_on_c, 0, 48, 62
1, 266884, Note_off_c, 0, 48, 0
1, 266926, Note_on_c, 0, 79, 79
1, 266943, Note_on_c, 0, 52, 59
1, 266947, Note_off_c, 0, 78, 0
1, 266983, Note_off_c, 0, 74, 0
1, 267052, Note_off_c, 0, 52, 0
1, 267107, Note_on_c, 0, 81, 80
1, 267119, Note_on_c, 0, 72, 74
1, 267126, Note_off_c, 0, 79, 0
1, 267127, Note_on_c, 0, 42, 53
1, 267193, Note_off_c, 0, 42, 0
1, 267258, Note_on_c, 0, 45, 63
1, 267259, Note_off_c, 0, 72, 0
1, 267315, Note_off_c, 0, 45, 0
1, 267345, Note_off_c, 0, 81, 0
1, 267416, Note_on_c, 0, 78, 81
1, 267439, Note_on_c, 0, 43, 58
1, 267549, Note_off_c, 0, 43, 0
1, 267565, Note_on_c, 0, 42, 60
1, 267573, Note_off_c, 0, 78, 0
1, 267710, Note_off_c, 0, 42, 0
1, 267719, Note_on_c, 0, 81, 82
1, 267745, Note_on_c, 0, 40, 57
1, 267884, Note_off_c, 0, 40, 0
1, 267886, Note_on_c, 0, 38, 57
1, 267943, Note_off_c, 0, 81, 0
1, 268000, Note_off_c, 0, 38, 0
1, 268073, Note_on_c, 0, 71, 81
1, 268084, Note_on_c, 0, 43, 57
1, 268193, Note_off_c, 0, 43, 0
1, 268222, Note_on_c, 0, 42, 58
1, 268400, Note_on_c, 0, 74, 65
1, 268401, Note_off_c, 0, 42, 0
1, 268410, Note_on_c, 0, 43, 55
1, 268436, Control_c, 0, 64, 25
1, 268455, Control_c, 0, 64, 36
1, 268473, Control_c, 0, 64, 48
1, 268492, Control_c, 0, 64, 57
1, 268499, Note_off_c, 0, 43, 0
1, 268510, Control_c, 0, 64, 62
1, 268511, Note_off_c, 0, 71, 0
1, 268529, Control_c, 0, 64, 65
1, 268545, Note_on_c, 0, 72, 74
1, 268547, Control_c, 0, 64, 69
1, 268549, Note_off_c, 0, 74, 0
1, 268567, Note_on_c, 0, 45, 59
1, 268568, Control_c, 0, 64, 73
1, 268583, Control_c, 0, 64, 77
1, 268602, Note_off_c, 0, 72, 0
1, 268602, Control_c, 0, 64, 82
1, 268620, Control_c, 0, 64, 87
1, 268678, Control_c, 0, 64, 85
1, 268696, Control_c, 0, 64, 69
1, 268715, Control_c, 0, 64, 47
1, 268717, Note_on_c, 0, 81, 79
1, 268718, Note_on_c, 0, 79, 80
1, 268728, Note_off_c, 0, 45, 0
1, 268733, Control_c, 0, 64, 20
1, 268746, Note_on_c, 0, 71, 57
1, 268748, Note_on_c, 0, 47, 55
1, 268751, Control_c, 0, 64, 0
1, 268774, Note_off_c, 0, 71, 0
1, 268807, Control_c, 0, 64, 20
1, 268813, Note_off_c, 0, 81, 0
1, 268824, Control_c, 0, 64, 36
1, 268836, Note_off_c, 0, 47, 0
1, 268843, Control_c, 0, 64, 53
1, 268862, Control_c, 0, 64, 62
1, 268866, Note_on_c, 0, 69, 64
1, 268881, Control_c, 0, 64, 65
1, 268881, Note_on_c, 0, 48, 58
1, 268900, Control_c, 0, 64, 68
1, 268919, Control_c, 0, 64, 71
1, 268930, Note_off_c, 0, 69, 0
1, 268937, Control_c, 0, 64, 73
1, 268965, Note_off_c, 0, 79, 0
1, 269020, Control_c, 0, 64, 68
1, 269036, Note_off_c, 0, 48, 0
1, 269039, Control_c, 0, 64, 60
1, 269050, Note_on_c, 0, 79, 80
1, 269056, Control_c, 0, 64, 50
1, 269075, Control_c, 0, 64, 37
1, 269076, Note_on_c, 0, 50, 59
1, 269087, Note_on_c, 0, 71, 54
1, 269094, Control_c, 0, 64, 17
1, 269114, Control_c, 0, 64, 0
1, 269158, Note_off_c, 0, 50, 0
1, 269188, Control_c, 0, 64, 17
1, 269205, Control_c, 0, 64, 31
1, 269221, Control_c, 0, 64, 47
1, 269222, Note_on_c, 0, 52, 55
1, 269243, Control_c, 0, 64, 61
1, 269261, Control_c, 0, 64, 67
1, 269280, Control_c, 0, 64, 69
1, 269318, Control_c, 0, 64, 66
1, 269337, Control_c, 0, 64, 56
1, 269354, Note_off_c, 0, 52, 0
1, 269354, Control_c, 0, 64, 37
1, 269374, Control_c, 0, 64, 18
1, 269390, Note_on_c, 0, 45, 55
1, 269391, Note_on_c, 0, 72, 65
1, 269407, Note_off_c, 0, 71, 0
1, 269429, Control_c, 0, 64, 35
1, 269447, Control_c, 0, 64, 53
1, 269465, Control_c, 0, 64, 65
1, 269475, Note_off_c, 0, 79, 0
1, 269483, Control_c, 0, 64, 69
1, 269503, Control_c, 0, 64, 71
1, 269504, Note_off_c, 0, 45, 0
1, 269521, Control_c, 0, 64, 74
1, 269540, Control_c, 0, 64, 76
1, 269551, Note_on_c, 0, 71, 71
1, 269553, Note_off_c, 0, 72, 0
1, 269553, Note_on_c, 0, 47, 59
1, 269559, Control_c, 0, 64, 79
1, 269569, Control_c, 0, 64, 83
1, 269587, Control_c, 0, 64, 87
1, 269620, Note_off_c, 0, 71, 0
1, 269622, Note_off_c, 0, 47, 0
1, 269643, Control_c, 0, 64, 81
1, 269661, Control_c, 0, 64, 70
1, 269681, Control_c, 0, 64, 55
1, 269692, Note_on_c, 0, 78, 76
1, 269700, Control_c, 0, 64, 45
1, 269718, Control_c, 0, 64, 37
1, 269720, Note_on_c, 0, 48, 53
1, 269728, Note_on_c, 0, 69, 56
1, 269736, Control_c, 0, 64, 29
1, 269753, Control_c, 0, 64, 23
1, 269772, Control_c, 0, 64, 16
1, 269808, Note_off_c, 0, 48, 0
1, 269848, Note_on_c, 0, 45, 52
1, 269876, Note_off_c, 0, 69, 0
1, 269893, Note_on_c, 0, 71, 62
1, 269977, Note_off_c, 0, 45, 0
1, 270032, Note_off_c, 0, 71, 0
1, 270044, Note_on_c, 0, 67, 63
1, 270051, Note_on_c, 0, 47, 58
1, 270116, Note_off_c, 0, 47, 0
1, 270124, Note_off_c, 0, 67, 0
1, 270195, Note_on_c, 0, 45, 59
1, 270338, Note_off_c, 0, 45, 0
1, 270360, Note_on_c, 0, 76, 71
1, 270369, Note_on_c, 0, 43, 53
1, 270396, Note_off_c, 0, 78, 0
1, 270481, Note_off_c, 0, 43, 0
1, 270503, Note_on_c, 0, 42, 63
1, 270535, Note_off_c, 0, 76, 0
1, 270669, Note_off_c, 0, 42, 0
1, 270670, Note_on_c, 0, 83, 85
1, 270697, Note_on_c, 0, 43, 61
1, 270705, Note_on_c, 0, 74, 64
1, 270837, Note_off_c, 0, 74, 0
1, 270993, Note_on_c, 0, 81, 79
1, 271029, Note_on_c, 0, 72, 52
1, 271056, Note_off_c, 0, 83, 0
1, 271138, Note_off_c, 0, 43, 0
1, 271156, Note_on_c, 0, 42, 54
1, 271292, Note_off_c, 0, 42, 0
1, 271327, Note_on_c, 0, 78, 71
1, 271331, Note_on_c, 0, 40, 58
1, 271368, Control_c, 0, 64, 24
1, 271385, Control_c, 0, 64, 33
1, 271403, Control_c, 0, 64, 43
1, 271422, Control_c, 0, 64, 53
1, 271424, Note_off_c, 0, 81, 0
1, 271426, Note_off_c, 0, 72, 0
1, 271442, Control_c, 0, 64, 59
1, 271448, Note_off_c, 0, 40, 0
1, 271461, Control_c, 0, 64, 63
1, 271474, Note_on_c, 0, 38, 59
1, 271477, Control_c, 0, 64, 66
1, 271497, Control_c, 0, 64, 68
1, 271517, Control_c, 0, 64, 70
1, 271557, Note_off_c, 0, 78, 0
1, 271562, Note_off_c, 0, 38, 0
1, 271572, Control_c, 0, 64, 65
1, 271592, Control_c, 0, 64, 57
1, 271609, Control_c, 0, 64, 46
1, 271627, Control_c, 0, 64, 33
1, 271644, Note_on_c, 0, 81, 58
1, 271646, Note_on_c, 0, 40, 50
1, 271646, Control_c, 0, 64, 27
1, 271647, Note_on_c, 0, 74, 69
1, 271701, Control_c, 0, 64, 32
1, 271721, Control_c, 0, 64, 40
1, 271731, Note_off_c, 0, 40, 0
1, 271738, Control_c, 0, 64, 50
1, 271767, Control_c, 0, 64, 59
1, 271786, Control_c, 0, 64, 62
1, 271800, Note_on_c, 0, 42, 53
1, 271803, Control_c, 0, 64, 63
1, 271833, Note_off_c, 0, 81, 0
1, 271839, Control_c, 0, 64, 60
1, 271860, Control_c, 0, 64, 56
1, 271877, Control_c, 0, 64, 48
1, 271897, Control_c, 0, 64, 37
1, 271914, Control_c, 0, 64, 28
1, 271956, Note_off_c, 0, 42, 0
1, 271971, Note_on_c, 0, 71, 56
1, 271980, Note_on_c, 0, 43, 56
1, 272094, Note_off_c, 0, 74, 0
1, 272101, Note_off_c, 0, 43, 0
1, 272111, Note_on_c, 0, 76, 71
1, 272119, Note_on_c, 0, 42, 55
1, 272256, Note_off_c, 0, 42, 0
1, 272275, Note_on_c, 0, 74, 71
1, 272278, Note_on_c, 0, 43, 57
1, 272314, Note_off_c, 0, 76, 0
1, 272355, Note_off_c, 0, 71, 0
1, 272426, Note_off_c, 0, 43, 0
1, 272429, Note_on_c, 0, 72, 74
1, 272441, Note_on_c, 0, 45, 56
1, 272451, Note_off_c, 0, 74, 0
1, 272517, Note_off_c, 0, 72, 0
1, 272592, Note_off_c, 0, 45, 0
1, 272597, Note_on_c, 0, 79, 78
1, 272599, Note_on_c, 0, 71, 74
1, 272618, Note_on_c, 0, 43, 54
1, 272741, Control_c, 0, 64, 34
1, 272758, Note_off_c, 0, 43, 0
1, 272758, Control_c, 0, 64, 45
1, 272777, Note_on_c, 0, 42, 61
1, 272777, Control_c, 0, 64, 58
1, 272796, Control_c, 0, 64, 65
1, 272815, Control_c, 0, 64, 67
1, 272832, Control_c, 0, 64, 69
1, 272845, Note_off_c, 0, 79, 0
1, 272850, Control_c, 0, 64, 71
1, 272888, Control_c, 0, 64, 69
1, 272895, Note_off_c, 0, 71, 0
1, 272907, Control_c, 0, 64, 63
1, 272909, Note_off_c, 0, 42, 0
1, 272925, Control_c, 0, 64, 52
1, 272937, Note_on_c, 0, 79, 79
1, 272938, Note_on_c, 0, 76, 75
1, 272944, Control_c, 0, 64, 37
1, 272951, Note_on_c, 0, 40, 60
1, 272965, Control_c, 0, 64, 18
1, 273069, Note_off_c, 0, 40, 0
1, 273073, Control_c, 0, 64, 27
1, 273086, Note_on_c, 0, 42, 63
1, 273092, Control_c, 0, 64, 43
1, 273111, Control_c, 0, 64, 57
1, 273130, Control_c, 0, 64, 62
1, 273186, Control_c, 0, 64, 59
1, 273204, Control_c, 0, 64, 53
1, 273223, Control_c, 0, 64, 40
1, 273242, Note_off_c, 0, 42, 0
1, 273242, Control_c, 0, 64, 19
1, 273254, Note_on_c, 0, 71, 79
1, 273258, Note_on_c, 0, 43, 63
1, 273260, Control_c, 0, 64, 11
1, 273269, Note_off_c, 0, 76, 0
1, 273317, Control_c, 0, 64, 26
1, 273335, Control_c, 0, 64, 41
1, 273354, Control_c, 0, 64, 55
1, 273375, Control_c, 0, 64, 62
1, 273391, Control_c, 0, 64, 65
1, 273398, Note_off_c, 0, 43, 0
1, 273409, Note_on_c, 0, 40, 68
1, 273410, Control_c, 0, 64, 68
1, 273436, Note_off_c, 0, 71, 0
1, 273483, Control_c, 0, 64, 64
1, 273502, Control_c, 0, 64, 53
1, 273522, Control_c, 0, 64, 36
1, 273539, Control_c, 0, 64, 20
1, 273575, Note_on_c, 0, 78, 74
1, 273576, Note_on_c, 0, 74, 78
1, 273581, Note_off_c, 0, 40, 0
1, 273584, Note_on_c, 0, 42, 64
1, 273604, Note_off_c, 0, 79, 0
1, 273614, Control_c, 0, 64, 31
1, 273640, Control_c, 0, 64, 41
1, 273659, Control_c, 0, 64, 51
1, 273678, Control_c, 0, 64, 58
1, 273713, Note_off_c, 0, 42, 0
1, 273725, Note_on_c, 0, 43, 69
1, 273753, Control_c, 0, 64, 54
1, 273772, Control_c, 0, 64, 47
1, 273790, Control_c, 0, 64, 37
1, 273809, Control_c, 0, 64, 25
1, 273826, Control_c, 0, 64, 18
1, 273877, Note_off_c, 0, 43, 0
1, 273888, Note_on_c, 0, 73, 79
1, 273893, Note_off_c, 0, 74, 0
1, 273897, Note_on_c, 0, 45, 66
1, 273938, Control_c, 0, 64, 26
1, 273957, Control_c, 0, 64, 36
1, 273976, Control_c, 0, 64, 48
1, 273994, Control_c, 0, 64, 57
1, 274010, Control_c, 0, 64, 60
1, 274013, Note_off_c, 0, 45, 0
1, 274030, Control_c, 0, 64, 61
1, 274041, Note_on_c, 0, 43, 69
1, 274067, Control_c, 0, 64, 62
1, 274105, Control_c, 0, 64, 61
1, 274123, Control_c, 0, 64, 58
1, 274142, Control_c, 0, 64, 52
1, 274161, Control_c, 0, 64, 43
1, 274180, Control_c, 0, 64, 31
1, 274194, Note_off_c, 0, 43, 0
1, 274198, Control_c, 0, 64, 20
1, 274203, Note_off_c, 0, 73, 0
1, 274216, Note_on_c, 0, 74, 78
1, 274220, Note_on_c, 0, 45, 62
1, 274237, Control_c, 0, 64, 16
1, 274274, Note_off_c, 0, 78, 0
1, 274309, Control_c, 0, 64, 21
1, 274327, Control_c, 0, 64, 31
1, 274340, Note_off_c, 0, 45, 0
1, 274346, Control_c, 0, 64, 45
1, 274362, Note_on_c, 0, 47, 72
1, 274364, Control_c, 0, 64, 58
1, 274385, Control_c, 0, 64, 61
1, 274457, Control_c, 0, 64, 59
1, 274475, Control_c, 0, 64, 53
1, 274494, Control_c, 0, 64, 42
1, 274512, Note_off_c, 0, 74, 0
1, 274512, Control_c, 0, 64, 28
1, 274531, Control_c, 0, 64, 21
1, 274533, Note_on_c, 0, 83, 81
1, 274541, Note_off_c, 0, 47, 0
1, 274543, Note_on_c, 0, 76, 77
1, 274576, Note_on_c, 0, 45, 66
1, 274616, Control_c, 0, 64, 15
1, 274684, Note_off_c, 0, 45, 0
1, 274708, Note_on_c, 0, 43, 69
1, 274736, Note_off_c, 0, 83, 0
1, 274855, Control_c, 0, 64, 25
1, 274873, Control_c, 0, 64, 36
1, 274878, Note_on_c, 0, 81, 81
1, 274894, Note_off_c, 0, 43, 0
1, 274894, Note_on_c, 0, 42, 69
1, 274894, Control_c, 0, 64, 50
1, 274912, Control_c, 0, 64, 59
1, 274929, Control_c, 0, 64, 62
1, 274949, Control_c, 0, 64, 64
1, 274968, Control_c, 0, 64, 66
1, 274986, Control_c, 0, 64, 67
1, 274990, Note_off_c, 0, 42, 0
1, 274991, Note_off_c, 0, 76, 0
1, 275003, Control_c, 0, 64, 69
1, 275034, Note_on_c, 0, 76, 10
1, 275040, Control_c, 0, 64, 72
1, 275057, Note_on_c, 0, 54, 59
1, 275097, Control_c, 0, 64, 68
1, 275116, Control_c, 0, 64, 60
1, 275134, Control_c, 0, 64, 47
1, 275153, Control_c, 0, 64, 29
1, 275170, Note_off_c, 0, 54, 0
1, 275171, Control_c, 0, 64, 13
1, 275207, Note_on_c, 0, 73, 79
1, 275211, Note_on_c, 0, 55, 57
1, 275222, Note_off_c, 0, 81, 0
1, 275248, Control_c, 0, 64, 23
1, 275253, Note_off_c, 0, 76, 0
1, 275263, Control_c, 0, 64, 35
1, 275282, Control_c, 0, 64, 49
1, 275301, Control_c, 0, 64, 58
1, 275307, Note_off_c, 0, 55, 0
1, 275320, Control_c, 0, 64, 62
1, 275338, Control_c, 0, 64, 64
1, 275359, Control_c, 0, 64, 66
1, 275374, Note_on_c, 0, 54, 57
1, 275376, Control_c, 0, 64, 68
1, 275395, Control_c, 0, 64, 70
1, 275413, Control_c, 0, 64, 72
1, 275486, Control_c, 0, 64, 64
1, 275515, Control_c, 0, 64, 52
1, 275524, Note_off_c, 0, 54, 0
1, 275530, Note_off_c, 0, 73, 0
1, 275534, Control_c, 0, 64, 38
1, 275549, Note_on_c, 0, 74, 68
1, 275551, Control_c, 0, 64, 23
1, 275555, Note_on_c, 0, 69, 69
1, 275570, Control_c, 0, 64, 16
1, 275585, Note_on_c, 0, 52, 50
1, 275645, Note_off_c, 0, 52, 0
1, 275715, Note_on_c, 0, 54, 57
1, 275812, Note_off_c, 0, 54, 0
1, 275875, Note_on_c, 0, 47, 59
1, 275973, Note_off_c, 0, 47, 0
1, 276004, Note_off_c, 0, 69, 0
1, 276024, Note_off_c, 0, 74, 0
1, 276027, Note_on_c, 0, 45, 58
1, 276031, Note_on_c, 0, 76, 70
1, 276127, Note_off_c, 0, 45, 0
1, 276187, Note_on_c, 0, 74, 67
1, 276206, Note_off_c, 0, 76, 0
1, 276206, Note_on_c, 0, 47, 54
1, 276298, Note_off_c, 0, 47, 0
1, 276311, Control_c, 0, 64, 20
1, 276331, Note_off_c, 0, 74, 0
1, 276335, Note_on_c, 0, 72, 74
1, 276352, Note_on_c, 0, 48, 58
1, 276425, Note_off_c, 0, 48, 0
1, 276495, Note_off_c, 0, 72, 0
1, 276514, Note_on_c, 0, 74, 81
1, 276536, Note_on_c, 0, 50, 52
1, 276565, Note_on_c, 0, 71, 50
1, 276610, Note_off_c, 0, 50, 0
1, 276675, Note_on_c, 0, 47, 54
1, 276831, Note_off_c, 0, 47, 0
1, 276839, Note_on_c, 0, 76, 75
1, 276843, Note_on_c, 0, 67, 77
1, 276844, Note_off_c, 0, 71, 0
1, 276860, Note_on_c, 0, 49, 55
1, 276879, Note_off_c, 0, 74, 0
1, 276965, Note_off_c, 0, 49, 0
1, 277003, Note_on_c, 0, 50, 51
1, 277120, Note_off_c, 0, 76, 0
1, 277131, Note_off_c, 0, 50, 0
1, 277161, Note_on_c, 0, 71, 62
1, 277170, Note_on_c, 0, 52, 50
1, 277276, Note_off_c, 0, 52, 0
1, 277313, Note_on_c, 0, 50, 56
1, 277462, Note_off_c, 0, 50, 0
1, 277491, Note_on_c, 0, 49, 53
1, 277493, Note_off_c, 0, 71, 0
1, 277501, Note_on_c, 0, 74, 67
1, 277567, Note_off_c, 0, 49, 0
1, 277639, Note_on_c, 0, 47, 56
1, 277785, Note_off_c, 0, 47, 0
1, 277806, Note_off_c, 0, 74, 0
1, 277831, Note_on_c, 0, 73, 60
1, 277836, Note_on_c, 0, 45, 46
1, 277852, Control_c, 0, 64, 25
1, 277871, Control_c, 0, 64, 32
1, 277888, Control_c, 0, 64, 41
1, 277900, Note_off_c, 0, 45, 0
1, 277906, Control_c, 0, 64, 51
1, 277914, Note_off_c, 0, 67, 0
1, 277925, Control_c, 0, 64, 57
1, 277944, Control_c, 0, 64, 60
1, 277962, Control_c, 0, 64, 63
1, 277981, Note_on_c, 0, 52, 49
1, 277983, Control_c, 0, 64, 67
1, 278000, Control_c, 0, 64, 69
1, 278018, Control_c, 0, 64, 72
1, 278038, Control_c, 0, 64, 76
1, 278054, Note_off_c, 0, 52, 0
1, 278056, Control_c, 0, 64, 78
1, 278112, Control_c, 0, 64, 69
1, 278129, Control_c, 0, 64, 51
1, 278142, Note_on_c, 0, 74, 61
1, 278143, Note_on_c, 0, 66, 74
1, 278147, Control_c, 0, 64, 24
1, 278154, Note_on_c, 0, 50, 51
1, 278166, Control_c, 0, 64, 0
1, 278188, Note_off_c, 0, 73, 0
1, 278222, Control_c, 0, 64, 20
1, 278242, Control_c, 0, 64, 39
1, 278258, Control_c, 0, 64, 58
1, 278260, Note_off_c, 0, 50, 0
1, 278277, Control_c, 0, 64, 67
1, 278294, Control_c, 0, 64, 72
1, 278295, Note_on_c, 0, 49, 54
1, 278323, Control_c, 0, 64, 77
1, 278330, Note_off_c, 0, 74, 0
1, 278343, Control_c, 0, 64, 83
1, 278349, Note_off_c, 0, 66, 0
1, 278362, Control_c, 0, 64, 91
1, 278380, Control_c, 0, 64, 99
1, 278399, Control_c, 0, 64, 107
1, 278415, Note_off_c, 0, 49, 0
1, 278420, Control_c, 0, 64, 111
1, 278452, Control_c, 0, 64, 100
1, 278472, Control_c, 0, 64, 78
1, 278481, Note_on_c, 0, 76, 71
1, 278481, Note_on_c, 0, 50, 52
1, 278488, Note_on_c, 0, 67, 74
1, 278491, Control_c, 0, 64, 51
1, 278510, Control_c, 0, 64, 19
1, 278527, Control_c, 0, 64, 0
1, 278565, Control_c, 0, 64, 11
1, 278573, Note_off_c, 0, 50, 0
1, 278584, Control_c, 0, 64, 28
1, 278602, Control_c, 0, 64, 47
1, 278622, Control_c, 0, 64, 62
1, 278628, Note_on_c, 0, 47, 56
1, 278639, Control_c, 0, 64, 69
1, 278657, Control_c, 0, 64, 73
1, 278676, Control_c, 0, 64, 79
1, 278694, Control_c, 0, 64, 84
1, 278714, Control_c, 0, 64, 89
1, 278726, Note_off_c, 0, 47, 0
1, 278769, Control_c, 0, 64, 77
1, 278788, Control_c, 0, 64, 58
1, 278806, Control_c, 0, 64, 32
1, 278813, Note_off_c, 0, 67, 0
1, 278813, Note_on_c, 0, 49, 56
1, 278814, Note_on_c, 0, 64, 76
1, 278875, Note_off_c, 0, 76, 0
1, 278879, Control_c, 0, 64, 17
1, 278888, Note_off_c, 0, 49, 0
1, 278898, Control_c, 0, 64, 34
1, 278918, Control_c, 0, 64, 53
1, 278936, Control_c, 0, 64, 65
1, 278955, Control_c, 0, 64, 70
1, 278963, Note_on_c, 0, 45, 57
1, 278975, Control_c, 0, 64, 74
1, 278992, Control_c, 0, 64, 80
1, 279011, Control_c, 0, 64, 87
1, 279031, Control_c, 0, 64, 93
1, 279066, Note_off_c, 0, 64, 0
1, 279084, Control_c, 0, 64, 89
1, 279095, Poly_aftertouch_c, 0, 71, 0
1, 279101, Control_c, 0, 64, 72
1, 279108, Note_off_c, 0, 45, 0
1, 279123, Control_c, 0, 64, 48
1, 279135, Note_on_c, 0, 73, 66
1, 279136, Note_on_c, 0, 69, 68
1, 279140, Control_c, 0, 64, 19
1, 279149, Note_on_c, 0, 47, 56
1, 279158, Control_c, 0, 64, 0
1, 279215, Control_c, 0, 64, 23
1, 279233, Control_c, 0, 64, 42
1, 279256, Note_off_c, 0, 69, 0
1, 279258, Note_off_c, 0, 47, 0
1, 279259, Control_c, 0, 64, 59
1, 279270, Note_off_c, 0, 73, 0
1, 279277, Control_c, 0, 64, 67
1, 279282, Note_on_c, 0, 67, 73
1, 279298, Control_c, 0, 64, 72
1, 279306, Note_on_c, 0, 49, 58
1, 279315, Control_c, 0, 64, 77
1, 279335, Control_c, 0, 64, 82
1, 279353, Control_c, 0, 64, 85
1, 279410, Control_c, 0, 64, 76
1, 279428, Control_c, 0, 64, 61
1, 279438, Note_off_c, 0, 67, 0
1, 279445, Control_c, 0, 64, 45
1, 279458, Note_on_c, 0, 69, 71
1, 279461, Note_on_c, 0, 66, 70
1, 279462, Control_c, 0, 64, 33
1, 279468, Note_off_c, 0, 49, 0
1, 279480, Note_on_c, 0, 50, 56
1, 279482, Control_c, 0, 64, 22
1, 279502, Control_c, 0, 64, 16
1, 279555, Note_off_c, 0, 50, 0
1, 279591, Note_off_c, 0, 69, 0
1, 279607, Note_on_c, 0, 64, 76
1, 279614, Note_off_c, 0, 66, 0
1, 279629, Note_on_c, 0, 52, 47
1, 279765, Note_off_c, 0, 52, 0
1, 279786, Note_on_c, 0, 62, 75
1, 279793, Note_on_c, 0, 54, 64
1, 279807, Note_off_c, 0, 64, 0
1, 279858, Note_off_c, 0, 54, 0
1, 279938, Note_on_c, 0, 47, 63
1, 280059, Note_off_c, 0, 62, 0
1, 280080, Note_off_c, 0, 47, 0
1, 280088, Note_on_c, 0, 64, 76
1, 280110, Note_on_c, 0, 49, 68
1, 280151, Control_c, 0, 64, 23
1, 280169, Control_c, 0, 64, 29
1, 280198, Control_c, 0, 64, 40
1, 280216, Control_c, 0, 64, 53
1, 280235, Control_c, 0, 64, 62
1, 280236, Note_off_c, 0, 49, 0
1, 280239, Note_on_c, 0, 66, 76
1, 280247, Note_off_c, 0, 64, 0
1, 280253, Control_c, 0, 64, 67
1, 280261, Note_on_c, 0, 50, 62
1, 280273, Control_c, 0, 64, 70
1, 280291, Control_c, 0, 64, 74
1, 280304, Note_off_c, 0, 66, 0
1, 280309, Control_c, 0, 64, 76
1, 280348, Control_c, 0, 64, 69
1, 280364, Note_off_c, 0, 50, 0
1, 280366, Control_c, 0, 64, 58
1, 280386, Control_c, 0, 64, 45
1, 280399, Note_on_c, 0, 67, 75
1, 280404, Control_c, 0, 64, 34
1, 280404, Note_on_c, 0, 74, 77
1, 280417, Note_on_c, 0, 52, 61
1, 280423, Control_c, 0, 64, 28
1, 280478, Control_c, 0, 64, 24
1, 280525, Note_off_c, 0, 52, 0
1, 280549, Note_on_c, 0, 69, 81
1, 280558, Note_on_c, 0, 54, 62
1, 280566, Note_off_c, 0, 67, 0
1, 280581, Note_off_c, 0, 74, 0
1, 280692, Note_off_c, 0, 54, 0
1, 280723, Note_on_c, 0, 71, 82
1, 280736, Note_off_c, 0, 69, 0
1, 280739, Note_on_c, 0, 55, 58
1, 280774, Note_on_c, 0, 67, 54
1, 280851, Note_off_c, 0, 55, 0
1, 280876, Note_on_c, 0, 54, 55
1, 281028, Note_off_c, 0, 71, 0
1, 281046, Note_on_c, 0, 74, 81
1, 281050, Note_off_c, 0, 54, 0
1, 281072, Note_on_c, 0, 52, 56
1, 281173, Note_off_c, 0, 52, 0
1, 281216, Note_on_c, 0, 50, 64
1, 281315, Note_off_c, 0, 50, 0
1, 281377, Note_on_c, 0, 73, 80
1, 281399, Note_on_c, 0, 52, 56
1, 281412, Note_off_c, 0, 74, 0
1, 281516, Note_off_c, 0, 52, 0
1, 281535, Note_on_c, 0, 46, 64
1, 281664, Note_off_c, 0, 46, 0
1, 281704, Note_on_c, 0, 74, 78
1, 281715, Note_on_c, 0, 47, 59
1, 281725, Note_off_c, 0, 73, 0
1, 281835, Note_off_c, 0, 47, 0
1, 281868, Note_on_c, 0, 49, 60
1, 281898, Note_off_c, 0, 67, 0
1, 281960, Note_off_c, 0, 49, 0
1, 282014, Note_on_c, 0, 66, 58
1, 282044, Note_on_c, 0, 50, 50
1, 282185, Note_off_c, 0, 50, 0
1, 282197, Note_on_c, 0, 49, 52
1, 282344, Note_off_c, 0, 49, 0
1, 282349, Note_off_c, 0, 66, 0
1, 282364, Note_on_c, 0, 67, 53
1, 282369, Note_on_c, 0, 47, 50
1, 282446, Note_off_c, 0, 47, 0
1, 282526, Note_on_c, 0, 45, 55
1, 282592, Note_off_c, 0, 45, 0
1, 282652, Note_off_c, 0, 67, 0
1, 282678, Note_on_c, 0, 64, 56
1, 282703, Control_c, 0, 64, 28
1, 282705, Note_on_c, 0, 43, 46
1, 282722, Control_c, 0, 64, 33
1, 282741, Control_c, 0, 64, 42
1, 282760, Control_c, 0, 64, 52
1, 282779, Control_c, 0, 64, 59
1, 282796, Control_c, 0, 64, 63
1, 282804, Note_off_c, 0, 43, 0
1, 282817, Control_c, 0, 64, 67
1, 282835, Control_c, 0, 64, 71
1, 282842, Note_on_c, 0, 42, 54
1, 282854, Control_c, 0, 64, 74
1, 282870, Control_c, 0, 64, 79
1, 282890, Control_c, 0, 64, 83
1, 282908, Control_c, 0, 64, 87
1, 282927, Note_off_c, 0, 64, 0
1, 282930, Note_off_c, 0, 42, 0
1, 282964, Control_c, 0, 64, 82
1, 282983, Control_c, 0, 64, 70
1, 283011, Control_c, 0, 64, 53
1, 283014, Note_off_c, 0, 74, 0
1, 283017, Note_on_c, 0, 69, 54
1, 283020, Note_on_c, 0, 73, 64
1, 283023, Note_on_c, 0, 43, 51
1, 283030, Control_c, 0, 64, 35
1, 283048, Control_c, 0, 64, 18
1, 283069, Control_c, 0, 64, 12
1, 283101, Note_off_c, 0, 69, 0
1, 283112, Note_off_c, 0, 43, 0
1, 283140, Control_c, 0, 64, 18
1, 283159, Control_c, 0, 64, 27
1, 283175, Note_on_c, 0, 67, 44
1, 283179, Control_c, 0, 64, 39
1, 283190, Note_on_c, 0, 47, 46
1, 283198, Control_c, 0, 64, 54
1, 283215, Control_c, 0, 64, 63
1, 283252, Control_c, 0, 64, 59
1, 283270, Note_off_c, 0, 47, 0
1, 283270, Control_c, 0, 64, 51
1, 283290, Control_c, 0, 64, 38
1, 283295, Note_off_c, 0, 67, 0
1, 283307, Control_c, 0, 64, 25
1, 283324, Note_on_c, 0, 66, 56
1, 283328, Control_c, 0, 64, 20
1, 283341, Note_on_c, 0, 45, 56
1, 283363, Control_c, 0, 64, 28
1, 283381, Control_c, 0, 64, 43
1, 283399, Control_c, 0, 64, 57
1, 283419, Control_c, 0, 64, 62
1, 283434, Note_off_c, 0, 66, 0
1, 283437, Control_c, 0, 64, 63
1, 283448, Note_off_c, 0, 45, 0
1, 283457, Control_c, 0, 64, 65
1, 283475, Control_c, 0, 64, 67
1, 283484, Note_on_c, 0, 64, 61
1, 283492, Note_on_c, 0, 43, 49
1, 283512, Control_c, 0, 64, 70
1, 283553, Note_off_c, 0, 64, 0
1, 283600, Note_off_c, 0, 73, 0
1, 283606, Control_c, 0, 64, 65
1, 283625, Control_c, 0, 64, 57
1, 283629, Note_off_c, 0, 43, 0
1, 283643, Control_c, 0, 64, 46
1, 283662, Control_c, 0, 64, 33
1, 283668, Note_on_c, 0, 74, 74
1, 283676, Note_on_c, 0, 42, 51
1, 283679, Control_c, 0, 64, 22
1, 283687, Note_on_c, 0, 62, 57
1, 283698, Control_c, 0, 64, 17
1, 283742, Note_off_c, 0, 42, 0
1, 283773, Control_c, 0, 64, 29
1, 283791, Control_c, 0, 64, 44
1, 283810, Control_c, 0, 64, 59
1, 283819, Note_on_c, 0, 45, 51
1, 283828, Control_c, 0, 64, 66
1, 283847, Note_off_c, 0, 62, 0
1, 283848, Control_c, 0, 64, 67
1, 283917, Note_off_c, 0, 45, 0
1, 283919, Control_c, 0, 64, 66
1, 283950, Control_c, 0, 64, 61
1, 283967, Control_c, 0, 64, 53
1, 283987, Control_c, 0, 64, 44
1, 284005, Note_on_c, 0, 43, 54
1, 284005, Control_c, 0, 64, 33
1, 284008, Note_on_c, 0, 64, 54
1, 284024, Control_c, 0, 64, 25
1, 284042, Control_c, 0, 64, 21
1, 284081, Control_c, 0, 64, 17
1, 284115, Note_off_c, 0, 43, 0
1, 284129, Note_off_c, 0, 64, 0
1, 284145, Note_on_c, 0, 66, 62
1, 284156, Note_on_c, 0, 42, 55
1, 284262, Note_off_c, 0, 42, 0
1, 284273, Note_off_c, 0, 66, 0
1, 284309, Note_on_c, 0, 67, 61
1, 284324, Note_on_c, 0, 40, 48
1, 284425, Note_off_c, 0, 67, 0
1, 284453, Note_on_c, 0, 69, 59
1, 284456, Note_off_c, 0, 40, 0
1, 284473, Note_on_c, 0, 38, 49
1, 284540, Note_off_c, 0, 38, 0
1, 284597, Note_off_c, 0, 69, 0
1, 284628, Note_on_c, 0, 71, 60
1, 284655, Note_off_c, 0, 74, 0
1, 284660, Note_on_c, 0, 43, 34
1, 284711, Note_off_c, 0, 43, 0
1, 284756, Note_off_c, 0, 71, 0
1, 284781, Note_on_c, 0, 69, 54
1, 284908, Note_off_c, 0, 69, 0
1, 284950, Note_on_c, 0, 74, 62
1, 284969, Note_on_c, 0, 67, 53
1, 284979, Note_on_c, 0, 40, 52
1, 285019, Note_off_c, 0, 40, 0
1, 285061, Note_off_c, 0, 67, 0
1, 285116, Note_on_c, 0, 66, 53
1, 285258, Note_off_c, 0, 66, 0
1, 285263, Note_off_c, 0, 74, 0
1, 285278, Note_on_c, 0, 73, 57
1, 285304, Note_on_c, 0, 45, 52
1, 285305, Note_on_c, 0, 67, 52
1, 285343, Note_off_c, 0, 45, 0
1, 285374, Note_off_c, 0, 67, 0
1, 285434, Note_on_c, 0, 64, 51
1, 285604, Note_off_c, 0, 64, 0
1, 285612, Note_on_c, 0, 74, 59
1, 285639, Note_on_c, 0, 66, 48
1, 285642, Note_off_c, 0, 73, 0
1, 285649, Note_on_c, 0, 38, 36
1, 285744, Note_off_c, 0, 38, 0
1, 285793, Note_on_c, 0, 42, 47
1, 285872, Note_off_c, 0, 42, 0
1, 285945, Note_on_c, 0, 45, 44
1, 286042, Note_off_c, 0, 45, 0
1, 286097, Note_on_c, 0, 50, 51
1, 286193, Note_off_c, 0, 50, 0
1, 286262, Note_on_c, 0, 45, 48
1, 286342, Note_off_c, 0, 45, 0
1, 286403, Note_on_c, 0, 42, 45
1, 286544, Note_off_c, 0, 42, 0
1, 286602, Note_on_c, 0, 38, 41
1, 286918, Poly_aftertouch_c, 0, 66, 24
1, 286938, Note_off_c, 0, 66, 0
1, 287117, Note_off_c, 0, 38, 0
1, 287146, Note_off_c, 0, 74, 0
1, 287659, Note_on_c, 0, 50, 50
1, 287992, Note_off_c, 0, 50, 0
1, 288010, Note_on_c, 0, 54, 40
1, 288060, Note_off_c, 0, 54, 0
1, 288309, Note_on_c, 0, 57, 55
1, 288354, Note_off_c, 0, 57, 0
1, 288627, Note_on_c, 0, 81, 68
1, 288664, Note_on_c, 0, 62, 34
1, 288828, Note_off_c, 0, 62, 0
1, 288964, Note_on_c, 0, 60, 55
1, 289033, Note_off_c, 0, 60, 0
1, 289111, Note_on_c, 0, 59, 58
1, 289216, Note_off_c, 0, 59, 0
1, 289279, Note_on_c, 0, 57, 59
1, 289387, Note_off_c, 0, 57, 0
1, 289404, Note_on_c, 0, 55, 59
1, 289583, Note_off_c, 0, 55, 0
1, 289601, Note_on_c, 0, 54, 66
1, 289643, Note_off_c, 0, 54, 0
1, 289742, Note_on_c, 0, 83, 72
1, 289753, Note_off_c, 0, 81, 0
1, 289905, Note_on_c, 0, 84, 79
1, 289914, Note_off_c, 0, 83, 0
1, 289918, Note_on_c, 0, 57, 67
1, 289962, Note_off_c, 0, 57, 0
1, 290042, Note_on_c, 0, 81, 75
1, 290085, Note_off_c, 0, 84, 0
1, 290185, Control_c, 0, 64, 23
1, 290198, Note_on_c, 0, 83, 79
1, 290204, Control_c, 0, 64, 27
1, 290209, Note_on_c, 0, 50, 58
1, 290215, Note_off_c, 0, 81, 0
1, 290222, Control_c, 0, 64, 33
1, 290240, Control_c, 0, 64, 41
1, 290260, Control_c, 0, 64, 50
1, 290263, Note_off_c, 0, 50, 0
1, 290278, Control_c, 0, 64, 56
1, 290296, Control_c, 0, 64, 60
1, 290313, Control_c, 0, 64, 63
1, 290333, Control_c, 0, 64, 67
1, 290345, Note_off_c, 0, 83, 0
1, 290350, Note_on_c, 0, 84, 74
1, 290351, Control_c, 0, 64, 70
1, 290370, Control_c, 0, 64, 74
1, 290388, Control_c, 0, 64, 80
1, 290407, Control_c, 0, 64, 88
1, 290414, Note_off_c, 0, 84, 0
1, 290426, Control_c, 0, 64, 95
1, 290445, Control_c, 0, 64, 100
1, 290506, Note_on_c, 0, 84, 74
1, 290524, Note_on_c, 0, 83, 77
1, 290529, Control_c, 0, 64, 86
1, 290546, Note_on_c, 0, 55, 49
1, 290546, Control_c, 0, 64, 70
1, 290564, Control_c, 0, 64, 53
1, 290569, Note_off_c, 0, 84, 0
1, 290577, Note_off_c, 0, 55, 0
1, 290582, Control_c, 0, 64, 42
1, 290602, Control_c, 0, 64, 32
1, 290620, Control_c, 0, 64, 23
1, 290649, Note_on_c, 0, 81, 73
1, 290671, Note_off_c, 0, 83, 0
1, 290779, Note_off_c, 0, 81, 0
1, 290812, Note_on_c, 0, 79, 75
1, 290844, Note_on_c, 0, 57, 55
1, 290897, Note_off_c, 0, 57, 0
1, 290946, Note_on_c, 0, 78, 79
1, 290979, Note_off_c, 0, 79, 0
1, 291114, Note_on_c, 0, 76, 80
1, 291141, Note_on_c, 0, 59, 69
1, 291153, Note_off_c, 0, 78, 0
1, 291182, Note_off_c, 0, 59, 0
1, 291259, Note_on_c, 0, 75, 80
1, 291291, Note_off_c, 0, 76, 0
1, 291438, Note_on_c, 0, 76, 81
1, 291443, Note_off_c, 0, 75, 0
1, 291457, Note_on_c, 0, 60, 69
1, 291501, Note_off_c, 0, 76, 0
1, 291552, Note_off_c, 0, 60, 0
1, 291590, Note_on_c, 0, 62, 69
1, 291748, Note_off_c, 0, 62, 0
1, 291748, Note_on_c, 0, 78, 82
1, 291755, Note_on_c, 0, 60, 64
1, 291804, Note_off_c, 0, 78, 0
1, 291883, Note_off_c, 0, 60, 0
1, 291904, Note_on_c, 0, 59, 67
1, 292009, Note_off_c, 0, 59, 0
1, 292061, Note_on_c, 0, 79, 84
1, 292087, Note_on_c, 0, 57, 61
1, 292167, Note_off_c, 0, 57, 0
1, 292228, Note_on_c, 0, 55, 58
1, 292373, Note_off_c, 0, 55, 0
1, 292402, Note_on_c, 0, 81, 67
1, 292406, Note_on_c, 0, 54, 54
1, 292513, Note_off_c, 0, 54, 0
1, 292557, Note_on_c, 0, 52, 61
1, 292721, Note_off_c, 0, 52, 0
1, 292723, Note_on_c, 0, 78, 73
1, 292733, Note_on_c, 0, 54, 53
1, 292752, Note_off_c, 0, 79, 0
1, 292854, Note_off_c, 0, 54, 0
1, 292872, Note_on_c, 0, 55, 56
1, 292980, Note_off_c, 0, 55, 0
1, 293033, Note_on_c, 0, 76, 65
1, 293051, Note_on_c, 0, 57, 49
1, 293061, Note_off_c, 0, 78, 0
1, 293155, Note_off_c, 0, 57, 0
1, 293193, Note_on_c, 0, 54, 58
1, 293322, Control_c, 0, 64, 28
1, 293324, Note_off_c, 0, 54, 0
1, 293335, Note_off_c, 0, 76, 0
1, 293362, Note_off_c, 0, 81, 0
1, 293373, Note_on_c, 0, 75, 67
1, 293379, Note_on_c, 0, 59, 61
1, 293426, Note_off_c, 0, 59, 0
1, 293517, Note_on_c, 0, 83, 62
1, 293689, Note_on_c, 0, 84, 70
1, 293692, Note_off_c, 0, 83, 0
1, 293704, Note_off_c, 0, 75, 0
1, 293711, Note_on_c, 0, 54, 51
1, 293741, Note_on_c, 0, 75, 9
1, 293761, Note_off_c, 0, 54, 0
1, 293823, Note_on_c, 0, 81, 68
1, 293829, Note_off_c, 0, 84, 0
1, 293994, Note_on_c, 0, 83, 73
1, 294002, Note_off_c, 0, 81, 0
1, 294002, Note_on_c, 0, 55, 57
1, 294040, Note_off_c, 0, 55, 0
1, 294043, Control_c, 0, 64, 34
1, 294062, Control_c, 0, 64, 44
1, 294082, Control_c, 0, 64, 54
1, 294100, Control_c, 0, 64, 60
1, 294119, Control_c, 0, 64, 63
1, 294137, Control_c, 0, 64, 67
1, 294147, Note_on_c, 0, 84, 74
1, 294149, Note_off_c, 0, 83, 0
1, 294156, Control_c, 0, 64, 71
1, 294174, Control_c, 0, 64, 75
1, 294191, Control_c, 0, 64, 80
1, 294211, Control_c, 0, 64, 86
1, 294218, Note_off_c, 0, 84, 0
1, 294239, Control_c, 0, 64, 92
1, 294258, Control_c, 0, 64, 98
1, 294295, Control_c, 0, 64, 102
1, 294320, Note_on_c, 0, 83, 76
1, 294333, Control_c, 0, 64, 98
1, 294347, Note_on_c, 0, 57, 52
1, 294350, Control_c, 0, 64, 86
1, 294368, Control_c, 0, 64, 68
1, 294387, Control_c, 0, 64, 50
1, 294406, Control_c, 0, 64, 36
1, 294412, Note_off_c, 0, 57, 0
1, 294425, Control_c, 0, 64, 22
1, 294443, Control_c, 0, 64, 17
1, 294460, Note_off_c, 0, 83, 0
1, 294481, Note_on_c, 0, 81, 64
1, 294494, Note_on_c, 0, 60, 51
1, 294595, Note_off_c, 0, 60, 0
1, 294623, Note_off_c, 0, 81, 0
1, 294646, Note_on_c, 0, 79, 63
1, 294654, Note_on_c, 0, 59, 55
1, 294718, Note_off_c, 0, 75, 0
1, 294730, Note_off_c, 0, 59, 0
1, 294788, Note_off_c, 0, 79, 0
1, 294788, Note_on_c, 0, 78, 69
1, 294814, Note_on_c, 0, 57, 60
1, 294889, Note_off_c, 0, 57, 0
1, 294932, Note_off_c, 0, 78, 0
1, 294963, Note_on_c, 0, 76, 71
1, 294969, Note_on_c, 0, 55, 53
1, 295093, Note_off_c, 0, 55, 0
1, 295109, Note_on_c, 0, 75, 72
1, 295113, Note_on_c, 0, 54, 59
1, 295121, Note_off_c, 0, 76, 0
1, 295280, Note_off_c, 0, 54, 0
1, 295288, Note_off_c, 0, 75, 0
1, 295289, Note_on_c, 0, 76, 80
1, 295297, Note_on_c, 0, 55, 62
1, 295350, Note_off_c, 0, 76, 0
1, 295381, Note_off_c, 0, 55, 0
1, 295432, Note_on_c, 0, 57, 64
1, 295607, Note_on_c, 0, 78, 83
1, 295616, Note_off_c, 0, 57, 0
1, 295624, Note_on_c, 0, 55, 62
1, 295665, Note_off_c, 0, 78, 0
1, 295739, Note_off_c, 0, 55, 0
1, 295759, Note_on_c, 0, 54, 70
1, 295881, Note_off_c, 0, 54, 0
1, 295917, Note_on_c, 0, 79, 81
1, 295949, Note_on_c, 0, 52, 64
1, 296041, Note_off_c, 0, 52, 0
1, 296079, Note_on_c, 0, 50, 61
1, 296238, Note_off_c, 0, 50, 0
1, 296250, Note_on_c, 0, 69, 79
1, 296268, Note_on_c, 0, 48, 61
1, 296296, Poly_aftertouch_c, 0, 75, 0
1, 296379, Note_off_c, 0, 48, 0
1, 296409, Note_on_c, 0, 47, 66
1, 296566, Note_off_c, 0, 47, 0
1, 296575, Note_on_c, 0, 78, 77
1, 296585, Note_on_c, 0, 45, 63
1, 296616, Note_off_c, 0, 79, 0
1, 296711, Note_off_c, 0, 45, 0
1, 296730, Note_on_c, 0, 47, 63
1, 296831, Note_off_c, 0, 78, 0
1, 296886, Note_off_c, 0, 47, 0
1, 296893, Note_on_c, 0, 76, 79
1, 296901, Note_on_c, 0, 48, 65
1, 297020, Note_off_c, 0, 48, 0
1, 297028, Note_on_c, 0, 45, 74
1, 297209, Note_off_c, 0, 45, 0
1, 297222, Note_off_c, 0, 76, 0
1, 297225, Note_on_c, 0, 75, 76
1, 297238, Note_on_c, 0, 47, 71
1, 297286, Note_off_c, 0, 47, 0
1, 297354, Note_off_c, 0, 69, 0
1, 297553, Note_on_c, 0, 54, 75
1, 297560, Note_on_c, 0, 71, 66
1, 297607, Note_off_c, 0, 54, 0
1, 297707, Note_on_c, 0, 69, 67
1, 297726, Note_off_c, 0, 71, 0
1, 297839, Note_off_c, 0, 69, 0
1, 297879, Note_on_c, 0, 67, 67
1, 297885, Note_on_c, 0, 59, 78
1, 298039, Note_on_c, 0, 66, 69
1, 298044, Note_off_c, 0, 67, 0
1, 298191, Note_off_c, 0, 66, 0
1, 298212, Note_on_c, 0, 67, 70
1, 298359, Note_on_c, 0, 69, 71
1, 298383, Note_off_c, 0, 67, 0
1, 298383, Note_off_c, 0, 59, 0
1, 298539, Note_off_c, 0, 69, 0
1, 298540, Note_on_c, 0, 71, 69
1, 298548, Note_on_c, 0, 55, 64
1, 298597, Note_off_c, 0, 55, 0
1, 298681, Note_off_c, 0, 71, 0
1, 298684, Note_on_c, 0, 67, 68
1, 298784, Note_off_c, 0, 75, 0
1, 298853, Note_on_c, 0, 52, 66
1, 298854, Note_on_c, 0, 69, 71
1, 298868, Note_off_c, 0, 67, 0
1, 298896, Note_off_c, 0, 52, 0
1, 299010, Note_off_c, 0, 69, 0
1, 299010, Note_on_c, 0, 71, 67
1, 299156, Note_off_c, 0, 71, 0
1, 299197, Note_on_c, 0, 64, 65
1, 299211, Note_on_c, 0, 60, 62
1, 299288, Note_off_c, 0, 60, 0
1, 299352, Note_on_c, 0, 62, 65
1, 299492, Note_off_c, 0, 64, 0
1, 299494, Note_off_c, 0, 62, 0
1, 299502, Note_on_c, 0, 66, 76
1, 299511, Note_on_c, 0, 60, 59
1, 299633, Note_off_c, 0, 60, 0
1, 299653, Note_on_c, 0, 67, 75
1, 299657, Note_off_c, 0, 66, 0
1, 299663, Note_on_c, 0, 59, 65
1, 299756, Note_off_c, 0, 59, 0
1, 299813, Note_on_c, 0, 69, 82
1, 299835, Note_on_c, 0, 57, 63
1, 299854, Note_off_c, 0, 67, 0
1, 299937, Note_off_c, 0, 57, 0
1, 299971, Note_on_c, 0, 71, 81
1, 299987, Note_on_c, 0, 55, 60
1, 299993, Note_off_c, 0, 69, 0
1, 300146, Note_off_c, 0, 55, 0
1, 300150, Note_on_c, 0, 72, 83
1, 300153, Note_off_c, 0, 71, 0
1, 300155, Note_on_c, 0, 69, 74
1, 300168, Note_on_c, 0, 54, 64
1, 300289, Note_off_c, 0, 54, 0
1, 300302, Note_on_c, 0, 52, 69
1, 300469, Note_off_c, 0, 52, 0
1, 300474, Note_off_c, 0, 72, 0
1, 300476, Note_on_c, 0, 54, 65
1, 300482, Note_on_c, 0, 64, 76
1, 300556, Note_off_c, 0, 64, 0
1, 300577, Note_off_c, 0, 54, 0
1, 300623, Note_on_c, 0, 59, 72
1, 300743, Note_off_c, 0, 59, 0
1, 300796, Note_on_c, 0, 63, 77
1, 300805, Note_on_c, 0, 57, 65
1, 300901, Note_off_c, 0, 57, 0
1, 300932, Note_off_c, 0, 63, 0
1, 300940, Note_on_c, 0, 59, 70
1, 301100, Note_off_c, 0, 59, 0
1, 301139, Note_on_c, 0, 64, 67
1, 301149, Note_on_c, 0, 52, 60
1, 301254, Note_off_c, 0, 52, 0
1, 301437, Note_off_c, 0, 69, 0
1, 301473, Note_on_c, 0, 71, 67
1, 301485, Note_on_c, 0, 55, 57
1, 301528, Note_off_c, 0, 55, 0
1, 301617, Note_on_c, 0, 69, 59
1, 301630, Note_off_c, 0, 71, 0
1, 301810, Note_on_c, 0, 59, 63
1, 301815, Note_off_c, 0, 69, 0
1, 301815, Note_on_c, 0, 67, 58
1, 301851, Note_off_c, 0, 59, 0
1, 301890, Note_off_c, 0, 64, 0
1, 301944, Note_off_c, 0, 67, 0
1, 301965, Note_on_c, 0, 66, 65
1, 302127, Note_off_c, 0, 66, 0
1, 302132, Note_on_c, 0, 64, 72
1, 302136, Note_on_c, 0, 67, 63
1, 302168, Note_off_c, 0, 64, 0
1, 302248, Note_off_c, 0, 67, 0
1, 302270, Note_on_c, 0, 69, 62
1, 302432, Note_off_c, 0, 69, 0
1, 302454, Note_on_c, 0, 71, 71
1, 302455, Note_on_c, 0, 52, 78
1, 302520, Note_off_c, 0, 52, 0
1, 302576, Note_off_c, 0, 71, 0
1, 302601, Note_on_c, 0, 67, 77
1, 302742, Control_c, 0, 67, 104
1, 302774, Note_on_c, 0, 69, 81
1, 302782, Note_off_c, 0, 67, 0
1, 302789, Note_on_c, 0, 50, 73
1, 302839, Note_off_c, 0, 50, 0
1, 302933, Note_off_c, 0, 69, 0
1, 302933, Note_on_c, 0, 71, 83
1, 302946, Control_c, 0, 67, 98
1, 302983, Control_c, 0, 67, 92
1, 303093, Note_off_c, 0, 71, 0
1, 303131, Control_c, 0, 64, 22
1, 303141, Note_on_c, 0, 76, 85
1, 303150, Control_c, 0, 64, 27
1, 303157, Note_on_c, 0, 64, 62
1, 303160, Note_on_c, 0, 48, 63
1, 303167, Control_c, 0, 64, 34
1, 303187, Control_c, 0, 64, 43
1, 303202, Note_off_c, 0, 48, 0
1, 303204, Control_c, 0, 64, 52
1, 303226, Control_c, 0, 64, 59
1, 303230, Note_off_c, 0, 64, 0
1, 303243, Control_c, 0, 64, 65
1, 303262, Control_c, 0, 64, 69
1, 303279, Control_c, 0, 64, 74
1, 303298, Control_c, 0, 64, 80
1, 303316, Control_c, 0, 64, 87
1, 303335, Control_c, 0, 64, 92
1, 303391, Control_c, 0, 64, 80
1, 303412, Control_c, 0, 64, 62
1, 303428, Control_c, 0, 64, 44
1, 303447, Control_c, 0, 64, 29
1, 303455, Note_on_c, 0, 66, 71
1, 303456, Note_on_c, 0, 60, 79
1, 303464, Control_c, 0, 64, 18
1, 303514, Note_off_c, 0, 60, 0
1, 303541, Note_off_c, 0, 66, 0
1, 303602, Note_on_c, 0, 68, 58
1, 303620, Note_on_c, 0, 67, 70
1, 303633, Note_off_c, 0, 68, 0
1, 303725, Note_off_c, 0, 67, 0
1, 303777, Note_on_c, 0, 59, 80
1, 303781, Note_on_c, 0, 69, 73
1, 303840, Note_off_c, 0, 59, 0
1, 303916, Note_off_c, 0, 69, 0
1, 303928, Note_on_c, 0, 71, 68
1, 304057, Note_off_c, 0, 71, 0
1, 304096, Note_on_c, 0, 57, 79
1, 304113, Note_on_c, 0, 72, 60
1, 304144, Note_off_c, 0, 76, 0
1, 304249, Note_on_c, 0, 78, 64
1, 304322, Note_off_c, 0, 72, 0
1, 304419, Note_on_c, 0, 79, 76
1, 304425, Note_on_c, 0, 64, 69
1, 304430, Note_off_c, 0, 78, 0
1, 304483, Note_off_c, 0, 64, 0
1, 304571, Note_on_c, 0, 76, 77
1, 304629, Note_off_c, 0, 79, 0
1, 304727, Note_on_c, 0, 78, 80
1, 304739, Note_on_c, 0, 63, 73
1, 304755, Note_off_c, 0, 76, 0
1, 304816, Note_off_c, 0, 63, 0
1, 304879, Note_on_c, 0, 79, 79
1, 304880, Note_off_c, 0, 78, 0
1, 305043, Note_off_c, 0, 79, 0
1, 305067, Note_on_c, 0, 72, 75
1, 305073, Note_on_c, 0, 64, 79
1, 305085, Note_off_c, 0, 57, 0
1, 305212, Note_off_c, 0, 72, 0
1, 305224, Note_on_c, 0, 74, 68
1, 305390, Note_off_c, 0, 74, 0
1, 305406, Note_on_c, 0, 76, 68
1, 305409, Note_on_c, 0, 60, 60
1, 305450, Note_off_c, 0, 60, 0
1, 305560, Note_on_c, 0, 72, 66
1, 305561, Note_off_c, 0, 76, 0
1, 305713, Note_off_c, 0, 72, 0
1, 305724, Note_on_c, 0, 74, 66
1, 305728, Note_on_c, 0, 57, 62
1, 305788, Note_off_c, 0, 57, 0
1, 305864, Note_off_c, 0, 74, 0
1, 305884, Note_on_c, 0, 76, 63
1, 305986, Note_off_c, 0, 76, 0
1, 306038, Note_on_c, 0, 69, 64
1, 306049, Note_on_c, 0, 54, 59
1, 306066, Note_off_c, 0, 64, 0
1, 306103, Note_off_c, 0, 54, 0
1, 306173, Note_off_c, 0, 69, 0
1, 306190, Note_on_c, 0, 71, 64
1, 306331, Note_off_c, 0, 71, 0
1, 306352, Note_on_c, 0, 72, 65
1, 306365, Note_on_c, 0, 50, 60
1, 306421, Note_off_c, 0, 50, 0
1, 306483, Note_off_c, 0, 72, 0
1, 306514, Note_on_c, 0, 69, 60
1, 306675, Note_on_c, 0, 62, 73
1, 306683, Note_off_c, 0, 69, 0
1, 306688, Note_on_c, 0, 71, 63
1, 306718, Note_off_c, 0, 62, 0
1, 306823, Note_off_c, 0, 71, 0
1, 306836, Note_on_c, 0, 72, 63
1, 307001, Note_off_c, 0, 72, 0
1, 307005, Note_on_c, 0, 76, 64
1, 307008, Note_on_c, 0, 55, 61
1, 307009, Note_on_c, 0, 71, 64
1, 307106, Note_off_c, 0, 55, 0
1, 307147, Note_on_c, 0, 72, 75
1, 307150, Note_off_c, 0, 71, 0
1, 307155, Note_on_c, 0, 57, 69
1, 307238, Note_off_c, 0, 57, 0
1, 307306, Note_on_c, 0, 55, 63
1, 307312, Note_on_c, 0, 74, 80
1, 307324, Note_off_c, 0, 76, 0
1, 307325, Note_on_c, 0, 76, 6
1, 307344, Note_off_c, 0, 72, 0
1, 307465, Note_off_c, 0, 55, 0
1, 307467, Note_on_c, 0, 71, 79
1, 307479, Note_on_c, 0, 53, 71
1, 307486, Note_off_c, 0, 74, 0
1, 307631, Note_on_c, 0, 72, 80
1, 307638, Note_off_c, 0, 71, 0
1, 307639, Note_on_c, 0, 52, 74
1, 307640, Note_off_c, 0, 53, 0
1, 307770, Note_off_c, 0, 52, 0
1, 307780, Note_on_c, 0, 74, 80
1, 307786, Note_on_c, 0, 50, 75
1, 307801, Note_off_c, 0, 72, 0
1, 307927, Note_off_c, 0, 74, 0
1, 307946, Note_off_c, 0, 76, 0
1, 307952, Note_on_c, 0, 67, 80
1, 307955, Note_on_c, 0, 48, 76
1, 307961, Note_off_c, 0, 50, 0
1, 308003, Note_off_c, 0, 48, 0
1, 308106, Note_on_c, 0, 78, 75
1, 308262, Note_on_c, 0, 79, 81
1, 308306, Note_off_c, 0, 78, 0
1, 308308, Note_on_c, 0, 52, 68
1, 308359, Note_off_c, 0, 52, 0
1, 308424, Note_on_c, 0, 76, 75
1, 308448, Note_off_c, 0, 79, 0
1, 308591, Note_on_c, 0, 78, 80
1, 308603, Note_on_c, 0, 48, 72
1, 308634, Note_off_c, 0, 76, 0
1, 308652, Note_off_c, 0, 48, 0
1, 308742, Note_on_c, 0, 79, 82
1, 308770, Note_off_c, 0, 78, 0
1, 308909, Note_off_c, 0, 67, 0
1, 308912, Note_on_c, 0, 72, 82
1, 308919, Note_on_c, 0, 45, 67
1, 308936, Note_off_c, 0, 79, 0
1, 309014, Note_off_c, 0, 45, 0
1, 309049, Note_on_c, 0, 74, 82
1, 309061, Note_on_c, 0, 47, 65
1, 309081, Note_off_c, 0, 72, 0
1, 309179, Note_off_c, 0, 47, 0
1, 309233, Note_on_c, 0, 79, 87
1, 309250, Note_off_c, 0, 74, 0
1, 309250, Note_on_c, 0, 48, 67
1, 309252, Note_on_c, 0, 76, 67
1, 309333, Note_off_c, 0, 76, 0
1, 309376, Note_off_c, 0, 48, 0
1, 309379, Note_on_c, 0, 72, 72
1, 309400, Note_on_c, 0, 45, 61
1, 309526, Note_off_c, 0, 45, 0
1, 309547, Note_on_c, 0, 74, 77
1, 309550, Note_on_c, 0, 47, 67
1, 309552, Note_off_c, 0, 72, 0
1, 309672, Note_off_c, 0, 47, 0
1, 309697, Note_off_c, 0, 74, 0
1, 309697, Note_on_c, 0, 76, 70
1, 309697, Note_on_c, 0, 48, 66
1, 309743, Control_c, 0, 64, 12
1, 309779, Control_c, 0, 64, 0
1, 309792, Note_off_c, 0, 48, 0
1, 309856, Note_on_c, 0, 69, 75
1, 309872, Note_on_c, 0, 50, 72
1, 309901, Note_off_c, 0, 76, 0
1, 309928, Note_off_c, 0, 50, 0
1, 309958, Note_off_c, 0, 69, 0
1, 309964, Control_c, 0, 64, 9
1, 309985, Control_c, 0, 64, 22
1, 310002, Control_c, 0, 64, 36
1, 310009, Note_on_c, 0, 71, 73
1, 310021, Control_c, 0, 64, 49
1, 310040, Control_c, 0, 64, 57
1, 310058, Control_c, 0, 64, 62
1, 310062, Note_off_c, 0, 71, 0
1, 310076, Control_c, 0, 64, 65
1, 310094, Control_c, 0, 64, 67
1, 310132, Control_c, 0, 64, 60
1, 310160, Control_c, 0, 64, 43
1, 310178, Control_c, 0, 64, 9
1, 310190, Note_on_c, 0, 78, 83
1, 310197, Control_c, 0, 64, 0
1, 310205, Note_on_c, 0, 38, 71
1, 310213, Note_on_c, 0, 72, 73
1, 310229, Note_off_c, 0, 79, 0
1, 310244, Note_off_c, 0, 72, 0
1, 310250, Note_off_c, 0, 38, 0
1, 310252, Control_c, 0, 64, 29
1, 310272, Control_c, 0, 64, 51
1, 310288, Control_c, 0, 64, 65
1, 310307, Control_c, 0, 64, 69
1, 310326, Control_c, 0, 64, 74
1, 310344, Control_c, 0, 64, 82
1, 310347, Note_on_c, 0, 69, 77
1, 310363, Control_c, 0, 64, 93
1, 310382, Control_c, 0, 64, 107
1, 310391, Note_off_c, 0, 69, 0
1, 310400, Control_c, 0, 64, 127
1, 310419, Note_off_c, 0, 78, 0
1, 310495, Control_c, 0, 64, 91
1, 310511, Note_on_c, 0, 81, 87
1, 310514, Control_c, 0, 64, 59
1, 310529, Control_c, 0, 64, 23
1, 310533, Note_on_c, 0, 54, 66
1, 310538, Note_on_c, 0, 71, 65
1, 310547, Control_c, 0, 64, 0
1, 310575, Note_off_c, 0, 71, 0
1, 310579, Note_off_c, 0, 54, 0
1, 310586, Control_c, 0, 64, 18
1, 310605, Control_c, 0, 64, 40
1, 310624, Control_c, 0, 64, 60
1, 310642, Control_c, 0, 64, 68
1, 310662, Control_c, 0, 64, 73
1, 310667, Note_on_c, 0, 72, 74
1, 310679, Control_c, 0, 64, 79
1, 310698, Control_c, 0, 64, 86
1, 310715, Control_c, 0, 64, 91
1, 310753, Control_c, 0, 64, 82
1, 310771, Control_c, 0, 64, 63
1, 310789, Note_off_c, 0, 72, 0
1, 310790, Control_c, 0, 64, 39
1, 310809, Control_c, 0, 64, 14
1, 310827, Control_c, 0, 64, 9
1, 310830, Note_on_c, 0, 71, 72
1, 310841, Note_on_c, 0, 55, 62
1, 310865, Control_c, 0, 64, 20
1, 310884, Control_c, 0, 64, 35
1, 310898, Note_off_c, 0, 55, 0
1, 310901, Control_c, 0, 64, 50
1, 310919, Control_c, 0, 64, 61
1, 310937, Control_c, 0, 64, 67
1, 310957, Control_c, 0, 64, 70
1, 310974, Control_c, 0, 64, 74
1, 310978, Note_on_c, 0, 57, 60
1, 310980, Note_on_c, 0, 72, 71
1, 310983, Note_off_c, 0, 81, 0
1, 310991, Note_off_c, 0, 71, 0
1, 310992, Control_c, 0, 64, 81
1, 311014, Control_c, 0, 64, 87
1, 311032, Control_c, 0, 64, 94
1, 311095, Control_c, 0, 64, 89
1, 311114, Control_c, 0, 64, 72
1, 311130, Note_off_c, 0, 57, 0
1, 311134, Control_c, 0, 64, 49
1, 311151, Control_c, 0, 64, 21
1, 311151, Note_on_c, 0, 79, 86
1, 311166, Note_off_c, 0, 72, 0
1, 311174, Note_on_c, 0, 59, 62
1, 311175, Note_on_c, 0, 74, 68
1, 311208, Control_c, 0, 64, 12
1, 311224, Note_off_c, 0, 74, 0
1, 311225, Control_c, 0, 64, 29
1, 311246, Control_c, 0, 64, 48
1, 311264, Control_c, 0, 64, 63
1, 311269, Note_off_c, 0, 59, 0
1, 311282, Control_c, 0, 64, 68
1, 311302, Control_c, 0, 64, 72
1, 311303, Note_on_c, 0, 71, 69
1, 311320, Control_c, 0, 64, 78
1, 311325, Note_on_c, 0, 55, 61
1, 311338, Control_c, 0, 64, 86
1, 311341, Note_off_c, 0, 79, 0
1, 311355, Control_c, 0, 64, 96
1, 311374, Control_c, 0, 64, 109
1, 311393, Control_c, 0, 64, 121
1, 311412, Control_c, 0, 64, 126
1, 311449, Control_c, 0, 64, 116
1, 311468, Control_c, 0, 64, 94
1, 311473, Note_on_c, 0, 77, 85
1, 311482, Note_on_c, 0, 72, 77
1, 311486, Control_c, 0, 64, 66
1, 311490, Note_on_c, 0, 57, 68
1, 311492, Note_off_c, 0, 71, 0
1, 311500, Note_off_c, 0, 55, 0
1, 311504, Control_c, 0, 64, 36
1, 311521, Control_c, 0, 64, 16
1, 311559, Control_c, 0, 64, 21
1, 311578, Control_c, 0, 64, 38
1, 311599, Control_c, 0, 64, 58
1, 311616, Control_c, 0, 64, 69
1, 311623, Note_off_c, 0, 72, 0
1, 311625, Note_on_c, 0, 74, 78
1, 311630, Note_off_c, 0, 57, 0
1, 311634, Control_c, 0, 64, 74
1, 311645, Note_on_c, 0, 59, 68
1, 311653, Control_c, 0, 64, 80
1, 311672, Control_c, 0, 64, 86
1, 311690, Note_off_c, 0, 77, 0
1, 311690, Control_c, 0, 64, 91
1, 311764, Control_c, 0, 64, 77
1, 311782, Control_c, 0, 64, 58
1, 311800, Control_c, 0, 64, 40
1, 311802, Note_on_c, 0, 76, 83
1, 311807, Note_off_c, 0, 59, 0
1, 311819, Note_off_c, 0, 74, 0
1, 311820, Control_c, 0, 64, 30
1, 311831, Note_on_c, 0, 67, 60
1, 311838, Control_c, 0, 64, 24
1, 311842, Note_on_c, 0, 60, 59
1, 311876, Control_c, 0, 64, 18
1, 311885, Note_off_c, 0, 60, 0
1, 311952, Note_on_c, 0, 74, 78
1, 311992, Note_off_c, 0, 76, 0
1, 312134, Note_on_c, 0, 72, 79
1, 312145, Note_on_c, 0, 64, 68
1, 312169, Note_off_c, 0, 74, 0
1, 312186, Note_off_c, 0, 64, 0
1, 312290, Note_on_c, 0, 76, 80
1, 312297, Note_off_c, 0, 72, 0
1, 312451, Note_on_c, 0, 74, 80
1, 312460, Note_on_c, 0, 57, 64
1, 312501, Note_off_c, 0, 76, 0
1, 312517, Note_off_c, 0, 57, 0
1, 312598, Poly_aftertouch_c, 0, 67, 24
1, 312609, Note_on_c, 0, 72, 80
1, 312628, Note_off_c, 0, 67, 0
1, 312653, Note_off_c, 0, 74, 0
1, 312774, Note_on_c, 0, 71, 75
1, 312787, Note_on_c, 0, 62, 67
1, 312805, Note_off_c, 0, 72, 0
1, 312855, Note_off_c, 0, 62, 0
1, 312928, Note_on_c, 0, 60, 59
1, 313035, Note_off_c, 0, 60, 0
1, 313106, Note_on_c, 0, 59, 63
1, 313117, Note_on_c, 0, 79, 72
1, 313175, Note_off_c, 0, 59, 0
1, 313262, Note_on_c, 0, 62, 63
1, 313433, Note_on_c, 0, 83, 87
1, 313437, Note_off_c, 0, 62, 0
1, 313437, Note_off_c, 0, 71, 0
1, 313451, Note_on_c, 0, 60, 61
1, 313560, Note_off_c, 0, 60, 0
1, 313589, Note_on_c, 0, 59, 64
1, 313753, Note_off_c, 0, 59, 0
1, 313760, Note_on_c, 0, 81, 84
1, 313778, Note_on_c, 0, 60, 64
1, 313800, Note_off_c, 0, 83, 0
1, 313905, Note_off_c, 0, 60, 0
1, 313934, Note_on_c, 0, 59, 65
1, 314061, Note_off_c, 0, 59, 0
1, 314099, Note_on_c, 0, 78, 69
1, 314103, Note_off_c, 0, 79, 0
1, 314117, Note_on_c, 0, 57, 60
1, 314130, Control_c, 0, 64, 24
1, 314147, Control_c, 0, 64, 34
1, 314164, Control_c, 0, 64, 46
1, 314184, Control_c, 0, 64, 57
1, 314186, Note_off_c, 0, 57, 0
1, 314203, Control_c, 0, 64, 62
1, 314221, Control_c, 0, 64, 65
1, 314240, Control_c, 0, 64, 68
1, 314252, Note_on_c, 0, 55, 67
1, 314257, Control_c, 0, 64, 72
1, 314265, Note_off_c, 0, 78, 0
1, 314279, Control_c, 0, 64, 76
1, 314296, Control_c, 0, 64, 80
1, 314305, Note_off_c, 0, 81, 0
1, 314314, Control_c, 0, 64, 85
1, 314350, Control_c, 0, 64, 89
1, 314387, Control_c, 0, 64, 85
1, 314407, Note_on_c, 0, 84, 92
1, 314407, Control_c, 0, 64, 75
1, 314425, Control_c, 0, 64, 60
1, 314425, Note_on_c, 0, 81, 78
1, 314426, Note_off_c, 0, 55, 0
1, 314435, Note_on_c, 0, 54, 64
1, 314442, Control_c, 0, 64, 45
1, 314462, Control_c, 0, 64, 33
1, 314482, Control_c, 0, 64, 20
1, 314499, Control_c, 0, 64, 14
1, 314518, Note_off_c, 0, 54, 0
1, 314571, Note_on_c, 0, 57, 67
1, 314741, Note_on_c, 0, 83, 82
1, 314752, Note_off_c, 0, 57, 0
1, 314760, Note_on_c, 0, 55, 63
1, 314796, Note_off_c, 0, 84, 0
1, 314901, Note_off_c, 0, 55, 0
1, 314923, Note_on_c, 0, 54, 68
1, 314972, Control_c, 0, 67, 88
1, 315028, Note_off_c, 0, 54, 0
1, 315045, Note_off_c, 0, 81, 0
1, 315065, Control_c, 0, 67, 83
1, 315069, Note_on_c, 0, 79, 76
1, 315084, Control_c, 0, 67, 78
1, 315097, Note_on_c, 0, 52, 61
1, 315122, Control_c, 0, 67, 73
1, 315169, Note_off_c, 0, 52, 0
1, 315235, Note_on_c, 0, 50, 62
1, 315386, Note_off_c, 0, 83, 0
1, 315392, Note_on_c, 0, 86, 84
1, 315395, Note_off_c, 0, 50, 0
1, 315415, Note_on_c, 0, 77, 64
1, 315416, Note_off_c, 0, 79, 0
1, 315420, Note_on_c, 0, 48, 59
1, 315456, Control_c, 0, 64, 25
1, 315473, Control_c, 0, 64, 37
1, 315493, Control_c, 0, 64, 52
1, 315508, Control_c, 0, 64, 62
1, 315514, Note_off_c, 0, 48, 0
1, 315515, Note_off_c, 0, 77, 0
1, 315527, Control_c, 0, 64, 67
1, 315547, Control_c, 0, 64, 71
1, 315563, Note_on_c, 0, 47, 63
1, 315563, Control_c, 0, 64, 77
1, 315571, Note_off_c, 0, 86, 0
1, 315584, Control_c, 0, 64, 84
1, 315603, Control_c, 0, 64, 93
1, 315606, Poly_aftertouch_c, 0, 77, 0
1, 315622, Control_c, 0, 64, 102
1, 315639, Control_c, 0, 64, 108
1, 315644, Note_off_c, 0, 47, 0
1, 315677, Control_c, 0, 64, 98
1, 315697, Control_c, 0, 64, 78
1, 315714, Control_c, 0, 64, 52
1, 315734, Control_c, 0, 64, 18
1, 315741, Note_on_c, 0, 79, 79
1, 315752, Control_c, 0, 64, 0
1, 315764, Note_on_c, 0, 76, 63
1, 315772, Note_on_c, 0, 48, 55
1, 315818, Note_off_c, 0, 48, 0
1, 315853, Control_c, 0, 64, 20
1, 315872, Note_off_c, 0, 76, 0
1, 315872, Control_c, 0, 64, 33
1, 315890, Control_c, 0, 64, 42
1, 315904, Note_on_c, 0, 74, 61
1, 315910, Control_c, 0, 64, 49
1, 315928, Control_c, 0, 64, 55
1, 315947, Control_c, 0, 64, 58
1, 315958, Note_off_c, 0, 74, 0
1, 315982, Control_c, 0, 64, 55
1, 316001, Control_c, 0, 64, 44
1, 316020, Control_c, 0, 64, 25
1, 316039, Control_c, 0, 64, 20
1, 316076, Control_c, 0, 64, 32
1, 316088, Note_on_c, 0, 81, 74
1, 316093, Note_on_c, 0, 45, 49
1, 316094, Control_c, 0, 64, 48
1, 316096, Note_off_c, 0, 79, 0
1, 316108, Note_on_c, 0, 72, 52
1, 316113, Control_c, 0, 64, 61
1, 316115, Control_c, 0, 67, 77
1, 316132, Control_c, 0, 64, 66
1, 316149, Note_off_c, 0, 45, 0
1, 316149, Control_c, 0, 64, 68
1, 316188, Control_c, 0, 64, 72
1, 316211, Note_off_c, 0, 72, 0
1, 316245, Note_on_c, 0, 76, 52
1, 316262, Control_c, 0, 64, 65
1, 316280, Control_c, 0, 64, 56
1, 316299, Control_c, 0, 64, 45
1, 316317, Control_c, 0, 64, 32
1, 316335, Control_c, 0, 64, 20
1, 316353, Control_c, 0, 64, 15
1, 316405, Note_on_c, 0, 78, 65
1, 316409, Control_c, 0, 64, 22
1, 316410, Note_on_c, 0, 50, 48
1, 316411, Note_off_c, 0, 81, 0
1, 316423, Note_off_c, 0, 76, 0
1, 316428, Control_c, 0, 64, 29
1, 316435, Note_on_c, 0, 74, 54
1, 316447, Control_c, 0, 64, 37
1, 316459, Note_off_c, 0, 50, 0
1, 316464, Control_c, 0, 64, 48
1, 316485, Control_c, 0, 64, 58
1, 316502, Control_c, 0, 64, 62
1, 316519, Control_c, 0, 64, 63
1, 316537, Note_off_c, 0, 74, 0
1, 316538, Control_c, 0, 64, 65
1, 316557, Control_c, 0, 64, 68
1, 316576, Control_c, 0, 64, 71
1, 316578, Note_on_c, 0, 72, 55
1, 316594, Control_c, 0, 64, 73
1, 316620, Note_off_c, 0, 72, 0
1, 316650, Control_c, 0, 64, 69
1, 316669, Control_c, 0, 64, 60
1, 316689, Control_c, 0, 64, 47
1, 316778, Control_c, 0, 64, 34
1, 316797, Control_c, 0, 64, 23
1, 316815, Control_c, 0, 64, 17
1, 316825, Note_on_c, 0, 79, 67
1, 316836, Note_on_c, 0, 43, 50
1, 316847, Note_on_c, 0, 71, 50
1, 316853, Note_off_c, 0, 78, 0
1, 316957, Note_off_c, 0, 43, 0
1, 316994, Note_on_c, 0, 47, 47
1, 317071, Note_off_c, 0, 47, 0
1, 317138, Note_on_c, 0, 50, 57
1, 317205, Note_off_c, 0, 50, 0
1, 317315, Note_on_c, 0, 55, 45
1, 317414, Note_off_c, 0, 55, 0
1, 317481, Control_c, 0, 67, 73
1, 317483, Note_on_c, 0, 50, 48
1, 317556, Note_off_c, 0, 50, 0
1, 317650, Note_on_c, 0, 47, 49
1, 317784, Note_off_c, 0, 47, 0
1, 317972, Poly_aftertouch_c, 0, 43, 127
1, 318047, Control_c, 0, 67, 69
1, 318456, Control_c, 0, 67, 65
1, 318513, Control_c, 0, 67, 61
1, 318530, Control_c, 0, 64, 12
1, 318562, Poly_aftertouch_c, 0, 43, 0
1, 318578, Control_c, 0, 67, 55
1, 318614, Control_c, 0, 67, 51
1, 318641, Note_off_c, 0, 79, 0
1, 318643, Note_off_c, 0, 71, 0
1, 318650, Control_c, 0, 64, 0
1, 318650, Control_c, 0, 67, 45
1, 318687, Control_c, 0, 67, 37
1, 318725, Control_c, 0, 67, 30
1, 318762, Control_c, 0, 67, 26
1, 318799, Control_c, 0, 67, 22
1, 318836, Control_c, 0, 67, 17
1, 318893, Control_c, 0, 67, 12
1, 319018, Note_on_c, 0, 55, 93
1, 319354, Note_on_c, 0, 71, 93
1, 319403, Note_off_c, 0, 71, 0
1, 319692, Note_on_c, 0, 67, 98
1, 319736, Note_off_c, 0, 67, 0
1, 320014, Note_off_c, 0, 55, 0
1, 320025, Note_on_c, 0, 74, 91
1, 320031, Note_on_c, 0, 54, 88
1, 320095, Note_off_c, 0, 74, 0
1, 320357, Note_on_c, 0, 69, 89
1, 320366, Note_on_c, 0, 62, 73
1, 320394, Note_off_c, 0, 69, 0
1, 320414, Note_off_c, 0, 62, 0
1, 320673, Note_on_c, 0, 74, 90
1, 320678, Note_on_c, 0, 66, 85
1, 320707, Note_off_c, 0, 66, 0
1, 320725, Note_off_c, 0, 74, 0
1, 320997, Note_off_c, 0, 54, 0
1, 321005, Note_on_c, 0, 79, 92
1, 321010, Note_on_c, 0, 59, 88
1, 321013, Note_on_c, 0, 52, 81
1, 321066, Note_off_c, 0, 59, 0
1, 321347, Note_on_c, 0, 67, 87
1, 321350, Note_on_c, 0, 59, 76
1, 321402, Note_off_c, 0, 67, 0
1, 321409, Note_off_c, 0, 59, 0
1, 321662, Note_on_c, 0, 72, 90
1, 321671, Note_on_c, 0, 55, 74
1, 321710, Note_off_c, 0, 72, 0
1, 321716, Note_off_c, 0, 55, 0
1, 321991, Note_off_c, 0, 52, 0
1, 322008, Note_on_c, 0, 71, 88
1, 322009, Note_on_c, 0, 62, 86
1, 322038, Note_off_c, 0, 79, 0
1, 322064, Note_off_c, 0, 71, 0
1, 322134, Note_on_c, 0, 67, 87
1, 322199, Note_off_c, 0, 67, 0
1, 322316, Note_on_c, 0, 78, 82
1, 322323, Note_on_c, 0, 69, 86
1, 322332, Note_on_c, 0, 50, 81
1, 322379, Note_off_c, 0, 50, 0
1, 322637, Poly_aftertouch_c, 0, 62, 24
1, 322648, Note_on_c, 0, 54, 87
1, 322653, Note_off_c, 0, 62, 0
1, 322673, Note_off_c, 0, 69, 0
1, 322675, Note_off_c, 0, 78, 0
1, 322706, Note_off_c, 0, 54, 0
1, 322972, Note_on_c, 0, 47, 92
1, 323308, Note_on_c, 0, 55, 86
1, 323346, Note_off_c, 0, 55, 0
1, 323626, Note_on_c, 0, 59, 85
1, 323681, Note_off_c, 0, 59, 0
1, 323902, Poly_aftertouch_c, 0, 76, 0
1, 323916, Note_off_c, 0, 47, 0
1, 323960, Note_on_c, 0, 48, 85
1, 323960, Note_on_c, 0, 52, 87
1, 324023, Note_off_c, 0, 52, 0
1, 324288, Note_on_c, 0, 60, 89
1, 324297, Note_on_c, 0, 57, 81
1, 324330, Note_off_c, 0, 60, 0
1, 324357, Note_off_c, 0, 57, 0
1, 324617, Note_on_c, 0, 64, 92
1, 324626, Note_on_c, 0, 55, 87
1, 324662, Note_off_c, 0, 64, 0
1, 324896, Note_off_c, 0, 48, 0
1, 324940, Note_on_c, 0, 57, 92
1, 324945, Note_on_c, 0, 50, 86
1, 324993, Note_off_c, 0, 57, 0
1, 325078, Note_off_c, 0, 55, 0
1, 325279, Note_on_c, 0, 69, 81
1, 325280, Note_on_c, 0, 62, 83
1, 325286, Note_on_c, 0, 54, 70
1, 325326, Note_off_c, 0, 54, 0
1, 325350, Note_off_c, 0, 69, 0
1, 325409, Note_off_c, 0, 50, 0
1, 325437, Note_on_c, 0, 52, 72
1, 325437, Note_on_c, 0, 50, 34
1, 325513, Note_off_c, 0, 52, 0
1, 325608, Note_on_c, 0, 72, 88
1, 325622, Note_on_c, 0, 54, 75
1, 325704, Note_off_c, 0, 54, 0
1, 325932, Note_on_c, 0, 55, 84
1, 325978, Note_off_c, 0, 50, 0
1, 326005, Note_off_c, 0, 55, 0
1, 326028, Note_off_c, 0, 62, 0
1, 326075, Note_off_c, 0, 72, 0
1, 326083, Note_on_c, 0, 69, 82
1, 326153, Note_off_c, 0, 69, 0
1, 326264, Note_on_c, 0, 47, 84
1, 326264, Note_on_c, 0, 71, 87
1, 326271, Note_on_c, 0, 67, 74
1, 326273, Note_on_c, 0, 50, 74
1, 326307, Note_off_c, 0, 50, 0
1, 326324, Note_off_c, 0, 47, 0
1, 326593, Note_on_c, 0, 50, 85
1, 326651, Note_off_c, 0, 50, 0
1, 326735, Note_off_c, 0, 67, 0
1, 326769, Note_off_c, 0, 71, 0
1, 326911, Note_on_c, 0, 43, 87
1, 326982, Note_off_c, 0, 43, 0
1, 327250, Note_on_c, 0, 76, 90
1, 327251, Note_on_c, 0, 55, 90
1, 327305, Note_off_c, 0, 76, 0
1, 327582, Note_on_c, 0, 79, 86
1, 327657, Note_off_c, 0, 79, 0
1, 327897, Note_on_c, 0, 73, 90
1, 327945, Note_off_c, 0, 55, 0
1, 327958, Note_off_c, 0, 73, 0
1, 328243, Note_on_c, 0, 81, 89
1, 328248, Note_on_c, 0, 62, 86
1, 328255, Note_on_c, 0, 54, 79
1, 328305, Note_off_c, 0, 62, 0
1, 328588, Note_on_c, 0, 66, 89
1, 328643, Note_off_c, 0, 66, 0
1, 328912, Note_on_c, 0, 74, 90
1, 328918, Note_off_c, 0, 81, 0
1, 328918, Note_on_c, 0, 59, 81
1, 328942, Note_off_c, 0, 54, 0
1, 328968, Note_off_c, 0, 74, 0
1, 328982, Note_off_c, 0, 59, 0
1, 329243, Note_on_c, 0, 79, 87
1, 329248, Note_on_c, 0, 73, 84
1, 329249, Note_on_c, 0, 64, 90
1, 329253, Note_on_c, 0, 52, 63
1, 329293, Note_off_c, 0, 52, 0
1, 329308, Note_off_c, 0, 73, 0
1, 329570, Note_on_c, 0, 76, 87
1, 329577, Note_on_c, 0, 55, 77
1, 329581, Note_off_c, 0, 64, 0
1, 329626, Note_off_c, 0, 55, 0
1, 329629, Note_off_c, 0, 76, 0
1, 329896, Note_on_c, 0, 69, 89
1, 329902, Note_on_c, 0, 49, 89
1, 329961, Note_off_c, 0, 49, 0
1, 330220, Note_on_c, 0, 78, 80
1, 330222, Note_off_c, 0, 79, 0
1, 330222, Note_on_c, 0, 61, 75
1, 330223, Note_on_c, 0, 57, 69
1, 330257, Note_off_c, 0, 69, 0
1, 330262, Note_off_c, 0, 57, 0
1, 330281, Note_off_c, 0, 61, 0
1, 330293, Note_off_c, 0, 78, 0
1, 330542, Note_on_c, 0, 76, 87
1, 330552, Note_on_c, 0, 61, 75
1, 330556, Note_on_c, 0, 64, 76
1, 330560, Note_on_c, 0, 67, 85
1, 330583, Note_off_c, 0, 64, 0
1, 330604, Note_off_c, 0, 61, 0
1, 330885, Note_on_c, 0, 57, 91
1, 330889, Note_on_c, 0, 54, 77
1, 330893, Note_off_c, 0, 67, 0
1, 330900, Note_off_c, 0, 76, 0
1, 331213, Note_on_c, 0, 74, 90
1, 331219, Note_on_c, 0, 66, 84
1, 331255, Note_off_c, 0, 66, 0
1, 331283, Note_off_c, 0, 74, 0
1, 331548, Note_on_c, 0, 72, 89
1, 331557, Note_on_c, 0, 69, 85
1, 331616, Note_off_c, 0, 69, 0
1, 331628, Note_off_c, 0, 54, 0
1, 331887, Note_on_c, 0, 62, 90
1, 331898, Note_on_c, 0, 55, 84
1, 331899, Note_off_c, 0, 72, 0
1, 331911, Note_off_c, 0, 57, 0
1, 331935, Note_off_c, 0, 55, 0
1, 331944, Note_off_c, 0, 62, 0
1, 332218, Note_on_c, 0, 71, 87
1, 332223, Note_on_c, 0, 64, 86
1, 332226, Note_on_c, 0, 55, 83
1, 332233, Note_on_c, 0, 43, 74
1, 332282, Note_off_c, 0, 64, 0
1, 332532, Note_off_c, 0, 55, 0
1, 332556, Note_on_c, 0, 67, 80
1, 332556, Note_on_c, 0, 59, 82
1, 332607, Note_off_c, 0, 59, 0
1, 332633, Note_off_c, 0, 67, 0
1, 332863, Note_off_c, 0, 71, 0
1, 332888, Note_on_c, 0, 69, 81
1, 332888, Note_on_c, 0, 61, 87
1, 332903, Note_on_c, 0, 52, 86
1, 332909, Note_off_c, 0, 43, 0
1, 332927, Note_off_c, 0, 61, 0
1, 332955, Note_off_c, 0, 52, 0
1, 332956, Note_off_c, 0, 69, 0
1, 333209, Note_on_c, 0, 74, 87
1, 333212, Note_on_c, 0, 54, 89
1, 333212, Note_on_c, 0, 69, 87
1, 333221, Note_on_c, 0, 42, 77
1, 333257, Note_off_c, 0, 69, 0
1, 333265, Note_off_c, 0, 42, 0
1, 333276, Note_off_c, 0, 54, 0
1, 333278, Note_off_c, 0, 74, 0
1, 333542, Note_on_c, 0, 73, 84
1, 333560, Note_on_c, 0, 67, 84
1, 333566, Note_on_c, 0, 45, 73
1, 333566, Note_on_c, 0, 52, 87
1, 333598, Note_off_c, 0, 52, 0
1, 333601, Note_off_c, 0, 45, 0
1, 333927, Note_on_c, 0, 50, 93
1, 333934, Note_on_c, 0, 38, 81
1, 334114, Note_off_c, 0, 67, 0
1, 334119, Note_on_c, 0, 64, 86
1, 334151, Note_off_c, 0, 73, 0
1, 334175, Note_off_c, 0, 64, 0
1, 334249, Note_off_c, 0, 38, 0
1, 334301, Note_off_c, 0, 50, 0
1, 334326, Note_on_c, 0, 74, 85
1, 334328, Note_on_c, 0, 66, 81
1, 334437, Note_on_c, 0, 73, 14
1, 334437, Note_off_c, 0, 73, 0
1, 334480, Note_on_c, 0, 57, 84
1, 334523, Note_off_c, 0, 57, 0
1, 334645, Note_on_c, 0, 59, 89
1, 334702, Note_off_c, 0, 59, 0
1, 334806, Note_on_c, 0, 61, 88
1, 334817, Note_off_c, 0, 66, 0
1, 334849, Note_off_c, 0, 61, 0
1, 334906, Note_off_c, 0, 74, 0
1, 334974, Note_on_c, 0, 62, 96
1, 335301, Note_on_c, 0, 78, 92
1, 335349, Note_off_c, 0, 78, 0
1, 335403, Note_off_c, 0, 62, 0
1, 335636, Note_on_c, 0, 74, 93
1, 335642, Note_on_c, 0, 60, 80
1, 335694, Note_off_c, 0, 74, 0
1, 335708, Note_off_c, 0, 60, 0
1, 335963, Note_on_c, 0, 79, 91
1, 335970, Note_on_c, 0, 59, 86
1, 336020, Note_off_c, 0, 79, 0
1, 336287, Note_on_c, 0, 83, 81
1, 336298, Note_on_c, 0, 74, 90
1, 336299, Note_on_c, 0, 62, 82
1, 336362, Note_off_c, 0, 74, 0
1, 336373, Note_off_c, 0, 62, 0
1, 336629, Note_off_c, 0, 59, 0
1, 336636, Note_on_c, 0, 71, 89
1, 336642, Note_on_c, 0, 55, 75
1, 336642, Note_on_c, 0, 67, 85
1, 336687, Note_off_c, 0, 55, 0
1, 336688, Note_off_c, 0, 67, 0
1, 336689, Note_off_c, 0, 71, 0
1, 336959, Control_c, 0, 64, 9
1, 336965, Note_off_c, 0, 83, 0
1, 336971, Note_on_c, 0, 67, 90
1, 336978, Control_c, 0, 64, 21
1, 336979, Note_on_c, 0, 64, 81
1, 336981, Note_on_c, 0, 60, 80
1, 336996, Control_c, 0, 64, 37
1, 337014, Control_c, 0, 64, 53
1, 337033, Note_off_c, 0, 67, 0
1, 337034, Control_c, 0, 64, 61
1, 337036, Note_off_c, 0, 64, 0
1, 337053, Control_c, 0, 64, 63
1, 337064, Note_off_c, 0, 60, 0
1, 337069, Control_c, 0, 64, 65
1, 337090, Control_c, 0, 64, 67
1, 337126, Control_c, 0, 64, 68
1, 337182, Control_c, 0, 64, 63
1, 337200, Control_c, 0, 64, 53
1, 337219, Control_c, 0, 64, 38
1, 337238, Control_c, 0, 64, 18
1, 337329, Note_on_c, 0, 81, 86
1, 337333, Note_on_c, 0, 54, 75
1, 337335, Note_on_c, 0, 69, 79
1, 337337, Note_on_c, 0, 60, 77
1, 337375, Note_off_c, 0, 69, 0
1, 337389, Note_off_c, 0, 54, 0
1, 337401, Note_off_c, 0, 81, 0
1, 337486, Note_on_c, 0, 79, 85
1, 337552, Note_off_c, 0, 79, 0
1, 337631, Note_on_c, 0, 78, 87
1, 337636, Note_on_c, 0, 72, 81
1, 337643, Note_on_c, 0, 57, 79
1, 337685, Note_off_c, 0, 78, 0
1, 337689, Note_off_c, 0, 72, 0
1, 337697, Note_off_c, 0, 57, 0
1, 337782, Note_on_c, 0, 76, 86
1, 337848, Note_off_c, 0, 76, 0
1, 337944, Note_on_c, 0, 75, 85
1, 337945, Note_on_c, 0, 66, 83
1, 337960, Note_on_c, 0, 59, 82
1, 337973, Note_off_c, 0, 60, 0
1, 338002, Note_off_c, 0, 59, 0
1, 338020, Note_off_c, 0, 75, 0
1, 338103, Note_on_c, 0, 76, 80
1, 338173, Note_off_c, 0, 76, 0
1, 338286, Note_on_c, 0, 78, 88
1, 338295, Note_on_c, 0, 59, 70
1, 338312, Note_on_c, 0, 51, 28
1, 338312, Note_off_c, 0, 51, 0
1, 338335, Note_off_c, 0, 59, 0
1, 338431, Note_on_c, 0, 57, 79
1, 338467, Note_off_c, 0, 57, 0
1, 338593, Note_on_c, 0, 55, 79
1, 338594, Note_on_c, 0, 47, 77
1, 338637, Note_off_c, 0, 47, 0
1, 338649, Note_off_c, 0, 55, 0
1, 338731, Note_on_c, 0, 54, 81
1, 338798, Note_off_c, 0, 54, 0
1, 338811, Note_off_c, 0, 66, 0
1, 338903, Note_on_c, 0, 55, 87
1, 338916, Note_on_c, 0, 52, 74
1, 338956, Note_off_c, 0, 52, 0
1, 338963, Note_off_c, 0, 55, 0
1, 338979, Note_off_c, 0, 78, 0
1, 339051, Note_on_c, 0, 57, 85
1, 339113, Note_off_c, 0, 57, 0
1, 339249, Note_on_c, 0, 76, 88
1, 339253, Note_on_c, 0, 71, 83
1, 339254, Note_on_c, 0, 59, 85
1, 339256, Note_on_c, 0, 55, 76
1, 339296, Note_off_c, 0, 71, 0
1, 339297, Note_off_c, 0, 76, 0
1, 339320, Note_off_c, 0, 55, 0
1, 339581, Note_on_c, 0, 79, 90
1, 339588, Note_on_c, 0, 67, 83
1, 339598, Note_on_c, 0, 52, 73
1, 339629, Note_off_c, 0, 67, 0
1, 339645, Note_off_c, 0, 79, 0
1, 339696, Note_off_c, 0, 52, 0
1, 339894, Note_on_c, 0, 73, 88
1, 339899, Note_on_c, 0, 64, 87
1, 339901, Note_on_c, 0, 57, 81
1, 339912, Note_off_c, 0, 59, 0
1, 339946, Note_off_c, 0, 64, 0
1, 339956, Note_off_c, 0, 73, 0
1, 339962, Note_off_c, 0, 57, 0
1, 340219, Note_on_c, 0, 75, 90
1, 340224, Note_on_c, 0, 54, 56
1, 340224, Note_on_c, 0, 66, 86
1, 340229, Note_on_c, 0, 57, 77
1, 340270, Note_off_c, 0, 66, 0
1, 340284, Note_off_c, 0, 57, 0
1, 340288, Note_off_c, 0, 75, 0
1, 340292, Note_off_c, 0, 54, 0
1, 340534, Note_on_c, 0, 76, 90
1, 340543, Note_on_c, 0, 67, 88
1, 340549, Note_on_c, 0, 52, 73
1, 340550, Note_on_c, 0, 59, 83
1, 340591, Note_off_c, 0, 52, 0
1, 340593, Note_off_c, 0, 67, 0
1, 340602, Note_off_c, 0, 59, 0
1, 340900, Note_on_c, 0, 66, 88
1, 340909, Control_c, 0, 64, 9
1, 340914, Note_on_c, 0, 60, 81
1, 340915, Note_on_c, 0, 57, 86
1, 340928, Control_c, 0, 64, 18
1, 340947, Control_c, 0, 64, 31
1, 340966, Control_c, 0, 64, 46
1, 340985, Control_c, 0, 64, 59
1, 340988, Note_off_c, 0, 60, 0
1, 341002, Control_c, 0, 64, 65
1, 341004, Note_off_c, 0, 57, 0
1, 341031, Control_c, 0, 64, 69
1, 341051, Control_c, 0, 64, 73
1, 341069, Control_c, 0, 64, 78
1, 341087, Control_c, 0, 64, 83
1, 341105, Note_off_c, 0, 76, 0
1, 341105, Control_c, 0, 64, 89
1, 341125, Control_c, 0, 64, 95
1, 341143, Control_c, 0, 64, 101
1, 341161, Control_c, 0, 64, 105
1, 341216, Control_c, 0, 64, 97
1, 341236, Control_c, 0, 64, 78
1, 341252, Note_on_c, 0, 75, 86
1, 341254, Note_on_c, 0, 59, 78
1, 341254, Control_c, 0, 64, 55
1, 341272, Control_c, 0, 64, 34
1, 341284, Note_off_c, 0, 66, 0
1, 341291, Control_c, 0, 64, 19
1, 341321, Note_off_c, 0, 75, 0
1, 341394, Note_on_c, 0, 72, 85
1, 341439, Note_off_c, 0, 72, 0
1, 341556, Note_on_c, 0, 71, 91
1, 341560, Note_on_c, 0, 47, 68
1, 341602, Note_off_c, 0, 47, 0
1, 341621, Note_off_c, 0, 71, 0
1, 341690, Note_on_c, 0, 69, 86
1, 341748, Note_off_c, 0, 69, 0
1, 341898, Note_on_c, 0, 67, 86
1, 341904, Note_on_c, 0, 64, 75
1, 341917, Note_on_c, 0, 52, 82
1, 341947, Note_on_c, 0, 69, 77
1, 341948, Note_off_c, 0, 67, 0
1, 342026, Note_off_c, 0, 64, 0
1, 342034, Note_off_c, 0, 59, 0
1, 342039, Note_on_c, 0, 67, 83
1, 342079, Note_off_c, 0, 69, 0
1, 342105, Note_on_c, 0, 66, 81
1, 342121, Note_off_c, 0, 67, 0
1, 342180, Note_off_c, 0, 66, 0
1, 342273, Note_on_c, 0, 64, 89
1, 342276, Note_on_c, 0, 55, 82
1, 342291, Note_off_c, 0, 52, 0
1, 342332, Note_off_c, 0, 55, 0
1, 342589, Note_on_c, 0, 50, 77
1, 342597, Note_on_c, 0, 59, 83
1, 342642, Note_off_c, 0, 59, 0
1, 342655, Note_off_c, 0, 50, 0
1, 342857, Note_off_c, 0, 64, 0
1, 342941, Note_on_c, 0, 52, 86
1, 342946, Note_on_c, 0, 48, 78
1, 343012, Note_off_c, 0, 52, 0
1, 343272, Note_on_c, 0, 72, 83
1, 343275, Note_on_c, 0, 57, 76
1, 343282, Note_on_c, 0, 69, 74
1, 343317, Note_off_c, 0, 69, 0
1, 343321, Note_off_c, 0, 57, 0
1, 343326, Note_off_c, 0, 72, 0
1, 343419, Note_on_c, 0, 55, 79
1, 343492, Note_off_c, 0, 55, 0
1, 343574, Note_on_c, 0, 72, 86
1, 343575, Note_on_c, 0, 54, 74
1, 343575, Note_on_c, 0, 76, 82
1, 343619, Note_off_c, 0, 72, 0
1, 343627, Note_off_c, 0, 54, 0
1, 343639, Note_off_c, 0, 76, 0
1, 343710, Note_on_c, 0, 55, 85
1, 343759, Note_off_c, 0, 55, 0
1, 343800, Note_off_c, 0, 48, 0
1, 343903, Note_on_c, 0, 69, 82
1, 343907, Note_on_c, 0, 62, 89
1, 343908, Note_on_c, 0, 66, 82
1, 343975, Note_off_c, 0, 69, 0
1, 343986, Note_off_c, 0, 66, 0
1, 344244, Note_on_c, 0, 71, 81
1, 344246, Note_on_c, 0, 67, 80
1, 344252, Note_on_c, 0, 47, 87
1, 344299, Note_off_c, 0, 67, 0
1, 344307, Note_off_c, 0, 71, 0
1, 344573, Note_on_c, 0, 74, 86
1, 344580, Note_on_c, 0, 71, 81
1, 344626, Note_off_c, 0, 71, 0
1, 344629, Note_off_c, 0, 62, 0
1, 344649, Note_off_c, 0, 74, 0
1, 344863, Note_off_c, 0, 47, 0
1, 344910, Note_on_c, 0, 67, 85
1, 344913, Note_on_c, 0, 64, 80
1, 344915, Note_on_c, 0, 60, 86
1, 344966, Note_off_c, 0, 60, 0
1, 344978, Note_off_c, 0, 64, 0
1, 344978, Note_off_c, 0, 67, 0
1, 345239, Note_on_c, 0, 72, 88
1, 345243, Note_on_c, 0, 69, 85
1, 345247, Note_on_c, 0, 54, 88
1, 345253, Note_on_c, 0, 45, 72
1, 345293, Note_off_c, 0, 45, 0
1, 345305, Note_off_c, 0, 54, 0
1, 345587, Note_on_c, 0, 57, 90
1, 345591, Note_on_c, 0, 48, 78
1, 345621, Note_off_c, 0, 57, 0
1, 345627, Note_off_c, 0, 48, 0
1, 345933, Note_on_c, 0, 50, 90
1, 345939, Note_on_c, 0, 42, 83
1, 345985, Note_on_c, 0, 41, 49
1, 345989, Note_off_c, 0, 69, 0
1, 346003, Note_off_c, 0, 72, 0
1, 346019, Note_off_c, 0, 41, 0
1, 346022, Note_off_c, 0, 42, 0
1, 346042, Note_on_c, 0, 44, 15
1, 346042, Note_off_c, 0, 44, 0
1, 346264, Note_on_c, 0, 74, 89
1, 346267, Note_on_c, 0, 66, 87
1, 346285, Note_on_c, 0, 38, 69
1, 346306, Note_off_c, 0, 66, 0
1, 346320, Note_off_c, 0, 74, 0
1, 346330, Note_off_c, 0, 38, 0
1, 346593, Note_on_c, 0, 72, 91
1, 346597, Note_on_c, 0, 69, 85
1, 346605, Note_on_c, 0, 42, 68
1, 346665, Note_off_c, 0, 42, 0
1, 346773, Note_off_c, 0, 72, 0
1, 346933, Note_on_c, 0, 71, 87
1, 346936, Note_on_c, 0, 43, 79
1, 346975, Note_off_c, 0, 69, 0
1, 347005, Note_off_c, 0, 71, 0
1, 347020, Note_off_c, 0, 43, 0
1, 347064, Note_on_c, 0, 72, 89
1, 347134, Note_off_c, 0, 72, 0
1, 347220, Note_off_c, 0, 50, 0
1, 347238, Note_on_c, 0, 74, 93
1, 347250, Note_on_c, 0, 67, 85
1, 347261, Note_on_c, 0, 47, 74
1, 347274, Note_on_c, 0, 48, 64
1, 347301, Note_off_c, 0, 48, 0
1, 347301, Note_off_c, 0, 47, 0
1, 347310, Note_off_c, 0, 67, 0
1, 347573, Note_on_c, 0, 71, 89
1, 347591, Note_on_c, 0, 55, 89
1, 347598, Note_on_c, 0, 43, 73
1, 347642, Note_off_c, 0, 43, 0
1, 347642, Note_off_c, 0, 71, 0
1, 347951, Note_on_c, 0, 64, 91
1, 347953, Note_on_c, 0, 48, 86
1, 347959, Note_off_c, 0, 55, 0
1, 347960, Note_on_c, 0, 55, 47
1, 347982, Note_off_c, 0, 55, 0
1, 347993, Note_off_c, 0, 74, 0
1, 348066, Poly_aftertouch_c, 0, 50, 0
1, 348111, Note_on_c, 0, 72, 79
1, 348183, Note_off_c, 0, 72, 0
1, 348283, Note_on_c, 0, 74, 90
1, 348287, Note_on_c, 0, 57, 80
1, 348350, Note_off_c, 0, 57, 0
1, 348351, Note_off_c, 0, 74, 0
1, 348422, Note_on_c, 0, 72, 83
1, 348504, Note_off_c, 0, 72, 0
1, 348563, Note_off_c, 0, 64, 0
1, 348587, Note_on_c, 0, 60, 81
1, 348589, Note_on_c, 0, 71, 87
1, 348648, Note_off_c, 0, 60, 0
1, 348654, Note_off_c, 0, 71, 0
1, 348740, Note_on_c, 0, 69, 82
1, 348822, Note_off_c, 0, 69, 0
1, 348905, Poly_aftertouch_c, 0, 64, 24
1, 348936, Note_on_c, 0, 74, 97
1, 348946, Note_on_c, 0, 54, 81
1, 348946, Note_on_c, 0, 57, 89
1, 348989, Note_off_c, 0, 48, 0
1, 349002, Note_off_c, 0, 57, 0
1, 349002, Note_off_c, 0, 74, 0
1, 349007, Poly_aftertouch_c, 0, 64, 0
1, 349009, Note_off_c, 0, 54, 0
1, 349293, Note_on_c, 0, 67, 86
1, 349299, Note_on_c, 0, 62, 86
1, 349308, Note_on_c, 0, 47, 75
1, 349308, Note_on_c, 0, 55, 87
1, 349351, Note_off_c, 0, 47, 0
1, 349355, Note_off_c, 0, 62, 0
1, 349359, Note_off_c, 0, 55, 0
1, 349362, Note_off_c, 0, 67, 0
1, 349672, Note_on_c, 0, 66, 85
1, 349678, Note_on_c, 0, 60, 88
1, 349684, Note_on_c, 0, 50, 72
1, 349685, Note_on_c, 0, 57, 88
1, 349724, Note_off_c, 0, 57, 0
1, 349731, Note_off_c, 0, 50, 0
1, 350082, Note_on_c, 0, 55, 89
1, 350095, Note_on_c, 0, 43, 82
1, 350271, Note_off_c, 0, 60, 0
1, 350295, Note_on_c, 0, 57, 90
1, 350359, Note_off_c, 0, 57, 0
1, 350632, Note_off_c, 0, 66, 0
1, 350659, Note_on_c, 0, 67, 86
1, 350669, Note_on_c, 0, 59, 86
1, 350826, Control_c, 0, 67, 8
1, 351066, Control_c, 0, 67, 12
1, 351179, Control_c, 0, 67, 17
1, 351196, Control_c, 0, 67, 21
1, 351232, Control_c, 0, 67, 27
1, 351288, Control_c, 0, 67, 31
1, 351373, Control_c, 0, 67, 36
1, 351465, Control_c, 0, 67, 40
1, 351521, Control_c, 0, 67, 45
1, 351576, Control_c, 0, 67, 50
1, 351632, Control_c, 0, 67, 54
1, 351688, Control_c, 0, 67, 59
1, 351724, Note_off_c, 0, 59, 0
1, 351726, Note_off_c, 0, 43, 0
1, 351732, Note_off_c, 0, 67, 0
1, 351739, Note_off_c, 0, 55, 0
1, 351742, Control_c, 0, 67, 64
1, 351948, Control_c, 0, 67, 68
1, 352004, Control_c, 0, 67, 73
1, 352096, Control_c, 0, 67, 77
1, 352493, Note_on_c, 0, 55, 60
1, 352527, Note_off_c, 0, 55, 0
1, 352570, Note_on_c, 0, 62, 54
1, 352616, Note_off_c, 0, 62, 0
1, 352673, Note_on_c, 0, 64, 38
1, 352711, Note_off_c, 0, 64, 0
1, 352733, Note_on_c, 0, 66, 53
1, 352793, Note_off_c, 0, 66, 0
1, 352828, Control_c, 0, 67, 73
1, 352842, Note_on_c, 0, 71, 75
1, 352868, Note_on_c, 0, 67, 55
1, 352870, Note_off_c, 0, 71, 0
1, 352919, Note_off_c, 0, 67, 0
1, 352944, Note_on_c, 0, 66, 59
1, 352980, Note_off_c, 0, 66, 0
1, 353048, Note_on_c, 0, 67, 56
1, 353085, Note_off_c, 0, 67, 0
1, 353137, Note_on_c, 0, 69, 65
1, 353179, Note_off_c, 0, 69, 0
1, 353247, Note_on_c, 0, 71, 71
1, 353250, Note_on_c, 0, 55, 68
1, 353310, Note_off_c, 0, 71, 0
1, 353331, Note_on_c, 0, 69, 69
1, 353390, Note_off_c, 0, 69, 0
1, 353440, Note_on_c, 0, 67, 56
1, 353469, Note_off_c, 0, 67, 0
1, 353526, Note_on_c, 0, 71, 60
1, 353562, Control_c, 0, 67, 78
1, 353588, Note_off_c, 0, 71, 0
1, 353617, Note_on_c, 0, 69, 65
1, 353640, Note_off_c, 0, 55, 0
1, 353651, Note_on_c, 0, 54, 70
1, 353668, Note_off_c, 0, 69, 0
1, 353680, Note_off_c, 0, 54, 0
1, 353690, Control_c, 0, 67, 84
1, 353710, Note_on_c, 0, 67, 63
1, 353747, Control_c, 0, 67, 89
1, 353755, Note_off_c, 0, 67, 0
1, 353817, Note_on_c, 0, 66, 56
1, 353823, Control_c, 0, 67, 93
1, 353885, Note_off_c, 0, 66, 0
1, 353908, Note_on_c, 0, 64, 64
1, 353981, Note_off_c, 0, 64, 0
1, 354018, Note_on_c, 0, 62, 67
1, 354019, Note_on_c, 0, 69, 71
1, 354046, Note_off_c, 0, 69, 0
1, 354058, Note_off_c, 0, 62, 0
1, 354119, Note_on_c, 0, 64, 60
1, 354180, Note_off_c, 0, 64, 0
1, 354222, Note_on_c, 0, 66, 51
1, 354281, Note_off_c, 0, 66, 0
1, 354297, Note_on_c, 0, 67, 64
1, 354332, Control_c, 0, 67, 89
1, 354391, Note_off_c, 0, 67, 0
1, 354410, Note_on_c, 0, 69, 72
1, 354414, Note_on_c, 0, 54, 66
1, 354491, Note_on_c, 0, 66, 64
1, 354495, Note_off_c, 0, 69, 0
1, 354582, Note_off_c, 0, 66, 0
1, 354601, Note_on_c, 0, 64, 57
1, 354656, Note_off_c, 0, 64, 0
1, 354678, Note_on_c, 0, 62, 51
1, 354722, Note_off_c, 0, 62, 0
1, 354790, Note_on_c, 0, 67, 69
1, 354797, Note_off_c, 0, 54, 0
1, 354800, Note_on_c, 0, 52, 69
1, 354830, Note_off_c, 0, 52, 0
1, 354871, Note_off_c, 0, 67, 0
1, 354877, Note_on_c, 0, 66, 64
1, 354954, Note_off_c, 0, 66, 0
1, 354974, Note_on_c, 0, 64, 59
1, 355031, Note_off_c, 0, 64, 0
1, 355061, Note_on_c, 0, 62, 56
1, 355138, Note_off_c, 0, 62, 0
1, 355175, Note_on_c, 0, 67, 81
1, 355179, Note_on_c, 0, 61, 66
1, 355204, Note_off_c, 0, 67, 0
1, 355235, Note_off_c, 0, 61, 0
1, 355278, Note_on_c, 0, 62, 65
1, 355337, Note_off_c, 0, 62, 0
1, 355371, Note_on_c, 0, 64, 61
1, 355437, Note_off_c, 0, 64, 0
1, 355461, Note_on_c, 0, 66, 64
1, 355511, Note_off_c, 0, 66, 0
1, 355557, Note_on_c, 0, 67, 74
1, 355563, Note_on_c, 0, 52, 67
1, 355615, Note_off_c, 0, 67, 0
1, 355660, Note_on_c, 0, 71, 68
1, 355727, Note_off_c, 0, 71, 0
1, 355755, Note_on_c, 0, 69, 64
1, 355825, Note_off_c, 0, 69, 0
1, 355847, Note_on_c, 0, 67, 65
1, 355893, Note_off_c, 0, 67, 0
1, 355952, Note_on_c, 0, 66, 66
1, 355952, Note_on_c, 0, 50, 70
1, 355960, Note_off_c, 0, 52, 0
1, 355984, Note_off_c, 0, 50, 0
1, 356038, Note_off_c, 0, 66, 0
1, 356055, Note_on_c, 0, 64, 65
1, 356117, Note_off_c, 0, 64, 0
1, 356157, Note_on_c, 0, 62, 53
1, 356215, Note_off_c, 0, 62, 0
1, 356246, Note_on_c, 0, 61, 61
1, 356308, Note_off_c, 0, 61, 0
1, 356344, Note_on_c, 0, 66, 76
1, 356346, Note_on_c, 0, 62, 68
1, 356374, Note_off_c, 0, 66, 0
1, 356398, Note_off_c, 0, 62, 0
1, 356440, Note_on_c, 0, 57, 66
1, 356480, Note_off_c, 0, 57, 0
1, 356541, Note_on_c, 0, 62, 69
1, 356618, Note_off_c, 0, 62, 0
1, 356635, Note_on_c, 0, 64, 61
1, 356693, Note_off_c, 0, 64, 0
1, 356715, Note_on_c, 0, 66, 78
1, 356715, Note_on_c, 0, 50, 75
1, 356755, Note_off_c, 0, 50, 0
1, 356783, Note_off_c, 0, 66, 0
1, 356812, Note_on_c, 0, 62, 71
1, 356853, Note_off_c, 0, 62, 0
1, 356905, Note_on_c, 0, 66, 66
1, 356916, Note_on_c, 0, 48, 63
1, 356959, Note_off_c, 0, 66, 0
1, 356960, Note_off_c, 0, 48, 0
1, 356995, Note_on_c, 0, 69, 69
1, 357063, Note_off_c, 0, 69, 0
1, 357113, Note_on_c, 0, 74, 73
1, 357119, Note_on_c, 0, 47, 68
1, 357150, Note_off_c, 0, 47, 0
1, 357196, Note_off_c, 0, 74, 0
1, 357205, Note_on_c, 0, 71, 64
1, 357279, Note_off_c, 0, 71, 0
1, 357317, Note_on_c, 0, 69, 62
1, 357379, Note_off_c, 0, 69, 0
1, 357410, Note_on_c, 0, 71, 64
1, 357471, Note_off_c, 0, 71, 0
1, 357507, Note_on_c, 0, 74, 78
1, 357515, Note_on_c, 0, 67, 69
1, 357533, Note_off_c, 0, 74, 0
1, 357558, Note_off_c, 0, 67, 0
1, 357618, Note_on_c, 0, 69, 65
1, 357723, Note_off_c, 0, 69, 0
1, 357770, Note_on_c, 0, 69, 7
1, 357791, Note_on_c, 0, 71, 69
1, 357792, Note_off_c, 0, 69, 0
1, 357846, Note_off_c, 0, 71, 0
1, 357912, Note_on_c, 0, 62, 67
1, 357924, Note_on_c, 0, 47, 72
1, 357971, Note_off_c, 0, 62, 0
1, 358015, Note_on_c, 0, 67, 67
1, 358093, Note_off_c, 0, 67, 0
1, 358114, Note_on_c, 0, 66, 58
1, 358188, Note_off_c, 0, 66, 0
1, 358196, Note_on_c, 0, 67, 64
1, 358275, Note_off_c, 0, 67, 0
1, 358293, Note_off_c, 0, 47, 0
1, 358302, Note_on_c, 0, 64, 75
1, 358314, Note_on_c, 0, 48, 73
1, 358345, Note_off_c, 0, 48, 0
1, 358360, Note_off_c, 0, 64, 0
1, 358409, Note_on_c, 0, 67, 73
1, 358462, Note_off_c, 0, 67, 0
1, 358507, Note_on_c, 0, 62, 60
1, 358549, Note_off_c, 0, 62, 0
1, 358589, Note_on_c, 0, 67, 66
1, 358640, Note_off_c, 0, 67, 0
1, 358672, Note_on_c, 0, 76, 83
1, 358684, Note_on_c, 0, 60, 76
1, 358715, Note_off_c, 0, 76, 0
1, 358733, Note_off_c, 0, 60, 0
1, 358785, Note_on_c, 0, 67, 72
1, 358862, Note_off_c, 0, 67, 0
1, 358895, Note_on_c, 0, 59, 64
1, 358933, Note_off_c, 0, 59, 0
1, 358981, Note_on_c, 0, 67, 70
1, 359031, Note_off_c, 0, 67, 0
1, 359080, Note_on_c, 0, 57, 74
1, 359082, Note_on_c, 0, 48, 73
1, 359121, Note_off_c, 0, 57, 0
1, 359172, Note_on_c, 0, 67, 67
1, 359243, Note_off_c, 0, 67, 0
1, 359271, Note_on_c, 0, 59, 64
1, 359312, Note_off_c, 0, 59, 0
1, 359350, Note_on_c, 0, 67, 63
1, 359430, Note_off_c, 0, 48, 0
1, 359439, Note_off_c, 0, 67, 0
1, 359465, Note_on_c, 0, 60, 73
1, 359470, Note_on_c, 0, 50, 77
1, 359500, Note_off_c, 0, 50, 0
1, 359524, Note_off_c, 0, 60, 0
1, 359575, Note_on_c, 0, 67, 60
1, 359626, Note_off_c, 0, 67, 0
1, 359665, Note_on_c, 0, 59, 69
1, 359710, Note_off_c, 0, 59, 0
1, 359773, Note_on_c, 0, 67, 64
1, 359839, Note_off_c, 0, 67, 0
1, 359877, Note_on_c, 0, 69, 80
1, 359882, Note_on_c, 0, 60, 66
1, 359898, Note_off_c, 0, 69, 0
1, 359916, Note_off_c, 0, 60, 0
1, 359957, Note_on_c, 0, 66, 63
1, 360039, Note_off_c, 0, 66, 0
1, 360070, Note_on_c, 0, 64, 56
1, 360161, Note_off_c, 0, 64, 0
1, 360167, Note_on_c, 0, 66, 66
1, 360244, Note_off_c, 0, 66, 0
1, 360272, Note_on_c, 0, 50, 77
1, 360275, Note_on_c, 0, 62, 70
1, 360339, Note_off_c, 0, 62, 0
1, 360382, Note_on_c, 0, 66, 70
1, 360438, Note_off_c, 0, 66, 0
1, 360471, Note_on_c, 0, 60, 66
1, 360530, Note_off_c, 0, 60, 0
1, 360575, Note_on_c, 0, 66, 67
1, 360648, Note_off_c, 0, 66, 0
1, 360679, Note_on_c, 0, 59, 71
1, 360683, Note_on_c, 0, 43, 69
1, 360698, Note_off_c, 0, 50, 0
1, 360725, Note_off_c, 0, 43, 0
1, 360725, Note_off_c, 0, 59, 0
1, 360775, Note_on_c, 0, 67, 69
1, 360863, Note_off_c, 0, 67, 0
1, 360885, Note_on_c, 0, 66, 58
1, 360965, Note_on_c, 0, 64, 65
1, 360975, Note_off_c, 0, 66, 0
1, 361061, Note_off_c, 0, 64, 0
1, 361080, Note_on_c, 0, 62, 69
1, 361092, Note_on_c, 0, 71, 71
1, 361132, Note_off_c, 0, 62, 0
1, 361169, Note_on_c, 0, 60, 62
1, 361218, Note_off_c, 0, 60, 0
1, 361271, Note_on_c, 0, 59, 59
1, 361336, Note_off_c, 0, 59, 0
1, 361373, Note_on_c, 0, 57, 64
1, 361448, Note_off_c, 0, 57, 0
1, 361479, Note_on_c, 0, 55, 63
1, 361511, Note_off_c, 0, 55, 0
1, 361548, Note_off_c, 0, 71, 0
1, 361574, Note_on_c, 0, 69, 63
1, 361672, Note_off_c, 0, 69, 0
1, 361690, Note_on_c, 0, 67, 63
1, 361772, Note_off_c, 0, 67, 0
1, 361781, Note_on_c, 0, 66, 67
1, 361844, Note_off_c, 0, 66, 0
1, 361896, Note_on_c, 0, 83, 86
1, 361900, Note_on_c, 0, 67, 66
1, 361933, Note_off_c, 0, 67, 0
1, 361936, Note_off_c, 0, 83, 0
1, 361995, Note_on_c, 0, 71, 65
1, 362048, Note_off_c, 0, 71, 0
1, 362099, Note_on_c, 0, 73, 61
1, 362176, Note_off_c, 0, 73, 0
1, 362186, Note_on_c, 0, 74, 74
1, 362229, Note_off_c, 0, 74, 0
1, 362293, Note_on_c, 0, 76, 67
1, 362300, Note_on_c, 0, 67, 89
1, 362325, Note_off_c, 0, 67, 0
1, 362355, Note_off_c, 0, 76, 0
1, 362399, Note_on_c, 0, 78, 69
1, 362442, Note_off_c, 0, 78, 0
1, 362500, Note_on_c, 0, 76, 66
1, 362533, Note_off_c, 0, 76, 0
1, 362614, Note_on_c, 0, 74, 66
1, 362673, Note_off_c, 0, 74, 0
1, 362708, Note_on_c, 0, 83, 88
1, 362721, Note_on_c, 0, 73, 71
1, 362774, Note_off_c, 0, 73, 0
1, 362824, Note_on_c, 0, 71, 69
1, 362867, Note_off_c, 0, 71, 0
1, 362929, Note_on_c, 0, 69, 56
1, 362985, Note_off_c, 0, 69, 0
1, 363012, Note_on_c, 0, 67, 58
1, 363097, Note_off_c, 0, 67, 0
1, 363126, Note_on_c, 0, 66, 67
1, 363127, Note_off_c, 0, 83, 0
1, 363137, Note_on_c, 0, 81, 80
1, 363181, Note_off_c, 0, 81, 0
1, 363184, Note_off_c, 0, 66, 0
1, 363232, Note_on_c, 0, 69, 70
1, 363278, Note_off_c, 0, 69, 0
1, 363335, Note_on_c, 0, 71, 61
1, 363383, Note_off_c, 0, 71, 0
1, 363434, Note_on_c, 0, 73, 64
1, 363522, Note_off_c, 0, 73, 0
1, 363551, Note_on_c, 0, 74, 66
1, 363551, Note_on_c, 0, 66, 83
1, 363576, Note_off_c, 0, 66, 0
1, 363602, Note_off_c, 0, 74, 0
1, 363647, Note_on_c, 0, 76, 70
1, 363689, Note_off_c, 0, 76, 0
1, 363756, Note_on_c, 0, 74, 65
1, 363820, Note_off_c, 0, 74, 0
1, 363833, Note_on_c, 0, 73, 70
1, 363885, Note_off_c, 0, 73, 0
1, 363951, Note_on_c, 0, 81, 86
1, 363955, Note_on_c, 0, 71, 72
1, 363988, Note_off_c, 0, 71, 0
1, 364053, Note_on_c, 0, 69, 61
1, 364125, Note_off_c, 0, 69, 0
1, 364135, Note_on_c, 0, 67, 63
1, 364222, Note_off_c, 0, 67, 0
1, 364252, Note_on_c, 0, 66, 67
1, 364329, Note_off_c, 0, 66, 0
1, 364369, Note_off_c, 0, 81, 0
1, 364373, Note_on_c, 0, 79, 76
1, 364381, Note_on_c, 0, 64, 78
1, 364410, Note_off_c, 0, 64, 0
1, 364476, Note_on_c, 0, 78, 72
1, 364484, Note_off_c, 0, 79, 0
1, 364563, Note_off_c, 0, 78, 0
1, 364581, Note_on_c, 0, 76, 69
1, 364607, Note_on_c, 0, 66, 74
1, 364620, Note_off_c, 0, 76, 0
1, 364637, Note_off_c, 0, 66, 0
1, 364682, Note_on_c, 0, 75, 74
1, 364760, Note_off_c, 0, 75, 0
1, 364773, Note_on_c, 0, 76, 65
1, 364798, Note_on_c, 0, 67, 79
1, 364825, Note_off_c, 0, 67, 0
1, 364867, Note_off_c, 0, 76, 0
1, 364892, Note_on_c, 0, 79, 74
1, 364989, Note_off_c, 0, 79, 0
1, 365000, Note_on_c, 0, 74, 70
1, 365006, Note_on_c, 0, 71, 72
1, 365036, Note_off_c, 0, 74, 0
1, 365039, Note_off_c, 0, 71, 0
1, 365104, Note_on_c, 0, 79, 63
1, 365193, Note_off_c, 0, 79, 0
1, 365210, Note_on_c, 0, 73, 81
1, 365216, Note_on_c, 0, 74, 81
1, 365218, Note_on_c, 0, 76, 81
1, 365226, Poly_aftertouch_c, 0, 78, 0
1, 365275, Note_off_c, 0, 74, 0
1, 365293, Note_off_c, 0, 73, 0
1, 365327, Note_on_c, 0, 79, 70
1, 365415, Note_off_c, 0, 79, 0
1, 365433, Note_on_c, 0, 71, 69
1, 365464, Note_off_c, 0, 71, 0
1, 365528, Note_on_c, 0, 79, 66
1, 365585, Note_off_c, 0, 76, 0
1, 365612, Note_off_c, 0, 79, 0
1, 365627, Note_on_c, 0, 73, 68
1, 365680, Note_off_c, 0, 73, 0
1, 365705, Note_on_c, 0, 79, 72
1, 365814, Note_off_c, 0, 79, 0
1, 365821, Note_on_c, 0, 76, 74
1, 365827, Note_on_c, 0, 74, 62
1, 365850, Note_off_c, 0, 74, 0
1, 365912, Note_off_c, 0, 76, 0
1, 365918, Note_on_c, 0, 79, 76
1, 365996, Note_off_c, 0, 79, 0
1, 366000, Note_on_c, 0, 73, 67
1, 366028, Note_on_c, 0, 69, 63
1, 366038, Note_off_c, 0, 73, 0
1, 366050, Note_off_c, 0, 69, 0
1, 366086, Note_on_c, 0, 76, 68
1, 366168, Note_off_c, 0, 76, 0
1, 366219, Note_on_c, 0, 71, 68
1, 366221, Note_on_c, 0, 79, 80
1, 366273, Note_off_c, 0, 71, 0
1, 366305, Note_on_c, 0, 76, 72
1, 366369, Note_off_c, 0, 76, 0
1, 366426, Note_off_c, 0, 79, 0
1, 366433, Note_on_c, 0, 69, 72
1, 366439, Note_on_c, 0, 78, 79
1, 366485, Note_off_c, 0, 69, 0
1, 366490, Note_off_c, 0, 78, 0
1, 366516, Note_on_c, 0, 76, 71
1, 366592, Note_off_c, 0, 76, 0
1, 366624, Note_on_c, 0, 81, 69
1, 366642, Note_on_c, 0, 67, 66
1, 366668, Note_on_c, 0, 79, 70
1, 366679, Note_off_c, 0, 67, 0
1, 366684, Note_off_c, 0, 81, 0
1, 366707, Note_on_c, 0, 78, 77
1, 366716, Note_off_c, 0, 79, 0
1, 366729, Note_on_c, 0, 76, 68
1, 366766, Note_on_c, 0, 79, 52
1, 366776, Note_off_c, 0, 78, 0
1, 366813, Note_off_c, 0, 76, 0
1, 366829, Note_on_c, 0, 81, 83
1, 366837, Note_off_c, 0, 79, 0
1, 366837, Note_on_c, 0, 66, 72
1, 366865, Note_off_c, 0, 81, 0
1, 366883, Note_off_c, 0, 66, 0
1, 366933, Note_on_c, 0, 76, 72
1, 366994, Note_off_c, 0, 76, 0
1, 367039, Note_on_c, 0, 74, 70
1, 367050, Note_on_c, 0, 64, 78
1, 367101, Note_off_c, 0, 74, 0
1, 367137, Note_on_c, 0, 73, 73
1, 367185, Note_off_c, 0, 73, 0
1, 367252, Note_on_c, 0, 74, 70
1, 367257, Note_off_c, 0, 64, 0
1, 367273, Note_on_c, 0, 66, 73
1, 367299, Note_off_c, 0, 66, 0
1, 367306, Note_off_c, 0, 74, 0
1, 367354, Note_on_c, 0, 69, 66
1, 367404, Note_off_c, 0, 69, 0
1, 367471, Note_on_c, 0, 62, 76
1, 367489, Note_on_c, 0, 77, 76
1, 367498, Note_off_c, 0, 62, 0
1, 367505, Note_off_c, 0, 77, 0
1, 367578, Note_on_c, 0, 74, 70
1, 367661, Note_off_c, 0, 74, 0
1, 367683, Note_on_c, 0, 79, 87
1, 367691, Note_on_c, 0, 64, 74
1, 367720, Note_off_c, 0, 79, 0
1, 367730, Note_off_c, 0, 64, 0
1, 367789, Note_on_c, 0, 74, 71
1, 367882, Note_off_c, 0, 74, 0
1, 367894, Note_on_c, 0, 66, 74
1, 367897, Note_on_c, 0, 81, 88
1, 367937, Note_off_c, 0, 66, 0
1, 367943, Note_off_c, 0, 81, 0
1, 368004, Note_on_c, 0, 74, 70
1, 368088, Note_off_c, 0, 74, 0
1, 368103, Note_on_c, 0, 83, 89
1, 368104, Note_on_c, 0, 67, 76
1, 368139, Note_off_c, 0, 67, 0
1, 368142, Note_off_c, 0, 83, 0
1, 368209, Note_on_c, 0, 76, 73
1, 368263, Note_off_c, 0, 76, 0
1, 368311, Note_on_c, 0, 66, 82
1, 368313, Note_on_c, 0, 74, 71
1, 368381, Note_off_c, 0, 74, 0
1, 368415, Note_on_c, 0, 73, 69
1, 368462, Note_off_c, 0, 73, 0
1, 368500, Note_off_c, 0, 66, 0
1, 368510, Note_on_c, 0, 64, 73
1, 368511, Note_on_c, 0, 74, 77
1, 368540, Note_off_c, 0, 64, 0
1, 368565, Note_off_c, 0, 74, 0
1, 368622, Note_on_c, 0, 71, 74
1, 368679, Note_off_c, 0, 71, 0
1, 368733, Note_on_c, 0, 79, 93
1, 368734, Note_on_c, 0, 64, 78
1, 368770, Note_off_c, 0, 64, 0
1, 368783, Note_off_c, 0, 79, 0
1, 368846, Note_on_c, 0, 74, 70
1, 368942, Note_on_c, 0, 81, 94
1, 368944, Note_off_c, 0, 74, 0
1, 368944, Note_on_c, 0, 66, 73
1, 368993, Note_off_c, 0, 81, 0
1, 369007, Note_off_c, 0, 66, 0
1, 369060, Note_on_c, 0, 74, 70
1, 369144, Note_off_c, 0, 74, 0
1, 369165, Note_on_c, 0, 67, 73
1, 369168, Note_on_c, 0, 83, 92
1, 369215, Note_off_c, 0, 67, 0
1, 369228, Note_off_c, 0, 83, 0
1, 369271, Note_on_c, 0, 74, 69
1, 369314, Note_off_c, 0, 74, 0
1, 369378, Note_on_c, 0, 76, 79
1, 369385, Note_on_c, 0, 69, 83
1, 369407, Note_off_c, 0, 69, 0
1, 369409, Note_off_c, 0, 76, 0
1, 369463, Note_on_c, 0, 74, 77
1, 369529, Note_off_c, 0, 74, 0
1, 369578, Note_on_c, 0, 73, 78
1, 369581, Note_on_c, 0, 67, 89
1, 369627, Note_off_c, 0, 67, 0
1, 369673, Note_off_c, 0, 73, 0
1, 369681, Note_on_c, 0, 71, 78
1, 369778, Note_off_c, 0, 71, 0
1, 369797, Note_on_c, 0, 73, 74
1, 369797, Note_on_c, 0, 57, 84
1, 369846, Note_off_c, 0, 57, 0
1, 369876, Note_off_c, 0, 73, 0
1, 369903, Note_on_c, 0, 76, 72
1, 369986, Note_off_c, 0, 76, 0
1, 370006, Note_on_c, 0, 69, 64
1, 370012, Note_on_c, 0, 64, 78
1, 370066, Note_off_c, 0, 64, 0
1, 370067, Note_off_c, 0, 69, 0
1, 370109, Note_on_c, 0, 73, 70
1, 370159, Note_off_c, 0, 73, 0
1, 370226, Note_on_c, 0, 64, 71
1, 370232, Note_on_c, 0, 61, 80
1, 370263, Note_off_c, 0, 61, 0
1, 370270, Note_off_c, 0, 64, 0
1, 370325, Note_on_c, 0, 67, 73
1, 370425, Note_off_c, 0, 67, 0
1, 370441, Note_on_c, 0, 66, 67
1, 370446, Note_on_c, 0, 57, 75
1, 370484, Note_off_c, 0, 57, 0
1, 370525, Note_off_c, 0, 66, 0
1, 370549, Note_on_c, 0, 64, 65
1, 370666, Note_off_c, 0, 64, 0
1, 370668, Note_on_c, 0, 50, 74
1, 370674, Note_on_c, 0, 66, 64
1, 370706, Note_off_c, 0, 50, 0
1, 370769, Note_off_c, 0, 66, 0
1, 370782, Note_on_c, 0, 69, 61
1, 370843, Note_off_c, 0, 69, 0
1, 370875, Note_on_c, 0, 62, 75
1, 370922, Note_off_c, 0, 62, 0
1, 370991, Note_on_c, 0, 66, 72
1, 371033, Note_off_c, 0, 66, 0
1, 371107, Note_on_c, 0, 57, 61
1, 371107, Note_on_c, 0, 66, 72
1, 371145, Note_off_c, 0, 57, 0
1, 371151, Note_off_c, 0, 66, 0
1, 371197, Note_on_c, 0, 62, 59
1, 371247, Note_off_c, 0, 62, 0
1, 371298, Note_on_c, 0, 54, 61
1, 371314, Note_on_c, 0, 69, 62
1, 371340, Note_off_c, 0, 69, 0
1, 371346, Note_off_c, 0, 54, 0
1, 371419, Note_on_c, 0, 57, 57
1, 371465, Note_off_c, 0, 57, 0
1, 371549, Note_on_c, 0, 74, 65
1, 371560, Note_on_c, 0, 50, 54
1, 371682, Note_off_c, 0, 50, 0
1, 371687, Note_off_c, 0, 74, 0
1, 372037, Note_on_c, 0, 78, 80
1, 372073, Note_off_c, 0, 78, 0
1, 372147, Note_on_c, 0, 74, 65
1, 372182, Note_off_c, 0, 74, 0
1, 372250, Note_on_c, 0, 72, 63
1, 372297, Note_off_c, 0, 72, 0
1, 372346, Note_on_c, 0, 71, 60
1, 372383, Note_off_c, 0, 71, 0
1, 372458, Note_on_c, 0, 69, 65
1, 372461, Note_on_c, 0, 62, 80
1, 372491, Note_off_c, 0, 62, 0
1, 372519, Note_off_c, 0, 69, 0
1, 372568, Note_on_c, 0, 67, 59
1, 372628, Note_off_c, 0, 67, 0
1, 372653, Note_on_c, 0, 66, 61
1, 372742, Note_off_c, 0, 66, 0
1, 372788, Note_on_c, 0, 64, 61
1, 372946, Note_on_c, 0, 62, 73
1, 372949, Note_on_c, 0, 79, 69
1, 372951, Note_off_c, 0, 64, 0
1, 372980, Note_off_c, 0, 62, 0
1, 372995, Note_off_c, 0, 79, 0
1, 373011, Note_on_c, 0, 78, 73
1, 373062, Note_on_c, 0, 72, 68
1, 373093, Note_off_c, 0, 78, 0
1, 373102, Note_on_c, 0, 79, 72
1, 373108, Note_off_c, 0, 72, 0
1, 373148, Note_on_c, 0, 78, 60
1, 373151, Note_off_c, 0, 79, 0
1, 373175, Note_on_c, 0, 71, 62
1, 373197, Note_off_c, 0, 78, 0
1, 373216, Note_on_c, 0, 76, 60
1, 373238, Note_off_c, 0, 71, 0
1, 373273, Note_off_c, 0, 76, 0
1, 373278, Note_on_c, 0, 69, 64
1, 373279, Note_on_c, 0, 78, 74
1, 373319, Note_off_c, 0, 69, 0
1, 373335, Note_off_c, 0, 78, 0
1, 373380, Note_on_c, 0, 79, 86
1, 373388, Note_on_c, 0, 71, 72
1, 373433, Note_off_c, 0, 71, 0
1, 373492, Note_on_c, 0, 67, 67
1, 373549, Note_off_c, 0, 67, 0
1, 373587, Note_off_c, 0, 79, 0
1, 373603, Note_on_c, 0, 66, 48
1, 373607, Note_on_c, 0, 74, 71
1, 373637, Note_off_c, 0, 74, 0
1, 373656, Note_off_c, 0, 66, 0
1, 373692, Note_on_c, 0, 64, 68
1, 373699, Note_on_c, 0, 79, 82
1, 373730, Note_off_c, 0, 64, 0
1, 373752, Note_off_c, 0, 79, 0
1, 373817, Note_on_c, 0, 62, 70
1, 373818, Note_on_c, 0, 81, 88
1, 373853, Note_off_c, 0, 62, 0
1, 373915, Note_on_c, 0, 60, 69
1, 373988, Note_off_c, 0, 60, 0
1, 374002, Note_off_c, 0, 81, 0
1, 374034, Note_on_c, 0, 59, 53
1, 374037, Note_on_c, 0, 74, 71
1, 374075, Note_off_c, 0, 74, 0
1, 374091, Note_off_c, 0, 59, 0
1, 374122, Note_on_c, 0, 57, 68
1, 374128, Note_on_c, 0, 81, 81
1, 374183, Note_off_c, 0, 81, 0
1, 374214, Note_off_c, 0, 57, 0
1, 374249, Note_on_c, 0, 55, 76
1, 374252, Note_on_c, 0, 83, 90
1, 374276, Note_off_c, 0, 55, 0
1, 374337, Note_on_c, 0, 67, 60
1, 374399, Note_off_c, 0, 67, 0
1, 374450, Note_on_c, 0, 69, 71
1, 374460, Note_off_c, 0, 83, 0
1, 374468, Note_on_c, 0, 79, 73
1, 374511, Note_off_c, 0, 69, 0
1, 374514, Note_off_c, 0, 79, 0
1, 374566, Note_on_c, 0, 71, 69
1, 374618, Note_off_c, 0, 71, 0
1, 374677, Note_on_c, 0, 72, 71
1, 374687, Note_on_c, 0, 76, 92
1, 374735, Note_off_c, 0, 76, 0
1, 374744, Note_off_c, 0, 72, 0
1, 374795, Note_on_c, 0, 74, 72
1, 374851, Note_off_c, 0, 74, 0
1, 374907, Note_on_c, 0, 72, 95
1, 374914, Note_on_c, 0, 76, 69
1, 374946, Note_off_c, 0, 72, 0
1, 374990, Note_off_c, 0, 76, 0
1, 375020, Note_on_c, 0, 74, 72
1, 375077, Note_off_c, 0, 74, 0
1, 375139, Note_on_c, 0, 69, 91
1, 375144, Note_on_c, 0, 72, 76
1, 375169, Note_off_c, 0, 69, 0
1, 375187, Note_off_c, 0, 72, 0
1, 375249, Note_on_c, 0, 71, 73
1, 375322, Note_off_c, 0, 71, 0
1, 375328, Note_on_c, 0, 69, 61
1, 375364, Note_on_c, 0, 79, 90
1, 375420, Note_off_c, 0, 69, 0
1, 375421, Note_off_c, 0, 79, 0
1, 375435, Note_on_c, 0, 67, 69
1, 375550, Note_off_c, 0, 67, 0
1, 375564, Note_on_c, 0, 69, 63
1, 375568, Note_on_c, 0, 78, 83
1, 375635, Note_off_c, 0, 78, 0
1, 375639, Note_off_c, 0, 69, 0
1, 375649, Note_on_c, 0, 76, 57
1, 375654, Note_on_c, 0, 77, 59
1, 375671, Note_on_c, 0, 71, 63
1, 375710, Note_on_c, 0, 75, 79
1, 375715, Note_off_c, 0, 77, 0
1, 375715, Note_off_c, 0, 76, 0
1, 375763, Note_off_c, 0, 71, 0
1, 375764, Note_off_c, 0, 75, 0
1, 375797, Note_on_c, 0, 72, 70
1, 375811, Note_on_c, 0, 76, 83
1, 375855, Note_off_c, 0, 72, 0
1, 375919, Note_on_c, 0, 69, 71
1, 375984, Note_off_c, 0, 69, 0
1, 376037, Note_on_c, 0, 71, 69
1, 376082, Note_off_c, 0, 71, 0
1, 376148, Note_on_c, 0, 69, 68
1, 376156, Note_off_c, 0, 76, 0
1, 376193, Note_off_c, 0, 69, 0
1, 376239, Note_on_c, 0, 75, 70
1, 376251, Note_on_c, 0, 71, 64
1, 376288, Note_off_c, 0, 75, 0
1, 376289, Note_on_c, 0, 76, 71
1, 376299, Note_off_c, 0, 71, 0
1, 376348, Note_on_c, 0, 75, 76
1, 376354, Note_on_c, 0, 66, 67
1, 376355, Note_off_c, 0, 76, 0
1, 376384, Note_off_c, 0, 75, 0
1, 376398, Note_off_c, 0, 66, 0
1, 376458, Note_on_c, 0, 59, 70
1, 376544, Note_off_c, 0, 59, 0
1, 376556, Note_on_c, 0, 61, 67
1, 376660, Note_off_c, 0, 61, 0
1, 376676, Note_on_c, 0, 63, 75
1, 376679, Note_on_c, 0, 57, 87
1, 376718, Note_off_c, 0, 57, 0
1, 376750, Note_off_c, 0, 63, 0
1, 376797, Note_on_c, 0, 64, 66
1, 376854, Note_off_c, 0, 64, 0
1, 376897, Note_on_c, 0, 55, 87
1, 376904, Note_on_c, 0, 66, 70
1, 376935, Note_on_c, 0, 57, 73
1, 376942, Note_off_c, 0, 55, 0
1, 376976, Note_off_c, 0, 66, 0
1, 377009, Note_on_c, 0, 67, 57
1, 377030, Note_on_c, 0, 55, 81
1, 377051, Note_off_c, 0, 57, 0
1, 377070, Note_off_c, 0, 67, 0
1, 377110, Note_on_c, 0, 69, 69
1, 377164, Note_off_c, 0, 55, 0
1, 377174, Note_on_c, 0, 54, 67
1, 377183, Note_off_c, 0, 69, 0
1, 377228, Note_on_c, 0, 66, 63
1, 377243, Note_off_c, 0, 54, 0
1, 377292, Note_off_c, 0, 66, 0
1, 377368, Note_on_c, 0, 67, 70
1, 377373, Note_on_c, 0, 52, 82
1, 377401, Note_off_c, 0, 52, 0
1, 377417, Note_off_c, 0, 67, 0
1, 377484, Note_on_c, 0, 71, 64
1, 377526, Note_off_c, 0, 71, 0
1, 377589, Note_on_c, 0, 67, 56
1, 377659, Note_off_c, 0, 67, 0
1, 377699, Note_on_c, 0, 64, 63
1, 377744, Note_off_c, 0, 64, 0
1, 377815, Note_on_c, 0, 67, 62
1, 377823, Note_on_c, 0, 76, 82
1, 377861, Note_off_c, 0, 67, 0
1, 377863, Note_off_c, 0, 76, 0
1, 377919, Note_on_c, 0, 71, 52
1, 377949, Note_off_c, 0, 71, 0
1, 378010, Note_on_c, 0, 67, 42
1, 378099, Note_off_c, 0, 67, 0
1, 378118, Note_on_c, 0, 64, 62
1, 378173, Note_off_c, 0, 64, 0
1, 378241, Note_on_c, 0, 67, 49
1, 378261, Note_on_c, 0, 52, 76
1, 378288, Note_off_c, 0, 67, 0
1, 378307, Note_on_c, 0, 71, 64
1, 378323, Note_off_c, 0, 52, 0
1, 378334, Note_on_c, 0, 50, 67
1, 378350, Note_off_c, 0, 71, 0
1, 378402, Note_on_c, 0, 52, 57
1, 378403, Note_off_c, 0, 50, 0
1, 378404, Note_on_c, 0, 67, 43
1, 378465, Note_on_c, 0, 50, 60
1, 378489, Note_off_c, 0, 52, 0
1, 378494, Note_off_c, 0, 67, 0
1, 378510, Note_on_c, 0, 64, 62
1, 378511, Note_on_c, 0, 48, 66
1, 378522, Note_off_c, 0, 50, 0
1, 378583, Note_off_c, 0, 48, 0
1, 378595, Note_off_c, 0, 64, 0
1, 378621, Note_on_c, 0, 50, 56
1, 378662, Note_off_c, 0, 50, 0
1, 378683, Note_on_c, 0, 47, 73
1, 378687, Note_on_c, 0, 69, 66
1, 378687, Note_on_c, 0, 48, 78
1, 378717, Note_off_c, 0, 47, 0
1, 378718, Note_off_c, 0, 48, 0
1, 378742, Note_off_c, 0, 69, 0
1, 378807, Note_on_c, 0, 72, 68
1, 378852, Note_off_c, 0, 72, 0
1, 378914, Note_on_c, 0, 69, 55
1, 378996, Note_off_c, 0, 69, 0
1, 379009, Note_on_c, 0, 64, 58
1, 379066, Note_off_c, 0, 64, 0
1, 379123, Note_on_c, 0, 67, 64
1, 379144, Note_on_c, 0, 76, 80
1, 379168, Note_off_c, 0, 76, 0
1, 379187, Note_off_c, 0, 67, 0
1, 379232, Note_on_c, 0, 72, 63
1, 379276, Note_off_c, 0, 72, 0
1, 379303, Note_on_c, 0, 67, 38
1, 379380, Note_off_c, 0, 67, 0
1, 379426, Note_on_c, 0, 64, 61
1, 379511, Note_off_c, 0, 64, 0
1, 379554, Note_on_c, 0, 66, 63
1, 379563, Note_on_c, 0, 47, 80
1, 379610, Note_off_c, 0, 66, 0
1, 379621, Note_off_c, 0, 47, 0
1, 379638, Note_on_c, 0, 45, 64
1, 379648, Note_on_c, 0, 72, 65
1, 379688, Note_on_c, 0, 47, 63
1, 379692, Note_off_c, 0, 72, 0
1, 379694, Note_off_c, 0, 45, 0
1, 379725, Note_on_c, 0, 66, 50
1, 379759, Note_on_c, 0, 45, 56
1, 379760, Note_off_c, 0, 47, 0
1, 379805, Note_off_c, 0, 45, 0
1, 379814, Note_on_c, 0, 43, 69
1, 379819, Note_off_c, 0, 66, 0
1, 379834, Note_on_c, 0, 64, 61
1, 379860, Note_off_c, 0, 43, 0
1, 379896, Note_on_c, 0, 45, 76
1, 379939, Note_off_c, 0, 45, 0
1, 379947, Note_off_c, 0, 64, 0
1, 379985, Note_on_c, 0, 47, 82
1, 379996, Note_on_c, 0, 67, 59
1, 380020, Note_off_c, 0, 47, 0
1, 380039, Note_off_c, 0, 67, 0
1, 380084, Note_on_c, 0, 71, 65
1, 380136, Note_off_c, 0, 71, 0
1, 380198, Note_on_c, 0, 67, 56
1, 380264, Note_off_c, 0, 67, 0
1, 380294, Note_on_c, 0, 64, 61
1, 380367, Note_off_c, 0, 64, 0
1, 380421, Note_on_c, 0, 79, 75
1, 380440, Note_on_c, 0, 59, 64
1, 380465, Note_off_c, 0, 59, 0
1, 380544, Note_on_c, 0, 71, 59
1, 380601, Note_off_c, 0, 71, 0
1, 380642, Note_on_c, 0, 78, 80
1, 380659, Note_on_c, 0, 69, 64
1, 380672, Note_off_c, 0, 79, 0
1, 380723, Note_off_c, 0, 69, 0
1, 380762, Note_on_c, 0, 71, 61
1, 380842, Note_off_c, 0, 71, 0
1, 380861, Note_on_c, 0, 76, 83
1, 380868, Note_off_c, 0, 78, 0
1, 380883, Note_on_c, 0, 67, 62
1, 380937, Note_off_c, 0, 67, 0
1, 380987, Note_on_c, 0, 71, 59
1, 381040, Note_off_c, 0, 71, 0
1, 381084, Note_off_c, 0, 76, 0
1, 381084, Note_on_c, 0, 66, 57
1, 381091, Note_on_c, 0, 75, 81
1, 381149, Note_off_c, 0, 66, 0
1, 381194, Note_on_c, 0, 71, 61
1, 381248, Note_off_c, 0, 71, 0
1, 381323, Note_off_c, 0, 75, 0
1, 381327, Note_on_c, 0, 76, 73
1, 381344, Note_on_c, 0, 67, 55
1, 381383, Note_off_c, 0, 76, 0
1, 381398, Note_off_c, 0, 67, 0
1, 381437, Note_on_c, 0, 64, 64
1, 381478, Note_off_c, 0, 64, 0
1, 381557, Note_on_c, 0, 67, 46
1, 381595, Note_off_c, 0, 67, 0
1, 381643, Note_on_c, 0, 71, 69
1, 381705, Note_off_c, 0, 71, 0
1, 381758, Note_on_c, 0, 76, 69
1, 381782, Note_on_c, 0, 52, 71
1, 381808, Note_off_c, 0, 76, 0
1, 381863, Note_on_c, 0, 71, 58
1, 381942, Note_off_c, 0, 71, 0
1, 381960, Note_on_c, 0, 67, 62
1, 382036, Note_off_c, 0, 67, 0
1, 382086, Note_on_c, 0, 71, 60
1, 382167, Note_off_c, 0, 71, 0
1, 382197, Note_on_c, 0, 64, 73
1, 382237, Note_off_c, 0, 64, 0
1, 382287, Note_off_c, 0, 52, 0
1, 382318, Note_on_c, 0, 50, 60
1, 382389, Note_off_c, 0, 50, 0
1, 382435, Note_on_c, 0, 48, 50
1, 382499, Note_off_c, 0, 48, 0
1, 382538, Note_on_c, 0, 47, 46
1, 382591, Note_off_c, 0, 47, 0
1, 382648, Note_on_c, 0, 48, 65
1, 382648, Note_on_c, 0, 64, 80
1, 382688, Note_off_c, 0, 64, 0
1, 382700, Note_off_c, 0, 48, 0
1, 382766, Note_on_c, 0, 52, 57
1, 382819, Note_off_c, 0, 52, 0
1, 382864, Note_on_c, 0, 50, 57
1, 382934, Note_off_c, 0, 50, 0
1, 382968, Note_on_c, 0, 52, 52
1, 383023, Note_off_c, 0, 52, 0
1, 383088, Note_on_c, 0, 48, 69
1, 383100, Note_on_c, 0, 57, 58
1, 383123, Note_off_c, 0, 48, 0
1, 383164, Note_off_c, 0, 57, 0
1, 383213, Note_on_c, 0, 52, 54
1, 383278, Note_off_c, 0, 52, 0
1, 383321, Note_on_c, 0, 50, 53
1, 383367, Note_off_c, 0, 50, 0
1, 383443, Note_on_c, 0, 52, 26
1, 383488, Note_off_c, 0, 52, 0
1, 383543, Note_on_c, 0, 64, 76
1, 383550, Note_on_c, 0, 60, 65
1, 383653, Note_off_c, 0, 60, 0
1, 383675, Note_on_c, 0, 57, 58
1, 383734, Note_off_c, 0, 57, 0
1, 383775, Note_on_c, 0, 55, 56
1, 383826, Note_off_c, 0, 55, 0
1, 383881, Note_on_c, 0, 57, 60
1, 383921, Note_off_c, 0, 57, 0
1, 383986, Note_off_c, 0, 64, 0
1, 383990, Note_on_c, 0, 62, 78
1, 384001, Note_on_c, 0, 66, 65
1, 384035, Note_off_c, 0, 66, 0
1, 384067, Note_off_c, 0, 62, 0
1, 384102, Note_on_c, 0, 57, 67
1, 384190, Note_off_c, 0, 57, 0
1, 384221, Note_on_c, 0, 55, 54
1, 384269, Note_off_c, 0, 55, 0
1, 384322, Note_on_c, 0, 57, 55
1, 384353, Note_off_c, 0, 57, 0
1, 384438, Note_on_c, 0, 67, 71
1, 384442, Note_on_c, 0, 47, 63
1, 384476, Note_off_c, 0, 47, 0
1, 384507, Note_off_c, 0, 67, 0
1, 384535, Note_on_c, 0, 62, 59
1, 384607, Note_off_c, 0, 62, 0
1, 384635, Note_on_c, 0, 60, 64
1, 384688, Note_off_c, 0, 60, 0
1, 384746, Note_on_c, 0, 62, 65
1, 384784, Note_off_c, 0, 62, 0
1, 384858, Note_on_c, 0, 62, 84
1, 384873, Note_on_c, 0, 71, 76
1, 384897, Control_c, 0, 67, 85
1, 384969, Note_off_c, 0, 71, 0
1, 384975, Note_on_c, 0, 67, 67
1, 385069, Note_off_c, 0, 67, 0
1, 385089, Note_on_c, 0, 66, 64
1, 385146, Note_off_c, 0, 66, 0
1, 385215, Note_on_c, 0, 67, 34
1, 385224, Note_on_c, 0, 69, 38
1, 385252, Note_off_c, 0, 67, 0
1, 385262, Note_off_c, 0, 62, 0
1, 385263, Note_off_c, 0, 69, 0
1, 385293, Note_on_c, 0, 60, 86
1, 385309, Note_on_c, 0, 76, 75
1, 385346, Note_off_c, 0, 60, 0
1, 385392, Note_off_c, 0, 76, 0
1, 385447, Poly_aftertouch_c, 0, 74, 127
1, 385500, Poly_aftertouch_c, 0, 74, 0
1, 385511, Note_on_c, 0, 59, 80
1, 385516, Note_on_c, 0, 72, 76
1, 385547, Note_off_c, 0, 59, 0
1, 385573, Note_off_c, 0, 72, 0
1, 385628, Note_on_c, 0, 74, 74
1, 385703, Note_off_c, 0, 74, 0
1, 385724, Note_on_c, 0, 57, 80
1, 385731, Note_on_c, 0, 78, 84
1, 385762, Note_off_c, 0, 57, 0
1, 385841, Note_on_c, 0, 74, 78
1, 385847, Note_off_c, 0, 78, 0
1, 385852, Control_c, 0, 67, 80
1, 385924, Note_off_c, 0, 74, 0
1, 385926, Control_c, 0, 67, 76
1, 385940, Note_on_c, 0, 72, 77
1, 385941, Note_on_c, 0, 55, 79
1, 385988, Note_off_c, 0, 55, 0
1, 386029, Control_c, 0, 67, 72
1, 386048, Note_off_c, 0, 72, 0
1, 386053, Note_on_c, 0, 74, 80
1, 386129, Note_off_c, 0, 74, 0
1, 386161, Note_on_c, 0, 54, 77
1, 386162, Note_on_c, 0, 79, 84
1, 386203, Note_off_c, 0, 54, 0
1, 386265, Note_on_c, 0, 74, 82
1, 386270, Note_off_c, 0, 79, 0
1, 386360, Note_off_c, 0, 74, 0
1, 386377, Note_on_c, 0, 52, 68
1, 386378, Note_on_c, 0, 72, 73
1, 386410, Note_off_c, 0, 52, 0
1, 386459, Note_off_c, 0, 72, 0
1, 386470, Note_on_c, 0, 74, 78
1, 386552, Note_off_c, 0, 74, 0
1, 386587, Note_on_c, 0, 81, 85
1, 386594, Note_on_c, 0, 54, 77
1, 386692, Note_off_c, 0, 54, 0
1, 386697, Note_on_c, 0, 74, 78
1, 386711, Note_off_c, 0, 81, 0
1, 386781, Note_on_c, 0, 55, 70
1, 386793, Note_off_c, 0, 74, 0
1, 386802, Note_on_c, 0, 72, 77
1, 386807, Control_c, 0, 67, 68
1, 386856, Note_off_c, 0, 55, 0
1, 386882, Note_off_c, 0, 72, 0
1, 386913, Note_on_c, 0, 71, 81
1, 386918, Note_on_c, 0, 57, 70
1, 386964, Control_c, 0, 67, 60
1, 386971, Note_off_c, 0, 71, 0
1, 386975, Note_off_c, 0, 57, 0
1, 386983, Control_c, 0, 67, 54
1, 387003, Control_c, 0, 67, 48
1, 387021, Control_c, 0, 67, 41
1, 387026, Note_on_c, 0, 72, 84
1, 387032, Note_on_c, 0, 50, 88
1, 387040, Control_c, 0, 67, 34
1, 387058, Control_c, 0, 67, 26
1, 387079, Control_c, 0, 67, 17
1, 387094, Control_c, 0, 67, 8
1, 387113, Control_c, 0, 67, 0
1, 387128, Note_off_c, 0, 72, 0
1, 387132, Note_on_c, 0, 71, 79
1, 387209, Note_off_c, 0, 71, 0
1, 387248, Note_on_c, 0, 69, 72
1, 387306, Note_off_c, 0, 69, 0
1, 387345, Note_on_c, 0, 67, 79
1, 387376, Note_off_c, 0, 50, 0
1, 387416, Note_off_c, 0, 67, 0
1, 387454, Note_on_c, 0, 66, 82
1, 387484, Note_off_c, 0, 66, 0
1, 387558, Note_on_c, 0, 60, 76
1, 387563, Note_on_c, 0, 81, 91
1, 387606, Note_off_c, 0, 60, 0
1, 387678, Note_on_c, 0, 79, 79
1, 387681, Note_on_c, 0, 59, 73
1, 387685, Note_off_c, 0, 81, 0
1, 387761, Note_off_c, 0, 59, 0
1, 387778, Note_on_c, 0, 78, 83
1, 387786, Note_on_c, 0, 57, 66
1, 387800, Note_off_c, 0, 79, 0
1, 387841, Note_off_c, 0, 57, 0
1, 387901, Note_on_c, 0, 79, 93
1, 387902, Note_on_c, 0, 59, 62
1, 387915, Note_off_c, 0, 78, 0
1, 387958, Note_off_c, 0, 59, 0
1, 388017, Note_on_c, 0, 55, 68
1, 388093, Note_off_c, 0, 55, 0
1, 388116, Note_on_c, 0, 71, 79
1, 388123, Note_on_c, 0, 54, 66
1, 388136, Note_off_c, 0, 79, 0
1, 388179, Note_off_c, 0, 54, 0
1, 388191, Note_off_c, 0, 71, 0
1, 388234, Note_on_c, 0, 55, 69
1, 388254, Control_c, 0, 67, 8
1, 388303, Note_off_c, 0, 55, 0
1, 388327, Control_c, 0, 67, 14
1, 388329, Note_on_c, 0, 57, 75
1, 388347, Control_c, 0, 67, 18
1, 388365, Control_c, 0, 67, 22
1, 388379, Note_off_c, 0, 57, 0
1, 388402, Control_c, 0, 67, 28
1, 388440, Control_c, 0, 67, 33
1, 388446, Note_on_c, 0, 55, 72
1, 388459, Control_c, 0, 64, 15
1, 388484, Note_off_c, 0, 55, 0
1, 388543, Note_on_c, 0, 53, 72
1, 388552, Note_on_c, 0, 59, 75
1, 388572, Note_off_c, 0, 53, 0
1, 388612, Note_off_c, 0, 59, 0
1, 388640, Note_on_c, 0, 55, 77
1, 388686, Note_off_c, 0, 55, 0
1, 388748, Note_on_c, 0, 52, 79
1, 388758, Note_on_c, 0, 60, 81
1, 388796, Note_off_c, 0, 52, 0
1, 388840, Note_off_c, 0, 60, 0
1, 388869, Note_on_c, 0, 55, 73
1, 388931, Note_off_c, 0, 55, 0
1, 388977, Note_on_c, 0, 62, 81
1, 388988, Note_on_c, 0, 50, 68
1, 389024, Note_off_c, 0, 50, 0
1, 389051, Note_off_c, 0, 62, 0
1, 389075, Note_on_c, 0, 55, 77
1, 389078, Control_c, 0, 67, 29
1, 389132, Note_off_c, 0, 55, 0
1, 389189, Note_on_c, 0, 48, 85
1, 389193, Note_on_c, 0, 64, 82
1, 389294, Note_off_c, 0, 64, 0
1, 389295, Note_on_c, 0, 60, 74
1, 389388, Note_off_c, 0, 60, 0
1, 389414, Note_on_c, 0, 59, 69
1, 389416, Note_off_c, 0, 48, 0
1, 389429, Note_on_c, 0, 55, 77
1, 389463, Note_off_c, 0, 55, 0
1, 389474, Note_off_c, 0, 59, 0
1, 389519, Note_on_c, 0, 60, 73
1, 389553, Note_off_c, 0, 60, 0
1, 389638, Note_on_c, 0, 62, 71
1, 389712, Note_off_c, 0, 62, 0
1, 389744, Note_on_c, 0, 60, 74
1, 389795, Note_off_c, 0, 60, 0
1, 389854, Note_on_c, 0, 59, 80
1, 389866, Note_on_c, 0, 64, 81
1, 389882, Note_off_c, 0, 59, 0
1, 389928, Note_off_c, 0, 64, 0
1, 389958, Note_on_c, 0, 60, 73
1, 390014, Note_off_c, 0, 60, 0
1, 390070, Note_on_c, 0, 66, 79
1, 390081, Note_on_c, 0, 57, 77
1, 390113, Note_off_c, 0, 57, 0
1, 390152, Note_off_c, 0, 66, 0
1, 390176, Note_on_c, 0, 60, 70
1, 390241, Note_off_c, 0, 60, 0
1, 390282, Note_on_c, 0, 55, 67
1, 390283, Note_on_c, 0, 67, 79
1, 390318, Note_off_c, 0, 55, 0
1, 390351, Note_off_c, 0, 67, 0
1, 390381, Note_on_c, 0, 60, 75
1, 390439, Note_off_c, 0, 60, 0
1, 390497, Note_on_c, 0, 54, 69
1, 390498, Note_on_c, 0, 69, 83
1, 390535, Note_off_c, 0, 54, 0
1, 390574, Note_off_c, 0, 69, 0
1, 390599, Note_on_c, 0, 62, 75
1, 390614, Note_on_c, 0, 60, 68
1, 390665, Note_off_c, 0, 60, 0
1, 390688, Note_off_c, 0, 62, 0
1, 390713, Note_on_c, 0, 64, 76
1, 390728, Note_on_c, 0, 59, 63
1, 390811, Note_off_c, 0, 59, 0
1, 390815, Note_on_c, 0, 66, 76
1, 390820, Note_off_c, 0, 64, 0
1, 390826, Note_on_c, 0, 57, 67
1, 390881, Note_off_c, 0, 66, 0
1, 390883, Note_off_c, 0, 57, 0
1, 390925, Note_on_c, 0, 67, 81
1, 390944, Note_on_c, 0, 59, 72
1, 390960, Note_off_c, 0, 67, 0
1, 390985, Note_off_c, 0, 59, 0
1, 391034, Note_on_c, 0, 62, 70
1, 391084, Note_off_c, 0, 62, 0
1, 391140, Note_on_c, 0, 59, 61
1, 391155, Note_on_c, 0, 74, 77
1, 391182, Note_off_c, 0, 74, 0
1, 391226, Note_off_c, 0, 59, 0
1, 391248, Note_on_c, 0, 55, 73
1, 391314, Note_off_c, 0, 55, 0
1, 391379, Note_on_c, 0, 50, 83
1, 391393, Note_on_c, 0, 57, 65
1, 391408, Note_off_c, 0, 50, 0
1, 391443, Note_off_c, 0, 57, 0
1, 391494, Note_on_c, 0, 60, 70
1, 391528, Note_off_c, 0, 60, 0
1, 391622, Note_on_c, 0, 72, 82
1, 391633, Note_on_c, 0, 67, 63
1, 391662, Note_off_c, 0, 72, 0
1, 391685, Control_c, 0, 67, 33
1, 391692, Note_off_c, 0, 67, 0
1, 391744, Note_on_c, 0, 66, 64
1, 391796, Control_c, 0, 67, 37
1, 391800, Note_off_c, 0, 66, 0
1, 391851, Control_c, 0, 67, 41
1, 391857, Note_on_c, 0, 71, 73
1, 391863, Note_on_c, 0, 67, 67
1, 391899, Note_off_c, 0, 67, 0
1, 391907, Control_c, 0, 67, 45
1, 391913, Note_off_c, 0, 71, 0
1, 391966, Note_on_c, 0, 67, 74
1, 392006, Note_off_c, 0, 67, 0
1, 392068, Note_on_c, 0, 62, 68
1, 392096, Note_on_c, 0, 55, 64
1, 392113, Note_off_c, 0, 62, 0
1, 392132, Note_off_c, 0, 55, 0
1, 392185, Control_c, 0, 67, 41
1, 392189, Note_on_c, 0, 67, 64
1, 392257, Note_off_c, 0, 67, 0
1, 392322, Note_on_c, 0, 71, 63
1, 392330, Note_on_c, 0, 50, 58
1, 392362, Note_off_c, 0, 50, 0
1, 392366, Note_off_c, 0, 71, 0
1, 392429, Note_on_c, 0, 67, 63
1, 392483, Control_c, 0, 67, 45
1, 392520, Note_off_c, 0, 67, 0
1, 392576, Note_on_c, 0, 74, 59
1, 392583, Note_on_c, 0, 47, 47
1, 392614, Note_off_c, 0, 47, 0
1, 392643, Note_off_c, 0, 74, 0
1, 392696, Note_on_c, 0, 71, 51
1, 392734, Control_c, 0, 67, 51
1, 392771, Control_c, 0, 67, 55
1, 392798, Note_off_c, 0, 71, 0
1, 392847, Control_c, 0, 67, 59
1, 392925, Note_on_c, 0, 79, 56
1, 392942, Note_on_c, 0, 43, 39
1, 392957, Control_c, 0, 67, 63
1, 393069, Control_c, 0, 67, 67
1, 393366, Note_off_c, 0, 79, 0
1, 393419, Note_off_c, 0, 43, 0
1, 393468, Control_c, 0, 67, 71
1, 393505, Control_c, 0, 67, 75
1, 393577, Control_c, 0, 67, 80
1, 393653, Control_c, 0, 67, 84
1, 394305, Note_on_c, 0, 79, 59
1, 394327, Note_on_c, 0, 43, 35
1, 394456, Note_off_c, 0, 43, 0
1, 394510, Note_on_c, 0, 42, 36
1, 394660, Note_off_c, 0, 42, 0
1, 394688, Note_on_c, 0, 43, 40
1, 394829, Note_off_c, 0, 43, 0
1, 394870, Note_on_c, 0, 45, 44
1, 394992, Note_off_c, 0, 45, 0
1, 395041, Note_on_c, 0, 47, 45
1, 395180, Note_off_c, 0, 47, 0
1, 395210, Note_on_c, 0, 43, 53
1, 395378, Note_off_c, 0, 43, 0
1, 395402, Note_on_c, 0, 81, 62
1, 395424, Note_on_c, 0, 50, 46
1, 395533, Note_off_c, 0, 50, 0
1, 395573, Note_on_c, 0, 48, 48
1, 395758, Note_off_c, 0, 48, 0
1, 395758, Note_on_c, 0, 78, 66
1, 395776, Note_on_c, 0, 50, 52
1, 395801, Note_off_c, 0, 79, 0
1, 395869, Note_off_c, 0, 50, 0
1, 395936, Note_on_c, 0, 76, 72
1, 395952, Note_on_c, 0, 52, 46
1, 395964, Note_off_c, 0, 78, 0
1, 396103, Note_off_c, 0, 52, 0
1, 396110, Note_on_c, 0, 74, 75
1, 396111, Note_off_c, 0, 76, 0
1, 396130, Note_on_c, 0, 54, 50
1, 396265, Note_off_c, 0, 54, 0
1, 396286, Note_on_c, 0, 72, 79
1, 396301, Note_on_c, 0, 50, 48
1, 396315, Note_off_c, 0, 74, 0
1, 396477, Note_off_c, 0, 72, 0
1, 396479, Note_on_c, 0, 71, 71
1, 396492, Note_off_c, 0, 50, 0
1, 396508, Note_on_c, 0, 55, 42
1, 396619, Note_off_c, 0, 55, 0
1, 396632, Control_c, 0, 64, 22
1, 396652, Control_c, 0, 64, 29
1, 396656, Note_on_c, 0, 54, 51
1, 396670, Control_c, 0, 64, 38
1, 396689, Control_c, 0, 64, 47
1, 396707, Control_c, 0, 64, 53
1, 396726, Control_c, 0, 64, 57
1, 396745, Control_c, 0, 64, 59
1, 396762, Control_c, 0, 64, 60
1, 396790, Note_off_c, 0, 54, 0
1, 396799, Note_off_c, 0, 81, 0
1, 396799, Control_c, 0, 64, 61
1, 396829, Note_on_c, 0, 79, 54
1, 396836, Control_c, 0, 64, 60
1, 396845, Note_on_c, 0, 52, 49
1, 396856, Control_c, 0, 64, 54
1, 396875, Control_c, 0, 64, 44
1, 396893, Control_c, 0, 64, 30
1, 396912, Control_c, 0, 64, 15
1, 396930, Control_c, 0, 64, 10
1, 396987, Note_off_c, 0, 79, 0
1, 396989, Note_off_c, 0, 52, 0
1, 396994, Note_on_c, 0, 78, 64
1, 397020, Note_on_c, 0, 54, 48
1, 397123, Note_off_c, 0, 78, 0
1, 397163, Note_off_c, 0, 54, 0
1, 397170, Note_on_c, 0, 76, 67
1, 397206, Note_on_c, 0, 55, 44
1, 397334, Note_off_c, 0, 76, 0
1, 397353, Note_on_c, 0, 74, 63
1, 397372, Note_on_c, 0, 52, 42
1, 397479, Note_off_c, 0, 55, 0
1, 397491, Note_off_c, 0, 52, 0
1, 397530, Note_off_c, 0, 74, 0
1, 397541, Note_on_c, 0, 72, 66
1, 397559, Note_on_c, 0, 57, 49
1, 397587, Control_c, 0, 64, 16
1, 397607, Control_c, 0, 64, 21
1, 397625, Control_c, 0, 64, 29
1, 397643, Control_c, 0, 64, 40
1, 397662, Control_c, 0, 64, 50
1, 397665, Note_off_c, 0, 57, 0
1, 397681, Control_c, 0, 64, 55
1, 397718, Note_on_c, 0, 55, 49
1, 397718, Control_c, 0, 64, 57
1, 397754, Control_c, 0, 64, 59
1, 397774, Control_c, 0, 64, 60
1, 397847, Control_c, 0, 64, 56
1, 397861, Note_off_c, 0, 71, 0
1, 397866, Control_c, 0, 64, 51
1, 397879, Note_off_c, 0, 55, 0
1, 397884, Control_c, 0, 64, 43
1, 397891, Note_on_c, 0, 69, 67
1, 397903, Control_c, 0, 64, 35
1, 397914, Note_on_c, 0, 54, 54
1, 397922, Control_c, 0, 64, 27
1, 397940, Control_c, 0, 64, 21
1, 397995, Control_c, 0, 64, 17
1, 398031, Note_off_c, 0, 69, 0
1, 398034, Note_off_c, 0, 54, 0
1, 398054, Note_on_c, 0, 67, 67
1, 398064, Note_on_c, 0, 55, 49
1, 398239, Note_off_c, 0, 55, 0
1, 398248, Note_on_c, 0, 66, 74
1, 398265, Note_on_c, 0, 57, 58
1, 398295, Note_off_c, 0, 67, 0
1, 398427, Note_on_c, 0, 64, 76
1, 398436, Note_off_c, 0, 57, 0
1, 398439, Note_on_c, 0, 54, 53
1, 398474, Note_off_c, 0, 66, 0
1, 398568, Note_off_c, 0, 54, 0
1, 398617, Note_on_c, 0, 62, 75
1, 398631, Note_on_c, 0, 59, 55
1, 398632, Note_off_c, 0, 64, 0
1, 398673, Control_c, 0, 64, 23
1, 398692, Control_c, 0, 64, 31
1, 398711, Control_c, 0, 64, 42
1, 398729, Control_c, 0, 64, 52
1, 398736, Note_off_c, 0, 59, 0
1, 398749, Control_c, 0, 64, 58
1, 398765, Control_c, 0, 64, 61
1, 398784, Control_c, 0, 64, 63
1, 398793, Note_on_c, 0, 57, 58
1, 398802, Control_c, 0, 64, 65
1, 398821, Control_c, 0, 64, 67
1, 398858, Control_c, 0, 64, 70
1, 398913, Note_off_c, 0, 57, 0
1, 398913, Control_c, 0, 64, 63
1, 398934, Control_c, 0, 64, 55
1, 398950, Control_c, 0, 64, 39
1, 398955, Note_off_c, 0, 72, 0
1, 398967, Note_on_c, 0, 71, 66
1, 398968, Control_c, 0, 64, 15
1, 398973, Note_on_c, 0, 55, 53
1, 399072, Control_c, 0, 64, 25
1, 399090, Control_c, 0, 64, 38
1, 399109, Control_c, 0, 64, 52
1, 399128, Control_c, 0, 64, 61
1, 399129, Note_off_c, 0, 55, 0
1, 399136, Note_on_c, 0, 69, 67
1, 399146, Control_c, 0, 64, 65
1, 399150, Note_off_c, 0, 71, 0
1, 399163, Note_on_c, 0, 57, 51
1, 399164, Control_c, 0, 64, 68
1, 399184, Control_c, 0, 64, 71
1, 399201, Control_c, 0, 64, 75
1, 399220, Control_c, 0, 64, 81
1, 399238, Note_off_c, 0, 69, 0
1, 399239, Control_c, 0, 64, 87
1, 399258, Control_c, 0, 64, 93
1, 399320, Note_on_c, 0, 67, 73
1, 399334, Control_c, 0, 64, 83
1, 399342, Note_on_c, 0, 59, 57
1, 399349, Note_off_c, 0, 57, 0
1, 399350, Control_c, 0, 64, 70
1, 399369, Control_c, 0, 64, 55
1, 399388, Control_c, 0, 64, 42
1, 399405, Control_c, 0, 64, 27
1, 399424, Control_c, 0, 64, 12
1, 399452, Note_off_c, 0, 59, 0
1, 399484, Note_on_c, 0, 55, 52
1, 399490, Note_on_c, 0, 66, 60
1, 399493, Note_off_c, 0, 67, 0
1, 399652, Note_off_c, 0, 66, 0
1, 399655, Note_off_c, 0, 55, 0
1, 399672, Note_on_c, 0, 64, 57
1, 399702, Note_on_c, 0, 60, 51
1, 399702, Control_c, 0, 64, 20
1, 399721, Control_c, 0, 64, 27
1, 399741, Control_c, 0, 64, 38
1, 399757, Control_c, 0, 64, 50
1, 399776, Control_c, 0, 64, 59
1, 399795, Control_c, 0, 64, 63
1, 399814, Control_c, 0, 64, 66
1, 399830, Note_off_c, 0, 60, 0
1, 399832, Control_c, 0, 64, 70
1, 399839, Note_off_c, 0, 62, 0
1, 399850, Control_c, 0, 64, 73
1, 399856, Note_on_c, 0, 59, 53
1, 399869, Control_c, 0, 64, 76
1, 399889, Control_c, 0, 64, 80
1, 399906, Control_c, 0, 64, 82
1, 399961, Control_c, 0, 64, 79
1, 399979, Control_c, 0, 64, 74
1, 400008, Control_c, 0, 64, 66
1, 400026, Control_c, 0, 64, 57
1, 400029, Note_on_c, 0, 60, 67
1, 400046, Control_c, 0, 64, 50
1, 400050, Note_off_c, 0, 59, 0
1, 400057, Note_on_c, 0, 57, 58
1, 400065, Control_c, 0, 64, 44
1, 400082, Control_c, 0, 64, 38
1, 400101, Control_c, 0, 64, 33
1, 400139, Control_c, 0, 64, 28
1, 400155, Note_off_c, 0, 57, 0
1, 400191, Note_on_c, 0, 59, 65
1, 400199, Note_off_c, 0, 60, 0
1, 400229, Note_on_c, 0, 55, 53
1, 400374, Note_on_c, 0, 57, 74
1, 400380, Note_off_c, 0, 55, 0
1, 400399, Note_on_c, 0, 54, 54
1, 400410, Note_off_c, 0, 59, 0
1, 400525, Note_off_c, 0, 54, 0
1, 400552, Note_on_c, 0, 55, 63
1, 400564, Note_off_c, 0, 57, 0
1, 400564, Note_on_c, 0, 52, 54
1, 400744, Note_off_c, 0, 52, 0
1, 400744, Note_on_c, 0, 57, 63
1, 400754, Note_off_c, 0, 55, 0
1, 400755, Note_on_c, 0, 54, 52
1, 400862, Note_off_c, 0, 54, 0
1, 400912, Note_on_c, 0, 52, 49
1, 401084, Note_off_c, 0, 64, 0
1, 401091, Note_off_c, 0, 52, 0
1, 401102, Note_on_c, 0, 62, 57
1, 401115, Note_on_c, 0, 54, 53
1, 401242, Note_off_c, 0, 54, 0
1, 401269, Note_on_c, 0, 60, 59
1, 401280, Control_c, 0, 64, 34
1, 401281, Note_on_c, 0, 50, 44
1, 401282, Note_off_c, 0, 62, 0
1, 401299, Control_c, 0, 64, 39
1, 401318, Control_c, 0, 64, 45
1, 401337, Control_c, 0, 64, 51
1, 401354, Control_c, 0, 64, 54
1, 401374, Control_c, 0, 64, 56
1, 401391, Control_c, 0, 64, 58
1, 401410, Control_c, 0, 64, 60
1, 401428, Control_c, 0, 64, 61
1, 401444, Note_off_c, 0, 50, 0
1, 401447, Control_c, 0, 64, 63
1, 401455, Note_off_c, 0, 57, 0
1, 401457, Note_on_c, 0, 59, 64
1, 401460, Note_off_c, 0, 60, 0
1, 401466, Control_c, 0, 64, 64
1, 401477, Note_on_c, 0, 52, 44
1, 401502, Control_c, 0, 64, 65
1, 401522, Control_c, 0, 64, 66
1, 401571, Note_off_c, 0, 52, 0
1, 401598, Note_off_c, 0, 59, 0
1, 401625, Note_on_c, 0, 57, 58
1, 401645, Note_on_c, 0, 54, 49
1, 401707, Control_c, 0, 64, 65
1, 401720, Note_off_c, 0, 54, 0
1, 401724, Control_c, 0, 64, 64
1, 401745, Control_c, 0, 64, 61
1, 401764, Control_c, 0, 64, 57
1, 401772, Note_off_c, 0, 57, 0
1, 401780, Control_c, 0, 64, 51
1, 401801, Control_c, 0, 64, 44
1, 401806, Note_on_c, 0, 59, 63
1, 401819, Control_c, 0, 64, 35
1, 401822, Note_on_c, 0, 55, 52
1, 401837, Control_c, 0, 64, 25
1, 401856, Control_c, 0, 64, 19
1, 401867, Note_off_c, 0, 55, 0
1, 401903, Control_c, 0, 64, 14
1, 401989, Note_on_c, 0, 55, 69
1, 402002, Note_off_c, 0, 59, 0
1, 402004, Note_on_c, 0, 52, 44
1, 402119, Note_off_c, 0, 52, 0
1, 402144, Control_c, 0, 67, 80
1, 402173, Note_on_c, 0, 59, 73
1, 402186, Note_on_c, 0, 50, 54
1, 402188, Note_off_c, 0, 55, 0
1, 402322, Note_off_c, 0, 50, 0
1, 402336, Note_on_c, 0, 57, 74
1, 402361, Note_on_c, 0, 48, 51
1, 402476, Control_c, 0, 64, 10
1, 402495, Note_off_c, 0, 48, 0
1, 402509, Note_on_c, 0, 55, 68
1, 402526, Note_on_c, 0, 47, 55
1, 402569, Control_c, 0, 64, 0
1, 402570, Note_off_c, 0, 57, 0
1, 402657, Note_off_c, 0, 47, 0
1, 402695, Note_on_c, 0, 54, 71
1, 402700, Note_off_c, 0, 55, 0
1, 402712, Note_on_c, 0, 45, 54
1, 402830, Note_off_c, 0, 45, 0
1, 402875, Control_c, 0, 64, 17
1, 402885, Note_on_c, 0, 55, 69
1, 402894, Note_on_c, 0, 43, 57
1, 402894, Control_c, 0, 64, 29
1, 402906, Note_off_c, 0, 54, 0
1, 402911, Control_c, 0, 64, 41
1, 402932, Control_c, 0, 64, 52
1, 402934, Note_off_c, 0, 43, 0
1, 402950, Control_c, 0, 64, 59
1, 402969, Control_c, 0, 64, 63
1, 402971, Note_off_c, 0, 59, 0
1, 402980, Note_off_c, 0, 55, 0
1, 402987, Control_c, 0, 64, 65
1, 403004, Control_c, 0, 64, 68
1, 403023, Control_c, 0, 64, 71
1, 403041, Control_c, 0, 64, 74
1, 403050, Note_on_c, 0, 57, 73
1, 403060, Control_c, 0, 64, 77
1, 403073, Note_on_c, 0, 54, 56
1, 403079, Control_c, 0, 64, 79
1, 403189, Control_c, 0, 64, 75
1, 403191, Note_off_c, 0, 54, 0
1, 403209, Control_c, 0, 64, 67
1, 403226, Control_c, 0, 64, 56
1, 403228, Note_on_c, 0, 67, 81
1, 403237, Note_off_c, 0, 57, 0
1, 403245, Control_c, 0, 64, 44
1, 403265, Control_c, 0, 64, 33
1, 403270, Note_on_c, 0, 52, 49
1, 403270, Note_on_c, 0, 60, 58
1, 403284, Control_c, 0, 64, 23
1, 403301, Control_c, 0, 64, 17
1, 403339, Control_c, 0, 64, 12
1, 403352, Note_off_c, 0, 52, 0
1, 403396, Note_off_c, 0, 60, 0
1, 403404, Note_on_c, 0, 59, 64
1, 403421, Note_on_c, 0, 50, 51
1, 403538, Note_off_c, 0, 50, 0
1, 403572, Note_off_c, 0, 59, 0
1, 403587, Note_on_c, 0, 57, 66
1, 403597, Note_on_c, 0, 48, 49
1, 403684, Note_off_c, 0, 48, 0
1, 403762, Note_on_c, 0, 47, 52
1, 403768, Note_on_c, 0, 55, 60
1, 403769, Note_off_c, 0, 57, 0
1, 403830, Control_c, 0, 64, 20
1, 403848, Control_c, 0, 64, 33
1, 403854, Note_off_c, 0, 55, 0
1, 403868, Control_c, 0, 64, 50
1, 403885, Control_c, 0, 64, 63
1, 403905, Control_c, 0, 64, 67
1, 403919, Note_off_c, 0, 47, 0
1, 403943, Control_c, 0, 64, 68
1, 403955, Note_on_c, 0, 57, 54
1, 403960, Control_c, 0, 64, 65
1, 403963, Note_on_c, 0, 49, 48
1, 403981, Control_c, 0, 64, 59
1, 403998, Control_c, 0, 64, 51
1, 404016, Control_c, 0, 64, 40
1, 404033, Control_c, 0, 64, 31
1, 404071, Note_off_c, 0, 49, 0
1, 404071, Control_c, 0, 64, 35
1, 404090, Control_c, 0, 64, 45
1, 404108, Control_c, 0, 64, 56
1, 404125, Note_on_c, 0, 45, 49
1, 404127, Control_c, 0, 64, 62
1, 404147, Control_c, 0, 64, 65
1, 404165, Control_c, 0, 64, 67
1, 404184, Control_c, 0, 64, 70
1, 404203, Control_c, 0, 64, 72
1, 404221, Control_c, 0, 64, 75
1, 404240, Control_c, 0, 64, 77
1, 404294, Note_off_c, 0, 57, 0
1, 404313, Note_on_c, 0, 66, 56
1, 404313, Control_c, 0, 64, 73
1, 404321, Note_on_c, 0, 69, 65
1, 404327, Note_off_c, 0, 45, 0
1, 404331, Control_c, 0, 64, 66
1, 404347, Note_on_c, 0, 50, 45
1, 404351, Control_c, 0, 64, 59
1, 404367, Note_off_c, 0, 67, 0
1, 404367, Control_c, 0, 64, 51
1, 404388, Control_c, 0, 64, 43
1, 404407, Control_c, 0, 64, 34
1, 404425, Control_c, 0, 64, 26
1, 404434, Note_off_c, 0, 50, 0
1, 404440, Control_c, 0, 64, 19
1, 404491, Note_on_c, 0, 64, 68
1, 404506, Note_on_c, 0, 52, 48
1, 404514, Note_off_c, 0, 66, 0
1, 404653, Note_off_c, 0, 52, 0
1, 404660, Note_off_c, 0, 64, 0
1, 404664, Note_on_c, 0, 62, 69
1, 404675, Note_on_c, 0, 54, 51
1, 404712, Control_c, 0, 64, 15
1, 404805, Note_off_c, 0, 54, 0
1, 404847, Note_on_c, 0, 60, 70
1, 404851, Note_on_c, 0, 50, 39
1, 404859, Control_c, 0, 64, 11
1, 404864, Note_off_c, 0, 62, 0
1, 405006, Note_off_c, 0, 50, 0
1, 405007, Note_off_c, 0, 60, 0
1, 405027, Note_on_c, 0, 59, 65
1, 405046, Note_on_c, 0, 55, 38
1, 405046, Control_c, 0, 64, 18
1, 405063, Control_c, 0, 64, 24
1, 405082, Control_c, 0, 64, 32
1, 405100, Control_c, 0, 64, 43
1, 405120, Control_c, 0, 64, 54
1, 405138, Control_c, 0, 64, 60
1, 405157, Control_c, 0, 64, 63
1, 405171, Note_off_c, 0, 55, 0
1, 405176, Control_c, 0, 64, 65
1, 405194, Control_c, 0, 64, 67
1, 405202, Note_on_c, 0, 62, 67
1, 405212, Note_off_c, 0, 69, 0
1, 405212, Note_on_c, 0, 54, 49
1, 405212, Control_c, 0, 64, 70
1, 405228, Note_off_c, 0, 59, 0
1, 405232, Control_c, 0, 64, 73
1, 405250, Control_c, 0, 64, 76
1, 405267, Control_c, 0, 64, 79
1, 405287, Control_c, 0, 64, 82
1, 405300, Note_off_c, 0, 62, 0
1, 405336, Note_off_c, 0, 54, 0
1, 405341, Control_c, 0, 64, 80
1, 405362, Control_c, 0, 64, 72
1, 405378, Control_c, 0, 64, 57
1, 405379, Note_on_c, 0, 67, 73
1, 405397, Control_c, 0, 64, 42
1, 405405, Note_on_c, 0, 52, 50
1, 405418, Control_c, 0, 64, 29
1, 405434, Control_c, 0, 64, 24
1, 405491, Control_c, 0, 64, 31
1, 405509, Control_c, 0, 64, 42
1, 405519, Note_off_c, 0, 52, 0
1, 405528, Control_c, 0, 64, 53
1, 405546, Control_c, 0, 64, 60
1, 405552, Note_on_c, 0, 69, 74
1, 405556, Note_off_c, 0, 67, 0
1, 405566, Note_on_c, 0, 54, 49
1, 405566, Control_c, 0, 64, 63
1, 405579, Note_on_c, 0, 66, 40
1, 405582, Control_c, 0, 64, 65
1, 405602, Control_c, 0, 64, 66
1, 405629, Control_c, 0, 64, 67
1, 405685, Control_c, 0, 64, 65
1, 405703, Control_c, 0, 64, 59
1, 405704, Note_off_c, 0, 54, 0
1, 405722, Control_c, 0, 64, 48
1, 405734, Note_on_c, 0, 70, 74
1, 405740, Control_c, 0, 64, 29
1, 405746, Note_off_c, 0, 66, 0
1, 405759, Control_c, 0, 64, 11
1, 405767, Note_on_c, 0, 55, 50
1, 405771, Note_on_c, 0, 64, 62
1, 405777, Note_off_c, 0, 69, 0
1, 405814, Note_off_c, 0, 64, 0
1, 405851, Control_c, 0, 64, 19
1, 405871, Control_c, 0, 64, 24
1, 405888, Control_c, 0, 64, 32
1, 405908, Control_c, 0, 64, 42
1, 405911, Note_off_c, 0, 55, 0
1, 405916, Note_on_c, 0, 62, 59
1, 405927, Control_c, 0, 64, 50
1, 405947, Note_on_c, 0, 52, 41
1, 405964, Control_c, 0, 64, 45
1, 405982, Control_c, 0, 64, 36
1, 406002, Control_c, 0, 64, 18
1, 406044, Note_off_c, 0, 52, 0
1, 406055, Control_c, 0, 64, 0
1, 406094, Note_on_c, 0, 61, 71
1, 406100, Note_off_c, 0, 62, 0
1, 406116, Note_on_c, 0, 57, 46
1, 406150, Control_c, 0, 64, 9
1, 406167, Control_c, 0, 64, 18
1, 406187, Control_c, 0, 64, 30
1, 406205, Control_c, 0, 64, 44
1, 406214, Note_off_c, 0, 57, 0
1, 406224, Control_c, 0, 64, 56
1, 406240, Note_off_c, 0, 61, 0
1, 406240, Control_c, 0, 64, 61
1, 406259, Control_c, 0, 64, 63
1, 406269, Note_on_c, 0, 64, 65
1, 406277, Note_on_c, 0, 55, 49
1, 406278, Control_c, 0, 64, 65
1, 406280, Note_off_c, 0, 70, 0
1, 406297, Control_c, 0, 64, 67
1, 406316, Control_c, 0, 64, 69
1, 406353, Control_c, 0, 64, 72
1, 406405, Note_off_c, 0, 64, 0
1, 406409, Control_c, 0, 64, 66
1, 406426, Control_c, 0, 64, 56
1, 406429, Note_off_c, 0, 55, 0
1, 406435, Note_on_c, 0, 69, 84
1, 406444, Control_c, 0, 64, 40
1, 406463, Note_on_c, 0, 54, 49
1, 406463, Control_c, 0, 64, 23
1, 406539, Control_c, 0, 64, 28
1, 406566, Control_c, 0, 64, 41
1, 406586, Control_c, 0, 64, 55
1, 406604, Control_c, 0, 64, 63
1, 406608, Note_off_c, 0, 54, 0
1, 406610, Note_on_c, 0, 71, 74
1, 406622, Note_off_c, 0, 69, 0
1, 406623, Note_on_c, 0, 67, 79
1, 406623, Control_c, 0, 64, 65
1, 406626, Note_on_c, 0, 55, 57
1, 406642, Control_c, 0, 64, 66
1, 406678, Control_c, 0, 64, 67
1, 406754, Control_c, 0, 64, 63
1, 406772, Control_c, 0, 64, 53
1, 406790, Note_off_c, 0, 55, 0
1, 406791, Control_c, 0, 64, 37
1, 406805, Note_on_c, 0, 72, 77
1, 406809, Control_c, 0, 64, 17
1, 406811, Note_on_c, 0, 66, 73
1, 406824, Note_on_c, 0, 57, 58
1, 406828, Control_c, 0, 64, 8
1, 406839, Note_off_c, 0, 67, 0
1, 406851, Note_off_c, 0, 71, 0
1, 406921, Control_c, 0, 64, 17
1, 406939, Control_c, 0, 64, 25
1, 406944, Note_off_c, 0, 57, 0
1, 406957, Control_c, 0, 64, 34
1, 406976, Note_on_c, 0, 64, 79
1, 406976, Control_c, 0, 64, 45
1, 406985, Note_on_c, 0, 54, 55
1, 406997, Control_c, 0, 64, 54
1, 407009, Note_off_c, 0, 66, 0
1, 407013, Control_c, 0, 64, 57
1, 407124, Control_c, 0, 64, 54
1, 407135, Note_off_c, 0, 54, 0
1, 407142, Control_c, 0, 64, 51
1, 407163, Control_c, 0, 64, 46
1, 407169, Note_off_c, 0, 64, 0
1, 407169, Note_on_c, 0, 62, 69
1, 407176, Note_on_c, 0, 59, 63
1, 407182, Control_c, 0, 64, 40
1, 407200, Control_c, 0, 64, 32
1, 407218, Control_c, 0, 64, 26
1, 407236, Control_c, 0, 64, 22
1, 407322, Note_off_c, 0, 59, 0
1, 407346, Note_on_c, 0, 57, 61
1, 407519, Note_off_c, 0, 57, 0
1, 407523, Note_off_c, 0, 72, 0
1, 407527, Note_on_c, 0, 71, 61
1, 407529, Note_on_c, 0, 55, 54
1, 407690, Note_off_c, 0, 55, 0
1, 407707, Note_off_c, 0, 71, 0
1, 407710, Note_on_c, 0, 69, 67
1, 407714, Note_on_c, 0, 57, 51
1, 407846, Note_off_c, 0, 69, 0
1, 407869, Note_off_c, 0, 57, 0
1, 407881, Note_on_c, 0, 67, 64
1, 407898, Note_on_c, 0, 59, 55
1, 408033, Note_off_c, 0, 67, 0
1, 408052, Note_off_c, 0, 59, 0
1, 408052, Note_on_c, 0, 66, 61
1, 408065, Note_on_c, 0, 57, 49
1, 408184, Poly_aftertouch_c, 0, 62, 24
1, 408210, Control_c, 0, 64, 29
1, 408228, Control_c, 0, 64, 37
1, 408242, Note_off_c, 0, 62, 0
1, 408243, Note_on_c, 0, 64, 66
1, 408245, Control_c, 0, 64, 47
1, 408265, Note_off_c, 0, 57, 0
1, 408266, Note_off_c, 0, 66, 0
1, 408266, Control_c, 0, 64, 55
1, 408266, Note_on_c, 0, 56, 56
1, 408283, Control_c, 0, 64, 59
1, 408299, Note_off_c, 0, 56, 0
1, 408301, Control_c, 0, 64, 62
1, 408320, Control_c, 0, 64, 63
1, 408338, Control_c, 0, 64, 65
1, 408358, Control_c, 0, 64, 66
1, 408376, Control_c, 0, 64, 67
1, 408399, Note_on_c, 0, 61, 68
1, 408459, Control_c, 0, 64, 65
1, 408477, Control_c, 0, 64, 63
1, 408496, Control_c, 0, 64, 60
1, 408515, Control_c, 0, 64, 55
1, 408535, Control_c, 0, 64, 49
1, 408552, Control_c, 0, 64, 41
1, 408573, Control_c, 0, 64, 33
1, 408590, Control_c, 0, 64, 27
1, 408594, Note_on_c, 0, 59, 75
1, 408602, Note_off_c, 0, 61, 0
1, 408608, Control_c, 0, 64, 23
1, 408618, Note_on_c, 0, 44, 48
1, 408644, Control_c, 0, 64, 18
1, 408681, Note_off_c, 0, 44, 0
1, 408763, Note_on_c, 0, 62, 73
1, 408792, Note_off_c, 0, 59, 0
1, 408942, Note_on_c, 0, 61, 68
1, 408960, Control_c, 0, 64, 14
1, 408975, Note_off_c, 0, 62, 0
1, 409052, Control_c, 0, 67, 84
1, 409094, Note_off_c, 0, 61, 0
1, 409111, Note_on_c, 0, 59, 68
1, 409147, Control_c, 0, 64, 10
1, 409294, Control_c, 0, 64, 17
1, 409310, Note_on_c, 0, 61, 59
1, 409312, Note_off_c, 0, 59, 0
1, 409312, Control_c, 0, 64, 23
1, 409320, Note_off_c, 0, 64, 0
1, 409325, Note_on_c, 0, 45, 48
1, 409330, Control_c, 0, 64, 32
1, 409350, Control_c, 0, 64, 44
1, 409378, Control_c, 0, 64, 54
1, 409397, Control_c, 0, 64, 60
1, 409399, Note_off_c, 0, 45, 0
1, 409416, Control_c, 0, 64, 62
1, 409431, Control_c, 0, 64, 64
1, 409451, Control_c, 0, 64, 66
1, 409453, Note_off_c, 0, 61, 0
1, 409470, Control_c, 0, 64, 67
1, 409476, Note_on_c, 0, 62, 53
1, 409485, Note_on_c, 0, 59, 57
1, 409488, Control_c, 0, 64, 69
1, 409582, Control_c, 0, 64, 68
1, 409601, Control_c, 0, 64, 62
1, 409620, Control_c, 0, 64, 51
1, 409639, Control_c, 0, 64, 31
1, 409641, Note_off_c, 0, 62, 0
1, 409649, Note_off_c, 0, 59, 0
1, 409663, Note_on_c, 0, 61, 51
1, 409676, Note_on_c, 0, 57, 52
1, 409684, Note_on_c, 0, 33, 43
1, 409714, Control_c, 0, 64, 9
1, 409729, Control_c, 0, 64, 20
1, 409747, Control_c, 0, 64, 34
1, 409754, Note_off_c, 0, 33, 0
1, 409766, Control_c, 0, 64, 48
1, 409786, Control_c, 0, 64, 58
1, 409803, Note_off_c, 0, 57, 0
1, 409803, Control_c, 0, 64, 63
1, 409808, Note_off_c, 0, 61, 0
1, 409822, Control_c, 0, 64, 65
1, 409839, Note_on_c, 0, 64, 59
1, 409841, Control_c, 0, 64, 67
1, 409862, Note_on_c, 0, 55, 29
1, 409877, Control_c, 0, 64, 69
1, 409890, Note_off_c, 0, 55, 0
1, 409933, Control_c, 0, 64, 67
1, 409951, Control_c, 0, 64, 63
1, 409970, Control_c, 0, 64, 59
1, 409989, Control_c, 0, 64, 53
1, 409994, Note_off_c, 0, 64, 0
1, 410008, Control_c, 0, 64, 45
1, 410022, Note_on_c, 0, 62, 54
1, 410026, Control_c, 0, 64, 34
1, 410034, Note_on_c, 0, 54, 52
1, 410045, Control_c, 0, 64, 25
1, 410062, Control_c, 0, 64, 20
1, 410092, Note_off_c, 0, 54, 0
1, 410160, Note_off_c, 0, 62, 0
1, 410186, Note_on_c, 0, 61, 60
1, 410222, Note_on_c, 0, 52, 29
1, 410273, Note_off_c, 0, 52, 0
1, 410402, Note_off_c, 0, 61, 0
1, 410421, Note_on_c, 0, 62, 46
1, 410426, Note_on_c, 0, 54, 45
1, 410433, Note_on_c, 0, 38, 41
1, 410501, Note_off_c, 0, 38, 0
1, 410803, Note_on_c, 0, 42, 42
1, 410859, Note_off_c, 0, 42, 0
1, 410869, Control_c, 0, 64, 16
1, 411054, Control_c, 0, 64, 23
1, 411074, Control_c, 0, 64, 28
1, 411091, Control_c, 0, 64, 36
1, 411110, Control_c, 0, 64, 46
1, 411130, Control_c, 0, 64, 56
1, 411142, Note_off_c, 0, 54, 0
1, 411148, Control_c, 0, 64, 61
1, 411158, Note_on_c, 0, 45, 46
1, 411166, Control_c, 0, 64, 64
1, 411185, Control_c, 0, 64, 67
1, 411186, Note_off_c, 0, 62, 0
1, 411204, Control_c, 0, 64, 69
1, 411213, Note_off_c, 0, 45, 0
1, 411288, Control_c, 0, 64, 67
1, 411305, Control_c, 0, 64, 65
1, 411323, Control_c, 0, 64, 62
1, 411343, Control_c, 0, 64, 59
1, 411361, Control_c, 0, 64, 57
1, 411380, Control_c, 0, 64, 54
1, 411399, Control_c, 0, 64, 50
1, 411417, Control_c, 0, 64, 44
1, 411436, Control_c, 0, 64, 38
1, 411455, Control_c, 0, 64, 34
1, 411490, Control_c, 0, 64, 29
1, 411548, Note_on_c, 0, 81, 64
1, 411565, Control_c, 0, 64, 25
1, 411570, Note_on_c, 0, 50, 38
1, 411704, Note_off_c, 0, 50, 0
1, 411733, Note_on_c, 0, 49, 49
1, 411898, Control_c, 0, 67, 80
1, 411901, Note_off_c, 0, 49, 0
1, 411918, Note_on_c, 0, 50, 61
1, 412053, Note_off_c, 0, 50, 0
1, 412098, Note_on_c, 0, 52, 62
1, 412266, Note_off_c, 0, 52, 0
1, 412276, Note_on_c, 0, 54, 57
1, 412416, Note_off_c, 0, 54, 0
1, 412437, Note_on_c, 0, 50, 51
1, 412638, Note_off_c, 0, 50, 0
1, 412647, Note_on_c, 0, 83, 67
1, 412656, Note_on_c, 0, 55, 51
1, 412804, Note_off_c, 0, 55, 0
1, 412820, Note_on_c, 0, 54, 55
1, 412966, Note_off_c, 0, 54, 0
1, 413007, Note_on_c, 0, 52, 53
1, 413008, Note_on_c, 0, 79, 68
1, 413051, Note_off_c, 0, 81, 0
1, 413186, Note_on_c, 0, 78, 72
1, 413197, Note_on_c, 0, 54, 52
1, 413209, Note_off_c, 0, 52, 0
1, 413212, Note_off_c, 0, 79, 0
1, 413359, Note_off_c, 0, 78, 0
1, 413362, Note_off_c, 0, 54, 0
1, 413367, Note_on_c, 0, 76, 77
1, 413387, Note_on_c, 0, 55, 53
1, 413439, Control_c, 0, 64, 20
1, 413531, Control_c, 0, 64, 16
1, 413537, Note_off_c, 0, 55, 0
1, 413539, Note_on_c, 0, 74, 75
1, 413547, Note_off_c, 0, 76, 0
1, 413556, Note_on_c, 0, 52, 48
1, 413666, Note_off_c, 0, 74, 0
1, 413703, Note_off_c, 0, 52, 0
1, 413724, Note_on_c, 0, 73, 65
1, 413734, Control_c, 0, 64, 24
1, 413753, Control_c, 0, 64, 33
1, 413753, Note_on_c, 0, 57, 46
1, 413772, Control_c, 0, 64, 46
1, 413790, Control_c, 0, 64, 58
1, 413810, Control_c, 0, 64, 63
1, 413827, Control_c, 0, 64, 66
1, 413847, Control_c, 0, 64, 69
1, 413865, Control_c, 0, 64, 72
1, 413880, Note_off_c, 0, 57, 0
1, 413885, Control_c, 0, 64, 76
1, 413899, Note_off_c, 0, 83, 0
1, 413902, Control_c, 0, 64, 80
1, 413907, Note_on_c, 0, 55, 57
1, 413920, Control_c, 0, 64, 85
1, 413935, Note_off_c, 0, 73, 0
1, 413938, Control_c, 0, 64, 90
1, 413958, Control_c, 0, 64, 94
1, 414060, Control_c, 0, 64, 88
1, 414081, Control_c, 0, 64, 78
1, 414093, Note_on_c, 0, 81, 75
1, 414095, Note_off_c, 0, 55, 0
1, 414100, Control_c, 0, 64, 65
1, 414114, Note_on_c, 0, 72, 62
1, 414116, Control_c, 0, 64, 52
1, 414121, Note_on_c, 0, 54, 54
1, 414134, Control_c, 0, 64, 45
1, 414153, Control_c, 0, 64, 39
1, 414173, Control_c, 0, 64, 35
1, 414209, Control_c, 0, 64, 29
1, 414268, Note_on_c, 0, 79, 82
1, 414270, Note_off_c, 0, 54, 0
1, 414277, Note_off_c, 0, 81, 0
1, 414285, Note_on_c, 0, 55, 54
1, 414320, Control_c, 0, 64, 24
1, 414414, Control_c, 0, 64, 20
1, 414441, Note_off_c, 0, 55, 0
1, 414446, Note_on_c, 0, 78, 81
1, 414470, Note_on_c, 0, 57, 61
1, 414478, Note_off_c, 0, 79, 0
1, 414486, Control_c, 0, 64, 16
1, 414614, Note_on_c, 0, 76, 75
1, 414616, Control_c, 0, 64, 12
1, 414625, Note_off_c, 0, 57, 0
1, 414643, Note_off_c, 0, 78, 0
1, 414643, Note_on_c, 0, 54, 51
1, 414711, Control_c, 0, 64, 0
1, 414797, Note_off_c, 0, 54, 0
1, 414806, Note_on_c, 0, 75, 77
1, 414836, Note_off_c, 0, 76, 0
1, 414836, Note_on_c, 0, 59, 56
1, 414839, Control_c, 0, 64, 14
1, 414859, Control_c, 0, 64, 24
1, 414879, Control_c, 0, 64, 38
1, 414896, Control_c, 0, 64, 52
1, 414914, Control_c, 0, 64, 60
1, 414932, Control_c, 0, 64, 64
1, 414945, Note_off_c, 0, 59, 0
1, 414951, Control_c, 0, 64, 66
1, 414956, Note_off_c, 0, 75, 0
1, 414970, Control_c, 0, 64, 68
1, 414997, Control_c, 0, 64, 70
1, 415009, Note_on_c, 0, 57, 59
1, 415010, Note_off_c, 0, 72, 0
1, 415016, Control_c, 0, 64, 73
1, 415035, Control_c, 0, 64, 75
1, 415054, Control_c, 0, 64, 77
1, 415145, Control_c, 0, 64, 75
1, 415164, Control_c, 0, 64, 70
1, 415172, Note_on_c, 0, 74, 81
1, 415183, Control_c, 0, 64, 61
1, 415196, Note_off_c, 0, 57, 0
1, 415198, Note_on_c, 0, 71, 62
1, 415201, Control_c, 0, 64, 53
1, 415204, Note_on_c, 0, 56, 57
1, 415220, Control_c, 0, 64, 44
1, 415239, Control_c, 0, 64, 35
1, 415258, Control_c, 0, 64, 27
1, 415276, Control_c, 0, 64, 21
1, 415294, Control_c, 0, 64, 16
1, 415314, Note_off_c, 0, 71, 0
1, 415331, Control_c, 0, 64, 12
1, 415339, Note_off_c, 0, 56, 0
1, 415345, Note_on_c, 0, 69, 67
1, 415356, Note_on_c, 0, 57, 49
1, 415521, Note_on_c, 0, 68, 71
1, 415524, Note_off_c, 0, 57, 0
1, 415550, Note_on_c, 0, 59, 59
1, 415602, Note_off_c, 0, 69, 0
1, 415695, Note_off_c, 0, 59, 0
1, 415695, Note_on_c, 0, 66, 74
1, 415717, Note_on_c, 0, 56, 58
1, 415756, Note_off_c, 0, 68, 0
1, 415851, Control_c, 0, 64, 21
1, 415859, Note_off_c, 0, 56, 0
1, 415871, Control_c, 0, 64, 31
1, 415889, Control_c, 0, 64, 45
1, 415895, Note_on_c, 0, 64, 75
1, 415902, Note_on_c, 0, 60, 65
1, 415907, Control_c, 0, 64, 57
1, 415909, Note_off_c, 0, 66, 0
1, 415933, Control_c, 0, 64, 61
1, 415953, Control_c, 0, 64, 63
1, 415971, Control_c, 0, 64, 65
1, 415991, Control_c, 0, 64, 67
1, 416028, Control_c, 0, 64, 68
1, 416057, Note_off_c, 0, 60, 0
1, 416064, Note_on_c, 0, 59, 64
1, 416064, Control_c, 0, 64, 67
1, 416083, Control_c, 0, 64, 64
1, 416103, Control_c, 0, 64, 60
1, 416119, Control_c, 0, 64, 54
1, 416138, Control_c, 0, 64, 48
1, 416156, Control_c, 0, 64, 41
1, 416176, Control_c, 0, 64, 34
1, 416194, Control_c, 0, 64, 28
1, 416213, Control_c, 0, 64, 23
1, 416241, Note_on_c, 0, 72, 73
1, 416249, Control_c, 0, 64, 19
1, 416253, Note_off_c, 0, 59, 0
1, 416269, Note_on_c, 0, 57, 63
1, 416276, Note_off_c, 0, 74, 0
1, 416287, Control_c, 0, 64, 15
1, 416411, Note_on_c, 0, 71, 76
1, 416427, Note_off_c, 0, 57, 0
1, 416432, Note_on_c, 0, 59, 65
1, 416460, Note_off_c, 0, 72, 0
1, 416593, Note_on_c, 0, 69, 77
1, 416600, Note_on_c, 0, 60, 63
1, 416615, Note_off_c, 0, 71, 0
1, 416617, Note_off_c, 0, 59, 0
1, 416728, Note_off_c, 0, 69, 0
1, 416758, Note_on_c, 0, 67, 79
1, 416766, Note_off_c, 0, 60, 0
1, 416774, Note_on_c, 0, 59, 62
1, 416807, Control_c, 0, 67, 84
1, 416963, Control_c, 0, 64, 21
1, 416965, Note_off_c, 0, 67, 0
1, 416969, Note_on_c, 0, 66, 71
1, 416982, Control_c, 0, 64, 28
1, 416992, Note_on_c, 0, 58, 59
1, 417000, Control_c, 0, 64, 37
1, 417001, Note_off_c, 0, 64, 0
1, 417009, Note_off_c, 0, 59, 0
1, 417019, Control_c, 0, 64, 47
1, 417039, Note_off_c, 0, 58, 0
1, 417039, Control_c, 0, 64, 55
1, 417058, Control_c, 0, 64, 60
1, 417076, Control_c, 0, 64, 64
1, 417094, Control_c, 0, 64, 67
1, 417113, Control_c, 0, 64, 70
1, 417130, Control_c, 0, 64, 72
1, 417135, Note_on_c, 0, 63, 67
1, 417149, Control_c, 0, 64, 74
1, 417166, Control_c, 0, 64, 76
1, 417242, Control_c, 0, 64, 73
1, 417263, Control_c, 0, 64, 68
1, 417279, Control_c, 0, 64, 60
1, 417296, Control_c, 0, 64, 52
1, 417298, Note_off_c, 0, 63, 0
1, 417316, Note_on_c, 0, 61, 66
1, 417316, Control_c, 0, 64, 44
1, 417335, Note_on_c, 0, 46, 56
1, 417336, Control_c, 0, 64, 35
1, 417352, Control_c, 0, 64, 29
1, 417372, Control_c, 0, 64, 24
1, 417382, Note_off_c, 0, 46, 0
1, 417389, Control_c, 0, 64, 20
1, 417427, Control_c, 0, 64, 16
1, 417468, Note_off_c, 0, 61, 0
1, 417489, Note_on_c, 0, 64, 64
1, 417522, Control_c, 0, 64, 12
1, 417670, Note_on_c, 0, 63, 57
1, 417696, Note_off_c, 0, 64, 0
1, 417761, Control_c, 0, 64, 8
1, 417831, Note_off_c, 0, 63, 0
1, 417852, Note_on_c, 0, 61, 59
1, 418030, Control_c, 0, 64, 17
1, 418038, Note_off_c, 0, 61, 0
1, 418047, Note_on_c, 0, 63, 55
1, 418049, Control_c, 0, 64, 25
1, 418053, Note_on_c, 0, 47, 50
1, 418068, Control_c, 0, 64, 35
1, 418086, Control_c, 0, 64, 47
1, 418107, Control_c, 0, 64, 56
1, 418112, Note_off_c, 0, 47, 0
1, 418124, Control_c, 0, 64, 61
1, 418141, Control_c, 0, 64, 65
1, 418161, Control_c, 0, 64, 68
1, 418178, Control_c, 0, 64, 70
1, 418197, Control_c, 0, 64, 73
1, 418202, Note_off_c, 0, 63, 0
1, 418210, Note_on_c, 0, 64, 58
1, 418214, Control_c, 0, 64, 77
1, 418225, Note_on_c, 0, 61, 53
1, 418228, Note_off_c, 0, 66, 0
1, 418232, Control_c, 0, 64, 79
1, 418311, Control_c, 0, 64, 77
1, 418328, Control_c, 0, 64, 67
1, 418346, Control_c, 0, 64, 50
1, 418364, Control_c, 0, 64, 29
1, 418382, Control_c, 0, 64, 18
1, 418389, Note_off_c, 0, 61, 0
1, 418395, Note_on_c, 0, 63, 61
1, 418402, Note_off_c, 0, 64, 0
1, 418409, Note_on_c, 0, 35, 43
1, 418420, Control_c, 0, 64, 23
1, 418429, Note_on_c, 0, 59, 49
1, 418438, Control_c, 0, 64, 36
1, 418457, Control_c, 0, 64, 52
1, 418464, Note_off_c, 0, 59, 0
1, 418476, Control_c, 0, 64, 64
1, 418494, Control_c, 0, 64, 69
1, 418507, Note_off_c, 0, 35, 0
1, 418513, Control_c, 0, 64, 71
1, 418532, Control_c, 0, 64, 73
1, 418557, Note_off_c, 0, 63, 0
1, 418577, Note_on_c, 0, 66, 62
1, 418605, Control_c, 0, 64, 69
1, 418623, Control_c, 0, 64, 60
1, 418642, Control_c, 0, 64, 48
1, 418661, Control_c, 0, 64, 32
1, 418680, Control_c, 0, 64, 17
1, 418707, Poly_aftertouch_c, 0, 57, 0
1, 418743, Control_c, 0, 64, 22
1, 418745, Note_off_c, 0, 66, 0
1, 418754, Note_on_c, 0, 64, 60
1, 418762, Control_c, 0, 64, 35
1, 418781, Control_c, 0, 64, 50
1, 418795, Note_on_c, 0, 55, 27
1, 418799, Control_c, 0, 64, 61
1, 418819, Control_c, 0, 64, 64
1, 418830, Note_off_c, 0, 55, 0
1, 418836, Control_c, 0, 64, 66
1, 418856, Control_c, 0, 64, 67
1, 418874, Control_c, 0, 64, 69
1, 418912, Control_c, 0, 64, 72
1, 418922, Note_off_c, 0, 64, 0
1, 418938, Note_on_c, 0, 63, 60
1, 418960, Note_on_c, 0, 54, 56
1, 419030, Note_off_c, 0, 54, 0
1, 419060, Control_c, 0, 64, 67
1, 419077, Control_c, 0, 64, 59
1, 419097, Control_c, 0, 64, 48
1, 419115, Control_c, 0, 64, 35
1, 419116, Note_off_c, 0, 63, 0
1, 419134, Control_c, 0, 64, 21
1, 419135, Note_on_c, 0, 64, 60
1, 419154, Control_c, 0, 64, 12
1, 419159, Note_on_c, 0, 40, 45
1, 419167, Note_on_c, 0, 55, 34
1, 419240, Note_off_c, 0, 40, 0
1, 419295, Note_off_c, 0, 64, 0
1, 419305, Note_on_c, 0, 62, 60
1, 419329, Control_c, 0, 67, 80
1, 419350, Note_off_c, 0, 55, 0
1, 419480, Note_on_c, 0, 52, 58
1, 419489, Note_on_c, 0, 60, 63
1, 419491, Note_off_c, 0, 62, 0
1, 419633, Note_off_c, 0, 52, 0
1, 419666, Note_on_c, 0, 59, 69
1, 419667, Note_on_c, 0, 50, 55
1, 419670, Note_off_c, 0, 60, 0
1, 419821, Note_off_c, 0, 59, 0
1, 419838, Note_off_c, 0, 50, 0
1, 419839, Note_on_c, 0, 57, 73
1, 419851, Note_on_c, 0, 48, 65
1, 420002, Note_on_c, 0, 56, 71
1, 420005, Note_on_c, 0, 47, 68
1, 420014, Note_off_c, 0, 48, 0
1, 420023, Note_off_c, 0, 57, 0
1, 420185, Note_off_c, 0, 47, 0
1, 420202, Note_off_c, 0, 56, 0
1, 420204, Note_on_c, 0, 60, 69
1, 420212, Note_on_c, 0, 45, 68
1, 420218, Note_on_c, 0, 57, 54
1, 420365, Note_off_c, 0, 45, 0
1, 420365, Note_on_c, 0, 48, 70
1, 420548, Note_on_c, 0, 52, 73
1, 420572, Note_off_c, 0, 48, 0
1, 420724, Note_off_c, 0, 52, 0
1, 420731, Note_on_c, 0, 55, 73
1, 420844, Note_off_c, 0, 57, 0
1, 420910, Note_on_c, 0, 54, 73
1, 420926, Note_off_c, 0, 55, 0
1, 421084, Note_off_c, 0, 54, 0
1, 421095, Note_on_c, 0, 52, 64
1, 421268, Note_off_c, 0, 52, 0
1, 421280, Note_on_c, 0, 62, 67
1, 421309, Note_on_c, 0, 54, 52
1, 421317, Note_off_c, 0, 60, 0
1, 421332, Control_c, 0, 67, 84
1, 421370, Note_off_c, 0, 54, 0
1, 421455, Note_on_c, 0, 57, 71
1, 421642, Note_on_c, 0, 59, 75
1, 421664, Note_off_c, 0, 57, 0
1, 421672, Note_on_c, 0, 43, 55
1, 421727, Note_off_c, 0, 43, 0
1, 421808, Note_on_c, 0, 55, 74
1, 421812, Note_off_c, 0, 59, 0
1, 421984, Note_on_c, 0, 59, 80
1, 422017, Note_off_c, 0, 55, 0
1, 422017, Note_off_c, 0, 62, 0
1, 422158, Note_on_c, 0, 62, 81
1, 422201, Note_off_c, 0, 59, 0
1, 422358, Note_on_c, 0, 64, 75
1, 422383, Note_on_c, 0, 55, 56
1, 422393, Note_off_c, 0, 62, 0
1, 422432, Note_off_c, 0, 55, 0
1, 422545, Note_on_c, 0, 59, 61
1, 422610, Control_c, 0, 67, 80
1, 422695, Note_off_c, 0, 59, 0
1, 422737, Note_on_c, 0, 60, 52
1, 422744, Note_on_c, 0, 45, 42
1, 422812, Note_off_c, 0, 45, 0
1, 422864, Note_off_c, 0, 60, 0
1, 422913, Note_on_c, 0, 57, 57
1, 423089, Note_on_c, 0, 60, 62
1, 423140, Note_off_c, 0, 64, 0
1, 423246, Note_off_c, 0, 57, 0
1, 423272, Note_off_c, 0, 60, 0
1, 423282, Note_on_c, 0, 64, 69
1, 423474, Note_off_c, 0, 64, 0
1, 423482, Note_on_c, 0, 66, 71
1, 423486, Note_on_c, 0, 57, 59
1, 423524, Note_off_c, 0, 57, 0
1, 423637, Note_on_c, 0, 61, 74
1, 423830, Note_on_c, 0, 62, 75
1, 423849, Note_on_c, 0, 47, 63
1, 423858, Note_off_c, 0, 61, 0
1, 423931, Note_off_c, 0, 47, 0
1, 424002, Note_off_c, 0, 62, 0
1, 424007, Note_on_c, 0, 59, 80
1, 424185, Note_on_c, 0, 62, 76
1, 424230, Note_off_c, 0, 66, 0
1, 424239, Note_off_c, 0, 59, 0
1, 424372, Note_on_c, 0, 66, 81
1, 424406, Note_off_c, 0, 62, 0
1, 424570, Note_on_c, 0, 67, 75
1, 424580, Note_on_c, 0, 59, 65
1, 424610, Note_off_c, 0, 66, 0
1, 424641, Note_off_c, 0, 59, 0
1, 424737, Note_on_c, 0, 63, 62
1, 424922, Note_off_c, 0, 63, 0
1, 424932, Note_on_c, 0, 64, 62
1, 424954, Note_on_c, 0, 48, 48
1, 425003, Control_c, 0, 67, 84
1, 425037, Note_off_c, 0, 48, 0
1, 425073, Note_off_c, 0, 64, 0
1, 425095, Note_on_c, 0, 60, 62
1, 425164, Control_c, 0, 67, 88
1, 425291, Note_on_c, 0, 64, 62
1, 425301, Note_off_c, 0, 67, 0
1, 425309, Note_off_c, 0, 60, 0
1, 425457, Note_on_c, 0, 67, 61
1, 425462, Note_off_c, 0, 64, 0
1, 425646, Note_off_c, 0, 67, 0
1, 425655, Control_c, 0, 67, 84
1, 425658, Note_on_c, 0, 69, 61
1, 425660, Note_on_c, 0, 49, 59
1, 425727, Note_off_c, 0, 49, 0
1, 425827, Note_on_c, 0, 66, 61
1, 426013, Note_on_c, 0, 64, 67
1, 426018, Note_off_c, 0, 66, 0
1, 426021, Note_on_c, 0, 37, 60
1, 426098, Note_off_c, 0, 37, 0
1, 426177, Note_off_c, 0, 64, 0
1, 426177, Note_on_c, 0, 67, 66
1, 426376, Note_on_c, 0, 66, 64
1, 426376, Note_on_c, 0, 49, 60
1, 426414, Note_off_c, 0, 67, 0
1, 426516, Note_off_c, 0, 49, 0
1, 426531, Note_off_c, 0, 66, 0
1, 426549, Note_on_c, 0, 64, 63
1, 426728, Note_off_c, 0, 64, 0
1, 426739, Note_on_c, 0, 66, 59
1, 426740, Note_on_c, 0, 50, 54
1, 426804, Note_off_c, 0, 50, 0
1, 426869, Note_off_c, 0, 66, 0
1, 426870, Control_c, 0, 64, 19
1, 426880, Note_off_c, 0, 69, 0
1, 426888, Control_c, 0, 64, 27
1, 426903, Note_on_c, 0, 67, 55
1, 426907, Control_c, 0, 64, 37
1, 426913, Note_on_c, 0, 64, 49
1, 426927, Control_c, 0, 64, 48
1, 426943, Control_c, 0, 64, 55
1, 426964, Control_c, 0, 64, 59
1, 426981, Control_c, 0, 64, 61
1, 427001, Control_c, 0, 64, 63
1, 427018, Control_c, 0, 64, 64
1, 427066, Note_off_c, 0, 64, 0
1, 427074, Control_c, 0, 64, 63
1, 427087, Note_off_c, 0, 67, 0
1, 427092, Control_c, 0, 64, 57
1, 427104, Note_on_c, 0, 66, 53
1, 427109, Note_on_c, 0, 62, 48
1, 427111, Control_c, 0, 64, 46
1, 427115, Note_on_c, 0, 38, 46
1, 427140, Control_c, 0, 64, 30
1, 427159, Control_c, 0, 64, 14
1, 427171, Note_off_c, 0, 38, 0
1, 427176, Control_c, 0, 64, 9
1, 427203, Note_off_c, 0, 62, 0
1, 427266, Note_off_c, 0, 66, 0
1, 427290, Note_on_c, 0, 60, 53
1, 427292, Note_on_c, 0, 69, 53
1, 427325, Control_c, 0, 64, 15
1, 427344, Control_c, 0, 64, 23
1, 427357, Note_off_c, 0, 60, 0
1, 427361, Control_c, 0, 64, 35
1, 427381, Control_c, 0, 64, 48
1, 427398, Control_c, 0, 64, 58
1, 427416, Control_c, 0, 64, 61
1, 427436, Control_c, 0, 64, 62
1, 427455, Control_c, 0, 64, 64
1, 427462, Note_off_c, 0, 69, 0
1, 427473, Control_c, 0, 64, 65
1, 427479, Note_on_c, 0, 67, 58
1, 427492, Control_c, 0, 64, 66
1, 427502, Note_on_c, 0, 50, 45
1, 427504, Note_on_c, 0, 59, 48
1, 427529, Control_c, 0, 64, 65
1, 427545, Note_off_c, 0, 50, 0
1, 427548, Control_c, 0, 64, 60
1, 427556, Note_off_c, 0, 59, 0
1, 427567, Control_c, 0, 64, 52
1, 427586, Control_c, 0, 64, 42
1, 427602, Control_c, 0, 64, 32
1, 427620, Control_c, 0, 64, 25
1, 427640, Control_c, 0, 64, 21
1, 427654, Note_off_c, 0, 67, 0
1, 427663, Note_on_c, 0, 66, 58
1, 427674, Note_on_c, 0, 57, 52
1, 427729, Note_off_c, 0, 57, 0
1, 427901, Note_off_c, 0, 66, 0
1, 427923, Note_on_c, 0, 67, 51
1, 427936, Note_on_c, 0, 43, 47
1, 427943, Note_on_c, 0, 59, 38
1, 427998, Note_off_c, 0, 43, 0
1, 428395, Note_on_c, 0, 50, 42
1, 428498, Note_off_c, 0, 50, 0
1, 428540, Control_c, 0, 67, 88
1, 429116, Note_on_c, 0, 55, 39
1, 429378, Note_off_c, 0, 59, 0
1, 429395, Note_off_c, 0, 67, 0
1, 429464, Note_off_c, 0, 55, 0
1, 429519, Control_c, 0, 67, 98
1, 429538, Control_c, 0, 67, 104
1, 429575, Control_c, 0, 67, 108
1, 430550, Note_on_c, 0, 55, 49
1, 430568, Note_on_c, 0, 71, 56
1, 430609, Note_off_c, 0, 55, 0
1, 430612, Note_on_c, 0, 54, 53
1, 430628, Note_off_c, 0, 71, 0
1, 430675, Note_off_c, 0, 54, 0
1, 430682, Note_on_c, 0, 55, 56
1, 430737, Note_off_c, 0, 55, 0
1, 431133, Note_on_c, 0, 69, 56
1, 431180, Note_off_c, 0, 69, 0
1, 431282, Note_on_c, 0, 71, 66
1, 431301, Note_on_c, 0, 43, 46
1, 431317, Note_off_c, 0, 71, 0
1, 431337, Note_off_c, 0, 43, 0
1, 431598, Note_on_c, 0, 55, 52
1, 431617, Note_on_c, 0, 62, 59
1, 431656, Note_off_c, 0, 55, 0
1, 431657, Note_on_c, 0, 54, 51
1, 431666, Note_off_c, 0, 62, 0
1, 431725, Note_off_c, 0, 54, 0
1, 431738, Note_on_c, 0, 55, 43
1, 432136, Note_on_c, 0, 67, 54
1, 432193, Note_off_c, 0, 67, 0
1, 432294, Note_on_c, 0, 71, 67
1, 432343, Note_off_c, 0, 71, 0
1, 432623, Note_on_c, 0, 69, 61
1, 432673, Note_off_c, 0, 69, 0
1, 432681, Note_on_c, 0, 71, 65
1, 432761, Note_off_c, 0, 71, 0
1, 432783, Note_on_c, 0, 69, 59
1, 432811, Note_off_c, 0, 69, 0
1, 433168, Note_on_c, 0, 67, 55
1, 433215, Note_off_c, 0, 67, 0
1, 433305, Note_on_c, 0, 69, 67
1, 433338, Note_off_c, 0, 69, 0
1, 433507, Note_off_c, 0, 55, 0
1, 433611, Note_on_c, 0, 54, 51
1, 433625, Note_on_c, 0, 74, 66
1, 433645, Note_off_c, 0, 54, 0
1, 433678, Note_on_c, 0, 55, 59
1, 433749, Note_off_c, 0, 55, 0
1, 433765, Note_on_c, 0, 54, 60
1, 433808, Note_off_c, 0, 54, 0
1, 434167, Note_on_c, 0, 52, 56
1, 434212, Note_off_c, 0, 52, 0
1, 434286, Note_off_c, 0, 74, 0
1, 434311, Note_on_c, 0, 50, 71
1, 434349, Note_off_c, 0, 50, 0
1, 434637, Note_on_c, 0, 79, 76
1, 434666, Note_on_c, 0, 52, 42
1, 434697, Note_off_c, 0, 79, 0
1, 434700, Note_on_c, 0, 78, 77
1, 434774, Note_on_c, 0, 79, 78
1, 434780, Note_off_c, 0, 52, 0
1, 434783, Note_off_c, 0, 78, 0
1, 434812, Note_off_c, 0, 79, 0
1, 435048, Control_c, 0, 67, 104
1, 435151, Note_on_c, 0, 78, 80
1, 435196, Note_off_c, 0, 78, 0
1, 435308, Note_on_c, 0, 79, 87
1, 435326, Note_on_c, 0, 62, 51
1, 435358, Note_off_c, 0, 62, 0
1, 435367, Note_off_c, 0, 79, 0
1, 435531, Control_c, 0, 67, 100
1, 435681, Note_on_c, 0, 69, 72
1, 435693, Note_on_c, 0, 61, 48
1, 435751, Note_off_c, 0, 69, 0
1, 435783, Control_c, 0, 67, 96
1, 435876, Control_c, 0, 67, 92
1, 435932, Control_c, 0, 67, 86
1, 435967, Control_c, 0, 67, 82
1, 436023, Control_c, 0, 67, 77
1, 436062, Control_c, 0, 67, 73
1, 436065, Note_off_c, 0, 61, 0
1, 436100, Control_c, 0, 67, 69
1, 436116, Note_on_c, 0, 76, 70
1, 436173, Note_off_c, 0, 76, 0
1, 436190, Control_c, 0, 67, 65
1, 436246, Control_c, 0, 67, 60
1, 436276, Note_on_c, 0, 79, 79
1, 436283, Control_c, 0, 67, 56
1, 436306, Note_on_c, 0, 57, 43
1, 436349, Note_off_c, 0, 79, 0
1, 436356, Control_c, 0, 67, 52
1, 436387, Note_off_c, 0, 57, 0
1, 436413, Control_c, 0, 67, 48
1, 436516, Control_c, 0, 67, 43
1, 436569, Control_c, 0, 67, 39
1, 436608, Control_c, 0, 67, 35
1, 436646, Note_on_c, 0, 78, 62
1, 436661, Control_c, 0, 67, 29
1, 436665, Note_on_c, 0, 62, 48
1, 436683, Note_on_c, 0, 79, 65
1, 436690, Note_off_c, 0, 78, 0
1, 436702, Control_c, 0, 67, 25
1, 436756, Note_on_c, 0, 78, 64
1, 436771, Note_off_c, 0, 79, 0
1, 436774, Control_c, 0, 67, 21
1, 436830, Note_off_c, 0, 78, 0
1, 436868, Control_c, 0, 67, 17
1, 437017, Control_c, 0, 67, 12
1, 437091, Control_c, 0, 67, 8
1, 437185, Note_on_c, 0, 76, 63
1, 437236, Note_off_c, 0, 76, 0
1, 437347, Note_on_c, 0, 78, 69
1, 437398, Note_off_c, 0, 78, 0
1, 437729, Note_on_c, 0, 74, 49
1, 437883, Note_off_c, 0, 62, 0
1, 438214, Note_on_c, 0, 64, 46
1, 438258, Note_off_c, 0, 64, 0
1, 438392, Note_on_c, 0, 60, 54
1, 438434, Note_off_c, 0, 60, 0
1, 438629, Control_c, 0, 67, 12
1, 438686, Control_c, 0, 67, 17
1, 438703, Control_c, 0, 67, 21
1, 438723, Control_c, 0, 67, 25
1, 438758, Note_on_c, 0, 59, 52
1, 438758, Control_c, 0, 67, 31
1, 438796, Control_c, 0, 67, 37
1, 438833, Control_c, 0, 67, 42
1, 439053, Note_off_c, 0, 59, 0
1, 439053, Note_off_c, 0, 74, 0
1, 439204, Control_c, 0, 67, 46
1, 439249, Note_on_c, 0, 60, 46
1, 439335, Note_off_c, 0, 60, 0
1, 439405, Note_on_c, 0, 57, 46
1, 439418, Control_c, 0, 67, 42
1, 439421, Note_on_c, 0, 76, 69
1, 439442, Note_off_c, 0, 57, 0
1, 439475, Note_off_c, 0, 76, 0
1, 439489, Note_on_c, 0, 78, 72
1, 439556, Note_on_c, 0, 79, 73
1, 439579, Note_off_c, 0, 78, 0
1, 439603, Control_c, 0, 67, 38
1, 439622, Note_on_c, 0, 81, 65
1, 439637, Note_off_c, 0, 79, 0
1, 439715, Note_on_c, 0, 83, 88
1, 439733, Note_off_c, 0, 81, 0
1, 439738, Note_on_c, 0, 55, 45
1, 439775, Note_off_c, 0, 83, 0
1, 439787, Note_off_c, 0, 55, 0
1, 440190, Note_on_c, 0, 79, 72
1, 440209, Note_on_c, 0, 57, 50
1, 440236, Note_off_c, 0, 79, 0
1, 440266, Note_off_c, 0, 57, 0
1, 440354, Note_on_c, 0, 74, 72
1, 440369, Note_on_c, 0, 59, 56
1, 440414, Note_off_c, 0, 74, 0
1, 440418, Note_off_c, 0, 59, 0
1, 440707, Note_on_c, 0, 76, 66
1, 440740, Note_on_c, 0, 60, 45
1, 440986, Note_off_c, 0, 60, 0
1, 441060, Note_off_c, 0, 76, 0
1, 441212, Note_on_c, 0, 62, 53
1, 441249, Note_off_c, 0, 62, 0
1, 441358, Note_on_c, 0, 78, 79
1, 441363, Note_on_c, 0, 59, 64
1, 441405, Note_off_c, 0, 59, 0
1, 441409, Note_off_c, 0, 78, 0
1, 441422, Note_on_c, 0, 79, 79
1, 441502, Note_on_c, 0, 81, 77
1, 441516, Note_off_c, 0, 79, 0
1, 441559, Note_on_c, 0, 83, 81
1, 441585, Note_off_c, 0, 81, 0
1, 441660, Note_on_c, 0, 84, 91
1, 441669, Note_off_c, 0, 83, 0
1, 441690, Note_on_c, 0, 57, 52
1, 441720, Note_off_c, 0, 84, 0
1, 441734, Note_off_c, 0, 57, 0
1, 442145, Note_on_c, 0, 81, 77
1, 442171, Note_on_c, 0, 59, 49
1, 442194, Note_off_c, 0, 81, 0
1, 442219, Note_off_c, 0, 59, 0
1, 442305, Note_on_c, 0, 76, 77
1, 442311, Note_on_c, 0, 60, 61
1, 442361, Note_off_c, 0, 60, 0
1, 442389, Note_off_c, 0, 76, 0
1, 442668, Note_on_c, 0, 78, 69
1, 442681, Note_on_c, 0, 62, 43
1, 442783, Note_off_c, 0, 78, 0
1, 442869, Note_off_c, 0, 62, 0
1, 443152, Note_on_c, 0, 74, 67
1, 443170, Note_on_c, 0, 60, 45
1, 443194, Note_off_c, 0, 74, 0
1, 443204, Note_off_c, 0, 60, 0
1, 443313, Note_on_c, 0, 79, 74
1, 443339, Note_on_c, 0, 59, 48
1, 443380, Note_off_c, 0, 79, 0
1, 443400, Note_off_c, 0, 59, 0
1, 443685, Note_on_c, 0, 69, 59
1, 443693, Note_on_c, 0, 60, 43
1, 443823, Note_off_c, 0, 69, 0
1, 443948, Note_off_c, 0, 60, 0
1, 444151, Note_on_c, 0, 71, 60
1, 444192, Note_off_c, 0, 71, 0
1, 444322, Note_on_c, 0, 72, 60
1, 444325, Note_on_c, 0, 62, 47
1, 444357, Note_off_c, 0, 62, 0
1, 444363, Note_off_c, 0, 72, 0
1, 444658, Note_on_c, 0, 72, 61
1, 444675, Note_on_c, 0, 55, 45
1, 444725, Note_off_c, 0, 72, 0
1, 444906, Note_off_c, 0, 55, 0
1, 445004, Note_on_c, 0, 71, 62
1, 445132, Note_on_c, 0, 54, 60
1, 445170, Note_off_c, 0, 54, 0
1, 445302, Note_on_c, 0, 55, 62
1, 445344, Note_off_c, 0, 55, 0
1, 445667, Note_on_c, 0, 50, 51
1, 445881, Note_off_c, 0, 71, 0
1, 445938, Note_off_c, 0, 50, 0
1, 446175, Note_on_c, 0, 57, 63
1, 446184, Note_on_c, 0, 69, 65
1, 446221, Note_off_c, 0, 57, 0
1, 446244, Note_off_c, 0, 69, 0
1, 446336, Note_on_c, 0, 67, 72
1, 446343, Note_on_c, 0, 60, 76
1, 446394, Note_off_c, 0, 67, 0
1, 446412, Note_off_c, 0, 60, 0
1, 446476, Note_on_c, 0, 66, 76
1, 446519, Note_off_c, 0, 66, 0
1, 446642, Note_on_c, 0, 59, 68
1, 446649, Note_on_c, 0, 67, 71
1, 446682, Note_off_c, 0, 59, 0
1, 446707, Note_on_c, 0, 60, 74
1, 446786, Note_off_c, 0, 60, 0
1, 446801, Note_on_c, 0, 59, 76
1, 446853, Note_off_c, 0, 59, 0
1, 446868, Note_off_c, 0, 67, 0
1, 447140, Note_on_c, 0, 57, 61
1, 447179, Note_off_c, 0, 57, 0
1, 447313, Note_on_c, 0, 74, 83
1, 447319, Note_on_c, 0, 59, 70
1, 447369, Note_off_c, 0, 59, 0
1, 447381, Note_off_c, 0, 74, 0
1, 447624, Note_on_c, 0, 79, 74
1, 447657, Note_on_c, 0, 52, 54
1, 447687, Note_off_c, 0, 79, 0
1, 447690, Note_on_c, 0, 78, 75
1, 447775, Note_on_c, 0, 79, 79
1, 447798, Note_off_c, 0, 78, 0
1, 447875, Note_off_c, 0, 52, 0
1, 448129, Note_on_c, 0, 59, 70
1, 448174, Note_off_c, 0, 59, 0
1, 448286, Note_on_c, 0, 62, 76
1, 448348, Note_off_c, 0, 62, 0
1, 448569, Note_on_c, 0, 61, 68
1, 448611, Note_off_c, 0, 61, 0
1, 448618, Note_on_c, 0, 62, 64
1, 448705, Note_on_c, 0, 61, 75
1, 448717, Note_off_c, 0, 62, 0
1, 448837, Note_off_c, 0, 79, 0
1, 448900, Note_off_c, 0, 61, 0
1, 448955, Note_on_c, 0, 81, 74
1, 449018, Note_off_c, 0, 81, 0
1, 449096, Note_on_c, 0, 79, 79
1, 449108, Note_on_c, 0, 59, 64
1, 449150, Note_off_c, 0, 59, 0
1, 449156, Note_off_c, 0, 79, 0
1, 449238, Note_on_c, 0, 78, 82
1, 449247, Note_on_c, 0, 57, 75
1, 449287, Note_off_c, 0, 57, 0
1, 449288, Note_off_c, 0, 78, 0
1, 449388, Note_on_c, 0, 76, 82
1, 449463, Note_off_c, 0, 76, 0
1, 449567, Note_on_c, 0, 78, 72
1, 449589, Note_on_c, 0, 62, 65
1, 449635, Note_off_c, 0, 78, 0
1, 449636, Note_on_c, 0, 76, 79
1, 449711, Note_on_c, 0, 78, 75
1, 449731, Note_off_c, 0, 76, 0
1, 449814, Note_off_c, 0, 62, 0
1, 450087, Note_on_c, 0, 61, 66
1, 450121, Note_off_c, 0, 61, 0
1, 450266, Note_on_c, 0, 62, 70
1, 450328, Note_off_c, 0, 62, 0
1, 450626, Note_on_c, 0, 55, 69
1, 450897, Note_off_c, 0, 78, 0
1, 450899, Note_off_c, 0, 55, 0
1, 451101, Note_on_c, 0, 79, 73
1, 451106, Note_on_c, 0, 59, 71
1, 451160, Note_off_c, 0, 59, 0
1, 451169, Note_off_c, 0, 79, 0
1, 451272, Note_on_c, 0, 78, 74
1, 451275, Note_on_c, 0, 62, 78
1, 451340, Note_off_c, 0, 78, 0
1, 451359, Note_off_c, 0, 62, 0
1, 451655, Note_on_c, 0, 67, 69
1, 451656, Note_on_c, 0, 76, 63
1, 451768, Note_off_c, 0, 76, 0
1, 452037, Control_c, 0, 67, 42
1, 452112, Note_on_c, 0, 73, 68
1, 452162, Note_off_c, 0, 73, 0
1, 452272, Note_on_c, 0, 74, 70
1, 452324, Note_off_c, 0, 74, 0
1, 452560, Note_on_c, 0, 73, 65
1, 452593, Note_off_c, 0, 73, 0
1, 452604, Note_on_c, 0, 74, 61
1, 452673, Note_on_c, 0, 73, 73
1, 452682, Note_off_c, 0, 74, 0
1, 452713, Note_off_c, 0, 67, 0
1, 452928, Note_on_c, 0, 69, 53
1, 452938, Note_off_c, 0, 73, 0
1, 452958, Note_off_c, 0, 69, 0
1, 453054, Note_on_c, 0, 74, 66
1, 453060, Note_on_c, 0, 67, 58
1, 453106, Note_off_c, 0, 74, 0
1, 453112, Note_off_c, 0, 67, 0
1, 453223, Note_on_c, 0, 66, 48
1, 453228, Note_on_c, 0, 76, 64
1, 453265, Note_off_c, 0, 66, 0
1, 453270, Note_off_c, 0, 76, 0
1, 453381, Note_on_c, 0, 64, 57
1, 453420, Note_off_c, 0, 64, 0
1, 453568, Note_on_c, 0, 69, 59
1, 453576, Control_c, 0, 67, 46
1, 453587, Note_on_c, 0, 66, 52
1, 453666, Note_off_c, 0, 66, 0
1, 453726, Control_c, 0, 67, 56
1, 453745, Control_c, 0, 67, 61
1, 453782, Control_c, 0, 67, 66
1, 453818, Control_c, 0, 67, 70
1, 454072, Note_on_c, 0, 67, 42
1, 454073, Note_off_c, 0, 69, 0
1, 454105, Note_off_c, 0, 67, 0
1, 454244, Note_on_c, 0, 69, 53
1, 454586, Note_on_c, 0, 62, 52
1, 454648, Note_off_c, 0, 62, 0
1, 454902, Note_off_c, 0, 69, 0
1, 455087, Note_on_c, 0, 57, 51
1, 455126, Note_off_c, 0, 57, 0
1, 455236, Note_on_c, 0, 54, 57
1, 455243, Note_on_c, 0, 71, 65
1, 455267, Note_off_c, 0, 54, 0
1, 455306, Note_off_c, 0, 71, 0
1, 455309, Note_on_c, 0, 73, 64
1, 455371, Note_on_c, 0, 74, 68
1, 455385, Note_off_c, 0, 73, 0
1, 455453, Note_on_c, 0, 76, 65
1, 455459, Note_off_c, 0, 74, 0
1, 455539, Note_on_c, 0, 78, 81
1, 455555, Note_off_c, 0, 76, 0
1, 455567, Note_on_c, 0, 50, 53
1, 455589, Note_off_c, 0, 78, 0
1, 455625, Note_off_c, 0, 50, 0
1, 456018, Note_on_c, 0, 74, 68
1, 456026, Note_on_c, 0, 52, 51
1, 456058, Note_off_c, 0, 74, 0
1, 456073, Note_off_c, 0, 52, 0
1, 456187, Note_on_c, 0, 69, 77
1, 456199, Note_on_c, 0, 54, 55
1, 456240, Note_off_c, 0, 54, 0
1, 456247, Note_off_c, 0, 69, 0
1, 456536, Note_on_c, 0, 71, 72
1, 456575, Note_on_c, 0, 55, 37
1, 456665, Note_off_c, 0, 55, 0
1, 456877, Note_off_c, 0, 71, 0
1, 456999, Note_on_c, 0, 57, 58
1, 457045, Note_off_c, 0, 57, 0
1, 457161, Note_on_c, 0, 73, 76
1, 457175, Note_on_c, 0, 54, 67
1, 457208, Note_off_c, 0, 73, 0
1, 457220, Note_off_c, 0, 54, 0
1, 457234, Note_on_c, 0, 74, 80
1, 457305, Note_on_c, 0, 76, 80
1, 457315, Note_off_c, 0, 74, 0
1, 457371, Note_on_c, 0, 78, 76
1, 457403, Note_off_c, 0, 76, 0
1, 457468, Note_on_c, 0, 79, 90
1, 457483, Note_off_c, 0, 78, 0
1, 457492, Note_on_c, 0, 52, 60
1, 457531, Note_off_c, 0, 79, 0
1, 457535, Note_off_c, 0, 52, 0
1, 457949, Note_on_c, 0, 76, 77
1, 457960, Note_on_c, 0, 54, 58
1, 458009, Note_off_c, 0, 76, 0
1, 458011, Note_off_c, 0, 54, 0
1, 458120, Note_on_c, 0, 71, 84
1, 458144, Note_on_c, 0, 55, 58
1, 458181, Note_off_c, 0, 71, 0
1, 458193, Note_off_c, 0, 55, 0
1, 458457, Note_on_c, 0, 71, 75
1, 458467, Note_on_c, 0, 57, 56
1, 458536, Note_off_c, 0, 71, 0
1, 458589, Note_off_c, 0, 57, 0
1, 458614, Note_on_c, 0, 73, 82
1, 458673, Note_off_c, 0, 73, 0
1, 458912, Note_on_c, 0, 69, 72
1, 458929, Note_on_c, 0, 55, 49
1, 458973, Note_off_c, 0, 69, 0
1, 458995, Note_off_c, 0, 55, 0
1, 459111, Note_on_c, 0, 81, 78
1, 459132, Note_on_c, 0, 54, 46
1, 459171, Note_off_c, 0, 54, 0
1, 459176, Note_off_c, 0, 81, 0
1, 459483, Note_on_c, 0, 74, 66
1, 459510, Note_on_c, 0, 59, 45
1, 459572, Note_off_c, 0, 74, 0
1, 459587, Note_off_c, 0, 59, 0
1, 459915, Note_on_c, 0, 76, 65
1, 459928, Note_on_c, 0, 55, 44
1, 459967, Note_off_c, 0, 76, 0
1, 459978, Note_off_c, 0, 55, 0
1, 460094, Note_on_c, 0, 73, 64
1, 460126, Note_on_c, 0, 57, 36
1, 460160, Note_off_c, 0, 73, 0
1, 460168, Note_off_c, 0, 57, 0
1, 460457, Note_on_c, 0, 73, 59
1, 460459, Note_on_c, 0, 50, 45
1, 460563, Note_off_c, 0, 73, 0
1, 460707, Note_off_c, 0, 50, 0
1, 460797, Note_on_c, 0, 74, 57
1, 460950, Note_on_c, 0, 54, 51
1, 460983, Note_off_c, 0, 54, 0
1, 461142, Note_on_c, 0, 57, 52
1, 461174, Note_off_c, 0, 57, 0
1, 461522, Note_on_c, 0, 62, 42
1, 461969, Note_off_c, 0, 74, 0
1, 462086, Note_off_c, 0, 62, 0
1, 462213, Control_c, 0, 67, 66
1, 462591, Note_on_c, 0, 78, 69
1, 462619, Note_on_c, 0, 62, 52
1, 462674, Note_off_c, 0, 78, 0
1, 462735, Note_off_c, 0, 62, 0
1, 463044, Note_on_c, 0, 76, 71
1, 463121, Note_off_c, 0, 76, 0
1, 463221, Note_on_c, 0, 78, 82
1, 463235, Note_on_c, 0, 50, 52
1, 463283, Note_off_c, 0, 78, 0
1, 463284, Note_off_c, 0, 50, 0
1, 463572, Note_on_c, 0, 69, 77
1, 463598, Note_on_c, 0, 62, 59
1, 463667, Note_off_c, 0, 69, 0
1, 463911, Note_off_c, 0, 62, 0
1, 464013, Note_on_c, 0, 74, 74
1, 464096, Note_off_c, 0, 74, 0
1, 464186, Note_on_c, 0, 78, 86
1, 464200, Note_on_c, 0, 60, 61
1, 464253, Note_off_c, 0, 78, 0
1, 464255, Note_off_c, 0, 60, 0
1, 464502, Note_on_c, 0, 59, 56
1, 464508, Note_on_c, 0, 79, 81
1, 464541, Note_off_c, 0, 59, 0
1, 464553, Note_on_c, 0, 60, 69
1, 464643, Note_on_c, 0, 59, 73
1, 464659, Note_off_c, 0, 60, 0
1, 464709, Note_off_c, 0, 59, 0
1, 464747, Note_off_c, 0, 79, 0
1, 465005, Note_on_c, 0, 78, 81
1, 465021, Note_on_c, 0, 57, 66
1, 465065, Note_off_c, 0, 57, 0
1, 465081, Note_off_c, 0, 78, 0
1, 465171, Note_on_c, 0, 79, 88
1, 465180, Note_on_c, 0, 59, 72
1, 465238, Note_off_c, 0, 59, 0
1, 465258, Note_off_c, 0, 79, 0
1, 465566, Note_on_c, 0, 83, 80
1, 465596, Note_on_c, 0, 55, 41
1, 465703, Note_off_c, 0, 55, 0
1, 466010, Note_on_c, 0, 57, 59
1, 466060, Note_off_c, 0, 57, 0
1, 466201, Note_on_c, 0, 59, 70
1, 466261, Note_off_c, 0, 59, 0
1, 466445, Note_off_c, 0, 83, 0
1, 466537, Note_on_c, 0, 76, 73
1, 466573, Note_on_c, 0, 60, 44
1, 466836, Note_off_c, 0, 60, 0
1, 466952, Note_off_c, 0, 76, 0
1, 466998, Note_on_c, 0, 62, 66
1, 467042, Note_off_c, 0, 62, 0
1, 467162, Note_on_c, 0, 78, 81
1, 467174, Note_on_c, 0, 59, 65
1, 467212, Note_off_c, 0, 59, 0
1, 467218, Note_off_c, 0, 78, 0
1, 467239, Note_on_c, 0, 79, 80
1, 467316, Note_on_c, 0, 81, 81
1, 467320, Note_off_c, 0, 79, 0
1, 467378, Note_on_c, 0, 83, 81
1, 467414, Note_off_c, 0, 81, 0
1, 467503, Note_on_c, 0, 84, 90
1, 467508, Note_off_c, 0, 83, 0
1, 467523, Note_on_c, 0, 57, 60
1, 467564, Note_off_c, 0, 84, 0
1, 467566, Note_off_c, 0, 57, 0
1, 467653, Note_on_c, 0, 83, 85
1, 467713, Note_off_c, 0, 83, 0
1, 467807, Note_on_c, 0, 81, 86
1, 467860, Note_off_c, 0, 81, 0
1, 467946, Note_on_c, 0, 79, 80
1, 467966, Note_on_c, 0, 59, 62
1, 468003, Note_off_c, 0, 59, 0
1, 468011, Note_off_c, 0, 79, 0
1, 468108, Note_on_c, 0, 78, 79
1, 468119, Note_on_c, 0, 60, 62
1, 468154, Note_off_c, 0, 60, 0
1, 468159, Note_off_c, 0, 78, 0
1, 468255, Note_on_c, 0, 76, 70
1, 468329, Note_off_c, 0, 76, 0
1, 468427, Note_on_c, 0, 75, 68
1, 468456, Note_on_c, 0, 59, 55
1, 468479, Note_off_c, 0, 75, 0
1, 468490, Note_on_c, 0, 76, 71
1, 468561, Note_on_c, 0, 75, 74
1, 468566, Note_off_c, 0, 76, 0
1, 468614, Note_off_c, 0, 75, 0
1, 468778, Note_off_c, 0, 59, 0
1, 468939, Note_on_c, 0, 73, 66
1, 468981, Note_off_c, 0, 73, 0
1, 469106, Note_on_c, 0, 75, 68
1, 469129, Note_on_c, 0, 47, 46
1, 469164, Note_off_c, 0, 75, 0
1, 469180, Note_off_c, 0, 47, 0
1, 469481, Note_on_c, 0, 71, 56
1, 469494, Note_on_c, 0, 59, 43
1, 469569, Note_off_c, 0, 59, 0
1, 469976, Note_on_c, 0, 57, 49
1, 470011, Note_off_c, 0, 57, 0
1, 470131, Note_on_c, 0, 59, 61
1, 470172, Note_off_c, 0, 59, 0
1, 470472, Note_on_c, 0, 55, 56
1, 470538, Note_off_c, 0, 71, 0
1, 470730, Note_off_c, 0, 55, 0
1, 470947, Note_on_c, 0, 83, 78
1, 471031, Note_off_c, 0, 83, 0
1, 471110, Note_on_c, 0, 78, 80
1, 471111, Note_on_c, 0, 57, 57
1, 471175, Note_off_c, 0, 78, 0
1, 471177, Note_off_c, 0, 57, 0
1, 471179, Note_on_c, 0, 59, 58
1, 471266, Note_on_c, 0, 61, 69
1, 471316, Note_off_c, 0, 59, 0
1, 471338, Note_on_c, 0, 63, 71
1, 471358, Note_off_c, 0, 61, 0
1, 471436, Note_on_c, 0, 79, 87
1, 471444, Note_off_c, 0, 63, 0
1, 471448, Note_on_c, 0, 64, 75
1, 471506, Note_off_c, 0, 64, 0
1, 471509, Note_off_c, 0, 79, 0
1, 471902, Note_on_c, 0, 75, 81
1, 471912, Note_on_c, 0, 59, 63
1, 471962, Note_off_c, 0, 75, 0
1, 471974, Note_off_c, 0, 59, 0
1, 471986, Control_c, 0, 67, 62
1, 472054, Note_on_c, 0, 76, 88
1, 472068, Note_on_c, 0, 55, 74
1, 472127, Note_off_c, 0, 76, 0
1, 472182, Note_off_c, 0, 55, 0
1, 472424, Note_on_c, 0, 72, 82
1, 472436, Note_on_c, 0, 57, 71
1, 472615, Note_off_c, 0, 57, 0
1, 472616, Note_off_c, 0, 72, 0
1, 472886, Note_on_c, 0, 76, 80
1, 472952, Note_off_c, 0, 76, 0
1, 473052, Note_on_c, 0, 59, 63
1, 473053, Note_on_c, 0, 80, 88
1, 473115, Note_off_c, 0, 59, 0
1, 473124, Note_off_c, 0, 80, 0
1, 473144, Note_on_c, 0, 60, 58
1, 473199, Note_on_c, 0, 62, 62
1, 473219, Note_off_c, 0, 60, 0
1, 473306, Note_off_c, 0, 62, 0
1, 473306, Note_on_c, 0, 64, 63
1, 473436, Note_off_c, 0, 64, 0
1, 473446, Note_on_c, 0, 81, 80
1, 473467, Note_on_c, 0, 65, 57
1, 473565, Note_off_c, 0, 65, 0
1, 473668, Poly_aftertouch_c, 0, 80, 127
1, 473684, Poly_aftertouch_c, 0, 80, 0
1, 473997, Note_on_c, 0, 64, 42
1, 474033, Note_off_c, 0, 81, 0
1, 474043, Note_off_c, 0, 64, 0
1, 474149, Note_on_c, 0, 63, 53
1, 474163, Note_on_c, 0, 83, 66
1, 474175, Note_off_c, 0, 63, 0
1, 474232, Note_off_c, 0, 83, 0
1, 474239, Note_on_c, 0, 81, 64
1, 474320, Note_off_c, 0, 81, 0
1, 474320, Note_on_c, 0, 79, 64
1, 474394, Note_off_c, 0, 79, 0
1, 474413, Note_on_c, 0, 78, 62
1, 474481, Note_off_c, 0, 78, 0
1, 474490, Note_on_c, 0, 79, 61
1, 474503, Note_on_c, 0, 64, 48
1, 474547, Note_off_c, 0, 79, 0
1, 474561, Note_off_c, 0, 64, 0
1, 474946, Note_on_c, 0, 81, 63
1, 475004, Note_off_c, 0, 81, 0
1, 475112, Note_on_c, 0, 83, 72
1, 475130, Note_on_c, 0, 55, 40
1, 475167, Note_off_c, 0, 83, 0
1, 475191, Note_off_c, 0, 55, 0
1, 475465, Note_on_c, 0, 76, 63
1, 475484, Note_on_c, 0, 60, 44
1, 475558, Note_off_c, 0, 76, 0
1, 475570, Note_off_c, 0, 60, 0
1, 475932, Note_on_c, 0, 78, 62
1, 475948, Note_on_c, 0, 57, 47
1, 475975, Note_off_c, 0, 78, 0
1, 475981, Note_off_c, 0, 57, 0
1, 476103, Note_on_c, 0, 75, 64
1, 476116, Note_on_c, 0, 59, 53
1, 476147, Note_off_c, 0, 59, 0
1, 476148, Note_off_c, 0, 75, 0
1, 476491, Note_on_c, 0, 76, 57
1, 476511, Note_on_c, 0, 52, 38
1, 476564, Note_off_c, 0, 76, 0
1, 476976, Note_on_c, 0, 71, 46
1, 477007, Note_off_c, 0, 71, 0
1, 477149, Note_on_c, 0, 67, 54
1, 477190, Note_off_c, 0, 67, 0
1, 477549, Note_on_c, 0, 64, 39
1, 477688, Note_off_c, 0, 52, 0
1, 477779, Note_off_c, 0, 64, 0
1, 478093, Note_on_c, 0, 64, 73
1, 478166, Note_off_c, 0, 64, 0
1, 478240, Note_on_c, 0, 71, 59
1, 478241, Note_on_c, 0, 62, 78
1, 478307, Note_off_c, 0, 71, 0
1, 478315, Note_off_c, 0, 62, 0
1, 478552, Note_on_c, 0, 60, 65
1, 478573, Note_on_c, 0, 71, 72
1, 478592, Note_off_c, 0, 60, 0
1, 478610, Note_on_c, 0, 62, 72
1, 478693, Note_on_c, 0, 60, 79
1, 478708, Note_off_c, 0, 62, 0
1, 478737, Note_off_c, 0, 71, 0
1, 478769, Note_off_c, 0, 60, 0
1, 479061, Note_on_c, 0, 59, 71
1, 479066, Note_on_c, 0, 68, 74
1, 479108, Note_off_c, 0, 68, 0
1, 479108, Note_off_c, 0, 59, 0
1, 479212, Note_on_c, 0, 60, 76
1, 479218, Note_on_c, 0, 69, 76
1, 479288, Note_off_c, 0, 60, 0
1, 479305, Note_off_c, 0, 69, 0
1, 479572, Note_on_c, 0, 74, 61
1, 479573, Note_on_c, 0, 56, 68
1, 479698, Note_off_c, 0, 74, 0
1, 479777, Note_off_c, 0, 56, 0
1, 479888, Note_on_c, 0, 76, 66
1, 479935, Note_off_c, 0, 76, 0
1, 480032, Note_on_c, 0, 74, 74
1, 480037, Note_on_c, 0, 59, 76
1, 480082, Note_off_c, 0, 74, 0
1, 480088, Note_off_c, 0, 59, 0
1, 480182, Note_on_c, 0, 72, 76
1, 480190, Note_on_c, 0, 52, 75
1, 480228, Note_off_c, 0, 72, 0
1, 480257, Note_off_c, 0, 52, 0
1, 480320, Note_on_c, 0, 71, 69
1, 480375, Note_off_c, 0, 71, 0
1, 480519, Note_on_c, 0, 72, 68
1, 480537, Note_on_c, 0, 57, 77
1, 480651, Note_off_c, 0, 72, 0
1, 480700, Note_off_c, 0, 57, 0
1, 481004, Note_on_c, 0, 60, 63
1, 481006, Note_on_c, 0, 76, 68
1, 481056, Note_off_c, 0, 60, 0
1, 481061, Note_off_c, 0, 76, 0
1, 481168, Note_on_c, 0, 74, 72
1, 481170, Note_on_c, 0, 59, 64
1, 481214, Note_off_c, 0, 59, 0
1, 481243, Note_off_c, 0, 74, 0
1, 481474, Note_on_c, 0, 76, 52
1, 481477, Note_on_c, 0, 60, 53
1, 481632, Note_off_c, 0, 76, 0
1, 481688, Note_off_c, 0, 60, 0
1, 481961, Note_on_c, 0, 79, 85
1, 481967, Note_on_c, 0, 59, 63
1, 482018, Note_off_c, 0, 59, 0
1, 482023, Note_off_c, 0, 79, 0
1, 482117, Note_on_c, 0, 78, 89
1, 482129, Note_on_c, 0, 57, 65
1, 482179, Note_off_c, 0, 57, 0
1, 482214, Note_off_c, 0, 78, 0
1, 482453, Note_on_c, 0, 79, 79
1, 482472, Note_on_c, 0, 59, 59
1, 482619, Note_off_c, 0, 79, 0
1, 482645, Note_off_c, 0, 59, 0
1, 482750, Note_on_c, 0, 81, 81
1, 482834, Note_off_c, 0, 81, 0
1, 482892, Note_on_c, 0, 64, 75
1, 482892, Note_on_c, 0, 79, 81
1, 482945, Note_off_c, 0, 64, 0
1, 482963, Note_off_c, 0, 79, 0
1, 483048, Note_on_c, 0, 78, 87
1, 483057, Note_on_c, 0, 62, 73
1, 483101, Note_off_c, 0, 62, 0
1, 483113, Note_off_c, 0, 78, 0
1, 483188, Note_on_c, 0, 76, 82
1, 483257, Note_off_c, 0, 76, 0
1, 483366, Note_on_c, 0, 61, 64
1, 483384, Note_on_c, 0, 81, 88
1, 483405, Note_off_c, 0, 61, 0
1, 483416, Note_on_c, 0, 62, 63
1, 483485, Note_off_c, 0, 62, 0
1, 483502, Note_on_c, 0, 61, 67
1, 483552, Note_off_c, 0, 61, 0
1, 483613, Note_off_c, 0, 81, 0
1, 483835, Note_on_c, 0, 83, 84
1, 483845, Note_on_c, 0, 59, 60
1, 483890, Note_off_c, 0, 59, 0
1, 483896, Note_off_c, 0, 83, 0
1, 484005, Note_on_c, 0, 79, 79
1, 484013, Note_on_c, 0, 61, 66
1, 484058, Note_off_c, 0, 61, 0
1, 484086, Note_off_c, 0, 79, 0
1, 484340, Note_on_c, 0, 78, 72
1, 484354, Note_on_c, 0, 62, 56
1, 484375, Note_off_c, 0, 78, 0
1, 484377, Note_on_c, 0, 79, 76
1, 484459, Note_on_c, 0, 78, 77
1, 484476, Note_off_c, 0, 79, 0
1, 484538, Note_off_c, 0, 78, 0
1, 484817, Note_on_c, 0, 76, 64
1, 484870, Note_off_c, 0, 76, 0
1, 484991, Note_on_c, 0, 78, 73
1, 485046, Note_off_c, 0, 78, 0
1, 485420, Note_on_c, 0, 74, 55
1, 485568, Note_off_c, 0, 62, 0
1, 485906, Note_on_c, 0, 64, 54
1, 485954, Note_off_c, 0, 64, 0
1, 486072, Note_on_c, 0, 60, 58
1, 486123, Note_off_c, 0, 60, 0
1, 486426, Note_on_c, 0, 59, 50
1, 486694, Note_off_c, 0, 74, 0
1, 486727, Note_off_c, 0, 59, 0
1, 486947, Note_on_c, 0, 60, 49
1, 486976, Note_off_c, 0, 60, 0
1, 487100, Note_on_c, 0, 76, 71
1, 487100, Note_on_c, 0, 57, 47
1, 487133, Note_off_c, 0, 57, 0
1, 487154, Note_off_c, 0, 76, 0
1, 487171, Note_on_c, 0, 78, 68
1, 487246, Note_on_c, 0, 79, 72
1, 487252, Note_off_c, 0, 78, 0
1, 487311, Note_on_c, 0, 81, 59
1, 487326, Note_off_c, 0, 79, 0
1, 487401, Note_on_c, 0, 83, 85
1, 487415, Note_off_c, 0, 81, 0
1, 487428, Note_on_c, 0, 55, 47
1, 487456, Note_off_c, 0, 83, 0
1, 487463, Note_off_c, 0, 55, 0
1, 487869, Note_on_c, 0, 79, 69
1, 487891, Note_on_c, 0, 57, 44
1, 487910, Note_off_c, 0, 79, 0
1, 487941, Note_off_c, 0, 57, 0
1, 488051, Note_on_c, 0, 74, 70
1, 488074, Note_on_c, 0, 59, 52
1, 488099, Note_off_c, 0, 74, 0
1, 488109, Note_off_c, 0, 59, 0
1, 488395, Note_on_c, 0, 76, 61
1, 488419, Note_on_c, 0, 60, 45
1, 488673, Note_off_c, 0, 60, 0
1, 488808, Note_off_c, 0, 76, 0
1, 488878, Note_on_c, 0, 62, 55
1, 488926, Note_off_c, 0, 62, 0
1, 489018, Note_on_c, 0, 78, 73
1, 489028, Note_on_c, 0, 59, 64
1, 489066, Note_off_c, 0, 59, 0
1, 489068, Note_off_c, 0, 78, 0
1, 489091, Note_on_c, 0, 79, 79
1, 489174, Note_on_c, 0, 81, 80
1, 489178, Note_off_c, 0, 79, 0
1, 489224, Note_on_c, 0, 83, 79
1, 489244, Note_off_c, 0, 81, 0
1, 489331, Note_on_c, 0, 84, 92
1, 489340, Note_off_c, 0, 83, 0
1, 489351, Note_on_c, 0, 57, 58
1, 489393, Note_off_c, 0, 84, 0
1, 489403, Note_off_c, 0, 57, 0
1, 489794, Note_on_c, 0, 81, 75
1, 489804, Note_on_c, 0, 59, 54
1, 489841, Note_off_c, 0, 81, 0
1, 489858, Note_off_c, 0, 59, 0
1, 489949, Note_on_c, 0, 76, 84
1, 489953, Note_on_c, 0, 60, 69
1, 490003, Note_off_c, 0, 60, 0
1, 490009, Note_off_c, 0, 76, 0
1, 490289, Note_on_c, 0, 76, 77
1, 490306, Note_on_c, 0, 62, 50
1, 490351, Note_off_c, 0, 76, 0
1, 490424, Note_off_c, 0, 62, 0
1, 490439, Note_on_c, 0, 78, 82
1, 490494, Note_off_c, 0, 78, 0
1, 490757, Note_on_c, 0, 74, 68
1, 490776, Note_on_c, 0, 60, 43
1, 490813, Note_off_c, 0, 74, 0
1, 490823, Note_off_c, 0, 60, 0
1, 490959, Note_on_c, 0, 86, 68
1, 490981, Note_on_c, 0, 59, 50
1, 491014, Note_off_c, 0, 86, 0
1, 491019, Note_off_c, 0, 59, 0
1, 491337, Note_on_c, 0, 79, 67
1, 491354, Note_on_c, 0, 64, 48
1, 491423, Note_off_c, 0, 64, 0
1, 491430, Note_off_c, 0, 79, 0
1, 491792, Note_on_c, 0, 81, 61
1, 491801, Note_on_c, 0, 60, 43
1, 491833, Note_off_c, 0, 81, 0
1, 491843, Note_off_c, 0, 60, 0
1, 491978, Note_on_c, 0, 78, 57
1, 491980, Note_on_c, 0, 62, 56
1, 492020, Note_off_c, 0, 62, 0
1, 492034, Note_off_c, 0, 78, 0
1, 492330, Note_on_c, 0, 78, 50
1, 492349, Note_on_c, 0, 55, 39
1, 492398, Note_off_c, 0, 78, 0
1, 492458, Note_off_c, 0, 55, 0
1, 492674, Note_on_c, 0, 79, 53
1, 492831, Note_on_c, 0, 50, 42
1, 492870, Note_off_c, 0, 50, 0
1, 493035, Note_on_c, 0, 47, 47
1, 493088, Note_off_c, 0, 47, 0
1, 493471, Note_on_c, 0, 43, 31
1, 494054, Note_off_c, 0, 79, 0
1, 494171, Note_off_c, 0, 43, 0
1, 494436, Control_c, 0, 67, 58
1, 494455, Control_c, 0, 67, 54
1, 494472, Control_c, 0, 67, 47
1, 494490, Control_c, 0, 67, 41
1, 494509, Control_c, 0, 67, 37
1, 494556, Control_c, 0, 67, 32
1, 494630, Control_c, 0, 67, 27
1, 494703, Control_c, 0, 67, 23
1, 494779, Control_c, 0, 67, 19
1, 494854, Control_c, 0, 67, 14
1, 494862, Note_on_c, 0, 55, 93
1, 494867, Note_on_c, 0, 62, 83
1, 494913, Note_off_c, 0, 55, 0
1, 494918, Note_off_c, 0, 62, 0
1, 494945, Control_c, 0, 67, 10
1, 494994, Note_on_c, 0, 67, 77
1, 495046, Note_off_c, 0, 67, 0
1, 495151, Note_on_c, 0, 50, 82
1, 495155, Note_on_c, 0, 71, 78
1, 495210, Note_off_c, 0, 71, 0
1, 495220, Note_off_c, 0, 50, 0
1, 495304, Note_on_c, 0, 69, 77
1, 495343, Note_off_c, 0, 69, 0
1, 495456, Note_on_c, 0, 47, 85
1, 495463, Note_on_c, 0, 67, 80
1, 495526, Note_off_c, 0, 47, 0
1, 495527, Note_off_c, 0, 67, 0
1, 495615, Note_on_c, 0, 71, 76
1, 495663, Note_off_c, 0, 71, 0
1, 495772, Note_on_c, 0, 43, 86
1, 495779, Note_on_c, 0, 74, 83
1, 495839, Note_off_c, 0, 43, 0
1, 495846, Note_off_c, 0, 74, 0
1, 495919, Note_on_c, 0, 72, 84
1, 495965, Note_off_c, 0, 72, 0
1, 496073, Note_on_c, 0, 71, 78
1, 496129, Note_off_c, 0, 71, 0
1, 496205, Note_on_c, 0, 55, 75
1, 496211, Note_on_c, 0, 74, 85
1, 496252, Note_off_c, 0, 55, 0
1, 496271, Note_off_c, 0, 74, 0
1, 496359, Note_on_c, 0, 79, 87
1, 496362, Note_on_c, 0, 54, 81
1, 496432, Note_off_c, 0, 79, 0
1, 496434, Note_off_c, 0, 54, 0
1, 496519, Note_on_c, 0, 52, 79
1, 496592, Note_off_c, 0, 52, 0
1, 496676, Note_on_c, 0, 62, 86
1, 496677, Note_on_c, 0, 54, 95
1, 496730, Note_off_c, 0, 54, 0
1, 496736, Note_off_c, 0, 62, 0
1, 496823, Note_on_c, 0, 66, 73
1, 496888, Note_off_c, 0, 66, 0
1, 496975, Note_on_c, 0, 50, 84
1, 496983, Note_on_c, 0, 69, 80
1, 497040, Note_off_c, 0, 50, 0
1, 497047, Note_off_c, 0, 69, 0
1, 497128, Note_on_c, 0, 67, 72
1, 497193, Note_off_c, 0, 67, 0
1, 497284, Note_on_c, 0, 45, 90
1, 497286, Note_on_c, 0, 66, 81
1, 497345, Note_off_c, 0, 66, 0
1, 497349, Note_off_c, 0, 45, 0
1, 497445, Note_on_c, 0, 69, 77
1, 497500, Note_off_c, 0, 69, 0
1, 497604, Note_on_c, 0, 72, 81
1, 497611, Note_on_c, 0, 42, 90
1, 497664, Note_off_c, 0, 72, 0
1, 497673, Note_off_c, 0, 42, 0
1, 497759, Note_on_c, 0, 71, 81
1, 497805, Note_off_c, 0, 71, 0
1, 497919, Note_on_c, 0, 69, 75
1, 497971, Note_off_c, 0, 69, 0
1, 498063, Note_on_c, 0, 74, 84
1, 498065, Note_on_c, 0, 54, 77
1, 498118, Note_off_c, 0, 54, 0
1, 498126, Note_off_c, 0, 74, 0
1, 498216, Note_on_c, 0, 52, 77
1, 498222, Note_on_c, 0, 78, 86
1, 498282, Note_off_c, 0, 78, 0
1, 498288, Note_off_c, 0, 52, 0
1, 498372, Note_on_c, 0, 50, 84
1, 498415, Note_off_c, 0, 50, 0
1, 498539, Note_on_c, 0, 52, 90
1, 498539, Note_on_c, 0, 59, 87
1, 498597, Note_off_c, 0, 59, 0
1, 498605, Note_off_c, 0, 52, 0
1, 498685, Note_on_c, 0, 62, 76
1, 498739, Note_off_c, 0, 62, 0
1, 498849, Note_on_c, 0, 47, 87
1, 498850, Note_on_c, 0, 67, 79
1, 498910, Note_off_c, 0, 47, 0
1, 498914, Note_off_c, 0, 67, 0
1, 498991, Note_on_c, 0, 66, 74
1, 499051, Note_off_c, 0, 66, 0
1, 499146, Note_on_c, 0, 64, 80
1, 499152, Note_on_c, 0, 43, 87
1, 499226, Note_off_c, 0, 64, 0
1, 499235, Note_off_c, 0, 43, 0
1, 499299, Note_on_c, 0, 67, 77
1, 499350, Note_off_c, 0, 67, 0
1, 499464, Note_on_c, 0, 40, 86
1, 499468, Note_on_c, 0, 71, 78
1, 499523, Note_off_c, 0, 40, 0
1, 499534, Note_off_c, 0, 71, 0
1, 499612, Note_on_c, 0, 69, 81
1, 499657, Note_off_c, 0, 69, 0
1, 499766, Note_on_c, 0, 67, 75
1, 499829, Note_off_c, 0, 67, 0
1, 499910, Note_on_c, 0, 73, 83
1, 499914, Note_on_c, 0, 52, 81
1, 499962, Note_off_c, 0, 52, 0
1, 499969, Note_off_c, 0, 73, 0
1, 500060, Note_on_c, 0, 50, 87
1, 500064, Note_on_c, 0, 76, 88
1, 500114, Note_off_c, 0, 50, 0
1, 500119, Note_off_c, 0, 76, 0
1, 500214, Note_on_c, 0, 49, 88
1, 500267, Note_off_c, 0, 49, 0
1, 500381, Note_on_c, 0, 57, 86
1, 500382, Note_on_c, 0, 50, 91
1, 500440, Note_off_c, 0, 57, 0
1, 500442, Note_off_c, 0, 50, 0
1, 500527, Note_on_c, 0, 62, 76
1, 500587, Note_off_c, 0, 62, 0
1, 500690, Note_on_c, 0, 45, 85
1, 500695, Note_on_c, 0, 66, 80
1, 500759, Note_off_c, 0, 66, 0
1, 500762, Note_off_c, 0, 45, 0
1, 500833, Note_on_c, 0, 64, 76
1, 500880, Note_off_c, 0, 64, 0
1, 500999, Note_on_c, 0, 62, 80
1, 501004, Note_on_c, 0, 42, 92
1, 501056, Note_off_c, 0, 62, 0
1, 501086, Note_off_c, 0, 42, 0
1, 501150, Note_on_c, 0, 66, 74
1, 501226, Note_off_c, 0, 66, 0
1, 501318, Note_on_c, 0, 38, 90
1, 501325, Note_on_c, 0, 69, 80
1, 501382, Note_off_c, 0, 38, 0
1, 501392, Note_off_c, 0, 69, 0
1, 501470, Note_on_c, 0, 67, 73
1, 501519, Note_off_c, 0, 67, 0
1, 501630, Note_on_c, 0, 66, 74
1, 501689, Note_off_c, 0, 66, 0
1, 501771, Note_on_c, 0, 69, 81
1, 501783, Note_on_c, 0, 48, 69
1, 501820, Note_off_c, 0, 48, 0
1, 501829, Note_off_c, 0, 69, 0
1, 501932, Note_on_c, 0, 47, 77
1, 501939, Note_on_c, 0, 74, 83
1, 501979, Note_off_c, 0, 47, 0
1, 502087, Note_on_c, 0, 45, 78
1, 502133, Note_off_c, 0, 45, 0
1, 502261, Note_on_c, 0, 47, 94
1, 502294, Note_off_c, 0, 74, 0
1, 502307, Note_off_c, 0, 47, 0
1, 502411, Note_on_c, 0, 71, 73
1, 502474, Note_off_c, 0, 71, 0
1, 502567, Note_on_c, 0, 67, 79
1, 502570, Note_on_c, 0, 50, 85
1, 502616, Note_off_c, 0, 67, 0
1, 502634, Note_off_c, 0, 50, 0
1, 502718, Note_on_c, 0, 69, 65
1, 502777, Note_off_c, 0, 69, 0
1, 502871, Note_on_c, 0, 55, 94
1, 502881, Note_on_c, 0, 71, 79
1, 502927, Note_off_c, 0, 55, 0
1, 502939, Note_off_c, 0, 71, 0
1, 503033, Note_on_c, 0, 67, 78
1, 503077, Note_off_c, 0, 67, 0
1, 503188, Note_on_c, 0, 59, 89
1, 503189, Note_on_c, 0, 62, 80
1, 503245, Note_off_c, 0, 62, 0
1, 503250, Note_off_c, 0, 59, 0
1, 503326, Note_on_c, 0, 64, 81
1, 503385, Note_off_c, 0, 64, 0
1, 503485, Note_on_c, 0, 65, 82
1, 503542, Note_off_c, 0, 65, 0
1, 503629, Note_on_c, 0, 55, 80
1, 503632, Note_on_c, 0, 62, 86
1, 503679, Note_off_c, 0, 62, 0
1, 503684, Note_off_c, 0, 55, 0
1, 503778, Note_on_c, 0, 53, 87
1, 503789, Note_on_c, 0, 59, 83
1, 503827, Note_off_c, 0, 59, 0
1, 503833, Note_off_c, 0, 53, 0
1, 503942, Note_on_c, 0, 55, 83
1, 504007, Note_off_c, 0, 55, 0
1, 504106, Note_on_c, 0, 76, 86
1, 504112, Note_on_c, 0, 48, 88
1, 504176, Note_off_c, 0, 76, 0
1, 504184, Note_off_c, 0, 48, 0
1, 504257, Note_on_c, 0, 72, 80
1, 504314, Note_off_c, 0, 72, 0
1, 504415, Note_on_c, 0, 69, 81
1, 504417, Note_on_c, 0, 52, 90
1, 504472, Note_off_c, 0, 69, 0
1, 504480, Note_off_c, 0, 52, 0
1, 504563, Note_on_c, 0, 71, 76
1, 504623, Note_off_c, 0, 71, 0
1, 504720, Note_on_c, 0, 57, 88
1, 504725, Note_on_c, 0, 72, 83
1, 504784, Note_off_c, 0, 72, 0
1, 504789, Note_off_c, 0, 57, 0
1, 504879, Note_on_c, 0, 69, 84
1, 504930, Note_off_c, 0, 69, 0
1, 505036, Note_on_c, 0, 60, 92
1, 505050, Note_on_c, 0, 64, 79
1, 505095, Note_off_c, 0, 60, 0
1, 505101, Note_off_c, 0, 64, 0
1, 505198, Note_on_c, 0, 66, 79
1, 505247, Note_off_c, 0, 66, 0
1, 505352, Note_on_c, 0, 67, 81
1, 505404, Note_off_c, 0, 67, 0
1, 505487, Note_on_c, 0, 57, 73
1, 505492, Note_on_c, 0, 64, 87
1, 505543, Note_off_c, 0, 64, 0
1, 505560, Note_off_c, 0, 57, 0
1, 505633, Note_on_c, 0, 55, 85
1, 505647, Note_on_c, 0, 60, 85
1, 505689, Note_off_c, 0, 60, 0
1, 505689, Note_off_c, 0, 55, 0
1, 505726, Control_c, 0, 64, 25
1, 505798, Note_on_c, 0, 57, 77
1, 505852, Note_off_c, 0, 57, 0
1, 505891, Poly_aftertouch_c, 0, 55, 0
1, 505895, Poly_aftertouch_c, 0, 55, 0
1, 505964, Note_on_c, 0, 50, 91
1, 505968, Note_on_c, 0, 81, 85
1, 506027, Note_off_c, 0, 50, 0
1, 506039, Note_off_c, 0, 81, 0
1, 506122, Note_on_c, 0, 78, 79
1, 506188, Note_off_c, 0, 78, 0
1, 506278, Note_on_c, 0, 74, 84
1, 506280, Note_on_c, 0, 54, 90
1, 506342, Note_off_c, 0, 74, 0
1, 506344, Note_off_c, 0, 54, 0
1, 506430, Note_on_c, 0, 76, 74
1, 506496, Note_off_c, 0, 76, 0
1, 506595, Note_on_c, 0, 57, 86
1, 506598, Note_on_c, 0, 78, 80
1, 506653, Note_off_c, 0, 57, 0
1, 506665, Note_off_c, 0, 78, 0
1, 506751, Note_on_c, 0, 74, 81
1, 506809, Note_off_c, 0, 74, 0
1, 506899, Note_on_c, 0, 62, 86
1, 506910, Note_on_c, 0, 69, 85
1, 506948, Note_off_c, 0, 62, 0
1, 506972, Note_off_c, 0, 69, 0
1, 507060, Note_on_c, 0, 71, 86
1, 507117, Note_off_c, 0, 71, 0
1, 507212, Note_on_c, 0, 72, 86
1, 507266, Note_off_c, 0, 72, 0
1, 507356, Note_on_c, 0, 50, 82
1, 507359, Note_on_c, 0, 69, 84
1, 507408, Note_off_c, 0, 50, 0
1, 507416, Note_off_c, 0, 69, 0
1, 507501, Note_on_c, 0, 48, 80
1, 507505, Note_on_c, 0, 66, 77
1, 507545, Note_off_c, 0, 48, 0
1, 507561, Note_off_c, 0, 66, 0
1, 507661, Note_on_c, 0, 50, 80
1, 507662, Note_on_c, 0, 72, 81
1, 507724, Note_off_c, 0, 72, 0
1, 507732, Note_off_c, 0, 50, 0
1, 507831, Note_on_c, 0, 71, 85
1, 507836, Note_on_c, 0, 43, 96
1, 507890, Note_off_c, 0, 71, 0
1, 507904, Note_off_c, 0, 43, 0
1, 507986, Note_on_c, 0, 67, 77
1, 508031, Note_off_c, 0, 67, 0
1, 508137, Note_on_c, 0, 62, 76
1, 508141, Note_on_c, 0, 55, 86
1, 508190, Note_off_c, 0, 62, 0
1, 508210, Note_off_c, 0, 55, 0
1, 508285, Note_on_c, 0, 66, 76
1, 508340, Note_off_c, 0, 66, 0
1, 508444, Note_on_c, 0, 47, 89
1, 508449, Note_on_c, 0, 67, 83
1, 508509, Note_off_c, 0, 47, 0
1, 508510, Note_off_c, 0, 67, 0
1, 508610, Note_on_c, 0, 62, 81
1, 508669, Note_off_c, 0, 62, 0
1, 508771, Note_on_c, 0, 50, 84
1, 508772, Note_on_c, 0, 59, 80
1, 508825, Note_off_c, 0, 59, 0
1, 508841, Note_off_c, 0, 50, 0
1, 508923, Note_on_c, 0, 60, 74
1, 508966, Note_off_c, 0, 60, 0
1, 509068, Note_on_c, 0, 62, 81
1, 509071, Note_on_c, 0, 43, 92
1, 509128, Note_off_c, 0, 62, 0
1, 509140, Note_off_c, 0, 43, 0
1, 509229, Note_on_c, 0, 59, 75
1, 509286, Note_off_c, 0, 59, 0
1, 509385, Note_on_c, 0, 55, 79
1, 509427, Note_off_c, 0, 55, 0
1, 509536, Note_on_c, 0, 57, 77
1, 509581, Note_off_c, 0, 57, 0
1, 509692, Note_on_c, 0, 59, 80
1, 509706, Note_on_c, 0, 55, 65
1, 509728, Note_off_c, 0, 59, 0
1, 509743, Note_off_c, 0, 55, 0
1, 509780, Control_c, 0, 67, 14
1, 509798, Control_c, 0, 67, 18
1, 509816, Control_c, 0, 67, 23
1, 509848, Note_on_c, 0, 59, 62
1, 509852, Control_c, 0, 67, 28
1, 509889, Note_off_c, 0, 59, 0
1, 510000, Note_on_c, 0, 83, 71
1, 510014, Note_on_c, 0, 62, 52
1, 510061, Note_off_c, 0, 62, 0
1, 510078, Note_off_c, 0, 83, 0
1, 510147, Note_on_c, 0, 60, 59
1, 510150, Note_on_c, 0, 81, 72
1, 510192, Note_off_c, 0, 60, 0
1, 510216, Note_off_c, 0, 81, 0
1, 510296, Note_on_c, 0, 79, 78
1, 510310, Note_on_c, 0, 59, 63
1, 510356, Note_off_c, 0, 59, 0
1, 510373, Note_off_c, 0, 79, 0
1, 510453, Note_on_c, 0, 78, 73
1, 510457, Note_on_c, 0, 62, 64
1, 510495, Note_off_c, 0, 62, 0
1, 510500, Note_off_c, 0, 78, 0
1, 510607, Note_on_c, 0, 76, 72
1, 510616, Note_on_c, 0, 67, 62
1, 510661, Note_off_c, 0, 76, 0
1, 510669, Note_off_c, 0, 67, 0
1, 510751, Note_on_c, 0, 74, 69
1, 510756, Note_on_c, 0, 66, 61
1, 510799, Note_off_c, 0, 66, 0
1, 510801, Note_off_c, 0, 74, 0
1, 510899, Note_on_c, 0, 73, 69
1, 510907, Note_on_c, 0, 64, 62
1, 510944, Note_off_c, 0, 73, 0
1, 510952, Note_off_c, 0, 64, 0
1, 511047, Note_on_c, 0, 76, 67
1, 511062, Note_on_c, 0, 67, 49
1, 511105, Note_off_c, 0, 76, 0
1, 511111, Note_off_c, 0, 67, 0
1, 511202, Note_on_c, 0, 74, 71
1, 511204, Note_on_c, 0, 71, 64
1, 511238, Note_off_c, 0, 71, 0
1, 511251, Note_off_c, 0, 74, 0
1, 511348, Note_on_c, 0, 76, 71
1, 511408, Note_off_c, 0, 76, 0
1, 511528, Note_on_c, 0, 69, 61
1, 511537, Note_on_c, 0, 54, 49
1, 511572, Note_off_c, 0, 69, 0
1, 511578, Note_off_c, 0, 54, 0
1, 511669, Note_on_c, 0, 57, 60
1, 511709, Note_off_c, 0, 57, 0
1, 511825, Note_on_c, 0, 81, 78
1, 511841, Note_on_c, 0, 61, 57
1, 511878, Note_off_c, 0, 61, 0
1, 511906, Note_off_c, 0, 81, 0
1, 511972, Note_on_c, 0, 79, 80
1, 511985, Note_on_c, 0, 59, 62
1, 512040, Note_off_c, 0, 59, 0
1, 512053, Note_off_c, 0, 79, 0
1, 512129, Note_on_c, 0, 78, 80
1, 512142, Note_on_c, 0, 57, 65
1, 512183, Note_off_c, 0, 57, 0
1, 512191, Note_off_c, 0, 78, 0
1, 512211, Control_c, 0, 67, 24
1, 512272, Note_on_c, 0, 76, 79
1, 512287, Note_on_c, 0, 61, 66
1, 512331, Note_off_c, 0, 76, 0
1, 512339, Note_off_c, 0, 61, 0
1, 512442, Note_on_c, 0, 74, 71
1, 512455, Note_on_c, 0, 66, 60
1, 512491, Note_off_c, 0, 66, 0
1, 512504, Note_off_c, 0, 74, 0
1, 512589, Note_on_c, 0, 73, 72
1, 512601, Note_on_c, 0, 64, 59
1, 512646, Note_off_c, 0, 73, 0
1, 512650, Note_off_c, 0, 64, 0
1, 512741, Note_on_c, 0, 71, 72
1, 512754, Note_on_c, 0, 62, 58
1, 512792, Note_off_c, 0, 71, 0
1, 512796, Note_off_c, 0, 62, 0
1, 512889, Note_on_c, 0, 66, 64
1, 512889, Note_on_c, 0, 74, 72
1, 512931, Note_off_c, 0, 66, 0
1, 512952, Note_off_c, 0, 74, 0
1, 513037, Note_on_c, 0, 73, 78
1, 513056, Note_on_c, 0, 69, 66
1, 513081, Note_off_c, 0, 69, 0
1, 513097, Note_off_c, 0, 73, 0
1, 513183, Note_on_c, 0, 74, 80
1, 513260, Note_off_c, 0, 74, 0
1, 513350, Note_on_c, 0, 67, 83
1, 513369, Note_on_c, 0, 52, 63
1, 513405, Note_off_c, 0, 67, 0
1, 513409, Note_off_c, 0, 52, 0
1, 513493, Note_on_c, 0, 55, 69
1, 513526, Note_off_c, 0, 55, 0
1, 513644, Note_on_c, 0, 79, 82
1, 513652, Note_on_c, 0, 59, 67
1, 513696, Note_off_c, 0, 59, 0
1, 513713, Note_off_c, 0, 79, 0
1, 513781, Note_on_c, 0, 78, 74
1, 513802, Note_on_c, 0, 57, 61
1, 513843, Note_off_c, 0, 57, 0
1, 513849, Note_off_c, 0, 78, 0
1, 513941, Note_on_c, 0, 76, 77
1, 513948, Note_on_c, 0, 55, 68
1, 513982, Note_off_c, 0, 55, 0
1, 513991, Note_off_c, 0, 76, 0
1, 514095, Note_on_c, 0, 74, 77
1, 514121, Note_on_c, 0, 59, 39
1, 514153, Note_off_c, 0, 59, 0
1, 514154, Note_off_c, 0, 74, 0
1, 514253, Note_on_c, 0, 73, 73
1, 514264, Note_on_c, 0, 64, 59
1, 514301, Note_off_c, 0, 73, 0
1, 514307, Note_off_c, 0, 64, 0
1, 514403, Note_on_c, 0, 71, 68
1, 514404, Note_on_c, 0, 62, 59
1, 514447, Note_off_c, 0, 71, 0
1, 514453, Note_off_c, 0, 62, 0
1, 514556, Note_on_c, 0, 69, 70
1, 514561, Note_on_c, 0, 61, 61
1, 514601, Note_off_c, 0, 69, 0
1, 514610, Note_off_c, 0, 61, 0
1, 514700, Note_on_c, 0, 73, 66
1, 514710, Note_on_c, 0, 64, 61
1, 514743, Note_off_c, 0, 73, 0
1, 514751, Note_off_c, 0, 64, 0
1, 514854, Note_on_c, 0, 71, 66
1, 514857, Note_on_c, 0, 67, 60
1, 514890, Note_off_c, 0, 71, 0
1, 514901, Note_off_c, 0, 67, 0
1, 514995, Note_on_c, 0, 66, 60
1, 514996, Note_on_c, 0, 74, 66
1, 515036, Note_off_c, 0, 66, 0
1, 515042, Note_off_c, 0, 74, 0
1, 515151, Note_on_c, 0, 73, 66
1, 515164, Note_on_c, 0, 64, 61
1, 515197, Note_off_c, 0, 73, 0
1, 515203, Note_off_c, 0, 64, 0
1, 515301, Note_on_c, 0, 76, 65
1, 515303, Note_on_c, 0, 67, 64
1, 515339, Note_off_c, 0, 67, 0
1, 515344, Note_off_c, 0, 76, 0
1, 515464, Note_on_c, 0, 73, 66
1, 515467, Note_on_c, 0, 69, 62
1, 515497, Note_off_c, 0, 73, 0
1, 515504, Note_off_c, 0, 69, 0
1, 515602, Note_on_c, 0, 71, 71
1, 515662, Note_off_c, 0, 71, 0
1, 515761, Note_on_c, 0, 73, 67
1, 515766, Note_on_c, 0, 69, 60
1, 515802, Note_off_c, 0, 73, 0
1, 515807, Note_off_c, 0, 69, 0
1, 515906, Note_on_c, 0, 69, 66
1, 515916, Note_on_c, 0, 73, 66
1, 515941, Note_off_c, 0, 69, 0
1, 515950, Note_off_c, 0, 73, 0
1, 516068, Note_on_c, 0, 64, 73
1, 516071, Note_on_c, 0, 76, 66
1, 516121, Note_off_c, 0, 76, 0
1, 516121, Note_off_c, 0, 64, 0
1, 516208, Note_on_c, 0, 74, 70
1, 516212, Note_on_c, 0, 66, 73
1, 516258, Note_off_c, 0, 66, 0
1, 516259, Note_off_c, 0, 74, 0
1, 516363, Note_on_c, 0, 73, 73
1, 516364, Note_on_c, 0, 67, 74
1, 516407, Note_off_c, 0, 67, 0
1, 516414, Note_off_c, 0, 73, 0
1, 516504, Note_on_c, 0, 76, 74
1, 516506, Note_on_c, 0, 64, 72
1, 516543, Note_off_c, 0, 76, 0
1, 516545, Note_off_c, 0, 64, 0
1, 516654, Note_on_c, 0, 61, 81
1, 516660, Note_on_c, 0, 81, 74
1, 516710, Note_off_c, 0, 61, 0
1, 516724, Note_off_c, 0, 81, 0
1, 516780, Control_c, 0, 67, 20
1, 516802, Note_on_c, 0, 79, 78
1, 516808, Note_on_c, 0, 64, 79
1, 516867, Note_off_c, 0, 79, 0
1, 516875, Note_off_c, 0, 64, 0
1, 516954, Note_on_c, 0, 78, 77
1, 516962, Note_on_c, 0, 62, 91
1, 517026, Note_off_c, 0, 78, 0
1, 517038, Note_off_c, 0, 62, 0
1, 517105, Note_on_c, 0, 81, 77
1, 517187, Note_off_c, 0, 81, 0
1, 517269, Note_on_c, 0, 66, 92
1, 517271, Note_on_c, 0, 74, 80
1, 517328, Note_off_c, 0, 66, 0
1, 517337, Note_off_c, 0, 74, 0
1, 517416, Note_on_c, 0, 76, 72
1, 517469, Note_off_c, 0, 76, 0
1, 517575, Note_on_c, 0, 78, 70
1, 517577, Note_on_c, 0, 69, 96
1, 517633, Note_off_c, 0, 69, 0
1, 517637, Note_off_c, 0, 78, 0
1, 517713, Note_on_c, 0, 74, 80
1, 517765, Note_off_c, 0, 74, 0
1, 517878, Note_on_c, 0, 74, 92
1, 517891, Note_on_c, 0, 69, 81
1, 517951, Note_off_c, 0, 74, 0
1, 517966, Note_off_c, 0, 69, 0
1, 518030, Note_on_c, 0, 71, 85
1, 518081, Note_off_c, 0, 71, 0
1, 518186, Note_on_c, 0, 72, 83
1, 518238, Note_off_c, 0, 72, 0
1, 518326, Note_on_c, 0, 69, 79
1, 518329, Note_on_c, 0, 72, 90
1, 518365, Note_off_c, 0, 69, 0
1, 518375, Note_off_c, 0, 72, 0
1, 518478, Note_on_c, 0, 69, 86
1, 518484, Note_on_c, 0, 66, 70
1, 518530, Note_off_c, 0, 66, 0
1, 518539, Note_off_c, 0, 69, 0
1, 518614, Note_on_c, 0, 69, 88
1, 518615, Note_on_c, 0, 66, 71
1, 518654, Note_off_c, 0, 66, 0
1, 518662, Note_off_c, 0, 69, 0
1, 518768, Note_on_c, 0, 67, 90
1, 518779, Note_on_c, 0, 71, 79
1, 518820, Note_off_c, 0, 71, 0
1, 518824, Note_off_c, 0, 67, 0
1, 518932, Note_on_c, 0, 74, 71
1, 518963, Note_off_c, 0, 74, 0
1, 519079, Note_on_c, 0, 67, 66
1, 519083, Note_on_c, 0, 71, 92
1, 519117, Note_on_c, 0, 72, 56
1, 519127, Note_off_c, 0, 67, 0
1, 519141, Note_off_c, 0, 71, 0
1, 519145, Note_off_c, 0, 72, 0
1, 519210, Note_on_c, 0, 69, 75
1, 519257, Note_off_c, 0, 69, 0
1, 519380, Note_on_c, 0, 74, 95
1, 519393, Note_on_c, 0, 71, 66
1, 519434, Note_off_c, 0, 74, 0
1, 519449, Note_off_c, 0, 71, 0
1, 519533, Note_on_c, 0, 67, 72
1, 519577, Note_off_c, 0, 67, 0
1, 519699, Note_on_c, 0, 79, 95
1, 519703, Note_on_c, 0, 64, 70
1, 519742, Note_off_c, 0, 64, 0
1, 519776, Note_off_c, 0, 79, 0
1, 519849, Note_on_c, 0, 66, 71
1, 519890, Note_off_c, 0, 66, 0
1, 519992, Note_on_c, 0, 67, 76
1, 520044, Note_off_c, 0, 67, 0
1, 520145, Note_on_c, 0, 79, 89
1, 520147, Note_on_c, 0, 64, 77
1, 520191, Note_off_c, 0, 64, 0
1, 520212, Note_off_c, 0, 79, 0
1, 520296, Note_on_c, 0, 59, 76
1, 520297, Note_on_c, 0, 78, 86
1, 520339, Note_off_c, 0, 59, 0
1, 520356, Note_off_c, 0, 78, 0
1, 520433, Note_on_c, 0, 79, 88
1, 520448, Note_on_c, 0, 62, 70
1, 520487, Note_off_c, 0, 79, 0
1, 520495, Note_off_c, 0, 62, 0
1, 520594, Note_on_c, 0, 69, 90
1, 520599, Note_on_c, 0, 61, 80
1, 520648, Note_off_c, 0, 61, 0
1, 520653, Note_off_c, 0, 69, 0
1, 520749, Note_on_c, 0, 64, 73
1, 520785, Note_off_c, 0, 64, 0
1, 520897, Note_on_c, 0, 73, 90
1, 520912, Note_on_c, 0, 57, 80
1, 520962, Note_off_c, 0, 57, 0
1, 520963, Note_off_c, 0, 73, 0
1, 521052, Note_on_c, 0, 59, 76
1, 521102, Note_off_c, 0, 59, 0
1, 521198, Note_on_c, 0, 76, 92
1, 521202, Note_on_c, 0, 61, 72
1, 521252, Note_off_c, 0, 61, 0
1, 521259, Note_off_c, 0, 76, 0
1, 521341, Note_on_c, 0, 57, 67
1, 521383, Note_off_c, 0, 57, 0
1, 521495, Note_on_c, 0, 52, 78
1, 521496, Note_on_c, 0, 79, 92
1, 521547, Note_off_c, 0, 52, 0
1, 521570, Note_off_c, 0, 79, 0
1, 521643, Note_on_c, 0, 54, 77
1, 521700, Note_off_c, 0, 54, 0
1, 521785, Note_on_c, 0, 55, 80
1, 521838, Note_off_c, 0, 55, 0
1, 521939, Note_on_c, 0, 79, 86
1, 521946, Note_on_c, 0, 52, 76
1, 521992, Note_off_c, 0, 52, 0
1, 521996, Note_off_c, 0, 79, 0
1, 522094, Note_on_c, 0, 81, 87
1, 522105, Note_on_c, 0, 49, 73
1, 522143, Note_off_c, 0, 49, 0
1, 522152, Note_off_c, 0, 81, 0
1, 522239, Note_on_c, 0, 73, 88
1, 522247, Note_on_c, 0, 52, 71
1, 522297, Note_off_c, 0, 73, 0
1, 522308, Note_off_c, 0, 52, 0
1, 522392, Note_on_c, 0, 74, 94
1, 522399, Note_on_c, 0, 54, 71
1, 522445, Note_off_c, 0, 74, 0
1, 522454, Note_off_c, 0, 54, 0
1, 522539, Note_on_c, 0, 78, 83
1, 522544, Note_on_c, 0, 57, 74
1, 522592, Note_off_c, 0, 57, 0
1, 522600, Note_off_c, 0, 78, 0
1, 522700, Note_on_c, 0, 81, 86
1, 522709, Note_on_c, 0, 50, 67
1, 522754, Note_off_c, 0, 50, 0
1, 522754, Note_off_c, 0, 81, 0
1, 522845, Note_on_c, 0, 85, 84
1, 522861, Note_on_c, 0, 52, 67
1, 522895, Control_c, 0, 64, 20
1, 522907, Note_off_c, 0, 52, 0
1, 522914, Control_c, 0, 64, 11
1, 522915, Note_off_c, 0, 85, 0
1, 522931, Control_c, 0, 64, 0
1, 523023, Control_c, 0, 64, 19
1, 523026, Note_on_c, 0, 86, 99
1, 523034, Note_on_c, 0, 54, 81
1, 523042, Control_c, 0, 64, 42
1, 523061, Control_c, 0, 64, 61
1, 523063, Control_c, 0, 67, 16
1, 523079, Control_c, 0, 64, 70
1, 523099, Note_off_c, 0, 54, 0
1, 523099, Control_c, 0, 64, 76
1, 523117, Control_c, 0, 64, 83
1, 523136, Control_c, 0, 64, 91
1, 523156, Control_c, 0, 64, 100
1, 523173, Control_c, 0, 64, 109
1, 523191, Control_c, 0, 64, 121
1, 523207, Note_off_c, 0, 86, 0
1, 523208, Control_c, 0, 64, 127
1, 523236, Note_on_c, 0, 85, 67
1, 523249, Note_on_c, 0, 50, 71
1, 523288, Note_on_c, 0, 83, 82
1, 523301, Note_off_c, 0, 50, 0
1, 523302, Control_c, 0, 64, 115
1, 523322, Control_c, 0, 64, 87
1, 523324, Note_off_c, 0, 85, 0
1, 523339, Control_c, 0, 64, 62
1, 523358, Control_c, 0, 64, 42
1, 523367, Note_on_c, 0, 81, 77
1, 523375, Control_c, 0, 64, 33
1, 523382, Note_on_c, 0, 54, 62
1, 523383, Note_off_c, 0, 83, 0
1, 523428, Note_off_c, 0, 54, 0
1, 523429, Note_off_c, 0, 81, 0
1, 523432, Note_on_c, 0, 79, 74
1, 523486, Note_off_c, 0, 79, 0
1, 523516, Note_on_c, 0, 78, 80
1, 523536, Note_on_c, 0, 57, 60
1, 523588, Note_off_c, 0, 57, 0
1, 523591, Note_on_c, 0, 76, 83
1, 523617, Note_off_c, 0, 78, 0
1, 523663, Note_off_c, 0, 76, 0
1, 523691, Note_on_c, 0, 74, 96
1, 523692, Note_on_c, 0, 62, 87
1, 523729, Note_on_c, 0, 72, 56
1, 523729, Note_off_c, 0, 72, 0
1, 524021, Note_off_c, 0, 62, 0
1, 524026, Note_off_c, 0, 74, 0
1, 524411, Note_on_c, 0, 69, 87
1, 524416, Note_on_c, 0, 62, 97
1, 524468, Note_off_c, 0, 69, 0
1, 524489, Note_off_c, 0, 62, 0
1, 524564, Note_on_c, 0, 74, 80
1, 524630, Note_off_c, 0, 74, 0
1, 524717, Note_on_c, 0, 57, 92
1, 524730, Note_on_c, 0, 78, 81
1, 524781, Note_off_c, 0, 57, 0
1, 524792, Note_off_c, 0, 78, 0
1, 524866, Note_on_c, 0, 76, 81
1, 524929, Note_off_c, 0, 76, 0
1, 525032, Note_on_c, 0, 54, 94
1, 525036, Note_on_c, 0, 74, 82
1, 525095, Note_off_c, 0, 54, 0
1, 525098, Note_off_c, 0, 74, 0
1, 525173, Note_on_c, 0, 78, 79
1, 525243, Note_off_c, 0, 78, 0
1, 525338, Note_on_c, 0, 50, 92
1, 525342, Note_on_c, 0, 81, 85
1, 525397, Note_off_c, 0, 50, 0
1, 525431, Note_off_c, 0, 81, 0
1, 525497, Note_on_c, 0, 79, 78
1, 525569, Note_off_c, 0, 79, 0
1, 525655, Note_on_c, 0, 78, 81
1, 525727, Note_off_c, 0, 78, 0
1, 525794, Note_on_c, 0, 60, 84
1, 525796, Note_on_c, 0, 81, 86
1, 525852, Note_off_c, 0, 60, 0
1, 525858, Note_off_c, 0, 81, 0
1, 525957, Note_on_c, 0, 84, 88
1, 525961, Note_on_c, 0, 59, 85
1, 526017, Note_off_c, 0, 84, 0
1, 526023, Note_off_c, 0, 59, 0
1, 526101, Note_on_c, 0, 57, 76
1, 526124, Note_on_c, 0, 59, 56
1, 526124, Note_off_c, 0, 59, 0
1, 526151, Note_off_c, 0, 57, 0
1, 526264, Note_on_c, 0, 62, 87
1, 526275, Note_on_c, 0, 55, 91
1, 526318, Note_off_c, 0, 62, 0
1, 526332, Note_off_c, 0, 55, 0
1, 526424, Note_on_c, 0, 67, 70
1, 526466, Note_off_c, 0, 67, 0
1, 526583, Note_on_c, 0, 71, 80
1, 526583, Note_on_c, 0, 50, 89
1, 526648, Note_off_c, 0, 71, 0
1, 526650, Note_off_c, 0, 50, 0
1, 526723, Note_on_c, 0, 69, 79
1, 526778, Note_off_c, 0, 69, 0
1, 526891, Note_on_c, 0, 67, 81
1, 526893, Note_on_c, 0, 47, 87
1, 526952, Note_off_c, 0, 67, 0
1, 526965, Note_off_c, 0, 47, 0
1, 527040, Note_on_c, 0, 71, 78
1, 527094, Note_off_c, 0, 71, 0
1, 527196, Note_on_c, 0, 43, 90
1, 527213, Note_on_c, 0, 74, 82
1, 527265, Note_off_c, 0, 43, 0
1, 527274, Note_off_c, 0, 74, 0
1, 527374, Note_on_c, 0, 72, 82
1, 527423, Note_off_c, 0, 72, 0
1, 527523, Note_on_c, 0, 71, 84
1, 527583, Note_off_c, 0, 71, 0
1, 527672, Note_on_c, 0, 74, 88
1, 527683, Note_on_c, 0, 53, 66
1, 527719, Note_off_c, 0, 53, 0
1, 527734, Note_off_c, 0, 74, 0
1, 527833, Note_on_c, 0, 52, 68
1, 527836, Note_on_c, 0, 77, 90
1, 527877, Control_c, 0, 67, 20
1, 527879, Note_off_c, 0, 52, 0
1, 527980, Note_on_c, 0, 50, 72
1, 527988, Control_c, 0, 67, 25
1, 528018, Note_off_c, 0, 50, 0
1, 528050, Note_off_c, 0, 77, 0
1, 528063, Control_c, 0, 67, 32
1, 528100, Control_c, 0, 67, 37
1, 528151, Note_on_c, 0, 76, 79
1, 528157, Note_on_c, 0, 48, 65
1, 528193, Note_off_c, 0, 48, 0
1, 528214, Note_off_c, 0, 76, 0
1, 528304, Note_on_c, 0, 72, 70
1, 528308, Note_on_c, 0, 52, 63
1, 528345, Note_off_c, 0, 52, 0
1, 528356, Note_off_c, 0, 72, 0
1, 528449, Note_on_c, 0, 69, 72
1, 528466, Note_on_c, 0, 57, 58
1, 528503, Note_off_c, 0, 69, 0
1, 528505, Note_off_c, 0, 57, 0
1, 528598, Note_on_c, 0, 71, 71
1, 528608, Note_on_c, 0, 55, 57
1, 528647, Note_off_c, 0, 71, 0
1, 528648, Note_off_c, 0, 55, 0
1, 528765, Note_on_c, 0, 54, 63
1, 528765, Note_on_c, 0, 72, 73
1, 528804, Note_off_c, 0, 54, 0
1, 528812, Note_off_c, 0, 72, 0
1, 528870, Control_c, 0, 67, 33
1, 528908, Note_on_c, 0, 69, 70
1, 528915, Note_on_c, 0, 57, 55
1, 528958, Note_off_c, 0, 57, 0
1, 528965, Note_off_c, 0, 69, 0
1, 529069, Note_on_c, 0, 66, 69
1, 529076, Note_on_c, 0, 60, 52
1, 529105, Note_off_c, 0, 60, 0
1, 529114, Note_off_c, 0, 66, 0
1, 529225, Note_on_c, 0, 67, 70
1, 529230, Note_on_c, 0, 59, 63
1, 529268, Note_off_c, 0, 59, 0
1, 529270, Note_off_c, 0, 67, 0
1, 529386, Note_on_c, 0, 69, 77
1, 529397, Note_on_c, 0, 57, 68
1, 529429, Note_off_c, 0, 57, 0
1, 529445, Note_off_c, 0, 69, 0
1, 529535, Note_on_c, 0, 66, 74
1, 529560, Note_on_c, 0, 60, 52
1, 529580, Note_off_c, 0, 66, 0
1, 529594, Note_off_c, 0, 60, 0
1, 529696, Note_on_c, 0, 63, 75
1, 529745, Note_off_c, 0, 63, 0
1, 529846, Note_on_c, 0, 64, 64
1, 529869, Note_on_c, 0, 60, 46
1, 529889, Note_off_c, 0, 64, 0
1, 529906, Note_off_c, 0, 60, 0
1, 530002, Note_on_c, 0, 66, 69
1, 530010, Note_on_c, 0, 59, 58
1, 530042, Note_off_c, 0, 66, 0
1, 530052, Note_off_c, 0, 59, 0
1, 530157, Note_on_c, 0, 63, 73
1, 530208, Note_off_c, 0, 63, 0
1, 530319, Note_on_c, 0, 59, 80
1, 530324, Note_on_c, 0, 66, 65
1, 530368, Note_off_c, 0, 66, 0
1, 530387, Note_off_c, 0, 59, 0
1, 530475, Note_on_c, 0, 61, 72
1, 530479, Note_on_c, 0, 64, 64
1, 530518, Note_off_c, 0, 64, 0
1, 530539, Note_off_c, 0, 61, 0
1, 530633, Note_on_c, 0, 63, 84
1, 530701, Note_off_c, 0, 63, 0
1, 530784, Note_on_c, 0, 59, 76
1, 530787, Note_on_c, 0, 66, 67
1, 530825, Note_off_c, 0, 59, 0
1, 530829, Note_off_c, 0, 66, 0
1, 530937, Note_on_c, 0, 54, 81
1, 530944, Note_on_c, 0, 69, 77
1, 531000, Note_off_c, 0, 54, 0
1, 531002, Note_off_c, 0, 69, 0
1, 531105, Note_on_c, 0, 67, 72
1, 531105, Note_on_c, 0, 55, 77
1, 531156, Note_off_c, 0, 55, 0
1, 531156, Note_off_c, 0, 67, 0
1, 531260, Note_on_c, 0, 57, 76
1, 531262, Note_on_c, 0, 66, 74
1, 531304, Note_off_c, 0, 57, 0
1, 531307, Note_off_c, 0, 66, 0
1, 531412, Note_on_c, 0, 54, 67
1, 531412, Note_on_c, 0, 69, 70
1, 531453, Note_off_c, 0, 54, 0
1, 531456, Note_off_c, 0, 69, 0
1, 531565, Note_on_c, 0, 51, 66
1, 531570, Note_on_c, 0, 72, 69
1, 531622, Note_off_c, 0, 51, 0
1, 531633, Note_off_c, 0, 72, 0
1, 531722, Note_on_c, 0, 69, 67
1, 531730, Note_on_c, 0, 54, 64
1, 531765, Note_off_c, 0, 69, 0
1, 531771, Note_off_c, 0, 54, 0
1, 531888, Note_on_c, 0, 71, 75
1, 531891, Note_on_c, 0, 55, 66
1, 531948, Note_off_c, 0, 71, 0
1, 531952, Note_off_c, 0, 55, 0
1, 532047, Note_on_c, 0, 67, 74
1, 532048, Note_on_c, 0, 59, 71
1, 532093, Note_off_c, 0, 59, 0
1, 532093, Note_off_c, 0, 67, 0
1, 532199, Note_on_c, 0, 64, 71
1, 532263, Note_off_c, 0, 64, 0
1, 532350, Note_on_c, 0, 66, 69
1, 532358, Note_on_c, 0, 63, 63
1, 532392, Note_off_c, 0, 63, 0
1, 532396, Note_off_c, 0, 66, 0
1, 532508, Note_on_c, 0, 64, 69
1, 532512, Note_on_c, 0, 67, 70
1, 532548, Note_off_c, 0, 67, 0
1, 532550, Note_off_c, 0, 64, 0
1, 532654, Note_on_c, 0, 67, 80
1, 532676, Note_on_c, 0, 64, 65
1, 532699, Note_off_c, 0, 67, 0
1, 532712, Note_off_c, 0, 64, 0
1, 532817, Note_on_c, 0, 71, 84
1, 532821, Note_on_c, 0, 59, 67
1, 532866, Note_off_c, 0, 59, 0
1, 532875, Note_off_c, 0, 71, 0
1, 532962, Note_on_c, 0, 69, 82
1, 532982, Note_on_c, 0, 63, 61
1, 533018, Note_off_c, 0, 69, 0
1, 533023, Note_off_c, 0, 63, 0
1, 533128, Note_on_c, 0, 67, 74
1, 533137, Note_on_c, 0, 64, 50
1, 533171, Note_off_c, 0, 64, 0
1, 533182, Note_off_c, 0, 67, 0
1, 533276, Note_on_c, 0, 71, 70
1, 533293, Note_on_c, 0, 59, 47
1, 533321, Note_off_c, 0, 59, 0
1, 533327, Note_off_c, 0, 71, 0
1, 533441, Note_on_c, 0, 55, 60
1, 533446, Note_on_c, 0, 76, 72
1, 533481, Note_off_c, 0, 55, 0
1, 533492, Note_off_c, 0, 76, 0
1, 533600, Note_on_c, 0, 59, 61
1, 533638, Note_off_c, 0, 59, 0
1, 533747, Note_on_c, 0, 64, 75
1, 533750, Note_on_c, 0, 60, 62
1, 533791, Note_off_c, 0, 60, 0
1, 533796, Note_off_c, 0, 64, 0
1, 533904, Note_on_c, 0, 57, 67
1, 533907, Note_on_c, 0, 69, 74
1, 533946, Note_off_c, 0, 57, 0
1, 533947, Note_off_c, 0, 69, 0
1, 533990, Control_c, 0, 67, 29
1, 534058, Note_on_c, 0, 72, 82
1, 534065, Note_on_c, 0, 52, 61
1, 534102, Note_off_c, 0, 52, 0
1, 534110, Note_off_c, 0, 72, 0
1, 534193, Note_on_c, 0, 56, 67
1, 534199, Note_on_c, 0, 71, 81
1, 534238, Note_off_c, 0, 56, 0
1, 534248, Note_off_c, 0, 71, 0
1, 534250, Control_c, 0, 67, 25
1, 534363, Note_on_c, 0, 69, 79
1, 534371, Note_on_c, 0, 57, 69
1, 534429, Note_off_c, 0, 57, 0
1, 534430, Note_off_c, 0, 69, 0
1, 534507, Note_on_c, 0, 72, 81
1, 534520, Note_on_c, 0, 52, 71
1, 534561, Note_off_c, 0, 72, 0
1, 534567, Note_off_c, 0, 52, 0
1, 534664, Note_on_c, 0, 76, 86
1, 534671, Note_on_c, 0, 48, 76
1, 534724, Note_off_c, 0, 48, 0
1, 534731, Note_off_c, 0, 76, 0
1, 534822, Note_on_c, 0, 50, 74
1, 534824, Note_on_c, 0, 74, 83
1, 534864, Note_off_c, 0, 50, 0
1, 534870, Note_off_c, 0, 74, 0
1, 534977, Note_on_c, 0, 72, 81
1, 534982, Note_on_c, 0, 52, 71
1, 535032, Note_off_c, 0, 52, 0
1, 535034, Note_off_c, 0, 72, 0
1, 535124, Note_on_c, 0, 76, 87
1, 535130, Note_on_c, 0, 48, 74
1, 535170, Note_off_c, 0, 48, 0
1, 535185, Note_off_c, 0, 76, 0
1, 535284, Note_on_c, 0, 81, 92
1, 535292, Note_on_c, 0, 45, 77
1, 535327, Note_off_c, 0, 45, 0
1, 535356, Control_c, 0, 67, 21
1, 535445, Note_on_c, 0, 48, 76
1, 535467, Control_c, 0, 67, 17
1, 535509, Note_off_c, 0, 48, 0
1, 535597, Control_c, 0, 67, 13
1, 535611, Note_on_c, 0, 39, 93
1, 535628, Note_off_c, 0, 81, 0
1, 535675, Note_off_c, 0, 39, 0
1, 535775, Note_on_c, 0, 72, 83
1, 535831, Note_off_c, 0, 72, 0
1, 535938, Note_on_c, 0, 71, 84
1, 535946, Note_on_c, 0, 51, 88
1, 536003, Note_off_c, 0, 51, 0
1, 536005, Note_off_c, 0, 71, 0
1, 536049, Poly_aftertouch_c, 0, 44, 0
1, 536092, Note_on_c, 0, 78, 80
1, 536162, Note_off_c, 0, 78, 0
1, 536251, Note_on_c, 0, 79, 88
1, 536263, Note_on_c, 0, 52, 86
1, 536291, Control_c, 0, 67, 9
1, 536326, Note_off_c, 0, 79, 0
1, 536331, Note_off_c, 0, 52, 0
1, 536402, Note_on_c, 0, 75, 86
1, 536449, Note_off_c, 0, 75, 0
1, 536543, Note_on_c, 0, 76, 86
1, 536552, Note_on_c, 0, 48, 82
1, 536599, Note_off_c, 0, 76, 0
1, 536620, Note_off_c, 0, 48, 0
1, 536703, Note_on_c, 0, 67, 84
1, 536764, Note_off_c, 0, 67, 0
1, 536866, Note_on_c, 0, 66, 87
1, 536870, Note_on_c, 0, 45, 84
1, 536896, Note_on_c, 0, 47, 46
1, 536896, Note_off_c, 0, 47, 0
1, 536922, Note_off_c, 0, 45, 0
1, 536923, Note_off_c, 0, 66, 0
1, 537021, Note_on_c, 0, 76, 87
1, 537084, Note_off_c, 0, 76, 0
1, 537187, Note_on_c, 0, 75, 88
1, 537193, Note_on_c, 0, 47, 92
1, 537245, Note_off_c, 0, 75, 0
1, 537246, Note_off_c, 0, 47, 0
1, 537351, Note_on_c, 0, 81, 87
1, 537414, Note_off_c, 0, 81, 0
1, 537551, Note_on_c, 0, 79, 92
1, 537564, Note_on_c, 0, 40, 82
1, 537621, Note_off_c, 0, 79, 0
1, 537628, Note_on_c, 0, 81, 81
1, 537640, Note_off_c, 0, 40, 0
1, 537701, Note_on_c, 0, 79, 84
1, 537734, Note_off_c, 0, 81, 0
1, 537768, Note_on_c, 0, 78, 87
1, 537785, Note_off_c, 0, 79, 0
1, 537884, Note_off_c, 0, 78, 0
1, 537887, Note_on_c, 0, 76, 88
1, 537900, Note_on_c, 0, 43, 70
1, 537942, Note_off_c, 0, 43, 0
1, 538170, Note_off_c, 0, 76, 0
1, 538195, Note_on_c, 0, 47, 85
1, 538255, Note_off_c, 0, 47, 0
1, 538333, Note_on_c, 0, 69, 81
1, 538397, Note_off_c, 0, 69, 0
1, 538503, Note_on_c, 0, 67, 85
1, 538504, Note_on_c, 0, 52, 87
1, 538566, Note_off_c, 0, 67, 0
1, 538667, Note_on_c, 0, 66, 83
1, 538719, Note_off_c, 0, 66, 0
1, 538824, Note_on_c, 0, 66, 87
1, 538848, Note_off_c, 0, 52, 0
1, 538884, Note_off_c, 0, 66, 0
1, 538984, Note_on_c, 0, 64, 83
1, 538999, Note_on_c, 0, 50, 64
1, 539036, Note_off_c, 0, 50, 0
1, 539143, Note_on_c, 0, 48, 65
1, 539178, Note_off_c, 0, 48, 0
1, 539295, Note_on_c, 0, 47, 67
1, 539332, Note_off_c, 0, 47, 0
1, 539369, Control_c, 0, 67, 13
1, 539444, Control_c, 0, 67, 19
1, 539451, Note_on_c, 0, 48, 76
1, 539491, Control_c, 0, 67, 24
1, 539497, Note_off_c, 0, 48, 0
1, 539527, Control_c, 0, 67, 28
1, 539597, Note_on_c, 0, 52, 63
1, 539641, Note_off_c, 0, 52, 0
1, 539652, Note_off_c, 0, 64, 0
1, 539764, Note_on_c, 0, 76, 69
1, 539775, Note_on_c, 0, 55, 53
1, 539813, Note_off_c, 0, 55, 0
1, 539825, Control_c, 0, 67, 24
1, 539830, Note_off_c, 0, 76, 0
1, 539920, Note_on_c, 0, 53, 56
1, 539925, Note_on_c, 0, 74, 62
1, 539962, Note_off_c, 0, 53, 0
1, 539970, Note_off_c, 0, 74, 0
1, 540082, Note_on_c, 0, 72, 64
1, 540088, Note_on_c, 0, 52, 58
1, 540130, Note_off_c, 0, 52, 0
1, 540136, Note_off_c, 0, 72, 0
1, 540232, Note_on_c, 0, 71, 67
1, 540237, Note_on_c, 0, 55, 58
1, 540277, Note_off_c, 0, 55, 0
1, 540286, Note_off_c, 0, 71, 0
1, 540384, Note_on_c, 0, 69, 65
1, 540425, Note_on_c, 0, 60, 51
1, 540452, Note_off_c, 0, 69, 0
1, 540467, Note_off_c, 0, 60, 0
1, 540554, Note_on_c, 0, 67, 67
1, 540569, Note_on_c, 0, 59, 52
1, 540596, Note_off_c, 0, 67, 0
1, 540618, Note_off_c, 0, 59, 0
1, 540719, Note_on_c, 0, 66, 65
1, 540726, Note_on_c, 0, 58, 58
1, 540763, Note_off_c, 0, 66, 0
1, 540775, Note_off_c, 0, 58, 0
1, 540862, Note_on_c, 0, 70, 77
1, 540869, Note_on_c, 0, 61, 69
1, 540903, Note_off_c, 0, 61, 0
1, 540927, Note_off_c, 0, 70, 0
1, 541017, Note_on_c, 0, 73, 75
1, 541026, Note_on_c, 0, 66, 70
1, 541056, Note_off_c, 0, 66, 0
1, 541077, Note_off_c, 0, 73, 0
1, 541171, Note_on_c, 0, 76, 79
1, 541249, Note_off_c, 0, 76, 0
1, 541342, Note_on_c, 0, 74, 80
1, 541352, Note_on_c, 0, 47, 66
1, 541396, Note_off_c, 0, 47, 0
1, 541439, Note_off_c, 0, 74, 0
1, 541490, Note_on_c, 0, 66, 74
1, 541500, Note_on_c, 0, 50, 51
1, 541545, Note_off_c, 0, 66, 0
1, 541554, Note_off_c, 0, 50, 0
1, 541641, Note_on_c, 0, 74, 71
1, 541671, Note_on_c, 0, 54, 58
1, 541707, Note_off_c, 0, 54, 0
1, 541709, Note_off_c, 0, 74, 0
1, 541795, Note_on_c, 0, 72, 70
1, 541815, Note_on_c, 0, 52, 53
1, 541844, Note_off_c, 0, 72, 0
1, 541865, Note_off_c, 0, 52, 0
1, 541957, Note_on_c, 0, 71, 71
1, 541958, Note_on_c, 0, 50, 61
1, 542002, Note_off_c, 0, 50, 0
1, 542005, Note_off_c, 0, 71, 0
1, 542107, Note_on_c, 0, 69, 74
1, 542111, Note_on_c, 0, 54, 61
1, 542152, Note_off_c, 0, 54, 0
1, 542160, Note_off_c, 0, 69, 0
1, 542276, Note_on_c, 0, 68, 70
1, 542289, Note_on_c, 0, 59, 60
1, 542328, Note_off_c, 0, 68, 0
1, 542331, Note_off_c, 0, 59, 0
1, 542429, Note_on_c, 0, 66, 76
1, 542442, Note_on_c, 0, 57, 60
1, 542484, Note_off_c, 0, 57, 0
1, 542488, Note_off_c, 0, 66, 0
1, 542603, Note_on_c, 0, 64, 70
1, 542604, Note_on_c, 0, 56, 64
1, 542637, Note_off_c, 0, 64, 0
1, 542646, Note_off_c, 0, 56, 0
1, 542755, Note_on_c, 0, 68, 61
1, 542790, Note_on_c, 0, 59, 31
1, 542805, Note_off_c, 0, 68, 0
1, 542805, Note_on_c, 0, 60, 14
1, 542805, Note_off_c, 0, 60, 0
1, 542824, Note_off_c, 0, 59, 0
1, 542905, Note_on_c, 0, 71, 67
1, 542925, Note_on_c, 0, 64, 67
1, 542952, Note_off_c, 0, 71, 0
1, 542957, Note_off_c, 0, 64, 0
1, 543067, Note_on_c, 0, 74, 68
1, 543119, Note_off_c, 0, 74, 0
1, 543237, Note_on_c, 0, 72, 68
1, 543243, Note_on_c, 0, 45, 61
1, 543281, Note_off_c, 0, 72, 0
1, 543285, Note_off_c, 0, 45, 0
1, 543388, Note_on_c, 0, 64, 63
1, 543388, Note_on_c, 0, 48, 60
1, 543425, Note_off_c, 0, 64, 0
1, 543429, Note_off_c, 0, 48, 0
1, 543547, Note_on_c, 0, 52, 63
1, 543549, Note_on_c, 0, 72, 66
1, 543587, Note_off_c, 0, 52, 0
1, 543597, Note_off_c, 0, 72, 0
1, 543694, Note_on_c, 0, 50, 61
1, 543698, Note_on_c, 0, 71, 72
1, 543735, Note_off_c, 0, 71, 0
1, 543737, Note_off_c, 0, 50, 0
1, 543849, Note_on_c, 0, 48, 63
1, 543858, Note_on_c, 0, 69, 72
1, 543896, Note_off_c, 0, 48, 0
1, 543903, Note_off_c, 0, 69, 0
1, 544006, Note_on_c, 0, 72, 75
1, 544012, Note_on_c, 0, 45, 63
1, 544050, Note_off_c, 0, 72, 0
1, 544064, Note_off_c, 0, 45, 0
1, 544168, Note_on_c, 0, 48, 66
1, 544178, Note_on_c, 0, 76, 75
1, 544216, Note_off_c, 0, 48, 0
1, 544241, Note_off_c, 0, 76, 0
1, 544327, Note_on_c, 0, 74, 81
1, 544337, Note_on_c, 0, 52, 73
1, 544377, Note_off_c, 0, 74, 0
1, 544379, Note_off_c, 0, 52, 0
1, 544487, Note_on_c, 0, 57, 74
1, 544488, Note_on_c, 0, 72, 82
1, 544536, Note_off_c, 0, 57, 0
1, 544550, Note_off_c, 0, 72, 0
1, 544638, Note_on_c, 0, 60, 69
1, 544639, Note_on_c, 0, 76, 83
1, 544696, Note_off_c, 0, 76, 0
1, 544696, Note_off_c, 0, 60, 0
1, 544795, Note_on_c, 0, 81, 84
1, 544796, Note_on_c, 0, 54, 74
1, 544857, Note_off_c, 0, 54, 0
1, 544866, Note_off_c, 0, 81, 0
1, 544943, Note_on_c, 0, 55, 75
1, 544945, Note_on_c, 0, 79, 81
1, 544987, Note_off_c, 0, 55, 0
1, 545017, Note_off_c, 0, 79, 0
1, 545114, Note_on_c, 0, 78, 88
1, 545125, Note_on_c, 0, 57, 79
1, 545178, Note_off_c, 0, 57, 0
1, 545183, Note_off_c, 0, 78, 0
1, 545264, Note_on_c, 0, 81, 86
1, 545270, Note_on_c, 0, 54, 73
1, 545322, Note_off_c, 0, 54, 0
1, 545328, Note_off_c, 0, 81, 0
1, 545428, Note_on_c, 0, 84, 81
1, 545430, Note_on_c, 0, 50, 77
1, 545453, Note_on_c, 0, 83, 51
1, 545453, Note_off_c, 0, 83, 0
1, 545483, Control_c, 0, 67, 20
1, 545489, Note_off_c, 0, 50, 0
1, 545499, Note_off_c, 0, 84, 0
1, 545575, Note_on_c, 0, 83, 85
1, 545607, Note_on_c, 0, 52, 57
1, 545610, Note_on_c, 0, 53, 57
1, 545641, Note_off_c, 0, 83, 0
1, 545649, Note_off_c, 0, 53, 0
1, 545649, Note_off_c, 0, 52, 0
1, 545730, Note_on_c, 0, 81, 87
1, 545732, Note_on_c, 0, 54, 74
1, 545793, Note_off_c, 0, 81, 0
1, 545799, Note_off_c, 0, 54, 0
1, 545881, Note_on_c, 0, 79, 85
1, 545886, Note_on_c, 0, 50, 75
1, 545941, Note_off_c, 0, 50, 0
1, 545953, Note_off_c, 0, 79, 0
1, 546049, Note_on_c, 0, 78, 86
1, 546049, Note_on_c, 0, 45, 82
1, 546081, Control_c, 0, 67, 16
1, 546105, Note_off_c, 0, 45, 0
1, 546107, Note_off_c, 0, 78, 0
1, 546198, Note_on_c, 0, 76, 87
1, 546202, Note_on_c, 0, 47, 81
1, 546259, Note_off_c, 0, 76, 0
1, 546264, Note_off_c, 0, 47, 0
1, 546360, Note_on_c, 0, 74, 86
1, 546361, Note_on_c, 0, 48, 82
1, 546421, Note_off_c, 0, 48, 0
1, 546426, Note_off_c, 0, 74, 0
1, 546512, Note_on_c, 0, 78, 82
1, 546513, Note_on_c, 0, 45, 82
1, 546579, Note_off_c, 0, 45, 0
1, 546582, Note_off_c, 0, 78, 0
1, 546661, Note_on_c, 0, 81, 85
1, 546667, Note_on_c, 0, 42, 82
1, 546728, Note_off_c, 0, 81, 0
1, 546745, Note_off_c, 0, 42, 0
1, 546812, Note_on_c, 0, 84, 86
1, 546814, Note_on_c, 0, 38, 90
1, 546883, Note_off_c, 0, 38, 0
1, 546891, Note_off_c, 0, 84, 0
1, 546982, Control_c, 0, 67, 12
1, 547010, Note_on_c, 0, 83, 80
1, 547012, Note_on_c, 0, 43, 99
1, 547031, Note_on_c, 0, 81, 59
1, 547047, Note_off_c, 0, 81, 0
1, 547074, Note_off_c, 0, 43, 0
1, 547076, Note_off_c, 0, 83, 0
1, 547160, Note_on_c, 0, 86, 80
1, 547240, Note_off_c, 0, 86, 0
1, 547328, Note_on_c, 0, 79, 82
1, 547333, Note_on_c, 0, 47, 96
1, 547389, Note_off_c, 0, 47, 0
1, 547392, Note_off_c, 0, 79, 0
1, 547480, Note_on_c, 0, 81, 77
1, 547545, Note_off_c, 0, 81, 0
1, 547643, Note_on_c, 0, 83, 84
1, 547643, Note_on_c, 0, 50, 97
1, 547669, Control_c, 0, 67, 8
1, 547709, Note_off_c, 0, 50, 0
1, 547710, Note_off_c, 0, 83, 0
1, 547795, Note_on_c, 0, 79, 80
1, 547851, Note_off_c, 0, 79, 0
1, 547961, Note_on_c, 0, 53, 92
1, 547963, Note_on_c, 0, 74, 82
1, 548020, Note_off_c, 0, 53, 0
1, 548033, Note_off_c, 0, 74, 0
1, 548116, Note_on_c, 0, 76, 83
1, 548184, Note_off_c, 0, 76, 0
1, 548284, Note_on_c, 0, 77, 83
1, 548354, Note_off_c, 0, 77, 0
1, 548433, Note_on_c, 0, 74, 88
1, 548439, Note_on_c, 0, 53, 80
1, 548489, Note_off_c, 0, 74, 0
1, 548497, Note_off_c, 0, 53, 0
1, 548588, Note_on_c, 0, 52, 78
1, 548590, Note_on_c, 0, 71, 81
1, 548645, Note_off_c, 0, 52, 0
1, 548650, Note_off_c, 0, 71, 0
1, 548731, Note_on_c, 0, 50, 83
1, 548733, Note_on_c, 0, 74, 82
1, 548794, Note_off_c, 0, 74, 0
1, 548797, Note_off_c, 0, 50, 0
1, 548910, Note_on_c, 0, 76, 82
1, 548915, Note_on_c, 0, 48, 92
1, 548976, Note_off_c, 0, 76, 0
1, 548982, Note_off_c, 0, 48, 0
1, 549055, Note_on_c, 0, 79, 79
1, 549128, Note_off_c, 0, 79, 0
1, 549223, Note_on_c, 0, 52, 89
1, 549224, Note_on_c, 0, 72, 85
1, 549278, Note_off_c, 0, 72, 0
1, 549289, Note_off_c, 0, 52, 0
1, 549373, Note_on_c, 0, 74, 81
1, 549441, Note_off_c, 0, 74, 0
1, 549535, Note_on_c, 0, 76, 84
1, 549540, Note_on_c, 0, 55, 91
1, 549599, Note_off_c, 0, 55, 0
1, 549603, Note_off_c, 0, 76, 0
1, 549689, Note_on_c, 0, 72, 84
1, 549743, Note_off_c, 0, 72, 0
1, 549840, Note_on_c, 0, 60, 91
1, 549848, Note_on_c, 0, 69, 86
1, 549905, Note_off_c, 0, 60, 0
1, 549909, Note_off_c, 0, 69, 0
1, 549996, Note_on_c, 0, 71, 86
1, 550059, Note_off_c, 0, 71, 0
1, 550156, Note_on_c, 0, 72, 85
1, 550212, Note_off_c, 0, 72, 0
1, 550306, Note_on_c, 0, 69, 86
1, 550306, Note_on_c, 0, 60, 87
1, 550356, Note_off_c, 0, 69, 0
1, 550361, Note_off_c, 0, 60, 0
1, 550455, Note_on_c, 0, 59, 84
1, 550461, Note_on_c, 0, 64, 79
1, 550507, Note_off_c, 0, 59, 0
1, 550514, Note_on_c, 0, 65, 29
1, 550514, Note_off_c, 0, 65, 0
1, 550516, Note_off_c, 0, 64, 0
1, 550607, Note_on_c, 0, 67, 81
1, 550614, Note_on_c, 0, 60, 81
1, 550674, Note_off_c, 0, 60, 0
1, 550675, Note_off_c, 0, 67, 0
1, 550781, Note_on_c, 0, 66, 85
1, 550795, Note_on_c, 0, 50, 92
1, 550839, Note_off_c, 0, 66, 0
1, 550860, Note_off_c, 0, 50, 0
1, 550932, Note_on_c, 0, 69, 80
1, 550998, Note_off_c, 0, 69, 0
1, 551087, Note_on_c, 0, 62, 82
1, 551091, Note_on_c, 0, 54, 90
1, 551149, Note_off_c, 0, 62, 0
1, 551156, Note_off_c, 0, 54, 0
1, 551237, Note_on_c, 0, 64, 76
1, 551306, Note_off_c, 0, 64, 0
1, 551404, Note_on_c, 0, 66, 80
1, 551412, Note_on_c, 0, 57, 92
1, 551431, Note_on_c, 0, 55, 70
1, 551446, Note_off_c, 0, 55, 0
1, 551464, Note_off_c, 0, 57, 0
1, 551476, Note_off_c, 0, 66, 0
1, 551551, Note_on_c, 0, 62, 80
1, 551605, Note_off_c, 0, 62, 0
1, 551733, Note_on_c, 0, 60, 95
1, 551736, Note_on_c, 0, 57, 83
1, 551776, Note_off_c, 0, 60, 0
1, 551805, Note_off_c, 0, 57, 0
1, 551876, Note_on_c, 0, 59, 82
1, 551935, Note_off_c, 0, 59, 0
1, 552030, Note_on_c, 0, 60, 85
1, 552087, Note_off_c, 0, 60, 0
1, 552179, Note_on_c, 0, 57, 77
1, 552181, Note_on_c, 0, 60, 89
1, 552215, Note_off_c, 0, 57, 0
1, 552227, Note_off_c, 0, 60, 0
1, 552334, Note_on_c, 0, 54, 74
1, 552336, Note_on_c, 0, 62, 86
1, 552378, Note_off_c, 0, 54, 0
1, 552388, Note_off_c, 0, 62, 0
1, 552480, Note_on_c, 0, 54, 73
1, 552485, Note_on_c, 0, 57, 85
1, 552521, Note_off_c, 0, 54, 0
1, 552547, Note_off_c, 0, 57, 0
1, 552650, Note_on_c, 0, 59, 95
1, 552656, Note_on_c, 0, 55, 81
1, 552698, Note_off_c, 0, 55, 0
1, 552707, Note_off_c, 0, 59, 0
1, 552803, Note_on_c, 0, 62, 89
1, 552817, Note_on_c, 0, 59, 78
1, 552856, Note_off_c, 0, 62, 0
1, 552860, Note_off_c, 0, 59, 0
1, 552961, Note_on_c, 0, 55, 75
1, 552961, Note_on_c, 0, 62, 90
1, 553014, Note_off_c, 0, 62, 0
1, 553014, Note_off_c, 0, 55, 0
1, 553113, Note_on_c, 0, 66, 83
1, 553119, Note_on_c, 0, 57, 78
1, 553141, Control_c, 0, 64, 29
1, 553164, Note_off_c, 0, 57, 0
1, 553179, Control_c, 0, 64, 20
1, 553183, Note_off_c, 0, 66, 0
1, 553197, Control_c, 0, 64, 14
1, 553271, Control_c, 0, 64, 21
1, 553283, Note_on_c, 0, 67, 94
1, 553287, Note_on_c, 0, 59, 83
1, 553289, Control_c, 0, 64, 33
1, 553307, Control_c, 0, 64, 48
1, 553327, Control_c, 0, 64, 58
1, 553338, Note_off_c, 0, 59, 0
1, 553345, Control_c, 0, 64, 63
1, 553363, Control_c, 0, 64, 66
1, 553383, Control_c, 0, 64, 70
1, 553401, Control_c, 0, 64, 74
1, 553421, Control_c, 0, 64, 78
1, 553436, Note_off_c, 0, 67, 0
1, 553436, Control_c, 0, 64, 83
1, 553447, Note_on_c, 0, 66, 77
1, 553450, Note_on_c, 0, 55, 79
1, 553456, Control_c, 0, 64, 86
1, 553477, Control_c, 0, 64, 83
1, 553503, Control_c, 0, 64, 71
1, 553505, Note_off_c, 0, 55, 0
1, 553520, Control_c, 0, 64, 53
1, 553521, Note_on_c, 0, 64, 76
1, 553539, Control_c, 0, 64, 35
1, 553548, Note_off_c, 0, 66, 0
1, 553559, Control_c, 0, 64, 16
1, 553594, Note_on_c, 0, 62, 75
1, 553617, Note_off_c, 0, 64, 0
1, 553626, Note_on_c, 0, 59, 74
1, 553665, Note_off_c, 0, 59, 0
1, 553668, Note_on_c, 0, 60, 82
1, 553676, Note_off_c, 0, 62, 0
1, 553734, Note_off_c, 0, 60, 0
1, 553772, Note_on_c, 0, 62, 91
1, 553785, Note_on_c, 0, 59, 80
1, 553822, Note_off_c, 0, 62, 0
1, 553842, Note_off_c, 0, 59, 0
1, 553884, Note_on_c, 0, 57, 78
1, 554036, Note_off_c, 0, 57, 0
1, 554046, Note_on_c, 0, 67, 90
1, 554067, Note_on_c, 0, 55, 84
1, 554682, Control_c, 0, 67, 12
1, 554803, Note_off_c, 0, 55, 0
1, 554810, Note_off_c, 0, 67, 0
1, 554886, Control_c, 0, 67, 16
1, 554943, Control_c, 0, 67, 21
1, 554999, Control_c, 0, 67, 25
1, 555090, Control_c, 0, 67, 29
1, 555145, Control_c, 0, 67, 34
1, 555202, Control_c, 0, 67, 40
1, 555257, Control_c, 0, 67, 45
1, 555313, Control_c, 0, 67, 50
1, 555378, Control_c, 0, 67, 54
1, 555435, Control_c, 0, 67, 60
1, 555489, Control_c, 0, 67, 65
1, 556035, Note_on_c, 0, 71, 53
1, 556045, Note_on_c, 0, 43, 32
1, 556462, Control_c, 0, 64, 8
1, 556491, Note_on_c, 0, 69, 63
1, 556514, Note_off_c, 0, 71, 0
1, 556537, Control_c, 0, 67, 61
1, 556669, Note_off_c, 0, 43, 0
1, 556896, Note_on_c, 0, 71, 63
1, 556906, Note_off_c, 0, 69, 0
1, 556922, Note_on_c, 0, 55, 40
1, 557313, Note_on_c, 0, 72, 72
1, 557336, Note_off_c, 0, 71, 0
1, 557708, Note_on_c, 0, 74, 70
1, 557723, Note_off_c, 0, 72, 0
1, 558058, Note_off_c, 0, 74, 0
1, 558096, Note_on_c, 0, 69, 66
1, 558106, Note_off_c, 0, 55, 0
1, 558124, Note_on_c, 0, 54, 42
1, 558260, Note_off_c, 0, 54, 0
1, 558280, Note_on_c, 0, 52, 56
1, 558481, Note_on_c, 0, 74, 62
1, 558485, Note_off_c, 0, 52, 0
1, 558486, Note_off_c, 0, 69, 0
1, 558506, Note_on_c, 0, 54, 38
1, 558863, Note_off_c, 0, 54, 0
1, 558878, Note_on_c, 0, 72, 57
1, 558892, Note_off_c, 0, 74, 0
1, 558906, Note_on_c, 0, 50, 41
1, 558948, Control_c, 0, 64, 12
1, 558966, Control_c, 0, 64, 17
1, 558986, Control_c, 0, 64, 24
1, 559004, Control_c, 0, 64, 33
1, 559022, Control_c, 0, 64, 44
1, 559041, Control_c, 0, 64, 55
1, 559058, Control_c, 0, 64, 60
1, 559077, Control_c, 0, 64, 63
1, 559095, Control_c, 0, 64, 66
1, 559124, Control_c, 0, 64, 69
1, 559142, Control_c, 0, 64, 72
1, 559162, Control_c, 0, 64, 76
1, 559180, Control_c, 0, 64, 82
1, 559199, Control_c, 0, 64, 87
1, 559217, Control_c, 0, 64, 91
1, 559270, Note_off_c, 0, 72, 0
1, 559270, Control_c, 0, 64, 77
1, 559289, Control_c, 0, 64, 56
1, 559291, Note_on_c, 0, 71, 52
1, 559296, Note_off_c, 0, 50, 0
1, 559300, Note_on_c, 0, 67, 65
1, 559308, Control_c, 0, 64, 30
1, 559325, Note_on_c, 0, 55, 48
1, 559327, Control_c, 0, 64, 0
1, 559365, Control_c, 0, 64, 9
1, 559385, Control_c, 0, 64, 28
1, 559402, Control_c, 0, 64, 50
1, 559422, Control_c, 0, 64, 64
1, 559440, Control_c, 0, 64, 69
1, 559459, Control_c, 0, 64, 73
1, 559477, Control_c, 0, 64, 79
1, 559494, Control_c, 0, 64, 86
1, 559514, Control_c, 0, 64, 93
1, 559531, Control_c, 0, 64, 101
1, 559549, Control_c, 0, 64, 108
1, 559569, Control_c, 0, 64, 114
1, 559615, Note_off_c, 0, 71, 0
1, 559665, Note_off_c, 0, 55, 0
1, 559680, Control_c, 0, 64, 94
1, 559700, Control_c, 0, 64, 72
1, 559700, Note_on_c, 0, 66, 76
1, 559705, Note_on_c, 0, 74, 68
1, 559717, Control_c, 0, 64, 46
1, 559719, Note_off_c, 0, 67, 0
1, 559725, Note_on_c, 0, 57, 43
1, 559736, Control_c, 0, 64, 14
1, 559754, Control_c, 0, 64, 0
1, 559810, Control_c, 0, 64, 22
1, 559829, Control_c, 0, 64, 41
1, 559848, Control_c, 0, 64, 58
1, 559866, Control_c, 0, 64, 65
1, 559883, Control_c, 0, 64, 69
1, 559903, Control_c, 0, 64, 73
1, 559921, Control_c, 0, 64, 78
1, 559941, Control_c, 0, 64, 85
1, 559959, Control_c, 0, 64, 91
1, 559977, Control_c, 0, 64, 98
1, 559997, Control_c, 0, 64, 103
1, 560079, Control_c, 0, 64, 95
1, 560091, Note_on_c, 0, 79, 74
1, 560096, Note_off_c, 0, 74, 0
1, 560096, Control_c, 0, 64, 83
1, 560098, Note_on_c, 0, 67, 75
1, 560111, Note_off_c, 0, 57, 0
1, 560114, Note_on_c, 0, 59, 53
1, 560116, Control_c, 0, 64, 66
1, 560127, Note_off_c, 0, 66, 0
1, 560134, Control_c, 0, 64, 45
1, 560154, Control_c, 0, 64, 19
1, 560172, Control_c, 0, 64, 0
1, 560246, Control_c, 0, 64, 15
1, 560263, Control_c, 0, 64, 27
1, 560282, Control_c, 0, 64, 40
1, 560301, Control_c, 0, 64, 55
1, 560320, Control_c, 0, 64, 65
1, 560338, Control_c, 0, 64, 71
1, 560357, Control_c, 0, 64, 75
1, 560376, Control_c, 0, 64, 81
1, 560395, Control_c, 0, 64, 88
1, 560414, Control_c, 0, 64, 95
1, 560432, Control_c, 0, 64, 101
1, 560469, Control_c, 0, 64, 96
1, 560480, Note_on_c, 0, 69, 79
1, 560487, Control_c, 0, 64, 78
1, 560493, Note_off_c, 0, 67, 0
1, 560495, Note_off_c, 0, 59, 0
1, 560505, Control_c, 0, 64, 54
1, 560515, Note_on_c, 0, 60, 44
1, 560524, Control_c, 0, 64, 29
1, 560542, Control_c, 0, 64, 12
1, 560599, Control_c, 0, 64, 23
1, 560617, Control_c, 0, 64, 40
1, 560636, Control_c, 0, 64, 59
1, 560655, Control_c, 0, 64, 68
1, 560673, Control_c, 0, 64, 73
1, 560690, Control_c, 0, 64, 77
1, 560709, Control_c, 0, 64, 83
1, 560728, Control_c, 0, 64, 91
1, 560747, Control_c, 0, 64, 101
1, 560765, Control_c, 0, 64, 109
1, 560785, Control_c, 0, 64, 115
1, 560840, Control_c, 0, 64, 108
1, 560858, Control_c, 0, 64, 89
1, 560858, Note_on_c, 0, 71, 71
1, 560860, Note_off_c, 0, 60, 0
1, 560869, Note_off_c, 0, 69, 0
1, 560875, Control_c, 0, 64, 65
1, 560894, Control_c, 0, 64, 39
1, 560906, Note_on_c, 0, 62, 48
1, 560913, Control_c, 0, 64, 17
1, 560932, Control_c, 0, 64, 12
1, 560969, Control_c, 0, 64, 19
1, 560997, Control_c, 0, 64, 35
1, 561016, Control_c, 0, 64, 54
1, 561035, Control_c, 0, 64, 67
1, 561053, Control_c, 0, 64, 72
1, 561070, Control_c, 0, 64, 77
1, 561088, Control_c, 0, 64, 83
1, 561109, Control_c, 0, 64, 90
1, 561126, Control_c, 0, 64, 96
1, 561145, Control_c, 0, 64, 100
1, 561220, Control_c, 0, 64, 91
1, 561239, Control_c, 0, 64, 83
1, 561252, Note_off_c, 0, 79, 0
1, 561257, Control_c, 0, 64, 71
1, 561269, Note_on_c, 0, 81, 57
1, 561276, Control_c, 0, 64, 58
1, 561280, Note_on_c, 0, 66, 68
1, 561295, Control_c, 0, 64, 47
1, 561313, Control_c, 0, 64, 37
1, 561330, Control_c, 0, 64, 29
1, 561349, Control_c, 0, 64, 22
1, 561358, Note_off_c, 0, 71, 0
1, 561368, Control_c, 0, 64, 17
1, 561387, Control_c, 0, 64, 13
1, 561425, Note_on_c, 0, 79, 60
1, 561439, Note_off_c, 0, 81, 0
1, 561656, Note_on_c, 0, 78, 56
1, 561659, Note_off_c, 0, 79, 0
1, 561660, Note_on_c, 0, 71, 59
1, 561684, Note_off_c, 0, 66, 0
1, 562034, Note_off_c, 0, 62, 0
1, 562043, Note_on_c, 0, 69, 60
1, 562053, Note_off_c, 0, 71, 0
1, 562072, Note_on_c, 0, 63, 43
1, 562120, Control_c, 0, 64, 21
1, 562140, Control_c, 0, 64, 31
1, 562158, Control_c, 0, 64, 43
1, 562178, Control_c, 0, 64, 54
1, 562195, Control_c, 0, 64, 60
1, 562214, Control_c, 0, 64, 63
1, 562233, Control_c, 0, 64, 67
1, 562252, Control_c, 0, 64, 72
1, 562270, Control_c, 0, 64, 77
1, 562283, Note_off_c, 0, 63, 0
1, 562287, Control_c, 0, 64, 83
1, 562307, Control_c, 0, 64, 90
1, 562325, Control_c, 0, 64, 97
1, 562343, Control_c, 0, 64, 102
1, 562395, Note_off_c, 0, 78, 0
1, 562448, Note_on_c, 0, 79, 79
1, 562451, Note_off_c, 0, 69, 0
1, 562456, Control_c, 0, 64, 97
1, 562474, Control_c, 0, 64, 88
1, 562491, Control_c, 0, 64, 74
1, 562493, Note_on_c, 0, 67, 36
1, 562493, Note_on_c, 0, 64, 44
1, 562509, Control_c, 0, 64, 59
1, 562529, Control_c, 0, 64, 47
1, 562546, Control_c, 0, 64, 35
1, 562566, Control_c, 0, 64, 18
1, 562584, Control_c, 0, 64, 8
1, 562849, Note_on_c, 0, 78, 80
1, 562888, Note_on_c, 0, 71, 50
1, 562909, Control_c, 0, 64, 17
1, 562917, Note_off_c, 0, 79, 0
1, 562927, Control_c, 0, 64, 27
1, 562945, Note_off_c, 0, 67, 0
1, 562945, Control_c, 0, 64, 39
1, 562965, Control_c, 0, 64, 52
1, 562970, Note_off_c, 0, 71, 0
1, 562983, Control_c, 0, 64, 60
1, 563002, Control_c, 0, 64, 65
1, 563021, Control_c, 0, 64, 69
1, 563040, Control_c, 0, 64, 73
1, 563058, Control_c, 0, 64, 79
1, 563077, Control_c, 0, 64, 88
1, 563096, Control_c, 0, 64, 98
1, 563114, Control_c, 0, 64, 110
1, 563131, Control_c, 0, 64, 121
1, 563149, Control_c, 0, 64, 127
1, 563168, Note_off_c, 0, 64, 0
1, 563245, Note_on_c, 0, 79, 84
1, 563273, Note_off_c, 0, 78, 0
1, 563279, Control_c, 0, 64, 119
1, 563283, Note_on_c, 0, 76, 58
1, 563300, Control_c, 0, 64, 108
1, 563317, Control_c, 0, 64, 94
1, 563329, Control_c, 0, 64, 81
1, 563349, Control_c, 0, 64, 68
1, 563368, Control_c, 0, 64, 62
1, 563387, Control_c, 0, 64, 61
1, 563405, Control_c, 0, 64, 59
1, 563424, Control_c, 0, 64, 54
1, 563443, Control_c, 0, 64, 46
1, 563461, Control_c, 0, 64, 35
1, 563480, Control_c, 0, 64, 22
1, 563497, Control_c, 0, 64, 17
1, 563626, Note_on_c, 0, 81, 82
1, 563665, Note_off_c, 0, 79, 0
1, 563665, Note_on_c, 0, 60, 40
1, 564045, Note_on_c, 0, 83, 80
1, 564060, Note_off_c, 0, 60, 0
1, 564075, Note_off_c, 0, 81, 0
1, 564083, Note_on_c, 0, 55, 39
1, 564158, Control_c, 0, 64, 24
1, 564176, Control_c, 0, 64, 35
1, 564195, Control_c, 0, 64, 48
1, 564213, Control_c, 0, 64, 59
1, 564233, Control_c, 0, 64, 64
1, 564250, Control_c, 0, 64, 67
1, 564270, Control_c, 0, 64, 72
1, 564288, Control_c, 0, 64, 77
1, 564306, Control_c, 0, 64, 85
1, 564324, Control_c, 0, 64, 96
1, 564343, Control_c, 0, 64, 105
1, 564362, Control_c, 0, 64, 112
1, 564418, Control_c, 0, 64, 100
1, 564432, Note_on_c, 0, 78, 73
1, 564436, Control_c, 0, 64, 80
1, 564455, Control_c, 0, 64, 57
1, 564471, Note_on_c, 0, 62, 37
1, 564473, Control_c, 0, 64, 36
1, 564475, Note_off_c, 0, 76, 0
1, 564491, Control_c, 0, 64, 25
1, 564517, Note_off_c, 0, 83, 0
1, 564528, Control_c, 0, 64, 30
1, 564547, Control_c, 0, 64, 43
1, 564549, Note_off_c, 0, 55, 0
1, 564566, Control_c, 0, 64, 60
1, 564585, Control_c, 0, 64, 68
1, 564603, Control_c, 0, 64, 71
1, 564610, Note_on_c, 0, 76, 74
1, 564623, Control_c, 0, 64, 74
1, 564640, Control_c, 0, 64, 79
1, 564660, Control_c, 0, 64, 85
1, 564678, Control_c, 0, 64, 92
1, 564697, Control_c, 0, 64, 100
1, 564716, Control_c, 0, 64, 108
1, 564743, Control_c, 0, 64, 113
1, 564817, Control_c, 0, 64, 107
1, 564821, Note_off_c, 0, 76, 0
1, 564835, Control_c, 0, 64, 94
1, 564836, Note_off_c, 0, 78, 0
1, 564838, Note_off_c, 0, 62, 0
1, 564840, Note_on_c, 0, 83, 83
1, 564856, Control_c, 0, 64, 76
1, 564869, Note_on_c, 0, 74, 62
1, 564875, Control_c, 0, 64, 56
1, 564887, Note_on_c, 0, 67, 44
1, 564891, Control_c, 0, 64, 37
1, 564910, Control_c, 0, 64, 16
1, 564927, Control_c, 0, 64, 9
1, 564965, Control_c, 0, 64, 14
1, 564982, Control_c, 0, 64, 28
1, 565003, Control_c, 0, 64, 47
1, 565021, Control_c, 0, 64, 62
1, 565040, Control_c, 0, 64, 68
1, 565058, Control_c, 0, 64, 72
1, 565077, Control_c, 0, 64, 79
1, 565096, Control_c, 0, 64, 87
1, 565112, Control_c, 0, 64, 98
1, 565131, Control_c, 0, 64, 109
1, 565149, Control_c, 0, 64, 118
1, 565206, Control_c, 0, 64, 107
1, 565212, Note_off_c, 0, 67, 0
1, 565224, Control_c, 0, 64, 87
1, 565232, Note_on_c, 0, 81, 75
1, 565243, Control_c, 0, 64, 64
1, 565246, Note_on_c, 0, 69, 43
1, 565262, Control_c, 0, 64, 42
1, 565281, Control_c, 0, 64, 25
1, 565291, Note_off_c, 0, 83, 0
1, 565297, Control_c, 0, 64, 20
1, 565335, Control_c, 0, 64, 32
1, 565354, Control_c, 0, 64, 51
1, 565372, Control_c, 0, 64, 68
1, 565383, Note_off_c, 0, 69, 0
1, 565389, Control_c, 0, 64, 74
1, 565404, Note_on_c, 0, 71, 58
1, 565409, Control_c, 0, 64, 79
1, 565429, Control_c, 0, 64, 85
1, 565446, Note_off_c, 0, 74, 0
1, 565448, Control_c, 0, 64, 92
1, 565465, Control_c, 0, 64, 98
1, 565483, Control_c, 0, 64, 104
1, 565501, Control_c, 0, 64, 111
1, 565521, Control_c, 0, 64, 117
1, 565596, Control_c, 0, 64, 113
1, 565614, Control_c, 0, 64, 100
1, 565634, Control_c, 0, 64, 82
1, 565636, Note_off_c, 0, 71, 0
1, 565642, Note_off_c, 0, 81, 0
1, 565650, Control_c, 0, 64, 60
1, 565652, Note_on_c, 0, 76, 78
1, 565653, Note_on_c, 0, 79, 68
1, 565680, Control_c, 0, 64, 41
1, 565688, Note_on_c, 0, 72, 46
1, 565698, Control_c, 0, 64, 22
1, 565717, Control_c, 0, 64, 14
1, 565753, Control_c, 0, 64, 18
1, 565771, Control_c, 0, 64, 31
1, 565790, Control_c, 0, 64, 47
1, 565808, Control_c, 0, 64, 61
1, 565828, Control_c, 0, 64, 68
1, 565846, Control_c, 0, 64, 74
1, 565865, Control_c, 0, 64, 80
1, 565884, Control_c, 0, 64, 89
1, 565902, Control_c, 0, 64, 99
1, 565919, Control_c, 0, 64, 110
1, 565937, Control_c, 0, 64, 121
1, 565943, Note_off_c, 0, 76, 0
1, 565957, Control_c, 0, 64, 125
1, 565994, Control_c, 0, 64, 118
1, 566014, Control_c, 0, 64, 101
1, 566032, Control_c, 0, 64, 79
1, 566040, Note_off_c, 0, 79, 0
1, 566043, Note_on_c, 0, 74, 82
1, 566044, Note_on_c, 0, 81, 75
1, 566046, Note_off_c, 0, 72, 0
1, 566049, Control_c, 0, 64, 54
1, 566068, Control_c, 0, 64, 32
1, 566083, Note_on_c, 0, 71, 36
1, 566086, Control_c, 0, 64, 21
1, 566123, Control_c, 0, 64, 28
1, 566141, Control_c, 0, 64, 45
1, 566161, Control_c, 0, 64, 64
1, 566179, Control_c, 0, 64, 73
1, 566198, Control_c, 0, 64, 79
1, 566210, Note_on_c, 0, 83, 79
1, 566217, Control_c, 0, 64, 85
1, 566235, Control_c, 0, 64, 92
1, 566245, Note_off_c, 0, 81, 0
1, 566253, Control_c, 0, 64, 99
1, 566274, Control_c, 0, 64, 106
1, 566290, Control_c, 0, 64, 113
1, 566309, Control_c, 0, 64, 118
1, 566314, Note_off_c, 0, 74, 0
1, 566345, Control_c, 0, 64, 122
1, 566402, Control_c, 0, 64, 112
1, 566420, Control_c, 0, 64, 99
1, 566433, Note_off_c, 0, 83, 0
1, 566433, Note_on_c, 0, 84, 77
1, 566441, Control_c, 0, 64, 81
1, 566447, Note_on_c, 0, 76, 74
1, 566458, Control_c, 0, 64, 59
1, 566459, Note_off_c, 0, 71, 0
1, 566467, Note_on_c, 0, 69, 42
1, 566476, Control_c, 0, 64, 37
1, 566496, Control_c, 0, 64, 14
1, 566514, Control_c, 0, 64, 8
1, 566549, Control_c, 0, 64, 14
1, 566569, Control_c, 0, 64, 28
1, 566587, Control_c, 0, 64, 46
1, 566616, Control_c, 0, 64, 60
1, 566634, Control_c, 0, 64, 67
1, 566653, Control_c, 0, 64, 70
1, 566671, Control_c, 0, 64, 74
1, 566691, Control_c, 0, 64, 79
1, 566708, Control_c, 0, 64, 85
1, 566727, Control_c, 0, 64, 91
1, 566744, Control_c, 0, 64, 97
1, 566801, Control_c, 0, 64, 87
1, 566819, Control_c, 0, 64, 69
1, 566839, Control_c, 0, 64, 50
1, 566841, Note_on_c, 0, 78, 73
1, 566843, Note_off_c, 0, 69, 0
1, 566856, Control_c, 0, 64, 34
1, 566866, Note_on_c, 0, 74, 40
1, 566874, Control_c, 0, 64, 22
1, 566894, Note_off_c, 0, 76, 0
1, 566929, Control_c, 0, 64, 28
1, 566949, Control_c, 0, 64, 43
1, 566968, Control_c, 0, 64, 60
1, 566986, Control_c, 0, 64, 68
1, 567004, Control_c, 0, 64, 72
1, 567025, Control_c, 0, 64, 76
1, 567042, Control_c, 0, 64, 81
1, 567061, Control_c, 0, 64, 87
1, 567080, Control_c, 0, 64, 94
1, 567099, Control_c, 0, 64, 101
1, 567115, Control_c, 0, 64, 106
1, 567190, Control_c, 0, 64, 97
1, 567209, Control_c, 0, 64, 83
1, 567227, Control_c, 0, 64, 63
1, 567247, Control_c, 0, 64, 43
1, 567258, Note_on_c, 0, 79, 63
1, 567265, Control_c, 0, 64, 24
1, 567273, Note_on_c, 0, 67, 39
1, 567285, Control_c, 0, 64, 18
1, 567304, Note_off_c, 0, 74, 0
1, 567306, Note_off_c, 0, 78, 0
1, 567320, Control_c, 0, 64, 26
1, 567337, Control_c, 0, 64, 42
1, 567357, Control_c, 0, 64, 62
1, 567374, Note_off_c, 0, 84, 0
1, 567374, Control_c, 0, 64, 71
1, 567395, Control_c, 0, 64, 76
1, 567412, Control_c, 0, 64, 81
1, 567432, Control_c, 0, 64, 88
1, 567451, Control_c, 0, 64, 96
1, 567468, Control_c, 0, 64, 104
1, 567488, Control_c, 0, 64, 114
1, 567506, Control_c, 0, 64, 124
1, 567626, Control_c, 0, 64, 103
1, 567645, Control_c, 0, 64, 78
1, 567658, Note_off_c, 0, 79, 0
1, 567658, Note_on_c, 0, 83, 52
1, 567662, Note_on_c, 0, 74, 51
1, 567664, Control_c, 0, 64, 53
1, 567683, Control_c, 0, 64, 33
1, 567701, Control_c, 0, 64, 27
1, 567737, Control_c, 0, 64, 31
1, 567756, Control_c, 0, 64, 44
1, 567774, Control_c, 0, 64, 61
1, 567794, Control_c, 0, 64, 70
1, 567807, Note_off_c, 0, 83, 0
1, 567811, Control_c, 0, 64, 75
1, 567820, Note_on_c, 0, 81, 58
1, 567829, Control_c, 0, 64, 80
1, 567849, Control_c, 0, 64, 85
1, 567867, Control_c, 0, 64, 92
1, 567886, Control_c, 0, 64, 100
1, 567906, Control_c, 0, 64, 108
1, 567921, Control_c, 0, 64, 114
1, 567996, Control_c, 0, 64, 104
1, 568015, Control_c, 0, 64, 89
1, 568035, Control_c, 0, 64, 68
1, 568053, Control_c, 0, 64, 46
1, 568056, Note_off_c, 0, 74, 0
1, 568071, Note_off_c, 0, 81, 0
1, 568071, Control_c, 0, 64, 22
1, 568077, Note_on_c, 0, 79, 60
1, 568079, Note_on_c, 0, 83, 52
1, 568164, Control_c, 0, 64, 40
1, 568182, Control_c, 0, 64, 61
1, 568201, Control_c, 0, 64, 71
1, 568219, Control_c, 0, 64, 77
1, 568239, Control_c, 0, 64, 82
1, 568250, Note_off_c, 0, 83, 0
1, 568258, Control_c, 0, 64, 89
1, 568275, Control_c, 0, 64, 97
1, 568296, Control_c, 0, 64, 107
1, 568309, Note_off_c, 0, 79, 0
1, 568312, Control_c, 0, 64, 119
1, 568331, Control_c, 0, 64, 127
1, 568424, Control_c, 0, 64, 111
1, 568442, Control_c, 0, 64, 86
1, 568462, Control_c, 0, 64, 59
1, 568484, Note_on_c, 0, 71, 66
1, 568488, Note_on_c, 0, 78, 65
1, 568490, Control_c, 0, 64, 32
1, 568508, Control_c, 0, 64, 10
1, 568562, Control_c, 0, 64, 20
1, 568580, Control_c, 0, 64, 35
1, 568599, Control_c, 0, 64, 53
1, 568618, Control_c, 0, 64, 65
1, 568637, Control_c, 0, 64, 71
1, 568655, Control_c, 0, 64, 77
1, 568674, Control_c, 0, 64, 86
1, 568694, Control_c, 0, 64, 99
1, 568712, Control_c, 0, 64, 116
1, 568725, Note_off_c, 0, 71, 0
1, 568729, Control_c, 0, 64, 127
1, 568841, Control_c, 0, 64, 95
1, 568859, Control_c, 0, 64, 66
1, 568876, Note_on_c, 0, 73, 75
1, 568877, Note_on_c, 0, 76, 72
1, 568877, Control_c, 0, 64, 37
1, 568893, Note_off_c, 0, 78, 0
1, 568895, Control_c, 0, 64, 12
1, 568952, Control_c, 0, 64, 25
1, 568970, Control_c, 0, 64, 47
1, 568989, Control_c, 0, 64, 67
1, 569007, Control_c, 0, 64, 77
1, 569027, Control_c, 0, 64, 86
1, 569045, Control_c, 0, 64, 96
1, 569063, Control_c, 0, 64, 109
1, 569083, Control_c, 0, 64, 124
1, 569121, Note_off_c, 0, 73, 0
1, 569183, Note_off_c, 0, 67, 0
1, 569230, Control_c, 0, 64, 101
1, 569249, Control_c, 0, 64, 74
1, 569258, Note_on_c, 0, 78, 72
1, 569260, Note_on_c, 0, 71, 69
1, 569267, Control_c, 0, 64, 46
1, 569280, Note_off_c, 0, 76, 0
1, 569286, Control_c, 0, 64, 16
1, 569292, Note_on_c, 0, 55, 53
1, 569305, Control_c, 0, 64, 0
1, 569359, Control_c, 0, 64, 24
1, 569378, Control_c, 0, 64, 45
1, 569397, Control_c, 0, 64, 63
1, 569425, Control_c, 0, 64, 72
1, 569435, Note_on_c, 0, 79, 79
1, 569443, Control_c, 0, 64, 78
1, 569463, Control_c, 0, 64, 85
1, 569481, Control_c, 0, 64, 95
1, 569486, Note_off_c, 0, 78, 0
1, 569500, Control_c, 0, 64, 105
1, 569513, Note_off_c, 0, 71, 0
1, 569518, Control_c, 0, 64, 118
1, 569537, Control_c, 0, 64, 127
1, 569667, Control_c, 0, 64, 119
1, 569667, Note_on_c, 0, 81, 77
1, 569670, Note_on_c, 0, 73, 69
1, 569686, Control_c, 0, 64, 95
1, 569704, Control_c, 0, 64, 73
1, 569706, Note_off_c, 0, 79, 0
1, 569722, Control_c, 0, 64, 53
1, 569741, Control_c, 0, 64, 38
1, 569758, Control_c, 0, 64, 26
1, 569777, Control_c, 0, 64, 21
1, 570041, Note_off_c, 0, 55, 0
1, 570048, Note_on_c, 0, 75, 70
1, 570067, Note_on_c, 0, 54, 44
1, 570109, Note_off_c, 0, 73, 0
1, 570440, Note_off_c, 0, 54, 0
1, 570453, Note_on_c, 0, 76, 65
1, 570471, Note_off_c, 0, 75, 0
1, 570482, Note_on_c, 0, 52, 42
1, 570491, Control_c, 0, 64, 25
1, 570510, Control_c, 0, 64, 33
1, 570529, Control_c, 0, 64, 45
1, 570546, Control_c, 0, 64, 57
1, 570562, Note_off_c, 0, 81, 0
1, 570565, Control_c, 0, 64, 64
1, 570583, Control_c, 0, 64, 69
1, 570601, Control_c, 0, 64, 74
1, 570621, Control_c, 0, 64, 82
1, 570641, Control_c, 0, 64, 93
1, 570658, Control_c, 0, 64, 106
1, 570677, Control_c, 0, 64, 123
1, 570682, Note_off_c, 0, 52, 0
1, 570697, Control_c, 0, 64, 127
1, 570825, Control_c, 0, 64, 116
1, 570829, Note_off_c, 0, 76, 0
1, 570844, Control_c, 0, 64, 92
1, 570853, Note_on_c, 0, 79, 58
1, 570861, Note_on_c, 0, 64, 48
1, 570863, Control_c, 0, 64, 68
1, 570863, Note_on_c, 0, 71, 52
1, 570880, Control_c, 0, 64, 47
1, 570901, Control_c, 0, 64, 32
1, 570919, Control_c, 0, 64, 25
1, 570958, Control_c, 0, 64, 29
1, 570973, Control_c, 0, 64, 41
1, 570991, Control_c, 0, 64, 57
1, 571012, Control_c, 0, 64, 67
1, 571015, Note_off_c, 0, 79, 0
1, 571017, Note_off_c, 0, 64, 0
1, 571023, Note_on_c, 0, 78, 60
1, 571031, Control_c, 0, 64, 72
1, 571039, Note_on_c, 0, 63, 45
1, 571048, Control_c, 0, 64, 77
1, 571066, Control_c, 0, 64, 83
1, 571085, Control_c, 0, 64, 90
1, 571104, Control_c, 0, 64, 100
1, 571123, Control_c, 0, 64, 108
1, 571177, Control_c, 0, 64, 99
1, 571196, Control_c, 0, 64, 81
1, 571197, Note_off_c, 0, 63, 0
1, 571198, Note_off_c, 0, 71, 0
1, 571214, Control_c, 0, 64, 59
1, 571234, Control_c, 0, 64, 37
1, 571238, Note_off_c, 0, 78, 0
1, 571252, Control_c, 0, 64, 9
1, 571260, Note_on_c, 0, 79, 56
1, 571263, Note_on_c, 0, 64, 42
1, 571270, Control_c, 0, 64, 0
1, 571271, Note_on_c, 0, 76, 46
1, 571336, Control_c, 0, 64, 12
1, 571353, Control_c, 0, 64, 32
1, 571372, Control_c, 0, 64, 51
1, 571390, Control_c, 0, 64, 65
1, 571409, Control_c, 0, 64, 72
1, 571429, Control_c, 0, 64, 78
1, 571446, Control_c, 0, 64, 87
1, 571464, Control_c, 0, 64, 98
1, 571466, Note_off_c, 0, 76, 0
1, 571475, Note_off_c, 0, 79, 0
1, 571483, Control_c, 0, 64, 112
1, 571503, Control_c, 0, 64, 127
1, 571594, Control_c, 0, 64, 118
1, 571613, Control_c, 0, 64, 94
1, 571632, Control_c, 0, 64, 67
1, 571648, Note_on_c, 0, 74, 58
1, 571651, Note_on_c, 0, 67, 64
1, 571651, Control_c, 0, 64, 39
1, 571668, Control_c, 0, 64, 8
1, 571688, Control_c, 0, 64, 0
1, 571724, Control_c, 0, 64, 12
1, 571742, Control_c, 0, 64, 29
1, 571761, Control_c, 0, 64, 49
1, 571779, Control_c, 0, 64, 65
1, 571799, Control_c, 0, 64, 74
1, 571816, Control_c, 0, 64, 82
1, 571836, Control_c, 0, 64, 93
1, 571855, Control_c, 0, 64, 106
1, 571873, Control_c, 0, 64, 122
1, 571892, Control_c, 0, 64, 127
1, 571905, Note_off_c, 0, 67, 0
1, 571984, Control_c, 0, 64, 101
1, 572002, Control_c, 0, 64, 71
1, 572021, Control_c, 0, 64, 40
1, 572036, Note_on_c, 0, 69, 74
1, 572038, Note_on_c, 0, 72, 72
1, 572039, Control_c, 0, 64, 9
1, 572058, Note_off_c, 0, 74, 0
1, 572096, Control_c, 0, 64, 30
1, 572115, Control_c, 0, 64, 54
1, 572133, Control_c, 0, 64, 71
1, 572143, Note_off_c, 0, 64, 0
1, 572151, Control_c, 0, 64, 81
1, 572169, Control_c, 0, 64, 90
1, 572188, Control_c, 0, 64, 99
1, 572207, Control_c, 0, 64, 110
1, 572236, Control_c, 0, 64, 119
1, 572253, Control_c, 0, 64, 127
1, 572295, Note_off_c, 0, 69, 0
1, 572364, Control_c, 0, 64, 117
1, 572382, Control_c, 0, 64, 99
1, 572401, Control_c, 0, 64, 78
1, 572420, Control_c, 0, 64, 58
1, 572438, Control_c, 0, 64, 45
1, 572444, Note_on_c, 0, 74, 71
1, 572447, Note_on_c, 0, 67, 66
1, 572448, Note_on_c, 0, 52, 70
1, 572454, Note_off_c, 0, 72, 0
1, 572456, Control_c, 0, 64, 31
1, 572477, Control_c, 0, 64, 13
1, 572495, Control_c, 0, 64, 8
1, 572532, Control_c, 0, 64, 19
1, 572548, Control_c, 0, 64, 38
1, 572568, Control_c, 0, 64, 58
1, 572587, Control_c, 0, 64, 68
1, 572602, Note_on_c, 0, 76, 79
1, 572603, Control_c, 0, 64, 71
1, 572624, Control_c, 0, 64, 75
1, 572631, Note_off_c, 0, 74, 0
1, 572642, Control_c, 0, 64, 81
1, 572661, Control_c, 0, 64, 88
1, 572670, Note_off_c, 0, 67, 0
1, 572680, Control_c, 0, 64, 99
1, 572698, Control_c, 0, 64, 110
1, 572718, Control_c, 0, 64, 120
1, 572809, Control_c, 0, 64, 113
1, 572828, Control_c, 0, 64, 99
1, 572835, Note_on_c, 0, 77, 74
1, 572844, Note_on_c, 0, 69, 69
1, 572846, Note_off_c, 0, 76, 0
1, 572848, Control_c, 0, 64, 81
1, 572865, Control_c, 0, 64, 62
1, 572884, Control_c, 0, 64, 49
1, 572904, Control_c, 0, 64, 41
1, 572922, Control_c, 0, 64, 33
1, 572940, Control_c, 0, 64, 27
1, 572959, Control_c, 0, 64, 22
1, 573217, Note_off_c, 0, 52, 0
1, 573228, Note_on_c, 0, 71, 67
1, 573230, Note_off_c, 0, 69, 0
1, 573247, Note_on_c, 0, 50, 48
1, 573622, Note_off_c, 0, 50, 0
1, 573624, Note_on_c, 0, 72, 56
1, 573634, Note_off_c, 0, 71, 0
1, 573666, Note_on_c, 0, 48, 34
1, 573729, Control_c, 0, 64, 29
1, 573747, Control_c, 0, 64, 42
1, 573766, Control_c, 0, 64, 57
1, 573784, Control_c, 0, 64, 66
1, 573801, Control_c, 0, 64, 71
1, 573820, Control_c, 0, 64, 75
1, 573840, Control_c, 0, 64, 82
1, 573858, Control_c, 0, 64, 89
1, 573876, Control_c, 0, 64, 99
1, 573895, Control_c, 0, 64, 109
1, 573905, Note_off_c, 0, 48, 0
1, 573911, Note_off_c, 0, 77, 0
1, 573914, Control_c, 0, 64, 118
1, 573917, Note_off_c, 0, 72, 0
1, 573932, Control_c, 0, 64, 124
1, 573987, Control_c, 0, 64, 117
1, 574005, Control_c, 0, 64, 94
1, 574025, Control_c, 0, 64, 67
1, 574028, Note_on_c, 0, 76, 65
1, 574031, Note_on_c, 0, 67, 57
1, 574042, Control_c, 0, 64, 41
1, 574051, Note_on_c, 0, 60, 36
1, 574061, Control_c, 0, 64, 29
1, 574108, Control_c, 0, 64, 38
1, 574126, Control_c, 0, 64, 53
1, 574146, Control_c, 0, 64, 67
1, 574162, Control_c, 0, 64, 74
1, 574181, Note_off_c, 0, 60, 0
1, 574181, Control_c, 0, 64, 81
1, 574193, Note_off_c, 0, 67, 0
1, 574197, Note_on_c, 0, 74, 77
1, 574200, Control_c, 0, 64, 89
1, 574202, Note_off_c, 0, 76, 0
1, 574207, Note_on_c, 0, 59, 59
1, 574219, Control_c, 0, 64, 100
1, 574239, Control_c, 0, 64, 113
1, 574255, Control_c, 0, 64, 127
1, 574350, Control_c, 0, 64, 109
1, 574369, Control_c, 0, 64, 81
1, 574380, Note_off_c, 0, 59, 0
1, 574386, Control_c, 0, 64, 53
1, 574392, Note_on_c, 0, 76, 74
1, 574396, Note_on_c, 0, 60, 52
1, 574403, Note_off_c, 0, 74, 0
1, 574403, Note_on_c, 0, 72, 70
1, 574403, Control_c, 0, 64, 22
1, 574459, Control_c, 0, 64, 11
1, 574479, Control_c, 0, 64, 30
1, 574497, Control_c, 0, 64, 51
1, 574517, Control_c, 0, 64, 66
1, 574534, Control_c, 0, 64, 73
1, 574554, Control_c, 0, 64, 79
1, 574559, Note_on_c, 0, 78, 79
1, 574561, Note_off_c, 0, 60, 0
1, 574573, Control_c, 0, 64, 85
1, 574574, Note_off_c, 0, 76, 0
1, 574579, Note_on_c, 0, 62, 59
1, 574590, Control_c, 0, 64, 93
1, 574607, Control_c, 0, 64, 100
1, 574623, Note_off_c, 0, 72, 0
1, 574626, Control_c, 0, 64, 104
1, 574703, Control_c, 0, 64, 93
1, 574721, Control_c, 0, 64, 78
1, 574738, Note_off_c, 0, 62, 0
1, 574739, Control_c, 0, 64, 59
1, 574758, Control_c, 0, 64, 40
1, 574766, Note_on_c, 0, 79, 78
1, 574771, Note_on_c, 0, 71, 72
1, 574772, Note_on_c, 0, 64, 58
1, 574774, Control_c, 0, 64, 19
1, 574792, Note_off_c, 0, 78, 0
1, 574793, Control_c, 0, 64, 10
1, 574830, Control_c, 0, 64, 17
1, 574849, Control_c, 0, 64, 33
1, 574867, Control_c, 0, 64, 54
1, 574886, Control_c, 0, 64, 67
1, 574904, Control_c, 0, 64, 72
1, 574924, Note_off_c, 0, 64, 0
1, 574924, Control_c, 0, 64, 76
1, 574935, Note_on_c, 0, 62, 57
1, 574941, Control_c, 0, 64, 79
1, 574960, Control_c, 0, 64, 83
1, 574978, Control_c, 0, 64, 85
1, 575062, Control_c, 0, 64, 82
1, 575081, Control_c, 0, 64, 75
1, 575100, Control_c, 0, 64, 65
1, 575116, Note_off_c, 0, 62, 0
1, 575117, Control_c, 0, 64, 52
1, 575137, Control_c, 0, 64, 38
1, 575151, Note_off_c, 0, 71, 0
1, 575151, Note_on_c, 0, 69, 68
1, 575155, Control_c, 0, 64, 19
1, 575160, Note_on_c, 0, 61, 49
1, 575174, Control_c, 0, 64, 0
1, 575247, Control_c, 0, 64, 19
1, 575266, Control_c, 0, 64, 32
1, 575284, Control_c, 0, 64, 48
1, 575288, Note_off_c, 0, 61, 0
1, 575304, Control_c, 0, 64, 64
1, 575323, Control_c, 0, 64, 70
1, 575333, Note_on_c, 0, 57, 53
1, 575339, Control_c, 0, 64, 74
1, 575360, Control_c, 0, 64, 78
1, 575378, Control_c, 0, 64, 83
1, 575382, Note_off_c, 0, 69, 0
1, 575397, Control_c, 0, 64, 88
1, 575415, Control_c, 0, 64, 93
1, 575471, Control_c, 0, 64, 79
1, 575488, Control_c, 0, 64, 60
1, 575507, Control_c, 0, 64, 39
1, 575516, Note_on_c, 0, 78, 70
1, 575524, Note_off_c, 0, 57, 0
1, 575525, Control_c, 0, 64, 22
1, 575527, Note_on_c, 0, 71, 70
1, 575543, Control_c, 0, 64, 18
1, 575547, Note_on_c, 0, 62, 48
1, 575583, Control_c, 0, 64, 24
1, 575587, Note_off_c, 0, 79, 0
1, 575599, Control_c, 0, 64, 36
1, 575618, Control_c, 0, 64, 52
1, 575637, Control_c, 0, 64, 65
1, 575655, Control_c, 0, 64, 70
1, 575674, Control_c, 0, 64, 73
1, 575690, Note_on_c, 0, 73, 73
1, 575692, Control_c, 0, 64, 76
1, 575701, Note_off_c, 0, 62, 0
1, 575712, Note_off_c, 0, 71, 0
1, 575712, Control_c, 0, 64, 79
1, 575716, Note_on_c, 0, 61, 59
1, 575730, Control_c, 0, 64, 83
1, 575748, Control_c, 0, 64, 86
1, 575821, Control_c, 0, 64, 84
1, 575841, Control_c, 0, 64, 78
1, 575859, Control_c, 0, 64, 67
1, 575878, Control_c, 0, 64, 55
1, 575889, Note_off_c, 0, 61, 0
1, 575895, Control_c, 0, 64, 46
1, 575901, Note_on_c, 0, 74, 77
1, 575915, Control_c, 0, 64, 39
1, 575927, Note_on_c, 0, 59, 53
1, 575929, Note_off_c, 0, 73, 0
1, 575933, Control_c, 0, 64, 34
1, 575980, Control_c, 0, 64, 28
1, 576053, Note_off_c, 0, 59, 0
1, 576087, Note_on_c, 0, 57, 64
1, 576277, Note_on_c, 0, 76, 74
1, 576280, Note_off_c, 0, 57, 0
1, 576294, Note_off_c, 0, 78, 0
1, 576295, Note_on_c, 0, 59, 67
1, 576432, Note_off_c, 0, 59, 0
1, 576439, Note_on_c, 0, 56, 74
1, 576645, Note_off_c, 0, 56, 0
1, 576649, Note_on_c, 0, 78, 76
1, 576661, Note_on_c, 0, 57, 65
1, 576675, Note_off_c, 0, 76, 0
1, 576722, Control_c, 0, 64, 33
1, 576741, Control_c, 0, 64, 40
1, 576759, Control_c, 0, 64, 49
1, 576777, Control_c, 0, 64, 59
1, 576795, Control_c, 0, 64, 65
1, 576813, Note_off_c, 0, 57, 0
1, 576813, Control_c, 0, 64, 70
1, 576833, Control_c, 0, 64, 74
1, 576833, Note_on_c, 0, 59, 70
1, 576851, Note_off_c, 0, 74, 0
1, 576851, Control_c, 0, 64, 80
1, 576870, Control_c, 0, 64, 88
1, 576890, Control_c, 0, 64, 97
1, 576916, Control_c, 0, 64, 105
1, 576936, Control_c, 0, 64, 110
1, 576973, Control_c, 0, 64, 102
1, 576991, Control_c, 0, 64, 84
1, 576993, Note_off_c, 0, 59, 0
1, 577011, Control_c, 0, 64, 60
1, 577017, Note_off_c, 0, 78, 0
1, 577019, Note_on_c, 0, 79, 76
1, 577028, Control_c, 0, 64, 35
1, 577034, Note_on_c, 0, 73, 68
1, 577046, Note_on_c, 0, 57, 61
1, 577046, Control_c, 0, 64, 15
1, 577102, Control_c, 0, 64, 21
1, 577120, Control_c, 0, 64, 36
1, 577139, Note_off_c, 0, 73, 0
1, 577139, Control_c, 0, 64, 53
1, 577159, Control_c, 0, 64, 64
1, 577177, Control_c, 0, 64, 69
1, 577181, Note_off_c, 0, 57, 0
1, 577193, Note_on_c, 0, 71, 67
1, 577195, Control_c, 0, 64, 75
1, 577207, Note_on_c, 0, 55, 57
1, 577212, Control_c, 0, 64, 82
1, 577232, Control_c, 0, 64, 91
1, 577250, Control_c, 0, 64, 100
1, 577268, Control_c, 0, 64, 109
1, 577269, Note_off_c, 0, 71, 0
1, 577287, Control_c, 0, 64, 113
1, 577324, Control_c, 0, 64, 106
1, 577343, Control_c, 0, 64, 89
1, 577362, Control_c, 0, 64, 66
1, 577380, Note_off_c, 0, 79, 0
1, 577380, Control_c, 0, 64, 42
1, 577399, Control_c, 0, 64, 16
1, 577400, Note_off_c, 0, 55, 0
1, 577403, Note_on_c, 0, 81, 80
1, 577414, Note_on_c, 0, 73, 73
1, 577418, Control_c, 0, 64, 0
1, 577427, Note_on_c, 0, 54, 62
1, 577472, Control_c, 0, 64, 15
1, 577492, Control_c, 0, 64, 28
1, 577510, Control_c, 0, 64, 45
1, 577518, Note_off_c, 0, 54, 0
1, 577529, Control_c, 0, 64, 62
1, 577547, Control_c, 0, 64, 69
1, 577553, Note_off_c, 0, 73, 0
1, 577559, Note_on_c, 0, 74, 76
1, 577565, Control_c, 0, 64, 74
1, 577581, Control_c, 0, 64, 80
1, 577585, Note_on_c, 0, 52, 57
1, 577602, Control_c, 0, 64, 85
1, 577620, Control_c, 0, 64, 91
1, 577639, Control_c, 0, 64, 96
1, 577677, Control_c, 0, 64, 101
1, 577733, Control_c, 0, 64, 91
1, 577753, Control_c, 0, 64, 76
1, 577770, Control_c, 0, 64, 56
1, 577776, Note_on_c, 0, 79, 79
1, 577778, Note_off_c, 0, 52, 0
1, 577790, Control_c, 0, 64, 36
1, 577793, Note_off_c, 0, 74, 0
1, 577795, Note_on_c, 0, 76, 70
1, 577802, Note_on_c, 0, 50, 56
1, 577808, Control_c, 0, 64, 12
1, 577811, Note_off_c, 0, 81, 0
1, 577827, Control_c, 0, 64, 0
1, 577891, Control_c, 0, 64, 9
1, 577909, Control_c, 0, 64, 21
1, 577927, Control_c, 0, 64, 35
1, 577946, Control_c, 0, 64, 48
1, 577965, Control_c, 0, 64, 58
1, 577968, Note_off_c, 0, 50, 0
1, 577982, Note_on_c, 0, 49, 61
1, 577982, Control_c, 0, 64, 62
1, 578003, Control_c, 0, 64, 65
1, 578021, Control_c, 0, 64, 66
1, 578056, Control_c, 0, 64, 65
1, 578076, Control_c, 0, 64, 60
1, 578094, Control_c, 0, 64, 51
1, 578114, Control_c, 0, 64, 37
1, 578131, Control_c, 0, 64, 23
1, 578151, Control_c, 0, 64, 18
1, 578159, Note_off_c, 0, 49, 0
1, 578171, Note_on_c, 0, 78, 73
1, 578195, Note_on_c, 0, 50, 52
1, 578199, Note_off_c, 0, 79, 0
1, 578223, Control_c, 0, 64, 29
1, 578242, Control_c, 0, 64, 40
1, 578260, Control_c, 0, 64, 54
1, 578279, Control_c, 0, 64, 63
1, 578298, Control_c, 0, 64, 66
1, 578317, Control_c, 0, 64, 67
1, 578360, Note_on_c, 0, 49, 51
1, 578371, Note_off_c, 0, 50, 0
1, 578372, Control_c, 0, 64, 64
1, 578392, Control_c, 0, 64, 58
1, 578410, Control_c, 0, 64, 47
1, 578427, Control_c, 0, 64, 32
1, 578447, Control_c, 0, 64, 20
1, 578465, Control_c, 0, 64, 16
1, 578502, Control_c, 0, 64, 10
1, 578509, Note_off_c, 0, 76, 0
1, 578557, Note_off_c, 0, 49, 0
1, 578565, Note_on_c, 0, 74, 63
1, 578576, Control_c, 0, 64, 15
1, 578581, Note_on_c, 0, 47, 52
1, 578596, Control_c, 0, 64, 21
1, 578614, Control_c, 0, 64, 29
1, 578633, Control_c, 0, 64, 41
1, 578650, Control_c, 0, 64, 54
1, 578669, Control_c, 0, 64, 63
1, 578687, Control_c, 0, 64, 66
1, 578706, Control_c, 0, 64, 68
1, 578725, Note_off_c, 0, 47, 0
1, 578744, Control_c, 0, 64, 72
1, 578749, Note_on_c, 0, 45, 57
1, 578762, Control_c, 0, 64, 75
1, 578790, Control_c, 0, 64, 79
1, 578809, Control_c, 0, 64, 81
1, 578854, Note_off_c, 0, 45, 0
1, 578862, Control_c, 0, 64, 78
1, 578879, Note_off_c, 0, 78, 0
1, 578882, Control_c, 0, 64, 73
1, 578901, Control_c, 0, 64, 64
1, 578919, Control_c, 0, 64, 51
1, 578939, Control_c, 0, 64, 40
1, 578947, Note_on_c, 0, 76, 58
1, 578957, Control_c, 0, 64, 29
1, 578969, Note_on_c, 0, 43, 50
1, 578977, Control_c, 0, 64, 22
1, 579080, Note_off_c, 0, 43, 0
1, 579136, Note_on_c, 0, 40, 52
1, 579271, Note_off_c, 0, 40, 0
1, 579349, Note_off_c, 0, 74, 0
1, 579354, Note_on_c, 0, 73, 62
1, 579376, Note_on_c, 0, 45, 44
1, 579796, Note_off_c, 0, 76, 0
1, 579796, Note_on_c, 0, 74, 60
1, 579798, Note_off_c, 0, 45, 0
1, 579829, Note_on_c, 0, 38, 39
1, 579851, Note_off_c, 0, 73, 0
1, 580041, Note_off_c, 0, 38, 0
1, 580215, Note_on_c, 0, 42, 48
1, 580287, Note_off_c, 0, 42, 0
1, 580428, Note_on_c, 0, 45, 50
1, 580489, Note_off_c, 0, 45, 0
1, 580713, Note_on_c, 0, 50, 40
1, 580960, Control_c, 0, 64, 27
1, 580979, Control_c, 0, 64, 35
1, 580996, Control_c, 0, 64, 46
1, 581016, Control_c, 0, 64, 54
1, 581032, Control_c, 0, 64, 57
1, 581052, Control_c, 0, 64, 60
1, 581069, Control_c, 0, 64, 63
1, 581089, Control_c, 0, 64, 67
1, 581108, Control_c, 0, 64, 71
1, 581127, Control_c, 0, 64, 74
1, 581144, Control_c, 0, 64, 77
1, 581165, Control_c, 0, 64, 79
1, 581171, Note_off_c, 0, 74, 0
1, 581200, Note_off_c, 0, 50, 0
1, 581200, Control_c, 0, 64, 82
1, 581239, Control_c, 0, 64, 84
1, 581349, Control_c, 0, 64, 82
1, 581368, Control_c, 0, 64, 79
1, 581386, Control_c, 0, 64, 72
1, 581405, Control_c, 0, 64, 62
1, 581423, Control_c, 0, 64, 52
1, 581443, Control_c, 0, 64, 40
1, 581459, Control_c, 0, 64, 24
1, 581478, Control_c, 0, 64, 11
1, 581624, Note_on_c, 0, 78, 60
1, 581650, Note_on_c, 0, 50, 44
1, 581655, Control_c, 0, 64, 18
1, 581674, Control_c, 0, 64, 25
1, 581694, Control_c, 0, 64, 35
1, 581712, Control_c, 0, 64, 45
1, 581731, Control_c, 0, 64, 57
1, 581749, Control_c, 0, 64, 64
1, 581769, Control_c, 0, 64, 67
1, 581787, Control_c, 0, 64, 70
1, 581806, Control_c, 0, 64, 73
1, 581809, Note_off_c, 0, 50, 0
1, 581825, Control_c, 0, 64, 76
1, 581843, Control_c, 0, 64, 81
1, 581860, Control_c, 0, 64, 86
1, 581934, Control_c, 0, 64, 88
1, 581954, Control_c, 0, 64, 86
1, 581973, Control_c, 0, 64, 82
1, 581991, Control_c, 0, 64, 74
1, 582010, Control_c, 0, 64, 64
1, 582028, Control_c, 0, 64, 55
1, 582042, Note_on_c, 0, 74, 66
1, 582047, Control_c, 0, 64, 48
1, 582050, Note_on_c, 0, 62, 65
1, 582066, Control_c, 0, 64, 42
1, 582083, Control_c, 0, 64, 35
1, 582102, Control_c, 0, 64, 30
1, 582110, Note_off_c, 0, 78, 0
1, 582121, Control_c, 0, 64, 25
1, 582455, Note_on_c, 0, 76, 70
1, 582532, Note_off_c, 0, 74, 0
1, 582810, Note_off_c, 0, 62, 0
1, 582827, Note_on_c, 0, 78, 68
1, 582832, Note_on_c, 0, 60, 49
1, 582849, Note_off_c, 0, 76, 0
1, 583186, Note_off_c, 0, 60, 0
1, 583204, Note_off_c, 0, 78, 0
1, 583214, Note_on_c, 0, 79, 68
1, 583220, Note_on_c, 0, 59, 49
1, 583355, Note_off_c, 0, 59, 0
1, 583382, Note_on_c, 0, 57, 54
1, 583560, Note_off_c, 0, 79, 0
1, 583590, Note_off_c, 0, 57, 0
1, 583599, Note_on_c, 0, 74, 74
1, 583609, Note_on_c, 0, 59, 49
1, 583755, Note_off_c, 0, 59, 0
1, 583780, Note_on_c, 0, 60, 58
1, 583960, Note_off_c, 0, 60, 0
1, 583975, Note_on_c, 0, 79, 78
1, 583989, Note_on_c, 0, 59, 56
1, 584042, Note_off_c, 0, 74, 0
1, 584122, Note_off_c, 0, 59, 0
1, 584158, Note_on_c, 0, 57, 55
1, 584325, Note_off_c, 0, 57, 0
1, 584347, Note_off_c, 0, 79, 0
1, 584354, Note_on_c, 0, 81, 72
1, 584360, Note_on_c, 0, 55, 53
1, 584487, Control_c, 0, 64, 36
1, 584490, Note_off_c, 0, 55, 0
1, 584505, Control_c, 0, 64, 47
1, 584521, Control_c, 0, 64, 57
1, 584533, Note_on_c, 0, 54, 48
1, 584540, Control_c, 0, 64, 62
1, 584560, Control_c, 0, 64, 64
1, 584578, Control_c, 0, 64, 67
1, 584597, Control_c, 0, 64, 69
1, 584615, Control_c, 0, 64, 73
1, 584635, Control_c, 0, 64, 78
1, 584639, Note_off_c, 0, 54, 0
1, 584653, Control_c, 0, 64, 83
1, 584672, Control_c, 0, 64, 86
1, 584695, Note_off_c, 0, 81, 0
1, 584725, Control_c, 0, 64, 82
1, 584745, Control_c, 0, 64, 72
1, 584765, Control_c, 0, 64, 52
1, 584773, Note_on_c, 0, 83, 69
1, 584778, Note_on_c, 0, 74, 76
1, 584783, Control_c, 0, 64, 20
1, 584794, Note_on_c, 0, 55, 49
1, 584801, Control_c, 0, 64, 0
1, 584875, Control_c, 0, 64, 23
1, 584892, Control_c, 0, 64, 45
1, 584911, Control_c, 0, 64, 61
1, 584930, Control_c, 0, 64, 69
1, 584948, Control_c, 0, 64, 73
1, 584962, Note_off_c, 0, 55, 0
1, 584967, Control_c, 0, 64, 78
1, 584987, Control_c, 0, 64, 84
1, 584990, Note_off_c, 0, 83, 0
1, 585004, Control_c, 0, 64, 90
1, 585024, Control_c, 0, 64, 97
1, 585042, Control_c, 0, 64, 104
1, 585061, Control_c, 0, 64, 109
1, 585153, Control_c, 0, 64, 103
1, 585172, Control_c, 0, 64, 90
1, 585182, Note_on_c, 0, 76, 72
1, 585185, Note_on_c, 0, 71, 67
1, 585190, Note_on_c, 0, 67, 73
1, 585190, Control_c, 0, 64, 70
1, 585193, Note_off_c, 0, 74, 0
1, 585209, Control_c, 0, 64, 48
1, 585227, Control_c, 0, 64, 23
1, 585247, Control_c, 0, 64, 0
1, 585300, Control_c, 0, 64, 11
1, 585328, Control_c, 0, 64, 29
1, 585348, Control_c, 0, 64, 50
1, 585366, Control_c, 0, 64, 67
1, 585384, Control_c, 0, 64, 74
1, 585403, Control_c, 0, 64, 79
1, 585422, Control_c, 0, 64, 85
1, 585441, Control_c, 0, 64, 92
1, 585454, Note_off_c, 0, 71, 0
1, 585458, Control_c, 0, 64, 99
1, 585480, Control_c, 0, 64, 107
1, 585497, Control_c, 0, 64, 113
1, 585531, Note_off_c, 0, 76, 0
1, 585570, Control_c, 0, 64, 105
1, 585584, Note_on_c, 0, 81, 70
1, 585589, Note_on_c, 0, 73, 76
1, 585589, Control_c, 0, 64, 90
1, 585608, Control_c, 0, 64, 69
1, 585626, Control_c, 0, 64, 45
1, 585645, Control_c, 0, 64, 18
1, 585663, Control_c, 0, 64, 0
1, 585719, Control_c, 0, 64, 16
1, 585736, Control_c, 0, 64, 34
1, 585756, Control_c, 0, 64, 52
1, 585774, Control_c, 0, 64, 63
1, 585793, Control_c, 0, 64, 67
1, 585811, Control_c, 0, 64, 70
1, 585831, Control_c, 0, 64, 74
1, 585849, Control_c, 0, 64, 78
1, 585868, Control_c, 0, 64, 83
1, 585884, Control_c, 0, 64, 88
1, 585941, Control_c, 0, 64, 84
1, 585959, Control_c, 0, 64, 71
1, 585963, Note_on_c, 0, 75, 79
1, 585978, Control_c, 0, 64, 53
1, 585981, Note_on_c, 0, 66, 56
1, 585997, Control_c, 0, 64, 30
1, 586016, Control_c, 0, 64, 8
1, 586029, Note_off_c, 0, 67, 0
1, 586036, Note_off_c, 0, 73, 0
1, 586071, Control_c, 0, 64, 18
1, 586090, Control_c, 0, 64, 36
1, 586109, Control_c, 0, 64, 55
1, 586129, Control_c, 0, 64, 67
1, 586144, Control_c, 0, 64, 71
1, 586164, Control_c, 0, 64, 74
1, 586182, Control_c, 0, 64, 80
1, 586202, Control_c, 0, 64, 86
1, 586219, Control_c, 0, 64, 93
1, 586239, Control_c, 0, 64, 101
1, 586266, Control_c, 0, 64, 106
1, 586323, Control_c, 0, 64, 98
1, 586340, Control_c, 0, 64, 83
1, 586353, Note_off_c, 0, 66, 0
1, 586360, Control_c, 0, 64, 63
1, 586364, Note_on_c, 0, 76, 68
1, 586369, Note_on_c, 0, 64, 54
1, 586369, Control_c, 0, 64, 39
1, 586387, Control_c, 0, 64, 14
1, 586405, Note_off_c, 0, 75, 0
1, 586405, Control_c, 0, 64, 8
1, 586442, Control_c, 0, 64, 18
1, 586462, Control_c, 0, 64, 36
1, 586479, Note_off_c, 0, 81, 0
1, 586479, Control_c, 0, 64, 58
1, 586500, Control_c, 0, 64, 70
1, 586515, Control_c, 0, 64, 75
1, 586519, Poly_aftertouch_c, 0, 78, 0
1, 586529, Note_off_c, 0, 64, 0
1, 586534, Control_c, 0, 64, 79
1, 586541, Note_on_c, 0, 63, 57
1, 586553, Control_c, 0, 64, 83
1, 586572, Control_c, 0, 64, 87
1, 586609, Control_c, 0, 64, 92
1, 586665, Control_c, 0, 64, 85
1, 586684, Control_c, 0, 64, 72
1, 586690, Note_off_c, 0, 63, 0
1, 586702, Note_off_c, 0, 76, 0
1, 586704, Control_c, 0, 64, 54
1, 586722, Control_c, 0, 64, 31
1, 586740, Control_c, 0, 64, 0
1, 586749, Note_on_c, 0, 79, 65
1, 586751, Note_on_c, 0, 64, 59
1, 586758, Note_on_c, 0, 71, 63
1, 586816, Control_c, 0, 64, 15
1, 586834, Control_c, 0, 64, 32
1, 586853, Control_c, 0, 64, 51
1, 586871, Control_c, 0, 64, 65
1, 586889, Control_c, 0, 64, 70
1, 586907, Control_c, 0, 64, 73
1, 586914, Note_off_c, 0, 64, 0
1, 586921, Note_on_c, 0, 78, 67
1, 586925, Control_c, 0, 64, 77
1, 586935, Note_on_c, 0, 66, 57
1, 586942, Note_off_c, 0, 79, 0
1, 586943, Control_c, 0, 64, 81
1, 586964, Control_c, 0, 64, 84
1, 586982, Control_c, 0, 64, 88
1, 587012, Note_off_c, 0, 71, 0
1, 587056, Control_c, 0, 64, 83
1, 587070, Note_off_c, 0, 66, 0
1, 587075, Control_c, 0, 64, 74
1, 587095, Control_c, 0, 64, 61
1, 587113, Control_c, 0, 64, 49
1, 587129, Note_off_c, 0, 78, 0
1, 587129, Control_c, 0, 64, 41
1, 587129, Note_on_c, 0, 79, 69
1, 587131, Note_on_c, 0, 64, 52
1, 587138, Note_on_c, 0, 76, 64
1, 587148, Control_c, 0, 64, 33
1, 587168, Control_c, 0, 64, 29
1, 587285, Note_off_c, 0, 64, 0
1, 587303, Note_on_c, 0, 62, 62
1, 587469, Note_off_c, 0, 62, 0
1, 587483, Note_off_c, 0, 76, 0
1, 587486, Note_on_c, 0, 78, 81
1, 587512, Note_on_c, 0, 60, 63
1, 587532, Note_off_c, 0, 79, 0
1, 587645, Note_off_c, 0, 60, 0
1, 587674, Note_on_c, 0, 59, 71
1, 587714, Control_c, 0, 64, 25
1, 587770, Control_c, 0, 64, 21
1, 587807, Control_c, 0, 64, 15
1, 587870, Note_off_c, 0, 59, 0
1, 587871, Note_on_c, 0, 79, 82
1, 587877, Note_off_c, 0, 78, 0
1, 587883, Note_on_c, 0, 58, 70
1, 587937, Control_c, 0, 64, 22
1, 587955, Control_c, 0, 64, 32
1, 587974, Control_c, 0, 64, 46
1, 587993, Control_c, 0, 64, 60
1, 588011, Control_c, 0, 64, 66
1, 588016, Note_off_c, 0, 58, 0
1, 588030, Control_c, 0, 64, 70
1, 588048, Control_c, 0, 64, 75
1, 588051, Note_on_c, 0, 64, 73
1, 588067, Control_c, 0, 64, 82
1, 588087, Control_c, 0, 64, 92
1, 588105, Control_c, 0, 64, 102
1, 588131, Note_off_c, 0, 79, 0
1, 588131, Control_c, 0, 64, 112
1, 588150, Control_c, 0, 64, 119
1, 588225, Control_c, 0, 64, 113
1, 588240, Note_off_c, 0, 64, 0
1, 588241, Control_c, 0, 64, 101
1, 588258, Note_on_c, 0, 76, 82
1, 588260, Control_c, 0, 64, 84
1, 588275, Note_on_c, 0, 66, 64
1, 588281, Control_c, 0, 64, 66
1, 588292, Note_on_c, 0, 73, 52
1, 588297, Control_c, 0, 64, 49
1, 588316, Control_c, 0, 64, 36
1, 588335, Control_c, 0, 64, 23
1, 588354, Control_c, 0, 64, 16
1, 588391, Control_c, 0, 64, 11
1, 588438, Note_off_c, 0, 66, 0
1, 588445, Note_on_c, 0, 67, 71
1, 588629, Note_off_c, 0, 67, 0
1, 588678, Note_off_c, 0, 73, 0
1, 588689, Note_on_c, 0, 77, 72
1, 588692, Note_on_c, 0, 69, 58
1, 588745, Control_c, 0, 64, 18
1, 588764, Control_c, 0, 64, 27
1, 588783, Control_c, 0, 64, 38
1, 588801, Control_c, 0, 64, 49
1, 588820, Control_c, 0, 64, 60
1, 588839, Control_c, 0, 64, 66
1, 588857, Control_c, 0, 64, 71
1, 588876, Control_c, 0, 64, 77
1, 588881, Note_off_c, 0, 69, 0
1, 588895, Control_c, 0, 64, 84
1, 588913, Control_c, 0, 64, 93
1, 588931, Control_c, 0, 64, 104
1, 588949, Control_c, 0, 64, 118
1, 588967, Control_c, 0, 64, 127
1, 589090, Control_c, 0, 64, 113
1, 589094, Note_on_c, 0, 74, 72
1, 589103, Note_on_c, 0, 57, 64
1, 589109, Control_c, 0, 64, 89
1, 589128, Note_off_c, 0, 76, 0
1, 589128, Control_c, 0, 64, 65
1, 589144, Control_c, 0, 64, 41
1, 589163, Control_c, 0, 64, 18
1, 589182, Control_c, 0, 64, 8
1, 589220, Control_c, 0, 64, 15
1, 589237, Control_c, 0, 64, 28
1, 589257, Control_c, 0, 64, 46
1, 589262, Note_off_c, 0, 74, 0
1, 589271, Note_on_c, 0, 72, 76
1, 589277, Control_c, 0, 64, 61
1, 589293, Control_c, 0, 64, 67
1, 589311, Control_c, 0, 64, 71
1, 589329, Control_c, 0, 64, 77
1, 589348, Control_c, 0, 64, 87
1, 589367, Control_c, 0, 64, 100
1, 589385, Control_c, 0, 64, 114
1, 589404, Control_c, 0, 64, 124
1, 589441, Control_c, 0, 64, 108
1, 589460, Control_c, 0, 64, 85
1, 589469, Note_on_c, 0, 71, 79
1, 589477, Note_off_c, 0, 57, 0
1, 589480, Control_c, 0, 64, 60
1, 589491, Note_on_c, 0, 55, 56
1, 589497, Note_off_c, 0, 77, 0
1, 589498, Control_c, 0, 64, 37
1, 589501, Note_off_c, 0, 72, 0
1, 589516, Control_c, 0, 64, 17
1, 589571, Control_c, 0, 64, 26
1, 589591, Control_c, 0, 64, 44
1, 589610, Control_c, 0, 64, 62
1, 589629, Control_c, 0, 64, 70
1, 589647, Control_c, 0, 64, 76
1, 589650, Note_on_c, 0, 69, 77
1, 589657, Note_off_c, 0, 55, 0
1, 589667, Control_c, 0, 64, 84
1, 589672, Note_on_c, 0, 57, 59
1, 589686, Control_c, 0, 64, 96
1, 589693, Note_off_c, 0, 71, 0
1, 589703, Control_c, 0, 64, 111
1, 589722, Control_c, 0, 64, 127
1, 589768, Note_off_c, 0, 57, 0
1, 589780, Note_off_c, 0, 69, 0
1, 589814, Control_c, 0, 64, 99
1, 589831, Note_on_c, 0, 76, 76
1, 589832, Control_c, 0, 64, 69
1, 589843, Note_on_c, 0, 67, 65
1, 589850, Note_on_c, 0, 59, 55
1, 589850, Control_c, 0, 64, 39
1, 589871, Control_c, 0, 64, 16
1, 589894, Note_off_c, 0, 67, 0
1, 589926, Control_c, 0, 64, 35
1, 589943, Control_c, 0, 64, 56
1, 589962, Control_c, 0, 64, 70
1, 589982, Control_c, 0, 64, 78
1, 590009, Control_c, 0, 64, 87
1, 590013, Note_on_c, 0, 75, 74
1, 590027, Control_c, 0, 64, 98
1, 590036, Note_on_c, 0, 66, 63
1, 590037, Note_on_c, 0, 55, 58
1, 590040, Note_off_c, 0, 76, 0
1, 590043, Note_off_c, 0, 59, 0
1, 590046, Control_c, 0, 64, 113
1, 590066, Control_c, 0, 64, 127
1, 590127, Note_off_c, 0, 66, 0
1, 590156, Control_c, 0, 64, 109
1, 590175, Control_c, 0, 64, 81
1, 590183, Note_off_c, 0, 55, 0
1, 590194, Control_c, 0, 64, 53
1, 590207, Note_on_c, 0, 76, 73
1, 590209, Note_off_c, 0, 75, 0
1, 590209, Control_c, 0, 64, 24
1, 590209, Note_on_c, 0, 52, 54
1, 590209, Note_on_c, 0, 67, 66
1, 590215, Control_c, 0, 64, 9
1, 590253, Control_c, 0, 64, 16
1, 590272, Control_c, 0, 64, 32
1, 590290, Control_c, 0, 64, 52
1, 590307, Control_c, 0, 64, 66
1, 590326, Control_c, 0, 64, 74
1, 590345, Control_c, 0, 64, 80
1, 590364, Control_c, 0, 64, 89
1, 590371, Note_off_c, 0, 52, 0
1, 590373, Note_on_c, 0, 69, 77
1, 590379, Note_off_c, 0, 67, 0
1, 590384, Control_c, 0, 64, 97
1, 590384, Note_on_c, 0, 54, 66
1, 590401, Control_c, 0, 64, 105
1, 590419, Control_c, 0, 64, 109
1, 590476, Control_c, 0, 64, 102
1, 590492, Control_c, 0, 64, 91
1, 590511, Control_c, 0, 64, 73
1, 590530, Control_c, 0, 64, 50
1, 590542, Note_off_c, 0, 54, 0
1, 590548, Control_c, 0, 64, 22
1, 590564, Note_on_c, 0, 71, 79
1, 590567, Control_c, 0, 64, 0
1, 590568, Note_off_c, 0, 69, 0
1, 590583, Note_on_c, 0, 55, 65
1, 590642, Control_c, 0, 64, 10
1, 590661, Control_c, 0, 64, 24
1, 590680, Control_c, 0, 64, 40
1, 590697, Note_off_c, 0, 55, 0
1, 590697, Control_c, 0, 64, 55
1, 590717, Control_c, 0, 64, 65
1, 590734, Note_off_c, 0, 76, 0
1, 590734, Control_c, 0, 64, 69
1, 590746, Note_on_c, 0, 67, 84
1, 590765, Note_on_c, 0, 52, 55
1, 590770, Control_c, 0, 64, 71
1, 590782, Note_off_c, 0, 71, 0
1, 590808, Control_c, 0, 64, 74
1, 590828, Control_c, 0, 64, 77
1, 590846, Control_c, 0, 64, 79
1, 590967, Control_c, 0, 64, 74
1, 590985, Control_c, 0, 64, 66
1, 591003, Note_off_c, 0, 67, 0
1, 591003, Control_c, 0, 64, 53
1, 591016, Note_on_c, 0, 64, 73
1, 591020, Control_c, 0, 64, 39
1, 591036, Note_off_c, 0, 52, 0
1, 591040, Control_c, 0, 64, 22
1, 591040, Note_on_c, 0, 60, 56
1, 591061, Control_c, 0, 64, 0
1, 591171, Control_c, 0, 64, 18
1, 591189, Control_c, 0, 64, 32
1, 591208, Control_c, 0, 64, 48
1, 591226, Control_c, 0, 64, 62
1, 591245, Control_c, 0, 64, 69
1, 591264, Control_c, 0, 64, 74
1, 591281, Control_c, 0, 64, 78
1, 591299, Control_c, 0, 64, 81
1, 591318, Control_c, 0, 64, 83
1, 591351, Note_off_c, 0, 60, 0
1, 591374, Control_c, 0, 64, 80
1, 591392, Note_on_c, 0, 72, 66
1, 591392, Control_c, 0, 64, 68
1, 591411, Control_c, 0, 64, 48
1, 591418, Note_on_c, 0, 57, 52
1, 591430, Control_c, 0, 64, 22
1, 591449, Control_c, 0, 64, 0
1, 591523, Control_c, 0, 64, 25
1, 591543, Control_c, 0, 64, 47
1, 591559, Control_c, 0, 64, 65
1, 591578, Control_c, 0, 64, 72
1, 591594, Note_off_c, 0, 64, 0
1, 591597, Control_c, 0, 64, 77
1, 591602, Note_on_c, 0, 66, 65
1, 591616, Control_c, 0, 64, 82
1, 591619, Note_off_c, 0, 57, 0
1, 591634, Control_c, 0, 64, 88
1, 591653, Control_c, 0, 64, 93
1, 591671, Control_c, 0, 64, 98
1, 591691, Control_c, 0, 64, 103
1, 591717, Note_off_c, 0, 66, 0
1, 591729, Control_c, 0, 64, 107
1, 591763, Control_c, 0, 64, 94
1, 591782, Control_c, 0, 64, 73
1, 591793, Note_on_c, 0, 64, 64
1, 591801, Control_c, 0, 64, 46
1, 591820, Control_c, 0, 64, 17
1, 591829, Note_on_c, 0, 59, 53
1, 591837, Control_c, 0, 64, 0
1, 591851, Note_off_c, 0, 64, 0
1, 591876, Note_on_c, 0, 63, 56
1, 591885, Control_c, 0, 64, 11
1, 591904, Control_c, 0, 64, 29
1, 591923, Control_c, 0, 64, 50
1, 591930, Note_off_c, 0, 63, 0
1, 591934, Note_on_c, 0, 64, 61
1, 591939, Control_c, 0, 64, 66
1, 591957, Control_c, 0, 64, 73
1, 591968, Note_off_c, 0, 59, 0
1, 591976, Control_c, 0, 64, 80
1, 591995, Control_c, 0, 64, 88
1, 592014, Control_c, 0, 64, 99
1, 592029, Note_on_c, 0, 63, 65
1, 592033, Control_c, 0, 64, 111
1, 592047, Note_off_c, 0, 64, 0
1, 592052, Control_c, 0, 64, 122
1, 592064, Note_off_c, 0, 72, 0
1, 592069, Control_c, 0, 64, 127
1, 592162, Control_c, 0, 64, 117
1, 592181, Control_c, 0, 64, 93
1, 592200, Control_c, 0, 64, 65
1, 592211, Note_on_c, 0, 71, 63
1, 592215, Note_on_c, 0, 47, 48
1, 592217, Control_c, 0, 64, 37
1, 592237, Control_c, 0, 64, 12
1, 592292, Control_c, 0, 64, 21
1, 592312, Control_c, 0, 64, 36
1, 592330, Control_c, 0, 64, 53
1, 592349, Control_c, 0, 64, 65
1, 592365, Control_c, 0, 64, 69
1, 592381, Note_off_c, 0, 71, 0
1, 592384, Control_c, 0, 64, 73
1, 592393, Note_on_c, 0, 69, 58
1, 592404, Control_c, 0, 64, 76
1, 592422, Control_c, 0, 64, 80
1, 592442, Control_c, 0, 64, 83
1, 592459, Control_c, 0, 64, 86
1, 592521, Note_off_c, 0, 63, 0
1, 592535, Control_c, 0, 64, 81
1, 592552, Control_c, 0, 64, 71
1, 592569, Control_c, 0, 64, 56
1, 592589, Control_c, 0, 64, 40
1, 592607, Control_c, 0, 64, 20
1, 592615, Note_off_c, 0, 69, 0
1, 592626, Note_on_c, 0, 67, 50
1, 592626, Control_c, 0, 64, 0
1, 592630, Note_on_c, 0, 64, 55
1, 592634, Note_off_c, 0, 47, 0
1, 592643, Note_on_c, 0, 40, 42
1, 592737, Control_c, 0, 64, 13
1, 592757, Control_c, 0, 64, 27
1, 592774, Control_c, 0, 64, 44
1, 592802, Control_c, 0, 64, 57
1, 592808, Note_on_c, 0, 66, 56
1, 592821, Control_c, 0, 64, 63
1, 592827, Note_off_c, 0, 67, 0
1, 592833, Note_off_c, 0, 64, 0
1, 592840, Control_c, 0, 64, 65
1, 592859, Control_c, 0, 64, 67
1, 592877, Control_c, 0, 64, 71
1, 592896, Control_c, 0, 64, 75
1, 592914, Control_c, 0, 64, 79
1, 592932, Control_c, 0, 64, 82
1, 592969, Control_c, 0, 64, 79
1, 592985, Note_off_c, 0, 66, 0
1, 592987, Control_c, 0, 64, 72
1, 593007, Control_c, 0, 64, 61
1, 593010, Note_on_c, 0, 64, 48
1, 593025, Control_c, 0, 64, 48
1, 593043, Control_c, 0, 64, 37
1, 593063, Control_c, 0, 64, 27
1, 593080, Control_c, 0, 64, 22
1, 593157, Note_off_c, 0, 40, 0
1, 593188, Note_off_c, 0, 64, 0
1, 593195, Note_on_c, 0, 63, 57
1, 593362, Note_off_c, 0, 63, 0
1, 593394, Note_on_c, 0, 71, 58
1, 593399, Note_on_c, 0, 64, 49
1, 593575, Note_off_c, 0, 64, 0
1, 593577, Note_on_c, 0, 66, 63
1, 593794, Control_c, 0, 67, 57
1, 593796, Note_off_c, 0, 66, 0
1, 593822, Note_on_c, 0, 67, 50
1, 593827, Note_on_c, 0, 52, 76
1, 593987, Note_off_c, 0, 67, 0
1, 594008, Note_on_c, 0, 64, 63
1, 594237, Note_on_c, 0, 60, 67
1, 594239, Note_off_c, 0, 64, 0
1, 594278, Control_c, 0, 64, 30
1, 594296, Control_c, 0, 64, 37
1, 594315, Control_c, 0, 64, 47
1, 594323, Note_off_c, 0, 71, 0
1, 594333, Control_c, 0, 64, 56
1, 594351, Control_c, 0, 64, 61
1, 594369, Control_c, 0, 64, 65
1, 594387, Control_c, 0, 64, 68
1, 594407, Control_c, 0, 64, 72
1, 594425, Control_c, 0, 64, 76
1, 594444, Control_c, 0, 64, 83
1, 594462, Control_c, 0, 64, 89
1, 594482, Control_c, 0, 64, 94
1, 594591, Control_c, 0, 64, 84
1, 594610, Note_on_c, 0, 69, 64
1, 594610, Control_c, 0, 64, 72
1, 594619, Note_on_c, 0, 48, 70
1, 594630, Control_c, 0, 64, 59
1, 594647, Control_c, 0, 64, 46
1, 594675, Control_c, 0, 64, 33
1, 594694, Note_off_c, 0, 60, 0
1, 594694, Control_c, 0, 64, 16
1, 594725, Note_off_c, 0, 52, 0
1, 594794, Note_on_c, 0, 62, 64
1, 595033, Note_on_c, 0, 59, 59
1, 595037, Note_off_c, 0, 62, 0
1, 595039, Note_on_c, 0, 50, 74
1, 595077, Note_off_c, 0, 48, 0
1, 595420, Note_on_c, 0, 52, 69
1, 595424, Note_off_c, 0, 50, 0
1, 595426, Note_on_c, 0, 68, 58
1, 595439, Note_off_c, 0, 69, 0
1, 595562, Note_off_c, 0, 59, 0
1, 595724, Control_c, 0, 67, 61
1, 595809, Note_off_c, 0, 68, 0
1, 595826, Note_on_c, 0, 69, 53
1, 595827, Note_off_c, 0, 52, 0
1, 595839, Note_on_c, 0, 45, 50
1, 595853, Note_on_c, 0, 60, 44
1, 595853, Control_c, 0, 64, 8
1, 595873, Control_c, 0, 64, 16
1, 595890, Control_c, 0, 64, 23
1, 595910, Control_c, 0, 64, 31
1, 595926, Control_c, 0, 64, 42
1, 595946, Control_c, 0, 64, 55
1, 595963, Control_c, 0, 64, 64
1, 595982, Control_c, 0, 64, 69
1, 596002, Control_c, 0, 64, 73
1, 596016, Note_off_c, 0, 60, 0
1, 596019, Control_c, 0, 64, 78
1, 596030, Note_off_c, 0, 45, 0
1, 596037, Control_c, 0, 64, 83
1, 596060, Control_c, 0, 64, 88
1, 596068, Note_off_c, 0, 69, 0
1, 596077, Control_c, 0, 64, 92
1, 596151, Control_c, 0, 64, 86
1, 596167, Control_c, 0, 64, 75
1, 596187, Control_c, 0, 64, 58
1, 596205, Control_c, 0, 64, 37
1, 596242, Control_c, 0, 64, 0
1, 596252, Note_on_c, 0, 72, 65
1, 596252, Note_on_c, 0, 57, 54
1, 596317, Control_c, 0, 64, 9
1, 596337, Control_c, 0, 64, 23
1, 596353, Control_c, 0, 64, 39
1, 596372, Control_c, 0, 64, 55
1, 596390, Control_c, 0, 64, 65
1, 596410, Control_c, 0, 64, 68
1, 596415, Note_off_c, 0, 72, 0
1, 596418, Note_on_c, 0, 71, 72
1, 596446, Control_c, 0, 64, 71
1, 596547, Control_c, 0, 64, 69
1, 596566, Control_c, 0, 64, 63
1, 596585, Control_c, 0, 64, 51
1, 596604, Control_c, 0, 64, 30
1, 596622, Control_c, 0, 64, 0
1, 596637, Note_on_c, 0, 67, 75
1, 596637, Note_on_c, 0, 72, 74
1, 596640, Note_off_c, 0, 57, 0
1, 596645, Note_off_c, 0, 71, 0
1, 596664, Note_on_c, 0, 52, 47
1, 596716, Control_c, 0, 64, 18
1, 596733, Control_c, 0, 64, 31
1, 596751, Control_c, 0, 64, 48
1, 596770, Control_c, 0, 64, 62
1, 596789, Control_c, 0, 64, 66
1, 596808, Control_c, 0, 64, 67
1, 596813, Note_off_c, 0, 52, 0
1, 596817, Note_on_c, 0, 76, 79
1, 596824, Note_off_c, 0, 72, 0
1, 596845, Note_on_c, 0, 50, 49
1, 596864, Control_c, 0, 64, 65
1, 596883, Control_c, 0, 64, 63
1, 596902, Control_c, 0, 64, 58
1, 596920, Control_c, 0, 64, 50
1, 596940, Control_c, 0, 64, 37
1, 596957, Control_c, 0, 64, 17
1, 596973, Control_c, 0, 64, 0
1, 597010, Note_on_c, 0, 74, 80
1, 597024, Note_off_c, 0, 50, 0
1, 597028, Note_on_c, 0, 52, 60
1, 597078, Note_off_c, 0, 76, 0
1, 597086, Control_c, 0, 64, 12
1, 597105, Control_c, 0, 64, 24
1, 597123, Control_c, 0, 64, 39
1, 597143, Control_c, 0, 64, 53
1, 597159, Control_c, 0, 64, 62
1, 597178, Control_c, 0, 64, 66
1, 597193, Note_on_c, 0, 72, 80
1, 597195, Note_off_c, 0, 52, 0
1, 597195, Control_c, 0, 64, 68
1, 597211, Note_on_c, 0, 54, 61
1, 597218, Control_c, 0, 64, 71
1, 597236, Control_c, 0, 64, 74
1, 597239, Note_off_c, 0, 74, 0
1, 597253, Control_c, 0, 64, 78
1, 597271, Control_c, 0, 64, 82
1, 597291, Control_c, 0, 64, 86
1, 597306, Note_off_c, 0, 72, 0
1, 597309, Control_c, 0, 64, 88
1, 597364, Control_c, 0, 64, 84
1, 597375, Note_off_c, 0, 54, 0
1, 597381, Control_c, 0, 64, 74
1, 597399, Note_on_c, 0, 71, 81
1, 597400, Control_c, 0, 64, 59
1, 597420, Note_on_c, 0, 55, 58
1, 597421, Control_c, 0, 64, 39
1, 597438, Control_c, 0, 64, 12
1, 597457, Control_c, 0, 64, 0
1, 597601, Control_c, 0, 64, 21
1, 597621, Control_c, 0, 64, 39
1, 597631, Note_off_c, 0, 55, 0
1, 597639, Control_c, 0, 64, 54
1, 597648, Note_on_c, 0, 57, 61
1, 597658, Control_c, 0, 64, 63
1, 597676, Control_c, 0, 64, 66
1, 597695, Control_c, 0, 64, 68
1, 597787, Control_c, 0, 64, 64
1, 597805, Control_c, 0, 64, 58
1, 597824, Control_c, 0, 64, 47
1, 597843, Control_c, 0, 64, 30
1, 597844, Note_off_c, 0, 57, 0
1, 597848, Note_on_c, 0, 66, 77
1, 597865, Note_on_c, 0, 59, 62
1, 597880, Control_c, 0, 64, 0
1, 597881, Control_c, 0, 67, 57
1, 597885, Note_off_c, 0, 67, 0
1, 597955, Control_c, 0, 64, 15
1, 597974, Control_c, 0, 64, 29
1, 597993, Control_c, 0, 64, 45
1, 597995, Note_off_c, 0, 59, 0
1, 598011, Control_c, 0, 64, 58
1, 598027, Note_on_c, 0, 55, 63
1, 598029, Control_c, 0, 64, 63
1, 598047, Control_c, 0, 64, 64
1, 598065, Control_c, 0, 64, 65
1, 598084, Control_c, 0, 64, 67
1, 598102, Control_c, 0, 64, 68
1, 598178, Control_c, 0, 64, 63
1, 598194, Note_off_c, 0, 55, 0
1, 598195, Control_c, 0, 64, 55
1, 598216, Control_c, 0, 64, 41
1, 598232, Control_c, 0, 64, 15
1, 598240, Note_on_c, 0, 73, 74
1, 598251, Control_c, 0, 64, 0
1, 598262, Note_on_c, 0, 57, 58
1, 598264, Note_off_c, 0, 71, 0
1, 598345, Control_c, 0, 64, 9
1, 598364, Control_c, 0, 64, 23
1, 598382, Control_c, 0, 64, 39
1, 598401, Control_c, 0, 64, 54
1, 598422, Note_off_c, 0, 57, 0
1, 598426, Control_c, 0, 64, 63
1, 598437, Note_on_c, 0, 54, 54
1, 598445, Control_c, 0, 64, 66
1, 598464, Control_c, 0, 64, 68
1, 598483, Control_c, 0, 64, 70
1, 598521, Control_c, 0, 64, 73
1, 598554, Note_off_c, 0, 66, 0
1, 598577, Control_c, 0, 64, 67
1, 598595, Control_c, 0, 64, 55
1, 598614, Control_c, 0, 64, 37
1, 598626, Note_off_c, 0, 54, 0
1, 598634, Control_c, 0, 64, 9
1, 598636, Note_on_c, 0, 64, 62
1, 598648, Note_on_c, 0, 55, 56
1, 598651, Control_c, 0, 64, 0
1, 598725, Control_c, 0, 64, 16
1, 598743, Control_c, 0, 64, 29
1, 598762, Control_c, 0, 64, 42
1, 598781, Control_c, 0, 64, 55
1, 598783, Note_off_c, 0, 55, 0
1, 598799, Control_c, 0, 64, 63
1, 598819, Control_c, 0, 64, 67
1, 598830, Note_on_c, 0, 57, 58
1, 598836, Control_c, 0, 64, 69
1, 598854, Control_c, 0, 64, 72
1, 598868, Note_off_c, 0, 64, 0
1, 598872, Control_c, 0, 64, 74
1, 598891, Control_c, 0, 64, 76
1, 598947, Control_c, 0, 64, 73
1, 598966, Control_c, 0, 64, 67
1, 598982, Note_off_c, 0, 57, 0
1, 598983, Control_c, 0, 64, 57
1, 599003, Control_c, 0, 64, 42
1, 599010, Note_off_c, 0, 73, 0
1, 599021, Control_c, 0, 64, 18
1, 599025, Note_on_c, 0, 74, 64
1, 599036, Note_on_c, 0, 66, 61
1, 599037, Control_c, 0, 64, 0
1, 599041, Note_on_c, 0, 50, 55
1, 599133, Control_c, 0, 64, 14
1, 599150, Control_c, 0, 64, 26
1, 599170, Control_c, 0, 64, 42
1, 599188, Control_c, 0, 64, 59
1, 599208, Control_c, 0, 64, 67
1, 599210, Note_off_c, 0, 50, 0
1, 599217, Note_on_c, 0, 52, 56
1, 599281, Control_c, 0, 64, 66
1, 599298, Control_c, 0, 64, 60
1, 599318, Control_c, 0, 64, 50
1, 599337, Control_c, 0, 64, 35
1, 599365, Control_c, 0, 64, 22
1, 599376, Note_off_c, 0, 52, 0
1, 599383, Control_c, 0, 64, 17
1, 599391, Note_off_c, 0, 66, 0
1, 599409, Note_on_c, 0, 69, 62
1, 599416, Note_on_c, 0, 54, 56
1, 599508, Note_off_c, 0, 54, 0
1, 599555, Note_off_c, 0, 69, 0
1, 599585, Note_on_c, 0, 67, 64
1, 599599, Note_on_c, 0, 55, 46
1, 599750, Note_off_c, 0, 55, 0
1, 599755, Note_off_c, 0, 67, 0
1, 599770, Note_on_c, 0, 69, 70
1, 599789, Note_on_c, 0, 54, 49
1, 599911, Note_off_c, 0, 54, 0
1, 599939, Note_off_c, 0, 69, 0
1, 599956, Note_on_c, 0, 72, 68
1, 599968, Note_on_c, 0, 52, 46
1, 600090, Note_off_c, 0, 52, 0
1, 600147, Note_on_c, 0, 71, 63
1, 600167, Note_on_c, 0, 50, 48
1, 600173, Note_off_c, 0, 72, 0
1, 600309, Note_off_c, 0, 50, 0
1, 600357, Note_on_c, 0, 48, 42
1, 600358, Note_off_c, 0, 71, 0
1, 600358, Note_on_c, 0, 69, 59
1, 600491, Note_off_c, 0, 48, 0
1, 600524, Control_c, 0, 64, 25
1, 600541, Control_c, 0, 64, 33
1, 600558, Note_off_c, 0, 69, 0
1, 600559, Note_on_c, 0, 47, 38
1, 600562, Control_c, 0, 64, 42
1, 600572, Note_off_c, 0, 74, 0
1, 600572, Note_on_c, 0, 67, 53
1, 600581, Control_c, 0, 64, 50
1, 600597, Control_c, 0, 64, 55
1, 600635, Control_c, 0, 64, 57
1, 600685, Note_off_c, 0, 47, 0
1, 600744, Control_c, 0, 64, 54
1, 600749, Note_on_c, 0, 43, 42
1, 600764, Control_c, 0, 64, 47
1, 600784, Control_c, 0, 64, 35
1, 600802, Control_c, 0, 64, 20
1, 600822, Control_c, 0, 64, 8
1, 600857, Control_c, 0, 64, 0
1, 600934, Note_on_c, 0, 79, 80
1, 600945, Note_off_c, 0, 43, 0
1, 600986, Note_on_c, 0, 45, 42
1, 600988, Control_c, 0, 64, 12
1, 601006, Control_c, 0, 64, 21
1, 601024, Control_c, 0, 64, 35
1, 601043, Control_c, 0, 64, 51
1, 601063, Control_c, 0, 64, 60
1, 601080, Control_c, 0, 64, 64
1, 601097, Control_c, 0, 64, 67
1, 601113, Note_off_c, 0, 45, 0
1, 601117, Control_c, 0, 64, 71
1, 601137, Control_c, 0, 64, 76
1, 601138, Note_on_c, 0, 47, 58
1, 601154, Control_c, 0, 64, 81
1, 601159, Note_off_c, 0, 67, 0
1, 601174, Control_c, 0, 64, 88
1, 601191, Control_c, 0, 64, 92
1, 601292, Control_c, 0, 64, 85
1, 601312, Control_c, 0, 64, 72
1, 601330, Control_c, 0, 64, 54
1, 601336, Note_off_c, 0, 47, 0
1, 601342, Note_on_c, 0, 78, 82
1, 601349, Control_c, 0, 64, 33
1, 601366, Note_on_c, 0, 48, 55
1, 601367, Control_c, 0, 64, 0
1, 601369, Note_on_c, 0, 69, 60
1, 601376, Note_off_c, 0, 79, 0
1, 601461, Control_c, 0, 64, 17
1, 601479, Control_c, 0, 64, 33
1, 601493, Note_off_c, 0, 48, 0
1, 601496, Control_c, 0, 64, 50
1, 601515, Control_c, 0, 64, 62
1, 601534, Control_c, 0, 64, 67
1, 601537, Note_on_c, 0, 50, 62
1, 601553, Control_c, 0, 64, 69
1, 601571, Control_c, 0, 64, 72
1, 601591, Control_c, 0, 64, 75
1, 601608, Control_c, 0, 64, 79
1, 601628, Control_c, 0, 64, 83
1, 601682, Control_c, 0, 64, 73
1, 601701, Control_c, 0, 64, 58
1, 601719, Control_c, 0, 64, 39
1, 601728, Note_off_c, 0, 50, 0
1, 601734, Note_on_c, 0, 76, 81
1, 601738, Control_c, 0, 64, 12
1, 601752, Note_on_c, 0, 52, 62
1, 601755, Control_c, 0, 64, 0
1, 601766, Note_off_c, 0, 78, 0
1, 601831, Control_c, 0, 64, 9
1, 601851, Control_c, 0, 64, 23
1, 601869, Control_c, 0, 64, 39
1, 601888, Control_c, 0, 64, 55
1, 601904, Control_c, 0, 64, 65
1, 601909, Note_off_c, 0, 52, 0
1, 601923, Note_on_c, 0, 54, 67
1, 601923, Control_c, 0, 64, 68
1, 601960, Control_c, 0, 64, 72
1, 601961, Note_off_c, 0, 69, 0
1, 601980, Control_c, 0, 64, 74
1, 601998, Control_c, 0, 64, 78
1, 602016, Control_c, 0, 64, 81
1, 602073, Control_c, 0, 64, 76
1, 602090, Control_c, 0, 64, 64
1, 602106, Note_off_c, 0, 54, 0
1, 602109, Control_c, 0, 64, 45
1, 602119, Note_on_c, 0, 74, 81
1, 602128, Control_c, 0, 64, 20
1, 602136, Note_off_c, 0, 76, 0
1, 602155, Control_c, 0, 64, 0
1, 602159, Note_on_c, 0, 55, 56
1, 602177, Note_on_c, 0, 71, 48
1, 602231, Control_c, 0, 64, 13
1, 602250, Control_c, 0, 64, 32
1, 602268, Control_c, 0, 64, 50
1, 602285, Control_c, 0, 64, 63
1, 602291, Note_off_c, 0, 55, 0
1, 602303, Control_c, 0, 64, 67
1, 602315, Note_on_c, 0, 57, 58
1, 602321, Control_c, 0, 64, 69
1, 602340, Control_c, 0, 64, 72
1, 602360, Control_c, 0, 64, 75
1, 602378, Control_c, 0, 64, 77
1, 602435, Control_c, 0, 64, 73
1, 602448, Note_off_c, 0, 74, 0
1, 602452, Control_c, 0, 64, 61
1, 602470, Control_c, 0, 64, 41
1, 602488, Control_c, 0, 64, 11
1, 602507, Control_c, 0, 64, 0
1, 602515, Note_on_c, 0, 79, 80
1, 602516, Note_off_c, 0, 57, 0
1, 602535, Note_on_c, 0, 59, 58
1, 602582, Control_c, 0, 64, 12
1, 602601, Control_c, 0, 64, 26
1, 602619, Control_c, 0, 64, 44
1, 602639, Control_c, 0, 64, 60
1, 602655, Control_c, 0, 64, 65
1, 602674, Control_c, 0, 64, 67
1, 602684, Note_on_c, 0, 78, 79
1, 602691, Control_c, 0, 64, 68
1, 602697, Note_off_c, 0, 59, 0
1, 602708, Note_off_c, 0, 79, 0
1, 602715, Note_on_c, 0, 57, 56
1, 602731, Control_c, 0, 64, 70
1, 602786, Control_c, 0, 64, 65
1, 602806, Control_c, 0, 64, 58
1, 602823, Control_c, 0, 64, 48
1, 602831, Note_off_c, 0, 57, 0
1, 602843, Control_c, 0, 64, 36
1, 602861, Control_c, 0, 64, 23
1, 602881, Control_c, 0, 64, 14
1, 602891, Note_on_c, 0, 79, 82
1, 602908, Note_on_c, 0, 55, 57
1, 602914, Note_off_c, 0, 78, 0
1, 602914, Control_c, 0, 64, 9
1, 603054, Note_off_c, 0, 55, 0
1, 603078, Note_on_c, 0, 81, 83
1, 603097, Note_on_c, 0, 54, 56
1, 603114, Note_off_c, 0, 79, 0
1, 603288, Note_on_c, 0, 83, 86
1, 603290, Note_off_c, 0, 54, 0
1, 603312, Note_off_c, 0, 81, 0
1, 603318, Note_on_c, 0, 52, 53
1, 603370, Note_off_c, 0, 71, 0
1, 603430, Note_off_c, 0, 52, 0
1, 603480, Note_on_c, 0, 50, 56
1, 603672, Note_off_c, 0, 50, 0
1, 603674, Note_on_c, 0, 76, 77
1, 603707, Note_on_c, 0, 48, 45
1, 603723, Note_off_c, 0, 83, 0
1, 603779, Control_c, 0, 64, 18
1, 603798, Control_c, 0, 64, 29
1, 603815, Control_c, 0, 64, 41
1, 603823, Note_off_c, 0, 48, 0
1, 603834, Control_c, 0, 64, 54
1, 603854, Control_c, 0, 64, 61
1, 603863, Note_on_c, 0, 47, 51
1, 603871, Control_c, 0, 64, 65
1, 603890, Control_c, 0, 64, 67
1, 603908, Control_c, 0, 64, 71
1, 603926, Control_c, 0, 64, 74
1, 603946, Control_c, 0, 64, 77
1, 603963, Control_c, 0, 64, 80
1, 603972, Note_off_c, 0, 76, 0
1, 604049, Control_c, 0, 64, 77
1, 604066, Control_c, 0, 64, 69
1, 604086, Control_c, 0, 64, 55
1, 604089, Note_off_c, 0, 47, 0
1, 604090, Note_on_c, 0, 81, 82
1, 604104, Control_c, 0, 64, 37
1, 604117, Note_on_c, 0, 48, 44
1, 604122, Note_on_c, 0, 76, 60
1, 604139, Control_c, 0, 64, 0
1, 604215, Control_c, 0, 64, 10
1, 604233, Control_c, 0, 64, 29
1, 604253, Control_c, 0, 64, 49
1, 604269, Note_off_c, 0, 48, 0
1, 604269, Control_c, 0, 64, 64
1, 604288, Control_c, 0, 64, 69
1, 604303, Note_on_c, 0, 45, 51
1, 604306, Control_c, 0, 64, 72
1, 604325, Control_c, 0, 64, 74
1, 604344, Control_c, 0, 64, 77
1, 604362, Control_c, 0, 64, 80
1, 604380, Note_off_c, 0, 45, 0
1, 604381, Control_c, 0, 64, 83
1, 604386, Note_off_c, 0, 81, 0
1, 604401, Control_c, 0, 64, 86
1, 604407, Note_off_c, 0, 76, 0
1, 604438, Control_c, 0, 64, 88
1, 604491, Control_c, 0, 64, 83
1, 604510, Control_c, 0, 64, 75
1, 604529, Control_c, 0, 64, 63
1, 604535, Note_on_c, 0, 79, 69
1, 604546, Control_c, 0, 64, 50
1, 604549, Note_on_c, 0, 50, 46
1, 604550, Note_on_c, 0, 74, 47
1, 604566, Control_c, 0, 64, 40
1, 604586, Control_c, 0, 64, 29
1, 604604, Control_c, 0, 64, 18
1, 604615, Note_on_c, 0, 78, 70
1, 604616, Note_off_c, 0, 79, 0
1, 604641, Control_c, 0, 64, 0
1, 604694, Note_off_c, 0, 78, 0
1, 604701, Note_on_c, 0, 79, 72
1, 604768, Note_off_c, 0, 74, 0
1, 604785, Note_on_c, 0, 78, 68
1, 604800, Note_off_c, 0, 79, 0
1, 604826, Control_c, 0, 67, 61
1, 604940, Note_off_c, 0, 50, 0
1, 605000, Note_on_c, 0, 72, 55
1, 605020, Note_on_c, 0, 38, 37
1, 605077, Control_c, 0, 64, 12
1, 605095, Control_c, 0, 64, 24
1, 605113, Control_c, 0, 64, 40
1, 605131, Control_c, 0, 64, 55
1, 605150, Control_c, 0, 64, 64
1, 605169, Control_c, 0, 64, 68
1, 605184, Note_off_c, 0, 78, 0
1, 605188, Control_c, 0, 64, 72
1, 605201, Note_on_c, 0, 79, 67
1, 605206, Control_c, 0, 64, 76
1, 605210, Note_off_c, 0, 38, 0
1, 605225, Note_off_c, 0, 72, 0
1, 605225, Control_c, 0, 64, 81
1, 605245, Control_c, 0, 64, 87
1, 605263, Control_c, 0, 64, 92
1, 605357, Note_off_c, 0, 79, 0
1, 605449, Control_c, 0, 64, 80
1, 605467, Control_c, 0, 64, 63
1, 605485, Control_c, 0, 64, 42
1, 605490, Note_on_c, 0, 79, 67
1, 605503, Control_c, 0, 64, 19
1, 605505, Note_on_c, 0, 71, 50
1, 605507, Note_on_c, 0, 43, 44
1, 605521, Control_c, 0, 64, 0
1, 605596, Control_c, 0, 64, 17
1, 605614, Control_c, 0, 64, 34
1, 605633, Control_c, 0, 64, 52
1, 605652, Control_c, 0, 64, 65
1, 605671, Control_c, 0, 64, 70
1, 605689, Control_c, 0, 64, 72
1, 605706, Control_c, 0, 64, 74
1, 605725, Control_c, 0, 64, 77
1, 605745, Control_c, 0, 64, 81
1, 605763, Control_c, 0, 64, 84
1, 605781, Control_c, 0, 64, 86
1, 605818, Note_off_c, 0, 43, 0
1, 605856, Control_c, 0, 64, 82
1, 605875, Control_c, 0, 64, 73
1, 605900, Control_c, 0, 64, 59
1, 605920, Control_c, 0, 64, 45
1, 605938, Control_c, 0, 64, 35
1, 605957, Control_c, 0, 64, 27
1, 605976, Control_c, 0, 64, 23
1, 605995, Note_on_c, 0, 47, 42
1, 606137, Note_off_c, 0, 47, 0
1, 606160, Control_c, 0, 67, 65
1, 606240, Note_on_c, 0, 50, 45
1, 606440, Control_c, 0, 67, 61
1, 606450, Note_off_c, 0, 50, 0
1, 606621, Note_on_c, 0, 55, 36
1, 607403, Note_off_c, 0, 79, 0
1, 607413, Note_off_c, 0, 71, 0
1, 607543, Control_c, 0, 67, 57
1, 607556, Note_off_c, 0, 55, 0
1, 607774, Control_c, 0, 67, 51
1, 607793, Control_c, 0, 67, 45
1, 607812, Control_c, 0, 67, 41
1, 607850, Control_c, 0, 67, 37
1, 607924, Control_c, 0, 67, 33
1, 608016, Control_c, 0, 67, 29
1, 608140, Note_on_c, 0, 55, 81
1, 608164, Control_c, 0, 67, 25
1, 608198, Note_off_c, 0, 55, 0
1, 608202, Note_on_c, 0, 54, 79
1, 608219, Control_c, 0, 67, 21
1, 608287, Note_on_c, 0, 55, 89
1, 608295, Control_c, 0, 67, 17
1, 608296, Note_off_c, 0, 54, 0
1, 608553, Control_c, 0, 67, 13
1, 608710, Control_c, 0, 67, 0
1, 608716, Note_off_c, 0, 55, 0
1, 608955, Note_on_c, 0, 57, 85
1, 609018, Note_off_c, 0, 57, 0
1, 609034, Note_on_c, 0, 55, 79
1, 609129, Note_off_c, 0, 55, 0
1, 609143, Note_on_c, 0, 57, 77
1, 609216, Note_on_c, 0, 55, 73
1, 609217, Note_off_c, 0, 57, 0
1, 609304, Note_off_c, 0, 55, 0
1, 609325, Note_on_c, 0, 57, 88
1, 609398, Note_off_c, 0, 57, 0
1, 609413, Note_on_c, 0, 55, 79
1, 609500, Note_off_c, 0, 55, 0
1, 609508, Note_on_c, 0, 54, 73
1, 609582, Note_off_c, 0, 54, 0
1, 609587, Note_on_c, 0, 55, 74
1, 609682, Note_off_c, 0, 55, 0
1, 609703, Note_on_c, 0, 57, 92
1, 609763, Note_off_c, 0, 57, 0
1, 609911, Poly_aftertouch_c, 0, 76, 127
1, 610081, Note_on_c, 0, 54, 87
1, 610140, Note_off_c, 0, 54, 0
1, 610465, Note_on_c, 0, 50, 87
1, 610536, Note_off_c, 0, 50, 0
1, 610833, Note_on_c, 0, 54, 81
1, 610924, Note_off_c, 0, 54, 0
1, 611209, Note_on_c, 0, 52, 90
1, 611281, Note_off_c, 0, 52, 0
1, 611598, Note_on_c, 0, 57, 83
1, 611669, Note_off_c, 0, 57, 0
1, 611973, Note_on_c, 0, 45, 89
1, 612049, Note_off_c, 0, 45, 0
1, 612343, Note_on_c, 0, 55, 87
1, 612393, Note_off_c, 0, 55, 0
1, 612700, Note_on_c, 0, 54, 79
1, 612761, Note_on_c, 0, 55, 77
1, 612764, Note_off_c, 0, 54, 0
1, 612827, Note_on_c, 0, 54, 79
1, 612859, Note_off_c, 0, 55, 0
1, 613045, Note_off_c, 0, 54, 0
1, 613106, Poly_aftertouch_c, 0, 71, 0
1, 613128, Note_on_c, 0, 52, 79
1, 613160, Poly_aftertouch_c, 0, 76, 0
1, 613179, Note_off_c, 0, 52, 0
1, 613296, Control_c, 0, 64, 14
1, 613315, Note_on_c, 0, 54, 77
1, 613333, Control_c, 0, 64, 0
1, 613363, Note_off_c, 0, 54, 0
1, 613499, Note_on_c, 0, 50, 82
1, 613558, Note_off_c, 0, 50, 0
1, 613678, Note_on_c, 0, 52, 78
1, 613731, Note_off_c, 0, 52, 0
1, 613853, Note_on_c, 0, 48, 79
1, 613904, Note_off_c, 0, 48, 0
1, 614050, Note_on_c, 0, 50, 74
1, 614098, Note_off_c, 0, 50, 0
1, 614230, Note_on_c, 0, 47, 78
1, 614231, Note_on_c, 0, 62, 91
1, 614272, Note_off_c, 0, 47, 0
1, 614300, Note_off_c, 0, 62, 0
1, 614306, Note_on_c, 0, 60, 80
1, 614404, Note_off_c, 0, 60, 0
1, 614414, Note_on_c, 0, 62, 93
1, 614428, Note_on_c, 0, 50, 74
1, 614469, Note_off_c, 0, 50, 0
1, 614600, Note_on_c, 0, 52, 78
1, 614653, Note_off_c, 0, 52, 0
1, 614772, Note_on_c, 0, 54, 77
1, 614812, Note_off_c, 0, 54, 0
1, 614815, Note_off_c, 0, 62, 0
1, 614962, Note_on_c, 0, 64, 91
1, 614965, Note_on_c, 0, 55, 77
1, 615007, Note_off_c, 0, 55, 0
1, 615033, Note_off_c, 0, 64, 0
1, 615046, Note_on_c, 0, 62, 78
1, 615139, Note_on_c, 0, 64, 81
1, 615141, Note_off_c, 0, 62, 0
1, 615224, Note_off_c, 0, 64, 0
1, 615227, Note_on_c, 0, 62, 80
1, 615325, Note_off_c, 0, 62, 0
1, 615327, Note_on_c, 0, 64, 86
1, 615334, Note_on_c, 0, 47, 78
1, 615378, Note_off_c, 0, 47, 0
1, 615411, Note_on_c, 0, 62, 82
1, 615412, Note_off_c, 0, 64, 0
1, 615479, Note_off_c, 0, 62, 0
1, 615497, Note_on_c, 0, 60, 77
1, 615564, Note_off_c, 0, 60, 0
1, 615574, Note_on_c, 0, 62, 83
1, 615663, Note_off_c, 0, 62, 0
1, 615684, Note_on_c, 0, 64, 93
1, 615704, Note_on_c, 0, 48, 83
1, 615737, Note_off_c, 0, 64, 0
1, 616072, Note_on_c, 0, 60, 91
1, 616135, Note_off_c, 0, 60, 0
1, 616474, Note_on_c, 0, 57, 93
1, 616531, Note_off_c, 0, 57, 0
1, 616552, Note_off_c, 0, 48, 0
1, 616834, Note_on_c, 0, 60, 92
1, 616840, Note_on_c, 0, 45, 76
1, 616895, Note_off_c, 0, 60, 0
1, 616905, Note_off_c, 0, 45, 0
1, 617227, Note_on_c, 0, 57, 91
1, 617231, Note_on_c, 0, 42, 81
1, 617290, Note_off_c, 0, 57, 0
1, 617611, Note_on_c, 0, 62, 90
1, 617679, Note_off_c, 0, 62, 0
1, 617991, Note_on_c, 0, 50, 89
1, 618059, Note_off_c, 0, 50, 0
1, 618283, Note_off_c, 0, 42, 0
1, 618358, Note_on_c, 0, 60, 89
1, 618380, Note_on_c, 0, 38, 69
1, 618420, Note_off_c, 0, 60, 0
1, 618452, Note_off_c, 0, 38, 0
1, 618709, Note_on_c, 0, 59, 86
1, 618732, Note_on_c, 0, 43, 69
1, 618762, Note_on_c, 0, 60, 79
1, 618770, Note_off_c, 0, 59, 0
1, 618789, Note_off_c, 0, 43, 0
1, 618839, Note_on_c, 0, 59, 91
1, 618853, Note_off_c, 0, 60, 0
1, 619076, Note_off_c, 0, 59, 0
1, 619085, Note_on_c, 0, 57, 77
1, 619111, Note_on_c, 0, 50, 73
1, 619133, Note_off_c, 0, 57, 0
1, 619158, Note_off_c, 0, 50, 0
1, 619261, Note_on_c, 0, 59, 82
1, 619306, Note_off_c, 0, 59, 0
1, 619454, Note_on_c, 0, 55, 84
1, 619457, Note_on_c, 0, 47, 70
1, 619494, Note_off_c, 0, 47, 0
1, 619511, Note_off_c, 0, 55, 0
1, 619633, Note_on_c, 0, 59, 88
1, 619675, Note_off_c, 0, 59, 0
1, 619813, Note_on_c, 0, 57, 86
1, 619813, Note_on_c, 0, 50, 72
1, 619859, Note_off_c, 0, 57, 0
1, 619883, Note_off_c, 0, 50, 0
1, 619997, Note_on_c, 0, 60, 78
1, 620049, Note_off_c, 0, 60, 0
1, 620172, Note_on_c, 0, 79, 87
1, 620180, Note_on_c, 0, 59, 79
1, 620184, Note_on_c, 0, 55, 76
1, 620221, Note_off_c, 0, 59, 0
1, 620246, Note_on_c, 0, 78, 89
1, 620251, Note_off_c, 0, 79, 0
1, 620354, Note_on_c, 0, 57, 72
1, 620355, Note_on_c, 0, 79, 90
1, 620370, Note_off_c, 0, 78, 0
1, 620403, Note_off_c, 0, 57, 0
1, 620576, Note_on_c, 0, 59, 84
1, 620637, Note_off_c, 0, 59, 0
1, 620773, Note_off_c, 0, 79, 0
1, 620930, Note_off_c, 0, 55, 0
1, 620947, Note_on_c, 0, 64, 88
1, 620948, Note_on_c, 0, 81, 90
1, 621027, Note_off_c, 0, 81, 0
1, 621034, Note_on_c, 0, 79, 83
1, 621128, Note_on_c, 0, 81, 81
1, 621131, Note_off_c, 0, 79, 0
1, 621214, Note_on_c, 0, 79, 82
1, 621217, Note_off_c, 0, 81, 0
1, 621316, Note_on_c, 0, 81, 88
1, 621317, Note_on_c, 0, 52, 79
1, 621328, Note_off_c, 0, 79, 0
1, 621364, Note_off_c, 0, 52, 0
1, 621395, Note_on_c, 0, 79, 78
1, 621400, Note_off_c, 0, 81, 0
1, 621482, Note_off_c, 0, 79, 0
1, 621489, Note_on_c, 0, 78, 77
1, 621565, Note_on_c, 0, 79, 78
1, 621574, Note_off_c, 0, 78, 0
1, 621651, Note_off_c, 0, 79, 0
1, 621672, Note_on_c, 0, 81, 93
1, 621683, Note_on_c, 0, 54, 79
1, 621723, Note_off_c, 0, 81, 0
1, 621935, Note_off_c, 0, 64, 0
1, 622053, Note_on_c, 0, 78, 92
1, 622068, Note_on_c, 0, 57, 76
1, 622115, Note_off_c, 0, 78, 0
1, 622151, Note_off_c, 0, 57, 0
1, 622444, Note_on_c, 0, 74, 91
1, 622446, Note_on_c, 0, 62, 85
1, 622454, Note_off_c, 0, 54, 0
1, 622512, Note_off_c, 0, 74, 0
1, 622815, Note_on_c, 0, 78, 89
1, 622842, Note_on_c, 0, 50, 74
1, 622875, Note_off_c, 0, 78, 0
1, 622915, Note_off_c, 0, 50, 0
1, 623189, Note_on_c, 0, 71, 90
1, 623195, Note_on_c, 0, 55, 80
1, 623244, Note_off_c, 0, 71, 0
1, 623295, Note_off_c, 0, 62, 0
1, 623560, Note_on_c, 0, 76, 90
1, 623579, Note_on_c, 0, 59, 80
1, 623622, Note_off_c, 0, 76, 0
1, 623875, Note_off_c, 0, 59, 0
1, 623907, Note_off_c, 0, 55, 0
1, 623938, Note_on_c, 0, 64, 93
1, 624315, Note_on_c, 0, 52, 68
1, 624322, Note_on_c, 0, 74, 90
1, 624361, Note_off_c, 0, 52, 0
1, 624384, Note_off_c, 0, 74, 0
1, 624664, Note_on_c, 0, 73, 78
1, 624677, Note_on_c, 0, 57, 82
1, 624734, Note_off_c, 0, 73, 0
1, 624739, Note_on_c, 0, 74, 85
1, 624809, Note_on_c, 0, 73, 81
1, 624857, Note_off_c, 0, 74, 0
1, 624991, Note_off_c, 0, 64, 0
1, 624999, Note_off_c, 0, 73, 0
1, 625054, Note_on_c, 0, 62, 78
1, 625061, Note_on_c, 0, 71, 85
1, 625110, Note_off_c, 0, 71, 0
1, 625112, Note_off_c, 0, 62, 0
1, 625225, Note_on_c, 0, 73, 83
1, 625281, Note_off_c, 0, 73, 0
1, 625418, Note_on_c, 0, 61, 75
1, 625419, Note_on_c, 0, 69, 90
1, 625474, Note_off_c, 0, 69, 0
1, 625474, Note_off_c, 0, 57, 0
1, 625483, Note_off_c, 0, 61, 0
1, 625595, Note_on_c, 0, 71, 81
1, 625648, Note_off_c, 0, 71, 0
1, 625769, Note_on_c, 0, 73, 88
1, 625782, Note_on_c, 0, 64, 81
1, 625785, Note_on_c, 0, 55, 66
1, 625823, Note_off_c, 0, 55, 0
1, 625826, Note_off_c, 0, 64, 0
1, 625832, Note_off_c, 0, 73, 0
1, 625949, Note_on_c, 0, 69, 82
1, 625999, Note_off_c, 0, 69, 0
1, 626122, Note_on_c, 0, 74, 82
1, 626123, Note_on_c, 0, 69, 86
1, 626134, Note_on_c, 0, 57, 74
1, 626140, Note_on_c, 0, 54, 70
1, 626180, Note_off_c, 0, 57, 0
1, 626191, Note_on_c, 0, 67, 89
1, 626198, Note_off_c, 0, 69, 0
1, 626206, Note_off_c, 0, 74, 0
1, 626287, Note_on_c, 0, 69, 87
1, 626315, Note_off_c, 0, 67, 0
1, 626320, Note_on_c, 0, 59, 72
1, 626367, Note_off_c, 0, 59, 0
1, 626488, Note_on_c, 0, 62, 82
1, 626507, Note_on_c, 0, 57, 76
1, 626508, Note_off_c, 0, 54, 0
1, 626551, Note_off_c, 0, 57, 0
1, 626570, Note_off_c, 0, 62, 0
1, 626590, Note_off_c, 0, 69, 0
1, 626683, Note_on_c, 0, 55, 73
1, 626722, Note_off_c, 0, 55, 0
1, 626868, Note_on_c, 0, 71, 88
1, 626869, Note_on_c, 0, 54, 80
1, 626872, Note_on_c, 0, 74, 82
1, 626937, Note_off_c, 0, 71, 0
1, 626955, Note_on_c, 0, 69, 80
1, 627035, Note_off_c, 0, 69, 0
1, 627047, Note_on_c, 0, 71, 78
1, 627116, Note_on_c, 0, 69, 82
1, 627122, Note_off_c, 0, 71, 0
1, 627224, Note_on_c, 0, 71, 86
1, 627227, Note_off_c, 0, 69, 0
1, 627228, Note_on_c, 0, 50, 68
1, 627257, Note_off_c, 0, 54, 0
1, 627261, Note_off_c, 0, 50, 0
1, 627302, Note_on_c, 0, 69, 81
1, 627315, Note_off_c, 0, 71, 0
1, 627380, Note_off_c, 0, 69, 0
1, 627382, Note_on_c, 0, 67, 75
1, 627473, Note_off_c, 0, 67, 0
1, 627483, Note_on_c, 0, 69, 81
1, 627589, Note_on_c, 0, 71, 93
1, 627603, Note_on_c, 0, 55, 79
1, 627609, Note_off_c, 0, 69, 0
1, 627613, Note_on_c, 0, 43, 66
1, 627625, Note_off_c, 0, 74, 0
1, 627651, Note_off_c, 0, 71, 0
1, 627658, Note_off_c, 0, 43, 0
1, 627956, Note_on_c, 0, 67, 88
1, 627964, Note_on_c, 0, 62, 84
1, 627978, Note_on_c, 0, 47, 66
1, 628013, Note_off_c, 0, 55, 0
1, 628018, Note_off_c, 0, 62, 0
1, 628026, Note_off_c, 0, 67, 0
1, 628051, Note_off_c, 0, 47, 0
1, 628308, Note_on_c, 0, 74, 85
1, 628312, Note_on_c, 0, 64, 91
1, 628327, Note_on_c, 0, 43, 65
1, 628386, Note_off_c, 0, 43, 0
1, 628433, Note_off_c, 0, 64, 0
1, 628698, Note_on_c, 0, 67, 88
1, 628712, Note_on_c, 0, 40, 72
1, 628759, Note_off_c, 0, 40, 0
1, 628796, Note_off_c, 0, 67, 0
1, 629060, Note_on_c, 0, 64, 91
1, 629074, Note_on_c, 0, 45, 71
1, 629148, Note_off_c, 0, 64, 0
1, 629433, Note_on_c, 0, 69, 88
1, 629442, Note_on_c, 0, 52, 81
1, 629507, Note_off_c, 0, 69, 0
1, 629514, Note_off_c, 0, 52, 0
1, 629772, Note_off_c, 0, 45, 0
1, 629810, Note_on_c, 0, 57, 91
1, 629814, Note_on_c, 0, 73, 85
1, 629828, Note_off_c, 0, 74, 0
1, 630173, Note_on_c, 0, 67, 88
1, 630181, Note_on_c, 0, 45, 73
1, 630196, Control_c, 0, 64, 10
1, 630214, Control_c, 0, 64, 17
1, 630233, Control_c, 0, 64, 24
1, 630250, Note_off_c, 0, 67, 0
1, 630254, Note_off_c, 0, 45, 0
1, 630260, Control_c, 0, 64, 29
1, 630282, Control_c, 0, 64, 34
1, 630299, Control_c, 0, 64, 39
1, 630316, Control_c, 0, 64, 44
1, 630334, Control_c, 0, 64, 48
1, 630354, Control_c, 0, 64, 51
1, 630372, Control_c, 0, 64, 53
1, 630409, Control_c, 0, 64, 55
1, 630484, Control_c, 0, 64, 47
1, 630501, Control_c, 0, 64, 32
1, 630506, Note_off_c, 0, 73, 0
1, 630526, Note_on_c, 0, 66, 82
1, 630533, Note_on_c, 0, 74, 64
1, 630537, Note_off_c, 0, 57, 0
1, 630538, Control_c, 0, 64, 0
1, 630541, Note_on_c, 0, 50, 67
1, 630571, Note_on_c, 0, 67, 81
1, 630598, Note_off_c, 0, 66, 0
1, 630668, Note_on_c, 0, 66, 82
1, 630699, Note_off_c, 0, 67, 0
1, 630708, Note_on_c, 0, 57, 74
1, 630748, Note_off_c, 0, 57, 0
1, 630751, Note_off_c, 0, 66, 0
1, 630881, Note_on_c, 0, 64, 88
1, 630895, Note_on_c, 0, 55, 71
1, 630917, Note_off_c, 0, 64, 0
1, 630924, Note_off_c, 0, 55, 0
1, 631069, Note_on_c, 0, 66, 86
1, 631080, Note_on_c, 0, 57, 71
1, 631116, Note_off_c, 0, 57, 0
1, 631120, Note_off_c, 0, 66, 0
1, 631329, Note_on_c, 0, 62, 92
1, 631346, Note_on_c, 0, 54, 77
1, 631532, Control_c, 0, 64, 8
1, 631549, Control_c, 0, 64, 16
1, 631569, Control_c, 0, 64, 26
1, 631587, Control_c, 0, 64, 38
1, 631606, Control_c, 0, 64, 50
1, 631624, Control_c, 0, 64, 56
1, 631643, Control_c, 0, 64, 58
1, 631661, Control_c, 0, 64, 61
1, 631678, Control_c, 0, 64, 64
1, 631697, Control_c, 0, 64, 67
1, 631716, Control_c, 0, 64, 70
1, 631734, Control_c, 0, 64, 73
1, 631753, Control_c, 0, 64, 77
1, 631772, Control_c, 0, 64, 81
1, 631785, Note_off_c, 0, 62, 0
1, 631790, Control_c, 0, 64, 85
1, 631809, Control_c, 0, 64, 90
1, 631828, Control_c, 0, 64, 94
1, 631830, Note_off_c, 0, 74, 0
1, 631842, Note_off_c, 0, 54, 0
1, 631848, Note_off_c, 0, 50, 0
1, 631882, Control_c, 0, 64, 78
1, 631902, Control_c, 0, 64, 58
1, 631920, Control_c, 0, 64, 39
1, 631939, Control_c, 0, 64, 22
1, 631957, Control_c, 0, 64, 13
1, 632211, Note_on_c, 0, 78, 89
1, 632222, Note_on_c, 0, 50, 68
1, 632273, Note_off_c, 0, 50, 0
1, 632282, Note_on_c, 0, 76, 82
1, 632283, Note_off_c, 0, 78, 0
1, 632375, Note_on_c, 0, 78, 85
1, 632390, Note_off_c, 0, 76, 0
1, 632394, Note_on_c, 0, 52, 63
1, 632436, Note_off_c, 0, 52, 0
1, 632578, Note_on_c, 0, 54, 59
1, 632621, Note_off_c, 0, 54, 0
1, 632757, Note_on_c, 0, 55, 59
1, 632765, Note_off_c, 0, 78, 0
1, 632793, Note_off_c, 0, 55, 0
1, 632932, Note_on_c, 0, 79, 87
1, 632942, Note_on_c, 0, 57, 77
1, 632980, Note_off_c, 0, 57, 0
1, 633015, Note_off_c, 0, 79, 0
1, 633020, Note_on_c, 0, 78, 81
1, 633122, Note_on_c, 0, 79, 76
1, 633124, Note_off_c, 0, 78, 0
1, 633211, Note_off_c, 0, 79, 0
1, 633211, Note_on_c, 0, 78, 77
1, 633286, Note_on_c, 0, 80, 81
1, 633289, Note_off_c, 0, 78, 0
1, 633292, Note_on_c, 0, 48, 76
1, 633327, Note_off_c, 0, 48, 0
1, 633346, Note_on_c, 0, 79, 60
1, 633379, Note_on_c, 0, 78, 82
1, 633381, Note_off_c, 0, 80, 0
1, 633384, Note_off_c, 0, 79, 0
1, 633458, Note_off_c, 0, 78, 0
1, 633468, Note_on_c, 0, 76, 74
1, 633534, Note_on_c, 0, 78, 80
1, 633544, Note_off_c, 0, 76, 0
1, 633635, Note_on_c, 0, 79, 92
1, 633639, Note_on_c, 0, 47, 65
1, 633662, Note_off_c, 0, 78, 0
1, 633677, Note_off_c, 0, 47, 0
1, 633691, Note_off_c, 0, 79, 0
1, 633831, Note_on_c, 0, 50, 68
1, 633871, Note_off_c, 0, 50, 0
1, 634010, Note_on_c, 0, 74, 91
1, 634020, Note_on_c, 0, 52, 65
1, 634071, Note_off_c, 0, 74, 0
1, 634082, Note_off_c, 0, 52, 0
1, 634188, Note_on_c, 0, 54, 71
1, 634233, Note_off_c, 0, 54, 0
1, 634381, Note_on_c, 0, 71, 91
1, 634392, Note_on_c, 0, 55, 74
1, 634437, Note_off_c, 0, 71, 0
1, 634439, Note_off_c, 0, 55, 0
1, 634557, Note_on_c, 0, 57, 73
1, 634605, Note_off_c, 0, 57, 0
1, 634753, Note_on_c, 0, 74, 91
1, 634764, Note_on_c, 0, 59, 81
1, 634820, Note_off_c, 0, 74, 0
1, 635127, Note_on_c, 0, 72, 89
1, 635206, Note_off_c, 0, 72, 0
1, 635310, Note_off_c, 0, 59, 0
1, 635499, Note_on_c, 0, 77, 94
1, 635518, Note_on_c, 0, 57, 66
1, 635571, Note_off_c, 0, 57, 0
1, 635587, Note_off_c, 0, 77, 0
1, 635687, Note_on_c, 0, 56, 68
1, 635731, Note_off_c, 0, 56, 0
1, 635894, Note_on_c, 0, 65, 91
1, 635905, Note_on_c, 0, 57, 69
1, 635963, Note_off_c, 0, 65, 0
1, 636255, Note_on_c, 0, 76, 89
1, 636323, Note_off_c, 0, 76, 0
1, 636619, Note_on_c, 0, 75, 88
1, 636680, Note_on_c, 0, 76, 86
1, 636685, Note_off_c, 0, 75, 0
1, 636756, Note_on_c, 0, 75, 81
1, 636810, Note_off_c, 0, 76, 0
1, 637010, Note_off_c, 0, 75, 0
1, 637013, Note_on_c, 0, 73, 82
1, 637038, Note_on_c, 0, 54, 64
1, 637041, Note_off_c, 0, 57, 0
1, 637071, Note_off_c, 0, 73, 0
1, 637084, Note_off_c, 0, 54, 0
1, 637188, Note_on_c, 0, 75, 80
1, 637239, Note_off_c, 0, 75, 0
1, 637377, Note_on_c, 0, 71, 79
1, 637382, Note_on_c, 0, 59, 70
1, 637421, Note_off_c, 0, 71, 0
1, 637435, Note_off_c, 0, 59, 0
1, 637549, Note_on_c, 0, 73, 72
1, 637599, Note_off_c, 0, 73, 0
1, 637740, Note_on_c, 0, 75, 70
1, 637749, Note_on_c, 0, 57, 60
1, 637775, Note_off_c, 0, 75, 0
1, 637786, Note_off_c, 0, 57, 0
1, 637919, Note_on_c, 0, 71, 72
1, 637961, Note_off_c, 0, 71, 0
1, 638093, Note_on_c, 0, 76, 83
1, 638096, Note_on_c, 0, 71, 88
1, 638108, Note_on_c, 0, 55, 68
1, 638143, Note_off_c, 0, 55, 0
1, 638168, Note_on_c, 0, 69, 87
1, 638173, Note_off_c, 0, 71, 0
1, 638176, Note_off_c, 0, 76, 0
1, 638264, Note_on_c, 0, 71, 87
1, 638290, Note_off_c, 0, 69, 0
1, 638297, Note_on_c, 0, 57, 70
1, 638338, Note_off_c, 0, 57, 0
1, 638462, Note_on_c, 0, 64, 80
1, 638468, Note_on_c, 0, 59, 67
1, 638505, Note_off_c, 0, 59, 0
1, 638558, Note_off_c, 0, 64, 0
1, 638602, Note_off_c, 0, 71, 0
1, 638626, Note_on_c, 0, 57, 64
1, 638674, Note_off_c, 0, 57, 0
1, 638808, Note_on_c, 0, 72, 86
1, 638819, Note_on_c, 0, 76, 77
1, 638825, Note_on_c, 0, 55, 68
1, 638863, Note_off_c, 0, 55, 0
1, 638874, Note_off_c, 0, 72, 0
1, 638889, Note_on_c, 0, 71, 78
1, 638985, Note_off_c, 0, 71, 0
1, 638989, Note_on_c, 0, 72, 75
1, 638997, Note_on_c, 0, 54, 63
1, 639036, Note_off_c, 0, 54, 0
1, 639063, Note_off_c, 0, 72, 0
1, 639064, Note_on_c, 0, 71, 79
1, 639161, Note_on_c, 0, 55, 68
1, 639161, Note_on_c, 0, 72, 87
1, 639162, Note_off_c, 0, 71, 0
1, 639193, Note_off_c, 0, 55, 0
1, 639244, Note_on_c, 0, 71, 81
1, 639252, Note_off_c, 0, 72, 0
1, 639325, Note_off_c, 0, 71, 0
1, 639329, Note_on_c, 0, 69, 73
1, 639336, Note_on_c, 0, 52, 57
1, 639371, Note_off_c, 0, 69, 0
1, 639379, Note_off_c, 0, 52, 0
1, 639408, Note_on_c, 0, 71, 81
1, 639482, Note_off_c, 0, 71, 0
1, 639510, Note_on_c, 0, 72, 90
1, 639522, Note_on_c, 0, 57, 67
1, 639537, Note_off_c, 0, 76, 0
1, 639559, Note_off_c, 0, 57, 0
1, 639568, Note_off_c, 0, 72, 0
1, 639700, Note_on_c, 0, 59, 66
1, 639735, Note_off_c, 0, 59, 0
1, 639882, Note_on_c, 0, 69, 90
1, 639900, Note_on_c, 0, 64, 78
1, 639905, Note_on_c, 0, 60, 63
1, 639925, Note_off_c, 0, 64, 0
1, 639947, Note_off_c, 0, 69, 0
1, 639949, Note_off_c, 0, 60, 0
1, 640057, Note_on_c, 0, 59, 68
1, 640100, Note_off_c, 0, 59, 0
1, 640240, Note_on_c, 0, 76, 87
1, 640240, Note_on_c, 0, 66, 88
1, 640265, Note_on_c, 0, 57, 66
1, 640300, Note_off_c, 0, 57, 0
1, 640330, Note_off_c, 0, 66, 0
1, 640418, Note_on_c, 0, 55, 68
1, 640455, Note_off_c, 0, 55, 0
1, 640621, Note_on_c, 0, 69, 90
1, 640638, Note_on_c, 0, 57, 68
1, 640683, Note_off_c, 0, 57, 0
1, 640691, Note_off_c, 0, 69, 0
1, 640792, Note_on_c, 0, 54, 69
1, 640830, Note_off_c, 0, 54, 0
1, 640985, Note_on_c, 0, 66, 91
1, 641007, Note_on_c, 0, 59, 73
1, 641046, Note_off_c, 0, 59, 0
1, 641088, Note_off_c, 0, 66, 0
1, 641162, Note_on_c, 0, 57, 65
1, 641209, Note_off_c, 0, 57, 0
1, 641355, Note_on_c, 0, 71, 88
1, 641370, Note_on_c, 0, 55, 73
1, 641419, Note_off_c, 0, 55, 0
1, 641497, Note_off_c, 0, 71, 0
1, 641546, Note_on_c, 0, 57, 77
1, 641605, Note_off_c, 0, 57, 0
1, 641737, Note_on_c, 0, 59, 94
1, 641744, Note_on_c, 0, 75, 85
1, 641781, Note_off_c, 0, 76, 0
1, 641800, Note_off_c, 0, 59, 0
1, 641935, Note_on_c, 0, 57, 73
1, 641978, Note_off_c, 0, 57, 0
1, 642103, Note_on_c, 0, 69, 89
1, 642110, Note_on_c, 0, 59, 79
1, 642165, Note_off_c, 0, 59, 0
1, 642186, Note_off_c, 0, 69, 0
1, 642284, Note_on_c, 0, 47, 72
1, 642331, Note_off_c, 0, 47, 0
1, 642450, Note_off_c, 0, 75, 0
1, 642465, Note_on_c, 0, 76, 73
1, 642468, Note_on_c, 0, 67, 80
1, 642469, Note_on_c, 0, 52, 74
1, 642522, Note_off_c, 0, 52, 0
1, 642536, Note_on_c, 0, 69, 67
1, 642541, Note_off_c, 0, 67, 0
1, 642626, Note_on_c, 0, 67, 84
1, 642639, Note_off_c, 0, 69, 0
1, 642644, Note_on_c, 0, 47, 71
1, 642672, Note_off_c, 0, 67, 0
1, 642677, Note_off_c, 0, 47, 0
1, 642809, Note_on_c, 0, 66, 81
1, 642830, Note_on_c, 0, 45, 73
1, 642864, Note_off_c, 0, 66, 0
1, 642866, Note_off_c, 0, 45, 0
1, 642984, Note_on_c, 0, 67, 80
1, 642996, Note_on_c, 0, 47, 68
1, 643037, Note_off_c, 0, 47, 0
1, 643044, Note_off_c, 0, 67, 0
1, 643138, Note_off_c, 0, 76, 0
1, 643169, Note_on_c, 0, 64, 86
1, 643178, Note_on_c, 0, 43, 84
1, 643231, Note_off_c, 0, 43, 0
1, 643361, Note_on_c, 0, 42, 75
1, 643363, Note_on_c, 0, 74, 86
1, 643416, Note_off_c, 0, 42, 0
1, 643451, Note_off_c, 0, 74, 0
1, 643536, Note_on_c, 0, 43, 84
1, 643541, Note_on_c, 0, 73, 85
1, 643594, Note_off_c, 0, 43, 0
1, 643627, Note_off_c, 0, 73, 0
1, 643701, Note_on_c, 0, 40, 81
1, 643720, Note_on_c, 0, 71, 78
1, 643749, Note_off_c, 0, 40, 0
1, 643799, Note_off_c, 0, 71, 0
1, 643888, Note_on_c, 0, 49, 86
1, 643892, Note_on_c, 0, 69, 86
1, 643970, Note_off_c, 0, 49, 0
1, 643976, Note_on_c, 0, 47, 77
1, 644016, Note_off_c, 0, 64, 0
1, 644036, Note_off_c, 0, 69, 0
1, 644067, Note_on_c, 0, 49, 90
1, 644106, Note_off_c, 0, 47, 0
1, 644274, Note_on_c, 0, 79, 93
1, 644307, Note_off_c, 0, 49, 0
1, 644615, Note_on_c, 0, 50, 78
1, 644630, Note_on_c, 0, 69, 88
1, 644678, Note_off_c, 0, 50, 0
1, 644698, Note_on_c, 0, 49, 78
1, 644791, Note_off_c, 0, 49, 0
1, 644793, Note_on_c, 0, 50, 80
1, 644835, Note_off_c, 0, 79, 0
1, 644881, Note_on_c, 0, 49, 72
1, 644899, Note_off_c, 0, 50, 0
1, 645000, Note_on_c, 0, 77, 88
1, 645028, Note_on_c, 0, 47, 62
1, 645045, Note_off_c, 0, 49, 0
1, 645085, Note_off_c, 0, 47, 0
1, 645144, Note_off_c, 0, 77, 0
1, 645191, Note_on_c, 0, 76, 86
1, 645205, Note_on_c, 0, 49, 77
1, 645232, Poly_aftertouch_c, 0, 47, 0
1, 645288, Note_off_c, 0, 76, 0
1, 645391, Note_off_c, 0, 49, 0
1, 645411, Note_on_c, 0, 50, 89
1, 645412, Note_on_c, 0, 77, 93
1, 645462, Note_off_c, 0, 50, 0
1, 645508, Note_off_c, 0, 69, 0
1, 645775, Note_on_c, 0, 74, 81
1, 645780, Note_on_c, 0, 47, 81
1, 645839, Note_off_c, 0, 47, 0
1, 645858, Note_off_c, 0, 74, 0
1, 646121, Note_on_c, 0, 71, 81
1, 646135, Note_on_c, 0, 43, 76
1, 646212, Note_off_c, 0, 71, 0
1, 646228, Note_off_c, 0, 43, 0
1, 646472, Note_on_c, 0, 76, 81
1, 646481, Note_on_c, 0, 67, 80
1, 646483, Note_on_c, 0, 47, 80
1, 646492, Note_off_c, 0, 77, 0
1, 646542, Note_off_c, 0, 47, 0
1, 646568, Note_off_c, 0, 76, 0
1, 646652, Note_on_c, 0, 74, 87
1, 646749, Note_off_c, 0, 74, 0
1, 646849, Note_on_c, 0, 76, 87
1, 646856, Note_on_c, 0, 48, 86
1, 646915, Note_off_c, 0, 48, 0
1, 646967, Note_off_c, 0, 67, 0
1, 647223, Note_on_c, 0, 52, 85
1, 647223, Note_on_c, 0, 72, 82
1, 647286, Note_off_c, 0, 52, 0
1, 647313, Note_off_c, 0, 72, 0
1, 647394, Note_on_c, 0, 71, 82
1, 647524, Note_off_c, 0, 71, 0
1, 647586, Note_on_c, 0, 72, 85
1, 647589, Note_on_c, 0, 45, 86
1, 647645, Note_off_c, 0, 76, 0
1, 647652, Note_off_c, 0, 45, 0
1, 647940, Note_on_c, 0, 55, 89
1, 647942, Note_on_c, 0, 78, 85
1, 647992, Note_off_c, 0, 55, 0
1, 648043, Note_off_c, 0, 78, 0
1, 648126, Note_on_c, 0, 79, 85
1, 648236, Note_off_c, 0, 79, 0
1, 648310, Note_on_c, 0, 54, 80
1, 648319, Note_on_c, 0, 81, 92
1, 648365, Note_on_c, 0, 55, 68
1, 648381, Note_off_c, 0, 54, 0
1, 648457, Note_on_c, 0, 54, 80
1, 648469, Note_on_c, 0, 83, 86
1, 648472, Note_off_c, 0, 55, 0
1, 648485, Note_off_c, 0, 81, 0
1, 648524, Note_off_c, 0, 54, 0
1, 648548, Note_off_c, 0, 83, 0
1, 648656, Note_on_c, 0, 79, 88
1, 648672, Note_on_c, 0, 52, 81
1, 648727, Note_off_c, 0, 52, 0
1, 648747, Note_off_c, 0, 79, 0
1, 648832, Note_on_c, 0, 81, 86
1, 648839, Note_on_c, 0, 54, 79
1, 648894, Note_off_c, 0, 54, 0
1, 648911, Note_off_c, 0, 81, 0
1, 649031, Note_on_c, 0, 78, 88
1, 649032, Note_on_c, 0, 50, 82
1, 649092, Note_off_c, 0, 72, 0
1, 649097, Note_off_c, 0, 50, 0
1, 649121, Note_off_c, 0, 78, 0
1, 649201, Note_on_c, 0, 52, 79
1, 649254, Note_off_c, 0, 52, 0
1, 649367, Note_on_c, 0, 54, 80
1, 649373, Note_on_c, 0, 81, 86
1, 649379, Note_on_c, 0, 72, 80
1, 649436, Note_off_c, 0, 54, 0
1, 649464, Note_off_c, 0, 72, 0
1, 649539, Note_on_c, 0, 50, 75
1, 649569, Note_off_c, 0, 50, 0
1, 649630, Control_c, 0, 64, 20
1, 649649, Control_c, 0, 64, 33
1, 649667, Control_c, 0, 64, 50
1, 649687, Control_c, 0, 64, 63
1, 649705, Control_c, 0, 64, 71
1, 649715, Note_on_c, 0, 62, 82
1, 649724, Control_c, 0, 64, 77
1, 649725, Note_on_c, 0, 55, 73
1, 649725, Note_on_c, 0, 71, 85
1, 649742, Control_c, 0, 64, 85
1, 649756, Note_off_c, 0, 62, 0
1, 649760, Note_off_c, 0, 55, 0
1, 649761, Control_c, 0, 64, 91
1, 649787, Note_off_c, 0, 81, 0
1, 649796, Control_c, 0, 64, 79
1, 649805, Note_on_c, 0, 60, 86
1, 649817, Control_c, 0, 64, 61
1, 649834, Control_c, 0, 64, 40
1, 649854, Control_c, 0, 64, 17
1, 649896, Note_on_c, 0, 62, 87
1, 649917, Note_off_c, 0, 60, 0
1, 650049, Note_off_c, 0, 71, 0
1, 650102, Note_on_c, 0, 79, 81
1, 650108, Note_on_c, 0, 57, 80
1, 650160, Note_off_c, 0, 62, 0
1, 650173, Note_off_c, 0, 57, 0
1, 650195, Note_off_c, 0, 79, 0
1, 650274, Note_on_c, 0, 78, 83
1, 650308, Control_c, 0, 64, 0
1, 650396, Note_off_c, 0, 78, 0
1, 650400, Control_c, 0, 64, 23
1, 650418, Control_c, 0, 64, 52
1, 650433, Note_on_c, 0, 64, 81
1, 650436, Control_c, 0, 64, 74
1, 650440, Note_on_c, 0, 79, 88
1, 650442, Note_on_c, 0, 59, 73
1, 650455, Control_c, 0, 64, 85
1, 650474, Control_c, 0, 64, 92
1, 650476, Note_off_c, 0, 64, 0
1, 650480, Note_off_c, 0, 59, 0
1, 650505, Note_off_c, 0, 79, 0
1, 650510, Control_c, 0, 64, 81
1, 650530, Control_c, 0, 64, 65
1, 650530, Note_on_c, 0, 62, 76
1, 650551, Control_c, 0, 64, 48
1, 650568, Control_c, 0, 64, 36
1, 650587, Control_c, 0, 64, 30
1, 650604, Note_off_c, 0, 62, 0
1, 650622, Control_c, 0, 64, 25
1, 650635, Note_on_c, 0, 64, 67
1, 650689, Note_on_c, 0, 62, 60
1, 650704, Note_off_c, 0, 64, 0
1, 650727, Note_on_c, 0, 60, 22
1, 650727, Note_off_c, 0, 60, 0
1, 650770, Note_off_c, 0, 62, 0
1, 650782, Poly_aftertouch_c, 0, 60, 0
1, 650798, Note_on_c, 0, 67, 79
1, 650800, Note_on_c, 0, 71, 86
1, 650805, Note_on_c, 0, 55, 73
1, 650819, Note_on_c, 0, 64, 81
1, 650864, Note_off_c, 0, 55, 0
1, 650893, Note_off_c, 0, 64, 0
1, 650921, Note_on_c, 0, 62, 80
1, 650982, Note_off_c, 0, 67, 0
1, 650994, Note_on_c, 0, 60, 72
1, 650999, Note_off_c, 0, 62, 0
1, 651064, Note_off_c, 0, 60, 0
1, 651099, Note_on_c, 0, 62, 75
1, 651128, Note_off_c, 0, 62, 0
1, 651182, Note_on_c, 0, 64, 90
1, 651206, Note_on_c, 0, 48, 80
1, 651274, Note_off_c, 0, 71, 0
1, 651552, Note_on_c, 0, 69, 81
1, 651559, Note_on_c, 0, 60, 87
1, 651617, Note_off_c, 0, 69, 0
1, 651632, Note_off_c, 0, 60, 0
1, 651720, Note_on_c, 0, 71, 84
1, 651727, Note_off_c, 0, 64, 0
1, 651811, Note_off_c, 0, 71, 0
1, 651857, Poly_aftertouch_c, 0, 64, 24
1, 651924, Note_on_c, 0, 72, 86
1, 651926, Poly_aftertouch_c, 0, 64, 0
1, 651935, Note_on_c, 0, 57, 90
1, 651969, Note_off_c, 0, 48, 0
1, 652030, Note_off_c, 0, 57, 0
1, 652058, Poly_aftertouch_c, 0, 71, 0
1, 652283, Note_on_c, 0, 69, 83
1, 652287, Note_on_c, 0, 60, 89
1, 652294, Note_on_c, 0, 57, 75
1, 652355, Note_off_c, 0, 60, 0
1, 652358, Note_off_c, 0, 57, 0
1, 652374, Note_off_c, 0, 69, 0
1, 652455, Note_on_c, 0, 67, 87
1, 652532, Note_off_c, 0, 67, 0
1, 652649, Note_on_c, 0, 66, 84
1, 652658, Note_on_c, 0, 57, 92
1, 652663, Note_on_c, 0, 50, 72
1, 652743, Note_off_c, 0, 57, 0
1, 652759, Note_off_c, 0, 66, 0
1, 652976, Note_off_c, 0, 50, 0
1, 653023, Note_off_c, 0, 72, 0
1, 653027, Note_on_c, 0, 71, 84
1, 653028, Note_on_c, 0, 62, 91
1, 653031, Note_on_c, 0, 67, 80
1, 653084, Note_off_c, 0, 62, 0
1, 653386, Note_on_c, 0, 69, 82
1, 653393, Note_on_c, 0, 50, 88
1, 653408, Note_off_c, 0, 71, 0
1, 653456, Note_off_c, 0, 50, 0
1, 653524, Note_off_c, 0, 67, 0
1, 653844, Note_on_c, 0, 66, 83
1, 653847, Note_on_c, 0, 50, 81
1, 653849, Note_on_c, 0, 60, 89
1, 653909, Note_off_c, 0, 50, 0
1, 653914, Note_off_c, 0, 60, 0
1, 653983, Note_off_c, 0, 66, 0
1, 654213, Note_on_c, 0, 59, 81
1, 654222, Note_on_c, 0, 55, 67
1, 654228, Note_on_c, 0, 67, 79
1, 654270, Note_off_c, 0, 69, 0
1, 654276, Note_off_c, 0, 59, 0
1, 654286, Note_on_c, 0, 60, 83
1, 654337, Control_c, 0, 64, 21
1, 654359, Note_on_c, 0, 59, 78
1, 654371, Note_off_c, 0, 60, 0
1, 654405, Note_off_c, 0, 55, 0
1, 654424, Note_on_c, 0, 62, 86
1, 654426, Note_off_c, 0, 59, 0
1, 654482, Note_off_c, 0, 62, 0
1, 654641, Note_on_c, 0, 57, 88
1, 654644, Note_on_c, 0, 60, 86
1, 654690, Note_off_c, 0, 60, 0
1, 654690, Note_off_c, 0, 57, 0
1, 654864, Note_on_c, 0, 59, 86
1, 654867, Note_on_c, 0, 62, 86
1, 654899, Note_off_c, 0, 59, 0
1, 654907, Note_off_c, 0, 62, 0
1, 655185, Note_on_c, 0, 59, 82
1, 655201, Control_c, 0, 67, 8
1, 655209, Note_on_c, 0, 55, 76
1, 655212, Note_on_c, 0, 43, 72
1, 655330, Control_c, 0, 67, 12
1, 655385, Control_c, 0, 67, 16
1, 655459, Control_c, 0, 67, 21
1, 655515, Control_c, 0, 67, 25
1, 655581, Control_c, 0, 67, 29
1, 655656, Control_c, 0, 67, 33
1, 655692, Control_c, 0, 67, 38
1, 655728, Control_c, 0, 67, 43
1, 655784, Control_c, 0, 67, 47
1, 655860, Control_c, 0, 67, 51
1, 655913, Control_c, 0, 67, 57
1, 655969, Control_c, 0, 64, 17
1, 655970, Control_c, 0, 67, 62
1, 656027, Control_c, 0, 67, 67
1, 656074, Note_off_c, 0, 43, 0
1, 656082, Control_c, 0, 67, 72
1, 656092, Note_off_c, 0, 59, 0
1, 656104, Note_off_c, 0, 67, 0
1, 656118, Note_off_c, 0, 55, 0
1, 656137, Control_c, 0, 67, 76
1, 656193, Control_c, 0, 67, 80
1, 656553, Control_c, 0, 67, 84
1, 657171, Note_on_c, 0, 71, 50
1, 657186, Note_on_c, 0, 55, 39
1, 657212, Note_off_c, 0, 71, 0
1, 657328, Note_on_c, 0, 69, 49
1, 657370, Control_c, 0, 67, 80
1, 657378, Note_off_c, 0, 69, 0
1, 657487, Note_on_c, 0, 67, 60
1, 657533, Note_off_c, 0, 67, 0
1, 657646, Note_on_c, 0, 66, 53
1, 657686, Poly_aftertouch_c, 0, 55, 24
1, 657696, Note_off_c, 0, 66, 0
1, 657712, Note_off_c, 0, 55, 0
1, 657784, Note_on_c, 0, 64, 57
1, 657829, Note_off_c, 0, 64, 0
1, 657927, Note_on_c, 0, 62, 58
1, 657928, Note_on_c, 0, 59, 60
1, 657967, Note_off_c, 0, 62, 0
1, 657983, Note_off_c, 0, 59, 0
1, 658079, Note_on_c, 0, 64, 57
1, 658084, Note_on_c, 0, 61, 65
1, 658131, Note_off_c, 0, 64, 0
1, 658228, Note_on_c, 0, 62, 59
1, 658270, Note_off_c, 0, 62, 0
1, 658282, Note_off_c, 0, 61, 0
1, 658383, Note_on_c, 0, 61, 45
1, 658537, Note_on_c, 0, 59, 60
1, 658577, Note_off_c, 0, 59, 0
1, 658687, Note_on_c, 0, 57, 53
1, 658740, Note_off_c, 0, 57, 0
1, 658772, Note_off_c, 0, 61, 0
1, 658832, Note_on_c, 0, 64, 70
1, 658841, Note_on_c, 0, 55, 49
1, 658881, Note_off_c, 0, 55, 0
1, 658893, Note_off_c, 0, 64, 0
1, 658996, Note_on_c, 0, 69, 76
1, 659010, Note_on_c, 0, 54, 45
1, 659084, Note_off_c, 0, 69, 0
1, 659148, Note_on_c, 0, 67, 72
1, 659207, Note_off_c, 0, 67, 0
1, 659297, Note_on_c, 0, 66, 77
1, 659368, Note_off_c, 0, 66, 0
1, 659370, Note_off_c, 0, 54, 0
1, 659450, Note_on_c, 0, 64, 78
1, 659522, Note_off_c, 0, 64, 0
1, 659584, Note_on_c, 0, 62, 75
1, 659630, Note_off_c, 0, 62, 0
1, 659729, Note_on_c, 0, 61, 64
1, 659731, Note_on_c, 0, 64, 65
1, 659784, Note_off_c, 0, 64, 0
1, 659784, Note_off_c, 0, 61, 0
1, 659888, Note_on_c, 0, 59, 75
1, 659892, Note_on_c, 0, 62, 59
1, 659939, Note_off_c, 0, 62, 0
1, 660040, Note_on_c, 0, 61, 61
1, 660089, Note_off_c, 0, 61, 0
1, 660124, Note_off_c, 0, 59, 0
1, 660190, Note_on_c, 0, 59, 53
1, 660358, Note_on_c, 0, 57, 53
1, 660409, Note_off_c, 0, 57, 0
1, 660497, Note_on_c, 0, 55, 56
1, 660542, Note_off_c, 0, 55, 0
1, 660550, Note_off_c, 0, 59, 0
1, 660633, Note_on_c, 0, 54, 64
1, 660634, Note_on_c, 0, 69, 64
1, 660683, Note_off_c, 0, 54, 0
1, 660716, Note_off_c, 0, 69, 0
1, 660796, Note_on_c, 0, 67, 74
1, 660807, Note_on_c, 0, 52, 54
1, 660861, Note_off_c, 0, 52, 0
1, 660866, Note_off_c, 0, 67, 0
1, 660936, Note_on_c, 0, 66, 74
1, 661006, Note_off_c, 0, 66, 0
1, 661087, Note_on_c, 0, 64, 76
1, 661111, Note_on_c, 0, 55, 56
1, 661155, Note_off_c, 0, 55, 0
1, 661157, Note_off_c, 0, 64, 0
1, 661254, Note_on_c, 0, 59, 59
1, 661255, Note_on_c, 0, 62, 63
1, 661301, Note_off_c, 0, 59, 0
1, 661305, Note_off_c, 0, 62, 0
1, 661404, Note_on_c, 0, 61, 62
1, 661449, Note_off_c, 0, 61, 0
1, 661545, Note_on_c, 0, 62, 58
1, 661545, Note_on_c, 0, 59, 71
1, 661643, Note_off_c, 0, 62, 0
1, 661677, Note_off_c, 0, 59, 0
1, 661697, Note_on_c, 0, 57, 70
1, 661706, Note_on_c, 0, 61, 60
1, 661753, Note_off_c, 0, 57, 0
1, 661764, Note_off_c, 0, 61, 0
1, 661841, Note_on_c, 0, 59, 60
1, 661885, Note_off_c, 0, 59, 0
1, 661994, Note_on_c, 0, 61, 78
1, 662009, Note_on_c, 0, 57, 57
1, 662053, Note_off_c, 0, 57, 0
1, 662165, Note_on_c, 0, 64, 76
1, 662173, Note_on_c, 0, 55, 57
1, 662179, Note_off_c, 0, 61, 0
1, 662220, Note_off_c, 0, 55, 0
1, 662315, Note_on_c, 0, 54, 62
1, 662351, Note_off_c, 0, 64, 0
1, 662355, Note_off_c, 0, 54, 0
1, 662465, Note_on_c, 0, 52, 61
1, 662471, Note_on_c, 0, 67, 71
1, 662519, Note_off_c, 0, 52, 0
1, 662562, Note_off_c, 0, 67, 0
1, 662623, Note_on_c, 0, 66, 72
1, 662638, Note_on_c, 0, 50, 60
1, 662721, Note_off_c, 0, 50, 0
1, 662769, Note_off_c, 0, 66, 0
1, 662773, Note_on_c, 0, 64, 69
1, 662782, Note_on_c, 0, 52, 51
1, 662857, Note_off_c, 0, 52, 0
1, 662868, Note_off_c, 0, 64, 0
1, 662909, Note_on_c, 0, 54, 56
1, 662921, Note_on_c, 0, 62, 67
1, 662966, Note_off_c, 0, 54, 0
1, 663044, Note_off_c, 0, 62, 0
1, 663076, Note_on_c, 0, 61, 63
1, 663088, Note_on_c, 0, 55, 58
1, 663135, Note_off_c, 0, 61, 0
1, 663136, Note_off_c, 0, 55, 0
1, 663222, Note_on_c, 0, 59, 67
1, 663246, Note_on_c, 0, 57, 55
1, 663273, Note_off_c, 0, 59, 0
1, 663283, Note_off_c, 0, 57, 0
1, 663377, Note_on_c, 0, 59, 60
1, 663387, Note_on_c, 0, 57, 62
1, 663427, Note_off_c, 0, 59, 0
1, 663432, Note_off_c, 0, 57, 0
1, 663523, Note_on_c, 0, 61, 68
1, 663535, Note_on_c, 0, 55, 60
1, 663588, Note_off_c, 0, 55, 0
1, 663617, Note_off_c, 0, 61, 0
1, 663668, Note_on_c, 0, 62, 72
1, 663670, Note_on_c, 0, 54, 66
1, 663744, Note_off_c, 0, 54, 0
1, 663744, Note_off_c, 0, 62, 0
1, 663812, Note_on_c, 0, 64, 68
1, 663815, Note_on_c, 0, 52, 66
1, 663878, Note_off_c, 0, 52, 0
1, 663882, Note_off_c, 0, 64, 0
1, 663970, Note_on_c, 0, 66, 69
1, 663978, Note_on_c, 0, 50, 65
1, 664018, Note_off_c, 0, 50, 0
1, 664037, Note_off_c, 0, 66, 0
1, 664108, Note_on_c, 0, 67, 66
1, 664124, Note_on_c, 0, 52, 58
1, 664173, Note_off_c, 0, 52, 0
1, 664187, Note_off_c, 0, 67, 0
1, 664264, Note_on_c, 0, 69, 61
1, 664267, Note_on_c, 0, 48, 56
1, 664313, Note_off_c, 0, 48, 0
1, 664335, Note_off_c, 0, 69, 0
1, 664403, Control_c, 0, 64, 26
1, 664421, Note_on_c, 0, 66, 62
1, 664421, Control_c, 0, 64, 39
1, 664440, Control_c, 0, 64, 55
1, 664449, Note_on_c, 0, 47, 58
1, 664459, Control_c, 0, 64, 63
1, 664469, Note_off_c, 0, 66, 0
1, 664477, Control_c, 0, 64, 68
1, 664482, Note_on_c, 0, 67, 59
1, 664495, Control_c, 0, 64, 71
1, 664498, Note_off_c, 0, 47, 0
1, 664515, Control_c, 0, 64, 73
1, 664534, Note_off_c, 0, 67, 0
1, 664550, Note_on_c, 0, 69, 66
1, 664588, Control_c, 0, 64, 70
1, 664596, Note_on_c, 0, 50, 42
1, 664608, Control_c, 0, 64, 64
1, 664625, Control_c, 0, 64, 56
1, 664633, Note_off_c, 0, 50, 0
1, 664636, Note_off_c, 0, 69, 0
1, 664644, Control_c, 0, 64, 46
1, 664655, Note_on_c, 0, 67, 57
1, 664660, Control_c, 0, 64, 37
1, 664681, Control_c, 0, 64, 29
1, 664700, Control_c, 0, 64, 25
1, 664743, Note_on_c, 0, 55, 48
1, 664783, Note_off_c, 0, 55, 0
1, 664906, Note_on_c, 0, 59, 60
1, 664955, Note_off_c, 0, 59, 0
1, 665044, Note_off_c, 0, 67, 0
1, 665061, Note_on_c, 0, 62, 58
1, 665116, Note_off_c, 0, 62, 0
1, 665210, Note_on_c, 0, 67, 62
1, 665270, Note_off_c, 0, 67, 0
1, 665358, Note_on_c, 0, 62, 64
1, 665426, Note_off_c, 0, 62, 0
1, 665500, Note_on_c, 0, 59, 73
1, 665539, Note_off_c, 0, 59, 0
1, 665654, Note_on_c, 0, 59, 81
1, 665675, Note_on_c, 0, 55, 69
1, 665721, Note_off_c, 0, 55, 0
1, 665831, Note_on_c, 0, 62, 80
1, 665834, Note_on_c, 0, 53, 67
1, 665855, Note_off_c, 0, 59, 0
1, 665907, Note_off_c, 0, 53, 0
1, 666006, Note_on_c, 0, 52, 67
1, 666061, Note_off_c, 0, 52, 0
1, 666072, Control_c, 0, 64, 21
1, 666117, Note_off_c, 0, 62, 0
1, 666148, Note_on_c, 0, 50, 68
1, 666149, Note_on_c, 0, 67, 73
1, 666197, Note_off_c, 0, 50, 0
1, 666225, Note_off_c, 0, 67, 0
1, 666260, Control_c, 0, 64, 26
1, 666278, Control_c, 0, 64, 39
1, 666297, Control_c, 0, 64, 55
1, 666303, Note_on_c, 0, 66, 71
1, 666316, Control_c, 0, 64, 64
1, 666328, Note_on_c, 0, 49, 56
1, 666335, Control_c, 0, 64, 68
1, 666353, Control_c, 0, 64, 70
1, 666363, Note_off_c, 0, 66, 0
1, 666385, Note_on_c, 0, 67, 65
1, 666396, Note_off_c, 0, 49, 0
1, 666410, Control_c, 0, 64, 68
1, 666427, Control_c, 0, 64, 62
1, 666435, Note_off_c, 0, 67, 0
1, 666440, Note_on_c, 0, 69, 67
1, 666445, Control_c, 0, 64, 52
1, 666465, Control_c, 0, 64, 38
1, 666466, Note_on_c, 0, 52, 46
1, 666484, Control_c, 0, 64, 22
1, 666502, Control_c, 0, 64, 12
1, 666530, Note_off_c, 0, 52, 0
1, 666539, Note_off_c, 0, 69, 0
1, 666557, Note_on_c, 0, 67, 70
1, 666615, Note_on_c, 0, 55, 47
1, 666662, Note_off_c, 0, 55, 0
1, 666767, Note_on_c, 0, 58, 57
1, 666822, Note_off_c, 0, 58, 0
1, 666927, Note_on_c, 0, 64, 54
1, 666930, Note_off_c, 0, 67, 0
1, 667001, Note_off_c, 0, 64, 0
1, 667074, Note_on_c, 0, 67, 64
1, 667129, Note_off_c, 0, 67, 0
1, 667231, Note_on_c, 0, 64, 60
1, 667278, Note_off_c, 0, 64, 0
1, 667375, Note_on_c, 0, 58, 62
1, 667420, Note_off_c, 0, 58, 0
1, 667522, Note_on_c, 0, 61, 69
1, 667544, Note_on_c, 0, 57, 57
1, 667593, Note_off_c, 0, 57, 0
1, 667626, Note_off_c, 0, 61, 0
1, 667683, Note_on_c, 0, 55, 60
1, 667685, Note_on_c, 0, 64, 75
1, 667759, Note_off_c, 0, 55, 0
1, 667836, Note_on_c, 0, 54, 67
1, 667905, Note_off_c, 0, 54, 0
1, 667959, Note_off_c, 0, 64, 0
1, 667990, Note_on_c, 0, 52, 70
1, 667993, Note_on_c, 0, 67, 71
1, 668049, Note_off_c, 0, 52, 0
1, 668098, Note_off_c, 0, 67, 0
1, 668136, Control_c, 0, 64, 22
1, 668152, Note_on_c, 0, 66, 70
1, 668154, Control_c, 0, 64, 35
1, 668154, Note_on_c, 0, 50, 60
1, 668172, Control_c, 0, 64, 49
1, 668192, Control_c, 0, 64, 60
1, 668198, Note_off_c, 0, 50, 0
1, 668208, Control_c, 0, 64, 65
1, 668213, Note_off_c, 0, 66, 0
1, 668226, Control_c, 0, 64, 68
1, 668239, Note_on_c, 0, 67, 65
1, 668244, Control_c, 0, 64, 70
1, 668264, Control_c, 0, 64, 73
1, 668274, Note_on_c, 0, 55, 58
1, 668283, Control_c, 0, 64, 76
1, 668289, Note_off_c, 0, 67, 0
1, 668298, Note_on_c, 0, 69, 67
1, 668302, Control_c, 0, 64, 79
1, 668312, Note_off_c, 0, 55, 0
1, 668339, Control_c, 0, 64, 81
1, 668393, Control_c, 0, 64, 77
1, 668395, Note_off_c, 0, 69, 0
1, 668403, Note_on_c, 0, 67, 70
1, 668410, Control_c, 0, 64, 70
1, 668430, Control_c, 0, 64, 60
1, 668445, Note_on_c, 0, 59, 57
1, 668451, Control_c, 0, 64, 48
1, 668469, Control_c, 0, 64, 37
1, 668488, Control_c, 0, 64, 26
1, 668505, Control_c, 0, 64, 20
1, 668558, Note_off_c, 0, 67, 0
1, 668574, Note_off_c, 0, 59, 0
1, 668589, Note_on_c, 0, 62, 65
1, 668707, Note_off_c, 0, 62, 0
1, 668732, Note_on_c, 0, 67, 69
1, 668821, Note_off_c, 0, 67, 0
1, 668884, Note_on_c, 0, 71, 72
1, 668964, Note_off_c, 0, 71, 0
1, 669044, Note_on_c, 0, 69, 71
1, 669096, Note_off_c, 0, 69, 0
1, 669197, Note_on_c, 0, 69, 60
1, 669213, Note_on_c, 0, 66, 56
1, 669252, Note_off_c, 0, 69, 0
1, 669265, Note_off_c, 0, 66, 0
1, 669348, Note_on_c, 0, 72, 64
1, 669357, Note_on_c, 0, 62, 62
1, 669394, Note_off_c, 0, 62, 0
1, 669425, Note_off_c, 0, 72, 0
1, 669503, Note_on_c, 0, 66, 65
1, 669514, Note_on_c, 0, 60, 59
1, 669562, Note_off_c, 0, 60, 0
1, 669591, Note_off_c, 0, 66, 0
1, 669658, Note_on_c, 0, 69, 64
1, 669672, Note_on_c, 0, 59, 54
1, 669724, Note_off_c, 0, 69, 0
1, 669726, Note_off_c, 0, 59, 0
1, 669807, Note_on_c, 0, 72, 65
1, 669824, Note_on_c, 0, 57, 54
1, 669861, Note_off_c, 0, 57, 0
1, 669885, Note_off_c, 0, 72, 0
1, 669973, Note_on_c, 0, 71, 68
1, 669986, Note_on_c, 0, 55, 55
1, 670045, Note_off_c, 0, 55, 0
1, 670126, Note_on_c, 0, 59, 54
1, 670171, Note_off_c, 0, 59, 0
1, 670275, Note_on_c, 0, 62, 53
1, 670318, Note_off_c, 0, 62, 0
1, 670461, Note_off_c, 0, 71, 0
1, 670463, Note_on_c, 0, 67, 52
1, 670492, Note_off_c, 0, 67, 0
1, 670609, Note_on_c, 0, 67, 54
1, 670616, Note_on_c, 0, 71, 73
1, 670664, Note_off_c, 0, 67, 0
1, 670672, Note_off_c, 0, 71, 0
1, 670761, Note_on_c, 0, 62, 57
1, 670765, Note_on_c, 0, 74, 75
1, 670815, Note_off_c, 0, 62, 0
1, 670842, Note_off_c, 0, 74, 0
1, 670923, Note_on_c, 0, 79, 80
1, 670933, Note_on_c, 0, 59, 58
1, 670999, Note_off_c, 0, 59, 0
1, 671084, Note_on_c, 0, 55, 63
1, 671130, Note_off_c, 0, 55, 0
1, 671149, Note_off_c, 0, 79, 0
1, 671228, Note_on_c, 0, 74, 75
1, 671252, Note_on_c, 0, 59, 51
1, 671316, Note_off_c, 0, 59, 0
1, 671326, Note_off_c, 0, 74, 0
1, 671394, Note_on_c, 0, 71, 79
1, 671412, Note_on_c, 0, 62, 61
1, 671457, Note_off_c, 0, 62, 0
1, 671555, Note_on_c, 0, 67, 68
1, 671626, Note_off_c, 0, 67, 0
1, 671673, Note_off_c, 0, 71, 0
1, 671698, Note_on_c, 0, 66, 65
1, 671707, Note_on_c, 0, 69, 66
1, 671746, Note_off_c, 0, 66, 0
1, 671749, Note_off_c, 0, 69, 0
1, 671864, Note_on_c, 0, 67, 72
1, 671868, Note_on_c, 0, 71, 56
1, 671938, Note_off_c, 0, 71, 0
1, 672021, Note_on_c, 0, 69, 66
1, 672061, Note_off_c, 0, 67, 0
1, 672071, Note_off_c, 0, 69, 0
1, 672185, Note_on_c, 0, 67, 65
1, 672346, Note_on_c, 0, 66, 64
1, 672407, Note_off_c, 0, 66, 0
1, 672510, Note_on_c, 0, 64, 60
1, 672550, Note_off_c, 0, 64, 0
1, 672595, Note_off_c, 0, 67, 0
1, 672647, Note_on_c, 0, 71, 77
1, 672661, Note_on_c, 0, 62, 51
1, 672727, Note_off_c, 0, 62, 0
1, 672729, Note_off_c, 0, 71, 0
1, 672821, Note_on_c, 0, 76, 77
1, 672839, Note_on_c, 0, 61, 57
1, 672937, Note_off_c, 0, 76, 0
1, 672978, Note_on_c, 0, 74, 80
1, 673052, Note_off_c, 0, 74, 0
1, 673118, Note_on_c, 0, 73, 80
1, 673201, Note_off_c, 0, 73, 0
1, 673270, Note_on_c, 0, 71, 80
1, 673353, Note_off_c, 0, 71, 0
1, 673427, Note_on_c, 0, 69, 79
1, 673493, Note_off_c, 0, 61, 0
1, 673544, Note_off_c, 0, 69, 0
1, 673590, Note_on_c, 0, 67, 70
1, 673597, Note_on_c, 0, 64, 58
1, 673634, Note_off_c, 0, 67, 0
1, 673649, Note_off_c, 0, 64, 0
1, 673750, Note_on_c, 0, 69, 65
1, 673751, Note_on_c, 0, 66, 64
1, 673806, Note_off_c, 0, 69, 0
1, 673898, Note_on_c, 0, 67, 62
1, 673954, Note_off_c, 0, 67, 0
1, 673973, Note_off_c, 0, 66, 0
1, 674049, Note_on_c, 0, 66, 61
1, 674218, Note_on_c, 0, 64, 57
1, 674265, Note_off_c, 0, 64, 0
1, 674366, Note_on_c, 0, 62, 59
1, 674406, Note_off_c, 0, 66, 0
1, 674410, Note_off_c, 0, 62, 0
1, 674514, Note_on_c, 0, 61, 64
1, 674520, Note_on_c, 0, 76, 71
1, 674557, Note_off_c, 0, 61, 0
1, 674601, Note_off_c, 0, 76, 0
1, 674676, Note_on_c, 0, 74, 74
1, 674682, Note_on_c, 0, 59, 61
1, 674768, Note_off_c, 0, 74, 0
1, 674826, Note_on_c, 0, 73, 76
1, 674964, Note_off_c, 0, 73, 0
1, 674982, Note_on_c, 0, 71, 79
1, 675052, Note_off_c, 0, 71, 0
1, 675078, Note_off_c, 0, 59, 0
1, 675126, Note_on_c, 0, 69, 74
1, 675216, Note_off_c, 0, 69, 0
1, 675287, Note_on_c, 0, 67, 70
1, 675342, Note_off_c, 0, 67, 0
1, 675442, Note_on_c, 0, 69, 67
1, 675444, Note_on_c, 0, 66, 56
1, 675494, Note_off_c, 0, 66, 0
1, 675494, Note_off_c, 0, 69, 0
1, 675600, Note_on_c, 0, 67, 61
1, 675613, Note_on_c, 0, 64, 63
1, 675657, Note_off_c, 0, 67, 0
1, 675745, Note_on_c, 0, 66, 66
1, 675799, Note_off_c, 0, 66, 0
1, 675810, Note_off_c, 0, 64, 0
1, 675906, Note_on_c, 0, 64, 61
1, 676068, Note_on_c, 0, 62, 54
1, 676117, Note_off_c, 0, 62, 0
1, 676158, Note_off_c, 0, 64, 0
1, 676219, Note_on_c, 0, 61, 55
1, 676220, Note_on_c, 0, 66, 62
1, 676265, Note_off_c, 0, 61, 0
1, 676270, Note_off_c, 0, 66, 0
1, 676367, Note_on_c, 0, 67, 57
1, 676371, Note_on_c, 0, 59, 61
1, 676422, Note_off_c, 0, 67, 0
1, 676427, Note_off_c, 0, 59, 0
1, 676532, Note_on_c, 0, 64, 61
1, 676534, Note_on_c, 0, 61, 58
1, 676584, Note_off_c, 0, 61, 0
1, 676585, Note_off_c, 0, 64, 0
1, 676683, Note_on_c, 0, 71, 64
1, 676684, Note_on_c, 0, 62, 56
1, 676735, Note_off_c, 0, 62, 0
1, 676741, Note_off_c, 0, 71, 0
1, 676824, Note_on_c, 0, 69, 64
1, 676836, Note_on_c, 0, 61, 56
1, 676875, Note_off_c, 0, 69, 0
1, 676897, Note_off_c, 0, 61, 0
1, 676980, Note_on_c, 0, 67, 67
1, 676999, Note_on_c, 0, 59, 53
1, 677054, Note_off_c, 0, 59, 0
1, 677054, Note_off_c, 0, 67, 0
1, 677130, Note_on_c, 0, 69, 70
1, 677145, Note_on_c, 0, 57, 57
1, 677193, Note_off_c, 0, 69, 0
1, 677201, Note_off_c, 0, 57, 0
1, 677275, Note_on_c, 0, 71, 72
1, 677295, Note_on_c, 0, 55, 54
1, 677341, Note_off_c, 0, 55, 0
1, 677348, Note_off_c, 0, 71, 0
1, 677432, Note_on_c, 0, 64, 73
1, 677444, Note_on_c, 0, 61, 58
1, 677506, Note_off_c, 0, 61, 0
1, 677508, Note_off_c, 0, 64, 0
1, 677581, Note_on_c, 0, 74, 78
1, 677592, Note_on_c, 0, 59, 58
1, 677641, Note_off_c, 0, 59, 0
1, 677673, Note_off_c, 0, 74, 0
1, 677730, Note_on_c, 0, 73, 76
1, 677747, Note_on_c, 0, 57, 63
1, 677793, Note_off_c, 0, 57, 0
1, 677816, Note_off_c, 0, 73, 0
1, 677878, Note_on_c, 0, 71, 81
1, 677889, Note_on_c, 0, 55, 63
1, 677953, Note_off_c, 0, 55, 0
1, 677972, Note_off_c, 0, 71, 0
1, 678034, Note_on_c, 0, 73, 79
1, 678037, Note_on_c, 0, 54, 67
1, 678085, Note_off_c, 0, 54, 0
1, 678129, Note_off_c, 0, 73, 0
1, 678181, Note_on_c, 0, 74, 82
1, 678186, Note_on_c, 0, 52, 66
1, 678226, Note_off_c, 0, 52, 0
1, 678266, Note_off_c, 0, 74, 0
1, 678325, Note_on_c, 0, 73, 78
1, 678334, Note_on_c, 0, 57, 63
1, 678397, Note_off_c, 0, 57, 0
1, 678416, Note_off_c, 0, 73, 0
1, 678477, Note_on_c, 0, 76, 81
1, 678482, Note_on_c, 0, 55, 58
1, 678529, Note_off_c, 0, 55, 0
1, 678553, Note_off_c, 0, 76, 0
1, 678613, Note_on_c, 0, 78, 81
1, 678620, Control_c, 0, 67, 76
1, 678624, Note_on_c, 0, 54, 61
1, 678670, Note_off_c, 0, 54, 0
1, 678685, Note_off_c, 0, 78, 0
1, 678764, Note_on_c, 0, 79, 82
1, 678773, Note_on_c, 0, 52, 55
1, 678844, Note_off_c, 0, 52, 0
1, 678860, Note_off_c, 0, 79, 0
1, 678907, Note_on_c, 0, 78, 77
1, 678948, Note_on_c, 0, 54, 50
1, 678990, Note_off_c, 0, 54, 0
1, 679010, Note_off_c, 0, 78, 0
1, 679075, Note_on_c, 0, 76, 73
1, 679085, Note_on_c, 0, 55, 49
1, 679132, Note_off_c, 0, 76, 0
1, 679134, Note_off_c, 0, 55, 0
1, 679240, Control_c, 0, 64, 25
1, 679253, Note_on_c, 0, 76, 63
1, 679257, Control_c, 0, 64, 33
1, 679273, Note_on_c, 0, 54, 54
1, 679279, Control_c, 0, 64, 45
1, 679296, Control_c, 0, 64, 56
1, 679308, Note_on_c, 0, 74, 71
1, 679314, Control_c, 0, 64, 62
1, 679316, Note_off_c, 0, 76, 0
1, 679321, Note_off_c, 0, 54, 0
1, 679333, Control_c, 0, 64, 65
1, 679352, Control_c, 0, 64, 68
1, 679361, Note_off_c, 0, 74, 0
1, 679371, Control_c, 0, 64, 70
1, 679373, Note_on_c, 0, 73, 64
1, 679389, Control_c, 0, 64, 72
1, 679409, Control_c, 0, 64, 74
1, 679426, Control_c, 0, 64, 76
1, 679428, Note_on_c, 0, 57, 46
1, 679432, Note_off_c, 0, 73, 0
1, 679434, Note_on_c, 0, 74, 58
1, 679462, Note_off_c, 0, 57, 0
1, 679463, Control_c, 0, 64, 73
1, 679482, Note_off_c, 0, 74, 0
1, 679482, Control_c, 0, 64, 66
1, 679494, Note_on_c, 0, 76, 70
1, 679498, Control_c, 0, 64, 55
1, 679519, Control_c, 0, 64, 42
1, 679537, Control_c, 0, 64, 29
1, 679557, Control_c, 0, 64, 18
1, 679581, Note_on_c, 0, 62, 43
1, 679584, Note_off_c, 0, 76, 0
1, 679611, Note_on_c, 0, 74, 62
1, 679619, Note_off_c, 0, 62, 0
1, 679763, Note_on_c, 0, 66, 56
1, 679807, Note_off_c, 0, 66, 0
1, 679911, Note_on_c, 0, 69, 60
1, 679950, Note_off_c, 0, 74, 0
1, 679958, Note_off_c, 0, 69, 0
1, 680072, Note_on_c, 0, 74, 64
1, 680121, Note_off_c, 0, 74, 0
1, 680223, Note_on_c, 0, 69, 59
1, 680282, Note_off_c, 0, 69, 0
1, 680363, Note_on_c, 0, 66, 63
1, 680398, Note_off_c, 0, 66, 0
1, 680516, Note_on_c, 0, 66, 69
1, 680544, Note_on_c, 0, 62, 57
1, 680585, Note_off_c, 0, 62, 0
1, 680680, Note_off_c, 0, 66, 0
1, 680684, Note_on_c, 0, 69, 82
1, 680688, Note_on_c, 0, 60, 64
1, 680739, Note_off_c, 0, 60, 0
1, 680846, Note_on_c, 0, 59, 65
1, 680904, Note_off_c, 0, 59, 0
1, 680969, Note_off_c, 0, 69, 0
1, 681000, Note_on_c, 0, 74, 75
1, 681001, Note_on_c, 0, 57, 71
1, 681050, Note_off_c, 0, 57, 0
1, 681078, Control_c, 0, 64, 23
1, 681094, Note_off_c, 0, 74, 0
1, 681097, Control_c, 0, 64, 31
1, 681114, Control_c, 0, 64, 43
1, 681131, Control_c, 0, 64, 55
1, 681151, Control_c, 0, 64, 63
1, 681169, Control_c, 0, 64, 65
1, 681171, Note_on_c, 0, 73, 69
1, 681179, Note_on_c, 0, 56, 57
1, 681188, Control_c, 0, 64, 68
1, 681224, Note_off_c, 0, 73, 0
1, 681225, Control_c, 0, 64, 70
1, 681230, Note_off_c, 0, 56, 0
1, 681248, Note_on_c, 0, 74, 71
1, 681281, Control_c, 0, 64, 65
1, 681291, Note_off_c, 0, 74, 0
1, 681293, Note_on_c, 0, 76, 68
1, 681298, Control_c, 0, 64, 59
1, 681306, Note_on_c, 0, 59, 45
1, 681318, Control_c, 0, 64, 51
1, 681335, Control_c, 0, 64, 43
1, 681343, Note_off_c, 0, 59, 0
1, 681356, Control_c, 0, 64, 33
1, 681374, Control_c, 0, 64, 25
1, 681385, Note_off_c, 0, 76, 0
1, 681391, Control_c, 0, 64, 21
1, 681409, Note_on_c, 0, 74, 65
1, 681455, Note_on_c, 0, 62, 55
1, 681497, Note_off_c, 0, 62, 0
1, 681624, Note_on_c, 0, 65, 53
1, 681665, Note_off_c, 0, 65, 0
1, 681791, Note_on_c, 0, 71, 61
1, 681839, Note_off_c, 0, 74, 0
1, 681847, Note_off_c, 0, 71, 0
1, 681955, Note_on_c, 0, 74, 55
1, 682008, Note_off_c, 0, 74, 0
1, 682097, Note_on_c, 0, 71, 66
1, 682162, Note_off_c, 0, 71, 0
1, 682257, Note_on_c, 0, 65, 66
1, 682292, Note_off_c, 0, 65, 0
1, 682397, Note_on_c, 0, 68, 76
1, 682431, Note_on_c, 0, 64, 57
1, 682480, Note_off_c, 0, 64, 0
1, 682561, Note_on_c, 0, 71, 83
1, 682564, Note_on_c, 0, 62, 57
1, 682566, Note_off_c, 0, 68, 0
1, 682620, Note_off_c, 0, 62, 0
1, 682710, Note_on_c, 0, 61, 66
1, 682780, Note_off_c, 0, 61, 0
1, 682862, Note_on_c, 0, 59, 68
1, 682871, Note_off_c, 0, 71, 0
1, 682872, Note_on_c, 0, 74, 78
1, 682926, Note_off_c, 0, 59, 0
1, 682977, Note_off_c, 0, 74, 0
1, 683025, Control_c, 0, 64, 27
1, 683032, Note_on_c, 0, 57, 66
1, 683040, Note_on_c, 0, 73, 76
1, 683044, Control_c, 0, 64, 39
1, 683061, Control_c, 0, 64, 53
1, 683081, Control_c, 0, 64, 63
1, 683087, Note_off_c, 0, 57, 0
1, 683098, Control_c, 0, 64, 66
1, 683102, Note_off_c, 0, 73, 0
1, 683104, Note_on_c, 0, 74, 77
1, 683117, Control_c, 0, 64, 70
1, 683134, Control_c, 0, 64, 73
1, 683154, Control_c, 0, 64, 77
1, 683172, Control_c, 0, 64, 81
1, 683176, Note_on_c, 0, 76, 79
1, 683179, Note_on_c, 0, 62, 61
1, 683182, Note_off_c, 0, 74, 0
1, 683191, Control_c, 0, 64, 84
1, 683228, Note_off_c, 0, 62, 0
1, 683248, Control_c, 0, 64, 82
1, 683266, Control_c, 0, 64, 76
1, 683278, Note_on_c, 0, 74, 80
1, 683283, Control_c, 0, 64, 66
1, 683302, Control_c, 0, 64, 55
1, 683304, Note_off_c, 0, 76, 0
1, 683320, Control_c, 0, 64, 46
1, 683326, Note_on_c, 0, 66, 64
1, 683339, Control_c, 0, 64, 36
1, 683358, Control_c, 0, 64, 27
1, 683376, Control_c, 0, 64, 19
1, 683386, Note_off_c, 0, 66, 0
1, 683441, Note_off_c, 0, 74, 0
1, 683469, Note_on_c, 0, 69, 79
1, 683617, Note_off_c, 0, 69, 0
1, 683629, Note_on_c, 0, 74, 80
1, 683722, Note_off_c, 0, 74, 0
1, 683778, Note_on_c, 0, 78, 77
1, 683863, Note_off_c, 0, 78, 0
1, 683935, Note_on_c, 0, 76, 77
1, 683999, Note_off_c, 0, 76, 0
1, 684092, Note_on_c, 0, 76, 67
1, 684111, Note_on_c, 0, 73, 56
1, 684152, Note_off_c, 0, 76, 0
1, 684157, Note_off_c, 0, 73, 0
1, 684240, Note_on_c, 0, 79, 70
1, 684246, Note_on_c, 0, 69, 62
1, 684283, Note_off_c, 0, 69, 0
1, 684324, Note_off_c, 0, 79, 0
1, 684392, Note_on_c, 0, 73, 73
1, 684396, Note_on_c, 0, 67, 62
1, 684450, Note_off_c, 0, 67, 0
1, 684471, Note_off_c, 0, 73, 0
1, 684548, Note_on_c, 0, 76, 67
1, 684562, Note_on_c, 0, 66, 49
1, 684617, Note_off_c, 0, 66, 0
1, 684622, Note_off_c, 0, 76, 0
1, 684696, Note_on_c, 0, 79, 68
1, 684712, Note_on_c, 0, 64, 49
1, 684745, Note_off_c, 0, 64, 0
1, 684784, Note_off_c, 0, 79, 0
1, 684862, Note_on_c, 0, 78, 73
1, 684870, Note_on_c, 0, 62, 57
1, 684921, Note_off_c, 0, 62, 0
1, 685017, Note_on_c, 0, 57, 56
1, 685071, Note_off_c, 0, 57, 0
1, 685175, Note_on_c, 0, 54, 60
1, 685206, Note_off_c, 0, 54, 0
1, 685324, Note_on_c, 0, 50, 54
1, 685372, Note_off_c, 0, 50, 0
1, 685473, Note_on_c, 0, 74, 69
1, 685483, Note_on_c, 0, 45, 52
1, 685484, Note_off_c, 0, 78, 0
1, 685537, Note_off_c, 0, 45, 0
1, 685546, Note_off_c, 0, 74, 0
1, 685630, Note_on_c, 0, 42, 48
1, 685633, Note_on_c, 0, 69, 63
1, 685675, Note_off_c, 0, 42, 0
1, 685692, Note_off_c, 0, 69, 0
1, 685795, Note_on_c, 0, 66, 64
1, 685800, Note_on_c, 0, 38, 55
1, 685852, Note_off_c, 0, 66, 0
1, 685855, Note_off_c, 0, 38, 0
1, 685941, Note_on_c, 0, 62, 58
1, 685956, Note_on_c, 0, 42, 50
1, 685986, Note_off_c, 0, 62, 0
1, 685997, Note_off_c, 0, 42, 0
1, 686098, Note_on_c, 0, 66, 58
1, 686103, Note_on_c, 0, 45, 40
1, 686136, Note_off_c, 0, 66, 0
1, 686140, Note_off_c, 0, 45, 0
1, 686264, Note_on_c, 0, 69, 48
1, 686266, Note_on_c, 0, 50, 47
1, 686324, Note_off_c, 0, 69, 0
1, 686425, Note_on_c, 0, 73, 52
1, 686486, Note_off_c, 0, 73, 0
1, 686496, Note_off_c, 0, 50, 0
1, 686612, Note_on_c, 0, 74, 49
1, 686655, Note_off_c, 0, 74, 0
1, 686829, Note_on_c, 0, 50, 65
1, 686868, Note_off_c, 0, 50, 0
1, 686971, Note_on_c, 0, 52, 66
1, 687012, Note_off_c, 0, 52, 0
1, 687114, Note_on_c, 0, 54, 68
1, 687173, Note_off_c, 0, 54, 0
1, 687199, Control_c, 0, 67, 72
1, 687279, Note_on_c, 0, 55, 68
1, 687331, Note_off_c, 0, 55, 0
1, 687375, Control_c, 0, 67, 67
1, 687442, Note_on_c, 0, 57, 69
1, 687490, Note_off_c, 0, 57, 0
1, 687590, Note_on_c, 0, 59, 66
1, 687627, Note_off_c, 0, 59, 0
1, 687756, Note_on_c, 0, 81, 72
1, 687761, Note_on_c, 0, 60, 60
1, 687809, Note_off_c, 0, 60, 0
1, 687822, Note_off_c, 0, 81, 0
1, 687902, Note_on_c, 0, 50, 68
1, 687912, Note_on_c, 0, 79, 78
1, 687944, Note_off_c, 0, 50, 0
1, 687973, Note_off_c, 0, 79, 0
1, 688049, Note_on_c, 0, 60, 59
1, 688056, Note_on_c, 0, 78, 74
1, 688129, Note_off_c, 0, 78, 0
1, 688203, Note_on_c, 0, 76, 81
1, 688278, Note_off_c, 0, 76, 0
1, 688329, Note_off_c, 0, 60, 0
1, 688363, Note_on_c, 0, 74, 77
1, 688376, Note_on_c, 0, 59, 68
1, 688422, Note_off_c, 0, 59, 0
1, 688437, Note_off_c, 0, 74, 0
1, 688513, Note_on_c, 0, 72, 72
1, 688517, Note_on_c, 0, 57, 69
1, 688586, Note_off_c, 0, 72, 0
1, 688589, Note_off_c, 0, 57, 0
1, 688666, Note_on_c, 0, 55, 76
1, 688673, Note_on_c, 0, 71, 73
1, 688738, Note_off_c, 0, 55, 0
1, 688740, Note_off_c, 0, 71, 0
1, 688813, Note_on_c, 0, 69, 73
1, 688815, Note_on_c, 0, 57, 72
1, 688879, Note_off_c, 0, 69, 0
1, 688881, Note_off_c, 0, 57, 0
1, 688967, Note_on_c, 0, 59, 75
1, 688970, Note_on_c, 0, 67, 75
1, 689028, Note_off_c, 0, 59, 0
1, 689074, Note_off_c, 0, 67, 0
1, 689121, Note_on_c, 0, 60, 79
1, 689183, Note_off_c, 0, 60, 0
1, 689277, Note_on_c, 0, 62, 75
1, 689350, Note_off_c, 0, 62, 0
1, 689429, Note_on_c, 0, 64, 73
1, 689482, Note_off_c, 0, 64, 0
1, 689582, Note_on_c, 0, 86, 81
1, 689605, Note_on_c, 0, 65, 65
1, 689667, Note_off_c, 0, 65, 0
1, 689673, Note_off_c, 0, 86, 0
1, 689745, Note_on_c, 0, 84, 87
1, 689754, Note_on_c, 0, 55, 71
1, 689788, Note_off_c, 0, 55, 0
1, 689818, Note_off_c, 0, 84, 0
1, 689892, Note_on_c, 0, 83, 82
1, 689896, Note_on_c, 0, 65, 71
1, 689972, Note_off_c, 0, 83, 0
1, 690045, Note_on_c, 0, 81, 87
1, 690115, Note_off_c, 0, 81, 0
1, 690183, Note_off_c, 0, 65, 0
1, 690207, Note_on_c, 0, 79, 82
1, 690219, Note_on_c, 0, 64, 69
1, 690269, Note_off_c, 0, 64, 0
1, 690282, Note_off_c, 0, 79, 0
1, 690353, Note_on_c, 0, 62, 70
1, 690354, Note_on_c, 0, 77, 79
1, 690427, Note_off_c, 0, 62, 0
1, 690429, Note_off_c, 0, 77, 0
1, 690514, Note_on_c, 0, 76, 79
1, 690516, Note_on_c, 0, 60, 73
1, 690599, Note_off_c, 0, 76, 0
1, 690654, Note_on_c, 0, 74, 80
1, 690726, Note_off_c, 0, 74, 0
1, 690804, Note_on_c, 0, 72, 80
1, 690882, Note_off_c, 0, 72, 0
1, 690955, Note_on_c, 0, 71, 81
1, 691030, Note_off_c, 0, 71, 0
1, 691090, Note_off_c, 0, 60, 0
1, 691098, Note_on_c, 0, 69, 82
1, 691142, Note_on_c, 0, 64, 70
1, 691158, Note_off_c, 0, 69, 0
1, 691193, Note_off_c, 0, 64, 0
1, 691282, Note_on_c, 0, 67, 71
1, 691358, Note_off_c, 0, 67, 0
1, 691422, Note_on_c, 0, 72, 75
1, 691425, Note_on_c, 0, 66, 74
1, 691489, Note_off_c, 0, 72, 0
1, 691493, Note_off_c, 0, 66, 0
1, 691567, Note_on_c, 0, 71, 72
1, 691631, Note_off_c, 0, 71, 0
1, 691717, Note_on_c, 0, 75, 80
1, 691740, Note_on_c, 0, 69, 63
1, 691783, Note_off_c, 0, 69, 0
1, 691878, Note_on_c, 0, 76, 82
1, 691892, Note_on_c, 0, 67, 59
1, 691899, Note_off_c, 0, 75, 0
1, 691944, Note_off_c, 0, 67, 0
1, 692028, Note_on_c, 0, 66, 66
1, 692069, Note_off_c, 0, 76, 0
1, 692080, Note_off_c, 0, 66, 0
1, 692177, Note_on_c, 0, 70, 81
1, 692202, Note_on_c, 0, 64, 59
1, 692248, Note_off_c, 0, 64, 0
1, 692344, Note_on_c, 0, 71, 83
1, 692355, Note_off_c, 0, 70, 0
1, 692361, Note_on_c, 0, 63, 61
1, 692419, Note_off_c, 0, 63, 0
1, 692501, Note_on_c, 0, 61, 68
1, 692538, Note_off_c, 0, 71, 0
1, 692542, Note_off_c, 0, 61, 0
1, 692655, Note_on_c, 0, 63, 74
1, 692666, Note_on_c, 0, 59, 67
1, 692723, Note_off_c, 0, 59, 0
1, 692811, Note_on_c, 0, 66, 77
1, 692825, Note_on_c, 0, 57, 57
1, 692842, Note_off_c, 0, 63, 0
1, 692918, Note_off_c, 0, 57, 0
1, 692979, Note_on_c, 0, 55, 63
1, 693032, Note_off_c, 0, 55, 0
1, 693068, Note_off_c, 0, 66, 0
1, 693126, Note_on_c, 0, 54, 66
1, 693130, Note_on_c, 0, 69, 74
1, 693166, Note_off_c, 0, 54, 0
1, 693206, Note_off_c, 0, 69, 0
1, 693282, Note_on_c, 0, 72, 76
1, 693286, Note_on_c, 0, 52, 53
1, 693345, Note_off_c, 0, 52, 0
1, 693369, Note_off_c, 0, 72, 0
1, 693430, Note_on_c, 0, 71, 71
1, 693443, Note_on_c, 0, 51, 57
1, 693497, Note_off_c, 0, 71, 0
1, 693499, Note_off_c, 0, 51, 0
1, 693577, Note_on_c, 0, 69, 70
1, 693583, Note_on_c, 0, 49, 61
1, 693621, Note_off_c, 0, 49, 0
1, 693628, Note_off_c, 0, 69, 0
1, 693725, Note_on_c, 0, 67, 67
1, 693741, Note_on_c, 0, 47, 57
1, 693792, Note_off_c, 0, 47, 0
1, 693800, Note_off_c, 0, 67, 0
1, 693869, Note_on_c, 0, 69, 68
1, 693887, Note_on_c, 0, 48, 56
1, 693936, Note_off_c, 0, 48, 0
1, 693950, Note_off_c, 0, 69, 0
1, 694029, Note_on_c, 0, 66, 69
1, 694032, Note_on_c, 0, 45, 69
1, 694103, Note_off_c, 0, 45, 0
1, 694103, Note_off_c, 0, 66, 0
1, 694206, Note_on_c, 0, 43, 84
1, 694210, Note_on_c, 0, 64, 64
1, 694286, Note_off_c, 0, 64, 0
1, 694363, Note_on_c, 0, 67, 75
1, 694414, Note_off_c, 0, 67, 0
1, 694520, Note_on_c, 0, 71, 81
1, 694612, Note_off_c, 0, 71, 0
1, 694683, Note_on_c, 0, 76, 79
1, 694761, Note_off_c, 0, 76, 0
1, 694785, Note_off_c, 0, 43, 0
1, 694832, Note_on_c, 0, 79, 78
1, 694853, Note_on_c, 0, 47, 66
1, 694900, Note_off_c, 0, 47, 0
1, 694914, Note_off_c, 0, 79, 0
1, 694991, Note_on_c, 0, 83, 75
1, 694996, Note_on_c, 0, 52, 70
1, 695063, Note_off_c, 0, 52, 0
1, 695069, Note_off_c, 0, 83, 0
1, 695146, Note_on_c, 0, 79, 72
1, 695147, Note_on_c, 0, 55, 67
1, 695194, Note_off_c, 0, 55, 0
1, 695223, Note_off_c, 0, 79, 0
1, 695289, Note_on_c, 0, 59, 71
1, 695290, Note_on_c, 0, 76, 72
1, 695347, Note_off_c, 0, 59, 0
1, 695356, Note_off_c, 0, 76, 0
1, 695433, Note_on_c, 0, 63, 76
1, 695447, Note_on_c, 0, 71, 71
1, 695490, Note_on_c, 0, 72, 17
1, 695490, Note_off_c, 0, 72, 0
1, 695513, Note_off_c, 0, 71, 0
1, 695515, Note_off_c, 0, 63, 0
1, 695592, Note_on_c, 0, 67, 75
1, 695596, Note_on_c, 0, 64, 79
1, 695629, Note_off_c, 0, 64, 0
1, 695669, Note_off_c, 0, 67, 0
1, 695735, Note_on_c, 0, 66, 76
1, 695829, Note_off_c, 0, 66, 0
1, 695901, Note_on_c, 0, 64, 79
1, 695902, Note_on_c, 0, 43, 86
1, 695987, Note_off_c, 0, 64, 0
1, 695994, Note_off_c, 0, 43, 0
1, 696089, Note_on_c, 0, 45, 92
1, 696092, Note_on_c, 0, 65, 74
1, 696180, Note_off_c, 0, 65, 0
1, 696244, Note_on_c, 0, 69, 75
1, 696297, Note_off_c, 0, 69, 0
1, 696397, Note_on_c, 0, 72, 80
1, 696483, Note_off_c, 0, 72, 0
1, 696559, Note_on_c, 0, 77, 81
1, 696640, Note_off_c, 0, 77, 0
1, 696701, Note_off_c, 0, 45, 0
1, 696711, Note_on_c, 0, 81, 80
1, 696734, Note_on_c, 0, 48, 78
1, 696795, Note_off_c, 0, 81, 0
1, 696806, Note_off_c, 0, 48, 0
1, 696877, Note_on_c, 0, 53, 79
1, 696877, Note_on_c, 0, 84, 81
1, 696945, Note_off_c, 0, 53, 0
1, 696963, Note_off_c, 0, 84, 0
1, 697032, Note_on_c, 0, 81, 79
1, 697039, Note_on_c, 0, 57, 79
1, 697043, Control_c, 0, 64, 15
1, 697102, Note_off_c, 0, 57, 0
1, 697111, Note_off_c, 0, 81, 0
1, 697182, Note_on_c, 0, 77, 80
1, 697184, Note_on_c, 0, 60, 78
1, 697248, Note_off_c, 0, 77, 0
1, 697262, Note_off_c, 0, 60, 0
1, 697322, Note_on_c, 0, 63, 79
1, 697329, Note_on_c, 0, 72, 81
1, 697397, Note_off_c, 0, 72, 0
1, 697403, Note_off_c, 0, 63, 0
1, 697480, Note_on_c, 0, 69, 83
1, 697485, Note_on_c, 0, 64, 79
1, 697511, Note_off_c, 0, 64, 0
1, 697560, Note_off_c, 0, 69, 0
1, 697630, Note_on_c, 0, 67, 80
1, 697720, Note_off_c, 0, 67, 0
1, 697790, Note_on_c, 0, 46, 80
1, 697791, Note_on_c, 0, 66, 79
1, 697863, Note_off_c, 0, 46, 0
1, 697885, Note_off_c, 0, 66, 0
1, 697955, Note_on_c, 0, 67, 77
1, 697965, Note_on_c, 0, 47, 88
1, 698021, Note_off_c, 0, 67, 0
1, 698116, Note_on_c, 0, 71, 75
1, 698190, Note_off_c, 0, 71, 0
1, 698273, Note_on_c, 0, 76, 79
1, 698343, Note_off_c, 0, 76, 0
1, 698432, Note_on_c, 0, 79, 82
1, 698500, Note_off_c, 0, 79, 0
1, 698581, Note_on_c, 0, 76, 77
1, 698600, Note_on_c, 0, 49, 71
1, 698610, Note_off_c, 0, 47, 0
1, 698669, Note_off_c, 0, 76, 0
1, 698671, Note_off_c, 0, 49, 0
1, 698738, Note_on_c, 0, 84, 84
1, 698743, Note_on_c, 0, 51, 72
1, 698817, Note_off_c, 0, 51, 0
1, 698830, Note_off_c, 0, 84, 0
1, 698890, Note_on_c, 0, 83, 81
1, 698900, Note_on_c, 0, 52, 70
1, 698980, Note_off_c, 0, 52, 0
1, 698988, Note_off_c, 0, 83, 0
1, 699034, Note_on_c, 0, 54, 65
1, 699037, Note_on_c, 0, 81, 81
1, 699103, Note_off_c, 0, 81, 0
1, 699113, Note_off_c, 0, 54, 0
1, 699190, Note_on_c, 0, 79, 82
1, 699195, Note_on_c, 0, 55, 68
1, 699255, Note_off_c, 0, 55, 0
1, 699271, Note_off_c, 0, 79, 0
1, 699344, Note_on_c, 0, 78, 82
1, 699348, Note_on_c, 0, 57, 69
1, 699415, Note_off_c, 0, 57, 0
1, 699425, Note_off_c, 0, 78, 0
1, 699488, Note_on_c, 0, 76, 79
1, 699502, Note_on_c, 0, 55, 63
1, 699565, Note_off_c, 0, 55, 0
1, 699581, Note_off_c, 0, 76, 0
1, 699649, Note_on_c, 0, 54, 64
1, 699649, Note_on_c, 0, 75, 79
1, 699695, Note_off_c, 0, 54, 0
1, 699734, Note_off_c, 0, 75, 0
1, 699806, Note_on_c, 0, 55, 64
1, 699806, Note_on_c, 0, 76, 79
1, 699855, Note_off_c, 0, 55, 0
1, 699880, Note_off_c, 0, 76, 0
1, 699954, Note_on_c, 0, 79, 80
1, 699958, Note_on_c, 0, 52, 66
1, 700006, Note_off_c, 0, 52, 0
1, 700041, Note_off_c, 0, 79, 0
1, 700104, Note_on_c, 0, 76, 74
1, 700108, Note_on_c, 0, 55, 57
1, 700186, Note_off_c, 0, 76, 0
1, 700188, Note_off_c, 0, 55, 0
1, 700265, Note_on_c, 0, 71, 67
1, 700270, Note_on_c, 0, 59, 63
1, 700319, Note_off_c, 0, 59, 0
1, 700323, Note_off_c, 0, 71, 0
1, 700416, Note_on_c, 0, 67, 64
1, 700434, Note_on_c, 0, 64, 54
1, 700489, Note_off_c, 0, 67, 0
1, 700491, Note_off_c, 0, 64, 0
1, 700582, Note_on_c, 0, 66, 66
1, 700584, Note_on_c, 0, 63, 59
1, 700631, Note_off_c, 0, 63, 0
1, 700631, Note_off_c, 0, 66, 0
1, 700737, Note_on_c, 0, 67, 60
1, 700753, Note_on_c, 0, 64, 54
1, 700778, Note_off_c, 0, 67, 0
1, 700784, Note_off_c, 0, 64, 0
1, 700884, Note_on_c, 0, 64, 68
1, 700896, Note_on_c, 0, 67, 62
1, 700932, Note_off_c, 0, 64, 0
1, 700936, Note_off_c, 0, 67, 0
1, 701033, Note_on_c, 0, 67, 61
1, 701045, Note_on_c, 0, 64, 55
1, 701076, Note_off_c, 0, 64, 0
1, 701092, Note_off_c, 0, 67, 0
1, 701189, Control_c, 0, 67, 71
1, 701191, Note_on_c, 0, 71, 72
1, 701198, Note_on_c, 0, 59, 62
1, 701238, Note_off_c, 0, 59, 0
1, 701248, Note_off_c, 0, 71, 0
1, 701301, Control_c, 0, 67, 75
1, 701337, Note_on_c, 0, 55, 66
1, 701337, Note_on_c, 0, 76, 81
1, 701373, Note_off_c, 0, 55, 0
1, 701423, Note_off_c, 0, 76, 0
1, 701486, Note_on_c, 0, 75, 76
1, 701490, Note_on_c, 0, 59, 68
1, 701554, Note_off_c, 0, 59, 0
1, 701568, Note_off_c, 0, 75, 0
1, 701657, Note_on_c, 0, 76, 70
1, 701669, Note_on_c, 0, 48, 71
1, 701754, Note_off_c, 0, 76, 0
1, 701806, Note_on_c, 0, 74, 70
1, 701849, Control_c, 0, 67, 71
1, 701886, Note_off_c, 0, 74, 0
1, 701957, Note_on_c, 0, 72, 73
1, 702049, Note_off_c, 0, 72, 0
1, 702107, Note_on_c, 0, 71, 80
1, 702152, Note_off_c, 0, 48, 0
1, 702175, Note_off_c, 0, 71, 0
1, 702254, Note_on_c, 0, 69, 77
1, 702337, Note_off_c, 0, 69, 0
1, 702412, Note_on_c, 0, 67, 75
1, 702424, Note_on_c, 0, 64, 64
1, 702462, Note_off_c, 0, 67, 0
1, 702467, Note_off_c, 0, 64, 0
1, 702562, Note_on_c, 0, 66, 68
1, 702574, Note_on_c, 0, 69, 65
1, 702639, Note_off_c, 0, 69, 0
1, 702718, Note_on_c, 0, 67, 64
1, 702761, Note_off_c, 0, 66, 0
1, 702772, Note_off_c, 0, 67, 0
1, 702877, Note_on_c, 0, 66, 60
1, 703044, Note_on_c, 0, 64, 46
1, 703084, Note_off_c, 0, 64, 0
1, 703177, Note_on_c, 0, 62, 52
1, 703215, Note_off_c, 0, 62, 0
1, 703283, Note_off_c, 0, 66, 0
1, 703336, Note_on_c, 0, 60, 58
1, 703347, Note_on_c, 0, 69, 66
1, 703386, Note_off_c, 0, 60, 0
1, 703423, Note_off_c, 0, 69, 0
1, 703502, Note_on_c, 0, 74, 74
1, 703519, Note_on_c, 0, 59, 53
1, 703618, Note_off_c, 0, 74, 0
1, 703659, Note_on_c, 0, 72, 77
1, 703735, Note_off_c, 0, 72, 0
1, 703802, Note_on_c, 0, 71, 75
1, 703892, Note_off_c, 0, 71, 0
1, 703922, Note_off_c, 0, 59, 0
1, 703957, Note_on_c, 0, 69, 79
1, 704021, Note_off_c, 0, 69, 0
1, 704107, Note_on_c, 0, 67, 70
1, 704162, Note_off_c, 0, 67, 0
1, 704258, Note_on_c, 0, 69, 68
1, 704265, Note_on_c, 0, 66, 59
1, 704311, Note_off_c, 0, 66, 0
1, 704316, Note_off_c, 0, 69, 0
1, 704423, Note_on_c, 0, 67, 66
1, 704432, Note_on_c, 0, 64, 64
1, 704477, Note_off_c, 0, 67, 0
1, 704572, Note_on_c, 0, 66, 69
1, 704620, Note_off_c, 0, 66, 0
1, 704648, Note_off_c, 0, 64, 0
1, 704725, Note_on_c, 0, 64, 62
1, 704901, Note_on_c, 0, 62, 54
1, 704954, Note_off_c, 0, 62, 0
1, 705057, Note_on_c, 0, 60, 53
1, 705100, Note_off_c, 0, 60, 0
1, 705115, Note_off_c, 0, 64, 0
1, 705203, Note_on_c, 0, 59, 65
1, 705209, Note_on_c, 0, 74, 70
1, 705252, Note_off_c, 0, 59, 0
1, 705285, Note_off_c, 0, 74, 0
1, 705369, Note_on_c, 0, 72, 78
1, 705393, Note_on_c, 0, 57, 54
1, 705458, Note_off_c, 0, 72, 0
1, 705517, Note_on_c, 0, 71, 74
1, 705599, Note_off_c, 0, 71, 0
1, 705675, Note_on_c, 0, 69, 77
1, 705738, Note_off_c, 0, 69, 0
1, 705818, Note_on_c, 0, 67, 72
1, 705879, Note_off_c, 0, 57, 0
1, 705900, Note_off_c, 0, 67, 0
1, 705968, Note_on_c, 0, 66, 67
1, 705983, Note_on_c, 0, 59, 60
1, 706024, Note_off_c, 0, 66, 0
1, 706029, Note_off_c, 0, 59, 0
1, 706126, Note_on_c, 0, 64, 62
1, 706134, Note_on_c, 0, 60, 56
1, 706173, Note_off_c, 0, 64, 0
1, 706184, Note_off_c, 0, 60, 0
1, 706290, Note_on_c, 0, 66, 65
1, 706294, Note_on_c, 0, 62, 52
1, 706343, Note_off_c, 0, 62, 0
1, 706344, Note_off_c, 0, 66, 0
1, 706432, Note_on_c, 0, 64, 67
1, 706497, Note_off_c, 0, 64, 0
1, 706576, Note_on_c, 0, 66, 74
1, 706593, Note_on_c, 0, 62, 60
1, 706643, Note_off_c, 0, 62, 0
1, 706656, Note_off_c, 0, 66, 0
1, 706739, Note_on_c, 0, 61, 66
1, 706740, Note_on_c, 0, 67, 71
1, 706781, Note_off_c, 0, 61, 0
1, 706795, Note_off_c, 0, 67, 0
1, 706893, Note_on_c, 0, 66, 62
1, 706896, Note_on_c, 0, 62, 57
1, 706939, Note_off_c, 0, 66, 0
1, 706943, Note_off_c, 0, 62, 0
1, 707045, Note_on_c, 0, 64, 68
1, 707119, Note_off_c, 0, 64, 0
1, 707203, Note_on_c, 0, 66, 64
1, 707208, Note_on_c, 0, 62, 56
1, 707250, Note_off_c, 0, 66, 0
1, 707361, Note_on_c, 0, 64, 62
1, 707377, Note_off_c, 0, 62, 0
1, 707402, Note_off_c, 0, 64, 0
1, 707509, Note_on_c, 0, 62, 60
1, 707653, Note_on_c, 0, 60, 59
1, 707695, Note_off_c, 0, 60, 0
1, 707740, Note_off_c, 0, 62, 0
1, 707799, Note_on_c, 0, 59, 64
1, 707808, Note_on_c, 0, 64, 63
1, 707839, Note_off_c, 0, 59, 0
1, 707856, Note_off_c, 0, 64, 0
1, 707952, Note_on_c, 0, 66, 72
1, 707961, Note_on_c, 0, 57, 69
1, 708002, Note_off_c, 0, 57, 0
1, 708014, Note_off_c, 0, 66, 0
1, 708105, Note_on_c, 0, 67, 70
1, 708115, Note_on_c, 0, 59, 67
1, 708165, Note_off_c, 0, 59, 0
1, 708196, Note_off_c, 0, 67, 0
1, 708257, Note_on_c, 0, 69, 74
1, 708262, Note_on_c, 0, 57, 61
1, 708314, Note_off_c, 0, 57, 0
1, 708328, Note_off_c, 0, 69, 0
1, 708410, Note_on_c, 0, 71, 72
1, 708412, Note_on_c, 0, 55, 66
1, 708464, Note_off_c, 0, 55, 0
1, 708478, Note_off_c, 0, 71, 0
1, 708566, Note_on_c, 0, 72, 79
1, 708571, Note_on_c, 0, 54, 70
1, 708612, Note_off_c, 0, 54, 0
1, 708643, Note_off_c, 0, 72, 0
1, 708714, Note_on_c, 0, 55, 66
1, 708716, Note_on_c, 0, 71, 72
1, 708759, Note_off_c, 0, 55, 0
1, 708781, Note_off_c, 0, 71, 0
1, 708863, Note_on_c, 0, 69, 74
1, 708867, Note_on_c, 0, 57, 64
1, 708926, Note_off_c, 0, 57, 0
1, 708933, Note_off_c, 0, 69, 0
1, 709030, Note_on_c, 0, 67, 74
1, 709035, Note_on_c, 0, 59, 68
1, 709086, Note_off_c, 0, 59, 0
1, 709170, Note_on_c, 0, 57, 68
1, 709229, Note_off_c, 0, 57, 0
1, 709323, Note_on_c, 0, 55, 73
1, 709375, Note_off_c, 0, 55, 0
1, 709479, Note_on_c, 0, 53, 74
1, 709550, Note_off_c, 0, 53, 0
1, 709615, Note_off_c, 0, 67, 0
1, 709625, Note_on_c, 0, 69, 79
1, 709627, Note_on_c, 0, 52, 70
1, 709694, Note_off_c, 0, 52, 0
1, 709732, Note_off_c, 0, 69, 0
1, 709772, Note_on_c, 0, 71, 79
1, 709775, Note_on_c, 0, 50, 67
1, 709893, Note_off_c, 0, 50, 0
1, 709908, Note_off_c, 0, 71, 0
1, 709995, Note_on_c, 0, 52, 70
1, 709995, Note_on_c, 0, 72, 84
1, 710073, Note_off_c, 0, 52, 0
1, 710122, Note_off_c, 0, 72, 0
1, 710147, Note_on_c, 0, 74, 82
1, 710149, Note_on_c, 0, 50, 68
1, 710194, Note_off_c, 0, 50, 0
1, 710218, Note_off_c, 0, 74, 0
1, 710290, Note_on_c, 0, 76, 79
1, 710295, Note_on_c, 0, 48, 69
1, 710353, Note_off_c, 0, 48, 0
1, 710366, Note_off_c, 0, 76, 0
1, 710446, Note_on_c, 0, 77, 82
1, 710451, Note_on_c, 0, 47, 73
1, 710528, Note_off_c, 0, 47, 0
1, 710531, Note_off_c, 0, 77, 0
1, 710591, Note_on_c, 0, 76, 79
1, 710609, Note_on_c, 0, 48, 66
1, 710664, Note_off_c, 0, 48, 0
1, 710671, Note_off_c, 0, 76, 0
1, 710755, Note_on_c, 0, 50, 63
1, 710762, Note_on_c, 0, 74, 78
1, 710814, Note_off_c, 0, 50, 0
1, 710821, Note_off_c, 0, 74, 0
1, 710918, Note_on_c, 0, 72, 79
1, 710932, Note_on_c, 0, 52, 68
1, 710980, Note_off_c, 0, 52, 0
1, 711077, Note_on_c, 0, 48, 73
1, 711136, Note_off_c, 0, 48, 0
1, 711224, Note_on_c, 0, 52, 67
1, 711272, Note_off_c, 0, 52, 0
1, 711372, Note_on_c, 0, 55, 74
1, 711417, Note_off_c, 0, 55, 0
1, 711492, Note_off_c, 0, 72, 0
1, 711527, Note_on_c, 0, 76, 75
1, 711538, Note_on_c, 0, 60, 57
1, 711585, Note_off_c, 0, 60, 0
1, 711603, Note_off_c, 0, 76, 0
1, 711670, Note_on_c, 0, 72, 73
1, 711697, Note_on_c, 0, 64, 58
1, 711738, Note_off_c, 0, 64, 0
1, 711759, Note_off_c, 0, 72, 0
1, 711831, Note_on_c, 0, 69, 67
1, 711846, Note_on_c, 0, 60, 55
1, 711897, Note_off_c, 0, 60, 0
1, 711900, Note_off_c, 0, 69, 0
1, 711982, Note_on_c, 0, 64, 61
1, 711986, Note_on_c, 0, 57, 65
1, 712027, Note_off_c, 0, 57, 0
1, 712081, Note_off_c, 0, 64, 0
1, 712130, Note_on_c, 0, 60, 68
1, 712185, Note_off_c, 0, 60, 0
1, 712282, Note_on_c, 0, 64, 73
1, 712287, Note_on_c, 0, 57, 73
1, 712348, Note_off_c, 0, 57, 0
1, 712380, Note_off_c, 0, 64, 0
1, 712433, Note_on_c, 0, 69, 80
1, 712438, Note_on_c, 0, 60, 71
1, 712481, Note_off_c, 0, 60, 0
1, 712511, Note_off_c, 0, 69, 0
1, 712534, Control_c, 0, 67, 67
1, 712584, Note_on_c, 0, 72, 82
1, 712604, Note_on_c, 0, 64, 66
1, 712665, Note_off_c, 0, 64, 0
1, 712675, Note_off_c, 0, 72, 0
1, 712741, Note_on_c, 0, 66, 65
1, 712752, Note_on_c, 0, 69, 80
1, 712806, Note_off_c, 0, 66, 0
1, 712833, Note_off_c, 0, 69, 0
1, 712895, Note_on_c, 0, 62, 61
1, 712899, Note_on_c, 0, 72, 75
1, 712943, Note_off_c, 0, 62, 0
1, 712958, Note_off_c, 0, 72, 0
1, 713040, Note_on_c, 0, 69, 74
1, 713062, Note_on_c, 0, 66, 54
1, 713088, Note_off_c, 0, 69, 0
1, 713089, Note_off_c, 0, 66, 0
1, 713199, Note_on_c, 0, 66, 56
1, 713201, Note_on_c, 0, 69, 74
1, 713244, Note_off_c, 0, 66, 0
1, 713261, Note_off_c, 0, 69, 0
1, 713347, Note_on_c, 0, 74, 72
1, 713351, Note_on_c, 0, 62, 61
1, 713394, Note_off_c, 0, 62, 0
1, 713414, Note_off_c, 0, 74, 0
1, 713492, Note_on_c, 0, 78, 77
1, 713496, Note_on_c, 0, 57, 62
1, 713547, Note_off_c, 0, 57, 0
1, 713576, Note_off_c, 0, 78, 0
1, 713655, Note_on_c, 0, 74, 77
1, 713656, Note_on_c, 0, 54, 57
1, 713709, Note_off_c, 0, 54, 0
1, 713713, Note_off_c, 0, 74, 0
1, 713803, Note_on_c, 0, 69, 74
1, 713806, Note_on_c, 0, 50, 63
1, 713857, Note_off_c, 0, 50, 0
1, 713883, Note_off_c, 0, 69, 0
1, 713949, Note_on_c, 0, 74, 75
1, 713955, Note_on_c, 0, 54, 56
1, 714002, Note_off_c, 0, 54, 0
1, 714021, Note_off_c, 0, 74, 0
1, 714100, Note_on_c, 0, 78, 73
1, 714109, Note_on_c, 0, 57, 62
1, 714161, Note_off_c, 0, 57, 0
1, 714175, Note_off_c, 0, 78, 0
1, 714253, Note_on_c, 0, 81, 68
1, 714265, Note_on_c, 0, 60, 56
1, 714308, Note_off_c, 0, 81, 0
1, 714331, Note_off_c, 0, 60, 0
1, 714402, Note_on_c, 0, 84, 74
1, 714416, Note_on_c, 0, 54, 56
1, 714436, Control_c, 0, 67, 71
1, 714464, Note_off_c, 0, 54, 0
1, 714481, Note_off_c, 0, 84, 0
1, 714576, Note_on_c, 0, 83, 70
1, 714591, Note_on_c, 0, 55, 52
1, 714642, Note_off_c, 0, 55, 0
1, 714643, Note_off_c, 0, 83, 0
1, 714724, Note_on_c, 0, 79, 73
1, 714747, Note_on_c, 0, 59, 59
1, 714783, Note_off_c, 0, 79, 0
1, 714792, Note_off_c, 0, 59, 0
1, 714883, Note_on_c, 0, 74, 70
1, 714941, Note_on_c, 0, 64, 9
1, 714954, Note_off_c, 0, 74, 0
1, 714978, Note_off_c, 0, 64, 0
1, 715044, Note_on_c, 0, 71, 71
1, 715055, Note_on_c, 0, 67, 53
1, 715087, Note_off_c, 0, 67, 0
1, 715095, Note_off_c, 0, 71, 0
1, 715194, Note_on_c, 0, 67, 64
1, 715205, Note_on_c, 0, 71, 76
1, 715240, Note_off_c, 0, 67, 0
1, 715254, Note_off_c, 0, 71, 0
1, 715351, Note_on_c, 0, 74, 75
1, 715362, Note_on_c, 0, 67, 48
1, 715398, Note_off_c, 0, 74, 0
1, 715410, Note_off_c, 0, 67, 0
1, 715526, Note_on_c, 0, 79, 70
1, 715534, Note_on_c, 0, 66, 46
1, 715571, Note_off_c, 0, 66, 0
1, 715595, Note_off_c, 0, 79, 0
1, 715714, Note_on_c, 0, 74, 55
1, 715715, Note_on_c, 0, 67, 36
1, 715757, Note_off_c, 0, 67, 0
1, 715768, Note_off_c, 0, 74, 0
1, 715914, Note_on_c, 0, 74, 58
1, 715928, Note_on_c, 0, 71, 53
1, 715962, Note_off_c, 0, 74, 0
1, 715973, Note_off_c, 0, 71, 0
1, 716181, Control_c, 0, 67, 75
1, 716216, Note_on_c, 0, 79, 46
1, 716235, Note_on_c, 0, 67, 37
1, 716636, Control_c, 0, 67, 71
1, 716703, Note_off_c, 0, 67, 0
1, 716745, Note_off_c, 0, 79, 0
1, 717312, Control_c, 0, 67, 67
1, 717938, Note_on_c, 0, 55, 67
1, 718020, Control_c, 0, 67, 63
1, 718130, Control_c, 0, 67, 59
1, 718148, Control_c, 0, 67, 54
1, 718186, Control_c, 0, 67, 49
1, 718324, Control_c, 0, 64, 19
1, 718326, Control_c, 0, 67, 45
1, 718362, Control_c, 0, 64, 27
1, 718364, Note_on_c, 0, 67, 74
1, 718380, Control_c, 0, 64, 34
1, 718400, Control_c, 0, 64, 42
1, 718418, Control_c, 0, 64, 49
1, 718420, Control_c, 0, 67, 40
1, 718435, Control_c, 0, 64, 54
1, 718452, Control_c, 0, 64, 56
1, 718472, Control_c, 0, 64, 59
1, 718490, Control_c, 0, 64, 62
1, 718510, Control_c, 0, 64, 65
1, 718511, Control_c, 0, 67, 36
1, 718528, Control_c, 0, 64, 67
1, 718561, Note_on_c, 0, 66, 77
1, 718565, Control_c, 0, 64, 69
1, 718583, Note_off_c, 0, 67, 0
1, 718606, Note_off_c, 0, 55, 0
1, 718621, Control_c, 0, 64, 71
1, 718751, Control_c, 0, 64, 69
1, 718769, Control_c, 0, 64, 67
1, 718788, Control_c, 0, 64, 62
1, 718807, Control_c, 0, 64, 55
1, 718817, Note_on_c, 0, 55, 77
1, 718818, Note_off_c, 0, 66, 0
1, 718818, Note_on_c, 0, 67, 66
1, 718827, Control_c, 0, 64, 46
1, 718844, Control_c, 0, 64, 34
1, 718861, Control_c, 0, 64, 21
1, 718879, Control_c, 0, 64, 12
1, 719267, Note_on_c, 0, 69, 74
1, 719300, Note_off_c, 0, 67, 0
1, 719391, Control_c, 0, 64, 17
1, 719409, Control_c, 0, 64, 22
1, 719427, Control_c, 0, 64, 30
1, 719446, Control_c, 0, 64, 40
1, 719464, Control_c, 0, 64, 49
1, 719479, Note_on_c, 0, 71, 79
1, 719482, Control_c, 0, 64, 55
1, 719490, Note_off_c, 0, 69, 0
1, 719502, Control_c, 0, 64, 59
1, 719520, Control_c, 0, 64, 61
1, 719539, Control_c, 0, 64, 63
1, 719557, Control_c, 0, 64, 64
1, 719577, Control_c, 0, 64, 65
1, 719594, Control_c, 0, 64, 66
1, 719609, Note_off_c, 0, 55, 0
1, 719686, Control_c, 0, 64, 65
1, 719706, Control_c, 0, 64, 64
1, 719708, Note_off_c, 0, 71, 0
1, 719715, Note_on_c, 0, 72, 74
1, 719724, Control_c, 0, 64, 62
1, 719724, Note_on_c, 0, 55, 85
1, 719742, Control_c, 0, 64, 58
1, 719762, Control_c, 0, 64, 52
1, 719781, Control_c, 0, 64, 44
1, 719799, Control_c, 0, 64, 30
1, 719817, Control_c, 0, 64, 12
1, 719855, Control_c, 0, 64, 0
1, 719922, Note_on_c, 0, 71, 72
1, 719930, Note_off_c, 0, 72, 0
1, 720094, Control_c, 0, 64, 11
1, 720123, Control_c, 0, 64, 15
1, 720142, Control_c, 0, 64, 20
1, 720154, Note_on_c, 0, 69, 74
1, 720155, Note_off_c, 0, 71, 0
1, 720161, Control_c, 0, 64, 26
1, 720179, Control_c, 0, 64, 35
1, 720197, Control_c, 0, 64, 44
1, 720217, Control_c, 0, 64, 51
1, 720235, Control_c, 0, 64, 55
1, 720251, Control_c, 0, 64, 57
1, 720272, Control_c, 0, 64, 59
1, 720289, Control_c, 0, 64, 61
1, 720309, Control_c, 0, 64, 63
1, 720326, Control_c, 0, 64, 65
1, 720329, Note_off_c, 0, 69, 0
1, 720348, Note_on_c, 0, 67, 75
1, 720364, Control_c, 0, 64, 66
1, 720530, Control_c, 0, 64, 65
1, 720549, Control_c, 0, 64, 63
1, 720568, Control_c, 0, 64, 60
1, 720582, Note_on_c, 0, 54, 79
1, 720586, Control_c, 0, 64, 55
1, 720595, Note_on_c, 0, 74, 70
1, 720605, Control_c, 0, 64, 47
1, 720612, Note_off_c, 0, 67, 0
1, 720621, Note_off_c, 0, 55, 0
1, 720625, Control_c, 0, 64, 31
1, 720662, Control_c, 0, 64, 0
1, 720800, Note_on_c, 0, 69, 70
1, 720820, Note_off_c, 0, 74, 0
1, 720995, Note_on_c, 0, 62, 61
1, 721005, Note_on_c, 0, 71, 76
1, 721010, Note_off_c, 0, 69, 0
1, 721097, Control_c, 0, 64, 8
1, 721114, Control_c, 0, 64, 12
1, 721133, Control_c, 0, 64, 17
1, 721152, Control_c, 0, 64, 26
1, 721171, Control_c, 0, 64, 36
1, 721189, Control_c, 0, 64, 48
1, 721194, Note_off_c, 0, 62, 0
1, 721198, Note_off_c, 0, 71, 0
1, 721204, Note_on_c, 0, 73, 76
1, 721205, Note_on_c, 0, 64, 73
1, 721208, Control_c, 0, 64, 57
1, 721227, Control_c, 0, 64, 60
1, 721237, Note_off_c, 0, 54, 0
1, 721245, Control_c, 0, 64, 62
1, 721266, Control_c, 0, 64, 64
1, 721283, Control_c, 0, 64, 67
1, 721301, Control_c, 0, 64, 69
1, 721318, Control_c, 0, 64, 71
1, 721351, Note_off_c, 0, 64, 0
1, 721355, Control_c, 0, 64, 73
1, 721397, Note_off_c, 0, 73, 0
1, 721412, Control_c, 0, 64, 68
1, 721425, Note_on_c, 0, 74, 78
1, 721430, Note_on_c, 0, 54, 74
1, 721431, Control_c, 0, 64, 64
1, 721432, Note_on_c, 0, 62, 75
1, 721450, Control_c, 0, 64, 59
1, 721469, Control_c, 0, 64, 53
1, 721485, Control_c, 0, 64, 46
1, 721504, Control_c, 0, 64, 35
1, 721523, Control_c, 0, 64, 23
1, 721541, Control_c, 0, 64, 14
1, 721560, Control_c, 0, 64, 9
1, 721636, Note_on_c, 0, 76, 79
1, 721664, Note_off_c, 0, 74, 0
1, 721855, Note_on_c, 0, 78, 74
1, 721859, Note_off_c, 0, 62, 0
1, 721861, Note_on_c, 0, 60, 69
1, 721862, Note_off_c, 0, 76, 0
1, 722055, Note_on_c, 0, 79, 74
1, 722059, Note_on_c, 0, 59, 70
1, 722069, Note_off_c, 0, 78, 0
1, 722079, Note_off_c, 0, 60, 0
1, 722128, Note_off_c, 0, 54, 0
1, 722277, Note_on_c, 0, 54, 74
1, 722279, Note_on_c, 0, 81, 75
1, 722291, Note_on_c, 0, 57, 73
1, 722293, Note_off_c, 0, 79, 0
1, 722298, Note_off_c, 0, 59, 0
1, 722440, Note_off_c, 0, 57, 0
1, 722488, Note_on_c, 0, 59, 68
1, 722677, Note_off_c, 0, 59, 0
1, 722689, Note_on_c, 0, 60, 67
1, 722776, Control_c, 0, 64, 15
1, 722793, Control_c, 0, 64, 22
1, 722813, Control_c, 0, 64, 31
1, 722831, Control_c, 0, 64, 41
1, 722849, Control_c, 0, 64, 51
1, 722852, Note_off_c, 0, 54, 0
1, 722868, Control_c, 0, 64, 57
1, 722887, Control_c, 0, 64, 60
1, 722899, Note_off_c, 0, 60, 0
1, 722904, Note_on_c, 0, 62, 71
1, 722906, Control_c, 0, 64, 63
1, 722934, Control_c, 0, 64, 66
1, 722952, Control_c, 0, 64, 70
1, 722971, Control_c, 0, 64, 74
1, 722990, Control_c, 0, 64, 79
1, 723009, Control_c, 0, 64, 85
1, 723027, Control_c, 0, 64, 90
1, 723046, Control_c, 0, 64, 95
1, 723080, Note_off_c, 0, 81, 0
1, 723099, Note_off_c, 0, 62, 0
1, 723126, Note_on_c, 0, 55, 73
1, 723129, Note_on_c, 0, 52, 79
1, 723157, Control_c, 0, 64, 89
1, 723175, Control_c, 0, 64, 81
1, 723195, Control_c, 0, 64, 71
1, 723213, Control_c, 0, 64, 63
1, 723232, Control_c, 0, 64, 57
1, 723250, Control_c, 0, 64, 51
1, 723269, Control_c, 0, 64, 42
1, 723288, Control_c, 0, 64, 31
1, 723304, Control_c, 0, 64, 19
1, 723318, Note_off_c, 0, 55, 0
1, 723323, Control_c, 0, 64, 11
1, 723338, Note_on_c, 0, 60, 71
1, 723534, Note_on_c, 0, 79, 79
1, 723548, Note_on_c, 0, 59, 73
1, 723572, Note_off_c, 0, 60, 0
1, 723621, Control_c, 0, 64, 18
1, 723639, Control_c, 0, 64, 25
1, 723658, Control_c, 0, 64, 33
1, 723674, Control_c, 0, 64, 42
1, 723694, Control_c, 0, 64, 51
1, 723713, Control_c, 0, 64, 56
1, 723731, Control_c, 0, 64, 59
1, 723742, Note_on_c, 0, 57, 73
1, 723742, Note_on_c, 0, 78, 79
1, 723750, Control_c, 0, 64, 63
1, 723753, Note_off_c, 0, 52, 0
1, 723756, Note_off_c, 0, 59, 0
1, 723769, Control_c, 0, 64, 67
1, 723786, Control_c, 0, 64, 70
1, 723790, Note_off_c, 0, 79, 0
1, 723806, Control_c, 0, 64, 74
1, 723825, Control_c, 0, 64, 78
1, 723844, Control_c, 0, 64, 82
1, 723870, Control_c, 0, 64, 87
1, 723888, Control_c, 0, 64, 91
1, 723923, Note_off_c, 0, 57, 0
1, 723926, Control_c, 0, 64, 95
1, 723976, Note_on_c, 0, 76, 79
1, 723977, Note_on_c, 0, 52, 73
1, 723980, Note_on_c, 0, 55, 73
1, 723982, Control_c, 0, 64, 85
1, 724001, Control_c, 0, 64, 74
1, 724011, Note_off_c, 0, 78, 0
1, 724020, Control_c, 0, 64, 62
1, 724039, Control_c, 0, 64, 50
1, 724055, Control_c, 0, 64, 37
1, 724075, Control_c, 0, 64, 20
1, 724093, Control_c, 0, 64, 9
1, 724167, Control_c, 0, 64, 16
1, 724169, Note_off_c, 0, 76, 0
1, 724173, Note_on_c, 0, 54, 72
1, 724176, Note_off_c, 0, 55, 0
1, 724185, Note_on_c, 0, 74, 75
1, 724186, Control_c, 0, 64, 25
1, 724204, Control_c, 0, 64, 36
1, 724224, Control_c, 0, 64, 50
1, 724241, Control_c, 0, 64, 59
1, 724261, Control_c, 0, 64, 63
1, 724271, Note_off_c, 0, 52, 0
1, 724280, Control_c, 0, 64, 67
1, 724297, Control_c, 0, 64, 70
1, 724315, Control_c, 0, 64, 73
1, 724334, Control_c, 0, 64, 77
1, 724353, Control_c, 0, 64, 79
1, 724356, Note_off_c, 0, 54, 0
1, 724379, Note_off_c, 0, 74, 0
1, 724388, Note_on_c, 0, 73, 78
1, 724394, Note_on_c, 0, 52, 81
1, 724446, Control_c, 0, 64, 76
1, 724465, Control_c, 0, 64, 74
1, 724481, Control_c, 0, 64, 71
1, 724501, Control_c, 0, 64, 66
1, 724518, Control_c, 0, 64, 62
1, 724538, Control_c, 0, 64, 59
1, 724556, Control_c, 0, 64, 56
1, 724575, Control_c, 0, 64, 52
1, 724580, Note_on_c, 0, 71, 73
1, 724592, Note_on_c, 0, 50, 77
1, 724593, Control_c, 0, 64, 45
1, 724602, Note_off_c, 0, 52, 0
1, 724609, Control_c, 0, 64, 37
1, 724618, Note_off_c, 0, 73, 0
1, 724627, Control_c, 0, 64, 31
1, 724663, Control_c, 0, 64, 26
1, 724720, Control_c, 0, 64, 21
1, 724811, Note_on_c, 0, 69, 76
1, 724821, Note_on_c, 0, 52, 76
1, 724824, Note_on_c, 0, 49, 65
1, 724832, Note_off_c, 0, 71, 0
1, 724852, Note_off_c, 0, 50, 0
1, 725009, Note_off_c, 0, 69, 0
1, 725018, Note_on_c, 0, 67, 80
1, 725223, Note_on_c, 0, 66, 79
1, 725261, Note_off_c, 0, 67, 0
1, 725267, Control_c, 0, 64, 26
1, 725287, Control_c, 0, 64, 33
1, 725304, Control_c, 0, 64, 43
1, 725322, Control_c, 0, 64, 53
1, 725340, Control_c, 0, 64, 59
1, 725360, Control_c, 0, 64, 61
1, 725379, Control_c, 0, 64, 64
1, 725397, Control_c, 0, 64, 67
1, 725416, Control_c, 0, 64, 70
1, 725420, Note_on_c, 0, 67, 80
1, 725434, Control_c, 0, 64, 73
1, 725445, Note_off_c, 0, 66, 0
1, 725453, Control_c, 0, 64, 76
1, 725471, Control_c, 0, 64, 80
1, 725489, Control_c, 0, 64, 84
1, 725508, Control_c, 0, 64, 89
1, 725526, Control_c, 0, 64, 94
1, 725545, Control_c, 0, 64, 99
1, 725546, Note_off_c, 0, 67, 0
1, 725592, Note_off_c, 0, 52, 0
1, 725599, Note_off_c, 0, 49, 0
1, 725639, Control_c, 0, 64, 89
1, 725650, Note_on_c, 0, 67, 70
1, 725656, Note_on_c, 0, 50, 74
1, 725656, Control_c, 0, 64, 69
1, 725668, Note_on_c, 0, 65, 63
1, 725674, Control_c, 0, 64, 42
1, 725712, Control_c, 0, 64, 0
1, 725778, Control_c, 0, 64, 23
1, 725794, Note_off_c, 0, 65, 0
1, 725796, Control_c, 0, 64, 45
1, 725815, Control_c, 0, 64, 63
1, 725834, Control_c, 0, 64, 69
1, 725850, Note_off_c, 0, 50, 0
1, 725853, Control_c, 0, 64, 71
1, 725859, Note_on_c, 0, 38, 63
1, 725873, Control_c, 0, 64, 74
1, 725889, Note_off_c, 0, 67, 0
1, 725889, Control_c, 0, 64, 78
1, 725908, Control_c, 0, 64, 81
1, 725926, Control_c, 0, 64, 85
1, 725944, Control_c, 0, 64, 89
1, 725981, Control_c, 0, 64, 95
1, 726057, Control_c, 0, 64, 91
1, 726064, Note_on_c, 0, 66, 70
1, 726077, Control_c, 0, 64, 85
1, 726084, Note_off_c, 0, 38, 0
1, 726094, Note_on_c, 0, 50, 67
1, 726095, Control_c, 0, 64, 74
1, 726110, Control_c, 0, 64, 61
1, 726117, Note_on_c, 0, 67, 72
1, 726125, Note_off_c, 0, 66, 0
1, 726128, Control_c, 0, 64, 50
1, 726149, Control_c, 0, 64, 39
1, 726167, Control_c, 0, 64, 28
1, 726184, Note_on_c, 0, 66, 66
1, 726186, Control_c, 0, 64, 20
1, 726205, Control_c, 0, 64, 16
1, 726229, Note_off_c, 0, 67, 0
1, 726298, Note_on_c, 0, 64, 73
1, 726330, Note_on_c, 0, 52, 64
1, 726331, Note_off_c, 0, 66, 0
1, 726335, Note_off_c, 0, 50, 0
1, 726508, Note_off_c, 0, 64, 0
1, 726514, Note_on_c, 0, 62, 73
1, 726525, Note_off_c, 0, 52, 0
1, 726536, Note_on_c, 0, 54, 63
1, 726700, Note_off_c, 0, 54, 0
1, 726733, Note_on_c, 0, 55, 60
1, 726875, Note_off_c, 0, 55, 0
1, 726942, Note_on_c, 0, 57, 72
1, 726955, Note_off_c, 0, 62, 0
1, 726957, Note_on_c, 0, 48, 57
1, 727125, Note_off_c, 0, 48, 0
1, 727144, Note_on_c, 0, 59, 78
1, 727158, Note_on_c, 0, 47, 56
1, 727175, Note_off_c, 0, 57, 0
1, 727351, Note_off_c, 0, 59, 0
1, 727355, Note_off_c, 0, 47, 0
1, 727368, Note_on_c, 0, 60, 73
1, 727374, Note_on_c, 0, 45, 60
1, 727559, Note_off_c, 0, 60, 0
1, 727572, Note_on_c, 0, 62, 69
1, 727623, Note_off_c, 0, 45, 0
1, 727780, Note_off_c, 0, 62, 0
1, 727796, Note_on_c, 0, 64, 58
1, 727798, Note_on_c, 0, 48, 62
1, 727912, Control_c, 0, 64, 20
1, 727929, Control_c, 0, 64, 26
1, 727948, Control_c, 0, 64, 35
1, 727966, Control_c, 0, 64, 47
1, 727985, Control_c, 0, 64, 55
1, 728003, Control_c, 0, 64, 58
1, 728006, Note_on_c, 0, 62, 67
1, 728023, Control_c, 0, 64, 60
1, 728026, Note_off_c, 0, 64, 0
1, 728041, Control_c, 0, 64, 62
1, 728059, Control_c, 0, 64, 65
1, 728079, Control_c, 0, 64, 68
1, 728096, Control_c, 0, 64, 70
1, 728114, Control_c, 0, 64, 72
1, 728123, Note_off_c, 0, 62, 0
1, 728152, Control_c, 0, 64, 74
1, 728158, Note_off_c, 0, 48, 0
1, 728227, Control_c, 0, 64, 72
1, 728245, Control_c, 0, 64, 69
1, 728265, Control_c, 0, 64, 65
1, 728265, Note_on_c, 0, 47, 82
1, 728272, Note_on_c, 0, 62, 64
1, 728283, Control_c, 0, 64, 58
1, 728299, Control_c, 0, 64, 50
1, 728319, Control_c, 0, 64, 39
1, 728336, Control_c, 0, 64, 24
1, 728356, Control_c, 0, 64, 9
1, 728374, Control_c, 0, 64, 0
1, 728446, Note_off_c, 0, 62, 0
1, 728482, Note_on_c, 0, 74, 78
1, 728681, Control_c, 0, 64, 16
1, 728700, Control_c, 0, 64, 31
1, 728714, Note_on_c, 0, 64, 73
1, 728718, Control_c, 0, 64, 46
1, 728735, Control_c, 0, 64, 56
1, 728755, Control_c, 0, 64, 60
1, 728772, Control_c, 0, 64, 64
1, 728792, Control_c, 0, 64, 68
1, 728803, Note_off_c, 0, 47, 0
1, 728810, Control_c, 0, 64, 72
1, 728829, Control_c, 0, 64, 76
1, 728848, Control_c, 0, 64, 81
1, 728867, Control_c, 0, 64, 85
1, 728886, Control_c, 0, 64, 89
1, 728903, Note_on_c, 0, 66, 79
1, 728903, Control_c, 0, 64, 93
1, 728912, Note_off_c, 0, 64, 0
1, 728940, Control_c, 0, 64, 99
1, 728995, Control_c, 0, 64, 104
1, 729106, Control_c, 0, 64, 94
1, 729124, Control_c, 0, 64, 83
1, 729129, Note_off_c, 0, 66, 0
1, 729131, Note_on_c, 0, 67, 72
1, 729143, Control_c, 0, 64, 68
1, 729144, Note_on_c, 0, 47, 80
1, 729162, Control_c, 0, 64, 53
1, 729181, Control_c, 0, 64, 41
1, 729200, Control_c, 0, 64, 29
1, 729218, Control_c, 0, 64, 16
1, 729237, Control_c, 0, 64, 10
1, 729310, Control_c, 0, 64, 0
1, 729347, Note_on_c, 0, 71, 75
1, 729365, Note_off_c, 0, 74, 0
1, 729398, Note_off_c, 0, 67, 0
1, 729580, Note_on_c, 0, 69, 76
1, 729612, Note_off_c, 0, 71, 0
1, 729636, Control_c, 0, 64, 11
1, 729654, Control_c, 0, 64, 18
1, 729673, Control_c, 0, 64, 28
1, 729691, Control_c, 0, 64, 39
1, 729711, Control_c, 0, 64, 49
1, 729727, Control_c, 0, 64, 55
1, 729746, Control_c, 0, 64, 58
1, 729764, Control_c, 0, 64, 60
1, 729772, Note_off_c, 0, 69, 0
1, 729784, Control_c, 0, 64, 63
1, 729793, Note_on_c, 0, 67, 79
1, 729802, Control_c, 0, 64, 66
1, 729821, Control_c, 0, 64, 69
1, 729858, Control_c, 0, 64, 71
1, 729895, Note_off_c, 0, 47, 0
1, 729895, Control_c, 0, 64, 73
1, 730033, Note_off_c, 0, 67, 0
1, 730039, Note_on_c, 0, 65, 68
1, 730042, Control_c, 0, 64, 68
1, 730050, Note_on_c, 0, 47, 74
1, 730063, Control_c, 0, 64, 63
1, 730081, Control_c, 0, 64, 55
1, 730098, Control_c, 0, 64, 46
1, 730116, Control_c, 0, 64, 34
1, 730136, Control_c, 0, 64, 20
1, 730154, Control_c, 0, 64, 10
1, 730191, Control_c, 0, 64, 0
1, 730244, Note_on_c, 0, 64, 75
1, 730258, Note_off_c, 0, 65, 0
1, 730443, Note_off_c, 0, 64, 0
1, 730465, Note_on_c, 0, 62, 75
1, 730656, Note_on_c, 0, 65, 73
1, 730674, Note_off_c, 0, 62, 0
1, 730888, Note_on_c, 0, 48, 72
1, 730891, Note_off_c, 0, 65, 0
1, 730895, Note_on_c, 0, 64, 68
1, 730907, Note_off_c, 0, 47, 0
1, 731087, Note_off_c, 0, 64, 0
1, 731115, Note_on_c, 0, 67, 67
1, 731126, Note_on_c, 0, 55, 68
1, 731327, Note_on_c, 0, 72, 74
1, 731334, Control_c, 0, 64, 13
1, 731359, Control_c, 0, 64, 21
1, 731368, Note_off_c, 0, 67, 0
1, 731378, Control_c, 0, 64, 30
1, 731398, Control_c, 0, 64, 40
1, 731416, Control_c, 0, 64, 48
1, 731435, Control_c, 0, 64, 54
1, 731453, Control_c, 0, 64, 58
1, 731473, Control_c, 0, 64, 62
1, 731490, Control_c, 0, 64, 65
1, 731509, Control_c, 0, 64, 69
1, 731527, Note_on_c, 0, 74, 80
1, 731528, Control_c, 0, 64, 72
1, 731529, Note_off_c, 0, 72, 0
1, 731547, Control_c, 0, 64, 76
1, 731565, Control_c, 0, 64, 81
1, 731585, Control_c, 0, 64, 86
1, 731603, Control_c, 0, 64, 90
1, 731608, Note_off_c, 0, 48, 0
1, 731623, Control_c, 0, 64, 94
1, 731660, Control_c, 0, 64, 99
1, 731715, Control_c, 0, 64, 92
1, 731732, Control_c, 0, 64, 76
1, 731751, Control_c, 0, 64, 54
1, 731755, Note_on_c, 0, 48, 76
1, 731759, Note_on_c, 0, 76, 77
1, 731762, Note_off_c, 0, 74, 0
1, 731770, Control_c, 0, 64, 23
1, 731788, Control_c, 0, 64, 0
1, 731817, Note_off_c, 0, 55, 0
1, 731863, Control_c, 0, 64, 20
1, 731882, Control_c, 0, 64, 40
1, 731900, Control_c, 0, 64, 58
1, 731918, Control_c, 0, 64, 67
1, 731936, Control_c, 0, 64, 70
1, 731955, Control_c, 0, 64, 75
1, 731972, Note_on_c, 0, 59, 65
1, 731973, Control_c, 0, 64, 80
1, 731992, Control_c, 0, 64, 85
1, 732000, Note_off_c, 0, 76, 0
1, 732011, Control_c, 0, 64, 92
1, 732030, Control_c, 0, 64, 99
1, 732048, Control_c, 0, 64, 105
1, 732067, Note_off_c, 0, 59, 0
1, 732086, Control_c, 0, 64, 109
1, 732159, Control_c, 0, 64, 103
1, 732177, Note_on_c, 0, 69, 77
1, 732177, Control_c, 0, 64, 91
1, 732185, Note_on_c, 0, 60, 72
1, 732196, Control_c, 0, 64, 72
1, 732215, Control_c, 0, 64, 46
1, 732235, Control_c, 0, 64, 0
1, 732320, Poly_aftertouch_c, 0, 53, 0
1, 732353, Control_c, 0, 64, 26
1, 732372, Control_c, 0, 64, 45
1, 732391, Control_c, 0, 64, 61
1, 732403, Note_on_c, 0, 62, 73
1, 732410, Control_c, 0, 64, 67
1, 732428, Control_c, 0, 64, 70
1, 732447, Control_c, 0, 64, 73
1, 732466, Control_c, 0, 64, 76
1, 732476, Note_off_c, 0, 60, 0
1, 732484, Control_c, 0, 64, 80
1, 732486, Note_off_c, 0, 48, 0
1, 732504, Control_c, 0, 64, 83
1, 732522, Control_c, 0, 64, 86
1, 732595, Control_c, 0, 64, 84
1, 732616, Control_c, 0, 64, 78
1, 732628, Note_on_c, 0, 64, 70
1, 732630, Note_on_c, 0, 48, 79
1, 732634, Control_c, 0, 64, 68
1, 732651, Control_c, 0, 64, 54
1, 732670, Control_c, 0, 64, 38
1, 732681, Note_off_c, 0, 62, 0
1, 732688, Control_c, 0, 64, 12
1, 732707, Control_c, 0, 64, 0
1, 732836, Note_on_c, 0, 66, 69
1, 732839, Control_c, 0, 64, 21
1, 732855, Control_c, 0, 64, 35
1, 732874, Control_c, 0, 64, 51
1, 732878, Note_off_c, 0, 69, 0
1, 732884, Note_off_c, 0, 64, 0
1, 732893, Control_c, 0, 64, 62
1, 732909, Control_c, 0, 64, 68
1, 732928, Control_c, 0, 64, 71
1, 732947, Control_c, 0, 64, 76
1, 732966, Control_c, 0, 64, 81
1, 732984, Control_c, 0, 64, 86
1, 733004, Control_c, 0, 64, 91
1, 733065, Note_on_c, 0, 69, 76
1, 733069, Note_off_c, 0, 66, 0
1, 733078, Note_on_c, 0, 67, 66
1, 733078, Control_c, 0, 64, 79
1, 733095, Control_c, 0, 64, 62
1, 733114, Control_c, 0, 64, 38
1, 733132, Control_c, 0, 64, 0
1, 733235, Control_c, 0, 64, 9
1, 733254, Control_c, 0, 64, 31
1, 733260, Note_off_c, 0, 67, 0
1, 733273, Control_c, 0, 64, 50
1, 733289, Note_on_c, 0, 64, 75
1, 733290, Control_c, 0, 64, 63
1, 733310, Control_c, 0, 64, 67
1, 733329, Control_c, 0, 64, 69
1, 733364, Control_c, 0, 64, 72
1, 733384, Control_c, 0, 64, 74
1, 733402, Control_c, 0, 64, 76
1, 733458, Control_c, 0, 64, 73
1, 733476, Control_c, 0, 64, 68
1, 733495, Control_c, 0, 64, 61
1, 733500, Note_off_c, 0, 64, 0
1, 733503, Note_off_c, 0, 48, 0
1, 733505, Note_on_c, 0, 66, 70
1, 733506, Note_on_c, 0, 50, 73
1, 733516, Control_c, 0, 64, 52
1, 733532, Control_c, 0, 64, 38
1, 733549, Control_c, 0, 64, 19
1, 733588, Control_c, 0, 64, 0
1, 733705, Note_off_c, 0, 66, 0
1, 733711, Note_on_c, 0, 71, 73
1, 733714, Note_off_c, 0, 69, 0
1, 733729, Note_on_c, 0, 62, 64
1, 733917, Note_off_c, 0, 62, 0
1, 733918, Note_on_c, 0, 57, 70
1, 733929, Note_on_c, 0, 66, 74
1, 734097, Note_off_c, 0, 71, 0
1, 734127, Note_on_c, 0, 67, 74
1, 734129, Note_on_c, 0, 55, 73
1, 734130, Note_off_c, 0, 66, 0
1, 734144, Note_off_c, 0, 57, 0
1, 734209, Note_off_c, 0, 50, 0
1, 734350, Note_on_c, 0, 69, 75
1, 734356, Note_on_c, 0, 54, 68
1, 734361, Note_on_c, 0, 50, 71
1, 734362, Note_off_c, 0, 67, 0
1, 734366, Note_off_c, 0, 55, 0
1, 734564, Note_on_c, 0, 67, 74
1, 734593, Note_off_c, 0, 69, 0
1, 734757, Note_off_c, 0, 67, 0
1, 734781, Note_on_c, 0, 66, 72
1, 734788, Note_off_c, 0, 54, 0
1, 734791, Note_on_c, 0, 60, 74
1, 734815, Control_c, 0, 64, 13
1, 734832, Control_c, 0, 64, 23
1, 734852, Control_c, 0, 64, 34
1, 734872, Control_c, 0, 64, 45
1, 734889, Control_c, 0, 64, 54
1, 734908, Control_c, 0, 64, 59
1, 734925, Note_off_c, 0, 66, 0
1, 734926, Control_c, 0, 64, 63
1, 734946, Control_c, 0, 64, 67
1, 734962, Control_c, 0, 64, 71
1, 734977, Note_on_c, 0, 76, 80
1, 734979, Control_c, 0, 64, 74
1, 735000, Control_c, 0, 64, 78
1, 735005, Note_off_c, 0, 50, 0
1, 735019, Control_c, 0, 64, 82
1, 735037, Control_c, 0, 64, 86
1, 735075, Control_c, 0, 64, 94
1, 735122, Control_c, 0, 64, 99
1, 735195, Control_c, 0, 64, 94
1, 735213, Control_c, 0, 64, 86
1, 735225, Note_on_c, 0, 74, 72
1, 735227, Note_on_c, 0, 50, 80
1, 735233, Control_c, 0, 64, 74
1, 735252, Control_c, 0, 64, 62
1, 735259, Note_off_c, 0, 76, 0
1, 735269, Control_c, 0, 64, 52
1, 735288, Control_c, 0, 64, 43
1, 735299, Note_off_c, 0, 60, 0
1, 735307, Control_c, 0, 64, 30
1, 735326, Control_c, 0, 64, 10
1, 735342, Control_c, 0, 64, 0
1, 735419, Note_on_c, 0, 72, 74
1, 735451, Note_off_c, 0, 74, 0
1, 735639, Note_on_c, 0, 71, 73
1, 735641, Note_on_c, 0, 60, 74
1, 735642, Note_off_c, 0, 72, 0
1, 735679, Control_c, 0, 64, 14
1, 735695, Control_c, 0, 64, 29
1, 735713, Control_c, 0, 64, 42
1, 735732, Control_c, 0, 64, 52
1, 735751, Control_c, 0, 64, 58
1, 735768, Control_c, 0, 64, 62
1, 735788, Control_c, 0, 64, 66
1, 735807, Control_c, 0, 64, 69
1, 735822, Note_off_c, 0, 71, 0
1, 735825, Control_c, 0, 64, 73
1, 735843, Control_c, 0, 64, 77
1, 735847, Note_on_c, 0, 69, 75
1, 735862, Control_c, 0, 64, 81
1, 735866, Note_off_c, 0, 50, 0
1, 735883, Control_c, 0, 64, 85
1, 735900, Control_c, 0, 64, 89
1, 735938, Control_c, 0, 64, 96
1, 735973, Control_c, 0, 64, 103
1, 736076, Control_c, 0, 64, 98
1, 736095, Control_c, 0, 64, 89
1, 736096, Control_c, 0, 67, 40
1, 736097, Note_on_c, 0, 67, 71
1, 736101, Note_off_c, 0, 69, 0
1, 736103, Note_on_c, 0, 55, 74
1, 736114, Control_c, 0, 64, 77
1, 736132, Control_c, 0, 64, 63
1, 736134, Note_off_c, 0, 60, 0
1, 736149, Control_c, 0, 64, 48
1, 736167, Control_c, 0, 64, 32
1, 736187, Control_c, 0, 64, 0
1, 736308, Note_on_c, 0, 59, 68
1, 736318, Control_c, 0, 64, 8
1, 736334, Control_c, 0, 64, 20
1, 736353, Control_c, 0, 64, 35
1, 736372, Control_c, 0, 64, 50
1, 736373, Control_c, 0, 67, 44
1, 736391, Control_c, 0, 64, 61
1, 736410, Control_c, 0, 64, 64
1, 736428, Control_c, 0, 64, 67
1, 736447, Control_c, 0, 64, 69
1, 736467, Control_c, 0, 64, 71
1, 736479, Note_off_c, 0, 59, 0
1, 736483, Control_c, 0, 64, 74
1, 736502, Control_c, 0, 64, 77
1, 736503, Note_off_c, 0, 55, 0
1, 736520, Control_c, 0, 64, 79
1, 736527, Note_on_c, 0, 64, 72
1, 736535, Note_off_c, 0, 67, 0
1, 736701, Note_off_c, 0, 64, 0
1, 736705, Control_c, 0, 64, 76
1, 736725, Note_on_c, 0, 62, 70
1, 736725, Control_c, 0, 64, 72
1, 736732, Note_on_c, 0, 47, 56
1, 736745, Control_c, 0, 64, 66
1, 736762, Control_c, 0, 64, 58
1, 736780, Control_c, 0, 64, 50
1, 736798, Control_c, 0, 64, 40
1, 736818, Control_c, 0, 64, 29
1, 736835, Control_c, 0, 64, 21
1, 736855, Control_c, 0, 64, 17
1, 736929, Note_off_c, 0, 47, 0
1, 736955, Note_off_c, 0, 62, 0
1, 736957, Note_on_c, 0, 52, 57
1, 736957, Note_on_c, 0, 60, 70
1, 736975, Control_c, 0, 64, 13
1, 737145, Note_off_c, 0, 52, 0
1, 737146, Note_off_c, 0, 60, 0
1, 737151, Note_on_c, 0, 62, 66
1, 737162, Note_on_c, 0, 50, 54
1, 737178, Control_c, 0, 67, 48
1, 737272, Control_c, 0, 64, 21
1, 737291, Control_c, 0, 64, 28
1, 737311, Control_c, 0, 64, 38
1, 737329, Control_c, 0, 64, 49
1, 737346, Control_c, 0, 64, 57
1, 737362, Note_off_c, 0, 62, 0
1, 737364, Note_off_c, 0, 50, 0
1, 737364, Control_c, 0, 64, 62
1, 737373, Note_on_c, 0, 64, 72
1, 737383, Control_c, 0, 64, 65
1, 737387, Note_on_c, 0, 48, 53
1, 737402, Control_c, 0, 64, 67
1, 737419, Control_c, 0, 64, 70
1, 737439, Control_c, 0, 64, 73
1, 737448, Note_off_c, 0, 64, 0
1, 737457, Control_c, 0, 64, 77
1, 737476, Control_c, 0, 64, 80
1, 737495, Control_c, 0, 64, 83
1, 737580, Note_on_c, 0, 54, 63
1, 737581, Note_off_c, 0, 48, 0
1, 737585, Control_c, 0, 64, 76
1, 737605, Control_c, 0, 64, 67
1, 737607, Note_on_c, 0, 52, 56
1, 737624, Control_c, 0, 64, 57
1, 737644, Control_c, 0, 64, 47
1, 737661, Control_c, 0, 64, 38
1, 737681, Control_c, 0, 64, 31
1, 737698, Control_c, 0, 64, 27
1, 737756, Control_c, 0, 64, 23
1, 737775, Note_off_c, 0, 54, 0
1, 737784, Note_off_c, 0, 52, 0
1, 737794, Note_on_c, 0, 55, 62
1, 737811, Note_on_c, 0, 50, 52
1, 737829, Control_c, 0, 67, 44
1, 738001, Note_off_c, 0, 50, 0
1, 738020, Note_on_c, 0, 57, 65
1, 738028, Note_off_c, 0, 55, 0
1, 738032, Note_on_c, 0, 48, 50
1, 738220, Note_off_c, 0, 48, 0
1, 738241, Note_on_c, 0, 59, 69
1, 738247, Note_off_c, 0, 57, 0
1, 738253, Note_on_c, 0, 47, 53
1, 738422, Note_off_c, 0, 47, 0
1, 738441, Note_off_c, 0, 59, 0
1, 738443, Note_on_c, 0, 60, 65
1, 738449, Note_on_c, 0, 45, 47
1, 738608, Note_off_c, 0, 60, 0
1, 738649, Note_off_c, 0, 45, 0
1, 738687, Note_on_c, 0, 62, 58
1, 738705, Note_on_c, 0, 47, 44
1, 738891, Note_on_c, 0, 66, 69
1, 738955, Note_off_c, 0, 47, 0
1, 739100, Note_on_c, 0, 67, 71
1, 739132, Note_on_c, 0, 43, 45
1, 739137, Note_off_c, 0, 66, 0
1, 739142, Note_off_c, 0, 62, 0
1, 739200, Control_c, 0, 64, 28
1, 739219, Control_c, 0, 64, 33
1, 739237, Control_c, 0, 64, 40
1, 739257, Control_c, 0, 64, 49
1, 739276, Control_c, 0, 64, 56
1, 739293, Control_c, 0, 64, 62
1, 739302, Note_on_c, 0, 69, 79
1, 739312, Control_c, 0, 64, 65
1, 739327, Note_off_c, 0, 67, 0
1, 739329, Control_c, 0, 64, 68
1, 739346, Note_off_c, 0, 43, 0
1, 739350, Control_c, 0, 64, 71
1, 739368, Control_c, 0, 64, 73
1, 739387, Control_c, 0, 64, 76
1, 739404, Control_c, 0, 64, 78
1, 739408, Note_off_c, 0, 69, 0
1, 739480, Control_c, 0, 64, 76
1, 739497, Control_c, 0, 64, 71
1, 739516, Control_c, 0, 64, 61
1, 739522, Note_on_c, 0, 71, 79
1, 739535, Control_c, 0, 64, 51
1, 739554, Control_c, 0, 64, 42
1, 739572, Control_c, 0, 64, 33
1, 739589, Control_c, 0, 64, 27
1, 739608, Control_c, 0, 64, 23
1, 739664, Control_c, 0, 64, 18
1, 739724, Note_on_c, 0, 73, 76
1, 739817, Note_off_c, 0, 71, 0
1, 739959, Note_on_c, 0, 74, 74
1, 739972, Note_off_c, 0, 73, 0
1, 739979, Note_on_c, 0, 55, 54
1, 740143, Note_off_c, 0, 55, 0
1, 740155, Note_off_c, 0, 74, 0
1, 740161, Note_on_c, 0, 78, 73
1, 740168, Note_on_c, 0, 54, 53
1, 740387, Note_on_c, 0, 76, 71
1, 740393, Note_off_c, 0, 54, 0
1, 740415, Note_on_c, 0, 55, 44
1, 740417, Note_off_c, 0, 78, 0
1, 740563, Note_off_c, 0, 55, 0
1, 740588, Note_on_c, 0, 74, 66
1, 740605, Note_off_c, 0, 76, 0
1, 740743, Control_c, 0, 64, 14
1, 740802, Note_on_c, 0, 73, 66
1, 740831, Note_off_c, 0, 74, 0
1, 740831, Note_on_c, 0, 52, 46
1, 740871, Control_c, 0, 64, 22
1, 740891, Control_c, 0, 64, 29
1, 740909, Control_c, 0, 64, 39
1, 740929, Control_c, 0, 64, 48
1, 740946, Control_c, 0, 64, 55
1, 740966, Control_c, 0, 64, 57
1, 740984, Control_c, 0, 64, 59
1, 740998, Note_off_c, 0, 73, 0
1, 741002, Control_c, 0, 64, 62
1, 741010, Note_off_c, 0, 52, 0
1, 741018, Control_c, 0, 64, 64
1, 741021, Note_on_c, 0, 71, 68
1, 741038, Control_c, 0, 64, 66
1, 741057, Control_c, 0, 64, 68
1, 741093, Control_c, 0, 64, 70
1, 741113, Note_off_c, 0, 71, 0
1, 741132, Control_c, 0, 64, 72
1, 741188, Control_c, 0, 64, 69
1, 741205, Control_c, 0, 64, 63
1, 741222, Control_c, 0, 64, 56
1, 741225, Note_on_c, 0, 69, 68
1, 741241, Control_c, 0, 64, 45
1, 741262, Note_on_c, 0, 54, 41
1, 741262, Control_c, 0, 64, 30
1, 741280, Control_c, 0, 64, 15
1, 741429, Note_off_c, 0, 54, 0
1, 741434, Note_on_c, 0, 67, 66
1, 741438, Note_on_c, 0, 64, 70
1, 741439, Note_off_c, 0, 69, 0
1, 741485, Control_c, 0, 64, 11
1, 741642, Control_c, 0, 64, 19
1, 741660, Control_c, 0, 64, 30
1, 741668, Note_on_c, 0, 66, 61
1, 741677, Control_c, 0, 64, 45
1, 741679, Note_on_c, 0, 62, 70
1, 741682, Note_off_c, 0, 67, 0
1, 741684, Note_on_c, 0, 59, 53
1, 741693, Note_off_c, 0, 64, 0
1, 741696, Control_c, 0, 64, 58
1, 741715, Control_c, 0, 64, 63
1, 741734, Control_c, 0, 64, 67
1, 741747, Note_off_c, 0, 59, 0
1, 741748, Note_off_c, 0, 66, 0
1, 741753, Control_c, 0, 64, 70
1, 741769, Control_c, 0, 64, 74
1, 741789, Control_c, 0, 64, 79
1, 741807, Control_c, 0, 64, 85
1, 741826, Control_c, 0, 64, 89
1, 741876, Note_off_c, 0, 62, 0
1, 741877, Note_on_c, 0, 64, 72
1, 741880, Note_on_c, 0, 61, 72
1, 741880, Control_c, 0, 64, 87
1, 741901, Control_c, 0, 64, 79
1, 741920, Control_c, 0, 64, 69
1, 741938, Control_c, 0, 64, 58
1, 741958, Control_c, 0, 64, 52
1, 741976, Control_c, 0, 64, 45
1, 741996, Control_c, 0, 64, 38
1, 742012, Control_c, 0, 64, 32
1, 742031, Control_c, 0, 64, 26
1, 742068, Control_c, 0, 64, 21
1, 742099, Note_on_c, 0, 62, 64
1, 742103, Note_on_c, 0, 59, 75
1, 742130, Note_off_c, 0, 64, 0
1, 742133, Note_off_c, 0, 61, 0
1, 742303, Note_off_c, 0, 62, 0
1, 742307, Note_on_c, 0, 57, 77
1, 742316, Note_off_c, 0, 59, 0
1, 742528, Note_on_c, 0, 55, 79
1, 742554, Note_on_c, 0, 47, 46
1, 742559, Note_off_c, 0, 57, 0
1, 742727, Note_off_c, 0, 47, 0
1, 742743, Note_on_c, 0, 52, 74
1, 742748, Note_off_c, 0, 55, 0
1, 742764, Note_on_c, 0, 49, 49
1, 742944, Note_off_c, 0, 49, 0
1, 742957, Note_on_c, 0, 54, 70
1, 742972, Note_off_c, 0, 52, 0
1, 742977, Note_on_c, 0, 50, 51
1, 743141, Note_off_c, 0, 54, 0
1, 743166, Note_on_c, 0, 55, 68
1, 743171, Note_off_c, 0, 50, 0
1, 743387, Note_on_c, 0, 57, 68
1, 743403, Note_on_c, 0, 47, 41
1, 743416, Note_off_c, 0, 55, 0
1, 743468, Control_c, 0, 64, 25
1, 743487, Control_c, 0, 64, 30
1, 743515, Control_c, 0, 64, 37
1, 743533, Control_c, 0, 64, 45
1, 743552, Control_c, 0, 64, 51
1, 743559, Note_off_c, 0, 47, 0
1, 743570, Control_c, 0, 64, 53
1, 743593, Note_on_c, 0, 59, 69
1, 743602, Note_off_c, 0, 57, 0
1, 743606, Control_c, 0, 64, 56
1, 743625, Control_c, 0, 64, 58
1, 743644, Control_c, 0, 64, 61
1, 743664, Control_c, 0, 64, 63
1, 743681, Control_c, 0, 64, 65
1, 743755, Control_c, 0, 64, 62
1, 743775, Control_c, 0, 64, 55
1, 743793, Control_c, 0, 64, 42
1, 743812, Note_off_c, 0, 59, 0
1, 743812, Control_c, 0, 64, 16
1, 743818, Note_on_c, 0, 61, 67
1, 743829, Control_c, 0, 64, 0
1, 743847, Note_on_c, 0, 52, 50
1, 743903, Control_c, 0, 64, 18
1, 743923, Control_c, 0, 64, 35
1, 743942, Control_c, 0, 64, 53
1, 743960, Control_c, 0, 64, 63
1, 743975, Note_off_c, 0, 61, 0
1, 743978, Control_c, 0, 64, 66
1, 743997, Control_c, 0, 64, 68
1, 744001, Note_off_c, 0, 52, 0
1, 744015, Control_c, 0, 64, 70
1, 744024, Note_on_c, 0, 62, 66
1, 744033, Control_c, 0, 64, 72
1, 744049, Note_on_c, 0, 54, 57
1, 744051, Control_c, 0, 64, 75
1, 744071, Control_c, 0, 64, 78
1, 744089, Control_c, 0, 64, 81
1, 744127, Control_c, 0, 64, 84
1, 744131, Note_off_c, 0, 62, 0
1, 744220, Control_c, 0, 64, 78
1, 744236, Control_c, 0, 64, 69
1, 744240, Note_off_c, 0, 54, 0
1, 744244, Note_on_c, 0, 73, 82
1, 744256, Control_c, 0, 64, 57
1, 744275, Control_c, 0, 64, 47
1, 744285, Note_on_c, 0, 64, 53
1, 744292, Note_on_c, 0, 55, 45
1, 744293, Control_c, 0, 64, 39
1, 744311, Control_c, 0, 64, 31
1, 744331, Control_c, 0, 64, 26
1, 744349, Control_c, 0, 64, 22
1, 744385, Control_c, 0, 64, 17
1, 744469, Note_off_c, 0, 64, 0
1, 744471, Note_off_c, 0, 55, 0
1, 744474, Note_on_c, 0, 66, 65
1, 744493, Note_on_c, 0, 54, 45
1, 744676, Note_off_c, 0, 54, 0
1, 744679, Note_off_c, 0, 66, 0
1, 744692, Control_c, 0, 64, 21
1, 744697, Note_on_c, 0, 67, 65
1, 744711, Control_c, 0, 64, 25
1, 744713, Note_on_c, 0, 52, 47
1, 744730, Control_c, 0, 64, 30
1, 744748, Control_c, 0, 64, 36
1, 744767, Control_c, 0, 64, 44
1, 744786, Control_c, 0, 64, 51
1, 744805, Control_c, 0, 64, 57
1, 744820, Control_c, 0, 64, 61
1, 744840, Control_c, 0, 64, 63
1, 744858, Control_c, 0, 64, 66
1, 744878, Control_c, 0, 64, 68
1, 744906, Note_on_c, 0, 71, 79
1, 744914, Control_c, 0, 64, 70
1, 744920, Note_off_c, 0, 73, 0
1, 745015, Note_off_c, 0, 52, 0
1, 745044, Control_c, 0, 64, 66
1, 745062, Control_c, 0, 64, 60
1, 745082, Control_c, 0, 64, 52
1, 745099, Control_c, 0, 64, 42
1, 745119, Control_c, 0, 64, 32
1, 745127, Note_on_c, 0, 69, 77
1, 745134, Note_off_c, 0, 71, 0
1, 745138, Control_c, 0, 64, 24
1, 745155, Note_on_c, 0, 54, 53
1, 745156, Control_c, 0, 64, 20
1, 745182, Note_off_c, 0, 67, 0
1, 745191, Control_c, 0, 64, 16
1, 745329, Note_on_c, 0, 71, 81
1, 745385, Note_off_c, 0, 69, 0
1, 745499, Note_off_c, 0, 54, 0
1, 745554, Note_on_c, 0, 73, 80
1, 745563, Note_off_c, 0, 71, 0
1, 745578, Note_on_c, 0, 52, 54
1, 745751, Note_off_c, 0, 73, 0
1, 745764, Note_on_c, 0, 74, 82
1, 745795, Note_off_c, 0, 52, 0
1, 745974, Note_on_c, 0, 76, 79
1, 745999, Note_on_c, 0, 50, 56
1, 746015, Note_off_c, 0, 74, 0
1, 746174, Note_off_c, 0, 50, 0
1, 746179, Note_on_c, 0, 78, 80
1, 746209, Note_off_c, 0, 76, 0
1, 746324, Control_c, 0, 64, 11
1, 746407, Note_on_c, 0, 79, 76
1, 746431, Note_on_c, 0, 49, 49
1, 746439, Note_off_c, 0, 78, 0
1, 746453, Control_c, 0, 64, 18
1, 746472, Control_c, 0, 64, 25
1, 746490, Control_c, 0, 64, 37
1, 746510, Control_c, 0, 64, 50
1, 746528, Control_c, 0, 64, 57
1, 746547, Control_c, 0, 64, 61
1, 746562, Note_off_c, 0, 49, 0
1, 746564, Control_c, 0, 64, 64
1, 746584, Control_c, 0, 64, 68
1, 746592, Note_off_c, 0, 79, 0
1, 746604, Control_c, 0, 64, 72
1, 746620, Control_c, 0, 64, 76
1, 746624, Note_on_c, 0, 50, 59
1, 746638, Control_c, 0, 64, 81
1, 746658, Control_c, 0, 64, 86
1, 746676, Control_c, 0, 64, 90
1, 746713, Control_c, 0, 64, 97
1, 746750, Control_c, 0, 64, 101
1, 746843, Control_c, 0, 64, 94
1, 746856, Note_on_c, 0, 57, 75
1, 746860, Control_c, 0, 64, 86
1, 746861, Note_off_c, 0, 50, 0
1, 746873, Note_on_c, 0, 67, 64
1, 746879, Control_c, 0, 64, 75
1, 746891, Note_on_c, 0, 52, 47
1, 746897, Control_c, 0, 64, 64
1, 746917, Control_c, 0, 64, 56
1, 746937, Control_c, 0, 64, 51
1, 746955, Control_c, 0, 64, 43
1, 746974, Control_c, 0, 64, 34
1, 746983, Note_off_c, 0, 52, 0
1, 746992, Control_c, 0, 64, 23
1, 747010, Control_c, 0, 64, 13
1, 747047, Control_c, 0, 64, 8
1, 747064, Note_on_c, 0, 50, 54
1, 747159, Control_c, 0, 64, 0
1, 747303, Note_on_c, 0, 49, 57
1, 747353, Control_c, 0, 64, 9
1, 747372, Control_c, 0, 64, 17
1, 747389, Control_c, 0, 64, 27
1, 747408, Control_c, 0, 64, 38
1, 747419, Note_off_c, 0, 57, 0
1, 747425, Control_c, 0, 64, 48
1, 747430, Note_off_c, 0, 50, 0
1, 747446, Control_c, 0, 64, 55
1, 747464, Control_c, 0, 64, 58
1, 747483, Control_c, 0, 64, 60
1, 747494, Note_off_c, 0, 49, 0
1, 747501, Control_c, 0, 64, 63
1, 747504, Note_on_c, 0, 59, 73
1, 747520, Control_c, 0, 64, 66
1, 747540, Control_c, 0, 64, 69
1, 747558, Control_c, 0, 64, 71
1, 747595, Control_c, 0, 64, 74
1, 747686, Control_c, 0, 64, 69
1, 747706, Control_c, 0, 64, 61
1, 747721, Note_on_c, 0, 61, 72
1, 747723, Control_c, 0, 64, 51
1, 747734, Note_on_c, 0, 52, 56
1, 747742, Control_c, 0, 64, 39
1, 747755, Note_off_c, 0, 59, 0
1, 747760, Control_c, 0, 64, 22
1, 747800, Control_c, 0, 64, 0
1, 747938, Note_on_c, 0, 59, 75
1, 747987, Note_off_c, 0, 61, 0
1, 747993, Note_off_c, 0, 52, 0
1, 748152, Control_c, 0, 64, 13
1, 748164, Note_on_c, 0, 57, 71
1, 748169, Note_off_c, 0, 59, 0
1, 748169, Note_on_c, 0, 49, 57
1, 748169, Control_c, 0, 64, 28
1, 748197, Control_c, 0, 64, 43
1, 748214, Control_c, 0, 64, 56
1, 748233, Note_off_c, 0, 67, 0
1, 748233, Control_c, 0, 64, 63
1, 748252, Control_c, 0, 64, 67
1, 748271, Control_c, 0, 64, 71
1, 748279, Note_off_c, 0, 57, 0
1, 748289, Control_c, 0, 64, 74
1, 748308, Control_c, 0, 64, 79
1, 748315, Note_off_c, 0, 49, 0
1, 748327, Control_c, 0, 64, 83
1, 748345, Control_c, 0, 64, 86
1, 748371, Note_on_c, 0, 71, 71
1, 748378, Note_on_c, 0, 55, 64
1, 748382, Control_c, 0, 64, 91
1, 748421, Control_c, 0, 64, 96
1, 748435, Note_off_c, 0, 55, 0
1, 748457, Control_c, 0, 64, 101
1, 748549, Control_c, 0, 64, 91
1, 748569, Control_c, 0, 64, 75
1, 748586, Note_on_c, 0, 54, 74
1, 748587, Control_c, 0, 64, 56
1, 748593, Note_on_c, 0, 48, 12
1, 748595, Note_on_c, 0, 69, 70
1, 748604, Note_on_c, 0, 45, 57
1, 748605, Control_c, 0, 64, 36
1, 748614, Note_off_c, 0, 71, 0
1, 748624, Control_c, 0, 64, 13
1, 748641, Control_c, 0, 64, 0
1, 748673, Note_off_c, 0, 48, 0
1, 748735, Control_c, 0, 64, 14
1, 748754, Control_c, 0, 64, 26
1, 748774, Control_c, 0, 64, 40
1, 748791, Control_c, 0, 64, 53
1, 748793, Note_off_c, 0, 45, 0
1, 748796, Note_on_c, 0, 67, 72
1, 748798, Note_on_c, 0, 52, 69
1, 748799, Note_off_c, 0, 69, 0
1, 748810, Control_c, 0, 64, 61
1, 748818, Note_off_c, 0, 54, 0
1, 748826, Control_c, 0, 64, 63
1, 748846, Control_c, 0, 64, 65
1, 748864, Control_c, 0, 64, 66
1, 748884, Control_c, 0, 64, 67
1, 748995, Control_c, 0, 64, 64
1, 749012, Control_c, 0, 64, 59
1, 749021, Note_on_c, 0, 50, 74
1, 749022, Note_on_c, 0, 66, 67
1, 749031, Note_off_c, 0, 67, 0
1, 749031, Control_c, 0, 64, 52
1, 749050, Control_c, 0, 64, 41
1, 749052, Note_off_c, 0, 52, 0
1, 749069, Control_c, 0, 64, 27
1, 749087, Control_c, 0, 64, 18
1, 749205, Note_off_c, 0, 66, 0
1, 749234, Note_on_c, 0, 64, 75
1, 749441, Note_off_c, 0, 64, 0
1, 749444, Note_on_c, 0, 66, 68
1, 749455, Note_on_c, 0, 62, 66
1, 749579, Control_c, 0, 64, 24
1, 749598, Control_c, 0, 64, 32
1, 749617, Control_c, 0, 64, 43
1, 749633, Control_c, 0, 64, 54
1, 749636, Note_off_c, 0, 62, 0
1, 749637, Note_off_c, 0, 66, 0
1, 749650, Note_on_c, 0, 67, 68
1, 749652, Control_c, 0, 64, 60
1, 749657, Note_on_c, 0, 64, 64
1, 749671, Control_c, 0, 64, 63
1, 749690, Control_c, 0, 64, 65
1, 749698, Note_off_c, 0, 50, 0
1, 749706, Control_c, 0, 64, 67
1, 749726, Control_c, 0, 64, 70
1, 749746, Control_c, 0, 64, 72
1, 749765, Control_c, 0, 64, 74
1, 749783, Control_c, 0, 64, 77
1, 749802, Control_c, 0, 64, 79
1, 749877, Note_off_c, 0, 64, 0
1, 749882, Note_on_c, 0, 66, 69
1, 749886, Note_on_c, 0, 62, 72
1, 749898, Note_off_c, 0, 67, 0
1, 749931, Control_c, 0, 64, 77
1, 749968, Control_c, 0, 64, 73
1, 749988, Control_c, 0, 64, 71
1, 750004, Control_c, 0, 64, 69
1, 750024, Control_c, 0, 64, 66
1, 750041, Control_c, 0, 64, 63
1, 750070, Control_c, 0, 64, 58
1, 750088, Control_c, 0, 64, 50
1, 750092, Note_off_c, 0, 66, 0
1, 750107, Note_on_c, 0, 69, 74
1, 750107, Control_c, 0, 64, 40
1, 750118, Note_on_c, 0, 50, 54
1, 750126, Control_c, 0, 64, 29
1, 750144, Control_c, 0, 64, 18
1, 750163, Control_c, 0, 64, 10
1, 750202, Control_c, 0, 64, 0
1, 750301, Note_off_c, 0, 50, 0
1, 750311, Note_on_c, 0, 67, 77
1, 750319, Note_on_c, 0, 52, 56
1, 750353, Note_off_c, 0, 69, 0
1, 750423, Control_c, 0, 64, 9
1, 750440, Control_c, 0, 64, 18
1, 750459, Control_c, 0, 64, 30
1, 750478, Control_c, 0, 64, 41
1, 750496, Control_c, 0, 64, 51
1, 750500, Note_off_c, 0, 52, 0
1, 750514, Control_c, 0, 64, 57
1, 750516, Note_on_c, 0, 66, 74
1, 750528, Note_on_c, 0, 54, 57
1, 750535, Control_c, 0, 64, 60
1, 750553, Control_c, 0, 64, 63
1, 750555, Note_off_c, 0, 67, 0
1, 750571, Control_c, 0, 64, 65
1, 750590, Control_c, 0, 64, 68
1, 750609, Control_c, 0, 64, 70
1, 750626, Control_c, 0, 64, 72
1, 750631, Note_off_c, 0, 66, 0
1, 750644, Control_c, 0, 64, 74
1, 750682, Control_c, 0, 64, 76
1, 750717, Note_off_c, 0, 54, 0
1, 750749, Note_on_c, 0, 64, 78
1, 750757, Control_c, 0, 64, 74
1, 750760, Note_on_c, 0, 55, 52
1, 750775, Control_c, 0, 64, 71
1, 750795, Control_c, 0, 64, 67
1, 750811, Control_c, 0, 64, 61
1, 750830, Control_c, 0, 64, 53
1, 750848, Control_c, 0, 64, 44
1, 750867, Control_c, 0, 64, 34
1, 750871, Note_off_c, 0, 62, 0
1, 750886, Control_c, 0, 64, 23
1, 750904, Control_c, 0, 64, 15
1, 750910, Note_off_c, 0, 55, 0
1, 750923, Control_c, 0, 64, 9
1, 750952, Note_on_c, 0, 59, 60
1, 750961, Control_c, 0, 64, 0
1, 750966, Note_on_c, 0, 57, 51
1, 751173, Note_off_c, 0, 59, 0
1, 751182, Note_on_c, 0, 61, 60
1, 751185, Note_off_c, 0, 57, 0
1, 751201, Note_on_c, 0, 55, 45
1, 751359, Control_c, 0, 64, 18
1, 751378, Control_c, 0, 64, 31
1, 751381, Note_off_c, 0, 55, 0
1, 751386, Note_off_c, 0, 61, 0
1, 751394, Note_on_c, 0, 62, 58
1, 751398, Control_c, 0, 64, 46
1, 751410, Note_on_c, 0, 54, 46
1, 751415, Control_c, 0, 64, 59
1, 751432, Control_c, 0, 64, 64
1, 751452, Control_c, 0, 64, 67
1, 751459, Note_off_c, 0, 64, 0
1, 751469, Control_c, 0, 64, 70
1, 751489, Control_c, 0, 64, 74
1, 751507, Control_c, 0, 64, 81
1, 751510, Note_off_c, 0, 62, 0
1, 751526, Control_c, 0, 64, 88
1, 751545, Control_c, 0, 64, 96
1, 751563, Control_c, 0, 64, 103
1, 751567, Note_off_c, 0, 54, 0
1, 751582, Control_c, 0, 64, 107
1, 751635, Note_on_c, 0, 64, 60
1, 751655, Control_c, 0, 64, 97
1, 751659, Note_on_c, 0, 55, 49
1, 751673, Control_c, 0, 64, 81
1, 751693, Control_c, 0, 64, 61
1, 751711, Control_c, 0, 64, 36
1, 751730, Control_c, 0, 64, 0
1, 751803, Control_c, 0, 64, 11
1, 751822, Control_c, 0, 64, 30
1, 751840, Control_c, 0, 64, 49
1, 751851, Note_on_c, 0, 66, 68
1, 751859, Control_c, 0, 64, 62
1, 751863, Note_off_c, 0, 64, 0
1, 751878, Control_c, 0, 64, 68
1, 751897, Note_off_c, 0, 55, 0
1, 751897, Control_c, 0, 64, 71
1, 751916, Control_c, 0, 64, 76
1, 751920, Note_off_c, 0, 66, 0
1, 751943, Control_c, 0, 64, 81
1, 751962, Control_c, 0, 64, 88
1, 751981, Control_c, 0, 64, 96
1, 752000, Control_c, 0, 64, 101
1, 752057, Control_c, 0, 64, 95
1, 752073, Control_c, 0, 64, 81
1, 752075, Note_on_c, 0, 74, 88
1, 752091, Control_c, 0, 64, 63
1, 752110, Control_c, 0, 64, 42
1, 752116, Note_on_c, 0, 43, 44
1, 752123, Note_on_c, 0, 64, 49
1, 752129, Control_c, 0, 64, 14
1, 752148, Control_c, 0, 64, 0
1, 752170, Note_off_c, 0, 64, 0
1, 752241, Control_c, 0, 64, 23
1, 752258, Control_c, 0, 64, 42
1, 752277, Control_c, 0, 64, 59
1, 752288, Note_on_c, 0, 62, 67
1, 752294, Control_c, 0, 64, 68
1, 752314, Control_c, 0, 64, 73
1, 752328, Note_off_c, 0, 43, 0
1, 752332, Control_c, 0, 64, 78
1, 752338, Note_off_c, 0, 62, 0
1, 752353, Control_c, 0, 64, 85
1, 752370, Control_c, 0, 64, 95
1, 752389, Control_c, 0, 64, 108
1, 752408, Control_c, 0, 64, 124
1, 752481, Control_c, 0, 64, 96
1, 752498, Control_c, 0, 64, 67
1, 752510, Note_on_c, 0, 73, 82
1, 752517, Control_c, 0, 64, 35
1, 752531, Note_on_c, 0, 64, 69
1, 752535, Control_c, 0, 64, 0
1, 752558, Note_off_c, 0, 74, 0
1, 752568, Note_off_c, 0, 64, 0
1, 752592, Control_c, 0, 64, 8
1, 752612, Control_c, 0, 64, 29
1, 752629, Control_c, 0, 64, 52
1, 752648, Control_c, 0, 64, 67
1, 752666, Control_c, 0, 64, 72
1, 752685, Control_c, 0, 64, 78
1, 752703, Control_c, 0, 64, 86
1, 752715, Note_on_c, 0, 61, 63
1, 752720, Control_c, 0, 64, 96
1, 752741, Control_c, 0, 64, 107
1, 752743, Note_on_c, 0, 52, 57
1, 752760, Control_c, 0, 64, 119
1, 752778, Control_c, 0, 64, 127
1, 752805, Note_off_c, 0, 73, 0
1, 752814, Note_off_c, 0, 61, 0
1, 752917, Control_c, 0, 64, 120
1, 752935, Note_on_c, 0, 71, 84
1, 752935, Control_c, 0, 64, 93
1, 752952, Note_off_c, 0, 52, 0
1, 752953, Control_c, 0, 64, 67
1, 752963, Note_on_c, 0, 54, 55
1, 752966, Note_on_c, 0, 62, 60
1, 752973, Control_c, 0, 64, 41
1, 753010, Control_c, 0, 64, 0
1, 753021, Note_off_c, 0, 62, 0
1, 753083, Control_c, 0, 64, 16
1, 753102, Control_c, 0, 64, 39
1, 753121, Control_c, 0, 64, 61
1, 753130, Note_off_c, 0, 54, 0
1, 753139, Control_c, 0, 64, 72
1, 753148, Note_on_c, 0, 64, 73
1, 753156, Control_c, 0, 64, 78
1, 753169, Note_on_c, 0, 55, 58
1, 753175, Control_c, 0, 64, 85
1, 753197, Control_c, 0, 64, 95
1, 753214, Control_c, 0, 64, 106
1, 753228, Note_off_c, 0, 64, 0
1, 753232, Control_c, 0, 64, 121
1, 753249, Control_c, 0, 64, 127
1, 753302, Note_off_c, 0, 55, 0
1, 753335, Note_off_c, 0, 71, 0
1, 753362, Control_c, 0, 64, 109
1, 753373, Note_on_c, 0, 69, 84
1, 753380, Control_c, 0, 64, 80
1, 753387, Note_on_c, 0, 66, 71
1, 753397, Note_on_c, 0, 57, 50
1, 753399, Control_c, 0, 64, 50
1, 753419, Control_c, 0, 64, 13
1, 753435, Control_c, 0, 64, 0
1, 753509, Control_c, 0, 64, 22
1, 753529, Control_c, 0, 64, 49
1, 753547, Control_c, 0, 64, 70
1, 753548, Note_off_c, 0, 69, 0
1, 753565, Note_off_c, 0, 57, 0
1, 753565, Control_c, 0, 64, 80
1, 753585, Control_c, 0, 64, 91
1, 753592, Note_on_c, 0, 54, 63
1, 753604, Control_c, 0, 64, 103
1, 753621, Control_c, 0, 64, 116
1, 753639, Control_c, 0, 64, 127
1, 753786, Note_on_c, 0, 78, 91
1, 753789, Control_c, 0, 64, 94
1, 753794, Note_off_c, 0, 54, 0
1, 753817, Control_c, 0, 64, 66
1, 753831, Note_on_c, 0, 52, 49
1, 753835, Control_c, 0, 64, 37
1, 753854, Control_c, 0, 64, 0
1, 753927, Control_c, 0, 64, 13
1, 753946, Control_c, 0, 64, 36
1, 753964, Control_c, 0, 64, 60
1, 753984, Control_c, 0, 64, 73
1, 753986, Note_off_c, 0, 52, 0
1, 753989, Note_off_c, 0, 78, 0
1, 754003, Control_c, 0, 64, 81
1, 754011, Note_on_c, 0, 50, 59
1, 754021, Control_c, 0, 64, 91
1, 754039, Control_c, 0, 64, 104
1, 754057, Control_c, 0, 64, 122
1, 754075, Control_c, 0, 64, 127
1, 754188, Control_c, 0, 64, 121
1, 754207, Control_c, 0, 64, 92
1, 754224, Control_c, 0, 64, 65
1, 754227, Note_on_c, 0, 67, 79
1, 754242, Control_c, 0, 64, 36
1, 754251, Note_off_c, 0, 50, 0
1, 754256, Note_on_c, 0, 59, 55
1, 754261, Control_c, 0, 64, 0
1, 754274, Note_on_c, 0, 68, 27
1, 754274, Note_off_c, 0, 68, 0
1, 754335, Control_c, 0, 64, 11
1, 754355, Control_c, 0, 64, 31
1, 754372, Note_off_c, 0, 59, 0
1, 754372, Control_c, 0, 64, 52
1, 754392, Control_c, 0, 64, 67
1, 754412, Control_c, 0, 64, 74
1, 754428, Control_c, 0, 64, 79
1, 754446, Control_c, 0, 64, 85
1, 754458, Note_on_c, 0, 47, 51
1, 754463, Control_c, 0, 64, 92
1, 754483, Control_c, 0, 64, 101
1, 754501, Control_c, 0, 64, 110
1, 754520, Control_c, 0, 64, 120
1, 754540, Control_c, 0, 64, 127
1, 754612, Control_c, 0, 64, 112
1, 754632, Note_off_c, 0, 47, 0
1, 754632, Control_c, 0, 64, 93
1, 754643, Note_on_c, 0, 55, 79
1, 754644, Note_off_c, 0, 66, 0
1, 754649, Control_c, 0, 64, 70
1, 754669, Note_on_c, 0, 52, 60
1, 754669, Control_c, 0, 64, 44
1, 754706, Control_c, 0, 64, 0
1, 754790, Control_c, 0, 64, 9
1, 754804, Note_off_c, 0, 52, 0
1, 754809, Control_c, 0, 64, 32
1, 754827, Control_c, 0, 64, 55
1, 754847, Control_c, 0, 64, 70
1, 754865, Control_c, 0, 64, 76
1, 754867, Note_on_c, 0, 50, 52
1, 754882, Control_c, 0, 64, 83
1, 754901, Control_c, 0, 64, 92
1, 754919, Control_c, 0, 64, 100
1, 754940, Control_c, 0, 64, 109
1, 754956, Control_c, 0, 64, 116
1, 754976, Control_c, 0, 64, 122
1, 755031, Control_c, 0, 64, 116
1, 755051, Control_c, 0, 64, 104
1, 755064, Note_off_c, 0, 50, 0
1, 755064, Note_off_c, 0, 55, 0
1, 755066, Control_c, 0, 64, 84
1, 755085, Note_on_c, 0, 57, 80
1, 755086, Control_c, 0, 64, 60
1, 755104, Control_c, 0, 64, 29
1, 755109, Note_on_c, 0, 49, 45
1, 755124, Control_c, 0, 64, 0
1, 755198, Control_c, 0, 64, 21
1, 755218, Control_c, 0, 64, 46
1, 755236, Control_c, 0, 64, 67
1, 755252, Control_c, 0, 64, 76
1, 755257, Note_off_c, 0, 49, 0
1, 755272, Control_c, 0, 64, 83
1, 755290, Control_c, 0, 64, 90
1, 755303, Note_on_c, 0, 45, 55
1, 755308, Control_c, 0, 64, 98
1, 755328, Control_c, 0, 64, 105
1, 755346, Control_c, 0, 64, 111
1, 755365, Control_c, 0, 64, 118
1, 755366, Note_off_c, 0, 57, 0
1, 755475, Control_c, 0, 64, 104
1, 755495, Control_c, 0, 64, 84
1, 755497, Note_on_c, 0, 66, 74
1, 755500, Note_on_c, 0, 59, 81
1, 755513, Control_c, 0, 64, 59
1, 755533, Control_c, 0, 64, 26
1, 755543, Note_on_c, 0, 50, 49
1, 755551, Note_off_c, 0, 67, 0
1, 755553, Control_c, 0, 64, 0
1, 755555, Note_off_c, 0, 45, 0
1, 755643, Control_c, 0, 64, 31
1, 755663, Control_c, 0, 64, 55
1, 755688, Control_c, 0, 64, 70
1, 755708, Control_c, 0, 64, 76
1, 755723, Note_off_c, 0, 50, 0
1, 755725, Control_c, 0, 64, 82
1, 755732, Note_on_c, 0, 55, 64
1, 755745, Control_c, 0, 64, 90
1, 755749, Note_off_c, 0, 59, 0
1, 755763, Control_c, 0, 64, 99
1, 755783, Control_c, 0, 64, 107
1, 755789, Note_off_c, 0, 55, 0
1, 755801, Control_c, 0, 64, 115
1, 755820, Control_c, 0, 64, 125
1, 755930, Control_c, 0, 64, 103
1, 755942, Note_on_c, 0, 61, 72
1, 755945, Note_on_c, 0, 64, 69
1, 755948, Control_c, 0, 64, 80
1, 755951, Note_off_c, 0, 66, 0
1, 755963, Note_on_c, 0, 57, 68
1, 755967, Control_c, 0, 64, 55
1, 755987, Control_c, 0, 64, 21
1, 756005, Control_c, 0, 64, 0
1, 756096, Control_c, 0, 64, 20
1, 756116, Control_c, 0, 64, 43
1, 756134, Control_c, 0, 64, 64
1, 756148, Note_off_c, 0, 57, 0
1, 756153, Control_c, 0, 64, 73
1, 756155, Note_off_c, 0, 64, 0
1, 756162, Note_on_c, 0, 69, 64
1, 756170, Control_c, 0, 64, 78
1, 756176, Note_on_c, 0, 52, 60
1, 756191, Control_c, 0, 64, 83
1, 756211, Control_c, 0, 64, 88
1, 756219, Note_off_c, 0, 52, 0
1, 756244, Control_c, 0, 64, 95
1, 756282, Control_c, 0, 64, 100
1, 756338, Control_c, 0, 64, 89
1, 756358, Control_c, 0, 64, 75
1, 756367, Note_off_c, 0, 69, 0
1, 756374, Control_c, 0, 64, 55
1, 756383, Note_on_c, 0, 67, 68
1, 756392, Note_on_c, 0, 52, 70
1, 756393, Control_c, 0, 64, 31
1, 756400, Note_on_c, 0, 49, 61
1, 756413, Control_c, 0, 64, 0
1, 756528, Note_off_c, 0, 61, 0
1, 756542, Control_c, 0, 64, 26
1, 756562, Control_c, 0, 64, 45
1, 756579, Note_off_c, 0, 49, 0
1, 756579, Control_c, 0, 64, 60
1, 756599, Note_on_c, 0, 45, 61
1, 756599, Control_c, 0, 64, 67
1, 756626, Control_c, 0, 64, 69
1, 756646, Control_c, 0, 64, 72
1, 756664, Control_c, 0, 64, 75
1, 756681, Control_c, 0, 64, 78
1, 756699, Control_c, 0, 64, 83
1, 756719, Control_c, 0, 64, 86
1, 756738, Control_c, 0, 67, 40
1, 756757, Note_off_c, 0, 52, 0
1, 756793, Control_c, 0, 64, 81
1, 756812, Control_c, 0, 64, 74
1, 756824, Note_on_c, 0, 62, 78
1, 756830, Control_c, 0, 64, 62
1, 756842, Note_off_c, 0, 45, 0
1, 756849, Control_c, 0, 64, 48
1, 756855, Note_on_c, 0, 50, 46
1, 756866, Control_c, 0, 64, 34
1, 756886, Control_c, 0, 64, 14
1, 756903, Control_c, 0, 64, 0
1, 757012, Note_off_c, 0, 50, 0
1, 757034, Note_on_c, 0, 52, 65
1, 757238, Note_on_c, 0, 66, 69
1, 757249, Note_off_c, 0, 52, 0
1, 757263, Note_on_c, 0, 50, 61
1, 757268, Note_off_c, 0, 67, 0
1, 757441, Note_on_c, 0, 64, 75
1, 757443, Note_off_c, 0, 66, 0
1, 757452, Note_off_c, 0, 50, 0
1, 757460, Note_on_c, 0, 49, 66
1, 757653, Note_off_c, 0, 49, 0
1, 757691, Note_on_c, 0, 66, 80
1, 757696, Note_off_c, 0, 62, 0
1, 757701, Note_on_c, 0, 50, 67
1, 757712, Control_c, 0, 64, 12
1, 757730, Control_c, 0, 64, 26
1, 757738, Note_off_c, 0, 64, 0
1, 757749, Control_c, 0, 64, 40
1, 757767, Control_c, 0, 64, 52
1, 757787, Control_c, 0, 64, 57
1, 757805, Control_c, 0, 64, 60
1, 757821, Note_off_c, 0, 66, 0
1, 757822, Control_c, 0, 64, 63
1, 757842, Control_c, 0, 64, 68
1, 757861, Control_c, 0, 64, 73
1, 757879, Control_c, 0, 64, 78
1, 757894, Note_on_c, 0, 74, 83
1, 757895, Control_c, 0, 64, 83
1, 757916, Control_c, 0, 64, 88
1, 757925, Note_off_c, 0, 50, 0
1, 757934, Control_c, 0, 64, 92
1, 757952, Control_c, 0, 64, 97
1, 757973, Control_c, 0, 64, 101
1, 757990, Control_c, 0, 64, 105
1, 758027, Control_c, 0, 64, 109
1, 758082, Control_c, 0, 64, 104
1, 758100, Control_c, 0, 64, 89
1, 758113, Note_on_c, 0, 64, 79
1, 758118, Control_c, 0, 64, 67
1, 758131, Note_on_c, 0, 45, 60
1, 758137, Control_c, 0, 64, 38
1, 758157, Control_c, 0, 64, 0
1, 758267, Control_c, 0, 64, 18
1, 758286, Control_c, 0, 64, 38
1, 758304, Control_c, 0, 64, 58
1, 758318, Note_on_c, 0, 73, 78
1, 758322, Control_c, 0, 64, 69
1, 758342, Control_c, 0, 64, 75
1, 758351, Note_off_c, 0, 74, 0
1, 758360, Control_c, 0, 64, 79
1, 758379, Control_c, 0, 64, 84
1, 758400, Control_c, 0, 64, 91
1, 758417, Control_c, 0, 64, 98
1, 758430, Note_off_c, 0, 45, 0
1, 758435, Control_c, 0, 64, 107
1, 758437, Note_off_c, 0, 64, 0
1, 758454, Control_c, 0, 64, 114
1, 758498, Note_off_c, 0, 73, 0
1, 758555, Control_c, 0, 64, 105
1, 758574, Control_c, 0, 64, 88
1, 758581, Note_on_c, 0, 74, 66
1, 758594, Control_c, 0, 64, 67
1, 758602, Note_on_c, 0, 66, 62
1, 758611, Control_c, 0, 64, 46
1, 758621, Note_on_c, 0, 38, 53
1, 758631, Control_c, 0, 64, 30
1, 758638, Note_on_c, 0, 72, 27
1, 758649, Control_c, 0, 64, 14
1, 758669, Control_c, 0, 64, 9
1, 758728, Note_off_c, 0, 66, 0
1, 758813, Note_on_c, 0, 61, 62
1, 758945, Control_c, 0, 67, 44
1, 759026, Note_off_c, 0, 61, 0
1, 759130, Note_on_c, 0, 62, 51
1, 759167, Control_c, 0, 64, 20
1, 759186, Control_c, 0, 64, 29
1, 759205, Control_c, 0, 64, 39
1, 759224, Note_off_c, 0, 38, 0
1, 759224, Control_c, 0, 64, 48
1, 759240, Control_c, 0, 64, 55
1, 759259, Control_c, 0, 64, 58
1, 759279, Control_c, 0, 64, 60
1, 759298, Control_c, 0, 64, 61
1, 759316, Control_c, 0, 64, 62
1, 759334, Control_c, 0, 64, 64
1, 759355, Control_c, 0, 64, 65
1, 759357, Poly_aftertouch_c, 0, 72, 24
1, 759455, Control_c, 0, 64, 66
1, 759532, Note_off_c, 0, 72, 0
1, 759549, Note_off_c, 0, 74, 0
1, 759661, Control_c, 0, 64, 65
1, 759677, Control_c, 0, 64, 63
1, 759685, Note_off_c, 0, 62, 0
1, 759695, Control_c, 0, 64, 60
1, 759707, Note_on_c, 0, 50, 77
1, 759714, Control_c, 0, 64, 55
1, 759734, Control_c, 0, 64, 48
1, 759751, Control_c, 0, 64, 38
1, 759770, Control_c, 0, 64, 26
1, 759788, Control_c, 0, 64, 15
1, 759808, Control_c, 0, 64, 8
1, 760130, Note_on_c, 0, 62, 69
1, 760216, Control_c, 0, 64, 16
1, 760234, Control_c, 0, 64, 27
1, 760253, Control_c, 0, 64, 40
1, 760273, Control_c, 0, 64, 52
1, 760291, Control_c, 0, 64, 60
1, 760307, Control_c, 0, 64, 63
1, 760327, Control_c, 0, 64, 66
1, 760339, Note_on_c, 0, 64, 78
1, 760342, Note_off_c, 0, 62, 0
1, 760343, Control_c, 0, 64, 69
1, 760373, Control_c, 0, 64, 71
1, 760392, Control_c, 0, 64, 74
1, 760409, Control_c, 0, 64, 78
1, 760430, Control_c, 0, 64, 81
1, 760437, Note_off_c, 0, 50, 0
1, 760448, Control_c, 0, 64, 83
1, 760467, Control_c, 0, 64, 85
1, 760596, Control_c, 0, 64, 83
1, 760614, Control_c, 0, 64, 77
1, 760620, Note_on_c, 0, 50, 82
1, 760626, Note_on_c, 0, 62, 70
1, 760632, Control_c, 0, 64, 67
1, 760652, Control_c, 0, 64, 56
1, 760671, Control_c, 0, 64, 46
1, 760672, Note_off_c, 0, 64, 0
1, 760687, Control_c, 0, 64, 34
1, 760706, Control_c, 0, 64, 22
1, 760725, Control_c, 0, 64, 12
1, 760761, Control_c, 0, 64, 0
1, 761068, Note_on_c, 0, 60, 73
1, 761076, Note_off_c, 0, 62, 0
1, 761259, Note_off_c, 0, 60, 0
1, 761266, Note_on_c, 0, 59, 73
1, 761506, Note_off_c, 0, 59, 0
1, 761506, Note_on_c, 0, 48, 78
1, 761522, Note_on_c, 0, 57, 63
1, 761525, Note_off_c, 0, 50, 0
1, 761723, Note_on_c, 0, 59, 72
1, 761744, Note_off_c, 0, 57, 0
1, 761936, Note_on_c, 0, 60, 68
1, 761945, Note_off_c, 0, 59, 0
1, 762149, Note_off_c, 0, 60, 0
1, 762149, Note_on_c, 0, 62, 70
1, 762408, Note_on_c, 0, 47, 75
1, 762412, Note_off_c, 0, 62, 0
1, 762428, Note_off_c, 0, 48, 0
1, 762434, Note_on_c, 0, 50, 56
1, 762843, Note_on_c, 0, 67, 72
1, 762860, Note_on_c, 0, 48, 58
1, 762887, Note_off_c, 0, 47, 0
1, 762913, Control_c, 0, 64, 9
1, 762931, Control_c, 0, 64, 15
1, 762951, Control_c, 0, 64, 23
1, 762970, Control_c, 0, 64, 32
1, 762987, Control_c, 0, 64, 41
1, 763006, Control_c, 0, 64, 49
1, 763025, Control_c, 0, 64, 55
1, 763043, Note_on_c, 0, 66, 77
1, 763043, Control_c, 0, 64, 58
1, 763053, Note_off_c, 0, 67, 0
1, 763063, Control_c, 0, 64, 61
1, 763082, Control_c, 0, 64, 63
1, 763099, Control_c, 0, 64, 65
1, 763116, Control_c, 0, 64, 67
1, 763155, Control_c, 0, 64, 70
1, 763258, Control_c, 0, 64, 65
1, 763275, Note_on_c, 0, 67, 77
1, 763278, Note_off_c, 0, 66, 0
1, 763278, Control_c, 0, 64, 56
1, 763281, Note_on_c, 0, 47, 66
1, 763284, Note_off_c, 0, 48, 0
1, 763294, Control_c, 0, 64, 38
1, 763311, Control_c, 0, 64, 0
1, 763401, Note_off_c, 0, 50, 0
1, 763405, Control_c, 0, 64, 11
1, 763424, Control_c, 0, 64, 29
1, 763442, Control_c, 0, 64, 46
1, 763462, Control_c, 0, 64, 60
1, 763472, Note_on_c, 0, 52, 62
1, 763479, Control_c, 0, 64, 66
1, 763496, Control_c, 0, 64, 69
1, 763516, Control_c, 0, 64, 72
1, 763534, Control_c, 0, 64, 74
1, 763554, Control_c, 0, 64, 78
1, 763571, Control_c, 0, 64, 82
1, 763591, Control_c, 0, 64, 86
1, 763647, Control_c, 0, 64, 82
1, 763664, Control_c, 0, 64, 71
1, 763682, Control_c, 0, 64, 54
1, 763687, Note_on_c, 0, 69, 79
1, 763692, Note_on_c, 0, 48, 65
1, 763694, Note_off_c, 0, 52, 0
1, 763700, Note_on_c, 0, 45, 57
1, 763700, Control_c, 0, 64, 30
1, 763705, Note_off_c, 0, 47, 0
1, 763719, Control_c, 0, 64, 0
1, 763733, Note_off_c, 0, 67, 0
1, 763794, Control_c, 0, 64, 18
1, 763814, Control_c, 0, 64, 39
1, 763831, Control_c, 0, 64, 58
1, 763849, Control_c, 0, 64, 67
1, 763868, Control_c, 0, 64, 71
1, 763878, Note_on_c, 0, 50, 73
1, 763883, Note_on_c, 0, 71, 81
1, 763887, Note_off_c, 0, 45, 0
1, 763887, Control_c, 0, 64, 75
1, 763905, Control_c, 0, 64, 81
1, 763909, Note_off_c, 0, 48, 0
1, 763919, Note_off_c, 0, 69, 0
1, 763923, Control_c, 0, 64, 87
1, 763942, Control_c, 0, 64, 93
1, 763962, Control_c, 0, 64, 99
1, 763979, Control_c, 0, 64, 104
1, 764073, Control_c, 0, 64, 89
1, 764093, Control_c, 0, 64, 68
1, 764107, Note_on_c, 0, 72, 80
1, 764109, Note_off_c, 0, 71, 0
1, 764110, Note_on_c, 0, 43, 65
1, 764120, Control_c, 0, 64, 43
1, 764120, Note_on_c, 0, 52, 71
1, 764128, Note_off_c, 0, 50, 0
1, 764155, Control_c, 0, 64, 0
1, 764249, Control_c, 0, 64, 28
1, 764269, Control_c, 0, 64, 50
1, 764286, Control_c, 0, 64, 65
1, 764304, Control_c, 0, 64, 71
1, 764312, Note_on_c, 0, 50, 73
1, 764312, Note_on_c, 0, 71, 80
1, 764323, Control_c, 0, 64, 75
1, 764327, Note_off_c, 0, 43, 0
1, 764341, Control_c, 0, 64, 80
1, 764349, Note_off_c, 0, 72, 0
1, 764360, Control_c, 0, 64, 87
1, 764362, Note_off_c, 0, 52, 0
1, 764379, Control_c, 0, 64, 95
1, 764398, Control_c, 0, 64, 104
1, 764416, Control_c, 0, 64, 113
1, 764435, Control_c, 0, 64, 117
1, 764490, Control_c, 0, 64, 101
1, 764507, Control_c, 0, 64, 80
1, 764527, Control_c, 0, 64, 58
1, 764533, Note_on_c, 0, 69, 81
1, 764536, Note_off_c, 0, 71, 0
1, 764544, Note_on_c, 0, 45, 66
1, 764546, Control_c, 0, 64, 32
1, 764550, Note_on_c, 0, 53, 67
1, 764552, Note_off_c, 0, 50, 0
1, 764563, Control_c, 0, 64, 0
1, 764718, Note_off_c, 0, 69, 0
1, 764730, Note_off_c, 0, 45, 0
1, 764730, Control_c, 0, 64, 8
1, 764742, Note_on_c, 0, 67, 83
1, 764748, Control_c, 0, 64, 23
1, 764759, Note_on_c, 0, 47, 67
1, 764767, Control_c, 0, 64, 43
1, 764786, Control_c, 0, 64, 62
1, 764798, Note_off_c, 0, 53, 0
1, 764804, Control_c, 0, 64, 72
1, 764826, Control_c, 0, 64, 81
1, 764843, Control_c, 0, 64, 90
1, 764850, Note_off_c, 0, 47, 0
1, 764859, Control_c, 0, 64, 100
1, 764878, Control_c, 0, 64, 110
1, 764897, Control_c, 0, 64, 119
1, 764915, Control_c, 0, 64, 127
1, 765029, Control_c, 0, 64, 115
1, 765050, Note_on_c, 0, 79, 86
1, 765057, Control_c, 0, 64, 97
1, 765075, Control_c, 0, 64, 76
1, 765079, Note_off_c, 0, 67, 0
1, 765090, Note_on_c, 0, 48, 47
1, 765091, Note_on_c, 0, 53, 52
1, 765095, Control_c, 0, 64, 55
1, 765111, Control_c, 0, 64, 38
1, 765129, Control_c, 0, 64, 18
1, 765148, Control_c, 0, 64, 0
1, 765228, Note_off_c, 0, 53, 0
1, 765241, Control_c, 0, 64, 19
1, 765260, Control_c, 0, 64, 35
1, 765273, Note_on_c, 0, 52, 53
1, 765279, Control_c, 0, 64, 51
1, 765296, Control_c, 0, 64, 64
1, 765314, Control_c, 0, 64, 69
1, 765333, Control_c, 0, 64, 73
1, 765352, Control_c, 0, 64, 79
1, 765370, Control_c, 0, 64, 86
1, 765390, Control_c, 0, 64, 92
1, 765427, Control_c, 0, 64, 87
1, 765445, Control_c, 0, 64, 67
1, 765455, Note_on_c, 0, 47, 65
1, 765459, Note_off_c, 0, 48, 0
1, 765462, Note_off_c, 0, 52, 0
1, 765463, Control_c, 0, 64, 38
1, 765499, Control_c, 0, 64, 0
1, 765537, Control_c, 0, 64, 19
1, 765554, Note_on_c, 0, 53, 65
1, 765556, Control_c, 0, 64, 41
1, 765575, Control_c, 0, 64, 62
1, 765593, Control_c, 0, 64, 71
1, 765613, Control_c, 0, 64, 76
1, 765621, Note_off_c, 0, 47, 0
1, 765628, Note_off_c, 0, 53, 0
1, 765630, Note_on_c, 0, 52, 63
1, 765630, Control_c, 0, 64, 81
1, 765649, Control_c, 0, 64, 86
1, 765666, Control_c, 0, 64, 92
1, 765685, Control_c, 0, 64, 97
1, 765704, Control_c, 0, 64, 101
1, 765729, Note_off_c, 0, 52, 0
1, 765737, Note_on_c, 0, 51, 66
1, 765816, Control_c, 0, 64, 95
1, 765835, Control_c, 0, 64, 81
1, 765850, Note_off_c, 0, 51, 0
1, 765850, Control_c, 0, 64, 60
1, 765867, Note_on_c, 0, 48, 53
1, 765870, Control_c, 0, 64, 38
1, 765881, Note_on_c, 0, 52, 55
1, 765889, Control_c, 0, 64, 9
1, 765908, Control_c, 0, 64, 0
1, 766091, Control_c, 0, 64, 18
1, 766110, Note_off_c, 0, 52, 0
1, 766110, Control_c, 0, 64, 35
1, 766128, Control_c, 0, 64, 52
1, 766148, Control_c, 0, 64, 63
1, 766150, Note_on_c, 0, 78, 79
1, 766163, Note_off_c, 0, 79, 0
1, 766165, Control_c, 0, 64, 66
1, 766185, Control_c, 0, 64, 69
1, 766203, Control_c, 0, 64, 72
1, 766222, Control_c, 0, 64, 76
1, 766242, Control_c, 0, 64, 82
1, 766260, Control_c, 0, 64, 87
1, 766295, Note_off_c, 0, 48, 0
1, 766334, Control_c, 0, 64, 78
1, 766352, Control_c, 0, 64, 63
1, 766370, Note_on_c, 0, 81, 85
1, 766370, Control_c, 0, 64, 44
1, 766380, Note_off_c, 0, 78, 0
1, 766388, Note_on_c, 0, 60, 55
1, 766388, Control_c, 0, 64, 18
1, 766394, Note_on_c, 0, 52, 50
1, 766408, Control_c, 0, 64, 0
1, 766501, Control_c, 0, 64, 13
1, 766521, Control_c, 0, 64, 29
1, 766537, Control_c, 0, 64, 48
1, 766555, Note_off_c, 0, 60, 0
1, 766556, Control_c, 0, 64, 61
1, 766573, Control_c, 0, 64, 65
1, 766577, Note_on_c, 0, 79, 83
1, 766593, Control_c, 0, 64, 67
1, 766612, Control_c, 0, 64, 70
1, 766630, Control_c, 0, 64, 73
1, 766639, Note_off_c, 0, 81, 0
1, 766648, Control_c, 0, 64, 77
1, 766652, Note_off_c, 0, 52, 0
1, 766669, Control_c, 0, 64, 81
1, 766686, Control_c, 0, 64, 84
1, 766742, Control_c, 0, 64, 76
1, 766759, Control_c, 0, 64, 62
1, 766780, Control_c, 0, 64, 43
1, 766796, Note_on_c, 0, 78, 80
1, 766798, Control_c, 0, 64, 21
1, 766812, Note_on_c, 0, 45, 52
1, 766815, Control_c, 0, 64, 0
1, 766828, Note_off_c, 0, 79, 0
1, 766938, Control_c, 0, 64, 18
1, 766956, Control_c, 0, 64, 34
1, 766976, Control_c, 0, 64, 51
1, 766991, Control_c, 0, 64, 61
1, 767003, Note_on_c, 0, 79, 84
1, 767010, Control_c, 0, 64, 65
1, 767011, Note_off_c, 0, 45, 0
1, 767016, Note_off_c, 0, 78, 0
1, 767029, Control_c, 0, 64, 67
1, 767048, Control_c, 0, 64, 70
1, 767066, Control_c, 0, 64, 72
1, 767085, Control_c, 0, 64, 75
1, 767104, Control_c, 0, 64, 78
1, 767122, Control_c, 0, 64, 82
1, 767141, Control_c, 0, 64, 85
1, 767214, Control_c, 0, 64, 81
1, 767233, Control_c, 0, 64, 71
1, 767252, Control_c, 0, 64, 56
1, 767255, Note_on_c, 0, 52, 76
1, 767260, Note_on_c, 0, 76, 72
1, 767268, Control_c, 0, 64, 38
1, 767292, Note_on_c, 0, 48, 54
1, 767308, Control_c, 0, 64, 0
1, 767312, Note_off_c, 0, 79, 0
1, 767400, Control_c, 0, 64, 11
1, 767418, Control_c, 0, 64, 30
1, 767437, Control_c, 0, 64, 49
1, 767457, Control_c, 0, 64, 64
1, 767474, Control_c, 0, 64, 69
1, 767494, Control_c, 0, 64, 71
1, 767531, Control_c, 0, 64, 75
1, 767547, Control_c, 0, 64, 77
1, 767564, Note_off_c, 0, 76, 0
1, 767565, Control_c, 0, 64, 80
1, 767585, Control_c, 0, 64, 82
1, 767660, Control_c, 0, 64, 78
1, 767678, Control_c, 0, 64, 72
1, 767689, Note_off_c, 0, 52, 0
1, 767690, Note_on_c, 0, 76, 84
1, 767692, Note_off_c, 0, 48, 0
1, 767697, Control_c, 0, 64, 63
1, 767702, Note_on_c, 0, 47, 53
1, 767703, Note_on_c, 0, 51, 63
1, 767716, Control_c, 0, 64, 54
1, 767735, Control_c, 0, 64, 43
1, 767753, Control_c, 0, 64, 28
1, 767772, Control_c, 0, 64, 12
1, 767808, Control_c, 0, 64, 0
1, 767919, Note_on_c, 0, 78, 79
1, 767937, Note_off_c, 0, 51, 0
1, 767938, Note_off_c, 0, 76, 0
1, 767947, Note_on_c, 0, 52, 58
1, 767947, Control_c, 0, 64, 12
1, 767968, Control_c, 0, 64, 23
1, 767984, Control_c, 0, 64, 38
1, 768002, Control_c, 0, 64, 53
1, 768021, Control_c, 0, 64, 64
1, 768040, Control_c, 0, 64, 67
1, 768058, Control_c, 0, 64, 69
1, 768077, Control_c, 0, 64, 71
1, 768096, Control_c, 0, 64, 73
1, 768115, Control_c, 0, 64, 76
1, 768117, Note_off_c, 0, 52, 0
1, 768133, Note_on_c, 0, 51, 59
1, 768152, Control_c, 0, 64, 78
1, 768179, Note_off_c, 0, 78, 0
1, 768221, Note_on_c, 0, 77, 64
1, 768315, Note_on_c, 0, 78, 73
1, 768319, Note_off_c, 0, 51, 0
1, 768320, Note_off_c, 0, 77, 0
1, 768350, Note_on_c, 0, 49, 53
1, 768354, Control_c, 0, 64, 76
1, 768392, Control_c, 0, 64, 72
1, 768403, Note_on_c, 0, 79, 78
1, 768407, Note_off_c, 0, 78, 0
1, 768409, Control_c, 0, 64, 66
1, 768429, Control_c, 0, 64, 56
1, 768448, Control_c, 0, 64, 44
1, 768467, Control_c, 0, 64, 29
1, 768486, Control_c, 0, 64, 14
1, 768504, Control_c, 0, 64, 9
1, 768534, Note_on_c, 0, 78, 75
1, 768538, Note_off_c, 0, 49, 0
1, 768541, Note_on_c, 0, 51, 58
1, 768583, Note_off_c, 0, 79, 0
1, 768697, Note_off_c, 0, 47, 0
1, 768738, Note_off_c, 0, 51, 0
1, 768752, Note_on_c, 0, 52, 69
1, 768957, Note_off_c, 0, 78, 0
1, 768971, Note_on_c, 0, 69, 76
1, 768981, Note_on_c, 0, 54, 70
1, 768998, Note_off_c, 0, 52, 0
1, 769107, Control_c, 0, 67, 40
1, 769170, Note_on_c, 0, 55, 75
1, 769172, Note_off_c, 0, 54, 0
1, 769383, Note_off_c, 0, 55, 0
1, 769384, Control_c, 0, 67, 36
1, 769389, Note_on_c, 0, 57, 79
1, 769398, Note_off_c, 0, 69, 0
1, 769403, Control_c, 0, 64, 13
1, 769439, Control_c, 0, 67, 31
1, 769581, Note_off_c, 0, 57, 0
1, 769584, Note_on_c, 0, 59, 80
1, 769792, Note_on_c, 0, 78, 83
1, 769811, Note_on_c, 0, 61, 77
1, 769816, Note_off_c, 0, 59, 0
1, 769931, Control_c, 0, 64, 20
1, 769951, Control_c, 0, 64, 25
1, 769969, Control_c, 0, 64, 29
1, 770005, Note_on_c, 0, 63, 83
1, 770019, Note_off_c, 0, 61, 0
1, 770076, Note_off_c, 0, 78, 0
1, 770273, Note_on_c, 0, 64, 79
1, 770280, Note_on_c, 0, 79, 74
1, 770287, Note_off_c, 0, 63, 0
1, 770484, Note_on_c, 0, 78, 77
1, 770489, Note_off_c, 0, 79, 0
1, 770708, Note_on_c, 0, 79, 78
1, 770738, Note_on_c, 0, 52, 49
1, 770745, Note_off_c, 0, 78, 0
1, 770907, Note_on_c, 0, 81, 80
1, 770915, Note_off_c, 0, 79, 0
1, 771071, Note_off_c, 0, 52, 0
1, 771138, Note_on_c, 0, 79, 76
1, 771151, Note_on_c, 0, 54, 48
1, 771166, Note_off_c, 0, 81, 0
1, 771321, Note_on_c, 0, 78, 72
1, 771360, Note_off_c, 0, 79, 0
1, 771386, Note_off_c, 0, 54, 0
1, 771542, Note_on_c, 0, 76, 70
1, 771561, Note_off_c, 0, 78, 0
1, 771563, Note_on_c, 0, 55, 52
1, 771749, Note_off_c, 0, 76, 0
1, 771765, Note_on_c, 0, 74, 74
1, 771875, Note_off_c, 0, 55, 0
1, 771989, Note_on_c, 0, 72, 71
1, 771990, Note_off_c, 0, 74, 0
1, 771996, Note_on_c, 0, 57, 49
1, 772189, Note_on_c, 0, 71, 65
1, 772222, Note_off_c, 0, 72, 0
1, 772333, Note_off_c, 0, 57, 0
1, 772393, Note_on_c, 0, 69, 70
1, 772402, Note_on_c, 0, 59, 53
1, 772408, Note_off_c, 0, 71, 0
1, 772455, Control_c, 0, 64, 36
1, 772475, Control_c, 0, 64, 43
1, 772492, Control_c, 0, 64, 50
1, 772512, Control_c, 0, 64, 55
1, 772539, Control_c, 0, 64, 58
1, 772559, Control_c, 0, 64, 60
1, 772577, Note_off_c, 0, 69, 0
1, 772577, Control_c, 0, 64, 63
1, 772594, Control_c, 0, 64, 65
1, 772604, Note_off_c, 0, 59, 0
1, 772606, Note_on_c, 0, 67, 67
1, 772609, Control_c, 0, 64, 67
1, 772630, Control_c, 0, 64, 68
1, 772686, Control_c, 0, 64, 70
1, 772741, Control_c, 0, 64, 67
1, 772759, Control_c, 0, 64, 63
1, 772778, Control_c, 0, 64, 58
1, 772782, Note_off_c, 0, 67, 0
1, 772795, Control_c, 0, 64, 51
1, 772812, Note_on_c, 0, 66, 60
1, 772812, Control_c, 0, 64, 41
1, 772833, Control_c, 0, 64, 31
1, 772838, Note_on_c, 0, 60, 39
1, 772852, Control_c, 0, 64, 23
1, 772983, Note_off_c, 0, 60, 0
1, 773010, Note_on_c, 0, 62, 56
1, 773018, Note_off_c, 0, 64, 0
1, 773215, Note_on_c, 0, 64, 80
1, 773222, Note_off_c, 0, 62, 0
1, 773248, Note_on_c, 0, 60, 57
1, 773390, Note_off_c, 0, 60, 0
1, 773408, Note_on_c, 0, 63, 80
1, 773434, Note_on_c, 0, 59, 55
1, 773450, Note_off_c, 0, 64, 0
1, 773631, Note_off_c, 0, 59, 0
1, 773660, Note_on_c, 0, 64, 77
1, 773684, Note_on_c, 0, 60, 54
1, 773685, Note_off_c, 0, 63, 0
1, 773750, Note_off_c, 0, 64, 0
1, 773863, Note_off_c, 0, 60, 0
1, 773878, Note_on_c, 0, 59, 49
1, 774068, Note_off_c, 0, 59, 0
1, 774082, Note_on_c, 0, 64, 65
1, 774104, Note_on_c, 0, 57, 51
1, 774170, Note_off_c, 0, 64, 0
1, 774235, Note_off_c, 0, 57, 0
1, 774275, Note_on_c, 0, 55, 53
1, 774469, Note_off_c, 0, 55, 0
1, 774501, Note_on_c, 0, 64, 63
1, 774516, Note_on_c, 0, 57, 54
1, 774680, Note_off_c, 0, 57, 0
1, 774705, Note_on_c, 0, 54, 61
1, 774902, Note_off_c, 0, 54, 0
1, 774902, Note_off_c, 0, 64, 0
1, 774917, Note_on_c, 0, 63, 74
1, 774932, Note_on_c, 0, 55, 56
1, 775098, Note_off_c, 0, 55, 0
1, 775118, Note_on_c, 0, 61, 75
1, 775132, Note_off_c, 0, 63, 0
1, 775134, Note_on_c, 0, 57, 58
1, 775303, Note_off_c, 0, 57, 0
1, 775352, Note_on_c, 0, 63, 68
1, 775356, Note_off_c, 0, 61, 0
1, 775369, Note_on_c, 0, 59, 47
1, 775392, Note_off_c, 0, 66, 0
1, 775517, Note_off_c, 0, 59, 0
1, 775548, Note_on_c, 0, 60, 63
1, 775732, Note_off_c, 0, 60, 0
1, 775739, Note_on_c, 0, 66, 79
1, 775762, Note_on_c, 0, 59, 62
1, 775910, Note_off_c, 0, 59, 0
1, 775942, Note_on_c, 0, 67, 80
1, 775955, Note_on_c, 0, 57, 64
1, 775972, Note_off_c, 0, 66, 0
1, 776121, Note_off_c, 0, 57, 0
1, 776165, Note_on_c, 0, 66, 80
1, 776179, Note_off_c, 0, 67, 0
1, 776184, Note_on_c, 0, 59, 63
1, 776259, Note_off_c, 0, 66, 0
1, 776381, Note_off_c, 0, 63, 0
1, 776384, Note_off_c, 0, 59, 0
1, 776394, Note_on_c, 0, 54, 62
1, 776587, Note_on_c, 0, 66, 74
1, 776592, Poly_aftertouch_c, 0, 63, 127
1, 776596, Note_off_c, 0, 54, 0
1, 776606, Note_on_c, 0, 51, 55
1, 776616, Poly_aftertouch_c, 0, 63, 0
1, 776707, Note_off_c, 0, 66, 0
1, 776761, Note_off_c, 0, 51, 0
1, 776791, Note_on_c, 0, 54, 64
1, 776983, Note_off_c, 0, 54, 0
1, 777003, Note_on_c, 0, 66, 72
1, 777026, Note_on_c, 0, 47, 49
1, 777184, Note_off_c, 0, 47, 0
1, 777218, Note_on_c, 0, 51, 60
1, 777417, Note_off_c, 0, 51, 0
1, 777436, Note_on_c, 0, 67, 71
1, 777445, Note_on_c, 0, 49, 51
1, 777599, Note_off_c, 0, 49, 0
1, 777616, Note_off_c, 0, 67, 0
1, 777626, Note_on_c, 0, 69, 72
1, 777635, Note_on_c, 0, 47, 49
1, 777776, Note_off_c, 0, 47, 0
1, 777848, Note_on_c, 0, 52, 50
1, 777850, Note_on_c, 0, 67, 63
1, 777859, Note_off_c, 0, 66, 0
1, 777894, Note_off_c, 0, 69, 0
1, 778036, Note_on_c, 0, 64, 73
1, 778060, Note_off_c, 0, 52, 0
1, 778063, Note_on_c, 0, 48, 54
1, 778250, Note_on_c, 0, 63, 74
1, 778260, Note_off_c, 0, 48, 0
1, 778280, Note_on_c, 0, 47, 55
1, 778294, Note_off_c, 0, 64, 0
1, 778451, Note_off_c, 0, 47, 0
1, 778460, Note_on_c, 0, 66, 79
1, 778474, Note_on_c, 0, 45, 63
1, 778481, Note_off_c, 0, 63, 0
1, 778667, Note_on_c, 0, 64, 73
1, 778668, Note_off_c, 0, 45, 0
1, 778675, Note_on_c, 0, 43, 60
1, 778720, Note_off_c, 0, 67, 0
1, 778754, Note_off_c, 0, 66, 0
1, 778847, Note_off_c, 0, 64, 0
1, 778853, Note_on_c, 0, 62, 78
1, 778856, Note_off_c, 0, 43, 0
1, 778873, Note_on_c, 0, 47, 58
1, 779034, Note_off_c, 0, 47, 0
1, 779068, Note_on_c, 0, 61, 78
1, 779087, Note_on_c, 0, 52, 70
1, 779114, Note_off_c, 0, 62, 0
1, 779273, Note_on_c, 0, 60, 78
1, 779281, Note_on_c, 0, 51, 75
1, 779316, Note_off_c, 0, 61, 0
1, 779331, Note_off_c, 0, 52, 0
1, 779499, Note_off_c, 0, 60, 0
1, 779503, Note_on_c, 0, 64, 72
1, 779503, Note_on_c, 0, 52, 82
1, 779512, Note_on_c, 0, 59, 73
1, 779521, Note_off_c, 0, 51, 0
1, 779678, Note_off_c, 0, 52, 0
1, 779707, Note_off_c, 0, 59, 0
1, 779727, Note_on_c, 0, 57, 74
1, 779900, Note_off_c, 0, 57, 0
1, 779938, Note_on_c, 0, 55, 68
1, 779943, Note_on_c, 0, 50, 80
1, 779945, Control_c, 0, 64, 19
1, 780068, Control_c, 0, 64, 15
1, 780115, Note_off_c, 0, 50, 0
1, 780120, Control_c, 0, 64, 10
1, 780139, Note_off_c, 0, 55, 0
1, 780147, Note_on_c, 0, 54, 69
1, 780319, Note_off_c, 0, 54, 0
1, 780363, Control_c, 0, 64, 16
1, 780369, Note_on_c, 0, 55, 69
1, 780373, Note_on_c, 0, 48, 79
1, 780382, Control_c, 0, 64, 26
1, 780399, Control_c, 0, 64, 40
1, 780419, Control_c, 0, 64, 52
1, 780423, Note_off_c, 0, 64, 0
1, 780437, Control_c, 0, 64, 57
1, 780455, Control_c, 0, 64, 60
1, 780472, Control_c, 0, 64, 65
1, 780492, Control_c, 0, 64, 70
1, 780510, Control_c, 0, 64, 77
1, 780512, Note_off_c, 0, 55, 0
1, 780530, Control_c, 0, 64, 85
1, 780535, Note_off_c, 0, 48, 0
1, 780548, Control_c, 0, 64, 93
1, 780566, Note_on_c, 0, 66, 61
1, 780566, Control_c, 0, 64, 101
1, 780586, Control_c, 0, 64, 106
1, 780624, Control_c, 0, 64, 111
1, 780695, Control_c, 0, 64, 98
1, 780715, Control_c, 0, 64, 81
1, 780734, Control_c, 0, 64, 61
1, 780750, Note_off_c, 0, 66, 0
1, 780751, Control_c, 0, 64, 44
1, 780771, Control_c, 0, 64, 30
1, 780778, Note_on_c, 0, 67, 64
1, 780778, Note_on_c, 0, 60, 69
1, 780790, Control_c, 0, 64, 18
1, 780897, Note_off_c, 0, 60, 0
1, 780991, Note_off_c, 0, 67, 0
1, 780994, Note_on_c, 0, 64, 64
1, 781191, Note_off_c, 0, 64, 0
1, 781200, Note_on_c, 0, 66, 58
1, 781373, Note_off_c, 0, 66, 0
1, 781406, Note_on_c, 0, 67, 65
1, 781406, Note_on_c, 0, 52, 64
1, 781579, Note_off_c, 0, 52, 0
1, 781591, Note_on_c, 0, 50, 68
1, 781596, Note_off_c, 0, 67, 0
1, 781599, Note_on_c, 0, 68, 71
1, 781780, Note_off_c, 0, 68, 0
1, 781791, Note_on_c, 0, 69, 72
1, 781802, Note_on_c, 0, 48, 68
1, 781803, Note_off_c, 0, 50, 0
1, 781997, Note_off_c, 0, 48, 0
1, 782002, Note_on_c, 0, 50, 72
1, 782003, Note_on_c, 0, 71, 82
1, 782018, Note_off_c, 0, 69, 0
1, 782198, Note_on_c, 0, 72, 84
1, 782199, Note_on_c, 0, 48, 74
1, 782202, Note_off_c, 0, 50, 0
1, 782229, Note_off_c, 0, 71, 0
1, 782392, Note_off_c, 0, 48, 0
1, 782402, Note_on_c, 0, 74, 81
1, 782402, Note_on_c, 0, 47, 77
1, 782409, Note_off_c, 0, 72, 0
1, 782601, Note_on_c, 0, 76, 81
1, 782605, Note_off_c, 0, 74, 0
1, 782612, Note_on_c, 0, 45, 80
1, 782632, Note_off_c, 0, 47, 0
1, 782845, Note_off_c, 0, 45, 0
1, 782856, Note_on_c, 0, 74, 78
1, 782858, Note_on_c, 0, 47, 83
1, 782886, Note_off_c, 0, 76, 0
1, 783035, Note_off_c, 0, 74, 0
1, 783045, Note_off_c, 0, 47, 0
1, 783056, Note_on_c, 0, 69, 74
1, 783263, Note_on_c, 0, 68, 69
1, 783265, Note_on_c, 0, 59, 67
1, 783273, Note_off_c, 0, 69, 0
1, 783392, Poly_aftertouch_c, 0, 49, 0
1, 783403, Note_off_c, 0, 59, 0
1, 783462, Note_off_c, 0, 68, 0
1, 783474, Note_on_c, 0, 66, 70
1, 783689, Note_off_c, 0, 66, 0
1, 783693, Note_on_c, 0, 68, 64
1, 783882, Note_off_c, 0, 68, 0
1, 783898, Note_on_c, 0, 65, 68
1, 783903, Note_on_c, 0, 50, 54
1, 784080, Note_off_c, 0, 50, 0
1, 784087, Note_off_c, 0, 65, 0
1, 784099, Note_on_c, 0, 64, 69
1, 784101, Note_on_c, 0, 48, 53
1, 784252, Note_off_c, 0, 48, 0
1, 784270, Note_off_c, 0, 64, 0
1, 784285, Note_on_c, 0, 62, 59
1, 784293, Note_on_c, 0, 47, 57
1, 784446, Note_off_c, 0, 47, 0
1, 784467, Note_off_c, 0, 62, 0
1, 784493, Note_on_c, 0, 64, 60
1, 784504, Note_on_c, 0, 48, 58
1, 784680, Note_off_c, 0, 64, 0
1, 784680, Note_on_c, 0, 62, 62
1, 784684, Note_off_c, 0, 48, 0
1, 784722, Note_on_c, 0, 47, 49
1, 784877, Note_off_c, 0, 62, 0
1, 784884, Note_off_c, 0, 47, 0
1, 784904, Note_on_c, 0, 60, 65
1, 784912, Note_on_c, 0, 45, 57
1, 785080, Note_off_c, 0, 60, 0
1, 785091, Note_off_c, 0, 45, 0
1, 785101, Note_on_c, 0, 59, 64
1, 785106, Note_on_c, 0, 44, 56
1, 785120, Control_c, 0, 64, 14
1, 785291, Note_off_c, 0, 44, 0
1, 785305, Control_c, 0, 64, 25
1, 785309, Note_off_c, 0, 59, 0
1, 785317, Note_on_c, 0, 60, 66
1, 785324, Control_c, 0, 64, 35
1, 785340, Note_on_c, 0, 45, 52
1, 785341, Control_c, 0, 64, 46
1, 785361, Control_c, 0, 64, 56
1, 785379, Control_c, 0, 64, 62
1, 785399, Control_c, 0, 64, 66
1, 785416, Control_c, 0, 64, 69
1, 785422, Note_off_c, 0, 60, 0
1, 785435, Control_c, 0, 64, 73
1, 785454, Control_c, 0, 64, 76
1, 785469, Note_off_c, 0, 45, 0
1, 785472, Control_c, 0, 64, 79
1, 785492, Control_c, 0, 64, 81
1, 785512, Note_on_c, 0, 60, 68
1, 785649, Control_c, 0, 64, 78
1, 785667, Control_c, 0, 64, 73
1, 785686, Control_c, 0, 64, 64
1, 785703, Control_c, 0, 64, 50
1, 785722, Control_c, 0, 64, 35
1, 785740, Control_c, 0, 64, 18
1, 785750, Note_on_c, 0, 62, 66
1, 785759, Note_on_c, 0, 57, 59
1, 785759, Control_c, 0, 64, 11
1, 785944, Note_off_c, 0, 62, 0
1, 785949, Note_on_c, 0, 64, 68
1, 785955, Note_off_c, 0, 57, 0
1, 786159, Note_off_c, 0, 64, 0
1, 786161, Note_on_c, 0, 62, 70
1, 786355, Note_on_c, 0, 63, 70
1, 786363, Note_on_c, 0, 59, 70
1, 786366, Note_off_c, 0, 62, 0
1, 786541, Note_off_c, 0, 59, 0
1, 786551, Note_on_c, 0, 66, 74
1, 786566, Note_on_c, 0, 57, 67
1, 786571, Note_off_c, 0, 63, 0
1, 786749, Note_off_c, 0, 66, 0
1, 786750, Note_on_c, 0, 67, 74
1, 786759, Note_on_c, 0, 55, 71
1, 786760, Note_off_c, 0, 57, 0
1, 786938, Note_off_c, 0, 55, 0
1, 786961, Note_on_c, 0, 66, 74
1, 786969, Note_off_c, 0, 67, 0
1, 786975, Note_on_c, 0, 57, 68
1, 787161, Note_on_c, 0, 67, 72
1, 787176, Note_on_c, 0, 55, 66
1, 787184, Note_off_c, 0, 57, 0
1, 787191, Note_off_c, 0, 66, 0
1, 787360, Note_on_c, 0, 69, 74
1, 787364, Note_off_c, 0, 55, 0
1, 787368, Note_off_c, 0, 67, 0
1, 787370, Note_on_c, 0, 54, 67
1, 787545, Note_off_c, 0, 54, 0
1, 787558, Note_on_c, 0, 71, 78
1, 787563, Note_off_c, 0, 69, 0
1, 787571, Note_on_c, 0, 52, 62
1, 787774, Note_on_c, 0, 69, 77
1, 787778, Note_off_c, 0, 52, 0
1, 787782, Note_on_c, 0, 54, 70
1, 787808, Note_off_c, 0, 71, 0
1, 787856, Control_c, 0, 64, 18
1, 787873, Control_c, 0, 64, 24
1, 787891, Control_c, 0, 64, 34
1, 787911, Control_c, 0, 64, 47
1, 787919, Note_off_c, 0, 54, 0
1, 787929, Control_c, 0, 64, 59
1, 787947, Control_c, 0, 64, 64
1, 787960, Note_off_c, 0, 60, 0
1, 787962, Note_on_c, 0, 52, 67
1, 787966, Control_c, 0, 64, 67
1, 787985, Control_c, 0, 64, 70
1, 788004, Control_c, 0, 64, 73
1, 788022, Control_c, 0, 64, 76
1, 788041, Control_c, 0, 64, 80
1, 788060, Control_c, 0, 64, 83
1, 788116, Control_c, 0, 64, 79
1, 788133, Control_c, 0, 64, 69
1, 788151, Control_c, 0, 64, 57
1, 788163, Note_on_c, 0, 67, 77
1, 788170, Control_c, 0, 64, 45
1, 788172, Note_off_c, 0, 52, 0
1, 788174, Note_on_c, 0, 50, 70
1, 788189, Control_c, 0, 64, 31
1, 788208, Control_c, 0, 64, 19
1, 788226, Control_c, 0, 64, 12
1, 788366, Note_off_c, 0, 50, 0
1, 788367, Note_on_c, 0, 49, 75
1, 788584, Note_off_c, 0, 49, 0
1, 788587, Note_on_c, 0, 66, 74
1, 788598, Note_on_c, 0, 50, 70
1, 788647, Note_off_c, 0, 67, 0
1, 788785, Note_off_c, 0, 50, 0
1, 788785, Note_on_c, 0, 48, 72
1, 788978, Note_off_c, 0, 48, 0
1, 788979, Note_off_c, 0, 66, 0
1, 788980, Note_on_c, 0, 64, 73
1, 788992, Note_on_c, 0, 47, 68
1, 789153, Note_off_c, 0, 47, 0
1, 789163, Note_on_c, 0, 45, 74
1, 789378, Note_off_c, 0, 45, 0
1, 789404, Note_on_c, 0, 62, 70
1, 789408, Note_on_c, 0, 47, 60
1, 789416, Note_off_c, 0, 64, 0
1, 789574, Note_off_c, 0, 47, 0
1, 789594, Note_off_c, 0, 62, 0
1, 789601, Note_on_c, 0, 59, 70
1, 789617, Note_on_c, 0, 45, 60
1, 789784, Note_off_c, 0, 45, 0
1, 789800, Note_off_c, 0, 59, 0
1, 789806, Note_on_c, 0, 60, 69
1, 789817, Note_on_c, 0, 43, 57
1, 789839, Control_c, 0, 64, 8
1, 789987, Note_off_c, 0, 60, 0
1, 789988, Control_c, 0, 64, 0
1, 790003, Note_off_c, 0, 43, 0
1, 790011, Note_on_c, 0, 57, 59
1, 790037, Note_on_c, 0, 42, 53
1, 790175, Note_off_c, 0, 57, 0
1, 790184, Note_off_c, 0, 42, 0
1, 790191, Control_c, 0, 64, 17
1, 790211, Control_c, 0, 64, 32
1, 790216, Note_on_c, 0, 59, 65
1, 790227, Note_off_c, 0, 69, 0
1, 790228, Control_c, 0, 64, 48
1, 790230, Note_on_c, 0, 43, 54
1, 790247, Control_c, 0, 64, 60
1, 790266, Control_c, 0, 64, 65
1, 790271, Note_off_c, 0, 43, 0
1, 790285, Control_c, 0, 64, 69
1, 790303, Control_c, 0, 64, 74
1, 790330, Control_c, 0, 64, 79
1, 790348, Control_c, 0, 64, 85
1, 790368, Control_c, 0, 64, 91
1, 790387, Control_c, 0, 64, 97
1, 790405, Control_c, 0, 64, 101
1, 790429, Note_on_c, 0, 57, 62
1, 790455, Note_off_c, 0, 59, 0
1, 790628, Control_c, 0, 64, 94
1, 790646, Control_c, 0, 64, 83
1, 790666, Control_c, 0, 64, 68
1, 790667, Note_on_c, 0, 62, 83
1, 790684, Control_c, 0, 64, 51
1, 790686, Note_off_c, 0, 57, 0
1, 790702, Note_on_c, 0, 55, 56
1, 790702, Control_c, 0, 64, 31
1, 790706, Note_on_c, 0, 60, 55
1, 790722, Control_c, 0, 64, 0
1, 790812, Control_c, 0, 64, 12
1, 790832, Control_c, 0, 64, 25
1, 790852, Control_c, 0, 64, 40
1, 790857, Note_off_c, 0, 55, 0
1, 790869, Control_c, 0, 64, 55
1, 790876, Note_on_c, 0, 54, 62
1, 790888, Control_c, 0, 64, 63
1, 790906, Control_c, 0, 64, 67
1, 790926, Control_c, 0, 64, 70
1, 790942, Control_c, 0, 64, 74
1, 790961, Control_c, 0, 64, 80
1, 790980, Control_c, 0, 64, 87
1, 790999, Control_c, 0, 64, 93
1, 791067, Note_on_c, 0, 64, 89
1, 791069, Note_off_c, 0, 54, 0
1, 791072, Note_off_c, 0, 60, 0
1, 791074, Note_off_c, 0, 62, 0
1, 791074, Control_c, 0, 64, 79
1, 791092, Control_c, 0, 64, 61
1, 791104, Note_on_c, 0, 55, 56
1, 791106, Note_on_c, 0, 59, 57
1, 791111, Control_c, 0, 64, 40
1, 791128, Control_c, 0, 64, 16
1, 791146, Control_c, 0, 64, 0
1, 791159, Note_off_c, 0, 59, 0
1, 791221, Control_c, 0, 64, 26
1, 791240, Control_c, 0, 64, 47
1, 791261, Note_off_c, 0, 55, 0
1, 791267, Control_c, 0, 64, 63
1, 791288, Control_c, 0, 64, 69
1, 791290, Note_on_c, 0, 54, 60
1, 791305, Control_c, 0, 64, 73
1, 791323, Control_c, 0, 64, 76
1, 791340, Control_c, 0, 64, 81
1, 791360, Control_c, 0, 64, 88
1, 791379, Control_c, 0, 64, 96
1, 791397, Control_c, 0, 64, 105
1, 791416, Control_c, 0, 64, 112
1, 791484, Note_off_c, 0, 54, 0
1, 791485, Note_on_c, 0, 66, 86
1, 791490, Control_c, 0, 64, 96
1, 791506, Note_off_c, 0, 64, 0
1, 791507, Control_c, 0, 64, 70
1, 791510, Note_on_c, 0, 52, 60
1, 791521, Note_on_c, 0, 57, 53
1, 791526, Control_c, 0, 64, 37
1, 791544, Control_c, 0, 64, 0
1, 791567, Note_off_c, 0, 57, 0
1, 791620, Control_c, 0, 64, 30
1, 791638, Control_c, 0, 64, 60
1, 791649, Note_off_c, 0, 52, 0
1, 791657, Control_c, 0, 64, 77
1, 791665, Note_on_c, 0, 51, 66
1, 791676, Control_c, 0, 64, 88
1, 791694, Control_c, 0, 64, 98
1, 791714, Control_c, 0, 64, 106
1, 791729, Note_off_c, 0, 51, 0
1, 791733, Control_c, 0, 64, 112
1, 791768, Control_c, 0, 64, 118
1, 791870, Note_off_c, 0, 66, 0
1, 791873, Note_on_c, 0, 55, 61
1, 791879, Control_c, 0, 64, 110
1, 791892, Note_on_c, 0, 52, 61
1, 791895, Note_on_c, 0, 67, 79
1, 791898, Control_c, 0, 64, 96
1, 791918, Control_c, 0, 64, 77
1, 791935, Control_c, 0, 64, 57
1, 791948, Note_off_c, 0, 55, 0
1, 791951, Control_c, 0, 64, 42
1, 791972, Control_c, 0, 64, 33
1, 791987, Note_on_c, 0, 57, 65
1, 791989, Control_c, 0, 64, 26
1, 792009, Control_c, 0, 64, 21
1, 792027, Control_c, 0, 64, 15
1, 792046, Control_c, 0, 64, 10
1, 792062, Note_on_c, 0, 55, 60
1, 792063, Note_on_c, 0, 71, 79
1, 792076, Note_off_c, 0, 57, 0
1, 792084, Note_off_c, 0, 67, 0
1, 792288, Note_on_c, 0, 69, 80
1, 792296, Note_off_c, 0, 71, 0
1, 792438, Note_off_c, 0, 55, 0
1, 792478, Note_off_c, 0, 69, 0
1, 792479, Note_on_c, 0, 72, 77
1, 792506, Note_on_c, 0, 54, 56
1, 792659, Note_off_c, 0, 52, 0
1, 792681, Note_off_c, 0, 54, 0
1, 792708, Note_on_c, 0, 71, 67
1, 792720, Note_off_c, 0, 72, 0
1, 792726, Note_on_c, 0, 55, 53
1, 792890, Note_on_c, 0, 50, 72
1, 793074, Note_off_c, 0, 71, 0
1, 793099, Note_on_c, 0, 69, 79
1, 793111, Note_on_c, 0, 48, 67
1, 793142, Note_off_c, 0, 50, 0
1, 793297, Note_on_c, 0, 52, 76
1, 793298, Note_off_c, 0, 48, 0
1, 793486, Note_off_c, 0, 52, 0
1, 793519, Note_on_c, 0, 71, 82
1, 793524, Note_off_c, 0, 69, 0
1, 793525, Note_on_c, 0, 50, 63
1, 793530, Control_c, 0, 64, 15
1, 793549, Control_c, 0, 64, 23
1, 793566, Control_c, 0, 64, 33
1, 793583, Note_off_c, 0, 55, 0
1, 793585, Control_c, 0, 64, 44
1, 793604, Control_c, 0, 64, 53
1, 793622, Control_c, 0, 64, 58
1, 793641, Control_c, 0, 64, 63
1, 793660, Control_c, 0, 64, 68
1, 793678, Control_c, 0, 64, 74
1, 793689, Note_on_c, 0, 59, 78
1, 793697, Control_c, 0, 64, 82
1, 793717, Control_c, 0, 64, 90
1, 793735, Control_c, 0, 64, 98
1, 793752, Control_c, 0, 64, 104
1, 793845, Control_c, 0, 64, 95
1, 793865, Control_c, 0, 64, 77
1, 793876, Note_off_c, 0, 71, 0
1, 793882, Control_c, 0, 64, 54
1, 793902, Control_c, 0, 64, 22
1, 793913, Note_on_c, 0, 72, 88
1, 793916, Note_off_c, 0, 59, 0
1, 793921, Control_c, 0, 64, 0
1, 793941, Note_on_c, 0, 57, 69
1, 793993, Control_c, 0, 64, 17
1, 794012, Control_c, 0, 64, 39
1, 794031, Control_c, 0, 64, 58
1, 794059, Control_c, 0, 64, 67
1, 794078, Control_c, 0, 64, 71
1, 794096, Control_c, 0, 64, 75
1, 794117, Control_c, 0, 64, 79
1, 794129, Note_on_c, 0, 55, 80
1, 794131, Control_c, 0, 64, 84
1, 794139, Note_off_c, 0, 57, 0
1, 794140, Note_off_c, 0, 72, 0
1, 794151, Control_c, 0, 64, 89
1, 794169, Control_c, 0, 64, 94
1, 794301, Control_c, 0, 64, 85
1, 794317, Control_c, 0, 64, 67
1, 794335, Control_c, 0, 64, 44
1, 794338, Note_on_c, 0, 74, 84
1, 794340, Note_off_c, 0, 55, 0
1, 794347, Note_on_c, 0, 54, 64
1, 794352, Control_c, 0, 64, 16
1, 794372, Control_c, 0, 64, 0
1, 794415, Note_on_c, 0, 72, 86
1, 794418, Note_off_c, 0, 74, 0
1, 794430, Control_c, 0, 64, 9
1, 794447, Control_c, 0, 64, 27
1, 794467, Control_c, 0, 64, 46
1, 794485, Control_c, 0, 64, 61
1, 794504, Control_c, 0, 64, 65
1, 794506, Note_off_c, 0, 54, 0
1, 794507, Note_on_c, 0, 74, 86
1, 794509, Note_off_c, 0, 50, 0
1, 794523, Control_c, 0, 64, 67
1, 794529, Note_off_c, 0, 72, 0
1, 794536, Note_on_c, 0, 52, 57
1, 794541, Control_c, 0, 64, 70
1, 794558, Control_c, 0, 64, 74
1, 794578, Control_c, 0, 64, 80
1, 794596, Control_c, 0, 64, 88
1, 794615, Control_c, 0, 64, 96
1, 794633, Control_c, 0, 64, 100
1, 794686, Note_off_c, 0, 52, 0
1, 794689, Control_c, 0, 64, 90
1, 794707, Control_c, 0, 64, 75
1, 794710, Note_on_c, 0, 50, 70
1, 794727, Control_c, 0, 64, 58
1, 794737, Note_on_c, 0, 45, 67
1, 794744, Control_c, 0, 64, 43
1, 794762, Control_c, 0, 64, 29
1, 794782, Control_c, 0, 64, 16
1, 794819, Control_c, 0, 64, 12
1, 794913, Note_off_c, 0, 74, 0
1, 794917, Note_on_c, 0, 76, 86
1, 794928, Note_off_c, 0, 50, 0
1, 794932, Note_on_c, 0, 48, 67
1, 795154, Note_off_c, 0, 48, 0
1, 795159, Note_on_c, 0, 74, 80
1, 795173, Note_off_c, 0, 45, 0
1, 795186, Note_on_c, 0, 47, 58
1, 795219, Note_off_c, 0, 76, 0
1, 795366, Note_on_c, 0, 50, 70
1, 795399, Note_off_c, 0, 47, 0
1, 795528, Note_off_c, 0, 50, 0
1, 795571, Note_on_c, 0, 55, 66
1, 795753, Note_off_c, 0, 55, 0
1, 795757, Note_on_c, 0, 59, 74
1, 795989, Note_off_c, 0, 59, 0
1, 795997, Note_on_c, 0, 62, 75
1, 796194, Note_on_c, 0, 71, 76
1, 796201, Note_off_c, 0, 74, 0
1, 796255, Note_off_c, 0, 62, 0
1, 796423, Note_on_c, 0, 55, 75
1, 796437, Note_on_c, 0, 72, 71
1, 796444, Note_on_c, 0, 52, 56
1, 796452, Note_off_c, 0, 71, 0
1, 796562, Control_c, 0, 64, 21
1, 796580, Control_c, 0, 64, 31
1, 796600, Control_c, 0, 64, 43
1, 796618, Control_c, 0, 64, 56
1, 796629, Note_off_c, 0, 52, 0
1, 796635, Control_c, 0, 64, 63
1, 796638, Note_on_c, 0, 74, 72
1, 796640, Note_off_c, 0, 72, 0
1, 796655, Control_c, 0, 64, 67
1, 796675, Control_c, 0, 64, 71
1, 796692, Control_c, 0, 64, 76
1, 796711, Control_c, 0, 64, 84
1, 796731, Control_c, 0, 64, 93
1, 796747, Control_c, 0, 64, 103
1, 796765, Control_c, 0, 64, 112
1, 796775, Note_off_c, 0, 74, 0
1, 796783, Control_c, 0, 64, 116
1, 796838, Note_on_c, 0, 48, 59
1, 796839, Control_c, 0, 64, 102
1, 796846, Note_on_c, 0, 76, 74
1, 796868, Control_c, 0, 64, 79
1, 796887, Control_c, 0, 64, 52
1, 796906, Control_c, 0, 64, 13
1, 796925, Control_c, 0, 64, 0
1, 796979, Control_c, 0, 64, 11
1, 796998, Control_c, 0, 64, 32
1, 797016, Control_c, 0, 64, 49
1, 797035, Control_c, 0, 64, 61
1, 797038, Note_off_c, 0, 55, 0
1, 797053, Note_on_c, 0, 78, 74
1, 797053, Control_c, 0, 64, 67
1, 797057, Note_on_c, 0, 57, 67
1, 797072, Control_c, 0, 64, 71
1, 797091, Control_c, 0, 64, 75
1, 797110, Control_c, 0, 64, 79
1, 797121, Note_off_c, 0, 76, 0
1, 797129, Control_c, 0, 64, 85
1, 797146, Control_c, 0, 64, 92
1, 797166, Control_c, 0, 64, 101
1, 797182, Control_c, 0, 64, 107
1, 797234, Note_off_c, 0, 48, 0
1, 797238, Control_c, 0, 64, 88
1, 797259, Control_c, 0, 64, 63
1, 797276, Control_c, 0, 64, 23
1, 797284, Note_on_c, 0, 79, 78
1, 797289, Note_on_c, 0, 54, 73
1, 797295, Note_off_c, 0, 78, 0
1, 797295, Control_c, 0, 64, 0
1, 797301, Note_on_c, 0, 50, 45
1, 797302, Note_off_c, 0, 57, 0
1, 797368, Control_c, 0, 64, 9
1, 797387, Control_c, 0, 64, 40
1, 797406, Control_c, 0, 64, 64
1, 797407, Note_off_c, 0, 50, 0
1, 797425, Control_c, 0, 64, 76
1, 797442, Control_c, 0, 64, 86
1, 797462, Control_c, 0, 64, 100
1, 797481, Control_c, 0, 64, 115
1, 797498, Note_on_c, 0, 81, 79
1, 797501, Control_c, 0, 64, 126
1, 797504, Note_off_c, 0, 54, 0
1, 797510, Note_off_c, 0, 79, 0
1, 797722, Control_c, 0, 64, 117
1, 797738, Control_c, 0, 64, 103
1, 797751, Note_off_c, 0, 81, 0
1, 797755, Note_on_c, 0, 83, 76
1, 797758, Control_c, 0, 64, 84
1, 797777, Control_c, 0, 64, 63
1, 797788, Note_on_c, 0, 55, 55
1, 797798, Note_on_c, 0, 43, 49
1, 797805, Control_c, 0, 64, 46
1, 797823, Control_c, 0, 64, 34
1, 797842, Control_c, 0, 64, 21
1, 797861, Control_c, 0, 64, 14
1, 797898, Control_c, 0, 64, 10
1, 797982, Note_on_c, 0, 79, 68
1, 798003, Note_off_c, 0, 83, 0
1, 798121, Control_c, 0, 67, 35
1, 798191, Note_off_c, 0, 79, 0
1, 798195, Note_on_c, 0, 74, 63
1, 798383, Note_off_c, 0, 74, 0
1, 798416, Note_on_c, 0, 71, 61
1, 798645, Note_off_c, 0, 71, 0
1, 798659, Note_on_c, 0, 67, 59
1, 798707, Note_off_c, 0, 55, 0
1, 798893, Note_off_c, 0, 43, 0
1, 798893, Note_on_c, 0, 47, 50
1, 799143, Note_off_c, 0, 47, 0
1, 799174, Note_on_c, 0, 50, 49
1, 799262, Control_c, 0, 67, 39
1, 799407, Note_off_c, 0, 50, 0
1, 799410, Control_c, 0, 67, 44
1, 799445, Note_on_c, 0, 54, 49
1, 799468, Control_c, 0, 67, 48
1, 799581, Note_off_c, 0, 67, 0
1, 799831, Note_on_c, 0, 55, 41
1, 799839, Note_off_c, 0, 54, 0
1, 800012, Control_c, 0, 67, 52
1, 800088, Control_c, 0, 67, 57
1, 800976, Note_off_c, 0, 55, 0
1, 801227, Control_c, 0, 67, 64
1, 801265, Control_c, 0, 67, 70
1, 801357, Control_c, 0, 67, 74
1, 801868, Control_c, 0, 67, 70
1, 802502, Note_on_c, 0, 71, 39
1, 802513, Note_on_c, 0, 55, 36
1, 802545, Note_off_c, 0, 71, 0
1, 802679, Note_on_c, 0, 72, 51
1, 802712, Note_off_c, 0, 72, 0
1, 802837, Note_on_c, 0, 71, 58
1, 802878, Note_off_c, 0, 71, 0
1, 803000, Note_on_c, 0, 69, 65
1, 803034, Note_off_c, 0, 69, 0
1, 803208, Note_on_c, 0, 71, 59
1, 803554, Note_on_c, 0, 59, 38
1, 803603, Note_off_c, 0, 59, 0
1, 803882, Note_on_c, 0, 62, 45
1, 804022, Note_off_c, 0, 71, 0
1, 804027, Note_on_c, 0, 66, 58
1, 804157, Note_off_c, 0, 66, 0
1, 804171, Note_off_c, 0, 55, 0
1, 804188, Note_on_c, 0, 67, 65
1, 804311, Note_off_c, 0, 67, 0
1, 804324, Note_on_c, 0, 69, 66
1, 804527, Note_off_c, 0, 69, 0
1, 804545, Note_on_c, 0, 71, 57
1, 804574, Note_on_c, 0, 55, 28
1, 804835, Note_off_c, 0, 71, 0
1, 804856, Note_on_c, 0, 72, 63
1, 805125, Note_off_c, 0, 72, 0
1, 805164, Note_on_c, 0, 74, 60
1, 805189, Note_on_c, 0, 54, 38
1, 805203, Note_off_c, 0, 55, 0
1, 805232, Note_on_c, 0, 72, 60
1, 805233, Note_off_c, 0, 74, 0
1, 805515, Note_off_c, 0, 72, 0
1, 805534, Note_on_c, 0, 71, 56
1, 805850, Note_off_c, 0, 71, 0
1, 805850, Note_on_c, 0, 69, 57
1, 805875, Note_on_c, 0, 52, 39
1, 805922, Note_off_c, 0, 54, 0
1, 806179, Note_off_c, 0, 69, 0
1, 806198, Note_on_c, 0, 67, 61
1, 806507, Note_off_c, 0, 67, 0
1, 806549, Note_off_c, 0, 52, 0
1, 806561, Note_on_c, 0, 74, 69
1, 806593, Note_off_c, 0, 74, 0
1, 806594, Note_on_c, 0, 54, 31
1, 806715, Note_on_c, 0, 76, 70
1, 806762, Note_off_c, 0, 76, 0
1, 806875, Note_on_c, 0, 74, 70
1, 806914, Note_off_c, 0, 74, 0
1, 807027, Note_on_c, 0, 73, 68
1, 807068, Note_off_c, 0, 73, 0
1, 807229, Note_on_c, 0, 74, 66
1, 807254, Note_off_c, 0, 62, 0
1, 807558, Note_on_c, 0, 57, 53
1, 807611, Note_off_c, 0, 57, 0
1, 807880, Note_on_c, 0, 62, 55
1, 808028, Note_on_c, 0, 73, 73
1, 808032, Note_off_c, 0, 74, 0
1, 808184, Note_off_c, 0, 73, 0
1, 808194, Note_on_c, 0, 74, 74
1, 808342, Note_on_c, 0, 76, 79
1, 808362, Note_off_c, 0, 74, 0
1, 808550, Note_on_c, 0, 78, 72
1, 808552, Note_off_c, 0, 76, 0
1, 808576, Note_on_c, 0, 59, 47
1, 808607, Note_off_c, 0, 54, 0
1, 808858, Note_off_c, 0, 78, 0
1, 808874, Note_on_c, 0, 79, 69
1, 809150, Note_off_c, 0, 79, 0
1, 809181, Note_on_c, 0, 81, 62
1, 809221, Note_off_c, 0, 59, 0
1, 809225, Note_on_c, 0, 57, 43
1, 809257, Note_on_c, 0, 79, 69
1, 809269, Note_off_c, 0, 81, 0
1, 809537, Note_on_c, 0, 78, 64
1, 809543, Note_off_c, 0, 79, 0
1, 809870, Note_on_c, 0, 59, 47
1, 809871, Note_on_c, 0, 76, 65
1, 809886, Note_off_c, 0, 78, 0
1, 809910, Note_off_c, 0, 57, 0
1, 810198, Note_off_c, 0, 76, 0
1, 810217, Note_on_c, 0, 74, 67
1, 810529, Note_off_c, 0, 74, 0
1, 810565, Note_on_c, 0, 79, 65
1, 810581, Note_off_c, 0, 59, 0
1, 810591, Note_on_c, 0, 52, 42
1, 810604, Note_off_c, 0, 79, 0
1, 810722, Note_on_c, 0, 81, 72
1, 810777, Note_off_c, 0, 81, 0
1, 810887, Note_on_c, 0, 79, 74
1, 810958, Note_off_c, 0, 79, 0
1, 811048, Note_on_c, 0, 78, 73
1, 811117, Note_off_c, 0, 78, 0
1, 811244, Note_on_c, 0, 79, 73
1, 811313, Note_off_c, 0, 62, 0
1, 811551, Note_on_c, 0, 59, 68
1, 811622, Note_off_c, 0, 59, 0
1, 811888, Note_on_c, 0, 61, 68
1, 812033, Note_on_c, 0, 78, 72
1, 812035, Note_off_c, 0, 79, 0
1, 812179, Note_off_c, 0, 78, 0
1, 812186, Note_on_c, 0, 76, 76
1, 812333, Note_on_c, 0, 78, 75
1, 812362, Note_off_c, 0, 76, 0
1, 812549, Note_on_c, 0, 79, 68
1, 812553, Note_off_c, 0, 78, 0
1, 812580, Note_on_c, 0, 57, 43
1, 812626, Note_off_c, 0, 52, 0
1, 812879, Note_off_c, 0, 79, 0
1, 812882, Note_on_c, 0, 76, 63
1, 813163, Note_off_c, 0, 76, 0
1, 813227, Note_on_c, 0, 69, 49
1, 813230, Note_off_c, 0, 57, 0
1, 813231, Note_on_c, 0, 55, 33
1, 813309, Control_c, 0, 64, 15
1, 813329, Control_c, 0, 64, 21
1, 813348, Control_c, 0, 64, 30
1, 813366, Control_c, 0, 64, 42
1, 813384, Control_c, 0, 64, 53
1, 813401, Note_off_c, 0, 69, 0
1, 813404, Control_c, 0, 64, 59
1, 813423, Control_c, 0, 64, 62
1, 813441, Control_c, 0, 64, 64
1, 813460, Control_c, 0, 64, 65
1, 813514, Control_c, 0, 64, 64
1, 813533, Control_c, 0, 64, 61
1, 813551, Control_c, 0, 64, 57
1, 813554, Note_on_c, 0, 83, 72
1, 813570, Control_c, 0, 64, 53
1, 813591, Control_c, 0, 64, 47
1, 813608, Control_c, 0, 64, 39
1, 813627, Control_c, 0, 64, 28
1, 813645, Control_c, 0, 64, 16
1, 813665, Control_c, 0, 64, 8
1, 813701, Control_c, 0, 64, 0
1, 813899, Note_on_c, 0, 81, 64
1, 813920, Note_off_c, 0, 55, 0
1, 813923, Note_off_c, 0, 83, 0
1, 813930, Note_on_c, 0, 57, 33
1, 814136, Control_c, 0, 64, 14
1, 814154, Control_c, 0, 64, 24
1, 814173, Control_c, 0, 64, 38
1, 814192, Control_c, 0, 64, 52
1, 814211, Control_c, 0, 64, 62
1, 814230, Control_c, 0, 64, 66
1, 814239, Note_off_c, 0, 81, 0
1, 814243, Note_on_c, 0, 79, 64
1, 814249, Control_c, 0, 64, 69
1, 814267, Control_c, 0, 64, 73
1, 814284, Control_c, 0, 64, 78
1, 814302, Control_c, 0, 64, 85
1, 814314, Note_off_c, 0, 79, 0
1, 814321, Control_c, 0, 64, 92
1, 814340, Note_off_c, 0, 61, 0
1, 814340, Control_c, 0, 64, 98
1, 814359, Control_c, 0, 64, 102
1, 814396, Control_c, 0, 64, 107
1, 814538, Note_on_c, 0, 79, 57
1, 814543, Control_c, 0, 64, 95
1, 814563, Control_c, 0, 64, 79
1, 814582, Control_c, 0, 64, 60
1, 814596, Note_on_c, 0, 78, 55
1, 814601, Control_c, 0, 64, 43
1, 814618, Control_c, 0, 64, 30
1, 814622, Note_on_c, 0, 50, 46
1, 814626, Note_off_c, 0, 79, 0
1, 814637, Control_c, 0, 64, 18
1, 814670, Note_off_c, 0, 78, 0
1, 814680, Note_off_c, 0, 57, 0
1, 814680, Control_c, 0, 64, 14
1, 814778, Note_on_c, 0, 76, 65
1, 814818, Note_off_c, 0, 76, 0
1, 814944, Note_on_c, 0, 78, 66
1, 814980, Note_off_c, 0, 78, 0
1, 815107, Note_on_c, 0, 76, 62
1, 815147, Note_off_c, 0, 76, 0
1, 815299, Note_on_c, 0, 74, 56
1, 815613, Note_on_c, 0, 54, 53
1, 815665, Note_off_c, 0, 54, 0
1, 815956, Note_on_c, 0, 57, 47
1, 816102, Note_off_c, 0, 74, 0
1, 816113, Note_on_c, 0, 73, 72
1, 816260, Note_off_c, 0, 73, 0
1, 816276, Note_on_c, 0, 74, 70
1, 816433, Note_on_c, 0, 76, 80
1, 816476, Note_off_c, 0, 74, 0
1, 816636, Note_on_c, 0, 78, 78
1, 816644, Note_off_c, 0, 50, 0
1, 816652, Note_off_c, 0, 76, 0
1, 816665, Note_on_c, 0, 52, 40
1, 816927, Control_c, 0, 67, 66
1, 816942, Note_off_c, 0, 78, 0
1, 816961, Note_on_c, 0, 79, 79
1, 817286, Note_on_c, 0, 81, 71
1, 817310, Note_off_c, 0, 79, 0
1, 817325, Note_on_c, 0, 50, 36
1, 817343, Note_off_c, 0, 52, 0
1, 817599, Note_off_c, 0, 81, 0
1, 817641, Note_on_c, 0, 83, 79
1, 817781, Note_off_c, 0, 83, 0
1, 817790, Note_on_c, 0, 84, 79
1, 817990, Note_off_c, 0, 50, 0
1, 817992, Note_on_c, 0, 83, 71
1, 817994, Note_off_c, 0, 84, 0
1, 818001, Note_on_c, 0, 48, 44
1, 818298, Note_off_c, 0, 83, 0
1, 818322, Note_on_c, 0, 81, 68
1, 818646, Note_off_c, 0, 81, 0
1, 818682, Note_on_c, 0, 79, 63
1, 818697, Note_on_c, 0, 47, 47
1, 818700, Note_off_c, 0, 48, 0
1, 818729, Note_off_c, 0, 79, 0
1, 818852, Note_on_c, 0, 77, 61
1, 818899, Note_off_c, 0, 77, 0
1, 819004, Note_off_c, 0, 57, 0
1, 819050, Note_on_c, 0, 76, 63
1, 819336, Note_off_c, 0, 76, 0
1, 819379, Note_on_c, 0, 77, 60
1, 819421, Note_off_c, 0, 77, 0
1, 819447, Note_on_c, 0, 76, 66
1, 819517, Note_on_c, 0, 77, 73
1, 819519, Note_off_c, 0, 76, 0
1, 819711, Note_on_c, 0, 50, 67
1, 819820, Note_off_c, 0, 50, 0
1, 820077, Note_on_c, 0, 55, 68
1, 820225, Note_off_c, 0, 77, 0
1, 820241, Note_on_c, 0, 74, 77
1, 820374, Note_off_c, 0, 74, 0
1, 820406, Note_on_c, 0, 79, 79
1, 820516, Note_off_c, 0, 79, 0
1, 820552, Note_on_c, 0, 81, 83
1, 820742, Note_on_c, 0, 83, 82
1, 820747, Note_on_c, 0, 43, 60
1, 820749, Note_off_c, 0, 47, 0
1, 820750, Note_off_c, 0, 81, 0
1, 820895, Note_on_c, 0, 84, 79
1, 820903, Note_off_c, 0, 83, 0
1, 821075, Note_off_c, 0, 84, 0
1, 821085, Note_on_c, 0, 86, 78
1, 821436, Note_on_c, 0, 84, 67
1, 821450, Note_off_c, 0, 43, 0
1, 821453, Note_off_c, 0, 86, 0
1, 821458, Note_on_c, 0, 45, 50
1, 821789, Note_on_c, 0, 83, 70
1, 821800, Note_off_c, 0, 84, 0
1, 822126, Note_off_c, 0, 45, 0
1, 822205, Note_on_c, 0, 47, 50
1, 822206, Note_on_c, 0, 81, 67
1, 822214, Note_off_c, 0, 83, 0
1, 822529, Note_off_c, 0, 81, 0
1, 822551, Note_on_c, 0, 79, 67
1, 822871, Note_off_c, 0, 79, 0
1, 822885, Note_off_c, 0, 47, 0
1, 822901, Note_on_c, 0, 77, 60
1, 822919, Note_on_c, 0, 48, 40
1, 822947, Note_off_c, 0, 77, 0
1, 823060, Note_on_c, 0, 76, 62
1, 823113, Note_off_c, 0, 76, 0
1, 823275, Note_on_c, 0, 74, 61
1, 823480, Note_off_c, 0, 74, 0
1, 823645, Note_on_c, 0, 74, 57
1, 823733, Note_off_c, 0, 74, 0
1, 823803, Note_on_c, 0, 76, 69
1, 823811, Note_off_c, 0, 55, 0
1, 823994, Note_on_c, 0, 54, 61
1, 824137, Note_off_c, 0, 54, 0
1, 824334, Note_on_c, 0, 55, 64
1, 824487, Note_on_c, 0, 74, 70
1, 824498, Note_off_c, 0, 76, 0
1, 824653, Note_off_c, 0, 74, 0
1, 824655, Note_on_c, 0, 72, 77
1, 824794, Note_off_c, 0, 72, 0
1, 824815, Note_on_c, 0, 71, 78
1, 825002, Note_on_c, 0, 72, 77
1, 825010, Note_off_c, 0, 48, 0
1, 825012, Note_on_c, 0, 45, 58
1, 825014, Note_off_c, 0, 71, 0
1, 825162, Note_on_c, 0, 74, 75
1, 825164, Note_off_c, 0, 72, 0
1, 825339, Note_off_c, 0, 74, 0
1, 825356, Note_on_c, 0, 76, 74
1, 825680, Note_off_c, 0, 76, 0
1, 825686, Note_off_c, 0, 45, 0
1, 825690, Note_on_c, 0, 74, 75
1, 825709, Note_on_c, 0, 47, 49
1, 826029, Note_off_c, 0, 74, 0
1, 826040, Note_on_c, 0, 79, 72
1, 826351, Note_off_c, 0, 47, 0
1, 826394, Note_on_c, 0, 48, 44
1, 826398, Note_on_c, 0, 76, 60
1, 826404, Note_off_c, 0, 79, 0
1, 826706, Note_off_c, 0, 76, 0
1, 826741, Note_on_c, 0, 72, 58
1, 826826, Control_c, 0, 67, 70
1, 827031, Control_c, 0, 67, 74
1, 827089, Note_off_c, 0, 72, 0
1, 827127, Note_on_c, 0, 71, 52
1, 827140, Note_off_c, 0, 48, 0
1, 827143, Note_on_c, 0, 50, 44
1, 827168, Note_off_c, 0, 71, 0
1, 827285, Note_on_c, 0, 69, 56
1, 827328, Note_off_c, 0, 69, 0
1, 827481, Note_on_c, 0, 67, 55
1, 827569, Control_c, 0, 67, 70
1, 827732, Note_off_c, 0, 67, 0
1, 827795, Note_on_c, 0, 69, 59
1, 827836, Note_off_c, 0, 69, 0
1, 827861, Note_on_c, 0, 67, 58
1, 827925, Note_off_c, 0, 67, 0
1, 827950, Note_on_c, 0, 69, 62
1, 828011, Note_off_c, 0, 55, 0
1, 828181, Note_on_c, 0, 52, 56
1, 828272, Note_off_c, 0, 52, 0
1, 828527, Note_on_c, 0, 54, 57
1, 828657, Note_off_c, 0, 69, 0
1, 828673, Note_on_c, 0, 67, 65
1, 828865, Note_on_c, 0, 69, 72
1, 828871, Note_off_c, 0, 67, 0
1, 828914, Note_off_c, 0, 50, 0
1, 829020, Note_off_c, 0, 69, 0
1, 829021, Note_on_c, 0, 71, 71
1, 829185, Note_off_c, 0, 71, 0
1, 829195, Note_on_c, 0, 72, 69
1, 829222, Note_on_c, 0, 50, 43
1, 829322, Note_off_c, 0, 72, 0
1, 829357, Note_on_c, 0, 66, 62
1, 829520, Note_off_c, 0, 66, 0
1, 829542, Note_on_c, 0, 67, 58
1, 829692, Note_off_c, 0, 67, 0
1, 829717, Note_on_c, 0, 69, 55
1, 829884, Note_off_c, 0, 69, 0
1, 829905, Note_off_c, 0, 50, 0
1, 829908, Note_on_c, 0, 62, 60
1, 829915, Note_on_c, 0, 48, 41
1, 830051, Note_off_c, 0, 62, 0
1, 830061, Note_on_c, 0, 66, 58
1, 830214, Note_off_c, 0, 66, 0
1, 830232, Note_on_c, 0, 64, 58
1, 830350, Note_off_c, 0, 64, 0
1, 830405, Note_on_c, 0, 62, 53
1, 830584, Note_off_c, 0, 48, 0
1, 830602, Note_off_c, 0, 62, 0
1, 830606, Note_on_c, 0, 69, 62
1, 830622, Note_on_c, 0, 50, 43
1, 830775, Note_off_c, 0, 69, 0
1, 830775, Note_on_c, 0, 67, 59
1, 830909, Note_off_c, 0, 67, 0
1, 830936, Note_on_c, 0, 66, 62
1, 831051, Note_off_c, 0, 66, 0
1, 831106, Note_on_c, 0, 72, 66
1, 831177, Note_off_c, 0, 72, 0
1, 831301, Note_on_c, 0, 43, 47
1, 831305, Note_on_c, 0, 72, 67
1, 831341, Note_off_c, 0, 54, 0
1, 831363, Note_off_c, 0, 72, 0
1, 831411, Note_off_c, 0, 50, 0
1, 831468, Note_on_c, 0, 71, 56
1, 831524, Note_off_c, 0, 71, 0
1, 831665, Note_on_c, 0, 69, 55
1, 831708, Note_off_c, 0, 69, 0
1, 832035, Note_on_c, 0, 71, 50
1, 832359, Note_on_c, 0, 50, 54
1, 832458, Note_off_c, 0, 50, 0
1, 832753, Note_on_c, 0, 55, 51
1, 832925, Note_off_c, 0, 71, 0
1, 832928, Note_on_c, 0, 69, 55
1, 832965, Control_c, 0, 64, 18
1, 833002, Control_c, 0, 64, 27
1, 833021, Control_c, 0, 64, 33
1, 833041, Control_c, 0, 64, 40
1, 833057, Control_c, 0, 64, 46
1, 833075, Control_c, 0, 64, 52
1, 833083, Note_off_c, 0, 69, 0
1, 833094, Control_c, 0, 64, 56
1, 833106, Note_on_c, 0, 67, 66
1, 833113, Control_c, 0, 64, 58
1, 833132, Control_c, 0, 64, 60
1, 833150, Control_c, 0, 64, 62
1, 833169, Control_c, 0, 64, 63
1, 833176, Note_off_c, 0, 43, 0
1, 833188, Control_c, 0, 64, 65
1, 833205, Control_c, 0, 64, 66
1, 833225, Control_c, 0, 64, 67
1, 833249, Note_off_c, 0, 67, 0
1, 833262, Control_c, 0, 64, 69
1, 833264, Note_on_c, 0, 66, 70
1, 833298, Control_c, 0, 64, 71
1, 833382, Control_c, 0, 64, 69
1, 833401, Control_c, 0, 64, 65
1, 833420, Control_c, 0, 64, 57
1, 833439, Control_c, 0, 64, 46
1, 833454, Note_on_c, 0, 67, 67
1, 833456, Note_off_c, 0, 66, 0
1, 833456, Control_c, 0, 64, 30
1, 833464, Note_on_c, 0, 43, 41
1, 833476, Control_c, 0, 64, 12
1, 833564, Note_off_c, 0, 67, 0
1, 833617, Note_on_c, 0, 71, 73
1, 833788, Note_off_c, 0, 71, 0
1, 833790, Note_on_c, 0, 74, 70
1, 833803, Poly_aftertouch_c, 0, 55, 24
1, 833946, Note_off_c, 0, 74, 0
1, 833951, Note_on_c, 0, 78, 69
1, 833972, Note_off_c, 0, 55, 0
1, 834123, Note_off_c, 0, 78, 0
1, 834130, Note_on_c, 0, 79, 70
1, 834164, Note_on_c, 0, 47, 39
1, 834245, Note_off_c, 0, 43, 0
1, 834309, Note_off_c, 0, 79, 0
1, 834309, Note_on_c, 0, 78, 63
1, 834448, Note_off_c, 0, 78, 0
1, 834477, Note_on_c, 0, 76, 66
1, 834580, Note_off_c, 0, 76, 0
1, 834649, Note_on_c, 0, 74, 66
1, 834769, Note_off_c, 0, 74, 0
1, 834821, Note_off_c, 0, 47, 0
1, 834826, Note_on_c, 0, 78, 67
1, 834860, Note_on_c, 0, 50, 31
1, 834935, Note_off_c, 0, 78, 0
1, 834968, Control_c, 0, 64, 19
1, 834984, Note_on_c, 0, 81, 74
1, 834986, Control_c, 0, 64, 25
1, 835005, Control_c, 0, 64, 32
1, 835023, Control_c, 0, 64, 39
1, 835044, Control_c, 0, 64, 47
1, 835059, Control_c, 0, 64, 54
1, 835078, Control_c, 0, 64, 58
1, 835097, Control_c, 0, 64, 61
1, 835115, Note_off_c, 0, 50, 0
1, 835115, Control_c, 0, 64, 64
1, 835135, Control_c, 0, 64, 66
1, 835149, Note_on_c, 0, 83, 78
1, 835150, Note_off_c, 0, 81, 0
1, 835151, Control_c, 0, 64, 68
1, 835171, Control_c, 0, 64, 70
1, 835191, Control_c, 0, 64, 72
1, 835209, Control_c, 0, 64, 74
1, 835256, Control_c, 0, 64, 77
1, 835275, Control_c, 0, 64, 79
1, 835310, Control_c, 0, 64, 82
1, 835317, Note_off_c, 0, 83, 0
1, 835332, Note_on_c, 0, 84, 71
1, 835515, Control_c, 0, 64, 76
1, 835533, Control_c, 0, 64, 64
1, 835548, Note_off_c, 0, 84, 0
1, 835550, Control_c, 0, 64, 51
1, 835567, Note_on_c, 0, 83, 60
1, 835570, Control_c, 0, 64, 41
1, 835589, Control_c, 0, 64, 31
1, 835590, Note_on_c, 0, 55, 38
1, 835607, Control_c, 0, 64, 22
1, 835613, Note_off_c, 0, 83, 0
1, 835627, Control_c, 0, 64, 16
1, 835747, Note_on_c, 0, 81, 61
1, 835791, Note_off_c, 0, 81, 0
1, 835956, Note_on_c, 0, 79, 55
1, 836304, Note_on_c, 0, 59, 51
1, 836385, Note_off_c, 0, 79, 0
1, 836465, Note_on_c, 0, 78, 59
1, 836505, Note_off_c, 0, 78, 0
1, 836684, Note_on_c, 0, 76, 60
1, 837003, Note_off_c, 0, 59, 0
1, 837027, Note_on_c, 0, 64, 67
1, 837193, Note_off_c, 0, 76, 0
1, 837210, Note_on_c, 0, 75, 66
1, 837278, Note_off_c, 0, 75, 0
1, 837394, Note_on_c, 0, 76, 62
1, 837454, Note_off_c, 0, 55, 0
1, 837727, Note_on_c, 0, 55, 45
1, 837876, Note_off_c, 0, 76, 0
1, 837906, Note_on_c, 0, 78, 64
1, 837959, Note_off_c, 0, 78, 0
1, 838103, Note_on_c, 0, 79, 61
1, 838414, Note_on_c, 0, 54, 43
1, 838426, Note_off_c, 0, 55, 0
1, 838566, Note_off_c, 0, 79, 0
1, 838590, Note_on_c, 0, 81, 65
1, 838663, Note_off_c, 0, 81, 0
1, 838797, Note_on_c, 0, 83, 66
1, 839155, Note_on_c, 0, 52, 47
1, 839187, Note_off_c, 0, 54, 0
1, 839302, Note_off_c, 0, 83, 0
1, 839329, Note_on_c, 0, 79, 60
1, 839403, Note_off_c, 0, 79, 0
1, 839496, Note_on_c, 0, 78, 67
1, 839558, Note_off_c, 0, 78, 0
1, 839664, Note_on_c, 0, 76, 70
1, 839845, Note_off_c, 0, 76, 0
1, 839868, Note_off_c, 0, 52, 0
1, 839870, Note_on_c, 0, 81, 65
1, 839877, Note_on_c, 0, 54, 44
1, 839953, Note_off_c, 0, 81, 0
1, 840049, Note_on_c, 0, 79, 63
1, 840100, Note_off_c, 0, 79, 0
1, 840236, Note_on_c, 0, 78, 68
1, 840395, Note_off_c, 0, 64, 0
1, 840572, Note_on_c, 0, 57, 68
1, 840737, Note_off_c, 0, 78, 0
1, 840752, Note_on_c, 0, 76, 66
1, 840804, Note_off_c, 0, 76, 0
1, 840962, Note_on_c, 0, 74, 66
1, 841322, Note_on_c, 0, 62, 73
1, 841356, Note_off_c, 0, 57, 0
1, 841423, Note_off_c, 0, 74, 0
1, 841489, Note_on_c, 0, 73, 68
1, 841551, Note_off_c, 0, 73, 0
1, 841683, Note_on_c, 0, 74, 68
1, 842003, Note_off_c, 0, 54, 0
1, 842042, Note_on_c, 0, 59, 60
1, 842178, Note_off_c, 0, 74, 0
1, 842206, Note_on_c, 0, 76, 67
1, 842257, Note_off_c, 0, 76, 0
1, 842402, Note_on_c, 0, 78, 72
1, 842763, Note_off_c, 0, 59, 0
1, 842770, Note_on_c, 0, 57, 55
1, 842916, Note_off_c, 0, 78, 0
1, 842921, Note_on_c, 0, 79, 69
1, 842999, Note_off_c, 0, 79, 0
1, 843123, Note_on_c, 0, 81, 71
1, 843473, Note_off_c, 0, 57, 0
1, 843491, Note_on_c, 0, 59, 49
1, 843616, Note_off_c, 0, 81, 0
1, 843649, Note_on_c, 0, 78, 59
1, 843757, Note_off_c, 0, 78, 0
1, 843839, Note_on_c, 0, 76, 56
1, 843881, Note_off_c, 0, 76, 0
1, 844016, Note_on_c, 0, 74, 56
1, 844181, Note_off_c, 0, 59, 0
1, 844205, Note_off_c, 0, 74, 0
1, 844208, Note_on_c, 0, 79, 64
1, 844217, Note_on_c, 0, 52, 47
1, 844354, Note_off_c, 0, 79, 0
1, 844362, Note_on_c, 0, 81, 68
1, 844526, Note_off_c, 0, 81, 0
1, 844546, Note_on_c, 0, 83, 75
1, 844720, Note_on_c, 0, 81, 74
1, 844732, Note_off_c, 0, 83, 0
1, 844741, Note_off_c, 0, 62, 0
1, 844917, Note_on_c, 0, 59, 73
1, 844924, Note_off_c, 0, 81, 0
1, 844924, Note_on_c, 0, 79, 64
1, 844997, Note_off_c, 0, 79, 0
1, 845273, Note_on_c, 0, 78, 72
1, 845337, Note_off_c, 0, 78, 0
1, 845627, Note_on_c, 0, 55, 66
1, 845632, Note_on_c, 0, 76, 62
1, 845689, Note_off_c, 0, 59, 0
1, 845787, Note_on_c, 0, 78, 73
1, 845791, Note_off_c, 0, 76, 0
1, 845965, Note_on_c, 0, 79, 79
1, 845967, Note_off_c, 0, 78, 0
1, 846119, Note_on_c, 0, 78, 73
1, 846169, Note_off_c, 0, 79, 0
1, 846313, Note_off_c, 0, 78, 0
1, 846332, Note_on_c, 0, 76, 78
1, 846335, Note_on_c, 0, 54, 69
1, 846353, Note_off_c, 0, 52, 0
1, 846409, Note_off_c, 0, 76, 0
1, 846673, Note_on_c, 0, 74, 78
1, 846776, Note_off_c, 0, 74, 0
1, 847029, Note_on_c, 0, 73, 74
1, 847046, Note_on_c, 0, 52, 57
1, 847066, Note_off_c, 0, 54, 0
1, 847189, Note_on_c, 0, 74, 77
1, 847205, Note_off_c, 0, 73, 0
1, 847356, Note_off_c, 0, 74, 0
1, 847359, Note_on_c, 0, 76, 75
1, 847523, Note_on_c, 0, 74, 70
1, 847544, Note_off_c, 0, 76, 0
1, 847713, Note_off_c, 0, 74, 0
1, 847739, Note_on_c, 0, 73, 64
1, 847746, Note_off_c, 0, 52, 0
1, 847771, Note_on_c, 0, 50, 50
1, 847812, Note_off_c, 0, 73, 0
1, 848098, Control_c, 0, 67, 74
1, 848100, Note_on_c, 0, 71, 59
1, 848188, Note_off_c, 0, 71, 0
1, 848486, Note_on_c, 0, 49, 47
1, 848503, Note_on_c, 0, 69, 56
1, 848505, Note_off_c, 0, 50, 0
1, 848541, Note_off_c, 0, 69, 0
1, 848560, Note_on_c, 0, 71, 56
1, 848645, Note_on_c, 0, 69, 58
1, 848649, Note_off_c, 0, 71, 0
1, 848853, Note_on_c, 0, 57, 63
1, 848856, Note_off_c, 0, 55, 0
1, 848905, Control_c, 0, 67, 70
1, 849215, Note_on_c, 0, 55, 56
1, 849267, Note_off_c, 0, 57, 0
1, 849571, Note_on_c, 0, 54, 51
1, 849585, Note_off_c, 0, 55, 0
1, 849904, Note_off_c, 0, 54, 0
1, 849973, Note_on_c, 0, 55, 37
1, 850157, Control_c, 0, 64, 21
1, 850177, Control_c, 0, 64, 29
1, 850196, Control_c, 0, 64, 39
1, 850224, Control_c, 0, 64, 51
1, 850243, Control_c, 0, 64, 59
1, 850262, Control_c, 0, 64, 63
1, 850280, Control_c, 0, 64, 67
1, 850299, Control_c, 0, 64, 69
1, 850317, Control_c, 0, 64, 72
1, 850332, Note_off_c, 0, 55, 0
1, 850335, Control_c, 0, 64, 74
1, 850354, Control_c, 0, 64, 77
1, 850372, Control_c, 0, 64, 79
1, 850389, Note_off_c, 0, 49, 0
1, 850392, Control_c, 0, 64, 82
1, 850409, Control_c, 0, 64, 84
1, 850427, Control_c, 0, 64, 87
1, 850484, Control_c, 0, 64, 91
1, 850651, Control_c, 0, 64, 87
1, 850670, Control_c, 0, 64, 79
1, 850688, Control_c, 0, 64, 68
1, 850698, Note_on_c, 0, 52, 64
1, 850707, Control_c, 0, 64, 56
1, 850725, Control_c, 0, 64, 48
1, 850742, Control_c, 0, 64, 39
1, 850761, Control_c, 0, 64, 32
1, 850780, Control_c, 0, 64, 25
1, 850798, Control_c, 0, 64, 21
1, 850849, Note_on_c, 0, 73, 67
1, 850856, Note_off_c, 0, 69, 0
1, 851024, Note_off_c, 0, 73, 0
1, 851026, Note_on_c, 0, 71, 67
1, 851194, Note_off_c, 0, 71, 0
1, 851200, Note_on_c, 0, 69, 70
1, 851392, Note_on_c, 0, 45, 65
1, 851392, Note_on_c, 0, 71, 71
1, 851425, Note_off_c, 0, 69, 0
1, 851532, Note_off_c, 0, 52, 0
1, 851550, Note_on_c, 0, 73, 78
1, 851576, Note_off_c, 0, 71, 0
1, 851719, Note_off_c, 0, 73, 0
1, 851733, Note_on_c, 0, 74, 82
1, 851896, Note_on_c, 0, 76, 81
1, 851919, Note_off_c, 0, 74, 0
1, 852085, Note_on_c, 0, 78, 73
1, 852100, Note_off_c, 0, 76, 0
1, 852130, Note_on_c, 0, 43, 62
1, 852133, Note_off_c, 0, 45, 0
1, 852174, Note_off_c, 0, 78, 0
1, 852444, Note_on_c, 0, 79, 76
1, 852505, Note_off_c, 0, 79, 0
1, 852801, Note_on_c, 0, 81, 75
1, 852816, Note_off_c, 0, 43, 0
1, 852830, Note_on_c, 0, 42, 42
1, 852932, Note_off_c, 0, 81, 0
1, 852964, Note_off_c, 0, 42, 0
1, 852977, Note_on_c, 0, 74, 65
1, 853124, Note_off_c, 0, 74, 0
1, 853158, Note_on_c, 0, 73, 62
1, 853280, Note_off_c, 0, 73, 0
1, 853309, Note_on_c, 0, 74, 64
1, 853468, Note_off_c, 0, 74, 0
1, 853515, Note_on_c, 0, 76, 65
1, 853519, Note_on_c, 0, 57, 75
1, 853530, Note_on_c, 0, 54, 49
1, 853632, Note_off_c, 0, 54, 0
1, 853684, Note_off_c, 0, 76, 0
1, 853692, Note_on_c, 0, 74, 59
1, 853859, Note_on_c, 0, 73, 58
1, 853860, Note_off_c, 0, 74, 0
1, 854030, Note_off_c, 0, 73, 0
1, 854033, Note_on_c, 0, 52, 40
1, 854033, Note_on_c, 0, 74, 58
1, 854084, Note_off_c, 0, 52, 0
1, 854191, Note_off_c, 0, 74, 0
1, 854217, Note_off_c, 0, 57, 0
1, 854222, Note_on_c, 0, 62, 69
1, 854233, Note_on_c, 0, 69, 65
1, 854252, Note_on_c, 0, 54, 48
1, 854341, Note_off_c, 0, 69, 0
1, 854391, Note_on_c, 0, 74, 61
1, 854447, Note_off_c, 0, 54, 0
1, 854562, Note_off_c, 0, 74, 0
1, 854572, Note_on_c, 0, 67, 76
1, 854704, Note_off_c, 0, 67, 0
1, 854718, Note_on_c, 0, 74, 75
1, 854920, Note_off_c, 0, 74, 0
1, 854925, Note_on_c, 0, 66, 76
1, 854932, Note_on_c, 0, 57, 61
1, 855062, Note_off_c, 0, 66, 0
1, 855093, Note_on_c, 0, 74, 63
1, 855132, Note_off_c, 0, 57, 0
1, 855224, Note_off_c, 0, 74, 0
1, 855271, Note_on_c, 0, 64, 66
1, 855381, Note_off_c, 0, 64, 0
1, 855435, Note_on_c, 0, 74, 69
1, 855580, Note_off_c, 0, 74, 0
1, 855620, Note_on_c, 0, 66, 67
1, 855646, Note_on_c, 0, 50, 43
1, 855745, Note_off_c, 0, 66, 0
1, 855777, Note_on_c, 0, 74, 63
1, 855778, Note_off_c, 0, 50, 0
1, 855932, Note_off_c, 0, 74, 0
1, 855971, Note_on_c, 0, 69, 51
1, 856111, Note_off_c, 0, 69, 0
1, 856136, Note_on_c, 0, 74, 59
1, 856285, Note_off_c, 0, 74, 0
1, 856317, Note_on_c, 0, 66, 57
1, 856327, Note_on_c, 0, 57, 57
1, 856338, Note_on_c, 0, 54, 40
1, 856412, Note_off_c, 0, 62, 0
1, 856442, Note_off_c, 0, 66, 0
1, 856494, Note_on_c, 0, 74, 57
1, 856529, Control_c, 0, 64, 27
1, 856541, Note_off_c, 0, 54, 0
1, 856546, Control_c, 0, 64, 32
1, 856567, Control_c, 0, 64, 39
1, 856584, Control_c, 0, 64, 47
1, 856595, Note_off_c, 0, 74, 0
1, 856603, Control_c, 0, 64, 54
1, 856621, Control_c, 0, 64, 58
1, 856640, Control_c, 0, 64, 62
1, 856659, Control_c, 0, 64, 64
1, 856666, Note_on_c, 0, 62, 67
1, 856678, Control_c, 0, 64, 67
1, 856696, Control_c, 0, 64, 69
1, 856715, Control_c, 0, 64, 72
1, 856734, Control_c, 0, 64, 74
1, 856745, Note_off_c, 0, 57, 0
1, 856751, Control_c, 0, 64, 77
1, 856762, Note_off_c, 0, 62, 0
1, 856778, Control_c, 0, 64, 80
1, 856798, Control_c, 0, 64, 82
1, 856816, Control_c, 0, 64, 84
1, 856832, Note_on_c, 0, 72, 68
1, 856854, Control_c, 0, 64, 87
1, 856964, Control_c, 0, 64, 80
1, 856975, Note_off_c, 0, 72, 0
1, 856982, Control_c, 0, 64, 70
1, 857002, Control_c, 0, 64, 56
1, 857020, Control_c, 0, 64, 42
1, 857036, Note_on_c, 0, 55, 68
1, 857036, Note_on_c, 0, 71, 58
1, 857039, Control_c, 0, 64, 29
1, 857058, Control_c, 0, 64, 17
1, 857068, Note_on_c, 0, 43, 45
1, 857175, Note_off_c, 0, 71, 0
1, 857190, Note_off_c, 0, 43, 0
1, 857196, Note_on_c, 0, 74, 68
1, 857270, Note_off_c, 0, 55, 0
1, 857354, Note_off_c, 0, 74, 0
1, 857368, Note_on_c, 0, 73, 73
1, 857525, Note_on_c, 0, 74, 75
1, 857535, Note_off_c, 0, 73, 0
1, 857725, Note_off_c, 0, 74, 0
1, 857729, Note_on_c, 0, 59, 78
1, 857736, Note_on_c, 0, 76, 71
1, 857741, Note_on_c, 0, 55, 60
1, 857835, Note_off_c, 0, 55, 0
1, 857887, Note_on_c, 0, 74, 70
1, 857898, Note_off_c, 0, 76, 0
1, 858066, Note_off_c, 0, 74, 0
1, 858066, Note_on_c, 0, 73, 69
1, 858231, Note_on_c, 0, 74, 71
1, 858240, Note_off_c, 0, 73, 0
1, 858251, Note_on_c, 0, 54, 57
1, 858301, Note_off_c, 0, 54, 0
1, 858382, Note_off_c, 0, 59, 0
1, 858417, Note_on_c, 0, 64, 75
1, 858419, Note_off_c, 0, 74, 0
1, 858425, Note_on_c, 0, 71, 68
1, 858450, Note_on_c, 0, 55, 46
1, 858510, Note_off_c, 0, 55, 0
1, 858579, Note_off_c, 0, 71, 0
1, 858586, Note_on_c, 0, 74, 70
1, 858755, Note_off_c, 0, 74, 0
1, 858772, Note_on_c, 0, 69, 77
1, 858893, Note_off_c, 0, 69, 0
1, 858923, Note_on_c, 0, 74, 72
1, 859114, Note_off_c, 0, 74, 0
1, 859131, Note_on_c, 0, 67, 79
1, 859135, Note_on_c, 0, 59, 58
1, 859250, Note_off_c, 0, 67, 0
1, 859285, Note_on_c, 0, 74, 72
1, 859318, Note_off_c, 0, 59, 0
1, 859446, Note_off_c, 0, 74, 0
1, 859461, Note_on_c, 0, 66, 70
1, 859612, Note_off_c, 0, 66, 0
1, 859637, Note_on_c, 0, 74, 67
1, 859793, Note_off_c, 0, 74, 0
1, 859816, Note_on_c, 0, 67, 68
1, 859845, Note_on_c, 0, 52, 45
1, 859924, Note_off_c, 0, 67, 0
1, 859963, Note_on_c, 0, 74, 60
1, 859992, Note_off_c, 0, 52, 0
1, 860138, Note_off_c, 0, 74, 0
1, 860148, Note_on_c, 0, 71, 67
1, 860285, Note_off_c, 0, 71, 0
1, 860317, Note_on_c, 0, 74, 65
1, 860479, Note_off_c, 0, 74, 0
1, 860506, Note_on_c, 0, 59, 60
1, 860517, Note_on_c, 0, 67, 57
1, 860523, Note_on_c, 0, 55, 36
1, 860611, Note_off_c, 0, 64, 0
1, 860641, Note_off_c, 0, 67, 0
1, 860672, Note_on_c, 0, 74, 55
1, 860694, Control_c, 0, 64, 23
1, 860714, Control_c, 0, 64, 31
1, 860715, Note_off_c, 0, 55, 0
1, 860732, Control_c, 0, 64, 43
1, 860751, Control_c, 0, 64, 52
1, 860768, Control_c, 0, 64, 57
1, 860787, Control_c, 0, 64, 60
1, 860805, Control_c, 0, 64, 62
1, 860823, Note_off_c, 0, 74, 0
1, 860823, Control_c, 0, 64, 65
1, 860843, Control_c, 0, 64, 68
1, 860857, Note_off_c, 0, 59, 0
1, 860861, Control_c, 0, 64, 70
1, 860866, Note_on_c, 0, 64, 65
1, 860881, Control_c, 0, 64, 73
1, 860899, Control_c, 0, 64, 75
1, 860917, Control_c, 0, 64, 77
1, 860953, Control_c, 0, 64, 79
1, 860968, Note_off_c, 0, 64, 0
1, 861024, Note_on_c, 0, 74, 62
1, 861138, Control_c, 0, 64, 77
1, 861157, Control_c, 0, 64, 69
1, 861175, Control_c, 0, 64, 55
1, 861195, Control_c, 0, 64, 39
1, 861200, Note_off_c, 0, 74, 0
1, 861212, Note_on_c, 0, 73, 63
1, 861214, Control_c, 0, 64, 23
1, 861218, Note_on_c, 0, 57, 54
1, 861231, Control_c, 0, 64, 12
1, 861243, Note_on_c, 0, 45, 32
1, 861366, Note_off_c, 0, 73, 0
1, 861385, Note_on_c, 0, 67, 66
1, 861388, Note_off_c, 0, 45, 0
1, 861499, Note_off_c, 0, 57, 0
1, 861539, Note_off_c, 0, 67, 0
1, 861574, Note_on_c, 0, 66, 65
1, 861702, Note_off_c, 0, 66, 0
1, 861723, Note_on_c, 0, 67, 64
1, 861887, Note_off_c, 0, 67, 0
1, 861912, Note_on_c, 0, 61, 70
1, 861916, Note_on_c, 0, 69, 60
1, 861933, Note_on_c, 0, 57, 47
1, 862044, Note_off_c, 0, 57, 0
1, 862072, Note_off_c, 0, 69, 0
1, 862087, Note_on_c, 0, 67, 63
1, 862256, Note_off_c, 0, 67, 0
1, 862261, Note_on_c, 0, 66, 71
1, 862262, Control_c, 0, 64, 16
1, 862299, Control_c, 0, 64, 23
1, 862318, Control_c, 0, 64, 30
1, 862337, Control_c, 0, 64, 39
1, 862355, Control_c, 0, 64, 48
1, 862374, Control_c, 0, 64, 55
1, 862395, Note_off_c, 0, 66, 0
1, 862400, Control_c, 0, 64, 61
1, 862420, Control_c, 0, 64, 65
1, 862428, Note_on_c, 0, 67, 74
1, 862436, Note_on_c, 0, 55, 63
1, 862439, Control_c, 0, 64, 68
1, 862457, Control_c, 0, 64, 70
1, 862475, Control_c, 0, 64, 73
1, 862481, Note_off_c, 0, 67, 0
1, 862484, Note_off_c, 0, 55, 0
1, 862494, Control_c, 0, 64, 75
1, 862504, Note_off_c, 0, 61, 0
1, 862512, Control_c, 0, 64, 77
1, 862531, Control_c, 0, 64, 80
1, 862549, Control_c, 0, 64, 82
1, 862633, Note_on_c, 0, 67, 80
1, 862641, Control_c, 0, 64, 78
1, 862643, Note_on_c, 0, 76, 64
1, 862660, Control_c, 0, 64, 72
1, 862674, Note_on_c, 0, 57, 43
1, 862678, Control_c, 0, 64, 61
1, 862699, Control_c, 0, 64, 47
1, 862716, Control_c, 0, 64, 27
1, 862735, Control_c, 0, 64, 0
1, 862797, Note_off_c, 0, 76, 0
1, 862809, Note_on_c, 0, 73, 69
1, 862883, Control_c, 0, 64, 12
1, 862902, Control_c, 0, 64, 25
1, 862921, Control_c, 0, 64, 39
1, 862922, Control_c, 0, 67, 66
1, 862939, Control_c, 0, 64, 52
1, 862955, Control_c, 0, 64, 61
1, 862960, Note_off_c, 0, 73, 0
1, 862974, Control_c, 0, 64, 64
1, 862979, Note_on_c, 0, 71, 74
1, 862994, Control_c, 0, 64, 66
1, 863011, Control_c, 0, 64, 68
1, 863031, Control_c, 0, 64, 70
1, 863050, Control_c, 0, 64, 72
1, 863069, Control_c, 0, 64, 74
1, 863079, Note_off_c, 0, 67, 0
1, 863085, Control_c, 0, 64, 76
1, 863124, Control_c, 0, 64, 79
1, 863137, Note_on_c, 0, 73, 73
1, 863167, Note_off_c, 0, 71, 0
1, 863309, Control_c, 0, 64, 76
1, 863336, Note_off_c, 0, 73, 0
1, 863337, Control_c, 0, 64, 71
1, 863338, Note_on_c, 0, 74, 69
1, 863339, Note_on_c, 0, 64, 73
1, 863357, Control_c, 0, 64, 63
1, 863376, Control_c, 0, 64, 54
1, 863392, Control_c, 0, 64, 41
1, 863411, Control_c, 0, 64, 20
1, 863429, Control_c, 0, 64, 0
1, 863495, Note_on_c, 0, 73, 70
1, 863511, Note_off_c, 0, 74, 0
1, 863661, Note_off_c, 0, 73, 0
1, 863683, Note_on_c, 0, 71, 74
1, 863824, Note_on_c, 0, 73, 70
1, 863880, Note_off_c, 0, 71, 0
1, 863998, Note_off_c, 0, 73, 0
1, 864025, Note_on_c, 0, 79, 73
1, 864027, Note_on_c, 0, 61, 66
1, 864059, Note_off_c, 0, 64, 0
1, 864192, Note_on_c, 0, 76, 71
1, 864204, Note_off_c, 0, 79, 0
1, 864292, Control_c, 0, 64, 9
1, 864311, Control_c, 0, 64, 15
1, 864329, Control_c, 0, 64, 21
1, 864343, Note_off_c, 0, 76, 0
1, 864348, Control_c, 0, 64, 28
1, 864356, Note_off_c, 0, 57, 0
1, 864367, Control_c, 0, 64, 35
1, 864375, Note_on_c, 0, 74, 80
1, 864385, Control_c, 0, 64, 42
1, 864402, Control_c, 0, 64, 49
1, 864422, Control_c, 0, 64, 55
1, 864440, Control_c, 0, 64, 58
1, 864478, Control_c, 0, 64, 61
1, 864497, Control_c, 0, 64, 63
1, 864516, Control_c, 0, 64, 65
1, 864527, Note_on_c, 0, 76, 79
1, 864534, Note_off_c, 0, 74, 0
1, 864534, Control_c, 0, 64, 66
1, 864552, Control_c, 0, 64, 67
1, 864588, Control_c, 0, 67, 70
1, 864644, Control_c, 0, 64, 66
1, 864663, Control_c, 0, 64, 65
1, 864681, Control_c, 0, 64, 63
1, 864700, Control_c, 0, 64, 59
1, 864720, Control_c, 0, 64, 54
1, 864721, Note_off_c, 0, 76, 0
1, 864737, Control_c, 0, 64, 46
1, 864754, Note_on_c, 0, 81, 68
1, 864757, Control_c, 0, 64, 33
1, 864768, Note_on_c, 0, 57, 46
1, 864769, Control_c, 0, 64, 13
1, 864788, Control_c, 0, 64, 0
1, 864806, Control_c, 0, 67, 74
1, 864923, Note_on_c, 0, 79, 73
1, 864930, Note_off_c, 0, 81, 0
1, 864975, Control_c, 0, 64, 9
1, 864995, Control_c, 0, 64, 17
1, 864996, Control_c, 0, 67, 80
1, 865011, Control_c, 0, 64, 28
1, 865012, Control_c, 0, 67, 85
1, 865029, Control_c, 0, 64, 40
1, 865049, Control_c, 0, 64, 50
1, 865051, Control_c, 0, 67, 90
1, 865067, Control_c, 0, 64, 57
1, 865083, Note_on_c, 0, 78, 74
1, 865084, Control_c, 0, 64, 60
1, 865099, Note_off_c, 0, 79, 0
1, 865104, Control_c, 0, 64, 63
1, 865105, Control_c, 0, 67, 94
1, 865124, Control_c, 0, 64, 66
1, 865142, Control_c, 0, 64, 68
1, 865161, Control_c, 0, 64, 71
1, 865179, Control_c, 0, 64, 73
1, 865183, Note_off_c, 0, 61, 0
1, 865224, Control_c, 0, 64, 76
1, 865250, Note_off_c, 0, 78, 0
1, 865252, Note_on_c, 0, 76, 76
1, 865409, Control_c, 0, 67, 90
1, 865429, Control_c, 0, 64, 74
1, 865447, Control_c, 0, 64, 72
1, 865466, Control_c, 0, 64, 67
1, 865484, Control_c, 0, 64, 60
1, 865504, Control_c, 0, 64, 50
1, 865515, Note_on_c, 0, 78, 67
1, 865522, Note_off_c, 0, 76, 0
1, 865522, Control_c, 0, 64, 36
1, 865531, Note_on_c, 0, 62, 41
1, 865541, Note_on_c, 0, 50, 41
1, 865541, Control_c, 0, 64, 18
1, 865550, Note_off_c, 0, 57, 0
1, 865595, Control_c, 0, 64, 0
1, 865825, Note_off_c, 0, 78, 0
1, 865849, Note_on_c, 0, 73, 60
1, 865854, Control_c, 0, 64, 8
1, 865873, Control_c, 0, 64, 17
1, 865892, Control_c, 0, 64, 27
1, 865911, Control_c, 0, 64, 40
1, 865930, Control_c, 0, 64, 51
1, 865948, Control_c, 0, 64, 58
1, 865968, Control_c, 0, 64, 61
1, 865986, Control_c, 0, 64, 64
1, 866004, Control_c, 0, 64, 67
1, 866008, Note_off_c, 0, 73, 0
1, 866021, Control_c, 0, 64, 69
1, 866040, Control_c, 0, 64, 72
1, 866060, Control_c, 0, 64, 74
1, 866078, Control_c, 0, 64, 77
1, 866097, Control_c, 0, 64, 80
1, 866144, Control_c, 0, 64, 82
1, 866216, Control_c, 0, 64, 79
1, 866220, Note_on_c, 0, 73, 61
1, 866236, Control_c, 0, 64, 74
1, 866253, Control_c, 0, 64, 68
1, 866266, Note_on_c, 0, 52, 40
1, 866271, Control_c, 0, 64, 60
1, 866293, Control_c, 0, 64, 52
1, 866310, Control_c, 0, 64, 43
1, 866329, Control_c, 0, 64, 32
1, 866347, Control_c, 0, 64, 20
1, 866355, Note_off_c, 0, 62, 0
1, 866366, Control_c, 0, 64, 9
1, 866401, Control_c, 0, 64, 0
1, 866592, Note_off_c, 0, 73, 0
1, 866593, Note_on_c, 0, 74, 68
1, 866644, Control_c, 0, 64, 14
1, 866662, Control_c, 0, 64, 25
1, 866679, Control_c, 0, 64, 39
1, 866699, Control_c, 0, 64, 53
1, 866718, Control_c, 0, 64, 61
1, 866736, Control_c, 0, 64, 64
1, 866753, Control_c, 0, 64, 67
1, 866772, Control_c, 0, 64, 70
1, 866791, Control_c, 0, 64, 73
1, 866795, Note_off_c, 0, 74, 0
1, 866809, Control_c, 0, 64, 77
1, 866828, Control_c, 0, 64, 81
1, 866848, Control_c, 0, 64, 85
1, 866883, Control_c, 0, 64, 89
1, 866959, Control_c, 0, 64, 87
1, 866975, Note_on_c, 0, 74, 59
1, 866978, Control_c, 0, 64, 83
1, 866996, Control_c, 0, 64, 76
1, 867011, Note_off_c, 0, 52, 0
1, 867014, Control_c, 0, 64, 64
1, 867019, Note_on_c, 0, 54, 31
1, 867033, Control_c, 0, 64, 51
1, 867052, Control_c, 0, 64, 39
1, 867079, Control_c, 0, 64, 27
1, 867099, Control_c, 0, 64, 15
1, 867134, Control_c, 0, 64, 0
1, 867339, Control_c, 0, 64, 17
1, 867340, Note_off_c, 0, 74, 0
1, 867358, Control_c, 0, 64, 33
1, 867364, Note_on_c, 0, 67, 56
1, 867377, Control_c, 0, 64, 51
1, 867394, Control_c, 0, 64, 63
1, 867412, Control_c, 0, 64, 68
1, 867432, Control_c, 0, 64, 70
1, 867450, Control_c, 0, 64, 74
1, 867469, Control_c, 0, 64, 78
1, 867487, Control_c, 0, 64, 82
1, 867507, Control_c, 0, 64, 86
1, 867508, Note_off_c, 0, 67, 0
1, 867543, Control_c, 0, 64, 93
1, 867748, Control_c, 0, 64, 86
1, 867757, Note_on_c, 0, 61, 47
1, 867761, Note_on_c, 0, 67, 46
1, 867767, Control_c, 0, 64, 78
1, 867774, Note_on_c, 0, 58, 42
1, 867786, Control_c, 0, 64, 69
1, 867804, Control_c, 0, 64, 59
1, 867809, Note_off_c, 0, 54, 0
1, 867822, Control_c, 0, 64, 48
1, 867842, Control_c, 0, 64, 36
1, 867860, Control_c, 0, 64, 20
1, 867916, Control_c, 0, 64, 0
1, 868222, Control_c, 0, 64, 12
1, 868223, Note_off_c, 0, 67, 0
1, 868237, Note_on_c, 0, 66, 46
1, 868239, Control_c, 0, 64, 25
1, 868258, Control_c, 0, 64, 39
1, 868277, Control_c, 0, 64, 56
1, 868295, Control_c, 0, 64, 66
1, 868315, Control_c, 0, 64, 71
1, 868332, Control_c, 0, 64, 74
1, 868352, Control_c, 0, 64, 80
1, 868370, Control_c, 0, 64, 87
1, 868388, Control_c, 0, 64, 97
1, 868406, Control_c, 0, 64, 108
1, 868425, Control_c, 0, 64, 121
1, 868444, Control_c, 0, 64, 127
1, 868472, Note_off_c, 0, 61, 0
1, 868505, Note_off_c, 0, 66, 0
1, 868810, Note_on_c, 0, 57, 35
1, 868854, Note_off_c, 0, 58, 0
1, 868889, Control_c, 0, 64, 115
1, 868908, Control_c, 0, 64, 102
1, 868915, Note_on_c, 0, 66, 53
1, 868927, Control_c, 0, 64, 87
1, 868955, Control_c, 0, 64, 69
1, 868968, Note_on_c, 0, 62, 27
1, 868973, Control_c, 0, 64, 53
1, 868992, Control_c, 0, 64, 41
1, 869008, Note_off_c, 0, 66, 0
1, 869008, Control_c, 0, 64, 30
1, 869028, Control_c, 0, 64, 23
1, 869033, Note_on_c, 0, 64, 54
1, 869100, Note_off_c, 0, 62, 0
1, 869162, Note_off_c, 0, 64, 0
1, 869184, Note_on_c, 0, 66, 46
1, 869212, Poly_aftertouch_c, 0, 62, 24
1, 869473, Poly_aftertouch_c, 0, 62, 32
1, 869752, Control_c, 0, 64, 27
1, 869790, Control_c, 0, 64, 32
1, 869824, Control_c, 0, 64, 38
1, 869844, Control_c, 0, 64, 43
1, 869862, Control_c, 0, 64, 48
1, 869891, Control_c, 0, 64, 53
1, 869910, Control_c, 0, 64, 56
1, 869928, Control_c, 0, 64, 58
1, 869946, Control_c, 0, 64, 60
1, 869967, Control_c, 0, 64, 63
1, 869984, Control_c, 0, 64, 65
1, 870001, Control_c, 0, 64, 67
1, 870020, Control_c, 0, 64, 69
1, 870039, Control_c, 0, 64, 72
1, 870057, Control_c, 0, 64, 74
1, 870077, Control_c, 0, 64, 76
1, 870095, Control_c, 0, 64, 78
1, 870113, Control_c, 0, 64, 81
1, 870132, Control_c, 0, 64, 83
1, 870152, Control_c, 0, 64, 85
1, 870186, Control_c, 0, 64, 88
1, 870261, Poly_aftertouch_c, 0, 62, 24
1, 870311, Poly_aftertouch_c, 0, 62, 0
1, 870359, Note_off_c, 0, 50, 0
1, 870372, Note_off_c, 0, 66, 0
1, 870374, Note_off_c, 0, 57, 0
1, 870689, Control_c, 0, 64, 86
1, 870709, Control_c, 0, 64, 81
1, 870729, Control_c, 0, 64, 73
1, 870746, Control_c, 0, 64, 64
1, 870765, Control_c, 0, 64, 55
1, 870784, Control_c, 0, 64, 49
1, 870802, Control_c, 0, 64, 42
1, 870828, Control_c, 0, 64, 36
1, 870847, Control_c, 0, 64, 30
1, 870865, Control_c, 0, 64, 25
1, 871241, Note_on_c, 0, 78, 55
1, 871243, Note_on_c, 0, 62, 50
1, 871282, Note_off_c, 0, 78, 0
1, 871412, Note_on_c, 0, 79, 64
1, 871459, Note_off_c, 0, 79, 0
1, 871570, Note_on_c, 0, 78, 72
1, 871623, Note_off_c, 0, 78, 0
1, 871726, Note_on_c, 0, 76, 77
1, 871784, Note_off_c, 0, 76, 0
1, 871947, Note_on_c, 0, 78, 73
1, 872285, Note_on_c, 0, 66, 57
1, 872429, Note_off_c, 0, 66, 0
1, 872641, Note_on_c, 0, 69, 62
1, 872802, Note_on_c, 0, 76, 71
1, 872805, Note_off_c, 0, 78, 0
1, 872869, Control_c, 0, 64, 30
1, 872887, Control_c, 0, 64, 36
1, 872907, Control_c, 0, 64, 43
1, 872924, Control_c, 0, 64, 52
1, 872944, Control_c, 0, 64, 59
1, 872963, Control_c, 0, 64, 62
1, 872967, Note_off_c, 0, 62, 0
1, 872971, Note_on_c, 0, 78, 80
1, 872981, Control_c, 0, 64, 65
1, 872988, Note_off_c, 0, 76, 0
1, 872997, Control_c, 0, 64, 67
1, 873017, Control_c, 0, 64, 69
1, 873035, Control_c, 0, 64, 71
1, 873055, Control_c, 0, 64, 73
1, 873072, Control_c, 0, 64, 75
1, 873092, Control_c, 0, 64, 77
1, 873109, Note_off_c, 0, 78, 0
1, 873112, Control_c, 0, 64, 79
1, 873113, Note_on_c, 0, 79, 81
1, 873128, Control_c, 0, 64, 81
1, 873148, Control_c, 0, 64, 84
1, 873276, Control_c, 0, 64, 81
1, 873296, Control_c, 0, 64, 76
1, 873306, Note_on_c, 0, 81, 83
1, 873315, Control_c, 0, 64, 67
1, 873332, Note_off_c, 0, 79, 0
1, 873332, Control_c, 0, 64, 58
1, 873338, Note_on_c, 0, 60, 49
1, 873351, Control_c, 0, 64, 47
1, 873369, Control_c, 0, 64, 34
1, 873387, Control_c, 0, 64, 16
1, 873406, Control_c, 0, 64, 0
1, 873593, Control_c, 0, 64, 8
1, 873611, Control_c, 0, 64, 15
1, 873639, Control_c, 0, 64, 23
1, 873641, Note_off_c, 0, 60, 0
1, 873646, Note_on_c, 0, 83, 85
1, 873656, Control_c, 0, 64, 35
1, 873667, Note_on_c, 0, 59, 48
1, 873675, Control_c, 0, 64, 46
1, 873678, Note_off_c, 0, 81, 0
1, 873695, Control_c, 0, 64, 55
1, 873712, Control_c, 0, 64, 59
1, 873732, Control_c, 0, 64, 61
1, 873750, Control_c, 0, 64, 63
1, 873769, Control_c, 0, 64, 65
1, 873787, Control_c, 0, 64, 67
1, 873806, Control_c, 0, 64, 69
1, 873824, Control_c, 0, 64, 71
1, 873826, Control_c, 0, 67, 86
1, 873861, Control_c, 0, 64, 74
1, 873898, Control_c, 0, 64, 76
1, 873954, Control_c, 0, 64, 71
1, 873961, Note_off_c, 0, 83, 0
1, 873973, Control_c, 0, 64, 63
1, 873974, Note_off_c, 0, 59, 0
1, 873985, Note_on_c, 0, 84, 72
1, 873991, Control_c, 0, 64, 53
1, 874003, Note_on_c, 0, 60, 47
1, 874007, Control_c, 0, 64, 41
1, 874027, Control_c, 0, 64, 28
1, 874046, Control_c, 0, 64, 18
1, 874064, Control_c, 0, 64, 13
1, 874067, Note_on_c, 0, 83, 78
1, 874072, Note_off_c, 0, 84, 0
1, 874333, Note_on_c, 0, 81, 71
1, 874342, Note_off_c, 0, 83, 0
1, 874674, Note_off_c, 0, 81, 0
1, 874692, Note_on_c, 0, 79, 70
1, 874716, Note_off_c, 0, 60, 0
1, 874716, Note_on_c, 0, 57, 37
1, 875044, Note_on_c, 0, 78, 70
1, 875045, Note_off_c, 0, 79, 0
1, 875384, Note_off_c, 0, 78, 0
1, 875415, Note_on_c, 0, 79, 61
1, 875428, Note_on_c, 0, 59, 49
1, 875456, Note_off_c, 0, 57, 0
1, 875468, Note_off_c, 0, 79, 0
1, 875537, Note_off_c, 0, 69, 0
1, 875580, Note_on_c, 0, 81, 59
1, 875622, Note_off_c, 0, 81, 0
1, 875750, Note_on_c, 0, 79, 63
1, 875794, Note_off_c, 0, 79, 0
1, 875914, Note_on_c, 0, 78, 67
1, 875967, Note_off_c, 0, 78, 0
1, 876121, Note_on_c, 0, 79, 72
1, 876485, Note_on_c, 0, 62, 67
1, 876579, Control_c, 0, 64, 18
1, 876597, Control_c, 0, 64, 24
1, 876616, Control_c, 0, 64, 29
1, 876633, Control_c, 0, 64, 35
1, 876641, Note_off_c, 0, 62, 0
1, 876652, Control_c, 0, 64, 41
1, 876670, Control_c, 0, 64, 47
1, 876689, Control_c, 0, 64, 51
1, 876726, Control_c, 0, 64, 54
1, 876764, Control_c, 0, 64, 57
1, 876777, Note_off_c, 0, 79, 0
1, 876783, Control_c, 0, 64, 59
1, 876801, Control_c, 0, 64, 61
1, 876818, Control_c, 0, 64, 64
1, 876833, Note_on_c, 0, 67, 70
1, 876836, Control_c, 0, 64, 66
1, 876856, Control_c, 0, 64, 68
1, 876893, Control_c, 0, 64, 71
1, 876930, Control_c, 0, 64, 74
1, 876988, Note_off_c, 0, 67, 0
1, 876991, Note_on_c, 0, 66, 71
1, 877124, Note_off_c, 0, 66, 0
1, 877140, Note_on_c, 0, 67, 77
1, 877208, Control_c, 0, 64, 72
1, 877297, Note_on_c, 0, 69, 73
1, 877300, Control_c, 0, 64, 69
1, 877321, Control_c, 0, 64, 68
1, 877339, Control_c, 0, 64, 64
1, 877358, Control_c, 0, 64, 60
1, 877379, Note_off_c, 0, 59, 0
1, 877385, Control_c, 0, 64, 56
1, 877404, Control_c, 0, 64, 50
1, 877423, Control_c, 0, 64, 43
1, 877440, Control_c, 0, 64, 34
1, 877457, Control_c, 0, 64, 25
1, 877477, Control_c, 0, 64, 19
1, 877515, Note_on_c, 0, 71, 75
1, 877528, Note_on_c, 0, 62, 46
1, 877543, Note_off_c, 0, 69, 0
1, 877570, Control_c, 0, 64, 15
1, 877844, Note_on_c, 0, 72, 80
1, 877850, Note_off_c, 0, 71, 0
1, 878159, Note_off_c, 0, 72, 0
1, 878180, Note_on_c, 0, 74, 69
1, 878209, Note_on_c, 0, 55, 47
1, 878258, Note_on_c, 0, 72, 75
1, 878262, Note_off_c, 0, 74, 0
1, 878400, Note_off_c, 0, 62, 0
1, 878610, Note_on_c, 0, 71, 72
1, 878631, Note_off_c, 0, 72, 0
1, 878952, Note_on_c, 0, 69, 70
1, 878959, Note_off_c, 0, 55, 0
1, 878976, Note_on_c, 0, 59, 54
1, 878979, Note_off_c, 0, 71, 0
1, 879166, Note_off_c, 0, 67, 0
1, 879274, Control_c, 0, 64, 22
1, 879290, Control_c, 0, 64, 28
1, 879299, Note_off_c, 0, 69, 0
1, 879301, Note_on_c, 0, 67, 74
1, 879309, Control_c, 0, 64, 35
1, 879329, Control_c, 0, 64, 43
1, 879347, Control_c, 0, 64, 52
1, 879364, Control_c, 0, 64, 58
1, 879384, Control_c, 0, 64, 61
1, 879403, Control_c, 0, 64, 64
1, 879422, Control_c, 0, 64, 66
1, 879440, Control_c, 0, 64, 68
1, 879459, Control_c, 0, 64, 70
1, 879476, Control_c, 0, 64, 73
1, 879494, Control_c, 0, 64, 76
1, 879513, Control_c, 0, 64, 78
1, 879551, Control_c, 0, 64, 80
1, 879607, Control_c, 0, 64, 76
1, 879626, Note_off_c, 0, 59, 0
1, 879626, Control_c, 0, 64, 68
1, 879644, Control_c, 0, 64, 58
1, 879653, Note_on_c, 0, 76, 71
1, 879661, Control_c, 0, 64, 49
1, 879661, Note_on_c, 0, 60, 57
1, 879680, Control_c, 0, 64, 39
1, 879699, Control_c, 0, 64, 30
1, 879716, Control_c, 0, 64, 23
1, 879722, Note_off_c, 0, 76, 0
1, 879754, Control_c, 0, 64, 19
1, 879821, Note_on_c, 0, 78, 75
1, 879885, Note_off_c, 0, 78, 0
1, 879979, Note_on_c, 0, 76, 77
1, 880045, Note_off_c, 0, 76, 0
1, 880129, Note_on_c, 0, 75, 71
1, 880210, Note_off_c, 0, 75, 0
1, 880341, Note_on_c, 0, 76, 75
1, 880611, Note_off_c, 0, 67, 0
1, 880678, Note_on_c, 0, 68, 74
1, 881010, Note_off_c, 0, 68, 0
1, 881039, Note_on_c, 0, 69, 76
1, 881292, Control_c, 0, 64, 23
1, 881310, Control_c, 0, 64, 27
1, 881330, Control_c, 0, 64, 34
1, 881348, Control_c, 0, 64, 42
1, 881367, Control_c, 0, 64, 51
1, 881380, Note_on_c, 0, 80, 80
1, 881386, Control_c, 0, 64, 58
1, 881405, Control_c, 0, 64, 62
1, 881417, Note_off_c, 0, 60, 0
1, 881423, Control_c, 0, 64, 66
1, 881441, Control_c, 0, 64, 69
1, 881448, Note_off_c, 0, 76, 0
1, 881461, Control_c, 0, 64, 73
1, 881478, Control_c, 0, 64, 78
1, 881496, Control_c, 0, 64, 83
1, 881515, Control_c, 0, 64, 88
1, 881533, Control_c, 0, 64, 94
1, 881543, Note_off_c, 0, 80, 0
1, 881553, Control_c, 0, 64, 99
1, 881570, Control_c, 0, 64, 104
1, 881583, Note_off_c, 0, 69, 0
1, 881610, Control_c, 0, 64, 109
1, 881700, Control_c, 0, 64, 103
1, 881716, Note_on_c, 0, 80, 79
1, 881719, Control_c, 0, 64, 96
1, 881730, Note_on_c, 0, 62, 70
1, 881738, Control_c, 0, 64, 86
1, 881756, Control_c, 0, 64, 74
1, 881759, Note_on_c, 0, 59, 57
1, 881775, Control_c, 0, 64, 62
1, 881793, Control_c, 0, 64, 52
1, 881814, Control_c, 0, 64, 40
1, 881831, Control_c, 0, 64, 23
1, 881850, Control_c, 0, 64, 0
1, 882082, Control_c, 0, 64, 19
1, 882096, Note_on_c, 0, 81, 81
1, 882098, Control_c, 0, 64, 33
1, 882117, Control_c, 0, 64, 47
1, 882131, Note_off_c, 0, 80, 0
1, 882136, Control_c, 0, 64, 57
1, 882155, Control_c, 0, 64, 61
1, 882174, Control_c, 0, 64, 65
1, 882192, Control_c, 0, 64, 68
1, 882211, Control_c, 0, 64, 71
1, 882230, Control_c, 0, 64, 75
1, 882231, Note_off_c, 0, 81, 0
1, 882248, Control_c, 0, 64, 79
1, 882268, Control_c, 0, 64, 84
1, 882284, Control_c, 0, 64, 89
1, 882302, Control_c, 0, 64, 93
1, 882416, Control_c, 0, 64, 87
1, 882434, Control_c, 0, 64, 80
1, 882442, Note_on_c, 0, 81, 78
1, 882450, Note_off_c, 0, 59, 0
1, 882450, Note_on_c, 0, 64, 70
1, 882453, Control_c, 0, 64, 71
1, 882454, Note_off_c, 0, 62, 0
1, 882470, Note_on_c, 0, 60, 52
1, 882472, Control_c, 0, 64, 60
1, 882491, Control_c, 0, 64, 51
1, 882509, Control_c, 0, 64, 38
1, 882528, Control_c, 0, 64, 23
1, 882584, Control_c, 0, 64, 0
1, 882695, Note_on_c, 0, 59, 31
1, 882702, Note_off_c, 0, 60, 0
1, 882732, Control_c, 0, 64, 8
1, 882740, Note_off_c, 0, 59, 0
1, 882751, Control_c, 0, 64, 14
1, 882769, Control_c, 0, 64, 24
1, 882787, Control_c, 0, 64, 37
1, 882788, Note_on_c, 0, 83, 84
1, 882807, Control_c, 0, 64, 52
1, 882826, Control_c, 0, 64, 62
1, 882827, Note_off_c, 0, 81, 0
1, 882844, Control_c, 0, 64, 65
1, 882862, Control_c, 0, 64, 67
1, 882881, Control_c, 0, 64, 69
1, 882900, Control_c, 0, 64, 71
1, 882916, Control_c, 0, 64, 74
1, 882936, Control_c, 0, 64, 78
1, 882941, Note_off_c, 0, 83, 0
1, 882954, Control_c, 0, 64, 81
1, 882983, Control_c, 0, 64, 84
1, 883001, Control_c, 0, 64, 87
1, 883149, Control_c, 0, 64, 80
1, 883149, Control_c, 0, 67, 90
1, 883164, Note_on_c, 0, 67, 64
1, 883168, Control_c, 0, 64, 73
1, 883169, Note_on_c, 0, 83, 72
1, 883186, Control_c, 0, 64, 64
1, 883190, Note_off_c, 0, 64, 0
1, 883205, Control_c, 0, 64, 55
1, 883206, Note_on_c, 0, 57, 47
1, 883223, Control_c, 0, 64, 44
1, 883231, Poly_aftertouch_c, 0, 60, 0
1, 883242, Control_c, 0, 64, 29
1, 883262, Control_c, 0, 64, 9
1, 883280, Control_c, 0, 64, 0
1, 883390, Control_c, 0, 67, 94
1, 883538, Control_c, 0, 67, 98
1, 883554, Note_off_c, 0, 83, 0
1, 883557, Control_c, 0, 67, 102
1, 883562, Note_on_c, 0, 84, 60
1, 883614, Control_c, 0, 64, 16
1, 883615, Control_c, 0, 67, 107
1, 883632, Control_c, 0, 64, 28
1, 883650, Control_c, 0, 64, 42
1, 883669, Control_c, 0, 64, 56
1, 883688, Control_c, 0, 64, 64
1, 883706, Control_c, 0, 64, 68
1, 883723, Control_c, 0, 64, 70
1, 883742, Control_c, 0, 64, 72
1, 883761, Control_c, 0, 64, 75
1, 883779, Control_c, 0, 64, 78
1, 883798, Control_c, 0, 64, 81
1, 883817, Control_c, 0, 64, 84
1, 883836, Control_c, 0, 64, 87
1, 883969, Note_off_c, 0, 84, 0
1, 883991, Control_c, 0, 64, 84
1, 884005, Note_off_c, 0, 57, 0
1, 884010, Control_c, 0, 64, 76
1, 884029, Control_c, 0, 64, 64
1, 884037, Note_on_c, 0, 76, 47
1, 884045, Note_on_c, 0, 59, 41
1, 884048, Control_c, 0, 64, 52
1, 884066, Control_c, 0, 64, 43
1, 884085, Note_off_c, 0, 76, 0
1, 884085, Control_c, 0, 64, 33
1, 884101, Control_c, 0, 64, 26
1, 884121, Control_c, 0, 64, 21
1, 884139, Control_c, 0, 64, 17
1, 884195, Control_c, 0, 64, 13
1, 884203, Note_on_c, 0, 75, 54
1, 884251, Control_c, 0, 64, 9
1, 884257, Note_off_c, 0, 75, 0
1, 884381, Control_c, 0, 64, 19
1, 884390, Note_on_c, 0, 73, 54
1, 884400, Control_c, 0, 64, 28
1, 884418, Control_c, 0, 64, 41
1, 884437, Control_c, 0, 64, 53
1, 884455, Control_c, 0, 64, 60
1, 884456, Control_c, 0, 67, 103
1, 884474, Control_c, 0, 64, 63
1, 884493, Control_c, 0, 64, 65
1, 884511, Control_c, 0, 64, 67
1, 884528, Control_c, 0, 64, 69
1, 884547, Control_c, 0, 64, 72
1, 884566, Control_c, 0, 64, 74
1, 884585, Control_c, 0, 64, 76
1, 884623, Note_off_c, 0, 73, 0
1, 884698, Control_c, 0, 64, 72
1, 884705, Note_on_c, 0, 75, 56
1, 884713, Control_c, 0, 64, 68
1, 884732, Control_c, 0, 64, 64
1, 884748, Note_on_c, 0, 66, 48
1, 884750, Control_c, 0, 64, 58
1, 884753, Note_off_c, 0, 75, 0
1, 884770, Control_c, 0, 64, 51
1, 884774, Note_on_c, 0, 73, 59
1, 884789, Control_c, 0, 64, 42
1, 884807, Control_c, 0, 64, 31
1, 884815, Note_off_c, 0, 67, 0
1, 884826, Control_c, 0, 64, 23
1, 884855, Note_off_c, 0, 73, 0
1, 884872, Control_c, 0, 64, 17
1, 884873, Note_on_c, 0, 75, 61
1, 885100, Note_off_c, 0, 66, 0
1, 885117, Note_on_c, 0, 64, 48
1, 885370, Note_off_c, 0, 64, 0
1, 885497, Note_on_c, 0, 66, 43
1, 885633, Control_c, 0, 64, 23
1, 885650, Control_c, 0, 64, 30
1, 885670, Control_c, 0, 64, 41
1, 885689, Control_c, 0, 64, 53
1, 885707, Control_c, 0, 64, 61
1, 885724, Control_c, 0, 64, 64
1, 885743, Control_c, 0, 64, 67
1, 885762, Control_c, 0, 64, 71
1, 885770, Note_off_c, 0, 66, 0
1, 885791, Control_c, 0, 64, 74
1, 885792, Control_c, 0, 67, 99
1, 885809, Control_c, 0, 64, 79
1, 885818, Note_off_c, 0, 59, 0
1, 885826, Control_c, 0, 64, 84
1, 885847, Control_c, 0, 64, 89
1, 885865, Control_c, 0, 64, 93
1, 885919, Control_c, 0, 64, 98
1, 886143, Control_c, 0, 64, 93
1, 886192, Note_off_c, 0, 75, 0
1, 886197, Control_c, 0, 64, 86
1, 886218, Control_c, 0, 64, 79
1, 886235, Control_c, 0, 64, 71
1, 886246, Note_on_c, 0, 47, 56
1, 886253, Control_c, 0, 64, 63
1, 886273, Control_c, 0, 64, 59
1, 886292, Control_c, 0, 64, 55
1, 886309, Control_c, 0, 64, 50
1, 886329, Control_c, 0, 64, 43
1, 886345, Control_c, 0, 64, 35
1, 886365, Control_c, 0, 64, 25
1, 886382, Control_c, 0, 64, 18
1, 886411, Note_on_c, 0, 75, 61
1, 886567, Note_off_c, 0, 75, 0
1, 886587, Note_on_c, 0, 76, 69
1, 886752, Note_off_c, 0, 76, 0
1, 886754, Note_on_c, 0, 78, 67
1, 886903, Note_off_c, 0, 78, 0
1, 886940, Note_on_c, 0, 76, 56
1, 886941, Note_on_c, 0, 49, 67
1, 887004, Note_off_c, 0, 47, 0
1, 887096, Note_off_c, 0, 76, 0
1, 887112, Note_on_c, 0, 75, 66
1, 887286, Note_on_c, 0, 73, 70
1, 887288, Note_off_c, 0, 75, 0
1, 887413, Note_off_c, 0, 73, 0
1, 887439, Note_on_c, 0, 71, 71
1, 887613, Note_off_c, 0, 71, 0
1, 887635, Note_on_c, 0, 51, 68
1, 887639, Note_on_c, 0, 69, 60
1, 887676, Note_off_c, 0, 49, 0
1, 887789, Note_off_c, 0, 69, 0
1, 887822, Note_on_c, 0, 67, 65
1, 887893, Note_off_c, 0, 67, 0
1, 887983, Note_on_c, 0, 69, 59
1, 888034, Control_c, 0, 64, 23
1, 888072, Control_c, 0, 64, 31
1, 888091, Control_c, 0, 64, 36
1, 888110, Control_c, 0, 64, 44
1, 888120, Note_off_c, 0, 69, 0
1, 888127, Control_c, 0, 64, 51
1, 888145, Control_c, 0, 64, 57
1, 888146, Note_on_c, 0, 78, 65
1, 888164, Control_c, 0, 64, 59
1, 888182, Control_c, 0, 64, 62
1, 888200, Control_c, 0, 64, 64
1, 888220, Control_c, 0, 64, 66
1, 888237, Control_c, 0, 64, 67
1, 888293, Note_off_c, 0, 78, 0
1, 888332, Control_c, 0, 64, 65
1, 888346, Note_on_c, 0, 67, 59
1, 888348, Control_c, 0, 64, 59
1, 888357, Note_off_c, 0, 51, 0
1, 888358, Note_on_c, 0, 40, 50
1, 888367, Control_c, 0, 64, 51
1, 888386, Control_c, 0, 64, 39
1, 888405, Control_c, 0, 64, 24
1, 888424, Control_c, 0, 64, 14
1, 888459, Note_off_c, 0, 67, 0
1, 888510, Note_on_c, 0, 76, 62
1, 888533, Control_c, 0, 64, 20
1, 888553, Control_c, 0, 64, 28
1, 888571, Control_c, 0, 64, 38
1, 888600, Control_c, 0, 64, 50
1, 888617, Control_c, 0, 64, 59
1, 888637, Control_c, 0, 64, 61
1, 888646, Note_off_c, 0, 40, 0
1, 888654, Note_off_c, 0, 76, 0
1, 888654, Control_c, 0, 64, 63
1, 888675, Control_c, 0, 64, 65
1, 888692, Note_on_c, 0, 75, 63
1, 888692, Control_c, 0, 64, 67
1, 888711, Control_c, 0, 64, 68
1, 888818, Note_off_c, 0, 75, 0
1, 888853, Note_on_c, 0, 76, 65
1, 888933, Control_c, 0, 64, 67
1, 888970, Control_c, 0, 64, 66
1, 888988, Control_c, 0, 64, 65
1, 889009, Control_c, 0, 64, 63
1, 889026, Control_c, 0, 64, 60
1, 889037, Note_off_c, 0, 76, 0
1, 889044, Control_c, 0, 64, 54
1, 889053, Note_on_c, 0, 59, 74
1, 889064, Control_c, 0, 64, 47
1, 889078, Note_on_c, 0, 77, 59
1, 889079, Note_on_c, 0, 55, 48
1, 889082, Control_c, 0, 64, 38
1, 889101, Control_c, 0, 64, 27
1, 889120, Control_c, 0, 64, 21
1, 889156, Control_c, 0, 64, 15
1, 889221, Note_off_c, 0, 77, 0
1, 889223, Note_on_c, 0, 76, 62
1, 889285, Note_off_c, 0, 55, 0
1, 889364, Poly_aftertouch_c, 0, 55, 24
1, 889371, Note_off_c, 0, 76, 0
1, 889402, Note_on_c, 0, 75, 66
1, 889414, Note_on_c, 0, 57, 51
1, 889429, Poly_aftertouch_c, 0, 55, 0
1, 889527, Note_off_c, 0, 75, 0
1, 889568, Note_on_c, 0, 76, 65
1, 889647, Control_c, 0, 64, 9
1, 889703, Control_c, 0, 64, 0
1, 889737, Note_off_c, 0, 57, 0
1, 889746, Note_off_c, 0, 76, 0
1, 889754, Note_on_c, 0, 78, 63
1, 889764, Note_on_c, 0, 55, 41
1, 889879, Note_off_c, 0, 78, 0
1, 889908, Note_on_c, 0, 76, 58
1, 890037, Control_c, 0, 64, 13
1, 890055, Control_c, 0, 64, 23
1, 890075, Control_c, 0, 64, 32
1, 890078, Note_off_c, 0, 76, 0
1, 890093, Control_c, 0, 64, 40
1, 890094, Note_on_c, 0, 79, 67
1, 890111, Control_c, 0, 64, 45
1, 890131, Control_c, 0, 64, 50
1, 890147, Control_c, 0, 64, 55
1, 890167, Control_c, 0, 64, 58
1, 890184, Control_c, 0, 64, 61
1, 890204, Control_c, 0, 64, 64
1, 890211, Note_off_c, 0, 79, 0
1, 890223, Control_c, 0, 64, 66
1, 890240, Control_c, 0, 64, 68
1, 890244, Note_on_c, 0, 76, 63
1, 890278, Control_c, 0, 64, 71
1, 890315, Control_c, 0, 64, 73
1, 890408, Control_c, 0, 64, 70
1, 890420, Note_off_c, 0, 76, 0
1, 890424, Note_on_c, 0, 81, 77
1, 890427, Control_c, 0, 64, 65
1, 890437, Note_on_c, 0, 57, 63
1, 890445, Control_c, 0, 64, 58
1, 890473, Control_c, 0, 64, 47
1, 890483, Note_on_c, 0, 54, 39
1, 890484, Note_off_c, 0, 59, 0
1, 890491, Control_c, 0, 64, 31
1, 890510, Control_c, 0, 64, 11
1, 890542, Note_off_c, 0, 55, 0
1, 890584, Note_off_c, 0, 81, 0
1, 890594, Note_on_c, 0, 76, 65
1, 890713, Control_c, 0, 64, 17
1, 890751, Control_c, 0, 64, 27
1, 890764, Note_off_c, 0, 76, 0
1, 890767, Control_c, 0, 64, 36
1, 890769, Note_on_c, 0, 83, 82
1, 890787, Control_c, 0, 64, 47
1, 890808, Control_c, 0, 64, 57
1, 890810, Control_c, 0, 67, 95
1, 890825, Control_c, 0, 64, 60
1, 890844, Control_c, 0, 64, 62
1, 890863, Control_c, 0, 64, 64
1, 890881, Control_c, 0, 64, 66
1, 890900, Control_c, 0, 64, 69
1, 890913, Note_off_c, 0, 83, 0
1, 890917, Control_c, 0, 64, 71
1, 890922, Note_on_c, 0, 76, 71
1, 890938, Control_c, 0, 64, 73
1, 890954, Control_c, 0, 64, 75
1, 890991, Control_c, 0, 64, 77
1, 891104, Control_c, 0, 64, 74
1, 891121, Note_off_c, 0, 76, 0
1, 891122, Control_c, 0, 64, 70
1, 891127, Note_on_c, 0, 84, 82
1, 891139, Control_c, 0, 64, 63
1, 891157, Control_c, 0, 64, 54
1, 891161, Note_off_c, 0, 54, 0
1, 891161, Note_on_c, 0, 52, 46
1, 891176, Control_c, 0, 64, 42
1, 891196, Control_c, 0, 64, 24
1, 891234, Control_c, 0, 64, 0
1, 891276, Note_on_c, 0, 76, 64
1, 891277, Note_off_c, 0, 84, 0
1, 891428, Control_c, 0, 64, 8
1, 891447, Note_off_c, 0, 76, 0
1, 891466, Control_c, 0, 64, 15
1, 891474, Note_on_c, 0, 86, 80
1, 891484, Control_c, 0, 64, 23
1, 891503, Control_c, 0, 64, 33
1, 891523, Control_c, 0, 64, 44
1, 891540, Control_c, 0, 64, 54
1, 891559, Control_c, 0, 64, 59
1, 891577, Control_c, 0, 64, 61
1, 891595, Control_c, 0, 64, 63
1, 891601, Note_off_c, 0, 86, 0
1, 891613, Control_c, 0, 64, 65
1, 891631, Note_on_c, 0, 76, 61
1, 891633, Control_c, 0, 64, 67
1, 891651, Control_c, 0, 64, 69
1, 891670, Control_c, 0, 64, 71
1, 891762, Control_c, 0, 64, 69
1, 891775, Note_off_c, 0, 76, 0
1, 891778, Control_c, 0, 64, 63
1, 891798, Control_c, 0, 64, 55
1, 891817, Control_c, 0, 64, 44
1, 891820, Note_on_c, 0, 84, 70
1, 891831, Note_off_c, 0, 57, 0
1, 891835, Control_c, 0, 64, 26
1, 891844, Note_on_c, 0, 56, 49
1, 891873, Control_c, 0, 64, 0
1, 891965, Control_c, 0, 64, 9
1, 891981, Note_off_c, 0, 84, 0
1, 891983, Control_c, 0, 64, 18
1, 891990, Note_on_c, 0, 76, 49
1, 892002, Control_c, 0, 64, 31
1, 892022, Control_c, 0, 64, 45
1, 892040, Control_c, 0, 64, 58
1, 892059, Control_c, 0, 64, 64
1, 892077, Control_c, 0, 64, 67
1, 892096, Control_c, 0, 64, 69
1, 892113, Note_off_c, 0, 56, 0
1, 892113, Control_c, 0, 64, 72
1, 892133, Control_c, 0, 64, 75
1, 892136, Note_off_c, 0, 52, 0
1, 892143, Note_off_c, 0, 76, 0
1, 892149, Control_c, 0, 64, 78
1, 892158, Note_on_c, 0, 83, 68
1, 892169, Control_c, 0, 64, 82
1, 892187, Control_c, 0, 64, 86
1, 892225, Control_c, 0, 64, 91
1, 892290, Note_off_c, 0, 83, 0
1, 892324, Note_on_c, 0, 76, 54
1, 892439, Control_c, 0, 64, 84
1, 892457, Control_c, 0, 64, 74
1, 892477, Control_c, 0, 64, 60
1, 892480, Note_off_c, 0, 76, 0
1, 892494, Control_c, 0, 64, 45
1, 892514, Control_c, 0, 64, 27
1, 892520, Note_on_c, 0, 84, 65
1, 892535, Note_on_c, 0, 45, 46
1, 892551, Control_c, 0, 64, 0
1, 892626, Control_c, 0, 64, 12
1, 892644, Control_c, 0, 64, 19
1, 892664, Control_c, 0, 64, 30
1, 892679, Note_off_c, 0, 84, 0
1, 892682, Control_c, 0, 64, 44
1, 892687, Note_on_c, 0, 76, 59
1, 892699, Note_off_c, 0, 45, 0
1, 892699, Control_c, 0, 64, 56
1, 892719, Control_c, 0, 64, 62
1, 892757, Control_c, 0, 64, 63
1, 892773, Control_c, 0, 64, 64
1, 892792, Control_c, 0, 64, 65
1, 892848, Note_off_c, 0, 76, 0
1, 892864, Note_on_c, 0, 75, 71
1, 893002, Note_off_c, 0, 75, 0
1, 893007, Note_on_c, 0, 76, 70
1, 893128, Control_c, 0, 64, 63
1, 893165, Control_c, 0, 64, 61
1, 893181, Control_c, 0, 64, 59
1, 893191, Note_on_c, 0, 60, 74
1, 893200, Control_c, 0, 64, 55
1, 893201, Note_off_c, 0, 76, 0
1, 893206, Note_on_c, 0, 77, 65
1, 893219, Control_c, 0, 64, 49
1, 893237, Control_c, 0, 64, 41
1, 893239, Note_on_c, 0, 57, 44
1, 893257, Control_c, 0, 64, 32
1, 893284, Control_c, 0, 64, 26
1, 893324, Control_c, 0, 64, 21
1, 893376, Note_on_c, 0, 76, 63
1, 893391, Note_off_c, 0, 77, 0
1, 893541, Note_off_c, 0, 76, 0
1, 893561, Note_on_c, 0, 75, 71
1, 893573, Note_on_c, 0, 55, 55
1, 893590, Note_off_c, 0, 57, 0
1, 893696, Note_off_c, 0, 75, 0
1, 893719, Note_on_c, 0, 76, 69
1, 893843, Note_off_c, 0, 76, 0
1, 893873, Note_off_c, 0, 55, 0
1, 893893, Note_on_c, 0, 84, 72
1, 893924, Note_on_c, 0, 57, 40
1, 894054, Note_off_c, 0, 84, 0
1, 894060, Note_on_c, 0, 76, 67
1, 894155, Control_c, 0, 64, 26
1, 894192, Control_c, 0, 64, 34
1, 894212, Note_off_c, 0, 76, 0
1, 894220, Control_c, 0, 64, 40
1, 894238, Control_c, 0, 64, 46
1, 894240, Note_on_c, 0, 83, 79
1, 894258, Control_c, 0, 64, 51
1, 894277, Control_c, 0, 64, 54
1, 894295, Control_c, 0, 64, 56
1, 894314, Control_c, 0, 64, 59
1, 894333, Control_c, 0, 64, 62
1, 894351, Control_c, 0, 64, 65
1, 894369, Note_off_c, 0, 60, 0
1, 894370, Control_c, 0, 64, 67
1, 894386, Note_off_c, 0, 83, 0
1, 894389, Control_c, 0, 64, 69
1, 894398, Note_on_c, 0, 76, 65
1, 894405, Control_c, 0, 64, 71
1, 894443, Control_c, 0, 64, 74
1, 894462, Control_c, 0, 64, 76
1, 894481, Control_c, 0, 64, 79
1, 894499, Control_c, 0, 64, 81
1, 894574, Control_c, 0, 64, 79
1, 894577, Note_off_c, 0, 76, 0
1, 894588, Note_on_c, 0, 64, 73
1, 894590, Control_c, 0, 64, 75
1, 894594, Note_on_c, 0, 81, 69
1, 894610, Control_c, 0, 64, 69
1, 894618, Note_on_c, 0, 60, 44
1, 894628, Control_c, 0, 64, 62
1, 894647, Control_c, 0, 64, 54
1, 894666, Control_c, 0, 64, 42
1, 894684, Control_c, 0, 64, 26
1, 894703, Control_c, 0, 64, 9
1, 894741, Note_off_c, 0, 81, 0
1, 894751, Note_on_c, 0, 76, 59
1, 894833, Control_c, 0, 64, 17
1, 894852, Control_c, 0, 64, 26
1, 894870, Control_c, 0, 64, 36
1, 894878, Note_off_c, 0, 57, 0
1, 894889, Control_c, 0, 64, 46
1, 894907, Control_c, 0, 64, 54
1, 894914, Note_off_c, 0, 76, 0
1, 894922, Note_on_c, 0, 79, 76
1, 894926, Control_c, 0, 64, 58
1, 894945, Control_c, 0, 64, 60
1, 894961, Note_off_c, 0, 60, 0
1, 894961, Control_c, 0, 64, 62
1, 894980, Control_c, 0, 64, 65
1, 895000, Control_c, 0, 64, 67
1, 895018, Control_c, 0, 64, 69
1, 895037, Control_c, 0, 64, 71
1, 895055, Control_c, 0, 64, 73
1, 895062, Note_off_c, 0, 79, 0
1, 895075, Control_c, 0, 64, 75
1, 895083, Note_on_c, 0, 76, 64
1, 895111, Control_c, 0, 64, 78
1, 895231, Control_c, 0, 64, 75
1, 895250, Control_c, 0, 64, 70
1, 895270, Control_c, 0, 64, 62
1, 895277, Note_off_c, 0, 76, 0
1, 895277, Note_on_c, 0, 78, 69
1, 895285, Note_on_c, 0, 60, 65
1, 895288, Control_c, 0, 64, 52
1, 895305, Note_on_c, 0, 57, 43
1, 895306, Control_c, 0, 64, 38
1, 895324, Control_c, 0, 64, 20
1, 895435, Note_off_c, 0, 78, 0
1, 895435, Note_on_c, 0, 76, 61
1, 895454, Control_c, 0, 64, 13
1, 895460, Note_off_c, 0, 64, 0
1, 895473, Control_c, 0, 64, 21
1, 895491, Control_c, 0, 64, 33
1, 895510, Control_c, 0, 64, 46
1, 895528, Control_c, 0, 64, 57
1, 895548, Control_c, 0, 64, 61
1, 895566, Control_c, 0, 64, 63
1, 895583, Control_c, 0, 64, 65
1, 895602, Control_c, 0, 64, 67
1, 895621, Control_c, 0, 64, 69
1, 895622, Note_on_c, 0, 79, 73
1, 895630, Note_off_c, 0, 76, 0
1, 895638, Control_c, 0, 64, 71
1, 895658, Control_c, 0, 64, 73
1, 895678, Control_c, 0, 64, 76
1, 895714, Control_c, 0, 64, 79
1, 895739, Note_off_c, 0, 57, 0
1, 895752, Control_c, 0, 64, 81
1, 895754, Note_off_c, 0, 79, 0
1, 895774, Note_on_c, 0, 76, 69
1, 895806, Control_c, 0, 64, 83
1, 895937, Control_c, 0, 64, 78
1, 895943, Note_off_c, 0, 76, 0
1, 895954, Control_c, 0, 64, 70
1, 895964, Note_on_c, 0, 57, 61
1, 895972, Note_on_c, 0, 81, 64
1, 895973, Control_c, 0, 64, 58
1, 895991, Control_c, 0, 64, 43
1, 896011, Note_on_c, 0, 54, 34
1, 896011, Control_c, 0, 64, 24
1, 896030, Note_off_c, 0, 60, 0
1, 896113, Control_c, 0, 64, 8
1, 896130, Note_off_c, 0, 81, 0
1, 896132, Control_c, 0, 64, 16
1, 896134, Note_on_c, 0, 76, 62
1, 896149, Control_c, 0, 64, 24
1, 896169, Control_c, 0, 64, 36
1, 896186, Control_c, 0, 64, 50
1, 896205, Control_c, 0, 64, 60
1, 896223, Control_c, 0, 64, 64
1, 896232, Note_off_c, 0, 54, 0
1, 896241, Control_c, 0, 64, 65
1, 896261, Control_c, 0, 64, 67
1, 896280, Control_c, 0, 64, 70
1, 896282, Note_off_c, 0, 76, 0
1, 896298, Control_c, 0, 64, 72
1, 896306, Note_on_c, 0, 75, 72
1, 896317, Control_c, 0, 64, 76
1, 896336, Control_c, 0, 64, 79
1, 896354, Control_c, 0, 64, 82
1, 896374, Control_c, 0, 64, 85
1, 896390, Control_c, 0, 64, 87
1, 896438, Note_off_c, 0, 75, 0
1, 896445, Control_c, 0, 64, 91
1, 896452, Note_on_c, 0, 73, 70
1, 896594, Control_c, 0, 64, 84
1, 896613, Control_c, 0, 64, 74
1, 896621, Note_off_c, 0, 57, 0
1, 896632, Control_c, 0, 64, 60
1, 896644, Note_on_c, 0, 75, 76
1, 896650, Control_c, 0, 64, 45
1, 896659, Note_off_c, 0, 73, 0
1, 896669, Control_c, 0, 64, 28
1, 896673, Note_on_c, 0, 47, 51
1, 896687, Control_c, 0, 64, 9
1, 896775, Note_off_c, 0, 75, 0
1, 896797, Control_c, 0, 64, 15
1, 896812, Note_on_c, 0, 81, 75
1, 896818, Control_c, 0, 64, 24
1, 896836, Control_c, 0, 64, 36
1, 896853, Control_c, 0, 64, 48
1, 896873, Control_c, 0, 64, 59
1, 896892, Control_c, 0, 64, 63
1, 896910, Control_c, 0, 64, 65
1, 896929, Control_c, 0, 64, 68
1, 896946, Control_c, 0, 64, 71
1, 896965, Control_c, 0, 64, 74
1, 896983, Control_c, 0, 64, 78
1, 896990, Note_on_c, 0, 79, 82
1, 896992, Note_off_c, 0, 47, 0
1, 896998, Note_off_c, 0, 81, 0
1, 897001, Control_c, 0, 64, 81
1, 897030, Control_c, 0, 64, 83
1, 897158, Note_on_c, 0, 81, 77
1, 897171, Note_off_c, 0, 79, 0
1, 897234, Control_c, 0, 64, 81
1, 897272, Control_c, 0, 64, 79
1, 897290, Control_c, 0, 64, 76
1, 897309, Control_c, 0, 64, 72
1, 897327, Control_c, 0, 64, 64
1, 897339, Note_on_c, 0, 54, 70
1, 897343, Note_on_c, 0, 83, 75
1, 897346, Note_off_c, 0, 81, 0
1, 897346, Control_c, 0, 64, 55
1, 897364, Control_c, 0, 64, 44
1, 897373, Note_on_c, 0, 51, 45
1, 897384, Control_c, 0, 64, 27
1, 897420, Control_c, 0, 64, 0
1, 897510, Note_on_c, 0, 81, 74
1, 897532, Control_c, 0, 64, 10
1, 897538, Note_off_c, 0, 83, 0
1, 897551, Control_c, 0, 64, 19
1, 897568, Control_c, 0, 64, 28
1, 897586, Control_c, 0, 64, 40
1, 897605, Control_c, 0, 64, 51
1, 897624, Control_c, 0, 64, 59
1, 897642, Control_c, 0, 64, 61
1, 897660, Control_c, 0, 64, 63
1, 897670, Note_on_c, 0, 79, 79
1, 897678, Control_c, 0, 64, 65
1, 897679, Note_off_c, 0, 81, 0
1, 897699, Control_c, 0, 64, 66
1, 897717, Control_c, 0, 64, 68
1, 897736, Control_c, 0, 64, 70
1, 897755, Control_c, 0, 64, 72
1, 897787, Note_off_c, 0, 51, 0
1, 897788, Control_c, 0, 64, 74
1, 897828, Control_c, 0, 64, 76
1, 897830, Note_off_c, 0, 79, 0
1, 897833, Note_on_c, 0, 81, 79
1, 897864, Control_c, 0, 64, 78
1, 897984, Control_c, 0, 64, 76
1, 897990, Note_off_c, 0, 81, 0
1, 898004, Control_c, 0, 64, 71
1, 898022, Control_c, 0, 64, 62
1, 898026, Note_on_c, 0, 71, 76
1, 898033, Note_off_c, 0, 54, 0
1, 898038, Note_on_c, 0, 55, 59
1, 898041, Control_c, 0, 64, 49
1, 898055, Note_on_c, 0, 52, 47
1, 898060, Control_c, 0, 64, 32
1, 898079, Control_c, 0, 64, 11
1, 898186, Note_on_c, 0, 79, 80
1, 898208, Control_c, 0, 64, 19
1, 898216, Note_off_c, 0, 71, 0
1, 898226, Control_c, 0, 64, 30
1, 898245, Control_c, 0, 64, 44
1, 898264, Control_c, 0, 64, 57
1, 898272, Note_off_c, 0, 52, 0
1, 898284, Control_c, 0, 64, 62
1, 898285, Control_c, 0, 67, 91
1, 898302, Control_c, 0, 64, 63
1, 898319, Control_c, 0, 64, 65
1, 898339, Control_c, 0, 64, 67
1, 898357, Control_c, 0, 64, 70
1, 898357, Note_on_c, 0, 78, 77
1, 898375, Note_off_c, 0, 79, 0
1, 898375, Control_c, 0, 64, 72
1, 898393, Control_c, 0, 64, 75
1, 898411, Control_c, 0, 64, 78
1, 898431, Control_c, 0, 64, 80
1, 898468, Control_c, 0, 67, 86
1, 898512, Note_on_c, 0, 79, 82
1, 898513, Note_off_c, 0, 55, 0
1, 898545, Note_off_c, 0, 78, 0
1, 898691, Control_c, 0, 64, 77
1, 898703, Note_on_c, 0, 81, 75
1, 898709, Control_c, 0, 64, 73
1, 898711, Note_off_c, 0, 79, 0
1, 898716, Note_on_c, 0, 64, 62
1, 898724, Note_on_c, 0, 55, 47
1, 898728, Control_c, 0, 64, 66
1, 898746, Control_c, 0, 64, 57
1, 898764, Control_c, 0, 64, 47
1, 898782, Control_c, 0, 64, 32
1, 898801, Control_c, 0, 64, 14
1, 898867, Note_on_c, 0, 79, 70
1, 898906, Note_off_c, 0, 81, 0
1, 898942, Control_c, 0, 64, 9
1, 898957, Control_c, 0, 64, 15
1, 898977, Control_c, 0, 64, 22
1, 898995, Control_c, 0, 64, 33
1, 899015, Control_c, 0, 64, 44
1, 899032, Control_c, 0, 64, 54
1, 899043, Note_on_c, 0, 78, 71
1, 899045, Note_off_c, 0, 79, 0
1, 899052, Control_c, 0, 64, 59
1, 899071, Control_c, 0, 64, 61
1, 899089, Control_c, 0, 64, 63
1, 899108, Control_c, 0, 64, 65
1, 899127, Control_c, 0, 64, 66
1, 899147, Control_c, 0, 64, 68
1, 899183, Control_c, 0, 64, 70
1, 899209, Note_off_c, 0, 78, 0
1, 899209, Note_on_c, 0, 79, 65
1, 899218, Control_c, 0, 64, 72
1, 899347, Poly_aftertouch_c, 0, 55, 24
1, 899354, Note_off_c, 0, 79, 0
1, 899367, Control_c, 0, 64, 70
1, 899371, Note_off_c, 0, 55, 0
1, 899384, Note_on_c, 0, 69, 63
1, 899384, Control_c, 0, 64, 67
1, 899403, Control_c, 0, 64, 62
1, 899408, Note_on_c, 0, 59, 44
1, 899422, Control_c, 0, 64, 55
1, 899441, Control_c, 0, 64, 47
1, 899459, Control_c, 0, 64, 37
1, 899479, Control_c, 0, 64, 28
1, 899498, Control_c, 0, 64, 23
1, 899534, Note_on_c, 0, 78, 72
1, 899542, Note_off_c, 0, 69, 0
1, 899703, Note_off_c, 0, 78, 0
1, 899714, Note_on_c, 0, 76, 74
1, 899879, Note_on_c, 0, 78, 72
1, 899895, Note_off_c, 0, 76, 0
1, 899934, Control_c, 0, 67, 90
1, 900067, Note_off_c, 0, 78, 0
1, 900081, Note_on_c, 0, 79, 66
1, 900094, Note_off_c, 0, 64, 0
1, 900112, Note_on_c, 0, 63, 45
1, 900174, Control_c, 0, 67, 94
1, 900234, Note_off_c, 0, 79, 0
1, 900243, Note_on_c, 0, 81, 68
1, 900303, Control_c, 0, 64, 29
1, 900323, Control_c, 0, 64, 33
1, 900342, Control_c, 0, 64, 39
1, 900361, Control_c, 0, 64, 46
1, 900378, Control_c, 0, 64, 54
1, 900396, Control_c, 0, 64, 59
1, 900414, Control_c, 0, 64, 62
1, 900428, Note_off_c, 0, 81, 0
1, 900431, Note_on_c, 0, 79, 67
1, 900433, Control_c, 0, 64, 66
1, 900451, Control_c, 0, 64, 69
1, 900468, Note_off_c, 0, 59, 0
1, 900472, Control_c, 0, 64, 72
1, 900473, Control_c, 0, 67, 100
1, 900485, Note_off_c, 0, 63, 0
1, 900489, Control_c, 0, 64, 76
1, 900507, Control_c, 0, 64, 81
1, 900526, Control_c, 0, 64, 86
1, 900546, Control_c, 0, 64, 91
1, 900564, Control_c, 0, 64, 95
1, 900589, Note_off_c, 0, 79, 0
1, 900592, Note_on_c, 0, 78, 74
1, 900619, Control_c, 0, 64, 100
1, 900916, Note_off_c, 0, 78, 0
1, 900918, Note_on_c, 0, 79, 64
1, 900924, Control_c, 0, 64, 96
1, 900953, Note_on_c, 0, 64, 40
1, 900961, Note_on_c, 0, 52, 37
1, 900963, Control_c, 0, 64, 87
1, 900982, Control_c, 0, 64, 79
1, 901000, Control_c, 0, 64, 69
1, 901017, Control_c, 0, 64, 59
1, 901035, Control_c, 0, 64, 52
1, 901055, Control_c, 0, 64, 45
1, 901074, Control_c, 0, 64, 35
1, 901092, Control_c, 0, 64, 21
1, 901129, Control_c, 0, 64, 0
1, 901278, Control_c, 0, 64, 16
1, 901296, Control_c, 0, 64, 27
1, 901301, Note_off_c, 0, 79, 0
1, 901303, Note_on_c, 0, 75, 61
1, 901315, Control_c, 0, 64, 40
1, 901334, Control_c, 0, 64, 53
1, 901352, Control_c, 0, 64, 62
1, 901354, Control_c, 0, 67, 96
1, 901370, Control_c, 0, 64, 65
1, 901387, Control_c, 0, 64, 67
1, 901406, Control_c, 0, 64, 69
1, 901426, Control_c, 0, 64, 71
1, 901443, Control_c, 0, 64, 74
1, 901458, Note_off_c, 0, 75, 0
1, 901461, Control_c, 0, 64, 76
1, 901481, Control_c, 0, 64, 79
1, 901592, Control_c, 0, 64, 76
1, 901610, Control_c, 0, 64, 71
1, 901629, Control_c, 0, 64, 63
1, 901641, Note_on_c, 0, 75, 60
1, 901648, Control_c, 0, 64, 54
1, 901667, Control_c, 0, 64, 46
1, 901676, Note_on_c, 0, 54, 37
1, 901695, Control_c, 0, 64, 38
1, 901713, Control_c, 0, 64, 29
1, 901733, Control_c, 0, 64, 19
1, 901751, Control_c, 0, 64, 11
1, 901814, Note_off_c, 0, 64, 0
1, 901992, Control_c, 0, 64, 16
1, 901999, Note_off_c, 0, 75, 0
1, 902008, Note_on_c, 0, 76, 62
1, 902011, Control_c, 0, 64, 25
1, 902029, Control_c, 0, 64, 37
1, 902048, Control_c, 0, 64, 49
1, 902068, Control_c, 0, 64, 58
1, 902086, Control_c, 0, 64, 61
1, 902104, Control_c, 0, 64, 63
1, 902123, Control_c, 0, 64, 65
1, 902142, Control_c, 0, 64, 68
1, 902160, Control_c, 0, 64, 71
1, 902179, Control_c, 0, 64, 74
1, 902193, Note_off_c, 0, 76, 0
1, 902196, Control_c, 0, 64, 76
1, 902215, Control_c, 0, 64, 79
1, 902233, Control_c, 0, 64, 82
1, 902252, Control_c, 0, 64, 85
1, 902290, Control_c, 0, 64, 87
1, 902344, Note_off_c, 0, 54, 0
1, 902365, Control_c, 0, 64, 85
1, 902376, Note_on_c, 0, 76, 61
1, 902380, Control_c, 0, 64, 81
1, 902398, Note_on_c, 0, 55, 40
1, 902401, Control_c, 0, 64, 73
1, 902420, Control_c, 0, 64, 62
1, 902438, Control_c, 0, 64, 52
1, 902457, Control_c, 0, 64, 41
1, 902475, Control_c, 0, 64, 27
1, 902495, Control_c, 0, 64, 12
1, 902512, Control_c, 0, 64, 0
1, 902742, Note_off_c, 0, 76, 0
1, 902745, Control_c, 0, 64, 13
1, 902763, Control_c, 0, 64, 27
1, 902779, Note_on_c, 0, 69, 53
1, 902781, Control_c, 0, 64, 43
1, 902801, Control_c, 0, 64, 58
1, 902818, Control_c, 0, 64, 65
1, 902837, Control_c, 0, 64, 68
1, 902855, Control_c, 0, 64, 71
1, 902874, Control_c, 0, 64, 74
1, 902875, Control_c, 0, 67, 100
1, 902892, Control_c, 0, 64, 79
1, 902911, Control_c, 0, 64, 86
1, 902914, Note_off_c, 0, 69, 0
1, 902931, Control_c, 0, 64, 92
1, 902949, Control_c, 0, 64, 98
1, 902967, Control_c, 0, 64, 103
1, 903003, Control_c, 0, 64, 107
1, 903131, Note_on_c, 0, 69, 49
1, 903133, Control_c, 0, 64, 99
1, 903144, Note_on_c, 0, 63, 57
1, 903152, Control_c, 0, 64, 88
1, 903161, Note_on_c, 0, 60, 45
1, 903171, Control_c, 0, 64, 74
1, 903191, Control_c, 0, 64, 61
1, 903193, Note_off_c, 0, 55, 0
1, 903207, Control_c, 0, 64, 51
1, 903226, Control_c, 0, 64, 42
1, 903244, Control_c, 0, 64, 30
1, 903263, Control_c, 0, 64, 17
1, 903319, Control_c, 0, 64, 0
1, 903411, Control_c, 0, 67, 104
1, 903489, Note_off_c, 0, 69, 0
1, 903505, Control_c, 0, 64, 14
1, 903524, Control_c, 0, 64, 25
1, 903533, Note_on_c, 0, 67, 53
1, 903542, Control_c, 0, 64, 39
1, 903570, Control_c, 0, 64, 53
1, 903590, Control_c, 0, 64, 63
1, 903608, Control_c, 0, 64, 67
1, 903626, Control_c, 0, 64, 71
1, 903643, Control_c, 0, 64, 76
1, 903663, Control_c, 0, 64, 84
1, 903681, Control_c, 0, 64, 93
1, 903699, Control_c, 0, 64, 103
1, 903718, Control_c, 0, 64, 112
1, 903738, Control_c, 0, 64, 119
1, 903742, Note_off_c, 0, 63, 0
1, 903764, Note_off_c, 0, 60, 0
1, 903769, Note_off_c, 0, 67, 0
1, 903772, Control_c, 0, 64, 123
1, 903992, Note_on_c, 0, 59, 38
1, 904052, Control_c, 0, 64, 116
1, 904070, Control_c, 0, 64, 108
1, 904089, Control_c, 0, 64, 96
1, 904107, Control_c, 0, 64, 81
1, 904112, Note_on_c, 0, 67, 44
1, 904126, Control_c, 0, 64, 67
1, 904144, Control_c, 0, 64, 56
1, 904151, Note_on_c, 0, 64, 39
1, 904165, Control_c, 0, 64, 49
1, 904178, Note_off_c, 0, 67, 0
1, 904180, Control_c, 0, 64, 42
1, 904199, Control_c, 0, 64, 33
1, 904216, Note_on_c, 0, 66, 50
1, 904217, Control_c, 0, 64, 25
1, 904237, Control_c, 0, 64, 18
1, 904300, Note_off_c, 0, 66, 0
1, 904337, Note_on_c, 0, 67, 46
1, 904466, Poly_aftertouch_c, 0, 64, 24
1, 904503, Note_off_c, 0, 64, 0
1, 904618, Control_c, 0, 64, 22
1, 904635, Control_c, 0, 64, 28
1, 904655, Control_c, 0, 64, 34
1, 904672, Control_c, 0, 64, 41
1, 904691, Control_c, 0, 64, 48
1, 904710, Control_c, 0, 64, 55
1, 904729, Control_c, 0, 64, 59
1, 904735, Poly_aftertouch_c, 0, 64, 32
1, 904748, Control_c, 0, 64, 61
1, 904766, Control_c, 0, 64, 62
1, 904785, Control_c, 0, 64, 64
1, 904804, Control_c, 0, 64, 66
1, 904821, Control_c, 0, 64, 69
1, 904840, Control_c, 0, 64, 71
1, 904858, Control_c, 0, 64, 74
1, 904878, Control_c, 0, 64, 76
1, 904895, Control_c, 0, 64, 78
1, 904902, Poly_aftertouch_c, 0, 64, 0
1, 904915, Control_c, 0, 64, 80
1, 904933, Control_c, 0, 64, 82
1, 904952, Control_c, 0, 64, 84
1, 904976, Note_off_c, 0, 67, 0
1, 905064, Note_off_c, 0, 59, 0
1, 905078, Note_on_c, 0, 50, 47
1, 905081, Control_c, 0, 64, 76
1, 905100, Control_c, 0, 64, 65
1, 905111, Note_off_c, 0, 52, 0
1, 905117, Control_c, 0, 64, 54
1, 905137, Control_c, 0, 64, 46
1, 905156, Control_c, 0, 64, 40
1, 905174, Control_c, 0, 64, 36
1, 905230, Control_c, 0, 64, 32
1, 905238, Note_on_c, 0, 71, 60
1, 905398, Note_off_c, 0, 71, 0
1, 905412, Note_on_c, 0, 72, 73
1, 905578, Note_on_c, 0, 74, 80
1, 905592, Note_off_c, 0, 72, 0
1, 905684, Control_c, 0, 67, 100
1, 905757, Note_off_c, 0, 74, 0
1, 905764, Note_on_c, 0, 76, 70
1, 905771, Note_off_c, 0, 50, 0
1, 905775, Note_on_c, 0, 48, 51
1, 905852, Note_off_c, 0, 76, 0
1, 905930, Note_on_c, 0, 77, 71
1, 906000, Note_off_c, 0, 77, 0
1, 906087, Note_on_c, 0, 76, 67
1, 906160, Note_off_c, 0, 76, 0
1, 906244, Note_on_c, 0, 75, 69
1, 906314, Note_off_c, 0, 75, 0
1, 906448, Note_on_c, 0, 76, 69
1, 906773, Note_on_c, 0, 55, 65
1, 906824, Control_c, 0, 64, 36
1, 906842, Control_c, 0, 64, 41
1, 906860, Control_c, 0, 64, 49
1, 906880, Control_c, 0, 64, 56
1, 906899, Control_c, 0, 64, 60
1, 906917, Control_c, 0, 64, 63
1, 906935, Control_c, 0, 64, 66
1, 906955, Control_c, 0, 64, 68
1, 906972, Control_c, 0, 64, 72
1, 906992, Control_c, 0, 64, 75
1, 907008, Control_c, 0, 64, 80
1, 907028, Control_c, 0, 64, 85
1, 907045, Control_c, 0, 64, 89
1, 907090, Note_off_c, 0, 48, 0
1, 907141, Note_on_c, 0, 60, 79
1, 907176, Control_c, 0, 64, 86
1, 907196, Control_c, 0, 64, 84
1, 907198, Note_off_c, 0, 55, 0
1, 907215, Control_c, 0, 64, 81
1, 907250, Control_c, 0, 64, 79
1, 907354, Control_c, 0, 64, 77
1, 907371, Control_c, 0, 64, 72
1, 907391, Control_c, 0, 64, 62
1, 907409, Control_c, 0, 64, 49
1, 907428, Control_c, 0, 64, 34
1, 907444, Control_c, 0, 64, 20
1, 907454, Note_on_c, 0, 62, 76
1, 907460, Note_on_c, 0, 69, 66
1, 907485, Note_off_c, 0, 60, 0
1, 907485, Note_off_c, 0, 76, 0
1, 907519, Control_c, 0, 64, 26
1, 907539, Control_c, 0, 64, 37
1, 907557, Control_c, 0, 64, 51
1, 907576, Control_c, 0, 64, 60
1, 907595, Control_c, 0, 64, 64
1, 907613, Control_c, 0, 64, 66
1, 907630, Control_c, 0, 64, 69
1, 907649, Control_c, 0, 64, 71
1, 907668, Control_c, 0, 64, 73
1, 907686, Control_c, 0, 64, 76
1, 907705, Control_c, 0, 64, 78
1, 907754, Note_off_c, 0, 69, 0
1, 907779, Control_c, 0, 64, 75
1, 907799, Control_c, 0, 64, 69
1, 907805, Note_on_c, 0, 71, 58
1, 907811, Note_on_c, 0, 64, 73
1, 907812, Note_off_c, 0, 62, 0
1, 907819, Control_c, 0, 64, 60
1, 907828, Note_on_c, 0, 60, 57
1, 907836, Control_c, 0, 64, 49
1, 907837, Control_c, 0, 67, 96
1, 907855, Control_c, 0, 64, 38
1, 907867, Note_off_c, 0, 71, 0
1, 907874, Control_c, 0, 64, 28
1, 907893, Control_c, 0, 64, 22
1, 907906, Note_on_c, 0, 69, 59
1, 907910, Control_c, 0, 64, 18
1, 907948, Control_c, 0, 64, 11
1, 908160, Note_off_c, 0, 69, 0
1, 908162, Note_on_c, 0, 67, 66
1, 908171, Control_c, 0, 64, 20
1, 908190, Control_c, 0, 64, 30
1, 908208, Control_c, 0, 64, 44
1, 908228, Control_c, 0, 64, 57
1, 908254, Control_c, 0, 64, 62
1, 908273, Control_c, 0, 64, 64
1, 908290, Control_c, 0, 64, 66
1, 908311, Control_c, 0, 64, 68
1, 908328, Control_c, 0, 64, 70
1, 908347, Control_c, 0, 64, 72
1, 908365, Control_c, 0, 64, 74
1, 908403, Control_c, 0, 64, 76
1, 908437, Note_off_c, 0, 67, 0
1, 908477, Control_c, 0, 64, 73
1, 908487, Note_on_c, 0, 69, 61
1, 908495, Control_c, 0, 64, 68
1, 908497, Note_on_c, 0, 62, 70
1, 908506, Note_off_c, 0, 60, 0
1, 908513, Control_c, 0, 64, 61
1, 908520, Note_on_c, 0, 59, 55
1, 908530, Note_off_c, 0, 64, 0
1, 908532, Control_c, 0, 64, 53
1, 908551, Control_c, 0, 64, 43
1, 908566, Note_off_c, 0, 69, 0
1, 908568, Control_c, 0, 64, 31
1, 908587, Control_c, 0, 64, 22
1, 908588, Note_on_c, 0, 67, 56
1, 908607, Control_c, 0, 64, 17
1, 908645, Control_c, 0, 64, 10
1, 908850, Note_off_c, 0, 67, 0
1, 908864, Note_on_c, 0, 66, 59
1, 908869, Control_c, 0, 64, 15
1, 908884, Control_c, 0, 64, 23
1, 908903, Control_c, 0, 64, 35
1, 908921, Control_c, 0, 64, 47
1, 908941, Control_c, 0, 64, 58
1, 908959, Control_c, 0, 64, 62
1, 908977, Control_c, 0, 64, 64
1, 908996, Control_c, 0, 64, 66
1, 909015, Control_c, 0, 64, 68
1, 909034, Control_c, 0, 64, 70
1, 909042, Note_off_c, 0, 66, 0
1, 909053, Control_c, 0, 64, 72
1, 909070, Control_c, 0, 64, 74
1, 909192, Control_c, 0, 64, 72
1, 909205, Note_on_c, 0, 66, 55
1, 909205, Note_on_c, 0, 61, 49
1, 909210, Control_c, 0, 64, 68
1, 909212, Note_off_c, 0, 59, 0
1, 909224, Note_on_c, 0, 58, 33
1, 909229, Control_c, 0, 64, 62
1, 909238, Note_off_c, 0, 62, 0
1, 909248, Control_c, 0, 64, 54
1, 909264, Control_c, 0, 64, 42
1, 909283, Control_c, 0, 64, 28
1, 909301, Control_c, 0, 64, 14
1, 909321, Control_c, 0, 64, 9
1, 909521, Note_off_c, 0, 66, 0
1, 909524, Control_c, 0, 64, 18
1, 909543, Control_c, 0, 64, 27
1, 909562, Control_c, 0, 64, 39
1, 909579, Control_c, 0, 64, 51
1, 909585, Note_on_c, 0, 76, 61
1, 909599, Control_c, 0, 64, 59
1, 909619, Control_c, 0, 64, 63
1, 909635, Control_c, 0, 64, 65
1, 909654, Control_c, 0, 64, 67
1, 909692, Control_c, 0, 64, 71
1, 909709, Control_c, 0, 64, 73
1, 909729, Control_c, 0, 64, 75
1, 909765, Control_c, 0, 64, 77
1, 909933, Control_c, 0, 64, 75
1, 909940, Note_off_c, 0, 76, 0
1, 909951, Control_c, 0, 64, 70
1, 909971, Control_c, 0, 64, 62
1, 909988, Note_on_c, 0, 74, 53
1, 909988, Control_c, 0, 64, 54
1, 909998, Note_on_c, 0, 59, 48
1, 910006, Control_c, 0, 64, 45
1, 910026, Control_c, 0, 64, 34
1, 910027, Note_off_c, 0, 61, 0
1, 910041, Note_off_c, 0, 58, 0
1, 910042, Note_off_c, 0, 74, 0
1, 910044, Control_c, 0, 64, 25
1, 910063, Control_c, 0, 64, 19
1, 910166, Note_on_c, 0, 76, 55
1, 910227, Note_off_c, 0, 76, 0
1, 910333, Note_on_c, 0, 74, 58
1, 910405, Note_off_c, 0, 74, 0
1, 910483, Note_on_c, 0, 73, 60
1, 910551, Note_off_c, 0, 73, 0
1, 910678, Note_on_c, 0, 74, 60
1, 910693, Note_on_c, 0, 47, 53
1, 910914, Note_off_c, 0, 59, 0
1, 911013, Note_on_c, 0, 54, 71
1, 911377, Note_on_c, 0, 59, 78
1, 911378, Note_off_c, 0, 47, 0
1, 911439, Note_off_c, 0, 54, 0
1, 911639, Control_c, 0, 64, 24
1, 911660, Control_c, 0, 64, 31
1, 911675, Control_c, 0, 64, 40
1, 911695, Control_c, 0, 64, 48
1, 911706, Note_on_c, 0, 67, 68
1, 911706, Note_on_c, 0, 60, 79
1, 911712, Control_c, 0, 64, 56
1, 911733, Note_off_c, 0, 59, 0
1, 911733, Control_c, 0, 64, 59
1, 911734, Note_off_c, 0, 74, 0
1, 911750, Control_c, 0, 64, 62
1, 911769, Control_c, 0, 64, 65
1, 911787, Control_c, 0, 64, 67
1, 911806, Control_c, 0, 64, 70
1, 911825, Control_c, 0, 64, 72
1, 911843, Control_c, 0, 64, 75
1, 911860, Control_c, 0, 64, 78
1, 911880, Control_c, 0, 64, 80
1, 911898, Control_c, 0, 64, 83
1, 911917, Control_c, 0, 64, 85
1, 911977, Note_off_c, 0, 67, 0
1, 912019, Control_c, 0, 64, 79
1, 912036, Note_on_c, 0, 69, 62
1, 912037, Control_c, 0, 64, 71
1, 912039, Note_off_c, 0, 60, 0
1, 912045, Note_on_c, 0, 62, 72
1, 912051, Note_on_c, 0, 59, 58
1, 912054, Control_c, 0, 64, 61
1, 912073, Control_c, 0, 64, 52
1, 912092, Control_c, 0, 64, 45
1, 912105, Note_off_c, 0, 69, 0
1, 912112, Control_c, 0, 64, 36
1, 912121, Note_on_c, 0, 67, 65
1, 912131, Control_c, 0, 64, 28
1, 912149, Control_c, 0, 64, 20
1, 912168, Control_c, 0, 64, 13
1, 912207, Control_c, 0, 64, 9
1, 912421, Note_off_c, 0, 67, 0
1, 912433, Note_on_c, 0, 65, 69
1, 912443, Control_c, 0, 64, 19
1, 912463, Control_c, 0, 64, 28
1, 912482, Control_c, 0, 64, 39
1, 912500, Control_c, 0, 64, 50
1, 912518, Control_c, 0, 64, 58
1, 912538, Control_c, 0, 64, 61
1, 912556, Control_c, 0, 64, 63
1, 912575, Control_c, 0, 64, 65
1, 912594, Control_c, 0, 64, 67
1, 912632, Control_c, 0, 64, 69
1, 912690, Note_off_c, 0, 65, 0
1, 912705, Control_c, 0, 64, 67
1, 912723, Control_c, 0, 64, 63
1, 912739, Note_on_c, 0, 67, 61
1, 912742, Control_c, 0, 64, 58
1, 912750, Note_on_c, 0, 60, 64
1, 912752, Note_off_c, 0, 59, 0
1, 912761, Control_c, 0, 64, 52
1, 912762, Note_on_c, 0, 57, 55
1, 912763, Note_off_c, 0, 62, 0
1, 912769, Control_c, 0, 64, 45
1, 912788, Control_c, 0, 64, 36
1, 912807, Control_c, 0, 64, 26
1, 912812, Note_off_c, 0, 67, 0
1, 912821, Note_on_c, 0, 65, 67
1, 912826, Control_c, 0, 64, 19
1, 912844, Control_c, 0, 64, 14
1, 913075, Control_c, 0, 64, 20
1, 913093, Control_c, 0, 64, 26
1, 913100, Note_off_c, 0, 65, 0
1, 913111, Note_on_c, 0, 64, 61
1, 913112, Control_c, 0, 64, 33
1, 913131, Control_c, 0, 64, 42
1, 913149, Control_c, 0, 64, 49
1, 913170, Control_c, 0, 64, 54
1, 913187, Control_c, 0, 64, 57
1, 913207, Control_c, 0, 64, 59
1, 913224, Control_c, 0, 64, 60
1, 913242, Control_c, 0, 64, 62
1, 913260, Control_c, 0, 64, 63
1, 913280, Control_c, 0, 64, 65
1, 913287, Note_off_c, 0, 64, 0
1, 913371, Control_c, 0, 64, 64
1, 913391, Control_c, 0, 64, 62
1, 913409, Control_c, 0, 64, 58
1, 913428, Control_c, 0, 64, 52
1, 913441, Note_off_c, 0, 60, 0
1, 913446, Control_c, 0, 64, 45
1, 913452, Note_on_c, 0, 64, 53
1, 913456, Note_on_c, 0, 59, 48
1, 913466, Control_c, 0, 64, 34
1, 913468, Control_c, 0, 67, 100
1, 913472, Note_on_c, 0, 56, 27
1, 913479, Note_off_c, 0, 57, 0
1, 913482, Control_c, 0, 64, 24
1, 913502, Control_c, 0, 64, 17
1, 913540, Control_c, 0, 64, 11
1, 913632, Control_c, 0, 67, 104
1, 913705, Control_c, 0, 64, 17
1, 913724, Control_c, 0, 64, 23
1, 913743, Control_c, 0, 64, 32
1, 913762, Control_c, 0, 64, 41
1, 913780, Control_c, 0, 64, 50
1, 913798, Control_c, 0, 64, 58
1, 913802, Note_off_c, 0, 64, 0
1, 913818, Control_c, 0, 64, 61
1, 913836, Control_c, 0, 64, 63
1, 913838, Note_on_c, 0, 74, 58
1, 913864, Control_c, 0, 64, 65
1, 913881, Control_c, 0, 64, 67
1, 913899, Control_c, 0, 64, 69
1, 913919, Control_c, 0, 67, 100
1, 913937, Control_c, 0, 64, 72
1, 913975, Control_c, 0, 64, 74
1, 914233, Control_c, 0, 64, 71
1, 914252, Control_c, 0, 64, 65
1, 914260, Note_off_c, 0, 74, 0
1, 914270, Control_c, 0, 64, 57
1, 914282, Note_on_c, 0, 72, 55
1, 914288, Control_c, 0, 64, 48
1, 914303, Note_on_c, 0, 57, 38
1, 914306, Note_off_c, 0, 59, 0
1, 914306, Control_c, 0, 64, 38
1, 914327, Note_off_c, 0, 72, 0
1, 914327, Control_c, 0, 64, 29
1, 914346, Control_c, 0, 64, 23
1, 914350, Note_off_c, 0, 56, 0
1, 914383, Control_c, 0, 64, 19
1, 914451, Note_on_c, 0, 71, 43
1, 914508, Note_off_c, 0, 71, 0
1, 914646, Note_on_c, 0, 69, 53
1, 915000, Note_on_c, 0, 52, 47
1, 915020, Note_on_c, 0, 45, 38
1, 915031, Note_off_c, 0, 57, 0
1, 915122, Note_off_c, 0, 69, 0
1, 915169, Note_on_c, 0, 67, 59
1, 915217, Note_off_c, 0, 67, 0
1, 915368, Note_on_c, 0, 66, 58
1, 915431, Control_c, 0, 67, 96
1, 915684, Note_off_c, 0, 45, 0
1, 915731, Note_on_c, 0, 57, 56
1, 915733, Note_off_c, 0, 52, 0
1, 915848, Note_off_c, 0, 66, 0
1, 915893, Note_on_c, 0, 64, 58
1, 915975, Note_off_c, 0, 64, 0
1, 916075, Note_on_c, 0, 62, 64
1, 916407, Note_off_c, 0, 57, 0
1, 916413, Note_on_c, 0, 60, 66
1, 916494, Note_off_c, 0, 62, 0
1, 916562, Note_on_c, 0, 64, 65
1, 916616, Note_off_c, 0, 64, 0
1, 916756, Note_on_c, 0, 66, 69
1, 917109, Note_on_c, 0, 57, 67
1, 917118, Note_off_c, 0, 60, 0
1, 917199, Note_off_c, 0, 66, 0
1, 917260, Note_on_c, 0, 67, 64
1, 917321, Note_off_c, 0, 67, 0
1, 917449, Note_on_c, 0, 69, 72
1, 917822, Note_on_c, 0, 54, 60
1, 917848, Note_off_c, 0, 57, 0
1, 917926, Note_off_c, 0, 69, 0
1, 917961, Note_on_c, 0, 71, 67
1, 918014, Note_off_c, 0, 71, 0
1, 918147, Note_on_c, 0, 72, 76
1, 918503, Note_on_c, 0, 50, 66
1, 918512, Note_off_c, 0, 54, 0
1, 918655, Note_off_c, 0, 72, 0
1, 918670, Note_on_c, 0, 74, 71
1, 918845, Note_on_c, 0, 72, 73
1, 918851, Note_off_c, 0, 74, 0
1, 918990, Note_off_c, 0, 72, 0
1, 919003, Note_on_c, 0, 71, 76
1, 919138, Note_off_c, 0, 71, 0
1, 919181, Note_on_c, 0, 45, 65
1, 919187, Note_on_c, 0, 72, 75
1, 919309, Note_off_c, 0, 72, 0
1, 919341, Note_on_c, 0, 79, 78
1, 919511, Note_on_c, 0, 78, 74
1, 919538, Note_off_c, 0, 79, 0
1, 919645, Note_off_c, 0, 78, 0
1, 919673, Note_on_c, 0, 76, 77
1, 919857, Note_on_c, 0, 78, 73
1, 919869, Note_off_c, 0, 76, 0
1, 919880, Note_on_c, 0, 38, 60
1, 919916, Note_off_c, 0, 50, 0
1, 919934, Note_off_c, 0, 45, 0
1, 920032, Note_on_c, 0, 83, 80
1, 920044, Note_off_c, 0, 78, 0
1, 920201, Note_off_c, 0, 83, 0
1, 920212, Note_on_c, 0, 81, 77
1, 920324, Note_off_c, 0, 81, 0
1, 920359, Note_on_c, 0, 79, 80
1, 920555, Note_on_c, 0, 81, 80
1, 920563, Note_off_c, 0, 79, 0
1, 920572, Note_on_c, 0, 42, 65
1, 920578, Note_off_c, 0, 38, 0
1, 920720, Note_on_c, 0, 86, 78
1, 920731, Note_off_c, 0, 81, 0
1, 920889, Note_on_c, 0, 84, 79
1, 920929, Note_off_c, 0, 86, 0
1, 921046, Note_on_c, 0, 83, 80
1, 921078, Note_off_c, 0, 84, 0
1, 921228, Note_on_c, 0, 84, 81
1, 921239, Note_on_c, 0, 45, 65
1, 921251, Note_off_c, 0, 42, 0
1, 921252, Note_off_c, 0, 83, 0
1, 921394, Note_on_c, 0, 83, 85
1, 921429, Note_off_c, 0, 84, 0
1, 921567, Note_on_c, 0, 81, 79
1, 921572, Note_off_c, 0, 83, 0
1, 921703, Note_off_c, 0, 81, 0
1, 921731, Note_on_c, 0, 79, 74
1, 921905, Note_off_c, 0, 79, 0
1, 921916, Note_on_c, 0, 78, 69
1, 921934, Note_on_c, 0, 50, 52
1, 921954, Note_off_c, 0, 45, 0
1, 922094, Note_on_c, 0, 76, 66
1, 922096, Note_off_c, 0, 78, 0
1, 922232, Note_off_c, 0, 76, 0
1, 922282, Note_on_c, 0, 74, 69
1, 922393, Note_off_c, 0, 74, 0
1, 922454, Note_on_c, 0, 72, 61
1, 922590, Note_off_c, 0, 50, 0
1, 922597, Note_off_c, 0, 72, 0
1, 922650, Note_on_c, 0, 71, 54
1, 922667, Note_on_c, 0, 43, 44
1, 922718, Note_off_c, 0, 71, 0
1, 922808, Note_on_c, 0, 79, 57
1, 922830, Control_c, 0, 64, 27
1, 922849, Control_c, 0, 64, 36
1, 922859, Note_off_c, 0, 43, 0
1, 922868, Control_c, 0, 64, 47
1, 922869, Control_c, 0, 67, 92
1, 922887, Control_c, 0, 64, 56
1, 922903, Control_c, 0, 64, 60
1, 922922, Control_c, 0, 64, 64
1, 922941, Control_c, 0, 64, 67
1, 922960, Control_c, 0, 64, 71
1, 922962, Note_off_c, 0, 79, 0
1, 922972, Note_on_c, 0, 78, 69
1, 922978, Control_c, 0, 64, 75
1, 922997, Control_c, 0, 64, 80
1, 923016, Control_c, 0, 64, 86
1, 923036, Control_c, 0, 64, 90
1, 923123, Note_off_c, 0, 78, 0
1, 923136, Note_on_c, 0, 79, 70
1, 923341, Note_off_c, 0, 79, 0
1, 923358, Control_c, 0, 64, 86
1, 923375, Note_on_c, 0, 81, 63
1, 923377, Control_c, 0, 64, 80
1, 923378, Note_on_c, 0, 64, 80
1, 923397, Control_c, 0, 64, 71
1, 923414, Control_c, 0, 64, 60
1, 923415, Note_on_c, 0, 55, 51
1, 923433, Control_c, 0, 64, 49
1, 923453, Control_c, 0, 64, 33
1, 923471, Control_c, 0, 64, 12
1, 923535, Note_on_c, 0, 79, 61
1, 923541, Note_off_c, 0, 81, 0
1, 923620, Control_c, 0, 64, 17
1, 923637, Control_c, 0, 64, 29
1, 923655, Control_c, 0, 64, 42
1, 923675, Control_c, 0, 64, 54
1, 923693, Control_c, 0, 64, 61
1, 923708, Note_on_c, 0, 78, 65
1, 923708, Control_c, 0, 64, 65
1, 923717, Note_off_c, 0, 79, 0
1, 923729, Control_c, 0, 64, 68
1, 923749, Control_c, 0, 64, 71
1, 923766, Control_c, 0, 64, 74
1, 923784, Control_c, 0, 64, 78
1, 923791, Note_off_c, 0, 55, 0
1, 923804, Control_c, 0, 64, 83
1, 923824, Control_c, 0, 64, 88
1, 923859, Control_c, 0, 64, 94
1, 923871, Note_off_c, 0, 78, 0
1, 923884, Note_on_c, 0, 79, 65
1, 924053, Note_off_c, 0, 79, 0
1, 924081, Control_c, 0, 64, 87
1, 924086, Note_on_c, 0, 63, 74
1, 924093, Note_on_c, 0, 72, 64
1, 924101, Note_on_c, 0, 57, 51
1, 924101, Control_c, 0, 64, 79
1, 924117, Control_c, 0, 64, 68
1, 924137, Control_c, 0, 64, 54
1, 924164, Control_c, 0, 64, 40
1, 924183, Note_off_c, 0, 64, 0
1, 924183, Control_c, 0, 64, 22
1, 924251, Note_off_c, 0, 72, 0
1, 924256, Note_on_c, 0, 78, 69
1, 924315, Control_c, 0, 64, 9
1, 924333, Control_c, 0, 64, 16
1, 924351, Control_c, 0, 64, 25
1, 924369, Control_c, 0, 64, 38
1, 924388, Control_c, 0, 64, 52
1, 924406, Control_c, 0, 64, 60
1, 924419, Note_off_c, 0, 78, 0
1, 924424, Control_c, 0, 64, 63
1, 924433, Note_on_c, 0, 76, 69
1, 924444, Control_c, 0, 64, 65
1, 924462, Control_c, 0, 64, 68
1, 924482, Control_c, 0, 64, 70
1, 924500, Control_c, 0, 64, 73
1, 924518, Control_c, 0, 64, 76
1, 924536, Control_c, 0, 64, 79
1, 924554, Control_c, 0, 64, 82
1, 924574, Control_c, 0, 64, 84
1, 924591, Control_c, 0, 64, 86
1, 924592, Note_on_c, 0, 78, 72
1, 924595, Note_off_c, 0, 76, 0
1, 924629, Control_c, 0, 64, 92
1, 924701, Note_off_c, 0, 57, 0
1, 924758, Control_c, 0, 64, 82
1, 924763, Note_off_c, 0, 78, 0
1, 924767, Note_on_c, 0, 62, 78
1, 924770, Note_on_c, 0, 79, 69
1, 924776, Control_c, 0, 64, 71
1, 924788, Note_off_c, 0, 63, 0
1, 924796, Note_on_c, 0, 59, 54
1, 924796, Control_c, 0, 64, 57
1, 924815, Control_c, 0, 64, 44
1, 924834, Control_c, 0, 64, 29
1, 924852, Control_c, 0, 64, 12
1, 924890, Control_c, 0, 64, 0
1, 924945, Note_on_c, 0, 78, 64
1, 924985, Note_off_c, 0, 79, 0
1, 925075, Control_c, 0, 64, 9
1, 925102, Control_c, 0, 64, 18
1, 925117, Note_off_c, 0, 78, 0
1, 925121, Control_c, 0, 64, 29
1, 925122, Note_on_c, 0, 76, 71
1, 925139, Control_c, 0, 64, 39
1, 925157, Control_c, 0, 64, 50
1, 925175, Control_c, 0, 64, 58
1, 925195, Control_c, 0, 64, 63
1, 925213, Control_c, 0, 64, 65
1, 925232, Control_c, 0, 64, 67
1, 925250, Control_c, 0, 64, 70
1, 925270, Control_c, 0, 64, 72
1, 925277, Note_on_c, 0, 78, 69
1, 925280, Note_off_c, 0, 76, 0
1, 925288, Control_c, 0, 64, 75
1, 925306, Control_c, 0, 64, 77
1, 925418, Control_c, 0, 64, 75
1, 925436, Control_c, 0, 64, 72
1, 925455, Control_c, 0, 64, 67
1, 925462, Note_off_c, 0, 78, 0
1, 925476, Control_c, 0, 64, 59
1, 925476, Note_on_c, 0, 67, 71
1, 925483, Note_on_c, 0, 74, 63
1, 925492, Control_c, 0, 64, 48
1, 925511, Control_c, 0, 64, 33
1, 925527, Control_c, 0, 64, 17
1, 925531, Note_off_c, 0, 62, 0
1, 925600, Note_off_c, 0, 59, 0
1, 925620, Note_off_c, 0, 74, 0
1, 925634, Note_on_c, 0, 77, 65
1, 925696, Control_c, 0, 64, 24
1, 925713, Control_c, 0, 64, 35
1, 925731, Control_c, 0, 64, 47
1, 925751, Control_c, 0, 64, 58
1, 925769, Control_c, 0, 64, 62
1, 925782, Note_off_c, 0, 77, 0
1, 925787, Control_c, 0, 64, 64
1, 925806, Control_c, 0, 64, 65
1, 925815, Note_on_c, 0, 76, 69
1, 925826, Control_c, 0, 64, 68
1, 925844, Control_c, 0, 64, 70
1, 925862, Control_c, 0, 64, 72
1, 925882, Control_c, 0, 64, 74
1, 925936, Control_c, 0, 64, 76
1, 925954, Note_off_c, 0, 76, 0
1, 925962, Note_on_c, 0, 77, 64
1, 926077, Control_c, 0, 64, 74
1, 926095, Control_c, 0, 64, 72
1, 926113, Control_c, 0, 64, 68
1, 926133, Control_c, 0, 64, 63
1, 926149, Control_c, 0, 64, 56
1, 926163, Note_off_c, 0, 77, 0
1, 926166, Control_c, 0, 64, 43
1, 926185, Control_c, 0, 64, 24
1, 926188, Note_on_c, 0, 79, 59
1, 926189, Note_on_c, 0, 59, 67
1, 926203, Note_on_c, 0, 55, 55
1, 926242, Control_c, 0, 64, 0
1, 926326, Note_off_c, 0, 67, 0
1, 926333, Control_c, 0, 64, 9
1, 926339, Note_on_c, 0, 77, 62
1, 926354, Control_c, 0, 64, 21
1, 926366, Note_off_c, 0, 79, 0
1, 926371, Control_c, 0, 64, 34
1, 926373, Note_off_c, 0, 55, 0
1, 926390, Control_c, 0, 64, 49
1, 926410, Control_c, 0, 64, 60
1, 926428, Control_c, 0, 64, 64
1, 926446, Control_c, 0, 64, 66
1, 926466, Control_c, 0, 64, 69
1, 926484, Control_c, 0, 64, 71
1, 926503, Control_c, 0, 64, 73
1, 926519, Control_c, 0, 64, 76
1, 926532, Note_on_c, 0, 76, 70
1, 926533, Note_off_c, 0, 77, 0
1, 926538, Control_c, 0, 64, 78
1, 926559, Control_c, 0, 64, 80
1, 926594, Control_c, 0, 64, 83
1, 926663, Note_off_c, 0, 76, 0
1, 926700, Note_on_c, 0, 74, 64
1, 926799, Control_c, 0, 64, 81
1, 926817, Control_c, 0, 64, 78
1, 926837, Control_c, 0, 64, 74
1, 926854, Control_c, 0, 64, 67
1, 926861, Note_off_c, 0, 74, 0
1, 926873, Control_c, 0, 64, 58
1, 926880, Note_on_c, 0, 60, 58
1, 926882, Note_on_c, 0, 76, 61
1, 926892, Note_off_c, 0, 59, 0
1, 926892, Control_c, 0, 64, 46
1, 926909, Note_on_c, 0, 48, 38
1, 926911, Control_c, 0, 64, 30
1, 926930, Control_c, 0, 64, 9
1, 926948, Control_c, 0, 64, 0
1, 927034, Note_off_c, 0, 76, 0
1, 927071, Note_on_c, 0, 72, 64
1, 927125, Control_c, 0, 64, 10
1, 927144, Control_c, 0, 64, 18
1, 927160, Control_c, 0, 64, 28
1, 927179, Control_c, 0, 64, 41
1, 927198, Control_c, 0, 64, 55
1, 927208, Note_off_c, 0, 72, 0
1, 927214, Note_off_c, 0, 48, 0
1, 927216, Control_c, 0, 64, 62
1, 927233, Note_on_c, 0, 71, 66
1, 927233, Control_c, 0, 64, 64
1, 927255, Control_c, 0, 64, 65
1, 927272, Control_c, 0, 64, 67
1, 927331, Note_off_c, 0, 60, 0
1, 927363, Note_off_c, 0, 71, 0
1, 927393, Note_on_c, 0, 72, 66
1, 927516, Control_c, 0, 64, 68
1, 927533, Control_c, 0, 64, 67
1, 927551, Control_c, 0, 64, 66
1, 927569, Control_c, 0, 64, 64
1, 927576, Note_off_c, 0, 72, 0
1, 927589, Control_c, 0, 64, 60
1, 927602, Note_on_c, 0, 52, 79
1, 927606, Control_c, 0, 64, 56
1, 927611, Note_on_c, 0, 74, 65
1, 927626, Control_c, 0, 64, 48
1, 927627, Note_on_c, 0, 55, 58
1, 927644, Control_c, 0, 64, 33
1, 927665, Control_c, 0, 64, 12
1, 927682, Control_c, 0, 64, 0
1, 927721, Note_off_c, 0, 55, 0
1, 927776, Note_on_c, 0, 72, 63
1, 927804, Note_off_c, 0, 74, 0
1, 927867, Control_c, 0, 64, 8
1, 927887, Control_c, 0, 64, 19
1, 927914, Control_c, 0, 64, 31
1, 927934, Control_c, 0, 64, 44
1, 927951, Control_c, 0, 64, 55
1, 927955, Note_off_c, 0, 72, 0
1, 927968, Control_c, 0, 64, 60
1, 927968, Note_on_c, 0, 71, 69
1, 927989, Control_c, 0, 64, 63
1, 928006, Control_c, 0, 64, 65
1, 928024, Control_c, 0, 64, 67
1, 928063, Control_c, 0, 64, 69
1, 928097, Note_off_c, 0, 71, 0
1, 928122, Note_on_c, 0, 72, 70
1, 928279, Note_off_c, 0, 52, 0
1, 928303, Control_c, 0, 64, 67
1, 928322, Control_c, 0, 64, 65
1, 928327, Note_on_c, 0, 53, 77
1, 928336, Note_on_c, 0, 74, 60
1, 928341, Control_c, 0, 64, 61
1, 928342, Poly_aftertouch_c, 0, 55, 0
1, 928352, Note_on_c, 0, 57, 62
1, 928359, Control_c, 0, 64, 55
1, 928368, Note_off_c, 0, 72, 0
1, 928378, Control_c, 0, 64, 47
1, 928398, Control_c, 0, 64, 34
1, 928416, Control_c, 0, 64, 17
1, 928453, Control_c, 0, 64, 0
1, 928499, Note_on_c, 0, 71, 65
1, 928514, Note_off_c, 0, 74, 0
1, 928621, Control_c, 0, 64, 11
1, 928637, Note_off_c, 0, 71, 0
1, 928638, Control_c, 0, 64, 20
1, 928657, Control_c, 0, 64, 32
1, 928671, Note_on_c, 0, 69, 65
1, 928676, Control_c, 0, 64, 45
1, 928695, Control_c, 0, 64, 55
1, 928714, Control_c, 0, 64, 58
1, 928753, Control_c, 0, 64, 61
1, 928768, Control_c, 0, 64, 63
1, 928787, Control_c, 0, 64, 65
1, 928805, Control_c, 0, 64, 66
1, 928809, Note_off_c, 0, 69, 0
1, 928823, Control_c, 0, 64, 67
1, 928835, Note_on_c, 0, 71, 69
1, 929000, Control_c, 0, 64, 65
1, 929018, Control_c, 0, 64, 62
1, 929026, Note_on_c, 0, 54, 79
1, 929028, Note_off_c, 0, 57, 0
1, 929033, Note_off_c, 0, 71, 0
1, 929037, Control_c, 0, 64, 57
1, 929038, Note_on_c, 0, 72, 65
1, 929046, Note_off_c, 0, 53, 0
1, 929057, Control_c, 0, 64, 49
1, 929060, Note_on_c, 0, 62, 56
1, 929076, Control_c, 0, 64, 38
1, 929093, Control_c, 0, 64, 23
1, 929113, Control_c, 0, 64, 9
1, 929131, Control_c, 0, 64, 0
1, 929198, Note_on_c, 0, 71, 62
1, 929202, Note_off_c, 0, 72, 0
1, 929280, Control_c, 0, 64, 12
1, 929297, Control_c, 0, 64, 21
1, 929317, Control_c, 0, 64, 31
1, 929333, Control_c, 0, 64, 42
1, 929353, Control_c, 0, 64, 54
1, 929361, Note_off_c, 0, 71, 0
1, 929370, Control_c, 0, 64, 60
1, 929381, Note_on_c, 0, 69, 67
1, 929388, Control_c, 0, 64, 62
1, 929409, Control_c, 0, 64, 63
1, 929426, Control_c, 0, 64, 65
1, 929445, Control_c, 0, 64, 66
1, 929464, Control_c, 0, 64, 67
1, 929509, Note_off_c, 0, 62, 0
1, 929529, Note_off_c, 0, 69, 0
1, 929531, Note_on_c, 0, 71, 65
1, 929723, Note_on_c, 0, 55, 71
1, 929724, Note_off_c, 0, 71, 0
1, 929724, Control_c, 0, 64, 65
1, 929733, Note_off_c, 0, 54, 0
1, 929741, Note_on_c, 0, 73, 63
1, 929742, Control_c, 0, 64, 61
1, 929749, Note_on_c, 0, 64, 54
1, 929762, Control_c, 0, 64, 55
1, 929788, Control_c, 0, 64, 45
1, 929806, Control_c, 0, 64, 28
1, 929844, Control_c, 0, 64, 0
1, 929917, Note_on_c, 0, 70, 64
1, 929979, Note_off_c, 0, 73, 0
1, 929992, Control_c, 0, 64, 11
1, 930011, Control_c, 0, 64, 20
1, 930029, Control_c, 0, 64, 32
1, 930048, Control_c, 0, 64, 45
1, 930065, Note_off_c, 0, 70, 0
1, 930066, Control_c, 0, 64, 56
1, 930084, Control_c, 0, 64, 60
1, 930089, Note_on_c, 0, 69, 66
1, 930105, Control_c, 0, 64, 63
1, 930123, Control_c, 0, 64, 64
1, 930143, Control_c, 0, 64, 66
1, 930158, Control_c, 0, 64, 68
1, 930166, Note_off_c, 0, 64, 0
1, 930197, Control_c, 0, 64, 71
1, 930233, Control_c, 0, 64, 73
1, 930253, Note_on_c, 0, 70, 65
1, 930255, Note_off_c, 0, 69, 0
1, 930400, Control_c, 0, 64, 70
1, 930419, Control_c, 0, 64, 66
1, 930423, Note_off_c, 0, 70, 0
1, 930433, Note_on_c, 0, 54, 70
1, 930437, Control_c, 0, 64, 60
1, 930442, Note_on_c, 0, 72, 64
1, 930447, Note_off_c, 0, 55, 0
1, 930456, Control_c, 0, 64, 52
1, 930463, Note_on_c, 0, 57, 55
1, 930475, Control_c, 0, 64, 43
1, 930494, Control_c, 0, 64, 32
1, 930512, Control_c, 0, 64, 25
1, 930531, Control_c, 0, 64, 21
1, 930585, Control_c, 0, 64, 17
1, 930585, Note_on_c, 0, 70, 65
1, 930610, Note_off_c, 0, 72, 0
1, 930768, Note_off_c, 0, 70, 0
1, 930772, Note_on_c, 0, 69, 65
1, 930781, Note_on_c, 0, 52, 69
1, 930787, Note_off_c, 0, 54, 0
1, 930907, Note_off_c, 0, 69, 0
1, 930930, Control_c, 0, 67, 96
1, 930947, Note_on_c, 0, 67, 58
1, 931131, Note_off_c, 0, 67, 0
1, 931132, Note_on_c, 0, 50, 62
1, 931146, Note_on_c, 0, 66, 55
1, 931178, Note_off_c, 0, 52, 0
1, 931263, Note_off_c, 0, 66, 0
1, 931313, Note_on_c, 0, 72, 74
1, 931446, Note_off_c, 0, 72, 0
1, 931487, Note_on_c, 0, 71, 80
1, 931593, Note_off_c, 0, 57, 0
1, 931654, Note_on_c, 0, 72, 79
1, 931687, Note_off_c, 0, 71, 0
1, 931840, Note_on_c, 0, 74, 81
1, 931849, Note_on_c, 0, 57, 52
1, 931851, Note_off_c, 0, 72, 0
1, 931994, Note_on_c, 0, 72, 79
1, 932025, Note_off_c, 0, 74, 0
1, 932164, Note_off_c, 0, 72, 0
1, 932178, Note_on_c, 0, 71, 76
1, 932197, Note_on_c, 0, 55, 51
1, 932201, Note_off_c, 0, 57, 0
1, 932294, Note_off_c, 0, 71, 0
1, 932332, Note_on_c, 0, 72, 71
1, 932524, Note_off_c, 0, 72, 0
1, 932543, Note_on_c, 0, 78, 68
1, 932562, Note_on_c, 0, 57, 55
1, 932569, Note_off_c, 0, 55, 0
1, 932637, Note_off_c, 0, 78, 0
1, 932712, Note_on_c, 0, 72, 68
1, 932876, Note_off_c, 0, 72, 0
1, 932888, Note_on_c, 0, 71, 73
1, 933039, Note_off_c, 0, 71, 0
1, 933041, Note_on_c, 0, 72, 76
1, 933222, Note_off_c, 0, 72, 0
1, 933228, Note_on_c, 0, 74, 78
1, 933253, Note_on_c, 0, 54, 49
1, 933393, Note_on_c, 0, 72, 75
1, 933406, Note_off_c, 0, 74, 0
1, 933575, Poly_aftertouch_c, 0, 50, 24
1, 933576, Note_on_c, 0, 71, 76
1, 933577, Note_off_c, 0, 72, 0
1, 933612, Note_off_c, 0, 50, 0
1, 933702, Note_off_c, 0, 71, 0
1, 933732, Note_on_c, 0, 72, 75
1, 933896, Note_off_c, 0, 72, 0
1, 933958, Note_on_c, 0, 81, 75
1, 933960, Note_off_c, 0, 57, 0
1, 933967, Note_off_c, 0, 54, 0
1, 933977, Note_on_c, 0, 55, 46
1, 933989, Note_on_c, 0, 52, 35
1, 934103, Note_off_c, 0, 81, 0
1, 934141, Note_on_c, 0, 72, 67
1, 934287, Note_off_c, 0, 72, 0
1, 934314, Note_on_c, 0, 71, 66
1, 934535, Note_off_c, 0, 71, 0
1, 934560, Note_on_c, 0, 72, 63
1, 934608, Control_c, 0, 67, 100
1, 934721, Note_off_c, 0, 55, 0
1, 934722, Note_off_c, 0, 72, 0
1, 934737, Control_c, 0, 64, 13
1, 934745, Note_on_c, 0, 54, 47
1, 934753, Note_on_c, 0, 74, 60
1, 934762, Note_off_c, 0, 52, 0
1, 934763, Note_on_c, 0, 50, 41
1, 934794, Control_c, 0, 64, 9
1, 934847, Control_c, 0, 64, 0
1, 934911, Note_off_c, 0, 74, 0
1, 934931, Note_on_c, 0, 72, 57
1, 935088, Note_off_c, 0, 72, 0
1, 935107, Note_on_c, 0, 71, 59
1, 935164, Control_c, 0, 64, 9
1, 935182, Control_c, 0, 64, 20
1, 935193, Note_off_c, 0, 50, 0
1, 935201, Control_c, 0, 64, 33
1, 935220, Control_c, 0, 64, 47
1, 935238, Control_c, 0, 64, 57
1, 935247, Note_off_c, 0, 71, 0
1, 935256, Control_c, 0, 64, 60
1, 935274, Control_c, 0, 64, 63
1, 935290, Note_on_c, 0, 69, 59
1, 935292, Control_c, 0, 64, 66
1, 935312, Control_c, 0, 64, 70
1, 935330, Control_c, 0, 64, 74
1, 935349, Control_c, 0, 64, 79
1, 935367, Control_c, 0, 64, 83
1, 935396, Control_c, 0, 64, 86
1, 935414, Note_off_c, 0, 54, 0
1, 935434, Control_c, 0, 64, 91
1, 935512, Note_off_c, 0, 69, 0
1, 935525, Control_c, 0, 64, 87
1, 935544, Control_c, 0, 64, 82
1, 935562, Control_c, 0, 64, 73
1, 935568, Note_on_c, 0, 71, 59
1, 935583, Control_c, 0, 64, 62
1, 935600, Control_c, 0, 64, 51
1, 935611, Note_on_c, 0, 55, 39
1, 935612, Note_on_c, 0, 43, 35
1, 935619, Control_c, 0, 64, 40
1, 935635, Control_c, 0, 64, 24
1, 935672, Control_c, 0, 64, 0
1, 935905, Note_off_c, 0, 71, 0
1, 935948, Note_on_c, 0, 66, 54
1, 935971, Control_c, 0, 64, 10
1, 935990, Control_c, 0, 64, 27
1, 936006, Control_c, 0, 64, 44
1, 936025, Control_c, 0, 64, 57
1, 936044, Control_c, 0, 64, 63
1, 936063, Control_c, 0, 64, 66
1, 936081, Control_c, 0, 64, 69
1, 936100, Control_c, 0, 64, 72
1, 936118, Control_c, 0, 64, 76
1, 936131, Note_off_c, 0, 55, 0
1, 936137, Control_c, 0, 64, 80
1, 936156, Control_c, 0, 64, 85
1, 936168, Note_off_c, 0, 66, 0
1, 936193, Control_c, 0, 64, 90
1, 936304, Control_c, 0, 64, 84
1, 936331, Control_c, 0, 64, 76
1, 936339, Note_on_c, 0, 66, 59
1, 936350, Control_c, 0, 64, 65
1, 936368, Control_c, 0, 64, 54
1, 936371, Note_on_c, 0, 57, 32
1, 936388, Control_c, 0, 64, 46
1, 936408, Control_c, 0, 64, 35
1, 936426, Control_c, 0, 64, 19
1, 936444, Control_c, 0, 64, 0
1, 936679, Note_off_c, 0, 66, 0
1, 936696, Note_on_c, 0, 67, 63
1, 936739, Control_c, 0, 67, 96
1, 936778, Control_c, 0, 64, 20
1, 936797, Control_c, 0, 64, 35
1, 936814, Control_c, 0, 64, 50
1, 936833, Control_c, 0, 64, 61
1, 936850, Control_c, 0, 64, 65
1, 936870, Control_c, 0, 64, 67
1, 936887, Control_c, 0, 64, 69
1, 936907, Control_c, 0, 64, 71
1, 936914, Note_off_c, 0, 67, 0
1, 936925, Control_c, 0, 64, 73
1, 936944, Control_c, 0, 64, 76
1, 936962, Control_c, 0, 64, 78
1, 936981, Control_c, 0, 64, 80
1, 937073, Control_c, 0, 64, 78
1, 937076, Note_on_c, 0, 67, 60
1, 937092, Control_c, 0, 64, 74
1, 937099, Note_on_c, 0, 59, 53
1, 937111, Control_c, 0, 64, 67
1, 937129, Control_c, 0, 64, 58
1, 937148, Control_c, 0, 64, 48
1, 937153, Note_off_c, 0, 57, 0
1, 937166, Control_c, 0, 64, 35
1, 937185, Control_c, 0, 64, 19
1, 937222, Control_c, 0, 64, 0
1, 937444, Note_off_c, 0, 67, 0
1, 937491, Note_on_c, 0, 60, 56
1, 937604, Control_c, 0, 64, 15
1, 937624, Control_c, 0, 64, 33
1, 937640, Control_c, 0, 64, 50
1, 937660, Control_c, 0, 64, 61
1, 937677, Control_c, 0, 64, 65
1, 937696, Control_c, 0, 64, 67
1, 937715, Control_c, 0, 64, 69
1, 937733, Control_c, 0, 64, 72
1, 937749, Note_off_c, 0, 60, 0
1, 937751, Control_c, 0, 64, 76
1, 937771, Control_c, 0, 64, 80
1, 937790, Control_c, 0, 64, 84
1, 937809, Control_c, 0, 64, 87
1, 937871, Note_off_c, 0, 59, 0
1, 937938, Control_c, 0, 64, 85
1, 937954, Note_on_c, 0, 60, 52
1, 937955, Control_c, 0, 64, 78
1, 937968, Note_on_c, 0, 51, 38
1, 937974, Control_c, 0, 64, 68
1, 937995, Note_on_c, 0, 54, 33
1, 937995, Control_c, 0, 64, 56
1, 938012, Control_c, 0, 64, 45
1, 938032, Control_c, 0, 64, 32
1, 938033, Control_c, 0, 67, 100
1, 938050, Control_c, 0, 64, 15
1, 938068, Control_c, 0, 64, 0
1, 938438, Note_off_c, 0, 60, 0
1, 938489, Note_on_c, 0, 59, 47
1, 938522, Control_c, 0, 64, 8
1, 938540, Control_c, 0, 64, 22
1, 938559, Control_c, 0, 64, 35
1, 938578, Control_c, 0, 64, 47
1, 938597, Control_c, 0, 64, 58
1, 938615, Control_c, 0, 64, 64
1, 938632, Control_c, 0, 64, 69
1, 938651, Control_c, 0, 64, 74
1, 938670, Control_c, 0, 64, 80
1, 938688, Control_c, 0, 64, 89
1, 938707, Control_c, 0, 64, 101
1, 938726, Control_c, 0, 64, 114
1, 938744, Control_c, 0, 64, 127
1, 938755, Note_off_c, 0, 51, 0
1, 938767, Note_off_c, 0, 54, 0
1, 938788, Note_off_c, 0, 43, 0
1, 938856, Note_off_c, 0, 59, 0
1, 939116, Note_on_c, 0, 43, 39
1, 939181, Note_on_c, 0, 50, 38
1, 939296, Note_on_c, 0, 55, 42
1, 939310, Control_c, 0, 64, 111
1, 939328, Control_c, 0, 64, 96
1, 939347, Control_c, 0, 64, 80
1, 939363, Note_on_c, 0, 59, 54
1, 939366, Control_c, 0, 64, 64
1, 939385, Control_c, 0, 64, 52
1, 939404, Control_c, 0, 64, 43
1, 939416, Note_off_c, 0, 59, 0
1, 939420, Control_c, 0, 64, 33
1, 939441, Control_c, 0, 64, 24
1, 939459, Control_c, 0, 64, 19
1, 939534, Note_on_c, 0, 57, 44
1, 939615, Note_off_c, 0, 57, 0
1, 939782, Note_on_c, 0, 59, 33
1, 939978, Control_c, 0, 67, 96
1, 942381, Control_c, 0, 67, 92
1, 942713, Note_off_c, 0, 59, 0
1, 942732, Note_off_c, 0, 43, 0
1, 942764, Note_off_c, 0, 50, 0
1, 942785, Poly_aftertouch_c, 0, 55, 24
1, 942805, Note_off_c, 0, 55, 0
1, 943111, Control_c, 0, 67, 88
1, 943187, Control_c, 0, 67, 79
1, 943204, Control_c, 0, 67, 73
1, 943224, Control_c, 0, 67, 69
1, 943260, Control_c, 0, 64, 15
1, 943277, Control_c, 0, 67, 65
1, 943353, Control_c, 0, 67, 61
1, 943573, Note_on_c, 0, 43, 82
1, 943576, Note_on_c, 0, 59, 82
1, 943610, Note_off_c, 0, 59, 0
1, 943632, Control_c, 0, 67, 57
1, 943639, Note_off_c, 0, 43, 0
1, 943639, Note_on_c, 0, 42, 79
1, 943670, Control_c, 0, 64, 11
1, 943730, Note_off_c, 0, 42, 0
1, 943746, Note_on_c, 0, 41, 62
1, 943751, Note_on_c, 0, 55, 69
1, 943759, Note_on_c, 0, 43, 64
1, 943784, Note_off_c, 0, 55, 0
1, 943829, Note_off_c, 0, 41, 0
1, 943863, Note_off_c, 0, 43, 0
1, 943909, Note_on_c, 0, 50, 60
1, 943949, Note_off_c, 0, 50, 0
1, 944064, Note_on_c, 0, 55, 55
1, 944102, Note_off_c, 0, 55, 0
1, 944215, Note_on_c, 0, 59, 72
1, 944216, Note_on_c, 0, 78, 82
1, 944244, Note_off_c, 0, 59, 0
1, 944274, Note_off_c, 0, 78, 0
1, 944280, Note_on_c, 0, 79, 76
1, 944354, Note_off_c, 0, 79, 0
1, 944367, Note_on_c, 0, 81, 74
1, 944368, Note_on_c, 0, 55, 57
1, 944408, Note_off_c, 0, 55, 0
1, 944431, Note_off_c, 0, 81, 0
1, 944446, Note_on_c, 0, 79, 76
1, 944504, Note_off_c, 0, 79, 0
1, 944530, Note_on_c, 0, 62, 59
1, 944530, Note_on_c, 0, 81, 68
1, 944566, Note_off_c, 0, 62, 0
1, 944586, Note_off_c, 0, 81, 0
1, 944601, Note_on_c, 0, 79, 70
1, 944660, Note_off_c, 0, 79, 0
1, 944673, Note_on_c, 0, 59, 55
1, 944678, Note_on_c, 0, 81, 69
1, 944710, Note_off_c, 0, 59, 0
1, 944750, Note_off_c, 0, 81, 0
1, 944758, Note_on_c, 0, 79, 78
1, 944832, Note_off_c, 0, 79, 0
1, 944844, Note_on_c, 0, 81, 84
1, 944856, Note_on_c, 0, 55, 70
1, 944886, Note_off_c, 0, 55, 0
1, 944915, Note_off_c, 0, 81, 0
1, 944921, Note_on_c, 0, 79, 76
1, 944988, Note_off_c, 0, 79, 0
1, 944997, Note_on_c, 0, 81, 78
1, 945008, Note_on_c, 0, 59, 55
1, 945050, Note_off_c, 0, 59, 0
1, 945077, Note_off_c, 0, 81, 0
1, 945087, Note_on_c, 0, 79, 76
1, 945158, Note_on_c, 0, 57, 58
1, 945163, Note_off_c, 0, 79, 0
1, 945166, Note_on_c, 0, 81, 77
1, 945191, Note_off_c, 0, 57, 0
1, 945241, Note_off_c, 0, 81, 0
1, 945245, Note_on_c, 0, 79, 73
1, 945318, Note_off_c, 0, 79, 0
1, 945318, Note_on_c, 0, 78, 75
1, 945324, Note_on_c, 0, 55, 47
1, 945359, Note_off_c, 0, 55, 0
1, 945393, Note_on_c, 0, 79, 73
1, 945403, Note_off_c, 0, 78, 0
1, 945489, Note_on_c, 0, 81, 89
1, 945496, Note_on_c, 0, 62, 70
1, 945497, Note_off_c, 0, 79, 0
1, 945525, Note_off_c, 0, 62, 0
1, 945671, Note_on_c, 0, 57, 49
1, 945697, Note_off_c, 0, 81, 0
1, 945709, Note_off_c, 0, 57, 0
1, 945821, Note_on_c, 0, 54, 63
1, 945861, Note_off_c, 0, 54, 0
1, 945982, Note_on_c, 0, 57, 63
1, 946025, Note_off_c, 0, 57, 0
1, 946136, Note_on_c, 0, 54, 84
1, 946143, Note_on_c, 0, 62, 69
1, 946179, Note_off_c, 0, 62, 0
1, 946192, Note_on_c, 0, 52, 71
1, 946199, Note_off_c, 0, 54, 0
1, 946289, Note_on_c, 0, 54, 80
1, 946310, Note_on_c, 0, 57, 54
1, 946320, Note_off_c, 0, 52, 0
1, 946348, Note_off_c, 0, 57, 0
1, 946479, Note_on_c, 0, 69, 64
1, 946514, Note_off_c, 0, 69, 0
1, 946645, Note_on_c, 0, 66, 57
1, 946683, Note_off_c, 0, 66, 0
1, 946812, Note_on_c, 0, 62, 66
1, 946849, Note_off_c, 0, 62, 0
1, 946949, Note_off_c, 0, 54, 0
1, 946971, Note_on_c, 0, 66, 64
1, 946972, Note_on_c, 0, 57, 73
1, 947007, Note_off_c, 0, 66, 0
1, 947011, Note_off_c, 0, 57, 0
1, 947136, Note_on_c, 0, 55, 72
1, 947136, Note_on_c, 0, 64, 54
1, 947175, Note_off_c, 0, 55, 0
1, 947180, Note_off_c, 0, 64, 0
1, 947283, Note_on_c, 0, 62, 65
1, 947293, Note_on_c, 0, 54, 71
1, 947318, Note_off_c, 0, 62, 0
1, 947327, Note_off_c, 0, 54, 0
1, 947463, Note_on_c, 0, 52, 74
1, 947474, Note_on_c, 0, 67, 65
1, 947510, Note_off_c, 0, 67, 0
1, 947641, Note_on_c, 0, 64, 58
1, 947661, Note_off_c, 0, 52, 0
1, 947678, Note_off_c, 0, 64, 0
1, 947803, Note_on_c, 0, 59, 58
1, 947841, Note_off_c, 0, 59, 0
1, 947971, Note_on_c, 0, 64, 55
1, 947997, Note_off_c, 0, 64, 0
1, 948136, Note_on_c, 0, 76, 80
1, 948154, Note_on_c, 0, 67, 49
1, 948198, Note_off_c, 0, 67, 0
1, 948322, Note_on_c, 0, 64, 40
1, 948358, Note_off_c, 0, 64, 0
1, 948495, Note_on_c, 0, 74, 86
1, 948505, Note_off_c, 0, 76, 0
1, 948514, Note_on_c, 0, 71, 59
1, 948556, Note_off_c, 0, 71, 0
1, 948663, Note_on_c, 0, 67, 63
1, 948697, Note_off_c, 0, 67, 0
1, 948836, Note_on_c, 0, 73, 79
1, 948846, Note_on_c, 0, 64, 52
1, 948871, Note_off_c, 0, 74, 0
1, 948891, Note_off_c, 0, 64, 0
1, 949007, Note_on_c, 0, 71, 62
1, 949044, Note_off_c, 0, 71, 0
1, 949177, Note_off_c, 0, 73, 0
1, 949180, Note_on_c, 0, 74, 76
1, 949193, Note_on_c, 0, 69, 50
1, 949231, Note_off_c, 0, 74, 0
1, 949233, Note_off_c, 0, 69, 0
1, 949341, Note_on_c, 0, 76, 73
1, 949360, Note_on_c, 0, 67, 47
1, 949380, Note_off_c, 0, 76, 0
1, 949390, Note_off_c, 0, 67, 0
1, 949522, Note_on_c, 0, 74, 71
1, 949533, Note_on_c, 0, 66, 52
1, 949565, Note_off_c, 0, 74, 0
1, 949683, Note_on_c, 0, 69, 61
1, 949687, Note_off_c, 0, 66, 0
1, 949723, Note_off_c, 0, 69, 0
1, 949860, Note_on_c, 0, 66, 65
1, 949896, Note_off_c, 0, 66, 0
1, 950004, Note_on_c, 0, 69, 67
1, 950043, Note_off_c, 0, 69, 0
1, 950141, Note_on_c, 0, 50, 68
1, 950164, Note_on_c, 0, 74, 81
1, 950214, Note_off_c, 0, 50, 0
1, 950216, Note_on_c, 0, 48, 65
1, 950217, Note_off_c, 0, 74, 0
1, 950292, Note_on_c, 0, 47, 65
1, 950293, Note_off_c, 0, 48, 0
1, 950336, Note_on_c, 0, 69, 63
1, 950355, Note_off_c, 0, 47, 0
1, 950357, Note_on_c, 0, 48, 54
1, 950381, Note_off_c, 0, 69, 0
1, 950437, Note_off_c, 0, 48, 0
1, 950455, Note_on_c, 0, 50, 66
1, 950501, Note_on_c, 0, 81, 72
1, 950518, Note_off_c, 0, 50, 0
1, 950545, Note_off_c, 0, 81, 0
1, 950545, Note_on_c, 0, 48, 59
1, 950596, Note_off_c, 0, 48, 0
1, 950629, Note_on_c, 0, 50, 70
1, 950661, Note_on_c, 0, 78, 64
1, 950675, Note_off_c, 0, 50, 0
1, 950691, Note_off_c, 0, 78, 0
1, 950707, Note_on_c, 0, 48, 56
1, 950762, Note_off_c, 0, 48, 0
1, 950789, Note_on_c, 0, 50, 71
1, 950808, Note_on_c, 0, 74, 81
1, 950843, Note_off_c, 0, 74, 0
1, 950850, Note_off_c, 0, 50, 0
1, 950855, Note_on_c, 0, 48, 65
1, 950937, Note_off_c, 0, 48, 0
1, 950958, Note_on_c, 0, 50, 67
1, 950979, Note_on_c, 0, 78, 74
1, 951007, Note_off_c, 0, 78, 0
1, 951010, Note_off_c, 0, 50, 0
1, 951014, Note_on_c, 0, 48, 57
1, 951089, Note_off_c, 0, 48, 0
1, 951114, Note_on_c, 0, 50, 67
1, 951141, Note_on_c, 0, 76, 76
1, 951169, Note_off_c, 0, 50, 0
1, 951173, Note_off_c, 0, 76, 0
1, 951192, Note_on_c, 0, 48, 66
1, 951275, Note_off_c, 0, 48, 0
1, 951279, Note_on_c, 0, 47, 68
1, 951294, Note_on_c, 0, 74, 70
1, 951333, Note_off_c, 0, 74, 0
1, 951353, Note_off_c, 0, 47, 0
1, 951360, Note_on_c, 0, 48, 67
1, 951435, Note_off_c, 0, 48, 0
1, 951463, Note_on_c, 0, 47, 82
1, 951471, Note_on_c, 0, 79, 76
1, 951499, Note_off_c, 0, 79, 0
1, 951503, Note_off_c, 0, 47, 0
1, 951638, Note_on_c, 0, 74, 74
1, 951666, Note_off_c, 0, 74, 0
1, 951804, Note_on_c, 0, 71, 72
1, 951808, Note_on_c, 0, 43, 72
1, 951852, Note_off_c, 0, 43, 0
1, 951853, Note_off_c, 0, 71, 0
1, 951961, Note_on_c, 0, 74, 75
1, 952006, Note_off_c, 0, 74, 0
1, 952124, Note_on_c, 0, 47, 83
1, 952131, Note_on_c, 0, 79, 76
1, 952181, Note_off_c, 0, 47, 0
1, 952186, Note_off_c, 0, 79, 0
1, 952299, Note_on_c, 0, 74, 75
1, 952350, Note_off_c, 0, 74, 0
1, 952465, Note_on_c, 0, 50, 88
1, 952470, Note_on_c, 0, 83, 79
1, 952535, Note_off_c, 0, 50, 0
1, 952543, Note_off_c, 0, 83, 0
1, 952620, Note_on_c, 0, 79, 72
1, 952668, Note_off_c, 0, 79, 0
1, 952791, Note_on_c, 0, 55, 88
1, 952795, Note_on_c, 0, 74, 76
1, 952844, Note_off_c, 0, 55, 0
1, 952853, Note_off_c, 0, 74, 0
1, 952953, Note_on_c, 0, 77, 69
1, 953009, Note_off_c, 0, 77, 0
1, 953128, Note_on_c, 0, 76, 66
1, 953129, Note_on_c, 0, 47, 69
1, 953179, Note_off_c, 0, 76, 0
1, 953182, Note_off_c, 0, 47, 0
1, 953300, Note_on_c, 0, 74, 65
1, 953347, Note_off_c, 0, 74, 0
1, 953474, Note_on_c, 0, 48, 71
1, 953476, Note_on_c, 0, 76, 71
1, 953523, Note_off_c, 0, 76, 0
1, 953539, Note_off_c, 0, 48, 0
1, 953629, Note_on_c, 0, 72, 66
1, 953671, Note_off_c, 0, 72, 0
1, 953794, Note_on_c, 0, 52, 79
1, 953802, Note_on_c, 0, 67, 71
1, 953846, Note_off_c, 0, 52, 0
1, 953847, Note_off_c, 0, 67, 0
1, 953959, Note_on_c, 0, 72, 74
1, 954012, Note_off_c, 0, 72, 0
1, 954133, Note_on_c, 0, 76, 77
1, 954135, Note_on_c, 0, 55, 86
1, 954199, Note_off_c, 0, 55, 0
1, 954200, Note_off_c, 0, 76, 0
1, 954289, Note_on_c, 0, 72, 77
1, 954337, Note_off_c, 0, 72, 0
1, 954464, Note_on_c, 0, 79, 81
1, 954465, Note_on_c, 0, 60, 88
1, 954521, Note_off_c, 0, 60, 0
1, 954532, Note_off_c, 0, 79, 0
1, 954625, Note_on_c, 0, 76, 74
1, 954681, Note_off_c, 0, 76, 0
1, 954782, Note_on_c, 0, 52, 84
1, 954791, Note_on_c, 0, 72, 77
1, 954842, Note_off_c, 0, 72, 0
1, 954845, Note_off_c, 0, 52, 0
1, 954950, Note_on_c, 0, 74, 70
1, 954992, Note_off_c, 0, 74, 0
1, 955116, Note_on_c, 0, 55, 84
1, 955119, Note_on_c, 0, 72, 70
1, 955165, Note_off_c, 0, 72, 0
1, 955174, Note_off_c, 0, 55, 0
1, 955283, Note_on_c, 0, 71, 70
1, 955326, Note_off_c, 0, 71, 0
1, 955446, Note_on_c, 0, 54, 83
1, 955448, Note_on_c, 0, 69, 74
1, 955501, Note_off_c, 0, 69, 0
1, 955503, Note_off_c, 0, 54, 0
1, 955593, Note_on_c, 0, 66, 70
1, 955636, Note_off_c, 0, 66, 0
1, 955769, Note_on_c, 0, 57, 87
1, 955771, Note_on_c, 0, 62, 73
1, 955821, Note_off_c, 0, 62, 0
1, 955828, Note_off_c, 0, 57, 0
1, 955922, Note_on_c, 0, 66, 67
1, 955983, Note_off_c, 0, 66, 0
1, 956101, Note_on_c, 0, 69, 70
1, 956101, Note_on_c, 0, 50, 80
1, 956161, Note_off_c, 0, 69, 0
1, 956172, Note_off_c, 0, 50, 0
1, 956254, Note_on_c, 0, 66, 67
1, 956315, Note_off_c, 0, 66, 0
1, 956430, Note_on_c, 0, 74, 75
1, 956434, Note_on_c, 0, 54, 85
1, 956497, Note_off_c, 0, 54, 0
1, 956500, Note_off_c, 0, 74, 0
1, 956579, Note_on_c, 0, 69, 70
1, 956634, Note_off_c, 0, 69, 0
1, 956747, Note_on_c, 0, 57, 84
1, 956757, Note_on_c, 0, 66, 74
1, 956800, Note_off_c, 0, 57, 0
1, 956808, Note_off_c, 0, 66, 0
1, 956922, Note_on_c, 0, 69, 70
1, 956970, Note_off_c, 0, 69, 0
1, 957084, Note_on_c, 0, 67, 70
1, 957088, Note_on_c, 0, 60, 73
1, 957124, Note_off_c, 0, 67, 0
1, 957129, Note_off_c, 0, 60, 0
1, 957240, Note_on_c, 0, 66, 67
1, 957277, Note_off_c, 0, 66, 0
1, 957413, Note_on_c, 0, 59, 75
1, 957417, Note_on_c, 0, 67, 71
1, 957450, Note_off_c, 0, 59, 0
1, 957453, Note_off_c, 0, 67, 0
1, 957571, Note_on_c, 0, 62, 65
1, 957618, Note_off_c, 0, 62, 0
1, 957726, Note_on_c, 0, 55, 75
1, 957739, Note_on_c, 0, 59, 73
1, 957770, Note_off_c, 0, 55, 0
1, 957775, Note_off_c, 0, 59, 0
1, 957898, Note_on_c, 0, 62, 76
1, 957949, Note_off_c, 0, 62, 0
1, 958055, Note_on_c, 0, 59, 81
1, 958060, Note_on_c, 0, 67, 84
1, 958105, Note_off_c, 0, 67, 0
1, 958105, Note_off_c, 0, 59, 0
1, 958212, Note_on_c, 0, 62, 71
1, 958250, Note_off_c, 0, 62, 0
1, 958376, Note_on_c, 0, 71, 87
1, 958385, Note_on_c, 0, 62, 86
1, 958437, Note_off_c, 0, 71, 0
1, 958445, Note_off_c, 0, 62, 0
1, 958534, Note_on_c, 0, 67, 80
1, 958576, Note_off_c, 0, 67, 0
1, 958718, Note_on_c, 0, 74, 86
1, 958719, Note_on_c, 0, 67, 80
1, 958778, Note_off_c, 0, 74, 0
1, 958894, Note_on_c, 0, 72, 77
1, 958934, Note_off_c, 0, 72, 0
1, 959053, Note_on_c, 0, 71, 70
1, 959087, Note_off_c, 0, 71, 0
1, 959099, Note_off_c, 0, 67, 0
1, 959203, Note_on_c, 0, 69, 77
1, 959233, Note_off_c, 0, 69, 0
1, 959364, Note_on_c, 0, 67, 83
1, 959396, Note_off_c, 0, 67, 0
1, 959559, Note_on_c, 0, 83, 68
1, 959603, Note_off_c, 0, 83, 0
1, 959634, Note_on_c, 0, 81, 68
1, 959690, Note_on_c, 0, 83, 78
1, 959693, Note_off_c, 0, 81, 0
1, 959728, Note_off_c, 0, 83, 0
1, 959888, Note_on_c, 0, 79, 66
1, 959929, Note_off_c, 0, 79, 0
1, 959952, Note_on_c, 0, 78, 65
1, 960020, Note_on_c, 0, 79, 79
1, 960024, Note_off_c, 0, 78, 0
1, 960056, Note_off_c, 0, 79, 0
1, 960211, Note_on_c, 0, 76, 62
1, 960259, Note_off_c, 0, 76, 0
1, 960289, Note_on_c, 0, 74, 69
1, 960340, Note_on_c, 0, 76, 77
1, 960346, Note_off_c, 0, 74, 0
1, 960380, Note_off_c, 0, 76, 0
1, 960528, Note_on_c, 0, 73, 64
1, 960564, Note_off_c, 0, 73, 0
1, 960585, Note_on_c, 0, 71, 67
1, 960644, Note_on_c, 0, 73, 87
1, 960652, Note_off_c, 0, 71, 0
1, 960708, Note_off_c, 0, 73, 0
1, 960856, Note_on_c, 0, 69, 67
1, 960912, Note_off_c, 0, 69, 0
1, 960912, Note_on_c, 0, 67, 72
1, 960979, Note_on_c, 0, 69, 87
1, 960986, Note_off_c, 0, 67, 0
1, 961020, Note_off_c, 0, 69, 0
1, 961187, Note_on_c, 0, 66, 61
1, 961232, Note_on_c, 0, 63, 74
1, 961240, Note_off_c, 0, 66, 0
1, 961294, Note_on_c, 0, 64, 50
1, 961310, Note_on_c, 0, 66, 81
1, 961320, Note_off_c, 0, 63, 0
1, 961336, Note_off_c, 0, 64, 0
1, 961366, Note_off_c, 0, 66, 0
1, 961545, Note_on_c, 0, 81, 68
1, 961589, Note_off_c, 0, 81, 0
1, 961615, Note_on_c, 0, 79, 69
1, 961687, Note_on_c, 0, 81, 83
1, 961695, Note_off_c, 0, 79, 0
1, 961719, Note_off_c, 0, 81, 0
1, 961875, Note_on_c, 0, 78, 67
1, 961917, Note_off_c, 0, 78, 0
1, 961943, Note_on_c, 0, 76, 59
1, 962001, Note_on_c, 0, 78, 76
1, 962005, Note_off_c, 0, 76, 0
1, 962029, Note_off_c, 0, 78, 0
1, 962214, Note_on_c, 0, 74, 64
1, 962254, Note_off_c, 0, 74, 0
1, 962275, Note_on_c, 0, 73, 65
1, 962337, Note_off_c, 0, 73, 0
1, 962337, Note_on_c, 0, 74, 78
1, 962371, Note_off_c, 0, 74, 0
1, 962550, Note_on_c, 0, 71, 61
1, 962590, Note_off_c, 0, 71, 0
1, 962614, Note_on_c, 0, 69, 66
1, 962677, Note_off_c, 0, 69, 0
1, 962677, Note_on_c, 0, 71, 82
1, 962716, Note_off_c, 0, 71, 0
1, 962881, Note_on_c, 0, 67, 69
1, 962930, Note_off_c, 0, 67, 0
1, 962939, Note_on_c, 0, 66, 66
1, 963000, Note_on_c, 0, 67, 80
1, 963015, Note_off_c, 0, 66, 0
1, 963044, Note_off_c, 0, 67, 0
1, 963220, Note_on_c, 0, 64, 68
1, 963276, Note_off_c, 0, 64, 0
1, 963285, Note_on_c, 0, 62, 70
1, 963343, Note_on_c, 0, 64, 87
1, 963356, Note_off_c, 0, 62, 0
1, 963386, Note_off_c, 0, 64, 0
1, 963579, Note_on_c, 0, 79, 66
1, 963624, Note_off_c, 0, 79, 0
1, 963633, Note_on_c, 0, 78, 73
1, 963700, Note_on_c, 0, 79, 78
1, 963708, Note_off_c, 0, 78, 0
1, 963751, Note_off_c, 0, 79, 0
1, 963909, Note_on_c, 0, 76, 64
1, 963959, Note_off_c, 0, 76, 0
1, 963980, Note_on_c, 0, 74, 72
1, 964049, Note_off_c, 0, 74, 0
1, 964053, Note_on_c, 0, 76, 67
1, 964080, Note_off_c, 0, 76, 0
1, 964233, Note_on_c, 0, 71, 66
1, 964281, Note_off_c, 0, 71, 0
1, 964298, Note_on_c, 0, 69, 70
1, 964361, Note_on_c, 0, 71, 79
1, 964368, Note_off_c, 0, 69, 0
1, 964417, Note_off_c, 0, 71, 0
1, 964578, Note_on_c, 0, 67, 67
1, 964612, Note_off_c, 0, 67, 0
1, 964637, Note_on_c, 0, 66, 65
1, 964709, Note_on_c, 0, 67, 81
1, 964729, Note_off_c, 0, 66, 0
1, 964759, Note_off_c, 0, 67, 0
1, 964905, Note_on_c, 0, 64, 65
1, 964969, Note_off_c, 0, 64, 0
1, 964984, Note_on_c, 0, 62, 69
1, 965049, Note_on_c, 0, 64, 81
1, 965071, Note_off_c, 0, 62, 0
1, 965098, Note_off_c, 0, 64, 0
1, 965248, Note_on_c, 0, 61, 70
1, 965284, Note_off_c, 0, 61, 0
1, 965300, Note_on_c, 0, 59, 72
1, 965378, Note_on_c, 0, 61, 81
1, 965385, Note_off_c, 0, 59, 0
1, 965420, Note_off_c, 0, 61, 0
1, 965574, Note_on_c, 0, 55, 61
1, 965619, Note_off_c, 0, 55, 0
1, 965629, Note_on_c, 0, 54, 73
1, 965695, Note_on_c, 0, 55, 84
1, 965717, Note_off_c, 0, 54, 0
1, 965748, Note_off_c, 0, 55, 0
1, 965906, Note_on_c, 0, 52, 73
1, 965965, Note_on_c, 0, 50, 73
1, 965974, Note_off_c, 0, 52, 0
1, 966029, Note_on_c, 0, 52, 78
1, 966045, Note_off_c, 0, 50, 0
1, 966087, Note_off_c, 0, 52, 0
1, 966242, Note_on_c, 0, 49, 68
1, 966302, Note_off_c, 0, 49, 0
1, 966303, Note_on_c, 0, 47, 69
1, 966368, Note_on_c, 0, 49, 80
1, 966388, Note_off_c, 0, 47, 0
1, 966426, Note_off_c, 0, 49, 0
1, 966580, Note_on_c, 0, 45, 72
1, 966645, Note_off_c, 0, 45, 0
1, 966645, Note_on_c, 0, 43, 65
1, 966704, Note_on_c, 0, 45, 72
1, 966729, Note_off_c, 0, 43, 0
1, 966756, Note_off_c, 0, 45, 0
1, 966901, Note_on_c, 0, 43, 69
1, 966909, Poly_aftertouch_c, 0, 63, 0
1, 966958, Note_off_c, 0, 43, 0
1, 966970, Note_on_c, 0, 42, 68
1, 967023, Note_on_c, 0, 43, 79
1, 967041, Note_off_c, 0, 42, 0
1, 967070, Note_off_c, 0, 43, 0
1, 967238, Note_on_c, 0, 42, 53
1, 967295, Note_off_c, 0, 42, 0
1, 967295, Note_on_c, 0, 40, 66
1, 967352, Note_off_c, 0, 40, 0
1, 967377, Note_on_c, 0, 42, 85
1, 967411, Note_off_c, 0, 42, 0
1, 967474, Note_on_c, 0, 62, 68
1, 967529, Note_off_c, 0, 62, 0
1, 967562, Note_on_c, 0, 64, 63
1, 967604, Note_off_c, 0, 64, 0
1, 967611, Note_on_c, 0, 66, 62
1, 967685, Note_off_c, 0, 66, 0
1, 967700, Note_on_c, 0, 69, 80
1, 967791, Note_on_c, 0, 66, 62
1, 967807, Note_off_c, 0, 69, 0
1, 967855, Note_off_c, 0, 66, 0
1, 967872, Note_on_c, 0, 64, 69
1, 967920, Note_off_c, 0, 64, 0
1, 967944, Note_on_c, 0, 62, 61
1, 967988, Note_off_c, 0, 62, 0
1, 968038, Note_on_c, 0, 74, 75
1, 968066, Note_off_c, 0, 74, 0
1, 968126, Note_on_c, 0, 62, 67
1, 968182, Note_off_c, 0, 62, 0
1, 968225, Note_on_c, 0, 64, 50
1, 968261, Note_off_c, 0, 64, 0
1, 968270, Note_on_c, 0, 66, 60
1, 968344, Note_off_c, 0, 66, 0
1, 968383, Note_on_c, 0, 69, 76
1, 968474, Note_off_c, 0, 69, 0
1, 968485, Note_on_c, 0, 66, 64
1, 968537, Note_off_c, 0, 66, 0
1, 968558, Note_on_c, 0, 64, 61
1, 968613, Note_off_c, 0, 64, 0
1, 968636, Note_on_c, 0, 62, 60
1, 968674, Note_off_c, 0, 62, 0
1, 968751, Note_on_c, 0, 72, 86
1, 968791, Note_off_c, 0, 72, 0
1, 968818, Note_on_c, 0, 62, 57
1, 968877, Note_off_c, 0, 62, 0
1, 968908, Note_on_c, 0, 64, 51
1, 968956, Note_off_c, 0, 64, 0
1, 968971, Note_on_c, 0, 66, 57
1, 969058, Note_off_c, 0, 66, 0
1, 969092, Note_on_c, 0, 69, 77
1, 969190, Note_on_c, 0, 66, 65
1, 969191, Note_off_c, 0, 69, 0
1, 969252, Note_off_c, 0, 66, 0
1, 969271, Note_on_c, 0, 64, 56
1, 969323, Note_off_c, 0, 64, 0
1, 969338, Note_on_c, 0, 62, 64
1, 969375, Note_off_c, 0, 62, 0
1, 969439, Note_on_c, 0, 71, 81
1, 969473, Note_off_c, 0, 71, 0
1, 969522, Note_on_c, 0, 55, 58
1, 969583, Note_off_c, 0, 55, 0
1, 969609, Note_on_c, 0, 57, 58
1, 969667, Note_off_c, 0, 57, 0
1, 969684, Note_on_c, 0, 59, 64
1, 969734, Note_off_c, 0, 59, 0
1, 969751, Note_on_c, 0, 62, 76
1, 969803, Note_off_c, 0, 62, 0
1, 969848, Note_on_c, 0, 59, 63
1, 969907, Note_off_c, 0, 59, 0
1, 969920, Note_on_c, 0, 57, 57
1, 969999, Note_off_c, 0, 57, 0
1, 970007, Note_on_c, 0, 55, 58
1, 970068, Note_off_c, 0, 55, 0
1, 970113, Note_on_c, 0, 53, 83
1, 970150, Note_off_c, 0, 53, 0
1, 970218, Note_on_c, 0, 55, 59
1, 970285, Note_off_c, 0, 55, 0
1, 970291, Note_on_c, 0, 57, 63
1, 970389, Note_off_c, 0, 57, 0
1, 970392, Note_on_c, 0, 58, 66
1, 970467, Note_off_c, 0, 58, 0
1, 970472, Note_on_c, 0, 62, 71
1, 970541, Note_off_c, 0, 62, 0
1, 970559, Note_on_c, 0, 58, 59
1, 970635, Note_on_c, 0, 57, 63
1, 970637, Note_off_c, 0, 58, 0
1, 970709, Note_on_c, 0, 55, 63
1, 970715, Note_off_c, 0, 57, 0
1, 970753, Note_off_c, 0, 55, 0
1, 970814, Note_on_c, 0, 52, 83
1, 970852, Note_off_c, 0, 52, 0
1, 970908, Note_on_c, 0, 56, 61
1, 970995, Note_off_c, 0, 56, 0
1, 971000, Note_on_c, 0, 57, 67
1, 971100, Note_off_c, 0, 57, 0
1, 971106, Note_on_c, 0, 59, 72
1, 971169, Note_off_c, 0, 59, 0
1, 971180, Note_on_c, 0, 62, 67
1, 971242, Note_off_c, 0, 62, 0
1, 971256, Note_on_c, 0, 59, 56
1, 971318, Note_off_c, 0, 59, 0
1, 971329, Note_on_c, 0, 57, 63
1, 971391, Note_off_c, 0, 57, 0
1, 971401, Note_on_c, 0, 56, 46
1, 971448, Note_off_c, 0, 56, 0
1, 971486, Note_on_c, 0, 57, 80
1, 971524, Note_off_c, 0, 57, 0
1, 971698, Note_on_c, 0, 61, 61
1, 971699, Note_on_c, 0, 64, 58
1, 971730, Note_on_c, 0, 62, 62
1, 971738, Note_off_c, 0, 64, 0
1, 971739, Note_on_c, 0, 59, 69
1, 971744, Note_off_c, 0, 61, 0
1, 971808, Note_off_c, 0, 59, 0
1, 971813, Note_off_c, 0, 62, 0
1, 971821, Note_on_c, 0, 64, 76
1, 971834, Note_on_c, 0, 61, 80
1, 971853, Note_off_c, 0, 64, 0
1, 971870, Note_off_c, 0, 61, 0
1, 972035, Note_on_c, 0, 54, 53
1, 972037, Note_on_c, 0, 69, 55
1, 972083, Note_off_c, 0, 54, 0
1, 972086, Note_off_c, 0, 69, 0
1, 972095, Note_on_c, 0, 52, 65
1, 972096, Note_on_c, 0, 67, 63
1, 972166, Note_on_c, 0, 69, 80
1, 972180, Note_off_c, 0, 67, 0
1, 972181, Note_on_c, 0, 54, 81
1, 972189, Note_off_c, 0, 52, 0
1, 972206, Note_off_c, 0, 69, 0
1, 972216, Note_off_c, 0, 54, 0
1, 972371, Note_on_c, 0, 62, 58
1, 972372, Note_on_c, 0, 59, 58
1, 972418, Note_on_c, 0, 57, 73
1, 972421, Note_off_c, 0, 59, 0
1, 972421, Note_off_c, 0, 62, 0
1, 972427, Note_on_c, 0, 61, 74
1, 972479, Note_off_c, 0, 57, 0
1, 972485, Note_off_c, 0, 61, 0
1, 972516, Note_on_c, 0, 62, 80
1, 972516, Note_on_c, 0, 59, 86
1, 972544, Note_off_c, 0, 62, 0
1, 972548, Note_off_c, 0, 59, 0
1, 972703, Note_on_c, 0, 67, 60
1, 972706, Note_on_c, 0, 52, 57
1, 972756, Note_off_c, 0, 67, 0
1, 972756, Note_on_c, 0, 66, 69
1, 972760, Note_off_c, 0, 52, 0
1, 972767, Note_on_c, 0, 50, 66
1, 972818, Note_off_c, 0, 50, 0
1, 972856, Note_on_c, 0, 67, 79
1, 972864, Note_off_c, 0, 66, 0
1, 972868, Note_on_c, 0, 52, 79
1, 972903, Note_off_c, 0, 67, 0
1, 972905, Note_off_c, 0, 52, 0
1, 973062, Note_on_c, 0, 61, 71
1, 973073, Note_on_c, 0, 57, 57
1, 973095, Note_on_c, 0, 55, 68
1, 973109, Note_off_c, 0, 61, 0
1, 973113, Note_off_c, 0, 57, 0
1, 973125, Note_on_c, 0, 59, 73
1, 973152, Note_off_c, 0, 55, 0
1, 973181, Note_off_c, 0, 59, 0
1, 973191, Note_on_c, 0, 57, 87
1, 973215, Note_on_c, 0, 61, 80
1, 973224, Note_off_c, 0, 57, 0
1, 973251, Note_off_c, 0, 61, 0
1, 973394, Note_on_c, 0, 66, 66
1, 973412, Note_on_c, 0, 50, 40
1, 973442, Note_on_c, 0, 49, 71
1, 973448, Note_off_c, 0, 50, 0
1, 973461, Note_off_c, 0, 66, 0
1, 973469, Note_on_c, 0, 64, 75
1, 973525, Note_off_c, 0, 49, 0
1, 973532, Note_on_c, 0, 50, 78
1, 973547, Note_on_c, 0, 66, 82
1, 973563, Note_off_c, 0, 64, 0
1, 973582, Note_off_c, 0, 50, 0
1, 973592, Note_off_c, 0, 66, 0
1, 973606, Note_on_c, 0, 52, 69
1, 973679, Note_off_c, 0, 52, 0
1, 973709, Note_on_c, 0, 54, 71
1, 973724, Note_on_c, 0, 62, 80
1, 973770, Note_off_c, 0, 62, 0
1, 973822, Note_off_c, 0, 54, 0
1, 973825, Note_on_c, 0, 55, 67
1, 973892, Note_off_c, 0, 55, 0
1, 973899, Note_on_c, 0, 57, 74
1, 973902, Note_on_c, 0, 61, 91
1, 973941, Note_off_c, 0, 61, 0
1, 973957, Note_off_c, 0, 57, 0
1, 974003, Note_on_c, 0, 55, 54
1, 974017, Note_on_c, 0, 54, 65
1, 974040, Note_off_c, 0, 55, 0
1, 974062, Note_on_c, 0, 62, 71
1, 974085, Note_off_c, 0, 54, 0
1, 974104, Note_off_c, 0, 62, 0
1, 974118, Note_on_c, 0, 52, 76
1, 974159, Note_off_c, 0, 52, 0
1, 974223, Note_on_c, 0, 50, 88
1, 974239, Note_on_c, 0, 66, 86
1, 974258, Note_off_c, 0, 50, 0
1, 974311, Note_on_c, 0, 64, 79
1, 974321, Note_off_c, 0, 66, 0
1, 974397, Note_on_c, 0, 62, 79
1, 974405, Note_off_c, 0, 64, 0
1, 974429, Note_off_c, 0, 62, 0
1, 974429, Note_on_c, 0, 54, 74
1, 974463, Note_off_c, 0, 54, 0
1, 974587, Note_on_c, 0, 69, 89
1, 974594, Note_on_c, 0, 45, 83
1, 974630, Note_off_c, 0, 45, 0
1, 974648, Note_on_c, 0, 67, 79
1, 974672, Note_off_c, 0, 69, 0
1, 974745, Note_on_c, 0, 66, 90
1, 974752, Note_off_c, 0, 67, 0
1, 974767, Note_on_c, 0, 50, 77
1, 974785, Note_off_c, 0, 66, 0
1, 974812, Note_off_c, 0, 50, 0
1, 974986, Note_on_c, 0, 74, 97
1, 975000, Note_on_c, 0, 38, 84
1, 975017, Control_c, 0, 64, 20
1, 975035, Control_c, 0, 64, 30
1, 975054, Control_c, 0, 64, 41
1, 975072, Control_c, 0, 64, 52
1, 975089, Control_c, 0, 64, 59
1, 975108, Control_c, 0, 64, 63
1, 975127, Control_c, 0, 64, 68
1, 975145, Control_c, 0, 64, 74
1, 975164, Control_c, 0, 64, 82
1, 975186, Control_c, 0, 64, 92
1, 975201, Control_c, 0, 64, 103
1, 975211, Note_off_c, 0, 38, 0
1, 975219, Control_c, 0, 64, 109
1, 975228, Note_off_c, 0, 74, 0
1, 975239, Control_c, 0, 64, 105
1, 975258, Control_c, 0, 64, 87
1, 975276, Control_c, 0, 64, 62
1, 975278, Control_c, 0, 67, 61
1, 975295, Control_c, 0, 64, 34
1, 975314, Control_c, 0, 64, 0
1, 975424, Control_c, 0, 67, 65
1, 975780, Note_on_c, 0, 78, 86
1, 975792, Note_on_c, 0, 50, 90
1, 975837, Note_off_c, 0, 78, 0
1, 975895, Control_c, 0, 67, 61
1, 975960, Note_on_c, 0, 81, 83
1, 976006, Note_off_c, 0, 81, 0
1, 976090, Note_off_c, 0, 50, 0
1, 976136, Note_on_c, 0, 86, 87
1, 976190, Note_off_c, 0, 86, 0
1, 976287, Note_on_c, 0, 81, 84
1, 976349, Note_off_c, 0, 81, 0
1, 976417, Control_c, 0, 64, 21
1, 976437, Control_c, 0, 64, 47
1, 976455, Control_c, 0, 64, 67
1, 976462, Note_on_c, 0, 83, 94
1, 976463, Note_on_c, 0, 78, 81
1, 976473, Control_c, 0, 64, 76
1, 976493, Control_c, 0, 64, 81
1, 976500, Note_off_c, 0, 78, 0
1, 976510, Control_c, 0, 64, 84
1, 976526, Note_off_c, 0, 83, 0
1, 976531, Note_on_c, 0, 84, 72
1, 976547, Control_c, 0, 64, 81
1, 976568, Control_c, 0, 64, 72
1, 976594, Control_c, 0, 64, 60
1, 976612, Control_c, 0, 64, 47
1, 976613, Note_on_c, 0, 86, 73
1, 976621, Note_off_c, 0, 84, 0
1, 976630, Control_c, 0, 64, 36
1, 976636, Note_on_c, 0, 81, 61
1, 976650, Control_c, 0, 64, 27
1, 976669, Control_c, 0, 64, 20
1, 976673, Note_off_c, 0, 86, 0
1, 976679, Note_off_c, 0, 81, 0
1, 976693, Note_on_c, 0, 84, 71
1, 976787, Note_on_c, 0, 86, 81
1, 976792, Note_off_c, 0, 84, 0
1, 976799, Note_on_c, 0, 74, 59
1, 976846, Note_off_c, 0, 74, 0
1, 976859, Note_off_c, 0, 86, 0
1, 976868, Note_on_c, 0, 84, 74
1, 976939, Note_off_c, 0, 84, 0
1, 976956, Note_on_c, 0, 86, 76
1, 976970, Note_on_c, 0, 78, 55
1, 977014, Note_off_c, 0, 78, 0
1, 977027, Note_off_c, 0, 86, 0
1, 977029, Note_on_c, 0, 84, 83
1, 977113, Note_off_c, 0, 84, 0
1, 977120, Note_on_c, 0, 86, 86
1, 977130, Note_on_c, 0, 81, 82
1, 977172, Note_off_c, 0, 81, 0
1, 977205, Note_off_c, 0, 86, 0
1, 977205, Note_on_c, 0, 84, 87
1, 977286, Note_off_c, 0, 84, 0
1, 977289, Note_on_c, 0, 86, 74
1, 977301, Note_on_c, 0, 78, 65
1, 977348, Note_off_c, 0, 78, 0
1, 977382, Note_off_c, 0, 86, 0
1, 977382, Note_on_c, 0, 84, 76
1, 977459, Note_on_c, 0, 79, 66
1, 977467, Note_on_c, 0, 86, 78
1, 977470, Note_off_c, 0, 84, 0
1, 977495, Note_off_c, 0, 79, 0
1, 977563, Note_on_c, 0, 84, 76
1, 977569, Note_off_c, 0, 86, 0
1, 977629, Note_on_c, 0, 83, 75
1, 977632, Note_on_c, 0, 81, 63
1, 977634, Note_off_c, 0, 84, 0
1, 977664, Note_off_c, 0, 81, 0
1, 977706, Note_on_c, 0, 84, 86
1, 977716, Note_off_c, 0, 83, 0
1, 977772, Note_off_c, 0, 84, 0
1, 977804, Note_on_c, 0, 83, 96
1, 977806, Note_on_c, 0, 74, 81
1, 977852, Note_off_c, 0, 83, 0
1, 977977, Note_on_c, 0, 79, 79
1, 978020, Note_off_c, 0, 79, 0
1, 978047, Note_off_c, 0, 74, 0
1, 978153, Note_on_c, 0, 83, 84
1, 978210, Note_off_c, 0, 83, 0
1, 978316, Note_on_c, 0, 79, 81
1, 978368, Note_off_c, 0, 79, 0
1, 978476, Note_on_c, 0, 65, 87
1, 978493, Note_on_c, 0, 74, 89
1, 978542, Note_off_c, 0, 74, 0
1, 978543, Note_on_c, 0, 64, 76
1, 978545, Note_off_c, 0, 65, 0
1, 978634, Note_on_c, 0, 65, 92
1, 978644, Note_off_c, 0, 64, 0
1, 978653, Note_on_c, 0, 79, 78
1, 978700, Note_off_c, 0, 79, 0
1, 978832, Note_on_c, 0, 71, 69
1, 978871, Note_off_c, 0, 71, 0
1, 979001, Note_on_c, 0, 74, 75
1, 979047, Note_off_c, 0, 74, 0
1, 979176, Note_on_c, 0, 79, 78
1, 979223, Note_off_c, 0, 79, 0
1, 979261, Note_off_c, 0, 65, 0
1, 979337, Note_on_c, 0, 69, 80
1, 979340, Note_on_c, 0, 71, 72
1, 979374, Note_off_c, 0, 71, 0
1, 979397, Note_off_c, 0, 69, 0
1, 979520, Note_on_c, 0, 72, 73
1, 979521, Note_on_c, 0, 67, 77
1, 979554, Note_off_c, 0, 72, 0
1, 979567, Note_off_c, 0, 67, 0
1, 979675, Note_on_c, 0, 65, 77
1, 979687, Note_on_c, 0, 74, 70
1, 979719, Note_off_c, 0, 74, 0
1, 979722, Note_off_c, 0, 65, 0
1, 979867, Note_on_c, 0, 67, 68
1, 979873, Note_on_c, 0, 64, 84
1, 979907, Note_off_c, 0, 67, 0
1, 980029, Note_on_c, 0, 72, 68
1, 980066, Note_off_c, 0, 72, 0
1, 980081, Note_off_c, 0, 64, 0
1, 980209, Note_on_c, 0, 76, 71
1, 980240, Note_off_c, 0, 76, 0
1, 980389, Note_on_c, 0, 72, 58
1, 980428, Note_off_c, 0, 72, 0
1, 980569, Note_on_c, 0, 78, 81
1, 980597, Note_on_c, 0, 69, 54
1, 980641, Note_off_c, 0, 69, 0
1, 980742, Note_on_c, 0, 72, 62
1, 980787, Note_off_c, 0, 72, 0
1, 980906, Note_on_c, 0, 81, 86
1, 980915, Note_off_c, 0, 78, 0
1, 980922, Note_on_c, 0, 66, 55
1, 980963, Note_off_c, 0, 66, 0
1, 981078, Note_on_c, 0, 69, 59
1, 981119, Note_off_c, 0, 69, 0
1, 981262, Note_on_c, 0, 75, 82
1, 981285, Note_on_c, 0, 72, 55
1, 981304, Note_off_c, 0, 81, 0
1, 981326, Note_off_c, 0, 72, 0
1, 981417, Note_on_c, 0, 66, 60
1, 981457, Note_off_c, 0, 66, 0
1, 981581, Note_off_c, 0, 75, 0
1, 981591, Note_on_c, 0, 67, 58
1, 981595, Note_on_c, 0, 76, 77
1, 981634, Note_off_c, 0, 67, 0
1, 981650, Note_off_c, 0, 76, 0
1, 981764, Note_on_c, 0, 78, 66
1, 981781, Note_on_c, 0, 69, 44
1, 981794, Note_off_c, 0, 78, 0
1, 981809, Note_off_c, 0, 69, 0
1, 981943, Note_on_c, 0, 71, 70
1, 981943, Note_on_c, 0, 63, 67
1, 981984, Control_c, 0, 67, 65
1, 981995, Note_off_c, 0, 71, 0
1, 982095, Note_off_c, 0, 63, 0
1, 982114, Note_on_c, 0, 66, 66
1, 982151, Note_off_c, 0, 66, 0
1, 982217, Control_c, 0, 67, 69
1, 982305, Note_on_c, 0, 71, 62
1, 982343, Note_off_c, 0, 71, 0
1, 982453, Note_on_c, 0, 66, 59
1, 982492, Note_off_c, 0, 66, 0
1, 982603, Note_on_c, 0, 47, 80
1, 982619, Note_on_c, 0, 63, 81
1, 982663, Note_off_c, 0, 63, 0
1, 982672, Note_off_c, 0, 47, 0
1, 982686, Note_on_c, 0, 45, 64
1, 982751, Note_on_c, 0, 43, 72
1, 982761, Note_off_c, 0, 45, 0
1, 982788, Note_on_c, 0, 66, 63
1, 982821, Note_off_c, 0, 43, 0
1, 982822, Note_off_c, 0, 66, 0
1, 982843, Note_on_c, 0, 45, 54
1, 982903, Note_off_c, 0, 45, 0
1, 982924, Note_on_c, 0, 47, 72
1, 982935, Note_on_c, 0, 59, 69
1, 982967, Note_off_c, 0, 59, 0
1, 982967, Note_off_c, 0, 47, 0
1, 983016, Note_on_c, 0, 45, 67
1, 983096, Note_on_c, 0, 47, 77
1, 983097, Note_off_c, 0, 45, 0
1, 983097, Note_on_c, 0, 63, 59
1, 983138, Note_off_c, 0, 63, 0
1, 983147, Note_off_c, 0, 47, 0
1, 983197, Note_on_c, 0, 45, 69
1, 983251, Note_on_c, 0, 66, 78
1, 983262, Note_on_c, 0, 47, 81
1, 983269, Note_off_c, 0, 45, 0
1, 983301, Note_off_c, 0, 66, 0
1, 983351, Note_off_c, 0, 47, 0
1, 983358, Note_on_c, 0, 45, 70
1, 983429, Note_on_c, 0, 63, 73
1, 983440, Note_off_c, 0, 45, 0
1, 983452, Note_on_c, 0, 47, 71
1, 983469, Note_off_c, 0, 63, 0
1, 983505, Note_off_c, 0, 47, 0
1, 983526, Note_on_c, 0, 45, 63
1, 983589, Note_off_c, 0, 45, 0
1, 983601, Note_on_c, 0, 64, 73
1, 983604, Note_on_c, 0, 47, 70
1, 983641, Note_off_c, 0, 64, 0
1, 983672, Note_off_c, 0, 47, 0
1, 983683, Note_on_c, 0, 45, 70
1, 983762, Note_off_c, 0, 45, 0
1, 983762, Note_on_c, 0, 66, 65
1, 983763, Control_c, 0, 64, 16
1, 983764, Note_on_c, 0, 43, 72
1, 983797, Note_off_c, 0, 66, 0
1, 983832, Note_on_c, 0, 45, 66
1, 983840, Note_off_c, 0, 43, 0
1, 983937, Note_on_c, 0, 43, 86
1, 983943, Note_on_c, 0, 59, 78
1, 983962, Note_off_c, 0, 45, 0
1, 983976, Note_off_c, 0, 59, 0
1, 984000, Note_off_c, 0, 43, 0
1, 984131, Note_on_c, 0, 64, 68
1, 984166, Note_off_c, 0, 64, 0
1, 984296, Note_on_c, 0, 40, 63
1, 984298, Note_on_c, 0, 67, 70
1, 984337, Note_off_c, 0, 40, 0
1, 984340, Note_off_c, 0, 67, 0
1, 984370, Control_c, 0, 67, 65
1, 984468, Note_on_c, 0, 64, 65
1, 984507, Note_off_c, 0, 64, 0
1, 984634, Note_on_c, 0, 43, 73
1, 984637, Note_on_c, 0, 59, 68
1, 984682, Note_off_c, 0, 43, 0
1, 984683, Note_off_c, 0, 59, 0
1, 984812, Note_on_c, 0, 64, 60
1, 984848, Note_off_c, 0, 64, 0
1, 984974, Note_on_c, 0, 55, 64
1, 984975, Note_on_c, 0, 47, 74
1, 985028, Note_off_c, 0, 55, 0
1, 985055, Note_off_c, 0, 47, 0
1, 985153, Note_on_c, 0, 59, 69
1, 985194, Note_off_c, 0, 59, 0
1, 985332, Note_on_c, 0, 43, 81
1, 985338, Note_on_c, 0, 64, 68
1, 985386, Note_off_c, 0, 64, 0
1, 985410, Note_off_c, 0, 43, 0
1, 985498, Note_on_c, 0, 63, 66
1, 985553, Note_off_c, 0, 63, 0
1, 985680, Note_on_c, 0, 64, 72
1, 985682, Note_on_c, 0, 40, 80
1, 985729, Note_off_c, 0, 40, 0
1, 985729, Note_off_c, 0, 64, 0
1, 985833, Note_on_c, 0, 67, 70
1, 985881, Note_off_c, 0, 67, 0
1, 986009, Note_on_c, 0, 45, 83
1, 986021, Note_on_c, 0, 60, 71
1, 986069, Note_off_c, 0, 60, 0
1, 986084, Note_off_c, 0, 45, 0
1, 986179, Note_on_c, 0, 65, 72
1, 986230, Note_off_c, 0, 65, 0
1, 986358, Note_on_c, 0, 69, 74
1, 986358, Note_on_c, 0, 33, 74
1, 986375, Note_on_c, 0, 31, 60
1, 986375, Note_off_c, 0, 31, 0
1, 986394, Control_c, 0, 67, 61
1, 986419, Note_off_c, 0, 69, 0
1, 986419, Poly_aftertouch_c, 0, 31, 0
1, 986439, Note_off_c, 0, 33, 0
1, 986524, Note_on_c, 0, 65, 72
1, 986569, Note_off_c, 0, 65, 0
1, 986702, Note_on_c, 0, 60, 73
1, 986707, Note_on_c, 0, 45, 86
1, 986760, Note_off_c, 0, 60, 0
1, 986782, Note_off_c, 0, 45, 0
1, 986883, Note_on_c, 0, 65, 75
1, 986937, Note_off_c, 0, 65, 0
1, 987049, Note_on_c, 0, 48, 86
1, 987061, Note_on_c, 0, 57, 75
1, 987109, Note_off_c, 0, 57, 0
1, 987120, Note_off_c, 0, 48, 0
1, 987218, Note_on_c, 0, 60, 72
1, 987263, Note_off_c, 0, 60, 0
1, 987388, Note_on_c, 0, 47, 87
1, 987394, Note_on_c, 0, 65, 75
1, 987449, Note_off_c, 0, 65, 0
1, 987455, Note_off_c, 0, 47, 0
1, 987565, Note_on_c, 0, 64, 73
1, 987616, Note_off_c, 0, 64, 0
1, 987728, Note_on_c, 0, 45, 90
1, 987744, Note_on_c, 0, 65, 77
1, 987808, Note_off_c, 0, 45, 0
1, 987809, Note_off_c, 0, 65, 0
1, 987921, Note_on_c, 0, 69, 72
1, 987999, Note_off_c, 0, 69, 0
1, 988091, Note_on_c, 0, 63, 76
1, 988095, Note_on_c, 0, 47, 87
1, 988158, Note_off_c, 0, 63, 0
1, 988172, Note_off_c, 0, 47, 0
1, 988261, Note_on_c, 0, 66, 70
1, 988322, Note_off_c, 0, 66, 0
1, 988434, Note_on_c, 0, 51, 88
1, 988442, Note_on_c, 0, 69, 71
1, 988470, Control_c, 0, 67, 57
1, 988498, Note_off_c, 0, 51, 0
1, 988515, Note_off_c, 0, 69, 0
1, 988598, Note_on_c, 0, 66, 67
1, 988654, Note_off_c, 0, 66, 0
1, 988785, Note_on_c, 0, 54, 88
1, 988791, Note_on_c, 0, 63, 72
1, 988853, Note_off_c, 0, 54, 0
1, 988858, Note_off_c, 0, 63, 0
1, 988957, Note_on_c, 0, 66, 74
1, 989008, Note_off_c, 0, 66, 0
1, 989121, Note_on_c, 0, 59, 87
1, 989187, Note_off_c, 0, 59, 0
1, 989285, Note_on_c, 0, 63, 80
1, 989343, Note_off_c, 0, 63, 0
1, 989455, Note_on_c, 0, 54, 85
1, 989463, Note_on_c, 0, 47, 69
1, 989500, Note_off_c, 0, 47, 0
1, 989524, Note_off_c, 0, 54, 0
1, 989612, Note_on_c, 0, 57, 85
1, 989685, Note_off_c, 0, 57, 0
1, 989802, Note_on_c, 0, 64, 86
1, 989808, Note_on_c, 0, 55, 68
1, 989843, Note_off_c, 0, 55, 0
1, 989870, Note_off_c, 0, 64, 0
1, 989954, Note_on_c, 0, 63, 86
1, 989970, Note_on_c, 0, 54, 61
1, 990014, Note_off_c, 0, 63, 0
1, 990015, Note_off_c, 0, 54, 0
1, 990146, Note_on_c, 0, 64, 92
1, 990157, Note_on_c, 0, 55, 67
1, 990192, Note_off_c, 0, 55, 0
1, 990211, Note_off_c, 0, 64, 0
1, 990300, Note_on_c, 0, 59, 68
1, 990340, Note_off_c, 0, 59, 0
1, 990482, Note_on_c, 0, 67, 88
1, 990507, Note_on_c, 0, 64, 66
1, 990542, Note_off_c, 0, 64, 0
1, 990582, Note_off_c, 0, 67, 0
1, 990716, Note_on_c, 0, 59, 67
1, 990755, Note_off_c, 0, 59, 0
1, 990882, Note_on_c, 0, 71, 89
1, 990887, Note_on_c, 0, 55, 67
1, 990930, Note_off_c, 0, 55, 0
1, 990952, Note_off_c, 0, 71, 0
1, 991043, Note_on_c, 0, 59, 68
1, 991082, Note_off_c, 0, 59, 0
1, 991222, Note_on_c, 0, 52, 58
1, 991225, Note_on_c, 0, 76, 86
1, 991262, Note_off_c, 0, 52, 0
1, 991270, Note_on_c, 0, 77, 35
1, 991270, Note_off_c, 0, 77, 0
1, 991294, Note_off_c, 0, 76, 0
1, 991399, Note_on_c, 0, 54, 58
1, 991399, Note_on_c, 0, 75, 81
1, 991434, Note_off_c, 0, 54, 0
1, 991455, Note_off_c, 0, 75, 0
1, 991580, Note_on_c, 0, 76, 91
1, 991605, Note_on_c, 0, 55, 60
1, 991645, Note_off_c, 0, 55, 0
1, 991754, Note_on_c, 0, 52, 57
1, 991795, Note_off_c, 0, 52, 0
1, 991919, Note_on_c, 0, 55, 59
1, 991959, Note_off_c, 0, 76, 0
1, 991961, Note_off_c, 0, 55, 0
1, 992090, Note_on_c, 0, 59, 61
1, 992117, Note_off_c, 0, 59, 0
1, 992247, Note_on_c, 0, 64, 81
1, 992288, Note_off_c, 0, 64, 0
1, 992452, Note_on_c, 0, 48, 58
1, 992507, Note_off_c, 0, 48, 0
1, 992522, Note_on_c, 0, 47, 68
1, 992580, Note_off_c, 0, 47, 0
1, 992588, Note_on_c, 0, 48, 76
1, 992621, Note_off_c, 0, 48, 0
1, 992797, Note_on_c, 0, 52, 52
1, 992834, Note_on_c, 0, 50, 68
1, 992837, Note_off_c, 0, 52, 0
1, 992884, Note_off_c, 0, 50, 0
1, 992906, Note_on_c, 0, 52, 78
1, 992939, Note_off_c, 0, 52, 0
1, 993124, Note_on_c, 0, 57, 57
1, 993158, Note_off_c, 0, 57, 0
1, 993158, Note_on_c, 0, 56, 66
1, 993211, Note_off_c, 0, 56, 0
1, 993232, Note_on_c, 0, 57, 79
1, 993260, Note_off_c, 0, 57, 0
1, 993426, Note_on_c, 0, 60, 63
1, 993474, Note_off_c, 0, 60, 0
1, 993485, Note_on_c, 0, 59, 76
1, 993550, Note_on_c, 0, 60, 88
1, 993574, Note_off_c, 0, 59, 0
1, 993592, Note_off_c, 0, 60, 0
1, 993756, Note_on_c, 0, 64, 75
1, 993804, Note_off_c, 0, 64, 0
1, 993813, Note_on_c, 0, 62, 73
1, 993878, Note_on_c, 0, 64, 90
1, 993909, Note_off_c, 0, 62, 0
1, 993926, Note_off_c, 0, 64, 0
1, 994097, Note_on_c, 0, 69, 73
1, 994141, Note_off_c, 0, 69, 0
1, 994159, Note_on_c, 0, 67, 79
1, 994224, Note_on_c, 0, 69, 94
1, 994255, Note_off_c, 0, 67, 0
1, 994273, Note_off_c, 0, 69, 0
1, 994462, Note_on_c, 0, 47, 62
1, 994511, Note_off_c, 0, 47, 0
1, 994530, Note_on_c, 0, 45, 67
1, 994588, Note_on_c, 0, 47, 78
1, 994599, Note_off_c, 0, 45, 0
1, 994631, Note_off_c, 0, 47, 0
1, 994815, Note_on_c, 0, 50, 58
1, 994855, Note_off_c, 0, 50, 0
1, 994863, Note_on_c, 0, 48, 65
1, 994914, Note_off_c, 0, 48, 0
1, 994932, Note_on_c, 0, 50, 85
1, 994974, Note_off_c, 0, 50, 0
1, 995151, Note_on_c, 0, 55, 63
1, 995194, Note_off_c, 0, 55, 0
1, 995201, Note_on_c, 0, 54, 67
1, 995273, Note_on_c, 0, 55, 79
1, 995280, Note_off_c, 0, 54, 0
1, 995329, Note_off_c, 0, 55, 0
1, 995487, Note_on_c, 0, 59, 65
1, 995531, Note_off_c, 0, 59, 0
1, 995545, Note_on_c, 0, 57, 70
1, 995615, Note_on_c, 0, 59, 90
1, 995648, Note_off_c, 0, 57, 0
1, 995663, Note_off_c, 0, 59, 0
1, 995825, Note_on_c, 0, 62, 75
1, 995874, Note_off_c, 0, 62, 0
1, 995887, Note_on_c, 0, 60, 70
1, 995947, Note_on_c, 0, 62, 90
1, 995981, Note_off_c, 0, 60, 0
1, 995998, Note_off_c, 0, 62, 0
1, 996177, Note_on_c, 0, 67, 65
1, 996231, Note_off_c, 0, 67, 0
1, 996243, Note_on_c, 0, 66, 71
1, 996312, Note_on_c, 0, 67, 86
1, 996345, Note_off_c, 0, 66, 0
1, 996366, Note_off_c, 0, 67, 0
1, 996540, Note_on_c, 0, 45, 63
1, 996590, Note_off_c, 0, 45, 0
1, 996611, Note_on_c, 0, 43, 63
1, 996666, Note_on_c, 0, 45, 79
1, 996667, Note_off_c, 0, 43, 0
1, 996706, Note_off_c, 0, 45, 0
1, 996888, Note_on_c, 0, 48, 50
1, 996933, Note_on_c, 0, 47, 66
1, 996937, Note_off_c, 0, 48, 0
1, 996937, Poly_aftertouch_c, 0, 68, 0
1, 997005, Note_off_c, 0, 47, 0
1, 997012, Note_on_c, 0, 48, 76
1, 997047, Note_off_c, 0, 48, 0
1, 997220, Note_on_c, 0, 52, 59
1, 997273, Note_off_c, 0, 52, 0
1, 997275, Note_on_c, 0, 50, 65
1, 997349, Note_on_c, 0, 52, 69
1, 997355, Note_off_c, 0, 50, 0
1, 997395, Note_off_c, 0, 52, 0
1, 997559, Note_on_c, 0, 57, 63
1, 997607, Note_off_c, 0, 57, 0
1, 997617, Note_on_c, 0, 55, 62
1, 997680, Note_on_c, 0, 57, 76
1, 997692, Note_off_c, 0, 55, 0
1, 997731, Note_off_c, 0, 57, 0
1, 997896, Note_on_c, 0, 60, 63
1, 997948, Note_off_c, 0, 60, 0
1, 997956, Note_on_c, 0, 59, 65
1, 998006, Note_off_c, 0, 59, 0
1, 998023, Note_on_c, 0, 60, 80
1, 998065, Note_off_c, 0, 60, 0
1, 998236, Note_on_c, 0, 66, 65
1, 998277, Note_off_c, 0, 66, 0
1, 998293, Note_on_c, 0, 64, 70
1, 998365, Note_on_c, 0, 66, 82
1, 998370, Note_off_c, 0, 64, 0
1, 998408, Note_off_c, 0, 66, 0
1, 998592, Note_on_c, 0, 69, 76
1, 998627, Note_off_c, 0, 69, 0
1, 998644, Note_on_c, 0, 67, 72
1, 998718, Note_on_c, 0, 69, 94
1, 998739, Note_off_c, 0, 67, 0
1, 998763, Note_off_c, 0, 69, 0
1, 998933, Note_on_c, 0, 74, 77
1, 998977, Note_off_c, 0, 74, 0
1, 998994, Note_on_c, 0, 72, 66
1, 999063, Note_on_c, 0, 74, 92
1, 999080, Note_off_c, 0, 72, 0
1, 999102, Note_off_c, 0, 74, 0
1, 999257, Note_on_c, 0, 78, 77
1, 999297, Note_off_c, 0, 78, 0
1, 999326, Note_on_c, 0, 76, 72
1, 999387, Note_on_c, 0, 78, 92
1, 999395, Note_off_c, 0, 76, 0
1, 999431, Note_off_c, 0, 78, 0
1, 999583, Note_on_c, 0, 79, 70
1, 999641, Note_off_c, 0, 79, 0
1, 999652, Note_on_c, 0, 78, 79
1, 999712, Note_on_c, 0, 79, 83
1, 999730, Note_off_c, 0, 78, 0
1, 999766, Note_off_c, 0, 79, 0
1, 999915, Note_on_c, 0, 81, 79
1, 999982, Note_off_c, 0, 81, 0
1, 999991, Note_on_c, 0, 79, 73
1, 1000062, Note_on_c, 0, 81, 88
1, 1000082, Note_off_c, 0, 79, 0
1, 1000110, Note_off_c, 0, 81, 0
1, 1000259, Note_on_c, 0, 83, 78
1, 1000327, Note_off_c, 0, 83, 0
1, 1000327, Note_on_c, 0, 81, 79
1, 1000411, Note_on_c, 0, 83, 92
1, 1000425, Note_off_c, 0, 81, 0
1, 1000454, Note_off_c, 0, 83, 0
1, 1000506, Note_on_c, 0, 67, 62
1, 1000572, Note_off_c, 0, 67, 0
1, 1000586, Note_on_c, 0, 69, 69
1, 1000660, Note_off_c, 0, 69, 0
1, 1000661, Note_on_c, 0, 71, 67
1, 1000731, Control_c, 0, 67, 53
1, 1000733, Note_off_c, 0, 71, 0
1, 1000744, Note_on_c, 0, 74, 80
1, 1000809, Note_off_c, 0, 74, 0
1, 1000834, Note_on_c, 0, 71, 71
1, 1000920, Note_on_c, 0, 69, 63
1, 1000939, Note_off_c, 0, 71, 0
1, 1000989, Note_on_c, 0, 67, 67
1, 1001006, Note_off_c, 0, 69, 0
1, 1001041, Note_off_c, 0, 67, 0
1, 1001087, Note_on_c, 0, 62, 80
1, 1001089, Note_on_c, 0, 60, 81
1, 1001112, Note_off_c, 0, 62, 0
1, 1001122, Note_off_c, 0, 60, 0
1, 1001178, Note_on_c, 0, 67, 69
1, 1001250, Note_on_c, 0, 69, 66
1, 1001252, Note_off_c, 0, 67, 0
1, 1001345, Note_on_c, 0, 71, 71
1, 1001364, Note_off_c, 0, 69, 0
1, 1001422, Note_off_c, 0, 71, 0
1, 1001428, Note_on_c, 0, 74, 77
1, 1001491, Note_off_c, 0, 74, 0
1, 1001523, Note_on_c, 0, 71, 67
1, 1001590, Note_on_c, 0, 69, 69
1, 1001602, Note_off_c, 0, 71, 0
1, 1001677, Note_on_c, 0, 67, 67
1, 1001678, Note_off_c, 0, 69, 0
1, 1001720, Note_off_c, 0, 67, 0
1, 1001754, Note_on_c, 0, 65, 91
1, 1001794, Note_off_c, 0, 65, 0
1, 1001880, Note_on_c, 0, 67, 65
1, 1001953, Note_on_c, 0, 69, 67
1, 1001957, Note_off_c, 0, 67, 0
1, 1002035, Note_on_c, 0, 71, 72
1, 1002043, Note_off_c, 0, 69, 0
1, 1002104, Note_off_c, 0, 71, 0
1, 1002120, Note_on_c, 0, 74, 78
1, 1002188, Note_off_c, 0, 74, 0
1, 1002203, Note_on_c, 0, 71, 62
1, 1002269, Note_on_c, 0, 69, 66
1, 1002313, Note_off_c, 0, 71, 0
1, 1002345, Note_on_c, 0, 67, 67
1, 1002374, Note_off_c, 0, 69, 0
1, 1002412, Note_off_c, 0, 67, 0
1, 1002433, Note_on_c, 0, 72, 81
1, 1002460, Note_off_c, 0, 72, 0
1, 1002509, Note_on_c, 0, 64, 72
1, 1002565, Note_off_c, 0, 64, 0
1, 1002602, Note_on_c, 0, 65, 72
1, 1002678, Note_on_c, 0, 67, 75
1, 1002683, Note_off_c, 0, 65, 0
1, 1002756, Note_on_c, 0, 72, 87
1, 1002760, Note_off_c, 0, 67, 0
1, 1002848, Note_on_c, 0, 67, 77
1, 1002856, Note_off_c, 0, 72, 0
1, 1002918, Note_off_c, 0, 67, 0
1, 1002923, Note_on_c, 0, 65, 72
1, 1003009, Note_off_c, 0, 65, 0
1, 1003020, Note_on_c, 0, 64, 73
1, 1003048, Note_off_c, 0, 64, 0
1, 1003104, Note_on_c, 0, 57, 89
1, 1003149, Note_off_c, 0, 57, 0
1, 1003208, Note_on_c, 0, 66, 67
1, 1003272, Note_off_c, 0, 66, 0
1, 1003289, Note_on_c, 0, 67, 73
1, 1003364, Note_off_c, 0, 67, 0
1, 1003364, Note_on_c, 0, 69, 77
1, 1003448, Note_on_c, 0, 72, 88
1, 1003452, Note_off_c, 0, 69, 0
1, 1003535, Note_on_c, 0, 69, 77
1, 1003556, Note_off_c, 0, 72, 0
1, 1003610, Note_off_c, 0, 69, 0
1, 1003627, Note_on_c, 0, 67, 67
1, 1003708, Note_on_c, 0, 66, 77
1, 1003711, Note_off_c, 0, 67, 0
1, 1003750, Note_off_c, 0, 66, 0
1, 1003785, Note_on_c, 0, 52, 90
1, 1003836, Note_off_c, 0, 52, 0
1, 1003877, Note_on_c, 0, 67, 75
1, 1003968, Note_off_c, 0, 67, 0
1, 1003972, Note_on_c, 0, 69, 75
1, 1004047, Note_off_c, 0, 69, 0
1, 1004051, Note_on_c, 0, 70, 71
1, 1004120, Note_on_c, 0, 73, 74
1, 1004129, Note_off_c, 0, 70, 0
1, 1004217, Note_on_c, 0, 70, 71
1, 1004250, Note_off_c, 0, 73, 0
1, 1004287, Note_on_c, 0, 69, 71
1, 1004314, Note_off_c, 0, 70, 0
1, 1004372, Note_on_c, 0, 67, 73
1, 1004384, Note_off_c, 0, 69, 0
1, 1004427, Note_off_c, 0, 67, 0
1, 1004443, Note_on_c, 0, 54, 72
1, 1004454, Note_on_c, 0, 74, 90
1, 1004475, Note_off_c, 0, 54, 0
1, 1004501, Note_off_c, 0, 74, 0
1, 1004655, Note_on_c, 0, 57, 55
1, 1004661, Note_on_c, 0, 72, 65
1, 1004704, Note_on_c, 0, 71, 70
1, 1004707, Note_off_c, 0, 57, 0
1, 1004710, Note_on_c, 0, 55, 68
1, 1004716, Note_off_c, 0, 72, 0
1, 1004777, Note_off_c, 0, 55, 0
1, 1004787, Note_on_c, 0, 72, 87
1, 1004791, Note_on_c, 0, 57, 89
1, 1004807, Note_off_c, 0, 71, 0
1, 1004834, Note_off_c, 0, 72, 0
1, 1004845, Note_off_c, 0, 57, 0
1, 1004990, Note_on_c, 0, 71, 71
1, 1005013, Note_on_c, 0, 62, 50
1, 1005030, Note_on_c, 0, 60, 70
1, 1005043, Note_off_c, 0, 62, 0
1, 1005051, Note_off_c, 0, 71, 0
1, 1005056, Note_on_c, 0, 69, 80
1, 1005121, Note_off_c, 0, 60, 0
1, 1005127, Note_on_c, 0, 62, 89
1, 1005136, Note_on_c, 0, 71, 88
1, 1005151, Note_off_c, 0, 69, 0
1, 1005180, Note_off_c, 0, 71, 0
1, 1005182, Note_off_c, 0, 62, 0
1, 1005322, Note_on_c, 0, 70, 73
1, 1005328, Note_on_c, 0, 55, 62
1, 1005382, Note_on_c, 0, 69, 73
1, 1005383, Note_on_c, 0, 54, 74
1, 1005384, Note_off_c, 0, 55, 0
1, 1005387, Note_off_c, 0, 70, 0
1, 1005460, Note_on_c, 0, 70, 82
1, 1005467, Note_on_c, 0, 55, 88
1, 1005481, Note_off_c, 0, 54, 0
1, 1005489, Note_off_c, 0, 69, 0
1, 1005515, Note_off_c, 0, 70, 0
1, 1005521, Note_off_c, 0, 55, 0
1, 1005676, Note_on_c, 0, 69, 74
1, 1005700, Note_on_c, 0, 59, 64
1, 1005737, Note_off_c, 0, 69, 0
1, 1005744, Note_on_c, 0, 60, 30
1, 1005744, Note_on_c, 0, 67, 70
1, 1005786, Note_off_c, 0, 60, 0
1, 1005798, Note_off_c, 0, 67, 0
1, 1005818, Note_on_c, 0, 60, 74
1, 1005819, Note_off_c, 0, 59, 0
1, 1005820, Note_on_c, 0, 59, 56
1, 1005828, Note_on_c, 0, 69, 93
1, 1005856, Note_off_c, 0, 59, 0
1, 1005879, Note_off_c, 0, 69, 0
1, 1005883, Note_off_c, 0, 60, 0
1, 1006016, Note_on_c, 0, 74, 80
1, 1006085, Note_on_c, 0, 72, 81
1, 1006090, Note_on_c, 0, 52, 66
1, 1006094, Note_off_c, 0, 74, 0
1, 1006173, Note_on_c, 0, 74, 90
1, 1006179, Note_on_c, 0, 54, 88
1, 1006196, Note_off_c, 0, 72, 0
1, 1006215, Note_off_c, 0, 52, 0
1, 1006220, Note_off_c, 0, 74, 0
1, 1006226, Note_off_c, 0, 54, 0
1, 1006369, Note_on_c, 0, 67, 71
1, 1006374, Note_on_c, 0, 59, 75
1, 1006427, Note_off_c, 0, 67, 0
1, 1006430, Note_on_c, 0, 66, 79
1, 1006448, Note_off_c, 0, 59, 0
1, 1006464, Note_on_c, 0, 57, 70
1, 1006500, Note_off_c, 0, 66, 0
1, 1006535, Note_on_c, 0, 67, 88
1, 1006548, Note_on_c, 0, 59, 91
1, 1006558, Note_off_c, 0, 57, 0
1, 1006591, Note_off_c, 0, 67, 0
1, 1006599, Note_off_c, 0, 59, 0
1, 1006630, Note_on_c, 0, 69, 82
1, 1006721, Note_on_c, 0, 71, 79
1, 1006729, Note_off_c, 0, 69, 0
1, 1006786, Note_on_c, 0, 72, 69
1, 1006791, Note_on_c, 0, 55, 71
1, 1006828, Note_off_c, 0, 71, 0
1, 1006847, Note_off_c, 0, 55, 0
1, 1006886, Note_on_c, 0, 74, 90
1, 1006903, Note_on_c, 0, 54, 87
1, 1006914, Note_off_c, 0, 72, 0
1, 1006949, Note_off_c, 0, 54, 0
1, 1006989, Note_on_c, 0, 72, 79
1, 1007023, Note_off_c, 0, 74, 0
1, 1007050, Note_on_c, 0, 55, 74
1, 1007071, Note_on_c, 0, 71, 76
1, 1007086, Note_off_c, 0, 55, 0
1, 1007105, Note_off_c, 0, 72, 0
1, 1007139, Note_on_c, 0, 69, 86
1, 1007161, Note_off_c, 0, 71, 0
1, 1007229, Note_on_c, 0, 59, 86
1, 1007236, Note_off_c, 0, 69, 0
1, 1007237, Note_on_c, 0, 67, 88
1, 1007272, Note_off_c, 0, 59, 0
1, 1007276, Note_off_c, 0, 67, 0
1, 1007327, Note_on_c, 0, 57, 76
1, 1007338, Note_on_c, 0, 73, 16
1, 1007338, Note_off_c, 0, 73, 0
1, 1007405, Note_off_c, 0, 57, 0
1, 1007425, Note_on_c, 0, 55, 90
1, 1007429, Note_on_c, 0, 71, 89
1, 1007471, Note_off_c, 0, 71, 0
1, 1007479, Note_off_c, 0, 55, 0
1, 1007618, Note_on_c, 0, 62, 82
1, 1007674, Note_off_c, 0, 62, 0
1, 1007699, Note_on_c, 0, 60, 80
1, 1007798, Note_on_c, 0, 59, 88
1, 1007815, Note_on_c, 0, 67, 98
1, 1007829, Note_off_c, 0, 60, 0
1, 1007848, Note_off_c, 0, 67, 0
1, 1007856, Note_off_c, 0, 59, 0
1, 1008133, Note_on_c, 0, 67, 97
1, 1008149, Note_on_c, 0, 55, 86
1, 1008160, Control_c, 0, 64, 10
1, 1008179, Control_c, 0, 67, 48
1, 1008217, Control_c, 0, 67, 43
1, 1008255, Control_c, 0, 64, 0
1, 1008273, Control_c, 0, 67, 39
1, 1008327, Control_c, 0, 67, 34
1, 1008364, Control_c, 0, 67, 28
1, 1008411, Control_c, 0, 67, 24
1, 1008468, Control_c, 0, 67, 20
1, 1009122, Note_off_c, 0, 67, 0
1, 1009144, Note_off_c, 0, 55, 0
1, 1009700, Control_c, 0, 67, 16
1, 1009979, Control_c, 0, 67, 12
1, 1010091, Control_c, 0, 67, 0
1, 1011840, End_track
0, 0, End_of_file
