0, 0, Header, 0, 1, 384
1, 0, Start_track
1, 0, Tempo, 512820
1, 0, Title_t, ""
1, 0, Control_c, 0, 64, 127
1, 0, Note_on_c, 0, 31, 26
1, 0, Note_on_c, 0, 43, 18
1, 113, Note_off_c, 0, 31, 64
1, 142, Note_off_c, 0, 43, 64
1, 230, Note_on_c, 0, 67, 34
1, 446, Note_on_c, 0, 69, 25
1, 478, Note_off_c, 0, 67, 64
1, 660, Note_off_c, 0, 69, 64
1, 680, Control_c, 0, 64, 0
1, 685, Note_on_c, 0, 62, 28
1, 685, Note_on_c, 0, 71, 46
1, 696, Note_on_c, 0, 67, 25
1, 713, Note_on_c, 0, 55, 20
1, 713, Note_on_c, 0, 43, 16
1, 896, Control_c, 0, 64, 127
1, 911, Note_off_c, 0, 62, 64
1, 914, Note_off_c, 0, 55, 64
1, 921, Note_off_c, 0, 71, 64
1, 944, Note_off_c, 0, 67, 64
1, 944, Note_on_c, 0, 74, 40
1, 974, Note_off_c, 0, 43, 64
1, 1075, Note_off_c, 0, 74, 64
1, 1153, Note_on_c, 0, 66, 30
1, 1156, Note_on_c, 0, 72, 47
1, 1245, Note_off_c, 0, 72, 64
1, 1266, Note_off_c, 0, 66, 64
1, 1376, Control_c, 0, 64, 0
1, 1376, Note_on_c, 0, 72, 47
1, 1395, Note_on_c, 0, 40, 41
1, 1398, Note_on_c, 0, 67, 36
1, 1403, Note_on_c, 0, 64, 25
1, 1403, Note_on_c, 0, 52, 34
1, 1481, Note_off_c, 0, 64, 64
1, 1531, Control_c, 0, 64, 127
1, 1545, Note_off_c, 0, 67, 64
1, 1568, Note_off_c, 0, 52, 64
1, 1609, Note_on_c, 0, 76, 55
1, 1621, Note_off_c, 0, 72, 64
1, 1632, Note_off_c, 0, 40, 64
1, 1766, Note_off_c, 0, 76, 64
1, 1818, Note_on_c, 0, 74, 65
1, 1822, Note_on_c, 0, 69, 36
1, 1857, Note_off_c, 0, 74, 64
1, 1875, Note_off_c, 0, 69, 64
1, 2035, Control_c, 0, 64, 0
1, 2044, Note_on_c, 0, 67, 46
1, 2044, Note_on_c, 0, 74, 62
1, 2053, Note_on_c, 0, 47, 28
1, 2067, Note_on_c, 0, 35, 29
1, 2067, Note_on_c, 0, 71, 41
1, 2201, Note_off_c, 0, 35, 64
1, 2201, Control_c, 0, 64, 127
1, 2220, Note_off_c, 0, 71, 64
1, 2226, Note_off_c, 0, 67, 64
1, 2261, Note_off_c, 0, 47, 64
1, 2278, Note_off_c, 0, 74, 64
1, 2278, Note_on_c, 0, 79, 65
1, 2412, Note_off_c, 0, 79, 64
1, 2488, Note_on_c, 0, 78, 66
1, 2503, Control_c, 0, 64, 0
1, 2503, Note_on_c, 0, 69, 35
1, 2524, Note_on_c, 0, 40, 44
1, 2577, Note_off_c, 0, 40, 64
1, 2590, Note_off_c, 0, 69, 64
1, 2634, Control_c, 0, 64, 127
1, 2727, Note_off_c, 0, 78, 64
1, 2740, Note_on_c, 0, 79, 53
1, 2755, Note_on_c, 0, 71, 28
1, 2776, Note_on_c, 0, 64, 34
1, 2818, Note_on_c, 0, 52, 30
1, 2838, Note_off_c, 0, 71, 64
1, 2886, Note_off_c, 0, 64, 64
1, 2911, Note_off_c, 0, 52, 64
1, 2953, Note_off_c, 0, 79, 64
1, 2964, Note_on_c, 0, 74, 46
1, 3003, Note_off_c, 0, 74, 64
1, 3189, Note_on_c, 0, 71, 55
1, 3197, Note_on_c, 0, 67, 31
1, 3253, Note_off_c, 0, 67, 64
1, 3337, Note_off_c, 0, 71, 64
1, 3420, Note_on_c, 0, 67, 48
1, 3424, Control_c, 0, 64, 0
1, 3434, Note_on_c, 0, 59, 25
1, 3442, Note_on_c, 0, 28, 15
1, 3448, Note_on_c, 0, 64, 28
1, 3451, Note_on_c, 0, 40, 29
1, 3573, Note_off_c, 0, 59, 64
1, 3593, Control_c, 0, 64, 127
1, 3601, Note_off_c, 0, 28, 64
1, 3607, Note_off_c, 0, 64, 64
1, 3641, Note_on_c, 0, 69, 43
1, 3657, Note_off_c, 0, 40, 64
1, 3680, Note_off_c, 0, 67, 64
1, 3791, Note_off_c, 0, 69, 64
1, 3872, Note_on_c, 0, 71, 57
1, 3877, Note_on_c, 0, 62, 34
1, 3922, Note_off_c, 0, 62, 64
1, 3925, Note_off_c, 0, 71, 64
1, 4095, Control_c, 0, 64, 0
1, 4103, Note_on_c, 0, 72, 52
1, 4116, Note_on_c, 0, 33, 27
1, 4120, Note_on_c, 0, 64, 29
1, 4126, Note_on_c, 0, 45, 17
1, 4289, Control_c, 0, 64, 127
1, 4314, Note_on_c, 0, 74, 67
1, 4321, Note_off_c, 0, 64, 64
1, 4337, Note_off_c, 0, 72, 64
1, 4356, Note_off_c, 0, 74, 64
1, 4392, Note_off_c, 0, 45, 64
1, 4392, Note_off_c, 0, 33, 64
1, 4484, Note_on_c, 0, 73, 11
1, 4545, Note_on_c, 0, 66, 39
1, 4554, Note_on_c, 0, 76, 43
1, 4565, Note_off_c, 0, 73, 64
1, 4623, Note_off_c, 0, 76, 64
1, 4632, Note_off_c, 0, 66, 64
1, 4793, Note_on_c, 0, 74, 38
1, 4800, Note_on_c, 0, 67, 28
1, 4813, Note_on_c, 0, 62, 20
1, 4833, Note_on_c, 0, 35, 25
1, 4836, Note_on_c, 0, 47, 13
1, 4839, Control_c, 0, 64, 0
1, 4970, Note_off_c, 0, 62, 64
1, 5006, Control_c, 0, 64, 127
1, 5013, Note_on_c, 0, 72, 47
1, 5019, Note_off_c, 0, 74, 64
1, 5059, Note_off_c, 0, 72, 64
1, 5078, Note_off_c, 0, 67, 64
1, 5097, Note_off_c, 0, 47, 64
1, 5112, Note_off_c, 0, 35, 64
1, 5226, Note_on_c, 0, 71, 56
1, 5234, Note_on_c, 0, 62, 40
1, 5290, Note_off_c, 0, 62, 64
1, 5340, Note_off_c, 0, 71, 64
1, 5451, Control_c, 0, 64, 0
1, 5457, Note_on_c, 0, 69, 39
1, 5460, Note_on_c, 0, 60, 42
1, 5476, Note_on_c, 0, 48, 19
1, 5481, Note_on_c, 0, 36, 22
1, 5498, Note_on_c, 0, 64, 24
1, 5574, Note_off_c, 0, 64, 64
1, 5654, Control_c, 0, 64, 127
1, 5677, Note_off_c, 0, 60, 64
1, 5677, Note_on_c, 0, 71, 50
1, 5705, Note_off_c, 0, 48, 64
1, 5715, Note_off_c, 0, 69, 64
1, 5718, Note_off_c, 0, 71, 64
1, 5733, Note_off_c, 0, 36, 64
1, 5881, Note_on_c, 0, 67, 45
1, 5896, Note_on_c, 0, 59, 30
1, 5947, Note_off_c, 0, 59, 64
1, 5950, Note_off_c, 0, 67, 64
1, 6086, Control_c, 0, 64, 0
1, 6086, Note_on_c, 0, 66, 42
1, 6106, Note_on_c, 0, 57, 32
1, 6117, Note_on_c, 0, 50, 24
1, 6117, Note_on_c, 0, 38, 23
1, 6134, Note_on_c, 0, 60, 18
1, 6286, Note_off_c, 0, 60, 64
1, 6301, Control_c, 0, 64, 127
1, 6328, Note_off_c, 0, 57, 64
1, 6328, Note_on_c, 0, 67, 41
1, 6332, Note_off_c, 0, 50, 64
1, 6353, Note_off_c, 0, 38, 64
1, 6364, Note_off_c, 0, 66, 64
1, 6379, Note_off_c, 0, 67, 64
1, 6540, Note_on_c, 0, 69, 32
1, 6549, Note_on_c, 0, 62, 30
1, 6610, Note_off_c, 0, 62, 64
1, 6647, Note_off_c, 0, 69, 64
1, 6769, Control_c, 0, 64, 0
1, 6775, Note_on_c, 0, 62, 35
1, 6775, Note_on_c, 0, 54, 26
1, 6778, Note_on_c, 0, 57, 29
1, 6791, Note_on_c, 0, 42, 18
1, 6959, Control_c, 0, 64, 127
1, 6966, Note_off_c, 0, 57, 64
1, 6992, Note_off_c, 0, 54, 64
1, 7005, Note_on_c, 0, 66, 41
1, 7020, Note_off_c, 0, 62, 64
1, 7098, Note_off_c, 0, 66, 64
1, 7119, Note_off_c, 0, 42, 64
1, 7218, Note_on_c, 0, 69, 39
1, 7232, Note_on_c, 0, 67, 28
1, 7289, Note_off_c, 0, 67, 64
1, 7342, Note_off_c, 0, 69, 64
1, 7440, Control_c, 0, 64, 0
1, 7466, Note_on_c, 0, 72, 30
1, 7471, Note_on_c, 0, 66, 18
1, 7490, Note_on_c, 0, 50, 16
1, 7490, Note_on_c, 0, 38, 18
1, 7655, Control_c, 0, 64, 127
1, 7708, Note_off_c, 0, 38, 64
1, 7711, Note_on_c, 0, 71, 42
1, 7747, Note_off_c, 0, 66, 64
1, 7752, Note_off_c, 0, 72, 64
1, 7757, Note_off_c, 0, 50, 64
1, 7785, Note_off_c, 0, 71, 64
1, 7928, Note_on_c, 0, 69, 33
1, 7933, Note_on_c, 0, 66, 27
1, 8009, Note_off_c, 0, 66, 64
1, 8136, Control_c, 0, 64, 0
1, 8142, Note_off_c, 0, 69, 64
1, 8175, Note_on_c, 0, 71, 44
1, 8175, Note_on_c, 0, 55, 30
1, 8179, Note_on_c, 0, 67, 24
1, 8184, Note_on_c, 0, 43, 25
1, 8187, Note_on_c, 0, 62, 21
1, 8278, Note_off_c, 0, 62, 64
1, 8296, Note_off_c, 0, 67, 64
1, 8315, Control_c, 0, 64, 127
1, 8345, Note_off_c, 0, 55, 64
1, 8360, Note_off_c, 0, 43, 64
1, 8429, Note_on_c, 0, 67, 40
1, 8445, Note_off_c, 0, 71, 64
1, 8540, Note_off_c, 0, 67, 64
1, 8655, Note_on_c, 0, 69, 47
1, 8668, Note_on_c, 0, 66, 29
1, 8719, Note_off_c, 0, 66, 64
1, 8867, Note_on_c, 0, 71, 61
1, 8867, Note_on_c, 0, 67, 48
1, 8878, Control_c, 0, 64, 0
1, 8881, Note_off_c, 0, 69, 64
1, 8884, Note_on_c, 0, 55, 25
1, 8897, Note_on_c, 0, 40, 27
1, 9058, Control_c, 0, 64, 127
1, 9080, Note_off_c, 0, 71, 64
1, 9080, Note_off_c, 0, 55, 64
1, 9097, Note_on_c, 0, 74, 60
1, 9195, Note_off_c, 0, 40, 64
1, 9207, Note_off_c, 0, 67, 64
1, 9268, Note_off_c, 0, 74, 64
1, 9306, Note_on_c, 0, 66, 45
1, 9306, Note_on_c, 0, 72, 63
1, 9413, Note_off_c, 0, 72, 64
1, 9437, Note_off_c, 0, 66, 64
1, 9501, Control_c, 0, 64, 0
1, 9538, Note_on_c, 0, 72, 57
1, 9538, Note_on_c, 0, 64, 50
1, 9549, Note_on_c, 0, 48, 23
1, 9549, Note_on_c, 0, 67, 45
1, 9549, Note_on_c, 0, 36, 31
1, 9672, Note_off_c, 0, 64, 64
1, 9682, Control_c, 0, 64, 127
1, 9742, Note_off_c, 0, 67, 64
1, 9760, Note_on_c, 0, 76, 59
1, 9806, Note_off_c, 0, 72, 64
1, 9836, Note_off_c, 0, 48, 64
1, 9959, Note_off_c, 0, 36, 64
1, 9972, Note_on_c, 0, 74, 70
1, 9980, Note_on_c, 0, 69, 37
1, 9986, Note_off_c, 0, 76, 64
1, 10028, Note_off_c, 0, 74, 64
1, 10031, Note_off_c, 0, 69, 64
1, 10196, Control_c, 0, 64, 0
1, 10201, Note_on_c, 0, 67, 42
1, 10201, Note_on_c, 0, 74, 66
1, 10214, Note_on_c, 0, 35, 32
1, 10221, Note_on_c, 0, 71, 47
1, 10221, Note_on_c, 0, 47, 21
1, 10349, Note_off_c, 0, 35, 64
1, 10363, Control_c, 0, 64, 127
1, 10371, Note_off_c, 0, 71, 64
1, 10395, Note_off_c, 0, 47, 64
1, 10416, Note_off_c, 0, 67, 64
1, 10432, Note_on_c, 0, 79, 66
1, 10459, Note_off_c, 0, 74, 64
1, 10635, Note_on_c, 0, 78, 69
1, 10635, Note_on_c, 0, 40, 38
1, 10644, Note_on_c, 0, 69, 35
1, 10658, Note_off_c, 0, 79, 64
1, 10682, Note_off_c, 0, 40, 64
1, 10713, Note_off_c, 0, 69, 64
1, 10880, Note_on_c, 0, 79, 67
1, 10892, Control_c, 0, 64, 0
1, 10898, Note_off_c, 0, 78, 64
1, 10898, Note_on_c, 0, 71, 41
1, 10901, Note_on_c, 0, 64, 37
1, 10928, Note_on_c, 0, 52, 29
1, 10995, Note_off_c, 0, 71, 64
1, 11059, Control_c, 0, 64, 127
1, 11075, Note_off_c, 0, 64, 64
1, 11117, Note_on_c, 0, 74, 63
1, 11122, Note_off_c, 0, 79, 64
1, 11151, Note_off_c, 0, 52, 64
1, 11151, Note_off_c, 0, 74, 64
1, 11334, Note_on_c, 0, 71, 59
1, 11338, Note_on_c, 0, 67, 32
1, 11396, Note_off_c, 0, 67, 64
1, 11540, Note_off_c, 0, 71, 64
1, 11561, Note_on_c, 0, 67, 45
1, 11568, Note_on_c, 0, 38, 19
1, 11568, Note_on_c, 0, 59, 26
1, 11572, Note_on_c, 0, 50, 21
1, 11577, Note_on_c, 0, 64, 22
1, 11610, Control_c, 0, 64, 0
1, 11775, Note_off_c, 0, 59, 64
1, 11778, Control_c, 0, 64, 127
1, 11795, Note_on_c, 0, 69, 36
1, 11824, Note_off_c, 0, 67, 64
1, 11856, Note_off_c, 0, 64, 64
1, 11964, Note_off_c, 0, 69, 64
1, 12000, Note_off_c, 0, 50, 64
1, 12029, Note_on_c, 0, 67, 30
1, 12034, Note_on_c, 0, 71, 45
1, 12047, Note_off_c, 0, 38, 64
1, 12104, Note_off_c, 0, 67, 64
1, 12187, Note_off_c, 0, 71, 64
1, 12257, Control_c, 0, 64, 0
1, 12276, Note_on_c, 0, 60, 29
1, 12276, Note_on_c, 0, 64, 42
1, 12284, Note_on_c, 0, 48, 20
1, 12284, Note_on_c, 0, 69, 25
1, 12288, Note_on_c, 0, 36, 27
1, 12379, Note_off_c, 0, 60, 64
1, 12398, Note_off_c, 0, 64, 64
1, 12402, Control_c, 0, 64, 127
1, 12419, Note_off_c, 0, 69, 64
1, 12505, Note_on_c, 0, 74, 60
1, 12613, Note_off_c, 0, 74, 64
1, 12638, Note_off_c, 0, 48, 64
1, 12660, Note_off_c, 0, 36, 64
1, 12732, Note_on_c, 0, 66, 29
1, 12741, Note_on_c, 0, 72, 57
1, 12792, Note_off_c, 0, 66, 64
1, 12802, Note_off_c, 0, 72, 64
1, 12967, Note_on_c, 0, 71, 54
1, 12976, Control_c, 0, 64, 0
1, 12983, Note_on_c, 0, 64, 31
1, 12989, Note_on_c, 0, 67, 20
1, 12994, Note_on_c, 0, 37, 19
1, 12994, Note_on_c, 0, 49, 19
1, 13168, Control_c, 0, 64, 127
1, 13192, Note_on_c, 0, 69, 34
1, 13201, Note_off_c, 0, 64, 64
1, 13215, Note_off_c, 0, 71, 64
1, 13226, Note_off_c, 0, 67, 64
1, 13245, Note_off_c, 0, 69, 64
1, 13349, Note_off_c, 0, 49, 64
1, 13384, Note_off_c, 0, 37, 64
1, 13421, Note_on_c, 0, 67, 44
1, 13435, Note_on_c, 0, 64, 30
1, 13486, Note_off_c, 0, 64, 64
1, 13561, Note_off_c, 0, 67, 64
1, 13647, Control_c, 0, 64, 0
1, 13653, Note_on_c, 0, 62, 46
1, 13661, Note_on_c, 0, 57, 25
1, 13681, Note_on_c, 0, 50, 17
1, 13681, Note_on_c, 0, 38, 17
1, 13839, Control_c, 0, 64, 127
1, 13869, Note_off_c, 0, 57, 64
1, 13881, Note_off_c, 0, 50, 64
1, 13892, Note_on_c, 0, 67, 40
1, 13950, Note_off_c, 0, 62, 64
1, 13956, Note_off_c, 0, 67, 64
1, 13959, Note_off_c, 0, 38, 64
1, 14111, Note_on_c, 0, 66, 32
1, 14135, Note_on_c, 0, 60, 19
1, 14192, Note_off_c, 0, 66, 64
1, 14198, Note_off_c, 0, 60, 64
1, 14357, Note_on_c, 0, 67, 42
1, 14368, Control_c, 0, 64, 0
1, 14368, Note_on_c, 0, 43, 20
1, 14373, Note_on_c, 0, 59, 27
1, 14376, Note_on_c, 0, 31, 26
1, 14383, Note_on_c, 0, 62, 28
1, 14518, Note_off_c, 0, 59, 64
1, 14547, Control_c, 0, 64, 127
1, 14558, Note_off_c, 0, 62, 64
1, 14575, Note_on_c, 0, 71, 69
1, 14610, Note_off_c, 0, 67, 64
1, 14616, Note_off_c, 0, 71, 64
1, 14780, Note_on_c, 0, 74, 52
1, 14780, Note_on_c, 0, 67, 44
1, 14856, Note_off_c, 0, 67, 64
1, 14884, Note_off_c, 0, 74, 64
1, 14993, Note_on_c, 0, 79, 58
1, 15012, Note_on_c, 0, 71, 47
1, 15067, Note_off_c, 0, 31, 64
1, 15142, Note_off_c, 0, 79, 64
1, 15142, Note_off_c, 0, 43, 64
1, 15162, Note_off_c, 0, 71, 64
1, 15224, Note_on_c, 0, 67, 40
1, 15227, Note_on_c, 0, 74, 28
1, 15279, Note_off_c, 0, 67, 64
1, 15279, Note_off_c, 0, 74, 64
1, 15435, Note_on_c, 0, 71, 47
1, 15435, Note_on_c, 0, 62, 35
1, 15441, Note_on_c, 0, 55, 36
1, 15491, Note_off_c, 0, 62, 64
1, 15500, Note_off_c, 0, 55, 64
1, 15505, Note_off_c, 0, 71, 64
1, 15670, Note_on_c, 0, 59, 27
1, 15683, Note_on_c, 0, 50, 48
1, 15686, Note_on_c, 0, 67, 36
1, 15741, Note_off_c, 0, 59, 64
1, 15842, Note_off_c, 0, 67, 64
1, 15845, Note_off_c, 0, 50, 64
1, 15883, Note_on_c, 0, 62, 36
1, 15883, Note_on_c, 0, 71, 39
1, 15931, Note_off_c, 0, 71, 64
1, 15931, Note_off_c, 0, 62, 64
1, 16120, Note_on_c, 0, 74, 48
1, 16140, Note_on_c, 0, 67, 15
1, 16156, Note_off_c, 0, 74, 64
1, 16187, Note_off_c, 0, 67, 64
1, 16335, Note_on_c, 0, 31, 34
1, 16379, Note_on_c, 0, 71, 28
1, 16390, Note_off_c, 0, 31, 64
1, 16390, Note_on_c, 0, 67, 8
1, 16435, Note_off_c, 0, 67, 64
1, 16435, Note_off_c, 0, 71, 64
1, 16645, Note_on_c, 0, 79, 56
1, 16692, Note_on_c, 0, 59, 79
1, 16700, Note_on_c, 0, 71, 25
1, 16890, Note_off_c, 0, 71, 64
1, 17408, Note_off_c, 0, 79, 64
1, 17408, Note_on_c, 0, 54, 62
1, 17806, Note_off_c, 0, 54, 64
1, 17929, Note_off_c, 0, 59, 64
1, 18057, Note_on_c, 0, 60, 82
1, 18060, Note_on_c, 0, 72, 44
1, 18079, Note_on_c, 0, 64, 25
1, 18090, Note_on_c, 0, 52, 42
1, 18103, Note_on_c, 0, 67, 7
1, 18103, Note_on_c, 0, 55, 22
1, 18274, Control_c, 0, 64, 0
1, 18489, Control_c, 0, 64, 127
1, 18552, Note_off_c, 0, 64, 64
1, 18552, Note_off_c, 0, 55, 64
1, 18581, Note_off_c, 0, 67, 64
1, 18617, Note_off_c, 0, 60, 64
1, 18628, Note_off_c, 0, 72, 64
1, 18628, Note_off_c, 0, 52, 64
1, 18747, Note_on_c, 0, 62, 71
1, 18747, Note_on_c, 0, 74, 66
1, 18753, Note_on_c, 0, 69, 35
1, 18773, Note_on_c, 0, 54, 36
1, 18787, Note_on_c, 0, 57, 14
1, 18922, Control_c, 0, 64, 0
1, 19173, Control_c, 0, 64, 127
1, 19408, Note_off_c, 0, 57, 64
1, 19414, Note_off_c, 0, 54, 64
1, 19471, Note_on_c, 0, 67, 32
1, 19502, Note_on_c, 0, 55, 18
1, 19511, Note_on_c, 0, 52, 34
1, 19592, Control_c, 0, 64, 0
1, 19658, Note_off_c, 0, 69, 64
1, 19856, Control_c, 0, 64, 127
1, 19903, Note_off_c, 0, 52, 64
1, 19915, Note_off_c, 0, 62, 64
1, 19932, Note_off_c, 0, 55, 64
1, 19951, Note_off_c, 0, 74, 64
1, 19962, Note_off_c, 0, 67, 64
1, 20143, Note_on_c, 0, 74, 64
1, 20143, Note_on_c, 0, 66, 39
1, 20154, Note_on_c, 0, 62, 70
1, 20166, Note_on_c, 0, 50, 42
1, 20171, Note_on_c, 0, 59, 42
1, 20396, Control_c, 0, 64, 0
1, 20541, Note_off_c, 0, 59, 64
1, 20563, Control_c, 0, 64, 127
1, 20613, Note_off_c, 0, 50, 64
1, 20633, Note_off_c, 0, 74, 64
1, 20664, Note_off_c, 0, 62, 64
1, 20664, Note_off_c, 0, 66, 64
1, 20809, Note_on_c, 0, 72, 45
1, 20814, Note_on_c, 0, 60, 69
1, 20823, Note_on_c, 0, 67, 32
1, 20836, Note_on_c, 0, 59, 42
1, 20850, Note_on_c, 0, 52, 30
1, 20914, Note_off_c, 0, 67, 64
1, 20946, Control_c, 0, 64, 0
1, 21018, Note_on_c, 0, 67, 2
1, 21233, Control_c, 0, 64, 127
1, 21321, Note_off_c, 0, 59, 64
1, 21354, Note_off_c, 0, 52, 64
1, 21488, Note_on_c, 0, 54, 34
1, 21499, Note_off_c, 0, 67, 64
1, 21499, Note_on_c, 0, 62, 28
1, 21506, Note_on_c, 0, 57, 33
1, 21570, Control_c, 0, 64, 0
1, 21942, Control_c, 0, 64, 127
1, 21960, Note_off_c, 0, 62, 64
1, 21998, Note_off_c, 0, 57, 64
1, 22004, Note_off_c, 0, 54, 64
1, 22027, Note_off_c, 0, 60, 64
1, 22204, Note_on_c, 0, 71, 44
1, 22215, Note_on_c, 0, 62, 27
1, 22229, Note_on_c, 0, 59, 34
1, 22237, Note_on_c, 0, 67, 19
1, 22246, Note_on_c, 0, 55, 27
1, 22269, Note_off_c, 0, 72, 64
1, 22385, Control_c, 0, 64, 0
1, 22517, Note_off_c, 0, 67, 64
1, 22602, Control_c, 0, 64, 127
1, 22602, Note_off_c, 0, 62, 64
1, 22662, Note_off_c, 0, 71, 64
1, 22662, Note_off_c, 0, 55, 64
1, 22678, Note_off_c, 0, 59, 64
1, 22895, Note_on_c, 0, 69, 32
1, 22906, Note_on_c, 0, 66, 12
1, 22906, Note_on_c, 0, 57, 38
1, 22918, Note_on_c, 0, 62, 15
1, 22943, Note_on_c, 0, 50, 22
1, 22984, Control_c, 0, 64, 0
1, 23007, Note_off_c, 0, 62, 64
1, 23141, Note_on_c, 0, 62, 41
1, 23158, Note_off_c, 0, 66, 64
1, 23199, Control_c, 0, 64, 127
1, 23324, Note_off_c, 0, 57, 64
1, 23324, Note_off_c, 0, 62, 64
1, 23332, Note_off_c, 0, 50, 64
1, 23361, Note_on_c, 0, 64, 40
1, 23392, Note_off_c, 0, 69, 64
1, 23558, Note_on_c, 0, 66, 37
1, 23558, Control_c, 0, 64, 0
1, 23569, Note_on_c, 0, 57, 35
1, 23569, Note_on_c, 0, 62, 34
1, 23577, Note_off_c, 0, 64, 64
1, 23577, Note_on_c, 0, 50, 31
1, 23726, Note_off_c, 0, 57, 64
1, 23739, Note_off_c, 0, 62, 64
1, 23739, Control_c, 0, 64, 127
1, 23748, Note_off_c, 0, 50, 64
1, 23778, Note_on_c, 0, 69, 31
1, 23793, Note_off_c, 0, 66, 64
1, 23971, Note_off_c, 0, 69, 64
1, 23975, Note_on_c, 0, 38, 30
1, 23975, Note_on_c, 0, 67, 43
1, 23975, Note_on_c, 0, 57, 36
1, 23992, Note_on_c, 0, 50, 31
1, 23992, Note_on_c, 0, 64, 36
1, 24032, Note_off_c, 0, 57, 64
1, 24038, Note_off_c, 0, 38, 64
1, 24048, Note_off_c, 0, 50, 64
1, 24048, Note_off_c, 0, 64, 64
1, 24088, Note_off_c, 0, 67, 64
1, 24205, Note_on_c, 0, 66, 30
1, 24208, Note_on_c, 0, 69, 30
1, 24208, Note_on_c, 0, 50, 39
1, 24215, Note_on_c, 0, 62, 39
1, 24227, Note_on_c, 0, 38, 34
1, 24227, Control_c, 0, 64, 0
1, 24382, Note_off_c, 0, 50, 64
1, 24399, Control_c, 0, 64, 127
1, 24411, Note_off_c, 0, 62, 64
1, 24415, Note_off_c, 0, 38, 64
1, 24433, Note_on_c, 0, 72, 48
1, 24433, Note_off_c, 0, 69, 64
1, 24483, Note_off_c, 0, 66, 64
1, 24617, Note_off_c, 0, 72, 64
1, 24623, Note_on_c, 0, 71, 54
1, 24630, Note_on_c, 0, 62, 44
1, 24630, Note_on_c, 0, 67, 41
1, 24634, Note_on_c, 0, 50, 34
1, 24637, Note_on_c, 0, 38, 35
1, 24681, Note_off_c, 0, 38, 64
1, 24692, Note_off_c, 0, 50, 64
1, 24697, Note_off_c, 0, 67, 64
1, 24817, Control_c, 0, 64, 0
1, 24862, Note_on_c, 0, 72, 49
1, 24862, Note_on_c, 0, 66, 25
1, 24865, Note_off_c, 0, 71, 64
1, 24865, Note_on_c, 0, 69, 30
1, 24873, Note_on_c, 0, 38, 35
1, 24901, Note_on_c, 0, 26, 25
1, 24945, Note_off_c, 0, 69, 64
1, 25069, Control_c, 0, 64, 127
1, 25074, Note_on_c, 0, 69, 40
1, 25098, Note_off_c, 0, 26, 64
1, 25107, Note_off_c, 0, 62, 64
1, 25107, Note_off_c, 0, 38, 64
1, 25127, Note_off_c, 0, 66, 64
1, 25199, Note_off_c, 0, 72, 64
1, 25293, Note_on_c, 0, 66, 32
1, 25302, Note_off_c, 0, 69, 64
1, 25500, Note_off_c, 0, 66, 64
1, 25511, Note_on_c, 0, 62, 36
1, 25617, Note_off_c, 0, 62, 64
1, 25723, Note_on_c, 0, 66, 28
1, 25942, Note_on_c, 0, 69, 31
1, 25965, Note_on_c, 0, 62, 30
1, 25995, Note_off_c, 0, 66, 64
1, 26051, Note_off_c, 0, 62, 64
1, 26183, Control_c, 0, 64, 0
1, 26196, Note_on_c, 0, 72, 32
1, 26202, Note_on_c, 0, 57, 28
1, 26202, Note_on_c, 0, 66, 18
1, 26207, Note_on_c, 0, 62, 22
1, 26207, Note_on_c, 0, 50, 20
1, 26218, Note_off_c, 0, 69, 64
1, 26328, Control_c, 0, 64, 127
1, 26352, Note_off_c, 0, 62, 64
1, 26375, Note_off_c, 0, 50, 64
1, 26438, Note_off_c, 0, 57, 64
1, 26438, Note_on_c, 0, 71, 34
1, 26464, Note_off_c, 0, 72, 64
1, 26488, Note_off_c, 0, 66, 64
1, 26597, Note_off_c, 0, 71, 64
1, 26662, Note_on_c, 0, 69, 31
1, 26665, Note_on_c, 0, 62, 34
1, 26668, Note_on_c, 0, 66, 12
1, 26704, Note_on_c, 0, 50, 3
1, 26725, Note_off_c, 0, 62, 64
1, 26747, Note_off_c, 0, 66, 64
1, 26824, Note_off_c, 0, 50, 64
1, 26904, Note_off_c, 0, 69, 64
1, 26912, Note_on_c, 0, 71, 39
1, 26924, Note_on_c, 0, 62, 9
1, 26924, Note_on_c, 0, 59, 63
1, 26962, Note_on_c, 0, 55, 36
1, 26962, Note_off_c, 0, 62, 64
1, 27132, Control_c, 0, 64, 0
1, 27163, Note_on_c, 0, 67, 44
1, 27299, Control_c, 0, 64, 127
1, 27350, Note_on_c, 0, 69, 42
1, 27370, Note_off_c, 0, 71, 64
1, 27370, Note_off_c, 0, 67, 64
1, 27589, Note_on_c, 0, 71, 49
1, 27597, Note_on_c, 0, 67, 31
1, 27611, Note_on_c, 0, 54, 46
1, 27623, Note_off_c, 0, 69, 64
1, 27672, Note_off_c, 0, 55, 64
1, 27826, Note_on_c, 0, 74, 50
1, 27829, Note_off_c, 0, 71, 64
1, 27862, Control_c, 0, 64, 0
1, 27982, Control_c, 0, 64, 127
1, 28030, Note_off_c, 0, 74, 64
1, 28041, Note_on_c, 0, 72, 45
1, 28051, Note_on_c, 0, 66, 31
1, 28105, Note_off_c, 0, 67, 64
1, 28149, Note_off_c, 0, 72, 64
1, 28161, Note_off_c, 0, 66, 64
1, 28172, Note_off_c, 0, 59, 64
1, 28299, Note_on_c, 0, 72, 42
1, 28325, Note_on_c, 0, 64, 24
1, 28338, Note_on_c, 0, 60, 81
1, 28341, Note_on_c, 0, 67, 19
1, 28358, Note_off_c, 0, 54, 64
1, 28369, Note_on_c, 0, 52, 50
1, 28389, Control_c, 0, 64, 0
1, 28466, Note_off_c, 0, 64, 64
1, 28497, Note_off_c, 0, 67, 64
1, 28520, Control_c, 0, 64, 127
1, 28570, Note_on_c, 0, 76, 43
1, 28592, Note_off_c, 0, 52, 64
1, 28615, Note_off_c, 0, 72, 64
1, 28765, Note_on_c, 0, 69, 30
1, 28765, Note_on_c, 0, 74, 48
1, 28774, Note_off_c, 0, 76, 64
1, 28807, Note_off_c, 0, 74, 64
1, 28831, Note_off_c, 0, 69, 64
1, 28838, Note_off_c, 0, 60, 64
1, 28848, Note_on_c, 0, 47, 44
1, 28993, Note_on_c, 0, 74, 61
1, 28999, Note_on_c, 0, 71, 38
1, 28999, Note_on_c, 0, 67, 44
1, 29005, Note_on_c, 0, 62, 75
1, 29023, Control_c, 0, 64, 0
1, 29175, Note_off_c, 0, 71, 64
1, 29216, Control_c, 0, 64, 127
1, 29250, Note_on_c, 0, 79, 60
1, 29261, Note_off_c, 0, 67, 64
1, 29264, Note_off_c, 0, 74, 64
1, 29285, Note_off_c, 0, 62, 64
1, 29361, Note_off_c, 0, 47, 64
1, 29455, Note_on_c, 0, 78, 60
1, 29462, Note_off_c, 0, 79, 64
1, 29472, Note_on_c, 0, 69, 27
1, 29539, Note_off_c, 0, 69, 64
1, 29600, Note_off_c, 0, 78, 64
1, 29681, Note_on_c, 0, 79, 65
1, 29693, Note_on_c, 0, 67, 29
1, 29706, Note_on_c, 0, 35, 33
1, 29760, Note_off_c, 0, 35, 64
1, 29793, Note_off_c, 0, 67, 64
1, 29866, Note_off_c, 0, 79, 64
1, 29915, Note_on_c, 0, 74, 63
1, 29951, Note_off_c, 0, 74, 64
1, 30127, Note_on_c, 0, 66, 40
1, 30140, Note_on_c, 0, 71, 59
1, 30264, Note_off_c, 0, 66, 64
1, 30347, Note_on_c, 0, 67, 42
1, 30364, Note_on_c, 0, 64, 28
1, 30364, Note_on_c, 0, 52, 47
1, 30364, Note_on_c, 0, 59, 71
1, 30372, Note_off_c, 0, 71, 64
1, 30403, Control_c, 0, 64, 0
1, 30608, Note_on_c, 0, 69, 39
1, 30634, Note_off_c, 0, 52, 64
1, 30642, Note_off_c, 0, 67, 64
1, 30654, Control_c, 0, 64, 127
1, 30710, Note_off_c, 0, 64, 64
1, 30806, Note_off_c, 0, 69, 64
1, 30838, Note_on_c, 0, 71, 44
1, 30862, Note_on_c, 0, 67, 14
1, 30879, Note_off_c, 0, 59, 64
1, 30919, Note_off_c, 0, 71, 64
1, 30932, Note_off_c, 0, 67, 64
1, 31012, Note_on_c, 0, 48, 6
1, 31065, Note_on_c, 0, 69, 33
1, 31074, Note_on_c, 0, 64, 38
1, 31096, Note_on_c, 0, 57, 38
1, 31133, Control_c, 0, 64, 0
1, 31345, Note_on_c, 0, 74, 43
1, 31373, Control_c, 0, 64, 127
1, 31389, Note_off_c, 0, 48, 64
1, 31402, Note_off_c, 0, 74, 64
1, 31481, Note_off_c, 0, 57, 64
1, 31509, Note_on_c, 0, 59, 53
1, 31551, Note_on_c, 0, 72, 39
1, 31551, Note_off_c, 0, 64, 64
1, 31556, Note_on_c, 0, 66, 19
1, 31573, Note_off_c, 0, 69, 64
1, 31606, Note_off_c, 0, 59, 64
1, 31606, Note_off_c, 0, 72, 64
1, 31655, Note_off_c, 0, 66, 64
1, 31661, Note_on_c, 0, 60, 64
1, 31756, Note_off_c, 0, 60, 64
1, 31810, Note_on_c, 0, 71, 41
1, 31835, Note_on_c, 0, 62, 14
1, 31849, Note_on_c, 0, 59, 61
1, 31896, Note_on_c, 0, 50, 15
1, 31912, Control_c, 0, 64, 0
1, 32080, Control_c, 0, 64, 127
1, 32096, Note_on_c, 0, 69, 35
1, 32125, Note_off_c, 0, 62, 64
1, 32128, Note_off_c, 0, 71, 64
1, 32150, Note_off_c, 0, 69, 64
1, 32164, Note_off_c, 0, 59, 64
1, 32194, Note_off_c, 0, 50, 64
1, 32311, Note_on_c, 0, 67, 46
1, 32322, Note_on_c, 0, 64, 33
1, 32369, Note_off_c, 0, 64, 64
1, 32394, Note_off_c, 0, 67, 64
1, 32536, Note_on_c, 0, 57, 54
1, 32556, Note_on_c, 0, 62, 33
1, 32562, Note_on_c, 0, 38, 15
1, 32570, Note_on_c, 0, 50, 11
1, 32595, Control_c, 0, 64, 0
1, 32763, Control_c, 0, 64, 127
1, 32768, Note_off_c, 0, 50, 64
1, 32790, Note_on_c, 0, 67, 42
1, 32790, Note_off_c, 0, 62, 64
1, 32823, Note_off_c, 0, 38, 64
1, 32851, Note_off_c, 0, 67, 64
1, 32908, Note_off_c, 0, 57, 64
1, 33024, Note_on_c, 0, 66, 41
1, 33038, Note_on_c, 0, 60, 30
1, 33119, Note_off_c, 0, 60, 64
1, 33135, Note_off_c, 0, 66, 64
1, 33331, Note_on_c, 0, 55, 52
1, 33339, Control_c, 0, 64, 0
1, 33348, Note_on_c, 0, 67, 40
1, 33348, Note_on_c, 0, 31, 29
1, 33353, Note_on_c, 0, 43, 29
1, 33358, Note_on_c, 0, 59, 24
1, 33373, Note_on_c, 0, 62, 18
1, 33500, Note_off_c, 0, 62, 64
1, 33500, Note_off_c, 0, 31, 64
1, 33506, Control_c, 0, 64, 127
1, 33514, Note_off_c, 0, 43, 64
1, 33514, Note_off_c, 0, 59, 64
1, 33514, Note_off_c, 0, 55, 64
1, 33537, Note_off_c, 0, 67, 64
1, 33654, Note_on_c, 0, 71, 46
1, 33715, Note_off_c, 0, 71, 64
1, 33868, Note_on_c, 0, 69, 40
1, 34097, Note_off_c, 0, 69, 64
1, 34100, Note_on_c, 0, 71, 43
1, 34100, Note_on_c, 0, 62, 32
1, 34103, Note_on_c, 0, 67, 28
1, 34121, Note_on_c, 0, 55, 22
1, 34124, Note_on_c, 0, 43, 18
1, 34191, Note_off_c, 0, 62, 64
1, 34191, Note_off_c, 0, 67, 64
1, 34217, Note_off_c, 0, 55, 64
1, 34245, Note_off_c, 0, 71, 64
1, 34263, Note_off_c, 0, 43, 64
1, 34328, Note_on_c, 0, 74, 53
1, 34475, Note_off_c, 0, 74, 64
1, 34536, Note_on_c, 0, 72, 56
1, 34540, Note_on_c, 0, 66, 34
1, 34628, Note_off_c, 0, 72, 64
1, 34632, Note_off_c, 0, 66, 64
1, 34752, Control_c, 0, 64, 0
1, 34752, Note_on_c, 0, 52, 42
1, 34756, Note_on_c, 0, 72, 48
1, 34759, Note_on_c, 0, 64, 45
1, 34763, Note_on_c, 0, 40, 47
1, 34768, Note_on_c, 0, 67, 44
1, 34863, Note_off_c, 0, 64, 64
1, 34891, Note_off_c, 0, 52, 64
1, 34897, Control_c, 0, 64, 127
1, 34918, Note_off_c, 0, 67, 64
1, 34927, Note_off_c, 0, 40, 64
1, 34988, Note_on_c, 0, 76, 54
1, 35025, Note_off_c, 0, 72, 64
1, 35202, Note_on_c, 0, 74, 69
1, 35214, Note_on_c, 0, 69, 34
1, 35214, Note_off_c, 0, 76, 64
1, 35264, Note_off_c, 0, 74, 64
1, 35269, Note_off_c, 0, 69, 64
1, 35423, Control_c, 0, 64, 0
1, 35433, Note_on_c, 0, 74, 70
1, 35437, Note_on_c, 0, 67, 44
1, 35448, Note_on_c, 0, 47, 32
1, 35448, Note_on_c, 0, 71, 42
1, 35459, Note_on_c, 0, 35, 41
1, 35585, Note_off_c, 0, 35, 64
1, 35601, Note_off_c, 0, 71, 64
1, 35601, Control_c, 0, 64, 127
1, 35634, Note_off_c, 0, 67, 64
1, 35637, Note_off_c, 0, 47, 64
1, 35668, Note_on_c, 0, 79, 64
1, 35676, Note_off_c, 0, 74, 64
1, 35865, Note_on_c, 0, 40, 57
1, 35865, Note_on_c, 0, 78, 70
1, 35876, Note_on_c, 0, 69, 42
1, 35876, Note_off_c, 0, 79, 64
1, 35901, Note_off_c, 0, 40, 64
1, 35940, Note_off_c, 0, 69, 64
1, 36091, Note_off_c, 0, 78, 64
1, 36105, Note_on_c, 0, 79, 73
1, 36117, Note_on_c, 0, 71, 52
1, 36117, Control_c, 0, 64, 0
1, 36131, Note_on_c, 0, 64, 40
1, 36139, Note_on_c, 0, 52, 53
1, 36259, Note_off_c, 0, 64, 64
1, 36263, Note_off_c, 0, 71, 64
1, 36263, Control_c, 0, 64, 127
1, 36334, Note_off_c, 0, 52, 64
1, 36347, Note_off_c, 0, 79, 64
1, 36347, Note_on_c, 0, 74, 67
1, 36379, Note_off_c, 0, 74, 64
1, 36550, Note_on_c, 0, 71, 62
1, 36550, Note_on_c, 0, 67, 48
1, 36606, Note_off_c, 0, 67, 64
1, 36730, Note_off_c, 0, 71, 64
1, 36760, Note_on_c, 0, 67, 58
1, 36766, Control_c, 0, 64, 0
1, 36774, Note_on_c, 0, 59, 28
1, 36779, Note_on_c, 0, 64, 36
1, 36787, Note_on_c, 0, 28, 17
1, 36791, Note_on_c, 0, 40, 37
1, 36904, Note_off_c, 0, 59, 64
1, 36933, Control_c, 0, 64, 127
1, 36947, Note_off_c, 0, 64, 64
1, 36947, Note_off_c, 0, 28, 64
1, 36983, Note_on_c, 0, 69, 50
1, 37002, Note_off_c, 0, 40, 64
1, 37032, Note_off_c, 0, 67, 64
1, 37161, Note_off_c, 0, 69, 64
1, 37184, Note_on_c, 0, 71, 64
1, 37192, Note_on_c, 0, 62, 42
1, 37222, Note_off_c, 0, 71, 64
1, 37234, Note_off_c, 0, 62, 64
1, 37252, Note_on_c, 0, 33, 33
1, 37309, Note_off_c, 0, 33, 64
1, 37408, Note_on_c, 0, 72, 66
1, 37412, Note_on_c, 0, 64, 57
1, 37426, Control_c, 0, 64, 0
1, 37434, Note_on_c, 0, 57, 34
1, 37451, Note_on_c, 0, 45, 40
1, 37606, Control_c, 0, 64, 127
1, 37631, Note_off_c, 0, 57, 64
1, 37642, Note_on_c, 0, 74, 75
1, 37663, Note_off_c, 0, 72, 64
1, 37684, Note_off_c, 0, 74, 64
1, 37702, Note_off_c, 0, 64, 64
1, 37712, Note_off_c, 0, 45, 64
1, 37849, Note_on_c, 0, 76, 68
1, 37854, Note_on_c, 0, 66, 45
1, 37930, Note_off_c, 0, 76, 64
1, 37963, Note_off_c, 0, 66, 64
1, 38072, Control_c, 0, 64, 0
1, 38076, Note_on_c, 0, 74, 66
1, 38085, Note_on_c, 0, 67, 37
1, 38085, Note_on_c, 0, 62, 33
1, 38088, Note_on_c, 0, 35, 32
1, 38088, Note_on_c, 0, 47, 24
1, 38264, Note_off_c, 0, 62, 64
1, 38287, Control_c, 0, 64, 127
1, 38298, Note_off_c, 0, 74, 64
1, 38308, Note_on_c, 0, 72, 52
1, 38354, Note_off_c, 0, 72, 64
1, 38370, Note_off_c, 0, 67, 64
1, 38389, Note_off_c, 0, 35, 64
1, 38456, Note_off_c, 0, 47, 64
1, 38515, Note_on_c, 0, 71, 53
1, 38526, Note_on_c, 0, 62, 42
1, 38576, Note_off_c, 0, 62, 64
1, 38599, Note_off_c, 0, 71, 64
1, 38732, Control_c, 0, 64, 0
1, 38743, Note_on_c, 0, 69, 39
1, 38749, Note_on_c, 0, 48, 23
1, 38749, Note_on_c, 0, 60, 34
1, 38755, Note_on_c, 0, 64, 36
1, 38755, Note_on_c, 0, 36, 22
1, 38924, Control_c, 0, 64, 127
1, 38938, Note_off_c, 0, 60, 64
1, 38950, Note_off_c, 0, 64, 64
1, 38964, Note_on_c, 0, 71, 54
1, 38999, Note_off_c, 0, 69, 64
1, 39003, Note_off_c, 0, 71, 64
1, 39024, Note_off_c, 0, 36, 64
1, 39052, Note_off_c, 0, 48, 64
1, 39173, Note_on_c, 0, 67, 44
1, 39187, Note_on_c, 0, 59, 30
1, 39231, Note_off_c, 0, 67, 64
1, 39244, Note_off_c, 0, 59, 64
1, 39379, Note_on_c, 0, 66, 43
1, 39403, Control_c, 0, 64, 0
1, 39407, Note_on_c, 0, 57, 22
1, 39411, Note_on_c, 0, 50, 26
1, 39411, Note_on_c, 0, 38, 23
1, 39431, Note_on_c, 0, 60, 22
1, 39588, Note_off_c, 0, 60, 64
1, 39606, Control_c, 0, 64, 127
1, 39621, Note_on_c, 0, 67, 47
1, 39637, Note_off_c, 0, 57, 64
1, 39655, Note_off_c, 0, 66, 64
1, 39671, Note_off_c, 0, 67, 64
1, 39696, Note_off_c, 0, 38, 64
1, 39744, Note_off_c, 0, 50, 64
1, 39829, Note_on_c, 0, 69, 37
1, 39841, Note_on_c, 0, 62, 31
1, 39894, Note_off_c, 0, 69, 64
1, 39902, Note_off_c, 0, 62, 64
1, 40049, Note_on_c, 0, 62, 39
1, 40053, Note_on_c, 0, 57, 35
1, 40060, Note_on_c, 0, 54, 26
1, 40060, Control_c, 0, 64, 0
1, 40060, Note_on_c, 0, 42, 24
1, 40220, Note_off_c, 0, 57, 64
1, 40255, Control_c, 0, 64, 127
1, 40279, Note_on_c, 0, 66, 37
1, 40297, Note_off_c, 0, 62, 64
1, 40304, Note_off_c, 0, 54, 64
1, 40354, Note_off_c, 0, 66, 64
1, 40434, Note_off_c, 0, 42, 64
1, 40489, Note_on_c, 0, 69, 33
1, 40499, Note_on_c, 0, 67, 40
1, 40549, Note_off_c, 0, 67, 64
1, 40576, Note_off_c, 0, 69, 64
1, 40710, Control_c, 0, 64, 0
1, 40718, Note_on_c, 0, 72, 39
1, 40718, Note_on_c, 0, 38, 22
1, 40721, Note_on_c, 0, 66, 25
1, 40727, Note_on_c, 0, 50, 20
1, 40902, Control_c, 0, 64, 127
1, 40941, Note_off_c, 0, 38, 64
1, 40950, Note_on_c, 0, 71, 44
1, 40985, Note_off_c, 0, 66, 64
1, 40989, Note_off_c, 0, 72, 64
1, 41014, Note_off_c, 0, 50, 64
1, 41019, Note_off_c, 0, 71, 64
1, 41161, Note_on_c, 0, 69, 37
1, 41166, Note_on_c, 0, 66, 30
1, 41228, Note_off_c, 0, 66, 64
1, 41356, Control_c, 0, 64, 0
1, 41378, Note_off_c, 0, 69, 64
1, 41390, Note_on_c, 0, 71, 48
1, 41390, Note_on_c, 0, 62, 26
1, 41401, Note_on_c, 0, 55, 30
1, 41404, Note_on_c, 0, 43, 22
1, 41404, Note_on_c, 0, 67, 19
1, 41476, Note_off_c, 0, 67, 64
1, 41476, Note_off_c, 0, 62, 64
1, 41537, Control_c, 0, 64, 127
1, 41554, Note_off_c, 0, 55, 64
1, 41577, Note_off_c, 0, 43, 64
1, 41637, Note_off_c, 0, 71, 64
1, 41640, Note_on_c, 0, 67, 50
1, 41829, Note_off_c, 0, 67, 64
1, 41852, Note_on_c, 0, 69, 44
1, 41861, Note_on_c, 0, 66, 23
1, 41925, Note_off_c, 0, 66, 64
1, 42075, Note_on_c, 0, 40, 47
1, 42081, Note_on_c, 0, 71, 51
1, 42081, Note_on_c, 0, 55, 33
1, 42086, Note_on_c, 0, 67, 34
1, 42086, Control_c, 0, 64, 0
1, 42092, Note_off_c, 0, 69, 64
1, 42283, Note_off_c, 0, 71, 64
1, 42293, Note_on_c, 0, 74, 58
1, 42303, Control_c, 0, 64, 127
1, 42311, Note_off_c, 0, 55, 64
1, 42456, Note_off_c, 0, 74, 64
1, 42456, Note_off_c, 0, 67, 64
1, 42509, Note_off_c, 0, 40, 64
1, 42513, Note_on_c, 0, 66, 43
1, 42516, Note_on_c, 0, 72, 60
1, 42623, Note_off_c, 0, 72, 64
1, 42629, Note_off_c, 0, 66, 64
1, 42735, Control_c, 0, 64, 0
1, 42744, Note_on_c, 0, 72, 60
1, 42757, Note_on_c, 0, 48, 30
1, 42757, Note_on_c, 0, 64, 43
1, 42761, Note_on_c, 0, 36, 33
1, 42766, Note_on_c, 0, 67, 45
1, 42844, Note_off_c, 0, 64, 64
1, 42896, Note_off_c, 0, 67, 64
1, 42914, Control_c, 0, 64, 127
1, 42963, Note_on_c, 0, 76, 56
1, 42969, Note_off_c, 0, 48, 64
1, 43010, Note_off_c, 0, 72, 64
1, 43173, Note_on_c, 0, 74, 66
1, 43178, Note_on_c, 0, 69, 36
1, 43190, Note_off_c, 0, 36, 64
1, 43200, Note_off_c, 0, 76, 64
1, 43217, Note_off_c, 0, 74, 64
1, 43240, Note_off_c, 0, 69, 64
1, 43393, Note_on_c, 0, 67, 52
1, 43393, Control_c, 0, 64, 0
1, 43396, Note_on_c, 0, 74, 62
1, 43407, Note_on_c, 0, 47, 38
1, 43418, Note_on_c, 0, 71, 48
1, 43418, Note_on_c, 0, 35, 40
1, 43538, Note_off_c, 0, 35, 64
1, 43562, Control_c, 0, 64, 127
1, 43566, Note_off_c, 0, 67, 64
1, 43577, Note_off_c, 0, 71, 64
1, 43595, Note_off_c, 0, 47, 64
1, 43613, Note_on_c, 0, 79, 75
1, 43624, Note_off_c, 0, 74, 64
1, 43825, Note_on_c, 0, 78, 70
1, 43830, Note_on_c, 0, 40, 57
1, 43836, Note_on_c, 0, 69, 34
1, 43853, Note_off_c, 0, 79, 64
1, 43864, Note_off_c, 0, 40, 64
1, 43897, Note_off_c, 0, 69, 64
1, 44063, Note_off_c, 0, 78, 64
1, 44063, Note_on_c, 0, 79, 65
1, 44072, Note_on_c, 0, 71, 50
1, 44077, Control_c, 0, 64, 0
1, 44080, Note_on_c, 0, 64, 44
1, 44089, Note_on_c, 0, 52, 37
1, 44200, Note_off_c, 0, 71, 64
1, 44247, Note_off_c, 0, 64, 64
1, 44247, Control_c, 0, 64, 127
1, 44309, Note_on_c, 0, 74, 55
1, 44309, Note_off_c, 0, 79, 64
1, 44321, Note_off_c, 0, 52, 64
1, 44345, Note_off_c, 0, 74, 64
1, 44507, Note_on_c, 0, 71, 59
1, 44523, Note_on_c, 0, 67, 29
1, 44574, Note_off_c, 0, 67, 64
1, 44683, Note_off_c, 0, 71, 64
1, 44730, Note_on_c, 0, 67, 47
1, 44741, Note_on_c, 0, 59, 24
1, 44749, Control_c, 0, 64, 0
1, 44749, Note_on_c, 0, 38, 22
1, 44749, Note_on_c, 0, 50, 24
1, 44780, Note_on_c, 0, 64, 20
1, 44933, Note_off_c, 0, 59, 64
1, 44939, Control_c, 0, 64, 127
1, 44961, Note_on_c, 0, 69, 39
1, 44984, Note_off_c, 0, 64, 64
1, 44989, Note_off_c, 0, 67, 64
1, 45101, Note_off_c, 0, 69, 64
1, 45167, Note_off_c, 0, 50, 64
1, 45193, Note_on_c, 0, 71, 52
1, 45206, Note_off_c, 0, 38, 64
1, 45206, Note_on_c, 0, 67, 23
1, 45270, Note_off_c, 0, 67, 64
1, 45320, Note_off_c, 0, 71, 64
1, 45390, Control_c, 0, 64, 0
1, 45420, Note_on_c, 0, 60, 36
1, 45427, Note_on_c, 0, 69, 28
1, 45427, Note_on_c, 0, 64, 44
1, 45431, Note_on_c, 0, 48, 22
1, 45431, Note_on_c, 0, 36, 25
1, 45518, Note_off_c, 0, 60, 64
1, 45541, Note_off_c, 0, 64, 64
1, 45551, Control_c, 0, 64, 127
1, 45560, Note_off_c, 0, 69, 64
1, 45652, Note_on_c, 0, 74, 56
1, 45711, Note_off_c, 0, 74, 64
1, 45763, Note_off_c, 0, 48, 64
1, 45796, Note_off_c, 0, 36, 64
1, 45872, Note_on_c, 0, 66, 24
1, 45872, Note_on_c, 0, 72, 54
1, 45924, Note_off_c, 0, 72, 64
1, 45930, Note_off_c, 0, 66, 64
1, 46106, Note_on_c, 0, 71, 37
1, 46112, Note_on_c, 0, 49, 16
1, 46112, Note_on_c, 0, 64, 33
1, 46115, Control_c, 0, 64, 0
1, 46122, Note_on_c, 0, 37, 20
1, 46142, Note_on_c, 0, 67, 13
1, 46300, Note_off_c, 0, 64, 64
1, 46306, Control_c, 0, 64, 127
1, 46335, Note_off_c, 0, 71, 64
1, 46346, Note_on_c, 0, 69, 27
1, 46363, Note_off_c, 0, 67, 64
1, 46403, Note_off_c, 0, 69, 64
1, 46505, Note_off_c, 0, 49, 64
1, 46537, Note_off_c, 0, 37, 64
1, 46568, Note_on_c, 0, 67, 35
1, 46580, Note_on_c, 0, 64, 16
1, 46638, Note_off_c, 0, 64, 64
1, 46666, Note_off_c, 0, 67, 64
1, 46805, Note_on_c, 0, 57, 29
1, 46805, Note_on_c, 0, 62, 35
1, 46810, Control_c, 0, 64, 0
1, 46814, Note_on_c, 0, 38, 18
1, 46827, Note_on_c, 0, 50, 11
1, 46989, Control_c, 0, 64, 127
1, 47006, Note_off_c, 0, 57, 64
1, 47041, Note_off_c, 0, 50, 64
1, 47045, Note_on_c, 0, 67, 41
1, 47080, Note_off_c, 0, 38, 64
1, 47092, Note_off_c, 0, 62, 64
1, 47108, Note_off_c, 0, 67, 64
1, 47278, Note_on_c, 0, 66, 39
1, 47304, Note_on_c, 0, 60, 30
1, 47373, Note_off_c, 0, 60, 64
1, 47388, Note_off_c, 0, 66, 64
1, 47588, Note_on_c, 0, 71, 89
1, 47596, Note_on_c, 0, 67, 33
1, 47600, Note_on_c, 0, 31, 26
1, 47600, Note_on_c, 0, 62, 21
1, 47605, Note_on_c, 0, 59, 17
1, 47605, Note_on_c, 0, 43, 14
1, 47649, Control_c, 0, 64, 0
1, 47967, Note_off_c, 0, 31, 64
1, 47984, Control_c, 0, 64, 127
1, 48012, Note_off_c, 0, 43, 64
1, 48357, Note_on_c, 0, 54, 36
1, 48418, Note_off_c, 0, 62, 64
1, 48487, Note_off_c, 0, 59, 64
1, 48640, Note_off_c, 0, 67, 64
1, 48710, Note_off_c, 0, 54, 64
1, 48753, Note_off_c, 0, 71, 64
1, 49028, Note_on_c, 0, 72, 88
1, 49067, Note_on_c, 0, 67, 20
1, 49067, Note_on_c, 0, 60, 28
1, 49067, Note_on_c, 0, 52, 33
1, 49072, Note_on_c, 0, 64, 29
1, 49243, Control_c, 0, 64, 0
1, 49421, Control_c, 0, 64, 127
1, 49437, Note_off_c, 0, 67, 64
1, 49437, Note_off_c, 0, 60, 64
1, 49466, Note_off_c, 0, 64, 64
1, 49493, Note_off_c, 0, 52, 64
1, 49530, Note_off_c, 0, 72, 64
1, 49760, Note_on_c, 0, 74, 99
1, 49771, Note_on_c, 0, 69, 37
1, 49780, Note_on_c, 0, 62, 30
1, 49780, Note_on_c, 0, 54, 33
1, 49789, Note_on_c, 0, 57, 19
1, 49973, Control_c, 0, 64, 0
1, 50178, Control_c, 0, 64, 127
1, 50296, Control_c, 0, 64, 0
1, 50518, Note_on_c, 0, 67, 42
1, 50541, Note_on_c, 0, 52, 39
1, 50560, Note_off_c, 0, 69, 64
1, 50563, Note_off_c, 0, 57, 64
1, 50610, Note_off_c, 0, 54, 64
1, 50789, Control_c, 0, 64, 127
1, 50841, Note_off_c, 0, 62, 64
1, 50892, Note_off_c, 0, 67, 64
1, 50902, Note_off_c, 0, 52, 64
1, 50905, Note_off_c, 0, 74, 64
1, 51185, Note_on_c, 0, 74, 98
1, 51206, Note_on_c, 0, 59, 28
1, 51206, Note_on_c, 0, 50, 25
1, 51210, Note_on_c, 0, 66, 42
1, 51215, Note_on_c, 0, 62, 34
1, 51401, Control_c, 0, 64, 0
1, 51579, Control_c, 0, 64, 127
1, 51628, Note_off_c, 0, 59, 64
1, 51652, Note_off_c, 0, 50, 64
1, 51669, Note_off_c, 0, 74, 64
1, 51689, Note_off_c, 0, 66, 64
1, 51696, Note_off_c, 0, 62, 64
1, 51926, Note_on_c, 0, 72, 81
1, 51958, Note_on_c, 0, 67, 36
1, 51970, Note_on_c, 0, 60, 24
1, 51970, Note_on_c, 0, 59, 30
1, 52004, Note_on_c, 0, 52, 19
1, 52107, Control_c, 0, 64, 0
1, 52382, Control_c, 0, 64, 127
1, 52488, Note_off_c, 0, 52, 64
1, 52501, Note_off_c, 0, 59, 64
1, 52688, Note_off_c, 0, 67, 64
1, 52716, Note_on_c, 0, 62, 25
1, 52722, Note_on_c, 0, 57, 23
1, 52722, Note_on_c, 0, 54, 29
1, 52802, Control_c, 0, 64, 0
1, 53126, Control_c, 0, 64, 127
1, 53157, Note_off_c, 0, 57, 64
1, 53204, Note_off_c, 0, 62, 64
1, 53204, Note_off_c, 0, 54, 64
1, 53221, Note_off_c, 0, 60, 64
1, 53433, Note_on_c, 0, 71, 67
1, 53463, Note_on_c, 0, 59, 29
1, 53469, Note_on_c, 0, 62, 20
1, 53469, Note_on_c, 0, 67, 13
1, 53472, Note_on_c, 0, 55, 22
1, 53490, Note_off_c, 0, 72, 64
1, 53617, Control_c, 0, 64, 0
1, 53869, Control_c, 0, 64, 127
1, 53880, Note_off_c, 0, 55, 64
1, 53911, Note_off_c, 0, 62, 64
1, 53926, Note_off_c, 0, 59, 64
1, 53954, Note_off_c, 0, 67, 64
1, 53987, Note_off_c, 0, 71, 64
1, 54157, Note_on_c, 0, 69, 42
1, 54171, Note_on_c, 0, 66, 11
1, 54184, Note_on_c, 0, 57, 23
1, 54204, Control_c, 0, 64, 0
1, 54224, Note_on_c, 0, 50, 19
1, 54408, Control_c, 0, 64, 127
1, 54411, Note_on_c, 0, 62, 43
1, 54418, Note_off_c, 0, 66, 64
1, 54490, Note_off_c, 0, 62, 64
1, 54525, Note_off_c, 0, 57, 64
1, 54558, Note_off_c, 0, 50, 64
1, 54633, Note_on_c, 0, 64, 45
1, 54674, Note_off_c, 0, 69, 64
1, 54691, Note_off_c, 0, 64, 64
1, 54827, Control_c, 0, 64, 0
1, 54837, Note_on_c, 0, 69, 44
1, 54840, Note_on_c, 0, 66, 37
1, 54847, Note_on_c, 0, 50, 33
1, 54858, Note_on_c, 0, 62, 32
1, 54858, Note_on_c, 0, 57, 20
1, 54972, Note_off_c, 0, 69, 64
1, 54986, Note_off_c, 0, 57, 64
1, 54995, Control_c, 0, 64, 127
1, 55017, Note_off_c, 0, 50, 64
1, 55043, Note_on_c, 0, 69, 26
1, 55062, Note_off_c, 0, 62, 64
1, 55095, Note_off_c, 0, 66, 64
1, 55268, Note_on_c, 0, 57, 37
1, 55271, Note_off_c, 0, 69, 64
1, 55271, Note_on_c, 0, 38, 30
1, 55274, Note_on_c, 0, 67, 44
1, 55279, Note_on_c, 0, 64, 46
1, 55290, Note_on_c, 0, 50, 21
1, 55319, Note_off_c, 0, 57, 64
1, 55330, Note_off_c, 0, 38, 64
1, 55330, Note_off_c, 0, 64, 64
1, 55349, Note_off_c, 0, 50, 64
1, 55366, Note_off_c, 0, 67, 64
1, 55497, Note_on_c, 0, 69, 35
1, 55497, Note_on_c, 0, 50, 35
1, 55497, Note_on_c, 0, 66, 29
1, 55507, Note_on_c, 0, 62, 37
1, 55518, Note_on_c, 0, 38, 31
1, 55558, Control_c, 0, 64, 0
1, 55675, Note_off_c, 0, 50, 64
1, 55691, Note_off_c, 0, 62, 64
1, 55702, Control_c, 0, 64, 127
1, 55714, Note_off_c, 0, 38, 64
1, 55722, Note_on_c, 0, 72, 47
1, 55741, Note_off_c, 0, 69, 64
1, 55772, Note_off_c, 0, 66, 64
1, 55904, Note_off_c, 0, 72, 64
1, 55920, Note_on_c, 0, 71, 54
1, 55925, Note_on_c, 0, 38, 44
1, 55929, Note_on_c, 0, 50, 36
1, 55934, Note_on_c, 0, 67, 43
1, 55934, Note_on_c, 0, 62, 41
1, 55981, Note_off_c, 0, 50, 64
1, 55986, Note_off_c, 0, 38, 64
1, 55993, Note_off_c, 0, 67, 64
1, 55998, Note_off_c, 0, 62, 64
1, 56160, Note_off_c, 0, 71, 64
1, 56167, Note_on_c, 0, 72, 42
1, 56170, Control_c, 0, 64, 0
1, 56173, Note_on_c, 0, 66, 20
1, 56181, Note_on_c, 0, 69, 24
1, 56181, Note_on_c, 0, 26, 41
1, 56184, Note_on_c, 0, 38, 42
1, 56273, Note_off_c, 0, 69, 64
1, 56383, Note_off_c, 0, 38, 64
1, 56390, Note_on_c, 0, 69, 43
1, 56396, Note_off_c, 0, 26, 64
1, 56396, Control_c, 0, 64, 127
1, 56443, Note_off_c, 0, 66, 64
1, 56602, Note_on_c, 0, 66, 41
1, 56652, Note_off_c, 0, 69, 64
1, 56831, Note_on_c, 0, 62, 34
1, 56847, Note_off_c, 0, 66, 64
1, 57009, Note_off_c, 0, 62, 64
1, 57048, Note_on_c, 0, 66, 32
1, 57082, Note_off_c, 0, 72, 64
1, 57260, Note_on_c, 0, 69, 34
1, 57288, Note_on_c, 0, 50, 28
1, 57299, Note_on_c, 0, 62, 21
1, 57319, Note_off_c, 0, 66, 64
1, 57355, Note_off_c, 0, 50, 64
1, 57380, Note_off_c, 0, 62, 64
1, 57497, Note_on_c, 0, 72, 43
1, 57497, Note_on_c, 0, 66, 22
1, 57519, Note_off_c, 0, 69, 64
1, 57528, Note_on_c, 0, 62, 22
1, 57536, Control_c, 0, 64, 0
1, 57536, Note_on_c, 0, 57, 30
1, 57546, Note_on_c, 0, 50, 23
1, 57680, Control_c, 0, 64, 127
1, 57702, Note_off_c, 0, 62, 64
1, 57719, Note_off_c, 0, 50, 64
1, 57737, Note_on_c, 0, 71, 38
1, 57744, Note_off_c, 0, 57, 64
1, 57767, Note_off_c, 0, 72, 64
1, 57805, Note_off_c, 0, 66, 64
1, 57906, Note_off_c, 0, 71, 64
1, 57957, Note_on_c, 0, 69, 33
1, 57965, Note_on_c, 0, 62, 29
1, 57968, Note_on_c, 0, 66, 14
1, 57979, Note_on_c, 0, 50, 28
1, 58026, Note_off_c, 0, 62, 64
1, 58043, Note_off_c, 0, 66, 64
1, 58096, Note_off_c, 0, 69, 64
1, 58126, Note_off_c, 0, 50, 64
1, 58238, Note_on_c, 0, 71, 90
1, 58260, Note_on_c, 0, 67, 28
1, 58266, Control_c, 0, 64, 0
1, 58277, Note_on_c, 0, 62, 29
1, 58287, Note_on_c, 0, 59, 41
1, 58296, Note_on_c, 0, 55, 27
1, 58355, Note_off_c, 0, 67, 64
1, 58400, Note_off_c, 0, 62, 64
1, 58447, Control_c, 0, 64, 127
1, 58561, Note_on_c, 0, 67, 33
1, 58641, Note_off_c, 0, 67, 64
1, 58809, Note_on_c, 0, 69, 31
1, 58819, Note_off_c, 0, 71, 64
1, 58985, Note_off_c, 0, 55, 64
1, 59046, Note_on_c, 0, 71, 46
1, 59060, Note_on_c, 0, 67, 20
1, 59065, Note_on_c, 0, 54, 51
1, 59071, Note_off_c, 0, 69, 64
1, 59285, Note_off_c, 0, 71, 64
1, 59296, Note_on_c, 0, 74, 56
1, 59469, Note_off_c, 0, 54, 64
1, 59496, Note_off_c, 0, 59, 64
1, 59496, Note_off_c, 0, 74, 64
1, 59519, Note_on_c, 0, 72, 49
1, 59525, Note_on_c, 0, 66, 24
1, 59561, Note_off_c, 0, 67, 64
1, 59578, Note_off_c, 0, 72, 64
1, 59614, Note_off_c, 0, 66, 64
1, 59745, Note_on_c, 0, 72, 80
1, 59767, Note_on_c, 0, 60, 55
1, 59767, Note_on_c, 0, 64, 43
1, 59775, Note_on_c, 0, 67, 42
1, 59775, Control_c, 0, 64, 0
1, 59790, Note_on_c, 0, 52, 36
1, 59893, Note_off_c, 0, 64, 64
1, 59926, Note_off_c, 0, 67, 64
1, 59932, Control_c, 0, 64, 127
1, 59978, Note_off_c, 0, 52, 64
1, 60015, Note_on_c, 0, 76, 37
1, 60057, Note_off_c, 0, 72, 64
1, 60216, Note_off_c, 0, 60, 64
1, 60227, Note_on_c, 0, 74, 59
1, 60246, Note_off_c, 0, 76, 64
1, 60246, Note_on_c, 0, 69, 24
1, 60271, Note_off_c, 0, 74, 64
1, 60299, Note_off_c, 0, 69, 64
1, 60360, Note_on_c, 0, 47, 33
1, 60453, Note_on_c, 0, 74, 88
1, 60474, Note_on_c, 0, 67, 43
1, 60481, Note_on_c, 0, 62, 48
1, 60486, Note_on_c, 0, 71, 41
1, 60496, Control_c, 0, 64, 0
1, 60664, Control_c, 0, 64, 127
1, 60694, Note_off_c, 0, 67, 64
1, 60694, Note_off_c, 0, 71, 64
1, 60709, Note_on_c, 0, 79, 68
1, 60730, Note_off_c, 0, 74, 64
1, 60756, Note_off_c, 0, 62, 64
1, 60867, Note_off_c, 0, 47, 64
1, 60912, Note_off_c, 0, 79, 64
1, 60918, Note_on_c, 0, 78, 61
1, 60939, Note_on_c, 0, 69, 26
1, 60998, Note_off_c, 0, 69, 64
1, 61032, Note_off_c, 0, 78, 64
1, 61145, Note_on_c, 0, 79, 57
1, 61173, Note_on_c, 0, 35, 29
1, 61185, Note_on_c, 0, 67, 7
1, 61252, Note_off_c, 0, 67, 64
1, 61260, Note_off_c, 0, 35, 64
1, 61354, Note_off_c, 0, 79, 64
1, 61385, Note_on_c, 0, 74, 51
1, 61422, Note_off_c, 0, 74, 64
1, 61592, Note_on_c, 0, 71, 56
1, 61608, Note_on_c, 0, 66, 20
1, 61683, Note_off_c, 0, 66, 64
1, 61697, Note_off_c, 0, 71, 64
1, 61822, Note_on_c, 0, 71, 79
1, 61832, Note_on_c, 0, 67, 51
1, 61845, Note_on_c, 0, 59, 36
1, 61867, Note_on_c, 0, 64, 11
1, 61875, Control_c, 0, 64, 0
1, 61879, Note_on_c, 0, 52, 22
1, 62054, Control_c, 0, 64, 127
1, 62088, Note_on_c, 0, 69, 34
1, 62130, Note_off_c, 0, 67, 64
1, 62152, Note_off_c, 0, 71, 64
1, 62188, Note_off_c, 0, 64, 64
1, 62282, Note_off_c, 0, 52, 64
1, 62322, Note_off_c, 0, 69, 64
1, 62325, Note_on_c, 0, 71, 49
1, 62347, Note_on_c, 0, 67, 20
1, 62380, Note_off_c, 0, 59, 64
1, 62410, Note_off_c, 0, 67, 64
1, 62435, Note_off_c, 0, 71, 64
1, 62583, Note_on_c, 0, 69, 61
1, 62611, Note_on_c, 0, 64, 43
1, 62616, Note_on_c, 0, 57, 38
1, 62633, Note_on_c, 0, 48, 20
1, 62714, Control_c, 0, 64, 0
1, 62857, Control_c, 0, 64, 127
1, 62915, Note_off_c, 0, 48, 64
1, 62915, Note_on_c, 0, 74, 42
1, 62971, Note_off_c, 0, 74, 64
1, 62979, Note_off_c, 0, 64, 64
1, 63002, Note_off_c, 0, 69, 64
1, 63027, Note_off_c, 0, 57, 64
1, 63082, Note_on_c, 0, 71, 76
1, 63105, Note_on_c, 0, 59, 42
1, 63171, Note_off_c, 0, 71, 64
1, 63180, Note_off_c, 0, 59, 64
1, 63258, Note_on_c, 0, 72, 75
1, 63275, Note_on_c, 0, 60, 51
1, 63335, Note_off_c, 0, 60, 64
1, 63360, Note_off_c, 0, 72, 64
1, 63474, Note_on_c, 0, 71, 81
1, 63506, Note_on_c, 0, 62, 36
1, 63509, Note_on_c, 0, 59, 33
1, 63509, Note_on_c, 0, 66, 20
1, 63528, Control_c, 0, 64, 0
1, 63539, Note_on_c, 0, 50, 23
1, 63720, Control_c, 0, 64, 127
1, 63748, Note_on_c, 0, 69, 35
1, 63773, Note_off_c, 0, 66, 64
1, 63812, Note_off_c, 0, 59, 64
1, 63831, Note_off_c, 0, 62, 64
1, 63837, Note_off_c, 0, 50, 64
1, 63850, Note_off_c, 0, 71, 64
1, 63960, Note_off_c, 0, 69, 64
1, 63976, Note_on_c, 0, 67, 50
1, 64016, Note_off_c, 0, 67, 64
1, 64216, Note_on_c, 0, 69, 66
1, 64241, Note_on_c, 0, 57, 25
1, 64241, Note_on_c, 0, 50, 27
1, 64255, Note_on_c, 0, 45, 22
1, 64260, Control_c, 0, 64, 0
1, 64260, Note_on_c, 0, 38, 17
1, 64260, Note_on_c, 0, 62, 23
1, 64413, Note_off_c, 0, 57, 64
1, 64413, Control_c, 0, 64, 127
1, 64552, Note_on_c, 0, 67, 13
1, 64608, Note_off_c, 0, 50, 64
1, 64615, Note_off_c, 0, 62, 64
1, 64647, Note_off_c, 0, 67, 64
1, 64647, Note_off_c, 0, 45, 64
1, 64700, Note_off_c, 0, 69, 64
1, 64700, Note_off_c, 0, 38, 64
1, 64787, Note_on_c, 0, 66, 26
1, 64812, Note_on_c, 0, 60, 23
1, 64867, Note_off_c, 0, 66, 64
1, 64885, Note_off_c, 0, 60, 64
1, 65132, Note_on_c, 0, 67, 54
1, 65132, Control_c, 0, 64, 0
1, 65137, Note_on_c, 0, 55, 38
1, 65157, Note_on_c, 0, 62, 25
1, 65157, Note_on_c, 0, 59, 31
1, 65161, Note_on_c, 0, 31, 26
1, 65172, Note_on_c, 0, 43, 17
1, 65280, Note_off_c, 0, 55, 64
1, 65299, Note_off_c, 0, 62, 64
1, 65299, Control_c, 0, 64, 127
1, 65303, Note_off_c, 0, 59, 64
1, 65358, Note_off_c, 0, 67, 64
1, 65372, Note_off_c, 0, 43, 64
1, 65389, Note_off_c, 0, 31, 64
1, 65470, Note_on_c, 0, 71, 39
1, 65614, Note_off_c, 0, 71, 64
1, 65717, Note_on_c, 0, 69, 31
1, 65948, Note_off_c, 0, 69, 64
1, 65948, Note_on_c, 0, 62, 27
1, 65954, Note_on_c, 0, 43, 22
1, 65954, Note_on_c, 0, 71, 37
1, 65965, Note_on_c, 0, 55, 19
1, 65965, Note_on_c, 0, 67, 25
1, 66016, Note_off_c, 0, 62, 64
1, 66059, Note_off_c, 0, 67, 64
1, 66149, Note_off_c, 0, 71, 64
1, 66149, Note_off_c, 0, 55, 64
1, 66216, Note_on_c, 0, 74, 36
1, 66331, Note_off_c, 0, 43, 64
1, 66380, Note_off_c, 0, 74, 64
1, 66406, Note_on_c, 0, 72, 47
1, 66419, Note_on_c, 0, 66, 21
1, 66477, Note_off_c, 0, 66, 64
1, 66487, Note_off_c, 0, 72, 64
1, 66629, Note_on_c, 0, 52, 37
1, 66632, Control_c, 0, 64, 0
1, 66632, Note_on_c, 0, 40, 44
1, 66640, Note_on_c, 0, 72, 55
1, 66647, Note_on_c, 0, 64, 37
1, 66650, Note_on_c, 0, 67, 37
1, 66734, Note_off_c, 0, 64, 64
1, 66776, Control_c, 0, 64, 127
1, 66820, Note_off_c, 0, 52, 64
1, 66820, Note_off_c, 0, 67, 64
1, 66876, Note_on_c, 0, 76, 48
1, 66888, Note_off_c, 0, 40, 64
1, 66913, Note_off_c, 0, 72, 64
1, 67097, Note_on_c, 0, 74, 57
1, 67100, Note_off_c, 0, 76, 64
1, 67110, Note_on_c, 0, 69, 35
1, 67161, Note_off_c, 0, 69, 64
1, 67165, Note_off_c, 0, 74, 64
1, 67313, Note_on_c, 0, 74, 59
1, 67313, Note_on_c, 0, 67, 45
1, 67328, Note_on_c, 0, 71, 45
1, 67328, Note_on_c, 0, 47, 29
1, 67335, Note_on_c, 0, 35, 36
1, 67339, Control_c, 0, 64, 0
1, 67506, Note_off_c, 0, 67, 64
1, 67506, Note_off_c, 0, 35, 64
1, 67506, Control_c, 0, 64, 127
1, 67551, Note_off_c, 0, 71, 64
1, 67555, Note_on_c, 0, 79, 57
1, 67576, Note_off_c, 0, 47, 64
1, 67583, Note_off_c, 0, 74, 64
1, 67767, Note_on_c, 0, 78, 60
1, 67767, Note_off_c, 0, 79, 64
1, 67776, Note_on_c, 0, 69, 31
1, 67787, Note_on_c, 0, 40, 60
1, 67821, Note_off_c, 0, 40, 64
1, 67840, Note_off_c, 0, 69, 64
1, 67999, Note_off_c, 0, 78, 64
1, 68008, Note_on_c, 0, 79, 64
1, 68015, Note_on_c, 0, 71, 51
1, 68021, Note_on_c, 0, 64, 62
1, 68038, Note_on_c, 0, 52, 50
1, 68071, Control_c, 0, 64, 0
1, 68203, Note_off_c, 0, 71, 64
1, 68213, Note_off_c, 0, 64, 64
1, 68213, Control_c, 0, 64, 127
1, 68257, Note_on_c, 0, 74, 64
1, 68272, Note_off_c, 0, 79, 64
1, 68277, Note_off_c, 0, 52, 64
1, 68292, Note_off_c, 0, 74, 64
1, 68470, Note_on_c, 0, 71, 65
1, 68473, Note_on_c, 0, 67, 46
1, 68526, Note_off_c, 0, 67, 64
1, 68675, Note_off_c, 0, 71, 64
1, 68679, Note_on_c, 0, 67, 61
1, 68695, Note_on_c, 0, 59, 26
1, 68700, Note_on_c, 0, 64, 38
1, 68700, Note_on_c, 0, 28, 17
1, 68700, Note_on_c, 0, 40, 34
1, 68706, Control_c, 0, 64, 0
1, 68856, Note_off_c, 0, 59, 64
1, 68862, Control_c, 0, 64, 127
1, 68899, Note_off_c, 0, 64, 64
1, 68905, Note_off_c, 0, 28, 64
1, 68905, Note_on_c, 0, 69, 52
1, 68968, Note_off_c, 0, 67, 64
1, 68968, Note_off_c, 0, 40, 64
1, 69079, Note_off_c, 0, 69, 64
1, 69132, Note_on_c, 0, 71, 68
1, 69139, Note_on_c, 0, 62, 41
1, 69182, Note_off_c, 0, 71, 64
1, 69182, Note_off_c, 0, 62, 64
1, 69339, Note_on_c, 0, 72, 60
1, 69349, Note_on_c, 0, 64, 48
1, 69349, Note_on_c, 0, 45, 33
1, 69356, Note_on_c, 0, 33, 35
1, 69377, Control_c, 0, 64, 0
1, 69545, Control_c, 0, 64, 127
1, 69575, Note_off_c, 0, 64, 64
1, 69575, Note_on_c, 0, 74, 71
1, 69586, Note_off_c, 0, 72, 64
1, 69629, Note_off_c, 0, 74, 64
1, 69734, Note_off_c, 0, 33, 64
1, 69742, Note_off_c, 0, 45, 64
1, 69785, Note_on_c, 0, 66, 46
1, 69785, Note_on_c, 0, 76, 76
1, 69876, Note_off_c, 0, 76, 64
1, 69937, Note_off_c, 0, 66, 64
1, 70015, Note_on_c, 0, 74, 64
1, 70021, Note_on_c, 0, 67, 36
1, 70024, Control_c, 0, 64, 0
1, 70033, Note_on_c, 0, 47, 25
1, 70036, Note_on_c, 0, 62, 29
1, 70036, Note_on_c, 0, 35, 36
1, 70189, Note_off_c, 0, 62, 64
1, 70216, Control_c, 0, 64, 127
1, 70238, Note_off_c, 0, 74, 64
1, 70238, Note_on_c, 0, 72, 57
1, 70283, Note_off_c, 0, 72, 64
1, 70297, Note_off_c, 0, 67, 64
1, 70369, Note_off_c, 0, 47, 64
1, 70369, Note_off_c, 0, 35, 64
1, 70450, Note_on_c, 0, 71, 53
1, 70464, Note_on_c, 0, 62, 32
1, 70478, Note_on_c, 0, 67, 23
1, 70523, Note_off_c, 0, 62, 64
1, 70536, Note_off_c, 0, 67, 64
1, 70631, Note_off_c, 0, 71, 64
1, 70664, Note_on_c, 0, 69, 47
1, 70679, Note_on_c, 0, 60, 37
1, 70682, Note_on_c, 0, 36, 27
1, 70682, Control_c, 0, 64, 0
1, 70685, Note_on_c, 0, 48, 17
1, 70685, Note_on_c, 0, 64, 33
1, 70882, Note_off_c, 0, 60, 64
1, 70887, Note_on_c, 0, 71, 61
1, 70887, Control_c, 0, 64, 127
1, 70927, Note_off_c, 0, 64, 64
1, 70927, Note_off_c, 0, 71, 64
1, 70937, Note_off_c, 0, 69, 64
1, 70977, Note_off_c, 0, 36, 64
1, 71038, Note_off_c, 0, 48, 64
1, 71099, Note_on_c, 0, 67, 44
1, 71110, Note_on_c, 0, 59, 34
1, 71167, Note_off_c, 0, 59, 64
1, 71191, Note_off_c, 0, 67, 64
1, 71313, Note_on_c, 0, 66, 47
1, 71339, Note_on_c, 0, 38, 25
1, 71342, Control_c, 0, 64, 0
1, 71347, Note_on_c, 0, 57, 24
1, 71347, Note_on_c, 0, 50, 24
1, 71367, Note_on_c, 0, 60, 13
1, 71511, Note_off_c, 0, 60, 64
1, 71547, Control_c, 0, 64, 127
1, 71551, Note_on_c, 0, 67, 42
1, 71564, Note_off_c, 0, 57, 64
1, 71570, Note_off_c, 0, 66, 64
1, 71603, Note_off_c, 0, 67, 64
1, 71614, Note_off_c, 0, 50, 64
1, 71620, Note_off_c, 0, 38, 64
1, 71749, Note_on_c, 0, 69, 38
1, 71771, Note_on_c, 0, 62, 27
1, 71829, Note_off_c, 0, 62, 64
1, 71840, Note_off_c, 0, 69, 64
1, 71980, Note_on_c, 0, 54, 26
1, 71988, Note_on_c, 0, 42, 24
1, 71988, Control_c, 0, 64, 0
1, 71994, Note_on_c, 0, 62, 38
1, 71997, Note_on_c, 0, 57, 23
1, 72167, Note_off_c, 0, 57, 64
1, 72205, Control_c, 0, 64, 127
1, 72225, Note_on_c, 0, 66, 40
1, 72241, Note_off_c, 0, 54, 64
1, 72241, Note_off_c, 0, 62, 64
1, 72316, Note_off_c, 0, 66, 64
1, 72350, Note_off_c, 0, 42, 64
1, 72437, Note_on_c, 0, 69, 38
1, 72453, Note_on_c, 0, 67, 23
1, 72512, Note_off_c, 0, 67, 64
1, 72540, Note_off_c, 0, 69, 64
1, 72660, Control_c, 0, 64, 0
1, 72671, Note_on_c, 0, 38, 21
1, 72674, Note_on_c, 0, 66, 24
1, 72678, Note_on_c, 0, 72, 36
1, 72688, Note_on_c, 0, 50, 24
1, 72876, Control_c, 0, 64, 127
1, 72908, Note_off_c, 0, 38, 64
1, 72908, Note_on_c, 0, 71, 49
1, 72952, Note_off_c, 0, 72, 64
1, 72963, Note_off_c, 0, 66, 64
1, 72982, Note_off_c, 0, 71, 64
1, 72982, Note_off_c, 0, 50, 64
1, 73133, Note_on_c, 0, 69, 39
1, 73138, Note_on_c, 0, 66, 26
1, 73228, Note_off_c, 0, 66, 64
1, 73331, Control_c, 0, 64, 0
1, 73369, Note_on_c, 0, 55, 26
1, 73369, Note_on_c, 0, 62, 35
1, 73369, Note_on_c, 0, 43, 22
1, 73373, Note_on_c, 0, 71, 36
1, 73378, Note_off_c, 0, 69, 64
1, 73398, Note_on_c, 0, 67, 20
1, 73445, Note_off_c, 0, 62, 64
1, 73468, Note_off_c, 0, 67, 64
1, 73500, Control_c, 0, 64, 127
1, 73506, Note_off_c, 0, 55, 64
1, 73532, Note_off_c, 0, 43, 64
1, 73615, Note_off_c, 0, 71, 64
1, 73628, Note_on_c, 0, 67, 23
1, 73721, Note_off_c, 0, 67, 64
1, 73844, Note_on_c, 0, 69, 32
1, 73869, Note_on_c, 0, 66, 15
1, 73960, Note_off_c, 0, 66, 64
1, 74075, Control_c, 0, 64, 0
1, 74075, Note_on_c, 0, 71, 48
1, 74078, Note_on_c, 0, 67, 35
1, 74089, Note_on_c, 0, 40, 39
1, 74092, Note_off_c, 0, 69, 64
1, 74102, Note_on_c, 0, 55, 22
1, 74266, Control_c, 0, 64, 127
1, 74283, Note_off_c, 0, 71, 64
1, 74283, Note_off_c, 0, 55, 64
1, 74305, Note_on_c, 0, 74, 47
1, 74437, Note_off_c, 0, 40, 64
1, 74448, Note_off_c, 0, 67, 64
1, 74448, Note_off_c, 0, 74, 64
1, 74517, Note_on_c, 0, 72, 54
1, 74521, Note_on_c, 0, 66, 38
1, 74606, Note_off_c, 0, 72, 64
1, 74624, Note_off_c, 0, 66, 64
1, 74746, Control_c, 0, 64, 0
1, 74749, Note_on_c, 0, 72, 45
1, 74752, Note_on_c, 0, 36, 36
1, 74757, Note_on_c, 0, 48, 29
1, 74757, Note_on_c, 0, 64, 43
1, 74765, Note_on_c, 0, 67, 42
1, 74849, Note_off_c, 0, 64, 64
1, 74901, Note_off_c, 0, 67, 64
1, 74901, Control_c, 0, 64, 127
1, 74963, Note_off_c, 0, 48, 64
1, 74982, Note_on_c, 0, 76, 52
1, 74999, Note_off_c, 0, 36, 64
1, 75025, Note_off_c, 0, 72, 64
1, 75189, Note_on_c, 0, 74, 63
1, 75200, Note_on_c, 0, 69, 30
1, 75206, Note_off_c, 0, 76, 64
1, 75250, Note_off_c, 0, 74, 64
1, 75264, Note_off_c, 0, 69, 64
1, 75415, Note_on_c, 0, 67, 41
1, 75415, Note_on_c, 0, 74, 69
1, 75415, Control_c, 0, 64, 0
1, 75420, Note_on_c, 0, 35, 40
1, 75423, Note_on_c, 0, 71, 46
1, 75428, Note_on_c, 0, 47, 26
1, 75546, Note_off_c, 0, 35, 64
1, 75577, Note_off_c, 0, 71, 64
1, 75587, Control_c, 0, 64, 127
1, 75591, Note_off_c, 0, 67, 64
1, 75606, Note_off_c, 0, 47, 64
1, 75646, Note_off_c, 0, 74, 64
1, 75654, Note_on_c, 0, 79, 72
1, 75857, Note_on_c, 0, 78, 68
1, 75866, Note_on_c, 0, 69, 39
1, 75866, Note_on_c, 0, 40, 51
1, 75876, Note_off_c, 0, 79, 64
1, 75905, Note_off_c, 0, 40, 64
1, 75922, Note_off_c, 0, 69, 64
1, 76100, Note_off_c, 0, 78, 64
1, 76100, Note_on_c, 0, 79, 65
1, 76111, Note_on_c, 0, 71, 50
1, 76128, Note_on_c, 0, 64, 50
1, 76147, Note_on_c, 0, 52, 43
1, 76147, Control_c, 0, 64, 0
1, 76280, Note_off_c, 0, 71, 64
1, 76295, Note_off_c, 0, 64, 64
1, 76305, Control_c, 0, 64, 127
1, 76347, Note_on_c, 0, 74, 61
1, 76355, Note_off_c, 0, 79, 64
1, 76370, Note_off_c, 0, 52, 64
1, 76381, Note_off_c, 0, 74, 64
1, 76559, Note_on_c, 0, 71, 63
1, 76568, Note_on_c, 0, 67, 31
1, 76621, Note_off_c, 0, 67, 64
1, 76735, Note_off_c, 0, 71, 64
1, 76776, Note_on_c, 0, 67, 55
1, 76783, Note_on_c, 0, 59, 35
1, 76788, Note_on_c, 0, 50, 35
1, 76788, Note_on_c, 0, 38, 25
1, 76807, Control_c, 0, 64, 0
1, 76807, Note_on_c, 0, 64, 34
1, 76983, Note_off_c, 0, 59, 64
1, 76999, Control_c, 0, 64, 127
1, 77007, Note_on_c, 0, 69, 42
1, 77052, Note_off_c, 0, 67, 64
1, 77052, Note_off_c, 0, 64, 64
1, 77167, Note_off_c, 0, 50, 64
1, 77172, Note_off_c, 0, 69, 64
1, 77234, Note_on_c, 0, 67, 44
1, 77241, Note_on_c, 0, 71, 59
1, 77255, Note_off_c, 0, 38, 64
1, 77309, Note_off_c, 0, 67, 64
1, 77368, Note_off_c, 0, 71, 64
1, 77454, Control_c, 0, 64, 0
1, 77470, Note_on_c, 0, 60, 45
1, 77475, Note_on_c, 0, 48, 24
1, 77475, Note_on_c, 0, 36, 28
1, 77487, Note_on_c, 0, 69, 38
1, 77487, Note_on_c, 0, 64, 50
1, 77587, Note_off_c, 0, 60, 64
1, 77623, Note_off_c, 0, 64, 64
1, 77623, Control_c, 0, 64, 127
1, 77634, Note_off_c, 0, 69, 64
1, 77732, Note_on_c, 0, 74, 61
1, 77787, Note_off_c, 0, 48, 64
1, 77826, Note_off_c, 0, 36, 64
1, 77890, Note_off_c, 0, 74, 64
1, 77946, Note_on_c, 0, 72, 55
1, 77946, Note_on_c, 0, 66, 36
1, 77997, Note_off_c, 0, 66, 64
1, 78003, Note_off_c, 0, 72, 64
1, 78169, Note_on_c, 0, 71, 52
1, 78183, Note_on_c, 0, 67, 25
1, 78186, Control_c, 0, 64, 0
1, 78189, Note_on_c, 0, 64, 28
1, 78189, Note_on_c, 0, 49, 18
1, 78194, Note_on_c, 0, 37, 23
1, 78353, Control_c, 0, 64, 127
1, 78379, Note_off_c, 0, 67, 64
1, 78379, Note_off_c, 0, 64, 64
1, 78400, Note_on_c, 0, 69, 32
1, 78403, Note_off_c, 0, 71, 64
1, 78451, Note_off_c, 0, 69, 64
1, 78570, Note_off_c, 0, 49, 64
1, 78618, Note_on_c, 0, 67, 47
1, 78634, Note_off_c, 0, 37, 64
1, 78637, Note_on_c, 0, 64, 23
1, 78688, Note_off_c, 0, 64, 64
1, 78713, Note_off_c, 0, 67, 64
1, 78847, Note_on_c, 0, 62, 44
1, 78850, Note_on_c, 0, 57, 33
1, 78857, Control_c, 0, 64, 0
1, 78869, Note_on_c, 0, 50, 25
1, 78874, Note_on_c, 0, 38, 21
1, 79049, Control_c, 0, 64, 127
1, 79063, Note_off_c, 0, 57, 64
1, 79088, Note_on_c, 0, 67, 36
1, 79111, Note_off_c, 0, 50, 64
1, 79133, Note_off_c, 0, 62, 64
1, 79150, Note_off_c, 0, 67, 64
1, 79198, Note_off_c, 0, 38, 64
1, 79298, Note_on_c, 0, 66, 33
1, 79308, Note_on_c, 0, 60, 39
1, 79372, Note_off_c, 0, 60, 64
1, 79551, Note_off_c, 0, 66, 64
1, 79557, Note_on_c, 0, 31, 25
1, 79560, Note_on_c, 0, 43, 25
1, 79560, Note_on_c, 0, 59, 27
1, 79563, Note_on_c, 0, 67, 36
1, 79576, Control_c, 0, 64, 0
1, 79724, Note_off_c, 0, 59, 64
1, 79755, Control_c, 0, 64, 127
1, 79766, Note_on_c, 0, 71, 59
1, 79799, Note_off_c, 0, 67, 64
1, 79808, Note_off_c, 0, 71, 64
1, 79985, Note_on_c, 0, 74, 44
1, 79985, Note_on_c, 0, 67, 34
1, 80058, Note_off_c, 0, 74, 64
1, 80070, Note_off_c, 0, 67, 64
1, 80208, Note_on_c, 0, 79, 62
1, 80212, Note_on_c, 0, 71, 45
1, 80225, Note_off_c, 0, 31, 64
1, 80298, Note_off_c, 0, 43, 64
1, 80337, Note_off_c, 0, 79, 64
1, 80381, Note_off_c, 0, 71, 64
1, 80432, Note_on_c, 0, 67, 40
1, 80439, Note_on_c, 0, 74, 37
1, 80485, Note_off_c, 0, 74, 64
1, 80501, Note_off_c, 0, 67, 64
1, 80652, Note_on_c, 0, 62, 45
1, 80655, Note_on_c, 0, 71, 54
1, 80668, Note_on_c, 0, 55, 52
1, 80705, Note_off_c, 0, 62, 64
1, 80730, Note_off_c, 0, 71, 64
1, 80760, Note_off_c, 0, 55, 64
1, 80875, Note_on_c, 0, 59, 36
1, 80894, Note_on_c, 0, 54, 79
1, 80903, Note_on_c, 0, 67, 19
1, 81027, Control_c, 0, 64, 0
1, 81050, Note_off_c, 0, 59, 64
1, 81102, Note_on_c, 0, 71, 51
1, 81112, Note_off_c, 0, 67, 64
1, 81119, Note_on_c, 0, 62, 39
1, 81158, Control_c, 0, 64, 127
1, 81161, Note_off_c, 0, 62, 64
1, 81205, Note_off_c, 0, 71, 64
1, 81265, Note_off_c, 0, 54, 64
1, 81339, Note_on_c, 0, 73, 48
1, 81343, Note_on_c, 0, 67, 44
1, 81371, Note_on_c, 0, 52, 78
1, 81404, Note_off_c, 0, 67, 64
1, 81520, Note_off_c, 0, 52, 64
1, 81604, Note_off_c, 0, 73, 64
1, 81612, Note_on_c, 0, 74, 57
1, 81627, Note_on_c, 0, 66, 25
1, 81657, Note_on_c, 0, 57, 78
1, 81676, Note_on_c, 0, 50, 65
1, 81829, Control_c, 0, 64, 0
1, 81977, Note_on_c, 0, 62, 50
1, 82045, Control_c, 0, 64, 127
1, 82061, Note_off_c, 0, 74, 64
1, 82067, Note_off_c, 0, 66, 64
1, 82217, Note_on_c, 0, 64, 52
1, 82240, Note_off_c, 0, 62, 64
1, 82428, Note_on_c, 0, 66, 45
1, 82457, Note_on_c, 0, 62, 29
1, 82460, Note_off_c, 0, 50, 64
1, 82468, Note_off_c, 0, 64, 64
1, 82484, Note_on_c, 0, 48, 48
1, 82609, Control_c, 0, 64, 0
1, 82674, Note_on_c, 0, 69, 37
1, 82743, Note_off_c, 0, 66, 64
1, 82752, Control_c, 0, 64, 127
1, 82892, Note_on_c, 0, 68, 50
1, 82949, Note_off_c, 0, 69, 64
1, 82963, Note_off_c, 0, 62, 64
1, 83013, Note_off_c, 0, 68, 64
1, 83038, Note_off_c, 0, 57, 64
1, 83103, Note_on_c, 0, 68, 46
1, 83109, Note_off_c, 0, 48, 64
1, 83126, Note_on_c, 0, 62, 46
1, 83139, Note_on_c, 0, 59, 83
1, 83156, Note_on_c, 0, 47, 42
1, 83292, Control_c, 0, 64, 0
1, 83375, Note_on_c, 0, 71, 55
1, 83410, Note_off_c, 0, 68, 64
1, 83471, Control_c, 0, 64, 127
1, 83599, Note_on_c, 0, 69, 45
1, 83599, Note_off_c, 0, 71, 64
1, 83662, Note_off_c, 0, 69, 64
1, 83674, Note_off_c, 0, 47, 64
1, 83688, Note_off_c, 0, 62, 64
1, 83694, Note_off_c, 0, 59, 64
1, 83827, Note_on_c, 0, 60, 84
1, 83841, Note_on_c, 0, 69, 54
1, 83856, Note_on_c, 0, 57, 34
1, 83864, Note_on_c, 0, 64, 31
1, 83878, Control_c, 0, 64, 0
1, 83881, Note_on_c, 0, 45, 22
1, 83916, Note_on_c, 0, 52, 29
1, 84034, Control_c, 0, 64, 127
1, 84081, Note_on_c, 0, 72, 47
1, 84161, Note_off_c, 0, 60, 64
1, 84178, Note_off_c, 0, 64, 64
1, 84187, Note_off_c, 0, 72, 64
1, 84292, Note_off_c, 0, 57, 64
1, 84292, Note_off_c, 0, 45, 64
1, 84321, Note_on_c, 0, 71, 57
1, 84334, Note_on_c, 0, 62, 27
1, 84351, Note_off_c, 0, 52, 64
1, 84370, Note_off_c, 0, 69, 64
1, 84398, Note_off_c, 0, 62, 64
1, 84423, Note_off_c, 0, 71, 64
1, 84569, Note_on_c, 0, 72, 55
1, 84590, Note_on_c, 0, 64, 22
1, 84596, Note_on_c, 0, 60, 28
1, 84632, Note_on_c, 0, 57, 54
1, 84640, Note_on_c, 0, 45, 37
1, 84672, Note_off_c, 0, 64, 64
1, 84844, Note_off_c, 0, 57, 64
1, 84852, Note_on_c, 0, 69, 42
1, 84861, Note_off_c, 0, 45, 64
1, 84899, Note_off_c, 0, 72, 64
1, 84977, Note_on_c, 0, 55, 66
1, 84984, Note_on_c, 0, 43, 56
1, 84997, Note_off_c, 0, 60, 64
1, 84997, Note_off_c, 0, 69, 64
1, 85109, Note_on_c, 0, 64, 71
1, 85176, Note_off_c, 0, 55, 64
1, 85204, Note_off_c, 0, 64, 64
1, 85207, Note_off_c, 0, 43, 64
1, 85303, Note_on_c, 0, 60, 92
1, 85314, Note_on_c, 0, 69, 52
1, 85326, Note_on_c, 0, 53, 69
1, 85329, Note_on_c, 0, 41, 44
1, 85342, Note_on_c, 0, 65, 32
1, 85364, Control_c, 0, 64, 0
1, 85509, Control_c, 0, 64, 127
1, 85526, Note_off_c, 0, 53, 64
1, 85555, Note_off_c, 0, 65, 64
1, 85555, Note_off_c, 0, 41, 64
1, 85566, Note_on_c, 0, 62, 61
1, 85601, Note_off_c, 0, 69, 64
1, 85629, Note_off_c, 0, 60, 64
1, 85680, Note_on_c, 0, 52, 71
1, 85688, Note_on_c, 0, 40, 62
1, 85700, Note_off_c, 0, 62, 64
1, 85805, Note_on_c, 0, 64, 76
1, 85836, Note_off_c, 0, 52, 64
1, 85863, Note_off_c, 0, 64, 64
1, 85870, Note_off_c, 0, 40, 64
1, 86051, Note_on_c, 0, 59, 91
1, 86059, Control_c, 0, 64, 0
1, 86078, Note_on_c, 0, 57, 46
1, 86082, Note_on_c, 0, 65, 51
1, 86090, Note_on_c, 0, 50, 48
1, 86101, Note_on_c, 0, 38, 36
1, 86183, Note_off_c, 0, 57, 64
1, 86228, Note_off_c, 0, 59, 64
1, 86228, Control_c, 0, 64, 127
1, 86245, Note_off_c, 0, 65, 64
1, 86356, Note_on_c, 0, 74, 55
1, 86362, Note_on_c, 0, 65, 25
1, 86418, Note_off_c, 0, 74, 64
1, 86429, Note_off_c, 0, 65, 64
1, 86501, Note_off_c, 0, 50, 64
1, 86568, Note_off_c, 0, 38, 64
1, 86591, Note_on_c, 0, 72, 55
1, 86596, Note_on_c, 0, 64, 46
1, 86654, Note_off_c, 0, 64, 64
1, 86827, Note_off_c, 0, 72, 64
1, 86830, Note_on_c, 0, 74, 61
1, 86839, Note_on_c, 0, 65, 44
1, 86842, Note_on_c, 0, 47, 26
1, 86847, Note_on_c, 0, 69, 23
1, 86852, Note_on_c, 0, 35, 31
1, 86911, Note_off_c, 0, 69, 64
1, 86931, Note_off_c, 0, 35, 64
1, 86964, Note_off_c, 0, 47, 64
1, 87087, Note_on_c, 0, 71, 61
1, 87140, Note_off_c, 0, 65, 64
1, 87161, Note_off_c, 0, 74, 64
1, 87193, Note_on_c, 0, 60, 71
1, 87295, Note_on_c, 0, 68, 50
1, 87306, Note_off_c, 0, 60, 64
1, 87348, Note_off_c, 0, 71, 64
1, 87381, Note_off_c, 0, 68, 64
1, 87387, Note_on_c, 0, 62, 75
1, 87515, Note_off_c, 0, 62, 64
1, 87533, Note_on_c, 0, 64, 47
1, 87571, Note_on_c, 0, 59, 73
1, 87593, Note_on_c, 0, 52, 54
1, 87664, Control_c, 0, 64, 0
1, 87810, Note_on_c, 0, 66, 42
1, 87833, Control_c, 0, 64, 127
1, 87841, Note_off_c, 0, 64, 64
1, 87973, Note_off_c, 0, 52, 64
1, 88019, Note_off_c, 0, 59, 64
1, 88025, Note_off_c, 0, 66, 64
1, 88028, Note_on_c, 0, 68, 42
1, 88045, Note_on_c, 0, 62, 42
1, 88095, Note_off_c, 0, 62, 64
1, 88132, Note_off_c, 0, 68, 64
1, 88276, Note_on_c, 0, 69, 36
1, 88287, Note_on_c, 0, 60, 36
1, 88292, Note_on_c, 0, 57, 51
1, 88300, Control_c, 0, 64, 0
1, 88309, Note_on_c, 0, 64, 36
1, 88321, Note_on_c, 0, 45, 21
1, 88493, Note_off_c, 0, 64, 64
1, 88516, Control_c, 0, 64, 127
1, 88558, Note_on_c, 0, 72, 44
1, 88582, Note_off_c, 0, 69, 64
1, 88615, Note_off_c, 0, 72, 64
1, 88627, Note_off_c, 0, 45, 64
1, 88655, Note_off_c, 0, 57, 64
1, 88772, Note_off_c, 0, 60, 64
1, 88772, Note_on_c, 0, 71, 54
1, 88772, Note_on_c, 0, 68, 27
1, 88844, Note_off_c, 0, 68, 64
1, 88920, Note_off_c, 0, 71, 64
1, 88995, Note_on_c, 0, 41, 36
1, 88995, Control_c, 0, 64, 0
1, 89003, Note_on_c, 0, 57, 39
1, 89003, Note_on_c, 0, 60, 39
1, 89009, Note_on_c, 0, 69, 21
1, 89012, Note_on_c, 0, 72, 42
1, 89095, Note_off_c, 0, 60, 64
1, 89120, Note_off_c, 0, 69, 64
1, 89150, Note_off_c, 0, 72, 64
1, 89150, Control_c, 0, 64, 127
1, 89221, Note_on_c, 0, 76, 66
1, 89327, Note_off_c, 0, 57, 64
1, 89410, Note_off_c, 0, 76, 64
1, 89415, Note_on_c, 0, 68, 47
1, 89419, Note_off_c, 0, 41, 64
1, 89427, Note_on_c, 0, 74, 69
1, 89527, Note_off_c, 0, 68, 64
1, 89527, Note_off_c, 0, 74, 64
1, 89658, Note_on_c, 0, 74, 73
1, 89658, Note_on_c, 0, 65, 44
1, 89658, Note_on_c, 0, 50, 37
1, 89661, Note_on_c, 0, 69, 40
1, 89666, Note_on_c, 0, 38, 28
1, 89714, Control_c, 0, 64, 0
1, 89816, Note_off_c, 0, 65, 64
1, 89834, Control_c, 0, 64, 127
1, 89856, Note_off_c, 0, 69, 64
1, 89883, Note_on_c, 0, 77, 71
1, 89895, Note_off_c, 0, 50, 64
1, 89927, Note_off_c, 0, 74, 64
1, 90097, Note_on_c, 0, 76, 63
1, 90097, Note_on_c, 0, 71, 51
1, 90097, Note_off_c, 0, 38, 64
1, 90120, Note_off_c, 0, 77, 64
1, 90136, Note_off_c, 0, 76, 64
1, 90143, Note_off_c, 0, 71, 64
1, 90312, Note_on_c, 0, 76, 67
1, 90315, Note_on_c, 0, 69, 35
1, 90315, Note_on_c, 0, 72, 42
1, 90326, Control_c, 0, 64, 0
1, 90326, Note_on_c, 0, 48, 30
1, 90335, Note_on_c, 0, 36, 29
1, 90449, Note_off_c, 0, 72, 64
1, 90454, Note_off_c, 0, 36, 64
1, 90469, Control_c, 0, 64, 127
1, 90504, Note_off_c, 0, 69, 64
1, 90504, Note_off_c, 0, 48, 64
1, 90518, Note_off_c, 0, 76, 64
1, 90535, Note_on_c, 0, 81, 69
1, 90717, Note_off_c, 0, 81, 64
1, 90738, Note_on_c, 0, 80, 66
1, 90763, Note_on_c, 0, 71, 37
1, 90763, Note_on_c, 0, 41, 52
1, 90802, Note_off_c, 0, 41, 64
1, 90817, Note_off_c, 0, 71, 64
1, 90981, Note_off_c, 0, 80, 64
1, 90981, Note_on_c, 0, 81, 62
1, 90992, Note_on_c, 0, 72, 43
1, 90997, Note_on_c, 0, 65, 52
1, 91028, Note_on_c, 0, 53, 72
1, 91057, Control_c, 0, 64, 0
1, 91182, Note_off_c, 0, 72, 64
1, 91190, Control_c, 0, 64, 127
1, 91212, Note_off_c, 0, 65, 64
1, 91226, Note_on_c, 0, 76, 49
1, 91238, Note_off_c, 0, 81, 64
1, 91265, Note_off_c, 0, 76, 64
1, 91270, Note_off_c, 0, 53, 64
1, 91435, Note_on_c, 0, 72, 57
1, 91441, Note_on_c, 0, 69, 34
1, 91494, Note_off_c, 0, 69, 64
1, 91619, Note_off_c, 0, 72, 64
1, 91657, Note_on_c, 0, 69, 58
1, 91660, Note_on_c, 0, 60, 47
1, 91666, Note_on_c, 0, 52, 61
1, 91666, Note_on_c, 0, 65, 35
1, 91674, Note_on_c, 0, 40, 47
1, 91728, Control_c, 0, 64, 0
1, 91872, Control_c, 0, 64, 127
1, 91889, Note_on_c, 0, 71, 74
1, 91908, Note_off_c, 0, 60, 64
1, 91942, Note_off_c, 0, 52, 64
1, 91942, Note_off_c, 0, 69, 64
1, 91942, Note_off_c, 0, 40, 64
1, 91961, Note_off_c, 0, 65, 64
1, 92078, Note_off_c, 0, 71, 64
1, 92112, Note_on_c, 0, 69, 39
1, 92112, Note_on_c, 0, 72, 66
1, 92131, Note_on_c, 0, 38, 55
1, 92150, Note_off_c, 0, 72, 64
1, 92160, Note_off_c, 0, 69, 64
1, 92165, Note_off_c, 0, 38, 64
1, 92344, Note_on_c, 0, 77, 61
1, 92359, Note_on_c, 0, 69, 31
1, 92380, Note_on_c, 0, 62, 47
1, 92390, Note_on_c, 0, 50, 34
1, 92399, Control_c, 0, 64, 0
1, 92555, Control_c, 0, 64, 127
1, 92580, Note_on_c, 0, 76, 57
1, 92591, Note_off_c, 0, 62, 64
1, 92600, Note_off_c, 0, 77, 64
1, 92618, Note_off_c, 0, 76, 64
1, 92686, Note_off_c, 0, 50, 64
1, 92791, Note_on_c, 0, 68, 46
1, 92795, Note_on_c, 0, 74, 63
1, 92844, Note_off_c, 0, 69, 64
1, 92867, Note_off_c, 0, 74, 64
1, 92876, Note_off_c, 0, 68, 64
1, 93017, Note_on_c, 0, 72, 54
1, 93029, Note_on_c, 0, 66, 31
1, 93032, Note_on_c, 0, 51, 36
1, 93039, Note_on_c, 0, 69, 26
1, 93039, Note_on_c, 0, 39, 29
1, 93059, Control_c, 0, 64, 0
1, 93213, Control_c, 0, 64, 127
1, 93235, Note_on_c, 0, 71, 74
1, 93241, Note_off_c, 0, 72, 64
1, 93282, Note_off_c, 0, 66, 64
1, 93285, Note_off_c, 0, 69, 64
1, 93304, Note_off_c, 0, 71, 64
1, 93408, Note_off_c, 0, 51, 64
1, 93413, Note_off_c, 0, 39, 64
1, 93463, Note_on_c, 0, 69, 51
1, 93469, Note_on_c, 0, 66, 43
1, 93578, Note_off_c, 0, 66, 64
1, 93588, Note_off_c, 0, 69, 64
1, 93680, Note_on_c, 0, 64, 59
1, 93685, Note_on_c, 0, 52, 41
1, 93685, Note_on_c, 0, 40, 42
1, 93691, Note_on_c, 0, 59, 46
1, 93753, Control_c, 0, 64, 0
1, 93877, Note_off_c, 0, 59, 64
1, 93884, Note_off_c, 0, 52, 64
1, 93884, Control_c, 0, 64, 127
1, 93890, Note_off_c, 0, 40, 64
1, 93909, Note_on_c, 0, 69, 53
1, 93972, Note_off_c, 0, 64, 64
1, 94075, Note_off_c, 0, 69, 64
1, 94121, Note_on_c, 0, 68, 68
1, 94129, Note_on_c, 0, 62, 43
1, 94162, Note_off_c, 0, 68, 64
1, 94174, Note_off_c, 0, 62, 64
1, 94346, Note_on_c, 0, 72, 99
1, 94357, Note_on_c, 0, 69, 71
1, 94362, Note_on_c, 0, 60, 63
1, 94368, Note_on_c, 0, 64, 57
1, 94377, Note_on_c, 0, 57, 47
1, 94388, Control_c, 0, 64, 0
1, 94541, Note_off_c, 0, 72, 64
1, 94544, Control_c, 0, 64, 127
1, 94583, Note_off_c, 0, 64, 64
1, 94583, Note_on_c, 0, 72, 89
1, 94613, Note_off_c, 0, 57, 64
1, 94621, Note_off_c, 0, 60, 64
1, 94811, Note_on_c, 0, 76, 70
1, 94822, Note_off_c, 0, 69, 64
1, 95053, Note_on_c, 0, 81, 85
1, 95056, Note_on_c, 0, 57, 63
1, 95059, Note_on_c, 0, 45, 56
1, 95081, Note_off_c, 0, 72, 64
1, 95149, Note_off_c, 0, 57, 64
1, 95162, Note_off_c, 0, 76, 64
1, 95168, Note_off_c, 0, 45, 64
1, 95291, Note_off_c, 0, 81, 64
1, 95723, Note_on_c, 0, 74, 102
1, 95734, Note_on_c, 0, 62, 74
1, 95734, Note_on_c, 0, 59, 80
1, 95737, Note_on_c, 0, 67, 59
1, 95744, Note_on_c, 0, 47, 65
1, 96042, Control_c, 0, 64, 0
1, 96198, Control_c, 0, 64, 127
1, 96255, Note_off_c, 0, 67, 64
1, 96268, Note_off_c, 0, 59, 64
1, 96271, Note_off_c, 0, 47, 64
1, 96280, Note_off_c, 0, 74, 64
1, 96285, Note_off_c, 0, 62, 64
1, 96397, Note_on_c, 0, 76, 101
1, 96405, Note_on_c, 0, 67, 62
1, 96413, Note_on_c, 0, 60, 71
1, 96413, Note_on_c, 0, 64, 65
1, 96413, Control_c, 0, 64, 0
1, 96419, Note_on_c, 0, 48, 58
1, 96571, Note_off_c, 0, 67, 64
1, 96571, Control_c, 0, 64, 127
1, 96580, Note_off_c, 0, 64, 64
1, 96684, Note_on_c, 0, 72, 79
1, 96845, Note_off_c, 0, 76, 64
1, 96926, Note_on_c, 0, 74, 89
1, 96979, Note_off_c, 0, 72, 64
1, 97046, Note_off_c, 0, 48, 64
1, 97131, Note_on_c, 0, 76, 83
1, 97146, Note_on_c, 0, 57, 59
1, 97151, Note_on_c, 0, 69, 42
1, 97159, Note_on_c, 0, 72, 40
1, 97174, Note_off_c, 0, 74, 64
1, 97215, Note_off_c, 0, 72, 64
1, 97277, Note_off_c, 0, 69, 64
1, 97318, Note_off_c, 0, 60, 64
1, 97340, Note_off_c, 0, 57, 64
1, 97355, Note_on_c, 0, 79, 94
1, 97379, Note_off_c, 0, 76, 64
1, 97560, Note_on_c, 0, 77, 92
1, 97566, Note_on_c, 0, 74, 79
1, 97594, Note_off_c, 0, 79, 64
1, 97600, Note_off_c, 0, 74, 64
1, 97664, Note_off_c, 0, 77, 64
1, 97677, Note_on_c, 0, 52, 44
1, 97716, Note_on_c, 0, 60, 48
1, 97733, Control_c, 0, 64, 0
1, 97750, Note_on_c, 0, 76, 100
1, 97766, Note_on_c, 0, 79, 97
1, 97766, Note_on_c, 0, 64, 65
1, 97772, Note_on_c, 0, 67, 75
1, 97814, Note_off_c, 0, 67, 64
1, 97864, Control_c, 0, 64, 127
1, 97867, Note_off_c, 0, 79, 64
1, 97914, Note_off_c, 0, 76, 64
1, 97989, Note_on_c, 0, 82, 83
1, 97993, Note_on_c, 0, 70, 65
1, 98034, Note_off_c, 0, 70, 64
1, 98095, Note_off_c, 0, 82, 64
1, 98202, Note_on_c, 0, 72, 75
1, 98210, Note_on_c, 0, 81, 83
1, 98210, Note_off_c, 0, 52, 64
1, 98229, Note_off_c, 0, 60, 64
1, 98229, Note_on_c, 0, 69, 32
1, 98229, Note_off_c, 0, 64, 64
1, 98285, Note_off_c, 0, 72, 64
1, 98290, Note_off_c, 0, 69, 64
1, 98301, Note_off_c, 0, 81, 64
1, 98460, Note_on_c, 0, 74, 107
1, 98464, Control_c, 0, 64, 0
1, 98472, Note_on_c, 0, 62, 52
1, 98483, Note_on_c, 0, 69, 62
1, 98483, Note_on_c, 0, 57, 42
1, 98492, Note_on_c, 0, 81, 54
1, 98492, Note_on_c, 0, 53, 50
1, 98500, Note_on_c, 0, 77, 32
1, 98599, Note_off_c, 0, 69, 64
1, 98599, Note_off_c, 0, 77, 64
1, 98619, Control_c, 0, 64, 127
1, 98638, Note_off_c, 0, 81, 64
1, 98648, Note_off_c, 0, 74, 64
1, 98737, Note_on_c, 0, 72, 67
1, 98737, Note_on_c, 0, 84, 88
1, 98776, Note_off_c, 0, 53, 64
1, 98779, Note_off_c, 0, 72, 64
1, 98789, Note_off_c, 0, 84, 64
1, 98798, Note_off_c, 0, 62, 64
1, 98867, Note_off_c, 0, 57, 64
1, 98960, Note_on_c, 0, 83, 99
1, 98976, Note_on_c, 0, 79, 64
1, 98979, Note_on_c, 0, 71, 56
1, 99021, Note_off_c, 0, 71, 64
1, 99076, Note_off_c, 0, 83, 64
1, 99176, Note_off_c, 0, 79, 64
1, 99191, Note_on_c, 0, 84, 89
1, 99191, Note_on_c, 0, 72, 65
1, 99191, Note_on_c, 0, 81, 65
1, 99201, Note_on_c, 0, 50, 43
1, 99208, Note_on_c, 0, 38, 35
1, 99257, Note_off_c, 0, 38, 64
1, 99271, Note_off_c, 0, 81, 64
1, 99277, Note_off_c, 0, 84, 64
1, 99307, Note_off_c, 0, 50, 64
1, 99413, Note_on_c, 0, 81, 80
1, 99491, Note_off_c, 0, 72, 64
1, 99521, Note_off_c, 0, 81, 64
1, 99553, Note_on_c, 0, 64, 81
1, 99556, Note_on_c, 0, 76, 77
1, 99648, Note_off_c, 0, 64, 64
1, 99648, Note_off_c, 0, 76, 64
1, 99728, Note_on_c, 0, 77, 81
1, 99734, Note_on_c, 0, 65, 76
1, 99842, Note_off_c, 0, 65, 64
1, 99912, Note_off_c, 0, 77, 64
1, 99923, Note_on_c, 0, 74, 84
1, 99939, Note_on_c, 0, 71, 60
1, 99939, Note_on_c, 0, 67, 52
1, 99949, Note_on_c, 0, 62, 72
1, 99954, Note_on_c, 0, 55, 52
1, 99974, Control_c, 0, 64, 0
1, 100165, Control_c, 0, 64, 127
1, 100171, Note_on_c, 0, 76, 61
1, 100183, Note_off_c, 0, 55, 64
1, 100219, Note_off_c, 0, 67, 64
1, 100224, Note_off_c, 0, 74, 64
1, 100247, Note_off_c, 0, 71, 64
1, 100261, Note_off_c, 0, 62, 64
1, 100322, Note_off_c, 0, 76, 64
1, 100389, Note_on_c, 0, 74, 54
1, 100394, Note_on_c, 0, 77, 61
1, 100436, Note_off_c, 0, 74, 64
1, 100467, Note_off_c, 0, 77, 64
1, 100614, Note_on_c, 0, 72, 83
1, 100634, Note_on_c, 0, 76, 52
1, 100634, Note_on_c, 0, 67, 49
1, 100637, Note_on_c, 0, 60, 41
1, 100650, Note_on_c, 0, 48, 26
1, 100656, Control_c, 0, 64, 0
1, 100701, Note_off_c, 0, 67, 64
1, 100848, Control_c, 0, 64, 127
1, 100851, Note_off_c, 0, 76, 64
1, 100876, Note_on_c, 0, 79, 75
1, 100906, Note_off_c, 0, 72, 64
1, 100993, Note_off_c, 0, 60, 64
1, 101084, Note_off_c, 0, 79, 64
1, 101093, Note_on_c, 0, 77, 67
1, 101138, Note_off_c, 0, 48, 64
1, 101176, Note_off_c, 0, 77, 64
1, 101305, Note_on_c, 0, 79, 66
1, 101305, Note_on_c, 0, 72, 31
1, 101319, Note_on_c, 0, 60, 26
1, 101327, Note_on_c, 0, 67, 24
1, 101327, Note_on_c, 0, 52, 30
1, 101352, Control_c, 0, 64, 0
1, 101483, Control_c, 0, 64, 127
1, 101530, Note_off_c, 0, 67, 64
1, 101534, Note_off_c, 0, 79, 64
1, 101541, Note_on_c, 0, 76, 50
1, 101547, Note_off_c, 0, 60, 64
1, 101567, Note_off_c, 0, 72, 64
1, 101578, Note_off_c, 0, 76, 64
1, 101622, Note_off_c, 0, 52, 64
1, 101745, Note_on_c, 0, 72, 50
1, 101920, Note_off_c, 0, 72, 64
1, 101968, Note_on_c, 0, 67, 41
1, 101976, Note_on_c, 0, 64, 35
1, 101976, Note_on_c, 0, 48, 19
1, 101976, Note_on_c, 0, 36, 17
1, 102102, Note_off_c, 0, 48, 64
1, 102130, Note_off_c, 0, 64, 64
1, 102133, Note_off_c, 0, 36, 64
1, 102187, Note_on_c, 0, 69, 39
1, 102226, Note_off_c, 0, 67, 64
1, 102310, Note_off_c, 0, 69, 64
1, 102392, Note_on_c, 0, 70, 51
1, 102416, Note_on_c, 0, 62, 36
1, 102480, Note_off_c, 0, 62, 64
1, 102494, Note_off_c, 0, 70, 64
1, 102620, Note_on_c, 0, 69, 40
1, 102623, Control_c, 0, 64, 0
1, 102636, Note_on_c, 0, 41, 35
1, 102640, Note_on_c, 0, 53, 48
1, 102640, Note_on_c, 0, 60, 31
1, 102650, Note_on_c, 0, 65, 19
1, 102803, Control_c, 0, 64, 127
1, 102803, Note_off_c, 0, 53, 64
1, 102811, Note_off_c, 0, 60, 64
1, 102850, Note_off_c, 0, 41, 64
1, 102853, Note_on_c, 0, 72, 50
1, 102867, Note_off_c, 0, 65, 64
1, 102895, Note_off_c, 0, 69, 64
1, 103041, Note_off_c, 0, 72, 64
1, 103077, Note_on_c, 0, 71, 63
1, 103085, Note_on_c, 0, 64, 48
1, 103151, Note_off_c, 0, 64, 64
1, 103190, Note_off_c, 0, 71, 64
1, 103299, Note_on_c, 0, 69, 29
1, 103299, Note_on_c, 0, 65, 35
1, 103305, Control_c, 0, 64, 0
1, 103305, Note_on_c, 0, 72, 48
1, 103308, Note_on_c, 0, 50, 32
1, 103313, Note_on_c, 0, 38, 28
1, 103414, Note_off_c, 0, 69, 64
1, 103474, Control_c, 0, 64, 127
1, 103508, Note_off_c, 0, 38, 64
1, 103533, Note_on_c, 0, 69, 43
1, 103553, Note_off_c, 0, 65, 64
1, 103561, Note_off_c, 0, 50, 64
1, 103575, Note_off_c, 0, 72, 64
1, 103606, Note_off_c, 0, 69, 64
1, 103739, Note_on_c, 0, 65, 45
1, 103910, Note_off_c, 0, 65, 64
1, 103948, Note_on_c, 0, 71, 52
1, 103951, Note_on_c, 0, 62, 36
1, 103951, Control_c, 0, 64, 0
1, 103957, Note_on_c, 0, 67, 27
1, 103968, Note_on_c, 0, 55, 26
1, 103977, Note_on_c, 0, 43, 27
1, 104132, Control_c, 0, 64, 127
1, 104147, Note_off_c, 0, 62, 64
1, 104176, Note_on_c, 0, 64, 35
1, 104183, Note_off_c, 0, 55, 64
1, 104196, Note_off_c, 0, 71, 64
1, 104219, Note_off_c, 0, 67, 64
1, 104219, Note_off_c, 0, 64, 64
1, 104239, Note_off_c, 0, 43, 64
1, 104389, Note_on_c, 0, 74, 50
1, 104394, Note_on_c, 0, 65, 38
1, 104435, Note_off_c, 0, 74, 64
1, 104452, Note_off_c, 0, 65, 64
1, 104611, Control_c, 0, 64, 0
1, 104633, Note_on_c, 0, 72, 36
1, 104633, Note_on_c, 0, 64, 33
1, 104640, Note_on_c, 0, 48, 23
1, 104645, Note_on_c, 0, 67, 25
1, 104659, Note_on_c, 0, 36, 23
1, 104707, Note_off_c, 0, 67, 64
1, 104743, Note_off_c, 0, 64, 64
1, 104768, Control_c, 0, 64, 127
1, 104865, Note_on_c, 0, 60, 37
1, 104931, Note_off_c, 0, 60, 64
1, 105080, Note_off_c, 0, 72, 64
1, 105093, Note_on_c, 0, 62, 42
1, 105093, Note_on_c, 0, 67, 38
1, 105216, Note_off_c, 0, 62, 64
1, 105302, Note_off_c, 0, 67, 64
1, 105310, Note_on_c, 0, 72, 45
1, 105319, Control_c, 0, 64, 0
1, 105319, Note_on_c, 0, 64, 46
1, 105369, Note_off_c, 0, 36, 64
1, 105399, Note_off_c, 0, 48, 64
1, 105498, Control_c, 0, 64, 127
1, 105533, Note_on_c, 0, 67, 48
1, 105548, Note_off_c, 0, 64, 64
1, 105567, Note_off_c, 0, 72, 64
1, 105731, Note_off_c, 0, 67, 64
1, 105742, Note_on_c, 0, 69, 37
1, 105746, Note_on_c, 0, 66, 30
1, 105746, Note_on_c, 0, 48, 41
1, 105760, Note_on_c, 0, 62, 34
1, 105821, Note_off_c, 0, 62, 64
1, 105851, Note_off_c, 0, 69, 64
1, 105874, Note_off_c, 0, 66, 64
1, 105954, Control_c, 0, 64, 0
1, 105985, Note_on_c, 0, 74, 44
1, 105993, Note_on_c, 0, 62, 29
1, 106005, Note_on_c, 0, 47, 41
1, 106005, Note_on_c, 0, 67, 35
1, 106029, Note_off_c, 0, 48, 64
1, 106230, Note_off_c, 0, 47, 64
1, 106230, Control_c, 0, 64, 127
1, 106246, Note_on_c, 0, 71, 42
1, 106258, Note_off_c, 0, 62, 64
1, 106297, Note_off_c, 0, 67, 64
1, 106370, Note_off_c, 0, 74, 64
1, 106414, Note_off_c, 0, 71, 64
1, 106478, Note_on_c, 0, 50, 48
1, 106481, Note_on_c, 0, 66, 16
1, 106500, Note_on_c, 0, 62, 13
1, 106503, Note_on_c, 0, 69, 15
1, 106517, Control_c, 0, 64, 0
1, 106650, Note_off_c, 0, 62, 64
1, 106650, Control_c, 0, 64, 127
1, 106650, Note_off_c, 0, 66, 64
1, 106698, Note_on_c, 0, 43, 38
1, 106840, Control_c, 0, 64, 0
1, 106859, Note_on_c, 0, 71, 51
1, 106871, Note_on_c, 0, 62, 27
1, 106874, Note_on_c, 0, 67, 24
1, 106881, Note_off_c, 0, 69, 64
1, 106915, Note_off_c, 0, 50, 64
1, 106923, Note_on_c, 0, 59, 62
1, 106985, Note_off_c, 0, 67, 64
1, 107041, Note_off_c, 0, 62, 64
1, 107129, Control_c, 0, 64, 127
1, 107264, Note_off_c, 0, 43, 64
1, 107264, Note_on_c, 0, 67, 27
1, 107300, Note_off_c, 0, 71, 64
1, 107420, Note_off_c, 0, 67, 64
1, 107497, Note_on_c, 0, 69, 23
1, 107696, Note_off_c, 0, 69, 64
1, 107718, Note_on_c, 0, 67, 20
1, 107721, Note_on_c, 0, 71, 36
1, 107757, Note_on_c, 0, 55, 25
1, 107957, Note_off_c, 0, 71, 64
1, 107976, Note_on_c, 0, 74, 42
1, 108161, Note_off_c, 0, 74, 64
1, 108186, Note_on_c, 0, 66, 24
1, 108189, Note_on_c, 0, 72, 42
1, 108228, Note_off_c, 0, 59, 64
1, 108236, Note_off_c, 0, 67, 64
1, 108278, Note_off_c, 0, 72, 64
1, 108296, Note_off_c, 0, 66, 64
1, 108413, Note_on_c, 0, 72, 46
1, 108419, Note_on_c, 0, 67, 32
1, 108436, Note_on_c, 0, 64, 22
1, 108445, Note_on_c, 0, 60, 63
1, 108489, Note_on_c, 0, 52, 31
1, 108494, Control_c, 0, 64, 0
1, 108601, Note_off_c, 0, 64, 64
1, 108620, Note_off_c, 0, 55, 64
1, 108626, Note_off_c, 0, 67, 64
1, 108639, Control_c, 0, 64, 127
1, 108690, Note_on_c, 0, 76, 31
1, 108729, Note_off_c, 0, 72, 64
1, 108729, Note_off_c, 0, 52, 64
1, 108904, Note_on_c, 0, 74, 41
1, 108909, Note_off_c, 0, 76, 64
1, 108912, Note_on_c, 0, 69, 14
1, 108938, Note_off_c, 0, 60, 64
1, 108946, Note_off_c, 0, 74, 64
1, 108996, Note_off_c, 0, 69, 64
1, 109026, Note_on_c, 0, 47, 22
1, 109149, Note_on_c, 0, 74, 45
1, 109149, Note_on_c, 0, 67, 40
1, 109177, Note_on_c, 0, 71, 29
1, 109200, Note_on_c, 0, 62, 47
1, 109238, Control_c, 0, 64, 0
1, 109387, Note_off_c, 0, 71, 64
1, 109430, Control_c, 0, 64, 127
1, 109447, Note_off_c, 0, 67, 64
1, 109447, Note_on_c, 0, 79, 52
1, 109456, Note_off_c, 0, 74, 64
1, 109529, Note_off_c, 0, 62, 64
1, 109625, Note_off_c, 0, 47, 64
1, 109640, Note_off_c, 0, 79, 64
1, 109671, Note_on_c, 0, 78, 49
1, 109695, Note_on_c, 0, 69, 20
1, 109754, Note_off_c, 0, 69, 64
1, 109776, Note_off_c, 0, 78, 64
1, 109885, Note_on_c, 0, 79, 56
1, 109907, Note_on_c, 0, 67, 18
1, 109924, Note_on_c, 0, 40, 35
1, 109972, Note_off_c, 0, 40, 64
1, 110065, Note_off_c, 0, 67, 64
1, 110138, Note_off_c, 0, 79, 64
1, 110146, Note_on_c, 0, 74, 44
1, 110183, Note_off_c, 0, 74, 64
1, 110355, Note_on_c, 0, 71, 56
1, 110366, Note_on_c, 0, 66, 16
1, 110450, Note_off_c, 0, 66, 64
1, 110553, Note_off_c, 0, 71, 64
1, 110572, Note_on_c, 0, 67, 42
1, 110590, Note_on_c, 0, 64, 25
1, 110620, Note_on_c, 0, 62, 66
1, 110654, Note_off_c, 0, 64, 64
1, 110654, Note_on_c, 0, 59, 39
1, 110659, Note_on_c, 0, 52, 24
1, 110699, Note_off_c, 0, 67, 64
1, 110729, Note_off_c, 0, 52, 64
1, 110759, Note_off_c, 0, 59, 64
1, 110809, Note_off_c, 0, 62, 64
1, 110816, Note_on_c, 0, 69, 29
1, 110926, Note_off_c, 0, 69, 64
1, 111038, Note_on_c, 0, 67, 47
1, 111044, Note_on_c, 0, 71, 52
1, 111085, Note_off_c, 0, 67, 64
1, 111085, Note_off_c, 0, 71, 64
1, 111150, Note_on_c, 0, 45, 36
1, 111280, Note_on_c, 0, 64, 50
1, 111280, Note_on_c, 0, 72, 49
1, 111334, Note_on_c, 0, 60, 66
1, 111359, Control_c, 0, 64, 0
1, 111547, Note_on_c, 0, 74, 57
1, 111576, Note_off_c, 0, 72, 64
1, 111581, Note_off_c, 0, 74, 64
1, 111587, Control_c, 0, 64, 127
1, 111710, Note_off_c, 0, 64, 64
1, 111724, Note_off_c, 0, 45, 64
1, 111749, Note_on_c, 0, 76, 68
1, 111759, Note_on_c, 0, 66, 17
1, 111770, Note_off_c, 0, 60, 64
1, 111848, Note_off_c, 0, 76, 64
1, 111880, Note_off_c, 0, 66, 64
1, 111977, Note_on_c, 0, 74, 61
1, 111991, Note_on_c, 0, 67, 28
1, 111991, Note_on_c, 0, 59, 57
1, 112002, Note_on_c, 0, 62, 20
1, 112022, Note_on_c, 0, 47, 23
1, 112030, Control_c, 0, 64, 0
1, 112219, Note_on_c, 0, 72, 44
1, 112224, Note_off_c, 0, 74, 64
1, 112227, Note_off_c, 0, 62, 64
1, 112234, Control_c, 0, 64, 127
1, 112275, Note_off_c, 0, 72, 64
1, 112311, Note_off_c, 0, 67, 64
1, 112414, Note_off_c, 0, 47, 64
1, 112429, Note_on_c, 0, 71, 50
1, 112444, Note_on_c, 0, 62, 34
1, 112514, Note_off_c, 0, 62, 64
1, 112618, Note_off_c, 0, 71, 64
1, 112674, Note_on_c, 0, 69, 31
1, 112690, Note_on_c, 0, 60, 19
1, 112690, Note_on_c, 0, 48, 27
1, 112701, Control_c, 0, 64, 0
1, 112701, Note_on_c, 0, 64, 32
1, 112905, Control_c, 0, 64, 127
1, 112929, Note_on_c, 0, 71, 43
1, 112936, Note_off_c, 0, 69, 64
1, 113002, Note_off_c, 0, 71, 64
1, 113018, Note_off_c, 0, 64, 64
1, 113075, Note_off_c, 0, 60, 64
1, 113107, Note_off_c, 0, 59, 64
1, 113149, Note_on_c, 0, 67, 40
1, 113158, Note_off_c, 0, 48, 64
1, 113245, Note_off_c, 0, 67, 64
1, 113367, Note_on_c, 0, 57, 39
1, 113372, Note_on_c, 0, 66, 33
1, 113394, Note_on_c, 0, 50, 27
1, 113456, Control_c, 0, 64, 0
1, 113593, Note_on_c, 0, 62, 45
1, 113684, Note_off_c, 0, 66, 64
1, 113696, Control_c, 0, 64, 127
1, 113757, Note_off_c, 0, 62, 64
1, 113795, Note_on_c, 0, 61, 36
1, 113801, Note_on_c, 0, 64, 33
1, 113935, Note_off_c, 0, 61, 64
1, 113996, Control_c, 0, 64, 0
1, 114004, Note_off_c, 0, 64, 64
1, 114010, Note_on_c, 0, 66, 37
1, 114025, Note_on_c, 0, 62, 35
1, 114152, Control_c, 0, 64, 127
1, 114160, Note_off_c, 0, 57, 64
1, 114186, Note_off_c, 0, 62, 64
1, 114195, Note_off_c, 0, 50, 64
1, 114217, Note_off_c, 0, 66, 64
1, 114233, Note_on_c, 0, 69, 24
1, 114414, Note_off_c, 0, 69, 64
1, 114457, Note_on_c, 0, 57, 22
1, 114457, Note_on_c, 0, 67, 35
1, 114461, Note_on_c, 0, 64, 34
1, 114461, Note_on_c, 0, 50, 27
1, 114465, Note_on_c, 0, 38, 22
1, 114514, Note_off_c, 0, 57, 64
1, 114514, Note_off_c, 0, 64, 64
1, 114521, Note_off_c, 0, 38, 64
1, 114534, Note_off_c, 0, 50, 64
1, 114550, Note_off_c, 0, 67, 64
1, 114685, Note_on_c, 0, 66, 23
1, 114685, Note_on_c, 0, 69, 26
1, 114696, Note_on_c, 0, 62, 30
1, 114706, Note_on_c, 0, 50, 31
1, 114710, Note_on_c, 0, 38, 33
1, 114738, Control_c, 0, 64, 0
1, 114849, Note_off_c, 0, 50, 64
1, 114883, Control_c, 0, 64, 127
1, 114901, Note_off_c, 0, 62, 64
1, 114908, Note_on_c, 0, 72, 36
1, 114913, Note_off_c, 0, 38, 64
1, 114927, Note_off_c, 0, 69, 64
1, 114960, Note_off_c, 0, 66, 64
1, 115102, Note_off_c, 0, 72, 64
1, 115102, Note_on_c, 0, 38, 49
1, 115110, Note_on_c, 0, 71, 51
1, 115114, Note_on_c, 0, 62, 37
1, 115117, Note_on_c, 0, 67, 35
1, 115172, Note_off_c, 0, 38, 64
1, 115181, Note_off_c, 0, 62, 64
1, 115181, Note_off_c, 0, 67, 64
1, 115314, Control_c, 0, 64, 0
1, 115354, Note_off_c, 0, 71, 64
1, 115361, Note_on_c, 0, 69, 31
1, 115361, Note_on_c, 0, 26, 39
1, 115370, Note_on_c, 0, 66, 16
1, 115370, Note_on_c, 0, 72, 44
1, 115397, Note_on_c, 0, 38, 31
1, 115492, Note_off_c, 0, 69, 64
1, 115590, Note_on_c, 0, 69, 24
1, 115638, Control_c, 0, 64, 127
1, 115646, Note_off_c, 0, 66, 64
1, 115663, Note_off_c, 0, 38, 64
1, 115687, Note_off_c, 0, 26, 64
1, 115805, Note_on_c, 0, 66, 32
1, 115854, Note_off_c, 0, 69, 64
1, 116024, Note_on_c, 0, 62, 36
1, 116036, Note_off_c, 0, 66, 64
1, 116163, Note_off_c, 0, 62, 64
1, 116231, Note_on_c, 0, 66, 31
1, 116248, Note_off_c, 0, 72, 64
1, 116434, Note_on_c, 0, 69, 32
1, 116461, Note_on_c, 0, 62, 22
1, 116484, Note_on_c, 0, 50, 8
1, 116500, Note_off_c, 0, 66, 64
1, 116537, Note_off_c, 0, 62, 64
1, 116554, Note_off_c, 0, 50, 64
1, 116680, Note_on_c, 0, 72, 33
1, 116683, Note_on_c, 0, 66, 17
1, 116690, Note_off_c, 0, 69, 64
1, 116698, Note_on_c, 0, 62, 26
1, 116702, Note_on_c, 0, 57, 23
1, 116705, Note_on_c, 0, 50, 22
1, 116818, Note_off_c, 0, 50, 64
1, 116822, Note_off_c, 0, 57, 64
1, 116833, Note_off_c, 0, 62, 64
1, 116904, Note_on_c, 0, 71, 49
1, 116933, Note_off_c, 0, 72, 64
1, 116966, Note_off_c, 0, 66, 64
1, 117124, Note_off_c, 0, 71, 64
1, 117128, Note_on_c, 0, 69, 34
1, 117145, Note_on_c, 0, 66, 19
1, 117145, Note_on_c, 0, 62, 29
1, 117170, Note_on_c, 0, 50, 15
1, 117219, Note_off_c, 0, 66, 64
1, 117244, Note_off_c, 0, 62, 64
1, 117331, Note_off_c, 0, 50, 64
1, 117409, Note_off_c, 0, 69, 64
1, 117409, Note_on_c, 0, 71, 45
1, 117434, Note_on_c, 0, 67, 11
1, 117442, Note_on_c, 0, 59, 64
1, 117476, Note_on_c, 0, 55, 34
1, 117501, Note_off_c, 0, 67, 64
1, 117543, Control_c, 0, 64, 0
1, 117696, Note_on_c, 0, 67, 47
1, 117735, Control_c, 0, 64, 127
1, 117840, Note_off_c, 0, 67, 64
1, 117910, Note_off_c, 0, 71, 64
1, 117910, Note_on_c, 0, 69, 41
1, 118145, Note_on_c, 0, 71, 44
1, 118158, Note_on_c, 0, 67, 27
1, 118167, Note_off_c, 0, 69, 64
1, 118177, Note_on_c, 0, 54, 39
1, 118177, Note_off_c, 0, 55, 64
1, 118226, Control_c, 0, 64, 0
1, 118370, Control_c, 0, 64, 127
1, 118392, Note_on_c, 0, 74, 48
1, 118404, Note_off_c, 0, 71, 64
1, 118587, Note_off_c, 0, 74, 64
1, 118606, Note_on_c, 0, 72, 50
1, 118615, Note_on_c, 0, 66, 23
1, 118626, Note_off_c, 0, 67, 64
1, 118693, Note_off_c, 0, 72, 64
1, 118701, Note_off_c, 0, 66, 64
1, 118719, Note_off_c, 0, 59, 64
1, 118838, Note_on_c, 0, 72, 47
1, 118846, Note_on_c, 0, 64, 37
1, 118857, Note_on_c, 0, 67, 21
1, 118889, Note_on_c, 0, 60, 72
1, 118897, Note_off_c, 0, 54, 64
1, 118933, Control_c, 0, 64, 0
1, 118967, Note_on_c, 0, 52, 29
1, 119014, Note_off_c, 0, 64, 64
1, 119014, Note_off_c, 0, 67, 64
1, 119078, Control_c, 0, 64, 127
1, 119106, Note_on_c, 0, 76, 38
1, 119158, Note_off_c, 0, 72, 64
1, 119181, Note_off_c, 0, 52, 64
1, 119304, Note_off_c, 0, 60, 64
1, 119329, Note_on_c, 0, 74, 47
1, 119329, Note_on_c, 0, 69, 26
1, 119347, Note_off_c, 0, 76, 64
1, 119367, Note_off_c, 0, 74, 64
1, 119401, Note_off_c, 0, 69, 64
1, 119431, Note_on_c, 0, 47, 39
1, 119548, Note_on_c, 0, 74, 50
1, 119557, Note_on_c, 0, 67, 28
1, 119579, Note_on_c, 0, 71, 19
1, 119588, Note_on_c, 0, 62, 71
1, 119616, Control_c, 0, 64, 0
1, 119730, Note_off_c, 0, 71, 64
1, 119785, Control_c, 0, 64, 127
1, 119822, Note_on_c, 0, 79, 56
1, 119822, Note_off_c, 0, 74, 64
1, 119830, Note_off_c, 0, 67, 64
1, 119863, Note_off_c, 0, 62, 64
1, 119956, Note_off_c, 0, 47, 64
1, 120008, Note_off_c, 0, 79, 64
1, 120042, Note_on_c, 0, 78, 55
1, 120066, Note_on_c, 0, 69, 25
1, 120125, Note_off_c, 0, 69, 64
1, 120258, Note_off_c, 0, 78, 64
1, 120278, Note_on_c, 0, 79, 51
1, 120312, Note_on_c, 0, 35, 34
1, 120318, Note_on_c, 0, 67, 7
1, 120361, Note_off_c, 0, 35, 64
1, 120389, Note_off_c, 0, 67, 64
1, 120478, Note_off_c, 0, 79, 64
1, 120513, Note_on_c, 0, 74, 48
1, 120556, Note_off_c, 0, 74, 64
1, 120738, Note_on_c, 0, 66, 26
1, 120738, Note_on_c, 0, 71, 51
1, 120838, Note_off_c, 0, 66, 64
1, 120972, Note_on_c, 0, 67, 37
1, 120983, Note_on_c, 0, 64, 18
1, 120983, Note_on_c, 0, 59, 68
1, 121020, Note_on_c, 0, 52, 40
1, 121034, Note_off_c, 0, 71, 64
1, 121228, Note_on_c, 0, 69, 38
1, 121270, Control_c, 0, 64, 0
1, 121281, Note_off_c, 0, 67, 64
1, 121390, Control_c, 0, 64, 127
1, 121465, Note_off_c, 0, 69, 64
1, 121468, Note_on_c, 0, 71, 46
1, 121476, Note_on_c, 0, 67, 18
1, 121484, Note_off_c, 0, 64, 64
1, 121562, Note_off_c, 0, 67, 64
1, 121609, Note_off_c, 0, 52, 64
1, 121612, Note_off_c, 0, 59, 64
1, 121627, Note_off_c, 0, 71, 64
1, 121727, Note_on_c, 0, 69, 42
1, 121752, Note_on_c, 0, 64, 27
1, 121763, Note_on_c, 0, 57, 55
1, 121788, Note_on_c, 0, 48, 32
1, 121869, Control_c, 0, 64, 0
1, 122014, Control_c, 0, 64, 127
1, 122034, Note_on_c, 0, 74, 37
1, 122056, Note_off_c, 0, 48, 64
1, 122083, Note_off_c, 0, 74, 64
1, 122194, Note_off_c, 0, 57, 64
1, 122234, Note_on_c, 0, 59, 44
1, 122286, Note_on_c, 0, 66, 28
1, 122286, Note_off_c, 0, 69, 64
1, 122286, Note_on_c, 0, 72, 38
1, 122342, Note_off_c, 0, 64, 64
1, 122342, Note_off_c, 0, 59, 64
1, 122350, Note_off_c, 0, 72, 64
1, 122382, Note_off_c, 0, 66, 64
1, 122404, Note_on_c, 0, 60, 65
1, 122537, Note_off_c, 0, 60, 64
1, 122602, Note_on_c, 0, 71, 43
1, 122615, Note_on_c, 0, 62, 28
1, 122652, Note_on_c, 0, 59, 66
1, 122688, Note_on_c, 0, 50, 32
1, 122744, Control_c, 0, 64, 0
1, 122924, Note_on_c, 0, 69, 35
1, 122972, Control_c, 0, 64, 127
1, 122972, Note_off_c, 0, 71, 64
1, 123011, Note_off_c, 0, 59, 64
1, 123031, Note_off_c, 0, 62, 64
1, 123034, Note_off_c, 0, 50, 64
1, 123105, Note_off_c, 0, 69, 64
1, 123173, Note_on_c, 0, 67, 30
1, 123179, Note_on_c, 0, 64, 18
1, 123226, Note_off_c, 0, 67, 64
1, 123232, Note_off_c, 0, 64, 64
1, 123406, Note_on_c, 0, 62, 43
1, 123406, Note_on_c, 0, 57, 59
1, 123423, Note_on_c, 0, 50, 28
1, 123423, Note_on_c, 0, 45, 15
1, 123431, Note_on_c, 0, 38, 13
1, 123560, Control_c, 0, 64, 0
1, 123669, Note_on_c, 0, 67, 43
1, 123715, Note_off_c, 0, 62, 64
1, 123727, Control_c, 0, 64, 127
1, 123757, Note_off_c, 0, 50, 64
1, 123774, Note_off_c, 0, 45, 64
1, 123819, Note_off_c, 0, 38, 64
1, 123880, Note_off_c, 0, 67, 64
1, 123883, Note_off_c, 0, 57, 64
1, 123944, Note_on_c, 0, 66, 43
1, 123953, Note_on_c, 0, 60, 41
1, 124016, Note_off_c, 0, 60, 64
1, 124067, Note_off_c, 0, 66, 64
1, 124329, Note_on_c, 0, 55, 62
1, 124335, Note_on_c, 0, 67, 44
1, 124335, Note_on_c, 0, 59, 34
1, 124340, Note_on_c, 0, 62, 27
1, 124340, Note_on_c, 0, 43, 49
1, 124345, Note_on_c, 0, 31, 45
1, 124362, Control_c, 0, 64, 0
1, 124543, Control_c, 0, 64, 127
1, 124551, Note_off_c, 0, 62, 64
1, 124551, Note_off_c, 0, 59, 64
1, 124562, Note_off_c, 0, 55, 64
1, 124568, Note_off_c, 0, 43, 64
1, 124630, Note_off_c, 0, 67, 64
1, 124654, Note_off_c, 0, 31, 64
1, 124732, Note_on_c, 0, 71, 56
1, 124914, Note_off_c, 0, 71, 64
1, 124969, Note_on_c, 0, 74, 57
1, 124983, Note_on_c, 0, 67, 34
1, 125050, Note_off_c, 0, 67, 64
1, 125164, Note_off_c, 0, 74, 64
1, 125179, Note_on_c, 0, 79, 67
1, 125189, Note_on_c, 0, 71, 41
1, 125379, Note_off_c, 0, 79, 64
1, 125384, Note_off_c, 0, 71, 64
1, 125384, Note_on_c, 0, 74, 64
1, 125392, Note_on_c, 0, 67, 28
1, 125449, Note_off_c, 0, 67, 64
1, 125543, Note_off_c, 0, 74, 64
1, 125583, Note_on_c, 0, 67, 66
1, 125594, Note_on_c, 0, 71, 59
1, 125630, Note_off_c, 0, 67, 64
1, 125797, Note_off_c, 0, 71, 64
1, 125802, Note_on_c, 0, 67, 54
1, 125810, Note_on_c, 0, 62, 47
1, 125861, Note_off_c, 0, 62, 64
1, 125977, Note_off_c, 0, 67, 64
1, 126009, Note_on_c, 0, 71, 65
1, 126229, Note_on_c, 0, 74, 65
1, 126250, Note_off_c, 0, 71, 64
1, 126250, Note_on_c, 0, 67, 48
1, 126312, Note_off_c, 0, 67, 64
1, 126451, Note_on_c, 0, 77, 62
1, 126462, Note_on_c, 0, 71, 49
1, 126462, Note_off_c, 0, 74, 64
1, 126474, Note_on_c, 0, 62, 41
1, 126532, Note_off_c, 0, 62, 64
1, 126544, Note_off_c, 0, 71, 64
1, 126669, Note_on_c, 0, 74, 61
1, 126724, Note_off_c, 0, 77, 64
1, 126867, Note_off_c, 0, 74, 64
1, 126870, Note_on_c, 0, 71, 58
1, 127067, Note_off_c, 0, 71, 64
1, 127076, Note_on_c, 0, 67, 43
1, 127217, Note_off_c, 0, 67, 64
1, 127285, Note_on_c, 0, 71, 43
1, 127384, Note_off_c, 0, 71, 64
1, 127498, Note_on_c, 0, 67, 43
1, 127501, Note_on_c, 0, 74, 36
1, 127635, Note_off_c, 0, 67, 64
1, 127728, Note_on_c, 0, 76, 40
1, 127733, Note_on_c, 0, 64, 44
1, 127737, Note_off_c, 0, 74, 64
1, 127883, Note_off_c, 0, 64, 64
1, 127928, Note_on_c, 0, 72, 38
1, 127990, Note_off_c, 0, 76, 64
1, 128122, Note_on_c, 0, 69, 27
1, 128132, Note_on_c, 0, 60, 38
1, 128136, Note_off_c, 0, 72, 64
1, 128279, Note_off_c, 0, 60, 64
1, 128321, Note_off_c, 0, 69, 64
1, 128335, Note_on_c, 0, 66, 31
1, 128349, Note_on_c, 0, 57, 34
1, 128458, Note_off_c, 0, 57, 64
1, 128537, Note_off_c, 0, 66, 64
1, 128541, Note_on_c, 0, 69, 31
1, 128735, Note_on_c, 0, 72, 34
1, 128755, Note_off_c, 0, 69, 64
1, 128959, Note_on_c, 0, 74, 51
1, 128969, Note_off_c, 0, 72, 64
1, 128973, Note_on_c, 0, 31, 31
1, 128973, Note_on_c, 0, 43, 28
1, 128973, Note_on_c, 0, 62, 19
1, 128976, Control_c, 0, 64, 0
1, 129118, Note_off_c, 0, 31, 64
1, 129145, Control_c, 0, 64, 127
1, 129162, Note_on_c, 0, 71, 52
1, 129165, Note_off_c, 0, 43, 64
1, 129176, Note_off_c, 0, 62, 64
1, 129301, Note_off_c, 0, 74, 64
1, 129346, Note_off_c, 0, 71, 64
1, 129376, Note_on_c, 0, 67, 28
1, 129380, Note_on_c, 0, 62, 50
1, 129482, Note_off_c, 0, 62, 64
1, 129594, Note_on_c, 0, 64, 43
1, 129594, Note_on_c, 0, 59, 46
1, 129597, Note_off_c, 0, 67, 64
1, 129778, Note_off_c, 0, 64, 64
1, 129781, Note_on_c, 0, 67, 50
1, 129838, Note_off_c, 0, 59, 64
1, 130003, Note_off_c, 0, 67, 64
1, 130006, Note_on_c, 0, 64, 47
1, 130009, Note_on_c, 0, 71, 46
1, 130212, Note_off_c, 0, 64, 64
1, 130242, Note_on_c, 0, 72, 45
1, 130249, Note_on_c, 0, 52, 45
1, 130260, Note_off_c, 0, 71, 64
1, 130432, Note_on_c, 0, 69, 34
1, 130511, Note_off_c, 0, 52, 64
1, 130633, Note_on_c, 0, 66, 34
1, 130650, Note_on_c, 0, 57, 24
1, 130658, Note_off_c, 0, 69, 64
1, 130847, Note_off_c, 0, 66, 64
1, 130864, Note_on_c, 0, 62, 36
1, 130864, Note_on_c, 0, 54, 44
1, 130954, Control_c, 0, 64, 0
1, 131062, Control_c, 0, 64, 127
1, 131070, Note_on_c, 0, 66, 37
1, 131193, Note_off_c, 0, 72, 64
1, 131193, Note_off_c, 0, 62, 64
1, 131234, Note_off_c, 0, 57, 64
1, 131277, Note_off_c, 0, 54, 64
1, 131277, Note_on_c, 0, 69, 30
1, 131298, Note_off_c, 0, 66, 64
1, 131472, Note_off_c, 0, 69, 64
1, 131500, Note_on_c, 0, 72, 31
1, 131504, Note_on_c, 0, 66, 19
1, 131703, Note_off_c, 0, 72, 64
1, 131713, Note_on_c, 0, 71, 40
1, 131912, Note_off_c, 0, 71, 64
1, 131936, Note_on_c, 0, 69, 35
1, 131961, Note_on_c, 0, 62, 21
1, 131976, Note_off_c, 0, 66, 64
1, 132053, Note_off_c, 0, 62, 64
1, 132224, Control_c, 0, 64, 0
1, 132231, Note_off_c, 0, 69, 64
1, 132231, Note_on_c, 0, 71, 30
1, 132236, Note_on_c, 0, 62, 28
1, 132249, Note_on_c, 0, 55, 29
1, 132249, Note_on_c, 0, 67, 17
1, 132329, Note_off_c, 0, 67, 64
1, 132416, Control_c, 0, 64, 127
1, 132449, Note_off_c, 0, 62, 64
1, 132496, Note_off_c, 0, 55, 64
1, 132508, Note_on_c, 0, 67, 40
1, 132529, Note_off_c, 0, 71, 64
1, 132633, Note_off_c, 0, 67, 64
1, 132719, Note_on_c, 0, 69, 26
1, 132730, Note_on_c, 0, 66, 33
1, 132791, Note_off_c, 0, 66, 64
1, 132929, Note_off_c, 0, 69, 64
1, 132953, Note_on_c, 0, 67, 25
1, 132956, Control_c, 0, 64, 0
1, 132961, Note_on_c, 0, 55, 39
1, 132964, Note_on_c, 0, 71, 44
1, 132968, Note_on_c, 0, 43, 32
1, 132975, Note_on_c, 0, 62, 32
1, 133117, Note_off_c, 0, 62, 64
1, 133123, Control_c, 0, 64, 127
1, 133156, Note_off_c, 0, 55, 64
1, 133201, Note_off_c, 0, 67, 64
1, 133201, Note_off_c, 0, 71, 64
1, 133206, Note_on_c, 0, 74, 51
1, 133223, Note_off_c, 0, 43, 64
1, 133388, Note_off_c, 0, 74, 64
1, 133411, Note_on_c, 0, 72, 55
1, 133411, Note_on_c, 0, 66, 31
1, 133496, Note_off_c, 0, 72, 64
1, 133533, Note_off_c, 0, 66, 64
1, 133627, Control_c, 0, 64, 0
1, 133639, Note_on_c, 0, 52, 34
1, 133639, Note_on_c, 0, 40, 44
1, 133643, Note_on_c, 0, 72, 49
1, 133647, Note_on_c, 0, 64, 36
1, 133656, Note_on_c, 0, 67, 39
1, 133777, Note_off_c, 0, 64, 64
1, 133795, Control_c, 0, 64, 127
1, 133817, Note_off_c, 0, 67, 64
1, 133825, Note_off_c, 0, 52, 64
1, 133861, Note_on_c, 0, 76, 48
1, 133904, Note_off_c, 0, 40, 64
1, 133904, Note_off_c, 0, 72, 64
1, 134073, Note_on_c, 0, 74, 61
1, 134084, Note_off_c, 0, 76, 64
1, 134084, Note_on_c, 0, 69, 25
1, 134117, Note_off_c, 0, 74, 64
1, 134142, Note_off_c, 0, 69, 64
1, 134298, Note_on_c, 0, 67, 43
1, 134298, Note_on_c, 0, 74, 55
1, 134298, Note_on_c, 0, 47, 27
1, 134298, Control_c, 0, 64, 0
1, 134313, Note_on_c, 0, 35, 32
1, 134324, Note_on_c, 0, 71, 48
1, 134471, Note_off_c, 0, 71, 64
1, 134477, Control_c, 0, 64, 127
1, 134485, Note_off_c, 0, 35, 64
1, 134505, Note_off_c, 0, 67, 64
1, 134546, Note_on_c, 0, 79, 67
1, 134557, Note_off_c, 0, 74, 64
1, 134583, Note_off_c, 0, 47, 64
1, 134755, Note_on_c, 0, 78, 59
1, 134759, Note_off_c, 0, 79, 64
1, 134764, Note_on_c, 0, 69, 32
1, 134798, Note_on_c, 0, 40, 51
1, 134837, Note_off_c, 0, 40, 64
1, 134842, Note_off_c, 0, 69, 64
1, 135006, Note_off_c, 0, 78, 64
1, 135010, Note_on_c, 0, 79, 51
1, 135015, Note_on_c, 0, 64, 44
1, 135015, Note_on_c, 0, 71, 41
1, 135025, Note_on_c, 0, 52, 42
1, 135053, Control_c, 0, 64, 0
1, 135185, Note_off_c, 0, 71, 64
1, 135196, Control_c, 0, 64, 127
1, 135199, Note_off_c, 0, 64, 64
1, 135257, Note_on_c, 0, 74, 48
1, 135260, Note_off_c, 0, 79, 64
1, 135269, Note_off_c, 0, 52, 64
1, 135296, Note_off_c, 0, 74, 64
1, 135468, Note_on_c, 0, 71, 54
1, 135475, Note_on_c, 0, 67, 31
1, 135533, Note_off_c, 0, 67, 64
1, 135659, Note_off_c, 0, 71, 64
1, 135695, Note_on_c, 0, 67, 44
1, 135695, Note_on_c, 0, 59, 25
1, 135703, Note_on_c, 0, 28, 14
1, 135703, Note_on_c, 0, 40, 28
1, 135712, Control_c, 0, 64, 0
1, 135717, Note_on_c, 0, 64, 27
1, 135856, Control_c, 0, 64, 127
1, 135879, Note_off_c, 0, 59, 64
1, 135884, Note_off_c, 0, 28, 64
1, 135932, Note_on_c, 0, 69, 34
1, 135961, Note_off_c, 0, 40, 64
1, 135961, Note_off_c, 0, 64, 64
1, 136003, Note_off_c, 0, 67, 64
1, 136129, Note_off_c, 0, 69, 64
1, 136157, Note_on_c, 0, 71, 38
1, 136157, Note_on_c, 0, 62, 29
1, 136209, Note_off_c, 0, 62, 64
1, 136221, Note_off_c, 0, 71, 64
1, 136377, Note_on_c, 0, 72, 39
1, 136382, Note_on_c, 0, 64, 39
1, 136396, Control_c, 0, 64, 0
1, 136396, Note_on_c, 0, 33, 28
1, 136402, Note_on_c, 0, 45, 22
1, 136588, Control_c, 0, 64, 127
1, 136603, Note_on_c, 0, 74, 56
1, 136636, Note_off_c, 0, 72, 64
1, 136647, Note_off_c, 0, 74, 64
1, 136711, Note_off_c, 0, 64, 64
1, 136794, Note_off_c, 0, 45, 64
1, 136822, Note_on_c, 0, 76, 55
1, 136873, Note_off_c, 0, 33, 64
1, 136914, Note_off_c, 0, 76, 64
1, 137042, Note_on_c, 0, 74, 48
1, 137049, Note_on_c, 0, 67, 39
1, 137054, Control_c, 0, 64, 0
1, 137059, Note_on_c, 0, 62, 26
1, 137070, Note_on_c, 0, 47, 21
1, 137074, Note_on_c, 0, 35, 27
1, 137241, Note_off_c, 0, 62, 64
1, 137257, Note_on_c, 0, 72, 46
1, 137266, Note_off_c, 0, 74, 64
1, 137271, Control_c, 0, 64, 127
1, 137308, Note_off_c, 0, 72, 64
1, 137355, Note_off_c, 0, 67, 64
1, 137421, Note_off_c, 0, 35, 64
1, 137466, Note_off_c, 0, 47, 64
1, 137483, Note_on_c, 0, 71, 48
1, 137483, Note_on_c, 0, 62, 45
1, 137535, Note_off_c, 0, 62, 64
1, 137577, Note_off_c, 0, 71, 64
1, 137701, Control_c, 0, 64, 0
1, 137705, Note_on_c, 0, 69, 33
1, 137712, Note_on_c, 0, 60, 33
1, 137716, Note_on_c, 0, 48, 22
1, 137716, Note_on_c, 0, 36, 26
1, 137737, Note_on_c, 0, 64, 32
1, 137887, Note_off_c, 0, 64, 64
1, 137917, Note_off_c, 0, 60, 64
1, 137917, Control_c, 0, 64, 127
1, 137934, Note_on_c, 0, 71, 48
1, 137976, Note_off_c, 0, 71, 64
1, 137985, Note_off_c, 0, 69, 64
1, 138010, Note_off_c, 0, 36, 64
1, 138071, Note_off_c, 0, 48, 64
1, 138138, Note_on_c, 0, 67, 38
1, 138152, Note_on_c, 0, 59, 24
1, 138205, Note_off_c, 0, 59, 64
1, 138212, Note_off_c, 0, 67, 64
1, 138350, Note_on_c, 0, 66, 38
1, 138372, Control_c, 0, 64, 0
1, 138372, Note_on_c, 0, 38, 23
1, 138375, Note_on_c, 0, 57, 22
1, 138379, Note_on_c, 0, 60, 36
1, 138379, Note_on_c, 0, 50, 24
1, 138550, Note_off_c, 0, 60, 64
1, 138577, Control_c, 0, 64, 127
1, 138588, Note_on_c, 0, 67, 41
1, 138605, Note_off_c, 0, 57, 64
1, 138620, Note_off_c, 0, 66, 64
1, 138639, Note_off_c, 0, 67, 64
1, 138684, Note_off_c, 0, 38, 64
1, 138742, Note_off_c, 0, 50, 64
1, 138798, Note_on_c, 0, 69, 29
1, 138818, Note_on_c, 0, 62, 32
1, 138876, Note_off_c, 0, 62, 64
1, 138882, Note_off_c, 0, 69, 64
1, 139024, Note_on_c, 0, 62, 34
1, 139034, Note_on_c, 0, 57, 27
1, 139043, Control_c, 0, 64, 0
1, 139048, Note_on_c, 0, 54, 26
1, 139048, Note_on_c, 0, 42, 23
1, 139182, Note_off_c, 0, 57, 64
1, 139230, Control_c, 0, 64, 127
1, 139246, Note_off_c, 0, 62, 64
1, 139251, Note_off_c, 0, 54, 64
1, 139258, Note_on_c, 0, 66, 30
1, 139324, Note_off_c, 0, 66, 64
1, 139354, Note_off_c, 0, 42, 64
1, 139471, Note_on_c, 0, 69, 31
1, 139480, Note_on_c, 0, 67, 19
1, 139541, Note_off_c, 0, 67, 64
1, 139573, Note_off_c, 0, 69, 64
1, 139704, Control_c, 0, 64, 0
1, 139708, Note_on_c, 0, 72, 35
1, 139714, Note_on_c, 0, 38, 21
1, 139723, Note_on_c, 0, 50, 23
1, 139723, Note_on_c, 0, 66, 12
1, 139871, Control_c, 0, 64, 127
1, 139921, Note_off_c, 0, 38, 64
1, 139942, Note_on_c, 0, 71, 42
1, 139946, Note_off_c, 0, 72, 64
1, 139976, Note_off_c, 0, 66, 64
1, 139985, Note_off_c, 0, 50, 64
1, 140017, Note_off_c, 0, 71, 64
1, 140151, Note_on_c, 0, 66, 26
1, 140157, Note_on_c, 0, 69, 31
1, 140237, Note_off_c, 0, 66, 64
1, 140374, Note_off_c, 0, 69, 64
1, 140374, Control_c, 0, 64, 0
1, 140397, Note_on_c, 0, 71, 39
1, 140400, Note_on_c, 0, 62, 28
1, 140405, Note_on_c, 0, 55, 37
1, 140408, Note_on_c, 0, 43, 28
1, 140416, Note_on_c, 0, 67, 20
1, 140491, Note_off_c, 0, 62, 64
1, 140499, Note_off_c, 0, 67, 64
1, 140553, Control_c, 0, 64, 127
1, 140580, Note_off_c, 0, 55, 64
1, 140628, Note_off_c, 0, 43, 64
1, 140656, Note_on_c, 0, 67, 44
1, 140687, Note_off_c, 0, 71, 64
1, 140778, Note_off_c, 0, 67, 64
1, 140862, Note_on_c, 0, 69, 38
1, 140890, Note_on_c, 0, 66, 16
1, 140942, Note_off_c, 0, 66, 64
1, 141087, Note_off_c, 0, 69, 64
1, 141104, Note_on_c, 0, 71, 42
1, 141109, Note_on_c, 0, 67, 29
1, 141129, Control_c, 0, 64, 0
1, 141148, Note_on_c, 0, 40, 23
1, 141157, Note_on_c, 0, 55, 13
1, 141297, Note_off_c, 0, 71, 64
1, 141310, Control_c, 0, 64, 127
1, 141324, Note_on_c, 0, 74, 34
1, 141343, Note_off_c, 0, 55, 64
1, 141396, Note_off_c, 0, 67, 64
1, 141452, Note_off_c, 0, 40, 64
1, 141456, Note_off_c, 0, 74, 64
1, 141511, Note_on_c, 0, 66, 36
1, 141536, Note_on_c, 0, 72, 47
1, 141606, Note_off_c, 0, 72, 64
1, 141614, Note_off_c, 0, 66, 64
1, 141767, Note_on_c, 0, 72, 44
1, 141779, Note_on_c, 0, 64, 26
1, 141782, Note_on_c, 0, 48, 18
1, 141782, Note_on_c, 0, 67, 38
1, 141782, Note_on_c, 0, 36, 27
1, 141848, Control_c, 0, 64, 0
1, 141943, Note_off_c, 0, 64, 64
1, 141976, Note_off_c, 0, 67, 64
1, 141995, Note_off_c, 0, 48, 64
1, 142004, Control_c, 0, 64, 127
1, 142007, Note_on_c, 0, 76, 47
1, 142062, Note_off_c, 0, 72, 64
1, 142104, Note_off_c, 0, 36, 64
1, 142227, Note_on_c, 0, 74, 56
1, 142235, Note_on_c, 0, 69, 29
1, 142235, Note_off_c, 0, 76, 64
1, 142268, Note_off_c, 0, 74, 64
1, 142289, Note_off_c, 0, 69, 64
1, 142460, Note_on_c, 0, 74, 53
1, 142460, Note_on_c, 0, 67, 33
1, 142470, Note_on_c, 0, 71, 42
1, 142470, Control_c, 0, 64, 0
1, 142480, Note_on_c, 0, 47, 13
1, 142480, Note_on_c, 0, 35, 31
1, 142623, Note_off_c, 0, 35, 64
1, 142628, Control_c, 0, 64, 127
1, 142659, Note_off_c, 0, 67, 64
1, 142684, Note_off_c, 0, 47, 64
1, 142706, Note_on_c, 0, 79, 65
1, 142706, Note_off_c, 0, 71, 64
1, 142726, Note_off_c, 0, 74, 64
1, 142907, Note_on_c, 0, 78, 61
1, 142917, Note_off_c, 0, 79, 64
1, 142917, Note_on_c, 0, 69, 33
1, 142917, Note_on_c, 0, 40, 16
1, 142957, Note_off_c, 0, 40, 64
1, 142974, Note_off_c, 0, 69, 64
1, 143144, Note_off_c, 0, 78, 64
1, 143157, Note_on_c, 0, 79, 58
1, 143172, Note_on_c, 0, 71, 35
1, 143175, Note_on_c, 0, 64, 41
1, 143186, Note_on_c, 0, 52, 31
1, 143204, Control_c, 0, 64, 0
1, 143335, Note_off_c, 0, 71, 64
1, 143358, Control_c, 0, 64, 127
1, 143386, Note_off_c, 0, 64, 64
1, 143406, Note_on_c, 0, 74, 54
1, 143419, Note_off_c, 0, 79, 64
1, 143452, Note_off_c, 0, 74, 64
1, 143466, Note_off_c, 0, 52, 64
1, 143637, Note_on_c, 0, 71, 50
1, 143637, Note_on_c, 0, 67, 33
1, 143698, Note_off_c, 0, 67, 64
1, 143818, Note_off_c, 0, 71, 64
1, 143854, Note_on_c, 0, 67, 52
1, 143873, Note_on_c, 0, 38, 13
1, 143879, Note_on_c, 0, 50, 22
1, 143890, Note_on_c, 0, 64, 25
1, 143895, Note_on_c, 0, 59, 6
1, 143921, Control_c, 0, 64, 0
1, 144063, Note_off_c, 0, 59, 64
1, 144066, Control_c, 0, 64, 127
1, 144082, Note_off_c, 0, 50, 64
1, 144082, Note_on_c, 0, 69, 41
1, 144105, Note_off_c, 0, 38, 64
1, 144138, Note_off_c, 0, 67, 64
1, 144157, Note_off_c, 0, 64, 64
1, 144268, Note_off_c, 0, 69, 64
1, 144338, Note_on_c, 0, 71, 54
1, 144350, Note_on_c, 0, 67, 24
1, 144409, Note_off_c, 0, 67, 64
1, 144473, Note_off_c, 0, 71, 64
1, 144581, Control_c, 0, 64, 0
1, 144581, Note_on_c, 0, 64, 53
1, 144584, Note_on_c, 0, 48, 25
1, 144584, Note_on_c, 0, 36, 30
1, 144587, Note_on_c, 0, 60, 26
1, 144587, Note_on_c, 0, 69, 26
1, 144662, Note_off_c, 0, 60, 64
1, 144704, Note_off_c, 0, 64, 64
1, 144715, Note_off_c, 0, 69, 64
1, 144737, Control_c, 0, 64, 127
1, 144796, Note_off_c, 0, 48, 64
1, 144843, Note_on_c, 0, 74, 49
1, 144881, Note_off_c, 0, 36, 64
1, 145016, Note_off_c, 0, 74, 64
1, 145090, Note_on_c, 0, 66, 28
1, 145090, Note_on_c, 0, 72, 44
1, 145183, Note_off_c, 0, 72, 64
1, 145207, Note_off_c, 0, 66, 64
1, 145349, Note_on_c, 0, 71, 51
1, 145356, Note_on_c, 0, 67, 23
1, 145360, Note_on_c, 0, 64, 23
1, 145363, Note_on_c, 0, 37, 27
1, 145367, Note_on_c, 0, 49, 27
1, 145408, Control_c, 0, 64, 0
1, 145561, Note_off_c, 0, 64, 64
1, 145575, Control_c, 0, 64, 127
1, 145626, Note_on_c, 0, 69, 46
1, 145631, Note_off_c, 0, 71, 64
1, 145636, Note_off_c, 0, 49, 64
1, 145636, Note_off_c, 0, 67, 64
1, 145687, Note_off_c, 0, 69, 64
1, 145767, Note_off_c, 0, 37, 64
1, 145916, Note_on_c, 0, 67, 40
1, 145924, Note_on_c, 0, 64, 31
1, 146054, Note_off_c, 0, 64, 64
1, 146072, Note_off_c, 0, 67, 64
1, 146218, Note_on_c, 0, 57, 26
1, 146218, Note_on_c, 0, 62, 47
1, 146238, Note_on_c, 0, 38, 27
1, 146241, Note_on_c, 0, 50, 19
1, 146247, Control_c, 0, 64, 0
1, 146511, Control_c, 0, 64, 127
1, 146578, Note_on_c, 0, 67, 38
1, 146673, Note_off_c, 0, 57, 64
1, 146696, Note_off_c, 0, 62, 64
1, 146993, Note_off_c, 0, 67, 64
1, 147016, Note_on_c, 0, 66, 27
1, 147026, Control_c, 0, 64, 0
1, 147030, Note_on_c, 0, 60, 27
1, 147182, Control_c, 0, 64, 127
1, 147196, Note_off_c, 0, 50, 64
1, 147263, Note_off_c, 0, 60, 64
1, 147277, Note_off_c, 0, 38, 64
1, 147363, Note_off_c, 0, 66, 64
1, 148012, Note_on_c, 0, 67, 30
1, 148019, Note_on_c, 0, 31, 21
1, 148022, Note_on_c, 0, 43, 20
1, 148022, Note_on_c, 0, 62, 14
1, 148030, Note_on_c, 0, 59, 20
1, 148272, Control_c, 0, 64, 0
1, 148848, Control_c, 0, 64, 127
1, 151798, Note_off_c, 0, 43, 64
1, 151820, Control_c, 0, 64, 0
1, 151827, Note_off_c, 0, 59, 64
1, 151846, Note_off_c, 0, 31, 64
1, 151888, Note_off_c, 0, 67, 64
1, 151894, Note_off_c, 0, 62, 64
1, 152756, Control_c, 0, 64, 0
1, 154254, End_track
0, 0, End_of_file
