0, 0, Header, 0, 1, 384
1, 0, Start_track
1, 0, Tempo, 512820
1, 0, Title_t, ""
1, 0, Note_on_c, 0, 67, 52
1, 19, Note_on_c, 0, 55, 27
1, 180, Note_on_c, 0, 71, 62
1, 219, Note_off_c, 0, 67, 64
1, 333, Note_on_c, 0, 74, 76
1, 382, Note_off_c, 0, 71, 64
1, 498, Note_on_c, 0, 79, 75
1, 498, Note_off_c, 0, 74, 64
1, 666, Note_off_c, 0, 55, 64
1, 666, Note_on_c, 0, 69, 50
1, 666, Note_on_c, 0, 50, 36
1, 687, Note_off_c, 0, 79, 64
1, 829, Note_on_c, 0, 78, 65
1, 838, Note_off_c, 0, 69, 64
1, 1000, Note_off_c, 0, 50, 64
1, 1010, Note_on_c, 0, 79, 80
1, 1022, Note_off_c, 0, 78, 64
1, 1022, Note_on_c, 0, 43, 39
1, 1161, Note_on_c, 0, 47, 55
1, 1234, Note_off_c, 0, 43, 64
1, 1304, Note_off_c, 0, 79, 64
1, 1322, Note_on_c, 0, 50, 61
1, 1328, Note_on_c, 0, 67, 56
1, 1337, Note_off_c, 0, 47, 64
1, 1387, Note_off_c, 0, 67, 64
1, 1468, Note_off_c, 0, 50, 64
1, 1482, Note_on_c, 0, 55, 64
1, 1637, Note_on_c, 0, 67, 73
1, 1652, Note_on_c, 0, 50, 61
1, 1659, Note_off_c, 0, 55, 64
1, 1688, Note_off_c, 0, 67, 64
1, 1790, Note_off_c, 0, 50, 64
1, 1796, Note_on_c, 0, 47, 54
1, 1953, Note_off_c, 0, 47, 64
1, 1963, Note_on_c, 0, 43, 59
1, 1971, Note_on_c, 0, 67, 69
1, 2123, Note_on_c, 0, 71, 77
1, 2141, Note_off_c, 0, 67, 64
1, 2283, Note_on_c, 0, 74, 83
1, 2331, Note_off_c, 0, 71, 64
1, 2445, Note_on_c, 0, 79, 87
1, 2471, Note_off_c, 0, 74, 64
1, 2585, Note_off_c, 0, 43, 64
1, 2602, Note_on_c, 0, 50, 38
1, 2602, Note_on_c, 0, 69, 58
1, 2630, Note_off_c, 0, 79, 64
1, 2755, Note_on_c, 0, 78, 73
1, 2793, Note_off_c, 0, 69, 64
1, 2889, Note_off_c, 0, 50, 64
1, 2917, Note_on_c, 0, 43, 46
1, 2928, Note_on_c, 0, 79, 90
1, 2933, Note_off_c, 0, 78, 64
1, 3084, Note_on_c, 0, 47, 62
1, 3201, Note_off_c, 0, 43, 64
1, 3206, Note_off_c, 0, 79, 64
1, 3228, Note_on_c, 0, 50, 59
1, 3240, Note_on_c, 0, 67, 61
1, 3244, Note_off_c, 0, 47, 64
1, 3312, Note_off_c, 0, 67, 64
1, 3354, Note_off_c, 0, 50, 64
1, 3387, Note_on_c, 0, 55, 60
1, 3545, Note_on_c, 0, 67, 70
1, 3545, Note_off_c, 0, 55, 64
1, 3559, Note_on_c, 0, 50, 54
1, 3581, Note_off_c, 0, 67, 64
1, 3699, Note_on_c, 0, 47, 54
1, 3710, Note_off_c, 0, 50, 64
1, 3872, Note_on_c, 0, 76, 72
1, 3878, Note_on_c, 0, 48, 53
1, 3886, Note_off_c, 0, 47, 64
1, 4024, Note_off_c, 0, 48, 64
1, 4158, Note_off_c, 0, 76, 64
1, 4204, Note_on_c, 0, 76, 74
1, 4219, Note_on_c, 0, 55, 44
1, 4336, Note_off_c, 0, 55, 64
1, 4479, Note_off_c, 0, 76, 64
1, 4529, Note_on_c, 0, 76, 72
1, 4529, Note_on_c, 0, 48, 43
1, 4683, Note_on_c, 0, 79, 90
1, 4719, Note_off_c, 0, 76, 64
1, 4821, Note_off_c, 0, 48, 64
1, 4841, Note_on_c, 0, 74, 81
1, 4852, Note_on_c, 0, 47, 41
1, 4877, Note_off_c, 0, 79, 64
1, 4963, Note_off_c, 0, 47, 64
1, 4986, Note_off_c, 0, 74, 64
1, 5170, Note_on_c, 0, 74, 76
1, 5184, Note_on_c, 0, 55, 40
1, 5276, Note_off_c, 0, 55, 64
1, 5445, Note_off_c, 0, 74, 64
1, 5490, Note_on_c, 0, 74, 92
1, 5498, Note_on_c, 0, 47, 32
1, 5643, Note_off_c, 0, 74, 64
1, 5643, Note_on_c, 0, 79, 81
1, 5761, Note_off_c, 0, 47, 64
1, 5804, Note_on_c, 0, 72, 71
1, 5804, Note_off_c, 0, 79, 64
1, 5816, Note_on_c, 0, 45, 40
1, 5945, Note_off_c, 0, 45, 64
1, 6140, Note_on_c, 0, 54, 46
1, 6145, Note_on_c, 0, 74, 62
1, 6172, Note_off_c, 0, 72, 64
1, 6298, Note_on_c, 0, 72, 59
1, 6335, Note_off_c, 0, 74, 64
1, 6339, Note_off_c, 0, 54, 64
1, 6460, Note_on_c, 0, 71, 60
1, 6465, Note_on_c, 0, 55, 39
1, 6482, Note_off_c, 0, 72, 64
1, 6608, Note_off_c, 0, 55, 64
1, 6621, Note_on_c, 0, 72, 49
1, 6638, Note_off_c, 0, 71, 64
1, 6783, Note_on_c, 0, 69, 40
1, 6791, Note_on_c, 0, 50, 48
1, 6807, Note_off_c, 0, 72, 64
1, 6953, Note_on_c, 0, 52, 61
1, 6978, Note_off_c, 0, 50, 64
1, 7108, Note_off_c, 0, 52, 64
1, 7114, Note_on_c, 0, 54, 56
1, 7262, Note_off_c, 0, 54, 64
1, 7275, Note_on_c, 0, 50, 58
1, 7445, Note_on_c, 0, 52, 58
1, 7445, Note_off_c, 0, 50, 64
1, 7452, Note_off_c, 0, 69, 64
1, 7588, Note_off_c, 0, 52, 64
1, 7594, Note_on_c, 0, 54, 46
1, 7753, Note_off_c, 0, 54, 64
1, 7783, Note_on_c, 0, 67, 39
1, 7802, Note_on_c, 0, 55, 26
1, 7945, Note_off_c, 0, 67, 64
1, 7950, Note_on_c, 0, 71, 55
1, 8119, Note_on_c, 0, 74, 57
1, 8134, Note_off_c, 0, 71, 64
1, 8281, Note_on_c, 0, 79, 62
1, 8281, Note_off_c, 0, 74, 64
1, 8420, Note_off_c, 0, 55, 64
1, 8435, Note_off_c, 0, 79, 64
1, 8441, Note_on_c, 0, 50, 27
1, 8441, Note_on_c, 0, 69, 47
1, 8568, Note_off_c, 0, 69, 64
1, 8599, Note_on_c, 0, 78, 47
1, 8732, Note_off_c, 0, 50, 64
1, 8764, Note_on_c, 0, 43, 39
1, 8767, Note_off_c, 0, 78, 64
1, 8772, Note_on_c, 0, 79, 57
1, 8919, Note_on_c, 0, 47, 48
1, 8930, Note_off_c, 0, 43, 64
1, 9048, Note_off_c, 0, 79, 64
1, 9070, Note_off_c, 0, 47, 64
1, 9070, Note_on_c, 0, 67, 41
1, 9083, Note_on_c, 0, 50, 39
1, 9209, Note_off_c, 0, 50, 64
1, 9221, Note_off_c, 0, 67, 64
1, 9254, Note_on_c, 0, 55, 46
1, 9399, Note_on_c, 0, 67, 51
1, 9412, Note_off_c, 0, 55, 64
1, 9437, Note_on_c, 0, 50, 33
1, 9477, Note_off_c, 0, 67, 64
1, 9569, Note_off_c, 0, 50, 64
1, 9572, Note_on_c, 0, 47, 41
1, 9730, Note_off_c, 0, 47, 64
1, 9738, Note_on_c, 0, 67, 55
1, 9749, Note_on_c, 0, 43, 34
1, 9905, Note_on_c, 0, 71, 64
1, 9917, Note_off_c, 0, 67, 64
1, 10061, Note_on_c, 0, 74, 75
1, 10098, Note_off_c, 0, 71, 64
1, 10229, Note_on_c, 0, 79, 83
1, 10240, Note_off_c, 0, 74, 64
1, 10373, Note_off_c, 0, 43, 64
1, 10381, Note_on_c, 0, 69, 49
1, 10385, Note_on_c, 0, 50, 36
1, 10440, Note_off_c, 0, 79, 64
1, 10547, Note_on_c, 0, 78, 63
1, 10555, Note_off_c, 0, 69, 64
1, 10688, Note_off_c, 0, 50, 64
1, 10708, Note_on_c, 0, 43, 48
1, 10725, Note_off_c, 0, 78, 64
1, 10725, Note_on_c, 0, 79, 65
1, 10878, Note_on_c, 0, 47, 44
1, 10906, Note_off_c, 0, 43, 64
1, 10997, Note_off_c, 0, 79, 64
1, 11033, Note_on_c, 0, 50, 40
1, 11033, Note_on_c, 0, 67, 39
1, 11036, Note_off_c, 0, 47, 64
1, 11148, Note_off_c, 0, 67, 64
1, 11187, Note_off_c, 0, 50, 64
1, 11196, Note_on_c, 0, 55, 47
1, 11349, Note_off_c, 0, 55, 64
1, 11349, Note_on_c, 0, 67, 57
1, 11373, Note_on_c, 0, 50, 43
1, 11413, Note_off_c, 0, 67, 64
1, 11488, Note_off_c, 0, 50, 64
1, 11515, Note_on_c, 0, 47, 38
1, 11694, Note_on_c, 0, 76, 55
1, 11699, Note_off_c, 0, 47, 64
1, 11703, Note_on_c, 0, 48, 43
1, 12006, Note_off_c, 0, 48, 64
1, 12036, Note_on_c, 0, 74, 42
1, 12045, Note_on_c, 0, 52, 42
1, 12076, Note_off_c, 0, 76, 64
1, 12122, Note_off_c, 0, 52, 64
1, 12195, Note_on_c, 0, 72, 55
1, 12220, Note_off_c, 0, 74, 64
1, 12354, Note_on_c, 0, 71, 62
1, 12373, Note_on_c, 0, 55, 39
1, 12384, Note_off_c, 0, 72, 64
1, 12433, Note_off_c, 0, 55, 64
1, 12508, Note_on_c, 0, 69, 48
1, 12513, Note_off_c, 0, 71, 64
1, 12678, Note_off_c, 0, 69, 64
1, 12685, Note_on_c, 0, 74, 62
1, 12694, Note_on_c, 0, 47, 30
1, 13003, Note_off_c, 0, 47, 64
1, 13011, Note_on_c, 0, 72, 44
1, 13011, Note_on_c, 0, 50, 37
1, 13043, Note_off_c, 0, 74, 64
1, 13140, Note_off_c, 0, 50, 64
1, 13167, Note_on_c, 0, 71, 54
1, 13190, Note_off_c, 0, 72, 64
1, 13310, Note_on_c, 0, 69, 49
1, 13323, Note_off_c, 0, 71, 64
1, 13337, Note_on_c, 0, 55, 40
1, 13415, Note_off_c, 0, 55, 64
1, 13468, Note_on_c, 0, 67, 67
1, 13474, Note_off_c, 0, 69, 64
1, 13647, Note_on_c, 0, 69, 66
1, 13647, Note_on_c, 0, 48, 36
1, 13669, Note_off_c, 0, 67, 64
1, 13750, Note_on_c, 0, 71, 82
1, 13778, Note_off_c, 0, 69, 64
1, 13848, Note_on_c, 0, 72, 67
1, 13867, Note_off_c, 0, 71, 64
1, 13934, Note_off_c, 0, 48, 64
1, 13948, Note_off_c, 0, 72, 64
1, 13948, Note_on_c, 0, 62, 68
1, 13969, Note_on_c, 0, 50, 43
1, 14032, Note_off_c, 0, 50, 64
1, 14196, Note_off_c, 0, 62, 64
1, 14270, Note_on_c, 0, 66, 42
1, 14277, Note_on_c, 0, 50, 40
1, 14363, Note_off_c, 0, 50, 64
1, 14572, Note_off_c, 0, 66, 64
1, 14611, Note_on_c, 0, 67, 48
1, 14619, Note_on_c, 0, 55, 38
1, 14950, Note_off_c, 0, 55, 64
1, 14972, Note_on_c, 0, 50, 37
1, 15256, Note_off_c, 0, 50, 64
1, 15326, Note_on_c, 0, 43, 33
1, 15449, Note_off_c, 0, 67, 64
1, 15477, Note_off_c, 0, 43, 64
1, 15755, Note_on_c, 0, 67, 36
1, 15781, Note_on_c, 0, 55, 28
1, 15923, Note_off_c, 0, 67, 64
1, 15939, Note_on_c, 0, 71, 44
1, 16104, Note_on_c, 0, 74, 69
1, 16115, Note_off_c, 0, 71, 64
1, 16266, Note_on_c, 0, 79, 80
1, 16277, Note_off_c, 0, 74, 64
1, 16407, Note_off_c, 0, 79, 64
1, 16421, Note_off_c, 0, 55, 64
1, 16421, Note_on_c, 0, 69, 53
1, 16446, Note_on_c, 0, 50, 35
1, 16588, Note_on_c, 0, 78, 62
1, 16619, Note_off_c, 0, 69, 64
1, 16725, Note_off_c, 0, 50, 64
1, 16752, Note_on_c, 0, 43, 58
1, 16752, Note_off_c, 0, 78, 64
1, 16758, Note_on_c, 0, 79, 75
1, 16909, Note_on_c, 0, 47, 66
1, 16934, Note_off_c, 0, 43, 64
1, 17046, Note_off_c, 0, 79, 64
1, 17070, Note_on_c, 0, 67, 57
1, 17074, Note_on_c, 0, 50, 59
1, 17078, Note_off_c, 0, 47, 64
1, 17174, Note_off_c, 0, 67, 64
1, 17174, Note_off_c, 0, 50, 64
1, 17226, Note_on_c, 0, 55, 66
1, 17388, Note_on_c, 0, 67, 58
1, 17402, Note_on_c, 0, 50, 55
1, 17402, Note_off_c, 0, 55, 64
1, 17452, Note_off_c, 0, 67, 64
1, 17550, Note_on_c, 0, 47, 49
1, 17550, Note_off_c, 0, 50, 64
1, 17719, Note_off_c, 0, 47, 64
1, 17727, Note_on_c, 0, 67, 67
1, 17734, Note_on_c, 0, 43, 45
1, 17884, Note_on_c, 0, 71, 77
1, 17898, Note_off_c, 0, 67, 64
1, 18046, Note_on_c, 0, 74, 78
1, 18070, Note_off_c, 0, 71, 64
1, 18206, Note_on_c, 0, 79, 84
1, 18223, Note_off_c, 0, 74, 64
1, 18341, Note_off_c, 0, 43, 64
1, 18358, Note_on_c, 0, 69, 58
1, 18363, Note_off_c, 0, 79, 64
1, 18363, Note_on_c, 0, 50, 42
1, 18517, Note_off_c, 0, 69, 64
1, 18522, Note_on_c, 0, 78, 68
1, 18647, Note_off_c, 0, 50, 64
1, 18669, Note_off_c, 0, 78, 64
1, 18680, Note_on_c, 0, 43, 54
1, 18686, Note_on_c, 0, 79, 86
1, 18834, Note_on_c, 0, 47, 58
1, 18854, Note_off_c, 0, 43, 64
1, 18953, Note_off_c, 0, 79, 64
1, 18996, Note_on_c, 0, 67, 62
1, 19001, Note_on_c, 0, 50, 48
1, 19014, Note_off_c, 0, 47, 64
1, 19067, Note_off_c, 0, 67, 64
1, 19132, Note_off_c, 0, 50, 64
1, 19152, Note_on_c, 0, 55, 54
1, 19293, Note_off_c, 0, 55, 64
1, 19304, Note_on_c, 0, 67, 63
1, 19315, Note_on_c, 0, 50, 53
1, 19363, Note_off_c, 0, 67, 64
1, 19452, Note_off_c, 0, 50, 64
1, 19452, Note_on_c, 0, 47, 47
1, 19633, Note_off_c, 0, 47, 64
1, 19636, Note_on_c, 0, 76, 65
1, 19642, Note_on_c, 0, 48, 39
1, 19914, Note_off_c, 0, 76, 64
1, 19925, Note_off_c, 0, 48, 64
1, 19962, Note_on_c, 0, 76, 69
1, 19987, Note_on_c, 0, 55, 39
1, 20224, Note_off_c, 0, 55, 64
1, 20235, Note_off_c, 0, 76, 64
1, 20285, Note_on_c, 0, 76, 75
1, 20307, Note_on_c, 0, 48, 41
1, 20446, Note_on_c, 0, 79, 83
1, 20478, Note_off_c, 0, 76, 64
1, 20599, Note_off_c, 0, 48, 64
1, 20613, Note_on_c, 0, 74, 71
1, 20623, Note_on_c, 0, 47, 33
1, 20638, Note_off_c, 0, 79, 64
1, 20853, Note_off_c, 0, 47, 64
1, 20895, Note_off_c, 0, 74, 64
1, 20954, Note_on_c, 0, 74, 65
1, 20979, Note_on_c, 0, 55, 40
1, 21237, Note_off_c, 0, 74, 64
1, 21243, Note_off_c, 0, 55, 64
1, 21286, Note_on_c, 0, 74, 84
1, 21311, Note_on_c, 0, 47, 34
1, 21449, Note_off_c, 0, 74, 64
1, 21449, Note_on_c, 0, 79, 83
1, 21599, Note_off_c, 0, 47, 64
1, 21609, Note_off_c, 0, 79, 64
1, 21617, Note_on_c, 0, 72, 68
1, 21617, Note_on_c, 0, 45, 40
1, 21814, Note_off_c, 0, 45, 64
1, 21943, Note_on_c, 0, 54, 50
1, 21950, Note_on_c, 0, 74, 61
1, 21967, Note_off_c, 0, 72, 64
1, 22104, Note_on_c, 0, 72, 53
1, 22124, Note_off_c, 0, 74, 64
1, 22251, Note_off_c, 0, 54, 64
1, 22261, Note_on_c, 0, 71, 59
1, 22266, Note_off_c, 0, 72, 64
1, 22277, Note_on_c, 0, 55, 31
1, 22425, Note_on_c, 0, 72, 44
1, 22430, Note_off_c, 0, 71, 64
1, 22558, Note_off_c, 0, 55, 64
1, 22578, Note_off_c, 0, 72, 64
1, 22581, Note_on_c, 0, 69, 34
1, 22589, Note_on_c, 0, 50, 36
1, 22740, Note_on_c, 0, 52, 59
1, 22756, Note_off_c, 0, 50, 64
1, 22887, Note_on_c, 0, 54, 62
1, 22887, Note_off_c, 0, 52, 64
1, 23060, Note_off_c, 0, 54, 64
1, 23060, Note_on_c, 0, 50, 48
1, 23218, Note_off_c, 0, 50, 64
1, 23229, Note_on_c, 0, 52, 51
1, 23366, Note_off_c, 0, 52, 64
1, 23381, Note_on_c, 0, 54, 40
1, 23528, Note_off_c, 0, 54, 64
1, 23577, Note_off_c, 0, 69, 64
1, 23581, Note_on_c, 0, 67, 41
1, 23595, Note_on_c, 0, 55, 26
1, 23742, Note_off_c, 0, 67, 64
1, 23767, Note_on_c, 0, 71, 50
1, 23909, Note_off_c, 0, 71, 64
1, 23909, Note_on_c, 0, 74, 55
1, 24037, Note_off_c, 0, 74, 64
1, 24065, Note_on_c, 0, 79, 63
1, 24183, Note_off_c, 0, 79, 64
1, 24197, Note_off_c, 0, 55, 64
1, 24221, Note_on_c, 0, 69, 42
1, 24244, Note_on_c, 0, 50, 26
1, 24294, Note_off_c, 0, 69, 64
1, 24386, Note_on_c, 0, 78, 44
1, 24435, Note_off_c, 0, 78, 64
1, 24484, Note_off_c, 0, 50, 64
1, 24548, Note_on_c, 0, 79, 50
1, 24562, Note_on_c, 0, 43, 34
1, 24714, Note_off_c, 0, 43, 64
1, 24728, Note_on_c, 0, 47, 36
1, 24831, Note_off_c, 0, 79, 64
1, 24864, Note_off_c, 0, 47, 64
1, 24864, Note_on_c, 0, 67, 36
1, 24878, Note_on_c, 0, 50, 36
1, 24987, Note_off_c, 0, 50, 64
1, 24990, Note_off_c, 0, 67, 64
1, 25043, Note_on_c, 0, 55, 44
1, 25138, Note_off_c, 0, 55, 64
1, 25188, Note_on_c, 0, 67, 47
1, 25211, Note_on_c, 0, 50, 41
1, 25258, Note_off_c, 0, 67, 64
1, 25330, Note_off_c, 0, 50, 64
1, 25357, Note_on_c, 0, 47, 41
1, 25508, Note_off_c, 0, 47, 64
1, 25523, Note_on_c, 0, 43, 47
1, 25528, Note_on_c, 0, 67, 57
1, 25684, Note_off_c, 0, 67, 64
1, 25694, Note_on_c, 0, 71, 66
1, 25856, Note_on_c, 0, 74, 71
1, 25856, Note_off_c, 0, 71, 64
1, 26015, Note_off_c, 0, 74, 64
1, 26015, Note_on_c, 0, 79, 68
1, 26141, Note_off_c, 0, 43, 64
1, 26163, Note_off_c, 0, 79, 64
1, 26163, Note_on_c, 0, 50, 41
1, 26166, Note_on_c, 0, 69, 46
1, 26319, Note_off_c, 0, 69, 64
1, 26333, Note_on_c, 0, 78, 56
1, 26389, Note_off_c, 0, 78, 64
1, 26441, Note_off_c, 0, 50, 64
1, 26500, Note_on_c, 0, 79, 54
1, 26505, Note_on_c, 0, 43, 38
1, 26668, Note_on_c, 0, 47, 34
1, 26675, Note_off_c, 0, 43, 64
1, 26753, Note_off_c, 0, 79, 64
1, 26820, Note_off_c, 0, 47, 64
1, 26820, Note_on_c, 0, 67, 30
1, 26826, Note_on_c, 0, 50, 36
1, 26915, Note_off_c, 0, 67, 64
1, 26940, Note_off_c, 0, 50, 64
1, 26982, Note_on_c, 0, 55, 38
1, 27127, Note_on_c, 0, 67, 45
1, 27135, Note_off_c, 0, 55, 64
1, 27155, Note_on_c, 0, 50, 36
1, 27224, Note_off_c, 0, 67, 64
1, 27244, Note_off_c, 0, 50, 64
1, 27288, Note_on_c, 0, 47, 31
1, 27466, Note_on_c, 0, 76, 43
1, 27466, Note_off_c, 0, 47, 64
1, 27477, Note_on_c, 0, 48, 30
1, 27792, Note_off_c, 0, 48, 64
1, 27801, Note_on_c, 0, 74, 41
1, 27806, Note_on_c, 0, 52, 36
1, 27828, Note_off_c, 0, 76, 64
1, 27954, Note_on_c, 0, 72, 47
1, 27974, Note_off_c, 0, 74, 64
1, 28009, Note_off_c, 0, 52, 64
1, 28074, Note_off_c, 0, 72, 64
1, 28108, Note_on_c, 0, 71, 52
1, 28121, Note_on_c, 0, 55, 30
1, 28221, Note_off_c, 0, 55, 64
1, 28253, Note_on_c, 0, 69, 48
1, 28264, Note_off_c, 0, 71, 64
1, 28422, Note_on_c, 0, 47, 20
1, 28428, Note_off_c, 0, 69, 64
1, 28433, Note_on_c, 0, 74, 62
1, 28595, Control_c, 0, 64, 127
1, 28633, Note_off_c, 0, 74, 64
1, 28662, Note_on_c, 0, 72, 29
1, 28690, Control_c, 0, 64, 0
1, 28693, Note_on_c, 0, 74, 59
1, 28721, Note_off_c, 0, 47, 64
1, 28745, Note_off_c, 0, 74, 64
1, 28745, Note_on_c, 0, 50, 29
1, 28907, Note_off_c, 0, 50, 64
1, 28913, Note_on_c, 0, 71, 53
1, 28937, Note_off_c, 0, 72, 64
1, 29060, Note_off_c, 0, 71, 64
1, 29071, Note_on_c, 0, 69, 38
1, 29077, Note_on_c, 0, 55, 26
1, 29157, Note_off_c, 0, 55, 64
1, 29218, Note_on_c, 0, 67, 58
1, 29232, Note_off_c, 0, 69, 64
1, 29395, Note_on_c, 0, 69, 59
1, 29405, Note_on_c, 0, 48, 20
1, 29422, Note_off_c, 0, 67, 64
1, 29520, Note_off_c, 0, 69, 64
1, 29520, Note_on_c, 0, 71, 65
1, 29618, Note_on_c, 0, 72, 55
1, 29628, Note_off_c, 0, 71, 64
1, 29687, Note_off_c, 0, 48, 64
1, 29706, Note_off_c, 0, 72, 64
1, 29721, Note_on_c, 0, 50, 33
1, 29730, Note_on_c, 0, 62, 58
1, 29827, Note_off_c, 0, 50, 64
1, 30047, Note_off_c, 0, 62, 64
1, 30054, Note_on_c, 0, 66, 37
1, 30071, Note_on_c, 0, 50, 33
1, 30177, Note_off_c, 0, 50, 64
1, 30412, Note_on_c, 0, 67, 44
1, 30420, Note_off_c, 0, 66, 64
1, 30420, Note_on_c, 0, 55, 28
1, 30701, Note_off_c, 0, 55, 64
1, 30762, Note_on_c, 0, 50, 34
1, 30994, Note_off_c, 0, 50, 64
1, 31160, Note_on_c, 0, 43, 32
1, 31292, Note_off_c, 0, 43, 64
1, 31297, Note_off_c, 0, 67, 64
1, 31303, Control_c, 0, 64, 127
1, 31436, Control_c, 0, 64, 0
1, 31687, Note_on_c, 0, 67, 41
1, 31696, Note_on_c, 0, 52, 33
1, 31873, Note_on_c, 0, 69, 41
1, 31910, Note_off_c, 0, 67, 64
1, 31943, Note_off_c, 0, 52, 64
1, 32047, Note_on_c, 0, 71, 58
1, 32055, Note_off_c, 0, 69, 64
1, 32058, Note_on_c, 0, 51, 29
1, 32186, Note_off_c, 0, 51, 64
1, 32202, Note_on_c, 0, 69, 54
1, 32230, Note_off_c, 0, 71, 64
1, 32364, Note_on_c, 0, 67, 65
1, 32370, Note_on_c, 0, 47, 39
1, 32391, Note_off_c, 0, 69, 64
1, 32423, Note_off_c, 0, 47, 64
1, 32511, Note_on_c, 0, 66, 57
1, 32523, Note_off_c, 0, 67, 64
1, 32701, Note_on_c, 0, 67, 54
1, 32707, Note_off_c, 0, 66, 64
1, 32714, Note_on_c, 0, 52, 44
1, 33027, Note_off_c, 0, 52, 64
1, 33047, Note_off_c, 0, 67, 64
1, 33050, Note_on_c, 0, 64, 42
1, 33050, Note_on_c, 0, 47, 26
1, 33160, Note_off_c, 0, 64, 64
1, 33266, Note_off_c, 0, 47, 64
1, 33384, Note_on_c, 0, 64, 44
1, 33387, Note_on_c, 0, 40, 51
1, 33423, Note_off_c, 0, 40, 64
1, 33442, Note_off_c, 0, 64, 64
1, 33713, Note_on_c, 0, 79, 72
1, 33746, Note_on_c, 0, 52, 33
1, 33876, Note_on_c, 0, 78, 70
1, 33913, Note_off_c, 0, 79, 64
1, 34002, Note_off_c, 0, 52, 64
1, 34038, Note_on_c, 0, 76, 71
1, 34043, Note_on_c, 0, 55, 38
1, 34043, Note_off_c, 0, 78, 64
1, 34202, Note_on_c, 0, 79, 87
1, 34216, Note_off_c, 0, 76, 64
1, 34333, Note_off_c, 0, 55, 64
1, 34359, Note_on_c, 0, 78, 78
1, 34383, Note_on_c, 0, 59, 34
1, 34405, Note_off_c, 0, 79, 64
1, 34523, Note_on_c, 0, 76, 72
1, 34528, Note_off_c, 0, 78, 64
1, 34640, Note_off_c, 0, 59, 64
1, 34687, Note_on_c, 0, 47, 49
1, 34687, Note_on_c, 0, 78, 61
1, 34721, Note_off_c, 0, 76, 64
1, 34851, Note_on_c, 0, 51, 47
1, 34877, Note_off_c, 0, 47, 64
1, 35007, Note_on_c, 0, 54, 51
1, 35013, Note_on_c, 0, 71, 53
1, 35024, Note_off_c, 0, 51, 64
1, 35024, Note_off_c, 0, 78, 64
1, 35130, Note_off_c, 0, 54, 64
1, 35166, Note_on_c, 0, 59, 53
1, 35185, Note_off_c, 0, 71, 64
1, 35325, Note_on_c, 0, 71, 64
1, 35333, Note_on_c, 0, 54, 52
1, 35333, Note_off_c, 0, 59, 64
1, 35375, Note_off_c, 0, 71, 64
1, 35473, Note_off_c, 0, 54, 64
1, 35479, Note_on_c, 0, 51, 51
1, 35667, Note_on_c, 0, 79, 76
1, 35687, Note_on_c, 0, 52, 48
1, 35695, Note_off_c, 0, 51, 64
1, 35827, Note_on_c, 0, 78, 73
1, 35879, Note_off_c, 0, 79, 64
1, 35991, Note_on_c, 0, 76, 73
1, 35991, Note_off_c, 0, 52, 64
1, 35995, Note_on_c, 0, 55, 55
1, 36019, Note_off_c, 0, 78, 64
1, 36155, Note_on_c, 0, 79, 93
1, 36184, Note_off_c, 0, 76, 64
1, 36309, Note_off_c, 0, 55, 64
1, 36312, Note_on_c, 0, 78, 85
1, 36325, Note_on_c, 0, 59, 51
1, 36364, Note_off_c, 0, 79, 64
1, 36467, Note_on_c, 0, 76, 84
1, 36515, Note_off_c, 0, 78, 64
1, 36617, Note_off_c, 0, 59, 64
1, 36634, Note_on_c, 0, 78, 79
1, 36660, Note_on_c, 0, 47, 49
1, 36682, Note_off_c, 0, 76, 64
1, 36877, Control_c, 0, 64, 127
1, 36940, Note_off_c, 0, 47, 64
1, 36960, Note_on_c, 0, 71, 85
1, 36985, Note_on_c, 0, 57, 41
1, 36996, Note_off_c, 0, 78, 64
1, 36996, Control_c, 0, 64, 0
1, 37223, Control_c, 0, 64, 127
1, 37241, Note_off_c, 0, 71, 64
1, 37272, Note_off_c, 0, 57, 64
1, 37272, Control_c, 0, 64, 0
1, 37281, Note_on_c, 0, 76, 84
1, 37289, Note_on_c, 0, 55, 59
1, 37464, Control_c, 0, 64, 127
1, 37484, Note_off_c, 0, 76, 64
1, 37618, Note_on_c, 0, 78, 84
1, 37628, Note_on_c, 0, 57, 51
1, 37638, Note_off_c, 0, 55, 64
1, 37666, Control_c, 0, 64, 0
1, 37759, Note_on_c, 0, 79, 89
1, 37807, Note_off_c, 0, 78, 64
1, 37863, Note_on_c, 0, 81, 83
1, 37908, Note_off_c, 0, 79, 64
1, 37968, Note_off_c, 0, 57, 64
1, 37971, Note_on_c, 0, 71, 80
1, 37993, Note_off_c, 0, 81, 64
1, 37993, Note_on_c, 0, 59, 34
1, 38334, Note_on_c, 0, 75, 65
1, 38351, Note_off_c, 0, 59, 64
1, 38356, Note_on_c, 0, 47, 41
1, 38375, Note_off_c, 0, 71, 64
1, 38716, Note_off_c, 0, 47, 64
1, 38721, Note_on_c, 0, 76, 47
1, 38735, Note_on_c, 0, 52, 36
1, 38751, Note_off_c, 0, 75, 64
1, 39099, Note_on_c, 0, 75, 38
1, 39099, Note_off_c, 0, 76, 64
1, 39281, Note_on_c, 0, 76, 47
1, 39312, Note_off_c, 0, 75, 64
1, 39456, Note_on_c, 0, 78, 49
1, 39473, Note_off_c, 0, 76, 64
1, 39799, Note_off_c, 0, 52, 64
1, 39824, Note_off_c, 0, 78, 64
1, 39827, Note_on_c, 0, 79, 48
1, 39827, Note_on_c, 0, 47, 23
1, 40017, Note_off_c, 0, 79, 64
1, 40041, Control_c, 0, 64, 127
1, 40166, Note_on_c, 0, 50, 32
1, 40166, Note_on_c, 0, 79, 49
1, 40173, Note_off_c, 0, 47, 64
1, 40184, Control_c, 0, 64, 0
1, 40331, Note_on_c, 0, 78, 49
1, 40335, Note_off_c, 0, 79, 64
1, 40495, Note_off_c, 0, 50, 64
1, 40504, Note_on_c, 0, 76, 45
1, 40513, Note_on_c, 0, 55, 31
1, 40532, Note_off_c, 0, 78, 64
1, 40665, Note_on_c, 0, 74, 55
1, 40684, Note_off_c, 0, 76, 64
1, 40833, Note_off_c, 0, 55, 64
1, 40833, Note_on_c, 0, 76, 65
1, 40843, Note_on_c, 0, 48, 23
1, 40849, Note_off_c, 0, 74, 64
1, 41042, Note_off_c, 0, 76, 64
1, 41167, Note_on_c, 0, 76, 59
1, 41191, Note_on_c, 0, 50, 26
1, 41208, Note_off_c, 0, 48, 64
1, 41329, Note_on_c, 0, 74, 57
1, 41364, Note_off_c, 0, 76, 64
1, 41487, Note_on_c, 0, 72, 62
1, 41501, Note_off_c, 0, 50, 64
1, 41509, Note_off_c, 0, 74, 64
1, 41509, Note_on_c, 0, 52, 38
1, 41640, Note_on_c, 0, 71, 68
1, 41649, Note_off_c, 0, 72, 64
1, 41807, Note_on_c, 0, 45, 48
1, 41807, Note_on_c, 0, 72, 63
1, 41811, Note_off_c, 0, 71, 64
1, 41814, Note_off_c, 0, 52, 64
1, 42006, Note_off_c, 0, 72, 64
1, 42136, Note_on_c, 0, 72, 48
1, 42151, Note_on_c, 0, 47, 44
1, 42183, Note_off_c, 0, 45, 64
1, 42295, Note_on_c, 0, 71, 65
1, 42311, Note_off_c, 0, 72, 64
1, 42454, Note_on_c, 0, 69, 49
1, 42459, Note_on_c, 0, 48, 39
1, 42479, Note_off_c, 0, 71, 64
1, 42513, Note_off_c, 0, 47, 64
1, 42613, Note_on_c, 0, 67, 67
1, 42621, Note_off_c, 0, 69, 64
1, 42785, Note_off_c, 0, 48, 64
1, 42791, Note_on_c, 0, 66, 52
1, 42796, Note_on_c, 0, 50, 47
1, 42822, Note_off_c, 0, 67, 64
1, 43116, Note_on_c, 0, 64, 55
1, 43130, Note_on_c, 0, 45, 35
1, 43137, Note_off_c, 0, 66, 64
1, 43159, Note_off_c, 0, 50, 64
1, 43284, Note_on_c, 0, 66, 49
1, 43314, Note_off_c, 0, 64, 64
1, 43435, Note_off_c, 0, 45, 64
1, 43468, Note_off_c, 0, 66, 64
1, 43468, Note_on_c, 0, 38, 30
1, 43468, Note_on_c, 0, 62, 42
1, 43604, Note_off_c, 0, 38, 64
1, 43768, Note_off_c, 0, 62, 64
1, 43821, Note_on_c, 0, 54, 45
1, 43852, Note_on_c, 0, 69, 27
1, 43983, Note_off_c, 0, 54, 64
1, 44006, Note_on_c, 0, 50, 38
1, 44097, Note_off_c, 0, 50, 64
1, 44159, Note_on_c, 0, 62, 41
1, 44175, Note_off_c, 0, 69, 64
1, 44175, Note_on_c, 0, 54, 44
1, 44231, Note_off_c, 0, 62, 64
1, 44323, Note_off_c, 0, 54, 64
1, 44323, Note_on_c, 0, 50, 51
1, 44477, Note_off_c, 0, 50, 64
1, 44493, Note_on_c, 0, 54, 55
1, 44498, Note_on_c, 0, 62, 48
1, 44569, Note_off_c, 0, 62, 64
1, 44644, Note_off_c, 0, 54, 64
1, 44647, Note_on_c, 0, 50, 48
1, 44805, Note_off_c, 0, 50, 64
1, 44811, Note_on_c, 0, 71, 72
1, 44822, Note_on_c, 0, 55, 48
1, 44977, Note_off_c, 0, 55, 64
1, 44977, Note_on_c, 0, 50, 52
1, 45105, Note_off_c, 0, 71, 64
1, 45114, Note_off_c, 0, 50, 64
1, 45122, Note_on_c, 0, 55, 50
1, 45128, Note_on_c, 0, 62, 56
1, 45220, Note_off_c, 0, 62, 64
1, 45279, Note_on_c, 0, 50, 60
1, 45282, Note_off_c, 0, 55, 64
1, 45429, Note_off_c, 0, 50, 64
1, 45443, Note_on_c, 0, 55, 45
1, 45443, Note_on_c, 0, 62, 67
1, 45498, Note_off_c, 0, 62, 64
1, 45594, Note_on_c, 0, 50, 58
1, 45612, Note_off_c, 0, 55, 64
1, 45758, Note_off_c, 0, 50, 64
1, 45763, Note_on_c, 0, 72, 59
1, 45782, Note_on_c, 0, 54, 51
1, 45924, Note_off_c, 0, 54, 64
1, 46100, Note_on_c, 0, 50, 39
1, 46100, Note_on_c, 0, 74, 62
1, 46120, Note_off_c, 0, 72, 64
1, 46228, Note_off_c, 0, 50, 64
1, 46259, Note_on_c, 0, 72, 60
1, 46281, Note_off_c, 0, 74, 64
1, 46412, Note_on_c, 0, 71, 78
1, 46427, Note_off_c, 0, 72, 64
1, 46434, Note_on_c, 0, 55, 44
1, 46488, Note_off_c, 0, 55, 64
1, 46565, Note_on_c, 0, 72, 51
1, 46576, Note_off_c, 0, 71, 64
1, 46729, Note_on_c, 0, 50, 41
1, 46733, Note_on_c, 0, 69, 49
1, 46752, Note_off_c, 0, 72, 64
1, 46874, Note_on_c, 0, 52, 63
1, 46881, Note_off_c, 0, 50, 64
1, 47016, Note_on_c, 0, 54, 69
1, 47016, Note_off_c, 0, 52, 64
1, 47170, Note_off_c, 0, 54, 64
1, 47170, Note_on_c, 0, 50, 65
1, 47340, Note_on_c, 0, 52, 83
1, 47354, Note_off_c, 0, 50, 64
1, 47402, Note_off_c, 0, 69, 64
1, 47491, Note_on_c, 0, 54, 79
1, 47518, Note_off_c, 0, 52, 64
1, 47669, Note_on_c, 0, 67, 86
1, 47673, Note_off_c, 0, 54, 64
1, 47682, Note_on_c, 0, 55, 72
1, 47835, Note_on_c, 0, 71, 88
1, 47874, Note_off_c, 0, 67, 64
1, 47984, Note_on_c, 0, 74, 87
1, 48034, Note_off_c, 0, 71, 64
1, 48142, Note_on_c, 0, 79, 89
1, 48159, Note_off_c, 0, 74, 64
1, 48290, Note_on_c, 0, 69, 69
1, 48301, Note_on_c, 0, 50, 59
1, 48306, Note_off_c, 0, 55, 64
1, 48320, Note_off_c, 0, 79, 64
1, 48446, Note_on_c, 0, 78, 86
1, 48462, Note_off_c, 0, 69, 64
1, 48611, Note_on_c, 0, 43, 70
1, 48611, Note_off_c, 0, 50, 64
1, 48615, Note_on_c, 0, 79, 95
1, 48630, Note_off_c, 0, 78, 64
1, 48774, Note_on_c, 0, 47, 67
1, 48806, Note_off_c, 0, 43, 64
1, 48898, Note_off_c, 0, 79, 64
1, 48927, Note_on_c, 0, 50, 72
1, 48931, Note_on_c, 0, 67, 67
1, 48939, Note_off_c, 0, 47, 64
1, 49039, Note_off_c, 0, 67, 64
1, 49076, Note_off_c, 0, 50, 64
1, 49089, Note_on_c, 0, 55, 69
1, 49239, Note_on_c, 0, 67, 72
1, 49246, Note_on_c, 0, 50, 67
1, 49262, Note_off_c, 0, 55, 64
1, 49307, Note_off_c, 0, 67, 64
1, 49393, Note_off_c, 0, 50, 64
1, 49398, Note_on_c, 0, 47, 60
1, 49557, Note_off_c, 0, 47, 64
1, 49572, Note_on_c, 0, 67, 53
1, 49586, Note_on_c, 0, 43, 41
1, 49735, Note_on_c, 0, 71, 58
1, 49735, Note_off_c, 0, 67, 64
1, 49895, Note_on_c, 0, 74, 59
1, 49913, Note_off_c, 0, 71, 64
1, 50036, Note_off_c, 0, 74, 64
1, 50062, Note_on_c, 0, 79, 54
1, 50148, Note_off_c, 0, 43, 64
1, 50204, Note_off_c, 0, 79, 64
1, 50209, Note_on_c, 0, 69, 38
1, 50223, Note_on_c, 0, 50, 32
1, 50354, Note_off_c, 0, 69, 64
1, 50366, Note_on_c, 0, 78, 47
1, 50487, Note_off_c, 0, 50, 64
1, 50525, Note_off_c, 0, 78, 64
1, 50543, Note_on_c, 0, 43, 26
1, 50546, Note_on_c, 0, 79, 52
1, 50686, Note_off_c, 0, 43, 64
1, 50702, Note_on_c, 0, 47, 31
1, 50845, Note_off_c, 0, 79, 64
1, 50863, Note_on_c, 0, 50, 37
1, 50870, Note_on_c, 0, 67, 29
1, 50875, Note_off_c, 0, 47, 64
1, 50997, Note_off_c, 0, 50, 64
1, 51020, Note_on_c, 0, 55, 38
1, 51051, Note_off_c, 0, 67, 64
1, 51146, Note_off_c, 0, 55, 64
1, 51178, Note_on_c, 0, 67, 52
1, 51190, Note_on_c, 0, 50, 37
1, 51231, Note_off_c, 0, 67, 64
1, 51299, Note_off_c, 0, 50, 64
1, 51334, Note_on_c, 0, 47, 31
1, 51518, Note_on_c, 0, 76, 50
1, 51521, Note_off_c, 0, 47, 64
1, 51533, Note_on_c, 0, 48, 26
1, 51833, Note_off_c, 0, 48, 64
1, 51847, Note_on_c, 0, 74, 41
1, 51866, Note_on_c, 0, 52, 26
1, 51875, Note_off_c, 0, 76, 64
1, 52003, Note_on_c, 0, 72, 47
1, 52015, Note_off_c, 0, 74, 64
1, 52039, Note_off_c, 0, 52, 64
1, 52148, Note_off_c, 0, 72, 64
1, 52160, Note_on_c, 0, 71, 51
1, 52181, Note_on_c, 0, 55, 24
1, 52260, Note_off_c, 0, 55, 64
1, 52313, Note_off_c, 0, 71, 64
1, 52313, Note_on_c, 0, 69, 44
1, 52466, Note_off_c, 0, 69, 64
1, 52480, Note_on_c, 0, 47, 28
1, 52483, Note_on_c, 0, 74, 56
1, 52691, Note_off_c, 0, 74, 64
1, 52708, Note_on_c, 0, 72, 46
1, 52750, Note_off_c, 0, 72, 64
1, 52750, Note_on_c, 0, 74, 54
1, 52763, Note_off_c, 0, 47, 64
1, 52802, Note_on_c, 0, 72, 57
1, 52802, Note_on_c, 0, 50, 27
1, 52813, Note_off_c, 0, 74, 64
1, 52972, Note_on_c, 0, 71, 66
1, 52992, Note_off_c, 0, 50, 64
1, 53006, Note_off_c, 0, 72, 64
1, 53118, Note_off_c, 0, 71, 64
1, 53121, Note_on_c, 0, 69, 46
1, 53132, Note_on_c, 0, 55, 43
1, 53217, Note_off_c, 0, 55, 64
1, 53262, Note_on_c, 0, 67, 73
1, 53279, Note_off_c, 0, 69, 64
1, 53430, Note_on_c, 0, 69, 56
1, 53434, Note_off_c, 0, 67, 64
1, 53437, Note_on_c, 0, 48, 29
1, 53599, Note_off_c, 0, 69, 64
1, 53599, Note_on_c, 0, 71, 60
1, 53717, Note_off_c, 0, 48, 64
1, 53725, Note_off_c, 0, 71, 64
1, 53761, Note_on_c, 0, 62, 50
1, 53788, Note_on_c, 0, 50, 32
1, 53870, Note_off_c, 0, 50, 64
1, 54071, Note_off_c, 0, 62, 64
1, 54107, Note_on_c, 0, 66, 32
1, 54120, Note_on_c, 0, 50, 35
1, 54242, Note_off_c, 0, 50, 64
1, 54435, Note_off_c, 0, 66, 64
1, 54468, Note_on_c, 0, 67, 28
1, 54474, Note_on_c, 0, 55, 27
1, 54567, Note_off_c, 0, 55, 64
1, 54822, Note_on_c, 0, 50, 30
1, 54956, Note_off_c, 0, 50, 64
1, 55229, Note_on_c, 0, 43, 24
1, 55338, Note_off_c, 0, 43, 64
1, 55344, Control_c, 0, 64, 127
1, 55354, Note_off_c, 0, 67, 64
1, 55405, Control_c, 0, 64, 0
1, 55705, Note_on_c, 0, 67, 34
1, 55713, Note_on_c, 0, 52, 30
1, 55878, Note_on_c, 0, 69, 31
1, 55883, Note_off_c, 0, 67, 64
1, 56046, Note_off_c, 0, 69, 64
1, 56049, Note_on_c, 0, 51, 34
1, 56049, Note_off_c, 0, 52, 64
1, 56049, Note_on_c, 0, 71, 49
1, 56206, Note_on_c, 0, 69, 39
1, 56213, Note_off_c, 0, 71, 64
1, 56374, Note_on_c, 0, 67, 49
1, 56374, Note_off_c, 0, 51, 64
1, 56380, Note_off_c, 0, 69, 64
1, 56388, Note_on_c, 0, 47, 29
1, 56519, Note_off_c, 0, 67, 64
1, 56532, Note_on_c, 0, 66, 47
1, 56650, Note_off_c, 0, 47, 64
1, 56711, Note_off_c, 0, 66, 64
1, 56716, Note_on_c, 0, 67, 48
1, 56728, Note_on_c, 0, 52, 36
1, 57017, Note_off_c, 0, 52, 64
1, 57046, Note_off_c, 0, 67, 64
1, 57053, Note_on_c, 0, 64, 41
1, 57057, Note_on_c, 0, 47, 26
1, 57185, Note_off_c, 0, 64, 64
1, 57347, Note_off_c, 0, 47, 64
1, 57399, Note_on_c, 0, 64, 42
1, 57399, Note_on_c, 0, 40, 42
1, 57486, Note_off_c, 0, 64, 64
1, 57650, Note_off_c, 0, 40, 64
1, 57728, Note_on_c, 0, 79, 59
1, 57755, Note_on_c, 0, 52, 52
1, 57895, Note_on_c, 0, 78, 59
1, 57932, Note_off_c, 0, 79, 64
1, 58056, Note_off_c, 0, 52, 64
1, 58060, Note_on_c, 0, 76, 56
1, 58073, Note_off_c, 0, 78, 64
1, 58078, Note_on_c, 0, 55, 37
1, 58223, Note_on_c, 0, 79, 61
1, 58235, Note_off_c, 0, 76, 64
1, 58380, Note_off_c, 0, 55, 64
1, 58383, Note_on_c, 0, 78, 56
1, 58404, Note_on_c, 0, 59, 26
1, 58411, Note_off_c, 0, 79, 64
1, 58541, Note_on_c, 0, 76, 52
1, 58546, Note_off_c, 0, 78, 64
1, 58695, Note_off_c, 0, 59, 64
1, 58714, Note_on_c, 0, 78, 46
1, 58717, Note_on_c, 0, 47, 29
1, 58720, Note_off_c, 0, 76, 64
1, 58879, Note_on_c, 0, 51, 34
1, 58879, Note_off_c, 0, 47, 64
1, 59034, Note_on_c, 0, 54, 45
1, 59034, Note_on_c, 0, 71, 44
1, 59040, Note_off_c, 0, 51, 64
1, 59067, Note_off_c, 0, 78, 64
1, 59168, Note_off_c, 0, 54, 64
1, 59191, Note_on_c, 0, 59, 44
1, 59216, Note_off_c, 0, 71, 64
1, 59352, Note_on_c, 0, 71, 63
1, 59358, Note_on_c, 0, 54, 42
1, 59358, Note_off_c, 0, 59, 64
1, 59436, Note_off_c, 0, 71, 64
1, 59516, Note_on_c, 0, 51, 42
1, 59522, Note_off_c, 0, 54, 64
1, 59700, Note_on_c, 0, 79, 69
1, 59711, Note_off_c, 0, 51, 64
1, 59723, Note_on_c, 0, 52, 54
1, 59859, Note_on_c, 0, 78, 64
1, 59892, Note_off_c, 0, 79, 64
1, 60017, Note_off_c, 0, 78, 64
1, 60017, Note_on_c, 0, 76, 62
1, 60028, Note_off_c, 0, 52, 64
1, 60034, Note_on_c, 0, 55, 42
1, 60180, Note_on_c, 0, 79, 85
1, 60194, Note_off_c, 0, 76, 64
1, 60319, Note_off_c, 0, 55, 64
1, 60341, Note_on_c, 0, 78, 79
1, 60360, Note_on_c, 0, 59, 34
1, 60386, Note_off_c, 0, 79, 64
1, 60502, Note_on_c, 0, 76, 75
1, 60524, Note_off_c, 0, 78, 64
1, 60631, Note_off_c, 0, 59, 64
1, 60670, Note_on_c, 0, 78, 74
1, 60684, Note_on_c, 0, 47, 32
1, 60694, Note_off_c, 0, 76, 64
1, 60999, Note_on_c, 0, 71, 76
1, 61004, Note_off_c, 0, 47, 64
1, 61020, Note_on_c, 0, 57, 34
1, 61043, Note_off_c, 0, 78, 64
1, 61333, Note_on_c, 0, 76, 74
1, 61338, Note_off_c, 0, 57, 64
1, 61338, Note_on_c, 0, 55, 56
1, 61338, Note_off_c, 0, 71, 64
1, 61681, Note_on_c, 0, 78, 72
1, 61687, Note_off_c, 0, 55, 64
1, 61701, Note_on_c, 0, 57, 41
1, 61722, Note_off_c, 0, 76, 64
1, 61828, Note_on_c, 0, 79, 78
1, 61854, Note_off_c, 0, 78, 64
1, 61928, Note_on_c, 0, 81, 71
1, 61948, Note_off_c, 0, 79, 64
1, 62024, Note_off_c, 0, 57, 64
1, 62029, Note_off_c, 0, 81, 64
1, 62037, Note_on_c, 0, 71, 73
1, 62060, Note_on_c, 0, 59, 34
1, 62407, Note_off_c, 0, 59, 64
1, 62407, Note_on_c, 0, 75, 58
1, 62421, Note_on_c, 0, 47, 32
1, 62435, Note_off_c, 0, 71, 64
1, 62765, Note_off_c, 0, 47, 64
1, 62775, Note_on_c, 0, 76, 35
1, 62795, Note_on_c, 0, 52, 29
1, 62795, Note_off_c, 0, 75, 64
1, 63144, Note_on_c, 0, 75, 44
1, 63162, Note_off_c, 0, 76, 64
1, 63313, Note_on_c, 0, 76, 48
1, 63336, Note_off_c, 0, 75, 64
1, 63470, Note_on_c, 0, 78, 52
1, 63489, Note_off_c, 0, 76, 64
1, 63818, Note_on_c, 0, 79, 42
1, 63818, Note_off_c, 0, 52, 64
1, 63832, Note_on_c, 0, 47, 19
1, 63846, Note_off_c, 0, 78, 64
1, 64034, Note_off_c, 0, 79, 64
1, 64070, Control_c, 0, 64, 127
1, 64172, Note_on_c, 0, 50, 28
1, 64175, Note_on_c, 0, 79, 52
1, 64187, Note_off_c, 0, 47, 64
1, 64274, Control_c, 0, 64, 0
1, 64333, Note_on_c, 0, 78, 43
1, 64333, Note_off_c, 0, 79, 64
1, 64458, Note_off_c, 0, 50, 64
1, 64503, Note_on_c, 0, 76, 33
1, 64509, Note_on_c, 0, 55, 29
1, 64519, Note_off_c, 0, 78, 64
1, 64656, Note_off_c, 0, 76, 64
1, 64656, Note_on_c, 0, 74, 44
1, 64815, Note_off_c, 0, 55, 64
1, 64834, Note_on_c, 0, 48, 30
1, 64839, Note_off_c, 0, 74, 64
1, 64845, Note_on_c, 0, 76, 44
1, 65073, Note_off_c, 0, 76, 64
1, 65152, Note_on_c, 0, 76, 29
1, 65155, Note_off_c, 0, 48, 64
1, 65160, Note_on_c, 0, 50, 49
1, 65322, Note_on_c, 0, 74, 56
1, 65339, Note_off_c, 0, 76, 64
1, 65469, Note_off_c, 0, 50, 64
1, 65484, Note_on_c, 0, 72, 57
1, 65489, Note_off_c, 0, 74, 64
1, 65500, Note_on_c, 0, 52, 49
1, 65645, Note_off_c, 0, 72, 64
1, 65645, Note_on_c, 0, 71, 64
1, 65806, Note_off_c, 0, 71, 64
1, 65810, Note_on_c, 0, 45, 49
1, 65813, Note_off_c, 0, 52, 64
1, 65823, Note_on_c, 0, 72, 44
1, 66018, Note_off_c, 0, 72, 64
1, 66143, Note_on_c, 0, 72, 48
1, 66151, Note_on_c, 0, 47, 40
1, 66171, Note_off_c, 0, 45, 64
1, 66311, Note_on_c, 0, 71, 54
1, 66314, Note_off_c, 0, 72, 64
1, 66459, Note_on_c, 0, 69, 46
1, 66473, Note_off_c, 0, 71, 64
1, 66481, Note_on_c, 0, 48, 32
1, 66509, Note_off_c, 0, 47, 64
1, 66628, Note_on_c, 0, 67, 47
1, 66637, Note_off_c, 0, 69, 64
1, 66789, Note_off_c, 0, 48, 64
1, 66801, Note_on_c, 0, 66, 35
1, 66823, Note_off_c, 0, 67, 64
1, 66828, Note_on_c, 0, 50, 23
1, 67140, Note_on_c, 0, 64, 32
1, 67143, Note_off_c, 0, 66, 64
1, 67147, Note_off_c, 0, 50, 64
1, 67147, Note_on_c, 0, 45, 27
1, 67311, Note_on_c, 0, 66, 28
1, 67331, Note_off_c, 0, 64, 64
1, 67439, Note_off_c, 0, 45, 64
1, 67489, Note_off_c, 0, 66, 64
1, 67495, Note_on_c, 0, 62, 27
1, 67498, Note_on_c, 0, 38, 22
1, 67586, Note_off_c, 0, 62, 64
1, 67586, Note_off_c, 0, 38, 64
1, 67821, Note_on_c, 0, 54, 31
1, 67824, Note_on_c, 0, 69, 27
1, 67969, Note_off_c, 0, 54, 64
1, 67980, Note_on_c, 0, 50, 47
1, 68119, Note_off_c, 0, 50, 64
1, 68122, Note_off_c, 0, 69, 64
1, 68138, Note_on_c, 0, 62, 37
1, 68152, Note_on_c, 0, 54, 46
1, 68203, Note_off_c, 0, 62, 64
1, 68294, Note_off_c, 0, 54, 64
1, 68308, Note_on_c, 0, 50, 43
1, 68425, Note_off_c, 0, 50, 64
1, 68470, Note_on_c, 0, 54, 44
1, 68470, Note_on_c, 0, 62, 43
1, 68554, Note_off_c, 0, 62, 64
1, 68608, Note_off_c, 0, 54, 64
1, 68623, Note_on_c, 0, 50, 39
1, 68757, Note_off_c, 0, 50, 64
1, 68788, Note_on_c, 0, 71, 61
1, 68804, Note_on_c, 0, 55, 41
1, 68962, Note_on_c, 0, 50, 52
1, 68962, Note_off_c, 0, 55, 64
1, 69069, Note_off_c, 0, 71, 64
1, 69086, Note_off_c, 0, 50, 64
1, 69101, Note_on_c, 0, 62, 56
1, 69122, Note_on_c, 0, 55, 51
1, 69197, Note_off_c, 0, 62, 64
1, 69249, Note_off_c, 0, 55, 64
1, 69267, Note_on_c, 0, 50, 54
1, 69378, Note_off_c, 0, 50, 64
1, 69430, Note_on_c, 0, 62, 63
1, 69434, Note_on_c, 0, 55, 51
1, 69472, Note_off_c, 0, 62, 64
1, 69572, Note_off_c, 0, 55, 64
1, 69576, Note_on_c, 0, 50, 50
1, 69721, Note_off_c, 0, 50, 64
1, 69742, Note_on_c, 0, 72, 65
1, 69746, Note_on_c, 0, 54, 49
1, 69993, Note_off_c, 0, 54, 64
1, 70074, Note_on_c, 0, 74, 62
1, 70079, Note_on_c, 0, 50, 44
1, 70090, Note_off_c, 0, 72, 64
1, 70169, Note_off_c, 0, 50, 64
1, 70235, Note_on_c, 0, 72, 62
1, 70264, Note_off_c, 0, 74, 64
1, 70389, Note_on_c, 0, 71, 69
1, 70400, Note_on_c, 0, 55, 35
1, 70408, Note_off_c, 0, 72, 64
1, 70462, Note_off_c, 0, 55, 64
1, 70545, Note_on_c, 0, 72, 67
1, 70554, Note_off_c, 0, 71, 64
1, 70704, Note_on_c, 0, 69, 54
1, 70715, Note_on_c, 0, 50, 31
1, 70746, Note_off_c, 0, 72, 64
1, 70874, Note_on_c, 0, 52, 59
1, 70877, Note_off_c, 0, 50, 64
1, 71011, Note_off_c, 0, 52, 64
1, 71016, Note_on_c, 0, 54, 62
1, 71153, Note_off_c, 0, 54, 64
1, 71174, Note_on_c, 0, 50, 60
1, 71180, Note_off_c, 0, 69, 64
1, 71339, Note_on_c, 0, 52, 71
1, 71366, Note_off_c, 0, 50, 64
1, 71492, Note_on_c, 0, 54, 68
1, 71503, Note_off_c, 0, 52, 64
1, 71646, Note_off_c, 0, 54, 64
1, 71654, Note_on_c, 0, 67, 82
1, 71664, Note_on_c, 0, 55, 69
1, 71815, Note_on_c, 0, 71, 89
1, 71849, Note_off_c, 0, 67, 64
1, 71977, Note_on_c, 0, 74, 83
1, 72008, Note_off_c, 0, 71, 64
1, 72146, Note_on_c, 0, 79, 86
1, 72161, Note_off_c, 0, 74, 64
1, 72291, Note_on_c, 0, 69, 71
1, 72295, Note_off_c, 0, 55, 64
1, 72298, Note_on_c, 0, 50, 51
1, 72313, Note_off_c, 0, 79, 64
1, 72454, Note_off_c, 0, 69, 64
1, 72459, Note_on_c, 0, 78, 81
1, 72600, Note_off_c, 0, 78, 64
1, 72611, Note_off_c, 0, 50, 64
1, 72621, Note_on_c, 0, 79, 90
1, 72621, Note_on_c, 0, 43, 63
1, 72771, Note_on_c, 0, 47, 66
1, 72807, Note_off_c, 0, 43, 64
1, 72902, Note_off_c, 0, 79, 64
1, 72924, Note_off_c, 0, 47, 64
1, 72924, Note_on_c, 0, 67, 62
1, 72924, Note_on_c, 0, 50, 58
1, 73043, Note_off_c, 0, 67, 64
1, 73055, Note_off_c, 0, 50, 64
1, 73086, Note_on_c, 0, 55, 58
1, 73247, Note_on_c, 0, 67, 63
1, 73253, Note_on_c, 0, 50, 58
1, 73253, Note_off_c, 0, 55, 64
1, 73300, Note_off_c, 0, 67, 64
1, 73394, Note_off_c, 0, 50, 64
1, 73401, Note_on_c, 0, 47, 46
1, 73554, Note_off_c, 0, 47, 64
1, 73576, Note_on_c, 0, 67, 54
1, 73582, Note_on_c, 0, 43, 36
1, 73710, Note_off_c, 0, 67, 64
1, 73741, Note_on_c, 0, 71, 57
1, 73874, Note_off_c, 0, 71, 64
1, 73896, Note_on_c, 0, 74, 57
1, 74046, Note_off_c, 0, 74, 64
1, 74057, Note_on_c, 0, 79, 63
1, 74191, Note_off_c, 0, 43, 64
1, 74209, Note_on_c, 0, 69, 32
1, 74217, Note_off_c, 0, 79, 64
1, 74224, Note_on_c, 0, 50, 29
1, 74358, Note_off_c, 0, 69, 64
1, 74370, Note_on_c, 0, 78, 52
1, 74483, Note_off_c, 0, 50, 64
1, 74522, Note_off_c, 0, 78, 64
1, 74536, Note_on_c, 0, 43, 38
1, 74546, Note_on_c, 0, 79, 59
1, 74706, Note_off_c, 0, 43, 64
1, 74706, Note_on_c, 0, 47, 35
1, 74826, Note_off_c, 0, 79, 64
1, 74846, Note_off_c, 0, 47, 64
1, 74860, Note_on_c, 0, 67, 35
1, 74872, Note_on_c, 0, 50, 34
1, 74969, Note_off_c, 0, 50, 64
1, 74988, Note_off_c, 0, 67, 64
1, 75024, Note_on_c, 0, 55, 45
1, 75144, Note_off_c, 0, 55, 64
1, 75172, Note_on_c, 0, 67, 46
1, 75194, Note_on_c, 0, 50, 38
1, 75231, Note_off_c, 0, 67, 64
1, 75267, Note_off_c, 0, 50, 64
1, 75353, Note_on_c, 0, 47, 27
1, 75504, Note_on_c, 0, 76, 59
1, 75520, Note_off_c, 0, 47, 64
1, 75531, Note_on_c, 0, 48, 36
1, 75832, Note_off_c, 0, 48, 64
1, 75835, Note_on_c, 0, 74, 55
1, 75877, Note_on_c, 0, 52, 27
1, 75896, Note_off_c, 0, 76, 64
1, 75957, Note_off_c, 0, 52, 64
1, 75996, Note_on_c, 0, 72, 58
1, 76028, Note_off_c, 0, 74, 64
1, 76159, Note_off_c, 0, 72, 64
1, 76159, Note_on_c, 0, 71, 70
1, 76181, Note_on_c, 0, 55, 34
1, 76266, Note_off_c, 0, 55, 64
1, 76312, Note_on_c, 0, 69, 66
1, 76325, Note_off_c, 0, 71, 64
1, 76489, Note_off_c, 0, 69, 64
1, 76489, Note_on_c, 0, 74, 65
1, 76498, Note_on_c, 0, 47, 24
1, 76665, Control_c, 0, 64, 127
1, 76698, Note_off_c, 0, 74, 64
1, 76720, Note_on_c, 0, 72, 46
1, 76762, Note_off_c, 0, 72, 64
1, 76762, Control_c, 0, 64, 0
1, 76762, Note_on_c, 0, 74, 49
1, 76774, Note_off_c, 0, 47, 64
1, 76808, Note_off_c, 0, 74, 64
1, 76819, Note_on_c, 0, 50, 26
1, 76822, Note_on_c, 0, 72, 50
1, 76980, Note_on_c, 0, 71, 68
1, 77005, Note_off_c, 0, 50, 64
1, 77021, Note_off_c, 0, 72, 64
1, 77142, Note_off_c, 0, 71, 64
1, 77145, Note_on_c, 0, 69, 49
1, 77156, Note_on_c, 0, 55, 36
1, 77266, Note_off_c, 0, 55, 64
1, 77298, Note_on_c, 0, 67, 59
1, 77305, Note_off_c, 0, 69, 64
1, 77476, Note_on_c, 0, 69, 44
1, 77490, Note_on_c, 0, 48, 25
1, 77509, Note_off_c, 0, 67, 64
1, 77659, Note_off_c, 0, 69, 64
1, 77659, Note_on_c, 0, 71, 52
1, 77712, Note_off_c, 0, 71, 64
1, 77752, Note_on_c, 0, 72, 29
1, 77780, Note_off_c, 0, 48, 64
1, 77807, Note_off_c, 0, 72, 64
1, 77833, Note_on_c, 0, 62, 52
1, 77843, Note_on_c, 0, 50, 23
1, 77894, Note_off_c, 0, 62, 64
1, 77964, Note_off_c, 0, 50, 64
1, 78175, Note_on_c, 0, 66, 27
1, 78192, Note_on_c, 0, 50, 37
1, 78306, Note_off_c, 0, 50, 64
1, 78345, Note_off_c, 0, 66, 64
1, 78565, Note_on_c, 0, 67, 33
1, 78588, Note_on_c, 0, 55, 31
1, 78688, Note_off_c, 0, 55, 64
1, 78991, Note_on_c, 0, 50, 29
1, 79131, Note_off_c, 0, 50, 64
1, 79158, Control_c, 0, 64, 127
1, 79219, Control_c, 0, 64, 0
1, 79573, Note_on_c, 0, 43, 13
1, 79710, Control_c, 0, 64, 127
1, 79776, Note_off_c, 0, 43, 64
1, 80301, Note_off_c, 0, 67, 64
1, 80345, Control_c, 0, 64, 0
1, 82368, Control_c, 0, 64, 0
1, 83866, End_track
0, 0, End_of_file
