0, 0, Header, 1, 5, 480
1, 0, Start_track
1, 0, Title_t, "Jesu Joy"
1, 0, Copyright_t, "                  "
1, 0, Time_signature, 3, 2, 24, 8
1, 0, Key_signature, 0, "major"
1, 0, Tempo, 1111111
1, 98880, Tempo, 1194030
1, 99360, Tempo, 1379310
1, 99360, End_track
2, 0, Start_track
2, 0, Title_t, "PIANO 1 r"
2, 0, Program_c, 0, 0
2, 0, Control_c, 0, 10, 127
2, 0, Control_c, 0, 91, 91
2, 0, Control_c, 0, 11, 110
2, 170, Note_on_c, 0, 67, 71
2, 330, Note_on_c, 0, 69, 71
2, 400, Note_on_c, 0, 67, 0
2, 480, Control_c, 0, 64, 127
2, 490, Note_on_c, 0, 62, 74
2, 490, Note_on_c, 0, 71, 84
2, 561, Note_on_c, 0, 69, 0
2, 650, Note_on_c, 0, 74, 71
2, 722, Note_on_c, 0, 71, 0
2, 722, Note_on_c, 0, 62, 0
2, 810, Note_on_c, 0, 72, 71
2, 880, Note_on_c, 0, 74, 0
2, 947, Note_on_c, 0, 72, 0
2, 970, Note_on_c, 0, 67, 72
2, 970, Note_on_c, 0, 72, 82
2, 1130, Note_on_c, 0, 76, 71
2, 1202, Note_on_c, 0, 72, 0
2, 1202, Note_on_c, 0, 67, 0
2, 1290, Note_on_c, 0, 74, 71
2, 1360, Note_on_c, 0, 76, 0
2, 1432, Control_c, 0, 64, 0
2, 1446, Note_on_c, 0, 74, 0
2, 1450, Note_on_c, 0, 71, 74
2, 1450, Note_on_c, 0, 74, 84
2, 1492, Control_c, 0, 64, 127
2, 1610, Note_on_c, 0, 79, 71
2, 1682, Note_on_c, 0, 74, 0
2, 1682, Note_on_c, 0, 71, 0
2, 1770, Note_on_c, 0, 78, 71
2, 1840, Note_on_c, 0, 79, 0
2, 1930, Note_on_c, 0, 67, 72
2, 1930, Note_on_c, 0, 79, 82
2, 2001, Note_on_c, 0, 78, 0
2, 2090, Note_on_c, 0, 74, 71
2, 2162, Note_on_c, 0, 79, 0
2, 2162, Note_on_c, 0, 67, 0
2, 2250, Note_on_c, 0, 71, 71
2, 2320, Note_on_c, 0, 74, 0
2, 2355, Control_c, 0, 64, 0
2, 2410, Note_on_c, 0, 67, 80
2, 2460, Control_c, 0, 64, 127
2, 2481, Note_on_c, 0, 71, 0
2, 2570, Note_on_c, 0, 69, 71
2, 2642, Note_on_c, 0, 67, 0
2, 2730, Note_on_c, 0, 71, 71
2, 2800, Note_on_c, 0, 69, 0
2, 2842, Control_c, 0, 64, 0
2, 2890, Note_on_c, 0, 64, 72
2, 2890, Note_on_c, 0, 72, 82
2, 2910, Control_c, 0, 64, 127
2, 2961, Note_on_c, 0, 71, 0
2, 3050, Note_on_c, 0, 74, 71
2, 3130, Note_on_c, 0, 72, 0
2, 3130, Note_on_c, 0, 64, 0
2, 3210, Note_on_c, 0, 76, 71
2, 3287, Note_on_c, 0, 74, 0
2, 3370, Note_on_c, 0, 67, 76
2, 3370, Note_on_c, 0, 74, 86
2, 3448, Note_on_c, 0, 76, 0
2, 3530, Note_on_c, 0, 72, 71
2, 3610, Note_on_c, 0, 74, 0
2, 3610, Note_on_c, 0, 67, 0
2, 3690, Note_on_c, 0, 71, 71
2, 3767, Note_on_c, 0, 72, 0
2, 3817, Control_c, 0, 64, 0
2, 3850, Note_on_c, 0, 64, 72
2, 3850, Note_on_c, 0, 69, 82
2, 3928, Note_on_c, 0, 71, 0
2, 4010, Note_on_c, 0, 71, 71
2, 4090, Note_on_c, 0, 69, 0
2, 4090, Note_on_c, 0, 64, 0
2, 4170, Note_on_c, 0, 67, 71
2, 4247, Note_on_c, 0, 71, 0
2, 4330, Note_on_c, 0, 62, 69
2, 4330, Note_on_c, 0, 66, 80
2, 4342, Control_c, 0, 64, 127
2, 4408, Note_on_c, 0, 67, 0
2, 4490, Note_on_c, 0, 67, 71
2, 4562, Note_on_c, 0, 66, 0
2, 4562, Note_on_c, 0, 62, 0
2, 4650, Note_on_c, 0, 69, 71
2, 4720, Note_on_c, 0, 67, 0
2, 4810, Note_on_c, 0, 57, 69
2, 4810, Note_on_c, 0, 62, 80
2, 4881, Note_on_c, 0, 69, 0
2, 4970, Note_on_c, 0, 66, 71
2, 4995, Control_c, 0, 64, 0
2, 5042, Note_on_c, 0, 62, 0
2, 5042, Note_on_c, 0, 57, 0
2, 5130, Note_on_c, 0, 69, 71
2, 5200, Note_on_c, 0, 66, 0
2, 5257, Control_c, 0, 64, 127
2, 5290, Note_on_c, 0, 66, 72
2, 5290, Note_on_c, 0, 72, 82
2, 5361, Note_on_c, 0, 69, 0
2, 5450, Note_on_c, 0, 71, 71
2, 5522, Note_on_c, 0, 72, 0
2, 5522, Note_on_c, 0, 66, 0
2, 5610, Note_on_c, 0, 69, 71
2, 5680, Note_on_c, 0, 71, 0
2, 5730, Control_c, 0, 64, 0
2, 5770, Note_on_c, 0, 62, 49
2, 5770, Note_on_c, 0, 67, 57
2, 5770, Note_on_c, 0, 71, 67
2, 5805, Control_c, 0, 64, 127
2, 5837, Note_on_c, 0, 69, 0
2, 6090, Note_on_c, 0, 69, 68
2, 6175, Note_on_c, 0, 71, 0
2, 6175, Note_on_c, 0, 67, 0
2, 6250, Note_on_c, 0, 69, 0
2, 6250, Note_on_c, 0, 64, 57
2, 6250, Note_on_c, 0, 67, 65
2, 6250, Note_on_c, 0, 71, 75
2, 6265, Note_on_c, 0, 62, 0
2, 6570, Note_on_c, 0, 66, 66
2, 6655, Note_on_c, 0, 71, 0
2, 6655, Note_on_c, 0, 67, 0
2, 6690, Control_c, 0, 64, 0
2, 6715, Note_on_c, 0, 64, 0
2, 6730, Note_on_c, 0, 66, 0
2, 6730, Note_on_c, 0, 64, 55
2, 6730, Note_on_c, 0, 67, 63
2, 6730, Note_on_c, 0, 72, 73
2, 7050, Note_on_c, 0, 69, 66
2, 7135, Note_on_c, 0, 72, 0
2, 7135, Note_on_c, 0, 67, 0
2, 7210, Note_on_c, 0, 69, 0
2, 7210, Note_on_c, 0, 62, 55
2, 7210, Note_on_c, 0, 71, 63
2, 7210, Note_on_c, 0, 74, 73
2, 7217, Note_on_c, 0, 64, 0
2, 7222, Control_c, 0, 64, 127
2, 7530, Note_on_c, 0, 69, 66
2, 7615, Note_on_c, 0, 74, 0
2, 7615, Note_on_c, 0, 71, 0
2, 7690, Note_on_c, 0, 69, 0
2, 7690, Note_on_c, 0, 64, 57
2, 7690, Note_on_c, 0, 67, 65
2, 7690, Note_on_c, 0, 71, 75
2, 7697, Note_on_c, 0, 62, 0
2, 8010, Note_on_c, 0, 67, 0
2, 8010, Note_on_c, 0, 67, 66
2, 8095, Note_on_c, 0, 71, 0
2, 8115, Control_c, 0, 64, 0
2, 8155, Note_on_c, 0, 64, 0
2, 8170, Note_on_c, 0, 67, 0
2, 8170, Note_on_c, 0, 55, 55
2, 8170, Note_on_c, 0, 59, 63
2, 8170, Note_on_c, 0, 64, 73
2, 8205, Control_c, 0, 64, 127
2, 8490, Note_on_c, 0, 67, 66
2, 8490, Note_on_c, 0, 71, 66
2, 8575, Note_on_c, 0, 64, 0
2, 8575, Note_on_c, 0, 59, 0
2, 8610, Control_c, 0, 64, 0
2, 8650, Note_on_c, 0, 55, 0
2, 8650, Note_on_c, 0, 67, 0
2, 8650, Note_on_c, 0, 71, 0
2, 8650, Note_on_c, 0, 60, 55
2, 8650, Note_on_c, 0, 64, 63
2, 8650, Note_on_c, 0, 69, 73
2, 8677, Control_c, 0, 64, 127
2, 8970, Note_on_c, 0, 66, 68
2, 9055, Note_on_c, 0, 69, 0
2, 9055, Note_on_c, 0, 64, 0
2, 9130, Note_on_c, 0, 66, 0
2, 9130, Note_on_c, 0, 59, 57
2, 9130, Note_on_c, 0, 64, 65
2, 9130, Note_on_c, 0, 67, 75
2, 9145, Note_on_c, 0, 60, 0
2, 9450, Note_on_c, 0, 64, 0
2, 9450, Note_on_c, 0, 64, 66
2, 9535, Note_on_c, 0, 67, 0
2, 9577, Control_c, 0, 64, 0
2, 9610, Note_on_c, 0, 64, 0
2, 9610, Note_on_c, 0, 57, 57
2, 9610, Note_on_c, 0, 62, 67
2, 9617, Note_on_c, 0, 59, 0
2, 9630, Control_c, 0, 64, 127
2, 9930, Note_on_c, 0, 57, 0
2, 9930, Note_on_c, 0, 60, 58
2, 10057, Control_c, 0, 64, 0
2, 10090, Note_on_c, 0, 60, 0
2, 10090, Note_on_c, 0, 59, 62
2, 10140, Control_c, 0, 64, 127
2, 10410, Note_on_c, 0, 59, 0
2, 10410, Note_on_c, 0, 67, 61
2, 10570, Note_on_c, 0, 71, 67
2, 10577, Note_on_c, 0, 62, 0
2, 10667, Note_on_c, 0, 67, 0
2, 10890, Note_on_c, 0, 71, 0
2, 10890, Note_on_c, 0, 67, 57
2, 10890, Note_on_c, 0, 74, 67
2, 11010, Control_c, 0, 64, 0
2, 11050, Note_on_c, 0, 71, 65
2, 11050, Note_on_c, 0, 79, 75
2, 11092, Control_c, 0, 64, 127
2, 11177, Note_on_c, 0, 74, 0
2, 11185, Note_on_c, 0, 67, 0
2, 11370, Note_on_c, 0, 71, 0
2, 11370, Note_on_c, 0, 79, 0
2, 11370, Note_on_c, 0, 67, 65
2, 11370, Note_on_c, 0, 74, 75
2, 11490, Control_c, 0, 64, 0
2, 11530, Note_on_c, 0, 62, 85
2, 11530, Note_on_c, 0, 71, 85
2, 11557, Control_c, 0, 64, 127
2, 11635, Note_on_c, 0, 74, 0
2, 11635, Note_on_c, 0, 67, 0
2, 12480, Control_c, 0, 64, 0
2, 12490, Note_on_c, 0, 62, 0
2, 12490, Note_on_c, 0, 71, 0
2, 15840, Control_c, 0, 10, 127
2, 15840, Program_c, 0, 0
2, 15840, Control_c, 0, 10, 127
2, 15840, Program_c, 0, 0
2, 16010, Note_on_c, 0, 62, 63
2, 16170, Note_on_c, 0, 64, 68
2, 16228, Note_on_c, 0, 62, 0
2, 16330, Note_on_c, 0, 62, 74
2, 16330, Note_on_c, 0, 66, 74
2, 16390, Note_on_c, 0, 64, 0
2, 16490, Note_on_c, 0, 69, 69
2, 16547, Note_on_c, 0, 66, 0
2, 16547, Note_on_c, 0, 62, 0
2, 16650, Note_on_c, 0, 67, 75
2, 16708, Note_on_c, 0, 69, 0
2, 16810, Note_on_c, 0, 62, 78
2, 16810, Note_on_c, 0, 69, 78
2, 16870, Note_on_c, 0, 67, 0
2, 16970, Note_on_c, 0, 72, 76
2, 17027, Note_on_c, 0, 69, 0
2, 17027, Note_on_c, 0, 62, 0
2, 17130, Note_on_c, 0, 71, 81
2, 17188, Note_on_c, 0, 72, 0
2, 17290, Note_on_c, 0, 62, 92
2, 17290, Note_on_c, 0, 72, 92
2, 17350, Note_on_c, 0, 71, 0
2, 17450, Note_on_c, 0, 69, 85
2, 17507, Note_on_c, 0, 72, 0
2, 17507, Note_on_c, 0, 62, 0
2, 17610, Note_on_c, 0, 66, 83
2, 17668, Note_on_c, 0, 69, 0
2, 17770, Note_on_c, 0, 62, 85
2, 17830, Note_on_c, 0, 66, 0
2, 17930, Note_on_c, 0, 66, 77
2, 17987, Note_on_c, 0, 62, 0
2, 18090, Note_on_c, 0, 69, 75
2, 18148, Note_on_c, 0, 66, 0
2, 18250, Note_on_c, 0, 66, 81
2, 18250, Note_on_c, 0, 72, 81
2, 18310, Note_on_c, 0, 69, 0
2, 18410, Note_on_c, 0, 71, 69
2, 18467, Note_on_c, 0, 72, 0
2, 18467, Note_on_c, 0, 66, 0
2, 18570, Note_on_c, 0, 69, 67
2, 18628, Note_on_c, 0, 71, 0
2, 18730, Note_on_c, 0, 59, 87
2, 18730, Note_on_c, 0, 67, 71
2, 18730, Note_on_c, 0, 71, 71
2, 18790, Note_on_c, 0, 69, 0
2, 19050, Note_on_c, 0, 71, 0
2, 19050, Note_on_c, 0, 67, 0
2, 19050, Note_on_c, 0, 62, 64
2, 19210, Note_on_c, 0, 67, 69
2, 19277, Note_on_c, 0, 62, 0
2, 19530, Note_on_c, 0, 66, 62
2, 19600, Note_on_c, 0, 67, 0
2, 19690, Note_on_c, 0, 67, 77
2, 19701, Note_on_c, 0, 60, 90
2, 19757, Note_on_c, 0, 66, 0
2, 19817, Note_on_c, 0, 59, 0
2, 20010, Note_on_c, 0, 69, 68
2, 20080, Note_on_c, 0, 67, 0
2, 20170, Note_on_c, 0, 71, 59
2, 20181, Note_on_c, 0, 62, 96
2, 20237, Note_on_c, 0, 69, 0
2, 20440, Note_on_c, 0, 60, 0
2, 20490, Note_on_c, 0, 69, 66
2, 20560, Note_on_c, 0, 71, 0
2, 20650, Note_on_c, 0, 67, 67
2, 20717, Note_on_c, 0, 69, 0
2, 20970, Note_on_c, 0, 66, 65
2, 21040, Note_on_c, 0, 67, 0
2, 21130, Note_on_c, 0, 64, 63
2, 21152, Note_on_c, 0, 59, 92
2, 21197, Note_on_c, 0, 66, 0
2, 21388, Note_on_c, 0, 62, 0
2, 21450, Note_on_c, 0, 67, 78
2, 21520, Note_on_c, 0, 64, 0
2, 21610, Note_on_c, 0, 64, 88
2, 21610, Note_on_c, 0, 69, 72
2, 21677, Note_on_c, 0, 67, 0
2, 21930, Note_on_c, 0, 67, 71
2, 21932, Note_on_c, 0, 59, 0
2, 22000, Note_on_c, 0, 69, 0
2, 22090, Note_on_c, 0, 59, 93
2, 22090, Note_on_c, 0, 66, 62
2, 22157, Note_on_c, 0, 67, 0
2, 22217, Note_on_c, 0, 64, 0
2, 22410, Note_on_c, 0, 67, 67
2, 22480, Note_on_c, 0, 66, 0
2, 22570, Note_on_c, 0, 69, 68
2, 22588, Note_on_c, 0, 57, 93
2, 22637, Note_on_c, 0, 67, 0
2, 22798, Note_on_c, 0, 59, 0
2, 22890, Note_on_c, 0, 60, 74
2, 22960, Note_on_c, 0, 69, 0
2, 23050, Note_on_c, 0, 55, 86
2, 23050, Note_on_c, 0, 59, 57
2, 23117, Note_on_c, 0, 60, 0
2, 23117, Note_on_c, 0, 57, 0
2, 23210, Note_on_c, 0, 59, 0
2, 23210, Note_on_c, 0, 71, 74
2, 23370, Note_on_c, 0, 69, 74
2, 23417, Note_on_c, 0, 71, 0
2, 23530, Note_on_c, 0, 62, 54
2, 23530, Note_on_c, 0, 71, 82
2, 23548, Note_on_c, 0, 55, 0
2, 23578, Note_on_c, 0, 69, 0
2, 23690, Note_on_c, 0, 74, 66
2, 23740, Note_on_c, 0, 62, 0
2, 23740, Note_on_c, 0, 71, 0
2, 23850, Note_on_c, 0, 72, 74
2, 23897, Note_on_c, 0, 74, 0
2, 24001, Note_on_c, 0, 72, 0
2, 24010, Note_on_c, 0, 67, 52
2, 24010, Note_on_c, 0, 72, 80
2, 24170, Note_on_c, 0, 76, 64
2, 24220, Note_on_c, 0, 72, 0
2, 24220, Note_on_c, 0, 67, 0
2, 24330, Note_on_c, 0, 74, 69
2, 24377, Note_on_c, 0, 76, 0
2, 24478, Note_on_c, 0, 74, 0
2, 24490, Note_on_c, 0, 71, 56
2, 24490, Note_on_c, 0, 74, 84
2, 24650, Note_on_c, 0, 79, 74
2, 24700, Note_on_c, 0, 74, 0
2, 24700, Note_on_c, 0, 71, 0
2, 24810, Note_on_c, 0, 78, 74
2, 24857, Note_on_c, 0, 79, 0
2, 24970, Note_on_c, 0, 67, 25
2, 24970, Note_on_c, 0, 79, 80
2, 25018, Note_on_c, 0, 78, 0
2, 25130, Note_on_c, 0, 74, 69
2, 25180, Note_on_c, 0, 79, 0
2, 25180, Note_on_c, 0, 67, 0
2, 25290, Note_on_c, 0, 71, 73
2, 25337, Note_on_c, 0, 74, 0
2, 25450, Note_on_c, 0, 67, 76
2, 25497, Note_on_c, 0, 71, 0
2, 25610, Note_on_c, 0, 69, 66
2, 25657, Note_on_c, 0, 67, 0
2, 25770, Note_on_c, 0, 71, 67
2, 25817, Note_on_c, 0, 69, 0
2, 25930, Note_on_c, 0, 64, 12
2, 25930, Note_on_c, 0, 72, 74
2, 25978, Note_on_c, 0, 71, 0
2, 26090, Note_on_c, 0, 74, 65
2, 26140, Note_on_c, 0, 72, 0
2, 26140, Note_on_c, 0, 64, 0
2, 26250, Note_on_c, 0, 76, 75
2, 26297, Note_on_c, 0, 74, 0
2, 26410, Note_on_c, 0, 67, 49
2, 26410, Note_on_c, 0, 74, 77
2, 26458, Note_on_c, 0, 76, 0
2, 26570, Note_on_c, 0, 72, 68
2, 26620, Note_on_c, 0, 74, 0
2, 26620, Note_on_c, 0, 67, 0
2, 26730, Note_on_c, 0, 71, 73
2, 26777, Note_on_c, 0, 72, 0
2, 26890, Note_on_c, 0, 64, 49
2, 26890, Note_on_c, 0, 69, 77
2, 26938, Note_on_c, 0, 71, 0
2, 27050, Note_on_c, 0, 71, 64
2, 27100, Note_on_c, 0, 69, 0
2, 27100, Note_on_c, 0, 64, 0
2, 27210, Note_on_c, 0, 67, 69
2, 27257, Note_on_c, 0, 71, 0
2, 27370, Note_on_c, 0, 62, 49
2, 27370, Note_on_c, 0, 66, 77
2, 27418, Note_on_c, 0, 67, 0
2, 27530, Note_on_c, 0, 67, 71
2, 27580, Note_on_c, 0, 66, 0
2, 27580, Note_on_c, 0, 62, 0
2, 27690, Note_on_c, 0, 69, 64
2, 27737, Note_on_c, 0, 67, 0
2, 27850, Note_on_c, 0, 57, 43
2, 27850, Note_on_c, 0, 62, 71
2, 27898, Note_on_c, 0, 69, 0
2, 28010, Note_on_c, 0, 66, 68
2, 28060, Note_on_c, 0, 62, 0
2, 28060, Note_on_c, 0, 57, 0
2, 28170, Note_on_c, 0, 69, 68
2, 28217, Note_on_c, 0, 66, 0
2, 28330, Note_on_c, 0, 66, 52
2, 28330, Note_on_c, 0, 72, 80
2, 28378, Note_on_c, 0, 69, 0
2, 28490, Note_on_c, 0, 71, 75
2, 28540, Note_on_c, 0, 72, 0
2, 28540, Note_on_c, 0, 66, 0
2, 28650, Note_on_c, 0, 69, 73
2, 28697, Note_on_c, 0, 71, 0
2, 28810, Note_on_c, 0, 62, 75
2, 28810, Note_on_c, 0, 67, 83
2, 28810, Note_on_c, 0, 71, 83
2, 28858, Note_on_c, 0, 69, 0
2, 29130, Note_on_c, 0, 69, 71
2, 29237, Note_on_c, 0, 71, 0
2, 29237, Note_on_c, 0, 67, 0
2, 29290, Note_on_c, 0, 69, 0
2, 29290, Note_on_c, 0, 64, 69
2, 29290, Note_on_c, 0, 67, 77
2, 29290, Note_on_c, 0, 71, 77
2, 29365, Note_on_c, 0, 62, 0
2, 29610, Note_on_c, 0, 66, 71
2, 29717, Note_on_c, 0, 71, 0
2, 29717, Note_on_c, 0, 67, 0
2, 29755, Note_on_c, 0, 64, 0
2, 29770, Note_on_c, 0, 66, 0
2, 29770, Note_on_c, 0, 64, 69
2, 29770, Note_on_c, 0, 67, 77
2, 29770, Note_on_c, 0, 72, 77
2, 30090, Note_on_c, 0, 69, 68
2, 30197, Note_on_c, 0, 72, 0
2, 30197, Note_on_c, 0, 67, 0
2, 30250, Note_on_c, 0, 69, 0
2, 30250, Note_on_c, 0, 62, 73
2, 30250, Note_on_c, 0, 71, 81
2, 30250, Note_on_c, 0, 74, 81
2, 30317, Note_on_c, 0, 64, 0
2, 30570, Note_on_c, 0, 69, 71
2, 30677, Note_on_c, 0, 74, 0
2, 30677, Note_on_c, 0, 71, 0
2, 30730, Note_on_c, 0, 69, 0
2, 30730, Note_on_c, 0, 64, 73
2, 30730, Note_on_c, 0, 67, 81
2, 30730, Note_on_c, 0, 71, 81
2, 30775, Note_on_c, 0, 62, 0
2, 31050, Note_on_c, 0, 67, 0
2, 31050, Note_on_c, 0, 67, 73
2, 31157, Note_on_c, 0, 71, 0
2, 31187, Note_on_c, 0, 64, 0
2, 31210, Note_on_c, 0, 67, 0
2, 31210, Note_on_c, 0, 55, 68
2, 31210, Note_on_c, 0, 59, 76
2, 31210, Note_on_c, 0, 64, 76
2, 31530, Note_on_c, 0, 67, 75
2, 31530, Note_on_c, 0, 71, 75
2, 31637, Note_on_c, 0, 64, 0
2, 31637, Note_on_c, 0, 59, 0
2, 31690, Note_on_c, 0, 71, 0
2, 31690, Note_on_c, 0, 67, 0
2, 31690, Note_on_c, 0, 60, 75
2, 31690, Note_on_c, 0, 64, 83
2, 31690, Note_on_c, 0, 69, 83
2, 31765, Note_on_c, 0, 55, 0
2, 32010, Note_on_c, 0, 66, 73
2, 32117, Note_on_c, 0, 69, 0
2, 32117, Note_on_c, 0, 64, 0
2, 32170, Note_on_c, 0, 66, 0
2, 32170, Note_on_c, 0, 59, 75
2, 32170, Note_on_c, 0, 64, 83
2, 32170, Note_on_c, 0, 67, 83
2, 32230, Note_on_c, 0, 60, 0
2, 32490, Note_on_c, 0, 64, 0
2, 32490, Note_on_c, 0, 64, 73
2, 32597, Note_on_c, 0, 67, 0
2, 32650, Note_on_c, 0, 64, 0
2, 32650, Note_on_c, 0, 57, 75
2, 32650, Note_on_c, 0, 62, 83
2, 32747, Note_on_c, 0, 59, 0
2, 32970, Note_on_c, 0, 60, 71
2, 33077, Note_on_c, 0, 62, 0
2, 33130, Note_on_c, 0, 60, 0
2, 33130, Note_on_c, 0, 59, 73
2, 33130, Note_on_c, 0, 62, 73
2, 33227, Note_on_c, 0, 57, 0
2, 33450, Note_on_c, 0, 62, 0
2, 33450, Note_on_c, 0, 59, 0
2, 37610, Note_on_c, 0, 62, 64
2, 37770, Note_on_c, 0, 64, 68
2, 37817, Note_on_c, 0, 62, 0
2, 37930, Note_on_c, 0, 62, 71
2, 37930, Note_on_c, 0, 66, 82
2, 37978, Note_on_c, 0, 64, 0
2, 38090, Note_on_c, 0, 69, 77
2, 38140, Note_on_c, 0, 66, 0
2, 38140, Note_on_c, 0, 62, 0
2, 38250, Note_on_c, 0, 67, 82
2, 38297, Note_on_c, 0, 69, 0
2, 38410, Note_on_c, 0, 62, 80
2, 38410, Note_on_c, 0, 69, 91
2, 38458, Note_on_c, 0, 67, 0
2, 38570, Note_on_c, 0, 72, 91
2, 38620, Note_on_c, 0, 69, 0
2, 38620, Note_on_c, 0, 62, 0
2, 38730, Note_on_c, 0, 71, 95
2, 38777, Note_on_c, 0, 72, 0
2, 38890, Note_on_c, 0, 62, 92
2, 38890, Note_on_c, 0, 72, 103
2, 38938, Note_on_c, 0, 71, 0
2, 39050, Note_on_c, 0, 69, 94
2, 39100, Note_on_c, 0, 72, 0
2, 39100, Note_on_c, 0, 62, 0
2, 39210, Note_on_c, 0, 66, 91
2, 39257, Note_on_c, 0, 69, 0
2, 39370, Note_on_c, 0, 62, 84
2, 39418, Note_on_c, 0, 66, 0
2, 39530, Note_on_c, 0, 66, 85
2, 39580, Note_on_c, 0, 62, 0
2, 39690, Note_on_c, 0, 69, 82
2, 39737, Note_on_c, 0, 66, 0
2, 39850, Note_on_c, 0, 66, 84
2, 39850, Note_on_c, 0, 72, 84
2, 39898, Note_on_c, 0, 69, 0
2, 40010, Note_on_c, 0, 71, 75
2, 40060, Note_on_c, 0, 72, 0
2, 40060, Note_on_c, 0, 66, 0
2, 40170, Note_on_c, 0, 69, 73
2, 40217, Note_on_c, 0, 71, 0
2, 40330, Note_on_c, 0, 59, 63
2, 40330, Note_on_c, 0, 67, 63
2, 40330, Note_on_c, 0, 71, 93
2, 40378, Note_on_c, 0, 69, 0
2, 40650, Note_on_c, 0, 67, 0
2, 40650, Note_on_c, 0, 62, 64
2, 40810, Note_on_c, 0, 62, 0
2, 40810, Note_on_c, 0, 67, 71
2, 41130, Note_on_c, 0, 66, 75
2, 41218, Note_on_c, 0, 67, 0
2, 41290, Note_on_c, 0, 60, 93
2, 41290, Note_on_c, 0, 67, 93
2, 41290, Note_on_c, 0, 72, 93
2, 41308, Note_on_c, 0, 71, 0
2, 41327, Note_on_c, 0, 59, 0
2, 41380, Note_on_c, 0, 66, 0
2, 41610, Note_on_c, 0, 69, 68
2, 41698, Note_on_c, 0, 67, 0
2, 41770, Note_on_c, 0, 62, 91
2, 41770, Note_on_c, 0, 71, 91
2, 41770, Note_on_c, 0, 74, 91
2, 41800, Note_on_c, 0, 72, 0
2, 41830, Note_on_c, 0, 60, 0
2, 41860, Note_on_c, 0, 69, 0
2, 42090, Note_on_c, 0, 69, 76
2, 42178, Note_on_c, 0, 71, 0
2, 42250, Note_on_c, 0, 67, 73
2, 42340, Note_on_c, 0, 69, 0
2, 42570, Note_on_c, 0, 66, 66
2, 42658, Note_on_c, 0, 67, 0
2, 42730, Note_on_c, 0, 59, 84
2, 42730, Note_on_c, 0, 64, 84
2, 42730, Note_on_c, 0, 71, 84
2, 42790, Note_on_c, 0, 62, 0
2, 42808, Note_on_c, 0, 74, 0
2, 42820, Note_on_c, 0, 66, 0
2, 43050, Note_on_c, 0, 67, 72
2, 43138, Note_on_c, 0, 64, 0
2, 43210, Note_on_c, 0, 64, 49
2, 43210, Note_on_c, 0, 69, 83
2, 43277, Note_on_c, 0, 59, 0
2, 43277, Note_on_c, 0, 71, 0
2, 43300, Note_on_c, 0, 67, 0
2, 43450, Note_on_c, 0, 67, 58
2, 43450, Note_on_c, 0, 71, 88
2, 43540, Note_on_c, 0, 64, 0
2, 43547, Note_on_c, 0, 69, 0
2, 43570, Note_on_c, 0, 72, 88
2, 43630, Note_on_c, 0, 71, 0
2, 43660, Note_on_c, 0, 67, 0
2, 43690, Note_on_c, 0, 66, 53
2, 43690, Note_on_c, 0, 71, 93
2, 43780, Note_on_c, 0, 72, 0
2, 44010, Note_on_c, 0, 67, 72
2, 44098, Note_on_c, 0, 66, 0
2, 44170, Note_on_c, 0, 57, 37
2, 44170, Note_on_c, 0, 69, 90
2, 44260, Note_on_c, 0, 67, 0
2, 44297, Note_on_c, 0, 71, 0
2, 44490, Note_on_c, 0, 60, 78
2, 44650, Note_on_c, 0, 60, 0
2, 44650, Note_on_c, 0, 55, 64
2, 44650, Note_on_c, 0, 59, 45
2, 44650, Note_on_c, 0, 67, 90
2, 44687, Note_on_c, 0, 57, 0
2, 44710, Note_on_c, 0, 69, 0
2, 44810, Note_on_c, 0, 71, 83
2, 44878, Note_on_c, 0, 59, 0
2, 44890, Note_on_c, 0, 67, 0
2, 44890, Note_on_c, 0, 55, 0
2, 44970, Note_on_c, 0, 69, 83
2, 45047, Note_on_c, 0, 71, 0
2, 45130, Note_on_c, 0, 62, 74
2, 45130, Note_on_c, 0, 71, 86
2, 45208, Note_on_c, 0, 69, 0
2, 45290, Note_on_c, 0, 74, 85
2, 45358, Note_on_c, 0, 62, 0
2, 45370, Note_on_c, 0, 71, 0
2, 45450, Note_on_c, 0, 72, 84
2, 45520, Note_on_c, 0, 74, 0
2, 45598, Note_on_c, 0, 72, 0
2, 45610, Note_on_c, 0, 67, 83
2, 45610, Note_on_c, 0, 72, 95
2, 45770, Note_on_c, 0, 76, 82
2, 45838, Note_on_c, 0, 72, 0
2, 45838, Note_on_c, 0, 67, 0
2, 45930, Note_on_c, 0, 74, 77
2, 46000, Note_on_c, 0, 76, 0
2, 46078, Note_on_c, 0, 74, 0
2, 46090, Note_on_c, 0, 71, 81
2, 46090, Note_on_c, 0, 74, 93
2, 46250, Note_on_c, 0, 79, 86
2, 46318, Note_on_c, 0, 74, 0
2, 46318, Note_on_c, 0, 71, 0
2, 46410, Note_on_c, 0, 78, 81
2, 46480, Note_on_c, 0, 79, 0
2, 46570, Note_on_c, 0, 67, 69
2, 46570, Note_on_c, 0, 79, 95
2, 46637, Note_on_c, 0, 78, 0
2, 46730, Note_on_c, 0, 74, 80
2, 46798, Note_on_c, 0, 79, 0
2, 46798, Note_on_c, 0, 67, 0
2, 46890, Note_on_c, 0, 71, 71
2, 46960, Note_on_c, 0, 74, 0
2, 47050, Note_on_c, 0, 67, 83
2, 47117, Note_on_c, 0, 71, 0
2, 47210, Note_on_c, 0, 69, 82
2, 47278, Note_on_c, 0, 67, 0
2, 47370, Note_on_c, 0, 71, 81
2, 47440, Note_on_c, 0, 69, 0
2, 47530, Note_on_c, 0, 64, 78
2, 47530, Note_on_c, 0, 72, 91
2, 47597, Note_on_c, 0, 71, 0
2, 47690, Note_on_c, 0, 74, 85
2, 47758, Note_on_c, 0, 72, 0
2, 47758, Note_on_c, 0, 64, 0
2, 47850, Note_on_c, 0, 76, 83
2, 47920, Note_on_c, 0, 74, 0
2, 48010, Note_on_c, 0, 67, 81
2, 48010, Note_on_c, 0, 74, 93
2, 48077, Note_on_c, 0, 76, 0
2, 48170, Note_on_c, 0, 72, 76
2, 48238, Note_on_c, 0, 74, 0
2, 48238, Note_on_c, 0, 67, 0
2, 48330, Note_on_c, 0, 71, 82
2, 48400, Note_on_c, 0, 72, 0
2, 48490, Note_on_c, 0, 64, 61
2, 48490, Note_on_c, 0, 69, 85
2, 48557, Note_on_c, 0, 71, 0
2, 48650, Note_on_c, 0, 71, 78
2, 48718, Note_on_c, 0, 69, 0
2, 48718, Note_on_c, 0, 64, 0
2, 48810, Note_on_c, 0, 67, 80
2, 48880, Note_on_c, 0, 71, 0
2, 48970, Note_on_c, 0, 62, 71
2, 48970, Note_on_c, 0, 66, 84
2, 49037, Note_on_c, 0, 67, 0
2, 49130, Note_on_c, 0, 67, 86
2, 49198, Note_on_c, 0, 66, 0
2, 49198, Note_on_c, 0, 62, 0
2, 49290, Note_on_c, 0, 69, 76
2, 49360, Note_on_c, 0, 67, 0
2, 49450, Note_on_c, 0, 57, 63
2, 49450, Note_on_c, 0, 62, 78
2, 49517, Note_on_c, 0, 69, 0
2, 49610, Note_on_c, 0, 66, 77
2, 49678, Note_on_c, 0, 62, 0
2, 49678, Note_on_c, 0, 57, 0
2, 49770, Note_on_c, 0, 69, 74
2, 49840, Note_on_c, 0, 66, 0
2, 49930, Note_on_c, 0, 66, 86
2, 49930, Note_on_c, 0, 72, 86
2, 49997, Note_on_c, 0, 69, 0
2, 50090, Note_on_c, 0, 71, 82
2, 50158, Note_on_c, 0, 72, 0
2, 50158, Note_on_c, 0, 66, 0
2, 50250, Note_on_c, 0, 69, 77
2, 50320, Note_on_c, 0, 71, 0
2, 50410, Note_on_c, 0, 62, 66
2, 50410, Note_on_c, 0, 67, 66
2, 50410, Note_on_c, 0, 71, 66
2, 50477, Note_on_c, 0, 69, 0
2, 50730, Note_on_c, 0, 69, 57
2, 50837, Note_on_c, 0, 62, 0
2, 50837, Note_on_c, 0, 71, 0
2, 50837, Note_on_c, 0, 67, 0
2, 50890, Note_on_c, 0, 64, 68
2, 50890, Note_on_c, 0, 67, 68
2, 50890, Note_on_c, 0, 71, 68
2, 50998, Note_on_c, 0, 69, 0
2, 51210, Note_on_c, 0, 66, 59
2, 51317, Note_on_c, 0, 64, 0
2, 51317, Note_on_c, 0, 71, 0
2, 51317, Note_on_c, 0, 67, 0
2, 51370, Note_on_c, 0, 64, 73
2, 51370, Note_on_c, 0, 67, 73
2, 51370, Note_on_c, 0, 72, 73
2, 51478, Note_on_c, 0, 66, 0
2, 51690, Note_on_c, 0, 69, 62
2, 51797, Note_on_c, 0, 64, 0
2, 51797, Note_on_c, 0, 72, 0
2, 51797, Note_on_c, 0, 67, 0
2, 51850, Note_on_c, 0, 62, 82
2, 51850, Note_on_c, 0, 71, 82
2, 51850, Note_on_c, 0, 74, 82
2, 51958, Note_on_c, 0, 69, 0
2, 52170, Note_on_c, 0, 69, 68
2, 52277, Note_on_c, 0, 62, 0
2, 52277, Note_on_c, 0, 74, 0
2, 52277, Note_on_c, 0, 71, 0
2, 52330, Note_on_c, 0, 64, 80
2, 52330, Note_on_c, 0, 67, 80
2, 52330, Note_on_c, 0, 71, 80
2, 52438, Note_on_c, 0, 69, 0
2, 52650, Note_on_c, 0, 67, 0
2, 52650, Note_on_c, 0, 67, 75
2, 52757, Note_on_c, 0, 64, 0
2, 52757, Note_on_c, 0, 71, 0
2, 52810, Note_on_c, 0, 55, 86
2, 52810, Note_on_c, 0, 59, 86
2, 52810, Note_on_c, 0, 64, 86
2, 52918, Note_on_c, 0, 67, 0
2, 53130, Note_on_c, 0, 67, 75
2, 53130, Note_on_c, 0, 71, 75
2, 53237, Note_on_c, 0, 55, 0
2, 53237, Note_on_c, 0, 64, 0
2, 53237, Note_on_c, 0, 59, 0
2, 53290, Note_on_c, 0, 60, 88
2, 53290, Note_on_c, 0, 64, 88
2, 53290, Note_on_c, 0, 69, 88
2, 53398, Note_on_c, 0, 67, 0
2, 53398, Note_on_c, 0, 71, 0
2, 53610, Note_on_c, 0, 66, 75
2, 53770, Note_on_c, 0, 59, 82
2, 53770, Note_on_c, 0, 64, 82
2, 53770, Note_on_c, 0, 67, 82
2, 53807, Note_on_c, 0, 64, 0
2, 53807, Note_on_c, 0, 69, 0
2, 53807, Note_on_c, 0, 60, 0
2, 53860, Note_on_c, 0, 66, 0
2, 54077, Note_on_c, 0, 64, 0
2, 54090, Note_on_c, 0, 64, 73
2, 54178, Note_on_c, 0, 67, 0
2, 54178, Note_on_c, 0, 59, 0
2, 54250, Note_on_c, 0, 57, 82
2, 54250, Note_on_c, 0, 62, 82
2, 54340, Note_on_c, 0, 64, 0
2, 54570, Note_on_c, 0, 60, 73
2, 54658, Note_on_c, 0, 62, 0
2, 54658, Note_on_c, 0, 57, 0
2, 54730, Note_on_c, 0, 59, 80
2, 54730, Note_on_c, 0, 62, 80
2, 54820, Note_on_c, 0, 60, 0
2, 55050, Note_on_c, 0, 62, 0
2, 55050, Note_on_c, 0, 59, 0
2, 55050, Note_on_c, 0, 67, 66
2, 55210, Note_on_c, 0, 71, 84
2, 55300, Note_on_c, 0, 67, 0
2, 55530, Note_on_c, 0, 71, 0
2, 55530, Note_on_c, 0, 67, 66
2, 55530, Note_on_c, 0, 74, 66
2, 55690, Note_on_c, 0, 71, 80
2, 55690, Note_on_c, 0, 79, 80
2, 55780, Note_on_c, 0, 74, 0
2, 55780, Note_on_c, 0, 67, 0
2, 56010, Note_on_c, 0, 71, 0
2, 56010, Note_on_c, 0, 79, 0
2, 56010, Note_on_c, 0, 64, 75
2, 56010, Note_on_c, 0, 67, 75
2, 56170, Note_on_c, 0, 67, 0
2, 56170, Note_on_c, 0, 64, 0
2, 56170, Note_on_c, 0, 66, 88
2, 56170, Note_on_c, 0, 69, 88
2, 56490, Note_on_c, 0, 64, 78
2, 56490, Note_on_c, 0, 67, 78
2, 56590, Note_on_c, 0, 69, 0
2, 56590, Note_on_c, 0, 66, 0
2, 56650, Note_on_c, 0, 66, 88
2, 56650, Note_on_c, 0, 69, 88
2, 56747, Note_on_c, 0, 64, 0
2, 56747, Note_on_c, 0, 67, 0
2, 56970, Note_on_c, 0, 74, 78
2, 57070, Note_on_c, 0, 66, 0
2, 57070, Note_on_c, 0, 69, 0
2, 57130, Note_on_c, 0, 62, 91
2, 57227, Note_on_c, 0, 74, 0
2, 57450, Note_on_c, 0, 60, 78
2, 57550, Note_on_c, 0, 62, 0
2, 57601, Note_on_c, 0, 60, 0
2, 57610, Note_on_c, 0, 60, 88
2, 57930, Note_on_c, 0, 62, 78
2, 58030, Note_on_c, 0, 60, 0
2, 58090, Note_on_c, 0, 64, 86
2, 58187, Note_on_c, 0, 62, 0
2, 58410, Note_on_c, 0, 60, 76
2, 58510, Note_on_c, 0, 64, 0
2, 58570, Note_on_c, 0, 57, 86
2, 58570, Note_on_c, 0, 69, 86
2, 58667, Note_on_c, 0, 60, 0
2, 58890, Note_on_c, 0, 60, 76
2, 58990, Note_on_c, 0, 57, 0
2, 59050, Note_on_c, 0, 62, 84
2, 59147, Note_on_c, 0, 60, 0
2, 59370, Note_on_c, 0, 64, 76
2, 59470, Note_on_c, 0, 62, 0
2, 59507, Note_on_c, 0, 69, 0
2, 59530, Note_on_c, 0, 65, 86
2, 59530, Note_on_c, 0, 69, 86
2, 59627, Note_on_c, 0, 64, 0
2, 59850, Note_on_c, 0, 62, 76
2, 59950, Note_on_c, 0, 69, 0
2, 59950, Note_on_c, 0, 65, 0
2, 60010, Note_on_c, 0, 59, 86
2, 60010, Note_on_c, 0, 68, 86
2, 60107, Note_on_c, 0, 62, 0
2, 60330, Note_on_c, 0, 62, 76
2, 60430, Note_on_c, 0, 68, 0
2, 60430, Note_on_c, 0, 59, 0
2, 60490, Note_on_c, 0, 60, 77
2, 60490, Note_on_c, 0, 69, 77
2, 60587, Note_on_c, 0, 62, 0
2, 60650, Note_on_c, 0, 69, 0
2, 60650, Note_on_c, 0, 60, 0
2, 60650, Note_on_c, 0, 72, 85
2, 60810, Note_on_c, 0, 71, 85
2, 60898, Note_on_c, 0, 72, 0
2, 60970, Note_on_c, 0, 69, 82
2, 60970, Note_on_c, 0, 72, 93
2, 61060, Note_on_c, 0, 71, 0
2, 61130, Note_on_c, 0, 76, 86
2, 61217, Note_on_c, 0, 72, 0
2, 61217, Note_on_c, 0, 69, 0
2, 61290, Note_on_c, 0, 74, 87
2, 61378, Note_on_c, 0, 76, 0
2, 61438, Note_on_c, 0, 74, 0
2, 61450, Note_on_c, 0, 65, 84
2, 61450, Note_on_c, 0, 74, 95
2, 61610, Note_on_c, 0, 77, 87
2, 61697, Note_on_c, 0, 74, 0
2, 61697, Note_on_c, 0, 65, 0
2, 61770, Note_on_c, 0, 76, 88
2, 61858, Note_on_c, 0, 77, 0
2, 61917, Note_on_c, 0, 76, 0
2, 61930, Note_on_c, 0, 69, 84
2, 61930, Note_on_c, 0, 76, 95
2, 62090, Note_on_c, 0, 81, 90
2, 62177, Note_on_c, 0, 76, 0
2, 62177, Note_on_c, 0, 69, 0
2, 62250, Note_on_c, 0, 80, 90
2, 62338, Note_on_c, 0, 81, 0
2, 62410, Note_on_c, 0, 69, 88
2, 62410, Note_on_c, 0, 81, 100
2, 62500, Note_on_c, 0, 80, 0
2, 62570, Note_on_c, 0, 76, 91
2, 62657, Note_on_c, 0, 81, 0
2, 62657, Note_on_c, 0, 69, 0
2, 62730, Note_on_c, 0, 72, 91
2, 62818, Note_on_c, 0, 76, 0
2, 62890, Note_on_c, 0, 69, 102
2, 62980, Note_on_c, 0, 72, 0
2, 63050, Note_on_c, 0, 71, 92
2, 63137, Note_on_c, 0, 69, 0
2, 63210, Note_on_c, 0, 72, 92
2, 63298, Note_on_c, 0, 71, 0
2, 63370, Note_on_c, 0, 69, 91
2, 63370, Note_on_c, 0, 77, 102
2, 63460, Note_on_c, 0, 72, 0
2, 63530, Note_on_c, 0, 76, 93
2, 63617, Note_on_c, 0, 77, 0
2, 63617, Note_on_c, 0, 69, 0
2, 63690, Note_on_c, 0, 74, 94
2, 63778, Note_on_c, 0, 76, 0
2, 63850, Note_on_c, 0, 66, 91
2, 63850, Note_on_c, 0, 72, 102
2, 63940, Note_on_c, 0, 74, 0
2, 64010, Note_on_c, 0, 71, 94
2, 64097, Note_on_c, 0, 72, 0
2, 64097, Note_on_c, 0, 66, 0
2, 64170, Note_on_c, 0, 69, 95
2, 64258, Note_on_c, 0, 71, 0
2, 64330, Note_on_c, 0, 64, 102
2, 64420, Note_on_c, 0, 69, 0
2, 64490, Note_on_c, 0, 69, 96
2, 64577, Note_on_c, 0, 64, 0
2, 64650, Note_on_c, 0, 68, 96
2, 64738, Note_on_c, 0, 69, 0
2, 64810, Note_on_c, 0, 64, 71
2, 64810, Note_on_c, 0, 69, 71
2, 64810, Note_on_c, 0, 72, 100
2, 64900, Note_on_c, 0, 68, 0
2, 65770, Note_on_c, 0, 64, 0
2, 65770, Note_on_c, 0, 69, 0
2, 65770, Note_on_c, 0, 62, 75
2, 65770, Note_on_c, 0, 67, 75
2, 65770, Note_on_c, 0, 74, 97
2, 65927, Note_on_c, 0, 72, 0
2, 66238, Note_on_c, 0, 67, 0
2, 66250, Note_on_c, 0, 62, 0
2, 66250, Note_on_c, 0, 64, 75
2, 66250, Note_on_c, 0, 67, 75
2, 66250, Note_on_c, 0, 76, 97
2, 66400, Note_on_c, 0, 74, 0
2, 66730, Note_on_c, 0, 67, 0
2, 66730, Note_on_c, 0, 72, 86
2, 67150, Note_on_c, 0, 64, 0
2, 67168, Note_on_c, 0, 76, 0
2, 67210, Note_on_c, 0, 72, 0
2, 67210, Note_on_c, 0, 64, 75
2, 67210, Note_on_c, 0, 67, 75
2, 67210, Note_on_c, 0, 76, 86
2, 67690, Note_on_c, 0, 67, 0
2, 67690, Note_on_c, 0, 62, 75
2, 67690, Note_on_c, 0, 69, 75
2, 67690, Note_on_c, 0, 74, 86
2, 67810, Note_on_c, 0, 64, 0
2, 67840, Note_on_c, 0, 76, 0
2, 68410, Note_on_c, 0, 69, 0
2, 68410, Note_on_c, 0, 62, 0
2, 68410, Note_on_c, 0, 64, 75
2, 68410, Note_on_c, 0, 76, 86
2, 68477, Note_on_c, 0, 74, 0
2, 68530, Note_on_c, 0, 65, 75
2, 68530, Note_on_c, 0, 77, 86
2, 68590, Note_on_c, 0, 76, 0
2, 68620, Note_on_c, 0, 64, 0
2, 68650, Note_on_c, 0, 67, 75
2, 68650, Note_on_c, 0, 71, 75
2, 68650, Note_on_c, 0, 74, 86
2, 68717, Note_on_c, 0, 65, 0
2, 68747, Note_on_c, 0, 77, 0
2, 69130, Note_on_c, 0, 71, 0
2, 69130, Note_on_c, 0, 67, 0
2, 69130, Note_on_c, 0, 74, 0
2, 69130, Note_on_c, 0, 64, 86
2, 69130, Note_on_c, 0, 67, 86
2, 69130, Note_on_c, 0, 72, 86
2, 69290, Note_on_c, 0, 79, 86
2, 69377, Note_on_c, 0, 72, 0
2, 69377, Note_on_c, 0, 64, 0
2, 69377, Note_on_c, 0, 67, 0
2, 69450, Note_on_c, 0, 77, 86
2, 69538, Note_on_c, 0, 79, 0
2, 69610, Note_on_c, 0, 67, 86
2, 69610, Note_on_c, 0, 72, 86
2, 69610, Note_on_c, 0, 79, 86
2, 69700, Note_on_c, 0, 77, 0
2, 69770, Note_on_c, 0, 76, 86
2, 69857, Note_on_c, 0, 67, 0
2, 69857, Note_on_c, 0, 79, 0
2, 69857, Note_on_c, 0, 72, 0
2, 69930, Note_on_c, 0, 72, 86
2, 70018, Note_on_c, 0, 76, 0
2, 70090, Note_on_c, 0, 67, 86
2, 70180, Note_on_c, 0, 72, 0
2, 70250, Note_on_c, 0, 69, 86
2, 70337, Note_on_c, 0, 67, 0
2, 70410, Note_on_c, 0, 70, 86
2, 70498, Note_on_c, 0, 69, 0
2, 70570, Note_on_c, 0, 65, 75
2, 70570, Note_on_c, 0, 69, 86
2, 70660, Note_on_c, 0, 70, 0
2, 70730, Note_on_c, 0, 72, 85
2, 70817, Note_on_c, 0, 69, 0
2, 70817, Note_on_c, 0, 65, 0
2, 70890, Note_on_c, 0, 71, 84
2, 70978, Note_on_c, 0, 72, 0
2, 71050, Note_on_c, 0, 62, 71
2, 71050, Note_on_c, 0, 65, 71
2, 71050, Note_on_c, 0, 72, 82
2, 71140, Note_on_c, 0, 71, 0
2, 71210, Note_on_c, 0, 69, 81
2, 71297, Note_on_c, 0, 62, 0
2, 71297, Note_on_c, 0, 72, 0
2, 71297, Note_on_c, 0, 65, 0
2, 71370, Note_on_c, 0, 65, 80
2, 71458, Note_on_c, 0, 69, 0
2, 71530, Note_on_c, 0, 62, 77
2, 71620, Note_on_c, 0, 65, 0
2, 71690, Note_on_c, 0, 64, 76
2, 71777, Note_on_c, 0, 62, 0
2, 71850, Note_on_c, 0, 65, 75
2, 71938, Note_on_c, 0, 64, 0
2, 72010, Note_on_c, 0, 64, 82
2, 72100, Note_on_c, 0, 65, 0
2, 72170, Note_on_c, 0, 60, 81
2, 72257, Note_on_c, 0, 64, 0
2, 72330, Note_on_c, 0, 62, 80
2, 72418, Note_on_c, 0, 60, 0
2, 72490, Note_on_c, 0, 64, 77
2, 72580, Note_on_c, 0, 62, 0
2, 72650, Note_on_c, 0, 67, 76
2, 72737, Note_on_c, 0, 64, 0
2, 72810, Note_on_c, 0, 62, 64
2, 72810, Note_on_c, 0, 66, 75
2, 72898, Note_on_c, 0, 67, 0
2, 72962, Note_on_c, 0, 62, 0
2, 72970, Note_on_c, 0, 62, 62
2, 72970, Note_on_c, 0, 67, 73
2, 73060, Note_on_c, 0, 66, 0
2, 73130, Note_on_c, 0, 71, 72
2, 73217, Note_on_c, 0, 67, 0
2, 73217, Note_on_c, 0, 62, 0
2, 73290, Note_on_c, 0, 62, 59
2, 73290, Note_on_c, 0, 69, 71
2, 73378, Note_on_c, 0, 71, 0
2, 73450, Note_on_c, 0, 71, 59
2, 73465, Note_on_c, 0, 59, 91
2, 73540, Note_on_c, 0, 69, 0
2, 73540, Note_on_c, 0, 62, 0
2, 73770, Note_on_c, 0, 71, 0
2, 73770, Note_on_c, 0, 62, 59
2, 73930, Note_on_c, 0, 62, 0
2, 73930, Note_on_c, 0, 67, 59
2, 74250, Note_on_c, 0, 67, 0
2, 74250, Note_on_c, 0, 66, 59
2, 74410, Note_on_c, 0, 66, 0
2, 74410, Note_on_c, 0, 67, 90
2, 74425, Note_on_c, 0, 60, 90
2, 74563, Note_on_c, 0, 59, 0
2, 74730, Note_on_c, 0, 67, 0
2, 74730, Note_on_c, 0, 69, 63
2, 74890, Note_on_c, 0, 69, 0
2, 74890, Note_on_c, 0, 71, 74
2, 74905, Note_on_c, 0, 62, 102
2, 74972, Note_on_c, 0, 60, 0
2, 75210, Note_on_c, 0, 71, 0
2, 75210, Note_on_c, 0, 69, 74
2, 75370, Note_on_c, 0, 69, 0
2, 75370, Note_on_c, 0, 71, 74
2, 75690, Note_on_c, 0, 71, 0
2, 75690, Note_on_c, 0, 67, 74
2, 75850, Note_on_c, 0, 67, 0
2, 75850, Note_on_c, 0, 64, 74
2, 75955, Note_on_c, 0, 62, 0
2, 76170, Note_on_c, 0, 64, 0
2, 76177, Note_on_c, 0, 62, 62
2, 76330, Note_on_c, 0, 64, 74
2, 76337, Note_on_c, 0, 62, 0
2, 76345, Note_on_c, 0, 60, 102
2, 76650, Note_on_c, 0, 64, 0
2, 76650, Note_on_c, 0, 66, 74
2, 76810, Note_on_c, 0, 66, 0
2, 76810, Note_on_c, 0, 67, 98
2, 76825, Note_on_c, 0, 59, 98
2, 77012, Note_on_c, 0, 60, 0
2, 77130, Note_on_c, 0, 67, 0
2, 77130, Note_on_c, 0, 62, 68
2, 77290, Note_on_c, 0, 62, 0
2, 77290, Note_on_c, 0, 64, 68
2, 77610, Note_on_c, 0, 64, 0
2, 77610, Note_on_c, 0, 67, 68
2, 77770, Note_on_c, 0, 67, 0
2, 77770, Note_on_c, 0, 66, 83
2, 77785, Note_on_c, 0, 57, 83
2, 77905, Note_on_c, 0, 59, 0
2, 78090, Note_on_c, 0, 66, 0
2, 78090, Note_on_c, 0, 61, 51
2, 78250, Note_on_c, 0, 61, 0
2, 78250, Note_on_c, 0, 62, 53
2, 78553, Note_on_c, 0, 57, 0
2, 78570, Note_on_c, 0, 62, 0
2, 78570, Note_on_c, 0, 57, 56
2, 78570, Note_on_c, 0, 64, 56
2, 78730, Note_on_c, 0, 64, 0
2, 78730, Note_on_c, 0, 57, 0
2, 78730, Note_on_c, 0, 62, 58
2, 78730, Note_on_c, 0, 66, 58
2, 79045, Note_on_c, 0, 62, 0
2, 79050, Note_on_c, 0, 66, 0
2, 79050, Note_on_c, 0, 62, 62
2, 79050, Note_on_c, 0, 67, 62
2, 79210, Note_on_c, 0, 67, 0
2, 79210, Note_on_c, 0, 62, 0
2, 79210, Note_on_c, 0, 66, 64
2, 79210, Note_on_c, 0, 69, 64
2, 79517, Note_on_c, 0, 69, 0
2, 79530, Note_on_c, 0, 66, 0
2, 79530, Note_on_c, 0, 69, 67
2, 79530, Note_on_c, 0, 72, 67
2, 79678, Note_on_c, 0, 69, 0
2, 79690, Note_on_c, 0, 72, 0
2, 79690, Note_on_c, 0, 66, 68
2, 79690, Note_on_c, 0, 69, 68
2, 79997, Note_on_c, 0, 66, 0
2, 80010, Note_on_c, 0, 69, 0
2, 80010, Note_on_c, 0, 62, 62
2, 80010, Note_on_c, 0, 66, 62
2, 80158, Note_on_c, 0, 62, 0
2, 80170, Note_on_c, 0, 66, 0
2, 80170, Note_on_c, 0, 57, 59
2, 80170, Note_on_c, 0, 62, 59
2, 80490, Note_on_c, 0, 62, 0
2, 80490, Note_on_c, 0, 57, 0
2, 80490, Note_on_c, 0, 62, 63
2, 80490, Note_on_c, 0, 66, 63
2, 80650, Note_on_c, 0, 66, 0
2, 80650, Note_on_c, 0, 62, 0
2, 80650, Note_on_c, 0, 59, 64
2, 80810, Note_on_c, 0, 67, 65
2, 80970, Note_on_c, 0, 67, 0
2, 80970, Note_on_c, 0, 59, 0
2, 80970, Note_on_c, 0, 69, 67
2, 81130, Note_on_c, 0, 69, 0
2, 81130, Note_on_c, 0, 62, 68
2, 81130, Note_on_c, 0, 71, 68
2, 81290, Note_on_c, 0, 74, 69
2, 81450, Note_on_c, 0, 74, 0
2, 81450, Note_on_c, 0, 71, 0
2, 81450, Note_on_c, 0, 62, 0
2, 81450, Note_on_c, 0, 72, 72
2, 81596, Note_on_c, 0, 72, 0
2, 81610, Note_on_c, 0, 67, 73
2, 81610, Note_on_c, 0, 72, 73
2, 81770, Note_on_c, 0, 76, 74
2, 81930, Note_on_c, 0, 76, 0
2, 81930, Note_on_c, 0, 72, 0
2, 81930, Note_on_c, 0, 67, 0
2, 81930, Note_on_c, 0, 74, 75
2, 82081, Note_on_c, 0, 74, 0
2, 82090, Note_on_c, 0, 67, 77
2, 82090, Note_on_c, 0, 74, 77
2, 82250, Note_on_c, 0, 79, 78
2, 82410, Note_on_c, 0, 79, 0
2, 82410, Note_on_c, 0, 74, 0
2, 82410, Note_on_c, 0, 67, 0
2, 82410, Note_on_c, 0, 78, 80
2, 82570, Note_on_c, 0, 78, 0
2, 82570, Note_on_c, 0, 79, 82
2, 82730, Note_on_c, 0, 74, 80
2, 82890, Note_on_c, 0, 74, 0
2, 82890, Note_on_c, 0, 79, 0
2, 82890, Note_on_c, 0, 71, 78
2, 83050, Note_on_c, 0, 71, 0
2, 83050, Note_on_c, 0, 67, 77
2, 83210, Note_on_c, 0, 69, 76
2, 83370, Note_on_c, 0, 69, 0
2, 83370, Note_on_c, 0, 67, 0
2, 83370, Note_on_c, 0, 71, 74
2, 83530, Note_on_c, 0, 71, 0
2, 83530, Note_on_c, 0, 64, 73
2, 83690, Note_on_c, 0, 74, 72
2, 83850, Note_on_c, 0, 74, 0
2, 83850, Note_on_c, 0, 64, 0
2, 83850, Note_on_c, 0, 72, 71
2, 84010, Note_on_c, 0, 72, 0
2, 84010, Note_on_c, 0, 71, 69
2, 84170, Note_on_c, 0, 69, 67
2, 84330, Note_on_c, 0, 69, 0
2, 84330, Note_on_c, 0, 71, 0
2, 84330, Note_on_c, 0, 67, 66
2, 84490, Note_on_c, 0, 67, 0
2, 84490, Note_on_c, 0, 60, 65
2, 84490, Note_on_c, 0, 62, 65
2, 84650, Note_on_c, 0, 57, 64
2, 84650, Note_on_c, 0, 67, 64
2, 84810, Note_on_c, 0, 67, 0
2, 84810, Note_on_c, 0, 60, 0
2, 84810, Note_on_c, 0, 62, 0
2, 84810, Note_on_c, 0, 66, 63
2, 84970, Note_on_c, 0, 66, 0
2, 84970, Note_on_c, 0, 57, 0
2, 84970, Note_on_c, 0, 59, 57
2, 84970, Note_on_c, 0, 67, 57
2, 85270, Note_on_c, 0, 67, 0
2, 85290, Note_on_c, 0, 59, 0
2, 85290, Note_on_c, 0, 67, 64
2, 85450, Note_on_c, 0, 71, 68
2, 85615, Note_on_c, 0, 67, 0
2, 85770, Note_on_c, 0, 71, 0
2, 85770, Note_on_c, 0, 67, 75
2, 85770, Note_on_c, 0, 74, 75
2, 85930, Note_on_c, 0, 71, 76
2, 85930, Note_on_c, 0, 79, 76
2, 86095, Note_on_c, 0, 67, 0
2, 86110, Note_on_c, 0, 74, 0
2, 86250, Note_on_c, 0, 71, 0
2, 86250, Note_on_c, 0, 79, 0
2, 86250, Note_on_c, 0, 67, 71
2, 86250, Note_on_c, 0, 74, 71
2, 86410, Note_on_c, 0, 62, 67
2, 86410, Note_on_c, 0, 71, 67
2, 86597, Note_on_c, 0, 74, 0
2, 86597, Note_on_c, 0, 67, 0
2, 86730, Note_on_c, 0, 62, 0
2, 86730, Note_on_c, 0, 71, 0
2, 86730, Note_on_c, 0, 67, 61
2, 86890, Note_on_c, 0, 74, 58
2, 87025, Note_on_c, 0, 67, 0
2, 87210, Note_on_c, 0, 67, 52
2, 87210, Note_on_c, 0, 71, 52
2, 87347, Note_on_c, 0, 74, 0
2, 87370, Note_on_c, 0, 64, 85
2, 87370, Note_on_c, 0, 72, 49
2, 87460, Note_on_c, 0, 67, 0
2, 87467, Note_on_c, 0, 71, 0
2, 87690, Note_on_c, 0, 64, 0
2, 87690, Note_on_c, 0, 60, 76
2, 87850, Note_on_c, 0, 57, 69
2, 88000, Note_on_c, 0, 60, 0
2, 88170, Note_on_c, 0, 69, 49
2, 88255, Note_on_c, 0, 72, 0
2, 88330, Note_on_c, 0, 71, 68
2, 88435, Note_on_c, 0, 69, 0
2, 88435, Note_on_c, 0, 57, 0
2, 88650, Note_on_c, 0, 62, 74
2, 88810, Note_on_c, 0, 59, 69
2, 88930, Note_on_c, 0, 62, 0
2, 89130, Note_on_c, 0, 64, 69
2, 89130, Note_on_c, 0, 67, 69
2, 89215, Note_on_c, 0, 59, 0
2, 89290, Note_on_c, 0, 71, 0
2, 89290, Note_on_c, 0, 60, 67
2, 89290, Note_on_c, 0, 69, 67
2, 89440, Note_on_c, 0, 64, 0
2, 89447, Note_on_c, 0, 67, 0
2, 90055, Note_on_c, 0, 69, 0
2, 90070, Note_on_c, 0, 60, 0
2, 90090, Note_on_c, 0, 69, 49
2, 90250, Note_on_c, 0, 69, 0
2, 90250, Note_on_c, 0, 66, 81
2, 90570, Note_on_c, 0, 62, 71
2, 90685, Note_on_c, 0, 66, 0
2, 90730, Note_on_c, 0, 59, 76
2, 90890, Note_on_c, 0, 67, 68
2, 90917, Note_on_c, 0, 62, 0
2, 91037, Note_on_c, 0, 59, 0
2, 91050, Note_on_c, 0, 69, 71
2, 91138, Note_on_c, 0, 67, 0
2, 91210, Note_on_c, 0, 62, 72
2, 91210, Note_on_c, 0, 71, 72
2, 91300, Note_on_c, 0, 69, 0
2, 91370, Note_on_c, 0, 74, 74
2, 91457, Note_on_c, 0, 71, 0
2, 91457, Note_on_c, 0, 62, 0
2, 91530, Note_on_c, 0, 72, 75
2, 91618, Note_on_c, 0, 74, 0
2, 91681, Note_on_c, 0, 72, 0
2, 91690, Note_on_c, 0, 67, 77
2, 91690, Note_on_c, 0, 72, 77
2, 91850, Note_on_c, 0, 76, 78
2, 91937, Note_on_c, 0, 72, 0
2, 91937, Note_on_c, 0, 67, 0
2, 92010, Note_on_c, 0, 74, 81
2, 92098, Note_on_c, 0, 76, 0
2, 92162, Note_on_c, 0, 74, 0
2, 92170, Note_on_c, 0, 71, 87
2, 92170, Note_on_c, 0, 74, 87
2, 92330, Note_on_c, 0, 79, 84
2, 92417, Note_on_c, 0, 74, 0
2, 92417, Note_on_c, 0, 71, 0
2, 92490, Note_on_c, 0, 78, 86
2, 92578, Note_on_c, 0, 79, 0
2, 92650, Note_on_c, 0, 67, 81
2, 92650, Note_on_c, 0, 79, 81
2, 92740, Note_on_c, 0, 78, 0
2, 92810, Note_on_c, 0, 74, 74
2, 92897, Note_on_c, 0, 79, 0
2, 92897, Note_on_c, 0, 67, 0
2, 92970, Note_on_c, 0, 71, 67
2, 93058, Note_on_c, 0, 74, 0
2, 93130, Note_on_c, 0, 67, 69
2, 93220, Note_on_c, 0, 71, 0
2, 93290, Note_on_c, 0, 69, 63
2, 93377, Note_on_c, 0, 67, 0
2, 93450, Note_on_c, 0, 71, 65
2, 93538, Note_on_c, 0, 69, 0
2, 93610, Note_on_c, 0, 64, 76
2, 93610, Note_on_c, 0, 72, 76
2, 93700, Note_on_c, 0, 71, 0
2, 93770, Note_on_c, 0, 74, 71
2, 93857, Note_on_c, 0, 72, 0
2, 93857, Note_on_c, 0, 64, 0
2, 93930, Note_on_c, 0, 76, 74
2, 94018, Note_on_c, 0, 74, 0
2, 94090, Note_on_c, 0, 67, 75
2, 94090, Note_on_c, 0, 74, 75
2, 94180, Note_on_c, 0, 76, 0
2, 94250, Note_on_c, 0, 72, 72
2, 94337, Note_on_c, 0, 74, 0
2, 94337, Note_on_c, 0, 67, 0
2, 94410, Note_on_c, 0, 71, 69
2, 94498, Note_on_c, 0, 72, 0
2, 94570, Note_on_c, 0, 64, 66
2, 94570, Note_on_c, 0, 69, 66
2, 94660, Note_on_c, 0, 71, 0
2, 94730, Note_on_c, 0, 71, 63
2, 94817, Note_on_c, 0, 69, 0
2, 94817, Note_on_c, 0, 64, 0
2, 94890, Note_on_c, 0, 67, 61
2, 94978, Note_on_c, 0, 71, 0
2, 95050, Note_on_c, 0, 62, 63
2, 95050, Note_on_c, 0, 66, 63
2, 95140, Note_on_c, 0, 67, 0
2, 95210, Note_on_c, 0, 67, 61
2, 95297, Note_on_c, 0, 66, 0
2, 95297, Note_on_c, 0, 62, 0
2, 95370, Note_on_c, 0, 69, 63
2, 95458, Note_on_c, 0, 67, 0
2, 95530, Note_on_c, 0, 57, 64
2, 95530, Note_on_c, 0, 62, 64
2, 95620, Note_on_c, 0, 69, 0
2, 95690, Note_on_c, 0, 66, 65
2, 95777, Note_on_c, 0, 62, 0
2, 95777, Note_on_c, 0, 57, 0
2, 95850, Note_on_c, 0, 69, 67
2, 95938, Note_on_c, 0, 66, 0
2, 96010, Note_on_c, 0, 66, 68
2, 96010, Note_on_c, 0, 72, 68
2, 96100, Note_on_c, 0, 69, 0
2, 96170, Note_on_c, 0, 71, 66
2, 96257, Note_on_c, 0, 72, 0
2, 96257, Note_on_c, 0, 66, 0
2, 96330, Note_on_c, 0, 69, 63
2, 96418, Note_on_c, 0, 71, 0
2, 96490, Note_on_c, 0, 62, 64
2, 96490, Note_on_c, 0, 67, 64
2, 96490, Note_on_c, 0, 71, 71
2, 96580, Note_on_c, 0, 69, 0
2, 96810, Note_on_c, 0, 69, 64
2, 96910, Note_on_c, 0, 71, 0
2, 96910, Note_on_c, 0, 67, 0
2, 96970, Note_on_c, 0, 64, 58
2, 96970, Note_on_c, 0, 67, 58
2, 96970, Note_on_c, 0, 71, 65
2, 97000, Note_on_c, 0, 62, 0
2, 97067, Note_on_c, 0, 69, 0
2, 97290, Note_on_c, 0, 66, 68
2, 97390, Note_on_c, 0, 67, 0
2, 97390, Note_on_c, 0, 71, 0
2, 97390, Note_on_c, 0, 64, 0
2, 97450, Note_on_c, 0, 64, 63
2, 97450, Note_on_c, 0, 67, 63
2, 97450, Note_on_c, 0, 72, 69
2, 97547, Note_on_c, 0, 66, 0
2, 97770, Note_on_c, 0, 69, 72
2, 97870, Note_on_c, 0, 64, 0
2, 97870, Note_on_c, 0, 72, 0
2, 97870, Note_on_c, 0, 67, 0
2, 97930, Note_on_c, 0, 62, 66
2, 97930, Note_on_c, 0, 71, 66
2, 97930, Note_on_c, 0, 74, 73
2, 98027, Note_on_c, 0, 69, 0
2, 98250, Note_on_c, 0, 69, 73
2, 98350, Note_on_c, 0, 74, 0
2, 98350, Note_on_c, 0, 71, 0
2, 98410, Note_on_c, 0, 64, 65
2, 98410, Note_on_c, 0, 67, 65
2, 98410, Note_on_c, 0, 71, 72
2, 98500, Note_on_c, 0, 62, 0
2, 98507, Note_on_c, 0, 69, 0
2, 98730, Note_on_c, 0, 67, 0
2, 98730, Note_on_c, 0, 67, 69
2, 98830, Note_on_c, 0, 64, 0
2, 98830, Note_on_c, 0, 71, 0
2, 98890, Note_on_c, 0, 55, 63
2, 98890, Note_on_c, 0, 59, 63
2, 98890, Note_on_c, 0, 64, 69
2, 98987, Note_on_c, 0, 67, 0
2, 99210, Note_on_c, 0, 67, 61
2, 99210, Note_on_c, 0, 71, 67
2, 99310, Note_on_c, 0, 64, 0
2, 99310, Note_on_c, 0, 59, 0
2, 99370, Note_on_c, 0, 60, 59
2, 99370, Note_on_c, 0, 64, 59
2, 99370, Note_on_c, 0, 69, 66
2, 99445, Note_on_c, 0, 55, 0
2, 99467, Note_on_c, 0, 67, 0
2, 99467, Note_on_c, 0, 71, 0
2, 99690, Note_on_c, 0, 66, 65
2, 99790, Note_on_c, 0, 69, 0
2, 99790, Note_on_c, 0, 64, 0
2, 99850, Note_on_c, 0, 59, 57
2, 99850, Note_on_c, 0, 64, 57
2, 99850, Note_on_c, 0, 67, 64
2, 99925, Note_on_c, 0, 60, 0
2, 99947, Note_on_c, 0, 66, 0
2, 100170, Note_on_c, 0, 64, 0
2, 100170, Note_on_c, 0, 64, 63
2, 100270, Note_on_c, 0, 67, 0
2, 100330, Note_on_c, 0, 57, 55
2, 100330, Note_on_c, 0, 62, 62
2, 100405, Note_on_c, 0, 59, 0
2, 100427, Note_on_c, 0, 64, 0
2, 100650, Note_on_c, 0, 60, 59
2, 100750, Note_on_c, 0, 62, 0
2, 100787, Note_on_c, 0, 57, 0
2, 100810, Note_on_c, 0, 59, 53
2, 100810, Note_on_c, 0, 62, 59
2, 100830, Control_c, 0, 64, 127
2, 100907, Note_on_c, 0, 60, 0
2, 102690, Control_c, 0, 64, 0
2, 102737, Note_on_c, 0, 62, 0
2, 102737, Note_on_c, 0, 59, 0
2, 102737, End_track
3, 0, Start_track
3, 0, Title_t, "PIANO 1 l"
3, 0, Program_c, 0, 0
3, 0, Control_c, 0, 10, 81
3, 0, Control_c, 0, 91, 91
3, 0, Control_c, 0, 11, 110
3, 0, Program_c, 0, 0
3, 490, Note_on_c, 0, 55, 62
3, 525, Control_c, 0, 64, 127
3, 930, Control_c, 0, 64, 0
3, 970, Note_on_c, 0, 52, 62
3, 1005, Control_c, 0, 64, 127
3, 1172, Note_on_c, 0, 55, 0
3, 1395, Control_c, 0, 64, 0
3, 1450, Note_on_c, 0, 47, 62
3, 1477, Control_c, 0, 64, 127
3, 1652, Note_on_c, 0, 52, 0
3, 1890, Control_c, 0, 64, 0
3, 1930, Note_on_c, 0, 40, 62
3, 1930, Note_on_c, 0, 52, 62
3, 1972, Control_c, 0, 64, 127
3, 2132, Note_on_c, 0, 47, 0
3, 2387, Note_on_c, 0, 52, 0
3, 2410, Note_on_c, 0, 52, 62
3, 2410, Note_on_c, 0, 64, 62
3, 2612, Note_on_c, 0, 40, 0
3, 2842, Control_c, 0, 64, 0
3, 2890, Note_on_c, 0, 64, 0
3, 2890, Note_on_c, 0, 52, 0
3, 2890, Note_on_c, 0, 45, 62
3, 2910, Control_c, 0, 64, 127
3, 3330, Control_c, 0, 64, 0
3, 3370, Note_on_c, 0, 47, 62
3, 3442, Control_c, 0, 64, 127
3, 3572, Note_on_c, 0, 45, 0
3, 3825, Control_c, 0, 64, 0
3, 3850, Note_on_c, 0, 48, 62
3, 3892, Control_c, 0, 64, 127
3, 4052, Note_on_c, 0, 47, 0
3, 4297, Control_c, 0, 64, 0
3, 4330, Note_on_c, 0, 38, 62
3, 4330, Note_on_c, 0, 50, 62
3, 4365, Control_c, 0, 64, 127
3, 4532, Note_on_c, 0, 48, 0
3, 4777, Control_c, 0, 64, 0
3, 4810, Note_on_c, 0, 42, 62
3, 4810, Note_on_c, 0, 54, 62
3, 4830, Control_c, 0, 64, 127
3, 5012, Note_on_c, 0, 50, 0
3, 5012, Note_on_c, 0, 38, 0
3, 5250, Control_c, 0, 64, 0
3, 5290, Note_on_c, 0, 38, 62
3, 5290, Note_on_c, 0, 50, 62
3, 5317, Control_c, 0, 64, 127
3, 5492, Note_on_c, 0, 42, 0
3, 5492, Note_on_c, 0, 54, 0
3, 5715, Control_c, 0, 64, 0
3, 5770, Note_on_c, 0, 38, 0
3, 5770, Note_on_c, 0, 50, 0
3, 5770, Note_on_c, 0, 43, 62
3, 5797, Control_c, 0, 64, 127
3, 6195, Control_c, 0, 64, 0
3, 6250, Note_on_c, 0, 43, 0
3, 6250, Note_on_c, 0, 40, 62
3, 6250, Note_on_c, 0, 52, 62
3, 6285, Control_c, 0, 64, 127
3, 6690, Control_c, 0, 64, 0
3, 6730, Note_on_c, 0, 36, 62
3, 6730, Note_on_c, 0, 48, 62
3, 6750, Control_c, 0, 64, 127
3, 6928, Note_on_c, 0, 52, 0
3, 6928, Note_on_c, 0, 40, 0
3, 7155, Control_c, 0, 64, 0
3, 7210, Note_on_c, 0, 35, 62
3, 7210, Note_on_c, 0, 47, 62
3, 7215, Control_c, 0, 64, 127
3, 7408, Note_on_c, 0, 36, 0
3, 7408, Note_on_c, 0, 48, 0
3, 7635, Control_c, 0, 64, 0
3, 7690, Note_on_c, 0, 40, 62
3, 7690, Note_on_c, 0, 52, 62
3, 7702, Control_c, 0, 64, 127
3, 7888, Note_on_c, 0, 35, 0
3, 7888, Note_on_c, 0, 47, 0
3, 8130, Control_c, 0, 64, 0
3, 8170, Note_on_c, 0, 38, 62
3, 8170, Note_on_c, 0, 50, 62
3, 8190, Control_c, 0, 64, 127
3, 8368, Note_on_c, 0, 40, 0
3, 8368, Note_on_c, 0, 52, 0
3, 8580, Control_c, 0, 64, 0
3, 8650, Note_on_c, 0, 36, 62
3, 8650, Note_on_c, 0, 48, 62
3, 8662, Control_c, 0, 64, 127
3, 8848, Note_on_c, 0, 38, 0
3, 8848, Note_on_c, 0, 50, 0
3, 9060, Control_c, 0, 64, 0
3, 9127, Control_c, 0, 64, 127
3, 9130, Note_on_c, 0, 37, 62
3, 9130, Note_on_c, 0, 49, 62
3, 9328, Note_on_c, 0, 36, 0
3, 9328, Note_on_c, 0, 48, 0
3, 9540, Control_c, 0, 64, 0
3, 9610, Note_on_c, 0, 38, 62
3, 9610, Note_on_c, 0, 50, 62
3, 9630, Control_c, 0, 64, 127
3, 9808, Note_on_c, 0, 37, 0
3, 9808, Note_on_c, 0, 49, 0
3, 10012, Control_c, 0, 64, 0
3, 10090, Note_on_c, 0, 31, 62
3, 10090, Note_on_c, 0, 43, 62
3, 10095, Control_c, 0, 64, 127
3, 10288, Note_on_c, 0, 38, 0
3, 10288, Note_on_c, 0, 50, 0
3, 10515, Control_c, 0, 64, 0
3, 10570, Note_on_c, 0, 31, 0
3, 10570, Note_on_c, 0, 43, 0
3, 10860, Control_c, 0, 64, 127
3, 10890, Note_on_c, 0, 55, 59
3, 11050, Note_on_c, 0, 50, 67
3, 11248, Note_on_c, 0, 55, 0
3, 11370, Note_on_c, 0, 47, 69
3, 11505, Control_c, 0, 64, 0
3, 11530, Note_on_c, 0, 47, 0
3, 11530, Note_on_c, 0, 43, 84
3, 11530, Note_on_c, 0, 55, 90
3, 11567, Note_on_c, 0, 50, 0
3, 11572, Control_c, 0, 64, 127
3, 12490, Note_on_c, 0, 55, 0
3, 12490, Note_on_c, 0, 43, 0
3, 12495, Control_c, 0, 64, 0
3, 15840, Control_c, 0, 10, 81
3, 15840, Control_c, 0, 10, 81
3, 15840, Program_c, 0, 0
3, 15840, Control_c, 0, 10, 81
3, 15840, Program_c, 0, 0
3, 16597, Control_c, 0, 64, 127
3, 16650, Note_on_c, 0, 38, 61
3, 16810, Note_on_c, 0, 38, 0
3, 16810, Note_on_c, 0, 50, 68
3, 17130, Note_on_c, 0, 50, 0
3, 17130, Note_on_c, 0, 38, 68
3, 17287, Control_c, 0, 64, 0
3, 17290, Note_on_c, 0, 38, 0
3, 17290, Note_on_c, 0, 26, 73
3, 18010, Note_on_c, 0, 26, 0
3, 18090, Note_on_c, 0, 38, 58
3, 18097, Control_c, 0, 64, 127
3, 18250, Note_on_c, 0, 38, 0
3, 18250, Note_on_c, 0, 50, 73
3, 18570, Note_on_c, 0, 50, 0
3, 18570, Note_on_c, 0, 38, 57
3, 18682, Control_c, 0, 64, 0
3, 18730, Note_on_c, 0, 38, 0
3, 18730, Note_on_c, 0, 43, 67
3, 18765, Control_c, 0, 64, 127
3, 19177, Control_c, 0, 64, 0
3, 19210, Note_on_c, 0, 42, 58
3, 19222, Control_c, 0, 64, 127
3, 19427, Note_on_c, 0, 43, 0
3, 19635, Control_c, 0, 64, 0
3, 19690, Note_on_c, 0, 40, 62
3, 19710, Control_c, 0, 64, 127
3, 19900, Note_on_c, 0, 42, 0
3, 20122, Control_c, 0, 64, 0
3, 20170, Note_on_c, 0, 47, 65
3, 20182, Control_c, 0, 64, 127
3, 20350, Note_on_c, 0, 40, 0
3, 20580, Control_c, 0, 64, 0
3, 20650, Note_on_c, 0, 59, 68
3, 20662, Control_c, 0, 64, 127
3, 20788, Note_on_c, 0, 47, 0
3, 21090, Control_c, 0, 64, 0
3, 21120, Control_c, 0, 64, 127
3, 21130, Note_on_c, 0, 52, 72
3, 21130, Note_on_c, 0, 55, 72
3, 21268, Note_on_c, 0, 59, 0
3, 21547, Control_c, 0, 64, 0
3, 21610, Note_on_c, 0, 55, 0
3, 21610, Note_on_c, 0, 52, 0
3, 21610, Note_on_c, 0, 48, 27
3, 21610, Note_on_c, 0, 57, 84
3, 21622, Control_c, 0, 64, 127
3, 21850, Note_on_c, 0, 57, 0
3, 21850, Note_on_c, 0, 48, 0
3, 21850, Note_on_c, 0, 59, 77
3, 21970, Note_on_c, 0, 59, 0
3, 21970, Note_on_c, 0, 60, 84
3, 22035, Control_c, 0, 64, 0
3, 22090, Note_on_c, 0, 60, 0
3, 22090, Note_on_c, 0, 50, 75
3, 22102, Control_c, 0, 64, 127
3, 22570, Note_on_c, 0, 50, 0
3, 22570, Note_on_c, 0, 38, 72
3, 22987, Control_c, 0, 64, 0
3, 23050, Note_on_c, 0, 38, 0
3, 23050, Note_on_c, 0, 31, 75
3, 23050, Note_on_c, 0, 43, 75
3, 23055, Control_c, 0, 64, 127
3, 23530, Note_on_c, 0, 55, 72
3, 23602, Control_c, 0, 64, 0
3, 23685, Control_c, 0, 64, 127
3, 23740, Note_on_c, 0, 43, 0
3, 23740, Note_on_c, 0, 31, 0
3, 24010, Note_on_c, 0, 52, 69
3, 24220, Note_on_c, 0, 55, 0
3, 24490, Note_on_c, 0, 47, 65
3, 24700, Note_on_c, 0, 52, 0
3, 24877, Control_c, 0, 64, 0
3, 24970, Note_on_c, 0, 40, 71
3, 24970, Note_on_c, 0, 52, 71
3, 25005, Control_c, 0, 64, 127
3, 25180, Note_on_c, 0, 47, 0
3, 25450, Note_on_c, 0, 52, 0
3, 25450, Note_on_c, 0, 64, 65
3, 25470, Note_on_c, 0, 52, 67
3, 25660, Note_on_c, 0, 40, 0
3, 25837, Control_c, 0, 64, 0
3, 25930, Note_on_c, 0, 45, 71
3, 25935, Control_c, 0, 64, 127
3, 26140, Note_on_c, 0, 64, 0
3, 26158, Note_on_c, 0, 52, 0
3, 26410, Note_on_c, 0, 47, 64
3, 26620, Note_on_c, 0, 45, 0
3, 26890, Note_on_c, 0, 48, 68
3, 27100, Note_on_c, 0, 47, 0
3, 27292, Control_c, 0, 64, 0
3, 27360, Control_c, 0, 64, 127
3, 27370, Note_on_c, 0, 38, 51
3, 27370, Note_on_c, 0, 50, 62
3, 27580, Note_on_c, 0, 48, 0
3, 27850, Note_on_c, 0, 42, 56
3, 27850, Note_on_c, 0, 54, 59
3, 28060, Note_on_c, 0, 50, 0
3, 28060, Note_on_c, 0, 38, 0
3, 28330, Note_on_c, 0, 38, 59
3, 28330, Note_on_c, 0, 50, 62
3, 28540, Note_on_c, 0, 42, 0
3, 28540, Note_on_c, 0, 54, 0
3, 28762, Control_c, 0, 64, 0
3, 28810, Note_on_c, 0, 43, 65
3, 28852, Control_c, 0, 64, 127
3, 29020, Note_on_c, 0, 38, 0
3, 29020, Note_on_c, 0, 50, 0
3, 29290, Note_on_c, 0, 40, 61
3, 29290, Note_on_c, 0, 52, 53
3, 29432, Note_on_c, 0, 43, 0
3, 29770, Note_on_c, 0, 36, 63
3, 29770, Note_on_c, 0, 48, 59
3, 29912, Note_on_c, 0, 52, 0
3, 29912, Note_on_c, 0, 40, 0
3, 30195, Control_c, 0, 64, 0
3, 30250, Note_on_c, 0, 35, 56
3, 30250, Note_on_c, 0, 47, 55
3, 30262, Control_c, 0, 64, 127
3, 30392, Note_on_c, 0, 36, 0
3, 30392, Note_on_c, 0, 48, 0
3, 30730, Note_on_c, 0, 40, 61
3, 30730, Note_on_c, 0, 52, 58
3, 30872, Note_on_c, 0, 35, 0
3, 30872, Note_on_c, 0, 47, 0
3, 31210, Note_on_c, 0, 38, 57
3, 31210, Note_on_c, 0, 50, 58
3, 31352, Note_on_c, 0, 40, 0
3, 31352, Note_on_c, 0, 52, 0
3, 31642, Control_c, 0, 64, 0
3, 31690, Note_on_c, 0, 36, 57
3, 31690, Note_on_c, 0, 48, 59
3, 31710, Control_c, 0, 64, 127
3, 31832, Note_on_c, 0, 38, 0
3, 31832, Note_on_c, 0, 50, 0
3, 32170, Note_on_c, 0, 37, 57
3, 32170, Note_on_c, 0, 49, 58
3, 32312, Note_on_c, 0, 36, 0
3, 32312, Note_on_c, 0, 48, 0
3, 32650, Note_on_c, 0, 38, 56
3, 32650, Note_on_c, 0, 50, 58
3, 32792, Note_on_c, 0, 37, 0
3, 32792, Note_on_c, 0, 49, 0
3, 33090, Control_c, 0, 64, 0
3, 33130, Note_on_c, 0, 31, 69
3, 33130, Note_on_c, 0, 43, 61
3, 33150, Control_c, 0, 64, 127
3, 33272, Note_on_c, 0, 38, 0
3, 33272, Note_on_c, 0, 50, 0
3, 33752, Note_on_c, 0, 31, 0
3, 33752, Note_on_c, 0, 43, 0
3, 34057, Control_c, 0, 64, 0
3, 38175, Control_c, 0, 64, 127
3, 38250, Note_on_c, 0, 38, 55
3, 38410, Note_on_c, 0, 50, 65
3, 38552, Note_on_c, 0, 38, 0
3, 38730, Note_on_c, 0, 38, 49
3, 38871, Note_on_c, 0, 50, 0
3, 38890, Note_on_c, 0, 26, 66
3, 39007, Control_c, 0, 64, 0
3, 39032, Note_on_c, 0, 38, 0
3, 39512, Note_on_c, 0, 26, 0
3, 39577, Control_c, 0, 64, 127
3, 39690, Note_on_c, 0, 38, 54
3, 39850, Note_on_c, 0, 50, 68
3, 39992, Note_on_c, 0, 38, 0
3, 40170, Note_on_c, 0, 38, 72
3, 40275, Control_c, 0, 64, 0
3, 40311, Note_on_c, 0, 50, 0
3, 40330, Note_on_c, 0, 43, 78
3, 40357, Control_c, 0, 64, 127
3, 40472, Note_on_c, 0, 38, 0
3, 40810, Note_on_c, 0, 42, 75
3, 40952, Note_on_c, 0, 43, 0
3, 41290, Note_on_c, 0, 40, 77
3, 41432, Note_on_c, 0, 42, 0
3, 41677, Control_c, 0, 64, 0
3, 41770, Note_on_c, 0, 47, 78
3, 41775, Control_c, 0, 64, 127
3, 41912, Note_on_c, 0, 40, 0
3, 42250, Note_on_c, 0, 59, 78
3, 42392, Note_on_c, 0, 47, 0
3, 42730, Note_on_c, 0, 52, 69
3, 42730, Note_on_c, 0, 55, 81
3, 42872, Note_on_c, 0, 59, 0
3, 43125, Control_c, 0, 64, 0
3, 43210, Note_on_c, 0, 48, 64
3, 43210, Note_on_c, 0, 57, 57
3, 43252, Control_c, 0, 64, 127
3, 43352, Note_on_c, 0, 55, 0
3, 43352, Note_on_c, 0, 52, 0
3, 43450, Note_on_c, 0, 59, 66
3, 43570, Note_on_c, 0, 60, 73
3, 43590, Control_c, 0, 64, 0
3, 43592, Note_on_c, 0, 48, 0
3, 43592, Note_on_c, 0, 57, 0
3, 43615, Note_on_c, 0, 59, 0
3, 43690, Note_on_c, 0, 50, 68
3, 43690, Note_on_c, 0, 59, 67
3, 43740, Control_c, 0, 64, 127
3, 43832, Note_on_c, 0, 60, 0
3, 44170, Note_on_c, 0, 38, 61
3, 44312, Note_on_c, 0, 59, 0
3, 44312, Note_on_c, 0, 50, 0
3, 44602, Control_c, 0, 64, 0
3, 44650, Note_on_c, 0, 31, 62
3, 44650, Note_on_c, 0, 43, 61
3, 44692, Control_c, 0, 64, 127
3, 44792, Note_on_c, 0, 38, 0
3, 45130, Note_on_c, 0, 55, 72
3, 45272, Note_on_c, 0, 43, 0
3, 45272, Note_on_c, 0, 31, 0
3, 45555, Control_c, 0, 64, 0
3, 45610, Note_on_c, 0, 52, 68
3, 45630, Control_c, 0, 64, 127
3, 45752, Note_on_c, 0, 55, 0
3, 46090, Note_on_c, 0, 47, 72
3, 46232, Note_on_c, 0, 52, 0
3, 46570, Note_on_c, 0, 40, 66
3, 46570, Note_on_c, 0, 52, 64
3, 46712, Note_on_c, 0, 47, 0
3, 47050, Note_on_c, 0, 52, 0
3, 47050, Note_on_c, 0, 52, 67
3, 47050, Note_on_c, 0, 64, 69
3, 47192, Note_on_c, 0, 40, 0
3, 47490, Control_c, 0, 64, 0
3, 47530, Note_on_c, 0, 45, 68
3, 47580, Control_c, 0, 64, 127
3, 47672, Note_on_c, 0, 64, 0
3, 47672, Note_on_c, 0, 52, 0
3, 48010, Note_on_c, 0, 47, 68
3, 48152, Note_on_c, 0, 45, 0
3, 48490, Note_on_c, 0, 48, 74
3, 48632, Note_on_c, 0, 47, 0
3, 48922, Control_c, 0, 64, 0
3, 48970, Note_on_c, 0, 38, 73
3, 48970, Note_on_c, 0, 50, 74
3, 48997, Control_c, 0, 64, 127
3, 49112, Note_on_c, 0, 48, 0
3, 49450, Note_on_c, 0, 42, 67
3, 49450, Note_on_c, 0, 54, 72
3, 49592, Note_on_c, 0, 50, 0
3, 49592, Note_on_c, 0, 38, 0
3, 49930, Note_on_c, 0, 38, 68
3, 49930, Note_on_c, 0, 50, 69
3, 50072, Note_on_c, 0, 42, 0
3, 50072, Note_on_c, 0, 54, 0
3, 50362, Control_c, 0, 64, 0
3, 50410, Note_on_c, 0, 43, 71
3, 50445, Control_c, 0, 64, 127
3, 50552, Note_on_c, 0, 38, 0
3, 50552, Note_on_c, 0, 50, 0
3, 50890, Note_on_c, 0, 40, 71
3, 50890, Note_on_c, 0, 52, 64
3, 51032, Note_on_c, 0, 43, 0
3, 51370, Note_on_c, 0, 36, 71
3, 51370, Note_on_c, 0, 48, 71
3, 51512, Note_on_c, 0, 52, 0
3, 51512, Note_on_c, 0, 40, 0
3, 51795, Control_c, 0, 64, 0
3, 51850, Note_on_c, 0, 35, 73
3, 51850, Note_on_c, 0, 47, 72
3, 51877, Control_c, 0, 64, 127
3, 51992, Note_on_c, 0, 36, 0
3, 51992, Note_on_c, 0, 48, 0
3, 52330, Note_on_c, 0, 40, 73
3, 52330, Note_on_c, 0, 52, 76
3, 52472, Note_on_c, 0, 35, 0
3, 52472, Note_on_c, 0, 47, 0
3, 52810, Note_on_c, 0, 38, 59
3, 52810, Note_on_c, 0, 50, 67
3, 52952, Note_on_c, 0, 40, 0
3, 52952, Note_on_c, 0, 52, 0
3, 53227, Control_c, 0, 64, 0
3, 53290, Note_on_c, 0, 36, 69
3, 53290, Note_on_c, 0, 48, 69
3, 53325, Control_c, 0, 64, 127
3, 53432, Note_on_c, 0, 38, 0
3, 53432, Note_on_c, 0, 50, 0
3, 53770, Note_on_c, 0, 37, 69
3, 53770, Note_on_c, 0, 49, 69
3, 53912, Note_on_c, 0, 36, 0
3, 53912, Note_on_c, 0, 48, 0
3, 54250, Note_on_c, 0, 38, 69
3, 54250, Note_on_c, 0, 50, 69
3, 54392, Note_on_c, 0, 37, 0
3, 54392, Note_on_c, 0, 49, 0
3, 54682, Control_c, 0, 64, 0
3, 54720, Control_c, 0, 64, 127
3, 54730, Note_on_c, 0, 31, 67
3, 54730, Note_on_c, 0, 43, 67
3, 54872, Note_on_c, 0, 38, 0
3, 54872, Note_on_c, 0, 50, 0
3, 55335, Control_c, 0, 64, 0
3, 55352, Note_on_c, 0, 31, 0
3, 55352, Note_on_c, 0, 43, 0
3, 55530, Note_on_c, 0, 55, 68
3, 55530, Control_c, 0, 64, 127
3, 55690, Note_on_c, 0, 54, 72
3, 55832, Note_on_c, 0, 55, 0
3, 56010, Note_on_c, 0, 52, 77
3, 56010, Note_on_c, 0, 61, 77
3, 56151, Note_on_c, 0, 54, 0
3, 56170, Note_on_c, 0, 50, 81
3, 56170, Note_on_c, 0, 62, 81
3, 56312, Note_on_c, 0, 61, 0
3, 56312, Note_on_c, 0, 52, 0
3, 56490, Note_on_c, 0, 57, 81
3, 56631, Note_on_c, 0, 50, 0
3, 56631, Note_on_c, 0, 62, 0
3, 56650, Note_on_c, 0, 62, 81
3, 56792, Note_on_c, 0, 57, 0
3, 57090, Control_c, 0, 64, 0
3, 57111, Note_on_c, 0, 62, 0
3, 57130, Note_on_c, 0, 47, 81
3, 57130, Note_on_c, 0, 56, 81
3, 57172, Control_c, 0, 64, 127
3, 57525, Control_c, 0, 64, 0
3, 57610, Note_on_c, 0, 45, 81
3, 57610, Note_on_c, 0, 57, 81
3, 57622, Control_c, 0, 64, 127
3, 57752, Note_on_c, 0, 56, 0
3, 57752, Note_on_c, 0, 47, 0
3, 58090, Note_on_c, 0, 45, 0
3, 58090, Note_on_c, 0, 57, 0
3, 58090, Note_on_c, 0, 45, 83
3, 58090, Note_on_c, 0, 57, 83
3, 58330, Note_on_c, 0, 43, 85
3, 58330, Note_on_c, 0, 55, 85
3, 58472, Note_on_c, 0, 57, 0
3, 58472, Note_on_c, 0, 45, 0
3, 58570, Note_on_c, 0, 41, 94
3, 58570, Note_on_c, 0, 53, 94
3, 58712, Note_on_c, 0, 43, 0
3, 58712, Note_on_c, 0, 55, 0
3, 58810, Note_on_c, 0, 40, 94
3, 58810, Note_on_c, 0, 52, 94
3, 58952, Note_on_c, 0, 41, 0
3, 58952, Note_on_c, 0, 53, 0
3, 59050, Note_on_c, 0, 38, 98
3, 59050, Note_on_c, 0, 50, 98
3, 59192, Note_on_c, 0, 40, 0
3, 59192, Note_on_c, 0, 52, 0
3, 59530, Note_on_c, 0, 35, 81
3, 59530, Note_on_c, 0, 47, 81
3, 59672, Note_on_c, 0, 38, 0
3, 59672, Note_on_c, 0, 50, 0
3, 59992, Control_c, 0, 64, 0
3, 60010, Note_on_c, 0, 40, 81
3, 60045, Control_c, 0, 64, 127
3, 60152, Note_on_c, 0, 35, 0
3, 60152, Note_on_c, 0, 47, 0
3, 60450, Control_c, 0, 64, 0
3, 60490, Note_on_c, 0, 33, 67
3, 60490, Note_on_c, 0, 45, 67
3, 60525, Control_c, 0, 64, 127
3, 60632, Note_on_c, 0, 40, 0
3, 60970, Note_on_c, 0, 41, 68
3, 61112, Note_on_c, 0, 45, 0
3, 61112, Note_on_c, 0, 33, 0
3, 61450, Note_on_c, 0, 38, 69
3, 61592, Note_on_c, 0, 41, 0
3, 61852, Control_c, 0, 64, 0
3, 61930, Note_on_c, 0, 36, 71
3, 61930, Note_on_c, 0, 48, 71
3, 61950, Control_c, 0, 64, 127
3, 62072, Note_on_c, 0, 38, 0
3, 62410, Note_on_c, 0, 41, 72
3, 62410, Note_on_c, 0, 53, 72
3, 62552, Note_on_c, 0, 48, 0
3, 62552, Note_on_c, 0, 36, 0
3, 62890, Note_on_c, 0, 40, 74
3, 62890, Note_on_c, 0, 52, 74
3, 63032, Note_on_c, 0, 41, 0
3, 63032, Note_on_c, 0, 53, 0
3, 63307, Control_c, 0, 64, 0
3, 63370, Note_on_c, 0, 38, 75
3, 63370, Note_on_c, 0, 50, 75
3, 63412, Control_c, 0, 64, 127
3, 63512, Note_on_c, 0, 40, 0
3, 63512, Note_on_c, 0, 52, 0
3, 63850, Note_on_c, 0, 39, 76
3, 63850, Note_on_c, 0, 51, 76
3, 63992, Note_on_c, 0, 38, 0
3, 63992, Note_on_c, 0, 50, 0
3, 64330, Note_on_c, 0, 40, 77
3, 64330, Note_on_c, 0, 52, 77
3, 64472, Note_on_c, 0, 39, 0
3, 64472, Note_on_c, 0, 51, 0
3, 64770, Control_c, 0, 64, 0
3, 64810, Note_on_c, 0, 33, 86
3, 64810, Note_on_c, 0, 45, 86
3, 64860, Control_c, 0, 64, 127
3, 64952, Note_on_c, 0, 40, 0
3, 64952, Note_on_c, 0, 52, 0
3, 65290, Note_on_c, 0, 45, 0
3, 65290, Note_on_c, 0, 45, 86
3, 65290, Note_on_c, 0, 57, 86
3, 65432, Note_on_c, 0, 33, 0
3, 65737, Control_c, 0, 64, 0
3, 65770, Note_on_c, 0, 47, 86
3, 65770, Note_on_c, 0, 59, 86
3, 65827, Control_c, 0, 64, 127
3, 65912, Note_on_c, 0, 57, 0
3, 65912, Note_on_c, 0, 45, 0
3, 66180, Control_c, 0, 64, 0
3, 66250, Note_on_c, 0, 48, 86
3, 66250, Note_on_c, 0, 60, 86
3, 66270, Control_c, 0, 64, 127
3, 66392, Note_on_c, 0, 47, 0
3, 66392, Note_on_c, 0, 59, 0
3, 66730, Note_on_c, 0, 45, 86
3, 66730, Note_on_c, 0, 57, 86
3, 66872, Note_on_c, 0, 48, 0
3, 66872, Note_on_c, 0, 60, 0
3, 67210, Note_on_c, 0, 40, 86
3, 67210, Note_on_c, 0, 52, 86
3, 67352, Note_on_c, 0, 45, 0
3, 67352, Note_on_c, 0, 57, 0
3, 67642, Control_c, 0, 64, 0
3, 67690, Note_on_c, 0, 41, 86
3, 67690, Note_on_c, 0, 53, 86
3, 67717, Control_c, 0, 64, 127
3, 67832, Note_on_c, 0, 40, 0
3, 67832, Note_on_c, 0, 52, 0
3, 68170, Note_on_c, 0, 38, 86
3, 68170, Note_on_c, 0, 50, 86
3, 68312, Note_on_c, 0, 41, 0
3, 68312, Note_on_c, 0, 53, 0
3, 68650, Note_on_c, 0, 55, 86
3, 68650, Note_on_c, 0, 62, 86
3, 68792, Note_on_c, 0, 38, 0
3, 68792, Note_on_c, 0, 50, 0
3, 69067, Control_c, 0, 64, 0
3, 69130, Note_on_c, 0, 48, 97
3, 69130, Note_on_c, 0, 60, 97
3, 69180, Control_c, 0, 64, 127
3, 69272, Note_on_c, 0, 55, 0
3, 69272, Note_on_c, 0, 62, 0
3, 69610, Note_on_c, 0, 60, 0
3, 69610, Note_on_c, 0, 60, 97
3, 69610, Note_on_c, 0, 64, 97
3, 69752, Note_on_c, 0, 48, 0
3, 70090, Note_on_c, 0, 60, 0
3, 70090, Note_on_c, 0, 52, 97
3, 70090, Note_on_c, 0, 60, 97
3, 70232, Note_on_c, 0, 64, 0
3, 70570, Note_on_c, 0, 60, 0
3, 70570, Note_on_c, 0, 53, 97
3, 70570, Note_on_c, 0, 60, 97
3, 70712, Note_on_c, 0, 52, 0
3, 71050, Note_on_c, 0, 50, 93
3, 71122, Control_c, 0, 64, 0
3, 71192, Note_on_c, 0, 60, 0
3, 71192, Note_on_c, 0, 53, 0
3, 71197, Control_c, 0, 64, 127
3, 71530, Note_on_c, 0, 55, 88
3, 71530, Note_on_c, 0, 59, 88
3, 71672, Note_on_c, 0, 50, 0
3, 72010, Note_on_c, 0, 48, 84
3, 72010, Note_on_c, 0, 60, 84
3, 72152, Note_on_c, 0, 59, 0
3, 72152, Note_on_c, 0, 55, 0
3, 72592, Control_c, 0, 64, 0
3, 72632, Note_on_c, 0, 48, 0
3, 72632, Note_on_c, 0, 60, 0
3, 72795, Control_c, 0, 64, 127
3, 72810, Note_on_c, 0, 48, 77
3, 72810, Note_on_c, 0, 57, 77
3, 72970, Note_on_c, 0, 47, 75
3, 72970, Note_on_c, 0, 55, 75
3, 73112, Note_on_c, 0, 57, 0
3, 73112, Note_on_c, 0, 48, 0
3, 73290, Note_on_c, 0, 50, 73
3, 73290, Note_on_c, 0, 54, 73
3, 73402, Control_c, 0, 64, 0
3, 73431, Note_on_c, 0, 47, 0
3, 73431, Note_on_c, 0, 55, 0
3, 73450, Note_on_c, 0, 43, 77
3, 73470, Control_c, 0, 64, 127
3, 73592, Note_on_c, 0, 50, 0
3, 73592, Note_on_c, 0, 54, 0
3, 73930, Note_on_c, 0, 43, 0
3, 73930, Note_on_c, 0, 43, 77
3, 73930, Note_on_c, 0, 55, 77
3, 74377, Control_c, 0, 64, 0
3, 74410, Note_on_c, 0, 40, 77
3, 74410, Note_on_c, 0, 52, 77
3, 74445, Control_c, 0, 64, 127
3, 74552, Note_on_c, 0, 55, 0
3, 74552, Note_on_c, 0, 43, 0
3, 74890, Note_on_c, 0, 35, 77
3, 74890, Note_on_c, 0, 47, 77
3, 75032, Note_on_c, 0, 40, 0
3, 75032, Note_on_c, 0, 52, 0
3, 75370, Note_on_c, 0, 40, 77
3, 75370, Note_on_c, 0, 52, 77
3, 75512, Note_on_c, 0, 35, 0
3, 75512, Note_on_c, 0, 47, 0
3, 75835, Note_on_c, 0, 52, 0
3, 75850, Note_on_c, 0, 52, 62
3, 75850, Note_on_c, 0, 62, 88
3, 75992, Note_on_c, 0, 40, 0
3, 76260, Control_c, 0, 64, 0
3, 76330, Note_on_c, 0, 45, 77
3, 76365, Control_c, 0, 64, 127
3, 76427, Note_on_c, 0, 62, 0
3, 76472, Note_on_c, 0, 52, 0
3, 76810, Note_on_c, 0, 47, 77
3, 76952, Note_on_c, 0, 45, 0
3, 77290, Note_on_c, 0, 48, 77
3, 77432, Note_on_c, 0, 47, 0
3, 77722, Control_c, 0, 64, 0
3, 77770, Note_on_c, 0, 38, 66
3, 77790, Control_c, 0, 64, 127
3, 77912, Note_on_c, 0, 48, 0
3, 78392, Note_on_c, 0, 38, 0
3, 78570, Note_on_c, 0, 50, 66
3, 78730, Note_on_c, 0, 38, 66
3, 78872, Note_on_c, 0, 50, 0
3, 79050, Note_on_c, 0, 50, 66
3, 79191, Note_on_c, 0, 38, 0
3, 79210, Note_on_c, 0, 38, 66
3, 79352, Note_on_c, 0, 50, 0
3, 79832, Note_on_c, 0, 38, 0
3, 80010, Note_on_c, 0, 50, 66
3, 80170, Note_on_c, 0, 38, 66
3, 80312, Note_on_c, 0, 50, 0
3, 80490, Note_on_c, 0, 50, 66
3, 80625, Control_c, 0, 64, 0
3, 80631, Note_on_c, 0, 38, 0
3, 80650, Note_on_c, 0, 43, 77
3, 80677, Control_c, 0, 64, 127
3, 80792, Note_on_c, 0, 50, 0
3, 81130, Note_on_c, 0, 54, 77
3, 81272, Note_on_c, 0, 43, 0
3, 81610, Note_on_c, 0, 52, 77
3, 81610, Note_on_c, 0, 55, 77
3, 81752, Note_on_c, 0, 54, 0
3, 81982, Control_c, 0, 64, 0
3, 82090, Note_on_c, 0, 59, 77
3, 82125, Control_c, 0, 64, 127
3, 82232, Note_on_c, 0, 55, 0
3, 82232, Note_on_c, 0, 52, 0
3, 82570, Note_on_c, 0, 35, 77
3, 82570, Note_on_c, 0, 47, 77
3, 82712, Note_on_c, 0, 59, 0
3, 83010, Control_c, 0, 64, 0
3, 83050, Note_on_c, 0, 40, 77
3, 83050, Note_on_c, 0, 52, 77
3, 83077, Control_c, 0, 64, 127
3, 83192, Note_on_c, 0, 47, 0
3, 83192, Note_on_c, 0, 35, 0
3, 83482, Control_c, 0, 64, 0
3, 83530, Note_on_c, 0, 48, 74
3, 83530, Note_on_c, 0, 60, 74
3, 83542, Control_c, 0, 64, 127
3, 83672, Note_on_c, 0, 40, 0
3, 83672, Note_on_c, 0, 52, 0
3, 83770, Note_on_c, 0, 57, 77
3, 83912, Note_on_c, 0, 48, 0
3, 83912, Note_on_c, 0, 60, 0
3, 83955, Control_c, 0, 64, 0
3, 84010, Note_on_c, 0, 50, 81
3, 84010, Note_on_c, 0, 62, 81
3, 84045, Control_c, 0, 64, 127
3, 84152, Note_on_c, 0, 57, 0
3, 84250, Note_on_c, 0, 59, 85
3, 84392, Note_on_c, 0, 62, 0
3, 84392, Note_on_c, 0, 50, 0
3, 84490, Note_on_c, 0, 38, 73
3, 84490, Note_on_c, 0, 50, 73
3, 84632, Note_on_c, 0, 59, 0
3, 84915, Control_c, 0, 64, 0
3, 84970, Note_on_c, 0, 43, 71
3, 84990, Control_c, 0, 64, 127
3, 85112, Note_on_c, 0, 50, 0
3, 85112, Note_on_c, 0, 38, 0
3, 85592, Note_on_c, 0, 43, 0
3, 85882, Control_c, 0, 64, 0
3, 86410, Note_on_c, 0, 31, 65
3, 86410, Note_on_c, 0, 43, 65
3, 86467, Control_c, 0, 64, 127
3, 88307, Note_on_c, 0, 31, 0
3, 88315, Note_on_c, 0, 43, 0
3, 88330, Note_on_c, 0, 31, 73
3, 88330, Note_on_c, 0, 43, 83
3, 89220, Control_c, 0, 64, 0
3, 89290, Note_on_c, 0, 52, 61
3, 89310, Control_c, 0, 64, 127
3, 89432, Note_on_c, 0, 43, 0
3, 89432, Note_on_c, 0, 31, 0
3, 89610, Note_on_c, 0, 57, 77
3, 89717, Note_on_c, 0, 52, 0
3, 89770, Note_on_c, 0, 54, 71
3, 89878, Note_on_c, 0, 57, 0
3, 90250, Note_on_c, 0, 50, 64
3, 90415, Note_on_c, 0, 54, 0
3, 90570, Note_on_c, 0, 54, 61
3, 90675, Control_c, 0, 64, 0
3, 90677, Note_on_c, 0, 50, 0
3, 90730, Note_on_c, 0, 55, 63
3, 90765, Control_c, 0, 64, 127
3, 90838, Note_on_c, 0, 54, 0
3, 91187, Note_on_c, 0, 55, 0
3, 91210, Note_on_c, 0, 55, 56
3, 91597, Control_c, 0, 64, 0
3, 91690, Note_on_c, 0, 52, 56
3, 91725, Control_c, 0, 64, 127
3, 91832, Note_on_c, 0, 55, 0
3, 92130, Control_c, 0, 64, 0
3, 92170, Note_on_c, 0, 47, 56
3, 92190, Control_c, 0, 64, 127
3, 92312, Note_on_c, 0, 52, 0
3, 92650, Note_on_c, 0, 40, 56
3, 92650, Note_on_c, 0, 52, 56
3, 92792, Note_on_c, 0, 47, 0
3, 93115, Note_on_c, 0, 52, 0
3, 93130, Note_on_c, 0, 52, 56
3, 93130, Note_on_c, 0, 64, 56
3, 93272, Note_on_c, 0, 40, 0
3, 93610, Note_on_c, 0, 45, 61
3, 93752, Note_on_c, 0, 64, 0
3, 93752, Note_on_c, 0, 52, 0
3, 94090, Note_on_c, 0, 47, 56
3, 94232, Note_on_c, 0, 45, 0
3, 94570, Note_on_c, 0, 48, 56
3, 94712, Note_on_c, 0, 47, 0
3, 95050, Note_on_c, 0, 38, 58
3, 95050, Note_on_c, 0, 50, 58
3, 95188, Note_on_c, 0, 48, 0
3, 95530, Note_on_c, 0, 42, 56
3, 95530, Note_on_c, 0, 54, 56
3, 95668, Note_on_c, 0, 50, 0
3, 95668, Note_on_c, 0, 38, 0
3, 96010, Note_on_c, 0, 38, 56
3, 96010, Note_on_c, 0, 50, 56
3, 96148, Note_on_c, 0, 42, 0
3, 96148, Note_on_c, 0, 54, 0
3, 96490, Note_on_c, 0, 43, 59
3, 96628, Note_on_c, 0, 38, 0
3, 96628, Note_on_c, 0, 50, 0
3, 96970, Note_on_c, 0, 40, 56
3, 96970, Note_on_c, 0, 52, 56
3, 97108, Note_on_c, 0, 43, 0
3, 97450, Note_on_c, 0, 36, 56
3, 97450, Note_on_c, 0, 48, 56
3, 97588, Note_on_c, 0, 52, 0
3, 97588, Note_on_c, 0, 40, 0
3, 97930, Note_on_c, 0, 35, 61
3, 97930, Note_on_c, 0, 47, 61
3, 98068, Note_on_c, 0, 36, 0
3, 98068, Note_on_c, 0, 48, 0
3, 98410, Note_on_c, 0, 40, 56
3, 98410, Note_on_c, 0, 52, 56
3, 98548, Note_on_c, 0, 35, 0
3, 98548, Note_on_c, 0, 47, 0
3, 98890, Note_on_c, 0, 38, 56
3, 98890, Note_on_c, 0, 50, 56
3, 99028, Note_on_c, 0, 40, 0
3, 99028, Note_on_c, 0, 52, 0
3, 99370, Note_on_c, 0, 36, 57
3, 99370, Note_on_c, 0, 48, 57
3, 99508, Note_on_c, 0, 38, 0
3, 99508, Note_on_c, 0, 50, 0
3, 99850, Note_on_c, 0, 37, 52
3, 99850, Note_on_c, 0, 49, 54
3, 99988, Note_on_c, 0, 36, 0
3, 99988, Note_on_c, 0, 48, 0
3, 100330, Note_on_c, 0, 38, 48
3, 100330, Note_on_c, 0, 50, 55
3, 100468, Note_on_c, 0, 37, 0
3, 100468, Note_on_c, 0, 49, 0
3, 100810, Note_on_c, 0, 31, 52
3, 100820, Note_on_c, 0, 43, 46
3, 100837, Control_c, 0, 64, 127
3, 100948, Note_on_c, 0, 38, 0
3, 100948, Note_on_c, 0, 50, 0
3, 102697, Control_c, 0, 64, 0
3, 102730, Note_on_c, 0, 31, 0
3, 102758, Note_on_c, 0, 43, 0
3, 102758, End_track
4, 0, Start_track
4, 0, Title_t, "PIANO 2 r"
4, 0, Program_c, 0, 0
4, 0, Control_c, 0, 10, 50
4, 0, Control_c, 0, 91, 91
4, 0, Control_c, 0, 11, 110
4, 30, Control_c, 0, 64, 127
4, 30, Control_c, 0, 121, 0
4, 480, Note_on_c, 0, 62, 54
4, 480, Note_on_c, 0, 67, 62
4, 480, Note_on_c, 0, 71, 76
4, 800, Note_on_c, 0, 66, 68
4, 881, Note_on_c, 0, 71, 0
4, 881, Note_on_c, 0, 67, 0
4, 907, Control_c, 0, 64, 0
4, 960, Note_on_c, 0, 66, 0
4, 960, Note_on_c, 0, 64, 54
4, 960, Note_on_c, 0, 67, 62
4, 960, Note_on_c, 0, 72, 76
4, 967, Note_on_c, 0, 62, 0
4, 997, Control_c, 0, 64, 127
4, 1280, Note_on_c, 0, 69, 66
4, 1361, Note_on_c, 0, 72, 0
4, 1361, Note_on_c, 0, 67, 0
4, 1440, Note_on_c, 0, 69, 0
4, 1440, Note_on_c, 0, 62, 51
4, 1440, Note_on_c, 0, 71, 58
4, 1440, Note_on_c, 0, 74, 73
4, 1470, Note_on_c, 0, 64, 0
4, 1760, Note_on_c, 0, 69, 68
4, 1837, Note_on_c, 0, 74, 0
4, 1837, Note_on_c, 0, 71, 0
4, 1867, Control_c, 0, 64, 0
4, 1905, Note_on_c, 0, 62, 0
4, 1920, Note_on_c, 0, 69, 0
4, 1920, Note_on_c, 0, 64, 54
4, 1920, Note_on_c, 0, 67, 62
4, 1920, Note_on_c, 0, 71, 76
4, 1980, Control_c, 0, 64, 127
4, 2240, Note_on_c, 0, 67, 0
4, 2240, Note_on_c, 0, 67, 71
4, 2317, Note_on_c, 0, 71, 0
4, 2385, Note_on_c, 0, 64, 0
4, 2400, Note_on_c, 0, 67, 0
4, 2400, Note_on_c, 0, 55, 54
4, 2400, Note_on_c, 0, 59, 62
4, 2400, Note_on_c, 0, 64, 76
4, 2720, Note_on_c, 0, 62, 71
4, 2720, Note_on_c, 0, 71, 71
4, 2797, Note_on_c, 0, 64, 0
4, 2797, Note_on_c, 0, 59, 0
4, 2812, Control_c, 0, 64, 0
4, 2865, Note_on_c, 0, 55, 0
4, 2880, Note_on_c, 0, 71, 0
4, 2880, Note_on_c, 0, 62, 0
4, 2880, Note_on_c, 0, 60, 61
4, 2880, Note_on_c, 0, 64, 68
4, 2880, Note_on_c, 0, 69, 83
4, 2940, Control_c, 0, 64, 127
4, 3200, Note_on_c, 0, 66, 68
4, 3277, Note_on_c, 0, 69, 0
4, 3277, Note_on_c, 0, 64, 0
4, 3345, Note_on_c, 0, 60, 0
4, 3360, Note_on_c, 0, 66, 0
4, 3360, Note_on_c, 0, 55, 54
4, 3360, Note_on_c, 0, 62, 62
4, 3360, Note_on_c, 0, 67, 76
4, 3680, Note_on_c, 0, 62, 0
4, 3680, Note_on_c, 0, 62, 68
4, 3680, Note_on_c, 0, 71, 68
4, 3757, Note_on_c, 0, 67, 0
4, 3787, Control_c, 0, 64, 0
4, 3825, Note_on_c, 0, 55, 0
4, 3840, Note_on_c, 0, 62, 0
4, 3840, Note_on_c, 0, 71, 0
4, 3840, Note_on_c, 0, 60, 54
4, 3840, Note_on_c, 0, 64, 62
4, 3840, Note_on_c, 0, 69, 76
4, 3907, Control_c, 0, 64, 127
4, 4160, Note_on_c, 0, 67, 66
4, 4237, Note_on_c, 0, 69, 0
4, 4237, Note_on_c, 0, 64, 0
4, 4320, Note_on_c, 0, 67, 0
4, 4320, Note_on_c, 0, 66, 73
4, 4640, Note_on_c, 0, 62, 64
4, 4717, Note_on_c, 0, 66, 0
4, 4725, Control_c, 0, 64, 0
4, 4800, Note_on_c, 0, 62, 0
4, 4800, Note_on_c, 0, 57, 51
4, 4800, Note_on_c, 0, 69, 73
4, 4807, Note_on_c, 0, 60, 0
4, 4845, Control_c, 0, 64, 127
4, 5120, Note_on_c, 0, 67, 71
4, 5197, Note_on_c, 0, 69, 0
4, 5265, Note_on_c, 0, 57, 0
4, 5280, Note_on_c, 0, 67, 0
4, 5280, Note_on_c, 0, 62, 54
4, 5280, Note_on_c, 0, 69, 76
4, 5600, Note_on_c, 0, 66, 71
4, 5677, Note_on_c, 0, 69, 0
4, 5737, Control_c, 0, 64, 0
4, 5745, Note_on_c, 0, 62, 0
4, 5760, Note_on_c, 0, 66, 0
4, 5760, Note_on_c, 0, 62, 92
4, 5797, Control_c, 0, 64, 127
4, 5920, Note_on_c, 0, 67, 81
4, 6080, Note_on_c, 0, 69, 81
4, 6120, Note_on_c, 0, 62, 0
4, 6150, Note_on_c, 0, 67, 0
4, 6202, Control_c, 0, 64, 0
4, 6240, Note_on_c, 0, 67, 69
4, 6240, Note_on_c, 0, 71, 93
4, 6300, Control_c, 0, 64, 127
4, 6307, Note_on_c, 0, 69, 0
4, 6400, Note_on_c, 0, 74, 81
4, 6468, Note_on_c, 0, 71, 0
4, 6468, Note_on_c, 0, 67, 0
4, 6560, Note_on_c, 0, 72, 81
4, 6630, Note_on_c, 0, 74, 0
4, 6697, Note_on_c, 0, 72, 0
4, 6720, Note_on_c, 0, 64, 69
4, 6720, Note_on_c, 0, 72, 93
4, 6880, Note_on_c, 0, 76, 81
4, 6948, Note_on_c, 0, 64, 0
4, 6960, Note_on_c, 0, 72, 0
4, 7040, Note_on_c, 0, 74, 81
4, 7110, Note_on_c, 0, 76, 0
4, 7132, Control_c, 0, 64, 0
4, 7200, Note_on_c, 0, 74, 0
4, 7200, Note_on_c, 0, 71, 72
4, 7200, Note_on_c, 0, 74, 95
4, 7237, Control_c, 0, 64, 127
4, 7360, Note_on_c, 0, 79, 81
4, 7428, Note_on_c, 0, 74, 0
4, 7428, Note_on_c, 0, 71, 0
4, 7520, Note_on_c, 0, 78, 81
4, 7590, Note_on_c, 0, 79, 0
4, 7665, Control_c, 0, 64, 0
4, 7680, Note_on_c, 0, 67, 67
4, 7680, Note_on_c, 0, 79, 91
4, 7710, Control_c, 0, 64, 127
4, 7747, Note_on_c, 0, 78, 0
4, 7840, Note_on_c, 0, 74, 81
4, 7908, Note_on_c, 0, 79, 0
4, 7908, Note_on_c, 0, 67, 0
4, 8000, Note_on_c, 0, 71, 81
4, 8070, Note_on_c, 0, 74, 0
4, 8160, Note_on_c, 0, 67, 93
4, 8227, Note_on_c, 0, 71, 0
4, 8320, Note_on_c, 0, 69, 81
4, 8388, Note_on_c, 0, 67, 0
4, 8480, Note_on_c, 0, 71, 81
4, 8550, Note_on_c, 0, 69, 0
4, 8610, Control_c, 0, 64, 0
4, 8640, Note_on_c, 0, 64, 91
4, 8655, Control_c, 0, 64, 127
4, 8707, Note_on_c, 0, 71, 0
4, 8800, Note_on_c, 0, 74, 81
4, 8868, Note_on_c, 0, 64, 0
4, 8960, Note_on_c, 0, 72, 81
4, 9030, Note_on_c, 0, 74, 0
4, 9120, Note_on_c, 0, 64, 69
4, 9120, Note_on_c, 0, 71, 93
4, 9165, Control_c, 0, 64, 0
4, 9187, Note_on_c, 0, 72, 0
4, 9217, Control_c, 0, 64, 127
4, 9280, Note_on_c, 0, 69, 81
4, 9348, Note_on_c, 0, 71, 0
4, 9348, Note_on_c, 0, 64, 0
4, 9440, Note_on_c, 0, 67, 81
4, 9510, Note_on_c, 0, 69, 0
4, 9600, Note_on_c, 0, 62, 88
4, 9667, Note_on_c, 0, 67, 0
4, 9760, Note_on_c, 0, 67, 81
4, 9828, Note_on_c, 0, 62, 0
4, 9920, Note_on_c, 0, 66, 81
4, 9990, Note_on_c, 0, 67, 0
4, 10020, Control_c, 0, 64, 0
4, 10080, Note_on_c, 0, 67, 91
4, 10102, Control_c, 0, 64, 127
4, 10147, Note_on_c, 0, 66, 0
4, 10240, Note_on_c, 0, 71, 87
4, 10308, Note_on_c, 0, 67, 0
4, 10400, Note_on_c, 0, 74, 85
4, 10470, Note_on_c, 0, 71, 0
4, 10560, Note_on_c, 0, 79, 91
4, 10627, Note_on_c, 0, 74, 0
4, 10720, Note_on_c, 0, 74, 82
4, 10788, Note_on_c, 0, 79, 0
4, 10880, Note_on_c, 0, 71, 84
4, 10950, Note_on_c, 0, 74, 0
4, 10972, Control_c, 0, 64, 0
4, 11040, Note_on_c, 0, 67, 98
4, 11107, Note_on_c, 0, 71, 0
4, 11200, Note_on_c, 0, 71, 86
4, 11268, Note_on_c, 0, 67, 0
4, 11360, Note_on_c, 0, 74, 91
4, 11430, Note_on_c, 0, 71, 0
4, 11520, Note_on_c, 0, 67, 82
4, 11520, Note_on_c, 0, 79, 82
4, 11565, Control_c, 0, 64, 127
4, 11587, Note_on_c, 0, 74, 0
4, 12000, Note_on_c, 0, 79, 0
4, 12480, Note_on_c, 0, 67, 0
4, 12480, Note_on_c, 0, 64, 90
4, 12480, Note_on_c, 0, 67, 90
4, 12480, Note_on_c, 0, 72, 90
4, 12907, Control_c, 0, 64, 0
4, 12960, Note_on_c, 0, 72, 0
4, 12960, Note_on_c, 0, 67, 0
4, 12960, Note_on_c, 0, 64, 0
4, 12960, Note_on_c, 0, 69, 59
4, 12960, Note_on_c, 0, 74, 98
4, 12997, Control_c, 0, 64, 127
4, 13440, Note_on_c, 0, 67, 74
4, 13897, Control_c, 0, 64, 0
4, 13908, Note_on_c, 0, 74, 0
4, 13920, Note_on_c, 0, 67, 0
4, 13920, Note_on_c, 0, 66, 93
4, 13920, Note_on_c, 0, 74, 93
4, 13927, Note_on_c, 0, 69, 0
4, 13942, Control_c, 0, 64, 127
4, 14347, Control_c, 0, 64, 0
4, 14400, Note_on_c, 0, 74, 0
4, 14400, Note_on_c, 0, 66, 0
4, 14400, Note_on_c, 0, 67, 59
4, 14400, Note_on_c, 0, 72, 98
4, 14430, Control_c, 0, 64, 127
4, 14857, Control_c, 0, 64, 0
4, 14880, Note_on_c, 0, 67, 0
4, 14880, Note_on_c, 0, 62, 74
4, 14917, Control_c, 0, 64, 127
4, 15360, Note_on_c, 0, 72, 0
4, 15360, Note_on_c, 0, 71, 91
4, 15802, Control_c, 0, 64, 0
4, 15825, Note_on_c, 0, 62, 0
4, 15840, Note_on_c, 0, 71, 0
4, 15840, Note_on_c, 0, 62, 61
4, 15840, Note_on_c, 0, 66, 61
4, 15840, Note_on_c, 0, 69, 98
4, 15877, Control_c, 0, 64, 127
4, 16312, Note_on_c, 0, 69, 0
4, 16312, Note_on_c, 0, 62, 0
4, 16320, Note_on_c, 0, 66, 0
4, 16320, Note_on_c, 0, 62, 96
4, 16320, Note_on_c, 0, 69, 96
4, 16640, Note_on_c, 0, 69, 0
4, 16640, Note_on_c, 0, 62, 0
4, 16640, Note_on_c, 0, 57, 67
4, 16640, Note_on_c, 0, 64, 67
4, 16747, Control_c, 0, 64, 0
4, 16800, Note_on_c, 0, 64, 0
4, 16800, Note_on_c, 0, 57, 0
4, 16800, Note_on_c, 0, 62, 84
4, 16800, Note_on_c, 0, 66, 84
4, 16830, Control_c, 0, 64, 127
4, 17107, Note_on_c, 0, 62, 0
4, 17120, Note_on_c, 0, 66, 0
4, 17120, Note_on_c, 0, 62, 67
4, 17120, Note_on_c, 0, 67, 67
4, 17257, Control_c, 0, 64, 0
4, 17280, Note_on_c, 0, 67, 0
4, 17280, Note_on_c, 0, 62, 0
4, 17280, Note_on_c, 0, 66, 80
4, 17280, Note_on_c, 0, 69, 80
4, 17310, Control_c, 0, 64, 127
4, 17600, Note_on_c, 0, 69, 0
4, 17600, Note_on_c, 0, 66, 0
4, 17600, Note_on_c, 0, 69, 67
4, 17600, Note_on_c, 0, 72, 67
4, 17760, Note_on_c, 0, 72, 0
4, 17760, Note_on_c, 0, 69, 0
4, 17760, Note_on_c, 0, 66, 84
4, 17760, Note_on_c, 0, 69, 84
4, 18060, Note_on_c, 0, 66, 0
4, 18080, Note_on_c, 0, 69, 0
4, 18080, Note_on_c, 0, 62, 67
4, 18080, Note_on_c, 0, 66, 67
4, 18180, Control_c, 0, 64, 0
4, 18228, Note_on_c, 0, 62, 0
4, 18240, Note_on_c, 0, 66, 0
4, 18240, Note_on_c, 0, 57, 80
4, 18240, Note_on_c, 0, 62, 80
4, 18262, Control_c, 0, 64, 127
4, 18547, Note_on_c, 0, 62, 0
4, 18560, Note_on_c, 0, 57, 0
4, 18560, Note_on_c, 0, 62, 67
4, 18560, Note_on_c, 0, 66, 67
4, 18690, Control_c, 0, 64, 0
4, 18720, Note_on_c, 0, 66, 0
4, 18720, Note_on_c, 0, 62, 0
4, 18720, Note_on_c, 0, 59, 84
4, 18772, Control_c, 0, 64, 127
4, 18880, Note_on_c, 0, 59, 0
4, 18880, Note_on_c, 0, 67, 77
4, 19040, Note_on_c, 0, 69, 77
4, 19128, Note_on_c, 0, 67, 0
4, 19200, Note_on_c, 0, 62, 91
4, 19200, Note_on_c, 0, 71, 91
4, 19290, Note_on_c, 0, 69, 0
4, 19360, Note_on_c, 0, 74, 77
4, 19432, Control_c, 0, 64, 0
4, 19447, Note_on_c, 0, 71, 0
4, 19447, Note_on_c, 0, 62, 0
4, 19507, Control_c, 0, 64, 127
4, 19520, Note_on_c, 0, 72, 77
4, 19608, Note_on_c, 0, 74, 0
4, 19680, Note_on_c, 0, 72, 0
4, 19680, Note_on_c, 0, 67, 91
4, 19680, Note_on_c, 0, 72, 91
4, 19840, Note_on_c, 0, 76, 77
4, 19927, Note_on_c, 0, 72, 0
4, 19927, Note_on_c, 0, 67, 0
4, 20000, Note_on_c, 0, 74, 77
4, 20088, Note_on_c, 0, 76, 0
4, 20137, Control_c, 0, 64, 0
4, 20160, Note_on_c, 0, 74, 0
4, 20160, Note_on_c, 0, 67, 95
4, 20160, Note_on_c, 0, 74, 95
4, 20205, Control_c, 0, 64, 127
4, 20320, Note_on_c, 0, 79, 77
4, 20407, Note_on_c, 0, 74, 0
4, 20407, Note_on_c, 0, 67, 0
4, 20480, Note_on_c, 0, 78, 77
4, 20568, Note_on_c, 0, 79, 0
4, 20617, Control_c, 0, 64, 0
4, 20640, Note_on_c, 0, 79, 91
4, 20715, Control_c, 0, 64, 127
4, 20730, Note_on_c, 0, 78, 0
4, 20800, Note_on_c, 0, 74, 77
4, 20887, Note_on_c, 0, 79, 0
4, 20960, Note_on_c, 0, 71, 77
4, 21048, Note_on_c, 0, 74, 0
4, 21120, Note_on_c, 0, 67, 88
4, 21210, Note_on_c, 0, 71, 0
4, 21280, Note_on_c, 0, 69, 77
4, 21367, Note_on_c, 0, 67, 0
4, 21440, Note_on_c, 0, 71, 77
4, 21528, Note_on_c, 0, 69, 0
4, 21585, Control_c, 0, 64, 0
4, 21600, Note_on_c, 0, 64, 85
4, 21637, Control_c, 0, 64, 127
4, 21690, Note_on_c, 0, 71, 0
4, 21760, Note_on_c, 0, 74, 77
4, 21847, Note_on_c, 0, 64, 0
4, 21920, Note_on_c, 0, 72, 77
4, 22008, Note_on_c, 0, 74, 0
4, 22080, Note_on_c, 0, 71, 91
4, 22170, Note_on_c, 0, 72, 0
4, 22170, Control_c, 0, 64, 0
4, 22240, Note_on_c, 0, 69, 77
4, 22327, Note_on_c, 0, 71, 0
4, 22400, Note_on_c, 0, 67, 77
4, 22488, Note_on_c, 0, 69, 0
4, 22560, Control_c, 0, 64, 127
4, 22560, Note_on_c, 0, 60, 91
4, 22560, Note_on_c, 0, 62, 77
4, 22650, Note_on_c, 0, 67, 0
4, 22720, Note_on_c, 0, 67, 77
4, 22800, Note_on_c, 0, 57, 84
4, 22807, Note_on_c, 0, 62, 0
4, 22880, Note_on_c, 0, 66, 77
4, 22905, Note_on_c, 0, 60, 0
4, 22968, Note_on_c, 0, 67, 0
4, 23002, Control_c, 0, 64, 0
4, 23040, Note_on_c, 0, 59, 72
4, 23040, Note_on_c, 0, 67, 72
4, 23062, Control_c, 0, 64, 127
4, 23115, Note_on_c, 0, 57, 0
4, 23130, Note_on_c, 0, 66, 0
4, 23482, Control_c, 0, 64, 0
4, 23520, Note_on_c, 0, 59, 0
4, 23520, Note_on_c, 0, 67, 0
4, 23520, Note_on_c, 0, 62, 71
4, 23520, Note_on_c, 0, 67, 71
4, 23520, Note_on_c, 0, 71, 82
4, 23565, Control_c, 0, 64, 127
4, 23840, Note_on_c, 0, 71, 0
4, 23840, Note_on_c, 0, 67, 0
4, 23840, Note_on_c, 0, 62, 0
4, 23840, Note_on_c, 0, 66, 65
4, 24000, Note_on_c, 0, 66, 0
4, 24000, Note_on_c, 0, 64, 63
4, 24000, Note_on_c, 0, 67, 63
4, 24000, Note_on_c, 0, 72, 74
4, 24320, Note_on_c, 0, 72, 0
4, 24320, Note_on_c, 0, 67, 0
4, 24320, Note_on_c, 0, 64, 0
4, 24320, Note_on_c, 0, 69, 65
4, 24442, Control_c, 0, 64, 0
4, 24480, Note_on_c, 0, 69, 0
4, 24480, Note_on_c, 0, 62, 66
4, 24480, Note_on_c, 0, 71, 66
4, 24480, Note_on_c, 0, 74, 77
4, 24570, Control_c, 0, 64, 127
4, 24800, Note_on_c, 0, 74, 0
4, 24800, Note_on_c, 0, 71, 0
4, 24800, Note_on_c, 0, 62, 0
4, 24800, Note_on_c, 0, 69, 65
4, 24960, Note_on_c, 0, 69, 0
4, 24960, Note_on_c, 0, 64, 66
4, 24960, Note_on_c, 0, 67, 66
4, 24960, Note_on_c, 0, 71, 77
4, 25260, Note_on_c, 0, 67, 0
4, 25280, Note_on_c, 0, 71, 0
4, 25280, Note_on_c, 0, 64, 0
4, 25280, Note_on_c, 0, 67, 65
4, 25402, Control_c, 0, 64, 0
4, 25440, Note_on_c, 0, 67, 0
4, 25440, Note_on_c, 0, 55, 61
4, 25440, Note_on_c, 0, 59, 61
4, 25440, Note_on_c, 0, 64, 72
4, 25485, Control_c, 0, 64, 127
4, 25760, Note_on_c, 0, 64, 0
4, 25760, Note_on_c, 0, 59, 0
4, 25760, Note_on_c, 0, 55, 0
4, 25760, Note_on_c, 0, 62, 65
4, 25760, Note_on_c, 0, 71, 65
4, 25897, Control_c, 0, 64, 0
4, 25920, Note_on_c, 0, 71, 0
4, 25920, Note_on_c, 0, 62, 0
4, 25920, Note_on_c, 0, 60, 66
4, 25920, Note_on_c, 0, 64, 66
4, 25920, Note_on_c, 0, 69, 77
4, 25965, Control_c, 0, 64, 127
4, 26240, Note_on_c, 0, 69, 0
4, 26240, Note_on_c, 0, 64, 0
4, 26240, Note_on_c, 0, 60, 0
4, 26240, Note_on_c, 0, 66, 65
4, 26370, Control_c, 0, 64, 0
4, 26400, Note_on_c, 0, 66, 0
4, 26400, Note_on_c, 0, 55, 66
4, 26400, Note_on_c, 0, 62, 66
4, 26400, Note_on_c, 0, 67, 77
4, 26452, Control_c, 0, 64, 127
4, 26720, Note_on_c, 0, 67, 0
4, 26720, Note_on_c, 0, 62, 0
4, 26720, Note_on_c, 0, 55, 0
4, 26720, Note_on_c, 0, 62, 65
4, 26720, Note_on_c, 0, 71, 65
4, 26880, Note_on_c, 0, 71, 0
4, 26880, Note_on_c, 0, 62, 0
4, 26880, Note_on_c, 0, 60, 66
4, 26880, Note_on_c, 0, 64, 66
4, 26880, Note_on_c, 0, 69, 77
4, 27200, Note_on_c, 0, 69, 0
4, 27200, Note_on_c, 0, 64, 0
4, 27200, Note_on_c, 0, 60, 0
4, 27200, Note_on_c, 0, 59, 65
4, 27200, Note_on_c, 0, 67, 65
4, 27360, Note_on_c, 0, 67, 0
4, 27360, Note_on_c, 0, 59, 0
4, 27360, Note_on_c, 0, 60, 68
4, 27360, Note_on_c, 0, 66, 80
4, 27525, Control_c, 0, 64, 0
4, 27680, Note_on_c, 0, 66, 0
4, 27680, Note_on_c, 0, 60, 0
4, 27680, Note_on_c, 0, 62, 65
4, 27840, Note_on_c, 0, 62, 0
4, 27840, Note_on_c, 0, 57, 66
4, 27840, Note_on_c, 0, 69, 77
4, 27855, Control_c, 0, 64, 127
4, 28160, Note_on_c, 0, 69, 0
4, 28160, Note_on_c, 0, 57, 0
4, 28160, Note_on_c, 0, 67, 65
4, 28282, Control_c, 0, 64, 0
4, 28320, Note_on_c, 0, 67, 0
4, 28320, Note_on_c, 0, 62, 66
4, 28320, Note_on_c, 0, 69, 77
4, 28350, Control_c, 0, 64, 127
4, 28640, Note_on_c, 0, 69, 0
4, 28640, Note_on_c, 0, 62, 0
4, 28640, Note_on_c, 0, 66, 65
4, 28800, Note_on_c, 0, 66, 0
4, 28800, Note_on_c, 0, 62, 90
4, 28807, Control_c, 0, 64, 0
4, 28845, Control_c, 0, 64, 127
4, 28960, Note_on_c, 0, 62, 0
4, 28960, Note_on_c, 0, 67, 83
4, 29120, Note_on_c, 0, 69, 85
4, 29178, Note_on_c, 0, 67, 0
4, 29280, Note_on_c, 0, 67, 61
4, 29280, Note_on_c, 0, 71, 91
4, 29302, Control_c, 0, 64, 0
4, 29340, Note_on_c, 0, 69, 0
4, 29370, Control_c, 0, 64, 127
4, 29440, Note_on_c, 0, 74, 81
4, 29497, Note_on_c, 0, 71, 0
4, 29497, Note_on_c, 0, 67, 0
4, 29600, Note_on_c, 0, 72, 81
4, 29658, Note_on_c, 0, 74, 0
4, 29737, Note_on_c, 0, 72, 0
4, 29760, Note_on_c, 0, 64, 63
4, 29760, Note_on_c, 0, 72, 93
4, 29920, Note_on_c, 0, 76, 81
4, 29977, Note_on_c, 0, 72, 0
4, 29988, Note_on_c, 0, 64, 0
4, 30080, Note_on_c, 0, 74, 81
4, 30138, Note_on_c, 0, 76, 0
4, 30172, Control_c, 0, 64, 0
4, 30228, Note_on_c, 0, 74, 0
4, 30240, Note_on_c, 0, 71, 61
4, 30240, Note_on_c, 0, 74, 91
4, 30277, Control_c, 0, 64, 127
4, 30400, Note_on_c, 0, 79, 81
4, 30457, Note_on_c, 0, 74, 0
4, 30457, Note_on_c, 0, 71, 0
4, 30560, Note_on_c, 0, 78, 81
4, 30618, Note_on_c, 0, 79, 0
4, 30645, Control_c, 0, 64, 0
4, 30720, Control_c, 0, 64, 127
4, 30720, Note_on_c, 0, 67, 58
4, 30720, Note_on_c, 0, 79, 88
4, 30780, Note_on_c, 0, 78, 0
4, 30880, Note_on_c, 0, 74, 81
4, 30937, Note_on_c, 0, 79, 0
4, 30937, Note_on_c, 0, 67, 0
4, 31040, Note_on_c, 0, 71, 81
4, 31098, Note_on_c, 0, 74, 0
4, 31177, Control_c, 0, 64, 0
4, 31200, Note_on_c, 0, 67, 93
4, 31252, Control_c, 0, 64, 127
4, 31260, Note_on_c, 0, 71, 0
4, 31360, Note_on_c, 0, 69, 81
4, 31417, Note_on_c, 0, 67, 0
4, 31520, Note_on_c, 0, 71, 81
4, 31578, Note_on_c, 0, 69, 0
4, 31657, Control_c, 0, 64, 0
4, 31680, Note_on_c, 0, 64, 91
4, 31725, Control_c, 0, 64, 127
4, 31740, Note_on_c, 0, 71, 0
4, 31840, Note_on_c, 0, 74, 81
4, 31897, Note_on_c, 0, 64, 0
4, 32000, Note_on_c, 0, 72, 81
4, 32058, Note_on_c, 0, 74, 0
4, 32160, Note_on_c, 0, 64, 63
4, 32160, Note_on_c, 0, 71, 93
4, 32175, Control_c, 0, 64, 0
4, 32212, Control_c, 0, 64, 127
4, 32220, Note_on_c, 0, 72, 0
4, 32320, Note_on_c, 0, 69, 81
4, 32377, Note_on_c, 0, 71, 0
4, 32377, Note_on_c, 0, 64, 0
4, 32480, Note_on_c, 0, 67, 81
4, 32538, Note_on_c, 0, 69, 0
4, 32610, Control_c, 0, 64, 0
4, 32640, Note_on_c, 0, 62, 91
4, 32692, Control_c, 0, 64, 127
4, 32700, Note_on_c, 0, 67, 0
4, 32800, Note_on_c, 0, 67, 81
4, 32857, Note_on_c, 0, 62, 0
4, 32960, Note_on_c, 0, 66, 81
4, 33018, Note_on_c, 0, 67, 0
4, 33097, Control_c, 0, 64, 0
4, 33120, Note_on_c, 0, 62, 49
4, 33120, Note_on_c, 0, 67, 49
4, 33120, Note_on_c, 0, 71, 96
4, 33157, Control_c, 0, 64, 127
4, 33180, Note_on_c, 0, 66, 0
4, 33712, Control_c, 0, 64, 0
4, 33765, Control_c, 0, 64, 127
4, 34068, Note_on_c, 0, 67, 0
4, 34072, Control_c, 0, 64, 0
4, 34080, Note_on_c, 0, 62, 0
4, 34080, Note_on_c, 0, 67, 49
4, 34080, Note_on_c, 0, 72, 96
4, 34147, Control_c, 0, 64, 127
4, 34308, Note_on_c, 0, 71, 0
4, 34545, Control_c, 0, 64, 0
4, 34560, Note_on_c, 0, 67, 0
4, 34560, Note_on_c, 0, 69, 63
4, 34560, Note_on_c, 0, 74, 97
4, 34650, Control_c, 0, 64, 127
4, 34860, Note_on_c, 0, 72, 0
4, 35025, Control_c, 0, 64, 0
4, 35040, Note_on_c, 0, 69, 0
4, 35040, Note_on_c, 0, 67, 76
4, 35107, Control_c, 0, 64, 127
4, 35460, Control_c, 0, 64, 0
4, 35490, Note_on_c, 0, 74, 0
4, 35520, Note_on_c, 0, 67, 0
4, 35520, Note_on_c, 0, 66, 68
4, 35520, Note_on_c, 0, 74, 97
4, 35535, Control_c, 0, 64, 127
4, 35955, Control_c, 0, 64, 0
4, 36000, Note_on_c, 0, 66, 0
4, 36000, Note_on_c, 0, 67, 71
4, 36000, Note_on_c, 0, 72, 97
4, 36030, Control_c, 0, 64, 127
4, 36258, Note_on_c, 0, 74, 0
4, 36450, Control_c, 0, 64, 0
4, 36480, Note_on_c, 0, 67, 0
4, 36480, Note_on_c, 0, 62, 69
4, 36517, Control_c, 0, 64, 127
4, 36922, Control_c, 0, 64, 0
4, 36960, Note_on_c, 0, 71, 95
4, 37035, Control_c, 0, 64, 127
4, 37110, Note_on_c, 0, 72, 0
4, 37380, Control_c, 0, 64, 0
4, 37398, Note_on_c, 0, 62, 0
4, 37440, Control_c, 0, 64, 127
4, 37440, Note_on_c, 0, 62, 40
4, 37440, Note_on_c, 0, 66, 47
4, 37440, Note_on_c, 0, 69, 82
4, 37638, Note_on_c, 0, 71, 0
4, 37860, Control_c, 0, 64, 0
4, 37897, Note_on_c, 0, 69, 0
4, 37908, Note_on_c, 0, 66, 0
4, 37908, Note_on_c, 0, 62, 0
4, 37920, Note_on_c, 0, 62, 48
4, 37920, Note_on_c, 0, 66, 44
4, 37920, Note_on_c, 0, 69, 85
4, 37965, Control_c, 0, 64, 127
4, 38240, Note_on_c, 0, 69, 0
4, 38240, Note_on_c, 0, 66, 0
4, 38240, Note_on_c, 0, 62, 0
4, 38240, Note_on_c, 0, 57, 59
4, 38240, Note_on_c, 0, 64, 54
4, 38400, Note_on_c, 0, 64, 0
4, 38400, Note_on_c, 0, 57, 0
4, 38400, Note_on_c, 0, 62, 72
4, 38400, Note_on_c, 0, 66, 72
4, 38707, Note_on_c, 0, 62, 0
4, 38720, Note_on_c, 0, 66, 0
4, 38720, Note_on_c, 0, 62, 65
4, 38720, Note_on_c, 0, 67, 65
4, 38835, Control_c, 0, 64, 0
4, 38880, Note_on_c, 0, 67, 0
4, 38880, Note_on_c, 0, 62, 0
4, 38880, Note_on_c, 0, 66, 78
4, 38880, Note_on_c, 0, 69, 78
4, 38917, Control_c, 0, 64, 127
4, 39187, Note_on_c, 0, 69, 0
4, 39200, Note_on_c, 0, 66, 0
4, 39200, Note_on_c, 0, 69, 76
4, 39200, Note_on_c, 0, 72, 76
4, 39348, Note_on_c, 0, 69, 0
4, 39360, Note_on_c, 0, 72, 0
4, 39360, Note_on_c, 0, 66, 83
4, 39360, Note_on_c, 0, 69, 83
4, 39510, Control_c, 0, 64, 0
4, 39667, Note_on_c, 0, 66, 0
4, 39680, Note_on_c, 0, 69, 0
4, 39680, Note_on_c, 0, 62, 74
4, 39680, Note_on_c, 0, 66, 74
4, 39810, Control_c, 0, 64, 127
4, 39817, Note_on_c, 0, 62, 0
4, 39840, Note_on_c, 0, 66, 0
4, 39840, Note_on_c, 0, 57, 85
4, 39840, Note_on_c, 0, 62, 88
4, 40140, Note_on_c, 0, 62, 0
4, 40160, Note_on_c, 0, 57, 0
4, 40160, Note_on_c, 0, 62, 66
4, 40160, Note_on_c, 0, 66, 66
4, 40275, Control_c, 0, 64, 0
4, 40320, Note_on_c, 0, 66, 0
4, 40320, Note_on_c, 0, 62, 0
4, 40320, Note_on_c, 0, 59, 87
4, 40372, Control_c, 0, 64, 127
4, 40480, Note_on_c, 0, 71, 83
4, 40567, Note_on_c, 0, 59, 0
4, 40640, Note_on_c, 0, 69, 87
4, 40728, Note_on_c, 0, 71, 0
4, 40800, Note_on_c, 0, 62, 73
4, 40800, Note_on_c, 0, 71, 93
4, 40890, Note_on_c, 0, 69, 0
4, 40912, Control_c, 0, 64, 0
4, 40957, Control_c, 0, 64, 127
4, 40960, Note_on_c, 0, 74, 85
4, 41047, Note_on_c, 0, 71, 0
4, 41047, Note_on_c, 0, 62, 0
4, 41120, Note_on_c, 0, 72, 78
4, 41208, Note_on_c, 0, 74, 0
4, 41268, Note_on_c, 0, 72, 0
4, 41280, Note_on_c, 0, 67, 66
4, 41280, Note_on_c, 0, 72, 86
4, 41317, Control_c, 0, 64, 0
4, 41377, Control_c, 0, 64, 127
4, 41440, Note_on_c, 0, 76, 77
4, 41527, Note_on_c, 0, 72, 0
4, 41527, Note_on_c, 0, 67, 0
4, 41600, Note_on_c, 0, 74, 76
4, 41688, Note_on_c, 0, 76, 0
4, 41760, Note_on_c, 0, 74, 0
4, 41760, Note_on_c, 0, 67, 84
4, 41760, Note_on_c, 0, 74, 93
4, 41767, Control_c, 0, 64, 0
4, 41812, Control_c, 0, 64, 127
4, 41920, Note_on_c, 0, 79, 94
4, 42007, Note_on_c, 0, 74, 0
4, 42007, Note_on_c, 0, 67, 0
4, 42080, Note_on_c, 0, 78, 93
4, 42168, Note_on_c, 0, 79, 0
4, 42240, Note_on_c, 0, 79, 94
4, 42330, Note_on_c, 0, 78, 0
4, 42400, Note_on_c, 0, 74, 85
4, 42487, Note_on_c, 0, 79, 0
4, 42560, Note_on_c, 0, 71, 77
4, 42648, Note_on_c, 0, 74, 0
4, 42712, Control_c, 0, 64, 0
4, 42720, Note_on_c, 0, 67, 92
4, 42757, Control_c, 0, 64, 127
4, 42810, Note_on_c, 0, 71, 0
4, 42880, Note_on_c, 0, 69, 80
4, 42967, Note_on_c, 0, 67, 0
4, 43040, Note_on_c, 0, 71, 80
4, 43128, Note_on_c, 0, 69, 0
4, 43140, Control_c, 0, 64, 0
4, 43200, Note_on_c, 0, 64, 78
4, 43252, Control_c, 0, 64, 127
4, 43290, Note_on_c, 0, 71, 0
4, 43360, Note_on_c, 0, 74, 75
4, 43447, Note_on_c, 0, 64, 0
4, 43520, Note_on_c, 0, 72, 69
4, 43608, Note_on_c, 0, 74, 0
4, 43680, Note_on_c, 0, 71, 83
4, 43770, Note_on_c, 0, 72, 0
4, 43840, Note_on_c, 0, 69, 78
4, 43927, Note_on_c, 0, 71, 0
4, 44000, Note_on_c, 0, 67, 82
4, 44088, Note_on_c, 0, 69, 0
4, 44130, Control_c, 0, 64, 0
4, 44160, Note_on_c, 0, 60, 62
4, 44160, Note_on_c, 0, 62, 71
4, 44197, Control_c, 0, 64, 127
4, 44250, Note_on_c, 0, 67, 0
4, 44320, Note_on_c, 0, 67, 72
4, 44400, Note_on_c, 0, 57, 64
4, 44407, Note_on_c, 0, 62, 0
4, 44430, Note_on_c, 0, 60, 0
4, 44480, Note_on_c, 0, 66, 74
4, 44568, Note_on_c, 0, 67, 0
4, 44617, Control_c, 0, 64, 0
4, 44640, Note_on_c, 0, 59, 71
4, 44640, Note_on_c, 0, 67, 75
4, 44662, Control_c, 0, 64, 127
4, 44730, Note_on_c, 0, 66, 0
4, 44730, Note_on_c, 0, 57, 0
4, 45097, Note_on_c, 0, 67, 0
4, 45120, Note_on_c, 0, 59, 0
4, 45120, Note_on_c, 0, 62, 71
4, 45120, Note_on_c, 0, 67, 78
4, 45120, Note_on_c, 0, 71, 78
4, 45440, Note_on_c, 0, 66, 68
4, 45510, Note_on_c, 0, 71, 0
4, 45510, Note_on_c, 0, 67, 0
4, 45547, Control_c, 0, 64, 0
4, 45600, Note_on_c, 0, 66, 0
4, 45600, Note_on_c, 0, 64, 71
4, 45600, Note_on_c, 0, 67, 78
4, 45600, Note_on_c, 0, 72, 78
4, 45637, Control_c, 0, 64, 127
4, 45690, Note_on_c, 0, 62, 0
4, 45920, Note_on_c, 0, 69, 73
4, 45990, Note_on_c, 0, 72, 0
4, 45990, Note_on_c, 0, 67, 0
4, 46050, Control_c, 0, 64, 0
4, 46080, Note_on_c, 0, 69, 0
4, 46080, Note_on_c, 0, 62, 71
4, 46080, Note_on_c, 0, 71, 78
4, 46080, Note_on_c, 0, 74, 78
4, 46095, Control_c, 0, 64, 127
4, 46140, Note_on_c, 0, 64, 0
4, 46400, Note_on_c, 0, 69, 66
4, 46470, Note_on_c, 0, 74, 0
4, 46470, Note_on_c, 0, 71, 0
4, 46530, Control_c, 0, 64, 0
4, 46560, Note_on_c, 0, 69, 0
4, 46560, Note_on_c, 0, 64, 64
4, 46560, Note_on_c, 0, 67, 72
4, 46560, Note_on_c, 0, 71, 72
4, 46582, Control_c, 0, 64, 127
4, 46605, Note_on_c, 0, 62, 0
4, 46867, Note_on_c, 0, 67, 0
4, 46880, Note_on_c, 0, 67, 66
4, 46950, Note_on_c, 0, 71, 0
4, 47040, Note_on_c, 0, 67, 0
4, 47040, Note_on_c, 0, 64, 0
4, 47040, Note_on_c, 0, 55, 68
4, 47040, Note_on_c, 0, 59, 76
4, 47040, Note_on_c, 0, 64, 76
4, 47360, Note_on_c, 0, 62, 64
4, 47360, Note_on_c, 0, 71, 64
4, 47430, Note_on_c, 0, 64, 0
4, 47430, Note_on_c, 0, 59, 0
4, 47490, Control_c, 0, 64, 0
4, 47520, Note_on_c, 0, 71, 0
4, 47520, Note_on_c, 0, 62, 0
4, 47520, Note_on_c, 0, 60, 68
4, 47520, Note_on_c, 0, 64, 76
4, 47520, Note_on_c, 0, 69, 76
4, 47542, Control_c, 0, 64, 127
4, 47565, Note_on_c, 0, 55, 0
4, 47840, Note_on_c, 0, 66, 68
4, 47910, Note_on_c, 0, 69, 0
4, 47910, Note_on_c, 0, 64, 0
4, 47985, Control_c, 0, 64, 0
4, 48000, Note_on_c, 0, 66, 0
4, 48000, Note_on_c, 0, 55, 71
4, 48000, Note_on_c, 0, 62, 78
4, 48000, Note_on_c, 0, 67, 78
4, 48030, Control_c, 0, 64, 127
4, 48075, Note_on_c, 0, 60, 0
4, 48307, Note_on_c, 0, 62, 0
4, 48320, Note_on_c, 0, 62, 71
4, 48320, Note_on_c, 0, 71, 71
4, 48390, Note_on_c, 0, 67, 0
4, 48435, Control_c, 0, 64, 0
4, 48480, Note_on_c, 0, 71, 0
4, 48480, Note_on_c, 0, 62, 0
4, 48480, Note_on_c, 0, 60, 68
4, 48480, Note_on_c, 0, 64, 76
4, 48480, Note_on_c, 0, 69, 76
4, 48510, Control_c, 0, 64, 127
4, 48570, Note_on_c, 0, 55, 0
4, 48800, Note_on_c, 0, 59, 73
4, 48800, Note_on_c, 0, 67, 73
4, 48870, Note_on_c, 0, 69, 0
4, 48870, Note_on_c, 0, 64, 0
4, 48915, Control_c, 0, 64, 0
4, 48930, Note_on_c, 0, 60, 0
4, 48960, Note_on_c, 0, 67, 0
4, 48960, Note_on_c, 0, 59, 0
4, 48960, Note_on_c, 0, 60, 71
4, 48960, Note_on_c, 0, 66, 78
4, 49012, Control_c, 0, 64, 127
4, 49280, Note_on_c, 0, 62, 68
4, 49350, Note_on_c, 0, 66, 0
4, 49440, Note_on_c, 0, 62, 0
4, 49440, Note_on_c, 0, 57, 73
4, 49440, Note_on_c, 0, 69, 73
4, 49500, Note_on_c, 0, 60, 0
4, 49560, Control_c, 0, 64, 0
4, 49760, Note_on_c, 0, 69, 0
4, 49760, Note_on_c, 0, 57, 0
4, 49760, Note_on_c, 0, 67, 66
4, 49890, Control_c, 0, 64, 127
4, 49920, Note_on_c, 0, 67, 0
4, 49920, Note_on_c, 0, 62, 71
4, 49920, Note_on_c, 0, 69, 71
4, 50240, Note_on_c, 0, 69, 0
4, 50240, Note_on_c, 0, 62, 0
4, 50240, Note_on_c, 0, 66, 63
4, 50385, Control_c, 0, 64, 0
4, 50400, Note_on_c, 0, 66, 0
4, 50400, Note_on_c, 0, 62, 73
4, 50437, Control_c, 0, 64, 127
4, 50560, Note_on_c, 0, 67, 69
4, 50640, Note_on_c, 0, 62, 0
4, 50720, Note_on_c, 0, 69, 74
4, 50801, Note_on_c, 0, 67, 0
4, 50835, Control_c, 0, 64, 0
4, 50880, Note_on_c, 0, 67, 83
4, 50880, Note_on_c, 0, 71, 83
4, 50902, Control_c, 0, 64, 127
4, 50962, Note_on_c, 0, 69, 0
4, 51040, Note_on_c, 0, 74, 74
4, 51120, Note_on_c, 0, 71, 0
4, 51120, Note_on_c, 0, 67, 0
4, 51200, Note_on_c, 0, 72, 72
4, 51281, Note_on_c, 0, 74, 0
4, 51330, Control_c, 0, 64, 0
4, 51348, Note_on_c, 0, 72, 0
4, 51360, Note_on_c, 0, 64, 84
4, 51360, Note_on_c, 0, 72, 84
4, 51397, Control_c, 0, 64, 127
4, 51520, Note_on_c, 0, 76, 77
4, 51600, Note_on_c, 0, 72, 0
4, 51600, Note_on_c, 0, 64, 0
4, 51680, Note_on_c, 0, 74, 77
4, 51761, Note_on_c, 0, 76, 0
4, 51817, Note_on_c, 0, 74, 0
4, 51817, Control_c, 0, 64, 0
4, 51840, Note_on_c, 0, 71, 86
4, 51840, Note_on_c, 0, 74, 86
4, 51877, Control_c, 0, 64, 127
4, 52000, Note_on_c, 0, 79, 80
4, 52080, Note_on_c, 0, 74, 0
4, 52080, Note_on_c, 0, 71, 0
4, 52160, Note_on_c, 0, 78, 80
4, 52241, Note_on_c, 0, 79, 0
4, 52290, Control_c, 0, 64, 0
4, 52320, Note_on_c, 0, 67, 83
4, 52320, Note_on_c, 0, 79, 87
4, 52342, Control_c, 0, 64, 127
4, 52402, Note_on_c, 0, 78, 0
4, 52480, Note_on_c, 0, 74, 76
4, 52560, Note_on_c, 0, 79, 0
4, 52560, Note_on_c, 0, 67, 0
4, 52640, Note_on_c, 0, 71, 73
4, 52721, Note_on_c, 0, 74, 0
4, 52762, Control_c, 0, 64, 0
4, 52800, Note_on_c, 0, 67, 86
4, 52815, Control_c, 0, 64, 127
4, 52882, Note_on_c, 0, 71, 0
4, 52960, Note_on_c, 0, 69, 76
4, 53040, Note_on_c, 0, 67, 0
4, 53120, Note_on_c, 0, 71, 73
4, 53201, Note_on_c, 0, 69, 0
4, 53250, Control_c, 0, 64, 0
4, 53280, Note_on_c, 0, 64, 82
4, 53302, Control_c, 0, 64, 127
4, 53362, Note_on_c, 0, 71, 0
4, 53440, Note_on_c, 0, 74, 75
4, 53520, Note_on_c, 0, 64, 0
4, 53600, Note_on_c, 0, 72, 69
4, 53681, Note_on_c, 0, 74, 0
4, 53692, Control_c, 0, 64, 0
4, 53760, Note_on_c, 0, 64, 77
4, 53760, Note_on_c, 0, 71, 77
4, 53782, Control_c, 0, 64, 127
4, 53842, Note_on_c, 0, 72, 0
4, 53920, Note_on_c, 0, 69, 61
4, 54000, Note_on_c, 0, 71, 0
4, 54000, Note_on_c, 0, 64, 0
4, 54080, Note_on_c, 0, 67, 61
4, 54161, Note_on_c, 0, 69, 0
4, 54202, Control_c, 0, 64, 0
4, 54240, Note_on_c, 0, 62, 75
4, 54307, Control_c, 0, 64, 127
4, 54322, Note_on_c, 0, 67, 0
4, 54400, Note_on_c, 0, 67, 61
4, 54480, Note_on_c, 0, 62, 0
4, 54560, Note_on_c, 0, 66, 61
4, 54641, Note_on_c, 0, 67, 0
4, 54705, Control_c, 0, 64, 0
4, 54720, Note_on_c, 0, 67, 73
4, 54757, Control_c, 0, 64, 127
4, 54798, Note_on_c, 0, 66, 0
4, 54880, Note_on_c, 0, 71, 66
4, 54960, Note_on_c, 0, 67, 0
4, 55040, Note_on_c, 0, 74, 71
4, 55117, Note_on_c, 0, 71, 0
4, 55200, Control_c, 0, 64, 0
4, 55200, Note_on_c, 0, 79, 77
4, 55278, Note_on_c, 0, 74, 0
4, 55360, Note_on_c, 0, 74, 81
4, 55440, Note_on_c, 0, 79, 0
4, 55520, Note_on_c, 0, 71, 83
4, 55597, Note_on_c, 0, 74, 0
4, 55680, Note_on_c, 0, 67, 84
4, 55758, Note_on_c, 0, 71, 0
4, 55840, Note_on_c, 0, 71, 80
4, 55920, Note_on_c, 0, 67, 0
4, 56000, Note_on_c, 0, 73, 82
4, 56077, Note_on_c, 0, 71, 0
4, 56160, Note_on_c, 0, 66, 93
4, 56160, Note_on_c, 0, 74, 93
4, 56167, Control_c, 0, 64, 127
4, 56238, Note_on_c, 0, 73, 0
4, 56320, Note_on_c, 0, 62, 75
4, 56400, Note_on_c, 0, 74, 0
4, 56400, Note_on_c, 0, 66, 0
4, 56480, Note_on_c, 0, 64, 75
4, 56557, Note_on_c, 0, 62, 0
4, 56610, Control_c, 0, 64, 0
4, 56640, Note_on_c, 0, 62, 72
4, 56640, Note_on_c, 0, 66, 83
4, 56677, Control_c, 0, 64, 127
4, 56718, Note_on_c, 0, 64, 0
4, 56800, Note_on_c, 0, 69, 75
4, 56880, Note_on_c, 0, 66, 0
4, 56880, Note_on_c, 0, 62, 0
4, 56960, Note_on_c, 0, 68, 75
4, 57037, Note_on_c, 0, 69, 0
4, 57045, Control_c, 0, 64, 0
4, 57108, Note_on_c, 0, 68, 0
4, 57120, Note_on_c, 0, 62, 76
4, 57120, Note_on_c, 0, 68, 87
4, 57127, Control_c, 0, 64, 127
4, 57280, Note_on_c, 0, 71, 86
4, 57360, Note_on_c, 0, 68, 0
4, 57360, Note_on_c, 0, 62, 0
4, 57440, Note_on_c, 0, 69, 86
4, 57517, Note_on_c, 0, 71, 0
4, 57555, Control_c, 0, 64, 0
4, 57577, Note_on_c, 0, 69, 0
4, 57600, Note_on_c, 0, 60, 92
4, 57600, Note_on_c, 0, 64, 76
4, 57600, Note_on_c, 0, 69, 87
4, 57622, Control_c, 0, 64, 127
4, 57760, Note_on_c, 0, 72, 84
4, 57840, Note_on_c, 0, 69, 0
4, 57840, Note_on_c, 0, 60, 0
4, 57840, Note_on_c, 0, 64, 0
4, 57920, Note_on_c, 0, 71, 86
4, 57997, Note_on_c, 0, 72, 0
4, 58057, Control_c, 0, 64, 0
4, 58080, Note_on_c, 0, 72, 90
4, 58117, Control_c, 0, 64, 127
4, 58158, Note_on_c, 0, 71, 0
4, 58240, Note_on_c, 0, 69, 84
4, 58320, Note_on_c, 0, 72, 0
4, 58400, Note_on_c, 0, 64, 84
4, 58477, Note_on_c, 0, 69, 0
4, 58545, Control_c, 0, 64, 0
4, 58560, Note_on_c, 0, 60, 93
4, 58605, Control_c, 0, 64, 127
4, 58638, Note_on_c, 0, 64, 0
4, 58720, Note_on_c, 0, 62, 86
4, 58800, Note_on_c, 0, 60, 0
4, 58880, Note_on_c, 0, 64, 86
4, 58957, Note_on_c, 0, 62, 0
4, 58995, Control_c, 0, 64, 0
4, 59040, Note_on_c, 0, 65, 90
4, 59062, Control_c, 0, 64, 127
4, 59118, Note_on_c, 0, 64, 0
4, 59200, Note_on_c, 0, 74, 84
4, 59280, Note_on_c, 0, 65, 0
4, 59360, Note_on_c, 0, 72, 84
4, 59437, Note_on_c, 0, 74, 0
4, 59460, Control_c, 0, 64, 0
4, 59520, Note_on_c, 0, 74, 92
4, 59542, Control_c, 0, 64, 127
4, 59598, Note_on_c, 0, 72, 0
4, 59680, Note_on_c, 0, 71, 84
4, 59760, Note_on_c, 0, 74, 0
4, 59840, Note_on_c, 0, 68, 88
4, 59917, Note_on_c, 0, 71, 0
4, 59962, Control_c, 0, 64, 0
4, 60000, Note_on_c, 0, 64, 90
4, 60030, Control_c, 0, 64, 127
4, 60078, Note_on_c, 0, 68, 0
4, 60160, Note_on_c, 0, 66, 84
4, 60240, Note_on_c, 0, 64, 0
4, 60320, Note_on_c, 0, 68, 75
4, 60397, Note_on_c, 0, 66, 0
4, 60435, Control_c, 0, 64, 0
4, 60480, Note_on_c, 0, 60, 75
4, 60480, Note_on_c, 0, 64, 75
4, 60480, Note_on_c, 0, 69, 75
4, 60510, Control_c, 0, 64, 127
4, 60558, Note_on_c, 0, 68, 0
4, 60800, Note_on_c, 0, 60, 0
4, 60800, Note_on_c, 0, 64, 0
4, 60800, Note_on_c, 0, 69, 0
4, 60800, Note_on_c, 0, 64, 63
4, 60930, Control_c, 0, 64, 0
4, 60960, Note_on_c, 0, 64, 0
4, 60960, Note_on_c, 0, 60, 75
4, 60960, Note_on_c, 0, 69, 75
4, 60990, Control_c, 0, 64, 127
4, 61280, Note_on_c, 0, 69, 0
4, 61280, Note_on_c, 0, 60, 0
4, 61280, Note_on_c, 0, 68, 65
4, 61410, Control_c, 0, 64, 0
4, 61440, Note_on_c, 0, 68, 0
4, 61440, Note_on_c, 0, 65, 75
4, 61440, Note_on_c, 0, 69, 75
4, 61492, Control_c, 0, 64, 127
4, 61760, Note_on_c, 0, 69, 0
4, 61760, Note_on_c, 0, 65, 0
4, 61760, Note_on_c, 0, 71, 66
4, 61890, Control_c, 0, 64, 0
4, 61920, Note_on_c, 0, 71, 0
4, 61920, Note_on_c, 0, 64, 80
4, 61920, Note_on_c, 0, 69, 80
4, 61920, Note_on_c, 0, 72, 80
4, 61957, Control_c, 0, 64, 127
4, 62240, Note_on_c, 0, 72, 0
4, 62240, Note_on_c, 0, 71, 67
4, 62370, Control_c, 0, 64, 0
4, 62400, Note_on_c, 0, 71, 0
4, 62400, Note_on_c, 0, 60, 80
4, 62400, Note_on_c, 0, 65, 80
4, 62400, Note_on_c, 0, 72, 80
4, 62418, Note_on_c, 0, 69, 0
4, 62430, Note_on_c, 0, 64, 0
4, 62430, Control_c, 0, 64, 127
4, 62720, Note_on_c, 0, 72, 0
4, 62720, Note_on_c, 0, 69, 68
4, 62838, Note_on_c, 0, 65, 0
4, 62850, Control_c, 0, 64, 0
4, 62857, Note_on_c, 0, 60, 0
4, 62880, Note_on_c, 0, 69, 0
4, 62880, Note_on_c, 0, 60, 80
4, 62880, Note_on_c, 0, 65, 80
4, 62902, Control_c, 0, 64, 127
4, 63200, Note_on_c, 0, 65, 0
4, 63200, Note_on_c, 0, 69, 69
4, 63315, Control_c, 0, 64, 0
4, 63360, Note_on_c, 0, 69, 0
4, 63360, Note_on_c, 0, 62, 82
4, 63360, Note_on_c, 0, 65, 82
4, 63360, Note_on_c, 0, 74, 82
4, 63375, Control_c, 0, 64, 127
4, 63397, Note_on_c, 0, 60, 0
4, 63680, Note_on_c, 0, 74, 0
4, 63680, Note_on_c, 0, 68, 72
4, 63810, Control_c, 0, 64, 0
4, 63840, Note_on_c, 0, 68, 0
4, 63840, Note_on_c, 0, 60, 84
4, 63840, Note_on_c, 0, 69, 84
4, 63847, Control_c, 0, 64, 127
4, 63870, Note_on_c, 0, 65, 0
4, 63870, Note_on_c, 0, 62, 0
4, 64160, Note_on_c, 0, 69, 0
4, 64160, Note_on_c, 0, 66, 73
4, 64282, Control_c, 0, 64, 0
4, 64320, Note_on_c, 0, 66, 0
4, 64320, Note_on_c, 0, 59, 87
4, 64320, Note_on_c, 0, 64, 87
4, 64350, Note_on_c, 0, 60, 0
4, 64365, Control_c, 0, 64, 127
4, 64640, Note_on_c, 0, 64, 0
4, 64640, Note_on_c, 0, 62, 74
4, 64732, Control_c, 0, 64, 0
4, 64800, Note_on_c, 0, 62, 0
4, 64800, Note_on_c, 0, 59, 0
4, 64800, Note_on_c, 0, 60, 82
4, 64800, Note_on_c, 0, 64, 82
4, 64822, Control_c, 0, 64, 127
4, 64960, Note_on_c, 0, 64, 0
4, 64960, Note_on_c, 0, 60, 0
4, 64960, Note_on_c, 0, 72, 85
4, 65120, Note_on_c, 0, 72, 0
4, 65120, Note_on_c, 0, 76, 87
4, 65235, Control_c, 0, 64, 0
4, 65280, Note_on_c, 0, 76, 0
4, 65280, Note_on_c, 0, 69, 82
4, 65280, Note_on_c, 0, 72, 82
4, 65280, Note_on_c, 0, 81, 94
4, 65310, Control_c, 0, 64, 127
4, 65760, Note_on_c, 0, 81, 0
4, 65760, Note_on_c, 0, 72, 0
4, 65760, Note_on_c, 0, 69, 0
4, 65947, Control_c, 0, 64, 0
4, 66400, Note_on_c, 0, 72, 94
4, 66560, Note_on_c, 0, 74, 94
4, 66660, Note_on_c, 0, 72, 0
4, 66720, Note_on_c, 0, 72, 92
4, 66720, Note_on_c, 0, 76, 103
4, 66765, Control_c, 0, 64, 127
4, 66817, Note_on_c, 0, 74, 0
4, 66880, Note_on_c, 0, 79, 94
4, 66978, Note_on_c, 0, 76, 0
4, 66978, Note_on_c, 0, 72, 0
4, 67040, Note_on_c, 0, 77, 94
4, 67140, Note_on_c, 0, 79, 0
4, 67155, Control_c, 0, 64, 0
4, 67200, Note_on_c, 0, 72, 95
4, 67200, Note_on_c, 0, 79, 106
4, 67237, Control_c, 0, 64, 127
4, 67297, Note_on_c, 0, 77, 0
4, 67360, Note_on_c, 0, 82, 94
4, 67458, Note_on_c, 0, 79, 0
4, 67458, Note_on_c, 0, 72, 0
4, 67520, Note_on_c, 0, 81, 94
4, 67620, Note_on_c, 0, 82, 0
4, 67620, Control_c, 0, 64, 0
4, 67670, Note_on_c, 0, 81, 0
4, 67680, Note_on_c, 0, 72, 97
4, 67680, Note_on_c, 0, 77, 97
4, 67680, Note_on_c, 0, 81, 109
4, 67710, Control_c, 0, 64, 127
4, 67840, Note_on_c, 0, 84, 94
4, 67938, Note_on_c, 0, 81, 0
4, 67938, Note_on_c, 0, 72, 0
4, 67938, Note_on_c, 0, 77, 0
4, 68000, Note_on_c, 0, 79, 83
4, 68000, Note_on_c, 0, 83, 94
4, 68100, Note_on_c, 0, 84, 0
4, 68107, Control_c, 0, 64, 0
4, 68160, Note_on_c, 0, 81, 95
4, 68160, Note_on_c, 0, 84, 106
4, 68190, Control_c, 0, 64, 127
4, 68257, Note_on_c, 0, 83, 0
4, 68257, Note_on_c, 0, 79, 0
4, 68310, Note_on_c, 0, 81, 0
4, 68320, Note_on_c, 0, 81, 94
4, 68418, Note_on_c, 0, 84, 0
4, 68480, Note_on_c, 0, 74, 94
4, 68480, Note_on_c, 0, 77, 94
4, 68580, Note_on_c, 0, 81, 0
4, 68627, Note_on_c, 0, 74, 0
4, 68640, Note_on_c, 0, 71, 90
4, 68640, Note_on_c, 0, 74, 101
4, 68677, Control_c, 0, 64, 0
4, 68737, Note_on_c, 0, 77, 0
4, 68800, Note_on_c, 0, 76, 94
4, 68898, Note_on_c, 0, 74, 0
4, 68898, Note_on_c, 0, 71, 0
4, 68917, Control_c, 0, 64, 127
4, 68960, Note_on_c, 0, 74, 83
4, 68960, Note_on_c, 0, 77, 94
4, 69060, Note_on_c, 0, 76, 0
4, 69120, Note_on_c, 0, 67, 90
4, 69120, Note_on_c, 0, 72, 90
4, 69120, Note_on_c, 0, 76, 90
4, 69217, Note_on_c, 0, 77, 0
4, 69217, Note_on_c, 0, 74, 0
4, 69440, Note_on_c, 0, 72, 0
4, 69440, Note_on_c, 0, 67, 0
4, 69440, Note_on_c, 0, 76, 0
4, 69440, Note_on_c, 0, 67, 91
4, 69532, Control_c, 0, 64, 0
4, 69600, Note_on_c, 0, 67, 0
4, 69600, Control_c, 0, 64, 127
4, 69600, Note_on_c, 0, 60, 97
4, 69600, Note_on_c, 0, 72, 97
4, 69920, Note_on_c, 0, 72, 0
4, 69920, Note_on_c, 0, 60, 0
4, 69920, Note_on_c, 0, 67, 86
4, 70005, Control_c, 0, 64, 0
4, 70080, Note_on_c, 0, 67, 0
4, 70080, Note_on_c, 0, 64, 97
4, 70102, Control_c, 0, 64, 127
4, 70400, Note_on_c, 0, 64, 0
4, 70400, Note_on_c, 0, 62, 86
4, 70522, Control_c, 0, 64, 0
4, 70560, Note_on_c, 0, 62, 0
4, 70560, Note_on_c, 0, 57, 97
4, 70560, Note_on_c, 0, 60, 97
4, 70590, Control_c, 0, 64, 127
4, 70880, Note_on_c, 0, 60, 0
4, 70880, Note_on_c, 0, 57, 0
4, 70880, Note_on_c, 0, 64, 82
4, 71010, Control_c, 0, 64, 0
4, 71040, Note_on_c, 0, 64, 0
4, 71040, Note_on_c, 0, 57, 93
4, 71040, Note_on_c, 0, 65, 93
4, 71092, Control_c, 0, 64, 127
4, 71360, Note_on_c, 0, 65, 0
4, 71360, Note_on_c, 0, 57, 0
4, 71360, Note_on_c, 0, 69, 77
4, 71520, Note_on_c, 0, 69, 0
4, 71520, Note_on_c, 0, 67, 88
4, 71520, Note_on_c, 0, 71, 88
4, 71535, Control_c, 0, 64, 0
4, 71587, Control_c, 0, 64, 127
4, 71840, Note_on_c, 0, 71, 0
4, 71840, Note_on_c, 0, 67, 0
4, 71840, Note_on_c, 0, 74, 75
4, 71977, Control_c, 0, 64, 0
4, 72000, Note_on_c, 0, 74, 0
4, 72000, Note_on_c, 0, 64, 84
4, 72000, Note_on_c, 0, 72, 84
4, 72030, Control_c, 0, 64, 127
4, 72320, Note_on_c, 0, 72, 0
4, 72320, Note_on_c, 0, 64, 0
4, 72320, Note_on_c, 0, 67, 67
4, 72480, Note_on_c, 0, 67, 0
4, 72480, Note_on_c, 0, 72, 80
4, 72720, Control_c, 0, 64, 0
4, 72787, Control_c, 0, 64, 127
4, 72800, Note_on_c, 0, 72, 0
4, 72800, Note_on_c, 0, 62, 63
4, 72800, Note_on_c, 0, 69, 63
4, 72956, Note_on_c, 0, 62, 0
4, 72960, Note_on_c, 0, 69, 0
4, 72960, Note_on_c, 0, 62, 75
4, 72960, Note_on_c, 0, 74, 75
4, 73267, Note_on_c, 0, 62, 0
4, 73280, Note_on_c, 0, 74, 0
4, 73280, Note_on_c, 0, 62, 63
4, 73280, Note_on_c, 0, 66, 63
4, 73357, Control_c, 0, 64, 0
4, 73440, Note_on_c, 0, 66, 0
4, 73440, Note_on_c, 0, 62, 0
4, 73440, Note_on_c, 0, 59, 73
4, 73440, Note_on_c, 0, 67, 73
4, 73462, Control_c, 0, 64, 127
4, 73600, Note_on_c, 0, 67, 0
4, 73600, Note_on_c, 0, 59, 0
4, 73600, Note_on_c, 0, 67, 69
4, 73760, Note_on_c, 0, 69, 69
4, 73852, Note_on_c, 0, 67, 0
4, 73890, Control_c, 0, 64, 0
4, 73920, Note_on_c, 0, 62, 71
4, 73920, Note_on_c, 0, 71, 82
4, 73957, Control_c, 0, 64, 127
4, 74010, Note_on_c, 0, 69, 0
4, 74080, Note_on_c, 0, 74, 73
4, 74171, Note_on_c, 0, 71, 0
4, 74171, Note_on_c, 0, 62, 0
4, 74240, Note_on_c, 0, 72, 73
4, 74332, Note_on_c, 0, 74, 0
4, 74377, Control_c, 0, 64, 0
4, 74400, Note_on_c, 0, 72, 0
4, 74400, Note_on_c, 0, 67, 77
4, 74400, Note_on_c, 0, 72, 88
4, 74445, Control_c, 0, 64, 127
4, 74560, Note_on_c, 0, 76, 73
4, 74651, Note_on_c, 0, 72, 0
4, 74651, Note_on_c, 0, 67, 0
4, 74720, Note_on_c, 0, 74, 73
4, 74812, Note_on_c, 0, 76, 0
4, 74835, Control_c, 0, 64, 0
4, 74880, Note_on_c, 0, 74, 0
4, 74880, Note_on_c, 0, 67, 75
4, 74880, Note_on_c, 0, 74, 91
4, 74910, Control_c, 0, 64, 127
4, 75040, Note_on_c, 0, 79, 77
4, 75127, Note_on_c, 0, 74, 0
4, 75127, Note_on_c, 0, 67, 0
4, 75200, Note_on_c, 0, 78, 77
4, 75288, Note_on_c, 0, 79, 0
4, 75337, Control_c, 0, 64, 0
4, 75360, Note_on_c, 0, 79, 88
4, 75420, Control_c, 0, 64, 127
4, 75450, Note_on_c, 0, 78, 0
4, 75520, Note_on_c, 0, 74, 77
4, 75607, Note_on_c, 0, 79, 0
4, 75680, Note_on_c, 0, 71, 73
4, 75768, Note_on_c, 0, 74, 0
4, 75810, Control_c, 0, 64, 0
4, 75840, Note_on_c, 0, 67, 86
4, 75870, Control_c, 0, 64, 127
4, 75930, Note_on_c, 0, 71, 0
4, 76000, Note_on_c, 0, 69, 73
4, 76087, Note_on_c, 0, 67, 0
4, 76160, Note_on_c, 0, 71, 73
4, 76248, Note_on_c, 0, 69, 0
4, 76290, Control_c, 0, 64, 0
4, 76320, Note_on_c, 0, 64, 73
4, 76320, Note_on_c, 0, 72, 84
4, 76357, Control_c, 0, 64, 127
4, 76410, Note_on_c, 0, 71, 0
4, 76480, Note_on_c, 0, 74, 73
4, 76567, Note_on_c, 0, 72, 0
4, 76567, Note_on_c, 0, 64, 0
4, 76640, Note_on_c, 0, 76, 73
4, 76728, Note_on_c, 0, 74, 0
4, 76777, Control_c, 0, 64, 0
4, 76800, Note_on_c, 0, 67, 77
4, 76800, Note_on_c, 0, 74, 88
4, 76837, Control_c, 0, 64, 127
4, 76890, Note_on_c, 0, 76, 0
4, 76960, Note_on_c, 0, 72, 73
4, 77047, Note_on_c, 0, 74, 0
4, 77047, Note_on_c, 0, 67, 0
4, 77120, Note_on_c, 0, 71, 73
4, 77208, Note_on_c, 0, 72, 0
4, 77250, Control_c, 0, 64, 0
4, 77280, Note_on_c, 0, 60, 82
4, 77280, Note_on_c, 0, 64, 71
4, 77280, Note_on_c, 0, 69, 82
4, 77325, Control_c, 0, 64, 127
4, 77370, Note_on_c, 0, 71, 0
4, 77440, Note_on_c, 0, 71, 73
4, 77527, Note_on_c, 0, 69, 0
4, 77527, Note_on_c, 0, 64, 0
4, 77600, Note_on_c, 0, 67, 73
4, 77688, Note_on_c, 0, 71, 0
4, 77730, Control_c, 0, 64, 0
4, 77760, Note_on_c, 0, 66, 82
4, 77782, Control_c, 0, 64, 127
4, 77850, Note_on_c, 0, 67, 0
4, 77920, Note_on_c, 0, 62, 73
4, 78007, Note_on_c, 0, 66, 0
4, 78080, Note_on_c, 0, 61, 64
4, 78080, Note_on_c, 0, 64, 75
4, 78168, Note_on_c, 0, 62, 0
4, 78240, Note_on_c, 0, 62, 74
4, 78240, Note_on_c, 0, 66, 85
4, 78247, Note_on_c, 0, 60, 0
4, 78330, Note_on_c, 0, 64, 0
4, 78330, Note_on_c, 0, 61, 0
4, 78397, Control_c, 0, 64, 0
4, 78400, Note_on_c, 0, 69, 82
4, 78487, Note_on_c, 0, 62, 0
4, 78487, Note_on_c, 0, 66, 0
4, 78525, Control_c, 0, 64, 127
4, 78560, Note_on_c, 0, 67, 85
4, 78648, Note_on_c, 0, 69, 0
4, 78720, Note_on_c, 0, 62, 77
4, 78720, Note_on_c, 0, 69, 88
4, 78810, Note_on_c, 0, 67, 0
4, 78880, Note_on_c, 0, 72, 86
4, 78967, Note_on_c, 0, 69, 0
4, 78967, Note_on_c, 0, 62, 0
4, 79040, Note_on_c, 0, 71, 88
4, 79128, Note_on_c, 0, 72, 0
4, 79200, Note_on_c, 0, 62, 86
4, 79200, Note_on_c, 0, 72, 97
4, 79290, Note_on_c, 0, 71, 0
4, 79360, Note_on_c, 0, 69, 93
4, 79440, Control_c, 0, 64, 0
4, 79447, Note_on_c, 0, 72, 0
4, 79447, Note_on_c, 0, 62, 0
4, 79520, Note_on_c, 0, 66, 88
4, 79522, Control_c, 0, 64, 127
4, 79608, Note_on_c, 0, 69, 0
4, 79680, Note_on_c, 0, 62, 83
4, 79770, Note_on_c, 0, 66, 0
4, 79840, Note_on_c, 0, 66, 86
4, 79927, Note_on_c, 0, 62, 0
4, 79957, Control_c, 0, 64, 0
4, 80000, Note_on_c, 0, 69, 83
4, 80017, Control_c, 0, 64, 127
4, 80088, Note_on_c, 0, 66, 0
4, 80160, Note_on_c, 0, 66, 85
4, 80160, Note_on_c, 0, 72, 85
4, 80250, Note_on_c, 0, 69, 0
4, 80320, Note_on_c, 0, 71, 74
4, 80407, Note_on_c, 0, 72, 0
4, 80407, Note_on_c, 0, 66, 0
4, 80480, Note_on_c, 0, 69, 71
4, 80568, Note_on_c, 0, 71, 0
4, 80595, Control_c, 0, 64, 0
4, 80640, Note_on_c, 0, 67, 75
4, 80640, Note_on_c, 0, 71, 75
4, 80655, Note_on_c, 0, 59, 96
4, 80677, Control_c, 0, 64, 127
4, 80730, Note_on_c, 0, 69, 0
4, 80960, Note_on_c, 0, 67, 0
4, 80960, Note_on_c, 0, 71, 0
4, 80960, Note_on_c, 0, 62, 62
4, 81120, Note_on_c, 0, 62, 0
4, 81120, Note_on_c, 0, 67, 73
4, 81440, Note_on_c, 0, 67, 0
4, 81440, Note_on_c, 0, 66, 62
4, 81540, Control_c, 0, 64, 0
4, 81600, Note_on_c, 0, 66, 0
4, 81600, Note_on_c, 0, 67, 71
4, 81615, Note_on_c, 0, 60, 96
4, 81652, Control_c, 0, 64, 127
4, 81682, Note_on_c, 0, 59, 0
4, 81920, Note_on_c, 0, 67, 0
4, 81920, Note_on_c, 0, 69, 62
4, 82042, Control_c, 0, 64, 0
4, 82080, Note_on_c, 0, 69, 0
4, 82080, Note_on_c, 0, 71, 77
4, 82095, Note_on_c, 0, 62, 96
4, 82110, Control_c, 0, 64, 127
4, 82162, Note_on_c, 0, 60, 0
4, 82400, Note_on_c, 0, 71, 0
4, 82400, Note_on_c, 0, 69, 62
4, 82560, Note_on_c, 0, 69, 0
4, 82560, Note_on_c, 0, 67, 80
4, 82880, Note_on_c, 0, 67, 0
4, 82880, Note_on_c, 0, 66, 62
4, 83010, Control_c, 0, 64, 0
4, 83040, Note_on_c, 0, 66, 0
4, 83040, Note_on_c, 0, 64, 73
4, 83055, Note_on_c, 0, 59, 96
4, 83100, Control_c, 0, 64, 127
4, 83115, Note_on_c, 0, 62, 0
4, 83360, Note_on_c, 0, 64, 0
4, 83360, Note_on_c, 0, 67, 62
4, 83520, Note_on_c, 0, 67, 0
4, 83520, Note_on_c, 0, 64, 73
4, 83520, Note_on_c, 0, 69, 73
4, 83595, Note_on_c, 0, 59, 0
4, 83820, Control_c, 0, 64, 0
4, 83840, Note_on_c, 0, 69, 0
4, 83840, Note_on_c, 0, 64, 0
4, 83840, Note_on_c, 0, 67, 62
4, 84000, Note_on_c, 0, 67, 0
4, 84000, Note_on_c, 0, 66, 73
4, 84015, Note_on_c, 0, 59, 96
4, 84030, Control_c, 0, 64, 127
4, 84320, Note_on_c, 0, 66, 0
4, 84320, Note_on_c, 0, 67, 62
4, 84480, Note_on_c, 0, 67, 0
4, 84480, Note_on_c, 0, 57, 96
4, 84480, Note_on_c, 0, 69, 71
4, 84633, Note_on_c, 0, 59, 0
4, 84800, Note_on_c, 0, 69, 0
4, 84800, Note_on_c, 0, 60, 62
4, 84930, Control_c, 0, 64, 0
4, 84960, Note_on_c, 0, 60, 0
4, 84960, Note_on_c, 0, 59, 77
4, 84975, Note_on_c, 0, 55, 102
4, 84997, Note_on_c, 0, 57, 0
4, 84997, Control_c, 0, 64, 127
4, 85120, Note_on_c, 0, 59, 0
4, 85120, Note_on_c, 0, 71, 68
4, 85280, Note_on_c, 0, 74, 68
4, 85350, Note_on_c, 0, 71, 0
4, 85440, Note_on_c, 0, 79, 77
4, 85507, Note_on_c, 0, 74, 0
4, 85552, Note_on_c, 0, 55, 0
4, 85600, Note_on_c, 0, 74, 68
4, 85668, Note_on_c, 0, 79, 0
4, 85760, Note_on_c, 0, 67, 69
4, 85760, Note_on_c, 0, 71, 68
4, 85830, Note_on_c, 0, 74, 0
4, 85913, Note_on_c, 0, 67, 0
4, 85920, Note_on_c, 0, 62, 75
4, 85920, Note_on_c, 0, 67, 75
4, 85987, Note_on_c, 0, 71, 0
4, 86080, Note_on_c, 0, 71, 68
4, 86148, Note_on_c, 0, 67, 0
4, 86240, Note_on_c, 0, 67, 68
4, 86240, Note_on_c, 0, 74, 68
4, 86287, Note_on_c, 0, 62, 0
4, 86310, Note_on_c, 0, 71, 0
4, 86370, Control_c, 0, 64, 0
4, 86400, Note_on_c, 0, 62, 75
4, 86400, Note_on_c, 0, 77, 75
4, 86422, Control_c, 0, 64, 127
4, 86467, Note_on_c, 0, 67, 0
4, 86467, Note_on_c, 0, 74, 0
4, 86560, Note_on_c, 0, 74, 68
4, 86628, Note_on_c, 0, 62, 0
4, 86628, Note_on_c, 0, 77, 0
4, 86720, Note_on_c, 0, 71, 68
4, 86790, Note_on_c, 0, 74, 0
4, 86842, Control_c, 0, 64, 0
4, 86880, Note_on_c, 0, 67, 73
4, 86902, Control_c, 0, 64, 127
4, 86947, Note_on_c, 0, 71, 0
4, 87040, Note_on_c, 0, 71, 68
4, 87108, Note_on_c, 0, 67, 0
4, 87200, Note_on_c, 0, 74, 68
4, 87270, Note_on_c, 0, 71, 0
4, 87360, Note_on_c, 0, 76, 73
4, 87427, Note_on_c, 0, 74, 0
4, 87520, Note_on_c, 0, 72, 68
4, 87588, Note_on_c, 0, 76, 0
4, 87680, Note_on_c, 0, 69, 68
4, 87750, Note_on_c, 0, 72, 0
4, 87802, Control_c, 0, 64, 0
4, 87840, Note_on_c, 0, 66, 75
4, 87877, Control_c, 0, 64, 127
4, 87907, Note_on_c, 0, 69, 0
4, 88000, Note_on_c, 0, 69, 68
4, 88068, Note_on_c, 0, 66, 0
4, 88160, Note_on_c, 0, 72, 68
4, 88230, Note_on_c, 0, 69, 0
4, 88320, Note_on_c, 0, 74, 73
4, 88387, Note_on_c, 0, 72, 0
4, 88480, Note_on_c, 0, 71, 68
4, 88548, Note_on_c, 0, 74, 0
4, 88640, Note_on_c, 0, 67, 68
4, 88710, Note_on_c, 0, 71, 0
4, 88755, Control_c, 0, 64, 0
4, 88800, Note_on_c, 0, 64, 73
4, 88830, Control_c, 0, 64, 127
4, 88867, Note_on_c, 0, 67, 0
4, 88960, Note_on_c, 0, 67, 68
4, 89028, Note_on_c, 0, 64, 0
4, 89120, Note_on_c, 0, 71, 68
4, 89190, Note_on_c, 0, 67, 0
4, 89280, Note_on_c, 0, 72, 73
4, 89347, Note_on_c, 0, 71, 0
4, 89440, Note_on_c, 0, 69, 68
4, 89508, Note_on_c, 0, 72, 0
4, 89600, Note_on_c, 0, 66, 68
4, 89670, Note_on_c, 0, 69, 0
4, 89722, Control_c, 0, 64, 0
4, 89760, Note_on_c, 0, 62, 73
4, 89790, Control_c, 0, 64, 127
4, 89827, Note_on_c, 0, 66, 0
4, 89920, Note_on_c, 0, 66, 68
4, 89988, Note_on_c, 0, 62, 0
4, 90080, Note_on_c, 0, 69, 68
4, 90150, Note_on_c, 0, 66, 0
4, 90240, Note_on_c, 0, 72, 73
4, 90307, Note_on_c, 0, 69, 0
4, 90400, Note_on_c, 0, 71, 68
4, 90468, Note_on_c, 0, 72, 0
4, 90560, Note_on_c, 0, 69, 68
4, 90630, Note_on_c, 0, 71, 0
4, 90682, Control_c, 0, 64, 0
4, 90720, Note_on_c, 0, 62, 58
4, 90720, Note_on_c, 0, 67, 66
4, 90720, Note_on_c, 0, 71, 66
4, 90765, Control_c, 0, 64, 127
4, 90787, Note_on_c, 0, 69, 0
4, 91140, Note_on_c, 0, 71, 0
4, 91192, Note_on_c, 0, 62, 0
4, 91200, Note_on_c, 0, 67, 0
4, 91200, Note_on_c, 0, 62, 59
4, 91200, Note_on_c, 0, 67, 67
4, 91200, Note_on_c, 0, 71, 67
4, 91520, Note_on_c, 0, 66, 61
4, 91635, Note_on_c, 0, 71, 0
4, 91635, Note_on_c, 0, 67, 0
4, 91642, Control_c, 0, 64, 0
4, 91680, Note_on_c, 0, 66, 0
4, 91680, Note_on_c, 0, 64, 59
4, 91680, Note_on_c, 0, 67, 67
4, 91680, Note_on_c, 0, 72, 67
4, 91755, Control_c, 0, 64, 127
4, 91770, Note_on_c, 0, 62, 0
4, 92000, Note_on_c, 0, 69, 58
4, 92115, Note_on_c, 0, 72, 0
4, 92115, Note_on_c, 0, 67, 0
4, 92115, Control_c, 0, 64, 0
4, 92160, Note_on_c, 0, 69, 0
4, 92160, Note_on_c, 0, 62, 59
4, 92160, Note_on_c, 0, 71, 67
4, 92160, Note_on_c, 0, 74, 67
4, 92190, Control_c, 0, 64, 127
4, 92235, Note_on_c, 0, 64, 0
4, 92480, Note_on_c, 0, 69, 58
4, 92595, Note_on_c, 0, 74, 0
4, 92595, Note_on_c, 0, 71, 0
4, 92610, Control_c, 0, 64, 0
4, 92640, Note_on_c, 0, 69, 0
4, 92640, Note_on_c, 0, 64, 59
4, 92640, Note_on_c, 0, 67, 67
4, 92640, Note_on_c, 0, 71, 67
4, 92685, Control_c, 0, 64, 127
4, 92707, Note_on_c, 0, 62, 0
4, 92960, Note_on_c, 0, 64, 0
4, 92960, Note_on_c, 0, 67, 0
4, 92960, Note_on_c, 0, 67, 56
4, 93075, Note_on_c, 0, 71, 0
4, 93120, Note_on_c, 0, 67, 0
4, 93120, Note_on_c, 0, 55, 59
4, 93120, Note_on_c, 0, 59, 67
4, 93120, Note_on_c, 0, 64, 67
4, 93440, Note_on_c, 0, 62, 61
4, 93440, Note_on_c, 0, 71, 61
4, 93555, Note_on_c, 0, 64, 0
4, 93555, Note_on_c, 0, 59, 0
4, 93555, Control_c, 0, 64, 0
4, 93600, Note_on_c, 0, 71, 0
4, 93600, Note_on_c, 0, 62, 0
4, 93600, Note_on_c, 0, 60, 59
4, 93600, Note_on_c, 0, 64, 67
4, 93600, Note_on_c, 0, 69, 67
4, 93630, Control_c, 0, 64, 127
4, 93697, Note_on_c, 0, 55, 0
4, 93920, Note_on_c, 0, 66, 63
4, 94035, Note_on_c, 0, 69, 0
4, 94035, Note_on_c, 0, 64, 0
4, 94042, Control_c, 0, 64, 0
4, 94080, Note_on_c, 0, 66, 0
4, 94080, Note_on_c, 0, 55, 59
4, 94080, Note_on_c, 0, 62, 67
4, 94080, Note_on_c, 0, 67, 67
4, 94125, Control_c, 0, 64, 127
4, 94155, Note_on_c, 0, 60, 0
4, 94400, Note_on_c, 0, 62, 0
4, 94400, Note_on_c, 0, 62, 58
4, 94400, Note_on_c, 0, 71, 58
4, 94500, Control_c, 0, 64, 0
4, 94515, Note_on_c, 0, 67, 0
4, 94560, Note_on_c, 0, 71, 0
4, 94560, Note_on_c, 0, 62, 0
4, 94560, Note_on_c, 0, 60, 59
4, 94560, Note_on_c, 0, 64, 67
4, 94560, Note_on_c, 0, 69, 67
4, 94597, Control_c, 0, 64, 127
4, 94695, Note_on_c, 0, 55, 0
4, 94880, Note_on_c, 0, 59, 58
4, 94880, Note_on_c, 0, 67, 58
4, 94995, Note_on_c, 0, 69, 0
4, 94995, Note_on_c, 0, 64, 0
4, 95010, Control_c, 0, 64, 0
4, 95017, Note_on_c, 0, 60, 0
4, 95040, Note_on_c, 0, 67, 0
4, 95040, Note_on_c, 0, 59, 0
4, 95040, Note_on_c, 0, 60, 59
4, 95040, Note_on_c, 0, 66, 67
4, 95070, Control_c, 0, 64, 127
4, 95360, Note_on_c, 0, 62, 58
4, 95475, Note_on_c, 0, 66, 0
4, 95482, Control_c, 0, 64, 0
4, 95520, Note_on_c, 0, 62, 0
4, 95520, Note_on_c, 0, 57, 59
4, 95520, Note_on_c, 0, 69, 67
4, 95542, Control_c, 0, 64, 127
4, 95640, Note_on_c, 0, 60, 0
4, 95840, Note_on_c, 0, 67, 58
4, 95955, Note_on_c, 0, 69, 0
4, 95955, Control_c, 0, 64, 0
4, 96000, Note_on_c, 0, 67, 0
4, 96000, Note_on_c, 0, 62, 59
4, 96000, Note_on_c, 0, 69, 67
4, 96022, Control_c, 0, 64, 127
4, 96067, Note_on_c, 0, 57, 0
4, 96320, Note_on_c, 0, 66, 65
4, 96435, Note_on_c, 0, 69, 0
4, 96450, Control_c, 0, 64, 0
4, 96457, Note_on_c, 0, 62, 0
4, 96480, Note_on_c, 0, 66, 0
4, 96480, Note_on_c, 0, 62, 61
4, 96517, Control_c, 0, 64, 127
4, 96640, Note_on_c, 0, 62, 0
4, 96640, Note_on_c, 0, 67, 61
4, 96800, Note_on_c, 0, 69, 65
4, 96888, Note_on_c, 0, 67, 0
4, 96930, Control_c, 0, 64, 0
4, 96960, Note_on_c, 0, 67, 71
4, 96960, Note_on_c, 0, 71, 71
4, 96990, Control_c, 0, 64, 127
4, 97050, Note_on_c, 0, 69, 0
4, 97120, Note_on_c, 0, 74, 67
4, 97207, Note_on_c, 0, 71, 0
4, 97207, Note_on_c, 0, 67, 0
4, 97280, Note_on_c, 0, 72, 61
4, 97368, Note_on_c, 0, 74, 0
4, 97410, Control_c, 0, 64, 0
4, 97425, Note_on_c, 0, 72, 0
4, 97440, Note_on_c, 0, 64, 73
4, 97440, Note_on_c, 0, 72, 73
4, 97477, Control_c, 0, 64, 127
4, 97600, Note_on_c, 0, 76, 65
4, 97687, Note_on_c, 0, 72, 0
4, 97687, Note_on_c, 0, 64, 0
4, 97760, Note_on_c, 0, 74, 61
4, 97848, Note_on_c, 0, 76, 0
4, 97860, Control_c, 0, 64, 0
4, 97910, Note_on_c, 0, 74, 0
4, 97920, Note_on_c, 0, 71, 68
4, 97920, Note_on_c, 0, 74, 68
4, 97950, Control_c, 0, 64, 127
4, 98080, Note_on_c, 0, 79, 68
4, 98167, Note_on_c, 0, 74, 0
4, 98167, Note_on_c, 0, 71, 0
4, 98240, Note_on_c, 0, 78, 66
4, 98328, Note_on_c, 0, 79, 0
4, 98355, Control_c, 0, 64, 0
4, 98400, Note_on_c, 0, 67, 71
4, 98400, Note_on_c, 0, 79, 76
4, 98422, Control_c, 0, 64, 127
4, 98490, Note_on_c, 0, 78, 0
4, 98560, Note_on_c, 0, 74, 61
4, 98647, Note_on_c, 0, 79, 0
4, 98647, Note_on_c, 0, 67, 0
4, 98720, Note_on_c, 0, 71, 61
4, 98808, Note_on_c, 0, 74, 0
4, 98827, Control_c, 0, 64, 0
4, 98880, Note_on_c, 0, 67, 66
4, 98895, Control_c, 0, 64, 127
4, 98970, Note_on_c, 0, 71, 0
4, 99040, Note_on_c, 0, 69, 61
4, 99127, Note_on_c, 0, 67, 0
4, 99200, Note_on_c, 0, 71, 61
4, 99288, Note_on_c, 0, 69, 0
4, 99315, Control_c, 0, 64, 0
4, 99360, Note_on_c, 0, 64, 71
4, 99397, Control_c, 0, 64, 127
4, 99450, Note_on_c, 0, 71, 0
4, 99520, Note_on_c, 0, 74, 65
4, 99607, Note_on_c, 0, 64, 0
4, 99680, Note_on_c, 0, 72, 62
4, 99768, Note_on_c, 0, 74, 0
4, 99795, Control_c, 0, 64, 0
4, 99840, Note_on_c, 0, 64, 66
4, 99840, Note_on_c, 0, 71, 66
4, 99862, Control_c, 0, 64, 127
4, 99930, Note_on_c, 0, 72, 0
4, 100000, Note_on_c, 0, 69, 55
4, 100087, Note_on_c, 0, 71, 0
4, 100087, Note_on_c, 0, 64, 0
4, 100160, Note_on_c, 0, 67, 52
4, 100248, Note_on_c, 0, 69, 0
4, 100260, Control_c, 0, 64, 0
4, 100320, Note_on_c, 0, 62, 55
4, 100350, Control_c, 0, 64, 127
4, 100410, Note_on_c, 0, 67, 0
4, 100480, Note_on_c, 0, 67, 54
4, 100567, Note_on_c, 0, 62, 0
4, 100640, Note_on_c, 0, 66, 51
4, 100728, Note_on_c, 0, 67, 0
4, 100755, Control_c, 0, 64, 0
4, 100800, Note_on_c, 0, 59, 52
4, 100800, Note_on_c, 0, 67, 52
4, 100830, Control_c, 0, 64, 127
4, 100890, Note_on_c, 0, 66, 0
4, 102697, Control_c, 0, 64, 0
4, 102738, Note_on_c, 0, 67, 0
4, 102738, Note_on_c, 0, 59, 0
4, 102738, End_track
5, 0, Start_track
5, 0, Title_t, "Piano 2 l"
5, 0, Program_c, 0, 0
5, 0, Note_on_c, 0, 43, 57
5, 0, Note_on_c, 0, 31, 57
5, 0, Control_c, 0, 91, 91
5, 0, Control_c, 0, 11, 110
5, 0, Control_c, 0, 10, 23
5, 0, Program_c, 0, 1
5, 0, Program_c, 0, 0
5, 30, Control_c, 0, 121, 0
5, 457, Note_on_c, 0, 43, 0
5, 480, Note_on_c, 0, 55, 55
5, 480, Note_on_c, 0, 43, 55
5, 615, Note_on_c, 0, 31, 0
5, 960, Note_on_c, 0, 52, 55
5, 960, Note_on_c, 0, 40, 55
5, 1147, Note_on_c, 0, 43, 0
5, 1147, Note_on_c, 0, 55, 0
5, 1440, Note_on_c, 0, 47, 58
5, 1440, Note_on_c, 0, 35, 58
5, 1907, Note_on_c, 0, 40, 0
5, 1920, Note_on_c, 0, 40, 55
5, 2062, Note_on_c, 0, 52, 0
5, 2393, Note_on_c, 0, 40, 0
5, 2400, Note_on_c, 0, 40, 55
5, 2400, Note_on_c, 0, 28, 55
5, 2542, Note_on_c, 0, 47, 0
5, 2542, Note_on_c, 0, 35, 0
5, 2880, Note_on_c, 0, 40, 0
5, 2880, Note_on_c, 0, 28, 0
5, 2880, Note_on_c, 0, 45, 59
5, 2880, Note_on_c, 0, 33, 59
5, 3360, Note_on_c, 0, 47, 55
5, 3360, Note_on_c, 0, 35, 55
5, 3510, Note_on_c, 0, 45, 0
5, 3517, Note_on_c, 0, 33, 0
5, 3840, Note_on_c, 0, 48, 55
5, 3840, Note_on_c, 0, 36, 55
5, 4027, Note_on_c, 0, 35, 0
5, 4068, Note_on_c, 0, 47, 0
5, 4320, Note_on_c, 0, 57, 61
5, 4320, Note_on_c, 0, 50, 61
5, 4458, Note_on_c, 0, 48, 0
5, 4458, Note_on_c, 0, 36, 0
5, 4800, Note_on_c, 0, 54, 55
5, 4938, Note_on_c, 0, 57, 0
5, 4938, Note_on_c, 0, 50, 0
5, 5280, Note_on_c, 0, 50, 55
5, 5418, Note_on_c, 0, 54, 0
5, 5760, Note_on_c, 0, 50, 0
5, 5760, Note_on_c, 0, 59, 61
5, 5760, Note_on_c, 0, 55, 61
5, 6240, Note_on_c, 0, 52, 55
5, 6378, Note_on_c, 0, 55, 0
5, 6378, Note_on_c, 0, 59, 0
5, 6720, Note_on_c, 0, 48, 55
5, 6858, Note_on_c, 0, 52, 0
5, 7200, Note_on_c, 0, 47, 61
5, 7338, Note_on_c, 0, 48, 0
5, 7680, Note_on_c, 0, 52, 55
5, 7680, Note_on_c, 0, 40, 55
5, 7818, Note_on_c, 0, 47, 0
5, 8160, Note_on_c, 0, 50, 55
5, 8298, Note_on_c, 0, 40, 0
5, 8298, Note_on_c, 0, 52, 0
5, 8640, Note_on_c, 0, 48, 62
5, 8778, Note_on_c, 0, 50, 0
5, 9120, Note_on_c, 0, 49, 55
5, 9258, Note_on_c, 0, 48, 0
5, 9600, Note_on_c, 0, 50, 55
5, 9738, Note_on_c, 0, 49, 0
5, 10080, Note_on_c, 0, 43, 62
5, 10218, Note_on_c, 0, 50, 0
5, 10560, Note_on_c, 0, 43, 0
5, 11520, Note_on_c, 0, 55, 77
5, 11520, Note_on_c, 0, 59, 81
5, 12000, Note_on_c, 0, 54, 80
5, 12180, Note_on_c, 0, 55, 0
5, 12480, Note_on_c, 0, 60, 87
5, 12480, Note_on_c, 0, 52, 84
5, 12660, Note_on_c, 0, 54, 0
5, 12660, Note_on_c, 0, 59, 0
5, 12960, Note_on_c, 0, 62, 84
5, 12960, Note_on_c, 0, 57, 62
5, 12960, Note_on_c, 0, 54, 65
5, 13140, Note_on_c, 0, 60, 0
5, 13140, Note_on_c, 0, 52, 0
5, 13440, Note_on_c, 0, 52, 80
5, 13620, Note_on_c, 0, 54, 0
5, 13908, Note_on_c, 0, 62, 0
5, 13920, Note_on_c, 0, 62, 80
5, 13920, Note_on_c, 0, 59, 62
5, 13920, Note_on_c, 0, 50, 67
5, 14100, Note_on_c, 0, 52, 0
5, 14107, Note_on_c, 0, 57, 0
5, 14377, Note_on_c, 0, 59, 0
5, 14400, Note_on_c, 0, 60, 84
5, 14400, Note_on_c, 0, 59, 62
5, 14400, Note_on_c, 0, 52, 73
5, 14580, Note_on_c, 0, 62, 0
5, 14580, Note_on_c, 0, 50, 0
5, 14880, Note_on_c, 0, 59, 0
5, 14880, Note_on_c, 0, 57, 62
5, 14880, Note_on_c, 0, 54, 73
5, 15060, Note_on_c, 0, 52, 0
5, 15360, Note_on_c, 0, 59, 86
5, 15360, Note_on_c, 0, 55, 72
5, 15540, Note_on_c, 0, 54, 0
5, 15540, Note_on_c, 0, 57, 0
5, 15547, Note_on_c, 0, 60, 0
5, 15840, Note_on_c, 0, 57, 92
5, 15840, Note_on_c, 0, 50, 57
5, 16020, Note_on_c, 0, 55, 0
5, 16020, Note_on_c, 0, 59, 0
5, 16297, Note_on_c, 0, 57, 0
5, 16308, Note_on_c, 0, 50, 0
5, 16320, Note_on_c, 0, 57, 74
5, 16320, Note_on_c, 0, 50, 63
5, 16640, Note_on_c, 0, 50, 0
5, 16640, Note_on_c, 0, 50, 58
5, 16800, Note_on_c, 0, 50, 0
5, 16800, Note_on_c, 0, 38, 67
5, 16830, Note_on_c, 0, 57, 0
5, 17120, Note_on_c, 0, 50, 63
5, 17175, Note_on_c, 0, 38, 0
5, 17280, Note_on_c, 0, 50, 0
5, 17280, Note_on_c, 0, 38, 75
5, 17782, Note_on_c, 0, 38, 0
5, 18080, Note_on_c, 0, 50, 75
5, 18240, Note_on_c, 0, 50, 0
5, 18240, Note_on_c, 0, 38, 67
5, 18560, Note_on_c, 0, 50, 63
5, 18720, Note_on_c, 0, 50, 0
5, 18720, Note_on_c, 0, 43, 74
5, 18742, Note_on_c, 0, 38, 0
5, 19200, Note_on_c, 0, 54, 67
5, 19380, Note_on_c, 0, 43, 0
5, 19680, Note_on_c, 0, 55, 49
5, 19680, Note_on_c, 0, 52, 62
5, 19860, Note_on_c, 0, 54, 0
5, 20160, Note_on_c, 0, 59, 68
5, 20340, Note_on_c, 0, 52, 0
5, 20340, Note_on_c, 0, 55, 0
5, 20640, Note_on_c, 0, 43, 65
5, 20640, Note_on_c, 0, 31, 65
5, 20820, Note_on_c, 0, 59, 0
5, 21120, Note_on_c, 0, 52, 69
5, 21120, Note_on_c, 0, 40, 67
5, 21300, Note_on_c, 0, 31, 0
5, 21300, Note_on_c, 0, 43, 0
5, 21600, Note_on_c, 0, 60, 62
5, 21600, Note_on_c, 0, 48, 68
5, 21780, Note_on_c, 0, 52, 0
5, 21780, Note_on_c, 0, 40, 0
5, 21840, Note_on_c, 0, 57, 62
5, 22020, Note_on_c, 0, 60, 0
5, 22080, Note_on_c, 0, 62, 59
5, 22080, Note_on_c, 0, 50, 68
5, 22218, Note_on_c, 0, 48, 0
5, 22260, Note_on_c, 0, 57, 0
5, 22320, Note_on_c, 0, 59, 65
5, 22500, Note_on_c, 0, 62, 0
5, 22548, Note_on_c, 0, 50, 0
5, 22560, Note_on_c, 0, 50, 66
5, 22560, Note_on_c, 0, 38, 65
5, 22740, Note_on_c, 0, 59, 0
5, 23040, Note_on_c, 0, 43, 61
5, 23040, Note_on_c, 0, 31, 61
5, 23220, Note_on_c, 0, 38, 0
5, 23220, Note_on_c, 0, 50, 0
5, 23520, Note_on_c, 0, 43, 0
5, 23520, Note_on_c, 0, 55, 59
5, 23520, Note_on_c, 0, 43, 52
5, 23700, Note_on_c, 0, 31, 0
5, 24000, Note_on_c, 0, 43, 0
5, 24000, Note_on_c, 0, 52, 57
5, 24000, Note_on_c, 0, 40, 57
5, 24180, Note_on_c, 0, 55, 0
5, 24480, Note_on_c, 0, 47, 52
5, 24480, Note_on_c, 0, 35, 57
5, 24660, Note_on_c, 0, 40, 0
5, 24660, Note_on_c, 0, 52, 0
5, 24960, Note_on_c, 0, 52, 57
5, 24960, Note_on_c, 0, 40, 61
5, 25140, Note_on_c, 0, 47, 0
5, 25140, Note_on_c, 0, 35, 0
5, 25440, Note_on_c, 0, 40, 0
5, 25440, Note_on_c, 0, 28, 54
5, 25460, Note_on_c, 0, 40, 58
5, 25620, Note_on_c, 0, 52, 0
5, 25920, Note_on_c, 0, 45, 51
5, 25920, Note_on_c, 0, 33, 59
5, 26100, Note_on_c, 0, 28, 0
5, 26122, Note_on_c, 0, 40, 0
5, 26400, Note_on_c, 0, 47, 61
5, 26400, Note_on_c, 0, 35, 59
5, 26580, Note_on_c, 0, 45, 0
5, 26580, Note_on_c, 0, 33, 0
5, 26880, Note_on_c, 0, 48, 63
5, 26880, Note_on_c, 0, 36, 59
5, 27060, Note_on_c, 0, 47, 0
5, 27060, Note_on_c, 0, 35, 0
5, 27360, Note_on_c, 0, 57, 46
5, 27360, Note_on_c, 0, 50, 56
5, 27540, Note_on_c, 0, 48, 0
5, 27540, Note_on_c, 0, 36, 0
5, 27840, Note_on_c, 0, 54, 62
5, 28020, Note_on_c, 0, 57, 0
5, 28020, Note_on_c, 0, 50, 0
5, 28320, Note_on_c, 0, 50, 59
5, 28500, Note_on_c, 0, 54, 0
5, 28800, Note_on_c, 0, 59, 47
5, 28800, Note_on_c, 0, 55, 65
5, 28980, Note_on_c, 0, 50, 0
5, 29280, Note_on_c, 0, 52, 57
5, 29460, Note_on_c, 0, 55, 0
5, 29460, Note_on_c, 0, 59, 0
5, 29760, Note_on_c, 0, 48, 63
5, 29940, Note_on_c, 0, 52, 0
5, 30240, Note_on_c, 0, 47, 59
5, 30420, Note_on_c, 0, 48, 0
5, 30720, Note_on_c, 0, 52, 55
5, 30720, Note_on_c, 0, 40, 51
5, 30900, Note_on_c, 0, 47, 0
5, 31200, Note_on_c, 0, 50, 61
5, 31380, Note_on_c, 0, 40, 0
5, 31380, Note_on_c, 0, 52, 0
5, 31680, Note_on_c, 0, 48, 66
5, 31860, Note_on_c, 0, 50, 0
5, 32160, Note_on_c, 0, 49, 65
5, 32340, Note_on_c, 0, 48, 0
5, 32640, Note_on_c, 0, 50, 69
5, 32820, Note_on_c, 0, 49, 0
5, 33120, Note_on_c, 0, 43, 73
5, 33300, Note_on_c, 0, 50, 0
5, 33600, Note_on_c, 0, 54, 78
5, 33780, Note_on_c, 0, 43, 0
5, 34080, Note_on_c, 0, 64, 69
5, 34080, Note_on_c, 0, 60, 81
5, 34080, Note_on_c, 0, 52, 68
5, 34260, Note_on_c, 0, 54, 0
5, 34560, Note_on_c, 0, 62, 62
5, 34560, Note_on_c, 0, 57, 69
5, 34560, Note_on_c, 0, 54, 61
5, 34740, Note_on_c, 0, 64, 0
5, 34740, Note_on_c, 0, 52, 0
5, 34740, Note_on_c, 0, 60, 0
5, 35040, Note_on_c, 0, 52, 73
5, 35220, Note_on_c, 0, 62, 0
5, 35220, Note_on_c, 0, 54, 0
5, 35220, Note_on_c, 0, 57, 0
5, 35520, Note_on_c, 0, 62, 58
5, 35520, Note_on_c, 0, 59, 76
5, 35520, Note_on_c, 0, 50, 76
5, 35700, Note_on_c, 0, 52, 0
5, 36000, Note_on_c, 0, 59, 0
5, 36000, Note_on_c, 0, 60, 65
5, 36000, Note_on_c, 0, 59, 75
5, 36000, Note_on_c, 0, 52, 75
5, 36180, Note_on_c, 0, 62, 0
5, 36180, Note_on_c, 0, 50, 0
5, 36480, Note_on_c, 0, 57, 68
5, 36480, Note_on_c, 0, 54, 69
5, 36660, Note_on_c, 0, 59, 0
5, 36660, Note_on_c, 0, 52, 0
5, 36660, Note_on_c, 0, 60, 0
5, 36960, Note_on_c, 0, 59, 64
5, 36960, Note_on_c, 0, 55, 76
5, 37140, Note_on_c, 0, 57, 0
5, 37140, Note_on_c, 0, 54, 0
5, 37440, Note_on_c, 0, 57, 61
5, 37440, Note_on_c, 0, 50, 62
5, 37620, Note_on_c, 0, 59, 0
5, 37620, Note_on_c, 0, 55, 0
5, 37908, Note_on_c, 0, 50, 0
5, 37920, Note_on_c, 0, 57, 0
5, 37920, Note_on_c, 0, 57, 57
5, 37920, Note_on_c, 0, 50, 61
5, 38227, Note_on_c, 0, 50, 0
5, 38240, Note_on_c, 0, 57, 0
5, 38240, Note_on_c, 0, 50, 72
5, 38400, Note_on_c, 0, 50, 0
5, 38400, Note_on_c, 0, 38, 64
5, 38720, Note_on_c, 0, 50, 75
5, 38872, Note_on_c, 0, 38, 0
5, 38880, Note_on_c, 0, 50, 0
5, 38880, Note_on_c, 0, 38, 57
5, 39540, Note_on_c, 0, 38, 0
5, 39680, Note_on_c, 0, 50, 61
5, 39840, Note_on_c, 0, 50, 0
5, 39840, Note_on_c, 0, 38, 58
5, 40160, Note_on_c, 0, 50, 72
5, 40320, Note_on_c, 0, 50, 0
5, 40320, Note_on_c, 0, 43, 67
5, 40338, Note_on_c, 0, 38, 0
5, 40800, Note_on_c, 0, 54, 67
5, 40980, Note_on_c, 0, 43, 0
5, 41280, Note_on_c, 0, 55, 65
5, 41280, Note_on_c, 0, 52, 61
5, 41460, Note_on_c, 0, 54, 0
5, 41760, Note_on_c, 0, 59, 59
5, 41940, Note_on_c, 0, 52, 0
5, 41940, Note_on_c, 0, 55, 0
5, 42240, Note_on_c, 0, 47, 59
5, 42240, Note_on_c, 0, 35, 63
5, 42420, Note_on_c, 0, 59, 0
5, 42720, Note_on_c, 0, 52, 66
5, 42720, Note_on_c, 0, 40, 66
5, 42900, Note_on_c, 0, 35, 0
5, 42900, Note_on_c, 0, 47, 0
5, 43200, Note_on_c, 0, 60, 68
5, 43200, Note_on_c, 0, 48, 56
5, 43380, Note_on_c, 0, 52, 0
5, 43380, Note_on_c, 0, 40, 0
5, 43440, Note_on_c, 0, 48, 0
5, 43440, Note_on_c, 0, 57, 66
5, 43578, Note_on_c, 0, 60, 0
5, 43680, Note_on_c, 0, 62, 67
5, 43680, Note_on_c, 0, 50, 54
5, 43818, Note_on_c, 0, 57, 0
5, 43920, Note_on_c, 0, 50, 0
5, 43920, Note_on_c, 0, 59, 68
5, 44058, Note_on_c, 0, 62, 0
5, 44160, Note_on_c, 0, 50, 65
5, 44160, Note_on_c, 0, 38, 63
5, 44298, Note_on_c, 0, 59, 0
5, 44640, Note_on_c, 0, 43, 66
5, 44640, Note_on_c, 0, 31, 63
5, 44827, Note_on_c, 0, 38, 0
5, 44827, Note_on_c, 0, 50, 0
5, 45120, Note_on_c, 0, 43, 0
5, 45120, Note_on_c, 0, 55, 71
5, 45120, Note_on_c, 0, 43, 67
5, 45307, Note_on_c, 0, 31, 0
5, 45600, Note_on_c, 0, 52, 73
5, 45600, Note_on_c, 0, 40, 69
5, 45787, Note_on_c, 0, 43, 0
5, 45787, Note_on_c, 0, 55, 0
5, 46080, Note_on_c, 0, 47, 66
5, 46080, Note_on_c, 0, 35, 68
5, 46267, Note_on_c, 0, 52, 0
5, 46267, Note_on_c, 0, 40, 0
5, 46560, Note_on_c, 0, 52, 74
5, 46560, Note_on_c, 0, 40, 74
5, 46747, Note_on_c, 0, 47, 0
5, 46747, Note_on_c, 0, 35, 0
5, 47040, Note_on_c, 0, 40, 0
5, 47040, Note_on_c, 0, 40, 71
5, 47040, Note_on_c, 0, 28, 67
5, 47227, Note_on_c, 0, 52, 0
5, 47520, Note_on_c, 0, 45, 66
5, 47520, Note_on_c, 0, 33, 66
5, 47707, Note_on_c, 0, 28, 0
5, 47707, Note_on_c, 0, 40, 0
5, 48000, Note_on_c, 0, 47, 65
5, 48000, Note_on_c, 0, 35, 63
5, 48187, Note_on_c, 0, 45, 0
5, 48187, Note_on_c, 0, 33, 0
5, 48480, Note_on_c, 0, 48, 65
5, 48480, Note_on_c, 0, 36, 66
5, 48667, Note_on_c, 0, 47, 0
5, 48667, Note_on_c, 0, 35, 0
5, 48960, Note_on_c, 0, 57, 63
5, 48960, Note_on_c, 0, 50, 69
5, 49147, Note_on_c, 0, 48, 0
5, 49147, Note_on_c, 0, 36, 0
5, 49440, Note_on_c, 0, 54, 66
5, 49627, Note_on_c, 0, 57, 0
5, 49627, Note_on_c, 0, 50, 0
5, 49920, Note_on_c, 0, 50, 72
5, 50107, Note_on_c, 0, 54, 0
5, 50400, Note_on_c, 0, 59, 61
5, 50400, Note_on_c, 0, 55, 66
5, 50587, Note_on_c, 0, 50, 0
5, 50880, Note_on_c, 0, 52, 66
5, 51067, Note_on_c, 0, 55, 0
5, 51067, Note_on_c, 0, 59, 0
5, 51360, Note_on_c, 0, 48, 67
5, 51547, Note_on_c, 0, 52, 0
5, 51840, Note_on_c, 0, 47, 71
5, 52027, Note_on_c, 0, 48, 0
5, 52320, Note_on_c, 0, 52, 72
5, 52507, Note_on_c, 0, 47, 0
5, 52800, Note_on_c, 0, 50, 71
5, 52987, Note_on_c, 0, 52, 0
5, 53280, Note_on_c, 0, 48, 68
5, 53467, Note_on_c, 0, 50, 0
5, 53760, Note_on_c, 0, 49, 68
5, 53947, Note_on_c, 0, 48, 0
5, 54240, Note_on_c, 0, 50, 68
5, 54427, Note_on_c, 0, 49, 0
5, 54720, Note_on_c, 0, 43, 66
5, 54907, Note_on_c, 0, 50, 0
5, 55200, Note_on_c, 0, 43, 0
5, 56160, Note_on_c, 0, 57, 84
5, 56160, Note_on_c, 0, 50, 84
5, 56640, Note_on_c, 0, 48, 65
5, 56861, Note_on_c, 0, 50, 0
5, 57120, Note_on_c, 0, 59, 88
5, 57120, Note_on_c, 0, 47, 88
5, 57341, Note_on_c, 0, 48, 0
5, 57408, Note_on_c, 0, 57, 0
5, 57600, Note_on_c, 0, 57, 81
5, 57600, Note_on_c, 0, 45, 81
5, 57727, Note_on_c, 0, 59, 0
5, 57821, Note_on_c, 0, 47, 0
5, 58057, Note_on_c, 0, 57, 0
5, 58080, Note_on_c, 0, 57, 78
5, 58301, Note_on_c, 0, 45, 0
5, 58545, Note_on_c, 0, 57, 0
5, 58560, Note_on_c, 0, 57, 77
5, 58560, Note_on_c, 0, 53, 77
5, 59040, Note_on_c, 0, 59, 90
5, 59040, Note_on_c, 0, 50, 90
5, 59261, Note_on_c, 0, 53, 0
5, 59261, Note_on_c, 0, 57, 0
5, 59520, Note_on_c, 0, 47, 65
5, 59741, Note_on_c, 0, 50, 0
5, 59760, Note_on_c, 0, 60, 85
5, 59880, Note_on_c, 0, 62, 90
5, 59993, Note_on_c, 0, 59, 0
5, 60000, Note_on_c, 0, 59, 85
5, 60000, Note_on_c, 0, 52, 85
5, 60168, Note_on_c, 0, 60, 0
5, 60221, Note_on_c, 0, 47, 0
5, 60311, Note_on_c, 0, 62, 0
5, 60480, Note_on_c, 0, 57, 76
5, 60480, Note_on_c, 0, 45, 76
5, 60701, Note_on_c, 0, 52, 0
5, 60851, Note_on_c, 0, 59, 0
5, 60960, Note_on_c, 0, 57, 0
5, 60960, Note_on_c, 0, 57, 68
5, 60960, Note_on_c, 0, 53, 68
5, 61181, Note_on_c, 0, 45, 0
5, 61440, Note_on_c, 0, 50, 69
5, 61661, Note_on_c, 0, 53, 0
5, 61661, Note_on_c, 0, 57, 0
5, 61920, Note_on_c, 0, 48, 71
5, 62141, Note_on_c, 0, 50, 0
5, 62400, Note_on_c, 0, 53, 72
5, 62400, Note_on_c, 0, 41, 72
5, 62621, Note_on_c, 0, 48, 0
5, 62880, Note_on_c, 0, 52, 74
5, 62880, Note_on_c, 0, 40, 74
5, 63101, Note_on_c, 0, 41, 0
5, 63101, Note_on_c, 0, 53, 0
5, 63360, Note_on_c, 0, 50, 75
5, 63360, Note_on_c, 0, 38, 75
5, 63581, Note_on_c, 0, 52, 0
5, 63581, Note_on_c, 0, 40, 0
5, 63840, Note_on_c, 0, 51, 76
5, 63840, Note_on_c, 0, 39, 76
5, 64061, Note_on_c, 0, 50, 0
5, 64061, Note_on_c, 0, 38, 0
5, 64320, Note_on_c, 0, 52, 77
5, 64320, Note_on_c, 0, 40, 77
5, 64541, Note_on_c, 0, 51, 0
5, 64541, Note_on_c, 0, 39, 0
5, 64800, Note_on_c, 0, 45, 86
5, 64800, Note_on_c, 0, 33, 86
5, 65021, Note_on_c, 0, 52, 0
5, 65021, Note_on_c, 0, 40, 0
5, 65280, Note_on_c, 0, 64, 86
5, 65280, Note_on_c, 0, 57, 86
5, 65501, Note_on_c, 0, 45, 0
5, 65501, Note_on_c, 0, 33, 0
5, 65981, Note_on_c, 0, 64, 0
5, 65981, Note_on_c, 0, 57, 0
5, 66720, Note_on_c, 0, 69, 86
5, 66720, Note_on_c, 0, 57, 86
5, 67040, Note_on_c, 0, 62, 75
5, 67200, Note_on_c, 0, 67, 86
5, 67200, Note_on_c, 0, 64, 86
5, 67260, Note_on_c, 0, 57, 0
5, 67260, Note_on_c, 0, 69, 0
5, 67421, Note_on_c, 0, 62, 0
5, 67520, Note_on_c, 0, 60, 75
5, 67680, Note_on_c, 0, 69, 86
5, 67680, Note_on_c, 0, 65, 86
5, 67740, Note_on_c, 0, 67, 0
5, 67740, Note_on_c, 0, 64, 0
5, 67901, Note_on_c, 0, 60, 0
5, 68000, Note_on_c, 0, 71, 75
5, 68160, Note_on_c, 0, 72, 86
5, 68160, Note_on_c, 0, 62, 86
5, 68220, Note_on_c, 0, 69, 0
5, 68220, Note_on_c, 0, 65, 0
5, 68381, Note_on_c, 0, 71, 0
5, 68480, Note_on_c, 0, 69, 75
5, 68640, Note_on_c, 0, 67, 86
5, 68700, Note_on_c, 0, 72, 0
5, 68700, Note_on_c, 0, 62, 0
5, 68861, Note_on_c, 0, 69, 0
5, 68960, Note_on_c, 0, 55, 75
5, 69120, Note_on_c, 0, 60, 97
5, 69180, Note_on_c, 0, 67, 0
5, 69341, Note_on_c, 0, 55, 0
5, 69600, Note_on_c, 0, 52, 97
5, 69600, Note_on_c, 0, 40, 86
5, 69821, Note_on_c, 0, 60, 0
5, 70080, Note_on_c, 0, 48, 97
5, 70080, Note_on_c, 0, 36, 86
5, 70301, Note_on_c, 0, 40, 0
5, 70301, Note_on_c, 0, 52, 0
5, 70560, Note_on_c, 0, 53, 97
5, 70560, Note_on_c, 0, 41, 86
5, 70781, Note_on_c, 0, 48, 0
5, 70781, Note_on_c, 0, 36, 0
5, 71040, Note_on_c, 0, 50, 93
5, 71040, Note_on_c, 0, 38, 82
5, 71261, Note_on_c, 0, 53, 0
5, 71261, Note_on_c, 0, 41, 0
5, 71520, Note_on_c, 0, 55, 88
5, 71520, Note_on_c, 0, 43, 77
5, 71741, Note_on_c, 0, 50, 0
5, 71741, Note_on_c, 0, 38, 0
5, 72000, Note_on_c, 0, 48, 84
5, 72000, Note_on_c, 0, 36, 73
5, 72221, Note_on_c, 0, 55, 0
5, 72221, Note_on_c, 0, 43, 0
5, 72701, Note_on_c, 0, 48, 0
5, 72701, Note_on_c, 0, 36, 0
5, 72800, Note_on_c, 0, 54, 77
5, 72800, Note_on_c, 0, 48, 77
5, 72960, Note_on_c, 0, 55, 75
5, 72960, Note_on_c, 0, 47, 75
5, 73181, Note_on_c, 0, 48, 0
5, 73181, Note_on_c, 0, 54, 0
5, 73280, Note_on_c, 0, 57, 73
5, 73280, Note_on_c, 0, 50, 73
5, 73432, Note_on_c, 0, 55, 0
5, 73440, Note_on_c, 0, 55, 82
5, 73440, Note_on_c, 0, 43, 82
5, 73500, Note_on_c, 0, 47, 0
5, 73661, Note_on_c, 0, 50, 0
5, 73661, Note_on_c, 0, 57, 0
5, 73905, Note_on_c, 0, 55, 0
5, 73920, Note_on_c, 0, 55, 73
5, 74141, Note_on_c, 0, 43, 0
5, 74400, Note_on_c, 0, 52, 73
5, 74621, Note_on_c, 0, 55, 0
5, 74880, Note_on_c, 0, 59, 73
5, 74880, Note_on_c, 0, 47, 73
5, 75101, Note_on_c, 0, 52, 0
5, 75360, Note_on_c, 0, 64, 73
5, 75360, Note_on_c, 0, 52, 73
5, 75581, Note_on_c, 0, 47, 0
5, 75581, Note_on_c, 0, 59, 0
5, 75840, Note_on_c, 0, 40, 73
5, 76061, Note_on_c, 0, 64, 0
5, 76061, Note_on_c, 0, 52, 0
5, 76320, Note_on_c, 0, 45, 73
5, 76320, Note_on_c, 0, 33, 73
5, 76541, Note_on_c, 0, 40, 0
5, 76800, Note_on_c, 0, 47, 73
5, 76800, Note_on_c, 0, 35, 73
5, 77021, Note_on_c, 0, 33, 0
5, 77021, Note_on_c, 0, 45, 0
5, 77280, Note_on_c, 0, 48, 73
5, 77280, Note_on_c, 0, 36, 73
5, 77501, Note_on_c, 0, 47, 0
5, 77501, Note_on_c, 0, 35, 0
5, 77760, Note_on_c, 0, 57, 76
5, 77760, Note_on_c, 0, 50, 76
5, 77981, Note_on_c, 0, 48, 0
5, 77981, Note_on_c, 0, 36, 0
5, 78461, Note_on_c, 0, 57, 0
5, 78461, Note_on_c, 0, 50, 0
5, 78560, Note_on_c, 0, 38, 68
5, 78720, Note_on_c, 0, 50, 74
5, 78941, Note_on_c, 0, 38, 0
5, 79040, Note_on_c, 0, 38, 67
5, 79200, Note_on_c, 0, 26, 75
5, 79260, Note_on_c, 0, 50, 0
5, 79421, Note_on_c, 0, 38, 0
5, 79680, Note_on_c, 0, 26, 0
5, 80000, Note_on_c, 0, 38, 68
5, 80160, Note_on_c, 0, 50, 74
5, 80381, Note_on_c, 0, 38, 0
5, 80480, Note_on_c, 0, 38, 65
5, 80640, Note_on_c, 0, 43, 78
5, 80700, Note_on_c, 0, 50, 0
5, 80861, Note_on_c, 0, 38, 0
5, 81120, Note_on_c, 0, 42, 73
5, 81341, Note_on_c, 0, 43, 0
5, 81600, Note_on_c, 0, 40, 73
5, 81821, Note_on_c, 0, 42, 0
5, 82080, Note_on_c, 0, 47, 73
5, 82301, Note_on_c, 0, 40, 0
5, 82560, Note_on_c, 0, 59, 73
5, 82781, Note_on_c, 0, 47, 0
5, 83040, Note_on_c, 0, 55, 73
5, 83040, Note_on_c, 0, 52, 73
5, 83261, Note_on_c, 0, 59, 0
5, 83520, Note_on_c, 0, 57, 85
5, 83520, Note_on_c, 0, 48, 51
5, 83741, Note_on_c, 0, 52, 0
5, 83741, Note_on_c, 0, 55, 0
5, 83760, Note_on_c, 0, 59, 85
5, 83880, Note_on_c, 0, 60, 85
5, 83947, Note_on_c, 0, 59, 0
5, 83981, Note_on_c, 0, 48, 0
5, 84000, Note_on_c, 0, 50, 82
5, 84067, Note_on_c, 0, 60, 0
5, 84078, Note_on_c, 0, 57, 0
5, 84480, Note_on_c, 0, 38, 76
5, 84701, Note_on_c, 0, 50, 0
5, 84960, Note_on_c, 0, 43, 49
5, 84960, Note_on_c, 0, 31, 49
5, 85181, Note_on_c, 0, 38, 0
5, 86385, Note_on_c, 0, 43, 0
5, 86400, Note_on_c, 0, 31, 0
5, 86400, Note_on_c, 0, 43, 57
5, 86400, Note_on_c, 0, 31, 57
5, 86872, Note_on_c, 0, 43, 0
5, 86880, Note_on_c, 0, 31, 0
5, 86880, Note_on_c, 0, 43, 49
5, 86880, Note_on_c, 0, 31, 49
5, 87360, Note_on_c, 0, 69, 49
5, 87360, Note_on_c, 0, 60, 49
5, 87825, Note_on_c, 0, 43, 0
5, 87840, Note_on_c, 0, 43, 56
5, 88061, Note_on_c, 0, 31, 0
5, 88061, Note_on_c, 0, 60, 0
5, 88061, Note_on_c, 0, 69, 0
5, 88320, Note_on_c, 0, 67, 49
5, 88320, Note_on_c, 0, 59, 49
5, 88785, Note_on_c, 0, 43, 0
5, 88800, Note_on_c, 0, 43, 49
5, 88800, Note_on_c, 0, 31, 49
5, 89021, Note_on_c, 0, 59, 0
5, 89021, Note_on_c, 0, 67, 0
5, 89280, Note_on_c, 0, 69, 58
5, 89280, Note_on_c, 0, 60, 58
5, 89752, Note_on_c, 0, 43, 0
5, 89760, Note_on_c, 0, 43, 49
5, 89981, Note_on_c, 0, 31, 0
5, 89981, Note_on_c, 0, 60, 0
5, 89981, Note_on_c, 0, 69, 0
5, 90240, Note_on_c, 0, 66, 49
5, 90240, Note_on_c, 0, 57, 49
5, 90705, Note_on_c, 0, 43, 0
5, 90720, Note_on_c, 0, 43, 58
5, 90720, Note_on_c, 0, 31, 58
5, 90941, Note_on_c, 0, 57, 0
5, 90941, Note_on_c, 0, 66, 0
5, 91185, Note_on_c, 0, 43, 0
5, 91200, Note_on_c, 0, 55, 49
5, 91200, Note_on_c, 0, 43, 49
5, 91421, Note_on_c, 0, 31, 0
5, 91680, Note_on_c, 0, 52, 49
5, 91680, Note_on_c, 0, 40, 49
5, 91901, Note_on_c, 0, 43, 0
5, 91901, Note_on_c, 0, 55, 0
5, 92160, Note_on_c, 0, 47, 57
5, 92160, Note_on_c, 0, 35, 57
5, 92381, Note_on_c, 0, 52, 0
5, 92381, Note_on_c, 0, 40, 0
5, 92640, Note_on_c, 0, 52, 49
5, 92640, Note_on_c, 0, 40, 49
5, 92861, Note_on_c, 0, 47, 0
5, 92861, Note_on_c, 0, 35, 0
5, 93097, Note_on_c, 0, 40, 0
5, 93120, Note_on_c, 0, 40, 49
5, 93120, Note_on_c, 0, 28, 49
5, 93341, Note_on_c, 0, 52, 0
5, 93600, Note_on_c, 0, 28, 0
5, 93600, Note_on_c, 0, 45, 58
5, 93600, Note_on_c, 0, 33, 58
5, 93817, Note_on_c, 0, 40, 0
5, 94080, Note_on_c, 0, 47, 49
5, 94080, Note_on_c, 0, 35, 49
5, 94297, Note_on_c, 0, 33, 0
5, 94297, Note_on_c, 0, 45, 0
5, 94560, Note_on_c, 0, 48, 49
5, 94560, Note_on_c, 0, 36, 49
5, 94777, Note_on_c, 0, 47, 0
5, 94777, Note_on_c, 0, 35, 0
5, 95040, Note_on_c, 0, 57, 59
5, 95040, Note_on_c, 0, 50, 59
5, 95257, Note_on_c, 0, 48, 0
5, 95257, Note_on_c, 0, 36, 0
5, 95520, Note_on_c, 0, 54, 49
5, 95737, Note_on_c, 0, 57, 0
5, 95737, Note_on_c, 0, 50, 0
5, 96000, Note_on_c, 0, 50, 49
5, 96217, Note_on_c, 0, 54, 0
5, 96480, Note_on_c, 0, 59, 59
5, 96480, Note_on_c, 0, 55, 59
5, 96697, Note_on_c, 0, 50, 0
5, 96960, Note_on_c, 0, 52, 49
5, 97117, Note_on_c, 0, 55, 0
5, 97117, Note_on_c, 0, 59, 0
5, 97440, Note_on_c, 0, 48, 49
5, 97590, Note_on_c, 0, 52, 0
5, 97920, Note_on_c, 0, 47, 57
5, 98070, Note_on_c, 0, 48, 0
5, 98400, Note_on_c, 0, 52, 49
5, 98568, Note_on_c, 0, 47, 0
5, 98880, Note_on_c, 0, 50, 49
5, 99060, Note_on_c, 0, 52, 0
5, 99360, Note_on_c, 0, 48, 59
5, 99510, Note_on_c, 0, 50, 0
5, 99840, Note_on_c, 0, 49, 55
5, 99997, Note_on_c, 0, 48, 0
5, 100320, Note_on_c, 0, 50, 51
5, 100500, Note_on_c, 0, 49, 0
5, 100788, Note_on_c, 0, 50, 0
5, 100800, Note_on_c, 0, 50, 51
5, 100800, Note_on_c, 0, 43, 51
5, 100837, Control_c, 0, 64, 127
5, 102667, Control_c, 0, 64, 0
5, 102727, Note_on_c, 0, 43, 0
5, 102727, Note_on_c, 0, 50, 0
5, 102727, End_track
0, 0, End_of_file
