0, 0, Header, 1, 8, 480
1, 0, Start_track
1, 0, Title_t, "Seq-1"
1, 0, SMPTE_offset, 96, 0, 0, 0, 0
1, 0, Time_signature, 4, 2, 24, 8
1, 0, Tempo, 461538
1, 75600, Tempo, 478561
1, 75620, Tempo, 491803
1, 75620, End_track
2, 0, Start_track
2, 0, Title_t, "Johann Sebastian Bach"
2, 0, Control_c, 0, 7, 127
2, 2, Control_c, 0, 11, 87
2, 377, Note_on_c, 0, 50, 33
2, 547, Note_off_c, 0, 50, 48
2, 720, Note_on_c, 0, 50, 35
2, 853, Note_on_c, 0, 69, 48
2, 890, Note_off_c, 0, 50, 48
2, 1067, Note_on_c, 0, 50, 40
2, 1068, Note_on_c, 0, 65, 50
2, 1093, Note_off_c, 0, 69, 52
2, 1183, Note_on_c, 0, 62, 51
2, 1186, Note_off_c, 0, 65, 52
2, 1238, Note_off_c, 0, 50, 50
2, 1286, Note_off_c, 0, 62, 52
2, 1286, Note_on_c, 0, 69, 54
2, 1407, Note_on_c, 0, 50, 48
2, 1409, Note_on_c, 0, 65, 57
2, 1413, Note_off_c, 0, 69, 53
2, 1526, Note_on_c, 0, 62, 60
2, 1542, Note_off_c, 0, 65, 54
2, 1578, Note_off_c, 0, 50, 52
2, 1642, Note_off_c, 0, 62, 55
2, 1646, Note_on_c, 0, 74, 62
2, 1752, Note_on_c, 0, 70, 60
2, 1756, Note_on_c, 0, 50, 51
2, 1770, Note_off_c, 0, 74, 55
2, 1870, Note_on_c, 0, 67, 56
2, 1881, Note_off_c, 0, 70, 55
2, 1943, Note_off_c, 0, 50, 52
2, 1987, Note_off_c, 0, 67, 54
2, 1990, Note_on_c, 0, 70, 52
2, 2110, Note_off_c, 0, 70, 53
2, 2110, Note_on_c, 0, 50, 49
2, 2110, Note_on_c, 0, 67, 48
2, 2213, Note_on_c, 0, 64, 48
2, 2221, Note_off_c, 0, 67, 52
2, 2280, Note_off_c, 0, 50, 52
2, 2333, Note_on_c, 0, 67, 54
2, 2346, Note_off_c, 0, 64, 52
2, 2457, Note_on_c, 0, 50, 53
2, 2459, Note_on_c, 0, 64, 60
2, 2470, Note_off_c, 0, 67, 53
2, 2573, Note_on_c, 0, 61, 60
2, 2584, Note_off_c, 0, 64, 55
2, 2627, Note_off_c, 0, 50, 53
2, 2674, Note_on_c, 0, 67, 62
2, 2677, Note_off_c, 0, 61, 55
2, 2794, Note_on_c, 0, 64, 56
2, 2796, Note_on_c, 0, 50, 58
2, 2810, Note_off_c, 0, 67, 55
2, 2914, Note_on_c, 0, 61, 52
2, 2930, Note_off_c, 0, 64, 54
2, 2964, Note_off_c, 0, 50, 54
2, 3034, Note_on_c, 0, 69, 48
2, 3043, Note_off_c, 0, 61, 53
2, 3137, Note_on_c, 0, 65, 50
2, 3139, Note_on_c, 0, 50, 61
2, 3160, Note_off_c, 0, 69, 52
2, 3257, Note_on_c, 0, 62, 54
2, 3267, Note_off_c, 0, 65, 52
2, 3324, Note_off_c, 0, 50, 55
2, 3377, Note_on_c, 0, 69, 60
2, 3387, Note_off_c, 0, 62, 53
2, 3497, Note_on_c, 0, 65, 66
2, 3499, Note_on_c, 0, 50, 59
2, 3506, Note_off_c, 0, 69, 55
2, 3600, Note_on_c, 0, 62, 70
2, 3612, Note_off_c, 0, 65, 56
2, 3667, Note_off_c, 0, 50, 54
2, 3720, Note_on_c, 0, 81, 74
2, 3721, Note_off_c, 0, 62, 57
2, 3840, Note_on_c, 0, 77, 72
2, 3842, Note_on_c, 0, 62, 60
2, 3880, Note_off_c, 0, 81, 59
2, 3960, Note_on_c, 0, 74, 68
2, 3961, Note_off_c, 0, 77, 58
2, 4010, Note_off_c, 0, 62, 55
2, 4063, Note_on_c, 0, 77, 64
2, 4069, Note_off_c, 0, 74, 57
2, 4183, Note_on_c, 0, 74, 60
2, 4183, Note_on_c, 0, 62, 62
2, 4220, Note_off_c, 0, 77, 56
2, 4300, Note_off_c, 0, 62, 55
2, 4303, Note_on_c, 0, 69, 56
2, 4307, Note_off_c, 0, 74, 55
2, 4423, Note_on_c, 0, 74, 52
2, 4431, Note_off_c, 0, 69, 54
2, 4526, Note_on_c, 0, 55, 58
2, 4526, Note_on_c, 0, 70, 48
2, 4560, Note_off_c, 0, 74, 53
2, 4646, Note_on_c, 0, 67, 48
2, 4659, Note_off_c, 0, 70, 52
2, 4697, Note_off_c, 0, 55, 54
2, 4766, Note_on_c, 0, 74, 60
2, 4775, Note_off_c, 0, 67, 52
2, 4886, Note_on_c, 0, 70, 72
2, 4886, Note_on_c, 0, 55, 49
2, 4910, Note_off_c, 0, 74, 55
2, 4990, Note_on_c, 0, 67, 68
2, 4995, Note_off_c, 0, 70, 58
2, 5000, Note_off_c, 0, 55, 52
2, 5110, Note_on_c, 0, 79, 70
2, 5119, Note_off_c, 0, 67, 57
2, 5230, Note_on_c, 0, 76, 72
2, 5230, Note_on_c, 0, 60, 51
2, 5250, Note_off_c, 0, 79, 57
2, 5350, Note_on_c, 0, 72, 68
2, 5352, Note_off_c, 0, 76, 58
2, 5400, Note_off_c, 0, 60, 52
2, 5450, Note_on_c, 0, 76, 63
2, 5452, Note_off_c, 0, 72, 57
2, 5570, Note_on_c, 0, 72, 58
2, 5573, Note_on_c, 0, 60, 48
2, 5590, Note_off_c, 0, 76, 55
2, 5670, Note_off_c, 0, 60, 52
2, 5690, Note_on_c, 0, 67, 53
2, 5697, Note_off_c, 0, 72, 54
2, 5810, Note_off_c, 0, 67, 53
2, 5810, Note_on_c, 0, 72, 50
2, 5914, Note_on_c, 0, 69, 48
2, 5916, Note_on_c, 0, 53, 46
2, 5940, Note_off_c, 0, 72, 52
2, 6031, Note_off_c, 0, 69, 52
2, 6034, Note_on_c, 0, 65, 52
2, 6084, Note_off_c, 0, 53, 51
2, 6154, Note_on_c, 0, 72, 57
2, 6168, Note_off_c, 0, 65, 53
2, 6274, Note_on_c, 0, 69, 62
2, 6276, Note_on_c, 0, 53, 46
2, 6300, Note_off_c, 0, 72, 54
2, 6360, Note_off_c, 0, 53, 51
2, 6377, Note_on_c, 0, 65, 67
2, 6390, Note_off_c, 0, 69, 55
2, 6497, Note_on_c, 0, 77, 70
2, 6515, Note_off_c, 0, 65, 57
2, 6617, Note_on_c, 0, 74, 72
2, 6619, Note_on_c, 0, 58, 54
2, 6630, Note_off_c, 0, 77, 57
2, 6720, Note_on_c, 0, 70, 68
2, 6729, Note_off_c, 0, 74, 58
2, 6787, Note_off_c, 0, 58, 53
2, 6840, Note_on_c, 0, 74, 63
2, 6855, Note_off_c, 0, 70, 57
2, 6960, Note_on_c, 0, 55, 61
2, 6960, Note_on_c, 0, 70, 58
2, 6980, Note_off_c, 0, 74, 55
2, 7060, Note_off_c, 0, 55, 55
2, 7080, Note_on_c, 0, 67, 53
2, 7082, Note_off_c, 0, 70, 54
2, 7183, Note_on_c, 0, 79, 62
2, 7196, Note_off_c, 0, 67, 53
2, 7303, Note_on_c, 0, 76, 60
2, 7303, Note_on_c, 0, 60, 61
2, 7312, Note_off_c, 0, 79, 55
2, 7423, Note_on_c, 0, 72, 67
2, 7431, Note_off_c, 0, 76, 55
2, 7474, Note_off_c, 0, 60, 55
2, 7543, Note_on_c, 0, 76, 62
2, 7547, Note_off_c, 0, 72, 57
2, 7646, Note_on_c, 0, 57, 79
2, 7646, Note_on_c, 0, 72, 69
2, 7680, Note_off_c, 0, 76, 55
2, 7764, Note_off_c, 0, 57, 60
2, 7766, Note_on_c, 0, 69, 76
2, 7776, Note_off_c, 0, 72, 57
2, 7886, Note_on_c, 0, 81, 84
2, 7891, Note_off_c, 0, 69, 59
2, 8006, Note_on_c, 0, 77, 82
2, 8006, Note_on_c, 0, 62, 68
2, 8030, Note_off_c, 0, 81, 61
2, 8110, Note_on_c, 0, 74, 78
2, 8120, Note_off_c, 0, 77, 60
2, 8177, Note_off_c, 0, 62, 57
2, 8230, Note_on_c, 0, 77, 72
2, 8232, Note_off_c, 0, 74, 59
2, 8350, Note_on_c, 0, 50, 75
2, 8350, Note_on_c, 0, 74, 66
2, 8366, Note_off_c, 0, 77, 58
2, 8470, Note_on_c, 0, 70, 60
2, 8477, Note_off_c, 0, 74, 56
2, 8520, Note_off_c, 0, 50, 59
2, 8570, Note_on_c, 0, 82, 70
2, 8575, Note_off_c, 0, 70, 55
2, 8690, Note_on_c, 0, 79, 72
2, 8693, Note_on_c, 0, 52, 67
2, 8730, Note_off_c, 0, 82, 57
2, 8807, Note_off_c, 0, 79, 58
2, 8810, Note_on_c, 0, 76, 72
2, 8930, Note_on_c, 0, 79, 77
2, 8949, Note_off_c, 0, 76, 58
2, 9034, Note_off_c, 0, 52, 57
2, 9036, Note_on_c, 0, 76, 82
2, 9036, Note_on_c, 0, 48, 66
2, 9070, Note_off_c, 0, 79, 59
2, 9154, Note_on_c, 0, 72, 87
2, 9161, Note_off_c, 0, 76, 60
2, 9240, Note_off_c, 0, 48, 56
2, 9274, Note_on_c, 0, 84, 84
2, 9289, Note_off_c, 0, 72, 61
2, 9396, Note_on_c, 0, 81, 84
2, 9396, Note_on_c, 0, 53, 62
2, 9420, Note_off_c, 0, 84, 61
2, 9497, Note_on_c, 0, 77, 80
2, 9510, Note_off_c, 0, 81, 61
2, 9617, Note_on_c, 0, 81, 76
2, 9628, Note_off_c, 0, 77, 60
2, 9739, Note_on_c, 0, 77, 72
2, 9739, Note_on_c, 0, 52, 64
2, 9750, Note_off_c, 0, 81, 59
2, 9760, Note_off_c, 0, 53, 55
2, 9857, Note_on_c, 0, 72, 68
2, 9859, Note_off_c, 0, 77, 58
2, 9950, Note_off_c, 0, 52, 56
2, 9960, Note_on_c, 0, 81, 64
2, 9975, Note_off_c, 0, 72, 57
2, 10080, Note_on_c, 0, 77, 60
2, 10082, Note_on_c, 0, 50, 66
2, 10120, Note_off_c, 0, 81, 56
2, 10190, Note_off_c, 0, 77, 55
2, 10200, Note_on_c, 0, 74, 60
2, 10316, Note_off_c, 0, 74, 55
2, 10320, Note_on_c, 0, 77, 62
2, 10423, Note_on_c, 0, 74, 64
2, 10426, Note_on_c, 0, 48, 68
2, 10450, Note_off_c, 0, 50, 56
2, 10460, Note_off_c, 0, 77, 55
2, 10543, Note_off_c, 0, 74, 56
2, 10543, Note_on_c, 0, 69, 67
2, 10600, Note_off_c, 0, 48, 57
2, 10663, Note_on_c, 0, 77, 69
2, 10674, Note_off_c, 0, 69, 57
2, 10783, Note_on_c, 0, 74, 72
2, 10786, Note_on_c, 0, 46, 70
2, 10810, Note_off_c, 0, 77, 57
2, 10886, Note_on_c, 0, 70, 74
2, 10888, Note_off_c, 0, 74, 58
2, 11005, Note_off_c, 0, 70, 59
2, 11006, Note_on_c, 0, 74, 76
2, 11126, Note_on_c, 0, 70, 79
2, 11126, Note_on_c, 0, 45, 72
2, 11140, Note_off_c, 0, 74, 59
2, 11150, Note_off_c, 0, 46, 57
2, 11246, Note_on_c, 0, 65, 81
2, 11258, Note_off_c, 0, 70, 60
2, 11320, Note_off_c, 0, 45, 58
2, 11347, Note_on_c, 0, 74, 84
2, 11349, Note_off_c, 0, 65, 60
2, 11470, Note_on_c, 0, 70, 84
2, 11470, Note_on_c, 0, 43, 72
2, 11500, Note_off_c, 0, 74, 61
2, 11587, Note_on_c, 0, 67, 83
2, 11600, Note_off_c, 0, 70, 61
2, 11707, Note_on_c, 0, 70, 81
2, 11724, Note_off_c, 0, 67, 60
2, 11813, Note_on_c, 0, 67, 80
2, 11813, Note_on_c, 0, 41, 68
2, 11840, Note_off_c, 0, 70, 60
2, 11840, Note_off_c, 0, 43, 58
2, 11930, Note_on_c, 0, 62, 78
2, 11948, Note_off_c, 0, 67, 60
2, 12010, Note_off_c, 0, 41, 57
2, 12050, Note_on_c, 0, 70, 77
2, 12058, Note_off_c, 0, 62, 59
2, 12173, Note_on_c, 0, 67, 75
2, 12173, Note_on_c, 0, 40, 63
2, 12203, Note_off_c, 0, 70, 59
2, 12274, Note_on_c, 0, 60, 74
2, 12277, Note_off_c, 0, 67, 59
2, 12394, Note_off_c, 0, 60, 59
2, 12394, Note_on_c, 0, 70, 72
2, 12514, Note_off_c, 0, 40, 55
2, 12514, Note_on_c, 0, 67, 71
2, 12516, Note_on_c, 0, 36, 59
2, 12540, Note_off_c, 0, 70, 58
2, 12631, Note_off_c, 0, 67, 58
2, 12634, Note_on_c, 0, 64, 69
2, 12737, Note_on_c, 0, 70, 68
2, 12752, Note_off_c, 0, 64, 57
2, 12857, Note_off_c, 0, 36, 54
2, 12857, Note_on_c, 0, 69, 66
2, 12859, Note_on_c, 0, 41, 54
2, 12900, Note_off_c, 0, 70, 57
2, 12977, Note_on_c, 0, 65, 65
2, 12995, Note_off_c, 0, 69, 56
2, 13010, Note_off_c, 0, 41, 53
2, 13078, Note_off_c, 0, 65, 56
2, 13080, Note_on_c, 0, 69, 63
2, 13200, Note_on_c, 0, 65, 62
2, 13202, Note_on_c, 0, 45, 50
2, 13240, Note_off_c, 0, 69, 55
2, 13320, Note_on_c, 0, 60, 60
2, 13332, Note_off_c, 0, 65, 55
2, 13440, Note_on_c, 0, 65, 59
2, 13451, Note_off_c, 0, 60, 55
2, 13543, Note_off_c, 0, 45, 52
2, 13543, Note_on_c, 0, 62, 57
2, 13546, Note_on_c, 0, 46, 45
2, 13573, Note_off_c, 0, 65, 54
2, 13663, Note_on_c, 0, 58, 56
2, 13675, Note_off_c, 0, 62, 54
2, 13783, Note_on_c, 0, 65, 54
2, 13792, Note_off_c, 0, 58, 54
2, 13903, Note_on_c, 0, 60, 53
2, 13903, Note_on_c, 0, 48, 41
2, 13926, Note_off_c, 0, 65, 53
2, 13950, Note_off_c, 0, 46, 51
2, 14006, Note_on_c, 0, 58, 51
2, 14010, Note_off_c, 0, 60, 53
2, 14126, Note_on_c, 0, 64, 50
2, 14141, Note_off_c, 0, 58, 52
2, 14150, Note_off_c, 0, 48, 50
2, 14236, Note_on_c, 0, 41, 68
2, 14246, Note_on_c, 0, 60, 48
2, 14280, Note_off_c, 0, 64, 52
2, 14363, Note_off_c, 0, 60, 52
2, 14364, Note_on_c, 0, 57, 48
2, 14464, Note_off_c, 0, 57, 52
2, 14467, Note_on_c, 0, 65, 54
2, 14587, Note_on_c, 0, 60, 60
2, 14630, Note_off_c, 0, 65, 53
2, 14707, Note_on_c, 0, 57, 60
2, 14709, Note_off_c, 0, 60, 55
2, 14825, Note_off_c, 0, 57, 55
2, 14827, Note_on_c, 0, 60, 54
2, 14920, Note_off_c, 0, 41, 57
2, 14933, Note_on_c, 0, 57, 48
2, 14977, Note_off_c, 0, 60, 53
2, 15050, Note_on_c, 0, 53, 48
2, 15056, Note_off_c, 0, 57, 52
2, 15170, Note_off_c, 0, 53, 52
2, 15170, Note_on_c, 0, 60, 52
2, 15290, Note_on_c, 0, 57, 56
2, 15293, Note_on_c, 0, 51, 48
2, 15338, Note_off_c, 0, 60, 53
2, 15394, Note_on_c, 0, 53, 60
2, 15401, Note_off_c, 0, 57, 54
2, 15459, Note_off_c, 0, 51, 52
2, 15514, Note_on_c, 0, 60, 60
2, 15526, Note_off_c, 0, 53, 55
2, 15634, Note_on_c, 0, 57, 60
2, 15634, Note_on_c, 0, 50, 48
2, 15679, Note_off_c, 0, 60, 55
2, 15750, Note_off_c, 0, 57, 55
2, 15754, Note_on_c, 0, 54, 54
2, 15781, Note_off_c, 0, 50, 52
2, 15857, Note_on_c, 0, 60, 48
2, 15860, Note_off_c, 0, 54, 53
2, 15977, Note_on_c, 0, 48, 51
2, 15977, Note_on_c, 0, 57, 48
2, 16030, Note_off_c, 0, 60, 52
2, 16097, Note_on_c, 0, 54, 49
2, 16104, Note_off_c, 0, 57, 52
2, 16138, Note_off_c, 0, 48, 52
2, 16217, Note_on_c, 0, 63, 51
2, 16231, Note_off_c, 0, 54, 52
2, 16320, Note_on_c, 0, 46, 54
2, 16320, Note_on_c, 0, 57, 53
2, 16368, Note_off_c, 0, 63, 52
2, 16439, Note_off_c, 0, 57, 53
2, 16440, Note_on_c, 0, 54, 54
2, 16473, Note_off_c, 0, 46, 53
2, 16560, Note_on_c, 0, 62, 56
2, 16571, Note_off_c, 0, 54, 53
2, 16680, Note_on_c, 0, 45, 57
2, 16680, Note_on_c, 0, 57, 58
2, 16724, Note_off_c, 0, 62, 54
2, 16783, Note_off_c, 0, 57, 54
2, 16783, Note_on_c, 0, 54, 60
2, 16849, Note_off_c, 0, 45, 54
2, 16898, Note_off_c, 0, 54, 55
2, 16903, Note_on_c, 0, 60, 61
2, 17023, Note_on_c, 0, 43, 60
2, 17023, Note_on_c, 0, 58, 63
2, 17076, Note_off_c, 0, 60, 55
2, 17143, Note_on_c, 0, 55, 65
2, 17154, Note_off_c, 0, 58, 55
2, 17189, Note_off_c, 0, 43, 55
2, 17242, Note_off_c, 0, 55, 56
2, 17244, Note_on_c, 0, 62, 66
2, 17364, Note_on_c, 0, 58, 68
2, 17366, Note_on_c, 0, 46, 63
2, 17409, Note_off_c, 0, 62, 56
2, 17484, Note_on_c, 0, 55, 70
2, 17500, Note_off_c, 0, 58, 57
2, 17512, Note_off_c, 0, 46, 55
2, 17604, Note_on_c, 0, 62, 72
2, 17611, Note_off_c, 0, 55, 57
2, 17707, Note_on_c, 0, 58, 73
2, 17710, Note_on_c, 0, 48, 66
2, 17755, Note_off_c, 0, 62, 58
2, 17827, Note_on_c, 0, 55, 75
2, 17841, Note_off_c, 0, 58, 58
2, 17878, Note_off_c, 0, 48, 56
2, 17947, Note_off_c, 0, 55, 59
2, 17947, Note_on_c, 0, 64, 77
2, 18067, Note_on_c, 0, 58, 78
2, 18070, Note_on_c, 0, 50, 69
2, 18103, Note_off_c, 0, 64, 59
2, 18170, Note_off_c, 0, 58, 59
2, 18170, Note_on_c, 0, 55, 80
2, 18238, Note_off_c, 0, 50, 57
2, 18290, Note_off_c, 0, 55, 60
2, 18290, Note_on_c, 0, 66, 82
2, 18410, Note_on_c, 0, 58, 84
2, 18410, Note_on_c, 0, 51, 72
2, 18446, Note_off_c, 0, 66, 60
2, 18530, Note_off_c, 0, 58, 61
2, 18530, Note_on_c, 0, 55, 84
2, 18581, Note_off_c, 0, 51, 58
2, 18634, Note_off_c, 0, 55, 61
2, 18634, Note_on_c, 0, 67, 75
2, 18754, Note_on_c, 0, 46, 71
2, 18754, Note_on_c, 0, 62, 65
2, 18790, Note_off_c, 0, 67, 59
2, 18874, Note_off_c, 0, 62, 56
2, 18874, Note_on_c, 0, 58, 55
2, 18924, Note_off_c, 0, 46, 58
2, 18994, Note_off_c, 0, 58, 53
2, 18994, Note_on_c, 0, 67, 51
2, 19097, Note_on_c, 0, 48, 68
2, 19097, Note_on_c, 0, 63, 51
2, 19125, Note_off_c, 0, 67, 52
2, 19214, Note_off_c, 0, 63, 52
2, 19217, Note_on_c, 0, 57, 51
2, 19267, Note_off_c, 0, 48, 57
2, 19334, Note_off_c, 0, 57, 52
2, 19337, Note_on_c, 0, 67, 51
2, 19440, Note_on_c, 0, 50, 64
2, 19440, Note_on_c, 0, 62, 51
2, 19469, Note_off_c, 0, 67, 52
2, 19558, Note_off_c, 0, 62, 52
2, 19560, Note_on_c, 0, 57, 51
2, 19627, Note_off_c, 0, 50, 56
2, 19678, Note_off_c, 0, 57, 52
2, 19680, Note_on_c, 0, 66, 51
2, 19800, Note_on_c, 0, 43, 73
2, 19800, Note_on_c, 0, 62, 48
2, 19829, Note_off_c, 0, 66, 52
2, 19901, Note_off_c, 0, 62, 52
2, 19901, Note_on_c, 0, 58, 48
2, 20021, Note_off_c, 0, 58, 52
2, 20021, Note_on_c, 0, 67, 54
2, 20141, Note_on_c, 0, 62, 60
2, 20172, Note_off_c, 0, 67, 53
2, 20263, Note_on_c, 0, 58, 60
2, 20292, Note_off_c, 0, 62, 55
2, 20364, Note_off_c, 0, 58, 55
2, 20364, Note_on_c, 0, 62, 54
2, 20484, Note_off_c, 0, 43, 58
2, 20486, Note_on_c, 0, 58, 48
2, 20515, Note_off_c, 0, 62, 53
2, 20604, Note_off_c, 0, 58, 52
2, 20604, Note_on_c, 0, 55, 48
2, 20724, Note_off_c, 0, 55, 52
2, 20724, Note_on_c, 0, 62, 54
2, 20827, Note_on_c, 0, 58, 60
2, 20830, Note_on_c, 0, 53, 57
2, 20858, Note_off_c, 0, 62, 53
2, 20947, Note_off_c, 0, 58, 55
2, 20947, Note_on_c, 0, 55, 60
2, 21014, Note_off_c, 0, 53, 54
2, 21067, Note_off_c, 0, 55, 55
2, 21067, Note_on_c, 0, 62, 54
2, 21187, Note_on_c, 0, 59, 48
2, 21190, Note_on_c, 0, 52, 54
2, 21218, Note_off_c, 0, 62, 53
2, 21290, Note_off_c, 0, 59, 52
2, 21290, Note_on_c, 0, 56, 48
2, 21358, Note_off_c, 0, 52, 53
2, 21410, Note_off_c, 0, 56, 52
2, 21410, Note_on_c, 0, 62, 54
2, 21530, Note_on_c, 0, 59, 60
2, 21530, Note_on_c, 0, 50, 51
2, 21561, Note_off_c, 0, 62, 53
2, 21650, Note_off_c, 0, 59, 55
2, 21650, Note_on_c, 0, 56, 66
2, 21701, Note_off_c, 0, 50, 52
2, 21751, Note_off_c, 0, 56, 56
2, 21754, Note_on_c, 0, 65, 69
2, 21874, Note_on_c, 0, 59, 69
2, 21874, Note_on_c, 0, 48, 48
2, 21920, Note_off_c, 0, 65, 57
2, 21991, Note_off_c, 0, 59, 57
2, 21994, Note_on_c, 0, 56, 69
2, 22044, Note_off_c, 0, 48, 52
2, 22111, Note_off_c, 0, 56, 57
2, 22114, Note_on_c, 0, 64, 69
2, 22217, Note_on_c, 0, 59, 69
2, 22217, Note_on_c, 0, 47, 54
2, 22248, Note_off_c, 0, 64, 57
2, 22337, Note_on_c, 0, 56, 69
2, 22343, Note_off_c, 0, 59, 57
2, 22387, Note_off_c, 0, 47, 53
2, 22455, Note_off_c, 0, 56, 57
2, 22457, Note_on_c, 0, 62, 69
2, 22577, Note_on_c, 0, 60, 69
2, 22577, Note_on_c, 0, 45, 58
2, 22600, Note_off_c, 0, 62, 57
2, 22680, Note_on_c, 0, 57, 69
2, 22684, Note_off_c, 0, 60, 57
2, 22799, Note_off_c, 0, 57, 57
2, 22800, Note_on_c, 0, 64, 69
2, 22920, Note_off_c, 0, 45, 54
2, 22920, Note_on_c, 0, 60, 69
2, 22920, Note_on_c, 0, 48, 58
2, 22996, Note_off_c, 0, 64, 57
2, 23040, Note_on_c, 0, 57, 69
2, 23045, Note_off_c, 0, 60, 57
2, 23140, Note_off_c, 0, 48, 54
2, 23141, Note_on_c, 0, 64, 69
2, 23152, Note_off_c, 0, 57, 57
2, 23263, Note_on_c, 0, 60, 69
2, 23263, Note_on_c, 0, 50, 58
2, 23326, Note_off_c, 0, 64, 57
2, 23381, Note_on_c, 0, 57, 69
2, 23382, Note_off_c, 0, 60, 57
2, 23496, Note_off_c, 0, 57, 57
2, 23501, Note_on_c, 0, 66, 69
2, 23604, Note_off_c, 0, 50, 54
2, 23606, Note_on_c, 0, 60, 69
2, 23606, Note_on_c, 0, 52, 58
2, 23665, Note_off_c, 0, 66, 57
2, 23724, Note_off_c, 0, 60, 57
2, 23724, Note_on_c, 0, 57, 69
2, 23780, Note_off_c, 0, 52, 54
2, 23844, Note_on_c, 0, 68, 69
2, 23851, Note_off_c, 0, 57, 57
2, 23966, Note_on_c, 0, 60, 72
2, 23966, Note_on_c, 0, 53, 60
2, 24025, Note_off_c, 0, 68, 57
2, 24066, Note_off_c, 0, 60, 58
2, 24067, Note_on_c, 0, 57, 72
2, 24187, Note_on_c, 0, 69, 71
2, 24202, Note_off_c, 0, 57, 58
2, 24307, Note_off_c, 0, 53, 55
2, 24310, Note_on_c, 0, 64, 70
2, 24310, Note_on_c, 0, 48, 59
2, 24360, Note_off_c, 0, 69, 58
2, 24427, Note_on_c, 0, 60, 69
2, 24431, Note_off_c, 0, 64, 57
2, 24530, Note_off_c, 0, 48, 54
2, 24530, Note_on_c, 0, 69, 68
2, 24536, Note_off_c, 0, 60, 57
2, 24650, Note_on_c, 0, 65, 67
2, 24653, Note_on_c, 0, 50, 56
2, 24708, Note_off_c, 0, 69, 57
2, 24770, Note_on_c, 0, 59, 66
2, 24773, Note_off_c, 0, 65, 57
2, 24890, Note_on_c, 0, 69, 65
2, 24902, Note_off_c, 0, 59, 56
2, 24994, Note_off_c, 0, 50, 54
2, 24994, Note_on_c, 0, 64, 64
2, 24996, Note_on_c, 0, 52, 52
2, 25055, Note_off_c, 0, 69, 56
2, 25114, Note_on_c, 0, 59, 63
2, 25115, Note_off_c, 0, 64, 56
2, 25220, Note_off_c, 0, 52, 53
2, 25234, Note_on_c, 0, 68, 62
2, 25243, Note_off_c, 0, 59, 55
2, 25337, Note_on_c, 0, 64, 60
2, 25339, Note_on_c, 0, 45, 73
2, 25400, Note_off_c, 0, 68, 55
2, 25457, Note_on_c, 0, 60, 60
2, 25468, Note_off_c, 0, 64, 55
2, 25577, Note_on_c, 0, 69, 66
2, 25584, Note_off_c, 0, 60, 55
2, 25697, Note_off_c, 0, 45, 58
2, 25697, Note_on_c, 0, 64, 72
2, 25697, Note_on_c, 0, 57, 49
2, 25757, Note_off_c, 0, 69, 56
2, 25798, Note_on_c, 0, 60, 72
2, 25806, Note_off_c, 0, 64, 58
2, 25867, Note_off_c, 0, 57, 52
2, 25918, Note_on_c, 0, 72, 66
2, 25929, Note_off_c, 0, 60, 58
2, 26038, Note_on_c, 0, 65, 60
2, 26040, Note_on_c, 0, 57, 53
2, 26107, Note_off_c, 0, 72, 56
2, 26158, Note_on_c, 0, 62, 60
2, 26168, Note_off_c, 0, 65, 55
2, 26261, Note_on_c, 0, 70, 66
2, 26262, Note_off_c, 0, 62, 55
2, 26381, Note_off_c, 0, 57, 53
2, 26383, Note_on_c, 0, 67, 72
2, 26383, Note_on_c, 0, 55, 57
2, 26441, Note_off_c, 0, 70, 56
2, 26501, Note_on_c, 0, 64, 72
2, 26520, Note_off_c, 0, 67, 58
2, 26621, Note_on_c, 0, 70, 66
2, 26630, Note_off_c, 0, 64, 58
2, 26724, Note_off_c, 0, 55, 54
2, 26726, Note_on_c, 0, 69, 60
2, 26726, Note_on_c, 0, 53, 61
2, 26780, Note_off_c, 0, 70, 56
2, 26841, Note_off_c, 0, 69, 55
2, 26844, Note_on_c, 0, 65, 60
2, 26911, Note_off_c, 0, 53, 55
2, 26964, Note_on_c, 0, 69, 73
2, 26974, Note_off_c, 0, 65, 55
2, 27084, Note_on_c, 0, 60, 84
2, 27086, Note_on_c, 0, 41, 65
2, 27159, Note_off_c, 0, 69, 58
2, 27183, Note_off_c, 0, 60, 61
2, 27187, Note_on_c, 0, 57, 84
2, 27307, Note_on_c, 0, 69, 78
2, 27308, Note_off_c, 0, 57, 61
2, 27378, Note_off_c, 0, 41, 56
2, 27427, Note_on_c, 0, 62, 72
2, 27427, Note_on_c, 0, 41, 69
2, 27466, Note_off_c, 0, 69, 59
2, 27544, Note_off_c, 0, 62, 58
2, 27547, Note_on_c, 0, 59, 72
2, 27598, Note_off_c, 0, 41, 57
2, 27650, Note_on_c, 0, 67, 78
2, 27659, Note_off_c, 0, 59, 58
2, 27770, Note_on_c, 0, 64, 84
2, 27770, Note_on_c, 0, 40, 72
2, 27825, Note_off_c, 0, 67, 59
2, 27888, Note_off_c, 0, 64, 61
2, 27890, Note_on_c, 0, 61, 84
2, 28010, Note_on_c, 0, 67, 77
2, 28026, Note_off_c, 0, 61, 61
2, 28114, Note_off_c, 0, 40, 58
2, 28114, Note_on_c, 0, 65, 70
2, 28116, Note_on_c, 0, 38, 54
2, 28180, Note_off_c, 0, 67, 59
2, 28234, Note_on_c, 0, 62, 63
2, 28238, Note_off_c, 0, 65, 57
2, 28354, Note_on_c, 0, 74, 56
2, 28364, Note_off_c, 0, 62, 55
2, 28474, Note_off_c, 0, 38, 53
2, 28474, Note_on_c, 0, 69, 48
2, 28476, Note_on_c, 0, 50, 36
2, 28532, Note_off_c, 0, 74, 54
2, 28577, Note_on_c, 0, 65, 48
2, 28583, Note_off_c, 0, 69, 52
2, 28644, Note_off_c, 0, 50, 49
2, 28697, Note_on_c, 0, 77, 54
2, 28705, Note_off_c, 0, 65, 52
2, 28817, Note_on_c, 0, 70, 60
2, 28817, Note_on_c, 0, 50, 40
2, 28883, Note_off_c, 0, 77, 53
2, 28937, Note_on_c, 0, 67, 60
2, 28945, Note_off_c, 0, 70, 55
2, 29036, Note_off_c, 0, 67, 55
2, 29038, Note_on_c, 0, 75, 54
2, 29158, Note_off_c, 0, 50, 50
2, 29160, Note_on_c, 0, 48, 52
2, 29160, Note_on_c, 0, 72, 48
2, 29237, Note_off_c, 0, 75, 53
2, 29278, Note_on_c, 0, 69, 48
2, 29288, Note_off_c, 0, 72, 52
2, 29398, Note_on_c, 0, 75, 55
2, 29399, Note_off_c, 0, 69, 52
2, 29501, Note_off_c, 0, 48, 53
2, 29503, Note_on_c, 0, 46, 64
2, 29503, Note_on_c, 0, 74, 62
2, 29560, Note_off_c, 0, 75, 53
2, 29619, Note_off_c, 0, 74, 55
2, 29621, Note_on_c, 0, 70, 69
2, 29741, Note_on_c, 0, 74, 76
2, 29757, Note_off_c, 0, 70, 57
2, 29861, Note_off_c, 0, 46, 56
2, 29863, Note_on_c, 0, 65, 84
2, 29863, Note_on_c, 0, 58, 72
2, 29960, Note_off_c, 0, 74, 59
2, 29964, Note_on_c, 0, 62, 84
2, 29978, Note_off_c, 0, 65, 61
2, 30031, Note_off_c, 0, 58, 58
2, 30080, Note_off_c, 0, 62, 61
2, 30084, Note_on_c, 0, 74, 78
2, 30204, Note_on_c, 0, 58, 74
2, 30204, Note_on_c, 0, 67, 72
2, 30324, Note_on_c, 0, 64, 72
2, 30350, Note_off_c, 0, 74, 59
2, 30360, Note_off_c, 0, 67, 58
2, 30427, Note_on_c, 0, 72, 78
2, 30433, Note_off_c, 0, 64, 58
2, 30547, Note_off_c, 0, 58, 59
2, 30547, Note_on_c, 0, 69, 84
2, 30550, Note_on_c, 0, 57, 70
2, 30604, Note_off_c, 0, 72, 59
2, 30667, Note_on_c, 0, 66, 84
2, 30670, Note_off_c, 0, 69, 61
2, 30787, Note_on_c, 0, 72, 77
2, 30797, Note_off_c, 0, 66, 61
2, 30890, Note_off_c, 0, 57, 57
2, 30890, Note_on_c, 0, 70, 70
2, 30893, Note_on_c, 0, 55, 68
2, 30960, Note_off_c, 0, 72, 59
2, 31008, Note_off_c, 0, 70, 57
2, 31010, Note_on_c, 0, 67, 63
2, 31126, Note_off_c, 0, 67, 55
2, 31130, Note_on_c, 0, 74, 56
2, 31250, Note_on_c, 0, 70, 48
2, 31316, Note_off_c, 0, 74, 54
2, 31350, Note_off_c, 0, 70, 52
2, 31354, Note_on_c, 0, 67, 48
2, 31474, Note_on_c, 0, 79, 54
2, 31489, Note_off_c, 0, 67, 52
2, 31594, Note_off_c, 0, 55, 57
2, 31594, Note_on_c, 0, 75, 60
2, 31660, Note_off_c, 0, 79, 53
2, 31694, Note_on_c, 0, 67, 60
2, 31706, Note_off_c, 0, 75, 55
2, 31814, Note_on_c, 0, 79, 54
2, 31819, Note_off_c, 0, 67, 55
2, 31934, Note_on_c, 0, 74, 48
2, 31937, Note_on_c, 0, 58, 63
2, 31987, Note_off_c, 0, 79, 53
2, 32054, Note_on_c, 0, 67, 48
2, 32059, Note_off_c, 0, 74, 52
2, 32155, Note_off_c, 0, 67, 52
2, 32158, Note_on_c, 0, 79, 54
2, 32278, Note_off_c, 0, 58, 55
2, 32280, Note_on_c, 0, 73, 60
2, 32280, Note_on_c, 0, 57, 62
2, 32335, Note_off_c, 0, 79, 53
2, 32397, Note_off_c, 0, 73, 55
2, 32398, Note_on_c, 0, 69, 60
2, 32513, Note_off_c, 0, 69, 55
2, 32518, Note_on_c, 0, 79, 57
2, 32621, Note_off_c, 0, 57, 55
2, 32623, Note_on_c, 0, 55, 60
2, 32623, Note_on_c, 0, 76, 54
2, 32679, Note_off_c, 0, 79, 54
2, 32741, Note_on_c, 0, 73, 51
2, 32756, Note_off_c, 0, 76, 53
2, 32861, Note_off_c, 0, 73, 52
2, 32861, Note_on_c, 0, 82, 48
2, 32981, Note_off_c, 0, 55, 55
2, 32983, Note_on_c, 0, 53, 60
2, 32983, Note_on_c, 0, 76, 48
2, 33049, Note_off_c, 0, 82, 52
2, 33082, Note_off_c, 0, 76, 52
2, 33084, Note_on_c, 0, 73, 52
2, 33204, Note_on_c, 0, 81, 57
2, 33209, Note_off_c, 0, 73, 53
2, 33324, Note_off_c, 0, 53, 55
2, 33324, Note_on_c, 0, 76, 61
2, 33326, Note_on_c, 0, 52, 62
2, 33398, Note_off_c, 0, 81, 54
2, 33444, Note_off_c, 0, 76, 55
2, 33444, Note_on_c, 0, 73, 66
2, 33545, Note_off_c, 0, 73, 56
2, 33547, Note_on_c, 0, 79, 70
2, 33667, Note_off_c, 0, 52, 55
2, 33667, Note_on_c, 0, 77, 75
2, 33670, Note_on_c, 0, 50, 64
2, 33740, Note_off_c, 0, 79, 57
2, 33787, Note_on_c, 0, 74, 79
2, 33800, Note_off_c, 0, 77, 59
2, 33907, Note_off_c, 0, 74, 60
2, 33907, Note_on_c, 0, 69, 84
2, 34010, Note_off_c, 0, 50, 56
2, 34010, Note_on_c, 0, 65, 60
2, 34013, Note_on_c, 0, 53, 66
2, 34082, Note_off_c, 0, 69, 61
2, 34124, Note_off_c, 0, 65, 55
2, 34130, Note_on_c, 0, 62, 60
2, 34198, Note_off_c, 0, 53, 56
2, 34250, Note_on_c, 0, 69, 66
2, 34255, Note_off_c, 0, 62, 55
2, 34370, Note_on_c, 0, 65, 73
2, 34370, Note_on_c, 0, 55, 68
2, 34439, Note_off_c, 0, 69, 56
2, 34474, Note_off_c, 0, 65, 58
2, 34474, Note_on_c, 0, 62, 80
2, 34594, Note_on_c, 0, 71, 80
2, 34596, Note_off_c, 0, 62, 60
2, 34714, Note_off_c, 0, 55, 57
2, 34714, Note_on_c, 0, 65, 80
2, 34714, Note_on_c, 0, 57, 70
2, 34780, Note_off_c, 0, 71, 60
2, 34834, Note_on_c, 0, 62, 80
2, 34835, Note_off_c, 0, 65, 60
2, 34934, Note_on_c, 0, 73, 80
2, 34940, Note_off_c, 0, 62, 60
2, 35054, Note_off_c, 0, 57, 57
2, 35057, Note_on_c, 0, 65, 84
2, 35057, Note_on_c, 0, 58, 72
2, 35130, Note_off_c, 0, 73, 60
2, 35174, Note_on_c, 0, 62, 84
2, 35176, Note_off_c, 0, 65, 61
2, 35226, Note_off_c, 0, 58, 58
2, 35294, Note_on_c, 0, 74, 75
2, 35304, Note_off_c, 0, 62, 61
2, 35398, Note_on_c, 0, 65, 65
2, 35400, Note_on_c, 0, 53, 65
2, 35469, Note_off_c, 0, 74, 59
2, 35518, Note_on_c, 0, 62, 55
2, 35522, Note_off_c, 0, 65, 56
2, 35638, Note_on_c, 0, 69, 55
2, 35643, Note_off_c, 0, 62, 53
2, 35758, Note_off_c, 0, 53, 56
2, 35760, Note_on_c, 0, 55, 61
2, 35760, Note_on_c, 0, 65, 55
2, 35833, Note_off_c, 0, 69, 53
2, 35861, Note_on_c, 0, 62, 55
2, 35870, Note_off_c, 0, 65, 53
2, 35928, Note_off_c, 0, 55, 55
2, 35981, Note_on_c, 0, 70, 50
2, 35998, Note_off_c, 0, 62, 53
2, 36101, Note_on_c, 0, 64, 50
2, 36103, Note_on_c, 0, 57, 60
2, 36160, Note_off_c, 0, 70, 52
2, 36221, Note_on_c, 0, 61, 50
2, 36227, Note_off_c, 0, 64, 52
2, 36324, Note_on_c, 0, 69, 48
2, 36332, Note_off_c, 0, 61, 52
2, 36444, Note_off_c, 0, 57, 55
2, 36444, Note_on_c, 0, 64, 72
2, 36446, Note_on_c, 0, 58, 60
2, 36503, Note_off_c, 0, 69, 52
2, 36564, Note_on_c, 0, 61, 72
2, 36574, Note_off_c, 0, 64, 58
2, 36684, Note_on_c, 0, 67, 71
2, 36691, Note_off_c, 0, 61, 58
2, 36787, Note_on_c, 0, 62, 70
2, 36790, Note_on_c, 0, 41, 59
2, 36817, Note_off_c, 0, 58, 55
2, 36849, Note_off_c, 0, 67, 58
2, 36903, Note_off_c, 0, 62, 57
2, 36907, Note_on_c, 0, 57, 69
2, 36958, Note_off_c, 0, 41, 54
2, 37025, Note_off_c, 0, 57, 57
2, 37027, Note_on_c, 0, 65, 68
2, 37147, Note_on_c, 0, 62, 67
2, 37147, Note_on_c, 0, 43, 57
2, 37209, Note_off_c, 0, 65, 57
2, 37247, Note_off_c, 0, 62, 57
2, 37250, Note_on_c, 0, 58, 66
2, 37370, Note_on_c, 0, 64, 65
2, 37384, Note_off_c, 0, 58, 56
2, 37490, Note_off_c, 0, 43, 54
2, 37490, Note_on_c, 0, 61, 64
2, 37490, Note_on_c, 0, 45, 56
2, 37561, Note_off_c, 0, 64, 56
2, 37610, Note_on_c, 0, 57, 63
2, 37620, Note_off_c, 0, 61, 56
2, 37711, Note_on_c, 0, 64, 62
2, 37718, Note_off_c, 0, 57, 55
2, 37831, Note_off_c, 0, 45, 54
2, 37834, Note_on_c, 0, 62, 61
2, 37834, Note_on_c, 0, 46, 54
2, 37900, Note_off_c, 0, 64, 55
2, 37951, Note_on_c, 0, 55, 60
2, 37965, Note_off_c, 0, 62, 55
2, 38004, Note_off_c, 0, 46, 53
2, 38054, Note_on_c, 0, 58, 59
2, 38060, Note_off_c, 0, 55, 55
2, 38174, Note_on_c, 0, 57, 58
2, 38177, Note_on_c, 0, 41, 53
2, 38240, Note_off_c, 0, 58, 54
2, 38294, Note_on_c, 0, 53, 57
2, 38311, Note_off_c, 0, 57, 54
2, 38410, Note_off_c, 0, 53, 54
2, 38414, Note_on_c, 0, 62, 56
2, 38518, Note_off_c, 0, 41, 53
2, 38520, Note_on_c, 0, 58, 55
2, 38520, Note_on_c, 0, 43, 51
2, 38600, Note_off_c, 0, 62, 54
2, 38638, Note_on_c, 0, 52, 54
2, 38650, Note_off_c, 0, 58, 53
2, 38705, Note_off_c, 0, 43, 52
2, 38758, Note_on_c, 0, 62, 53
2, 38766, Note_off_c, 0, 52, 53
2, 38878, Note_on_c, 0, 55, 52
2, 38878, Note_on_c, 0, 45, 50
2, 38965, Note_off_c, 0, 62, 53
2, 38981, Note_on_c, 0, 52, 51
2, 38987, Note_off_c, 0, 55, 53
2, 39098, Note_off_c, 0, 52, 52
2, 39101, Note_on_c, 0, 61, 50
2, 39221, Note_off_c, 0, 45, 52
2, 39221, Note_on_c, 0, 57, 48
2, 39223, Note_on_c, 0, 38, 75
2, 39300, Note_off_c, 0, 61, 52
2, 39341, Note_on_c, 0, 54, 48
2, 39353, Note_off_c, 0, 57, 52
2, 39440, Note_off_c, 0, 54, 52
2, 39444, Note_on_c, 0, 57, 54
2, 39564, Note_on_c, 0, 60, 60
2, 39567, Note_off_c, 0, 57, 53
2, 39684, Note_on_c, 0, 57, 60
2, 39686, Note_off_c, 0, 60, 55
2, 39801, Note_off_c, 0, 57, 55
2, 39804, Note_on_c, 0, 60, 54
2, 39907, Note_on_c, 0, 63, 48
2, 39921, Note_off_c, 0, 60, 53
2, 40027, Note_on_c, 0, 57, 48
2, 40032, Note_off_c, 0, 63, 52
2, 40147, Note_on_c, 0, 60, 60
2, 40152, Note_off_c, 0, 57, 52
2, 40267, Note_on_c, 0, 66, 96
2, 40282, Note_off_c, 0, 60, 55
2, 40368, Note_off_c, 0, 38, 59
2, 40370, Note_on_c, 0, 42, 60
2, 40488, Note_off_c, 0, 42, 55
2, 40490, Note_on_c, 0, 45, 66
2, 40608, Note_off_c, 0, 66, 63
2, 40610, Note_off_c, 0, 45, 56
2, 40610, Note_on_c, 0, 50, 78
2, 40610, Note_on_c, 0, 58, 60
2, 40728, Note_on_c, 0, 55, 60
2, 40731, Note_off_c, 0, 58, 55
2, 40831, Note_on_c, 0, 58, 66
2, 40951, Note_on_c, 0, 62, 72
2, 40957, Note_off_c, 0, 58, 56
2, 40980, Note_off_c, 0, 55, 55
2, 41071, Note_on_c, 0, 58, 72
2, 41078, Note_off_c, 0, 62, 58
2, 41191, Note_on_c, 0, 62, 66
2, 41290, Note_off_c, 0, 62, 56
2, 41294, Note_on_c, 0, 67, 60
2, 41340, Note_off_c, 0, 58, 58
2, 41414, Note_on_c, 0, 62, 60
2, 41424, Note_off_c, 0, 67, 55
2, 41534, Note_on_c, 0, 67, 72
2, 41546, Note_off_c, 0, 62, 55
2, 41654, Note_on_c, 0, 70, 88
2, 41671, Note_off_c, 0, 67, 58
2, 41758, Note_off_c, 0, 50, 59
2, 41758, Note_on_c, 0, 55, 79
2, 41878, Note_on_c, 0, 58, 81
2, 41970, Note_off_c, 0, 55, 60
2, 41998, Note_off_c, 0, 58, 60
2, 41998, Note_on_c, 0, 61, 84
2, 42118, Note_off_c, 0, 70, 62
2, 42118, Note_on_c, 0, 67, 80
2, 42221, Note_off_c, 0, 67, 60
2, 42221, Note_on_c, 0, 76, 76
2, 42341, Note_off_c, 0, 61, 61
2, 42341, Note_on_c, 0, 70, 72
2, 42343, Note_on_c, 0, 50, 82
2, 42401, Note_off_c, 0, 76, 59
2, 42461, Note_on_c, 0, 67, 72
2, 42473, Note_off_c, 0, 70, 58
2, 42559, Note_off_c, 0, 50, 60
2, 42581, Note_on_c, 0, 79, 78
2, 42584, Note_off_c, 0, 67, 58
2, 42684, Note_on_c, 0, 70, 84
2, 42686, Note_on_c, 0, 61, 76
2, 42760, Note_off_c, 0, 79, 59
2, 42804, Note_on_c, 0, 67, 84
2, 42816, Note_off_c, 0, 70, 61
2, 42924, Note_on_c, 0, 76, 82
2, 42940, Note_off_c, 0, 67, 61
2, 43044, Note_off_c, 0, 61, 59
2, 43044, Note_on_c, 0, 70, 80
2, 43046, Note_on_c, 0, 50, 69
2, 43108, Note_off_c, 0, 76, 60
2, 43147, Note_on_c, 0, 67, 78
2, 43151, Note_off_c, 0, 70, 60
2, 43251, Note_off_c, 0, 50, 57
2, 43262, Note_off_c, 0, 67, 59
2, 43267, Note_on_c, 0, 73, 76
2, 43387, Note_on_c, 0, 70, 74
2, 43387, Note_on_c, 0, 61, 63
2, 43451, Note_off_c, 0, 73, 59
2, 43502, Note_off_c, 0, 70, 59
2, 43507, Note_on_c, 0, 67, 72
2, 43608, Note_on_c, 0, 76, 70
2, 43622, Note_off_c, 0, 67, 58
2, 43728, Note_off_c, 0, 61, 55
2, 43730, Note_on_c, 0, 70, 68
2, 43730, Note_on_c, 0, 50, 56
2, 43796, Note_off_c, 0, 76, 57
2, 43844, Note_off_c, 0, 70, 57
2, 43848, Note_on_c, 0, 67, 65
2, 43945, Note_off_c, 0, 50, 54
2, 43965, Note_off_c, 0, 67, 56
2, 43968, Note_on_c, 0, 79, 63
2, 44074, Note_on_c, 0, 70, 61
2, 44074, Note_on_c, 0, 61, 50
2, 44144, Note_off_c, 0, 79, 55
2, 44191, Note_on_c, 0, 67, 59
2, 44203, Note_off_c, 0, 70, 55
2, 44311, Note_on_c, 0, 76, 57
2, 44321, Note_off_c, 0, 67, 54
2, 44414, Note_off_c, 0, 61, 52
2, 44417, Note_on_c, 0, 70, 55
2, 44417, Note_on_c, 0, 50, 43
2, 44479, Note_off_c, 0, 76, 54
2, 44534, Note_on_c, 0, 67, 53
2, 44551, Note_off_c, 0, 70, 53
2, 44634, Note_off_c, 0, 50, 50
2, 44652, Note_off_c, 0, 67, 53
2, 44654, Note_on_c, 0, 73, 51
2, 44774, Note_on_c, 0, 69, 48
2, 44777, Note_on_c, 0, 60, 36
2, 44840, Note_off_c, 0, 73, 52
2, 44876, Note_off_c, 0, 69, 52
2, 44878, Note_on_c, 0, 66, 48
2, 44998, Note_on_c, 0, 74, 54
2, 45003, Note_off_c, 0, 66, 52
2, 45118, Note_off_c, 0, 60, 49
2, 45118, Note_on_c, 0, 69, 60
2, 45120, Note_on_c, 0, 50, 37
2, 45177, Note_off_c, 0, 74, 53
2, 45238, Note_on_c, 0, 66, 60
2, 45248, Note_off_c, 0, 69, 55
2, 45314, Note_off_c, 0, 50, 49
2, 45341, Note_on_c, 0, 75, 54
2, 45350, Note_off_c, 0, 66, 55
2, 45461, Note_on_c, 0, 69, 48
2, 45463, Note_on_c, 0, 60, 40
2, 45518, Note_off_c, 0, 75, 53
2, 45581, Note_on_c, 0, 66, 48
2, 45594, Note_off_c, 0, 69, 52
2, 45701, Note_on_c, 0, 74, 54
2, 45706, Note_off_c, 0, 66, 52
2, 45804, Note_off_c, 0, 60, 50
2, 45804, Note_on_c, 0, 69, 60
2, 45806, Note_on_c, 0, 50, 43
2, 45854, Note_off_c, 0, 74, 53
2, 45924, Note_on_c, 0, 66, 60
2, 45938, Note_off_c, 0, 69, 55
2, 46015, Note_off_c, 0, 50, 50
2, 46043, Note_off_c, 0, 66, 55
2, 46044, Note_on_c, 0, 72, 54
2, 46164, Note_on_c, 0, 69, 48
2, 46166, Note_on_c, 0, 60, 46
2, 46219, Note_off_c, 0, 72, 53
2, 46266, Note_off_c, 0, 69, 52
2, 46267, Note_on_c, 0, 66, 48
2, 46387, Note_on_c, 0, 74, 54
2, 46404, Note_off_c, 0, 66, 52
2, 46505, Note_off_c, 0, 60, 51
2, 46507, Note_on_c, 0, 69, 60
2, 46507, Note_on_c, 0, 50, 50
2, 46550, Note_off_c, 0, 74, 53
2, 46627, Note_on_c, 0, 66, 60
2, 46641, Note_off_c, 0, 69, 55
2, 46711, Note_off_c, 0, 50, 52
2, 46728, Note_on_c, 0, 75, 54
2, 46735, Note_off_c, 0, 66, 55
2, 46850, Note_on_c, 0, 60, 53
2, 46850, Note_on_c, 0, 69, 48
2, 46888, Note_off_c, 0, 75, 53
2, 46968, Note_on_c, 0, 66, 48
2, 46978, Note_off_c, 0, 69, 52
2, 47088, Note_on_c, 0, 74, 54
2, 47095, Note_off_c, 0, 66, 52
2, 47191, Note_off_c, 0, 60, 53
2, 47194, Note_on_c, 0, 69, 60
2, 47194, Note_on_c, 0, 50, 56
2, 47238, Note_off_c, 0, 74, 53
2, 47311, Note_off_c, 0, 69, 55
2, 47311, Note_on_c, 0, 66, 60
2, 47388, Note_off_c, 0, 50, 54
2, 47431, Note_on_c, 0, 72, 54
2, 47443, Note_off_c, 0, 66, 55
2, 47554, Note_on_c, 0, 58, 60
2, 47554, Note_on_c, 0, 67, 48
2, 47590, Note_off_c, 0, 72, 53
2, 47654, Note_on_c, 0, 62, 48
2, 47664, Note_off_c, 0, 67, 52
2, 47774, Note_on_c, 0, 67, 60
2, 47777, Note_off_c, 0, 62, 52
2, 47894, Note_off_c, 0, 58, 55
2, 47897, Note_on_c, 0, 70, 60
2, 47897, Note_on_c, 0, 50, 58
2, 47901, Note_off_c, 0, 67, 55
2, 48014, Note_on_c, 0, 67, 60
2, 48033, Note_off_c, 0, 70, 55
2, 48112, Note_off_c, 0, 50, 54
2, 48118, Note_on_c, 0, 70, 54
2, 48210, Note_off_c, 0, 67, 55
2, 48238, Note_on_c, 0, 74, 48
2, 48240, Note_on_c, 0, 58, 54
2, 48247, Note_off_c, 0, 70, 53
2, 48358, Note_on_c, 0, 70, 48
2, 48359, Note_off_c, 0, 74, 52
2, 48478, Note_on_c, 0, 74, 52
2, 48581, Note_off_c, 0, 58, 53
2, 48581, Note_on_c, 0, 79, 57
2, 48583, Note_on_c, 0, 50, 51
2, 48590, Note_off_c, 0, 70, 52
2, 48594, Note_off_c, 0, 74, 53
2, 48700, Note_off_c, 0, 79, 54
2, 48701, Note_on_c, 0, 74, 62
2, 48757, Note_off_c, 0, 50, 52
2, 48821, Note_on_c, 0, 79, 67
2, 48880, Note_off_c, 0, 74, 55
2, 48941, Note_on_c, 0, 82, 72
2, 48943, Note_on_c, 0, 55, 48
2, 48950, Note_off_c, 0, 79, 57
2, 49044, Note_on_c, 0, 81, 72
2, 49050, Note_off_c, 0, 82, 58
2, 49158, Note_off_c, 0, 81, 58
2, 49164, Note_on_c, 0, 79, 68
2, 49278, Note_off_c, 0, 79, 57
2, 49284, Note_on_c, 0, 77, 64
2, 49284, Note_on_c, 0, 50, 50
2, 49296, Note_off_c, 0, 55, 52
2, 49404, Note_on_c, 0, 76, 60
2, 49413, Note_off_c, 0, 77, 56
2, 49443, Note_off_c, 0, 50, 52
2, 49505, Note_off_c, 0, 76, 55
2, 49505, Note_on_c, 0, 74, 60
2, 49627, Note_on_c, 0, 73, 60
2, 49627, Note_on_c, 0, 55, 57
2, 49628, Note_off_c, 0, 74, 55
2, 49745, Note_on_c, 0, 69, 64
2, 49760, Note_off_c, 0, 73, 55
2, 49865, Note_on_c, 0, 73, 68
2, 49920, Note_off_c, 0, 69, 56
2, 49970, Note_on_c, 0, 76, 72
2, 49970, Note_on_c, 0, 50, 64
2, 49974, Note_off_c, 0, 73, 57
2, 49980, Note_off_c, 0, 55, 54
2, 50088, Note_on_c, 0, 73, 76
2, 50098, Note_off_c, 0, 76, 58
2, 50139, Note_off_c, 0, 50, 56
2, 50208, Note_on_c, 0, 76, 80
2, 50260, Note_off_c, 0, 73, 59
2, 50311, Note_on_c, 0, 79, 84
2, 50314, Note_on_c, 0, 52, 72
2, 50315, Note_off_c, 0, 76, 60
2, 50426, Note_off_c, 0, 79, 61
2, 50431, Note_on_c, 0, 76, 84
2, 50547, Note_off_c, 0, 76, 61
2, 50551, Note_on_c, 0, 74, 76
2, 50671, Note_on_c, 0, 73, 68
2, 50674, Note_on_c, 0, 50, 68
2, 50678, Note_off_c, 0, 74, 59
2, 50683, Note_off_c, 0, 52, 58
2, 50774, Note_on_c, 0, 71, 60
2, 50850, Note_off_c, 0, 73, 57
2, 50851, Note_off_c, 0, 50, 57
2, 50894, Note_on_c, 0, 69, 60
2, 50895, Note_off_c, 0, 71, 55
2, 51014, Note_on_c, 0, 67, 60
2, 51017, Note_on_c, 0, 52, 60
2, 51031, Note_off_c, 0, 69, 55
2, 51134, Note_on_c, 0, 64, 64
2, 51145, Note_off_c, 0, 67, 55
2, 51238, Note_on_c, 0, 67, 68
2, 51350, Note_off_c, 0, 64, 56
2, 51358, Note_on_c, 0, 70, 72
2, 51359, Note_off_c, 0, 67, 57
2, 51360, Note_on_c, 0, 50, 53
2, 51370, Note_off_c, 0, 52, 55
2, 51471, Note_off_c, 0, 70, 58
2, 51478, Note_on_c, 0, 67, 72
2, 51536, Note_off_c, 0, 50, 53
2, 51598, Note_on_c, 0, 70, 66
2, 51670, Note_off_c, 0, 67, 58
2, 51701, Note_on_c, 0, 73, 60
2, 51703, Note_on_c, 0, 52, 48
2, 51712, Note_off_c, 0, 70, 56
2, 51821, Note_off_c, 0, 73, 55
2, 51821, Note_on_c, 0, 67, 60
2, 51941, Note_on_c, 0, 76, 72
2, 51943, Note_off_c, 0, 67, 55
2, 52061, Note_on_c, 0, 73, 84
2, 52063, Note_on_c, 0, 50, 50
2, 52073, Note_off_c, 0, 52, 52
2, 52125, Note_off_c, 0, 76, 58
2, 52162, Note_on_c, 0, 70, 84
2, 52183, Note_off_c, 0, 73, 61
2, 52234, Note_off_c, 0, 50, 52
2, 52282, Note_on_c, 0, 76, 78
2, 52285, Note_off_c, 0, 70, 61
2, 52404, Note_on_c, 0, 73, 72
2, 52404, Note_on_c, 0, 52, 53
2, 52457, Note_off_c, 0, 76, 59
2, 52522, Note_on_c, 0, 69, 72
2, 52535, Note_off_c, 0, 73, 58
2, 52625, Note_on_c, 0, 76, 78
2, 52635, Note_off_c, 0, 69, 58
2, 52747, Note_on_c, 0, 73, 84
2, 52747, Note_on_c, 0, 50, 56
2, 52757, Note_off_c, 0, 52, 53
2, 52811, Note_off_c, 0, 76, 59
2, 52865, Note_on_c, 0, 67, 84
2, 52889, Note_off_c, 0, 73, 61
2, 52922, Note_off_c, 0, 50, 54
2, 52985, Note_on_c, 0, 76, 78
2, 53003, Note_off_c, 0, 67, 61
2, 53090, Note_on_c, 0, 72, 72
2, 53090, Note_on_c, 0, 54, 60
2, 53152, Note_off_c, 0, 76, 59
2, 53208, Note_on_c, 0, 69, 72
2, 53233, Note_off_c, 0, 72, 58
2, 53328, Note_on_c, 0, 74, 72
2, 53352, Note_off_c, 0, 69, 58
2, 53450, Note_on_c, 0, 70, 71
2, 53450, Note_on_c, 0, 50, 60
2, 53460, Note_off_c, 0, 54, 55
2, 53522, Note_off_c, 0, 74, 58
2, 53551, Note_on_c, 0, 67, 71
2, 53569, Note_off_c, 0, 70, 58
2, 53628, Note_off_c, 0, 50, 55
2, 53671, Note_on_c, 0, 75, 70
2, 53695, Note_off_c, 0, 67, 58
2, 53791, Note_on_c, 0, 69, 70
2, 53794, Note_on_c, 0, 54, 58
2, 53865, Note_off_c, 0, 75, 57
2, 53911, Note_on_c, 0, 66, 69
2, 53929, Note_off_c, 0, 69, 57
2, 54014, Note_on_c, 0, 74, 69
2, 54015, Note_off_c, 0, 66, 57
2, 54134, Note_off_c, 0, 54, 54
2, 54134, Note_on_c, 0, 69, 68
2, 54137, Note_on_c, 0, 50, 57
2, 54210, Note_off_c, 0, 74, 57
2, 54254, Note_on_c, 0, 66, 68
2, 54274, Note_off_c, 0, 69, 57
2, 54374, Note_on_c, 0, 72, 67
2, 54398, Note_off_c, 0, 66, 57
2, 54478, Note_on_c, 0, 67, 67
2, 54478, Note_on_c, 0, 55, 55
2, 54530, Note_off_c, 0, 72, 57
2, 54598, Note_on_c, 0, 62, 66
2, 54615, Note_off_c, 0, 67, 57
2, 54718, Note_on_c, 0, 70, 66
2, 54725, Note_off_c, 0, 62, 56
2, 54838, Note_off_c, 0, 55, 53
2, 54838, Note_on_c, 0, 67, 65
2, 54840, Note_on_c, 0, 57, 53
2, 54893, Note_off_c, 0, 70, 56
2, 54941, Note_on_c, 0, 65, 65
2, 54947, Note_off_c, 0, 67, 56
2, 55061, Note_on_c, 0, 70, 64
2, 55069, Note_off_c, 0, 65, 56
2, 55181, Note_off_c, 0, 57, 53
2, 55181, Note_on_c, 0, 67, 64
2, 55181, Note_on_c, 0, 55, 52
2, 55238, Note_off_c, 0, 70, 56
2, 55301, Note_on_c, 0, 63, 63
2, 55308, Note_off_c, 0, 67, 56
2, 55402, Note_on_c, 0, 70, 63
2, 55422, Note_off_c, 0, 63, 55
2, 55522, Note_off_c, 0, 55, 53
2, 55524, Note_on_c, 0, 67, 62
2, 55524, Note_on_c, 0, 53, 50
2, 55570, Note_off_c, 0, 70, 55
2, 55642, Note_on_c, 0, 62, 62
2, 55670, Note_off_c, 0, 67, 55
2, 55762, Note_on_c, 0, 70, 61
2, 55783, Note_off_c, 0, 62, 55
2, 55865, Note_off_c, 0, 53, 52
2, 55867, Note_on_c, 0, 67, 60
2, 55867, Note_on_c, 0, 52, 48
2, 55911, Note_off_c, 0, 70, 55
2, 55985, Note_on_c, 0, 61, 60
2, 55992, Note_off_c, 0, 67, 55
2, 56105, Note_on_c, 0, 70, 61
2, 56120, Note_off_c, 0, 61, 55
2, 56225, Note_off_c, 0, 52, 52
2, 56227, Note_on_c, 0, 64, 62
2, 56227, Note_on_c, 0, 55, 49
2, 56235, Note_off_c, 0, 70, 55
2, 56328, Note_on_c, 0, 61, 63
2, 56346, Note_off_c, 0, 64, 55
2, 56448, Note_on_c, 0, 70, 64
2, 56477, Note_off_c, 0, 61, 55
2, 56568, Note_off_c, 0, 55, 52
2, 56568, Note_on_c, 0, 64, 65
2, 56570, Note_on_c, 0, 53, 51
2, 56590, Note_off_c, 0, 70, 56
2, 56671, Note_on_c, 0, 61, 66
2, 56692, Note_off_c, 0, 64, 56
2, 56791, Note_on_c, 0, 69, 67
2, 56813, Note_off_c, 0, 61, 56
2, 56911, Note_off_c, 0, 53, 52
2, 56911, Note_on_c, 0, 64, 68
2, 56914, Note_on_c, 0, 52, 54
2, 56934, Note_off_c, 0, 69, 57
2, 57031, Note_on_c, 0, 61, 69
2, 57045, Note_off_c, 0, 64, 57
2, 57134, Note_on_c, 0, 67, 72
2, 57138, Note_off_c, 0, 61, 57
2, 57185, Note_off_c, 0, 50, 54
2, 57238, Note_off_c, 0, 52, 53
2, 57244, Note_on_c, 0, 44, 66
2, 57249, Note_off_c, 0, 67, 58
2, 57252, Note_on_c, 0, 62, 72
2, 57254, Note_on_c, 0, 50, 56
2, 57374, Note_on_c, 0, 59, 70
2, 57388, Note_off_c, 0, 62, 58
2, 57494, Note_on_c, 0, 65, 68
2, 57511, Note_off_c, 0, 59, 57
2, 57598, Note_off_c, 0, 50, 54
2, 57598, Note_on_c, 0, 62, 66
2, 57600, Note_on_c, 0, 52, 58
2, 57608, Note_off_c, 0, 65, 57
2, 57718, Note_on_c, 0, 61, 64
2, 57727, Note_off_c, 0, 62, 56
2, 57838, Note_on_c, 0, 65, 62
2, 57852, Note_off_c, 0, 61, 56
2, 57880, Note_off_c, 0, 52, 54
2, 57958, Note_on_c, 0, 62, 60
2, 57958, Note_on_c, 0, 53, 60
2, 57965, Note_off_c, 0, 65, 55
2, 58058, Note_on_c, 0, 59, 58
2, 58067, Note_off_c, 0, 62, 55
2, 58178, Note_on_c, 0, 65, 56
2, 58194, Note_off_c, 0, 59, 54
2, 58291, Note_on_c, 0, 45, 70
2, 58301, Note_off_c, 0, 65, 54
2, 58301, Note_on_c, 0, 62, 54
2, 58378, Note_off_c, 0, 44, 56
2, 58418, Note_on_c, 0, 57, 52
2, 58421, Note_off_c, 0, 62, 53
2, 58522, Note_on_c, 0, 65, 50
2, 58529, Note_off_c, 0, 57, 53
2, 58636, Note_on_c, 0, 46, 58
2, 58644, Note_on_c, 0, 61, 48
2, 58646, Note_on_c, 0, 52, 48
2, 58655, Note_off_c, 0, 65, 52
2, 58669, Note_off_c, 0, 45, 57
2, 58708, Note_off_c, 0, 53, 55
2, 58762, Note_on_c, 0, 55, 48
2, 58763, Note_off_c, 0, 61, 52
2, 58882, Note_off_c, 0, 55, 52
2, 58882, Note_on_c, 0, 64, 54
2, 58920, Note_off_c, 0, 52, 52
2, 58987, Note_on_c, 0, 61, 60
2, 58987, Note_on_c, 0, 55, 49
2, 58993, Note_off_c, 0, 64, 53
2, 59105, Note_on_c, 0, 58, 60
2, 59112, Note_off_c, 0, 61, 55
2, 59225, Note_on_c, 0, 64, 54
2, 59226, Note_off_c, 0, 58, 55
2, 59345, Note_off_c, 0, 55, 52
2, 59347, Note_on_c, 0, 53, 53
2, 59347, Note_on_c, 0, 61, 48
2, 59361, Note_off_c, 0, 64, 53
2, 59448, Note_on_c, 0, 57, 48
2, 59460, Note_off_c, 0, 61, 52
2, 59568, Note_on_c, 0, 64, 54
2, 59576, Note_off_c, 0, 57, 52
2, 59620, Note_off_c, 0, 53, 53
2, 59688, Note_on_c, 0, 61, 60
2, 59689, Note_off_c, 0, 64, 53
2, 59690, Note_on_c, 0, 52, 57
2, 59808, Note_on_c, 0, 55, 60
2, 59828, Note_off_c, 0, 61, 55
2, 59909, Note_off_c, 0, 55, 55
2, 59911, Note_on_c, 0, 64, 54
2, 60034, Note_on_c, 0, 53, 61
2, 60034, Note_on_c, 0, 59, 48
2, 60048, Note_off_c, 0, 64, 53
2, 60092, Note_off_c, 0, 52, 54
2, 60151, Note_on_c, 0, 56, 48
2, 60166, Note_off_c, 0, 59, 52
2, 60189, Note_off_c, 0, 46, 54
2, 60240, Note_off_c, 0, 53, 55
2, 60268, Note_off_c, 0, 56, 52
2, 60271, Note_on_c, 0, 62, 54
2, 60373, Note_off_c, 0, 62, 53
2, 60374, Note_on_c, 0, 61, 60
2, 60377, Note_on_c, 0, 52, 65
2, 60494, Note_on_c, 0, 56, 60
2, 60498, Note_off_c, 0, 61, 55
2, 60614, Note_on_c, 0, 64, 54
2, 60620, Note_off_c, 0, 56, 55
2, 60734, Note_on_c, 0, 62, 48
2, 60735, Note_off_c, 0, 64, 53
2, 60737, Note_on_c, 0, 53, 69
2, 60798, Note_off_c, 0, 52, 56
2, 60838, Note_on_c, 0, 56, 48
2, 60850, Note_off_c, 0, 62, 52
2, 60955, Note_off_c, 0, 56, 52
2, 60958, Note_on_c, 0, 65, 50
2, 61068, Note_on_c, 0, 55, 53
2, 61078, Note_on_c, 0, 46, 72
2, 61083, Note_off_c, 0, 65, 52
2, 61198, Note_on_c, 0, 52, 72
2, 61242, Note_off_c, 0, 53, 57
2, 61298, Note_off_c, 0, 52, 58
2, 61298, Note_on_c, 0, 50, 72
2, 61418, Note_off_c, 0, 46, 58
2, 61418, Note_off_c, 0, 50, 58
2, 61421, Note_on_c, 0, 49, 73
2, 61421, Note_on_c, 0, 45, 73
2, 61528, Note_off_c, 0, 55, 53
2, 61538, Note_on_c, 0, 52, 63
2, 61658, Note_on_c, 0, 55, 66
2, 61667, Note_off_c, 0, 52, 55
2, 61762, Note_off_c, 0, 55, 56
2, 61764, Note_on_c, 0, 52, 76
2, 61764, Note_on_c, 0, 61, 68
2, 61818, Note_off_c, 0, 49, 58
2, 61882, Note_on_c, 0, 55, 71
2, 61890, Note_off_c, 0, 61, 57
2, 62002, Note_on_c, 0, 61, 73
2, 62011, Note_off_c, 0, 55, 58
2, 62124, Note_on_c, 0, 55, 78
2, 62124, Note_on_c, 0, 64, 76
2, 62142, Note_off_c, 0, 61, 58
2, 62163, Note_off_c, 0, 52, 59
2, 62225, Note_on_c, 0, 61, 78
2, 62241, Note_off_c, 0, 64, 59
2, 62345, Note_on_c, 0, 64, 81
2, 62359, Note_off_c, 0, 61, 59
2, 62455, Note_on_c, 0, 67, 85
2, 62463, Note_off_c, 0, 55, 59
2, 62467, Note_on_c, 0, 58, 81
2, 62473, Note_off_c, 0, 64, 60
2, 62585, Note_on_c, 0, 49, 82
2, 62635, Note_off_c, 0, 45, 58
2, 62688, Note_on_c, 0, 52, 83
2, 62691, Note_off_c, 0, 49, 60
2, 62810, Note_on_c, 0, 57, 84
2, 62810, Note_on_c, 0, 65, 60
2, 62814, Note_off_c, 0, 52, 60
2, 62823, Note_off_c, 0, 67, 61
2, 62845, Note_off_c, 0, 58, 60
2, 62928, Note_on_c, 0, 62, 60
2, 62940, Note_off_c, 0, 65, 55
2, 63031, Note_off_c, 0, 62, 55
2, 63031, Note_on_c, 0, 65, 63
2, 63151, Note_on_c, 0, 69, 66
2, 63151, Note_on_c, 0, 62, 60
2, 63153, Note_off_c, 0, 65, 55
2, 63265, Note_off_c, 0, 69, 56
2, 63271, Note_on_c, 0, 65, 69
2, 63391, Note_on_c, 0, 69, 72
2, 63397, Note_off_c, 0, 65, 57
2, 63494, Note_on_c, 0, 74, 75
2, 63494, Note_on_c, 0, 65, 66
2, 63504, Note_off_c, 0, 69, 58
2, 63532, Note_off_c, 0, 62, 55
2, 63614, Note_on_c, 0, 69, 78
2, 63622, Note_off_c, 0, 74, 59
2, 63728, Note_off_c, 0, 69, 59
2, 63734, Note_on_c, 0, 74, 81
2, 63844, Note_on_c, 0, 77, 90
2, 63853, Note_off_c, 0, 74, 60
2, 63854, Note_on_c, 0, 69, 75
2, 63877, Note_off_c, 0, 65, 56
2, 63955, Note_on_c, 0, 62, 78
2, 64070, Note_off_c, 0, 57, 61
2, 64075, Note_off_c, 0, 62, 59
2, 64075, Note_on_c, 0, 65, 81
2, 64195, Note_off_c, 0, 65, 60
2, 64198, Note_on_c, 0, 68, 84
2, 64225, Note_off_c, 0, 69, 59
2, 64305, Note_off_c, 0, 77, 62
2, 64315, Note_on_c, 0, 71, 60
2, 64435, Note_on_c, 0, 74, 62
2, 64446, Note_off_c, 0, 71, 55
2, 64558, Note_off_c, 0, 74, 55
2, 64558, Note_on_c, 0, 77, 64
2, 64577, Note_off_c, 0, 68, 61
2, 64675, Note_on_c, 0, 74, 66
2, 64676, Note_off_c, 0, 77, 56
2, 64814, Note_on_c, 0, 77, 68
2, 64817, Note_off_c, 0, 74, 56
2, 64934, Note_on_c, 0, 80, 70
2, 64936, Note_off_c, 0, 77, 57
2, 65071, Note_on_c, 0, 77, 73
2, 65078, Note_off_c, 0, 80, 57
2, 65208, Note_on_c, 0, 80, 75
2, 65217, Note_off_c, 0, 77, 58
2, 65345, Note_on_c, 0, 83, 77
2, 65355, Note_off_c, 0, 80, 59
2, 65482, Note_on_c, 0, 80, 79
2, 65491, Note_off_c, 0, 83, 59
2, 65614, Note_off_c, 0, 80, 60
2, 65618, Note_on_c, 0, 77, 81
2, 65774, Note_on_c, 0, 82, 84
2, 65790, Note_off_c, 0, 77, 60
2, 65928, Note_on_c, 0, 79, 84
2, 65950, Note_off_c, 0, 82, 61
2, 66065, Note_on_c, 0, 76, 82
2, 66077, Note_off_c, 0, 79, 61
2, 66202, Note_on_c, 0, 81, 79
2, 66209, Note_off_c, 0, 76, 60
2, 66338, Note_on_c, 0, 78, 76
2, 66347, Note_off_c, 0, 81, 60
2, 66458, Note_on_c, 0, 75, 73
2, 66468, Note_off_c, 0, 78, 59
2, 66591, Note_off_c, 0, 75, 58
2, 66595, Note_on_c, 0, 80, 71
2, 66715, Note_on_c, 0, 77, 68
2, 66729, Note_off_c, 0, 80, 58
2, 66835, Note_on_c, 0, 74, 65
2, 66845, Note_off_c, 0, 77, 57
2, 66955, Note_on_c, 0, 79, 62
2, 66960, Note_off_c, 0, 74, 56
2, 67058, Note_on_c, 0, 76, 60
2, 67065, Note_off_c, 0, 79, 55
2, 67178, Note_on_c, 0, 73, 57
2, 67183, Note_off_c, 0, 76, 55
2, 67279, Note_off_c, 0, 73, 54
2, 67282, Note_on_c, 0, 78, 54
2, 67385, Note_on_c, 0, 75, 51
2, 67401, Note_off_c, 0, 78, 53
2, 67488, Note_off_c, 0, 75, 52
2, 67488, Note_on_c, 0, 72, 48
2, 67605, Note_off_c, 0, 72, 52
2, 67608, Note_on_c, 0, 77, 48
2, 67724, Note_off_c, 0, 77, 52
2, 67728, Note_on_c, 0, 74, 52
2, 67831, Note_on_c, 0, 71, 56
2, 67834, Note_off_c, 0, 74, 53
2, 67967, Note_off_c, 0, 71, 54
2, 67968, Note_on_c, 0, 76, 60
2, 68088, Note_on_c, 0, 73, 64
2, 68099, Note_off_c, 0, 76, 55
2, 68208, Note_on_c, 0, 70, 68
2, 68213, Note_off_c, 0, 73, 56
2, 68345, Note_on_c, 0, 75, 72
2, 68348, Note_off_c, 0, 70, 57
2, 68482, Note_on_c, 0, 72, 76
2, 68485, Note_off_c, 0, 75, 58
2, 68615, Note_off_c, 0, 72, 59
2, 68618, Note_on_c, 0, 69, 80
2, 68755, Note_on_c, 0, 74, 84
2, 68760, Note_off_c, 0, 69, 60
2, 69660, Note_on_c, 0, 68, 72
2, 69670, Note_on_c, 0, 65, 60
2, 69671, Note_on_c, 0, 53, 52
2, 69673, Note_on_c, 0, 56, 54
2, 69674, Note_on_c, 0, 47, 58
2, 69675, Note_on_c, 0, 50, 50
2, 69679, Note_on_c, 0, 62, 57
2, 69820, Control_c, 0, 64, 127
2, 70370, Note_off_c, 0, 65, 55
2, 70388, Note_off_c, 0, 56, 53
2, 70395, Note_off_c, 0, 50, 52
2, 70401, Note_off_c, 0, 53, 53
2, 70423, Note_off_c, 0, 62, 54
2, 70476, Note_off_c, 0, 68, 58
2, 70491, Note_off_c, 0, 47, 54
2, 70638, Note_on_c, 0, 69, 70
2, 70640, Note_on_c, 0, 57, 54
2, 70645, Note_on_c, 0, 45, 52
2, 70646, Note_on_c, 0, 62, 56
2, 70648, Note_on_c, 0, 50, 57
2, 70648, Note_on_c, 0, 65, 58
2, 70648, Note_on_c, 0, 53, 50
2, 70681, Control_c, 0, 64, 0
2, 70830, Control_c, 0, 64, 127
2, 71360, Note_off_c, 0, 65, 54
2, 71384, Note_off_c, 0, 50, 54
2, 71406, Note_off_c, 0, 53, 52
2, 71497, Note_off_c, 0, 62, 54
2, 71697, Note_on_c, 0, 73, 60
2, 71702, Note_off_c, 0, 74, 61
2, 71710, Note_on_c, 0, 67, 48
2, 71712, Note_on_c, 0, 64, 45
2, 71715, Note_on_c, 0, 52, 42
2, 71751, Control_c, 0, 64, 0
2, 71900, Control_c, 0, 64, 127
2, 72083, Note_off_c, 0, 52, 50
2, 72097, Note_off_c, 0, 67, 52
2, 72108, Note_off_c, 0, 64, 51
2, 72242, Note_off_c, 0, 73, 55
2, 72341, Note_off_c, 0, 69, 57
2, 72467, Note_off_c, 0, 45, 53
2, 72507, Note_off_c, 0, 57, 53
2, 72928, Note_on_c, 0, 74, 42
2, 72941, Note_on_c, 0, 50, 36
2, 72942, Note_on_c, 0, 66, 28
2, 72943, Note_on_c, 0, 69, 30
2, 72946, Note_on_c, 0, 38, 36
2, 72949, Note_on_c, 0, 62, 25
2, 73051, Control_c, 0, 64, 0
2, 73230, Control_c, 0, 64, 127
2, 74610, Note_off_c, 0, 50, 49
2, 74762, Note_off_c, 0, 38, 49
2, 74832, Note_off_c, 0, 62, 46
2, 74835, Note_off_c, 0, 69, 47
2, 74965, Note_off_c, 0, 66, 47
2, 75242, Note_off_c, 0, 74, 50
2, 75481, Control_c, 0, 64, 0
2, 77602, Note_on_c, 0, 62, 48
2, 78029, Note_on_c, 0, 64, 48
2, 78041, Note_off_c, 0, 62, 52
2, 78458, Note_on_c, 0, 65, 54
2, 78470, Note_off_c, 0, 64, 52
2, 78888, Note_on_c, 0, 67, 60
2, 78898, Note_off_c, 0, 65, 53
2, 79315, Note_on_c, 0, 64, 48
2, 79352, Note_off_c, 0, 67, 55
2, 79745, Note_on_c, 0, 65, 48
2, 79754, Note_off_c, 0, 64, 52
2, 79945, Note_off_c, 0, 65, 52
2, 79968, Note_on_c, 0, 62, 54
2, 80136, Note_off_c, 0, 62, 53
2, 80172, Note_on_c, 0, 61, 60
2, 80360, Note_off_c, 0, 61, 55
2, 80395, Note_on_c, 0, 62, 66
2, 80599, Note_off_c, 0, 62, 56
2, 80602, Note_on_c, 0, 70, 72
2, 80710, Note_off_c, 0, 70, 58
2, 81458, Note_on_c, 0, 69, 72
2, 81543, Note_off_c, 0, 69, 58
2, 81545, Note_on_c, 0, 67, 72
2, 81612, Note_on_c, 0, 69, 71
2, 81628, Note_off_c, 0, 67, 58
2, 81682, Note_on_c, 0, 67, 70
2, 81685, Note_off_c, 0, 69, 58
2, 81749, Note_on_c, 0, 69, 69
2, 81753, Note_off_c, 0, 67, 57
2, 81818, Note_on_c, 0, 67, 68
2, 81826, Note_off_c, 0, 69, 57
2, 81886, Note_on_c, 0, 69, 67
2, 81900, Note_off_c, 0, 67, 57
2, 81972, Note_on_c, 0, 67, 66
2, 81984, Note_off_c, 0, 69, 57
2, 82042, Note_on_c, 0, 69, 65
2, 82049, Note_off_c, 0, 67, 56
2, 82109, Note_on_c, 0, 67, 64
2, 82118, Note_off_c, 0, 69, 56
2, 82172, Note_off_c, 0, 67, 56
2, 82178, Note_on_c, 0, 65, 63
2, 82246, Note_on_c, 0, 67, 62
2, 82257, Note_off_c, 0, 65, 55
2, 82332, Note_on_c, 0, 69, 60
2, 82360, Note_off_c, 0, 67, 55
2, 82759, Note_on_c, 0, 57, 60
2, 83189, Note_off_c, 0, 57, 55
2, 83189, Note_on_c, 0, 59, 60
2, 83395, Note_off_c, 0, 69, 55
2, 83395, Note_on_c, 0, 67, 56
2, 83608, Note_off_c, 0, 67, 54
2, 83618, Note_off_c, 0, 59, 55
2, 83618, Note_on_c, 0, 65, 52
2, 83621, Note_on_c, 0, 60, 52
2, 83805, Note_off_c, 0, 65, 53
2, 83825, Note_on_c, 0, 64, 48
2, 84042, Note_off_c, 0, 64, 52
2, 84046, Note_off_c, 0, 60, 53
2, 84048, Note_on_c, 0, 62, 56
2, 84048, Note_on_c, 0, 67, 48
2, 84242, Note_off_c, 0, 67, 52
2, 84252, Note_on_c, 0, 65, 54
2, 84475, Note_off_c, 0, 65, 53
2, 84478, Note_on_c, 0, 59, 64
2, 84478, Note_on_c, 0, 64, 60
2, 84500, Note_off_c, 0, 62, 54
2, 84670, Note_off_c, 0, 64, 55
2, 84682, Note_on_c, 0, 62, 66
2, 84867, Note_off_c, 0, 62, 56
2, 84905, Note_off_c, 0, 59, 56
2, 84905, Note_on_c, 0, 64, 72
2, 84905, Note_on_c, 0, 60, 70
2, 85070, Note_off_c, 0, 60, 57
2, 85109, Note_on_c, 0, 57, 72
2, 85297, Note_off_c, 0, 57, 58
2, 85332, Note_off_c, 0, 64, 58
2, 85334, Note_on_c, 0, 72, 68
2, 85334, Note_on_c, 0, 56, 66
2, 85510, Note_off_c, 0, 56, 56
2, 85538, Note_on_c, 0, 57, 64
2, 85760, Note_off_c, 0, 57, 56
2, 85762, Note_on_c, 0, 65, 80
2, 85863, Note_off_c, 0, 65, 60
2, 85966, Note_off_c, 0, 72, 57
2, 85966, Note_on_c, 0, 71, 56
2, 86146, Note_off_c, 0, 71, 54
2, 86189, Note_on_c, 0, 69, 52
2, 86372, Note_off_c, 0, 69, 53
2, 86412, Note_on_c, 0, 71, 48
2, 86600, Note_off_c, 0, 71, 52
2, 86616, Note_on_c, 0, 71, 48
2, 86618, Note_on_c, 0, 64, 73
2, 86686, Note_on_c, 0, 62, 72
2, 86692, Note_off_c, 0, 64, 58
2, 86755, Note_on_c, 0, 64, 71
2, 86766, Note_off_c, 0, 62, 58
2, 86801, Note_off_c, 0, 71, 52
2, 86842, Note_on_c, 0, 69, 54
2, 86844, Note_on_c, 0, 62, 70
2, 86852, Note_off_c, 0, 64, 58
2, 86909, Note_on_c, 0, 64, 69
2, 86912, Note_off_c, 0, 62, 57
2, 86978, Note_on_c, 0, 62, 68
2, 86984, Note_off_c, 0, 64, 57
2, 87035, Note_off_c, 0, 69, 53
2, 87048, Note_on_c, 0, 64, 67
2, 87048, Note_on_c, 0, 68, 61
2, 87049, Note_off_c, 0, 62, 57
2, 87115, Note_on_c, 0, 62, 66
2, 87121, Note_off_c, 0, 64, 57
2, 87185, Note_off_c, 0, 62, 56
2, 87185, Note_on_c, 0, 64, 65
2, 87250, Note_off_c, 0, 68, 55
2, 87251, Note_on_c, 0, 62, 64
2, 87264, Note_off_c, 0, 64, 56
2, 87271, Note_on_c, 0, 69, 67
2, 87334, Note_off_c, 0, 62, 56
2, 87338, Note_on_c, 0, 60, 63
2, 87406, Note_on_c, 0, 62, 62
2, 87415, Note_off_c, 0, 60, 55
2, 87450, Note_off_c, 0, 69, 57
2, 87475, Note_on_c, 0, 69, 72
2, 87475, Note_on_c, 0, 64, 60
2, 87510, Note_off_c, 0, 62, 55
2, 87661, Note_off_c, 0, 69, 58
2, 87698, Note_on_c, 0, 67, 72
2, 87892, Note_off_c, 0, 67, 58
2, 87902, Note_on_c, 0, 66, 68
2, 88103, Note_off_c, 0, 66, 57
2, 88126, Note_on_c, 0, 67, 63
2, 88290, Note_off_c, 0, 67, 55
2, 88332, Note_on_c, 0, 76, 79
2, 88446, Note_off_c, 0, 76, 60
2, 88540, Note_off_c, 0, 64, 55
2, 88555, Note_on_c, 0, 62, 53
2, 88750, Note_off_c, 0, 62, 53
2, 88762, Note_on_c, 0, 61, 48
2, 88965, Note_off_c, 0, 61, 52
2, 88982, Note_on_c, 0, 59, 48
2, 89179, Note_off_c, 0, 59, 52
2, 89189, Note_on_c, 0, 62, 50
2, 89191, Note_on_c, 0, 67, 54
2, 89394, Note_off_c, 0, 62, 52
2, 89412, Note_on_c, 0, 61, 52
2, 89589, Note_off_c, 0, 61, 53
2, 89618, Note_on_c, 0, 59, 55
2, 89830, Note_off_c, 0, 59, 53
2, 89842, Note_on_c, 0, 57, 57
2, 90031, Note_off_c, 0, 57, 54
2, 90048, Note_on_c, 0, 65, 60
2, 90058, Note_on_c, 0, 62, 55
2, 90070, Note_off_c, 0, 67, 53
2, 90482, Note_on_c, 0, 74, 60
2, 90492, Note_off_c, 0, 65, 55
2, 90492, Note_on_c, 0, 50, 54
2, 90790, Note_off_c, 0, 62, 53
2, 90922, Note_on_c, 0, 52, 58
2, 90950, Note_off_c, 0, 50, 53
2, 91116, Note_off_c, 0, 74, 55
2, 91126, Note_on_c, 0, 72, 67
2, 91339, Note_off_c, 0, 72, 57
2, 91349, Note_off_c, 0, 52, 54
2, 91351, Note_on_c, 0, 70, 69
2, 91351, Note_on_c, 0, 53, 60
2, 91542, Note_off_c, 0, 70, 57
2, 91555, Note_on_c, 0, 69, 72
2, 91750, Note_off_c, 0, 69, 58
2, 91778, Note_on_c, 0, 72, 74
2, 91781, Note_on_c, 0, 55, 66
2, 91810, Note_off_c, 0, 53, 55
2, 91977, Note_off_c, 0, 72, 59
2, 91982, Note_on_c, 0, 70, 76
2, 92175, Note_off_c, 0, 70, 59
2, 92206, Note_off_c, 0, 55, 56
2, 92208, Note_on_c, 0, 69, 79
2, 92208, Note_on_c, 0, 52, 72
2, 92410, Note_off_c, 0, 69, 60
2, 92412, Note_on_c, 0, 67, 81
2, 92604, Note_off_c, 0, 67, 60
2, 92635, Note_off_c, 0, 52, 58
2, 92635, Note_on_c, 0, 69, 84
2, 92638, Note_on_c, 0, 53, 78
2, 92802, Note_off_c, 0, 53, 59
2, 92839, Note_on_c, 0, 50, 80
2, 93034, Note_off_c, 0, 50, 60
2, 93062, Note_on_c, 0, 65, 60
2, 93065, Note_on_c, 0, 49, 70
2, 93240, Note_off_c, 0, 49, 57
2, 93269, Note_on_c, 0, 50, 62
2, 93490, Note_off_c, 0, 69, 61
2, 93490, Note_off_c, 0, 50, 55
2, 93492, Note_on_c, 0, 67, 63
2, 93494, Note_on_c, 0, 58, 82
2, 93599, Note_off_c, 0, 58, 60
2, 93696, Note_off_c, 0, 65, 55
2, 93698, Note_on_c, 0, 64, 66
2, 93876, Note_off_c, 0, 64, 56
2, 93919, Note_on_c, 0, 62, 69
2, 94083, Note_off_c, 0, 62, 57
2, 94126, Note_on_c, 0, 64, 72
2, 94292, Note_off_c, 0, 64, 58
2, 94349, Note_on_c, 0, 64, 75
2, 94349, Note_on_c, 0, 57, 72
2, 94418, Note_on_c, 0, 55, 72
2, 94440, Note_off_c, 0, 57, 58
2, 94486, Note_on_c, 0, 57, 71
2, 94520, Note_off_c, 0, 55, 58
2, 94560, Note_off_c, 0, 64, 59
2, 94572, Note_on_c, 0, 62, 78
2, 94574, Note_on_c, 0, 55, 70
2, 94583, Note_off_c, 0, 57, 58
2, 94639, Note_on_c, 0, 57, 69
2, 94650, Note_off_c, 0, 55, 57
2, 94709, Note_on_c, 0, 55, 68
2, 94720, Note_off_c, 0, 57, 57
2, 94770, Note_off_c, 0, 62, 59
2, 94778, Note_on_c, 0, 61, 81
2, 94778, Note_on_c, 0, 57, 67
2, 94800, Note_off_c, 0, 55, 57
2, 94846, Note_on_c, 0, 55, 66
2, 94880, Note_off_c, 0, 57, 57
2, 94915, Note_on_c, 0, 57, 65
2, 94960, Note_off_c, 0, 55, 56
2, 94970, Note_off_c, 0, 61, 60
2, 95002, Note_on_c, 0, 62, 84
2, 95002, Note_on_c, 0, 55, 64
2, 95030, Note_off_c, 0, 57, 56
2, 95069, Note_on_c, 0, 53, 63
2, 95080, Note_off_c, 0, 55, 56
2, 95138, Note_on_c, 0, 55, 62
2, 95147, Note_off_c, 0, 53, 55
2, 95206, Note_off_c, 0, 55, 55
2, 95206, Note_off_c, 0, 62, 61
2, 95206, Note_on_c, 0, 61, 84
2, 95208, Note_on_c, 0, 57, 60
2, 95633, Note_off_c, 0, 67, 55
2, 95635, Note_on_c, 0, 64, 79
2, 96055, Note_on_c, 0, 65, 74
2, 96062, Note_off_c, 0, 61, 61
2, 96062, Note_off_c, 0, 64, 60
2, 96065, Note_on_c, 0, 62, 69
2, 96286, Note_off_c, 0, 57, 55
2, 96286, Note_on_c, 0, 55, 68
2, 96395, Note_off_c, 0, 62, 57
2, 96468, Note_off_c, 0, 55, 57
2, 96480, Note_off_c, 0, 65, 59
2, 96484, Note_on_c, 0, 67, 68
2, 96494, Note_on_c, 0, 53, 70
2, 96494, Note_on_c, 0, 64, 60
2, 96708, Note_off_c, 0, 53, 57
2, 96715, Note_on_c, 0, 52, 73
2, 96889, Note_off_c, 0, 64, 55
2, 96909, Note_off_c, 0, 67, 57
2, 96912, Note_on_c, 0, 69, 63
2, 96920, Note_off_c, 0, 52, 58
2, 96924, Note_on_c, 0, 55, 76
2, 96924, Note_on_c, 0, 61, 57
2, 97131, Note_off_c, 0, 55, 59
2, 97142, Note_on_c, 0, 53, 78
2, 97297, Note_off_c, 0, 61, 54
2, 97337, Note_off_c, 0, 53, 59
2, 97339, Note_off_c, 0, 69, 55
2, 97341, Note_on_c, 0, 65, 60
2, 97351, Note_on_c, 0, 52, 81
2, 97351, Note_on_c, 0, 62, 54
2, 97560, Note_off_c, 0, 52, 60
2, 97572, Note_on_c, 0, 50, 84
2, 97706, Note_off_c, 0, 50, 61
2, 97766, Note_off_c, 0, 65, 55
2, 97768, Note_on_c, 0, 70, 61
2, 97776, Note_off_c, 0, 62, 53
2, 97781, Note_on_c, 0, 55, 84
2, 97781, Note_on_c, 0, 63, 56
2, 97989, Note_off_c, 0, 70, 55
2, 97999, Note_on_c, 0, 67, 63
2, 98198, Note_on_c, 0, 66, 64
2, 98206, Note_off_c, 0, 63, 54
2, 98206, Note_off_c, 0, 55, 61
2, 98206, Note_off_c, 0, 67, 55
2, 98208, Note_on_c, 0, 62, 60
2, 98210, Note_on_c, 0, 58, 78
2, 98419, Note_off_c, 0, 66, 56
2, 98429, Note_on_c, 0, 67, 66
2, 98598, Note_off_c, 0, 67, 56
2, 98616, Note_off_c, 0, 62, 55
2, 98650, Note_on_c, 0, 75, 85
2, 98652, Note_on_c, 0, 67, 60
2, 98760, Note_off_c, 0, 75, 61
2, 98856, Note_off_c, 0, 67, 55
2, 98858, Note_off_c, 0, 58, 59
2, 98858, Note_on_c, 0, 57, 69
2, 99079, Note_off_c, 0, 57, 57
2, 99079, Note_on_c, 0, 55, 66
2, 99286, Note_off_c, 0, 55, 56
2, 99286, Note_on_c, 0, 57, 63
2, 99464, Note_off_c, 0, 57, 55
2, 99506, Note_on_c, 0, 74, 72
2, 99509, Note_on_c, 0, 64, 68
2, 99509, Note_on_c, 0, 57, 60
2, 99576, Note_on_c, 0, 73, 72
2, 99590, Note_off_c, 0, 74, 58
2, 99646, Note_on_c, 0, 74, 71
2, 99660, Note_off_c, 0, 73, 58
2, 99715, Note_off_c, 0, 57, 55
2, 99715, Note_on_c, 0, 73, 70
2, 99715, Note_on_c, 0, 55, 62
2, 99727, Note_off_c, 0, 74, 58
2, 99782, Note_on_c, 0, 74, 69
2, 99796, Note_off_c, 0, 73, 57
2, 99869, Note_on_c, 0, 73, 68
2, 99880, Note_off_c, 0, 74, 57
2, 99936, Note_off_c, 0, 55, 55
2, 99938, Note_on_c, 0, 74, 67
2, 99938, Note_on_c, 0, 53, 65
2, 99950, Note_off_c, 0, 73, 57
2, 100006, Note_on_c, 0, 73, 66
2, 100020, Note_off_c, 0, 74, 57
2, 100075, Note_off_c, 0, 64, 57
2, 100075, Note_on_c, 0, 74, 65
2, 100087, Note_off_c, 0, 73, 56
2, 100142, Note_off_c, 0, 53, 56
2, 100142, Note_on_c, 0, 73, 64
2, 100145, Note_on_c, 0, 55, 68
2, 100180, Note_off_c, 0, 74, 56
2, 100212, Note_on_c, 0, 71, 63
2, 100224, Note_off_c, 0, 73, 56
2, 100296, Note_on_c, 0, 73, 62
2, 100310, Note_off_c, 0, 71, 55
2, 100350, Note_off_c, 0, 55, 57
2, 100366, Note_off_c, 0, 73, 55
2, 100368, Note_on_c, 0, 55, 72
2, 100368, Note_on_c, 0, 74, 60
2, 100570, Note_off_c, 0, 55, 58
2, 100572, Note_on_c, 0, 53, 72
2, 100572, Note_on_c, 0, 69, 60
2, 100732, Note_off_c, 0, 69, 55
2, 100795, Note_off_c, 0, 53, 58
2, 100795, Note_on_c, 0, 52, 70
2, 100795, Note_on_c, 0, 67, 62
2, 100932, Note_off_c, 0, 67, 55
2, 100999, Note_off_c, 0, 52, 57
2, 101002, Note_on_c, 0, 53, 68
2, 101002, Note_on_c, 0, 69, 64
2, 101133, Note_off_c, 0, 69, 56
2, 101174, Note_off_c, 0, 74, 55
2, 101208, Note_off_c, 0, 53, 57
2, 101222, Note_on_c, 0, 74, 79
2, 101225, Note_on_c, 0, 57, 66
2, 101232, Note_on_c, 0, 65, 67
2, 101330, Note_off_c, 0, 74, 60
2, 101429, Note_off_c, 0, 57, 56
2, 101430, Note_off_c, 0, 65, 57
2, 101431, Note_on_c, 0, 55, 64
2, 101650, Note_off_c, 0, 55, 56
2, 101652, Note_on_c, 0, 53, 62
2, 101856, Note_off_c, 0, 53, 55
2, 101856, Note_on_c, 0, 55, 60
2, 102049, Note_off_c, 0, 55, 55
2, 102079, Note_on_c, 0, 62, 72
2, 102079, Note_on_c, 0, 72, 72
2, 102082, Note_on_c, 0, 55, 60
2, 102149, Note_on_c, 0, 71, 72
2, 102157, Note_off_c, 0, 72, 58
2, 102216, Note_on_c, 0, 72, 71
2, 102227, Note_off_c, 0, 71, 58
2, 102286, Note_off_c, 0, 55, 55
2, 102286, Note_on_c, 0, 71, 70
2, 102288, Note_on_c, 0, 53, 61
2, 102297, Note_off_c, 0, 72, 58
2, 102372, Note_on_c, 0, 72, 69
2, 102381, Note_off_c, 0, 71, 57
2, 102439, Note_on_c, 0, 71, 68
2, 102450, Note_off_c, 0, 72, 57
2, 102509, Note_off_c, 0, 53, 55
2, 102509, Note_on_c, 0, 72, 67
2, 102511, Note_on_c, 0, 52, 66
2, 102517, Note_off_c, 0, 71, 57
2, 102576, Note_on_c, 0, 71, 66
2, 102587, Note_off_c, 0, 72, 57
2, 102646, Note_off_c, 0, 62, 58
2, 102646, Note_on_c, 0, 72, 65
2, 102654, Note_off_c, 0, 71, 56
2, 102732, Note_off_c, 0, 52, 56
2, 102732, Note_on_c, 0, 71, 64
2, 102734, Note_on_c, 0, 53, 70
2, 102741, Note_off_c, 0, 72, 56
2, 102799, Note_on_c, 0, 69, 63
2, 102810, Note_off_c, 0, 71, 56
2, 102869, Note_on_c, 0, 71, 62
2, 102877, Note_off_c, 0, 69, 55
2, 102893, Note_off_c, 0, 53, 57
2, 102936, Note_on_c, 0, 53, 72
2, 102936, Note_on_c, 0, 72, 60
2, 102940, Note_off_c, 0, 71, 55
2, 103149, Note_on_c, 0, 67, 60
2, 103159, Note_off_c, 0, 53, 58
2, 103162, Note_on_c, 0, 52, 72
2, 103284, Note_off_c, 0, 67, 55
2, 103356, Note_on_c, 0, 65, 62
2, 103366, Note_off_c, 0, 52, 58
2, 103368, Note_on_c, 0, 50, 69
2, 103510, Note_off_c, 0, 65, 55
2, 103579, Note_on_c, 0, 67, 64
2, 103589, Note_off_c, 0, 50, 57
2, 103591, Note_on_c, 0, 52, 66
2, 103701, Note_off_c, 0, 67, 56
2, 103722, Note_off_c, 0, 72, 55
2, 103778, Note_off_c, 0, 52, 56
2, 103793, Note_on_c, 0, 72, 79
2, 103795, Note_on_c, 0, 55, 62
2, 103803, Note_on_c, 0, 63, 67
2, 103910, Note_off_c, 0, 72, 60
2, 104018, Note_off_c, 0, 55, 55
2, 104018, Note_on_c, 0, 53, 59
2, 104020, Note_off_c, 0, 63, 57
2, 104222, Note_off_c, 0, 53, 54
2, 104222, Note_on_c, 0, 51, 55
2, 104446, Note_off_c, 0, 51, 53
2, 104446, Note_on_c, 0, 53, 52
2, 104621, Note_off_c, 0, 53, 53
2, 104650, Note_on_c, 0, 70, 72
2, 104652, Note_on_c, 0, 60, 72
2, 104652, Note_on_c, 0, 53, 48
2, 104719, Note_on_c, 0, 69, 72
2, 104750, Note_off_c, 0, 70, 58
2, 104806, Note_on_c, 0, 70, 70
2, 104814, Note_off_c, 0, 69, 58
2, 104873, Note_off_c, 0, 53, 52
2, 104875, Note_on_c, 0, 69, 68
2, 104875, Note_on_c, 0, 51, 49
2, 104891, Note_off_c, 0, 70, 57
2, 104942, Note_on_c, 0, 70, 66
2, 104953, Note_off_c, 0, 69, 57
2, 105012, Note_on_c, 0, 69, 64
2, 105028, Note_off_c, 0, 70, 56
2, 105079, Note_off_c, 0, 51, 52
2, 105079, Note_on_c, 0, 70, 62
2, 105082, Note_on_c, 0, 50, 52
2, 105090, Note_off_c, 0, 69, 56
2, 105149, Note_on_c, 0, 69, 59
2, 105164, Note_off_c, 0, 70, 55
2, 105233, Note_off_c, 0, 60, 58
2, 105235, Note_on_c, 0, 70, 57
2, 105244, Note_off_c, 0, 69, 54
2, 105302, Note_off_c, 0, 50, 53
2, 105302, Note_on_c, 0, 69, 55
2, 105305, Note_on_c, 0, 51, 56
2, 105320, Note_off_c, 0, 70, 54
2, 105372, Note_on_c, 0, 67, 53
2, 105381, Note_off_c, 0, 69, 53
2, 105439, Note_on_c, 0, 69, 51
2, 105450, Note_off_c, 0, 67, 53
2, 105480, Note_off_c, 0, 51, 54
2, 105509, Note_on_c, 0, 70, 48
2, 105511, Note_on_c, 0, 51, 60
2, 105520, Note_off_c, 0, 69, 52
2, 105730, Note_off_c, 0, 51, 55
2, 105732, Note_on_c, 0, 50, 55
2, 105936, Note_off_c, 0, 50, 53
2, 105936, Note_on_c, 0, 69, 49
2, 105938, Note_on_c, 0, 49, 62
2, 106159, Note_off_c, 0, 49, 55
2, 106159, Note_on_c, 0, 50, 64
2, 106363, Note_off_c, 0, 69, 52
2, 106366, Note_off_c, 0, 50, 56
2, 106366, Note_on_c, 0, 67, 52
2, 106368, Note_on_c, 0, 58, 67
2, 106586, Note_off_c, 0, 58, 57
2, 106810, Note_off_c, 0, 67, 53
2, 106812, Note_on_c, 0, 65, 55
2, 107239, Note_off_c, 0, 65, 53
2, 107239, Note_on_c, 0, 57, 72
2, 107239, Note_on_c, 0, 64, 58
2, 107309, Note_on_c, 0, 55, 72
2, 107318, Note_off_c, 0, 57, 58
2, 107376, Note_on_c, 0, 57, 71
2, 107384, Note_off_c, 0, 55, 58
2, 107446, Note_on_c, 0, 55, 70
2, 107452, Note_off_c, 0, 57, 58
2, 107513, Note_on_c, 0, 57, 69
2, 107521, Note_off_c, 0, 55, 57
2, 107582, Note_off_c, 0, 57, 57
2, 107582, Note_on_c, 0, 55, 68
2, 107665, Note_off_c, 0, 55, 57
2, 107666, Note_off_c, 0, 64, 54
2, 107669, Note_on_c, 0, 57, 67
2, 107669, Note_on_c, 0, 67, 60
2, 107736, Note_on_c, 0, 55, 66
2, 107742, Note_off_c, 0, 57, 57
2, 107806, Note_on_c, 0, 57, 65
2, 107813, Note_off_c, 0, 55, 56
2, 107873, Note_on_c, 0, 55, 64
2, 107880, Note_off_c, 0, 57, 56
2, 107942, Note_on_c, 0, 53, 63
2, 107947, Note_off_c, 0, 55, 56
2, 108012, Note_on_c, 0, 55, 62
2, 108024, Note_off_c, 0, 53, 55
2, 108096, Note_off_c, 0, 67, 55
2, 108098, Note_on_c, 0, 57, 63
2, 108098, Note_on_c, 0, 61, 58
2, 108108, Note_off_c, 0, 55, 55
2, 108523, Note_off_c, 0, 70, 52
2, 108526, Note_on_c, 0, 69, 77
2, 108953, Note_off_c, 0, 61, 54
2, 108953, Note_off_c, 0, 69, 59
2, 108955, Note_on_c, 0, 71, 74
2, 108965, Note_on_c, 0, 62, 50
2, 109159, Note_off_c, 0, 57, 55
2, 109159, Note_on_c, 0, 55, 56
2, 109331, Note_off_c, 0, 62, 52
2, 109382, Note_off_c, 0, 55, 54
2, 109382, Note_off_c, 0, 71, 59
2, 109385, Note_on_c, 0, 73, 70
2, 109385, Note_on_c, 0, 53, 54
2, 109395, Note_on_c, 0, 64, 43
2, 109586, Note_off_c, 0, 53, 53
2, 109589, Note_on_c, 0, 52, 53
2, 109804, Note_off_c, 0, 64, 50
2, 109810, Note_off_c, 0, 73, 57
2, 109812, Note_off_c, 0, 52, 53
2, 109812, Note_on_c, 0, 74, 68
2, 109814, Note_on_c, 0, 55, 51
2, 109814, Note_on_c, 0, 57, 44
2, 110016, Note_off_c, 0, 55, 52
2, 110016, Note_on_c, 0, 53, 50
2, 110239, Note_off_c, 0, 74, 57
2, 110239, Note_off_c, 0, 53, 52
2, 110239, Note_on_c, 0, 71, 70
2, 110242, Note_on_c, 0, 52, 46
2, 110443, Note_off_c, 0, 52, 51
2, 110446, Note_on_c, 0, 50, 48
2, 110590, Note_off_c, 0, 57, 51
2, 110666, Note_off_c, 0, 71, 57
2, 110669, Note_off_c, 0, 50, 52
2, 110669, Note_on_c, 0, 73, 76
2, 110671, Note_on_c, 0, 52, 49
2, 110890, Note_off_c, 0, 73, 59
2, 110890, Note_on_c, 0, 69, 78
2, 111088, Note_on_c, 0, 49, 52
2, 111096, Note_off_c, 0, 52, 52
2, 111096, Note_off_c, 0, 69, 59
2, 111098, Note_on_c, 0, 68, 81
2, 111098, Note_on_c, 0, 64, 55
2, 111319, Note_off_c, 0, 68, 60
2, 111319, Note_on_c, 0, 69, 84
2, 111491, Note_off_c, 0, 49, 53
2, 111518, Note_on_c, 0, 50, 54
2, 111526, Note_off_c, 0, 64, 53
2, 111528, Note_on_c, 0, 77, 86
2, 111528, Note_on_c, 0, 62, 60
2, 111560, Note_off_c, 0, 69, 61
2, 111642, Note_off_c, 0, 77, 61
2, 111945, Note_on_c, 0, 52, 57
2, 111953, Note_off_c, 0, 62, 55
2, 111955, Note_on_c, 0, 61, 72
2, 111964, Note_off_c, 0, 50, 53
2, 112375, Note_on_c, 0, 53, 60
2, 112382, Note_off_c, 0, 61, 58
2, 112385, Note_on_c, 0, 76, 72
2, 112385, Note_on_c, 0, 59, 70
2, 112450, Note_on_c, 0, 74, 72
2, 112464, Note_off_c, 0, 52, 54
2, 112467, Note_off_c, 0, 76, 58
2, 112536, Note_on_c, 0, 76, 71
2, 112553, Note_off_c, 0, 74, 58
2, 112606, Note_on_c, 0, 74, 70
2, 112620, Note_off_c, 0, 76, 58
2, 112673, Note_off_c, 0, 59, 57
2, 112675, Note_on_c, 0, 76, 69
2, 112690, Note_off_c, 0, 74, 57
2, 112742, Note_on_c, 0, 74, 68
2, 112757, Note_off_c, 0, 76, 57
2, 112809, Note_off_c, 0, 53, 55
2, 112812, Note_on_c, 0, 76, 67
2, 112812, Note_on_c, 0, 62, 64
2, 112814, Note_on_c, 0, 50, 58
2, 112827, Note_off_c, 0, 74, 57
2, 112879, Note_on_c, 0, 74, 66
2, 112896, Note_off_c, 0, 76, 57
2, 112966, Note_on_c, 0, 76, 65
2, 112980, Note_off_c, 0, 74, 56
2, 113033, Note_on_c, 0, 74, 64
2, 113050, Note_off_c, 0, 76, 56
2, 113100, Note_off_c, 0, 74, 56
2, 113102, Note_off_c, 0, 62, 56
2, 113102, Note_on_c, 0, 73, 63
2, 113170, Note_on_c, 0, 74, 62
2, 113200, Note_off_c, 0, 73, 55
2, 113239, Note_off_c, 0, 50, 54
2, 113239, Note_on_c, 0, 76, 60
2, 113242, Note_on_c, 0, 61, 60
2, 113242, Note_on_c, 0, 57, 54
2, 113260, Note_off_c, 0, 74, 55
2, 113460, Note_off_c, 0, 61, 55
2, 113462, Note_on_c, 0, 64, 60
2, 113666, Note_off_c, 0, 76, 55
2, 113669, Note_off_c, 0, 64, 55
2, 113669, Note_on_c, 0, 65, 66
2, 113669, Note_on_c, 0, 81, 64
2, 113890, Note_off_c, 0, 65, 56
2, 113890, Note_on_c, 0, 64, 68
2, 114037, Note_off_c, 0, 57, 53
2, 114079, Note_off_c, 0, 64, 57
2, 114096, Note_on_c, 0, 57, 72
2, 114096, Note_on_c, 0, 54, 48
2, 114319, Note_off_c, 0, 81, 56
2, 114319, Note_on_c, 0, 79, 72
2, 114523, Note_off_c, 0, 79, 58
2, 114526, Note_off_c, 0, 54, 52
2, 114526, Note_on_c, 0, 78, 71
2, 114526, Note_on_c, 0, 52, 51
2, 114746, Note_off_c, 0, 78, 58
2, 114746, Note_on_c, 0, 76, 69
2, 114970, Note_off_c, 0, 57, 58
2, 114970, Note_off_c, 0, 76, 57
2, 114972, Note_off_c, 0, 52, 52
2, 114972, Note_on_c, 0, 79, 67
2, 114974, Note_on_c, 0, 50, 58
2, 114984, Note_on_c, 0, 60, 67
2, 115176, Note_off_c, 0, 79, 57
2, 115176, Note_on_c, 0, 78, 66
2, 115397, Note_off_c, 0, 78, 56
2, 115399, Note_off_c, 0, 50, 54
2, 115399, Note_on_c, 0, 76, 64
2, 115402, Note_on_c, 0, 54, 65
2, 115603, Note_off_c, 0, 76, 56
2, 115606, Note_on_c, 0, 74, 62
2, 115826, Note_off_c, 0, 74, 55
2, 115829, Note_off_c, 0, 54, 56
2, 115829, Note_on_c, 0, 75, 60
2, 115831, Note_on_c, 0, 55, 75
2, 115831, Note_on_c, 0, 58, 72
2, 115836, Note_off_c, 0, 60, 57
2, 116033, Note_off_c, 0, 58, 58
2, 116033, Note_off_c, 0, 75, 55
2, 116033, Note_on_c, 0, 84, 60
2, 116035, Note_on_c, 0, 62, 72
2, 116256, Note_off_c, 0, 84, 55
2, 116256, Note_off_c, 0, 62, 58
2, 116256, Note_on_c, 0, 82, 64
2, 116258, Note_on_c, 0, 63, 71
2, 116460, Note_off_c, 0, 63, 58
2, 116462, Note_on_c, 0, 62, 69
2, 116683, Note_off_c, 0, 82, 56
2, 116686, Note_off_c, 0, 62, 57
2, 116686, Note_off_c, 0, 55, 59
2, 116686, Note_on_c, 0, 59, 68
2, 116688, Note_on_c, 0, 56, 65
2, 116890, Note_on_c, 0, 81, 72
2, 117113, Note_off_c, 0, 56, 56
2, 117113, Note_off_c, 0, 81, 58
2, 117113, Note_on_c, 0, 80, 74
2, 117115, Note_on_c, 0, 54, 65
2, 117317, Note_off_c, 0, 80, 59
2, 117319, Note_on_c, 0, 78, 68
2, 117540, Note_off_c, 0, 78, 57
2, 117542, Note_off_c, 0, 54, 56
2, 117542, Note_off_c, 0, 59, 57
2, 117545, Note_on_c, 0, 64, 62
2, 117545, Note_on_c, 0, 81, 63
2, 117555, Note_on_c, 0, 52, 64
2, 117746, Note_off_c, 0, 81, 55
2, 117746, Note_on_c, 0, 80, 58
2, 117970, Note_off_c, 0, 80, 54
2, 117972, Note_on_c, 0, 56, 60
2, 117972, Note_on_c, 0, 78, 53
2, 117980, Note_off_c, 0, 52, 56
2, 118176, Note_off_c, 0, 78, 53
2, 118176, Note_on_c, 0, 76, 50
2, 118397, Note_off_c, 0, 76, 52
2, 118399, Note_on_c, 0, 74, 48
2, 118402, Note_on_c, 0, 57, 61
2, 118420, Note_off_c, 0, 56, 55
2, 118603, Note_off_c, 0, 74, 52
2, 118603, Note_on_c, 0, 72, 54
2, 118826, Note_off_c, 0, 64, 55
2, 118826, Note_off_c, 0, 72, 53
2, 118829, Note_off_c, 0, 57, 55
2, 118829, Note_on_c, 0, 71, 60
2, 118831, Note_on_c, 0, 45, 73
2, 119050, Note_off_c, 0, 71, 55
2, 119050, Note_on_c, 0, 72, 66
2, 119222, Note_off_c, 0, 72, 56
2, 119239, Note_off_c, 0, 45, 58
2, 119256, Note_on_c, 0, 47, 76
2, 119256, Note_on_c, 0, 72, 72
2, 119477, Note_off_c, 0, 72, 58
2, 119479, Note_on_c, 0, 71, 72
2, 119683, Note_off_c, 0, 47, 59
2, 119683, Note_off_c, 0, 71, 58
2, 119686, Note_on_c, 0, 48, 80
2, 119686, Note_on_c, 0, 69, 68
2, 119906, Note_off_c, 0, 69, 57
2, 119906, Note_on_c, 0, 71, 64
2, 120073, Note_off_c, 0, 71, 56
2, 120096, Note_off_c, 0, 48, 60
2, 120113, Note_on_c, 0, 50, 80
2, 120113, Note_on_c, 0, 71, 60
2, 120334, Note_off_c, 0, 71, 55
2, 120336, Note_on_c, 0, 69, 56
2, 120540, Note_off_c, 0, 69, 54
2, 120542, Note_off_c, 0, 50, 60
2, 120542, Note_on_c, 0, 47, 82
2, 120542, Note_on_c, 0, 68, 52
2, 120763, Note_off_c, 0, 68, 53
2, 120763, Note_on_c, 0, 69, 48
2, 120970, Note_off_c, 0, 47, 60
2, 120970, Note_off_c, 0, 69, 52
2, 120972, Note_on_c, 0, 48, 82
2, 120972, Note_on_c, 0, 67, 51
2, 121193, Note_off_c, 0, 48, 60
2, 121193, Note_on_c, 0, 45, 79
2, 121397, Note_off_c, 0, 45, 60
2, 121399, Note_on_c, 0, 44, 76
2, 121399, Note_on_c, 0, 57, 52
2, 121620, Note_off_c, 0, 44, 59
2, 121622, Note_on_c, 0, 45, 73
2, 121826, Note_off_c, 0, 57, 53
2, 121829, Note_on_c, 0, 53, 88
2, 121829, Note_on_c, 0, 59, 56
2, 121850, Note_off_c, 0, 45, 58
2, 121917, Note_off_c, 0, 53, 62
2, 122050, Note_off_c, 0, 67, 52
2, 122050, Note_on_c, 0, 65, 58
2, 122254, Note_off_c, 0, 65, 54
2, 122256, Note_off_c, 0, 59, 54
2, 122256, Note_on_c, 0, 64, 60
2, 122258, Note_on_c, 0, 61, 60
2, 122477, Note_off_c, 0, 64, 55
2, 122479, Note_on_c, 0, 65, 62
2, 122652, Note_off_c, 0, 65, 55
2, 122666, Note_off_c, 0, 61, 55
2, 122683, Note_on_c, 0, 65, 64
2, 122683, Note_on_c, 0, 62, 60
2, 122686, Note_on_c, 0, 52, 73
2, 122770, Note_on_c, 0, 50, 72
2, 122797, Note_off_c, 0, 52, 58
2, 122839, Note_on_c, 0, 52, 71
2, 122864, Note_off_c, 0, 50, 58
2, 122906, Note_off_c, 0, 65, 56
2, 122909, Note_on_c, 0, 50, 70
2, 122909, Note_on_c, 0, 64, 66
2, 122933, Note_off_c, 0, 52, 58
2, 122976, Note_on_c, 0, 52, 69
2, 123001, Note_off_c, 0, 50, 57
2, 123042, Note_off_c, 0, 62, 55
2, 123043, Note_on_c, 0, 50, 68
2, 123070, Note_off_c, 0, 52, 57
2, 123094, Note_off_c, 0, 64, 56
2, 123113, Note_on_c, 0, 62, 68
2, 123113, Note_on_c, 0, 52, 67
2, 123113, Note_on_c, 0, 59, 63
2, 123140, Note_off_c, 0, 50, 57
2, 123199, Note_on_c, 0, 50, 66
2, 123224, Note_off_c, 0, 52, 57
2, 123266, Note_on_c, 0, 52, 65
2, 123293, Note_off_c, 0, 50, 56
2, 123334, Note_off_c, 0, 62, 57
2, 123336, Note_on_c, 0, 69, 70
2, 123338, Note_on_c, 0, 50, 64
2, 123363, Note_off_c, 0, 52, 56
2, 123403, Note_on_c, 0, 49, 63
2, 123430, Note_off_c, 0, 50, 56
2, 123473, Note_on_c, 0, 50, 62
2, 123500, Note_off_c, 0, 49, 55
2, 123526, Note_off_c, 0, 69, 57
2, 123559, Note_off_c, 0, 59, 55
2, 123559, Note_on_c, 0, 69, 72
2, 123562, Note_on_c, 0, 60, 66
2, 123562, Note_on_c, 0, 52, 60
2, 123586, Note_off_c, 0, 50, 55
2, 123763, Note_off_c, 0, 60, 56
2, 123763, Note_on_c, 0, 57, 72
2, 123986, Note_off_c, 0, 52, 55
2, 123986, Note_off_c, 0, 57, 58
2, 123989, Note_on_c, 0, 56, 64
2, 123989, Note_on_c, 0, 53, 60
2, 124193, Note_off_c, 0, 56, 56
2, 124193, Note_on_c, 0, 57, 56
2, 124414, Note_off_c, 0, 57, 54
2, 124416, Note_off_c, 0, 53, 55
2, 124416, Note_on_c, 0, 65, 78
2, 124418, Note_on_c, 0, 52, 56
2, 124515, Note_off_c, 0, 65, 59
2, 124620, Note_off_c, 0, 52, 54
2, 124620, Note_on_c, 0, 50, 54
2, 124843, Note_off_c, 0, 50, 53
2, 124843, Note_on_c, 0, 48, 52
2, 125050, Note_off_c, 0, 48, 53
2, 125050, Note_on_c, 0, 50, 50
2, 125227, Note_off_c, 0, 50, 52
2, 125273, Note_on_c, 0, 64, 72
2, 125273, Note_on_c, 0, 50, 48
2, 125340, Note_on_c, 0, 62, 72
2, 125360, Note_off_c, 0, 64, 58
2, 125410, Note_on_c, 0, 64, 71
2, 125430, Note_off_c, 0, 62, 58
2, 125479, Note_off_c, 0, 50, 52
2, 125479, Note_on_c, 0, 62, 70
2, 125482, Note_on_c, 0, 48, 50
2, 125497, Note_off_c, 0, 64, 58
2, 125546, Note_on_c, 0, 64, 69
2, 125566, Note_off_c, 0, 62, 57
2, 125633, Note_on_c, 0, 62, 68
2, 125653, Note_off_c, 0, 64, 57
2, 125700, Note_off_c, 0, 48, 52
2, 125702, Note_on_c, 0, 64, 67
2, 125702, Note_on_c, 0, 47, 53
2, 125720, Note_off_c, 0, 62, 57
2, 125770, Note_on_c, 0, 62, 66
2, 125790, Note_off_c, 0, 64, 57
2, 125839, Note_on_c, 0, 64, 65
2, 125857, Note_off_c, 0, 62, 56
2, 125906, Note_off_c, 0, 47, 53
2, 125909, Note_on_c, 0, 62, 64
2, 125909, Note_on_c, 0, 48, 56
2, 125926, Note_off_c, 0, 64, 56
2, 125993, Note_on_c, 0, 60, 63
2, 126010, Note_off_c, 0, 62, 56
2, 126060, Note_on_c, 0, 62, 62
2, 126080, Note_off_c, 0, 60, 55
2, 126099, Note_off_c, 0, 48, 54
2, 126130, Note_on_c, 0, 64, 60
2, 126132, Note_on_c, 0, 48, 59
2, 126150, Note_off_c, 0, 62, 55
2, 126557, Note_off_c, 0, 64, 55
2, 126559, Note_off_c, 0, 48, 54
2, 126559, Note_on_c, 0, 65, 60
2, 126565, Note_on_c, 0, 50, 65
2, 126986, Note_off_c, 0, 65, 55
2, 126992, Note_off_c, 0, 50, 56
2, 126992, Note_on_c, 0, 60, 72
2, 126993, Note_on_c, 0, 52, 69
2, 127056, Note_on_c, 0, 59, 72
2, 127081, Note_off_c, 0, 60, 58
2, 127123, Note_on_c, 0, 60, 72
2, 127147, Note_off_c, 0, 59, 58
2, 127190, Note_off_c, 0, 69, 58
2, 127193, Note_on_c, 0, 75, 70
2, 127195, Note_on_c, 0, 59, 71
2, 127217, Note_off_c, 0, 60, 58
2, 127279, Note_on_c, 0, 60, 71
2, 127283, Note_off_c, 0, 52, 57
2, 127301, Note_off_c, 0, 59, 58
2, 127346, Note_on_c, 0, 59, 70
2, 127370, Note_off_c, 0, 60, 58
2, 127414, Note_off_c, 0, 75, 57
2, 127416, Note_on_c, 0, 76, 72
2, 127420, Note_on_c, 0, 60, 70
2, 127424, Note_on_c, 0, 50, 65
2, 127440, Note_off_c, 0, 59, 57
2, 127483, Note_on_c, 0, 59, 69
2, 127509, Note_off_c, 0, 60, 57
2, 127553, Note_on_c, 0, 60, 69
2, 127574, Note_off_c, 0, 59, 57
2, 127637, Note_off_c, 0, 76, 58
2, 127639, Note_on_c, 0, 69, 70
2, 127639, Note_on_c, 0, 59, 68
2, 127663, Note_off_c, 0, 60, 57
2, 127709, Note_on_c, 0, 60, 68
2, 127712, Note_off_c, 0, 50, 56
2, 127730, Note_off_c, 0, 59, 57
2, 127776, Note_on_c, 0, 59, 67
2, 127798, Note_off_c, 0, 60, 57
2, 127843, Note_off_c, 0, 69, 57
2, 127848, Note_on_c, 0, 60, 67
2, 127849, Note_on_c, 0, 72, 64
2, 127850, Note_on_c, 0, 52, 70
2, 127867, Note_off_c, 0, 59, 57
2, 127913, Note_on_c, 0, 59, 66
2, 127936, Note_off_c, 0, 60, 57
2, 127980, Note_on_c, 0, 60, 66
2, 128004, Note_off_c, 0, 59, 56
2, 128066, Note_on_c, 0, 71, 58
2, 128069, Note_off_c, 0, 72, 56
2, 128069, Note_on_c, 0, 59, 65
2, 128090, Note_off_c, 0, 60, 56
2, 128136, Note_on_c, 0, 60, 65
2, 128158, Note_off_c, 0, 59, 56
2, 128203, Note_on_c, 0, 59, 64
2, 128227, Note_off_c, 0, 60, 56
2, 128270, Note_off_c, 0, 71, 54
2, 128273, Note_on_c, 0, 69, 52
2, 128275, Note_on_c, 0, 60, 64
2, 128297, Note_off_c, 0, 59, 56
2, 128340, Note_on_c, 0, 59, 63
2, 128364, Note_off_c, 0, 60, 56
2, 128410, Note_on_c, 0, 60, 63
2, 128414, Note_off_c, 0, 52, 57
2, 128434, Note_off_c, 0, 59, 55
2, 128494, Note_off_c, 0, 69, 53
2, 128496, Note_on_c, 0, 68, 48
2, 128498, Note_on_c, 0, 59, 62
2, 128520, Note_off_c, 0, 60, 55
2, 128563, Note_on_c, 0, 57, 62
2, 128587, Note_off_c, 0, 59, 55
2, 128633, Note_on_c, 0, 59, 61
2, 128654, Note_off_c, 0, 57, 55
2, 128700, Note_off_c, 0, 68, 52
2, 128702, Note_on_c, 0, 57, 60
2, 128702, Note_on_c, 0, 69, 48
2, 128724, Note_off_c, 0, 59, 55
2, 129130, Note_on_c, 0, 45, 70
2, 129557, Note_off_c, 0, 57, 55
2, 129557, Note_off_c, 0, 45, 57
2, 129559, Note_on_c, 0, 47, 76
2, 129780, Note_off_c, 0, 69, 52
2, 129780, Note_on_c, 0, 67, 60
2, 129986, Note_off_c, 0, 47, 59
2, 129986, Note_off_c, 0, 67, 55
2, 129989, Note_on_c, 0, 49, 81
2, 129989, Note_on_c, 0, 65, 60
2, 130210, Note_off_c, 0, 65, 55
2, 130210, Note_on_c, 0, 64, 60
2, 130414, Note_off_c, 0, 64, 55
2, 130416, Note_off_c, 0, 49, 60
2, 130416, Note_on_c, 0, 67, 58
2, 130418, Note_on_c, 0, 50, 84
2, 130637, Note_off_c, 0, 67, 54
2, 130637, Note_on_c, 0, 65, 56
2, 130843, Note_off_c, 0, 50, 61
2, 130843, Note_off_c, 0, 65, 54
2, 130846, Note_on_c, 0, 47, 72
2, 130846, Note_on_c, 0, 64, 53
2, 131066, Note_off_c, 0, 64, 53
2, 131066, Note_on_c, 0, 62, 51
2, 131270, Note_off_c, 0, 62, 52
2, 131273, Note_off_c, 0, 47, 58
2, 131273, Note_on_c, 0, 64, 48
2, 131275, Note_on_c, 0, 49, 72
2, 131494, Note_off_c, 0, 49, 58
2, 131496, Note_on_c, 0, 45, 74
2, 131717, Note_off_c, 0, 64, 52
2, 131717, Note_off_c, 0, 45, 59
2, 131719, Note_on_c, 0, 44, 76
2, 131719, Note_on_c, 0, 76, 50
2, 131923, Note_off_c, 0, 44, 59
2, 131923, Note_on_c, 0, 45, 78
2, 132146, Note_on_c, 0, 74, 54
2, 132149, Note_on_c, 0, 53, 86
2, 132170, Note_off_c, 0, 45, 59
2, 132180, Note_off_c, 0, 76, 52
2, 132220, Note_off_c, 0, 53, 61
2, 132576, Note_on_c, 0, 73, 58
2, 132608, Note_off_c, 0, 74, 53
2, 133006, Note_on_c, 0, 52, 72
2, 133006, Note_on_c, 0, 71, 63
2, 133037, Note_off_c, 0, 73, 54
2, 133073, Note_on_c, 0, 50, 72
2, 133090, Note_off_c, 0, 52, 58
2, 133140, Note_on_c, 0, 52, 71
2, 133160, Note_off_c, 0, 50, 58
2, 133210, Note_on_c, 0, 50, 70
2, 133220, Note_off_c, 0, 52, 58
2, 133277, Note_on_c, 0, 52, 69
2, 133300, Note_off_c, 0, 50, 57
2, 133363, Note_off_c, 0, 52, 57
2, 133363, Note_on_c, 0, 50, 68
2, 133433, Note_on_c, 0, 74, 67
2, 133435, Note_on_c, 0, 52, 67
2, 133460, Note_off_c, 0, 50, 57
2, 133464, Note_off_c, 0, 71, 55
2, 133500, Note_on_c, 0, 50, 66
2, 133520, Note_off_c, 0, 52, 57
2, 133570, Note_on_c, 0, 52, 65
2, 133600, Note_off_c, 0, 50, 56
2, 133637, Note_on_c, 0, 50, 64
2, 133660, Note_off_c, 0, 52, 56
2, 133706, Note_off_c, 0, 50, 56
2, 133706, Note_on_c, 0, 49, 63
2, 133790, Note_off_c, 0, 49, 55
2, 133793, Note_on_c, 0, 50, 62
2, 133860, Note_off_c, 0, 50, 55
2, 133862, Note_on_c, 0, 73, 72
2, 133862, Note_on_c, 0, 57, 60
2, 133894, Note_off_c, 0, 74, 57
2, 134066, Note_off_c, 0, 73, 58
2, 134066, Note_on_c, 0, 76, 72
2, 134287, Note_off_c, 0, 76, 58
2, 134290, Note_off_c, 0, 57, 55
2, 134290, Note_on_c, 0, 77, 68
2, 134292, Note_on_c, 0, 53, 60
2, 134494, Note_off_c, 0, 77, 57
2, 134494, Note_on_c, 0, 76, 64
2, 134717, Note_off_c, 0, 53, 55
2, 134717, Note_off_c, 0, 76, 56
2, 134719, Note_on_c, 0, 52, 62
2, 134719, Note_on_c, 0, 67, 60
2, 134831, Note_off_c, 0, 67, 55
2, 135146, Note_off_c, 0, 52, 55
2, 135146, Note_on_c, 0, 50, 64
2, 135573, Note_on_c, 0, 70, 62
2, 135574, Note_off_c, 0, 50, 56
2, 135576, Note_on_c, 0, 49, 67
2, 135640, Note_off_c, 0, 70, 55
2, 135644, Note_on_c, 0, 72, 72
2, 135713, Note_off_c, 0, 72, 58
2, 135713, Note_on_c, 0, 70, 72
2, 135780, Note_off_c, 0, 70, 58
2, 135783, Note_on_c, 0, 72, 71
2, 135867, Note_off_c, 0, 72, 58
2, 135867, Note_on_c, 0, 70, 70
2, 135936, Note_off_c, 0, 70, 57
2, 135936, Note_on_c, 0, 72, 69
2, 136003, Note_off_c, 0, 49, 57
2, 136004, Note_off_c, 0, 72, 57
2, 136004, Note_on_c, 0, 70, 68
2, 136006, Note_on_c, 0, 52, 69
2, 136073, Note_off_c, 0, 70, 57
2, 136073, Note_on_c, 0, 72, 67
2, 136140, Note_off_c, 0, 72, 57
2, 136143, Note_on_c, 0, 70, 66
2, 136210, Note_off_c, 0, 70, 56
2, 136210, Note_on_c, 0, 72, 65
2, 136296, Note_off_c, 0, 72, 56
2, 136296, Note_on_c, 0, 70, 64
2, 136364, Note_off_c, 0, 70, 56
2, 136364, Note_on_c, 0, 69, 63
2, 136433, Note_off_c, 0, 52, 57
2, 136433, Note_off_c, 0, 69, 55
2, 136433, Note_on_c, 0, 70, 60
2, 136435, Note_on_c, 0, 50, 72
2, 136654, Note_off_c, 0, 70, 55
2, 136654, Note_off_c, 0, 50, 58
2, 136656, Note_on_c, 0, 53, 72
2, 136656, Note_on_c, 0, 69, 60
2, 136860, Note_off_c, 0, 53, 58
2, 136860, Note_off_c, 0, 69, 55
2, 136862, Note_on_c, 0, 55, 64
2, 136862, Note_on_c, 0, 67, 62
2, 137083, Note_off_c, 0, 55, 56
2, 137083, Note_off_c, 0, 67, 55
2, 137083, Note_on_c, 0, 69, 64
2, 137086, Note_on_c, 0, 53, 56
2, 137270, Note_off_c, 0, 69, 56
2, 137273, Note_off_c, 0, 53, 54
2, 137287, Note_on_c, 0, 69, 66
2, 137290, Note_on_c, 0, 45, 48
2, 137380, Note_off_c, 0, 45, 52
2, 137510, Note_off_c, 0, 69, 56
2, 137513, Note_on_c, 0, 67, 68
2, 137717, Note_off_c, 0, 67, 57
2, 137717, Note_on_c, 0, 65, 70
2, 137940, Note_off_c, 0, 65, 57
2, 137940, Note_on_c, 0, 67, 73
2, 138103, Note_off_c, 0, 67, 58
2, 138144, Note_on_c, 0, 67, 75
2, 138146, Note_on_c, 0, 50, 72
2, 138230, Note_off_c, 0, 50, 58
2, 138233, Note_on_c, 0, 49, 72
2, 138300, Note_off_c, 0, 49, 58
2, 138300, Note_on_c, 0, 50, 71
2, 138367, Note_off_c, 0, 67, 59
2, 138370, Note_off_c, 0, 50, 58
2, 138370, Note_on_c, 0, 65, 77
2, 138372, Note_on_c, 0, 49, 70
2, 138437, Note_off_c, 0, 49, 57
2, 138437, Note_on_c, 0, 50, 69
2, 138504, Note_off_c, 0, 50, 57
2, 138506, Note_on_c, 0, 49, 68
2, 138574, Note_off_c, 0, 65, 59
2, 138574, Note_off_c, 0, 49, 57
2, 138576, Note_on_c, 0, 64, 79
2, 138576, Note_on_c, 0, 50, 67
2, 138660, Note_off_c, 0, 50, 57
2, 138660, Note_on_c, 0, 49, 66
2, 138727, Note_off_c, 0, 49, 56
2, 138730, Note_on_c, 0, 50, 65
2, 138797, Note_off_c, 0, 64, 60
2, 138797, Note_off_c, 0, 50, 56
2, 138799, Note_on_c, 0, 65, 81
2, 138799, Note_on_c, 0, 49, 64
2, 138864, Note_off_c, 0, 49, 56
2, 138866, Note_on_c, 0, 47, 63
2, 138934, Note_off_c, 0, 47, 55
2, 138934, Note_on_c, 0, 49, 62
2, 138960, Note_off_c, 0, 65, 60
2, 138986, Note_off_c, 0, 49, 55
2, 139003, Note_on_c, 0, 65, 84
2, 139003, Note_on_c, 0, 50, 60
2, 139430, Note_on_c, 0, 62, 60
2, 139877, Note_off_c, 0, 62, 55
2, 139877, Note_on_c, 0, 60, 63
2, 140083, Note_off_c, 0, 65, 61
2, 140083, Note_on_c, 0, 64, 60
2, 140304, Note_off_c, 0, 64, 55
2, 140306, Note_off_c, 0, 60, 55
2, 140306, Note_on_c, 0, 66, 56
2, 140309, Note_on_c, 0, 58, 54
2, 140510, Note_off_c, 0, 66, 54
2, 140510, Note_on_c, 0, 67, 52
2, 140734, Note_off_c, 0, 58, 53
2, 140734, Note_off_c, 0, 67, 53
2, 140736, Note_on_c, 0, 66, 48
2, 140736, Note_on_c, 0, 57, 50
2, 140940, Note_off_c, 0, 66, 52
2, 140940, Note_on_c, 0, 67, 48
2, 141163, Note_off_c, 0, 57, 52
2, 141163, Note_off_c, 0, 67, 52
2, 141163, Note_on_c, 0, 69, 49
2, 141166, Note_on_c, 0, 60, 52
2, 141367, Note_off_c, 0, 69, 52
2, 141370, Note_on_c, 0, 67, 50
2, 141561, Note_off_c, 0, 67, 52
2, 141590, Note_off_c, 0, 60, 53
2, 141593, Note_off_c, 0, 50, 55
2, 141593, Note_on_c, 0, 67, 52
2, 141595, Note_on_c, 0, 58, 54
2, 141797, Note_off_c, 0, 67, 53
2, 141797, Note_on_c, 0, 69, 53
2, 142020, Note_off_c, 0, 69, 53
2, 142020, Note_on_c, 0, 55, 58
2, 142020, Note_on_c, 0, 70, 54
2, 142224, Note_off_c, 0, 70, 53
2, 142226, Note_on_c, 0, 69, 56
2, 142430, Note_off_c, 0, 58, 53
2, 142430, Note_off_c, 0, 69, 54
2, 142433, Note_off_c, 0, 55, 54
2, 142447, Note_on_c, 0, 69, 57
2, 142450, Note_on_c, 0, 54, 64
2, 142450, Note_on_c, 0, 62, 60
2, 142654, Note_off_c, 0, 69, 54
2, 142654, Note_on_c, 0, 71, 58
2, 142877, Note_off_c, 0, 54, 56
2, 142877, Note_off_c, 0, 71, 54
2, 142879, Note_on_c, 0, 72, 60
2, 142879, Note_on_c, 0, 52, 59
2, 143081, Note_off_c, 0, 72, 55
2, 143083, Note_on_c, 0, 71, 61
2, 143260, Note_off_c, 0, 71, 55
2, 143290, Note_off_c, 0, 52, 54
2, 143304, Note_on_c, 0, 71, 62
2, 143306, Note_on_c, 0, 50, 55
2, 143510, Note_off_c, 0, 71, 55
2, 143510, Note_on_c, 0, 73, 64
2, 143734, Note_off_c, 0, 50, 53
2, 143734, Note_off_c, 0, 73, 56
2, 143736, Note_on_c, 0, 74, 65
2, 143736, Note_on_c, 0, 53, 52
2, 143957, Note_off_c, 0, 74, 56
2, 143957, Note_on_c, 0, 73, 66
2, 144144, Note_off_c, 0, 73, 56
2, 144146, Note_off_c, 0, 53, 53
2, 144146, Note_off_c, 0, 62, 55
2, 144161, Note_on_c, 0, 73, 68
2, 144163, Note_on_c, 0, 52, 52
2, 144163, Note_on_c, 0, 55, 48
2, 144590, Note_off_c, 0, 73, 57
2, 144590, Note_on_c, 0, 81, 70
2, 145020, Note_off_c, 0, 55, 52
2, 145020, Note_off_c, 0, 81, 57
2, 145020, Note_on_c, 0, 79, 73
2, 145241, Note_off_c, 0, 52, 53
2, 145243, Note_on_c, 0, 50, 51
2, 145447, Note_off_c, 0, 79, 58
2, 145447, Note_off_c, 0, 50, 52
2, 145450, Note_on_c, 0, 77, 76
2, 145450, Note_on_c, 0, 49, 52
2, 145670, Note_off_c, 0, 49, 53
2, 145670, Note_on_c, 0, 47, 54
2, 145877, Note_off_c, 0, 77, 59
2, 145877, Note_off_c, 0, 47, 53
2, 145879, Note_on_c, 0, 76, 78
2, 145879, Note_on_c, 0, 50, 55
2, 146100, Note_off_c, 0, 50, 53
2, 146100, Note_on_c, 0, 49, 56
2, 146304, Note_off_c, 0, 76, 59
2, 146306, Note_off_c, 0, 49, 54
2, 146306, Note_on_c, 0, 79, 81
2, 146306, Note_on_c, 0, 47, 57
2, 146527, Note_off_c, 0, 47, 54
2, 146527, Note_on_c, 0, 45, 58
2, 146734, Note_off_c, 0, 79, 60
2, 146734, Note_off_c, 0, 45, 54
2, 146736, Note_on_c, 0, 77, 84
2, 146736, Note_on_c, 0, 50, 60
2, 146957, Note_off_c, 0, 77, 61
2, 146957, Note_on_c, 0, 81, 84
2, 147161, Note_off_c, 0, 81, 61
2, 147163, Note_on_c, 0, 82, 80
2, 147163, Note_on_c, 0, 62, 71
2, 147384, Note_off_c, 0, 82, 60
2, 147386, Note_on_c, 0, 81, 75
2, 147590, Note_off_c, 0, 50, 55
2, 147590, Note_off_c, 0, 81, 59
2, 147593, Note_off_c, 0, 62, 58
2, 147593, Note_on_c, 0, 73, 70
2, 147595, Note_on_c, 0, 64, 69
2, 148037, Note_off_c, 0, 64, 57
2, 148037, Note_on_c, 0, 65, 67
2, 148464, Note_off_c, 0, 73, 57
2, 148466, Note_off_c, 0, 65, 57
2, 148466, Note_on_c, 0, 67, 65
2, 148466, Note_on_c, 0, 76, 60
2, 148894, Note_off_c, 0, 67, 56
2, 148894, Note_on_c, 0, 64, 63
2, 149287, Note_off_c, 0, 64, 55
2, 149323, Note_on_c, 0, 65, 74
2, 149527, Note_off_c, 0, 65, 59
2, 149527, Note_on_c, 0, 62, 74
2, 149720, Note_off_c, 0, 76, 55
2, 149750, Note_off_c, 0, 62, 59
2, 149753, Note_on_c, 0, 61, 72
2, 149753, Note_on_c, 0, 69, 64
2, 149755, Note_on_c, 0, 57, 48
2, 149957, Note_off_c, 0, 61, 58
2, 149957, Note_on_c, 0, 62, 78
2, 150170, Note_off_c, 0, 62, 59
2, 150178, Note_off_c, 0, 69, 56
2, 150180, Note_off_c, 0, 57, 52
2, 150182, Note_on_c, 0, 70, 87
2, 150182, Note_on_c, 0, 74, 68
2, 150182, Note_on_c, 0, 55, 49
2, 150360, Note_off_c, 0, 70, 61
2, 150607, Note_off_c, 0, 55, 52
2, 150607, Note_on_c, 0, 53, 53
2, 151037, Note_off_c, 0, 74, 57
2, 151037, Note_off_c, 0, 53, 53
2, 151039, Note_on_c, 0, 72, 74
2, 151039, Note_on_c, 0, 69, 72
2, 151042, Note_on_c, 0, 52, 57
2, 151104, Note_off_c, 0, 69, 58
2, 151106, Note_on_c, 0, 67, 72
2, 151174, Note_off_c, 0, 67, 58
2, 151174, Note_on_c, 0, 69, 71
2, 151241, Note_off_c, 0, 69, 58
2, 151243, Note_on_c, 0, 67, 70
2, 151327, Note_off_c, 0, 67, 57
2, 151327, Note_on_c, 0, 69, 69
2, 151397, Note_off_c, 0, 69, 57
2, 151397, Note_on_c, 0, 67, 68
2, 151464, Note_off_c, 0, 52, 54
2, 151464, Note_off_c, 0, 67, 57
2, 151466, Note_on_c, 0, 69, 67
2, 151466, Note_on_c, 0, 55, 60
2, 151534, Note_off_c, 0, 69, 57
2, 151534, Note_on_c, 0, 67, 66
2, 151601, Note_off_c, 0, 72, 59
2, 151603, Note_off_c, 0, 67, 56
2, 151603, Note_on_c, 0, 69, 65
2, 151670, Note_off_c, 0, 69, 56
2, 151670, Note_on_c, 0, 67, 64
2, 151757, Note_off_c, 0, 67, 56
2, 151757, Note_on_c, 0, 65, 63
2, 151824, Note_off_c, 0, 65, 55
2, 151824, Note_on_c, 0, 67, 62
2, 151894, Note_off_c, 0, 55, 55
2, 151894, Note_off_c, 0, 67, 55
2, 151896, Note_on_c, 0, 72, 60
2, 151896, Note_on_c, 0, 69, 55
2, 151896, Note_on_c, 0, 54, 48
2, 152117, Note_off_c, 0, 54, 52
2, 152117, Note_on_c, 0, 57, 48
2, 152321, Note_off_c, 0, 72, 55
2, 152323, Note_off_c, 0, 57, 52
2, 152323, Note_on_c, 0, 75, 62
2, 152326, Note_on_c, 0, 58, 54
2, 152544, Note_off_c, 0, 58, 53
2, 152544, Note_on_c, 0, 57, 60
2, 152750, Note_off_c, 0, 69, 53
2, 152750, Note_off_c, 0, 57, 55
2, 152753, Note_on_c, 0, 54, 66
2, 152753, Note_on_c, 0, 50, 60
2, 152974, Note_off_c, 0, 75, 55
2, 152974, Note_off_c, 0, 50, 55
2, 152974, Note_off_c, 0, 54, 56
2, 152976, Note_on_c, 0, 74, 68
2, 153178, Note_off_c, 0, 74, 57
2, 153180, Note_on_c, 0, 72, 70
2, 153401, Note_off_c, 0, 72, 57
2, 153403, Note_on_c, 0, 74, 72
2, 153590, Note_off_c, 0, 74, 58
2, 153607, Note_on_c, 0, 74, 74
2, 153607, Note_on_c, 0, 57, 68
2, 153610, Note_on_c, 0, 54, 64
2, 153786, Note_off_c, 0, 57, 57
2, 153795, Note_off_c, 0, 54, 56
2, 153830, Note_off_c, 0, 74, 59
2, 153833, Note_on_c, 0, 72, 64
2, 154034, Note_off_c, 0, 72, 56
2, 154037, Note_on_c, 0, 70, 56
2, 154258, Note_off_c, 0, 70, 54
2, 154260, Note_on_c, 0, 72, 48
2, 154447, Note_off_c, 0, 72, 52
2, 154464, Note_on_c, 0, 43, 60
2, 154464, Note_on_c, 0, 72, 48
2, 154687, Note_off_c, 0, 72, 52
2, 154687, Note_on_c, 0, 70, 54
2, 154690, Note_on_c, 0, 55, 60
2, 154894, Note_off_c, 0, 70, 53
2, 154894, Note_off_c, 0, 55, 55
2, 154894, Note_on_c, 0, 69, 60
2, 154896, Note_on_c, 0, 54, 58
2, 155114, Note_off_c, 0, 69, 55
2, 155117, Note_off_c, 0, 54, 54
2, 155117, Note_on_c, 0, 70, 60
2, 155119, Note_on_c, 0, 55, 56
2, 155321, Note_off_c, 0, 70, 55
2, 155323, Note_off_c, 0, 55, 54
2, 155323, Note_off_c, 0, 43, 55
2, 155323, Note_on_c, 0, 74, 60
2, 155326, Note_on_c, 0, 52, 54
2, 155326, Note_on_c, 0, 48, 50
2, 155544, Note_off_c, 0, 74, 55
2, 155544, Note_off_c, 0, 52, 53
2, 155546, Note_off_c, 0, 48, 52
2, 155546, Note_on_c, 0, 72, 60
2, 155750, Note_off_c, 0, 72, 55
2, 155750, Note_on_c, 0, 70, 59
2, 155974, Note_off_c, 0, 70, 54
2, 155974, Note_on_c, 0, 72, 60
2, 156161, Note_off_c, 0, 72, 55
2, 156194, Note_on_c, 0, 72, 58
2, 156197, Note_on_c, 0, 55, 48
2, 156197, Note_on_c, 0, 52, 43
2, 156401, Note_off_c, 0, 72, 54
2, 156401, Note_off_c, 0, 55, 52
2, 156403, Note_off_c, 0, 52, 50
2, 156403, Note_on_c, 0, 70, 57
2, 156624, Note_off_c, 0, 70, 54
2, 156624, Note_on_c, 0, 69, 58
2, 156830, Note_off_c, 0, 69, 54
2, 156830, Note_on_c, 0, 70, 56
2, 157054, Note_off_c, 0, 70, 54
2, 157054, Note_on_c, 0, 70, 56
2, 157054, Note_on_c, 0, 41, 48
2, 157258, Note_off_c, 0, 70, 54
2, 157260, Note_on_c, 0, 69, 55
2, 157260, Note_on_c, 0, 53, 49
2, 157481, Note_off_c, 0, 69, 53
2, 157481, Note_off_c, 0, 53, 52
2, 157483, Note_on_c, 0, 67, 54
2, 157483, Note_on_c, 0, 52, 50
2, 157687, Note_off_c, 0, 67, 53
2, 157687, Note_off_c, 0, 52, 52
2, 157690, Note_on_c, 0, 69, 54
2, 157690, Note_on_c, 0, 53, 51
2, 157910, Note_off_c, 0, 69, 53
2, 157910, Note_off_c, 0, 53, 52
2, 157913, Note_off_c, 0, 41, 52
2, 157913, Note_on_c, 0, 72, 53
2, 157913, Note_on_c, 0, 50, 52
2, 157915, Note_on_c, 0, 46, 52
2, 158114, Note_off_c, 0, 72, 53
2, 158117, Note_off_c, 0, 46, 53
2, 158117, Note_off_c, 0, 50, 53
2, 158119, Note_on_c, 0, 70, 53
2, 158338, Note_off_c, 0, 70, 53
2, 158340, Note_on_c, 0, 69, 52
2, 158544, Note_off_c, 0, 69, 53
2, 158544, Note_on_c, 0, 70, 54
2, 158750, Note_off_c, 0, 70, 53
2, 158767, Note_on_c, 0, 53, 56
2, 158767, Note_on_c, 0, 70, 51
2, 158770, Note_on_c, 0, 50, 56
2, 158971, Note_off_c, 0, 70, 52
2, 158974, Note_off_c, 0, 50, 54
2, 158974, Note_off_c, 0, 53, 54
2, 158976, Note_on_c, 0, 69, 50
2, 159194, Note_off_c, 0, 69, 52
2, 159197, Note_on_c, 0, 67, 50
2, 159401, Note_off_c, 0, 67, 52
2, 159401, Note_on_c, 0, 69, 49
2, 159607, Note_off_c, 0, 69, 52
2, 159624, Note_on_c, 0, 52, 60
2, 159624, Note_on_c, 0, 69, 48
2, 159830, Note_off_c, 0, 69, 52
2, 159830, Note_on_c, 0, 67, 48
2, 160051, Note_off_c, 0, 67, 52
2, 160054, Note_on_c, 0, 53, 71
2, 160054, Note_on_c, 0, 65, 52
2, 160274, Note_off_c, 0, 65, 53
2, 160277, Note_on_c, 0, 67, 57
2, 160481, Note_off_c, 0, 53, 58
2, 160481, Note_off_c, 0, 67, 54
2, 160483, Note_on_c, 0, 55, 68
2, 160483, Note_on_c, 0, 76, 62
2, 160704, Note_off_c, 0, 76, 55
2, 160910, Note_off_c, 0, 55, 57
2, 160910, Note_on_c, 0, 57, 66
2, 161338, Note_off_c, 0, 57, 56
2, 161340, Note_on_c, 0, 74, 72
2, 161340, Note_on_c, 0, 58, 63
2, 161407, Note_off_c, 0, 74, 58
2, 161407, Note_on_c, 0, 73, 72
2, 161474, Note_off_c, 0, 73, 58
2, 161477, Note_on_c, 0, 74, 71
2, 161561, Note_off_c, 0, 74, 58
2, 161561, Note_on_c, 0, 73, 70
2, 161630, Note_off_c, 0, 73, 57
2, 161630, Note_on_c, 0, 74, 69
2, 161698, Note_off_c, 0, 74, 57
2, 161698, Note_on_c, 0, 73, 68
2, 161767, Note_off_c, 0, 58, 55
2, 161767, Note_off_c, 0, 73, 57
2, 161767, Note_on_c, 0, 74, 67
2, 161770, Note_on_c, 0, 55, 60
2, 161834, Note_off_c, 0, 74, 57
2, 161837, Note_on_c, 0, 73, 66
2, 161921, Note_off_c, 0, 73, 56
2, 161921, Note_on_c, 0, 74, 65
2, 161990, Note_off_c, 0, 74, 56
2, 161990, Note_on_c, 0, 73, 64
2, 162058, Note_off_c, 0, 73, 56
2, 162058, Note_on_c, 0, 71, 63
2, 162127, Note_off_c, 0, 71, 55
2, 162127, Note_on_c, 0, 73, 62
2, 162194, Note_off_c, 0, 73, 55
2, 162197, Note_off_c, 0, 55, 55
2, 162197, Note_off_c, 0, 52, 55
2, 162197, Note_on_c, 0, 74, 60
2, 162199, Note_on_c, 0, 57, 60
2, 162199, Note_on_c, 0, 53, 45
2, 162560, Note_off_c, 0, 53, 51
2, 162607, Note_off_c, 0, 57, 55
2, 162624, Note_on_c, 0, 53, 50
2, 162624, Note_on_c, 0, 50, 46
2, 163051, Note_off_c, 0, 53, 52
2, 163054, Note_off_c, 0, 50, 51
2, 163054, Note_on_c, 0, 55, 53
2, 163056, Note_on_c, 0, 52, 50
2, 163274, Note_off_c, 0, 74, 55
2, 163277, Note_on_c, 0, 72, 56
2, 163481, Note_off_c, 0, 55, 53
2, 163481, Note_off_c, 0, 72, 54
2, 163483, Note_off_c, 0, 52, 52
2, 163483, Note_on_c, 0, 70, 55
2, 163486, Note_on_c, 0, 57, 56
2, 163486, Note_on_c, 0, 54, 50
2, 163704, Note_off_c, 0, 70, 53
2, 163704, Note_on_c, 0, 69, 54
2, 163908, Note_off_c, 0, 69, 53
2, 163910, Note_off_c, 0, 54, 52
2, 163910, Note_off_c, 0, 57, 54
2, 163913, Note_on_c, 0, 55, 58
2, 163913, Note_on_c, 0, 72, 52
2, 164131, Note_off_c, 0, 72, 53
2, 164134, Note_on_c, 0, 70, 51
2, 164354, Note_off_c, 0, 70, 52
2, 164357, Note_on_c, 0, 52, 60
2, 164357, Note_on_c, 0, 69, 50
2, 164561, Note_off_c, 0, 69, 52
2, 164561, Note_on_c, 0, 67, 48
2, 164784, Note_off_c, 0, 55, 54
2, 164784, Note_off_c, 0, 67, 52
2, 164786, Note_off_c, 0, 52, 55
2, 164786, Note_on_c, 0, 54, 57
2, 164786, Note_on_c, 0, 69, 50
2, 164988, Note_off_c, 0, 54, 54
2, 164990, Note_on_c, 0, 50, 54
2, 165211, Note_off_c, 0, 69, 52
2, 165214, Note_off_c, 0, 50, 53
2, 165214, Note_on_c, 0, 66, 51
2, 165216, Note_on_c, 0, 49, 52
2, 165216, Note_on_c, 0, 57, 45
2, 165418, Note_off_c, 0, 49, 53
2, 165418, Note_on_c, 0, 50, 48
2, 165641, Note_off_c, 0, 57, 51
2, 165641, Note_off_c, 0, 66, 52
2, 165643, Note_off_c, 0, 50, 52
2, 165643, Note_on_c, 0, 67, 54
2, 165646, Note_on_c, 0, 55, 50
2, 165646, Note_on_c, 0, 58, 48
2, 166068, Note_off_c, 0, 67, 53
2, 166070, Note_off_c, 0, 55, 52
2, 166070, Note_on_c, 0, 69, 57
2, 166073, Note_on_c, 0, 53, 60
2, 166498, Note_off_c, 0, 69, 54
2, 166498, Note_off_c, 0, 53, 55
2, 166500, Note_off_c, 0, 58, 52
2, 166500, Note_on_c, 0, 70, 62
2, 166502, Note_on_c, 0, 52, 73
2, 166502, Note_on_c, 0, 57, 72
2, 166567, Note_off_c, 0, 57, 58
2, 166567, Note_on_c, 0, 55, 72
2, 166637, Note_on_c, 0, 57, 71
2, 166650, Note_off_c, 0, 55, 58
2, 166704, Note_off_c, 0, 57, 58
2, 166704, Note_on_c, 0, 55, 70
2, 166771, Note_off_c, 0, 52, 58
2, 166774, Note_on_c, 0, 57, 69
2, 166800, Note_off_c, 0, 55, 57
2, 166848, Note_on_c, 0, 55, 68
2, 166858, Note_off_c, 0, 57, 57
2, 166908, Note_off_c, 0, 70, 55
2, 166927, Note_on_c, 0, 57, 67
2, 166927, Note_on_c, 0, 67, 48
2, 166940, Note_off_c, 0, 55, 57
2, 166994, Note_off_c, 0, 57, 57
2, 167007, Note_on_c, 0, 55, 66
2, 167064, Note_on_c, 0, 57, 65
2, 167090, Note_off_c, 0, 55, 56
2, 167134, Note_on_c, 0, 55, 64
2, 167140, Note_off_c, 0, 57, 56
2, 167218, Note_off_c, 0, 55, 56
2, 167218, Note_on_c, 0, 53, 63
2, 167287, Note_off_c, 0, 53, 55
2, 167287, Note_on_c, 0, 55, 62
2, 167354, Note_off_c, 0, 67, 52
2, 167354, Note_off_c, 0, 55, 55
2, 167357, Note_on_c, 0, 54, 56
2, 167357, Note_on_c, 0, 69, 48
2, 167359, Note_on_c, 0, 57, 60
2, 167578, Note_off_c, 0, 69, 52
2, 167578, Note_on_c, 0, 72, 50
2, 167801, Note_off_c, 0, 54, 54
2, 167801, Note_off_c, 0, 72, 52
2, 167803, Note_off_c, 0, 57, 55
2, 167803, Note_on_c, 0, 75, 76
2, 167808, Note_on_c, 0, 58, 48
2, 167811, Note_on_c, 0, 55, 45
2, 168242, Note_off_c, 0, 58, 52
2, 168269, Note_on_c, 0, 57, 48
2, 168270, Note_on_c, 0, 54, 43
2, 168292, Note_off_c, 0, 55, 51
2, 168487, Note_off_c, 0, 75, 59
2, 168487, Note_on_c, 0, 74, 58
2, 168708, Note_off_c, 0, 74, 54
2, 168712, Note_off_c, 0, 57, 52
2, 168713, Note_on_c, 0, 72, 60
2, 168719, Note_on_c, 0, 55, 51
2, 168719, Note_on_c, 0, 52, 47
2, 168744, Note_off_c, 0, 54, 50
2, 168931, Note_off_c, 0, 72, 55
2, 168934, Note_on_c, 0, 70, 62
2, 169138, Note_off_c, 0, 70, 55
2, 169140, Note_on_c, 0, 74, 64
2, 169142, Note_on_c, 0, 54, 54
2, 169146, Note_on_c, 0, 50, 50
2, 169159, Note_off_c, 0, 55, 52
2, 169173, Note_off_c, 0, 52, 51
2, 169361, Note_off_c, 0, 74, 56
2, 169361, Note_on_c, 0, 72, 66
2, 169527, Note_off_c, 0, 54, 53
2, 169534, Note_off_c, 0, 50, 52
2, 169548, Note_off_c, 0, 72, 56
2, 169565, Note_on_c, 0, 70, 68
2, 169572, Note_on_c, 0, 57, 57
2, 169573, Note_on_c, 0, 54, 50
2, 169788, Note_off_c, 0, 70, 57
2, 169790, Note_on_c, 0, 69, 70
2, 169982, Note_off_c, 0, 54, 52
2, 170011, Note_off_c, 0, 69, 57
2, 170014, Note_on_c, 0, 70, 72
2, 170016, Note_on_c, 0, 43, 66
2, 170022, Note_on_c, 0, 55, 60
2, 170039, Note_off_c, 0, 57, 54
2, 170234, Note_off_c, 0, 70, 58
2, 170234, Note_on_c, 0, 74, 72
2, 170429, Note_off_c, 0, 43, 56
2, 170458, Note_off_c, 0, 74, 58
2, 170460, Note_on_c, 0, 77, 93
2, 170464, Note_on_c, 0, 57, 54
2, 170468, Note_on_c, 0, 60, 58
2, 170490, Note_off_c, 0, 55, 55
2, 170865, Note_off_c, 0, 60, 54
2, 170873, Note_off_c, 0, 57, 53
2, 170909, Note_on_c, 0, 56, 50
2, 170910, Note_on_c, 0, 59, 53
2, 171125, Note_off_c, 0, 77, 63
2, 171127, Note_on_c, 0, 76, 62
2, 171335, Note_off_c, 0, 56, 52
2, 171348, Note_off_c, 0, 76, 55
2, 171353, Note_on_c, 0, 74, 60
2, 171355, Note_on_c, 0, 57, 48
2, 171359, Note_on_c, 0, 54, 42
2, 171377, Note_off_c, 0, 59, 53
2, 171554, Note_off_c, 0, 74, 55
2, 171554, Note_on_c, 0, 73, 64
2, 171756, Note_off_c, 0, 54, 50
2, 171778, Note_off_c, 0, 73, 56
2, 171779, Note_off_c, 0, 57, 52
2, 171780, Note_on_c, 0, 76, 68
2, 171785, Note_on_c, 0, 56, 52
2, 171787, Note_on_c, 0, 52, 50
2, 172001, Note_off_c, 0, 76, 57
2, 172001, Note_on_c, 0, 74, 72
2, 172177, Note_off_c, 0, 56, 53
2, 172186, Note_off_c, 0, 52, 52
2, 172188, Note_off_c, 0, 74, 58
2, 172205, Note_on_c, 0, 73, 76
2, 172212, Note_on_c, 0, 56, 58
2, 172213, Note_on_c, 0, 59, 62
2, 172445, Note_off_c, 0, 73, 59
2, 172447, Note_on_c, 0, 71, 80
2, 172664, Note_off_c, 0, 56, 54
2, 172668, Note_off_c, 0, 71, 60
2, 172670, Note_on_c, 0, 73, 84
2, 172676, Note_on_c, 0, 57, 72
2, 172677, Note_on_c, 0, 45, 75
2, 172698, Note_off_c, 0, 59, 55
2, 172908, Note_off_c, 0, 73, 61
2, 172910, Note_on_c, 0, 76, 84
2, 173150, Note_off_c, 0, 57, 58
2, 173165, Note_off_c, 0, 76, 61
2, 173170, Note_on_c, 0, 82, 92
2, 173175, Note_on_c, 0, 62, 61
2, 173176, Note_on_c, 0, 65, 69
2, 173198, Note_off_c, 0, 45, 59
2, 173615, Note_off_c, 0, 65, 57
2, 173625, Note_off_c, 0, 62, 55
2, 173668, Note_on_c, 0, 64, 63
2, 173672, Note_on_c, 0, 61, 60
2, 173904, Note_off_c, 0, 82, 62
2, 173904, Note_on_c, 0, 81, 68
2, 174085, Note_off_c, 0, 61, 55
2, 174125, Note_off_c, 0, 81, 57
2, 174129, Note_off_c, 0, 64, 55
2, 174130, Note_on_c, 0, 79, 64
2, 174130, Note_on_c, 0, 62, 57
2, 174130, Note_on_c, 0, 59, 50
2, 174348, Note_off_c, 0, 79, 56
2, 174350, Note_on_c, 0, 77, 60
2, 174571, Note_off_c, 0, 62, 54
2, 174571, Note_off_c, 0, 77, 55
2, 174574, Note_off_c, 0, 59, 52
2, 174574, Note_on_c, 0, 81, 62
2, 174576, Note_on_c, 0, 61, 51
2, 174576, Note_on_c, 0, 57, 45
2, 174778, Note_off_c, 0, 81, 55
2, 174778, Note_on_c, 0, 79, 60
2, 174897, Note_off_c, 0, 61, 52
2, 174982, Note_off_c, 0, 79, 55
2, 174984, Note_off_c, 0, 57, 51
2, 175001, Note_on_c, 0, 77, 64
2, 175001, Note_on_c, 0, 64, 48
2, 175001, Note_on_c, 0, 61, 43
2, 175205, Note_off_c, 0, 77, 56
2, 175207, Note_on_c, 0, 76, 68
2, 175428, Note_off_c, 0, 76, 57
2, 175430, Note_off_c, 0, 61, 50
2, 175430, Note_off_c, 0, 64, 52
2, 175430, Note_on_c, 0, 79, 72
2, 175433, Note_on_c, 0, 62, 60
2, 175634, Note_off_c, 0, 79, 58
2, 175634, Note_on_c, 0, 77, 72
2, 175858, Note_off_c, 0, 62, 55
2, 175858, Note_off_c, 0, 77, 58
2, 175858, Note_on_c, 0, 76, 60
2, 175860, Note_on_c, 0, 50, 73
2, 176062, Note_off_c, 0, 76, 55
2, 176064, Note_on_c, 0, 77, 60
2, 176268, Note_off_c, 0, 77, 55
2, 176270, Note_off_c, 0, 50, 58
2, 176285, Note_on_c, 0, 77, 60
2, 176287, Note_on_c, 0, 52, 76
2, 176491, Note_off_c, 0, 77, 55
2, 176491, Note_on_c, 0, 76, 66
2, 176714, Note_off_c, 0, 52, 59
2, 176714, Note_off_c, 0, 76, 56
2, 176717, Note_on_c, 0, 53, 79
2, 176717, Note_on_c, 0, 74, 72
2, 176938, Note_off_c, 0, 74, 58
2, 176938, Note_on_c, 0, 76, 72
2, 177125, Note_off_c, 0, 76, 58
2, 177127, Note_off_c, 0, 53, 60
2, 177142, Note_on_c, 0, 76, 73
2, 177144, Note_on_c, 0, 55, 82
2, 177365, Note_off_c, 0, 76, 58
2, 177367, Note_on_c, 0, 74, 66
2, 177571, Note_off_c, 0, 55, 60
2, 177571, Note_off_c, 0, 74, 56
2, 177574, Note_on_c, 0, 52, 84
2, 177574, Note_on_c, 0, 73, 60
2, 177794, Note_off_c, 0, 73, 55
2, 177794, Note_on_c, 0, 74, 60
2, 178001, Note_off_c, 0, 52, 61
2, 178001, Note_off_c, 0, 74, 55
2, 178001, Note_on_c, 0, 72, 62
2, 178003, Note_on_c, 0, 54, 84
2, 178222, Note_off_c, 0, 54, 61
2, 178224, Note_on_c, 0, 50, 81
2, 178428, Note_off_c, 0, 50, 60
2, 178428, Note_on_c, 0, 62, 64
2, 178430, Note_on_c, 0, 49, 78
2, 178651, Note_off_c, 0, 49, 59
2, 178651, Note_on_c, 0, 50, 75
2, 178858, Note_off_c, 0, 62, 56
2, 178858, Note_on_c, 0, 64, 68
2, 178860, Note_on_c, 0, 58, 72
2, 178870, Note_off_c, 0, 50, 59
2, 178958, Note_off_c, 0, 58, 58
2, 179081, Note_off_c, 0, 72, 55
2, 179081, Note_on_c, 0, 70, 70
2, 179285, Note_off_c, 0, 70, 57
2, 179287, Note_off_c, 0, 64, 57
2, 179287, Note_on_c, 0, 69, 72
2, 179287, Note_on_c, 0, 66, 68
2, 179508, Note_off_c, 0, 69, 58
2, 179508, Note_on_c, 0, 70, 74
2, 179673, Note_off_c, 0, 70, 59
2, 179698, Note_off_c, 0, 66, 57
2, 179714, Note_on_c, 0, 70, 76
2, 179714, Note_on_c, 0, 67, 70
2, 179717, Note_on_c, 0, 57, 72
2, 179796, Note_off_c, 0, 57, 58
2, 179801, Note_on_c, 0, 55, 72
2, 179864, Note_off_c, 0, 55, 58
2, 179868, Note_on_c, 0, 57, 71
2, 179938, Note_off_c, 0, 70, 59
2, 179938, Note_on_c, 0, 69, 78
2, 179940, Note_on_c, 0, 55, 70
2, 179943, Note_off_c, 0, 57, 58
2, 180007, Note_on_c, 0, 57, 69
2, 180012, Note_off_c, 0, 55, 57
2, 180074, Note_on_c, 0, 55, 68
2, 180083, Note_off_c, 0, 57, 57
2, 180086, Note_off_c, 0, 67, 57
2, 180125, Note_off_c, 0, 69, 59
2, 180142, Note_on_c, 0, 67, 80
2, 180144, Note_on_c, 0, 57, 67
2, 180144, Note_on_c, 0, 64, 80
2, 180157, Note_off_c, 0, 55, 57
2, 180228, Note_on_c, 0, 55, 66
2, 180236, Note_off_c, 0, 57, 57
2, 180298, Note_on_c, 0, 57, 65
2, 180310, Note_off_c, 0, 55, 56
2, 180365, Note_off_c, 0, 67, 60
2, 180367, Note_on_c, 0, 55, 64
2, 180367, Note_on_c, 0, 74, 82
2, 180371, Note_off_c, 0, 57, 56
2, 180434, Note_on_c, 0, 54, 63
2, 180435, Note_off_c, 0, 55, 56
2, 180504, Note_on_c, 0, 55, 62
2, 180519, Note_off_c, 0, 54, 55
2, 180544, Note_off_c, 0, 74, 60
2, 180571, Note_off_c, 0, 64, 60
2, 180574, Note_on_c, 0, 74, 84
2, 180576, Note_on_c, 0, 65, 80
2, 180576, Note_on_c, 0, 57, 60
2, 180600, Note_off_c, 0, 55, 55
2, 180794, Note_off_c, 0, 65, 60
2, 180794, Note_on_c, 0, 62, 84
2, 181018, Note_off_c, 0, 57, 55
2, 181018, Note_off_c, 0, 62, 61
2, 181018, Note_on_c, 0, 61, 76
2, 181020, Note_on_c, 0, 58, 62
2, 181222, Note_off_c, 0, 61, 59
2, 181224, Note_on_c, 0, 62, 68
2, 181445, Note_off_c, 0, 62, 57
2, 181447, Note_off_c, 0, 58, 55
2, 181447, Note_on_c, 0, 57, 67
2, 181447, Note_on_c, 0, 70, 60
2, 181651, Note_off_c, 0, 57, 57
2, 181651, Note_on_c, 0, 55, 69
2, 181874, Note_off_c, 0, 55, 57
2, 181874, Note_on_c, 0, 53, 72
2, 182078, Note_off_c, 0, 53, 58
2, 182081, Note_on_c, 0, 55, 72
2, 182268, Note_off_c, 0, 70, 55
2, 182269, Note_off_c, 0, 55, 58
2, 182302, Note_on_c, 0, 69, 72
2, 182304, Note_on_c, 0, 55, 63
2, 182371, Note_on_c, 0, 67, 72
2, 182377, Note_off_c, 0, 69, 58
2, 182441, Note_on_c, 0, 69, 71
2, 182458, Note_off_c, 0, 67, 58
2, 182508, Note_off_c, 0, 55, 55
2, 182510, Note_on_c, 0, 67, 70
2, 182510, Note_on_c, 0, 53, 54
2, 182522, Note_off_c, 0, 69, 58
2, 182578, Note_on_c, 0, 69, 69
2, 182615, Note_off_c, 0, 67, 57
2, 182664, Note_on_c, 0, 67, 68
2, 182673, Note_off_c, 0, 69, 57
2, 182731, Note_off_c, 0, 53, 53
2, 182734, Note_on_c, 0, 69, 67
2, 182734, Note_on_c, 0, 52, 48
2, 182744, Note_off_c, 0, 67, 57
2, 182801, Note_on_c, 0, 67, 66
2, 182807, Note_off_c, 0, 69, 57
2, 182868, Note_on_c, 0, 69, 65
2, 182875, Note_off_c, 0, 67, 56
2, 182938, Note_off_c, 0, 52, 52
2, 182938, Note_on_c, 0, 67, 64
2, 182940, Note_on_c, 0, 53, 48
2, 182956, Note_off_c, 0, 69, 56
2, 183007, Note_on_c, 0, 65, 63
2, 183011, Note_off_c, 0, 67, 56
2, 183091, Note_on_c, 0, 67, 62
2, 183098, Note_off_c, 0, 65, 55
2, 183119, Note_off_c, 0, 53, 52
2, 183161, Note_on_c, 0, 69, 60
2, 183163, Note_on_c, 0, 53, 51
2, 183187, Note_off_c, 0, 67, 55
2, 183588, Note_off_c, 0, 69, 55
2, 183590, Note_on_c, 0, 70, 67
2, 183590, Note_on_c, 0, 55, 55
2, 183629, Note_off_c, 0, 53, 52
2, 184018, Note_off_c, 0, 70, 57
2, 184018, Note_on_c, 0, 65, 60
2, 184020, Note_on_c, 0, 57, 60
2, 184059, Note_off_c, 0, 55, 53
2, 184085, Note_on_c, 0, 64, 60
2, 184086, Note_off_c, 0, 65, 55
2, 184152, Note_off_c, 0, 64, 55
2, 184154, Note_on_c, 0, 65, 60
2, 184235, Note_off_c, 0, 65, 55
2, 184238, Note_off_c, 0, 74, 61
2, 184241, Note_on_c, 0, 80, 74
2, 184243, Note_on_c, 0, 64, 59
2, 184308, Note_on_c, 0, 65, 59
2, 184314, Note_off_c, 0, 64, 54
2, 184374, Note_off_c, 0, 65, 54
2, 184378, Note_on_c, 0, 64, 58
2, 184464, Note_on_c, 0, 81, 70
2, 184465, Note_off_c, 0, 64, 54
2, 184466, Note_on_c, 0, 65, 58
2, 184466, Note_on_c, 0, 55, 59
2, 184490, Note_off_c, 0, 80, 59
2, 184505, Note_off_c, 0, 57, 55
2, 184531, Note_on_c, 0, 64, 57
2, 184533, Note_off_c, 0, 65, 54
2, 184618, Note_on_c, 0, 65, 57
2, 184632, Note_off_c, 0, 64, 54
2, 184704, Note_on_c, 0, 74, 70
2, 184706, Note_on_c, 0, 64, 56
2, 184707, Note_off_c, 0, 65, 54
2, 184730, Note_off_c, 0, 81, 57
2, 184771, Note_off_c, 0, 64, 54
2, 184771, Note_on_c, 0, 65, 56
2, 184858, Note_on_c, 0, 64, 55
2, 184862, Note_off_c, 0, 65, 54
2, 184944, Note_on_c, 0, 77, 67
2, 184946, Note_on_c, 0, 65, 55
2, 184946, Note_on_c, 0, 57, 55
2, 184960, Note_off_c, 0, 64, 53
2, 184970, Note_off_c, 0, 74, 57
2, 184985, Note_off_c, 0, 55, 54
2, 185028, Note_on_c, 0, 64, 56
2, 185040, Note_off_c, 0, 65, 53
2, 185098, Note_on_c, 0, 65, 54
2, 185112, Note_off_c, 0, 64, 54
2, 185183, Note_off_c, 0, 65, 53
2, 185184, Note_on_c, 0, 64, 48
2, 185184, Note_on_c, 0, 76, 65
2, 185210, Note_off_c, 0, 77, 57
2, 185268, Note_on_c, 0, 65, 53
2, 185270, Note_off_c, 0, 64, 52
2, 185363, Note_off_c, 0, 65, 53
2, 185371, Note_on_c, 0, 64, 52
2, 185456, Note_off_c, 0, 64, 53
2, 185458, Note_on_c, 0, 74, 66
2, 185460, Note_on_c, 0, 65, 52
2, 185483, Note_off_c, 0, 76, 56
2, 185544, Note_on_c, 0, 64, 51
2, 185564, Note_off_c, 0, 65, 53
2, 185628, Note_on_c, 0, 65, 51
2, 185650, Note_off_c, 0, 64, 52
2, 185734, Note_on_c, 0, 73, 64
2, 185734, Note_on_c, 0, 64, 50
2, 185753, Note_off_c, 0, 65, 52
2, 185759, Note_off_c, 0, 74, 56
2, 185818, Note_on_c, 0, 62, 50
2, 185837, Note_off_c, 0, 64, 52
2, 185921, Note_on_c, 0, 64, 49
2, 185940, Note_off_c, 0, 62, 52
2, 186005, Note_off_c, 0, 73, 56
2, 186007, Note_off_c, 0, 57, 53
2, 186007, Note_on_c, 0, 74, 84
2, 186010, Note_on_c, 0, 50, 46
2, 186027, Note_off_c, 0, 64, 52
2, 186490, Note_off_c, 0, 50, 51
2, 186592, Note_on_c, 0, 69, 50
2, 186593, Note_on_c, 0, 72, 60
2, 186595, Note_on_c, 0, 50, 46
2, 186596, Note_on_c, 0, 54, 48
2, 186626, Control_c, 0, 64, 127
2, 187077, Note_off_c, 0, 72, 55
2, 187080, Note_off_c, 0, 69, 52
2, 187131, Note_off_c, 0, 50, 51
2, 187133, Note_off_c, 0, 54, 52
2, 187195, Note_on_c, 0, 67, 48
2, 187195, Note_on_c, 0, 55, 46
2, 187196, Note_on_c, 0, 70, 58
2, 187199, Note_on_c, 0, 52, 43
2, 187217, Control_c, 0, 64, 0
2, 187396, Control_c, 0, 64, 127
2, 187714, Note_off_c, 0, 52, 50
2, 187742, Note_off_c, 0, 67, 52
2, 187797, Note_off_c, 0, 70, 54
2, 187801, Note_off_c, 0, 55, 51
2, 187863, Note_on_c, 0, 69, 56
2, 187863, Note_on_c, 0, 54, 40
2, 187866, Note_on_c, 0, 66, 47
2, 187868, Note_on_c, 0, 57, 44
2, 187907, Control_c, 0, 64, 0
2, 188086, Control_c, 0, 64, 127
2, 188463, Note_off_c, 0, 66, 51
2, 188482, Note_off_c, 0, 69, 54
2, 188492, Note_off_c, 0, 54, 50
2, 188497, Note_off_c, 0, 57, 51
2, 188563, Note_on_c, 0, 67, 53
2, 188567, Note_on_c, 0, 64, 41
2, 188570, Note_on_c, 0, 58, 38
2, 188571, Note_on_c, 0, 55, 42
2, 188637, Control_c, 0, 64, 0
2, 188816, Control_c, 0, 64, 127
2, 189120, Note_off_c, 0, 64, 50
2, 189186, Note_off_c, 0, 67, 53
2, 189187, Note_off_c, 0, 58, 49
2, 189191, Note_off_c, 0, 55, 50
2, 189278, Note_off_c, 0, 74, 61
2, 189364, Note_on_c, 0, 73, 51
2, 189377, Note_on_c, 0, 70, 40
2, 189378, Note_on_c, 0, 67, 36
2, 189383, Note_on_c, 0, 55, 39
2, 189383, Note_on_c, 0, 52, 34
2, 189387, Control_c, 0, 64, 0
2, 189566, Control_c, 0, 64, 127
2, 190030, Note_off_c, 0, 55, 49
2, 190099, Note_off_c, 0, 70, 50
2, 190101, Note_off_c, 0, 67, 49
2, 190119, Note_off_c, 0, 73, 52
2, 190138, Note_off_c, 0, 52, 48
2, 190503, Note_on_c, 0, 74, 50
2, 190515, Note_on_c, 0, 66, 36
2, 190515, Note_on_c, 0, 54, 34
2, 190517, Note_on_c, 0, 50, 39
2, 190518, Note_on_c, 0, 69, 38
2, 190521, Note_on_c, 0, 57, 34
2, 190527, Control_c, 0, 64, 0
2, 190726, Control_c, 0, 64, 127
2, 194302, Note_off_c, 0, 50, 49
2, 194370, Note_off_c, 0, 54, 48
2, 194550, Note_off_c, 0, 69, 49
2, 194577, Note_off_c, 0, 66, 49
2, 194580, Note_off_c, 0, 57, 48
2, 194581, Note_off_c, 0, 74, 52
2, 194696, Control_c, 0, 64, 0
2, 194696, End_track
3, 0, Start_track
3, 0, Title_t, "Prelude&Fugue in d-minor"
3, 0, Channel_prefix, 1
3, 0, End_track
4, 0, Start_track
4, 0, Title_t, "Well Tempered Clavier, Book I"
4, 0, Channel_prefix, 2
4, 0, End_track
5, 0, Start_track
5, 0, Title_t, "BWV 851"
5, 0, Channel_prefix, 3
5, 0, End_track
6, 0, Start_track
6, 0, Title_t, "Sequence by Richard Carlson"
6, 0, Channel_prefix, 4
6, 0, End_track
7, 0, Start_track
7, 0, Title_t, "http://geocities.com/lionheart2251"
7, 0, Channel_prefix, 5
7, 0, End_track
8, 0, Start_track
8, 0, Title_t, "Copyright  1999"
8, 0, Channel_prefix, 6
8, 0, End_track
0, 0, End_of_file
