0, 0, Header, 0, 1, 384
1, 0, Start_track
1, 0, Title_t, "Prelude & Fugue--Anna Cui       "
1, 0, Text_t, "2008 e-Piano Junior Competition recital round"
1, 0, Text_t, "recorded July 2008"
1, 0, Text_t, "http://www.piano-e-competition.com/"
1, 0, Text_t, "File processed for distribution by software from Zenph Studios, Inc., http://www.zenph.com"
1, 0, Instrument_name_t, "Yamaha Disklavier Pro Mark IV concert grand piano, model DCFIIISM4PRO"
1, 0, Sequencer_specific, 39, 67, 113, 0, 1, 0, 1, 0, 80, 114, 101, 108, 117, 100, 101, 32, 38, 32, 70, 117, 103, 117, 101, 32, 65, 110, 110, 97, 32, 67, 117, 105, 32, 32, 32, 32, 32, 32, 32, 32
1, 0, Sequencer_specific, 6, 67, 113, 0, 0, 0, 69
1, 0, System_exclusive, 21, 67, 113, 126, 21, 0, 2, 2, 0, 3, 14, 1, 4, 1, 13, 13, 10, 11, 9, 2, 7, 247
1, 0, Sequencer_specific, 5, 67, 123, 12, 2, 1
1, 0, Tempo, 512820
1, 0, Time_signature, 4, 2, 24, 8
1, 0, System_exclusive, 5, 126, 127, 9, 1, 247
1, 1, System_exclusive, 8, 67, 16, 76, 0, 0, 126, 0, 247
1, 2, System_exclusive, 8, 67, 16, 76, 8, 9, 7, 1, 247
1, 3, Control_c, 0, 0, 0
1, 3, Control_c, 1, 0, 0
1, 3, Control_c, 2, 0, 0
1, 3, Control_c, 3, 0, 0
1, 3, Control_c, 4, 0, 0
1, 3, Control_c, 5, 0, 0
1, 3, Control_c, 6, 0, 0
1, 3, Control_c, 7, 0, 0
1, 3, Control_c, 8, 0, 0
1, 3, Control_c, 9, 0, 127
1, 3, Control_c, 10, 0, 0
1, 3, Control_c, 11, 0, 0
1, 3, Control_c, 12, 0, 0
1, 3, Control_c, 13, 0, 0
1, 3, Control_c, 14, 0, 0
1, 3, Control_c, 15, 0, 0
1, 4, Control_c, 0, 32, 0
1, 4, Control_c, 1, 32, 0
1, 4, Control_c, 2, 32, 0
1, 4, Control_c, 3, 32, 0
1, 4, Control_c, 4, 32, 0
1, 4, Control_c, 5, 32, 0
1, 4, Control_c, 6, 32, 0
1, 4, Control_c, 7, 32, 0
1, 4, Control_c, 8, 32, 0
1, 4, Control_c, 9, 32, 0
1, 4, Control_c, 10, 32, 0
1, 4, Control_c, 11, 32, 0
1, 4, Control_c, 12, 32, 0
1, 4, Control_c, 13, 32, 0
1, 4, Control_c, 14, 32, 0
1, 4, Control_c, 15, 32, 0
1, 5, Program_c, 0, 0
1, 5, Program_c, 1, 0
1, 5, Program_c, 2, 0
1, 5, Program_c, 3, 0
1, 5, Program_c, 4, 0
1, 5, Program_c, 5, 0
1, 5, Program_c, 6, 0
1, 5, Program_c, 7, 0
1, 5, Program_c, 8, 0
1, 5, Program_c, 9, 0
1, 5, Program_c, 10, 0
1, 5, Program_c, 11, 0
1, 5, Program_c, 12, 0
1, 5, Program_c, 13, 0
1, 5, Program_c, 14, 0
1, 5, Program_c, 15, 0
1, 6, Control_c, 0, 7, 100
1, 6, Control_c, 1, 7, 100
1, 6, Control_c, 2, 7, 100
1, 6, Control_c, 3, 7, 100
1, 6, Control_c, 4, 7, 100
1, 6, Control_c, 5, 7, 100
1, 6, Control_c, 6, 7, 100
1, 6, Control_c, 7, 7, 100
1, 6, Control_c, 8, 7, 100
1, 6, Control_c, 9, 7, 100
1, 6, Control_c, 10, 7, 100
1, 6, Control_c, 11, 7, 100
1, 6, Control_c, 12, 7, 100
1, 6, Control_c, 13, 7, 100
1, 6, Control_c, 14, 7, 100
1, 6, Control_c, 15, 7, 100
1, 117, Control_c, 0, 67, 15
1, 229, Control_c, 0, 67, 31
1, 341, Control_c, 0, 67, 46
1, 452, Control_c, 0, 67, 63
1, 564, Control_c, 0, 67, 77
1, 676, Control_c, 0, 67, 94
1, 787, Control_c, 0, 67, 108
1, 899, Control_c, 0, 67, 127
1, 1132, Note_on_c, 0, 51, 44
1, 1529, Note_on_c, 0, 67, 42
1, 1729, Note_on_c, 0, 68, 53
1, 1732, Note_off_c, 0, 67, 57
1, 1913, Note_off_c, 0, 68, 62
1, 1918, Note_on_c, 0, 70, 60
1, 2099, Note_on_c, 0, 68, 64
1, 2102, Note_off_c, 0, 70, 53
1, 2221, Control_c, 0, 67, 122
1, 2236, Control_c, 0, 67, 103
1, 2251, Control_c, 0, 67, 89
1, 2265, Control_c, 0, 67, 78
1, 2280, Control_c, 0, 67, 66
1, 2284, Note_on_c, 0, 67, 66
1, 2296, Control_c, 0, 67, 54
1, 2311, Note_off_c, 0, 68, 58
1, 2311, Control_c, 0, 67, 40
1, 2326, Control_c, 0, 67, 25
1, 2341, Control_c, 0, 67, 10
1, 2356, Control_c, 0, 67, 0
1, 2468, Note_on_c, 0, 65, 64
1, 2477, Note_off_c, 0, 67, 59
1, 2649, Note_on_c, 0, 63, 65
1, 2666, Note_off_c, 0, 65, 58
1, 2906, Note_on_c, 0, 73, 63
1, 3214, Note_on_c, 0, 55, 40
1, 3423, Note_on_c, 0, 56, 50
1, 3427, Note_off_c, 0, 55, 53
1, 3583, Note_off_c, 0, 56, 62
1, 3604, Note_on_c, 0, 58, 52
1, 3805, Note_on_c, 0, 56, 52
1, 3815, Note_off_c, 0, 58, 53
1, 3987, Note_on_c, 0, 55, 55
1, 4007, Note_off_c, 0, 56, 56
1, 4078, Note_off_c, 0, 51, 35
1, 4170, Note_on_c, 0, 53, 51
1, 4189, Note_off_c, 0, 55, 53
1, 4360, Note_on_c, 0, 51, 55
1, 4412, Note_off_c, 0, 53, 57
1, 4443, Note_off_c, 0, 63, 55
1, 4603, Note_on_c, 0, 56, 55
1, 4624, Note_off_c, 0, 73, 60
1, 4799, Note_on_c, 0, 72, 61
1, 4975, Note_on_c, 0, 73, 63
1, 4985, Note_off_c, 0, 72, 59
1, 5148, Note_off_c, 0, 73, 61
1, 5151, Note_on_c, 0, 75, 71
1, 5342, Note_on_c, 0, 73, 71
1, 5361, Note_off_c, 0, 75, 57
1, 5535, Note_on_c, 0, 72, 72
1, 5536, Note_off_c, 0, 73, 59
1, 5709, Note_off_c, 0, 72, 63
1, 5714, Note_on_c, 0, 70, 71
1, 5885, Note_off_c, 0, 70, 59
1, 5896, Note_on_c, 0, 68, 67
1, 6114, Note_on_c, 0, 77, 67
1, 6186, Note_off_c, 0, 56, 56
1, 6314, Note_on_c, 0, 56, 60
1, 6502, Note_on_c, 0, 58, 62
1, 6512, Note_off_c, 0, 56, 60
1, 6683, Note_on_c, 0, 60, 56
1, 6690, Note_off_c, 0, 58, 59
1, 6873, Note_off_c, 0, 60, 54
1, 6877, Note_on_c, 0, 58, 50
1, 7053, Note_on_c, 0, 56, 48
1, 7055, Note_off_c, 0, 58, 57
1, 7242, Note_off_c, 0, 56, 54
1, 7250, Note_on_c, 0, 55, 50
1, 7405, Note_off_c, 0, 55, 60
1, 7450, Note_on_c, 0, 53, 63
1, 7690, Note_on_c, 0, 62, 72
1, 7829, Note_off_c, 0, 53, 52
1, 7871, Note_on_c, 0, 74, 66
1, 7879, Note_off_c, 0, 68, 60
1, 7925, Note_off_c, 0, 77, 35
1, 8063, Note_on_c, 0, 75, 72
1, 8083, Note_off_c, 0, 74, 61
1, 8231, Note_on_c, 0, 77, 74
1, 8242, Note_off_c, 0, 75, 57
1, 8421, Note_on_c, 0, 75, 72
1, 8423, Note_off_c, 0, 77, 51
1, 8608, Note_on_c, 0, 74, 70
1, 8610, Note_off_c, 0, 75, 62
1, 8784, Note_off_c, 0, 74, 63
1, 8788, Note_on_c, 0, 72, 70
1, 8909, Control_c, 0, 64, 35
1, 8923, Control_c, 0, 64, 44
1, 8938, Control_c, 0, 64, 50
1, 8961, Control_c, 0, 64, 55
1, 8973, Note_off_c, 0, 72, 64
1, 8975, Control_c, 0, 64, 59
1, 8985, Note_on_c, 0, 70, 69
1, 8990, Control_c, 0, 64, 62
1, 9005, Control_c, 0, 64, 64
1, 9020, Control_c, 0, 64, 66
1, 9035, Control_c, 0, 64, 68
1, 9049, Control_c, 0, 64, 71
1, 9064, Control_c, 0, 64, 75
1, 9079, Control_c, 0, 64, 77
1, 9094, Control_c, 0, 64, 78
1, 9196, Note_off_c, 0, 62, 54
1, 9251, Note_on_c, 0, 80, 76
1, 9271, Control_c, 0, 64, 77
1, 9300, Control_c, 0, 64, 77
1, 9330, Control_c, 0, 64, 76
1, 9345, Control_c, 0, 64, 76
1, 9360, Control_c, 0, 64, 75
1, 9374, Control_c, 0, 64, 75
1, 9389, Control_c, 0, 64, 74
1, 9404, Control_c, 0, 64, 73
1, 9419, Control_c, 0, 64, 73
1, 9434, Control_c, 0, 64, 72
1, 9448, Control_c, 0, 64, 71
1, 9463, Control_c, 0, 64, 70
1, 9472, Note_on_c, 0, 62, 60
1, 9476, Note_off_c, 0, 51, 61
1, 9479, Control_c, 0, 64, 70
1, 9494, Control_c, 0, 64, 69
1, 9509, Control_c, 0, 64, 69
1, 9524, Control_c, 0, 64, 68
1, 9539, Control_c, 0, 64, 68
1, 9568, Control_c, 0, 64, 67
1, 9597, Control_c, 0, 64, 67
1, 9627, Control_c, 0, 64, 66
1, 9642, Control_c, 0, 64, 66
1, 9657, Control_c, 0, 64, 65
1, 9666, Note_off_c, 0, 62, 58
1, 9667, Note_on_c, 0, 63, 65
1, 9671, Control_c, 0, 64, 64
1, 9686, Control_c, 0, 64, 63
1, 9709, Control_c, 0, 64, 62
1, 9724, Control_c, 0, 64, 62
1, 9739, Control_c, 0, 64, 61
1, 9768, Control_c, 0, 64, 61
1, 9783, Control_c, 0, 64, 60
1, 9797, Control_c, 0, 64, 60
1, 9812, Control_c, 0, 64, 59
1, 9827, Control_c, 0, 64, 58
1, 9842, Control_c, 0, 64, 56
1, 9857, Control_c, 0, 64, 55
1, 9859, Note_off_c, 0, 63, 63
1, 9864, Note_on_c, 0, 65, 60
1, 9871, Control_c, 0, 64, 54
1, 9886, Control_c, 0, 64, 53
1, 9901, Control_c, 0, 64, 52
1, 9916, Control_c, 0, 64, 50
1, 9930, Control_c, 0, 64, 49
1, 9945, Control_c, 0, 64, 48
1, 9960, Control_c, 0, 64, 47
1, 9975, Control_c, 0, 64, 46
1, 9990, Control_c, 0, 64, 44
1, 10004, Control_c, 0, 64, 42
1, 10019, Control_c, 0, 64, 41
1, 10034, Control_c, 0, 64, 39
1, 10037, Note_off_c, 0, 65, 62
1, 10048, Note_on_c, 0, 63, 60
1, 10049, Control_c, 0, 64, 37
1, 10064, Control_c, 0, 64, 35
1, 10078, Control_c, 0, 64, 33
1, 10093, Control_c, 0, 64, 31
1, 10108, Control_c, 0, 64, 28
1, 10123, Control_c, 0, 64, 25
1, 10138, Control_c, 0, 64, 21
1, 10153, Control_c, 0, 64, 18
1, 10168, Control_c, 0, 64, 13
1, 10183, Control_c, 0, 64, 0
1, 10219, Note_off_c, 0, 63, 63
1, 10248, Note_on_c, 0, 62, 53
1, 10452, Note_off_c, 0, 62, 54
1, 10457, Note_on_c, 0, 60, 51
1, 10645, Note_on_c, 0, 58, 52
1, 10682, Note_off_c, 0, 60, 50
1, 10906, Note_on_c, 0, 63, 56
1, 11054, Note_off_c, 0, 58, 34
1, 11210, Note_on_c, 0, 77, 48
1, 11211, Note_off_c, 0, 80, 56
1, 11393, Note_off_c, 0, 77, 58
1, 11411, Note_on_c, 0, 79, 50
1, 11584, Note_off_c, 0, 79, 57
1, 11591, Note_on_c, 0, 80, 57
1, 11772, Note_on_c, 0, 79, 60
1, 11792, Note_off_c, 0, 80, 54
1, 11948, Note_off_c, 0, 70, 56
1, 11965, Note_on_c, 0, 77, 58
1, 12097, Note_off_c, 0, 79, 28
1, 12156, Note_on_c, 0, 75, 54
1, 12252, Note_off_c, 0, 77, 36
1, 12372, Note_on_c, 0, 74, 48
1, 12404, Note_off_c, 0, 75, 56
1, 12637, Control_c, 0, 64, 26
1, 12652, Control_c, 0, 64, 34
1, 12663, Note_on_c, 0, 79, 43
1, 12665, Note_on_c, 0, 75, 45
1, 12668, Control_c, 0, 64, 41
1, 12683, Control_c, 0, 64, 47
1, 12705, Control_c, 0, 64, 52
1, 12716, Note_off_c, 0, 74, 46
1, 12720, Control_c, 0, 64, 56
1, 12734, Control_c, 0, 64, 59
1, 12749, Control_c, 0, 64, 61
1, 12764, Control_c, 0, 64, 62
1, 12779, Control_c, 0, 64, 63
1, 12794, Control_c, 0, 64, 64
1, 12809, Control_c, 0, 64, 66
1, 12822, Note_off_c, 0, 63, 56
1, 12823, Control_c, 0, 64, 67
1, 12838, Control_c, 0, 64, 68
1, 12853, Control_c, 0, 64, 68
1, 12927, Control_c, 0, 64, 68
1, 12942, Control_c, 0, 64, 67
1, 12956, Control_c, 0, 64, 66
1, 12964, Note_on_c, 0, 63, 42
1, 12971, Control_c, 0, 64, 65
1, 12986, Control_c, 0, 64, 64
1, 13001, Control_c, 0, 64, 63
1, 13015, Control_c, 0, 64, 62
1, 13030, Control_c, 0, 64, 62
1, 13045, Control_c, 0, 64, 61
1, 13060, Control_c, 0, 64, 60
1, 13075, Control_c, 0, 64, 59
1, 13090, Control_c, 0, 64, 57
1, 13104, Control_c, 0, 64, 56
1, 13119, Control_c, 0, 64, 53
1, 13134, Control_c, 0, 64, 52
1, 13149, Control_c, 0, 64, 50
1, 13158, Note_off_c, 0, 63, 52
1, 13164, Control_c, 0, 64, 49
1, 13170, Note_on_c, 0, 65, 46
1, 13179, Control_c, 0, 64, 48
1, 13193, Control_c, 0, 64, 47
1, 13208, Control_c, 0, 64, 45
1, 13223, Control_c, 0, 64, 42
1, 13238, Control_c, 0, 64, 39
1, 13253, Control_c, 0, 64, 35
1, 13268, Control_c, 0, 64, 31
1, 13283, Control_c, 0, 64, 28
1, 13297, Control_c, 0, 64, 25
1, 13312, Control_c, 0, 64, 23
1, 13327, Control_c, 0, 64, 20
1, 13340, Note_off_c, 0, 65, 61
1, 13341, Control_c, 0, 64, 17
1, 13356, Control_c, 0, 64, 0
1, 13367, Note_on_c, 0, 67, 52
1, 13545, Note_off_c, 0, 67, 57
1, 13563, Note_on_c, 0, 65, 50
1, 13733, Note_off_c, 0, 65, 60
1, 13745, Note_on_c, 0, 63, 51
1, 13905, Note_off_c, 0, 63, 62
1, 13935, Note_on_c, 0, 62, 47
1, 14112, Note_off_c, 0, 62, 53
1, 14144, Note_on_c, 0, 60, 36
1, 14366, Note_off_c, 0, 60, 53
1, 14405, Note_on_c, 0, 58, 36
1, 14579, Note_off_c, 0, 75, 38
1, 14697, Note_off_c, 0, 58, 59
1, 14721, Note_on_c, 0, 60, 41
1, 14727, Note_on_c, 0, 75, 47
1, 14777, Note_off_c, 0, 79, 38
1, 14893, Note_off_c, 0, 60, 61
1, 14929, Note_on_c, 0, 62, 50
1, 14939, Note_on_c, 0, 77, 62
1, 14949, Note_off_c, 0, 75, 65
1, 15101, Note_off_c, 0, 62, 59
1, 15124, Note_on_c, 0, 63, 51
1, 15128, Note_on_c, 0, 79, 67
1, 15161, Note_off_c, 0, 77, 56
1, 15287, Note_off_c, 0, 63, 63
1, 15310, Note_on_c, 0, 77, 68
1, 15313, Note_on_c, 0, 62, 53
1, 15349, Note_off_c, 0, 79, 59
1, 15491, Note_off_c, 0, 62, 59
1, 15499, Note_on_c, 0, 60, 53
1, 15499, Note_on_c, 0, 75, 73
1, 15525, Note_off_c, 0, 77, 57
1, 15677, Note_off_c, 0, 60, 58
1, 15691, Note_on_c, 0, 58, 57
1, 15694, Note_on_c, 0, 74, 67
1, 15707, Note_off_c, 0, 75, 62
1, 15877, Note_off_c, 0, 74, 65
1, 15886, Note_off_c, 0, 58, 63
1, 15887, Note_on_c, 0, 72, 69
1, 15894, Note_on_c, 0, 56, 51
1, 16070, Note_off_c, 0, 56, 60
1, 16096, Note_on_c, 0, 55, 53
1, 16168, Note_on_c, 0, 84, 78
1, 16357, Note_on_c, 0, 51, 54
1, 16358, Note_off_c, 0, 55, 57
1, 16557, Note_on_c, 0, 53, 57
1, 16560, Note_off_c, 0, 51, 62
1, 16735, Note_off_c, 0, 53, 64
1, 16748, Note_on_c, 0, 55, 57
1, 16938, Note_on_c, 0, 53, 55
1, 16973, Note_off_c, 0, 55, 37
1, 17132, Note_on_c, 0, 51, 50
1, 17155, Note_off_c, 0, 53, 60
1, 17236, Note_off_c, 0, 72, 36
1, 17323, Note_off_c, 0, 51, 54
1, 17328, Note_on_c, 0, 50, 48
1, 17519, Note_off_c, 0, 50, 56
1, 17532, Note_on_c, 0, 48, 44
1, 17752, Note_on_c, 0, 74, 45
1, 17757, Note_off_c, 0, 48, 44
1, 17760, Note_on_c, 0, 53, 36
1, 17911, Note_off_c, 0, 84, 31
1, 18004, Note_on_c, 0, 48, 44
1, 18009, Note_on_c, 0, 81, 59
1, 18196, Note_off_c, 0, 53, 50
1, 18207, Note_off_c, 0, 48, 47
1, 18207, Note_on_c, 0, 50, 48
1, 18208, Note_on_c, 0, 82, 72
1, 18231, Note_off_c, 0, 81, 59
1, 18378, Note_off_c, 0, 50, 61
1, 18398, Note_on_c, 0, 51, 54
1, 18401, Note_on_c, 0, 84, 75
1, 18428, Note_off_c, 0, 82, 59
1, 18565, Note_off_c, 0, 51, 61
1, 18586, Note_on_c, 0, 50, 51
1, 18596, Note_on_c, 0, 82, 74
1, 18646, Note_off_c, 0, 84, 57
1, 18765, Note_off_c, 0, 74, 58
1, 18777, Note_off_c, 0, 50, 55
1, 18783, Note_on_c, 0, 81, 73
1, 18789, Note_on_c, 0, 48, 46
1, 18841, Note_off_c, 0, 82, 60
1, 18970, Note_on_c, 0, 79, 68
1, 18971, Note_on_c, 0, 46, 51
1, 19000, Note_off_c, 0, 48, 40
1, 19041, Note_off_c, 0, 81, 53
1, 19172, Note_on_c, 0, 77, 60
1, 19184, Note_on_c, 0, 45, 42
1, 19185, Note_off_c, 0, 46, 54
1, 19224, Note_off_c, 0, 79, 55
1, 19416, Note_on_c, 0, 82, 51
1, 19417, Note_on_c, 0, 50, 36
1, 19453, Note_off_c, 0, 45, 41
1, 19465, Note_off_c, 0, 77, 54
1, 19699, Note_off_c, 0, 82, 55
1, 19707, Note_off_c, 0, 50, 41
1, 19714, Note_on_c, 0, 46, 44
1, 19719, Note_on_c, 0, 81, 55
1, 19921, Note_off_c, 0, 81, 58
1, 19922, Note_on_c, 0, 48, 52
1, 19922, Note_on_c, 0, 79, 60
1, 19930, Note_off_c, 0, 46, 47
1, 20089, Note_off_c, 0, 79, 63
1, 20103, Note_off_c, 0, 48, 62
1, 20109, Note_on_c, 0, 77, 66
1, 20112, Note_on_c, 0, 50, 56
1, 20298, Note_on_c, 0, 75, 69
1, 20308, Note_on_c, 0, 48, 54
1, 20329, Note_off_c, 0, 50, 51
1, 20329, Note_off_c, 0, 77, 52
1, 20482, Note_on_c, 0, 74, 76
1, 20493, Note_on_c, 0, 46, 56
1, 20500, Note_off_c, 0, 75, 60
1, 20508, Note_off_c, 0, 48, 60
1, 20673, Note_off_c, 0, 46, 62
1, 20676, Note_on_c, 0, 72, 72
1, 20687, Note_on_c, 0, 45, 54
1, 20698, Note_off_c, 0, 74, 61
1, 20860, Note_off_c, 0, 72, 62
1, 20865, Note_on_c, 0, 70, 68
1, 20873, Note_off_c, 0, 45, 57
1, 20880, Note_on_c, 0, 43, 47
1, 21109, Note_on_c, 0, 48, 44
1, 21127, Note_on_c, 0, 75, 72
1, 21141, Note_off_c, 0, 43, 41
1, 21281, Note_off_c, 0, 70, 37
1, 21467, Note_on_c, 0, 51, 52
1, 21691, Note_on_c, 0, 53, 60
1, 21694, Note_off_c, 0, 51, 62
1, 21889, Note_off_c, 0, 53, 66
1, 21889, Note_on_c, 0, 55, 62
1, 22091, Note_on_c, 0, 53, 61
1, 22097, Note_off_c, 0, 55, 59
1, 22272, Note_off_c, 0, 53, 63
1, 22275, Note_on_c, 0, 51, 52
1, 22488, Note_off_c, 0, 51, 57
1, 22492, Note_off_c, 0, 48, 41
1, 22502, Note_on_c, 0, 50, 52
1, 22726, Note_on_c, 0, 48, 54
1, 22749, Note_off_c, 0, 50, 58
1, 23006, Note_on_c, 0, 57, 59
1, 23102, Note_off_c, 0, 75, 37
1, 23302, Note_on_c, 0, 75, 57
1, 23498, Note_on_c, 0, 77, 66
1, 23504, Note_off_c, 0, 75, 65
1, 23686, Note_on_c, 0, 79, 69
1, 23710, Note_off_c, 0, 77, 56
1, 23887, Note_on_c, 0, 77, 68
1, 23918, Note_off_c, 0, 79, 56
1, 24098, Note_on_c, 0, 75, 65
1, 24113, Note_off_c, 0, 77, 59
1, 24142, Control_c, 0, 64, 20
1, 24157, Control_c, 0, 64, 44
1, 24172, Control_c, 0, 64, 55
1, 24187, Control_c, 0, 64, 60
1, 24202, Control_c, 0, 64, 63
1, 24217, Control_c, 0, 64, 64
1, 24232, Control_c, 0, 64, 66
1, 24247, Control_c, 0, 64, 69
1, 24261, Control_c, 0, 64, 74
1, 24276, Control_c, 0, 64, 77
1, 24291, Control_c, 0, 64, 79
1, 24300, Note_on_c, 0, 74, 62
1, 24304, Note_off_c, 0, 75, 62
1, 24305, Control_c, 0, 64, 80
1, 24320, Control_c, 0, 64, 81
1, 24335, Note_off_c, 0, 57, 55
1, 24335, Control_c, 0, 64, 82
1, 24350, Control_c, 0, 64, 83
1, 24365, Control_c, 0, 64, 84
1, 24379, Control_c, 0, 64, 85
1, 24394, Control_c, 0, 64, 85
1, 24409, Control_c, 0, 64, 86
1, 24424, Control_c, 0, 64, 86
1, 24496, Note_off_c, 0, 74, 59
1, 24504, Note_on_c, 0, 72, 62
1, 24783, Note_off_c, 0, 48, 29
1, 24788, Control_c, 0, 64, 86
1, 24796, Note_on_c, 0, 58, 59
1, 24796, Note_off_c, 0, 72, 60
1, 24800, Note_on_c, 0, 46, 53
1, 24802, Control_c, 0, 64, 85
1, 24807, Note_on_c, 0, 74, 59
1, 24817, Control_c, 0, 64, 85
1, 24832, Control_c, 0, 64, 84
1, 24847, Control_c, 0, 64, 83
1, 24863, Control_c, 0, 64, 81
1, 24877, Control_c, 0, 64, 80
1, 24892, Control_c, 0, 64, 78
1, 24907, Control_c, 0, 64, 76
1, 24921, Control_c, 0, 64, 74
1, 24936, Control_c, 0, 64, 71
1, 24951, Control_c, 0, 64, 68
1, 24966, Control_c, 0, 64, 64
1, 24981, Control_c, 0, 64, 56
1, 24995, Control_c, 0, 64, 37
1, 25010, Control_c, 0, 64, 0
1, 25054, Note_off_c, 0, 74, 62
1, 25077, Note_on_c, 0, 72, 54
1, 25167, Note_off_c, 0, 72, 64
1, 25179, Note_on_c, 0, 74, 60
1, 25254, Note_off_c, 0, 74, 64
1, 25270, Note_on_c, 0, 75, 63
1, 25358, Note_off_c, 0, 75, 62
1, 25359, Note_on_c, 0, 74, 64
1, 25409, Note_off_c, 0, 74, 64
1, 25433, Note_on_c, 0, 72, 68
1, 25500, Note_on_c, 0, 70, 64
1, 25505, Note_off_c, 0, 72, 62
1, 25566, Note_off_c, 0, 70, 62
1, 25574, Note_on_c, 0, 69, 67
1, 25634, Note_off_c, 0, 69, 62
1, 25655, Note_on_c, 0, 70, 67
1, 25710, Note_off_c, 0, 70, 61
1, 25728, Note_on_c, 0, 69, 68
1, 25796, Note_off_c, 0, 69, 62
1, 25800, Note_on_c, 0, 70, 64
1, 25848, Note_off_c, 0, 70, 62
1, 25868, Note_on_c, 0, 72, 60
1, 25938, Note_on_c, 0, 70, 64
1, 25944, Note_off_c, 0, 72, 63
1, 26005, Note_on_c, 0, 68, 68
1, 26013, Note_off_c, 0, 70, 61
1, 26064, Note_off_c, 0, 68, 63
1, 26071, Note_on_c, 0, 67, 64
1, 26143, Note_off_c, 0, 67, 57
1, 26146, Note_on_c, 0, 65, 66
1, 26196, Note_off_c, 0, 65, 61
1, 26217, Note_on_c, 0, 67, 55
1, 26283, Note_off_c, 0, 67, 62
1, 26289, Note_on_c, 0, 65, 67
1, 26359, Note_off_c, 0, 65, 63
1, 26360, Note_on_c, 0, 67, 66
1, 26420, Note_off_c, 0, 67, 62
1, 26429, Note_on_c, 0, 68, 65
1, 26504, Note_on_c, 0, 67, 66
1, 26516, Note_off_c, 0, 68, 59
1, 26550, Note_off_c, 0, 67, 63
1, 26576, Note_on_c, 0, 65, 67
1, 26648, Note_on_c, 0, 63, 70
1, 26648, Note_off_c, 0, 65, 61
1, 26709, Note_off_c, 0, 63, 64
1, 26724, Note_on_c, 0, 62, 63
1, 26776, Note_off_c, 0, 62, 56
1, 26795, Note_on_c, 0, 63, 64
1, 26856, Note_off_c, 0, 63, 64
1, 26871, Note_on_c, 0, 62, 72
1, 26952, Note_on_c, 0, 63, 62
1, 26956, Note_off_c, 0, 62, 60
1, 27019, Note_off_c, 0, 63, 65
1, 27029, Note_on_c, 0, 65, 65
1, 27067, Note_off_c, 0, 58, 62
1, 27114, Note_on_c, 0, 63, 63
1, 27129, Note_off_c, 0, 65, 58
1, 27203, Note_on_c, 0, 62, 64
1, 27224, Note_off_c, 0, 63, 62
1, 27281, Note_off_c, 0, 62, 62
1, 27302, Note_on_c, 0, 60, 65
1, 27401, Note_on_c, 0, 58, 64
1, 27411, Note_off_c, 0, 60, 56
1, 27573, Note_on_c, 0, 57, 72
1, 27874, Note_off_c, 0, 58, 44
1, 27918, Note_on_c, 0, 60, 58
1, 28031, Note_on_c, 0, 62, 60
1, 28031, Note_off_c, 0, 60, 57
1, 28129, Note_on_c, 0, 63, 68
1, 28140, Note_off_c, 0, 62, 58
1, 28200, Note_off_c, 0, 63, 65
1, 28214, Note_on_c, 0, 65, 72
1, 28289, Note_off_c, 0, 65, 62
1, 28298, Note_on_c, 0, 67, 70
1, 28371, Note_on_c, 0, 69, 70
1, 28403, Note_off_c, 0, 67, 59
1, 28448, Note_on_c, 0, 70, 72
1, 28469, Note_off_c, 0, 69, 61
1, 28538, Note_on_c, 0, 72, 74
1, 28566, Note_off_c, 0, 70, 59
1, 28619, Note_on_c, 0, 69, 70
1, 28628, Note_off_c, 0, 72, 56
1, 28680, Control_c, 0, 64, 26
1, 28694, Note_off_c, 0, 69, 64
1, 28694, Note_on_c, 0, 65, 71
1, 28694, Control_c, 0, 64, 61
1, 28709, Control_c, 0, 64, 65
1, 28724, Control_c, 0, 64, 67
1, 28739, Control_c, 0, 64, 68
1, 28754, Control_c, 0, 64, 69
1, 28769, Control_c, 0, 64, 71
1, 28780, Note_on_c, 0, 67, 73
1, 28784, Control_c, 0, 64, 72
1, 28792, Note_off_c, 0, 65, 62
1, 28799, Control_c, 0, 64, 73
1, 28813, Control_c, 0, 64, 74
1, 28852, Note_on_c, 0, 69, 69
1, 28888, Control_c, 0, 64, 73
1, 28897, Note_off_c, 0, 67, 58
1, 28917, Control_c, 0, 64, 73
1, 28920, Note_on_c, 0, 70, 75
1, 28930, Note_off_c, 0, 69, 64
1, 28932, Control_c, 0, 64, 72
1, 28947, Control_c, 0, 64, 71
1, 28962, Control_c, 0, 64, 70
1, 28963, Note_off_c, 0, 70, 64
1, 28976, Control_c, 0, 64, 68
1, 28991, Control_c, 0, 64, 66
1, 28999, Note_on_c, 0, 72, 76
1, 29006, Control_c, 0, 64, 63
1, 29021, Control_c, 0, 64, 55
1, 29036, Control_c, 0, 64, 32
1, 29050, Control_c, 0, 64, 0
1, 29082, Note_on_c, 0, 74, 73
1, 29150, Note_on_c, 0, 75, 71
1, 29212, Note_off_c, 0, 74, 60
1, 29221, Control_c, 0, 64, 33
1, 29236, Control_c, 0, 64, 61
1, 29250, Control_c, 0, 64, 65
1, 29265, Control_c, 0, 64, 67
1, 29280, Control_c, 0, 64, 69
1, 29294, Control_c, 0, 64, 70
1, 29309, Control_c, 0, 64, 72
1, 29324, Control_c, 0, 64, 73
1, 29326, Note_off_c, 0, 75, 62
1, 29339, Control_c, 0, 64, 73
1, 29354, Control_c, 0, 64, 73
1, 29359, Note_on_c, 0, 77, 67
1, 29368, Control_c, 0, 64, 72
1, 29383, Control_c, 0, 64, 70
1, 29398, Control_c, 0, 64, 65
1, 29413, Control_c, 0, 64, 47
1, 29423, Note_on_c, 0, 75, 75
1, 29427, Control_c, 0, 64, 0
1, 29448, Note_off_c, 0, 77, 60
1, 29488, Note_on_c, 0, 74, 76
1, 29515, Note_off_c, 0, 75, 64
1, 29562, Control_c, 0, 64, 43
1, 29577, Control_c, 0, 64, 60
1, 29591, Control_c, 0, 64, 64
1, 29606, Control_c, 0, 64, 67
1, 29621, Control_c, 0, 64, 69
1, 29636, Control_c, 0, 64, 72
1, 29647, Note_on_c, 0, 75, 86
1, 29651, Control_c, 0, 64, 76
1, 29666, Control_c, 0, 64, 78
1, 29681, Control_c, 0, 64, 80
1, 29696, Control_c, 0, 64, 80
1, 29699, Note_off_c, 0, 74, 60
1, 29711, Control_c, 0, 64, 81
1, 29725, Control_c, 0, 64, 81
1, 29832, Note_off_c, 0, 75, 64
1, 29928, Note_on_c, 0, 75, 87
1, 29955, Control_c, 0, 64, 81
1, 29970, Control_c, 0, 64, 80
1, 29985, Control_c, 0, 64, 79
1, 29999, Control_c, 0, 64, 76
1, 30014, Control_c, 0, 64, 73
1, 30029, Control_c, 0, 64, 69
1, 30043, Control_c, 0, 64, 63
1, 30058, Control_c, 0, 64, 38
1, 30073, Control_c, 0, 64, 0
1, 30340, Control_c, 0, 64, 39
1, 30355, Control_c, 0, 64, 50
1, 30369, Control_c, 0, 64, 56
1, 30384, Control_c, 0, 64, 59
1, 30399, Control_c, 0, 64, 62
1, 30414, Control_c, 0, 64, 63
1, 30429, Control_c, 0, 64, 64
1, 30444, Control_c, 0, 64, 65
1, 30458, Control_c, 0, 64, 67
1, 30473, Control_c, 0, 64, 70
1, 30488, Control_c, 0, 64, 73
1, 30503, Control_c, 0, 64, 75
1, 30518, Control_c, 0, 64, 77
1, 30532, Control_c, 0, 64, 78
1, 30547, Control_c, 0, 64, 78
1, 30562, Control_c, 0, 64, 79
1, 30577, Control_c, 0, 64, 80
1, 30592, Control_c, 0, 64, 81
1, 30606, Control_c, 0, 64, 82
1, 30621, Control_c, 0, 64, 82
1, 30636, Control_c, 0, 64, 83
1, 30651, Control_c, 0, 64, 83
1, 30703, Control_c, 0, 64, 84
1, 30807, Note_off_c, 0, 57, 30
1, 30837, Note_off_c, 0, 72, 35
1, 30974, Note_on_c, 0, 74, 50
1, 31019, Note_off_c, 0, 75, 55
1, 31059, Note_off_c, 0, 74, 61
1, 31267, Control_c, 0, 64, 83
1, 31311, Control_c, 0, 64, 83
1, 31341, Control_c, 0, 64, 82
1, 31355, Control_c, 0, 64, 82
1, 31370, Control_c, 0, 64, 81
1, 31385, Control_c, 0, 64, 80
1, 31395, Note_on_c, 0, 58, 58
1, 31400, Note_on_c, 0, 74, 54
1, 31400, Control_c, 0, 64, 77
1, 31415, Note_on_c, 0, 65, 53
1, 31422, Control_c, 0, 64, 73
1, 31437, Control_c, 0, 64, 65
1, 31452, Control_c, 0, 64, 31
1, 31466, Control_c, 0, 64, 0
1, 31601, Control_c, 0, 64, 41
1, 31615, Control_c, 0, 64, 59
1, 31630, Control_c, 0, 64, 64
1, 31645, Control_c, 0, 64, 66
1, 31660, Control_c, 0, 64, 69
1, 31663, Note_off_c, 0, 74, 61
1, 31675, Control_c, 0, 64, 72
1, 31689, Control_c, 0, 64, 76
1, 31704, Control_c, 0, 64, 79
1, 31719, Control_c, 0, 64, 81
1, 31734, Control_c, 0, 64, 82
1, 31749, Control_c, 0, 64, 82
1, 31763, Control_c, 0, 64, 83
1, 31778, Control_c, 0, 64, 83
1, 31793, Control_c, 0, 64, 84
1, 31996, Note_off_c, 0, 46, 36
1, 32030, Control_c, 0, 64, 83
1, 32075, Control_c, 0, 64, 83
1, 32104, Control_c, 0, 64, 82
1, 32110, Note_on_c, 0, 63, 68
1, 32119, Control_c, 0, 64, 82
1, 32124, Note_off_c, 0, 58, 50
1, 32134, Control_c, 0, 64, 81
1, 32172, Control_c, 0, 64, 81
1, 32176, Note_off_c, 0, 65, 56
1, 32186, Control_c, 0, 64, 80
1, 32201, Control_c, 0, 64, 79
1, 32216, Control_c, 0, 64, 79
1, 32231, Control_c, 0, 64, 78
1, 32245, Control_c, 0, 64, 77
1, 32260, Control_c, 0, 64, 76
1, 32275, Control_c, 0, 64, 75
1, 32290, Control_c, 0, 64, 74
1, 32305, Control_c, 0, 64, 73
1, 32319, Control_c, 0, 64, 73
1, 32334, Control_c, 0, 64, 72
1, 32349, Control_c, 0, 64, 71
1, 32364, Control_c, 0, 64, 70
1, 32379, Control_c, 0, 64, 69
1, 32393, Control_c, 0, 64, 67
1, 32408, Control_c, 0, 64, 65
1, 32423, Control_c, 0, 64, 62
1, 32438, Control_c, 0, 64, 59
1, 32453, Control_c, 0, 64, 57
1, 32512, Control_c, 0, 64, 56
1, 32542, Control_c, 0, 64, 56
1, 32572, Control_c, 0, 64, 55
1, 32586, Control_c, 0, 64, 54
1, 32601, Control_c, 0, 64, 53
1, 32616, Control_c, 0, 64, 52
1, 32631, Control_c, 0, 64, 50
1, 32647, Control_c, 0, 64, 48
1, 32661, Control_c, 0, 64, 45
1, 32676, Control_c, 0, 64, 42
1, 32691, Control_c, 0, 64, 37
1, 32706, Control_c, 0, 64, 32
1, 32721, Control_c, 0, 64, 21
1, 32731, Note_on_c, 0, 53, 59
1, 32735, Control_c, 0, 64, 0
1, 33332, Note_on_c, 0, 62, 56
1, 33335, Note_on_c, 0, 58, 55
1, 33421, Note_off_c, 0, 63, 53
1, 33669, Note_off_c, 0, 53, 31
1, 33908, Note_off_c, 0, 62, 60
1, 33918, Note_on_c, 0, 60, 61
1, 34509, Note_on_c, 0, 56, 49
1, 34584, Note_off_c, 0, 58, 51
1, 35107, Note_on_c, 0, 63, 64
1, 35122, Note_on_c, 0, 58, 42
1, 35134, Note_on_c, 0, 55, 40
1, 35176, Note_off_c, 0, 56, 55
1, 35180, Note_off_c, 0, 60, 35
1, 35692, Note_on_c, 0, 68, 64
1, 35712, Note_on_c, 0, 60, 47
1, 35726, Note_off_c, 0, 58, 60
1, 35813, Note_off_c, 0, 63, 55
1, 36245, Note_off_c, 0, 60, 40
1, 36257, Note_on_c, 0, 62, 49
1, 36261, Note_off_c, 0, 55, 39
1, 36266, Note_on_c, 0, 53, 38
1, 36390, Control_c, 0, 64, 56
1, 36404, Control_c, 0, 64, 65
1, 36419, Control_c, 0, 64, 69
1, 36434, Control_c, 0, 64, 73
1, 36449, Control_c, 0, 64, 78
1, 36458, Note_off_c, 0, 62, 60
1, 36462, Note_off_c, 0, 53, 61
1, 36464, Control_c, 0, 64, 81
1, 36478, Control_c, 0, 64, 83
1, 36493, Control_c, 0, 64, 84
1, 36508, Note_off_c, 0, 68, 62
1, 36508, Control_c, 0, 64, 86
1, 36523, Control_c, 0, 64, 87
1, 36538, Control_c, 0, 64, 88
1, 36552, Control_c, 0, 64, 90
1, 36567, Control_c, 0, 64, 90
1, 36709, Control_c, 0, 64, 90
1, 36739, Control_c, 0, 64, 89
1, 36769, Control_c, 0, 64, 89
1, 36783, Control_c, 0, 64, 88
1, 36798, Control_c, 0, 64, 87
1, 36813, Control_c, 0, 64, 85
1, 36827, Control_c, 0, 64, 84
1, 36829, Note_on_c, 0, 70, 68
1, 36831, Note_on_c, 0, 67, 61
1, 36833, Note_on_c, 0, 63, 58
1, 36839, Note_on_c, 0, 51, 53
1, 36842, Control_c, 0, 64, 81
1, 36857, Control_c, 0, 64, 79
1, 36872, Control_c, 0, 64, 76
1, 36887, Control_c, 0, 64, 72
1, 36901, Control_c, 0, 64, 67
1, 36916, Control_c, 0, 64, 59
1, 36931, Control_c, 0, 64, 0
1, 37410, Note_on_c, 0, 61, 54
1, 37413, Note_on_c, 0, 75, 64
1, 37453, Note_off_c, 0, 67, 55
1, 37479, Note_off_c, 0, 63, 55
1, 37971, Note_off_c, 0, 70, 62
1, 37992, Note_on_c, 0, 65, 55
1, 37997, Note_on_c, 0, 56, 37
1, 37998, Note_on_c, 0, 60, 51
1, 38029, Note_off_c, 0, 51, 37
1, 38066, Note_off_c, 0, 61, 56
1, 38512, Note_on_c, 0, 58, 49
1, 38540, Note_on_c, 0, 74, 65
1, 38577, Control_c, 0, 64, 41
1, 38590, Note_off_c, 0, 60, 52
1, 38592, Control_c, 0, 64, 60
1, 38606, Control_c, 0, 64, 65
1, 38621, Control_c, 0, 64, 69
1, 38636, Note_off_c, 0, 75, 36
1, 38636, Control_c, 0, 64, 74
1, 38651, Control_c, 0, 64, 80
1, 38666, Control_c, 0, 64, 83
1, 38680, Control_c, 0, 64, 85
1, 38695, Control_c, 0, 64, 87
1, 38710, Control_c, 0, 64, 88
1, 38725, Note_off_c, 0, 65, 36
1, 38725, Control_c, 0, 64, 90
1, 38740, Control_c, 0, 64, 93
1, 38755, Control_c, 0, 64, 95
1, 38757, Note_off_c, 0, 58, 59
1, 38770, Control_c, 0, 64, 97
1, 38785, Control_c, 0, 64, 98
1, 38785, Note_off_c, 0, 56, 40
1, 38799, Control_c, 0, 64, 100
1, 38809, Note_off_c, 0, 74, 63
1, 38814, Control_c, 0, 64, 101
1, 38829, Control_c, 0, 64, 101
1, 38844, Control_c, 0, 64, 102
1, 38888, Control_c, 0, 64, 102
1, 39044, Control_c, 0, 64, 102
1, 39074, Control_c, 0, 64, 101
1, 39089, Control_c, 0, 64, 100
1, 39103, Note_on_c, 0, 55, 49
1, 39104, Control_c, 0, 64, 100
1, 39118, Control_c, 0, 64, 99
1, 39132, Note_on_c, 0, 67, 68
1, 39133, Note_on_c, 0, 75, 73
1, 39133, Control_c, 0, 64, 98
1, 39148, Control_c, 0, 64, 96
1, 39163, Control_c, 0, 64, 95
1, 39178, Control_c, 0, 64, 93
1, 39193, Control_c, 0, 64, 90
1, 39208, Control_c, 0, 64, 87
1, 39223, Control_c, 0, 64, 84
1, 39237, Control_c, 0, 64, 81
1, 39252, Control_c, 0, 64, 78
1, 39267, Control_c, 0, 64, 74
1, 39282, Control_c, 0, 64, 67
1, 39297, Control_c, 0, 64, 54
1, 39311, Control_c, 0, 64, 0
1, 39705, Note_on_c, 0, 63, 65
1, 39715, Note_on_c, 0, 60, 58
1, 39933, Note_off_c, 0, 55, 50
1, 40283, Note_on_c, 0, 80, 63
1, 40290, Note_on_c, 0, 72, 61
1, 40315, Note_off_c, 0, 75, 63
1, 40319, Note_off_c, 0, 67, 37
1, 40815, Note_off_c, 0, 72, 64
1, 40821, Note_off_c, 0, 60, 54
1, 40846, Note_on_c, 0, 70, 53
1, 40860, Note_on_c, 0, 65, 37
1, 40863, Note_on_c, 0, 62, 40
1, 40892, Note_off_c, 0, 63, 39
1, 41456, Note_on_c, 0, 63, 32
1, 41461, Note_on_c, 0, 79, 46
1, 41524, Note_off_c, 0, 62, 36
1, 41525, Note_off_c, 0, 80, 47
1, 41563, Note_off_c, 0, 65, 38
1, 41616, Control_c, 0, 64, 39
1, 41631, Control_c, 0, 64, 56
1, 41646, Control_c, 0, 64, 61
1, 41661, Control_c, 0, 64, 63
1, 41676, Control_c, 0, 64, 65
1, 41690, Control_c, 0, 64, 67
1, 41693, Note_off_c, 0, 70, 51
1, 41705, Control_c, 0, 64, 70
1, 41720, Control_c, 0, 64, 73
1, 41735, Control_c, 0, 64, 75
1, 41750, Control_c, 0, 64, 76
1, 41765, Control_c, 0, 64, 77
1, 41779, Control_c, 0, 64, 77
1, 41809, Control_c, 0, 64, 78
1, 41905, Control_c, 0, 64, 77
1, 41950, Control_c, 0, 64, 77
1, 41979, Control_c, 0, 64, 76
1, 41994, Control_c, 0, 64, 75
1, 42009, Control_c, 0, 64, 74
1, 42023, Control_c, 0, 64, 71
1, 42038, Control_c, 0, 64, 67
1, 42053, Control_c, 0, 64, 56
1, 42065, Note_on_c, 0, 72, 44
1, 42068, Note_on_c, 0, 56, 28
1, 42068, Control_c, 0, 64, 0
1, 42217, Control_c, 0, 64, 29
1, 42232, Control_c, 0, 64, 52
1, 42246, Control_c, 0, 64, 60
1, 42261, Control_c, 0, 64, 64
1, 42276, Control_c, 0, 64, 66
1, 42291, Control_c, 0, 64, 69
1, 42306, Control_c, 0, 64, 72
1, 42313, Note_off_c, 0, 79, 39
1, 42320, Control_c, 0, 64, 74
1, 42335, Control_c, 0, 64, 76
1, 42350, Control_c, 0, 64, 77
1, 42380, Control_c, 0, 64, 77
1, 42454, Control_c, 0, 64, 77
1, 42499, Control_c, 0, 64, 76
1, 42528, Control_c, 0, 64, 75
1, 42543, Control_c, 0, 64, 75
1, 42558, Control_c, 0, 64, 73
1, 42573, Control_c, 0, 64, 71
1, 42587, Control_c, 0, 64, 69
1, 42602, Control_c, 0, 64, 66
1, 42613, Note_on_c, 0, 77, 57
1, 42617, Control_c, 0, 64, 62
1, 42621, Note_on_c, 0, 68, 30
1, 42632, Control_c, 0, 64, 56
1, 42654, Control_c, 0, 64, 51
1, 42669, Control_c, 0, 64, 49
1, 42684, Control_c, 0, 64, 47
1, 42698, Control_c, 0, 64, 45
1, 42713, Control_c, 0, 64, 42
1, 42728, Control_c, 0, 64, 37
1, 42743, Control_c, 0, 64, 31
1, 42758, Control_c, 0, 64, 24
1, 42772, Control_c, 0, 64, 15
1, 42787, Control_c, 0, 64, 0
1, 42887, Note_on_c, 0, 75, 62
1, 42941, Note_off_c, 0, 77, 53
1, 43182, Note_on_c, 0, 74, 50
1, 43184, Note_on_c, 0, 58, 28
1, 43188, Note_on_c, 0, 70, 49
1, 43230, Note_off_c, 0, 56, 35
1, 43235, Note_off_c, 0, 72, 59
1, 43247, Note_off_c, 0, 75, 54
1, 43785, Note_on_c, 0, 75, 43
1, 43839, Note_off_c, 0, 74, 53
1, 43840, Note_on_c, 0, 67, 31
1, 43854, Note_off_c, 0, 68, 37
1, 43911, Note_off_c, 0, 63, 31
1, 44413, Note_on_c, 0, 65, 28
1, 44494, Note_off_c, 0, 67, 35
1, 44989, Note_on_c, 0, 74, 45
1, 44990, Control_c, 0, 64, 37
1, 44999, Note_off_c, 0, 75, 51
1, 45005, Control_c, 0, 64, 52
1, 45020, Control_c, 0, 64, 60
1, 45035, Control_c, 0, 64, 63
1, 45049, Control_c, 0, 64, 65
1, 45064, Control_c, 0, 64, 67
1, 45078, Control_c, 0, 64, 70
1, 45093, Control_c, 0, 64, 73
1, 45108, Control_c, 0, 64, 77
1, 45122, Control_c, 0, 64, 80
1, 45137, Control_c, 0, 64, 81
1, 45152, Control_c, 0, 64, 81
1, 45167, Control_c, 0, 64, 82
1, 45182, Control_c, 0, 64, 83
1, 45196, Control_c, 0, 64, 84
1, 45211, Control_c, 0, 64, 86
1, 45226, Control_c, 0, 64, 87
1, 45241, Control_c, 0, 64, 87
1, 45256, Control_c, 0, 64, 88
1, 45262, Note_on_c, 0, 68, 58
1, 45271, Control_c, 0, 64, 88
1, 45498, Note_off_c, 0, 68, 57
1, 45524, Control_c, 0, 64, 88
1, 45538, Control_c, 0, 64, 87
1, 45553, Control_c, 0, 64, 86
1, 45568, Control_c, 0, 64, 84
1, 45576, Note_on_c, 0, 67, 65
1, 45580, Note_on_c, 0, 60, 39
1, 45583, Note_on_c, 0, 76, 61
1, 45583, Control_c, 0, 64, 82
1, 45597, Control_c, 0, 64, 79
1, 45612, Control_c, 0, 64, 76
1, 45627, Control_c, 0, 64, 73
1, 45650, Control_c, 0, 64, 69
1, 45664, Control_c, 0, 64, 63
1, 45666, Note_off_c, 0, 70, 38
1, 45666, Note_off_c, 0, 74, 58
1, 45679, Control_c, 0, 64, 47
1, 45694, Note_off_c, 0, 65, 36
1, 45694, Control_c, 0, 64, 0
1, 46174, Note_on_c, 0, 77, 61
1, 46179, Note_off_c, 0, 58, 41
1, 46181, Note_on_c, 0, 72, 59
1, 46183, Note_on_c, 0, 56, 35
1, 46213, Note_off_c, 0, 76, 49
1, 46264, Note_off_c, 0, 67, 38
1, 46673, Note_off_c, 0, 56, 55
1, 46725, Note_on_c, 0, 62, 52
1, 46727, Note_on_c, 0, 71, 58
1, 46729, Note_on_c, 0, 55, 45
1, 46770, Note_off_c, 0, 72, 57
1, 46809, Note_off_c, 0, 60, 37
1, 47222, Note_off_c, 0, 62, 60
1, 47247, Note_on_c, 0, 60, 52
1, 47253, Note_on_c, 0, 63, 49
1, 47282, Note_on_c, 0, 75, 69
1, 47285, Note_on_c, 0, 72, 57
1, 47286, Note_off_c, 0, 55, 54
1, 47333, Note_off_c, 0, 77, 32
1, 47384, Note_off_c, 0, 71, 51
1, 47523, Note_off_c, 0, 72, 64
1, 47534, Note_on_c, 0, 70, 70
1, 47790, Note_on_c, 0, 65, 56
1, 47796, Note_on_c, 0, 74, 73
1, 47799, Note_on_c, 0, 68, 70
1, 47799, Note_off_c, 0, 63, 62
1, 47820, Note_off_c, 0, 70, 58
1, 47850, Note_off_c, 0, 75, 39
1, 48067, Note_off_c, 0, 65, 63
1, 48073, Note_on_c, 0, 63, 65
1, 48362, Note_on_c, 0, 70, 63
1, 48363, Note_on_c, 0, 79, 72
1, 48372, Note_on_c, 0, 58, 45
1, 48374, Note_on_c, 0, 62, 47
1, 48381, Note_off_c, 0, 74, 59
1, 48410, Note_off_c, 0, 68, 30
1, 48421, Note_off_c, 0, 60, 55
1, 48427, Note_off_c, 0, 63, 52
1, 48924, Note_off_c, 0, 58, 61
1, 48938, Note_on_c, 0, 68, 54
1, 48947, Note_on_c, 0, 60, 43
1, 48952, Note_on_c, 0, 63, 36
1, 48961, Note_off_c, 0, 70, 55
1, 48991, Note_off_c, 0, 62, 57
1, 49494, Note_off_c, 0, 79, 53
1, 49501, Note_off_c, 0, 60, 50
1, 49511, Note_on_c, 0, 62, 42
1, 49511, Note_on_c, 0, 65, 33
1, 49515, Note_on_c, 0, 77, 49
1, 49517, Note_off_c, 0, 63, 41
1, 50061, Note_off_c, 0, 62, 49
1, 50080, Note_on_c, 0, 58, 50
1, 50087, Note_off_c, 0, 65, 42
1, 50088, Note_on_c, 0, 55, 49
1, 50365, Control_c, 0, 64, 44
1, 50380, Control_c, 0, 64, 57
1, 50394, Control_c, 0, 64, 62
1, 50409, Control_c, 0, 64, 64
1, 50424, Control_c, 0, 64, 66
1, 50439, Control_c, 0, 64, 68
1, 50454, Control_c, 0, 64, 72
1, 50468, Control_c, 0, 64, 77
1, 50483, Control_c, 0, 64, 79
1, 50498, Control_c, 0, 64, 81
1, 50505, Note_off_c, 0, 68, 31
1, 50513, Control_c, 0, 64, 82
1, 50528, Control_c, 0, 64, 82
1, 50542, Control_c, 0, 64, 83
1, 50557, Control_c, 0, 64, 85
1, 50572, Control_c, 0, 64, 86
1, 50586, Control_c, 0, 64, 87
1, 50589, Note_off_c, 0, 58, 56
1, 50601, Control_c, 0, 64, 87
1, 50616, Control_c, 0, 64, 88
1, 50625, Note_on_c, 0, 75, 65
1, 50628, Note_on_c, 0, 67, 61
1, 50631, Control_c, 0, 64, 88
1, 50649, Note_off_c, 0, 77, 36
1, 50675, Control_c, 0, 64, 89
1, 50871, Note_off_c, 0, 55, 56
1, 50887, Note_on_c, 0, 56, 66
1, 50902, Note_off_c, 0, 67, 49
1, 50905, Control_c, 0, 64, 88
1, 50979, Control_c, 0, 64, 88
1, 51024, Control_c, 0, 64, 87
1, 51054, Control_c, 0, 64, 87
1, 51070, Control_c, 0, 64, 86
1, 51084, Control_c, 0, 64, 86
1, 51114, Control_c, 0, 64, 85
1, 51129, Control_c, 0, 64, 85
1, 51144, Control_c, 0, 64, 84
1, 51158, Control_c, 0, 64, 83
1, 51173, Control_c, 0, 64, 81
1, 51182, Note_off_c, 0, 56, 63
1, 51188, Control_c, 0, 64, 76
1, 51191, Note_on_c, 0, 65, 64
1, 51191, Note_on_c, 0, 58, 67
1, 51203, Control_c, 0, 64, 69
1, 51218, Control_c, 0, 64, 56
1, 51233, Control_c, 0, 64, 0
1, 51337, Control_c, 0, 64, 47
1, 51352, Control_c, 0, 64, 62
1, 51366, Control_c, 0, 64, 67
1, 51381, Control_c, 0, 64, 72
1, 51396, Control_c, 0, 64, 77
1, 51410, Control_c, 0, 64, 80
1, 51425, Control_c, 0, 64, 82
1, 51440, Control_c, 0, 64, 83
1, 51455, Control_c, 0, 64, 84
1, 51470, Note_off_c, 0, 65, 53
1, 51470, Control_c, 0, 64, 85
1, 51484, Control_c, 0, 64, 86
1, 51490, Note_off_c, 0, 75, 57
1, 51499, Control_c, 0, 64, 86
1, 51514, Control_c, 0, 64, 87
1, 51684, Control_c, 0, 64, 87
1, 51699, Control_c, 0, 64, 86
1, 51714, Control_c, 0, 64, 85
1, 51728, Control_c, 0, 64, 84
1, 51740, Note_on_c, 0, 46, 57
1, 51743, Control_c, 0, 64, 82
1, 51746, Note_on_c, 0, 74, 63
1, 51747, Note_on_c, 0, 67, 62
1, 51758, Control_c, 0, 64, 79
1, 51773, Control_c, 0, 64, 76
1, 51788, Control_c, 0, 64, 72
1, 51804, Control_c, 0, 64, 66
1, 51819, Control_c, 0, 64, 53
1, 51833, Control_c, 0, 64, 0
1, 52029, Note_on_c, 0, 68, 67
1, 52045, Note_off_c, 0, 67, 52
1, 52330, Note_on_c, 0, 51, 42
1, 52333, Note_on_c, 0, 67, 57
1, 52358, Note_off_c, 0, 68, 57
1, 52366, Note_off_c, 0, 46, 55
1, 52507, Control_c, 0, 64, 50
1, 52522, Control_c, 0, 64, 60
1, 52537, Control_c, 0, 64, 63
1, 52539, Note_off_c, 0, 74, 50
1, 52544, Note_off_c, 0, 58, 57
1, 52551, Control_c, 0, 64, 65
1, 52565, Control_c, 0, 64, 67
1, 52580, Control_c, 0, 64, 69
1, 52595, Control_c, 0, 64, 72
1, 52610, Control_c, 0, 64, 75
1, 52625, Control_c, 0, 64, 78
1, 52640, Control_c, 0, 64, 79
1, 52655, Control_c, 0, 64, 79
1, 52699, Control_c, 0, 64, 80
1, 52788, Control_c, 0, 64, 79
1, 52818, Control_c, 0, 64, 78
1, 52833, Control_c, 0, 64, 76
1, 52847, Control_c, 0, 64, 72
1, 52862, Control_c, 0, 64, 64
1, 52876, Note_on_c, 0, 72, 60
1, 52877, Control_c, 0, 64, 40
1, 52881, Note_on_c, 0, 63, 46
1, 52892, Control_c, 0, 64, 0
1, 52936, Control_c, 0, 64, 34
1, 52951, Control_c, 0, 64, 51
1, 52966, Control_c, 0, 64, 60
1, 52980, Control_c, 0, 64, 63
1, 52995, Control_c, 0, 64, 65
1, 53010, Control_c, 0, 64, 67
1, 53025, Control_c, 0, 64, 70
1, 53040, Control_c, 0, 64, 72
1, 53054, Control_c, 0, 64, 75
1, 53069, Control_c, 0, 64, 77
1, 53084, Control_c, 0, 64, 78
1, 53135, Note_off_c, 0, 63, 55
1, 53140, Note_off_c, 0, 72, 60
1, 53151, Control_c, 0, 64, 77
1, 53157, Note_on_c, 0, 70, 60
1, 53166, Control_c, 0, 64, 76
1, 53168, Note_on_c, 0, 62, 51
1, 53180, Control_c, 0, 64, 72
1, 53195, Control_c, 0, 64, 65
1, 53210, Control_c, 0, 64, 49
1, 53225, Control_c, 0, 64, 0
1, 53240, Control_c, 0, 64, 21
1, 53244, Note_off_c, 0, 67, 42
1, 53254, Control_c, 0, 64, 49
1, 53269, Control_c, 0, 64, 57
1, 53284, Control_c, 0, 64, 60
1, 53299, Control_c, 0, 64, 62
1, 53313, Control_c, 0, 64, 64
1, 53328, Control_c, 0, 64, 65
1, 53343, Control_c, 0, 64, 67
1, 53358, Control_c, 0, 64, 69
1, 53373, Control_c, 0, 64, 71
1, 53388, Control_c, 0, 64, 72
1, 53403, Control_c, 0, 64, 73
1, 53433, Control_c, 0, 64, 72
1, 53448, Control_c, 0, 64, 70
1, 53451, Note_on_c, 0, 69, 61
1, 53453, Note_on_c, 0, 60, 40
1, 53460, Note_on_c, 0, 65, 51
1, 53462, Note_off_c, 0, 70, 56
1, 53463, Control_c, 0, 64, 64
1, 53477, Control_c, 0, 64, 47
1, 53483, Note_off_c, 0, 62, 34
1, 53492, Control_c, 0, 64, 0
1, 53552, Control_c, 0, 64, 39
1, 53567, Control_c, 0, 64, 59
1, 53582, Control_c, 0, 64, 65
1, 53596, Control_c, 0, 64, 69
1, 53611, Control_c, 0, 64, 73
1, 53626, Control_c, 0, 64, 78
1, 53641, Control_c, 0, 64, 81
1, 53656, Control_c, 0, 64, 82
1, 53669, Note_off_c, 0, 51, 56
1, 53673, Note_off_c, 0, 60, 58
1, 53685, Control_c, 0, 64, 82
1, 53692, Note_off_c, 0, 69, 65
1, 53915, Control_c, 0, 64, 82
1, 53929, Control_c, 0, 64, 81
1, 53944, Control_c, 0, 64, 81
1, 53959, Control_c, 0, 64, 80
1, 53974, Control_c, 0, 64, 79
1, 53989, Control_c, 0, 64, 78
1, 53990, Note_on_c, 0, 50, 42
1, 54003, Note_on_c, 0, 62, 42
1, 54003, Control_c, 0, 64, 77
1, 54005, Note_on_c, 0, 70, 76
1, 54018, Control_c, 0, 64, 76
1, 54033, Control_c, 0, 64, 74
1, 54048, Control_c, 0, 64, 72
1, 54064, Control_c, 0, 64, 69
1, 54078, Control_c, 0, 64, 66
1, 54093, Control_c, 0, 64, 63
1, 54108, Control_c, 0, 64, 57
1, 54123, Control_c, 0, 64, 53
1, 54137, Control_c, 0, 64, 52
1, 54152, Control_c, 0, 64, 51
1, 54167, Control_c, 0, 64, 50
1, 54182, Control_c, 0, 64, 46
1, 54197, Control_c, 0, 64, 42
1, 54213, Control_c, 0, 64, 35
1, 54227, Control_c, 0, 64, 28
1, 54242, Control_c, 0, 64, 15
1, 54257, Control_c, 0, 64, 0
1, 54278, Note_off_c, 0, 62, 60
1, 54282, Note_on_c, 0, 60, 62
1, 54544, Note_on_c, 0, 55, 53
1, 54544, Note_off_c, 0, 50, 48
1, 54548, Note_off_c, 0, 60, 57
1, 54561, Note_on_c, 0, 58, 60
1, 54562, Note_off_c, 0, 65, 59
1, 54664, Control_c, 0, 64, 26
1, 54679, Control_c, 0, 64, 49
1, 54694, Control_c, 0, 64, 58
1, 54709, Control_c, 0, 64, 62
1, 54723, Control_c, 0, 64, 64
1, 54738, Control_c, 0, 64, 66
1, 54753, Control_c, 0, 64, 69
1, 54768, Control_c, 0, 64, 71
1, 54783, Control_c, 0, 64, 74
1, 54798, Control_c, 0, 64, 76
1, 54799, Note_off_c, 0, 70, 61
1, 54811, Note_off_c, 0, 58, 56
1, 54813, Control_c, 0, 64, 77
1, 54819, Note_on_c, 0, 57, 68
1, 54931, Control_c, 0, 64, 76
1, 54960, Control_c, 0, 64, 76
1, 54975, Control_c, 0, 64, 75
1, 54990, Control_c, 0, 64, 75
1, 55006, Control_c, 0, 64, 74
1, 55021, Control_c, 0, 64, 72
1, 55036, Control_c, 0, 64, 70
1, 55050, Control_c, 0, 64, 68
1, 55065, Control_c, 0, 64, 65
1, 55080, Control_c, 0, 64, 64
1, 55081, Note_on_c, 0, 58, 58
1, 55095, Control_c, 0, 64, 63
1, 55108, Note_off_c, 0, 57, 55
1, 55110, Control_c, 0, 64, 62
1, 55124, Control_c, 0, 64, 61
1, 55133, Note_on_c, 0, 75, 72
1, 55138, Note_on_c, 0, 63, 72
1, 55139, Control_c, 0, 64, 59
1, 55154, Control_c, 0, 64, 56
1, 55169, Control_c, 0, 64, 52
1, 55183, Control_c, 0, 64, 47
1, 55198, Control_c, 0, 64, 41
1, 55213, Control_c, 0, 64, 36
1, 55228, Control_c, 0, 64, 29
1, 55243, Control_c, 0, 64, 18
1, 55257, Control_c, 0, 64, 0
1, 55268, Note_on_c, 0, 74, 63
1, 55337, Note_off_c, 0, 75, 0
1, 55381, Poly_aftertouch_c, 0, 75, 127
1, 55394, Note_on_c, 0, 72, 58
1, 55394, Note_off_c, 0, 74, 52
1, 55412, Note_off_c, 0, 55, 49
1, 55469, Note_off_c, 0, 72, 47
1, 55480, Note_on_c, 0, 75, 24
1, 55519, Note_on_c, 0, 70, 59
1, 55620, Note_off_c, 0, 70, 63
1, 55689, Note_on_c, 0, 69, 55
1, 55698, Note_on_c, 0, 60, 42
1, 55711, Note_on_c, 0, 53, 35
1, 55719, Note_off_c, 0, 58, 60
1, 56080, Note_off_c, 0, 63, 39
1, 56238, Note_off_c, 0, 75, 60
1, 56255, Note_on_c, 0, 74, 53
1, 56260, Note_on_c, 0, 70, 58
1, 56265, Note_off_c, 0, 60, 62
1, 56274, Note_on_c, 0, 62, 56
1, 56545, Note_on_c, 0, 63, 66
1, 56578, Note_off_c, 0, 62, 41
1, 56831, Note_off_c, 0, 74, 49
1, 56846, Note_on_c, 0, 72, 62
1, 56853, Note_on_c, 0, 65, 67
1, 56893, Note_off_c, 0, 69, 38
1, 56900, Note_off_c, 0, 63, 65
1, 56912, Note_off_c, 0, 70, 54
1, 57406, Note_on_c, 0, 68, 53
1, 57645, Note_off_c, 0, 65, 53
1, 57660, Note_on_c, 0, 63, 52
1, 57827, Note_off_c, 0, 72, 53
1, 57896, Note_off_c, 0, 53, 44
1, 57917, Note_on_c, 0, 70, 58
1, 57919, Note_off_c, 0, 63, 62
1, 57920, Note_on_c, 0, 55, 39
1, 57943, Note_on_c, 0, 62, 44
1, 57973, Note_off_c, 0, 68, 54
1, 58170, Note_off_c, 0, 62, 55
1, 58178, Control_c, 0, 64, 27
1, 58193, Control_c, 0, 64, 47
1, 58197, Note_on_c, 0, 58, 42
1, 58208, Control_c, 0, 64, 56
1, 58223, Control_c, 0, 64, 61
1, 58238, Control_c, 0, 64, 64
1, 58253, Control_c, 0, 64, 65
1, 58268, Control_c, 0, 64, 67
1, 58283, Control_c, 0, 64, 68
1, 58298, Control_c, 0, 64, 70
1, 58312, Control_c, 0, 64, 73
1, 58318, Note_off_c, 0, 58, 61
1, 58327, Control_c, 0, 64, 74
1, 58342, Control_c, 0, 64, 75
1, 58396, Note_off_c, 0, 55, 42
1, 58456, Note_on_c, 0, 67, 52
1, 58457, Note_on_c, 0, 63, 48
1, 58482, Control_c, 0, 64, 75
1, 58512, Control_c, 0, 64, 74
1, 58527, Control_c, 0, 64, 73
1, 58542, Control_c, 0, 64, 72
1, 58557, Control_c, 0, 64, 71
1, 58572, Control_c, 0, 64, 67
1, 58587, Control_c, 0, 64, 64
1, 58590, Note_on_c, 0, 53, 52
1, 58601, Control_c, 0, 64, 58
1, 58616, Control_c, 0, 64, 49
1, 58631, Control_c, 0, 64, 44
1, 58646, Control_c, 0, 64, 43
1, 58661, Control_c, 0, 64, 43
1, 58675, Control_c, 0, 64, 42
1, 58677, Note_off_c, 0, 53, 38
1, 58690, Control_c, 0, 64, 40
1, 58705, Control_c, 0, 64, 37
1, 58719, Control_c, 0, 64, 34
1, 58728, Note_on_c, 0, 51, 47
1, 58734, Control_c, 0, 64, 31
1, 58749, Control_c, 0, 64, 29
1, 58779, Control_c, 0, 64, 29
1, 58808, Control_c, 0, 64, 27
1, 58823, Control_c, 0, 64, 24
1, 58837, Note_off_c, 0, 51, 59
1, 58838, Control_c, 0, 64, 18
1, 58853, Control_c, 0, 64, 0
1, 58888, Note_on_c, 0, 50, 45
1, 58999, Note_off_c, 0, 67, 57
1, 59048, Note_on_c, 0, 68, 55
1, 59051, Note_off_c, 0, 50, 43
1, 59057, Note_on_c, 0, 48, 46
1, 59082, Note_off_c, 0, 70, 31
1, 59579, Note_on_c, 0, 50, 46
1, 59588, Note_on_c, 0, 65, 54
1, 59599, Note_on_c, 0, 58, 50
1, 59612, Note_off_c, 0, 68, 61
1, 59631, Note_off_c, 0, 48, 42
1, 60143, Note_off_c, 0, 50, 50
1, 60150, Note_on_c, 0, 51, 46
1, 60153, Note_on_c, 0, 67, 57
1, 60195, Note_off_c, 0, 65, 59
1, 60623, Note_off_c, 0, 63, 60
1, 60751, Note_on_c, 0, 63, 53
1, 60887, Note_off_c, 0, 51, 48
1, 60898, Note_on_c, 0, 49, 45
1, 61009, Note_off_c, 0, 49, 55
1, 61039, Note_on_c, 0, 61, 55
1, 61045, Note_on_c, 0, 48, 41
1, 61060, Note_off_c, 0, 67, 39
1, 61085, Control_c, 0, 64, 46
1, 61100, Control_c, 0, 64, 56
1, 61114, Control_c, 0, 64, 60
1, 61129, Control_c, 0, 64, 62
1, 61144, Control_c, 0, 64, 64
1, 61159, Control_c, 0, 64, 65
1, 61174, Control_c, 0, 64, 66
1, 61179, Note_on_c, 0, 46, 54
1, 61188, Control_c, 0, 64, 67
1, 61195, Note_off_c, 0, 48, 45
1, 61203, Control_c, 0, 64, 68
1, 61218, Control_c, 0, 64, 68
1, 61222, Note_off_c, 0, 46, 63
1, 61269, Note_off_c, 0, 61, 62
1, 61277, Control_c, 0, 64, 68
1, 61292, Control_c, 0, 64, 67
1, 61307, Control_c, 0, 64, 66
1, 61321, Control_c, 0, 64, 64
1, 61336, Control_c, 0, 64, 61
1, 61348, Note_off_c, 0, 63, 12
1, 61351, Control_c, 0, 64, 55
1, 61353, Note_on_c, 0, 44, 47
1, 61353, Note_on_c, 0, 60, 59
1, 61374, Control_c, 0, 64, 48
1, 61389, Control_c, 0, 64, 40
1, 61404, Control_c, 0, 64, 33
1, 61419, Control_c, 0, 64, 23
1, 61433, Control_c, 0, 64, 0
1, 61897, Note_on_c, 0, 56, 45
1, 61908, Note_on_c, 0, 65, 55
1, 62176, Note_off_c, 0, 56, 51
1, 62191, Note_off_c, 0, 65, 61
1, 62197, Note_on_c, 0, 63, 56
1, 62217, Note_on_c, 0, 55, 46
1, 62447, Note_off_c, 0, 63, 50
1, 62514, Note_on_c, 0, 53, 31
1, 62518, Note_on_c, 0, 62, 48
1, 62528, Note_on_c, 0, 46, 44
1, 62587, Note_off_c, 0, 55, 23
1, 62631, Note_off_c, 0, 44, 35
1, 62751, Note_off_c, 0, 58, 22
1, 63091, Note_on_c, 0, 58, 61
1, 63094, Note_off_c, 0, 60, 56
1, 63109, Note_on_c, 0, 55, 41
1, 63138, Note_off_c, 0, 53, 42
1, 63362, Note_on_c, 0, 53, 44
1, 63404, Note_off_c, 0, 55, 35
1, 63653, Note_off_c, 0, 46, 43
1, 63659, Note_on_c, 0, 51, 39
1, 63676, Note_on_c, 0, 63, 51
1, 63684, Note_on_c, 0, 48, 38
1, 63715, Note_off_c, 0, 62, 56
1, 63720, Note_off_c, 0, 53, 37
1, 64253, Note_off_c, 0, 58, 61
1, 64279, Note_on_c, 0, 57, 58
1, 64531, Note_off_c, 0, 51, 52
1, 64548, Note_on_c, 0, 53, 48
1, 64825, Note_off_c, 0, 53, 55
1, 64859, Note_on_c, 0, 58, 52
1, 64861, Note_on_c, 0, 55, 42
1, 64874, Note_on_c, 0, 46, 38
1, 64893, Note_off_c, 0, 48, 40
1, 64947, Note_off_c, 0, 57, 35
1, 65430, Note_on_c, 0, 62, 53
1, 65437, Note_on_c, 0, 53, 45
1, 65451, Note_off_c, 0, 55, 36
1, 65486, Note_off_c, 0, 58, 57
1, 65508, Note_off_c, 0, 63, 24
1, 65709, Note_on_c, 0, 60, 49
1, 65720, Note_off_c, 0, 53, 58
1, 65720, Note_off_c, 0, 62, 57
1, 65723, Note_on_c, 0, 51, 45
1, 65977, Note_off_c, 0, 60, 60
1, 66030, Note_off_c, 0, 51, 54
1, 66032, Note_on_c, 0, 62, 47
1, 66045, Note_on_c, 0, 53, 35
1, 66243, Note_on_c, 0, 70, 50
1, 66358, Note_off_c, 0, 70, 63
1, 66379, Note_on_c, 0, 72, 58
1, 66496, Note_off_c, 0, 72, 61
1, 66506, Note_on_c, 0, 74, 57
1, 66641, Note_on_c, 0, 51, 61
1, 66645, Note_on_c, 0, 72, 59
1, 66653, Note_off_c, 0, 74, 39
1, 66665, Note_off_c, 0, 62, 36
1, 66722, Note_off_c, 0, 53, 39
1, 66781, Note_off_c, 0, 72, 57
1, 66792, Note_on_c, 0, 70, 61
1, 66827, Note_off_c, 0, 46, 36
1, 66913, Note_off_c, 0, 70, 53
1, 66928, Note_on_c, 0, 69, 62
1, 67017, Note_off_c, 0, 69, 61
1, 67061, Note_on_c, 0, 67, 64
1, 67167, Note_off_c, 0, 67, 55
1, 67218, Note_on_c, 0, 65, 67
1, 67454, Note_off_c, 0, 65, 60
1, 67498, Note_on_c, 0, 67, 64
1, 67616, Note_off_c, 0, 67, 36
1, 67619, Note_on_c, 0, 69, 65
1, 67722, Note_off_c, 0, 69, 52
1, 67762, Note_on_c, 0, 70, 63
1, 67771, Note_on_c, 0, 50, 63
1, 67780, Note_off_c, 0, 51, 53
1, 67896, Note_on_c, 0, 69, 60
1, 67896, Note_off_c, 0, 70, 53
1, 67984, Note_off_c, 0, 69, 62
1, 68037, Note_on_c, 0, 67, 62
1, 68173, Note_on_c, 0, 65, 64
1, 68182, Note_off_c, 0, 67, 51
1, 68310, Note_on_c, 0, 63, 66
1, 68312, Note_off_c, 0, 65, 58
1, 68319, Note_on_c, 0, 55, 64
1, 68358, Note_off_c, 0, 50, 58
1, 68449, Note_on_c, 0, 62, 55
1, 68449, Note_off_c, 0, 63, 59
1, 68541, Note_off_c, 0, 62, 59
1, 68602, Note_on_c, 0, 60, 61
1, 68689, Note_off_c, 0, 60, 58
1, 68735, Note_on_c, 0, 58, 63
1, 68896, Note_off_c, 0, 58, 63
1, 68907, Note_on_c, 0, 63, 73
1, 68965, Control_c, 0, 64, 50
1, 68980, Control_c, 0, 64, 60
1, 68995, Control_c, 0, 64, 64
1, 69009, Control_c, 0, 64, 65
1, 69024, Control_c, 0, 64, 68
1, 69039, Control_c, 0, 64, 73
1, 69053, Control_c, 0, 64, 77
1, 69068, Control_c, 0, 64, 80
1, 69079, Note_off_c, 0, 63, 61
1, 69083, Control_c, 0, 64, 82
1, 69098, Control_c, 0, 64, 83
1, 69113, Control_c, 0, 64, 84
1, 69127, Control_c, 0, 64, 85
1, 69142, Control_c, 0, 64, 86
1, 69157, Control_c, 0, 64, 88
1, 69172, Control_c, 0, 64, 88
1, 69187, Control_c, 0, 64, 89
1, 69191, Note_on_c, 0, 63, 74
1, 69202, Control_c, 0, 64, 89
1, 69231, Control_c, 0, 64, 90
1, 69278, Note_off_c, 0, 63, 65
1, 69306, Control_c, 0, 64, 90
1, 69410, Control_c, 0, 64, 90
1, 69440, Control_c, 0, 64, 89
1, 69455, Control_c, 0, 64, 88
1, 69469, Control_c, 0, 64, 87
1, 69484, Control_c, 0, 64, 84
1, 69488, Note_on_c, 0, 63, 76
1, 69493, Note_on_c, 0, 53, 58
1, 69499, Control_c, 0, 64, 81
1, 69514, Control_c, 0, 64, 75
1, 69529, Control_c, 0, 64, 70
1, 69543, Control_c, 0, 64, 63
1, 69558, Control_c, 0, 64, 34
1, 69567, Note_off_c, 0, 55, 36
1, 69573, Control_c, 0, 64, 0
1, 69637, Note_on_c, 0, 68, 59
1, 69771, Note_off_c, 0, 68, 49
1, 69786, Note_on_c, 0, 70, 61
1, 69932, Note_on_c, 0, 72, 62
1, 69942, Note_off_c, 0, 70, 57
1, 70068, Note_on_c, 0, 70, 64
1, 70068, Note_off_c, 0, 72, 60
1, 70073, Note_on_c, 0, 62, 71
1, 70173, Note_off_c, 0, 63, 55
1, 70173, Control_c, 0, 64, 29
1, 70188, Control_c, 0, 64, 55
1, 70203, Control_c, 0, 64, 62
1, 70218, Note_on_c, 0, 68, 70
1, 70218, Control_c, 0, 64, 65
1, 70233, Control_c, 0, 64, 68
1, 70246, Note_off_c, 0, 70, 51
1, 70247, Control_c, 0, 64, 71
1, 70262, Control_c, 0, 64, 75
1, 70277, Control_c, 0, 64, 79
1, 70291, Control_c, 0, 64, 81
1, 70306, Control_c, 0, 64, 82
1, 70333, Note_off_c, 0, 62, 61
1, 70336, Control_c, 0, 64, 82
1, 70358, Control_c, 0, 64, 83
1, 70364, Note_off_c, 0, 68, 59
1, 70366, Note_on_c, 0, 67, 78
1, 70373, Control_c, 0, 64, 84
1, 70384, Note_off_c, 0, 53, 58
1, 70388, Control_c, 0, 64, 84
1, 70403, Control_c, 0, 64, 85
1, 70433, Note_off_c, 0, 67, 60
1, 70510, Note_on_c, 0, 65, 58
1, 70519, Note_on_c, 0, 67, 72
1, 70564, Note_off_c, 0, 65, 62
1, 70566, Note_off_c, 0, 67, 58
1, 70567, Control_c, 0, 64, 84
1, 70611, Control_c, 0, 64, 84
1, 70626, Control_c, 0, 64, 83
1, 70641, Control_c, 0, 64, 82
1, 70653, Note_on_c, 0, 51, 70
1, 70655, Note_on_c, 0, 67, 82
1, 70655, Control_c, 0, 64, 80
1, 70658, Note_on_c, 0, 63, 69
1, 70670, Control_c, 0, 64, 76
1, 70685, Control_c, 0, 64, 72
1, 70699, Control_c, 0, 64, 65
1, 70714, Control_c, 0, 64, 50
1, 70729, Control_c, 0, 64, 0
1, 70800, Note_on_c, 0, 75, 81
1, 70923, Note_off_c, 0, 75, 39
1, 70934, Note_on_c, 0, 77, 82
1, 71058, Note_on_c, 0, 79, 85
1, 71082, Note_off_c, 0, 77, 58
1, 71214, Note_off_c, 0, 63, 62
1, 71214, Note_on_c, 0, 56, 77
1, 71224, Note_on_c, 0, 77, 78
1, 71245, Note_off_c, 0, 51, 58
1, 71245, Note_off_c, 0, 79, 55
1, 71353, Note_off_c, 0, 67, 33
1, 71363, Note_on_c, 0, 75, 75
1, 71412, Note_off_c, 0, 77, 54
1, 71486, Note_on_c, 0, 53, 69
1, 71494, Note_off_c, 0, 75, 42
1, 71500, Note_on_c, 0, 74, 77
1, 71563, Note_off_c, 0, 53, 65
1, 71574, Note_off_c, 0, 74, 63
1, 71625, Note_on_c, 0, 72, 83
1, 71777, Note_on_c, 0, 55, 71
1, 71777, Note_on_c, 0, 70, 80
1, 71777, Note_off_c, 0, 72, 55
1, 72038, Note_off_c, 0, 55, 62
1, 72040, Note_off_c, 0, 70, 59
1, 72051, Note_on_c, 0, 53, 65
1, 72070, Note_on_c, 0, 72, 74
1, 72189, Note_off_c, 0, 72, 60
1, 72193, Note_on_c, 0, 74, 70
1, 72314, Note_off_c, 0, 53, 64
1, 72317, Note_off_c, 0, 56, 58
1, 72323, Note_on_c, 0, 55, 65
1, 72324, Note_off_c, 0, 74, 38
1, 72330, Note_on_c, 0, 51, 59
1, 72339, Note_on_c, 0, 75, 72
1, 72420, Note_off_c, 0, 75, 52
1, 72454, Note_on_c, 0, 74, 64
1, 72525, Note_off_c, 0, 74, 64
1, 72583, Note_on_c, 0, 72, 61
1, 72585, Note_off_c, 0, 51, 58
1, 72589, Note_on_c, 0, 50, 56
1, 72621, Control_c, 0, 64, 58
1, 72636, Control_c, 0, 64, 65
1, 72651, Control_c, 0, 64, 69
1, 72658, Note_off_c, 0, 72, 64
1, 72665, Control_c, 0, 64, 73
1, 72680, Control_c, 0, 64, 78
1, 72695, Control_c, 0, 64, 80
1, 72710, Control_c, 0, 64, 81
1, 72719, Note_on_c, 0, 70, 71
1, 72720, Note_off_c, 0, 50, 55
1, 72740, Control_c, 0, 64, 82
1, 72761, Note_off_c, 0, 70, 56
1, 72844, Control_c, 0, 64, 81
1, 72858, Control_c, 0, 64, 79
1, 72864, Note_off_c, 0, 55, 52
1, 72873, Control_c, 0, 64, 76
1, 72877, Note_on_c, 0, 68, 77
1, 72877, Note_on_c, 0, 60, 71
1, 72880, Note_on_c, 0, 48, 62
1, 72888, Control_c, 0, 64, 72
1, 72902, Control_c, 0, 64, 66
1, 72917, Control_c, 0, 64, 56
1, 72932, Control_c, 0, 64, 0
1, 73022, Note_on_c, 0, 67, 66
1, 73026, Note_on_c, 0, 51, 59
1, 73033, Note_off_c, 0, 48, 38
1, 73069, Note_off_c, 0, 68, 37
1, 73098, Note_off_c, 0, 67, 57
1, 73136, Note_off_c, 0, 51, 51
1, 73154, Note_on_c, 0, 65, 69
1, 73157, Note_on_c, 0, 53, 66
1, 73247, Note_off_c, 0, 53, 62
1, 73249, Note_off_c, 0, 65, 51
1, 73275, Note_off_c, 0, 60, 0
1, 73286, Note_on_c, 0, 63, 71
1, 73289, Note_on_c, 0, 55, 64
1, 73312, Poly_aftertouch_c, 0, 60, 127
1, 73380, Note_off_c, 0, 63, 63
1, 73406, Note_off_c, 0, 55, 36
1, 73438, Note_on_c, 0, 68, 83
1, 73446, Note_on_c, 0, 53, 62
1, 73564, Note_off_c, 0, 53, 61
1, 73578, Control_c, 0, 64, 35
1, 73578, Note_on_c, 0, 51, 63
1, 73593, Control_c, 0, 64, 47
1, 73607, Control_c, 0, 64, 53
1, 73622, Control_c, 0, 64, 56
1, 73637, Control_c, 0, 64, 58
1, 73639, Note_off_c, 0, 68, 64
1, 73651, Control_c, 0, 64, 60
1, 73666, Control_c, 0, 64, 62
1, 73679, Note_off_c, 0, 51, 45
1, 73681, Control_c, 0, 64, 64
1, 73696, Control_c, 0, 64, 65
1, 73711, Control_c, 0, 64, 65
1, 73717, Note_on_c, 0, 68, 82
1, 73719, Note_on_c, 0, 50, 62
1, 73799, Control_c, 0, 64, 66
1, 73833, Note_off_c, 0, 50, 58
1, 73855, Note_on_c, 0, 48, 58
1, 73903, Control_c, 0, 64, 65
1, 73932, Control_c, 0, 64, 65
1, 73939, Note_off_c, 0, 68, 62
1, 73947, Control_c, 0, 64, 64
1, 73962, Control_c, 0, 64, 62
1, 73977, Control_c, 0, 64, 59
1, 73983, Note_off_c, 0, 48, 65
1, 73987, Note_on_c, 0, 58, 54
1, 73992, Control_c, 0, 64, 53
1, 74000, Note_on_c, 0, 68, 81
1, 74007, Control_c, 0, 64, 40
1, 74014, Note_on_c, 0, 51, 50
1, 74022, Control_c, 0, 64, 24
1, 74037, Control_c, 0, 64, 0
1, 74124, Note_off_c, 0, 51, 61
1, 74149, Note_on_c, 0, 50, 52
1, 74269, Note_off_c, 0, 50, 61
1, 74300, Note_on_c, 0, 48, 52
1, 74412, Note_off_c, 0, 48, 62
1, 74438, Note_on_c, 0, 46, 50
1, 74567, Note_off_c, 0, 68, 53
1, 74579, Poly_aftertouch_c, 0, 60, 0
1, 74598, Note_off_c, 0, 58, 50
1, 74601, Note_on_c, 0, 67, 64
1, 74606, Note_off_c, 0, 46, 45
1, 74608, Note_on_c, 0, 51, 49
1, 74731, Note_on_c, 0, 62, 62
1, 74850, Note_off_c, 0, 62, 57
1, 74851, Note_off_c, 0, 51, 57
1, 74888, Note_on_c, 0, 50, 50
1, 74890, Note_on_c, 0, 63, 66
1, 75009, Note_off_c, 0, 63, 48
1, 75035, Note_on_c, 0, 65, 68
1, 75116, Note_off_c, 0, 50, 57
1, 75172, Note_off_c, 0, 65, 62
1, 75178, Note_on_c, 0, 48, 67
1, 75178, Note_on_c, 0, 63, 72
1, 75280, Note_off_c, 0, 63, 64
1, 75325, Note_on_c, 0, 62, 67
1, 75436, Note_off_c, 0, 62, 57
1, 75475, Note_on_c, 0, 60, 65
1, 75502, Note_off_c, 0, 67, 37
1, 75582, Note_off_c, 0, 60, 59
1, 75619, Note_on_c, 0, 58, 69
1, 75682, Note_off_c, 0, 58, 64
1, 75741, Note_on_c, 0, 69, 73
1, 75742, Note_on_c, 0, 63, 70
1, 75751, Note_off_c, 0, 48, 59
1, 75876, Note_on_c, 0, 48, 65
1, 75967, Note_off_c, 0, 63, 63
1, 75994, Note_off_c, 0, 48, 47
1, 76009, Note_on_c, 0, 60, 71
1, 76020, Note_on_c, 0, 50, 67
1, 76117, Note_off_c, 0, 69, 34
1, 76133, Note_off_c, 0, 50, 62
1, 76142, Note_on_c, 0, 51, 68
1, 76254, Note_off_c, 0, 60, 47
1, 76263, Note_off_c, 0, 51, 59
1, 76291, Note_on_c, 0, 50, 63
1, 76293, Note_on_c, 0, 70, 76
1, 76296, Note_on_c, 0, 65, 76
1, 76433, Note_off_c, 0, 50, 58
1, 76446, Note_on_c, 0, 48, 64
1, 76564, Note_off_c, 0, 48, 58
1, 76585, Note_on_c, 0, 72, 77
1, 76588, Note_on_c, 0, 46, 71
1, 76671, Note_off_c, 0, 70, 46
1, 76685, Note_off_c, 0, 46, 59
1, 76720, Note_on_c, 0, 45, 71
1, 76873, Note_on_c, 0, 46, 71
1, 76886, Note_off_c, 0, 45, 47
1, 76889, Note_on_c, 0, 74, 78
1, 76889, Note_off_c, 0, 65, 64
1, 76917, Note_off_c, 0, 72, 60
1, 77024, Note_on_c, 0, 65, 77
1, 77130, Note_off_c, 0, 46, 64
1, 77170, Note_on_c, 0, 58, 80
1, 77179, Note_on_c, 0, 67, 81
1, 77213, Note_off_c, 0, 65, 63
1, 77308, Note_on_c, 0, 68, 86
1, 77332, Note_off_c, 0, 67, 61
1, 77395, Note_off_c, 0, 58, 62
1, 77447, Note_on_c, 0, 58, 73
1, 77456, Note_on_c, 0, 51, 65
1, 77462, Note_on_c, 0, 67, 79
1, 77495, Note_off_c, 0, 68, 61
1, 77579, Note_off_c, 0, 67, 61
1, 77603, Note_on_c, 0, 65, 76
1, 77741, Note_on_c, 0, 63, 72
1, 77748, Note_off_c, 0, 65, 62
1, 77771, Note_off_c, 0, 74, 47
1, 77876, Note_off_c, 0, 63, 62
1, 77882, Note_on_c, 0, 62, 74
1, 78052, Note_on_c, 0, 63, 68
1, 78058, Note_on_c, 0, 67, 65
1, 78061, Note_off_c, 0, 62, 58
1, 78213, Note_off_c, 0, 67, 55
1, 78213, Note_on_c, 0, 74, 61
1, 78324, Note_off_c, 0, 74, 61
1, 78339, Note_on_c, 0, 72, 67
1, 78457, Note_off_c, 0, 51, 52
1, 78475, Note_on_c, 0, 70, 76
1, 78492, Note_off_c, 0, 72, 58
1, 78506, Note_off_c, 0, 58, 37
1, 78614, Note_off_c, 0, 70, 46
1, 78637, Note_on_c, 0, 65, 73
1, 78637, Note_on_c, 0, 69, 74
1, 78791, Note_on_c, 0, 53, 65
1, 78857, Note_off_c, 0, 63, 40
1, 78906, Note_off_c, 0, 53, 60
1, 78919, Note_on_c, 0, 55, 64
1, 78921, Note_on_c, 0, 70, 76
1, 78952, Note_off_c, 0, 69, 57
1, 79053, Note_on_c, 0, 57, 71
1, 79057, Note_off_c, 0, 55, 37
1, 79069, Note_on_c, 0, 72, 80
1, 79072, Note_off_c, 0, 70, 64
1, 79215, Note_on_c, 0, 74, 85
1, 79221, Note_on_c, 0, 58, 63
1, 79221, Note_on_c, 0, 62, 60
1, 79226, Note_off_c, 0, 57, 59
1, 79233, Note_off_c, 0, 72, 32
1, 79263, Control_c, 0, 64, 20
1, 79278, Control_c, 0, 64, 44
1, 79293, Control_c, 0, 64, 53
1, 79308, Control_c, 0, 64, 57
1, 79323, Control_c, 0, 64, 61
1, 79345, Control_c, 0, 64, 63
1, 79360, Control_c, 0, 64, 65
1, 79361, Note_off_c, 0, 62, 60
1, 79375, Control_c, 0, 64, 67
1, 79376, Note_on_c, 0, 57, 67
1, 79390, Control_c, 0, 64, 71
1, 79400, Note_off_c, 0, 58, 60
1, 79405, Control_c, 0, 64, 74
1, 79419, Control_c, 0, 64, 77
1, 79434, Control_c, 0, 64, 79
1, 79449, Control_c, 0, 64, 80
1, 79463, Control_c, 0, 64, 80
1, 79502, Note_off_c, 0, 57, 59
1, 79515, Note_on_c, 0, 55, 69
1, 79595, Note_off_c, 0, 55, 59
1, 79651, Note_on_c, 0, 53, 71
1, 79730, Control_c, 0, 64, 80
1, 79745, Control_c, 0, 64, 79
1, 79760, Control_c, 0, 64, 79
1, 79775, Control_c, 0, 64, 78
1, 79790, Control_c, 0, 64, 75
1, 79802, Note_on_c, 0, 67, 84
1, 79805, Control_c, 0, 64, 69
1, 79808, Note_off_c, 0, 53, 62
1, 79811, Note_off_c, 0, 65, 53
1, 79813, Note_on_c, 0, 51, 69
1, 79820, Control_c, 0, 64, 58
1, 79835, Control_c, 0, 64, 0
1, 79969, Note_on_c, 0, 50, 69
1, 79970, Note_off_c, 0, 51, 61
1, 80099, Note_off_c, 0, 50, 60
1, 80122, Note_on_c, 0, 48, 67
1, 80253, Note_off_c, 0, 48, 65
1, 80262, Note_on_c, 0, 46, 69
1, 80316, Control_c, 0, 64, 23
1, 80331, Control_c, 0, 64, 43
1, 80335, Note_off_c, 0, 67, 58
1, 80346, Control_c, 0, 64, 52
1, 80360, Control_c, 0, 64, 58
1, 80363, Note_off_c, 0, 74, 35
1, 80375, Control_c, 0, 64, 62
1, 80390, Control_c, 0, 64, 64
1, 80405, Note_on_c, 0, 51, 64
1, 80405, Control_c, 0, 64, 66
1, 80412, Note_on_c, 0, 63, 69
1, 80419, Control_c, 0, 64, 69
1, 80434, Control_c, 0, 64, 71
1, 80439, Note_off_c, 0, 46, 62
1, 80449, Control_c, 0, 64, 73
1, 80464, Control_c, 0, 64, 76
1, 80478, Note_off_c, 0, 51, 62
1, 80479, Control_c, 0, 64, 77
1, 80482, Note_off_c, 0, 63, 64
1, 80493, Control_c, 0, 64, 77
1, 80542, Note_on_c, 0, 72, 77
1, 80627, Control_c, 0, 64, 76
1, 80642, Control_c, 0, 64, 73
1, 80657, Control_c, 0, 64, 67
1, 80672, Control_c, 0, 64, 48
1, 80687, Control_c, 0, 64, 0
1, 80693, Note_on_c, 0, 62, 83
1, 80696, Note_on_c, 0, 51, 74
1, 80696, Note_on_c, 0, 74, 81
1, 80732, Note_off_c, 0, 72, 61
1, 80777, Control_c, 0, 64, 56
1, 80791, Control_c, 0, 64, 64
1, 80806, Control_c, 0, 64, 67
1, 80821, Control_c, 0, 64, 70
1, 80839, Note_on_c, 0, 75, 84
1, 80842, Note_off_c, 0, 51, 54
1, 80842, Control_c, 0, 64, 74
1, 80844, Note_off_c, 0, 62, 58
1, 80857, Control_c, 0, 64, 77
1, 80861, Note_off_c, 0, 74, 61
1, 80872, Control_c, 0, 64, 79
1, 80887, Control_c, 0, 64, 80
1, 80902, Control_c, 0, 64, 81
1, 80961, Control_c, 0, 64, 80
1, 80976, Control_c, 0, 64, 79
1, 80989, Note_on_c, 0, 77, 92
1, 80991, Control_c, 0, 64, 77
1, 80997, Note_on_c, 0, 60, 80
1, 80999, Note_on_c, 0, 51, 72
1, 81006, Control_c, 0, 64, 72
1, 81021, Control_c, 0, 64, 65
1, 81029, Note_off_c, 0, 75, 62
1, 81035, Control_c, 0, 64, 38
1, 81050, Control_c, 0, 64, 0
1, 81145, Note_on_c, 0, 69, 76
1, 81294, Note_on_c, 0, 70, 79
1, 81319, Note_off_c, 0, 69, 59
1, 81452, Note_on_c, 0, 72, 78
1, 81473, Note_off_c, 0, 70, 61
1, 81526, Note_off_c, 0, 60, 55
1, 81548, Note_off_c, 0, 51, 61
1, 81598, Note_on_c, 0, 70, 81
1, 81606, Note_on_c, 0, 50, 61
1, 81611, Note_on_c, 0, 62, 65
1, 81627, Note_off_c, 0, 72, 60
1, 81636, Control_c, 0, 64, 20
1, 81651, Control_c, 0, 64, 61
1, 81665, Control_c, 0, 64, 67
1, 81680, Note_off_c, 0, 77, 54
1, 81680, Control_c, 0, 64, 72
1, 81695, Control_c, 0, 64, 78
1, 81710, Control_c, 0, 64, 81
1, 81725, Control_c, 0, 64, 84
1, 81739, Control_c, 0, 64, 85
1, 81741, Note_off_c, 0, 70, 54
1, 81745, Note_on_c, 0, 69, 82
1, 81754, Control_c, 0, 64, 87
1, 81769, Control_c, 0, 64, 89
1, 81784, Control_c, 0, 64, 91
1, 81799, Control_c, 0, 64, 93
1, 81801, Note_off_c, 0, 50, 62
1, 81814, Control_c, 0, 64, 95
1, 81829, Control_c, 0, 64, 96
1, 81837, Note_off_c, 0, 69, 62
1, 81844, Control_c, 0, 64, 98
1, 81858, Control_c, 0, 64, 99
1, 81873, Control_c, 0, 64, 101
1, 81882, Note_on_c, 0, 67, 84
1, 81888, Control_c, 0, 64, 102
1, 81903, Control_c, 0, 64, 103
1, 81918, Control_c, 0, 64, 105
1, 81932, Control_c, 0, 64, 106
1, 81947, Control_c, 0, 64, 106
1, 81962, Control_c, 0, 64, 107
1, 81972, Note_off_c, 0, 67, 60
1, 81991, Control_c, 0, 64, 107
1, 82023, Note_on_c, 0, 65, 86
1, 82073, Note_off_c, 0, 65, 64
1, 82164, Note_on_c, 0, 55, 73
1, 82207, Note_off_c, 0, 62, 60
1, 82215, Control_c, 0, 64, 106
1, 82225, Note_on_c, 0, 70, 95
1, 82229, Control_c, 0, 64, 104
1, 82244, Control_c, 0, 64, 102
1, 82259, Control_c, 0, 64, 98
1, 82274, Control_c, 0, 64, 94
1, 82288, Control_c, 0, 64, 89
1, 82303, Control_c, 0, 64, 84
1, 82318, Control_c, 0, 64, 78
1, 82341, Control_c, 0, 64, 71
1, 82356, Control_c, 0, 64, 63
1, 82370, Control_c, 0, 64, 0
1, 82393, Note_on_c, 0, 77, 75
1, 82397, Note_on_c, 0, 62, 61
1, 82539, Note_off_c, 0, 62, 62
1, 82540, Note_on_c, 0, 79, 74
1, 82542, Note_on_c, 0, 63, 71
1, 82554, Note_off_c, 0, 77, 59
1, 82665, Note_off_c, 0, 63, 65
1, 82680, Note_on_c, 0, 65, 73
1, 82687, Note_on_c, 0, 80, 83
1, 82699, Note_off_c, 0, 79, 57
1, 82813, Note_off_c, 0, 65, 58
1, 82828, Note_on_c, 0, 63, 74
1, 82829, Note_on_c, 0, 79, 78
1, 82842, Note_off_c, 0, 80, 61
1, 82874, Control_c, 0, 64, 51
1, 82888, Control_c, 0, 64, 60
1, 82899, Note_off_c, 0, 70, 58
1, 82903, Control_c, 0, 64, 63
1, 82918, Control_c, 0, 64, 65
1, 82933, Control_c, 0, 64, 68
1, 82948, Control_c, 0, 64, 71
1, 82953, Note_off_c, 0, 63, 63
1, 82964, Control_c, 0, 64, 75
1, 82968, Note_on_c, 0, 62, 76
1, 82970, Note_on_c, 0, 77, 83
1, 82978, Control_c, 0, 64, 78
1, 82993, Control_c, 0, 64, 80
1, 82998, Note_off_c, 0, 79, 58
1, 83008, Control_c, 0, 64, 81
1, 83023, Control_c, 0, 64, 81
1, 83118, Note_on_c, 0, 75, 84
1, 83120, Note_off_c, 0, 62, 57
1, 83122, Note_on_c, 0, 60, 75
1, 83128, Note_off_c, 0, 77, 56
1, 83195, Note_off_c, 0, 75, 64
1, 83245, Note_on_c, 0, 58, 76
1, 83245, Note_on_c, 0, 74, 80
1, 83266, Note_off_c, 0, 60, 60
1, 83351, Note_off_c, 0, 55, 47
1, 83356, Control_c, 0, 64, 81
1, 83375, Note_off_c, 0, 74, 58
1, 83385, Control_c, 0, 64, 80
1, 83400, Control_c, 0, 64, 78
1, 83405, Note_on_c, 0, 75, 93
1, 83407, Note_on_c, 0, 60, 78
1, 83408, Note_off_c, 0, 58, 64
1, 83415, Control_c, 0, 64, 75
1, 83430, Control_c, 0, 64, 69
1, 83444, Control_c, 0, 64, 61
1, 83459, Control_c, 0, 64, 0
1, 83551, Note_on_c, 0, 70, 66
1, 83576, Note_on_c, 0, 55, 52
1, 83692, Note_off_c, 0, 70, 54
1, 83700, Note_off_c, 0, 55, 61
1, 83703, Note_on_c, 0, 72, 67
1, 83705, Note_on_c, 0, 57, 61
1, 83854, Note_off_c, 0, 57, 59
1, 83856, Note_on_c, 0, 74, 68
1, 83858, Note_on_c, 0, 58, 66
1, 83872, Note_off_c, 0, 72, 59
1, 83995, Note_off_c, 0, 58, 63
1, 84001, Note_on_c, 0, 72, 71
1, 84003, Note_on_c, 0, 57, 56
1, 84029, Note_off_c, 0, 74, 57
1, 84127, Note_off_c, 0, 57, 59
1, 84149, Note_on_c, 0, 70, 70
1, 84150, Note_on_c, 0, 55, 55
1, 84161, Note_off_c, 0, 72, 57
1, 84184, Note_off_c, 0, 75, 56
1, 84269, Note_off_c, 0, 70, 58
1, 84279, Note_off_c, 0, 55, 62
1, 84291, Note_on_c, 0, 69, 66
1, 84295, Note_on_c, 0, 53, 54
1, 84354, Note_off_c, 0, 53, 60
1, 84429, Note_on_c, 0, 67, 66
1, 84437, Note_off_c, 0, 69, 57
1, 84446, Note_on_c, 0, 51, 51
1, 84565, Note_off_c, 0, 67, 61
1, 84605, Note_on_c, 0, 69, 62
1, 84605, Note_off_c, 0, 51, 51
1, 84613, Note_on_c, 0, 53, 46
1, 84756, Note_on_c, 0, 75, 52
1, 84851, Note_off_c, 0, 75, 56
1, 84869, Control_c, 0, 64, 31
1, 84883, Control_c, 0, 64, 51
1, 84896, Note_on_c, 0, 77, 54
1, 84898, Control_c, 0, 64, 58
1, 84913, Control_c, 0, 64, 62
1, 84928, Control_c, 0, 64, 63
1, 84943, Control_c, 0, 64, 65
1, 84957, Control_c, 0, 64, 67
1, 84972, Note_off_c, 0, 77, 53
1, 84972, Control_c, 0, 64, 70
1, 84987, Control_c, 0, 64, 73
1, 85001, Control_c, 0, 64, 75
1, 85016, Control_c, 0, 64, 76
1, 85031, Note_on_c, 0, 79, 64
1, 85031, Control_c, 0, 64, 77
1, 85046, Control_c, 0, 64, 77
1, 85087, Note_off_c, 0, 79, 57
1, 85120, Control_c, 0, 64, 77
1, 85135, Control_c, 0, 64, 76
1, 85150, Control_c, 0, 64, 73
1, 85164, Control_c, 0, 64, 69
1, 85179, Control_c, 0, 64, 63
1, 85182, Note_on_c, 0, 77, 74
1, 85194, Control_c, 0, 64, 36
1, 85209, Control_c, 0, 64, 0
1, 85298, Control_c, 0, 64, 13
1, 85313, Control_c, 0, 64, 24
1, 85331, Note_on_c, 0, 75, 74
1, 85335, Control_c, 0, 64, 28
1, 85344, Note_off_c, 0, 77, 59
1, 85351, Control_c, 0, 64, 29
1, 85480, Note_on_c, 0, 74, 72
1, 85482, Note_off_c, 0, 75, 36
1, 85484, Control_c, 0, 64, 28
1, 85540, Note_off_c, 0, 69, 23
1, 85543, Control_c, 0, 64, 27
1, 85603, Control_c, 0, 64, 26
1, 85618, Note_off_c, 0, 74, 62
1, 85624, Note_on_c, 0, 72, 68
1, 85632, Control_c, 0, 64, 25
1, 85677, Control_c, 0, 64, 24
1, 85736, Control_c, 0, 64, 23
1, 85753, Note_off_c, 0, 72, 59
1, 85780, Control_c, 0, 64, 21
1, 85784, Note_on_c, 0, 74, 60
1, 85839, Control_c, 0, 64, 20
1, 85854, Control_c, 0, 64, 18
1, 85869, Control_c, 0, 64, 17
1, 85884, Control_c, 0, 64, 15
1, 85891, Note_off_c, 0, 60, 29
1, 85905, Note_off_c, 0, 53, 41
1, 85913, Control_c, 0, 64, 13
1, 85914, Note_on_c, 0, 54, 47
1, 85972, Control_c, 0, 64, 10
1, 86002, Control_c, 0, 64, 0
1, 86056, Note_off_c, 0, 54, 61
1, 86076, Note_on_c, 0, 62, 54
1, 86079, Note_on_c, 0, 55, 52
1, 86173, Note_off_c, 0, 55, 62
1, 86223, Note_on_c, 0, 57, 57
1, 86327, Note_off_c, 0, 57, 58
1, 86352, Note_off_c, 0, 62, 58
1, 86368, Note_on_c, 0, 58, 50
1, 86369, Note_on_c, 0, 67, 58
1, 86454, Poly_aftertouch_c, 0, 55, 127
1, 86479, Poly_aftertouch_c, 0, 55, 0
1, 86522, Note_on_c, 0, 53, 48
1, 86604, Note_off_c, 0, 58, 0
1, 86625, Note_off_c, 0, 53, 56
1, 86632, Note_off_c, 0, 67, 58
1, 86642, Poly_aftertouch_c, 0, 58, 127
1, 86660, Note_on_c, 0, 65, 49
1, 86661, Note_on_c, 0, 51, 36
1, 86707, Control_c, 0, 64, 24
1, 86721, Control_c, 0, 64, 40
1, 86736, Control_c, 0, 64, 54
1, 86751, Control_c, 0, 64, 61
1, 86766, Control_c, 0, 64, 63
1, 86780, Control_c, 0, 64, 65
1, 86795, Control_c, 0, 64, 67
1, 86809, Note_on_c, 0, 50, 38
1, 86810, Control_c, 0, 64, 69
1, 86813, Note_off_c, 0, 65, 60
1, 86819, Note_off_c, 0, 51, 32
1, 86833, Control_c, 0, 64, 73
1, 86838, Poly_aftertouch_c, 0, 58, 0
1, 86848, Control_c, 0, 64, 76
1, 86857, Note_off_c, 0, 50, 56
1, 86862, Control_c, 0, 64, 77
1, 86952, Control_c, 0, 64, 77
1, 86967, Control_c, 0, 64, 76
1, 86982, Note_on_c, 0, 63, 56
1, 86982, Control_c, 0, 64, 74
1, 86987, Note_on_c, 0, 48, 44
1, 86996, Control_c, 0, 64, 72
1, 87012, Control_c, 0, 64, 68
1, 87027, Control_c, 0, 64, 61
1, 87042, Control_c, 0, 64, 42
1, 87057, Control_c, 0, 64, 0
1, 87123, Note_on_c, 0, 55, 46
1, 87248, Note_off_c, 0, 55, 63
1, 87275, Note_on_c, 0, 57, 57
1, 87397, Note_off_c, 0, 57, 60
1, 87423, Note_on_c, 0, 58, 55
1, 87531, Note_off_c, 0, 58, 54
1, 87562, Note_off_c, 0, 74, 53
1, 87588, Note_on_c, 0, 57, 45
1, 87588, Note_on_c, 0, 72, 58
1, 87711, Note_off_c, 0, 57, 57
1, 87750, Note_on_c, 0, 55, 50
1, 87857, Note_off_c, 0, 55, 61
1, 87894, Note_on_c, 0, 54, 48
1, 88002, Note_off_c, 0, 54, 59
1, 88051, Note_on_c, 0, 55, 44
1, 88137, Note_off_c, 0, 63, 43
1, 88180, Note_off_c, 0, 55, 50
1, 88204, Note_off_c, 0, 48, 41
1, 88222, Note_on_c, 0, 62, 46
1, 88225, Note_on_c, 0, 50, 25
1, 88229, Note_on_c, 0, 54, 32
1, 88479, Control_c, 0, 64, 49
1, 88494, Control_c, 0, 64, 57
1, 88508, Control_c, 0, 64, 60
1, 88523, Control_c, 0, 64, 62
1, 88533, Note_on_c, 0, 70, 56
1, 88537, Note_off_c, 0, 72, 41
1, 88538, Control_c, 0, 64, 64
1, 88540, Note_on_c, 0, 55, 35
1, 88554, Control_c, 0, 64, 67
1, 88555, Note_off_c, 0, 54, 39
1, 88569, Control_c, 0, 64, 70
1, 88584, Control_c, 0, 64, 74
1, 88590, Note_off_c, 0, 62, 37
1, 88598, Control_c, 0, 64, 76
1, 88613, Control_c, 0, 64, 78
1, 88628, Control_c, 0, 64, 78
1, 88643, Control_c, 0, 64, 79
1, 88657, Control_c, 0, 64, 80
1, 88672, Control_c, 0, 64, 80
1, 88791, Control_c, 0, 64, 80
1, 88820, Control_c, 0, 64, 79
1, 88827, Note_off_c, 0, 70, 61
1, 88835, Control_c, 0, 64, 76
1, 88849, Note_on_c, 0, 69, 49
1, 88849, Control_c, 0, 64, 73
1, 88864, Control_c, 0, 64, 67
1, 88867, Note_on_c, 0, 60, 38
1, 88879, Control_c, 0, 64, 56
1, 88894, Control_c, 0, 64, 0
1, 89094, Control_c, 0, 64, 38
1, 89109, Control_c, 0, 64, 57
1, 89123, Control_c, 0, 64, 64
1, 89138, Control_c, 0, 64, 67
1, 89153, Control_c, 0, 64, 70
1, 89156, Note_off_c, 0, 55, 42
1, 89164, Note_off_c, 0, 50, 39
1, 89168, Control_c, 0, 64, 73
1, 89178, Note_off_c, 0, 60, 62
1, 89183, Control_c, 0, 64, 75
1, 89183, Note_on_c, 0, 54, 34
1, 89198, Control_c, 0, 64, 77
1, 89212, Control_c, 0, 64, 78
1, 89242, Control_c, 0, 64, 78
1, 89252, Note_off_c, 0, 69, 31
1, 89338, Note_off_c, 0, 54, 38
1, 89391, Control_c, 0, 64, 78
1, 89421, Control_c, 0, 64, 77
1, 89436, Control_c, 0, 64, 76
1, 89451, Control_c, 0, 64, 73
1, 89466, Control_c, 0, 64, 67
1, 89479, Note_on_c, 0, 43, 35
1, 89480, Control_c, 0, 64, 55
1, 89495, Control_c, 0, 64, 0
1, 89498, Note_on_c, 0, 58, 55
1, 89498, Note_on_c, 0, 67, 59
1, 89613, Control_c, 0, 64, 49
1, 89628, Control_c, 0, 64, 61
1, 89631, Note_off_c, 0, 43, 54
1, 89643, Control_c, 0, 64, 64
1, 89653, Note_on_c, 0, 55, 59
1, 89658, Control_c, 0, 64, 65
1, 89672, Control_c, 0, 64, 66
1, 89687, Control_c, 0, 64, 67
1, 89702, Control_c, 0, 64, 68
1, 89717, Control_c, 0, 64, 69
1, 89761, Control_c, 0, 64, 69
1, 89770, Note_off_c, 0, 58, 62
1, 89786, Note_on_c, 0, 56, 70
1, 89786, Note_off_c, 0, 55, 53
1, 89791, Control_c, 0, 64, 68
1, 89828, Control_c, 0, 64, 67
1, 89843, Control_c, 0, 64, 67
1, 89858, Control_c, 0, 64, 66
1, 89872, Control_c, 0, 64, 65
1, 89887, Control_c, 0, 64, 65
1, 89902, Control_c, 0, 64, 64
1, 89917, Control_c, 0, 64, 64
1, 89934, Note_on_c, 0, 58, 78
1, 89944, Note_off_c, 0, 56, 34
1, 89946, Control_c, 0, 64, 63
1, 89961, Control_c, 0, 64, 63
1, 89976, Control_c, 0, 64, 62
1, 89991, Control_c, 0, 64, 61
1, 90005, Control_c, 0, 64, 61
1, 90020, Control_c, 0, 64, 60
1, 90035, Control_c, 0, 64, 59
1, 90050, Control_c, 0, 64, 57
1, 90064, Control_c, 0, 64, 55
1, 90079, Control_c, 0, 64, 50
1, 90093, Note_on_c, 0, 56, 66
1, 90093, Note_on_c, 0, 63, 86
1, 90094, Control_c, 0, 64, 43
1, 90107, Note_off_c, 0, 58, 61
1, 90109, Control_c, 0, 64, 33
1, 90119, Note_off_c, 0, 67, 38
1, 90124, Control_c, 0, 64, 17
1, 90139, Control_c, 0, 64, 0
1, 90226, Note_off_c, 0, 56, 62
1, 90246, Note_on_c, 0, 55, 63
1, 90397, Note_off_c, 0, 55, 63
1, 90411, Note_on_c, 0, 53, 60
1, 90539, Note_off_c, 0, 53, 63
1, 90566, Note_on_c, 0, 51, 61
1, 90700, Note_off_c, 0, 51, 59
1, 90710, Note_on_c, 0, 65, 70
1, 90723, Note_on_c, 0, 58, 58
1, 90846, Note_off_c, 0, 58, 60
1, 90863, Note_on_c, 0, 50, 63
1, 90974, Note_off_c, 0, 50, 55
1, 91014, Note_on_c, 0, 51, 67
1, 91169, Note_on_c, 0, 53, 64
1, 91171, Note_off_c, 0, 51, 58
1, 91290, Note_off_c, 0, 63, 60
1, 91296, Note_on_c, 0, 62, 67
1, 91299, Note_off_c, 0, 65, 56
1, 91302, Note_on_c, 0, 70, 62
1, 91320, Note_on_c, 0, 51, 55
1, 91320, Note_off_c, 0, 53, 63
1, 91439, Note_off_c, 0, 51, 61
1, 91471, Note_on_c, 0, 50, 62
1, 91612, Note_off_c, 0, 50, 60
1, 91623, Note_on_c, 0, 48, 68
1, 91755, Note_off_c, 0, 48, 64
1, 91760, Note_on_c, 0, 46, 69
1, 91889, Control_c, 0, 64, 41
1, 91889, Note_off_c, 0, 70, 55
1, 91900, Note_off_c, 0, 46, 62
1, 91904, Control_c, 0, 64, 56
1, 91919, Control_c, 0, 64, 62
1, 91924, Note_on_c, 0, 52, 64
1, 91928, Note_on_c, 0, 67, 80
1, 91933, Control_c, 0, 64, 65
1, 91948, Control_c, 0, 64, 68
1, 91959, Note_off_c, 0, 62, 39
1, 91963, Control_c, 0, 64, 71
1, 91978, Control_c, 0, 64, 74
1, 91992, Control_c, 0, 64, 76
1, 91997, Note_off_c, 0, 52, 64
1, 92007, Control_c, 0, 64, 77
1, 92022, Control_c, 0, 64, 78
1, 92075, Note_on_c, 0, 58, 79
1, 92119, Control_c, 0, 64, 77
1, 92148, Control_c, 0, 64, 77
1, 92163, Control_c, 0, 64, 76
1, 92178, Control_c, 0, 64, 75
1, 92192, Control_c, 0, 64, 75
1, 92207, Control_c, 0, 64, 74
1, 92212, Note_off_c, 0, 58, 63
1, 92222, Control_c, 0, 64, 73
1, 92223, Note_on_c, 0, 60, 81
1, 92237, Control_c, 0, 64, 72
1, 92252, Control_c, 0, 64, 70
1, 92266, Control_c, 0, 64, 67
1, 92281, Control_c, 0, 64, 64
1, 92296, Control_c, 0, 64, 60
1, 92311, Control_c, 0, 64, 55
1, 92326, Control_c, 0, 64, 53
1, 92347, Note_off_c, 0, 60, 55
1, 92355, Control_c, 0, 64, 52
1, 92370, Note_on_c, 0, 61, 82
1, 92370, Control_c, 0, 64, 51
1, 92385, Control_c, 0, 64, 50
1, 92399, Control_c, 0, 64, 48
1, 92414, Control_c, 0, 64, 47
1, 92429, Control_c, 0, 64, 45
1, 92444, Control_c, 0, 64, 42
1, 92459, Control_c, 0, 64, 39
1, 92474, Control_c, 0, 64, 35
1, 92481, Note_off_c, 0, 61, 55
1, 92489, Control_c, 0, 64, 30
1, 92503, Control_c, 0, 64, 24
1, 92518, Control_c, 0, 64, 13
1, 92522, Note_on_c, 0, 60, 69
1, 92530, Note_on_c, 0, 68, 90
1, 92533, Note_on_c, 0, 53, 54
1, 92533, Control_c, 0, 64, 0
1, 92536, Note_on_c, 0, 65, 73
1, 92571, Note_off_c, 0, 67, 58
1, 92677, Note_on_c, 0, 58, 72
1, 92679, Note_off_c, 0, 60, 59
1, 92804, Note_off_c, 0, 53, 0
1, 92825, Note_off_c, 0, 58, 53
1, 92840, Note_on_c, 0, 56, 67
1, 92848, Poly_aftertouch_c, 0, 53, 127
1, 92969, Note_off_c, 0, 56, 60
1, 92981, Note_on_c, 0, 53, 3
1, 92983, Note_on_c, 0, 55, 66
1, 93137, Note_off_c, 0, 55, 64
1, 93147, Note_on_c, 0, 56, 58
1, 93156, Note_on_c, 0, 73, 84
1, 93172, Note_off_c, 0, 53, 43
1, 93181, Note_off_c, 0, 65, 61
1, 93195, Note_off_c, 0, 68, 61
1, 93208, Control_c, 0, 64, 31
1, 93222, Control_c, 0, 64, 42
1, 93237, Control_c, 0, 64, 51
1, 93252, Control_c, 0, 64, 55
1, 93267, Control_c, 0, 64, 59
1, 93282, Control_c, 0, 64, 61
1, 93296, Control_c, 0, 64, 63
1, 93299, Note_on_c, 0, 65, 74
1, 93311, Control_c, 0, 64, 65
1, 93326, Control_c, 0, 64, 68
1, 93342, Control_c, 0, 64, 71
1, 93357, Control_c, 0, 64, 73
1, 93372, Control_c, 0, 64, 74
1, 93386, Control_c, 0, 64, 75
1, 93401, Control_c, 0, 64, 75
1, 93429, Note_off_c, 0, 56, 63
1, 93431, Control_c, 0, 64, 76
1, 93443, Note_on_c, 0, 58, 72
1, 93450, Note_on_c, 0, 67, 79
1, 93460, Control_c, 0, 64, 76
1, 93473, Note_off_c, 0, 65, 61
1, 93505, Control_c, 0, 64, 77
1, 93529, Note_off_c, 0, 58, 59
1, 93589, Note_on_c, 0, 68, 86
1, 93590, Note_on_c, 0, 60, 66
1, 93611, Note_off_c, 0, 67, 60
1, 93620, Note_off_c, 0, 60, 62
1, 93690, Control_c, 0, 64, 76
1, 93705, Control_c, 0, 64, 72
1, 93720, Control_c, 0, 64, 64
1, 93735, Control_c, 0, 64, 0
1, 93735, Note_on_c, 0, 67, 85
1, 93740, Note_on_c, 0, 58, 68
1, 93748, Note_on_c, 0, 46, 60
1, 93774, Note_off_c, 0, 68, 62
1, 93824, Control_c, 0, 64, 51
1, 93839, Control_c, 0, 64, 61
1, 93854, Control_c, 0, 64, 64
1, 93868, Note_off_c, 0, 67, 60
1, 93869, Control_c, 0, 64, 67
1, 93881, Note_on_c, 0, 65, 80
1, 93884, Control_c, 0, 64, 70
1, 93898, Control_c, 0, 64, 73
1, 93913, Control_c, 0, 64, 76
1, 93924, Note_off_c, 0, 58, 63
1, 93928, Control_c, 0, 64, 77
1, 93943, Control_c, 0, 64, 78
1, 93958, Control_c, 0, 64, 78
1, 94002, Control_c, 0, 64, 78
1, 94017, Control_c, 0, 64, 77
1, 94032, Control_c, 0, 64, 74
1, 94034, Note_on_c, 0, 64, 79
1, 94034, Note_on_c, 0, 56, 71
1, 94042, Note_off_c, 0, 65, 56
1, 94046, Control_c, 0, 64, 69
1, 94061, Control_c, 0, 64, 58
1, 94076, Control_c, 0, 64, 0
1, 94106, Control_c, 0, 64, 28
1, 94120, Control_c, 0, 64, 54
1, 94136, Control_c, 0, 64, 61
1, 94140, Note_off_c, 0, 64, 61
1, 94151, Control_c, 0, 64, 64
1, 94166, Control_c, 0, 64, 66
1, 94180, Note_on_c, 0, 65, 81
1, 94181, Control_c, 0, 64, 68
1, 94195, Control_c, 0, 64, 72
1, 94210, Control_c, 0, 64, 76
1, 94225, Control_c, 0, 64, 78
1, 94240, Control_c, 0, 64, 78
1, 94251, Note_off_c, 0, 56, 60
1, 94278, Note_off_c, 0, 65, 54
1, 94284, Control_c, 0, 64, 79
1, 94289, Note_off_c, 0, 46, 51
1, 94351, Control_c, 0, 64, 78
1, 94352, Note_on_c, 0, 55, 75
1, 94356, Note_on_c, 0, 48, 66
1, 94381, Control_c, 0, 64, 78
1, 94395, Control_c, 0, 64, 76
1, 94405, Note_on_c, 0, 64, 79
1, 94410, Control_c, 0, 64, 74
1, 94425, Control_c, 0, 64, 71
1, 94440, Control_c, 0, 64, 66
1, 94455, Control_c, 0, 64, 59
1, 94469, Control_c, 0, 64, 41
1, 94484, Control_c, 0, 64, 0
1, 94491, Note_off_c, 0, 73, 53
1, 94549, Note_on_c, 0, 70, 79
1, 94691, Note_on_c, 0, 72, 80
1, 94716, Note_off_c, 0, 70, 58
1, 94834, Note_on_c, 0, 73, 78
1, 94848, Note_off_c, 0, 72, 58
1, 94960, Note_off_c, 0, 73, 63
1, 94984, Note_on_c, 0, 56, 81
1, 94996, Note_on_c, 0, 72, 72
1, 95030, Note_off_c, 0, 55, 63
1, 95152, Note_on_c, 0, 70, 78
1, 95162, Note_off_c, 0, 64, 31
1, 95174, Note_off_c, 0, 72, 61
1, 95204, Control_c, 0, 64, 42
1, 95218, Control_c, 0, 64, 54
1, 95233, Control_c, 0, 64, 61
1, 95248, Control_c, 0, 64, 65
1, 95262, Control_c, 0, 64, 67
1, 95277, Control_c, 0, 64, 70
1, 95291, Control_c, 0, 64, 72
1, 95300, Note_on_c, 0, 68, 85
1, 95306, Control_c, 0, 64, 75
1, 95316, Note_off_c, 0, 70, 58
1, 95321, Control_c, 0, 64, 77
1, 95336, Control_c, 0, 64, 78
1, 95351, Control_c, 0, 64, 79
1, 95407, Note_off_c, 0, 68, 62
1, 95431, Note_on_c, 0, 67, 85
1, 95507, Note_off_c, 0, 67, 61
1, 95551, Note_on_c, 0, 49, 68
1, 95563, Note_off_c, 0, 56, 59
1, 95573, Control_c, 0, 64, 78
1, 95588, Control_c, 0, 64, 77
1, 95591, Note_on_c, 0, 65, 96
1, 95603, Control_c, 0, 64, 75
1, 95615, Note_off_c, 0, 48, 41
1, 95617, Control_c, 0, 64, 71
1, 95632, Control_c, 0, 64, 65
1, 95647, Control_c, 0, 64, 53
1, 95662, Control_c, 0, 64, 0
1, 95750, Note_on_c, 0, 63, 66
1, 95902, Note_on_c, 0, 61, 62
1, 95951, Note_off_c, 0, 63, 39
1, 96013, Note_off_c, 0, 61, 59
1, 96046, Note_on_c, 0, 60, 59
1, 96167, Note_off_c, 0, 60, 58
1, 96197, Note_on_c, 0, 58, 59
1, 96356, Note_on_c, 0, 56, 50
1, 96484, Note_off_c, 0, 56, 58
1, 96508, Note_on_c, 0, 55, 54
1, 96642, Note_off_c, 0, 55, 58
1, 96662, Note_on_c, 0, 53, 57
1, 96706, Note_off_c, 0, 49, 40
1, 96802, Note_off_c, 0, 53, 62
1, 96824, Note_on_c, 0, 55, 52
1, 96840, Note_on_c, 0, 48, 42
1, 96864, Note_off_c, 0, 58, 61
1, 96984, Note_on_c, 0, 58, 52
1, 97037, Note_off_c, 0, 58, 55
1, 97121, Note_on_c, 0, 60, 50
1, 97226, Note_off_c, 0, 65, 0
1, 97235, Note_off_c, 0, 60, 54
1, 97263, Poly_aftertouch_c, 0, 65, 127
1, 97266, Note_on_c, 0, 61, 56
1, 97359, Poly_aftertouch_c, 0, 65, 0
1, 97369, Note_off_c, 0, 61, 58
1, 97430, Note_on_c, 0, 60, 57
1, 97431, Note_on_c, 0, 64, 59
1, 97480, Control_c, 0, 67, 11
1, 97494, Control_c, 0, 67, 18
1, 97509, Control_c, 0, 67, 27
1, 97517, Note_off_c, 0, 60, 59
1, 97524, Control_c, 0, 67, 37
1, 97539, Control_c, 0, 67, 47
1, 97554, Control_c, 0, 67, 57
1, 97568, Control_c, 0, 67, 67
1, 97582, Note_on_c, 0, 58, 50
1, 97583, Control_c, 0, 67, 79
1, 97598, Control_c, 0, 64, 34
1, 97598, Control_c, 0, 67, 89
1, 97613, Control_c, 0, 64, 44
1, 97613, Control_c, 0, 67, 99
1, 97628, Control_c, 0, 64, 51
1, 97628, Control_c, 0, 67, 108
1, 97642, Control_c, 0, 64, 57
1, 97642, Control_c, 0, 67, 116
1, 97657, Control_c, 0, 64, 61
1, 97657, Control_c, 0, 67, 123
1, 97672, Control_c, 0, 64, 63
1, 97672, Control_c, 0, 67, 127
1, 97673, Note_off_c, 0, 58, 61
1, 97674, Note_off_c, 0, 55, 57
1, 97687, Control_c, 0, 64, 64
1, 97702, Control_c, 0, 64, 65
1, 97717, Control_c, 0, 64, 66
1, 97719, Note_off_c, 0, 64, 51
1, 97731, Control_c, 0, 64, 68
1, 97732, Note_on_c, 0, 56, 51
1, 97746, Control_c, 0, 64, 69
1, 97761, Control_c, 0, 64, 71
1, 97776, Control_c, 0, 64, 71
1, 97791, Control_c, 0, 64, 72
1, 97805, Control_c, 0, 64, 73
1, 97827, Note_off_c, 0, 56, 57
1, 97878, Note_on_c, 0, 55, 42
1, 97967, Note_off_c, 0, 48, 39
1, 97983, Control_c, 0, 64, 72
1, 97998, Control_c, 0, 64, 71
1, 98012, Control_c, 0, 64, 68
1, 98027, Note_off_c, 0, 55, 41
1, 98027, Control_c, 0, 64, 61
1, 98042, Control_c, 0, 64, 24
1, 98052, Note_on_c, 0, 53, 40
1, 98063, Note_on_c, 0, 65, 63
1, 98065, Control_c, 0, 64, 0
1, 98066, Note_on_c, 0, 56, 54
1, 98140, Control_c, 0, 67, 124
1, 98155, Control_c, 0, 67, 116
1, 98170, Control_c, 0, 64, 39
1, 98170, Control_c, 0, 67, 103
1, 98184, Control_c, 0, 64, 58
1, 98184, Control_c, 0, 67, 83
1, 98194, Note_off_c, 0, 53, 49
1, 98199, Control_c, 0, 64, 63
1, 98199, Control_c, 0, 67, 63
1, 98204, Note_on_c, 0, 41, 58
1, 98214, Control_c, 0, 64, 66
1, 98214, Control_c, 0, 67, 39
1, 98229, Control_c, 0, 64, 67
1, 98229, Control_c, 0, 67, 8
1, 98236, Note_off_c, 0, 56, 63
1, 98243, Control_c, 0, 64, 69
1, 98243, Control_c, 0, 67, 0
1, 98258, Control_c, 0, 64, 72
1, 98273, Control_c, 0, 64, 74
1, 98280, Note_off_c, 0, 65, 64
1, 98288, Control_c, 0, 64, 75
1, 98303, Control_c, 0, 64, 76
1, 98343, Note_off_c, 0, 41, 36
1, 98360, Note_on_c, 0, 43, 66
1, 98421, Control_c, 0, 64, 75
1, 98450, Control_c, 0, 64, 75
1, 98465, Note_off_c, 0, 43, 51
1, 98480, Control_c, 0, 64, 74
1, 98499, Note_on_c, 0, 44, 74
1, 98510, Control_c, 0, 64, 74
1, 98554, Control_c, 0, 64, 73
1, 98569, Control_c, 0, 64, 73
1, 98584, Control_c, 0, 64, 72
1, 98599, Control_c, 0, 64, 71
1, 98614, Control_c, 0, 64, 70
1, 98625, Note_off_c, 0, 44, 59
1, 98628, Control_c, 0, 64, 67
1, 98643, Control_c, 0, 64, 65
1, 98658, Control_c, 0, 64, 62
1, 98661, Note_on_c, 0, 43, 65
1, 98663, Note_on_c, 0, 72, 84
1, 98673, Control_c, 0, 64, 60
1, 98688, Control_c, 0, 64, 57
1, 98702, Control_c, 0, 64, 56
1, 98717, Control_c, 0, 64, 55
1, 98732, Control_c, 0, 64, 53
1, 98747, Control_c, 0, 64, 51
1, 98761, Control_c, 0, 64, 49
1, 98776, Control_c, 0, 64, 48
1, 98791, Control_c, 0, 64, 47
1, 98795, Note_off_c, 0, 43, 61
1, 98814, Control_c, 0, 64, 47
1, 98817, Note_on_c, 0, 41, 65
1, 98829, Control_c, 0, 64, 46
1, 98843, Control_c, 0, 64, 44
1, 98858, Control_c, 0, 64, 44
1, 98873, Control_c, 0, 64, 43
1, 98888, Control_c, 0, 64, 42
1, 98903, Control_c, 0, 64, 40
1, 98917, Control_c, 0, 64, 38
1, 98933, Control_c, 0, 64, 35
1, 98934, Note_off_c, 0, 41, 62
1, 98948, Control_c, 0, 64, 32
1, 98963, Control_c, 0, 64, 27
1, 98972, Note_on_c, 0, 39, 58
1, 98978, Control_c, 0, 64, 18
1, 98992, Control_c, 0, 64, 0
1, 99073, Note_off_c, 0, 39, 53
1, 99118, Note_on_c, 0, 38, 60
1, 99214, Note_off_c, 0, 38, 60
1, 99279, Note_on_c, 0, 43, 60
1, 99279, Note_on_c, 0, 50, 62
1, 99436, Note_on_c, 0, 65, 65
1, 99594, Note_on_c, 0, 67, 72
1, 99597, Note_off_c, 0, 50, 60
1, 99617, Note_off_c, 0, 65, 53
1, 99711, Note_off_c, 0, 67, 56
1, 99748, Note_on_c, 0, 68, 67
1, 99750, Note_off_c, 0, 72, 0
1, 99750, Note_on_c, 0, 72, 23
1, 99829, Note_off_c, 0, 72, 58
1, 99857, Note_off_c, 0, 68, 63
1, 99905, Note_on_c, 0, 67, 79
1, 99907, Note_on_c, 0, 55, 65
1, 99911, Note_on_c, 0, 71, 73
1, 100032, Note_off_c, 0, 67, 58
1, 100036, Control_c, 0, 64, 50
1, 100051, Control_c, 0, 64, 60
1, 100061, Note_off_c, 0, 71, 60
1, 100066, Note_on_c, 0, 65, 80
1, 100066, Control_c, 0, 64, 64
1, 100081, Control_c, 0, 64, 66
1, 100096, Control_c, 0, 64, 70
1, 100111, Control_c, 0, 64, 74
1, 100125, Control_c, 0, 64, 79
1, 100140, Control_c, 0, 64, 82
1, 100155, Control_c, 0, 64, 83
1, 100170, Control_c, 0, 64, 84
1, 100170, Note_off_c, 0, 65, 59
1, 100185, Control_c, 0, 64, 85
1, 100199, Control_c, 0, 64, 86
1, 100214, Note_on_c, 0, 63, 82
1, 100214, Control_c, 0, 64, 88
1, 100229, Control_c, 0, 64, 89
1, 100244, Control_c, 0, 64, 90
1, 100259, Control_c, 0, 64, 91
1, 100273, Control_c, 0, 64, 91
1, 100288, Control_c, 0, 64, 92
1, 100294, Note_off_c, 0, 63, 64
1, 100310, Control_c, 0, 64, 92
1, 100325, Control_c, 0, 64, 93
1, 100340, Control_c, 0, 64, 93
1, 100355, Note_on_c, 0, 62, 80
1, 100400, Note_off_c, 0, 62, 63
1, 100482, Note_on_c, 0, 48, 73
1, 100534, Control_c, 0, 64, 93
1, 100546, Note_on_c, 0, 75, 84
1, 100549, Control_c, 0, 64, 92
1, 100558, Note_off_c, 0, 43, 40
1, 100564, Control_c, 0, 64, 90
1, 100579, Control_c, 0, 64, 87
1, 100594, Control_c, 0, 64, 84
1, 100608, Control_c, 0, 64, 78
1, 100623, Control_c, 0, 64, 72
1, 100638, Control_c, 0, 64, 65
1, 100653, Control_c, 0, 64, 34
1, 100668, Control_c, 0, 64, 0
1, 100693, Note_on_c, 0, 67, 67
1, 100845, Note_on_c, 0, 68, 71
1, 100868, Note_off_c, 0, 67, 51
1, 100992, Note_on_c, 0, 70, 74
1, 101005, Note_off_c, 0, 68, 51
1, 101130, Note_off_c, 0, 55, 37
1, 101146, Note_on_c, 0, 51, 70
1, 101150, Note_on_c, 0, 68, 80
1, 101155, Note_off_c, 0, 48, 61
1, 101175, Note_off_c, 0, 70, 57
1, 101193, Control_c, 0, 64, 52
1, 101208, Control_c, 0, 64, 63
1, 101223, Control_c, 0, 64, 66
1, 101234, Note_off_c, 0, 75, 54
1, 101237, Control_c, 0, 64, 69
1, 101252, Control_c, 0, 64, 74
1, 101255, Note_off_c, 0, 68, 62
1, 101267, Control_c, 0, 64, 78
1, 101282, Control_c, 0, 64, 81
1, 101297, Note_on_c, 0, 67, 82
1, 101297, Control_c, 0, 64, 83
1, 101300, Note_off_c, 0, 51, 62
1, 101312, Control_c, 0, 64, 84
1, 101327, Control_c, 0, 64, 85
1, 101342, Control_c, 0, 64, 85
1, 101372, Control_c, 0, 64, 86
1, 101381, Note_off_c, 0, 67, 58
1, 101446, Note_on_c, 0, 65, 84
1, 101506, Note_off_c, 0, 65, 62
1, 101584, Note_on_c, 0, 63, 86
1, 101645, Note_off_c, 0, 63, 63
1, 101713, Control_c, 0, 64, 85
1, 101742, Control_c, 0, 64, 85
1, 101750, Note_on_c, 0, 65, 90
1, 101757, Control_c, 0, 64, 84
1, 101761, Note_on_c, 0, 53, 70
1, 101771, Control_c, 0, 64, 83
1, 101778, Note_on_c, 0, 56, 55
1, 101786, Control_c, 0, 64, 82
1, 101809, Control_c, 0, 64, 81
1, 101824, Control_c, 0, 64, 78
1, 101839, Control_c, 0, 64, 76
1, 101853, Control_c, 0, 64, 72
1, 101868, Control_c, 0, 64, 67
1, 101883, Control_c, 0, 64, 57
1, 101898, Control_c, 0, 64, 0
1, 101910, Note_on_c, 0, 75, 76
1, 102039, Note_off_c, 0, 75, 46
1, 102054, Note_on_c, 0, 77, 83
1, 102138, Note_off_c, 0, 77, 61
1, 102194, Note_on_c, 0, 79, 84
1, 102293, Note_off_c, 0, 79, 59
1, 102340, Note_on_c, 0, 77, 89
1, 102415, Control_c, 0, 64, 39
1, 102430, Control_c, 0, 64, 56
1, 102445, Control_c, 0, 64, 61
1, 102460, Control_c, 0, 64, 63
1, 102475, Control_c, 0, 64, 65
1, 102486, Note_on_c, 0, 75, 84
1, 102487, Note_off_c, 0, 65, 57
1, 102489, Control_c, 0, 64, 67
1, 102501, Note_off_c, 0, 77, 59
1, 102504, Control_c, 0, 64, 69
1, 102519, Control_c, 0, 64, 73
1, 102534, Control_c, 0, 64, 75
1, 102556, Control_c, 0, 64, 76
1, 102571, Control_c, 0, 64, 77
1, 102587, Note_off_c, 0, 53, 32
1, 102618, Note_off_c, 0, 56, 30
1, 102639, Note_on_c, 0, 74, 84
1, 102643, Note_off_c, 0, 75, 62
1, 102725, Note_off_c, 0, 74, 59
1, 102769, Note_on_c, 0, 72, 80
1, 102853, Control_c, 0, 64, 76
1, 102882, Control_c, 0, 64, 75
1, 102897, Control_c, 0, 64, 73
1, 102912, Control_c, 0, 64, 66
1, 102919, Note_off_c, 0, 72, 54
1, 102928, Control_c, 0, 64, 28
1, 102937, Note_on_c, 0, 55, 40
1, 102943, Control_c, 0, 64, 0
1, 102948, Note_on_c, 0, 62, 46
1, 102951, Note_on_c, 0, 71, 75
1, 103017, Control_c, 0, 64, 54
1, 103031, Control_c, 0, 64, 64
1, 103046, Control_c, 0, 64, 67
1, 103059, Note_off_c, 0, 71, 53
1, 103061, Control_c, 0, 64, 71
1, 103076, Control_c, 0, 64, 75
1, 103091, Control_c, 0, 64, 79
1, 103097, Note_on_c, 0, 77, 81
1, 103105, Control_c, 0, 64, 80
1, 103106, Note_off_c, 0, 62, 60
1, 103120, Control_c, 0, 64, 81
1, 103135, Control_c, 0, 64, 82
1, 103149, Control_c, 0, 64, 82
1, 103168, Note_off_c, 0, 55, 40
1, 103179, Control_c, 0, 64, 83
1, 103238, Note_on_c, 0, 79, 87
1, 103266, Note_off_c, 0, 77, 57
1, 103389, Note_on_c, 0, 80, 90
1, 103404, Note_off_c, 0, 79, 54
1, 103468, Control_c, 0, 64, 82
1, 103497, Note_on_c, 0, 51, 45
1, 103498, Control_c, 0, 64, 82
1, 103506, Note_on_c, 0, 60, 49
1, 103513, Control_c, 0, 64, 81
1, 103521, Note_on_c, 0, 63, 54
1, 103521, Note_off_c, 0, 80, 59
1, 103528, Control_c, 0, 64, 81
1, 103543, Control_c, 0, 64, 79
1, 103551, Note_on_c, 0, 79, 85
1, 103557, Control_c, 0, 64, 77
1, 103572, Control_c, 0, 64, 72
1, 103587, Control_c, 0, 64, 67
1, 103602, Control_c, 0, 64, 58
1, 103617, Control_c, 0, 64, 0
1, 103694, Note_on_c, 0, 77, 79
1, 103718, Note_off_c, 0, 79, 59
1, 103834, Note_on_c, 0, 75, 75
1, 103852, Note_off_c, 0, 77, 58
1, 103923, Note_off_c, 0, 75, 62
1, 103961, Note_on_c, 0, 74, 71
1, 104075, Note_off_c, 0, 74, 61
1, 104105, Note_off_c, 0, 60, 57
1, 104108, Note_off_c, 0, 51, 54
1, 104119, Note_on_c, 0, 72, 75
1, 104122, Note_on_c, 0, 56, 41
1, 104203, Control_c, 0, 64, 31
1, 104218, Control_c, 0, 64, 44
1, 104233, Control_c, 0, 64, 50
1, 104247, Control_c, 0, 64, 55
1, 104262, Control_c, 0, 64, 57
1, 104266, Note_on_c, 0, 71, 72
1, 104277, Control_c, 0, 64, 59
1, 104292, Control_c, 0, 64, 61
1, 104306, Control_c, 0, 64, 62
1, 104321, Control_c, 0, 64, 62
1, 104336, Control_c, 0, 64, 63
1, 104337, Note_off_c, 0, 72, 36
1, 104366, Control_c, 0, 64, 62
1, 104380, Control_c, 0, 64, 62
1, 104384, Note_off_c, 0, 56, 45
1, 104395, Control_c, 0, 64, 60
1, 104410, Control_c, 0, 64, 54
1, 104414, Note_off_c, 0, 71, 54
1, 104425, Control_c, 0, 64, 0
1, 104429, Note_off_c, 0, 63, 43
1, 104435, Note_on_c, 0, 53, 40
1, 104445, Note_on_c, 0, 68, 68
1, 104450, Note_on_c, 0, 72, 65
1, 104530, Control_c, 0, 64, 46
1, 104544, Control_c, 0, 64, 57
1, 104559, Control_c, 0, 64, 61
1, 104574, Control_c, 0, 64, 63
1, 104589, Control_c, 0, 64, 64
1, 104594, Note_off_c, 0, 68, 63
1, 104603, Control_c, 0, 64, 65
1, 104608, Note_off_c, 0, 72, 64
1, 104617, Note_on_c, 0, 74, 66
1, 104618, Control_c, 0, 64, 66
1, 104633, Control_c, 0, 64, 67
1, 104648, Control_c, 0, 64, 69
1, 104663, Control_c, 0, 64, 70
1, 104677, Control_c, 0, 64, 71
1, 104698, Note_off_c, 0, 74, 55
1, 104752, Control_c, 0, 64, 70
1, 104767, Control_c, 0, 64, 69
1, 104782, Control_c, 0, 64, 65
1, 104803, Note_off_c, 0, 53, 35
1, 104803, Control_c, 0, 64, 57
1, 104806, Note_on_c, 0, 67, 59
1, 104807, Note_on_c, 0, 74, 55
1, 104812, Note_on_c, 0, 55, 42
1, 104818, Control_c, 0, 64, 0
1, 104996, Control_c, 0, 64, 27
1, 105011, Control_c, 0, 64, 45
1, 105026, Control_c, 0, 64, 51
1, 105041, Control_c, 0, 64, 56
1, 105056, Control_c, 0, 64, 59
1, 105070, Control_c, 0, 64, 62
1, 105071, Note_off_c, 0, 67, 61
1, 105085, Control_c, 0, 64, 63
1, 105091, Note_off_c, 0, 55, 27
1, 105100, Control_c, 0, 64, 64
1, 105110, Note_on_c, 0, 59, 46
1, 105115, Control_c, 0, 64, 65
1, 105120, Note_on_c, 0, 65, 52
1, 105129, Control_c, 0, 64, 66
1, 105144, Control_c, 0, 64, 68
1, 105159, Control_c, 0, 64, 69
1, 105174, Control_c, 0, 64, 70
1, 105189, Control_c, 0, 64, 72
1, 105203, Control_c, 0, 64, 73
1, 105218, Control_c, 0, 64, 74
1, 105219, Note_off_c, 0, 65, 60
1, 105224, Note_off_c, 0, 74, 41
1, 105255, Note_on_c, 0, 72, 69
1, 105333, Note_off_c, 0, 72, 61
1, 105352, Control_c, 0, 64, 73
1, 105363, Note_off_c, 0, 59, 39
1, 105382, Control_c, 0, 64, 73
1, 105397, Control_c, 0, 64, 71
1, 105412, Control_c, 0, 64, 69
1, 105421, Note_on_c, 0, 60, 45
1, 105424, Note_on_c, 0, 72, 59
1, 105426, Control_c, 0, 64, 66
1, 105432, Note_on_c, 0, 63, 55
1, 105441, Control_c, 0, 64, 60
1, 105456, Control_c, 0, 64, 51
1, 105471, Control_c, 0, 64, 43
1, 105486, Control_c, 0, 64, 39
1, 105500, Control_c, 0, 64, 37
1, 105515, Control_c, 0, 64, 34
1, 105530, Control_c, 0, 64, 29
1, 105552, Control_c, 0, 64, 23
1, 105567, Control_c, 0, 64, 15
1, 105570, Note_off_c, 0, 60, 48
1, 105582, Control_c, 0, 64, 0
1, 105587, Note_on_c, 0, 48, 52
1, 105718, Note_off_c, 0, 48, 57
1, 105744, Note_on_c, 0, 49, 57
1, 105851, Note_off_c, 0, 49, 51
1, 105894, Note_on_c, 0, 51, 59
1, 106004, Note_off_c, 0, 51, 55
1, 106040, Note_on_c, 0, 68, 74
1, 106051, Note_on_c, 0, 49, 51
1, 106060, Note_off_c, 0, 63, 62
1, 106155, Note_off_c, 0, 49, 54
1, 106210, Note_on_c, 0, 48, 49
1, 106302, Note_off_c, 0, 48, 57
1, 106368, Note_on_c, 0, 46, 48
1, 106389, Control_c, 0, 64, 29
1, 106404, Control_c, 0, 64, 44
1, 106419, Control_c, 0, 64, 53
1, 106434, Control_c, 0, 64, 58
1, 106448, Note_off_c, 0, 46, 49
1, 106448, Control_c, 0, 64, 62
1, 106463, Control_c, 0, 64, 64
1, 106478, Control_c, 0, 64, 66
1, 106493, Control_c, 0, 64, 68
1, 106508, Control_c, 0, 64, 71
1, 106523, Control_c, 0, 64, 74
1, 106525, Note_on_c, 0, 44, 53
1, 106538, Control_c, 0, 64, 77
1, 106553, Control_c, 0, 64, 78
1, 106563, Note_off_c, 0, 44, 63
1, 106672, Control_c, 0, 64, 77
1, 106687, Control_c, 0, 64, 77
1, 106701, Control_c, 0, 64, 75
1, 106716, Control_c, 0, 64, 73
1, 106716, Note_on_c, 0, 51, 53
1, 106717, Note_on_c, 0, 58, 60
1, 106731, Control_c, 0, 64, 70
1, 106746, Control_c, 0, 64, 66
1, 106761, Control_c, 0, 64, 63
1, 106775, Control_c, 0, 64, 57
1, 106790, Control_c, 0, 64, 52
1, 106805, Control_c, 0, 64, 50
1, 106820, Control_c, 0, 64, 50
1, 106835, Control_c, 0, 64, 49
1, 106849, Control_c, 0, 64, 47
1, 106860, Note_on_c, 0, 70, 64
1, 106864, Control_c, 0, 64, 42
1, 106874, Note_off_c, 0, 72, 38
1, 106879, Control_c, 0, 64, 36
1, 106892, Note_off_c, 0, 68, 53
1, 106893, Control_c, 0, 64, 29
1, 106908, Control_c, 0, 64, 21
1, 106925, Control_c, 0, 64, 13
1, 106939, Control_c, 0, 64, 0
1, 107019, Note_off_c, 0, 70, 57
1, 107023, Note_on_c, 0, 72, 68
1, 107168, Note_off_c, 0, 72, 60
1, 107174, Note_on_c, 0, 73, 62
1, 107310, Note_off_c, 0, 73, 53
1, 107317, Note_on_c, 0, 63, 60
1, 107325, Note_on_c, 0, 67, 61
1, 107336, Note_on_c, 0, 72, 53
1, 107494, Note_on_c, 0, 70, 60
1, 107505, Note_off_c, 0, 67, 30
1, 107515, Note_off_c, 0, 72, 53
1, 107628, Control_c, 0, 64, 17
1, 107643, Control_c, 0, 64, 37
1, 107648, Note_on_c, 0, 68, 66
1, 107658, Control_c, 0, 64, 47
1, 107664, Note_off_c, 0, 70, 51
1, 107672, Control_c, 0, 64, 54
1, 107687, Control_c, 0, 64, 58
1, 107702, Control_c, 0, 64, 60
1, 107718, Control_c, 0, 64, 62
1, 107732, Control_c, 0, 64, 63
1, 107747, Control_c, 0, 64, 64
1, 107762, Control_c, 0, 64, 65
1, 107777, Control_c, 0, 64, 66
1, 107799, Control_c, 0, 64, 66
1, 107801, Note_on_c, 0, 67, 67
1, 107814, Control_c, 0, 64, 67
1, 107843, Control_c, 0, 64, 67
1, 107894, Note_off_c, 0, 67, 56
1, 107918, Control_c, 0, 64, 67
1, 107933, Control_c, 0, 64, 66
1, 107947, Control_c, 0, 64, 65
1, 107958, Note_off_c, 0, 68, 15
1, 107962, Control_c, 0, 64, 61
1, 107977, Control_c, 0, 64, 48
1, 107983, Note_on_c, 0, 72, 71
1, 107990, Note_on_c, 0, 65, 64
1, 107992, Control_c, 0, 64, 29
1, 107994, Note_off_c, 0, 51, 53
1, 107995, Note_on_c, 0, 56, 43
1, 108007, Control_c, 0, 64, 0
1, 108034, Note_off_c, 0, 58, 52
1, 108095, Control_c, 0, 64, 31
1, 108110, Control_c, 0, 64, 47
1, 108125, Control_c, 0, 64, 56
1, 108139, Control_c, 0, 64, 60
1, 108154, Control_c, 0, 64, 62
1, 108169, Control_c, 0, 64, 64
1, 108184, Control_c, 0, 64, 64
1, 108198, Note_off_c, 0, 65, 62
1, 108199, Control_c, 0, 64, 65
1, 108213, Control_c, 0, 64, 66
1, 108228, Control_c, 0, 64, 66
1, 108243, Control_c, 0, 64, 67
1, 108297, Note_on_c, 0, 67, 76
1, 108362, Control_c, 0, 64, 66
1, 108427, Note_off_c, 0, 63, 55
1, 108436, Note_on_c, 0, 68, 78
1, 108436, Control_c, 0, 64, 66
1, 108451, Note_off_c, 0, 67, 52
1, 108480, Control_c, 0, 64, 65
1, 108495, Control_c, 0, 64, 65
1, 108511, Control_c, 0, 64, 64
1, 108526, Control_c, 0, 64, 64
1, 108547, Note_off_c, 0, 72, 52
1, 108548, Control_c, 0, 64, 62
1, 108563, Control_c, 0, 64, 60
1, 108577, Control_c, 0, 64, 58
1, 108592, Control_c, 0, 64, 56
1, 108595, Note_on_c, 0, 62, 48
1, 108597, Note_on_c, 0, 70, 80
1, 108605, Note_off_c, 0, 68, 59
1, 108607, Control_c, 0, 64, 53
1, 108622, Control_c, 0, 64, 50
1, 108637, Control_c, 0, 64, 47
1, 108651, Control_c, 0, 64, 46
1, 108666, Control_c, 0, 64, 44
1, 108681, Control_c, 0, 64, 42
1, 108696, Control_c, 0, 64, 40
1, 108711, Control_c, 0, 64, 39
1, 108725, Control_c, 0, 64, 38
1, 108740, Control_c, 0, 64, 37
1, 108749, Note_on_c, 0, 68, 69
1, 108770, Control_c, 0, 64, 37
1, 108800, Control_c, 0, 64, 36
1, 108841, Note_off_c, 0, 68, 61
1, 108859, Control_c, 0, 64, 36
1, 108903, Note_on_c, 0, 67, 58
1, 108918, Control_c, 0, 64, 35
1, 108992, Control_c, 0, 64, 34
1, 109018, Note_off_c, 0, 67, 56
1, 109036, Control_c, 0, 64, 34
1, 109047, Note_on_c, 0, 65, 57
1, 109173, Note_off_c, 0, 65, 56
1, 109180, Note_off_c, 0, 62, 38
1, 109199, Note_off_c, 0, 56, 39
1, 109208, Note_on_c, 0, 67, 54
1, 109213, Note_on_c, 0, 63, 57
1, 109230, Note_on_c, 0, 55, 31
1, 109295, Control_c, 0, 64, 33
1, 109389, Note_on_c, 0, 62, 50
1, 109458, Note_off_c, 0, 62, 43
1, 109518, Control_c, 0, 64, 34
1, 109539, Note_on_c, 0, 60, 50
1, 109557, Note_off_c, 0, 63, 57
1, 109565, Note_off_c, 0, 67, 56
1, 109656, Note_off_c, 0, 60, 52
1, 109690, Note_off_c, 0, 55, 26
1, 109694, Note_on_c, 0, 58, 49
1, 109755, Control_c, 0, 64, 34
1, 109785, Control_c, 0, 64, 35
1, 109799, Control_c, 0, 64, 36
1, 109814, Control_c, 0, 64, 38
1, 109829, Control_c, 0, 64, 42
1, 109844, Control_c, 0, 64, 47
1, 109858, Control_c, 0, 64, 52
1, 109861, Note_on_c, 0, 75, 67
1, 109873, Control_c, 0, 64, 56
1, 109888, Control_c, 0, 64, 59
1, 109903, Control_c, 0, 64, 61
1, 109918, Control_c, 0, 64, 63
1, 109933, Control_c, 0, 64, 64
1, 109948, Control_c, 0, 64, 65
1, 109953, Note_off_c, 0, 58, 58
1, 109963, Control_c, 0, 64, 66
1, 109977, Control_c, 0, 64, 67
1, 109992, Control_c, 0, 64, 68
1, 110007, Control_c, 0, 64, 69
1, 110007, Note_off_c, 0, 75, 51
1, 110014, Note_on_c, 0, 53, 39
1, 110022, Control_c, 0, 64, 69
1, 110044, Control_c, 0, 64, 70
1, 110103, Control_c, 0, 64, 69
1, 110112, Note_off_c, 0, 53, 33
1, 110119, Control_c, 0, 64, 68
1, 110134, Control_c, 0, 64, 64
1, 110148, Control_c, 0, 64, 55
1, 110162, Note_on_c, 0, 75, 71
1, 110163, Control_c, 0, 64, 25
1, 110166, Note_on_c, 0, 55, 39
1, 110178, Control_c, 0, 64, 0
1, 110222, Control_c, 0, 64, 41
1, 110238, Control_c, 0, 64, 55
1, 110253, Control_c, 0, 64, 62
1, 110268, Control_c, 0, 64, 65
1, 110282, Note_off_c, 0, 55, 53
1, 110283, Control_c, 0, 64, 67
1, 110297, Control_c, 0, 64, 70
1, 110306, Note_on_c, 0, 56, 54
1, 110312, Control_c, 0, 64, 73
1, 110327, Control_c, 0, 64, 75
1, 110341, Control_c, 0, 64, 77
1, 110344, Note_off_c, 0, 56, 62
1, 110356, Control_c, 0, 64, 77
1, 110404, Note_off_c, 0, 75, 39
1, 110445, Control_c, 0, 64, 76
1, 110460, Control_c, 0, 64, 74
1, 110475, Control_c, 0, 64, 70
1, 110484, Note_on_c, 0, 75, 72
1, 110489, Note_on_c, 0, 58, 49
1, 110490, Control_c, 0, 64, 64
1, 110493, Note_on_c, 0, 65, 51
1, 110505, Control_c, 0, 64, 53
1, 110520, Control_c, 0, 64, 24
1, 110534, Control_c, 0, 64, 0
1, 110549, Control_c, 0, 64, 10
1, 110564, Control_c, 0, 64, 20
1, 110579, Control_c, 0, 64, 21
1, 110625, Note_off_c, 0, 58, 57
1, 110650, Note_on_c, 0, 56, 46
1, 110800, Note_off_c, 0, 56, 58
1, 110823, Note_on_c, 0, 58, 39
1, 110935, Note_off_c, 0, 65, 38
1, 110969, Note_off_c, 0, 58, 56
1, 110992, Note_on_c, 0, 60, 40
1, 111135, Control_c, 0, 64, 25
1, 111137, Note_off_c, 0, 75, 60
1, 111146, Note_off_c, 0, 60, 57
1, 111150, Control_c, 0, 64, 29
1, 111159, Note_on_c, 0, 74, 56
1, 111162, Note_on_c, 0, 58, 43
1, 111164, Control_c, 0, 64, 34
1, 111179, Control_c, 0, 64, 39
1, 111194, Control_c, 0, 64, 44
1, 111209, Control_c, 0, 64, 48
1, 111224, Control_c, 0, 64, 52
1, 111238, Control_c, 0, 64, 55
1, 111253, Control_c, 0, 64, 57
1, 111268, Control_c, 0, 64, 59
1, 111283, Control_c, 0, 64, 61
1, 111293, Note_off_c, 0, 58, 62
1, 111298, Control_c, 0, 64, 63
1, 111313, Control_c, 0, 64, 64
1, 111325, Note_on_c, 0, 56, 51
1, 111328, Control_c, 0, 64, 64
1, 111343, Control_c, 0, 64, 65
1, 111357, Control_c, 0, 64, 65
1, 111372, Control_c, 0, 64, 66
1, 111431, Control_c, 0, 64, 66
1, 111444, Note_off_c, 0, 56, 61
1, 111462, Note_off_c, 0, 74, 32
1, 111476, Note_on_c, 0, 55, 59
1, 111587, Control_c, 0, 64, 66
1, 111614, Note_off_c, 0, 55, 55
1, 111632, Control_c, 0, 64, 65
1, 111642, Note_on_c, 0, 53, 61
1, 111676, Control_c, 0, 64, 65
1, 111690, Control_c, 0, 64, 64
1, 111736, Control_c, 0, 64, 64
1, 111751, Control_c, 0, 64, 63
1, 111766, Control_c, 0, 64, 63
1, 111772, Note_off_c, 0, 53, 65
1, 111781, Control_c, 0, 64, 62
1, 111795, Control_c, 0, 64, 61
1, 111799, Note_on_c, 0, 79, 74
1, 111810, Note_on_c, 0, 52, 57
1, 111810, Control_c, 0, 64, 60
1, 111825, Control_c, 0, 64, 59
1, 111840, Control_c, 0, 64, 58
1, 111855, Control_c, 0, 64, 57
1, 111869, Control_c, 0, 64, 56
1, 111884, Control_c, 0, 64, 55
1, 111899, Control_c, 0, 64, 54
1, 111913, Control_c, 0, 64, 53
1, 111928, Control_c, 0, 64, 52
1, 111943, Control_c, 0, 64, 51
1, 111958, Control_c, 0, 64, 51
1, 111959, Note_on_c, 0, 58, 64
1, 111973, Control_c, 0, 64, 50
1, 111987, Control_c, 0, 64, 49
1, 112002, Control_c, 0, 64, 48
1, 112017, Control_c, 0, 64, 47
1, 112032, Control_c, 0, 64, 47
1, 112061, Control_c, 0, 64, 46
1, 112076, Control_c, 0, 64, 46
1, 112083, Note_off_c, 0, 58, 64
1, 112103, Note_on_c, 0, 60, 63
1, 112106, Control_c, 0, 64, 45
1, 112121, Control_c, 0, 64, 44
1, 112180, Control_c, 0, 64, 44
1, 112234, Note_off_c, 0, 60, 60
1, 112261, Note_on_c, 0, 61, 63
1, 112410, Note_off_c, 0, 61, 62
1, 112422, Note_on_c, 0, 60, 64
1, 112556, Note_off_c, 0, 60, 55
1, 112574, Note_on_c, 0, 58, 61
1, 112711, Note_off_c, 0, 58, 57
1, 112736, Note_on_c, 0, 56, 60
1, 112825, Control_c, 0, 64, 44
1, 112845, Note_off_c, 0, 56, 59
1, 112893, Note_on_c, 0, 55, 57
1, 112929, Control_c, 0, 64, 43
1, 112929, Note_off_c, 0, 52, 0
1, 112943, Control_c, 0, 64, 42
1, 112958, Control_c, 0, 64, 39
1, 112967, Poly_aftertouch_c, 0, 52, 127
1, 112973, Control_c, 0, 64, 32
1, 112988, Control_c, 0, 64, 0
1, 113018, Poly_aftertouch_c, 0, 52, 0
1, 113055, Note_off_c, 0, 55, 64
1, 113060, Note_on_c, 0, 60, 70
1, 113070, Note_on_c, 0, 56, 56
1, 113089, Note_off_c, 0, 79, 42
1, 113106, Note_off_c, 0, 70, 52
1, 113204, Note_on_c, 0, 70, 67
1, 113284, Note_off_c, 0, 70, 54
1, 113348, Note_on_c, 0, 72, 69
1, 113435, Note_off_c, 0, 72, 60
1, 113495, Note_on_c, 0, 73, 70
1, 113604, Note_off_c, 0, 73, 58
1, 113659, Note_on_c, 0, 77, 79
1, 113665, Note_on_c, 0, 72, 75
1, 113708, Control_c, 0, 64, 47
1, 113723, Control_c, 0, 64, 63
1, 113738, Control_c, 0, 64, 68
1, 113750, Note_off_c, 0, 72, 62
1, 113752, Control_c, 0, 64, 72
1, 113767, Control_c, 0, 64, 77
1, 113790, Control_c, 0, 64, 80
1, 113805, Control_c, 0, 64, 82
1, 113820, Control_c, 0, 64, 84
1, 113821, Note_on_c, 0, 70, 59
1, 113834, Control_c, 0, 64, 85
1, 113849, Control_c, 0, 64, 86
1, 113864, Control_c, 0, 64, 87
1, 113879, Control_c, 0, 64, 87
1, 113893, Control_c, 0, 64, 88
1, 113908, Control_c, 0, 64, 89
1, 113912, Note_off_c, 0, 70, 58
1, 113923, Control_c, 0, 64, 89
1, 113958, Note_off_c, 0, 77, 35
1, 113967, Control_c, 0, 64, 90
1, 113981, Note_on_c, 0, 68, 57
1, 114067, Note_off_c, 0, 68, 59
1, 114123, Note_on_c, 0, 67, 60
1, 114197, Note_off_c, 0, 67, 58
1, 114249, Control_c, 0, 64, 89
1, 114264, Control_c, 0, 64, 86
1, 114270, Note_off_c, 0, 60, 39
1, 114272, Note_off_c, 0, 56, 39
1, 114279, Control_c, 0, 64, 81
1, 114283, Note_on_c, 0, 71, 68
1, 114288, Note_on_c, 0, 65, 69
1, 114294, Control_c, 0, 64, 72
1, 114295, Note_on_c, 0, 62, 53
1, 114308, Control_c, 0, 64, 62
1, 114323, Control_c, 0, 64, 0
1, 114442, Control_c, 0, 64, 47
1, 114443, Note_off_c, 0, 62, 53
1, 114448, Note_on_c, 0, 53, 57
1, 114456, Control_c, 0, 64, 62
1, 114471, Control_c, 0, 64, 66
1, 114486, Control_c, 0, 64, 68
1, 114500, Control_c, 0, 64, 71
1, 114515, Control_c, 0, 64, 74
1, 114538, Control_c, 0, 64, 77
1, 114553, Control_c, 0, 64, 78
1, 114564, Note_off_c, 0, 65, 61
1, 114568, Control_c, 0, 64, 79
1, 114580, Note_off_c, 0, 53, 47
1, 114612, Control_c, 0, 64, 80
1, 114621, Note_on_c, 0, 55, 63
1, 114642, Note_off_c, 0, 71, 51
1, 114749, Note_off_c, 0, 55, 51
1, 114767, Note_on_c, 0, 56, 71
1, 114848, Control_c, 0, 64, 79
1, 114863, Control_c, 0, 64, 76
1, 114878, Control_c, 0, 64, 69
1, 114893, Control_c, 0, 64, 48
1, 114893, Note_off_c, 0, 56, 61
1, 114904, Note_on_c, 0, 67, 73
1, 114905, Note_on_c, 0, 72, 80
1, 114908, Control_c, 0, 64, 0
1, 114909, Note_on_c, 0, 63, 76
1, 114911, Note_on_c, 0, 55, 67
1, 114968, Control_c, 0, 64, 55
1, 114982, Control_c, 0, 64, 65
1, 114997, Control_c, 0, 64, 69
1, 115012, Control_c, 0, 64, 74
1, 115020, Note_off_c, 0, 63, 63
1, 115027, Control_c, 0, 64, 79
1, 115042, Control_c, 0, 64, 82
1, 115053, Note_off_c, 0, 72, 57
1, 115057, Control_c, 0, 64, 84
1, 115059, Note_on_c, 0, 53, 78
1, 115063, Note_off_c, 0, 55, 61
1, 115072, Control_c, 0, 64, 86
1, 115086, Control_c, 0, 64, 87
1, 115101, Control_c, 0, 64, 89
1, 115116, Control_c, 0, 64, 90
1, 115160, Control_c, 0, 64, 87
1, 115175, Control_c, 0, 64, 80
1, 115190, Control_c, 0, 64, 67
1, 115204, Control_c, 0, 64, 0
1, 115209, Note_on_c, 0, 71, 78
1, 115211, Note_on_c, 0, 74, 78
1, 115212, Note_on_c, 0, 65, 85
1, 115215, Note_on_c, 0, 51, 76
1, 115223, Note_off_c, 0, 53, 55
1, 115256, Note_off_c, 0, 67, 45
1, 115286, Control_c, 0, 64, 61
1, 115301, Control_c, 0, 64, 67
1, 115313, Note_off_c, 0, 74, 65
1, 115316, Control_c, 0, 64, 74
1, 115323, Note_off_c, 0, 51, 62
1, 115331, Control_c, 0, 64, 81
1, 115345, Control_c, 0, 64, 87
1, 115360, Control_c, 0, 64, 91
1, 115363, Note_on_c, 0, 50, 75
1, 115375, Control_c, 0, 64, 94
1, 115390, Control_c, 0, 64, 97
1, 115391, Note_off_c, 0, 65, 53
1, 115405, Control_c, 0, 64, 100
1, 115419, Control_c, 0, 64, 103
1, 115434, Control_c, 0, 64, 107
1, 115449, Control_c, 0, 64, 109
1, 115493, Control_c, 0, 64, 105
1, 115494, Note_off_c, 0, 71, 58
1, 115508, Control_c, 0, 64, 95
1, 115512, Note_off_c, 0, 50, 58
1, 115523, Control_c, 0, 64, 78
1, 115530, Note_on_c, 0, 75, 91
1, 115534, Note_on_c, 0, 72, 81
1, 115536, Note_on_c, 0, 48, 69
1, 115536, Note_on_c, 0, 67, 81
1, 115537, Control_c, 0, 64, 58
1, 115552, Control_c, 0, 64, 0
1, 115611, Control_c, 0, 64, 57
1, 115626, Control_c, 0, 64, 68
1, 115641, Control_c, 0, 64, 75
1, 115656, Control_c, 0, 64, 83
1, 115657, Note_off_c, 0, 67, 52
1, 115671, Control_c, 0, 64, 89
1, 115678, Note_on_c, 0, 46, 71
1, 115686, Control_c, 0, 64, 93
1, 115701, Note_off_c, 0, 48, 29
1, 115701, Control_c, 0, 64, 96
1, 115716, Control_c, 0, 64, 98
1, 115729, Note_off_c, 0, 75, 61
1, 115731, Control_c, 0, 64, 100
1, 115746, Control_c, 0, 64, 102
1, 115760, Control_c, 0, 64, 104
1, 115775, Control_c, 0, 64, 105
1, 115780, Note_off_c, 0, 46, 53
1, 115787, Note_off_c, 0, 72, 63
1, 115805, Control_c, 0, 64, 104
1, 115820, Note_on_c, 0, 76, 95
1, 115826, Note_on_c, 0, 67, 93
1, 115829, Note_on_c, 0, 48, 75
1, 115883, Note_off_c, 0, 67, 63
1, 115901, Note_off_c, 0, 76, 64
1, 115924, Control_c, 0, 64, 105
1, 115944, Note_off_c, 0, 48, 62
1, 115966, Note_on_c, 0, 49, 78
1, 115998, Control_c, 0, 64, 105
1, 116064, Control_c, 0, 64, 106
1, 116094, Control_c, 0, 64, 105
1, 116109, Control_c, 0, 64, 102
1, 116109, Note_off_c, 0, 49, 58
1, 116124, Control_c, 0, 64, 90
1, 116137, Note_on_c, 0, 77, 96
1, 116139, Control_c, 0, 64, 74
1, 116140, Note_on_c, 0, 74, 87
1, 116142, Note_on_c, 0, 68, 90
1, 116143, Note_on_c, 0, 48, 75
1, 116153, Control_c, 0, 64, 0
1, 116198, Control_c, 0, 64, 47
1, 116213, Control_c, 0, 64, 67
1, 116227, Control_c, 0, 64, 77
1, 116229, Note_off_c, 0, 68, 64
1, 116233, Note_off_c, 0, 74, 66
1, 116239, Note_off_c, 0, 77, 61
1, 116242, Control_c, 0, 64, 88
1, 116257, Control_c, 0, 64, 96
1, 116272, Control_c, 0, 64, 100
1, 116285, Note_on_c, 0, 46, 75
1, 116286, Control_c, 0, 64, 104
1, 116300, Note_off_c, 0, 48, 37
1, 116301, Control_c, 0, 64, 107
1, 116316, Control_c, 0, 64, 109
1, 116331, Control_c, 0, 64, 110
1, 116346, Control_c, 0, 64, 112
1, 116360, Control_c, 0, 64, 113
1, 116375, Control_c, 0, 64, 114
1, 116405, Control_c, 0, 64, 113
1, 116420, Control_c, 0, 64, 108
1, 116434, Control_c, 0, 64, 94
1, 116442, Note_on_c, 0, 79, 96
1, 116443, Note_on_c, 0, 70, 98
1, 116443, Note_on_c, 0, 44, 72
1, 116446, Note_off_c, 0, 46, 53
1, 116446, Note_on_c, 0, 76, 94
1, 116449, Control_c, 0, 64, 74
1, 116464, Control_c, 0, 64, 0
1, 116509, Control_c, 0, 64, 23
1, 116524, Control_c, 0, 64, 67
1, 116539, Control_c, 0, 64, 77
1, 116550, Note_off_c, 0, 70, 60
1, 116554, Control_c, 0, 64, 88
1, 116557, Note_off_c, 0, 79, 58
1, 116567, Note_off_c, 0, 44, 62
1, 116569, Control_c, 0, 64, 97
1, 116570, Note_off_c, 0, 76, 65
1, 116583, Control_c, 0, 64, 103
1, 116598, Control_c, 0, 64, 107
1, 116613, Note_on_c, 0, 43, 72
1, 116613, Control_c, 0, 64, 110
1, 116628, Control_c, 0, 64, 113
1, 116643, Control_c, 0, 64, 117
1, 116658, Control_c, 0, 64, 119
1, 116673, Control_c, 0, 64, 122
1, 116687, Control_c, 0, 64, 123
1, 116702, Control_c, 0, 64, 125
1, 116759, Note_off_c, 0, 43, 54
1, 116762, Control_c, 0, 64, 121
1, 116783, Control_c, 0, 64, 113
1, 116798, Control_c, 0, 64, 104
1, 116813, Control_c, 0, 64, 92
1, 116822, Note_on_c, 0, 80, 98
1, 116825, Note_on_c, 0, 41, 78
1, 116826, Note_on_c, 0, 77, 89
1, 116828, Note_on_c, 0, 72, 86
1, 116828, Control_c, 0, 64, 77
1, 116843, Control_c, 0, 64, 57
1, 116857, Control_c, 0, 64, 0
1, 117036, Note_on_c, 0, 75, 67
1, 117055, Note_off_c, 0, 77, 57
1, 117188, Note_off_c, 0, 75, 53
1, 117190, Note_on_c, 0, 77, 64
1, 117328, Note_on_c, 0, 79, 69
1, 117349, Note_off_c, 0, 77, 35
1, 117393, Note_off_c, 0, 72, 53
1, 117459, Note_on_c, 0, 46, 85
1, 117473, Note_on_c, 0, 77, 81
1, 117496, Note_off_c, 0, 41, 58
1, 117576, Note_off_c, 0, 79, 38
1, 117576, Note_off_c, 0, 80, 54
1, 117636, Note_on_c, 0, 75, 80
1, 117652, Note_off_c, 0, 77, 56
1, 117745, Note_off_c, 0, 75, 62
1, 117791, Note_on_c, 0, 74, 84
1, 117901, Note_off_c, 0, 74, 60
1, 117935, Note_on_c, 0, 72, 82
1, 118031, Note_off_c, 0, 72, 62
1, 118083, Note_on_c, 0, 74, 77
1, 118141, Control_c, 0, 64, 52
1, 118155, Control_c, 0, 64, 61
1, 118170, Control_c, 0, 64, 65
1, 118185, Control_c, 0, 64, 68
1, 118200, Control_c, 0, 64, 73
1, 118215, Control_c, 0, 64, 77
1, 118229, Control_c, 0, 64, 80
1, 118235, Note_on_c, 0, 80, 86
1, 118244, Control_c, 0, 64, 82
1, 118259, Control_c, 0, 64, 83
1, 118281, Control_c, 0, 64, 83
1, 118296, Control_c, 0, 64, 84
1, 118311, Control_c, 0, 64, 85
1, 118326, Control_c, 0, 64, 86
1, 118341, Control_c, 0, 64, 87
1, 118355, Control_c, 0, 64, 88
1, 118359, Note_off_c, 0, 80, 55
1, 118392, Note_on_c, 0, 82, 87
1, 118415, Control_c, 0, 64, 88
1, 118531, Note_on_c, 0, 84, 86
1, 118545, Note_off_c, 0, 82, 61
1, 118667, Control_c, 0, 64, 88
1, 118681, Control_c, 0, 64, 84
1, 118691, Note_on_c, 0, 43, 65
1, 118691, Note_on_c, 0, 82, 86
1, 118696, Control_c, 0, 64, 76
1, 118711, Control_c, 0, 64, 64
1, 118725, Note_off_c, 0, 84, 63
1, 118726, Control_c, 0, 64, 0
1, 118756, Note_off_c, 0, 46, 31
1, 118785, Control_c, 0, 64, 15
1, 118800, Control_c, 0, 64, 58
1, 118815, Control_c, 0, 64, 64
1, 118829, Control_c, 0, 64, 67
1, 118842, Note_on_c, 0, 80, 80
1, 118844, Control_c, 0, 64, 71
1, 118859, Control_c, 0, 64, 76
1, 118873, Control_c, 0, 64, 81
1, 118880, Note_off_c, 0, 74, 52
1, 118884, Note_off_c, 0, 82, 63
1, 118888, Control_c, 0, 64, 84
1, 118904, Control_c, 0, 64, 85
1, 118919, Control_c, 0, 64, 87
1, 118934, Control_c, 0, 64, 89
1, 118949, Control_c, 0, 64, 91
1, 118964, Control_c, 0, 64, 94
1, 118978, Control_c, 0, 64, 97
1, 118993, Control_c, 0, 64, 98
1, 119005, Note_on_c, 0, 79, 89
1, 119008, Control_c, 0, 64, 100
1, 119030, Control_c, 0, 64, 101
1, 119039, Note_off_c, 0, 80, 63
1, 119045, Control_c, 0, 64, 102
1, 119060, Control_c, 0, 64, 103
1, 119075, Control_c, 0, 64, 104
1, 119090, Control_c, 0, 64, 104
1, 119103, Note_off_c, 0, 79, 59
1, 119119, Control_c, 0, 64, 105
1, 119153, Note_on_c, 0, 77, 76
1, 119164, Control_c, 0, 64, 105
1, 119203, Note_off_c, 0, 77, 60
1, 119296, Control_c, 0, 64, 105
1, 119309, Note_on_c, 0, 51, 65
1, 119311, Control_c, 0, 64, 104
1, 119313, Note_on_c, 0, 48, 63
1, 119324, Note_on_c, 0, 75, 79
1, 119326, Control_c, 0, 64, 102
1, 119341, Control_c, 0, 64, 100
1, 119356, Control_c, 0, 64, 96
1, 119370, Control_c, 0, 64, 92
1, 119385, Control_c, 0, 64, 87
1, 119400, Control_c, 0, 64, 82
1, 119415, Control_c, 0, 64, 76
1, 119427, Note_off_c, 0, 43, 37
1, 119430, Control_c, 0, 64, 69
1, 119445, Control_c, 0, 64, 57
1, 119460, Control_c, 0, 64, 0
1, 119466, Note_on_c, 0, 70, 66
1, 119635, Note_on_c, 0, 72, 66
1, 119665, Note_off_c, 0, 75, 62
1, 119670, Note_off_c, 0, 70, 49
1, 119792, Note_on_c, 0, 73, 74
1, 119812, Note_off_c, 0, 72, 62
1, 119920, Note_off_c, 0, 73, 62
1, 119958, Note_on_c, 0, 72, 73
1, 119962, Note_on_c, 0, 56, 70
1, 120001, Note_off_c, 0, 51, 58
1, 120110, Note_on_c, 0, 70, 67
1, 120232, Note_off_c, 0, 72, 0
1, 120243, Note_off_c, 0, 70, 55
1, 120250, Note_on_c, 0, 72, 31
1, 120265, Note_on_c, 0, 68, 66
1, 120353, Note_off_c, 0, 68, 62
1, 120406, Note_on_c, 0, 67, 60
1, 120474, Note_off_c, 0, 67, 56
1, 120574, Note_off_c, 0, 72, 59
1, 120589, Note_on_c, 0, 50, 50
1, 120592, Note_on_c, 0, 70, 58
1, 120601, Note_on_c, 0, 65, 49
1, 120613, Note_off_c, 0, 48, 42
1, 120756, Note_off_c, 0, 65, 58
1, 120876, Note_on_c, 0, 46, 39
1, 120895, Note_on_c, 0, 67, 60
1, 121022, Note_off_c, 0, 67, 56
1, 121037, Note_on_c, 0, 68, 67
1, 121072, Note_off_c, 0, 70, 58
1, 121138, Note_off_c, 0, 56, 50
1, 121181, Note_off_c, 0, 46, 34
1, 121189, Note_off_c, 0, 50, 36
1, 121238, Note_on_c, 0, 51, 22
1, 121238, Note_off_c, 0, 68, 62
1, 121243, Note_on_c, 0, 70, 54
1, 121245, Note_on_c, 0, 55, 28
1, 121445, Note_on_c, 0, 68, 49
1, 121543, Note_off_c, 0, 68, 56
1, 121558, Control_c, 0, 64, 36
1, 121566, Note_off_c, 0, 51, 42
1, 121573, Control_c, 0, 64, 51
1, 121582, Note_on_c, 0, 50, 43
1, 121588, Control_c, 0, 64, 59
1, 121588, Note_on_c, 0, 67, 57
1, 121603, Control_c, 0, 64, 63
1, 121618, Control_c, 0, 64, 65
1, 121633, Control_c, 0, 64, 66
1, 121647, Control_c, 0, 64, 68
1, 121662, Control_c, 0, 64, 70
1, 121677, Control_c, 0, 64, 72
1, 121691, Control_c, 0, 64, 74
1, 121705, Note_off_c, 0, 67, 52
1, 121706, Control_c, 0, 64, 75
1, 121719, Note_on_c, 0, 65, 60
1, 121721, Control_c, 0, 64, 75
1, 121736, Control_c, 0, 64, 76
1, 121740, Note_off_c, 0, 55, 41
1, 121766, Note_off_c, 0, 65, 60
1, 121810, Control_c, 0, 64, 75
1, 121824, Control_c, 0, 64, 73
1, 121839, Control_c, 0, 64, 70
1, 121854, Control_c, 0, 64, 66
1, 121869, Note_on_c, 0, 48, 50
1, 121869, Control_c, 0, 64, 60
1, 121883, Note_on_c, 0, 63, 68
1, 121884, Control_c, 0, 64, 47
1, 121898, Control_c, 0, 64, 28
1, 121907, Note_on_c, 0, 60, 45
1, 121913, Control_c, 0, 64, 13
1, 121949, Note_off_c, 0, 60, 47
1, 121956, Note_off_c, 0, 50, 26
1, 121958, Control_c, 0, 64, 10
1, 121973, Control_c, 0, 64, 0
1, 122038, Note_off_c, 0, 63, 60
1, 122041, Note_on_c, 0, 62, 65
1, 122146, Note_off_c, 0, 62, 60
1, 122206, Note_on_c, 0, 60, 59
1, 122310, Note_off_c, 0, 70, 42
1, 122352, Note_on_c, 0, 58, 58
1, 122507, Note_on_c, 0, 63, 60
1, 122558, Note_off_c, 0, 60, 27
1, 122566, Note_off_c, 0, 48, 39
1, 122648, Note_on_c, 0, 68, 62
1, 122655, Note_off_c, 0, 63, 51
1, 122724, Note_off_c, 0, 68, 62
1, 122810, Note_on_c, 0, 63, 47
1, 122811, Note_on_c, 0, 70, 54
1, 122818, Control_c, 0, 64, 28
1, 122821, Note_on_c, 0, 46, 41
1, 122833, Control_c, 0, 64, 47
1, 122847, Control_c, 0, 64, 57
1, 122862, Control_c, 0, 64, 62
1, 122877, Control_c, 0, 64, 64
1, 122893, Control_c, 0, 64, 67
1, 122908, Control_c, 0, 64, 70
1, 122923, Control_c, 0, 64, 73
1, 122932, Note_off_c, 0, 70, 57
1, 122938, Control_c, 0, 64, 76
1, 122941, Note_on_c, 0, 72, 57
1, 122947, Note_off_c, 0, 58, 57
1, 122952, Control_c, 0, 64, 77
1, 122968, Control_c, 0, 64, 78
1, 122984, Note_off_c, 0, 63, 35
1, 123001, Note_off_c, 0, 72, 38
1, 123028, Note_off_c, 0, 46, 40
1, 123086, Control_c, 0, 64, 76
1, 123101, Control_c, 0, 64, 73
1, 123103, Note_on_c, 0, 63, 56
1, 123116, Control_c, 0, 64, 65
1, 123126, Note_on_c, 0, 65, 50
1, 123126, Note_on_c, 0, 45, 40
1, 123131, Control_c, 0, 64, 33
1, 123145, Control_c, 0, 64, 0
1, 123207, Note_off_c, 0, 63, 64
1, 123234, Control_c, 0, 64, 38
1, 123249, Control_c, 0, 64, 55
1, 123263, Control_c, 0, 64, 61
1, 123270, Note_on_c, 0, 57, 35
1, 123278, Control_c, 0, 64, 64
1, 123293, Control_c, 0, 64, 66
1, 123308, Control_c, 0, 64, 67
1, 123323, Control_c, 0, 64, 68
1, 123338, Control_c, 0, 64, 68
1, 123353, Control_c, 0, 64, 69
1, 123368, Control_c, 0, 64, 69
1, 123428, Note_on_c, 0, 58, 51
1, 123434, Note_off_c, 0, 65, 52
1, 123466, Note_off_c, 0, 57, 36
1, 123504, Note_off_c, 0, 58, 52
1, 123538, Control_c, 0, 64, 69
1, 123580, Note_on_c, 0, 60, 53
1, 123582, Control_c, 0, 64, 68
1, 123612, Control_c, 0, 64, 68
1, 123627, Control_c, 0, 64, 67
1, 123642, Control_c, 0, 64, 67
1, 123650, Note_off_c, 0, 60, 52
1, 123657, Control_c, 0, 64, 65
1, 123671, Control_c, 0, 64, 63
1, 123686, Control_c, 0, 64, 61
1, 123702, Control_c, 0, 64, 59
1, 123716, Control_c, 0, 64, 57
1, 123731, Control_c, 0, 64, 54
1, 123740, Note_on_c, 0, 62, 53
1, 123741, Note_on_c, 0, 65, 52
1, 123746, Control_c, 0, 64, 51
1, 123749, Note_on_c, 0, 58, 45
1, 123760, Note_off_c, 0, 45, 44
1, 123761, Control_c, 0, 64, 47
1, 123769, Note_on_c, 0, 46, 39
1, 123776, Control_c, 0, 64, 42
1, 123791, Control_c, 0, 64, 37
1, 123806, Control_c, 0, 64, 32
1, 123821, Control_c, 0, 64, 29
1, 123836, Control_c, 0, 64, 28
1, 123850, Control_c, 0, 64, 27
1, 123865, Control_c, 0, 64, 26
1, 123880, Control_c, 0, 64, 25
1, 123893, Note_on_c, 0, 56, 53
1, 123919, Note_off_c, 0, 58, 33
1, 123964, Note_off_c, 0, 62, 32
1, 123983, Control_c, 0, 64, 26
1, 124012, Control_c, 0, 64, 27
1, 124027, Control_c, 0, 64, 29
1, 124042, Control_c, 0, 64, 30
1, 124043, Note_on_c, 0, 55, 44
1, 124057, Control_c, 0, 64, 31
1, 124072, Control_c, 0, 64, 32
1, 124086, Control_c, 0, 64, 32
1, 124101, Control_c, 0, 64, 33
1, 124131, Control_c, 0, 64, 34
1, 124146, Control_c, 0, 64, 34
1, 124161, Note_off_c, 0, 56, 52
1, 124162, Note_off_c, 0, 55, 39
1, 124176, Control_c, 0, 64, 35
1, 124196, Note_on_c, 0, 53, 48
1, 124205, Control_c, 0, 64, 36
1, 124287, Control_c, 0, 64, 36
1, 124304, Note_off_c, 0, 53, 54
1, 124331, Note_off_c, 0, 65, 57
1, 124363, Note_on_c, 0, 63, 56
1, 124366, Note_on_c, 0, 54, 44
1, 124372, Note_on_c, 0, 60, 47
1, 124399, Note_off_c, 0, 46, 54
1, 124414, Note_off_c, 0, 54, 0
1, 124414, Note_on_c, 0, 54, 13
1, 124539, Note_on_c, 0, 45, 30
1, 124651, Note_off_c, 0, 45, 56
1, 124682, Note_on_c, 0, 46, 40
1, 124781, Note_off_c, 0, 60, 25
1, 124793, Note_off_c, 0, 46, 57
1, 124843, Note_on_c, 0, 48, 40
1, 124942, Note_off_c, 0, 54, 51
1, 124978, Note_off_c, 0, 48, 37
1, 124991, Note_on_c, 0, 46, 48
1, 125005, Note_on_c, 0, 53, 44
1, 125035, Control_c, 0, 64, 36
1, 125137, Note_off_c, 0, 46, 52
1, 125160, Note_on_c, 0, 45, 52
1, 125293, Note_off_c, 0, 45, 55
1, 125326, Note_on_c, 0, 43, 47
1, 125376, Note_off_c, 0, 53, 43
1, 125454, Note_off_c, 0, 43, 61
1, 125465, Control_c, 0, 64, 35
1, 125493, Note_on_c, 0, 41, 47
1, 125539, Control_c, 0, 64, 34
1, 125613, Note_off_c, 0, 63, 59
1, 125663, Note_on_c, 0, 53, 45
1, 125667, Note_off_c, 0, 41, 49
1, 125675, Note_on_c, 0, 62, 55
1, 125682, Note_on_c, 0, 46, 44
1, 125732, Control_c, 0, 64, 34
1, 125856, Note_on_c, 0, 65, 56
1, 125887, Control_c, 0, 64, 33
1, 126001, Note_off_c, 0, 65, 62
1, 126004, Note_on_c, 0, 67, 66
1, 126080, Control_c, 0, 64, 32
1, 126157, Note_on_c, 0, 68, 45
1, 126162, Note_off_c, 0, 67, 57
1, 126175, Note_on_c, 0, 69, 62
1, 126187, Note_off_c, 0, 68, 38
1, 126229, Control_c, 0, 64, 32
1, 126235, Note_off_c, 0, 69, 56
1, 126304, Note_off_c, 0, 53, 56
1, 126305, Note_on_c, 0, 51, 58
1, 126320, Note_on_c, 0, 67, 71
1, 126462, Note_on_c, 0, 65, 71
1, 126481, Note_off_c, 0, 62, 48
1, 126495, Control_c, 0, 64, 31
1, 126631, Note_on_c, 0, 63, 67
1, 126638, Note_off_c, 0, 67, 0
1, 126638, Note_on_c, 0, 67, 7
1, 126688, Note_off_c, 0, 46, 38
1, 126746, Note_off_c, 0, 63, 57
1, 126754, Note_off_c, 0, 65, 45
1, 126778, Note_on_c, 0, 62, 64
1, 126864, Note_off_c, 0, 62, 58
1, 126950, Note_off_c, 0, 67, 56
1, 126952, Note_on_c, 0, 68, 68
1, 126972, Note_on_c, 0, 60, 56
1, 127008, Control_c, 0, 64, 30
1, 127112, Control_c, 0, 64, 29
1, 127134, Note_off_c, 0, 60, 54
1, 127142, Control_c, 0, 64, 29
1, 127156, Control_c, 0, 64, 28
1, 127201, Control_c, 0, 64, 27
1, 127272, Note_on_c, 0, 62, 50
1, 127282, Control_c, 0, 64, 26
1, 127371, Control_c, 0, 64, 25
1, 127413, Note_off_c, 0, 62, 53
1, 127426, Note_on_c, 0, 63, 49
1, 127594, Note_off_c, 0, 63, 59
1, 127616, Note_off_c, 0, 51, 37
1, 127625, Note_on_c, 0, 50, 37
1, 127627, Note_on_c, 0, 65, 49
1, 127636, Control_c, 0, 64, 24
1, 127666, Control_c, 0, 64, 23
1, 127681, Control_c, 0, 64, 21
1, 127696, Control_c, 0, 64, 20
1, 127711, Control_c, 0, 64, 18
1, 127726, Control_c, 0, 64, 17
1, 127741, Control_c, 0, 64, 15
1, 127756, Control_c, 0, 64, 13
1, 127770, Control_c, 0, 64, 10
1, 127773, Note_off_c, 0, 65, 63
1, 127785, Control_c, 0, 64, 0
1, 127796, Note_on_c, 0, 63, 54
1, 127886, Note_off_c, 0, 63, 64
1, 127949, Note_on_c, 0, 62, 49
1, 128086, Note_off_c, 0, 62, 57
1, 128104, Note_on_c, 0, 60, 52
1, 128218, Note_off_c, 0, 50, 52
1, 128219, Note_off_c, 0, 60, 59
1, 128265, Note_on_c, 0, 58, 61
1, 128277, Note_on_c, 0, 55, 36
1, 128370, Note_off_c, 0, 55, 51
1, 128406, Note_off_c, 0, 68, 42
1, 128411, Note_on_c, 0, 65, 61
1, 128417, Note_on_c, 0, 56, 49
1, 128512, Note_off_c, 0, 56, 59
1, 128539, Note_off_c, 0, 58, 0
1, 128541, Note_off_c, 0, 65, 51
1, 128549, Control_c, 0, 64, 10
1, 128566, Note_on_c, 0, 55, 51
1, 128568, Note_on_c, 0, 58, 21
1, 128571, Note_on_c, 0, 67, 66
1, 128593, Control_c, 0, 64, 13
1, 128638, Control_c, 0, 64, 15
1, 128712, Control_c, 0, 64, 17
1, 128715, Note_off_c, 0, 55, 36
1, 128718, Note_off_c, 0, 58, 0
1, 128718, Note_on_c, 0, 58, 5
1, 128721, Note_off_c, 0, 67, 36
1, 128728, Note_on_c, 0, 68, 64
1, 128733, Note_on_c, 0, 53, 60
1, 128742, Control_c, 0, 64, 18
1, 128793, Control_c, 0, 64, 20
1, 128805, Note_off_c, 0, 58, 59
1, 128808, Control_c, 0, 64, 21
1, 128823, Control_c, 0, 64, 23
1, 128838, Control_c, 0, 64, 24
1, 128853, Control_c, 0, 64, 25
1, 128864, Note_off_c, 0, 53, 53
1, 128865, Note_off_c, 0, 68, 58
1, 128867, Control_c, 0, 64, 29
1, 128882, Control_c, 0, 64, 33
1, 128893, Note_on_c, 0, 67, 72
1, 128894, Note_on_c, 0, 55, 73
1, 128897, Control_c, 0, 64, 40
1, 128912, Control_c, 0, 64, 47
1, 128915, Note_on_c, 0, 58, 55
1, 128927, Control_c, 0, 64, 54
1, 128942, Control_c, 0, 64, 58
1, 128956, Control_c, 0, 64, 61
1, 128968, Note_off_c, 0, 58, 58
1, 128971, Control_c, 0, 64, 63
1, 128986, Control_c, 0, 64, 64
1, 129001, Control_c, 0, 64, 65
1, 129015, Control_c, 0, 64, 67
1, 129018, Note_off_c, 0, 67, 53
1, 129030, Control_c, 0, 64, 68
1, 129036, Note_on_c, 0, 65, 69
1, 129045, Control_c, 0, 64, 71
1, 129060, Control_c, 0, 64, 74
1, 129075, Control_c, 0, 64, 77
1, 129089, Control_c, 0, 64, 78
1, 129104, Control_c, 0, 64, 79
1, 129119, Control_c, 0, 64, 79
1, 129144, Note_off_c, 0, 65, 57
1, 129159, Note_off_c, 0, 55, 53
1, 129195, Note_on_c, 0, 53, 74
1, 129198, Note_on_c, 0, 63, 70
1, 129237, Control_c, 0, 64, 79
1, 129273, Note_off_c, 0, 63, 58
1, 129298, Control_c, 0, 64, 78
1, 129312, Control_c, 0, 64, 78
1, 129340, Note_on_c, 0, 62, 72
1, 129342, Control_c, 0, 64, 77
1, 129357, Control_c, 0, 64, 77
1, 129372, Control_c, 0, 64, 76
1, 129386, Control_c, 0, 64, 75
1, 129401, Control_c, 0, 64, 74
1, 129416, Control_c, 0, 64, 73
1, 129419, Note_off_c, 0, 62, 61
1, 129431, Control_c, 0, 64, 72
1, 129446, Control_c, 0, 64, 70
1, 129461, Control_c, 0, 64, 68
1, 129476, Control_c, 0, 64, 66
1, 129490, Control_c, 0, 64, 64
1, 129512, Control_c, 0, 64, 63
1, 129520, Note_on_c, 0, 52, 60
1, 129520, Note_on_c, 0, 60, 71
1, 129525, Note_on_c, 0, 58, 70
1, 129527, Control_c, 0, 64, 62
1, 129542, Control_c, 0, 64, 62
1, 129544, Note_off_c, 0, 53, 59
1, 129572, Control_c, 0, 64, 61
1, 129586, Control_c, 0, 64, 59
1, 129601, Control_c, 0, 64, 58
1, 129616, Control_c, 0, 64, 56
1, 129631, Control_c, 0, 64, 55
1, 129645, Control_c, 0, 64, 54
1, 129660, Control_c, 0, 64, 53
1, 129664, Note_off_c, 0, 58, 62
1, 129671, Note_on_c, 0, 55, 67
1, 129675, Control_c, 0, 64, 51
1, 129690, Control_c, 0, 64, 48
1, 129705, Control_c, 0, 64, 44
1, 129720, Control_c, 0, 64, 40
1, 129735, Control_c, 0, 64, 34
1, 129750, Control_c, 0, 64, 29
1, 129765, Control_c, 0, 64, 21
1, 129780, Control_c, 0, 64, 10
1, 129795, Control_c, 0, 64, 0
1, 129825, Note_off_c, 0, 55, 59
1, 129833, Note_on_c, 0, 57, 65
1, 129964, Note_on_c, 0, 58, 70
1, 129971, Note_off_c, 0, 60, 62
1, 129972, Note_off_c, 0, 57, 51
1, 130083, Note_off_c, 0, 52, 53
1, 130093, Note_off_c, 0, 58, 64
1, 130115, Note_on_c, 0, 53, 56
1, 130122, Note_on_c, 0, 57, 64
1, 130265, Note_on_c, 0, 60, 72
1, 130277, Note_off_c, 0, 53, 58
1, 130421, Note_on_c, 0, 62, 77
1, 130429, Note_on_c, 0, 51, 55
1, 130459, Note_off_c, 0, 60, 56
1, 130537, Note_off_c, 0, 51, 56
1, 130562, Note_on_c, 0, 63, 77
1, 130608, Note_off_c, 0, 62, 54
1, 130725, Note_on_c, 0, 50, 43
1, 130742, Note_on_c, 0, 65, 70
1, 130753, Note_off_c, 0, 57, 52
1, 130784, Note_off_c, 0, 63, 60
1, 130888, Note_on_c, 0, 57, 40
1, 131016, Note_off_c, 0, 57, 55
1, 131057, Note_on_c, 0, 59, 43
1, 131166, Note_off_c, 0, 59, 54
1, 131204, Note_on_c, 0, 60, 46
1, 131282, Note_off_c, 0, 60, 58
1, 131342, Note_off_c, 0, 65, 58
1, 131347, Note_on_c, 0, 59, 51
1, 131493, Note_on_c, 0, 63, 62
1, 131652, Note_on_c, 0, 65, 65
1, 131820, Note_on_c, 0, 67, 71
1, 131822, Note_off_c, 0, 63, 53
1, 131857, Note_off_c, 0, 65, 56
1, 131974, Note_off_c, 0, 50, 31
1, 131988, Note_on_c, 0, 68, 73
1, 132026, Note_off_c, 0, 67, 60
1, 132111, Note_off_c, 0, 59, 39
1, 132135, Note_on_c, 0, 50, 45
1, 132281, Note_off_c, 0, 50, 58
1, 132288, Note_on_c, 0, 59, 58
1, 132294, Note_on_c, 0, 51, 59
1, 132417, Note_off_c, 0, 51, 63
1, 132436, Note_on_c, 0, 53, 66
1, 132580, Note_off_c, 0, 53, 61
1, 132590, Note_off_c, 0, 59, 55
1, 132602, Note_on_c, 0, 51, 65
1, 132606, Note_on_c, 0, 60, 70
1, 132726, Note_off_c, 0, 51, 61
1, 132748, Note_on_c, 0, 50, 63
1, 132881, Note_off_c, 0, 50, 59
1, 132904, Note_on_c, 0, 48, 57
1, 132913, Note_on_c, 0, 62, 60
1, 132928, Note_off_c, 0, 60, 61
1, 133012, Control_c, 0, 64, 17
1, 133027, Control_c, 0, 64, 40
1, 133038, Note_off_c, 0, 48, 59
1, 133042, Control_c, 0, 64, 52
1, 133049, Note_on_c, 0, 47, 58
1, 133056, Control_c, 0, 64, 57
1, 133065, Note_off_c, 0, 62, 61
1, 133071, Control_c, 0, 64, 60
1, 133086, Control_c, 0, 64, 61
1, 133101, Control_c, 0, 64, 62
1, 133116, Control_c, 0, 64, 63
1, 133130, Control_c, 0, 64, 64
1, 133160, Control_c, 0, 64, 63
1, 133167, Note_off_c, 0, 68, 62
1, 133175, Control_c, 0, 64, 62
1, 133190, Control_c, 0, 64, 52
1, 133202, Note_off_c, 0, 47, 52
1, 133205, Control_c, 0, 64, 0
1, 133213, Note_on_c, 0, 63, 60
1, 133223, Note_on_c, 0, 48, 52
1, 133287, Control_c, 0, 64, 40
1, 133302, Control_c, 0, 64, 58
1, 133317, Control_c, 0, 64, 62
1, 133332, Control_c, 0, 64, 64
1, 133347, Control_c, 0, 64, 64
1, 133376, Control_c, 0, 64, 64
1, 133391, Note_off_c, 0, 48, 59
1, 133391, Control_c, 0, 64, 63
1, 133405, Control_c, 0, 64, 62
1, 133408, Note_on_c, 0, 47, 64
1, 133420, Control_c, 0, 64, 59
1, 133435, Control_c, 0, 64, 57
1, 133450, Control_c, 0, 64, 56
1, 133480, Control_c, 0, 64, 56
1, 133494, Control_c, 0, 64, 54
1, 133509, Control_c, 0, 64, 52
1, 133524, Control_c, 0, 64, 49
1, 133539, Control_c, 0, 64, 47
1, 133553, Control_c, 0, 64, 46
1, 133557, Note_on_c, 0, 48, 72
1, 133558, Note_off_c, 0, 47, 64
1, 133565, Note_on_c, 0, 67, 76
1, 133568, Control_c, 0, 64, 45
1, 133583, Control_c, 0, 64, 43
1, 133598, Control_c, 0, 64, 41
1, 133613, Control_c, 0, 64, 38
1, 133628, Control_c, 0, 64, 37
1, 133643, Control_c, 0, 64, 36
1, 133672, Control_c, 0, 64, 36
1, 133703, Note_off_c, 0, 48, 61
1, 133708, Note_on_c, 0, 50, 79
1, 133717, Control_c, 0, 64, 36
1, 133732, Control_c, 0, 64, 37
1, 133761, Control_c, 0, 64, 37
1, 133791, Control_c, 0, 64, 37
1, 133866, Note_off_c, 0, 50, 55
1, 133871, Note_on_c, 0, 48, 80
1, 133872, Note_on_c, 0, 68, 84
1, 133904, Note_off_c, 0, 67, 62
1, 134034, Note_on_c, 0, 46, 76
1, 134050, Control_c, 0, 64, 36
1, 134054, Note_off_c, 0, 48, 62
1, 134140, Control_c, 0, 64, 36
1, 134155, Control_c, 0, 64, 35
1, 134170, Control_c, 0, 64, 33
1, 134177, Note_on_c, 0, 70, 85
1, 134179, Note_on_c, 0, 44, 79
1, 134183, Note_off_c, 0, 46, 64
1, 134184, Control_c, 0, 64, 29
1, 134199, Control_c, 0, 64, 24
1, 134203, Note_off_c, 0, 68, 61
1, 134214, Control_c, 0, 64, 21
1, 134229, Control_c, 0, 64, 20
1, 134243, Control_c, 0, 64, 15
1, 134258, Control_c, 0, 64, 0
1, 134325, Note_on_c, 0, 43, 82
1, 134325, Note_off_c, 0, 44, 60
1, 134505, Note_on_c, 0, 48, 78
1, 134507, Note_on_c, 0, 44, 71
1, 134507, Note_on_c, 0, 72, 84
1, 134531, Note_off_c, 0, 63, 63
1, 134537, Note_off_c, 0, 43, 59
1, 134547, Note_off_c, 0, 70, 58
1, 134659, Note_on_c, 0, 63, 73
1, 134781, Note_off_c, 0, 63, 63
1, 134829, Note_on_c, 0, 65, 73
1, 134969, Note_on_c, 0, 67, 75
1, 134998, Note_off_c, 0, 65, 59
1, 135118, Note_off_c, 0, 67, 60
1, 135127, Note_on_c, 0, 53, 88
1, 135130, Note_off_c, 0, 72, 61
1, 135139, Note_on_c, 0, 65, 75
1, 135291, Note_on_c, 0, 75, 70
1, 135330, Note_off_c, 0, 65, 44
1, 135378, Note_off_c, 0, 75, 61
1, 135393, Note_off_c, 0, 48, 24
1, 135440, Note_on_c, 0, 74, 69
1, 135553, Note_off_c, 0, 74, 57
1, 135592, Note_on_c, 0, 72, 81
1, 135637, Note_off_c, 0, 44, 36
1, 135711, Control_c, 0, 64, 13
1, 135726, Control_c, 0, 64, 38
1, 135734, Note_off_c, 0, 72, 56
1, 135741, Control_c, 0, 64, 48
1, 135755, Control_c, 0, 64, 54
1, 135761, Note_on_c, 0, 71, 78
1, 135766, Note_on_c, 0, 67, 77
1, 135770, Control_c, 0, 64, 58
1, 135785, Control_c, 0, 64, 60
1, 135799, Control_c, 0, 64, 62
1, 135814, Control_c, 0, 64, 63
1, 135829, Control_c, 0, 64, 64
1, 135844, Control_c, 0, 64, 65
1, 135859, Control_c, 0, 64, 65
1, 135873, Control_c, 0, 64, 66
1, 135888, Control_c, 0, 64, 66
1, 135903, Control_c, 0, 64, 67
1, 135913, Note_on_c, 0, 43, 73
1, 135986, Note_on_c, 0, 72, 59
1, 136007, Control_c, 0, 64, 66
1, 136032, Note_off_c, 0, 71, 55
1, 136038, Note_off_c, 0, 72, 58
1, 136048, Note_on_c, 0, 45, 76
1, 136063, Note_off_c, 0, 53, 64
1, 136066, Control_c, 0, 64, 66
1, 136079, Note_on_c, 0, 72, 69
1, 136081, Note_off_c, 0, 43, 62
1, 136140, Control_c, 0, 64, 65
1, 136170, Control_c, 0, 64, 65
1, 136190, Note_on_c, 0, 47, 76
1, 136192, Note_off_c, 0, 45, 64
1, 136199, Control_c, 0, 64, 64
1, 136214, Control_c, 0, 64, 62
1, 136220, Note_on_c, 0, 74, 85
1, 136229, Control_c, 0, 64, 59
1, 136248, Note_off_c, 0, 72, 60
1, 136251, Control_c, 0, 64, 49
1, 136266, Control_c, 0, 64, 0
1, 136344, Note_off_c, 0, 47, 60
1, 136359, Note_on_c, 0, 48, 70
1, 136361, Note_on_c, 0, 75, 90
1, 136364, Note_on_c, 0, 51, 80
1, 136387, Note_off_c, 0, 74, 61
1, 136414, Control_c, 0, 64, 15
1, 136429, Control_c, 0, 64, 57
1, 136445, Control_c, 0, 64, 64
1, 136460, Control_c, 0, 64, 67
1, 136470, Note_off_c, 0, 75, 64
1, 136475, Control_c, 0, 64, 69
1, 136490, Control_c, 0, 64, 72
1, 136505, Control_c, 0, 64, 75
1, 136516, Note_on_c, 0, 74, 85
1, 136519, Control_c, 0, 64, 77
1, 136534, Control_c, 0, 64, 78
1, 136549, Control_c, 0, 64, 80
1, 136564, Control_c, 0, 64, 80
1, 136579, Control_c, 0, 64, 81
1, 136594, Note_off_c, 0, 48, 56
1, 136594, Control_c, 0, 64, 82
1, 136609, Control_c, 0, 64, 83
1, 136623, Note_off_c, 0, 51, 58
1, 136623, Control_c, 0, 64, 83
1, 136638, Control_c, 0, 64, 84
1, 136653, Control_c, 0, 64, 84
1, 136668, Control_c, 0, 64, 85
1, 136669, Note_on_c, 0, 72, 80
1, 136683, Control_c, 0, 64, 85
1, 136685, Note_off_c, 0, 74, 32
1, 136697, Note_off_c, 0, 67, 47
1, 136697, Control_c, 0, 64, 86
1, 136727, Control_c, 0, 64, 86
1, 136746, Note_off_c, 0, 72, 63
1, 136786, Control_c, 0, 64, 87
1, 136803, Note_on_c, 0, 70, 83
1, 136844, Note_off_c, 0, 70, 63
1, 136946, Note_on_c, 0, 56, 92
1, 136949, Control_c, 0, 64, 86
1, 136956, Note_on_c, 0, 68, 86
1, 136964, Control_c, 0, 64, 85
1, 136978, Control_c, 0, 64, 83
1, 137001, Control_c, 0, 64, 80
1, 137016, Control_c, 0, 64, 75
1, 137030, Control_c, 0, 64, 68
1, 137045, Control_c, 0, 64, 50
1, 137060, Control_c, 0, 64, 0
1, 137078, Note_off_c, 0, 68, 61
1, 137099, Note_on_c, 0, 48, 81
1, 137104, Note_on_c, 0, 67, 82
1, 137223, Note_off_c, 0, 67, 50
1, 137224, Note_off_c, 0, 48, 54
1, 137234, Note_on_c, 0, 50, 76
1, 137244, Note_on_c, 0, 65, 85
1, 137379, Note_on_c, 0, 51, 69
1, 137380, Note_off_c, 0, 50, 30
1, 137387, Note_on_c, 0, 63, 82
1, 137388, Note_off_c, 0, 65, 63
1, 137512, Note_off_c, 0, 63, 63
1, 137515, Note_off_c, 0, 51, 56
1, 137542, Note_off_c, 0, 56, 0
1, 137546, Note_on_c, 0, 62, 88
1, 137557, Note_on_c, 0, 56, 50
1, 137561, Note_on_c, 0, 53, 78
1, 137565, Control_c, 0, 64, 62
1, 137579, Control_c, 0, 64, 70
1, 137594, Control_c, 0, 64, 79
1, 137609, Note_off_c, 0, 62, 63
1, 137609, Control_c, 0, 64, 86
1, 137624, Control_c, 0, 64, 92
1, 137639, Control_c, 0, 64, 96
1, 137645, Note_off_c, 0, 53, 65
1, 137653, Control_c, 0, 64, 98
1, 137668, Control_c, 0, 64, 100
1, 137683, Control_c, 0, 64, 102
1, 137698, Control_c, 0, 64, 103
1, 137703, Note_on_c, 0, 74, 92
1, 137713, Control_c, 0, 64, 104
1, 137727, Control_c, 0, 64, 105
1, 137750, Control_c, 0, 64, 106
1, 137779, Control_c, 0, 64, 107
1, 137847, Note_off_c, 0, 74, 61
1, 137868, Control_c, 0, 64, 106
1, 137883, Control_c, 0, 64, 100
1, 137892, Note_off_c, 0, 56, 0
1, 137892, Note_on_c, 0, 56, 28
1, 137898, Control_c, 0, 64, 87
1, 137903, Note_on_c, 0, 75, 95
1, 137909, Note_on_c, 0, 53, 82
1, 137913, Control_c, 0, 64, 68
1, 137927, Control_c, 0, 64, 0
1, 137986, Control_c, 0, 64, 63
1, 138001, Control_c, 0, 64, 71
1, 138016, Control_c, 0, 64, 80
1, 138029, Note_off_c, 0, 75, 62
1, 138031, Control_c, 0, 64, 87
1, 138046, Control_c, 0, 64, 92
1, 138047, Note_off_c, 0, 53, 64
1, 138050, Note_off_c, 0, 56, 57
1, 138061, Control_c, 0, 64, 95
1, 138075, Note_on_c, 0, 77, 96
1, 138076, Control_c, 0, 64, 98
1, 138091, Control_c, 0, 64, 101
1, 138106, Control_c, 0, 64, 105
1, 138121, Control_c, 0, 64, 108
1, 138127, Note_off_c, 0, 77, 58
1, 138136, Control_c, 0, 64, 111
1, 138150, Control_c, 0, 64, 114
1, 138165, Control_c, 0, 64, 116
1, 138180, Control_c, 0, 64, 117
1, 138195, Control_c, 0, 64, 118
1, 138299, Control_c, 0, 64, 117
1, 138307, Note_on_c, 0, 55, 82
1, 138310, Note_on_c, 0, 53, 76
1, 138314, Control_c, 0, 64, 114
1, 138329, Control_c, 0, 64, 107
1, 138343, Control_c, 0, 64, 98
1, 138348, Note_on_c, 0, 71, 90
1, 138349, Note_on_c, 0, 62, 94
1, 138358, Control_c, 0, 64, 87
1, 138373, Control_c, 0, 64, 74
1, 138387, Control_c, 0, 64, 0
1, 138602, Control_c, 0, 64, 34
1, 138617, Control_c, 0, 64, 58
1, 138632, Control_c, 0, 64, 64
1, 138645, Note_on_c, 0, 72, 87
1, 138647, Control_c, 0, 64, 68
1, 138662, Control_c, 0, 64, 73
1, 138676, Control_c, 0, 64, 78
1, 138679, Note_off_c, 0, 71, 58
1, 138682, Note_off_c, 0, 62, 59
1, 138690, Control_c, 0, 64, 81
1, 138705, Control_c, 0, 64, 83
1, 138720, Control_c, 0, 64, 84
1, 138735, Control_c, 0, 64, 85
1, 138743, Note_off_c, 0, 72, 60
1, 138749, Control_c, 0, 64, 85
1, 138764, Control_c, 0, 64, 87
1, 138779, Control_c, 0, 64, 88
1, 138789, Note_on_c, 0, 74, 86
1, 138794, Control_c, 0, 64, 89
1, 138809, Control_c, 0, 64, 90
1, 138812, Note_off_c, 0, 53, 37
1, 138824, Control_c, 0, 64, 90
1, 138839, Control_c, 0, 64, 91
1, 138884, Control_c, 0, 64, 91
1, 138911, Note_off_c, 0, 55, 58
1, 138928, Control_c, 0, 64, 91
1, 138937, Note_on_c, 0, 51, 81
1, 138943, Control_c, 0, 64, 90
1, 138958, Control_c, 0, 64, 88
1, 138961, Note_on_c, 0, 72, 88
1, 138962, Note_on_c, 0, 67, 86
1, 138973, Control_c, 0, 64, 82
1, 138988, Control_c, 0, 64, 71
1, 138994, Note_off_c, 0, 74, 62
1, 139003, Control_c, 0, 64, 0
1, 139087, Note_off_c, 0, 67, 50
1, 139105, Note_on_c, 0, 70, 86
1, 139136, Control_c, 0, 64, 55
1, 139137, Note_off_c, 0, 72, 64
1, 139151, Control_c, 0, 64, 68
1, 139165, Control_c, 0, 64, 78
1, 139180, Control_c, 0, 64, 88
1, 139195, Control_c, 0, 64, 94
1, 139209, Control_c, 0, 64, 98
1, 139224, Control_c, 0, 64, 99
1, 139227, Note_off_c, 0, 51, 62
1, 139247, Control_c, 0, 64, 100
1, 139259, Note_on_c, 0, 68, 92
1, 139290, Note_off_c, 0, 70, 60
1, 139342, Note_off_c, 0, 68, 62
1, 139404, Note_on_c, 0, 67, 92
1, 139517, Note_on_c, 0, 56, 85
1, 139572, Control_c, 0, 64, 99
1, 139602, Control_c, 0, 64, 99
1, 139617, Control_c, 0, 64, 98
1, 139631, Control_c, 0, 64, 97
1, 139634, Note_on_c, 0, 72, 99
1, 139646, Control_c, 0, 64, 95
1, 139662, Control_c, 0, 64, 91
1, 139672, Note_off_c, 0, 67, 62
1, 139677, Control_c, 0, 64, 87
1, 139692, Control_c, 0, 64, 82
1, 139701, Note_off_c, 0, 56, 67
1, 139707, Control_c, 0, 64, 75
1, 139721, Control_c, 0, 64, 66
1, 139736, Control_c, 0, 64, 0
1, 139793, Note_on_c, 0, 60, 68
1, 139941, Note_on_c, 0, 61, 79
1, 139947, Note_off_c, 0, 60, 61
1, 139995, Control_c, 0, 64, 41
1, 140010, Control_c, 0, 64, 60
1, 140025, Control_c, 0, 64, 65
1, 140040, Control_c, 0, 64, 68
1, 140055, Control_c, 0, 64, 71
1, 140070, Control_c, 0, 64, 74
1, 140085, Control_c, 0, 64, 77
1, 140091, Note_off_c, 0, 61, 61
1, 140091, Note_on_c, 0, 63, 80
1, 140100, Control_c, 0, 64, 79
1, 140114, Control_c, 0, 64, 81
1, 140129, Control_c, 0, 64, 82
1, 140144, Control_c, 0, 64, 82
1, 140183, Note_off_c, 0, 63, 60
1, 140243, Note_on_c, 0, 61, 73
1, 140255, Note_on_c, 0, 65, 91
1, 140362, Note_off_c, 0, 61, 59
1, 140397, Note_on_c, 0, 60, 73
1, 140403, Note_off_c, 0, 65, 59
1, 140451, Note_off_c, 0, 72, 58
1, 140525, Note_off_c, 0, 60, 57
1, 140553, Note_on_c, 0, 58, 76
1, 140684, Note_on_c, 0, 56, 77
1, 140695, Note_off_c, 0, 58, 43
1, 140774, Control_c, 0, 64, 82
1, 140818, Control_c, 0, 64, 81
1, 140830, Note_off_c, 0, 56, 61
1, 140833, Control_c, 0, 64, 81
1, 140848, Control_c, 0, 64, 80
1, 140851, Note_on_c, 0, 55, 80
1, 140856, Note_on_c, 0, 70, 98
1, 140863, Control_c, 0, 64, 78
1, 140878, Control_c, 0, 64, 74
1, 140892, Control_c, 0, 64, 67
1, 140907, Control_c, 0, 64, 55
1, 140922, Control_c, 0, 64, 0
1, 141003, Note_off_c, 0, 55, 60
1, 141004, Note_on_c, 0, 52, 84
1, 141170, Note_on_c, 0, 53, 84
1, 141171, Note_on_c, 0, 74, 93
1, 141175, Note_off_c, 0, 52, 64
1, 141313, Note_off_c, 0, 53, 65
1, 141320, Note_on_c, 0, 55, 81
1, 141488, Note_on_c, 0, 53, 87
1, 141490, Note_off_c, 0, 55, 60
1, 141495, Note_on_c, 0, 76, 87
1, 141521, Note_off_c, 0, 74, 61
1, 141658, Note_on_c, 0, 52, 78
1, 141687, Note_off_c, 0, 53, 64
1, 141826, Note_on_c, 0, 50, 81
1, 141832, Note_off_c, 0, 52, 64
1, 141980, Note_on_c, 0, 48, 81
1, 141988, Note_off_c, 0, 50, 58
1, 142169, Note_on_c, 0, 53, 72
1, 142186, Note_on_c, 0, 77, 83
1, 142213, Note_off_c, 0, 76, 58
1, 142228, Note_off_c, 0, 48, 56
1, 142344, Note_off_c, 0, 70, 50
1, 142381, Note_on_c, 0, 72, 79
1, 142420, Note_off_c, 0, 77, 59
1, 142532, Note_on_c, 0, 73, 84
1, 142534, Note_on_c, 0, 68, 81
1, 142542, Note_off_c, 0, 72, 60
1, 142671, Note_on_c, 0, 75, 86
1, 142671, Note_off_c, 0, 73, 36
1, 142807, Note_off_c, 0, 75, 49
1, 142821, Note_on_c, 0, 73, 80
1, 142833, Note_off_c, 0, 68, 0
1, 142897, Poly_aftertouch_c, 0, 68, 0
1, 142963, Note_off_c, 0, 53, 64
1, 142988, Note_on_c, 0, 72, 73
1, 143001, Note_on_c, 0, 56, 55
1, 143129, Note_off_c, 0, 72, 62
1, 143137, Note_off_c, 0, 56, 63
1, 143142, Note_on_c, 0, 70, 71
1, 143155, Note_on_c, 0, 58, 67
1, 143261, Note_off_c, 0, 70, 61
1, 143289, Note_off_c, 0, 58, 62
1, 143304, Note_on_c, 0, 68, 76
1, 143307, Note_on_c, 0, 60, 62
1, 143418, Note_off_c, 0, 68, 63
1, 143439, Note_off_c, 0, 60, 58
1, 143461, Note_on_c, 0, 58, 65
1, 143461, Note_on_c, 0, 67, 71
1, 143606, Note_off_c, 0, 58, 57
1, 143618, Note_on_c, 0, 56, 66
1, 143736, Note_off_c, 0, 56, 58
1, 143781, Note_on_c, 0, 55, 63
1, 143922, Note_off_c, 0, 55, 49
1, 143933, Note_on_c, 0, 53, 64
1, 144058, Note_off_c, 0, 53, 60
1, 144079, Note_off_c, 0, 73, 55
1, 144085, Note_on_c, 0, 55, 40
1, 144087, Note_on_c, 0, 51, 60
1, 144098, Note_on_c, 0, 72, 79
1, 144110, Control_c, 0, 64, 50
1, 144115, Note_off_c, 0, 67, 41
1, 144125, Control_c, 0, 64, 63
1, 144139, Control_c, 0, 64, 68
1, 144154, Control_c, 0, 64, 72
1, 144169, Control_c, 0, 64, 77
1, 144184, Control_c, 0, 64, 81
1, 144199, Control_c, 0, 64, 83
1, 144213, Control_c, 0, 64, 85
1, 144228, Note_off_c, 0, 51, 59
1, 144228, Control_c, 0, 64, 86
1, 144243, Control_c, 0, 64, 88
1, 144248, Note_on_c, 0, 48, 72
1, 144251, Note_off_c, 0, 55, 50
1, 144258, Control_c, 0, 64, 89
1, 144273, Control_c, 0, 64, 90
1, 144288, Control_c, 0, 64, 91
1, 144312, Note_off_c, 0, 72, 63
1, 144376, Note_off_c, 0, 48, 60
1, 144404, Note_on_c, 0, 49, 71
1, 144557, Note_on_c, 0, 51, 77
1, 144572, Note_off_c, 0, 49, 53
1, 144696, Control_c, 0, 64, 90
1, 144705, Note_off_c, 0, 51, 58
1, 144711, Control_c, 0, 64, 88
1, 144726, Control_c, 0, 64, 84
1, 144726, Note_on_c, 0, 49, 71
1, 144731, Note_on_c, 0, 77, 105
1, 144741, Control_c, 0, 64, 79
1, 144755, Control_c, 0, 64, 71
1, 144770, Control_c, 0, 64, 57
1, 144785, Control_c, 0, 64, 0
1, 144842, Poly_aftertouch_c, 0, 80, 0
1, 144897, Note_on_c, 0, 48, 71
1, 144905, Note_on_c, 0, 80, 93
1, 145039, Note_off_c, 0, 48, 59
1, 145043, Note_on_c, 0, 46, 73
1, 145048, Note_on_c, 0, 82, 90
1, 145051, Note_off_c, 0, 80, 69
1, 145107, Note_off_c, 0, 49, 17
1, 145186, Note_off_c, 0, 46, 63
1, 145190, Note_on_c, 0, 44, 73
1, 145191, Note_on_c, 0, 84, 87
1, 145211, Note_off_c, 0, 82, 57
1, 145327, Note_off_c, 0, 84, 57
1, 145340, Note_off_c, 0, 44, 60
1, 145356, Note_on_c, 0, 49, 83
1, 145358, Note_on_c, 0, 82, 89
1, 145371, Control_c, 0, 64, 47
1, 145385, Control_c, 0, 64, 66
1, 145400, Control_c, 0, 64, 72
1, 145415, Control_c, 0, 64, 79
1, 145429, Control_c, 0, 64, 85
1, 145444, Control_c, 0, 64, 89
1, 145445, Note_off_c, 0, 77, 49
1, 145459, Control_c, 0, 64, 91
1, 145474, Control_c, 0, 64, 94
1, 145489, Control_c, 0, 64, 96
1, 145504, Control_c, 0, 64, 98
1, 145513, Note_on_c, 0, 80, 89
1, 145515, Note_off_c, 0, 49, 57
1, 145519, Control_c, 0, 64, 100
1, 145533, Control_c, 0, 64, 102
1, 145548, Control_c, 0, 64, 103
1, 145552, Note_off_c, 0, 82, 63
1, 145563, Control_c, 0, 64, 104
1, 145577, Control_c, 0, 64, 105
1, 145592, Control_c, 0, 64, 105
1, 145637, Control_c, 0, 64, 106
1, 145670, Note_on_c, 0, 49, 95
1, 145671, Note_on_c, 0, 79, 91
1, 145703, Note_off_c, 0, 80, 62
1, 145749, Note_off_c, 0, 79, 61
1, 145808, Note_on_c, 0, 77, 79
1, 145831, Note_off_c, 0, 49, 49
1, 145947, Note_off_c, 0, 77, 60
1, 145963, Control_c, 0, 64, 104
1, 145981, Note_on_c, 0, 49, 92
1, 145984, Control_c, 0, 64, 101
1, 145988, Note_on_c, 0, 80, 91
1, 145990, Note_on_c, 0, 75, 84
1, 145999, Control_c, 0, 64, 94
1, 146008, Note_on_c, 0, 77, 25
1, 146014, Control_c, 0, 64, 84
1, 146029, Control_c, 0, 64, 71
1, 146042, Note_off_c, 0, 77, 38
1, 146044, Control_c, 0, 64, 0
1, 146103, Note_off_c, 0, 80, 60
1, 146141, Note_on_c, 0, 79, 88
1, 146190, Note_off_c, 0, 75, 60
1, 146249, Note_off_c, 0, 79, 62
1, 146291, Note_on_c, 0, 77, 88
1, 146312, Control_c, 0, 64, 29
1, 146327, Control_c, 0, 64, 59
1, 146342, Control_c, 0, 64, 64
1, 146356, Control_c, 0, 64, 67
1, 146371, Control_c, 0, 64, 69
1, 146386, Control_c, 0, 64, 71
1, 146390, Note_off_c, 0, 77, 51
1, 146401, Control_c, 0, 64, 74
1, 146416, Control_c, 0, 64, 76
1, 146431, Note_on_c, 0, 75, 84
1, 146431, Control_c, 0, 64, 79
1, 146446, Control_c, 0, 64, 80
1, 146461, Control_c, 0, 64, 81
1, 146475, Control_c, 0, 64, 81
1, 146490, Control_c, 0, 64, 82
1, 146505, Control_c, 0, 64, 83
1, 146520, Control_c, 0, 64, 84
1, 146534, Control_c, 0, 64, 84
1, 146577, Note_off_c, 0, 49, 52
1, 146598, Note_on_c, 0, 48, 73
1, 146598, Note_on_c, 0, 80, 96
1, 146608, Control_c, 0, 64, 81
1, 146623, Control_c, 0, 64, 72
1, 146638, Control_c, 0, 64, 51
1, 146643, Note_off_c, 0, 75, 27
1, 146653, Control_c, 0, 64, 0
1, 146766, Note_on_c, 0, 75, 66
1, 146912, Note_on_c, 0, 77, 71
1, 146923, Note_off_c, 0, 75, 59
1, 147051, Note_on_c, 0, 78, 72
1, 147087, Note_off_c, 0, 77, 60
1, 147152, Note_off_c, 0, 78, 62
1, 147203, Note_off_c, 0, 48, 61
1, 147214, Note_on_c, 0, 49, 58
1, 147221, Note_on_c, 0, 77, 73
1, 147239, Control_c, 0, 64, 21
1, 147254, Control_c, 0, 64, 57
1, 147269, Control_c, 0, 64, 64
1, 147283, Control_c, 0, 64, 68
1, 147298, Control_c, 0, 64, 73
1, 147313, Control_c, 0, 64, 78
1, 147328, Control_c, 0, 64, 82
1, 147343, Control_c, 0, 64, 84
1, 147357, Control_c, 0, 64, 86
1, 147370, Note_on_c, 0, 75, 72
1, 147372, Control_c, 0, 64, 87
1, 147387, Control_c, 0, 64, 90
1, 147402, Control_c, 0, 64, 92
1, 147417, Control_c, 0, 64, 93
1, 147431, Control_c, 0, 64, 95
1, 147446, Control_c, 0, 64, 96
1, 147453, Note_off_c, 0, 49, 55
1, 147461, Control_c, 0, 64, 96
1, 147483, Control_c, 0, 64, 97
1, 147513, Control_c, 0, 64, 97
1, 147525, Note_on_c, 0, 73, 71
1, 147543, Control_c, 0, 64, 98
1, 147553, Note_off_c, 0, 77, 25
1, 147580, Note_off_c, 0, 80, 57
1, 147617, Control_c, 0, 64, 98
1, 147625, Note_off_c, 0, 75, 39
1, 147644, Note_off_c, 0, 73, 58
1, 147668, Note_on_c, 0, 72, 69
1, 147795, Control_c, 0, 64, 97
1, 147810, Control_c, 0, 64, 93
1, 147825, Control_c, 0, 64, 84
1, 147833, Note_on_c, 0, 51, 64
1, 147837, Note_on_c, 0, 79, 80
1, 147838, Note_on_c, 0, 70, 70
1, 147840, Control_c, 0, 64, 71
1, 147854, Control_c, 0, 64, 20
1, 147866, Note_off_c, 0, 72, 31
1, 147869, Control_c, 0, 64, 0
1, 147914, Control_c, 0, 64, 28
1, 147928, Control_c, 0, 64, 63
1, 147943, Control_c, 0, 64, 69
1, 147958, Control_c, 0, 64, 75
1, 147973, Control_c, 0, 64, 81
1, 147987, Note_on_c, 0, 58, 78
1, 147987, Control_c, 0, 64, 85
1, 147999, Note_off_c, 0, 51, 61
1, 148002, Control_c, 0, 64, 88
1, 148013, Note_off_c, 0, 79, 58
1, 148017, Control_c, 0, 64, 90
1, 148032, Control_c, 0, 64, 92
1, 148036, Note_off_c, 0, 70, 57
1, 148047, Control_c, 0, 64, 95
1, 148061, Control_c, 0, 64, 98
1, 148076, Control_c, 0, 64, 101
1, 148091, Control_c, 0, 64, 104
1, 148106, Control_c, 0, 64, 106
1, 148121, Control_c, 0, 64, 107
1, 148130, Note_off_c, 0, 58, 64
1, 148136, Control_c, 0, 64, 108
1, 148142, Note_on_c, 0, 60, 84
1, 148151, Control_c, 0, 64, 109
1, 148166, Control_c, 0, 64, 110
1, 148180, Control_c, 0, 64, 111
1, 148195, Control_c, 0, 64, 112
1, 148210, Control_c, 0, 64, 113
1, 148232, Control_c, 0, 64, 113
1, 148247, Control_c, 0, 64, 114
1, 148261, Control_c, 0, 64, 115
1, 148265, Note_off_c, 0, 60, 51
1, 148276, Control_c, 0, 64, 115
1, 148290, Note_on_c, 0, 61, 84
1, 148321, Control_c, 0, 64, 116
1, 148336, Control_c, 0, 64, 116
1, 148395, Note_off_c, 0, 61, 61
1, 148395, Control_c, 0, 64, 115
1, 148410, Control_c, 0, 64, 112
1, 148425, Control_c, 0, 64, 105
1, 148440, Control_c, 0, 64, 89
1, 148443, Note_on_c, 0, 60, 79
1, 148443, Note_on_c, 0, 80, 93
1, 148445, Note_on_c, 0, 56, 79
1, 148455, Control_c, 0, 64, 69
1, 148470, Control_c, 0, 64, 0
1, 148544, Control_c, 0, 64, 32
1, 148559, Control_c, 0, 64, 64
1, 148574, Control_c, 0, 64, 71
1, 148589, Control_c, 0, 64, 81
1, 148592, Note_on_c, 0, 70, 89
1, 148603, Control_c, 0, 64, 91
1, 148618, Control_c, 0, 64, 99
1, 148623, Note_off_c, 0, 80, 60
1, 148633, Control_c, 0, 64, 106
1, 148648, Control_c, 0, 64, 109
1, 148663, Control_c, 0, 64, 111
1, 148677, Control_c, 0, 64, 114
1, 148692, Control_c, 0, 64, 118
1, 148707, Control_c, 0, 64, 122
1, 148721, Control_c, 0, 64, 127
1, 148742, Note_on_c, 0, 72, 88
1, 148742, Note_on_c, 0, 75, 87
1, 148752, Note_off_c, 0, 60, 54
1, 148770, Note_off_c, 0, 70, 60
1, 148794, Note_off_c, 0, 56, 55
1, 148828, Note_off_c, 0, 72, 60
1, 148838, Note_off_c, 0, 75, 60
1, 148879, Note_on_c, 0, 73, 86
1, 148980, Note_off_c, 0, 73, 59
1, 149018, Note_on_c, 0, 53, 80
1, 149084, Control_c, 0, 64, 108
1, 149097, Note_on_c, 0, 80, 97
1, 149099, Control_c, 0, 64, 88
1, 149102, Note_on_c, 0, 72, 96
1, 149114, Control_c, 0, 64, 61
1, 149129, Control_c, 0, 64, 0
1, 149188, Control_c, 0, 64, 49
1, 149203, Control_c, 0, 64, 65
1, 149206, Note_off_c, 0, 53, 65
1, 149218, Control_c, 0, 64, 72
1, 149233, Control_c, 0, 64, 81
1, 149246, Note_on_c, 0, 70, 85
1, 149248, Control_c, 0, 64, 91
1, 149263, Control_c, 0, 64, 98
1, 149278, Control_c, 0, 64, 103
1, 149293, Control_c, 0, 64, 105
1, 149308, Control_c, 0, 64, 108
1, 149322, Control_c, 0, 64, 109
1, 149337, Control_c, 0, 64, 111
1, 149352, Control_c, 0, 64, 112
1, 149382, Control_c, 0, 64, 113
1, 149399, Note_on_c, 0, 68, 88
1, 149455, Note_off_c, 0, 68, 61
1, 149534, Note_on_c, 0, 67, 76
1, 149614, Note_off_c, 0, 67, 55
1, 149648, Control_c, 0, 64, 107
1, 149663, Control_c, 0, 64, 93
1, 149678, Control_c, 0, 64, 68
1, 149693, Control_c, 0, 64, 0
1, 149695, Note_on_c, 0, 58, 65
1, 149698, Note_on_c, 0, 65, 79
1, 149759, Control_c, 0, 64, 63
1, 149774, Control_c, 0, 64, 71
1, 149789, Control_c, 0, 64, 82
1, 149804, Control_c, 0, 64, 91
1, 149806, Note_off_c, 0, 72, 22
1, 149817, Note_off_c, 0, 70, 52
1, 149819, Control_c, 0, 64, 96
1, 149826, Note_off_c, 0, 80, 56
1, 149833, Control_c, 0, 64, 100
1, 149847, Note_on_c, 0, 62, 78
1, 149848, Control_c, 0, 64, 102
1, 149856, Note_off_c, 0, 58, 58
1, 149859, Note_off_c, 0, 65, 61
1, 149863, Control_c, 0, 64, 104
1, 149878, Control_c, 0, 64, 107
1, 149893, Control_c, 0, 64, 109
1, 149907, Control_c, 0, 64, 112
1, 149922, Control_c, 0, 64, 114
1, 149937, Control_c, 0, 64, 116
1, 149951, Control_c, 0, 64, 116
1, 149966, Control_c, 0, 64, 117
1, 149986, Note_on_c, 0, 63, 80
1, 149987, Note_off_c, 0, 62, 52
1, 149995, Note_on_c, 0, 67, 86
1, 149996, Control_c, 0, 64, 117
1, 150011, Control_c, 0, 64, 118
1, 150026, Control_c, 0, 64, 118
1, 150071, Note_off_c, 0, 67, 60
1, 150086, Control_c, 0, 64, 119
1, 150124, Note_on_c, 0, 65, 84
1, 150139, Note_on_c, 0, 68, 90
1, 150151, Note_off_c, 0, 63, 32
1, 150175, Control_c, 0, 64, 119
1, 150199, Note_off_c, 0, 68, 61
1, 150279, Control_c, 0, 64, 115
1, 150294, Control_c, 0, 64, 101
1, 150299, Note_on_c, 0, 63, 82
1, 150308, Note_on_c, 0, 79, 93
1, 150309, Control_c, 0, 64, 81
1, 150310, Note_on_c, 0, 70, 95
1, 150323, Control_c, 0, 64, 40
1, 150326, Note_off_c, 0, 65, 64
1, 150338, Control_c, 0, 64, 0
1, 150382, Control_c, 0, 64, 51
1, 150397, Control_c, 0, 64, 66
1, 150412, Control_c, 0, 64, 75
1, 150427, Control_c, 0, 64, 88
1, 150441, Control_c, 0, 64, 101
1, 150442, Note_off_c, 0, 70, 59
1, 150456, Control_c, 0, 64, 111
1, 150475, Note_on_c, 0, 68, 81
1, 150479, Control_c, 0, 64, 115
1, 150494, Control_c, 0, 64, 117
1, 150509, Control_c, 0, 64, 118
1, 150523, Control_c, 0, 64, 120
1, 150538, Control_c, 0, 64, 122
1, 150553, Control_c, 0, 64, 123
1, 150568, Control_c, 0, 64, 125
1, 150576, Note_off_c, 0, 68, 62
1, 150576, Note_off_c, 0, 79, 60
1, 150597, Control_c, 0, 64, 125
1, 150613, Note_off_c, 0, 63, 64
1, 150630, Note_on_c, 0, 67, 80
1, 150761, Note_off_c, 0, 67, 56
1, 150774, Control_c, 0, 64, 125
1, 150781, Note_on_c, 0, 65, 81
1, 150923, Control_c, 0, 64, 123
1, 150938, Control_c, 0, 64, 115
1, 150953, Control_c, 0, 64, 102
1, 150954, Note_on_c, 0, 84, 107
1, 150960, Note_on_c, 0, 63, 77
1, 150968, Control_c, 0, 64, 87
1, 150978, Note_off_c, 0, 65, 61
1, 150983, Control_c, 0, 64, 71
1, 150998, Control_c, 0, 64, 0
1, 151072, Control_c, 0, 64, 43
1, 151087, Control_c, 0, 64, 58
1, 151098, Note_off_c, 0, 63, 59
1, 151102, Control_c, 0, 64, 62
1, 151107, Note_on_c, 0, 60, 73
1, 151116, Control_c, 0, 64, 65
1, 151131, Control_c, 0, 64, 68
1, 151146, Control_c, 0, 64, 71
1, 151161, Control_c, 0, 64, 74
1, 151176, Control_c, 0, 64, 76
1, 151190, Control_c, 0, 64, 77
1, 151256, Note_off_c, 0, 60, 59
1, 151257, Control_c, 0, 64, 78
1, 151261, Note_on_c, 0, 65, 75
1, 151267, Note_on_c, 0, 61, 69
1, 151344, Note_off_c, 0, 65, 59
1, 151346, Control_c, 0, 64, 78
1, 151391, Control_c, 0, 64, 79
1, 151399, Note_on_c, 0, 63, 76
1, 151400, Note_on_c, 0, 67, 66
1, 151405, Control_c, 0, 64, 80
1, 151420, Control_c, 0, 64, 81
1, 151430, Note_off_c, 0, 67, 67
1, 151435, Control_c, 0, 64, 81
1, 151450, Control_c, 0, 64, 82
1, 151456, Note_off_c, 0, 61, 23
1, 151460, Note_off_c, 0, 63, 64
1, 151479, Control_c, 0, 64, 82
1, 151523, Control_c, 0, 64, 82
1, 151538, Control_c, 0, 64, 76
1, 151553, Control_c, 0, 64, 63
1, 151557, Note_on_c, 0, 61, 76
1, 151558, Note_on_c, 0, 68, 84
1, 151568, Control_c, 0, 64, 0
1, 151642, Control_c, 0, 64, 60
1, 151658, Control_c, 0, 64, 67
1, 151673, Control_c, 0, 64, 71
1, 151688, Control_c, 0, 64, 77
1, 151702, Control_c, 0, 64, 82
1, 151708, Note_on_c, 0, 60, 71
1, 151709, Note_off_c, 0, 61, 56
1, 151715, Note_off_c, 0, 68, 59
1, 151717, Control_c, 0, 64, 83
1, 151746, Control_c, 0, 64, 84
1, 151761, Control_c, 0, 64, 84
1, 151776, Control_c, 0, 64, 85
1, 151791, Control_c, 0, 64, 86
1, 151806, Control_c, 0, 64, 86
1, 151820, Control_c, 0, 64, 87
1, 151841, Note_off_c, 0, 60, 41
1, 151849, Note_on_c, 0, 68, 76
1, 151850, Control_c, 0, 64, 87
1, 151854, Note_on_c, 0, 58, 71
1, 152013, Note_on_c, 0, 56, 55
1, 152037, Note_off_c, 0, 56, 63
1, 152041, Note_off_c, 0, 58, 57
1, 152079, Note_off_c, 0, 68, 60
1, 152179, Note_on_c, 0, 63, 67
1, 152190, Note_off_c, 0, 84, 57
1, 152192, Note_on_c, 0, 68, 66
1, 152232, Note_on_c, 0, 82, 92
1, 152256, Control_c, 0, 64, 86
1, 152271, Control_c, 0, 64, 84
1, 152286, Control_c, 0, 64, 79
1, 152300, Control_c, 0, 64, 73
1, 152315, Control_c, 0, 64, 64
1, 152330, Control_c, 0, 64, 0
1, 152372, Note_off_c, 0, 68, 58
1, 152378, Note_on_c, 0, 67, 66
1, 152542, Note_off_c, 0, 67, 61
1, 152548, Note_on_c, 0, 68, 70
1, 152676, Note_off_c, 0, 68, 57
1, 152692, Note_on_c, 0, 70, 68
1, 152795, Note_off_c, 0, 70, 61
1, 152889, Note_on_c, 0, 72, 62
1, 152983, Note_off_c, 0, 82, 58
1, 153048, Note_on_c, 0, 82, 63
1, 153204, Note_on_c, 0, 80, 73
1, 153238, Note_off_c, 0, 82, 49
1, 153358, Note_on_c, 0, 79, 78
1, 153430, Note_off_c, 0, 80, 58
1, 153483, Note_off_c, 0, 63, 57
1, 153540, Note_on_c, 0, 62, 49
1, 153544, Note_on_c, 0, 77, 70
1, 153623, Note_off_c, 0, 79, 53
1, 153658, Note_off_c, 0, 72, 31
1, 153868, Note_on_c, 0, 79, 66
1, 153892, Note_off_c, 0, 77, 51
1, 154015, Note_on_c, 0, 80, 72
1, 154022, Note_off_c, 0, 79, 56
1, 154181, Note_on_c, 0, 79, 67
1, 154181, Note_on_c, 0, 70, 58
1, 154191, Note_off_c, 0, 80, 59
1, 154295, Note_off_c, 0, 79, 61
1, 154342, Note_on_c, 0, 77, 66
1, 154449, Note_off_c, 0, 77, 56
1, 154488, Note_on_c, 0, 75, 63
1, 154573, Note_off_c, 0, 62, 61
1, 154586, Note_off_c, 0, 75, 59
1, 154630, Note_on_c, 0, 74, 62
1, 154795, Note_off_c, 0, 74, 61
1, 154796, Note_on_c, 0, 75, 64
1, 154869, Note_off_c, 0, 70, 57
1, 154948, Note_on_c, 0, 60, 52
1, 155057, Note_off_c, 0, 60, 30
1, 155095, Note_on_c, 0, 77, 61
1, 155105, Note_on_c, 0, 61, 51
1, 155219, Note_off_c, 0, 61, 53
1, 155239, Note_on_c, 0, 63, 60
1, 155251, Note_on_c, 0, 79, 66
1, 155258, Note_off_c, 0, 77, 55
1, 155392, Note_off_c, 0, 63, 62
1, 155409, Note_on_c, 0, 61, 58
1, 155415, Note_on_c, 0, 80, 71
1, 155419, Note_off_c, 0, 79, 61
1, 155527, Note_off_c, 0, 61, 62
1, 155559, Note_on_c, 0, 60, 59
1, 155564, Note_off_c, 0, 80, 55
1, 155701, Note_off_c, 0, 60, 53
1, 155728, Note_on_c, 0, 58, 59
1, 155730, Note_on_c, 0, 80, 52
1, 155865, Note_off_c, 0, 58, 57
1, 155880, Note_on_c, 0, 56, 59
1, 155951, Note_off_c, 0, 56, 63
1, 155956, Note_off_c, 0, 80, 40
1, 156045, Note_on_c, 0, 74, 48
1, 156050, Note_on_c, 0, 58, 38
1, 156055, Note_off_c, 0, 75, 54
1, 156079, Note_on_c, 0, 46, 40
1, 156208, Note_on_c, 0, 79, 58
1, 156362, Note_on_c, 0, 80, 62
1, 156368, Note_off_c, 0, 79, 53
1, 156500, Note_off_c, 0, 74, 30
1, 156519, Note_on_c, 0, 82, 52
1, 156535, Note_off_c, 0, 80, 55
1, 156668, Note_on_c, 0, 80, 56
1, 156679, Note_on_c, 0, 51, 29
1, 156691, Note_on_c, 0, 75, 45
1, 156700, Note_off_c, 0, 82, 37
1, 156736, Note_off_c, 0, 46, 38
1, 156822, Note_off_c, 0, 75, 34
1, 156828, Note_on_c, 0, 79, 59
1, 156836, Note_off_c, 0, 58, 40
1, 156912, Note_off_c, 0, 80, 36
1, 156913, Control_c, 0, 64, 21
1, 156928, Control_c, 0, 64, 41
1, 156942, Control_c, 0, 64, 52
1, 156957, Control_c, 0, 64, 61
1, 156972, Control_c, 0, 64, 64
1, 156987, Control_c, 0, 64, 65
1, 156998, Note_on_c, 0, 77, 61
1, 156998, Note_off_c, 0, 79, 56
1, 157002, Control_c, 0, 64, 67
1, 157016, Control_c, 0, 64, 68
1, 157031, Control_c, 0, 64, 70
1, 157046, Control_c, 0, 64, 72
1, 157061, Control_c, 0, 64, 73
1, 157076, Control_c, 0, 64, 74
1, 157091, Control_c, 0, 64, 75
1, 157106, Control_c, 0, 64, 75
1, 157112, Note_off_c, 0, 77, 54
1, 157120, Control_c, 0, 64, 76
1, 157135, Control_c, 0, 64, 76
1, 157150, Control_c, 0, 64, 77
1, 157151, Note_on_c, 0, 75, 60
1, 157180, Control_c, 0, 64, 77
1, 157257, Note_off_c, 0, 75, 63
1, 157336, Control_c, 0, 64, 77
1, 157347, Note_on_c, 0, 56, 29
1, 157365, Control_c, 0, 64, 76
1, 157380, Control_c, 0, 64, 75
1, 157395, Control_c, 0, 64, 74
1, 157410, Control_c, 0, 64, 73
1, 157412, Note_on_c, 0, 72, 42
1, 157414, Note_on_c, 0, 77, 43
1, 157425, Control_c, 0, 64, 70
1, 157439, Control_c, 0, 64, 66
1, 157454, Control_c, 0, 64, 61
1, 157469, Control_c, 0, 64, 46
1, 157484, Control_c, 0, 64, 0
1, 157738, Note_on_c, 0, 79, 51
1, 157761, Note_off_c, 0, 77, 36
1, 157810, Control_c, 0, 67, 20
1, 157825, Control_c, 0, 67, 36
1, 157839, Control_c, 0, 67, 58
1, 157854, Control_c, 0, 67, 77
1, 157869, Control_c, 0, 67, 95
1, 157884, Control_c, 0, 67, 112
1, 157891, Note_on_c, 0, 80, 64
1, 157898, Control_c, 0, 67, 126
1, 157899, Note_off_c, 0, 79, 56
1, 157913, Control_c, 0, 67, 127
1, 158015, Note_off_c, 0, 51, 41
1, 158070, Note_on_c, 0, 82, 67
1, 158080, Note_off_c, 0, 72, 40
1, 158083, Note_on_c, 0, 50, 17
1, 158090, Note_off_c, 0, 80, 57
1, 158185, Note_off_c, 0, 56, 36
1, 158231, Note_on_c, 0, 53, 48
1, 158233, Note_on_c, 0, 80, 70
1, 158280, Note_off_c, 0, 82, 37
1, 158355, Note_off_c, 0, 53, 65
1, 158380, Note_on_c, 0, 55, 55
1, 158385, Note_on_c, 0, 79, 72
1, 158390, Note_off_c, 0, 80, 58
1, 158441, Control_c, 0, 64, 34
1, 158456, Control_c, 0, 64, 50
1, 158470, Control_c, 0, 64, 58
1, 158485, Control_c, 0, 64, 63
1, 158489, Note_off_c, 0, 79, 60
1, 158496, Note_off_c, 0, 50, 51
1, 158500, Note_off_c, 0, 55, 64
1, 158500, Control_c, 0, 64, 65
1, 158514, Control_c, 0, 64, 68
1, 158523, Note_on_c, 0, 77, 67
1, 158529, Control_c, 0, 64, 71
1, 158537, Note_on_c, 0, 56, 53
1, 158544, Control_c, 0, 64, 74
1, 158554, Note_off_c, 0, 77, 62
1, 158559, Control_c, 0, 64, 76
1, 158574, Control_c, 0, 64, 77
1, 158618, Control_c, 0, 64, 76
1, 158628, Note_off_c, 0, 56, 43
1, 158633, Control_c, 0, 64, 75
1, 158648, Control_c, 0, 64, 74
1, 158662, Control_c, 0, 64, 70
1, 158677, Control_c, 0, 64, 65
1, 158692, Note_on_c, 0, 58, 46
1, 158692, Control_c, 0, 64, 58
1, 158698, Note_on_c, 0, 75, 62
1, 158714, Control_c, 0, 64, 42
1, 158721, Note_on_c, 0, 55, 28
1, 158729, Control_c, 0, 64, 18
1, 158744, Control_c, 0, 64, 0
1, 158864, Note_off_c, 0, 75, 51
1, 158866, Note_on_c, 0, 74, 61
1, 159011, Note_off_c, 0, 74, 63
1, 159028, Note_on_c, 0, 72, 60
1, 159164, Note_off_c, 0, 72, 63
1, 159184, Note_on_c, 0, 70, 57
1, 159326, Note_off_c, 0, 70, 60
1, 159341, Note_off_c, 0, 58, 61
1, 159343, Note_on_c, 0, 75, 54
1, 159398, Control_c, 0, 64, 37
1, 159412, Control_c, 0, 64, 46
1, 159427, Control_c, 0, 64, 51
1, 159442, Control_c, 0, 64, 54
1, 159463, Control_c, 0, 64, 56
1, 159478, Control_c, 0, 64, 57
1, 159484, Note_off_c, 0, 75, 58
1, 159490, Note_on_c, 0, 67, 46
1, 159493, Control_c, 0, 64, 58
1, 159495, Note_on_c, 0, 58, 43
1, 159538, Control_c, 0, 64, 57
1, 159598, Control_c, 0, 64, 57
1, 159612, Control_c, 0, 64, 56
1, 159627, Control_c, 0, 64, 54
1, 159632, Note_off_c, 0, 58, 62
1, 159642, Control_c, 0, 64, 52
1, 159653, Note_off_c, 0, 67, 49
1, 159657, Control_c, 0, 64, 48
1, 159666, Note_on_c, 0, 60, 47
1, 159666, Note_on_c, 0, 75, 48
1, 159668, Note_on_c, 0, 68, 56
1, 159672, Control_c, 0, 64, 43
1, 159687, Control_c, 0, 64, 36
1, 159702, Control_c, 0, 64, 20
1, 159716, Control_c, 0, 64, 0
1, 159785, Note_off_c, 0, 60, 52
1, 159818, Note_on_c, 0, 70, 65
1, 159818, Note_off_c, 0, 68, 56
1, 159818, Note_on_c, 0, 61, 52
1, 159856, Note_off_c, 0, 75, 59
1, 159945, Note_off_c, 0, 61, 55
1, 159974, Note_on_c, 0, 68, 66
1, 159981, Note_on_c, 0, 60, 32
1, 159981, Note_off_c, 0, 70, 58
1, 159983, Note_on_c, 0, 75, 63
1, 160094, Note_off_c, 0, 60, 57
1, 160099, Note_off_c, 0, 68, 62
1, 160126, Note_on_c, 0, 67, 66
1, 160134, Note_on_c, 0, 58, 40
1, 160239, Note_off_c, 0, 55, 33
1, 160242, Note_off_c, 0, 58, 54
1, 160256, Control_c, 0, 64, 25
1, 160271, Control_c, 0, 64, 41
1, 160283, Note_off_c, 0, 67, 59
1, 160286, Control_c, 0, 64, 52
1, 160291, Note_on_c, 0, 56, 45
1, 160295, Note_on_c, 0, 65, 61
1, 160301, Control_c, 0, 64, 59
1, 160316, Control_c, 0, 64, 62
1, 160331, Control_c, 0, 64, 64
1, 160346, Control_c, 0, 64, 66
1, 160360, Control_c, 0, 64, 69
1, 160375, Control_c, 0, 64, 72
1, 160388, Note_off_c, 0, 65, 62
1, 160390, Control_c, 0, 64, 74
1, 160405, Control_c, 0, 64, 75
1, 160409, Note_off_c, 0, 56, 53
1, 160444, Note_on_c, 0, 55, 45
1, 160448, Note_on_c, 0, 63, 65
1, 160470, Note_off_c, 0, 55, 57
1, 160523, Note_off_c, 0, 63, 62
1, 160539, Control_c, 0, 64, 75
1, 160554, Control_c, 0, 64, 74
1, 160569, Control_c, 0, 64, 73
1, 160577, Note_off_c, 0, 75, 59
1, 160583, Control_c, 0, 64, 72
1, 160598, Control_c, 0, 64, 69
1, 160608, Note_on_c, 0, 65, 69
1, 160613, Control_c, 0, 64, 65
1, 160618, Note_on_c, 0, 56, 53
1, 160628, Control_c, 0, 64, 62
1, 160643, Control_c, 0, 64, 59
1, 160657, Control_c, 0, 64, 57
1, 160687, Control_c, 0, 64, 56
1, 160701, Control_c, 0, 64, 55
1, 160716, Control_c, 0, 64, 53
1, 160731, Control_c, 0, 64, 50
1, 160746, Control_c, 0, 64, 48
1, 160761, Control_c, 0, 64, 46
1, 160773, Note_on_c, 0, 74, 68
1, 160776, Control_c, 0, 64, 44
1, 160783, Note_on_c, 0, 55, 40
1, 160790, Control_c, 0, 64, 43
1, 160805, Control_c, 0, 64, 41
1, 160820, Control_c, 0, 64, 40
1, 160835, Control_c, 0, 64, 38
1, 160850, Control_c, 0, 64, 38
1, 160864, Control_c, 0, 64, 36
1, 160879, Control_c, 0, 64, 34
1, 160891, Note_off_c, 0, 55, 57
1, 160894, Control_c, 0, 64, 32
1, 160899, Note_off_c, 0, 56, 0
1, 160909, Control_c, 0, 64, 29
1, 160924, Note_on_c, 0, 75, 74
1, 160924, Control_c, 0, 64, 26
1, 160927, Note_on_c, 0, 53, 43
1, 160933, Note_off_c, 0, 74, 64
1, 160936, Poly_aftertouch_c, 0, 56, 127
1, 160939, Control_c, 0, 64, 23
1, 160961, Control_c, 0, 64, 17
1, 160976, Control_c, 0, 64, 15
1, 160990, Control_c, 0, 64, 13
1, 161052, Note_off_c, 0, 53, 63
1, 161080, Note_on_c, 0, 77, 72
1, 161094, Control_c, 0, 64, 10
1, 161097, Note_off_c, 0, 75, 61
1, 161098, Note_on_c, 0, 51, 42
1, 161224, Note_off_c, 0, 51, 60
1, 161243, Note_off_c, 0, 77, 59
1, 161246, Note_on_c, 0, 70, 72
1, 161256, Note_on_c, 0, 50, 41
1, 161312, Note_off_c, 0, 65, 49
1, 161419, Note_on_c, 0, 65, 58
1, 161489, Poly_aftertouch_c, 0, 56, 0
1, 161509, Note_off_c, 0, 65, 57
1, 161537, Note_off_c, 0, 50, 42
1, 161568, Note_on_c, 0, 55, 30
1, 161569, Control_c, 0, 64, 0
1, 161573, Note_on_c, 0, 67, 49
1, 161576, Note_on_c, 0, 51, 34
1, 161685, Note_off_c, 0, 51, 54
1, 161708, Note_off_c, 0, 55, 36
1, 161709, Note_off_c, 0, 67, 57
1, 161718, Note_on_c, 0, 53, 47
1, 161730, Note_on_c, 0, 68, 55
1, 161844, Note_off_c, 0, 53, 62
1, 161860, Note_off_c, 0, 68, 59
1, 161871, Note_on_c, 0, 51, 45
1, 161880, Note_on_c, 0, 67, 55
1, 161909, Note_on_c, 0, 55, 18
1, 161985, Note_off_c, 0, 67, 60
1, 161994, Note_off_c, 0, 51, 54
1, 162038, Note_on_c, 0, 65, 53
1, 162042, Note_on_c, 0, 50, 42
1, 162163, Note_off_c, 0, 50, 56
1, 162166, Note_off_c, 0, 65, 60
1, 162191, Note_on_c, 0, 63, 51
1, 162194, Note_on_c, 0, 48, 41
1, 162249, Note_off_c, 0, 48, 60
1, 162313, Note_off_c, 0, 63, 61
1, 162349, Note_on_c, 0, 61, 51
1, 162374, Note_on_c, 0, 46, 28
1, 162447, Note_off_c, 0, 46, 52
1, 162494, Note_off_c, 0, 61, 58
1, 162534, Note_on_c, 0, 60, 45
1, 162536, Note_on_c, 0, 44, 27
1, 162692, Note_off_c, 0, 55, 43
1, 162702, Note_on_c, 0, 51, 39
1, 162814, Note_off_c, 0, 51, 55
1, 162863, Note_on_c, 0, 53, 46
1, 162974, Note_off_c, 0, 53, 62
1, 163028, Note_on_c, 0, 55, 41
1, 163179, Note_off_c, 0, 55, 38
1, 163207, Note_on_c, 0, 65, 56
1, 163207, Note_on_c, 0, 68, 61
1, 163210, Note_on_c, 0, 53, 39
1, 163248, Note_off_c, 0, 60, 37
1, 163257, Note_off_c, 0, 70, 58
1, 163307, Note_off_c, 0, 53, 55
1, 163368, Note_on_c, 0, 51, 42
1, 163457, Note_off_c, 0, 44, 41
1, 163464, Note_off_c, 0, 51, 58
1, 163524, Note_on_c, 0, 50, 37
1, 163627, Note_off_c, 0, 50, 52
1, 163678, Note_on_c, 0, 48, 45
1, 163726, Note_off_c, 0, 48, 55
1, 163757, Control_c, 0, 64, 13
1, 163772, Control_c, 0, 64, 43
1, 163787, Control_c, 0, 64, 54
1, 163801, Control_c, 0, 64, 61
1, 163816, Control_c, 0, 64, 65
1, 163831, Control_c, 0, 64, 69
1, 163846, Control_c, 0, 64, 74
1, 163850, Note_on_c, 0, 38, 40
1, 163853, Note_on_c, 0, 46, 42
1, 163861, Control_c, 0, 64, 78
1, 163875, Control_c, 0, 64, 80
1, 163890, Control_c, 0, 64, 82
1, 163892, Note_off_c, 0, 38, 61
1, 163905, Control_c, 0, 64, 82
1, 163920, Control_c, 0, 64, 83
1, 163921, Note_off_c, 0, 65, 40
1, 163936, Note_off_c, 0, 46, 61
1, 164056, Note_on_c, 0, 56, 54
1, 164060, Control_c, 0, 64, 82
1, 164090, Control_c, 0, 64, 82
1, 164105, Control_c, 0, 64, 81
1, 164120, Control_c, 0, 64, 81
1, 164135, Control_c, 0, 64, 80
1, 164155, Note_off_c, 0, 56, 27
1, 164164, Control_c, 0, 64, 79
1, 164179, Control_c, 0, 64, 79
1, 164194, Control_c, 0, 64, 78
1, 164204, Note_on_c, 0, 58, 60
1, 164208, Control_c, 0, 64, 77
1, 164223, Control_c, 0, 64, 76
1, 164238, Control_c, 0, 64, 75
1, 164252, Control_c, 0, 64, 74
1, 164254, Note_off_c, 0, 58, 53
1, 164267, Control_c, 0, 64, 73
1, 164282, Control_c, 0, 64, 73
1, 164297, Control_c, 0, 64, 72
1, 164312, Control_c, 0, 64, 71
1, 164326, Control_c, 0, 64, 71
1, 164341, Control_c, 0, 64, 70
1, 164343, Note_on_c, 0, 60, 57
1, 164356, Control_c, 0, 64, 70
1, 164371, Control_c, 0, 64, 69
1, 164400, Control_c, 0, 64, 69
1, 164415, Control_c, 0, 64, 68
1, 164431, Control_c, 0, 64, 68
1, 164446, Control_c, 0, 64, 67
1, 164448, Note_off_c, 0, 60, 33
1, 164461, Control_c, 0, 64, 66
1, 164475, Control_c, 0, 64, 64
1, 164490, Control_c, 0, 64, 60
1, 164505, Control_c, 0, 64, 42
1, 164515, Note_on_c, 0, 58, 51
1, 164520, Control_c, 0, 64, 0
1, 164521, Note_on_c, 0, 63, 70
1, 164522, Note_on_c, 0, 67, 73
1, 164534, Note_off_c, 0, 68, 60
1, 164553, Note_on_c, 0, 51, 31
1, 164674, Note_off_c, 0, 58, 60
1, 164686, Note_on_c, 0, 56, 59
1, 164720, Control_c, 0, 64, 41
1, 164735, Control_c, 0, 64, 53
1, 164750, Control_c, 0, 64, 57
1, 164764, Control_c, 0, 64, 60
1, 164779, Control_c, 0, 64, 62
1, 164794, Control_c, 0, 64, 64
1, 164809, Control_c, 0, 64, 66
1, 164809, Control_c, 0, 67, 121
1, 164814, Note_off_c, 0, 56, 59
1, 164824, Control_c, 0, 64, 67
1, 164824, Control_c, 0, 67, 112
1, 164830, Note_off_c, 0, 51, 41
1, 164838, Control_c, 0, 64, 68
1, 164838, Control_c, 0, 67, 103
1, 164853, Note_on_c, 0, 55, 62
1, 164853, Control_c, 0, 64, 69
1, 164853, Control_c, 0, 67, 95
1, 164868, Control_c, 0, 64, 70
1, 164868, Control_c, 0, 67, 85
1, 164883, Control_c, 0, 64, 70
1, 164883, Control_c, 0, 67, 72
1, 164897, Control_c, 0, 64, 71
1, 164897, Control_c, 0, 67, 57
1, 164912, Control_c, 0, 67, 36
1, 164927, Control_c, 0, 67, 19
1, 164942, Control_c, 0, 67, 0
1, 164974, Note_off_c, 0, 55, 60
1, 164998, Note_on_c, 0, 53, 64
1, 165042, Note_off_c, 0, 53, 60
1, 165045, Control_c, 0, 64, 70
1, 165089, Control_c, 0, 64, 70
1, 165104, Control_c, 0, 64, 69
1, 165119, Control_c, 0, 64, 68
1, 165134, Control_c, 0, 64, 67
1, 165147, Note_on_c, 0, 51, 58
1, 165148, Control_c, 0, 64, 66
1, 165163, Control_c, 0, 64, 65
1, 165178, Control_c, 0, 64, 64
1, 165186, Note_on_c, 0, 68, 70
1, 165188, Note_on_c, 0, 72, 77
1, 165193, Control_c, 0, 64, 62
1, 165208, Control_c, 0, 64, 61
1, 165224, Control_c, 0, 64, 60
1, 165239, Control_c, 0, 64, 59
1, 165244, Note_off_c, 0, 63, 59
1, 165247, Note_off_c, 0, 67, 52
1, 165253, Control_c, 0, 64, 59
1, 165268, Control_c, 0, 64, 58
1, 165283, Control_c, 0, 64, 57
1, 165297, Control_c, 0, 64, 56
1, 165312, Control_c, 0, 64, 54
1, 165317, Note_off_c, 0, 51, 56
1, 165327, Control_c, 0, 64, 53
1, 165330, Note_on_c, 0, 48, 55
1, 165342, Control_c, 0, 64, 52
1, 165357, Control_c, 0, 64, 51
1, 165372, Control_c, 0, 64, 50
1, 165387, Control_c, 0, 64, 50
1, 165401, Control_c, 0, 64, 49
1, 165416, Control_c, 0, 64, 48
1, 165431, Control_c, 0, 64, 47
1, 165453, Control_c, 0, 64, 46
1, 165455, Note_off_c, 0, 48, 61
1, 165468, Control_c, 0, 64, 45
1, 165483, Control_c, 0, 64, 44
1, 165494, Note_on_c, 0, 49, 54
1, 165498, Control_c, 0, 64, 44
1, 165512, Control_c, 0, 64, 43
1, 165527, Control_c, 0, 64, 43
1, 165542, Control_c, 0, 64, 42
1, 165557, Control_c, 0, 64, 41
1, 165572, Control_c, 0, 64, 40
1, 165586, Control_c, 0, 64, 39
1, 165600, Note_off_c, 0, 49, 36
1, 165601, Control_c, 0, 64, 39
1, 165616, Control_c, 0, 64, 38
1, 165631, Control_c, 0, 64, 38
1, 165647, Control_c, 0, 64, 37
1, 165648, Note_on_c, 0, 51, 58
1, 165661, Control_c, 0, 64, 36
1, 165676, Control_c, 0, 64, 36
1, 165691, Control_c, 0, 64, 35
1, 165705, Control_c, 0, 64, 34
1, 165720, Control_c, 0, 64, 33
1, 165750, Control_c, 0, 64, 32
1, 165787, Note_off_c, 0, 51, 34
1, 165806, Note_on_c, 0, 49, 63
1, 165810, Note_off_c, 0, 68, 54
1, 165854, Control_c, 0, 64, 32
1, 165949, Note_off_c, 0, 49, 61
1, 165967, Note_on_c, 0, 48, 62
1, 166113, Note_off_c, 0, 48, 65
1, 166123, Note_on_c, 0, 46, 67
1, 166203, Control_c, 0, 64, 31
1, 166254, Note_off_c, 0, 46, 60
1, 166293, Note_on_c, 0, 44, 62
1, 166351, Control_c, 0, 64, 30
1, 166409, Control_c, 0, 64, 29
1, 166424, Note_off_c, 0, 44, 61
1, 166439, Control_c, 0, 64, 29
1, 166454, Control_c, 0, 64, 28
1, 166457, Note_on_c, 0, 51, 60
1, 166469, Control_c, 0, 64, 27
1, 166471, Note_on_c, 0, 70, 80
1, 166483, Control_c, 0, 64, 25
1, 166498, Control_c, 0, 64, 23
1, 166501, Note_off_c, 0, 72, 50
1, 166513, Control_c, 0, 64, 18
1, 166528, Control_c, 0, 64, 10
1, 166543, Control_c, 0, 64, 0
1, 166635, Note_off_c, 0, 51, 58
1, 166644, Note_on_c, 0, 50, 60
1, 166788, Note_off_c, 0, 50, 63
1, 166814, Note_on_c, 0, 48, 58
1, 166960, Note_off_c, 0, 48, 51
1, 166985, Note_on_c, 0, 46, 58
1, 167127, Note_off_c, 0, 46, 59
1, 167164, Note_on_c, 0, 75, 61
1, 167167, Note_on_c, 0, 56, 52
1, 167169, Note_on_c, 0, 67, 55
1, 167333, Note_off_c, 0, 56, 62
1, 167363, Note_on_c, 0, 55, 49
1, 167502, Note_off_c, 0, 55, 61
1, 167551, Note_on_c, 0, 53, 45
1, 167558, Control_c, 0, 64, 18
1, 167573, Control_c, 0, 64, 29
1, 167588, Control_c, 0, 64, 40
1, 167602, Control_c, 0, 64, 48
1, 167619, Control_c, 0, 64, 54
1, 167634, Control_c, 0, 64, 59
1, 167648, Control_c, 0, 64, 62
1, 167663, Control_c, 0, 64, 64
1, 167678, Control_c, 0, 64, 67
1, 167700, Control_c, 0, 64, 71
1, 167715, Control_c, 0, 64, 75
1, 167729, Control_c, 0, 64, 78
1, 167744, Control_c, 0, 64, 80
1, 167759, Control_c, 0, 64, 81
1, 167763, Note_off_c, 0, 67, 36
1, 167766, Note_on_c, 0, 51, 52
1, 167767, Note_off_c, 0, 53, 35
1, 167774, Control_c, 0, 64, 82
1, 167789, Control_c, 0, 64, 82
1, 167804, Control_c, 0, 64, 83
1, 167807, Note_off_c, 0, 51, 61
1, 167929, Note_off_c, 0, 70, 46
1, 168025, Control_c, 0, 64, 82
1, 168040, Control_c, 0, 64, 82
1, 168055, Control_c, 0, 64, 81
1, 168070, Control_c, 0, 64, 81
1, 168085, Control_c, 0, 64, 80
1, 168099, Control_c, 0, 64, 78
1, 168104, Note_on_c, 0, 58, 54
1, 168114, Control_c, 0, 64, 76
1, 168123, Note_on_c, 0, 65, 58
1, 168129, Control_c, 0, 64, 74
1, 168144, Control_c, 0, 64, 69
1, 168159, Control_c, 0, 64, 64
1, 168174, Control_c, 0, 64, 55
1, 168189, Control_c, 0, 64, 34
1, 168203, Control_c, 0, 64, 0
1, 168297, Note_on_c, 0, 60, 44
1, 168414, Note_off_c, 0, 60, 55
1, 168478, Note_on_c, 0, 62, 43
1, 168478, Control_c, 0, 64, 10
1, 168493, Control_c, 0, 64, 13
1, 168508, Control_c, 0, 64, 15
1, 168522, Control_c, 0, 64, 21
1, 168537, Control_c, 0, 64, 34
1, 168552, Control_c, 0, 64, 47
1, 168567, Control_c, 0, 64, 55
1, 168582, Control_c, 0, 64, 59
1, 168597, Control_c, 0, 64, 62
1, 168612, Control_c, 0, 64, 64
1, 168616, Note_off_c, 0, 62, 52
1, 168627, Control_c, 0, 64, 65
1, 168642, Control_c, 0, 64, 67
1, 168642, Note_on_c, 0, 63, 45
1, 168656, Control_c, 0, 64, 68
1, 168671, Control_c, 0, 64, 69
1, 168686, Control_c, 0, 64, 70
1, 168697, Note_off_c, 0, 63, 62
1, 168701, Control_c, 0, 64, 70
1, 168722, Note_off_c, 0, 65, 30
1, 168745, Control_c, 0, 64, 70
1, 168760, Control_c, 0, 64, 69
1, 168775, Control_c, 0, 64, 67
1, 168788, Note_on_c, 0, 65, 35
1, 168790, Control_c, 0, 64, 64
1, 168804, Note_on_c, 0, 70, 61
1, 168804, Control_c, 0, 64, 60
1, 168809, Note_on_c, 0, 74, 55
1, 168819, Control_c, 0, 64, 54
1, 168834, Control_c, 0, 64, 50
1, 168840, Note_off_c, 0, 75, 36
1, 168848, Control_c, 0, 64, 49
1, 168893, Control_c, 0, 64, 48
1, 168908, Control_c, 0, 64, 47
1, 168922, Control_c, 0, 64, 47
1, 168937, Control_c, 0, 64, 46
1, 168967, Note_off_c, 0, 65, 50
1, 168967, Note_on_c, 0, 68, 57
1, 168967, Control_c, 0, 64, 45
1, 168982, Control_c, 0, 64, 45
1, 168996, Control_c, 0, 64, 44
1, 169026, Control_c, 0, 64, 44
1, 169041, Control_c, 0, 64, 43
1, 169056, Control_c, 0, 64, 43
1, 169071, Control_c, 0, 64, 42
1, 169101, Control_c, 0, 64, 42
1, 169115, Control_c, 0, 64, 41
1, 169130, Control_c, 0, 64, 41
1, 169145, Note_on_c, 0, 67, 52
1, 169154, Note_off_c, 0, 68, 56
1, 169175, Control_c, 0, 64, 40
1, 169196, Control_c, 0, 64, 40
1, 169211, Control_c, 0, 64, 38
1, 169227, Control_c, 0, 64, 38
1, 169242, Control_c, 0, 64, 37
1, 169257, Control_c, 0, 64, 36
1, 169271, Control_c, 0, 64, 36
1, 169286, Control_c, 0, 64, 35
1, 169291, Note_off_c, 0, 67, 59
1, 169310, Note_on_c, 0, 65, 50
1, 169316, Control_c, 0, 64, 34
1, 169345, Control_c, 0, 64, 34
1, 169360, Control_c, 0, 64, 33
1, 169391, Control_c, 0, 64, 32
1, 169406, Control_c, 0, 64, 32
1, 169450, Control_c, 0, 64, 31
1, 169451, Note_off_c, 0, 65, 58
1, 169476, Note_on_c, 0, 63, 45
1, 169480, Note_on_c, 0, 78, 66
1, 169494, Control_c, 0, 64, 30
1, 169509, Control_c, 0, 64, 29
1, 169524, Control_c, 0, 64, 29
1, 169539, Control_c, 0, 64, 28
1, 169599, Control_c, 0, 64, 27
1, 169613, Control_c, 0, 64, 26
1, 169634, Note_off_c, 0, 63, 61
1, 169643, Control_c, 0, 64, 25
1, 169658, Control_c, 0, 64, 24
1, 169662, Note_on_c, 0, 65, 38
1, 169702, Control_c, 0, 64, 23
1, 169732, Control_c, 0, 64, 21
1, 169827, Note_off_c, 0, 65, 44
1, 169840, Note_on_c, 0, 63, 40
1, 169850, Control_c, 0, 64, 20
1, 169976, Control_c, 0, 64, 18
1, 169978, Note_off_c, 0, 63, 54
1, 170012, Note_on_c, 0, 62, 44
1, 170142, Note_off_c, 0, 62, 53
1, 170155, Note_off_c, 0, 70, 52
1, 170162, Note_on_c, 0, 69, 55
1, 170163, Note_off_c, 0, 74, 38
1, 170183, Control_c, 0, 64, 20
1, 170188, Note_on_c, 0, 60, 38
1, 170198, Control_c, 0, 64, 23
1, 170213, Control_c, 0, 64, 25
1, 170228, Control_c, 0, 64, 27
1, 170242, Control_c, 0, 64, 30
1, 170257, Control_c, 0, 64, 35
1, 170272, Control_c, 0, 64, 41
1, 170287, Control_c, 0, 64, 47
1, 170302, Control_c, 0, 64, 51
1, 170317, Control_c, 0, 64, 56
1, 170318, Note_off_c, 0, 60, 57
1, 170332, Control_c, 0, 64, 60
1, 170340, Note_on_c, 0, 63, 39
1, 170347, Control_c, 0, 64, 63
1, 170362, Control_c, 0, 64, 64
1, 170376, Control_c, 0, 64, 65
1, 170391, Control_c, 0, 64, 68
1, 170406, Control_c, 0, 64, 71
1, 170420, Control_c, 0, 64, 74
1, 170435, Control_c, 0, 64, 76
1, 170437, Note_off_c, 0, 63, 59
1, 170450, Control_c, 0, 64, 77
1, 170465, Control_c, 0, 64, 78
1, 170475, Note_off_c, 0, 58, 42
1, 170480, Control_c, 0, 64, 78
1, 170495, Note_on_c, 0, 62, 37
1, 170509, Control_c, 0, 64, 79
1, 170524, Control_c, 0, 64, 79
1, 170525, Note_off_c, 0, 78, 35
1, 170539, Control_c, 0, 67, 10
1, 170554, Control_c, 0, 67, 16
1, 170568, Control_c, 0, 67, 27
1, 170583, Control_c, 0, 67, 41
1, 170598, Control_c, 0, 67, 54
1, 170612, Control_c, 0, 67, 67
1, 170627, Control_c, 0, 67, 78
1, 170642, Control_c, 0, 67, 88
1, 170648, Note_off_c, 0, 62, 39
1, 170657, Control_c, 0, 67, 96
1, 170672, Control_c, 0, 67, 105
1, 170681, Note_on_c, 0, 60, 34
1, 170694, Control_c, 0, 67, 111
1, 170709, Control_c, 0, 67, 116
1, 170724, Control_c, 0, 67, 120
1, 170739, Control_c, 0, 67, 123
1, 170754, Control_c, 0, 64, 79
1, 170754, Control_c, 0, 67, 125
1, 170768, Control_c, 0, 67, 126
1, 170783, Control_c, 0, 64, 78
1, 170783, Control_c, 0, 67, 126
1, 170798, Control_c, 0, 64, 78
1, 170798, Control_c, 0, 67, 127
1, 170806, Note_off_c, 0, 60, 49
1, 170811, Note_off_c, 0, 69, 61
1, 170814, Control_c, 0, 64, 77
1, 170829, Control_c, 0, 64, 77
1, 170836, Note_on_c, 0, 77, 56
1, 170839, Note_on_c, 0, 74, 46
1, 170843, Control_c, 0, 64, 76
1, 170846, Note_on_c, 0, 68, 42
1, 170873, Control_c, 0, 64, 76
1, 170888, Control_c, 0, 64, 75
1, 170903, Control_c, 0, 64, 74
1, 170917, Control_c, 0, 64, 72
1, 170932, Control_c, 0, 64, 72
1, 170947, Control_c, 0, 64, 70
1, 170962, Control_c, 0, 64, 69
1, 170962, Control_c, 0, 67, 126
1, 170977, Control_c, 0, 64, 67
1, 170991, Control_c, 0, 64, 65
1, 170991, Control_c, 0, 67, 126
1, 171006, Control_c, 0, 64, 63
1, 171014, Note_on_c, 0, 53, 48
1, 171021, Control_c, 0, 64, 62
1, 171021, Control_c, 0, 67, 125
1, 171035, Control_c, 0, 64, 61
1, 171065, Control_c, 0, 64, 61
1, 171065, Control_c, 0, 67, 125
1, 171080, Control_c, 0, 64, 60
1, 171095, Control_c, 0, 64, 59
1, 171095, Control_c, 0, 67, 124
1, 171110, Control_c, 0, 64, 58
1, 171113, Note_off_c, 0, 74, 50
1, 171125, Control_c, 0, 64, 57
1, 171140, Control_c, 0, 64, 56
1, 171140, Control_c, 0, 67, 124
1, 171155, Control_c, 0, 64, 56
1, 171155, Control_c, 0, 67, 123
1, 171165, Note_off_c, 0, 53, 60
1, 171169, Control_c, 0, 64, 55
1, 171181, Note_on_c, 0, 51, 50
1, 171184, Control_c, 0, 64, 55
1, 171199, Control_c, 0, 64, 54
1, 171199, Control_c, 0, 67, 123
1, 171214, Control_c, 0, 64, 54
1, 171217, Note_off_c, 0, 68, 42
1, 171229, Control_c, 0, 64, 53
1, 171243, Control_c, 0, 64, 53
1, 171243, Control_c, 0, 67, 122
1, 171258, Control_c, 0, 64, 52
1, 171258, Control_c, 0, 67, 122
1, 171288, Control_c, 0, 64, 52
1, 171288, Control_c, 0, 67, 121
1, 171303, Control_c, 0, 64, 51
1, 171317, Control_c, 0, 64, 51
1, 171317, Control_c, 0, 67, 121
1, 171321, Note_off_c, 0, 51, 52
1, 171332, Control_c, 0, 64, 50
1, 171332, Control_c, 0, 67, 120
1, 171333, Note_on_c, 0, 50, 49
1, 171347, Control_c, 0, 64, 50
1, 171362, Control_c, 0, 67, 120
1, 171377, Control_c, 0, 64, 49
1, 171391, Control_c, 0, 67, 119
1, 171406, Control_c, 0, 64, 48
1, 171406, Control_c, 0, 67, 119
1, 171443, Control_c, 0, 64, 47
1, 171443, Control_c, 0, 67, 118
1, 171473, Control_c, 0, 64, 47
1, 171473, Control_c, 0, 67, 117
1, 171488, Control_c, 0, 64, 46
1, 171498, Note_off_c, 0, 50, 60
1, 171503, Control_c, 0, 64, 45
1, 171503, Control_c, 0, 67, 116
1, 171517, Control_c, 0, 64, 44
1, 171522, Note_off_c, 0, 77, 55
1, 171532, Control_c, 0, 67, 115
1, 171533, Note_on_c, 0, 51, 45
1, 171543, Note_on_c, 0, 70, 47
1, 171546, Note_on_c, 0, 75, 45
1, 171547, Control_c, 0, 67, 114
1, 171551, Note_on_c, 0, 67, 41
1, 171562, Control_c, 0, 64, 44
1, 171562, Control_c, 0, 67, 114
1, 171576, Control_c, 0, 64, 43
1, 171576, Control_c, 0, 67, 113
1, 171591, Control_c, 0, 67, 110
1, 171606, Control_c, 0, 64, 43
1, 171606, Control_c, 0, 67, 108
1, 171622, Control_c, 0, 64, 42
1, 171622, Control_c, 0, 67, 105
1, 171637, Control_c, 0, 64, 42
1, 171637, Control_c, 0, 67, 102
1, 171652, Control_c, 0, 67, 98
1, 171666, Control_c, 0, 64, 41
1, 171666, Control_c, 0, 67, 95
1, 171681, Control_c, 0, 64, 41
1, 171681, Control_c, 0, 67, 91
1, 171694, Note_off_c, 0, 51, 62
1, 171696, Control_c, 0, 64, 40
1, 171696, Control_c, 0, 67, 86
1, 171711, Control_c, 0, 64, 40
1, 171711, Control_c, 0, 67, 82
1, 171726, Control_c, 0, 64, 39
1, 171726, Control_c, 0, 67, 78
1, 171730, Note_on_c, 0, 53, 45
1, 171740, Control_c, 0, 67, 73
1, 171755, Control_c, 0, 64, 39
1, 171755, Control_c, 0, 67, 69
1, 171770, Control_c, 0, 67, 64
1, 171785, Control_c, 0, 64, 38
1, 171785, Control_c, 0, 67, 58
1, 171800, Control_c, 0, 67, 53
1, 171814, Control_c, 0, 67, 48
1, 171829, Control_c, 0, 67, 44
1, 171844, Control_c, 0, 64, 38
1, 171844, Control_c, 0, 67, 40
1, 171845, Note_off_c, 0, 53, 60
1, 171858, Control_c, 0, 67, 36
1, 171873, Control_c, 0, 67, 32
1, 171888, Control_c, 0, 67, 27
1, 171903, Note_on_c, 0, 55, 39
1, 171903, Control_c, 0, 67, 23
1, 171918, Control_c, 0, 67, 19
1, 171933, Control_c, 0, 67, 16
1, 171947, Control_c, 0, 67, 12
1, 171962, Control_c, 0, 67, 9
1, 171977, Control_c, 0, 67, 0
1, 172000, Note_off_c, 0, 70, 37
1, 172010, Note_off_c, 0, 67, 39
1, 172022, Control_c, 0, 64, 37
1, 172078, Note_off_c, 0, 55, 42
1, 172083, Note_on_c, 0, 56, 40
1, 172126, Control_c, 0, 64, 37
1, 172170, Control_c, 0, 64, 36
1, 172237, Control_c, 0, 64, 36
1, 172298, Note_on_c, 0, 46, 25
1, 172309, Note_on_c, 0, 70, 37
1, 172310, Note_on_c, 0, 65, 33
1, 172311, Control_c, 0, 64, 35
1, 172335, Note_off_c, 0, 56, 36
1, 172340, Control_c, 0, 64, 34
1, 172355, Control_c, 0, 64, 34
1, 172386, Control_c, 0, 64, 33
1, 172445, Control_c, 0, 64, 32
1, 173019, Note_off_c, 0, 75, 35
1, 173062, Note_off_c, 0, 65, 42
1, 173065, Note_on_c, 0, 74, 36
1, 173346, Note_off_c, 0, 70, 50
1, 173411, Note_on_c, 0, 68, 19
1, 173721, Note_on_c, 0, 51, 17
1, 173756, Note_off_c, 0, 68, 43
1, 173769, Note_off_c, 0, 46, 30
1, 173793, Note_off_c, 0, 74, 39
1, 173834, Note_on_c, 0, 75, 41
1, 173838, Control_c, 0, 64, 32
1, 173853, Note_on_c, 0, 67, 36
1, 174019, Note_off_c, 0, 67, 40
1, 174031, Note_on_c, 0, 70, 39
1, 174135, Control_c, 0, 64, 31
1, 174163, Note_off_c, 0, 70, 44
1, 174191, Note_on_c, 0, 72, 48
1, 174324, Note_off_c, 0, 72, 50
1, 174329, Control_c, 0, 64, 30
1, 174343, Control_c, 0, 64, 29
1, 174348, Note_on_c, 0, 73, 50
1, 174357, Note_off_c, 0, 75, 0
1, 174395, Poly_aftertouch_c, 0, 75, 127
1, 174402, Control_c, 0, 64, 29
1, 174441, Note_off_c, 0, 73, 62
1, 174469, Control_c, 0, 64, 28
1, 174528, Note_on_c, 0, 72, 53
1, 174529, Control_c, 0, 64, 27
1, 174532, Note_on_c, 0, 56, 34
1, 174674, Note_off_c, 0, 72, 59
1, 174688, Note_on_c, 0, 70, 49
1, 174735, Control_c, 0, 64, 26
1, 174834, Note_off_c, 0, 70, 58
1, 174876, Note_on_c, 0, 68, 43
1, 174928, Control_c, 0, 64, 28
1, 174943, Control_c, 0, 64, 29
1, 174958, Control_c, 0, 64, 30
1, 174958, Note_off_c, 0, 68, 63
1, 174973, Control_c, 0, 64, 32
1, 174988, Control_c, 0, 64, 36
1, 175003, Control_c, 0, 64, 42
1, 175018, Control_c, 0, 64, 47
1, 175032, Note_on_c, 0, 67, 44
1, 175032, Control_c, 0, 64, 54
1, 175047, Control_c, 0, 64, 58
1, 175062, Control_c, 0, 64, 60
1, 175077, Control_c, 0, 64, 61
1, 175091, Control_c, 0, 64, 62
1, 175128, Note_off_c, 0, 67, 53
1, 175128, Poly_aftertouch_c, 0, 75, 0
1, 175136, Control_c, 0, 64, 62
1, 175151, Control_c, 0, 64, 61
1, 175165, Control_c, 0, 64, 60
1, 175188, Control_c, 0, 64, 57
1, 175203, Control_c, 0, 64, 53
1, 175217, Control_c, 0, 64, 44
1, 175232, Control_c, 0, 64, 20
1, 175240, Note_on_c, 0, 74, 44
1, 175247, Control_c, 0, 64, 0
1, 175265, Note_on_c, 0, 65, 34
1, 175455, Note_off_c, 0, 65, 51
1, 175586, Note_on_c, 0, 67, 40
1, 175744, Note_off_c, 0, 67, 54
1, 175767, Note_on_c, 0, 68, 45
1, 175905, Note_off_c, 0, 74, 60
1, 175936, Note_off_c, 0, 68, 57
1, 175939, Note_on_c, 0, 55, 41
1, 175954, Note_on_c, 0, 73, 42
1, 175954, Note_on_c, 0, 70, 36
1, 176026, Note_off_c, 0, 56, 38
1, 176124, Note_on_c, 0, 68, 45
1, 176131, Note_off_c, 0, 70, 40
1, 176229, Note_off_c, 0, 68, 61
1, 176295, Note_on_c, 0, 67, 51
1, 176430, Note_off_c, 0, 67, 60
1, 176455, Note_on_c, 0, 65, 57
1, 176603, Note_off_c, 0, 65, 62
1, 176636, Note_on_c, 0, 63, 60
1, 176639, Note_on_c, 0, 60, 52
1, 176810, Note_off_c, 0, 55, 41
1, 176820, Note_on_c, 0, 70, 64
1, 176848, Note_off_c, 0, 73, 37
1, 176991, Note_off_c, 0, 70, 59
1, 176994, Note_on_c, 0, 72, 65
1, 177158, Note_off_c, 0, 72, 56
1, 177170, Note_on_c, 0, 73, 53
1, 177310, Note_off_c, 0, 73, 45
1, 177358, Note_on_c, 0, 72, 44
1, 177367, Note_on_c, 0, 68, 42
1, 177526, Note_off_c, 0, 72, 57
1, 177544, Note_off_c, 0, 68, 52
1, 177562, Note_on_c, 0, 70, 51
1, 177758, Note_off_c, 0, 70, 61
1, 177775, Note_on_c, 0, 72, 53
1, 177990, Note_on_c, 0, 68, 40
1, 178211, Note_off_c, 0, 60, 37
1, 178225, Note_off_c, 0, 68, 59
1, 178237, Note_on_c, 0, 74, 55
1, 178242, Note_off_c, 0, 72, 56
1, 178249, Note_on_c, 0, 59, 17
1, 178461, Note_on_c, 0, 68, 37
1, 178663, Note_off_c, 0, 68, 40
1, 178668, Note_on_c, 0, 70, 37
1, 178830, Note_off_c, 0, 70, 38
1, 178899, Note_on_c, 0, 71, 27
1, 179105, Note_off_c, 0, 71, 37
1, 179152, Note_on_c, 0, 70, 40
1, 179179, Note_off_c, 0, 63, 43
1, 179424, Note_off_c, 0, 70, 46
1, 179441, Note_on_c, 0, 68, 42
1, 179756, Note_off_c, 0, 68, 35
1, 179839, Note_on_c, 0, 67, 35
1, 180036, Control_c, 0, 64, 17
1, 180051, Control_c, 0, 64, 25
1, 180066, Control_c, 0, 64, 31
1, 180080, Control_c, 0, 64, 36
1, 180095, Control_c, 0, 64, 40
1, 180110, Control_c, 0, 64, 44
1, 180125, Control_c, 0, 64, 49
1, 180140, Control_c, 0, 64, 53
1, 180154, Control_c, 0, 64, 55
1, 180169, Control_c, 0, 64, 56
1, 180184, Control_c, 0, 64, 57
1, 180199, Control_c, 0, 64, 59
1, 180214, Control_c, 0, 64, 59
1, 180228, Control_c, 0, 64, 60
1, 180243, Control_c, 0, 64, 60
1, 180258, Control_c, 0, 64, 61
1, 180459, Control_c, 0, 64, 60
1, 180472, Note_off_c, 0, 67, 47
1, 180542, Note_on_c, 0, 68, 34
1, 180577, Control_c, 0, 64, 61
1, 180651, Control_c, 0, 64, 61
1, 180666, Control_c, 0, 64, 62
1, 180681, Control_c, 0, 64, 62
1, 180696, Control_c, 0, 64, 63
1, 180710, Control_c, 0, 64, 64
1, 180725, Note_off_c, 0, 74, 33
1, 180725, Control_c, 0, 64, 65
1, 180729, Note_off_c, 0, 68, 41
1, 180740, Control_c, 0, 64, 67
1, 180755, Control_c, 0, 64, 70
1, 180768, Note_on_c, 0, 65, 29
1, 180770, Control_c, 0, 64, 73
1, 180784, Control_c, 0, 64, 76
1, 180799, Control_c, 0, 64, 77
1, 180814, Control_c, 0, 64, 78
1, 180828, Control_c, 0, 64, 78
1, 180843, Control_c, 0, 64, 79
1, 180858, Control_c, 0, 64, 79
1, 180888, Control_c, 0, 64, 80
1, 180982, Note_off_c, 0, 59, 30
1, 181024, Note_off_c, 0, 65, 33
1, 181051, Control_c, 0, 64, 79
1, 181074, Note_on_c, 0, 58, 23
1, 181081, Control_c, 0, 64, 79
1, 181095, Control_c, 0, 64, 78
1, 181110, Control_c, 0, 64, 78
1, 181125, Control_c, 0, 64, 77
1, 181139, Control_c, 0, 64, 75
1, 181153, Note_on_c, 0, 75, 47
1, 181154, Control_c, 0, 64, 72
1, 181159, Note_on_c, 0, 67, 47
1, 181176, Control_c, 0, 64, 68
1, 181191, Control_c, 0, 64, 64
1, 181207, Control_c, 0, 64, 54
1, 181222, Control_c, 0, 64, 37
1, 181237, Control_c, 0, 64, 24
1, 181296, Control_c, 0, 64, 21
1, 181311, Control_c, 0, 64, 17
1, 181325, Control_c, 0, 64, 13
1, 181340, Control_c, 0, 64, 0
1, 182520, Control_c, 0, 64, 10
1, 182549, Control_c, 0, 64, 13
1, 182579, Control_c, 0, 64, 15
1, 182593, Control_c, 0, 64, 17
1, 182608, Control_c, 0, 64, 20
1, 182623, Control_c, 0, 64, 21
1, 182638, Control_c, 0, 64, 24
1, 182653, Control_c, 0, 64, 25
1, 182675, Control_c, 0, 64, 26
1, 182690, Control_c, 0, 64, 27
1, 182705, Control_c, 0, 64, 28
1, 182720, Control_c, 0, 64, 29
1, 182735, Control_c, 0, 64, 30
1, 182749, Control_c, 0, 64, 31
1, 182764, Control_c, 0, 64, 32
1, 182779, Control_c, 0, 64, 32
1, 182795, Control_c, 0, 64, 33
1, 182810, Control_c, 0, 64, 34
1, 182824, Control_c, 0, 64, 34
1, 182839, Control_c, 0, 64, 35
1, 182854, Control_c, 0, 64, 36
1, 182869, Control_c, 0, 64, 36
1, 182884, Control_c, 0, 64, 37
1, 182943, Control_c, 0, 64, 37
1, 182987, Control_c, 0, 64, 38
1, 183031, Control_c, 0, 64, 38
1, 183061, Control_c, 0, 64, 39
1, 183091, Control_c, 0, 64, 39
1, 183135, Control_c, 0, 64, 40
1, 183180, Control_c, 0, 64, 40
1, 183209, Control_c, 0, 64, 41
1, 183239, Control_c, 0, 64, 41
1, 183269, Control_c, 0, 64, 42
1, 183284, Control_c, 0, 64, 42
1, 183313, Control_c, 0, 64, 43
1, 183328, Control_c, 0, 64, 43
1, 183343, Control_c, 0, 64, 44
1, 183358, Control_c, 0, 64, 45
1, 183372, Control_c, 0, 64, 46
1, 183387, Control_c, 0, 64, 47
1, 183402, Control_c, 0, 64, 48
1, 183424, Control_c, 0, 64, 49
1, 183439, Control_c, 0, 64, 50
1, 183454, Control_c, 0, 64, 51
1, 183469, Control_c, 0, 64, 52
1, 183484, Control_c, 0, 64, 53
1, 183498, Control_c, 0, 64, 54
1, 183513, Control_c, 0, 64, 55
1, 183528, Control_c, 0, 64, 55
1, 183543, Control_c, 0, 64, 56
1, 183557, Control_c, 0, 64, 57
1, 183572, Control_c, 0, 64, 57
1, 183587, Control_c, 0, 64, 58
1, 183603, Control_c, 0, 64, 58
1, 183618, Control_c, 0, 64, 59
1, 183633, Control_c, 0, 64, 59
1, 183647, Control_c, 0, 64, 60
1, 183662, Control_c, 0, 64, 60
1, 183677, Control_c, 0, 64, 61
1, 183707, Control_c, 0, 64, 61
1, 183721, Control_c, 0, 64, 62
1, 183736, Control_c, 0, 64, 62
1, 183751, Control_c, 0, 64, 63
1, 183781, Control_c, 0, 64, 63
1, 183795, Control_c, 0, 64, 64
1, 183825, Control_c, 0, 64, 64
1, 183840, Control_c, 0, 64, 65
1, 183869, Control_c, 0, 64, 65
1, 183884, Control_c, 0, 64, 66
1, 183913, Control_c, 0, 64, 66
1, 183943, Control_c, 0, 64, 67
1, 184002, Control_c, 0, 64, 67
1, 184150, Note_off_c, 0, 51, 4
1, 184276, Control_c, 0, 64, 67
1, 184305, Note_off_c, 0, 67, 26
1, 184330, Note_off_c, 0, 58, 24
1, 184333, Note_off_c, 0, 75, 25
1, 184380, Control_c, 0, 64, 66
1, 184440, Control_c, 0, 64, 66
1, 184485, Control_c, 0, 64, 65
1, 184530, Control_c, 0, 64, 65
1, 184559, Control_c, 0, 64, 64
1, 184574, Control_c, 0, 64, 64
1, 184648, Control_c, 0, 64, 63
1, 184692, Control_c, 0, 64, 63
1, 184736, Control_c, 0, 64, 62
1, 184810, Control_c, 0, 64, 62
1, 184840, Control_c, 0, 64, 61
1, 184870, Control_c, 0, 64, 61
1, 184937, Control_c, 0, 64, 60
1, 184966, Control_c, 0, 64, 60
1, 184995, Control_c, 0, 64, 59
1, 185010, Control_c, 0, 64, 59
1, 185040, Control_c, 0, 64, 58
1, 185055, Control_c, 0, 64, 58
1, 185069, Control_c, 0, 64, 57
1, 185099, Control_c, 0, 64, 57
1, 185114, Control_c, 0, 64, 56
1, 185144, Control_c, 0, 64, 56
1, 185174, Control_c, 0, 64, 55
1, 185204, Control_c, 0, 64, 55
1, 185263, Control_c, 0, 64, 54
1, 185426, Control_c, 0, 64, 54
1, 185560, Control_c, 0, 64, 53
1, 185671, Control_c, 0, 64, 53
1, 185907, Control_c, 0, 64, 52
1, 186027, Control_c, 0, 64, 52
1, 186056, Control_c, 0, 64, 51
1, 186086, Control_c, 0, 64, 51
1, 186146, Control_c, 0, 64, 50
1, 186205, Control_c, 0, 64, 50
1, 186220, Control_c, 0, 64, 49
1, 186235, Control_c, 0, 64, 48
1, 186249, Control_c, 0, 64, 47
1, 186279, Control_c, 0, 64, 47
1, 186309, Control_c, 0, 64, 46
1, 186323, Control_c, 0, 64, 45
1, 186338, Control_c, 0, 64, 44
1, 186353, Control_c, 0, 64, 43
1, 186367, Control_c, 0, 64, 42
1, 186382, Control_c, 0, 64, 42
1, 186397, Control_c, 0, 64, 40
1, 186420, Control_c, 0, 64, 39
1, 186435, Control_c, 0, 64, 38
1, 186449, Control_c, 0, 64, 36
1, 186464, Control_c, 0, 64, 34
1, 186479, Control_c, 0, 64, 32
1, 186494, Control_c, 0, 64, 30
1, 186509, Control_c, 0, 64, 29
1, 186523, Control_c, 0, 64, 25
1, 186538, Control_c, 0, 64, 21
1, 186553, Control_c, 0, 64, 18
1, 186567, Control_c, 0, 64, 17
1, 186582, Control_c, 0, 64, 15
1, 186597, Control_c, 0, 64, 13
1, 186612, Control_c, 0, 64, 10
1, 186656, Control_c, 0, 64, 0
1, 186983, Control_c, 0, 64, 10
1, 187132, Control_c, 0, 64, 13
1, 187376, Control_c, 0, 64, 15
1, 187732, Control_c, 0, 64, 17
1, 187761, Control_c, 0, 64, 18
1, 187806, Note_on_c, 0, 70, 80
1, 187865, Control_c, 0, 64, 17
1, 187880, Control_c, 0, 64, 15
1, 187917, Note_on_c, 0, 67, 66
1, 187917, Control_c, 0, 64, 13
1, 187926, Note_off_c, 0, 70, 60
1, 188006, Control_c, 0, 64, 10
1, 188019, Note_on_c, 0, 65, 68
1, 188021, Note_off_c, 0, 67, 61
1, 188101, Note_off_c, 0, 65, 62
1, 188110, Control_c, 0, 64, 0
1, 188111, Note_on_c, 0, 67, 72
1, 188182, Note_off_c, 0, 67, 60
1, 188210, Note_on_c, 0, 63, 78
1, 188278, Note_off_c, 0, 63, 59
1, 188310, Note_on_c, 0, 68, 72
1, 188371, Note_off_c, 0, 68, 60
1, 188408, Note_on_c, 0, 67, 82
1, 188464, Note_off_c, 0, 67, 62
1, 188506, Note_on_c, 0, 68, 88
1, 188576, Note_off_c, 0, 68, 61
1, 188626, Note_on_c, 0, 72, 91
1, 188804, Note_off_c, 0, 72, 54
1, 188855, Note_on_c, 0, 70, 68
1, 189146, Note_off_c, 0, 70, 56
1, 189263, Note_on_c, 0, 69, 77
1, 189323, Note_off_c, 0, 69, 50
1, 189346, Note_on_c, 0, 65, 78
1, 189400, Note_off_c, 0, 65, 60
1, 189451, Note_on_c, 0, 75, 91
1, 189618, Note_off_c, 0, 75, 62
1, 189666, Note_on_c, 0, 74, 91
1, 189861, Note_on_c, 0, 72, 91
1, 189861, Note_off_c, 0, 74, 57
1, 190014, Note_off_c, 0, 72, 62
1, 190065, Note_on_c, 0, 74, 52
1, 190095, Note_off_c, 0, 74, 68
1, 190120, Note_on_c, 0, 72, 60
1, 190140, Note_off_c, 0, 72, 65
1, 190168, Note_on_c, 0, 74, 67
1, 190217, Note_on_c, 0, 72, 78
1, 190217, Note_off_c, 0, 74, 61
1, 190266, Note_on_c, 0, 70, 88
1, 190285, Note_off_c, 0, 72, 62
1, 190383, Note_on_c, 0, 77, 76
1, 190444, Note_off_c, 0, 70, 56
1, 190460, Note_off_c, 0, 77, 42
1, 190480, Note_on_c, 0, 74, 73
1, 190580, Note_on_c, 0, 70, 74
1, 190587, Note_off_c, 0, 74, 56
1, 190646, Note_off_c, 0, 70, 58
1, 190676, Note_on_c, 0, 68, 75
1, 190783, Note_off_c, 0, 68, 52
1, 190784, Note_on_c, 0, 77, 70
1, 190875, Note_off_c, 0, 77, 56
1, 190885, Note_on_c, 0, 74, 69
1, 190957, Note_off_c, 0, 74, 63
1, 190985, Note_on_c, 0, 68, 72
1, 191033, Note_off_c, 0, 68, 62
1, 191096, Note_on_c, 0, 63, 78
1, 191097, Note_on_c, 0, 67, 74
1, 191206, Note_on_c, 0, 62, 75
1, 191206, Note_off_c, 0, 63, 59
1, 191302, Note_off_c, 0, 67, 52
1, 191317, Note_off_c, 0, 62, 34
1, 191324, Note_on_c, 0, 80, 79
1, 191326, Note_on_c, 0, 60, 58
1, 191342, Note_on_c, 0, 59, 53
1, 191371, Note_off_c, 0, 59, 51
1, 191389, Note_off_c, 0, 60, 54
1, 191429, Note_on_c, 0, 62, 78
1, 191466, Note_off_c, 0, 80, 61
1, 191501, Note_off_c, 0, 62, 50
1, 191532, Note_on_c, 0, 58, 77
1, 191542, Note_on_c, 0, 79, 73
1, 191637, Note_off_c, 0, 58, 62
1, 191639, Note_on_c, 0, 63, 83
1, 191680, Note_off_c, 0, 79, 52
1, 191744, Note_on_c, 0, 77, 77
1, 191744, Note_off_c, 0, 63, 37
1, 191754, Note_on_c, 0, 62, 80
1, 191860, Note_on_c, 0, 63, 86
1, 191877, Note_off_c, 0, 62, 60
1, 191937, Note_off_c, 0, 63, 63
1, 191961, Note_off_c, 0, 77, 50
1, 191973, Note_on_c, 0, 67, 92
1, 191991, Note_on_c, 0, 75, 76
1, 192062, Note_off_c, 0, 75, 57
1, 192098, Note_on_c, 0, 72, 75
1, 192152, Note_off_c, 0, 67, 58
1, 192158, Note_off_c, 0, 72, 63
1, 192215, Note_on_c, 0, 74, 73
1, 192221, Note_on_c, 0, 65, 76
1, 192257, Note_off_c, 0, 74, 60
1, 192317, Note_on_c, 0, 75, 79
1, 192364, Note_off_c, 0, 75, 61
1, 192411, Note_off_c, 0, 65, 63
1, 192439, Note_on_c, 0, 77, 92
1, 192648, Note_on_c, 0, 62, 66
1, 192704, Note_off_c, 0, 62, 54
1, 192748, Note_on_c, 0, 58, 68
1, 192804, Note_off_c, 0, 58, 55
1, 192866, Note_on_c, 0, 68, 91
1, 192924, Note_off_c, 0, 77, 54
1, 192984, Note_on_c, 0, 75, 74
1, 193001, Note_off_c, 0, 68, 55
1, 193054, Note_off_c, 0, 75, 61
1, 193103, Note_on_c, 0, 67, 89
1, 193113, Note_on_c, 0, 77, 65
1, 193213, Note_on_c, 0, 79, 68
1, 193264, Note_off_c, 0, 77, 38
1, 193312, Note_off_c, 0, 67, 52
1, 193327, Note_on_c, 0, 65, 88
1, 193330, Note_on_c, 0, 80, 75
1, 193340, Note_off_c, 0, 79, 55
1, 193428, Note_on_c, 0, 77, 64
1, 193433, Note_off_c, 0, 80, 58
1, 193476, Note_off_c, 0, 65, 0
1, 193476, Note_on_c, 0, 65, 3
1, 193499, Note_off_c, 0, 65, 61
1, 193525, Note_off_c, 0, 77, 58
1, 193527, Note_on_c, 0, 67, 64
1, 193550, Note_on_c, 0, 70, 61
1, 193556, Note_off_c, 0, 67, 66
1, 193590, Note_on_c, 0, 65, 65
1, 193612, Note_off_c, 0, 65, 67
1, 193631, Note_on_c, 0, 67, 64
1, 193658, Note_off_c, 0, 67, 61
1, 193659, Note_on_c, 0, 80, 56
1, 193678, Note_off_c, 0, 70, 56
1, 193681, Note_on_c, 0, 65, 71
1, 193734, Note_on_c, 0, 63, 78
1, 193736, Note_off_c, 0, 80, 45
1, 193738, Note_off_c, 0, 65, 64
1, 193747, Note_on_c, 0, 79, 72
1, 193847, Note_off_c, 0, 63, 61
1, 193862, Note_on_c, 0, 70, 65
1, 193911, Note_off_c, 0, 70, 51
1, 193939, Note_off_c, 0, 79, 33
1, 193965, Note_on_c, 0, 67, 51
1, 193967, Note_on_c, 0, 75, 74
1, 194020, Note_off_c, 0, 67, 54
1, 194027, Note_off_c, 0, 75, 65
1, 194067, Note_on_c, 0, 79, 80
1, 194072, Note_on_c, 0, 65, 52
1, 194132, Note_off_c, 0, 79, 60
1, 194149, Note_off_c, 0, 65, 51
1, 194183, Note_on_c, 0, 84, 84
1, 194196, Note_on_c, 0, 63, 43
1, 194310, Note_on_c, 0, 72, 59
1, 194353, Note_off_c, 0, 72, 61
1, 194378, Note_off_c, 0, 63, 35
1, 194418, Note_on_c, 0, 69, 58
1, 194467, Note_off_c, 0, 69, 56
1, 194535, Note_on_c, 0, 65, 46
1, 194584, Note_off_c, 0, 65, 43
1, 194634, Note_on_c, 0, 62, 49
1, 194710, Note_off_c, 0, 62, 36
1, 194752, Note_on_c, 0, 69, 48
1, 194799, Note_off_c, 0, 69, 61
1, 194847, Note_on_c, 0, 74, 62
1, 194864, Note_on_c, 0, 65, 37
1, 194873, Note_off_c, 0, 84, 35
1, 194889, Note_off_c, 0, 74, 63
1, 194894, Note_off_c, 0, 65, 53
1, 194948, Note_on_c, 0, 77, 74
1, 194958, Note_on_c, 0, 63, 46
1, 194993, Note_off_c, 0, 63, 54
1, 194994, Note_off_c, 0, 77, 56
1, 195061, Note_on_c, 0, 82, 77
1, 195076, Note_on_c, 0, 61, 47
1, 195103, Note_off_c, 0, 61, 62
1, 195171, Note_on_c, 0, 70, 57
1, 195225, Note_off_c, 0, 70, 52
1, 195271, Note_on_c, 0, 67, 58
1, 195311, Note_off_c, 0, 67, 61
1, 195378, Note_on_c, 0, 63, 61
1, 195446, Note_off_c, 0, 63, 51
1, 195512, Note_on_c, 0, 60, 50
1, 195622, Note_on_c, 0, 67, 44
1, 195646, Note_off_c, 0, 60, 56
1, 195666, Note_off_c, 0, 67, 49
1, 195719, Note_on_c, 0, 72, 57
1, 195726, Note_off_c, 0, 82, 37
1, 195729, Note_on_c, 0, 63, 38
1, 195750, Note_off_c, 0, 72, 61
1, 195780, Note_off_c, 0, 63, 45
1, 195815, Note_on_c, 0, 60, 45
1, 195819, Note_on_c, 0, 75, 67
1, 195854, Note_off_c, 0, 60, 51
1, 195860, Note_off_c, 0, 75, 61
1, 195927, Note_on_c, 0, 62, 59
1, 195927, Note_on_c, 0, 80, 84
1, 195968, Control_c, 0, 64, 53
1, 195983, Control_c, 0, 64, 56
1, 195998, Control_c, 0, 64, 58
1, 196008, Note_off_c, 0, 62, 51
1, 196013, Control_c, 0, 64, 61
1, 196027, Control_c, 0, 64, 64
1, 196033, Note_on_c, 0, 70, 68
1, 196042, Control_c, 0, 64, 66
1, 196057, Control_c, 0, 64, 67
1, 196072, Control_c, 0, 64, 68
1, 196073, Note_off_c, 0, 80, 62
1, 196087, Control_c, 0, 64, 70
1, 196102, Control_c, 0, 64, 71
1, 196117, Control_c, 0, 64, 73
1, 196126, Note_off_c, 0, 70, 52
1, 196132, Control_c, 0, 64, 76
1, 196153, Control_c, 0, 64, 77
1, 196162, Note_on_c, 0, 63, 68
1, 196164, Note_on_c, 0, 79, 79
1, 196168, Control_c, 0, 64, 79
1, 196183, Control_c, 0, 64, 80
1, 196188, Note_off_c, 0, 63, 68
1, 196264, Note_on_c, 0, 72, 72
1, 196331, Note_off_c, 0, 79, 55
1, 196331, Control_c, 0, 64, 79
1, 196346, Note_off_c, 0, 72, 60
1, 196346, Control_c, 0, 64, 78
1, 196361, Control_c, 0, 64, 75
1, 196376, Control_c, 0, 64, 67
1, 196385, Note_on_c, 0, 74, 74
1, 196385, Note_on_c, 0, 77, 73
1, 196391, Control_c, 0, 64, 49
1, 196398, Note_on_c, 0, 58, 91
1, 196406, Control_c, 0, 64, 0
1, 196465, Note_off_c, 0, 58, 58
1, 196483, Note_off_c, 0, 74, 61
1, 196499, Note_on_c, 0, 55, 77
1, 196614, Note_off_c, 0, 55, 52
1, 196617, Note_on_c, 0, 53, 74
1, 196620, Note_on_c, 0, 73, 79
1, 196704, Note_off_c, 0, 53, 63
1, 196725, Note_on_c, 0, 55, 76
1, 196805, Note_off_c, 0, 55, 60
1, 196812, Note_off_c, 0, 77, 54
1, 196838, Note_on_c, 0, 51, 76
1, 196850, Note_on_c, 0, 72, 80
1, 196853, Note_on_c, 0, 79, 74
1, 196855, Note_off_c, 0, 73, 60
1, 196913, Note_off_c, 0, 51, 61
1, 196956, Note_on_c, 0, 56, 80
1, 196990, Note_off_c, 0, 79, 51
1, 197011, Note_off_c, 0, 56, 64
1, 197069, Note_on_c, 0, 55, 80
1, 197081, Note_on_c, 0, 70, 74
1, 197085, Note_off_c, 0, 72, 54
1, 197089, Note_on_c, 0, 74, 66
1, 197166, Note_off_c, 0, 55, 61
1, 197177, Note_on_c, 0, 56, 86
1, 197211, Note_off_c, 0, 70, 59
1, 197220, Note_off_c, 0, 56, 65
1, 197226, Note_off_c, 0, 74, 63
1, 197303, Note_on_c, 0, 60, 92
1, 197313, Note_on_c, 0, 68, 79
1, 197318, Note_on_c, 0, 75, 68
1, 197368, Note_off_c, 0, 75, 53
1, 197375, Note_off_c, 0, 68, 61
1, 197423, Note_on_c, 0, 67, 72
1, 197476, Note_off_c, 0, 60, 56
1, 197486, Note_off_c, 0, 67, 58
1, 197543, Note_on_c, 0, 58, 74
1, 197546, Note_on_c, 0, 68, 72
1, 197603, Note_off_c, 0, 68, 61
1, 197656, Note_on_c, 0, 70, 75
1, 197700, Note_off_c, 0, 70, 62
1, 197728, Note_off_c, 0, 58, 63
1, 197778, Note_on_c, 0, 72, 80
1, 197989, Note_on_c, 0, 57, 78
1, 197994, Note_on_c, 0, 77, 78
1, 198010, Note_off_c, 0, 72, 50
1, 198050, Note_off_c, 0, 57, 59
1, 198090, Note_on_c, 0, 53, 77
1, 198179, Note_off_c, 0, 53, 41
1, 198207, Note_on_c, 0, 63, 90
1, 198218, Note_on_c, 0, 79, 77
1, 198224, Note_off_c, 0, 77, 60
1, 198327, Note_on_c, 0, 70, 73
1, 198337, Note_off_c, 0, 63, 55
1, 198397, Note_off_c, 0, 70, 56
1, 198434, Note_off_c, 0, 79, 35
1, 198448, Note_on_c, 0, 62, 84
1, 198452, Note_on_c, 0, 72, 73
1, 198553, Note_off_c, 0, 72, 37
1, 198557, Note_on_c, 0, 74, 72
1, 198614, Note_off_c, 0, 74, 63
1, 198641, Note_off_c, 0, 62, 59
1, 198673, Note_on_c, 0, 60, 78
1, 198679, Note_on_c, 0, 75, 72
1, 198697, Control_c, 0, 64, 44
1, 198712, Control_c, 0, 64, 61
1, 198727, Control_c, 0, 64, 65
1, 198742, Control_c, 0, 64, 69
1, 198744, Note_off_c, 0, 75, 63
1, 198756, Control_c, 0, 64, 73
1, 198772, Control_c, 0, 64, 78
1, 198787, Control_c, 0, 64, 80
1, 198793, Note_on_c, 0, 72, 66
1, 198802, Control_c, 0, 64, 81
1, 198817, Control_c, 0, 64, 82
1, 198825, Note_off_c, 0, 72, 59
1, 198896, Note_on_c, 0, 81, 65
1, 198946, Note_off_c, 0, 81, 57
1, 198950, Control_c, 0, 64, 82
1, 198994, Note_on_c, 0, 75, 67
1, 199038, Note_off_c, 0, 75, 52
1, 199083, Control_c, 0, 64, 82
1, 199089, Note_off_c, 0, 60, 17
1, 199098, Control_c, 0, 64, 80
1, 199113, Control_c, 0, 64, 77
1, 199126, Note_on_c, 0, 82, 72
1, 199127, Control_c, 0, 64, 70
1, 199148, Note_on_c, 0, 74, 53
1, 199150, Control_c, 0, 64, 56
1, 199151, Note_on_c, 0, 58, 48
1, 199165, Control_c, 0, 64, 0
1, 199223, Note_off_c, 0, 58, 56
1, 199238, Note_off_c, 0, 74, 57
1, 199253, Note_on_c, 0, 65, 54
1, 199297, Note_off_c, 0, 65, 62
1, 199375, Note_on_c, 0, 62, 54
1, 199382, Note_on_c, 0, 77, 63
1, 199413, Note_off_c, 0, 62, 61
1, 199484, Note_on_c, 0, 58, 57
1, 199522, Note_off_c, 0, 58, 64
1, 199595, Note_on_c, 0, 74, 66
1, 199601, Note_on_c, 0, 56, 52
1, 199664, Note_off_c, 0, 77, 26
1, 199667, Note_off_c, 0, 56, 54
1, 199711, Note_on_c, 0, 65, 57
1, 199755, Note_off_c, 0, 65, 60
1, 199807, Note_off_c, 0, 74, 56
1, 199824, Note_on_c, 0, 62, 62
1, 199831, Note_on_c, 0, 70, 66
1, 199864, Note_off_c, 0, 62, 57
1, 199938, Note_on_c, 0, 56, 60
1, 199972, Note_off_c, 0, 56, 60
1, 199975, Note_off_c, 0, 82, 39
1, 200010, Note_off_c, 0, 70, 60
1, 200059, Note_on_c, 0, 55, 51
1, 200065, Note_on_c, 0, 75, 69
1, 200168, Note_off_c, 0, 55, 37
1, 200171, Note_on_c, 0, 82, 70
1, 200200, Note_off_c, 0, 75, 50
1, 200226, Note_off_c, 0, 82, 55
1, 200284, Note_on_c, 0, 63, 46
1, 200285, Note_on_c, 0, 79, 71
1, 200348, Note_off_c, 0, 79, 56
1, 200391, Note_on_c, 0, 75, 76
1, 200445, Note_off_c, 0, 75, 62
1, 200507, Note_on_c, 0, 73, 70
1, 200582, Note_off_c, 0, 73, 48
1, 200615, Note_on_c, 0, 82, 65
1, 200658, Note_off_c, 0, 82, 56
1, 200704, Note_off_c, 0, 63, 20
1, 200726, Note_on_c, 0, 51, 53
1, 200734, Note_on_c, 0, 79, 61
1, 200775, Note_off_c, 0, 51, 55
1, 200779, Note_off_c, 0, 79, 55
1, 200835, Note_on_c, 0, 73, 67
1, 200874, Note_off_c, 0, 73, 56
1, 200952, Note_on_c, 0, 56, 62
1, 200953, Note_on_c, 0, 72, 76
1, 201050, Note_off_c, 0, 56, 55
1, 201070, Note_on_c, 0, 63, 60
1, 201125, Note_off_c, 0, 63, 54
1, 201150, Note_off_c, 0, 72, 59
1, 201190, Note_on_c, 0, 60, 54
1, 201190, Note_on_c, 0, 75, 81
1, 201229, Note_off_c, 0, 60, 62
1, 201293, Note_on_c, 0, 56, 61
1, 201338, Note_off_c, 0, 56, 57
1, 201378, Note_off_c, 0, 75, 61
1, 201423, Note_on_c, 0, 55, 47
1, 201424, Note_on_c, 0, 80, 79
1, 201436, Note_on_c, 0, 72, 68
1, 201515, Note_off_c, 0, 55, 38
1, 201542, Note_on_c, 0, 63, 52
1, 201579, Note_off_c, 0, 63, 60
1, 201590, Note_off_c, 0, 72, 59
1, 201658, Note_on_c, 0, 60, 53
1, 201661, Note_on_c, 0, 68, 57
1, 201693, Note_off_c, 0, 60, 64
1, 201774, Note_on_c, 0, 55, 41
1, 201817, Note_off_c, 0, 55, 57
1, 201834, Note_off_c, 0, 68, 59
1, 201849, Note_off_c, 0, 80, 48
1, 201886, Note_on_c, 0, 53, 66
1, 201903, Note_on_c, 0, 74, 52
1, 202007, Note_on_c, 0, 80, 60
1, 202042, Note_off_c, 0, 74, 38
1, 202052, Note_off_c, 0, 80, 58
1, 202124, Note_off_c, 0, 53, 27
1, 202129, Note_on_c, 0, 62, 61
1, 202129, Note_on_c, 0, 77, 60
1, 202188, Note_off_c, 0, 77, 53
1, 202233, Note_on_c, 0, 74, 68
1, 202233, Note_off_c, 0, 62, 57
1, 202285, Note_off_c, 0, 74, 61
1, 202344, Note_on_c, 0, 72, 72
1, 202424, Note_off_c, 0, 72, 55
1, 202449, Note_on_c, 0, 80, 72
1, 202511, Note_off_c, 0, 80, 62
1, 202558, Note_on_c, 0, 50, 61
1, 202565, Note_on_c, 0, 77, 68
1, 202630, Note_off_c, 0, 77, 56
1, 202669, Note_on_c, 0, 72, 71
1, 202698, Note_off_c, 0, 50, 25
1, 202721, Note_off_c, 0, 72, 62
1, 202782, Note_on_c, 0, 55, 54
1, 202788, Note_on_c, 0, 70, 74
1, 202853, Note_off_c, 0, 55, 55
1, 202896, Note_on_c, 0, 62, 67
1, 202962, Note_off_c, 0, 62, 59
1, 202969, Note_off_c, 0, 70, 59
1, 203018, Note_on_c, 0, 58, 69
1, 203021, Note_on_c, 0, 74, 75
1, 203070, Note_off_c, 0, 58, 56
1, 203123, Note_on_c, 0, 55, 63
1, 203163, Note_off_c, 0, 55, 60
1, 203199, Note_off_c, 0, 74, 60
1, 203232, Note_on_c, 0, 79, 74
1, 203235, Note_on_c, 0, 53, 67
1, 203246, Note_on_c, 0, 70, 65
1, 203325, Note_off_c, 0, 53, 60
1, 203344, Note_on_c, 0, 61, 70
1, 203390, Note_off_c, 0, 61, 57
1, 203430, Note_off_c, 0, 70, 58
1, 203438, Note_off_c, 0, 79, 52
1, 203457, Note_on_c, 0, 67, 70
1, 203462, Note_on_c, 0, 58, 69
1, 203503, Note_off_c, 0, 58, 58
1, 203563, Note_on_c, 0, 53, 65
1, 203614, Note_off_c, 0, 53, 61
1, 203670, Note_off_c, 0, 67, 56
1, 203690, Note_on_c, 0, 72, 71
1, 203694, Note_on_c, 0, 52, 68
1, 203794, Note_off_c, 0, 52, 47
1, 203801, Note_on_c, 0, 60, 59
1, 203866, Note_off_c, 0, 60, 49
1, 203903, Note_off_c, 0, 72, 57
1, 203918, Note_on_c, 0, 55, 54
1, 203922, Note_on_c, 0, 70, 71
1, 203961, Note_off_c, 0, 55, 59
1, 204032, Note_on_c, 0, 52, 54
1, 204076, Note_off_c, 0, 52, 56
1, 204128, Note_off_c, 0, 70, 51
1, 204147, Note_on_c, 0, 53, 57
1, 204147, Note_on_c, 0, 68, 76
1, 204194, Note_off_c, 0, 53, 60
1, 204216, Note_off_c, 0, 68, 62
1, 204251, Note_on_c, 0, 72, 71
1, 204256, Note_on_c, 0, 60, 62
1, 204314, Note_off_c, 0, 60, 54
1, 204323, Note_off_c, 0, 72, 60
1, 204362, Note_on_c, 0, 74, 72
1, 204369, Note_on_c, 0, 56, 60
1, 204413, Note_off_c, 0, 56, 61
1, 204413, Note_off_c, 0, 74, 62
1, 204468, Note_on_c, 0, 75, 79
1, 204478, Note_on_c, 0, 53, 59
1, 204517, Note_off_c, 0, 53, 64
1, 204518, Note_off_c, 0, 75, 64
1, 204575, Note_on_c, 0, 77, 92
1, 204592, Note_on_c, 0, 50, 56
1, 204670, Note_off_c, 0, 50, 56
1, 204687, Note_on_c, 0, 72, 68
1, 204698, Note_on_c, 0, 58, 56
1, 204726, Note_off_c, 0, 58, 55
1, 204756, Note_off_c, 0, 72, 60
1, 204803, Note_on_c, 0, 70, 65
1, 204808, Note_on_c, 0, 53, 51
1, 204836, Note_off_c, 0, 70, 62
1, 204845, Note_off_c, 0, 53, 63
1, 204879, Note_off_c, 0, 77, 52
1, 204904, Note_on_c, 0, 68, 64
1, 204921, Note_on_c, 0, 50, 34
1, 204948, Note_off_c, 0, 68, 60
1, 204960, Note_off_c, 0, 50, 50
1, 205025, Note_on_c, 0, 51, 46
1, 205027, Note_on_c, 0, 67, 66
1, 205071, Note_off_c, 0, 51, 61
1, 205146, Note_on_c, 0, 58, 52
1, 205200, Note_off_c, 0, 58, 59
1, 205245, Note_off_c, 0, 67, 53
1, 205267, Note_on_c, 0, 75, 79
1, 205277, Note_on_c, 0, 55, 39
1, 205324, Note_off_c, 0, 55, 46
1, 205358, Note_on_c, 0, 51, 52
1, 205385, Note_off_c, 0, 51, 63
1, 205475, Note_on_c, 0, 46, 66
1, 205492, Note_on_c, 0, 65, 63
1, 205572, Note_off_c, 0, 65, 60
1, 205572, Note_off_c, 0, 75, 38
1, 205596, Note_on_c, 0, 74, 72
1, 205704, Note_off_c, 0, 46, 0
1, 205708, Note_on_c, 0, 56, 77
1, 205712, Note_on_c, 0, 72, 77
1, 205717, Note_off_c, 0, 74, 61
1, 205724, Note_on_c, 0, 46, 27
1, 205788, Note_off_c, 0, 72, 62
1, 205823, Note_on_c, 0, 74, 78
1, 205826, Note_off_c, 0, 56, 58
1, 205924, Note_off_c, 0, 74, 61
1, 205924, Note_off_c, 0, 46, 20
1, 205965, Note_on_c, 0, 70, 88
1, 205966, Note_on_c, 0, 55, 71
1, 206019, Note_off_c, 0, 70, 62
1, 206071, Note_on_c, 0, 75, 89
1, 206134, Note_off_c, 0, 75, 64
1, 206177, Note_off_c, 0, 55, 41
1, 206196, Note_on_c, 0, 74, 85
1, 206204, Note_on_c, 0, 53, 80
1, 206252, Note_off_c, 0, 74, 65
1, 206303, Note_on_c, 0, 75, 81
1, 206312, Note_off_c, 0, 53, 0
1, 206350, Poly_aftertouch_c, 0, 53, 127
1, 206359, Note_off_c, 0, 75, 64
1, 206407, Poly_aftertouch_c, 0, 53, 0
1, 206428, Note_on_c, 0, 51, 72
1, 206430, Note_on_c, 0, 79, 81
1, 206507, Note_off_c, 0, 51, 57
1, 206536, Note_on_c, 0, 48, 71
1, 206588, Note_off_c, 0, 48, 57
1, 206595, Note_off_c, 0, 79, 48
1, 206653, Note_on_c, 0, 77, 69
1, 206655, Note_on_c, 0, 50, 62
1, 206657, Note_on_c, 0, 68, 67
1, 206687, Note_off_c, 0, 68, 66
1, 206698, Note_off_c, 0, 50, 62
1, 206758, Note_on_c, 0, 51, 64
1, 206764, Note_on_c, 0, 67, 72
1, 206815, Note_off_c, 0, 67, 60
1, 206821, Note_off_c, 0, 51, 52
1, 206834, Note_off_c, 0, 77, 54
1, 206883, Note_on_c, 0, 53, 73
1, 206893, Note_on_c, 0, 68, 89
1, 206910, Note_off_c, 0, 53, 67
1, 207081, Note_off_c, 0, 68, 62
1, 207110, Note_on_c, 0, 65, 77
1, 207112, Note_on_c, 0, 74, 78
1, 207137, Note_off_c, 0, 65, 65
1, 207170, Note_off_c, 0, 74, 60
1, 207208, Note_on_c, 0, 70, 80
1, 207273, Note_off_c, 0, 70, 60
1, 207327, Note_on_c, 0, 80, 88
1, 207335, Note_on_c, 0, 62, 74
1, 207415, Note_off_c, 0, 62, 59
1, 207461, Note_on_c, 0, 51, 55
1, 207498, Note_off_c, 0, 80, 64
1, 207545, Note_off_c, 0, 51, 58
1, 207571, Note_on_c, 0, 75, 75
1, 207571, Note_on_c, 0, 79, 79
1, 207579, Note_on_c, 0, 53, 55
1, 207622, Note_off_c, 0, 53, 63
1, 207688, Note_on_c, 0, 55, 65
1, 207722, Note_off_c, 0, 55, 63
1, 207733, Note_off_c, 0, 79, 52
1, 207755, Note_off_c, 0, 75, 62
1, 207804, Note_on_c, 0, 77, 78
1, 207806, Note_on_c, 0, 56, 51
1, 207876, Note_off_c, 0, 56, 52
1, 207918, Note_on_c, 0, 53, 58
1, 207972, Note_off_c, 0, 53, 56
1, 208029, Note_off_c, 0, 77, 58
1, 208035, Note_on_c, 0, 74, 62
1, 208044, Note_on_c, 0, 46, 46
1, 208084, Note_off_c, 0, 46, 53
1, 208151, Note_on_c, 0, 56, 63
1, 208195, Note_off_c, 0, 56, 56
1, 208243, Note_off_c, 0, 74, 59
1, 208275, Note_on_c, 0, 55, 77
1, 208283, Note_on_c, 0, 75, 71
1, 208397, Note_on_c, 0, 82, 60
1, 208415, Note_off_c, 0, 75, 54
1, 208509, Note_off_c, 0, 82, 52
1, 208514, Note_on_c, 0, 58, 78
1, 208518, Note_off_c, 0, 55, 56
1, 208522, Note_on_c, 0, 79, 63
1, 208619, Note_off_c, 0, 79, 58
1, 208630, Note_on_c, 0, 75, 59
1, 208717, Note_off_c, 0, 75, 59
1, 208726, Note_off_c, 0, 58, 63
1, 208744, Note_on_c, 0, 63, 87
1, 208756, Note_on_c, 0, 73, 68
1, 208869, Note_on_c, 0, 82, 60
1, 208871, Note_off_c, 0, 73, 54
1, 208973, Note_off_c, 0, 82, 57
1, 208979, Note_on_c, 0, 51, 37
1, 208998, Note_on_c, 0, 79, 56
1, 209010, Note_off_c, 0, 51, 46
1, 209041, Note_off_c, 0, 79, 56
1, 209090, Note_on_c, 0, 73, 60
1, 209127, Note_off_c, 0, 73, 61
1, 209200, Note_off_c, 0, 63, 56
1, 209202, Note_on_c, 0, 72, 79
1, 209219, Note_on_c, 0, 56, 49
1, 209287, Note_off_c, 0, 56, 55
1, 209328, Note_on_c, 0, 63, 54
1, 209402, Note_off_c, 0, 63, 56
1, 209454, Note_on_c, 0, 60, 41
1, 209456, Note_on_c, 0, 80, 69
1, 209456, Note_off_c, 0, 72, 62
1, 209488, Note_off_c, 0, 60, 51
1, 209559, Note_on_c, 0, 56, 53
1, 209602, Note_off_c, 0, 56, 59
1, 209671, Note_on_c, 0, 55, 56
1, 209728, Note_off_c, 0, 55, 57
1, 209732, Note_off_c, 0, 80, 17
1, 209775, Note_on_c, 0, 63, 58
1, 209816, Note_off_c, 0, 63, 62
1, 209881, Note_on_c, 0, 68, 65
1, 209886, Note_on_c, 0, 60, 58
1, 209925, Note_off_c, 0, 60, 58
1, 209980, Note_on_c, 0, 55, 62
1, 210028, Note_off_c, 0, 55, 61
1, 210041, Note_off_c, 0, 68, 63
1, 210100, Note_on_c, 0, 53, 78
1, 210106, Note_on_c, 0, 74, 64
1, 210219, Note_on_c, 0, 80, 69
1, 210265, Note_off_c, 0, 74, 51
1, 210285, Note_off_c, 0, 80, 53
1, 210301, Note_off_c, 0, 53, 35
1, 210339, Note_on_c, 0, 56, 79
1, 210347, Note_on_c, 0, 77, 72
1, 210445, Note_off_c, 0, 77, 49
1, 210456, Note_on_c, 0, 74, 66
1, 210494, Note_off_c, 0, 56, 0
1, 210494, Note_on_c, 0, 56, 7
1, 210562, Note_off_c, 0, 56, 63
1, 210562, Note_off_c, 0, 74, 51
1, 210580, Note_on_c, 0, 62, 86
1, 210585, Note_on_c, 0, 72, 77
1, 210684, Note_off_c, 0, 72, 51
1, 210698, Note_on_c, 0, 80, 63
1, 210786, Note_off_c, 0, 80, 50
1, 210818, Note_on_c, 0, 50, 60
1, 210821, Note_on_c, 0, 77, 58
1, 210851, Note_off_c, 0, 50, 62
1, 210869, Note_off_c, 0, 77, 57
1, 210917, Note_on_c, 0, 72, 63
1, 210970, Note_off_c, 0, 72, 56
1, 211036, Note_off_c, 0, 62, 50
1, 211044, Note_on_c, 0, 71, 73
1, 211053, Note_on_c, 0, 55, 56
1, 211135, Note_off_c, 0, 55, 62
1, 211171, Note_on_c, 0, 62, 56
1, 211230, Note_off_c, 0, 62, 54
1, 211271, Note_off_c, 0, 71, 58
1, 211289, Note_on_c, 0, 59, 59
1, 211299, Note_on_c, 0, 79, 62
1, 211329, Note_off_c, 0, 59, 60
1, 211396, Note_on_c, 0, 55, 61
1, 211435, Note_off_c, 0, 55, 62
1, 211489, Note_off_c, 0, 79, 0
1, 211507, Note_on_c, 0, 53, 66
1, 211527, Poly_aftertouch_c, 0, 79, 127
1, 211561, Note_off_c, 0, 53, 56
1, 211621, Note_on_c, 0, 62, 63
1, 211638, Poly_aftertouch_c, 0, 79, 0
1, 211683, Note_off_c, 0, 62, 55
1, 211733, Note_on_c, 0, 59, 58
1, 211734, Note_on_c, 0, 67, 72
1, 211772, Note_off_c, 0, 59, 60
1, 211836, Note_on_c, 0, 53, 64
1, 211888, Note_off_c, 0, 53, 61
1, 211906, Note_off_c, 0, 67, 50
1, 211962, Note_on_c, 0, 52, 72
1, 211964, Note_on_c, 0, 72, 67
1, 212016, Note_off_c, 0, 52, 57
1, 212032, Note_off_c, 0, 72, 56
1, 212067, Note_on_c, 0, 79, 63
1, 212163, Note_off_c, 0, 79, 38
1, 212196, Note_on_c, 0, 55, 75
1, 212202, Note_on_c, 0, 76, 65
1, 212244, Note_off_c, 0, 55, 59
1, 212255, Note_off_c, 0, 76, 64
1, 212308, Note_on_c, 0, 72, 67
1, 212369, Note_off_c, 0, 72, 60
1, 212427, Note_on_c, 0, 60, 83
1, 212443, Note_on_c, 0, 70, 65
1, 212537, Note_off_c, 0, 70, 56
1, 212553, Note_on_c, 0, 79, 56
1, 212660, Note_off_c, 0, 79, 35
1, 212667, Note_on_c, 0, 48, 66
1, 212676, Note_on_c, 0, 76, 53
1, 212705, Note_off_c, 0, 48, 60
1, 212738, Note_off_c, 0, 76, 66
1, 212782, Note_on_c, 0, 70, 62
1, 212826, Note_off_c, 0, 70, 60
1, 212893, Note_on_c, 0, 53, 65
1, 212906, Note_on_c, 0, 69, 59
1, 212983, Control_c, 0, 64, 47
1, 212998, Control_c, 0, 64, 59
1, 213012, Control_c, 0, 64, 64
1, 213015, Note_on_c, 0, 79, 62
1, 213015, Note_off_c, 0, 69, 48
1, 213027, Control_c, 0, 64, 66
1, 213042, Control_c, 0, 64, 69
1, 213057, Control_c, 0, 64, 72
1, 213072, Control_c, 0, 64, 75
1, 213075, Note_off_c, 0, 53, 56
1, 213087, Control_c, 0, 64, 78
1, 213098, Note_off_c, 0, 79, 51
1, 213102, Control_c, 0, 64, 80
1, 213108, Note_on_c, 0, 51, 67
1, 213117, Control_c, 0, 64, 82
1, 213121, Note_on_c, 0, 72, 73
1, 213131, Control_c, 0, 64, 83
1, 213147, Control_c, 0, 64, 85
1, 213161, Control_c, 0, 64, 86
1, 213175, Note_off_c, 0, 72, 63
1, 213176, Control_c, 0, 64, 88
1, 213191, Control_c, 0, 64, 90
1, 213206, Control_c, 0, 64, 91
1, 213215, Note_off_c, 0, 60, 51
1, 213221, Control_c, 0, 64, 91
1, 213226, Note_on_c, 0, 67, 78
1, 213251, Control_c, 0, 64, 91
1, 213266, Control_c, 0, 64, 89
1, 213280, Control_c, 0, 64, 81
1, 213291, Note_off_c, 0, 51, 58
1, 213293, Note_off_c, 0, 67, 63
1, 213295, Control_c, 0, 64, 63
1, 213310, Control_c, 0, 64, 0
1, 213338, Note_on_c, 0, 59, 70
1, 213344, Note_on_c, 0, 68, 82
1, 213355, Note_on_c, 0, 50, 58
1, 213406, Control_c, 0, 64, 64
1, 213421, Control_c, 0, 64, 73
1, 213422, Note_off_c, 0, 68, 55
1, 213436, Control_c, 0, 64, 86
1, 213449, Note_off_c, 0, 59, 62
1, 213451, Control_c, 0, 64, 98
1, 213451, Note_off_c, 0, 50, 62
1, 213465, Control_c, 0, 64, 108
1, 213466, Note_on_c, 0, 77, 79
1, 213471, Note_on_c, 0, 68, 35
1, 213480, Control_c, 0, 64, 112
1, 213495, Note_off_c, 0, 68, 56
1, 213510, Control_c, 0, 64, 112
1, 213525, Control_c, 0, 64, 103
1, 213526, Note_off_c, 0, 77, 58
1, 213540, Control_c, 0, 64, 85
1, 213554, Control_c, 0, 64, 63
1, 213569, Control_c, 0, 64, 0
1, 213579, Note_on_c, 0, 60, 73
1, 213582, Note_on_c, 0, 74, 77
1, 213588, Note_on_c, 0, 48, 65
1, 213614, Control_c, 0, 64, 64
1, 213628, Control_c, 0, 64, 76
1, 213631, Note_off_c, 0, 60, 59
1, 213643, Control_c, 0, 64, 91
1, 213658, Control_c, 0, 64, 105
1, 213672, Control_c, 0, 64, 114
1, 213683, Note_on_c, 0, 68, 89
1, 213684, Note_off_c, 0, 74, 36
1, 213687, Control_c, 0, 64, 121
1, 213692, Note_off_c, 0, 48, 62
1, 213702, Control_c, 0, 64, 123
1, 213717, Control_c, 0, 64, 125
1, 213732, Control_c, 0, 64, 124
1, 213740, Note_off_c, 0, 68, 61
1, 213746, Control_c, 0, 64, 118
1, 213761, Control_c, 0, 64, 101
1, 213776, Control_c, 0, 64, 81
1, 213791, Control_c, 0, 64, 0
1, 213805, Note_on_c, 0, 67, 78
1, 213806, Note_on_c, 0, 62, 77
1, 213818, Note_on_c, 0, 47, 65
1, 213835, Control_c, 0, 64, 47
1, 213850, Control_c, 0, 64, 70
1, 213853, Note_off_c, 0, 62, 62
1, 213865, Control_c, 0, 64, 84
1, 213880, Control_c, 0, 64, 102
1, 213895, Control_c, 0, 64, 111
1, 213907, Note_off_c, 0, 67, 60
1, 213910, Control_c, 0, 64, 113
1, 213930, Note_on_c, 0, 77, 73
1, 213971, Note_off_c, 0, 77, 55
1, 214014, Control_c, 0, 64, 113
1, 214016, Note_off_c, 0, 47, 63
1, 214029, Control_c, 0, 64, 111
1, 214037, Note_on_c, 0, 74, 77
1, 214044, Control_c, 0, 64, 108
1, 214045, Note_on_c, 0, 43, 54
1, 214059, Control_c, 0, 64, 104
1, 214074, Control_c, 0, 64, 101
1, 214086, Note_off_c, 0, 74, 63
1, 214089, Control_c, 0, 64, 100
1, 214103, Control_c, 0, 64, 99
1, 214140, Control_c, 0, 64, 99
1, 214144, Note_on_c, 0, 71, 87
1, 214193, Note_off_c, 0, 43, 0
1, 214193, Note_on_c, 0, 43, 3
1, 214194, Note_off_c, 0, 71, 59
1, 214214, Control_c, 0, 64, 98
1, 214229, Control_c, 0, 64, 95
1, 214244, Control_c, 0, 64, 86
1, 214255, Note_on_c, 0, 48, 81
1, 214258, Control_c, 0, 64, 73
1, 214261, Note_on_c, 0, 67, 83
1, 214261, Note_off_c, 0, 43, 40
1, 214273, Control_c, 0, 64, 0
1, 214357, Note_off_c, 0, 67, 49
1, 214365, Note_on_c, 0, 75, 73
1, 214425, Note_off_c, 0, 75, 62
1, 214446, Note_off_c, 0, 48, 64
1, 214479, Note_on_c, 0, 46, 69
1, 214481, Note_on_c, 0, 72, 73
1, 214546, Note_off_c, 0, 72, 59
1, 214581, Note_on_c, 0, 67, 67
1, 214616, Note_off_c, 0, 67, 64
1, 214663, Note_off_c, 0, 46, 19
1, 214692, Note_on_c, 0, 45, 61
1, 214706, Note_on_c, 0, 66, 70
1, 214759, Note_off_c, 0, 45, 47
1, 214778, Note_off_c, 0, 66, 49
1, 214810, Note_on_c, 0, 75, 60
1, 214916, Note_off_c, 0, 75, 58
1, 214922, Note_on_c, 0, 72, 70
1, 214923, Note_on_c, 0, 57, 71
1, 214977, Note_off_c, 0, 72, 55
1, 215024, Note_on_c, 0, 69, 77
1, 215087, Note_off_c, 0, 69, 63
1, 215120, Note_off_c, 0, 57, 59
1, 215153, Note_on_c, 0, 59, 76
1, 215153, Note_on_c, 0, 65, 86
1, 215260, Note_on_c, 0, 74, 82
1, 215280, Note_off_c, 0, 65, 63
1, 215333, Note_off_c, 0, 59, 61
1, 215373, Note_on_c, 0, 71, 81
1, 215375, Note_off_c, 0, 74, 37
1, 215378, Note_on_c, 0, 55, 71
1, 215483, Note_on_c, 0, 65, 81
1, 215489, Note_off_c, 0, 71, 38
1, 215537, Note_off_c, 0, 65, 65
1, 215579, Note_off_c, 0, 55, 58
1, 215597, Note_on_c, 0, 60, 82
1, 215607, Note_on_c, 0, 64, 90
1, 215720, Note_on_c, 0, 74, 67
1, 215725, Note_off_c, 0, 64, 62
1, 215818, Note_off_c, 0, 74, 54
1, 215829, Note_off_c, 0, 60, 57
1, 215838, Note_on_c, 0, 55, 68
1, 215844, Note_on_c, 0, 71, 67
1, 215928, Note_off_c, 0, 71, 59
1, 215952, Note_on_c, 0, 67, 69
1, 216016, Note_off_c, 0, 67, 58
1, 216035, Note_off_c, 0, 55, 62
1, 216061, Note_on_c, 0, 56, 69
1, 216067, Note_on_c, 0, 63, 81
1, 216154, Note_off_c, 0, 63, 62
1, 216187, Note_on_c, 0, 72, 48
1, 216196, Note_on_c, 0, 71, 49
1, 216219, Note_off_c, 0, 71, 57
1, 216231, Note_off_c, 0, 72, 63
1, 216262, Note_off_c, 0, 56, 59
1, 216287, Note_on_c, 0, 67, 74
1, 216289, Note_on_c, 0, 51, 77
1, 216355, Note_off_c, 0, 67, 56
1, 216396, Note_on_c, 0, 63, 75
1, 216464, Note_off_c, 0, 51, 45
1, 216464, Note_off_c, 0, 63, 63
1, 216518, Note_on_c, 0, 53, 86
1, 216518, Note_on_c, 0, 62, 84
1, 216575, Note_off_c, 0, 53, 57
1, 216626, Note_on_c, 0, 72, 69
1, 216682, Note_off_c, 0, 62, 39
1, 216715, Note_off_c, 0, 72, 55
1, 216742, Note_on_c, 0, 68, 72
1, 216755, Note_on_c, 0, 51, 61
1, 216794, Note_off_c, 0, 51, 61
1, 216812, Note_off_c, 0, 68, 59
1, 216843, Note_on_c, 0, 53, 74
1, 216847, Note_on_c, 0, 65, 71
1, 216883, Note_off_c, 0, 53, 61
1, 216894, Note_off_c, 0, 65, 59
1, 216955, Note_on_c, 0, 55, 81
1, 216959, Note_on_c, 0, 62, 80
1, 217022, Note_off_c, 0, 62, 56
1, 217063, Note_on_c, 0, 71, 78
1, 217134, Note_off_c, 0, 71, 59
1, 217180, Note_off_c, 0, 55, 44
1, 217191, Note_on_c, 0, 69, 79
1, 217242, Note_off_c, 0, 69, 59
1, 217301, Note_on_c, 0, 71, 68
1, 217412, Note_on_c, 0, 60, 91
1, 217413, Note_on_c, 0, 72, 81
1, 217424, Note_off_c, 0, 71, 35
1, 217457, Note_on_c, 0, 48, 22
1, 217458, Note_off_c, 0, 48, 127
1, 217466, Note_off_c, 0, 72, 64
1, 217520, Note_off_c, 0, 60, 55
1, 217528, Note_on_c, 0, 58, 72
1, 217629, Note_off_c, 0, 58, 45
1, 217649, Note_on_c, 0, 56, 65
1, 217651, Note_on_c, 0, 77, 74
1, 217707, Note_off_c, 0, 56, 51
1, 217760, Note_on_c, 0, 58, 71
1, 217822, Note_off_c, 0, 58, 64
1, 217829, Note_off_c, 0, 77, 55
1, 217878, Note_on_c, 0, 55, 73
1, 217895, Note_on_c, 0, 75, 79
1, 217952, Note_off_c, 0, 55, 62
1, 217991, Note_on_c, 0, 60, 82
1, 218057, Note_off_c, 0, 60, 59
1, 218062, Note_off_c, 0, 75, 63
1, 218113, Note_on_c, 0, 59, 85
1, 218114, Note_on_c, 0, 74, 78
1, 218183, Note_off_c, 0, 59, 62
1, 218218, Note_on_c, 0, 60, 86
1, 218284, Note_off_c, 0, 60, 60
1, 218337, Note_on_c, 0, 63, 95
1, 218351, Note_on_c, 0, 72, 80
1, 218364, Note_off_c, 0, 74, 31
1, 218425, Note_off_c, 0, 72, 59
1, 218460, Note_on_c, 0, 69, 73
1, 218505, Note_off_c, 0, 63, 62
1, 218515, Note_off_c, 0, 69, 63
1, 218569, Note_on_c, 0, 62, 75
1, 218575, Note_on_c, 0, 71, 70
1, 218628, Note_off_c, 0, 71, 62
1, 218681, Note_on_c, 0, 72, 77
1, 218720, Note_off_c, 0, 72, 64
1, 218753, Note_off_c, 0, 62, 61
1, 218802, Note_on_c, 0, 74, 84
1, 219015, Note_on_c, 0, 59, 72
1, 219054, Note_off_c, 0, 59, 60
1, 219119, Note_on_c, 0, 55, 70
1, 219161, Note_off_c, 0, 55, 60
1, 219236, Note_on_c, 0, 65, 94
1, 219285, Note_off_c, 0, 74, 61
1, 219365, Note_on_c, 0, 72, 68
1, 219419, Note_off_c, 0, 65, 56
1, 219433, Note_off_c, 0, 72, 61
1, 219471, Note_on_c, 0, 63, 79
1, 219482, Note_on_c, 0, 74, 71
1, 219505, Note_off_c, 0, 63, 63
1, 219544, Note_off_c, 0, 74, 60
1, 219584, Note_on_c, 0, 75, 69
1, 219635, Note_off_c, 0, 75, 56
1, 219685, Note_on_c, 0, 62, 92
1, 219692, Note_on_c, 0, 77, 82
1, 219797, Note_on_c, 0, 74, 63
1, 219801, Note_off_c, 0, 77, 53
1, 219868, Note_off_c, 0, 62, 60
1, 219890, Note_off_c, 0, 74, 58
1, 219911, Note_on_c, 0, 63, 56
1, 219917, Note_on_c, 0, 67, 61
1, 219933, Note_off_c, 0, 63, 59
1, 219966, Note_on_c, 0, 62, 60
1, 219997, Note_off_c, 0, 62, 64
1, 220004, Note_on_c, 0, 63, 65
1, 220015, Note_on_c, 0, 77, 53
1, 220038, Note_off_c, 0, 63, 57
1, 220068, Note_on_c, 0, 62, 68
1, 220127, Note_off_c, 0, 77, 54
1, 220134, Note_on_c, 0, 75, 65
1, 220137, Note_on_c, 0, 60, 73
1, 220152, Note_off_c, 0, 62, 61
1, 220181, Note_off_c, 0, 67, 32
1, 220217, Note_off_c, 0, 60, 47
1, 220237, Note_on_c, 0, 59, 72
1, 220250, Note_on_c, 0, 79, 69
1, 220250, Note_off_c, 0, 75, 40
1, 220279, Note_off_c, 0, 59, 57
1, 220307, Note_off_c, 0, 79, 59
1, 220352, Note_on_c, 0, 60, 76
1, 220355, Note_on_c, 0, 75, 85
1, 220408, Note_off_c, 0, 60, 59
1, 220413, Note_off_c, 0, 75, 62
1, 220456, Note_on_c, 0, 63, 74
1, 220458, Note_on_c, 0, 74, 85
1, 220513, Note_off_c, 0, 63, 63
1, 220524, Note_off_c, 0, 74, 62
1, 220584, Note_on_c, 0, 68, 74
1, 220584, Note_on_c, 0, 72, 79
1, 220700, Note_on_c, 0, 84, 79
1, 220784, Note_off_c, 0, 72, 45
1, 220807, Note_on_c, 0, 80, 77
1, 220812, Note_off_c, 0, 84, 61
1, 220885, Note_off_c, 0, 80, 62
1, 220930, Note_on_c, 0, 77, 78
1, 220987, Note_off_c, 0, 77, 59
1, 221040, Note_on_c, 0, 74, 71
1, 221102, Note_off_c, 0, 74, 63
1, 221142, Note_on_c, 0, 77, 73
1, 221209, Note_off_c, 0, 77, 57
1, 221249, Note_on_c, 0, 74, 69
1, 221251, Note_on_c, 0, 58, 63
1, 221292, Note_off_c, 0, 74, 64
1, 221305, Note_off_c, 0, 68, 47
1, 221332, Note_off_c, 0, 58, 61
1, 221343, Note_on_c, 0, 72, 68
1, 221349, Note_on_c, 0, 62, 68
1, 221373, Note_off_c, 0, 72, 66
1, 221451, Note_off_c, 0, 62, 56
1, 221466, Note_on_c, 0, 67, 72
1, 221469, Note_on_c, 0, 70, 80
1, 221581, Note_on_c, 0, 82, 77
1, 221620, Note_off_c, 0, 70, 52
1, 221696, Note_off_c, 0, 82, 55
1, 221705, Note_on_c, 0, 79, 73
1, 221758, Note_off_c, 0, 79, 60
1, 221808, Note_on_c, 0, 75, 82
1, 221864, Note_off_c, 0, 75, 64
1, 221923, Note_on_c, 0, 72, 77
1, 221987, Note_off_c, 0, 72, 59
1, 222022, Note_on_c, 0, 75, 75
1, 222062, Note_off_c, 0, 75, 59
1, 222139, Note_on_c, 0, 72, 71
1, 222141, Note_on_c, 0, 56, 61
1, 222170, Note_off_c, 0, 67, 39
1, 222182, Note_off_c, 0, 72, 66
1, 222195, Note_off_c, 0, 56, 55
1, 222235, Note_on_c, 0, 70, 69
1, 222247, Note_on_c, 0, 60, 48
1, 222275, Note_off_c, 0, 70, 63
1, 222312, Note_off_c, 0, 60, 51
1, 222370, Note_on_c, 0, 68, 74
1, 222376, Control_c, 0, 64, 43
1, 222378, Note_on_c, 0, 65, 64
1, 222390, Control_c, 0, 64, 64
1, 222405, Note_off_c, 0, 65, 68
1, 222405, Control_c, 0, 64, 69
1, 222420, Control_c, 0, 64, 73
1, 222435, Control_c, 0, 64, 77
1, 222450, Control_c, 0, 64, 81
1, 222461, Note_off_c, 0, 68, 60
1, 222465, Control_c, 0, 64, 83
1, 222480, Control_c, 0, 64, 85
1, 222483, Note_on_c, 0, 80, 70
1, 222509, Control_c, 0, 64, 85
1, 222560, Note_off_c, 0, 80, 63
1, 222602, Note_on_c, 0, 77, 66
1, 222699, Note_on_c, 0, 74, 59
1, 222705, Note_off_c, 0, 77, 49
1, 222729, Note_off_c, 0, 74, 66
1, 222777, Control_c, 0, 64, 85
1, 222792, Control_c, 0, 64, 84
1, 222806, Control_c, 0, 64, 80
1, 222821, Control_c, 0, 64, 75
1, 222836, Control_c, 0, 64, 66
1, 222837, Note_on_c, 0, 71, 73
1, 222840, Note_on_c, 0, 55, 78
1, 222851, Control_c, 0, 64, 25
1, 222865, Control_c, 0, 64, 0
1, 222941, Note_off_c, 0, 55, 60
1, 222942, Note_on_c, 0, 51, 73
1, 222944, Note_on_c, 0, 67, 66
1, 223015, Note_off_c, 0, 51, 61
1, 223067, Note_on_c, 0, 50, 79
1, 223067, Note_on_c, 0, 68, 80
1, 223086, Note_off_c, 0, 67, 35
1, 223189, Note_on_c, 0, 51, 82
1, 223198, Note_off_c, 0, 50, 50
1, 223254, Note_off_c, 0, 51, 61
1, 223273, Note_off_c, 0, 71, 51
1, 223305, Note_on_c, 0, 48, 88
1, 223312, Note_on_c, 0, 72, 81
1, 223329, Note_off_c, 0, 68, 62
1, 223372, Note_off_c, 0, 48, 62
1, 223424, Note_on_c, 0, 53, 80
1, 223499, Note_off_c, 0, 53, 57
1, 223538, Note_on_c, 0, 51, 83
1, 223547, Note_on_c, 0, 67, 70
1, 223619, Note_off_c, 0, 67, 60
1, 223627, Note_off_c, 0, 51, 60
1, 223644, Note_on_c, 0, 53, 85
1, 223710, Note_off_c, 0, 53, 64
1, 223768, Note_on_c, 0, 56, 91
1, 223784, Note_on_c, 0, 65, 80
1, 223792, Note_off_c, 0, 72, 49
1, 223897, Note_on_c, 0, 63, 68
1, 223901, Note_off_c, 0, 65, 55
1, 223926, Note_off_c, 0, 63, 67
1, 223955, Note_off_c, 0, 56, 58
1, 224014, Note_on_c, 0, 55, 73
1, 224014, Note_on_c, 0, 65, 66
1, 224018, Note_on_c, 0, 71, 55
1, 224043, Note_off_c, 0, 65, 67
1, 224074, Note_off_c, 0, 71, 54
1, 224112, Note_on_c, 0, 67, 77
1, 224155, Note_off_c, 0, 67, 61
1, 224191, Note_off_c, 0, 55, 50
1, 224230, Note_on_c, 0, 72, 73
1, 224234, Note_on_c, 0, 69, 76
1, 224298, Note_off_c, 0, 72, 58
1, 224304, Note_off_c, 0, 69, 59
1, 224342, Note_on_c, 0, 71, 75
1, 224424, Note_off_c, 0, 71, 55
1, 224453, Note_on_c, 0, 54, 79
1, 224459, Note_on_c, 0, 72, 77
1, 224533, Note_off_c, 0, 54, 52
1, 224561, Note_on_c, 0, 50, 75
1, 224567, Note_on_c, 0, 74, 70
1, 224570, Note_off_c, 0, 72, 60
1, 224629, Note_off_c, 0, 50, 59
1, 224690, Note_on_c, 0, 60, 91
1, 224695, Note_on_c, 0, 75, 75
1, 224698, Note_off_c, 0, 74, 33
1, 224761, Note_off_c, 0, 75, 59
1, 224808, Note_on_c, 0, 67, 77
1, 224874, Note_off_c, 0, 60, 57
1, 224877, Note_off_c, 0, 67, 61
1, 224921, Note_on_c, 0, 58, 79
1, 224939, Note_on_c, 0, 69, 63
1, 224940, Note_on_c, 0, 74, 58
1, 224970, Note_off_c, 0, 69, 66
1, 224983, Note_off_c, 0, 74, 57
1, 225038, Note_on_c, 0, 70, 68
1, 225069, Note_off_c, 0, 70, 64
1, 225083, Poly_aftertouch_c, 0, 74, 0
1, 225094, Note_off_c, 0, 58, 61
1, 225154, Note_on_c, 0, 57, 66
1, 225165, Note_on_c, 0, 76, 66
1, 225166, Note_on_c, 0, 72, 65
1, 225198, Note_off_c, 0, 76, 63
1, 225201, Control_c, 0, 64, 39
1, 225216, Control_c, 0, 64, 58
1, 225231, Control_c, 0, 64, 63
1, 225246, Control_c, 0, 64, 65
1, 225260, Control_c, 0, 64, 67
1, 225266, Note_off_c, 0, 72, 45
1, 225273, Note_on_c, 0, 69, 62
1, 225275, Control_c, 0, 64, 69
1, 225290, Control_c, 0, 64, 72
1, 225305, Control_c, 0, 64, 75
1, 225320, Control_c, 0, 64, 77
1, 225334, Control_c, 0, 64, 79
1, 225353, Note_off_c, 0, 69, 48
1, 225356, Control_c, 0, 64, 80
1, 225371, Control_c, 0, 64, 81
1, 225386, Control_c, 0, 64, 82
1, 225398, Note_on_c, 0, 62, 62
1, 225401, Control_c, 0, 64, 83
1, 225410, Note_on_c, 0, 78, 65
1, 225416, Note_off_c, 0, 57, 59
1, 225416, Control_c, 0, 64, 84
1, 225422, Note_off_c, 0, 62, 63
1, 225431, Control_c, 0, 64, 84
1, 225443, Note_off_c, 0, 78, 52
1, 225578, Control_c, 0, 64, 84
1, 225593, Control_c, 0, 64, 83
1, 225608, Control_c, 0, 64, 80
1, 225623, Control_c, 0, 64, 76
1, 225638, Note_on_c, 0, 55, 58
1, 225638, Note_on_c, 0, 79, 63
1, 225638, Control_c, 0, 64, 68
1, 225652, Control_c, 0, 64, 48
1, 225658, Note_on_c, 0, 70, 52
1, 225667, Control_c, 0, 64, 0
1, 225677, Note_off_c, 0, 55, 51
1, 225699, Note_off_c, 0, 70, 47
1, 225758, Note_on_c, 0, 74, 59
1, 225770, Note_on_c, 0, 58, 56
1, 225812, Note_off_c, 0, 58, 61
1, 225833, Note_off_c, 0, 74, 58
1, 225879, Note_on_c, 0, 72, 70
1, 225884, Note_on_c, 0, 56, 54
1, 225930, Note_off_c, 0, 56, 59
1, 225976, Note_off_c, 0, 72, 54
1, 225985, Note_on_c, 0, 58, 59
1, 225985, Note_on_c, 0, 74, 60
1, 226026, Note_off_c, 0, 58, 61
1, 226095, Note_on_c, 0, 55, 55
1, 226110, Note_on_c, 0, 70, 72
1, 226117, Note_off_c, 0, 74, 37
1, 226146, Note_off_c, 0, 55, 60
1, 226162, Note_off_c, 0, 79, 49
1, 226168, Note_off_c, 0, 70, 55
1, 226215, Note_on_c, 0, 56, 62
1, 226221, Note_on_c, 0, 76, 63
1, 226262, Note_off_c, 0, 56, 56
1, 226275, Note_off_c, 0, 76, 62
1, 226322, Note_on_c, 0, 74, 68
1, 226336, Note_on_c, 0, 53, 60
1, 226376, Note_off_c, 0, 53, 65
1, 226382, Note_off_c, 0, 74, 63
1, 226441, Note_on_c, 0, 76, 77
1, 226452, Note_on_c, 0, 55, 47
1, 226488, Note_off_c, 0, 55, 50
1, 226495, Note_off_c, 0, 76, 64
1, 226556, Note_on_c, 0, 79, 88
1, 226561, Note_on_c, 0, 52, 56
1, 226579, Control_c, 0, 64, 50
1, 226594, Control_c, 0, 64, 59
1, 226608, Control_c, 0, 64, 61
1, 226623, Control_c, 0, 64, 61
1, 226628, Note_off_c, 0, 52, 46
1, 226638, Control_c, 0, 64, 63
1, 226653, Control_c, 0, 64, 64
1, 226668, Control_c, 0, 64, 65
1, 226671, Note_on_c, 0, 73, 70
1, 226671, Note_on_c, 0, 60, 41
1, 226674, Note_off_c, 0, 79, 58
1, 226683, Control_c, 0, 64, 66
1, 226698, Control_c, 0, 64, 67
1, 226710, Note_off_c, 0, 60, 46
1, 226716, Note_off_c, 0, 73, 59
1, 226728, Control_c, 0, 64, 65
1, 226743, Control_c, 0, 64, 56
1, 226758, Control_c, 0, 64, 0
1, 226788, Note_on_c, 0, 77, 80
1, 226796, Note_on_c, 0, 56, 50
1, 226799, Note_on_c, 0, 72, 66
1, 226846, Note_off_c, 0, 56, 58
1, 226857, Note_off_c, 0, 72, 62
1, 226869, Control_c, 0, 64, 55
1, 226884, Control_c, 0, 64, 62
1, 226899, Control_c, 0, 64, 65
1, 226909, Note_on_c, 0, 70, 62
1, 226909, Note_off_c, 0, 77, 59
1, 226913, Control_c, 0, 64, 66
1, 226923, Note_on_c, 0, 53, 42
1, 226928, Control_c, 0, 64, 68
1, 226943, Control_c, 0, 64, 69
1, 226953, Note_off_c, 0, 53, 49
1, 226954, Note_off_c, 0, 70, 56
1, 226973, Control_c, 0, 64, 68
1, 226987, Control_c, 0, 64, 64
1, 227002, Control_c, 0, 64, 44
1, 227017, Control_c, 0, 64, 0
1, 227029, Note_on_c, 0, 68, 69
1, 227041, Note_on_c, 0, 48, 59
1, 227087, Note_off_c, 0, 48, 59
1, 227090, Control_c, 0, 64, 37
1, 227104, Control_c, 0, 64, 53
1, 227106, Note_off_c, 0, 68, 57
1, 227119, Control_c, 0, 64, 57
1, 227148, Note_on_c, 0, 67, 73
1, 227149, Control_c, 0, 64, 56
1, 227154, Note_on_c, 0, 53, 56
1, 227164, Control_c, 0, 64, 53
1, 227178, Control_c, 0, 64, 46
1, 227193, Control_c, 0, 64, 39
1, 227200, Note_off_c, 0, 53, 60
1, 227206, Note_off_c, 0, 67, 57
1, 227208, Control_c, 0, 64, 38
1, 227261, Note_on_c, 0, 65, 69
1, 227267, Control_c, 0, 64, 36
1, 227281, Note_on_c, 0, 48, 43
1, 227282, Control_c, 0, 64, 33
1, 227297, Control_c, 0, 64, 30
1, 227312, Control_c, 0, 64, 27
1, 227318, Note_off_c, 0, 48, 61
1, 227324, Note_off_c, 0, 65, 62
1, 227327, Control_c, 0, 64, 23
1, 227342, Control_c, 0, 64, 15
1, 227357, Control_c, 0, 64, 0
1, 227368, Note_on_c, 0, 67, 66
1, 227379, Note_on_c, 0, 44, 43
1, 227398, Note_off_c, 0, 67, 65
1, 227407, Note_off_c, 0, 44, 56
1, 227495, Note_on_c, 0, 77, 68
1, 227504, Note_on_c, 0, 41, 43
1, 227506, Note_on_c, 0, 68, 59
1, 227539, Note_off_c, 0, 41, 51
1, 227559, Note_off_c, 0, 68, 52
1, 227622, Note_on_c, 0, 72, 63
1, 227625, Note_on_c, 0, 56, 60
1, 227672, Note_off_c, 0, 56, 56
1, 227696, Note_off_c, 0, 72, 56
1, 227738, Note_on_c, 0, 55, 56
1, 227742, Note_on_c, 0, 70, 70
1, 227795, Note_off_c, 0, 55, 57
1, 227848, Note_on_c, 0, 56, 59
1, 227857, Note_on_c, 0, 72, 67
1, 227875, Note_off_c, 0, 70, 29
1, 227891, Note_off_c, 0, 56, 59
1, 227911, Note_off_c, 0, 77, 34
1, 227964, Note_on_c, 0, 53, 65
1, 227969, Note_off_c, 0, 72, 53
1, 227976, Note_on_c, 0, 68, 70
1, 228008, Note_off_c, 0, 53, 63
1, 228041, Note_off_c, 0, 68, 60
1, 228084, Note_on_c, 0, 74, 68
1, 228087, Note_on_c, 0, 55, 64
1, 228138, Note_off_c, 0, 55, 58
1, 228146, Note_off_c, 0, 74, 63
1, 228194, Note_on_c, 0, 72, 70
1, 228202, Note_on_c, 0, 51, 66
1, 228248, Note_off_c, 0, 51, 60
1, 228251, Note_off_c, 0, 72, 64
1, 228304, Note_on_c, 0, 53, 64
1, 228307, Note_on_c, 0, 74, 72
1, 228365, Note_off_c, 0, 53, 61
1, 228374, Note_off_c, 0, 74, 63
1, 228427, Note_on_c, 0, 77, 87
1, 228437, Note_on_c, 0, 50, 56
1, 228470, Control_c, 0, 64, 21
1, 228484, Control_c, 0, 64, 29
1, 228499, Control_c, 0, 64, 34
1, 228510, Note_off_c, 0, 50, 57
1, 228514, Control_c, 0, 64, 40
1, 228529, Control_c, 0, 64, 43
1, 228534, Note_off_c, 0, 77, 60
1, 228539, Note_on_c, 0, 72, 74
1, 228544, Control_c, 0, 64, 46
1, 228552, Note_on_c, 0, 58, 43
1, 228558, Control_c, 0, 64, 48
1, 228573, Control_c, 0, 64, 48
1, 228596, Note_off_c, 0, 58, 47
1, 228603, Control_c, 0, 64, 47
1, 228605, Note_off_c, 0, 72, 60
1, 228617, Control_c, 0, 64, 44
1, 228632, Control_c, 0, 64, 41
1, 228647, Control_c, 0, 64, 37
1, 228662, Note_on_c, 0, 70, 65
1, 228662, Control_c, 0, 64, 32
1, 228667, Note_on_c, 0, 75, 66
1, 228668, Note_on_c, 0, 55, 41
1, 228677, Control_c, 0, 64, 29
1, 228692, Control_c, 0, 64, 26
1, 228707, Control_c, 0, 64, 21
1, 228713, Note_off_c, 0, 55, 53
1, 228722, Control_c, 0, 64, 13
1, 228725, Note_off_c, 0, 70, 58
1, 228734, Note_off_c, 0, 75, 52
1, 228737, Control_c, 0, 64, 0
1, 228764, Note_on_c, 0, 68, 72
1, 228769, Note_on_c, 0, 51, 45
1, 228794, Note_off_c, 0, 51, 57
1, 228801, Note_off_c, 0, 68, 64
1, 228874, Note_on_c, 0, 67, 72
1, 228886, Note_on_c, 0, 46, 69
1, 228933, Note_off_c, 0, 46, 59
1, 228951, Note_off_c, 0, 67, 56
1, 228993, Note_on_c, 0, 65, 70
1, 229004, Note_on_c, 0, 51, 53
1, 229049, Note_off_c, 0, 65, 55
1, 229057, Note_off_c, 0, 51, 58
1, 229119, Note_on_c, 0, 63, 73
1, 229121, Note_on_c, 0, 46, 48
1, 229166, Note_off_c, 0, 46, 56
1, 229177, Note_off_c, 0, 63, 62
1, 229221, Note_on_c, 0, 43, 46
1, 229222, Note_on_c, 0, 65, 71
1, 229252, Note_off_c, 0, 43, 53
1, 229266, Note_off_c, 0, 65, 62
1, 229343, Note_on_c, 0, 67, 68
1, 229344, Note_on_c, 0, 39, 61
1, 229398, Note_off_c, 0, 67, 54
1, 229400, Note_off_c, 0, 39, 52
1, 229450, Note_on_c, 0, 70, 51
1, 229476, Note_off_c, 0, 70, 39
1, 229565, Note_on_c, 0, 51, 64
1, 229573, Note_on_c, 0, 75, 60
1, 229661, Note_off_c, 0, 75, 59
1, 229666, Note_on_c, 0, 72, 68
1, 229722, Note_off_c, 0, 72, 60
1, 229732, Note_off_c, 0, 51, 22
1, 229785, Note_on_c, 0, 53, 64
1, 229789, Note_on_c, 0, 73, 82
1, 229897, Note_on_c, 0, 70, 69
1, 229986, Note_off_c, 0, 53, 37
1, 230019, Note_on_c, 0, 67, 70
1, 230024, Note_on_c, 0, 55, 66
1, 230037, Note_off_c, 0, 70, 53
1, 230051, Note_off_c, 0, 55, 65
1, 230089, Note_off_c, 0, 67, 61
1, 230117, Note_on_c, 0, 63, 79
1, 230188, Note_off_c, 0, 63, 64
1, 230239, Note_on_c, 0, 56, 84
1, 230253, Note_off_c, 0, 73, 60
1, 230353, Note_on_c, 0, 72, 74
1, 230406, Note_off_c, 0, 72, 60
1, 230461, Note_on_c, 0, 53, 60
1, 230469, Note_on_c, 0, 77, 85
1, 230469, Note_off_c, 0, 56, 58
1, 230520, Note_off_c, 0, 77, 59
1, 230568, Note_on_c, 0, 74, 75
1, 230624, Note_off_c, 0, 74, 64
1, 230695, Note_on_c, 0, 55, 71
1, 230698, Note_on_c, 0, 75, 86
1, 230698, Note_off_c, 0, 53, 42
1, 230732, Note_off_c, 0, 55, 64
1, 230793, Note_on_c, 0, 72, 74
1, 230899, Note_off_c, 0, 72, 58
1, 230915, Note_on_c, 0, 69, 72
1, 230919, Note_on_c, 0, 57, 79
1, 230941, Note_off_c, 0, 57, 68
1, 230960, Note_off_c, 0, 69, 65
1, 231010, Note_on_c, 0, 65, 70
1, 231087, Note_off_c, 0, 65, 56
1, 231127, Note_on_c, 0, 58, 91
1, 231134, Note_off_c, 0, 75, 61
1, 231231, Note_on_c, 0, 74, 67
1, 231288, Note_off_c, 0, 74, 61
1, 231332, Note_off_c, 0, 58, 61
1, 231357, Note_on_c, 0, 55, 66
1, 231359, Note_on_c, 0, 79, 81
1, 231458, Note_on_c, 0, 75, 79
1, 231488, Note_off_c, 0, 79, 62
1, 231525, Note_off_c, 0, 75, 64
1, 231540, Note_off_c, 0, 55, 62
1, 231582, Note_on_c, 0, 57, 79
1, 231592, Note_on_c, 0, 77, 96
1, 231694, Note_on_c, 0, 74, 76
1, 231769, Note_off_c, 0, 57, 51
1, 231782, Note_off_c, 0, 74, 59
1, 231813, Note_on_c, 0, 59, 87
1, 231817, Note_on_c, 0, 71, 77
1, 231884, Note_off_c, 0, 71, 58
1, 231917, Note_on_c, 0, 67, 81
1, 231979, Note_off_c, 0, 67, 56
1, 231986, Note_off_c, 0, 59, 55
1, 232028, Note_off_c, 0, 77, 59
1, 232037, Note_on_c, 0, 60, 94
1, 232148, Note_on_c, 0, 75, 68
1, 232226, Note_off_c, 0, 75, 62
1, 232278, Note_on_c, 0, 48, 79
1, 232284, Note_on_c, 0, 79, 65
1, 232286, Note_off_c, 0, 60, 37
1, 232397, Note_off_c, 0, 79, 59
1, 232401, Note_on_c, 0, 82, 64
1, 232451, Note_off_c, 0, 48, 53
1, 232475, Note_off_c, 0, 82, 60
1, 232520, Note_on_c, 0, 50, 70
1, 232526, Note_on_c, 0, 80, 79
1, 232624, Note_off_c, 0, 80, 62
1, 232637, Note_on_c, 0, 77, 71
1, 232655, Note_on_c, 0, 76, 56
1, 232680, Note_off_c, 0, 76, 54
1, 232703, Note_off_c, 0, 50, 26
1, 232711, Note_off_c, 0, 77, 52
1, 232747, Note_on_c, 0, 70, 86
1, 232751, Note_on_c, 0, 51, 71
1, 232847, Note_off_c, 0, 70, 51
1, 232858, Note_on_c, 0, 79, 85
1, 232898, Note_on_c, 0, 78, 42
1, 232921, Note_off_c, 0, 78, 55
1, 232929, Note_off_c, 0, 79, 63
1, 232941, Note_off_c, 0, 51, 53
1, 232980, Note_on_c, 0, 77, 99
1, 233097, Note_on_c, 0, 50, 65
1, 233149, Note_off_c, 0, 77, 52
1, 233151, Note_off_c, 0, 50, 57
1, 233211, Note_on_c, 0, 48, 74
1, 233219, Note_on_c, 0, 77, 78
1, 233219, Note_on_c, 0, 80, 81
1, 233276, Note_off_c, 0, 48, 61
1, 233327, Note_on_c, 0, 50, 77
1, 233378, Note_off_c, 0, 77, 59
1, 233388, Note_off_c, 0, 80, 56
1, 233396, Note_off_c, 0, 50, 61
1, 233442, Note_on_c, 0, 46, 78
1, 233454, Note_on_c, 0, 79, 68
1, 233455, Note_on_c, 0, 75, 68
1, 233526, Note_off_c, 0, 46, 53
1, 233547, Note_off_c, 0, 79, 55
1, 233553, Note_on_c, 0, 51, 79
1, 233620, Note_off_c, 0, 51, 62
1, 233647, Note_off_c, 0, 75, 53
1, 233670, Note_on_c, 0, 50, 86
1, 233676, Note_on_c, 0, 77, 75
1, 233679, Note_on_c, 0, 68, 76
1, 233748, Note_off_c, 0, 50, 56
1, 233767, Note_off_c, 0, 68, 61
1, 233778, Note_on_c, 0, 51, 86
1, 233846, Note_off_c, 0, 77, 56
1, 233857, Note_off_c, 0, 51, 62
1, 233899, Note_on_c, 0, 55, 90
1, 233909, Note_on_c, 0, 70, 71
1, 233909, Note_on_c, 0, 75, 67
1, 233971, Note_off_c, 0, 70, 51
1, 233971, Note_off_c, 0, 75, 52
1, 234018, Note_on_c, 0, 72, 67
1, 234072, Note_off_c, 0, 55, 56
1, 234084, Note_off_c, 0, 72, 60
1, 234131, Note_on_c, 0, 53, 74
1, 234147, Note_on_c, 0, 68, 68
1, 234147, Note_on_c, 0, 74, 63
1, 234179, Note_off_c, 0, 74, 61
1, 234185, Note_off_c, 0, 68, 60
1, 234252, Note_on_c, 0, 75, 71
1, 234308, Note_off_c, 0, 75, 62
1, 234317, Note_off_c, 0, 53, 58
1, 234377, Note_on_c, 0, 77, 73
1, 234379, Note_on_c, 0, 68, 76
1, 234426, Note_off_c, 0, 68, 62
1, 234488, Note_on_c, 0, 74, 63
1, 234582, Note_off_c, 0, 74, 58
1, 234596, Note_on_c, 0, 50, 66
1, 234600, Note_on_c, 0, 70, 63
1, 234656, Note_off_c, 0, 50, 59
1, 234660, Note_off_c, 0, 70, 61
1, 234705, Note_on_c, 0, 46, 65
1, 234705, Note_off_c, 0, 77, 0
1, 234707, Note_on_c, 0, 65, 68
1, 234733, Note_off_c, 0, 46, 65
1, 234744, Note_off_c, 0, 65, 58
1, 234744, Poly_aftertouch_c, 0, 77, 127
1, 234831, Note_on_c, 0, 62, 74
1, 234836, Note_on_c, 0, 56, 74
1, 234853, Poly_aftertouch_c, 0, 77, 0
1, 234865, Note_off_c, 0, 62, 64
1, 234877, Note_off_c, 0, 56, 55
1, 234949, Note_on_c, 0, 75, 59
1, 235053, Note_on_c, 0, 55, 73
1, 235053, Note_on_c, 0, 63, 81
1, 235080, Note_on_c, 0, 77, 68
1, 235112, Note_off_c, 0, 75, 30
1, 235206, Note_on_c, 0, 79, 67
1, 235238, Note_off_c, 0, 77, 53
1, 235313, Note_on_c, 0, 53, 73
1, 235324, Note_on_c, 0, 80, 71
1, 235336, Note_off_c, 0, 79, 56
1, 235336, Note_off_c, 0, 55, 57
1, 235387, Note_off_c, 0, 63, 58
1, 235420, Note_on_c, 0, 77, 68
1, 235435, Note_off_c, 0, 80, 53
1, 235501, Note_off_c, 0, 77, 54
1, 235539, Note_on_c, 0, 62, 67
1, 235545, Note_on_c, 0, 74, 74
1, 235576, Note_off_c, 0, 62, 60
1, 235599, Note_off_c, 0, 53, 64
1, 235647, Note_on_c, 0, 80, 78
1, 235660, Note_off_c, 0, 74, 63
1, 235715, Note_off_c, 0, 80, 62
1, 235772, Note_on_c, 0, 79, 76
1, 235779, Note_on_c, 0, 51, 65
1, 235788, Note_on_c, 0, 63, 41
1, 235801, Control_c, 0, 64, 18
1, 235812, Note_off_c, 0, 51, 55
1, 235816, Note_off_c, 0, 63, 35
1, 235816, Control_c, 0, 64, 57
1, 235839, Control_c, 0, 64, 62
1, 235854, Control_c, 0, 64, 64
1, 235868, Control_c, 0, 64, 65
1, 235883, Control_c, 0, 64, 68
1, 235887, Note_on_c, 0, 82, 80
1, 235893, Note_off_c, 0, 79, 62
1, 235898, Control_c, 0, 64, 70
1, 235913, Control_c, 0, 64, 73
1, 235928, Control_c, 0, 64, 74
1, 235942, Control_c, 0, 64, 74
1, 235986, Note_off_c, 0, 82, 56
1, 235990, Note_on_c, 0, 80, 75
1, 236005, Note_on_c, 0, 39, 70
1, 236016, Control_c, 0, 64, 74
1, 236061, Control_c, 0, 64, 73
1, 236065, Note_off_c, 0, 80, 58
1, 236091, Control_c, 0, 64, 73
1, 236113, Note_on_c, 0, 75, 64
1, 236143, Note_off_c, 0, 75, 69
1, 236150, Control_c, 0, 64, 72
1, 236165, Control_c, 0, 64, 72
1, 236176, Note_off_c, 0, 39, 30
1, 236180, Control_c, 0, 64, 70
1, 236194, Control_c, 0, 64, 68
1, 236209, Control_c, 0, 64, 64
1, 236222, Note_on_c, 0, 41, 69
1, 236224, Control_c, 0, 64, 51
1, 236225, Note_on_c, 0, 73, 83
1, 236239, Control_c, 0, 64, 0
1, 236276, Note_off_c, 0, 41, 58
1, 236331, Note_on_c, 0, 70, 60
1, 236436, Note_on_c, 0, 43, 64
1, 236448, Note_on_c, 0, 67, 57
1, 236466, Note_off_c, 0, 43, 63
1, 236486, Note_off_c, 0, 70, 36
1, 236535, Note_off_c, 0, 67, 57
1, 236552, Note_on_c, 0, 63, 58
1, 236575, Note_off_c, 0, 63, 65
1, 236634, Note_off_c, 0, 73, 53
1, 236675, Note_on_c, 0, 56, 80
1, 236679, Note_on_c, 0, 44, 72
1, 236691, Control_c, 0, 64, 55
1, 236706, Control_c, 0, 64, 63
1, 236721, Control_c, 0, 64, 66
1, 236735, Note_off_c, 0, 56, 57
1, 236735, Control_c, 0, 64, 68
1, 236750, Control_c, 0, 64, 72
1, 236765, Control_c, 0, 64, 76
1, 236767, Note_off_c, 0, 44, 58
1, 236780, Control_c, 0, 64, 78
1, 236785, Note_on_c, 0, 84, 89
1, 236795, Control_c, 0, 64, 79
1, 236824, Control_c, 0, 64, 80
1, 236857, Note_off_c, 0, 84, 62
1, 236898, Note_on_c, 0, 80, 93
1, 236901, Note_on_c, 0, 41, 73
1, 236961, Note_off_c, 0, 80, 63
1, 237004, Note_on_c, 0, 77, 86
1, 237050, Note_off_c, 0, 77, 63
1, 237086, Note_off_c, 0, 41, 55
1, 237107, Control_c, 0, 64, 79
1, 237122, Control_c, 0, 64, 76
1, 237124, Note_on_c, 0, 75, 90
1, 237130, Note_on_c, 0, 43, 79
1, 237137, Control_c, 0, 64, 70
1, 237152, Control_c, 0, 64, 62
1, 237166, Control_c, 0, 64, 0
1, 237222, Note_on_c, 0, 72, 71
1, 237256, Note_off_c, 0, 43, 36
1, 237351, Note_on_c, 0, 69, 81
1, 237358, Note_on_c, 0, 45, 72
1, 237383, Note_off_c, 0, 45, 67
1, 237384, Note_off_c, 0, 72, 63
1, 237426, Note_off_c, 0, 69, 58
1, 237450, Note_on_c, 0, 65, 82
1, 237468, Note_off_c, 0, 75, 33
1, 237527, Note_off_c, 0, 65, 61
1, 237569, Note_on_c, 0, 58, 93
1, 237575, Note_on_c, 0, 74, 88
1, 237597, Note_on_c, 0, 46, 58
1, 237621, Note_off_c, 0, 46, 57
1, 237654, Note_off_c, 0, 74, 52
1, 237688, Note_on_c, 0, 77, 87
1, 237803, Note_on_c, 0, 46, 93
1, 237804, Note_on_c, 0, 74, 77
1, 237815, Note_off_c, 0, 77, 48
1, 237870, Control_c, 0, 64, 39
1, 237885, Control_c, 0, 64, 52
1, 237890, Note_off_c, 0, 74, 61
1, 237901, Control_c, 0, 64, 56
1, 237906, Note_on_c, 0, 70, 71
1, 237916, Control_c, 0, 64, 58
1, 237930, Control_c, 0, 64, 59
1, 237932, Note_off_c, 0, 70, 68
1, 237945, Control_c, 0, 64, 60
1, 237975, Control_c, 0, 64, 60
1, 237989, Control_c, 0, 64, 58
1, 238000, Note_off_c, 0, 58, 59
1, 238004, Control_c, 0, 64, 52
1, 238019, Control_c, 0, 64, 37
1, 238022, Note_on_c, 0, 48, 81
1, 238029, Note_on_c, 0, 68, 80
1, 238034, Control_c, 0, 64, 0
1, 238052, Note_off_c, 0, 46, 62
1, 238144, Note_on_c, 0, 65, 56
1, 238255, Note_off_c, 0, 65, 62
1, 238262, Note_on_c, 0, 50, 71
1, 238264, Note_on_c, 0, 62, 62
1, 238267, Note_off_c, 0, 48, 58
1, 238289, Note_off_c, 0, 50, 66
1, 238320, Note_off_c, 0, 62, 58
1, 238372, Note_on_c, 0, 58, 60
1, 238428, Note_off_c, 0, 58, 58
1, 238494, Note_on_c, 0, 51, 60
1, 238579, Note_off_c, 0, 68, 38
1, 238590, Note_on_c, 0, 67, 68
1, 238709, Note_on_c, 0, 65, 78
1, 238715, Note_on_c, 0, 61, 65
1, 238729, Note_off_c, 0, 67, 52
1, 238784, Note_off_c, 0, 61, 60
1, 238805, Note_off_c, 0, 65, 47
1, 238820, Note_on_c, 0, 67, 84
1, 238899, Note_off_c, 0, 67, 56
1, 238938, Note_on_c, 0, 60, 68
1, 238939, Note_on_c, 0, 63, 92
1, 238998, Note_off_c, 0, 63, 64
1, 239045, Note_on_c, 0, 68, 90
1, 239056, Note_off_c, 0, 51, 0
1, 239092, Poly_aftertouch_c, 0, 51, 127
1, 239107, Note_off_c, 0, 68, 64
1, 239146, Note_off_c, 0, 60, 50
1, 239164, Note_on_c, 0, 67, 91
1, 239170, Note_on_c, 0, 58, 65
1, 239212, Note_off_c, 0, 67, 65
1, 239268, Note_on_c, 0, 68, 95
1, 239319, Note_off_c, 0, 58, 37
1, 239321, Note_off_c, 0, 68, 66
1, 239378, Note_on_c, 0, 56, 66
1, 239381, Poly_aftertouch_c, 0, 51, 0
1, 239388, Note_on_c, 0, 72, 100
1, 239442, Note_off_c, 0, 56, 56
1, 239485, Note_on_c, 0, 55, 74
1, 239539, Note_off_c, 0, 55, 58
1, 239565, Note_off_c, 0, 72, 59
1, 239608, Note_on_c, 0, 56, 68
1, 239630, Note_on_c, 0, 70, 79
1, 239697, Note_off_c, 0, 56, 52
1, 239722, Note_on_c, 0, 58, 75
1, 239801, Note_off_c, 0, 58, 60
1, 239849, Note_on_c, 0, 60, 79
1, 239957, Note_off_c, 0, 70, 53
1, 239960, Note_off_c, 0, 60, 0
1, 239966, Note_on_c, 0, 50, 58
1, 239997, Poly_aftertouch_c, 0, 60, 127
1, 240018, Note_off_c, 0, 50, 52
1, 240052, Note_on_c, 0, 69, 84
1, 240074, Note_on_c, 0, 51, 55
1, 240102, Note_off_c, 0, 69, 62
1, 240162, Note_on_c, 0, 65, 85
1, 240163, Note_off_c, 0, 51, 62
1, 240166, Poly_aftertouch_c, 0, 60, 0
1, 240177, Note_on_c, 0, 60, 31
1, 240241, Note_off_c, 0, 65, 58
1, 240251, Note_off_c, 0, 60, 61
1, 240277, Note_on_c, 0, 75, 94
1, 240290, Note_on_c, 0, 55, 65
1, 240392, Note_on_c, 0, 58, 64
1, 240440, Note_off_c, 0, 75, 60
1, 240452, Note_off_c, 0, 58, 60
1, 240473, Note_off_c, 0, 55, 0
1, 240490, Note_on_c, 0, 55, 34
1, 240497, Note_on_c, 0, 74, 93
1, 240504, Note_on_c, 0, 60, 73
1, 240572, Note_off_c, 0, 60, 57
1, 240606, Note_off_c, 0, 55, 56
1, 240628, Note_on_c, 0, 62, 68
1, 240661, Note_off_c, 0, 62, 63
1, 240667, Note_off_c, 0, 74, 60
1, 240723, Note_on_c, 0, 72, 92
1, 240750, Note_on_c, 0, 63, 70
1, 240753, Note_on_c, 0, 51, 57
1, 240775, Control_c, 0, 64, 44
1, 240790, Control_c, 0, 64, 58
1, 240805, Control_c, 0, 64, 63
1, 240814, Note_off_c, 0, 63, 50
1, 240820, Control_c, 0, 64, 66
1, 240835, Control_c, 0, 64, 70
1, 240849, Control_c, 0, 64, 75
1, 240854, Note_off_c, 0, 72, 52
1, 240859, Note_on_c, 0, 60, 64
1, 240864, Control_c, 0, 64, 79
1, 240879, Control_c, 0, 64, 81
1, 240894, Control_c, 0, 64, 82
1, 240908, Control_c, 0, 64, 83
1, 240932, Note_on_c, 0, 74, 57
1, 240938, Control_c, 0, 64, 83
1, 240949, Note_off_c, 0, 60, 50
1, 240953, Control_c, 0, 64, 84
1, 240969, Note_off_c, 0, 74, 59
1, 240971, Note_off_c, 0, 51, 0
1, 240982, Control_c, 0, 64, 84
1, 240984, Note_on_c, 0, 72, 72
1, 240987, Note_on_c, 0, 53, 50
1, 240997, Control_c, 0, 64, 85
1, 241009, Poly_aftertouch_c, 0, 51, 127
1, 241019, Note_off_c, 0, 72, 61
1, 241027, Control_c, 0, 64, 85
1, 241029, Note_off_c, 0, 53, 63
1, 241049, Note_on_c, 0, 74, 68
1, 241049, Poly_aftertouch_c, 0, 51, 0
1, 241057, Control_c, 0, 64, 86
1, 241072, Note_off_c, 0, 74, 69
1, 241082, Note_on_c, 0, 72, 71
1, 241094, Control_c, 0, 64, 86
1, 241110, Note_off_c, 0, 72, 69
1, 241116, Note_on_c, 0, 74, 63
1, 241171, Note_on_c, 0, 72, 78
1, 241184, Note_off_c, 0, 74, 61
1, 241184, Control_c, 0, 64, 84
1, 241199, Control_c, 0, 64, 79
1, 241200, Note_on_c, 0, 70, 91
1, 241211, Note_on_c, 0, 46, 65
1, 241213, Control_c, 0, 64, 70
1, 241228, Control_c, 0, 64, 37
1, 241230, Note_off_c, 0, 72, 62
1, 241243, Control_c, 0, 64, 0
1, 241251, Note_off_c, 0, 46, 52
1, 241317, Note_on_c, 0, 53, 58
1, 241378, Note_off_c, 0, 53, 60
1, 241409, Note_off_c, 0, 70, 58
1, 241430, Note_on_c, 0, 50, 54
1, 241444, Note_on_c, 0, 77, 82
1, 241470, Note_off_c, 0, 50, 62
1, 241530, Note_on_c, 0, 46, 71
1, 241570, Note_off_c, 0, 46, 58
1, 241616, Note_off_c, 0, 77, 58
1, 241650, Note_on_c, 0, 44, 70
1, 241659, Note_on_c, 0, 74, 81
1, 241723, Note_off_c, 0, 44, 58
1, 241769, Note_on_c, 0, 53, 62
1, 241819, Note_off_c, 0, 53, 63
1, 241835, Note_off_c, 0, 74, 54
1, 241876, Note_on_c, 0, 70, 84
1, 241882, Note_on_c, 0, 50, 70
1, 241902, Control_c, 0, 64, 48
1, 241918, Control_c, 0, 64, 63
1, 241927, Note_off_c, 0, 70, 61
1, 241933, Note_off_c, 0, 50, 59
1, 241933, Control_c, 0, 64, 65
1, 241948, Control_c, 0, 64, 66
1, 241962, Control_c, 0, 64, 66
1, 241977, Control_c, 0, 64, 67
1, 241990, Note_on_c, 0, 44, 74
1, 242007, Control_c, 0, 64, 67
1, 242022, Control_c, 0, 64, 68
1, 242029, Note_off_c, 0, 44, 62
1, 242081, Control_c, 0, 64, 67
1, 242096, Control_c, 0, 64, 65
1, 242110, Control_c, 0, 64, 57
1, 242121, Note_on_c, 0, 82, 90
1, 242122, Note_on_c, 0, 43, 80
1, 242125, Control_c, 0, 64, 0
1, 242239, Note_on_c, 0, 70, 73
1, 242270, Note_off_c, 0, 70, 58
1, 242353, Note_on_c, 0, 55, 72
1, 242362, Note_on_c, 0, 75, 71
1, 242425, Note_off_c, 0, 55, 61
1, 242439, Note_off_c, 0, 75, 60
1, 242440, Note_off_c, 0, 43, 37
1, 242465, Note_on_c, 0, 79, 63
1, 242551, Note_off_c, 0, 79, 59
1, 242577, Note_on_c, 0, 73, 75
1, 242627, Note_off_c, 0, 73, 59
1, 242681, Note_on_c, 0, 70, 70
1, 242714, Note_off_c, 0, 70, 61
1, 242796, Note_on_c, 0, 39, 53
1, 242797, Note_on_c, 0, 73, 67
1, 242821, Note_off_c, 0, 82, 61
1, 242867, Note_off_c, 0, 73, 49
1, 242875, Note_off_c, 0, 39, 42
1, 242897, Note_on_c, 0, 79, 58
1, 242932, Note_off_c, 0, 79, 60
1, 243003, Note_on_c, 0, 44, 64
1, 243012, Note_on_c, 0, 72, 76
1, 243073, Note_off_c, 0, 44, 53
1, 243116, Note_on_c, 0, 51, 65
1, 243141, Note_off_c, 0, 72, 57
1, 243168, Note_off_c, 0, 51, 54
1, 243242, Note_on_c, 0, 48, 72
1, 243242, Note_on_c, 0, 75, 90
1, 243302, Note_off_c, 0, 48, 58
1, 243359, Note_on_c, 0, 44, 66
1, 243400, Note_off_c, 0, 75, 48
1, 243415, Note_off_c, 0, 44, 59
1, 243460, Note_on_c, 0, 43, 76
1, 243467, Note_on_c, 0, 72, 90
1, 243570, Note_on_c, 0, 51, 72
1, 243570, Note_off_c, 0, 43, 51
1, 243629, Note_off_c, 0, 51, 59
1, 243650, Note_off_c, 0, 72, 60
1, 243686, Note_on_c, 0, 48, 71
1, 243689, Note_on_c, 0, 68, 92
1, 243746, Note_off_c, 0, 48, 61
1, 243788, Note_on_c, 0, 43, 74
1, 243856, Note_off_c, 0, 43, 59
1, 243914, Note_on_c, 0, 41, 81
1, 243918, Note_on_c, 0, 80, 100
1, 243950, Note_off_c, 0, 68, 33
1, 244040, Note_on_c, 0, 68, 77
1, 244112, Note_off_c, 0, 68, 58
1, 244114, Note_off_c, 0, 41, 33
1, 244164, Note_on_c, 0, 74, 71
1, 244167, Note_on_c, 0, 53, 71
1, 244240, Note_off_c, 0, 74, 60
1, 244267, Note_on_c, 0, 77, 66
1, 244273, Note_off_c, 0, 53, 62
1, 244358, Note_off_c, 0, 77, 58
1, 244377, Note_on_c, 0, 72, 71
1, 244440, Note_off_c, 0, 72, 61
1, 244485, Note_on_c, 0, 68, 67
1, 244517, Note_off_c, 0, 68, 63
1, 244582, Note_on_c, 0, 72, 65
1, 244590, Note_on_c, 0, 38, 56
1, 244672, Note_off_c, 0, 72, 61
1, 244691, Note_on_c, 0, 77, 59
1, 244705, Note_off_c, 0, 38, 31
1, 244779, Note_off_c, 0, 77, 43
1, 244799, Note_on_c, 0, 43, 62
1, 244810, Note_on_c, 0, 70, 71
1, 244859, Note_off_c, 0, 80, 24
1, 244893, Note_off_c, 0, 43, 53
1, 244908, Note_on_c, 0, 50, 61
1, 244979, Note_off_c, 0, 50, 61
1, 244979, Note_off_c, 0, 70, 61
1, 245038, Note_on_c, 0, 74, 79
1, 245039, Note_on_c, 0, 46, 73
1, 245106, Note_off_c, 0, 46, 55
1, 245150, Note_on_c, 0, 43, 65
1, 245203, Note_off_c, 0, 43, 58
1, 245203, Note_off_c, 0, 74, 51
1, 245261, Note_on_c, 0, 41, 71
1, 245266, Note_on_c, 0, 70, 86
1, 245352, Note_off_c, 0, 41, 61
1, 245375, Note_on_c, 0, 49, 75
1, 245433, Note_off_c, 0, 70, 56
1, 245439, Note_off_c, 0, 49, 57
1, 245483, Note_on_c, 0, 67, 88
1, 245495, Note_on_c, 0, 46, 76
1, 245575, Note_off_c, 0, 46, 57
1, 245603, Note_on_c, 0, 41, 68
1, 245661, Note_off_c, 0, 41, 59
1, 245677, Note_off_c, 0, 67, 56
1, 245710, Note_on_c, 0, 79, 95
1, 245716, Note_on_c, 0, 40, 76
1, 245820, Note_off_c, 0, 40, 43
1, 245826, Note_on_c, 0, 48, 61
1, 245879, Note_off_c, 0, 48, 61
1, 245938, Note_on_c, 0, 70, 77
1, 245942, Note_on_c, 0, 43, 51
1, 245996, Note_off_c, 0, 43, 52
1, 246035, Note_on_c, 0, 40, 67
1, 246080, Note_off_c, 0, 40, 59
1, 246147, Note_on_c, 0, 41, 69
1, 246147, Note_off_c, 0, 70, 61
1, 246159, Note_on_c, 0, 68, 78
1, 246206, Note_off_c, 0, 41, 60
1, 246223, Note_off_c, 0, 79, 45
1, 246262, Note_on_c, 0, 48, 66
1, 246266, Note_on_c, 0, 72, 72
1, 246332, Note_off_c, 0, 48, 55
1, 246383, Note_on_c, 0, 44, 69
1, 246387, Note_on_c, 0, 74, 72
1, 246388, Note_off_c, 0, 72, 34
1, 246436, Note_off_c, 0, 44, 59
1, 246459, Note_off_c, 0, 74, 58
1, 246488, Note_on_c, 0, 41, 73
1, 246500, Note_on_c, 0, 75, 75
1, 246550, Note_off_c, 0, 41, 64
1, 246578, Note_off_c, 0, 68, 53
1, 246589, Note_off_c, 0, 75, 0
1, 246601, Note_on_c, 0, 38, 80
1, 246604, Note_on_c, 0, 77, 91
1, 246609, Note_on_c, 0, 75, 29
1, 246634, Note_off_c, 0, 75, 57
1, 246691, Note_off_c, 0, 38, 49
1, 246718, Note_on_c, 0, 75, 71
1, 246725, Note_on_c, 0, 46, 64
1, 246740, Note_off_c, 0, 77, 59
1, 246779, Note_off_c, 0, 75, 63
1, 246785, Note_off_c, 0, 46, 56
1, 246816, Note_on_c, 0, 41, 69
1, 246833, Note_on_c, 0, 74, 67
1, 246878, Note_off_c, 0, 74, 62
1, 246889, Note_off_c, 0, 41, 56
1, 246925, Note_on_c, 0, 38, 62
1, 246934, Note_on_c, 0, 72, 73
1, 246956, Note_off_c, 0, 72, 71
1, 246996, Note_off_c, 0, 38, 46
1, 247039, Note_on_c, 0, 67, 81
1, 247039, Note_on_c, 0, 39, 54
1, 247046, Note_on_c, 0, 70, 73
1, 247088, Note_off_c, 0, 70, 57
1, 247094, Note_off_c, 0, 67, 61
1, 247108, Note_off_c, 0, 39, 59
1, 247141, Note_on_c, 0, 46, 69
1, 247147, Note_on_c, 0, 68, 81
1, 247203, Note_off_c, 0, 46, 54
1, 247206, Note_off_c, 0, 68, 63
1, 247263, Note_on_c, 0, 70, 78
1, 247272, Note_on_c, 0, 63, 81
1, 247273, Note_on_c, 0, 43, 75
1, 247293, Control_c, 0, 64, 34
1, 247308, Control_c, 0, 64, 64
1, 247323, Control_c, 0, 64, 67
1, 247334, Note_off_c, 0, 43, 58
1, 247338, Control_c, 0, 64, 70
1, 247352, Control_c, 0, 64, 71
1, 247367, Control_c, 0, 64, 72
1, 247391, Note_on_c, 0, 72, 61
1, 247394, Note_off_c, 0, 70, 59
1, 247405, Note_on_c, 0, 39, 64
1, 247409, Note_off_c, 0, 72, 67
1, 247433, Note_off_c, 0, 39, 62
1, 247451, Note_off_c, 0, 63, 62
1, 247471, Control_c, 0, 64, 72
1, 247486, Control_c, 0, 64, 69
1, 247502, Control_c, 0, 64, 63
1, 247516, Control_c, 0, 64, 10
1, 247524, Note_on_c, 0, 65, 77
1, 247531, Control_c, 0, 64, 0
1, 247543, Note_on_c, 0, 46, 62
1, 247629, Note_on_c, 0, 62, 69
1, 247649, Note_off_c, 0, 65, 49
1, 247732, Note_off_c, 0, 62, 52
1, 247739, Note_off_c, 0, 46, 36
1, 247761, Note_on_c, 0, 60, 72
1, 247764, Note_on_c, 0, 53, 74
1, 247832, Note_off_c, 0, 60, 60
1, 247877, Note_on_c, 0, 62, 78
1, 247942, Note_off_c, 0, 62, 60
1, 247946, Note_off_c, 0, 53, 57
1, 248003, Note_on_c, 0, 58, 89
1, 248007, Note_on_c, 0, 50, 77
1, 248060, Note_off_c, 0, 58, 63
1, 248103, Note_on_c, 0, 63, 88
1, 248166, Note_off_c, 0, 63, 63
1, 248184, Note_off_c, 0, 50, 25
1, 248217, Note_on_c, 0, 46, 85
1, 248225, Note_on_c, 0, 62, 84
1, 248226, Note_on_c, 0, 65, 82
1, 248279, Control_c, 0, 64, 51
1, 248281, Note_off_c, 0, 65, 64
1, 248291, Note_off_c, 0, 62, 58
1, 248295, Control_c, 0, 64, 60
1, 248310, Control_c, 0, 64, 63
1, 248324, Control_c, 0, 64, 65
1, 248334, Note_on_c, 0, 63, 90
1, 248339, Control_c, 0, 64, 67
1, 248354, Control_c, 0, 64, 70
1, 248368, Note_off_c, 0, 63, 65
1, 248369, Control_c, 0, 64, 73
1, 248384, Control_c, 0, 64, 75
1, 248399, Control_c, 0, 64, 76
1, 248414, Control_c, 0, 64, 76
1, 248443, Control_c, 0, 64, 76
1, 248458, Control_c, 0, 64, 74
1, 248459, Note_off_c, 0, 46, 56
1, 248473, Control_c, 0, 64, 68
1, 248482, Note_on_c, 0, 66, 99
1, 248482, Note_on_c, 0, 75, 100
1, 248482, Note_on_c, 0, 57, 87
1, 248488, Control_c, 0, 64, 0
1, 248598, Control_c, 0, 64, 44
1, 248613, Control_c, 0, 64, 57
1, 248628, Control_c, 0, 64, 60
1, 248643, Control_c, 0, 64, 61
1, 248658, Control_c, 0, 64, 60
1, 248688, Control_c, 0, 64, 60
1, 248703, Control_c, 0, 64, 59
1, 248714, Note_off_c, 0, 75, 63
1, 248717, Note_off_c, 0, 66, 63
1, 248717, Control_c, 0, 64, 58
1, 248719, Note_off_c, 0, 57, 58
1, 248732, Control_c, 0, 64, 56
1, 248747, Control_c, 0, 64, 35
1, 248762, Control_c, 0, 64, 0
1, 248774, Note_on_c, 0, 56, 86
1, 248780, Note_on_c, 0, 65, 97
1, 248783, Note_on_c, 0, 74, 92
1, 248969, Control_c, 0, 64, 25
1, 248984, Control_c, 0, 64, 49
1, 248998, Note_off_c, 0, 56, 62
1, 248998, Control_c, 0, 64, 55
1, 249099, Note_off_c, 0, 74, 59
1, 249114, Note_off_c, 0, 65, 56
1, 249118, Control_c, 0, 64, 54
1, 249133, Control_c, 0, 64, 53
1, 249147, Control_c, 0, 64, 51
1, 249162, Control_c, 0, 64, 49
1, 249177, Control_c, 0, 64, 44
1, 249192, Control_c, 0, 64, 29
1, 249207, Note_on_c, 0, 56, 56
1, 249207, Control_c, 0, 64, 0
1, 249322, Note_off_c, 0, 56, 52
1, 249351, Note_on_c, 0, 53, 57
1, 249365, Note_on_c, 0, 62, 66
1, 249418, Note_off_c, 0, 62, 60
1, 249430, Note_off_c, 0, 53, 59
1, 249460, Note_on_c, 0, 58, 57
1, 249482, Note_on_c, 0, 50, 45
1, 249544, Note_off_c, 0, 58, 44
1, 249570, Note_off_c, 0, 50, 59
1, 249597, Note_on_c, 0, 46, 54
1, 249599, Note_on_c, 0, 77, 69
1, 249610, Note_on_c, 0, 68, 56
1, 249689, Note_off_c, 0, 68, 0
1, 249689, Note_on_c, 0, 68, 18
1, 249821, Note_off_c, 0, 68, 47
1, 249824, Note_off_c, 0, 46, 36
1, 249841, Note_off_c, 0, 77, 53
1, 249857, Note_on_c, 0, 51, 41
1, 249858, Note_on_c, 0, 75, 62
1, 249870, Note_on_c, 0, 67, 52
1, 250003, Note_off_c, 0, 67, 61
1, 250108, Note_on_c, 0, 58, 49
1, 250116, Note_on_c, 0, 65, 62
1, 250242, Note_off_c, 0, 58, 60
1, 250329, Note_off_c, 0, 51, 50
1, 250334, Note_off_c, 0, 75, 61
1, 250345, Note_on_c, 0, 74, 74
1, 250348, Note_on_c, 0, 59, 50
1, 250352, Note_off_c, 0, 65, 45
1, 250381, Note_off_c, 0, 59, 62
1, 250563, Note_on_c, 0, 67, 77
1, 250563, Note_on_c, 0, 75, 81
1, 250566, Note_on_c, 0, 60, 58
1, 250584, Note_off_c, 0, 74, 61
1, 250679, Note_on_c, 0, 79, 81
1, 250694, Note_off_c, 0, 75, 63
1, 250739, Note_off_c, 0, 79, 62
1, 250801, Note_on_c, 0, 75, 77
1, 250863, Note_off_c, 0, 75, 64
1, 250879, Note_off_c, 0, 67, 55
1, 250913, Note_on_c, 0, 72, 78
1, 250982, Note_off_c, 0, 72, 58
1, 250986, Note_off_c, 0, 60, 50
1, 251032, Note_on_c, 0, 68, 73
1, 251144, Note_on_c, 0, 60, 60
1, 251200, Note_off_c, 0, 60, 57
1, 251213, Note_off_c, 0, 68, 62
1, 251262, Note_on_c, 0, 56, 63
1, 251262, Note_on_c, 0, 65, 71
1, 251301, Note_off_c, 0, 56, 59
1, 251377, Note_on_c, 0, 53, 63
1, 251417, Note_off_c, 0, 53, 67
1, 251499, Note_on_c, 0, 58, 73
1, 251544, Note_on_c, 0, 50, 44
1, 251579, Control_c, 0, 64, 18
1, 251594, Control_c, 0, 64, 42
1, 251603, Note_off_c, 0, 65, 34
1, 251609, Control_c, 0, 64, 53
1, 251623, Note_on_c, 0, 77, 71
1, 251624, Control_c, 0, 64, 58
1, 251639, Control_c, 0, 64, 60
1, 251654, Control_c, 0, 64, 61
1, 251669, Control_c, 0, 64, 62
1, 251675, Note_off_c, 0, 50, 34
1, 251675, Note_off_c, 0, 77, 51
1, 251684, Control_c, 0, 64, 63
1, 251691, Note_off_c, 0, 58, 60
1, 251713, Control_c, 0, 64, 62
1, 251728, Control_c, 0, 64, 61
1, 251741, Note_on_c, 0, 74, 61
1, 251742, Control_c, 0, 64, 58
1, 251743, Note_on_c, 0, 46, 57
1, 251755, Control_c, 0, 64, 55
1, 251770, Control_c, 0, 64, 56
1, 251785, Control_c, 0, 64, 57
1, 251800, Note_off_c, 0, 74, 57
1, 251800, Control_c, 0, 64, 58
1, 251815, Control_c, 0, 64, 59
1, 251830, Control_c, 0, 64, 59
1, 251837, Note_on_c, 0, 70, 73
1, 251845, Control_c, 0, 64, 60
1, 251860, Control_c, 0, 64, 61
1, 251874, Control_c, 0, 64, 62
1, 251882, Note_off_c, 0, 70, 59
1, 251904, Control_c, 0, 64, 61
1, 251919, Control_c, 0, 64, 58
1, 251933, Control_c, 0, 64, 21
1, 251948, Control_c, 0, 64, 0
1, 251964, Note_on_c, 0, 67, 79
1, 252008, Control_c, 0, 64, 28
1, 252022, Control_c, 0, 64, 58
1, 252030, Note_off_c, 0, 46, 51
1, 252037, Control_c, 0, 64, 63
1, 252052, Control_c, 0, 64, 64
1, 252066, Control_c, 0, 64, 65
1, 252067, Note_off_c, 0, 67, 55
1, 252078, Note_on_c, 0, 51, 74
1, 252081, Control_c, 0, 64, 66
1, 252140, Control_c, 0, 64, 66
1, 252155, Control_c, 0, 64, 65
1, 252170, Control_c, 0, 64, 59
1, 252185, Control_c, 0, 64, 0
1, 252199, Note_off_c, 0, 51, 60
1, 252202, Note_on_c, 0, 48, 73
1, 252204, Note_on_c, 0, 65, 79
1, 252206, Note_on_c, 0, 75, 77
1, 252274, Control_c, 0, 64, 56
1, 252282, Note_off_c, 0, 75, 61
1, 252290, Control_c, 0, 64, 62
1, 252312, Control_c, 0, 64, 64
1, 252327, Control_c, 0, 64, 65
1, 252328, Note_on_c, 0, 44, 77
1, 252331, Note_off_c, 0, 48, 64
1, 252342, Control_c, 0, 64, 66
1, 252431, Control_c, 0, 64, 65
1, 252435, Note_off_c, 0, 65, 62
1, 252445, Control_c, 0, 64, 63
1, 252460, Control_c, 0, 64, 55
1, 252475, Control_c, 0, 64, 0
1, 252477, Note_on_c, 0, 67, 90
1, 252479, Note_on_c, 0, 46, 85
1, 252500, Note_off_c, 0, 44, 59
1, 252598, Note_on_c, 0, 62, 70
1, 252623, Control_c, 0, 64, 25
1, 252638, Control_c, 0, 64, 48
1, 252652, Control_c, 0, 64, 55
1, 252667, Control_c, 0, 64, 59
1, 252682, Control_c, 0, 64, 61
1, 252688, Note_off_c, 0, 62, 61
1, 252697, Control_c, 0, 64, 62
1, 252712, Control_c, 0, 64, 63
1, 252724, Note_on_c, 0, 63, 70
1, 252724, Note_off_c, 0, 67, 56
1, 252727, Control_c, 0, 64, 64
1, 252742, Control_c, 0, 64, 65
1, 252756, Control_c, 0, 64, 65
1, 252771, Control_c, 0, 64, 66
1, 252830, Control_c, 0, 64, 66
1, 252842, Note_on_c, 0, 58, 76
1, 252849, Note_off_c, 0, 63, 56
1, 252904, Control_c, 0, 64, 66
1, 252919, Control_c, 0, 64, 64
1, 252927, Note_off_c, 0, 58, 57
1, 252934, Control_c, 0, 64, 58
1, 252949, Control_c, 0, 64, 0
1, 252981, Note_on_c, 0, 65, 82
1, 253052, Control_c, 0, 64, 21
1, 253075, Control_c, 0, 64, 52
1, 253091, Control_c, 0, 64, 60
1, 253106, Control_c, 0, 64, 63
1, 253116, Note_on_c, 0, 60, 71
1, 253120, Control_c, 0, 64, 64
1, 253135, Control_c, 0, 64, 65
1, 253150, Control_c, 0, 64, 66
1, 253165, Control_c, 0, 64, 67
1, 253180, Control_c, 0, 64, 67
1, 253194, Control_c, 0, 64, 68
1, 253205, Note_off_c, 0, 60, 56
1, 253209, Control_c, 0, 64, 69
1, 253224, Control_c, 0, 64, 70
1, 253239, Control_c, 0, 64, 70
1, 253243, Note_on_c, 0, 62, 72
1, 253298, Control_c, 0, 64, 71
1, 253348, Note_off_c, 0, 62, 60
1, 253355, Note_on_c, 0, 56, 77
1, 253416, Control_c, 0, 64, 70
1, 253450, Note_off_c, 0, 65, 55
1, 253475, Control_c, 0, 64, 69
1, 253478, Note_off_c, 0, 56, 55
1, 253490, Control_c, 0, 64, 65
1, 253495, Note_on_c, 0, 63, 86
1, 253495, Note_off_c, 0, 46, 56
1, 253499, Note_on_c, 0, 39, 56
1, 253505, Control_c, 0, 64, 55
1, 253520, Control_c, 0, 64, 0
1, 253636, Note_on_c, 0, 61, 67
1, 253772, Note_off_c, 0, 61, 59
1, 253783, Note_on_c, 0, 58, 59
1, 253872, Note_off_c, 0, 58, 59
1, 253921, Note_on_c, 0, 55, 64
1, 254019, Note_off_c, 0, 55, 61
1, 254068, Note_on_c, 0, 60, 72
1, 254201, Note_off_c, 0, 60, 56
1, 254216, Note_on_c, 0, 56, 68
1, 254328, Note_off_c, 0, 56, 58
1, 254378, Note_on_c, 0, 53, 71
1, 254494, Note_off_c, 0, 53, 55
1, 254567, Note_on_c, 0, 59, 63
1, 254793, Note_off_c, 0, 59, 58
1, 254864, Note_on_c, 0, 58, 62
1, 254864, Note_on_c, 0, 55, 58
1, 256115, Control_c, 0, 64, 13
1, 256130, Control_c, 0, 64, 23
1, 256145, Control_c, 0, 64, 29
1, 256160, Control_c, 0, 64, 35
1, 256175, Control_c, 0, 64, 40
1, 256189, Control_c, 0, 64, 44
1, 256204, Control_c, 0, 64, 47
1, 256219, Control_c, 0, 64, 50
1, 256233, Control_c, 0, 64, 53
1, 256247, Control_c, 0, 64, 55
1, 256262, Control_c, 0, 64, 57
1, 256278, Control_c, 0, 64, 59
1, 256293, Control_c, 0, 64, 60
1, 256308, Control_c, 0, 64, 62
1, 256323, Control_c, 0, 64, 62
1, 256337, Control_c, 0, 64, 63
1, 256352, Control_c, 0, 64, 64
1, 256367, Control_c, 0, 64, 65
1, 256382, Control_c, 0, 64, 65
1, 256397, Control_c, 0, 64, 66
1, 256411, Control_c, 0, 64, 67
1, 256426, Control_c, 0, 64, 68
1, 256441, Control_c, 0, 64, 69
1, 256456, Control_c, 0, 64, 70
1, 256471, Control_c, 0, 64, 71
1, 256486, Control_c, 0, 64, 72
1, 256501, Control_c, 0, 64, 73
1, 256516, Control_c, 0, 64, 74
1, 256530, Control_c, 0, 64, 74
1, 256545, Control_c, 0, 64, 75
1, 256560, Control_c, 0, 64, 75
1, 256579, Note_off_c, 0, 39, 12
1, 256641, Note_off_c, 0, 63, 36
1, 256677, Note_off_c, 0, 55, 37
1, 256693, Control_c, 0, 64, 75
1, 256700, Note_off_c, 0, 58, 29
1, 256737, Control_c, 0, 64, 74
1, 256752, Control_c, 0, 64, 74
1, 256767, Control_c, 0, 64, 73
1, 256782, Control_c, 0, 64, 73
1, 256797, Control_c, 0, 64, 72
1, 256819, Control_c, 0, 64, 72
1, 256834, Control_c, 0, 64, 71
1, 256849, Control_c, 0, 64, 70
1, 256863, Control_c, 0, 64, 69
1, 256878, Control_c, 0, 64, 69
1, 256908, Control_c, 0, 64, 68
1, 256937, Control_c, 0, 64, 68
1, 256967, Control_c, 0, 64, 67
1, 256997, Control_c, 0, 64, 67
1, 257011, Control_c, 0, 64, 66
1, 257026, Control_c, 0, 64, 66
1, 257055, Control_c, 0, 64, 65
1, 257087, Control_c, 0, 64, 65
1, 257101, Control_c, 0, 64, 64
1, 257146, Control_c, 0, 64, 64
1, 257205, Control_c, 0, 64, 63
1, 257234, Control_c, 0, 64, 63
1, 257309, Control_c, 0, 64, 62
1, 257398, Control_c, 0, 64, 62
1, 257471, Control_c, 0, 64, 61
1, 257486, Control_c, 0, 64, 61
1, 257531, Control_c, 0, 64, 60
1, 257568, Control_c, 0, 64, 60
1, 257583, Control_c, 0, 64, 59
1, 257598, Control_c, 0, 64, 59
1, 257613, Control_c, 0, 64, 58
1, 257642, Control_c, 0, 64, 58
1, 257657, Control_c, 0, 64, 57
1, 257686, Control_c, 0, 64, 57
1, 257731, Control_c, 0, 64, 56
1, 257865, Control_c, 0, 64, 56
1, 258029, Control_c, 0, 64, 55
1, 258176, Control_c, 0, 64, 55
1, 258265, Control_c, 0, 64, 54
1, 258435, Control_c, 0, 64, 54
1, 258495, Control_c, 0, 64, 53
1, 258540, Control_c, 0, 64, 53
1, 258584, Control_c, 0, 64, 52
1, 258614, Control_c, 0, 64, 52
1, 258628, Control_c, 0, 64, 51
1, 258658, Control_c, 0, 64, 51
1, 258689, Control_c, 0, 64, 50
1, 258748, Control_c, 0, 64, 50
1, 258778, Control_c, 0, 64, 49
1, 258793, Control_c, 0, 64, 49
1, 258851, Control_c, 0, 64, 48
1, 258881, Control_c, 0, 64, 48
1, 258896, Control_c, 0, 64, 47
1, 258911, Control_c, 0, 64, 47
1, 258940, Control_c, 0, 64, 46
1, 258970, Control_c, 0, 64, 45
1, 258985, Control_c, 0, 64, 45
1, 258999, Control_c, 0, 64, 44
1, 259014, Control_c, 0, 64, 43
1, 259029, Control_c, 0, 64, 42
1, 259051, Control_c, 0, 64, 41
1, 259066, Control_c, 0, 64, 39
1, 259081, Control_c, 0, 64, 38
1, 259096, Control_c, 0, 64, 37
1, 259111, Control_c, 0, 64, 37
1, 259140, Control_c, 0, 64, 36
1, 259288, Control_c, 0, 64, 36
1, 259571, Control_c, 0, 64, 35
1, 259601, Control_c, 0, 64, 34
1, 259645, Control_c, 0, 64, 34
1, 259689, Control_c, 0, 64, 33
1, 260096, Control_c, 0, 64, 34
1, 260155, Control_c, 0, 64, 34
1, 260200, Control_c, 0, 64, 35
1, 260229, Control_c, 0, 64, 36
1, 260304, Control_c, 0, 64, 35
1, 260319, Control_c, 0, 64, 34
1, 260334, Control_c, 0, 64, 34
1, 260349, Control_c, 0, 64, 33
1, 260378, Control_c, 0, 64, 32
1, 260408, Control_c, 0, 64, 32
1, 260452, Control_c, 0, 64, 31
1, 260482, Control_c, 0, 64, 30
1, 260511, Control_c, 0, 64, 29
1, 260526, Control_c, 0, 64, 29
1, 260638, Control_c, 0, 64, 29
1, 260801, Control_c, 0, 64, 30
1, 260816, Control_c, 0, 64, 31
1, 260830, Control_c, 0, 64, 32
1, 260875, Control_c, 0, 64, 32
1, 260919, Control_c, 0, 64, 33
1, 260964, Control_c, 0, 64, 34
1, 260978, Control_c, 0, 64, 34
1, 261113, Control_c, 0, 64, 35
1, 261142, Control_c, 0, 64, 36
1, 261187, Control_c, 0, 64, 36
1, 261202, Control_c, 0, 64, 37
1, 261217, Control_c, 0, 64, 37
1, 261231, Control_c, 0, 64, 38
1, 261342, Control_c, 0, 64, 37
1, 261401, Control_c, 0, 64, 37
1, 261476, Control_c, 0, 64, 36
1, 261535, Control_c, 0, 64, 36
1, 261595, Control_c, 0, 64, 35
1, 261609, Control_c, 0, 64, 34
1, 261639, Control_c, 0, 64, 34
1, 261668, Control_c, 0, 64, 33
1, 261683, Control_c, 0, 64, 32
1, 261698, Control_c, 0, 64, 32
1, 261713, Control_c, 0, 64, 31
1, 261727, Control_c, 0, 64, 30
1, 261757, Control_c, 0, 64, 29
1, 261772, Control_c, 0, 64, 29
1, 262284, Control_c, 0, 64, 28
1, 262328, Control_c, 0, 64, 27
1, 262388, Control_c, 0, 64, 26
1, 262403, Control_c, 0, 64, 25
1, 262418, Control_c, 0, 64, 23
1, 262432, Control_c, 0, 64, 18
1, 262447, Control_c, 0, 64, 15
1, 262462, Control_c, 0, 64, 0
1, 262462, End_track
0, 0, End_of_file
