0, 0, Header, 0, 1, 480
1, 0, Start_track
1, 0, Title_t, "Prelude & Fugue Hyo-Sun Li"
1, 0, Copyright_t, "Eric Halstead 2006"
1, 0, Time_signature, 4, 2, 24, 8
1, 0, Tempo, 512820
1, 0, Control_c, 0, 91, 91
1, 0, Control_c, 0, 11, 110
1, 0, Text_t, "Bach Prelude & Fugue in F Sharp Minor, WTK Book II performed on the Yamaha Disklavier by Hyo-Sun Lim--06/10/02"
1, 0, SMPTE_offset, 96, 0, 0, 0, 0
1, 0, System_exclusive, 5, 126, 127, 9, 1, 247
1, 1, System_exclusive, 8, 67, 16, 76, 0, 0, 126, 0, 247
1, 2, System_exclusive, 6, 67, 113, 126, 10, 0, 247
1, 5, Control_c, 0, 0, 0
1, 6, Control_c, 0, 32, 0
1, 7, Program_c, 0, 0
1, 8, Control_c, 0, 7, 115
1, 10, Control_c, 0, 64, 13
1, 30, Control_c, 0, 64, 23
1, 47, Control_c, 0, 64, 30
1, 67, Control_c, 0, 64, 37
1, 85, Control_c, 0, 64, 43
1, 103, Control_c, 0, 64, 48
1, 122, Control_c, 0, 64, 50
1, 141, Control_c, 0, 64, 52
1, 160, Control_c, 0, 64, 54
1, 198, Control_c, 0, 64, 57
1, 234, Control_c, 0, 64, 60
1, 253, Control_c, 0, 64, 62
1, 272, Control_c, 0, 64, 63
1, 290, Control_c, 0, 64, 65
1, 310, Control_c, 0, 64, 66
1, 328, Control_c, 0, 64, 68
1, 365, Control_c, 0, 64, 71
1, 384, Control_c, 0, 64, 73
1, 403, Control_c, 0, 64, 75
1, 421, Control_c, 0, 64, 77
1, 440, Control_c, 0, 64, 80
1, 459, Control_c, 0, 64, 83
1, 478, Control_c, 0, 64, 87
1, 496, Control_c, 0, 64, 91
1, 515, Control_c, 0, 64, 96
1, 534, Control_c, 0, 64, 101
1, 551, Control_c, 0, 64, 106
1, 572, Control_c, 0, 64, 112
1, 589, Control_c, 0, 64, 117
1, 609, Control_c, 0, 64, 122
1, 627, Control_c, 0, 64, 126
1, 1002, Control_c, 0, 64, 122
1, 1019, Control_c, 0, 64, 112
1, 1037, Control_c, 0, 64, 100
1, 1057, Control_c, 0, 64, 86
1, 1076, Control_c, 0, 64, 73
1, 1093, Control_c, 0, 64, 61
1, 1113, Control_c, 0, 64, 56
1, 1131, Control_c, 0, 64, 54
1, 1169, Control_c, 0, 64, 50
1, 1188, Control_c, 0, 64, 48
1, 1206, Control_c, 0, 64, 43
1, 1226, Control_c, 0, 64, 37
1, 1243, Control_c, 0, 64, 29
1, 1263, Control_c, 0, 64, 17
1, 1282, Control_c, 0, 64, 11
1, 1506, Control_c, 0, 64, 18
1, 1525, Control_c, 0, 64, 26
1, 1543, Control_c, 0, 64, 34
1, 1562, Control_c, 0, 64, 44
1, 1580, Control_c, 0, 64, 53
1, 1600, Control_c, 0, 64, 60
1, 1618, Control_c, 0, 64, 64
1, 1637, Control_c, 0, 64, 65
1, 1656, Control_c, 0, 64, 67
1, 1675, Control_c, 0, 64, 70
1, 1692, Control_c, 0, 64, 73
1, 1713, Control_c, 0, 64, 76
1, 1730, Control_c, 0, 64, 79
1, 1749, Control_c, 0, 64, 83
1, 1768, Control_c, 0, 64, 88
1, 1786, Control_c, 0, 64, 93
1, 1804, Control_c, 0, 64, 97
1, 1823, Control_c, 0, 64, 101
1, 1862, Control_c, 0, 64, 108
1, 1898, Control_c, 0, 64, 115
1, 1936, Control_c, 0, 64, 121
1, 1972, Control_c, 0, 64, 126
1, 6386, Note_on_c, 0, 54, 34
1, 6393, Note_on_c, 0, 78, 57
1, 6747, Note_off_c, 0, 78, 38
1, 7153, Control_c, 0, 64, 116
1, 7169, Note_on_c, 0, 73, 59
1, 7170, Control_c, 0, 64, 109
1, 7187, Note_on_c, 0, 57, 40
1, 7190, Control_c, 0, 64, 104
1, 7209, Control_c, 0, 64, 99
1, 7227, Control_c, 0, 64, 95
1, 7247, Control_c, 0, 64, 90
1, 7264, Control_c, 0, 64, 84
1, 7284, Control_c, 0, 64, 78
1, 7303, Control_c, 0, 64, 74
1, 7321, Control_c, 0, 64, 71
1, 7414, Control_c, 0, 64, 69
1, 7435, Control_c, 0, 64, 68
1, 7452, Control_c, 0, 64, 66
1, 7470, Control_c, 0, 64, 64
1, 7489, Control_c, 0, 64, 62
1, 7508, Control_c, 0, 64, 60
1, 7546, Control_c, 0, 64, 58
1, 7582, Control_c, 0, 64, 55
1, 7601, Control_c, 0, 64, 53
1, 7620, Control_c, 0, 64, 50
1, 7639, Control_c, 0, 64, 46
1, 7657, Control_c, 0, 64, 39
1, 7676, Control_c, 0, 64, 34
1, 7752, Control_c, 0, 64, 42
1, 7770, Control_c, 0, 64, 48
1, 7789, Control_c, 0, 64, 56
1, 7806, Control_c, 0, 64, 64
1, 7826, Control_c, 0, 64, 69
1, 7844, Control_c, 0, 64, 72
1, 7860, Note_on_c, 0, 61, 49
1, 7862, Control_c, 0, 64, 76
1, 7882, Control_c, 0, 64, 80
1, 7901, Control_c, 0, 64, 85
1, 7920, Control_c, 0, 64, 92
1, 7937, Control_c, 0, 64, 97
1, 7956, Control_c, 0, 64, 102
1, 7995, Control_c, 0, 64, 110
1, 8032, Control_c, 0, 64, 115
1, 8069, Control_c, 0, 64, 121
1, 8093, Note_off_c, 0, 73, 31
1, 8107, Control_c, 0, 64, 127
1, 8508, Note_on_c, 0, 69, 53
1, 8513, Note_on_c, 0, 66, 42
1, 8536, Control_c, 0, 64, 121
1, 8574, Control_c, 0, 64, 116
1, 8612, Control_c, 0, 64, 112
1, 8630, Control_c, 0, 64, 108
1, 8649, Control_c, 0, 64, 102
1, 8668, Control_c, 0, 64, 95
1, 8685, Control_c, 0, 64, 89
1, 8705, Control_c, 0, 64, 84
1, 8713, Note_off_c, 0, 57, 30
1, 8724, Control_c, 0, 64, 79
1, 8741, Control_c, 0, 64, 75
1, 8761, Control_c, 0, 64, 72
1, 8850, Note_on_c, 0, 71, 63
1, 8853, Control_c, 0, 64, 70
1, 8868, Note_on_c, 0, 56, 44
1, 8891, Control_c, 0, 64, 68
1, 8910, Control_c, 0, 64, 66
1, 8929, Control_c, 0, 64, 65
1, 8948, Control_c, 0, 64, 63
1, 8967, Control_c, 0, 64, 62
1, 8990, Note_off_c, 0, 69, 31
1, 9004, Control_c, 0, 64, 61
1, 9041, Control_c, 0, 64, 60
1, 9049, Poly_aftertouch_c, 0, 61, 24
1, 9078, Control_c, 0, 64, 57
1, 9112, Note_off_c, 0, 61, 28
1, 9112, Poly_aftertouch_c, 0, 61, 0
1, 9114, Control_c, 0, 64, 55
1, 9153, Control_c, 0, 64, 53
1, 9185, Note_off_c, 0, 54, 34
1, 9185, Note_on_c, 0, 57, 38
1, 9189, Control_c, 0, 64, 51
1, 9198, Note_on_c, 0, 73, 58
1, 9228, Control_c, 0, 64, 48
1, 9229, Note_off_c, 0, 56, 35
1, 9232, Note_off_c, 0, 71, 52
1, 9266, Control_c, 0, 64, 45
1, 9284, Control_c, 0, 64, 43
1, 9303, Control_c, 0, 64, 41
1, 9340, Control_c, 0, 64, 36
1, 9396, Control_c, 0, 64, 32
1, 9472, Control_c, 0, 64, 28
1, 9474, Note_on_c, 0, 71, 61
1, 9497, Note_off_c, 0, 73, 54
1, 9564, Control_c, 0, 64, 24
1, 9668, Note_off_c, 0, 71, 59
1, 9694, Note_on_c, 0, 69, 56
1, 9715, Control_c, 0, 64, 19
1, 9781, Note_off_c, 0, 66, 36
1, 9808, Control_c, 0, 64, 15
1, 9883, Note_off_c, 0, 69, 58
1, 9911, Note_on_c, 0, 71, 54
1, 9919, Note_on_c, 0, 61, 38
1, 9929, Note_on_c, 0, 65, 35
1, 9953, Note_off_c, 0, 57, 34
1, 9957, Control_c, 0, 64, 11
1, 10143, Note_off_c, 0, 71, 52
1, 10143, Note_on_c, 0, 69, 55
1, 10276, Control_c, 0, 64, 16
1, 10313, Control_c, 0, 64, 22
1, 10331, Control_c, 0, 64, 28
1, 10335, Note_off_c, 0, 69, 56
1, 10342, Note_on_c, 0, 68, 60
1, 10350, Control_c, 0, 64, 37
1, 10369, Control_c, 0, 64, 51
1, 10387, Control_c, 0, 64, 65
1, 10407, Control_c, 0, 64, 72
1, 10424, Note_off_c, 0, 65, 57
1, 10424, Control_c, 0, 64, 76
1, 10443, Control_c, 0, 64, 80
1, 10463, Control_c, 0, 64, 82
1, 10556, Control_c, 0, 64, 79
1, 10594, Control_c, 0, 64, 76
1, 10602, Note_on_c, 0, 66, 58
1, 10620, Note_on_c, 0, 69, 46
1, 10622, Note_on_c, 0, 54, 38
1, 10630, Control_c, 0, 64, 73
1, 10635, Note_off_c, 0, 68, 38
1, 10649, Control_c, 0, 64, 69
1, 10668, Control_c, 0, 64, 63
1, 10686, Control_c, 0, 64, 59
1, 10705, Control_c, 0, 64, 56
1, 10739, Note_off_c, 0, 61, 41
1, 10739, Poly_aftertouch_c, 0, 61, 0
1, 10743, Control_c, 0, 64, 53
1, 10779, Control_c, 0, 64, 50
1, 10799, Control_c, 0, 64, 48
1, 10818, Control_c, 0, 64, 44
1, 10837, Control_c, 0, 64, 40
1, 10891, Control_c, 0, 64, 42
1, 10911, Control_c, 0, 64, 46
1, 10930, Control_c, 0, 64, 52
1, 10949, Control_c, 0, 64, 60
1, 10960, Note_off_c, 0, 69, 60
1, 10966, Control_c, 0, 64, 67
1, 10974, Note_on_c, 0, 71, 55
1, 10985, Control_c, 0, 64, 74
1, 11005, Control_c, 0, 64, 81
1, 11023, Control_c, 0, 64, 90
1, 11041, Control_c, 0, 64, 100
1, 11061, Control_c, 0, 64, 107
1, 11079, Control_c, 0, 64, 112
1, 11116, Control_c, 0, 64, 116
1, 11125, Note_off_c, 0, 66, 38
1, 11266, Control_c, 0, 64, 110
1, 11303, Control_c, 0, 64, 104
1, 11319, Note_on_c, 0, 61, 61
1, 11323, Control_c, 0, 64, 100
1, 11329, Note_off_c, 0, 71, 23
1, 11334, Note_on_c, 0, 69, 46
1, 11342, Control_c, 0, 64, 96
1, 11359, Control_c, 0, 64, 91
1, 11378, Control_c, 0, 64, 86
1, 11397, Control_c, 0, 64, 80
1, 11416, Control_c, 0, 64, 74
1, 11435, Control_c, 0, 64, 70
1, 11471, Control_c, 0, 64, 68
1, 11520, Control_c, 0, 64, 67
1, 11557, Control_c, 0, 64, 66
1, 11576, Control_c, 0, 64, 65
1, 11614, Control_c, 0, 64, 62
1, 11632, Control_c, 0, 64, 60
1, 11656, Note_on_c, 0, 68, 60
1, 11688, Control_c, 0, 64, 58
1, 11729, Note_off_c, 0, 69, 50
1, 11763, Control_c, 0, 64, 56
1, 11876, Control_c, 0, 64, 54
1, 11950, Control_c, 0, 64, 52
1, 11981, Note_on_c, 0, 69, 58
1, 12006, Note_off_c, 0, 68, 53
1, 12062, Control_c, 0, 64, 50
1, 12308, Note_on_c, 0, 73, 63
1, 12418, Control_c, 0, 64, 48
1, 12438, Note_off_c, 0, 69, 37
1, 12650, Note_on_c, 0, 57, 48
1, 12666, Note_on_c, 0, 78, 62
1, 12773, Control_c, 0, 64, 46
1, 12810, Control_c, 0, 64, 44
1, 12830, Note_off_c, 0, 61, 47
1, 12830, Poly_aftertouch_c, 0, 61, 0
1, 12847, Control_c, 0, 64, 42
1, 12894, Note_off_c, 0, 73, 39
1, 12923, Control_c, 0, 64, 37
1, 13004, Note_on_c, 0, 80, 72
1, 13005, Note_on_c, 0, 59, 56
1, 13016, Control_c, 0, 64, 33
1, 13063, Note_off_c, 0, 57, 50
1, 13150, Note_off_c, 0, 78, 56
1, 13361, Note_on_c, 0, 81, 66
1, 13382, Note_on_c, 0, 61, 47
1, 13419, Note_off_c, 0, 80, 57
1, 13465, Control_c, 0, 64, 29
1, 13486, Note_off_c, 0, 59, 36
1, 13576, Control_c, 0, 64, 25
1, 13641, Note_on_c, 0, 59, 52
1, 13643, Note_on_c, 0, 80, 68
1, 13670, Control_c, 0, 64, 21
1, 13713, Note_off_c, 0, 61, 38
1, 13713, Poly_aftertouch_c, 0, 61, 0
1, 13732, Note_off_c, 0, 81, 39
1, 13846, Note_off_c, 0, 59, 57
1, 13862, Note_on_c, 0, 78, 66
1, 13874, Note_on_c, 0, 57, 50
1, 13889, Note_off_c, 0, 80, 50
1, 14044, Control_c, 0, 64, 17
1, 14060, Note_off_c, 0, 57, 55
1, 14071, Note_on_c, 0, 80, 59
1, 14072, Note_on_c, 0, 59, 40
1, 14110, Note_off_c, 0, 78, 56
1, 14213, Control_c, 0, 64, 13
1, 14289, Note_on_c, 0, 78, 56
1, 14305, Note_on_c, 0, 57, 38
1, 14305, Control_c, 0, 64, 8
1, 14332, Note_off_c, 0, 80, 55
1, 14381, Note_off_c, 0, 59, 35
1, 14418, Control_c, 0, 64, 0
1, 14516, Note_on_c, 0, 77, 55
1, 14519, Note_off_c, 0, 57, 42
1, 14521, Note_on_c, 0, 56, 38
1, 14548, Note_off_c, 0, 78, 53
1, 14736, Note_off_c, 0, 56, 53
1, 14758, Note_on_c, 0, 78, 57
1, 14760, Note_off_c, 0, 77, 52
1, 14761, Note_on_c, 0, 57, 38
1, 14886, Control_c, 0, 64, 11
1, 14905, Control_c, 0, 64, 19
1, 14923, Control_c, 0, 64, 25
1, 14943, Control_c, 0, 64, 35
1, 14961, Control_c, 0, 64, 48
1, 14980, Control_c, 0, 64, 61
1, 14998, Control_c, 0, 64, 70
1, 15016, Control_c, 0, 64, 75
1, 15036, Control_c, 0, 64, 80
1, 15044, Note_off_c, 0, 78, 58
1, 15052, Control_c, 0, 64, 85
1, 15072, Control_c, 0, 64, 90
1, 15109, Control_c, 0, 64, 96
1, 15166, Control_c, 0, 64, 100
1, 15230, Note_on_c, 0, 73, 57
1, 15261, Control_c, 0, 64, 105
1, 15559, Control_c, 0, 64, 100
1, 15596, Control_c, 0, 64, 94
1, 15623, Note_on_c, 0, 59, 39
1, 15628, Note_on_c, 0, 56, 42
1, 15633, Control_c, 0, 64, 88
1, 15652, Control_c, 0, 64, 84
1, 15671, Control_c, 0, 64, 79
1, 15691, Control_c, 0, 64, 74
1, 15697, Note_off_c, 0, 54, 24
1, 15709, Control_c, 0, 64, 69
1, 15728, Control_c, 0, 64, 65
1, 15746, Control_c, 0, 64, 62
1, 15765, Control_c, 0, 64, 60
1, 15772, Note_off_c, 0, 57, 32
1, 15782, Control_c, 0, 64, 58
1, 15802, Control_c, 0, 64, 55
1, 15841, Control_c, 0, 64, 52
1, 15914, Control_c, 0, 64, 55
1, 15933, Control_c, 0, 64, 58
1, 15952, Control_c, 0, 64, 62
1, 15970, Note_on_c, 0, 77, 63
1, 15970, Control_c, 0, 64, 66
1, 15989, Control_c, 0, 64, 70
1, 16007, Control_c, 0, 64, 74
1, 16027, Control_c, 0, 64, 80
1, 16046, Control_c, 0, 64, 87
1, 16063, Control_c, 0, 64, 92
1, 16101, Control_c, 0, 64, 97
1, 16213, Control_c, 0, 64, 93
1, 16220, Note_off_c, 0, 73, 39
1, 16250, Control_c, 0, 64, 87
1, 16269, Note_off_c, 0, 56, 38
1, 16270, Control_c, 0, 64, 82
1, 16289, Control_c, 0, 64, 77
1, 16301, Note_on_c, 0, 78, 62
1, 16306, Note_on_c, 0, 61, 44
1, 16309, Control_c, 0, 64, 71
1, 16316, Note_on_c, 0, 57, 41
1, 16325, Control_c, 0, 64, 65
1, 16344, Control_c, 0, 64, 60
1, 16361, Note_off_c, 0, 77, 54
1, 16363, Control_c, 0, 64, 56
1, 16382, Control_c, 0, 64, 52
1, 16396, Note_off_c, 0, 59, 32
1, 16399, Control_c, 0, 64, 48
1, 16420, Control_c, 0, 64, 44
1, 16438, Control_c, 0, 64, 41
1, 16475, Control_c, 0, 64, 45
1, 16495, Control_c, 0, 64, 53
1, 16513, Control_c, 0, 64, 63
1, 16531, Control_c, 0, 64, 72
1, 16550, Control_c, 0, 64, 81
1, 16570, Control_c, 0, 64, 90
1, 16573, Note_off_c, 0, 78, 53
1, 16587, Control_c, 0, 64, 99
1, 16606, Control_c, 0, 64, 107
1, 16625, Control_c, 0, 64, 112
1, 16644, Control_c, 0, 64, 116
1, 16661, Control_c, 0, 64, 120
1, 16680, Control_c, 0, 64, 124
1, 16682, Note_on_c, 0, 73, 66
1, 16837, Note_off_c, 0, 57, 27
1, 17000, Control_c, 0, 64, 118
1, 17017, Control_c, 0, 64, 113
1, 17036, Control_c, 0, 64, 108
1, 17052, Note_on_c, 0, 68, 59
1, 17055, Note_on_c, 0, 59, 49
1, 17055, Control_c, 0, 64, 102
1, 17073, Control_c, 0, 64, 96
1, 17092, Control_c, 0, 64, 89
1, 17111, Control_c, 0, 64, 82
1, 17130, Control_c, 0, 64, 75
1, 17148, Control_c, 0, 64, 68
1, 17167, Control_c, 0, 64, 63
1, 17180, Note_off_c, 0, 61, 33
1, 17180, Poly_aftertouch_c, 0, 61, 0
1, 17186, Control_c, 0, 64, 60
1, 17223, Control_c, 0, 64, 57
1, 17242, Control_c, 0, 64, 55
1, 17260, Control_c, 0, 64, 52
1, 17279, Control_c, 0, 64, 47
1, 17297, Control_c, 0, 64, 41
1, 17318, Control_c, 0, 64, 36
1, 17374, Control_c, 0, 64, 40
1, 17381, Note_on_c, 0, 77, 63
1, 17391, Control_c, 0, 64, 46
1, 17410, Control_c, 0, 64, 54
1, 17429, Control_c, 0, 64, 63
1, 17448, Control_c, 0, 64, 71
1, 17466, Control_c, 0, 64, 78
1, 17473, Note_off_c, 0, 68, 55
1, 17485, Control_c, 0, 64, 86
1, 17503, Control_c, 0, 64, 95
1, 17523, Control_c, 0, 64, 102
1, 17541, Control_c, 0, 64, 107
1, 17676, Note_off_c, 0, 73, 33
1, 17692, Control_c, 0, 64, 102
1, 17709, Control_c, 0, 64, 98
1, 17718, Note_on_c, 0, 66, 48
1, 17728, Control_c, 0, 64, 92
1, 17732, Note_on_c, 0, 78, 64
1, 17746, Control_c, 0, 64, 86
1, 17752, Note_on_c, 0, 57, 41
1, 17766, Control_c, 0, 64, 80
1, 17770, Note_off_c, 0, 59, 34
1, 17785, Control_c, 0, 64, 75
1, 17792, Note_off_c, 0, 77, 56
1, 17802, Control_c, 0, 64, 69
1, 17822, Control_c, 0, 64, 64
1, 17840, Control_c, 0, 64, 60
1, 17859, Control_c, 0, 64, 56
1, 17877, Control_c, 0, 64, 53
1, 17897, Control_c, 0, 64, 49
1, 17915, Control_c, 0, 64, 45
1, 17933, Control_c, 0, 64, 42
1, 17991, Control_c, 0, 64, 48
1, 18009, Control_c, 0, 64, 55
1, 18027, Control_c, 0, 64, 63
1, 18046, Control_c, 0, 64, 70
1, 18066, Control_c, 0, 64, 77
1, 18068, Note_on_c, 0, 73, 66
1, 18083, Control_c, 0, 64, 84
1, 18102, Control_c, 0, 64, 93
1, 18109, Note_off_c, 0, 78, 56
1, 18122, Control_c, 0, 64, 101
1, 18140, Control_c, 0, 64, 108
1, 18157, Control_c, 0, 64, 112
1, 18197, Control_c, 0, 64, 119
1, 18217, Note_off_c, 0, 66, 37
1, 18364, Control_c, 0, 64, 112
1, 18382, Control_c, 0, 64, 108
1, 18388, Note_on_c, 0, 65, 53
1, 18395, Poly_aftertouch_c, 0, 57, 24
1, 18396, Note_on_c, 0, 78, 68
1, 18400, Note_on_c, 0, 56, 44
1, 18400, Control_c, 0, 64, 103
1, 18419, Control_c, 0, 64, 97
1, 18439, Control_c, 0, 64, 90
1, 18454, Note_off_c, 0, 57, 27
1, 18454, Poly_aftertouch_c, 0, 57, 0
1, 18456, Control_c, 0, 64, 84
1, 18476, Control_c, 0, 64, 77
1, 18482, Note_off_c, 0, 73, 34
1, 18495, Control_c, 0, 64, 69
1, 18513, Control_c, 0, 64, 63
1, 18532, Control_c, 0, 64, 58
1, 18551, Control_c, 0, 64, 55
1, 18569, Control_c, 0, 64, 52
1, 18589, Control_c, 0, 64, 49
1, 18663, Control_c, 0, 64, 53
1, 18682, Control_c, 0, 64, 57
1, 18700, Control_c, 0, 64, 61
1, 18721, Control_c, 0, 64, 66
1, 18738, Note_on_c, 0, 80, 69
1, 18739, Control_c, 0, 64, 72
1, 18756, Control_c, 0, 64, 78
1, 18771, Note_off_c, 0, 65, 59
1, 18774, Control_c, 0, 64, 85
1, 18794, Control_c, 0, 64, 93
1, 18812, Control_c, 0, 64, 100
1, 18831, Control_c, 0, 64, 106
1, 18850, Control_c, 0, 64, 110
1, 18945, Note_off_c, 0, 78, 27
1, 19017, Control_c, 0, 64, 105
1, 19038, Control_c, 0, 64, 101
1, 19055, Control_c, 0, 64, 96
1, 19064, Note_off_c, 0, 80, 56
1, 19074, Control_c, 0, 64, 90
1, 19088, Note_on_c, 0, 66, 50
1, 19091, Control_c, 0, 64, 84
1, 19092, Note_on_c, 0, 81, 59
1, 19100, Note_on_c, 0, 54, 42
1, 19112, Control_c, 0, 64, 79
1, 19131, Control_c, 0, 64, 73
1, 19141, Note_off_c, 0, 56, 35
1, 19147, Control_c, 0, 64, 67
1, 19167, Control_c, 0, 64, 61
1, 19186, Control_c, 0, 64, 57
1, 19205, Control_c, 0, 64, 55
1, 19225, Control_c, 0, 64, 52
1, 19261, Control_c, 0, 64, 49
1, 19336, Control_c, 0, 64, 52
1, 19355, Control_c, 0, 64, 57
1, 19373, Control_c, 0, 64, 62
1, 19393, Control_c, 0, 64, 68
1, 19410, Control_c, 0, 64, 74
1, 19430, Control_c, 0, 64, 81
1, 19436, Note_off_c, 0, 66, 62
1, 19438, Note_on_c, 0, 77, 66
1, 19449, Control_c, 0, 64, 89
1, 19467, Control_c, 0, 64, 96
1, 19486, Control_c, 0, 64, 103
1, 19505, Control_c, 0, 64, 108
1, 19523, Control_c, 0, 64, 112
1, 19534, Note_off_c, 0, 54, 61
1, 19579, Control_c, 0, 64, 116
1, 19729, Control_c, 0, 64, 110
1, 19767, Control_c, 0, 64, 103
1, 19778, Note_on_c, 0, 61, 59
1, 19783, Note_on_c, 0, 52, 54
1, 19787, Control_c, 0, 64, 98
1, 19790, Note_on_c, 0, 78, 63
1, 19804, Control_c, 0, 64, 93
1, 19822, Control_c, 0, 64, 89
1, 19834, Note_off_c, 0, 81, 39
1, 19839, Control_c, 0, 64, 85
1, 19861, Control_c, 0, 64, 81
1, 19879, Control_c, 0, 64, 77
1, 19897, Control_c, 0, 64, 72
1, 19916, Control_c, 0, 64, 67
1, 19934, Control_c, 0, 64, 63
1, 19937, Note_off_c, 0, 77, 48
1, 19953, Control_c, 0, 64, 60
1, 19971, Control_c, 0, 64, 57
1, 19991, Control_c, 0, 64, 53
1, 20009, Control_c, 0, 64, 51
1, 20028, Control_c, 0, 64, 49
1, 20083, Control_c, 0, 64, 54
1, 20103, Control_c, 0, 64, 59
1, 20121, Control_c, 0, 64, 64
1, 20130, Note_on_c, 0, 81, 68
1, 20140, Control_c, 0, 64, 69
1, 20159, Control_c, 0, 64, 75
1, 20177, Control_c, 0, 64, 82
1, 20189, Note_off_c, 0, 78, 56
1, 20196, Control_c, 0, 64, 90
1, 20215, Control_c, 0, 64, 98
1, 20233, Control_c, 0, 64, 107
1, 20253, Control_c, 0, 64, 116
1, 20271, Control_c, 0, 64, 122
1, 20290, Control_c, 0, 64, 127
1, 20458, Control_c, 0, 64, 120
1, 20473, Note_on_c, 0, 54, 54
1, 20477, Control_c, 0, 64, 116
1, 20484, Note_off_c, 0, 61, 35
1, 20484, Poly_aftertouch_c, 0, 61, 0
1, 20488, Note_on_c, 0, 71, 50
1, 20495, Control_c, 0, 64, 111
1, 20500, Note_on_c, 0, 50, 42
1, 20513, Control_c, 0, 64, 105
1, 20517, Note_off_c, 0, 81, 37
1, 20533, Control_c, 0, 64, 99
1, 20551, Control_c, 0, 64, 94
1, 20570, Control_c, 0, 64, 90
1, 20590, Control_c, 0, 64, 86
1, 20608, Control_c, 0, 64, 82
1, 20626, Control_c, 0, 64, 78
1, 20640, Note_off_c, 0, 52, 27
1, 20644, Control_c, 0, 64, 74
1, 20663, Control_c, 0, 64, 69
1, 20682, Control_c, 0, 64, 66
1, 20700, Control_c, 0, 64, 62
1, 20720, Control_c, 0, 64, 60
1, 20738, Control_c, 0, 64, 57
1, 20757, Control_c, 0, 64, 55
1, 20776, Control_c, 0, 64, 51
1, 20795, Control_c, 0, 64, 48
1, 20813, Control_c, 0, 64, 45
1, 20828, Note_on_c, 0, 81, 66
1, 20869, Control_c, 0, 64, 48
1, 20888, Control_c, 0, 64, 54
1, 20907, Control_c, 0, 64, 62
1, 20926, Control_c, 0, 64, 69
1, 20944, Control_c, 0, 64, 74
1, 20959, Note_off_c, 0, 71, 45
1, 20962, Control_c, 0, 64, 79
1, 20981, Control_c, 0, 64, 82
1, 21000, Control_c, 0, 64, 84
1, 21076, Control_c, 0, 64, 81
1, 21113, Control_c, 0, 64, 79
1, 21150, Control_c, 0, 64, 77
1, 21162, Note_on_c, 0, 80, 68
1, 21168, Note_on_c, 0, 53, 52
1, 21168, Control_c, 0, 64, 75
1, 21207, Control_c, 0, 64, 72
1, 21262, Control_c, 0, 64, 70
1, 21306, Note_off_c, 0, 81, 41
1, 21318, Control_c, 0, 64, 68
1, 21327, Note_off_c, 0, 54, 38
1, 21355, Control_c, 0, 64, 67
1, 21374, Control_c, 0, 64, 66
1, 21393, Control_c, 0, 64, 65
1, 21430, Control_c, 0, 64, 63
1, 21449, Control_c, 0, 64, 62
1, 21468, Control_c, 0, 64, 61
1, 21486, Control_c, 0, 64, 60
1, 21511, Note_on_c, 0, 81, 69
1, 21543, Control_c, 0, 64, 57
1, 21580, Control_c, 0, 64, 55
1, 21618, Control_c, 0, 64, 53
1, 21655, Control_c, 0, 64, 51
1, 21677, Note_off_c, 0, 80, 39
1, 21692, Control_c, 0, 64, 48
1, 21748, Control_c, 0, 64, 46
1, 21785, Control_c, 0, 64, 43
1, 21804, Control_c, 0, 64, 41
1, 21841, Control_c, 0, 64, 36
1, 21861, Note_on_c, 0, 54, 43
1, 21874, Note_on_c, 0, 83, 64
1, 21880, Control_c, 0, 64, 31
1, 21916, Control_c, 0, 64, 27
1, 21932, Note_off_c, 0, 81, 52
1, 21972, Control_c, 0, 64, 23
1, 22038, Note_off_c, 0, 53, 30
1, 22104, Control_c, 0, 64, 29
1, 22122, Control_c, 0, 64, 36
1, 22140, Control_c, 0, 64, 46
1, 22147, Note_on_c, 0, 81, 71
1, 22159, Control_c, 0, 64, 57
1, 22178, Control_c, 0, 64, 65
1, 22196, Note_off_c, 0, 83, 57
1, 22196, Control_c, 0, 64, 67
1, 22253, Control_c, 0, 64, 66
1, 22271, Control_c, 0, 64, 65
1, 22290, Control_c, 0, 64, 63
1, 22308, Control_c, 0, 64, 61
1, 22347, Control_c, 0, 64, 57
1, 22373, Note_on_c, 0, 80, 69
1, 22383, Control_c, 0, 64, 55
1, 22421, Control_c, 0, 64, 51
1, 22427, Note_off_c, 0, 81, 57
1, 22440, Control_c, 0, 64, 49
1, 22459, Control_c, 0, 64, 47
1, 22478, Control_c, 0, 64, 44
1, 22496, Control_c, 0, 64, 41
1, 22533, Control_c, 0, 64, 36
1, 22589, Control_c, 0, 64, 31
1, 22598, Note_on_c, 0, 59, 44
1, 22607, Note_on_c, 0, 81, 60
1, 22643, Note_off_c, 0, 80, 57
1, 22644, Control_c, 0, 64, 26
1, 22689, Note_off_c, 0, 54, 48
1, 22721, Control_c, 0, 64, 22
1, 22848, Note_on_c, 0, 80, 62
1, 22918, Note_off_c, 0, 81, 36
1, 23001, Control_c, 0, 64, 28
1, 23019, Control_c, 0, 64, 33
1, 23039, Control_c, 0, 64, 39
1, 23055, Control_c, 0, 64, 48
1, 23060, Note_off_c, 0, 50, 57
1, 23064, Note_on_c, 0, 78, 60
1, 23076, Control_c, 0, 64, 59
1, 23077, Note_off_c, 0, 80, 62
1, 23095, Control_c, 0, 64, 66
1, 23112, Control_c, 0, 64, 70
1, 23133, Control_c, 0, 64, 73
1, 23151, Control_c, 0, 64, 75
1, 23281, Control_c, 0, 64, 73
1, 23318, Control_c, 0, 64, 70
1, 23338, Control_c, 0, 64, 67
1, 23356, Control_c, 0, 64, 65
1, 23363, Note_off_c, 0, 78, 54
1, 23365, Note_on_c, 0, 77, 58
1, 23374, Control_c, 0, 64, 62
1, 23377, Note_on_c, 0, 49, 36
1, 23393, Control_c, 0, 64, 59
1, 23413, Control_c, 0, 64, 56
1, 23431, Control_c, 0, 64, 54
1, 23450, Control_c, 0, 64, 50
1, 23468, Control_c, 0, 64, 46
1, 23487, Control_c, 0, 64, 41
1, 23505, Control_c, 0, 64, 36
1, 23619, Control_c, 0, 64, 46
1, 23636, Control_c, 0, 64, 54
1, 23655, Control_c, 0, 64, 62
1, 23675, Control_c, 0, 64, 68
1, 23686, Note_off_c, 0, 77, 52
1, 23693, Control_c, 0, 64, 73
1, 23711, Control_c, 0, 64, 77
1, 23720, Note_off_c, 0, 59, 48
1, 23730, Control_c, 0, 64, 81
1, 23750, Control_c, 0, 64, 86
1, 23767, Control_c, 0, 64, 92
1, 23786, Control_c, 0, 64, 96
1, 23825, Control_c, 0, 64, 101
1, 23886, Note_on_c, 0, 72, 61
1, 24161, Control_c, 0, 64, 96
1, 24197, Control_c, 0, 64, 88
1, 24217, Control_c, 0, 64, 83
1, 24235, Note_on_c, 0, 56, 57
1, 24235, Control_c, 0, 64, 77
1, 24253, Control_c, 0, 64, 71
1, 24273, Control_c, 0, 64, 66
1, 24291, Control_c, 0, 64, 63
1, 24310, Control_c, 0, 64, 62
1, 24348, Control_c, 0, 64, 60
1, 24385, Control_c, 0, 64, 58
1, 24497, Control_c, 0, 64, 61
1, 24515, Control_c, 0, 64, 63
1, 24534, Control_c, 0, 64, 66
1, 24553, Control_c, 0, 64, 69
1, 24565, Note_on_c, 0, 73, 69
1, 24571, Control_c, 0, 64, 73
1, 24590, Control_c, 0, 64, 78
1, 24609, Control_c, 0, 64, 83
1, 24628, Control_c, 0, 64, 86
1, 24691, Note_off_c, 0, 72, 53
1, 24796, Control_c, 0, 64, 83
1, 24816, Control_c, 0, 64, 79
1, 24834, Control_c, 0, 64, 76
1, 24851, Control_c, 0, 64, 71
1, 24871, Control_c, 0, 64, 66
1, 24889, Control_c, 0, 64, 63
1, 24908, Note_on_c, 0, 57, 51
1, 24908, Control_c, 0, 64, 61
1, 24911, Note_on_c, 0, 78, 65
1, 24945, Control_c, 0, 64, 57
1, 24965, Control_c, 0, 64, 54
1, 24982, Control_c, 0, 64, 50
1, 24984, Note_off_c, 0, 73, 55
1, 25002, Control_c, 0, 64, 46
1, 25020, Control_c, 0, 64, 41
1, 25039, Control_c, 0, 64, 37
1, 25055, Note_off_c, 0, 56, 37
1, 25114, Control_c, 0, 64, 46
1, 25132, Control_c, 0, 64, 55
1, 25151, Control_c, 0, 64, 65
1, 25172, Control_c, 0, 64, 73
1, 25188, Control_c, 0, 64, 79
1, 25207, Control_c, 0, 64, 85
1, 25226, Control_c, 0, 64, 89
1, 25236, Note_off_c, 0, 78, 45
1, 25263, Control_c, 0, 64, 93
1, 25279, Note_on_c, 0, 72, 64
1, 25450, Control_c, 0, 64, 89
1, 25489, Control_c, 0, 64, 87
1, 25506, Control_c, 0, 64, 85
1, 25525, Control_c, 0, 64, 82
1, 25544, Control_c, 0, 64, 79
1, 25562, Control_c, 0, 64, 76
1, 25581, Control_c, 0, 64, 73
1, 25597, Note_on_c, 0, 54, 47
1, 25599, Control_c, 0, 64, 70
1, 25619, Control_c, 0, 64, 68
1, 25638, Control_c, 0, 64, 66
1, 25656, Control_c, 0, 64, 65
1, 25675, Control_c, 0, 64, 63
1, 25693, Control_c, 0, 64, 61
1, 25713, Control_c, 0, 64, 60
1, 25730, Control_c, 0, 64, 57
1, 25750, Control_c, 0, 64, 55
1, 25768, Control_c, 0, 64, 52
1, 25774, Note_off_c, 0, 57, 36
1, 25774, Poly_aftertouch_c, 0, 57, 0
1, 25787, Control_c, 0, 64, 50
1, 25807, Control_c, 0, 64, 47
1, 25824, Control_c, 0, 64, 45
1, 25917, Control_c, 0, 64, 48
1, 25936, Control_c, 0, 64, 54
1, 25943, Note_on_c, 0, 73, 59
1, 25955, Control_c, 0, 64, 60
1, 25974, Control_c, 0, 64, 64
1, 25992, Control_c, 0, 64, 66
1, 26036, Note_off_c, 0, 72, 47
1, 26049, Control_c, 0, 64, 65
1, 26067, Control_c, 0, 64, 64
1, 26086, Control_c, 0, 64, 62
1, 26105, Control_c, 0, 64, 61
1, 26124, Control_c, 0, 64, 60
1, 26161, Control_c, 0, 64, 57
1, 26217, Control_c, 0, 64, 55
1, 26273, Control_c, 0, 64, 53
1, 26311, Control_c, 0, 64, 51
1, 26318, Note_on_c, 0, 53, 38
1, 26320, Note_on_c, 0, 80, 55
1, 26348, Note_off_c, 0, 73, 51
1, 26367, Control_c, 0, 64, 48
1, 26423, Control_c, 0, 64, 46
1, 26431, Note_off_c, 0, 54, 35
1, 26478, Control_c, 0, 64, 43
1, 26516, Control_c, 0, 64, 41
1, 26590, Control_c, 0, 64, 37
1, 26615, Note_on_c, 0, 71, 46
1, 26735, Note_off_c, 0, 80, 31
1, 26836, Note_on_c, 0, 73, 59
1, 26912, Note_off_c, 0, 71, 46
1, 27058, Note_on_c, 0, 74, 60
1, 27093, Note_off_c, 0, 73, 52
1, 27190, Control_c, 0, 64, 33
1, 27280, Note_on_c, 0, 73, 61
1, 27339, Control_c, 0, 64, 28
1, 27353, Note_off_c, 0, 74, 50
1, 27451, Control_c, 0, 64, 24
1, 27501, Note_on_c, 0, 71, 54
1, 27540, Note_off_c, 0, 73, 55
1, 27565, Control_c, 0, 64, 20
1, 27745, Note_off_c, 0, 71, 48
1, 27755, Note_on_c, 0, 69, 44
1, 27769, Control_c, 0, 64, 24
1, 27788, Control_c, 0, 64, 29
1, 27806, Control_c, 0, 64, 34
1, 27825, Control_c, 0, 64, 42
1, 27844, Control_c, 0, 64, 52
1, 27852, Note_off_c, 0, 53, 52
1, 27861, Control_c, 0, 64, 62
1, 27882, Control_c, 0, 64, 68
1, 27900, Control_c, 0, 64, 72
1, 27919, Control_c, 0, 64, 75
1, 27937, Control_c, 0, 64, 78
1, 27956, Control_c, 0, 64, 82
1, 27975, Control_c, 0, 64, 84
1, 28007, Note_on_c, 0, 53, 35
1, 28143, Control_c, 0, 64, 82
1, 28218, Control_c, 0, 64, 80
1, 28243, Note_on_c, 0, 54, 40
1, 28273, Control_c, 0, 64, 77
1, 28288, Note_off_c, 0, 53, 34
1, 28311, Control_c, 0, 64, 75
1, 28367, Control_c, 0, 64, 72
1, 28404, Control_c, 0, 64, 70
1, 28442, Control_c, 0, 64, 67
1, 28461, Control_c, 0, 64, 65
1, 28464, Note_on_c, 0, 56, 50
1, 28479, Control_c, 0, 64, 63
1, 28497, Control_c, 0, 64, 62
1, 28517, Note_off_c, 0, 54, 44
1, 28517, Control_c, 0, 64, 61
1, 28535, Control_c, 0, 64, 60
1, 28574, Control_c, 0, 64, 57
1, 28610, Control_c, 0, 64, 55
1, 28667, Control_c, 0, 64, 53
1, 28682, Note_on_c, 0, 54, 52
1, 28704, Control_c, 0, 64, 51
1, 28741, Control_c, 0, 64, 49
1, 28766, Note_off_c, 0, 56, 37
1, 28798, Control_c, 0, 64, 47
1, 28890, Control_c, 0, 64, 45
1, 28916, Note_on_c, 0, 53, 52
1, 28920, Note_off_c, 0, 54, 55
1, 29003, Control_c, 0, 64, 42
1, 29115, Control_c, 0, 64, 40
1, 29131, Note_off_c, 0, 53, 55
1, 29145, Note_on_c, 0, 54, 46
1, 29357, Note_off_c, 0, 54, 56
1, 29376, Note_on_c, 0, 56, 47
1, 29384, Note_on_c, 0, 68, 52
1, 29497, Note_off_c, 0, 69, 32
1, 29561, Note_off_c, 0, 49, 40
1, 29594, Note_off_c, 0, 56, 55
1, 29597, Note_on_c, 0, 57, 51
1, 29610, Note_on_c, 0, 66, 58
1, 29739, Note_off_c, 0, 68, 32
1, 29825, Note_on_c, 0, 65, 54
1, 29827, Note_on_c, 0, 59, 45
1, 29844, Note_off_c, 0, 66, 52
1, 29844, Note_off_c, 0, 57, 50
1, 29844, Poly_aftertouch_c, 0, 57, 0
1, 30034, Note_on_c, 0, 66, 57
1, 30041, Note_off_c, 0, 59, 57
1, 30041, Note_on_c, 0, 57, 51
1, 30089, Control_c, 0, 64, 36
1, 30119, Note_off_c, 0, 65, 52
1, 30254, Note_on_c, 0, 68, 62
1, 30261, Note_off_c, 0, 57, 56
1, 30261, Note_on_c, 0, 56, 56
1, 30261, Poly_aftertouch_c, 0, 57, 0
1, 30331, Note_off_c, 0, 66, 48
1, 30487, Note_on_c, 0, 66, 62
1, 30504, Note_on_c, 0, 57, 47
1, 30579, Note_off_c, 0, 56, 37
1, 30594, Note_off_c, 0, 68, 54
1, 30718, Note_on_c, 0, 65, 61
1, 30754, Note_off_c, 0, 66, 49
1, 30932, Note_on_c, 0, 66, 59
1, 31005, Note_off_c, 0, 65, 55
1, 31023, Control_c, 0, 64, 32
1, 31115, Control_c, 0, 64, 28
1, 31185, Note_on_c, 0, 48, 32
1, 31189, Control_c, 0, 64, 24
1, 31200, Note_on_c, 0, 75, 59
1, 31265, Control_c, 0, 64, 20
1, 31282, Note_off_c, 0, 66, 38
1, 31321, Control_c, 0, 64, 14
1, 31508, Control_c, 0, 64, 19
1, 31527, Control_c, 0, 64, 26
1, 31546, Control_c, 0, 64, 33
1, 31564, Control_c, 0, 64, 44
1, 31583, Control_c, 0, 64, 57
1, 31603, Control_c, 0, 64, 66
1, 31621, Control_c, 0, 64, 70
1, 31658, Control_c, 0, 64, 72
1, 31734, Control_c, 0, 64, 69
1, 31752, Control_c, 0, 64, 66
1, 31770, Control_c, 0, 64, 63
1, 31789, Control_c, 0, 64, 60
1, 31808, Control_c, 0, 64, 58
1, 31826, Control_c, 0, 64, 56
1, 31841, Note_on_c, 0, 66, 51
1, 31849, Note_off_c, 0, 75, 44
1, 31864, Control_c, 0, 64, 52
1, 31977, Control_c, 0, 64, 50
1, 31990, Note_off_c, 0, 66, 61
1, 32032, Control_c, 0, 64, 48
1, 32070, Control_c, 0, 64, 46
1, 32087, Control_c, 0, 64, 43
1, 32089, Note_off_c, 0, 48, 41
1, 32096, Note_on_c, 0, 49, 40
1, 32105, Control_c, 0, 64, 41
1, 32111, Note_on_c, 0, 66, 46
1, 32145, Control_c, 0, 64, 36
1, 32182, Control_c, 0, 64, 30
1, 32220, Control_c, 0, 64, 26
1, 32312, Control_c, 0, 64, 32
1, 32331, Control_c, 0, 64, 38
1, 32346, Poly_aftertouch_c, 0, 57, 24
1, 32350, Control_c, 0, 64, 48
1, 32368, Control_c, 0, 64, 58
1, 32376, Note_off_c, 0, 57, 44
1, 32376, Poly_aftertouch_c, 0, 57, 0
1, 32388, Control_c, 0, 64, 66
1, 32406, Control_c, 0, 64, 72
1, 32426, Control_c, 0, 64, 76
1, 32443, Control_c, 0, 64, 80
1, 32463, Control_c, 0, 64, 84
1, 32482, Control_c, 0, 64, 87
1, 32632, Note_on_c, 0, 56, 46
1, 32640, Control_c, 0, 64, 85
1, 32659, Control_c, 0, 64, 83
1, 32678, Control_c, 0, 64, 80
1, 32696, Control_c, 0, 64, 77
1, 32717, Control_c, 0, 64, 74
1, 32725, Note_off_c, 0, 56, 61
1, 32732, Control_c, 0, 64, 71
1, 32752, Control_c, 0, 64, 68
1, 32755, Note_on_c, 0, 54, 46
1, 32772, Control_c, 0, 64, 65
1, 32790, Control_c, 0, 64, 62
1, 32809, Control_c, 0, 64, 60
1, 32827, Control_c, 0, 64, 57
1, 32846, Control_c, 0, 64, 55
1, 32883, Control_c, 0, 64, 52
1, 32886, Note_off_c, 0, 54, 54
1, 32901, Note_on_c, 0, 56, 44
1, 32921, Control_c, 0, 64, 49
1, 32958, Control_c, 0, 64, 46
1, 32995, Control_c, 0, 64, 42
1, 33015, Control_c, 0, 64, 40
1, 33052, Control_c, 0, 64, 36
1, 33313, Control_c, 0, 64, 32
1, 33360, Note_off_c, 0, 66, 42
1, 33360, Note_on_c, 0, 65, 44
1, 33484, Note_off_c, 0, 65, 57
1, 33499, Control_c, 0, 64, 28
1, 33502, Note_on_c, 0, 63, 43
1, 33594, Control_c, 0, 64, 24
1, 33624, Note_off_c, 0, 63, 51
1, 33660, Note_on_c, 0, 65, 45
1, 33856, Control_c, 0, 64, 31
1, 33874, Control_c, 0, 64, 36
1, 33887, Note_off_c, 0, 65, 51
1, 33893, Control_c, 0, 64, 42
1, 33901, Note_on_c, 0, 61, 39
1, 33909, Control_c, 0, 64, 49
1, 33930, Control_c, 0, 64, 57
1, 33950, Control_c, 0, 64, 63
1, 33967, Control_c, 0, 64, 68
1, 33986, Control_c, 0, 64, 71
1, 34005, Control_c, 0, 64, 74
1, 34024, Control_c, 0, 64, 78
1, 34043, Control_c, 0, 64, 82
1, 34061, Control_c, 0, 64, 86
1, 34085, Note_off_c, 0, 49, 41
1, 34099, Control_c, 0, 64, 92
1, 34117, Note_on_c, 0, 63, 48
1, 34119, Note_off_c, 0, 61, 47
1, 34119, Poly_aftertouch_c, 0, 61, 0
1, 34346, Note_on_c, 0, 49, 46
1, 34352, Note_on_c, 0, 65, 48
1, 34369, Note_off_c, 0, 63, 38
1, 34379, Control_c, 0, 64, 88
1, 34417, Control_c, 0, 64, 84
1, 34435, Control_c, 0, 64, 82
1, 34473, Control_c, 0, 64, 80
1, 34510, Control_c, 0, 64, 77
1, 34548, Control_c, 0, 64, 74
1, 34568, Note_on_c, 0, 66, 53
1, 34604, Control_c, 0, 64, 72
1, 34640, Control_c, 0, 64, 70
1, 34679, Control_c, 0, 64, 67
1, 34687, Note_off_c, 0, 65, 33
1, 34698, Control_c, 0, 64, 66
1, 34715, Control_c, 0, 64, 65
1, 34753, Control_c, 0, 64, 63
1, 34777, Note_on_c, 0, 68, 59
1, 34791, Control_c, 0, 64, 62
1, 34809, Control_c, 0, 64, 61
1, 34817, Note_off_c, 0, 66, 49
1, 34846, Control_c, 0, 64, 60
1, 34903, Control_c, 0, 64, 57
1, 34940, Control_c, 0, 64, 55
1, 34977, Control_c, 0, 64, 53
1, 35005, Note_on_c, 0, 51, 50
1, 35012, Note_on_c, 0, 66, 52
1, 35013, Control_c, 0, 64, 50
1, 35052, Control_c, 0, 64, 46
1, 35090, Control_c, 0, 64, 42
1, 35104, Note_off_c, 0, 68, 38
1, 35147, Control_c, 0, 64, 38
1, 35224, Note_off_c, 0, 49, 39
1, 35239, Control_c, 0, 64, 34
1, 35240, Note_on_c, 0, 65, 58
1, 35290, Note_off_c, 0, 66, 56
1, 35426, Note_off_c, 0, 56, 35
1, 35466, Note_on_c, 0, 66, 62
1, 35525, Note_off_c, 0, 65, 55
1, 35576, Control_c, 0, 64, 30
1, 35699, Note_on_c, 0, 68, 59
1, 35705, Note_on_c, 0, 53, 47
1, 35796, Note_off_c, 0, 51, 48
1, 35803, Note_off_c, 0, 66, 38
1, 35918, Note_on_c, 0, 69, 60
1, 35971, Note_off_c, 0, 68, 59
1, 36006, Control_c, 0, 64, 26
1, 36062, Control_c, 0, 64, 21
1, 36100, Control_c, 0, 64, 17
1, 36157, Note_on_c, 0, 71, 57
1, 36219, Note_off_c, 0, 69, 56
1, 36479, Note_off_c, 0, 71, 51
1, 36483, Note_on_c, 0, 69, 51
1, 36498, Note_on_c, 0, 54, 36
1, 36610, Note_off_c, 0, 53, 35
1, 36643, Note_off_c, 0, 69, 55
1, 36668, Note_on_c, 0, 68, 47
1, 36754, Control_c, 0, 64, 12
1, 36829, Control_c, 0, 64, 8
1, 36837, Note_off_c, 0, 68, 54
1, 36873, Note_on_c, 0, 66, 40
1, 37073, Control_c, 0, 64, 13
1, 37110, Control_c, 0, 64, 20
1, 37127, Control_c, 0, 64, 25
1, 37147, Control_c, 0, 64, 30
1, 37165, Control_c, 0, 64, 36
1, 37184, Control_c, 0, 64, 44
1, 37202, Control_c, 0, 64, 52
1, 37221, Control_c, 0, 64, 60
1, 37241, Control_c, 0, 64, 64
1, 37258, Control_c, 0, 64, 67
1, 37276, Note_on_c, 0, 42, 38
1, 37276, Control_c, 0, 64, 69
1, 37297, Control_c, 0, 64, 72
1, 37315, Control_c, 0, 64, 75
1, 37334, Control_c, 0, 64, 79
1, 37352, Control_c, 0, 64, 84
1, 37372, Control_c, 0, 64, 89
1, 37390, Control_c, 0, 64, 95
1, 37408, Control_c, 0, 64, 99
1, 37413, Note_off_c, 0, 66, 36
1, 37445, Control_c, 0, 64, 105
1, 37484, Control_c, 0, 64, 109
1, 37685, Note_on_c, 0, 69, 44
1, 37839, Control_c, 0, 64, 104
1, 37841, Note_on_c, 0, 73, 60
1, 37894, Control_c, 0, 64, 100
1, 37933, Control_c, 0, 64, 95
1, 37964, Note_off_c, 0, 69, 25
1, 37969, Control_c, 0, 64, 89
1, 37988, Control_c, 0, 64, 86
1, 38006, Control_c, 0, 64, 84
1, 38018, Note_on_c, 0, 45, 48
1, 38024, Control_c, 0, 64, 82
1, 38029, Note_on_c, 0, 78, 59
1, 38045, Control_c, 0, 64, 80
1, 38062, Control_c, 0, 64, 78
1, 38082, Control_c, 0, 64, 75
1, 38100, Control_c, 0, 64, 72
1, 38105, Note_off_c, 0, 73, 52
1, 38119, Control_c, 0, 64, 70
1, 38156, Control_c, 0, 64, 68
1, 38169, Note_off_c, 0, 42, 26
1, 38212, Control_c, 0, 64, 67
1, 38260, Note_on_c, 0, 73, 65
1, 38268, Control_c, 0, 64, 66
1, 38306, Control_c, 0, 64, 65
1, 38325, Control_c, 0, 64, 64
1, 38328, Note_off_c, 0, 54, 34
1, 38345, Note_off_c, 0, 78, 57
1, 38362, Control_c, 0, 64, 63
1, 38399, Control_c, 0, 64, 61
1, 38437, Control_c, 0, 64, 60
1, 38481, Note_on_c, 0, 75, 69
1, 38512, Control_c, 0, 64, 58
1, 38568, Control_c, 0, 64, 56
1, 38608, Note_off_c, 0, 73, 37
1, 38623, Control_c, 0, 64, 54
1, 38680, Control_c, 0, 64, 51
1, 38710, Note_on_c, 0, 49, 52
1, 38713, Note_on_c, 0, 77, 62
1, 38716, Control_c, 0, 64, 49
1, 38751, Note_off_c, 0, 75, 61
1, 38753, Control_c, 0, 64, 47
1, 38793, Control_c, 0, 64, 44
1, 38810, Control_c, 0, 64, 42
1, 38829, Control_c, 0, 64, 40
1, 38885, Control_c, 0, 64, 35
1, 38929, Note_on_c, 0, 78, 75
1, 38942, Control_c, 0, 64, 31
1, 38998, Note_off_c, 0, 45, 32
1, 39017, Control_c, 0, 64, 26
1, 39024, Note_off_c, 0, 77, 57
1, 39091, Control_c, 0, 64, 21
1, 39147, Control_c, 0, 64, 17
1, 39154, Note_on_c, 0, 80, 73
1, 39223, Control_c, 0, 64, 13
1, 39245, Note_off_c, 0, 78, 60
1, 39260, Control_c, 0, 64, 9
1, 39334, Control_c, 0, 64, 0
1, 39379, Note_on_c, 0, 81, 64
1, 39380, Note_on_c, 0, 54, 57
1, 39452, Note_off_c, 0, 80, 55
1, 39456, Note_off_c, 0, 49, 55
1, 39465, Control_c, 0, 64, 9
1, 39503, Control_c, 0, 64, 16
1, 39521, Control_c, 0, 64, 20
1, 39540, Control_c, 0, 64, 25
1, 39559, Control_c, 0, 64, 30
1, 39577, Control_c, 0, 64, 38
1, 39595, Control_c, 0, 64, 47
1, 39596, Note_on_c, 0, 80, 68
1, 39615, Control_c, 0, 64, 56
1, 39633, Control_c, 0, 64, 62
1, 39653, Control_c, 0, 64, 65
1, 39662, Note_off_c, 0, 81, 53
1, 39670, Control_c, 0, 64, 67
1, 39690, Control_c, 0, 64, 70
1, 39708, Control_c, 0, 64, 73
1, 39728, Control_c, 0, 64, 76
1, 39746, Control_c, 0, 64, 79
1, 39764, Control_c, 0, 64, 82
1, 39784, Control_c, 0, 64, 84
1, 39817, Note_on_c, 0, 78, 72
1, 39820, Control_c, 0, 64, 86
1, 39867, Note_off_c, 0, 80, 59
1, 39933, Control_c, 0, 64, 84
1, 39951, Control_c, 0, 64, 82
1, 39971, Control_c, 0, 64, 80
1, 39990, Control_c, 0, 64, 78
1, 40007, Control_c, 0, 64, 75
1, 40026, Control_c, 0, 64, 72
1, 40044, Control_c, 0, 64, 70
1, 40064, Control_c, 0, 64, 68
1, 40072, Note_on_c, 0, 59, 60
1, 40082, Control_c, 0, 64, 66
1, 40083, Note_on_c, 0, 80, 61
1, 40100, Control_c, 0, 64, 64
1, 40120, Control_c, 0, 64, 62
1, 40129, Note_off_c, 0, 78, 55
1, 40138, Control_c, 0, 64, 60
1, 40156, Control_c, 0, 64, 58
1, 40176, Control_c, 0, 64, 55
1, 40194, Control_c, 0, 64, 51
1, 40213, Control_c, 0, 64, 49
1, 40285, Note_on_c, 0, 78, 71
1, 40306, Control_c, 0, 64, 51
1, 40325, Control_c, 0, 64, 55
1, 40344, Control_c, 0, 64, 59
1, 40350, Note_off_c, 0, 80, 54
1, 40363, Control_c, 0, 64, 64
1, 40382, Control_c, 0, 64, 68
1, 40401, Control_c, 0, 64, 73
1, 40418, Control_c, 0, 64, 77
1, 40439, Control_c, 0, 64, 80
1, 40456, Control_c, 0, 64, 83
1, 40475, Control_c, 0, 64, 85
1, 40488, Note_on_c, 0, 76, 71
1, 40521, Note_off_c, 0, 78, 64
1, 40568, Control_c, 0, 64, 83
1, 40606, Control_c, 0, 64, 80
1, 40624, Control_c, 0, 64, 78
1, 40644, Control_c, 0, 64, 75
1, 40662, Control_c, 0, 64, 73
1, 40681, Control_c, 0, 64, 70
1, 40699, Control_c, 0, 64, 68
1, 40718, Control_c, 0, 64, 66
1, 40737, Control_c, 0, 64, 64
1, 40754, Control_c, 0, 64, 61
1, 40755, Note_on_c, 0, 75, 68
1, 40770, Note_on_c, 0, 57, 59
1, 40774, Control_c, 0, 64, 59
1, 40795, Control_c, 0, 64, 57
1, 40812, Control_c, 0, 64, 54
1, 40818, Note_off_c, 0, 76, 57
1, 40829, Control_c, 0, 64, 50
1, 40849, Control_c, 0, 64, 46
1, 40868, Control_c, 0, 64, 42
1, 40885, Note_off_c, 0, 59, 53
1, 40885, Control_c, 0, 64, 40
1, 40943, Control_c, 0, 64, 43
1, 40961, Control_c, 0, 64, 50
1, 40979, Control_c, 0, 64, 62
1, 40998, Control_c, 0, 64, 73
1, 41017, Control_c, 0, 64, 82
1, 41035, Control_c, 0, 64, 92
1, 41055, Control_c, 0, 64, 100
1, 41074, Control_c, 0, 64, 105
1, 41110, Control_c, 0, 64, 111
1, 41145, Note_on_c, 0, 76, 75
1, 41147, Control_c, 0, 64, 115
1, 41261, Note_off_c, 0, 75, 46
1, 41391, Control_c, 0, 64, 110
1, 41410, Control_c, 0, 64, 106
1, 41430, Control_c, 0, 64, 101
1, 41447, Control_c, 0, 64, 94
1, 41467, Control_c, 0, 64, 86
1, 41484, Control_c, 0, 64, 78
1, 41503, Control_c, 0, 64, 69
1, 41514, Note_on_c, 0, 78, 68
1, 41518, Note_on_c, 0, 51, 48
1, 41521, Control_c, 0, 64, 61
1, 41541, Control_c, 0, 64, 57
1, 41559, Control_c, 0, 64, 55
1, 41592, Note_off_c, 0, 76, 51
1, 41595, Control_c, 0, 64, 51
1, 41608, Note_off_c, 0, 54, 39
1, 41672, Control_c, 0, 64, 57
1, 41690, Control_c, 0, 64, 63
1, 41709, Control_c, 0, 64, 70
1, 41728, Control_c, 0, 64, 79
1, 41734, Note_off_c, 0, 57, 54
1, 41734, Poly_aftertouch_c, 0, 57, 0
1, 41748, Control_c, 0, 64, 89
1, 41764, Control_c, 0, 64, 101
1, 41784, Control_c, 0, 64, 110
1, 41803, Control_c, 0, 64, 117
1, 41839, Control_c, 0, 64, 122
1, 41893, Note_on_c, 0, 57, 70
1, 41914, Control_c, 0, 64, 126
1, 42176, Control_c, 0, 64, 120
1, 42214, Control_c, 0, 64, 113
1, 42251, Control_c, 0, 64, 107
1, 42270, Note_on_c, 0, 56, 63
1, 42284, Note_on_c, 0, 48, 48
1, 42288, Control_c, 0, 64, 99
1, 42307, Control_c, 0, 64, 92
1, 42325, Control_c, 0, 64, 84
1, 42345, Control_c, 0, 64, 77
1, 42356, Note_off_c, 0, 51, 44
1, 42362, Control_c, 0, 64, 69
1, 42381, Control_c, 0, 64, 64
1, 42401, Control_c, 0, 64, 61
1, 42432, Note_off_c, 0, 57, 33
1, 42432, Poly_aftertouch_c, 0, 57, 0
1, 42437, Control_c, 0, 64, 60
1, 42476, Control_c, 0, 64, 58
1, 42494, Control_c, 0, 64, 55
1, 42513, Control_c, 0, 64, 52
1, 42532, Control_c, 0, 64, 49
1, 42552, Control_c, 0, 64, 47
1, 42569, Control_c, 0, 64, 44
1, 42604, Note_on_c, 0, 76, 66
1, 42606, Control_c, 0, 64, 42
1, 42663, Control_c, 0, 64, 46
1, 42682, Control_c, 0, 64, 53
1, 42700, Control_c, 0, 64, 60
1, 42719, Control_c, 0, 64, 66
1, 42737, Control_c, 0, 64, 69
1, 42782, Note_off_c, 0, 78, 32
1, 42813, Control_c, 0, 64, 68
1, 42830, Control_c, 0, 64, 66
1, 42850, Control_c, 0, 64, 65
1, 42868, Control_c, 0, 64, 63
1, 42888, Control_c, 0, 64, 62
1, 42925, Control_c, 0, 64, 61
1, 42943, Control_c, 0, 64, 60
1, 42960, Note_on_c, 0, 75, 65
1, 42980, Note_on_c, 0, 54, 56
1, 43019, Control_c, 0, 64, 57
1, 43020, Note_off_c, 0, 76, 52
1, 43074, Control_c, 0, 64, 55
1, 43093, Control_c, 0, 64, 53
1, 43111, Control_c, 0, 64, 50
1, 43132, Control_c, 0, 64, 46
1, 43143, Note_off_c, 0, 56, 57
1, 43148, Control_c, 0, 64, 41
1, 43167, Control_c, 0, 64, 37
1, 43206, Control_c, 0, 64, 32
1, 43298, Control_c, 0, 64, 36
1, 43317, Control_c, 0, 64, 42
1, 43336, Control_c, 0, 64, 50
1, 43343, Note_on_c, 0, 81, 68
1, 43355, Control_c, 0, 64, 60
1, 43373, Control_c, 0, 64, 67
1, 43379, Note_off_c, 0, 75, 57
1, 43392, Control_c, 0, 64, 70
1, 43561, Control_c, 0, 64, 68
1, 43578, Control_c, 0, 64, 67
1, 43598, Control_c, 0, 64, 66
1, 43616, Control_c, 0, 64, 64
1, 43635, Control_c, 0, 64, 63
1, 43653, Control_c, 0, 64, 61
1, 43673, Control_c, 0, 64, 60
1, 43687, Note_on_c, 0, 80, 61
1, 43691, Note_on_c, 0, 52, 46
1, 43729, Control_c, 0, 64, 57
1, 43766, Control_c, 0, 64, 54
1, 43784, Control_c, 0, 64, 52
1, 43795, Note_off_c, 0, 81, 47
1, 43803, Control_c, 0, 64, 48
1, 43822, Control_c, 0, 64, 45
1, 43840, Control_c, 0, 64, 40
1, 43859, Control_c, 0, 64, 36
1, 43941, Note_on_c, 0, 78, 68
1, 43947, Note_off_c, 0, 54, 30
1, 43971, Control_c, 0, 64, 42
1, 43991, Control_c, 0, 64, 48
1, 44009, Control_c, 0, 64, 56
1, 44017, Note_off_c, 0, 80, 56
1, 44028, Control_c, 0, 64, 63
1, 44046, Control_c, 0, 64, 68
1, 44065, Control_c, 0, 64, 71
1, 44102, Control_c, 0, 64, 73
1, 44166, Note_on_c, 0, 76, 67
1, 44201, Note_off_c, 0, 78, 44
1, 44252, Control_c, 0, 64, 70
1, 44307, Control_c, 0, 64, 68
1, 44345, Control_c, 0, 64, 67
1, 44365, Control_c, 0, 64, 66
1, 44382, Control_c, 0, 64, 65
1, 44394, Note_on_c, 0, 51, 47
1, 44400, Note_on_c, 0, 78, 61
1, 44401, Control_c, 0, 64, 64
1, 44417, Note_on_c, 0, 44, 39
1, 44419, Control_c, 0, 64, 63
1, 44439, Note_off_c, 0, 76, 42
1, 44439, Control_c, 0, 64, 62
1, 44457, Control_c, 0, 64, 61
1, 44465, Note_off_c, 0, 48, 35
1, 44495, Control_c, 0, 64, 60
1, 44532, Control_c, 0, 64, 57
1, 44534, Note_off_c, 0, 52, 34
1, 44570, Control_c, 0, 64, 54
1, 44607, Control_c, 0, 64, 51
1, 44627, Control_c, 0, 64, 49
1, 44629, Note_on_c, 0, 76, 62
1, 44663, Control_c, 0, 64, 46
1, 44682, Control_c, 0, 64, 43
1, 44684, Note_off_c, 0, 78, 58
1, 44701, Control_c, 0, 64, 40
1, 44738, Control_c, 0, 64, 36
1, 44848, Note_on_c, 0, 75, 67
1, 44849, Control_c, 0, 64, 32
1, 44889, Note_off_c, 0, 76, 60
1, 44925, Control_c, 0, 64, 28
1, 45156, Note_on_c, 0, 76, 57
1, 45157, Note_on_c, 0, 49, 43
1, 45204, Note_off_c, 0, 75, 53
1, 45219, Note_off_c, 0, 44, 33
1, 45244, Control_c, 0, 64, 24
1, 45319, Note_off_c, 0, 51, 51
1, 45411, Control_c, 0, 64, 19
1, 45468, Control_c, 0, 64, 14
1, 45571, Note_on_c, 0, 75, 57
1, 45646, Note_off_c, 0, 76, 47
1, 45711, Control_c, 0, 64, 9
1, 45879, Control_c, 0, 64, 0
1, 45943, Note_on_c, 0, 73, 53
1, 46060, Note_off_c, 0, 75, 33
1, 46283, Note_on_c, 0, 47, 43
1, 46639, Note_on_c, 0, 45, 50
1, 47002, Note_on_c, 0, 75, 56
1, 47071, Poly_aftertouch_c, 0, 47, 20
1, 47105, Note_off_c, 0, 73, 37
1, 47335, Note_on_c, 0, 44, 44
1, 47354, Note_on_c, 0, 73, 56
1, 47457, Note_off_c, 0, 45, 30
1, 47596, Note_off_c, 0, 75, 30
1, 47698, Note_on_c, 0, 72, 54
1, 47823, Note_off_c, 0, 73, 38
1, 48057, Note_on_c, 0, 42, 39
1, 48057, Note_on_c, 0, 73, 55
1, 48147, Note_off_c, 0, 44, 36
1, 48203, Note_off_c, 0, 47, 19
1, 48203, Poly_aftertouch_c, 0, 47, 0
1, 48219, Note_off_c, 0, 72, 29
1, 48430, Note_on_c, 0, 76, 52
1, 48485, Note_off_c, 0, 49, 42
1, 48517, Note_off_c, 0, 73, 33
1, 48763, Note_on_c, 0, 49, 55
1, 48768, Note_on_c, 0, 69, 49
1, 48860, Note_off_c, 0, 76, 37
1, 49111, Note_on_c, 0, 68, 52
1, 49198, Note_off_c, 0, 69, 47
1, 49251, Note_off_c, 0, 49, 61
1, 49469, Note_on_c, 0, 54, 58
1, 49479, Note_on_c, 0, 69, 49
1, 49672, Note_off_c, 0, 68, 36
1, 49842, Note_on_c, 0, 72, 51
1, 49900, Note_off_c, 0, 69, 37
1, 50157, Note_on_c, 0, 44, 43
1, 50168, Note_on_c, 0, 66, 50
1, 50216, Note_off_c, 0, 42, 38
1, 50354, Note_off_c, 0, 72, 33
1, 50521, Note_on_c, 0, 64, 57
1, 50625, Note_off_c, 0, 66, 47
1, 50828, Note_on_c, 0, 45, 50
1, 50856, Note_on_c, 0, 66, 52
1, 50942, Note_off_c, 0, 44, 35
1, 51021, Note_off_c, 0, 64, 39
1, 51208, Note_on_c, 0, 72, 60
1, 51280, Note_off_c, 0, 66, 60
1, 51536, Note_on_c, 0, 42, 42
1, 51550, Note_on_c, 0, 73, 64
1, 51669, Note_off_c, 0, 72, 59
1, 51845, Note_off_c, 0, 45, 40
1, 51912, Note_on_c, 0, 75, 69
1, 52045, Note_off_c, 0, 73, 57
1, 52265, Note_on_c, 0, 44, 47
1, 52274, Note_on_c, 0, 76, 59
1, 52323, Note_off_c, 0, 75, 62
1, 52356, Note_off_c, 0, 42, 43
1, 52544, Note_on_c, 0, 75, 63
1, 52585, Note_off_c, 0, 76, 57
1, 52685, Control_c, 0, 64, 8
1, 52705, Control_c, 0, 64, 13
1, 52722, Control_c, 0, 64, 20
1, 52742, Control_c, 0, 64, 31
1, 52760, Control_c, 0, 64, 47
1, 52780, Note_on_c, 0, 73, 64
1, 52780, Control_c, 0, 64, 62
1, 52797, Control_c, 0, 64, 70
1, 52801, Note_off_c, 0, 75, 54
1, 52816, Control_c, 0, 64, 74
1, 52826, Note_off_c, 0, 54, 39
1, 52834, Control_c, 0, 64, 77
1, 52853, Control_c, 0, 64, 80
1, 52872, Control_c, 0, 64, 82
1, 52965, Control_c, 0, 64, 80
1, 53022, Control_c, 0, 64, 77
1, 53037, Note_on_c, 0, 54, 51
1, 53039, Control_c, 0, 64, 75
1, 53045, Note_on_c, 0, 75, 52
1, 53059, Control_c, 0, 64, 73
1, 53078, Control_c, 0, 64, 70
1, 53083, Note_off_c, 0, 73, 39
1, 53096, Control_c, 0, 64, 67
1, 53116, Control_c, 0, 64, 64
1, 53133, Control_c, 0, 64, 61
1, 53153, Control_c, 0, 64, 58
1, 53170, Control_c, 0, 64, 56
1, 53208, Control_c, 0, 64, 51
1, 53228, Control_c, 0, 64, 48
1, 53245, Control_c, 0, 64, 45
1, 53265, Control_c, 0, 64, 41
1, 53280, Note_on_c, 0, 73, 50
1, 53284, Control_c, 0, 64, 37
1, 53321, Control_c, 0, 64, 30
1, 53377, Control_c, 0, 64, 26
1, 53381, Note_off_c, 0, 75, 37
1, 53451, Control_c, 0, 64, 22
1, 53526, Control_c, 0, 64, 17
1, 53547, Note_on_c, 0, 72, 48
1, 53592, Note_off_c, 0, 73, 37
1, 53789, Control_c, 0, 64, 13
1, 53952, Note_on_c, 0, 73, 52
1, 53954, Note_on_c, 0, 49, 34
1, 53958, Note_off_c, 0, 72, 51
1, 54032, Control_c, 0, 64, 9
1, 54039, Note_off_c, 0, 44, 30
1, 54219, Control_c, 0, 64, 15
1, 54257, Control_c, 0, 64, 22
1, 54274, Control_c, 0, 64, 27
1, 54294, Control_c, 0, 64, 31
1, 54311, Control_c, 0, 64, 38
1, 54331, Control_c, 0, 64, 48
1, 54349, Control_c, 0, 64, 57
1, 54368, Control_c, 0, 64, 62
1, 54386, Control_c, 0, 64, 67
1, 54405, Control_c, 0, 64, 70
1, 54424, Control_c, 0, 64, 74
1, 54442, Control_c, 0, 64, 78
1, 54461, Control_c, 0, 64, 82
1, 54480, Control_c, 0, 64, 86
1, 54483, Note_off_c, 0, 73, 30
1, 54518, Control_c, 0, 64, 92
1, 54853, Control_c, 0, 64, 87
1, 54873, Control_c, 0, 64, 84
1, 54890, Control_c, 0, 64, 82
1, 54902, Note_on_c, 0, 68, 41
1, 54908, Note_on_c, 0, 52, 25
1, 54929, Control_c, 0, 64, 78
1, 54948, Control_c, 0, 64, 74
1, 54966, Control_c, 0, 64, 70
1, 54984, Control_c, 0, 64, 67
1, 55003, Control_c, 0, 64, 64
1, 55022, Control_c, 0, 64, 63
1, 55060, Control_c, 0, 64, 61
1, 55078, Control_c, 0, 64, 60
1, 55084, Note_off_c, 0, 54, 33
1, 55115, Control_c, 0, 64, 57
1, 55134, Control_c, 0, 64, 55
1, 55155, Control_c, 0, 64, 53
1, 55172, Control_c, 0, 64, 51
1, 55191, Control_c, 0, 64, 48
1, 55209, Control_c, 0, 64, 44
1, 55229, Control_c, 0, 64, 37
1, 55247, Control_c, 0, 64, 31
1, 55321, Control_c, 0, 64, 35
1, 55340, Control_c, 0, 64, 40
1, 55359, Control_c, 0, 64, 48
1, 55378, Control_c, 0, 64, 56
1, 55396, Control_c, 0, 64, 63
1, 55415, Control_c, 0, 64, 67
1, 55434, Control_c, 0, 64, 69
1, 55453, Control_c, 0, 64, 72
1, 55471, Control_c, 0, 64, 75
1, 55489, Control_c, 0, 64, 79
1, 55509, Control_c, 0, 64, 83
1, 55526, Control_c, 0, 64, 87
1, 55545, Control_c, 0, 64, 91
1, 55583, Control_c, 0, 64, 98
1, 55621, Control_c, 0, 64, 102
1, 55624, Note_on_c, 0, 56, 43
1, 55676, Control_c, 0, 64, 108
1, 55733, Control_c, 0, 64, 113
1, 55827, Control_c, 0, 64, 117
1, 55991, Poly_aftertouch_c, 0, 68, 24
1, 56034, Note_off_c, 0, 68, 40
1, 56034, Poly_aftertouch_c, 0, 68, 0
1, 56315, Note_on_c, 0, 64, 42
1, 56317, Note_on_c, 0, 61, 37
1, 56500, Control_c, 0, 64, 112
1, 56560, Note_off_c, 0, 52, 35
1, 56575, Control_c, 0, 64, 108
1, 56631, Control_c, 0, 64, 103
1, 56668, Control_c, 0, 64, 95
1, 56683, Note_on_c, 0, 66, 53
1, 56687, Control_c, 0, 64, 90
1, 56705, Control_c, 0, 64, 86
1, 56709, Note_on_c, 0, 51, 40
1, 56724, Control_c, 0, 64, 82
1, 56743, Control_c, 0, 64, 78
1, 56761, Control_c, 0, 64, 76
1, 56781, Control_c, 0, 64, 74
1, 56798, Control_c, 0, 64, 72
1, 56821, Note_off_c, 0, 56, 23
1, 56873, Control_c, 0, 64, 70
1, 56883, Note_off_c, 0, 64, 40
1, 56891, Control_c, 0, 64, 68
1, 56911, Control_c, 0, 64, 66
1, 56929, Control_c, 0, 64, 65
1, 56949, Control_c, 0, 64, 63
1, 56967, Control_c, 0, 64, 61
1, 56986, Control_c, 0, 64, 60
1, 57041, Note_on_c, 0, 52, 38
1, 57041, Control_c, 0, 64, 58
1, 57045, Note_on_c, 0, 68, 49
1, 57064, Note_off_c, 0, 49, 39
1, 57079, Control_c, 0, 64, 56
1, 57110, Note_off_c, 0, 51, 33
1, 57116, Note_off_c, 0, 66, 37
1, 57134, Control_c, 0, 64, 53
1, 57211, Control_c, 0, 64, 51
1, 57265, Control_c, 0, 64, 49
1, 57300, Note_on_c, 0, 66, 52
1, 57302, Control_c, 0, 64, 46
1, 57325, Note_off_c, 0, 68, 53
1, 57325, Poly_aftertouch_c, 0, 68, 0
1, 57341, Control_c, 0, 64, 44
1, 57378, Control_c, 0, 64, 42
1, 57434, Control_c, 0, 64, 40
1, 57472, Note_off_c, 0, 66, 55
1, 57528, Control_c, 0, 64, 36
1, 57534, Note_on_c, 0, 64, 50
1, 57640, Control_c, 0, 64, 32
1, 57653, Note_off_c, 0, 61, 44
1, 57653, Poly_aftertouch_c, 0, 61, 0
1, 57718, Note_off_c, 0, 64, 54
1, 57751, Note_on_c, 0, 60, 34
1, 57767, Note_on_c, 0, 56, 38
1, 57771, Control_c, 0, 64, 28
1, 57773, Note_on_c, 0, 66, 46
1, 57858, Note_off_c, 0, 52, 35
1, 57966, Note_off_c, 0, 66, 53
1, 57999, Note_on_c, 0, 64, 40
1, 58164, Control_c, 0, 64, 34
1, 58182, Control_c, 0, 64, 41
1, 58191, Note_off_c, 0, 64, 55
1, 58200, Control_c, 0, 64, 51
1, 58216, Note_on_c, 0, 63, 51
1, 58218, Control_c, 0, 64, 62
1, 58238, Control_c, 0, 64, 71
1, 58259, Control_c, 0, 64, 77
1, 58275, Control_c, 0, 64, 82
1, 58283, Note_off_c, 0, 60, 55
1, 58295, Control_c, 0, 64, 87
1, 58332, Control_c, 0, 64, 91
1, 58407, Control_c, 0, 64, 88
1, 58425, Control_c, 0, 64, 85
1, 58445, Control_c, 0, 64, 82
1, 58458, Note_off_c, 0, 63, 49
1, 58463, Control_c, 0, 64, 78
1, 58481, Control_c, 0, 64, 74
1, 58488, Note_on_c, 0, 61, 59
1, 58499, Control_c, 0, 64, 69
1, 58503, Note_on_c, 0, 64, 42
1, 58518, Note_on_c, 0, 49, 34
1, 58518, Control_c, 0, 64, 65
1, 58538, Control_c, 0, 64, 61
1, 58576, Control_c, 0, 64, 58
1, 58613, Control_c, 0, 64, 55
1, 58617, Note_off_c, 0, 56, 33
1, 58631, Control_c, 0, 64, 53
1, 58651, Control_c, 0, 64, 50
1, 58669, Control_c, 0, 64, 48
1, 58687, Control_c, 0, 64, 44
1, 58706, Control_c, 0, 64, 42
1, 58761, Control_c, 0, 64, 45
1, 58781, Control_c, 0, 64, 48
1, 58800, Control_c, 0, 64, 51
1, 58818, Control_c, 0, 64, 56
1, 58837, Control_c, 0, 64, 61
1, 58848, Note_off_c, 0, 64, 48
1, 58856, Control_c, 0, 64, 67
1, 58857, Note_on_c, 0, 66, 45
1, 58874, Control_c, 0, 64, 73
1, 58893, Control_c, 0, 64, 78
1, 58912, Control_c, 0, 64, 84
1, 58931, Control_c, 0, 64, 90
1, 58948, Control_c, 0, 64, 97
1, 58968, Control_c, 0, 64, 102
1, 58977, Note_off_c, 0, 61, 51
1, 58977, Poly_aftertouch_c, 0, 61, 0
1, 59005, Control_c, 0, 64, 106
1, 59198, Note_off_c, 0, 66, 28
1, 59211, Control_c, 0, 64, 101
1, 59215, Note_on_c, 0, 56, 63
1, 59225, Note_on_c, 0, 64, 45
1, 59267, Control_c, 0, 64, 97
1, 59304, Control_c, 0, 64, 92
1, 59342, Control_c, 0, 64, 85
1, 59360, Control_c, 0, 64, 82
1, 59380, Control_c, 0, 64, 79
1, 59398, Control_c, 0, 64, 77
1, 59417, Control_c, 0, 64, 74
1, 59435, Control_c, 0, 64, 71
1, 59454, Control_c, 0, 64, 69
1, 59474, Control_c, 0, 64, 67
1, 59510, Control_c, 0, 64, 66
1, 59538, Note_on_c, 0, 63, 50
1, 59566, Control_c, 0, 64, 65
1, 59570, Note_off_c, 0, 64, 47
1, 59604, Control_c, 0, 64, 64
1, 59622, Control_c, 0, 64, 63
1, 59660, Control_c, 0, 64, 62
1, 59715, Control_c, 0, 64, 61
1, 59772, Control_c, 0, 64, 60
1, 59846, Control_c, 0, 64, 57
1, 59881, Note_on_c, 0, 64, 49
1, 59903, Control_c, 0, 64, 55
1, 59905, Note_off_c, 0, 63, 51
1, 59977, Control_c, 0, 64, 52
1, 60014, Control_c, 0, 64, 48
1, 60053, Control_c, 0, 64, 46
1, 60110, Control_c, 0, 64, 43
1, 60164, Control_c, 0, 64, 41
1, 60235, Note_on_c, 0, 68, 53
1, 60237, Control_c, 0, 64, 36
1, 60247, Note_on_c, 0, 54, 50
1, 60295, Control_c, 0, 64, 31
1, 60321, Note_off_c, 0, 56, 55
1, 60370, Control_c, 0, 64, 27
1, 60401, Note_off_c, 0, 64, 37
1, 60567, Note_on_c, 0, 73, 60
1, 60575, Control_c, 0, 64, 33
1, 60578, Note_on_c, 0, 52, 50
1, 60613, Control_c, 0, 64, 38
1, 60632, Control_c, 0, 64, 42
1, 60641, Note_off_c, 0, 54, 54
1, 60649, Control_c, 0, 64, 46
1, 60669, Control_c, 0, 64, 52
1, 60689, Control_c, 0, 64, 57
1, 60706, Control_c, 0, 64, 62
1, 60724, Note_off_c, 0, 68, 53
1, 60724, Poly_aftertouch_c, 0, 68, 0
1, 60724, Control_c, 0, 64, 66
1, 60726, Note_off_c, 0, 49, 53
1, 60745, Control_c, 0, 64, 69
1, 60763, Control_c, 0, 64, 72
1, 60781, Control_c, 0, 64, 75
1, 60800, Control_c, 0, 64, 78
1, 60819, Control_c, 0, 64, 81
1, 60837, Control_c, 0, 64, 83
1, 60907, Note_on_c, 0, 47, 52
1, 60907, Note_on_c, 0, 75, 69
1, 60950, Control_c, 0, 64, 81
1, 60987, Control_c, 0, 64, 78
1, 61024, Control_c, 0, 64, 75
1, 61032, Note_off_c, 0, 73, 54
1, 61062, Control_c, 0, 64, 73
1, 61118, Control_c, 0, 64, 71
1, 61173, Control_c, 0, 64, 69
1, 61212, Control_c, 0, 64, 68
1, 61249, Control_c, 0, 64, 67
1, 61252, Note_on_c, 0, 46, 45
1, 61258, Note_off_c, 0, 75, 57
1, 61259, Note_on_c, 0, 76, 60
1, 61287, Control_c, 0, 64, 66
1, 61304, Control_c, 0, 64, 65
1, 61317, Note_off_c, 0, 47, 51
1, 61317, Poly_aftertouch_c, 0, 47, 0
1, 61323, Control_c, 0, 64, 64
1, 61343, Control_c, 0, 64, 62
1, 61361, Control_c, 0, 64, 60
1, 61399, Control_c, 0, 64, 57
1, 61436, Control_c, 0, 64, 55
1, 61492, Control_c, 0, 64, 52
1, 61506, Note_on_c, 0, 79, 66
1, 61529, Control_c, 0, 64, 49
1, 61549, Control_c, 0, 64, 47
1, 61566, Control_c, 0, 64, 43
1, 61575, Note_off_c, 0, 76, 46
1, 61585, Control_c, 0, 64, 39
1, 61604, Control_c, 0, 64, 35
1, 61679, Control_c, 0, 64, 45
1, 61697, Control_c, 0, 64, 56
1, 61716, Control_c, 0, 64, 66
1, 61731, Note_on_c, 0, 78, 69
1, 61735, Control_c, 0, 64, 72
1, 61738, Note_off_c, 0, 52, 51
1, 61755, Control_c, 0, 64, 74
1, 61795, Note_off_c, 0, 79, 52
1, 61866, Control_c, 0, 64, 72
1, 61903, Control_c, 0, 64, 70
1, 61941, Control_c, 0, 64, 67
1, 61946, Note_on_c, 0, 52, 51
1, 61959, Control_c, 0, 64, 66
1, 61962, Note_on_c, 0, 49, 48
1, 61963, Note_on_c, 0, 76, 59
1, 61973, Note_off_c, 0, 78, 64
1, 61977, Control_c, 0, 64, 65
1, 61997, Control_c, 0, 64, 64
1, 62035, Control_c, 0, 64, 63
1, 62052, Control_c, 0, 64, 62
1, 62076, Note_off_c, 0, 46, 34
1, 62091, Control_c, 0, 64, 61
1, 62108, Control_c, 0, 64, 60
1, 62146, Control_c, 0, 64, 58
1, 62168, Note_on_c, 0, 74, 60
1, 62183, Control_c, 0, 64, 55
1, 62219, Note_off_c, 0, 76, 58
1, 62222, Control_c, 0, 64, 52
1, 62240, Control_c, 0, 64, 50
1, 62258, Control_c, 0, 64, 48
1, 62296, Control_c, 0, 64, 45
1, 62314, Control_c, 0, 64, 43
1, 62333, Control_c, 0, 64, 41
1, 62389, Control_c, 0, 64, 36
1, 62400, Note_on_c, 0, 73, 60
1, 62427, Control_c, 0, 64, 32
1, 62455, Note_off_c, 0, 74, 54
1, 62463, Control_c, 0, 64, 28
1, 62595, Control_c, 0, 64, 24
1, 62616, Note_on_c, 0, 42, 40
1, 62628, Note_on_c, 0, 71, 54
1, 62632, Note_off_c, 0, 73, 57
1, 62799, Note_off_c, 0, 49, 39
1, 62846, Note_on_c, 0, 70, 53
1, 62871, Note_off_c, 0, 71, 54
1, 62969, Control_c, 0, 64, 20
1, 63026, Control_c, 0, 64, 15
1, 63070, Note_off_c, 0, 70, 62
1, 63085, Note_on_c, 0, 73, 54
1, 63137, Control_c, 0, 64, 11
1, 63283, Note_off_c, 0, 73, 50
1, 63388, Note_on_c, 0, 49, 41
1, 63388, Note_on_c, 0, 64, 51
1, 63549, Control_c, 0, 64, 15
1, 63586, Control_c, 0, 64, 21
1, 63623, Control_c, 0, 64, 29
1, 63630, Note_off_c, 0, 52, 36
1, 63642, Control_c, 0, 64, 34
1, 63662, Control_c, 0, 64, 42
1, 63680, Control_c, 0, 64, 51
1, 63699, Control_c, 0, 64, 60
1, 63717, Control_c, 0, 64, 65
1, 63736, Control_c, 0, 64, 70
1, 63754, Control_c, 0, 64, 74
1, 63774, Control_c, 0, 64, 78
1, 63792, Control_c, 0, 64, 83
1, 63811, Control_c, 0, 64, 89
1, 63830, Control_c, 0, 64, 94
1, 63847, Control_c, 0, 64, 98
1, 63885, Control_c, 0, 64, 102
1, 63888, Note_off_c, 0, 64, 35
1, 64054, Control_c, 0, 64, 97
1, 64128, Control_c, 0, 64, 93
1, 64152, Note_on_c, 0, 54, 35
1, 64166, Control_c, 0, 64, 86
1, 64184, Control_c, 0, 64, 83
1, 64204, Control_c, 0, 64, 80
1, 64222, Control_c, 0, 64, 78
1, 64241, Control_c, 0, 64, 76
1, 64259, Control_c, 0, 64, 72
1, 64278, Control_c, 0, 64, 69
1, 64292, Note_off_c, 0, 49, 21
1, 64296, Control_c, 0, 64, 66
1, 64306, Note_on_c, 0, 66, 48
1, 64314, Control_c, 0, 64, 63
1, 64334, Control_c, 0, 64, 60
1, 64371, Control_c, 0, 64, 58
1, 64409, Control_c, 0, 64, 55
1, 64439, Note_off_c, 0, 66, 58
1, 64446, Control_c, 0, 64, 51
1, 64461, Note_on_c, 0, 64, 48
1, 64464, Control_c, 0, 64, 49
1, 64484, Control_c, 0, 64, 46
1, 64503, Control_c, 0, 64, 42
1, 64521, Control_c, 0, 64, 38
1, 64539, Control_c, 0, 64, 34
1, 64559, Control_c, 0, 64, 30
1, 64577, Note_off_c, 0, 64, 58
1, 64595, Control_c, 0, 64, 25
1, 64602, Note_on_c, 0, 63, 49
1, 64788, Note_off_c, 0, 63, 56
1, 64800, Note_on_c, 0, 49, 43
1, 64814, Note_on_c, 0, 64, 45
1, 65020, Note_off_c, 0, 64, 57
1, 65177, Note_on_c, 0, 64, 61
1, 65363, Control_c, 0, 64, 31
1, 65400, Control_c, 0, 64, 37
1, 65419, Control_c, 0, 64, 42
1, 65438, Control_c, 0, 64, 48
1, 65455, Control_c, 0, 64, 55
1, 65475, Control_c, 0, 64, 59
1, 65492, Control_c, 0, 64, 62
1, 65498, Note_on_c, 0, 46, 40
1, 65512, Control_c, 0, 64, 63
1, 65531, Control_c, 0, 64, 65
1, 65550, Control_c, 0, 64, 67
1, 65587, Control_c, 0, 64, 71
1, 65607, Control_c, 0, 64, 73
1, 65624, Control_c, 0, 64, 75
1, 65644, Control_c, 0, 64, 77
1, 65661, Control_c, 0, 64, 79
1, 65699, Control_c, 0, 64, 82
1, 65736, Note_off_c, 0, 42, 33
1, 65840, Note_on_c, 0, 70, 52
1, 65868, Poly_aftertouch_c, 0, 49, 24
1, 65906, Control_c, 0, 64, 80
1, 65961, Control_c, 0, 64, 78
1, 65982, Control_c, 0, 64, 76
1, 66017, Control_c, 0, 64, 73
1, 66021, Note_off_c, 0, 64, 22
1, 66055, Control_c, 0, 64, 71
1, 66092, Control_c, 0, 64, 68
1, 66110, Control_c, 0, 64, 67
1, 66128, Poly_aftertouch_c, 0, 49, 20
1, 66128, Control_c, 0, 64, 66
1, 66148, Control_c, 0, 64, 65
1, 66157, Note_off_c, 0, 49, 19
1, 66157, Poly_aftertouch_c, 0, 49, 0
1, 66176, Note_on_c, 0, 42, 38
1, 66185, Control_c, 0, 64, 64
1, 66196, Note_on_c, 0, 71, 53
1, 66203, Control_c, 0, 64, 63
1, 66222, Control_c, 0, 64, 62
1, 66242, Control_c, 0, 64, 61
1, 66279, Control_c, 0, 64, 60
1, 66317, Control_c, 0, 64, 58
1, 66318, Note_off_c, 0, 70, 38
1, 66372, Control_c, 0, 64, 56
1, 66402, Note_off_c, 0, 46, 39
1, 66408, Control_c, 0, 64, 54
1, 66447, Control_c, 0, 64, 50
1, 66466, Control_c, 0, 64, 48
1, 66484, Control_c, 0, 64, 45
1, 66504, Control_c, 0, 64, 42
1, 66533, Note_on_c, 0, 73, 63
1, 66540, Control_c, 0, 64, 37
1, 66573, Note_off_c, 0, 71, 50
1, 66596, Control_c, 0, 64, 33
1, 66670, Control_c, 0, 64, 29
1, 66766, Control_c, 0, 64, 25
1, 66887, Note_on_c, 0, 62, 49
1, 66888, Note_on_c, 0, 47, 44
1, 66919, Note_off_c, 0, 73, 52
1, 66938, Note_off_c, 0, 42, 41
1, 67121, Control_c, 0, 64, 30
1, 67139, Control_c, 0, 64, 35
1, 67157, Control_c, 0, 64, 42
1, 67177, Control_c, 0, 64, 50
1, 67195, Control_c, 0, 64, 58
1, 67214, Control_c, 0, 64, 64
1, 67232, Control_c, 0, 64, 68
1, 67239, Note_on_c, 0, 64, 36
1, 67251, Control_c, 0, 64, 71
1, 67271, Control_c, 0, 64, 74
1, 67288, Control_c, 0, 64, 77
1, 67300, Note_off_c, 0, 62, 38
1, 67307, Control_c, 0, 64, 80
1, 67312, Note_off_c, 0, 54, 56
1, 67327, Control_c, 0, 64, 83
1, 67344, Control_c, 0, 64, 85
1, 67475, Control_c, 0, 64, 82
1, 67494, Control_c, 0, 64, 80
1, 67513, Control_c, 0, 64, 77
1, 67532, Control_c, 0, 64, 74
1, 67550, Control_c, 0, 64, 72
1, 67562, Note_on_c, 0, 54, 52
1, 67569, Note_on_c, 0, 62, 47
1, 67569, Control_c, 0, 64, 70
1, 67606, Control_c, 0, 64, 68
1, 67624, Note_off_c, 0, 64, 34
1, 67624, Control_c, 0, 64, 66
1, 67644, Control_c, 0, 64, 65
1, 67663, Control_c, 0, 64, 63
1, 67681, Control_c, 0, 64, 61
1, 67719, Control_c, 0, 64, 57
1, 67737, Control_c, 0, 64, 54
1, 67756, Control_c, 0, 64, 51
1, 67775, Control_c, 0, 64, 48
1, 67794, Control_c, 0, 64, 43
1, 67812, Control_c, 0, 64, 40
1, 67851, Control_c, 0, 64, 45
1, 67868, Control_c, 0, 64, 54
1, 67887, Control_c, 0, 64, 65
1, 67904, Control_c, 0, 64, 73
1, 67911, Note_on_c, 0, 61, 52
1, 67915, Note_off_c, 0, 62, 53
1, 67924, Control_c, 0, 64, 78
1, 67943, Control_c, 0, 64, 81
1, 68073, Control_c, 0, 64, 78
1, 68112, Control_c, 0, 64, 74
1, 68131, Control_c, 0, 64, 72
1, 68148, Control_c, 0, 64, 70
1, 68186, Control_c, 0, 64, 68
1, 68223, Control_c, 0, 64, 66
1, 68243, Control_c, 0, 64, 65
1, 68249, Note_off_c, 0, 61, 53
1, 68249, Poly_aftertouch_c, 0, 61, 0
1, 68256, Note_on_c, 0, 59, 59
1, 68261, Control_c, 0, 64, 63
1, 68264, Note_off_c, 0, 54, 19
1, 68272, Note_on_c, 0, 62, 46
1, 68279, Control_c, 0, 64, 61
1, 68298, Control_c, 0, 64, 60
1, 68316, Control_c, 0, 64, 58
1, 68336, Control_c, 0, 64, 56
1, 68373, Control_c, 0, 64, 52
1, 68391, Control_c, 0, 64, 50
1, 68410, Control_c, 0, 64, 48
1, 68428, Control_c, 0, 64, 46
1, 68448, Control_c, 0, 64, 44
1, 68467, Control_c, 0, 64, 41
1, 68503, Control_c, 0, 64, 36
1, 68541, Control_c, 0, 64, 32
1, 68597, Control_c, 0, 64, 27
1, 68607, Note_on_c, 0, 66, 56
1, 68609, Note_on_c, 0, 54, 59
1, 68672, Control_c, 0, 64, 23
1, 68689, Note_off_c, 0, 62, 33
1, 68746, Control_c, 0, 64, 17
1, 68833, Note_off_c, 0, 59, 46
1, 68927, Note_off_c, 0, 47, 40
1, 68927, Poly_aftertouch_c, 0, 47, 0
1, 68935, Control_c, 0, 64, 24
1, 68940, Note_on_c, 0, 71, 58
1, 68953, Note_on_c, 0, 50, 45
1, 68953, Control_c, 0, 64, 29
1, 68972, Control_c, 0, 64, 37
1, 68990, Control_c, 0, 64, 49
1, 69009, Control_c, 0, 64, 62
1, 69027, Control_c, 0, 64, 70
1, 69046, Control_c, 0, 64, 75
1, 69053, Note_off_c, 0, 66, 57
1, 69066, Control_c, 0, 64, 79
1, 69083, Control_c, 0, 64, 83
1, 69099, Note_off_c, 0, 54, 57
1, 69102, Control_c, 0, 64, 85
1, 69195, Control_c, 0, 64, 82
1, 69215, Control_c, 0, 64, 79
1, 69233, Control_c, 0, 64, 76
1, 69251, Control_c, 0, 64, 72
1, 69262, Note_on_c, 0, 54, 59
1, 69262, Note_on_c, 0, 73, 60
1, 69269, Control_c, 0, 64, 69
1, 69289, Control_c, 0, 64, 67
1, 69308, Control_c, 0, 64, 65
1, 69327, Control_c, 0, 64, 62
1, 69345, Control_c, 0, 64, 59
1, 69354, Note_off_c, 0, 71, 44
1, 69364, Control_c, 0, 64, 55
1, 69383, Control_c, 0, 64, 49
1, 69403, Control_c, 0, 64, 44
1, 69420, Control_c, 0, 64, 38
1, 69459, Control_c, 0, 64, 40
1, 69476, Control_c, 0, 64, 48
1, 69495, Control_c, 0, 64, 58
1, 69515, Control_c, 0, 64, 67
1, 69533, Control_c, 0, 64, 73
1, 69551, Control_c, 0, 64, 75
1, 69563, Note_off_c, 0, 73, 62
1, 69590, Note_off_c, 0, 50, 55
1, 69590, Note_on_c, 0, 74, 58
1, 69603, Note_on_c, 0, 47, 47
1, 69644, Control_c, 0, 64, 72
1, 69682, Control_c, 0, 64, 69
1, 69701, Control_c, 0, 64, 67
1, 69720, Control_c, 0, 64, 65
1, 69739, Control_c, 0, 64, 63
1, 69756, Control_c, 0, 64, 61
1, 69794, Control_c, 0, 64, 57
1, 69813, Control_c, 0, 64, 55
1, 69824, Note_on_c, 0, 78, 64
1, 69880, Note_off_c, 0, 74, 45
1, 69886, Control_c, 0, 64, 58
1, 69906, Control_c, 0, 64, 62
1, 69924, Control_c, 0, 64, 66
1, 69936, Note_on_c, 0, 50, 58
1, 69944, Control_c, 0, 64, 69
1, 69995, Note_off_c, 0, 54, 61
1, 70018, Control_c, 0, 64, 68
1, 70050, Note_on_c, 0, 76, 67
1, 70056, Control_c, 0, 64, 67
1, 70092, Control_c, 0, 64, 66
1, 70112, Control_c, 0, 64, 65
1, 70130, Note_off_c, 0, 78, 52
1, 70130, Control_c, 0, 64, 63
1, 70150, Control_c, 0, 64, 62
1, 70167, Control_c, 0, 64, 60
1, 70224, Control_c, 0, 64, 58
1, 70259, Note_off_c, 0, 76, 61
1, 70263, Note_off_c, 0, 47, 53
1, 70263, Poly_aftertouch_c, 0, 47, 0
1, 70272, Note_on_c, 0, 74, 60
1, 70274, Note_on_c, 0, 44, 53
1, 70279, Control_c, 0, 64, 56
1, 70373, Control_c, 0, 64, 53
1, 70430, Control_c, 0, 64, 51
1, 70468, Control_c, 0, 64, 48
1, 70479, Note_on_c, 0, 73, 63
1, 70504, Control_c, 0, 64, 44
1, 70523, Control_c, 0, 64, 41
1, 70526, Note_off_c, 0, 74, 62
1, 70560, Control_c, 0, 64, 37
1, 70596, Note_on_c, 0, 47, 51
1, 70632, Note_off_c, 0, 44, 52
1, 70655, Control_c, 0, 64, 32
1, 70711, Note_on_c, 0, 71, 59
1, 70711, Control_c, 0, 64, 28
1, 70760, Note_off_c, 0, 73, 56
1, 70879, Control_c, 0, 64, 24
1, 70922, Note_off_c, 0, 71, 61
1, 70927, Note_on_c, 0, 40, 40
1, 70940, Note_on_c, 0, 69, 55
1, 71078, Note_off_c, 0, 47, 29
1, 71078, Poly_aftertouch_c, 0, 47, 0
1, 71163, Note_on_c, 0, 68, 55
1, 71166, Note_off_c, 0, 69, 61
1, 71390, Note_off_c, 0, 68, 57
1, 71390, Poly_aftertouch_c, 0, 68, 0
1, 71398, Note_on_c, 0, 71, 52
1, 71612, Note_off_c, 0, 71, 34
1, 71651, Note_on_c, 0, 62, 49
1, 71653, Note_on_c, 0, 47, 49
1, 71665, Note_off_c, 0, 50, 38
1, 72160, Note_off_c, 0, 47, 55
1, 72160, Poly_aftertouch_c, 0, 47, 0
1, 72400, Note_on_c, 0, 52, 42
1, 72563, Note_off_c, 0, 62, 51
1, 72583, Note_on_c, 0, 64, 48
1, 72737, Note_on_c, 0, 62, 56
1, 72742, Note_off_c, 0, 64, 54
1, 72889, Note_on_c, 0, 61, 55
1, 72895, Note_off_c, 0, 62, 50
1, 73045, Note_off_c, 0, 61, 58
1, 73045, Poly_aftertouch_c, 0, 61, 0
1, 73059, Note_on_c, 0, 47, 35
1, 73060, Note_on_c, 0, 62, 53
1, 73275, Note_off_c, 0, 62, 38
1, 73411, Note_on_c, 0, 62, 56
1, 73728, Note_on_c, 0, 44, 41
1, 73860, Note_off_c, 0, 40, 22
1, 74079, Note_on_c, 0, 68, 50
1, 74207, Note_off_c, 0, 62, 35
1, 74321, Poly_aftertouch_c, 0, 47, 24
1, 74405, Note_on_c, 0, 40, 34
1, 74406, Note_on_c, 0, 69, 49
1, 74493, Note_off_c, 0, 68, 49
1, 74493, Poly_aftertouch_c, 0, 68, 0
1, 74580, Poly_aftertouch_c, 0, 47, 20
1, 74586, Note_off_c, 0, 44, 42
1, 74587, Note_off_c, 0, 47, 19
1, 74587, Poly_aftertouch_c, 0, 47, 0
1, 74758, Note_off_c, 0, 69, 56
1, 74762, Note_on_c, 0, 71, 50
1, 75095, Note_on_c, 0, 61, 42
1, 75104, Note_off_c, 0, 71, 33
1, 75104, Note_on_c, 0, 45, 41
1, 75227, Note_off_c, 0, 40, 38
1, 75445, Note_on_c, 0, 62, 42
1, 75470, Note_off_c, 0, 61, 49
1, 75470, Poly_aftertouch_c, 0, 61, 0
1, 75477, Control_c, 0, 64, 31
1, 75497, Control_c, 0, 64, 39
1, 75516, Control_c, 0, 64, 50
1, 75534, Control_c, 0, 64, 61
1, 75539, Note_off_c, 0, 52, 60
1, 75553, Control_c, 0, 64, 66
1, 75572, Control_c, 0, 64, 69
1, 75590, Control_c, 0, 64, 71
1, 75608, Control_c, 0, 64, 73
1, 75646, Control_c, 0, 64, 75
1, 75790, Note_on_c, 0, 61, 44
1, 75799, Note_on_c, 0, 52, 50
1, 75817, Control_c, 0, 64, 73
1, 75823, Note_off_c, 0, 62, 35
1, 75853, Control_c, 0, 64, 71
1, 75908, Control_c, 0, 64, 69
1, 75927, Control_c, 0, 64, 68
1, 75946, Control_c, 0, 64, 67
1, 75965, Control_c, 0, 64, 65
1, 76002, Control_c, 0, 64, 64
1, 76021, Control_c, 0, 64, 63
1, 76039, Control_c, 0, 64, 62
1, 76058, Control_c, 0, 64, 61
1, 76076, Control_c, 0, 64, 60
1, 76131, Note_on_c, 0, 59, 50
1, 76132, Control_c, 0, 64, 58
1, 76189, Control_c, 0, 64, 55
1, 76213, Note_off_c, 0, 61, 36
1, 76213, Poly_aftertouch_c, 0, 61, 0
1, 76264, Control_c, 0, 64, 53
1, 76320, Control_c, 0, 64, 50
1, 76357, Control_c, 0, 64, 48
1, 76413, Control_c, 0, 64, 46
1, 76463, Note_on_c, 0, 61, 51
1, 76468, Control_c, 0, 64, 44
1, 76472, Note_on_c, 0, 57, 46
1, 76507, Note_off_c, 0, 59, 53
1, 76619, Control_c, 0, 64, 42
1, 76693, Note_off_c, 0, 52, 38
1, 76813, Note_on_c, 0, 64, 56
1, 76820, Note_off_c, 0, 61, 56
1, 76820, Poly_aftertouch_c, 0, 61, 0
1, 76838, Poly_aftertouch_c, 0, 45, 24
1, 76876, Note_off_c, 0, 45, 42
1, 76876, Poly_aftertouch_c, 0, 45, 0
1, 77132, Note_on_c, 0, 56, 49
1, 77142, Note_on_c, 0, 69, 54
1, 77142, Control_c, 0, 64, 40
1, 77322, Note_off_c, 0, 64, 36
1, 77339, Note_off_c, 0, 57, 54
1, 77339, Poly_aftertouch_c, 0, 57, 0
1, 77404, Control_c, 0, 64, 36
1, 77474, Note_on_c, 0, 71, 66
1, 77573, Control_c, 0, 64, 32
1, 77652, Note_off_c, 0, 69, 37
1, 77826, Note_on_c, 0, 73, 61
1, 77845, Note_on_c, 0, 57, 42
1, 77898, Note_off_c, 0, 56, 57
1, 77977, Note_off_c, 0, 71, 38
1, 78160, Note_on_c, 0, 52, 45
1, 78302, Control_c, 0, 64, 38
1, 78321, Control_c, 0, 64, 42
1, 78340, Control_c, 0, 64, 47
1, 78357, Control_c, 0, 64, 53
1, 78377, Control_c, 0, 64, 60
1, 78396, Control_c, 0, 64, 66
1, 78414, Control_c, 0, 64, 69
1, 78432, Control_c, 0, 64, 72
1, 78453, Control_c, 0, 64, 75
1, 78470, Control_c, 0, 64, 78
1, 78488, Control_c, 0, 64, 81
1, 78489, Note_on_c, 0, 49, 56
1, 78508, Control_c, 0, 64, 85
1, 78545, Control_c, 0, 64, 91
1, 78583, Control_c, 0, 64, 95
1, 78837, Note_on_c, 0, 45, 65
1, 78906, Poly_aftertouch_c, 0, 52, 24
1, 78920, Control_c, 0, 64, 89
1, 78927, Note_off_c, 0, 49, 57
1, 78927, Poly_aftertouch_c, 0, 49, 0
1, 78939, Control_c, 0, 64, 85
1, 78956, Control_c, 0, 64, 82
1, 78975, Control_c, 0, 64, 78
1, 78994, Control_c, 0, 64, 74
1, 79012, Control_c, 0, 64, 71
1, 79031, Control_c, 0, 64, 68
1, 79037, Note_off_c, 0, 52, 23
1, 79037, Poly_aftertouch_c, 0, 52, 0
1, 79049, Control_c, 0, 64, 66
1, 79086, Control_c, 0, 64, 65
1, 79124, Control_c, 0, 64, 63
1, 79144, Control_c, 0, 64, 62
1, 79161, Control_c, 0, 64, 60
1, 79188, Note_on_c, 0, 50, 61
1, 79200, Control_c, 0, 64, 58
1, 79203, Note_off_c, 0, 45, 58
1, 79203, Poly_aftertouch_c, 0, 45, 0
1, 79217, Control_c, 0, 64, 56
1, 79256, Control_c, 0, 64, 53
1, 79293, Control_c, 0, 64, 50
1, 79331, Control_c, 0, 64, 46
1, 79349, Control_c, 0, 64, 43
1, 79386, Control_c, 0, 64, 37
1, 79498, Control_c, 0, 64, 41
1, 79512, Note_on_c, 0, 67, 61
1, 79517, Control_c, 0, 64, 46
1, 79536, Control_c, 0, 64, 51
1, 79555, Control_c, 0, 64, 57
1, 79556, Note_off_c, 0, 57, 60
1, 79556, Poly_aftertouch_c, 0, 57, 0
1, 79573, Control_c, 0, 64, 63
1, 79593, Control_c, 0, 64, 68
1, 79608, Note_off_c, 0, 73, 38
1, 79611, Control_c, 0, 64, 73
1, 79629, Control_c, 0, 64, 76
1, 79648, Control_c, 0, 64, 78
1, 79668, Control_c, 0, 64, 81
1, 79704, Control_c, 0, 64, 83
1, 79834, Control_c, 0, 64, 81
1, 79848, Note_on_c, 0, 57, 61
1, 79855, Note_on_c, 0, 66, 58
1, 79873, Control_c, 0, 64, 78
1, 79910, Control_c, 0, 64, 75
1, 79929, Control_c, 0, 64, 73
1, 79966, Control_c, 0, 64, 70
1, 79984, Note_off_c, 0, 67, 57
1, 80004, Control_c, 0, 64, 67
1, 80023, Control_c, 0, 64, 65
1, 80041, Control_c, 0, 64, 63
1, 80060, Control_c, 0, 64, 61
1, 80078, Control_c, 0, 64, 60
1, 80115, Control_c, 0, 64, 56
1, 80153, Control_c, 0, 64, 54
1, 80187, Note_on_c, 0, 64, 66
1, 80190, Control_c, 0, 64, 58
1, 80210, Control_c, 0, 64, 61
1, 80227, Control_c, 0, 64, 65
1, 80247, Control_c, 0, 64, 67
1, 80254, Note_off_c, 0, 66, 56
1, 80341, Control_c, 0, 64, 65
1, 80358, Control_c, 0, 64, 64
1, 80397, Control_c, 0, 64, 63
1, 80416, Control_c, 0, 64, 62
1, 80433, Control_c, 0, 64, 60
1, 80471, Control_c, 0, 64, 57
1, 80506, Control_c, 0, 64, 55
1, 80511, Note_on_c, 0, 66, 61
1, 80519, Note_on_c, 0, 62, 62
1, 80525, Control_c, 0, 64, 52
1, 80547, Note_off_c, 0, 64, 58
1, 80547, Control_c, 0, 64, 48
1, 80564, Control_c, 0, 64, 46
1, 80639, Control_c, 0, 64, 50
1, 80657, Control_c, 0, 64, 56
1, 80677, Control_c, 0, 64, 63
1, 80695, Control_c, 0, 64, 70
1, 80697, Note_off_c, 0, 57, 54
1, 80697, Poly_aftertouch_c, 0, 57, 0
1, 80714, Control_c, 0, 64, 78
1, 80733, Control_c, 0, 64, 86
1, 80751, Control_c, 0, 64, 94
1, 80770, Control_c, 0, 64, 101
1, 80788, Control_c, 0, 64, 105
1, 80826, Control_c, 0, 64, 110
1, 80870, Note_on_c, 0, 69, 71
1, 80871, Note_off_c, 0, 66, 60
1, 81146, Control_c, 0, 64, 104
1, 81181, Control_c, 0, 64, 96
1, 81199, Control_c, 0, 64, 90
1, 81201, Note_on_c, 0, 57, 67
1, 81206, Note_on_c, 0, 74, 67
1, 81219, Note_on_c, 0, 54, 54
1, 81219, Control_c, 0, 64, 84
1, 81239, Control_c, 0, 64, 78
1, 81256, Control_c, 0, 64, 72
1, 81275, Control_c, 0, 64, 66
1, 81276, Note_off_c, 0, 50, 42
1, 81294, Control_c, 0, 64, 63
1, 81312, Control_c, 0, 64, 61
1, 81331, Control_c, 0, 64, 59
1, 81338, Note_off_c, 0, 69, 51
1, 81349, Control_c, 0, 64, 56
1, 81368, Control_c, 0, 64, 53
1, 81386, Control_c, 0, 64, 51
1, 81426, Note_off_c, 0, 62, 48
1, 81443, Control_c, 0, 64, 55
1, 81461, Control_c, 0, 64, 59
1, 81481, Control_c, 0, 64, 65
1, 81500, Control_c, 0, 64, 71
1, 81518, Control_c, 0, 64, 77
1, 81537, Control_c, 0, 64, 84
1, 81542, Note_on_c, 0, 76, 75
1, 81556, Control_c, 0, 64, 90
1, 81573, Control_c, 0, 64, 94
1, 81612, Control_c, 0, 64, 98
1, 81713, Note_off_c, 0, 74, 39
1, 81723, Control_c, 0, 64, 94
1, 81761, Control_c, 0, 64, 90
1, 81780, Control_c, 0, 64, 87
1, 81798, Control_c, 0, 64, 81
1, 81818, Control_c, 0, 64, 74
1, 81836, Control_c, 0, 64, 66
1, 81854, Control_c, 0, 64, 58
1, 81875, Control_c, 0, 64, 52
1, 81882, Note_on_c, 0, 51, 55
1, 81894, Control_c, 0, 64, 48
1, 81896, Note_on_c, 0, 78, 75
1, 81911, Control_c, 0, 64, 45
1, 81923, Note_off_c, 0, 54, 49
1, 81948, Control_c, 0, 64, 48
1, 81961, Note_off_c, 0, 76, 53
1, 81966, Control_c, 0, 64, 54
1, 81986, Control_c, 0, 64, 60
1, 82004, Control_c, 0, 64, 66
1, 82022, Control_c, 0, 64, 72
1, 82041, Control_c, 0, 64, 78
1, 82060, Control_c, 0, 64, 85
1, 82073, Note_off_c, 0, 57, 58
1, 82073, Poly_aftertouch_c, 0, 57, 0
1, 82078, Control_c, 0, 64, 93
1, 82098, Control_c, 0, 64, 100
1, 82115, Control_c, 0, 64, 107
1, 82135, Control_c, 0, 64, 112
1, 82172, Control_c, 0, 64, 118
1, 82210, Control_c, 0, 64, 123
1, 82239, Note_on_c, 0, 57, 69
1, 82247, Control_c, 0, 64, 127
1, 82333, Note_off_c, 0, 51, 57
1, 82509, Control_c, 0, 64, 120
1, 82546, Control_c, 0, 64, 115
1, 82575, Note_on_c, 0, 47, 61
1, 82582, Control_c, 0, 64, 106
1, 82603, Control_c, 0, 64, 97
1, 82622, Control_c, 0, 64, 84
1, 82640, Control_c, 0, 64, 70
1, 82659, Control_c, 0, 64, 58
1, 82696, Control_c, 0, 64, 64
1, 82714, Control_c, 0, 64, 72
1, 82735, Control_c, 0, 64, 83
1, 82752, Control_c, 0, 64, 101
1, 82771, Control_c, 0, 64, 124
1, 82895, Note_on_c, 0, 51, 74
1, 82929, Note_off_c, 0, 47, 58
1, 82929, Poly_aftertouch_c, 0, 47, 0
1, 83200, Control_c, 0, 64, 117
1, 83220, Control_c, 0, 64, 110
1, 83238, Control_c, 0, 64, 101
1, 83257, Control_c, 0, 64, 90
1, 83258, Note_on_c, 0, 56, 69
1, 83263, Note_off_c, 0, 51, 48
1, 83267, Note_on_c, 0, 52, 58
1, 83276, Control_c, 0, 64, 78
1, 83285, Note_off_c, 0, 57, 47
1, 83285, Poly_aftertouch_c, 0, 57, 0
1, 83295, Control_c, 0, 64, 68
1, 83313, Control_c, 0, 64, 59
1, 83331, Control_c, 0, 64, 55
1, 83351, Control_c, 0, 64, 51
1, 83369, Control_c, 0, 64, 46
1, 83388, Control_c, 0, 64, 39
1, 83406, Control_c, 0, 64, 32
1, 83426, Control_c, 0, 64, 26
1, 83481, Control_c, 0, 64, 30
1, 83501, Control_c, 0, 64, 36
1, 83518, Control_c, 0, 64, 42
1, 83538, Control_c, 0, 64, 51
1, 83556, Control_c, 0, 64, 61
1, 83576, Control_c, 0, 64, 69
1, 83592, Control_c, 0, 64, 74
1, 83595, Note_on_c, 0, 69, 67
1, 83612, Control_c, 0, 64, 80
1, 83632, Note_off_c, 0, 78, 55
1, 83632, Control_c, 0, 64, 87
1, 83649, Control_c, 0, 64, 94
1, 83668, Control_c, 0, 64, 100
1, 83687, Control_c, 0, 64, 104
1, 83725, Control_c, 0, 64, 109
1, 83874, Control_c, 0, 64, 103
1, 83912, Control_c, 0, 64, 97
1, 83928, Note_on_c, 0, 68, 61
1, 83928, Control_c, 0, 64, 93
1, 83935, Note_on_c, 0, 59, 64
1, 83948, Control_c, 0, 64, 89
1, 83968, Control_c, 0, 64, 85
1, 83974, Note_off_c, 0, 69, 55
1, 83986, Control_c, 0, 64, 81
1, 84004, Control_c, 0, 64, 77
1, 84018, Note_off_c, 0, 56, 58
1, 84023, Control_c, 0, 64, 73
1, 84043, Control_c, 0, 64, 68
1, 84060, Control_c, 0, 64, 64
1, 84080, Control_c, 0, 64, 60
1, 84098, Control_c, 0, 64, 56
1, 84117, Control_c, 0, 64, 52
1, 84135, Control_c, 0, 64, 46
1, 84155, Control_c, 0, 64, 39
1, 84173, Control_c, 0, 64, 35
1, 84230, Control_c, 0, 64, 39
1, 84248, Control_c, 0, 64, 47
1, 84266, Note_on_c, 0, 66, 67
1, 84266, Control_c, 0, 64, 57
1, 84285, Control_c, 0, 64, 68
1, 84304, Control_c, 0, 64, 75
1, 84322, Control_c, 0, 64, 81
1, 84329, Note_off_c, 0, 68, 56
1, 84329, Poly_aftertouch_c, 0, 68, 0
1, 84341, Control_c, 0, 64, 88
1, 84361, Control_c, 0, 64, 94
1, 84397, Control_c, 0, 64, 98
1, 84453, Control_c, 0, 64, 93
1, 84491, Control_c, 0, 64, 85
1, 84510, Control_c, 0, 64, 80
1, 84529, Control_c, 0, 64, 75
1, 84547, Control_c, 0, 64, 68
1, 84566, Control_c, 0, 64, 61
1, 84585, Control_c, 0, 64, 55
1, 84600, Note_on_c, 0, 64, 66
1, 84603, Control_c, 0, 64, 48
1, 84614, Note_on_c, 0, 68, 61
1, 84622, Control_c, 0, 64, 40
1, 84641, Control_c, 0, 64, 33
1, 84656, Note_off_c, 0, 66, 61
1, 84734, Control_c, 0, 64, 37
1, 84752, Control_c, 0, 64, 42
1, 84772, Control_c, 0, 64, 50
1, 84782, Note_off_c, 0, 59, 53
1, 84790, Control_c, 0, 64, 60
1, 84809, Control_c, 0, 64, 67
1, 84829, Control_c, 0, 64, 71
1, 84846, Control_c, 0, 64, 75
1, 84865, Control_c, 0, 64, 79
1, 84883, Control_c, 0, 64, 86
1, 84903, Control_c, 0, 64, 94
1, 84917, Note_off_c, 0, 68, 61
1, 84917, Poly_aftertouch_c, 0, 68, 0
1, 84921, Control_c, 0, 64, 101
1, 84935, Note_on_c, 0, 71, 72
1, 84939, Control_c, 0, 64, 107
1, 84959, Control_c, 0, 64, 113
1, 84977, Control_c, 0, 64, 118
1, 84996, Control_c, 0, 64, 123
1, 85014, Control_c, 0, 64, 127
1, 85253, Note_on_c, 0, 59, 60
1, 85257, Note_on_c, 0, 76, 77
1, 85364, Note_off_c, 0, 71, 51
1, 85591, Note_on_c, 0, 80, 79
1, 85651, Control_c, 0, 64, 122
1, 85657, Note_off_c, 0, 64, 33
1, 85688, Control_c, 0, 64, 116
1, 85726, Control_c, 0, 64, 109
1, 85744, Control_c, 0, 64, 105
1, 85754, Note_off_c, 0, 76, 58
1, 85763, Control_c, 0, 64, 101
1, 85781, Control_c, 0, 64, 96
1, 85800, Control_c, 0, 64, 91
1, 85818, Control_c, 0, 64, 85
1, 85838, Control_c, 0, 64, 78
1, 85857, Control_c, 0, 64, 72
1, 85874, Control_c, 0, 64, 67
1, 85894, Control_c, 0, 64, 64
1, 85911, Control_c, 0, 64, 61
1, 85919, Note_on_c, 0, 56, 58
1, 85922, Note_on_c, 0, 83, 78
1, 85929, Control_c, 0, 64, 58
1, 85950, Control_c, 0, 64, 55
1, 85968, Control_c, 0, 64, 51
1, 85980, Note_off_c, 0, 80, 60
1, 85987, Control_c, 0, 64, 49
1, 86043, Control_c, 0, 64, 53
1, 86062, Control_c, 0, 64, 57
1, 86080, Control_c, 0, 64, 62
1, 86099, Control_c, 0, 64, 67
1, 86119, Control_c, 0, 64, 72
1, 86136, Control_c, 0, 64, 79
1, 86156, Control_c, 0, 64, 87
1, 86175, Control_c, 0, 64, 96
1, 86189, Note_off_c, 0, 59, 53
1, 86193, Control_c, 0, 64, 106
1, 86211, Control_c, 0, 64, 115
1, 86229, Note_off_c, 0, 52, 38
1, 86229, Poly_aftertouch_c, 0, 52, 0
1, 86230, Control_c, 0, 64, 122
1, 86248, Control_c, 0, 64, 127
1, 86254, Note_on_c, 0, 74, 66
1, 86342, Note_off_c, 0, 83, 56
1, 86605, Note_on_c, 0, 52, 59
1, 86609, Note_on_c, 0, 73, 72
1, 86713, Note_off_c, 0, 56, 49
1, 86753, Note_off_c, 0, 74, 57
1, 86847, Note_off_c, 0, 52, 62
1, 86847, Poly_aftertouch_c, 0, 52, 0
1, 86944, Note_on_c, 0, 71, 73
1, 86998, Note_off_c, 0, 73, 55
1, 87220, Control_c, 0, 64, 118
1, 87240, Control_c, 0, 64, 111
1, 87259, Control_c, 0, 64, 102
1, 87278, Note_on_c, 0, 57, 64
1, 87278, Control_c, 0, 64, 92
1, 87294, Note_on_c, 0, 73, 55
1, 87294, Control_c, 0, 64, 80
1, 87298, Note_on_c, 0, 45, 50
1, 87315, Control_c, 0, 64, 69
1, 87334, Control_c, 0, 64, 61
1, 87351, Control_c, 0, 64, 57
1, 87381, Note_off_c, 0, 71, 51
1, 87388, Control_c, 0, 64, 55
1, 87426, Control_c, 0, 64, 52
1, 87446, Control_c, 0, 64, 49
1, 87464, Control_c, 0, 64, 46
1, 87483, Control_c, 0, 64, 43
1, 87539, Control_c, 0, 64, 46
1, 87557, Control_c, 0, 64, 50
1, 87576, Control_c, 0, 64, 56
1, 87596, Control_c, 0, 64, 63
1, 87613, Control_c, 0, 64, 70
1, 87620, Note_on_c, 0, 78, 72
1, 87632, Control_c, 0, 64, 77
1, 87651, Control_c, 0, 64, 86
1, 87670, Control_c, 0, 64, 98
1, 87689, Control_c, 0, 64, 110
1, 87707, Control_c, 0, 64, 121
1, 87726, Control_c, 0, 64, 127
1, 87744, Note_off_c, 0, 73, 55
1, 87752, Note_off_c, 0, 57, 59
1, 87752, Poly_aftertouch_c, 0, 57, 0
1, 87819, Note_off_c, 0, 45, 47
1, 87819, Poly_aftertouch_c, 0, 45, 0
1, 87951, Note_on_c, 0, 56, 72
1, 87969, Control_c, 0, 64, 120
1, 87980, Note_on_c, 0, 47, 58
1, 87988, Control_c, 0, 64, 112
1, 87993, Note_on_c, 0, 76, 65
1, 88007, Control_c, 0, 64, 103
1, 88024, Control_c, 0, 64, 92
1, 88044, Control_c, 0, 64, 82
1, 88062, Control_c, 0, 64, 72
1, 88081, Control_c, 0, 64, 64
1, 88100, Control_c, 0, 64, 60
1, 88119, Control_c, 0, 64, 58
1, 88155, Note_off_c, 0, 78, 37
1, 88155, Control_c, 0, 64, 54
1, 88175, Control_c, 0, 64, 49
1, 88193, Control_c, 0, 64, 45
1, 88212, Control_c, 0, 64, 40
1, 88269, Control_c, 0, 64, 47
1, 88287, Control_c, 0, 64, 59
1, 88294, Note_on_c, 0, 75, 76
1, 88307, Control_c, 0, 64, 70
1, 88324, Control_c, 0, 64, 78
1, 88332, Note_off_c, 0, 76, 62
1, 88344, Control_c, 0, 64, 84
1, 88361, Control_c, 0, 64, 90
1, 88399, Control_c, 0, 64, 94
1, 88511, Control_c, 0, 64, 90
1, 88530, Control_c, 0, 64, 87
1, 88548, Control_c, 0, 64, 83
1, 88567, Control_c, 0, 64, 77
1, 88586, Control_c, 0, 64, 68
1, 88605, Control_c, 0, 64, 60
1, 88624, Control_c, 0, 64, 55
1, 88640, Note_on_c, 0, 76, 68
1, 88641, Control_c, 0, 64, 50
1, 88657, Note_on_c, 0, 49, 55
1, 88660, Control_c, 0, 64, 45
1, 88674, Note_off_c, 0, 75, 55
1, 88676, Note_off_c, 0, 47, 55
1, 88676, Poly_aftertouch_c, 0, 47, 0
1, 88680, Control_c, 0, 64, 38
1, 88698, Control_c, 0, 64, 31
1, 88754, Control_c, 0, 64, 46
1, 88773, Control_c, 0, 64, 61
1, 88792, Control_c, 0, 64, 74
1, 88811, Control_c, 0, 64, 82
1, 88830, Control_c, 0, 64, 89
1, 88848, Control_c, 0, 64, 94
1, 88930, Note_off_c, 0, 56, 59
1, 88942, Control_c, 0, 64, 90
1, 88980, Note_on_c, 0, 73, 65
1, 88981, Note_on_c, 0, 57, 70
1, 88998, Control_c, 0, 64, 87
1, 89016, Control_c, 0, 64, 85
1, 89035, Control_c, 0, 64, 83
1, 89053, Control_c, 0, 64, 81
1, 89074, Control_c, 0, 64, 79
1, 89090, Control_c, 0, 64, 76
1, 89097, Note_off_c, 0, 76, 53
1, 89109, Control_c, 0, 64, 74
1, 89130, Control_c, 0, 64, 72
1, 89165, Control_c, 0, 64, 70
1, 89203, Control_c, 0, 64, 67
1, 89221, Control_c, 0, 64, 65
1, 89240, Control_c, 0, 64, 62
1, 89259, Control_c, 0, 64, 59
1, 89277, Control_c, 0, 64, 56
1, 89296, Control_c, 0, 64, 52
1, 89305, Note_on_c, 0, 50, 57
1, 89307, Note_on_c, 0, 71, 66
1, 89315, Control_c, 0, 64, 48
1, 89323, Note_off_c, 0, 49, 60
1, 89323, Poly_aftertouch_c, 0, 49, 0
1, 89334, Control_c, 0, 64, 43
1, 89372, Control_c, 0, 64, 40
1, 89374, Note_off_c, 0, 73, 56
1, 89390, Control_c, 0, 64, 48
1, 89409, Control_c, 0, 64, 59
1, 89427, Control_c, 0, 64, 69
1, 89446, Control_c, 0, 64, 77
1, 89465, Control_c, 0, 64, 85
1, 89484, Control_c, 0, 64, 91
1, 89521, Control_c, 0, 64, 95
1, 89595, Control_c, 0, 64, 91
1, 89634, Control_c, 0, 64, 87
1, 89638, Note_on_c, 0, 59, 65
1, 89639, Note_on_c, 0, 69, 67
1, 89652, Control_c, 0, 64, 84
1, 89663, Note_off_c, 0, 57, 50
1, 89663, Poly_aftertouch_c, 0, 57, 0
1, 89671, Control_c, 0, 64, 82
1, 89680, Note_off_c, 0, 71, 59
1, 89688, Control_c, 0, 64, 80
1, 89727, Control_c, 0, 64, 77
1, 89764, Control_c, 0, 64, 75
1, 89802, Control_c, 0, 64, 73
1, 89839, Control_c, 0, 64, 69
1, 89857, Control_c, 0, 64, 67
1, 89877, Control_c, 0, 64, 65
1, 89894, Control_c, 0, 64, 62
1, 89914, Control_c, 0, 64, 60
1, 89932, Control_c, 0, 64, 57
1, 89944, Note_off_c, 0, 50, 36
1, 89951, Control_c, 0, 64, 54
1, 89969, Control_c, 0, 64, 48
1, 89978, Note_on_c, 0, 73, 69
1, 89987, Control_c, 0, 64, 42
1, 89996, Note_on_c, 0, 52, 38
1, 90004, Control_c, 0, 64, 32
1, 90026, Control_c, 0, 64, 21
1, 90032, Note_off_c, 0, 69, 59
1, 90044, Control_c, 0, 64, 13
1, 90119, Control_c, 0, 64, 24
1, 90140, Control_c, 0, 64, 36
1, 90157, Control_c, 0, 64, 52
1, 90176, Control_c, 0, 64, 66
1, 90194, Control_c, 0, 64, 75
1, 90212, Control_c, 0, 64, 81
1, 90223, Note_off_c, 0, 59, 59
1, 90230, Control_c, 0, 64, 88
1, 90250, Control_c, 0, 64, 95
1, 90268, Control_c, 0, 64, 101
1, 90288, Control_c, 0, 64, 105
1, 90325, Control_c, 0, 64, 110
1, 90347, Note_on_c, 0, 64, 59
1, 90352, Note_on_c, 0, 57, 53
1, 90475, Note_off_c, 0, 73, 57
1, 90477, Note_off_c, 0, 52, 40
1, 90477, Poly_aftertouch_c, 0, 52, 0
1, 90643, Control_c, 0, 64, 106
1, 90681, Control_c, 0, 64, 100
1, 90698, Control_c, 0, 64, 95
1, 90717, Control_c, 0, 64, 89
1, 90722, Note_on_c, 0, 52, 46
1, 90733, Note_on_c, 0, 71, 50
1, 90736, Control_c, 0, 64, 83
1, 90755, Control_c, 0, 64, 78
1, 90774, Control_c, 0, 64, 74
1, 90792, Control_c, 0, 64, 70
1, 90811, Control_c, 0, 64, 67
1, 90830, Control_c, 0, 64, 64
1, 90848, Control_c, 0, 64, 61
1, 90868, Control_c, 0, 64, 58
1, 90874, Note_off_c, 0, 64, 41
1, 90886, Control_c, 0, 64, 54
1, 90904, Control_c, 0, 64, 49
1, 90923, Control_c, 0, 64, 45
1, 90942, Control_c, 0, 64, 40
1, 90961, Control_c, 0, 64, 36
1, 91073, Note_on_c, 0, 56, 43
1, 91091, Note_on_c, 0, 62, 48
1, 91163, Note_off_c, 0, 57, 52
1, 91163, Poly_aftertouch_c, 0, 57, 0
1, 91205, Control_c, 0, 64, 43
1, 91223, Control_c, 0, 64, 50
1, 91241, Control_c, 0, 64, 59
1, 91259, Control_c, 0, 64, 65
1, 91279, Control_c, 0, 64, 70
1, 91297, Control_c, 0, 64, 73
1, 91316, Control_c, 0, 64, 76
1, 91334, Control_c, 0, 64, 79
1, 91353, Note_off_c, 0, 71, 34
1, 91353, Control_c, 0, 64, 81
1, 91447, Control_c, 0, 64, 79
1, 91467, Control_c, 0, 64, 77
1, 91484, Control_c, 0, 64, 75
1, 91503, Control_c, 0, 64, 72
1, 91513, Note_off_c, 0, 52, 33
1, 91513, Poly_aftertouch_c, 0, 52, 0
1, 91520, Control_c, 0, 64, 70
1, 91532, Note_on_c, 0, 61, 43
1, 91537, Note_on_c, 0, 57, 37
1, 91560, Control_c, 0, 64, 66
1, 91577, Control_c, 0, 64, 65
1, 91597, Control_c, 0, 64, 63
1, 91615, Control_c, 0, 64, 60
1, 91634, Control_c, 0, 64, 58
1, 91652, Control_c, 0, 64, 55
1, 91661, Note_off_c, 0, 62, 33
1, 91671, Control_c, 0, 64, 50
1, 91691, Control_c, 0, 64, 45
1, 91694, Note_off_c, 0, 56, 30
1, 91708, Control_c, 0, 64, 38
1, 91728, Control_c, 0, 64, 31
1, 91746, Control_c, 0, 64, 23
1, 91765, Control_c, 0, 64, 17
1, 91839, Control_c, 0, 64, 13
1, 91900, Note_on_c, 0, 64, 45
1, 92053, Note_off_c, 0, 61, 34
1, 92053, Poly_aftertouch_c, 0, 61, 0
1, 92250, Note_on_c, 0, 69, 48
1, 92359, Note_off_c, 0, 64, 27
1, 92577, Note_on_c, 0, 52, 37
1, 92718, Control_c, 0, 64, 19
1, 92756, Control_c, 0, 64, 25
1, 92792, Control_c, 0, 64, 32
1, 92812, Control_c, 0, 64, 38
1, 92831, Control_c, 0, 64, 44
1, 92849, Control_c, 0, 64, 52
1, 92868, Control_c, 0, 64, 58
1, 92887, Control_c, 0, 64, 62
1, 92905, Note_on_c, 0, 49, 41
1, 92905, Control_c, 0, 64, 64
1, 92924, Control_c, 0, 64, 67
1, 92942, Control_c, 0, 64, 69
1, 92962, Control_c, 0, 64, 72
1, 92980, Control_c, 0, 64, 74
1, 92999, Control_c, 0, 64, 76
1, 93017, Control_c, 0, 64, 78
1, 93044, Note_off_c, 0, 69, 34
1, 93054, Control_c, 0, 64, 81
1, 93222, Poly_aftertouch_c, 0, 52, 20
1, 93254, Note_on_c, 0, 45, 36
1, 93258, Note_on_c, 0, 64, 41
1, 93259, Control_c, 0, 64, 79
1, 93301, Note_off_c, 0, 52, 19
1, 93301, Poly_aftertouch_c, 0, 52, 0
1, 93314, Note_off_c, 0, 49, 38
1, 93314, Poly_aftertouch_c, 0, 49, 0
1, 93336, Control_c, 0, 64, 77
1, 93374, Control_c, 0, 64, 75
1, 93411, Control_c, 0, 64, 73
1, 93466, Control_c, 0, 64, 71
1, 93504, Control_c, 0, 64, 68
1, 93522, Control_c, 0, 64, 66
1, 93541, Control_c, 0, 64, 65
1, 93560, Control_c, 0, 64, 64
1, 93579, Control_c, 0, 64, 63
1, 93592, Note_on_c, 0, 49, 46
1, 93596, Note_on_c, 0, 69, 48
1, 93615, Control_c, 0, 64, 62
1, 93653, Control_c, 0, 64, 60
1, 93654, Note_off_c, 0, 45, 37
1, 93654, Poly_aftertouch_c, 0, 45, 0
1, 93691, Control_c, 0, 64, 58
1, 93728, Control_c, 0, 64, 56
1, 93750, Note_off_c, 0, 57, 41
1, 93750, Poly_aftertouch_c, 0, 57, 0
1, 93784, Control_c, 0, 64, 54
1, 93788, Note_off_c, 0, 64, 33
1, 93841, Control_c, 0, 64, 51
1, 93878, Control_c, 0, 64, 49
1, 93926, Note_on_c, 0, 52, 52
1, 93927, Note_on_c, 0, 71, 54
1, 93935, Control_c, 0, 64, 47
1, 93972, Control_c, 0, 64, 45
1, 94008, Control_c, 0, 64, 42
1, 94028, Control_c, 0, 64, 40
1, 94055, Note_off_c, 0, 69, 36
1, 94056, Note_off_c, 0, 49, 36
1, 94056, Poly_aftertouch_c, 0, 49, 0
1, 94063, Control_c, 0, 64, 36
1, 94120, Control_c, 0, 64, 31
1, 94196, Control_c, 0, 64, 27
1, 94251, Note_on_c, 0, 73, 58
1, 94252, Note_on_c, 0, 57, 56
1, 94270, Control_c, 0, 64, 22
1, 94319, Note_off_c, 0, 52, 55
1, 94319, Poly_aftertouch_c, 0, 52, 0
1, 94325, Control_c, 0, 64, 17
1, 94357, Note_off_c, 0, 71, 36
1, 94402, Control_c, 0, 64, 13
1, 94515, Control_c, 0, 64, 20
1, 94532, Control_c, 0, 64, 27
1, 94551, Control_c, 0, 64, 33
1, 94570, Control_c, 0, 64, 41
1, 94581, Note_on_c, 0, 69, 57
1, 94588, Control_c, 0, 64, 49
1, 94607, Control_c, 0, 64, 56
1, 94626, Control_c, 0, 64, 60
1, 94634, Note_off_c, 0, 73, 56
1, 94644, Control_c, 0, 64, 61
1, 94700, Control_c, 0, 64, 60
1, 94757, Control_c, 0, 64, 57
1, 94794, Control_c, 0, 64, 55
1, 94832, Control_c, 0, 64, 52
1, 94850, Control_c, 0, 64, 50
1, 94887, Control_c, 0, 64, 47
1, 94925, Control_c, 0, 64, 42
1, 94935, Note_on_c, 0, 66, 45
1, 94936, Note_on_c, 0, 60, 45
1, 94943, Control_c, 0, 64, 37
1, 94947, Note_off_c, 0, 69, 51
1, 94962, Control_c, 0, 64, 33
1, 95000, Control_c, 0, 64, 28
1, 95205, Control_c, 0, 64, 33
1, 95242, Control_c, 0, 64, 39
1, 95261, Control_c, 0, 64, 45
1, 95279, Control_c, 0, 64, 51
1, 95299, Control_c, 0, 64, 59
1, 95317, Control_c, 0, 64, 64
1, 95320, Note_on_c, 0, 75, 58
1, 95336, Control_c, 0, 64, 67
1, 95355, Control_c, 0, 64, 69
1, 95376, Control_c, 0, 64, 72
1, 95393, Control_c, 0, 64, 76
1, 95402, Note_off_c, 0, 60, 53
1, 95409, Control_c, 0, 64, 79
1, 95430, Control_c, 0, 64, 83
1, 95446, Note_off_c, 0, 66, 27
1, 95448, Control_c, 0, 64, 87
1, 95486, Control_c, 0, 64, 91
1, 95654, Control_c, 0, 64, 88
1, 95671, Note_off_c, 0, 75, 33
1, 95671, Control_c, 0, 64, 85
1, 95691, Control_c, 0, 64, 82
1, 95711, Control_c, 0, 64, 78
1, 95729, Control_c, 0, 64, 74
1, 95744, Note_on_c, 0, 55, 32
1, 95745, Control_c, 0, 64, 69
1, 95747, Note_on_c, 0, 59, 37
1, 95759, Note_on_c, 0, 76, 46
1, 95764, Control_c, 0, 64, 64
1, 95785, Control_c, 0, 64, 60
1, 95803, Control_c, 0, 64, 57
1, 95822, Control_c, 0, 64, 55
1, 95841, Control_c, 0, 64, 53
1, 95860, Control_c, 0, 64, 50
1, 95879, Control_c, 0, 64, 46
1, 95898, Control_c, 0, 64, 40
1, 95915, Control_c, 0, 64, 33
1, 95934, Control_c, 0, 64, 27
1, 95944, Note_off_c, 0, 57, 20
1, 95944, Poly_aftertouch_c, 0, 57, 0
1, 96028, Control_c, 0, 64, 36
1, 96047, Control_c, 0, 64, 44
1, 96066, Control_c, 0, 64, 53
1, 96084, Control_c, 0, 64, 61
1, 96102, Note_off_c, 0, 76, 36
1, 96102, Control_c, 0, 64, 67
1, 96122, Control_c, 0, 64, 71
1, 96139, Control_c, 0, 64, 74
1, 96159, Control_c, 0, 64, 77
1, 96177, Control_c, 0, 64, 80
1, 96197, Control_c, 0, 64, 83
1, 96216, Control_c, 0, 64, 86
1, 96252, Control_c, 0, 64, 91
1, 96287, Note_on_c, 0, 71, 50
1, 96346, Control_c, 0, 64, 95
1, 96646, Control_c, 0, 64, 89
1, 96649, Note_on_c, 0, 54, 40
1, 96659, Note_on_c, 0, 57, 38
1, 96664, Control_c, 0, 64, 86
1, 96682, Control_c, 0, 64, 82
1, 96702, Control_c, 0, 64, 78
1, 96720, Control_c, 0, 64, 73
1, 96738, Control_c, 0, 64, 67
1, 96756, Control_c, 0, 64, 61
1, 96776, Control_c, 0, 64, 58
1, 96782, Poly_aftertouch_c, 0, 59, 24
1, 96795, Control_c, 0, 64, 56
1, 96807, Note_off_c, 0, 55, 32
1, 96826, Note_off_c, 0, 59, 19
1, 96826, Poly_aftertouch_c, 0, 59, 0
1, 96888, Control_c, 0, 64, 60
1, 96908, Control_c, 0, 64, 64
1, 96926, Control_c, 0, 64, 67
1, 96943, Control_c, 0, 64, 71
1, 96963, Control_c, 0, 64, 76
1, 96971, Note_on_c, 0, 75, 60
1, 96982, Control_c, 0, 64, 81
1, 97001, Control_c, 0, 64, 86
1, 97003, Note_off_c, 0, 71, 29
1, 97018, Note_off_c, 0, 54, 52
1, 97018, Control_c, 0, 64, 91
1, 97058, Control_c, 0, 64, 97
1, 97224, Control_c, 0, 64, 91
1, 97244, Control_c, 0, 64, 87
1, 97262, Control_c, 0, 64, 83
1, 97281, Control_c, 0, 64, 78
1, 97300, Control_c, 0, 64, 71
1, 97318, Control_c, 0, 64, 66
1, 97330, Note_on_c, 0, 55, 40
1, 97331, Note_on_c, 0, 76, 55
1, 97337, Control_c, 0, 64, 61
1, 97341, Note_on_c, 0, 52, 31
1, 97355, Control_c, 0, 64, 59
1, 97356, Note_off_c, 0, 57, 30
1, 97356, Poly_aftertouch_c, 0, 57, 0
1, 97375, Control_c, 0, 64, 56
1, 97393, Control_c, 0, 64, 53
1, 97411, Control_c, 0, 64, 48
1, 97413, Note_off_c, 0, 75, 43
1, 97430, Control_c, 0, 64, 39
1, 97449, Control_c, 0, 64, 32
1, 97505, Control_c, 0, 64, 39
1, 97523, Control_c, 0, 64, 49
1, 97543, Control_c, 0, 64, 62
1, 97562, Control_c, 0, 64, 74
1, 97580, Control_c, 0, 64, 83
1, 97599, Control_c, 0, 64, 92
1, 97601, Note_off_c, 0, 76, 56
1, 97618, Control_c, 0, 64, 99
1, 97636, Control_c, 0, 64, 104
1, 97674, Control_c, 0, 64, 110
1, 97711, Control_c, 0, 64, 115
1, 97738, Note_on_c, 0, 71, 64
1, 97791, Note_off_c, 0, 55, 31
1, 98011, Control_c, 0, 64, 109
1, 98048, Control_c, 0, 64, 100
1, 98066, Control_c, 0, 64, 93
1, 98080, Note_on_c, 0, 59, 58
1, 98085, Control_c, 0, 64, 86
1, 98095, Note_on_c, 0, 55, 48
1, 98103, Control_c, 0, 64, 78
1, 98105, Note_off_c, 0, 52, 41
1, 98105, Poly_aftertouch_c, 0, 52, 0
1, 98123, Control_c, 0, 64, 71
1, 98142, Control_c, 0, 64, 65
1, 98159, Control_c, 0, 64, 60
1, 98178, Control_c, 0, 64, 55
1, 98197, Control_c, 0, 64, 51
1, 98216, Control_c, 0, 64, 47
1, 98234, Control_c, 0, 64, 43
1, 98290, Control_c, 0, 64, 47
1, 98309, Control_c, 0, 64, 52
1, 98328, Control_c, 0, 64, 60
1, 98347, Control_c, 0, 64, 66
1, 98366, Control_c, 0, 64, 72
1, 98384, Control_c, 0, 64, 79
1, 98404, Control_c, 0, 64, 86
1, 98406, Note_off_c, 0, 59, 59
1, 98406, Poly_aftertouch_c, 0, 59, 0
1, 98414, Note_on_c, 0, 75, 72
1, 98421, Control_c, 0, 64, 93
1, 98440, Control_c, 0, 64, 100
1, 98460, Control_c, 0, 64, 105
1, 98495, Control_c, 0, 64, 110
1, 98509, Note_off_c, 0, 55, 58
1, 98609, Note_off_c, 0, 71, 34
1, 98665, Control_c, 0, 64, 104
1, 98684, Control_c, 0, 64, 100
1, 98701, Control_c, 0, 64, 95
1, 98721, Control_c, 0, 64, 89
1, 98739, Control_c, 0, 64, 84
1, 98757, Control_c, 0, 64, 79
1, 98760, Note_on_c, 0, 61, 64
1, 98777, Control_c, 0, 64, 73
1, 98786, Note_on_c, 0, 76, 58
1, 98787, Note_on_c, 0, 49, 46
1, 98796, Control_c, 0, 64, 68
1, 98814, Control_c, 0, 64, 64
1, 98833, Control_c, 0, 64, 61
1, 98844, Note_off_c, 0, 75, 55
1, 98850, Control_c, 0, 64, 60
1, 98870, Control_c, 0, 64, 57
1, 98890, Control_c, 0, 64, 54
1, 98907, Control_c, 0, 64, 50
1, 98927, Control_c, 0, 64, 45
1, 98945, Control_c, 0, 64, 38
1, 98964, Control_c, 0, 64, 33
1, 99076, Control_c, 0, 64, 42
1, 99094, Control_c, 0, 64, 53
1, 99111, Control_c, 0, 64, 65
1, 99113, Note_on_c, 0, 71, 65
1, 99132, Control_c, 0, 64, 72
1, 99151, Control_c, 0, 64, 76
1, 99169, Control_c, 0, 64, 78
1, 99208, Control_c, 0, 64, 81
1, 99299, Control_c, 0, 64, 78
1, 99337, Control_c, 0, 64, 75
1, 99356, Control_c, 0, 64, 73
1, 99375, Control_c, 0, 64, 70
1, 99393, Control_c, 0, 64, 66
1, 99413, Control_c, 0, 64, 64
1, 99428, Note_on_c, 0, 54, 53
1, 99431, Control_c, 0, 64, 61
1, 99433, Note_on_c, 0, 70, 64
1, 99434, Note_off_c, 0, 76, 41
1, 99449, Control_c, 0, 64, 58
1, 99450, Poly_aftertouch_c, 0, 52, 0
1, 99468, Control_c, 0, 64, 55
1, 99488, Control_c, 0, 64, 52
1, 99505, Control_c, 0, 64, 49
1, 99525, Control_c, 0, 64, 45
1, 99543, Control_c, 0, 64, 41
1, 99547, Note_off_c, 0, 49, 36
1, 99547, Poly_aftertouch_c, 0, 49, 0
1, 99581, Control_c, 0, 64, 37
1, 99608, Note_off_c, 0, 71, 41
1, 99637, Control_c, 0, 64, 40
1, 99655, Control_c, 0, 64, 44
1, 99675, Control_c, 0, 64, 50
1, 99693, Control_c, 0, 64, 57
1, 99711, Control_c, 0, 64, 63
1, 99730, Control_c, 0, 64, 67
1, 99749, Control_c, 0, 64, 71
1, 99758, Note_on_c, 0, 76, 65
1, 99768, Control_c, 0, 64, 75
1, 99786, Control_c, 0, 64, 78
1, 99796, Note_off_c, 0, 70, 57
1, 99805, Control_c, 0, 64, 82
1, 99824, Control_c, 0, 64, 86
1, 99855, Note_off_c, 0, 61, 58
1, 99855, Poly_aftertouch_c, 0, 61, 0
1, 99861, Control_c, 0, 64, 91
1, 99914, Note_off_c, 0, 76, 57
1, 99987, Note_on_c, 0, 74, 53
1, 100029, Control_c, 0, 64, 86
1, 100038, Note_off_c, 0, 74, 62
1, 100048, Control_c, 0, 64, 84
1, 100067, Note_on_c, 0, 76, 54
1, 100067, Control_c, 0, 64, 80
1, 100086, Control_c, 0, 64, 76
1, 100104, Control_c, 0, 64, 71
1, 100122, Control_c, 0, 64, 64
1, 100127, Note_off_c, 0, 76, 57
1, 100127, Note_on_c, 0, 59, 41
1, 100129, Note_on_c, 0, 74, 55
1, 100142, Control_c, 0, 64, 59
1, 100161, Control_c, 0, 64, 55
1, 100179, Control_c, 0, 64, 51
1, 100198, Control_c, 0, 64, 48
1, 100205, Note_off_c, 0, 54, 36
1, 100217, Control_c, 0, 64, 43
1, 100235, Control_c, 0, 64, 37
1, 100254, Control_c, 0, 64, 32
1, 100273, Control_c, 0, 64, 28
1, 100329, Control_c, 0, 64, 24
1, 100482, Note_on_c, 0, 73, 54
1, 100536, Note_off_c, 0, 74, 36
1, 100769, Note_off_c, 0, 73, 50
1, 100820, Note_on_c, 0, 71, 48
1, 101146, Note_on_c, 0, 54, 39
1, 101245, Control_c, 0, 64, 28
1, 101301, Control_c, 0, 64, 33
1, 101339, Control_c, 0, 64, 41
1, 101358, Control_c, 0, 64, 46
1, 101375, Control_c, 0, 64, 51
1, 101396, Control_c, 0, 64, 57
1, 101413, Control_c, 0, 64, 61
1, 101433, Control_c, 0, 64, 64
1, 101450, Control_c, 0, 64, 66
1, 101470, Control_c, 0, 64, 69
1, 101483, Note_on_c, 0, 50, 40
1, 101486, Control_c, 0, 64, 72
1, 101506, Control_c, 0, 64, 75
1, 101525, Control_c, 0, 64, 78
1, 101544, Control_c, 0, 64, 81
1, 101563, Control_c, 0, 64, 85
1, 101582, Control_c, 0, 64, 89
1, 101609, Note_off_c, 0, 71, 24
1, 101620, Control_c, 0, 64, 95
1, 101624, Note_off_c, 0, 54, 24
1, 101658, Control_c, 0, 64, 99
1, 101802, Note_on_c, 0, 66, 58
1, 101820, Note_on_c, 0, 47, 43
1, 101917, Control_c, 0, 64, 95
1, 101955, Note_off_c, 0, 50, 25
1, 101974, Control_c, 0, 64, 90
1, 102031, Control_c, 0, 64, 88
1, 102068, Control_c, 0, 64, 85
1, 102124, Control_c, 0, 64, 83
1, 102147, Note_on_c, 0, 50, 55
1, 102147, Note_on_c, 0, 71, 65
1, 102161, Control_c, 0, 64, 80
1, 102180, Control_c, 0, 64, 78
1, 102198, Control_c, 0, 64, 76
1, 102217, Control_c, 0, 64, 73
1, 102236, Control_c, 0, 64, 71
1, 102331, Control_c, 0, 64, 69
1, 102363, Note_off_c, 0, 47, 27
1, 102363, Poly_aftertouch_c, 0, 47, 0
1, 102385, Control_c, 0, 64, 68
1, 102400, Note_off_c, 0, 66, 37
1, 102404, Control_c, 0, 64, 67
1, 102423, Control_c, 0, 64, 66
1, 102442, Control_c, 0, 64, 64
1, 102451, Note_off_c, 0, 59, 35
1, 102451, Poly_aftertouch_c, 0, 59, 0
1, 102460, Control_c, 0, 64, 62
1, 102473, Note_on_c, 0, 73, 66
1, 102478, Control_c, 0, 64, 61
1, 102484, Note_on_c, 0, 54, 62
1, 102498, Control_c, 0, 64, 60
1, 102535, Control_c, 0, 64, 56
1, 102573, Control_c, 0, 64, 53
1, 102591, Control_c, 0, 64, 51
1, 102610, Control_c, 0, 64, 48
1, 102628, Control_c, 0, 64, 45
1, 102647, Control_c, 0, 64, 41
1, 102651, Note_off_c, 0, 71, 48
1, 102665, Control_c, 0, 64, 36
1, 102669, Note_off_c, 0, 50, 37
1, 102684, Control_c, 0, 64, 32
1, 102722, Control_c, 0, 64, 25
1, 102760, Control_c, 0, 64, 17
1, 102797, Control_c, 0, 64, 9
1, 102808, Note_on_c, 0, 59, 67
1, 102808, Note_on_c, 0, 74, 66
1, 102834, Control_c, 0, 64, 0
1, 102875, Note_off_c, 0, 73, 57
1, 102900, Note_off_c, 0, 54, 60
1, 102966, Control_c, 0, 64, 13
1, 102983, Control_c, 0, 64, 19
1, 103002, Control_c, 0, 64, 25
1, 103021, Control_c, 0, 64, 31
1, 103040, Control_c, 0, 64, 40
1, 103059, Control_c, 0, 64, 51
1, 103077, Control_c, 0, 64, 62
1, 103096, Control_c, 0, 64, 69
1, 103115, Control_c, 0, 64, 74
1, 103132, Control_c, 0, 64, 78
1, 103136, Note_on_c, 0, 71, 67
1, 103152, Control_c, 0, 64, 82
1, 103171, Control_c, 0, 64, 87
1, 103188, Control_c, 0, 64, 92
1, 103206, Note_off_c, 0, 74, 56
1, 103246, Control_c, 0, 64, 96
1, 103339, Control_c, 0, 64, 91
1, 103378, Control_c, 0, 64, 86
1, 103394, Control_c, 0, 64, 83
1, 103414, Control_c, 0, 64, 80
1, 103432, Control_c, 0, 64, 77
1, 103452, Note_on_c, 0, 62, 69
1, 103452, Control_c, 0, 64, 73
1, 103470, Control_c, 0, 64, 69
1, 103484, Note_on_c, 0, 68, 49
1, 103488, Control_c, 0, 64, 66
1, 103508, Control_c, 0, 64, 62
1, 103526, Control_c, 0, 64, 59
1, 103538, Note_off_c, 0, 71, 36
1, 103545, Control_c, 0, 64, 55
1, 103564, Control_c, 0, 64, 50
1, 103582, Control_c, 0, 64, 46
1, 103601, Control_c, 0, 64, 42
1, 103656, Control_c, 0, 64, 46
1, 103676, Control_c, 0, 64, 50
1, 103694, Control_c, 0, 64, 57
1, 103714, Control_c, 0, 64, 64
1, 103732, Control_c, 0, 64, 70
1, 103750, Control_c, 0, 64, 74
1, 103769, Control_c, 0, 64, 78
1, 103788, Control_c, 0, 64, 83
1, 103807, Control_c, 0, 64, 89
1, 103825, Note_on_c, 0, 77, 73
1, 103825, Control_c, 0, 64, 96
1, 103844, Control_c, 0, 64, 103
1, 103862, Control_c, 0, 64, 108
1, 103881, Control_c, 0, 64, 112
1, 103919, Control_c, 0, 64, 118
1, 103937, Note_off_c, 0, 62, 52
1, 103949, Note_off_c, 0, 68, 38
1, 103949, Poly_aftertouch_c, 0, 68, 0
1, 104087, Control_c, 0, 64, 111
1, 104106, Control_c, 0, 64, 105
1, 104124, Control_c, 0, 64, 96
1, 104143, Control_c, 0, 64, 86
1, 104161, Control_c, 0, 64, 76
1, 104181, Control_c, 0, 64, 66
1, 104197, Note_on_c, 0, 78, 72
1, 104198, Control_c, 0, 64, 60
1, 104201, Note_on_c, 0, 61, 58
1, 104216, Note_on_c, 0, 57, 50
1, 104217, Control_c, 0, 64, 57
1, 104256, Control_c, 0, 64, 53
1, 104260, Note_off_c, 0, 77, 54
1, 104274, Control_c, 0, 64, 49
1, 104292, Control_c, 0, 64, 45
1, 104312, Control_c, 0, 64, 39
1, 104327, Note_off_c, 0, 59, 37
1, 104327, Poly_aftertouch_c, 0, 59, 0
1, 104387, Control_c, 0, 64, 43
1, 104405, Control_c, 0, 64, 51
1, 104425, Control_c, 0, 64, 61
1, 104442, Control_c, 0, 64, 70
1, 104461, Control_c, 0, 64, 76
1, 104479, Control_c, 0, 64, 83
1, 104499, Control_c, 0, 64, 91
1, 104508, Note_off_c, 0, 78, 55
1, 104517, Control_c, 0, 64, 100
1, 104535, Control_c, 0, 64, 109
1, 104555, Control_c, 0, 64, 117
1, 104573, Control_c, 0, 64, 124
1, 104648, Note_on_c, 0, 73, 78
1, 104881, Note_off_c, 0, 61, 40
1, 104881, Poly_aftertouch_c, 0, 61, 0
1, 104947, Control_c, 0, 64, 115
1, 104966, Control_c, 0, 64, 104
1, 104979, Note_on_c, 0, 59, 61
1, 104983, Control_c, 0, 64, 91
1, 104985, Note_off_c, 0, 57, 53
1, 104985, Poly_aftertouch_c, 0, 57, 0
1, 104992, Note_on_c, 0, 56, 54
1, 105003, Control_c, 0, 64, 76
1, 105022, Control_c, 0, 64, 63
1, 105041, Control_c, 0, 64, 55
1, 105060, Control_c, 0, 64, 49
1, 105116, Control_c, 0, 64, 52
1, 105134, Control_c, 0, 64, 60
1, 105152, Control_c, 0, 64, 67
1, 105172, Control_c, 0, 64, 74
1, 105190, Control_c, 0, 64, 82
1, 105209, Control_c, 0, 64, 93
1, 105228, Control_c, 0, 64, 104
1, 105246, Control_c, 0, 64, 116
1, 105259, Note_off_c, 0, 73, 31
1, 105260, Poly_aftertouch_c, 0, 73, 0
1, 105265, Control_c, 0, 64, 125
1, 105311, Note_on_c, 0, 77, 78
1, 105321, Note_off_c, 0, 56, 51
1, 105545, Control_c, 0, 64, 120
1, 105564, Control_c, 0, 64, 110
1, 105583, Control_c, 0, 64, 98
1, 105601, Control_c, 0, 64, 86
1, 105616, Note_off_c, 0, 59, 36
1, 105616, Poly_aftertouch_c, 0, 59, 0
1, 105618, Control_c, 0, 64, 74
1, 105639, Control_c, 0, 64, 60
1, 105644, Note_on_c, 0, 57, 53
1, 105646, Note_on_c, 0, 78, 74
1, 105653, Note_on_c, 0, 54, 49
1, 105658, Control_c, 0, 64, 49
1, 105676, Control_c, 0, 64, 37
1, 105695, Control_c, 0, 64, 24
1, 105701, Note_off_c, 0, 77, 54
1, 105714, Control_c, 0, 64, 13
1, 105733, Control_c, 0, 64, 9
1, 105788, Control_c, 0, 64, 26
1, 105807, Control_c, 0, 64, 43
1, 105827, Control_c, 0, 64, 65
1, 105845, Control_c, 0, 64, 80
1, 105864, Control_c, 0, 64, 94
1, 105881, Control_c, 0, 64, 108
1, 105899, Note_off_c, 0, 78, 55
1, 105900, Control_c, 0, 64, 119
1, 105920, Control_c, 0, 64, 126
1, 106030, Note_on_c, 0, 73, 77
1, 106054, Note_off_c, 0, 57, 47
1, 106054, Poly_aftertouch_c, 0, 57, 0
1, 106163, Note_off_c, 0, 54, 37
1, 106368, Control_c, 0, 64, 114
1, 106377, Note_on_c, 0, 61, 70
1, 106386, Control_c, 0, 64, 103
1, 106405, Note_on_c, 0, 57, 53
1, 106405, Control_c, 0, 64, 92
1, 106424, Control_c, 0, 64, 81
1, 106444, Control_c, 0, 64, 69
1, 106463, Control_c, 0, 64, 59
1, 106480, Control_c, 0, 64, 53
1, 106499, Control_c, 0, 64, 50
1, 106537, Control_c, 0, 64, 54
1, 106555, Control_c, 0, 64, 60
1, 106573, Control_c, 0, 64, 68
1, 106593, Control_c, 0, 64, 77
1, 106612, Control_c, 0, 64, 90
1, 106630, Control_c, 0, 64, 106
1, 106649, Control_c, 0, 64, 122
1, 106667, Control_c, 0, 64, 127
1, 106696, Note_on_c, 0, 77, 74
1, 106720, Note_off_c, 0, 57, 54
1, 106720, Poly_aftertouch_c, 0, 57, 0
1, 106739, Note_off_c, 0, 61, 60
1, 106739, Poly_aftertouch_c, 0, 61, 0
1, 106740, Note_off_c, 0, 73, 44
1, 106741, Poly_aftertouch_c, 0, 73, 0
1, 106967, Control_c, 0, 64, 118
1, 106986, Control_c, 0, 64, 111
1, 107005, Control_c, 0, 64, 104
1, 107020, Control_c, 0, 64, 97
1, 107021, Note_on_c, 0, 63, 73
1, 107040, Control_c, 0, 64, 91
1, 107045, Note_on_c, 0, 78, 67
1, 107053, Note_on_c, 0, 51, 54
1, 107059, Control_c, 0, 64, 86
1, 107079, Control_c, 0, 64, 80
1, 107097, Control_c, 0, 64, 73
1, 107099, Note_off_c, 0, 77, 53
1, 107116, Control_c, 0, 64, 68
1, 107135, Control_c, 0, 64, 64
1, 107153, Control_c, 0, 64, 60
1, 107172, Control_c, 0, 64, 57
1, 107191, Control_c, 0, 64, 54
1, 107210, Control_c, 0, 64, 51
1, 107228, Control_c, 0, 64, 47
1, 107247, Control_c, 0, 64, 42
1, 107284, Control_c, 0, 64, 38
1, 107322, Control_c, 0, 64, 42
1, 107341, Control_c, 0, 64, 48
1, 107359, Control_c, 0, 64, 59
1, 107374, Note_on_c, 0, 73, 72
1, 107377, Control_c, 0, 64, 69
1, 107397, Control_c, 0, 64, 78
1, 107415, Control_c, 0, 64, 86
1, 107434, Control_c, 0, 64, 94
1, 107453, Control_c, 0, 64, 100
1, 107490, Control_c, 0, 64, 104
1, 107564, Control_c, 0, 64, 100
1, 107603, Control_c, 0, 64, 95
1, 107621, Control_c, 0, 64, 91
1, 107639, Control_c, 0, 64, 85
1, 107659, Control_c, 0, 64, 78
1, 107677, Control_c, 0, 64, 72
1, 107683, Note_on_c, 0, 72, 71
1, 107690, Note_on_c, 0, 56, 55
1, 107695, Note_off_c, 0, 73, 55
1, 107695, Control_c, 0, 64, 66
1, 107714, Control_c, 0, 64, 58
1, 107718, Note_off_c, 0, 51, 50
1, 107734, Control_c, 0, 64, 50
1, 107752, Control_c, 0, 64, 41
1, 107771, Control_c, 0, 64, 34
1, 107833, Note_off_c, 0, 78, 55
1, 107846, Control_c, 0, 64, 38
1, 107864, Control_c, 0, 64, 46
1, 107883, Control_c, 0, 64, 56
1, 107901, Control_c, 0, 64, 67
1, 107919, Control_c, 0, 64, 74
1, 107939, Control_c, 0, 64, 81
1, 107958, Control_c, 0, 64, 88
1, 107976, Control_c, 0, 64, 95
1, 107994, Control_c, 0, 64, 100
1, 107997, Note_off_c, 0, 72, 56
1, 107997, Note_on_c, 0, 78, 66
1, 108008, Note_off_c, 0, 63, 54
1, 108012, Control_c, 0, 64, 104
1, 108070, Control_c, 0, 64, 108
1, 108130, Note_off_c, 0, 78, 62
1, 108219, Note_on_c, 0, 76, 57
1, 108238, Control_c, 0, 64, 104
1, 108260, Note_off_c, 0, 76, 66
1, 108273, Note_on_c, 0, 78, 67
1, 108275, Control_c, 0, 64, 100
1, 108312, Control_c, 0, 64, 94
1, 108331, Control_c, 0, 64, 89
1, 108350, Control_c, 0, 64, 83
1, 108356, Note_on_c, 0, 76, 66
1, 108367, Note_off_c, 0, 78, 56
1, 108368, Control_c, 0, 64, 76
1, 108388, Control_c, 0, 64, 69
1, 108405, Note_on_c, 0, 61, 52
1, 108406, Control_c, 0, 64, 62
1, 108425, Control_c, 0, 64, 56
1, 108444, Control_c, 0, 64, 51
1, 108463, Control_c, 0, 64, 47
1, 108482, Control_c, 0, 64, 41
1, 108499, Control_c, 0, 64, 36
1, 108537, Control_c, 0, 64, 31
1, 108568, Note_off_c, 0, 56, 38
1, 108650, Control_c, 0, 64, 27
1, 108731, Note_on_c, 0, 75, 63
1, 108754, Note_off_c, 0, 76, 52
1, 108780, Control_c, 0, 64, 23
1, 108818, Control_c, 0, 64, 17
1, 108855, Control_c, 0, 64, 13
1, 108910, Control_c, 0, 64, 0
1, 109059, Note_off_c, 0, 75, 37
1, 109065, Note_on_c, 0, 73, 57
1, 109407, Note_on_c, 0, 56, 43
1, 109714, Control_c, 0, 64, 12
1, 109716, Note_on_c, 0, 52, 50
1, 109734, Control_c, 0, 64, 16
1, 109752, Control_c, 0, 64, 23
1, 109771, Control_c, 0, 64, 31
1, 109790, Control_c, 0, 64, 43
1, 109809, Control_c, 0, 64, 55
1, 109828, Control_c, 0, 64, 64
1, 109846, Control_c, 0, 64, 69
1, 109865, Control_c, 0, 64, 73
1, 109883, Control_c, 0, 64, 76
1, 109890, Note_off_c, 0, 73, 40
1, 109902, Control_c, 0, 64, 78
1, 109921, Control_c, 0, 64, 82
1, 109940, Control_c, 0, 64, 85
1, 109959, Control_c, 0, 64, 88
1, 110028, Note_on_c, 0, 68, 57
1, 110031, Poly_aftertouch_c, 0, 56, 20
1, 110040, Note_on_c, 0, 49, 47
1, 110046, Note_off_c, 0, 56, 19
1, 110046, Poly_aftertouch_c, 0, 56, 0
1, 110164, Note_off_c, 0, 52, 38
1, 110238, Control_c, 0, 64, 86
1, 110295, Control_c, 0, 64, 83
1, 110351, Control_c, 0, 64, 81
1, 110361, Note_on_c, 0, 73, 69
1, 110371, Note_on_c, 0, 52, 53
1, 110388, Control_c, 0, 64, 79
1, 110407, Control_c, 0, 64, 77
1, 110426, Control_c, 0, 64, 75
1, 110444, Control_c, 0, 64, 73
1, 110483, Control_c, 0, 64, 71
1, 110500, Note_off_c, 0, 49, 34
1, 110500, Poly_aftertouch_c, 0, 49, 0
1, 110538, Control_c, 0, 64, 69
1, 110558, Control_c, 0, 64, 68
1, 110576, Control_c, 0, 64, 67
1, 110594, Control_c, 0, 64, 66
1, 110605, Note_off_c, 0, 68, 38
1, 110605, Poly_aftertouch_c, 0, 68, 0
1, 110607, Note_off_c, 0, 61, 51
1, 110607, Poly_aftertouch_c, 0, 61, 0
1, 110612, Control_c, 0, 64, 65
1, 110650, Control_c, 0, 64, 63
1, 110669, Control_c, 0, 64, 62
1, 110681, Note_on_c, 0, 75, 70
1, 110685, Note_on_c, 0, 56, 65
1, 110687, Control_c, 0, 64, 61
1, 110705, Control_c, 0, 64, 60
1, 110743, Control_c, 0, 64, 58
1, 110837, Control_c, 0, 64, 56
1, 110912, Control_c, 0, 64, 54
1, 110929, Note_off_c, 0, 52, 30
1, 110931, Control_c, 0, 64, 52
1, 110943, Note_off_c, 0, 73, 29
1, 110968, Control_c, 0, 64, 48
1, 111005, Control_c, 0, 64, 44
1, 111019, Note_on_c, 0, 61, 62
1, 111024, Note_on_c, 0, 76, 65
1, 111024, Control_c, 0, 64, 42
1, 111061, Control_c, 0, 64, 36
1, 111081, Note_off_c, 0, 75, 59
1, 111099, Control_c, 0, 64, 31
1, 111136, Control_c, 0, 64, 26
1, 111269, Control_c, 0, 64, 32
1, 111284, Note_off_c, 0, 56, 38
1, 111284, Poly_aftertouch_c, 0, 56, 0
1, 111285, Control_c, 0, 64, 39
1, 111305, Control_c, 0, 64, 49
1, 111323, Control_c, 0, 64, 60
1, 111342, Control_c, 0, 64, 67
1, 111350, Note_on_c, 0, 73, 72
1, 111362, Control_c, 0, 64, 71
1, 111379, Control_c, 0, 64, 74
1, 111398, Control_c, 0, 64, 76
1, 111418, Control_c, 0, 64, 78
1, 111450, Note_off_c, 0, 76, 55
1, 111604, Control_c, 0, 64, 75
1, 111623, Control_c, 0, 64, 73
1, 111641, Control_c, 0, 64, 70
1, 111660, Control_c, 0, 64, 68
1, 111677, Control_c, 0, 64, 65
1, 111684, Note_on_c, 0, 52, 53
1, 111690, Note_on_c, 0, 70, 71
1, 111696, Control_c, 0, 64, 63
1, 111716, Control_c, 0, 64, 60
1, 111735, Control_c, 0, 64, 56
1, 111754, Control_c, 0, 64, 51
1, 111773, Control_c, 0, 64, 47
1, 111790, Note_off_c, 0, 73, 55
1, 111790, Control_c, 0, 64, 44
1, 111866, Control_c, 0, 64, 49
1, 111884, Control_c, 0, 64, 55
1, 111904, Control_c, 0, 64, 61
1, 111921, Control_c, 0, 64, 66
1, 111941, Control_c, 0, 64, 70
1, 111959, Control_c, 0, 64, 73
1, 111978, Control_c, 0, 64, 76
1, 111997, Control_c, 0, 64, 79
1, 112015, Control_c, 0, 64, 83
1, 112022, Note_on_c, 0, 79, 74
1, 112035, Control_c, 0, 64, 87
1, 112071, Control_c, 0, 64, 93
1, 112127, Control_c, 0, 64, 97
1, 112261, Note_off_c, 0, 70, 29
1, 112277, Control_c, 0, 64, 91
1, 112314, Control_c, 0, 64, 86
1, 112332, Control_c, 0, 64, 83
1, 112352, Control_c, 0, 64, 81
1, 112371, Control_c, 0, 64, 78
1, 112389, Control_c, 0, 64, 76
1, 112408, Control_c, 0, 64, 73
1, 112410, Note_on_c, 0, 50, 44
1, 112426, Control_c, 0, 64, 69
1, 112433, Note_on_c, 0, 78, 67
1, 112446, Control_c, 0, 64, 66
1, 112464, Control_c, 0, 64, 64
1, 112482, Control_c, 0, 64, 62
1, 112503, Control_c, 0, 64, 60
1, 112518, Note_off_c, 0, 52, 37
1, 112519, Note_off_c, 0, 79, 51
1, 112538, Control_c, 0, 64, 57
1, 112558, Control_c, 0, 64, 55
1, 112576, Control_c, 0, 64, 53
1, 112595, Control_c, 0, 64, 50
1, 112613, Control_c, 0, 64, 48
1, 112633, Control_c, 0, 64, 44
1, 112651, Control_c, 0, 64, 41
1, 112764, Control_c, 0, 64, 45
1, 112773, Note_on_c, 0, 74, 67
1, 112782, Control_c, 0, 64, 48
1, 112800, Control_c, 0, 64, 54
1, 112820, Control_c, 0, 64, 59
1, 112838, Control_c, 0, 64, 65
1, 112857, Control_c, 0, 64, 70
1, 112876, Control_c, 0, 64, 74
1, 112894, Control_c, 0, 64, 78
1, 112913, Control_c, 0, 64, 82
1, 112931, Control_c, 0, 64, 84
1, 112980, Note_off_c, 0, 78, 35
1, 113061, Control_c, 0, 64, 81
1, 113081, Control_c, 0, 64, 79
1, 113100, Control_c, 0, 64, 76
1, 113113, Note_on_c, 0, 71, 57
1, 113115, Note_off_c, 0, 61, 38
1, 113115, Note_on_c, 0, 54, 45
1, 113115, Poly_aftertouch_c, 0, 61, 0
1, 113118, Control_c, 0, 64, 72
1, 113137, Control_c, 0, 64, 68
1, 113156, Control_c, 0, 64, 65
1, 113160, Note_off_c, 0, 74, 39
1, 113175, Control_c, 0, 64, 62
1, 113192, Control_c, 0, 64, 59
1, 113212, Control_c, 0, 64, 57
1, 113250, Control_c, 0, 64, 55
1, 113306, Control_c, 0, 64, 58
1, 113324, Control_c, 0, 64, 61
1, 113343, Control_c, 0, 64, 65
1, 113362, Control_c, 0, 64, 69
1, 113380, Control_c, 0, 64, 72
1, 113400, Control_c, 0, 64, 76
1, 113417, Control_c, 0, 64, 80
1, 113437, Control_c, 0, 64, 84
1, 113451, Note_on_c, 0, 70, 58
1, 113455, Control_c, 0, 64, 88
1, 113469, Note_off_c, 0, 50, 53
1, 113493, Control_c, 0, 64, 93
1, 113511, Note_off_c, 0, 71, 51
1, 113624, Control_c, 0, 64, 88
1, 113642, Control_c, 0, 64, 85
1, 113660, Control_c, 0, 64, 82
1, 113679, Control_c, 0, 64, 78
1, 113698, Control_c, 0, 64, 73
1, 113717, Control_c, 0, 64, 67
1, 113735, Control_c, 0, 64, 61
1, 113753, Control_c, 0, 64, 57
1, 113768, Note_off_c, 0, 70, 55
1, 113769, Note_on_c, 0, 50, 42
1, 113772, Control_c, 0, 64, 54
1, 113775, Note_on_c, 0, 71, 50
1, 113791, Control_c, 0, 64, 50
1, 113811, Control_c, 0, 64, 47
1, 113828, Note_off_c, 0, 54, 36
1, 113829, Control_c, 0, 64, 45
1, 113885, Control_c, 0, 64, 49
1, 113904, Control_c, 0, 64, 55
1, 113923, Control_c, 0, 64, 62
1, 113941, Control_c, 0, 64, 68
1, 113960, Control_c, 0, 64, 73
1, 113973, Note_off_c, 0, 71, 58
1, 113977, Control_c, 0, 64, 78
1, 113997, Control_c, 0, 64, 83
1, 114016, Control_c, 0, 64, 88
1, 114054, Control_c, 0, 64, 94
1, 114128, Note_on_c, 0, 66, 56
1, 114135, Note_on_c, 0, 47, 44
1, 114167, Note_off_c, 0, 50, 28
1, 114315, Control_c, 0, 64, 90
1, 114390, Control_c, 0, 64, 88
1, 114452, Note_on_c, 0, 50, 58
1, 114453, Note_on_c, 0, 71, 67
1, 114464, Control_c, 0, 64, 85
1, 114503, Control_c, 0, 64, 83
1, 114539, Control_c, 0, 64, 80
1, 114577, Control_c, 0, 64, 78
1, 114614, Control_c, 0, 64, 75
1, 114652, Control_c, 0, 64, 72
1, 114662, Note_off_c, 0, 47, 37
1, 114662, Note_off_c, 0, 66, 38
1, 114662, Poly_aftertouch_c, 0, 47, 0
1, 114670, Control_c, 0, 64, 70
1, 114708, Control_c, 0, 64, 68
1, 114762, Control_c, 0, 64, 67
1, 114768, Note_on_c, 0, 54, 65
1, 114771, Note_on_c, 0, 74, 71
1, 114783, Control_c, 0, 64, 66
1, 114801, Control_c, 0, 64, 65
1, 114820, Control_c, 0, 64, 64
1, 114838, Control_c, 0, 64, 63
1, 114858, Control_c, 0, 64, 61
1, 114875, Control_c, 0, 64, 60
1, 114903, Note_off_c, 0, 50, 58
1, 114913, Control_c, 0, 64, 57
1, 114950, Control_c, 0, 64, 55
1, 114955, Note_off_c, 0, 71, 53
1, 114988, Control_c, 0, 64, 52
1, 115007, Control_c, 0, 64, 50
1, 115025, Control_c, 0, 64, 48
1, 115045, Control_c, 0, 64, 42
1, 115064, Control_c, 0, 64, 37
1, 115082, Control_c, 0, 64, 33
1, 115101, Control_c, 0, 64, 29
1, 115105, Note_on_c, 0, 59, 65
1, 115105, Note_on_c, 0, 78, 75
1, 115119, Control_c, 0, 64, 25
1, 115137, Control_c, 0, 64, 20
1, 115157, Control_c, 0, 64, 14
1, 115160, Note_off_c, 0, 74, 61
1, 115175, Control_c, 0, 64, 9
1, 115197, Note_off_c, 0, 54, 58
1, 115287, Control_c, 0, 64, 18
1, 115307, Control_c, 0, 64, 27
1, 115325, Control_c, 0, 64, 38
1, 115343, Control_c, 0, 64, 51
1, 115362, Control_c, 0, 64, 63
1, 115381, Control_c, 0, 64, 71
1, 115400, Control_c, 0, 64, 78
1, 115418, Control_c, 0, 64, 86
1, 115434, Note_on_c, 0, 74, 77
1, 115437, Control_c, 0, 64, 97
1, 115457, Control_c, 0, 64, 106
1, 115475, Control_c, 0, 64, 112
1, 115493, Control_c, 0, 64, 116
1, 115531, Control_c, 0, 64, 122
1, 115560, Note_off_c, 0, 78, 59
1, 115680, Control_c, 0, 64, 116
1, 115718, Control_c, 0, 64, 109
1, 115736, Control_c, 0, 64, 103
1, 115754, Note_on_c, 0, 51, 64
1, 115754, Control_c, 0, 64, 96
1, 115760, Note_on_c, 0, 54, 68
1, 115774, Control_c, 0, 64, 88
1, 115778, Poly_aftertouch_c, 0, 53, 0
1, 115793, Control_c, 0, 64, 80
1, 115795, Note_on_c, 0, 72, 68
1, 115811, Control_c, 0, 64, 73
1, 115830, Control_c, 0, 64, 67
1, 115839, Note_off_c, 0, 59, 53
1, 115839, Poly_aftertouch_c, 0, 59, 0
1, 115848, Control_c, 0, 64, 62
1, 115849, Note_off_c, 0, 74, 57
1, 115868, Control_c, 0, 64, 59
1, 115885, Control_c, 0, 64, 55
1, 115905, Control_c, 0, 64, 51
1, 115923, Control_c, 0, 64, 47
1, 115941, Control_c, 0, 64, 44
1, 115980, Control_c, 0, 64, 48
1, 115998, Control_c, 0, 64, 56
1, 116016, Control_c, 0, 64, 65
1, 116035, Control_c, 0, 64, 73
1, 116054, Control_c, 0, 64, 83
1, 116073, Control_c, 0, 64, 95
1, 116091, Control_c, 0, 64, 110
1, 116111, Control_c, 0, 64, 124
1, 116126, Note_on_c, 0, 81, 82
1, 116178, Note_off_c, 0, 51, 58
1, 116307, Note_off_c, 0, 72, 54
1, 116466, Control_c, 0, 64, 119
1, 116483, Control_c, 0, 64, 111
1, 116503, Control_c, 0, 64, 102
1, 116505, Note_on_c, 0, 61, 76
1, 116523, Control_c, 0, 64, 94
1, 116532, Note_on_c, 0, 52, 58
1, 116540, Control_c, 0, 64, 86
1, 116559, Control_c, 0, 64, 78
1, 116568, Note_on_c, 0, 80, 72
1, 116575, Note_off_c, 0, 54, 39
1, 116579, Control_c, 0, 64, 70
1, 116596, Control_c, 0, 64, 64
1, 116614, Control_c, 0, 64, 60
1, 116632, Note_off_c, 0, 81, 38
1, 116633, Control_c, 0, 64, 57
1, 116652, Control_c, 0, 64, 52
1, 116672, Control_c, 0, 64, 47
1, 116689, Control_c, 0, 64, 41
1, 116709, Control_c, 0, 64, 36
1, 116802, Control_c, 0, 64, 47
1, 116820, Control_c, 0, 64, 57
1, 116840, Control_c, 0, 64, 67
1, 116858, Control_c, 0, 64, 75
1, 116877, Control_c, 0, 64, 83
1, 116897, Control_c, 0, 64, 93
1, 116903, Note_on_c, 0, 76, 73
1, 116914, Control_c, 0, 64, 106
1, 116933, Control_c, 0, 64, 117
1, 116947, Note_off_c, 0, 80, 61
1, 116951, Control_c, 0, 64, 126
1, 117195, Control_c, 0, 64, 117
1, 117212, Control_c, 0, 64, 106
1, 117218, Note_on_c, 0, 56, 64
1, 117219, Note_on_c, 0, 73, 72
1, 117232, Control_c, 0, 64, 94
1, 117250, Control_c, 0, 64, 82
1, 117270, Control_c, 0, 64, 72
1, 117288, Control_c, 0, 64, 64
1, 117292, Note_off_c, 0, 61, 44
1, 117292, Poly_aftertouch_c, 0, 61, 0
1, 117306, Control_c, 0, 64, 62
1, 117326, Control_c, 0, 64, 65
1, 117344, Control_c, 0, 64, 68
1, 117363, Control_c, 0, 64, 73
1, 117381, Control_c, 0, 64, 79
1, 117401, Control_c, 0, 64, 87
1, 117419, Control_c, 0, 64, 97
1, 117437, Control_c, 0, 64, 108
1, 117457, Control_c, 0, 64, 117
1, 117475, Control_c, 0, 64, 123
1, 117493, Control_c, 0, 64, 127
1, 117527, Note_off_c, 0, 52, 58
1, 117534, Note_off_c, 0, 76, 24
1, 117543, Note_on_c, 0, 72, 72
1, 117592, Note_off_c, 0, 73, 60
1, 117774, Control_c, 0, 64, 123
1, 117812, Control_c, 0, 64, 119
1, 117849, Control_c, 0, 64, 114
1, 117868, Control_c, 0, 64, 109
1, 117886, Control_c, 0, 64, 102
1, 117888, Note_off_c, 0, 72, 59
1, 117905, Note_on_c, 0, 73, 65
1, 117905, Control_c, 0, 64, 93
1, 117915, Note_on_c, 0, 52, 54
1, 117924, Control_c, 0, 64, 81
1, 117943, Control_c, 0, 64, 69
1, 117948, Note_off_c, 0, 56, 42
1, 117948, Poly_aftertouch_c, 0, 56, 0
1, 117961, Control_c, 0, 64, 55
1, 117979, Control_c, 0, 64, 44
1, 118000, Control_c, 0, 64, 33
1, 118017, Control_c, 0, 64, 29
1, 118036, Control_c, 0, 64, 34
1, 118054, Control_c, 0, 64, 48
1, 118074, Control_c, 0, 64, 64
1, 118091, Control_c, 0, 64, 80
1, 118111, Control_c, 0, 64, 96
1, 118130, Control_c, 0, 64, 112
1, 118135, Note_off_c, 0, 73, 51
1, 118148, Control_c, 0, 64, 124
1, 118223, Note_on_c, 0, 68, 69
1, 118232, Note_on_c, 0, 49, 58
1, 118307, Note_off_c, 0, 52, 37
1, 118541, Note_on_c, 0, 52, 69
1, 118544, Note_on_c, 0, 73, 76
1, 118559, Control_c, 0, 64, 119
1, 118597, Control_c, 0, 64, 114
1, 118635, Control_c, 0, 64, 108
1, 118672, Control_c, 0, 64, 101
1, 118709, Control_c, 0, 64, 94
1, 118712, Note_off_c, 0, 49, 30
1, 118712, Poly_aftertouch_c, 0, 49, 0
1, 118748, Control_c, 0, 64, 87
1, 118764, Control_c, 0, 64, 83
1, 118769, Note_off_c, 0, 68, 33
1, 118769, Poly_aftertouch_c, 0, 68, 0
1, 118784, Control_c, 0, 64, 79
1, 118803, Control_c, 0, 64, 75
1, 118822, Control_c, 0, 64, 72
1, 118859, Control_c, 0, 64, 70
1, 118867, Note_on_c, 0, 56, 75
1, 118874, Note_on_c, 0, 76, 73
1, 118896, Control_c, 0, 64, 68
1, 118914, Control_c, 0, 64, 67
1, 118934, Control_c, 0, 64, 65
1, 118952, Control_c, 0, 64, 63
1, 118967, Note_off_c, 0, 52, 56
1, 118970, Control_c, 0, 64, 62
1, 118989, Control_c, 0, 64, 60
1, 119027, Control_c, 0, 64, 57
1, 119064, Control_c, 0, 64, 54
1, 119072, Note_off_c, 0, 73, 39
1, 119084, Control_c, 0, 64, 52
1, 119121, Control_c, 0, 64, 49
1, 119159, Control_c, 0, 64, 44
1, 119176, Control_c, 0, 64, 41
1, 119196, Control_c, 0, 64, 37
1, 119212, Note_on_c, 0, 80, 77
1, 119214, Control_c, 0, 64, 32
1, 119217, Note_on_c, 0, 61, 76
1, 119232, Control_c, 0, 64, 27
1, 119252, Control_c, 0, 64, 21
1, 119270, Control_c, 0, 64, 14
1, 119306, Note_off_c, 0, 76, 53
1, 119306, Control_c, 0, 64, 0
1, 119354, Note_off_c, 0, 56, 55
1, 119354, Poly_aftertouch_c, 0, 56, 0
1, 119438, Control_c, 0, 64, 11
1, 119456, Control_c, 0, 64, 28
1, 119476, Control_c, 0, 64, 47
1, 119495, Control_c, 0, 64, 64
1, 119513, Control_c, 0, 64, 76
1, 119532, Control_c, 0, 64, 87
1, 119539, Note_on_c, 0, 77, 79
1, 119551, Control_c, 0, 64, 100
1, 119571, Control_c, 0, 64, 113
1, 119588, Control_c, 0, 64, 125
1, 119626, Note_off_c, 0, 80, 57
1, 119832, Control_c, 0, 64, 118
1, 119846, Note_off_c, 0, 77, 57
1, 119848, Control_c, 0, 64, 109
1, 119864, Note_on_c, 0, 56, 72
1, 119868, Note_on_c, 0, 74, 74
1, 119868, Control_c, 0, 64, 100
1, 119873, Note_on_c, 0, 53, 62
1, 119887, Control_c, 0, 64, 90
1, 119902, Note_off_c, 0, 61, 48
1, 119902, Poly_aftertouch_c, 0, 61, 0
1, 119906, Control_c, 0, 64, 78
1, 119925, Control_c, 0, 64, 67
1, 119943, Control_c, 0, 64, 57
1, 119963, Control_c, 0, 64, 54
1, 120018, Control_c, 0, 64, 58
1, 120036, Control_c, 0, 64, 63
1, 120055, Control_c, 0, 64, 70
1, 120075, Control_c, 0, 64, 77
1, 120093, Control_c, 0, 64, 89
1, 120112, Control_c, 0, 64, 105
1, 120130, Control_c, 0, 64, 121
1, 120149, Control_c, 0, 64, 127
1, 120225, Note_on_c, 0, 83, 83
1, 120332, Note_off_c, 0, 74, 36
1, 120523, Control_c, 0, 64, 121
1, 120542, Control_c, 0, 64, 112
1, 120560, Control_c, 0, 64, 103
1, 120580, Control_c, 0, 64, 91
1, 120598, Control_c, 0, 64, 78
1, 120605, Note_off_c, 0, 53, 36
1, 120617, Note_on_c, 0, 54, 64
1, 120617, Note_on_c, 0, 81, 78
1, 120617, Control_c, 0, 64, 64
1, 120636, Control_c, 0, 64, 53
1, 120653, Control_c, 0, 64, 46
1, 120673, Control_c, 0, 64, 38
1, 120681, Note_off_c, 0, 83, 57
1, 120691, Control_c, 0, 64, 29
1, 120710, Control_c, 0, 64, 20
1, 120713, Note_off_c, 0, 56, 56
1, 120713, Poly_aftertouch_c, 0, 56, 0
1, 120728, Control_c, 0, 64, 14
1, 120803, Control_c, 0, 64, 29
1, 120823, Control_c, 0, 64, 45
1, 120841, Control_c, 0, 64, 65
1, 120860, Control_c, 0, 64, 81
1, 120878, Control_c, 0, 64, 96
1, 120898, Control_c, 0, 64, 110
1, 120901, Note_off_c, 0, 81, 60
1, 120915, Control_c, 0, 64, 121
1, 120934, Control_c, 0, 64, 127
1, 121079, Note_on_c, 0, 78, 83
1, 121401, Control_c, 0, 64, 120
1, 121407, Note_on_c, 0, 56, 75
1, 121420, Control_c, 0, 64, 113
1, 121440, Control_c, 0, 64, 103
1, 121457, Control_c, 0, 64, 89
1, 121477, Control_c, 0, 64, 74
1, 121495, Control_c, 0, 64, 58
1, 121514, Control_c, 0, 64, 47
1, 121552, Control_c, 0, 64, 50
1, 121567, Note_off_c, 0, 78, 54
1, 121571, Control_c, 0, 64, 57
1, 121589, Control_c, 0, 64, 64
1, 121607, Control_c, 0, 64, 72
1, 121626, Control_c, 0, 64, 80
1, 121646, Control_c, 0, 64, 91
1, 121663, Control_c, 0, 64, 101
1, 121682, Control_c, 0, 64, 110
1, 121701, Control_c, 0, 64, 115
1, 121738, Control_c, 0, 64, 121
1, 121739, Note_on_c, 0, 77, 84
1, 121963, Control_c, 0, 64, 115
1, 122000, Control_c, 0, 64, 106
1, 122020, Control_c, 0, 64, 99
1, 122038, Control_c, 0, 64, 90
1, 122042, Note_off_c, 0, 77, 42
1, 122055, Control_c, 0, 64, 78
1, 122072, Note_on_c, 0, 57, 62
1, 122074, Control_c, 0, 64, 65
1, 122077, Note_on_c, 0, 78, 78
1, 122093, Control_c, 0, 64, 52
1, 122096, Poly_aftertouch_c, 0, 81, 0
1, 122113, Control_c, 0, 64, 43
1, 122131, Control_c, 0, 64, 35
1, 122150, Control_c, 0, 64, 31
1, 122213, Note_off_c, 0, 56, 46
1, 122213, Poly_aftertouch_c, 0, 56, 0
1, 122225, Control_c, 0, 64, 40
1, 122243, Control_c, 0, 64, 49
1, 122262, Control_c, 0, 64, 60
1, 122280, Control_c, 0, 64, 71
1, 122300, Control_c, 0, 64, 79
1, 122319, Control_c, 0, 64, 87
1, 122336, Control_c, 0, 64, 97
1, 122356, Control_c, 0, 64, 105
1, 122374, Control_c, 0, 64, 112
1, 122388, Note_off_c, 0, 78, 63
1, 122392, Control_c, 0, 64, 117
1, 122411, Control_c, 0, 64, 121
1, 122430, Control_c, 0, 64, 125
1, 122453, Note_on_c, 0, 74, 79
1, 122693, Control_c, 0, 64, 121
1, 122729, Control_c, 0, 64, 113
1, 122748, Control_c, 0, 64, 108
1, 122766, Control_c, 0, 64, 101
1, 122786, Control_c, 0, 64, 93
1, 122790, Note_on_c, 0, 56, 77
1, 122804, Control_c, 0, 64, 84
1, 122822, Note_on_c, 0, 52, 55
1, 122823, Control_c, 0, 64, 72
1, 122843, Control_c, 0, 64, 61
1, 122844, Note_off_c, 0, 54, 54
1, 122860, Control_c, 0, 64, 54
1, 122878, Control_c, 0, 64, 50
1, 122898, Control_c, 0, 64, 48
1, 122908, Note_off_c, 0, 57, 43
1, 122908, Poly_aftertouch_c, 0, 57, 0
1, 122935, Control_c, 0, 64, 44
1, 122953, Control_c, 0, 64, 39
1, 122973, Control_c, 0, 64, 35
1, 123029, Control_c, 0, 64, 40
1, 123049, Control_c, 0, 64, 45
1, 123065, Control_c, 0, 64, 52
1, 123085, Control_c, 0, 64, 60
1, 123103, Control_c, 0, 64, 66
1, 123122, Control_c, 0, 64, 72
1, 123141, Control_c, 0, 64, 76
1, 123142, Note_on_c, 0, 73, 80
1, 123159, Control_c, 0, 64, 82
1, 123179, Control_c, 0, 64, 90
1, 123197, Control_c, 0, 64, 99
1, 123199, Note_off_c, 0, 74, 54
1, 123215, Control_c, 0, 64, 107
1, 123235, Control_c, 0, 64, 113
1, 123253, Control_c, 0, 64, 118
1, 123271, Control_c, 0, 64, 122
1, 123309, Control_c, 0, 64, 127
1, 123350, Note_off_c, 0, 52, 46
1, 123384, Note_off_c, 0, 73, 56
1, 123421, Control_c, 0, 64, 122
1, 123459, Control_c, 0, 64, 114
1, 123478, Control_c, 0, 64, 109
1, 123496, Control_c, 0, 64, 103
1, 123508, Note_on_c, 0, 54, 69
1, 123515, Control_c, 0, 64, 95
1, 123517, Note_on_c, 0, 51, 61
1, 123521, Note_on_c, 0, 73, 75
1, 123533, Control_c, 0, 64, 86
1, 123553, Control_c, 0, 64, 78
1, 123571, Control_c, 0, 64, 70
1, 123590, Control_c, 0, 64, 65
1, 123608, Control_c, 0, 64, 61
1, 123620, Note_off_c, 0, 56, 46
1, 123620, Poly_aftertouch_c, 0, 56, 0
1, 123626, Control_c, 0, 64, 60
1, 123646, Control_c, 0, 64, 57
1, 123664, Control_c, 0, 64, 54
1, 123683, Control_c, 0, 64, 50
1, 123702, Control_c, 0, 64, 44
1, 123721, Control_c, 0, 64, 38
1, 123739, Control_c, 0, 64, 32
1, 123814, Control_c, 0, 64, 41
1, 123832, Control_c, 0, 64, 54
1, 123853, Control_c, 0, 64, 67
1, 123869, Control_c, 0, 64, 76
1, 123889, Control_c, 0, 64, 84
1, 123890, Note_off_c, 0, 73, 56
1, 123908, Control_c, 0, 64, 91
1, 123926, Control_c, 0, 64, 96
1, 123940, Note_on_c, 0, 72, 77
1, 123983, Control_c, 0, 64, 87
1, 124000, Control_c, 0, 64, 72
1, 124019, Control_c, 0, 64, 54
1, 124039, Control_c, 0, 64, 33
1, 124057, Control_c, 0, 64, 22
1, 124076, Control_c, 0, 64, 34
1, 124094, Control_c, 0, 64, 52
1, 124113, Control_c, 0, 64, 70
1, 124131, Control_c, 0, 64, 84
1, 124150, Control_c, 0, 64, 100
1, 124169, Control_c, 0, 64, 113
1, 124184, Note_off_c, 0, 51, 55
1, 124187, Control_c, 0, 64, 120
1, 124300, Control_c, 0, 64, 112
1, 124319, Control_c, 0, 64, 105
1, 124328, Note_on_c, 0, 56, 70
1, 124337, Control_c, 0, 64, 98
1, 124348, Note_on_c, 0, 50, 57
1, 124355, Control_c, 0, 64, 92
1, 124375, Control_c, 0, 64, 87
1, 124393, Control_c, 0, 64, 83
1, 124402, Note_off_c, 0, 54, 51
1, 124412, Control_c, 0, 64, 78
1, 124431, Control_c, 0, 64, 73
1, 124449, Control_c, 0, 64, 68
1, 124468, Control_c, 0, 64, 64
1, 124486, Control_c, 0, 64, 61
1, 124506, Control_c, 0, 64, 58
1, 124525, Control_c, 0, 64, 55
1, 124542, Control_c, 0, 64, 50
1, 124562, Control_c, 0, 64, 43
1, 124580, Control_c, 0, 64, 33
1, 124599, Control_c, 0, 64, 21
1, 124617, Control_c, 0, 64, 12
1, 124637, Control_c, 0, 64, 8
1, 124692, Control_c, 0, 64, 12
1, 124713, Control_c, 0, 64, 19
1, 124730, Control_c, 0, 64, 26
1, 124767, Control_c, 0, 64, 33
1, 124773, Note_on_c, 0, 78, 80
1, 124787, Control_c, 0, 64, 38
1, 124804, Control_c, 0, 64, 47
1, 124824, Control_c, 0, 64, 57
1, 124842, Control_c, 0, 64, 66
1, 124862, Control_c, 0, 64, 70
1, 124879, Control_c, 0, 64, 73
1, 124898, Control_c, 0, 64, 77
1, 124918, Control_c, 0, 64, 81
1, 124936, Control_c, 0, 64, 88
1, 124954, Control_c, 0, 64, 96
1, 124974, Control_c, 0, 64, 104
1, 124992, Control_c, 0, 64, 110
1, 124998, Note_off_c, 0, 72, 47
1, 125010, Control_c, 0, 64, 116
1, 125029, Control_c, 0, 64, 121
1, 125044, Note_off_c, 0, 50, 57
1, 125048, Control_c, 0, 64, 127
1, 125200, Note_off_c, 0, 78, 55
1, 125366, Control_c, 0, 64, 123
1, 125385, Control_c, 0, 64, 117
1, 125396, Note_on_c, 0, 78, 75
1, 125399, Note_on_c, 0, 73, 66
1, 125404, Note_on_c, 0, 57, 63
1, 125404, Control_c, 0, 64, 109
1, 125422, Note_on_c, 0, 49, 55
1, 125422, Control_c, 0, 64, 100
1, 125441, Control_c, 0, 64, 91
1, 125459, Control_c, 0, 64, 83
1, 125478, Control_c, 0, 64, 73
1, 125497, Control_c, 0, 64, 63
1, 125515, Control_c, 0, 64, 55
1, 125530, Note_off_c, 0, 56, 46
1, 125530, Poly_aftertouch_c, 0, 56, 0
1, 125533, Control_c, 0, 64, 48
1, 125552, Control_c, 0, 64, 39
1, 125572, Control_c, 0, 64, 25
1, 125609, Control_c, 0, 64, 0
1, 125815, Control_c, 0, 64, 15
1, 125834, Control_c, 0, 64, 23
1, 125852, Control_c, 0, 64, 29
1, 125871, Control_c, 0, 64, 36
1, 125889, Control_c, 0, 64, 44
1, 125909, Control_c, 0, 64, 53
1, 125927, Control_c, 0, 64, 60
1, 125945, Control_c, 0, 64, 65
1, 125964, Control_c, 0, 64, 68
1, 125982, Control_c, 0, 64, 70
1, 126003, Control_c, 0, 64, 72
1, 126019, Control_c, 0, 64, 74
1, 126039, Control_c, 0, 64, 78
1, 126058, Control_c, 0, 64, 82
1, 126077, Control_c, 0, 64, 86
1, 126095, Control_c, 0, 64, 91
1, 126114, Control_c, 0, 64, 96
1, 126133, Control_c, 0, 64, 101
1, 126151, Control_c, 0, 64, 105
1, 126189, Control_c, 0, 64, 111
1, 126225, Control_c, 0, 64, 116
1, 126263, Control_c, 0, 64, 121
1, 126321, Control_c, 0, 64, 126
1, 126545, Control_c, 0, 64, 121
1, 126555, Poly_aftertouch_c, 0, 78, 22
1, 126561, Control_c, 0, 64, 117
1, 126581, Note_off_c, 0, 78, 28
1, 126581, Poly_aftertouch_c, 0, 78, 0
1, 126581, Control_c, 0, 64, 112
1, 126600, Control_c, 0, 64, 106
1, 126618, Control_c, 0, 64, 99
1, 126636, Control_c, 0, 64, 92
1, 126644, Note_on_c, 0, 56, 55
1, 126649, Note_on_c, 0, 77, 57
1, 126655, Control_c, 0, 64, 86
1, 126675, Control_c, 0, 64, 81
1, 126693, Control_c, 0, 64, 74
1, 126711, Control_c, 0, 64, 67
1, 126732, Control_c, 0, 64, 60
1, 126740, Note_off_c, 0, 57, 49
1, 126740, Poly_aftertouch_c, 0, 57, 0
1, 126749, Control_c, 0, 64, 55
1, 126768, Control_c, 0, 64, 50
1, 126787, Control_c, 0, 64, 46
1, 126806, Control_c, 0, 64, 42
1, 126843, Control_c, 0, 64, 36
1, 127273, Control_c, 0, 64, 40
1, 127310, Control_c, 0, 64, 43
1, 127348, Control_c, 0, 64, 46
1, 127366, Control_c, 0, 64, 48
1, 127385, Control_c, 0, 64, 51
1, 127405, Control_c, 0, 64, 53
1, 127422, Control_c, 0, 64, 55
1, 127460, Control_c, 0, 64, 58
1, 127478, Control_c, 0, 64, 60
1, 127497, Control_c, 0, 64, 61
1, 127515, Control_c, 0, 64, 64
1, 127535, Control_c, 0, 64, 65
1, 127554, Control_c, 0, 64, 67
1, 127572, Control_c, 0, 64, 68
1, 127611, Control_c, 0, 64, 70
1, 127628, Control_c, 0, 64, 72
1, 127665, Control_c, 0, 64, 75
1, 127702, Control_c, 0, 64, 78
1, 127741, Control_c, 0, 64, 81
1, 127759, Control_c, 0, 64, 83
1, 127797, Control_c, 0, 64, 86
1, 127853, Control_c, 0, 64, 92
1, 127908, Control_c, 0, 64, 97
1, 127947, Control_c, 0, 64, 102
1, 128736, Note_off_c, 0, 73, 40
1, 128750, Control_c, 0, 64, 98
1, 128766, Note_off_c, 0, 77, 30
1, 128800, Note_off_c, 0, 56, 58
1, 128800, Poly_aftertouch_c, 0, 56, 0
1, 128802, Note_off_c, 0, 49, 36
1, 128802, Poly_aftertouch_c, 0, 49, 0
1, 128899, Control_c, 0, 64, 94
1, 128957, Control_c, 0, 64, 89
1, 128994, Control_c, 0, 64, 86
1, 129031, Control_c, 0, 64, 83
1, 129068, Control_c, 0, 64, 80
1, 129087, Control_c, 0, 64, 77
1, 129106, Control_c, 0, 64, 74
1, 129124, Control_c, 0, 64, 71
1, 129143, Control_c, 0, 64, 69
1, 129162, Control_c, 0, 64, 68
1, 129199, Control_c, 0, 64, 67
1, 129236, Control_c, 0, 64, 66
1, 129274, Control_c, 0, 64, 65
1, 129312, Control_c, 0, 64, 63
1, 129330, Control_c, 0, 64, 62
1, 129349, Control_c, 0, 64, 61
1, 129367, Control_c, 0, 64, 60
1, 129460, Control_c, 0, 64, 58
1, 129592, Control_c, 0, 64, 56
1, 129666, Control_c, 0, 64, 54
1, 129704, Control_c, 0, 64, 52
1, 129761, Control_c, 0, 64, 50
1, 129906, Note_on_c, 0, 47, 42
1, 130002, Control_c, 0, 64, 48
1, 130152, Control_c, 0, 64, 46
1, 130190, Control_c, 0, 64, 43
1, 130245, Control_c, 0, 64, 41
1, 130261, Note_off_c, 0, 47, 40
1, 130261, Poly_aftertouch_c, 0, 47, 0
1, 130272, Note_on_c, 0, 49, 43
1, 130507, Note_off_c, 0, 49, 44
1, 130507, Poly_aftertouch_c, 0, 49, 0
1, 130522, Note_on_c, 0, 50, 52
1, 130525, Control_c, 0, 64, 37
1, 130719, Note_off_c, 0, 50, 52
1, 130742, Note_on_c, 0, 49, 59
1, 130826, Control_c, 0, 64, 32
1, 130919, Control_c, 0, 64, 27
1, 130939, Note_off_c, 0, 49, 52
1, 130939, Poly_aftertouch_c, 0, 49, 0
1, 130955, Note_on_c, 0, 47, 61
1, 131136, Note_off_c, 0, 47, 50
1, 131136, Poly_aftertouch_c, 0, 47, 0
1, 131173, Note_on_c, 0, 45, 56
1, 131293, Control_c, 0, 64, 23
1, 131338, Note_off_c, 0, 45, 58
1, 131338, Poly_aftertouch_c, 0, 45, 0
1, 131389, Note_on_c, 0, 47, 52
1, 131574, Control_c, 0, 64, 19
1, 131610, Note_on_c, 0, 45, 48
1, 131635, Note_off_c, 0, 47, 36
1, 131635, Poly_aftertouch_c, 0, 47, 0
1, 131821, Note_off_c, 0, 45, 53
1, 131821, Poly_aftertouch_c, 0, 45, 0
1, 131844, Note_on_c, 0, 44, 45
1, 131873, Control_c, 0, 64, 15
1, 132129, Note_on_c, 0, 78, 61
1, 132137, Note_on_c, 0, 42, 36
1, 132161, Note_off_c, 0, 44, 37
1, 132172, Control_c, 0, 64, 19
1, 132209, Control_c, 0, 64, 23
1, 132247, Control_c, 0, 64, 30
1, 132284, Control_c, 0, 64, 37
1, 132303, Control_c, 0, 64, 42
1, 132322, Control_c, 0, 64, 51
1, 132341, Control_c, 0, 64, 60
1, 132359, Control_c, 0, 64, 65
1, 132379, Control_c, 0, 64, 68
1, 132396, Control_c, 0, 64, 71
1, 132415, Control_c, 0, 64, 75
1, 132434, Control_c, 0, 64, 79
1, 132453, Control_c, 0, 64, 85
1, 132471, Note_off_c, 0, 42, 53
1, 132471, Control_c, 0, 64, 92
1, 132490, Control_c, 0, 64, 99
1, 132508, Control_c, 0, 64, 104
1, 132517, Note_off_c, 0, 78, 40
1, 132517, Poly_aftertouch_c, 0, 78, 0
1, 132527, Control_c, 0, 64, 110
1, 132546, Control_c, 0, 64, 115
1, 132565, Control_c, 0, 64, 119
1, 132602, Control_c, 0, 64, 125
1, 132846, Control_c, 0, 64, 119
1, 132882, Control_c, 0, 64, 114
1, 132898, Note_on_c, 0, 73, 64
1, 132907, Note_on_c, 0, 54, 32
1, 132914, Note_on_c, 0, 57, 41
1, 132919, Control_c, 0, 64, 109
1, 132957, Control_c, 0, 64, 103
1, 132976, Control_c, 0, 64, 98
1, 132995, Control_c, 0, 64, 93
1, 133013, Control_c, 0, 64, 88
1, 133032, Control_c, 0, 64, 84
1, 133051, Control_c, 0, 64, 80
1, 133070, Control_c, 0, 64, 76
1, 133088, Control_c, 0, 64, 73
1, 133107, Control_c, 0, 64, 70
1, 133163, Control_c, 0, 64, 68
1, 133219, Control_c, 0, 64, 66
1, 133238, Control_c, 0, 64, 65
1, 133256, Control_c, 0, 64, 64
1, 133275, Control_c, 0, 64, 63
1, 133293, Control_c, 0, 64, 61
1, 133313, Control_c, 0, 64, 60
1, 133350, Control_c, 0, 64, 55
1, 133369, Control_c, 0, 64, 53
1, 133388, Control_c, 0, 64, 51
1, 133426, Control_c, 0, 64, 53
1, 133443, Control_c, 0, 64, 56
1, 133462, Control_c, 0, 64, 59
1, 133480, Control_c, 0, 64, 62
1, 133500, Control_c, 0, 64, 64
1, 133518, Control_c, 0, 64, 67
1, 133538, Control_c, 0, 64, 70
1, 133556, Control_c, 0, 64, 72
1, 133575, Control_c, 0, 64, 75
1, 133594, Control_c, 0, 64, 78
1, 133607, Note_on_c, 0, 61, 51
1, 133611, Control_c, 0, 64, 82
1, 133631, Control_c, 0, 64, 85
1, 133667, Control_c, 0, 64, 91
1, 133724, Control_c, 0, 64, 97
1, 133755, Note_off_c, 0, 73, 25
1, 133781, Control_c, 0, 64, 101
1, 134173, Control_c, 0, 64, 97
1, 134248, Control_c, 0, 64, 92
1, 134284, Control_c, 0, 64, 85
1, 134296, Note_on_c, 0, 69, 56
1, 134304, Control_c, 0, 64, 82
1, 134312, Note_on_c, 0, 66, 46
1, 134323, Control_c, 0, 64, 79
1, 134359, Control_c, 0, 64, 76
1, 134378, Control_c, 0, 64, 74
1, 134415, Control_c, 0, 64, 71
1, 134472, Control_c, 0, 64, 69
1, 134497, Note_off_c, 0, 57, 38
1, 134497, Poly_aftertouch_c, 0, 57, 0
1, 134511, Control_c, 0, 64, 68
1, 134547, Control_c, 0, 64, 67
1, 134565, Control_c, 0, 64, 66
1, 134585, Control_c, 0, 64, 65
1, 134603, Control_c, 0, 64, 63
1, 134621, Control_c, 0, 64, 62
1, 134638, Note_on_c, 0, 71, 69
1, 134652, Note_on_c, 0, 56, 50
1, 134658, Control_c, 0, 64, 61
1, 134677, Control_c, 0, 64, 60
1, 134734, Control_c, 0, 64, 58
1, 134745, Note_off_c, 0, 61, 27
1, 134745, Poly_aftertouch_c, 0, 61, 0
1, 134790, Control_c, 0, 64, 56
1, 134809, Note_off_c, 0, 69, 49
1, 134865, Control_c, 0, 64, 54
1, 134902, Control_c, 0, 64, 51
1, 134939, Control_c, 0, 64, 47
1, 134955, Note_off_c, 0, 54, 37
1, 134958, Control_c, 0, 64, 44
1, 134973, Note_on_c, 0, 57, 40
1, 134978, Control_c, 0, 64, 40
1, 134985, Note_on_c, 0, 73, 63
1, 134996, Control_c, 0, 64, 36
1, 135013, Control_c, 0, 64, 32
1, 135033, Control_c, 0, 64, 27
1, 135039, Note_off_c, 0, 71, 55
1, 135052, Control_c, 0, 64, 22
1, 135056, Note_off_c, 0, 56, 37
1, 135056, Poly_aftertouch_c, 0, 56, 0
1, 135071, Control_c, 0, 64, 15
1, 135242, Note_on_c, 0, 71, 63
1, 135273, Note_off_c, 0, 73, 55
1, 135417, Note_off_c, 0, 71, 55
1, 135455, Note_on_c, 0, 69, 58
1, 135515, Note_off_c, 0, 66, 38
1, 135636, Note_off_c, 0, 69, 46
1, 135671, Note_on_c, 0, 65, 38
1, 135673, Note_on_c, 0, 61, 42
1, 135677, Note_on_c, 0, 71, 50
1, 135689, Note_off_c, 0, 57, 37
1, 135689, Poly_aftertouch_c, 0, 57, 0
1, 135840, Note_off_c, 0, 71, 53
1, 135894, Note_on_c, 0, 69, 53
1, 136078, Note_off_c, 0, 69, 48
1, 136099, Control_c, 0, 64, 20
1, 136110, Note_on_c, 0, 68, 48
1, 136117, Control_c, 0, 64, 24
1, 136136, Control_c, 0, 64, 30
1, 136155, Control_c, 0, 64, 40
1, 136173, Control_c, 0, 64, 54
1, 136192, Note_off_c, 0, 65, 56
1, 136192, Control_c, 0, 64, 65
1, 136212, Control_c, 0, 64, 70
1, 136229, Control_c, 0, 64, 74
1, 136248, Control_c, 0, 64, 77
1, 136267, Control_c, 0, 64, 79
1, 136380, Control_c, 0, 64, 76
1, 136390, Note_off_c, 0, 68, 33
1, 136390, Poly_aftertouch_c, 0, 68, 0
1, 136398, Control_c, 0, 64, 74
1, 136409, Note_on_c, 0, 66, 66
1, 136416, Control_c, 0, 64, 71
1, 136437, Note_on_c, 0, 69, 38
1, 136437, Control_c, 0, 64, 68
1, 136441, Note_on_c, 0, 54, 39
1, 136453, Control_c, 0, 64, 64
1, 136474, Control_c, 0, 64, 61
1, 136491, Control_c, 0, 64, 59
1, 136495, Note_off_c, 0, 61, 37
1, 136495, Poly_aftertouch_c, 0, 61, 0
1, 136510, Control_c, 0, 64, 56
1, 136529, Control_c, 0, 64, 54
1, 136548, Control_c, 0, 64, 50
1, 136566, Control_c, 0, 64, 46
1, 136585, Control_c, 0, 64, 42
1, 136697, Control_c, 0, 64, 47
1, 136715, Control_c, 0, 64, 51
1, 136735, Control_c, 0, 64, 56
1, 136752, Note_off_c, 0, 69, 52
1, 136753, Control_c, 0, 64, 61
1, 136772, Control_c, 0, 64, 66
1, 136791, Control_c, 0, 64, 71
1, 136808, Control_c, 0, 64, 76
1, 136811, Note_on_c, 0, 71, 51
1, 136827, Control_c, 0, 64, 80
1, 136848, Control_c, 0, 64, 85
1, 136856, Note_off_c, 0, 66, 52
1, 136865, Control_c, 0, 64, 89
1, 136902, Control_c, 0, 64, 94
1, 137035, Note_off_c, 0, 71, 32
1, 137089, Control_c, 0, 64, 90
1, 137127, Control_c, 0, 64, 87
1, 137148, Control_c, 0, 64, 85
1, 137149, Note_on_c, 0, 61, 66
1, 137163, Control_c, 0, 64, 83
1, 137167, Note_on_c, 0, 69, 43
1, 137183, Control_c, 0, 64, 80
1, 137203, Control_c, 0, 64, 76
1, 137221, Control_c, 0, 64, 72
1, 137239, Control_c, 0, 64, 69
1, 137258, Control_c, 0, 64, 66
1, 137295, Control_c, 0, 64, 65
1, 137333, Control_c, 0, 64, 64
1, 137370, Control_c, 0, 64, 63
1, 137388, Control_c, 0, 64, 62
1, 137426, Control_c, 0, 64, 61
1, 137445, Control_c, 0, 64, 60
1, 137483, Control_c, 0, 64, 56
1, 137491, Note_on_c, 0, 68, 58
1, 137520, Control_c, 0, 64, 52
1, 137538, Control_c, 0, 64, 50
1, 137557, Note_off_c, 0, 69, 50
1, 137557, Control_c, 0, 64, 48
1, 137689, Control_c, 0, 64, 46
1, 137726, Control_c, 0, 64, 44
1, 137782, Control_c, 0, 64, 42
1, 137820, Note_on_c, 0, 69, 57
1, 137858, Note_off_c, 0, 68, 49
1, 137858, Poly_aftertouch_c, 0, 68, 0
1, 137894, Control_c, 0, 64, 40
1, 137987, Control_c, 0, 64, 35
1, 138149, Note_on_c, 0, 73, 59
1, 138293, Note_off_c, 0, 69, 35
1, 138485, Note_on_c, 0, 57, 45
1, 138495, Note_on_c, 0, 78, 62
1, 138712, Note_off_c, 0, 61, 37
1, 138712, Poly_aftertouch_c, 0, 61, 0
1, 138730, Note_off_c, 0, 73, 38
1, 138835, Note_on_c, 0, 59, 58
1, 138836, Note_on_c, 0, 80, 69
1, 138906, Note_off_c, 0, 57, 50
1, 138906, Poly_aftertouch_c, 0, 57, 0
1, 138978, Control_c, 0, 64, 31
1, 139031, Note_off_c, 0, 78, 38
1, 139031, Poly_aftertouch_c, 0, 78, 0
1, 139182, Note_on_c, 0, 61, 54
1, 139188, Note_on_c, 0, 81, 68
1, 139244, Note_off_c, 0, 80, 59
1, 139253, Note_off_c, 0, 59, 53
1, 139253, Poly_aftertouch_c, 0, 59, 0
1, 139442, Note_on_c, 0, 59, 55
1, 139446, Note_on_c, 0, 80, 72
1, 139485, Note_off_c, 0, 81, 59
1, 139500, Note_off_c, 0, 61, 38
1, 139500, Poly_aftertouch_c, 0, 61, 0
1, 139634, Note_off_c, 0, 59, 58
1, 139634, Poly_aftertouch_c, 0, 59, 0
1, 139665, Note_off_c, 0, 80, 56
1, 139665, Note_on_c, 0, 78, 64
1, 139677, Note_on_c, 0, 57, 48
1, 139820, Control_c, 0, 64, 27
1, 139852, Note_off_c, 0, 57, 57
1, 139852, Poly_aftertouch_c, 0, 57, 0
1, 139889, Note_on_c, 0, 80, 62
1, 139896, Note_off_c, 0, 78, 55
1, 139896, Poly_aftertouch_c, 0, 78, 0
1, 139897, Note_on_c, 0, 59, 43
1, 140097, Note_on_c, 0, 78, 54
1, 140110, Note_off_c, 0, 80, 55
1, 140113, Note_on_c, 0, 57, 41
1, 140117, Note_off_c, 0, 59, 34
1, 140117, Poly_aftertouch_c, 0, 59, 0
1, 140119, Control_c, 0, 64, 23
1, 140311, Note_off_c, 0, 78, 56
1, 140311, Poly_aftertouch_c, 0, 78, 0
1, 140317, Note_on_c, 0, 77, 55
1, 140325, Control_c, 0, 64, 19
1, 140326, Note_off_c, 0, 57, 43
1, 140326, Poly_aftertouch_c, 0, 57, 0
1, 140331, Note_on_c, 0, 56, 40
1, 140437, Control_c, 0, 64, 15
1, 140523, Note_off_c, 0, 56, 55
1, 140523, Poly_aftertouch_c, 0, 56, 0
1, 140573, Note_off_c, 0, 77, 52
1, 140576, Note_on_c, 0, 57, 32
1, 140576, Note_on_c, 0, 78, 57
1, 140717, Control_c, 0, 64, 20
1, 140736, Control_c, 0, 64, 25
1, 140755, Control_c, 0, 64, 32
1, 140774, Control_c, 0, 64, 42
1, 140792, Control_c, 0, 64, 54
1, 140811, Control_c, 0, 64, 64
1, 140829, Control_c, 0, 64, 70
1, 140835, Note_off_c, 0, 78, 58
1, 140835, Poly_aftertouch_c, 0, 78, 0
1, 140848, Control_c, 0, 64, 74
1, 140866, Control_c, 0, 64, 78
1, 140886, Control_c, 0, 64, 84
1, 140904, Control_c, 0, 64, 90
1, 140922, Control_c, 0, 64, 95
1, 140942, Control_c, 0, 64, 99
1, 140979, Control_c, 0, 64, 105
1, 141016, Control_c, 0, 64, 109
1, 141055, Note_on_c, 0, 73, 52
1, 141281, Poly_aftertouch_c, 0, 54, 24
1, 141344, Note_off_c, 0, 54, 22
1, 141344, Poly_aftertouch_c, 0, 54, 0
1, 141352, Control_c, 0, 64, 104
1, 141391, Control_c, 0, 64, 96
1, 141409, Control_c, 0, 64, 90
1, 141418, Note_on_c, 0, 59, 41
1, 141428, Control_c, 0, 64, 84
1, 141430, Note_on_c, 0, 56, 39
1, 141446, Control_c, 0, 64, 79
1, 141465, Control_c, 0, 64, 74
1, 141484, Control_c, 0, 64, 69
1, 141503, Control_c, 0, 64, 65
1, 141521, Control_c, 0, 64, 62
1, 141540, Control_c, 0, 64, 59
1, 141544, Note_off_c, 0, 57, 29
1, 141544, Poly_aftertouch_c, 0, 57, 0
1, 141559, Control_c, 0, 64, 57
1, 141577, Control_c, 0, 64, 55
1, 141670, Control_c, 0, 64, 59
1, 141690, Control_c, 0, 64, 61
1, 141710, Control_c, 0, 64, 66
1, 141727, Control_c, 0, 64, 70
1, 141746, Control_c, 0, 64, 75
1, 141764, Control_c, 0, 64, 81
1, 141770, Note_on_c, 0, 77, 57
1, 141784, Control_c, 0, 64, 89
1, 141801, Control_c, 0, 64, 97
1, 141820, Control_c, 0, 64, 103
1, 141828, Poly_aftertouch_c, 0, 73, 24
1, 141840, Control_c, 0, 64, 108
1, 141903, Note_off_c, 0, 73, 33
1, 141903, Poly_aftertouch_c, 0, 73, 0
1, 141977, Note_off_c, 0, 56, 32
1, 141977, Poly_aftertouch_c, 0, 56, 0
1, 142007, Control_c, 0, 64, 103
1, 142027, Control_c, 0, 64, 99
1, 142045, Control_c, 0, 64, 93
1, 142063, Control_c, 0, 64, 86
1, 142082, Control_c, 0, 64, 79
1, 142100, Control_c, 0, 64, 72
1, 142109, Note_on_c, 0, 78, 60
1, 142112, Note_on_c, 0, 61, 38
1, 142118, Note_on_c, 0, 57, 33
1, 142119, Control_c, 0, 64, 66
1, 142126, Note_off_c, 0, 59, 34
1, 142126, Poly_aftertouch_c, 0, 59, 0
1, 142134, Note_off_c, 0, 77, 54
1, 142137, Control_c, 0, 64, 61
1, 142157, Control_c, 0, 64, 55
1, 142176, Control_c, 0, 64, 49
1, 142194, Control_c, 0, 64, 44
1, 142212, Control_c, 0, 64, 40
1, 142268, Control_c, 0, 64, 48
1, 142288, Control_c, 0, 64, 61
1, 142306, Control_c, 0, 64, 73
1, 142325, Control_c, 0, 64, 85
1, 142344, Control_c, 0, 64, 100
1, 142345, Note_off_c, 0, 78, 61
1, 142345, Poly_aftertouch_c, 0, 78, 0
1, 142362, Control_c, 0, 64, 114
1, 142382, Control_c, 0, 64, 125
1, 142493, Note_on_c, 0, 73, 64
1, 142793, Control_c, 0, 64, 115
1, 142811, Control_c, 0, 64, 106
1, 142821, Note_on_c, 0, 56, 48
1, 142822, Note_on_c, 0, 59, 50
1, 142830, Control_c, 0, 64, 97
1, 142849, Control_c, 0, 64, 87
1, 142868, Control_c, 0, 64, 75
1, 142869, Note_off_c, 0, 57, 40
1, 142869, Poly_aftertouch_c, 0, 57, 0
1, 142885, Control_c, 0, 64, 63
1, 142905, Control_c, 0, 64, 55
1, 142923, Control_c, 0, 64, 51
1, 142935, Note_off_c, 0, 61, 40
1, 142935, Poly_aftertouch_c, 0, 61, 0
1, 142998, Control_c, 0, 64, 57
1, 143017, Control_c, 0, 64, 64
1, 143035, Control_c, 0, 64, 72
1, 143055, Control_c, 0, 64, 80
1, 143072, Control_c, 0, 64, 91
1, 143092, Control_c, 0, 64, 103
1, 143111, Control_c, 0, 64, 114
1, 143130, Control_c, 0, 64, 124
1, 143154, Note_on_c, 0, 77, 69
1, 143172, Note_off_c, 0, 59, 55
1, 143172, Poly_aftertouch_c, 0, 59, 0
1, 143250, Note_off_c, 0, 73, 36
1, 143250, Poly_aftertouch_c, 0, 73, 0
1, 143448, Control_c, 0, 64, 114
1, 143466, Control_c, 0, 64, 107
1, 143485, Control_c, 0, 64, 99
1, 143502, Control_c, 0, 64, 92
1, 143509, Note_on_c, 0, 57, 54
1, 143510, Note_on_c, 0, 78, 66
1, 143520, Note_on_c, 0, 54, 50
1, 143522, Control_c, 0, 64, 86
1, 143540, Control_c, 0, 64, 80
1, 143559, Control_c, 0, 64, 75
1, 143579, Control_c, 0, 64, 70
1, 143585, Note_off_c, 0, 56, 29
1, 143585, Poly_aftertouch_c, 0, 56, 0
1, 143597, Control_c, 0, 64, 66
1, 143612, Note_off_c, 0, 77, 49
1, 143615, Control_c, 0, 64, 62
1, 143634, Control_c, 0, 64, 60
1, 143653, Control_c, 0, 64, 56
1, 143671, Control_c, 0, 64, 53
1, 143690, Control_c, 0, 64, 50
1, 143709, Control_c, 0, 64, 48
1, 143785, Control_c, 0, 64, 54
1, 143802, Control_c, 0, 64, 60
1, 143821, Control_c, 0, 64, 66
1, 143840, Control_c, 0, 64, 72
1, 143856, Note_on_c, 0, 74, 71
1, 143859, Control_c, 0, 64, 78
1, 143877, Control_c, 0, 64, 87
1, 143896, Control_c, 0, 64, 96
1, 143915, Control_c, 0, 64, 105
1, 143934, Control_c, 0, 64, 111
1, 143971, Control_c, 0, 64, 115
1, 144086, Note_off_c, 0, 78, 34
1, 144086, Poly_aftertouch_c, 0, 78, 0
1, 144121, Control_c, 0, 64, 109
1, 144139, Control_c, 0, 64, 105
1, 144158, Control_c, 0, 64, 100
1, 144176, Control_c, 0, 64, 92
1, 144181, Note_off_c, 0, 54, 57
1, 144181, Poly_aftertouch_c, 0, 54, 0
1, 144192, Note_on_c, 0, 55, 59
1, 144195, Control_c, 0, 64, 85
1, 144205, Note_on_c, 0, 52, 49
1, 144205, Note_on_c, 0, 73, 63
1, 144213, Control_c, 0, 64, 78
1, 144232, Control_c, 0, 64, 69
1, 144241, Note_off_c, 0, 57, 52
1, 144241, Poly_aftertouch_c, 0, 57, 0
1, 144244, Note_off_c, 0, 74, 61
1, 144251, Control_c, 0, 64, 60
1, 144270, Control_c, 0, 64, 52
1, 144288, Control_c, 0, 64, 47
1, 144309, Control_c, 0, 64, 44
1, 144365, Control_c, 0, 64, 47
1, 144382, Control_c, 0, 64, 51
1, 144401, Control_c, 0, 64, 58
1, 144419, Control_c, 0, 64, 64
1, 144438, Control_c, 0, 64, 70
1, 144457, Control_c, 0, 64, 75
1, 144475, Control_c, 0, 64, 82
1, 144495, Control_c, 0, 64, 90
1, 144513, Control_c, 0, 64, 100
1, 144531, Control_c, 0, 64, 110
1, 144550, Control_c, 0, 64, 119
1, 144561, Note_on_c, 0, 82, 80
1, 144569, Control_c, 0, 64, 126
1, 144663, Note_off_c, 0, 73, 38
1, 144663, Poly_aftertouch_c, 0, 73, 0
1, 144886, Control_c, 0, 64, 118
1, 144906, Control_c, 0, 64, 110
1, 144924, Control_c, 0, 64, 102
1, 144942, Note_on_c, 0, 54, 55
1, 144943, Control_c, 0, 64, 93
1, 144945, Note_on_c, 0, 83, 74
1, 144957, Note_on_c, 0, 50, 52
1, 144962, Control_c, 0, 64, 84
1, 144981, Control_c, 0, 64, 75
1, 144990, Note_off_c, 0, 82, 39
1, 144997, Note_off_c, 0, 52, 39
1, 145000, Control_c, 0, 64, 66
1, 145017, Control_c, 0, 64, 58
1, 145037, Control_c, 0, 64, 51
1, 145055, Control_c, 0, 64, 43
1, 145059, Note_off_c, 0, 55, 25
1, 145075, Control_c, 0, 64, 35
1, 145092, Control_c, 0, 64, 28
1, 145148, Control_c, 0, 64, 42
1, 145167, Control_c, 0, 64, 60
1, 145187, Control_c, 0, 64, 76
1, 145205, Control_c, 0, 64, 90
1, 145223, Control_c, 0, 64, 106
1, 145236, Note_off_c, 0, 83, 62
1, 145242, Control_c, 0, 64, 116
1, 145261, Control_c, 0, 64, 123
1, 145280, Control_c, 0, 64, 127
1, 145393, Note_off_c, 0, 50, 58
1, 145398, Note_on_c, 0, 78, 78
1, 145539, Note_off_c, 0, 54, 35
1, 145539, Poly_aftertouch_c, 0, 54, 0
1, 145726, Note_on_c, 0, 52, 58
1, 145727, Control_c, 0, 64, 110
1, 145732, Note_on_c, 0, 49, 55
1, 145748, Control_c, 0, 64, 91
1, 145765, Control_c, 0, 64, 70
1, 145784, Control_c, 0, 64, 51
1, 145804, Control_c, 0, 64, 37
1, 145821, Control_c, 0, 64, 33
1, 145841, Control_c, 0, 64, 39
1, 145859, Control_c, 0, 64, 51
1, 145879, Control_c, 0, 64, 67
1, 145895, Note_off_c, 0, 78, 51
1, 145895, Poly_aftertouch_c, 0, 78, 0
1, 145895, Control_c, 0, 64, 81
1, 145916, Control_c, 0, 64, 98
1, 145934, Control_c, 0, 64, 118
1, 145952, Control_c, 0, 64, 127
1, 146052, Note_off_c, 0, 49, 51
1, 146052, Poly_aftertouch_c, 0, 49, 0
1, 146060, Note_on_c, 0, 82, 77
1, 146114, Note_off_c, 0, 52, 58
1, 146346, Control_c, 0, 64, 122
1, 146363, Control_c, 0, 64, 109
1, 146384, Control_c, 0, 64, 93
1, 146398, Note_on_c, 0, 54, 60
1, 146403, Control_c, 0, 64, 77
1, 146415, Note_on_c, 0, 50, 51
1, 146415, Note_on_c, 0, 83, 72
1, 146421, Control_c, 0, 64, 59
1, 146439, Control_c, 0, 64, 38
1, 146457, Control_c, 0, 64, 0
1, 146462, Note_off_c, 0, 82, 62
1, 146533, Control_c, 0, 64, 15
1, 146552, Control_c, 0, 64, 44
1, 146569, Control_c, 0, 64, 71
1, 146589, Control_c, 0, 64, 93
1, 146607, Control_c, 0, 64, 125
1, 146741, Note_off_c, 0, 83, 38
1, 146770, Note_off_c, 0, 50, 59
1, 146772, Note_on_c, 0, 78, 80
1, 146882, Note_off_c, 0, 54, 54
1, 146882, Poly_aftertouch_c, 0, 54, 0
1, 147112, Note_on_c, 0, 61, 70
1, 147131, Control_c, 0, 64, 120
1, 147141, Note_on_c, 0, 52, 50
1, 147150, Control_c, 0, 64, 107
1, 147169, Control_c, 0, 64, 93
1, 147187, Control_c, 0, 64, 78
1, 147207, Control_c, 0, 64, 64
1, 147224, Control_c, 0, 64, 52
1, 147243, Control_c, 0, 64, 44
1, 147261, Control_c, 0, 64, 35
1, 147281, Control_c, 0, 64, 30
1, 147337, Control_c, 0, 64, 40
1, 147355, Control_c, 0, 64, 55
1, 147373, Control_c, 0, 64, 72
1, 147393, Control_c, 0, 64, 88
1, 147396, Note_off_c, 0, 78, 38
1, 147396, Poly_aftertouch_c, 0, 78, 0
1, 147411, Control_c, 0, 64, 109
1, 147429, Control_c, 0, 64, 127
1, 147460, Note_on_c, 0, 82, 78
1, 147680, Note_off_c, 0, 61, 58
1, 147680, Poly_aftertouch_c, 0, 61, 0
1, 147737, Note_off_c, 0, 82, 57
1, 147798, Note_on_c, 0, 54, 66
1, 147823, Control_c, 0, 64, 114
1, 147827, Note_on_c, 0, 50, 54
1, 147840, Control_c, 0, 64, 106
1, 147843, Note_on_c, 0, 83, 71
1, 147860, Control_c, 0, 64, 97
1, 147870, Note_off_c, 0, 52, 49
1, 147877, Control_c, 0, 64, 90
1, 147897, Control_c, 0, 64, 82
1, 147917, Control_c, 0, 64, 74
1, 147935, Control_c, 0, 64, 67
1, 147954, Control_c, 0, 64, 60
1, 147971, Control_c, 0, 64, 53
1, 147991, Control_c, 0, 64, 45
1, 148010, Control_c, 0, 64, 37
1, 148029, Control_c, 0, 64, 31
1, 148067, Control_c, 0, 64, 39
1, 148084, Control_c, 0, 64, 52
1, 148098, Note_on_c, 0, 81, 75
1, 148103, Control_c, 0, 64, 69
1, 148122, Control_c, 0, 64, 83
1, 148141, Control_c, 0, 64, 99
1, 148160, Control_c, 0, 64, 111
1, 148178, Control_c, 0, 64, 118
1, 148197, Note_off_c, 0, 83, 52
1, 148308, Control_c, 0, 64, 112
1, 148314, Note_on_c, 0, 80, 75
1, 148346, Control_c, 0, 64, 105
1, 148365, Control_c, 0, 64, 100
1, 148381, Note_off_c, 0, 81, 52
1, 148382, Control_c, 0, 64, 94
1, 148402, Control_c, 0, 64, 89
1, 148422, Control_c, 0, 64, 85
1, 148425, Poly_aftertouch_c, 0, 76, 0
1, 148440, Control_c, 0, 64, 81
1, 148458, Control_c, 0, 64, 78
1, 148477, Control_c, 0, 64, 74
1, 148497, Control_c, 0, 64, 69
1, 148514, Control_c, 0, 64, 65
1, 148519, Poly_aftertouch_c, 0, 52, 127
1, 148532, Control_c, 0, 64, 61
1, 148535, Note_on_c, 0, 49, 53
1, 148542, Note_on_c, 0, 81, 65
1, 148552, Control_c, 0, 64, 58
1, 148570, Control_c, 0, 64, 55
1, 148590, Poly_aftertouch_c, 0, 52, 0
1, 148590, Control_c, 0, 64, 52
1, 148597, Note_off_c, 0, 80, 58
1, 148608, Control_c, 0, 64, 47
1, 148614, Note_off_c, 0, 50, 51
1, 148627, Control_c, 0, 64, 40
1, 148645, Control_c, 0, 64, 33
1, 148664, Control_c, 0, 64, 25
1, 148684, Control_c, 0, 64, 17
1, 148702, Control_c, 0, 64, 12
1, 148773, Note_on_c, 0, 80, 65
1, 148814, Control_c, 0, 64, 25
1, 148829, Note_off_c, 0, 81, 54
1, 148831, Control_c, 0, 64, 39
1, 148851, Control_c, 0, 64, 56
1, 148870, Control_c, 0, 64, 70
1, 148889, Control_c, 0, 64, 79
1, 148907, Control_c, 0, 64, 85
1, 148946, Control_c, 0, 64, 90
1, 149018, Control_c, 0, 64, 87
1, 149022, Note_on_c, 0, 78, 60
1, 149044, Note_off_c, 0, 80, 56
1, 149058, Control_c, 0, 64, 85
1, 149075, Control_c, 0, 64, 83
1, 149095, Control_c, 0, 64, 81
1, 149112, Control_c, 0, 64, 79
1, 149131, Control_c, 0, 64, 76
1, 149150, Control_c, 0, 64, 74
1, 149169, Control_c, 0, 64, 72
1, 149188, Control_c, 0, 64, 70
1, 149206, Control_c, 0, 64, 68
1, 149226, Control_c, 0, 64, 65
1, 149243, Control_c, 0, 64, 62
1, 149263, Control_c, 0, 64, 59
1, 149281, Control_c, 0, 64, 56
1, 149301, Control_c, 0, 64, 53
1, 149318, Control_c, 0, 64, 49
1, 149337, Control_c, 0, 64, 44
1, 149356, Control_c, 0, 64, 36
1, 149374, Control_c, 0, 64, 27
1, 149379, Note_on_c, 0, 47, 39
1, 149386, Note_on_c, 0, 79, 50
1, 149391, Control_c, 0, 64, 16
1, 149399, Note_off_c, 0, 78, 50
1, 149399, Poly_aftertouch_c, 0, 78, 0
1, 149413, Note_on_c, 0, 59, 31
1, 149431, Control_c, 0, 64, 0
1, 149502, Note_off_c, 0, 54, 23
1, 149502, Poly_aftertouch_c, 0, 54, 0
1, 149511, Note_off_c, 0, 49, 38
1, 149511, Poly_aftertouch_c, 0, 49, 0
1, 149562, Control_c, 0, 64, 11
1, 149581, Control_c, 0, 64, 21
1, 149599, Control_c, 0, 64, 29
1, 149618, Control_c, 0, 64, 39
1, 149636, Control_c, 0, 64, 48
1, 149655, Control_c, 0, 64, 57
1, 149673, Control_c, 0, 64, 63
1, 149693, Control_c, 0, 64, 66
1, 149711, Control_c, 0, 64, 68
1, 149730, Control_c, 0, 64, 70
1, 149749, Control_c, 0, 64, 73
1, 149768, Control_c, 0, 64, 76
1, 149774, Note_off_c, 0, 47, 50
1, 149774, Poly_aftertouch_c, 0, 47, 0
1, 149786, Control_c, 0, 64, 79
1, 149804, Control_c, 0, 64, 82
1, 149810, Note_off_c, 0, 79, 27
1, 149824, Control_c, 0, 64, 85
1, 149860, Control_c, 0, 64, 92
1, 149899, Note_off_c, 0, 59, 54
1, 149899, Poly_aftertouch_c, 0, 59, 0
1, 149899, Control_c, 0, 64, 99
1, 149919, Note_on_c, 0, 74, 47
1, 149935, Control_c, 0, 64, 105
1, 149973, Control_c, 0, 64, 110
1, 150010, Control_c, 0, 64, 114
1, 150355, Note_on_c, 0, 62, 29
1, 150367, Note_on_c, 0, 59, 37
1, 150670, Poly_aftertouch_c, 0, 59, 22
1, 150698, Note_off_c, 0, 59, 30
1, 150698, Poly_aftertouch_c, 0, 59, 0
1, 150710, Note_off_c, 0, 62, 35
1, 150717, Note_on_c, 0, 78, 50
1, 150858, Poly_aftertouch_c, 0, 74, 24
1, 150891, Control_c, 0, 64, 110
1, 150912, Note_off_c, 0, 74, 38
1, 150912, Poly_aftertouch_c, 0, 74, 0
1, 150945, Control_c, 0, 64, 104
1, 150983, Control_c, 0, 64, 99
1, 151020, Control_c, 0, 64, 93
1, 151056, Control_c, 0, 64, 87
1, 151061, Note_on_c, 0, 62, 31
1, 151062, Note_on_c, 0, 79, 50
1, 151067, Note_on_c, 0, 59, 29
1, 151074, Control_c, 0, 64, 83
1, 151095, Control_c, 0, 64, 78
1, 151114, Control_c, 0, 64, 74
1, 151132, Control_c, 0, 64, 70
1, 151137, Note_off_c, 0, 78, 38
1, 151137, Poly_aftertouch_c, 0, 78, 0
1, 151150, Control_c, 0, 64, 67
1, 151170, Control_c, 0, 64, 65
1, 151207, Control_c, 0, 64, 64
1, 151245, Control_c, 0, 64, 62
1, 151262, Control_c, 0, 64, 60
1, 151301, Control_c, 0, 64, 58
1, 151337, Control_c, 0, 64, 61
1, 151357, Control_c, 0, 64, 65
1, 151375, Control_c, 0, 64, 70
1, 151394, Control_c, 0, 64, 75
1, 151412, Control_c, 0, 64, 81
1, 151432, Control_c, 0, 64, 88
1, 151437, Note_off_c, 0, 79, 35
1, 151440, Note_on_c, 0, 74, 52
1, 151451, Control_c, 0, 64, 95
1, 151468, Control_c, 0, 64, 100
1, 151488, Control_c, 0, 64, 104
1, 151504, Note_off_c, 0, 62, 39
1, 151514, Note_off_c, 0, 59, 38
1, 151514, Poly_aftertouch_c, 0, 59, 0
1, 151525, Control_c, 0, 64, 109
1, 151765, Note_on_c, 0, 59, 34
1, 151775, Note_on_c, 0, 62, 40
1, 152100, Note_on_c, 0, 78, 61
1, 152139, Note_off_c, 0, 62, 27
1, 152147, Note_off_c, 0, 59, 38
1, 152147, Poly_aftertouch_c, 0, 59, 0
1, 152285, Note_off_c, 0, 74, 42
1, 152285, Poly_aftertouch_c, 0, 74, 0
1, 152329, Control_c, 0, 64, 105
1, 152367, Control_c, 0, 64, 101
1, 152404, Control_c, 0, 64, 93
1, 152423, Control_c, 0, 64, 88
1, 152441, Control_c, 0, 64, 82
1, 152451, Note_on_c, 0, 62, 33
1, 152454, Note_on_c, 0, 59, 34
1, 152454, Note_on_c, 0, 79, 52
1, 152460, Control_c, 0, 64, 76
1, 152478, Control_c, 0, 64, 71
1, 152497, Control_c, 0, 64, 66
1, 152514, Note_off_c, 0, 78, 58
1, 152514, Poly_aftertouch_c, 0, 78, 0
1, 152516, Control_c, 0, 64, 63
1, 152535, Control_c, 0, 64, 60
1, 152553, Control_c, 0, 64, 58
1, 152573, Control_c, 0, 64, 55
1, 152591, Control_c, 0, 64, 51
1, 152610, Control_c, 0, 64, 47
1, 152629, Control_c, 0, 64, 42
1, 152686, Control_c, 0, 64, 45
1, 152703, Control_c, 0, 64, 51
1, 152710, Note_on_c, 0, 81, 59
1, 152723, Control_c, 0, 64, 59
1, 152739, Control_c, 0, 64, 66
1, 152748, Note_off_c, 0, 79, 57
1, 152759, Control_c, 0, 64, 71
1, 152778, Control_c, 0, 64, 76
1, 152797, Control_c, 0, 64, 80
1, 152815, Control_c, 0, 64, 84
1, 152833, Control_c, 0, 64, 87
1, 152870, Note_off_c, 0, 62, 39
1, 152876, Note_off_c, 0, 59, 54
1, 152876, Poly_aftertouch_c, 0, 59, 0
1, 152931, Note_on_c, 0, 83, 65
1, 152981, Note_off_c, 0, 81, 49
1, 153096, Control_c, 0, 64, 84
1, 153115, Control_c, 0, 64, 82
1, 153133, Control_c, 0, 64, 79
1, 153149, Note_on_c, 0, 62, 51
1, 153152, Control_c, 0, 64, 75
1, 153156, Note_on_c, 0, 81, 56
1, 153163, Note_on_c, 0, 59, 40
1, 153171, Control_c, 0, 64, 71
1, 153191, Control_c, 0, 64, 67
1, 153207, Control_c, 0, 64, 63
1, 153220, Note_off_c, 0, 83, 48
1, 153227, Control_c, 0, 64, 60
1, 153247, Control_c, 0, 64, 57
1, 153264, Control_c, 0, 64, 55
1, 153357, Control_c, 0, 64, 60
1, 153366, Note_on_c, 0, 80, 64
1, 153376, Control_c, 0, 64, 63
1, 153395, Control_c, 0, 64, 67
1, 153413, Control_c, 0, 64, 72
1, 153425, Note_off_c, 0, 81, 49
1, 153431, Control_c, 0, 64, 76
1, 153451, Control_c, 0, 64, 81
1, 153470, Control_c, 0, 64, 86
1, 153488, Control_c, 0, 64, 91
1, 153506, Control_c, 0, 64, 95
1, 153532, Note_off_c, 0, 62, 56
1, 153542, Note_off_c, 0, 59, 56
1, 153542, Poly_aftertouch_c, 0, 59, 0
1, 153543, Control_c, 0, 64, 100
1, 153592, Note_on_c, 0, 78, 67
1, 153637, Note_off_c, 0, 80, 51
1, 153733, Control_c, 0, 64, 95
1, 153769, Control_c, 0, 64, 88
1, 153787, Control_c, 0, 64, 84
1, 153806, Control_c, 0, 64, 81
1, 153824, Control_c, 0, 64, 79
1, 153830, Note_on_c, 0, 61, 47
1, 153839, Note_on_c, 0, 59, 39
1, 153842, Control_c, 0, 64, 76
1, 153850, Note_off_c, 0, 78, 50
1, 153850, Note_on_c, 0, 77, 48
1, 153850, Poly_aftertouch_c, 0, 78, 0
1, 153864, Control_c, 0, 64, 74
1, 153880, Control_c, 0, 64, 70
1, 153900, Control_c, 0, 64, 68
1, 153918, Control_c, 0, 64, 65
1, 153938, Control_c, 0, 64, 62
1, 153955, Control_c, 0, 64, 60
1, 153993, Control_c, 0, 64, 58
1, 154030, Control_c, 0, 64, 56
1, 154069, Control_c, 0, 64, 53
1, 154084, Note_on_c, 0, 78, 51
1, 154085, Control_c, 0, 64, 51
1, 154105, Control_c, 0, 64, 49
1, 154137, Note_off_c, 0, 77, 38
1, 154199, Control_c, 0, 64, 47
1, 154255, Control_c, 0, 64, 45
1, 154292, Control_c, 0, 64, 43
1, 154317, Note_off_c, 0, 78, 55
1, 154317, Poly_aftertouch_c, 0, 78, 0
1, 154319, Note_on_c, 0, 80, 52
1, 154329, Control_c, 0, 64, 41
1, 154405, Control_c, 0, 64, 37
1, 154530, Note_on_c, 0, 78, 50
1, 154542, Note_off_c, 0, 80, 55
1, 154611, Control_c, 0, 64, 33
1, 154684, Control_c, 0, 64, 29
1, 154747, Note_off_c, 0, 78, 62
1, 154747, Poly_aftertouch_c, 0, 78, 0
1, 154763, Note_on_c, 0, 77, 50
1, 154815, Control_c, 0, 64, 25
1, 154967, Note_off_c, 0, 77, 53
1, 154969, Note_on_c, 0, 75, 49
1, 154985, Control_c, 0, 64, 21
1, 155059, Control_c, 0, 64, 17
1, 155153, Control_c, 0, 64, 13
1, 155184, Note_on_c, 0, 73, 49
1, 155191, Note_off_c, 0, 75, 52
1, 155227, Control_c, 0, 64, 8
1, 155267, Note_off_c, 0, 59, 34
1, 155267, Poly_aftertouch_c, 0, 59, 0
1, 155320, Control_c, 0, 64, 0
1, 155369, Note_off_c, 0, 73, 56
1, 155369, Poly_aftertouch_c, 0, 73, 0
1, 155386, Note_on_c, 0, 71, 50
1, 155408, Note_off_c, 0, 61, 34
1, 155408, Poly_aftertouch_c, 0, 61, 0
1, 155602, Note_on_c, 0, 73, 50
1, 155617, Note_off_c, 0, 71, 47
1, 155808, Note_on_c, 0, 56, 51
1, 155824, Note_on_c, 0, 74, 49
1, 155828, Note_off_c, 0, 73, 48
1, 155828, Poly_aftertouch_c, 0, 73, 0
1, 155838, Note_on_c, 0, 53, 39
1, 155994, Control_c, 0, 64, 8
1, 156013, Control_c, 0, 64, 12
1, 156037, Note_on_c, 0, 73, 50
1, 156049, Control_c, 0, 64, 20
1, 156069, Control_c, 0, 64, 26
1, 156086, Note_off_c, 0, 74, 38
1, 156086, Poly_aftertouch_c, 0, 74, 0
1, 156087, Control_c, 0, 64, 36
1, 156106, Control_c, 0, 64, 49
1, 156125, Control_c, 0, 64, 61
1, 156143, Control_c, 0, 64, 67
1, 156162, Control_c, 0, 64, 71
1, 156180, Control_c, 0, 64, 73
1, 156219, Control_c, 0, 64, 76
1, 156264, Note_off_c, 0, 73, 55
1, 156264, Poly_aftertouch_c, 0, 73, 0
1, 156276, Note_on_c, 0, 71, 47
1, 156349, Control_c, 0, 64, 73
1, 156406, Control_c, 0, 64, 70
1, 156408, Poly_aftertouch_c, 0, 53, 20
1, 156414, Note_off_c, 0, 53, 26
1, 156414, Poly_aftertouch_c, 0, 53, 0
1, 156443, Control_c, 0, 64, 67
1, 156461, Control_c, 0, 64, 66
1, 156482, Control_c, 0, 64, 65
1, 156495, Note_off_c, 0, 71, 54
1, 156498, Note_on_c, 0, 61, 56
1, 156500, Control_c, 0, 64, 63
1, 156516, Control_c, 0, 64, 62
1, 156522, Note_on_c, 0, 69, 42
1, 156524, Note_on_c, 0, 54, 41
1, 156536, Control_c, 0, 64, 61
1, 156556, Control_c, 0, 64, 60
1, 156573, Control_c, 0, 64, 58
1, 156592, Control_c, 0, 64, 55
1, 156611, Control_c, 0, 64, 52
1, 156629, Control_c, 0, 64, 48
1, 156648, Control_c, 0, 64, 43
1, 156667, Control_c, 0, 64, 36
1, 156685, Control_c, 0, 64, 29
1, 156704, Control_c, 0, 64, 23
1, 156712, Note_off_c, 0, 56, 22
1, 156712, Poly_aftertouch_c, 0, 56, 0
1, 156731, Note_off_c, 0, 69, 50
1, 156738, Note_on_c, 0, 71, 49
1, 156779, Control_c, 0, 64, 38
1, 156798, Control_c, 0, 64, 55
1, 156819, Control_c, 0, 64, 68
1, 156835, Control_c, 0, 64, 75
1, 156854, Control_c, 0, 64, 77
1, 156942, Note_on_c, 0, 73, 58
1, 156945, Note_off_c, 0, 71, 53
1, 156967, Control_c, 0, 64, 75
1, 157004, Control_c, 0, 64, 73
1, 157023, Control_c, 0, 64, 71
1, 157041, Control_c, 0, 64, 69
1, 157059, Control_c, 0, 64, 66
1, 157079, Control_c, 0, 64, 65
1, 157097, Control_c, 0, 64, 64
1, 157115, Control_c, 0, 64, 62
1, 157135, Control_c, 0, 64, 60
1, 157153, Control_c, 0, 64, 58
1, 157171, Control_c, 0, 64, 55
1, 157173, Note_on_c, 0, 71, 51
1, 157174, Note_off_c, 0, 73, 56
1, 157174, Poly_aftertouch_c, 0, 73, 0
1, 157187, Note_on_c, 0, 49, 41
1, 157189, Control_c, 0, 64, 52
1, 157210, Control_c, 0, 64, 48
1, 157228, Control_c, 0, 64, 44
1, 157247, Control_c, 0, 64, 38
1, 157265, Control_c, 0, 64, 33
1, 157285, Control_c, 0, 64, 28
1, 157343, Note_off_c, 0, 54, 32
1, 157343, Poly_aftertouch_c, 0, 54, 0
1, 157359, Control_c, 0, 64, 33
1, 157377, Control_c, 0, 64, 44
1, 157391, Note_off_c, 0, 71, 60
1, 157395, Control_c, 0, 64, 59
1, 157401, Note_on_c, 0, 69, 55
1, 157415, Control_c, 0, 64, 71
1, 157433, Control_c, 0, 64, 78
1, 157452, Control_c, 0, 64, 83
1, 157471, Control_c, 0, 64, 88
1, 157490, Control_c, 0, 64, 92
1, 157527, Control_c, 0, 64, 97
1, 157575, Note_off_c, 0, 49, 50
1, 157575, Poly_aftertouch_c, 0, 49, 0
1, 157597, Note_off_c, 0, 69, 58
1, 157618, Note_on_c, 0, 68, 55
1, 157619, Control_c, 0, 64, 93
1, 157658, Control_c, 0, 64, 88
1, 157676, Control_c, 0, 64, 84
1, 157696, Control_c, 0, 64, 81
1, 157714, Control_c, 0, 64, 78
1, 157733, Control_c, 0, 64, 75
1, 157752, Control_c, 0, 64, 73
1, 157770, Control_c, 0, 64, 70
1, 157789, Control_c, 0, 64, 66
1, 157808, Control_c, 0, 64, 63
1, 157827, Control_c, 0, 64, 60
1, 157844, Control_c, 0, 64, 57
1, 157865, Control_c, 0, 64, 53
1, 157877, Note_on_c, 0, 66, 44
1, 157885, Note_on_c, 0, 50, 35
1, 157885, Control_c, 0, 64, 48
1, 157900, Note_off_c, 0, 68, 36
1, 157900, Poly_aftertouch_c, 0, 68, 0
1, 157900, Control_c, 0, 64, 38
1, 157919, Control_c, 0, 64, 26
1, 157939, Control_c, 0, 64, 17
1, 157994, Control_c, 0, 64, 25
1, 158014, Control_c, 0, 64, 38
1, 158032, Control_c, 0, 64, 57
1, 158051, Control_c, 0, 64, 74
1, 158069, Control_c, 0, 64, 85
1, 158088, Control_c, 0, 64, 97
1, 158106, Control_c, 0, 64, 106
1, 158125, Control_c, 0, 64, 116
1, 158144, Control_c, 0, 64, 127
1, 158197, Note_off_c, 0, 61, 43
1, 158197, Poly_aftertouch_c, 0, 61, 0
1, 158205, Note_off_c, 0, 66, 44
1, 158269, Note_on_c, 0, 77, 62
1, 158536, Control_c, 0, 64, 118
1, 158556, Control_c, 0, 64, 111
1, 158574, Control_c, 0, 64, 104
1, 158593, Control_c, 0, 64, 97
1, 158610, Note_on_c, 0, 61, 64
1, 158611, Control_c, 0, 64, 90
1, 158630, Control_c, 0, 64, 83
1, 158649, Control_c, 0, 64, 77
1, 158669, Control_c, 0, 64, 70
1, 158687, Control_c, 0, 64, 66
1, 158705, Control_c, 0, 64, 62
1, 158723, Control_c, 0, 64, 59
1, 158743, Control_c, 0, 64, 56
1, 158761, Control_c, 0, 64, 54
1, 158780, Control_c, 0, 64, 51
1, 158854, Control_c, 0, 64, 54
1, 158874, Control_c, 0, 64, 58
1, 158892, Control_c, 0, 64, 66
1, 158910, Control_c, 0, 64, 74
1, 158930, Control_c, 0, 64, 84
1, 158948, Control_c, 0, 64, 93
1, 158966, Note_on_c, 0, 78, 64
1, 158966, Control_c, 0, 64, 98
1, 158969, Note_off_c, 0, 77, 51
1, 158978, Note_off_c, 0, 61, 63
1, 158978, Poly_aftertouch_c, 0, 61, 0
1, 159042, Control_c, 0, 64, 93
1, 159061, Control_c, 0, 64, 88
1, 159079, Control_c, 0, 64, 83
1, 159099, Control_c, 0, 64, 78
1, 159116, Control_c, 0, 64, 74
1, 159134, Control_c, 0, 64, 72
1, 159191, Control_c, 0, 64, 70
1, 159212, Control_c, 0, 64, 68
1, 159229, Control_c, 0, 64, 66
1, 159247, Control_c, 0, 64, 64
1, 159266, Control_c, 0, 64, 62
1, 159284, Control_c, 0, 64, 61
1, 159304, Control_c, 0, 64, 59
1, 159320, Note_on_c, 0, 59, 66
1, 159320, Control_c, 0, 64, 56
1, 159330, Note_on_c, 0, 68, 50
1, 159338, Control_c, 0, 64, 52
1, 159359, Control_c, 0, 64, 47
1, 159378, Control_c, 0, 64, 41
1, 159396, Control_c, 0, 64, 34
1, 159406, Note_off_c, 0, 78, 38
1, 159406, Poly_aftertouch_c, 0, 78, 0
1, 159414, Control_c, 0, 64, 30
1, 159491, Control_c, 0, 64, 34
1, 159509, Control_c, 0, 64, 40
1, 159528, Control_c, 0, 64, 48
1, 159546, Control_c, 0, 64, 58
1, 159566, Control_c, 0, 64, 67
1, 159584, Control_c, 0, 64, 74
1, 159603, Control_c, 0, 64, 81
1, 159621, Control_c, 0, 64, 88
1, 159640, Control_c, 0, 64, 95
1, 159659, Control_c, 0, 64, 103
1, 159675, Note_on_c, 0, 78, 72
1, 159676, Control_c, 0, 64, 110
1, 159685, Note_off_c, 0, 50, 53
1, 159692, Note_off_c, 0, 68, 47
1, 159692, Poly_aftertouch_c, 0, 68, 0
1, 159695, Control_c, 0, 64, 116
1, 159715, Control_c, 0, 64, 121
1, 159733, Control_c, 0, 64, 125
1, 159920, Control_c, 0, 64, 120
1, 159940, Control_c, 0, 64, 116
1, 159958, Control_c, 0, 64, 110
1, 159978, Control_c, 0, 64, 103
1, 159995, Control_c, 0, 64, 95
1, 160014, Control_c, 0, 64, 86
1, 160033, Control_c, 0, 64, 77
1, 160050, Note_on_c, 0, 50, 50
1, 160051, Control_c, 0, 64, 68
1, 160070, Control_c, 0, 64, 60
1, 160089, Control_c, 0, 64, 56
1, 160126, Control_c, 0, 64, 53
1, 160182, Control_c, 0, 64, 55
1, 160201, Control_c, 0, 64, 57
1, 160220, Control_c, 0, 64, 60
1, 160239, Control_c, 0, 64, 63
1, 160256, Control_c, 0, 64, 66
1, 160277, Control_c, 0, 64, 69
1, 160294, Control_c, 0, 64, 74
1, 160314, Control_c, 0, 64, 79
1, 160331, Note_off_c, 0, 78, 52
1, 160331, Poly_aftertouch_c, 0, 78, 0
1, 160331, Control_c, 0, 64, 85
1, 160350, Control_c, 0, 64, 91
1, 160357, Note_on_c, 0, 77, 69
1, 160370, Control_c, 0, 64, 95
1, 160406, Control_c, 0, 64, 101
1, 160575, Control_c, 0, 64, 97
1, 160612, Control_c, 0, 64, 91
1, 160631, Control_c, 0, 64, 88
1, 160651, Control_c, 0, 64, 83
1, 160668, Control_c, 0, 64, 78
1, 160688, Control_c, 0, 64, 72
1, 160706, Control_c, 0, 64, 67
1, 160716, Note_on_c, 0, 70, 61
1, 160724, Control_c, 0, 64, 64
1, 160727, Note_off_c, 0, 77, 51
1, 160729, Note_on_c, 0, 49, 51
1, 160744, Control_c, 0, 64, 60
1, 160762, Control_c, 0, 64, 58
1, 160781, Control_c, 0, 64, 55
1, 160798, Control_c, 0, 64, 50
1, 160818, Control_c, 0, 64, 44
1, 160836, Control_c, 0, 64, 36
1, 160843, Note_off_c, 0, 50, 35
1, 160855, Control_c, 0, 64, 31
1, 160893, Control_c, 0, 64, 35
1, 160912, Control_c, 0, 64, 48
1, 160930, Control_c, 0, 64, 65
1, 160949, Control_c, 0, 64, 79
1, 160969, Control_c, 0, 64, 94
1, 160987, Control_c, 0, 64, 110
1, 161005, Control_c, 0, 64, 119
1, 161022, Note_off_c, 0, 70, 58
1, 161023, Control_c, 0, 64, 123
1, 161079, Control_c, 0, 64, 127
1, 161088, Note_on_c, 0, 76, 73
1, 161287, Control_c, 0, 64, 122
1, 161323, Control_c, 0, 64, 116
1, 161360, Control_c, 0, 64, 108
1, 161379, Control_c, 0, 64, 103
1, 161397, Control_c, 0, 64, 97
1, 161416, Control_c, 0, 64, 91
1, 161433, Note_on_c, 0, 58, 64
1, 161434, Control_c, 0, 64, 85
1, 161453, Control_c, 0, 64, 79
1, 161458, Note_on_c, 0, 55, 50
1, 161472, Control_c, 0, 64, 74
1, 161491, Note_off_c, 0, 49, 42
1, 161491, Poly_aftertouch_c, 0, 49, 0
1, 161491, Control_c, 0, 64, 69
1, 161510, Control_c, 0, 64, 65
1, 161528, Control_c, 0, 64, 63
1, 161547, Control_c, 0, 64, 61
1, 161585, Control_c, 0, 64, 57
1, 161603, Control_c, 0, 64, 54
1, 161621, Control_c, 0, 64, 49
1, 161642, Control_c, 0, 64, 42
1, 161644, Note_off_c, 0, 59, 51
1, 161644, Poly_aftertouch_c, 0, 59, 0
1, 161660, Control_c, 0, 64, 34
1, 161678, Control_c, 0, 64, 25
1, 161697, Control_c, 0, 64, 20
1, 161767, Note_on_c, 0, 75, 69
1, 161771, Control_c, 0, 64, 28
1, 161791, Control_c, 0, 64, 37
1, 161809, Control_c, 0, 64, 49
1, 161820, Note_off_c, 0, 76, 54
1, 161827, Control_c, 0, 64, 63
1, 161848, Control_c, 0, 64, 73
1, 161865, Control_c, 0, 64, 82
1, 161884, Control_c, 0, 64, 94
1, 161903, Control_c, 0, 64, 108
1, 161921, Control_c, 0, 64, 121
1, 161939, Control_c, 0, 64, 127
1, 162012, Note_off_c, 0, 75, 61
1, 162090, Control_c, 0, 64, 120
1, 162108, Control_c, 0, 64, 116
1, 162128, Control_c, 0, 64, 110
1, 162143, Note_on_c, 0, 60, 63
1, 162143, Control_c, 0, 64, 103
1, 162162, Note_on_c, 0, 75, 63
1, 162163, Note_on_c, 0, 54, 50
1, 162164, Control_c, 0, 64, 97
1, 162184, Control_c, 0, 64, 91
1, 162202, Control_c, 0, 64, 85
1, 162220, Control_c, 0, 64, 80
1, 162241, Control_c, 0, 64, 74
1, 162259, Control_c, 0, 64, 68
1, 162260, Note_off_c, 0, 55, 24
1, 162276, Control_c, 0, 64, 62
1, 162292, Note_off_c, 0, 58, 48
1, 162294, Control_c, 0, 64, 57
1, 162314, Control_c, 0, 64, 53
1, 162333, Control_c, 0, 64, 48
1, 162351, Control_c, 0, 64, 44
1, 162370, Control_c, 0, 64, 40
1, 162407, Control_c, 0, 64, 44
1, 162420, Note_on_c, 0, 76, 61
1, 162426, Control_c, 0, 64, 54
1, 162445, Control_c, 0, 64, 64
1, 162464, Control_c, 0, 64, 72
1, 162479, Note_off_c, 0, 75, 57
1, 162484, Control_c, 0, 64, 78
1, 162501, Control_c, 0, 64, 82
1, 162595, Control_c, 0, 64, 79
1, 162640, Note_on_c, 0, 78, 65
1, 162650, Control_c, 0, 64, 77
1, 162685, Note_off_c, 0, 76, 57
1, 162688, Control_c, 0, 64, 73
1, 162707, Control_c, 0, 64, 71
1, 162726, Control_c, 0, 64, 69
1, 162744, Control_c, 0, 64, 67
1, 162782, Control_c, 0, 64, 66
1, 162800, Control_c, 0, 64, 65
1, 162819, Control_c, 0, 64, 64
1, 162838, Control_c, 0, 64, 63
1, 162850, Note_on_c, 0, 61, 68
1, 162857, Control_c, 0, 64, 60
1, 162859, Note_on_c, 0, 76, 56
1, 162874, Control_c, 0, 64, 58
1, 162894, Control_c, 0, 64, 55
1, 162912, Control_c, 0, 64, 51
1, 162926, Note_off_c, 0, 78, 46
1, 162926, Poly_aftertouch_c, 0, 78, 0
1, 162931, Control_c, 0, 64, 46
1, 162949, Control_c, 0, 64, 38
1, 162969, Control_c, 0, 64, 31
1, 162987, Control_c, 0, 64, 27
1, 163043, Control_c, 0, 64, 32
1, 163057, Note_on_c, 0, 75, 65
1, 163062, Control_c, 0, 64, 40
1, 163067, Note_off_c, 0, 60, 57
1, 163080, Control_c, 0, 64, 51
1, 163100, Control_c, 0, 64, 64
1, 163118, Control_c, 0, 64, 72
1, 163137, Control_c, 0, 64, 77
1, 163155, Control_c, 0, 64, 80
1, 163164, Note_off_c, 0, 76, 35
1, 163172, Control_c, 0, 64, 82
1, 163193, Control_c, 0, 64, 85
1, 163211, Control_c, 0, 64, 87
1, 163277, Note_on_c, 0, 73, 70
1, 163325, Control_c, 0, 64, 84
1, 163334, Note_off_c, 0, 75, 54
1, 163342, Control_c, 0, 64, 82
1, 163361, Control_c, 0, 64, 79
1, 163380, Control_c, 0, 64, 76
1, 163399, Control_c, 0, 64, 72
1, 163416, Control_c, 0, 64, 70
1, 163436, Control_c, 0, 64, 67
1, 163455, Control_c, 0, 64, 64
1, 163473, Control_c, 0, 64, 60
1, 163492, Control_c, 0, 64, 56
1, 163510, Control_c, 0, 64, 50
1, 163517, Note_on_c, 0, 72, 59
1, 163518, Note_on_c, 0, 63, 62
1, 163525, Note_off_c, 0, 73, 56
1, 163525, Poly_aftertouch_c, 0, 73, 0
1, 163528, Control_c, 0, 64, 44
1, 163548, Control_c, 0, 64, 38
1, 163640, Note_off_c, 0, 61, 55
1, 163640, Poly_aftertouch_c, 0, 61, 0
1, 163642, Control_c, 0, 64, 42
1, 163660, Control_c, 0, 64, 46
1, 163678, Control_c, 0, 64, 51
1, 163697, Control_c, 0, 64, 57
1, 163716, Control_c, 0, 64, 64
1, 163735, Control_c, 0, 64, 70
1, 163737, Note_on_c, 0, 73, 64
1, 163753, Control_c, 0, 64, 75
1, 163772, Control_c, 0, 64, 81
1, 163788, Note_off_c, 0, 72, 36
1, 163791, Control_c, 0, 64, 86
1, 163810, Control_c, 0, 64, 91
1, 163828, Control_c, 0, 64, 96
1, 163885, Control_c, 0, 64, 100
1, 163967, Note_on_c, 0, 75, 67
1, 163998, Control_c, 0, 64, 96
1, 164027, Note_off_c, 0, 73, 50
1, 164027, Poly_aftertouch_c, 0, 73, 0
1, 164032, Control_c, 0, 64, 91
1, 164055, Control_c, 0, 64, 88
1, 164072, Control_c, 0, 64, 85
1, 164090, Control_c, 0, 64, 82
1, 164109, Control_c, 0, 64, 80
1, 164129, Control_c, 0, 64, 78
1, 164146, Control_c, 0, 64, 76
1, 164165, Control_c, 0, 64, 73
1, 164183, Control_c, 0, 64, 71
1, 164189, Note_on_c, 0, 56, 63
1, 164197, Note_on_c, 0, 73, 51
1, 164202, Control_c, 0, 64, 69
1, 164206, Note_on_c, 0, 52, 48
1, 164220, Control_c, 0, 64, 66
1, 164239, Control_c, 0, 64, 63
1, 164242, Note_off_c, 0, 75, 52
1, 164256, Poly_aftertouch_c, 0, 78, 24
1, 164259, Control_c, 0, 64, 58
1, 164264, Note_off_c, 0, 54, 53
1, 164264, Poly_aftertouch_c, 0, 54, 0
1, 164278, Control_c, 0, 64, 54
1, 164296, Control_c, 0, 64, 50
1, 164315, Control_c, 0, 64, 48
1, 164370, Poly_aftertouch_c, 0, 78, 0
1, 164379, Note_off_c, 0, 63, 53
1, 164390, Control_c, 0, 64, 54
1, 164408, Control_c, 0, 64, 60
1, 164410, Note_on_c, 0, 72, 63
1, 164416, Note_off_c, 0, 73, 60
1, 164416, Poly_aftertouch_c, 0, 73, 0
1, 164426, Control_c, 0, 64, 66
1, 164446, Control_c, 0, 64, 72
1, 164465, Control_c, 0, 64, 79
1, 164483, Control_c, 0, 64, 87
1, 164502, Control_c, 0, 64, 94
1, 164520, Control_c, 0, 64, 98
1, 164620, Note_on_c, 0, 70, 65
1, 164682, Note_off_c, 0, 72, 55
1, 164707, Control_c, 0, 64, 93
1, 164745, Control_c, 0, 64, 86
1, 164762, Control_c, 0, 64, 83
1, 164783, Control_c, 0, 64, 80
1, 164801, Control_c, 0, 64, 77
1, 164819, Control_c, 0, 64, 73
1, 164838, Control_c, 0, 64, 69
1, 164849, Note_on_c, 0, 58, 68
1, 164852, Note_on_c, 0, 68, 60
1, 164857, Control_c, 0, 64, 65
1, 164877, Control_c, 0, 64, 61
1, 164894, Control_c, 0, 64, 60
1, 164933, Control_c, 0, 64, 56
1, 164946, Note_off_c, 0, 70, 39
1, 164969, Control_c, 0, 64, 52
1, 165007, Control_c, 0, 64, 50
1, 165059, Note_on_c, 0, 66, 66
1, 165062, Control_c, 0, 64, 52
1, 165082, Control_c, 0, 64, 55
1, 165098, Note_off_c, 0, 68, 56
1, 165098, Poly_aftertouch_c, 0, 68, 0
1, 165098, Control_c, 0, 64, 59
1, 165119, Control_c, 0, 64, 64
1, 165139, Control_c, 0, 64, 69
1, 165154, Note_off_c, 0, 56, 56
1, 165154, Poly_aftertouch_c, 0, 56, 0
1, 165156, Control_c, 0, 64, 74
1, 165175, Control_c, 0, 64, 81
1, 165193, Control_c, 0, 64, 89
1, 165212, Control_c, 0, 64, 97
1, 165231, Control_c, 0, 64, 106
1, 165249, Control_c, 0, 64, 113
1, 165268, Control_c, 0, 64, 119
1, 165274, Note_on_c, 0, 68, 67
1, 165281, Note_off_c, 0, 58, 56
1, 165305, Control_c, 0, 64, 125
1, 165345, Note_off_c, 0, 66, 58
1, 165437, Control_c, 0, 64, 119
1, 165475, Control_c, 0, 64, 111
1, 165492, Control_c, 0, 64, 106
1, 165511, Control_c, 0, 64, 99
1, 165524, Note_on_c, 0, 60, 65
1, 165525, Note_on_c, 0, 69, 59
1, 165530, Control_c, 0, 64, 91
1, 165546, Note_on_c, 0, 51, 55
1, 165549, Control_c, 0, 64, 83
1, 165567, Control_c, 0, 64, 75
1, 165586, Control_c, 0, 64, 68
1, 165592, Note_off_c, 0, 68, 50
1, 165592, Poly_aftertouch_c, 0, 68, 0
1, 165606, Control_c, 0, 64, 64
1, 165609, Note_off_c, 0, 52, 34
1, 165623, Control_c, 0, 64, 62
1, 165642, Control_c, 0, 64, 60
1, 165679, Control_c, 0, 64, 58
1, 165699, Control_c, 0, 64, 56
1, 165736, Control_c, 0, 64, 53
1, 165753, Note_on_c, 0, 68, 65
1, 165811, Control_c, 0, 64, 55
1, 165828, Control_c, 0, 64, 58
1, 165848, Control_c, 0, 64, 62
1, 165866, Control_c, 0, 64, 66
1, 165886, Control_c, 0, 64, 71
1, 165893, Note_off_c, 0, 69, 33
1, 165903, Control_c, 0, 64, 78
1, 165924, Control_c, 0, 64, 87
1, 165942, Control_c, 0, 64, 95
1, 165960, Control_c, 0, 64, 103
1, 165978, Note_on_c, 0, 66, 74
1, 165979, Control_c, 0, 64, 108
1, 165991, Note_off_c, 0, 60, 51
1, 166034, Control_c, 0, 64, 112
1, 166096, Note_off_c, 0, 68, 38
1, 166096, Poly_aftertouch_c, 0, 68, 0
1, 166109, Control_c, 0, 64, 106
1, 166147, Control_c, 0, 64, 101
1, 166166, Control_c, 0, 64, 96
1, 166185, Control_c, 0, 64, 92
1, 166204, Control_c, 0, 64, 87
1, 166223, Control_c, 0, 64, 81
1, 166225, Note_on_c, 0, 59, 60
1, 166240, Control_c, 0, 64, 75
1, 166245, Note_on_c, 0, 65, 59
1, 166250, Note_on_c, 0, 49, 51
1, 166258, Control_c, 0, 64, 69
1, 166279, Control_c, 0, 64, 64
1, 166296, Control_c, 0, 64, 61
1, 166301, Note_off_c, 0, 66, 58
1, 166303, Note_off_c, 0, 51, 56
1, 166316, Control_c, 0, 64, 60
1, 166353, Control_c, 0, 64, 56
1, 166371, Control_c, 0, 64, 54
1, 166390, Control_c, 0, 64, 52
1, 166409, Control_c, 0, 64, 49
1, 166428, Control_c, 0, 64, 46
1, 166446, Control_c, 0, 64, 42
1, 166488, Note_on_c, 0, 66, 64
1, 166540, Control_c, 0, 64, 47
1, 166558, Control_c, 0, 64, 54
1, 166578, Control_c, 0, 64, 64
1, 166595, Control_c, 0, 64, 72
1, 166615, Control_c, 0, 64, 79
1, 166633, Control_c, 0, 64, 85
1, 166652, Control_c, 0, 64, 92
1, 166662, Note_off_c, 0, 65, 35
1, 166670, Control_c, 0, 64, 100
1, 166688, Control_c, 0, 64, 107
1, 166694, Note_on_c, 0, 68, 72
1, 166722, Poly_aftertouch_c, 0, 71, 127
1, 166724, Note_off_c, 0, 59, 56
1, 166724, Poly_aftertouch_c, 0, 59, 0
1, 166725, Control_c, 0, 64, 112
1, 166772, Note_off_c, 0, 66, 57
1, 166877, Control_c, 0, 64, 107
1, 166914, Control_c, 0, 64, 101
1, 166926, Note_on_c, 0, 66, 70
1, 166942, Note_on_c, 0, 57, 64
1, 166949, Note_on_c, 0, 51, 60
1, 166951, Control_c, 0, 64, 93
1, 166970, Control_c, 0, 64, 88
1, 166988, Control_c, 0, 64, 84
1, 167008, Control_c, 0, 64, 79
1, 167026, Control_c, 0, 64, 74
1, 167045, Control_c, 0, 64, 69
1, 167063, Control_c, 0, 64, 65
1, 167082, Control_c, 0, 64, 61
1, 167100, Control_c, 0, 64, 57
1, 167119, Control_c, 0, 64, 52
1, 167138, Control_c, 0, 64, 44
1, 167147, Note_on_c, 0, 65, 73
1, 167150, Note_off_c, 0, 68, 37
1, 167150, Poly_aftertouch_c, 0, 68, 0
1, 167157, Control_c, 0, 64, 36
1, 167175, Control_c, 0, 64, 30
1, 167194, Note_off_c, 0, 49, 29
1, 167194, Poly_aftertouch_c, 0, 49, 0
1, 167201, Poly_aftertouch_c, 0, 71, 0
1, 167202, Note_off_c, 0, 66, 62
1, 167213, Control_c, 0, 64, 39
1, 167232, Control_c, 0, 64, 51
1, 167250, Control_c, 0, 64, 66
1, 167269, Control_c, 0, 64, 77
1, 167288, Control_c, 0, 64, 88
1, 167306, Control_c, 0, 64, 98
1, 167326, Control_c, 0, 64, 106
1, 167358, Note_on_c, 0, 63, 71
1, 167363, Control_c, 0, 64, 110
1, 167430, Note_off_c, 0, 65, 57
1, 167456, Control_c, 0, 64, 106
1, 167494, Control_c, 0, 64, 101
1, 167512, Control_c, 0, 64, 97
1, 167530, Control_c, 0, 64, 92
1, 167549, Control_c, 0, 64, 87
1, 167568, Control_c, 0, 64, 83
1, 167586, Control_c, 0, 64, 79
1, 167606, Control_c, 0, 64, 76
1, 167619, Note_on_c, 0, 56, 65
1, 167624, Control_c, 0, 64, 72
1, 167628, Note_on_c, 0, 53, 57
1, 167628, Note_on_c, 0, 61, 70
1, 167644, Control_c, 0, 64, 69
1, 167661, Control_c, 0, 64, 66
1, 167681, Control_c, 0, 64, 64
1, 167700, Control_c, 0, 64, 60
1, 167717, Control_c, 0, 64, 58
1, 167729, Note_off_c, 0, 51, 57
1, 167730, Note_off_c, 0, 63, 50
1, 167734, Control_c, 0, 64, 55
1, 167755, Control_c, 0, 64, 53
1, 167774, Control_c, 0, 64, 49
1, 167792, Control_c, 0, 64, 45
1, 167811, Control_c, 0, 64, 38
1, 167831, Control_c, 0, 64, 30
1, 167848, Control_c, 0, 64, 22
1, 167853, Note_off_c, 0, 57, 35
1, 167853, Poly_aftertouch_c, 0, 57, 0
1, 167868, Control_c, 0, 64, 17
1, 167962, Control_c, 0, 64, 27
1, 167979, Control_c, 0, 64, 39
1, 167999, Control_c, 0, 64, 55
1, 168017, Control_c, 0, 64, 68
1, 168035, Control_c, 0, 64, 78
1, 168054, Control_c, 0, 64, 86
1, 168074, Control_c, 0, 64, 96
1, 168091, Control_c, 0, 64, 107
1, 168110, Control_c, 0, 64, 117
1, 168129, Control_c, 0, 64, 126
1, 168395, Note_on_c, 0, 54, 64
1, 168397, Note_on_c, 0, 57, 67
1, 168446, Control_c, 0, 64, 117
1, 168466, Control_c, 0, 64, 110
1, 168481, Note_off_c, 0, 53, 29
1, 168481, Poly_aftertouch_c, 0, 53, 0
1, 168484, Control_c, 0, 64, 103
1, 168497, Note_off_c, 0, 56, 44
1, 168497, Poly_aftertouch_c, 0, 56, 0
1, 168504, Control_c, 0, 64, 95
1, 168522, Control_c, 0, 64, 87
1, 168540, Control_c, 0, 64, 78
1, 168560, Control_c, 0, 64, 70
1, 168578, Control_c, 0, 64, 63
1, 168597, Control_c, 0, 64, 58
1, 168615, Control_c, 0, 64, 54
1, 168635, Control_c, 0, 64, 48
1, 168652, Control_c, 0, 64, 43
1, 168671, Control_c, 0, 64, 39
1, 168709, Control_c, 0, 64, 43
1, 168727, Control_c, 0, 64, 50
1, 168746, Control_c, 0, 64, 60
1, 168765, Control_c, 0, 64, 68
1, 168783, Control_c, 0, 64, 76
1, 168803, Control_c, 0, 64, 84
1, 168821, Control_c, 0, 64, 95
1, 168841, Control_c, 0, 64, 106
1, 168858, Control_c, 0, 64, 116
1, 168877, Control_c, 0, 64, 123
1, 168880, Note_off_c, 0, 57, 58
1, 168880, Poly_aftertouch_c, 0, 57, 0
1, 168895, Control_c, 0, 64, 127
1, 169064, Control_c, 0, 64, 122
1, 169083, Control_c, 0, 64, 115
1, 169102, Control_c, 0, 64, 108
1, 169118, Note_on_c, 0, 59, 67
1, 169119, Control_c, 0, 64, 100
1, 169122, Note_on_c, 0, 56, 68
1, 169138, Control_c, 0, 64, 91
1, 169158, Control_c, 0, 64, 82
1, 169174, Note_off_c, 0, 54, 57
1, 169174, Poly_aftertouch_c, 0, 54, 0
1, 169177, Control_c, 0, 64, 71
1, 169194, Control_c, 0, 64, 61
1, 169215, Control_c, 0, 64, 57
1, 169232, Control_c, 0, 64, 55
1, 169308, Control_c, 0, 64, 60
1, 169325, Control_c, 0, 64, 66
1, 169345, Control_c, 0, 64, 72
1, 169364, Control_c, 0, 64, 79
1, 169384, Control_c, 0, 64, 89
1, 169386, Note_off_c, 0, 59, 61
1, 169386, Poly_aftertouch_c, 0, 59, 0
1, 169401, Control_c, 0, 64, 101
1, 169419, Control_c, 0, 64, 116
1, 169439, Control_c, 0, 64, 127
1, 169461, Note_off_c, 0, 56, 62
1, 169461, Poly_aftertouch_c, 0, 56, 0
1, 169481, Note_on_c, 0, 65, 64
1, 169525, Note_off_c, 0, 61, 38
1, 169525, Poly_aftertouch_c, 0, 61, 0
1, 169611, Note_on_c, 0, 68, 72
1, 169687, Note_off_c, 0, 65, 50
1, 169821, Note_on_c, 0, 53, 65
1, 169825, Note_on_c, 0, 44, 59
1, 169831, Control_c, 0, 64, 117
1, 169834, Note_on_c, 0, 71, 65
1, 169850, Control_c, 0, 64, 110
1, 169868, Control_c, 0, 64, 103
1, 169887, Control_c, 0, 64, 97
1, 169905, Control_c, 0, 64, 90
1, 169924, Control_c, 0, 64, 82
1, 169942, Control_c, 0, 64, 74
1, 169962, Control_c, 0, 64, 66
1, 169979, Note_off_c, 0, 68, 38
1, 169979, Poly_aftertouch_c, 0, 68, 0
1, 169980, Control_c, 0, 64, 59
1, 169999, Control_c, 0, 64, 52
1, 170018, Control_c, 0, 64, 48
1, 170036, Control_c, 0, 64, 45
1, 170073, Control_c, 0, 64, 49
1, 170093, Control_c, 0, 64, 56
1, 170111, Control_c, 0, 64, 63
1, 170131, Control_c, 0, 64, 70
1, 170148, Control_c, 0, 64, 76
1, 170168, Control_c, 0, 64, 83
1, 170186, Note_on_c, 0, 74, 79
1, 170186, Control_c, 0, 64, 92
1, 170204, Control_c, 0, 64, 104
1, 170207, Note_off_c, 0, 71, 38
1, 170223, Control_c, 0, 64, 115
1, 170243, Control_c, 0, 64, 124
1, 170245, Note_off_c, 0, 53, 48
1, 170245, Poly_aftertouch_c, 0, 53, 0
1, 170289, Note_off_c, 0, 44, 57
1, 170409, Note_off_c, 0, 74, 57
1, 170409, Poly_aftertouch_c, 0, 74, 0
1, 170466, Control_c, 0, 64, 118
1, 170485, Control_c, 0, 64, 111
1, 170505, Control_c, 0, 64, 104
1, 170523, Control_c, 0, 64, 96
1, 170542, Control_c, 0, 64, 89
1, 170546, Note_on_c, 0, 54, 70
1, 170559, Control_c, 0, 64, 81
1, 170566, Note_on_c, 0, 73, 64
1, 170567, Note_on_c, 0, 45, 53
1, 170579, Control_c, 0, 64, 74
1, 170597, Control_c, 0, 64, 67
1, 170616, Control_c, 0, 64, 61
1, 170635, Control_c, 0, 64, 56
1, 170654, Control_c, 0, 64, 52
1, 170672, Control_c, 0, 64, 47
1, 170691, Control_c, 0, 64, 39
1, 170710, Control_c, 0, 64, 30
1, 170728, Control_c, 0, 64, 21
1, 170746, Control_c, 0, 64, 15
1, 170791, Note_on_c, 0, 75, 69
1, 170803, Control_c, 0, 64, 23
1, 170822, Control_c, 0, 64, 37
1, 170841, Control_c, 0, 64, 54
1, 170849, Note_off_c, 0, 73, 56
1, 170849, Poly_aftertouch_c, 0, 73, 0
1, 170859, Control_c, 0, 64, 69
1, 170878, Control_c, 0, 64, 79
1, 170897, Control_c, 0, 64, 86
1, 170934, Control_c, 0, 64, 90
1, 170990, Note_off_c, 0, 75, 63
1, 171015, Note_on_c, 0, 77, 73
1, 171083, Control_c, 0, 64, 87
1, 171103, Control_c, 0, 64, 85
1, 171140, Control_c, 0, 64, 82
1, 171158, Control_c, 0, 64, 80
1, 171178, Control_c, 0, 64, 78
1, 171195, Control_c, 0, 64, 76
1, 171215, Control_c, 0, 64, 73
1, 171229, Note_on_c, 0, 49, 68
1, 171233, Control_c, 0, 64, 70
1, 171239, Note_off_c, 0, 77, 57
1, 171247, Note_on_c, 0, 78, 62
1, 171252, Control_c, 0, 64, 67
1, 171270, Control_c, 0, 64, 64
1, 171290, Control_c, 0, 64, 60
1, 171308, Control_c, 0, 64, 58
1, 171315, Note_off_c, 0, 54, 38
1, 171315, Poly_aftertouch_c, 0, 54, 0
1, 171327, Control_c, 0, 64, 55
1, 171345, Control_c, 0, 64, 51
1, 171364, Control_c, 0, 64, 48
1, 171382, Control_c, 0, 64, 44
1, 171402, Control_c, 0, 64, 42
1, 171439, Control_c, 0, 64, 48
1, 171458, Control_c, 0, 64, 56
1, 171460, Note_on_c, 0, 76, 68
1, 171476, Control_c, 0, 64, 65
1, 171496, Control_c, 0, 64, 74
1, 171514, Control_c, 0, 64, 83
1, 171520, Note_off_c, 0, 78, 54
1, 171520, Poly_aftertouch_c, 0, 78, 0
1, 171532, Control_c, 0, 64, 92
1, 171551, Control_c, 0, 64, 99
1, 171570, Control_c, 0, 64, 103
1, 171670, Note_off_c, 0, 76, 63
1, 171670, Note_on_c, 0, 74, 71
1, 171686, Note_off_c, 0, 49, 63
1, 171686, Poly_aftertouch_c, 0, 49, 0
1, 171701, Control_c, 0, 64, 98
1, 171737, Control_c, 0, 64, 92
1, 171757, Control_c, 0, 64, 88
1, 171775, Control_c, 0, 64, 83
1, 171795, Control_c, 0, 64, 80
1, 171812, Control_c, 0, 64, 77
1, 171832, Control_c, 0, 64, 73
1, 171850, Control_c, 0, 64, 70
1, 171869, Control_c, 0, 64, 66
1, 171887, Control_c, 0, 64, 63
1, 171906, Control_c, 0, 64, 60
1, 171925, Control_c, 0, 64, 56
1, 171934, Note_on_c, 0, 54, 74
1, 171937, Note_on_c, 0, 73, 45
1, 171943, Control_c, 0, 64, 52
1, 171962, Control_c, 0, 64, 47
1, 171982, Control_c, 0, 64, 39
1, 171991, Note_off_c, 0, 74, 57
1, 171991, Poly_aftertouch_c, 0, 74, 0
1, 172000, Control_c, 0, 64, 31
1, 172018, Control_c, 0, 64, 24
1, 172113, Control_c, 0, 64, 31
1, 172131, Control_c, 0, 64, 40
1, 172149, Control_c, 0, 64, 50
1, 172170, Control_c, 0, 64, 60
1, 172178, Note_on_c, 0, 71, 55
1, 172187, Control_c, 0, 64, 67
1, 172205, Control_c, 0, 64, 71
1, 172224, Control_c, 0, 64, 75
1, 172234, Note_off_c, 0, 73, 53
1, 172234, Poly_aftertouch_c, 0, 73, 0
1, 172243, Control_c, 0, 64, 81
1, 172262, Control_c, 0, 64, 90
1, 172280, Control_c, 0, 64, 100
1, 172299, Control_c, 0, 64, 108
1, 172317, Control_c, 0, 64, 114
1, 172336, Control_c, 0, 64, 118
1, 172349, Poly_aftertouch_c, 0, 50, 0
1, 172353, Control_c, 0, 64, 122
1, 172378, Note_on_c, 0, 69, 65
1, 172397, Note_off_c, 0, 71, 55
1, 172524, Control_c, 0, 64, 117
1, 172542, Control_c, 0, 64, 113
1, 172561, Control_c, 0, 64, 107
1, 172579, Control_c, 0, 64, 100
1, 172599, Control_c, 0, 64, 92
1, 172614, Note_on_c, 0, 47, 52
1, 172616, Control_c, 0, 64, 83
1, 172631, Note_on_c, 0, 74, 63
1, 172636, Control_c, 0, 64, 75
1, 172654, Control_c, 0, 64, 67
1, 172673, Control_c, 0, 64, 60
1, 172685, Note_off_c, 0, 45, 32
1, 172685, Poly_aftertouch_c, 0, 45, 0
1, 172692, Control_c, 0, 64, 55
1, 172711, Control_c, 0, 64, 52
1, 172738, Note_off_c, 0, 69, 37
1, 172766, Control_c, 0, 64, 54
1, 172787, Control_c, 0, 64, 57
1, 172804, Control_c, 0, 64, 61
1, 172823, Control_c, 0, 64, 66
1, 172841, Control_c, 0, 64, 70
1, 172861, Control_c, 0, 64, 75
1, 172870, Note_on_c, 0, 73, 75
1, 172878, Control_c, 0, 64, 81
1, 172897, Control_c, 0, 64, 89
1, 172916, Control_c, 0, 64, 99
1, 172936, Control_c, 0, 64, 108
1, 172953, Control_c, 0, 64, 116
1, 172972, Control_c, 0, 64, 121
1, 173009, Control_c, 0, 64, 125
1, 173084, Note_on_c, 0, 71, 73
1, 173178, Control_c, 0, 64, 120
1, 173200, Note_off_c, 0, 73, 52
1, 173200, Poly_aftertouch_c, 0, 73, 0
1, 173215, Control_c, 0, 64, 116
1, 173217, Note_off_c, 0, 74, 41
1, 173217, Poly_aftertouch_c, 0, 74, 0
1, 173253, Control_c, 0, 64, 111
1, 173271, Control_c, 0, 64, 107
1, 173290, Control_c, 0, 64, 100
1, 173300, Note_off_c, 0, 71, 60
1, 173307, Control_c, 0, 64, 92
1, 173315, Note_on_c, 0, 69, 63
1, 173318, Note_on_c, 0, 49, 62
1, 173326, Control_c, 0, 64, 83
1, 173345, Control_c, 0, 64, 73
1, 173365, Control_c, 0, 64, 62
1, 173383, Control_c, 0, 64, 55
1, 173403, Control_c, 0, 64, 50
1, 173420, Control_c, 0, 64, 48
1, 173495, Control_c, 0, 64, 53
1, 173515, Control_c, 0, 64, 57
1, 173532, Note_on_c, 0, 68, 63
1, 173532, Control_c, 0, 64, 61
1, 173552, Control_c, 0, 64, 65
1, 173570, Control_c, 0, 64, 70
1, 173589, Control_c, 0, 64, 76
1, 173599, Note_off_c, 0, 69, 57
1, 173608, Control_c, 0, 64, 83
1, 173626, Control_c, 0, 64, 90
1, 173645, Control_c, 0, 64, 96
1, 173664, Control_c, 0, 64, 102
1, 173682, Control_c, 0, 64, 107
1, 173721, Control_c, 0, 64, 112
1, 173730, Note_off_c, 0, 47, 42
1, 173730, Poly_aftertouch_c, 0, 47, 0
1, 173752, Note_on_c, 0, 66, 72
1, 173820, Note_off_c, 0, 54, 38
1, 173820, Poly_aftertouch_c, 0, 54, 0
1, 173821, Note_off_c, 0, 68, 58
1, 173821, Poly_aftertouch_c, 0, 68, 0
1, 173832, Control_c, 0, 64, 108
1, 173869, Control_c, 0, 64, 103
1, 173888, Control_c, 0, 64, 99
1, 173906, Control_c, 0, 64, 93
1, 173926, Control_c, 0, 64, 87
1, 173945, Control_c, 0, 64, 82
1, 173963, Control_c, 0, 64, 78
1, 173981, Control_c, 0, 64, 74
1, 173986, Note_on_c, 0, 53, 62
1, 173995, Note_on_c, 0, 68, 68
1, 174000, Control_c, 0, 64, 69
1, 174011, Note_on_c, 0, 47, 53
1, 174018, Control_c, 0, 64, 64
1, 174037, Control_c, 0, 64, 60
1, 174041, Note_off_c, 0, 66, 60
1, 174057, Control_c, 0, 64, 55
1, 174072, Note_off_c, 0, 49, 53
1, 174072, Poly_aftertouch_c, 0, 49, 0
1, 174074, Control_c, 0, 64, 49
1, 174093, Control_c, 0, 64, 41
1, 174113, Control_c, 0, 64, 31
1, 174131, Control_c, 0, 64, 24
1, 174225, Control_c, 0, 64, 31
1, 174229, Note_on_c, 0, 66, 70
1, 174243, Control_c, 0, 64, 36
1, 174263, Control_c, 0, 64, 42
1, 174281, Control_c, 0, 64, 49
1, 174300, Control_c, 0, 64, 57
1, 174318, Control_c, 0, 64, 63
1, 174337, Control_c, 0, 64, 67
1, 174355, Control_c, 0, 64, 70
1, 174374, Control_c, 0, 64, 74
1, 174394, Control_c, 0, 64, 80
1, 174411, Note_off_c, 0, 68, 54
1, 174411, Poly_aftertouch_c, 0, 68, 0
1, 174411, Control_c, 0, 64, 87
1, 174430, Control_c, 0, 64, 94
1, 174449, Control_c, 0, 64, 100
1, 174463, Note_on_c, 0, 65, 74
1, 174466, Control_c, 0, 64, 104
1, 174505, Control_c, 0, 64, 108
1, 174506, Note_off_c, 0, 66, 64
1, 174636, Control_c, 0, 64, 102
1, 174673, Control_c, 0, 64, 94
1, 174692, Control_c, 0, 64, 89
1, 174710, Control_c, 0, 64, 82
1, 174719, Note_on_c, 0, 46, 55
1, 174731, Control_c, 0, 64, 74
1, 174748, Control_c, 0, 64, 68
1, 174767, Control_c, 0, 64, 63
1, 174775, Note_on_c, 0, 66, 69
1, 174780, Note_off_c, 0, 47, 37
1, 174780, Poly_aftertouch_c, 0, 47, 0
1, 174785, Note_off_c, 0, 65, 63
1, 174786, Control_c, 0, 64, 60
1, 174823, Control_c, 0, 64, 57
1, 174842, Control_c, 0, 64, 55
1, 174861, Control_c, 0, 64, 52
1, 174879, Control_c, 0, 64, 46
1, 174898, Control_c, 0, 64, 34
1, 174917, Control_c, 0, 64, 14
1, 174936, Control_c, 0, 64, 0
1, 174996, Note_off_c, 0, 53, 54
1, 174996, Poly_aftertouch_c, 0, 53, 0
1, 175011, Control_c, 0, 64, 8
1, 175028, Control_c, 0, 64, 24
1, 175048, Control_c, 0, 64, 37
1, 175066, Control_c, 0, 64, 54
1, 175086, Note_on_c, 0, 64, 61
1, 175086, Control_c, 0, 64, 66
1, 175103, Control_c, 0, 64, 72
1, 175109, Poly_aftertouch_c, 0, 50, 0
1, 175122, Control_c, 0, 64, 76
1, 175141, Control_c, 0, 64, 79
1, 175160, Control_c, 0, 64, 84
1, 175179, Control_c, 0, 64, 88
1, 175198, Control_c, 0, 64, 92
1, 175236, Control_c, 0, 64, 99
1, 175253, Control_c, 0, 64, 103
1, 175290, Control_c, 0, 64, 109
1, 175302, Note_on_c, 0, 62, 70
1, 175514, Control_c, 0, 64, 104
1, 175526, Note_on_c, 0, 54, 70
1, 175534, Control_c, 0, 64, 100
1, 175538, Note_on_c, 0, 61, 64
1, 175553, Control_c, 0, 64, 93
1, 175571, Control_c, 0, 64, 84
1, 175589, Control_c, 0, 64, 74
1, 175600, Note_off_c, 0, 62, 57
1, 175608, Control_c, 0, 64, 65
1, 175627, Control_c, 0, 64, 58
1, 175630, Note_off_c, 0, 64, 31
1, 175644, Poly_aftertouch_c, 0, 50, 0
1, 175647, Control_c, 0, 64, 52
1, 175664, Control_c, 0, 64, 48
1, 175684, Control_c, 0, 64, 46
1, 175742, Note_on_c, 0, 62, 69
1, 175758, Control_c, 0, 64, 51
1, 175776, Control_c, 0, 64, 56
1, 175796, Control_c, 0, 64, 64
1, 175800, Note_off_c, 0, 61, 53
1, 175800, Poly_aftertouch_c, 0, 61, 0
1, 175814, Control_c, 0, 64, 71
1, 175833, Control_c, 0, 64, 77
1, 175851, Control_c, 0, 64, 82
1, 175871, Control_c, 0, 64, 86
1, 175890, Control_c, 0, 64, 88
1, 175940, Poly_aftertouch_c, 0, 50, 0
1, 175976, Note_on_c, 0, 64, 65
1, 175999, Note_off_c, 0, 62, 53
1, 176057, Control_c, 0, 64, 85
1, 176076, Control_c, 0, 64, 83
1, 176095, Control_c, 0, 64, 79
1, 176114, Control_c, 0, 64, 75
1, 176132, Control_c, 0, 64, 72
1, 176153, Control_c, 0, 64, 69
1, 176169, Control_c, 0, 64, 66
1, 176188, Control_c, 0, 64, 63
1, 176203, Note_on_c, 0, 62, 59
1, 176206, Note_on_c, 0, 47, 58
1, 176207, Control_c, 0, 64, 60
1, 176244, Control_c, 0, 64, 57
1, 176263, Control_c, 0, 64, 54
1, 176274, Note_off_c, 0, 46, 37
1, 176282, Control_c, 0, 64, 51
1, 176302, Control_c, 0, 64, 47
1, 176319, Control_c, 0, 64, 39
1, 176337, Control_c, 0, 64, 28
1, 176358, Control_c, 0, 64, 14
1, 176374, Control_c, 0, 64, 9
1, 176412, Note_on_c, 0, 61, 66
1, 176431, Control_c, 0, 64, 18
1, 176449, Control_c, 0, 64, 29
1, 176468, Control_c, 0, 64, 43
1, 176473, Note_off_c, 0, 62, 52
1, 176488, Control_c, 0, 64, 59
1, 176496, Poly_aftertouch_c, 0, 64, 24
1, 176505, Control_c, 0, 64, 69
1, 176525, Control_c, 0, 64, 74
1, 176544, Control_c, 0, 64, 77
1, 176562, Control_c, 0, 64, 80
1, 176581, Control_c, 0, 64, 83
1, 176583, Note_off_c, 0, 64, 19
1, 176583, Poly_aftertouch_c, 0, 64, 0
1, 176638, Note_on_c, 0, 59, 73
1, 176689, Note_off_c, 0, 61, 62
1, 176689, Poly_aftertouch_c, 0, 61, 0
1, 176731, Control_c, 0, 64, 80
1, 176768, Control_c, 0, 64, 78
1, 176786, Control_c, 0, 64, 76
1, 176805, Control_c, 0, 64, 73
1, 176824, Control_c, 0, 64, 71
1, 176843, Control_c, 0, 64, 68
1, 176861, Control_c, 0, 64, 65
1, 176873, Note_on_c, 0, 58, 66
1, 176879, Note_on_c, 0, 49, 61
1, 176879, Control_c, 0, 64, 63
1, 176899, Control_c, 0, 64, 61
1, 176917, Control_c, 0, 64, 60
1, 176937, Control_c, 0, 64, 57
1, 176939, Note_off_c, 0, 59, 54
1, 176939, Poly_aftertouch_c, 0, 59, 0
1, 176955, Control_c, 0, 64, 53
1, 176973, Control_c, 0, 64, 48
1, 176994, Control_c, 0, 64, 41
1, 177011, Control_c, 0, 64, 34
1, 177031, Control_c, 0, 64, 26
1, 177099, Note_on_c, 0, 59, 69
1, 177104, Control_c, 0, 64, 38
1, 177123, Control_c, 0, 64, 53
1, 177144, Control_c, 0, 64, 67
1, 177149, Note_off_c, 0, 47, 41
1, 177149, Poly_aftertouch_c, 0, 47, 0
1, 177152, Note_off_c, 0, 58, 60
1, 177159, Control_c, 0, 64, 77
1, 177179, Control_c, 0, 64, 83
1, 177197, Control_c, 0, 64, 87
1, 177310, Control_c, 0, 64, 84
1, 177322, Note_on_c, 0, 61, 76
1, 177329, Control_c, 0, 64, 81
1, 177349, Control_c, 0, 64, 78
1, 177367, Control_c, 0, 64, 74
1, 177382, Note_off_c, 0, 59, 59
1, 177382, Poly_aftertouch_c, 0, 59, 0
1, 177383, Control_c, 0, 64, 71
1, 177404, Control_c, 0, 64, 69
1, 177423, Control_c, 0, 64, 67
1, 177441, Control_c, 0, 64, 65
1, 177460, Control_c, 0, 64, 63
1, 177478, Control_c, 0, 64, 60
1, 177498, Control_c, 0, 64, 57
1, 177515, Control_c, 0, 64, 54
1, 177535, Control_c, 0, 64, 49
1, 177554, Control_c, 0, 64, 43
1, 177563, Note_on_c, 0, 50, 63
1, 177569, Note_on_c, 0, 59, 71
1, 177572, Control_c, 0, 64, 34
1, 177591, Control_c, 0, 64, 22
1, 177601, Note_off_c, 0, 49, 61
1, 177601, Poly_aftertouch_c, 0, 49, 0
1, 177608, Control_c, 0, 64, 0
1, 177628, Note_off_c, 0, 61, 58
1, 177628, Poly_aftertouch_c, 0, 61, 0
1, 177704, Control_c, 0, 64, 23
1, 177721, Control_c, 0, 64, 41
1, 177739, Control_c, 0, 64, 60
1, 177759, Control_c, 0, 64, 73
1, 177777, Control_c, 0, 64, 84
1, 177782, Note_off_c, 0, 66, 63
1, 177797, Control_c, 0, 64, 97
1, 177815, Control_c, 0, 64, 111
1, 177819, Note_off_c, 0, 54, 38
1, 177819, Poly_aftertouch_c, 0, 54, 0
1, 177833, Control_c, 0, 64, 125
1, 177984, Note_off_c, 0, 50, 56
1, 177990, Note_on_c, 0, 65, 76
1, 178105, Note_off_c, 0, 59, 53
1, 178105, Poly_aftertouch_c, 0, 59, 0
1, 178282, Control_c, 0, 64, 120
1, 178301, Control_c, 0, 64, 113
1, 178320, Control_c, 0, 64, 106
1, 178328, Note_on_c, 0, 57, 64
1, 178332, Note_on_c, 0, 54, 59
1, 178335, Note_on_c, 0, 47, 55
1, 178339, Control_c, 0, 64, 97
1, 178358, Control_c, 0, 64, 88
1, 178376, Control_c, 0, 64, 76
1, 178395, Control_c, 0, 64, 64
1, 178413, Control_c, 0, 64, 54
1, 178432, Control_c, 0, 64, 48
1, 178450, Control_c, 0, 64, 45
1, 178470, Control_c, 0, 64, 43
1, 178545, Control_c, 0, 64, 47
1, 178563, Control_c, 0, 64, 51
1, 178583, Control_c, 0, 64, 59
1, 178600, Control_c, 0, 64, 67
1, 178619, Control_c, 0, 64, 73
1, 178638, Control_c, 0, 64, 80
1, 178656, Control_c, 0, 64, 89
1, 178667, Note_off_c, 0, 47, 37
1, 178667, Poly_aftertouch_c, 0, 47, 0
1, 178674, Control_c, 0, 64, 99
1, 178682, Note_on_c, 0, 66, 78
1, 178694, Control_c, 0, 64, 111
1, 178713, Control_c, 0, 64, 121
1, 178714, Note_off_c, 0, 57, 52
1, 178714, Poly_aftertouch_c, 0, 57, 0
1, 178721, Note_off_c, 0, 65, 39
1, 178732, Control_c, 0, 64, 127
1, 178956, Control_c, 0, 64, 119
1, 178974, Control_c, 0, 64, 111
1, 178993, Control_c, 0, 64, 103
1, 178995, Note_off_c, 0, 66, 57
1, 179012, Control_c, 0, 64, 93
1, 179030, Control_c, 0, 64, 82
1, 179050, Note_on_c, 0, 56, 58
1, 179050, Control_c, 0, 64, 70
1, 179055, Note_on_c, 0, 53, 45
1, 179055, Note_on_c, 0, 49, 49
1, 179055, Note_on_c, 0, 74, 75
1, 179068, Control_c, 0, 64, 60
1, 179086, Control_c, 0, 64, 52
1, 179102, Note_off_c, 0, 54, 34
1, 179102, Poly_aftertouch_c, 0, 54, 0
1, 179104, Control_c, 0, 64, 46
1, 179123, Control_c, 0, 64, 39
1, 179142, Control_c, 0, 64, 32
1, 179163, Control_c, 0, 64, 26
1, 179236, Control_c, 0, 64, 33
1, 179254, Control_c, 0, 64, 45
1, 179273, Control_c, 0, 64, 62
1, 179292, Control_c, 0, 64, 75
1, 179311, Control_c, 0, 64, 88
1, 179329, Control_c, 0, 64, 100
1, 179348, Control_c, 0, 64, 110
1, 179352, Note_off_c, 0, 74, 60
1, 179352, Poly_aftertouch_c, 0, 74, 0
1, 179367, Control_c, 0, 64, 114
1, 179441, Control_c, 0, 64, 103
1, 179460, Control_c, 0, 64, 89
1, 179479, Control_c, 0, 64, 73
1, 179499, Control_c, 0, 64, 59
1, 179507, Note_on_c, 0, 72, 76
1, 179517, Control_c, 0, 64, 50
1, 179554, Control_c, 0, 64, 57
1, 179573, Control_c, 0, 64, 64
1, 179591, Control_c, 0, 64, 72
1, 179610, Control_c, 0, 64, 83
1, 179629, Control_c, 0, 64, 96
1, 179649, Control_c, 0, 64, 109
1, 179665, Control_c, 0, 64, 120
1, 179685, Control_c, 0, 64, 126
1, 179727, Note_off_c, 0, 56, 60
1, 179727, Poly_aftertouch_c, 0, 56, 0
1, 179779, Control_c, 0, 64, 121
1, 179797, Control_c, 0, 64, 116
1, 179815, Control_c, 0, 64, 110
1, 179835, Control_c, 0, 64, 101
1, 179843, Note_on_c, 0, 57, 67
1, 179848, Note_on_c, 0, 54, 63
1, 179854, Control_c, 0, 64, 91
1, 179868, Note_off_c, 0, 53, 52
1, 179868, Poly_aftertouch_c, 0, 53, 0
1, 179872, Control_c, 0, 64, 82
1, 179891, Control_c, 0, 64, 73
1, 179910, Control_c, 0, 64, 65
1, 179927, Control_c, 0, 64, 59
1, 179948, Control_c, 0, 64, 54
1, 179965, Control_c, 0, 64, 50
1, 180021, Control_c, 0, 64, 56
1, 180040, Control_c, 0, 64, 63
1, 180058, Control_c, 0, 64, 71
1, 180076, Note_off_c, 0, 72, 54
1, 180076, Control_c, 0, 64, 80
1, 180096, Control_c, 0, 64, 91
1, 180116, Control_c, 0, 64, 105
1, 180133, Control_c, 0, 64, 119
1, 180153, Control_c, 0, 64, 127
1, 180187, Note_on_c, 0, 73, 80
1, 180255, Note_off_c, 0, 57, 56
1, 180255, Poly_aftertouch_c, 0, 57, 0
1, 180433, Control_c, 0, 64, 123
1, 180452, Control_c, 0, 64, 114
1, 180469, Control_c, 0, 64, 104
1, 180489, Control_c, 0, 64, 94
1, 180507, Control_c, 0, 64, 86
1, 180526, Control_c, 0, 64, 78
1, 180538, Note_on_c, 0, 56, 60
1, 180539, Note_on_c, 0, 59, 61
1, 180546, Note_on_c, 0, 65, 68
1, 180546, Control_c, 0, 64, 70
1, 180553, Note_off_c, 0, 54, 55
1, 180553, Poly_aftertouch_c, 0, 54, 0
1, 180558, Note_off_c, 0, 73, 39
1, 180558, Poly_aftertouch_c, 0, 73, 0
1, 180564, Control_c, 0, 64, 62
1, 180583, Control_c, 0, 64, 57
1, 180600, Control_c, 0, 64, 52
1, 180620, Control_c, 0, 64, 47
1, 180638, Control_c, 0, 64, 39
1, 180658, Control_c, 0, 64, 30
1, 180675, Control_c, 0, 64, 25
1, 180713, Control_c, 0, 64, 33
1, 180731, Control_c, 0, 64, 47
1, 180750, Control_c, 0, 64, 64
1, 180769, Control_c, 0, 64, 78
1, 180789, Control_c, 0, 64, 91
1, 180806, Control_c, 0, 64, 102
1, 180826, Control_c, 0, 64, 110
1, 180863, Control_c, 0, 64, 114
1, 180921, Note_off_c, 0, 65, 37
1, 180921, Note_on_c, 0, 71, 76
1, 180962, Note_off_c, 0, 59, 50
1, 180962, Poly_aftertouch_c, 0, 59, 0
1, 181096, Note_off_c, 0, 49, 34
1, 181096, Poly_aftertouch_c, 0, 49, 0
1, 181162, Control_c, 0, 64, 109
1, 181199, Control_c, 0, 64, 103
1, 181218, Control_c, 0, 64, 98
1, 181237, Control_c, 0, 64, 92
1, 181255, Control_c, 0, 64, 87
1, 181274, Control_c, 0, 64, 82
1, 181289, Note_on_c, 0, 54, 64
1, 181290, Control_c, 0, 64, 79
1, 181311, Control_c, 0, 64, 76
1, 181319, Note_on_c, 0, 50, 44
1, 181331, Control_c, 0, 64, 72
1, 181345, Note_off_c, 0, 56, 31
1, 181345, Poly_aftertouch_c, 0, 56, 0
1, 181347, Control_c, 0, 64, 68
1, 181367, Control_c, 0, 64, 64
1, 181387, Control_c, 0, 64, 60
1, 181404, Control_c, 0, 64, 57
1, 181424, Control_c, 0, 64, 55
1, 181443, Control_c, 0, 64, 51
1, 181462, Control_c, 0, 64, 47
1, 181479, Control_c, 0, 64, 40
1, 181498, Control_c, 0, 64, 34
1, 181518, Control_c, 0, 64, 29
1, 181592, Control_c, 0, 64, 41
1, 181611, Control_c, 0, 64, 55
1, 181629, Control_c, 0, 64, 70
1, 181648, Note_on_c, 0, 69, 63
1, 181648, Control_c, 0, 64, 80
1, 181667, Control_c, 0, 64, 90
1, 181677, Note_off_c, 0, 71, 55
1, 181685, Control_c, 0, 64, 97
1, 181816, Control_c, 0, 64, 91
1, 181836, Control_c, 0, 64, 87
1, 181854, Control_c, 0, 64, 83
1, 181873, Control_c, 0, 64, 80
1, 181891, Control_c, 0, 64, 77
1, 181910, Control_c, 0, 64, 74
1, 181928, Control_c, 0, 64, 71
1, 181947, Control_c, 0, 64, 68
1, 181965, Control_c, 0, 64, 65
1, 181985, Control_c, 0, 64, 62
1, 182000, Note_on_c, 0, 47, 47
1, 182003, Control_c, 0, 64, 60
1, 182021, Note_on_c, 0, 68, 61
1, 182021, Control_c, 0, 64, 57
1, 182059, Note_off_c, 0, 69, 55
1, 182059, Control_c, 0, 64, 54
1, 182078, Control_c, 0, 64, 50
1, 182096, Control_c, 0, 64, 47
1, 182116, Control_c, 0, 64, 42
1, 182124, Note_off_c, 0, 50, 38
1, 182135, Control_c, 0, 64, 37
1, 182153, Control_c, 0, 64, 32
1, 182172, Control_c, 0, 64, 28
1, 182266, Control_c, 0, 64, 37
1, 182283, Control_c, 0, 64, 49
1, 182296, Note_on_c, 0, 71, 63
1, 182302, Control_c, 0, 64, 61
1, 182321, Control_c, 0, 64, 71
1, 182340, Control_c, 0, 64, 77
1, 182359, Control_c, 0, 64, 81
1, 182361, Note_off_c, 0, 68, 51
1, 182361, Poly_aftertouch_c, 0, 68, 0
1, 182377, Control_c, 0, 64, 85
1, 182396, Control_c, 0, 64, 87
1, 182507, Control_c, 0, 64, 85
1, 182512, Note_on_c, 0, 69, 69
1, 182527, Control_c, 0, 64, 83
1, 182564, Control_c, 0, 64, 79
1, 182571, Note_off_c, 0, 71, 54
1, 182583, Control_c, 0, 64, 77
1, 182602, Control_c, 0, 64, 74
1, 182639, Control_c, 0, 64, 71
1, 182676, Control_c, 0, 64, 68
1, 182695, Control_c, 0, 64, 65
1, 182709, Note_on_c, 0, 53, 55
1, 182714, Control_c, 0, 64, 63
1, 182733, Control_c, 0, 64, 60
1, 182734, Note_on_c, 0, 49, 52
1, 182735, Note_on_c, 0, 68, 57
1, 182769, Control_c, 0, 64, 56
1, 182773, Note_off_c, 0, 69, 48
1, 182786, Note_off_c, 0, 54, 53
1, 182786, Poly_aftertouch_c, 0, 54, 0
1, 182789, Control_c, 0, 64, 54
1, 182800, Note_off_c, 0, 47, 32
1, 182800, Poly_aftertouch_c, 0, 47, 0
1, 182807, Control_c, 0, 64, 52
1, 182825, Control_c, 0, 64, 49
1, 182845, Control_c, 0, 64, 46
1, 182863, Control_c, 0, 64, 39
1, 182882, Control_c, 0, 64, 32
1, 182900, Control_c, 0, 64, 27
1, 182948, Note_on_c, 0, 66, 59
1, 182985, Note_off_c, 0, 68, 53
1, 182985, Poly_aftertouch_c, 0, 68, 0
1, 183013, Control_c, 0, 64, 32
1, 183032, Control_c, 0, 64, 41
1, 183050, Control_c, 0, 64, 51
1, 183071, Control_c, 0, 64, 61
1, 183087, Control_c, 0, 64, 69
1, 183107, Control_c, 0, 64, 74
1, 183125, Control_c, 0, 64, 78
1, 183144, Control_c, 0, 64, 81
1, 183162, Control_c, 0, 64, 83
1, 183181, Note_on_c, 0, 65, 60
1, 183184, Note_off_c, 0, 49, 61
1, 183184, Poly_aftertouch_c, 0, 49, 0
1, 183193, Note_off_c, 0, 66, 53
1, 183200, Control_c, 0, 64, 85
1, 183256, Control_c, 0, 64, 83
1, 183293, Control_c, 0, 64, 80
1, 183313, Control_c, 0, 64, 78
1, 183331, Control_c, 0, 64, 75
1, 183349, Control_c, 0, 64, 72
1, 183368, Control_c, 0, 64, 68
1, 183388, Control_c, 0, 64, 64
1, 183407, Control_c, 0, 64, 61
1, 183424, Note_on_c, 0, 49, 61
1, 183424, Control_c, 0, 64, 57
1, 183437, Note_on_c, 0, 45, 48
1, 183440, Note_on_c, 0, 66, 59
1, 183442, Control_c, 0, 64, 55
1, 183448, Note_off_c, 0, 65, 53
1, 183462, Control_c, 0, 64, 51
1, 183480, Control_c, 0, 64, 48
1, 183499, Control_c, 0, 64, 42
1, 183517, Control_c, 0, 64, 34
1, 183537, Control_c, 0, 64, 27
1, 183555, Control_c, 0, 64, 22
1, 183573, Note_off_c, 0, 53, 48
1, 183573, Poly_aftertouch_c, 0, 53, 0
1, 183649, Control_c, 0, 64, 34
1, 183662, Note_on_c, 0, 68, 65
1, 183666, Control_c, 0, 64, 46
1, 183686, Control_c, 0, 64, 59
1, 183704, Control_c, 0, 64, 70
1, 183724, Control_c, 0, 64, 76
1, 183742, Control_c, 0, 64, 82
1, 183761, Control_c, 0, 64, 87
1, 183780, Control_c, 0, 64, 92
1, 183817, Control_c, 0, 64, 97
1, 183835, Note_off_c, 0, 45, 58
1, 183835, Poly_aftertouch_c, 0, 45, 0
1, 183858, Note_off_c, 0, 66, 33
1, 183884, Note_on_c, 0, 69, 72
1, 183897, Note_off_c, 0, 68, 60
1, 183897, Poly_aftertouch_c, 0, 68, 0
1, 183967, Control_c, 0, 64, 92
1, 184024, Control_c, 0, 64, 86
1, 184041, Control_c, 0, 64, 84
1, 184061, Control_c, 0, 64, 81
1, 184079, Control_c, 0, 64, 77
1, 184097, Control_c, 0, 64, 71
1, 184116, Control_c, 0, 64, 66
1, 184135, Control_c, 0, 64, 63
1, 184146, Note_on_c, 0, 53, 65
1, 184153, Control_c, 0, 64, 61
1, 184161, Note_on_c, 0, 71, 64
1, 184170, Note_on_c, 0, 44, 56
1, 184191, Control_c, 0, 64, 58
1, 184210, Control_c, 0, 64, 55
1, 184229, Control_c, 0, 64, 53
1, 184241, Note_off_c, 0, 69, 55
1, 184245, Note_off_c, 0, 49, 55
1, 184245, Poly_aftertouch_c, 0, 49, 0
1, 184246, Control_c, 0, 64, 49
1, 184266, Control_c, 0, 64, 46
1, 184285, Control_c, 0, 64, 41
1, 184303, Control_c, 0, 64, 36
1, 184322, Control_c, 0, 64, 32
1, 184359, Control_c, 0, 64, 27
1, 184405, Note_on_c, 0, 73, 73
1, 184474, Note_off_c, 0, 71, 57
1, 184491, Control_c, 0, 64, 34
1, 184509, Control_c, 0, 64, 43
1, 184527, Control_c, 0, 64, 54
1, 184547, Control_c, 0, 64, 64
1, 184564, Control_c, 0, 64, 73
1, 184584, Control_c, 0, 64, 80
1, 184602, Control_c, 0, 64, 89
1, 184621, Control_c, 0, 64, 100
1, 184636, Note_on_c, 0, 74, 80
1, 184639, Control_c, 0, 64, 111
1, 184658, Control_c, 0, 64, 121
1, 184671, Note_off_c, 0, 73, 56
1, 184671, Poly_aftertouch_c, 0, 73, 0
1, 184677, Control_c, 0, 64, 127
1, 184778, Note_off_c, 0, 44, 60
1, 184790, Note_off_c, 0, 74, 43
1, 184790, Poly_aftertouch_c, 0, 74, 0
1, 184933, Note_on_c, 0, 61, 70
1, 184936, Note_on_c, 0, 45, 55
1, 184940, Control_c, 0, 64, 120
1, 184958, Control_c, 0, 64, 113
1, 184976, Control_c, 0, 64, 106
1, 184995, Control_c, 0, 64, 99
1, 185015, Control_c, 0, 64, 93
1, 185032, Control_c, 0, 64, 87
1, 185051, Control_c, 0, 64, 81
1, 185072, Control_c, 0, 64, 75
1, 185089, Control_c, 0, 64, 71
1, 185107, Control_c, 0, 64, 68
1, 185126, Control_c, 0, 64, 66
1, 185145, Control_c, 0, 64, 64
1, 185163, Control_c, 0, 64, 62
1, 185182, Control_c, 0, 64, 60
1, 185220, Control_c, 0, 64, 58
1, 185237, Control_c, 0, 64, 56
1, 185242, Note_on_c, 0, 54, 62
1, 185277, Control_c, 0, 64, 52
1, 185293, Note_off_c, 0, 53, 57
1, 185293, Poly_aftertouch_c, 0, 53, 0
1, 185294, Control_c, 0, 64, 50
1, 185333, Control_c, 0, 64, 46
1, 185351, Control_c, 0, 64, 44
1, 185369, Control_c, 0, 64, 40
1, 185407, Control_c, 0, 64, 34
1, 185445, Control_c, 0, 64, 28
1, 185481, Control_c, 0, 64, 23
1, 185488, Note_on_c, 0, 52, 65
1, 185518, Control_c, 0, 64, 17
1, 185530, Note_off_c, 0, 54, 61
1, 185530, Poly_aftertouch_c, 0, 54, 0
1, 185557, Control_c, 0, 64, 8
1, 185575, Control_c, 0, 64, 0
1, 185738, Note_on_c, 0, 50, 53
1, 185747, Note_on_c, 0, 66, 69
1, 185751, Note_on_c, 0, 56, 69
1, 185804, Note_off_c, 0, 61, 50
1, 185804, Poly_aftertouch_c, 0, 61, 0
1, 185882, Note_off_c, 0, 52, 37
1, 185997, Note_on_c, 0, 49, 61
1, 186040, Note_off_c, 0, 45, 32
1, 186040, Poly_aftertouch_c, 0, 45, 0
1, 186228, Note_off_c, 0, 50, 25
1, 186238, Note_on_c, 0, 47, 61
1, 186294, Note_off_c, 0, 49, 62
1, 186294, Poly_aftertouch_c, 0, 49, 0
1, 186547, Note_on_c, 0, 57, 67
1, 186554, Note_on_c, 0, 49, 56
1, 186628, Note_off_c, 0, 56, 42
1, 186628, Poly_aftertouch_c, 0, 56, 0
1, 186658, Note_off_c, 0, 47, 55
1, 186658, Poly_aftertouch_c, 0, 47, 0
1, 186809, Control_c, 0, 64, 24
1, 186828, Control_c, 0, 64, 42
1, 186847, Control_c, 0, 64, 59
1, 186865, Control_c, 0, 64, 69
1, 186884, Control_c, 0, 64, 77
1, 186903, Control_c, 0, 64, 84
1, 186921, Control_c, 0, 64, 93
1, 186928, Note_off_c, 0, 66, 59
1, 186939, Control_c, 0, 64, 102
1, 186959, Control_c, 0, 64, 109
1, 186976, Control_c, 0, 64, 115
1, 186996, Control_c, 0, 64, 120
1, 187014, Control_c, 0, 64, 124
1, 187068, Note_on_c, 0, 66, 68
1, 187501, Control_c, 0, 64, 114
1, 187519, Control_c, 0, 64, 107
1, 187538, Control_c, 0, 64, 100
1, 187556, Control_c, 0, 64, 93
1, 187576, Control_c, 0, 64, 87
1, 187581, Note_on_c, 0, 59, 60
1, 187589, Note_on_c, 0, 37, 45
1, 187595, Control_c, 0, 64, 79
1, 187613, Control_c, 0, 64, 72
1, 187631, Control_c, 0, 64, 66
1, 187650, Control_c, 0, 64, 61
1, 187668, Control_c, 0, 64, 58
1, 187688, Control_c, 0, 64, 55
1, 187706, Control_c, 0, 64, 51
1, 187725, Control_c, 0, 64, 48
1, 187745, Control_c, 0, 64, 43
1, 187763, Control_c, 0, 64, 38
1, 187771, Note_off_c, 0, 57, 24
1, 187771, Poly_aftertouch_c, 0, 57, 0
1, 187780, Control_c, 0, 64, 34
1, 187799, Control_c, 0, 64, 29
1, 187837, Control_c, 0, 64, 25
1, 187912, Control_c, 0, 64, 21
1, 187986, Control_c, 0, 64, 17
1, 188248, Control_c, 0, 64, 13
1, 188313, Note_on_c, 0, 65, 56
1, 188322, Control_c, 0, 64, 8
1, 188361, Control_c, 0, 64, 0
1, 188372, Note_off_c, 0, 66, 51
1, 188585, Control_c, 0, 64, 12
1, 188604, Control_c, 0, 64, 20
1, 188622, Control_c, 0, 64, 27
1, 188642, Control_c, 0, 64, 35
1, 188659, Control_c, 0, 64, 45
1, 188680, Control_c, 0, 64, 55
1, 188698, Control_c, 0, 64, 62
1, 188716, Control_c, 0, 64, 67
1, 188736, Control_c, 0, 64, 72
1, 188753, Control_c, 0, 64, 76
1, 188773, Control_c, 0, 64, 80
1, 188790, Control_c, 0, 64, 85
1, 188809, Control_c, 0, 64, 91
1, 188828, Control_c, 0, 64, 96
1, 188847, Control_c, 0, 64, 100
1, 188849, Note_off_c, 0, 59, 28
1, 188849, Poly_aftertouch_c, 0, 59, 0
1, 188866, Control_c, 0, 64, 104
1, 188903, Control_c, 0, 64, 110
1, 188959, Control_c, 0, 64, 115
1, 189041, Poly_aftertouch_c, 0, 37, 24
1, 189290, Poly_aftertouch_c, 0, 37, 22
1, 189351, Control_c, 0, 64, 111
1, 189407, Control_c, 0, 64, 106
1, 189447, Control_c, 0, 64, 100
1, 189482, Control_c, 0, 64, 95
1, 189484, Note_off_c, 0, 37, 19
1, 189484, Poly_aftertouch_c, 0, 37, 0
1, 189493, Note_off_c, 0, 65, 29
1, 189517, Note_on_c, 0, 66, 48
1, 189519, Control_c, 0, 64, 88
1, 189531, Note_on_c, 0, 42, 39
1, 189536, Control_c, 0, 64, 84
1, 189541, Note_on_c, 0, 58, 40
1, 189557, Control_c, 0, 64, 78
1, 189576, Control_c, 0, 64, 69
1, 189596, Control_c, 0, 64, 59
1, 189613, Control_c, 0, 64, 49
1, 189633, Control_c, 0, 64, 40
1, 189651, Control_c, 0, 64, 31
1, 189670, Control_c, 0, 64, 24
1, 189688, Control_c, 0, 64, 19
1, 189726, Control_c, 0, 64, 15
1, 189949, Control_c, 0, 64, 11
1, 190455, Control_c, 0, 64, 15
1, 190549, Control_c, 0, 64, 19
1, 193848, Poly_aftertouch_c, 0, 58, 24
1, 194103, Poly_aftertouch_c, 0, 58, 20
1, 194147, Note_off_c, 0, 58, 19
1, 194147, Poly_aftertouch_c, 0, 58, 0
1, 194245, Note_off_c, 0, 42, 42
1, 194321, Note_off_c, 0, 66, 44
1, 194353, Note_off_c, 0, 49, 54
1, 194353, Poly_aftertouch_c, 0, 49, 0
1, 196065, Control_c, 0, 64, 23
1, 196531, Control_c, 0, 64, 27
1, 198963, Control_c, 0, 64, 23
1, 198980, Note_on_c, 0, 61, 62
1, 199057, Control_c, 0, 64, 19
1, 199150, Control_c, 0, 64, 15
1, 199208, Note_off_c, 0, 61, 50
1, 199208, Poly_aftertouch_c, 0, 61, 0
1, 199225, Control_c, 0, 64, 11
1, 199355, Control_c, 0, 64, 0
1, 199367, Note_on_c, 0, 57, 67
1, 199558, Note_off_c, 0, 57, 57
1, 199558, Poly_aftertouch_c, 0, 57, 0
1, 199741, Note_on_c, 0, 54, 72
1, 199948, Note_off_c, 0, 54, 52
1, 199948, Poly_aftertouch_c, 0, 54, 0
1, 200130, Note_on_c, 0, 62, 78
1, 201273, Note_off_c, 0, 62, 47
1, 201307, Note_on_c, 0, 61, 70
1, 201405, Note_off_c, 0, 61, 59
1, 201405, Poly_aftertouch_c, 0, 61, 0
1, 201483, Note_on_c, 0, 59, 71
1, 201572, Note_off_c, 0, 59, 59
1, 201572, Poly_aftertouch_c, 0, 59, 0
1, 201677, Note_on_c, 0, 61, 74
1, 202367, Control_c, 0, 64, 27
1, 202385, Control_c, 0, 64, 46
1, 202404, Control_c, 0, 64, 64
1, 202422, Control_c, 0, 64, 73
1, 202441, Control_c, 0, 64, 81
1, 202461, Control_c, 0, 64, 91
1, 202478, Control_c, 0, 64, 102
1, 202497, Control_c, 0, 64, 113
1, 202515, Control_c, 0, 64, 122
1, 202535, Control_c, 0, 64, 127
1, 202655, Note_off_c, 0, 61, 36
1, 202655, Poly_aftertouch_c, 0, 61, 0
1, 202777, Control_c, 0, 64, 120
1, 202796, Control_c, 0, 64, 101
1, 202800, Note_on_c, 0, 66, 84
1, 202815, Control_c, 0, 64, 80
1, 202833, Control_c, 0, 64, 59
1, 202853, Control_c, 0, 64, 34
1, 202872, Control_c, 0, 64, 0
1, 203016, Note_off_c, 0, 66, 60
1, 203211, Note_on_c, 0, 59, 73
1, 204313, Note_off_c, 0, 59, 52
1, 204313, Poly_aftertouch_c, 0, 59, 0
1, 204343, Note_on_c, 0, 57, 64
1, 204444, Note_off_c, 0, 57, 57
1, 204444, Poly_aftertouch_c, 0, 57, 0
1, 204519, Note_on_c, 0, 56, 67
1, 204614, Note_off_c, 0, 56, 59
1, 204614, Poly_aftertouch_c, 0, 56, 0
1, 204697, Note_on_c, 0, 57, 66
1, 204812, Note_off_c, 0, 57, 56
1, 204812, Poly_aftertouch_c, 0, 57, 0
1, 205076, Note_on_c, 0, 54, 61
1, 205185, Note_off_c, 0, 54, 62
1, 205185, Poly_aftertouch_c, 0, 54, 0
1, 205466, Note_on_c, 0, 57, 44
1, 205489, Control_c, 0, 64, 17
1, 205506, Control_c, 0, 64, 30
1, 205526, Control_c, 0, 64, 42
1, 205545, Control_c, 0, 64, 56
1, 205564, Control_c, 0, 64, 64
1, 205583, Control_c, 0, 64, 69
1, 205601, Control_c, 0, 64, 73
1, 205620, Control_c, 0, 64, 78
1, 205638, Control_c, 0, 64, 83
1, 205647, Note_off_c, 0, 57, 51
1, 205647, Poly_aftertouch_c, 0, 57, 0
1, 205656, Note_on_c, 0, 56, 60
1, 205657, Control_c, 0, 64, 87
1, 205716, Note_off_c, 0, 56, 59
1, 205716, Poly_aftertouch_c, 0, 56, 0
1, 205768, Note_on_c, 0, 57, 55
1, 205811, Note_off_c, 0, 57, 60
1, 205811, Poly_aftertouch_c, 0, 57, 0
1, 205827, Control_c, 0, 64, 84
1, 205843, Note_on_c, 0, 56, 55
1, 205863, Control_c, 0, 64, 81
1, 205881, Control_c, 0, 64, 79
1, 205884, Note_off_c, 0, 56, 65
1, 205884, Poly_aftertouch_c, 0, 56, 0
1, 205918, Control_c, 0, 64, 77
1, 205925, Note_on_c, 0, 57, 60
1, 205975, Control_c, 0, 64, 75
1, 205976, Note_off_c, 0, 57, 58
1, 205976, Poly_aftertouch_c, 0, 57, 0
1, 205995, Note_on_c, 0, 56, 61
1, 206012, Control_c, 0, 64, 72
1, 206031, Control_c, 0, 64, 70
1, 206040, Note_off_c, 0, 56, 66
1, 206040, Poly_aftertouch_c, 0, 56, 0
1, 206049, Control_c, 0, 64, 67
1, 206068, Control_c, 0, 64, 64
1, 206088, Note_on_c, 0, 57, 52
1, 206088, Control_c, 0, 64, 62
1, 206106, Control_c, 0, 64, 60
1, 206125, Control_c, 0, 64, 58
1, 206135, Note_off_c, 0, 57, 59
1, 206135, Poly_aftertouch_c, 0, 57, 0
1, 206141, Note_on_c, 0, 56, 62
1, 206142, Control_c, 0, 64, 52
1, 206162, Control_c, 0, 64, 42
1, 206180, Control_c, 0, 64, 23
1, 206198, Control_c, 0, 64, 0
1, 206930, Note_on_c, 0, 54, 46
1, 206933, Note_off_c, 0, 56, 38
1, 206933, Poly_aftertouch_c, 0, 56, 0
1, 207110, Note_off_c, 0, 54, 49
1, 207110, Poly_aftertouch_c, 0, 54, 0
1, 207318, Note_on_c, 0, 56, 59
1, 207457, Note_off_c, 0, 56, 60
1, 207457, Poly_aftertouch_c, 0, 56, 0
1, 207697, Note_on_c, 0, 57, 55
1, 207862, Note_off_c, 0, 57, 47
1, 207862, Poly_aftertouch_c, 0, 57, 0
1, 208066, Note_on_c, 0, 66, 69
1, 208075, Note_on_c, 0, 59, 54
1, 208207, Note_off_c, 0, 59, 52
1, 208207, Poly_aftertouch_c, 0, 59, 0
1, 208227, Note_off_c, 0, 66, 62
1, 208452, Note_on_c, 0, 64, 69
1, 208457, Note_on_c, 0, 61, 47
1, 208591, Note_off_c, 0, 64, 61
1, 208591, Poly_aftertouch_c, 0, 64, 0
1, 208622, Note_off_c, 0, 61, 53
1, 208622, Poly_aftertouch_c, 0, 61, 0
1, 208814, Note_on_c, 0, 61, 70
1, 208971, Note_off_c, 0, 61, 63
1, 208971, Poly_aftertouch_c, 0, 61, 0
1, 209189, Note_on_c, 0, 69, 75
1, 209550, Note_on_c, 0, 63, 59
1, 209648, Note_off_c, 0, 63, 60
1, 209925, Note_on_c, 0, 64, 59
1, 210249, Poly_aftertouch_c, 0, 69, 24
1, 210267, Note_off_c, 0, 69, 39
1, 210267, Poly_aftertouch_c, 0, 69, 0
1, 210268, Poly_aftertouch_c, 0, 69, 0
1, 210297, Note_on_c, 0, 68, 66
1, 210379, Note_off_c, 0, 68, 62
1, 210379, Poly_aftertouch_c, 0, 68, 0
1, 210453, Note_on_c, 0, 66, 70
1, 210532, Note_off_c, 0, 66, 63
1, 210644, Note_on_c, 0, 68, 76
1, 210718, Note_off_c, 0, 64, 58
1, 210718, Poly_aftertouch_c, 0, 64, 0
1, 211008, Note_on_c, 0, 64, 66
1, 211105, Note_off_c, 0, 64, 61
1, 211105, Poly_aftertouch_c, 0, 64, 0
1, 211387, Note_on_c, 0, 58, 70
1, 211725, Note_on_c, 0, 73, 81
1, 211766, Note_off_c, 0, 68, 52
1, 211766, Poly_aftertouch_c, 0, 68, 0
1, 211859, Note_off_c, 0, 73, 60
1, 211859, Poly_aftertouch_c, 0, 73, 0
1, 212104, Note_on_c, 0, 66, 80
1, 212200, Note_off_c, 0, 58, 55
1, 212200, Poly_aftertouch_c, 0, 58, 0
1, 212471, Note_on_c, 0, 60, 70
1, 212567, Note_off_c, 0, 60, 57
1, 212844, Note_on_c, 0, 61, 70
1, 213143, Note_off_c, 0, 66, 45
1, 213214, Note_on_c, 0, 64, 62
1, 213291, Note_off_c, 0, 64, 60
1, 213291, Poly_aftertouch_c, 0, 64, 0
1, 213375, Note_on_c, 0, 63, 65
1, 213467, Note_off_c, 0, 63, 56
1, 213576, Note_off_c, 0, 61, 57
1, 213576, Poly_aftertouch_c, 0, 61, 0
1, 213579, Note_on_c, 0, 64, 70
1, 213784, Note_off_c, 0, 64, 51
1, 213784, Poly_aftertouch_c, 0, 64, 0
1, 213954, Note_on_c, 0, 61, 61
1, 214279, Note_on_c, 0, 64, 56
1, 214453, Note_off_c, 0, 64, 59
1, 214453, Poly_aftertouch_c, 0, 64, 0
1, 214481, Note_on_c, 0, 63, 49
1, 214542, Note_off_c, 0, 63, 59
1, 214574, Note_on_c, 0, 64, 40
1, 214621, Note_off_c, 0, 64, 63
1, 214621, Poly_aftertouch_c, 0, 64, 0
1, 214644, Note_on_c, 0, 63, 51
1, 214656, Note_on_c, 0, 60, 43
1, 214665, Note_off_c, 0, 61, 50
1, 214665, Poly_aftertouch_c, 0, 61, 0
1, 214693, Note_off_c, 0, 63, 63
1, 214724, Note_on_c, 0, 64, 47
1, 214762, Note_off_c, 0, 64, 59
1, 214762, Poly_aftertouch_c, 0, 64, 0
1, 214790, Note_on_c, 0, 63, 53
1, 214804, Note_off_c, 0, 60, 55
1, 214829, Note_off_c, 0, 63, 63
1, 214831, Note_on_c, 0, 58, 48
1, 214861, Note_on_c, 0, 64, 48
1, 214896, Note_off_c, 0, 64, 58
1, 214896, Poly_aftertouch_c, 0, 64, 0
1, 214914, Note_on_c, 0, 63, 57
1, 214936, Note_off_c, 0, 58, 45
1, 214936, Poly_aftertouch_c, 0, 58, 0
1, 214954, Note_off_c, 0, 63, 62
1, 214987, Note_on_c, 0, 64, 40
1, 215017, Note_on_c, 0, 63, 62
1, 215028, Note_on_c, 0, 60, 56
1, 215032, Note_off_c, 0, 64, 50
1, 215032, Poly_aftertouch_c, 0, 64, 0
1, 215081, Note_off_c, 0, 60, 60
1, 215393, Note_on_c, 0, 56, 54
1, 215521, Note_off_c, 0, 56, 59
1, 215521, Poly_aftertouch_c, 0, 56, 0
1, 215772, Note_on_c, 0, 61, 65
1, 215774, Note_off_c, 0, 63, 46
1, 215786, Note_on_c, 0, 64, 45
1, 215882, Note_off_c, 0, 61, 61
1, 215882, Poly_aftertouch_c, 0, 61, 0
1, 216138, Note_on_c, 0, 73, 75
1, 216230, Note_off_c, 0, 73, 64
1, 216230, Poly_aftertouch_c, 0, 73, 0
1, 216515, Note_on_c, 0, 66, 70
1, 216796, Note_off_c, 0, 64, 54
1, 216796, Poly_aftertouch_c, 0, 64, 0
1, 216881, Note_on_c, 0, 57, 61
1, 216996, Note_off_c, 0, 57, 60
1, 216996, Poly_aftertouch_c, 0, 57, 0
1, 217250, Note_on_c, 0, 62, 61
1, 217587, Note_off_c, 0, 66, 60
1, 217597, Note_on_c, 0, 71, 73
1, 217705, Note_off_c, 0, 71, 61
1, 217971, Note_on_c, 0, 64, 73
1, 218225, Note_off_c, 0, 62, 54
1, 218343, Note_on_c, 0, 56, 55
1, 218459, Note_off_c, 0, 56, 63
1, 218459, Poly_aftertouch_c, 0, 56, 0
1, 218727, Note_on_c, 0, 61, 61
1, 219087, Note_on_c, 0, 69, 71
1, 219095, Note_off_c, 0, 64, 46
1, 219095, Poly_aftertouch_c, 0, 64, 0
1, 219448, Note_on_c, 0, 59, 57
1, 219481, Note_off_c, 0, 61, 56
1, 219481, Poly_aftertouch_c, 0, 61, 0
1, 219813, Note_on_c, 0, 68, 64
1, 219877, Note_off_c, 0, 69, 54
1, 220200, Note_on_c, 0, 57, 51
1, 220308, Note_off_c, 0, 59, 47
1, 220308, Poly_aftertouch_c, 0, 59, 0
1, 220526, Note_on_c, 0, 66, 54
1, 220643, Note_off_c, 0, 68, 39
1, 220643, Poly_aftertouch_c, 0, 68, 0
1, 220904, Note_off_c, 0, 57, 55
1, 220904, Poly_aftertouch_c, 0, 57, 0
1, 220912, Note_on_c, 0, 56, 46
1, 221253, Note_on_c, 0, 49, 77
1, 221262, Note_on_c, 0, 65, 56
1, 221265, Note_off_c, 0, 66, 51
1, 221390, Note_off_c, 0, 49, 62
1, 221390, Poly_aftertouch_c, 0, 49, 0
1, 221418, Note_off_c, 0, 56, 57
1, 221418, Poly_aftertouch_c, 0, 56, 0
1, 221616, Note_off_c, 0, 65, 58
1, 221618, Note_on_c, 0, 45, 78
1, 221625, Note_on_c, 0, 66, 63
1, 221626, Note_on_c, 0, 54, 69
1, 221719, Note_off_c, 0, 45, 62
1, 221719, Poly_aftertouch_c, 0, 45, 0
1, 221974, Note_on_c, 0, 42, 79
1, 222092, Note_off_c, 0, 42, 63
1, 222326, Note_off_c, 0, 66, 36
1, 222336, Note_off_c, 0, 54, 53
1, 222336, Poly_aftertouch_c, 0, 54, 0
1, 222339, Note_on_c, 0, 50, 82
1, 222693, Note_on_c, 0, 71, 66
1, 222873, Note_off_c, 0, 71, 58
1, 223054, Note_on_c, 0, 68, 74
1, 223276, Note_off_c, 0, 68, 58
1, 223276, Poly_aftertouch_c, 0, 68, 0
1, 223387, Note_off_c, 0, 50, 54
1, 223402, Note_on_c, 0, 49, 73
1, 223405, Note_on_c, 0, 64, 57
1, 223495, Note_off_c, 0, 49, 64
1, 223495, Poly_aftertouch_c, 0, 49, 0
1, 223575, Note_on_c, 0, 47, 75
1, 223675, Note_off_c, 0, 47, 59
1, 223675, Poly_aftertouch_c, 0, 47, 0
1, 223758, Note_off_c, 0, 64, 56
1, 223758, Poly_aftertouch_c, 0, 64, 0
1, 223759, Note_on_c, 0, 49, 83
1, 223766, Note_on_c, 0, 52, 78
1, 224132, Note_on_c, 0, 69, 73
1, 224270, Note_off_c, 0, 69, 53
1, 224463, Note_off_c, 0, 52, 57
1, 224469, Note_on_c, 0, 57, 65
1, 224474, Note_on_c, 0, 66, 65
1, 224651, Note_off_c, 0, 66, 58
1, 224838, Note_on_c, 0, 54, 86
1, 224844, Note_on_c, 0, 63, 68
1, 224896, Note_off_c, 0, 49, 62
1, 224896, Poly_aftertouch_c, 0, 49, 0
1, 224954, Note_off_c, 0, 63, 59
1, 224994, Note_off_c, 0, 54, 61
1, 224994, Poly_aftertouch_c, 0, 54, 0
1, 225189, Note_on_c, 0, 47, 81
1, 225199, Note_on_c, 0, 62, 69
1, 225256, Note_off_c, 0, 57, 57
1, 225256, Poly_aftertouch_c, 0, 57, 0
1, 225344, Note_off_c, 0, 62, 56
1, 225567, Note_on_c, 0, 68, 73
1, 225577, Note_on_c, 0, 59, 64
1, 225670, Note_off_c, 0, 59, 60
1, 225670, Poly_aftertouch_c, 0, 59, 0
1, 225750, Note_off_c, 0, 68, 59
1, 225750, Poly_aftertouch_c, 0, 68, 0
1, 225920, Note_on_c, 0, 56, 62
1, 225923, Note_on_c, 0, 65, 69
1, 226050, Note_off_c, 0, 65, 58
1, 226264, Note_off_c, 0, 47, 50
1, 226264, Poly_aftertouch_c, 0, 47, 0
1, 226265, Note_on_c, 0, 45, 70
1, 226275, Note_on_c, 0, 61, 70
1, 226362, Note_off_c, 0, 61, 58
1, 226362, Poly_aftertouch_c, 0, 61, 0
1, 226389, Note_off_c, 0, 45, 50
1, 226389, Poly_aftertouch_c, 0, 45, 0
1, 226425, Note_on_c, 0, 44, 74
1, 226554, Note_off_c, 0, 44, 57
1, 226623, Note_on_c, 0, 45, 70
1, 226635, Note_on_c, 0, 66, 70
1, 226728, Note_off_c, 0, 56, 53
1, 226728, Poly_aftertouch_c, 0, 56, 0
1, 226756, Note_off_c, 0, 45, 62
1, 226756, Poly_aftertouch_c, 0, 45, 0
1, 226987, Note_on_c, 0, 57, 59
1, 226991, Note_on_c, 0, 42, 63
1, 227087, Note_off_c, 0, 42, 63
1, 227111, Note_off_c, 0, 57, 55
1, 227111, Poly_aftertouch_c, 0, 57, 0
1, 227216, Control_c, 0, 64, 11
1, 227254, Control_c, 0, 64, 18
1, 227272, Control_c, 0, 64, 22
1, 227291, Control_c, 0, 64, 28
1, 227310, Control_c, 0, 64, 34
1, 227327, Control_c, 0, 64, 43
1, 227333, Note_on_c, 0, 59, 55
1, 227347, Control_c, 0, 64, 54
1, 227356, Note_on_c, 0, 45, 55
1, 227366, Control_c, 0, 64, 61
1, 227385, Control_c, 0, 64, 66
1, 227403, Control_c, 0, 64, 68
1, 227422, Control_c, 0, 64, 70
1, 227441, Control_c, 0, 64, 74
1, 227460, Control_c, 0, 64, 78
1, 227478, Control_c, 0, 64, 83
1, 227497, Control_c, 0, 64, 89
1, 227515, Note_off_c, 0, 45, 59
1, 227515, Poly_aftertouch_c, 0, 45, 0
1, 227515, Control_c, 0, 64, 93
1, 227527, Note_on_c, 0, 44, 61
1, 227552, Control_c, 0, 64, 98
1, 227595, Note_off_c, 0, 44, 62
1, 227643, Note_on_c, 0, 45, 53
1, 227660, Note_on_c, 0, 62, 56
1, 227687, Note_off_c, 0, 45, 62
1, 227687, Poly_aftertouch_c, 0, 45, 0
1, 227693, Note_on_c, 0, 44, 61
1, 227746, Note_off_c, 0, 44, 62
1, 227760, Control_c, 0, 64, 93
1, 227782, Note_on_c, 0, 45, 61
1, 227795, Control_c, 0, 64, 89
1, 227814, Control_c, 0, 64, 87
1, 227835, Note_off_c, 0, 45, 59
1, 227835, Poly_aftertouch_c, 0, 45, 0
1, 227842, Note_on_c, 0, 44, 67
1, 227852, Control_c, 0, 64, 83
1, 227870, Control_c, 0, 64, 80
1, 227889, Note_off_c, 0, 44, 62
1, 227889, Note_off_c, 0, 66, 60
1, 227889, Control_c, 0, 64, 77
1, 227909, Control_c, 0, 64, 73
1, 227927, Control_c, 0, 64, 69
1, 227936, Note_on_c, 0, 45, 57
1, 227945, Control_c, 0, 64, 66
1, 227965, Control_c, 0, 64, 63
1, 227983, Control_c, 0, 64, 61
1, 227986, Note_off_c, 0, 45, 59
1, 227986, Poly_aftertouch_c, 0, 45, 0
1, 227990, Note_on_c, 0, 44, 62
1, 227994, Note_off_c, 0, 62, 55
1, 228001, Control_c, 0, 64, 59
1, 228017, Note_on_c, 0, 65, 58
1, 228020, Control_c, 0, 64, 57
1, 228040, Control_c, 0, 64, 54
1, 228047, Note_off_c, 0, 59, 57
1, 228047, Poly_aftertouch_c, 0, 59, 0
1, 228058, Control_c, 0, 64, 50
1, 228076, Control_c, 0, 64, 46
1, 228095, Control_c, 0, 64, 39
1, 228114, Control_c, 0, 64, 32
1, 228132, Control_c, 0, 64, 26
1, 228151, Control_c, 0, 64, 21
1, 228169, Control_c, 0, 64, 17
1, 228207, Control_c, 0, 64, 12
1, 228344, Note_on_c, 0, 56, 50
1, 228451, Control_c, 0, 64, 8
1, 228487, Note_off_c, 0, 56, 48
1, 228487, Poly_aftertouch_c, 0, 56, 0
1, 228686, Note_off_c, 0, 65, 55
1, 228705, Note_on_c, 0, 66, 54
1, 228718, Note_on_c, 0, 57, 41
1, 228723, Note_on_c, 0, 42, 38
1, 228774, Note_off_c, 0, 44, 32
1, 228846, Note_off_c, 0, 57, 49
1, 228846, Poly_aftertouch_c, 0, 57, 0
1, 228863, Note_off_c, 0, 66, 49
1, 229062, Note_on_c, 0, 69, 57
1, 229082, Note_on_c, 0, 61, 46
1, 229103, Note_off_c, 0, 42, 56
1, 229141, Note_off_c, 0, 61, 57
1, 229141, Poly_aftertouch_c, 0, 61, 0
1, 229203, Note_off_c, 0, 69, 62
1, 229405, Note_on_c, 0, 50, 40
1, 229421, Control_c, 0, 64, 0
1, 229423, Note_on_c, 0, 71, 60
1, 229581, Note_off_c, 0, 71, 58
1, 229787, Note_on_c, 0, 74, 60
1, 229793, Note_on_c, 0, 54, 46
1, 229901, Note_off_c, 0, 54, 56
1, 229901, Poly_aftertouch_c, 0, 54, 0
1, 230086, Note_off_c, 0, 74, 39
1, 230086, Poly_aftertouch_c, 0, 74, 0
1, 230127, Note_on_c, 0, 56, 61
1, 230270, Note_off_c, 0, 56, 62
1, 230270, Poly_aftertouch_c, 0, 56, 0
1, 230475, Note_on_c, 0, 68, 73
1, 230483, Note_on_c, 0, 59, 59
1, 230606, Note_off_c, 0, 59, 56
1, 230606, Poly_aftertouch_c, 0, 59, 0
1, 230648, Note_off_c, 0, 68, 57
1, 230648, Poly_aftertouch_c, 0, 68, 0
1, 230840, Note_on_c, 0, 49, 59
1, 230840, Note_on_c, 0, 69, 72
1, 230901, Note_off_c, 0, 50, 58
1, 231003, Note_off_c, 0, 69, 58
1, 231192, Note_on_c, 0, 73, 71
1, 231193, Note_on_c, 0, 57, 66
1, 231345, Note_off_c, 0, 57, 51
1, 231345, Poly_aftertouch_c, 0, 57, 0
1, 231363, Note_off_c, 0, 73, 53
1, 231363, Poly_aftertouch_c, 0, 73, 0
1, 231558, Note_on_c, 0, 62, 74
1, 231561, Note_on_c, 0, 47, 44
1, 231583, Note_off_c, 0, 49, 55
1, 231583, Poly_aftertouch_c, 0, 49, 0
1, 231942, Note_on_c, 0, 66, 57
1, 232060, Note_off_c, 0, 66, 39
1, 232095, Note_on_c, 0, 68, 56
1, 232180, Note_off_c, 0, 62, 46
1, 232269, Note_on_c, 0, 59, 73
1, 232277, Note_off_c, 0, 68, 39
1, 232277, Poly_aftertouch_c, 0, 68, 0
1, 232294, Note_on_c, 0, 69, 56
1, 232301, Note_off_c, 0, 47, 41
1, 232301, Poly_aftertouch_c, 0, 47, 0
1, 232431, Note_off_c, 0, 69, 58
1, 232439, Note_on_c, 0, 68, 57
1, 232544, Note_off_c, 0, 68, 59
1, 232544, Poly_aftertouch_c, 0, 68, 0
1, 232594, Note_on_c, 0, 69, 58
1, 232607, Note_on_c, 0, 52, 58
1, 232673, Note_off_c, 0, 52, 57
1, 232674, Note_on_c, 0, 68, 68
1, 232682, Note_off_c, 0, 69, 59
1, 232741, Note_off_c, 0, 68, 62
1, 232741, Poly_aftertouch_c, 0, 68, 0
1, 232746, Note_on_c, 0, 66, 69
1, 232825, Note_on_c, 0, 68, 66
1, 232833, Note_off_c, 0, 66, 54
1, 232941, Note_on_c, 0, 64, 67
1, 232942, Note_off_c, 0, 68, 62
1, 232942, Poly_aftertouch_c, 0, 68, 0
1, 232944, Note_on_c, 0, 69, 72
1, 232953, Note_on_c, 0, 49, 64
1, 233034, Note_off_c, 0, 64, 63
1, 233034, Poly_aftertouch_c, 0, 64, 0
1, 233051, Note_off_c, 0, 49, 62
1, 233051, Poly_aftertouch_c, 0, 49, 0
1, 233058, Note_off_c, 0, 59, 56
1, 233058, Poly_aftertouch_c, 0, 59, 0
1, 233303, Note_on_c, 0, 61, 76
1, 233306, Note_on_c, 0, 45, 59
1, 233404, Note_off_c, 0, 45, 59
1, 233404, Poly_aftertouch_c, 0, 45, 0
1, 233447, Note_off_c, 0, 61, 59
1, 233447, Poly_aftertouch_c, 0, 61, 0
1, 233646, Note_on_c, 0, 63, 75
1, 233655, Note_off_c, 0, 69, 61
1, 233657, Note_on_c, 0, 54, 61
1, 233803, Note_off_c, 0, 63, 60
1, 234011, Note_on_c, 0, 75, 81
1, 234029, Note_on_c, 0, 66, 63
1, 234146, Note_off_c, 0, 66, 57
1, 234179, Note_off_c, 0, 75, 63
1, 234367, Note_on_c, 0, 72, 79
1, 234532, Note_off_c, 0, 72, 56
1, 234716, Note_on_c, 0, 60, 74
1, 234716, Note_on_c, 0, 68, 69
1, 234845, Note_off_c, 0, 60, 57
1, 235023, Note_off_c, 0, 68, 49
1, 235023, Poly_aftertouch_c, 0, 68, 0
1, 235064, Note_on_c, 0, 61, 80
1, 235080, Note_on_c, 0, 52, 60
1, 235085, Note_off_c, 0, 54, 53
1, 235085, Poly_aftertouch_c, 0, 54, 0
1, 235210, Note_off_c, 0, 61, 57
1, 235210, Poly_aftertouch_c, 0, 61, 0
1, 235425, Note_on_c, 0, 73, 82
1, 235431, Note_on_c, 0, 64, 65
1, 235540, Note_off_c, 0, 64, 55
1, 235540, Poly_aftertouch_c, 0, 64, 0
1, 235603, Note_off_c, 0, 73, 59
1, 235603, Poly_aftertouch_c, 0, 73, 0
1, 235763, Note_on_c, 0, 51, 61
1, 235816, Control_c, 0, 64, 12
1, 235820, Note_on_c, 0, 78, 84
1, 235825, Note_off_c, 0, 52, 53
1, 235854, Control_c, 0, 64, 20
1, 235874, Control_c, 0, 64, 24
1, 235893, Control_c, 0, 64, 31
1, 235911, Control_c, 0, 64, 42
1, 235930, Control_c, 0, 64, 54
1, 235948, Control_c, 0, 64, 64
1, 235968, Control_c, 0, 64, 70
1, 235985, Control_c, 0, 64, 76
1, 236006, Control_c, 0, 64, 84
1, 236024, Control_c, 0, 64, 96
1, 236042, Control_c, 0, 64, 108
1, 236061, Control_c, 0, 64, 117
1, 236079, Control_c, 0, 64, 127
1, 236165, Note_on_c, 0, 58, 67
1, 236342, Note_on_c, 0, 60, 73
1, 236352, Note_off_c, 0, 58, 60
1, 236352, Poly_aftertouch_c, 0, 58, 0
1, 236403, Note_off_c, 0, 51, 54
1, 236471, Control_c, 0, 64, 118
1, 236491, Control_c, 0, 64, 104
1, 236510, Control_c, 0, 64, 81
1, 236517, Note_off_c, 0, 60, 54
1, 236526, Control_c, 0, 64, 54
1, 236527, Note_on_c, 0, 75, 80
1, 236533, Note_on_c, 0, 61, 71
1, 236546, Control_c, 0, 64, 8
1, 236566, Control_c, 0, 64, 0
1, 236592, Note_off_c, 0, 78, 58
1, 236592, Poly_aftertouch_c, 0, 78, 0
1, 236603, Control_c, 0, 64, 27
1, 236621, Control_c, 0, 64, 50
1, 236641, Control_c, 0, 64, 69
1, 236659, Control_c, 0, 64, 81
1, 236677, Control_c, 0, 64, 91
1, 236682, Note_on_c, 0, 60, 70
1, 236683, Note_off_c, 0, 61, 60
1, 236683, Poly_aftertouch_c, 0, 61, 0
1, 236698, Control_c, 0, 64, 100
1, 236716, Control_c, 0, 64, 105
1, 236753, Control_c, 0, 64, 110
1, 236815, Note_off_c, 0, 60, 61
1, 236835, Note_on_c, 0, 56, 73
1, 236839, Note_on_c, 0, 61, 69
1, 236912, Note_off_c, 0, 61, 59
1, 236912, Poly_aftertouch_c, 0, 61, 0
1, 236920, Control_c, 0, 64, 102
1, 236938, Control_c, 0, 64, 93
1, 236940, Note_on_c, 0, 60, 65
1, 236958, Control_c, 0, 64, 80
1, 236977, Control_c, 0, 64, 66
1, 236978, Note_off_c, 0, 60, 65
1, 236980, Note_on_c, 0, 58, 71
1, 236995, Control_c, 0, 64, 54
1, 237015, Control_c, 0, 64, 48
1, 237032, Control_c, 0, 64, 46
1, 237038, Note_off_c, 0, 56, 56
1, 237038, Poly_aftertouch_c, 0, 56, 0
1, 237052, Control_c, 0, 64, 42
1, 237059, Note_on_c, 0, 60, 73
1, 237071, Control_c, 0, 64, 36
1, 237089, Control_c, 0, 64, 29
1, 237103, Note_off_c, 0, 58, 53
1, 237103, Poly_aftertouch_c, 0, 58, 0
1, 237106, Control_c, 0, 64, 22
1, 237200, Note_on_c, 0, 52, 71
1, 237201, Note_on_c, 0, 80, 83
1, 237207, Note_on_c, 0, 61, 71
1, 237213, Note_off_c, 0, 60, 61
1, 237258, Note_off_c, 0, 75, 64
1, 237309, Note_off_c, 0, 52, 62
1, 237326, Note_off_c, 0, 80, 61
1, 237389, Control_c, 0, 64, 18
1, 237444, Control_c, 0, 64, 12
1, 237501, Control_c, 0, 64, 8
1, 237559, Note_on_c, 0, 49, 68
1, 237566, Note_on_c, 0, 76, 80
1, 237679, Note_off_c, 0, 49, 63
1, 237679, Poly_aftertouch_c, 0, 49, 0
1, 237704, Note_off_c, 0, 76, 64
1, 237902, Note_off_c, 0, 61, 57
1, 237902, Poly_aftertouch_c, 0, 61, 0
1, 237923, Note_on_c, 0, 78, 80
1, 237924, Note_on_c, 0, 57, 61
1, 238127, Note_off_c, 0, 78, 64
1, 238127, Poly_aftertouch_c, 0, 78, 0
1, 238272, Note_on_c, 0, 81, 72
1, 238274, Note_on_c, 0, 66, 72
1, 238457, Note_off_c, 0, 66, 59
1, 238612, Note_off_c, 0, 81, 37
1, 238647, Note_on_c, 0, 62, 72
1, 238753, Control_c, 0, 64, 0
1, 238837, Note_off_c, 0, 62, 56
1, 238984, Note_on_c, 0, 74, 77
1, 239006, Note_on_c, 0, 59, 49
1, 239076, Note_off_c, 0, 59, 60
1, 239076, Poly_aftertouch_c, 0, 59, 0
1, 239166, Note_off_c, 0, 74, 62
1, 239166, Poly_aftertouch_c, 0, 74, 0
1, 239360, Note_on_c, 0, 76, 77
1, 239361, Note_on_c, 0, 56, 68
1, 239395, Note_off_c, 0, 57, 56
1, 239395, Poly_aftertouch_c, 0, 57, 0
1, 239568, Note_off_c, 0, 76, 61
1, 239734, Note_on_c, 0, 64, 66
1, 239734, Note_on_c, 0, 80, 71
1, 239923, Note_off_c, 0, 64, 44
1, 239923, Poly_aftertouch_c, 0, 64, 0
1, 240085, Note_off_c, 0, 80, 37
1, 240095, Note_on_c, 0, 61, 65
1, 240220, Note_off_c, 0, 61, 60
1, 240220, Poly_aftertouch_c, 0, 61, 0
1, 240454, Note_on_c, 0, 73, 70
1, 240467, Note_on_c, 0, 49, 40
1, 240469, Note_on_c, 0, 57, 46
1, 240512, Note_off_c, 0, 56, 61
1, 240512, Poly_aftertouch_c, 0, 56, 0
1, 240641, Note_off_c, 0, 73, 57
1, 240641, Poly_aftertouch_c, 0, 73, 0
1, 240802, Note_on_c, 0, 71, 65
1, 240822, Note_on_c, 0, 54, 50
1, 240843, Note_off_c, 0, 57, 57
1, 240843, Poly_aftertouch_c, 0, 57, 0
1, 240861, Note_off_c, 0, 49, 43
1, 240861, Poly_aftertouch_c, 0, 49, 0
1, 241010, Note_off_c, 0, 71, 58
1, 241167, Note_on_c, 0, 69, 60
1, 241169, Note_on_c, 0, 61, 64
1, 241323, Note_off_c, 0, 69, 57
1, 241375, Note_off_c, 0, 61, 55
1, 241375, Poly_aftertouch_c, 0, 61, 0
1, 241532, Note_on_c, 0, 68, 54
1, 241537, Note_on_c, 0, 59, 54
1, 241681, Note_off_c, 0, 59, 57
1, 241681, Poly_aftertouch_c, 0, 59, 0
1, 241916, Note_on_c, 0, 57, 48
1, 241988, Control_c, 0, 64, 8
1, 242054, Note_off_c, 0, 57, 58
1, 242054, Poly_aftertouch_c, 0, 57, 0
1, 242280, Note_on_c, 0, 56, 43
1, 242296, Note_on_c, 0, 53, 32
1, 242310, Note_off_c, 0, 54, 36
1, 242310, Poly_aftertouch_c, 0, 54, 0
1, 242364, Poly_aftertouch_c, 0, 68, 24
1, 242397, Note_off_c, 0, 68, 43
1, 242397, Poly_aftertouch_c, 0, 68, 0
1, 242637, Note_on_c, 0, 73, 55
1, 242781, Note_off_c, 0, 73, 56
1, 242781, Poly_aftertouch_c, 0, 73, 0
1, 242989, Note_off_c, 0, 56, 38
1, 242989, Poly_aftertouch_c, 0, 56, 0
1, 242992, Note_on_c, 0, 69, 54
1, 242997, Note_off_c, 0, 53, 39
1, 242997, Poly_aftertouch_c, 0, 53, 0
1, 243004, Note_on_c, 0, 54, 36
1, 243137, Note_off_c, 0, 69, 50
1, 243298, Control_c, 0, 64, 0
1, 243355, Note_on_c, 0, 66, 56
1, 243365, Note_on_c, 0, 57, 40
1, 243440, Note_off_c, 0, 57, 54
1, 243440, Poly_aftertouch_c, 0, 57, 0
1, 243503, Note_off_c, 0, 66, 56
1, 243708, Note_off_c, 0, 54, 39
1, 243708, Poly_aftertouch_c, 0, 54, 0
1, 243716, Note_on_c, 0, 74, 59
1, 243728, Note_on_c, 0, 59, 38
1, 243869, Note_off_c, 0, 59, 60
1, 243869, Poly_aftertouch_c, 0, 59, 0
1, 244083, Note_on_c, 0, 71, 41
1, 244096, Note_on_c, 0, 62, 40
1, 244178, Note_off_c, 0, 62, 56
1, 244192, Note_off_c, 0, 71, 56
1, 244443, Note_on_c, 0, 56, 43
1, 244464, Note_on_c, 0, 64, 36
1, 244600, Note_off_c, 0, 56, 58
1, 244600, Poly_aftertouch_c, 0, 56, 0
1, 244790, Note_on_c, 0, 52, 40
1, 244803, Note_off_c, 0, 74, 58
1, 244803, Poly_aftertouch_c, 0, 74, 0
1, 244811, Note_on_c, 0, 73, 63
1, 244872, Note_off_c, 0, 52, 57
1, 244885, Note_off_c, 0, 73, 56
1, 244885, Poly_aftertouch_c, 0, 73, 0
1, 244978, Note_on_c, 0, 71, 61
1, 245065, Note_off_c, 0, 71, 58
1, 245175, Note_on_c, 0, 73, 63
1, 245194, Note_on_c, 0, 57, 37
1, 245230, Poly_aftertouch_c, 0, 64, 24
1, 245263, Note_off_c, 0, 57, 51
1, 245263, Poly_aftertouch_c, 0, 57, 0
1, 245283, Note_off_c, 0, 64, 38
1, 245283, Poly_aftertouch_c, 0, 64, 0
1, 245535, Note_on_c, 0, 64, 41
1, 245541, Note_on_c, 0, 61, 41
1, 245618, Note_off_c, 0, 64, 54
1, 245618, Poly_aftertouch_c, 0, 64, 0
1, 245644, Note_off_c, 0, 61, 58
1, 245644, Poly_aftertouch_c, 0, 61, 0
1, 245886, Note_on_c, 0, 69, 46
1, 245895, Note_on_c, 0, 54, 41
1, 246012, Note_off_c, 0, 54, 58
1, 246012, Poly_aftertouch_c, 0, 54, 0
1, 246227, Note_off_c, 0, 73, 61
1, 246227, Poly_aftertouch_c, 0, 73, 0
1, 246232, Note_on_c, 0, 78, 74
1, 246238, Note_on_c, 0, 51, 46
1, 246345, Note_off_c, 0, 51, 55
1, 246371, Note_off_c, 0, 78, 63
1, 246371, Poly_aftertouch_c, 0, 78, 0
1, 246605, Note_on_c, 0, 71, 67
1, 246606, Note_on_c, 0, 56, 48
1, 246745, Note_off_c, 0, 56, 57
1, 246745, Poly_aftertouch_c, 0, 56, 0
1, 246749, Note_off_c, 0, 69, 54
1, 246976, Note_on_c, 0, 59, 46
1, 246982, Note_on_c, 0, 68, 49
1, 247080, Note_off_c, 0, 59, 60
1, 247080, Poly_aftertouch_c, 0, 59, 0
1, 247115, Note_off_c, 0, 68, 57
1, 247115, Poly_aftertouch_c, 0, 68, 0
1, 247126, Note_on_c, 0, 66, 50
1, 247234, Note_off_c, 0, 66, 53
1, 247322, Note_on_c, 0, 68, 52
1, 247323, Note_on_c, 0, 53, 46
1, 247411, Note_off_c, 0, 53, 54
1, 247411, Poly_aftertouch_c, 0, 53, 0
1, 247451, Note_off_c, 0, 71, 52
1, 247479, Note_off_c, 0, 68, 55
1, 247479, Poly_aftertouch_c, 0, 68, 0
1, 247652, Note_on_c, 0, 49, 48
1, 247662, Note_on_c, 0, 65, 49
1, 247671, Note_on_c, 0, 69, 58
1, 247715, Note_off_c, 0, 49, 57
1, 247715, Poly_aftertouch_c, 0, 49, 0
1, 247785, Note_off_c, 0, 65, 39
1, 247801, Note_off_c, 0, 69, 60
1, 247809, Note_on_c, 0, 68, 63
1, 247937, Note_off_c, 0, 68, 58
1, 247937, Poly_aftertouch_c, 0, 68, 0
1, 247997, Note_on_c, 0, 69, 58
1, 248004, Note_on_c, 0, 54, 48
1, 248011, Note_on_c, 0, 66, 47
1, 248077, Note_off_c, 0, 54, 55
1, 248077, Poly_aftertouch_c, 0, 54, 0
1, 248095, Note_off_c, 0, 66, 50
1, 248131, Note_off_c, 0, 69, 63
1, 248363, Note_on_c, 0, 66, 59
1, 248385, Note_on_c, 0, 57, 47
1, 248487, Note_off_c, 0, 57, 58
1, 248487, Poly_aftertouch_c, 0, 57, 0
1, 248709, Note_on_c, 0, 68, 56
1, 248717, Note_on_c, 0, 59, 52
1, 248833, Note_off_c, 0, 59, 62
1, 248833, Poly_aftertouch_c, 0, 59, 0
1, 249062, Note_off_c, 0, 66, 35
1, 249066, Note_on_c, 0, 56, 58
1, 249090, Note_on_c, 0, 64, 37
1, 249236, Note_on_c, 0, 63, 57
1, 249292, Note_off_c, 0, 64, 34
1, 249292, Poly_aftertouch_c, 0, 64, 0
1, 249397, Note_off_c, 0, 56, 56
1, 249397, Poly_aftertouch_c, 0, 56, 0
1, 249417, Note_off_c, 0, 63, 52
1, 249423, Note_on_c, 0, 64, 55
1, 249434, Note_on_c, 0, 61, 47
1, 249547, Note_off_c, 0, 61, 57
1, 249547, Poly_aftertouch_c, 0, 61, 0
1, 249801, Note_on_c, 0, 59, 53
1, 249910, Note_off_c, 0, 59, 60
1, 249910, Poly_aftertouch_c, 0, 59, 0
1, 250157, Note_on_c, 0, 66, 58
1, 250174, Note_on_c, 0, 58, 45
1, 250266, Note_off_c, 0, 68, 45
1, 250266, Poly_aftertouch_c, 0, 68, 0
1, 250306, Note_off_c, 0, 58, 61
1, 250306, Poly_aftertouch_c, 0, 58, 0
1, 250483, Note_off_c, 0, 64, 61
1, 250483, Poly_aftertouch_c, 0, 64, 0
1, 250525, Note_on_c, 0, 62, 47
1, 250526, Note_on_c, 0, 54, 55
1, 250684, Note_off_c, 0, 62, 51
1, 250688, Note_on_c, 0, 61, 52
1, 250867, Note_off_c, 0, 54, 55
1, 250867, Note_on_c, 0, 62, 53
1, 250867, Poly_aftertouch_c, 0, 54, 0
1, 250886, Note_on_c, 0, 59, 48
1, 250935, Note_off_c, 0, 61, 36
1, 250935, Poly_aftertouch_c, 0, 61, 0
1, 251025, Note_off_c, 0, 59, 56
1, 251025, Poly_aftertouch_c, 0, 59, 0
1, 251220, Note_on_c, 0, 71, 63
1, 251221, Note_off_c, 0, 66, 46
1, 251231, Note_on_c, 0, 57, 45
1, 251342, Note_off_c, 0, 57, 55
1, 251342, Poly_aftertouch_c, 0, 57, 0
1, 251345, Note_off_c, 0, 71, 54
1, 251582, Note_on_c, 0, 56, 44
1, 251584, Note_on_c, 0, 64, 56
1, 251693, Note_off_c, 0, 56, 49
1, 251693, Poly_aftertouch_c, 0, 56, 0
1, 251710, Note_off_c, 0, 64, 59
1, 251710, Poly_aftertouch_c, 0, 64, 0
1, 251925, Note_on_c, 0, 68, 62
1, 251937, Note_on_c, 0, 52, 46
1, 252014, Note_off_c, 0, 52, 56
1, 252030, Note_off_c, 0, 62, 59
1, 252137, Note_off_c, 0, 68, 36
1, 252137, Poly_aftertouch_c, 0, 68, 0
1, 252281, Note_on_c, 0, 61, 55
1, 252285, Note_on_c, 0, 69, 62
1, 252298, Note_on_c, 0, 54, 42
1, 252410, Note_off_c, 0, 54, 54
1, 252410, Poly_aftertouch_c, 0, 54, 0
1, 252421, Note_off_c, 0, 69, 60
1, 252643, Note_on_c, 0, 73, 72
1, 252655, Note_on_c, 0, 57, 50
1, 252755, Note_off_c, 0, 73, 59
1, 252755, Poly_aftertouch_c, 0, 73, 0
1, 252764, Note_off_c, 0, 57, 38
1, 252764, Poly_aftertouch_c, 0, 57, 0
1, 252984, Note_on_c, 0, 50, 41
1, 252989, Note_on_c, 0, 66, 62
1, 253128, Note_off_c, 0, 50, 54
1, 253277, Note_off_c, 0, 61, 37
1, 253277, Poly_aftertouch_c, 0, 61, 0
1, 253348, Note_on_c, 0, 62, 56
1, 253355, Note_on_c, 0, 47, 43
1, 253444, Note_off_c, 0, 47, 56
1, 253444, Poly_aftertouch_c, 0, 47, 0
1, 253465, Note_off_c, 0, 62, 56
1, 253710, Note_off_c, 0, 66, 48
1, 253712, Note_on_c, 0, 68, 52
1, 253717, Note_on_c, 0, 52, 46
1, 253720, Note_on_c, 0, 59, 46
1, 253825, Note_off_c, 0, 59, 54
1, 253825, Poly_aftertouch_c, 0, 59, 0
1, 253861, Note_off_c, 0, 52, 52
1, 254084, Note_on_c, 0, 40, 41
1, 254084, Note_on_c, 0, 64, 47
1, 254206, Note_off_c, 0, 40, 47
1, 254251, Note_off_c, 0, 64, 34
1, 254251, Poly_aftertouch_c, 0, 64, 0
1, 254430, Note_off_c, 0, 68, 56
1, 254430, Poly_aftertouch_c, 0, 68, 0
1, 254461, Note_on_c, 0, 45, 56
1, 254468, Note_on_c, 0, 69, 43
1, 254475, Note_on_c, 0, 61, 47
1, 254582, Note_off_c, 0, 45, 63
1, 254582, Poly_aftertouch_c, 0, 45, 0
1, 254901, Note_on_c, 0, 57, 84
1, 255050, Note_off_c, 0, 57, 62
1, 255050, Poly_aftertouch_c, 0, 57, 0
1, 255388, Note_on_c, 0, 56, 86
1, 255462, Note_off_c, 0, 69, 62
1, 255500, Note_off_c, 0, 61, 60
1, 255500, Poly_aftertouch_c, 0, 61, 0
1, 256018, Note_on_c, 0, 54, 74
1, 256022, Note_off_c, 0, 56, 54
1, 256022, Poly_aftertouch_c, 0, 56, 0
1, 256132, Note_off_c, 0, 54, 61
1, 256132, Poly_aftertouch_c, 0, 54, 0
1, 256148, Note_on_c, 0, 53, 80
1, 256408, Note_off_c, 0, 53, 53
1, 256408, Poly_aftertouch_c, 0, 53, 0
1, 256499, Note_on_c, 0, 61, 83
1, 256519, Note_on_c, 0, 49, 70
1, 256626, Note_off_c, 0, 49, 63
1, 256626, Poly_aftertouch_c, 0, 49, 0
1, 256673, Note_off_c, 0, 61, 60
1, 256673, Poly_aftertouch_c, 0, 61, 0
1, 256810, Poly_aftertouch_c, 0, 64, 0
1, 256874, Note_on_c, 0, 59, 80
1, 256882, Note_on_c, 0, 54, 75
1, 256910, Control_c, 0, 64, 29
1, 256929, Control_c, 0, 64, 57
1, 256946, Control_c, 0, 64, 77
1, 256966, Control_c, 0, 64, 90
1, 256984, Control_c, 0, 64, 106
1, 257002, Control_c, 0, 64, 121
1, 257022, Control_c, 0, 64, 127
1, 257139, Note_off_c, 0, 59, 60
1, 257139, Poly_aftertouch_c, 0, 59, 0
1, 257358, Control_c, 0, 64, 117
1, 257379, Control_c, 0, 64, 110
1, 257396, Control_c, 0, 64, 103
1, 257413, Control_c, 0, 64, 95
1, 257433, Control_c, 0, 64, 87
1, 257451, Control_c, 0, 64, 81
1, 257462, Note_on_c, 0, 57, 70
1, 257470, Control_c, 0, 64, 77
1, 257489, Control_c, 0, 64, 73
1, 257508, Control_c, 0, 64, 71
1, 257545, Control_c, 0, 64, 69
1, 257584, Control_c, 0, 64, 68
1, 257601, Note_off_c, 0, 57, 58
1, 257601, Poly_aftertouch_c, 0, 57, 0
1, 257601, Control_c, 0, 64, 66
1, 257618, Control_c, 0, 64, 65
1, 257619, Note_on_c, 0, 56, 80
1, 257638, Control_c, 0, 64, 63
1, 257658, Control_c, 0, 64, 61
1, 257675, Control_c, 0, 64, 60
1, 257713, Control_c, 0, 64, 58
1, 257750, Control_c, 0, 64, 55
1, 257789, Control_c, 0, 64, 51
1, 257807, Control_c, 0, 64, 48
1, 257825, Control_c, 0, 64, 44
1, 257846, Control_c, 0, 64, 39
1, 257863, Control_c, 0, 64, 34
1, 257881, Control_c, 0, 64, 29
1, 257920, Control_c, 0, 64, 23
1, 257975, Note_on_c, 0, 74, 87
1, 258106, Control_c, 0, 64, 18
1, 258114, Note_off_c, 0, 74, 60
1, 258114, Poly_aftertouch_c, 0, 74, 0
1, 258256, Control_c, 0, 64, 13
1, 258293, Control_c, 0, 64, 8
1, 258307, Note_off_c, 0, 54, 55
1, 258307, Poly_aftertouch_c, 0, 54, 0
1, 258332, Control_c, 0, 64, 0
1, 258344, Note_on_c, 0, 53, 59
1, 258353, Note_on_c, 0, 73, 86
1, 258462, Control_c, 0, 64, 14
1, 258479, Control_c, 0, 64, 34
1, 258499, Control_c, 0, 64, 57
1, 258517, Control_c, 0, 64, 75
1, 258537, Control_c, 0, 64, 89
1, 258555, Control_c, 0, 64, 103
1, 258573, Control_c, 0, 64, 112
1, 258593, Control_c, 0, 64, 118
1, 258607, Note_off_c, 0, 73, 59
1, 258607, Poly_aftertouch_c, 0, 73, 0
1, 258729, Note_off_c, 0, 56, 47
1, 258729, Poly_aftertouch_c, 0, 56, 0
1, 258736, Note_on_c, 0, 61, 73
1, 258745, Note_on_c, 0, 52, 60
1, 258747, Note_off_c, 0, 53, 49
1, 258747, Poly_aftertouch_c, 0, 53, 0
1, 258799, Control_c, 0, 64, 112
1, 258836, Control_c, 0, 64, 105
1, 258854, Control_c, 0, 64, 100
1, 258874, Control_c, 0, 64, 94
1, 258890, Control_c, 0, 64, 86
1, 258894, Note_on_c, 0, 71, 80
1, 258910, Control_c, 0, 64, 77
1, 258929, Control_c, 0, 64, 68
1, 258947, Control_c, 0, 64, 60
1, 258966, Control_c, 0, 64, 57
1, 259004, Control_c, 0, 64, 55
1, 259040, Control_c, 0, 64, 49
1, 259059, Control_c, 0, 64, 42
1, 259063, Note_on_c, 0, 70, 78
1, 259070, Note_on_c, 0, 54, 60
1, 259076, Note_off_c, 0, 61, 58
1, 259076, Poly_aftertouch_c, 0, 61, 0
1, 259078, Control_c, 0, 64, 33
1, 259097, Control_c, 0, 64, 15
1, 259107, Note_off_c, 0, 71, 61
1, 259114, Control_c, 0, 64, 0
1, 259209, Control_c, 0, 64, 22
1, 259228, Control_c, 0, 64, 46
1, 259246, Control_c, 0, 64, 67
1, 259266, Control_c, 0, 64, 77
1, 259283, Control_c, 0, 64, 82
1, 259303, Control_c, 0, 64, 84
1, 259358, Control_c, 0, 64, 81
1, 259378, Control_c, 0, 64, 77
1, 259380, Note_off_c, 0, 52, 59
1, 259397, Control_c, 0, 64, 74
1, 259414, Control_c, 0, 64, 72
1, 259416, Note_on_c, 0, 66, 83
1, 259419, Note_on_c, 0, 50, 59
1, 259453, Control_c, 0, 64, 69
1, 259471, Control_c, 0, 64, 66
1, 259490, Control_c, 0, 64, 63
1, 259508, Control_c, 0, 64, 60
1, 259549, Note_off_c, 0, 50, 59
1, 259554, Note_off_c, 0, 66, 60
1, 259583, Control_c, 0, 64, 57
1, 259620, Control_c, 0, 64, 55
1, 259659, Control_c, 0, 64, 51
1, 259678, Control_c, 0, 64, 49
1, 259695, Control_c, 0, 64, 46
1, 259715, Control_c, 0, 64, 41
1, 259733, Control_c, 0, 64, 35
1, 259751, Control_c, 0, 64, 31
1, 259777, Note_on_c, 0, 64, 80
1, 259784, Note_on_c, 0, 49, 59
1, 259785, Note_on_c, 0, 71, 77
1, 259788, Control_c, 0, 64, 27
1, 259807, Note_off_c, 0, 70, 50
1, 259809, Note_off_c, 0, 54, 55
1, 259809, Poly_aftertouch_c, 0, 54, 0
1, 259906, Note_off_c, 0, 49, 58
1, 259906, Poly_aftertouch_c, 0, 49, 0
1, 260156, Note_on_c, 0, 47, 64
1, 260261, Note_off_c, 0, 64, 54
1, 260268, Note_off_c, 0, 47, 62
1, 260268, Poly_aftertouch_c, 0, 47, 0
1, 260322, Note_on_c, 0, 62, 67
1, 260480, Note_on_c, 0, 61, 72
1, 260482, Note_on_c, 0, 52, 60
1, 260499, Note_off_c, 0, 62, 54
1, 260588, Note_off_c, 0, 61, 62
1, 260588, Poly_aftertouch_c, 0, 61, 0
1, 260608, Note_off_c, 0, 52, 58
1, 260827, Note_on_c, 0, 49, 73
1, 260829, Note_on_c, 0, 67, 80
1, 260921, Note_off_c, 0, 49, 64
1, 260921, Poly_aftertouch_c, 0, 49, 0
1, 260925, Note_off_c, 0, 67, 63
1, 261178, Note_on_c, 0, 66, 73
1, 261178, Note_on_c, 0, 70, 78
1, 261183, Note_on_c, 0, 54, 65
1, 261214, Note_off_c, 0, 71, 57
1, 261341, Control_c, 0, 64, 31
1, 261366, Note_off_c, 0, 54, 58
1, 261366, Poly_aftertouch_c, 0, 54, 0
1, 261377, Control_c, 0, 64, 35
1, 261531, Note_on_c, 0, 42, 63
1, 261550, Note_on_c, 0, 69, 73
1, 261602, Note_off_c, 0, 70, 59
1, 261655, Note_off_c, 0, 42, 56
1, 261685, Note_on_c, 0, 64, 69
1, 261694, Note_off_c, 0, 66, 61
1, 261703, Poly_aftertouch_c, 0, 45, 0
1, 261734, Control_c, 0, 64, 30
1, 261870, Note_off_c, 0, 64, 62
1, 261870, Note_on_c, 0, 47, 44
1, 261872, Note_on_c, 0, 63, 68
1, 261976, Note_off_c, 0, 63, 59
1, 262070, Control_c, 0, 64, 26
1, 262126, Control_c, 0, 64, 22
1, 262208, Note_on_c, 0, 71, 81
1, 262219, Note_on_c, 0, 59, 68
1, 262260, Note_off_c, 0, 69, 33
1, 262276, Control_c, 0, 64, 17
1, 262301, Note_off_c, 0, 59, 60
1, 262301, Poly_aftertouch_c, 0, 59, 0
1, 262340, Note_off_c, 0, 71, 61
1, 262578, Note_on_c, 0, 69, 81
1, 262586, Note_on_c, 0, 64, 67
1, 262612, Control_c, 0, 64, 21
1, 262619, Note_off_c, 0, 47, 60
1, 262619, Poly_aftertouch_c, 0, 47, 0
1, 262780, Control_c, 0, 64, 16
1, 262836, Control_c, 0, 64, 12
1, 262919, Note_on_c, 0, 49, 69
1, 263064, Note_on_c, 0, 68, 67
1, 263127, Note_off_c, 0, 69, 33
1, 263220, Note_off_c, 0, 49, 62
1, 263220, Poly_aftertouch_c, 0, 49, 0
1, 263241, Note_on_c, 0, 45, 64
1, 263247, Note_on_c, 0, 66, 66
1, 263299, Note_off_c, 0, 68, 59
1, 263299, Poly_aftertouch_c, 0, 68, 0
1, 263321, Note_off_c, 0, 45, 64
1, 263616, Note_on_c, 0, 61, 81
1, 263720, Note_off_c, 0, 61, 62
1, 263720, Poly_aftertouch_c, 0, 61, 0
1, 263976, Note_on_c, 0, 59, 83
1, 263982, Note_on_c, 0, 63, 62
1, 264057, Note_off_c, 0, 64, 57
1, 264109, Control_c, 0, 64, 16
1, 264307, Note_off_c, 0, 63, 35
1, 264332, Note_on_c, 0, 62, 62
1, 264490, Note_on_c, 0, 57, 68
1, 264493, Note_off_c, 0, 59, 56
1, 264493, Poly_aftertouch_c, 0, 59, 0
1, 264647, Note_off_c, 0, 66, 54
1, 264658, Note_on_c, 0, 64, 59
1, 264660, Note_on_c, 0, 56, 69
1, 264702, Note_off_c, 0, 57, 46
1, 264702, Poly_aftertouch_c, 0, 57, 0
1, 264799, Note_off_c, 0, 56, 63
1, 264799, Poly_aftertouch_c, 0, 56, 0
1, 264970, Note_off_c, 0, 62, 57
1, 265025, Note_on_c, 0, 52, 55
1, 265026, Note_on_c, 0, 61, 65
1, 265109, Note_off_c, 0, 52, 55
1, 265163, Note_off_c, 0, 61, 55
1, 265163, Poly_aftertouch_c, 0, 61, 0
1, 265171, Note_on_c, 0, 59, 59
1, 265268, Control_c, 0, 64, 12
1, 265280, Note_off_c, 0, 59, 56
1, 265280, Poly_aftertouch_c, 0, 59, 0
1, 265323, Control_c, 0, 64, 8
1, 265352, Note_on_c, 0, 57, 59
1, 265361, Note_on_c, 0, 61, 65
1, 265472, Note_off_c, 0, 64, 53
1, 265475, Note_off_c, 0, 61, 57
1, 265475, Poly_aftertouch_c, 0, 61, 0
1, 265492, Control_c, 0, 64, 0
1, 265720, Note_on_c, 0, 69, 71
1, 265725, Note_on_c, 0, 66, 64
1, 265821, Note_off_c, 0, 69, 61
1, 265828, Note_off_c, 0, 66, 62
1, 266070, Note_on_c, 0, 71, 74
1, 266087, Note_on_c, 0, 62, 54
1, 266179, Note_off_c, 0, 62, 59
1, 266438, Note_on_c, 0, 59, 55
1, 266526, Note_off_c, 0, 59, 54
1, 266526, Poly_aftertouch_c, 0, 59, 0
1, 266776, Note_on_c, 0, 64, 53
1, 266782, Note_on_c, 0, 56, 51
1, 266884, Note_off_c, 0, 57, 26
1, 266884, Poly_aftertouch_c, 0, 57, 0
1, 266932, Note_off_c, 0, 56, 63
1, 266932, Poly_aftertouch_c, 0, 56, 0
1, 267111, Note_off_c, 0, 71, 54
1, 267132, Note_on_c, 0, 68, 57
1, 267141, Note_on_c, 0, 52, 49
1, 267231, Note_off_c, 0, 68, 61
1, 267231, Poly_aftertouch_c, 0, 68, 0
1, 267237, Note_off_c, 0, 52, 63
1, 267501, Note_on_c, 0, 73, 64
1, 267508, Note_on_c, 0, 57, 43
1, 267849, Note_on_c, 0, 61, 52
1, 267903, Note_off_c, 0, 64, 45
1, 267927, Note_off_c, 0, 61, 62
1, 267927, Poly_aftertouch_c, 0, 61, 0
1, 268219, Note_on_c, 0, 66, 68
1, 268392, Note_off_c, 0, 57, 53
1, 268392, Poly_aftertouch_c, 0, 57, 0
1, 268565, Note_on_c, 0, 69, 58
1, 268576, Note_on_c, 0, 54, 60
1, 268666, Note_off_c, 0, 54, 61
1, 268666, Poly_aftertouch_c, 0, 54, 0
1, 268687, Note_off_c, 0, 69, 58
1, 268698, Note_off_c, 0, 73, 59
1, 268698, Poly_aftertouch_c, 0, 73, 0
1, 268933, Note_on_c, 0, 74, 63
1, 268935, Note_on_c, 0, 59, 73
1, 269274, Note_on_c, 0, 69, 75
1, 269326, Note_off_c, 0, 66, 62
1, 269375, Note_off_c, 0, 69, 63
1, 269646, Note_on_c, 0, 68, 80
1, 269813, Note_off_c, 0, 59, 60
1, 269813, Poly_aftertouch_c, 0, 59, 0
1, 270003, Note_on_c, 0, 56, 73
1, 270099, Note_off_c, 0, 56, 62
1, 270099, Poly_aftertouch_c, 0, 56, 0
1, 270135, Note_off_c, 0, 68, 35
1, 270135, Poly_aftertouch_c, 0, 68, 0
1, 270146, Note_on_c, 0, 66, 68
1, 270323, Note_on_c, 0, 61, 73
1, 270325, Note_on_c, 0, 64, 69
1, 270333, Note_off_c, 0, 66, 60
1, 270436, Poly_aftertouch_c, 0, 74, 22
1, 270444, Note_off_c, 0, 74, 41
1, 270444, Poly_aftertouch_c, 0, 74, 0
1, 270445, Poly_aftertouch_c, 0, 74, 0
1, 270521, Control_c, 0, 64, 17
1, 270541, Control_c, 0, 64, 28
1, 270559, Control_c, 0, 64, 38
1, 270578, Control_c, 0, 64, 44
1, 270633, Control_c, 0, 64, 41
1, 270658, Note_off_c, 0, 64, 51
1, 270671, Control_c, 0, 64, 35
1, 270678, Note_on_c, 0, 74, 81
1, 270687, Note_on_c, 0, 71, 66
1, 270708, Control_c, 0, 64, 27
1, 270747, Control_c, 0, 64, 23
1, 270770, Note_off_c, 0, 71, 61
1, 270808, Note_off_c, 0, 74, 63
1, 270839, Control_c, 0, 64, 17
1, 270896, Control_c, 0, 64, 11
1, 270970, Control_c, 0, 64, 0
1, 271026, Note_on_c, 0, 73, 86
1, 271033, Note_on_c, 0, 69, 72
1, 271120, Control_c, 0, 64, 17
1, 271139, Control_c, 0, 64, 36
1, 271158, Control_c, 0, 64, 58
1, 271169, Note_off_c, 0, 69, 54
1, 271175, Control_c, 0, 64, 73
1, 271195, Control_c, 0, 64, 81
1, 271213, Control_c, 0, 64, 90
1, 271233, Control_c, 0, 64, 97
1, 271251, Control_c, 0, 64, 102
1, 271364, Control_c, 0, 64, 95
1, 271382, Note_on_c, 0, 68, 70
1, 271382, Control_c, 0, 64, 90
1, 271400, Control_c, 0, 64, 84
1, 271420, Control_c, 0, 64, 78
1, 271438, Control_c, 0, 64, 73
1, 271456, Control_c, 0, 64, 70
1, 271476, Control_c, 0, 64, 67
1, 271494, Control_c, 0, 64, 66
1, 271524, Note_on_c, 0, 71, 78
1, 271531, Control_c, 0, 64, 65
1, 271551, Control_c, 0, 64, 63
1, 271569, Control_c, 0, 64, 61
1, 271587, Control_c, 0, 64, 59
1, 271589, Note_off_c, 0, 68, 62
1, 271589, Poly_aftertouch_c, 0, 68, 0
1, 271608, Control_c, 0, 64, 56
1, 271644, Control_c, 0, 64, 52
1, 271662, Control_c, 0, 64, 48
1, 271682, Control_c, 0, 64, 43
1, 271685, Note_off_c, 0, 73, 41
1, 271685, Poly_aftertouch_c, 0, 73, 0
1, 271699, Control_c, 0, 64, 35
1, 271703, Note_on_c, 0, 66, 69
1, 271707, Note_on_c, 0, 69, 77
1, 271718, Control_c, 0, 64, 26
1, 271737, Control_c, 0, 64, 14
1, 271757, Note_off_c, 0, 71, 54
1, 271773, Note_off_c, 0, 61, 64
1, 271773, Poly_aftertouch_c, 0, 61, 0
1, 271773, Control_c, 0, 64, 0
1, 272038, Note_off_c, 0, 66, 49
1, 272066, Note_on_c, 0, 64, 80
1, 272081, Note_on_c, 0, 61, 74
1, 272111, Control_c, 0, 64, 13
1, 272131, Control_c, 0, 64, 27
1, 272149, Control_c, 0, 64, 45
1, 272168, Control_c, 0, 64, 62
1, 272185, Control_c, 0, 64, 71
1, 272205, Control_c, 0, 64, 75
1, 272241, Note_off_c, 0, 64, 58
1, 272242, Control_c, 0, 64, 77
1, 272316, Control_c, 0, 64, 74
1, 272354, Control_c, 0, 64, 71
1, 272373, Control_c, 0, 64, 68
1, 272391, Control_c, 0, 64, 65
1, 272411, Control_c, 0, 64, 60
1, 272430, Note_off_c, 0, 69, 55
1, 272430, Control_c, 0, 64, 54
1, 272432, Note_on_c, 0, 62, 82
1, 272441, Note_on_c, 0, 59, 74
1, 272441, Note_on_c, 0, 78, 83
1, 272448, Control_c, 0, 64, 48
1, 272451, Note_off_c, 0, 61, 55
1, 272451, Poly_aftertouch_c, 0, 61, 0
1, 272467, Control_c, 0, 64, 38
1, 272485, Control_c, 0, 64, 23
1, 272504, Control_c, 0, 64, 0
1, 272597, Control_c, 0, 64, 8
1, 272617, Control_c, 0, 64, 25
1, 272635, Control_c, 0, 64, 42
1, 272653, Control_c, 0, 64, 58
1, 272671, Control_c, 0, 64, 68
1, 272691, Control_c, 0, 64, 72
1, 272784, Control_c, 0, 64, 68
1, 272798, Note_on_c, 0, 61, 78
1, 272801, Control_c, 0, 64, 63
1, 272822, Control_c, 0, 64, 56
1, 272841, Control_c, 0, 64, 46
1, 272844, Note_off_c, 0, 62, 58
1, 272858, Control_c, 0, 64, 26
1, 272870, Note_off_c, 0, 59, 55
1, 272870, Poly_aftertouch_c, 0, 59, 0
1, 272877, Control_c, 0, 64, 0
1, 272933, Control_c, 0, 64, 26
1, 272953, Control_c, 0, 64, 43
1, 272965, Note_on_c, 0, 57, 67
1, 272972, Control_c, 0, 64, 58
1, 272989, Control_c, 0, 64, 64
1, 273009, Control_c, 0, 64, 62
1, 273028, Control_c, 0, 64, 52
1, 273046, Control_c, 0, 64, 18
1, 273064, Control_c, 0, 64, 0
1, 273094, Note_off_c, 0, 61, 54
1, 273094, Poly_aftertouch_c, 0, 61, 0
1, 273120, Note_on_c, 0, 59, 78
1, 273129, Note_on_c, 0, 56, 72
1, 273161, Note_off_c, 0, 57, 59
1, 273161, Poly_aftertouch_c, 0, 57, 0
1, 273483, Note_on_c, 0, 76, 84
1, 273523, Note_off_c, 0, 78, 64
1, 273523, Poly_aftertouch_c, 0, 78, 0
1, 273634, Note_off_c, 0, 76, 59
1, 273859, Note_on_c, 0, 66, 87
1, 273866, Note_off_c, 0, 56, 48
1, 273866, Poly_aftertouch_c, 0, 56, 0
1, 273871, Note_on_c, 0, 74, 72
1, 273889, Note_on_c, 0, 58, 64
1, 273896, Note_off_c, 0, 59, 49
1, 273896, Poly_aftertouch_c, 0, 59, 0
1, 273945, Poly_aftertouch_c, 0, 62, 0
1, 274429, Note_on_c, 0, 73, 78
1, 274439, Note_off_c, 0, 74, 60
1, 274571, Note_on_c, 0, 59, 64
1, 274581, Note_on_c, 0, 74, 83
1, 274588, Note_off_c, 0, 58, 58
1, 274588, Poly_aftertouch_c, 0, 58, 0
1, 274614, Note_off_c, 0, 73, 64
1, 274614, Poly_aftertouch_c, 0, 73, 0
1, 274686, Note_off_c, 0, 74, 62
1, 274875, Note_off_c, 0, 66, 60
1, 274925, Note_on_c, 0, 71, 79
1, 274931, Note_on_c, 0, 62, 70
1, 275037, Note_off_c, 0, 71, 60
1, 275093, Note_off_c, 0, 62, 57
1, 275287, Note_on_c, 0, 61, 66
1, 275287, Note_on_c, 0, 76, 76
1, 275304, Note_off_c, 0, 59, 55
1, 275304, Note_on_c, 0, 55, 55
1, 275304, Poly_aftertouch_c, 0, 59, 0
1, 275459, Control_c, 0, 64, 24
1, 275476, Control_c, 0, 64, 42
1, 275497, Control_c, 0, 64, 60
1, 275514, Control_c, 0, 64, 68
1, 275533, Control_c, 0, 64, 70
1, 275608, Control_c, 0, 64, 66
1, 275626, Control_c, 0, 64, 61
1, 275646, Control_c, 0, 64, 55
1, 275663, Control_c, 0, 64, 47
1, 275683, Control_c, 0, 64, 32
1, 275721, Control_c, 0, 64, 0
1, 275848, Note_off_c, 0, 61, 40
1, 275848, Poly_aftertouch_c, 0, 61, 0
1, 275858, Note_on_c, 0, 59, 65
1, 275935, Note_off_c, 0, 55, 56
1, 276002, Note_off_c, 0, 59, 52
1, 276002, Poly_aftertouch_c, 0, 59, 0
1, 276016, Note_on_c, 0, 58, 65
1, 276028, Note_on_c, 0, 54, 57
1, 276147, Note_off_c, 0, 58, 60
1, 276147, Poly_aftertouch_c, 0, 58, 0
1, 276202, Note_off_c, 0, 54, 38
1, 276202, Poly_aftertouch_c, 0, 54, 0
1, 276335, Note_off_c, 0, 76, 51
1, 276369, Note_on_c, 0, 54, 50
1, 276370, Note_on_c, 0, 78, 73
1, 276514, Note_off_c, 0, 78, 60
1, 276514, Poly_aftertouch_c, 0, 78, 0
1, 276705, Note_off_c, 0, 54, 62
1, 276705, Poly_aftertouch_c, 0, 54, 0
1, 276731, Note_on_c, 0, 74, 71
1, 276742, Note_on_c, 0, 59, 50
1, 276880, Note_off_c, 0, 74, 59
1, 277090, Note_on_c, 0, 55, 46
1, 277092, Note_on_c, 0, 71, 60
1, 277200, Note_off_c, 0, 55, 60
1, 277236, Note_off_c, 0, 71, 56
1, 277441, Note_on_c, 0, 73, 64
1, 277446, Note_on_c, 0, 52, 48
1, 277561, Note_off_c, 0, 52, 60
1, 277795, Note_on_c, 0, 49, 53
1, 277898, Note_off_c, 0, 49, 61
1, 277898, Poly_aftertouch_c, 0, 49, 0
1, 278163, Note_on_c, 0, 58, 47
1, 278171, Note_on_c, 0, 54, 42
1, 278187, Note_off_c, 0, 73, 23
1, 278187, Poly_aftertouch_c, 0, 73, 0
1, 278223, Note_off_c, 0, 59, 34
1, 278223, Poly_aftertouch_c, 0, 59, 0
1, 278512, Note_on_c, 0, 66, 76
1, 278530, Note_on_c, 0, 70, 59
1, 278613, Note_off_c, 0, 70, 55
1, 278691, Note_off_c, 0, 66, 44
1, 278875, Note_off_c, 0, 58, 52
1, 278875, Poly_aftertouch_c, 0, 58, 0
1, 278879, Note_on_c, 0, 62, 78
1, 278894, Note_on_c, 0, 71, 51
1, 278996, Note_off_c, 0, 71, 56
1, 279037, Note_off_c, 0, 62, 59
1, 279217, Note_on_c, 0, 59, 78
1, 279226, Note_on_c, 0, 74, 66
1, 279320, Note_off_c, 0, 74, 61
1, 279326, Note_off_c, 0, 59, 62
1, 279326, Poly_aftertouch_c, 0, 59, 0
1, 279529, Note_off_c, 0, 54, 59
1, 279529, Poly_aftertouch_c, 0, 54, 0
1, 279568, Note_on_c, 0, 67, 77
1, 279574, Note_on_c, 0, 52, 58
1, 279595, Note_on_c, 0, 73, 66
1, 279690, Note_off_c, 0, 52, 36
1, 279949, Note_on_c, 0, 50, 58
1, 280068, Note_off_c, 0, 50, 54
1, 280095, Note_on_c, 0, 71, 62
1, 280106, Note_off_c, 0, 73, 38
1, 280106, Poly_aftertouch_c, 0, 73, 0
1, 280262, Note_off_c, 0, 71, 57
1, 280278, Note_on_c, 0, 69, 61
1, 280283, Note_on_c, 0, 49, 50
1, 280356, Note_off_c, 0, 49, 60
1, 280356, Poly_aftertouch_c, 0, 49, 0
1, 280565, Note_off_c, 0, 67, 61
1, 280623, Note_on_c, 0, 45, 52
1, 280627, Note_on_c, 0, 66, 80
1, 280682, Note_off_c, 0, 45, 58
1, 280778, Note_off_c, 0, 69, 64
1, 280781, Note_on_c, 0, 64, 72
1, 280782, Note_off_c, 0, 66, 59
1, 280894, Note_off_c, 0, 64, 61
1, 280956, Note_on_c, 0, 66, 76
1, 280978, Note_on_c, 0, 50, 56
1, 281077, Note_off_c, 0, 50, 59
1, 281305, Note_on_c, 0, 49, 54
1, 281312, Note_on_c, 0, 74, 72
1, 281405, Note_off_c, 0, 49, 64
1, 281405, Poly_aftertouch_c, 0, 49, 0
1, 281442, Note_off_c, 0, 74, 62
1, 281672, Note_on_c, 0, 67, 63
1, 281681, Note_on_c, 0, 47, 48
1, 281762, Note_off_c, 0, 47, 57
1, 281762, Poly_aftertouch_c, 0, 47, 0
1, 282009, Note_on_c, 0, 71, 81
1, 282025, Note_off_c, 0, 66, 61
1, 282034, Note_on_c, 0, 50, 57
1, 282149, Note_off_c, 0, 50, 58
1, 282159, Note_off_c, 0, 71, 61
1, 282380, Note_on_c, 0, 64, 73
1, 282381, Note_on_c, 0, 49, 69
1, 282525, Note_off_c, 0, 67, 38
1, 282738, Note_on_c, 0, 73, 64
1, 282873, Note_off_c, 0, 49, 63
1, 282873, Poly_aftertouch_c, 0, 49, 0
1, 282897, Note_on_c, 0, 47, 60
1, 283027, Note_off_c, 0, 73, 52
1, 283027, Poly_aftertouch_c, 0, 73, 0
1, 283068, Note_on_c, 0, 66, 61
1, 283070, Note_on_c, 0, 46, 54
1, 283097, Note_off_c, 0, 47, 38
1, 283097, Poly_aftertouch_c, 0, 47, 0
1, 283220, Note_off_c, 0, 46, 61
1, 283404, Note_off_c, 0, 64, 52
1, 283419, Note_on_c, 0, 42, 54
1, 283426, Note_on_c, 0, 62, 61
1, 283503, Note_off_c, 0, 42, 57
1, 283555, Note_off_c, 0, 62, 60
1, 283565, Note_on_c, 0, 61, 61
1, 283757, Note_on_c, 0, 62, 62
1, 283759, Note_off_c, 0, 61, 56
1, 283759, Poly_aftertouch_c, 0, 61, 0
1, 283768, Note_on_c, 0, 47, 49
1, 283875, Note_off_c, 0, 62, 59
1, 284117, Note_on_c, 0, 59, 56
1, 284232, Note_off_c, 0, 59, 55
1, 284232, Poly_aftertouch_c, 0, 59, 0
1, 284475, Note_on_c, 0, 61, 52
1, 284548, Note_off_c, 0, 66, 42
1, 284775, Note_off_c, 0, 47, 56
1, 284775, Poly_aftertouch_c, 0, 47, 0
1, 284812, Note_on_c, 0, 45, 49
1, 284825, Note_on_c, 0, 65, 51
1, 284916, Note_off_c, 0, 65, 47
1, 284948, Note_off_c, 0, 45, 60
1, 284975, Note_on_c, 0, 44, 51
1, 285106, Note_off_c, 0, 44, 55
1, 285144, Note_on_c, 0, 45, 50
1, 285160, Note_on_c, 0, 66, 56
1, 285288, Note_off_c, 0, 66, 57
1, 285532, Note_on_c, 0, 69, 62
1, 285655, Note_off_c, 0, 69, 59
1, 285872, Note_on_c, 0, 59, 48
1, 285875, Note_on_c, 0, 63, 57
1, 285952, Note_off_c, 0, 61, 41
1, 285952, Poly_aftertouch_c, 0, 61, 0
1, 286034, Note_off_c, 0, 63, 53
1, 286217, Note_off_c, 0, 45, 56
1, 286217, Note_on_c, 0, 44, 55
1, 286231, Note_on_c, 0, 66, 55
1, 286313, Note_off_c, 0, 66, 58
1, 286352, Note_off_c, 0, 44, 60
1, 286372, Note_on_c, 0, 42, 61
1, 286539, Note_off_c, 0, 42, 52
1, 286571, Note_on_c, 0, 44, 58
1, 286573, Note_on_c, 0, 71, 64
1, 286691, Note_off_c, 0, 44, 60
1, 286828, Poly_aftertouch_c, 0, 59, 24
1, 286904, Note_off_c, 0, 59, 32
1, 286904, Poly_aftertouch_c, 0, 59, 0
1, 286924, Note_on_c, 0, 68, 63
1, 286934, Note_on_c, 0, 40, 56
1, 287011, Note_off_c, 0, 40, 60
1, 287026, Note_off_c, 0, 68, 62
1, 287026, Poly_aftertouch_c, 0, 68, 0
1, 287278, Note_on_c, 0, 64, 67
1, 287287, Note_on_c, 0, 49, 55
1, 287440, Note_off_c, 0, 49, 64
1, 287440, Poly_aftertouch_c, 0, 49, 0
1, 287641, Note_on_c, 0, 37, 63
1, 287652, Note_on_c, 0, 69, 62
1, 287694, Note_off_c, 0, 71, 40
1, 287758, Note_off_c, 0, 37, 56
1, 287758, Poly_aftertouch_c, 0, 37, 0
1, 287783, Note_off_c, 0, 69, 41
1, 287796, Note_on_c, 0, 68, 69
1, 287976, Note_on_c, 0, 49, 70
1, 287981, Note_on_c, 0, 69, 70
1, 288013, Note_off_c, 0, 68, 28
1, 288013, Poly_aftertouch_c, 0, 68, 0
1, 288108, Note_off_c, 0, 69, 59
1, 288315, Note_on_c, 0, 73, 78
1, 288446, Note_off_c, 0, 73, 62
1, 288446, Poly_aftertouch_c, 0, 73, 0
1, 288666, Note_on_c, 0, 66, 73
1, 288671, Note_on_c, 0, 62, 65
1, 288736, Note_off_c, 0, 64, 46
1, 288797, Note_off_c, 0, 66, 62
1, 289007, Note_off_c, 0, 49, 59
1, 289007, Poly_aftertouch_c, 0, 49, 0
1, 289010, Note_on_c, 0, 47, 63
1, 289010, Note_on_c, 0, 69, 72
1, 289092, Note_off_c, 0, 69, 59
1, 289153, Note_on_c, 0, 45, 72
1, 289158, Note_off_c, 0, 47, 59
1, 289158, Poly_aftertouch_c, 0, 47, 0
1, 289345, Note_off_c, 0, 45, 58
1, 289351, Note_on_c, 0, 47, 71
1, 289353, Note_on_c, 0, 74, 82
1, 289497, Note_off_c, 0, 47, 63
1, 289497, Poly_aftertouch_c, 0, 47, 0
1, 289647, Note_off_c, 0, 62, 40
1, 289708, Note_on_c, 0, 44, 72
1, 289719, Note_on_c, 0, 71, 69
1, 289803, Note_off_c, 0, 71, 60
1, 289820, Note_off_c, 0, 44, 60
1, 290062, Note_on_c, 0, 68, 68
1, 290064, Note_on_c, 0, 41, 77
1, 290163, Note_off_c, 0, 41, 62
1, 290170, Note_off_c, 0, 68, 63
1, 290170, Poly_aftertouch_c, 0, 68, 0
1, 290223, Note_off_c, 0, 74, 54
1, 290420, Note_on_c, 0, 74, 77
1, 290422, Note_on_c, 0, 56, 70
1, 290426, Note_on_c, 0, 65, 61
1, 290527, Note_off_c, 0, 56, 63
1, 290527, Poly_aftertouch_c, 0, 56, 0
1, 290550, Note_off_c, 0, 74, 63
1, 290759, Note_on_c, 0, 73, 78
1, 290786, Note_on_c, 0, 53, 57
1, 290888, Note_off_c, 0, 53, 61
1, 290888, Poly_aftertouch_c, 0, 53, 0
1, 291121, Note_on_c, 0, 49, 51
1, 291129, Note_on_c, 0, 68, 62
1, 291197, Note_off_c, 0, 65, 48
1, 291211, Note_off_c, 0, 49, 53
1, 291211, Poly_aftertouch_c, 0, 49, 0
1, 291268, Note_on_c, 0, 71, 66
1, 291313, Note_off_c, 0, 73, 60
1, 291313, Poly_aftertouch_c, 0, 73, 0
1, 291448, Note_on_c, 0, 69, 69
1, 291450, Note_on_c, 0, 54, 59
1, 291509, Note_off_c, 0, 71, 55
1, 291585, Note_off_c, 0, 54, 53
1, 291585, Poly_aftertouch_c, 0, 54, 0
1, 291620, Note_off_c, 0, 68, 40
1, 291620, Poly_aftertouch_c, 0, 68, 0
1, 291634, Poly_aftertouch_c, 0, 65, 0
1, 291796, Note_on_c, 0, 66, 60
1, 291801, Note_on_c, 0, 56, 55
1, 291861, Note_off_c, 0, 56, 58
1, 291861, Poly_aftertouch_c, 0, 56, 0
1, 291933, Note_off_c, 0, 66, 61
1, 291944, Note_on_c, 0, 65, 55
1, 292114, Note_off_c, 0, 65, 49
1, 292138, Note_on_c, 0, 66, 58
1, 292144, Note_on_c, 0, 57, 53
1, 292303, Note_off_c, 0, 57, 58
1, 292303, Poly_aftertouch_c, 0, 57, 0
1, 292456, Note_off_c, 0, 66, 56
1, 292479, Note_on_c, 0, 63, 52
1, 292497, Note_on_c, 0, 54, 55
1, 292596, Note_off_c, 0, 54, 56
1, 292596, Poly_aftertouch_c, 0, 54, 0
1, 292855, Note_on_c, 0, 60, 45
1, 292856, Note_on_c, 0, 56, 46
1, 292920, Note_off_c, 0, 63, 38
1, 292942, Note_off_c, 0, 69, 46
1, 293014, Note_off_c, 0, 56, 58
1, 293014, Poly_aftertouch_c, 0, 56, 0
1, 293199, Note_on_c, 0, 44, 50
1, 293220, Note_on_c, 0, 68, 55
1, 293309, Note_off_c, 0, 68, 47
1, 293309, Poly_aftertouch_c, 0, 68, 0
1, 293377, Note_on_c, 0, 66, 52
1, 293398, Note_off_c, 0, 44, 55
1, 293482, Note_off_c, 0, 66, 59
1, 293560, Note_on_c, 0, 68, 61
1, 293872, Note_off_c, 0, 68, 52
1, 293872, Poly_aftertouch_c, 0, 68, 0
1, 293882, Note_on_c, 0, 63, 60
1, 293889, Note_on_c, 0, 56, 86
1, 294025, Note_off_c, 0, 60, 56
1, 294049, Note_off_c, 0, 56, 59
1, 294049, Poly_aftertouch_c, 0, 56, 0
1, 294241, Note_off_c, 0, 63, 58
1, 294252, Note_on_c, 0, 52, 78
1, 294252, Note_on_c, 0, 64, 70
1, 294255, Note_on_c, 0, 61, 66
1, 294341, Note_off_c, 0, 61, 62
1, 294341, Poly_aftertouch_c, 0, 61, 0
1, 294364, Note_off_c, 0, 64, 62
1, 294403, Note_off_c, 0, 52, 61
1, 294605, Note_on_c, 0, 76, 84
1, 294609, Note_on_c, 0, 49, 78
1, 294725, Note_off_c, 0, 76, 64
1, 294733, Note_off_c, 0, 49, 58
1, 294733, Poly_aftertouch_c, 0, 49, 0
1, 295000, Note_on_c, 0, 57, 84
1, 295002, Note_on_c, 0, 75, 79
1, 295129, Control_c, 0, 64, 15
1, 295147, Control_c, 0, 64, 27
1, 295166, Control_c, 0, 64, 40
1, 295185, Control_c, 0, 64, 54
1, 295203, Control_c, 0, 64, 65
1, 295222, Control_c, 0, 64, 72
1, 295241, Control_c, 0, 64, 79
1, 295261, Control_c, 0, 64, 88
1, 295278, Control_c, 0, 64, 100
1, 295297, Control_c, 0, 64, 110
1, 295316, Control_c, 0, 64, 118
1, 295334, Control_c, 0, 64, 122
1, 295342, Note_off_c, 0, 75, 60
1, 295411, Control_c, 0, 64, 118
1, 295428, Control_c, 0, 64, 113
1, 295447, Control_c, 0, 64, 108
1, 295466, Control_c, 0, 64, 102
1, 295484, Control_c, 0, 64, 96
1, 295503, Control_c, 0, 64, 89
1, 295522, Control_c, 0, 64, 81
1, 295541, Control_c, 0, 64, 72
1, 295559, Control_c, 0, 64, 62
1, 295578, Control_c, 0, 64, 54
1, 295591, Note_on_c, 0, 73, 74
1, 295597, Control_c, 0, 64, 47
1, 295615, Control_c, 0, 64, 39
1, 295633, Control_c, 0, 64, 31
1, 295653, Control_c, 0, 64, 23
1, 295671, Control_c, 0, 64, 18
1, 295734, Note_on_c, 0, 72, 79
1, 295745, Control_c, 0, 64, 13
1, 295776, Note_off_c, 0, 73, 59
1, 295776, Poly_aftertouch_c, 0, 73, 0
1, 295820, Control_c, 0, 64, 8
1, 295858, Control_c, 0, 64, 0
1, 295866, Note_off_c, 0, 72, 60
1, 296073, Note_off_c, 0, 57, 52
1, 296073, Poly_aftertouch_c, 0, 57, 0
1, 296085, Note_on_c, 0, 75, 79
1, 296091, Note_on_c, 0, 78, 75
1, 296095, Note_on_c, 0, 56, 78
1, 296176, Control_c, 0, 64, 8
1, 296183, Note_off_c, 0, 75, 59
1, 296188, Note_off_c, 0, 56, 62
1, 296188, Poly_aftertouch_c, 0, 56, 0
1, 296243, Note_on_c, 0, 54, 79
1, 296288, Control_c, 0, 64, 12
1, 296338, Note_off_c, 0, 78, 36
1, 296338, Poly_aftertouch_c, 0, 78, 0
1, 296384, Note_off_c, 0, 54, 59
1, 296384, Poly_aftertouch_c, 0, 54, 0
1, 296417, Note_on_c, 0, 56, 83
1, 296433, Note_on_c, 0, 76, 75
1, 296436, Note_on_c, 0, 73, 73
1, 296437, Control_c, 0, 64, 8
1, 296475, Control_c, 0, 64, 0
1, 296738, Control_c, 0, 64, 32
1, 296755, Control_c, 0, 64, 56
1, 296775, Control_c, 0, 64, 72
1, 296793, Control_c, 0, 64, 82
1, 296808, Note_on_c, 0, 75, 76
1, 296811, Control_c, 0, 64, 89
1, 296831, Control_c, 0, 64, 93
1, 296858, Note_off_c, 0, 73, 23
1, 296858, Poly_aftertouch_c, 0, 73, 0
1, 296866, Note_off_c, 0, 76, 55
1, 296943, Note_on_c, 0, 72, 74
1, 296961, Control_c, 0, 64, 89
1, 296975, Note_off_c, 0, 75, 62
1, 296980, Control_c, 0, 64, 85
1, 296999, Control_c, 0, 64, 82
1, 297017, Control_c, 0, 64, 79
1, 297035, Control_c, 0, 64, 76
1, 297056, Control_c, 0, 64, 73
1, 297073, Control_c, 0, 64, 69
1, 297092, Control_c, 0, 64, 65
1, 297111, Control_c, 0, 64, 60
1, 297122, Poly_aftertouch_c, 0, 57, 0
1, 297129, Control_c, 0, 64, 57
1, 297138, Note_on_c, 0, 76, 76
1, 297141, Note_on_c, 0, 73, 78
1, 297148, Control_c, 0, 64, 54
1, 297167, Control_c, 0, 64, 50
1, 297174, Note_off_c, 0, 72, 60
1, 297186, Control_c, 0, 64, 47
1, 297205, Control_c, 0, 64, 42
1, 297223, Control_c, 0, 64, 37
1, 297242, Control_c, 0, 64, 31
1, 297261, Control_c, 0, 64, 26
1, 297299, Control_c, 0, 64, 21
1, 297336, Control_c, 0, 64, 16
1, 297448, Note_off_c, 0, 56, 58
1, 297448, Poly_aftertouch_c, 0, 56, 0
1, 297474, Note_off_c, 0, 73, 57
1, 297474, Poly_aftertouch_c, 0, 73, 0
1, 297478, Note_on_c, 0, 61, 84
1, 297485, Note_on_c, 0, 71, 70
1, 297621, Note_off_c, 0, 61, 61
1, 297621, Poly_aftertouch_c, 0, 61, 0
1, 297634, Control_c, 0, 64, 12
1, 297728, Control_c, 0, 64, 8
1, 297747, Control_c, 0, 64, 0
1, 297838, Note_off_c, 0, 71, 60
1, 297856, Note_on_c, 0, 54, 75
1, 297860, Note_on_c, 0, 69, 70
1, 297971, Control_c, 0, 64, 14
1, 297990, Control_c, 0, 64, 24
1, 298009, Control_c, 0, 64, 37
1, 298027, Control_c, 0, 64, 52
1, 298046, Control_c, 0, 64, 65
1, 298065, Control_c, 0, 64, 71
1, 298084, Note_off_c, 0, 76, 56
1, 298085, Control_c, 0, 64, 74
1, 298158, Control_c, 0, 64, 71
1, 298170, Note_off_c, 0, 69, 53
1, 298176, Control_c, 0, 64, 67
1, 298196, Control_c, 0, 64, 62
1, 298199, Note_on_c, 0, 75, 78
1, 298201, Note_on_c, 0, 66, 69
1, 298215, Control_c, 0, 64, 57
1, 298232, Control_c, 0, 64, 49
1, 298252, Control_c, 0, 64, 40
1, 298270, Control_c, 0, 64, 28
1, 298289, Control_c, 0, 64, 17
1, 298307, Control_c, 0, 64, 12
1, 298350, Note_off_c, 0, 66, 53
1, 298350, Note_on_c, 0, 73, 82
1, 298363, Control_c, 0, 64, 0
1, 298408, Note_off_c, 0, 75, 55
1, 298547, Note_on_c, 0, 80, 80
1, 298564, Note_on_c, 0, 60, 75
1, 298571, Note_off_c, 0, 73, 62
1, 298571, Poly_aftertouch_c, 0, 73, 0
1, 298689, Note_off_c, 0, 80, 64
1, 298710, Note_off_c, 0, 60, 57
1, 298912, Note_on_c, 0, 72, 72
1, 298921, Note_on_c, 0, 52, 68
1, 298925, Note_off_c, 0, 54, 57
1, 298925, Note_on_c, 0, 63, 61
1, 298925, Poly_aftertouch_c, 0, 54, 0
1, 298966, Note_off_c, 0, 63, 62
1, 299006, Note_off_c, 0, 72, 58
1, 299064, Note_off_c, 0, 52, 62
1, 299065, Note_on_c, 0, 51, 73
1, 299223, Note_off_c, 0, 51, 56
1, 299245, Note_on_c, 0, 52, 66
1, 299245, Note_on_c, 0, 56, 70
1, 299249, Note_on_c, 0, 73, 75
1, 299355, Note_off_c, 0, 52, 62
1, 299611, Note_on_c, 0, 49, 62
1, 299622, Note_on_c, 0, 68, 60
1, 299706, Note_off_c, 0, 49, 62
1, 299706, Poly_aftertouch_c, 0, 49, 0
1, 299713, Note_off_c, 0, 68, 61
1, 299713, Poly_aftertouch_c, 0, 68, 0
1, 299991, Note_on_c, 0, 51, 47
1, 299992, Note_on_c, 0, 66, 56
1, 300014, Note_off_c, 0, 56, 58
1, 300014, Poly_aftertouch_c, 0, 56, 0
1, 300114, Note_off_c, 0, 66, 50
1, 300151, Note_on_c, 0, 68, 58
1, 300334, Note_on_c, 0, 66, 44
1, 300341, Note_off_c, 0, 68, 38
1, 300341, Poly_aftertouch_c, 0, 68, 0
1, 300362, Note_off_c, 0, 51, 58
1, 300460, Note_off_c, 0, 66, 54
1, 300505, Note_on_c, 0, 64, 49
1, 300529, Note_off_c, 0, 73, 55
1, 300529, Poly_aftertouch_c, 0, 73, 0
1, 300621, Note_off_c, 0, 64, 60
1, 300658, Note_on_c, 0, 56, 47
1, 300673, Note_on_c, 0, 72, 62
1, 300678, Note_on_c, 0, 66, 47
1, 300755, Note_off_c, 0, 66, 53
1, 300827, Note_on_c, 0, 64, 47
1, 300961, Note_off_c, 0, 64, 56
1, 300999, Note_on_c, 0, 63, 45
1, 301042, Note_off_c, 0, 56, 58
1, 301042, Poly_aftertouch_c, 0, 56, 0
1, 301136, Note_off_c, 0, 63, 47
1, 301170, Note_on_c, 0, 66, 52
1, 301185, Note_off_c, 0, 72, 54
1, 301348, Note_off_c, 0, 66, 61
1, 301352, Note_on_c, 0, 73, 59
1, 301355, Note_on_c, 0, 49, 39
1, 301376, Note_on_c, 0, 64, 42
1, 301499, Note_off_c, 0, 64, 57
1, 301517, Note_on_c, 0, 66, 58
1, 301638, Note_off_c, 0, 66, 55
1, 301692, Note_on_c, 0, 64, 45
1, 301762, Note_off_c, 0, 49, 55
1, 301762, Poly_aftertouch_c, 0, 49, 0
1, 301823, Note_off_c, 0, 64, 61
1, 301849, Note_on_c, 0, 63, 49
1, 301976, Note_off_c, 0, 63, 55
1, 302016, Note_off_c, 0, 73, 50
1, 302016, Poly_aftertouch_c, 0, 73, 0
1, 302042, Note_on_c, 0, 64, 45
1, 302165, Note_off_c, 0, 64, 50
1, 302190, Note_on_c, 0, 63, 44
1, 302322, Note_off_c, 0, 63, 54
1, 302371, Note_on_c, 0, 61, 46
1, 302379, Note_on_c, 0, 73, 51
1, 302457, Note_off_c, 0, 73, 56
1, 302457, Poly_aftertouch_c, 0, 73, 0
1, 302470, Note_off_c, 0, 61, 50
1, 302470, Poly_aftertouch_c, 0, 61, 0
1, 302527, Note_on_c, 0, 64, 51
1, 302678, Note_off_c, 0, 64, 52
1, 302709, Note_on_c, 0, 63, 52
1, 302717, Note_on_c, 0, 71, 54
1, 302764, Note_off_c, 0, 63, 59
1, 302825, Note_off_c, 0, 71, 53
1, 302876, Note_on_c, 0, 73, 55
1, 303008, Note_off_c, 0, 73, 53
1, 303008, Poly_aftertouch_c, 0, 73, 0
1, 303050, Note_on_c, 0, 68, 54
1, 303054, Note_on_c, 0, 71, 59
1, 303153, Note_off_c, 0, 68, 58
1, 303153, Poly_aftertouch_c, 0, 68, 0
1, 303163, Note_off_c, 0, 71, 59
1, 303217, Note_on_c, 0, 69, 57
1, 303375, Note_off_c, 0, 69, 36
1, 303380, Note_on_c, 0, 61, 52
1, 303402, Note_on_c, 0, 71, 51
1, 303473, Note_off_c, 0, 61, 62
1, 303473, Poly_aftertouch_c, 0, 61, 0
1, 303502, Note_off_c, 0, 71, 55
1, 303542, Note_on_c, 0, 69, 48
1, 303678, Note_off_c, 0, 69, 54
1, 303729, Note_on_c, 0, 68, 52
1, 303732, Note_on_c, 0, 65, 52
1, 303784, Note_off_c, 0, 65, 63
1, 303847, Note_off_c, 0, 68, 51
1, 303847, Poly_aftertouch_c, 0, 68, 0
1, 303898, Note_on_c, 0, 71, 42
1, 304027, Note_off_c, 0, 71, 55
1, 304068, Note_on_c, 0, 69, 53
1, 304073, Note_on_c, 0, 66, 47
1, 304190, Note_off_c, 0, 66, 60
1, 304195, Note_off_c, 0, 69, 57
1, 304216, Note_on_c, 0, 71, 47
1, 304237, Note_on_c, 0, 62, 48
1, 304361, Note_off_c, 0, 62, 51
1, 304382, Note_off_c, 0, 71, 40
1, 304400, Note_on_c, 0, 61, 47
1, 304405, Note_on_c, 0, 69, 51
1, 304526, Note_off_c, 0, 61, 54
1, 304526, Poly_aftertouch_c, 0, 61, 0
1, 304528, Note_off_c, 0, 69, 57
1, 304565, Note_on_c, 0, 59, 53
1, 304567, Note_on_c, 0, 68, 60
1, 304665, Note_off_c, 0, 59, 59
1, 304665, Poly_aftertouch_c, 0, 59, 0
1, 304725, Note_on_c, 0, 61, 56
1, 304731, Note_off_c, 0, 68, 38
1, 304731, Poly_aftertouch_c, 0, 68, 0
1, 304749, Note_on_c, 0, 69, 51
1, 304838, Note_off_c, 0, 61, 54
1, 304838, Poly_aftertouch_c, 0, 61, 0
1, 304849, Note_off_c, 0, 69, 50
1, 304876, Note_on_c, 0, 57, 55
1, 304877, Note_on_c, 0, 68, 54
1, 305008, Note_off_c, 0, 57, 56
1, 305020, Note_off_c, 0, 68, 54
1, 305020, Poly_aftertouch_c, 0, 68, 0
1, 305047, Note_on_c, 0, 66, 54
1, 305049, Note_on_c, 0, 62, 67
1, 305061, Note_on_c, 0, 54, 49
1, 305133, Control_c, 0, 64, 17
1, 305153, Control_c, 0, 64, 40
1, 305170, Control_c, 0, 64, 57
1, 305173, Note_off_c, 0, 54, 54
1, 305173, Poly_aftertouch_c, 0, 54, 0
1, 305188, Control_c, 0, 64, 62
1, 305192, Note_off_c, 0, 66, 54
1, 305213, Note_on_c, 0, 69, 53
1, 305263, Control_c, 0, 64, 59
1, 305282, Control_c, 0, 64, 55
1, 305301, Control_c, 0, 64, 51
1, 305320, Control_c, 0, 64, 46
1, 305338, Control_c, 0, 64, 36
1, 305357, Control_c, 0, 64, 21
1, 305365, Note_off_c, 0, 69, 58
1, 305374, Control_c, 0, 64, 0
1, 305382, Note_on_c, 0, 68, 53
1, 305391, Note_on_c, 0, 52, 44
1, 305512, Note_off_c, 0, 68, 61
1, 305512, Poly_aftertouch_c, 0, 68, 0
1, 305523, Note_off_c, 0, 52, 56
1, 305539, Note_on_c, 0, 54, 53
1, 305560, Note_off_c, 0, 62, 33
1, 305684, Note_off_c, 0, 54, 60
1, 305684, Poly_aftertouch_c, 0, 54, 0
1, 305707, Note_on_c, 0, 56, 60
1, 305711, Note_on_c, 0, 73, 66
1, 305722, Note_on_c, 0, 52, 48
1, 305791, Note_off_c, 0, 73, 58
1, 305791, Poly_aftertouch_c, 0, 73, 0
1, 305816, Note_off_c, 0, 56, 56
1, 305816, Poly_aftertouch_c, 0, 56, 0
1, 305838, Note_off_c, 0, 52, 60
1, 305874, Note_on_c, 0, 50, 54
1, 305996, Note_off_c, 0, 50, 60
1, 306052, Note_on_c, 0, 58, 67
1, 306054, Note_on_c, 0, 66, 56
1, 306074, Note_on_c, 0, 52, 52
1, 306132, Note_off_c, 0, 58, 55
1, 306132, Poly_aftertouch_c, 0, 58, 0
1, 306147, Note_off_c, 0, 66, 61
1, 306212, Note_on_c, 0, 50, 55
1, 306226, Note_off_c, 0, 52, 45
1, 306389, Note_on_c, 0, 70, 69
1, 306407, Note_on_c, 0, 61, 64
1, 306451, Note_on_c, 0, 49, 45
1, 306480, Note_off_c, 0, 50, 37
1, 306491, Note_off_c, 0, 70, 61
1, 306527, Note_off_c, 0, 61, 51
1, 306527, Poly_aftertouch_c, 0, 61, 0
1, 306537, Note_off_c, 0, 49, 62
1, 306537, Poly_aftertouch_c, 0, 49, 0
1, 306550, Note_on_c, 0, 52, 62
1, 306730, Note_on_c, 0, 71, 73
1, 306731, Note_off_c, 0, 52, 59
1, 306742, Note_on_c, 0, 54, 62
1, 306742, Note_on_c, 0, 50, 51
1, 306759, Control_c, 0, 64, 11
1, 306778, Control_c, 0, 64, 17
1, 306822, Note_off_c, 0, 50, 53
1, 306832, Note_off_c, 0, 71, 60
1, 306848, Note_off_c, 0, 54, 57
1, 306848, Poly_aftertouch_c, 0, 54, 0
1, 306873, Control_c, 0, 64, 9
1, 306889, Note_on_c, 0, 52, 56
1, 306909, Control_c, 0, 64, 0
1, 307004, Note_off_c, 0, 52, 60
1, 307065, Note_on_c, 0, 66, 69
1, 307077, Note_on_c, 0, 50, 47
1, 307159, Note_off_c, 0, 66, 63
1, 307223, Note_on_c, 0, 49, 56
1, 307267, Note_off_c, 0, 50, 33
1, 307401, Note_off_c, 0, 49, 62
1, 307401, Poly_aftertouch_c, 0, 49, 0
1, 307405, Note_on_c, 0, 71, 70
1, 307406, Note_on_c, 0, 50, 62
1, 307549, Note_off_c, 0, 50, 54
1, 307568, Note_on_c, 0, 49, 53
1, 307711, Note_off_c, 0, 49, 58
1, 307711, Poly_aftertouch_c, 0, 49, 0
1, 307738, Note_on_c, 0, 66, 56
1, 307742, Note_on_c, 0, 47, 49
1, 307797, Note_off_c, 0, 66, 56
1, 307871, Note_off_c, 0, 47, 56
1, 307871, Poly_aftertouch_c, 0, 47, 0
1, 307898, Note_on_c, 0, 50, 48
1, 308082, Note_on_c, 0, 49, 55
1, 308084, Note_on_c, 0, 64, 53
1, 308163, Note_off_c, 0, 50, 36
1, 308217, Note_off_c, 0, 49, 63
1, 308217, Poly_aftertouch_c, 0, 49, 0
1, 308239, Note_off_c, 0, 64, 50
1, 308250, Note_on_c, 0, 66, 53
1, 308380, Note_off_c, 0, 66, 55
1, 308417, Note_on_c, 0, 42, 58
1, 308418, Note_on_c, 0, 64, 51
1, 308548, Note_off_c, 0, 42, 57
1, 308551, Note_off_c, 0, 64, 55
1, 308582, Note_on_c, 0, 63, 54
1, 308588, Poly_aftertouch_c, 0, 71, 24
1, 308629, Note_off_c, 0, 71, 40
1, 308629, Poly_aftertouch_c, 0, 71, 0
1, 308755, Note_on_c, 0, 69, 66
1, 308757, Note_off_c, 0, 63, 59
1, 308761, Note_on_c, 0, 54, 50
1, 308776, Note_on_c, 0, 64, 44
1, 308877, Note_off_c, 0, 54, 54
1, 308877, Poly_aftertouch_c, 0, 54, 0
1, 308879, Note_off_c, 0, 64, 61
1, 308914, Note_on_c, 0, 63, 54
1, 309087, Note_off_c, 0, 63, 52
1, 309095, Note_on_c, 0, 61, 53
1, 309112, Note_on_c, 0, 57, 55
1, 309207, Note_off_c, 0, 57, 59
1, 309215, Note_off_c, 0, 61, 50
1, 309215, Poly_aftertouch_c, 0, 61, 0
1, 309255, Note_on_c, 0, 64, 55
1, 309399, Note_off_c, 0, 64, 52
1, 309428, Note_on_c, 0, 63, 54
1, 309442, Note_on_c, 0, 47, 44
1, 309569, Note_off_c, 0, 47, 54
1, 309569, Poly_aftertouch_c, 0, 47, 0
1, 309583, Note_off_c, 0, 63, 55
1, 309596, Note_on_c, 0, 64, 54
1, 309768, Note_on_c, 0, 63, 50
1, 309769, Note_off_c, 0, 64, 37
1, 309775, Note_on_c, 0, 59, 56
1, 309901, Note_off_c, 0, 63, 57
1, 309918, Note_off_c, 0, 59, 52
1, 309918, Poly_aftertouch_c, 0, 59, 0
1, 309925, Note_on_c, 0, 61, 58
1, 309971, Note_off_c, 0, 69, 57
1, 310081, Note_off_c, 0, 61, 45
1, 310081, Poly_aftertouch_c, 0, 61, 0
1, 310102, Note_on_c, 0, 68, 68
1, 310106, Note_on_c, 0, 52, 50
1, 310119, Note_on_c, 0, 63, 54
1, 310234, Note_off_c, 0, 63, 56
1, 310237, Note_off_c, 0, 52, 62
1, 310258, Note_on_c, 0, 61, 56
1, 310408, Note_off_c, 0, 61, 63
1, 310408, Poly_aftertouch_c, 0, 61, 0
1, 310442, Note_on_c, 0, 60, 63
1, 310463, Note_on_c, 0, 54, 38
1, 310521, Note_off_c, 0, 54, 45
1, 310521, Poly_aftertouch_c, 0, 54, 0
1, 310571, Note_off_c, 0, 60, 57
1, 310607, Note_on_c, 0, 63, 55
1, 310770, Note_off_c, 0, 63, 53
1, 310779, Note_on_c, 0, 45, 54
1, 310793, Note_on_c, 0, 61, 49
1, 310894, Note_off_c, 0, 45, 57
1, 310919, Note_off_c, 0, 61, 54
1, 310919, Poly_aftertouch_c, 0, 61, 0
1, 310951, Note_on_c, 0, 63, 48
1, 311119, Note_on_c, 0, 61, 48
1, 311124, Note_on_c, 0, 44, 50
1, 311131, Note_off_c, 0, 63, 52
1, 311214, Note_off_c, 0, 44, 57
1, 311256, Note_off_c, 0, 61, 55
1, 311256, Poly_aftertouch_c, 0, 61, 0
1, 311281, Note_on_c, 0, 60, 52
1, 311310, Note_off_c, 0, 68, 61
1, 311310, Poly_aftertouch_c, 0, 68, 0
1, 311414, Note_off_c, 0, 60, 58
1, 311462, Note_on_c, 0, 66, 60
1, 311465, Note_on_c, 0, 45, 43
1, 311471, Note_on_c, 0, 61, 32
1, 311561, Note_off_c, 0, 45, 61
1, 311636, Note_on_c, 0, 64, 45
1, 311655, Note_off_c, 0, 61, 35
1, 311655, Poly_aftertouch_c, 0, 61, 0
1, 311773, Note_off_c, 0, 64, 53
1, 311804, Note_on_c, 0, 63, 48
1, 311807, Note_on_c, 0, 57, 51
1, 311930, Note_off_c, 0, 57, 47
1, 311947, Note_off_c, 0, 63, 56
1, 311956, Note_off_c, 0, 66, 52
1, 311956, Note_on_c, 0, 61, 51
1, 312106, Note_off_c, 0, 61, 53
1, 312106, Poly_aftertouch_c, 0, 61, 0
1, 312146, Note_on_c, 0, 56, 42
1, 312158, Note_on_c, 0, 68, 51
1, 312164, Note_on_c, 0, 60, 37
1, 312279, Note_off_c, 0, 68, 63
1, 312279, Poly_aftertouch_c, 0, 68, 0
1, 312288, Note_off_c, 0, 60, 59
1, 312303, Note_off_c, 0, 56, 52
1, 312303, Poly_aftertouch_c, 0, 56, 0
1, 312318, Note_on_c, 0, 57, 48
1, 312461, Note_off_c, 0, 57, 52
1, 312480, Note_on_c, 0, 56, 49
1, 312486, Note_on_c, 0, 72, 62
1, 312506, Note_on_c, 0, 63, 35
1, 312635, Note_off_c, 0, 56, 60
1, 312635, Poly_aftertouch_c, 0, 56, 0
1, 312649, Note_on_c, 0, 54, 56
1, 312655, Note_off_c, 0, 72, 60
1, 312675, Note_off_c, 0, 63, 38
1, 312790, Note_off_c, 0, 54, 60
1, 312790, Poly_aftertouch_c, 0, 54, 0
1, 312824, Note_on_c, 0, 56, 54
1, 312827, Note_on_c, 0, 73, 69
1, 312854, Note_on_c, 0, 64, 43
1, 312988, Note_on_c, 0, 54, 46
1, 312991, Note_off_c, 0, 56, 54
1, 312991, Poly_aftertouch_c, 0, 56, 0
1, 313018, Note_off_c, 0, 73, 61
1, 313018, Poly_aftertouch_c, 0, 73, 0
1, 313022, Note_off_c, 0, 64, 38
1, 313148, Note_off_c, 0, 54, 55
1, 313148, Poly_aftertouch_c, 0, 54, 0
1, 313164, Note_on_c, 0, 76, 57
1, 313183, Note_on_c, 0, 68, 42
1, 313185, Note_on_c, 0, 52, 37
1, 313362, Note_on_c, 0, 56, 44
1, 313379, Note_off_c, 0, 52, 35
1, 313455, Note_off_c, 0, 68, 35
1, 313455, Poly_aftertouch_c, 0, 68, 0
1, 313461, Note_off_c, 0, 76, 40
1, 313520, Note_off_c, 0, 56, 56
1, 313520, Poly_aftertouch_c, 0, 56, 0
1, 313543, Note_on_c, 0, 54, 50
1, 313682, Note_on_c, 0, 56, 53
1, 313692, Note_off_c, 0, 54, 56
1, 313692, Poly_aftertouch_c, 0, 54, 0
1, 313860, Note_on_c, 0, 76, 74
1, 313861, Note_off_c, 0, 56, 57
1, 313861, Poly_aftertouch_c, 0, 56, 0
1, 313865, Note_on_c, 0, 54, 54
1, 313868, Note_on_c, 0, 68, 58
1, 314007, Note_off_c, 0, 76, 63
1, 314011, Note_off_c, 0, 68, 62
1, 314011, Poly_aftertouch_c, 0, 68, 0
1, 314025, Note_off_c, 0, 54, 58
1, 314025, Note_on_c, 0, 52, 63
1, 314025, Poly_aftertouch_c, 0, 54, 0
1, 314186, Note_off_c, 0, 52, 60
1, 314195, Note_on_c, 0, 75, 80
1, 314204, Note_on_c, 0, 66, 61
1, 314216, Note_on_c, 0, 54, 48
1, 314319, Note_off_c, 0, 66, 56
1, 314349, Note_on_c, 0, 52, 64
1, 314359, Note_off_c, 0, 54, 55
1, 314359, Poly_aftertouch_c, 0, 54, 0
1, 314366, Note_off_c, 0, 75, 63
1, 314531, Note_off_c, 0, 52, 59
1, 314538, Note_on_c, 0, 78, 80
1, 314548, Note_on_c, 0, 69, 61
1, 314552, Note_on_c, 0, 51, 55
1, 314698, Note_off_c, 0, 51, 55
1, 314722, Note_on_c, 0, 54, 48
1, 314892, Note_off_c, 0, 54, 58
1, 314892, Poly_aftertouch_c, 0, 54, 0
1, 314899, Note_on_c, 0, 52, 59
1, 315057, Note_on_c, 0, 54, 56
1, 315073, Note_off_c, 0, 52, 54
1, 315164, Note_off_c, 0, 78, 63
1, 315164, Poly_aftertouch_c, 0, 78, 0
1, 315223, Note_off_c, 0, 54, 60
1, 315223, Poly_aftertouch_c, 0, 54, 0
1, 315228, Note_off_c, 0, 69, 60
1, 315237, Note_on_c, 0, 52, 55
1, 315237, Note_on_c, 0, 68, 63
1, 315245, Note_on_c, 0, 72, 71
1, 315334, Note_off_c, 0, 68, 53
1, 315334, Poly_aftertouch_c, 0, 68, 0
1, 315386, Note_off_c, 0, 52, 58
1, 315400, Note_on_c, 0, 66, 72
1, 315415, Note_on_c, 0, 51, 53
1, 315548, Note_off_c, 0, 51, 58
1, 315567, Note_on_c, 0, 73, 68
1, 315577, Note_on_c, 0, 68, 61
1, 315578, Note_on_c, 0, 52, 50
1, 315605, Note_off_c, 0, 66, 59
1, 315624, Note_off_c, 0, 72, 26
1, 315685, Note_off_c, 0, 68, 55
1, 315685, Poly_aftertouch_c, 0, 68, 0
1, 315716, Note_off_c, 0, 52, 57
1, 315737, Note_on_c, 0, 51, 52
1, 315885, Note_off_c, 0, 51, 57
1, 315917, Note_on_c, 0, 70, 64
1, 315921, Note_on_c, 0, 49, 44
1, 315999, Note_off_c, 0, 70, 56
1, 316055, Note_off_c, 0, 49, 59
1, 316055, Poly_aftertouch_c, 0, 49, 0
1, 316070, Note_on_c, 0, 52, 50
1, 316253, Note_on_c, 0, 43, 51
1, 316259, Note_on_c, 0, 63, 48
1, 316302, Note_off_c, 0, 52, 34
1, 316400, Note_off_c, 0, 43, 56
1, 316408, Note_off_c, 0, 73, 62
1, 316408, Note_on_c, 0, 64, 56
1, 316408, Poly_aftertouch_c, 0, 73, 0
1, 316424, Note_off_c, 0, 63, 41
1, 316588, Note_off_c, 0, 64, 62
1, 316597, Note_on_c, 0, 67, 65
1, 316610, Note_on_c, 0, 46, 46
1, 316621, Note_on_c, 0, 63, 48
1, 316694, Note_off_c, 0, 46, 57
1, 316729, Note_off_c, 0, 63, 36
1, 316772, Note_on_c, 0, 61, 51
1, 316925, Note_off_c, 0, 61, 55
1, 316925, Poly_aftertouch_c, 0, 61, 0
1, 316934, Note_off_c, 0, 67, 62
1, 316934, Note_on_c, 0, 47, 49
1, 316936, Note_on_c, 0, 68, 67
1, 316957, Note_on_c, 0, 63, 48
1, 317061, Note_off_c, 0, 47, 57
1, 317061, Poly_aftertouch_c, 0, 47, 0
1, 317070, Note_off_c, 0, 63, 58
1, 317093, Note_on_c, 0, 61, 51
1, 317257, Note_off_c, 0, 61, 50
1, 317257, Poly_aftertouch_c, 0, 61, 0
1, 317284, Note_on_c, 0, 52, 55
1, 317289, Note_on_c, 0, 59, 47
1, 317377, Note_off_c, 0, 59, 51
1, 317377, Poly_aftertouch_c, 0, 59, 0
1, 317414, Note_off_c, 0, 52, 59
1, 317440, Note_on_c, 0, 63, 47
1, 317561, Note_off_c, 0, 63, 42
1, 317607, Note_on_c, 0, 61, 53
1, 317613, Note_on_c, 0, 46, 50
1, 317722, Note_off_c, 0, 46, 61
1, 317747, Note_off_c, 0, 61, 44
1, 317747, Poly_aftertouch_c, 0, 61, 0
1, 317781, Note_on_c, 0, 63, 49
1, 317854, Note_off_c, 0, 68, 47
1, 317854, Poly_aftertouch_c, 0, 68, 0
1, 317945, Note_off_c, 0, 63, 38
1, 317971, Note_on_c, 0, 49, 42
1, 317976, Note_on_c, 0, 61, 39
1, 317981, Note_on_c, 0, 70, 58
1, 318091, Note_off_c, 0, 61, 40
1, 318091, Poly_aftertouch_c, 0, 61, 0
1, 318111, Note_off_c, 0, 49, 53
1, 318111, Poly_aftertouch_c, 0, 49, 0
1, 318135, Note_on_c, 0, 59, 47
1, 318265, Note_off_c, 0, 59, 55
1, 318265, Poly_aftertouch_c, 0, 59, 0
1, 318286, Note_off_c, 0, 70, 38
1, 318305, Note_on_c, 0, 61, 37
1, 318306, Note_on_c, 0, 51, 43
1, 318314, Note_on_c, 0, 63, 48
1, 318399, Note_off_c, 0, 61, 51
1, 318399, Poly_aftertouch_c, 0, 61, 0
1, 318413, Note_off_c, 0, 51, 51
1, 318444, Note_on_c, 0, 59, 48
1, 318534, Note_off_c, 0, 63, 53
1, 318556, Note_off_c, 0, 59, 51
1, 318556, Poly_aftertouch_c, 0, 59, 0
1, 318623, Note_on_c, 0, 39, 46
1, 318638, Note_on_c, 0, 67, 50
1, 318642, Note_on_c, 0, 58, 38
1, 318721, Note_off_c, 0, 39, 59
1, 318772, Note_off_c, 0, 67, 61
1, 318786, Note_off_c, 0, 58, 49
1, 318786, Poly_aftertouch_c, 0, 58, 0
1, 318804, Note_on_c, 0, 61, 43
1, 318911, Note_off_c, 0, 61, 60
1, 318911, Poly_aftertouch_c, 0, 61, 0
1, 318962, Note_on_c, 0, 68, 56
1, 318973, Note_on_c, 0, 44, 48
1, 318979, Note_on_c, 0, 59, 43
1, 319068, Note_off_c, 0, 44, 62
1, 319114, Note_off_c, 0, 59, 57
1, 319114, Poly_aftertouch_c, 0, 59, 0
1, 319137, Note_on_c, 0, 61, 45
1, 319276, Note_off_c, 0, 61, 49
1, 319276, Poly_aftertouch_c, 0, 61, 0
1, 319312, Note_on_c, 0, 56, 53
1, 319316, Note_on_c, 0, 63, 53
1, 319437, Note_off_c, 0, 56, 62
1, 319437, Poly_aftertouch_c, 0, 56, 0
1, 319452, Note_off_c, 0, 63, 55
1, 319454, Note_on_c, 0, 54, 56
1, 319461, Note_on_c, 0, 59, 46
1, 319563, Note_off_c, 0, 68, 54
1, 319563, Poly_aftertouch_c, 0, 68, 0
1, 319600, Note_off_c, 0, 59, 49
1, 319600, Note_off_c, 0, 54, 57
1, 319600, Poly_aftertouch_c, 0, 54, 0
1, 319600, Poly_aftertouch_c, 0, 59, 0
1, 319646, Note_on_c, 0, 56, 43
1, 319659, Note_on_c, 0, 64, 51
1, 319731, Note_off_c, 0, 56, 57
1, 319731, Poly_aftertouch_c, 0, 56, 0
1, 319826, Note_on_c, 0, 69, 45
1, 319951, Note_off_c, 0, 69, 55
1, 319992, Note_on_c, 0, 49, 51
1, 319993, Note_on_c, 0, 71, 50
1, 320075, Note_off_c, 0, 49, 60
1, 320075, Poly_aftertouch_c, 0, 49, 0
1, 320131, Note_off_c, 0, 71, 56
1, 320131, Poly_aftertouch_c, 0, 71, 0
1, 320153, Note_on_c, 0, 68, 51
1, 320285, Note_off_c, 0, 68, 56
1, 320285, Poly_aftertouch_c, 0, 68, 0
1, 320315, Note_on_c, 0, 42, 57
1, 320329, Note_on_c, 0, 69, 57
1, 320423, Note_off_c, 0, 42, 62
1, 320463, Note_off_c, 0, 69, 60
1, 320488, Note_on_c, 0, 71, 57
1, 320636, Note_off_c, 0, 71, 58
1, 320636, Poly_aftertouch_c, 0, 71, 0
1, 320664, Note_on_c, 0, 69, 51
1, 320665, Note_on_c, 0, 54, 54
1, 320794, Note_off_c, 0, 69, 59
1, 320807, Note_off_c, 0, 54, 56
1, 320807, Note_off_c, 0, 64, 56
1, 320807, Poly_aftertouch_c, 0, 54, 0
1, 320812, Note_on_c, 0, 68, 55
1, 320819, Note_on_c, 0, 52, 54
1, 320951, Note_off_c, 0, 68, 52
1, 320951, Poly_aftertouch_c, 0, 68, 0
1, 320960, Note_off_c, 0, 52, 53
1, 320981, Note_on_c, 0, 63, 68
1, 320989, Note_on_c, 0, 54, 52
1, 320995, Note_on_c, 0, 69, 55
1, 321065, Note_off_c, 0, 54, 53
1, 321065, Poly_aftertouch_c, 0, 54, 0
1, 321080, Note_off_c, 0, 69, 49
1, 321141, Note_on_c, 0, 68, 50
1, 321313, Note_on_c, 0, 47, 49
1, 321321, Note_off_c, 0, 68, 44
1, 321321, Poly_aftertouch_c, 0, 68, 0
1, 321327, Note_on_c, 0, 66, 55
1, 321392, Note_off_c, 0, 47, 56
1, 321392, Poly_aftertouch_c, 0, 47, 0
1, 321444, Poly_aftertouch_c, 0, 63, 20
1, 321446, Note_off_c, 0, 63, 46
1, 321446, Poly_aftertouch_c, 0, 63, 0
1, 321477, Note_on_c, 0, 69, 53
1, 321502, Note_off_c, 0, 66, 34
1, 321648, Note_off_c, 0, 69, 36
1, 321660, Note_on_c, 0, 52, 40
1, 321669, Note_on_c, 0, 64, 43
1, 321673, Note_on_c, 0, 68, 53
1, 321794, Note_off_c, 0, 52, 52
1, 321810, Note_off_c, 0, 68, 49
1, 321810, Poly_aftertouch_c, 0, 68, 0
1, 321822, Note_on_c, 0, 69, 51
1, 321825, Note_on_c, 0, 54, 48
1, 321967, Note_off_c, 0, 69, 57
1, 321981, Note_off_c, 0, 54, 48
1, 321981, Poly_aftertouch_c, 0, 54, 0
1, 321985, Note_on_c, 0, 56, 57
1, 321990, Note_on_c, 0, 71, 59
1, 322079, Note_off_c, 0, 71, 60
1, 322079, Poly_aftertouch_c, 0, 71, 0
1, 322102, Note_off_c, 0, 56, 49
1, 322102, Poly_aftertouch_c, 0, 56, 0
1, 322151, Note_on_c, 0, 68, 61
1, 322162, Note_on_c, 0, 52, 41
1, 322274, Note_off_c, 0, 52, 57
1, 322294, Note_off_c, 0, 64, 41
1, 322312, Note_off_c, 0, 68, 63
1, 322312, Poly_aftertouch_c, 0, 68, 0
1, 322321, Note_on_c, 0, 73, 73
1, 322344, Note_on_c, 0, 57, 39
1, 322483, Note_off_c, 0, 57, 44
1, 322484, Poly_aftertouch_c, 0, 57, 0
1, 322488, Note_on_c, 0, 59, 49
1, 322494, Note_on_c, 0, 71, 57
1, 322655, Note_off_c, 0, 59, 57
1, 322655, Poly_aftertouch_c, 0, 59, 0
1, 322663, Note_on_c, 0, 69, 65
1, 322667, Note_on_c, 0, 61, 57
1, 322794, Note_on_c, 0, 68, 68
1, 322806, Note_off_c, 0, 61, 58
1, 322806, Poly_aftertouch_c, 0, 61, 0
1, 322825, Note_on_c, 0, 57, 54
1, 322833, Note_off_c, 0, 71, 31
1, 322833, Poly_aftertouch_c, 0, 71, 0
1, 322844, Note_off_c, 0, 69, 58
1, 322974, Note_off_c, 0, 57, 57
1, 322975, Note_on_c, 0, 66, 63
1, 322996, Note_on_c, 0, 62, 54
1, 322999, Note_on_c, 0, 57, 17
1, 323000, Note_off_c, 0, 57, 127
1, 323020, Note_off_c, 0, 68, 62
1, 323020, Poly_aftertouch_c, 0, 68, 0
1, 323108, Note_off_c, 0, 73, 56
1, 323108, Poly_aftertouch_c, 0, 73, 0
1, 323128, Note_off_c, 0, 62, 54
1, 323144, Note_on_c, 0, 64, 51
1, 323304, Note_off_c, 0, 64, 47
1, 323312, Note_on_c, 0, 62, 49
1, 323319, Note_on_c, 0, 73, 70
1, 323390, Note_off_c, 0, 73, 64
1, 323390, Poly_aftertouch_c, 0, 73, 0
1, 323460, Note_off_c, 0, 62, 51
1, 323478, Note_on_c, 0, 61, 45
1, 323647, Note_off_c, 0, 61, 59
1, 323647, Poly_aftertouch_c, 0, 61, 0
1, 323664, Note_on_c, 0, 71, 66
1, 323673, Note_on_c, 0, 62, 41
1, 323793, Note_off_c, 0, 66, 55
1, 323828, Note_on_c, 0, 61, 46
1, 323829, Note_off_c, 0, 62, 52
1, 323985, Note_off_c, 0, 61, 56
1, 323985, Poly_aftertouch_c, 0, 61, 0
1, 324001, Note_on_c, 0, 66, 54
1, 324012, Note_on_c, 0, 59, 48
1, 324102, Note_off_c, 0, 66, 57
1, 324131, Note_off_c, 0, 59, 55
1, 324131, Poly_aftertouch_c, 0, 59, 0
1, 324159, Note_on_c, 0, 62, 53
1, 324307, Note_off_c, 0, 62, 53
1, 324336, Note_off_c, 0, 71, 51
1, 324336, Poly_aftertouch_c, 0, 71, 0
1, 324340, Note_on_c, 0, 64, 45
1, 324349, Note_on_c, 0, 61, 43
1, 324485, Note_off_c, 0, 61, 50
1, 324485, Poly_aftertouch_c, 0, 61, 0
1, 324494, Note_on_c, 0, 62, 42
1, 324503, Note_on_c, 0, 71, 57
1, 324673, Note_on_c, 0, 61, 48
1, 324677, Note_on_c, 0, 69, 63
1, 324680, Note_off_c, 0, 62, 52
1, 324695, Note_off_c, 0, 71, 54
1, 324695, Poly_aftertouch_c, 0, 71, 0
1, 324809, Note_off_c, 0, 61, 54
1, 324809, Poly_aftertouch_c, 0, 61, 0
1, 324822, Note_off_c, 0, 69, 60
1, 324830, Note_on_c, 0, 68, 67
1, 324843, Note_on_c, 0, 59, 52
1, 324927, Poly_aftertouch_c, 0, 64, 24
1, 324981, Note_off_c, 0, 59, 54
1, 324981, Poly_aftertouch_c, 0, 59, 0
1, 324994, Note_on_c, 0, 61, 55
1, 324996, Note_on_c, 0, 69, 70
1, 324999, Note_off_c, 0, 64, 32
1, 324999, Poly_aftertouch_c, 0, 64, 0
1, 325037, Note_off_c, 0, 68, 59
1, 325037, Poly_aftertouch_c, 0, 68, 0
1, 325124, Note_off_c, 0, 61, 52
1, 325124, Poly_aftertouch_c, 0, 61, 0
1, 325155, Note_on_c, 0, 59, 59
1, 325163, Note_on_c, 0, 71, 73
1, 325187, Note_off_c, 0, 69, 60
1, 325325, Note_off_c, 0, 59, 62
1, 325325, Poly_aftertouch_c, 0, 59, 0
1, 325333, Note_on_c, 0, 57, 66
1, 325333, Note_on_c, 0, 73, 77
1, 325352, Note_off_c, 0, 71, 45
1, 325352, Poly_aftertouch_c, 0, 71, 0
1, 325451, Note_off_c, 0, 73, 59
1, 325451, Poly_aftertouch_c, 0, 73, 0
1, 325479, Note_off_c, 0, 57, 59
1, 325479, Note_on_c, 0, 61, 71
1, 325480, Note_on_c, 0, 69, 64
1, 325648, Note_off_c, 0, 69, 49
1, 325651, Note_off_c, 0, 61, 60
1, 325651, Poly_aftertouch_c, 0, 61, 0
1, 325668, Note_on_c, 0, 59, 76
1, 325675, Note_on_c, 0, 74, 64
1, 325807, Note_off_c, 0, 74, 59
1, 325845, Note_on_c, 0, 76, 52
1, 326003, Note_on_c, 0, 69, 80
1, 326019, Note_off_c, 0, 76, 57
1, 326033, Note_on_c, 0, 74, 56
1, 326099, Note_off_c, 0, 69, 61
1, 326129, Note_off_c, 0, 74, 58
1, 326164, Note_on_c, 0, 73, 52
1, 326332, Note_off_c, 0, 73, 49
1, 326332, Poly_aftertouch_c, 0, 73, 0
1, 326354, Note_on_c, 0, 68, 81
1, 326376, Note_on_c, 0, 74, 55
1, 326474, Note_off_c, 0, 59, 58
1, 326474, Poly_aftertouch_c, 0, 59, 0
1, 326487, Note_on_c, 0, 73, 56
1, 326495, Note_off_c, 0, 74, 54
1, 326677, Note_off_c, 0, 73, 57
1, 326677, Poly_aftertouch_c, 0, 73, 0
1, 326692, Note_on_c, 0, 64, 74
1, 326706, Note_on_c, 0, 71, 54
1, 326769, Note_off_c, 0, 64, 61
1, 326769, Poly_aftertouch_c, 0, 64, 0
1, 326834, Note_off_c, 0, 71, 54
1, 326834, Poly_aftertouch_c, 0, 71, 0
1, 326875, Note_on_c, 0, 74, 50
1, 327029, Note_on_c, 0, 57, 66
1, 327046, Note_off_c, 0, 74, 57
1, 327063, Note_on_c, 0, 73, 54
1, 327188, Note_off_c, 0, 73, 50
1, 327188, Poly_aftertouch_c, 0, 73, 0
1, 327207, Note_on_c, 0, 74, 56
1, 327312, Note_off_c, 0, 68, 61
1, 327312, Poly_aftertouch_c, 0, 68, 0
1, 327380, Note_on_c, 0, 61, 69
1, 327394, Note_off_c, 0, 74, 56
1, 327403, Note_on_c, 0, 73, 54
1, 327458, Note_off_c, 0, 61, 63
1, 327458, Poly_aftertouch_c, 0, 61, 0
1, 327528, Note_off_c, 0, 73, 56
1, 327528, Poly_aftertouch_c, 0, 73, 0
1, 327559, Note_on_c, 0, 71, 44
1, 327700, Note_off_c, 0, 71, 54
1, 327700, Poly_aftertouch_c, 0, 71, 0
1, 327712, Note_on_c, 0, 66, 73
1, 327742, Note_on_c, 0, 73, 54
1, 327788, Note_off_c, 0, 57, 54
1, 327874, Note_off_c, 0, 73, 50
1, 327874, Poly_aftertouch_c, 0, 73, 0
1, 327889, Note_on_c, 0, 71, 53
1, 328032, Note_off_c, 0, 71, 54
1, 328032, Poly_aftertouch_c, 0, 71, 0
1, 328053, Note_on_c, 0, 62, 61
1, 328068, Note_on_c, 0, 69, 58
1, 328119, Note_off_c, 0, 62, 56
1, 328236, Note_on_c, 0, 73, 57
1, 328285, Note_off_c, 0, 69, 54
1, 328396, Note_off_c, 0, 66, 59
1, 328401, Note_on_c, 0, 56, 50
1, 328408, Note_on_c, 0, 71, 60
1, 328427, Note_off_c, 0, 73, 58
1, 328427, Poly_aftertouch_c, 0, 73, 0
1, 328494, Note_off_c, 0, 56, 62
1, 328494, Poly_aftertouch_c, 0, 56, 0
1, 328550, Note_off_c, 0, 71, 57
1, 328550, Poly_aftertouch_c, 0, 71, 0
1, 328571, Note_on_c, 0, 69, 60
1, 328656, Poly_aftertouch_c, 0, 71, 127
1, 328721, Note_off_c, 0, 69, 58
1, 328743, Note_on_c, 0, 59, 43
1, 328745, Note_on_c, 0, 68, 55
1, 328855, Note_off_c, 0, 59, 59
1, 328855, Poly_aftertouch_c, 0, 59, 0
1, 328896, Note_off_c, 0, 68, 57
1, 328896, Poly_aftertouch_c, 0, 68, 0
1, 328900, Note_on_c, 0, 66, 52
1, 329072, Note_on_c, 0, 53, 46
1, 329075, Note_off_c, 0, 66, 58
1, 329078, Note_on_c, 0, 68, 55
1, 329163, Note_off_c, 0, 53, 51
1, 329163, Poly_aftertouch_c, 0, 53, 0
1, 329214, Note_off_c, 0, 68, 54
1, 329214, Poly_aftertouch_c, 0, 68, 0
1, 329225, Note_on_c, 0, 66, 52
1, 329363, Note_off_c, 0, 66, 58
1, 329399, Note_on_c, 0, 65, 44
1, 329405, Note_on_c, 0, 49, 43
1, 329475, Note_off_c, 0, 49, 57
1, 329475, Poly_aftertouch_c, 0, 49, 0
1, 329522, Note_off_c, 0, 65, 57
1, 329577, Note_on_c, 0, 68, 39
1, 329665, Note_off_c, 0, 68, 48
1, 329665, Poly_aftertouch_c, 0, 68, 0
1, 329718, Poly_aftertouch_c, 0, 71, 0
1, 329727, Note_on_c, 0, 54, 42
1, 329731, Note_on_c, 0, 66, 46
1, 329860, Note_off_c, 0, 66, 53
1, 329885, Note_on_c, 0, 68, 46
1, 330040, Note_off_c, 0, 68, 62
1, 330040, Poly_aftertouch_c, 0, 68, 0
1, 330060, Note_on_c, 0, 61, 46
1, 330065, Note_on_c, 0, 70, 53
1, 330121, Note_off_c, 0, 61, 62
1, 330121, Poly_aftertouch_c, 0, 61, 0
1, 330178, Note_off_c, 0, 70, 60
1, 330220, Note_on_c, 0, 71, 44
1, 330357, Note_off_c, 0, 71, 57
1, 330375, Poly_aftertouch_c, 0, 54, 24
1, 330396, Note_on_c, 0, 62, 45
1, 330396, Note_on_c, 0, 70, 52
1, 330428, Note_off_c, 0, 54, 37
1, 330428, Poly_aftertouch_c, 0, 54, 0
1, 330429, Poly_aftertouch_c, 0, 54, 0
1, 330569, Note_off_c, 0, 70, 54
1, 330569, Note_on_c, 0, 71, 56
1, 330717, Note_off_c, 0, 71, 59
1, 330730, Note_on_c, 0, 54, 53
1, 330742, Note_on_c, 0, 73, 56
1, 330796, Note_off_c, 0, 54, 59
1, 330819, Note_off_c, 0, 73, 52
1, 330819, Poly_aftertouch_c, 0, 73, 0
1, 330885, Note_on_c, 0, 70, 53
1, 331056, Note_off_c, 0, 70, 57
1, 331059, Note_on_c, 0, 55, 58
1, 331093, Note_on_c, 0, 71, 46
1, 331202, Note_off_c, 0, 71, 60
1, 331215, Note_on_c, 0, 70, 62
1, 331373, Note_off_c, 0, 70, 60
1, 331388, Note_on_c, 0, 63, 69
1, 331398, Note_on_c, 0, 71, 56
1, 331422, Note_off_c, 0, 62, 30
1, 331460, Note_off_c, 0, 63, 60
1, 331460, Poly_aftertouch_c, 0, 63, 0
1, 331542, Note_off_c, 0, 71, 54
1, 331550, Note_on_c, 0, 73, 56
1, 331729, Note_off_c, 0, 73, 59
1, 331729, Poly_aftertouch_c, 0, 73, 0
1, 331744, Note_on_c, 0, 64, 75
1, 331752, Note_on_c, 0, 71, 59
1, 331873, Note_off_c, 0, 55, 62
1, 331901, Note_on_c, 0, 73, 62
1, 331905, Note_off_c, 0, 71, 53
1, 332078, Note_on_c, 0, 56, 80
1, 332087, Note_off_c, 0, 73, 52
1, 332087, Poly_aftertouch_c, 0, 73, 0
1, 332102, Note_on_c, 0, 74, 59
1, 332170, Note_off_c, 0, 56, 62
1, 332170, Poly_aftertouch_c, 0, 56, 0
1, 332208, Note_off_c, 0, 74, 50
1, 332249, Note_on_c, 0, 71, 61
1, 332423, Note_off_c, 0, 71, 52
1, 332427, Note_on_c, 0, 57, 74
1, 332437, Note_on_c, 0, 73, 63
1, 332562, Note_off_c, 0, 73, 52
1, 332562, Poly_aftertouch_c, 0, 73, 0
1, 332588, Note_on_c, 0, 71, 60
1, 332657, Note_off_c, 0, 64, 37
1, 332657, Poly_aftertouch_c, 0, 64, 0
1, 332754, Note_on_c, 0, 65, 84
1, 332760, Note_on_c, 0, 73, 63
1, 332762, Note_off_c, 0, 71, 52
1, 332837, Note_off_c, 0, 65, 63
1, 332900, Note_off_c, 0, 73, 62
1, 332900, Note_on_c, 0, 74, 70
1, 332900, Poly_aftertouch_c, 0, 73, 0
1, 333078, Note_on_c, 0, 66, 80
1, 333085, Note_off_c, 0, 57, 61
1, 333088, Note_on_c, 0, 73, 69
1, 333097, Note_off_c, 0, 74, 61
1, 333234, Note_on_c, 0, 74, 72
1, 333251, Note_off_c, 0, 73, 55
1, 333251, Poly_aftertouch_c, 0, 73, 0
1, 333413, Note_on_c, 0, 58, 74
1, 333426, Note_on_c, 0, 76, 61
1, 333432, Note_off_c, 0, 74, 54
1, 333568, Note_on_c, 0, 73, 69
1, 333620, Note_off_c, 0, 76, 59
1, 333748, Note_on_c, 0, 74, 66
1, 333755, Note_on_c, 0, 59, 64
1, 333766, Note_off_c, 0, 58, 57
1, 333766, Poly_aftertouch_c, 0, 58, 0
1, 333769, Note_off_c, 0, 73, 56
1, 333769, Poly_aftertouch_c, 0, 73, 0
1, 333890, Note_off_c, 0, 59, 49
1, 333890, Poly_aftertouch_c, 0, 59, 0
1, 333913, Note_on_c, 0, 76, 65
1, 333931, Note_off_c, 0, 74, 55
1, 334077, Note_on_c, 0, 74, 71
1, 334097, Note_on_c, 0, 54, 61
1, 334107, Note_off_c, 0, 76, 57
1, 334204, Note_off_c, 0, 54, 60
1, 334224, Note_on_c, 0, 73, 72
1, 334250, Note_off_c, 0, 74, 55
1, 334417, Note_on_c, 0, 47, 55
1, 334418, Note_on_c, 0, 74, 67
1, 334455, Note_off_c, 0, 73, 62
1, 334455, Poly_aftertouch_c, 0, 73, 0
1, 334532, Note_off_c, 0, 47, 51
1, 334532, Poly_aftertouch_c, 0, 47, 0
1, 334573, Note_on_c, 0, 73, 76
1, 334628, Note_off_c, 0, 74, 59
1, 334737, Note_on_c, 0, 71, 71
1, 334749, Note_on_c, 0, 50, 60
1, 334794, Note_off_c, 0, 73, 58
1, 334794, Poly_aftertouch_c, 0, 73, 0
1, 334865, Note_off_c, 0, 50, 56
1, 334888, Note_on_c, 0, 74, 70
1, 335017, Note_off_c, 0, 66, 59
1, 335037, Note_off_c, 0, 71, 55
1, 335074, Note_on_c, 0, 67, 60
1, 335078, Note_on_c, 0, 52, 55
1, 335122, Note_off_c, 0, 74, 58
1, 335229, Note_on_c, 0, 66, 68
1, 335243, Note_off_c, 0, 52, 54
1, 335401, Note_on_c, 0, 64, 72
1, 335410, Note_on_c, 0, 54, 64
1, 335419, Note_off_c, 0, 66, 54
1, 335537, Note_off_c, 0, 54, 62
1, 335559, Note_on_c, 0, 62, 74
1, 335577, Note_off_c, 0, 64, 61
1, 335577, Poly_aftertouch_c, 0, 64, 0
1, 335732, Note_on_c, 0, 55, 70
1, 335733, Note_on_c, 0, 64, 67
1, 335765, Note_off_c, 0, 62, 58
1, 335848, Note_off_c, 0, 55, 60
1, 335882, Note_on_c, 0, 62, 73
1, 335883, Note_off_c, 0, 64, 57
1, 335883, Poly_aftertouch_c, 0, 64, 0
1, 336054, Note_on_c, 0, 61, 67
1, 336061, Note_on_c, 0, 52, 55
1, 336067, Note_off_c, 0, 62, 56
1, 336175, Note_off_c, 0, 52, 60
1, 336215, Note_on_c, 0, 64, 65
1, 336253, Note_off_c, 0, 61, 60
1, 336253, Poly_aftertouch_c, 0, 61, 0
1, 336388, Note_off_c, 0, 64, 56
1, 336388, Note_on_c, 0, 57, 68
1, 336388, Poly_aftertouch_c, 0, 64, 0
1, 336399, Note_on_c, 0, 49, 62
1, 336445, Note_off_c, 0, 67, 61
1, 336543, Note_off_c, 0, 49, 63
1, 336543, Poly_aftertouch_c, 0, 49, 0
1, 336570, Note_on_c, 0, 67, 64
1, 336727, Note_on_c, 0, 45, 68
1, 336734, Note_on_c, 0, 66, 62
1, 336817, Note_off_c, 0, 67, 33
1, 336875, Note_on_c, 0, 64, 65
1, 336934, Note_off_c, 0, 66, 61
1, 337037, Note_off_c, 0, 45, 58
1, 337069, Note_on_c, 0, 50, 56
1, 337072, Note_on_c, 0, 66, 69
1, 337075, Note_off_c, 0, 64, 60
1, 337075, Poly_aftertouch_c, 0, 64, 0
1, 337223, Note_off_c, 0, 50, 36
1, 337231, Note_on_c, 0, 64, 59
1, 337249, Note_off_c, 0, 66, 49
1, 337386, Note_on_c, 0, 42, 49
1, 337398, Note_on_c, 0, 62, 58
1, 337492, Note_off_c, 0, 64, 36
1, 337492, Poly_aftertouch_c, 0, 64, 0
1, 337501, Note_off_c, 0, 42, 55
1, 337551, Note_on_c, 0, 66, 62
1, 337567, Note_off_c, 0, 62, 59
1, 337649, Note_off_c, 0, 66, 61
1, 337733, Note_on_c, 0, 43, 50
1, 337744, Note_on_c, 0, 59, 59
1, 337832, Note_off_c, 0, 57, 41
1, 337887, Note_on_c, 0, 57, 48
1, 337891, Note_off_c, 0, 43, 52
1, 338051, Note_off_c, 0, 57, 60
1, 338069, Note_on_c, 0, 55, 57
1, 338077, Note_on_c, 0, 47, 48
1, 338191, Note_off_c, 0, 47, 56
1, 338191, Poly_aftertouch_c, 0, 47, 0
1, 338212, Note_off_c, 0, 55, 62
1, 338222, Note_on_c, 0, 54, 57
1, 338391, Note_off_c, 0, 59, 57
1, 338391, Poly_aftertouch_c, 0, 59, 0
1, 338395, Note_on_c, 0, 61, 59
1, 338400, Note_off_c, 0, 54, 58
1, 338407, Note_on_c, 0, 40, 47
1, 338408, Note_on_c, 0, 55, 45
1, 338496, Note_off_c, 0, 40, 48
1, 338526, Note_off_c, 0, 55, 59
1, 338556, Note_on_c, 0, 54, 53
1, 338719, Note_off_c, 0, 54, 60
1, 338736, Note_on_c, 0, 45, 50
1, 338748, Note_on_c, 0, 52, 50
1, 338818, Note_off_c, 0, 45, 62
1, 338846, Note_off_c, 0, 52, 60
1, 338879, Note_on_c, 0, 55, 48
1, 338925, Note_off_c, 0, 61, 58
1, 338925, Poly_aftertouch_c, 0, 61, 0
1, 339062, Note_on_c, 0, 62, 59
1, 339069, Note_off_c, 0, 55, 56
1, 339079, Note_on_c, 0, 50, 44
1, 339106, Note_on_c, 0, 54, 29
1, 339159, Note_off_c, 0, 62, 60
1, 339187, Note_off_c, 0, 50, 56
1, 339232, Note_on_c, 0, 49, 44
1, 339359, Note_off_c, 0, 54, 37
1, 339369, Note_off_c, 0, 49, 57
1, 339369, Poly_aftertouch_c, 0, 49, 0
1, 339409, Note_on_c, 0, 66, 59
1, 339420, Note_on_c, 0, 50, 39
1, 339470, Note_off_c, 0, 66, 61
1, 339548, Note_off_c, 0, 50, 53
1, 339570, Note_on_c, 0, 52, 44
1, 339693, Note_off_c, 0, 52, 60
1, 339726, Note_on_c, 0, 50, 45
1, 339737, Note_on_c, 0, 71, 64
1, 339868, Note_off_c, 0, 50, 55
1, 339909, Note_on_c, 0, 55, 47
1, 340034, Note_off_c, 0, 55, 33
1, 340079, Note_on_c, 0, 59, 60
1, 340093, Note_on_c, 0, 54, 42
1, 340148, Note_off_c, 0, 59, 57
1, 340148, Poly_aftertouch_c, 0, 59, 0
1, 340224, Note_off_c, 0, 54, 57
1, 340242, Note_on_c, 0, 55, 43
1, 340420, Note_on_c, 0, 64, 64
1, 340424, Note_on_c, 0, 49, 38
1, 340456, Note_off_c, 0, 55, 34
1, 340573, Note_off_c, 0, 49, 52
1, 340573, Poly_aftertouch_c, 0, 49, 0
1, 340580, Note_on_c, 0, 47, 46
1, 340766, Note_off_c, 0, 47, 51
1, 340766, Poly_aftertouch_c, 0, 47, 0
1, 340770, Note_on_c, 0, 49, 46
1, 340774, Note_on_c, 0, 70, 64
1, 340776, Note_off_c, 0, 71, 36
1, 340863, Note_off_c, 0, 70, 50
1, 340920, Note_off_c, 0, 49, 61
1, 340920, Poly_aftertouch_c, 0, 49, 0
1, 340936, Note_on_c, 0, 68, 60
1, 340947, Note_on_c, 0, 50, 46
1, 341043, Note_off_c, 0, 68, 60
1, 341043, Poly_aftertouch_c, 0, 68, 0
1, 341082, Note_off_c, 0, 50, 58
1, 341119, Note_on_c, 0, 49, 53
1, 341126, Note_on_c, 0, 70, 61
1, 341229, Note_off_c, 0, 49, 62
1, 341229, Poly_aftertouch_c, 0, 49, 0
1, 341282, Note_on_c, 0, 54, 50
1, 341418, Note_off_c, 0, 64, 44
1, 341418, Poly_aftertouch_c, 0, 64, 0
1, 341433, Note_off_c, 0, 54, 54
1, 341444, Note_on_c, 0, 66, 86
1, 341451, Note_on_c, 0, 52, 62
1, 341585, Note_off_c, 0, 52, 63
1, 341586, Note_off_c, 0, 66, 62
1, 341592, Note_on_c, 0, 54, 65
1, 341744, Note_off_c, 0, 54, 54
1, 341751, Note_off_c, 0, 70, 60
1, 341774, Note_on_c, 0, 62, 82
1, 341785, Note_on_c, 0, 71, 74
1, 341794, Note_on_c, 0, 47, 57
1, 341908, Note_off_c, 0, 62, 59
1, 341939, Note_off_c, 0, 47, 55
1, 341939, Poly_aftertouch_c, 0, 47, 0
1, 341949, Note_on_c, 0, 49, 56
1, 342104, Note_on_c, 0, 59, 84
1, 342114, Note_off_c, 0, 49, 57
1, 342114, Poly_aftertouch_c, 0, 49, 0
1, 342124, Note_on_c, 0, 50, 62
1, 342201, Note_off_c, 0, 59, 61
1, 342201, Poly_aftertouch_c, 0, 59, 0
1, 342249, Note_off_c, 0, 50, 54
1, 342279, Note_on_c, 0, 47, 65
1, 342444, Note_on_c, 0, 67, 81
1, 342475, Note_on_c, 0, 52, 56
1, 342501, Note_off_c, 0, 47, 32
1, 342501, Poly_aftertouch_c, 0, 47, 0
1, 342619, Note_on_c, 0, 50, 63
1, 342628, Note_off_c, 0, 52, 53
1, 342733, Note_off_c, 0, 71, 39
1, 342775, Note_off_c, 0, 50, 57
1, 342775, Note_on_c, 0, 49, 61
1, 342787, Note_on_c, 0, 76, 80
1, 342893, Note_off_c, 0, 76, 62
1, 342937, Note_on_c, 0, 47, 61
1, 342939, Note_off_c, 0, 49, 61
1, 342939, Poly_aftertouch_c, 0, 49, 0
1, 343129, Note_on_c, 0, 69, 70
1, 343147, Note_on_c, 0, 49, 51
1, 343155, Note_off_c, 0, 47, 51
1, 343155, Poly_aftertouch_c, 0, 47, 0
1, 343303, Note_off_c, 0, 49, 57
1, 343303, Poly_aftertouch_c, 0, 49, 0
1, 343314, Note_on_c, 0, 52, 56
1, 343414, Note_off_c, 0, 67, 51
1, 343473, Note_on_c, 0, 66, 78
1, 343477, Note_on_c, 0, 50, 54
1, 343495, Note_off_c, 0, 52, 41
1, 343612, Note_on_c, 0, 64, 80
1, 343622, Note_off_c, 0, 50, 56
1, 343630, Note_on_c, 0, 49, 62
1, 343641, Note_off_c, 0, 66, 63
1, 343781, Note_off_c, 0, 49, 54
1, 343781, Poly_aftertouch_c, 0, 49, 0
1, 343806, Note_on_c, 0, 50, 62
1, 343806, Note_on_c, 0, 66, 84
1, 343810, Note_off_c, 0, 64, 50
1, 343810, Poly_aftertouch_c, 0, 64, 0
1, 343941, Note_off_c, 0, 50, 60
1, 343978, Note_on_c, 0, 52, 60
1, 344110, Note_off_c, 0, 69, 54
1, 344139, Note_off_c, 0, 52, 61
1, 344152, Note_on_c, 0, 54, 56
1, 344153, Note_on_c, 0, 74, 73
1, 344247, Note_off_c, 0, 74, 60
1, 344291, Note_off_c, 0, 54, 58
1, 344317, Note_on_c, 0, 50, 57
1, 344504, Note_on_c, 0, 67, 68
1, 344511, Note_off_c, 0, 50, 56
1, 344514, Note_on_c, 0, 52, 58
1, 344666, Note_on_c, 0, 50, 65
1, 344669, Note_off_c, 0, 52, 53
1, 344830, Note_off_c, 0, 66, 63
1, 344834, Note_on_c, 0, 71, 87
1, 344852, Note_on_c, 0, 52, 59
1, 344903, Note_off_c, 0, 50, 37
1, 344978, Note_off_c, 0, 71, 58
1, 345000, Note_off_c, 0, 52, 58
1, 345001, Note_on_c, 0, 54, 60
1, 345006, Poly_aftertouch_c, 0, 69, 0
1, 345180, Note_on_c, 0, 64, 83
1, 345199, Note_off_c, 0, 54, 59
1, 345205, Note_on_c, 0, 55, 55
1, 345346, Note_off_c, 0, 55, 60
1, 345350, Note_on_c, 0, 54, 58
1, 345399, Note_off_c, 0, 67, 30
1, 345472, Note_off_c, 0, 54, 52
1, 345506, Note_on_c, 0, 52, 58
1, 345514, Note_on_c, 0, 72, 72
1, 345617, Note_off_c, 0, 72, 62
1, 345645, Note_off_c, 0, 52, 61
1, 345671, Note_on_c, 0, 55, 62
1, 345850, Note_on_c, 0, 70, 69
1, 345865, Note_on_c, 0, 54, 52
1, 345880, Note_off_c, 0, 55, 49
1, 346008, Note_off_c, 0, 54, 56
1, 346012, Note_on_c, 0, 56, 55
1, 346126, Note_off_c, 0, 64, 59
1, 346126, Poly_aftertouch_c, 0, 64, 0
1, 346134, Note_off_c, 0, 70, 54
1, 346149, Note_off_c, 0, 56, 48
1, 346149, Poly_aftertouch_c, 0, 56, 0
1, 346176, Note_on_c, 0, 62, 78
1, 346181, Note_on_c, 0, 58, 60
1, 346186, Note_on_c, 0, 66, 73
1, 346270, Note_off_c, 0, 62, 56
1, 346281, Note_off_c, 0, 58, 58
1, 346281, Poly_aftertouch_c, 0, 58, 0
1, 346339, Note_on_c, 0, 61, 68
1, 346344, Note_on_c, 0, 54, 56
1, 346435, Note_off_c, 0, 66, 47
1, 346435, Poly_aftertouch_c, 0, 66, 0
1, 346467, Note_off_c, 0, 54, 59
1, 346507, Note_on_c, 0, 62, 78
1, 346509, Note_on_c, 0, 59, 69
1, 346512, Note_off_c, 0, 61, 35
1, 346512, Poly_aftertouch_c, 0, 61, 0
1, 346616, Note_off_c, 0, 59, 57
1, 346616, Poly_aftertouch_c, 0, 59, 0
1, 346650, Note_off_c, 0, 62, 56
1, 346658, Note_on_c, 0, 47, 71
1, 346659, Note_on_c, 0, 71, 69
1, 346793, Note_off_c, 0, 71, 59
1, 346820, Note_off_c, 0, 47, 61
1, 346820, Poly_aftertouch_c, 0, 47, 0
1, 346849, Note_on_c, 0, 59, 86
1, 346860, Note_on_c, 0, 73, 71
1, 347000, Note_off_c, 0, 73, 64
1, 347000, Poly_aftertouch_c, 0, 73, 0
1, 347019, Note_on_c, 0, 74, 68
1, 347124, Note_off_c, 0, 74, 56
1, 347197, Note_on_c, 0, 65, 71
1, 347205, Note_on_c, 0, 61, 73
1, 347330, Note_off_c, 0, 65, 60
1, 347359, Note_on_c, 0, 57, 63
1, 347375, Note_off_c, 0, 59, 52
1, 347375, Poly_aftertouch_c, 0, 59, 0
1, 347532, Note_off_c, 0, 57, 56
1, 347532, Note_on_c, 0, 73, 78
1, 347537, Note_on_c, 0, 56, 60
1, 347653, Note_off_c, 0, 73, 60
1, 347653, Poly_aftertouch_c, 0, 73, 0
1, 347694, Note_off_c, 0, 56, 59
1, 347694, Poly_aftertouch_c, 0, 56, 0
1, 347696, Note_on_c, 0, 59, 55
1, 347856, Note_off_c, 0, 59, 55
1, 347856, Poly_aftertouch_c, 0, 59, 0
1, 347869, Note_on_c, 0, 57, 51
1, 347869, Note_on_c, 0, 66, 73
1, 348004, Note_off_c, 0, 57, 56
1, 348009, Note_on_c, 0, 56, 59
1, 348169, Note_off_c, 0, 56, 60
1, 348169, Poly_aftertouch_c, 0, 56, 0
1, 348188, Note_on_c, 0, 54, 51
1, 348269, Control_c, 0, 64, 12
1, 348290, Control_c, 0, 64, 29
1, 348307, Control_c, 0, 64, 46
1, 348326, Control_c, 0, 64, 59
1, 348337, Note_off_c, 0, 54, 58
1, 348344, Control_c, 0, 64, 63
1, 348364, Control_c, 0, 64, 64
1, 348367, Note_on_c, 0, 57, 55
1, 348393, Note_off_c, 0, 61, 52
1, 348393, Poly_aftertouch_c, 0, 61, 0
1, 348457, Control_c, 0, 64, 62
1, 348475, Control_c, 0, 64, 61
1, 348495, Control_c, 0, 64, 60
1, 348529, Note_off_c, 0, 57, 57
1, 348532, Control_c, 0, 64, 56
1, 348539, Note_on_c, 0, 56, 55
1, 348541, Note_on_c, 0, 59, 63
1, 348551, Control_c, 0, 64, 54
1, 348569, Control_c, 0, 64, 50
1, 348588, Control_c, 0, 64, 46
1, 348607, Control_c, 0, 64, 40
1, 348625, Control_c, 0, 64, 28
1, 348643, Control_c, 0, 64, 0
1, 348701, Note_off_c, 0, 56, 59
1, 348701, Poly_aftertouch_c, 0, 56, 0
1, 348712, Note_on_c, 0, 57, 52
1, 348718, Control_c, 0, 64, 22
1, 348737, Control_c, 0, 64, 38
1, 348756, Control_c, 0, 64, 55
1, 348775, Control_c, 0, 64, 64
1, 348793, Control_c, 0, 64, 65
1, 348806, Note_off_c, 0, 66, 57
1, 348849, Control_c, 0, 64, 63
1, 348869, Control_c, 0, 64, 62
1, 348874, Note_on_c, 0, 56, 50
1, 348877, Note_off_c, 0, 57, 53
1, 348888, Control_c, 0, 64, 61
1, 348893, Note_on_c, 0, 65, 57
1, 348906, Control_c, 0, 64, 60
1, 348961, Control_c, 0, 64, 57
1, 348999, Control_c, 0, 64, 54
1, 349018, Control_c, 0, 64, 52
1, 349028, Note_off_c, 0, 56, 59
1, 349028, Poly_aftertouch_c, 0, 56, 0
1, 349035, Control_c, 0, 64, 50
1, 349040, Note_on_c, 0, 54, 55
1, 349045, Note_on_c, 0, 66, 67
1, 349057, Note_off_c, 0, 59, 49
1, 349057, Poly_aftertouch_c, 0, 59, 0
1, 349074, Control_c, 0, 64, 46
1, 349093, Control_c, 0, 64, 43
1, 349105, Note_off_c, 0, 65, 57
1, 349111, Control_c, 0, 64, 41
1, 349206, Note_off_c, 0, 54, 57
1, 349210, Note_on_c, 0, 53, 58
1, 349212, Note_on_c, 0, 68, 69
1, 349257, Note_off_c, 0, 66, 63
1, 349355, Control_c, 0, 64, 37
1, 349368, Note_on_c, 0, 54, 60
1, 349378, Note_off_c, 0, 68, 64
1, 349378, Note_on_c, 0, 69, 73
1, 349378, Poly_aftertouch_c, 0, 68, 0
1, 349424, Note_off_c, 0, 53, 52
1, 349424, Poly_aftertouch_c, 0, 53, 0
1, 349547, Note_on_c, 0, 56, 63
1, 349549, Note_on_c, 0, 71, 71
1, 349554, Note_off_c, 0, 54, 54
1, 349595, Note_off_c, 0, 69, 60
1, 349617, Control_c, 0, 64, 33
1, 349669, Note_off_c, 0, 56, 64
1, 349669, Poly_aftertouch_c, 0, 56, 0
1, 349690, Control_c, 0, 64, 27
1, 349693, Note_on_c, 0, 68, 76
1, 349697, Note_on_c, 0, 53, 63
1, 349710, Control_c, 0, 64, 23
1, 349716, Note_off_c, 0, 71, 54
1, 349858, Note_on_c, 0, 54, 59
1, 349872, Note_on_c, 0, 71, 73
1, 349889, Note_off_c, 0, 53, 50
1, 349889, Poly_aftertouch_c, 0, 53, 0
1, 349890, Note_off_c, 0, 68, 60
1, 349890, Poly_aftertouch_c, 0, 68, 0
1, 349897, Control_c, 0, 64, 19
1, 349934, Control_c, 0, 64, 15
1, 349990, Control_c, 0, 64, 0
1, 350033, Note_on_c, 0, 69, 78
1, 350093, Note_off_c, 0, 71, 53
1, 350199, Note_on_c, 0, 56, 65
1, 350211, Note_on_c, 0, 68, 80
1, 350235, Note_off_c, 0, 69, 62
1, 350238, Note_off_c, 0, 54, 58
1, 350368, Note_on_c, 0, 66, 81
1, 350371, Note_off_c, 0, 56, 63
1, 350371, Poly_aftertouch_c, 0, 56, 0
1, 350377, Note_on_c, 0, 57, 66
1, 350391, Note_off_c, 0, 68, 50
1, 350391, Poly_aftertouch_c, 0, 68, 0
1, 350536, Note_off_c, 0, 57, 56
1, 350542, Note_off_c, 0, 66, 60
1, 350553, Note_on_c, 0, 74, 82
1, 350559, Note_on_c, 0, 59, 60
1, 350687, Note_off_c, 0, 59, 60
1, 350687, Poly_aftertouch_c, 0, 59, 0
1, 350717, Note_on_c, 0, 57, 56
1, 350734, Note_on_c, 0, 73, 63
1, 350884, Note_on_c, 0, 71, 61
1, 350896, Note_on_c, 0, 56, 61
1, 350920, Note_off_c, 0, 57, 50
1, 350943, Note_off_c, 0, 73, 58
1, 350943, Poly_aftertouch_c, 0, 73, 0
1, 351049, Note_on_c, 0, 69, 66
1, 351053, Note_on_c, 0, 54, 60
1, 351056, Note_off_c, 0, 71, 53
1, 351147, Note_off_c, 0, 56, 38
1, 351147, Poly_aftertouch_c, 0, 56, 0
1, 351207, Note_off_c, 0, 54, 61
1, 351215, Note_on_c, 0, 68, 66
1, 351223, Note_on_c, 0, 52, 55
1, 351301, Note_off_c, 0, 69, 49
1, 351382, Note_on_c, 0, 54, 66
1, 351393, Note_off_c, 0, 52, 62
1, 351437, Note_off_c, 0, 74, 59
1, 351560, Note_on_c, 0, 52, 62
1, 351562, Note_off_c, 0, 54, 58
1, 351562, Note_on_c, 0, 73, 85
1, 351695, Note_off_c, 0, 52, 60
1, 351712, Note_on_c, 0, 50, 62
1, 351712, Note_on_c, 0, 71, 80
1, 351761, Note_off_c, 0, 73, 61
1, 351761, Poly_aftertouch_c, 0, 73, 0
1, 351873, Note_off_c, 0, 50, 58
1, 351890, Note_on_c, 0, 73, 84
1, 351893, Note_on_c, 0, 52, 55
1, 351923, Note_off_c, 0, 71, 58
1, 352020, Note_off_c, 0, 68, 58
1, 352020, Poly_aftertouch_c, 0, 68, 0
1, 352036, Note_on_c, 0, 50, 60
1, 352044, Note_on_c, 0, 71, 71
1, 352052, Note_off_c, 0, 52, 57
1, 352213, Note_on_c, 0, 49, 63
1, 352213, Note_on_c, 0, 69, 71
1, 352214, Note_off_c, 0, 50, 60
1, 352368, Note_on_c, 0, 68, 70
1, 352383, Note_on_c, 0, 52, 62
1, 352387, Note_off_c, 0, 49, 59
1, 352387, Poly_aftertouch_c, 0, 49, 0
1, 352432, Note_off_c, 0, 69, 56
1, 352467, Note_off_c, 0, 71, 31
1, 352551, Note_on_c, 0, 66, 68
1, 352569, Note_on_c, 0, 50, 62
1, 352576, Note_off_c, 0, 52, 57
1, 352623, Note_off_c, 0, 68, 60
1, 352623, Poly_aftertouch_c, 0, 68, 0
1, 352638, Note_off_c, 0, 73, 63
1, 352638, Poly_aftertouch_c, 0, 73, 0
1, 352644, Control_c, 0, 64, 8
1, 352682, Control_c, 0, 64, 12
1, 352694, Note_off_c, 0, 66, 47
1, 352724, Note_on_c, 0, 52, 69
1, 352750, Note_off_c, 0, 50, 60
1, 352881, Note_on_c, 0, 78, 82
1, 352893, Note_on_c, 0, 69, 76
1, 352895, Note_on_c, 0, 50, 66
1, 352898, Note_off_c, 0, 52, 60
1, 352969, Note_off_c, 0, 78, 65
1, 352969, Poly_aftertouch_c, 0, 78, 0
1, 352987, Note_off_c, 0, 69, 62
1, 353046, Note_on_c, 0, 49, 67
1, 353047, Note_off_c, 0, 50, 58
1, 353132, Control_c, 0, 64, 0
1, 353210, Note_off_c, 0, 49, 63
1, 353210, Poly_aftertouch_c, 0, 49, 0
1, 353223, Note_on_c, 0, 68, 74
1, 353223, Note_on_c, 0, 71, 78
1, 353231, Note_on_c, 0, 50, 62
1, 353394, Note_on_c, 0, 49, 63
1, 353420, Note_off_c, 0, 50, 58
1, 353584, Note_on_c, 0, 47, 60
1, 353595, Note_off_c, 0, 49, 59
1, 353595, Poly_aftertouch_c, 0, 49, 0
1, 353686, Note_off_c, 0, 68, 61
1, 353686, Poly_aftertouch_c, 0, 68, 0
1, 353708, Note_on_c, 0, 66, 66
1, 353725, Note_off_c, 0, 47, 57
1, 353725, Poly_aftertouch_c, 0, 47, 0
1, 353740, Note_on_c, 0, 50, 64
1, 353890, Note_off_c, 0, 50, 58
1, 353895, Note_on_c, 0, 49, 69
1, 353900, Note_on_c, 0, 65, 76
1, 353927, Note_off_c, 0, 66, 58
1, 353982, Note_off_c, 0, 71, 57
1, 353999, Note_off_c, 0, 65, 63
1, 354053, Note_on_c, 0, 50, 61
1, 354063, Note_off_c, 0, 49, 59
1, 354063, Poly_aftertouch_c, 0, 49, 0
1, 354230, Note_off_c, 0, 50, 58
1, 354241, Note_on_c, 0, 61, 78
1, 354242, Note_on_c, 0, 49, 59
1, 354245, Note_on_c, 0, 69, 78
1, 354373, Note_off_c, 0, 49, 59
1, 354373, Poly_aftertouch_c, 0, 49, 0
1, 354391, Note_off_c, 0, 61, 39
1, 354391, Poly_aftertouch_c, 0, 61, 0
1, 354392, Note_on_c, 0, 68, 78
1, 354406, Note_off_c, 0, 69, 56
1, 354406, Note_on_c, 0, 47, 63
1, 354558, Note_off_c, 0, 47, 58
1, 354558, Poly_aftertouch_c, 0, 47, 0
1, 354565, Note_off_c, 0, 68, 58
1, 354565, Poly_aftertouch_c, 0, 68, 0
1, 354567, Note_on_c, 0, 49, 62
1, 354567, Note_on_c, 0, 69, 70
1, 354573, Note_on_c, 0, 66, 73
1, 354701, Note_off_c, 0, 69, 59
1, 354718, Note_off_c, 0, 49, 58
1, 354718, Poly_aftertouch_c, 0, 49, 0
1, 354719, Note_off_c, 0, 66, 53
1, 354735, Note_on_c, 0, 47, 59
1, 354892, Note_off_c, 0, 47, 57
1, 354892, Poly_aftertouch_c, 0, 47, 0
1, 354911, Note_on_c, 0, 66, 78
1, 354913, Note_on_c, 0, 45, 55
1, 355059, Note_off_c, 0, 45, 56
1, 355064, Note_on_c, 0, 49, 56
1, 355256, Note_off_c, 0, 49, 55
1, 355256, Poly_aftertouch_c, 0, 49, 0
1, 355260, Note_on_c, 0, 68, 67
1, 355266, Note_on_c, 0, 47, 36
1, 355432, Note_on_c, 0, 49, 55
1, 355457, Note_off_c, 0, 47, 44
1, 355457, Poly_aftertouch_c, 0, 47, 0
1, 355607, Note_on_c, 0, 47, 49
1, 355637, Note_off_c, 0, 49, 55
1, 355637, Poly_aftertouch_c, 0, 49, 0
1, 355731, Note_off_c, 0, 47, 57
1, 355731, Poly_aftertouch_c, 0, 47, 0
1, 355757, Note_on_c, 0, 45, 51
1, 355917, Note_off_c, 0, 45, 59
1, 355947, Note_on_c, 0, 65, 55
1, 355959, Note_on_c, 0, 47, 47
1, 355988, Note_off_c, 0, 66, 41
1, 356103, Note_on_c, 0, 45, 52
1, 356107, Note_off_c, 0, 47, 57
1, 356107, Poly_aftertouch_c, 0, 47, 0
1, 356258, Note_off_c, 0, 45, 56
1, 356292, Note_on_c, 0, 44, 45
1, 356435, Note_on_c, 0, 47, 42
1, 356446, Note_off_c, 0, 44, 37
1, 356599, Note_off_c, 0, 65, 59
1, 356627, Note_on_c, 0, 45, 45
1, 356648, Note_on_c, 0, 66, 40
1, 356655, Note_off_c, 0, 47, 35
1, 356655, Poly_aftertouch_c, 0, 47, 0
1, 356694, Note_off_c, 0, 68, 34
1, 356694, Poly_aftertouch_c, 0, 68, 0
1, 356801, Note_on_c, 0, 44, 41
1, 356819, Note_off_c, 0, 45, 36
1, 356985, Note_on_c, 0, 73, 53
1, 356992, Note_off_c, 0, 44, 35
1, 356992, Note_on_c, 0, 42, 34
1, 357138, Note_on_c, 0, 44, 47
1, 357279, Note_off_c, 0, 42, 36
1, 357309, Note_off_c, 0, 44, 55
1, 357316, Note_on_c, 0, 78, 62
1, 357332, Note_on_c, 0, 45, 48
1, 357364, Note_off_c, 0, 66, 38
1, 357459, Note_off_c, 0, 45, 62
1, 357493, Note_on_c, 0, 47, 50
1, 357628, Note_off_c, 0, 73, 26
1, 357628, Poly_aftertouch_c, 0, 73, 0
1, 357652, Note_off_c, 0, 47, 54
1, 357652, Poly_aftertouch_c, 0, 47, 0
1, 357658, Note_on_c, 0, 81, 64
1, 357666, Note_on_c, 0, 49, 48
1, 357797, Note_off_c, 0, 78, 56
1, 357797, Poly_aftertouch_c, 0, 78, 0
1, 357831, Note_on_c, 0, 51, 50
1, 357833, Note_off_c, 0, 49, 55
1, 357833, Poly_aftertouch_c, 0, 49, 0
1, 358006, Note_on_c, 0, 80, 64
1, 358008, Note_on_c, 0, 52, 41
1, 358026, Note_off_c, 0, 51, 51
1, 358075, Note_off_c, 0, 81, 58
1, 358165, Note_off_c, 0, 52, 57
1, 358181, Note_on_c, 0, 51, 57
1, 358330, Note_off_c, 0, 51, 55
1, 358345, Note_on_c, 0, 68, 50
1, 358356, Note_on_c, 0, 49, 46
1, 358516, Note_on_c, 0, 51, 45
1, 358564, Note_off_c, 0, 49, 38
1, 358564, Poly_aftertouch_c, 0, 49, 0
1, 358658, Note_off_c, 0, 51, 57
1, 358676, Note_on_c, 0, 73, 56
1, 358679, Note_on_c, 0, 52, 42
1, 358838, Note_off_c, 0, 52, 56
1, 358846, Note_on_c, 0, 54, 53
1, 358866, Note_off_c, 0, 68, 38
1, 358866, Poly_aftertouch_c, 0, 68, 0
1, 358994, Note_on_c, 0, 56, 54
1, 359013, Note_on_c, 0, 76, 60
1, 359019, Note_off_c, 0, 54, 56
1, 359151, Note_on_c, 0, 58, 58
1, 359168, Note_off_c, 0, 73, 53
1, 359168, Poly_aftertouch_c, 0, 73, 0
1, 359172, Note_off_c, 0, 56, 57
1, 359172, Poly_aftertouch_c, 0, 56, 0
1, 359343, Note_on_c, 0, 60, 50
1, 359343, Note_on_c, 0, 75, 65
1, 359358, Note_off_c, 0, 58, 57
1, 359358, Poly_aftertouch_c, 0, 58, 0
1, 359482, Note_off_c, 0, 60, 57
1, 359495, Note_on_c, 0, 58, 67
1, 359540, Note_off_c, 0, 76, 53
1, 359602, Note_off_c, 0, 80, 62
1, 359663, Note_off_c, 0, 58, 59
1, 359663, Poly_aftertouch_c, 0, 58, 0
1, 359679, Note_on_c, 0, 81, 69
1, 359683, Note_on_c, 0, 60, 44
1, 359884, Note_on_c, 0, 62, 41
1, 359886, Note_off_c, 0, 60, 54
1, 360008, Note_on_c, 0, 80, 72
1, 360009, Note_off_c, 0, 62, 61
1, 360033, Note_on_c, 0, 60, 56
1, 360047, Note_off_c, 0, 81, 58
1, 360186, Note_on_c, 0, 61, 61
1, 360224, Note_off_c, 0, 60, 49
1, 360344, Note_on_c, 0, 78, 67
1, 360354, Note_off_c, 0, 80, 65
1, 360360, Note_on_c, 0, 63, 61
1, 360361, Note_off_c, 0, 61, 55
1, 360361, Poly_aftertouch_c, 0, 61, 0
1, 360478, Note_off_c, 0, 63, 61
1, 360478, Poly_aftertouch_c, 0, 63, 0
1, 360495, Note_on_c, 0, 61, 75
1, 360588, Note_off_c, 0, 61, 64
1, 360588, Poly_aftertouch_c, 0, 61, 0
1, 360666, Note_on_c, 0, 61, 65
1, 360667, Note_off_c, 0, 78, 50
1, 360667, Poly_aftertouch_c, 0, 78, 0
1, 360683, Note_on_c, 0, 76, 66
1, 360844, Note_on_c, 0, 63, 64
1, 360846, Note_off_c, 0, 61, 58
1, 360846, Poly_aftertouch_c, 0, 61, 0
1, 360985, Note_off_c, 0, 75, 57
1, 360997, Note_on_c, 0, 68, 61
1, 361020, Note_on_c, 0, 64, 55
1, 361048, Note_off_c, 0, 63, 46
1, 361048, Poly_aftertouch_c, 0, 63, 0
1, 361185, Note_on_c, 0, 63, 61
1, 361194, Note_off_c, 0, 64, 54
1, 361194, Poly_aftertouch_c, 0, 64, 0
1, 361302, Control_c, 0, 64, 8
1, 361338, Note_on_c, 0, 73, 60
1, 361346, Note_off_c, 0, 63, 57
1, 361346, Poly_aftertouch_c, 0, 63, 0
1, 361357, Note_on_c, 0, 61, 54
1, 361450, Note_off_c, 0, 68, 38
1, 361450, Poly_aftertouch_c, 0, 68, 0
1, 361492, Note_off_c, 0, 61, 63
1, 361492, Poly_aftertouch_c, 0, 61, 0
1, 361521, Note_on_c, 0, 59, 53
1, 361672, Note_on_c, 0, 71, 57
1, 361675, Note_off_c, 0, 59, 58
1, 361675, Poly_aftertouch_c, 0, 59, 0
1, 361691, Note_on_c, 0, 57, 50
1, 361827, Note_off_c, 0, 57, 52
1, 361832, Note_on_c, 0, 56, 51
1, 361932, Note_on_c, 0, 54, 45
1, 361996, Note_off_c, 0, 73, 19
1, 361996, Poly_aftertouch_c, 0, 73, 0
1, 362002, Note_off_c, 0, 56, 35
1, 362002, Poly_aftertouch_c, 0, 56, 0
1, 362010, Note_on_c, 0, 69, 56
1, 362081, Note_off_c, 0, 76, 33
1, 362123, Note_off_c, 0, 71, 35
1, 362145, Note_on_c, 0, 52, 52
1, 362148, Note_off_c, 0, 54, 59
1, 362310, Note_off_c, 0, 52, 55
1, 362318, Note_on_c, 0, 54, 52
1, 362331, Note_on_c, 0, 76, 61
1, 362467, Note_off_c, 0, 54, 60
1, 362480, Note_on_c, 0, 56, 57
1, 362633, Note_off_c, 0, 56, 60
1, 362633, Poly_aftertouch_c, 0, 56, 0
1, 362640, Note_on_c, 0, 75, 63
1, 362659, Note_on_c, 0, 54, 44
1, 362683, Note_off_c, 0, 76, 59
1, 362815, Note_on_c, 0, 56, 50
1, 362821, Note_off_c, 0, 54, 54
1, 362970, Note_off_c, 0, 56, 58
1, 362970, Poly_aftertouch_c, 0, 56, 0
1, 362987, Note_on_c, 0, 78, 57
1, 362988, Note_off_c, 0, 75, 60
1, 363006, Note_on_c, 0, 57, 46
1, 363154, Note_on_c, 0, 54, 45
1, 363170, Note_off_c, 0, 57, 31
1, 363283, Note_off_c, 0, 54, 53
1, 363312, Note_on_c, 0, 56, 47
1, 363327, Note_on_c, 0, 72, 53
1, 363401, Note_off_c, 0, 78, 63
1, 363401, Poly_aftertouch_c, 0, 78, 0
1, 363484, Note_off_c, 0, 56, 56
1, 363484, Poly_aftertouch_c, 0, 56, 0
1, 363486, Note_on_c, 0, 54, 40
1, 363667, Note_off_c, 0, 54, 48
1, 363667, Note_on_c, 0, 63, 48
1, 363673, Note_on_c, 0, 56, 44
1, 363693, Note_off_c, 0, 69, 49
1, 363790, Control_c, 0, 64, 12
1, 363807, Note_off_c, 0, 56, 59
1, 363807, Poly_aftertouch_c, 0, 56, 0
1, 363838, Note_on_c, 0, 57, 49
1, 363998, Note_off_c, 0, 57, 55
1, 364003, Note_on_c, 0, 68, 57
1, 364017, Note_on_c, 0, 56, 48
1, 364066, Note_off_c, 0, 63, 46
1, 364066, Poly_aftertouch_c, 0, 63, 0
1, 364166, Note_off_c, 0, 56, 57
1, 364166, Poly_aftertouch_c, 0, 56, 0
1, 364175, Note_on_c, 0, 54, 50
1, 364324, Note_off_c, 0, 54, 61
1, 364337, Note_on_c, 0, 75, 63
1, 364343, Note_off_c, 0, 72, 53
1, 364349, Note_on_c, 0, 66, 51
1, 364354, Note_on_c, 0, 52, 54
1, 364383, Note_off_c, 0, 68, 39
1, 364383, Poly_aftertouch_c, 0, 68, 0
1, 364503, Note_off_c, 0, 52, 55
1, 364511, Note_on_c, 0, 51, 67
1, 364641, Note_off_c, 0, 66, 54
1, 364666, Note_on_c, 0, 52, 83
1, 364689, Note_on_c, 0, 68, 70
1, 364737, Note_off_c, 0, 75, 48
1, 364741, Note_off_c, 0, 51, 53
1, 364742, Control_c, 0, 64, 0
1, 364783, Note_off_c, 0, 52, 63
1, 364816, Note_on_c, 0, 66, 63
1, 365020, Note_on_c, 0, 64, 67
1, 365020, Note_on_c, 0, 49, 84
1, 365027, Note_off_c, 0, 66, 61
1, 365117, Control_c, 0, 64, 9
1, 365121, Note_off_c, 0, 49, 63
1, 365121, Poly_aftertouch_c, 0, 49, 0
1, 365142, Note_off_c, 0, 64, 57
1, 365142, Poly_aftertouch_c, 0, 64, 0
1, 365170, Note_on_c, 0, 63, 66
1, 365210, Control_c, 0, 64, 14
1, 365334, Note_off_c, 0, 63, 53
1, 365334, Poly_aftertouch_c, 0, 63, 0
1, 365378, Note_on_c, 0, 57, 85
1, 365380, Note_on_c, 0, 61, 69
1, 365494, Note_off_c, 0, 61, 54
1, 365494, Poly_aftertouch_c, 0, 61, 0
1, 365505, Note_on_c, 0, 63, 65
1, 365532, Note_off_c, 0, 68, 36
1, 365532, Poly_aftertouch_c, 0, 68, 0
1, 365645, Note_off_c, 0, 63, 60
1, 365645, Poly_aftertouch_c, 0, 63, 0
1, 365692, Note_on_c, 0, 73, 72
1, 365708, Note_on_c, 0, 64, 60
1, 365798, Note_off_c, 0, 64, 57
1, 365798, Poly_aftertouch_c, 0, 64, 0
1, 365827, Note_off_c, 0, 73, 55
1, 365827, Poly_aftertouch_c, 0, 73, 0
1, 365850, Note_on_c, 0, 61, 66
1, 366000, Note_off_c, 0, 61, 61
1, 366000, Poly_aftertouch_c, 0, 61, 0
1, 366026, Note_on_c, 0, 63, 71
1, 366040, Note_on_c, 0, 71, 69
1, 366163, Note_off_c, 0, 71, 48
1, 366201, Note_on_c, 0, 73, 63
1, 366310, Note_off_c, 0, 73, 60
1, 366310, Poly_aftertouch_c, 0, 73, 0
1, 366313, Note_off_c, 0, 57, 53
1, 366316, Poly_aftertouch_c, 0, 63, 24
1, 366377, Note_on_c, 0, 56, 81
1, 366381, Note_on_c, 0, 71, 71
1, 366413, Note_off_c, 0, 63, 64
1, 366520, Note_off_c, 0, 71, 59
1, 366527, Note_on_c, 0, 69, 60
1, 366527, Note_on_c, 0, 54, 77
1, 366535, Note_off_c, 0, 56, 64
1, 366535, Poly_aftertouch_c, 0, 56, 0
1, 366670, Note_off_c, 0, 69, 59
1, 366701, Note_on_c, 0, 56, 81
1, 366714, Note_off_c, 0, 54, 62
1, 366720, Note_on_c, 0, 71, 64
1, 366759, Poly_aftertouch_c, 0, 63, 0
1, 366852, Note_off_c, 0, 71, 56
1, 366852, Note_on_c, 0, 69, 62
1, 367032, Note_off_c, 0, 69, 53
1, 367052, Note_on_c, 0, 68, 62
1, 367058, Note_on_c, 0, 64, 66
1, 367109, Note_off_c, 0, 64, 59
1, 367109, Poly_aftertouch_c, 0, 64, 0
1, 367202, Note_off_c, 0, 68, 60
1, 367202, Poly_aftertouch_c, 0, 68, 0
1, 367223, Note_on_c, 0, 71, 53
1, 367388, Note_off_c, 0, 71, 56
1, 367393, Note_on_c, 0, 61, 71
1, 367397, Note_on_c, 0, 69, 60
1, 367491, Note_off_c, 0, 61, 64
1, 367491, Poly_aftertouch_c, 0, 61, 0
1, 367532, Note_off_c, 0, 69, 57
1, 367553, Note_on_c, 0, 71, 55
1, 367737, Note_on_c, 0, 61, 84
1, 367750, Note_on_c, 0, 64, 67
1, 367755, Note_off_c, 0, 71, 38
1, 367759, Note_on_c, 0, 69, 66
1, 367800, Note_off_c, 0, 64, 58
1, 367800, Poly_aftertouch_c, 0, 64, 0
1, 367826, Note_off_c, 0, 56, 60
1, 367826, Poly_aftertouch_c, 0, 56, 0
1, 367874, Note_off_c, 0, 61, 63
1, 367874, Poly_aftertouch_c, 0, 61, 0
1, 367890, Note_off_c, 0, 69, 60
1, 367906, Note_on_c, 0, 68, 61
1, 368048, Note_off_c, 0, 68, 57
1, 368048, Poly_aftertouch_c, 0, 68, 0
1, 368095, Note_on_c, 0, 54, 80
1, 368099, Note_on_c, 0, 63, 80
1, 368123, Note_on_c, 0, 69, 54
1, 368251, Note_off_c, 0, 69, 60
1, 368258, Note_on_c, 0, 68, 65
1, 368436, Note_off_c, 0, 68, 43
1, 368436, Poly_aftertouch_c, 0, 68, 0
1, 368440, Note_on_c, 0, 66, 61
1, 368523, Note_off_c, 0, 63, 56
1, 368523, Poly_aftertouch_c, 0, 63, 0
1, 368562, Note_off_c, 0, 66, 57
1, 368607, Note_on_c, 0, 61, 69
1, 368607, Note_on_c, 0, 69, 56
1, 368729, Note_off_c, 0, 69, 51
1, 368751, Note_off_c, 0, 61, 57
1, 368751, Poly_aftertouch_c, 0, 61, 0
1, 368764, Note_on_c, 0, 60, 60
1, 368774, Note_on_c, 0, 68, 66
1, 368919, Note_off_c, 0, 68, 39
1, 368919, Poly_aftertouch_c, 0, 68, 0
1, 368927, Note_on_c, 0, 69, 57
1, 368930, Note_off_c, 0, 60, 56
1, 369032, Note_off_c, 0, 54, 41
1, 369075, Note_off_c, 0, 69, 53
1, 369100, Note_on_c, 0, 52, 69
1, 369110, Note_on_c, 0, 68, 72
1, 369116, Note_on_c, 0, 56, 66
1, 369175, Control_c, 0, 64, 9
1, 369235, Note_off_c, 0, 52, 57
1, 369236, Note_off_c, 0, 68, 44
1, 369236, Poly_aftertouch_c, 0, 68, 0
1, 369247, Note_on_c, 0, 66, 63
1, 369251, Note_on_c, 0, 51, 65
1, 369287, Note_off_c, 0, 56, 64
1, 369383, Note_off_c, 0, 51, 55
1, 369383, Poly_aftertouch_c, 0, 56, 0
1, 369384, Note_off_c, 0, 66, 54
1, 369419, Note_on_c, 0, 52, 76
1, 369431, Note_on_c, 0, 61, 74
1, 369437, Note_on_c, 0, 68, 62
1, 369514, Poly_aftertouch_c, 0, 51, 0
1, 369525, Note_off_c, 0, 52, 62
1, 369584, Note_on_c, 0, 66, 59
1, 369595, Note_off_c, 0, 68, 56
1, 369595, Poly_aftertouch_c, 0, 68, 0
1, 369753, Note_off_c, 0, 66, 56
1, 369768, Note_on_c, 0, 49, 74
1, 369772, Control_c, 0, 64, 0
1, 369774, Note_on_c, 0, 64, 60
1, 369862, Note_off_c, 0, 49, 64
1, 369862, Poly_aftertouch_c, 0, 49, 0
1, 369894, Note_off_c, 0, 64, 56
1, 369894, Poly_aftertouch_c, 0, 64, 0
1, 369933, Note_on_c, 0, 68, 56
1, 370077, Note_off_c, 0, 68, 55
1, 370077, Poly_aftertouch_c, 0, 68, 0
1, 370109, Note_on_c, 0, 51, 68
1, 370125, Note_on_c, 0, 66, 53
1, 370251, Note_off_c, 0, 66, 53
1, 370276, Note_on_c, 0, 68, 45
1, 370450, Note_on_c, 0, 66, 55
1, 370478, Note_off_c, 0, 68, 43
1, 370478, Poly_aftertouch_c, 0, 68, 0
1, 370590, Note_off_c, 0, 66, 54
1, 370605, Note_on_c, 0, 64, 47
1, 370685, Note_off_c, 0, 61, 45
1, 370685, Poly_aftertouch_c, 0, 61, 0
1, 370765, Note_off_c, 0, 64, 54
1, 370765, Poly_aftertouch_c, 0, 64, 0
1, 370775, Note_on_c, 0, 66, 48
1, 370785, Note_on_c, 0, 60, 43
1, 370919, Note_off_c, 0, 66, 55
1, 370932, Note_on_c, 0, 64, 50
1, 371078, Note_off_c, 0, 64, 56
1, 371078, Poly_aftertouch_c, 0, 64, 0
1, 371104, Note_on_c, 0, 63, 47
1, 371188, Poly_aftertouch_c, 0, 51, 24
1, 371201, Note_off_c, 0, 51, 57
1, 371201, Poly_aftertouch_c, 0, 51, 0
1, 371229, Note_off_c, 0, 63, 59
1, 371229, Poly_aftertouch_c, 0, 63, 0
1, 371268, Note_on_c, 0, 66, 42
1, 371425, Note_off_c, 0, 66, 56
1, 371452, Note_on_c, 0, 64, 37
1, 371453, Note_off_c, 0, 60, 25
1, 371455, Note_on_c, 0, 61, 41
1, 371463, Note_on_c, 0, 49, 29
1, 371581, Note_off_c, 0, 49, 49
1, 371581, Poly_aftertouch_c, 0, 49, 0
1, 371603, Note_on_c, 0, 48, 44
1, 371776, Note_on_c, 0, 56, 50
1, 371806, Note_on_c, 0, 49, 38
1, 371812, Note_off_c, 0, 61, 32
1, 371812, Poly_aftertouch_c, 0, 61, 0
1, 371824, Note_off_c, 0, 48, 43
1, 371926, Note_off_c, 0, 49, 54
1, 371926, Poly_aftertouch_c, 0, 49, 0
1, 371947, Note_on_c, 0, 51, 47
1, 372121, Note_off_c, 0, 51, 57
1, 372121, Note_on_c, 0, 61, 54
1, 372121, Poly_aftertouch_c, 0, 51, 0
1, 372161, Note_on_c, 0, 52, 37
1, 372219, Note_off_c, 0, 64, 36
1, 372219, Poly_aftertouch_c, 0, 64, 0
1, 372276, Note_off_c, 0, 56, 47
1, 372276, Poly_aftertouch_c, 0, 56, 0
1, 372279, Note_off_c, 0, 52, 53
1, 372303, Note_on_c, 0, 54, 41
1, 372465, Note_on_c, 0, 64, 60
1, 372484, Note_off_c, 0, 54, 52
1, 372489, Note_on_c, 0, 55, 52
1, 372656, Note_off_c, 0, 55, 59
1, 372664, Note_off_c, 0, 61, 36
1, 372664, Note_on_c, 0, 52, 54
1, 372664, Poly_aftertouch_c, 0, 61, 0
1, 372829, Note_on_c, 0, 58, 62
1, 372841, Note_off_c, 0, 52, 57
1, 372863, Note_on_c, 0, 54, 48
1, 372951, Note_off_c, 0, 64, 36
1, 372951, Poly_aftertouch_c, 0, 64, 0
1, 373027, Note_on_c, 0, 55, 50
1, 373030, Note_off_c, 0, 54, 55
1, 373175, Note_off_c, 0, 55, 59
1, 373199, Note_on_c, 0, 67, 57
1, 373202, Note_on_c, 0, 54, 51
1, 373355, Note_off_c, 0, 54, 61
1, 373377, Note_on_c, 0, 52, 50
1, 373543, Note_on_c, 0, 66, 63
1, 373544, Note_off_c, 0, 52, 57
1, 373548, Note_on_c, 0, 50, 48
1, 373571, Note_off_c, 0, 58, 47
1, 373571, Poly_aftertouch_c, 0, 58, 0
1, 373586, Note_on_c, 0, 59, 49
1, 373691, Note_off_c, 0, 50, 60
1, 373705, Note_on_c, 0, 49, 55
1, 373755, Control_c, 0, 64, 8
1, 373759, Note_off_c, 0, 67, 26
1, 373863, Note_off_c, 0, 49, 63
1, 373863, Poly_aftertouch_c, 0, 49, 0
1, 373883, Note_on_c, 0, 64, 59
1, 373888, Note_on_c, 0, 61, 55
1, 373897, Note_on_c, 0, 47, 51
1, 373933, Note_off_c, 0, 66, 65
1, 374023, Note_off_c, 0, 47, 56
1, 374023, Poly_aftertouch_c, 0, 47, 0
1, 374035, Control_c, 0, 64, 0
1, 374044, Note_on_c, 0, 46, 45
1, 374052, Note_off_c, 0, 59, 36
1, 374052, Poly_aftertouch_c, 0, 59, 0
1, 374195, Note_off_c, 0, 46, 60
1, 374215, Note_on_c, 0, 47, 42
1, 374239, Note_on_c, 0, 62, 51
1, 374289, Note_off_c, 0, 64, 38
1, 374289, Poly_aftertouch_c, 0, 64, 0
1, 374396, Note_on_c, 0, 42, 44
1, 374432, Note_off_c, 0, 47, 39
1, 374432, Poly_aftertouch_c, 0, 47, 0
1, 374567, Note_on_c, 0, 47, 47
1, 374591, Note_on_c, 0, 54, 42
1, 374618, Note_off_c, 0, 42, 32
1, 374660, Note_off_c, 0, 61, 45
1, 374660, Poly_aftertouch_c, 0, 61, 0
1, 374691, Control_c, 0, 64, 8
1, 374730, Note_off_c, 0, 47, 53
1, 374730, Poly_aftertouch_c, 0, 47, 0
1, 374747, Note_on_c, 0, 49, 49
1, 374784, Control_c, 0, 64, 12
1, 374886, Note_off_c, 0, 49, 61
1, 374886, Poly_aftertouch_c, 0, 49, 0
1, 374900, Note_on_c, 0, 59, 61
1, 374928, Note_on_c, 0, 50, 44
1, 374998, Note_off_c, 0, 54, 41
1, 375075, Note_off_c, 0, 62, 38
1, 375086, Note_on_c, 0, 52, 56
1, 375093, Note_off_c, 0, 50, 52
1, 375230, Note_on_c, 0, 62, 65
1, 375253, Note_off_c, 0, 52, 58
1, 375255, Note_on_c, 0, 54, 60
1, 375327, Control_c, 0, 64, 16
1, 375373, Note_off_c, 0, 59, 53
1, 375373, Poly_aftertouch_c, 0, 59, 0
1, 375387, Note_off_c, 0, 54, 60
1, 375406, Note_on_c, 0, 50, 61
1, 375573, Note_on_c, 0, 56, 62
1, 375604, Note_on_c, 0, 52, 54
1, 375605, Note_off_c, 0, 50, 56
1, 375693, Note_off_c, 0, 62, 37
1, 375744, Note_off_c, 0, 52, 58
1, 375754, Note_on_c, 0, 54, 55
1, 375914, Note_off_c, 0, 54, 61
1, 375931, Note_on_c, 0, 52, 46
1, 375933, Note_on_c, 0, 66, 57
1, 376108, Note_on_c, 0, 50, 49
1, 376113, Note_off_c, 0, 52, 57
1, 376248, Note_off_c, 0, 50, 59
1, 376257, Note_off_c, 0, 56, 45
1, 376257, Poly_aftertouch_c, 0, 56, 0
1, 376275, Note_on_c, 0, 64, 50
1, 376277, Note_on_c, 0, 49, 47
1, 376294, Note_on_c, 0, 57, 41
1, 376356, Note_off_c, 0, 66, 58
1, 376417, Note_off_c, 0, 49, 63
1, 376417, Poly_aftertouch_c, 0, 49, 0
1, 376453, Note_on_c, 0, 47, 44
1, 376595, Note_off_c, 0, 64, 56
1, 376595, Poly_aftertouch_c, 0, 64, 0
1, 376622, Note_on_c, 0, 62, 49
1, 376625, Note_on_c, 0, 59, 44
1, 376635, Note_on_c, 0, 45, 46
1, 376650, Note_off_c, 0, 47, 35
1, 376650, Poly_aftertouch_c, 0, 47, 0
1, 376737, Note_off_c, 0, 57, 28
1, 376786, Note_off_c, 0, 45, 58
1, 376801, Note_on_c, 0, 44, 46
1, 376950, Note_off_c, 0, 44, 59
1, 376958, Note_off_c, 0, 62, 52
1, 376970, Note_on_c, 0, 45, 45
1, 376976, Note_on_c, 0, 61, 49
1, 377112, Note_off_c, 0, 45, 59
1, 377145, Note_on_c, 0, 40, 41
1, 377285, Note_off_c, 0, 59, 60
1, 377285, Poly_aftertouch_c, 0, 59, 0
1, 377311, Note_on_c, 0, 45, 39
1, 377318, Note_on_c, 0, 57, 48
1, 377353, Note_off_c, 0, 40, 34
1, 377430, Note_off_c, 0, 45, 59
1, 377467, Note_off_c, 0, 57, 59
1, 377481, Note_on_c, 0, 47, 41
1, 377484, Note_on_c, 0, 56, 52
1, 377651, Note_on_c, 0, 57, 56
1, 377663, Note_off_c, 0, 56, 55
1, 377663, Poly_aftertouch_c, 0, 56, 0
1, 377672, Note_off_c, 0, 61, 44
1, 377672, Poly_aftertouch_c, 0, 61, 0
1, 377676, Note_on_c, 0, 49, 41
1, 377685, Note_off_c, 0, 47, 35
1, 377685, Poly_aftertouch_c, 0, 47, 0
1, 377806, Note_off_c, 0, 49, 56
1, 377806, Poly_aftertouch_c, 0, 49, 0
1, 377832, Note_on_c, 0, 50, 47
1, 377979, Note_off_c, 0, 50, 55
1, 378003, Note_on_c, 0, 61, 62
1, 378013, Note_on_c, 0, 52, 43
1, 378095, Note_off_c, 0, 61, 63
1, 378095, Poly_aftertouch_c, 0, 61, 0
1, 378164, Note_off_c, 0, 52, 54
1, 378182, Note_on_c, 0, 49, 48
1, 378323, Note_off_c, 0, 49, 56
1, 378323, Poly_aftertouch_c, 0, 49, 0
1, 378360, Note_on_c, 0, 66, 64
1, 378362, Note_on_c, 0, 50, 48
1, 378468, Control_c, 0, 64, 20
1, 378533, Note_on_c, 0, 52, 49
1, 378539, Note_off_c, 0, 50, 52
1, 378699, Note_off_c, 0, 52, 55
1, 378712, Note_on_c, 0, 50, 51
1, 378718, Note_on_c, 0, 59, 59
1, 378735, Note_off_c, 0, 57, 47
1, 378856, Note_off_c, 0, 50, 58
1, 378867, Note_on_c, 0, 61, 70
1, 378871, Note_off_c, 0, 59, 59
1, 378871, Poly_aftertouch_c, 0, 59, 0
1, 378874, Note_on_c, 0, 49, 56
1, 379033, Note_off_c, 0, 49, 63
1, 379033, Poly_aftertouch_c, 0, 49, 0
1, 379049, Note_on_c, 0, 62, 70
1, 379056, Note_off_c, 0, 61, 58
1, 379056, Note_on_c, 0, 47, 62
1, 379056, Poly_aftertouch_c, 0, 61, 0
1, 379211, Note_off_c, 0, 47, 59
1, 379211, Note_on_c, 0, 45, 63
1, 379211, Poly_aftertouch_c, 0, 47, 0
1, 379215, Control_c, 0, 64, 24
1, 379248, Note_off_c, 0, 66, 63
1, 379394, Note_on_c, 0, 44, 60
1, 379400, Note_off_c, 0, 45, 54
1, 379413, Note_on_c, 0, 65, 67
1, 379558, Note_off_c, 0, 44, 62
1, 379562, Note_off_c, 0, 65, 59
1, 379562, Note_on_c, 0, 42, 60
1, 379566, Note_on_c, 0, 66, 70
1, 379737, Note_off_c, 0, 42, 59
1, 379746, Note_on_c, 0, 41, 74
1, 379754, Note_on_c, 0, 68, 76
1, 379762, Note_off_c, 0, 66, 44
1, 379773, Note_off_c, 0, 62, 53
1, 379862, Note_off_c, 0, 41, 57
1, 379907, Note_on_c, 0, 61, 79
1, 379956, Note_off_c, 0, 68, 48
1, 379956, Poly_aftertouch_c, 0, 68, 0
1, 380039, Note_off_c, 0, 61, 57
1, 380039, Poly_aftertouch_c, 0, 61, 0
1, 380082, Note_on_c, 0, 37, 74
1, 380085, Note_on_c, 0, 63, 69
1, 380088, Note_on_c, 0, 66, 73
1, 380146, Note_off_c, 0, 37, 56
1, 380146, Poly_aftertouch_c, 0, 37, 0
1, 380210, Note_off_c, 0, 66, 49
1, 380234, Note_on_c, 0, 68, 74
1, 380239, Note_on_c, 0, 65, 71
1, 380252, Note_off_c, 0, 63, 52
1, 380252, Poly_aftertouch_c, 0, 63, 0
1, 380341, Note_off_c, 0, 68, 63
1, 380341, Poly_aftertouch_c, 0, 68, 0
1, 380372, Note_off_c, 0, 65, 51
1, 380409, Note_on_c, 0, 66, 73
1, 380416, Note_on_c, 0, 42, 81
1, 380428, Note_on_c, 0, 69, 72
1, 380597, Note_on_c, 0, 68, 74
1, 380640, Note_off_c, 0, 69, 57
1, 380662, Note_off_c, 0, 66, 51
1, 380794, Note_on_c, 0, 69, 72
1, 380815, Note_off_c, 0, 68, 62
1, 380815, Poly_aftertouch_c, 0, 68, 0
1, 380935, Note_off_c, 0, 69, 62
1, 380935, Note_on_c, 0, 66, 72
1, 381118, Note_on_c, 0, 71, 74
1, 381162, Note_off_c, 0, 66, 58
1, 381290, Note_on_c, 0, 73, 75
1, 381345, Note_off_c, 0, 71, 56
1, 381462, Note_on_c, 0, 71, 80
1, 381570, Note_off_c, 0, 73, 51
1, 381570, Poly_aftertouch_c, 0, 73, 0
1, 381623, Note_on_c, 0, 69, 73
1, 381682, Note_off_c, 0, 71, 56
1, 381758, Control_c, 0, 64, 20
1, 381788, Note_off_c, 0, 42, 63
1, 381795, Note_on_c, 0, 41, 75
1, 381795, Control_c, 0, 64, 14
1, 381803, Note_on_c, 0, 71, 77
1, 381815, Control_c, 0, 64, 8
1, 381818, Note_off_c, 0, 69, 55
1, 381833, Control_c, 0, 64, 0
1, 381957, Note_on_c, 0, 69, 80
1, 381965, Control_c, 0, 64, 33
1, 381983, Control_c, 0, 64, 53
1, 382002, Control_c, 0, 64, 64
1, 382009, Note_off_c, 0, 71, 56
1, 382021, Control_c, 0, 64, 66
1, 382039, Control_c, 0, 64, 67
1, 382102, Poly_aftertouch_c, 0, 45, 0
1, 382132, Control_c, 0, 64, 66
1, 382136, Note_on_c, 0, 73, 92
1, 382151, Control_c, 0, 64, 64
1, 382164, Note_on_c, 0, 68, 71
1, 382170, Control_c, 0, 64, 61
1, 382174, Note_off_c, 0, 69, 57
1, 382190, Control_c, 0, 64, 58
1, 382208, Control_c, 0, 64, 53
1, 382226, Control_c, 0, 64, 44
1, 382245, Control_c, 0, 64, 8
1, 382264, Control_c, 0, 64, 0
1, 382269, Poly_aftertouch_c, 0, 71, 0
1, 382320, Control_c, 0, 64, 24
1, 382335, Note_on_c, 0, 69, 71
1, 382339, Control_c, 0, 64, 49
1, 382357, Control_c, 0, 64, 68
1, 382376, Control_c, 0, 64, 78
1, 382392, Note_off_c, 0, 68, 60
1, 382392, Poly_aftertouch_c, 0, 68, 0
1, 382395, Control_c, 0, 64, 86
1, 382413, Control_c, 0, 64, 94
1, 382433, Control_c, 0, 64, 100
1, 382445, Note_off_c, 0, 69, 62
1, 382507, Control_c, 0, 64, 92
1, 382526, Control_c, 0, 64, 75
1, 382544, Note_on_c, 0, 42, 67
1, 382545, Note_on_c, 0, 69, 86
1, 382545, Control_c, 0, 64, 51
1, 382557, Note_off_c, 0, 73, 64
1, 382557, Poly_aftertouch_c, 0, 73, 0
1, 382560, Note_on_c, 0, 66, 76
1, 382561, Control_c, 0, 64, 0
1, 382586, Note_off_c, 0, 41, 57
1, 382618, Note_off_c, 0, 66, 59
1, 382645, Note_off_c, 0, 69, 62
1, 382679, Note_off_c, 0, 42, 62
1, 382706, Note_on_c, 0, 54, 64
1, 382877, Note_on_c, 0, 66, 88
1, 382884, Note_off_c, 0, 54, 55
1, 382892, Note_on_c, 0, 56, 68
1, 382973, Note_off_c, 0, 66, 62
1, 383031, Note_on_c, 0, 57, 68
1, 383034, Note_off_c, 0, 56, 61
1, 383034, Poly_aftertouch_c, 0, 56, 0
1, 383202, Note_off_c, 0, 57, 57
1, 383232, Note_on_c, 0, 74, 93
1, 383236, Note_on_c, 0, 59, 70
1, 383330, Control_c, 0, 64, 21
1, 383349, Control_c, 0, 64, 49
1, 383367, Control_c, 0, 64, 67
1, 383385, Control_c, 0, 64, 75
1, 383395, Note_on_c, 0, 61, 71
1, 383404, Control_c, 0, 64, 80
1, 383410, Note_off_c, 0, 59, 57
1, 383410, Poly_aftertouch_c, 0, 59, 0
1, 383423, Control_c, 0, 64, 82
1, 383497, Control_c, 0, 64, 78
1, 383517, Control_c, 0, 64, 74
1, 383535, Control_c, 0, 64, 72
1, 383553, Note_off_c, 0, 61, 55
1, 383553, Poly_aftertouch_c, 0, 61, 0
1, 383566, Note_on_c, 0, 59, 69
1, 383572, Control_c, 0, 64, 69
1, 383577, Note_on_c, 0, 66, 72
1, 383592, Control_c, 0, 64, 65
1, 383610, Control_c, 0, 64, 60
1, 383629, Control_c, 0, 64, 54
1, 383647, Control_c, 0, 64, 49
1, 383667, Control_c, 0, 64, 43
1, 383685, Control_c, 0, 64, 36
1, 383693, Note_off_c, 0, 66, 59
1, 383701, Control_c, 0, 64, 31
1, 383718, Note_off_c, 0, 59, 56
1, 383718, Poly_aftertouch_c, 0, 59, 0
1, 383722, Note_on_c, 0, 57, 75
1, 383723, Control_c, 0, 64, 26
1, 383778, Control_c, 0, 64, 22
1, 383891, Control_c, 0, 64, 18
1, 383906, Note_on_c, 0, 56, 67
1, 383921, Note_off_c, 0, 57, 56
1, 383926, Note_on_c, 0, 64, 59
1, 383947, Control_c, 0, 64, 13
1, 384022, Control_c, 0, 64, 9
1, 384044, Note_off_c, 0, 64, 48
1, 384044, Poly_aftertouch_c, 0, 64, 0
1, 384088, Note_on_c, 0, 66, 61
1, 384256, Note_on_c, 0, 73, 80
1, 384284, Note_off_c, 0, 66, 52
1, 384285, Note_on_c, 0, 64, 48
1, 384320, Note_off_c, 0, 74, 23
1, 384401, Note_on_c, 0, 71, 80
1, 384427, Note_off_c, 0, 64, 36
1, 384427, Poly_aftertouch_c, 0, 64, 0
1, 384428, Note_off_c, 0, 73, 60
1, 384428, Poly_aftertouch_c, 0, 73, 0
1, 384432, Note_on_c, 0, 62, 64
1, 384539, Note_off_c, 0, 71, 60
1, 384557, Note_off_c, 0, 62, 60
1, 384586, Note_on_c, 0, 73, 90
1, 384589, Note_on_c, 0, 64, 63
1, 384659, Note_off_c, 0, 56, 25
1, 384659, Poly_aftertouch_c, 0, 56, 0
1, 384742, Note_off_c, 0, 64, 37
1, 384742, Poly_aftertouch_c, 0, 64, 0
1, 384761, Note_on_c, 0, 62, 62
1, 384919, Note_off_c, 0, 62, 50
1, 384937, Note_on_c, 0, 61, 69
1, 384948, Note_on_c, 0, 58, 65
1, 385012, Control_c, 0, 64, 13
1, 385063, Note_off_c, 0, 61, 60
1, 385063, Poly_aftertouch_c, 0, 61, 0
1, 385096, Note_on_c, 0, 64, 65
1, 385101, Note_off_c, 0, 58, 57
1, 385101, Poly_aftertouch_c, 0, 58, 0
1, 385284, Note_on_c, 0, 59, 72
1, 385292, Note_off_c, 0, 64, 38
1, 385292, Poly_aftertouch_c, 0, 64, 0
1, 385297, Note_on_c, 0, 62, 73
1, 385406, Note_off_c, 0, 59, 60
1, 385406, Poly_aftertouch_c, 0, 59, 0
1, 385431, Note_on_c, 0, 64, 68
1, 385447, Note_off_c, 0, 62, 53
1, 385613, Note_on_c, 0, 78, 88
1, 385629, Note_on_c, 0, 62, 64
1, 385631, Note_off_c, 0, 64, 59
1, 385631, Poly_aftertouch_c, 0, 64, 0
1, 385633, Note_on_c, 0, 57, 66
1, 385648, Control_c, 0, 64, 18
1, 385721, Note_off_c, 0, 73, 56
1, 385721, Poly_aftertouch_c, 0, 73, 0
1, 385733, Note_off_c, 0, 78, 64
1, 385733, Poly_aftertouch_c, 0, 78, 0
1, 385767, Note_off_c, 0, 57, 60
1, 385790, Note_off_c, 0, 62, 60
1, 385790, Note_on_c, 0, 61, 74
1, 385873, Control_c, 0, 64, 13
1, 385891, Control_c, 0, 64, 0
1, 385923, Note_off_c, 0, 61, 60
1, 385923, Poly_aftertouch_c, 0, 61, 0
1, 385955, Note_on_c, 0, 62, 67
1, 385961, Note_on_c, 0, 71, 88
1, 385962, Note_on_c, 0, 56, 64
1, 386004, Control_c, 0, 64, 24
1, 386022, Control_c, 0, 64, 49
1, 386041, Control_c, 0, 64, 68
1, 386059, Control_c, 0, 64, 78
1, 386078, Note_off_c, 0, 62, 48
1, 386078, Control_c, 0, 64, 86
1, 386098, Control_c, 0, 64, 91
1, 386112, Note_on_c, 0, 61, 70
1, 386116, Control_c, 0, 64, 95
1, 386184, Note_off_c, 0, 56, 59
1, 386184, Poly_aftertouch_c, 0, 56, 0
1, 386231, Note_off_c, 0, 61, 60
1, 386231, Poly_aftertouch_c, 0, 61, 0
1, 386296, Note_on_c, 0, 59, 64
1, 386322, Control_c, 0, 64, 89
1, 386341, Control_c, 0, 64, 85
1, 386359, Control_c, 0, 64, 80
1, 386377, Control_c, 0, 64, 76
1, 386396, Control_c, 0, 64, 70
1, 386415, Control_c, 0, 64, 63
1, 386435, Control_c, 0, 64, 57
1, 386447, Note_on_c, 0, 62, 73
1, 386451, Note_on_c, 0, 54, 69
1, 386451, Control_c, 0, 64, 53
1, 386458, Note_off_c, 0, 59, 59
1, 386458, Poly_aftertouch_c, 0, 59, 0
1, 386471, Control_c, 0, 64, 50
1, 386490, Control_c, 0, 64, 47
1, 386508, Control_c, 0, 64, 43
1, 386527, Control_c, 0, 64, 37
1, 386546, Control_c, 0, 64, 31
1, 386552, Note_off_c, 0, 62, 33
1, 386565, Control_c, 0, 64, 26
1, 386572, Poly_aftertouch_c, 0, 71, 24
1, 386582, Control_c, 0, 64, 22
1, 386596, Note_off_c, 0, 54, 59
1, 386610, Note_on_c, 0, 53, 76
1, 386621, Control_c, 0, 64, 18
1, 386637, Note_on_c, 0, 61, 65
1, 386717, Note_off_c, 0, 71, 23
1, 386717, Poly_aftertouch_c, 0, 71, 0
1, 386740, Note_off_c, 0, 53, 61
1, 386740, Poly_aftertouch_c, 0, 53, 0
1, 386765, Note_on_c, 0, 62, 70
1, 386772, Note_off_c, 0, 61, 62
1, 386772, Poly_aftertouch_c, 0, 61, 0
1, 386895, Note_off_c, 0, 62, 60
1, 386957, Note_on_c, 0, 69, 80
1, 386961, Note_on_c, 0, 49, 70
1, 386963, Note_on_c, 0, 61, 64
1, 387041, Note_off_c, 0, 69, 64
1, 387046, Note_off_c, 0, 49, 62
1, 387046, Poly_aftertouch_c, 0, 49, 0
1, 387079, Note_off_c, 0, 61, 62
1, 387079, Poly_aftertouch_c, 0, 61, 0
1, 387096, Note_on_c, 0, 59, 73
1, 387108, Note_on_c, 0, 68, 78
1, 387172, Note_off_c, 0, 59, 49
1, 387172, Poly_aftertouch_c, 0, 59, 0
1, 387269, Note_off_c, 0, 68, 66
1, 387269, Poly_aftertouch_c, 0, 68, 0
1, 387271, Note_on_c, 0, 69, 85
1, 387279, Note_on_c, 0, 54, 66
1, 387283, Note_on_c, 0, 61, 69
1, 387370, Note_off_c, 0, 61, 59
1, 387370, Poly_aftertouch_c, 0, 61, 0
1, 387405, Note_off_c, 0, 69, 60
1, 387440, Note_on_c, 0, 59, 66
1, 387563, Note_off_c, 0, 59, 58
1, 387563, Poly_aftertouch_c, 0, 59, 0
1, 387618, Note_on_c, 0, 57, 68
1, 387621, Note_on_c, 0, 66, 81
1, 387751, Note_off_c, 0, 66, 61
1, 387758, Note_off_c, 0, 57, 60
1, 387786, Note_on_c, 0, 61, 68
1, 387892, Control_c, 0, 64, 13
1, 387911, Control_c, 0, 64, 8
1, 387930, Control_c, 0, 64, 0
1, 387970, Note_on_c, 0, 68, 83
1, 387975, Note_off_c, 0, 61, 54
1, 387975, Poly_aftertouch_c, 0, 61, 0
1, 387978, Note_on_c, 0, 59, 65
1, 388153, Control_c, 0, 64, 14
1, 388156, Note_on_c, 0, 61, 61
1, 388160, Note_off_c, 0, 59, 59
1, 388160, Poly_aftertouch_c, 0, 59, 0
1, 388173, Control_c, 0, 64, 29
1, 388191, Control_c, 0, 64, 44
1, 388209, Control_c, 0, 64, 57
1, 388229, Control_c, 0, 64, 65
1, 388247, Control_c, 0, 64, 68
1, 388304, Control_c, 0, 64, 70
1, 388334, Note_on_c, 0, 59, 59
1, 388336, Note_off_c, 0, 61, 53
1, 388336, Poly_aftertouch_c, 0, 61, 0
1, 388359, Control_c, 0, 64, 68
1, 388379, Control_c, 0, 64, 66
1, 388396, Control_c, 0, 64, 65
1, 388416, Control_c, 0, 64, 64
1, 388436, Control_c, 0, 64, 62
1, 388453, Control_c, 0, 64, 61
1, 388456, Note_off_c, 0, 54, 52
1, 388471, Note_on_c, 0, 57, 62
1, 388471, Control_c, 0, 64, 60
1, 388476, Note_off_c, 0, 59, 59
1, 388476, Poly_aftertouch_c, 0, 59, 0
1, 388547, Control_c, 0, 64, 57
1, 388584, Control_c, 0, 64, 54
1, 388602, Control_c, 0, 64, 52
1, 388622, Control_c, 0, 64, 48
1, 388640, Control_c, 0, 64, 44
1, 388643, Note_off_c, 0, 57, 59
1, 388645, Note_on_c, 0, 53, 69
1, 388658, Control_c, 0, 64, 37
1, 388675, Control_c, 0, 64, 29
1, 388677, Note_on_c, 0, 59, 46
1, 388696, Control_c, 0, 64, 17
1, 388715, Control_c, 0, 64, 0
1, 388812, Note_off_c, 0, 59, 58
1, 388812, Poly_aftertouch_c, 0, 59, 0
1, 388819, Note_on_c, 0, 57, 59
1, 388846, Control_c, 0, 64, 22
1, 388863, Control_c, 0, 64, 36
1, 388883, Control_c, 0, 64, 49
1, 388901, Control_c, 0, 64, 58
1, 388921, Control_c, 0, 64, 61
1, 388988, Note_off_c, 0, 57, 57
1, 389019, Note_on_c, 0, 56, 59
1, 389069, Control_c, 0, 64, 60
1, 389139, Note_off_c, 0, 56, 62
1, 389139, Poly_aftertouch_c, 0, 56, 0
1, 389167, Note_on_c, 0, 59, 56
1, 389202, Control_c, 0, 64, 58
1, 389258, Control_c, 0, 64, 55
1, 389294, Control_c, 0, 64, 52
1, 389313, Control_c, 0, 64, 49
1, 389332, Control_c, 0, 64, 42
1, 389346, Note_on_c, 0, 54, 60
1, 389350, Note_off_c, 0, 53, 59
1, 389350, Poly_aftertouch_c, 0, 53, 0
1, 389351, Control_c, 0, 64, 27
1, 389361, Note_on_c, 0, 57, 62
1, 389370, Control_c, 0, 64, 0
1, 389383, Note_off_c, 0, 59, 60
1, 389383, Poly_aftertouch_c, 0, 59, 0
1, 389463, Control_c, 0, 64, 11
1, 389481, Control_c, 0, 64, 28
1, 389501, Control_c, 0, 64, 45
1, 389513, Note_on_c, 0, 66, 61
1, 389520, Control_c, 0, 64, 60
1, 389537, Control_c, 0, 64, 67
1, 389556, Control_c, 0, 64, 70
1, 389575, Control_c, 0, 64, 72
1, 389593, Control_c, 0, 64, 74
1, 389611, Note_off_c, 0, 57, 46
1, 389611, Control_c, 0, 64, 76
1, 389638, Note_off_c, 0, 54, 47
1, 389650, Control_c, 0, 64, 78
1, 389664, Note_off_c, 0, 68, 38
1, 389664, Poly_aftertouch_c, 0, 68, 0
1, 389687, Control_c, 0, 64, 76
1, 389700, Note_on_c, 0, 59, 70
1, 389704, Note_on_c, 0, 50, 58
1, 389705, Control_c, 0, 64, 71
1, 389725, Control_c, 0, 64, 65
1, 389743, Control_c, 0, 64, 58
1, 389762, Control_c, 0, 64, 49
1, 389780, Control_c, 0, 64, 39
1, 389799, Control_c, 0, 64, 30
1, 389837, Control_c, 0, 64, 40
1, 389855, Control_c, 0, 64, 48
1, 389867, Note_on_c, 0, 65, 69
1, 389873, Control_c, 0, 64, 59
1, 389877, Note_off_c, 0, 66, 34
1, 389893, Control_c, 0, 64, 67
1, 389911, Control_c, 0, 64, 71
1, 389948, Control_c, 0, 64, 73
1, 390004, Control_c, 0, 64, 71
1, 390024, Control_c, 0, 64, 68
1, 390043, Control_c, 0, 64, 65
1, 390058, Note_on_c, 0, 45, 66
1, 390062, Control_c, 0, 64, 62
1, 390063, Note_on_c, 0, 61, 78
1, 390079, Control_c, 0, 64, 57
1, 390099, Control_c, 0, 64, 50
1, 390113, Note_off_c, 0, 59, 56
1, 390113, Poly_aftertouch_c, 0, 59, 0
1, 390116, Control_c, 0, 64, 35
1, 390155, Control_c, 0, 64, 0
1, 390184, Note_off_c, 0, 50, 47
1, 390212, Control_c, 0, 64, 18
1, 390228, Control_c, 0, 64, 34
1, 390233, Note_on_c, 0, 66, 77
1, 390248, Control_c, 0, 64, 50
1, 390267, Control_c, 0, 64, 64
1, 390285, Control_c, 0, 64, 70
1, 390303, Control_c, 0, 64, 73
1, 390360, Control_c, 0, 64, 75
1, 390397, Control_c, 0, 64, 73
1, 390415, Control_c, 0, 64, 68
1, 390419, Note_on_c, 0, 47, 79
1, 390423, Note_on_c, 0, 62, 79
1, 390435, Control_c, 0, 64, 61
1, 390454, Control_c, 0, 64, 52
1, 390472, Control_c, 0, 64, 38
1, 390481, Note_off_c, 0, 61, 58
1, 390481, Note_off_c, 0, 45, 56
1, 390481, Poly_aftertouch_c, 0, 61, 0
1, 390491, Control_c, 0, 64, 12
1, 390510, Control_c, 0, 64, 0
1, 390545, Poly_aftertouch_c, 0, 65, 20
1, 390547, Control_c, 0, 64, 19
1, 390552, Note_off_c, 0, 65, 19
1, 390552, Poly_aftertouch_c, 0, 65, 0
1, 390567, Control_c, 0, 64, 34
1, 390585, Control_c, 0, 64, 52
1, 390593, Note_on_c, 0, 68, 78
1, 390597, Note_off_c, 0, 66, 63
1, 390603, Control_c, 0, 64, 65
1, 390623, Control_c, 0, 64, 72
1, 390640, Control_c, 0, 64, 75
1, 390660, Control_c, 0, 64, 78
1, 390697, Control_c, 0, 64, 81
1, 390711, Note_off_c, 0, 68, 60
1, 390711, Poly_aftertouch_c, 0, 68, 0
1, 390752, Control_c, 0, 64, 79
1, 390772, Control_c, 0, 64, 76
1, 390790, Control_c, 0, 64, 74
1, 390809, Control_c, 0, 64, 72
1, 390827, Control_c, 0, 64, 69
1, 390838, Note_on_c, 0, 49, 79
1, 390841, Note_on_c, 0, 57, 74
1, 390842, Note_on_c, 0, 61, 79
1, 390846, Control_c, 0, 64, 64
1, 390866, Control_c, 0, 64, 57
1, 390876, Note_off_c, 0, 62, 59
1, 390882, Control_c, 0, 64, 49
1, 390903, Control_c, 0, 64, 40
1, 390915, Note_off_c, 0, 47, 52
1, 390915, Poly_aftertouch_c, 0, 47, 0
1, 390920, Control_c, 0, 64, 27
1, 390940, Control_c, 0, 64, 8
1, 390958, Control_c, 0, 64, 0
1, 391108, Control_c, 0, 64, 9
1, 391127, Control_c, 0, 64, 21
1, 391145, Control_c, 0, 64, 31
1, 391164, Control_c, 0, 64, 43
1, 391183, Control_c, 0, 64, 56
1, 391202, Control_c, 0, 64, 64
1, 391219, Control_c, 0, 64, 68
1, 391240, Control_c, 0, 64, 70
1, 391258, Control_c, 0, 64, 73
1, 391276, Control_c, 0, 64, 75
1, 391295, Control_c, 0, 64, 77
1, 391305, Note_on_c, 0, 66, 81
1, 391333, Control_c, 0, 64, 80
1, 391352, Control_c, 0, 64, 82
1, 391370, Control_c, 0, 64, 85
1, 391407, Control_c, 0, 64, 91
1, 391445, Control_c, 0, 64, 97
1, 391482, Control_c, 0, 64, 101
1, 391789, Note_off_c, 0, 61, 36
1, 391789, Poly_aftertouch_c, 0, 61, 0
1, 391818, Control_c, 0, 64, 95
1, 391841, Note_on_c, 0, 56, 78
1, 391847, Note_on_c, 0, 37, 66
1, 391856, Control_c, 0, 64, 86
1, 391875, Control_c, 0, 64, 79
1, 391894, Control_c, 0, 64, 71
1, 391903, Note_off_c, 0, 57, 55
1, 391912, Control_c, 0, 64, 61
1, 391931, Control_c, 0, 64, 52
1, 391949, Control_c, 0, 64, 44
1, 391968, Control_c, 0, 64, 32
1, 391987, Control_c, 0, 64, 8
1, 392006, Control_c, 0, 64, 0
1, 392174, Control_c, 0, 64, 15
1, 392193, Control_c, 0, 64, 23
1, 392212, Control_c, 0, 64, 33
1, 392231, Control_c, 0, 64, 44
1, 392249, Control_c, 0, 64, 54
1, 392267, Control_c, 0, 64, 61
1, 392286, Control_c, 0, 64, 64
1, 392304, Control_c, 0, 64, 67
1, 392324, Control_c, 0, 64, 68
1, 392455, Control_c, 0, 64, 66
1, 392473, Control_c, 0, 64, 65
1, 392492, Control_c, 0, 64, 64
1, 392505, Note_on_c, 0, 65, 80
1, 392510, Control_c, 0, 64, 63
1, 392530, Control_c, 0, 64, 61
1, 392549, Control_c, 0, 64, 57
1, 392558, Note_off_c, 0, 66, 62
1, 392566, Control_c, 0, 64, 52
1, 392586, Control_c, 0, 64, 46
1, 392604, Control_c, 0, 64, 37
1, 392622, Control_c, 0, 64, 27
1, 392641, Control_c, 0, 64, 20
1, 392754, Control_c, 0, 64, 27
1, 392772, Control_c, 0, 64, 32
1, 392792, Control_c, 0, 64, 39
1, 392810, Control_c, 0, 64, 48
1, 392827, Control_c, 0, 64, 56
1, 392847, Control_c, 0, 64, 62
1, 392865, Control_c, 0, 64, 65
1, 392885, Control_c, 0, 64, 67
1, 392903, Control_c, 0, 64, 69
1, 392921, Control_c, 0, 64, 72
1, 392941, Control_c, 0, 64, 74
1, 392958, Control_c, 0, 64, 76
1, 392967, Note_off_c, 0, 56, 55
1, 392967, Poly_aftertouch_c, 0, 56, 0
1, 392978, Control_c, 0, 64, 78
1, 392997, Control_c, 0, 64, 82
1, 393016, Control_c, 0, 64, 86
1, 393034, Control_c, 0, 64, 90
1, 393052, Control_c, 0, 64, 94
1, 393091, Control_c, 0, 64, 100
1, 393165, Control_c, 0, 64, 104
1, 393427, Control_c, 0, 64, 100
1, 393465, Control_c, 0, 64, 96
1, 393502, Control_c, 0, 64, 86
1, 393520, Control_c, 0, 64, 78
1, 393524, Poly_aftertouch_c, 0, 40, 127
1, 393539, Control_c, 0, 64, 67
1, 393546, Note_on_c, 0, 66, 76
1, 393556, Note_on_c, 0, 42, 60
1, 393558, Control_c, 0, 64, 55
1, 393563, Note_on_c, 0, 54, 59
1, 393576, Control_c, 0, 64, 42
1, 393580, Poly_aftertouch_c, 0, 40, 0
1, 393584, Note_off_c, 0, 37, 37
1, 393584, Poly_aftertouch_c, 0, 37, 0
1, 393592, Note_off_c, 0, 65, 59
1, 393592, Poly_aftertouch_c, 0, 65, 0
1, 393595, Control_c, 0, 64, 27
1, 393616, Control_c, 0, 64, 8
1, 393632, Control_c, 0, 64, 0
1, 393694, Note_off_c, 0, 49, 37
1, 393694, Poly_aftertouch_c, 0, 49, 0
1, 394099, Control_c, 0, 64, 8
1, 394119, Control_c, 0, 64, 13
1, 394157, Control_c, 0, 64, 17
1, 394193, Control_c, 0, 64, 21
1, 394268, Control_c, 0, 64, 25
1, 394324, Control_c, 0, 64, 31
1, 394362, Control_c, 0, 64, 36
1, 395241, Control_c, 0, 64, 32
1, 395397, Poly_aftertouch_c, 0, 49, 0
1, 398150, Poly_aftertouch_c, 0, 64, 0
1, 398190, Note_off_c, 0, 42, 61
1, 398204, Note_off_c, 0, 66, 61
1, 398206, Note_off_c, 0, 54, 43
1, 398258, Poly_aftertouch_c, 0, 62, 0
1, 399360, End_track
0, 0, End_of_file
