0, 0, Header, 0, 1, 480
1, 0, Start_track
1, 0, Sequencer_specific, 6, 67, 113, 0, 0, 0, 67
1, 0, Sequencer_specific, 39, 67, 113, 0, 1, 0, 1, 1, 80, 114, 101, 108, 117, 100, 101, 32, 38, 32, 70, 117, 103, 117, 101, 32, 73, 110, 101, 115, 97, 32, 83, 105, 110, 107, 101, 118, 121, 99, 104, 32
1, 0, Sequencer_specific, 5, 67, 123, 12, 2, 1
1, 0, Tempo, 512820
1, 0, Time_signature, 4, 2, 24, 8
1, 0, System_exclusive, 5, 126, 127, 9, 1, 247
1, 0, Text_t, "Prelude & Fugue in G Minor, WTC II by J.S. Bach"
1, 0, Text_t, "Performed May 25, 2004 by Inesa Sinkevych"
1, 0, Text_t, "From a live recital at the Second International Piano-e-Competition"
1, 0, Instrument_name_t, "Yamaha Disklavier Pro concert grand piano, model DCFIIISAPRO"
1, 1, System_exclusive, 8, 67, 16, 76, 0, 0, 126, 0, 247
1, 2, System_exclusive, 6, 67, 113, 126, 10, 0, 247
1, 5, Control_c, 0, 0, 0
1, 6, Control_c, 0, 32, 0
1, 7, Program_c, 0, 0
1, 8, Control_c, 0, 7, 100
1, 10, Sequencer_specific, 7, 67, 113, 125, 0, 0, 0, 0
1, 10, System_exclusive, 5, 67, 113, 5, 1, 247
1, 10, Title_t, "Prelude & Fugue Inesa Sinkevych"
1, 10, SMPTE_offset, 96, 0, 0, 0, 0
1, 1937, Control_c, 0, 64, 9
1, 1955, Control_c, 0, 64, 13
1, 1969, Note_on_c, 0, 43, 79
1, 1991, Control_c, 0, 64, 19
1, 2009, Control_c, 0, 64, 23
1, 2029, Control_c, 0, 64, 30
1, 2046, Control_c, 0, 64, 39
1, 2064, Control_c, 0, 64, 52
1, 2083, Control_c, 0, 64, 64
1, 2101, Control_c, 0, 64, 69
1, 2156, Control_c, 0, 64, 72
1, 2176, Control_c, 0, 64, 74
1, 2194, Control_c, 0, 64, 77
1, 2214, Control_c, 0, 64, 81
1, 2230, Control_c, 0, 64, 86
1, 2249, Control_c, 0, 64, 91
1, 2268, Control_c, 0, 64, 95
1, 2286, Control_c, 0, 64, 99
1, 2303, Control_c, 0, 64, 103
1, 2321, Control_c, 0, 64, 107
1, 2341, Control_c, 0, 64, 112
1, 2359, Control_c, 0, 64, 117
1, 2378, Control_c, 0, 64, 121
1, 2396, Control_c, 0, 64, 125
1, 2756, Note_on_c, 0, 67, 80
1, 2797, Control_c, 0, 64, 110
1, 2815, Control_c, 0, 64, 96
1, 2817, Note_on_c, 0, 67, 0
1, 2834, Control_c, 0, 64, 76
1, 2853, Control_c, 0, 64, 55
1, 2872, Control_c, 0, 64, 25
1, 2873, Note_on_c, 0, 62, 78
1, 2889, Control_c, 0, 64, 0
1, 3055, Control_c, 0, 64, 42
1, 3074, Control_c, 0, 64, 60
1, 3092, Control_c, 0, 64, 70
1, 3110, Control_c, 0, 64, 77
1, 3131, Control_c, 0, 64, 86
1, 3148, Control_c, 0, 64, 98
1, 3166, Control_c, 0, 64, 108
1, 3185, Control_c, 0, 64, 116
1, 3202, Control_c, 0, 64, 120
1, 3239, Control_c, 0, 64, 126
1, 3581, Note_on_c, 0, 65, 82
1, 3600, Note_on_c, 0, 62, 0
1, 3640, Control_c, 0, 64, 118
1, 3659, Control_c, 0, 64, 102
1, 3677, Note_on_c, 0, 65, 0
1, 3677, Control_c, 0, 64, 83
1, 3696, Control_c, 0, 64, 61
1, 3713, Control_c, 0, 64, 0
1, 3718, Note_on_c, 0, 63, 79
1, 3916, Control_c, 0, 64, 37
1, 3933, Control_c, 0, 64, 54
1, 3954, Control_c, 0, 64, 65
1, 3970, Control_c, 0, 64, 71
1, 3990, Control_c, 0, 64, 75
1, 4008, Control_c, 0, 64, 80
1, 4028, Control_c, 0, 64, 88
1, 4045, Control_c, 0, 64, 96
1, 4064, Control_c, 0, 64, 104
1, 4083, Control_c, 0, 64, 110
1, 4118, Control_c, 0, 64, 116
1, 4156, Control_c, 0, 64, 122
1, 4191, Control_c, 0, 64, 127
1, 4428, Note_on_c, 0, 58, 75
1, 4431, Control_c, 0, 64, 122
1, 4450, Control_c, 0, 64, 116
1, 4468, Control_c, 0, 64, 106
1, 4487, Control_c, 0, 64, 91
1, 4494, Note_on_c, 0, 58, 0
1, 4506, Control_c, 0, 64, 74
1, 4525, Control_c, 0, 64, 51
1, 4544, Control_c, 0, 64, 0
1, 4565, Note_on_c, 0, 57, 70
1, 4742, Control_c, 0, 64, 36
1, 4760, Control_c, 0, 64, 57
1, 4779, Control_c, 0, 64, 67
1, 4795, Control_c, 0, 64, 74
1, 4815, Control_c, 0, 64, 83
1, 4833, Control_c, 0, 64, 93
1, 4851, Control_c, 0, 64, 101
1, 4868, Control_c, 0, 64, 108
1, 4887, Control_c, 0, 64, 113
1, 4906, Control_c, 0, 64, 118
1, 4924, Control_c, 0, 64, 123
1, 4942, Control_c, 0, 64, 127
1, 5274, Note_on_c, 0, 60, 73
1, 5301, Note_on_c, 0, 57, 0
1, 5335, Note_on_c, 0, 60, 0
1, 5385, Control_c, 0, 64, 122
1, 5403, Control_c, 0, 64, 109
1, 5421, Control_c, 0, 64, 90
1, 5426, Note_on_c, 0, 54, 69
1, 5441, Control_c, 0, 64, 68
1, 5460, Control_c, 0, 64, 30
1, 5477, Control_c, 0, 64, 0
1, 5621, Control_c, 0, 64, 34
1, 5638, Control_c, 0, 64, 58
1, 5658, Control_c, 0, 64, 69
1, 5676, Control_c, 0, 64, 78
1, 5696, Control_c, 0, 64, 88
1, 5713, Control_c, 0, 64, 101
1, 5730, Control_c, 0, 64, 114
1, 5750, Control_c, 0, 64, 125
1, 5783, Note_on_c, 0, 63, 0
1, 6045, Note_on_c, 0, 63, 63
1, 6096, Note_on_c, 0, 63, 0
1, 6119, Note_on_c, 0, 62, 77
1, 6174, Control_c, 0, 64, 114
1, 6184, Note_on_c, 0, 62, 0
1, 6185, Note_on_c, 0, 63, 78
1, 6190, Control_c, 0, 64, 94
1, 6208, Control_c, 0, 64, 71
1, 6228, Control_c, 0, 64, 39
1, 6237, Note_on_c, 0, 63, 0
1, 6245, Control_c, 0, 64, 0
1, 6257, Note_on_c, 0, 62, 77
1, 6463, Control_c, 0, 64, 35
1, 6483, Control_c, 0, 64, 55
1, 6500, Control_c, 0, 64, 65
1, 6517, Control_c, 0, 64, 71
1, 6536, Control_c, 0, 64, 76
1, 6556, Control_c, 0, 64, 83
1, 6573, Control_c, 0, 64, 91
1, 6592, Control_c, 0, 64, 100
1, 6613, Control_c, 0, 64, 108
1, 6630, Control_c, 0, 64, 114
1, 6649, Control_c, 0, 64, 119
1, 6665, Control_c, 0, 64, 123
1, 6703, Control_c, 0, 64, 127
1, 6887, Note_on_c, 0, 62, 0
1, 6946, Note_on_c, 0, 60, 76
1, 7013, Note_on_c, 0, 60, 0
1, 7053, Control_c, 0, 64, 121
1, 7070, Control_c, 0, 64, 112
1, 7090, Control_c, 0, 64, 98
1, 7099, Note_on_c, 0, 69, 75
1, 7109, Control_c, 0, 64, 82
1, 7126, Control_c, 0, 64, 62
1, 7145, Control_c, 0, 64, 23
1, 7162, Control_c, 0, 64, 0
1, 7273, Control_c, 0, 64, 31
1, 7291, Control_c, 0, 64, 52
1, 7311, Control_c, 0, 64, 62
1, 7329, Control_c, 0, 64, 69
1, 7347, Control_c, 0, 64, 74
1, 7379, Control_c, 0, 64, 80
1, 7399, Control_c, 0, 64, 88
1, 7417, Control_c, 0, 64, 98
1, 7436, Control_c, 0, 64, 108
1, 7452, Control_c, 0, 64, 116
1, 7472, Control_c, 0, 64, 121
1, 7509, Control_c, 0, 64, 127
1, 7642, Note_on_c, 0, 69, 0
1, 7765, Note_on_c, 0, 60, 65
1, 7850, Note_on_c, 0, 60, 0
1, 7872, Note_on_c, 0, 58, 69
1, 7875, Control_c, 0, 64, 115
1, 7895, Control_c, 0, 64, 96
1, 7914, Control_c, 0, 64, 73
1, 7932, Control_c, 0, 64, 32
1, 7939, Note_on_c, 0, 60, 67
1, 7946, Note_on_c, 0, 58, 0
1, 7950, Control_c, 0, 64, 0
1, 8004, Note_on_c, 0, 58, 65
1, 8043, Note_on_c, 0, 60, 0
1, 8079, Control_c, 0, 64, 39
1, 8098, Control_c, 0, 64, 62
1, 8117, Control_c, 0, 64, 72
1, 8136, Control_c, 0, 64, 79
1, 8139, Poly_aftertouch_c, 0, 43, 24
1, 8152, Control_c, 0, 64, 85
1, 8171, Control_c, 0, 64, 92
1, 8180, Note_on_c, 0, 43, 0
1, 8180, Poly_aftertouch_c, 0, 43, 0
1, 8184, Note_on_c, 0, 54, 0
1, 8191, Control_c, 0, 64, 101
1, 8208, Control_c, 0, 64, 109
1, 8225, Control_c, 0, 64, 115
1, 8243, Control_c, 0, 64, 121
1, 8262, Control_c, 0, 64, 125
1, 8690, Note_on_c, 0, 57, 78
1, 8710, Note_on_c, 0, 58, 0
1, 8762, Note_on_c, 0, 57, 0
1, 8826, Note_on_c, 0, 58, 77
1, 8847, Control_c, 0, 64, 110
1, 8852, Note_on_c, 0, 55, 64
1, 8866, Control_c, 0, 64, 91
1, 8880, Control_c, 0, 64, 69
1, 8898, Control_c, 0, 64, 29
1, 8918, Control_c, 0, 64, 0
1, 9099, Control_c, 0, 64, 29
1, 9119, Control_c, 0, 64, 54
1, 9137, Control_c, 0, 64, 66
1, 9155, Control_c, 0, 64, 73
1, 9172, Control_c, 0, 64, 79
1, 9192, Control_c, 0, 64, 84
1, 9211, Control_c, 0, 64, 91
1, 9244, Control_c, 0, 64, 99
1, 9263, Control_c, 0, 64, 107
1, 9281, Control_c, 0, 64, 113
1, 9302, Control_c, 0, 64, 117
1, 9336, Control_c, 0, 64, 122
1, 9392, Control_c, 0, 64, 126
1, 9631, Note_on_c, 0, 74, 83
1, 9704, Control_c, 0, 64, 120
1, 9708, Note_on_c, 0, 74, 0
1, 9722, Control_c, 0, 64, 116
1, 9742, Control_c, 0, 64, 111
1, 9750, Note_on_c, 0, 58, 0
1, 9760, Control_c, 0, 64, 104
1, 9766, Note_on_c, 0, 69, 82
1, 9777, Control_c, 0, 64, 92
1, 9796, Control_c, 0, 64, 77
1, 9814, Control_c, 0, 64, 55
1, 9833, Control_c, 0, 64, 0
1, 9834, Note_on_c, 0, 60, 43
1, 9962, Control_c, 0, 64, 39
1, 9981, Control_c, 0, 64, 61
1, 10000, Control_c, 0, 64, 71
1, 10016, Control_c, 0, 64, 78
1, 10035, Control_c, 0, 64, 86
1, 10053, Control_c, 0, 64, 96
1, 10073, Control_c, 0, 64, 106
1, 10093, Control_c, 0, 64, 114
1, 10110, Control_c, 0, 64, 120
1, 10138, Note_on_c, 0, 60, 0
1, 10148, Control_c, 0, 64, 126
1, 10501, Note_on_c, 0, 72, 81
1, 10521, Note_on_c, 0, 69, 0
1, 10580, Note_on_c, 0, 72, 0
1, 10622, Control_c, 0, 64, 113
1, 10635, Note_on_c, 0, 70, 80
1, 10639, Control_c, 0, 64, 98
1, 10658, Control_c, 0, 64, 80
1, 10676, Control_c, 0, 64, 61
1, 10694, Note_on_c, 0, 62, 41
1, 10695, Control_c, 0, 64, 18
1, 10712, Control_c, 0, 64, 0
1, 10862, Control_c, 0, 64, 30
1, 10879, Control_c, 0, 64, 54
1, 10897, Control_c, 0, 64, 67
1, 10915, Control_c, 0, 64, 77
1, 10935, Control_c, 0, 64, 85
1, 10951, Control_c, 0, 64, 94
1, 10970, Control_c, 0, 64, 102
1, 10988, Control_c, 0, 64, 108
1, 11026, Control_c, 0, 64, 113
1, 11152, Control_c, 0, 64, 117
1, 11384, Note_on_c, 0, 65, 80
1, 11409, Control_c, 0, 64, 113
1, 11444, Control_c, 0, 64, 103
1, 11452, Note_on_c, 0, 65, 0
1, 11464, Control_c, 0, 64, 90
1, 11482, Control_c, 0, 64, 73
1, 11499, Control_c, 0, 64, 51
1, 11511, Note_on_c, 0, 64, 76
1, 11518, Control_c, 0, 64, 0
1, 11646, Control_c, 0, 64, 31
1, 11666, Control_c, 0, 64, 57
1, 11684, Control_c, 0, 64, 69
1, 11703, Control_c, 0, 64, 74
1, 11723, Control_c, 0, 64, 80
1, 11741, Control_c, 0, 64, 87
1, 11760, Control_c, 0, 64, 96
1, 11777, Control_c, 0, 64, 104
1, 11797, Control_c, 0, 64, 110
1, 11813, Control_c, 0, 64, 116
1, 11834, Control_c, 0, 64, 121
1, 11835, Note_on_c, 0, 62, 0
1, 11870, Control_c, 0, 64, 126
1, 12199, Note_on_c, 0, 64, 0
1, 12214, Note_on_c, 0, 67, 78
1, 12267, Note_on_c, 0, 67, 0
1, 12345, Control_c, 0, 64, 121
1, 12360, Control_c, 0, 64, 108
1, 12362, Note_on_c, 0, 61, 76
1, 12381, Control_c, 0, 64, 88
1, 12398, Control_c, 0, 64, 66
1, 12418, Control_c, 0, 64, 19
1, 12435, Control_c, 0, 64, 0
1, 12565, Control_c, 0, 64, 32
1, 12581, Control_c, 0, 64, 59
1, 12600, Control_c, 0, 64, 71
1, 12620, Control_c, 0, 64, 82
1, 12638, Control_c, 0, 64, 95
1, 12656, Control_c, 0, 64, 109
1, 12674, Control_c, 0, 64, 120
1, 12680, Note_on_c, 0, 70, 0
1, 12692, Control_c, 0, 64, 124
1, 12999, Note_on_c, 0, 70, 65
1, 13047, Note_on_c, 0, 70, 0
1, 13067, Note_on_c, 0, 69, 75
1, 13131, Control_c, 0, 64, 111
1, 13135, Note_on_c, 0, 69, 0
1, 13135, Note_on_c, 0, 70, 81
1, 13150, Control_c, 0, 64, 96
1, 13167, Control_c, 0, 64, 78
1, 13184, Note_on_c, 0, 70, 0
1, 13187, Control_c, 0, 64, 58
1, 13198, Note_on_c, 0, 69, 79
1, 13205, Control_c, 0, 64, 0
1, 13388, Control_c, 0, 64, 13
1, 13409, Control_c, 0, 64, 48
1, 13426, Control_c, 0, 64, 65
1, 13444, Control_c, 0, 64, 73
1, 13464, Control_c, 0, 64, 78
1, 13482, Control_c, 0, 64, 82
1, 13501, Control_c, 0, 64, 88
1, 13519, Control_c, 0, 64, 97
1, 13536, Control_c, 0, 64, 107
1, 13555, Control_c, 0, 64, 117
1, 13574, Control_c, 0, 64, 123
1, 13593, Control_c, 0, 64, 127
1, 13789, Note_on_c, 0, 69, 0
1, 13896, Note_on_c, 0, 67, 84
1, 13968, Note_on_c, 0, 67, 0
1, 14049, Control_c, 0, 64, 121
1, 14066, Note_on_c, 0, 76, 80
1, 14066, Control_c, 0, 64, 106
1, 14084, Control_c, 0, 64, 87
1, 14103, Control_c, 0, 64, 68
1, 14121, Control_c, 0, 64, 34
1, 14139, Control_c, 0, 64, 0
1, 14250, Control_c, 0, 64, 16
1, 14269, Control_c, 0, 64, 51
1, 14288, Control_c, 0, 64, 65
1, 14305, Control_c, 0, 64, 71
1, 14323, Control_c, 0, 64, 76
1, 14341, Control_c, 0, 64, 81
1, 14361, Control_c, 0, 64, 88
1, 14379, Control_c, 0, 64, 98
1, 14398, Control_c, 0, 64, 108
1, 14417, Control_c, 0, 64, 114
1, 14454, Control_c, 0, 64, 120
1, 14471, Control_c, 0, 64, 125
1, 14548, Note_on_c, 0, 76, 0
1, 14736, Note_on_c, 0, 67, 71
1, 14809, Note_on_c, 0, 67, 0
1, 14878, Note_on_c, 0, 66, 71
1, 14892, Control_c, 0, 64, 116
1, 14911, Control_c, 0, 64, 100
1, 14929, Control_c, 0, 64, 81
1, 14943, Note_on_c, 0, 66, 0
1, 14946, Control_c, 0, 64, 58
1, 14950, Note_on_c, 0, 67, 75
1, 14964, Control_c, 0, 64, 0
1, 15006, Note_on_c, 0, 66, 75
1, 15041, Note_on_c, 0, 67, 0
1, 15131, Control_c, 0, 64, 43
1, 15150, Control_c, 0, 64, 62
1, 15161, Poly_aftertouch_c, 0, 55, 24
1, 15166, Control_c, 0, 64, 71
1, 15185, Control_c, 0, 64, 78
1, 15198, Note_on_c, 0, 55, 0
1, 15198, Poly_aftertouch_c, 0, 55, 0
1, 15203, Control_c, 0, 64, 84
1, 15223, Control_c, 0, 64, 93
1, 15240, Control_c, 0, 64, 104
1, 15248, Note_on_c, 0, 61, 0
1, 15258, Control_c, 0, 64, 115
1, 15278, Control_c, 0, 64, 125
1, 15574, Note_on_c, 0, 66, 0
1, 15730, Note_on_c, 0, 64, 84
1, 15810, Note_on_c, 0, 64, 0
1, 15877, Note_on_c, 0, 66, 85
1, 15890, Note_on_c, 0, 62, 75
1, 15899, Control_c, 0, 64, 110
1, 15902, Note_on_c, 0, 50, 68
1, 15918, Control_c, 0, 64, 88
1, 15937, Control_c, 0, 64, 66
1, 15954, Control_c, 0, 64, 18
1, 15973, Control_c, 0, 64, 0
1, 16158, Control_c, 0, 64, 38
1, 16174, Control_c, 0, 64, 62
1, 16193, Control_c, 0, 64, 74
1, 16211, Control_c, 0, 64, 83
1, 16231, Control_c, 0, 64, 92
1, 16250, Control_c, 0, 64, 101
1, 16267, Control_c, 0, 64, 109
1, 16287, Control_c, 0, 64, 114
1, 16305, Control_c, 0, 64, 119
1, 16324, Control_c, 0, 64, 123
1, 16360, Control_c, 0, 64, 127
1, 16582, Note_on_c, 0, 66, 0
1, 16653, Note_on_c, 0, 67, 85
1, 16755, Note_on_c, 0, 67, 0
1, 16762, Control_c, 0, 64, 123
1, 16780, Control_c, 0, 64, 112
1, 16799, Control_c, 0, 64, 95
1, 16803, Note_on_c, 0, 69, 83
1, 16816, Control_c, 0, 64, 75
1, 16834, Control_c, 0, 64, 50
1, 16853, Control_c, 0, 64, 0
1, 16963, Control_c, 0, 64, 40
1, 16981, Control_c, 0, 64, 61
1, 17000, Control_c, 0, 64, 71
1, 17020, Control_c, 0, 64, 77
1, 17036, Control_c, 0, 64, 84
1, 17055, Control_c, 0, 64, 94
1, 17073, Control_c, 0, 64, 106
1, 17093, Control_c, 0, 64, 115
1, 17111, Control_c, 0, 64, 121
1, 17146, Control_c, 0, 64, 126
1, 17522, Note_on_c, 0, 60, 79
1, 17530, Note_on_c, 0, 62, 0
1, 17570, Control_c, 0, 64, 117
1, 17588, Control_c, 0, 64, 109
1, 17594, Note_on_c, 0, 60, 0
1, 17606, Control_c, 0, 64, 96
1, 17625, Control_c, 0, 64, 77
1, 17644, Control_c, 0, 64, 54
1, 17677, Control_c, 0, 64, 0
1, 17680, Note_on_c, 0, 58, 75
1, 17861, Control_c, 0, 64, 37
1, 17879, Control_c, 0, 64, 56
1, 17899, Control_c, 0, 64, 68
1, 17917, Control_c, 0, 64, 76
1, 17937, Control_c, 0, 64, 83
1, 17955, Control_c, 0, 64, 92
1, 17971, Control_c, 0, 64, 100
1, 17991, Control_c, 0, 64, 107
1, 18008, Control_c, 0, 64, 113
1, 18027, Control_c, 0, 64, 119
1, 18064, Control_c, 0, 64, 125
1, 18384, Note_on_c, 0, 62, 81
1, 18424, Note_on_c, 0, 69, 0
1, 18464, Note_on_c, 0, 62, 0
1, 18488, Control_c, 0, 64, 114
1, 18505, Control_c, 0, 64, 100
1, 18523, Control_c, 0, 64, 81
1, 18527, Note_on_c, 0, 67, 81
1, 18541, Control_c, 0, 64, 60
1, 18560, Control_c, 0, 64, 0
1, 18722, Control_c, 0, 64, 27
1, 18742, Control_c, 0, 64, 52
1, 18758, Control_c, 0, 64, 66
1, 18778, Control_c, 0, 64, 76
1, 18795, Control_c, 0, 64, 87
1, 18815, Control_c, 0, 64, 102
1, 18833, Control_c, 0, 64, 114
1, 18852, Control_c, 0, 64, 120
1, 18870, Control_c, 0, 64, 124
1, 19271, Note_on_c, 0, 70, 85
1, 19362, Note_on_c, 0, 70, 0
1, 19404, Control_c, 0, 64, 117
1, 19422, Note_on_c, 0, 72, 85
1, 19422, Control_c, 0, 64, 101
1, 19441, Control_c, 0, 64, 83
1, 19458, Control_c, 0, 64, 64
1, 19477, Control_c, 0, 64, 31
1, 19481, Note_on_c, 0, 58, 0
1, 19482, Note_on_c, 0, 57, 42
1, 19497, Control_c, 0, 64, 0
1, 19677, Control_c, 0, 64, 31
1, 19693, Control_c, 0, 64, 56
1, 19712, Control_c, 0, 64, 70
1, 19731, Control_c, 0, 64, 79
1, 19749, Control_c, 0, 64, 87
1, 19762, Note_on_c, 0, 67, 0
1, 19767, Control_c, 0, 64, 96
1, 19787, Control_c, 0, 64, 103
1, 19805, Control_c, 0, 64, 108
1, 19842, Control_c, 0, 64, 112
1, 20168, Note_on_c, 0, 67, 77
1, 20190, Control_c, 0, 64, 104
1, 20210, Control_c, 0, 64, 97
1, 20228, Control_c, 0, 64, 90
1, 20243, Note_on_c, 0, 67, 0
1, 20247, Control_c, 0, 64, 82
1, 20266, Control_c, 0, 64, 72
1, 20284, Control_c, 0, 64, 58
1, 20302, Control_c, 0, 64, 26
1, 20306, Note_on_c, 0, 66, 69
1, 20319, Control_c, 0, 64, 0
1, 20482, Control_c, 0, 64, 43
1, 20501, Control_c, 0, 64, 61
1, 20520, Control_c, 0, 64, 70
1, 20539, Control_c, 0, 64, 76
1, 20555, Control_c, 0, 64, 80
1, 20575, Control_c, 0, 64, 84
1, 20593, Control_c, 0, 64, 89
1, 20611, Control_c, 0, 64, 96
1, 20628, Control_c, 0, 64, 104
1, 20648, Control_c, 0, 64, 109
1, 20684, Control_c, 0, 64, 115
1, 20722, Control_c, 0, 64, 119
1, 20759, Control_c, 0, 64, 123
1, 20858, Note_on_c, 0, 66, 0
1, 21038, Note_on_c, 0, 64, 67
1, 21078, Note_on_c, 0, 64, 0
1, 21088, Control_c, 0, 64, 119
1, 21107, Control_c, 0, 64, 113
1, 21126, Control_c, 0, 64, 102
1, 21145, Control_c, 0, 64, 87
1, 21163, Control_c, 0, 64, 71
1, 21182, Control_c, 0, 64, 51
1, 21187, Note_on_c, 0, 66, 70
1, 21200, Control_c, 0, 64, 0
1, 21327, Control_c, 0, 64, 9
1, 21347, Control_c, 0, 64, 44
1, 21365, Control_c, 0, 64, 61
1, 21383, Control_c, 0, 64, 70
1, 21417, Control_c, 0, 64, 77
1, 21436, Control_c, 0, 64, 84
1, 21455, Control_c, 0, 64, 93
1, 21457, Note_on_c, 0, 72, 0
1, 21473, Control_c, 0, 64, 103
1, 21489, Control_c, 0, 64, 112
1, 21509, Control_c, 0, 64, 118
1, 21517, Note_on_c, 0, 57, 0
1, 21527, Control_c, 0, 64, 122
1, 21546, Control_c, 0, 64, 126
1, 21857, Poly_aftertouch_c, 0, 50, 24
1, 21911, Note_on_c, 0, 74, 82
1, 22019, Note_on_c, 0, 74, 0
1, 22041, Control_c, 0, 64, 117
1, 22053, Note_on_c, 0, 69, 84
1, 22059, Control_c, 0, 64, 102
1, 22079, Control_c, 0, 64, 83
1, 22094, Note_on_c, 0, 62, 61
1, 22098, Control_c, 0, 64, 57
1, 22115, Poly_aftertouch_c, 0, 50, 20
1, 22115, Control_c, 0, 64, 0
1, 22221, Note_on_c, 0, 50, 0
1, 22221, Poly_aftertouch_c, 0, 50, 0
1, 22246, Note_on_c, 0, 66, 0
1, 22246, Control_c, 0, 64, 44
1, 22262, Control_c, 0, 64, 66
1, 22281, Control_c, 0, 64, 77
1, 22301, Control_c, 0, 64, 88
1, 22319, Control_c, 0, 64, 100
1, 22351, Control_c, 0, 64, 110
1, 22371, Control_c, 0, 64, 117
1, 22390, Control_c, 0, 64, 121
1, 22408, Control_c, 0, 64, 125
1, 22751, Note_on_c, 0, 69, 0
1, 22797, Note_on_c, 0, 72, 90
1, 22818, Note_on_c, 0, 51, 72
1, 22854, Note_on_c, 0, 51, 0
1, 22875, Note_on_c, 0, 72, 0
1, 22922, Control_c, 0, 64, 120
1, 22941, Control_c, 0, 64, 104
1, 22942, Note_on_c, 0, 71, 89
1, 22956, Note_on_c, 0, 67, 75
1, 22958, Control_c, 0, 64, 82
1, 22963, Note_on_c, 0, 53, 64
1, 22977, Control_c, 0, 64, 57
1, 22995, Control_c, 0, 64, 0
1, 23162, Control_c, 0, 64, 22
1, 23180, Control_c, 0, 64, 50
1, 23197, Control_c, 0, 64, 66
1, 23215, Control_c, 0, 64, 75
1, 23235, Control_c, 0, 64, 83
1, 23254, Control_c, 0, 64, 91
1, 23286, Control_c, 0, 64, 99
1, 23306, Control_c, 0, 64, 107
1, 23325, Control_c, 0, 64, 113
1, 23343, Control_c, 0, 64, 117
1, 23433, Control_c, 0, 64, 121
1, 23560, Note_on_c, 0, 71, 0
1, 23654, Note_on_c, 0, 72, 88
1, 23724, Note_on_c, 0, 72, 0
1, 23727, Control_c, 0, 64, 117
1, 23747, Control_c, 0, 64, 112
1, 23766, Control_c, 0, 64, 101
1, 23785, Control_c, 0, 64, 84
1, 23803, Control_c, 0, 64, 64
1, 23805, Note_on_c, 0, 74, 87
1, 23819, Control_c, 0, 64, 0
1, 23949, Control_c, 0, 64, 38
1, 23968, Control_c, 0, 64, 63
1, 23984, Control_c, 0, 64, 76
1, 24003, Control_c, 0, 64, 87
1, 24021, Control_c, 0, 64, 98
1, 24041, Control_c, 0, 64, 108
1, 24059, Control_c, 0, 64, 115
1, 24078, Control_c, 0, 64, 121
1, 24098, Control_c, 0, 64, 127
1, 24106, Note_on_c, 0, 62, 0
1, 24494, Note_on_c, 0, 53, 0
1, 24523, Note_on_c, 0, 59, 80
1, 24591, Note_on_c, 0, 59, 0
1, 24645, Control_c, 0, 64, 121
1, 24661, Note_on_c, 0, 55, 81
1, 24663, Control_c, 0, 64, 104
1, 24682, Control_c, 0, 64, 83
1, 24686, Note_on_c, 0, 51, 69
1, 24702, Control_c, 0, 64, 58
1, 24718, Control_c, 0, 64, 0
1, 24883, Control_c, 0, 64, 23
1, 24903, Control_c, 0, 64, 52
1, 24904, Note_on_c, 0, 67, 0
1, 24921, Control_c, 0, 64, 67
1, 24937, Control_c, 0, 64, 78
1, 24957, Control_c, 0, 64, 88
1, 24975, Control_c, 0, 64, 99
1, 24995, Control_c, 0, 64, 109
1, 25012, Control_c, 0, 64, 118
1, 25032, Control_c, 0, 64, 125
1, 25354, Note_on_c, 0, 67, 88
1, 25395, Poly_aftertouch_c, 0, 74, 24
1, 25417, Note_on_c, 0, 67, 0
1, 25432, Note_on_c, 0, 74, 0
1, 25432, Poly_aftertouch_c, 0, 74, 0
1, 25495, Note_on_c, 0, 72, 87
1, 25524, Control_c, 0, 64, 115
1, 25541, Note_on_c, 0, 63, 73
1, 25541, Control_c, 0, 64, 96
1, 25560, Control_c, 0, 64, 74
1, 25580, Control_c, 0, 64, 47
1, 25597, Control_c, 0, 64, 0
1, 25727, Control_c, 0, 64, 44
1, 25745, Control_c, 0, 64, 64
1, 25764, Control_c, 0, 64, 75
1, 25781, Control_c, 0, 64, 85
1, 25800, Control_c, 0, 64, 96
1, 25819, Control_c, 0, 64, 107
1, 25837, Control_c, 0, 64, 117
1, 25854, Control_c, 0, 64, 126
1, 25960, Poly_aftertouch_c, 0, 55, 24
1, 25963, Note_on_c, 0, 51, 0
1, 26003, Note_on_c, 0, 55, 0
1, 26003, Poly_aftertouch_c, 0, 55, 0
1, 26134, Note_on_c, 0, 63, 0
1, 26225, Note_on_c, 0, 75, 88
1, 26317, Note_on_c, 0, 75, 0
1, 26368, Control_c, 0, 64, 115
1, 26382, Note_on_c, 0, 77, 91
1, 26387, Control_c, 0, 64, 95
1, 26406, Control_c, 0, 64, 72
1, 26415, Note_on_c, 0, 56, 58
1, 26422, Control_c, 0, 64, 35
1, 26432, Note_on_c, 0, 50, 54
1, 26440, Control_c, 0, 64, 0
1, 26590, Control_c, 0, 64, 30
1, 26607, Control_c, 0, 64, 54
1, 26625, Control_c, 0, 64, 68
1, 26642, Note_on_c, 0, 72, 0
1, 26643, Control_c, 0, 64, 79
1, 26663, Control_c, 0, 64, 90
1, 26681, Control_c, 0, 64, 101
1, 26699, Control_c, 0, 64, 108
1, 26716, Control_c, 0, 64, 113
1, 26752, Control_c, 0, 64, 117
1, 26789, Control_c, 0, 64, 123
1, 26808, Control_c, 0, 64, 127
1, 27132, Note_on_c, 0, 72, 83
1, 27198, Note_on_c, 0, 72, 0
1, 27251, Note_on_c, 0, 56, 0
1, 27272, Note_on_c, 0, 71, 78
1, 27301, Control_c, 0, 64, 117
1, 27308, Note_on_c, 0, 53, 52
1, 27321, Control_c, 0, 64, 101
1, 27338, Control_c, 0, 64, 81
1, 27358, Control_c, 0, 64, 56
1, 27378, Control_c, 0, 64, 0
1, 27505, Control_c, 0, 64, 39
1, 27524, Control_c, 0, 64, 61
1, 27542, Control_c, 0, 64, 72
1, 27561, Control_c, 0, 64, 81
1, 27578, Control_c, 0, 64, 91
1, 27597, Control_c, 0, 64, 102
1, 27616, Control_c, 0, 64, 111
1, 27634, Control_c, 0, 64, 117
1, 27652, Control_c, 0, 64, 121
1, 27688, Control_c, 0, 64, 127
1, 27703, Note_on_c, 0, 53, 0
1, 27825, Note_on_c, 0, 71, 0
1, 28009, Note_on_c, 0, 69, 84
1, 28077, Note_on_c, 0, 69, 0
1, 28109, Control_c, 0, 64, 113
1, 28126, Control_c, 0, 64, 96
1, 28146, Control_c, 0, 64, 78
1, 28154, Note_on_c, 0, 71, 82
1, 28163, Control_c, 0, 64, 60
1, 28183, Control_c, 0, 64, 16
1, 28199, Note_on_c, 0, 55, 52
1, 28199, Control_c, 0, 64, 0
1, 28346, Control_c, 0, 64, 41
1, 28364, Control_c, 0, 64, 61
1, 28384, Control_c, 0, 64, 73
1, 28403, Control_c, 0, 64, 83
1, 28419, Control_c, 0, 64, 95
1, 28438, Control_c, 0, 64, 106
1, 28457, Control_c, 0, 64, 118
1, 28475, Note_on_c, 0, 50, 0
1, 28475, Control_c, 0, 64, 127
1, 28517, Note_on_c, 0, 77, 0
1, 28905, Note_on_c, 0, 79, 88
1, 28972, Note_on_c, 0, 79, 0
1, 29025, Control_c, 0, 64, 115
1, 29045, Control_c, 0, 64, 101
1, 29049, Note_on_c, 0, 74, 86
1, 29061, Control_c, 0, 64, 84
1, 29079, Note_on_c, 0, 43, 48
1, 29079, Control_c, 0, 64, 64
1, 29098, Control_c, 0, 64, 25
1, 29117, Control_c, 0, 64, 0
1, 29245, Control_c, 0, 64, 36
1, 29265, Control_c, 0, 64, 55
1, 29281, Control_c, 0, 64, 64
1, 29300, Control_c, 0, 64, 69
1, 29319, Control_c, 0, 64, 74
1, 29339, Control_c, 0, 64, 81
1, 29354, Control_c, 0, 64, 91
1, 29373, Control_c, 0, 64, 101
1, 29392, Control_c, 0, 64, 110
1, 29410, Control_c, 0, 64, 116
1, 29448, Control_c, 0, 64, 122
1, 29486, Control_c, 0, 64, 127
1, 29798, Note_on_c, 0, 77, 82
1, 29807, Note_on_c, 0, 74, 0
1, 29897, Note_on_c, 0, 77, 0
1, 29905, Control_c, 0, 64, 119
1, 29923, Control_c, 0, 64, 112
1, 29941, Control_c, 0, 64, 100
1, 29961, Control_c, 0, 64, 84
1, 29964, Note_on_c, 0, 75, 80
1, 29979, Control_c, 0, 64, 66
1, 29996, Control_c, 0, 64, 43
1, 30013, Control_c, 0, 64, 0
1, 30022, Note_on_c, 0, 48, 39
1, 30059, Note_on_c, 0, 43, 0
1, 30121, Note_on_c, 0, 71, 0
1, 30181, Control_c, 0, 64, 25
1, 30199, Control_c, 0, 64, 49
1, 30217, Control_c, 0, 64, 62
1, 30234, Control_c, 0, 64, 69
1, 30254, Control_c, 0, 64, 73
1, 30272, Control_c, 0, 64, 76
1, 30290, Control_c, 0, 64, 80
1, 30307, Control_c, 0, 64, 87
1, 30326, Control_c, 0, 64, 96
1, 30346, Control_c, 0, 64, 106
1, 30363, Control_c, 0, 64, 112
1, 30686, Note_on_c, 0, 72, 72
1, 30732, Control_c, 0, 64, 107
1, 30766, Control_c, 0, 64, 99
1, 30767, Note_on_c, 0, 72, 0
1, 30783, Control_c, 0, 64, 86
1, 30802, Control_c, 0, 64, 70
1, 30820, Control_c, 0, 64, 48
1, 30839, Control_c, 0, 64, 0
1, 30842, Note_on_c, 0, 67, 68
1, 30987, Control_c, 0, 64, 32
1, 31004, Control_c, 0, 64, 53
1, 31005, Control_c, 0, 67, 8
1, 31022, Control_c, 0, 64, 64
1, 31041, Control_c, 0, 64, 70
1, 31059, Control_c, 0, 64, 75
1, 31079, Control_c, 0, 64, 80
1, 31096, Control_c, 0, 64, 85
1, 31116, Control_c, 0, 64, 90
1, 31136, Control_c, 0, 64, 96
1, 31137, Control_c, 0, 67, 14
1, 31151, Control_c, 0, 64, 103
1, 31152, Control_c, 0, 67, 18
1, 31170, Control_c, 0, 64, 109
1, 31171, Control_c, 0, 67, 22
1, 31190, Control_c, 0, 64, 113
1, 31207, Control_c, 0, 67, 28
1, 31226, Control_c, 0, 64, 118
1, 31242, Control_c, 0, 67, 34
1, 31555, Note_on_c, 0, 70, 71
1, 31575, Note_on_c, 0, 67, 0
1, 31576, Note_on_c, 0, 75, 0
1, 31611, Control_c, 0, 64, 112
1, 31630, Control_c, 0, 64, 105
1, 31637, Note_on_c, 0, 70, 0
1, 31648, Control_c, 0, 64, 95
1, 31667, Control_c, 0, 64, 81
1, 31686, Control_c, 0, 64, 66
1, 31709, Note_on_c, 0, 68, 67
1, 31716, Control_c, 0, 64, 49
1, 31737, Control_c, 0, 64, 30
1, 31755, Control_c, 0, 64, 13
1, 31811, Control_c, 0, 64, 9
1, 31830, Control_c, 0, 64, 28
1, 31848, Control_c, 0, 64, 43
1, 31866, Control_c, 0, 64, 56
1, 31884, Control_c, 0, 64, 63
1, 31903, Control_c, 0, 64, 68
1, 31921, Control_c, 0, 64, 70
1, 31938, Control_c, 0, 64, 73
1, 31958, Control_c, 0, 64, 76
1, 31975, Control_c, 0, 64, 80
1, 31995, Control_c, 0, 64, 85
1, 32013, Control_c, 0, 64, 91
1, 32032, Control_c, 0, 64, 98
1, 32050, Control_c, 0, 64, 102
1, 32123, Control_c, 0, 64, 106
1, 32417, Control_c, 0, 64, 102
1, 32426, Note_on_c, 0, 63, 67
1, 32454, Control_c, 0, 64, 93
1, 32473, Control_c, 0, 64, 84
1, 32479, Note_on_c, 0, 63, 0
1, 32493, Control_c, 0, 64, 73
1, 32510, Control_c, 0, 64, 60
1, 32529, Control_c, 0, 64, 44
1, 32545, Control_c, 0, 64, 11
1, 32565, Control_c, 0, 64, 0
1, 32569, Note_on_c, 0, 62, 66
1, 32673, Control_c, 0, 64, 22
1, 32690, Control_c, 0, 64, 42
1, 32708, Control_c, 0, 64, 57
1, 32728, Control_c, 0, 64, 66
1, 32746, Control_c, 0, 64, 71
1, 32765, Control_c, 0, 64, 76
1, 32783, Control_c, 0, 64, 81
1, 32801, Control_c, 0, 64, 88
1, 32819, Control_c, 0, 64, 97
1, 32820, Control_c, 0, 67, 38
1, 32837, Control_c, 0, 64, 106
1, 32857, Control_c, 0, 64, 112
1, 32892, Control_c, 0, 64, 118
1, 32929, Control_c, 0, 64, 123
1, 32936, Note_on_c, 0, 55, 0
1, 32967, Control_c, 0, 64, 127
1, 33300, Note_on_c, 0, 65, 66
1, 33302, Note_on_c, 0, 62, 0
1, 33367, Note_on_c, 0, 65, 0
1, 33408, Control_c, 0, 64, 118
1, 33426, Control_c, 0, 64, 107
1, 33446, Control_c, 0, 64, 91
1, 33454, Note_on_c, 0, 59, 66
1, 33464, Control_c, 0, 64, 71
1, 33481, Control_c, 0, 64, 43
1, 33500, Control_c, 0, 64, 0
1, 33608, Control_c, 0, 64, 31
1, 33625, Control_c, 0, 64, 58
1, 33644, Control_c, 0, 64, 72
1, 33662, Control_c, 0, 64, 82
1, 33682, Control_c, 0, 64, 93
1, 33699, Control_c, 0, 64, 102
1, 33718, Control_c, 0, 64, 110
1, 33735, Control_c, 0, 64, 116
1, 33756, Note_on_c, 0, 68, 0
1, 33772, Control_c, 0, 64, 122
1, 33845, Control_c, 0, 64, 127
1, 34063, Note_on_c, 0, 68, 57
1, 34108, Note_on_c, 0, 68, 0
1, 34137, Note_on_c, 0, 67, 66
1, 34159, Control_c, 0, 64, 120
1, 34178, Control_c, 0, 64, 113
1, 34184, Note_on_c, 0, 67, 0
1, 34195, Control_c, 0, 64, 102
1, 34195, Note_on_c, 0, 68, 71
1, 34214, Control_c, 0, 64, 88
1, 34232, Note_on_c, 0, 68, 0
1, 34232, Control_c, 0, 64, 71
1, 34251, Control_c, 0, 64, 50
1, 34262, Note_on_c, 0, 67, 73
1, 34267, Control_c, 0, 64, 0
1, 34418, Control_c, 0, 64, 30
1, 34434, Control_c, 0, 64, 53
1, 34436, Control_c, 0, 67, 34
1, 34453, Control_c, 0, 64, 66
1, 34472, Control_c, 0, 64, 72
1, 34490, Control_c, 0, 64, 79
1, 34491, Control_c, 0, 67, 23
1, 34523, Control_c, 0, 64, 87
1, 34541, Control_c, 0, 64, 97
1, 34542, Control_c, 0, 67, 0
1, 34560, Control_c, 0, 64, 109
1, 34578, Control_c, 0, 64, 118
1, 34597, Control_c, 0, 64, 123
1, 34634, Control_c, 0, 64, 127
1, 34830, Note_on_c, 0, 67, 0
1, 34988, Note_on_c, 0, 65, 80
1, 35053, Note_on_c, 0, 65, 0
1, 35075, Control_c, 0, 64, 123
1, 35095, Control_c, 0, 64, 112
1, 35114, Control_c, 0, 64, 97
1, 35130, Control_c, 0, 64, 81
1, 35149, Control_c, 0, 64, 65
1, 35150, Note_on_c, 0, 74, 76
1, 35167, Control_c, 0, 64, 45
1, 35187, Control_c, 0, 64, 9
1, 35203, Control_c, 0, 64, 0
1, 35296, Control_c, 0, 64, 31
1, 35315, Control_c, 0, 64, 52
1, 35334, Control_c, 0, 64, 65
1, 35351, Control_c, 0, 64, 71
1, 35369, Control_c, 0, 64, 74
1, 35387, Control_c, 0, 64, 79
1, 35407, Control_c, 0, 64, 84
1, 35425, Control_c, 0, 64, 91
1, 35458, Control_c, 0, 64, 99
1, 35476, Control_c, 0, 64, 106
1, 35494, Control_c, 0, 64, 110
1, 35532, Control_c, 0, 64, 115
1, 35587, Control_c, 0, 64, 121
1, 35623, Control_c, 0, 64, 125
1, 35914, Note_on_c, 0, 65, 66
1, 35936, Control_c, 0, 64, 120
1, 35955, Control_c, 0, 64, 112
1, 35965, Note_on_c, 0, 65, 0
1, 35973, Control_c, 0, 64, 100
1, 35992, Control_c, 0, 64, 83
1, 36010, Control_c, 0, 64, 65
1, 36029, Control_c, 0, 64, 38
1, 36048, Control_c, 0, 64, 0
1, 36055, Note_on_c, 0, 63, 68
1, 36102, Control_c, 0, 64, 26
1, 36121, Control_c, 0, 64, 46
1, 36138, Control_c, 0, 64, 62
1, 36155, Control_c, 0, 64, 72
1, 36175, Control_c, 0, 64, 81
1, 36194, Control_c, 0, 64, 91
1, 36213, Control_c, 0, 64, 104
1, 36215, Poly_aftertouch_c, 0, 48, 24
1, 36231, Control_c, 0, 64, 117
1, 36251, Control_c, 0, 64, 125
1, 36280, Note_on_c, 0, 48, 0
1, 36280, Note_on_c, 0, 59, 0
1, 36280, Poly_aftertouch_c, 0, 48, 0
1, 36632, Note_on_c, 0, 63, 0
1, 36765, Note_on_c, 0, 62, 75
1, 36804, Note_on_c, 0, 62, 0
1, 36908, Control_c, 0, 64, 116
1, 36912, Note_on_c, 0, 63, 75
1, 36927, Control_c, 0, 64, 98
1, 36934, Note_on_c, 0, 60, 60
1, 36945, Control_c, 0, 64, 76
1, 36964, Control_c, 0, 64, 49
1, 36983, Control_c, 0, 64, 0
1, 37030, Note_on_c, 0, 74, 0
1, 37091, Control_c, 0, 64, 22
1, 37110, Control_c, 0, 64, 54
1, 37128, Control_c, 0, 64, 69
1, 37148, Control_c, 0, 64, 78
1, 37166, Control_c, 0, 64, 87
1, 37185, Control_c, 0, 64, 97
1, 37204, Control_c, 0, 64, 107
1, 37222, Control_c, 0, 64, 115
1, 37239, Control_c, 0, 64, 122
1, 37257, Control_c, 0, 64, 127
1, 37680, Note_on_c, 0, 79, 85
1, 37734, Note_on_c, 0, 63, 0
1, 37759, Note_on_c, 0, 79, 0
1, 37821, Note_on_c, 0, 74, 88
1, 37843, Control_c, 0, 64, 120
1, 37847, Note_on_c, 0, 71, 65
1, 37861, Control_c, 0, 64, 101
1, 37880, Control_c, 0, 64, 78
1, 37899, Control_c, 0, 64, 44
1, 37907, Note_on_c, 0, 65, 47
1, 37916, Control_c, 0, 64, 0
1, 38026, Control_c, 0, 64, 53
1, 38043, Control_c, 0, 64, 72
1, 38063, Control_c, 0, 64, 86
1, 38081, Control_c, 0, 64, 103
1, 38099, Control_c, 0, 64, 119
1, 38116, Control_c, 0, 64, 127
1, 38176, Note_on_c, 0, 65, 0
1, 38312, Note_on_c, 0, 71, 0
1, 38570, Note_on_c, 0, 77, 87
1, 38604, Note_on_c, 0, 74, 0
1, 38663, Note_on_c, 0, 77, 0
1, 38720, Note_on_c, 0, 75, 88
1, 38745, Note_on_c, 0, 72, 69
1, 38758, Control_c, 0, 64, 112
1, 38776, Control_c, 0, 64, 91
1, 38796, Control_c, 0, 64, 68
1, 38802, Note_on_c, 0, 67, 37
1, 38814, Control_c, 0, 64, 0
1, 38960, Control_c, 0, 64, 37
1, 38979, Control_c, 0, 64, 57
1, 38997, Control_c, 0, 64, 66
1, 39016, Control_c, 0, 64, 71
1, 39036, Control_c, 0, 64, 77
1, 39046, Note_on_c, 0, 60, 0
1, 39053, Control_c, 0, 64, 85
1, 39071, Control_c, 0, 64, 98
1, 39091, Control_c, 0, 64, 112
1, 39108, Control_c, 0, 64, 123
1, 39126, Control_c, 0, 64, 127
1, 39347, Note_on_c, 0, 72, 0
1, 39378, Note_on_c, 0, 67, 0
1, 39450, Note_on_c, 0, 58, 71
1, 39526, Note_on_c, 0, 58, 0
1, 39565, Control_c, 0, 64, 123
1, 39583, Control_c, 0, 64, 116
1, 39592, Note_on_c, 0, 57, 69
1, 39598, Note_on_c, 0, 66, 80
1, 39600, Control_c, 0, 64, 108
1, 39620, Control_c, 0, 64, 95
1, 39639, Control_c, 0, 64, 76
1, 39655, Control_c, 0, 64, 51
1, 39675, Control_c, 0, 64, 0
1, 39786, Control_c, 0, 64, 48
1, 39805, Control_c, 0, 64, 67
1, 39822, Control_c, 0, 64, 77
1, 39841, Control_c, 0, 64, 86
1, 39859, Control_c, 0, 64, 96
1, 39877, Control_c, 0, 64, 107
1, 39895, Control_c, 0, 64, 117
1, 39913, Control_c, 0, 64, 126
1, 39935, Note_on_c, 0, 57, 0
1, 39951, Note_on_c, 0, 66, 0
1, 40308, Note_on_c, 0, 67, 83
1, 40314, Note_on_c, 0, 60, 64
1, 40356, Note_on_c, 0, 60, 0
1, 40366, Note_on_c, 0, 67, 0
1, 40425, Control_c, 0, 64, 119
1, 40442, Control_c, 0, 64, 102
1, 40461, Control_c, 0, 64, 82
1, 40463, Note_on_c, 0, 69, 85
1, 40481, Control_c, 0, 64, 62
1, 40487, Note_on_c, 0, 54, 63
1, 40499, Control_c, 0, 64, 18
1, 40517, Control_c, 0, 64, 0
1, 40645, Control_c, 0, 64, 31
1, 40663, Control_c, 0, 64, 57
1, 40682, Control_c, 0, 64, 70
1, 40702, Control_c, 0, 64, 80
1, 40719, Control_c, 0, 64, 92
1, 40737, Control_c, 0, 64, 107
1, 40757, Control_c, 0, 64, 120
1, 40767, Note_on_c, 0, 75, 0
1, 40774, Control_c, 0, 64, 127
1, 41115, Note_on_c, 0, 75, 68
1, 41166, Note_on_c, 0, 75, 0
1, 41189, Note_on_c, 0, 74, 69
1, 41220, Poly_aftertouch_c, 0, 69, 24
1, 41238, Note_on_c, 0, 75, 78
1, 41248, Note_on_c, 0, 74, 0
1, 41269, Control_c, 0, 64, 118
1, 41288, Control_c, 0, 64, 99
1, 41293, Note_on_c, 0, 75, 0
1, 41302, Note_on_c, 0, 74, 76
1, 41304, Control_c, 0, 64, 78
1, 41314, Note_on_c, 0, 57, 60
1, 41323, Control_c, 0, 64, 57
1, 41342, Control_c, 0, 64, 18
1, 41361, Control_c, 0, 64, 0
1, 41465, Poly_aftertouch_c, 0, 69, 20
1, 41480, Note_on_c, 0, 69, 0
1, 41480, Poly_aftertouch_c, 0, 69, 0
1, 41489, Control_c, 0, 64, 41
1, 41508, Control_c, 0, 64, 63
1, 41525, Control_c, 0, 64, 74
1, 41544, Control_c, 0, 64, 83
1, 41564, Control_c, 0, 64, 94
1, 41580, Control_c, 0, 64, 106
1, 41598, Control_c, 0, 64, 117
1, 41617, Control_c, 0, 64, 127
1, 41780, Note_on_c, 0, 74, 0
1, 42047, Note_on_c, 0, 72, 84
1, 42112, Note_on_c, 0, 72, 0
1, 42211, Note_on_c, 0, 81, 84
1, 42239, Control_c, 0, 64, 112
1, 42259, Control_c, 0, 64, 96
1, 42277, Control_c, 0, 64, 79
1, 42296, Control_c, 0, 64, 58
1, 42314, Control_c, 0, 64, 0
1, 42406, Control_c, 0, 64, 25
1, 42424, Control_c, 0, 64, 53
1, 42444, Control_c, 0, 64, 68
1, 42460, Control_c, 0, 64, 77
1, 42479, Control_c, 0, 64, 86
1, 42499, Control_c, 0, 64, 95
1, 42516, Control_c, 0, 64, 106
1, 42533, Control_c, 0, 64, 115
1, 42552, Control_c, 0, 64, 122
1, 42570, Control_c, 0, 64, 127
1, 42942, Note_on_c, 0, 72, 77
1, 43003, Note_on_c, 0, 72, 0
1, 43085, Control_c, 0, 64, 118
1, 43090, Note_on_c, 0, 70, 72
1, 43102, Control_c, 0, 64, 104
1, 43119, Control_c, 0, 64, 88
1, 43128, Poly_aftertouch_c, 0, 57, 24
1, 43128, Note_on_c, 0, 62, 50
1, 43139, Control_c, 0, 64, 71
1, 43159, Control_c, 0, 64, 50
1, 43174, Control_c, 0, 64, 0
1, 43268, Control_c, 0, 64, 34
1, 43287, Control_c, 0, 64, 58
1, 43305, Control_c, 0, 64, 71
1, 43322, Control_c, 0, 64, 79
1, 43340, Control_c, 0, 64, 89
1, 43360, Control_c, 0, 64, 101
1, 43377, Poly_aftertouch_c, 0, 57, 22
1, 43377, Control_c, 0, 64, 114
1, 43395, Control_c, 0, 64, 125
1, 43545, Note_on_c, 0, 70, 0
1, 43589, Note_on_c, 0, 54, 0
1, 43634, Poly_aftertouch_c, 0, 57, 24
1, 43726, Note_on_c, 0, 57, 0
1, 43726, Poly_aftertouch_c, 0, 57, 0
1, 43833, Note_on_c, 0, 69, 73
1, 43893, Note_on_c, 0, 69, 0
1, 43998, Control_c, 0, 64, 110
1, 44003, Note_on_c, 0, 70, 81
1, 44018, Control_c, 0, 64, 92
1, 44037, Control_c, 0, 64, 72
1, 44047, Note_on_c, 0, 55, 45
1, 44055, Control_c, 0, 64, 41
1, 44075, Control_c, 0, 64, 0
1, 44154, Poly_aftertouch_c, 0, 81, 24
1, 44184, Control_c, 0, 64, 33
1, 44190, Note_on_c, 0, 81, 0
1, 44190, Poly_aftertouch_c, 0, 81, 0
1, 44203, Control_c, 0, 64, 58
1, 44221, Control_c, 0, 64, 69
1, 44241, Control_c, 0, 64, 76
1, 44256, Control_c, 0, 64, 82
1, 44276, Control_c, 0, 64, 91
1, 44294, Control_c, 0, 64, 101
1, 44313, Control_c, 0, 64, 112
1, 44330, Control_c, 0, 64, 121
1, 44348, Control_c, 0, 64, 127
1, 44359, Note_on_c, 0, 62, 0
1, 44759, Note_on_c, 0, 79, 75
1, 44846, Note_on_c, 0, 79, 0
1, 44924, Note_on_c, 0, 74, 79
1, 44932, Control_c, 0, 64, 115
1, 44953, Control_c, 0, 64, 100
1, 44972, Control_c, 0, 64, 84
1, 44973, Note_on_c, 0, 67, 52
1, 44990, Control_c, 0, 64, 69
1, 45008, Control_c, 0, 64, 53
1, 45028, Control_c, 0, 64, 33
1, 45044, Control_c, 0, 64, 0
1, 45135, Control_c, 0, 64, 11
1, 45154, Control_c, 0, 64, 41
1, 45173, Control_c, 0, 64, 59
1, 45192, Control_c, 0, 64, 68
1, 45210, Control_c, 0, 64, 73
1, 45230, Control_c, 0, 64, 78
1, 45248, Control_c, 0, 64, 84
1, 45266, Control_c, 0, 64, 93
1, 45283, Control_c, 0, 64, 103
1, 45302, Control_c, 0, 64, 113
1, 45323, Control_c, 0, 64, 118
1, 45375, Control_c, 0, 64, 122
1, 45412, Control_c, 0, 64, 127
1, 45670, Note_on_c, 0, 77, 82
1, 45706, Note_on_c, 0, 74, 0
1, 45762, Note_on_c, 0, 77, 0
1, 45777, Control_c, 0, 64, 120
1, 45796, Control_c, 0, 64, 113
1, 45814, Control_c, 0, 64, 102
1, 45832, Control_c, 0, 64, 87
1, 45840, Note_on_c, 0, 75, 81
1, 45850, Control_c, 0, 64, 67
1, 45869, Control_c, 0, 64, 23
1, 45887, Control_c, 0, 64, 0
1, 45980, Control_c, 0, 64, 34
1, 45997, Control_c, 0, 64, 59
1, 46017, Control_c, 0, 64, 71
1, 46035, Control_c, 0, 64, 80
1, 46053, Control_c, 0, 64, 90
1, 46070, Control_c, 0, 64, 100
1, 46088, Control_c, 0, 64, 110
1, 46108, Control_c, 0, 64, 118
1, 46127, Control_c, 0, 64, 125
1, 46143, Poly_aftertouch_c, 0, 70, 24
1, 46147, Note_on_c, 0, 67, 0
1, 46272, Note_on_c, 0, 70, 0
1, 46272, Poly_aftertouch_c, 0, 70, 0
1, 46547, Note_on_c, 0, 67, 82
1, 46604, Note_on_c, 0, 67, 0
1, 46705, Note_on_c, 0, 79, 78
1, 46709, Note_on_c, 0, 62, 78
1, 46712, Control_c, 0, 64, 121
1, 46732, Control_c, 0, 64, 101
1, 46740, Note_on_c, 0, 75, 0
1, 46749, Control_c, 0, 64, 74
1, 46766, Control_c, 0, 64, 25
1, 46786, Control_c, 0, 64, 0
1, 46878, Control_c, 0, 64, 31
1, 46897, Control_c, 0, 64, 59
1, 46914, Control_c, 0, 64, 72
1, 46933, Control_c, 0, 64, 83
1, 46951, Control_c, 0, 64, 97
1, 46970, Control_c, 0, 64, 112
1, 46983, Note_on_c, 0, 79, 0
1, 46987, Control_c, 0, 64, 126
1, 47111, Note_on_c, 0, 62, 0
1, 47399, Note_on_c, 0, 65, 86
1, 47455, Note_on_c, 0, 65, 0
1, 47522, Control_c, 0, 64, 121
1, 47540, Control_c, 0, 64, 103
1, 47552, Note_on_c, 0, 73, 84
1, 47560, Control_c, 0, 64, 82
1, 47560, Note_on_c, 0, 64, 81
1, 47565, Note_on_c, 0, 69, 75
1, 47579, Control_c, 0, 64, 61
1, 47596, Control_c, 0, 64, 11
1, 47628, Control_c, 0, 64, 0
1, 47757, Control_c, 0, 64, 27
1, 47776, Control_c, 0, 64, 54
1, 47795, Control_c, 0, 64, 68
1, 47813, Control_c, 0, 64, 77
1, 47828, Note_on_c, 0, 55, 0
1, 47831, Control_c, 0, 64, 90
1, 47849, Control_c, 0, 64, 105
1, 47868, Control_c, 0, 64, 117
1, 47886, Control_c, 0, 64, 124
1, 48307, Note_on_c, 0, 57, 82
1, 48371, Note_on_c, 0, 57, 0
1, 48450, Note_on_c, 0, 52, 85
1, 48454, Control_c, 0, 64, 107
1, 48474, Control_c, 0, 64, 82
1, 48494, Control_c, 0, 64, 45
1, 48512, Control_c, 0, 64, 0
1, 48619, Control_c, 0, 64, 38
1, 48637, Control_c, 0, 64, 66
1, 48655, Control_c, 0, 64, 81
1, 48674, Control_c, 0, 64, 98
1, 48683, Note_on_c, 0, 52, 0
1, 48692, Control_c, 0, 64, 118
1, 48711, Control_c, 0, 64, 127
1, 48819, Note_on_c, 0, 64, 0
1, 48966, Note_on_c, 0, 73, 0
1, 49176, Note_on_c, 0, 55, 90
1, 49246, Note_on_c, 0, 55, 0
1, 49316, Note_on_c, 0, 74, 88
1, 49329, Note_on_c, 0, 65, 79
1, 49336, Control_c, 0, 64, 103
1, 49342, Note_on_c, 0, 53, 80
1, 49355, Control_c, 0, 64, 75
1, 49373, Control_c, 0, 64, 11
1, 49391, Control_c, 0, 64, 0
1, 49517, Control_c, 0, 64, 33
1, 49535, Control_c, 0, 64, 63
1, 49554, Control_c, 0, 64, 77
1, 49570, Control_c, 0, 64, 91
1, 49572, Note_on_c, 0, 53, 0
1, 49589, Control_c, 0, 64, 108
1, 49609, Control_c, 0, 64, 125
1, 50069, Note_on_c, 0, 50, 88
1, 50133, Note_on_c, 0, 50, 0
1, 50198, Control_c, 0, 64, 121
1, 50207, Note_on_c, 0, 45, 87
1, 50216, Control_c, 0, 64, 97
1, 50235, Control_c, 0, 64, 69
1, 50253, Control_c, 0, 64, 0
1, 50364, Control_c, 0, 64, 39
1, 50382, Control_c, 0, 64, 67
1, 50401, Control_c, 0, 64, 80
1, 50433, Control_c, 0, 64, 94
1, 50451, Control_c, 0, 64, 110
1, 50471, Control_c, 0, 64, 127
1, 50481, Note_on_c, 0, 45, 0
1, 50999, Note_on_c, 0, 48, 86
1, 51073, Note_on_c, 0, 48, 0
1, 51131, Control_c, 0, 64, 123
1, 51146, Note_on_c, 0, 46, 87
1, 51152, Control_c, 0, 64, 101
1, 51169, Control_c, 0, 64, 75
1, 51189, Control_c, 0, 64, 44
1, 51205, Control_c, 0, 64, 0
1, 51367, Control_c, 0, 64, 16
1, 51387, Control_c, 0, 64, 47
1, 51406, Control_c, 0, 64, 62
1, 51423, Control_c, 0, 64, 72
1, 51440, Control_c, 0, 64, 82
1, 51459, Control_c, 0, 64, 93
1, 51479, Control_c, 0, 64, 103
1, 51490, Note_on_c, 0, 65, 0
1, 51496, Control_c, 0, 64, 111
1, 51515, Control_c, 0, 64, 119
1, 51534, Control_c, 0, 64, 127
1, 51558, Note_on_c, 0, 69, 0
1, 51898, Note_on_c, 0, 64, 87
1, 51971, Note_on_c, 0, 64, 0
1, 52034, Note_on_c, 0, 65, 85
1, 52049, Control_c, 0, 64, 108
1, 52067, Control_c, 0, 64, 87
1, 52085, Control_c, 0, 64, 65
1, 52105, Control_c, 0, 64, 16
1, 52124, Control_c, 0, 64, 0
1, 52215, Control_c, 0, 64, 48
1, 52233, Control_c, 0, 64, 69
1, 52252, Control_c, 0, 64, 82
1, 52271, Control_c, 0, 64, 95
1, 52301, Control_c, 0, 64, 109
1, 52321, Control_c, 0, 64, 124
1, 52665, Note_on_c, 0, 65, 0
1, 52730, Note_on_c, 0, 62, 80
1, 52889, Note_on_c, 0, 69, 75
1, 52902, Note_on_c, 0, 47, 80
1, 52915, Note_on_c, 0, 46, 0
1, 52955, Note_on_c, 0, 68, 76
1, 52957, Note_on_c, 0, 69, 0
1, 52967, Control_c, 0, 64, 115
1, 52985, Control_c, 0, 64, 98
1, 53002, Control_c, 0, 64, 76
1, 53015, Note_on_c, 0, 69, 67
1, 53020, Control_c, 0, 64, 40
1, 53023, Note_on_c, 0, 68, 0
1, 53039, Control_c, 0, 64, 0
1, 53085, Note_on_c, 0, 68, 84
1, 53093, Note_on_c, 0, 69, 0
1, 53187, Control_c, 0, 64, 19
1, 53206, Control_c, 0, 64, 53
1, 53237, Control_c, 0, 64, 67
1, 53256, Control_c, 0, 64, 75
1, 53275, Control_c, 0, 64, 83
1, 53294, Control_c, 0, 64, 96
1, 53310, Control_c, 0, 64, 110
1, 53329, Control_c, 0, 64, 122
1, 53347, Control_c, 0, 64, 127
1, 53684, Note_on_c, 0, 49, 77
1, 53763, Note_on_c, 0, 49, 0
1, 53769, Control_c, 0, 64, 109
1, 53789, Control_c, 0, 64, 87
1, 53809, Control_c, 0, 64, 62
1, 53822, Note_on_c, 0, 50, 76
1, 53827, Control_c, 0, 64, 0
1, 53912, Note_on_c, 0, 62, 0
1, 53974, Control_c, 0, 64, 29
1, 53993, Control_c, 0, 64, 58
1, 54010, Control_c, 0, 64, 71
1, 54028, Control_c, 0, 64, 79
1, 54047, Control_c, 0, 64, 89
1, 54067, Control_c, 0, 64, 101
1, 54083, Note_on_c, 0, 68, 0
1, 54084, Control_c, 0, 64, 112
1, 54103, Control_c, 0, 64, 119
1, 54141, Control_c, 0, 64, 126
1, 54372, Note_on_c, 0, 47, 0
1, 54461, Note_on_c, 0, 50, 0
1, 54514, Note_on_c, 0, 68, 85
1, 54516, Note_on_c, 0, 52, 78
1, 54583, Note_on_c, 0, 52, 0
1, 54628, Note_on_c, 0, 68, 0
1, 54632, Control_c, 0, 64, 118
1, 54651, Control_c, 0, 64, 104
1, 54665, Note_on_c, 0, 69, 87
1, 54668, Note_on_c, 0, 53, 78
1, 54669, Control_c, 0, 64, 86
1, 54688, Control_c, 0, 64, 64
1, 54691, Note_on_c, 0, 45, 65
1, 54704, Note_on_c, 0, 43, 36
1, 54704, Control_c, 0, 64, 0
1, 54708, Note_on_c, 0, 52, 38
1, 54709, Note_on_c, 0, 52, 0
1, 54721, Note_on_c, 0, 74, 0
1, 54761, Note_on_c, 0, 43, 0
1, 54909, Control_c, 0, 64, 9
1, 54928, Control_c, 0, 64, 43
1, 54945, Control_c, 0, 64, 58
1, 54960, Control_c, 0, 64, 65
1, 54978, Control_c, 0, 64, 69
1, 54998, Control_c, 0, 64, 72
1, 55016, Control_c, 0, 64, 78
1, 55035, Control_c, 0, 64, 86
1, 55053, Control_c, 0, 64, 97
1, 55073, Control_c, 0, 64, 109
1, 55104, Control_c, 0, 64, 115
1, 55143, Control_c, 0, 64, 120
1, 55214, Control_c, 0, 64, 124
1, 55387, Note_on_c, 0, 69, 0
1, 55410, Note_on_c, 0, 74, 87
1, 55472, Control_c, 0, 64, 119
1, 55502, Note_on_c, 0, 74, 0
1, 55509, Control_c, 0, 64, 109
1, 55528, Control_c, 0, 64, 99
1, 55547, Control_c, 0, 64, 85
1, 55550, Note_on_c, 0, 53, 0
1, 55553, Note_on_c, 0, 76, 83
1, 55564, Control_c, 0, 64, 69
1, 55569, Note_on_c, 0, 70, 73
1, 55584, Control_c, 0, 64, 52
1, 55603, Control_c, 0, 64, 19
1, 55611, Note_on_c, 0, 55, 56
1, 55619, Control_c, 0, 64, 0
1, 55749, Control_c, 0, 64, 40
1, 55768, Control_c, 0, 64, 61
1, 55786, Control_c, 0, 64, 73
1, 55804, Control_c, 0, 64, 82
1, 55822, Control_c, 0, 64, 92
1, 55841, Control_c, 0, 64, 103
1, 55859, Control_c, 0, 64, 113
1, 55876, Note_on_c, 0, 55, 0
1, 55876, Control_c, 0, 64, 120
1, 55895, Control_c, 0, 64, 125
1, 56135, Note_on_c, 0, 76, 0
1, 56293, Note_on_c, 0, 79, 83
1, 56366, Note_on_c, 0, 79, 0
1, 56423, Control_c, 0, 64, 112
1, 56443, Control_c, 0, 64, 99
1, 56446, Note_on_c, 0, 73, 85
1, 56461, Control_c, 0, 64, 87
1, 56480, Control_c, 0, 64, 73
1, 56483, Note_on_c, 0, 57, 58
1, 56499, Control_c, 0, 64, 57
1, 56518, Control_c, 0, 64, 19
1, 56537, Control_c, 0, 64, 0
1, 56665, Control_c, 0, 64, 20
1, 56684, Control_c, 0, 64, 49
1, 56702, Control_c, 0, 64, 65
1, 56721, Control_c, 0, 64, 74
1, 56738, Control_c, 0, 64, 84
1, 56757, Control_c, 0, 64, 95
1, 56776, Control_c, 0, 64, 107
1, 56783, Note_on_c, 0, 70, 0
1, 56794, Control_c, 0, 64, 117
1, 56811, Control_c, 0, 64, 125
1, 57080, Note_on_c, 0, 73, 0
1, 57165, Note_on_c, 0, 74, 83
1, 57197, Note_on_c, 0, 69, 60
1, 57237, Note_on_c, 0, 69, 0
1, 57268, Note_on_c, 0, 74, 0
1, 57305, Control_c, 0, 64, 113
1, 57323, Control_c, 0, 64, 98
1, 57327, Note_on_c, 0, 76, 81
1, 57342, Control_c, 0, 64, 80
1, 57356, Note_on_c, 0, 64, 60
1, 57358, Control_c, 0, 64, 59
1, 57378, Control_c, 0, 64, 0
1, 57402, Note_on_c, 0, 49, 46
1, 57411, Note_on_c, 0, 57, 0
1, 57544, Control_c, 0, 64, 44
1, 57562, Control_c, 0, 64, 62
1, 57581, Control_c, 0, 64, 72
1, 57598, Control_c, 0, 64, 79
1, 57617, Control_c, 0, 64, 86
1, 57636, Control_c, 0, 64, 95
1, 57654, Control_c, 0, 64, 106
1, 57673, Control_c, 0, 64, 117
1, 57692, Control_c, 0, 64, 124
1, 57765, Control_c, 0, 67, 9
1, 57801, Control_c, 0, 67, 15
1, 57832, Note_on_c, 0, 64, 0
1, 57838, Control_c, 0, 67, 23
1, 57876, Control_c, 0, 67, 29
1, 58001, Control_c, 0, 67, 33
1, 58074, Control_c, 0, 67, 38
1, 58083, Note_on_c, 0, 67, 74
1, 58152, Note_on_c, 0, 67, 0
1, 58221, Control_c, 0, 64, 113
1, 58239, Control_c, 0, 64, 101
1, 58248, Note_on_c, 0, 65, 61
1, 58258, Control_c, 0, 64, 84
1, 58278, Control_c, 0, 64, 62
1, 58287, Poly_aftertouch_c, 0, 45, 24
1, 58294, Note_on_c, 0, 50, 41
1, 58294, Control_c, 0, 64, 0
1, 58313, Note_on_c, 0, 45, 0
1, 58313, Poly_aftertouch_c, 0, 45, 0
1, 58323, Note_on_c, 0, 49, 0
1, 58368, Control_c, 0, 67, 42
1, 58460, Control_c, 0, 64, 35
1, 58461, Control_c, 0, 67, 47
1, 58480, Control_c, 0, 64, 56
1, 58498, Control_c, 0, 64, 66
1, 58498, Control_c, 0, 67, 52
1, 58516, Control_c, 0, 64, 72
1, 58533, Control_c, 0, 64, 77
1, 58535, Control_c, 0, 67, 57
1, 58552, Control_c, 0, 64, 84
1, 58571, Control_c, 0, 64, 95
1, 58591, Control_c, 0, 64, 105
1, 58592, Control_c, 0, 67, 62
1, 58608, Control_c, 0, 64, 112
1, 58628, Control_c, 0, 64, 116
1, 58664, Control_c, 0, 67, 66
1, 58701, Control_c, 0, 64, 120
1, 58737, Control_c, 0, 67, 70
1, 58791, Control_c, 0, 67, 75
1, 58863, Control_c, 0, 67, 79
1, 59025, Note_on_c, 0, 76, 0
1, 59027, Control_c, 0, 67, 83
1, 59027, Note_on_c, 0, 74, 70
1, 59064, Control_c, 0, 64, 113
1, 59094, Note_on_c, 0, 74, 0
1, 59101, Control_c, 0, 64, 109
1, 59140, Control_c, 0, 64, 101
1, 59156, Control_c, 0, 64, 91
1, 59175, Control_c, 0, 64, 76
1, 59185, Note_on_c, 0, 69, 63
1, 59194, Control_c, 0, 64, 55
1, 59212, Control_c, 0, 64, 19
1, 59230, Control_c, 0, 64, 13
1, 59232, Note_on_c, 0, 53, 30
1, 59267, Control_c, 0, 64, 0
1, 59286, Control_c, 0, 67, 87
1, 59342, Control_c, 0, 64, 23
1, 59360, Control_c, 0, 64, 34
1, 59378, Control_c, 0, 64, 46
1, 59379, Control_c, 0, 67, 91
1, 59395, Control_c, 0, 64, 56
1, 59413, Control_c, 0, 64, 62
1, 59433, Control_c, 0, 64, 66
1, 59450, Control_c, 0, 64, 68
1, 59451, Control_c, 0, 67, 95
1, 59468, Control_c, 0, 64, 71
1, 59487, Control_c, 0, 64, 76
1, 59506, Control_c, 0, 64, 82
1, 59524, Control_c, 0, 64, 88
1, 59542, Control_c, 0, 64, 94
1, 59580, Control_c, 0, 64, 99
1, 59654, Control_c, 0, 64, 104
1, 59708, Control_c, 0, 64, 108
1, 59990, Note_on_c, 0, 72, 71
1, 60008, Note_on_c, 0, 69, 0
1, 60017, Control_c, 0, 64, 102
1, 60057, Control_c, 0, 64, 96
1, 60068, Note_on_c, 0, 72, 0
1, 60091, Control_c, 0, 64, 87
1, 60109, Control_c, 0, 64, 79
1, 60127, Control_c, 0, 64, 67
1, 60144, Note_on_c, 0, 70, 67
1, 60147, Control_c, 0, 64, 50
1, 60164, Control_c, 0, 64, 30
1, 60182, Control_c, 0, 64, 23
1, 60258, Control_c, 0, 64, 37
1, 60276, Control_c, 0, 64, 49
1, 60295, Control_c, 0, 64, 60
1, 60312, Control_c, 0, 64, 66
1, 60330, Control_c, 0, 64, 69
1, 60348, Control_c, 0, 64, 72
1, 60368, Control_c, 0, 64, 76
1, 60385, Control_c, 0, 64, 82
1, 60403, Control_c, 0, 64, 90
1, 60422, Control_c, 0, 64, 99
1, 60441, Control_c, 0, 64, 106
1, 60478, Control_c, 0, 64, 110
1, 60504, Note_on_c, 0, 65, 0
1, 60551, Control_c, 0, 64, 115
1, 60941, Note_on_c, 0, 65, 60
1, 60970, Note_on_c, 0, 53, 0
1, 60972, Note_on_c, 0, 57, 46
1, 61009, Control_c, 0, 64, 111
1, 61014, Note_on_c, 0, 65, 0
1, 61043, Note_on_c, 0, 57, 0
1, 61043, Control_c, 0, 64, 104
1, 61063, Control_c, 0, 64, 98
1, 61081, Control_c, 0, 64, 89
1, 61088, Note_on_c, 0, 64, 58
1, 61099, Control_c, 0, 64, 77
1, 61111, Note_on_c, 0, 55, 46
1, 61116, Control_c, 0, 64, 61
1, 61136, Control_c, 0, 64, 40
1, 61155, Control_c, 0, 64, 30
1, 61265, Control_c, 0, 64, 41
1, 61285, Control_c, 0, 64, 50
1, 61302, Control_c, 0, 64, 60
1, 61321, Control_c, 0, 64, 66
1, 61337, Control_c, 0, 64, 69
1, 61357, Control_c, 0, 64, 72
1, 61375, Control_c, 0, 64, 76
1, 61394, Control_c, 0, 64, 80
1, 61412, Control_c, 0, 64, 86
1, 61432, Control_c, 0, 64, 92
1, 61451, Control_c, 0, 64, 98
1, 61452, Control_c, 0, 67, 99
1, 61468, Control_c, 0, 64, 102
1, 61504, Control_c, 0, 64, 108
1, 61542, Control_c, 0, 64, 112
1, 61544, Control_c, 0, 67, 104
1, 61805, Note_on_c, 0, 67, 71
1, 61812, Note_on_c, 0, 64, 0
1, 61822, Note_on_c, 0, 53, 59
1, 61849, Note_on_c, 0, 55, 0
1, 61882, Note_on_c, 0, 67, 0
1, 61888, Control_c, 0, 64, 107
1, 61906, Note_on_c, 0, 53, 0
1, 61925, Control_c, 0, 64, 100
1, 61944, Control_c, 0, 64, 96
1, 61961, Control_c, 0, 64, 89
1, 61967, Note_on_c, 0, 61, 66
1, 61979, Control_c, 0, 64, 78
1, 61998, Control_c, 0, 64, 63
1, 62000, Note_on_c, 0, 52, 47
1, 62018, Control_c, 0, 64, 28
1, 62033, Control_c, 0, 64, 0
1, 62128, Control_c, 0, 64, 9
1, 62145, Control_c, 0, 64, 42
1, 62165, Control_c, 0, 64, 60
1, 62166, Control_c, 0, 67, 108
1, 62184, Control_c, 0, 64, 71
1, 62199, Control_c, 0, 64, 80
1, 62219, Control_c, 0, 64, 88
1, 62221, Control_c, 0, 67, 112
1, 62238, Control_c, 0, 64, 96
1, 62242, Note_on_c, 0, 70, 0
1, 62256, Control_c, 0, 64, 103
1, 62272, Control_c, 0, 64, 108
1, 62347, Control_c, 0, 64, 112
1, 62366, Control_c, 0, 67, 116
1, 62457, Control_c, 0, 64, 116
1, 62594, Note_on_c, 0, 70, 65
1, 62647, Note_on_c, 0, 70, 0
1, 62681, Note_on_c, 0, 69, 67
1, 62694, Control_c, 0, 64, 112
1, 62732, Control_c, 0, 64, 108
1, 62733, Note_on_c, 0, 69, 0
1, 62747, Note_on_c, 0, 70, 70
1, 62747, Control_c, 0, 64, 104
1, 62767, Control_c, 0, 64, 98
1, 62783, Note_on_c, 0, 70, 0
1, 62784, Control_c, 0, 64, 89
1, 62804, Control_c, 0, 64, 75
1, 62813, Note_on_c, 0, 69, 62
1, 62822, Control_c, 0, 64, 57
1, 62842, Control_c, 0, 64, 27
1, 62859, Note_on_c, 0, 53, 43
1, 62860, Control_c, 0, 64, 0
1, 62866, Note_on_c, 0, 52, 0
1, 63045, Control_c, 0, 64, 20
1, 63061, Control_c, 0, 64, 38
1, 63081, Control_c, 0, 64, 53
1, 63099, Control_c, 0, 64, 62
1, 63118, Control_c, 0, 64, 67
1, 63135, Control_c, 0, 64, 70
1, 63153, Control_c, 0, 64, 73
1, 63172, Control_c, 0, 64, 77
1, 63191, Control_c, 0, 64, 83
1, 63208, Control_c, 0, 64, 90
1, 63226, Control_c, 0, 64, 98
1, 63245, Control_c, 0, 64, 105
1, 63264, Control_c, 0, 64, 110
1, 63302, Control_c, 0, 64, 114
1, 63339, Control_c, 0, 64, 118
1, 63412, Note_on_c, 0, 69, 0
1, 63573, Note_on_c, 0, 67, 72
1, 63642, Note_on_c, 0, 67, 0
1, 63702, Control_c, 0, 64, 113
1, 63720, Control_c, 0, 64, 106
1, 63739, Control_c, 0, 64, 95
1, 63743, Note_on_c, 0, 76, 71
1, 63757, Control_c, 0, 64, 80
1, 63763, Note_on_c, 0, 53, 0
1, 63777, Control_c, 0, 64, 61
1, 63791, Note_on_c, 0, 55, 41
1, 63793, Control_c, 0, 64, 26
1, 63813, Control_c, 0, 64, 0
1, 63887, Control_c, 0, 64, 9
1, 63905, Control_c, 0, 64, 33
1, 63923, Control_c, 0, 64, 53
1, 63940, Control_c, 0, 64, 65
1, 63959, Control_c, 0, 64, 73
1, 63963, Poly_aftertouch_c, 0, 50, 24
1, 63978, Control_c, 0, 64, 81
1, 63997, Control_c, 0, 64, 90
1, 64003, Note_on_c, 0, 61, 0
1, 64016, Control_c, 0, 64, 101
1, 64034, Control_c, 0, 64, 111
1, 64054, Control_c, 0, 64, 117
1, 64089, Control_c, 0, 64, 122
1, 64143, Control_c, 0, 64, 127
1, 64217, Poly_aftertouch_c, 0, 50, 20
1, 64222, Note_on_c, 0, 76, 0
1, 64255, Note_on_c, 0, 55, 0
1, 64418, Note_on_c, 0, 67, 71
1, 64490, Note_on_c, 0, 67, 0
1, 64492, Poly_aftertouch_c, 0, 50, 22
1, 64557, Note_on_c, 0, 66, 67
1, 64617, Control_c, 0, 64, 117
1, 64617, Note_on_c, 0, 67, 73
1, 64619, Note_on_c, 0, 66, 0
1, 64637, Control_c, 0, 64, 105
1, 64655, Control_c, 0, 64, 90
1, 64674, Control_c, 0, 64, 73
1, 64690, Note_on_c, 0, 66, 67
1, 64693, Control_c, 0, 64, 52
1, 64702, Note_on_c, 0, 58, 44
1, 64710, Note_on_c, 0, 67, 0
1, 64710, Control_c, 0, 64, 0
1, 64800, Poly_aftertouch_c, 0, 50, 24
1, 64821, Control_c, 0, 64, 31
1, 64840, Control_c, 0, 64, 54
1, 64857, Control_c, 0, 64, 68
1, 64875, Control_c, 0, 64, 77
1, 64895, Control_c, 0, 64, 85
1, 64914, Control_c, 0, 64, 93
1, 64931, Control_c, 0, 64, 102
1, 64950, Control_c, 0, 64, 110
1, 64960, Note_on_c, 0, 50, 0
1, 64960, Poly_aftertouch_c, 0, 50, 0
1, 64967, Control_c, 0, 64, 116
1, 64986, Note_on_c, 0, 58, 0
1, 64988, Control_c, 0, 64, 120
1, 65022, Control_c, 0, 64, 125
1, 65291, Note_on_c, 0, 66, 0
1, 65468, Note_on_c, 0, 64, 73
1, 65534, Note_on_c, 0, 64, 0
1, 65626, Note_on_c, 0, 66, 76
1, 65651, Note_on_c, 0, 62, 64
1, 65665, Control_c, 0, 64, 121
1, 65683, Control_c, 0, 64, 112
1, 65689, Note_on_c, 0, 57, 53
1, 65696, Note_on_c, 0, 48, 50
1, 65703, Control_c, 0, 64, 102
1, 65719, Control_c, 0, 64, 89
1, 65738, Control_c, 0, 64, 73
1, 65756, Control_c, 0, 64, 53
1, 65776, Control_c, 0, 64, 11
1, 65791, Control_c, 0, 64, 0
1, 65957, Control_c, 0, 64, 11
1, 65977, Control_c, 0, 64, 44
1, 65997, Control_c, 0, 64, 61
1, 66012, Control_c, 0, 64, 71
1, 66031, Control_c, 0, 64, 77
1, 66049, Control_c, 0, 64, 83
1, 66069, Control_c, 0, 64, 90
1, 66087, Control_c, 0, 64, 99
1, 66106, Control_c, 0, 64, 107
1, 66124, Control_c, 0, 64, 113
1, 66162, Control_c, 0, 64, 118
1, 66235, Control_c, 0, 64, 122
1, 66251, Control_c, 0, 67, 112
1, 66308, Note_on_c, 0, 66, 0
1, 66399, Note_on_c, 0, 67, 80
1, 66484, Note_on_c, 0, 67, 0
1, 66486, Control_c, 0, 64, 117
1, 66525, Control_c, 0, 64, 106
1, 66544, Control_c, 0, 64, 94
1, 66553, Note_on_c, 0, 69, 78
1, 66561, Control_c, 0, 64, 77
1, 66580, Control_c, 0, 64, 57
1, 66601, Control_c, 0, 64, 0
1, 66691, Control_c, 0, 64, 13
1, 66709, Control_c, 0, 64, 49
1, 66727, Control_c, 0, 64, 68
1, 66745, Control_c, 0, 64, 79
1, 66765, Control_c, 0, 64, 88
1, 66783, Control_c, 0, 64, 98
1, 66784, Control_c, 0, 67, 107
1, 66801, Control_c, 0, 64, 106
1, 66802, Control_c, 0, 67, 97
1, 66820, Control_c, 0, 64, 112
1, 66820, Control_c, 0, 67, 81
1, 66839, Control_c, 0, 64, 117
1, 66840, Control_c, 0, 67, 57
1, 66858, Control_c, 0, 64, 121
1, 66860, Control_c, 0, 67, 33
1, 66874, Control_c, 0, 64, 125
1, 66875, Control_c, 0, 67, 17
1, 66893, Control_c, 0, 67, 11
1, 67297, Note_on_c, 0, 57, 0
1, 67317, Note_on_c, 0, 54, 65
1, 67360, Note_on_c, 0, 48, 0
1, 67376, Note_on_c, 0, 54, 0
1, 67423, Control_c, 0, 64, 117
1, 67441, Control_c, 0, 64, 106
1, 67460, Control_c, 0, 64, 89
1, 67466, Note_on_c, 0, 50, 67
1, 67467, Poly_aftertouch_c, 0, 62, 24
1, 67478, Control_c, 0, 64, 68
1, 67489, Note_on_c, 0, 46, 48
1, 67497, Control_c, 0, 64, 33
1, 67505, Note_on_c, 0, 62, 0
1, 67505, Poly_aftertouch_c, 0, 62, 0
1, 67506, Poly_aftertouch_c, 0, 62, 0
1, 67515, Control_c, 0, 64, 0
1, 67626, Control_c, 0, 64, 39
1, 67645, Control_c, 0, 64, 58
1, 67661, Control_c, 0, 64, 68
1, 67680, Control_c, 0, 64, 73
1, 67698, Control_c, 0, 64, 78
1, 67718, Control_c, 0, 64, 84
1, 67737, Control_c, 0, 64, 93
1, 67755, Control_c, 0, 64, 103
1, 67774, Control_c, 0, 64, 111
1, 67792, Control_c, 0, 64, 117
1, 67810, Control_c, 0, 64, 121
1, 67828, Control_c, 0, 64, 126
1, 68174, Note_on_c, 0, 62, 80
1, 68220, Poly_aftertouch_c, 0, 69, 24
1, 68254, Note_on_c, 0, 69, 0
1, 68254, Poly_aftertouch_c, 0, 69, 0
1, 68272, Note_on_c, 0, 62, 0
1, 68322, Control_c, 0, 64, 120
1, 68340, Control_c, 0, 64, 104
1, 68353, Note_on_c, 0, 67, 77
1, 68356, Control_c, 0, 64, 87
1, 68376, Control_c, 0, 64, 70
1, 68381, Note_on_c, 0, 58, 53
1, 68395, Control_c, 0, 64, 52
1, 68413, Control_c, 0, 64, 32
1, 68450, Control_c, 0, 64, 0
1, 68507, Control_c, 0, 64, 18
1, 68523, Control_c, 0, 64, 44
1, 68544, Control_c, 0, 64, 63
1, 68561, Control_c, 0, 64, 75
1, 68561, Control_c, 0, 67, 0
1, 68570, Poly_aftertouch_c, 0, 46, 24
1, 68579, Control_c, 0, 64, 85
1, 68598, Control_c, 0, 64, 96
1, 68615, Control_c, 0, 64, 107
1, 68634, Control_c, 0, 64, 116
1, 68653, Control_c, 0, 64, 123
1, 68671, Control_c, 0, 64, 127
1, 68765, Note_on_c, 0, 46, 0
1, 68765, Poly_aftertouch_c, 0, 46, 0
1, 68766, Poly_aftertouch_c, 0, 46, 0
1, 68791, Poly_aftertouch_c, 0, 50, 24
1, 68821, Note_on_c, 0, 50, 0
1, 68821, Poly_aftertouch_c, 0, 50, 0
1, 69105, Note_on_c, 0, 70, 78
1, 69150, Note_on_c, 0, 58, 0
1, 69200, Note_on_c, 0, 70, 0
1, 69283, Note_on_c, 0, 72, 77
1, 69310, Control_c, 0, 64, 114
1, 69329, Control_c, 0, 64, 101
1, 69339, Note_on_c, 0, 45, 40
1, 69346, Control_c, 0, 64, 88
1, 69354, Note_on_c, 0, 51, 38
1, 69367, Control_c, 0, 64, 72
1, 69385, Control_c, 0, 64, 53
1, 69404, Control_c, 0, 64, 0
1, 69514, Control_c, 0, 64, 18
1, 69531, Control_c, 0, 64, 40
1, 69550, Control_c, 0, 64, 58
1, 69570, Control_c, 0, 64, 67
1, 69587, Control_c, 0, 64, 73
1, 69590, Note_on_c, 0, 67, 0
1, 69606, Control_c, 0, 64, 79
1, 69627, Control_c, 0, 64, 86
1, 69643, Control_c, 0, 64, 96
1, 69661, Control_c, 0, 64, 106
1, 69679, Control_c, 0, 64, 113
1, 69716, Control_c, 0, 64, 120
1, 69752, Control_c, 0, 64, 124
1, 70036, Note_on_c, 0, 67, 67
1, 70120, Note_on_c, 0, 67, 0
1, 70172, Control_c, 0, 64, 117
1, 70191, Control_c, 0, 64, 110
1, 70206, Note_on_c, 0, 66, 66
1, 70210, Control_c, 0, 64, 98
1, 70227, Control_c, 0, 64, 83
1, 70243, Note_on_c, 0, 48, 36
1, 70244, Control_c, 0, 64, 65
1, 70252, Note_on_c, 0, 51, 0
1, 70265, Control_c, 0, 64, 28
1, 70284, Control_c, 0, 64, 0
1, 70376, Control_c, 0, 64, 36
1, 70392, Control_c, 0, 64, 56
1, 70412, Control_c, 0, 64, 68
1, 70430, Control_c, 0, 64, 77
1, 70449, Control_c, 0, 64, 86
1, 70466, Control_c, 0, 64, 99
1, 70484, Control_c, 0, 64, 112
1, 70504, Control_c, 0, 64, 121
1, 70521, Control_c, 0, 64, 126
1, 70658, Note_on_c, 0, 66, 0
1, 70680, Note_on_c, 0, 48, 0
1, 70955, Note_on_c, 0, 64, 69
1, 71011, Note_on_c, 0, 64, 0
1, 71130, Note_on_c, 0, 66, 72
1, 71145, Control_c, 0, 64, 116
1, 71163, Control_c, 0, 64, 100
1, 71174, Note_on_c, 0, 50, 41
1, 71179, Control_c, 0, 64, 82
1, 71200, Control_c, 0, 64, 62
1, 71217, Control_c, 0, 64, 23
1, 71237, Control_c, 0, 64, 0
1, 71279, Note_on_c, 0, 45, 0
1, 71331, Note_on_c, 0, 72, 0
1, 71346, Control_c, 0, 64, 38
1, 71366, Control_c, 0, 64, 58
1, 71383, Control_c, 0, 64, 71
1, 71401, Control_c, 0, 64, 79
1, 71419, Control_c, 0, 64, 88
1, 71438, Control_c, 0, 64, 100
1, 71456, Control_c, 0, 64, 114
1, 71475, Control_c, 0, 64, 127
1, 71875, Note_on_c, 0, 74, 71
1, 71955, Note_on_c, 0, 74, 0
1, 72053, Note_on_c, 0, 69, 73
1, 72080, Control_c, 0, 64, 120
1, 72099, Note_on_c, 0, 38, 42
1, 72099, Control_c, 0, 64, 104
1, 72114, Control_c, 0, 64, 85
1, 72134, Control_c, 0, 64, 66
1, 72153, Control_c, 0, 64, 33
1, 72171, Control_c, 0, 64, 0
1, 72281, Control_c, 0, 64, 37
1, 72301, Control_c, 0, 64, 58
1, 72319, Control_c, 0, 64, 69
1, 72336, Control_c, 0, 64, 77
1, 72355, Control_c, 0, 64, 86
1, 72373, Control_c, 0, 64, 97
1, 72392, Control_c, 0, 64, 108
1, 72410, Control_c, 0, 64, 118
1, 72429, Control_c, 0, 64, 125
1, 72815, Note_on_c, 0, 72, 72
1, 72856, Note_on_c, 0, 69, 0
1, 72906, Note_on_c, 0, 72, 0
1, 72995, Control_c, 0, 64, 118
1, 72995, Note_on_c, 0, 70, 70
1, 73015, Control_c, 0, 64, 103
1, 73033, Control_c, 0, 64, 86
1, 73036, Note_on_c, 0, 38, 0
1, 73040, Note_on_c, 0, 43, 41
1, 73050, Control_c, 0, 64, 67
1, 73069, Control_c, 0, 64, 44
1, 73088, Control_c, 0, 64, 0
1, 73181, Note_on_c, 0, 66, 0
1, 73199, Control_c, 0, 64, 31
1, 73216, Control_c, 0, 64, 50
1, 73235, Control_c, 0, 64, 62
1, 73254, Control_c, 0, 64, 70
1, 73270, Control_c, 0, 64, 76
1, 73289, Control_c, 0, 64, 83
1, 73309, Control_c, 0, 64, 94
1, 73327, Control_c, 0, 64, 107
1, 73335, Note_on_c, 0, 50, 0
1, 73343, Control_c, 0, 64, 119
1, 73365, Control_c, 0, 64, 127
1, 73748, Note_on_c, 0, 67, 69
1, 73829, Note_on_c, 0, 67, 0
1, 73928, Note_on_c, 0, 62, 68
1, 73949, Control_c, 0, 64, 113
1, 73963, Note_on_c, 0, 46, 46
1, 73968, Control_c, 0, 64, 97
1, 73985, Control_c, 0, 64, 80
1, 74003, Control_c, 0, 64, 64
1, 74022, Control_c, 0, 64, 45
1, 74041, Control_c, 0, 64, 25
1, 74076, Control_c, 0, 64, 0
1, 74133, Control_c, 0, 64, 28
1, 74150, Control_c, 0, 64, 48
1, 74169, Control_c, 0, 64, 64
1, 74189, Control_c, 0, 64, 73
1, 74206, Control_c, 0, 64, 81
1, 74224, Control_c, 0, 64, 89
1, 74242, Control_c, 0, 64, 99
1, 74262, Control_c, 0, 64, 109
1, 74279, Control_c, 0, 64, 120
1, 74297, Control_c, 0, 64, 127
1, 74351, Note_on_c, 0, 62, 0
1, 74605, Note_on_c, 0, 46, 0
1, 74659, Note_on_c, 0, 65, 72
1, 74689, Note_on_c, 0, 50, 47
1, 74723, Note_on_c, 0, 65, 0
1, 74788, Note_on_c, 0, 50, 0
1, 74831, Note_on_c, 0, 63, 70
1, 74843, Note_on_c, 0, 43, 0
1, 74848, Control_c, 0, 64, 115
1, 74865, Control_c, 0, 64, 100
1, 74877, Note_on_c, 0, 55, 48
1, 74883, Control_c, 0, 64, 82
1, 74903, Control_c, 0, 64, 61
1, 74921, Control_c, 0, 64, 31
1, 74937, Control_c, 0, 64, 0
1, 74983, Note_on_c, 0, 70, 0
1, 75068, Control_c, 0, 64, 37
1, 75086, Control_c, 0, 64, 58
1, 75105, Control_c, 0, 64, 68
1, 75124, Control_c, 0, 64, 75
1, 75141, Control_c, 0, 64, 83
1, 75159, Control_c, 0, 64, 95
1, 75177, Control_c, 0, 64, 109
1, 75197, Control_c, 0, 64, 121
1, 75215, Control_c, 0, 64, 127
1, 75568, Note_on_c, 0, 70, 79
1, 75646, Note_on_c, 0, 70, 0
1, 75739, Note_on_c, 0, 75, 72
1, 75744, Control_c, 0, 64, 123
1, 75763, Control_c, 0, 64, 109
1, 75782, Control_c, 0, 64, 91
1, 75800, Control_c, 0, 64, 72
1, 75808, Note_on_c, 0, 58, 38
1, 75819, Control_c, 0, 64, 52
1, 75838, Control_c, 0, 64, 19
1, 75855, Control_c, 0, 64, 0
1, 75877, Note_on_c, 0, 63, 0
1, 75927, Control_c, 0, 64, 18
1, 75947, Control_c, 0, 64, 50
1, 75964, Control_c, 0, 64, 69
1, 75984, Control_c, 0, 64, 82
1, 76002, Control_c, 0, 64, 97
1, 76021, Control_c, 0, 64, 114
1, 76039, Control_c, 0, 64, 127
1, 76150, Note_on_c, 0, 58, 0
1, 76436, Note_on_c, 0, 79, 73
1, 76471, Note_on_c, 0, 75, 0
1, 76505, Note_on_c, 0, 79, 0
1, 76598, Note_on_c, 0, 68, 73
1, 76661, Control_c, 0, 64, 112
1, 76676, Note_on_c, 0, 60, 46
1, 76679, Control_c, 0, 64, 97
1, 76698, Control_c, 0, 64, 79
1, 76717, Control_c, 0, 64, 61
1, 76735, Control_c, 0, 64, 42
1, 76755, Control_c, 0, 64, 0
1, 76862, Control_c, 0, 64, 23
1, 76882, Control_c, 0, 64, 53
1, 76899, Control_c, 0, 64, 69
1, 76920, Control_c, 0, 64, 79
1, 76937, Control_c, 0, 64, 91
1, 76955, Control_c, 0, 64, 106
1, 76975, Control_c, 0, 64, 121
1, 76993, Control_c, 0, 64, 127
1, 76995, Note_on_c, 0, 55, 0
1, 77346, Note_on_c, 0, 62, 78
1, 77369, Note_on_c, 0, 53, 58
1, 77376, Note_on_c, 0, 60, 0
1, 77427, Note_on_c, 0, 62, 0
1, 77453, Control_c, 0, 64, 120
1, 77461, Note_on_c, 0, 53, 0
1, 77472, Control_c, 0, 64, 110
1, 77488, Control_c, 0, 64, 99
1, 77497, Note_on_c, 0, 63, 75
1, 77508, Control_c, 0, 64, 87
1, 77522, Note_on_c, 0, 48, 55
1, 77526, Control_c, 0, 64, 73
1, 77544, Control_c, 0, 64, 58
1, 77577, Control_c, 0, 64, 35
1, 77595, Control_c, 0, 64, 0
1, 77707, Control_c, 0, 64, 35
1, 77725, Control_c, 0, 64, 56
1, 77744, Control_c, 0, 64, 67
1, 77761, Control_c, 0, 64, 74
1, 77780, Control_c, 0, 64, 81
1, 77797, Control_c, 0, 64, 90
1, 77817, Control_c, 0, 64, 101
1, 77835, Control_c, 0, 64, 112
1, 77854, Control_c, 0, 64, 119
1, 77892, Control_c, 0, 64, 124
1, 78215, Note_on_c, 0, 63, 0
1, 78225, Note_on_c, 0, 60, 74
1, 78252, Note_on_c, 0, 51, 59
1, 78277, Note_on_c, 0, 48, 0
1, 78309, Note_on_c, 0, 60, 0
1, 78364, Note_on_c, 0, 51, 0
1, 78368, Note_on_c, 0, 65, 70
1, 78407, Control_c, 0, 64, 116
1, 78416, Note_on_c, 0, 50, 63
1, 78422, Control_c, 0, 64, 102
1, 78435, Note_on_c, 0, 63, 75
1, 78439, Note_on_c, 0, 65, 0
1, 78442, Control_c, 0, 64, 85
1, 78462, Control_c, 0, 64, 66
1, 78479, Control_c, 0, 64, 40
1, 78480, Note_on_c, 0, 63, 0
1, 78512, Control_c, 0, 64, 25
1, 78514, Note_on_c, 0, 65, 67
1, 78531, Control_c, 0, 64, 9
1, 78549, Control_c, 0, 64, 0
1, 78733, Control_c, 0, 64, 27
1, 78751, Control_c, 0, 64, 50
1, 78769, Control_c, 0, 64, 63
1, 78788, Control_c, 0, 64, 70
1, 78807, Control_c, 0, 64, 75
1, 78826, Control_c, 0, 64, 81
1, 78844, Control_c, 0, 64, 90
1, 78863, Control_c, 0, 64, 99
1, 78882, Control_c, 0, 64, 108
1, 78899, Control_c, 0, 64, 112
1, 78989, Control_c, 0, 64, 117
1, 79065, Control_c, 0, 64, 122
1, 79264, Note_on_c, 0, 50, 0
1, 79266, Note_on_c, 0, 46, 74
1, 79328, Note_on_c, 0, 46, 0
1, 79358, Control_c, 0, 64, 115
1, 79377, Control_c, 0, 64, 108
1, 79398, Control_c, 0, 64, 96
1, 79409, Note_on_c, 0, 41, 74
1, 79412, Control_c, 0, 64, 81
1, 79447, Control_c, 0, 64, 63
1, 79466, Control_c, 0, 64, 34
1, 79484, Control_c, 0, 64, 0
1, 79594, Control_c, 0, 64, 42
1, 79613, Control_c, 0, 64, 63
1, 79632, Control_c, 0, 64, 74
1, 79650, Control_c, 0, 64, 82
1, 79667, Control_c, 0, 64, 91
1, 79686, Control_c, 0, 64, 102
1, 79704, Control_c, 0, 64, 112
1, 79724, Control_c, 0, 64, 120
1, 79741, Control_c, 0, 64, 125
1, 79747, Note_on_c, 0, 65, 0
1, 79795, Note_on_c, 0, 41, 0
1, 80160, Note_on_c, 0, 65, 76
1, 80171, Note_on_c, 0, 44, 72
1, 80246, Note_on_c, 0, 44, 0
1, 80284, Note_on_c, 0, 65, 0
1, 80317, Note_on_c, 0, 58, 75
1, 80331, Control_c, 0, 64, 116
1, 80334, Note_on_c, 0, 43, 72
1, 80348, Control_c, 0, 64, 101
1, 80381, Control_c, 0, 64, 82
1, 80399, Control_c, 0, 64, 62
1, 80419, Control_c, 0, 64, 26
1, 80437, Control_c, 0, 64, 0
1, 80620, Control_c, 0, 64, 33
1, 80640, Control_c, 0, 64, 54
1, 80657, Control_c, 0, 64, 66
1, 80677, Control_c, 0, 64, 74
1, 80695, Control_c, 0, 64, 80
1, 80713, Note_on_c, 0, 68, 0
1, 80714, Control_c, 0, 64, 87
1, 80733, Control_c, 0, 64, 95
1, 80752, Control_c, 0, 64, 103
1, 80769, Control_c, 0, 64, 113
1, 80787, Control_c, 0, 64, 121
1, 80807, Control_c, 0, 64, 125
1, 81062, Note_on_c, 0, 62, 75
1, 81158, Note_on_c, 0, 62, 0
1, 81193, Control_c, 0, 64, 116
1, 81208, Note_on_c, 0, 65, 74
1, 81211, Control_c, 0, 64, 106
1, 81228, Control_c, 0, 64, 91
1, 81243, Note_on_c, 0, 46, 63
1, 81246, Control_c, 0, 64, 74
1, 81265, Control_c, 0, 64, 52
1, 81284, Control_c, 0, 64, 0
1, 81463, Control_c, 0, 64, 39
1, 81483, Control_c, 0, 64, 59
1, 81501, Control_c, 0, 64, 69
1, 81520, Control_c, 0, 64, 76
1, 81537, Control_c, 0, 64, 83
1, 81555, Control_c, 0, 64, 91
1, 81575, Control_c, 0, 64, 99
1, 81592, Control_c, 0, 64, 106
1, 81612, Control_c, 0, 64, 110
1, 81630, Control_c, 0, 64, 114
1, 81650, Control_c, 0, 64, 120
1, 81668, Control_c, 0, 64, 126
1, 81958, Note_on_c, 0, 68, 79
1, 81996, Note_on_c, 0, 46, 0
1, 81997, Note_on_c, 0, 65, 0
1, 82061, Note_on_c, 0, 68, 0
1, 82090, Control_c, 0, 64, 122
1, 82107, Note_on_c, 0, 67, 78
1, 82109, Control_c, 0, 64, 108
1, 82128, Control_c, 0, 64, 90
1, 82138, Note_on_c, 0, 51, 58
1, 82146, Control_c, 0, 64, 69
1, 82162, Control_c, 0, 64, 25
1, 82181, Control_c, 0, 64, 0
1, 82325, Control_c, 0, 64, 34
1, 82345, Control_c, 0, 64, 60
1, 82350, Note_on_c, 0, 58, 0
1, 82363, Control_c, 0, 64, 72
1, 82382, Control_c, 0, 64, 81
1, 82398, Control_c, 0, 64, 88
1, 82418, Control_c, 0, 64, 96
1, 82437, Control_c, 0, 64, 104
1, 82455, Control_c, 0, 64, 112
1, 82471, Control_c, 0, 64, 118
1, 82490, Control_c, 0, 64, 123
1, 82528, Control_c, 0, 64, 127
1, 82852, Note_on_c, 0, 58, 77
1, 82922, Note_on_c, 0, 58, 0
1, 82932, Control_c, 0, 64, 120
1, 82951, Control_c, 0, 64, 111
1, 82969, Control_c, 0, 64, 98
1, 82987, Control_c, 0, 64, 83
1, 83002, Note_on_c, 0, 63, 69
1, 83006, Control_c, 0, 64, 67
1, 83025, Control_c, 0, 64, 38
1, 83031, Note_on_c, 0, 51, 0
1, 83043, Control_c, 0, 64, 0
1, 83052, Note_on_c, 0, 55, 55
1, 83156, Control_c, 0, 64, 13
1, 83186, Control_c, 0, 64, 48
1, 83205, Control_c, 0, 64, 64
1, 83223, Control_c, 0, 64, 74
1, 83242, Control_c, 0, 64, 82
1, 83255, Poly_aftertouch_c, 0, 67, 24
1, 83259, Control_c, 0, 64, 91
1, 83277, Control_c, 0, 64, 100
1, 83297, Control_c, 0, 64, 107
1, 83315, Control_c, 0, 64, 112
1, 83317, Note_on_c, 0, 67, 0
1, 83317, Poly_aftertouch_c, 0, 67, 0
1, 83333, Control_c, 0, 64, 116
1, 83348, Note_on_c, 0, 55, 0
1, 83353, Control_c, 0, 64, 121
1, 83371, Control_c, 0, 64, 125
1, 83669, Poly_aftertouch_c, 0, 43, 24
1, 83713, Note_on_c, 0, 43, 0
1, 83713, Poly_aftertouch_c, 0, 43, 0
1, 83825, Note_on_c, 0, 67, 64
1, 83888, Note_on_c, 0, 67, 0
1, 83979, Control_c, 0, 64, 114
1, 83986, Note_on_c, 0, 65, 66
1, 83997, Control_c, 0, 64, 98
1, 84014, Note_on_c, 0, 45, 42
1, 84015, Control_c, 0, 64, 79
1, 84029, Note_on_c, 0, 48, 34
1, 84032, Control_c, 0, 64, 57
1, 84051, Control_c, 0, 64, 0
1, 84187, Note_on_c, 0, 63, 0
1, 84195, Control_c, 0, 64, 13
1, 84214, Control_c, 0, 64, 43
1, 84232, Control_c, 0, 64, 58
1, 84252, Control_c, 0, 64, 66
1, 84269, Control_c, 0, 64, 69
1, 84287, Control_c, 0, 64, 72
1, 84305, Control_c, 0, 64, 76
1, 84325, Control_c, 0, 64, 81
1, 84343, Control_c, 0, 64, 86
1, 84360, Control_c, 0, 64, 91
1, 84379, Control_c, 0, 64, 97
1, 84398, Control_c, 0, 64, 102
1, 84416, Control_c, 0, 64, 106
1, 84453, Control_c, 0, 64, 113
1, 84822, Note_on_c, 0, 63, 58
1, 84889, Note_on_c, 0, 63, 0
1, 84894, Control_c, 0, 64, 109
1, 84913, Control_c, 0, 64, 102
1, 84932, Control_c, 0, 64, 90
1, 84951, Control_c, 0, 64, 76
1, 84968, Control_c, 0, 64, 59
1, 84974, Note_on_c, 0, 62, 53
1, 84986, Control_c, 0, 64, 0
1, 85112, Control_c, 0, 64, 23
1, 85131, Control_c, 0, 64, 49
1, 85148, Control_c, 0, 64, 64
1, 85168, Control_c, 0, 64, 72
1, 85186, Control_c, 0, 64, 78
1, 85205, Control_c, 0, 64, 83
1, 85221, Control_c, 0, 64, 90
1, 85241, Control_c, 0, 64, 98
1, 85261, Control_c, 0, 64, 106
1, 85278, Control_c, 0, 64, 115
1, 85295, Control_c, 0, 64, 121
1, 85332, Control_c, 0, 64, 127
1, 85718, Note_on_c, 0, 62, 0
1, 85719, Poly_aftertouch_c, 0, 62, 0
1, 85761, Note_on_c, 0, 60, 58
1, 85825, Note_on_c, 0, 60, 0
1, 85921, Control_c, 0, 64, 123
1, 85928, Note_on_c, 0, 62, 58
1, 85939, Control_c, 0, 64, 110
1, 85951, Note_on_c, 0, 55, 36
1, 85952, Note_on_c, 0, 48, 0
1, 85957, Note_on_c, 0, 45, 0
1, 85959, Control_c, 0, 64, 93
1, 85963, Note_on_c, 0, 47, 40
1, 85991, Control_c, 0, 64, 73
1, 86009, Control_c, 0, 64, 46
1, 86028, Control_c, 0, 64, 0
1, 86140, Control_c, 0, 64, 31
1, 86157, Control_c, 0, 64, 53
1, 86175, Control_c, 0, 64, 65
1, 86196, Control_c, 0, 64, 71
1, 86213, Control_c, 0, 64, 74
1, 86230, Control_c, 0, 64, 77
1, 86248, Control_c, 0, 64, 82
1, 86268, Control_c, 0, 64, 89
1, 86286, Control_c, 0, 64, 97
1, 86304, Control_c, 0, 64, 104
1, 86324, Control_c, 0, 64, 110
1, 86342, Control_c, 0, 64, 115
1, 86387, Note_on_c, 0, 65, 0
1, 86398, Control_c, 0, 64, 120
1, 86399, Control_c, 0, 67, 8
1, 86433, Control_c, 0, 64, 124
1, 86450, Control_c, 0, 67, 14
1, 86737, Note_on_c, 0, 65, 57
1, 86781, Control_c, 0, 64, 120
1, 86791, Note_on_c, 0, 65, 0
1, 86818, Control_c, 0, 64, 115
1, 86838, Control_c, 0, 64, 111
1, 86856, Control_c, 0, 64, 103
1, 86875, Control_c, 0, 64, 91
1, 86894, Control_c, 0, 64, 75
1, 86900, Note_on_c, 0, 67, 58
1, 86925, Control_c, 0, 64, 54
1, 86945, Control_c, 0, 64, 0
1, 87038, Control_c, 0, 64, 23
1, 87056, Control_c, 0, 64, 42
1, 87076, Control_c, 0, 64, 58
1, 87091, Control_c, 0, 64, 67
1, 87111, Control_c, 0, 64, 72
1, 87129, Control_c, 0, 64, 77
1, 87148, Control_c, 0, 64, 81
1, 87164, Control_c, 0, 64, 88
1, 87167, Control_c, 0, 67, 18
1, 87168, Note_on_c, 0, 62, 0
1, 87183, Control_c, 0, 64, 96
1, 87202, Control_c, 0, 64, 104
1, 87221, Control_c, 0, 64, 110
1, 87222, Control_c, 0, 67, 23
1, 87239, Control_c, 0, 64, 114
1, 87277, Control_c, 0, 64, 119
1, 87277, Control_c, 0, 67, 27
1, 87312, Control_c, 0, 67, 32
1, 87350, Control_c, 0, 64, 125
1, 87351, Control_c, 0, 67, 37
1, 87404, Control_c, 0, 67, 41
1, 87515, Control_c, 0, 67, 45
1, 87689, Note_on_c, 0, 62, 54
1, 87694, Note_on_c, 0, 67, 0
1, 87753, Control_c, 0, 64, 120
1, 87790, Note_on_c, 0, 47, 0
1, 87792, Control_c, 0, 64, 111
1, 87809, Control_c, 0, 64, 104
1, 87828, Control_c, 0, 64, 97
1, 87860, Note_on_c, 0, 63, 61
1, 87860, Control_c, 0, 64, 91
1, 87879, Control_c, 0, 64, 82
1, 87889, Note_on_c, 0, 48, 32
1, 87896, Control_c, 0, 64, 70
1, 87916, Control_c, 0, 64, 52
1, 87935, Control_c, 0, 64, 0
1, 87989, Control_c, 0, 67, 49
1, 88064, Control_c, 0, 64, 19
1, 88083, Control_c, 0, 64, 39
1, 88100, Control_c, 0, 64, 55
1, 88118, Control_c, 0, 64, 64
1, 88137, Control_c, 0, 64, 69
1, 88156, Control_c, 0, 64, 72
1, 88173, Control_c, 0, 64, 75
1, 88192, Control_c, 0, 64, 79
1, 88196, Poly_aftertouch_c, 0, 62, 24
1, 88210, Control_c, 0, 64, 83
1, 88229, Control_c, 0, 64, 88
1, 88235, Note_on_c, 0, 62, 0
1, 88235, Poly_aftertouch_c, 0, 62, 0
1, 88246, Control_c, 0, 64, 94
1, 88266, Control_c, 0, 64, 99
1, 88304, Control_c, 0, 64, 106
1, 88376, Control_c, 0, 64, 110
1, 88624, Note_on_c, 0, 59, 61
1, 88632, Control_c, 0, 64, 106
1, 88670, Control_c, 0, 64, 100
1, 88680, Note_on_c, 0, 59, 0
1, 88687, Control_c, 0, 64, 92
1, 88708, Control_c, 0, 64, 81
1, 88727, Control_c, 0, 64, 69
1, 88744, Control_c, 0, 64, 52
1, 88763, Control_c, 0, 64, 25
1, 88781, Control_c, 0, 64, 0
1, 88795, Note_on_c, 0, 60, 57
1, 88814, Control_c, 0, 67, 53
1, 88870, Control_c, 0, 64, 25
1, 88870, Control_c, 0, 67, 58
1, 88888, Control_c, 0, 64, 43
1, 88906, Control_c, 0, 64, 59
1, 88925, Control_c, 0, 64, 69
1, 88944, Control_c, 0, 64, 74
1, 88945, Control_c, 0, 67, 63
1, 88963, Control_c, 0, 64, 79
1, 88971, Poly_aftertouch_c, 0, 55, 24
1, 88981, Control_c, 0, 64, 83
1, 89001, Control_c, 0, 64, 88
1, 89004, Control_c, 0, 67, 68
1, 89015, Note_on_c, 0, 55, 0
1, 89015, Poly_aftertouch_c, 0, 55, 0
1, 89018, Control_c, 0, 64, 94
1, 89036, Control_c, 0, 64, 99
1, 89055, Control_c, 0, 64, 105
1, 89073, Control_c, 0, 64, 109
1, 89129, Control_c, 0, 64, 113
1, 89167, Control_c, 0, 64, 117
1, 89274, Control_c, 0, 64, 121
1, 89530, Note_on_c, 0, 55, 45
1, 89568, Control_c, 0, 64, 115
1, 89589, Control_c, 0, 64, 109
1, 89595, Note_on_c, 0, 55, 0
1, 89606, Control_c, 0, 64, 96
1, 89625, Control_c, 0, 64, 79
1, 89643, Control_c, 0, 64, 56
1, 89662, Control_c, 0, 64, 0
1, 89690, Note_on_c, 0, 51, 58
1, 89751, Control_c, 0, 64, 9
1, 89768, Control_c, 0, 64, 41
1, 89786, Control_c, 0, 64, 61
1, 89807, Control_c, 0, 64, 73
1, 89811, Note_on_c, 0, 60, 0
1, 89823, Control_c, 0, 64, 82
1, 89841, Control_c, 0, 64, 91
1, 89861, Control_c, 0, 64, 101
1, 89878, Control_c, 0, 64, 109
1, 89898, Control_c, 0, 64, 114
1, 89932, Note_on_c, 0, 63, 0
1, 89933, Control_c, 0, 64, 119
1, 89988, Control_c, 0, 64, 125
1, 90127, Note_on_c, 0, 48, 0
1, 90427, Note_on_c, 0, 75, 69
1, 90442, Note_on_c, 0, 51, 0
1, 90467, Note_on_c, 0, 55, 35
1, 90513, Note_on_c, 0, 75, 0
1, 90521, Control_c, 0, 64, 119
1, 90524, Note_on_c, 0, 55, 0
1, 90541, Control_c, 0, 64, 112
1, 90558, Control_c, 0, 64, 104
1, 90578, Control_c, 0, 64, 94
1, 90583, Note_on_c, 0, 69, 70
1, 90596, Control_c, 0, 64, 80
1, 90615, Control_c, 0, 64, 65
1, 90623, Note_on_c, 0, 48, 39
1, 90634, Control_c, 0, 64, 36
1, 90653, Control_c, 0, 64, 0
1, 90741, Control_c, 0, 64, 11
1, 90757, Control_c, 0, 64, 39
1, 90776, Control_c, 0, 64, 58
1, 90794, Control_c, 0, 64, 69
1, 90813, Control_c, 0, 64, 76
1, 90834, Control_c, 0, 64, 82
1, 90850, Control_c, 0, 64, 87
1, 90869, Control_c, 0, 64, 94
1, 90888, Control_c, 0, 64, 101
1, 90906, Control_c, 0, 64, 109
1, 90907, Control_c, 0, 67, 64
1, 90924, Control_c, 0, 64, 117
1, 90942, Control_c, 0, 64, 121
1, 90945, Control_c, 0, 67, 58
1, 90981, Control_c, 0, 64, 127
1, 90982, Control_c, 0, 67, 51
1, 90998, Control_c, 0, 67, 47
1, 91016, Control_c, 0, 67, 42
1, 91036, Control_c, 0, 67, 36
1, 91052, Control_c, 0, 67, 32
1, 91071, Control_c, 0, 67, 26
1, 91090, Control_c, 0, 67, 19
1, 91109, Control_c, 0, 67, 14
1, 91287, Note_on_c, 0, 69, 0
1, 91348, Note_on_c, 0, 72, 72
1, 91390, Note_on_c, 0, 51, 47
1, 91422, Note_on_c, 0, 72, 0
1, 91440, Note_on_c, 0, 51, 0
1, 91458, Control_c, 0, 64, 121
1, 91476, Control_c, 0, 64, 112
1, 91494, Control_c, 0, 64, 101
1, 91500, Note_on_c, 0, 66, 72
1, 91513, Control_c, 0, 64, 87
1, 91531, Control_c, 0, 64, 70
1, 91551, Control_c, 0, 64, 46
1, 91567, Note_on_c, 0, 50, 40
1, 91568, Control_c, 0, 64, 0
1, 91693, Control_c, 0, 64, 38
1, 91711, Control_c, 0, 64, 59
1, 91730, Control_c, 0, 64, 70
1, 91749, Control_c, 0, 64, 78
1, 91768, Control_c, 0, 64, 87
1, 91770, Control_c, 0, 67, 10
1, 91786, Control_c, 0, 64, 97
1, 91804, Control_c, 0, 64, 108
1, 91823, Control_c, 0, 64, 118
1, 91841, Control_c, 0, 64, 126
1, 91859, Control_c, 0, 67, 0
1, 92210, Note_on_c, 0, 66, 0
1, 92241, Note_on_c, 0, 62, 78
1, 92264, Note_on_c, 0, 54, 49
1, 92272, Poly_aftertouch_c, 0, 48, 24
1, 92312, Note_on_c, 0, 62, 0
1, 92330, Note_on_c, 0, 54, 0
1, 92340, Note_on_c, 0, 50, 0
1, 92372, Control_c, 0, 64, 116
1, 92392, Control_c, 0, 64, 99
1, 92395, Note_on_c, 0, 66, 73
1, 92410, Control_c, 0, 64, 78
1, 92429, Control_c, 0, 64, 52
1, 92447, Control_c, 0, 64, 0
1, 92470, Note_on_c, 0, 57, 38
1, 92524, Poly_aftertouch_c, 0, 48, 32
1, 92573, Control_c, 0, 64, 42
1, 92591, Control_c, 0, 64, 62
1, 92610, Control_c, 0, 64, 74
1, 92627, Control_c, 0, 64, 84
1, 92647, Control_c, 0, 64, 96
1, 92665, Control_c, 0, 64, 107
1, 92683, Control_c, 0, 64, 117
1, 92700, Note_on_c, 0, 48, 0
1, 92700, Poly_aftertouch_c, 0, 48, 0
1, 92701, Control_c, 0, 64, 123
1, 92740, Control_c, 0, 64, 127
1, 93131, Note_on_c, 0, 69, 80
1, 93146, Note_on_c, 0, 66, 0
1, 93166, Note_on_c, 0, 48, 46
1, 93227, Note_on_c, 0, 69, 0
1, 93252, Note_on_c, 0, 48, 0
1, 93291, Control_c, 0, 64, 116
1, 93306, Note_on_c, 0, 74, 79
1, 93307, Control_c, 0, 64, 108
1, 93326, Control_c, 0, 64, 98
1, 93345, Control_c, 0, 64, 83
1, 93347, Note_on_c, 0, 46, 45
1, 93364, Control_c, 0, 64, 63
1, 93383, Control_c, 0, 64, 0
1, 93526, Control_c, 0, 64, 19
1, 93545, Control_c, 0, 64, 45
1, 93562, Control_c, 0, 64, 61
1, 93581, Control_c, 0, 64, 69
1, 93599, Control_c, 0, 64, 74
1, 93618, Control_c, 0, 64, 78
1, 93637, Control_c, 0, 64, 83
1, 93655, Control_c, 0, 64, 90
1, 93674, Control_c, 0, 64, 99
1, 93692, Control_c, 0, 64, 109
1, 93710, Control_c, 0, 64, 116
1, 93728, Control_c, 0, 64, 120
1, 93783, Control_c, 0, 64, 124
1, 93977, Note_on_c, 0, 57, 0
1, 94086, Note_on_c, 0, 69, 75
1, 94130, Note_on_c, 0, 54, 40
1, 94170, Note_on_c, 0, 54, 0
1, 94178, Note_on_c, 0, 69, 0
1, 94226, Control_c, 0, 64, 116
1, 94242, Control_c, 0, 64, 105
1, 94242, Note_on_c, 0, 70, 78
1, 94261, Control_c, 0, 64, 88
1, 94280, Control_c, 0, 64, 69
1, 94300, Control_c, 0, 64, 38
1, 94316, Note_on_c, 0, 55, 37
1, 94316, Control_c, 0, 64, 0
1, 94443, Control_c, 0, 64, 34
1, 94462, Control_c, 0, 64, 55
1, 94479, Control_c, 0, 64, 66
1, 94497, Control_c, 0, 64, 72
1, 94515, Control_c, 0, 64, 78
1, 94535, Control_c, 0, 64, 85
1, 94553, Control_c, 0, 64, 96
1, 94571, Control_c, 0, 64, 107
1, 94591, Control_c, 0, 64, 117
1, 94608, Control_c, 0, 64, 123
1, 94628, Control_c, 0, 64, 127
1, 94716, Note_on_c, 0, 55, 0
1, 94982, Note_on_c, 0, 57, 50
1, 94989, Note_on_c, 0, 66, 77
1, 95013, Note_on_c, 0, 70, 0
1, 95026, Note_on_c, 0, 57, 0
1, 95084, Note_on_c, 0, 66, 0
1, 95124, Control_c, 0, 64, 122
1, 95142, Control_c, 0, 64, 115
1, 95160, Control_c, 0, 64, 104
1, 95164, Note_on_c, 0, 67, 75
1, 95178, Control_c, 0, 64, 89
1, 95196, Control_c, 0, 64, 69
1, 95208, Note_on_c, 0, 58, 46
1, 95214, Control_c, 0, 64, 33
1, 95234, Control_c, 0, 64, 0
1, 95327, Control_c, 0, 64, 31
1, 95358, Control_c, 0, 64, 57
1, 95378, Control_c, 0, 64, 71
1, 95396, Control_c, 0, 64, 81
1, 95405, Poly_aftertouch_c, 0, 46, 24
1, 95413, Control_c, 0, 64, 94
1, 95431, Control_c, 0, 64, 107
1, 95443, Note_on_c, 0, 46, 0
1, 95443, Poly_aftertouch_c, 0, 46, 0
1, 95449, Control_c, 0, 64, 119
1, 95469, Control_c, 0, 64, 126
1, 95856, Note_on_c, 0, 46, 71
1, 95924, Note_on_c, 0, 46, 0
1, 96025, Note_on_c, 0, 48, 72
1, 96041, Control_c, 0, 64, 118
1, 96058, Control_c, 0, 64, 103
1, 96077, Control_c, 0, 64, 84
1, 96097, Control_c, 0, 64, 64
1, 96114, Control_c, 0, 64, 16
1, 96130, Control_c, 0, 64, 0
1, 96243, Control_c, 0, 64, 29
1, 96262, Control_c, 0, 64, 58
1, 96293, Control_c, 0, 64, 72
1, 96312, Control_c, 0, 64, 83
1, 96332, Control_c, 0, 64, 95
1, 96349, Control_c, 0, 64, 107
1, 96367, Control_c, 0, 64, 118
1, 96385, Control_c, 0, 64, 126
1, 96412, Note_on_c, 0, 48, 0
1, 96762, Note_on_c, 0, 50, 79
1, 96827, Note_on_c, 0, 50, 0
1, 96883, Control_c, 0, 64, 118
1, 96901, Control_c, 0, 64, 102
1, 96916, Note_on_c, 0, 51, 79
1, 96919, Control_c, 0, 64, 82
1, 96938, Control_c, 0, 64, 57
1, 96957, Control_c, 0, 64, 0
1, 97103, Control_c, 0, 64, 32
1, 97122, Control_c, 0, 64, 58
1, 97138, Control_c, 0, 64, 71
1, 97157, Control_c, 0, 64, 80
1, 97159, Note_on_c, 0, 74, 0
1, 97176, Control_c, 0, 64, 93
1, 97195, Control_c, 0, 64, 110
1, 97228, Control_c, 0, 64, 124
1, 97286, Note_on_c, 0, 58, 0
1, 97669, Note_on_c, 0, 79, 78
1, 97691, Note_on_c, 0, 58, 60
1, 97744, Note_on_c, 0, 58, 0
1, 97757, Note_on_c, 0, 79, 0
1, 97827, Note_on_c, 0, 72, 79
1, 97855, Control_c, 0, 64, 106
1, 97869, Note_on_c, 0, 57, 59
1, 97872, Control_c, 0, 64, 87
1, 97894, Control_c, 0, 64, 65
1, 97911, Control_c, 0, 64, 0
1, 98001, Control_c, 0, 64, 16
1, 98020, Control_c, 0, 64, 52
1, 98038, Control_c, 0, 64, 70
1, 98057, Control_c, 0, 64, 83
1, 98075, Control_c, 0, 64, 97
1, 98094, Control_c, 0, 64, 110
1, 98096, Note_on_c, 0, 57, 0
1, 98114, Control_c, 0, 64, 121
1, 98132, Control_c, 0, 64, 127
1, 98252, Note_on_c, 0, 72, 0
1, 98557, Note_on_c, 0, 75, 78
1, 98576, Note_on_c, 0, 58, 63
1, 98617, Note_on_c, 0, 67, 0
1, 98618, Note_on_c, 0, 58, 0
1, 98658, Note_on_c, 0, 75, 0
1, 98679, Control_c, 0, 64, 121
1, 98697, Control_c, 0, 64, 107
1, 98711, Note_on_c, 0, 69, 80
1, 98714, Control_c, 0, 64, 91
1, 98722, Note_on_c, 0, 65, 65
1, 98733, Control_c, 0, 64, 71
1, 98736, Note_on_c, 0, 60, 65
1, 98752, Control_c, 0, 64, 42
1, 98772, Control_c, 0, 64, 0
1, 98900, Control_c, 0, 64, 33
1, 98919, Control_c, 0, 64, 58
1, 98936, Control_c, 0, 64, 71
1, 98955, Control_c, 0, 64, 80
1, 98973, Control_c, 0, 64, 94
1, 98982, Note_on_c, 0, 65, 0
1, 98991, Control_c, 0, 64, 110
1, 99001, Note_on_c, 0, 60, 0
1, 99010, Control_c, 0, 64, 122
1, 99030, Control_c, 0, 64, 127
1, 99370, Poly_aftertouch_c, 0, 69, 22
1, 99429, Note_on_c, 0, 69, 0
1, 99429, Poly_aftertouch_c, 0, 69, 0
1, 99451, Note_on_c, 0, 65, 84
1, 99464, Note_on_c, 0, 57, 60
1, 99514, Note_on_c, 0, 57, 0
1, 99531, Note_on_c, 0, 65, 0
1, 99558, Control_c, 0, 64, 121
1, 99579, Control_c, 0, 64, 106
1, 99595, Control_c, 0, 64, 88
1, 99606, Note_on_c, 0, 69, 80
1, 99614, Control_c, 0, 64, 69
1, 99631, Control_c, 0, 64, 39
1, 99634, Note_on_c, 0, 53, 58
1, 99650, Control_c, 0, 64, 0
1, 99762, Control_c, 0, 64, 20
1, 99782, Control_c, 0, 64, 51
1, 99798, Control_c, 0, 64, 67
1, 99816, Control_c, 0, 64, 76
1, 99835, Control_c, 0, 64, 86
1, 99854, Control_c, 0, 64, 97
1, 99870, Control_c, 0, 64, 109
1, 99889, Control_c, 0, 64, 120
1, 99907, Control_c, 0, 64, 126
1, 99968, Note_on_c, 0, 53, 0
1, 100313, Note_on_c, 0, 72, 83
1, 100348, Note_on_c, 0, 69, 0
1, 100350, Note_on_c, 0, 51, 0
1, 100357, Note_on_c, 0, 57, 54
1, 100400, Note_on_c, 0, 57, 0
1, 100435, Note_on_c, 0, 72, 0
1, 100476, Control_c, 0, 64, 121
1, 100487, Note_on_c, 0, 77, 84
1, 100492, Control_c, 0, 64, 108
1, 100511, Control_c, 0, 64, 92
1, 100531, Control_c, 0, 64, 73
1, 100549, Control_c, 0, 64, 47
1, 100553, Note_on_c, 0, 62, 45
1, 100565, Control_c, 0, 64, 0
1, 100698, Control_c, 0, 64, 43
1, 100715, Control_c, 0, 64, 62
1, 100733, Control_c, 0, 64, 74
1, 100751, Control_c, 0, 64, 83
1, 100770, Control_c, 0, 64, 95
1, 100789, Control_c, 0, 64, 107
1, 100805, Control_c, 0, 64, 118
1, 100824, Control_c, 0, 64, 125
1, 101170, Note_on_c, 0, 65, 77
1, 101187, Note_on_c, 0, 50, 70
1, 101230, Note_on_c, 0, 50, 0
1, 101233, Note_on_c, 0, 65, 0
1, 101318, Note_on_c, 0, 67, 78
1, 101325, Note_on_c, 0, 51, 74
1, 101336, Control_c, 0, 64, 120
1, 101353, Control_c, 0, 64, 103
1, 101371, Control_c, 0, 64, 82
1, 101392, Control_c, 0, 64, 58
1, 101409, Control_c, 0, 64, 0
1, 101538, Control_c, 0, 64, 32
1, 101557, Control_c, 0, 64, 60
1, 101575, Control_c, 0, 64, 73
1, 101595, Control_c, 0, 64, 82
1, 101615, Control_c, 0, 64, 92
1, 101631, Control_c, 0, 64, 102
1, 101650, Control_c, 0, 64, 112
1, 101667, Control_c, 0, 64, 120
1, 101673, Note_on_c, 0, 51, 0
1, 101687, Control_c, 0, 64, 126
1, 101925, Note_on_c, 0, 67, 0
1, 102043, Note_on_c, 0, 69, 86
1, 102047, Note_on_c, 0, 53, 75
1, 102111, Note_on_c, 0, 53, 0
1, 102114, Note_on_c, 0, 69, 0
1, 102180, Control_c, 0, 64, 122
1, 102198, Control_c, 0, 64, 107
1, 102200, Note_on_c, 0, 70, 86
1, 102207, Note_on_c, 0, 55, 73
1, 102214, Control_c, 0, 64, 88
1, 102234, Control_c, 0, 64, 68
1, 102252, Control_c, 0, 64, 33
1, 102272, Control_c, 0, 64, 0
1, 102374, Note_on_c, 0, 77, 0
1, 102419, Control_c, 0, 64, 37
1, 102435, Control_c, 0, 64, 62
1, 102455, Control_c, 0, 64, 75
1, 102474, Control_c, 0, 64, 85
1, 102491, Control_c, 0, 64, 97
1, 102511, Control_c, 0, 64, 109
1, 102530, Control_c, 0, 64, 117
1, 102548, Control_c, 0, 64, 122
1, 102587, Control_c, 0, 64, 126
1, 102915, Note_on_c, 0, 82, 83
1, 103010, Note_on_c, 0, 82, 0
1, 103040, Control_c, 0, 64, 118
1, 103059, Control_c, 0, 64, 106
1, 103067, Note_on_c, 0, 79, 79
1, 103076, Control_c, 0, 64, 87
1, 103096, Control_c, 0, 64, 63
1, 103114, Control_c, 0, 64, 0
1, 103206, Control_c, 0, 64, 47
1, 103223, Control_c, 0, 64, 66
1, 103242, Control_c, 0, 64, 77
1, 103261, Control_c, 0, 64, 86
1, 103280, Control_c, 0, 64, 96
1, 103298, Control_c, 0, 64, 105
1, 103317, Control_c, 0, 64, 113
1, 103335, Control_c, 0, 64, 119
1, 103355, Control_c, 0, 64, 123
1, 103388, Control_c, 0, 64, 127
1, 103472, Note_on_c, 0, 79, 0
1, 103745, Note_on_c, 0, 74, 79
1, 103823, Note_on_c, 0, 74, 0
1, 103910, Note_on_c, 0, 70, 0
1, 103910, Note_on_c, 0, 70, 14
1, 103925, Note_on_c, 0, 77, 71
1, 103994, Note_on_c, 0, 76, 76
1, 104002, Note_on_c, 0, 77, 0
1, 104011, Control_c, 0, 64, 123
1, 104030, Control_c, 0, 64, 108
1, 104049, Control_c, 0, 64, 87
1, 104069, Control_c, 0, 64, 64
1, 104069, Note_on_c, 0, 77, 68
1, 104078, Note_on_c, 0, 76, 0
1, 104084, Control_c, 0, 64, 0
1, 104136, Note_on_c, 0, 76, 73
1, 104155, Note_on_c, 0, 77, 0
1, 104270, Control_c, 0, 64, 11
1, 104289, Control_c, 0, 64, 39
1, 104307, Control_c, 0, 64, 56
1, 104324, Control_c, 0, 64, 65
1, 104343, Control_c, 0, 64, 68
1, 104380, Control_c, 0, 64, 71
1, 104397, Control_c, 0, 64, 76
1, 104415, Control_c, 0, 64, 82
1, 104435, Control_c, 0, 64, 90
1, 104453, Control_c, 0, 64, 99
1, 104471, Control_c, 0, 64, 107
1, 104491, Control_c, 0, 64, 111
1, 104545, Control_c, 0, 64, 115
1, 104600, Control_c, 0, 64, 120
1, 104834, Note_on_c, 0, 61, 76
1, 104859, Note_on_c, 0, 62, 0
1, 104891, Control_c, 0, 64, 115
1, 104909, Control_c, 0, 64, 109
1, 104912, Note_on_c, 0, 61, 0
1, 104928, Control_c, 0, 64, 98
1, 104947, Control_c, 0, 64, 82
1, 104965, Control_c, 0, 64, 62
1, 104973, Note_on_c, 0, 60, 76
1, 104985, Control_c, 0, 64, 11
1, 105003, Control_c, 0, 64, 0
1, 105130, Control_c, 0, 64, 49
1, 105149, Control_c, 0, 64, 69
1, 105167, Control_c, 0, 64, 81
1, 105186, Control_c, 0, 64, 93
1, 105205, Control_c, 0, 64, 107
1, 105211, Note_on_c, 0, 76, 0
1, 105217, Note_on_c, 0, 60, 0
1, 105224, Control_c, 0, 64, 119
1, 105242, Control_c, 0, 64, 127
1, 105561, Poly_aftertouch_c, 0, 55, 22
1, 105586, Note_on_c, 0, 55, 0
1, 105586, Poly_aftertouch_c, 0, 55, 0
1, 105691, Note_on_c, 0, 76, 85
1, 105712, Note_on_c, 0, 58, 63
1, 105772, Note_on_c, 0, 58, 0
1, 105836, Note_on_c, 0, 76, 0
1, 105858, Note_on_c, 0, 70, 0
1, 105859, Note_on_c, 0, 77, 82
1, 105881, Control_c, 0, 64, 118
1, 105895, Note_on_c, 0, 60, 59
1, 105899, Control_c, 0, 64, 103
1, 105908, Note_on_c, 0, 53, 58
1, 105919, Control_c, 0, 64, 85
1, 105938, Control_c, 0, 64, 65
1, 105955, Control_c, 0, 64, 32
1, 105973, Control_c, 0, 64, 0
1, 106120, Control_c, 0, 64, 16
1, 106140, Control_c, 0, 64, 47
1, 106158, Control_c, 0, 64, 63
1, 106177, Control_c, 0, 64, 71
1, 106193, Control_c, 0, 64, 77
1, 106214, Control_c, 0, 64, 85
1, 106232, Control_c, 0, 64, 95
1, 106250, Control_c, 0, 64, 104
1, 106267, Control_c, 0, 64, 112
1, 106285, Control_c, 0, 64, 118
1, 106341, Control_c, 0, 64, 123
1, 106655, Note_on_c, 0, 70, 74
1, 106706, Control_c, 0, 64, 117
1, 106724, Control_c, 0, 64, 110
1, 106725, Note_on_c, 0, 70, 0
1, 106742, Control_c, 0, 64, 99
1, 106762, Control_c, 0, 64, 88
1, 106779, Control_c, 0, 64, 76
1, 106798, Control_c, 0, 64, 60
1, 106804, Note_on_c, 0, 68, 69
1, 106818, Control_c, 0, 64, 31
1, 106835, Control_c, 0, 64, 0
1, 106928, Control_c, 0, 64, 38
1, 106945, Control_c, 0, 64, 59
1, 106963, Control_c, 0, 64, 71
1, 106981, Control_c, 0, 64, 78
1, 107000, Control_c, 0, 64, 85
1, 107019, Control_c, 0, 64, 93
1, 107038, Control_c, 0, 64, 102
1, 107056, Control_c, 0, 64, 110
1, 107074, Control_c, 0, 64, 115
1, 107113, Control_c, 0, 64, 121
1, 107148, Control_c, 0, 64, 125
1, 107341, Note_on_c, 0, 68, 0
1, 107516, Note_on_c, 0, 67, 74
1, 107563, Note_on_c, 0, 67, 0
1, 107623, Control_c, 0, 64, 116
1, 107641, Control_c, 0, 64, 100
1, 107660, Note_on_c, 0, 68, 77
1, 107660, Control_c, 0, 64, 80
1, 107676, Control_c, 0, 64, 54
1, 107696, Control_c, 0, 64, 0
1, 107807, Control_c, 0, 64, 18
1, 107825, Control_c, 0, 64, 55
1, 107844, Control_c, 0, 64, 71
1, 107862, Control_c, 0, 64, 83
1, 107875, Note_on_c, 0, 60, 0
1, 107880, Control_c, 0, 64, 96
1, 107899, Control_c, 0, 64, 112
1, 107917, Control_c, 0, 64, 124
1, 108085, Note_on_c, 0, 77, 0
1, 108329, Note_on_c, 0, 75, 83
1, 108344, Note_on_c, 0, 60, 73
1, 108400, Note_on_c, 0, 60, 0
1, 108419, Note_on_c, 0, 75, 0
1, 108466, Control_c, 0, 64, 116
1, 108484, Control_c, 0, 64, 95
1, 108494, Note_on_c, 0, 74, 83
1, 108504, Control_c, 0, 64, 68
1, 108518, Note_on_c, 0, 65, 81
1, 108520, Control_c, 0, 64, 0
1, 108631, Control_c, 0, 64, 9
1, 108648, Control_c, 0, 64, 58
1, 108668, Control_c, 0, 64, 77
1, 108687, Control_c, 0, 64, 96
1, 108705, Control_c, 0, 64, 119
1, 108723, Control_c, 0, 64, 127
1, 108751, Note_on_c, 0, 65, 0
1, 108776, Note_on_c, 0, 68, 0
1, 109200, Poly_aftertouch_c, 0, 74, 24
1, 109243, Note_on_c, 0, 74, 0
1, 109243, Poly_aftertouch_c, 0, 74, 0
1, 109259, Note_on_c, 0, 77, 81
1, 109270, Note_on_c, 0, 63, 80
1, 109318, Note_on_c, 0, 77, 0
1, 109326, Note_on_c, 0, 63, 0
1, 109440, Note_on_c, 0, 71, 86
1, 109449, Note_on_c, 0, 62, 81
1, 109453, Note_on_c, 0, 67, 74
1, 109456, Control_c, 0, 64, 109
1, 109473, Control_c, 0, 64, 81
1, 109494, Control_c, 0, 64, 43
1, 109511, Control_c, 0, 64, 0
1, 109640, Control_c, 0, 64, 44
1, 109655, Note_on_c, 0, 53, 0
1, 109657, Control_c, 0, 64, 65
1, 109677, Control_c, 0, 64, 73
1, 109694, Control_c, 0, 64, 79
1, 109713, Control_c, 0, 64, 89
1, 109731, Control_c, 0, 64, 102
1, 109750, Control_c, 0, 64, 115
1, 109769, Control_c, 0, 64, 126
1, 110174, Note_on_c, 0, 55, 83
1, 110229, Note_on_c, 0, 55, 0
1, 110302, Control_c, 0, 64, 115
1, 110330, Note_on_c, 0, 50, 84
1, 110335, Control_c, 0, 64, 90
1, 110354, Control_c, 0, 64, 62
1, 110374, Control_c, 0, 64, 0
1, 110464, Control_c, 0, 64, 40
1, 110482, Control_c, 0, 64, 68
1, 110500, Control_c, 0, 64, 84
1, 110520, Control_c, 0, 64, 103
1, 110537, Control_c, 0, 64, 122
1, 110546, Note_on_c, 0, 50, 0
1, 110555, Control_c, 0, 64, 127
1, 110708, Note_on_c, 0, 62, 0
1, 111062, Note_on_c, 0, 53, 88
1, 111120, Note_on_c, 0, 53, 0
1, 111201, Note_on_c, 0, 51, 88
1, 111202, Note_on_c, 0, 72, 87
1, 111208, Note_on_c, 0, 63, 86
1, 111217, Control_c, 0, 64, 104
1, 111229, Poly_aftertouch_c, 0, 71, 24
1, 111236, Control_c, 0, 64, 71
1, 111242, Note_on_c, 0, 71, 0
1, 111242, Poly_aftertouch_c, 0, 71, 0
1, 111270, Control_c, 0, 64, 0
1, 111334, Note_on_c, 0, 67, 0
1, 111400, Control_c, 0, 64, 52
1, 111416, Control_c, 0, 64, 72
1, 111435, Control_c, 0, 64, 85
1, 111454, Control_c, 0, 64, 101
1, 111472, Control_c, 0, 64, 119
1, 111490, Control_c, 0, 64, 127
1, 111500, Note_on_c, 0, 51, 0
1, 111706, Poly_aftertouch_c, 0, 67, 127
1, 111983, Note_on_c, 0, 48, 87
1, 112038, Note_on_c, 0, 48, 0
1, 112115, Control_c, 0, 64, 105
1, 112123, Note_on_c, 0, 43, 92
1, 112134, Control_c, 0, 64, 73
1, 112153, Control_c, 0, 64, 0
1, 112219, Poly_aftertouch_c, 0, 67, 0
1, 112297, Control_c, 0, 64, 41
1, 112316, Control_c, 0, 64, 66
1, 112334, Control_c, 0, 64, 78
1, 112351, Control_c, 0, 64, 90
1, 112360, Note_on_c, 0, 43, 0
1, 112367, Control_c, 0, 64, 101
1, 112389, Control_c, 0, 64, 114
1, 112407, Control_c, 0, 64, 127
1, 112933, Note_on_c, 0, 46, 87
1, 113016, Note_on_c, 0, 46, 0
1, 113086, Note_on_c, 0, 45, 90
1, 113139, Control_c, 0, 64, 103
1, 113151, Note_on_c, 0, 63, 0
1, 113157, Control_c, 0, 64, 74
1, 113177, Control_c, 0, 64, 23
1, 113197, Control_c, 0, 64, 0
1, 113343, Control_c, 0, 64, 27
1, 113360, Control_c, 0, 64, 55
1, 113380, Control_c, 0, 64, 71
1, 113398, Control_c, 0, 64, 85
1, 113416, Control_c, 0, 64, 102
1, 113436, Control_c, 0, 64, 117
1, 113452, Control_c, 0, 64, 127
1, 113773, Note_on_c, 0, 72, 0
1, 113818, Note_on_c, 0, 74, 87
1, 113889, Note_on_c, 0, 74, 0
1, 113965, Note_on_c, 0, 75, 91
1, 113997, Note_on_c, 0, 55, 77
1, 114022, Control_c, 0, 64, 119
1, 114042, Control_c, 0, 64, 98
1, 114074, Control_c, 0, 64, 74
1, 114094, Control_c, 0, 64, 36
1, 114113, Control_c, 0, 64, 0
1, 114239, Control_c, 0, 64, 52
1, 114257, Control_c, 0, 64, 69
1, 114277, Control_c, 0, 64, 80
1, 114296, Control_c, 0, 64, 95
1, 114314, Control_c, 0, 64, 110
1, 114333, Control_c, 0, 64, 126
1, 114631, Note_on_c, 0, 75, 0
1, 114645, Poly_aftertouch_c, 0, 48, 0
1, 114732, Note_on_c, 0, 70, 91
1, 114805, Note_on_c, 0, 55, 0
1, 114822, Note_on_c, 0, 70, 0
1, 114886, Note_on_c, 0, 72, 91
1, 114922, Note_on_c, 0, 54, 72
1, 114939, Control_c, 0, 64, 112
1, 114958, Control_c, 0, 64, 85
1, 114977, Control_c, 0, 64, 50
1, 115009, Control_c, 0, 64, 0
1, 115121, Control_c, 0, 64, 57
1, 115139, Control_c, 0, 64, 74
1, 115157, Control_c, 0, 64, 90
1, 115174, Control_c, 0, 64, 112
1, 115193, Control_c, 0, 64, 127
1, 115450, Note_on_c, 0, 54, 0
1, 115641, Note_on_c, 0, 67, 88
1, 115743, Note_on_c, 0, 67, 0
1, 115782, Note_on_c, 0, 66, 88
1, 115801, Note_on_c, 0, 57, 75
1, 115819, Control_c, 0, 64, 116
1, 115838, Control_c, 0, 64, 85
1, 115855, Control_c, 0, 64, 34
1, 115873, Control_c, 0, 64, 0
1, 115999, Control_c, 0, 64, 50
1, 116019, Control_c, 0, 64, 69
1, 116036, Control_c, 0, 64, 80
1, 116056, Control_c, 0, 64, 92
1, 116074, Control_c, 0, 64, 106
1, 116093, Control_c, 0, 64, 119
1, 116109, Control_c, 0, 64, 127
1, 116243, Note_on_c, 0, 66, 0
1, 116561, Note_on_c, 0, 69, 88
1, 116588, Note_on_c, 0, 45, 0
1, 116678, Note_on_c, 0, 69, 0
1, 116715, Note_on_c, 0, 62, 85
1, 116721, Note_on_c, 0, 46, 82
1, 116736, Control_c, 0, 64, 118
1, 116754, Control_c, 0, 64, 96
1, 116774, Control_c, 0, 64, 71
1, 116790, Control_c, 0, 64, 16
1, 116809, Control_c, 0, 64, 0
1, 116934, Control_c, 0, 64, 44
1, 116952, Control_c, 0, 64, 66
1, 116971, Control_c, 0, 64, 76
1, 116989, Control_c, 0, 64, 88
1, 116993, Note_on_c, 0, 72, 0
1, 117009, Control_c, 0, 64, 107
1, 117029, Control_c, 0, 64, 127
1, 117203, Note_on_c, 0, 57, 0
1, 117452, Note_on_c, 0, 72, 87
1, 117529, Note_on_c, 0, 72, 0
1, 117601, Note_on_c, 0, 74, 89
1, 117631, Note_on_c, 0, 55, 84
1, 117633, Control_c, 0, 64, 117
1, 117652, Control_c, 0, 64, 93
1, 117671, Control_c, 0, 64, 68
1, 117689, Control_c, 0, 64, 23
1, 117708, Control_c, 0, 64, 0
1, 117813, Control_c, 0, 64, 20
1, 117831, Control_c, 0, 64, 58
1, 117850, Control_c, 0, 64, 73
1, 117870, Control_c, 0, 64, 85
1, 117887, Control_c, 0, 64, 99
1, 117902, Note_on_c, 0, 55, 0
1, 117905, Control_c, 0, 64, 114
1, 117924, Control_c, 0, 64, 127
1, 118206, Poly_aftertouch_c, 0, 62, 24
1, 118214, Note_on_c, 0, 74, 0
1, 118330, Note_on_c, 0, 69, 87
1, 118345, Note_on_c, 0, 54, 81
1, 118418, Note_on_c, 0, 69, 0
1, 118418, Note_on_c, 0, 54, 0
1, 118476, Poly_aftertouch_c, 0, 62, 32
1, 118484, Note_on_c, 0, 70, 88
1, 118493, Note_on_c, 0, 55, 83
1, 118495, Control_c, 0, 64, 112
1, 118515, Control_c, 0, 64, 86
1, 118516, Note_on_c, 0, 62, 0
1, 118516, Note_on_c, 0, 62, 31
1, 118533, Control_c, 0, 64, 61
1, 118551, Control_c, 0, 64, 9
1, 118571, Control_c, 0, 64, 0
1, 118766, Control_c, 0, 64, 47
1, 118785, Control_c, 0, 64, 66
1, 118803, Control_c, 0, 64, 75
1, 118823, Control_c, 0, 64, 82
1, 118841, Control_c, 0, 64, 89
1, 118859, Control_c, 0, 64, 101
1, 118879, Control_c, 0, 64, 118
1, 118897, Control_c, 0, 64, 127
1, 118899, Note_on_c, 0, 62, 0
1, 118899, Poly_aftertouch_c, 0, 62, 0
1, 119235, Note_on_c, 0, 66, 88
1, 119309, Note_on_c, 0, 66, 0
1, 119373, Control_c, 0, 64, 106
1, 119393, Control_c, 0, 64, 80
1, 119393, Note_on_c, 0, 67, 88
1, 119411, Control_c, 0, 64, 44
1, 119429, Control_c, 0, 64, 0
1, 119453, Note_on_c, 0, 46, 0
1, 119522, Control_c, 0, 64, 43
1, 119540, Control_c, 0, 64, 68
1, 119559, Control_c, 0, 64, 82
1, 119578, Control_c, 0, 64, 97
1, 119594, Control_c, 0, 64, 113
1, 119613, Control_c, 0, 64, 127
1, 119834, Note_on_c, 0, 67, 0
1, 119998, Poly_aftertouch_c, 0, 67, 127
1, 120151, Note_on_c, 0, 62, 85
1, 120210, Note_on_c, 0, 62, 0
1, 120311, Note_on_c, 0, 63, 90
1, 120323, Note_on_c, 0, 48, 82
1, 120346, Control_c, 0, 64, 114
1, 120365, Control_c, 0, 64, 84
1, 120373, Note_on_c, 0, 70, 0
1, 120381, Control_c, 0, 64, 47
1, 120400, Control_c, 0, 64, 0
1, 120403, Poly_aftertouch_c, 0, 67, 0
1, 120475, Control_c, 0, 64, 11
1, 120494, Control_c, 0, 64, 58
1, 120512, Control_c, 0, 64, 77
1, 120530, Control_c, 0, 64, 96
1, 120548, Control_c, 0, 64, 121
1, 120567, Control_c, 0, 64, 127
1, 120597, Note_on_c, 0, 55, 0
1, 121058, Note_on_c, 0, 75, 86
1, 121142, Note_on_c, 0, 75, 0
1, 121201, Note_on_c, 0, 67, 86
1, 121208, Note_on_c, 0, 60, 88
1, 121243, Control_c, 0, 64, 111
1, 121262, Control_c, 0, 64, 85
1, 121281, Control_c, 0, 64, 55
1, 121299, Control_c, 0, 64, 0
1, 121447, Control_c, 0, 64, 51
1, 121463, Control_c, 0, 64, 68
1, 121483, Control_c, 0, 64, 78
1, 121501, Control_c, 0, 64, 90
1, 121520, Control_c, 0, 64, 105
1, 121539, Control_c, 0, 64, 119
1, 121570, Control_c, 0, 64, 127
1, 121970, Note_on_c, 0, 70, 87
1, 122048, Note_on_c, 0, 70, 0
1, 122055, Poly_aftertouch_c, 0, 67, 24
1, 122074, Note_on_c, 0, 67, 0
1, 122074, Poly_aftertouch_c, 0, 67, 0
1, 122075, Poly_aftertouch_c, 0, 67, 0
1, 122087, Control_c, 0, 64, 118
1, 122106, Control_c, 0, 64, 93
1, 122117, Note_on_c, 0, 68, 89
1, 122123, Control_c, 0, 64, 65
1, 122143, Control_c, 0, 64, 0
1, 122235, Control_c, 0, 64, 54
1, 122251, Control_c, 0, 64, 73
1, 122270, Control_c, 0, 64, 88
1, 122289, Control_c, 0, 64, 106
1, 122292, Note_on_c, 0, 60, 0
1, 122308, Control_c, 0, 64, 122
1, 122326, Control_c, 0, 64, 127
1, 122599, Note_on_c, 0, 63, 0
1, 122850, Note_on_c, 0, 60, 90
1, 122914, Note_on_c, 0, 60, 0
1, 122985, Note_on_c, 0, 72, 84
1, 122992, Note_on_c, 0, 55, 84
1, 123004, Control_c, 0, 64, 108
1, 123012, Note_on_c, 0, 68, 0
1, 123022, Control_c, 0, 64, 77
1, 123040, Control_c, 0, 64, 0
1, 123151, Control_c, 0, 64, 41
1, 123170, Control_c, 0, 64, 68
1, 123186, Control_c, 0, 64, 85
1, 123205, Control_c, 0, 64, 107
1, 123223, Control_c, 0, 64, 127
1, 123267, Note_on_c, 0, 55, 0
1, 123404, Note_on_c, 0, 72, 0
1, 123681, Note_on_c, 0, 58, 88
1, 123758, Note_on_c, 0, 58, 0
1, 123827, Control_c, 0, 64, 113
1, 123838, Note_on_c, 0, 66, 90
1, 123839, Note_on_c, 0, 57, 84
1, 123840, Note_on_c, 0, 62, 83
1, 123845, Control_c, 0, 64, 88
1, 123866, Control_c, 0, 64, 60
1, 123883, Control_c, 0, 64, 0
1, 124031, Control_c, 0, 64, 38
1, 124049, Control_c, 0, 64, 65
1, 124066, Control_c, 0, 64, 80
1, 124086, Control_c, 0, 64, 98
1, 124104, Control_c, 0, 64, 118
1, 124112, Note_on_c, 0, 48, 0
1, 124119, Control_c, 0, 64, 127
1, 124546, Note_on_c, 0, 50, 91
1, 124606, Note_on_c, 0, 50, 0
1, 124652, Control_c, 0, 64, 100
1, 124672, Control_c, 0, 64, 68
1, 124691, Control_c, 0, 64, 0
1, 124695, Note_on_c, 0, 45, 88
1, 124799, Control_c, 0, 64, 57
1, 124819, Control_c, 0, 64, 77
1, 124835, Control_c, 0, 64, 94
1, 124855, Control_c, 0, 64, 116
1, 124863, Note_on_c, 0, 45, 0
1, 124873, Control_c, 0, 64, 127
1, 124965, Note_on_c, 0, 57, 0
1, 125391, Note_on_c, 0, 48, 90
1, 125446, Note_on_c, 0, 48, 0
1, 125499, Note_on_c, 0, 66, 0
1, 125528, Note_on_c, 0, 67, 89
1, 125529, Note_on_c, 0, 46, 85
1, 125531, Note_on_c, 0, 58, 88
1, 125549, Control_c, 0, 64, 97
1, 125570, Control_c, 0, 64, 61
1, 125586, Control_c, 0, 64, 0
1, 125698, Control_c, 0, 64, 28
1, 125716, Control_c, 0, 64, 63
1, 125736, Control_c, 0, 64, 77
1, 125753, Control_c, 0, 64, 88
1, 125759, Note_on_c, 0, 46, 0
1, 125770, Control_c, 0, 64, 102
1, 125789, Control_c, 0, 64, 121
1, 125807, Control_c, 0, 64, 127
1, 126296, Note_on_c, 0, 43, 90
1, 126359, Note_on_c, 0, 43, 0
1, 126411, Control_c, 0, 64, 113
1, 126431, Control_c, 0, 64, 79
1, 126445, Note_on_c, 0, 38, 88
1, 126448, Control_c, 0, 64, 0
1, 126560, Control_c, 0, 64, 52
1, 126578, Control_c, 0, 64, 74
1, 126597, Control_c, 0, 64, 92
1, 126615, Control_c, 0, 64, 116
1, 126622, Note_on_c, 0, 38, 0
1, 126632, Control_c, 0, 64, 127
1, 126998, Poly_aftertouch_c, 0, 62, 24
1, 127117, Note_on_c, 0, 62, 0
1, 127117, Poly_aftertouch_c, 0, 62, 0
1, 127278, Note_on_c, 0, 41, 89
1, 127359, Note_on_c, 0, 41, 0
1, 127387, Note_on_c, 0, 58, 0
1, 127420, Control_c, 0, 64, 118
1, 127423, Note_on_c, 0, 39, 91
1, 127427, Poly_aftertouch_c, 0, 38, 0
1, 127440, Control_c, 0, 64, 91
1, 127456, Control_c, 0, 64, 63
1, 127475, Control_c, 0, 64, 0
1, 127640, Control_c, 0, 64, 34
1, 127659, Control_c, 0, 64, 56
1, 127677, Control_c, 0, 64, 71
1, 127695, Control_c, 0, 64, 83
1, 127715, Control_c, 0, 64, 99
1, 127734, Control_c, 0, 64, 114
1, 127752, Control_c, 0, 64, 124
1, 128125, Note_on_c, 0, 67, 0
1, 128136, Note_on_c, 0, 66, 89
1, 128216, Note_on_c, 0, 66, 0
1, 128282, Note_on_c, 0, 67, 88
1, 128291, Note_on_c, 0, 51, 85
1, 128319, Control_c, 0, 64, 112
1, 128336, Control_c, 0, 64, 84
1, 128354, Control_c, 0, 64, 48
1, 128373, Control_c, 0, 64, 0
1, 128465, Control_c, 0, 64, 38
1, 128485, Control_c, 0, 64, 66
1, 128501, Control_c, 0, 64, 82
1, 128521, Control_c, 0, 64, 98
1, 128539, Control_c, 0, 64, 116
1, 128557, Control_c, 0, 64, 127
1, 128565, Note_on_c, 0, 39, 0
1, 128902, Note_on_c, 0, 51, 0
1, 129049, Note_on_c, 0, 70, 87
1, 129052, Note_on_c, 0, 50, 89
1, 129126, Note_on_c, 0, 50, 0
1, 129147, Note_on_c, 0, 67, 0
1, 129194, Note_on_c, 0, 61, 89
1, 129198, Control_c, 0, 64, 110
1, 129200, Note_on_c, 0, 51, 89
1, 129216, Control_c, 0, 64, 82
1, 129235, Control_c, 0, 64, 43
1, 129253, Control_c, 0, 64, 0
1, 129401, Control_c, 0, 64, 19
1, 129417, Note_on_c, 0, 70, 0
1, 129419, Control_c, 0, 64, 54
1, 129436, Control_c, 0, 64, 67
1, 129457, Control_c, 0, 64, 76
1, 129474, Control_c, 0, 64, 87
1, 129493, Control_c, 0, 64, 101
1, 129509, Control_c, 0, 64, 116
1, 129528, Control_c, 0, 64, 127
1, 129918, Note_on_c, 0, 54, 85
1, 129920, Note_on_c, 0, 70, 87
1, 129949, Note_on_c, 0, 51, 0
1, 130006, Note_on_c, 0, 54, 0
1, 130032, Note_on_c, 0, 70, 0
1, 130073, Note_on_c, 0, 55, 92
1, 130074, Note_on_c, 0, 69, 86
1, 130080, Control_c, 0, 64, 118
1, 130088, Note_on_c, 0, 52, 79
1, 130096, Control_c, 0, 64, 87
1, 130116, Control_c, 0, 64, 30
1, 130133, Control_c, 0, 64, 0
1, 130162, Note_on_c, 0, 61, 0
1, 130243, Control_c, 0, 64, 18
1, 130261, Control_c, 0, 64, 53
1, 130280, Control_c, 0, 64, 67
1, 130296, Control_c, 0, 64, 76
1, 130317, Control_c, 0, 64, 85
1, 130334, Control_c, 0, 64, 95
1, 130353, Control_c, 0, 64, 107
1, 130372, Control_c, 0, 64, 118
1, 130390, Control_c, 0, 64, 127
1, 130439, Note_on_c, 0, 55, 0
1, 130562, Note_on_c, 0, 52, 0
1, 130784, Note_on_c, 0, 69, 0
1, 130811, Note_on_c, 0, 57, 88
1, 130814, Note_on_c, 0, 67, 90
1, 130873, Note_on_c, 0, 57, 0
1, 130947, Note_on_c, 0, 67, 0
1, 130969, Note_on_c, 0, 66, 94
1, 130973, Note_on_c, 0, 62, 90
1, 130982, Note_on_c, 0, 50, 73
1, 130990, Note_on_c, 0, 58, 83
1, 130992, Control_c, 0, 64, 117
1, 131012, Control_c, 0, 64, 88
1, 131030, Control_c, 0, 64, 53
1, 131048, Control_c, 0, 64, 0
1, 131215, Control_c, 0, 64, 44
1, 131234, Control_c, 0, 64, 63
1, 131252, Control_c, 0, 64, 76
1, 131272, Control_c, 0, 64, 87
1, 131289, Control_c, 0, 64, 98
1, 131307, Control_c, 0, 64, 109
1, 131325, Control_c, 0, 64, 117
1, 131345, Control_c, 0, 64, 123
1, 131362, Control_c, 0, 64, 127
1, 131576, Note_on_c, 0, 62, 0
1, 131723, Note_on_c, 0, 61, 88
1, 131809, Note_on_c, 0, 61, 0
1, 131822, Control_c, 0, 64, 116
1, 131855, Control_c, 0, 64, 91
1, 131873, Control_c, 0, 64, 60
1, 131883, Note_on_c, 0, 62, 89
1, 131891, Control_c, 0, 64, 0
1, 132004, Control_c, 0, 64, 49
1, 132021, Control_c, 0, 64, 68
1, 132039, Control_c, 0, 64, 80
1, 132059, Control_c, 0, 64, 91
1, 132078, Control_c, 0, 64, 104
1, 132094, Control_c, 0, 64, 116
1, 132113, Control_c, 0, 64, 126
1, 132231, Note_on_c, 0, 66, 0
1, 132626, Note_on_c, 0, 66, 91
1, 132723, Note_on_c, 0, 66, 0
1, 132758, Control_c, 0, 64, 121
1, 132789, Control_c, 0, 64, 102
1, 132808, Note_on_c, 0, 67, 91
1, 132809, Control_c, 0, 64, 74
1, 132826, Control_c, 0, 64, 0
1, 132955, Control_c, 0, 64, 22
1, 132975, Control_c, 0, 64, 57
1, 132976, Note_on_c, 0, 58, 0
1, 132993, Control_c, 0, 64, 69
1, 133011, Control_c, 0, 64, 76
1, 133029, Control_c, 0, 64, 83
1, 133047, Control_c, 0, 64, 93
1, 133065, Control_c, 0, 64, 107
1, 133085, Control_c, 0, 64, 121
1, 133097, Note_on_c, 0, 62, 0
1, 133103, Control_c, 0, 64, 127
1, 133113, Poly_aftertouch_c, 0, 50, 24
1, 133366, Poly_aftertouch_c, 0, 50, 32
1, 133500, Note_on_c, 0, 61, 88
1, 133535, Note_on_c, 0, 58, 64
1, 133570, Note_on_c, 0, 58, 0
1, 133597, Note_on_c, 0, 61, 0
1, 133648, Note_on_c, 0, 62, 89
1, 133673, Control_c, 0, 64, 105
1, 133675, Note_on_c, 0, 57, 70
1, 133693, Control_c, 0, 64, 76
1, 133724, Control_c, 0, 64, 11
1, 133742, Control_c, 0, 64, 0
1, 133853, Control_c, 0, 64, 20
1, 133872, Control_c, 0, 64, 53
1, 133891, Control_c, 0, 64, 67
1, 133908, Control_c, 0, 64, 74
1, 133928, Control_c, 0, 64, 81
1, 133946, Control_c, 0, 64, 90
1, 133964, Control_c, 0, 64, 102
1, 133982, Control_c, 0, 64, 115
1, 134001, Control_c, 0, 64, 125
1, 134040, Note_on_c, 0, 57, 0
1, 134423, Note_on_c, 0, 55, 81
1, 134494, Note_on_c, 0, 55, 0
1, 134573, Note_on_c, 0, 57, 87
1, 134590, Control_c, 0, 64, 118
1, 134608, Control_c, 0, 64, 96
1, 134628, Control_c, 0, 64, 70
1, 134646, Control_c, 0, 64, 0
1, 134806, Control_c, 0, 64, 44
1, 134826, Control_c, 0, 64, 64
1, 134843, Control_c, 0, 64, 73
1, 134863, Control_c, 0, 64, 82
1, 134881, Control_c, 0, 64, 94
1, 134899, Control_c, 0, 64, 109
1, 134916, Control_c, 0, 64, 125
1, 135208, Poly_aftertouch_c, 0, 67, 24
1, 135293, Note_on_c, 0, 67, 0
1, 135293, Poly_aftertouch_c, 0, 67, 0
1, 135335, Note_on_c, 0, 70, 88
1, 135412, Note_on_c, 0, 62, 0
1, 135426, Note_on_c, 0, 70, 0
1, 135429, Poly_aftertouch_c, 0, 67, 0
1, 135494, Note_on_c, 0, 69, 88
1, 135516, Note_on_c, 0, 60, 66
1, 135525, Control_c, 0, 64, 113
1, 135544, Control_c, 0, 64, 90
1, 135562, Control_c, 0, 64, 64
1, 135580, Control_c, 0, 64, 0
1, 135780, Control_c, 0, 64, 39
1, 135797, Control_c, 0, 64, 61
1, 135817, Control_c, 0, 64, 71
1, 135833, Control_c, 0, 64, 76
1, 135852, Control_c, 0, 64, 80
1, 135871, Control_c, 0, 64, 84
1, 135889, Control_c, 0, 64, 92
1, 135906, Control_c, 0, 64, 106
1, 135924, Control_c, 0, 64, 123
1, 135943, Control_c, 0, 64, 127
1, 136065, Poly_aftertouch_c, 0, 60, 24
1, 136246, Note_on_c, 0, 69, 0
1, 136295, Note_on_c, 0, 72, 85
1, 136315, Note_on_c, 0, 60, 0
1, 136315, Note_on_c, 0, 60, 10
1, 136326, Poly_aftertouch_c, 0, 60, 32
1, 136379, Note_on_c, 0, 72, 0
1, 136454, Note_on_c, 0, 66, 88
1, 136497, Control_c, 0, 64, 118
1, 136515, Control_c, 0, 64, 95
1, 136548, Control_c, 0, 64, 69
1, 136566, Control_c, 0, 64, 0
1, 136695, Control_c, 0, 64, 44
1, 136714, Control_c, 0, 64, 66
1, 136732, Control_c, 0, 64, 76
1, 136752, Control_c, 0, 64, 83
1, 136768, Control_c, 0, 64, 91
1, 136787, Control_c, 0, 64, 103
1, 136805, Control_c, 0, 64, 116
1, 136824, Control_c, 0, 64, 126
1, 136911, Poly_aftertouch_c, 0, 60, 24
1, 136951, Note_on_c, 0, 60, 0
1, 136951, Poly_aftertouch_c, 0, 60, 0
1, 136952, Poly_aftertouch_c, 0, 60, 0
1, 137244, Note_on_c, 0, 63, 84
1, 137327, Note_on_c, 0, 63, 0
1, 137357, Control_c, 0, 64, 112
1, 137376, Control_c, 0, 64, 89
1, 137394, Control_c, 0, 64, 63
1, 137396, Note_on_c, 0, 62, 88
1, 137413, Control_c, 0, 64, 0
1, 137520, Control_c, 0, 64, 16
1, 137538, Control_c, 0, 64, 56
1, 137556, Control_c, 0, 64, 72
1, 137574, Control_c, 0, 64, 83
1, 137593, Control_c, 0, 64, 97
1, 137611, Control_c, 0, 64, 112
1, 137630, Control_c, 0, 64, 124
1, 137663, Poly_aftertouch_c, 0, 50, 20
1, 137669, Note_on_c, 0, 50, 0
1, 137669, Poly_aftertouch_c, 0, 50, 0
1, 137670, Note_on_c, 0, 57, 0
1, 137670, Poly_aftertouch_c, 0, 50, 0
1, 137895, Note_on_c, 0, 62, 0
1, 138179, Note_on_c, 0, 60, 88
1, 138237, Note_on_c, 0, 66, 0
1, 138352, Note_on_c, 0, 67, 89
1, 138367, Note_on_c, 0, 43, 88
1, 138369, Note_on_c, 0, 55, 90
1, 138417, Control_c, 0, 64, 96
1, 138436, Control_c, 0, 64, 62
1, 138455, Control_c, 0, 64, 0
1, 138584, Control_c, 0, 64, 45
1, 138602, Control_c, 0, 64, 67
1, 138621, Control_c, 0, 64, 77
1, 138639, Control_c, 0, 64, 84
1, 138657, Control_c, 0, 64, 93
1, 138674, Control_c, 0, 64, 103
1, 138693, Control_c, 0, 64, 113
1, 138710, Control_c, 0, 64, 121
1, 138729, Control_c, 0, 64, 127
1, 138835, Note_on_c, 0, 60, 0
1, 139279, Note_on_c, 0, 57, 91
1, 139358, Note_on_c, 0, 57, 0
1, 139408, Control_c, 0, 64, 112
1, 139425, Control_c, 0, 64, 88
1, 139440, Note_on_c, 0, 59, 88
1, 139444, Control_c, 0, 64, 64
1, 139463, Control_c, 0, 64, 29
1, 139481, Control_c, 0, 64, 0
1, 139628, Control_c, 0, 64, 32
1, 139645, Control_c, 0, 64, 55
1, 139664, Control_c, 0, 64, 67
1, 139683, Control_c, 0, 64, 75
1, 139701, Control_c, 0, 64, 83
1, 139720, Control_c, 0, 64, 92
1, 139739, Control_c, 0, 64, 99
1, 139758, Control_c, 0, 64, 104
1, 139795, Control_c, 0, 64, 108
1, 139832, Control_c, 0, 64, 112
1, 139868, Control_c, 0, 64, 117
1, 139922, Control_c, 0, 64, 122
1, 139941, Control_c, 0, 64, 126
1, 140154, Note_on_c, 0, 67, 0
1, 140232, Note_on_c, 0, 65, 88
1, 140336, Note_on_c, 0, 65, 0
1, 140397, Control_c, 0, 64, 110
1, 140400, Note_on_c, 0, 63, 86
1, 140415, Control_c, 0, 64, 90
1, 140436, Control_c, 0, 64, 66
1, 140453, Control_c, 0, 64, 18
1, 140472, Control_c, 0, 64, 0
1, 140599, Control_c, 0, 64, 29
1, 140618, Control_c, 0, 64, 56
1, 140635, Poly_aftertouch_c, 0, 59, 24
1, 140635, Control_c, 0, 64, 68
1, 140653, Note_on_c, 0, 59, 0
1, 140653, Poly_aftertouch_c, 0, 59, 0
1, 140655, Control_c, 0, 64, 76
1, 140675, Control_c, 0, 64, 83
1, 140692, Control_c, 0, 64, 92
1, 140711, Control_c, 0, 64, 102
1, 140730, Control_c, 0, 64, 110
1, 140747, Control_c, 0, 64, 115
1, 140765, Control_c, 0, 64, 120
1, 140784, Control_c, 0, 64, 124
1, 141178, Note_on_c, 0, 59, 84
1, 141255, Note_on_c, 0, 59, 0
1, 141277, Control_c, 0, 64, 114
1, 141295, Control_c, 0, 64, 100
1, 141314, Control_c, 0, 64, 84
1, 141333, Control_c, 0, 64, 66
1, 141342, Note_on_c, 0, 60, 82
1, 141350, Control_c, 0, 64, 23
1, 141369, Control_c, 0, 64, 0
1, 141498, Control_c, 0, 64, 30
1, 141517, Control_c, 0, 64, 56
1, 141535, Control_c, 0, 64, 68
1, 141553, Control_c, 0, 64, 76
1, 141570, Control_c, 0, 64, 83
1, 141590, Control_c, 0, 64, 92
1, 141609, Control_c, 0, 64, 103
1, 141628, Control_c, 0, 64, 114
1, 141643, Poly_aftertouch_c, 0, 55, 24
1, 141645, Control_c, 0, 64, 122
1, 141665, Control_c, 0, 64, 127
1, 141673, Note_on_c, 0, 55, 0
1, 141673, Poly_aftertouch_c, 0, 55, 0
1, 141699, Note_on_c, 0, 63, 0
1, 142132, Note_on_c, 0, 63, 86
1, 142200, Note_on_c, 0, 54, 51
1, 142246, Note_on_c, 0, 54, 0
1, 142247, Note_on_c, 0, 63, 0
1, 142298, Note_on_c, 0, 62, 83
1, 142303, Control_c, 0, 64, 118
1, 142323, Control_c, 0, 64, 100
1, 142343, Control_c, 0, 64, 78
1, 142349, Note_on_c, 0, 55, 52
1, 142360, Control_c, 0, 64, 52
1, 142379, Control_c, 0, 64, 0
1, 142564, Control_c, 0, 64, 34
1, 142581, Control_c, 0, 64, 56
1, 142599, Control_c, 0, 64, 68
1, 142610, Note_on_c, 0, 60, 0
1, 142616, Control_c, 0, 64, 75
1, 142635, Control_c, 0, 64, 81
1, 142653, Control_c, 0, 64, 88
1, 142673, Control_c, 0, 64, 94
1, 142689, Control_c, 0, 64, 100
1, 142709, Control_c, 0, 64, 105
1, 142727, Control_c, 0, 64, 109
1, 142764, Control_c, 0, 64, 115
1, 142801, Control_c, 0, 64, 120
1, 142839, Control_c, 0, 64, 124
1, 143055, Note_on_c, 0, 60, 75
1, 143092, Control_c, 0, 64, 120
1, 143129, Control_c, 0, 64, 112
1, 143137, Note_on_c, 0, 60, 0
1, 143146, Control_c, 0, 64, 102
1, 143166, Control_c, 0, 64, 87
1, 143183, Control_c, 0, 64, 67
1, 143202, Control_c, 0, 64, 20
1, 143219, Note_on_c, 0, 59, 69
1, 143221, Control_c, 0, 64, 0
1, 143239, Control_c, 0, 67, 8
1, 143295, Control_c, 0, 64, 23
1, 143296, Control_c, 0, 67, 12
1, 143314, Control_c, 0, 64, 52
1, 143331, Control_c, 0, 64, 67
1, 143332, Control_c, 0, 67, 17
1, 143350, Control_c, 0, 64, 76
1, 143368, Control_c, 0, 64, 85
1, 143387, Control_c, 0, 64, 97
1, 143389, Control_c, 0, 67, 22
1, 143404, Control_c, 0, 64, 109
1, 143424, Control_c, 0, 64, 119
1, 143425, Control_c, 0, 67, 26
1, 143441, Control_c, 0, 64, 125
1, 143459, Control_c, 0, 67, 32
1, 143470, Note_on_c, 0, 59, 0
1, 143515, Control_c, 0, 67, 36
1, 143544, Note_on_c, 0, 62, 0
1, 143680, Control_c, 0, 67, 40
1, 143876, Poly_aftertouch_c, 0, 43, 24
1, 143939, Note_on_c, 0, 55, 0
1, 143943, Note_on_c, 0, 67, 75
1, 143973, Note_on_c, 0, 53, 59
1, 144070, Note_on_c, 0, 53, 0
1, 144100, Note_on_c, 0, 51, 56
1, 144192, Control_c, 0, 64, 119
1, 144209, Control_c, 0, 64, 112
1, 144229, Control_c, 0, 64, 102
1, 144246, Control_c, 0, 64, 91
1, 144251, Note_on_c, 0, 77, 81
1, 144256, Note_on_c, 0, 51, 0
1, 144266, Control_c, 0, 64, 76
1, 144285, Control_c, 0, 64, 59
1, 144303, Control_c, 0, 64, 37
1, 144307, Note_on_c, 0, 50, 47
1, 144322, Control_c, 0, 64, 15
1, 144338, Control_c, 0, 64, 0
1, 144369, Poly_aftertouch_c, 0, 43, 32
1, 144428, Note_on_c, 0, 67, 0
1, 144451, Control_c, 0, 64, 20
1, 144469, Control_c, 0, 64, 43
1, 144486, Control_c, 0, 64, 58
1, 144506, Control_c, 0, 64, 66
1, 144524, Control_c, 0, 64, 71
1, 144525, Control_c, 0, 67, 47
1, 144543, Control_c, 0, 64, 77
1, 144548, Note_on_c, 0, 43, 0
1, 144548, Poly_aftertouch_c, 0, 43, 0
1, 144549, Poly_aftertouch_c, 0, 43, 0
1, 144560, Control_c, 0, 64, 83
1, 144561, Control_c, 0, 67, 51
1, 144578, Control_c, 0, 64, 91
1, 144596, Control_c, 0, 64, 98
1, 144615, Control_c, 0, 64, 106
1, 144633, Control_c, 0, 64, 113
1, 144653, Control_c, 0, 64, 120
1, 144671, Control_c, 0, 64, 124
1, 145013, Note_on_c, 0, 72, 71
1, 145043, Note_on_c, 0, 43, 43
1, 145088, Note_on_c, 0, 72, 0
1, 145091, Control_c, 0, 64, 118
1, 145098, Note_on_c, 0, 50, 0
1, 145109, Control_c, 0, 64, 105
1, 145126, Control_c, 0, 64, 88
1, 145144, Control_c, 0, 64, 68
1, 145163, Control_c, 0, 64, 32
1, 145175, Note_on_c, 0, 71, 67
1, 145181, Control_c, 0, 64, 0
1, 145213, Note_on_c, 0, 55, 43
1, 145238, Control_c, 0, 67, 46
1, 145256, Control_c, 0, 67, 37
1, 145273, Control_c, 0, 67, 20
1, 145312, Control_c, 0, 64, 37
1, 145313, Control_c, 0, 67, 0
1, 145329, Control_c, 0, 64, 56
1, 145346, Control_c, 0, 64, 66
1, 145365, Control_c, 0, 64, 72
1, 145384, Control_c, 0, 64, 77
1, 145402, Control_c, 0, 64, 82
1, 145421, Control_c, 0, 64, 90
1, 145439, Control_c, 0, 64, 101
1, 145460, Control_c, 0, 64, 112
1, 145476, Control_c, 0, 64, 120
1, 145494, Control_c, 0, 64, 125
1, 145928, Note_on_c, 0, 74, 77
1, 145998, Note_on_c, 0, 77, 0
1, 146006, Note_on_c, 0, 74, 0
1, 146096, Note_on_c, 0, 75, 77
1, 146097, Control_c, 0, 64, 114
1, 146118, Control_c, 0, 64, 101
1, 146135, Control_c, 0, 64, 82
1, 146154, Control_c, 0, 64, 57
1, 146173, Control_c, 0, 64, 0
1, 146264, Control_c, 0, 64, 15
1, 146281, Control_c, 0, 64, 50
1, 146286, Note_on_c, 0, 71, 0
1, 146299, Control_c, 0, 64, 68
1, 146320, Control_c, 0, 64, 77
1, 146338, Control_c, 0, 64, 87
1, 146356, Control_c, 0, 64, 97
1, 146375, Control_c, 0, 64, 107
1, 146394, Control_c, 0, 64, 114
1, 146412, Control_c, 0, 64, 118
1, 146448, Control_c, 0, 64, 123
1, 146485, Control_c, 0, 64, 127
1, 146857, Note_on_c, 0, 55, 0
1, 146865, Note_on_c, 0, 67, 75
1, 146886, Note_on_c, 0, 53, 51
1, 146931, Note_on_c, 0, 67, 0
1, 146956, Note_on_c, 0, 53, 0
1, 146980, Control_c, 0, 64, 116
1, 146996, Control_c, 0, 64, 107
1, 147014, Control_c, 0, 64, 98
1, 147024, Note_on_c, 0, 72, 76
1, 147032, Control_c, 0, 64, 87
1, 147052, Control_c, 0, 64, 71
1, 147053, Note_on_c, 0, 51, 50
1, 147070, Control_c, 0, 64, 47
1, 147088, Control_c, 0, 64, 0
1, 147200, Control_c, 0, 64, 34
1, 147216, Control_c, 0, 64, 59
1, 147235, Control_c, 0, 64, 71
1, 147253, Control_c, 0, 64, 80
1, 147273, Control_c, 0, 64, 88
1, 147290, Control_c, 0, 64, 96
1, 147310, Control_c, 0, 64, 106
1, 147328, Control_c, 0, 64, 115
1, 147347, Control_c, 0, 64, 121
1, 147383, Control_c, 0, 64, 126
1, 147434, Note_on_c, 0, 75, 0
1, 147437, Note_on_c, 0, 51, 0
1, 147791, Note_on_c, 0, 74, 82
1, 147856, Note_on_c, 0, 55, 35
1, 147892, Note_on_c, 0, 74, 0
1, 147902, Note_on_c, 0, 55, 0
1, 147949, Control_c, 0, 64, 120
1, 147965, Note_on_c, 0, 75, 81
1, 147966, Control_c, 0, 64, 110
1, 147986, Control_c, 0, 64, 97
1, 148005, Control_c, 0, 64, 81
1, 148022, Note_on_c, 0, 48, 37
1, 148022, Control_c, 0, 64, 63
1, 148042, Control_c, 0, 64, 34
1, 148063, Control_c, 0, 64, 0
1, 148110, Note_on_c, 0, 72, 0
1, 148141, Poly_aftertouch_c, 0, 43, 24
1, 148151, Control_c, 0, 64, 19
1, 148169, Control_c, 0, 64, 43
1, 148189, Control_c, 0, 64, 61
1, 148207, Control_c, 0, 64, 70
1, 148226, Control_c, 0, 64, 77
1, 148244, Control_c, 0, 64, 83
1, 148264, Control_c, 0, 64, 91
1, 148283, Control_c, 0, 64, 102
1, 148283, Control_c, 0, 67, 9
1, 148300, Control_c, 0, 64, 113
1, 148317, Control_c, 0, 64, 121
1, 148319, Control_c, 0, 67, 20
1, 148337, Control_c, 0, 64, 126
1, 148338, Control_c, 0, 67, 35
1, 148355, Control_c, 0, 67, 47
1, 148373, Control_c, 0, 67, 53
1, 148385, Poly_aftertouch_c, 0, 43, 32
1, 148409, Control_c, 0, 67, 57
1, 148646, Poly_aftertouch_c, 0, 43, 24
1, 148767, Note_on_c, 0, 72, 79
1, 148772, Note_on_c, 0, 75, 0
1, 148775, Note_on_c, 0, 51, 53
1, 148833, Note_on_c, 0, 48, 0
1, 148838, Note_on_c, 0, 51, 0
1, 148858, Note_on_c, 0, 50, 64
1, 148941, Control_c, 0, 64, 120
1, 148949, Note_on_c, 0, 50, 0
1, 148959, Control_c, 0, 64, 108
1, 148978, Control_c, 0, 64, 93
1, 148982, Note_on_c, 0, 79, 80
1, 148983, Note_on_c, 0, 51, 63
1, 148997, Control_c, 0, 64, 79
1, 149013, Control_c, 0, 64, 63
1, 149033, Control_c, 0, 64, 42
1, 149051, Control_c, 0, 64, 0
1, 149199, Control_c, 0, 67, 53
1, 149217, Control_c, 0, 64, 25
1, 149234, Control_c, 0, 64, 52
1, 149252, Control_c, 0, 64, 66
1, 149254, Control_c, 0, 67, 46
1, 149272, Control_c, 0, 64, 73
1, 149273, Control_c, 0, 67, 35
1, 149291, Control_c, 0, 64, 78
1, 149292, Control_c, 0, 67, 17
1, 149308, Control_c, 0, 64, 82
1, 149326, Control_c, 0, 64, 86
1, 149328, Control_c, 0, 67, 0
1, 149344, Control_c, 0, 64, 90
1, 149363, Control_c, 0, 64, 95
1, 149365, Poly_aftertouch_c, 0, 43, 32
1, 149400, Control_c, 0, 64, 102
1, 149418, Control_c, 0, 64, 107
1, 149438, Control_c, 0, 64, 112
1, 149455, Control_c, 0, 64, 117
1, 149491, Control_c, 0, 64, 123
1, 149584, Control_c, 0, 64, 127
1, 149846, Note_on_c, 0, 78, 80
1, 149871, Note_on_c, 0, 79, 0
1, 149942, Note_on_c, 0, 78, 0
1, 149986, Control_c, 0, 64, 121
1, 150004, Control_c, 0, 64, 114
1, 150022, Control_c, 0, 64, 102
1, 150032, Note_on_c, 0, 79, 83
1, 150038, Control_c, 0, 64, 89
1, 150059, Control_c, 0, 64, 77
1, 150076, Control_c, 0, 64, 66
1, 150081, Poly_aftertouch_c, 0, 43, 24
1, 150088, Note_on_c, 0, 50, 43
1, 150094, Control_c, 0, 64, 53
1, 150114, Control_c, 0, 64, 29
1, 150133, Control_c, 0, 64, 0
1, 150148, Note_on_c, 0, 51, 0
1, 150297, Control_c, 0, 64, 16
1, 150316, Control_c, 0, 64, 43
1, 150324, Note_on_c, 0, 72, 0
1, 150335, Control_c, 0, 64, 59
1, 150354, Control_c, 0, 64, 68
1, 150374, Control_c, 0, 64, 72
1, 150378, Poly_aftertouch_c, 0, 43, 32
1, 150390, Control_c, 0, 64, 76
1, 150408, Control_c, 0, 64, 80
1, 150426, Control_c, 0, 64, 86
1, 150446, Control_c, 0, 64, 95
1, 150463, Control_c, 0, 64, 106
1, 150480, Control_c, 0, 64, 116
1, 150499, Control_c, 0, 64, 121
1, 150556, Control_c, 0, 64, 125
1, 150899, Note_on_c, 0, 72, 77
1, 150977, Note_on_c, 0, 72, 0
1, 151012, Control_c, 0, 64, 117
1, 151032, Control_c, 0, 64, 107
1, 151049, Control_c, 0, 64, 97
1, 151067, Note_on_c, 0, 74, 74
1, 151069, Control_c, 0, 64, 85
1, 151088, Control_c, 0, 64, 71
1, 151105, Control_c, 0, 64, 55
1, 151122, Control_c, 0, 64, 37
1, 151140, Control_c, 0, 64, 22
1, 151159, Control_c, 0, 64, 0
1, 151308, Control_c, 0, 64, 25
1, 151325, Control_c, 0, 64, 39
1, 151343, Control_c, 0, 64, 52
1, 151361, Control_c, 0, 64, 60
1, 151381, Control_c, 0, 64, 65
1, 151399, Control_c, 0, 64, 67
1, 151416, Control_c, 0, 64, 69
1, 151434, Control_c, 0, 64, 72
1, 151455, Control_c, 0, 64, 75
1, 151471, Control_c, 0, 64, 78
1, 151491, Control_c, 0, 64, 83
1, 151525, Control_c, 0, 64, 88
1, 151543, Control_c, 0, 64, 93
1, 151562, Control_c, 0, 64, 99
1, 151580, Control_c, 0, 64, 103
1, 151616, Control_c, 0, 64, 108
1, 151690, Control_c, 0, 64, 113
1, 151782, Control_c, 0, 64, 117
1, 151947, Control_c, 0, 67, 9
1, 151983, Control_c, 0, 67, 14
1, 152004, Control_c, 0, 67, 21
1, 152021, Control_c, 0, 67, 27
1, 152160, Note_on_c, 0, 69, 68
1, 152262, Note_on_c, 0, 69, 0
1, 152315, Control_c, 0, 64, 113
1, 152350, Control_c, 0, 64, 105
1, 152370, Control_c, 0, 64, 96
1, 152378, Note_on_c, 0, 71, 67
1, 152388, Control_c, 0, 64, 85
1, 152407, Control_c, 0, 64, 72
1, 152425, Control_c, 0, 64, 57
1, 152459, Control_c, 0, 64, 43
1, 152478, Control_c, 0, 64, 34
1, 152496, Control_c, 0, 64, 15
1, 152514, Control_c, 0, 64, 0
1, 153029, Control_c, 0, 64, 19
1, 153050, Control_c, 0, 64, 29
1, 153065, Control_c, 0, 64, 37
1, 153083, Control_c, 0, 64, 45
1, 153102, Control_c, 0, 64, 52
1, 153122, Control_c, 0, 64, 58
1, 153139, Control_c, 0, 64, 61
1, 153157, Control_c, 0, 64, 64
1, 153177, Control_c, 0, 64, 65
1, 153196, Control_c, 0, 64, 66
1, 153230, Control_c, 0, 64, 68
1, 153268, Control_c, 0, 64, 70
1, 153287, Control_c, 0, 64, 72
1, 153323, Control_c, 0, 64, 74
1, 153412, Control_c, 0, 64, 77
1, 153449, Control_c, 0, 64, 80
1, 153486, Control_c, 0, 64, 82
1, 153559, Control_c, 0, 64, 84
1, 153596, Control_c, 0, 64, 87
1, 153688, Control_c, 0, 64, 91
1, 153798, Control_c, 0, 64, 96
1, 153964, Control_c, 0, 64, 100
1, 154222, Control_c, 0, 64, 104
1, 155263, Poly_aftertouch_c, 0, 79, 24
1, 155441, Poly_aftertouch_c, 0, 43, 24
1, 155511, Poly_aftertouch_c, 0, 79, 32
1, 155613, Control_c, 0, 64, 98
1, 155632, Control_c, 0, 64, 93
1, 155636, Note_on_c, 0, 43, 0
1, 155636, Poly_aftertouch_c, 0, 43, 0
1, 155637, Poly_aftertouch_c, 0, 43, 0
1, 155638, Note_on_c, 0, 79, 0
1, 155638, Poly_aftertouch_c, 0, 79, 0
1, 155639, Poly_aftertouch_c, 0, 79, 0
1, 155646, Note_on_c, 0, 74, 0
1, 155649, Control_c, 0, 64, 83
1, 155653, Note_on_c, 0, 50, 0
1, 155657, Note_on_c, 0, 71, 0
1, 155668, Control_c, 0, 64, 69
1, 155687, Control_c, 0, 64, 54
1, 155705, Control_c, 0, 64, 37
1, 155724, Control_c, 0, 64, 31
1, 155761, Control_c, 0, 64, 25
1, 156916, Control_c, 0, 67, 21
1, 156935, Control_c, 0, 67, 16
1, 156954, Control_c, 0, 67, 10
1, 157099, Control_c, 0, 67, 0
1, 157376, Note_on_c, 0, 62, 75
1, 157502, Control_c, 0, 64, 19
1, 157519, Control_c, 0, 64, 13
1, 157537, Control_c, 0, 64, 0
1, 157570, Note_on_c, 0, 62, 0
1, 158125, Note_on_c, 0, 58, 85
1, 158175, Note_on_c, 0, 58, 0
1, 158414, Note_on_c, 0, 63, 83
1, 158541, Note_on_c, 0, 63, 0
1, 158902, Note_on_c, 0, 60, 82
1, 159099, Note_on_c, 0, 60, 0
1, 159665, Note_on_c, 0, 57, 78
1, 159670, Note_on_c, 0, 55, 62
1, 159701, Note_on_c, 0, 57, 0
1, 159701, Note_on_c, 0, 55, 0
1, 159940, Note_on_c, 0, 62, 90
1, 160064, Note_on_c, 0, 62, 0
1, 160419, Note_on_c, 0, 58, 81
1, 160601, Note_on_c, 0, 58, 0
1, 161116, Note_on_c, 0, 55, 79
1, 161171, Note_on_c, 0, 55, 0
1, 161372, Note_on_c, 0, 60, 80
1, 161415, Note_on_c, 0, 60, 0
1, 161635, Note_on_c, 0, 60, 76
1, 161682, Note_on_c, 0, 60, 0
1, 161910, Note_on_c, 0, 60, 78
1, 161945, Note_on_c, 0, 60, 0
1, 162170, Note_on_c, 0, 60, 81
1, 162217, Note_on_c, 0, 60, 0
1, 162423, Note_on_c, 0, 60, 86
1, 162471, Note_on_c, 0, 60, 0
1, 162684, Note_on_c, 0, 60, 86
1, 162738, Note_on_c, 0, 60, 0
1, 162961, Note_on_c, 0, 60, 82
1, 163167, Note_on_c, 0, 60, 0
1, 163210, Note_on_c, 0, 58, 79
1, 163262, Note_on_c, 0, 58, 0
1, 163317, Note_on_c, 0, 57, 79
1, 163384, Note_on_c, 0, 57, 0
1, 163447, Note_on_c, 0, 67, 87
1, 163464, Note_on_c, 0, 58, 72
1, 163519, Note_on_c, 0, 58, 0
1, 163571, Note_on_c, 0, 55, 70
1, 163630, Note_on_c, 0, 55, 0
1, 163711, Note_on_c, 0, 58, 75
1, 163766, Note_on_c, 0, 58, 0
1, 163809, Note_on_c, 0, 67, 0
1, 163837, Note_on_c, 0, 60, 78
1, 163888, Note_on_c, 0, 60, 0
1, 163975, Note_on_c, 0, 62, 87
1, 164025, Note_on_c, 0, 62, 0
1, 164080, Note_on_c, 0, 61, 82
1, 164135, Note_on_c, 0, 61, 0
1, 164206, Note_on_c, 0, 65, 92
1, 164216, Note_on_c, 0, 62, 86
1, 164247, Note_on_c, 0, 62, 0
1, 164272, Note_on_c, 0, 65, 0
1, 164461, Note_on_c, 0, 70, 93
1, 164482, Note_on_c, 0, 62, 73
1, 164543, Note_on_c, 0, 62, 0
1, 164671, Note_on_c, 0, 70, 0
1, 164746, Note_on_c, 0, 55, 79
1, 164778, Note_on_c, 0, 55, 0
1, 164984, Note_on_c, 0, 67, 90
1, 165091, Note_on_c, 0, 55, 77
1, 165150, Note_on_c, 0, 55, 0
1, 165219, Note_on_c, 0, 57, 84
1, 165223, Note_on_c, 0, 67, 0
1, 165265, Note_on_c, 0, 57, 0
1, 165330, Note_on_c, 0, 58, 85
1, 165381, Note_on_c, 0, 58, 0
1, 165462, Note_on_c, 0, 60, 86
1, 165511, Note_on_c, 0, 60, 0
1, 165603, Note_on_c, 0, 58, 87
1, 165653, Note_on_c, 0, 58, 0
1, 165729, Note_on_c, 0, 60, 84
1, 165730, Note_on_c, 0, 64, 92
1, 165758, Note_on_c, 0, 60, 0
1, 165775, Note_on_c, 0, 64, 0
1, 165991, Note_on_c, 0, 69, 92
1, 166007, Note_on_c, 0, 60, 76
1, 166038, Note_on_c, 0, 60, 0
1, 166155, Note_on_c, 0, 69, 0
1, 166248, Note_on_c, 0, 53, 82
1, 166290, Note_on_c, 0, 53, 0
1, 166504, Note_on_c, 0, 65, 89
1, 166631, Note_on_c, 0, 53, 77
1, 166685, Note_on_c, 0, 53, 0
1, 166750, Note_on_c, 0, 55, 82
1, 166751, Note_on_c, 0, 65, 0
1, 166796, Note_on_c, 0, 55, 0
1, 166870, Note_on_c, 0, 57, 84
1, 166930, Note_on_c, 0, 57, 0
1, 167008, Note_on_c, 0, 58, 88
1, 167061, Note_on_c, 0, 58, 0
1, 167122, Note_on_c, 0, 57, 81
1, 167167, Note_on_c, 0, 57, 0
1, 167250, Note_on_c, 0, 62, 86
1, 167252, Note_on_c, 0, 58, 85
1, 167301, Note_on_c, 0, 62, 0
1, 167522, Note_on_c, 0, 67, 85
1, 167564, Note_on_c, 0, 67, 0
1, 167572, Note_on_c, 0, 58, 0
1, 167645, Note_on_c, 0, 57, 72
1, 167686, Note_on_c, 0, 57, 0
1, 167772, Note_on_c, 0, 67, 80
1, 167776, Note_on_c, 0, 58, 65
1, 167816, Note_on_c, 0, 58, 0
1, 167821, Note_on_c, 0, 67, 0
1, 167882, Note_on_c, 0, 57, 67
1, 167925, Note_on_c, 0, 57, 0
1, 168011, Note_on_c, 0, 55, 75
1, 168020, Note_on_c, 0, 67, 86
1, 168054, Note_on_c, 0, 55, 0
1, 168070, Note_on_c, 0, 67, 0
1, 168130, Note_on_c, 0, 53, 75
1, 168189, Note_on_c, 0, 53, 0
1, 168268, Note_on_c, 0, 55, 72
1, 168270, Note_on_c, 0, 67, 89
1, 168311, Note_on_c, 0, 55, 0
1, 168332, Note_on_c, 0, 67, 0
1, 168402, Note_on_c, 0, 53, 80
1, 168452, Note_on_c, 0, 53, 0
1, 168537, Note_on_c, 0, 52, 83
1, 168539, Note_on_c, 0, 67, 88
1, 168580, Note_on_c, 0, 52, 0
1, 168601, Note_on_c, 0, 67, 0
1, 168657, Note_on_c, 0, 50, 83
1, 168722, Note_on_c, 0, 50, 0
1, 168787, Note_on_c, 0, 52, 85
1, 168793, Note_on_c, 0, 67, 85
1, 168832, Note_on_c, 0, 52, 0
1, 168857, Note_on_c, 0, 67, 0
1, 168914, Note_on_c, 0, 50, 81
1, 168963, Note_on_c, 0, 50, 0
1, 169052, Note_on_c, 0, 67, 88
1, 169064, Note_on_c, 0, 49, 78
1, 169104, Note_on_c, 0, 49, 0
1, 169297, Note_on_c, 0, 67, 0
1, 169340, Note_on_c, 0, 65, 86
1, 169340, Note_on_c, 0, 57, 63
1, 169376, Note_on_c, 0, 57, 0
1, 169391, Note_on_c, 0, 65, 0
1, 169449, Note_on_c, 0, 64, 82
1, 169519, Note_on_c, 0, 64, 0
1, 169583, Note_on_c, 0, 74, 93
1, 169596, Note_on_c, 0, 65, 79
1, 169600, Note_on_c, 0, 50, 68
1, 169632, Note_on_c, 0, 50, 0
1, 169633, Note_on_c, 0, 65, 0
1, 169703, Note_on_c, 0, 62, 76
1, 169768, Note_on_c, 0, 62, 0
1, 169826, Note_on_c, 0, 60, 70
1, 169838, Note_on_c, 0, 64, 81
1, 169857, Note_on_c, 0, 60, 0
1, 169876, Note_on_c, 0, 74, 0
1, 169903, Note_on_c, 0, 64, 0
1, 169946, Note_on_c, 0, 66, 82
1, 170013, Note_on_c, 0, 66, 0
1, 170079, Note_on_c, 0, 67, 88
1, 170087, Note_on_c, 0, 58, 71
1, 170117, Note_on_c, 0, 58, 0
1, 170129, Note_on_c, 0, 67, 0
1, 170194, Note_on_c, 0, 66, 87
1, 170271, Note_on_c, 0, 66, 0
1, 170338, Note_on_c, 0, 70, 88
1, 170341, Note_on_c, 0, 67, 88
1, 170347, Note_on_c, 0, 55, 74
1, 170378, Note_on_c, 0, 55, 0
1, 170416, Note_on_c, 0, 67, 0
1, 170505, Note_on_c, 0, 70, 0
1, 170597, Note_on_c, 0, 75, 93
1, 170607, Note_on_c, 0, 67, 84
1, 170619, Note_on_c, 0, 60, 72
1, 170658, Note_on_c, 0, 60, 0
1, 170731, Note_on_c, 0, 58, 77
1, 170783, Note_on_c, 0, 58, 0
1, 170832, Note_on_c, 0, 75, 0
1, 170846, Note_on_c, 0, 60, 81
1, 170895, Note_on_c, 0, 60, 0
1, 170955, Note_on_c, 0, 58, 82
1, 171012, Note_on_c, 0, 58, 0
1, 171088, Note_on_c, 0, 72, 89
1, 171095, Note_on_c, 0, 57, 87
1, 171110, Note_on_c, 0, 67, 0
1, 171227, Note_on_c, 0, 60, 80
1, 171289, Note_on_c, 0, 60, 0
1, 171296, Note_on_c, 0, 57, 0
1, 171344, Note_on_c, 0, 62, 81
1, 171393, Note_on_c, 0, 62, 0
1, 171428, Note_on_c, 0, 72, 0
1, 171447, Note_on_c, 0, 55, 82
1, 171454, Note_on_c, 0, 63, 82
1, 171494, Note_on_c, 0, 55, 0
1, 171516, Note_on_c, 0, 63, 0
1, 171584, Note_on_c, 0, 57, 84
1, 171585, Note_on_c, 0, 65, 88
1, 171610, Note_on_c, 0, 57, 0
1, 171650, Note_on_c, 0, 65, 0
1, 171695, Note_on_c, 0, 63, 86
1, 171747, Note_on_c, 0, 63, 0
1, 171824, Note_on_c, 0, 69, 92
1, 171830, Note_on_c, 0, 65, 84
1, 171845, Note_on_c, 0, 53, 77
1, 171880, Note_on_c, 0, 65, 0
1, 171920, Note_on_c, 0, 69, 0
1, 172025, Note_on_c, 0, 53, 0
1, 172098, Note_on_c, 0, 74, 93
1, 172115, Note_on_c, 0, 58, 71
1, 172119, Note_on_c, 0, 65, 80
1, 172168, Note_on_c, 0, 58, 0
1, 172220, Note_on_c, 0, 57, 75
1, 172262, Note_on_c, 0, 57, 0
1, 172345, Note_on_c, 0, 58, 82
1, 172396, Note_on_c, 0, 74, 0
1, 172405, Note_on_c, 0, 58, 0
1, 172472, Note_on_c, 0, 57, 82
1, 172518, Note_on_c, 0, 57, 0
1, 172593, Note_on_c, 0, 70, 90
1, 172597, Note_on_c, 0, 55, 84
1, 172634, Note_on_c, 0, 65, 0
1, 172665, Note_on_c, 0, 55, 0
1, 172708, Note_on_c, 0, 58, 80
1, 172771, Note_on_c, 0, 58, 0
1, 172830, Note_on_c, 0, 60, 80
1, 172833, Note_on_c, 0, 57, 80
1, 172874, Note_on_c, 0, 60, 0
1, 172883, Note_on_c, 0, 57, 0
1, 172948, Note_on_c, 0, 58, 85
1, 172952, Note_on_c, 0, 62, 82
1, 173005, Note_on_c, 0, 58, 0
1, 173005, Note_on_c, 0, 62, 0
1, 173046, Note_on_c, 0, 70, 0
1, 173095, Note_on_c, 0, 60, 76
1, 173098, Note_on_c, 0, 63, 87
1, 173156, Note_on_c, 0, 63, 0
1, 173211, Note_on_c, 0, 62, 87
1, 173276, Note_on_c, 0, 62, 0
1, 173335, Note_on_c, 0, 67, 93
1, 173358, Note_on_c, 0, 63, 71
1, 173379, Note_on_c, 0, 60, 0
1, 173450, Note_on_c, 0, 58, 71
1, 173464, Note_on_c, 0, 67, 0
1, 173487, Note_on_c, 0, 58, 0
1, 173583, Note_on_c, 0, 72, 80
1, 173595, Note_on_c, 0, 63, 0
1, 173596, Note_on_c, 0, 57, 63
1, 173704, Note_on_c, 0, 62, 74
1, 173714, Note_on_c, 0, 72, 0
1, 173743, Note_on_c, 0, 62, 0
1, 173836, Note_on_c, 0, 72, 77
1, 173841, Note_on_c, 0, 63, 78
1, 173885, Note_on_c, 0, 63, 0
1, 173951, Note_on_c, 0, 62, 75
1, 173982, Note_on_c, 0, 72, 0
1, 174024, Note_on_c, 0, 62, 0
1, 174100, Note_on_c, 0, 57, 0
1, 174104, Note_on_c, 0, 72, 85
1, 174112, Note_on_c, 0, 60, 70
1, 174149, Note_on_c, 0, 72, 0
1, 174173, Note_on_c, 0, 60, 0
1, 174206, Note_on_c, 0, 58, 74
1, 174286, Note_on_c, 0, 58, 0
1, 174334, Note_on_c, 0, 72, 88
1, 174336, Note_on_c, 0, 60, 76
1, 174346, Note_on_c, 0, 55, 72
1, 174369, Note_on_c, 0, 60, 0
1, 174385, Note_on_c, 0, 55, 0
1, 174401, Note_on_c, 0, 72, 0
1, 174447, Note_on_c, 0, 58, 78
1, 174494, Note_on_c, 0, 58, 0
1, 174578, Note_on_c, 0, 57, 80
1, 174579, Note_on_c, 0, 72, 89
1, 174587, Note_on_c, 0, 54, 79
1, 174621, Note_on_c, 0, 57, 0
1, 174633, Note_on_c, 0, 54, 0
1, 174641, Note_on_c, 0, 72, 0
1, 174696, Note_on_c, 0, 55, 87
1, 174755, Note_on_c, 0, 55, 0
1, 174823, Note_on_c, 0, 57, 86
1, 174824, Note_on_c, 0, 72, 91
1, 174832, Note_on_c, 0, 52, 86
1, 174874, Note_on_c, 0, 57, 0
1, 174883, Note_on_c, 0, 72, 0
1, 174906, Note_on_c, 0, 52, 0
1, 174954, Note_on_c, 0, 55, 87
1, 175013, Note_on_c, 0, 55, 0
1, 175097, Note_on_c, 0, 72, 89
1, 175105, Note_on_c, 0, 50, 81
1, 175105, Note_on_c, 0, 54, 86
1, 175170, Note_on_c, 0, 54, 0
1, 175286, Note_on_c, 0, 72, 0
1, 175349, Note_on_c, 0, 70, 83
1, 175355, Note_on_c, 0, 62, 75
1, 175356, Note_on_c, 0, 54, 90
1, 175371, Note_on_c, 0, 50, 0
1, 175403, Note_on_c, 0, 54, 0
1, 175425, Note_on_c, 0, 70, 0
1, 175468, Note_on_c, 0, 62, 0
1, 175469, Note_on_c, 0, 69, 82
1, 175564, Note_on_c, 0, 69, 0
1, 175602, Note_on_c, 0, 70, 87
1, 175614, Note_on_c, 0, 55, 93
1, 175661, Note_on_c, 0, 70, 0
1, 175728, Note_on_c, 0, 67, 74
1, 175771, Note_on_c, 0, 67, 0
1, 175865, Note_on_c, 0, 67, 81
1, 175869, Note_on_c, 0, 62, 81
1, 175871, Note_on_c, 0, 70, 81
1, 175920, Note_on_c, 0, 62, 0
1, 175933, Note_on_c, 0, 67, 0
1, 175962, Note_on_c, 0, 70, 0
1, 175987, Note_on_c, 0, 64, 85
1, 175994, Note_on_c, 0, 72, 84
1, 176020, Note_on_c, 0, 55, 0
1, 176047, Note_on_c, 0, 64, 0
1, 176056, Note_on_c, 0, 72, 0
1, 176111, Note_on_c, 0, 65, 90
1, 176117, Note_on_c, 0, 74, 88
1, 176171, Note_on_c, 0, 65, 0
1, 176187, Note_on_c, 0, 74, 0
1, 176225, Note_on_c, 0, 64, 87
1, 176227, Note_on_c, 0, 73, 87
1, 176266, Note_on_c, 0, 64, 0
1, 176283, Note_on_c, 0, 73, 0
1, 176355, Note_on_c, 0, 74, 92
1, 176356, Note_on_c, 0, 65, 91
1, 176362, Note_on_c, 0, 53, 86
1, 176477, Note_on_c, 0, 69, 88
1, 176504, Note_on_c, 0, 74, 0
1, 176525, Note_on_c, 0, 53, 0
1, 176534, Note_on_c, 0, 69, 0
1, 176576, Note_on_c, 0, 65, 0
1, 176612, Note_on_c, 0, 74, 97
1, 176614, Note_on_c, 0, 62, 89
1, 176620, Note_on_c, 0, 58, 82
1, 176733, Note_on_c, 0, 69, 82
1, 176736, Note_on_c, 0, 58, 0
1, 176796, Note_on_c, 0, 69, 0
1, 176867, Note_on_c, 0, 67, 88
1, 176907, Note_on_c, 0, 67, 0
1, 176983, Note_on_c, 0, 65, 88
1, 177039, Note_on_c, 0, 65, 0
1, 177105, Note_on_c, 0, 64, 89
1, 177111, Note_on_c, 0, 55, 88
1, 177231, Note_on_c, 0, 67, 85
1, 177265, Note_on_c, 0, 74, 0
1, 177293, Note_on_c, 0, 67, 0
1, 177316, Note_on_c, 0, 62, 0
1, 177357, Note_on_c, 0, 69, 88
1, 177359, Note_on_c, 0, 60, 84
1, 177377, Note_on_c, 0, 64, 0
1, 177377, Note_on_c, 0, 64, 38
1, 177416, Note_on_c, 0, 69, 0
1, 177431, Note_on_c, 0, 60, 0
1, 177449, Note_on_c, 0, 55, 0
1, 177465, Note_on_c, 0, 58, 82
1, 177476, Note_on_c, 0, 70, 88
1, 177524, Note_on_c, 0, 58, 0
1, 177537, Note_on_c, 0, 70, 0
1, 177592, Note_on_c, 0, 57, 87
1, 177597, Note_on_c, 0, 72, 87
1, 177633, Note_on_c, 0, 57, 0
1, 177662, Note_on_c, 0, 72, 0
1, 177730, Note_on_c, 0, 70, 87
1, 177808, Note_on_c, 0, 70, 0
1, 177810, Note_on_c, 0, 64, 0
1, 177842, Note_on_c, 0, 52, 96
1, 177855, Note_on_c, 0, 72, 88
1, 177865, Note_on_c, 0, 55, 68
1, 177899, Note_on_c, 0, 55, 0
1, 177972, Note_on_c, 0, 67, 87
1, 178004, Note_on_c, 0, 72, 0
1, 178033, Note_on_c, 0, 67, 0
1, 178049, Note_on_c, 0, 52, 0
1, 178099, Note_on_c, 0, 60, 90
1, 178104, Note_on_c, 0, 72, 92
1, 178128, Note_on_c, 0, 57, 67
1, 178138, Note_on_c, 0, 55, 72
1, 178169, Note_on_c, 0, 55, 0
1, 178190, Note_on_c, 0, 57, 0
1, 178230, Note_on_c, 0, 67, 88
1, 178280, Note_on_c, 0, 67, 0
1, 178350, Note_on_c, 0, 65, 88
1, 178396, Note_on_c, 0, 65, 0
1, 178464, Note_on_c, 0, 64, 88
1, 178521, Note_on_c, 0, 64, 0
1, 178587, Note_on_c, 0, 53, 91
1, 178588, Note_on_c, 0, 62, 92
1, 178680, Note_on_c, 0, 72, 0
1, 178682, Note_on_c, 0, 60, 0
1, 178724, Note_on_c, 0, 65, 85
1, 178803, Note_on_c, 0, 65, 0
1, 178848, Note_on_c, 0, 67, 85
1, 178859, Note_on_c, 0, 58, 82
1, 178883, Note_on_c, 0, 53, 0
1, 178919, Note_on_c, 0, 58, 0
1, 178922, Note_on_c, 0, 67, 0
1, 178969, Note_on_c, 0, 57, 83
1, 178970, Note_on_c, 0, 69, 82
1, 179017, Note_on_c, 0, 57, 0
1, 179054, Note_on_c, 0, 69, 0
1, 179087, Note_on_c, 0, 62, 0
1, 179087, Note_on_c, 0, 62, 10
1, 179096, Note_on_c, 0, 70, 82
1, 179097, Note_on_c, 0, 55, 91
1, 179122, Note_on_c, 0, 55, 0
1, 179200, Note_on_c, 0, 69, 81
1, 179204, Note_on_c, 0, 70, 0
1, 179334, Note_on_c, 0, 70, 88
1, 179335, Note_on_c, 0, 50, 91
1, 179339, Note_on_c, 0, 53, 87
1, 179347, Note_on_c, 0, 62, 0
1, 179354, Note_on_c, 0, 69, 0
1, 179376, Note_on_c, 0, 53, 0
1, 179448, Note_on_c, 0, 65, 80
1, 179521, Note_on_c, 0, 65, 0
1, 179541, Note_on_c, 0, 50, 0
1, 179597, Note_on_c, 0, 58, 90
1, 179598, Note_on_c, 0, 64, 86
1, 179610, Note_on_c, 0, 55, 75
1, 179633, Note_on_c, 0, 70, 0
1, 179638, Note_on_c, 0, 58, 0
1, 179660, Note_on_c, 0, 55, 0
1, 179710, Note_on_c, 0, 69, 84
1, 179800, Note_on_c, 0, 69, 0
1, 179803, Note_on_c, 0, 64, 0
1, 179842, Note_on_c, 0, 70, 81
1, 179850, Note_on_c, 0, 55, 84
1, 179880, Note_on_c, 0, 55, 0
1, 179904, Note_on_c, 0, 70, 0
1, 179955, Note_on_c, 0, 69, 79
1, 179955, Note_on_c, 0, 65, 80
1, 179994, Note_on_c, 0, 65, 0
1, 180010, Note_on_c, 0, 69, 0
1, 180081, Note_on_c, 0, 67, 85
1, 180086, Note_on_c, 0, 55, 89
1, 180086, Note_on_c, 0, 64, 81
1, 180115, Note_on_c, 0, 55, 0
1, 180195, Note_on_c, 0, 67, 0
1, 180205, Note_on_c, 0, 65, 84
1, 180280, Note_on_c, 0, 65, 0
1, 180324, Note_on_c, 0, 67, 81
1, 180331, Note_on_c, 0, 55, 93
1, 180360, Note_on_c, 0, 55, 0
1, 180382, Note_on_c, 0, 64, 0
1, 180443, Note_on_c, 0, 62, 80
1, 180443, Note_on_c, 0, 65, 77
1, 180448, Note_on_c, 0, 67, 0
1, 180476, Note_on_c, 0, 65, 0
1, 180525, Note_on_c, 0, 62, 0
1, 180582, Note_on_c, 0, 55, 95
1, 180588, Note_on_c, 0, 64, 83
1, 180593, Note_on_c, 0, 61, 82
1, 180616, Note_on_c, 0, 55, 0
1, 180650, Note_on_c, 0, 61, 0
1, 180676, Note_on_c, 0, 64, 0
1, 180708, Note_on_c, 0, 62, 87
1, 180768, Note_on_c, 0, 62, 0
1, 180829, Note_on_c, 0, 55, 88
1, 180829, Note_on_c, 0, 64, 85
1, 180859, Note_on_c, 0, 55, 0
1, 180892, Note_on_c, 0, 64, 0
1, 180944, Note_on_c, 0, 62, 90
1, 181015, Note_on_c, 0, 62, 0
1, 181073, Note_on_c, 0, 61, 85
1, 181078, Note_on_c, 0, 57, 78
1, 181082, Note_on_c, 0, 55, 79
1, 181093, Control_c, 0, 67, 12
1, 181112, Control_c, 0, 67, 22
1, 181130, Control_c, 0, 67, 34
1, 181149, Control_c, 0, 64, 28
1, 181151, Control_c, 0, 67, 46
1, 181168, Control_c, 0, 64, 51
1, 181169, Control_c, 0, 67, 57
1, 181188, Control_c, 0, 64, 63
1, 181189, Control_c, 0, 67, 64
1, 181205, Control_c, 0, 64, 68
1, 181228, Note_on_c, 0, 57, 0
1, 181261, Control_c, 0, 67, 68
1, 181276, Note_on_c, 0, 55, 0
1, 181278, Control_c, 0, 64, 66
1, 181295, Control_c, 0, 64, 61
1, 181314, Control_c, 0, 64, 54
1, 181315, Control_c, 0, 67, 73
1, 181330, Note_on_c, 0, 53, 65
1, 181332, Control_c, 0, 64, 37
1, 181334, Note_on_c, 0, 69, 73
1, 181342, Note_on_c, 0, 61, 0
1, 181350, Control_c, 0, 64, 0
1, 181370, Control_c, 0, 67, 79
1, 181375, Note_on_c, 0, 53, 0
1, 181408, Control_c, 0, 67, 84
1, 181437, Note_on_c, 0, 52, 69
1, 181485, Note_on_c, 0, 52, 0
1, 181513, Control_c, 0, 67, 90
1, 181549, Control_c, 0, 67, 96
1, 181571, Note_on_c, 0, 69, 0
1, 181587, Note_on_c, 0, 53, 62
1, 181590, Note_on_c, 0, 62, 71
1, 181624, Control_c, 0, 67, 101
1, 181627, Note_on_c, 0, 53, 0
1, 181706, Note_on_c, 0, 50, 65
1, 181745, Note_on_c, 0, 50, 0
1, 181845, Note_on_c, 0, 51, 72
1, 181847, Note_on_c, 0, 72, 74
1, 181848, Note_on_c, 0, 62, 0
1, 181882, Note_on_c, 0, 51, 0
1, 181973, Note_on_c, 0, 53, 67
1, 182009, Note_on_c, 0, 53, 0
1, 182074, Note_on_c, 0, 72, 0
1, 182094, Note_on_c, 0, 55, 66
1, 182104, Note_on_c, 0, 71, 72
1, 182134, Note_on_c, 0, 55, 0
1, 182135, Note_on_c, 0, 71, 0
1, 182208, Note_on_c, 0, 53, 66
1, 182223, Note_on_c, 0, 74, 74
1, 182237, Note_on_c, 0, 53, 0
1, 182262, Note_on_c, 0, 74, 0
1, 182348, Note_on_c, 0, 77, 75
1, 182357, Note_on_c, 0, 55, 55
1, 182477, Note_on_c, 0, 74, 76
1, 182533, Note_on_c, 0, 77, 0
1, 182612, Note_on_c, 0, 75, 72
1, 182616, Note_on_c, 0, 55, 0
1, 182628, Note_on_c, 0, 48, 55
1, 182666, Note_on_c, 0, 48, 0
1, 182732, Note_on_c, 0, 47, 63
1, 182772, Note_on_c, 0, 47, 0
1, 182838, Note_on_c, 0, 75, 0
1, 182851, Note_on_c, 0, 74, 0
1, 182857, Note_on_c, 0, 48, 66
1, 182858, Note_on_c, 0, 67, 80
1, 182896, Note_on_c, 0, 48, 0
1, 182982, Note_on_c, 0, 50, 59
1, 183023, Note_on_c, 0, 50, 0
1, 183092, Note_on_c, 0, 67, 0
1, 183105, Note_on_c, 0, 51, 59
1, 183129, Note_on_c, 0, 60, 81
1, 183144, Note_on_c, 0, 51, 0
1, 183237, Note_on_c, 0, 48, 62
1, 183270, Note_on_c, 0, 48, 0
1, 183352, Note_on_c, 0, 60, 0
1, 183372, Note_on_c, 0, 50, 70
1, 183390, Note_on_c, 0, 70, 78
1, 183403, Note_on_c, 0, 50, 0
1, 183501, Note_on_c, 0, 51, 73
1, 183541, Note_on_c, 0, 51, 0
1, 183619, Note_on_c, 0, 53, 75
1, 183631, Note_on_c, 0, 69, 76
1, 183638, Note_on_c, 0, 70, 0
1, 183659, Note_on_c, 0, 69, 0
1, 183661, Note_on_c, 0, 53, 0
1, 183744, Note_on_c, 0, 72, 80
1, 183751, Note_on_c, 0, 51, 67
1, 183784, Note_on_c, 0, 51, 0
1, 183819, Note_on_c, 0, 72, 0
1, 183865, Note_on_c, 0, 53, 58
1, 183866, Note_on_c, 0, 75, 81
1, 183914, Note_on_c, 0, 53, 0
1, 183989, Note_on_c, 0, 81, 77
1, 184060, Note_on_c, 0, 81, 0
1, 184115, Note_on_c, 0, 82, 77
1, 184119, Note_on_c, 0, 46, 58
1, 184170, Note_on_c, 0, 46, 0
1, 184234, Note_on_c, 0, 53, 53
1, 184287, Note_on_c, 0, 53, 0
1, 184381, Note_on_c, 0, 74, 81
1, 184381, Note_on_c, 0, 55, 51
1, 184394, Note_on_c, 0, 75, 0
1, 184407, Note_on_c, 0, 82, 0
1, 184415, Note_on_c, 0, 55, 0
1, 184496, Note_on_c, 0, 81, 84
1, 184505, Note_on_c, 0, 57, 60
1, 184542, Note_on_c, 0, 57, 0
1, 184566, Note_on_c, 0, 81, 0
1, 184626, Note_on_c, 0, 79, 87
1, 184635, Note_on_c, 0, 58, 63
1, 184678, Note_on_c, 0, 58, 0
1, 184685, Note_on_c, 0, 79, 0
1, 184747, Note_on_c, 0, 78, 86
1, 184748, Note_on_c, 0, 57, 59
1, 184781, Note_on_c, 0, 57, 0
1, 184809, Note_on_c, 0, 78, 0
1, 184866, Note_on_c, 0, 79, 84
1, 184895, Note_on_c, 0, 58, 65
1, 184928, Note_on_c, 0, 79, 0
1, 184985, Note_on_c, 0, 78, 85
1, 185036, Note_on_c, 0, 58, 0
1, 185057, Note_on_c, 0, 78, 0
1, 185123, Note_on_c, 0, 79, 84
1, 185124, Note_on_c, 0, 74, 0
1, 185243, Note_on_c, 0, 52, 72
1, 185280, Note_on_c, 0, 52, 0
1, 185363, Control_c, 0, 67, 97
1, 185372, Note_on_c, 0, 54, 75
1, 185415, Note_on_c, 0, 54, 0
1, 185484, Note_on_c, 0, 74, 71
1, 185497, Note_on_c, 0, 55, 79
1, 185532, Note_on_c, 0, 55, 0
1, 185550, Note_on_c, 0, 74, 0
1, 185604, Control_c, 0, 67, 92
1, 185621, Note_on_c, 0, 72, 77
1, 185622, Note_on_c, 0, 57, 76
1, 185640, Control_c, 0, 67, 82
1, 185659, Control_c, 0, 67, 70
1, 185662, Note_on_c, 0, 57, 0
1, 185674, Note_on_c, 0, 72, 0
1, 185675, Control_c, 0, 67, 53
1, 185696, Control_c, 0, 67, 34
1, 185713, Control_c, 0, 67, 16
1, 185732, Control_c, 0, 67, 0
1, 185738, Note_on_c, 0, 70, 82
1, 185743, Note_on_c, 0, 55, 78
1, 185770, Note_on_c, 0, 55, 0
1, 185799, Note_on_c, 0, 70, 0
1, 185859, Note_on_c, 0, 57, 75
1, 185870, Note_on_c, 0, 72, 81
1, 185893, Note_on_c, 0, 57, 0
1, 185933, Note_on_c, 0, 72, 0
1, 185966, Note_on_c, 0, 70, 82
1, 185989, Poly_aftertouch_c, 0, 79, 24
1, 186014, Note_on_c, 0, 79, 0
1, 186014, Note_on_c, 0, 70, 0
1, 186014, Poly_aftertouch_c, 0, 79, 0
1, 186108, Note_on_c, 0, 62, 87
1, 186114, Note_on_c, 0, 78, 86
1, 186127, Note_on_c, 0, 72, 77
1, 186237, Note_on_c, 0, 72, 0
1, 186243, Note_on_c, 0, 50, 71
1, 186308, Note_on_c, 0, 50, 0
1, 186388, Note_on_c, 0, 52, 78
1, 186458, Note_on_c, 0, 52, 0
1, 186501, Note_on_c, 0, 78, 0
1, 186506, Note_on_c, 0, 54, 77
1, 186509, Note_on_c, 0, 81, 70
1, 186520, Note_on_c, 0, 72, 74
1, 186533, Note_on_c, 0, 62, 0
1, 186546, Note_on_c, 0, 81, 0
1, 186552, Note_on_c, 0, 54, 0
1, 186557, Note_on_c, 0, 72, 0
1, 186631, Note_on_c, 0, 55, 71
1, 186649, Note_on_c, 0, 74, 84
1, 186664, Note_on_c, 0, 70, 72
1, 186694, Note_on_c, 0, 55, 0
1, 186712, Note_on_c, 0, 70, 0
1, 186755, Note_on_c, 0, 54, 72
1, 186760, Note_on_c, 0, 69, 80
1, 186791, Note_on_c, 0, 54, 0
1, 186809, Note_on_c, 0, 69, 0
1, 186888, Note_on_c, 0, 58, 82
1, 186889, Note_on_c, 0, 70, 88
1, 186908, Note_on_c, 0, 55, 69
1, 186916, Note_on_c, 0, 74, 0
1, 186951, Note_on_c, 0, 58, 0
1, 186984, Note_on_c, 0, 55, 0
1, 186993, Note_on_c, 0, 70, 0
1, 187012, Note_on_c, 0, 72, 77
1, 187013, Note_on_c, 0, 69, 80
1, 187044, Note_on_c, 0, 72, 0
1, 187048, Note_on_c, 0, 69, 0
1, 187154, Note_on_c, 0, 63, 92
1, 187155, Note_on_c, 0, 70, 84
1, 187157, Note_on_c, 0, 67, 80
1, 187159, Note_on_c, 0, 55, 71
1, 187195, Note_on_c, 0, 55, 0
1, 187212, Note_on_c, 0, 67, 0
1, 187274, Note_on_c, 0, 65, 79
1, 187320, Note_on_c, 0, 65, 0
1, 187347, Note_on_c, 0, 63, 0
1, 187405, Note_on_c, 0, 48, 76
1, 187417, Note_on_c, 0, 67, 82
1, 187454, Note_on_c, 0, 48, 0
1, 187467, Note_on_c, 0, 70, 0
1, 187507, Note_on_c, 0, 67, 0
1, 187515, Note_on_c, 0, 65, 80
1, 187562, Note_on_c, 0, 65, 0
1, 187632, Note_on_c, 0, 65, 80
1, 187645, Note_on_c, 0, 60, 89
1, 187699, Note_on_c, 0, 65, 0
1, 187703, Note_on_c, 0, 63, 75
1, 187765, Note_on_c, 0, 66, 59
1, 187766, Note_on_c, 0, 66, 0
1, 187770, Note_on_c, 0, 48, 74
1, 187771, Note_on_c, 0, 63, 0
1, 187773, Note_on_c, 0, 65, 80
1, 187825, Note_on_c, 0, 63, 77
1, 187837, Note_on_c, 0, 48, 0
1, 187854, Note_on_c, 0, 65, 0
1, 187881, Note_on_c, 0, 50, 68
1, 187970, Note_on_c, 0, 60, 0
1, 187985, Note_on_c, 0, 50, 0
1, 188018, Note_on_c, 0, 62, 87
1, 188019, Note_on_c, 0, 51, 80
1, 188047, Note_on_c, 0, 63, 0
1, 188071, Note_on_c, 0, 51, 0
1, 188079, Note_on_c, 0, 62, 0
1, 188142, Note_on_c, 0, 53, 80
1, 188146, Note_on_c, 0, 69, 88
1, 188154, Note_on_c, 0, 60, 83
1, 188199, Note_on_c, 0, 53, 0
1, 188235, Note_on_c, 0, 60, 0
1, 188271, Note_on_c, 0, 51, 79
1, 188305, Note_on_c, 0, 51, 0
1, 188395, Note_on_c, 0, 57, 93
1, 188423, Note_on_c, 0, 53, 74
1, 188457, Note_on_c, 0, 53, 0
1, 188598, Note_on_c, 0, 69, 0
1, 188663, Note_on_c, 0, 62, 89
1, 188667, Note_on_c, 0, 53, 90
1, 188672, Note_on_c, 0, 57, 0
1, 188674, Note_on_c, 0, 65, 80
1, 188709, Note_on_c, 0, 53, 0
1, 188748, Note_on_c, 0, 65, 0
1, 188774, Note_on_c, 0, 69, 83
1, 188856, Note_on_c, 0, 69, 0
1, 188911, Note_on_c, 0, 46, 79
1, 188914, Note_on_c, 0, 70, 83
1, 188990, Note_on_c, 0, 46, 0
1, 188997, Note_on_c, 0, 70, 0
1, 189043, Note_on_c, 0, 69, 87
1, 189057, Note_on_c, 0, 62, 0
1, 189117, Note_on_c, 0, 69, 0
1, 189171, Note_on_c, 0, 58, 93
1, 189181, Note_on_c, 0, 67, 88
1, 189187, Note_on_c, 0, 62, 86
1, 189267, Note_on_c, 0, 58, 0
1, 189289, Note_on_c, 0, 46, 79
1, 189390, Note_on_c, 0, 46, 0
1, 189427, Note_on_c, 0, 48, 82
1, 189482, Note_on_c, 0, 48, 0
1, 189508, Note_on_c, 0, 67, 0
1, 189540, Note_on_c, 0, 66, 88
1, 189544, Note_on_c, 0, 50, 84
1, 189593, Note_on_c, 0, 50, 0
1, 189614, Note_on_c, 0, 66, 0
1, 189676, Note_on_c, 0, 67, 87
1, 189681, Note_on_c, 0, 51, 86
1, 189719, Note_on_c, 0, 49, 41
1, 189744, Note_on_c, 0, 51, 0
1, 189761, Note_on_c, 0, 49, 0
1, 189766, Note_on_c, 0, 62, 0
1, 189805, Note_on_c, 0, 50, 88
1, 189869, Note_on_c, 0, 50, 0
1, 189947, Note_on_c, 0, 55, 85
1, 189971, Note_on_c, 0, 51, 74
1, 190213, Note_on_c, 0, 60, 85
1, 190256, Note_on_c, 0, 51, 0
1, 190275, Note_on_c, 0, 60, 0
1, 190279, Note_on_c, 0, 55, 0
1, 190315, Note_on_c, 0, 50, 79
1, 190371, Note_on_c, 0, 50, 0
1, 190453, Note_on_c, 0, 51, 76
1, 190466, Note_on_c, 0, 60, 78
1, 190530, Note_on_c, 0, 51, 0
1, 190572, Note_on_c, 0, 50, 70
1, 190577, Note_on_c, 0, 70, 78
1, 190581, Note_on_c, 0, 60, 0
1, 190587, Note_on_c, 0, 67, 0
1, 190624, Note_on_c, 0, 50, 0
1, 190657, Note_on_c, 0, 70, 0
1, 190708, Note_on_c, 0, 60, 80
1, 190709, Note_on_c, 0, 69, 81
1, 190714, Note_on_c, 0, 48, 75
1, 190793, Note_on_c, 0, 60, 0
1, 190795, Note_on_c, 0, 48, 0
1, 190842, Note_on_c, 0, 46, 78
1, 190907, Note_on_c, 0, 46, 0
1, 190978, Note_on_c, 0, 60, 83
1, 190982, Note_on_c, 0, 48, 71
1, 191021, Note_on_c, 0, 48, 0
1, 191096, Note_on_c, 0, 72, 80
1, 191100, Note_on_c, 0, 60, 0
1, 191100, Note_on_c, 0, 46, 79
1, 191158, Note_on_c, 0, 46, 0
1, 191159, Note_on_c, 0, 69, 0
1, 191181, Note_on_c, 0, 72, 0
1, 191226, Note_on_c, 0, 60, 84
1, 191226, Note_on_c, 0, 45, 88
1, 191228, Note_on_c, 0, 66, 82
1, 191280, Note_on_c, 0, 45, 0
1, 191335, Note_on_c, 0, 60, 0
1, 191353, Note_on_c, 0, 43, 88
1, 191403, Note_on_c, 0, 43, 0
1, 191476, Note_on_c, 0, 45, 91
1, 191500, Note_on_c, 0, 60, 80
1, 191523, Note_on_c, 0, 45, 0
1, 191559, Note_on_c, 0, 66, 0
1, 191591, Note_on_c, 0, 43, 88
1, 191594, Note_on_c, 0, 69, 69
1, 191601, Note_on_c, 0, 60, 0
1, 191650, Note_on_c, 0, 43, 0
1, 191657, Note_on_c, 0, 69, 0
1, 191710, Control_c, 0, 67, 9
1, 191729, Note_on_c, 0, 42, 93
1, 191736, Note_on_c, 0, 60, 88
1, 191763, Note_on_c, 0, 62, 80
1, 191784, Note_on_c, 0, 42, 0
1, 191799, Control_c, 0, 64, 33
1, 191800, Control_c, 0, 67, 13
1, 191816, Control_c, 0, 64, 63
1, 191834, Control_c, 0, 64, 78
1, 191852, Control_c, 0, 64, 91
1, 191870, Control_c, 0, 64, 104
1, 191885, Note_on_c, 0, 60, 0
1, 191889, Control_c, 0, 64, 115
1, 191908, Control_c, 0, 64, 121
1, 191909, Control_c, 0, 67, 19
1, 191943, Control_c, 0, 67, 23
1, 191981, Control_c, 0, 64, 113
1, 192000, Control_c, 0, 64, 95
1, 192007, Note_on_c, 0, 58, 82
1, 192012, Note_on_c, 0, 50, 87
1, 192016, Note_on_c, 0, 62, 0
1, 192019, Control_c, 0, 64, 70
1, 192037, Control_c, 0, 64, 0
1, 192067, Note_on_c, 0, 58, 0
1, 192118, Note_on_c, 0, 57, 76
1, 192121, Note_on_c, 0, 66, 80
1, 192164, Control_c, 0, 67, 28
1, 192167, Note_on_c, 0, 57, 0
1, 192179, Note_on_c, 0, 66, 0
1, 192202, Control_c, 0, 67, 35
1, 192219, Control_c, 0, 67, 39
1, 192260, Note_on_c, 0, 58, 84
1, 192260, Note_on_c, 0, 67, 80
1, 192265, Note_on_c, 0, 43, 80
1, 192276, Control_c, 0, 67, 45
1, 192285, Note_on_c, 0, 50, 0
1, 192291, Control_c, 0, 67, 54
1, 192312, Control_c, 0, 67, 65
1, 192331, Control_c, 0, 67, 72
1, 192334, Note_on_c, 0, 43, 0
1, 192343, Note_on_c, 0, 58, 0
1, 192358, Note_on_c, 0, 67, 0
1, 192373, Note_on_c, 0, 55, 80
1, 192451, Note_on_c, 0, 55, 0
1, 192510, Note_on_c, 0, 57, 82
1, 192516, Note_on_c, 0, 53, 73
1, 192551, Note_on_c, 0, 53, 0
1, 192564, Note_on_c, 0, 57, 0
1, 192628, Note_on_c, 0, 58, 78
1, 192703, Note_on_c, 0, 58, 0
1, 192773, Note_on_c, 0, 60, 75
1, 192779, Note_on_c, 0, 52, 63
1, 192809, Note_on_c, 0, 52, 0
1, 192834, Note_on_c, 0, 60, 0
1, 192895, Note_on_c, 0, 58, 67
1, 192929, Note_on_c, 0, 58, 0
1, 193008, Note_on_c, 0, 48, 63
1, 193011, Note_on_c, 0, 60, 72
1, 193040, Note_on_c, 0, 48, 0
1, 193098, Note_on_c, 0, 60, 0
1, 193137, Note_on_c, 0, 70, 70
1, 193226, Note_on_c, 0, 70, 0
1, 193257, Note_on_c, 0, 53, 66
1, 193257, Note_on_c, 0, 60, 71
1, 193287, Note_on_c, 0, 53, 0
1, 193360, Note_on_c, 0, 60, 0
1, 193370, Note_on_c, 0, 70, 74
1, 193443, Note_on_c, 0, 70, 0
1, 193503, Note_on_c, 0, 65, 71
1, 193507, Note_on_c, 0, 69, 70
1, 193509, Note_on_c, 0, 57, 51
1, 193537, Note_on_c, 0, 65, 0
1, 193537, Note_on_c, 0, 57, 0
1, 193542, Note_on_c, 0, 69, 0
1, 193632, Note_on_c, 0, 67, 78
1, 193647, Note_on_c, 0, 64, 61
1, 193680, Note_on_c, 0, 64, 0
1, 193683, Note_on_c, 0, 67, 0
1, 193765, Note_on_c, 0, 50, 59
1, 193766, Note_on_c, 0, 69, 78
1, 193767, Note_on_c, 0, 65, 74
1, 193794, Note_on_c, 0, 65, 0
1, 193796, Note_on_c, 0, 50, 0
1, 193807, Note_on_c, 0, 69, 0
1, 193880, Note_on_c, 0, 69, 88
1, 193930, Note_on_c, 0, 69, 0
1, 194002, Note_on_c, 0, 71, 89
1, 194025, Note_on_c, 0, 60, 54
1, 194047, Note_on_c, 0, 71, 0
1, 194051, Note_on_c, 0, 60, 0
1, 194121, Note_on_c, 0, 72, 88
1, 194173, Note_on_c, 0, 72, 0
1, 194248, Note_on_c, 0, 74, 82
1, 194250, Note_on_c, 0, 59, 60
1, 194274, Note_on_c, 0, 59, 0
1, 194280, Note_on_c, 0, 74, 0
1, 194360, Note_on_c, 0, 72, 82
1, 194413, Note_on_c, 0, 72, 0
1, 194490, Note_on_c, 0, 74, 76
1, 194496, Note_on_c, 0, 55, 57
1, 194525, Note_on_c, 0, 55, 0
1, 194610, Note_on_c, 0, 74, 0
1, 194621, Note_on_c, 0, 65, 73
1, 194693, Note_on_c, 0, 65, 0
1, 194743, Note_on_c, 0, 74, 77
1, 194748, Note_on_c, 0, 60, 64
1, 194842, Control_c, 0, 67, 76
1, 194845, Note_on_c, 0, 74, 0
1, 194861, Note_on_c, 0, 65, 74
1, 194893, Note_on_c, 0, 65, 0
1, 194935, Note_on_c, 0, 60, 0
1, 194987, Note_on_c, 0, 63, 75
1, 194989, Note_on_c, 0, 55, 66
1, 194991, Note_on_c, 0, 72, 66
1, 195023, Note_on_c, 0, 55, 0
1, 195031, Note_on_c, 0, 63, 0
1, 195045, Note_on_c, 0, 72, 0
1, 195113, Note_on_c, 0, 62, 67
1, 195123, Note_on_c, 0, 71, 51
1, 195136, Note_on_c, 0, 69, 51
1, 195147, Note_on_c, 0, 62, 0
1, 195160, Note_on_c, 0, 71, 0
1, 195164, Note_on_c, 0, 69, 0
1, 195227, Note_on_c, 0, 72, 73
1, 195238, Note_on_c, 0, 48, 56
1, 195244, Note_on_c, 0, 63, 74
1, 195271, Note_on_c, 0, 48, 0
1, 195313, Note_on_c, 0, 63, 0
1, 195365, Note_on_c, 0, 60, 69
1, 195437, Note_on_c, 0, 60, 0
1, 195508, Note_on_c, 0, 66, 74
1, 195510, Note_on_c, 0, 57, 47
1, 195540, Note_on_c, 0, 57, 0
1, 195566, Note_on_c, 0, 66, 0
1, 195593, Note_on_c, 0, 72, 0
1, 195629, Note_on_c, 0, 67, 80
1, 195678, Note_on_c, 0, 67, 0
1, 195743, Note_on_c, 0, 54, 60
1, 195754, Note_on_c, 0, 69, 83
1, 195778, Note_on_c, 0, 54, 0
1, 195802, Note_on_c, 0, 69, 0
1, 195868, Note_on_c, 0, 67, 84
1, 195916, Note_on_c, 0, 67, 0
1, 195989, Note_on_c, 0, 69, 86
1, 196005, Note_on_c, 0, 50, 57
1, 196038, Note_on_c, 0, 50, 0
1, 196055, Note_on_c, 0, 69, 0
1, 196113, Note_on_c, 0, 72, 82
1, 196229, Note_on_c, 0, 72, 0
1, 196240, Note_on_c, 0, 69, 84
1, 196247, Note_on_c, 0, 55, 67
1, 196276, Note_on_c, 0, 55, 0
1, 196298, Note_on_c, 0, 69, 0
1, 196356, Note_on_c, 0, 72, 83
1, 196415, Note_on_c, 0, 72, 0
1, 196489, Note_on_c, 0, 70, 83
1, 196492, Note_on_c, 0, 58, 59
1, 196495, Note_on_c, 0, 67, 78
1, 196523, Note_on_c, 0, 67, 0
1, 196529, Note_on_c, 0, 58, 0
1, 196545, Control_c, 0, 67, 71
1, 196562, Note_on_c, 0, 70, 0
1, 196562, Control_c, 0, 67, 67
1, 196581, Control_c, 0, 67, 57
1, 196599, Control_c, 0, 67, 41
1, 196605, Note_on_c, 0, 69, 78
1, 196609, Note_on_c, 0, 66, 70
1, 196618, Control_c, 0, 67, 24
1, 196636, Control_c, 0, 67, 11
1, 196657, Note_on_c, 0, 66, 0
1, 196665, Note_on_c, 0, 69, 0
1, 196721, Note_on_c, 0, 70, 78
1, 196721, Note_on_c, 0, 67, 74
1, 196733, Note_on_c, 0, 52, 58
1, 196747, Note_on_c, 0, 70, 0
1, 196753, Note_on_c, 0, 67, 0
1, 196769, Note_on_c, 0, 52, 0
1, 196842, Note_on_c, 0, 74, 84
1, 196857, Control_c, 0, 67, 0
1, 196909, Note_on_c, 0, 74, 0
1, 196969, Note_on_c, 0, 76, 87
1, 196976, Note_on_c, 0, 62, 49
1, 197008, Note_on_c, 0, 62, 0
1, 197022, Note_on_c, 0, 76, 0
1, 197090, Note_on_c, 0, 77, 87
1, 197146, Note_on_c, 0, 77, 0
1, 197214, Note_on_c, 0, 79, 84
1, 197222, Note_on_c, 0, 61, 65
1, 197252, Note_on_c, 0, 61, 0
1, 197280, Note_on_c, 0, 79, 0
1, 197330, Note_on_c, 0, 77, 90
1, 197398, Note_on_c, 0, 77, 0
1, 197482, Note_on_c, 0, 57, 57
1, 197483, Note_on_c, 0, 79, 84
1, 197511, Note_on_c, 0, 57, 0
1, 197616, Note_on_c, 0, 61, 66
1, 197647, Note_on_c, 0, 61, 0
1, 197737, Note_on_c, 0, 62, 69
1, 197769, Note_on_c, 0, 62, 0
1, 197845, Note_on_c, 0, 61, 72
1, 197880, Note_on_c, 0, 61, 0
1, 197899, Note_on_c, 0, 79, 0
1, 197967, Note_on_c, 0, 77, 79
1, 197979, Note_on_c, 0, 62, 61
1, 198012, Note_on_c, 0, 62, 0
1, 198026, Note_on_c, 0, 77, 0
1, 198066, Note_on_c, 0, 57, 69
1, 198085, Note_on_c, 0, 76, 76
1, 198102, Note_on_c, 0, 57, 0
1, 198137, Note_on_c, 0, 76, 0
1, 198211, Note_on_c, 0, 69, 80
1, 198224, Note_on_c, 0, 77, 72
1, 198240, Note_on_c, 0, 50, 51
1, 198274, Note_on_c, 0, 50, 0
1, 198275, Note_on_c, 0, 77, 0
1, 198361, Note_on_c, 0, 74, 64
1, 198412, Note_on_c, 0, 74, 0
1, 198470, Note_on_c, 0, 62, 60
1, 198473, Note_on_c, 0, 77, 69
1, 198496, Note_on_c, 0, 62, 0
1, 198536, Note_on_c, 0, 77, 0
1, 198588, Note_on_c, 0, 64, 64
1, 198593, Note_on_c, 0, 79, 69
1, 198618, Note_on_c, 0, 64, 0
1, 198666, Note_on_c, 0, 79, 0
1, 198710, Poly_aftertouch_c, 0, 69, 22
1, 198727, Note_on_c, 0, 69, 0
1, 198727, Poly_aftertouch_c, 0, 69, 0
1, 198732, Note_on_c, 0, 81, 75
1, 198734, Note_on_c, 0, 65, 64
1, 198759, Note_on_c, 0, 65, 0
1, 198788, Note_on_c, 0, 81, 0
1, 198852, Note_on_c, 0, 79, 76
1, 198910, Note_on_c, 0, 79, 0
1, 198980, Note_on_c, 0, 81, 80
1, 198982, Note_on_c, 0, 65, 82
1, 198990, Note_on_c, 0, 62, 67
1, 199056, Note_on_c, 0, 62, 0
1, 199070, Note_on_c, 0, 65, 0
1, 199118, Note_on_c, 0, 81, 0
1, 199256, Note_on_c, 0, 70, 84
1, 199265, Note_on_c, 0, 81, 70
1, 199273, Note_on_c, 0, 67, 69
1, 199324, Note_on_c, 0, 67, 0
1, 199399, Note_on_c, 0, 55, 63
1, 199454, Note_on_c, 0, 55, 0
1, 199532, Note_on_c, 0, 74, 69
1, 199533, Note_on_c, 0, 57, 69
1, 199542, Note_on_c, 0, 81, 0
1, 199556, Note_on_c, 0, 70, 0
1, 199569, Note_on_c, 0, 57, 0
1, 199586, Note_on_c, 0, 74, 0
1, 199653, Note_on_c, 0, 58, 74
1, 199681, Note_on_c, 0, 58, 0
1, 199781, Note_on_c, 0, 60, 73
1, 199785, Note_on_c, 0, 67, 87
1, 199813, Note_on_c, 0, 60, 0
1, 199904, Note_on_c, 0, 74, 74
1, 199905, Note_on_c, 0, 55, 61
1, 199938, Note_on_c, 0, 55, 0
1, 199991, Note_on_c, 0, 74, 0
1, 200020, Note_on_c, 0, 76, 79
1, 200028, Note_on_c, 0, 60, 73
1, 200057, Note_on_c, 0, 60, 0
1, 200095, Note_on_c, 0, 76, 0
1, 200139, Note_on_c, 0, 62, 71
1, 200140, Note_on_c, 0, 77, 80
1, 200186, Note_on_c, 0, 62, 0
1, 200214, Poly_aftertouch_c, 0, 67, 24
1, 200229, Note_on_c, 0, 77, 0
1, 200245, Note_on_c, 0, 67, 0
1, 200245, Poly_aftertouch_c, 0, 67, 0
1, 200290, Note_on_c, 0, 79, 81
1, 200291, Note_on_c, 0, 64, 74
1, 200331, Note_on_c, 0, 64, 0
1, 200365, Note_on_c, 0, 79, 0
1, 200406, Note_on_c, 0, 77, 84
1, 200458, Note_on_c, 0, 77, 0
1, 200542, Note_on_c, 0, 60, 64
1, 200543, Note_on_c, 0, 79, 86
1, 200544, Note_on_c, 0, 64, 77
1, 200574, Note_on_c, 0, 60, 0
1, 200686, Note_on_c, 0, 64, 0
1, 200704, Note_on_c, 0, 79, 0
1, 200816, Note_on_c, 0, 69, 87
1, 200829, Note_on_c, 0, 79, 79
1, 200836, Note_on_c, 0, 65, 71
1, 200887, Note_on_c, 0, 65, 0
1, 200949, Note_on_c, 0, 53, 72
1, 201023, Note_on_c, 0, 53, 0
1, 201083, Note_on_c, 0, 55, 71
1, 201086, Note_on_c, 0, 72, 79
1, 201126, Note_on_c, 0, 79, 0
1, 201140, Note_on_c, 0, 55, 0
1, 201153, Note_on_c, 0, 69, 0
1, 201159, Note_on_c, 0, 72, 0
1, 201209, Note_on_c, 0, 57, 75
1, 201241, Note_on_c, 0, 57, 0
1, 201343, Note_on_c, 0, 65, 88
1, 201343, Note_on_c, 0, 58, 75
1, 201387, Note_on_c, 0, 58, 0
1, 201469, Note_on_c, 0, 72, 79
1, 201476, Note_on_c, 0, 53, 68
1, 201512, Note_on_c, 0, 53, 0
1, 201547, Note_on_c, 0, 72, 0
1, 201591, Note_on_c, 0, 74, 82
1, 201598, Note_on_c, 0, 58, 75
1, 201632, Note_on_c, 0, 58, 0
1, 201671, Note_on_c, 0, 74, 0
1, 201709, Note_on_c, 0, 76, 85
1, 201721, Note_on_c, 0, 60, 69
1, 201764, Note_on_c, 0, 65, 0
1, 201764, Note_on_c, 0, 60, 0
1, 201782, Note_on_c, 0, 76, 0
1, 201841, Note_on_c, 0, 62, 78
1, 201848, Note_on_c, 0, 77, 85
1, 201885, Note_on_c, 0, 62, 0
1, 201925, Note_on_c, 0, 77, 0
1, 201956, Note_on_c, 0, 60, 79
1, 201963, Note_on_c, 0, 76, 85
1, 201999, Note_on_c, 0, 60, 0
1, 202025, Note_on_c, 0, 76, 0
1, 202104, Note_on_c, 0, 62, 78
1, 202115, Note_on_c, 0, 77, 83
1, 202121, Note_on_c, 0, 58, 69
1, 202174, Note_on_c, 0, 62, 0
1, 202182, Note_on_c, 0, 58, 0
1, 202226, Note_on_c, 0, 57, 73
1, 202292, Note_on_c, 0, 57, 0
1, 202354, Note_on_c, 0, 58, 74
1, 202361, Note_on_c, 0, 67, 80
1, 202411, Note_on_c, 0, 58, 0
1, 202427, Note_on_c, 0, 67, 0
1, 202480, Note_on_c, 0, 62, 69
1, 202532, Note_on_c, 0, 62, 0
1, 202579, Note_on_c, 0, 77, 0
1, 202601, Note_on_c, 0, 61, 68
1, 202620, Note_on_c, 0, 67, 76
1, 202639, Note_on_c, 0, 61, 0
1, 202716, Note_on_c, 0, 67, 0
1, 202718, Note_on_c, 0, 62, 61
1, 202738, Note_on_c, 0, 77, 72
1, 202757, Note_on_c, 0, 62, 0
1, 202820, Note_on_c, 0, 77, 0
1, 202859, Note_on_c, 0, 67, 77
1, 202868, Note_on_c, 0, 55, 56
1, 202869, Note_on_c, 0, 76, 72
1, 202904, Note_on_c, 0, 55, 0
1, 202966, Note_on_c, 0, 76, 0
1, 203012, Note_on_c, 0, 74, 76
1, 203021, Note_on_c, 0, 67, 0
1, 203023, Note_on_c, 0, 58, 61
1, 203069, Note_on_c, 0, 74, 0
1, 203069, Note_on_c, 0, 58, 0
1, 203135, Note_on_c, 0, 76, 83
1, 203142, Note_on_c, 0, 67, 81
1, 203152, Note_on_c, 0, 57, 61
1, 203193, Note_on_c, 0, 57, 0
1, 203229, Note_on_c, 0, 76, 0
1, 203253, Note_on_c, 0, 74, 80
1, 203267, Note_on_c, 0, 67, 0
1, 203274, Note_on_c, 0, 58, 65
1, 203319, Note_on_c, 0, 58, 0
1, 203333, Note_on_c, 0, 74, 0
1, 203391, Note_on_c, 0, 67, 85
1, 203395, Note_on_c, 0, 73, 82
1, 203402, Note_on_c, 0, 52, 64
1, 203451, Note_on_c, 0, 52, 0
1, 203466, Note_on_c, 0, 67, 0
1, 203477, Note_on_c, 0, 73, 0
1, 203505, Note_on_c, 0, 74, 80
1, 203519, Note_on_c, 0, 64, 70
1, 203558, Note_on_c, 0, 64, 0
1, 203580, Note_on_c, 0, 74, 0
1, 203641, Note_on_c, 0, 76, 87
1, 203646, Note_on_c, 0, 61, 71
1, 203647, Note_on_c, 0, 67, 82
1, 203701, Note_on_c, 0, 61, 0
1, 203764, Note_on_c, 0, 57, 73
1, 203768, Note_on_c, 0, 67, 0
1, 203805, Note_on_c, 0, 57, 0
1, 203905, Note_on_c, 0, 67, 84
1, 203907, Note_on_c, 0, 62, 75
1, 203975, Note_on_c, 0, 62, 0
1, 204047, Note_on_c, 0, 50, 66
1, 204068, Note_on_c, 0, 67, 0
1, 204098, Note_on_c, 0, 50, 0
1, 204172, Note_on_c, 0, 76, 0
1, 204179, Note_on_c, 0, 74, 76
1, 204184, Note_on_c, 0, 53, 74
1, 204186, Note_on_c, 0, 65, 73
1, 204232, Note_on_c, 0, 53, 0
1, 204260, Note_on_c, 0, 74, 0
1, 204310, Note_on_c, 0, 65, 0
1, 204313, Note_on_c, 0, 57, 69
1, 204352, Note_on_c, 0, 57, 0
1, 204429, Note_on_c, 0, 77, 85
1, 204458, Note_on_c, 0, 62, 63
1, 204490, Note_on_c, 0, 62, 0
1, 204565, Note_on_c, 0, 69, 73
1, 204568, Note_on_c, 0, 60, 63
1, 204603, Note_on_c, 0, 60, 0
1, 204609, Note_on_c, 0, 69, 0
1, 204692, Note_on_c, 0, 70, 74
1, 204695, Note_on_c, 0, 62, 53
1, 204728, Note_on_c, 0, 62, 0
1, 204755, Note_on_c, 0, 70, 0
1, 204791, Note_on_c, 0, 60, 64
1, 204807, Note_on_c, 0, 72, 74
1, 204809, Note_on_c, 0, 77, 0
1, 204835, Note_on_c, 0, 60, 0
1, 204882, Note_on_c, 0, 72, 0
1, 204950, Note_on_c, 0, 58, 68
1, 204951, Note_on_c, 0, 74, 86
1, 205000, Note_on_c, 0, 58, 0
1, 205017, Note_on_c, 0, 74, 0
1, 205068, Note_on_c, 0, 62, 67
1, 205072, Note_on_c, 0, 72, 89
1, 205112, Note_on_c, 0, 62, 0
1, 205136, Note_on_c, 0, 72, 0
1, 205207, Note_on_c, 0, 74, 93
1, 205223, Note_on_c, 0, 55, 67
1, 205260, Note_on_c, 0, 55, 0
1, 205332, Note_on_c, 0, 58, 68
1, 205362, Note_on_c, 0, 74, 0
1, 205369, Note_on_c, 0, 58, 0
1, 205463, Note_on_c, 0, 79, 91
1, 205483, Note_on_c, 0, 51, 61
1, 205485, Note_on_c, 0, 74, 74
1, 205545, Note_on_c, 0, 51, 0
1, 205606, Note_on_c, 0, 55, 66
1, 205655, Note_on_c, 0, 55, 0
1, 205708, Note_on_c, 0, 79, 0
1, 205720, Note_on_c, 0, 74, 0
1, 205721, Poly_aftertouch_c, 0, 74, 0
1, 205722, Note_on_c, 0, 57, 73
1, 205738, Note_on_c, 0, 67, 72
1, 205759, Note_on_c, 0, 57, 0
1, 205829, Note_on_c, 0, 67, 0
1, 205862, Note_on_c, 0, 58, 69
1, 205918, Note_on_c, 0, 58, 0
1, 205995, Note_on_c, 0, 75, 88
1, 205997, Note_on_c, 0, 60, 72
1, 206039, Note_on_c, 0, 60, 0
1, 206120, Note_on_c, 0, 58, 71
1, 206121, Note_on_c, 0, 67, 66
1, 206176, Note_on_c, 0, 58, 0
1, 206195, Note_on_c, 0, 67, 0
1, 206245, Note_on_c, 0, 69, 78
1, 206246, Note_on_c, 0, 60, 72
1, 206290, Note_on_c, 0, 60, 0
1, 206295, Note_on_c, 0, 75, 0
1, 206306, Note_on_c, 0, 69, 0
1, 206357, Note_on_c, 0, 58, 72
1, 206364, Note_on_c, 0, 70, 82
1, 206431, Note_on_c, 0, 58, 0
1, 206432, Note_on_c, 0, 70, 0
1, 206488, Note_on_c, 0, 72, 88
1, 206490, Note_on_c, 0, 57, 73
1, 206526, Note_on_c, 0, 57, 0
1, 206558, Note_on_c, 0, 72, 0
1, 206595, Note_on_c, 0, 60, 73
1, 206609, Note_on_c, 0, 70, 90
1, 206642, Note_on_c, 0, 60, 0
1, 206667, Note_on_c, 0, 70, 0
1, 206755, Note_on_c, 0, 72, 93
1, 206759, Note_on_c, 0, 53, 79
1, 206813, Note_on_c, 0, 53, 0
1, 206881, Note_on_c, 0, 72, 0
1, 206885, Note_on_c, 0, 57, 69
1, 206928, Note_on_c, 0, 57, 0
1, 207004, Note_on_c, 0, 77, 92
1, 207013, Note_on_c, 0, 72, 82
1, 207016, Note_on_c, 0, 50, 76
1, 207090, Note_on_c, 0, 50, 0
1, 207138, Note_on_c, 0, 53, 70
1, 207221, Note_on_c, 0, 53, 0
1, 207238, Note_on_c, 0, 72, 0
1, 207260, Note_on_c, 0, 55, 77
1, 207261, Note_on_c, 0, 77, 0
1, 207267, Note_on_c, 0, 65, 74
1, 207313, Note_on_c, 0, 55, 0
1, 207359, Note_on_c, 0, 65, 0
1, 207379, Note_on_c, 0, 57, 75
1, 207431, Note_on_c, 0, 57, 0
1, 207500, Note_on_c, 0, 74, 89
1, 207502, Note_on_c, 0, 58, 78
1, 207614, Note_on_c, 0, 58, 0
1, 207626, Note_on_c, 0, 57, 74
1, 207630, Note_on_c, 0, 65, 79
1, 207698, Note_on_c, 0, 57, 0
1, 207698, Note_on_c, 0, 65, 0
1, 207763, Note_on_c, 0, 58, 72
1, 207766, Note_on_c, 0, 67, 82
1, 207822, Note_on_c, 0, 58, 0
1, 207827, Note_on_c, 0, 67, 0
1, 207836, Note_on_c, 0, 74, 0
1, 207871, Note_on_c, 0, 57, 68
1, 207881, Note_on_c, 0, 69, 88
1, 207940, Note_on_c, 0, 57, 0
1, 207942, Note_on_c, 0, 69, 0
1, 207999, Note_on_c, 0, 55, 66
1, 208009, Note_on_c, 0, 70, 90
1, 208042, Note_on_c, 0, 55, 0
1, 208064, Note_on_c, 0, 70, 0
1, 208112, Note_on_c, 0, 58, 62
1, 208128, Note_on_c, 0, 69, 93
1, 208147, Note_on_c, 0, 58, 0
1, 208187, Note_on_c, 0, 69, 0
1, 208256, Note_on_c, 0, 70, 93
1, 208261, Note_on_c, 0, 51, 76
1, 208305, Note_on_c, 0, 51, 0
1, 208385, Note_on_c, 0, 55, 77
1, 208444, Note_on_c, 0, 55, 0
1, 208509, Note_on_c, 0, 75, 85
1, 208510, Note_on_c, 0, 70, 0
1, 208516, Note_on_c, 0, 48, 71
1, 208587, Note_on_c, 0, 48, 0
1, 208651, Note_on_c, 0, 55, 71
1, 208668, Note_on_c, 0, 75, 0
1, 208719, Note_on_c, 0, 55, 0
1, 208783, Note_on_c, 0, 57, 73
1, 208784, Note_on_c, 0, 75, 83
1, 208829, Note_on_c, 0, 57, 0
1, 208896, Note_on_c, 0, 58, 75
1, 208899, Note_on_c, 0, 70, 80
1, 208907, Note_on_c, 0, 75, 0
1, 208966, Note_on_c, 0, 70, 0
1, 208968, Note_on_c, 0, 58, 0
1, 209022, Note_on_c, 0, 60, 72
1, 209031, Note_on_c, 0, 75, 86
1, 209031, Note_on_c, 0, 69, 81
1, 209073, Note_on_c, 0, 60, 0
1, 209104, Note_on_c, 0, 69, 0
1, 209147, Note_on_c, 0, 58, 70
1, 209150, Note_on_c, 0, 67, 81
1, 209182, Note_on_c, 0, 75, 0
1, 209217, Note_on_c, 0, 67, 0
1, 209219, Note_on_c, 0, 58, 0
1, 209268, Note_on_c, 0, 60, 73
1, 209287, Note_on_c, 0, 69, 78
1, 209288, Note_on_c, 0, 75, 87
1, 209336, Note_on_c, 0, 60, 0
1, 209357, Note_on_c, 0, 69, 0
1, 209390, Note_on_c, 0, 58, 72
1, 209393, Note_on_c, 0, 67, 80
1, 209431, Note_on_c, 0, 75, 0
1, 209439, Note_on_c, 0, 67, 0
1, 209449, Note_on_c, 0, 58, 0
1, 209543, Note_on_c, 0, 75, 88
1, 209548, Note_on_c, 0, 57, 75
1, 209548, Note_on_c, 0, 65, 81
1, 209594, Note_on_c, 0, 57, 0
1, 209667, Note_on_c, 0, 53, 74
1, 209706, Note_on_c, 0, 75, 0
1, 209713, Note_on_c, 0, 53, 0
1, 209804, Note_on_c, 0, 75, 89
1, 209810, Note_on_c, 0, 55, 77
1, 209850, Note_on_c, 0, 55, 0
1, 209926, Note_on_c, 0, 57, 76
1, 209962, Note_on_c, 0, 75, 0
1, 209966, Note_on_c, 0, 57, 0
1, 210041, Note_on_c, 0, 65, 0
1, 210062, Note_on_c, 0, 58, 80
1, 210064, Note_on_c, 0, 75, 89
1, 210127, Note_on_c, 0, 58, 0
1, 210186, Note_on_c, 0, 57, 78
1, 210245, Note_on_c, 0, 57, 0
1, 210284, Note_on_c, 0, 75, 0
1, 210308, Note_on_c, 0, 58, 88
1, 210308, Note_on_c, 0, 74, 80
1, 210373, Note_on_c, 0, 58, 0
1, 210424, Note_on_c, 0, 74, 0
1, 210425, Note_on_c, 0, 60, 86
1, 210433, Note_on_c, 0, 75, 80
1, 210485, Note_on_c, 0, 60, 0
1, 210543, Note_on_c, 0, 75, 0
1, 210571, Note_on_c, 0, 62, 80
1, 210573, Note_on_c, 0, 77, 85
1, 210579, Note_on_c, 0, 58, 86
1, 210610, Note_on_c, 0, 62, 0
1, 210655, Note_on_c, 0, 77, 0
1, 210691, Note_on_c, 0, 70, 74
1, 210705, Note_on_c, 0, 60, 80
1, 210719, Note_on_c, 0, 70, 0
1, 210783, Note_on_c, 0, 60, 0
1, 210814, Note_on_c, 0, 77, 82
1, 210824, Note_on_c, 0, 62, 84
1, 210887, Note_on_c, 0, 62, 0
1, 210905, Note_on_c, 0, 77, 0
1, 210934, Note_on_c, 0, 79, 86
1, 210944, Note_on_c, 0, 64, 80
1, 210952, Note_on_c, 0, 58, 0
1, 210996, Note_on_c, 0, 64, 0
1, 211006, Note_on_c, 0, 79, 0
1, 211057, Note_on_c, 0, 65, 88
1, 211063, Note_on_c, 0, 81, 84
1, 211110, Note_on_c, 0, 65, 0
1, 211139, Note_on_c, 0, 81, 0
1, 211171, Note_on_c, 0, 79, 88
1, 211187, Note_on_c, 0, 64, 82
1, 211217, Note_on_c, 0, 64, 0
1, 211233, Note_on_c, 0, 79, 0
1, 211305, Note_on_c, 0, 81, 78
1, 211321, Note_on_c, 0, 57, 93
1, 211327, Note_on_c, 0, 79, 62
1, 211329, Note_on_c, 0, 65, 83
1, 211354, Note_on_c, 0, 65, 0
1, 211359, Note_on_c, 0, 79, 0
1, 211367, Note_on_c, 0, 57, 0
1, 211442, Note_on_c, 0, 72, 73
1, 211462, Note_on_c, 0, 81, 0
1, 211535, Note_on_c, 0, 72, 0
1, 211571, Note_on_c, 0, 81, 84
1, 211582, Note_on_c, 0, 65, 90
1, 211589, Note_on_c, 0, 62, 90
1, 211598, Note_on_c, 0, 70, 67
1, 211675, Note_on_c, 0, 81, 0
1, 211688, Note_on_c, 0, 70, 0
1, 211704, Note_on_c, 0, 72, 79
1, 211758, Note_on_c, 0, 72, 0
1, 211767, Note_on_c, 0, 65, 0
1, 211785, Note_on_c, 0, 62, 0
1, 211836, Note_on_c, 0, 74, 82
1, 211839, Note_on_c, 0, 70, 77
1, 211864, Note_on_c, 0, 70, 0
1, 211957, Note_on_c, 0, 74, 0
1, 211958, Note_on_c, 0, 69, 82
1, 212023, Note_on_c, 0, 69, 0
1, 212096, Note_on_c, 0, 67, 82
1, 212099, Note_on_c, 0, 58, 84
1, 212105, Note_on_c, 0, 62, 80
1, 212211, Note_on_c, 0, 74, 81
1, 212217, Note_on_c, 0, 62, 0
1, 212218, Note_on_c, 0, 67, 0
1, 212290, Note_on_c, 0, 74, 0
1, 212363, Note_on_c, 0, 76, 91
1, 212426, Note_on_c, 0, 76, 0
1, 212477, Note_on_c, 0, 77, 91
1, 212542, Note_on_c, 0, 77, 0
1, 212561, Note_on_c, 0, 58, 0
1, 212604, Note_on_c, 0, 64, 83
1, 212606, Note_on_c, 0, 79, 89
1, 212677, Note_on_c, 0, 79, 0
1, 212722, Note_on_c, 0, 77, 88
1, 212784, Note_on_c, 0, 77, 0
1, 212852, Note_on_c, 0, 55, 88
1, 212861, Note_on_c, 0, 79, 82
1, 212890, Note_on_c, 0, 77, 59
1, 212923, Note_on_c, 0, 77, 0
1, 212926, Note_on_c, 0, 55, 0
1, 212974, Note_on_c, 0, 70, 84
1, 213000, Note_on_c, 0, 79, 0
1, 213044, Note_on_c, 0, 70, 0
1, 213110, Note_on_c, 0, 79, 89
1, 213117, Note_on_c, 0, 60, 88
1, 213120, Note_on_c, 0, 69, 82
1, 213233, Note_on_c, 0, 70, 87
1, 213246, Note_on_c, 0, 79, 0
1, 213246, Note_on_c, 0, 69, 0
1, 213319, Note_on_c, 0, 70, 0
1, 213342, Note_on_c, 0, 60, 0
1, 213360, Poly_aftertouch_c, 0, 59, 0
1, 213386, Note_on_c, 0, 72, 91
1, 213392, Note_on_c, 0, 69, 83
1, 213420, Note_on_c, 0, 69, 0
1, 213440, Note_on_c, 0, 64, 0
1, 213493, Note_on_c, 0, 67, 83
1, 213517, Note_on_c, 0, 72, 0
1, 213558, Note_on_c, 0, 67, 0
1, 213624, Note_on_c, 0, 57, 86
1, 213635, Note_on_c, 0, 65, 77
1, 213647, Note_on_c, 0, 60, 60
1, 213736, Note_on_c, 0, 65, 0
1, 213745, Note_on_c, 0, 72, 77
1, 213796, Note_on_c, 0, 60, 0
1, 213827, Note_on_c, 0, 72, 0
1, 213874, Note_on_c, 0, 74, 91
1, 213934, Note_on_c, 0, 74, 0
1, 213989, Note_on_c, 0, 76, 92
1, 214055, Note_on_c, 0, 76, 0
1, 214109, Note_on_c, 0, 57, 0
1, 214117, Note_on_c, 0, 62, 82
1, 214119, Note_on_c, 0, 77, 89
1, 214248, Note_on_c, 0, 76, 91
1, 214274, Note_on_c, 0, 77, 0
1, 214275, Poly_aftertouch_c, 0, 77, 0
1, 214314, Note_on_c, 0, 76, 0
1, 214378, Note_on_c, 0, 53, 71
1, 214378, Note_on_c, 0, 77, 88
1, 214449, Note_on_c, 0, 53, 0
1, 214451, Note_on_c, 0, 62, 0
1, 214489, Note_on_c, 0, 69, 85
1, 214536, Note_on_c, 0, 69, 0
1, 214615, Note_on_c, 0, 67, 83
1, 214617, Note_on_c, 0, 62, 61
1, 214628, Note_on_c, 0, 58, 75
1, 214652, Note_on_c, 0, 58, 0
1, 214667, Note_on_c, 0, 59, 59
1, 214686, Note_on_c, 0, 77, 0
1, 214692, Note_on_c, 0, 59, 0
1, 214741, Note_on_c, 0, 74, 83
1, 214860, Note_on_c, 0, 74, 0
1, 214880, Note_on_c, 0, 76, 86
1, 214892, Note_on_c, 0, 58, 77
1, 214960, Note_on_c, 0, 58, 0
1, 214973, Note_on_c, 0, 76, 0
1, 215008, Note_on_c, 0, 77, 89
1, 215022, Poly_aftertouch_c, 0, 76, 0
1, 215085, Note_on_c, 0, 77, 0
1, 215133, Note_on_c, 0, 79, 89
1, 215161, Note_on_c, 0, 58, 74
1, 215227, Note_on_c, 0, 58, 0
1, 215269, Note_on_c, 0, 81, 90
1, 215276, Note_on_c, 0, 79, 0
1, 215392, Note_on_c, 0, 82, 91
1, 215404, Note_on_c, 0, 58, 71
1, 215407, Note_on_c, 0, 62, 0
1, 215417, Note_on_c, 0, 81, 0
1, 215456, Note_on_c, 0, 58, 0
1, 215510, Note_on_c, 0, 79, 90
1, 215521, Note_on_c, 0, 82, 0
1, 215582, Note_on_c, 0, 79, 0
1, 215630, Note_on_c, 0, 77, 89
1, 215645, Note_on_c, 0, 58, 67
1, 215646, Note_on_c, 0, 60, 69
1, 215679, Note_on_c, 0, 67, 0
1, 215696, Note_on_c, 0, 58, 0
1, 215758, Note_on_c, 0, 76, 92
1, 215765, Note_on_c, 0, 77, 0
1, 215838, Note_on_c, 0, 76, 0
1, 215886, Note_on_c, 0, 74, 92
1, 215893, Note_on_c, 0, 58, 69
1, 215930, Note_on_c, 0, 58, 0
1, 215951, Note_on_c, 0, 74, 0
1, 215997, Note_on_c, 0, 72, 87
1, 216065, Note_on_c, 0, 72, 0
1, 216155, Note_on_c, 0, 77, 81
1, 216186, Note_on_c, 0, 65, 58
1, 216190, Note_on_c, 0, 58, 52
1, 216196, Note_on_c, 0, 60, 0
1, 216196, Control_c, 0, 67, 11
1, 216215, Control_c, 0, 67, 20
1, 216233, Control_c, 0, 67, 30
1, 216245, Note_on_c, 0, 58, 0
1, 216248, Control_c, 0, 67, 42
1, 216269, Control_c, 0, 67, 52
1, 216287, Control_c, 0, 67, 60
1, 216306, Control_c, 0, 67, 65
1, 216355, Note_on_c, 0, 65, 0
1, 216361, Control_c, 0, 67, 69
1, 216408, Note_on_c, 0, 57, 60
1, 216431, Note_on_c, 0, 72, 71
1, 216445, Note_on_c, 0, 77, 0
1, 216463, Note_on_c, 0, 57, 0
1, 216538, Note_on_c, 0, 55, 66
1, 216562, Control_c, 0, 67, 74
1, 216575, Note_on_c, 0, 55, 0
1, 216599, Control_c, 0, 67, 78
1, 216665, Note_on_c, 0, 77, 79
1, 216670, Note_on_c, 0, 57, 61
1, 216684, Note_on_c, 0, 72, 0
1, 216706, Note_on_c, 0, 57, 0
1, 216799, Note_on_c, 0, 53, 64
1, 216830, Note_on_c, 0, 53, 0
1, 216917, Note_on_c, 0, 77, 0
1, 216930, Note_on_c, 0, 57, 66
1, 216935, Note_on_c, 0, 75, 73
1, 216961, Note_on_c, 0, 57, 0
1, 217042, Note_on_c, 0, 75, 0
1, 217059, Note_on_c, 0, 74, 76
1, 217070, Note_on_c, 0, 59, 66
1, 217102, Note_on_c, 0, 59, 0
1, 217115, Note_on_c, 0, 74, 0
1, 217196, Note_on_c, 0, 75, 77
1, 217200, Note_on_c, 0, 60, 63
1, 217239, Note_on_c, 0, 60, 0
1, 217305, Note_on_c, 0, 59, 65
1, 217319, Note_on_c, 0, 67, 76
1, 217339, Note_on_c, 0, 59, 0
1, 217398, Note_on_c, 0, 75, 0
1, 217400, Note_on_c, 0, 67, 0
1, 217440, Note_on_c, 0, 72, 69
1, 217442, Note_on_c, 0, 68, 71
1, 217470, Note_on_c, 0, 60, 63
1, 217513, Note_on_c, 0, 68, 0
1, 217562, Note_on_c, 0, 72, 0
1, 217562, Note_on_c, 0, 67, 75
1, 217618, Note_on_c, 0, 67, 0
1, 217632, Note_on_c, 0, 60, 0
1, 217695, Note_on_c, 0, 74, 74
1, 217715, Note_on_c, 0, 65, 68
1, 217815, Note_on_c, 0, 60, 79
1, 217853, Note_on_c, 0, 60, 0
1, 217868, Note_on_c, 0, 65, 0
1, 217939, Note_on_c, 0, 59, 75
1, 217939, Note_on_c, 0, 67, 71
1, 217940, Note_on_c, 0, 74, 0
1, 217946, Note_on_c, 0, 62, 64
1, 217990, Note_on_c, 0, 67, 0
1, 217993, Note_on_c, 0, 62, 0
1, 217995, Note_on_c, 0, 59, 0
1, 218071, Note_on_c, 0, 57, 80
1, 218124, Note_on_c, 0, 57, 0
1, 218203, Note_on_c, 0, 59, 75
1, 218207, Note_on_c, 0, 79, 79
1, 218242, Note_on_c, 0, 59, 0
1, 218330, Note_on_c, 0, 55, 71
1, 218361, Note_on_c, 0, 55, 0
1, 218424, Note_on_c, 0, 79, 0
1, 218447, Note_on_c, 0, 77, 81
1, 218448, Note_on_c, 0, 59, 79
1, 218481, Note_on_c, 0, 59, 0
1, 218564, Note_on_c, 0, 75, 87
1, 218572, Note_on_c, 0, 77, 0
1, 218580, Note_on_c, 0, 60, 74
1, 218609, Note_on_c, 0, 60, 0
1, 218645, Note_on_c, 0, 75, 0
1, 218689, Note_on_c, 0, 77, 87
1, 218703, Note_on_c, 0, 62, 75
1, 218746, Note_on_c, 0, 62, 0
1, 218809, Note_on_c, 0, 69, 84
1, 218813, Note_on_c, 0, 60, 78
1, 218841, Note_on_c, 0, 60, 0
1, 218868, Note_on_c, 0, 77, 0
1, 218879, Note_on_c, 0, 69, 0
1, 218945, Note_on_c, 0, 74, 82
1, 218948, Note_on_c, 0, 71, 80
1, 218979, Note_on_c, 0, 62, 71
1, 219008, Note_on_c, 0, 71, 0
1, 219040, Note_on_c, 0, 74, 0
1, 219060, Note_on_c, 0, 69, 80
1, 219119, Note_on_c, 0, 69, 0
1, 219181, Note_on_c, 0, 62, 0
1, 219194, Note_on_c, 0, 75, 82
1, 219200, Note_on_c, 0, 67, 71
1, 219265, Note_on_c, 0, 67, 0
1, 219311, Note_on_c, 0, 55, 72
1, 219346, Note_on_c, 0, 55, 0
1, 219367, Control_c, 0, 67, 73
1, 219405, Control_c, 0, 67, 68
1, 219439, Note_on_c, 0, 72, 82
1, 219443, Note_on_c, 0, 60, 76
1, 219447, Note_on_c, 0, 63, 74
1, 219450, Note_on_c, 0, 75, 0
1, 219477, Note_on_c, 0, 63, 0
1, 219491, Note_on_c, 0, 60, 0
1, 219536, Note_on_c, 0, 72, 0
1, 219563, Note_on_c, 0, 59, 79
1, 219604, Note_on_c, 0, 59, 0
1, 219698, Note_on_c, 0, 60, 79
1, 219703, Note_on_c, 0, 80, 87
1, 219749, Note_on_c, 0, 60, 0
1, 219818, Note_on_c, 0, 55, 74
1, 219873, Note_on_c, 0, 55, 0
1, 219918, Note_on_c, 0, 80, 0
1, 219946, Note_on_c, 0, 60, 78
1, 219953, Note_on_c, 0, 79, 83
1, 219990, Note_on_c, 0, 60, 0
1, 220022, Note_on_c, 0, 79, 0
1, 220070, Note_on_c, 0, 62, 78
1, 220071, Note_on_c, 0, 77, 87
1, 220107, Note_on_c, 0, 62, 0
1, 220146, Note_on_c, 0, 77, 0
1, 220191, Note_on_c, 0, 79, 86
1, 220192, Note_on_c, 0, 63, 80
1, 220235, Note_on_c, 0, 63, 0
1, 220306, Note_on_c, 0, 71, 82
1, 220312, Note_on_c, 0, 62, 80
1, 220320, Control_c, 0, 67, 64
1, 220354, Note_on_c, 0, 62, 0
1, 220381, Note_on_c, 0, 79, 0
1, 220389, Note_on_c, 0, 71, 0
1, 220412, Control_c, 0, 67, 57
1, 220430, Control_c, 0, 67, 50
1, 220432, Note_on_c, 0, 63, 80
1, 220434, Note_on_c, 0, 75, 74
1, 220437, Note_on_c, 0, 72, 74
1, 220449, Control_c, 0, 67, 41
1, 220468, Control_c, 0, 67, 30
1, 220487, Control_c, 0, 67, 19
1, 220505, Control_c, 0, 67, 14
1, 220533, Note_on_c, 0, 72, 0
1, 220555, Note_on_c, 0, 70, 82
1, 220594, Note_on_c, 0, 70, 0
1, 220697, Note_on_c, 0, 77, 76
1, 220699, Note_on_c, 0, 68, 81
1, 220734, Note_on_c, 0, 75, 0
1, 220780, Note_on_c, 0, 68, 0
1, 220826, Note_on_c, 0, 67, 84
1, 220850, Note_on_c, 0, 63, 0
1, 220876, Note_on_c, 0, 67, 0
1, 220953, Note_on_c, 0, 68, 81
1, 221064, Note_on_c, 0, 63, 75
1, 221122, Note_on_c, 0, 63, 0
1, 221198, Note_on_c, 0, 62, 75
1, 221319, Note_on_c, 0, 68, 0
1, 221323, Note_on_c, 0, 67, 82
1, 221373, Note_on_c, 0, 67, 0
1, 221454, Note_on_c, 0, 68, 85
1, 221457, Note_on_c, 0, 62, 0
1, 221564, Note_on_c, 0, 60, 65
1, 221604, Note_on_c, 0, 60, 0
1, 221711, Note_on_c, 0, 77, 0
1, 221719, Note_on_c, 0, 59, 64
1, 221825, Note_on_c, 0, 75, 71
1, 221886, Note_on_c, 0, 75, 0
1, 221965, Note_on_c, 0, 74, 79
1, 221996, Note_on_c, 0, 59, 0
1, 222041, Note_on_c, 0, 74, 0
1, 222073, Note_on_c, 0, 62, 51
1, 222088, Note_on_c, 0, 72, 79
1, 222109, Note_on_c, 0, 62, 0
1, 222125, Note_on_c, 0, 68, 0
1, 222170, Note_on_c, 0, 72, 0
1, 222219, Note_on_c, 0, 71, 80
1, 222239, Note_on_c, 0, 55, 60
1, 222270, Note_on_c, 0, 55, 0
1, 222295, Note_on_c, 0, 71, 0
1, 222337, Note_on_c, 0, 68, 85
1, 222404, Note_on_c, 0, 68, 0
1, 222466, Note_on_c, 0, 59, 68
1, 222468, Note_on_c, 0, 74, 82
1, 222471, Note_on_c, 0, 67, 74
1, 222491, Note_on_c, 0, 59, 0
1, 222502, Note_on_c, 0, 67, 0
1, 222584, Note_on_c, 0, 65, 73
1, 222650, Note_on_c, 0, 65, 0
1, 222737, Note_on_c, 0, 63, 78
1, 222738, Note_on_c, 0, 74, 0
1, 222749, Note_on_c, 0, 60, 65
1, 222785, Note_on_c, 0, 60, 0
1, 222861, Poly_aftertouch_c, 0, 71, 0
1, 222866, Note_on_c, 0, 67, 72
1, 222960, Note_on_c, 0, 63, 0
1, 222974, Note_on_c, 0, 67, 0
1, 222986, Note_on_c, 0, 56, 69
1, 222997, Note_on_c, 0, 72, 74
1, 223021, Note_on_c, 0, 56, 0
1, 223119, Note_on_c, 0, 63, 74
1, 223145, Note_on_c, 0, 72, 0
1, 223215, Note_on_c, 0, 63, 0
1, 223237, Note_on_c, 0, 62, 80
1, 223240, Note_on_c, 0, 53, 65
1, 223270, Note_on_c, 0, 53, 0
1, 223366, Note_on_c, 0, 72, 79
1, 223405, Note_on_c, 0, 62, 0
1, 223485, Note_on_c, 0, 55, 63
1, 223493, Note_on_c, 0, 71, 82
1, 223510, Note_on_c, 0, 72, 0
1, 223518, Note_on_c, 0, 55, 0
1, 223625, Note_on_c, 0, 65, 80
1, 223680, Note_on_c, 0, 65, 0
1, 223759, Note_on_c, 0, 72, 80
1, 223777, Note_on_c, 0, 71, 0
1, 223778, Note_on_c, 0, 48, 59
1, 223874, Note_on_c, 0, 48, 0
1, 223878, Note_on_c, 0, 65, 76
1, 223908, Note_on_c, 0, 65, 0
1, 224000, Note_on_c, 0, 63, 83
1, 224005, Control_c, 0, 67, 8
1, 224024, Control_c, 0, 67, 0
1, 224060, Note_on_c, 0, 63, 0
1, 224116, Note_on_c, 0, 62, 86
1, 224171, Note_on_c, 0, 62, 0
1, 224183, Note_on_c, 0, 72, 0
1, 224245, Note_on_c, 0, 63, 88
1, 224250, Note_on_c, 0, 60, 88
1, 224374, Note_on_c, 0, 48, 71
1, 224375, Note_on_c, 0, 70, 80
1, 224438, Note_on_c, 0, 48, 0
1, 224470, Note_on_c, 0, 70, 0
1, 224495, Note_on_c, 0, 50, 78
1, 224524, Note_on_c, 0, 69, 78
1, 224578, Note_on_c, 0, 50, 0
1, 224591, Note_on_c, 0, 63, 0
1, 224612, Note_on_c, 0, 69, 0
1, 224631, Note_on_c, 0, 51, 82
1, 224641, Note_on_c, 0, 67, 82
1, 224677, Note_on_c, 0, 60, 0
1, 224683, Note_on_c, 0, 51, 0
1, 224722, Note_on_c, 0, 67, 0
1, 224762, Note_on_c, 0, 53, 83
1, 224763, Note_on_c, 0, 69, 87
1, 224823, Note_on_c, 0, 53, 0
1, 224888, Note_on_c, 0, 51, 82
1, 224933, Note_on_c, 0, 51, 0
1, 225019, Note_on_c, 0, 60, 87
1, 225020, Note_on_c, 0, 57, 83
1, 225036, Note_on_c, 0, 53, 75
1, 225073, Note_on_c, 0, 60, 0
1, 225078, Note_on_c, 0, 53, 0
1, 225277, Note_on_c, 0, 65, 88
1, 225283, Note_on_c, 0, 62, 82
1, 225287, Note_on_c, 0, 53, 86
1, 225299, Note_on_c, 0, 57, 0
1, 225318, Note_on_c, 0, 69, 0
1, 225320, Note_on_c, 0, 53, 0
1, 225407, Note_on_c, 0, 67, 83
1, 225424, Note_on_c, 0, 65, 0
1, 225512, Note_on_c, 0, 67, 0
1, 225541, Note_on_c, 0, 46, 66
1, 225555, Note_on_c, 0, 69, 86
1, 225616, Note_on_c, 0, 46, 0
1, 225647, Note_on_c, 0, 62, 0
1, 225670, Note_on_c, 0, 70, 85
1, 225690, Note_on_c, 0, 69, 0
1, 225752, Note_on_c, 0, 70, 0
1, 225797, Note_on_c, 0, 67, 87
1, 225803, Note_on_c, 0, 62, 81
1, 225804, Note_on_c, 0, 58, 89
1, 225881, Note_on_c, 0, 58, 0
1, 225932, Note_on_c, 0, 46, 71
1, 226001, Note_on_c, 0, 46, 0
1, 226058, Note_on_c, 0, 48, 74
1, 226114, Note_on_c, 0, 48, 0
1, 226147, Note_on_c, 0, 62, 0
1, 226179, Note_on_c, 0, 50, 83
1, 226221, Note_on_c, 0, 50, 0
1, 226310, Note_on_c, 0, 51, 86
1, 226370, Note_on_c, 0, 51, 0
1, 226443, Note_on_c, 0, 50, 81
1, 226488, Note_on_c, 0, 50, 0
1, 226568, Note_on_c, 0, 58, 89
1, 226572, Note_on_c, 0, 55, 84
1, 226586, Note_on_c, 0, 51, 78
1, 226629, Note_on_c, 0, 58, 0
1, 226637, Note_on_c, 0, 51, 0
1, 226843, Note_on_c, 0, 63, 86
1, 226843, Note_on_c, 0, 51, 84
1, 226849, Note_on_c, 0, 60, 86
1, 226860, Note_on_c, 0, 55, 0
1, 226897, Note_on_c, 0, 51, 0
1, 226909, Note_on_c, 0, 67, 0
1, 226948, Note_on_c, 0, 63, 0
1, 226967, Note_on_c, 0, 65, 87
1, 227059, Note_on_c, 0, 65, 0
1, 227100, Note_on_c, 0, 45, 70
1, 227102, Note_on_c, 0, 67, 87
1, 227146, Note_on_c, 0, 45, 0
1, 227214, Note_on_c, 0, 69, 86
1, 227224, Note_on_c, 0, 60, 0
1, 227232, Note_on_c, 0, 67, 0
1, 227284, Note_on_c, 0, 69, 0
1, 227365, Note_on_c, 0, 60, 83
1, 227366, Note_on_c, 0, 57, 89
1, 227368, Note_on_c, 0, 65, 87
1, 227509, Note_on_c, 0, 57, 0
1, 227510, Note_on_c, 0, 45, 69
1, 227567, Note_on_c, 0, 45, 0
1, 227618, Note_on_c, 0, 46, 81
1, 227622, Note_on_c, 0, 60, 0
1, 227673, Note_on_c, 0, 46, 0
1, 227749, Note_on_c, 0, 48, 83
1, 227795, Note_on_c, 0, 48, 0
1, 227873, Note_on_c, 0, 50, 90
1, 227932, Note_on_c, 0, 50, 0
1, 227990, Note_on_c, 0, 48, 90
1, 228035, Note_on_c, 0, 48, 0
1, 228138, Note_on_c, 0, 53, 82
1, 228139, Note_on_c, 0, 57, 82
1, 228161, Note_on_c, 0, 50, 74
1, 228189, Note_on_c, 0, 57, 0
1, 228422, Note_on_c, 0, 62, 77
1, 228423, Note_on_c, 0, 58, 72
1, 228474, Note_on_c, 0, 53, 0
1, 228481, Note_on_c, 0, 58, 0
1, 228481, Note_on_c, 0, 50, 0
1, 228517, Note_on_c, 0, 62, 0
1, 228553, Note_on_c, 0, 48, 76
1, 228591, Note_on_c, 0, 48, 0
1, 228670, Note_on_c, 0, 65, 0
1, 228673, Note_on_c, 0, 50, 79
1, 228680, Note_on_c, 0, 62, 77
1, 228688, Note_on_c, 0, 58, 69
1, 228715, Note_on_c, 0, 50, 0
1, 228732, Note_on_c, 0, 58, 0
1, 228767, Note_on_c, 0, 62, 0
1, 228793, Note_on_c, 0, 69, 80
1, 228801, Note_on_c, 0, 48, 74
1, 228843, Note_on_c, 0, 69, 0
1, 228845, Note_on_c, 0, 48, 0
1, 228917, Note_on_c, 0, 46, 82
1, 228928, Note_on_c, 0, 67, 77
1, 228930, Note_on_c, 0, 62, 74
1, 228932, Note_on_c, 0, 58, 75
1, 228974, Note_on_c, 0, 46, 0
1, 229019, Note_on_c, 0, 58, 0
1, 229037, Note_on_c, 0, 62, 0
1, 229042, Note_on_c, 0, 45, 84
1, 229098, Note_on_c, 0, 45, 0
1, 229173, Note_on_c, 0, 46, 87
1, 229175, Note_on_c, 0, 67, 0
1, 229175, Note_on_c, 0, 62, 85
1, 229196, Note_on_c, 0, 58, 77
1, 229251, Note_on_c, 0, 58, 0
1, 229254, Note_on_c, 0, 46, 0
1, 229304, Note_on_c, 0, 65, 82
1, 229309, Note_on_c, 0, 45, 86
1, 229330, Note_on_c, 0, 62, 0
1, 229369, Note_on_c, 0, 45, 0
1, 229399, Note_on_c, 0, 65, 0
1, 229436, Note_on_c, 0, 62, 81
1, 229445, Note_on_c, 0, 43, 90
1, 229448, Note_on_c, 0, 70, 80
1, 229452, Note_on_c, 0, 58, 65
1, 229512, Note_on_c, 0, 43, 0
1, 229538, Note_on_c, 0, 58, 0
1, 229542, Note_on_c, 0, 62, 0
1, 229572, Note_on_c, 0, 43, 74
1, 229615, Note_on_c, 0, 43, 0
1, 229615, Note_on_c, 0, 41, 36
1, 229676, Note_on_c, 0, 41, 0
1, 229677, Note_on_c, 0, 70, 0
1, 229699, Note_on_c, 0, 43, 89
1, 229701, Note_on_c, 0, 58, 78
1, 229703, Note_on_c, 0, 62, 78
1, 229744, Note_on_c, 0, 43, 0
1, 229762, Note_on_c, 0, 58, 0
1, 229799, Note_on_c, 0, 41, 77
1, 229816, Note_on_c, 0, 69, 84
1, 229869, Note_on_c, 0, 41, 0
1, 229886, Note_on_c, 0, 62, 0
1, 229887, Note_on_c, 0, 69, 0
1, 229937, Note_on_c, 0, 40, 87
1, 229963, Note_on_c, 0, 67, 82
1, 229963, Note_on_c, 0, 62, 68
1, 229965, Note_on_c, 0, 58, 80
1, 229994, Note_on_c, 0, 40, 0
1, 229998, Control_c, 0, 64, 38
1, 230019, Control_c, 0, 64, 52
1, 230038, Control_c, 0, 64, 58
1, 230052, Note_on_c, 0, 58, 0
1, 230056, Control_c, 0, 64, 62
1, 230068, Note_on_c, 0, 62, 0
1, 230068, Note_on_c, 0, 36, 84
1, 230075, Control_c, 0, 64, 63
1, 230080, Note_on_c, 0, 67, 0
1, 230095, Control_c, 0, 64, 65
1, 230143, Control_c, 0, 64, 63
1, 230159, Note_on_c, 0, 36, 0
1, 230163, Control_c, 0, 64, 60
1, 230181, Control_c, 0, 64, 54
1, 230200, Control_c, 0, 64, 40
1, 230212, Note_on_c, 0, 57, 75
1, 230213, Note_on_c, 0, 38, 86
1, 230214, Note_on_c, 0, 60, 79
1, 230216, Control_c, 0, 64, 0
1, 230261, Note_on_c, 0, 57, 0
1, 230265, Note_on_c, 0, 38, 0
1, 230279, Note_on_c, 0, 60, 0
1, 230325, Note_on_c, 0, 55, 82
1, 230330, Note_on_c, 0, 40, 88
1, 230379, Note_on_c, 0, 40, 0
1, 230384, Note_on_c, 0, 55, 0
1, 230420, Control_c, 0, 67, 9
1, 230438, Control_c, 0, 67, 16
1, 230457, Control_c, 0, 67, 26
1, 230461, Note_on_c, 0, 65, 85
1, 230462, Note_on_c, 0, 57, 82
1, 230471, Note_on_c, 0, 41, 88
1, 230475, Control_c, 0, 67, 38
1, 230493, Control_c, 0, 67, 47
1, 230521, Note_on_c, 0, 41, 0
1, 230522, Note_on_c, 0, 57, 0
1, 230582, Note_on_c, 0, 55, 80
1, 230587, Note_on_c, 0, 36, 77
1, 230622, Note_on_c, 0, 36, 0
1, 230630, Note_on_c, 0, 55, 0
1, 230641, Control_c, 0, 67, 42
1, 230661, Control_c, 0, 67, 37
1, 230677, Control_c, 0, 67, 24
1, 230707, Note_on_c, 0, 41, 80
1, 230714, Note_on_c, 0, 57, 75
1, 230714, Control_c, 0, 67, 0
1, 230752, Note_on_c, 0, 41, 0
1, 230769, Note_on_c, 0, 57, 0
1, 230835, Note_on_c, 0, 43, 79
1, 230836, Note_on_c, 0, 59, 77
1, 230878, Note_on_c, 0, 59, 0
1, 230882, Note_on_c, 0, 43, 0
1, 230963, Note_on_c, 0, 60, 72
1, 230976, Note_on_c, 0, 44, 76
1, 231020, Note_on_c, 0, 60, 0
1, 231107, Note_on_c, 0, 59, 72
1, 231146, Note_on_c, 0, 65, 0
1, 231162, Note_on_c, 0, 44, 0
1, 231186, Note_on_c, 0, 59, 0
1, 231230, Note_on_c, 0, 60, 73
1, 231265, Note_on_c, 0, 38, 64
1, 231299, Note_on_c, 0, 38, 0
1, 231362, Note_on_c, 0, 65, 62
1, 231403, Note_on_c, 0, 65, 0
1, 231488, Note_on_c, 0, 43, 60
1, 231491, Note_on_c, 0, 63, 71
1, 231544, Note_on_c, 0, 43, 0
1, 231624, Note_on_c, 0, 60, 0
1, 231628, Note_on_c, 0, 42, 63
1, 231640, Note_on_c, 0, 63, 0
1, 231677, Note_on_c, 0, 42, 0
1, 231733, Note_on_c, 0, 59, 72
1, 231739, Note_on_c, 0, 62, 68
1, 231751, Note_on_c, 0, 43, 62
1, 231787, Note_on_c, 0, 59, 0
1, 231787, Note_on_c, 0, 43, 0
1, 231858, Note_on_c, 0, 45, 60
1, 231861, Note_on_c, 0, 57, 73
1, 231896, Note_on_c, 0, 45, 0
1, 231905, Note_on_c, 0, 57, 0
1, 231987, Note_on_c, 0, 47, 75
1, 232013, Note_on_c, 0, 55, 78
1, 232050, Note_on_c, 0, 47, 0
1, 232080, Note_on_c, 0, 55, 0
1, 232124, Note_on_c, 0, 50, 78
1, 232131, Note_on_c, 0, 45, 78
1, 232183, Note_on_c, 0, 45, 0
1, 232192, Note_on_c, 0, 50, 0
1, 232249, Note_on_c, 0, 55, 82
1, 232264, Note_on_c, 0, 47, 82
1, 232302, Note_on_c, 0, 47, 0
1, 232313, Note_on_c, 0, 62, 0
1, 232321, Note_on_c, 0, 55, 0
1, 232374, Note_on_c, 0, 57, 87
1, 232378, Note_on_c, 0, 50, 80
1, 232422, Note_on_c, 0, 50, 0
1, 232448, Note_on_c, 0, 57, 0
1, 232506, Note_on_c, 0, 59, 85
1, 232513, Note_on_c, 0, 55, 74
1, 232569, Note_on_c, 0, 59, 0
1, 232623, Note_on_c, 0, 60, 83
1, 232745, Note_on_c, 0, 62, 85
1, 232747, Note_on_c, 0, 60, 0
1, 232781, Note_on_c, 0, 47, 67
1, 232786, Note_on_c, 0, 55, 0
1, 232822, Note_on_c, 0, 47, 0
1, 232870, Note_on_c, 0, 67, 85
1, 233006, Note_on_c, 0, 67, 0
1, 233016, Note_on_c, 0, 65, 86
1, 233020, Note_on_c, 0, 62, 0
1, 233020, Note_on_c, 0, 62, 45
1, 233031, Note_on_c, 0, 48, 63
1, 233095, Note_on_c, 0, 48, 0
1, 233140, Note_on_c, 0, 60, 79
1, 233176, Note_on_c, 0, 62, 0
1, 233189, Note_on_c, 0, 60, 0
1, 233212, Note_on_c, 0, 65, 0
1, 233249, Note_on_c, 0, 55, 79
1, 233270, Note_on_c, 0, 63, 79
1, 233273, Note_on_c, 0, 60, 79
1, 233317, Note_on_c, 0, 55, 0
1, 233333, Note_on_c, 0, 60, 0
1, 233343, Note_on_c, 0, 63, 0
1, 233377, Note_on_c, 0, 65, 88
1, 233378, Note_on_c, 0, 51, 78
1, 233420, Note_on_c, 0, 65, 0
1, 233442, Note_on_c, 0, 51, 0
1, 233523, Note_on_c, 0, 48, 68
1, 233528, Note_on_c, 0, 75, 95
1, 233537, Note_on_c, 0, 67, 85
1, 233561, Note_on_c, 0, 48, 0
1, 233652, Note_on_c, 0, 55, 72
1, 233694, Note_on_c, 0, 55, 0
1, 233780, Note_on_c, 0, 57, 78
1, 233830, Note_on_c, 0, 57, 0
1, 233837, Note_on_c, 0, 67, 0
1, 233913, Note_on_c, 0, 59, 82
1, 233943, Note_on_c, 0, 75, 0
1, 233957, Note_on_c, 0, 59, 0
1, 234044, Note_on_c, 0, 60, 87
1, 234101, Note_on_c, 0, 60, 0
1, 234157, Note_on_c, 0, 59, 88
1, 234203, Note_on_c, 0, 59, 0
1, 234279, Note_on_c, 0, 72, 93
1, 234283, Note_on_c, 0, 60, 85
1, 234284, Note_on_c, 0, 63, 84
1, 234317, Note_on_c, 0, 63, 0
1, 234339, Note_on_c, 0, 72, 0
1, 234357, Note_on_c, 0, 60, 0
1, 234394, Note_on_c, 0, 56, 72
1, 234457, Note_on_c, 0, 56, 0
1, 234526, Note_on_c, 0, 77, 93
1, 234533, Note_on_c, 0, 68, 84
1, 234537, Note_on_c, 0, 60, 75
1, 234566, Control_c, 0, 64, 26
1, 234583, Control_c, 0, 64, 58
1, 234601, Control_c, 0, 64, 72
1, 234609, Note_on_c, 0, 60, 0
1, 234620, Control_c, 0, 64, 84
1, 234639, Control_c, 0, 64, 97
1, 234649, Note_on_c, 0, 50, 70
1, 234655, Control_c, 0, 64, 107
1, 234671, Note_on_c, 0, 68, 0
1, 234672, Note_on_c, 0, 77, 0
1, 234693, Control_c, 0, 64, 102
1, 234712, Control_c, 0, 64, 88
1, 234726, Note_on_c, 0, 50, 0
1, 234731, Control_c, 0, 64, 63
1, 234749, Control_c, 0, 64, 0
1, 234783, Note_on_c, 0, 53, 79
1, 234858, Note_on_c, 0, 53, 0
1, 234918, Note_on_c, 0, 56, 81
1, 234965, Note_on_c, 0, 56, 0
1, 235041, Note_on_c, 0, 74, 95
1, 235048, Note_on_c, 0, 58, 75
1, 235051, Note_on_c, 0, 65, 88
1, 235099, Note_on_c, 0, 58, 0
1, 235166, Note_on_c, 0, 53, 72
1, 235233, Note_on_c, 0, 53, 0
1, 235294, Note_on_c, 0, 55, 77
1, 235335, Note_on_c, 0, 55, 0
1, 235340, Note_on_c, 0, 65, 0
1, 235351, Note_on_c, 0, 74, 0
1, 235409, Note_on_c, 0, 56, 79
1, 235479, Note_on_c, 0, 56, 0
1, 235537, Note_on_c, 0, 58, 85
1, 235584, Note_on_c, 0, 58, 0
1, 235654, Note_on_c, 0, 56, 86
1, 235720, Note_on_c, 0, 56, 0
1, 235792, Note_on_c, 0, 70, 91
1, 235795, Note_on_c, 0, 58, 86
1, 235796, Note_on_c, 0, 62, 86
1, 235833, Note_on_c, 0, 62, 0
1, 235858, Note_on_c, 0, 58, 0
1, 235866, Note_on_c, 0, 70, 0
1, 235912, Note_on_c, 0, 55, 81
1, 235990, Note_on_c, 0, 55, 0
1, 236047, Note_on_c, 0, 75, 94
1, 236052, Note_on_c, 0, 58, 82
1, 236059, Note_on_c, 0, 67, 83
1, 236103, Control_c, 0, 64, 54
1, 236122, Control_c, 0, 64, 72
1, 236135, Note_on_c, 0, 58, 0
1, 236137, Control_c, 0, 64, 86
1, 236151, Note_on_c, 0, 67, 0
1, 236157, Control_c, 0, 64, 101
1, 236174, Note_on_c, 0, 48, 74
1, 236176, Control_c, 0, 64, 105
1, 236195, Control_c, 0, 64, 101
1, 236212, Control_c, 0, 64, 88
1, 236225, Note_on_c, 0, 48, 0
1, 236230, Note_on_c, 0, 75, 0
1, 236233, Control_c, 0, 64, 70
1, 236251, Control_c, 0, 64, 37
1, 236268, Control_c, 0, 64, 0
1, 236300, Note_on_c, 0, 51, 82
1, 236363, Note_on_c, 0, 51, 0
1, 236414, Note_on_c, 0, 55, 83
1, 236474, Note_on_c, 0, 55, 0
1, 236537, Note_on_c, 0, 56, 82
1, 236539, Note_on_c, 0, 63, 90
1, 236539, Note_on_c, 0, 72, 91
1, 236604, Note_on_c, 0, 56, 0
1, 236656, Control_c, 0, 64, 43
1, 236666, Note_on_c, 0, 51, 80
1, 236687, Control_c, 0, 64, 61
1, 236707, Control_c, 0, 64, 68
1, 236725, Control_c, 0, 64, 70
1, 236749, Note_on_c, 0, 51, 0
1, 236761, Control_c, 0, 64, 72
1, 236778, Note_on_c, 0, 63, 0
1, 236805, Note_on_c, 0, 53, 83
1, 236812, Note_on_c, 0, 72, 0
1, 236867, Note_on_c, 0, 53, 0
1, 236870, Control_c, 0, 64, 70
1, 236891, Control_c, 0, 64, 67
1, 236909, Control_c, 0, 64, 62
1, 236925, Note_on_c, 0, 55, 87
1, 236928, Control_c, 0, 64, 52
1, 236946, Control_c, 0, 64, 15
1, 236965, Control_c, 0, 64, 0
1, 236989, Note_on_c, 0, 55, 0
1, 237049, Note_on_c, 0, 56, 84
1, 237121, Note_on_c, 0, 56, 0
1, 237170, Note_on_c, 0, 55, 81
1, 237231, Note_on_c, 0, 55, 0
1, 237290, Note_on_c, 0, 68, 87
1, 237300, Note_on_c, 0, 56, 77
1, 237302, Note_on_c, 0, 60, 82
1, 237327, Note_on_c, 0, 60, 0
1, 237362, Note_on_c, 0, 68, 0
1, 237408, Note_on_c, 0, 53, 71
1, 237494, Note_on_c, 0, 53, 0
1, 237542, Note_on_c, 0, 56, 0
1, 237549, Note_on_c, 0, 47, 62
1, 237558, Note_on_c, 0, 74, 85
1, 237572, Note_on_c, 0, 65, 68
1, 237607, Note_on_c, 0, 65, 0
1, 237646, Note_on_c, 0, 74, 0
1, 237690, Note_on_c, 0, 55, 74
1, 237775, Note_on_c, 0, 55, 0
1, 237828, Note_on_c, 0, 56, 76
1, 237833, Note_on_c, 0, 74, 83
1, 237841, Note_on_c, 0, 65, 72
1, 237876, Note_on_c, 0, 65, 0
1, 237904, Note_on_c, 0, 56, 0
1, 237926, Note_on_c, 0, 74, 0
1, 237946, Note_on_c, 0, 55, 74
1, 238017, Note_on_c, 0, 55, 0
1, 238033, Note_on_c, 0, 69, 33
1, 238094, Note_on_c, 0, 74, 85
1, 238096, Note_on_c, 0, 69, 0
1, 238099, Note_on_c, 0, 65, 81
1, 238102, Note_on_c, 0, 53, 77
1, 238137, Note_on_c, 0, 65, 0
1, 238159, Note_on_c, 0, 53, 0
1, 238179, Note_on_c, 0, 74, 0
1, 238194, Note_on_c, 0, 51, 82
1, 238228, Note_on_c, 0, 47, 0
1, 238278, Note_on_c, 0, 51, 0
1, 238340, Note_on_c, 0, 74, 90
1, 238344, Note_on_c, 0, 53, 80
1, 238345, Note_on_c, 0, 50, 80
1, 238350, Note_on_c, 0, 65, 83
1, 238399, Note_on_c, 0, 53, 0
1, 238411, Note_on_c, 0, 50, 0
1, 238414, Note_on_c, 0, 65, 0
1, 238457, Note_on_c, 0, 51, 87
1, 238472, Note_on_c, 0, 74, 0
1, 238507, Note_on_c, 0, 51, 0
1, 238617, Note_on_c, 0, 74, 93
1, 238621, Note_on_c, 0, 50, 85
1, 238623, Note_on_c, 0, 41, 83
1, 238624, Note_on_c, 0, 65, 85
1, 238668, Note_on_c, 0, 50, 0
1, 238692, Note_on_c, 0, 65, 0
1, 238700, Note_on_c, 0, 41, 0
1, 238740, Note_on_c, 0, 74, 0
1, 238740, Note_on_c, 0, 48, 82
1, 238797, Note_on_c, 0, 48, 0
1, 238870, Note_on_c, 0, 50, 83
1, 238872, Note_on_c, 0, 74, 91
1, 238878, Note_on_c, 0, 65, 83
1, 238885, Note_on_c, 0, 44, 85
1, 238915, Note_on_c, 0, 50, 0
1, 238925, Note_on_c, 0, 65, 0
1, 238937, Note_on_c, 0, 44, 0
1, 238990, Note_on_c, 0, 74, 0
1, 238990, Note_on_c, 0, 48, 86
1, 239053, Note_on_c, 0, 48, 0
1, 239128, Note_on_c, 0, 47, 83
1, 239129, Note_on_c, 0, 43, 78
1, 239133, Note_on_c, 0, 74, 85
1, 239141, Note_on_c, 0, 65, 80
1, 239163, Note_on_c, 0, 47, 0
1, 239171, Note_on_c, 0, 43, 0
1, 239210, Note_on_c, 0, 65, 0
1, 239264, Note_on_c, 0, 72, 85
1, 239278, Note_on_c, 0, 74, 0
1, 239396, Note_on_c, 0, 65, 82
1, 239399, Note_on_c, 0, 59, 63
1, 239401, Note_on_c, 0, 74, 79
1, 239406, Note_on_c, 0, 55, 62
1, 239407, Note_on_c, 0, 72, 0
1, 239412, Note_on_c, 0, 76, 64
1, 239438, Note_on_c, 0, 76, 0
1, 239463, Note_on_c, 0, 65, 0
1, 239498, Note_on_c, 0, 59, 0
1, 239504, Note_on_c, 0, 55, 0
1, 239526, Note_on_c, 0, 74, 0
1, 239531, Note_on_c, 0, 72, 87
1, 239663, Note_on_c, 0, 71, 88
1, 239666, Note_on_c, 0, 65, 81
1, 239666, Note_on_c, 0, 59, 67
1, 239672, Note_on_c, 0, 55, 70
1, 239693, Note_on_c, 0, 72, 0
1, 239764, Note_on_c, 0, 55, 0
1, 239764, Note_on_c, 0, 59, 0
1, 239771, Note_on_c, 0, 71, 0
1, 239786, Note_on_c, 0, 69, 88
1, 239809, Note_on_c, 0, 65, 0
1, 239881, Note_on_c, 0, 69, 0
1, 239919, Note_on_c, 0, 71, 87
1, 239923, Note_on_c, 0, 65, 85
1, 239927, Note_on_c, 0, 59, 74
1, 239928, Note_on_c, 0, 55, 74
1, 239999, Note_on_c, 0, 65, 0
1, 240033, Note_on_c, 0, 55, 0
1, 240041, Note_on_c, 0, 69, 88
1, 240050, Note_on_c, 0, 59, 0
1, 240083, Note_on_c, 0, 71, 0
1, 240143, Note_on_c, 0, 69, 0
1, 240181, Note_on_c, 0, 67, 89
1, 240189, Note_on_c, 0, 60, 83
1, 240195, Note_on_c, 0, 57, 73
1, 240288, Note_on_c, 0, 67, 0
1, 240305, Note_on_c, 0, 65, 89
1, 240348, Note_on_c, 0, 60, 0
1, 240378, Note_on_c, 0, 65, 0
1, 240386, Note_on_c, 0, 57, 0
1, 240452, Note_on_c, 0, 67, 86
1, 240470, Note_on_c, 0, 62, 76
1, 240472, Note_on_c, 0, 59, 67
1, 240517, Note_on_c, 0, 59, 0
1, 240559, Note_on_c, 0, 67, 0
1, 240594, Note_on_c, 0, 65, 82
1, 240731, Note_on_c, 0, 51, 75
1, 240758, Control_c, 0, 67, 17
1, 240777, Control_c, 0, 67, 33
1, 240796, Control_c, 0, 67, 53
1, 240813, Control_c, 0, 67, 66
1, 240820, Note_on_c, 0, 65, 0
1, 240846, Note_on_c, 0, 62, 0
1, 240863, Note_on_c, 0, 63, 69
1, 240913, Note_on_c, 0, 63, 0
1, 240986, Note_on_c, 0, 65, 73
1, 241003, Note_on_c, 0, 55, 58
1, 241035, Note_on_c, 0, 55, 0
1, 241054, Note_on_c, 0, 65, 0
1, 241100, Note_on_c, 0, 62, 73
1, 241137, Note_on_c, 0, 62, 0
1, 241202, Note_on_c, 0, 51, 0
1, 241236, Note_on_c, 0, 60, 71
1, 241240, Note_on_c, 0, 63, 75
1, 241374, Note_on_c, 0, 51, 64
1, 241383, Note_on_c, 0, 67, 67
1, 241424, Note_on_c, 0, 51, 0
1, 241432, Note_on_c, 0, 63, 0
1, 241464, Note_on_c, 0, 67, 0
1, 241504, Note_on_c, 0, 69, 80
1, 241506, Note_on_c, 0, 53, 70
1, 241548, Note_on_c, 0, 53, 0
1, 241582, Note_on_c, 0, 69, 0
1, 241626, Note_on_c, 0, 55, 68
1, 241635, Note_on_c, 0, 71, 81
1, 241636, Note_on_c, 0, 60, 0
1, 241649, Poly_aftertouch_c, 0, 60, 0
1, 241660, Note_on_c, 0, 55, 0
1, 241697, Note_on_c, 0, 71, 0
1, 241747, Note_on_c, 0, 56, 67
1, 241755, Note_on_c, 0, 72, 83
1, 241784, Note_on_c, 0, 56, 0
1, 241875, Note_on_c, 0, 55, 57
1, 241913, Note_on_c, 0, 55, 0
1, 242008, Note_on_c, 0, 68, 76
1, 242011, Note_on_c, 0, 65, 70
1, 242024, Note_on_c, 0, 56, 62
1, 242041, Note_on_c, 0, 65, 0
1, 242060, Note_on_c, 0, 56, 0
1, 242064, Note_on_c, 0, 68, 0
1, 242282, Note_on_c, 0, 56, 61
1, 242287, Note_on_c, 0, 65, 75
1, 242305, Note_on_c, 0, 62, 68
1, 242332, Note_on_c, 0, 56, 0
1, 242487, Note_on_c, 0, 72, 0
1, 242574, Note_on_c, 0, 71, 76
1, 242575, Note_on_c, 0, 50, 47
1, 242633, Note_on_c, 0, 71, 0
1, 242696, Note_on_c, 0, 69, 80
1, 242726, Note_on_c, 0, 62, 0
1, 242736, Note_on_c, 0, 50, 0
1, 242753, Note_on_c, 0, 69, 0
1, 242769, Note_on_c, 0, 65, 0
1, 242828, Note_on_c, 0, 71, 80
1, 242953, Note_on_c, 0, 50, 63
1, 242953, Note_on_c, 0, 68, 74
1, 243000, Note_on_c, 0, 50, 0
1, 243033, Note_on_c, 0, 68, 0
1, 243083, Note_on_c, 0, 67, 73
1, 243088, Note_on_c, 0, 51, 71
1, 243127, Note_on_c, 0, 51, 0
1, 243149, Note_on_c, 0, 67, 0
1, 243198, Note_on_c, 0, 65, 77
1, 243200, Note_on_c, 0, 71, 0
1, 243215, Note_on_c, 0, 53, 62
1, 243267, Note_on_c, 0, 65, 0
1, 243271, Note_on_c, 0, 53, 0
1, 243343, Note_on_c, 0, 70, 83
1, 243349, Note_on_c, 0, 64, 73
1, 243357, Note_on_c, 0, 61, 68
1, 243373, Note_on_c, 0, 55, 66
1, 243394, Note_on_c, 0, 61, 0
1, 243396, Note_on_c, 0, 64, 0
1, 243445, Note_on_c, 0, 55, 0
1, 243469, Note_on_c, 0, 65, 76
1, 243487, Note_on_c, 0, 53, 67
1, 243523, Note_on_c, 0, 53, 0
1, 243540, Note_on_c, 0, 65, 0
1, 243602, Note_on_c, 0, 64, 73
1, 243603, Note_on_c, 0, 55, 66
1, 243646, Note_on_c, 0, 64, 0
1, 243658, Note_on_c, 0, 55, 0
1, 243720, Note_on_c, 0, 65, 69
1, 243739, Note_on_c, 0, 53, 65
1, 243775, Note_on_c, 0, 65, 0
1, 243775, Note_on_c, 0, 53, 0
1, 243867, Note_on_c, 0, 64, 70
1, 243879, Note_on_c, 0, 55, 59
1, 243885, Note_on_c, 0, 60, 64
1, 243921, Note_on_c, 0, 55, 0
1, 244065, Note_on_c, 0, 70, 0
1, 244144, Note_on_c, 0, 69, 65
1, 244146, Note_on_c, 0, 48, 52
1, 244197, Note_on_c, 0, 69, 0
1, 244268, Note_on_c, 0, 67, 76
1, 244312, Note_on_c, 0, 60, 0
1, 244324, Note_on_c, 0, 67, 0
1, 244329, Note_on_c, 0, 48, 0
1, 244339, Note_on_c, 0, 64, 0
1, 244411, Note_on_c, 0, 69, 81
1, 244528, Note_on_c, 0, 67, 75
1, 244537, Note_on_c, 0, 48, 60
1, 244587, Note_on_c, 0, 48, 0
1, 244629, Note_on_c, 0, 67, 0
1, 244656, Note_on_c, 0, 65, 76
1, 244671, Note_on_c, 0, 50, 70
1, 244707, Note_on_c, 0, 69, 0
1, 244715, Note_on_c, 0, 50, 0
1, 244723, Note_on_c, 0, 65, 0
1, 244768, Note_on_c, 0, 63, 78
1, 244784, Note_on_c, 0, 51, 72
1, 244826, Note_on_c, 0, 51, 0
1, 244837, Note_on_c, 0, 63, 0
1, 244849, Control_c, 0, 67, 62
1, 244868, Control_c, 0, 67, 47
1, 244886, Control_c, 0, 67, 11
1, 244897, Note_on_c, 0, 68, 82
1, 244903, Control_c, 0, 67, 0
1, 244908, Note_on_c, 0, 62, 71
1, 244923, Note_on_c, 0, 59, 71
1, 244928, Note_on_c, 0, 53, 68
1, 244941, Note_on_c, 0, 62, 0
1, 244977, Note_on_c, 0, 53, 0
1, 245022, Note_on_c, 0, 63, 81
1, 245037, Note_on_c, 0, 51, 69
1, 245086, Note_on_c, 0, 51, 0
1, 245090, Note_on_c, 0, 59, 0
1, 245095, Note_on_c, 0, 63, 0
1, 245174, Note_on_c, 0, 62, 81
1, 245175, Note_on_c, 0, 53, 71
1, 245208, Note_on_c, 0, 62, 0
1, 245238, Note_on_c, 0, 53, 0
1, 245282, Note_on_c, 0, 63, 82
1, 245283, Note_on_c, 0, 51, 69
1, 245332, Note_on_c, 0, 51, 0
1, 245355, Note_on_c, 0, 63, 0
1, 245430, Note_on_c, 0, 62, 88
1, 245438, Note_on_c, 0, 53, 66
1, 245469, Note_on_c, 0, 58, 68
1, 245499, Note_on_c, 0, 53, 0
1, 245508, Note_on_c, 0, 68, 0
1, 245544, Control_c, 0, 64, 28
1, 245564, Control_c, 0, 64, 55
1, 245582, Control_c, 0, 64, 66
1, 245601, Control_c, 0, 64, 71
1, 245638, Control_c, 0, 64, 73
1, 245670, Note_on_c, 0, 46, 71
1, 245672, Control_c, 0, 64, 77
1, 245681, Note_on_c, 0, 67, 81
1, 245692, Control_c, 0, 64, 81
1, 245694, Note_on_c, 0, 58, 0
1, 245699, Note_on_c, 0, 46, 0
1, 245708, Note_on_c, 0, 62, 0
1, 245711, Control_c, 0, 64, 86
1, 245727, Control_c, 0, 64, 90
1, 245741, Note_on_c, 0, 67, 0
1, 245764, Control_c, 0, 64, 96
1, 245796, Note_on_c, 0, 65, 85
1, 245840, Control_c, 0, 64, 100
1, 245872, Note_on_c, 0, 65, 0
1, 245893, Control_c, 0, 64, 91
1, 245914, Control_c, 0, 64, 77
1, 245931, Control_c, 0, 64, 51
1, 245936, Note_on_c, 0, 67, 76
1, 245938, Note_on_c, 0, 62, 89
1, 245947, Note_on_c, 0, 58, 78
1, 245950, Control_c, 0, 64, 0
1, 245964, Note_on_c, 0, 67, 0
1, 246082, Note_on_c, 0, 74, 80
1, 246090, Note_on_c, 0, 77, 80
1, 246133, Note_on_c, 0, 74, 0
1, 246162, Note_on_c, 0, 77, 0
1, 246212, Note_on_c, 0, 79, 76
1, 246213, Note_on_c, 0, 75, 80
1, 246257, Note_on_c, 0, 75, 0
1, 246263, Note_on_c, 0, 62, 0
1, 246270, Note_on_c, 0, 79, 0
1, 246282, Poly_aftertouch_c, 0, 57, 0
1, 246293, Note_on_c, 0, 58, 0
1, 246335, Note_on_c, 0, 80, 83
1, 246336, Note_on_c, 0, 77, 80
1, 246390, Note_on_c, 0, 77, 0
1, 246405, Note_on_c, 0, 80, 0
1, 246450, Note_on_c, 0, 82, 87
1, 246454, Note_on_c, 0, 79, 78
1, 246519, Note_on_c, 0, 79, 0
1, 246559, Note_on_c, 0, 82, 0
1, 246577, Note_on_c, 0, 80, 86
1, 246580, Note_on_c, 0, 77, 82
1, 246626, Note_on_c, 0, 77, 0
1, 246678, Note_on_c, 0, 80, 0
1, 246705, Note_on_c, 0, 79, 90
1, 246706, Note_on_c, 0, 82, 89
1, 246712, Note_on_c, 0, 58, 81
1, 246715, Note_on_c, 0, 55, 72
1, 246758, Note_on_c, 0, 55, 0
1, 246763, Note_on_c, 0, 79, 0
1, 246777, Note_on_c, 0, 58, 0
1, 246798, Note_on_c, 0, 82, 0
1, 246966, Note_on_c, 0, 82, 87
1, 246988, Note_on_c, 0, 79, 81
1, 247004, Note_on_c, 0, 63, 85
1, 247019, Note_on_c, 0, 60, 68
1, 247134, Note_on_c, 0, 63, 0
1, 247164, Note_on_c, 0, 79, 0
1, 247168, Note_on_c, 0, 60, 0
1, 247222, Note_on_c, 0, 82, 0
1, 247262, Note_on_c, 0, 75, 85
1, 247267, Note_on_c, 0, 72, 80
1, 247332, Note_on_c, 0, 72, 0
1, 247371, Note_on_c, 0, 75, 0
1, 247532, Note_on_c, 0, 60, 84
1, 247538, Note_on_c, 0, 56, 77
1, 247644, Note_on_c, 0, 72, 79
1, 247645, Note_on_c, 0, 75, 80
1, 247691, Note_on_c, 0, 72, 0
1, 247720, Note_on_c, 0, 75, 0
1, 247773, Note_on_c, 0, 77, 84
1, 247775, Note_on_c, 0, 74, 84
1, 247806, Note_on_c, 0, 60, 0
1, 247825, Note_on_c, 0, 74, 0
1, 247831, Note_on_c, 0, 56, 0
1, 247856, Note_on_c, 0, 77, 0
1, 247893, Note_on_c, 0, 79, 81
1, 247896, Note_on_c, 0, 75, 84
1, 247970, Note_on_c, 0, 79, 0
1, 247978, Note_on_c, 0, 75, 0
1, 248037, Note_on_c, 0, 77, 86
1, 248041, Note_on_c, 0, 80, 81
1, 248110, Note_on_c, 0, 77, 0
1, 248121, Note_on_c, 0, 80, 0
1, 248158, Note_on_c, 0, 75, 88
1, 248161, Note_on_c, 0, 79, 80
1, 248225, Note_on_c, 0, 75, 0
1, 248228, Note_on_c, 0, 79, 0
1, 248292, Note_on_c, 0, 80, 83
1, 248296, Note_on_c, 0, 77, 86
1, 248298, Note_on_c, 0, 53, 79
1, 248299, Note_on_c, 0, 56, 86
1, 248349, Note_on_c, 0, 53, 0
1, 248354, Note_on_c, 0, 56, 0
1, 248376, Note_on_c, 0, 77, 0
1, 248391, Note_on_c, 0, 80, 0
1, 248582, Note_on_c, 0, 77, 86
1, 248585, Note_on_c, 0, 62, 96
1, 248594, Note_on_c, 0, 58, 81
1, 248620, Poly_aftertouch_c, 0, 80, 127
1, 248718, Note_on_c, 0, 77, 0
1, 248727, Note_on_c, 0, 62, 0
1, 248734, Control_c, 0, 64, 41
1, 248756, Control_c, 0, 64, 57
1, 248763, Note_on_c, 0, 58, 0
1, 248772, Control_c, 0, 64, 62
1, 248777, Poly_aftertouch_c, 0, 80, 0
1, 248809, Control_c, 0, 64, 59
1, 248827, Control_c, 0, 64, 50
1, 248861, Control_c, 0, 64, 0
1, 248869, Note_on_c, 0, 74, 83
1, 248871, Note_on_c, 0, 70, 87
1, 248932, Note_on_c, 0, 70, 0
1, 248989, Note_on_c, 0, 74, 0
1, 249133, Note_on_c, 0, 58, 87
1, 249137, Note_on_c, 0, 55, 85
1, 249194, Control_c, 0, 64, 46
1, 249211, Control_c, 0, 64, 62
1, 249230, Control_c, 0, 64, 68
1, 249250, Note_on_c, 0, 70, 82
1, 249258, Note_on_c, 0, 74, 80
1, 249299, Note_on_c, 0, 70, 0
1, 249320, Note_on_c, 0, 55, 0
1, 249327, Note_on_c, 0, 58, 0
1, 249332, Note_on_c, 0, 74, 0
1, 249358, Control_c, 0, 64, 65
1, 249377, Control_c, 0, 64, 60
1, 249387, Note_on_c, 0, 75, 88
1, 249393, Control_c, 0, 64, 52
1, 249396, Note_on_c, 0, 72, 80
1, 249413, Control_c, 0, 64, 33
1, 249431, Control_c, 0, 64, 0
1, 249435, Note_on_c, 0, 72, 0
1, 249458, Note_on_c, 0, 75, 0
1, 249508, Note_on_c, 0, 77, 88
1, 249513, Note_on_c, 0, 74, 85
1, 249564, Note_on_c, 0, 74, 0
1, 249577, Note_on_c, 0, 77, 0
1, 249639, Note_on_c, 0, 75, 89
1, 249642, Note_on_c, 0, 79, 84
1, 249686, Note_on_c, 0, 75, 0
1, 249708, Note_on_c, 0, 79, 0
1, 249754, Note_on_c, 0, 74, 89
1, 249757, Note_on_c, 0, 77, 87
1, 249797, Note_on_c, 0, 79, 21
1, 249828, Note_on_c, 0, 74, 0
1, 249841, Note_on_c, 0, 77, 0
1, 249853, Note_on_c, 0, 79, 0
1, 249907, Note_on_c, 0, 75, 90
1, 249909, Note_on_c, 0, 79, 89
1, 249911, Note_on_c, 0, 55, 79
1, 249912, Note_on_c, 0, 51, 73
1, 249947, Note_on_c, 0, 51, 0
1, 249960, Note_on_c, 0, 55, 0
1, 250025, Note_on_c, 0, 75, 0
1, 250181, Note_on_c, 0, 60, 88
1, 250191, Note_on_c, 0, 56, 77
1, 250199, Control_c, 0, 64, 34
1, 250208, Note_on_c, 0, 79, 0
1, 250218, Control_c, 0, 64, 60
1, 250237, Control_c, 0, 64, 70
1, 250240, Note_on_c, 0, 60, 0
1, 250256, Control_c, 0, 64, 73
1, 250259, Note_on_c, 0, 56, 0
1, 250275, Control_c, 0, 64, 75
1, 250294, Control_c, 0, 64, 78
1, 250312, Control_c, 0, 64, 81
1, 250322, Note_on_c, 0, 73, 84
1, 250366, Control_c, 0, 64, 75
1, 250385, Control_c, 0, 64, 63
1, 250401, Control_c, 0, 64, 18
1, 250410, Note_on_c, 0, 73, 0
1, 250420, Control_c, 0, 64, 0
1, 250451, Note_on_c, 0, 82, 86
1, 250459, Note_on_c, 0, 60, 73
1, 250462, Note_on_c, 0, 75, 80
1, 250474, Note_on_c, 0, 56, 62
1, 250494, Control_c, 0, 64, 23
1, 250504, Note_on_c, 0, 60, 0
1, 250511, Control_c, 0, 64, 58
1, 250530, Control_c, 0, 64, 74
1, 250532, Note_on_c, 0, 75, 0
1, 250539, Note_on_c, 0, 56, 0
1, 250550, Control_c, 0, 64, 82
1, 250568, Control_c, 0, 64, 87
1, 250590, Note_on_c, 0, 73, 79
1, 250600, Note_on_c, 0, 82, 0
1, 250641, Control_c, 0, 64, 81
1, 250649, Note_on_c, 0, 73, 0
1, 250661, Control_c, 0, 64, 69
1, 250678, Control_c, 0, 64, 18
1, 250697, Control_c, 0, 64, 0
1, 250725, Note_on_c, 0, 80, 85
1, 250731, Note_on_c, 0, 72, 80
1, 250734, Note_on_c, 0, 60, 79
1, 250740, Note_on_c, 0, 56, 66
1, 250789, Note_on_c, 0, 60, 0
1, 250804, Control_c, 0, 64, 48
1, 250809, Note_on_c, 0, 72, 0
1, 250822, Control_c, 0, 64, 65
1, 250826, Note_on_c, 0, 56, 0
1, 250841, Control_c, 0, 64, 72
1, 250851, Note_on_c, 0, 70, 84
1, 250863, Note_on_c, 0, 80, 0
1, 250895, Control_c, 0, 64, 70
1, 250914, Control_c, 0, 64, 61
1, 250916, Note_on_c, 0, 70, 0
1, 250933, Control_c, 0, 64, 0
1, 250982, Note_on_c, 0, 79, 84
1, 250982, Note_on_c, 0, 72, 85
1, 250995, Note_on_c, 0, 60, 81
1, 250998, Note_on_c, 0, 56, 72
1, 251036, Note_on_c, 0, 60, 0
1, 251041, Control_c, 0, 64, 47
1, 251062, Control_c, 0, 64, 69
1, 251068, Note_on_c, 0, 72, 0
1, 251069, Note_on_c, 0, 56, 0
1, 251082, Control_c, 0, 64, 80
1, 251099, Control_c, 0, 64, 87
1, 251100, Note_on_c, 0, 70, 87
1, 251110, Note_on_c, 0, 79, 0
1, 251154, Control_c, 0, 64, 80
1, 251157, Note_on_c, 0, 70, 0
1, 251172, Control_c, 0, 64, 65
1, 251192, Control_c, 0, 64, 0
1, 251238, Note_on_c, 0, 68, 83
1, 251243, Note_on_c, 0, 77, 82
1, 251251, Note_on_c, 0, 60, 78
1, 251254, Note_on_c, 0, 56, 70
1, 251301, Note_on_c, 0, 60, 0
1, 251314, Note_on_c, 0, 68, 0
1, 251318, Note_on_c, 0, 56, 0
1, 251319, Control_c, 0, 64, 37
1, 251334, Poly_aftertouch_c, 0, 75, 0
1, 251339, Control_c, 0, 64, 63
1, 251355, Control_c, 0, 64, 75
1, 251361, Note_on_c, 0, 67, 86
1, 251375, Control_c, 0, 64, 78
1, 251380, Note_on_c, 0, 77, 0
1, 251392, Control_c, 0, 64, 75
1, 251412, Control_c, 0, 64, 65
1, 251428, Control_c, 0, 64, 0
1, 251449, Note_on_c, 0, 67, 0
1, 251495, Note_on_c, 0, 75, 84
1, 251497, Note_on_c, 0, 68, 83
1, 251510, Note_on_c, 0, 60, 78
1, 251513, Note_on_c, 0, 56, 68
1, 251522, Control_c, 0, 64, 38
1, 251540, Control_c, 0, 64, 65
1, 251542, Note_on_c, 0, 60, 0
1, 251551, Note_on_c, 0, 56, 0
1, 251559, Control_c, 0, 64, 76
1, 251563, Note_on_c, 0, 68, 0
1, 251577, Control_c, 0, 64, 81
1, 251595, Control_c, 0, 64, 84
1, 251613, Note_on_c, 0, 67, 80
1, 251632, Control_c, 0, 64, 82
1, 251664, Control_c, 0, 64, 74
1, 251680, Note_on_c, 0, 75, 0
1, 251683, Note_on_c, 0, 67, 0
1, 251683, Control_c, 0, 64, 56
1, 251701, Control_c, 0, 64, 0
1, 251767, Note_on_c, 0, 74, 90
1, 251774, Note_on_c, 0, 62, 66
1, 251782, Note_on_c, 0, 65, 79
1, 251786, Note_on_c, 0, 58, 65
1, 251830, Control_c, 0, 64, 49
1, 251849, Control_c, 0, 64, 72
1, 251853, Note_on_c, 0, 58, 0
1, 251861, Note_on_c, 0, 62, 0
1, 251867, Control_c, 0, 64, 85
1, 251879, Note_on_c, 0, 65, 0
1, 251886, Note_on_c, 0, 60, 73
1, 251886, Control_c, 0, 64, 96
1, 251903, Control_c, 0, 64, 103
1, 251922, Note_on_c, 0, 74, 0
1, 251955, Note_on_c, 0, 60, 0
1, 251959, Control_c, 0, 64, 98
1, 251977, Control_c, 0, 64, 82
1, 251997, Control_c, 0, 64, 50
1, 252015, Control_c, 0, 64, 0
1, 252026, Note_on_c, 0, 62, 73
1, 252034, Note_on_c, 0, 74, 93
1, 252038, Note_on_c, 0, 56, 76
1, 252041, Note_on_c, 0, 65, 82
1, 252093, Note_on_c, 0, 62, 0
1, 252101, Note_on_c, 0, 56, 0
1, 252125, Control_c, 0, 64, 47
1, 252145, Control_c, 0, 64, 69
1, 252161, Note_on_c, 0, 60, 76
1, 252163, Control_c, 0, 64, 81
1, 252176, Note_on_c, 0, 65, 0
1, 252181, Control_c, 0, 64, 89
1, 252213, Note_on_c, 0, 60, 0
1, 252217, Control_c, 0, 64, 80
1, 252237, Control_c, 0, 64, 58
1, 252254, Control_c, 0, 64, 0
1, 252277, Note_on_c, 0, 74, 0
1, 252299, Note_on_c, 0, 75, 86
1, 252308, Note_on_c, 0, 58, 83
1, 252313, Note_on_c, 0, 67, 80
1, 252321, Note_on_c, 0, 55, 74
1, 252346, Control_c, 0, 64, 15
1, 252363, Control_c, 0, 64, 61
1, 252372, Note_on_c, 0, 58, 0
1, 252382, Control_c, 0, 64, 78
1, 252387, Note_on_c, 0, 55, 0
1, 252398, Note_on_c, 0, 67, 0
1, 252400, Control_c, 0, 64, 87
1, 252429, Note_on_c, 0, 56, 80
1, 252437, Control_c, 0, 64, 81
1, 252458, Control_c, 0, 64, 62
1, 252474, Control_c, 0, 64, 0
1, 252508, Note_on_c, 0, 56, 0
1, 252542, Note_on_c, 0, 75, 0
1, 252551, Note_on_c, 0, 77, 89
1, 252558, Note_on_c, 0, 68, 87
1, 252559, Note_on_c, 0, 58, 84
1, 252564, Note_on_c, 0, 53, 83
1, 252599, Control_c, 0, 64, 33
1, 252618, Control_c, 0, 64, 65
1, 252626, Note_on_c, 0, 58, 0
1, 252636, Control_c, 0, 64, 77
1, 252638, Note_on_c, 0, 53, 0
1, 252655, Control_c, 0, 64, 80
1, 252664, Note_on_c, 0, 68, 0
1, 252673, Control_c, 0, 64, 78
1, 252692, Control_c, 0, 64, 68
1, 252699, Note_on_c, 0, 56, 86
1, 252710, Control_c, 0, 64, 0
1, 252735, Note_on_c, 0, 56, 0
1, 252814, Note_on_c, 0, 77, 0
1, 252819, Note_on_c, 0, 79, 87
1, 252826, Note_on_c, 0, 70, 89
1, 252828, Note_on_c, 0, 55, 72
1, 252837, Control_c, 0, 64, 38
1, 252839, Note_on_c, 0, 51, 80
1, 252856, Control_c, 0, 64, 59
1, 252877, Control_c, 0, 64, 69
1, 252880, Note_on_c, 0, 55, 0
1, 252893, Note_on_c, 0, 70, 0
1, 252893, Control_c, 0, 64, 74
1, 252906, Note_on_c, 0, 51, 0
1, 252913, Control_c, 0, 64, 76
1, 252931, Control_c, 0, 64, 74
1, 252950, Control_c, 0, 64, 63
1, 252958, Note_on_c, 0, 53, 87
1, 252969, Control_c, 0, 64, 0
1, 253023, Note_on_c, 0, 53, 0
1, 253073, Note_on_c, 0, 55, 85
1, 253076, Control_c, 0, 64, 54
1, 253085, Note_on_c, 0, 50, 82
1, 253089, Note_on_c, 0, 71, 92
1, 253095, Control_c, 0, 64, 72
1, 253115, Control_c, 0, 64, 80
1, 253135, Note_on_c, 0, 55, 0
1, 253159, Note_on_c, 0, 71, 0
1, 253160, Note_on_c, 0, 50, 0
1, 253172, Control_c, 0, 64, 74
1, 253189, Control_c, 0, 64, 65
1, 253200, Note_on_c, 0, 53, 85
1, 253207, Control_c, 0, 64, 52
1, 253225, Control_c, 0, 64, 0
1, 253285, Note_on_c, 0, 53, 0
1, 253338, Note_on_c, 0, 51, 83
1, 253350, Note_on_c, 0, 48, 75
1, 253357, Control_c, 0, 64, 25
1, 253361, Note_on_c, 0, 72, 88
1, 253372, Control_c, 0, 64, 67
1, 253375, Note_on_c, 0, 51, 0
1, 253380, Note_on_c, 0, 48, 0
1, 253393, Control_c, 0, 64, 89
1, 253406, Note_on_c, 0, 79, 0
1, 253411, Control_c, 0, 64, 109
1, 253420, Note_on_c, 0, 72, 0
1, 253428, Control_c, 0, 64, 118
1, 253473, Note_on_c, 0, 77, 87
1, 253475, Note_on_c, 0, 74, 84
1, 253533, Control_c, 0, 64, 105
1, 253544, Note_on_c, 0, 74, 0
1, 253552, Control_c, 0, 64, 83
1, 253555, Note_on_c, 0, 77, 0
1, 253571, Control_c, 0, 64, 34
1, 253591, Control_c, 0, 64, 0
1, 253615, Note_on_c, 0, 79, 85
1, 253617, Note_on_c, 0, 75, 86
1, 253620, Note_on_c, 0, 63, 69
1, 253631, Note_on_c, 0, 60, 72
1, 253664, Control_c, 0, 64, 32
1, 253672, Note_on_c, 0, 63, 0
1, 253673, Note_on_c, 0, 60, 0
1, 253682, Control_c, 0, 64, 56
1, 253691, Note_on_c, 0, 75, 0
1, 253700, Control_c, 0, 64, 65
1, 253718, Control_c, 0, 64, 66
1, 253722, Note_on_c, 0, 79, 0
1, 253733, Note_on_c, 0, 77, 81
1, 253736, Control_c, 0, 64, 65
1, 253737, Note_on_c, 0, 74, 85
1, 253756, Control_c, 0, 64, 60
1, 253774, Control_c, 0, 64, 43
1, 253791, Control_c, 0, 64, 0
1, 253810, Note_on_c, 0, 74, 0
1, 253866, Note_on_c, 0, 75, 80
1, 253868, Note_on_c, 0, 72, 84
1, 253876, Note_on_c, 0, 63, 87
1, 253888, Note_on_c, 0, 60, 76
1, 253889, Note_on_c, 0, 77, 0
1, 253913, Note_on_c, 0, 75, 0
1, 253928, Note_on_c, 0, 63, 0
1, 253932, Note_on_c, 0, 60, 0
1, 253945, Note_on_c, 0, 72, 0
1, 253994, Note_on_c, 0, 70, 88
1, 253996, Note_on_c, 0, 74, 82
1, 254078, Note_on_c, 0, 74, 0
1, 254087, Note_on_c, 0, 70, 0
1, 254126, Note_on_c, 0, 75, 87
1, 254135, Note_on_c, 0, 72, 82
1, 254138, Note_on_c, 0, 63, 86
1, 254144, Note_on_c, 0, 60, 78
1, 254178, Note_on_c, 0, 72, 0
1, 254178, Note_on_c, 0, 60, 0
1, 254178, Note_on_c, 0, 63, 0
1, 254196, Note_on_c, 0, 75, 0
1, 254246, Note_on_c, 0, 74, 86
1, 254248, Note_on_c, 0, 70, 85
1, 254300, Note_on_c, 0, 74, 0
1, 254300, Note_on_c, 0, 70, 0
1, 254378, Note_on_c, 0, 72, 88
1, 254382, Note_on_c, 0, 68, 86
1, 254386, Note_on_c, 0, 63, 82
1, 254395, Note_on_c, 0, 60, 72
1, 254424, Note_on_c, 0, 63, 0
1, 254434, Note_on_c, 0, 60, 0
1, 254468, Note_on_c, 0, 68, 0
1, 254517, Note_on_c, 0, 70, 88
1, 254521, Note_on_c, 0, 67, 83
1, 254550, Note_on_c, 0, 72, 0
1, 254579, Note_on_c, 0, 67, 0
1, 254594, Note_on_c, 0, 70, 0
1, 254639, Note_on_c, 0, 72, 82
1, 254643, Note_on_c, 0, 68, 88
1, 254646, Note_on_c, 0, 63, 83
1, 254652, Note_on_c, 0, 60, 75
1, 254679, Note_on_c, 0, 63, 0
1, 254694, Note_on_c, 0, 60, 0
1, 254705, Note_on_c, 0, 68, 0
1, 254754, Note_on_c, 0, 67, 88
1, 254758, Note_on_c, 0, 70, 87
1, 254776, Note_on_c, 0, 72, 0
1, 254816, Note_on_c, 0, 70, 0
1, 254820, Note_on_c, 0, 67, 0
1, 254899, Note_on_c, 0, 69, 89
1, 254900, Note_on_c, 0, 66, 89
1, 254908, Note_on_c, 0, 63, 78
1, 254910, Note_on_c, 0, 60, 79
1, 254970, Note_on_c, 0, 60, 0
1, 254978, Note_on_c, 0, 63, 0
1, 255025, Note_on_c, 0, 62, 80
1, 255078, Control_c, 0, 64, 25
1, 255092, Note_on_c, 0, 62, 0
1, 255094, Control_c, 0, 64, 36
1, 255113, Control_c, 0, 64, 41
1, 255133, Control_c, 0, 64, 44
1, 255144, Note_on_c, 0, 63, 81
1, 255164, Note_on_c, 0, 58, 75
1, 255167, Control_c, 0, 64, 46
1, 255199, Note_on_c, 0, 63, 0
1, 255205, Control_c, 0, 64, 39
1, 255223, Control_c, 0, 64, 16
1, 255226, Note_on_c, 0, 58, 0
1, 255242, Control_c, 0, 64, 0
1, 255281, Note_on_c, 0, 62, 84
1, 255325, Note_on_c, 0, 62, 0
1, 255336, Note_on_c, 0, 66, 0
1, 255416, Note_on_c, 0, 60, 86
1, 255429, Note_on_c, 0, 57, 81
1, 255466, Note_on_c, 0, 60, 0
1, 255497, Control_c, 0, 64, 16
1, 255498, Note_on_c, 0, 57, 0
1, 255515, Control_c, 0, 64, 42
1, 255534, Control_c, 0, 64, 54
1, 255538, Note_on_c, 0, 58, 86
1, 255570, Control_c, 0, 64, 26
1, 255588, Control_c, 0, 64, 0
1, 255609, Note_on_c, 0, 58, 0
1, 255634, Note_on_c, 0, 69, 0
1, 255658, Note_on_c, 0, 70, 87
1, 255661, Note_on_c, 0, 60, 87
1, 255668, Note_on_c, 0, 67, 87
1, 255670, Note_on_c, 0, 55, 85
1, 255706, Note_on_c, 0, 60, 0
1, 255724, Note_on_c, 0, 55, 0
1, 255786, Note_on_c, 0, 58, 90
1, 255840, Note_on_c, 0, 58, 0
1, 255849, Note_on_c, 0, 70, 0
1, 255865, Note_on_c, 0, 67, 0
1, 255922, Note_on_c, 0, 57, 82
1, 255924, Note_on_c, 0, 72, 93
1, 255924, Note_on_c, 0, 69, 91
1, 255936, Note_on_c, 0, 54, 75
1, 255962, Note_on_c, 0, 57, 0
1, 255999, Note_on_c, 0, 54, 0
1, 256041, Note_on_c, 0, 55, 89
1, 256065, Note_on_c, 0, 69, 0
1, 256099, Note_on_c, 0, 55, 0
1, 256166, Note_on_c, 0, 57, 84
1, 256173, Note_on_c, 0, 52, 87
1, 256202, Note_on_c, 0, 57, 0
1, 256226, Note_on_c, 0, 52, 0
1, 256296, Note_on_c, 0, 55, 91
1, 256368, Note_on_c, 0, 55, 0
1, 256445, Note_on_c, 0, 50, 87
1, 256447, Note_on_c, 0, 54, 89
1, 256524, Control_c, 0, 64, 36
1, 256536, Note_on_c, 0, 54, 0
1, 256541, Control_c, 0, 64, 63
1, 256554, Note_on_c, 0, 72, 0
1, 256560, Control_c, 0, 64, 74
1, 256583, Note_on_c, 0, 62, 84
1, 256641, Note_on_c, 0, 62, 0
1, 256690, Control_c, 0, 64, 76
1, 256712, Note_on_c, 0, 63, 88
1, 256713, Note_on_c, 0, 57, 89
1, 256725, Note_on_c, 0, 54, 80
1, 256744, Control_c, 0, 64, 78
1, 256766, Note_on_c, 0, 50, 0
1, 256767, Note_on_c, 0, 57, 0
1, 256790, Note_on_c, 0, 63, 0
1, 256793, Note_on_c, 0, 54, 0
1, 256831, Note_on_c, 0, 62, 87
1, 256854, Control_c, 0, 64, 73
1, 256873, Control_c, 0, 64, 65
1, 256892, Control_c, 0, 64, 40
1, 256898, Note_on_c, 0, 62, 0
1, 256910, Control_c, 0, 64, 0
1, 256978, Note_on_c, 0, 70, 97
1, 256979, Note_on_c, 0, 58, 86
1, 256992, Note_on_c, 0, 55, 80
1, 257021, Control_c, 0, 64, 15
1, 257037, Control_c, 0, 64, 58
1, 257044, Note_on_c, 0, 58, 0
1, 257056, Control_c, 0, 64, 74
1, 257075, Control_c, 0, 64, 83
1, 257094, Control_c, 0, 64, 91
1, 257112, Control_c, 0, 64, 98
1, 257124, Note_on_c, 0, 62, 88
1, 257168, Control_c, 0, 64, 90
1, 257183, Note_on_c, 0, 62, 0
1, 257184, Control_c, 0, 64, 68
1, 257197, Note_on_c, 0, 55, 0
1, 257204, Control_c, 0, 64, 0
1, 257254, Note_on_c, 0, 63, 88
1, 257254, Note_on_c, 0, 54, 88
1, 257261, Note_on_c, 0, 50, 79
1, 257292, Control_c, 0, 64, 54
1, 257301, Note_on_c, 0, 70, 0
1, 257310, Control_c, 0, 64, 76
1, 257329, Control_c, 0, 64, 88
1, 257347, Control_c, 0, 64, 98
1, 257350, Note_on_c, 0, 63, 0
1, 257367, Control_c, 0, 64, 105
1, 257375, Note_on_c, 0, 54, 0
1, 257386, Control_c, 0, 64, 113
1, 257393, Note_on_c, 0, 62, 89
1, 257403, Control_c, 0, 64, 117
1, 257421, Note_on_c, 0, 50, 0
1, 257440, Control_c, 0, 64, 108
1, 257448, Note_on_c, 0, 62, 0
1, 257459, Control_c, 0, 64, 88
1, 257477, Control_c, 0, 64, 48
1, 257496, Control_c, 0, 64, 0
1, 257548, Note_on_c, 0, 60, 90
1, 257556, Note_on_c, 0, 51, 89
1, 257559, Note_on_c, 0, 55, 88
1, 257587, Control_c, 0, 64, 48
1, 257606, Control_c, 0, 64, 66
1, 257615, Note_on_c, 0, 55, 0
1, 257620, Note_on_c, 0, 51, 0
1, 257624, Control_c, 0, 64, 80
1, 257644, Control_c, 0, 64, 94
1, 257653, Note_on_c, 0, 60, 0
1, 257660, Control_c, 0, 64, 109
1, 257679, Control_c, 0, 64, 113
1, 257701, Note_on_c, 0, 70, 88
1, 257808, Control_c, 0, 64, 96
1, 257826, Control_c, 0, 64, 63
1, 257832, Note_on_c, 0, 70, 0
1, 257847, Control_c, 0, 64, 0
1, 257854, Note_on_c, 0, 69, 87
1, 257855, Note_on_c, 0, 61, 82
1, 257899, Note_on_c, 0, 61, 0
1, 257899, Control_c, 0, 64, 65
1, 257918, Control_c, 0, 64, 96
1, 257937, Note_on_c, 0, 69, 0
1, 257937, Control_c, 0, 64, 127
1, 257967, Note_on_c, 0, 67, 91
1, 258016, Note_on_c, 0, 67, 0
1, 258065, Control_c, 0, 64, 121
1, 258085, Control_c, 0, 64, 87
1, 258104, Control_c, 0, 64, 0
1, 258155, Note_on_c, 0, 50, 90
1, 258156, Note_on_c, 0, 66, 88
1, 258162, Note_on_c, 0, 57, 86
1, 258162, Note_on_c, 0, 62, 75
1, 258227, Control_c, 0, 64, 43
1, 258246, Control_c, 0, 64, 68
1, 258254, Note_on_c, 0, 50, 0
1, 258264, Control_c, 0, 64, 85
1, 258283, Control_c, 0, 64, 104
1, 258291, Note_on_c, 0, 57, 0
1, 258302, Control_c, 0, 64, 120
1, 258311, Note_on_c, 0, 62, 0
1, 258320, Control_c, 0, 64, 127
1, 258322, Note_on_c, 0, 66, 0
1, 258507, Note_on_c, 0, 38, 93
1, 258538, Note_on_c, 0, 40, 52
1, 258561, Note_on_c, 0, 38, 0
1, 258585, Note_on_c, 0, 40, 0
1, 258852, Control_c, 0, 67, 11
1, 258872, Control_c, 0, 64, 121
1, 258873, Control_c, 0, 67, 16
1, 258887, Note_on_c, 0, 62, 91
1, 258889, Control_c, 0, 64, 90
1, 258891, Control_c, 0, 67, 20
1, 258908, Control_c, 0, 64, 49
1, 258925, Control_c, 0, 64, 0
1, 258945, Control_c, 0, 67, 26
1, 258963, Control_c, 0, 67, 36
1, 258982, Control_c, 0, 67, 46
1, 259000, Control_c, 0, 67, 53
1, 259019, Note_on_c, 0, 69, 69
1, 259038, Control_c, 0, 67, 57
1, 259051, Note_on_c, 0, 69, 0
1, 259152, Note_on_c, 0, 70, 77
1, 259202, Note_on_c, 0, 70, 0
1, 259232, Note_on_c, 0, 62, 0
1, 259278, Note_on_c, 0, 72, 82
1, 259332, Note_on_c, 0, 72, 0
1, 259402, Control_c, 0, 67, 50
1, 259406, Note_on_c, 0, 74, 82
1, 259420, Control_c, 0, 67, 40
1, 259437, Control_c, 0, 67, 22
1, 259456, Note_on_c, 0, 74, 0
1, 259475, Control_c, 0, 67, 0
1, 259522, Note_on_c, 0, 72, 83
1, 259581, Note_on_c, 0, 72, 0
1, 259660, Note_on_c, 0, 74, 88
1, 259668, Note_on_c, 0, 58, 89
1, 259711, Note_on_c, 0, 58, 0
1, 259726, Note_on_c, 0, 74, 0
1, 259961, Note_on_c, 0, 74, 80
1, 259972, Note_on_c, 0, 63, 91
1, 260084, Note_on_c, 0, 74, 0
1, 260149, Note_on_c, 0, 63, 0
1, 260271, Note_on_c, 0, 67, 74
1, 260346, Note_on_c, 0, 67, 0
1, 260534, Note_on_c, 0, 60, 89
1, 260663, Note_on_c, 0, 67, 80
1, 260701, Note_on_c, 0, 60, 0
1, 260701, Note_on_c, 0, 67, 0
1, 260788, Note_on_c, 0, 69, 87
1, 260833, Note_on_c, 0, 69, 0
1, 260906, Note_on_c, 0, 70, 87
1, 260959, Note_on_c, 0, 70, 0
1, 261046, Note_on_c, 0, 72, 87
1, 261095, Note_on_c, 0, 72, 0
1, 261168, Note_on_c, 0, 70, 91
1, 261229, Note_on_c, 0, 70, 0
1, 261299, Note_on_c, 0, 57, 90
1, 261299, Note_on_c, 0, 72, 94
1, 261336, Note_on_c, 0, 57, 0
1, 261358, Note_on_c, 0, 72, 0
1, 261581, Note_on_c, 0, 72, 86
1, 261585, Note_on_c, 0, 62, 89
1, 261676, Note_on_c, 0, 72, 0
1, 261750, Note_on_c, 0, 62, 0
1, 261858, Note_on_c, 0, 66, 87
1, 261959, Note_on_c, 0, 66, 0
1, 262147, Note_on_c, 0, 74, 92
1, 262149, Note_on_c, 0, 58, 75
1, 262273, Note_on_c, 0, 50, 65
1, 262276, Note_on_c, 0, 66, 78
1, 262328, Note_on_c, 0, 66, 0
1, 262344, Note_on_c, 0, 50, 0
1, 262397, Note_on_c, 0, 58, 0
1, 262403, Note_on_c, 0, 67, 87
1, 262404, Note_on_c, 0, 52, 71
1, 262449, Note_on_c, 0, 67, 0
1, 262474, Note_on_c, 0, 52, 0
1, 262499, Note_on_c, 0, 74, 0
1, 262515, Poly_aftertouch_c, 0, 71, 0
1, 262520, Note_on_c, 0, 69, 90
1, 262525, Note_on_c, 0, 54, 79
1, 262571, Note_on_c, 0, 54, 0
1, 262575, Note_on_c, 0, 69, 0
1, 262643, Note_on_c, 0, 70, 92
1, 262650, Note_on_c, 0, 55, 82
1, 262696, Note_on_c, 0, 55, 0
1, 262710, Note_on_c, 0, 70, 0
1, 262759, Note_on_c, 0, 69, 95
1, 262769, Note_on_c, 0, 54, 82
1, 262801, Note_on_c, 0, 54, 0
1, 262805, Note_on_c, 0, 69, 0
1, 262910, Note_on_c, 0, 70, 97
1, 262922, Note_on_c, 0, 55, 93
1, 262957, Note_on_c, 0, 55, 0
1, 262999, Note_on_c, 0, 70, 0
1, 263147, Poly_aftertouch_c, 0, 69, 127
1, 263188, Note_on_c, 0, 75, 91
1, 263198, Note_on_c, 0, 70, 80
1, 263207, Note_on_c, 0, 60, 89
1, 263210, Note_on_c, 0, 55, 77
1, 263252, Control_c, 0, 64, 32
1, 263259, Note_on_c, 0, 55, 0
1, 263271, Control_c, 0, 64, 57
1, 263288, Control_c, 0, 64, 68
1, 263307, Control_c, 0, 64, 73
1, 263325, Control_c, 0, 64, 77
1, 263344, Control_c, 0, 64, 83
1, 263354, Poly_aftertouch_c, 0, 69, 0
1, 263361, Control_c, 0, 64, 90
1, 263367, Note_on_c, 0, 75, 0
1, 263375, Poly_aftertouch_c, 0, 72, 127
1, 263380, Control_c, 0, 64, 94
1, 263414, Poly_aftertouch_c, 0, 72, 0
1, 263473, Control_c, 0, 64, 90
1, 263474, Note_on_c, 0, 48, 79
1, 263476, Note_on_c, 0, 63, 82
1, 263477, Note_on_c, 0, 60, 0
1, 263493, Control_c, 0, 64, 83
1, 263509, Note_on_c, 0, 48, 0
1, 263509, Control_c, 0, 64, 65
1, 263512, Note_on_c, 0, 63, 0
1, 263528, Control_c, 0, 64, 0
1, 263562, Poly_aftertouch_c, 0, 70, 20
1, 263564, Note_on_c, 0, 70, 0
1, 263564, Poly_aftertouch_c, 0, 70, 0
1, 263730, Note_on_c, 0, 57, 87
1, 263733, Note_on_c, 0, 72, 92
1, 263872, Note_on_c, 0, 48, 67
1, 263876, Note_on_c, 0, 64, 80
1, 263922, Note_on_c, 0, 64, 0
1, 263928, Note_on_c, 0, 48, 0
1, 263997, Note_on_c, 0, 65, 87
1, 264001, Note_on_c, 0, 50, 81
1, 264052, Note_on_c, 0, 72, 0
1, 264058, Note_on_c, 0, 50, 0
1, 264061, Note_on_c, 0, 57, 0
1, 264065, Note_on_c, 0, 65, 0
1, 264114, Note_on_c, 0, 67, 88
1, 264129, Note_on_c, 0, 52, 87
1, 264174, Note_on_c, 0, 52, 0
1, 264179, Note_on_c, 0, 67, 0
1, 264246, Note_on_c, 0, 69, 93
1, 264250, Note_on_c, 0, 53, 87
1, 264306, Note_on_c, 0, 69, 0
1, 264306, Note_on_c, 0, 53, 0
1, 264365, Note_on_c, 0, 52, 85
1, 264366, Note_on_c, 0, 67, 95
1, 264398, Note_on_c, 0, 52, 0
1, 264423, Note_on_c, 0, 67, 0
1, 264508, Note_on_c, 0, 69, 99
1, 264516, Note_on_c, 0, 53, 93
1, 264578, Note_on_c, 0, 53, 0
1, 264662, Note_on_c, 0, 69, 0
1, 264807, Note_on_c, 0, 74, 96
1, 264814, Note_on_c, 0, 69, 88
1, 264822, Note_on_c, 0, 58, 88
1, 264828, Note_on_c, 0, 53, 71
1, 264877, Note_on_c, 0, 53, 0
1, 264902, Control_c, 0, 64, 25
1, 264919, Control_c, 0, 64, 57
1, 264925, Note_on_c, 0, 69, 0
1, 264937, Control_c, 0, 64, 72
1, 264956, Control_c, 0, 64, 85
1, 264975, Control_c, 0, 64, 99
1, 264993, Control_c, 0, 64, 109
1, 265085, Note_on_c, 0, 74, 0
1, 265085, Control_c, 0, 64, 117
1, 265094, Note_on_c, 0, 62, 87
1, 265095, Note_on_c, 0, 46, 82
1, 265104, Control_c, 0, 64, 123
1, 265115, Note_on_c, 0, 58, 0
1, 265122, Control_c, 0, 64, 127
1, 265156, Note_on_c, 0, 46, 0
1, 265180, Note_on_c, 0, 62, 0
1, 265323, Control_c, 0, 64, 96
1, 265342, Control_c, 0, 64, 54
1, 265359, Control_c, 0, 64, 0
1, 265370, Note_on_c, 0, 55, 94
1, 265372, Note_on_c, 0, 70, 96
1, 265471, Control_c, 0, 64, 25
1, 265489, Control_c, 0, 64, 61
1, 265508, Control_c, 0, 64, 77
1, 265516, Note_on_c, 0, 46, 74
1, 265526, Control_c, 0, 64, 87
1, 265534, Note_on_c, 0, 62, 81
1, 265543, Control_c, 0, 64, 92
1, 265580, Control_c, 0, 64, 96
1, 265589, Note_on_c, 0, 46, 0
1, 265613, Note_on_c, 0, 62, 0
1, 265652, Note_on_c, 0, 48, 77
1, 265657, Note_on_c, 0, 64, 86
1, 265679, Note_on_c, 0, 55, 0
1, 265720, Note_on_c, 0, 70, 0
1, 265737, Note_on_c, 0, 48, 0
1, 265755, Note_on_c, 0, 64, 0
1, 265761, Control_c, 0, 64, 86
1, 265781, Note_on_c, 0, 50, 82
1, 265781, Control_c, 0, 64, 70
1, 265793, Note_on_c, 0, 66, 86
1, 265798, Control_c, 0, 64, 28
1, 265818, Control_c, 0, 64, 0
1, 265831, Note_on_c, 0, 50, 0
1, 265866, Note_on_c, 0, 66, 0
1, 265909, Note_on_c, 0, 51, 82
1, 265920, Note_on_c, 0, 67, 93
1, 265945, Control_c, 0, 64, 37
1, 265964, Control_c, 0, 64, 62
1, 265980, Note_on_c, 0, 51, 0
1, 265982, Control_c, 0, 64, 71
1, 266001, Control_c, 0, 64, 75
1, 266015, Note_on_c, 0, 67, 0
1, 266017, Control_c, 0, 64, 79
1, 266035, Note_on_c, 0, 66, 93
1, 266035, Control_c, 0, 64, 84
1, 266043, Note_on_c, 0, 50, 76
1, 266056, Control_c, 0, 64, 87
1, 266095, Note_on_c, 0, 50, 0
1, 266133, Note_on_c, 0, 66, 0
1, 266148, Control_c, 0, 64, 80
1, 266166, Control_c, 0, 64, 61
1, 266184, Control_c, 0, 64, 0
1, 266191, Note_on_c, 0, 67, 95
1, 266204, Note_on_c, 0, 58, 86
1, 266225, Note_on_c, 0, 51, 71
1, 266313, Control_c, 0, 64, 50
1, 266332, Control_c, 0, 64, 68
1, 266352, Control_c, 0, 64, 76
1, 266368, Control_c, 0, 64, 83
1, 266381, Note_on_c, 0, 58, 0
1, 266386, Control_c, 0, 64, 91
1, 266406, Control_c, 0, 64, 98
1, 266425, Control_c, 0, 64, 105
1, 266442, Control_c, 0, 64, 113
1, 266462, Control_c, 0, 64, 120
1, 266515, Control_c, 0, 64, 100
1, 266534, Control_c, 0, 64, 67
1, 266541, Note_on_c, 0, 72, 98
1, 266554, Control_c, 0, 64, 0
1, 266570, Note_on_c, 0, 57, 75
1, 266579, Note_on_c, 0, 67, 0
1, 266609, Control_c, 0, 64, 27
1, 266641, Control_c, 0, 64, 66
1, 266648, Note_on_c, 0, 57, 0
1, 266659, Control_c, 0, 64, 82
1, 266678, Control_c, 0, 64, 97
1, 266697, Note_on_c, 0, 51, 0
1, 266697, Control_c, 0, 64, 112
1, 266714, Control_c, 0, 64, 125
1, 266724, Note_on_c, 0, 72, 0
1, 266739, Note_on_c, 0, 50, 72
1, 266799, Note_on_c, 0, 50, 0
1, 266898, Control_c, 0, 64, 93
1, 266909, Note_on_c, 0, 72, 91
1, 266912, Note_on_c, 0, 70, 88
1, 266916, Control_c, 0, 64, 0
1, 266925, Note_on_c, 0, 55, 82
1, 266927, Note_on_c, 0, 51, 81
1, 266973, Control_c, 0, 64, 44
1, 266993, Control_c, 0, 64, 75
1, 266996, Note_on_c, 0, 55, 0
1, 267010, Control_c, 0, 64, 98
1, 267020, Note_on_c, 0, 70, 0
1, 267027, Control_c, 0, 64, 126
1, 267030, Note_on_c, 0, 51, 0
1, 267066, Note_on_c, 0, 50, 85
1, 267083, Note_on_c, 0, 72, 0
1, 267132, Note_on_c, 0, 50, 0
1, 267173, Control_c, 0, 64, 110
1, 267192, Control_c, 0, 64, 66
1, 267211, Control_c, 0, 64, 0
1, 267212, Note_on_c, 0, 63, 90
1, 267213, Note_on_c, 0, 69, 86
1, 267215, Note_on_c, 0, 72, 89
1, 267224, Note_on_c, 0, 48, 82
1, 267267, Control_c, 0, 64, 60
1, 267286, Control_c, 0, 64, 85
1, 267303, Control_c, 0, 64, 114
1, 267305, Note_on_c, 0, 63, 0
1, 267311, Note_on_c, 0, 48, 0
1, 267323, Control_c, 0, 64, 127
1, 267326, Note_on_c, 0, 72, 0
1, 267344, Note_on_c, 0, 69, 0
1, 267351, Note_on_c, 0, 46, 82
1, 267405, Note_on_c, 0, 46, 0
1, 267450, Control_c, 0, 64, 96
1, 267469, Control_c, 0, 64, 39
1, 267487, Control_c, 0, 64, 0
1, 267504, Note_on_c, 0, 67, 85
1, 267506, Note_on_c, 0, 63, 91
1, 267517, Note_on_c, 0, 72, 82
1, 267520, Note_on_c, 0, 48, 82
1, 267544, Control_c, 0, 64, 53
1, 267575, Control_c, 0, 64, 82
1, 267581, Note_on_c, 0, 48, 0
1, 267595, Control_c, 0, 64, 115
1, 267613, Control_c, 0, 64, 127
1, 267625, Note_on_c, 0, 63, 0
1, 267627, Poly_aftertouch_c, 0, 73, 0
1, 267653, Note_on_c, 0, 67, 0
1, 267654, Note_on_c, 0, 46, 89
1, 267683, Note_on_c, 0, 72, 0
1, 267721, Note_on_c, 0, 46, 0
1, 267779, Control_c, 0, 64, 96
1, 267798, Control_c, 0, 64, 0
1, 267812, Note_on_c, 0, 63, 96
1, 267814, Note_on_c, 0, 66, 85
1, 267815, Note_on_c, 0, 72, 88
1, 267818, Note_on_c, 0, 45, 96
1, 267853, Control_c, 0, 64, 27
1, 267867, Note_on_c, 0, 45, 0
1, 267870, Control_c, 0, 64, 71
1, 267881, Note_on_c, 0, 63, 0
1, 267889, Control_c, 0, 64, 99
1, 267907, Control_c, 0, 64, 127
1, 267950, Note_on_c, 0, 66, 0
1, 267961, Note_on_c, 0, 43, 96
1, 267967, Note_on_c, 0, 72, 0
1, 268011, Note_on_c, 0, 43, 0
1, 268053, Control_c, 0, 64, 107
1, 268073, Control_c, 0, 64, 52
1, 268092, Control_c, 0, 64, 0
1, 268111, Note_on_c, 0, 67, 89
1, 268112, Note_on_c, 0, 63, 96
1, 268116, Note_on_c, 0, 72, 87
1, 268123, Note_on_c, 0, 45, 95
1, 268146, Control_c, 0, 64, 47
1, 268165, Control_c, 0, 64, 75
1, 268177, Note_on_c, 0, 45, 0
1, 268182, Control_c, 0, 64, 97
1, 268201, Control_c, 0, 64, 127
1, 268210, Note_on_c, 0, 63, 0
1, 268239, Note_on_c, 0, 67, 0
1, 268270, Note_on_c, 0, 43, 92
1, 268291, Note_on_c, 0, 72, 0
1, 268329, Note_on_c, 0, 43, 0
1, 268442, Control_c, 0, 64, 118
1, 268460, Control_c, 0, 64, 63
1, 268473, Note_on_c, 0, 69, 89
1, 268474, Note_on_c, 0, 62, 96
1, 268477, Note_on_c, 0, 72, 92
1, 268477, Control_c, 0, 64, 0
1, 268486, Note_on_c, 0, 42, 91
1, 268590, Poly_aftertouch_c, 0, 67, 0
1, 268640, Control_c, 0, 64, 52
1, 268659, Control_c, 0, 64, 68
1, 268678, Control_c, 0, 64, 82
1, 268695, Control_c, 0, 64, 108
1, 268714, Control_c, 0, 64, 127
1, 268720, Note_on_c, 0, 62, 0
1, 268739, Note_on_c, 0, 42, 0
1, 268774, Note_on_c, 0, 72, 0
1, 268810, Note_on_c, 0, 69, 0
1, 269155, Control_c, 0, 64, 121
1, 269175, Control_c, 0, 64, 89
1, 269193, Control_c, 0, 64, 35
1, 269209, Control_c, 0, 64, 0
1, 269464, Control_c, 0, 64, 40
1, 269473, Note_on_c, 0, 66, 88
1, 269473, Note_on_c, 0, 38, 98
1, 269476, Note_on_c, 0, 74, 92
1, 269476, Note_on_c, 0, 62, 93
1, 269482, Control_c, 0, 64, 74
1, 269501, Control_c, 0, 64, 98
1, 269520, Control_c, 0, 64, 127
1, 269541, Note_on_c, 0, 62, 0
1, 269545, Note_on_c, 0, 38, 0
1, 269592, Note_on_c, 0, 66, 0
1, 269717, Note_on_c, 0, 74, 0
1, 269882, Note_on_c, 0, 67, 75
1, 269886, Note_on_c, 0, 62, 91
1, 269888, Note_on_c, 0, 70, 96
1, 269896, Note_on_c, 0, 43, 96
1, 269906, Control_c, 0, 64, 102
1, 269923, Control_c, 0, 64, 40
1, 269943, Control_c, 0, 64, 0
1, 270110, Control_c, 0, 64, 15
1, 270127, Control_c, 0, 64, 61
1, 270144, Control_c, 0, 64, 80
1, 270165, Control_c, 0, 64, 100
1, 270182, Control_c, 0, 64, 117
1, 270189, Note_on_c, 0, 43, 0
1, 270200, Control_c, 0, 64, 126
1, 270224, Note_on_c, 0, 62, 0
1, 270278, Note_on_c, 0, 67, 0
1, 270318, Note_on_c, 0, 70, 0
1, 270620, Control_c, 0, 64, 105
1, 270637, Control_c, 0, 64, 62
1, 270658, Control_c, 0, 64, 0
1, 270892, Note_on_c, 0, 63, 94
1, 270896, Note_on_c, 0, 48, 97
1, 270896, Control_c, 0, 64, 34
1, 270898, Note_on_c, 0, 69, 80
1, 270900, Note_on_c, 0, 72, 84
1, 270915, Control_c, 0, 64, 68
1, 270931, Control_c, 0, 64, 85
1, 270951, Control_c, 0, 64, 110
1, 270959, Note_on_c, 0, 48, 0
1, 270969, Control_c, 0, 64, 127
1, 271004, Poly_aftertouch_c, 0, 67, 127
1, 271027, Note_on_c, 0, 69, 0
1, 271049, Poly_aftertouch_c, 0, 67, 0
1, 271063, Note_on_c, 0, 63, 0
1, 271258, Note_on_c, 0, 72, 0
1, 271333, Control_c, 0, 64, 123
1, 271353, Control_c, 0, 64, 80
1, 271360, Note_on_c, 0, 62, 88
1, 271365, Note_on_c, 0, 70, 91
1, 271369, Note_on_c, 0, 67, 85
1, 271372, Control_c, 0, 64, 0
1, 271383, Note_on_c, 0, 50, 96
1, 271538, Control_c, 0, 64, 46
1, 271554, Control_c, 0, 64, 67
1, 271575, Control_c, 0, 64, 87
1, 271592, Control_c, 0, 64, 114
1, 271610, Control_c, 0, 64, 127
1, 271734, Note_on_c, 0, 50, 0
1, 271811, Note_on_c, 0, 70, 0
1, 271837, Note_on_c, 0, 69, 95
1, 271997, Note_on_c, 0, 67, 0
1, 272042, Note_on_c, 0, 62, 0
1, 272138, Note_on_c, 0, 69, 0
1, 272218, Control_c, 0, 64, 121
1, 272223, Note_on_c, 0, 69, 94
1, 272228, Note_on_c, 0, 60, 89
1, 272230, Note_on_c, 0, 66, 91
1, 272234, Note_on_c, 0, 38, 95
1, 272237, Control_c, 0, 64, 84
1, 272269, Control_c, 0, 64, 0
1, 272417, Control_c, 0, 64, 42
1, 272435, Control_c, 0, 64, 60
1, 272454, Control_c, 0, 64, 72
1, 272472, Control_c, 0, 64, 93
1, 272477, Note_on_c, 0, 38, 0
1, 272489, Control_c, 0, 64, 119
1, 272508, Control_c, 0, 64, 127
1, 272647, Note_on_c, 0, 66, 0
1, 272677, Note_on_c, 0, 69, 0
1, 272719, Note_on_c, 0, 67, 92
1, 272783, Note_on_c, 0, 60, 0
1, 272851, Note_on_c, 0, 67, 0
1, 273059, Control_c, 0, 64, 106
1, 273069, Note_on_c, 0, 67, 89
1, 273075, Note_on_c, 0, 58, 89
1, 273078, Control_c, 0, 64, 59
1, 273079, Note_on_c, 0, 62, 80
1, 273087, Note_on_c, 0, 43, 84
1, 273097, Control_c, 0, 64, 0
1, 273171, Control_c, 0, 64, 54
1, 273176, Note_on_c, 0, 43, 0
1, 273204, Control_c, 0, 64, 74
1, 273206, Note_on_c, 0, 58, 0
1, 273223, Control_c, 0, 64, 95
1, 273239, Note_on_c, 0, 50, 81
1, 273241, Poly_aftertouch_c, 0, 60, 0
1, 273241, Control_c, 0, 64, 127
1, 273293, Note_on_c, 0, 50, 0
1, 273296, Note_on_c, 0, 62, 0
1, 273352, Note_on_c, 0, 67, 0
1, 273372, Note_on_c, 0, 52, 81
1, 273407, Control_c, 0, 67, 16
1, 273410, Note_on_c, 0, 52, 0
1, 273423, Control_c, 0, 67, 25
1, 273443, Control_c, 0, 64, 110
1, 273445, Control_c, 0, 67, 32
1, 273461, Control_c, 0, 64, 79
1, 273480, Control_c, 0, 64, 48
1, 273485, Note_on_c, 0, 54, 81
1, 273497, Control_c, 0, 64, 0
1, 273545, Note_on_c, 0, 54, 0
1, 273608, Note_on_c, 0, 55, 84
1, 273628, Control_c, 0, 67, 36
1, 273653, Note_on_c, 0, 55, 0
1, 273728, Note_on_c, 0, 54, 68
1, 273732, Note_on_c, 0, 69, 80
1, 273774, Note_on_c, 0, 54, 0
1, 273779, Note_on_c, 0, 69, 0
1, 273855, Note_on_c, 0, 70, 85
1, 273866, Note_on_c, 0, 55, 51
1, 273915, Note_on_c, 0, 70, 0
1, 273923, Note_on_c, 0, 55, 0
1, 273976, Note_on_c, 0, 72, 85
1, 274032, Note_on_c, 0, 72, 0
1, 274098, Note_on_c, 0, 55, 67
1, 274100, Note_on_c, 0, 74, 89
1, 274161, Note_on_c, 0, 53, 8
1, 274162, Note_on_c, 0, 53, 0
1, 274177, Note_on_c, 0, 74, 0
1, 274227, Note_on_c, 0, 72, 87
1, 274232, Note_on_c, 0, 57, 68
1, 274278, Note_on_c, 0, 57, 0
1, 274284, Note_on_c, 0, 72, 0
1, 274351, Note_on_c, 0, 58, 78
1, 274351, Note_on_c, 0, 74, 86
1, 274387, Note_on_c, 0, 58, 0
1, 274402, Note_on_c, 0, 74, 0
1, 274468, Note_on_c, 0, 75, 89
1, 274469, Note_on_c, 0, 60, 81
1, 274489, Note_on_c, 0, 75, 0
1, 274521, Note_on_c, 0, 60, 0
1, 274615, Note_on_c, 0, 67, 84
1, 274615, Note_on_c, 0, 62, 76
1, 274624, Note_on_c, 0, 69, 76
1, 274656, Note_on_c, 0, 69, 0
1, 274702, Note_on_c, 0, 55, 0
1, 274727, Note_on_c, 0, 61, 85
1, 274727, Note_on_c, 0, 64, 83
1, 274734, Note_on_c, 0, 62, 0
1, 274744, Note_on_c, 0, 67, 0
1, 274783, Note_on_c, 0, 61, 0
1, 274820, Note_on_c, 0, 64, 0
1, 274852, Note_on_c, 0, 65, 88
1, 274857, Note_on_c, 0, 62, 89
1, 274884, Note_on_c, 0, 53, 75
1, 274920, Note_on_c, 0, 54, 9
1, 274921, Note_on_c, 0, 54, 0
1, 274923, Note_on_c, 0, 65, 0
1, 274934, Note_on_c, 0, 53, 0
1, 274972, Note_on_c, 0, 67, 86
1, 275026, Note_on_c, 0, 67, 0
1, 275113, Note_on_c, 0, 69, 89
1, 275123, Note_on_c, 0, 53, 83
1, 275162, Note_on_c, 0, 69, 0
1, 275237, Note_on_c, 0, 70, 88
1, 275244, Note_on_c, 0, 67, 78
1, 275275, Note_on_c, 0, 67, 0
1, 275304, Note_on_c, 0, 62, 0
1, 275307, Note_on_c, 0, 70, 0
1, 275361, Note_on_c, 0, 57, 85
1, 275361, Note_on_c, 0, 69, 81
1, 275362, Note_on_c, 0, 72, 82
1, 275385, Control_c, 0, 67, 28
1, 275404, Control_c, 0, 67, 16
1, 275420, Note_on_c, 0, 57, 0
1, 275421, Control_c, 0, 67, 0
1, 275434, Note_on_c, 0, 72, 0
1, 275477, Note_on_c, 0, 74, 81
1, 275482, Note_on_c, 0, 59, 89
1, 275540, Note_on_c, 0, 59, 0
1, 275570, Note_on_c, 0, 69, 0
1, 275570, Note_on_c, 0, 74, 0
1, 275606, Note_on_c, 0, 60, 88
1, 275607, Note_on_c, 0, 75, 89
1, 275672, Note_on_c, 0, 60, 0
1, 275690, Note_on_c, 0, 75, 0
1, 275717, Note_on_c, 0, 59, 87
1, 275724, Note_on_c, 0, 74, 89
1, 275793, Note_on_c, 0, 59, 0
1, 275801, Note_on_c, 0, 74, 0
1, 275849, Note_on_c, 0, 75, 88
1, 275855, Note_on_c, 0, 68, 79
1, 275861, Note_on_c, 0, 60, 88
1, 275863, Control_c, 0, 64, 15
1, 275883, Control_c, 0, 64, 58
1, 275902, Note_on_c, 0, 60, 0
1, 275902, Control_c, 0, 64, 76
1, 275905, Note_on_c, 0, 68, 0
1, 275920, Control_c, 0, 64, 93
1, 275925, Note_on_c, 0, 53, 0
1, 275939, Control_c, 0, 64, 111
1, 275952, Note_on_c, 0, 75, 0
1, 275956, Control_c, 0, 64, 123
1, 275966, Note_on_c, 0, 77, 90
1, 275974, Control_c, 0, 64, 127
1, 276023, Note_on_c, 0, 77, 0
1, 276080, Control_c, 0, 64, 110
1, 276100, Control_c, 0, 64, 85
1, 276116, Note_on_c, 0, 67, 87
1, 276117, Note_on_c, 0, 62, 87
1, 276117, Control_c, 0, 64, 44
1, 276129, Note_on_c, 0, 71, 81
1, 276136, Control_c, 0, 64, 0
1, 276155, Note_on_c, 0, 62, 0
1, 276162, Note_on_c, 0, 67, 0
1, 276212, Control_c, 0, 64, 43
1, 276229, Control_c, 0, 64, 63
1, 276245, Note_on_c, 0, 47, 81
1, 276249, Control_c, 0, 64, 74
1, 276256, Note_on_c, 0, 67, 92
1, 276267, Control_c, 0, 64, 81
1, 276268, Note_on_c, 0, 71, 0
1, 276285, Control_c, 0, 64, 87
1, 276321, Control_c, 0, 64, 83
1, 276338, Note_on_c, 0, 47, 0
1, 276339, Control_c, 0, 64, 69
1, 276356, Control_c, 0, 64, 0
1, 276374, Note_on_c, 0, 69, 94
1, 276381, Note_on_c, 0, 48, 80
1, 276388, Note_on_c, 0, 67, 0
1, 276453, Note_on_c, 0, 69, 0
1, 276458, Note_on_c, 0, 48, 0
1, 276501, Note_on_c, 0, 71, 93
1, 276501, Note_on_c, 0, 50, 80
1, 276574, Note_on_c, 0, 50, 0
1, 276575, Note_on_c, 0, 71, 0
1, 276638, Note_on_c, 0, 51, 88
1, 276642, Note_on_c, 0, 72, 90
1, 276672, Control_c, 0, 64, 31
1, 276689, Control_c, 0, 64, 68
1, 276707, Control_c, 0, 64, 87
1, 276727, Control_c, 0, 64, 104
1, 276735, Note_on_c, 0, 51, 0
1, 276745, Control_c, 0, 64, 110
1, 276762, Note_on_c, 0, 71, 95
1, 276766, Note_on_c, 0, 50, 82
1, 276777, Note_on_c, 0, 72, 0
1, 276799, Control_c, 0, 64, 106
1, 276818, Control_c, 0, 64, 100
1, 276829, Note_on_c, 0, 50, 0
1, 276837, Control_c, 0, 64, 91
1, 276841, Note_on_c, 0, 71, 0
1, 276855, Control_c, 0, 64, 77
1, 276874, Control_c, 0, 64, 46
1, 276892, Control_c, 0, 64, 0
1, 276900, Note_on_c, 0, 51, 88
1, 276902, Note_on_c, 0, 72, 93
1, 276960, Note_on_c, 0, 51, 0
1, 276982, Control_c, 0, 64, 42
1, 276999, Control_c, 0, 64, 61
1, 277010, Note_on_c, 0, 72, 0
1, 277014, Control_c, 0, 64, 60
1, 277035, Control_c, 0, 64, 50
1, 277041, Note_on_c, 0, 70, 96
1, 277053, Control_c, 0, 64, 0
1, 277060, Note_on_c, 0, 62, 86
1, 277140, Note_on_c, 0, 70, 0
1, 277157, Note_on_c, 0, 62, 0
1, 277191, Note_on_c, 0, 72, 96
1, 277194, Note_on_c, 0, 60, 86
1, 277194, Note_on_c, 0, 69, 93
1, 277221, Note_on_c, 0, 51, 75
1, 277256, Control_c, 0, 64, 29
1, 277274, Control_c, 0, 64, 57
1, 277283, Note_on_c, 0, 60, 0
1, 277292, Control_c, 0, 64, 66
1, 277293, Note_on_c, 0, 69, 0
1, 277311, Control_c, 0, 64, 67
1, 277330, Note_on_c, 0, 72, 0
1, 277330, Control_c, 0, 64, 62
1, 277342, Note_on_c, 0, 58, 84
1, 277346, Note_on_c, 0, 67, 94
1, 277348, Control_c, 0, 64, 48
1, 277367, Control_c, 0, 64, 0
1, 277442, Note_on_c, 0, 67, 0
1, 277447, Note_on_c, 0, 58, 0
1, 277502, Note_on_c, 0, 72, 95
1, 277505, Note_on_c, 0, 69, 91
1, 277507, Note_on_c, 0, 60, 85
1, 277573, Note_on_c, 0, 60, 0
1, 277599, Note_on_c, 0, 69, 0
1, 277624, Note_on_c, 0, 72, 0
1, 277643, Note_on_c, 0, 58, 86
1, 277659, Note_on_c, 0, 67, 96
1, 277791, Note_on_c, 0, 67, 0
1, 277836, Note_on_c, 0, 58, 0
1, 277877, Note_on_c, 0, 66, 91
1, 277884, Note_on_c, 0, 72, 89
1, 277890, Note_on_c, 0, 57, 92
1, 278025, Control_c, 0, 64, 48
1, 278044, Control_c, 0, 64, 68
1, 278063, Control_c, 0, 64, 77
1, 278082, Control_c, 0, 64, 88
1, 278100, Control_c, 0, 64, 109
1, 278117, Control_c, 0, 64, 127
1, 278134, Note_on_c, 0, 57, 0
1, 278155, Note_on_c, 0, 66, 0
1, 278164, Note_on_c, 0, 51, 0
1, 278172, Note_on_c, 0, 72, 0
1, 278595, Control_c, 0, 64, 117
1, 278614, Control_c, 0, 64, 80
1, 278633, Control_c, 0, 64, 0
1, 278844, Note_on_c, 0, 78, 95
1, 278845, Note_on_c, 0, 60, 91
1, 278852, Note_on_c, 0, 69, 84
1, 278853, Note_on_c, 0, 51, 91
1, 278869, Control_c, 0, 64, 41
1, 278886, Control_c, 0, 64, 65
1, 278905, Control_c, 0, 64, 82
1, 278906, Note_on_c, 0, 60, 0
1, 278915, Note_on_c, 0, 51, 0
1, 278924, Control_c, 0, 64, 105
1, 278925, Note_on_c, 0, 69, 0
1, 278941, Control_c, 0, 64, 127
1, 278966, Note_on_c, 0, 78, 0
1, 278975, Poly_aftertouch_c, 0, 74, 0
1, 279272, Control_c, 0, 64, 96
1, 279279, Note_on_c, 0, 79, 98
1, 279283, Note_on_c, 0, 70, 96
1, 279286, Note_on_c, 0, 62, 91
1, 279291, Control_c, 0, 64, 0
1, 279295, Note_on_c, 0, 50, 83
1, 279497, Control_c, 0, 64, 63
1, 279512, Control_c, 0, 64, 87
1, 279529, Note_on_c, 0, 70, 0
1, 279529, Control_c, 0, 64, 110
1, 279548, Control_c, 0, 64, 127
1, 279574, Note_on_c, 0, 62, 0
1, 279623, Note_on_c, 0, 50, 0
1, 279664, Note_on_c, 0, 79, 0
1, 280024, Control_c, 0, 64, 114
1, 280043, Control_c, 0, 64, 74
1, 280059, Control_c, 0, 64, 0
1, 280151, Control_c, 0, 64, 44
1, 280158, Note_on_c, 0, 82, 94
1, 280170, Control_c, 0, 64, 67
1, 280189, Control_c, 0, 64, 84
1, 280207, Control_c, 0, 64, 109
1, 280225, Control_c, 0, 64, 127
1, 280374, Control_c, 0, 64, 87
1, 280392, Control_c, 0, 64, 0
1, 280407, Note_on_c, 0, 81, 97
1, 280414, Note_on_c, 0, 49, 91
1, 280448, Control_c, 0, 64, 55
1, 280465, Control_c, 0, 64, 84
1, 280466, Note_on_c, 0, 82, 0
1, 280484, Control_c, 0, 64, 114
1, 280502, Control_c, 0, 64, 127
1, 280509, Note_on_c, 0, 49, 0
1, 280546, Note_on_c, 0, 81, 0
1, 280599, Note_on_c, 0, 79, 97
1, 280729, Note_on_c, 0, 79, 0
1, 280779, Note_on_c, 0, 78, 90
1, 280792, Note_on_c, 0, 50, 97
1, 280811, Control_c, 0, 64, 100
1, 280831, Control_c, 0, 64, 72
1, 280846, Control_c, 0, 64, 48
1, 280866, Control_c, 0, 64, 39
1, 280905, Note_on_c, 0, 78, 0
1, 280928, Note_on_c, 0, 57, 76
1, 280932, Note_on_c, 0, 76, 89
1, 280980, Note_on_c, 0, 57, 0
1, 281013, Note_on_c, 0, 76, 0
1, 281060, Note_on_c, 0, 74, 90
1, 281066, Note_on_c, 0, 58, 86
1, 281123, Control_c, 0, 64, 41
1, 281124, Note_on_c, 0, 74, 0
1, 281131, Note_on_c, 0, 58, 0
1, 281188, Note_on_c, 0, 72, 90
1, 281192, Note_on_c, 0, 60, 88
1, 281252, Note_on_c, 0, 60, 0
1, 281275, Note_on_c, 0, 72, 0
1, 281290, Control_c, 0, 64, 43
1, 281319, Note_on_c, 0, 70, 92
1, 281320, Note_on_c, 0, 62, 92
1, 281405, Note_on_c, 0, 70, 0
1, 281423, Note_on_c, 0, 50, 0
1, 281446, Note_on_c, 0, 69, 90
1, 281516, Note_on_c, 0, 69, 0
1, 281583, Note_on_c, 0, 67, 89
1, 281587, Note_on_c, 0, 50, 94
1, 281669, Note_on_c, 0, 67, 0
1, 281716, Note_on_c, 0, 66, 88
1, 281727, Control_c, 0, 64, 46
1, 281791, Note_on_c, 0, 62, 0
1, 281801, Note_on_c, 0, 66, 0
1, 281840, Control_c, 0, 64, 43
1, 281846, Note_on_c, 0, 50, 0
1, 281855, Control_c, 0, 64, 33
1, 281857, Note_on_c, 0, 51, 86
1, 281862, Note_on_c, 0, 67, 91
1, 281876, Control_c, 0, 64, 16
1, 281894, Control_c, 0, 64, 0
1, 281990, Note_on_c, 0, 55, 79
1, 281990, Note_on_c, 0, 59, 85
1, 282025, Note_on_c, 0, 59, 0
1, 282069, Note_on_c, 0, 55, 0
1, 282112, Note_on_c, 0, 60, 88
1, 282117, Note_on_c, 0, 57, 75
1, 282124, Note_on_c, 0, 51, 0
1, 282144, Note_on_c, 0, 57, 0
1, 282164, Note_on_c, 0, 60, 0
1, 282232, Note_on_c, 0, 59, 84
1, 282233, Note_on_c, 0, 62, 82
1, 282268, Note_on_c, 0, 59, 0
1, 282294, Note_on_c, 0, 62, 0
1, 282360, Note_on_c, 0, 48, 94
1, 282365, Note_on_c, 0, 60, 83
1, 282366, Note_on_c, 0, 63, 78
1, 282422, Note_on_c, 0, 60, 0
1, 282471, Note_on_c, 0, 63, 0
1, 282487, Note_on_c, 0, 59, 78
1, 282494, Note_on_c, 0, 62, 77
1, 282561, Note_on_c, 0, 59, 0
1, 282577, Note_on_c, 0, 62, 0
1, 282645, Note_on_c, 0, 48, 0
1, 282659, Note_on_c, 0, 60, 84
1, 282666, Note_on_c, 0, 63, 79
1, 282822, Note_on_c, 0, 60, 0
1, 282835, Note_on_c, 0, 63, 0
1, 282932, Note_on_c, 0, 63, 84
1, 282933, Note_on_c, 0, 60, 90
1, 283040, Note_on_c, 0, 45, 89
1, 283109, Note_on_c, 0, 60, 0
1, 283126, Note_on_c, 0, 45, 0
1, 283141, Control_c, 0, 64, 34
1, 283160, Control_c, 0, 64, 53
1, 283171, Note_on_c, 0, 63, 0
1, 283176, Control_c, 0, 64, 60
1, 283182, Note_on_c, 0, 47, 93
1, 283214, Control_c, 0, 64, 54
1, 283233, Control_c, 0, 64, 26
1, 283242, Note_on_c, 0, 47, 0
1, 283250, Control_c, 0, 64, 0
1, 283301, Note_on_c, 0, 48, 90
1, 283346, Note_on_c, 0, 48, 0
1, 283449, Note_on_c, 0, 50, 96
1, 283506, Control_c, 0, 64, 56
1, 283524, Control_c, 0, 64, 76
1, 283544, Control_c, 0, 64, 92
1, 283561, Control_c, 0, 64, 114
1, 283579, Control_c, 0, 64, 127
1, 283588, Note_on_c, 0, 57, 87
1, 283601, Note_on_c, 0, 60, 87
1, 283635, Control_c, 0, 64, 121
1, 283652, Note_on_c, 0, 60, 0
1, 283652, Control_c, 0, 64, 98
1, 283668, Note_on_c, 0, 57, 0
1, 283670, Control_c, 0, 64, 66
1, 283689, Control_c, 0, 64, 0
1, 283720, Note_on_c, 0, 62, 90
1, 283724, Note_on_c, 0, 59, 86
1, 283752, Note_on_c, 0, 59, 0
1, 283775, Note_on_c, 0, 50, 0
1, 283785, Note_on_c, 0, 62, 0
1, 283835, Note_on_c, 0, 63, 87
1, 283842, Note_on_c, 0, 60, 82
1, 283879, Note_on_c, 0, 60, 0
1, 283913, Note_on_c, 0, 63, 0
1, 283971, Note_on_c, 0, 47, 98
1, 283975, Note_on_c, 0, 65, 82
1, 283978, Note_on_c, 0, 62, 86
1, 284046, Note_on_c, 0, 62, 0
1, 284057, Control_c, 0, 64, 51
1, 284078, Control_c, 0, 64, 66
1, 284085, Note_on_c, 0, 65, 0
1, 284094, Control_c, 0, 64, 70
1, 284102, Note_on_c, 0, 60, 85
1, 284103, Note_on_c, 0, 63, 86
1, 284130, Control_c, 0, 64, 72
1, 284161, Note_on_c, 0, 60, 0
1, 284167, Control_c, 0, 64, 75
1, 284184, Note_on_c, 0, 63, 0
1, 284186, Control_c, 0, 64, 80
1, 284203, Note_on_c, 0, 47, 0
1, 284204, Control_c, 0, 64, 89
1, 284224, Control_c, 0, 64, 96
1, 284248, Note_on_c, 0, 65, 91
1, 284252, Note_on_c, 0, 62, 94
1, 284296, Control_c, 0, 64, 81
1, 284315, Control_c, 0, 64, 64
1, 284332, Control_c, 0, 64, 20
1, 284351, Control_c, 0, 64, 0
1, 284456, Note_on_c, 0, 62, 0
1, 284458, Note_on_c, 0, 65, 0
1, 284546, Note_on_c, 0, 65, 89
1, 284552, Note_on_c, 0, 62, 96
1, 284702, Note_on_c, 0, 43, 95
1, 284765, Note_on_c, 0, 43, 0
1, 284858, Note_on_c, 0, 45, 95
1, 284921, Note_on_c, 0, 45, 0
1, 285012, Note_on_c, 0, 47, 97
1, 285082, Note_on_c, 0, 47, 0
1, 285126, Note_on_c, 0, 62, 0
1, 285143, Note_on_c, 0, 67, 0
1, 285146, Note_on_c, 0, 65, 0
1, 285209, Note_on_c, 0, 48, 97
1, 285285, Control_c, 0, 64, 11
1, 285305, Control_c, 0, 64, 55
1, 285322, Control_c, 0, 64, 68
1, 285342, Control_c, 0, 64, 74
1, 285375, Control_c, 0, 64, 81
1, 285394, Control_c, 0, 64, 90
1, 285413, Control_c, 0, 64, 101
1, 285431, Control_c, 0, 64, 106
1, 285477, Note_on_c, 0, 48, 0
1, 285522, Control_c, 0, 64, 111
1, 285540, Control_c, 0, 64, 116
1, 285596, Control_c, 0, 64, 110
1, 285614, Control_c, 0, 64, 94
1, 285635, Control_c, 0, 64, 67
1, 285652, Control_c, 0, 64, 0
1, 285660, Note_on_c, 0, 68, 89
1, 285665, Note_on_c, 0, 48, 86
1, 285666, Note_on_c, 0, 65, 82
1, 285760, Control_c, 0, 64, 59
1, 285778, Control_c, 0, 64, 75
1, 285798, Control_c, 0, 64, 85
1, 285817, Control_c, 0, 64, 94
1, 285835, Control_c, 0, 64, 100
1, 285865, Note_on_c, 0, 48, 0
1, 285872, Control_c, 0, 64, 104
1, 285940, Note_on_c, 0, 74, 95
1, 285945, Control_c, 0, 64, 113
1, 285980, Control_c, 0, 64, 118
1, 285981, Note_on_c, 0, 68, 0
1, 285999, Note_on_c, 0, 65, 0
1, 286038, Control_c, 0, 64, 127
1, 286129, Control_c, 0, 64, 117
1, 286147, Control_c, 0, 64, 83
1, 286159, Note_on_c, 0, 48, 85
1, 286166, Control_c, 0, 64, 0
1, 286168, Note_on_c, 0, 67, 78
1, 286172, Note_on_c, 0, 63, 88
1, 286197, Note_on_c, 0, 74, 0
1, 286220, Control_c, 0, 64, 32
1, 286239, Control_c, 0, 64, 69
1, 286258, Control_c, 0, 64, 87
1, 286268, Note_on_c, 0, 48, 0
1, 286274, Control_c, 0, 64, 107
1, 286310, Control_c, 0, 64, 124
1, 286350, Note_on_c, 0, 63, 0
1, 286352, Note_on_c, 0, 67, 0
1, 286370, Note_on_c, 0, 72, 91
1, 286513, Control_c, 0, 64, 95
1, 286533, Control_c, 0, 64, 48
1, 286543, Note_on_c, 0, 65, 84
1, 286546, Note_on_c, 0, 62, 80
1, 286547, Note_on_c, 0, 48, 95
1, 286551, Control_c, 0, 64, 0
1, 286557, Note_on_c, 0, 72, 0
1, 286587, Control_c, 0, 64, 45
1, 286604, Control_c, 0, 64, 77
1, 286609, Note_on_c, 0, 48, 0
1, 286623, Control_c, 0, 64, 104
1, 286640, Control_c, 0, 64, 127
1, 286673, Note_on_c, 0, 70, 92
1, 286699, Note_on_c, 0, 62, 0
1, 286700, Note_on_c, 0, 65, 0
1, 286789, Control_c, 0, 64, 117
1, 286808, Control_c, 0, 64, 76
1, 286824, Note_on_c, 0, 63, 86
1, 286826, Control_c, 0, 64, 0
1, 286826, Note_on_c, 0, 48, 92
1, 286830, Note_on_c, 0, 60, 82
1, 286843, Note_on_c, 0, 70, 0
1, 286882, Control_c, 0, 64, 51
1, 286891, Note_on_c, 0, 48, 0
1, 286897, Control_c, 0, 64, 78
1, 286916, Control_c, 0, 64, 101
1, 286935, Control_c, 0, 64, 127
1, 286942, Note_on_c, 0, 60, 0
1, 286962, Note_on_c, 0, 69, 91
1, 286977, Note_on_c, 0, 63, 0
1, 287082, Control_c, 0, 64, 106
1, 287101, Control_c, 0, 64, 59
1, 287108, Note_on_c, 0, 63, 84
1, 287113, Note_on_c, 0, 48, 93
1, 287114, Note_on_c, 0, 58, 85
1, 287119, Control_c, 0, 64, 0
1, 287120, Note_on_c, 0, 69, 0
1, 287155, Control_c, 0, 64, 45
1, 287159, Note_on_c, 0, 48, 0
1, 287175, Control_c, 0, 64, 77
1, 287193, Control_c, 0, 64, 102
1, 287211, Control_c, 0, 64, 127
1, 287244, Note_on_c, 0, 58, 0
1, 287260, Note_on_c, 0, 63, 0
1, 287264, Note_on_c, 0, 67, 88
1, 287410, Control_c, 0, 64, 96
1, 287428, Control_c, 0, 64, 31
1, 287442, Note_on_c, 0, 66, 90
1, 287447, Note_on_c, 0, 62, 81
1, 287447, Control_c, 0, 64, 0
1, 287449, Note_on_c, 0, 57, 84
1, 287450, Note_on_c, 0, 48, 96
1, 287472, Note_on_c, 0, 67, 0
1, 287491, Note_on_c, 0, 57, 0
1, 287502, Control_c, 0, 64, 58
1, 287518, Note_on_c, 0, 62, 0
1, 287520, Control_c, 0, 64, 84
1, 287537, Note_on_c, 0, 66, 0
1, 287538, Control_c, 0, 64, 111
1, 287559, Control_c, 0, 64, 127
1, 287792, Note_on_c, 0, 48, 0
1, 287815, Control_c, 0, 64, 106
1, 287821, Note_on_c, 0, 46, 87
1, 287825, Note_on_c, 0, 72, 89
1, 287835, Control_c, 0, 64, 57
1, 287851, Control_c, 0, 64, 0
1, 288037, Note_on_c, 0, 46, 0
1, 288041, Note_on_c, 0, 74, 87
1, 288045, Note_on_c, 0, 45, 83
1, 288054, Note_on_c, 0, 72, 0
1, 288128, Note_on_c, 0, 75, 89
1, 288144, Note_on_c, 0, 74, 0
1, 288181, Note_on_c, 0, 45, 0
1, 288215, Note_on_c, 0, 46, 87
1, 288228, Note_on_c, 0, 75, 0
1, 288235, Note_on_c, 0, 74, 95
1, 288290, Control_c, 0, 64, 48
1, 288309, Control_c, 0, 64, 70
1, 288314, Note_on_c, 0, 74, 0
1, 288326, Control_c, 0, 64, 86
1, 288344, Control_c, 0, 64, 110
1, 288360, Note_on_c, 0, 46, 0
1, 288363, Control_c, 0, 64, 127
1, 288658, Control_c, 0, 64, 102
1, 288676, Note_on_c, 0, 67, 87
1, 288677, Note_on_c, 0, 63, 83
1, 288678, Control_c, 0, 64, 0
1, 288680, Note_on_c, 0, 58, 89
1, 288685, Note_on_c, 0, 48, 98
1, 288743, Note_on_c, 0, 48, 0
1, 288748, Control_c, 0, 64, 70
1, 288770, Control_c, 0, 64, 98
1, 288786, Control_c, 0, 64, 127
1, 288870, Note_on_c, 0, 63, 0
1, 288870, Note_on_c, 0, 58, 0
1, 289187, Control_c, 0, 64, 99
1, 289200, Control_c, 0, 64, 0
1, 289215, Note_on_c, 0, 62, 87
1, 289216, Note_on_c, 0, 57, 89
1, 289221, Note_on_c, 0, 50, 101
1, 289258, Note_on_c, 0, 67, 0
1, 289273, Control_c, 0, 64, 66
1, 289277, Note_on_c, 0, 50, 0
1, 289293, Control_c, 0, 64, 91
1, 289311, Control_c, 0, 64, 125
1, 289382, Note_on_c, 0, 57, 0
1, 289511, Note_on_c, 0, 58, 95
1, 289628, Note_on_c, 0, 58, 0
1, 289752, Control_c, 0, 64, 119
1, 289771, Control_c, 0, 64, 69
1, 289787, Note_on_c, 0, 38, 98
1, 289788, Note_on_c, 0, 66, 87
1, 289790, Control_c, 0, 64, 0
1, 289790, Note_on_c, 0, 60, 97
1, 289880, Control_c, 0, 64, 38
1, 289900, Control_c, 0, 64, 73
1, 289901, Note_on_c, 0, 38, 0
1, 289918, Control_c, 0, 64, 98
1, 289937, Control_c, 0, 64, 127
1, 290082, Note_on_c, 0, 66, 0
1, 290484, Note_on_c, 0, 67, 101
1, 290492, Note_on_c, 0, 43, 98
1, 290499, Note_on_c, 0, 62, 0
1, 290499, Note_on_c, 0, 62, 45
1, 290502, Control_c, 0, 64, 88
1, 290521, Control_c, 0, 64, 0
1, 290834, Control_c, 0, 64, 44
1, 290854, Control_c, 0, 64, 60
1, 290872, Control_c, 0, 64, 66
1, 290889, Control_c, 0, 64, 71
1, 290907, Control_c, 0, 64, 79
1, 290926, Control_c, 0, 64, 91
1, 290945, Control_c, 0, 64, 104
1, 290978, Control_c, 0, 64, 112
1, 291016, Control_c, 0, 64, 117
1, 291034, Control_c, 0, 64, 122
1, 291052, Control_c, 0, 64, 127
1, 291465, Note_on_c, 0, 60, 0
1, 291511, Note_on_c, 0, 59, 91
1, 291568, Control_c, 0, 64, 104
1, 291584, Control_c, 0, 64, 76
1, 291604, Control_c, 0, 64, 42
1, 291621, Control_c, 0, 64, 0
1, 292777, Note_on_c, 0, 67, 0
1, 292790, Note_on_c, 0, 59, 0
1, 292804, Note_on_c, 0, 62, 0
1, 292809, Note_on_c, 0, 43, 0
1, 293760, End_track
0, 0, End_of_file
