0, 0, Header, 0, 1, 480
1, 0, Start_track
1, 0, Title_t, "Clementi: Sonatine Opus 36 Nr. 3, 2. Satz"
1, 0, Copyright_t, "Copyright © 2010 by Bernd Krueger"
1, 0, Text_t, "Muzio Clementi"
1, 0, Text_t, "Un poco Adagio"
1, 0, Text_t, "Erstellt:  14.12.2010\012"
1, 0, Text_t, "Dauer: 1:28 Minuten \012"
1, 0, Time_signature, 4, 2, 24, 8
1, 0, Key_signature, 1, "major"
1, 0, Tempo, 660139
1, 0, Marker_t, "Teil 1"
1, 0, Program_c, 0, 0
1, 0, Note_on_c, 0, 67, 42
1, 0, Program_c, 0, 0
1, 0, Note_on_c, 0, 55, 23
1, 0, Program_c, 0, 0
1, 480, Tempo, 674992
1, 480, Note_on_c, 0, 55, 0
1, 480, Note_on_c, 0, 62, 17
1, 720, Note_on_c, 0, 67, 0
1, 720, Note_on_c, 0, 66, 31
1, 960, Tempo, 663790
1, 960, Note_on_c, 0, 66, 0
1, 960, Note_on_c, 0, 62, 0
1, 960, Note_on_c, 0, 67, 42
1, 960, Note_on_c, 0, 59, 22
1, 1440, Note_on_c, 0, 59, 0
1, 1440, Note_on_c, 0, 62, 19
1, 1680, Note_on_c, 0, 67, 0
1, 1680, Note_on_c, 0, 69, 33
1, 1920, Tempo, 660139
1, 1920, Note_on_c, 0, 69, 0
1, 1920, Note_on_c, 0, 62, 0
1, 1920, Note_on_c, 0, 71, 40
1, 1920, Note_on_c, 0, 55, 22
1, 2400, Tempo, 678810
1, 2400, Note_on_c, 0, 55, 0
1, 2400, Note_on_c, 0, 62, 16
1, 2640, Note_on_c, 0, 71, 0
1, 2640, Note_on_c, 0, 69, 30
1, 2880, Tempo, 671216
1, 2880, Note_on_c, 0, 69, 0
1, 2880, Note_on_c, 0, 62, 0
1, 2880, Note_on_c, 0, 67, 39
1, 2880, Note_on_c, 0, 59, 22
1, 3106, Control_c, 0, 64, 127
1, 3360, Note_on_c, 0, 59, 0
1, 3360, Note_on_c, 0, 62, 18
1, 3600, Tempo, 732690
1, 3840, Tempo, 656527
1, 3840, Note_on_c, 0, 62, 0
1, 3840, Note_on_c, 0, 67, 0
1, 3840, Note_on_c, 0, 74, 53
1, 3840, Note_on_c, 0, 54, 31
1, 3845, Control_c, 0, 64, 0
1, 4320, Tempo, 667482
1, 4320, Note_on_c, 0, 54, 0
1, 4320, Note_on_c, 0, 62, 17
1, 4560, Note_on_c, 0, 74, 0
1, 4560, Note_on_c, 0, 76, 36
1, 4800, Note_on_c, 0, 76, 0
1, 4800, Note_on_c, 0, 62, 0
1, 4800, Note_on_c, 0, 74, 42
1, 4800, Note_on_c, 0, 57, 22
1, 5280, Note_on_c, 0, 57, 0
1, 5280, Note_on_c, 0, 62, 19
1, 5520, Note_on_c, 0, 74, 0
1, 5520, Note_on_c, 0, 72, 34
1, 5760, Tempo, 642467
1, 5760, Note_on_c, 0, 72, 0
1, 5760, Note_on_c, 0, 62, 0
1, 5760, Note_on_c, 0, 71, 40
1, 5760, Note_on_c, 0, 55, 22
1, 6240, Tempo, 663790
1, 6240, Note_on_c, 0, 55, 0
1, 6240, Note_on_c, 0, 62, 16
1, 6480, Note_on_c, 0, 71, 0
1, 6480, Note_on_c, 0, 72, 35
1, 6720, Tempo, 667482
1, 6720, Note_on_c, 0, 72, 0
1, 6720, Note_on_c, 0, 62, 0
1, 6720, Note_on_c, 0, 74, 45
1, 6720, Note_on_c, 0, 59, 22
1, 7200, Tempo, 702658
1, 7200, Note_on_c, 0, 59, 0
1, 7200, Note_on_c, 0, 74, 0
1, 7200, Note_on_c, 0, 62, 18
1, 7680, Tempo, 667482
1, 7680, Note_on_c, 0, 62, 0
1, 7680, Note_on_c, 0, 79, 53
1, 7680, Note_on_c, 0, 64, 26
1, 8160, Note_on_c, 0, 64, 0
1, 8160, Note_on_c, 0, 67, 26
1, 8400, Note_on_c, 0, 79, 0
1, 8400, Note_on_c, 0, 78, 45
1, 8640, Tempo, 649421
1, 8640, Note_on_c, 0, 78, 0
1, 8640, Note_on_c, 0, 67, 0
1, 8640, Note_on_c, 0, 79, 55
1, 8640, Note_on_c, 0, 62, 31
1, 9000, Note_on_c, 0, 79, 0
1, 9000, Note_on_c, 0, 78, 47
1, 9120, Note_on_c, 0, 78, 0
1, 9120, Note_on_c, 0, 62, 0
1, 9120, Note_on_c, 0, 79, 58
1, 9120, Note_on_c, 0, 60, 26
1, 9480, Tempo, 723851
1, 9480, Note_on_c, 0, 79, 0
1, 9480, Note_on_c, 0, 78, 50
1, 9600, Tempo, 667482
1, 9600, Note_on_c, 0, 78, 0
1, 9600, Note_on_c, 0, 60, 0
1, 9600, Note_on_c, 0, 79, 65
1, 9600, Note_on_c, 0, 59, 34
1, 10080, Tempo, 715222
1, 10080, Note_on_c, 0, 59, 0
1, 10080, Note_on_c, 0, 62, 33
1, 10320, Note_on_c, 0, 79, 0
1, 10320, Note_on_c, 0, 81, 61
1, 10440, Tempo, 667482
1, 10560, Note_on_c, 0, 81, 0
1, 10560, Note_on_c, 0, 62, 0
1, 10560, Note_on_c, 0, 83, 69
1, 10560, Note_on_c, 0, 67, 38
1, 10920, Note_on_c, 0, 83, 0
1, 10920, Note_on_c, 0, 81, 58
1, 11040, Tempo, 656527
1, 11040, Note_on_c, 0, 81, 0
1, 11040, Note_on_c, 0, 67, 0
1, 11040, Note_on_c, 0, 79, 64
1, 11280, Tempo, 710985
1, 11400, Note_on_c, 0, 79, 0
1, 11400, Note_on_c, 0, 78, 55
1, 11520, Tempo, 674992
1, 11520, Note_on_c, 0, 78, 0
1, 11520, Note_on_c, 0, 76, 61
1, 11520, Note_on_c, 0, 60, 38
1, 11880, Note_on_c, 0, 76, 0
1, 11880, Note_on_c, 0, 74, 42
1, 12000, Note_on_c, 0, 74, 0
1, 12000, Note_on_c, 0, 72, 44
1, 12360, Note_on_c, 0, 72, 0
1, 12360, Note_on_c, 0, 71, 35
1, 12480, Tempo, 686577
1, 12480, Note_on_c, 0, 71, 0
1, 12480, Note_on_c, 0, 60, 0
1, 12480, Note_on_c, 0, 69, 39
1, 12480, Note_on_c, 0, 61, 21
1, 12840, Note_on_c, 0, 69, 0
1, 12840, Note_on_c, 0, 67, 33
1, 12960, Tempo, 710985
1, 12960, Note_on_c, 0, 67, 0
1, 12960, Note_on_c, 0, 66, 38
1, 13200, Tempo, 795862
1, 13320, Note_on_c, 0, 66, 0
1, 13320, Note_on_c, 0, 67, 28
1, 13440, Tempo, 770317
1, 13440, Note_on_c, 0, 67, 0
1, 13440, Note_on_c, 0, 61, 0
1, 13440, Note_on_c, 0, 71, 35
1, 13440, Note_on_c, 0, 67, 29
1, 13440, Note_on_c, 0, 62, 22
1, 13574, Control_c, 0, 64, 127
1, 13920, Tempo, 806560
1, 13920, Note_on_c, 0, 62, 0
1, 13920, Note_on_c, 0, 50, 16
1, 14400, Note_on_c, 0, 50, 0
1, 14400, Note_on_c, 0, 67, 0
1, 14400, Note_on_c, 0, 71, 0
1, 14400, Note_on_c, 0, 69, 30
1, 14400, Note_on_c, 0, 66, 25
1, 14400, Note_on_c, 0, 62, 23
1, 14414, Control_c, 0, 64, 0
1, 14880, Note_on_c, 0, 62, 0
1, 14880, Note_on_c, 0, 66, 0
1, 14880, Note_on_c, 0, 69, 0
1, 15360, Tempo, 660139
1, 15360, Marker_t, "Teil 1 Wiederholung"
1, 15360, Note_on_c, 0, 67, 42
1, 15360, Note_on_c, 0, 55, 23
1, 15840, Tempo, 674992
1, 15840, Note_on_c, 0, 55, 0
1, 15840, Note_on_c, 0, 62, 17
1, 16080, Note_on_c, 0, 67, 0
1, 16080, Note_on_c, 0, 66, 32
1, 16320, Tempo, 660139
1, 16320, Note_on_c, 0, 66, 0
1, 16320, Note_on_c, 0, 62, 0
1, 16320, Note_on_c, 0, 67, 42
1, 16320, Note_on_c, 0, 59, 22
1, 16800, Tempo, 690528
1, 16800, Note_on_c, 0, 59, 0
1, 16800, Note_on_c, 0, 62, 19
1, 17040, Note_on_c, 0, 67, 0
1, 17040, Note_on_c, 0, 69, 31
1, 17280, Tempo, 678810
1, 17280, Note_on_c, 0, 69, 0
1, 17280, Note_on_c, 0, 62, 0
1, 17280, Note_on_c, 0, 71, 40
1, 17280, Note_on_c, 0, 55, 22
1, 17400, Tempo, 660139
1, 17760, Tempo, 682672
1, 17760, Note_on_c, 0, 55, 0
1, 17760, Note_on_c, 0, 62, 16
1, 18000, Note_on_c, 0, 71, 0
1, 18000, Note_on_c, 0, 69, 30
1, 18240, Note_on_c, 0, 69, 0
1, 18240, Note_on_c, 0, 62, 0
1, 18240, Note_on_c, 0, 67, 39
1, 18240, Note_on_c, 0, 59, 22
1, 18466, Control_c, 0, 64, 127
1, 18720, Note_on_c, 0, 59, 0
1, 18720, Note_on_c, 0, 62, 18
1, 18960, Tempo, 732690
1, 19200, Tempo, 656527
1, 19200, Note_on_c, 0, 62, 0
1, 19200, Note_on_c, 0, 67, 0
1, 19200, Note_on_c, 0, 74, 53
1, 19200, Note_on_c, 0, 54, 31
1, 19205, Control_c, 0, 64, 0
1, 19680, Tempo, 667482
1, 19680, Note_on_c, 0, 54, 0
1, 19680, Note_on_c, 0, 62, 17
1, 19920, Note_on_c, 0, 74, 0
1, 19920, Note_on_c, 0, 76, 36
1, 20160, Tempo, 663790
1, 20160, Note_on_c, 0, 76, 0
1, 20160, Note_on_c, 0, 62, 0
1, 20160, Note_on_c, 0, 74, 42
1, 20160, Note_on_c, 0, 57, 22
1, 20640, Note_on_c, 0, 57, 0
1, 20640, Note_on_c, 0, 62, 19
1, 20760, Tempo, 667482
1, 20880, Note_on_c, 0, 74, 0
1, 20880, Note_on_c, 0, 72, 34
1, 21120, Tempo, 642467
1, 21120, Note_on_c, 0, 72, 0
1, 21120, Note_on_c, 0, 62, 0
1, 21120, Note_on_c, 0, 71, 40
1, 21120, Note_on_c, 0, 55, 22
1, 21600, Tempo, 663790
1, 21600, Note_on_c, 0, 55, 0
1, 21600, Note_on_c, 0, 62, 16
1, 21840, Note_on_c, 0, 71, 0
1, 21840, Note_on_c, 0, 72, 35
1, 22080, Tempo, 667482
1, 22080, Note_on_c, 0, 72, 0
1, 22080, Note_on_c, 0, 62, 0
1, 22080, Note_on_c, 0, 74, 45
1, 22080, Note_on_c, 0, 59, 22
1, 22560, Tempo, 702658
1, 22560, Note_on_c, 0, 59, 0
1, 22560, Note_on_c, 0, 74, 0
1, 22560, Note_on_c, 0, 62, 18
1, 23040, Tempo, 667482
1, 23040, Note_on_c, 0, 62, 0
1, 23040, Note_on_c, 0, 79, 53
1, 23040, Note_on_c, 0, 64, 26
1, 23520, Note_on_c, 0, 64, 0
1, 23520, Note_on_c, 0, 67, 26
1, 23760, Note_on_c, 0, 79, 0
1, 23760, Note_on_c, 0, 78, 45
1, 24000, Tempo, 645925
1, 24000, Note_on_c, 0, 78, 0
1, 24000, Note_on_c, 0, 67, 0
1, 24000, Note_on_c, 0, 79, 55
1, 24000, Note_on_c, 0, 62, 31
1, 24360, Note_on_c, 0, 79, 0
1, 24360, Note_on_c, 0, 78, 47
1, 24480, Note_on_c, 0, 78, 0
1, 24480, Note_on_c, 0, 62, 0
1, 24480, Note_on_c, 0, 79, 58
1, 24480, Note_on_c, 0, 60, 26
1, 24840, Tempo, 723851
1, 24840, Note_on_c, 0, 79, 0
1, 24840, Note_on_c, 0, 78, 50
1, 24960, Tempo, 667482
1, 24960, Note_on_c, 0, 78, 0
1, 24960, Note_on_c, 0, 60, 0
1, 24960, Note_on_c, 0, 79, 65
1, 24960, Note_on_c, 0, 59, 34
1, 25440, Tempo, 715222
1, 25440, Note_on_c, 0, 59, 0
1, 25440, Note_on_c, 0, 62, 33
1, 25680, Note_on_c, 0, 79, 0
1, 25680, Note_on_c, 0, 81, 61
1, 25800, Tempo, 667482
1, 25920, Note_on_c, 0, 81, 0
1, 25920, Note_on_c, 0, 62, 0
1, 25920, Note_on_c, 0, 83, 69
1, 25920, Note_on_c, 0, 67, 38
1, 26280, Note_on_c, 0, 83, 0
1, 26280, Note_on_c, 0, 81, 58
1, 26400, Note_on_c, 0, 81, 0
1, 26400, Note_on_c, 0, 67, 0
1, 26400, Note_on_c, 0, 79, 64
1, 26640, Tempo, 710985
1, 26760, Note_on_c, 0, 79, 0
1, 26760, Note_on_c, 0, 78, 55
1, 26880, Tempo, 674992
1, 26880, Note_on_c, 0, 78, 0
1, 26880, Note_on_c, 0, 76, 61
1, 26880, Note_on_c, 0, 60, 38
1, 27240, Note_on_c, 0, 76, 0
1, 27240, Note_on_c, 0, 74, 42
1, 27360, Note_on_c, 0, 74, 0
1, 27360, Note_on_c, 0, 72, 44
1, 27720, Note_on_c, 0, 72, 0
1, 27720, Note_on_c, 0, 71, 35
1, 27840, Tempo, 686577
1, 27840, Note_on_c, 0, 71, 0
1, 27840, Note_on_c, 0, 60, 0
1, 27840, Note_on_c, 0, 69, 39
1, 27840, Note_on_c, 0, 61, 21
1, 28200, Note_on_c, 0, 69, 0
1, 28200, Note_on_c, 0, 67, 33
1, 28320, Tempo, 710985
1, 28320, Note_on_c, 0, 67, 0
1, 28320, Note_on_c, 0, 66, 38
1, 28560, Tempo, 795862
1, 28680, Note_on_c, 0, 66, 0
1, 28680, Note_on_c, 0, 67, 28
1, 28800, Tempo, 770317
1, 28800, Note_on_c, 0, 67, 0
1, 28800, Note_on_c, 0, 61, 0
1, 28800, Note_on_c, 0, 71, 35
1, 28800, Note_on_c, 0, 67, 29
1, 28800, Note_on_c, 0, 62, 22
1, 28934, Control_c, 0, 64, 127
1, 29280, Tempo, 806560
1, 29280, Note_on_c, 0, 62, 0
1, 29280, Note_on_c, 0, 50, 16
1, 29760, Note_on_c, 0, 50, 0
1, 29760, Note_on_c, 0, 67, 0
1, 29760, Note_on_c, 0, 71, 0
1, 29760, Note_on_c, 0, 69, 30
1, 29760, Note_on_c, 0, 66, 25
1, 29760, Note_on_c, 0, 62, 23
1, 29774, Control_c, 0, 64, 0
1, 30240, Note_on_c, 0, 62, 0
1, 30240, Note_on_c, 0, 66, 0
1, 30240, Note_on_c, 0, 69, 0
1, 30720, Tempo, 652955
1, 30720, Marker_t, "Teil 2"
1, 30720, Note_on_c, 0, 72, 42
1, 30720, Note_on_c, 0, 69, 23
1, 31200, Tempo, 674992
1, 31200, Note_on_c, 0, 69, 0
1, 31200, Note_on_c, 0, 62, 17
1, 31440, Note_on_c, 0, 72, 0
1, 31440, Note_on_c, 0, 74, 36
1, 31680, Tempo, 649421
1, 31680, Note_on_c, 0, 74, 0
1, 31680, Note_on_c, 0, 62, 0
1, 31680, Note_on_c, 0, 72, 42
1, 31680, Note_on_c, 0, 69, 22
1, 32160, Tempo, 674992
1, 32160, Note_on_c, 0, 69, 0
1, 32160, Note_on_c, 0, 67, 19
1, 32400, Note_on_c, 0, 72, 0
1, 32400, Note_on_c, 0, 71, 31
1, 32640, Tempo, 667482
1, 32640, Note_on_c, 0, 71, 0
1, 32640, Note_on_c, 0, 67, 0
1, 32640, Note_on_c, 0, 69, 40
1, 32640, Note_on_c, 0, 66, 22
1, 32760, Tempo, 649421
1, 33120, Tempo, 667482
1, 33120, Note_on_c, 0, 66, 0
1, 33120, Note_on_c, 0, 62, 16
1, 33346, Note_on_c, 0, 71, 30
1, 33360, Note_on_c, 0, 69, 0
1, 33586, Note_on_c, 0, 71, 0
1, 33600, Note_on_c, 0, 62, 0
1, 33600, Note_on_c, 0, 72, 38
1, 33600, Note_on_c, 0, 69, 22
1, 34080, Tempo, 674992
1, 34080, Note_on_c, 0, 69, 0
1, 34080, Note_on_c, 0, 62, 15
1, 34320, Tempo, 728244
1, 34320, Note_on_c, 0, 72, 0
1, 34320, Note_on_c, 0, 73, 23
1, 34560, Tempo, 652955
1, 34560, Note_on_c, 0, 73, 0
1, 34560, Note_on_c, 0, 62, 0
1, 34560, Note_on_c, 0, 74, 33
1, 34560, Note_on_c, 0, 71, 23
1, 35040, Tempo, 671216
1, 35040, Note_on_c, 0, 71, 0
1, 35040, Note_on_c, 0, 62, 17
1, 35280, Note_on_c, 0, 74, 0
1, 35280, Note_on_c, 0, 76, 32
1, 35520, Tempo, 656527
1, 35520, Note_on_c, 0, 76, 0
1, 35520, Note_on_c, 0, 62, 0
1, 35520, Note_on_c, 0, 74, 39
1, 35520, Note_on_c, 0, 71, 22
1, 36000, Tempo, 667482
1, 36000, Note_on_c, 0, 71, 0
1, 36000, Note_on_c, 0, 69, 21
1, 36240, Note_on_c, 0, 74, 0
1, 36240, Note_on_c, 0, 72, 34
1, 36480, Tempo, 652955
1, 36480, Note_on_c, 0, 72, 0
1, 36480, Note_on_c, 0, 69, 0
1, 36480, Note_on_c, 0, 71, 40
1, 36480, Note_on_c, 0, 67, 22
1, 36960, Tempo, 663790
1, 36960, Note_on_c, 0, 67, 0
1, 36960, Note_on_c, 0, 62, 16
1, 37200, Note_on_c, 0, 71, 0
1, 37200, Note_on_c, 0, 72, 34
1, 37440, Note_on_c, 0, 72, 0
1, 37440, Note_on_c, 0, 62, 0
1, 37440, Note_on_c, 0, 74, 40
1, 37440, Note_on_c, 0, 71, 22
1, 37920, Note_on_c, 0, 71, 0
1, 37920, Note_on_c, 0, 74, 0
1, 37920, Note_on_c, 0, 62, 18
1, 38160, Tempo, 732690
1, 38400, Tempo, 667482
1, 38400, Note_on_c, 0, 62, 0
1, 38400, Note_on_c, 0, 79, 53
1, 38400, Note_on_c, 0, 64, 26
1, 38880, Note_on_c, 0, 64, 0
1, 38880, Note_on_c, 0, 67, 26
1, 39120, Note_on_c, 0, 79, 0
1, 39120, Note_on_c, 0, 78, 45
1, 39360, Tempo, 656527
1, 39360, Note_on_c, 0, 78, 0
1, 39360, Note_on_c, 0, 67, 0
1, 39360, Note_on_c, 0, 79, 55
1, 39360, Note_on_c, 0, 62, 31
1, 39720, Note_on_c, 0, 79, 0
1, 39720, Note_on_c, 0, 81, 53
1, 39840, Note_on_c, 0, 81, 0
1, 39840, Note_on_c, 0, 62, 0
1, 39840, Note_on_c, 0, 83, 63
1, 39840, Note_on_c, 0, 60, 26
1, 40200, Tempo, 723851
1, 40200, Note_on_c, 0, 83, 0
1, 40200, Note_on_c, 0, 84, 61
1, 40320, Tempo, 667482
1, 40320, Note_on_c, 0, 84, 0
1, 40320, Note_on_c, 0, 60, 0
1, 40320, Note_on_c, 0, 86, 73
1, 40320, Note_on_c, 0, 59, 34
1, 40800, Tempo, 698568
1, 40800, Note_on_c, 0, 59, 0
1, 40800, Note_on_c, 0, 62, 27
1, 41040, Note_on_c, 0, 86, 0
1, 41040, Note_on_c, 0, 84, 56
1, 41160, Tempo, 667482
1, 41280, Note_on_c, 0, 84, 0
1, 41280, Note_on_c, 0, 62, 0
1, 41280, Note_on_c, 0, 83, 63
1, 41280, Note_on_c, 0, 67, 39
1, 41640, Note_on_c, 0, 83, 0
1, 41640, Note_on_c, 0, 81, 55
1, 41760, Note_on_c, 0, 81, 0
1, 41760, Note_on_c, 0, 67, 0
1, 41760, Note_on_c, 0, 79, 64
1, 42000, Tempo, 710985
1, 42120, Note_on_c, 0, 79, 0
1, 42120, Note_on_c, 0, 78, 48
1, 42240, Tempo, 674992
1, 42240, Note_on_c, 0, 78, 0
1, 42240, Note_on_c, 0, 76, 55
1, 42240, Note_on_c, 0, 48, 38
1, 42600, Note_on_c, 0, 76, 0
1, 42600, Note_on_c, 0, 74, 42
1, 42720, Note_on_c, 0, 74, 0
1, 42720, Note_on_c, 0, 72, 49
1, 42960, Tempo, 795862
1, 42990, Tempo, 870954
1, 43050, Tempo, 1064018
1, 43080, Tempo, 580327
1, 43080, Note_on_c, 0, 72, 0
1, 43080, Note_on_c, 0, 71, 39
1, 43110, Note_on_c, 0, 71, 0
1, 43140, Note_on_c, 0, 71, 24
1, 43200, Tempo, 694525
1, 43200, Note_on_c, 0, 71, 0
1, 43200, Note_on_c, 0, 48, 0
1, 43200, Note_on_c, 0, 69, 44
1, 43200, Note_on_c, 0, 50, 20
1, 43200, Note_on_c, 0, 60, 24
1, 43560, Note_on_c, 0, 69, 0
1, 43560, Note_on_c, 0, 67, 37
1, 43680, Tempo, 723851
1, 43680, Note_on_c, 0, 67, 0
1, 43680, Note_on_c, 0, 60, 0
1, 43680, Note_on_c, 0, 50, 0
1, 43680, Note_on_c, 0, 69, 43
1, 43680, Note_on_c, 0, 50, 20
1, 43680, Note_on_c, 0, 60, 24
1, 43920, Tempo, 795862
1, 44040, Note_on_c, 0, 69, 0
1, 44040, Note_on_c, 0, 71, 32
1, 44160, Tempo, 770317
1, 44160, Note_on_c, 0, 71, 0
1, 44160, Note_on_c, 0, 60, 0
1, 44160, Note_on_c, 0, 50, 0
1, 44160, Note_on_c, 0, 69, 35
1, 44160, Note_on_c, 0, 66, 29
1, 44160, Note_on_c, 0, 55, 16
1, 44160, Note_on_c, 0, 60, 22
1, 44294, Control_c, 0, 64, 127
1, 44640, Tempo, 806560
1, 45120, Note_on_c, 0, 60, 0
1, 45120, Note_on_c, 0, 69, 0
1, 45120, Note_on_c, 0, 66, 0
1, 45120, Note_on_c, 0, 55, 0
1, 45120, Note_on_c, 0, 67, 28
1, 45120, Note_on_c, 0, 55, 20
1, 45120, Note_on_c, 0, 59, 22
1, 45134, Control_c, 0, 64, 0
1, 45600, Note_on_c, 0, 59, 0
1, 45600, Note_on_c, 0, 55, 0
1, 45600, Note_on_c, 0, 67, 0
1, 46080, Tempo, 652955
1, 46080, Marker_t, "Teil 2 Wiederholung"
1, 46080, Note_on_c, 0, 72, 42
1, 46080, Note_on_c, 0, 69, 23
1, 46560, Tempo, 682672
1, 46560, Note_on_c, 0, 69, 0
1, 46560, Note_on_c, 0, 62, 17
1, 46800, Note_on_c, 0, 72, 0
1, 46800, Note_on_c, 0, 74, 36
1, 47040, Tempo, 660139
1, 47040, Note_on_c, 0, 74, 0
1, 47040, Note_on_c, 0, 62, 0
1, 47040, Note_on_c, 0, 72, 42
1, 47040, Note_on_c, 0, 69, 22
1, 47520, Tempo, 682672
1, 47520, Note_on_c, 0, 69, 0
1, 47520, Note_on_c, 0, 67, 19
1, 47760, Note_on_c, 0, 72, 0
1, 47760, Note_on_c, 0, 71, 30
1, 48000, Tempo, 645925
1, 48000, Note_on_c, 0, 71, 0
1, 48000, Note_on_c, 0, 67, 0
1, 48000, Note_on_c, 0, 69, 40
1, 48000, Note_on_c, 0, 66, 22
1, 48480, Tempo, 660139
1, 48480, Note_on_c, 0, 66, 0
1, 48480, Note_on_c, 0, 62, 16
1, 48706, Note_on_c, 0, 71, 30
1, 48720, Note_on_c, 0, 69, 0
1, 48946, Note_on_c, 0, 71, 0
1, 48960, Note_on_c, 0, 62, 0
1, 48960, Note_on_c, 0, 72, 38
1, 48960, Note_on_c, 0, 69, 22
1, 49440, Tempo, 706797
1, 49440, Note_on_c, 0, 69, 0
1, 49440, Note_on_c, 0, 62, 15
1, 49680, Tempo, 770317
1, 49680, Note_on_c, 0, 72, 0
1, 49680, Note_on_c, 0, 73, 23
1, 49800, Tempo, 780336
1, 49920, Tempo, 632311
1, 49920, Note_on_c, 0, 73, 0
1, 49920, Note_on_c, 0, 62, 0
1, 49920, Note_on_c, 0, 74, 34
1, 49920, Note_on_c, 0, 71, 23
1, 50400, Tempo, 671216
1, 50400, Note_on_c, 0, 71, 0
1, 50400, Note_on_c, 0, 62, 17
1, 50640, Note_on_c, 0, 74, 0
1, 50640, Note_on_c, 0, 76, 32
1, 50880, Tempo, 652955
1, 50880, Note_on_c, 0, 76, 0
1, 50880, Note_on_c, 0, 62, 0
1, 50880, Note_on_c, 0, 74, 38
1, 50880, Note_on_c, 0, 71, 22
1, 51360, Tempo, 660139
1, 51360, Note_on_c, 0, 71, 0
1, 51360, Note_on_c, 0, 69, 17
1, 51600, Note_on_c, 0, 74, 0
1, 51600, Note_on_c, 0, 72, 34
1, 51840, Tempo, 652955
1, 51840, Note_on_c, 0, 72, 0
1, 51840, Note_on_c, 0, 69, 0
1, 51840, Note_on_c, 0, 71, 40
1, 51840, Note_on_c, 0, 67, 22
1, 52320, Tempo, 674992
1, 52320, Note_on_c, 0, 67, 0
1, 52320, Note_on_c, 0, 62, 16
1, 52560, Note_on_c, 0, 71, 0
1, 52560, Note_on_c, 0, 72, 34
1, 52800, Note_on_c, 0, 72, 0
1, 52800, Note_on_c, 0, 62, 0
1, 52800, Note_on_c, 0, 74, 40
1, 52800, Note_on_c, 0, 71, 22
1, 53280, Note_on_c, 0, 71, 0
1, 53280, Note_on_c, 0, 74, 0
1, 53280, Note_on_c, 0, 62, 18
1, 53520, Tempo, 732690
1, 53760, Tempo, 667482
1, 53760, Note_on_c, 0, 62, 0
1, 53760, Note_on_c, 0, 79, 53
1, 53760, Note_on_c, 0, 64, 26
1, 54240, Note_on_c, 0, 64, 0
1, 54240, Note_on_c, 0, 67, 26
1, 54480, Note_on_c, 0, 79, 0
1, 54480, Note_on_c, 0, 78, 45
1, 54720, Tempo, 649421
1, 54720, Note_on_c, 0, 78, 0
1, 54720, Note_on_c, 0, 67, 0
1, 54720, Note_on_c, 0, 79, 55
1, 54720, Note_on_c, 0, 62, 31
1, 55080, Note_on_c, 0, 79, 0
1, 55080, Note_on_c, 0, 81, 53
1, 55200, Note_on_c, 0, 81, 0
1, 55200, Note_on_c, 0, 62, 0
1, 55200, Note_on_c, 0, 83, 63
1, 55200, Note_on_c, 0, 60, 26
1, 55320, Tempo, 656527
1, 55560, Tempo, 723851
1, 55560, Note_on_c, 0, 83, 0
1, 55560, Note_on_c, 0, 84, 61
1, 55680, Tempo, 667482
1, 55680, Note_on_c, 0, 84, 0
1, 55680, Note_on_c, 0, 60, 0
1, 55680, Note_on_c, 0, 86, 73
1, 55680, Note_on_c, 0, 59, 34
1, 56160, Tempo, 698568
1, 56160, Note_on_c, 0, 59, 0
1, 56160, Note_on_c, 0, 62, 27
1, 56400, Note_on_c, 0, 86, 0
1, 56400, Note_on_c, 0, 84, 56
1, 56520, Tempo, 667482
1, 56640, Note_on_c, 0, 84, 0
1, 56640, Note_on_c, 0, 62, 0
1, 56640, Note_on_c, 0, 83, 63
1, 56640, Note_on_c, 0, 67, 39
1, 57000, Note_on_c, 0, 83, 0
1, 57000, Note_on_c, 0, 81, 55
1, 57120, Note_on_c, 0, 81, 0
1, 57120, Note_on_c, 0, 67, 0
1, 57120, Note_on_c, 0, 79, 64
1, 57360, Tempo, 710985
1, 57480, Note_on_c, 0, 79, 0
1, 57480, Note_on_c, 0, 78, 48
1, 57600, Tempo, 674992
1, 57600, Note_on_c, 0, 78, 0
1, 57600, Note_on_c, 0, 76, 55
1, 57600, Note_on_c, 0, 48, 38
1, 57960, Note_on_c, 0, 76, 0
1, 57960, Note_on_c, 0, 74, 42
1, 58080, Note_on_c, 0, 74, 0
1, 58080, Note_on_c, 0, 72, 49
1, 58320, Tempo, 939114
1, 58410, Tempo, 1167542
1, 58440, Tempo, 741748
1, 58440, Note_on_c, 0, 72, 0
1, 58440, Note_on_c, 0, 71, 39
1, 58470, Tempo, 597669
1, 58480, Note_on_c, 0, 71, 0
1, 58530, Note_on_c, 0, 71, 34
1, 58560, Tempo, 694525
1, 58560, Note_on_c, 0, 71, 0
1, 58560, Note_on_c, 0, 48, 0
1, 58560, Note_on_c, 0, 69, 44
1, 58560, Note_on_c, 0, 50, 20
1, 58560, Note_on_c, 0, 60, 24
1, 58920, Note_on_c, 0, 69, 0
1, 58920, Note_on_c, 0, 67, 37
1, 59040, Tempo, 723851
1, 59040, Note_on_c, 0, 67, 0
1, 59040, Note_on_c, 0, 60, 0
1, 59040, Note_on_c, 0, 50, 0
1, 59040, Note_on_c, 0, 69, 43
1, 59040, Note_on_c, 0, 50, 20
1, 59040, Note_on_c, 0, 60, 24
1, 59280, Tempo, 852394
1, 59400, Note_on_c, 0, 69, 0
1, 59400, Note_on_c, 0, 71, 32
1, 59520, Tempo, 864678
1, 59520, Note_on_c, 0, 71, 0
1, 59520, Note_on_c, 0, 60, 0
1, 59520, Note_on_c, 0, 50, 0
1, 59520, Note_on_c, 0, 69, 35
1, 59520, Note_on_c, 0, 66, 29
1, 59520, Note_on_c, 0, 55, 16
1, 59520, Note_on_c, 0, 60, 22
1, 59654, Control_c, 0, 64, 127
1, 60000, Tempo, 864678
1, 60480, Note_on_c, 0, 60, 0
1, 60480, Note_on_c, 0, 69, 0
1, 60480, Note_on_c, 0, 66, 0
1, 60480, Note_on_c, 0, 55, 0
1, 60480, Note_on_c, 0, 67, 28
1, 60480, Note_on_c, 0, 55, 20
1, 60480, Note_on_c, 0, 59, 22
1, 60494, Control_c, 0, 64, 0
1, 60960, Note_on_c, 0, 59, 0
1, 60960, Note_on_c, 0, 55, 0
1, 60960, Note_on_c, 0, 67, 0
1, 60960, End_track
0, 0, End_of_file
