0, 0, Header, 0, 1, 480
1, 0, Start_track
1, 0, Title_t, "Clementi: Sonatine Opus 36 Nr. 4, 3. Satz"
1, 0, Copyright_t, "Copyright © 2011 by Bernd Krueger"
1, 0, Text_t, "Muzio Clementi"
1, 0, Text_t, "Rondo. Allegro vivace"
1, 0, Text_t, "Erstellt: 17.10.2011\012"
1, 0, Text_t, "Dauer: 1:48 Minuten\012"
1, 0, Time_signature, 2, 2, 24, 8
1, 0, Key_signature, -1, "major"
1, 0, Tempo, 662983
1, 0, Program_c, 0, 0
1, 0, Program_c, 0, 0
1, 0, Program_c, 0, 0
1, 480, Marker_t, "Teil 1"
1, 480, Note_on_c, 0, 77, 45
1, 560, Note_on_c, 0, 77, 0
1, 560, Note_on_c, 0, 79, 38
1, 640, Note_on_c, 0, 79, 0
1, 640, Note_on_c, 0, 81, 38
1, 720, Note_on_c, 0, 81, 0
1, 720, Note_on_c, 0, 77, 44
1, 800, Note_on_c, 0, 77, 0
1, 800, Note_on_c, 0, 79, 37
1, 880, Tempo, 750000
1, 880, Note_on_c, 0, 79, 0
1, 880, Note_on_c, 0, 81, 37
1, 960, Tempo, 681818
1, 960, Note_on_c, 0, 81, 0
1, 960, Note_on_c, 0, 72, 45
1, 960, Note_on_c, 0, 69, 36
1, 960, Note_on_c, 0, 65, 30
1, 1020, Note_on_c, 0, 65, 0
1, 1020, Note_on_c, 0, 69, 0
1, 1020, Note_on_c, 0, 72, 0
1, 1200, Note_on_c, 0, 72, 45
1, 1200, Note_on_c, 0, 69, 36
1, 1200, Note_on_c, 0, 65, 30
1, 1260, Note_on_c, 0, 65, 0
1, 1260, Note_on_c, 0, 69, 0
1, 1260, Note_on_c, 0, 72, 0
1, 1440, Tempo, 659341
1, 1440, Note_on_c, 0, 77, 45
1, 1520, Note_on_c, 0, 77, 0
1, 1520, Note_on_c, 0, 79, 38
1, 1600, Note_on_c, 0, 79, 0
1, 1600, Note_on_c, 0, 81, 38
1, 1680, Note_on_c, 0, 81, 0
1, 1680, Note_on_c, 0, 77, 44
1, 1760, Note_on_c, 0, 77, 0
1, 1760, Note_on_c, 0, 79, 37
1, 1840, Tempo, 750000
1, 1840, Note_on_c, 0, 79, 0
1, 1840, Note_on_c, 0, 81, 37
1, 1920, Tempo, 677966
1, 1920, Note_on_c, 0, 81, 0
1, 1920, Note_on_c, 0, 74, 45
1, 1920, Note_on_c, 0, 70, 36
1, 1920, Note_on_c, 0, 65, 30
1, 1980, Note_on_c, 0, 65, 0
1, 1980, Note_on_c, 0, 70, 0
1, 1980, Note_on_c, 0, 74, 0
1, 2160, Note_on_c, 0, 74, 45
1, 2160, Note_on_c, 0, 70, 36
1, 2160, Note_on_c, 0, 65, 30
1, 2220, Note_on_c, 0, 65, 0
1, 2220, Note_on_c, 0, 70, 0
1, 2220, Note_on_c, 0, 74, 0
1, 2400, Tempo, 662983
1, 2400, Note_on_c, 0, 86, 53
1, 2480, Note_on_c, 0, 86, 0
1, 2480, Note_on_c, 0, 84, 50
1, 2560, Note_on_c, 0, 84, 0
1, 2560, Note_on_c, 0, 82, 50
1, 2640, Note_on_c, 0, 82, 0
1, 2640, Note_on_c, 0, 81, 55
1, 2720, Note_on_c, 0, 81, 0
1, 2720, Note_on_c, 0, 79, 57
1, 2800, Note_on_c, 0, 79, 0
1, 2800, Note_on_c, 0, 77, 58
1, 2880, Note_on_c, 0, 77, 0
1, 2880, Note_on_c, 0, 76, 63
1, 2880, Note_on_c, 0, 60, 47
1, 2880, Note_on_c, 0, 55, 39
1, 2880, Note_on_c, 0, 52, 39
1, 2880, Note_on_c, 0, 48, 39
1, 2960, Note_on_c, 0, 76, 0
1, 2960, Note_on_c, 0, 79, 57
1, 3040, Note_on_c, 0, 79, 0
1, 3040, Note_on_c, 0, 77, 56
1, 3120, Note_on_c, 0, 77, 0
1, 3120, Note_on_c, 0, 76, 62
1, 3200, Note_on_c, 0, 76, 0
1, 3200, Note_on_c, 0, 74, 54
1, 3280, Note_on_c, 0, 74, 0
1, 3280, Note_on_c, 0, 72, 54
1, 3360, Note_on_c, 0, 72, 0
1, 3360, Note_on_c, 0, 70, 56
1, 3440, Note_on_c, 0, 70, 0
1, 3440, Note_on_c, 0, 69, 50
1, 3520, Note_on_c, 0, 69, 0
1, 3520, Note_on_c, 0, 67, 50
1, 3600, Note_on_c, 0, 67, 0
1, 3600, Note_on_c, 0, 74, 61
1, 3680, Note_on_c, 0, 74, 0
1, 3680, Note_on_c, 0, 72, 53
1, 3760, Note_on_c, 0, 72, 0
1, 3760, Note_on_c, 0, 70, 53
1, 3840, Tempo, 685714
1, 3840, Note_on_c, 0, 70, 0
1, 3840, Note_on_c, 0, 48, 0
1, 3840, Note_on_c, 0, 60, 0
1, 3840, Note_on_c, 0, 55, 0
1, 3840, Note_on_c, 0, 52, 0
1, 3840, Note_on_c, 0, 69, 63
1, 3840, Note_on_c, 0, 53, 41
1, 3900, Note_on_c, 0, 69, 0
1, 3920, Note_on_c, 0, 53, 0
1, 3920, Note_on_c, 0, 57, 31
1, 4000, Note_on_c, 0, 57, 0
1, 4000, Note_on_c, 0, 60, 29
1, 4080, Note_on_c, 0, 60, 0
1, 4080, Note_on_c, 0, 72, 57
1, 4080, Note_on_c, 0, 53, 37
1, 4140, Note_on_c, 0, 72, 0
1, 4160, Note_on_c, 0, 53, 0
1, 4160, Note_on_c, 0, 57, 34
1, 4240, Note_on_c, 0, 57, 0
1, 4240, Note_on_c, 0, 60, 25
1, 4320, Tempo, 662983
1, 4320, Note_on_c, 0, 60, 0
1, 4320, Note_on_c, 0, 53, 39
1, 4400, Note_on_c, 0, 53, 0
1, 4400, Note_on_c, 0, 57, 33
1, 4480, Note_on_c, 0, 57, 0
1, 4480, Note_on_c, 0, 60, 30
1, 4560, Note_on_c, 0, 60, 0
1, 4560, Note_on_c, 0, 84, 64
1, 4560, Note_on_c, 0, 53, 41
1, 4640, Note_on_c, 0, 53, 0
1, 4640, Note_on_c, 0, 57, 32
1, 4720, Note_on_c, 0, 57, 0
1, 4720, Note_on_c, 0, 60, 27
1, 4800, Tempo, 670391
1, 4800, Note_on_c, 0, 60, 0
1, 4800, Note_on_c, 0, 84, 0
1, 4800, Note_on_c, 0, 81, 69
1, 4800, Note_on_c, 0, 53, 41
1, 4880, Note_on_c, 0, 53, 0
1, 4880, Note_on_c, 0, 57, 31
1, 4960, Note_on_c, 0, 57, 0
1, 4960, Note_on_c, 0, 60, 33
1, 5040, Note_on_c, 0, 60, 0
1, 5040, Note_on_c, 0, 81, 0
1, 5040, Note_on_c, 0, 77, 63
1, 5040, Note_on_c, 0, 53, 38
1, 5120, Note_on_c, 0, 53, 0
1, 5120, Note_on_c, 0, 57, 35
1, 5200, Note_on_c, 0, 57, 0
1, 5200, Note_on_c, 0, 60, 30
1, 5280, Note_on_c, 0, 60, 0
1, 5280, Note_on_c, 0, 77, 0
1, 5280, Note_on_c, 0, 74, 68
1, 5280, Note_on_c, 0, 53, 39
1, 5360, Note_on_c, 0, 53, 0
1, 5360, Note_on_c, 0, 58, 30
1, 5440, Note_on_c, 0, 58, 0
1, 5440, Note_on_c, 0, 62, 30
1, 5520, Note_on_c, 0, 62, 0
1, 5520, Note_on_c, 0, 74, 0
1, 5520, Note_on_c, 0, 70, 54
1, 5520, Note_on_c, 0, 53, 37
1, 5600, Note_on_c, 0, 53, 0
1, 5600, Note_on_c, 0, 58, 32
1, 5680, Tempo, 759494
1, 5680, Note_on_c, 0, 58, 0
1, 5680, Note_on_c, 0, 62, 30
1, 5760, Tempo, 662983
1, 5760, Note_on_c, 0, 62, 0
1, 5760, Note_on_c, 0, 70, 0
1, 5760, Note_on_c, 0, 69, 58
1, 5760, Note_on_c, 0, 53, 41
1, 5840, Note_on_c, 0, 53, 0
1, 5840, Note_on_c, 0, 57, 31
1, 5920, Note_on_c, 0, 57, 0
1, 5920, Note_on_c, 0, 60, 23
1, 6000, Note_on_c, 0, 60, 0
1, 6000, Note_on_c, 0, 69, 0
1, 6000, Note_on_c, 0, 72, 50
1, 6000, Note_on_c, 0, 53, 35
1, 6080, Note_on_c, 0, 53, 0
1, 6080, Note_on_c, 0, 57, 27
1, 6160, Note_on_c, 0, 57, 0
1, 6160, Note_on_c, 0, 60, 27
1, 6240, Note_on_c, 0, 60, 0
1, 6240, Note_on_c, 0, 72, 0
1, 6240, Note_on_c, 0, 53, 37
1, 6320, Note_on_c, 0, 53, 0
1, 6320, Note_on_c, 0, 57, 31
1, 6400, Note_on_c, 0, 57, 0
1, 6400, Note_on_c, 0, 60, 25
1, 6480, Note_on_c, 0, 60, 0
1, 6480, Note_on_c, 0, 84, 64
1, 6480, Note_on_c, 0, 53, 41
1, 6560, Note_on_c, 0, 53, 0
1, 6560, Note_on_c, 0, 57, 32
1, 6640, Note_on_c, 0, 57, 0
1, 6640, Note_on_c, 0, 60, 26
1, 6720, Tempo, 666667
1, 6720, Note_on_c, 0, 60, 0
1, 6720, Note_on_c, 0, 84, 0
1, 6720, Note_on_c, 0, 81, 69
1, 6720, Note_on_c, 0, 53, 41
1, 6800, Note_on_c, 0, 53, 0
1, 6800, Note_on_c, 0, 57, 31
1, 6880, Note_on_c, 0, 57, 0
1, 6880, Note_on_c, 0, 60, 27
1, 6960, Note_on_c, 0, 60, 0
1, 6960, Note_on_c, 0, 81, 0
1, 6960, Note_on_c, 0, 77, 63
1, 6960, Note_on_c, 0, 53, 38
1, 7040, Note_on_c, 0, 53, 0
1, 7040, Note_on_c, 0, 57, 35
1, 7120, Note_on_c, 0, 57, 0
1, 7120, Note_on_c, 0, 60, 30
1, 7200, Note_on_c, 0, 60, 0
1, 7200, Note_on_c, 0, 77, 0
1, 7200, Note_on_c, 0, 74, 68
1, 7200, Note_on_c, 0, 53, 39
1, 7280, Note_on_c, 0, 53, 0
1, 7280, Note_on_c, 0, 59, 30
1, 7360, Tempo, 710059
1, 7360, Note_on_c, 0, 59, 0
1, 7360, Note_on_c, 0, 62, 30
1, 7440, Tempo, 662983
1, 7440, Note_on_c, 0, 62, 0
1, 7440, Note_on_c, 0, 74, 0
1, 7440, Note_on_c, 0, 81, 54
1, 7440, Note_on_c, 0, 53, 37
1, 7520, Note_on_c, 0, 53, 0
1, 7520, Note_on_c, 0, 59, 32
1, 7600, Note_on_c, 0, 59, 0
1, 7600, Note_on_c, 0, 62, 30
1, 7680, Note_on_c, 0, 62, 0
1, 7680, Note_on_c, 0, 81, 0
1, 7680, Note_on_c, 0, 79, 58
1, 7680, Note_on_c, 0, 52, 41
1, 7740, Note_on_c, 0, 79, 0
1, 7760, Note_on_c, 0, 52, 0
1, 7760, Note_on_c, 0, 55, 31
1, 7840, Note_on_c, 0, 55, 0
1, 7840, Note_on_c, 0, 60, 25
1, 7920, Note_on_c, 0, 60, 0
1, 7920, Note_on_c, 0, 79, 53
1, 8000, Note_on_c, 0, 79, 0
1, 8000, Note_on_c, 0, 77, 49
1, 8080, Note_on_c, 0, 77, 0
1, 8080, Note_on_c, 0, 76, 49
1, 8160, Note_on_c, 0, 76, 0
1, 8160, Note_on_c, 0, 74, 58
1, 8160, Note_on_c, 0, 53, 41
1, 8220, Note_on_c, 0, 74, 0
1, 8240, Note_on_c, 0, 53, 0
1, 8240, Note_on_c, 0, 57, 31
1, 8320, Note_on_c, 0, 57, 0
1, 8320, Note_on_c, 0, 62, 28
1, 8400, Note_on_c, 0, 62, 0
1, 8400, Note_on_c, 0, 77, 53
1, 8480, Note_on_c, 0, 77, 0
1, 8480, Note_on_c, 0, 76, 49
1, 8560, Note_on_c, 0, 76, 0
1, 8560, Note_on_c, 0, 74, 49
1, 8640, Note_on_c, 0, 74, 0
1, 8640, Note_on_c, 0, 72, 58
1, 8640, Note_on_c, 0, 55, 41
1, 8700, Note_on_c, 0, 72, 0
1, 8720, Note_on_c, 0, 55, 0
1, 8720, Note_on_c, 0, 60, 30
1, 8800, Tempo, 714286
1, 8800, Note_on_c, 0, 60, 0
1, 8800, Note_on_c, 0, 64, 28
1, 8880, Tempo, 662983
1, 8880, Note_on_c, 0, 64, 0
1, 8880, Note_on_c, 0, 76, 49
1, 8960, Note_on_c, 0, 76, 0
1, 8960, Note_on_c, 0, 74, 45
1, 9040, Note_on_c, 0, 74, 0
1, 9040, Note_on_c, 0, 72, 44
1, 9120, Note_on_c, 0, 72, 0
1, 9120, Note_on_c, 0, 71, 51
1, 9120, Note_on_c, 0, 55, 36
1, 9180, Note_on_c, 0, 71, 0
1, 9200, Note_on_c, 0, 55, 0
1, 9200, Note_on_c, 0, 62, 26
1, 9280, Note_on_c, 0, 62, 0
1, 9280, Note_on_c, 0, 65, 24
1, 9360, Tempo, 681818
1, 9360, Note_on_c, 0, 65, 0
1, 9360, Note_on_c, 0, 67, 43
1, 9440, Note_on_c, 0, 67, 0
1, 9440, Note_on_c, 0, 69, 39
1, 9520, Tempo, 754717
1, 9520, Note_on_c, 0, 69, 0
1, 9520, Note_on_c, 0, 71, 38
1, 9600, Tempo, 662983
1, 9600, Note_on_c, 0, 71, 0
1, 9600, Note_on_c, 0, 72, 50
1, 9600, Note_on_c, 0, 60, 34
1, 9660, Note_on_c, 0, 72, 0
1, 9680, Note_on_c, 0, 60, 0
1, 9681, Note_on_c, 0, 62, 30
1, 9760, Note_on_c, 0, 64, 30
1, 9761, Note_on_c, 0, 62, 0
1, 9840, Note_on_c, 0, 64, 0
1, 9840, Note_on_c, 0, 60, 34
1, 9920, Note_on_c, 0, 60, 0
1, 9921, Note_on_c, 0, 62, 30
1, 10000, Note_on_c, 0, 64, 30
1, 10001, Note_on_c, 0, 62, 0
1, 10080, Note_on_c, 0, 64, 0
1, 10080, Note_on_c, 0, 72, 45
1, 10080, Note_on_c, 0, 60, 34
1, 10140, Note_on_c, 0, 60, 0
1, 10160, Note_on_c, 0, 72, 0
1, 10160, Note_on_c, 0, 74, 39
1, 10240, Note_on_c, 0, 74, 0
1, 10240, Note_on_c, 0, 76, 40
1, 10320, Note_on_c, 0, 76, 0
1, 10320, Note_on_c, 0, 72, 46
1, 10400, Note_on_c, 0, 72, 0
1, 10400, Note_on_c, 0, 74, 39
1, 10480, Note_on_c, 0, 74, 0
1, 10480, Note_on_c, 0, 76, 39
1, 10560, Note_on_c, 0, 76, 0
1, 10560, Note_on_c, 0, 74, 47
1, 10560, Note_on_c, 0, 71, 38
1, 10579, Tempo, 659341
1, 10620, Note_on_c, 0, 71, 0
1, 10637, Tempo, 662983
1, 10640, Note_on_c, 0, 74, 0
1, 10640, Note_on_c, 0, 76, 37
1, 10675, Tempo, 666667
1, 10720, Note_on_c, 0, 76, 0
1, 10720, Note_on_c, 0, 77, 37
1, 10733, Tempo, 670391
1, 10771, Tempo, 674157
1, 10800, Note_on_c, 0, 77, 0
1, 10800, Note_on_c, 0, 74, 43
1, 10829, Tempo, 677966
1, 10867, Tempo, 681818
1, 10880, Note_on_c, 0, 74, 0
1, 10880, Note_on_c, 0, 76, 38
1, 10925, Tempo, 685714
1, 10960, Note_on_c, 0, 76, 0
1, 10960, Note_on_c, 0, 77, 38
1, 10963, Tempo, 689655
1, 11021, Tempo, 693642
1, 11040, Tempo, 693642
1, 11040, Note_on_c, 0, 77, 0
1, 11040, Note_on_c, 0, 76, 43
1, 11040, Note_on_c, 0, 70, 41
1, 11079, Tempo, 697674
1, 11098, Tempo, 701754
1, 11100, Note_on_c, 0, 70, 0
1, 11120, Note_on_c, 0, 76, 0
1, 11120, Note_on_c, 0, 77, 38
1, 11136, Tempo, 705882
1, 11155, Tempo, 710059
1, 11194, Tempo, 714286
1, 11200, Note_on_c, 0, 77, 0
1, 11200, Note_on_c, 0, 79, 33
1, 11213, Tempo, 718563
1, 11232, Tempo, 722892
1, 11271, Tempo, 727273
1, 11280, Note_on_c, 0, 79, 0
1, 11280, Note_on_c, 0, 76, 37
1, 11290, Tempo, 731707
1, 11328, Tempo, 736196
1, 11347, Tempo, 740741
1, 11360, Note_on_c, 0, 76, 0
1, 11360, Note_on_c, 0, 77, 34
1, 11386, Tempo, 745342
1, 11405, Tempo, 750000
1, 11424, Tempo, 754717
1, 11440, Note_on_c, 0, 77, 0
1, 11440, Note_on_c, 0, 79, 29
1, 11520, Tempo, 662983
1, 11520, Note_on_c, 0, 79, 0
1, 12000, Note_on_c, 0, 77, 45
1, 12080, Note_on_c, 0, 77, 0
1, 12080, Note_on_c, 0, 79, 38
1, 12160, Note_on_c, 0, 79, 0
1, 12160, Note_on_c, 0, 81, 38
1, 12240, Note_on_c, 0, 81, 0
1, 12240, Note_on_c, 0, 77, 44
1, 12320, Note_on_c, 0, 77, 0
1, 12320, Note_on_c, 0, 79, 37
1, 12400, Tempo, 759494
1, 12400, Note_on_c, 0, 79, 0
1, 12400, Note_on_c, 0, 81, 37
1, 12480, Tempo, 689655
1, 12480, Note_on_c, 0, 81, 0
1, 12480, Note_on_c, 0, 72, 45
1, 12480, Note_on_c, 0, 69, 36
1, 12480, Note_on_c, 0, 65, 30
1, 12540, Note_on_c, 0, 65, 0
1, 12540, Note_on_c, 0, 69, 0
1, 12540, Note_on_c, 0, 72, 0
1, 12720, Note_on_c, 0, 72, 45
1, 12720, Note_on_c, 0, 69, 36
1, 12720, Note_on_c, 0, 65, 30
1, 12780, Note_on_c, 0, 65, 0
1, 12780, Note_on_c, 0, 69, 0
1, 12780, Note_on_c, 0, 72, 0
1, 12960, Tempo, 662983
1, 12960, Note_on_c, 0, 77, 45
1, 13040, Note_on_c, 0, 77, 0
1, 13040, Note_on_c, 0, 79, 38
1, 13120, Note_on_c, 0, 79, 0
1, 13120, Note_on_c, 0, 81, 38
1, 13200, Note_on_c, 0, 81, 0
1, 13200, Note_on_c, 0, 77, 44
1, 13280, Note_on_c, 0, 77, 0
1, 13280, Note_on_c, 0, 79, 37
1, 13360, Tempo, 764331
1, 13360, Note_on_c, 0, 79, 0
1, 13360, Note_on_c, 0, 81, 37
1, 13440, Tempo, 681818
1, 13440, Note_on_c, 0, 81, 0
1, 13440, Note_on_c, 0, 74, 45
1, 13440, Note_on_c, 0, 70, 36
1, 13440, Note_on_c, 0, 65, 30
1, 13500, Note_on_c, 0, 65, 0
1, 13500, Note_on_c, 0, 70, 0
1, 13500, Note_on_c, 0, 74, 0
1, 13680, Note_on_c, 0, 74, 45
1, 13680, Note_on_c, 0, 70, 36
1, 13680, Note_on_c, 0, 65, 30
1, 13740, Note_on_c, 0, 65, 0
1, 13740, Note_on_c, 0, 70, 0
1, 13740, Note_on_c, 0, 74, 0
1, 13920, Tempo, 655738
1, 13920, Note_on_c, 0, 86, 53
1, 14000, Tempo, 666667
1, 14000, Note_on_c, 0, 86, 0
1, 14000, Note_on_c, 0, 84, 50
1, 14080, Note_on_c, 0, 84, 0
1, 14080, Note_on_c, 0, 82, 50
1, 14160, Note_on_c, 0, 82, 0
1, 14160, Note_on_c, 0, 81, 55
1, 14240, Note_on_c, 0, 81, 0
1, 14240, Note_on_c, 0, 79, 57
1, 14320, Note_on_c, 0, 79, 0
1, 14320, Note_on_c, 0, 77, 58
1, 14400, Note_on_c, 0, 77, 0
1, 14400, Note_on_c, 0, 76, 63
1, 14400, Note_on_c, 0, 60, 47
1, 14400, Note_on_c, 0, 55, 39
1, 14400, Note_on_c, 0, 52, 39
1, 14400, Note_on_c, 0, 48, 39
1, 14480, Note_on_c, 0, 76, 0
1, 14480, Note_on_c, 0, 79, 57
1, 14560, Note_on_c, 0, 79, 0
1, 14560, Note_on_c, 0, 77, 56
1, 14640, Note_on_c, 0, 77, 0
1, 14640, Note_on_c, 0, 76, 62
1, 14720, Note_on_c, 0, 76, 0
1, 14720, Note_on_c, 0, 74, 54
1, 14800, Note_on_c, 0, 74, 0
1, 14800, Note_on_c, 0, 72, 54
1, 14880, Note_on_c, 0, 72, 0
1, 14880, Note_on_c, 0, 70, 56
1, 14960, Note_on_c, 0, 70, 0
1, 14960, Note_on_c, 0, 69, 50
1, 15040, Note_on_c, 0, 69, 0
1, 15040, Note_on_c, 0, 67, 50
1, 15120, Note_on_c, 0, 67, 0
1, 15120, Note_on_c, 0, 74, 61
1, 15200, Note_on_c, 0, 74, 0
1, 15200, Note_on_c, 0, 72, 53
1, 15280, Note_on_c, 0, 72, 0
1, 15280, Note_on_c, 0, 70, 53
1, 15360, Tempo, 697674
1, 15360, Note_on_c, 0, 70, 0
1, 15360, Note_on_c, 0, 48, 0
1, 15360, Note_on_c, 0, 60, 0
1, 15360, Note_on_c, 0, 55, 0
1, 15360, Note_on_c, 0, 52, 0
1, 15360, Note_on_c, 0, 69, 63
1, 15360, Note_on_c, 0, 53, 41
1, 15420, Note_on_c, 0, 69, 0
1, 15440, Note_on_c, 0, 53, 0
1, 15440, Note_on_c, 0, 57, 31
1, 15520, Note_on_c, 0, 57, 0
1, 15520, Note_on_c, 0, 60, 28
1, 15600, Note_on_c, 0, 60, 0
1, 15600, Note_on_c, 0, 72, 57
1, 15600, Note_on_c, 0, 53, 37
1, 15660, Note_on_c, 0, 72, 0
1, 15680, Note_on_c, 0, 53, 0
1, 15680, Note_on_c, 0, 57, 34
1, 15760, Note_on_c, 0, 57, 0
1, 15760, Note_on_c, 0, 60, 29
1, 15840, Tempo, 666667
1, 15840, Note_on_c, 0, 60, 0
1, 15840, Note_on_c, 0, 53, 39
1, 15920, Note_on_c, 0, 53, 0
1, 15920, Note_on_c, 0, 57, 33
1, 16000, Note_on_c, 0, 57, 0
1, 16000, Note_on_c, 0, 60, 26
1, 16080, Note_on_c, 0, 60, 0
1, 16080, Note_on_c, 0, 84, 64
1, 16080, Note_on_c, 0, 53, 41
1, 16160, Note_on_c, 0, 53, 0
1, 16160, Note_on_c, 0, 57, 32
1, 16240, Note_on_c, 0, 57, 0
1, 16240, Note_on_c, 0, 60, 25
1, 16320, Tempo, 677966
1, 16320, Note_on_c, 0, 60, 0
1, 16320, Note_on_c, 0, 84, 0
1, 16320, Note_on_c, 0, 81, 69
1, 16320, Note_on_c, 0, 53, 41
1, 16400, Note_on_c, 0, 53, 0
1, 16400, Note_on_c, 0, 57, 31
1, 16480, Note_on_c, 0, 57, 0
1, 16480, Note_on_c, 0, 60, 27
1, 16560, Note_on_c, 0, 60, 0
1, 16560, Note_on_c, 0, 81, 0
1, 16560, Note_on_c, 0, 77, 63
1, 16560, Note_on_c, 0, 53, 38
1, 16640, Note_on_c, 0, 53, 0
1, 16640, Note_on_c, 0, 57, 35
1, 16720, Note_on_c, 0, 57, 0
1, 16720, Note_on_c, 0, 60, 29
1, 16800, Note_on_c, 0, 60, 0
1, 16800, Note_on_c, 0, 77, 0
1, 16800, Note_on_c, 0, 74, 68
1, 16800, Note_on_c, 0, 53, 39
1, 16880, Note_on_c, 0, 53, 0
1, 16880, Note_on_c, 0, 58, 30
1, 16960, Note_on_c, 0, 58, 0
1, 16960, Note_on_c, 0, 62, 24
1, 17040, Note_on_c, 0, 62, 0
1, 17040, Note_on_c, 0, 74, 0
1, 17040, Note_on_c, 0, 70, 54
1, 17040, Note_on_c, 0, 53, 37
1, 17120, Note_on_c, 0, 53, 0
1, 17120, Note_on_c, 0, 58, 32
1, 17200, Tempo, 779221
1, 17200, Note_on_c, 0, 58, 0
1, 17200, Note_on_c, 0, 62, 27
1, 17280, Tempo, 693642
1, 17280, Note_on_c, 0, 62, 0
1, 17280, Note_on_c, 0, 70, 0
1, 17280, Note_on_c, 0, 69, 58
1, 17280, Note_on_c, 0, 53, 41
1, 17360, Note_on_c, 0, 53, 0
1, 17360, Note_on_c, 0, 57, 31
1, 17440, Note_on_c, 0, 57, 0
1, 17440, Note_on_c, 0, 60, 25
1, 17520, Note_on_c, 0, 60, 0
1, 17520, Note_on_c, 0, 69, 0
1, 17520, Note_on_c, 0, 72, 50
1, 17520, Note_on_c, 0, 53, 35
1, 17600, Note_on_c, 0, 53, 0
1, 17600, Note_on_c, 0, 57, 27
1, 17680, Note_on_c, 0, 57, 0
1, 17680, Note_on_c, 0, 60, 21
1, 17760, Tempo, 670391
1, 17760, Note_on_c, 0, 60, 0
1, 17760, Note_on_c, 0, 72, 0
1, 17760, Note_on_c, 0, 53, 37
1, 17840, Note_on_c, 0, 53, 0
1, 17840, Note_on_c, 0, 57, 31
1, 17920, Note_on_c, 0, 57, 0
1, 17920, Note_on_c, 0, 60, 24
1, 18000, Note_on_c, 0, 60, 0
1, 18000, Note_on_c, 0, 84, 64
1, 18000, Note_on_c, 0, 53, 41
1, 18080, Note_on_c, 0, 53, 0
1, 18080, Note_on_c, 0, 57, 32
1, 18160, Note_on_c, 0, 57, 0
1, 18160, Note_on_c, 0, 60, 24
1, 18240, Note_on_c, 0, 60, 0
1, 18240, Note_on_c, 0, 84, 0
1, 18240, Note_on_c, 0, 81, 69
1, 18240, Note_on_c, 0, 53, 41
1, 18320, Note_on_c, 0, 53, 0
1, 18320, Note_on_c, 0, 57, 31
1, 18400, Note_on_c, 0, 57, 0
1, 18400, Note_on_c, 0, 60, 29
1, 18480, Note_on_c, 0, 60, 0
1, 18480, Note_on_c, 0, 81, 0
1, 18480, Note_on_c, 0, 77, 63
1, 18480, Note_on_c, 0, 53, 38
1, 18560, Note_on_c, 0, 53, 0
1, 18560, Note_on_c, 0, 57, 35
1, 18640, Note_on_c, 0, 57, 0
1, 18640, Note_on_c, 0, 60, 30
1, 18720, Note_on_c, 0, 60, 0
1, 18720, Note_on_c, 0, 77, 0
1, 18720, Note_on_c, 0, 76, 68
1, 18720, Note_on_c, 0, 55, 39
1, 18800, Note_on_c, 0, 55, 0
1, 18800, Note_on_c, 0, 58, 30
1, 18880, Tempo, 705882
1, 18880, Note_on_c, 0, 58, 0
1, 18880, Note_on_c, 0, 64, 26
1, 18960, Tempo, 685714
1, 18960, Note_on_c, 0, 64, 0
1, 18960, Note_on_c, 0, 76, 0
1, 18960, Note_on_c, 0, 86, 69
1, 18960, Note_on_c, 0, 55, 37
1, 19040, Note_on_c, 0, 55, 0
1, 19040, Note_on_c, 0, 58, 32
1, 19120, Note_on_c, 0, 58, 0
1, 19120, Note_on_c, 0, 64, 23
1, 19200, Tempo, 693642
1, 19200, Note_on_c, 0, 64, 0
1, 19200, Note_on_c, 0, 86, 0
1, 19200, Note_on_c, 0, 84, 64
1, 19200, Note_on_c, 0, 57, 41
1, 19260, Note_on_c, 0, 84, 0
1, 19280, Note_on_c, 0, 57, 0
1, 19280, Note_on_c, 0, 60, 31
1, 19360, Tempo, 666667
1, 19360, Note_on_c, 0, 60, 0
1, 19360, Note_on_c, 0, 65, 27
1, 19440, Note_on_c, 0, 65, 0
1, 19440, Note_on_c, 0, 84, 53
1, 19520, Note_on_c, 0, 84, 0
1, 19520, Note_on_c, 0, 82, 49
1, 19600, Note_on_c, 0, 82, 0
1, 19600, Note_on_c, 0, 81, 49
1, 19680, Note_on_c, 0, 81, 0
1, 19680, Note_on_c, 0, 79, 58
1, 19680, Note_on_c, 0, 58, 41
1, 19740, Note_on_c, 0, 79, 0
1, 19760, Note_on_c, 0, 58, 0
1, 19760, Note_on_c, 0, 62, 31
1, 19840, Note_on_c, 0, 62, 0
1, 19840, Note_on_c, 0, 67, 26
1, 19920, Note_on_c, 0, 67, 0
1, 19920, Note_on_c, 0, 82, 53
1, 20000, Note_on_c, 0, 82, 0
1, 20000, Note_on_c, 0, 81, 49
1, 20080, Note_on_c, 0, 81, 0
1, 20080, Note_on_c, 0, 79, 49
1, 20160, Note_on_c, 0, 79, 0
1, 20160, Note_on_c, 0, 77, 54
1, 20160, Note_on_c, 0, 60, 41
1, 20220, Note_on_c, 0, 77, 0
1, 20240, Note_on_c, 0, 60, 0
1, 20240, Note_on_c, 0, 65, 31
1, 20320, Note_on_c, 0, 65, 0
1, 20320, Note_on_c, 0, 69, 27
1, 20400, Note_on_c, 0, 69, 0
1, 20400, Note_on_c, 0, 77, 50
1, 20400, Note_on_c, 0, 60, 33
1, 20480, Note_on_c, 0, 60, 0
1, 20480, Note_on_c, 0, 65, 29
1, 20520, Note_on_c, 0, 77, 0
1, 20520, Note_on_c, 0, 79, 42
1, 20560, Note_on_c, 0, 79, 0
1, 20560, Note_on_c, 0, 65, 0
1, 20560, Note_on_c, 0, 77, 41
1, 20560, Note_on_c, 0, 69, 24
1, 20600, Note_on_c, 0, 77, 0
1, 20600, Note_on_c, 0, 76, 37
1, 20640, Note_on_c, 0, 76, 0
1, 20640, Note_on_c, 0, 69, 0
1, 20640, Note_on_c, 0, 81, 54
1, 20640, Note_on_c, 0, 60, 34
1, 20720, Note_on_c, 0, 60, 0
1, 20720, Note_on_c, 0, 65, 29
1, 20800, Note_on_c, 0, 65, 0
1, 20800, Note_on_c, 0, 69, 25
1, 20880, Note_on_c, 0, 69, 0
1, 20880, Note_on_c, 0, 81, 0
1, 20880, Note_on_c, 0, 79, 43
1, 20880, Note_on_c, 0, 60, 31
1, 20959, Note_on_c, 0, 64, 26
1, 20960, Note_on_c, 0, 60, 0
1, 21039, Note_on_c, 0, 64, 0
1, 21040, Tempo, 740741
1, 21041, Note_on_c, 0, 70, 22
1, 21120, Tempo, 662983
1, 21120, Note_on_c, 0, 79, 0
1, 21120, Note_on_c, 0, 65, 36
1, 21121, Note_on_c, 0, 70, 0
1, 21200, Note_on_c, 0, 65, 0
1, 21200, Note_on_c, 0, 69, 26
1, 21280, Note_on_c, 0, 69, 0
1, 21280, Note_on_c, 0, 72, 26
1, 21360, Note_on_c, 0, 72, 0
1, 21360, Note_on_c, 0, 77, 50
1, 21360, Note_on_c, 0, 65, 33
1, 21440, Note_on_c, 0, 65, 0
1, 21440, Note_on_c, 0, 69, 27
1, 21480, Note_on_c, 0, 77, 0
1, 21480, Note_on_c, 0, 79, 42
1, 21520, Note_on_c, 0, 79, 0
1, 21520, Note_on_c, 0, 69, 0
1, 21520, Note_on_c, 0, 77, 41
1, 21520, Note_on_c, 0, 72, 27
1, 21560, Note_on_c, 0, 77, 0
1, 21560, Note_on_c, 0, 76, 37
1, 21600, Note_on_c, 0, 76, 0
1, 21600, Note_on_c, 0, 72, 0
1, 21600, Note_on_c, 0, 65, 41
1, 21680, Note_on_c, 0, 65, 0
1, 21680, Note_on_c, 0, 70, 29
1, 21760, Note_on_c, 0, 70, 0
1, 21760, Note_on_c, 0, 74, 24
1, 21840, Note_on_c, 0, 74, 0
1, 21840, Note_on_c, 0, 77, 50
1, 21840, Note_on_c, 0, 65, 33
1, 21920, Note_on_c, 0, 65, 0
1, 21920, Note_on_c, 0, 70, 27
1, 21960, Note_on_c, 0, 77, 0
1, 21960, Note_on_c, 0, 79, 42
1, 22000, Note_on_c, 0, 79, 0
1, 22000, Note_on_c, 0, 70, 0
1, 22000, Note_on_c, 0, 77, 41
1, 22000, Note_on_c, 0, 74, 25
1, 22040, Note_on_c, 0, 77, 0
1, 22040, Note_on_c, 0, 76, 37
1, 22080, Tempo, 659341
1, 22080, Note_on_c, 0, 76, 0
1, 22080, Note_on_c, 0, 74, 0
1, 22080, Note_on_c, 0, 65, 41
1, 22160, Note_on_c, 0, 65, 0
1, 22160, Note_on_c, 0, 69, 29
1, 22240, Tempo, 705882
1, 22240, Note_on_c, 0, 69, 0
1, 22240, Note_on_c, 0, 72, 25
1, 22320, Tempo, 662983
1, 22320, Note_on_c, 0, 72, 0
1, 22320, Note_on_c, 0, 81, 53
1, 22400, Note_on_c, 0, 81, 0
1, 22400, Note_on_c, 0, 79, 54
1, 22480, Note_on_c, 0, 79, 0
1, 22480, Note_on_c, 0, 77, 55
1, 22560, Note_on_c, 0, 77, 0
1, 22560, Note_on_c, 0, 76, 57
1, 22640, Note_on_c, 0, 76, 0
1, 22640, Note_on_c, 0, 74, 58
1, 22720, Note_on_c, 0, 74, 0
1, 22720, Note_on_c, 0, 72, 60
1, 22800, Note_on_c, 0, 72, 0
1, 22800, Note_on_c, 0, 70, 61
1, 22800, Note_on_c, 0, 48, 41
1, 22800, Note_on_c, 0, 60, 49
1, 22880, Note_on_c, 0, 70, 0
1, 22880, Note_on_c, 0, 69, 62
1, 22960, Note_on_c, 0, 69, 0
1, 22960, Note_on_c, 0, 67, 64
1, 23040, Note_on_c, 0, 67, 0
1, 23040, Note_on_c, 0, 60, 0
1, 23040, Note_on_c, 0, 48, 0
1, 23040, Note_on_c, 0, 65, 70
1, 23040, Note_on_c, 0, 53, 57
1, 23100, Note_on_c, 0, 65, 0
1, 23120, Note_on_c, 0, 53, 0
1, 23120, Note_on_c, 0, 57, 40
1, 23200, Note_on_c, 0, 57, 0
1, 23200, Note_on_c, 0, 60, 32
1, 23280, Note_on_c, 0, 60, 0
1, 23280, Note_on_c, 0, 65, 70
1, 23280, Note_on_c, 0, 53, 46
1, 23360, Note_on_c, 0, 53, 0
1, 23360, Note_on_c, 0, 57, 37
1, 23400, Note_on_c, 0, 65, 0
1, 23400, Note_on_c, 0, 67, 58
1, 23440, Note_on_c, 0, 67, 0
1, 23440, Note_on_c, 0, 57, 0
1, 23440, Note_on_c, 0, 65, 57
1, 23440, Note_on_c, 0, 60, 32
1, 23480, Note_on_c, 0, 65, 0
1, 23480, Note_on_c, 0, 64, 51
1, 23520, Note_on_c, 0, 64, 0
1, 23520, Note_on_c, 0, 60, 0
1, 23520, Note_on_c, 0, 53, 57
1, 23600, Note_on_c, 0, 53, 0
1, 23600, Note_on_c, 0, 58, 40
1, 23680, Note_on_c, 0, 58, 0
1, 23680, Note_on_c, 0, 62, 33
1, 23760, Note_on_c, 0, 62, 0
1, 23760, Note_on_c, 0, 65, 70
1, 23760, Note_on_c, 0, 53, 46
1, 23840, Note_on_c, 0, 53, 0
1, 23840, Note_on_c, 0, 58, 37
1, 23880, Note_on_c, 0, 65, 0
1, 23880, Note_on_c, 0, 67, 58
1, 23920, Note_on_c, 0, 67, 0
1, 23920, Note_on_c, 0, 58, 0
1, 23920, Note_on_c, 0, 65, 57
1, 23920, Note_on_c, 0, 62, 32
1, 23960, Note_on_c, 0, 65, 0
1, 23960, Note_on_c, 0, 64, 51
1, 24000, Tempo, 697674
1, 24000, Note_on_c, 0, 64, 0
1, 24000, Note_on_c, 0, 62, 0
1, 24000, Note_on_c, 0, 53, 57
1, 24080, Note_on_c, 0, 53, 0
1, 24080, Note_on_c, 0, 57, 40
1, 24160, Note_on_c, 0, 57, 0
1, 24160, Note_on_c, 0, 60, 33
1, 24240, Tempo, 662983
1, 24240, Note_on_c, 0, 60, 0
1, 24240, Note_on_c, 0, 69, 67
1, 24320, Note_on_c, 0, 69, 0
1, 24320, Note_on_c, 0, 67, 63
1, 24400, Note_on_c, 0, 67, 0
1, 24400, Note_on_c, 0, 65, 63
1, 24480, Note_on_c, 0, 65, 0
1, 24480, Note_on_c, 0, 64, 67
1, 24480, Note_on_c, 0, 48, 68
1, 24480, Note_on_c, 0, 36, 57
1, 24517, Tempo, 662983
1, 24560, Note_on_c, 0, 64, 0
1, 24560, Note_on_c, 0, 62, 63
1, 24594, Tempo, 666667
1, 24640, Note_on_c, 0, 62, 0
1, 24640, Note_on_c, 0, 60, 64
1, 24652, Tempo, 670391
1, 24709, Tempo, 674157
1, 24720, Note_on_c, 0, 60, 0
1, 24720, Note_on_c, 0, 58, 67
1, 24786, Tempo, 677966
1, 24800, Note_on_c, 0, 58, 0
1, 24800, Note_on_c, 0, 57, 68
1, 24844, Tempo, 681818
1, 24880, Note_on_c, 0, 57, 0
1, 24880, Note_on_c, 0, 55, 68
1, 24901, Tempo, 685714
1, 24959, Tempo, 689655
1, 24960, Tempo, 674157
1, 24960, Note_on_c, 0, 55, 0
1, 24960, Note_on_c, 0, 36, 0
1, 24960, Note_on_c, 0, 48, 0
1, 24960, Note_on_c, 0, 53, 76
1, 24960, Note_on_c, 0, 41, 63
1, 25040, Note_on_c, 0, 41, 0
1, 25040, Note_on_c, 0, 45, 53
1, 25080, Note_on_c, 0, 53, 0
1, 25120, Note_on_c, 0, 45, 0
1, 25120, Note_on_c, 0, 48, 46
1, 25200, Note_on_c, 0, 48, 0
1, 25200, Note_on_c, 0, 41, 63
1, 25280, Note_on_c, 0, 41, 0
1, 25280, Note_on_c, 0, 45, 53
1, 25360, Note_on_c, 0, 45, 0
1, 25360, Note_on_c, 0, 48, 48
1, 25440, Tempo, 697674
1, 25440, Note_on_c, 0, 48, 0
1, 25440, Note_on_c, 0, 60, 60
1, 25440, Note_on_c, 0, 65, 76
1, 25440, Note_on_c, 0, 57, 60
1, 25440, Note_on_c, 0, 41, 63
1, 25458, Tempo, 697674
1, 25497, Tempo, 701754
1, 25516, Tempo, 705882
1, 25520, Note_on_c, 0, 41, 0
1, 25520, Note_on_c, 0, 45, 53
1, 25535, Tempo, 710059
1, 25554, Tempo, 714286
1, 25560, Note_on_c, 0, 60, 0
1, 25560, Note_on_c, 0, 57, 0
1, 25560, Note_on_c, 0, 65, 0
1, 25573, Tempo, 718563
1, 25593, Tempo, 722892
1, 25600, Note_on_c, 0, 45, 0
1, 25600, Note_on_c, 0, 48, 46
1, 25612, Tempo, 727273
1, 25650, Tempo, 731707
1, 25669, Tempo, 736196
1, 25680, Note_on_c, 0, 48, 0
1, 25680, Note_on_c, 0, 41, 63
1, 25689, Tempo, 740741
1, 25708, Tempo, 745342
1, 25727, Tempo, 750000
1, 25746, Tempo, 754717
1, 25760, Note_on_c, 0, 41, 0
1, 25760, Note_on_c, 0, 45, 53
1, 25765, Tempo, 759494
1, 25840, Tempo, 916031
1, 25840, Note_on_c, 0, 45, 0
1, 25840, Note_on_c, 0, 48, 47
1, 25919, Tempo, 794702
1, 25920, Note_on_c, 0, 48, 0
1, 25920, Note_on_c, 0, 57, 60
1, 25920, Note_on_c, 0, 60, 60
1, 25920, Note_on_c, 0, 65, 76
1, 25920, Note_on_c, 0, 41, 63
1, 26160, Tempo, 875912
1, 26280, Note_on_c, 0, 41, 0
1, 26280, Note_on_c, 0, 57, 0
1, 26280, Note_on_c, 0, 60, 0
1, 26280, Note_on_c, 0, 65, 0
1, 26400, Tempo, 662983
1, 26400, Marker_t, "Teil 2"
1, 26400, Note_on_c, 0, 81, 45
1, 26480, Note_on_c, 0, 81, 0
1, 26480, Note_on_c, 0, 79, 38
1, 26560, Note_on_c, 0, 79, 0
1, 26560, Note_on_c, 0, 77, 38
1, 26640, Note_on_c, 0, 77, 0
1, 26640, Note_on_c, 0, 81, 44
1, 26720, Note_on_c, 0, 81, 0
1, 26720, Note_on_c, 0, 79, 37
1, 26800, Tempo, 750000
1, 26800, Note_on_c, 0, 79, 0
1, 26800, Note_on_c, 0, 77, 37
1, 26880, Tempo, 674157
1, 26880, Note_on_c, 0, 77, 0
1, 26880, Note_on_c, 0, 84, 48
1, 26880, Note_on_c, 0, 65, 28
1, 26960, Note_on_c, 0, 65, 0
1, 26960, Note_on_c, 0, 69, 21
1, 27040, Note_on_c, 0, 69, 0
1, 27040, Note_on_c, 0, 72, 18
1, 27120, Note_on_c, 0, 72, 0
1, 27120, Note_on_c, 0, 84, 0
1, 27120, Note_on_c, 0, 84, 44
1, 27120, Note_on_c, 0, 65, 26
1, 27200, Note_on_c, 0, 65, 0
1, 27200, Note_on_c, 0, 69, 24
1, 27280, Tempo, 718563
1, 27280, Note_on_c, 0, 69, 0
1, 27280, Note_on_c, 0, 72, 20
1, 27360, Tempo, 674157
1, 27360, Note_on_c, 0, 72, 0
1, 27360, Note_on_c, 0, 84, 0
1, 27360, Note_on_c, 0, 81, 47
1, 27360, Note_on_c, 0, 65, 27
1, 27440, Note_on_c, 0, 65, 0
1, 27440, Note_on_c, 0, 69, 21
1, 27520, Note_on_c, 0, 69, 0
1, 27520, Note_on_c, 0, 72, 19
1, 27600, Note_on_c, 0, 72, 0
1, 27600, Note_on_c, 0, 81, 0
1, 27600, Note_on_c, 0, 77, 37
1, 27600, Note_on_c, 0, 65, 25
1, 27680, Note_on_c, 0, 65, 0
1, 27680, Note_on_c, 0, 69, 22
1, 27760, Tempo, 759494
1, 27760, Note_on_c, 0, 69, 0
1, 27760, Note_on_c, 0, 72, 21
1, 27840, Tempo, 689655
1, 27840, Note_on_c, 0, 72, 0
1, 27840, Note_on_c, 0, 77, 0
1, 27840, Note_on_c, 0, 78, 54
1, 27840, Note_on_c, 0, 64, 28
1, 27920, Note_on_c, 0, 64, 0
1, 27920, Note_on_c, 0, 67, 21
1, 28000, Note_on_c, 0, 67, 0
1, 28000, Note_on_c, 0, 72, 17
1, 28080, Note_on_c, 0, 72, 0
1, 28080, Note_on_c, 0, 78, 0
1, 28080, Note_on_c, 0, 79, 48
1, 28080, Note_on_c, 0, 64, 24
1, 28160, Note_on_c, 0, 64, 0
1, 28160, Note_on_c, 0, 67, 18
1, 28240, Note_on_c, 0, 67, 0
1, 28240, Note_on_c, 0, 72, 18
1, 28320, Tempo, 662983
1, 28320, Note_on_c, 0, 72, 0
1, 28320, Note_on_c, 0, 79, 0
1, 28320, Note_on_c, 0, 88, 53
1, 28320, Note_on_c, 0, 64, 28
1, 28400, Note_on_c, 0, 64, 0
1, 28400, Note_on_c, 0, 88, 0
1, 28400, Note_on_c, 0, 86, 41
1, 28400, Note_on_c, 0, 67, 21
1, 28480, Note_on_c, 0, 67, 0
1, 28480, Note_on_c, 0, 86, 0
1, 28480, Note_on_c, 0, 84, 38
1, 28480, Note_on_c, 0, 72, 21
1, 28560, Note_on_c, 0, 72, 0
1, 28560, Note_on_c, 0, 84, 0
1, 28560, Note_on_c, 0, 83, 49
1, 28560, Note_on_c, 0, 64, 24
1, 28640, Note_on_c, 0, 64, 0
1, 28640, Note_on_c, 0, 83, 0
1, 28640, Note_on_c, 0, 81, 37
1, 28640, Note_on_c, 0, 67, 18
1, 28720, Tempo, 750000
1, 28720, Note_on_c, 0, 67, 0
1, 28720, Note_on_c, 0, 81, 0
1, 28720, Note_on_c, 0, 79, 37
1, 28720, Note_on_c, 0, 72, 18
1, 28790, Note_on_c, 0, 79, 0
1, 28800, Tempo, 674157
1, 28800, Note_on_c, 0, 72, 0
1, 28800, Note_on_c, 0, 79, 54
1, 28800, Note_on_c, 0, 62, 28
1, 28880, Note_on_c, 0, 62, 0
1, 28880, Note_on_c, 0, 67, 21
1, 28960, Note_on_c, 0, 67, 0
1, 28960, Note_on_c, 0, 71, 20
1, 29040, Note_on_c, 0, 71, 0
1, 29040, Note_on_c, 0, 62, 26
1, 29120, Note_on_c, 0, 62, 0
1, 29120, Note_on_c, 0, 67, 24
1, 29160, Note_on_c, 0, 79, 0
1, 29160, Note_on_c, 0, 76, 39
1, 29200, Tempo, 718563
1, 29200, Note_on_c, 0, 67, 0
1, 29200, Note_on_c, 0, 71, 21
1, 29220, Note_on_c, 0, 76, 0
1, 29220, Note_on_c, 0, 77, 38
1, 29271, Tempo, 701754
1, 29280, Note_on_c, 0, 77, 0
1, 29280, Note_on_c, 0, 71, 0
1, 29280, Note_on_c, 0, 77, 47
1, 29280, Note_on_c, 0, 62, 27
1, 29290, Tempo, 697674
1, 29299, Tempo, 693642
1, 29309, Tempo, 689655
1, 29309, Control_c, 0, 64, 127
1, 29319, Tempo, 685714
1, 29320, Note_on_c, 0, 77, 0
1, 29320, Note_on_c, 0, 79, 37
1, 29328, Tempo, 681818
1, 29338, Tempo, 677966
1, 29347, Tempo, 674157
1, 29357, Tempo, 670391
1, 29360, Note_on_c, 0, 79, 0
1, 29360, Note_on_c, 0, 62, 0
1, 29360, Note_on_c, 0, 67, 21
1, 29361, Note_on_c, 0, 77, 43
1, 29367, Tempo, 666667
1, 29376, Tempo, 662983
1, 29386, Tempo, 659341
1, 29395, Tempo, 655738
1, 29401, Note_on_c, 0, 77, 0
1, 29401, Note_on_c, 0, 79, 37
1, 29405, Tempo, 652174
1, 29415, Tempo, 648649
1, 29440, Note_on_c, 0, 67, 0
1, 29440, Note_on_c, 0, 71, 20
1, 29441, Note_on_c, 0, 79, 0
1, 29441, Note_on_c, 0, 77, 45
1, 29481, Note_on_c, 0, 77, 0
1, 29481, Note_on_c, 0, 79, 34
1, 29501, Tempo, 652174
1, 29520, Note_on_c, 0, 71, 0
1, 29520, Note_on_c, 0, 62, 25
1, 29521, Note_on_c, 0, 79, 0
1, 29521, Note_on_c, 0, 77, 43
1, 29561, Note_on_c, 0, 77, 0
1, 29562, Note_on_c, 0, 79, 40
1, 29587, Tempo, 655738
1, 29597, Tempo, 659341
1, 29600, Note_on_c, 0, 62, 0
1, 29600, Note_on_c, 0, 67, 22
1, 29602, Note_on_c, 0, 79, 0
1, 29602, Note_on_c, 0, 77, 45
1, 29607, Tempo, 662983
1, 29616, Tempo, 666667
1, 29626, Tempo, 670391
1, 29635, Tempo, 674157
1, 29640, Note_on_c, 0, 77, 0
1, 29640, Note_on_c, 0, 76, 44
1, 29645, Tempo, 681818
1, 29655, Tempo, 685714
1, 29664, Tempo, 689655
1, 29674, Tempo, 693642
1, 29680, Note_on_c, 0, 67, 0
1, 29680, Note_on_c, 0, 71, 21
1, 29683, Tempo, 697674
1, 29693, Tempo, 701754
1, 29700, Note_on_c, 0, 76, 0
1, 29700, Note_on_c, 0, 77, 44
1, 29703, Tempo, 710059
1, 29760, Tempo, 662983
1, 29760, Note_on_c, 0, 77, 0
1, 29760, Note_on_c, 0, 71, 0
1, 29760, Note_on_c, 0, 76, 45
1, 29760, Note_on_c, 0, 60, 37
1, 29760, Control_c, 0, 64, 0
1, 29840, Note_on_c, 0, 76, 0
1, 29840, Note_on_c, 0, 79, 50
1, 29880, Note_on_c, 0, 60, 0
1, 29920, Note_on_c, 0, 79, 0
1, 29920, Note_on_c, 0, 77, 42
1, 30000, Note_on_c, 0, 77, 0
1, 30000, Note_on_c, 0, 76, 44
1, 30080, Note_on_c, 0, 76, 0
1, 30080, Note_on_c, 0, 74, 42
1, 30160, Tempo, 774194
1, 30160, Note_on_c, 0, 74, 0
1, 30160, Note_on_c, 0, 72, 40
1, 30240, Tempo, 662983
1, 30240, Note_on_c, 0, 72, 0
1, 30240, Note_on_c, 0, 77, 45
1, 30240, Note_on_c, 0, 59, 30
1, 30248, Tempo, 648649
1, 30320, Note_on_c, 0, 77, 0
1, 30320, Note_on_c, 0, 81, 55
1, 30332, Tempo, 652174
1, 30360, Note_on_c, 0, 59, 0
1, 30400, Note_on_c, 0, 81, 0
1, 30400, Note_on_c, 0, 79, 51
1, 30404, Tempo, 655738
1, 30480, Note_on_c, 0, 79, 0
1, 30480, Note_on_c, 0, 77, 53
1, 30480, Note_on_c, 0, 59, 33
1, 30488, Tempo, 659341
1, 30560, Tempo, 662983
1, 30560, Note_on_c, 0, 77, 0
1, 30560, Note_on_c, 0, 76, 46
1, 30600, Note_on_c, 0, 59, 0
1, 30640, Note_on_c, 0, 76, 0
1, 30640, Note_on_c, 0, 74, 46
1, 30644, Tempo, 666667
1, 30716, Tempo, 670391
1, 30720, Tempo, 662983
1, 30720, Note_on_c, 0, 74, 0
1, 30720, Note_on_c, 0, 76, 53
1, 30720, Note_on_c, 0, 60, 43
1, 30800, Note_on_c, 0, 76, 0
1, 30800, Note_on_c, 0, 79, 58
1, 30840, Note_on_c, 0, 60, 0
1, 30880, Note_on_c, 0, 79, 0
1, 30880, Note_on_c, 0, 77, 49
1, 30960, Note_on_c, 0, 77, 0
1, 30960, Note_on_c, 0, 76, 52
1, 31040, Note_on_c, 0, 76, 0
1, 31040, Note_on_c, 0, 74, 49
1, 31120, Tempo, 789474
1, 31120, Note_on_c, 0, 74, 0
1, 31120, Note_on_c, 0, 72, 47
1, 31200, Tempo, 662983
1, 31200, Note_on_c, 0, 72, 0
1, 31200, Note_on_c, 0, 77, 53
1, 31200, Note_on_c, 0, 59, 35
1, 31208, Tempo, 652174
1, 31280, Note_on_c, 0, 77, 0
1, 31280, Note_on_c, 0, 81, 59
1, 31292, Tempo, 655738
1, 31320, Note_on_c, 0, 59, 0
1, 31360, Note_on_c, 0, 81, 0
1, 31360, Note_on_c, 0, 79, 59
1, 31364, Tempo, 659341
1, 31440, Note_on_c, 0, 79, 0
1, 31440, Note_on_c, 0, 77, 61
1, 31440, Note_on_c, 0, 59, 39
1, 31448, Tempo, 662983
1, 31520, Tempo, 666667
1, 31520, Note_on_c, 0, 77, 0
1, 31520, Note_on_c, 0, 76, 53
1, 31560, Note_on_c, 0, 59, 0
1, 31600, Note_on_c, 0, 76, 0
1, 31600, Note_on_c, 0, 74, 53
1, 31604, Tempo, 670391
1, 31676, Tempo, 674157
1, 31680, Tempo, 662983
1, 31680, Note_on_c, 0, 74, 0
1, 31680, Note_on_c, 0, 76, 61
1, 31680, Note_on_c, 0, 60, 50
1, 31688, Tempo, 659341
1, 31760, Note_on_c, 0, 76, 0
1, 31760, Note_on_c, 0, 79, 65
1, 31800, Note_on_c, 0, 60, 0
1, 31840, Note_on_c, 0, 79, 0
1, 31840, Note_on_c, 0, 77, 56
1, 31920, Note_on_c, 0, 77, 0
1, 31920, Note_on_c, 0, 76, 60
1, 32000, Note_on_c, 0, 76, 0
1, 32000, Note_on_c, 0, 74, 56
1, 32080, Tempo, 810811
1, 32080, Note_on_c, 0, 74, 0
1, 32080, Note_on_c, 0, 72, 54
1, 32160, Tempo, 659341
1, 32160, Note_on_c, 0, 72, 0
1, 32160, Note_on_c, 0, 82, 63
1, 32160, Note_on_c, 0, 52, 46
1, 32160, Note_on_c, 0, 60, 53
1, 32240, Note_on_c, 0, 82, 0
1, 32240, Note_on_c, 0, 86, 75
1, 32280, Note_on_c, 0, 60, 0
1, 32280, Note_on_c, 0, 52, 0
1, 32320, Note_on_c, 0, 86, 0
1, 32320, Note_on_c, 0, 84, 69
1, 32400, Note_on_c, 0, 84, 0
1, 32400, Note_on_c, 0, 82, 70
1, 32400, Note_on_c, 0, 52, 47
1, 32400, Note_on_c, 0, 60, 54
1, 32480, Note_on_c, 0, 82, 0
1, 32480, Note_on_c, 0, 81, 60
1, 32520, Note_on_c, 0, 60, 0
1, 32520, Note_on_c, 0, 52, 0
1, 32560, Tempo, 731707
1, 32560, Note_on_c, 0, 81, 0
1, 32560, Note_on_c, 0, 79, 60
1, 32640, Tempo, 701754
1, 32640, Note_on_c, 0, 79, 0
1, 32640, Note_on_c, 0, 81, 63
1, 32640, Note_on_c, 0, 53, 46
1, 32640, Note_on_c, 0, 60, 53
1, 32720, Tempo, 652174
1, 32720, Note_on_c, 0, 81, 0
1, 32720, Note_on_c, 0, 83, 70
1, 32760, Note_on_c, 0, 60, 0
1, 32760, Note_on_c, 0, 53, 0
1, 32800, Note_on_c, 0, 83, 0
1, 32800, Note_on_c, 0, 84, 69
1, 32880, Note_on_c, 0, 84, 0
1, 32880, Note_on_c, 0, 83, 62
1, 32960, Note_on_c, 0, 83, 0
1, 32960, Note_on_c, 0, 81, 60
1, 33040, Note_on_c, 0, 81, 0
1, 33040, Note_on_c, 0, 79, 60
1, 33120, Tempo, 659341
1, 33120, Note_on_c, 0, 79, 0
1, 33120, Note_on_c, 0, 77, 66
1, 33120, Note_on_c, 0, 53, 44
1, 33128, Tempo, 645161
1, 33200, Tempo, 648649
1, 33200, Note_on_c, 0, 77, 0
1, 33200, Note_on_c, 0, 76, 64
1, 33240, Note_on_c, 0, 53, 0
1, 33260, Tempo, 652174
1, 33280, Note_on_c, 0, 76, 0
1, 33280, Note_on_c, 0, 74, 61
1, 33332, Tempo, 655738
1, 33360, Note_on_c, 0, 74, 0
1, 33360, Note_on_c, 0, 72, 61
1, 33360, Note_on_c, 0, 54, 37
1, 33392, Tempo, 659341
1, 33440, Note_on_c, 0, 72, 0
1, 33440, Note_on_c, 0, 71, 53
1, 33464, Tempo, 662983
1, 33480, Note_on_c, 0, 54, 0
1, 33520, Note_on_c, 0, 71, 0
1, 33520, Note_on_c, 0, 69, 48
1, 33524, Tempo, 666667
1, 33584, Tempo, 655738
1, 33600, Tempo, 674157
1, 33600, Note_on_c, 0, 69, 0
1, 33600, Note_on_c, 0, 67, 58
1, 33600, Note_on_c, 0, 55, 28
1, 33680, Note_on_c, 0, 55, 0
1, 33680, Note_on_c, 0, 60, 21
1, 33760, Note_on_c, 0, 60, 0
1, 33760, Note_on_c, 0, 64, 21
1, 33840, Note_on_c, 0, 64, 0
1, 33840, Note_on_c, 0, 55, 26
1, 33920, Note_on_c, 0, 55, 0
1, 33920, Note_on_c, 0, 60, 24
1, 33960, Note_on_c, 0, 67, 0
1, 33960, Note_on_c, 0, 72, 39
1, 34000, Tempo, 718563
1, 34000, Note_on_c, 0, 60, 0
1, 34000, Note_on_c, 0, 64, 21
1, 34020, Note_on_c, 0, 72, 0
1, 34020, Note_on_c, 0, 74, 38
1, 34071, Tempo, 701754
1, 34080, Note_on_c, 0, 74, 0
1, 34080, Note_on_c, 0, 64, 0
1, 34080, Note_on_c, 0, 74, 47
1, 34080, Note_on_c, 0, 55, 27
1, 34090, Tempo, 697674
1, 34099, Tempo, 693642
1, 34106, Control_c, 0, 64, 127
1, 34109, Tempo, 689655
1, 34119, Tempo, 685714
1, 34120, Note_on_c, 0, 74, 0
1, 34120, Note_on_c, 0, 76, 37
1, 34128, Tempo, 681818
1, 34138, Tempo, 677966
1, 34147, Tempo, 674157
1, 34157, Tempo, 670391
1, 34160, Note_on_c, 0, 76, 0
1, 34160, Note_on_c, 0, 55, 0
1, 34160, Note_on_c, 0, 59, 21
1, 34161, Note_on_c, 0, 74, 43
1, 34167, Tempo, 666667
1, 34176, Tempo, 662983
1, 34186, Tempo, 659341
1, 34195, Tempo, 655738
1, 34201, Note_on_c, 0, 74, 0
1, 34201, Note_on_c, 0, 76, 37
1, 34205, Tempo, 652174
1, 34215, Tempo, 648649
1, 34240, Note_on_c, 0, 59, 0
1, 34240, Note_on_c, 0, 62, 21
1, 34241, Note_on_c, 0, 76, 0
1, 34241, Note_on_c, 0, 74, 45
1, 34281, Note_on_c, 0, 74, 0
1, 34281, Note_on_c, 0, 76, 34
1, 34301, Tempo, 652174
1, 34320, Note_on_c, 0, 62, 0
1, 34320, Note_on_c, 0, 55, 25
1, 34321, Note_on_c, 0, 76, 0
1, 34321, Note_on_c, 0, 74, 43
1, 34361, Note_on_c, 0, 74, 0
1, 34362, Note_on_c, 0, 76, 40
1, 34387, Tempo, 655738
1, 34397, Tempo, 659341
1, 34400, Note_on_c, 0, 55, 0
1, 34400, Note_on_c, 0, 59, 22
1, 34402, Note_on_c, 0, 76, 0
1, 34402, Note_on_c, 0, 74, 45
1, 34407, Tempo, 662983
1, 34416, Tempo, 666667
1, 34426, Tempo, 670391
1, 34435, Tempo, 674157
1, 34440, Note_on_c, 0, 74, 0
1, 34440, Note_on_c, 0, 72, 44
1, 34445, Tempo, 681818
1, 34455, Tempo, 685714
1, 34464, Tempo, 689655
1, 34474, Tempo, 693642
1, 34480, Note_on_c, 0, 59, 0
1, 34480, Note_on_c, 0, 62, 21
1, 34483, Tempo, 697674
1, 34493, Tempo, 701754
1, 34500, Note_on_c, 0, 72, 0
1, 34500, Note_on_c, 0, 74, 44
1, 34503, Tempo, 710059
1, 34560, Tempo, 662983
1, 34560, Note_on_c, 0, 74, 0
1, 34560, Note_on_c, 0, 62, 0
1, 34560, Note_on_c, 0, 76, 51
1, 34560, Note_on_c, 0, 60, 42
1, 34566, Control_c, 0, 64, 0
1, 34640, Note_on_c, 0, 76, 0
1, 34640, Note_on_c, 0, 77, 43
1, 34680, Note_on_c, 0, 60, 0
1, 34720, Note_on_c, 0, 77, 0
1, 34720, Note_on_c, 0, 79, 42
1, 34800, Note_on_c, 0, 79, 0
1, 34800, Note_on_c, 0, 72, 47
1, 34880, Note_on_c, 0, 72, 0
1, 34880, Note_on_c, 0, 74, 42
1, 34960, Tempo, 745342
1, 34960, Note_on_c, 0, 74, 0
1, 34960, Note_on_c, 0, 76, 40
1, 35040, Tempo, 666667
1, 35040, Note_on_c, 0, 76, 0
1, 35040, Note_on_c, 0, 77, 51
1, 35040, Note_on_c, 0, 59, 36
1, 35120, Note_on_c, 0, 59, 0
1, 35120, Note_on_c, 0, 60, 26
1, 35160, Note_on_c, 0, 77, 0
1, 35200, Note_on_c, 0, 60, 0
1, 35200, Note_on_c, 0, 62, 26
1, 35280, Note_on_c, 0, 62, 0
1, 35280, Note_on_c, 0, 55, 36
1, 35360, Note_on_c, 0, 55, 0
1, 35360, Note_on_c, 0, 57, 31
1, 35440, Tempo, 750000
1, 35440, Note_on_c, 0, 57, 0
1, 35440, Note_on_c, 0, 59, 31
1, 35520, Tempo, 662983
1, 35520, Note_on_c, 0, 59, 0
1, 35520, Note_on_c, 0, 76, 51
1, 35520, Note_on_c, 0, 60, 43
1, 35600, Note_on_c, 0, 76, 0
1, 35600, Note_on_c, 0, 77, 43
1, 35640, Note_on_c, 0, 60, 0
1, 35680, Note_on_c, 0, 77, 0
1, 35680, Note_on_c, 0, 79, 42
1, 35760, Note_on_c, 0, 79, 0
1, 35760, Note_on_c, 0, 72, 47
1, 35840, Note_on_c, 0, 72, 0
1, 35840, Note_on_c, 0, 74, 42
1, 35920, Tempo, 745342
1, 35920, Note_on_c, 0, 74, 0
1, 35920, Note_on_c, 0, 76, 40
1, 36000, Tempo, 666667
1, 36000, Note_on_c, 0, 76, 0
1, 36000, Note_on_c, 0, 77, 51
1, 36000, Note_on_c, 0, 59, 36
1, 36080, Note_on_c, 0, 59, 0
1, 36080, Note_on_c, 0, 60, 26
1, 36120, Note_on_c, 0, 77, 0
1, 36160, Note_on_c, 0, 60, 0
1, 36160, Note_on_c, 0, 62, 26
1, 36240, Note_on_c, 0, 62, 0
1, 36240, Note_on_c, 0, 55, 36
1, 36320, Note_on_c, 0, 55, 0
1, 36320, Note_on_c, 0, 57, 31
1, 36400, Tempo, 750000
1, 36400, Note_on_c, 0, 57, 0
1, 36400, Note_on_c, 0, 59, 31
1, 36480, Tempo, 662983
1, 36480, Note_on_c, 0, 59, 0
1, 36480, Note_on_c, 0, 76, 51
1, 36480, Note_on_c, 0, 60, 37
1, 36530, Control_c, 0, 64, 127
1, 36560, Note_on_c, 0, 76, 0
1, 36560, Note_on_c, 0, 79, 44
1, 36640, Note_on_c, 0, 79, 0
1, 36640, Note_on_c, 0, 76, 44
1, 36720, Note_on_c, 0, 76, 0
1, 36720, Note_on_c, 0, 60, 0
1, 36720, Note_on_c, 0, 72, 51
1, 36720, Note_on_c, 0, 52, 40
1, 36800, Note_on_c, 0, 72, 0
1, 36800, Note_on_c, 0, 76, 47
1, 36880, Tempo, 745342
1, 36880, Note_on_c, 0, 76, 0
1, 36880, Note_on_c, 0, 72, 46
1, 36960, Tempo, 662983
1, 36960, Note_on_c, 0, 72, 0
1, 36960, Note_on_c, 0, 52, 0
1, 36960, Note_on_c, 0, 69, 61
1, 36960, Note_on_c, 0, 53, 44
1, 36965, Control_c, 0, 64, 0
1, 37006, Control_c, 0, 64, 127
1, 37040, Note_on_c, 0, 69, 0
1, 37040, Note_on_c, 0, 72, 52
1, 37120, Note_on_c, 0, 72, 0
1, 37120, Note_on_c, 0, 69, 52
1, 37200, Note_on_c, 0, 69, 0
1, 37200, Note_on_c, 0, 53, 0
1, 37200, Note_on_c, 0, 65, 61
1, 37200, Note_on_c, 0, 53, 48
1, 37280, Note_on_c, 0, 65, 0
1, 37280, Note_on_c, 0, 69, 55
1, 37360, Tempo, 745342
1, 37360, Note_on_c, 0, 69, 0
1, 37360, Note_on_c, 0, 65, 54
1, 37440, Tempo, 662983
1, 37440, Note_on_c, 0, 65, 0
1, 37440, Note_on_c, 0, 53, 0
1, 37440, Note_on_c, 0, 64, 65
1, 37440, Note_on_c, 0, 55, 58
1, 37446, Control_c, 0, 64, 0
1, 37520, Note_on_c, 0, 64, 0
1, 37520, Note_on_c, 0, 67, 55
1, 37560, Note_on_c, 0, 55, 0
1, 37600, Note_on_c, 0, 67, 0
1, 37600, Note_on_c, 0, 65, 58
1, 37680, Note_on_c, 0, 65, 0
1, 37680, Note_on_c, 0, 64, 65
1, 37680, Note_on_c, 0, 55, 51
1, 37760, Note_on_c, 0, 64, 0
1, 37760, Note_on_c, 0, 62, 58
1, 37800, Note_on_c, 0, 55, 0
1, 37840, Tempo, 745342
1, 37840, Note_on_c, 0, 62, 0
1, 37840, Note_on_c, 0, 60, 56
1, 37920, Tempo, 701754
1, 37920, Note_on_c, 0, 60, 0
1, 37920, Note_on_c, 0, 62, 65
1, 37920, Note_on_c, 0, 43, 58
1, 37930, Tempo, 697674
1, 37939, Tempo, 693642
1, 37949, Tempo, 689655
1, 37959, Tempo, 685714
1, 37960, Note_on_c, 0, 62, 0
1, 37960, Note_on_c, 0, 64, 51
1, 37964, Control_c, 0, 64, 127
1, 37968, Tempo, 681818
1, 37978, Tempo, 677966
1, 37987, Tempo, 674157
1, 37997, Tempo, 670391
1, 38000, Note_on_c, 0, 64, 0
1, 38001, Note_on_c, 0, 62, 60
1, 38007, Tempo, 666667
1, 38016, Tempo, 662983
1, 38026, Tempo, 659341
1, 38035, Tempo, 655738
1, 38040, Note_on_c, 0, 43, 0
1, 38041, Note_on_c, 0, 62, 0
1, 38041, Note_on_c, 0, 64, 51
1, 38045, Tempo, 652174
1, 38055, Tempo, 648649
1, 38081, Note_on_c, 0, 64, 0
1, 38081, Note_on_c, 0, 62, 63
1, 38121, Note_on_c, 0, 62, 0
1, 38121, Note_on_c, 0, 64, 47
1, 38141, Tempo, 652174
1, 38160, Note_on_c, 0, 43, 55
1, 38161, Note_on_c, 0, 64, 0
1, 38161, Note_on_c, 0, 62, 60
1, 38201, Note_on_c, 0, 62, 0
1, 38202, Note_on_c, 0, 64, 56
1, 38227, Tempo, 655738
1, 38237, Tempo, 659341
1, 38242, Note_on_c, 0, 64, 0
1, 38242, Note_on_c, 0, 62, 63
1, 38247, Tempo, 662983
1, 38256, Tempo, 666667
1, 38266, Tempo, 670391
1, 38275, Tempo, 674157
1, 38280, Note_on_c, 0, 62, 0
1, 38280, Note_on_c, 0, 43, 0
1, 38280, Note_on_c, 0, 60, 61
1, 38285, Tempo, 681818
1, 38295, Tempo, 685714
1, 38304, Tempo, 689655
1, 38314, Tempo, 693642
1, 38323, Tempo, 697674
1, 38333, Tempo, 701754
1, 38340, Note_on_c, 0, 60, 0
1, 38340, Note_on_c, 0, 62, 61
1, 38343, Tempo, 710059
1, 38400, Tempo, 662983
1, 38400, Note_on_c, 0, 62, 0
1, 38400, Note_on_c, 0, 64, 71
1, 38400, Note_on_c, 0, 48, 55
1, 38409, Control_c, 0, 64, 0
1, 38480, Note_on_c, 0, 64, 0
1, 38480, Note_on_c, 0, 65, 60
1, 38520, Note_on_c, 0, 48, 0
1, 38560, Note_on_c, 0, 65, 0
1, 38560, Note_on_c, 0, 67, 58
1, 38640, Note_on_c, 0, 67, 0
1, 38640, Note_on_c, 0, 60, 65
1, 38720, Note_on_c, 0, 60, 0
1, 38720, Note_on_c, 0, 62, 58
1, 38800, Tempo, 745342
1, 38800, Note_on_c, 0, 62, 0
1, 38800, Note_on_c, 0, 64, 56
1, 38880, Tempo, 666667
1, 38880, Note_on_c, 0, 64, 0
1, 38880, Note_on_c, 0, 65, 71
1, 38880, Note_on_c, 0, 47, 56
1, 38960, Note_on_c, 0, 47, 0
1, 38960, Note_on_c, 0, 48, 42
1, 39000, Note_on_c, 0, 65, 0
1, 39040, Note_on_c, 0, 48, 0
1, 39040, Note_on_c, 0, 50, 44
1, 39120, Note_on_c, 0, 50, 0
1, 39120, Note_on_c, 0, 43, 56
1, 39200, Note_on_c, 0, 43, 0
1, 39200, Note_on_c, 0, 45, 48
1, 39280, Tempo, 750000
1, 39280, Note_on_c, 0, 45, 0
1, 39280, Note_on_c, 0, 47, 46
1, 39360, Tempo, 662983
1, 39360, Note_on_c, 0, 47, 0
1, 39360, Note_on_c, 0, 64, 71
1, 39360, Note_on_c, 0, 48, 57
1, 39440, Note_on_c, 0, 64, 0
1, 39440, Note_on_c, 0, 65, 60
1, 39480, Note_on_c, 0, 48, 0
1, 39520, Note_on_c, 0, 65, 0
1, 39520, Note_on_c, 0, 67, 58
1, 39600, Note_on_c, 0, 67, 0
1, 39600, Note_on_c, 0, 60, 65
1, 39680, Note_on_c, 0, 60, 0
1, 39680, Note_on_c, 0, 62, 58
1, 39760, Tempo, 745342
1, 39760, Note_on_c, 0, 62, 0
1, 39760, Note_on_c, 0, 64, 56
1, 39840, Tempo, 666667
1, 39840, Note_on_c, 0, 64, 0
1, 39840, Note_on_c, 0, 65, 71
1, 39840, Note_on_c, 0, 47, 56
1, 39920, Note_on_c, 0, 47, 0
1, 39920, Note_on_c, 0, 48, 42
1, 39960, Note_on_c, 0, 65, 0
1, 40000, Note_on_c, 0, 48, 0
1, 40000, Note_on_c, 0, 50, 39
1, 40080, Note_on_c, 0, 50, 0
1, 40080, Note_on_c, 0, 43, 56
1, 40160, Note_on_c, 0, 43, 0
1, 40160, Note_on_c, 0, 45, 48
1, 40240, Tempo, 750000
1, 40240, Note_on_c, 0, 45, 0
1, 40240, Note_on_c, 0, 47, 42
1, 40320, Tempo, 662983
1, 40320, Note_on_c, 0, 47, 0
1, 40320, Note_on_c, 0, 64, 67
1, 40320, Note_on_c, 0, 48, 48
1, 40348, Control_c, 0, 64, 127
1, 40400, Note_on_c, 0, 64, 0
1, 40400, Note_on_c, 0, 67, 57
1, 40440, Note_on_c, 0, 48, 0
1, 40480, Note_on_c, 0, 67, 0
1, 40480, Note_on_c, 0, 72, 55
1, 40560, Note_on_c, 0, 72, 0
1, 40560, Note_on_c, 0, 76, 61
1, 40560, Note_on_c, 0, 48, 47
1, 40560, Note_on_c, 0, 36, 39
1, 40571, Control_c, 0, 64, 0
1, 40640, Note_on_c, 0, 76, 0
1, 40640, Note_on_c, 0, 72, 55
1, 40680, Note_on_c, 0, 36, 0
1, 40680, Note_on_c, 0, 48, 0
1, 40720, Tempo, 745342
1, 40720, Note_on_c, 0, 72, 0
1, 40720, Note_on_c, 0, 67, 53
1, 40800, Tempo, 662983
1, 40800, Note_on_c, 0, 67, 0
1, 40800, Note_on_c, 0, 64, 67
1, 40825, Control_c, 0, 64, 127
1, 40880, Note_on_c, 0, 64, 0
1, 40880, Note_on_c, 0, 69, 57
1, 40960, Note_on_c, 0, 69, 0
1, 40960, Note_on_c, 0, 72, 55
1, 41040, Note_on_c, 0, 72, 0
1, 41040, Note_on_c, 0, 76, 61
1, 41040, Note_on_c, 0, 57, 47
1, 41040, Note_on_c, 0, 45, 39
1, 41044, Control_c, 0, 64, 0
1, 41120, Note_on_c, 0, 76, 0
1, 41120, Note_on_c, 0, 72, 55
1, 41160, Note_on_c, 0, 45, 0
1, 41160, Note_on_c, 0, 57, 0
1, 41200, Tempo, 745342
1, 41200, Note_on_c, 0, 72, 0
1, 41200, Note_on_c, 0, 69, 53
1, 41280, Tempo, 662983
1, 41280, Note_on_c, 0, 69, 0
1, 41280, Note_on_c, 0, 62, 67
1, 41300, Control_c, 0, 64, 127
1, 41360, Note_on_c, 0, 62, 0
1, 41360, Note_on_c, 0, 65, 57
1, 41440, Note_on_c, 0, 65, 0
1, 41440, Note_on_c, 0, 69, 55
1, 41520, Note_on_c, 0, 69, 0
1, 41520, Note_on_c, 0, 74, 61
1, 41520, Note_on_c, 0, 53, 47
1, 41520, Note_on_c, 0, 41, 39
1, 41537, Control_c, 0, 64, 0
1, 41600, Note_on_c, 0, 74, 0
1, 41600, Note_on_c, 0, 69, 55
1, 41640, Note_on_c, 0, 41, 0
1, 41640, Note_on_c, 0, 53, 0
1, 41680, Tempo, 745342
1, 41680, Note_on_c, 0, 69, 0
1, 41680, Note_on_c, 0, 65, 53
1, 41760, Tempo, 662983
1, 41760, Note_on_c, 0, 65, 0
1, 41760, Note_on_c, 0, 62, 67
1, 41806, Control_c, 0, 64, 127
1, 41840, Note_on_c, 0, 62, 0
1, 41840, Note_on_c, 0, 65, 57
1, 41920, Note_on_c, 0, 65, 0
1, 41920, Note_on_c, 0, 67, 55
1, 42000, Note_on_c, 0, 67, 0
1, 42000, Note_on_c, 0, 71, 61
1, 42000, Note_on_c, 0, 55, 47
1, 42000, Note_on_c, 0, 43, 39
1, 42018, Control_c, 0, 64, 0
1, 42080, Note_on_c, 0, 71, 0
1, 42080, Note_on_c, 0, 67, 55
1, 42120, Note_on_c, 0, 43, 0
1, 42120, Note_on_c, 0, 55, 0
1, 42160, Tempo, 745342
1, 42160, Note_on_c, 0, 67, 0
1, 42160, Note_on_c, 0, 65, 53
1, 42240, Tempo, 666667
1, 42240, Note_on_c, 0, 65, 0
1, 42240, Note_on_c, 0, 64, 78
1, 42276, Control_c, 0, 64, 127
1, 42320, Note_on_c, 0, 64, 0
1, 42320, Note_on_c, 0, 67, 66
1, 42400, Tempo, 659341
1, 42400, Note_on_c, 0, 67, 0
1, 42400, Note_on_c, 0, 72, 63
1, 42480, Note_on_c, 0, 72, 0
1, 42480, Note_on_c, 0, 76, 71
1, 42480, Note_on_c, 0, 60, 55
1, 42480, Note_on_c, 0, 48, 46
1, 42560, Note_on_c, 0, 76, 0
1, 42560, Note_on_c, 0, 72, 63
1, 42600, Note_on_c, 0, 48, 0
1, 42600, Note_on_c, 0, 60, 0
1, 42640, Tempo, 697674
1, 42640, Note_on_c, 0, 72, 0
1, 42640, Note_on_c, 0, 67, 61
1, 42720, Tempo, 666667
1, 42720, Note_on_c, 0, 67, 0
1, 42720, Note_on_c, 0, 64, 78
1, 42738, Control_c, 0, 64, 0
1, 42780, Control_c, 0, 64, 127
1, 42800, Note_on_c, 0, 64, 0
1, 42800, Note_on_c, 0, 69, 66
1, 42880, Tempo, 659341
1, 42880, Note_on_c, 0, 69, 0
1, 42880, Note_on_c, 0, 72, 63
1, 42960, Note_on_c, 0, 72, 0
1, 42960, Note_on_c, 0, 76, 71
1, 42960, Note_on_c, 0, 57, 55
1, 42960, Note_on_c, 0, 45, 46
1, 43040, Note_on_c, 0, 76, 0
1, 43040, Note_on_c, 0, 72, 63
1, 43080, Note_on_c, 0, 45, 0
1, 43080, Note_on_c, 0, 57, 0
1, 43120, Tempo, 745342
1, 43120, Note_on_c, 0, 72, 0
1, 43120, Note_on_c, 0, 69, 61
1, 43200, Tempo, 662983
1, 43200, Note_on_c, 0, 69, 0
1, 43200, Note_on_c, 0, 69, 78
1, 43200, Note_on_c, 0, 41, 50
1, 43200, Note_on_c, 0, 53, 60
1, 43205, Control_c, 0, 64, 0
1, 43240, Control_c, 0, 64, 127
1, 43280, Note_on_c, 0, 69, 0
1, 43280, Note_on_c, 0, 74, 66
1, 43320, Note_on_c, 0, 53, 0
1, 43320, Note_on_c, 0, 41, 0
1, 43360, Note_on_c, 0, 74, 0
1, 43360, Note_on_c, 0, 77, 63
1, 43440, Tempo, 652174
1, 43440, Note_on_c, 0, 77, 0
1, 43440, Note_on_c, 0, 81, 71
1, 43440, Note_on_c, 0, 53, 55
1, 43440, Note_on_c, 0, 41, 46
1, 43520, Note_on_c, 0, 81, 0
1, 43520, Note_on_c, 0, 77, 63
1, 43560, Note_on_c, 0, 41, 0
1, 43560, Note_on_c, 0, 53, 0
1, 43600, Tempo, 689655
1, 43600, Note_on_c, 0, 77, 0
1, 43600, Note_on_c, 0, 74, 61
1, 43680, Tempo, 662983
1, 43680, Note_on_c, 0, 74, 0
1, 43680, Note_on_c, 0, 67, 78
1, 43680, Note_on_c, 0, 43, 50
1, 43680, Note_on_c, 0, 55, 60
1, 43696, Control_c, 0, 64, 0
1, 43729, Control_c, 0, 64, 127
1, 43760, Note_on_c, 0, 67, 0
1, 43760, Note_on_c, 0, 71, 66
1, 43800, Note_on_c, 0, 55, 0
1, 43800, Note_on_c, 0, 43, 0
1, 43840, Tempo, 648649
1, 43840, Note_on_c, 0, 71, 0
1, 43840, Note_on_c, 0, 74, 63
1, 43920, Note_on_c, 0, 74, 0
1, 43920, Note_on_c, 0, 79, 71
1, 43920, Note_on_c, 0, 55, 55
1, 43920, Note_on_c, 0, 43, 46
1, 44000, Note_on_c, 0, 79, 0
1, 44000, Note_on_c, 0, 74, 63
1, 44040, Note_on_c, 0, 43, 0
1, 44040, Note_on_c, 0, 55, 0
1, 44080, Tempo, 745342
1, 44080, Note_on_c, 0, 74, 0
1, 44080, Note_on_c, 0, 71, 61
1, 44160, Tempo, 652174
1, 44160, Note_on_c, 0, 71, 0
1, 44160, Note_on_c, 0, 72, 70
1, 44160, Note_on_c, 0, 36, 51
1, 44160, Note_on_c, 0, 48, 60
1, 44168, Control_c, 0, 64, 0
1, 44240, Note_on_c, 0, 72, 0
1, 44240, Note_on_c, 0, 71, 64
1, 44320, Tempo, 655738
1, 44320, Note_on_c, 0, 71, 0
1, 44320, Note_on_c, 0, 72, 58
1, 44400, Tempo, 670391
1, 44400, Note_on_c, 0, 72, 0
1, 44400, Note_on_c, 0, 76, 70
1, 44413, Tempo, 655738
1, 44480, Note_on_c, 0, 76, 0
1, 44480, Note_on_c, 0, 74, 61
1, 44497, Tempo, 659341
1, 44560, Note_on_c, 0, 74, 0
1, 44560, Note_on_c, 0, 72, 61
1, 44581, Tempo, 662983
1, 44640, Note_on_c, 0, 72, 0
1, 44640, Note_on_c, 0, 71, 66
1, 44653, Tempo, 666667
1, 44720, Note_on_c, 0, 71, 0
1, 44720, Note_on_c, 0, 69, 61
1, 44737, Tempo, 670391
1, 44800, Note_on_c, 0, 69, 0
1, 44800, Note_on_c, 0, 67, 57
1, 44809, Tempo, 674157
1, 44880, Note_on_c, 0, 67, 0
1, 44880, Note_on_c, 0, 65, 65
1, 44893, Tempo, 677966
1, 44960, Note_on_c, 0, 65, 0
1, 44960, Note_on_c, 0, 64, 59
1, 44965, Tempo, 681818
1, 45040, Note_on_c, 0, 64, 0
1, 45040, Note_on_c, 0, 62, 56
1, 45049, Tempo, 685714
1, 45120, Tempo, 659341
1, 45120, Note_on_c, 0, 62, 0
1, 45120, Note_on_c, 0, 48, 0
1, 45120, Note_on_c, 0, 36, 0
1, 45120, Note_on_c, 0, 60, 70
1, 45120, Note_on_c, 0, 36, 51
1, 45120, Note_on_c, 0, 48, 60
1, 45200, Note_on_c, 0, 60, 0
1, 45200, Note_on_c, 0, 59, 64
1, 45280, Tempo, 659341
1, 45280, Note_on_c, 0, 59, 0
1, 45280, Note_on_c, 0, 60, 61
1, 45360, Tempo, 670391
1, 45360, Note_on_c, 0, 60, 0
1, 45360, Note_on_c, 0, 64, 70
1, 45373, Tempo, 655738
1, 45440, Note_on_c, 0, 64, 0
1, 45440, Note_on_c, 0, 62, 63
1, 45457, Tempo, 659341
1, 45520, Note_on_c, 0, 62, 0
1, 45520, Note_on_c, 0, 60, 63
1, 45541, Tempo, 662983
1, 45600, Note_on_c, 0, 60, 0
1, 45600, Note_on_c, 0, 59, 66
1, 45613, Tempo, 666667
1, 45680, Note_on_c, 0, 59, 0
1, 45680, Note_on_c, 0, 57, 61
1, 45697, Tempo, 670391
1, 45760, Note_on_c, 0, 57, 0
1, 45760, Note_on_c, 0, 55, 58
1, 45769, Tempo, 674157
1, 45840, Note_on_c, 0, 55, 0
1, 45840, Note_on_c, 0, 53, 65
1, 45853, Tempo, 677966
1, 45920, Note_on_c, 0, 53, 0
1, 45920, Note_on_c, 0, 52, 59
1, 45925, Tempo, 681818
1, 46000, Note_on_c, 0, 52, 0
1, 46000, Note_on_c, 0, 50, 59
1, 46009, Tempo, 685714
1, 46080, Tempo, 754717
1, 46080, Note_on_c, 0, 50, 0
1, 46080, Note_on_c, 0, 48, 0
1, 46080, Note_on_c, 0, 36, 0
1, 46080, Note_on_c, 0, 48, 84
1, 46080, Note_on_c, 0, 36, 71
1, 46140, Note_on_c, 0, 36, 0
1, 46140, Note_on_c, 0, 48, 0
1, 46320, Tempo, 693642
1, 46320, Note_on_c, 0, 36, 62
1, 46320, Note_on_c, 0, 48, 74
1, 46380, Note_on_c, 0, 48, 0
1, 46380, Note_on_c, 0, 36, 0
1, 46560, Tempo, 689655
1, 46560, Note_on_c, 0, 64, 61
1, 46561, Tempo, 659341
1, 46609, Tempo, 662983
1, 46640, Note_on_c, 0, 64, 0
1, 46640, Note_on_c, 0, 62, 50
1, 46657, Tempo, 666667
1, 46705, Tempo, 670391
1, 46720, Note_on_c, 0, 62, 0
1, 46720, Note_on_c, 0, 60, 50
1, 46753, Tempo, 674157
1, 46800, Note_on_c, 0, 60, 0
1, 46800, Note_on_c, 0, 67, 55
1, 46801, Tempo, 677966
1, 46849, Tempo, 681818
1, 46880, Note_on_c, 0, 67, 0
1, 46880, Note_on_c, 0, 65, 47
1, 46897, Tempo, 685714
1, 46945, Tempo, 689655
1, 46960, Tempo, 875912
1, 46960, Note_on_c, 0, 65, 0
1, 46960, Note_on_c, 0, 64, 47
1, 47040, Tempo, 754717
1, 47040, Note_on_c, 0, 64, 0
1, 47040, Note_on_c, 0, 70, 55
1, 47040, Note_on_c, 0, 36, 45
1, 47040, Note_on_c, 0, 48, 54
1, 47100, Note_on_c, 0, 48, 0
1, 47100, Note_on_c, 0, 36, 0
1, 47100, Note_on_c, 0, 70, 0
1, 47280, Note_on_c, 0, 48, 47
1, 47280, Note_on_c, 0, 36, 39
1, 47340, Note_on_c, 0, 36, 0
1, 47340, Note_on_c, 0, 48, 0
1, 47509, Tempo, 736196
1, 47520, Tempo, 689655
1, 47520, Note_on_c, 0, 76, 53
1, 47544, Tempo, 693642
1, 47568, Tempo, 697674
1, 47592, Tempo, 701754
1, 47600, Note_on_c, 0, 76, 0
1, 47600, Note_on_c, 0, 74, 42
1, 47616, Tempo, 705882
1, 47640, Tempo, 710059
1, 47664, Tempo, 714286
1, 47676, Tempo, 718563
1, 47677, Tempo, 779221
1, 47680, Note_on_c, 0, 74, 0
1, 47680, Note_on_c, 0, 72, 39
1, 47689, Tempo, 784314
1, 47713, Tempo, 789474
1, 47725, Tempo, 794702
1, 47749, Tempo, 800000
1, 47760, Note_on_c, 0, 72, 0
1, 47760, Note_on_c, 0, 79, 48
1, 47761, Tempo, 805369
1, 47785, Tempo, 810811
1, 47797, Tempo, 816327
1, 47821, Tempo, 821918
1, 47833, Tempo, 827586
1, 47840, Note_on_c, 0, 79, 0
1, 47840, Note_on_c, 0, 77, 37
1, 47845, Tempo, 833333
1, 47857, Tempo, 845070
1, 47881, Tempo, 851064
1, 47905, Tempo, 857143
1, 47920, Tempo, 937500
1, 47920, Note_on_c, 0, 77, 0
1, 47920, Note_on_c, 0, 76, 37
1, 48000, Tempo, 882353
1, 48000, Note_on_c, 0, 76, 0
1, 48000, Note_on_c, 0, 82, 47
1, 48000, Note_on_c, 0, 67, 33
1, 48000, Note_on_c, 0, 60, 27
1, 48000, Note_on_c, 0, 64, 27
1, 48060, Note_on_c, 0, 64, 0
1, 48060, Note_on_c, 0, 82, 0
1, 48060, Note_on_c, 0, 67, 0
1, 48060, Note_on_c, 0, 60, 0
1, 48240, Note_on_c, 0, 67, 28
1, 48240, Note_on_c, 0, 60, 24
1, 48240, Note_on_c, 0, 64, 24
1, 48300, Note_on_c, 0, 64, 0
1, 48300, Note_on_c, 0, 60, 0
1, 48300, Note_on_c, 0, 67, 0
1, 48480, Tempo, 710059
1, 49423, Tempo, 685714
1, 49440, Marker_t, "Teil 1 da Capo al Fine"
1, 49440, Note_on_c, 0, 77, 45
1, 49520, Note_on_c, 0, 77, 0
1, 49520, Note_on_c, 0, 79, 38
1, 49557, Tempo, 681818
1, 49600, Note_on_c, 0, 79, 0
1, 49600, Note_on_c, 0, 81, 38
1, 49680, Note_on_c, 0, 81, 0
1, 49680, Note_on_c, 0, 77, 44
1, 49692, Tempo, 677966
1, 49760, Note_on_c, 0, 77, 0
1, 49760, Note_on_c, 0, 79, 37
1, 49826, Tempo, 674157
1, 49840, Tempo, 750000
1, 49840, Note_on_c, 0, 79, 0
1, 49840, Note_on_c, 0, 81, 37
1, 49920, Tempo, 681818
1, 49920, Note_on_c, 0, 81, 0
1, 49920, Note_on_c, 0, 72, 45
1, 49920, Note_on_c, 0, 69, 36
1, 49920, Note_on_c, 0, 65, 30
1, 49980, Note_on_c, 0, 65, 0
1, 49980, Note_on_c, 0, 69, 0
1, 49980, Note_on_c, 0, 72, 0
1, 50160, Note_on_c, 0, 72, 45
1, 50160, Note_on_c, 0, 69, 36
1, 50160, Note_on_c, 0, 65, 30
1, 50220, Note_on_c, 0, 65, 0
1, 50220, Note_on_c, 0, 69, 0
1, 50220, Note_on_c, 0, 72, 0
1, 50400, Tempo, 659341
1, 50400, Note_on_c, 0, 77, 45
1, 50480, Note_on_c, 0, 77, 0
1, 50480, Note_on_c, 0, 79, 38
1, 50560, Note_on_c, 0, 79, 0
1, 50560, Note_on_c, 0, 81, 38
1, 50640, Note_on_c, 0, 81, 0
1, 50640, Note_on_c, 0, 77, 44
1, 50720, Note_on_c, 0, 77, 0
1, 50720, Note_on_c, 0, 79, 37
1, 50800, Tempo, 750000
1, 50800, Note_on_c, 0, 79, 0
1, 50800, Note_on_c, 0, 81, 37
1, 50880, Tempo, 677966
1, 50880, Note_on_c, 0, 81, 0
1, 50880, Note_on_c, 0, 74, 45
1, 50880, Note_on_c, 0, 70, 36
1, 50880, Note_on_c, 0, 65, 30
1, 50940, Note_on_c, 0, 65, 0
1, 50940, Note_on_c, 0, 70, 0
1, 50940, Note_on_c, 0, 74, 0
1, 51120, Note_on_c, 0, 74, 45
1, 51120, Note_on_c, 0, 70, 36
1, 51120, Note_on_c, 0, 65, 30
1, 51180, Note_on_c, 0, 65, 0
1, 51180, Note_on_c, 0, 70, 0
1, 51180, Note_on_c, 0, 74, 0
1, 51360, Tempo, 662983
1, 51360, Note_on_c, 0, 86, 53
1, 51381, Tempo, 641711
1, 51440, Note_on_c, 0, 86, 0
1, 51440, Note_on_c, 0, 84, 50
1, 51458, Tempo, 645161
1, 51520, Note_on_c, 0, 84, 0
1, 51520, Note_on_c, 0, 82, 50
1, 51535, Tempo, 648649
1, 51600, Note_on_c, 0, 82, 0
1, 51600, Note_on_c, 0, 81, 55
1, 51612, Tempo, 652174
1, 51680, Note_on_c, 0, 81, 0
1, 51680, Note_on_c, 0, 79, 57
1, 51689, Tempo, 655738
1, 51760, Note_on_c, 0, 79, 0
1, 51760, Note_on_c, 0, 77, 58
1, 51765, Tempo, 659341
1, 51823, Tempo, 662983
1, 51840, Tempo, 659341
1, 51840, Note_on_c, 0, 77, 0
1, 51840, Note_on_c, 0, 76, 63
1, 51840, Note_on_c, 0, 60, 47
1, 51840, Note_on_c, 0, 55, 39
1, 51840, Note_on_c, 0, 52, 39
1, 51840, Note_on_c, 0, 48, 39
1, 51920, Note_on_c, 0, 76, 0
1, 51920, Note_on_c, 0, 79, 57
1, 52000, Note_on_c, 0, 79, 0
1, 52000, Note_on_c, 0, 77, 56
1, 52080, Note_on_c, 0, 77, 0
1, 52080, Note_on_c, 0, 76, 62
1, 52160, Note_on_c, 0, 76, 0
1, 52160, Note_on_c, 0, 74, 54
1, 52240, Note_on_c, 0, 74, 0
1, 52240, Note_on_c, 0, 72, 54
1, 52320, Note_on_c, 0, 72, 0
1, 52320, Note_on_c, 0, 70, 56
1, 52400, Note_on_c, 0, 70, 0
1, 52400, Note_on_c, 0, 69, 50
1, 52480, Note_on_c, 0, 69, 0
1, 52480, Note_on_c, 0, 67, 50
1, 52560, Note_on_c, 0, 67, 0
1, 52560, Note_on_c, 0, 74, 61
1, 52640, Note_on_c, 0, 74, 0
1, 52640, Note_on_c, 0, 72, 53
1, 52720, Note_on_c, 0, 72, 0
1, 52720, Note_on_c, 0, 70, 53
1, 52800, Tempo, 685714
1, 52800, Note_on_c, 0, 70, 0
1, 52800, Note_on_c, 0, 48, 0
1, 52800, Note_on_c, 0, 60, 0
1, 52800, Note_on_c, 0, 55, 0
1, 52800, Note_on_c, 0, 52, 0
1, 52800, Note_on_c, 0, 69, 63
1, 52800, Note_on_c, 0, 53, 41
1, 52860, Note_on_c, 0, 69, 0
1, 52880, Note_on_c, 0, 53, 0
1, 52880, Note_on_c, 0, 57, 31
1, 52960, Note_on_c, 0, 57, 0
1, 52960, Note_on_c, 0, 60, 29
1, 53040, Note_on_c, 0, 60, 0
1, 53040, Note_on_c, 0, 72, 57
1, 53040, Note_on_c, 0, 53, 37
1, 53100, Note_on_c, 0, 72, 0
1, 53120, Note_on_c, 0, 53, 0
1, 53120, Note_on_c, 0, 57, 34
1, 53200, Note_on_c, 0, 57, 0
1, 53200, Note_on_c, 0, 60, 25
1, 53280, Tempo, 662983
1, 53280, Note_on_c, 0, 60, 0
1, 53280, Note_on_c, 0, 53, 39
1, 53360, Note_on_c, 0, 53, 0
1, 53360, Note_on_c, 0, 57, 33
1, 53440, Note_on_c, 0, 57, 0
1, 53440, Note_on_c, 0, 60, 30
1, 53520, Note_on_c, 0, 60, 0
1, 53520, Note_on_c, 0, 84, 64
1, 53520, Note_on_c, 0, 53, 41
1, 53600, Note_on_c, 0, 53, 0
1, 53600, Note_on_c, 0, 57, 32
1, 53680, Note_on_c, 0, 57, 0
1, 53680, Note_on_c, 0, 60, 27
1, 53760, Tempo, 652174
1, 53760, Note_on_c, 0, 60, 0
1, 53760, Note_on_c, 0, 84, 0
1, 53760, Note_on_c, 0, 81, 69
1, 53760, Note_on_c, 0, 53, 41
1, 53840, Note_on_c, 0, 53, 0
1, 53840, Note_on_c, 0, 57, 31
1, 53920, Note_on_c, 0, 57, 0
1, 53920, Note_on_c, 0, 60, 33
1, 54000, Tempo, 670391
1, 54000, Note_on_c, 0, 60, 0
1, 54000, Note_on_c, 0, 81, 0
1, 54000, Note_on_c, 0, 77, 63
1, 54000, Note_on_c, 0, 53, 38
1, 54080, Note_on_c, 0, 53, 0
1, 54080, Note_on_c, 0, 57, 35
1, 54160, Note_on_c, 0, 57, 0
1, 54160, Note_on_c, 0, 60, 30
1, 54240, Tempo, 652174
1, 54240, Note_on_c, 0, 60, 0
1, 54240, Note_on_c, 0, 77, 0
1, 54240, Note_on_c, 0, 74, 68
1, 54240, Note_on_c, 0, 53, 39
1, 54320, Note_on_c, 0, 53, 0
1, 54320, Note_on_c, 0, 58, 30
1, 54400, Tempo, 666667
1, 54400, Note_on_c, 0, 58, 0
1, 54400, Note_on_c, 0, 62, 30
1, 54480, Note_on_c, 0, 62, 0
1, 54480, Note_on_c, 0, 74, 0
1, 54480, Note_on_c, 0, 70, 54
1, 54480, Note_on_c, 0, 53, 37
1, 54560, Note_on_c, 0, 53, 0
1, 54560, Note_on_c, 0, 58, 32
1, 54640, Tempo, 759494
1, 54640, Note_on_c, 0, 58, 0
1, 54640, Note_on_c, 0, 62, 30
1, 54720, Tempo, 662983
1, 54720, Note_on_c, 0, 62, 0
1, 54720, Note_on_c, 0, 70, 0
1, 54720, Note_on_c, 0, 69, 58
1, 54720, Note_on_c, 0, 53, 41
1, 54800, Note_on_c, 0, 53, 0
1, 54800, Note_on_c, 0, 57, 31
1, 54880, Note_on_c, 0, 57, 0
1, 54880, Note_on_c, 0, 60, 23
1, 54960, Note_on_c, 0, 60, 0
1, 54960, Note_on_c, 0, 69, 0
1, 54960, Note_on_c, 0, 72, 50
1, 54960, Note_on_c, 0, 53, 35
1, 55040, Note_on_c, 0, 53, 0
1, 55040, Note_on_c, 0, 57, 27
1, 55120, Note_on_c, 0, 57, 0
1, 55120, Note_on_c, 0, 60, 27
1, 55200, Note_on_c, 0, 60, 0
1, 55200, Note_on_c, 0, 72, 0
1, 55200, Note_on_c, 0, 53, 37
1, 55280, Note_on_c, 0, 53, 0
1, 55280, Note_on_c, 0, 57, 31
1, 55360, Note_on_c, 0, 57, 0
1, 55360, Note_on_c, 0, 60, 25
1, 55440, Note_on_c, 0, 60, 0
1, 55440, Note_on_c, 0, 84, 64
1, 55440, Note_on_c, 0, 53, 41
1, 55520, Note_on_c, 0, 53, 0
1, 55520, Note_on_c, 0, 57, 32
1, 55600, Note_on_c, 0, 57, 0
1, 55600, Note_on_c, 0, 60, 26
1, 55680, Tempo, 666667
1, 55680, Note_on_c, 0, 60, 0
1, 55680, Note_on_c, 0, 84, 0
1, 55680, Note_on_c, 0, 81, 69
1, 55680, Note_on_c, 0, 53, 41
1, 55760, Tempo, 652174
1, 55760, Note_on_c, 0, 53, 0
1, 55760, Note_on_c, 0, 57, 31
1, 55840, Note_on_c, 0, 57, 0
1, 55840, Note_on_c, 0, 60, 27
1, 55920, Tempo, 666667
1, 55920, Note_on_c, 0, 60, 0
1, 55920, Note_on_c, 0, 81, 0
1, 55920, Note_on_c, 0, 77, 63
1, 55920, Note_on_c, 0, 53, 38
1, 56000, Note_on_c, 0, 53, 0
1, 56000, Note_on_c, 0, 57, 35
1, 56080, Note_on_c, 0, 57, 0
1, 56080, Note_on_c, 0, 60, 30
1, 56160, Note_on_c, 0, 60, 0
1, 56160, Note_on_c, 0, 77, 0
1, 56160, Note_on_c, 0, 74, 68
1, 56160, Note_on_c, 0, 53, 39
1, 56240, Note_on_c, 0, 53, 0
1, 56240, Note_on_c, 0, 59, 30
1, 56320, Tempo, 710059
1, 56320, Note_on_c, 0, 59, 0
1, 56320, Note_on_c, 0, 62, 30
1, 56400, Tempo, 662983
1, 56400, Note_on_c, 0, 62, 0
1, 56400, Note_on_c, 0, 74, 0
1, 56400, Note_on_c, 0, 81, 54
1, 56400, Note_on_c, 0, 53, 37
1, 56480, Note_on_c, 0, 53, 0
1, 56480, Note_on_c, 0, 59, 32
1, 56560, Note_on_c, 0, 59, 0
1, 56560, Note_on_c, 0, 62, 30
1, 56640, Note_on_c, 0, 62, 0
1, 56640, Note_on_c, 0, 81, 0
1, 56640, Note_on_c, 0, 79, 58
1, 56640, Note_on_c, 0, 52, 41
1, 56700, Note_on_c, 0, 79, 0
1, 56720, Note_on_c, 0, 52, 0
1, 56720, Note_on_c, 0, 55, 31
1, 56800, Note_on_c, 0, 55, 0
1, 56800, Note_on_c, 0, 60, 25
1, 56880, Tempo, 645161
1, 56880, Note_on_c, 0, 60, 0
1, 56880, Note_on_c, 0, 79, 53
1, 56960, Note_on_c, 0, 79, 0
1, 56960, Note_on_c, 0, 77, 49
1, 57040, Note_on_c, 0, 77, 0
1, 57040, Note_on_c, 0, 76, 49
1, 57120, Tempo, 662983
1, 57120, Note_on_c, 0, 76, 0
1, 57120, Note_on_c, 0, 74, 58
1, 57120, Note_on_c, 0, 53, 41
1, 57180, Note_on_c, 0, 74, 0
1, 57200, Note_on_c, 0, 53, 0
1, 57200, Note_on_c, 0, 57, 31
1, 57280, Note_on_c, 0, 57, 0
1, 57280, Note_on_c, 0, 62, 28
1, 57360, Tempo, 648649
1, 57360, Note_on_c, 0, 62, 0
1, 57360, Note_on_c, 0, 77, 53
1, 57440, Tempo, 645161
1, 57440, Note_on_c, 0, 77, 0
1, 57440, Note_on_c, 0, 76, 49
1, 57520, Note_on_c, 0, 76, 0
1, 57520, Note_on_c, 0, 74, 49
1, 57600, Tempo, 659341
1, 57600, Note_on_c, 0, 74, 0
1, 57600, Note_on_c, 0, 72, 58
1, 57600, Note_on_c, 0, 55, 41
1, 57660, Note_on_c, 0, 72, 0
1, 57680, Note_on_c, 0, 55, 0
1, 57680, Note_on_c, 0, 60, 30
1, 57760, Tempo, 714286
1, 57760, Note_on_c, 0, 60, 0
1, 57760, Note_on_c, 0, 64, 28
1, 57840, Tempo, 662983
1, 57840, Note_on_c, 0, 64, 0
1, 57840, Note_on_c, 0, 76, 49
1, 57920, Note_on_c, 0, 76, 0
1, 57920, Note_on_c, 0, 74, 45
1, 58000, Note_on_c, 0, 74, 0
1, 58000, Note_on_c, 0, 72, 44
1, 58080, Note_on_c, 0, 72, 0
1, 58080, Note_on_c, 0, 71, 51
1, 58080, Note_on_c, 0, 55, 36
1, 58140, Note_on_c, 0, 71, 0
1, 58160, Note_on_c, 0, 55, 0
1, 58160, Note_on_c, 0, 62, 26
1, 58240, Note_on_c, 0, 62, 0
1, 58240, Note_on_c, 0, 65, 24
1, 58320, Tempo, 681818
1, 58320, Note_on_c, 0, 65, 0
1, 58320, Note_on_c, 0, 67, 43
1, 58400, Note_on_c, 0, 67, 0
1, 58400, Note_on_c, 0, 69, 39
1, 58480, Tempo, 754717
1, 58480, Note_on_c, 0, 69, 0
1, 58480, Note_on_c, 0, 71, 38
1, 58560, Tempo, 662983
1, 58560, Note_on_c, 0, 71, 0
1, 58560, Note_on_c, 0, 72, 50
1, 58560, Note_on_c, 0, 60, 34
1, 58620, Note_on_c, 0, 72, 0
1, 58640, Note_on_c, 0, 60, 0
1, 58641, Note_on_c, 0, 62, 30
1, 58720, Note_on_c, 0, 64, 30
1, 58721, Note_on_c, 0, 62, 0
1, 58800, Note_on_c, 0, 64, 0
1, 58800, Note_on_c, 0, 60, 34
1, 58880, Note_on_c, 0, 60, 0
1, 58881, Note_on_c, 0, 62, 30
1, 58960, Note_on_c, 0, 64, 30
1, 58961, Note_on_c, 0, 62, 0
1, 59040, Note_on_c, 0, 64, 0
1, 59040, Note_on_c, 0, 72, 45
1, 59040, Note_on_c, 0, 60, 34
1, 59100, Note_on_c, 0, 60, 0
1, 59120, Note_on_c, 0, 72, 0
1, 59120, Note_on_c, 0, 74, 39
1, 59200, Note_on_c, 0, 74, 0
1, 59200, Note_on_c, 0, 76, 40
1, 59280, Note_on_c, 0, 76, 0
1, 59280, Note_on_c, 0, 72, 46
1, 59360, Note_on_c, 0, 72, 0
1, 59360, Note_on_c, 0, 74, 39
1, 59440, Note_on_c, 0, 74, 0
1, 59440, Note_on_c, 0, 76, 39
1, 59520, Note_on_c, 0, 76, 0
1, 59520, Note_on_c, 0, 74, 47
1, 59520, Note_on_c, 0, 71, 38
1, 59539, Tempo, 659341
1, 59580, Note_on_c, 0, 71, 0
1, 59597, Tempo, 662983
1, 59600, Note_on_c, 0, 74, 0
1, 59600, Note_on_c, 0, 76, 37
1, 59635, Tempo, 666667
1, 59680, Note_on_c, 0, 76, 0
1, 59680, Note_on_c, 0, 77, 37
1, 59693, Tempo, 670391
1, 59731, Tempo, 674157
1, 59760, Note_on_c, 0, 77, 0
1, 59760, Note_on_c, 0, 74, 43
1, 59789, Tempo, 677966
1, 59827, Tempo, 681818
1, 59840, Note_on_c, 0, 74, 0
1, 59840, Note_on_c, 0, 76, 38
1, 59885, Tempo, 685714
1, 59920, Note_on_c, 0, 76, 0
1, 59920, Note_on_c, 0, 77, 38
1, 59923, Tempo, 689655
1, 59981, Tempo, 693642
1, 60000, Tempo, 693642
1, 60000, Note_on_c, 0, 77, 0
1, 60000, Note_on_c, 0, 76, 43
1, 60000, Note_on_c, 0, 70, 41
1, 60039, Tempo, 697674
1, 60041, Tempo, 693642
1, 60060, Note_on_c, 0, 70, 0
1, 60079, Tempo, 697674
1, 60080, Note_on_c, 0, 76, 0
1, 60080, Note_on_c, 0, 77, 38
1, 60098, Tempo, 701754
1, 60117, Tempo, 705882
1, 60156, Tempo, 710059
1, 60160, Note_on_c, 0, 77, 0
1, 60160, Note_on_c, 0, 79, 33
1, 60175, Tempo, 714286
1, 60194, Tempo, 718563
1, 60213, Tempo, 722892
1, 60240, Note_on_c, 0, 79, 0
1, 60240, Note_on_c, 0, 76, 37
1, 60252, Tempo, 727273
1, 60271, Tempo, 731707
1, 60290, Tempo, 736196
1, 60309, Tempo, 740741
1, 60320, Note_on_c, 0, 76, 0
1, 60320, Note_on_c, 0, 77, 34
1, 60329, Tempo, 759494
1, 60348, Tempo, 764331
1, 60367, Tempo, 769231
1, 60386, Tempo, 774194
1, 60400, Note_on_c, 0, 77, 0
1, 60400, Note_on_c, 0, 79, 29
1, 60405, Tempo, 779221
1, 60425, Tempo, 784314
1, 60444, Tempo, 794702
1, 60480, Tempo, 662983
1, 60480, Note_on_c, 0, 79, 0
1, 60960, Note_on_c, 0, 77, 45
1, 61040, Tempo, 652174
1, 61040, Note_on_c, 0, 77, 0
1, 61040, Note_on_c, 0, 79, 38
1, 61120, Note_on_c, 0, 79, 0
1, 61120, Note_on_c, 0, 81, 38
1, 61200, Note_on_c, 0, 81, 0
1, 61200, Note_on_c, 0, 77, 44
1, 61280, Note_on_c, 0, 77, 0
1, 61280, Note_on_c, 0, 79, 37
1, 61360, Tempo, 759494
1, 61360, Note_on_c, 0, 79, 0
1, 61360, Note_on_c, 0, 81, 37
1, 61440, Tempo, 689655
1, 61440, Note_on_c, 0, 81, 0
1, 61440, Note_on_c, 0, 72, 45
1, 61440, Note_on_c, 0, 69, 36
1, 61440, Note_on_c, 0, 65, 30
1, 61500, Note_on_c, 0, 65, 0
1, 61500, Note_on_c, 0, 69, 0
1, 61500, Note_on_c, 0, 72, 0
1, 61680, Note_on_c, 0, 72, 45
1, 61680, Note_on_c, 0, 69, 36
1, 61680, Note_on_c, 0, 65, 30
1, 61740, Note_on_c, 0, 65, 0
1, 61740, Note_on_c, 0, 69, 0
1, 61740, Note_on_c, 0, 72, 0
1, 61920, Tempo, 655738
1, 61920, Note_on_c, 0, 77, 45
1, 62000, Note_on_c, 0, 77, 0
1, 62000, Note_on_c, 0, 79, 38
1, 62080, Note_on_c, 0, 79, 0
1, 62080, Note_on_c, 0, 81, 38
1, 62160, Note_on_c, 0, 81, 0
1, 62160, Note_on_c, 0, 77, 44
1, 62240, Note_on_c, 0, 77, 0
1, 62240, Note_on_c, 0, 79, 37
1, 62320, Tempo, 710059
1, 62320, Note_on_c, 0, 79, 0
1, 62320, Note_on_c, 0, 81, 37
1, 62400, Tempo, 681818
1, 62400, Note_on_c, 0, 81, 0
1, 62400, Note_on_c, 0, 74, 45
1, 62400, Note_on_c, 0, 70, 36
1, 62400, Note_on_c, 0, 65, 30
1, 62460, Note_on_c, 0, 65, 0
1, 62460, Note_on_c, 0, 70, 0
1, 62460, Note_on_c, 0, 74, 0
1, 62640, Note_on_c, 0, 74, 45
1, 62640, Note_on_c, 0, 70, 36
1, 62640, Note_on_c, 0, 65, 30
1, 62700, Note_on_c, 0, 65, 0
1, 62700, Note_on_c, 0, 70, 0
1, 62700, Note_on_c, 0, 74, 0
1, 62880, Tempo, 655738
1, 62880, Note_on_c, 0, 86, 53
1, 62960, Tempo, 666667
1, 62960, Note_on_c, 0, 86, 0
1, 62960, Note_on_c, 0, 84, 50
1, 63040, Note_on_c, 0, 84, 0
1, 63040, Note_on_c, 0, 82, 50
1, 63120, Note_on_c, 0, 82, 0
1, 63120, Note_on_c, 0, 81, 55
1, 63200, Note_on_c, 0, 81, 0
1, 63200, Note_on_c, 0, 79, 57
1, 63280, Note_on_c, 0, 79, 0
1, 63280, Note_on_c, 0, 77, 58
1, 63360, Note_on_c, 0, 77, 0
1, 63360, Note_on_c, 0, 76, 63
1, 63360, Note_on_c, 0, 60, 47
1, 63360, Note_on_c, 0, 55, 39
1, 63360, Note_on_c, 0, 52, 39
1, 63360, Note_on_c, 0, 48, 39
1, 63440, Note_on_c, 0, 76, 0
1, 63440, Note_on_c, 0, 79, 57
1, 63520, Note_on_c, 0, 79, 0
1, 63520, Note_on_c, 0, 77, 56
1, 63600, Note_on_c, 0, 77, 0
1, 63600, Note_on_c, 0, 76, 62
1, 63680, Note_on_c, 0, 76, 0
1, 63680, Note_on_c, 0, 74, 54
1, 63760, Note_on_c, 0, 74, 0
1, 63760, Note_on_c, 0, 72, 54
1, 63840, Note_on_c, 0, 72, 0
1, 63840, Note_on_c, 0, 70, 56
1, 63920, Note_on_c, 0, 70, 0
1, 63920, Note_on_c, 0, 69, 50
1, 64000, Note_on_c, 0, 69, 0
1, 64000, Note_on_c, 0, 67, 50
1, 64080, Note_on_c, 0, 67, 0
1, 64080, Note_on_c, 0, 74, 61
1, 64160, Note_on_c, 0, 74, 0
1, 64160, Note_on_c, 0, 72, 53
1, 64240, Note_on_c, 0, 72, 0
1, 64240, Note_on_c, 0, 70, 53
1, 64320, Tempo, 697674
1, 64320, Note_on_c, 0, 70, 0
1, 64320, Note_on_c, 0, 48, 0
1, 64320, Note_on_c, 0, 60, 0
1, 64320, Note_on_c, 0, 55, 0
1, 64320, Note_on_c, 0, 52, 0
1, 64320, Note_on_c, 0, 69, 63
1, 64320, Note_on_c, 0, 53, 41
1, 64380, Note_on_c, 0, 69, 0
1, 64400, Note_on_c, 0, 53, 0
1, 64400, Note_on_c, 0, 57, 31
1, 64480, Note_on_c, 0, 57, 0
1, 64480, Note_on_c, 0, 60, 28
1, 64560, Note_on_c, 0, 60, 0
1, 64560, Note_on_c, 0, 72, 57
1, 64560, Note_on_c, 0, 53, 37
1, 64620, Note_on_c, 0, 72, 0
1, 64640, Note_on_c, 0, 53, 0
1, 64640, Note_on_c, 0, 57, 34
1, 64720, Note_on_c, 0, 57, 0
1, 64720, Note_on_c, 0, 60, 29
1, 64800, Tempo, 666667
1, 64800, Note_on_c, 0, 60, 0
1, 64800, Note_on_c, 0, 53, 39
1, 64880, Note_on_c, 0, 53, 0
1, 64880, Note_on_c, 0, 57, 33
1, 64960, Note_on_c, 0, 57, 0
1, 64960, Note_on_c, 0, 60, 26
1, 65040, Note_on_c, 0, 60, 0
1, 65040, Note_on_c, 0, 84, 64
1, 65040, Note_on_c, 0, 53, 41
1, 65120, Note_on_c, 0, 53, 0
1, 65120, Note_on_c, 0, 57, 32
1, 65200, Note_on_c, 0, 57, 0
1, 65200, Note_on_c, 0, 60, 25
1, 65280, Tempo, 677966
1, 65280, Note_on_c, 0, 60, 0
1, 65280, Note_on_c, 0, 84, 0
1, 65280, Note_on_c, 0, 81, 69
1, 65280, Note_on_c, 0, 53, 41
1, 65360, Tempo, 662983
1, 65360, Note_on_c, 0, 53, 0
1, 65360, Note_on_c, 0, 57, 31
1, 65440, Note_on_c, 0, 57, 0
1, 65440, Note_on_c, 0, 60, 27
1, 65520, Tempo, 677966
1, 65520, Note_on_c, 0, 60, 0
1, 65520, Note_on_c, 0, 81, 0
1, 65520, Note_on_c, 0, 77, 63
1, 65520, Note_on_c, 0, 53, 38
1, 65600, Note_on_c, 0, 53, 0
1, 65600, Note_on_c, 0, 57, 35
1, 65680, Note_on_c, 0, 57, 0
1, 65680, Note_on_c, 0, 60, 29
1, 65760, Note_on_c, 0, 60, 0
1, 65760, Note_on_c, 0, 77, 0
1, 65760, Note_on_c, 0, 74, 68
1, 65760, Note_on_c, 0, 53, 39
1, 65840, Tempo, 659341
1, 65840, Note_on_c, 0, 53, 0
1, 65840, Note_on_c, 0, 58, 30
1, 65920, Note_on_c, 0, 58, 0
1, 65920, Note_on_c, 0, 62, 24
1, 66000, Tempo, 674157
1, 66000, Note_on_c, 0, 62, 0
1, 66000, Note_on_c, 0, 74, 0
1, 66000, Note_on_c, 0, 70, 54
1, 66000, Note_on_c, 0, 53, 37
1, 66080, Note_on_c, 0, 53, 0
1, 66080, Note_on_c, 0, 58, 32
1, 66160, Tempo, 779221
1, 66160, Note_on_c, 0, 58, 0
1, 66160, Note_on_c, 0, 62, 27
1, 66240, Tempo, 693642
1, 66240, Note_on_c, 0, 62, 0
1, 66240, Note_on_c, 0, 70, 0
1, 66240, Note_on_c, 0, 69, 58
1, 66240, Note_on_c, 0, 53, 41
1, 66320, Note_on_c, 0, 53, 0
1, 66320, Note_on_c, 0, 57, 31
1, 66400, Note_on_c, 0, 57, 0
1, 66400, Note_on_c, 0, 60, 25
1, 66480, Note_on_c, 0, 60, 0
1, 66480, Note_on_c, 0, 69, 0
1, 66480, Note_on_c, 0, 72, 50
1, 66480, Note_on_c, 0, 53, 35
1, 66560, Note_on_c, 0, 53, 0
1, 66560, Note_on_c, 0, 57, 27
1, 66640, Note_on_c, 0, 57, 0
1, 66640, Note_on_c, 0, 60, 21
1, 66720, Tempo, 670391
1, 66720, Note_on_c, 0, 60, 0
1, 66720, Note_on_c, 0, 72, 0
1, 66720, Note_on_c, 0, 53, 37
1, 66800, Note_on_c, 0, 53, 0
1, 66800, Note_on_c, 0, 57, 31
1, 66880, Note_on_c, 0, 57, 0
1, 66880, Note_on_c, 0, 60, 24
1, 66960, Note_on_c, 0, 60, 0
1, 66960, Note_on_c, 0, 84, 64
1, 66960, Note_on_c, 0, 53, 41
1, 67040, Note_on_c, 0, 53, 0
1, 67040, Note_on_c, 0, 57, 32
1, 67120, Note_on_c, 0, 57, 0
1, 67120, Note_on_c, 0, 60, 24
1, 67200, Tempo, 655738
1, 67200, Note_on_c, 0, 60, 0
1, 67200, Note_on_c, 0, 84, 0
1, 67200, Note_on_c, 0, 81, 69
1, 67200, Note_on_c, 0, 53, 41
1, 67280, Tempo, 655738
1, 67280, Note_on_c, 0, 53, 0
1, 67280, Note_on_c, 0, 57, 31
1, 67360, Tempo, 662983
1, 67360, Note_on_c, 0, 57, 0
1, 67360, Note_on_c, 0, 60, 29
1, 67440, Note_on_c, 0, 60, 0
1, 67440, Note_on_c, 0, 81, 0
1, 67440, Note_on_c, 0, 77, 63
1, 67440, Note_on_c, 0, 53, 38
1, 67520, Note_on_c, 0, 53, 0
1, 67520, Note_on_c, 0, 57, 35
1, 67600, Note_on_c, 0, 57, 0
1, 67600, Note_on_c, 0, 60, 30
1, 67680, Tempo, 652174
1, 67680, Note_on_c, 0, 60, 0
1, 67680, Note_on_c, 0, 77, 0
1, 67680, Note_on_c, 0, 76, 68
1, 67680, Note_on_c, 0, 55, 39
1, 67760, Note_on_c, 0, 55, 0
1, 67760, Note_on_c, 0, 58, 30
1, 67840, Tempo, 705882
1, 67840, Note_on_c, 0, 58, 0
1, 67840, Note_on_c, 0, 64, 26
1, 67920, Tempo, 685714
1, 67920, Note_on_c, 0, 64, 0
1, 67920, Note_on_c, 0, 76, 0
1, 67920, Note_on_c, 0, 86, 69
1, 67920, Note_on_c, 0, 55, 37
1, 68000, Note_on_c, 0, 55, 0
1, 68000, Note_on_c, 0, 58, 32
1, 68080, Note_on_c, 0, 58, 0
1, 68080, Note_on_c, 0, 64, 23
1, 68160, Tempo, 693642
1, 68160, Note_on_c, 0, 64, 0
1, 68160, Note_on_c, 0, 86, 0
1, 68160, Note_on_c, 0, 84, 64
1, 68160, Note_on_c, 0, 57, 41
1, 68220, Note_on_c, 0, 84, 0
1, 68240, Note_on_c, 0, 57, 0
1, 68240, Note_on_c, 0, 60, 31
1, 68311, Tempo, 655738
1, 68320, Note_on_c, 0, 60, 0
1, 68320, Note_on_c, 0, 65, 27
1, 68400, Note_on_c, 0, 65, 0
1, 68400, Note_on_c, 0, 84, 53
1, 68437, Tempo, 659341
1, 68480, Note_on_c, 0, 84, 0
1, 68480, Note_on_c, 0, 82, 49
1, 68560, Note_on_c, 0, 82, 0
1, 68560, Note_on_c, 0, 81, 49
1, 68563, Tempo, 662983
1, 68640, Note_on_c, 0, 81, 0
1, 68640, Note_on_c, 0, 79, 58
1, 68640, Note_on_c, 0, 58, 41
1, 68690, Tempo, 666667
1, 68700, Note_on_c, 0, 79, 0
1, 68715, Tempo, 648649
1, 68720, Note_on_c, 0, 58, 0
1, 68720, Note_on_c, 0, 62, 31
1, 68800, Note_on_c, 0, 62, 0
1, 68800, Note_on_c, 0, 67, 26
1, 68816, Tempo, 652174
1, 68880, Note_on_c, 0, 67, 0
1, 68880, Note_on_c, 0, 82, 53
1, 68892, Tempo, 655738
1, 68960, Note_on_c, 0, 82, 0
1, 68960, Note_on_c, 0, 81, 49
1, 68968, Tempo, 659341
1, 69040, Note_on_c, 0, 81, 0
1, 69040, Note_on_c, 0, 79, 49
1, 69043, Tempo, 662983
1, 69119, Tempo, 666667
1, 69120, Note_on_c, 0, 79, 0
1, 69120, Note_on_c, 0, 77, 54
1, 69120, Note_on_c, 0, 60, 41
1, 69170, Tempo, 662983
1, 69180, Note_on_c, 0, 77, 0
1, 69200, Note_on_c, 0, 60, 0
1, 69200, Note_on_c, 0, 65, 31
1, 69280, Note_on_c, 0, 65, 0
1, 69280, Note_on_c, 0, 69, 27
1, 69360, Note_on_c, 0, 69, 0
1, 69360, Note_on_c, 0, 77, 50
1, 69360, Note_on_c, 0, 60, 33
1, 69440, Note_on_c, 0, 60, 0
1, 69440, Note_on_c, 0, 65, 29
1, 69480, Note_on_c, 0, 77, 0
1, 69480, Note_on_c, 0, 79, 42
1, 69520, Note_on_c, 0, 79, 0
1, 69520, Note_on_c, 0, 65, 0
1, 69520, Note_on_c, 0, 77, 41
1, 69520, Note_on_c, 0, 69, 24
1, 69560, Note_on_c, 0, 77, 0
1, 69560, Note_on_c, 0, 76, 37
1, 69574, Tempo, 662983
1, 69600, Note_on_c, 0, 76, 0
1, 69600, Note_on_c, 0, 69, 0
1, 69600, Note_on_c, 0, 81, 54
1, 69600, Note_on_c, 0, 60, 34
1, 69680, Note_on_c, 0, 60, 0
1, 69680, Note_on_c, 0, 65, 29
1, 69760, Note_on_c, 0, 65, 0
1, 69760, Note_on_c, 0, 69, 25
1, 69840, Note_on_c, 0, 69, 0
1, 69840, Note_on_c, 0, 81, 0
1, 69840, Note_on_c, 0, 79, 43
1, 69840, Note_on_c, 0, 60, 31
1, 69919, Note_on_c, 0, 64, 26
1, 69920, Note_on_c, 0, 60, 0
1, 69999, Note_on_c, 0, 64, 0
1, 70000, Tempo, 740741
1, 70001, Note_on_c, 0, 70, 22
1, 70080, Tempo, 662983
1, 70080, Note_on_c, 0, 79, 0
1, 70080, Note_on_c, 0, 65, 36
1, 70081, Note_on_c, 0, 70, 0
1, 70160, Note_on_c, 0, 65, 0
1, 70160, Note_on_c, 0, 69, 26
1, 70240, Note_on_c, 0, 69, 0
1, 70240, Note_on_c, 0, 72, 26
1, 70320, Tempo, 645161
1, 70320, Note_on_c, 0, 72, 0
1, 70320, Note_on_c, 0, 77, 50
1, 70320, Note_on_c, 0, 65, 33
1, 70400, Note_on_c, 0, 65, 0
1, 70400, Note_on_c, 0, 69, 27
1, 70440, Note_on_c, 0, 77, 0
1, 70440, Note_on_c, 0, 79, 42
1, 70480, Note_on_c, 0, 79, 0
1, 70480, Note_on_c, 0, 69, 0
1, 70480, Note_on_c, 0, 77, 41
1, 70480, Note_on_c, 0, 72, 27
1, 70520, Note_on_c, 0, 77, 0
1, 70520, Note_on_c, 0, 76, 37
1, 70560, Tempo, 659341
1, 70560, Note_on_c, 0, 76, 0
1, 70560, Note_on_c, 0, 72, 0
1, 70560, Note_on_c, 0, 65, 41
1, 70640, Note_on_c, 0, 65, 0
1, 70640, Note_on_c, 0, 70, 29
1, 70720, Note_on_c, 0, 70, 0
1, 70720, Note_on_c, 0, 74, 24
1, 70800, Tempo, 645161
1, 70800, Note_on_c, 0, 74, 0
1, 70800, Note_on_c, 0, 77, 50
1, 70800, Note_on_c, 0, 65, 33
1, 70880, Note_on_c, 0, 65, 0
1, 70880, Note_on_c, 0, 70, 27
1, 70920, Note_on_c, 0, 77, 0
1, 70920, Note_on_c, 0, 79, 42
1, 70960, Note_on_c, 0, 79, 0
1, 70960, Note_on_c, 0, 70, 0
1, 70960, Note_on_c, 0, 77, 41
1, 70960, Note_on_c, 0, 74, 25
1, 71000, Note_on_c, 0, 77, 0
1, 71000, Note_on_c, 0, 76, 37
1, 71040, Tempo, 659341
1, 71040, Note_on_c, 0, 76, 0
1, 71040, Note_on_c, 0, 74, 0
1, 71040, Note_on_c, 0, 65, 41
1, 71120, Note_on_c, 0, 65, 0
1, 71120, Note_on_c, 0, 69, 29
1, 71200, Tempo, 705882
1, 71200, Note_on_c, 0, 69, 0
1, 71200, Note_on_c, 0, 72, 25
1, 71280, Tempo, 662983
1, 71280, Note_on_c, 0, 72, 0
1, 71280, Note_on_c, 0, 81, 53
1, 71360, Note_on_c, 0, 81, 0
1, 71360, Note_on_c, 0, 79, 54
1, 71440, Note_on_c, 0, 79, 0
1, 71440, Note_on_c, 0, 77, 55
1, 71520, Note_on_c, 0, 77, 0
1, 71520, Note_on_c, 0, 76, 57
1, 71600, Note_on_c, 0, 76, 0
1, 71600, Note_on_c, 0, 74, 58
1, 71680, Note_on_c, 0, 74, 0
1, 71680, Note_on_c, 0, 72, 60
1, 71760, Note_on_c, 0, 72, 0
1, 71760, Note_on_c, 0, 70, 61
1, 71760, Note_on_c, 0, 48, 41
1, 71760, Note_on_c, 0, 60, 49
1, 71840, Note_on_c, 0, 70, 0
1, 71840, Note_on_c, 0, 69, 62
1, 71920, Note_on_c, 0, 69, 0
1, 71920, Note_on_c, 0, 67, 64
1, 72000, Note_on_c, 0, 67, 0
1, 72000, Note_on_c, 0, 60, 0
1, 72000, Note_on_c, 0, 48, 0
1, 72000, Note_on_c, 0, 65, 70
1, 72000, Note_on_c, 0, 53, 57
1, 72060, Note_on_c, 0, 65, 0
1, 72080, Note_on_c, 0, 53, 0
1, 72080, Note_on_c, 0, 57, 40
1, 72160, Note_on_c, 0, 57, 0
1, 72160, Note_on_c, 0, 60, 32
1, 72240, Tempo, 645161
1, 72240, Note_on_c, 0, 60, 0
1, 72240, Note_on_c, 0, 65, 70
1, 72240, Note_on_c, 0, 53, 46
1, 72320, Note_on_c, 0, 53, 0
1, 72320, Note_on_c, 0, 57, 37
1, 72360, Note_on_c, 0, 65, 0
1, 72360, Note_on_c, 0, 67, 58
1, 72400, Note_on_c, 0, 67, 0
1, 72400, Note_on_c, 0, 57, 0
1, 72400, Note_on_c, 0, 65, 57
1, 72400, Note_on_c, 0, 60, 32
1, 72440, Note_on_c, 0, 65, 0
1, 72440, Note_on_c, 0, 64, 51
1, 72480, Tempo, 659341
1, 72480, Note_on_c, 0, 64, 0
1, 72480, Note_on_c, 0, 60, 0
1, 72480, Note_on_c, 0, 53, 57
1, 72560, Note_on_c, 0, 53, 0
1, 72560, Note_on_c, 0, 58, 40
1, 72640, Note_on_c, 0, 58, 0
1, 72640, Note_on_c, 0, 62, 33
1, 72720, Tempo, 648649
1, 72720, Note_on_c, 0, 62, 0
1, 72720, Note_on_c, 0, 65, 70
1, 72720, Note_on_c, 0, 53, 46
1, 72800, Note_on_c, 0, 53, 0
1, 72800, Note_on_c, 0, 58, 37
1, 72840, Note_on_c, 0, 65, 0
1, 72840, Note_on_c, 0, 67, 58
1, 72880, Note_on_c, 0, 67, 0
1, 72880, Note_on_c, 0, 58, 0
1, 72880, Note_on_c, 0, 65, 57
1, 72880, Note_on_c, 0, 62, 32
1, 72920, Note_on_c, 0, 65, 0
1, 72920, Note_on_c, 0, 64, 51
1, 72960, Tempo, 697674
1, 72960, Note_on_c, 0, 64, 0
1, 72960, Note_on_c, 0, 62, 0
1, 72960, Note_on_c, 0, 53, 57
1, 73040, Note_on_c, 0, 53, 0
1, 73040, Note_on_c, 0, 57, 40
1, 73120, Note_on_c, 0, 57, 0
1, 73120, Note_on_c, 0, 60, 33
1, 73200, Tempo, 670391
1, 73200, Note_on_c, 0, 60, 0
1, 73200, Note_on_c, 0, 69, 67
1, 73280, Note_on_c, 0, 69, 0
1, 73280, Note_on_c, 0, 67, 63
1, 73360, Note_on_c, 0, 67, 0
1, 73360, Note_on_c, 0, 65, 63
1, 73440, Note_on_c, 0, 65, 0
1, 73440, Note_on_c, 0, 64, 67
1, 73440, Note_on_c, 0, 48, 68
1, 73440, Note_on_c, 0, 36, 57
1, 73477, Tempo, 662983
1, 73515, Tempo, 666667
1, 73520, Note_on_c, 0, 64, 0
1, 73520, Note_on_c, 0, 62, 63
1, 73565, Tempo, 670391
1, 73591, Tempo, 674157
1, 73600, Note_on_c, 0, 62, 0
1, 73600, Note_on_c, 0, 60, 64
1, 73616, Tempo, 677966
1, 73641, Tempo, 681818
1, 73667, Tempo, 685714
1, 73680, Note_on_c, 0, 60, 0
1, 73680, Note_on_c, 0, 58, 67
1, 73692, Tempo, 689655
1, 73717, Tempo, 693642
1, 73742, Tempo, 697674
1, 73760, Note_on_c, 0, 58, 0
1, 73760, Note_on_c, 0, 57, 68
1, 73768, Tempo, 701754
1, 73793, Tempo, 705882
1, 73818, Tempo, 710059
1, 73840, Note_on_c, 0, 57, 0
1, 73840, Note_on_c, 0, 55, 68
1, 73843, Tempo, 714286
1, 73869, Tempo, 718563
1, 73919, Tempo, 689655
1, 73920, Tempo, 693642
1, 73920, Note_on_c, 0, 55, 0
1, 73920, Note_on_c, 0, 36, 0
1, 73920, Note_on_c, 0, 48, 0
1, 73920, Note_on_c, 0, 53, 76
1, 73920, Note_on_c, 0, 41, 63
1, 74000, Note_on_c, 0, 41, 0
1, 74000, Note_on_c, 0, 45, 53
1, 74040, Note_on_c, 0, 53, 0
1, 74080, Note_on_c, 0, 45, 0
1, 74080, Note_on_c, 0, 48, 46
1, 74160, Note_on_c, 0, 48, 0
1, 74160, Note_on_c, 0, 41, 63
1, 74240, Note_on_c, 0, 41, 0
1, 74240, Note_on_c, 0, 45, 53
1, 74320, Note_on_c, 0, 45, 0
1, 74320, Note_on_c, 0, 48, 48
1, 74399, Tempo, 710059
1, 74400, Note_on_c, 0, 48, 0
1, 74400, Note_on_c, 0, 60, 60
1, 74400, Note_on_c, 0, 65, 76
1, 74400, Note_on_c, 0, 57, 60
1, 74400, Note_on_c, 0, 41, 63
1, 74424, Tempo, 714286
1, 74450, Tempo, 718563
1, 74475, Tempo, 727273
1, 74480, Note_on_c, 0, 41, 0
1, 74480, Note_on_c, 0, 45, 53
1, 74500, Tempo, 731707
1, 74520, Note_on_c, 0, 60, 0
1, 74520, Note_on_c, 0, 57, 0
1, 74520, Note_on_c, 0, 65, 0
1, 74525, Tempo, 736196
1, 74551, Tempo, 745342
1, 74560, Note_on_c, 0, 45, 0
1, 74560, Note_on_c, 0, 48, 46
1, 74576, Tempo, 750000
1, 74601, Tempo, 759494
1, 74627, Tempo, 764331
1, 74640, Note_on_c, 0, 48, 0
1, 74640, Note_on_c, 0, 41, 63
1, 74652, Tempo, 769231
1, 74677, Tempo, 779221
1, 74702, Tempo, 784314
1, 74720, Note_on_c, 0, 41, 0
1, 74720, Note_on_c, 0, 45, 53
1, 74728, Tempo, 789474
1, 74753, Tempo, 800000
1, 74800, Tempo, 1263158
1, 74800, Note_on_c, 0, 45, 0
1, 74800, Note_on_c, 0, 48, 47
1, 74879, Tempo, 794702
1, 74880, Tempo, 967742
1, 74880, Note_on_c, 0, 48, 0
1, 74880, Note_on_c, 0, 57, 60
1, 74880, Note_on_c, 0, 60, 60
1, 74880, Note_on_c, 0, 65, 76
1, 74880, Note_on_c, 0, 41, 63
1, 75028, Control_c, 0, 64, 127
1, 75120, Tempo, 991736
1, 75240, Note_on_c, 0, 41, 0
1, 75240, Note_on_c, 0, 57, 0
1, 75240, Note_on_c, 0, 60, 0
1, 75240, Note_on_c, 0, 65, 0
1, 75621, Control_c, 0, 64, 0
1, 75621, End_track
0, 0, End_of_file
