0, 0, Header, 0, 1, 480
1, 0, Start_track
1, 0, Title_t, "Clementi: Sonatine Opus 36 Nr. 2, 2. Satz"
1, 0, Copyright_t, "Copyright © 2010 by Bernd Krueger"
1, 0, Text_t, "Muzio Clementi"
1, 0, Text_t, "Allegretto"
1, 0, Text_t, "Erstellt: 30.11.2010\012"
1, 0, Text_t, "Dauer: 1:06 Minuten\012"
1, 0, Time_signature, 3, 2, 24, 8
1, 0, Key_signature, 0, "major"
1, 0, Tempo, 785443
1, 0, Program_c, 0, 0
1, 0, Note_on_c, 0, 64, 50
1, 0, Program_c, 0, 0
1, 0, Note_on_c, 0, 60, 35
1, 0, Program_c, 0, 0
1, 360, Tempo, 682672
1, 360, Note_on_c, 0, 64, 0
1, 360, Note_on_c, 0, 67, 40
1, 480, Tempo, 751033
1, 480, Note_on_c, 0, 67, 0
1, 480, Note_on_c, 0, 72, 50
1, 840, Tempo, 686577
1, 840, Note_on_c, 0, 72, 0
1, 840, Note_on_c, 0, 69, 41
1, 960, Tempo, 746361
1, 960, Note_on_c, 0, 69, 0
1, 960, Note_on_c, 0, 60, 0
1, 960, Note_on_c, 0, 67, 47
1, 960, Note_on_c, 0, 59, 30
1, 1200, Tempo, 799041
1, 1320, Note_on_c, 0, 67, 0
1, 1320, Note_on_c, 0, 65, 42
1, 1440, Tempo, 749157
1, 1440, Note_on_c, 0, 65, 0
1, 1440, Note_on_c, 0, 59, 0
1, 1440, Note_on_c, 0, 64, 50
1, 1440, Note_on_c, 0, 60, 35
1, 1800, Tempo, 690528
1, 1800, Note_on_c, 0, 64, 0
1, 1800, Note_on_c, 0, 67, 40
1, 1920, Tempo, 741748
1, 1920, Note_on_c, 0, 67, 0
1, 1920, Note_on_c, 0, 72, 50
1, 2280, Tempo, 694525
1, 2280, Note_on_c, 0, 72, 0
1, 2280, Note_on_c, 0, 69, 41
1, 2400, Tempo, 741748
1, 2400, Note_on_c, 0, 69, 0
1, 2400, Note_on_c, 0, 60, 0
1, 2400, Note_on_c, 0, 67, 47
1, 2400, Note_on_c, 0, 59, 30
1, 2640, Tempo, 799041
1, 2760, Tempo, 793756
1, 2760, Note_on_c, 0, 67, 0
1, 2760, Note_on_c, 0, 65, 42
1, 2880, Tempo, 753864
1, 2880, Note_on_c, 0, 65, 0
1, 2880, Note_on_c, 0, 59, 0
1, 2880, Note_on_c, 0, 64, 50
1, 2880, Note_on_c, 0, 60, 35
1, 3240, Tempo, 698568
1, 3240, Note_on_c, 0, 64, 0
1, 3240, Note_on_c, 0, 67, 40
1, 3360, Tempo, 751033
1, 3360, Note_on_c, 0, 67, 0
1, 3360, Note_on_c, 0, 60, 0
1, 3360, Note_on_c, 0, 69, 50
1, 3360, Note_on_c, 0, 53, 30
1, 3720, Tempo, 702658
1, 3720, Note_on_c, 0, 69, 0
1, 3720, Note_on_c, 0, 65, 41
1, 3840, Tempo, 746361
1, 3840, Note_on_c, 0, 65, 0
1, 3840, Note_on_c, 0, 62, 47
1, 4080, Tempo, 788540
1, 4200, Note_on_c, 0, 62, 0
1, 4200, Note_on_c, 0, 60, 42
1, 4320, Tempo, 749157
1, 4320, Note_on_c, 0, 60, 0
1, 4320, Note_on_c, 0, 53, 0
1, 4320, Note_on_c, 0, 59, 47
1, 4320, Note_on_c, 0, 55, 35
1, 4468, Control_c, 0, 64, 127
1, 4680, Tempo, 682672
1, 4680, Note_on_c, 0, 59, 0
1, 4680, Note_on_c, 0, 62, 42
1, 4800, Tempo, 741748
1, 4800, Note_on_c, 0, 62, 0
1, 4800, Note_on_c, 0, 55, 0
1, 4800, Note_on_c, 0, 60, 47
1, 4800, Note_on_c, 0, 52, 45
1, 4817, Control_c, 0, 64, 0
1, 5160, Tempo, 686577
1, 5160, Note_on_c, 0, 52, 0
1, 5160, Note_on_c, 0, 55, 37
1, 5280, Tempo, 746361
1, 5280, Note_on_c, 0, 55, 0
1, 5280, Note_on_c, 0, 60, 0
1, 5280, Note_on_c, 0, 52, 49
1, 5520, Tempo, 856042
1, 5640, Note_on_c, 0, 52, 0
1, 5640, Note_on_c, 0, 48, 45
1, 5760, Tempo, 799041
1, 5760, Note_on_c, 0, 48, 0
1, 5760, Note_on_c, 0, 65, 61
1, 5760, Note_on_c, 0, 62, 51
1, 5760, Note_on_c, 0, 47, 61
1, 5817, Control_c, 0, 64, 127
1, 6000, Tempo, 744509
1, 6120, Tempo, 698568
1, 6120, Note_on_c, 0, 47, 0
1, 6120, Note_on_c, 0, 50, 47
1, 6240, Tempo, 732690
1, 6240, Note_on_c, 0, 50, 0
1, 6240, Note_on_c, 0, 43, 52
1, 6600, Tempo, 686577
1, 6600, Note_on_c, 0, 43, 0
1, 6600, Note_on_c, 0, 47, 37
1, 6720, Tempo, 728244
1, 6720, Note_on_c, 0, 47, 0
1, 6720, Note_on_c, 0, 62, 0
1, 6720, Note_on_c, 0, 65, 0
1, 6720, Note_on_c, 0, 60, 39
1, 6720, Note_on_c, 0, 64, 47
1, 6720, Note_on_c, 0, 48, 43
1, 6734, Control_c, 0, 64, 0
1, 6847, Control_c, 0, 64, 127
1, 6960, Tempo, 856042
1, 7080, Note_on_c, 0, 48, 0
1, 7080, Note_on_c, 0, 52, 41
1, 7200, Tempo, 788540
1, 7200, Note_on_c, 0, 52, 0
1, 7200, Note_on_c, 0, 64, 0
1, 7200, Note_on_c, 0, 60, 0
1, 7200, Note_on_c, 0, 65, 61
1, 7200, Note_on_c, 0, 62, 51
1, 7200, Note_on_c, 0, 47, 61
1, 7214, Control_c, 0, 64, 0
1, 7299, Control_c, 0, 64, 127
1, 7560, Tempo, 706797
1, 7560, Note_on_c, 0, 47, 0
1, 7560, Note_on_c, 0, 50, 47
1, 7680, Tempo, 741748
1, 7680, Note_on_c, 0, 50, 0
1, 7680, Note_on_c, 0, 43, 52
1, 8040, Note_on_c, 0, 43, 0
1, 8040, Note_on_c, 0, 47, 37
1, 8160, Note_on_c, 0, 47, 0
1, 8160, Note_on_c, 0, 62, 0
1, 8160, Note_on_c, 0, 65, 0
1, 8160, Note_on_c, 0, 60, 39
1, 8160, Note_on_c, 0, 64, 47
1, 8160, Note_on_c, 0, 48, 43
1, 8175, Control_c, 0, 64, 0
1, 8301, Control_c, 0, 64, 127
1, 8400, Tempo, 844001
1, 8520, Note_on_c, 0, 48, 0
1, 8520, Note_on_c, 0, 52, 41
1, 8640, Tempo, 788540
1, 8640, Note_on_c, 0, 52, 0
1, 8640, Note_on_c, 0, 64, 0
1, 8640, Note_on_c, 0, 60, 0
1, 8640, Note_on_c, 0, 57, 49
1, 8640, Note_on_c, 0, 53, 35
1, 8652, Control_c, 0, 64, 0
1, 8788, Control_c, 0, 64, 127
1, 9000, Note_on_c, 0, 57, 0
1, 9000, Note_on_c, 0, 62, 42
1, 9120, Tempo, 804397
1, 9120, Note_on_c, 0, 62, 0
1, 9120, Note_on_c, 0, 53, 0
1, 9120, Note_on_c, 0, 55, 47
1, 9120, Note_on_c, 0, 43, 35
1, 9120, Note_on_c, 0, 52, 35
1, 9134, Control_c, 0, 64, 0
1, 9226, Control_c, 0, 64, 127
1, 9480, Note_on_c, 0, 55, 0
1, 9480, Note_on_c, 0, 60, 38
1, 9600, Note_on_c, 0, 60, 0
1, 9600, Note_on_c, 0, 52, 0
1, 9600, Note_on_c, 0, 43, 0
1, 9600, Note_on_c, 0, 53, 45
1, 9600, Note_on_c, 0, 50, 28
1, 9600, Note_on_c, 0, 43, 28
1, 9613, Control_c, 0, 64, 0
1, 9713, Control_c, 0, 64, 127
1, 9840, Tempo, 936183
1, 9960, Note_on_c, 0, 53, 0
1, 9960, Note_on_c, 0, 59, 36
1, 10080, Tempo, 887705
1, 10080, Note_on_c, 0, 59, 0
1, 10080, Note_on_c, 0, 43, 0
1, 10080, Note_on_c, 0, 50, 0
1, 10080, Note_on_c, 0, 53, 32
1, 10080, Note_on_c, 0, 59, 32
1, 10080, Note_on_c, 0, 62, 38
1, 10080, Note_on_c, 0, 48, 37
1, 10088, Control_c, 0, 64, 0
1, 10400, Control_c, 0, 64, 127
1, 10560, Tempo, 998502
1, 10560, Note_on_c, 0, 48, 0
1, 10560, Note_on_c, 0, 43, 31
1, 11040, Tempo, 943545
1, 11040, Note_on_c, 0, 43, 0
1, 11040, Note_on_c, 0, 62, 0
1, 11040, Note_on_c, 0, 59, 0
1, 11040, Note_on_c, 0, 53, 0
1, 11040, Note_on_c, 0, 52, 29
1, 11040, Note_on_c, 0, 60, 35
1, 11040, Note_on_c, 0, 36, 29
1, 11053, Control_c, 0, 64, 0
1, 11520, Tempo, 758629
1, 11520, Note_on_c, 0, 36, 0
1, 11520, Note_on_c, 0, 60, 0
1, 11520, Note_on_c, 0, 52, 0
1, 11520, Note_on_c, 0, 64, 50
1, 11520, Note_on_c, 0, 56, 35
1, 11880, Tempo, 698568
1, 11880, Note_on_c, 0, 64, 0
1, 11880, Note_on_c, 0, 76, 44
1, 12000, Tempo, 755763
1, 12000, Note_on_c, 0, 76, 0
1, 12000, Note_on_c, 0, 74, 50
1, 12360, Tempo, 706797
1, 12360, Note_on_c, 0, 74, 0
1, 12360, Note_on_c, 0, 71, 45
1, 12480, Tempo, 751033
1, 12480, Note_on_c, 0, 71, 0
1, 12480, Note_on_c, 0, 56, 0
1, 12480, Note_on_c, 0, 72, 47
1, 12480, Note_on_c, 0, 57, 30
1, 12720, Tempo, 799041
1, 12840, Note_on_c, 0, 72, 0
1, 12840, Note_on_c, 0, 69, 42
1, 12960, Tempo, 749157
1, 12960, Note_on_c, 0, 69, 0
1, 12960, Note_on_c, 0, 57, 0
1, 12960, Note_on_c, 0, 68, 50
1, 12960, Note_on_c, 0, 62, 35
1, 13320, Tempo, 698568
1, 13320, Note_on_c, 0, 68, 0
1, 13320, Note_on_c, 0, 71, 40
1, 13440, Tempo, 746361
1, 13440, Note_on_c, 0, 71, 0
1, 13440, Note_on_c, 0, 64, 50
1, 13800, Tempo, 698568
1, 13800, Note_on_c, 0, 64, 0
1, 13800, Note_on_c, 0, 68, 41
1, 13920, Tempo, 746361
1, 13920, Note_on_c, 0, 68, 0
1, 13920, Note_on_c, 0, 62, 0
1, 13920, Note_on_c, 0, 69, 47
1, 13920, Note_on_c, 0, 60, 30
1, 14160, Tempo, 799041
1, 14280, Tempo, 793756
1, 14280, Note_on_c, 0, 69, 0
1, 14280, Note_on_c, 0, 72, 42
1, 14400, Tempo, 753864
1, 14400, Note_on_c, 0, 72, 0
1, 14400, Note_on_c, 0, 60, 0
1, 14400, Note_on_c, 0, 62, 50
1, 14400, Note_on_c, 0, 54, 35
1, 14760, Tempo, 702658
1, 14760, Note_on_c, 0, 62, 0
1, 14760, Note_on_c, 0, 74, 40
1, 14880, Tempo, 751033
1, 14880, Note_on_c, 0, 74, 0
1, 14880, Note_on_c, 0, 72, 50
1, 15240, Tempo, 702658
1, 15240, Note_on_c, 0, 72, 0
1, 15240, Note_on_c, 0, 69, 41
1, 15360, Tempo, 751033
1, 15360, Note_on_c, 0, 69, 0
1, 15360, Note_on_c, 0, 54, 0
1, 15360, Note_on_c, 0, 71, 47
1, 15360, Note_on_c, 0, 55, 30
1, 15600, Tempo, 788540
1, 15720, Note_on_c, 0, 71, 0
1, 15720, Note_on_c, 0, 67, 42
1, 15840, Tempo, 735384
1, 15840, Note_on_c, 0, 67, 0
1, 15840, Note_on_c, 0, 55, 0
1, 15840, Note_on_c, 0, 66, 50
1, 15840, Note_on_c, 0, 60, 29
1, 15974, Control_c, 0, 64, 127
1, 16200, Tempo, 690528
1, 16200, Note_on_c, 0, 66, 0
1, 16200, Note_on_c, 0, 74, 49
1, 16320, Tempo, 728244
1, 16320, Note_on_c, 0, 74, 0
1, 16320, Note_on_c, 0, 60, 0
1, 16320, Note_on_c, 0, 67, 57
1, 16320, Note_on_c, 0, 59, 34
1, 16337, Control_c, 0, 64, 0
1, 16440, Control_c, 0, 64, 127
1, 16680, Tempo, 682672
1, 16680, Note_on_c, 0, 67, 0
1, 16680, Note_on_c, 0, 74, 56
1, 16800, Tempo, 719511
1, 16800, Note_on_c, 0, 74, 0
1, 16800, Note_on_c, 0, 59, 0
1, 16800, Note_on_c, 0, 69, 64
1, 16800, Note_on_c, 0, 54, 40
1, 16813, Control_c, 0, 64, 0
1, 16913, Control_c, 0, 64, 127
1, 17160, Note_on_c, 0, 69, 0
1, 17160, Note_on_c, 0, 74, 64
1, 17280, Tempo, 709304
1, 17280, Note_on_c, 0, 74, 0
1, 17280, Note_on_c, 0, 54, 0
1, 17280, Note_on_c, 0, 71, 72
1, 17280, Note_on_c, 0, 55, 54
1, 17291, Control_c, 0, 64, 0
1, 17407, Control_c, 0, 64, 127
1, 17640, Tempo, 660139
1, 17640, Note_on_c, 0, 71, 0
1, 17640, Note_on_c, 0, 79, 62
1, 17760, Tempo, 702658
1, 17760, Note_on_c, 0, 79, 0
1, 17760, Note_on_c, 0, 55, 0
1, 17760, Note_on_c, 0, 72, 68
1, 17760, Note_on_c, 0, 57, 48
1, 17779, Control_c, 0, 64, 0
1, 17894, Control_c, 0, 64, 127
1, 18120, Tempo, 667482
1, 18120, Note_on_c, 0, 72, 0
1, 18120, Note_on_c, 0, 79, 61
1, 18240, Tempo, 702658
1, 18240, Note_on_c, 0, 79, 0
1, 18240, Note_on_c, 0, 57, 0
1, 18240, Note_on_c, 0, 74, 68
1, 18240, Note_on_c, 0, 59, 50
1, 18253, Control_c, 0, 64, 0
1, 18360, Control_c, 0, 64, 127
1, 18600, Tempo, 778311
1, 18600, Note_on_c, 0, 74, 0
1, 18600, Note_on_c, 0, 79, 63
1, 18720, Tempo, 709304
1, 18720, Note_on_c, 0, 79, 0
1, 18720, Note_on_c, 0, 59, 0
1, 18720, Note_on_c, 0, 76, 68
1, 18720, Note_on_c, 0, 60, 54
1, 18738, Control_c, 0, 64, 0
1, 18840, Control_c, 0, 64, 127
1, 19080, Tempo, 671216
1, 19080, Note_on_c, 0, 76, 0
1, 19080, Note_on_c, 0, 84, 56
1, 19200, Tempo, 706797
1, 19200, Note_on_c, 0, 84, 0
1, 19200, Note_on_c, 0, 60, 0
1, 19200, Note_on_c, 0, 78, 65
1, 19200, Note_on_c, 0, 57, 48
1, 19219, Control_c, 0, 64, 0
1, 19348, Control_c, 0, 64, 127
1, 19560, Tempo, 674992
1, 19560, Note_on_c, 0, 78, 0
1, 19560, Note_on_c, 0, 81, 56
1, 19680, Tempo, 706797
1, 19680, Note_on_c, 0, 81, 0
1, 19680, Note_on_c, 0, 57, 0
1, 19680, Note_on_c, 0, 79, 65
1, 19680, Note_on_c, 0, 59, 42
1, 19698, Control_c, 0, 64, 0
1, 19793, Control_c, 0, 64, 127
1, 20040, Tempo, 815328
1, 20040, Note_on_c, 0, 79, 0
1, 20040, Note_on_c, 0, 71, 42
1, 20040, Note_on_c, 0, 74, 50
1, 20160, Tempo, 753864
1, 20160, Note_on_c, 0, 74, 0
1, 20160, Note_on_c, 0, 71, 0
1, 20160, Note_on_c, 0, 59, 0
1, 20160, Note_on_c, 0, 71, 51
1, 20160, Note_on_c, 0, 74, 61
1, 20160, Note_on_c, 0, 48, 53
1, 20174, Control_c, 0, 64, 0
1, 20259, Control_c, 0, 64, 127
1, 20280, Tempo, 749157
1, 20520, Note_on_c, 0, 74, 0
1, 20520, Note_on_c, 0, 71, 0
1, 20520, Note_on_c, 0, 69, 39
1, 20520, Note_on_c, 0, 72, 47
1, 20640, Tempo, 773296
1, 20640, Note_on_c, 0, 72, 0
1, 20640, Note_on_c, 0, 69, 0
1, 20640, Note_on_c, 0, 48, 0
1, 20640, Note_on_c, 0, 71, 59
1, 20640, Note_on_c, 0, 67, 50
1, 20640, Note_on_c, 0, 50, 42
1, 20656, Control_c, 0, 64, 0
1, 20746, Control_c, 0, 64, 127
1, 21120, Tempo, 804397
1, 21120, Note_on_c, 0, 50, 0
1, 21120, Note_on_c, 0, 67, 0
1, 21120, Note_on_c, 0, 71, 0
1, 21120, Note_on_c, 0, 69, 44
1, 21120, Note_on_c, 0, 66, 37
1, 21120, Note_on_c, 0, 38, 36
1, 21139, Control_c, 0, 64, 0
1, 21261, Control_c, 0, 64, 127
1, 21600, Tempo, 832293
1, 21600, Note_on_c, 0, 38, 0
1, 21600, Note_on_c, 0, 66, 0
1, 21600, Note_on_c, 0, 69, 0
1, 21600, Note_on_c, 0, 67, 54
1, 21600, Note_on_c, 0, 43, 30
1, 21614, Control_c, 0, 64, 0
1, 21692, Control_c, 0, 64, 127
1, 21960, Note_on_c, 0, 43, 0
1, 21960, Note_on_c, 0, 55, 26
1, 22080, Tempo, 862193
1, 22080, Note_on_c, 0, 55, 0
1, 22080, Note_on_c, 0, 67, 0
1, 22080, Note_on_c, 0, 66, 40
1, 22080, Note_on_c, 0, 45, 30
1, 22098, Control_c, 0, 64, 0
1, 22207, Control_c, 0, 64, 127
1, 22440, Note_on_c, 0, 45, 0
1, 22440, Note_on_c, 0, 55, 25
1, 22560, Tempo, 894321
1, 22560, Note_on_c, 0, 55, 0
1, 22560, Note_on_c, 0, 66, 0
1, 22560, Note_on_c, 0, 65, 28
1, 22560, Note_on_c, 0, 47, 30
1, 22577, Control_c, 0, 64, 0
1, 22680, Control_c, 0, 64, 127
1, 22920, Tempo, 1099102
1, 22920, Note_on_c, 0, 47, 0
1, 22920, Note_on_c, 0, 55, 20
1, 23040, Tempo, 758629
1, 23040, Note_on_c, 0, 55, 0
1, 23040, Note_on_c, 0, 65, 0
1, 23040, Note_on_c, 0, 64, 46
1, 23040, Note_on_c, 0, 48, 33
1, 23046, Control_c, 0, 64, 0
1, 23400, Tempo, 706797
1, 23400, Note_on_c, 0, 64, 0
1, 23400, Note_on_c, 0, 67, 40
1, 23520, Tempo, 755763
1, 23520, Note_on_c, 0, 67, 0
1, 23520, Note_on_c, 0, 72, 50
1, 23880, Tempo, 698568
1, 23880, Note_on_c, 0, 72, 0
1, 23880, Note_on_c, 0, 69, 41
1, 24000, Tempo, 751033
1, 24000, Note_on_c, 0, 69, 0
1, 24000, Note_on_c, 0, 48, 0
1, 24000, Note_on_c, 0, 67, 47
1, 24000, Note_on_c, 0, 47, 30
1, 24240, Tempo, 799041
1, 24360, Note_on_c, 0, 67, 0
1, 24360, Note_on_c, 0, 65, 42
1, 24480, Tempo, 749157
1, 24480, Note_on_c, 0, 65, 0
1, 24480, Note_on_c, 0, 47, 0
1, 24480, Note_on_c, 0, 64, 50
1, 24480, Note_on_c, 0, 48, 35
1, 24840, Tempo, 698568
1, 24840, Note_on_c, 0, 64, 0
1, 24840, Note_on_c, 0, 67, 40
1, 24960, Tempo, 741748
1, 24960, Note_on_c, 0, 67, 0
1, 24960, Note_on_c, 0, 72, 50
1, 25320, Tempo, 702658
1, 25320, Note_on_c, 0, 72, 0
1, 25320, Note_on_c, 0, 69, 41
1, 25440, Tempo, 746361
1, 25440, Note_on_c, 0, 69, 0
1, 25440, Note_on_c, 0, 48, 0
1, 25440, Note_on_c, 0, 67, 47
1, 25440, Note_on_c, 0, 47, 30
1, 25680, Tempo, 799041
1, 25800, Tempo, 793756
1, 25800, Note_on_c, 0, 67, 0
1, 25800, Note_on_c, 0, 65, 42
1, 25920, Tempo, 753864
1, 25920, Note_on_c, 0, 65, 0
1, 25920, Note_on_c, 0, 47, 0
1, 25920, Note_on_c, 0, 64, 50
1, 25920, Note_on_c, 0, 48, 35
1, 26280, Tempo, 702658
1, 26280, Note_on_c, 0, 64, 0
1, 26280, Note_on_c, 0, 67, 40
1, 26400, Tempo, 751033
1, 26400, Note_on_c, 0, 67, 0
1, 26400, Note_on_c, 0, 48, 0
1, 26400, Note_on_c, 0, 69, 50
1, 26400, Note_on_c, 0, 53, 30
1, 26760, Tempo, 698568
1, 26760, Note_on_c, 0, 69, 0
1, 26760, Note_on_c, 0, 65, 41
1, 26880, Tempo, 751033
1, 26880, Note_on_c, 0, 65, 0
1, 26880, Note_on_c, 0, 62, 47
1, 27120, Tempo, 788540
1, 27240, Note_on_c, 0, 62, 0
1, 27240, Note_on_c, 0, 60, 42
1, 27360, Tempo, 749157
1, 27360, Note_on_c, 0, 60, 0
1, 27360, Note_on_c, 0, 53, 0
1, 27360, Note_on_c, 0, 59, 47
1, 27360, Note_on_c, 0, 55, 35
1, 27508, Control_c, 0, 64, 127
1, 27720, Tempo, 706797
1, 27720, Note_on_c, 0, 59, 0
1, 27720, Note_on_c, 0, 62, 42
1, 27840, Tempo, 741748
1, 27840, Note_on_c, 0, 62, 0
1, 27840, Note_on_c, 0, 55, 0
1, 27840, Note_on_c, 0, 60, 47
1, 27840, Note_on_c, 0, 52, 45
1, 27857, Control_c, 0, 64, 0
1, 28200, Tempo, 710985
1, 28200, Note_on_c, 0, 52, 0
1, 28200, Note_on_c, 0, 55, 37
1, 28320, Tempo, 746361
1, 28320, Note_on_c, 0, 55, 0
1, 28320, Note_on_c, 0, 60, 0
1, 28320, Note_on_c, 0, 52, 43
1, 28560, Tempo, 856042
1, 28680, Note_on_c, 0, 52, 0
1, 28680, Note_on_c, 0, 48, 41
1, 28800, Tempo, 793756
1, 28800, Note_on_c, 0, 48, 0
1, 28800, Note_on_c, 0, 65, 61
1, 28800, Note_on_c, 0, 62, 51
1, 28800, Note_on_c, 0, 47, 61
1, 28857, Control_c, 0, 64, 127
1, 29160, Tempo, 706797
1, 29160, Note_on_c, 0, 47, 0
1, 29160, Note_on_c, 0, 50, 47
1, 29280, Tempo, 741748
1, 29280, Note_on_c, 0, 50, 0
1, 29280, Note_on_c, 0, 43, 52
1, 29640, Tempo, 706797
1, 29640, Note_on_c, 0, 43, 0
1, 29640, Note_on_c, 0, 47, 37
1, 29760, Tempo, 741748
1, 29760, Note_on_c, 0, 47, 0
1, 29760, Note_on_c, 0, 62, 0
1, 29760, Note_on_c, 0, 65, 0
1, 29760, Note_on_c, 0, 60, 39
1, 29760, Note_on_c, 0, 64, 47
1, 29760, Note_on_c, 0, 48, 43
1, 29774, Control_c, 0, 64, 0
1, 29887, Control_c, 0, 64, 127
1, 30000, Tempo, 856042
1, 30120, Note_on_c, 0, 48, 0
1, 30120, Note_on_c, 0, 52, 41
1, 30240, Tempo, 788540
1, 30240, Note_on_c, 0, 52, 0
1, 30240, Note_on_c, 0, 64, 0
1, 30240, Note_on_c, 0, 60, 0
1, 30240, Note_on_c, 0, 65, 61
1, 30240, Note_on_c, 0, 62, 51
1, 30240, Note_on_c, 0, 47, 61
1, 30254, Control_c, 0, 64, 0
1, 30339, Control_c, 0, 64, 127
1, 30600, Tempo, 706797
1, 30600, Note_on_c, 0, 47, 0
1, 30600, Note_on_c, 0, 50, 47
1, 30720, Tempo, 741748
1, 30720, Note_on_c, 0, 50, 0
1, 30720, Note_on_c, 0, 43, 52
1, 31080, Tempo, 702658
1, 31080, Note_on_c, 0, 43, 0
1, 31080, Note_on_c, 0, 47, 37
1, 31200, Tempo, 737191
1, 31200, Note_on_c, 0, 47, 0
1, 31200, Note_on_c, 0, 62, 0
1, 31200, Note_on_c, 0, 65, 0
1, 31200, Note_on_c, 0, 60, 39
1, 31200, Note_on_c, 0, 64, 47
1, 31200, Note_on_c, 0, 48, 43
1, 31215, Control_c, 0, 64, 0
1, 31341, Control_c, 0, 64, 127
1, 31440, Tempo, 844001
1, 31560, Note_on_c, 0, 48, 0
1, 31560, Note_on_c, 0, 52, 41
1, 31680, Tempo, 788540
1, 31680, Note_on_c, 0, 52, 0
1, 31680, Note_on_c, 0, 64, 0
1, 31680, Note_on_c, 0, 60, 0
1, 31680, Note_on_c, 0, 57, 49
1, 31680, Note_on_c, 0, 53, 35
1, 31692, Control_c, 0, 64, 0
1, 31828, Control_c, 0, 64, 127
1, 32040, Note_on_c, 0, 57, 0
1, 32040, Note_on_c, 0, 62, 42
1, 32160, Tempo, 804397
1, 32160, Note_on_c, 0, 62, 0
1, 32160, Note_on_c, 0, 53, 0
1, 32160, Note_on_c, 0, 55, 47
1, 32160, Note_on_c, 0, 43, 35
1, 32160, Note_on_c, 0, 52, 35
1, 32174, Control_c, 0, 64, 0
1, 32266, Control_c, 0, 64, 127
1, 32520, Note_on_c, 0, 55, 0
1, 32520, Note_on_c, 0, 60, 38
1, 32640, Note_on_c, 0, 60, 0
1, 32640, Note_on_c, 0, 52, 0
1, 32640, Note_on_c, 0, 43, 0
1, 32640, Note_on_c, 0, 53, 45
1, 32640, Note_on_c, 0, 50, 28
1, 32640, Note_on_c, 0, 43, 28
1, 32653, Control_c, 0, 64, 0
1, 32753, Control_c, 0, 64, 127
1, 32880, Tempo, 936183
1, 33000, Note_on_c, 0, 53, 0
1, 33000, Note_on_c, 0, 59, 36
1, 33120, Tempo, 887705
1, 33120, Note_on_c, 0, 59, 0
1, 33120, Note_on_c, 0, 43, 0
1, 33120, Note_on_c, 0, 50, 0
1, 33120, Note_on_c, 0, 60, 38
1, 33120, Note_on_c, 0, 52, 37
1, 33120, Note_on_c, 0, 48, 37
1, 33128, Control_c, 0, 64, 0
1, 33480, Tempo, 732690
1, 33480, Note_on_c, 0, 60, 0
1, 33480, Note_on_c, 0, 72, 38
1, 33600, Tempo, 770317
1, 33600, Note_on_c, 0, 72, 0
1, 33600, Note_on_c, 0, 48, 0
1, 33600, Note_on_c, 0, 52, 0
1, 33600, Note_on_c, 0, 71, 46
1, 33960, Tempo, 732690
1, 33960, Note_on_c, 0, 71, 0
1, 33960, Note_on_c, 0, 69, 47
1, 34080, Tempo, 778311
1, 34080, Note_on_c, 0, 69, 0
1, 34080, Note_on_c, 0, 67, 53
1, 34440, Tempo, 887705
1, 34440, Note_on_c, 0, 67, 0
1, 34440, Note_on_c, 0, 66, 49
1, 34560, Tempo, 799041
1, 34560, Note_on_c, 0, 66, 0
1, 34560, Note_on_c, 0, 65, 61
1, 34560, Note_on_c, 0, 62, 51
1, 34560, Note_on_c, 0, 47, 61
1, 34617, Control_c, 0, 64, 127
1, 34920, Tempo, 719511
1, 34920, Note_on_c, 0, 47, 0
1, 34920, Note_on_c, 0, 50, 47
1, 35040, Tempo, 746361
1, 35040, Note_on_c, 0, 50, 0
1, 35040, Note_on_c, 0, 43, 52
1, 35400, Tempo, 715222
1, 35400, Note_on_c, 0, 43, 0
1, 35400, Note_on_c, 0, 47, 37
1, 35520, Tempo, 741748
1, 35520, Note_on_c, 0, 47, 0
1, 35520, Note_on_c, 0, 62, 0
1, 35520, Note_on_c, 0, 65, 0
1, 35520, Note_on_c, 0, 60, 39
1, 35520, Note_on_c, 0, 64, 47
1, 35520, Note_on_c, 0, 48, 43
1, 35534, Control_c, 0, 64, 0
1, 35647, Control_c, 0, 64, 127
1, 35760, Tempo, 856042
1, 35880, Note_on_c, 0, 48, 0
1, 35880, Note_on_c, 0, 52, 41
1, 36000, Tempo, 783392
1, 36000, Note_on_c, 0, 52, 0
1, 36000, Note_on_c, 0, 64, 0
1, 36000, Note_on_c, 0, 60, 0
1, 36000, Note_on_c, 0, 65, 61
1, 36000, Note_on_c, 0, 62, 51
1, 36000, Note_on_c, 0, 47, 61
1, 36014, Control_c, 0, 64, 0
1, 36099, Control_c, 0, 64, 127
1, 36360, Tempo, 706797
1, 36360, Note_on_c, 0, 47, 0
1, 36360, Note_on_c, 0, 50, 47
1, 36480, Tempo, 737191
1, 36480, Note_on_c, 0, 50, 0
1, 36480, Note_on_c, 0, 43, 52
1, 36840, Tempo, 706797
1, 36840, Note_on_c, 0, 43, 0
1, 36840, Note_on_c, 0, 47, 37
1, 36960, Tempo, 732690
1, 36960, Note_on_c, 0, 47, 0
1, 36960, Note_on_c, 0, 62, 0
1, 36960, Note_on_c, 0, 65, 0
1, 36960, Note_on_c, 0, 60, 39
1, 36960, Note_on_c, 0, 64, 47
1, 36960, Note_on_c, 0, 48, 43
1, 36975, Control_c, 0, 64, 0
1, 37101, Control_c, 0, 64, 127
1, 37200, Tempo, 844001
1, 37320, Note_on_c, 0, 48, 0
1, 37320, Note_on_c, 0, 52, 41
1, 37440, Tempo, 788540
1, 37440, Note_on_c, 0, 52, 0
1, 37440, Note_on_c, 0, 64, 0
1, 37440, Note_on_c, 0, 60, 0
1, 37440, Note_on_c, 0, 57, 49
1, 37440, Note_on_c, 0, 53, 35
1, 37452, Control_c, 0, 64, 0
1, 37588, Control_c, 0, 64, 127
1, 37680, Tempo, 741748
1, 37800, Tempo, 746361
1, 37800, Note_on_c, 0, 57, 0
1, 37800, Note_on_c, 0, 62, 42
1, 37920, Tempo, 790618
1, 37920, Note_on_c, 0, 62, 0
1, 37920, Note_on_c, 0, 53, 0
1, 37920, Note_on_c, 0, 55, 47
1, 37920, Note_on_c, 0, 43, 29
1, 37920, Note_on_c, 0, 52, 35
1, 37934, Control_c, 0, 64, 0
1, 38026, Control_c, 0, 64, 127
1, 38280, Note_on_c, 0, 55, 0
1, 38280, Note_on_c, 0, 60, 38
1, 38400, Tempo, 838106
1, 38400, Note_on_c, 0, 60, 0
1, 38400, Note_on_c, 0, 52, 0
1, 38400, Note_on_c, 0, 43, 0
1, 38400, Note_on_c, 0, 53, 45
1, 38400, Note_on_c, 0, 50, 28
1, 38400, Note_on_c, 0, 43, 23
1, 38413, Control_c, 0, 64, 0
1, 38513, Control_c, 0, 64, 127
1, 38640, Tempo, 1015400
1, 38760, Note_on_c, 0, 53, 0
1, 38760, Note_on_c, 0, 59, 36
1, 38880, Tempo, 1032880
1, 38880, Note_on_c, 0, 59, 0
1, 38880, Note_on_c, 0, 43, 0
1, 38880, Note_on_c, 0, 50, 0
1, 38880, Note_on_c, 0, 53, 32
1, 38880, Note_on_c, 0, 59, 32
1, 38880, Note_on_c, 0, 62, 38
1, 38880, Note_on_c, 0, 48, 37
1, 38888, Control_c, 0, 64, 0
1, 39200, Control_c, 0, 64, 127
1, 39360, Tempo, 1151853
1, 39360, Note_on_c, 0, 48, 0
1, 39360, Note_on_c, 0, 43, 31
1, 39840, Tempo, 1247661
1, 39840, Note_on_c, 0, 43, 0
1, 39840, Note_on_c, 0, 62, 0
1, 39840, Note_on_c, 0, 59, 0
1, 39840, Note_on_c, 0, 53, 0
1, 39840, Note_on_c, 0, 52, 29
1, 39840, Note_on_c, 0, 60, 35
1, 39840, Note_on_c, 0, 36, 29
1, 39853, Control_c, 0, 64, 0
1, 40320, Note_on_c, 0, 36, 0
1, 40320, Note_on_c, 0, 60, 0
1, 40320, Note_on_c, 0, 52, 0
1, 40320, End_track
0, 0, End_of_file
